<svg width="600" height="600" viewBox="0 0 600 600" fill="none" xmlns="http://www.w3.org/2000/svg">
<path d="M248.546 440.356C220.988 471.06 227.901 490.014 269.285 497.219C272.111 497.711 274.393 494.981 273.467 492.266L147.738 123.392C146.813 120.677 143.339 119.909 141.402 122.024C113.033 153.004 119.135 172.235 159.708 179.716C162.835 180.293 164.165 184.195 162.041 186.561C134.808 216.904 141.239 235.771 181.334 243.165C184.461 243.741 185.791 247.644 183.667 250.01C156.434 280.352 162.865 299.22 202.96 306.614C206.087 307.19 207.417 311.093 205.293 313.459C178.06 343.801 184.491 362.669 224.586 370.062C227.713 370.639 229.043 374.542 226.92 376.908C199.686 407.25 206.117 426.118 246.213 433.511C249.339 434.088 250.669 437.99 248.546 440.356Z" fill="#FFB46E"/>
<path d="M146.83 121.635L146.847 118.956L143.078 118.932L272.872 499.732L275.9 496.898L274.07 494.942C275.9 496.898 275.902 496.897 275.903 496.896L275.927 496.873L275.993 496.811C276.05 496.757 276.132 496.678 276.24 496.575C276.455 496.368 276.768 496.064 277.173 495.663C277.981 494.861 279.153 493.676 280.623 492.123C283.562 489.018 287.695 484.443 292.499 478.533C302.104 466.718 314.412 449.546 325.23 428.104C328.755 421.117 332.124 413.673 335.19 405.81L328.505 408.088C325.974 414.234 323.262 420.108 320.446 425.691C309.84 446.711 297.764 463.561 288.341 475.153C283.631 480.947 279.589 485.421 276.731 488.439C276.183 489.019 275.678 489.544 275.221 490.015L150.626 124.466C151.281 124.504 152.016 124.551 152.825 124.61C156.732 124.894 162.386 125.449 169.326 126.534C183.212 128.704 202.214 132.99 222.67 141.444C227.886 143.6 233.195 146.025 238.538 148.756L237.962 147.067L243.365 145.225C237.082 141.914 230.835 139.02 224.717 136.492C203.781 127.84 184.352 123.459 170.154 121.239C163.052 120.129 157.25 119.559 153.213 119.265C151.195 119.119 149.616 119.041 148.536 119.001C147.996 118.98 147.58 118.969 147.297 118.963C147.155 118.96 147.046 118.958 146.97 118.957L146.883 118.956L146.859 118.956L146.851 118.956C146.849 118.956 146.847 118.956 146.83 121.635Z" fill="#FFB46E"/>
<path d="M262.577 107.703C262.577 107.703 404.462 108.61 451.828 243.645C499.194 378.68 389.816 481.01 389.816 481.01L262.577 107.703Z" fill="#FFB46E"/>
<path d="M364.292 426.424C336.734 457.127 343.647 476.082 385.031 483.287C387.857 483.779 390.139 481.049 389.213 478.334L263.484 109.459C262.559 106.745 259.085 105.977 257.148 108.092C228.779 139.072 234.881 158.302 275.454 165.784C278.581 166.36 279.911 170.263 277.787 172.629C250.554 202.971 256.985 221.839 297.08 229.233C300.207 229.809 301.537 233.712 299.413 236.078C272.18 266.42 278.611 285.288 318.706 292.681C321.833 293.258 323.163 297.161 321.04 299.527C293.806 329.869 300.237 348.737 340.333 356.13C343.459 356.707 344.789 360.609 342.666 362.975C315.432 393.318 321.863 412.185 361.959 419.579C365.085 420.155 366.415 424.058 364.292 426.424Z" fill="#FFB46E"/>
<path d="M232.546 455.357C204.988 486.06 211.901 505.014 253.285 512.219C256.11 512.711 258.392 509.981 257.467 507.267L131.738 138.392C130.813 135.677 127.339 134.909 125.402 137.025C97.033 168.004 103.135 187.235 143.708 194.717C146.834 195.293 148.165 199.196 146.041 201.562C118.808 231.904 125.239 250.772 165.334 258.165C168.461 258.742 169.791 262.644 167.667 265.011C140.434 295.353 146.865 314.221 186.96 321.614C190.087 322.191 191.417 326.093 189.293 328.459C162.06 358.801 168.491 377.669 208.586 385.063C211.713 385.639 213.043 389.542 210.919 391.908C183.686 422.25 190.117 441.118 230.212 448.511C233.339 449.088 234.669 452.991 232.546 455.357Z" stroke="#1E1E1E" stroke-width="5.35864"/>
<path d="M130.83 136.635L130.847 133.956L127.078 133.932L256.871 514.732L259.9 511.899L258.069 509.942C259.9 511.899 259.901 511.898 259.903 511.896L259.926 511.874L259.992 511.811C260.049 511.757 260.132 511.679 260.239 511.575C260.454 511.369 260.768 511.064 261.172 510.663C261.981 509.862 263.153 508.676 264.623 507.123C267.562 504.018 271.694 499.443 276.499 493.533C286.103 481.718 298.412 464.546 309.23 443.105C312.755 436.117 316.124 428.673 319.189 420.81L312.504 423.088C309.974 429.234 307.262 435.108 304.445 440.691C293.84 461.711 281.764 478.561 272.341 490.153C267.631 495.947 263.588 500.421 260.731 503.44C260.183 504.019 259.678 504.544 259.221 505.015L134.625 139.466C135.281 139.504 136.015 139.551 136.825 139.61C140.732 139.894 146.386 140.449 153.326 141.534C167.211 143.705 186.214 147.99 206.67 156.444C211.886 158.6 217.195 161.026 222.538 163.756L221.962 162.067L227.365 160.225C221.082 156.914 214.834 154.02 208.717 151.492C187.781 142.84 168.351 138.459 154.153 136.24C147.051 135.13 141.25 134.559 137.213 134.266C135.194 134.119 133.616 134.042 132.536 134.001C131.996 133.981 131.58 133.969 131.296 133.963C131.154 133.96 131.045 133.958 130.97 133.957L130.883 133.956L130.858 133.956L130.851 133.956C130.849 133.956 130.847 133.956 130.83 136.635Z" fill="#1E1E1E"/>
<path d="M246.576 122.703C246.576 122.703 388.462 123.61 435.828 258.645C483.194 393.68 373.816 496.01 373.816 496.01L246.576 122.703Z" stroke="#1E1E1E" stroke-width="5.35864"/>
<path d="M348.292 441.424C320.734 472.127 327.647 491.082 369.031 498.287C371.857 498.779 374.139 496.049 373.213 493.334L247.484 124.459C246.559 121.745 243.085 120.977 241.148 123.092C212.779 154.072 218.881 173.302 259.454 180.784C262.581 181.36 263.911 185.263 261.787 187.629C234.554 217.971 240.985 236.839 281.08 244.233C284.207 244.809 285.537 248.712 283.413 251.078C256.18 281.42 262.611 300.288 302.706 307.681C305.833 308.258 307.163 312.161 305.039 314.527C277.806 344.869 284.237 363.737 324.332 371.13C327.459 371.707 328.789 375.609 326.666 377.975C299.432 408.318 305.863 427.185 345.959 434.579C349.085 435.155 350.415 439.058 348.292 441.424Z" stroke="#1E1E1E" stroke-width="5.35864"/>
</svg>
