<svg width="600" height="600" viewBox="0 0 600 600" fill="none" xmlns="http://www.w3.org/2000/svg">
<path d="M232.546 455.357C204.988 486.06 211.901 505.014 253.285 512.219C256.11 512.711 258.392 509.981 257.467 507.267L131.738 138.392C130.813 135.677 127.339 134.909 125.402 137.025C97.033 168.004 103.135 187.235 143.708 194.717C146.834 195.293 148.165 199.196 146.041 201.562C118.808 231.904 125.239 250.772 165.334 258.165C168.461 258.742 169.791 262.644 167.667 265.011C140.434 295.353 146.865 314.221 186.96 321.614C190.087 322.191 191.417 326.093 189.293 328.459C162.06 358.801 168.491 377.669 208.586 385.063C211.713 385.639 213.043 389.542 210.919 391.908C183.686 422.25 190.117 441.118 230.212 448.511C233.339 449.088 234.669 452.991 232.546 455.357Z" stroke="#1E1E1E" stroke-width="5.35864"/>
<path d="M130.83 136.635L130.847 133.956L127.078 133.932L256.871 514.732L259.9 511.899L258.069 509.942C259.9 511.899 259.901 511.898 259.903 511.896L259.926 511.874L259.992 511.811C260.049 511.757 260.132 511.679 260.239 511.575C260.454 511.369 260.768 511.064 261.172 510.663C261.981 509.862 263.153 508.676 264.623 507.123C267.562 504.018 271.694 499.443 276.499 493.533C286.103 481.718 298.412 464.546 309.23 443.105C312.755 436.117 316.124 428.673 319.189 420.81L312.504 423.088C309.974 429.234 307.262 435.108 304.445 440.691C293.84 461.711 281.764 478.561 272.341 490.153C267.631 495.947 263.588 500.421 260.731 503.44C260.183 504.019 259.678 504.544 259.221 505.015L134.625 139.466C135.281 139.504 136.015 139.551 136.825 139.61C140.732 139.894 146.386 140.449 153.326 141.534C167.211 143.705 186.214 147.99 206.67 156.444C211.886 158.6 217.195 161.026 222.538 163.756L221.962 162.067L227.365 160.225C221.082 156.914 214.834 154.02 208.717 151.492C187.781 142.84 168.351 138.459 154.153 136.24C147.051 135.13 141.25 134.559 137.213 134.266C135.194 134.119 133.616 134.042 132.536 134.001C131.996 133.981 131.58 133.969 131.296 133.963C131.154 133.96 131.045 133.958 130.97 133.957L130.883 133.956L130.858 133.956L130.851 133.956C130.849 133.956 130.847 133.956 130.83 136.635Z" fill="#1E1E1E"/>
<path d="M246.576 122.703C246.576 122.703 388.462 123.61 435.828 258.645C483.194 393.68 373.816 496.01 373.816 496.01L246.576 122.703Z" stroke="#1E1E1E" stroke-width="5.35864"/>
<path d="M348.292 441.424C320.734 472.127 327.647 491.082 369.031 498.287C371.857 498.779 374.139 496.049 373.213 493.334L247.484 124.459C246.559 121.745 243.085 120.977 241.148 123.092C212.779 154.072 218.881 173.302 259.454 180.784C262.581 181.36 263.911 185.263 261.787 187.629C234.554 217.971 240.985 236.839 281.08 244.233C284.207 244.809 285.537 248.712 283.413 251.078C256.18 281.42 262.611 300.288 302.706 307.681C305.833 308.258 307.163 312.161 305.039 314.527C277.806 344.869 284.237 363.737 324.332 371.13C327.459 371.707 328.789 375.609 326.666 377.975C299.432 408.318 305.863 427.185 345.959 434.579C349.085 435.155 350.415 439.058 348.292 441.424Z" stroke="#1E1E1E" stroke-width="5.35864"/>
</svg>
