<svg width="600" height="600" viewBox="0 0 600 600" fill="none" xmlns="http://www.w3.org/2000/svg">
<path d="M300.432 315.896C302.161 322.645 304.802 329.129 308.25 335.275C305.71 335.766 303.089 336.03 300.408 336.037L300.42 341.037L300.421 341.036L300.422 341.037C300.424 341.037 300.426 341.036 300.429 341.036C304.092 341.029 307.68 340.705 311.163 340.095C331.984 372.18 375.367 393.916 424.933 393.916C442.176 393.916 458.626 391.294 473.628 386.542C469.344 416.488 449.81 436.441 420.056 449.11C388.925 462.366 346.866 467.501 300.295 467.501C253.701 467.501 211.623 462.36 180.488 449.091C150.73 436.408 131.204 416.432 126.948 386.45C142.028 391.26 158.578 393.916 175.932 393.916C225.474 393.916 268.84 372.2 289.672 340.139C293.078 340.721 296.584 341.029 300.161 341.036C300.164 341.036 300.166 341.037 300.169 341.037V341.036L300.171 341.037L300.176 338.537L300.182 336.037C297.587 336.03 295.049 335.784 292.587 335.323C296.048 329.163 298.698 322.662 300.432 315.896ZM300.295 132.5C303.313 132.5 306.538 134.022 309.968 137.291C313.39 140.553 316.797 145.354 320.118 151.388C326.754 163.444 332.786 179.935 337.883 197.477C348.089 232.601 354.348 271.221 354.348 285.52C354.348 299.491 348.25 312.198 338.367 321.373C343.788 313.748 346.977 304.424 346.977 294.355C346.977 281.59 341.843 265.663 333.638 252.924C325.494 240.281 313.794 230.001 300.295 230.001C286.796 230.001 275.095 240.281 266.952 252.924C258.747 265.663 253.613 281.59 253.613 294.355C253.613 304.422 256.8 313.745 262.219 321.369C252.339 312.194 246.243 299.489 246.243 285.52C246.243 271.221 252.501 232.601 262.707 197.477C267.804 179.935 273.837 163.444 280.473 151.388C283.794 145.354 287.2 140.553 290.623 137.291C294.052 134.022 297.277 132.5 300.295 132.5Z" stroke="#1E1E1E" stroke-width="5"/>
</svg>
