<svg width="600" height="600" viewBox="0 0 600 600" fill="none" xmlns="http://www.w3.org/2000/svg">
<path d="M323.615 301.18L359.384 97.0175L359.285 97L323.516 301.165M323.615 301.18L323.516 301.165M323.615 301.18C333.202 302.634 342.273 305.095 350.609 308.533M323.615 301.18L320.689 317.882L320.591 317.864L323.516 301.165M323.516 301.165C316.707 300.138 309.639 299.619 302.389 299.619C293.655 299.619 285.183 300.373 277.112 301.86M277.112 301.86L241.222 97L241.123 97.0175L277.014 301.878M277.112 301.86L277.014 301.878M277.112 301.86L279.916 317.864L279.818 317.882L277.014 301.878M277.014 301.878C267.619 303.618 258.767 306.352 250.675 310.05M250.675 310.05L117.076 149.806L117 149.87L250.581 310.093M250.675 310.05L250.581 310.093M250.675 310.05L260.311 321.607L260.234 321.672L250.581 310.093M250.581 310.093C222.003 323.19 202.931 348.325 202.931 384.115C202.931 412.825 215.204 438.681 234.811 456.767L211.684 502.397V503.021H387.525L365.888 460.33C387.857 442.167 401.847 414.768 401.847 384.115C401.847 346.887 381.211 321.187 350.706 308.573M350.706 308.573L483.02 149.87L482.943 149.806L350.609 308.533M350.706 308.573L350.609 308.533M350.706 308.573L339.785 321.672L339.709 321.607L350.609 308.533" stroke="#1E1E1E" stroke-width="5"/>
<path d="M190.295 38.3579C190.295 38.3579 199.229 27.2278 218.829 57.283C238.429 87.3381 244.356 81.9274 244.356 81.9274C244.356 81.9274 233.79 92.016 213.554 60.4939C193.318 28.9719 190.295 38.3579 190.295 38.3579Z" fill="#1E1E1E"/>
<path d="M195.126 17.1726C195.126 17.1726 204.06 6.04251 223.66 36.0977C243.26 66.1528 249.187 60.7421 249.187 60.7421C249.187 60.7421 238.621 70.8307 218.385 39.3086C198.149 7.78663 195.126 17.1726 195.126 17.1726Z" fill="#1E1E1E"/>
<path d="M340.211 29.9825C340.211 29.9825 351.904 21.7996 362.303 56.141C372.702 90.4824 379.908 86.948 379.908 86.948C379.908 86.948 366.939 93.674 356.341 57.7464C345.742 21.8188 340.211 29.9825 340.211 29.9825Z" fill="#1E1E1E"/>
<path d="M350.762 10.9867C350.762 10.9867 362.455 2.80378 372.854 37.1452C383.253 71.4866 390.458 67.9522 390.458 67.9522C390.458 67.9522 377.49 74.6781 366.891 38.7505C356.293 2.82295 350.762 10.9867 350.762 10.9867Z" fill="#1E1E1E"/>
<path d="M57.8236 103.256C57.8236 103.256 63.1378 90.01 90.6253 113.073C118.113 136.136 122.212 129.237 122.212 129.237C122.212 129.237 115.033 141.96 86.5112 117.678C57.9892 93.3963 57.8236 103.256 57.8236 103.256Z" fill="#1E1E1E"/>
<path d="M56.2676 81.5824C56.2676 81.5824 61.5817 68.3367 89.0693 91.3998C116.557 114.463 120.656 107.563 120.656 107.563C120.656 107.563 113.477 120.287 84.9552 96.0049C56.4332 71.7229 56.2676 81.5824 56.2676 81.5824Z" fill="#1E1E1E"/>
<path d="M501.774 72.1641C501.774 72.1641 516.038 72.6473 503.72 106.348C491.402 140.049 499.285 141.552 499.285 141.552C499.285 141.552 484.877 139.138 497.988 104.049C511.1 68.9605 501.774 72.1641 501.774 72.1641Z" fill="#1E1E1E"/>
<path d="M521.62 63.3169C521.62 63.3169 535.884 63.8002 523.566 97.5009C511.248 131.202 519.132 132.705 519.132 132.705C519.132 132.705 504.723 130.291 517.835 95.202C530.946 60.1134 521.62 63.3169 521.62 63.3169Z" fill="#1E1E1E"/>
</svg>
