<svg width="94" height="18" viewBox="0 0 94 18" fill="none" xmlns="http://www.w3.org/2000/svg">
<path d="M4.67306 14.162C4.12106 14.162 3.58106 14.102 3.05306 13.982C2.52506 13.862 2.02706 13.688 1.55906 13.46C1.10306 13.232 0.701063 12.956 0.353063 12.632L0.911063 11.48C1.49906 11.948 2.09906 12.296 2.71106 12.524C3.32306 12.74 3.97706 12.848 4.67306 12.848C5.58506 12.848 6.29906 12.602 6.81506 12.11C7.33106 11.618 7.58906 10.97 7.58906 10.166C7.58906 9.338 7.34306 8.66 6.85106 8.132C6.35906 7.604 5.67506 7.34 4.79906 7.34C4.17506 7.34 3.61706 7.466 3.12506 7.718C2.63306 7.958 2.20706 8.336 1.84706 8.852H0.767063V1.31H8.29106V2.57H2.20706V7.628H1.81106C2.13506 7.124 2.57906 6.74 3.14306 6.476C3.71906 6.2 4.36706 6.062 5.08706 6.062C5.90306 6.062 6.60506 6.23 7.19306 6.566C7.79306 6.902 8.25506 7.37 8.57906 7.97C8.90306 8.57 9.06506 9.272 9.06506 10.076C9.06506 10.88 8.88506 11.594 8.52506 12.218C8.17706 12.83 7.67306 13.31 7.01306 13.658C6.36506 13.994 5.58506 14.162 4.67306 14.162ZM15.232 14.162C13.792 14.162 12.688 13.604 11.92 12.488C11.152 11.372 10.768 9.758 10.768 7.646C10.768 5.522 11.152 3.908 11.92 2.804C12.688 1.7 13.792 1.148 15.232 1.148C16.684 1.148 17.788 1.7 18.544 2.804C19.312 3.908 19.696 5.516 19.696 7.628C19.696 9.752 19.312 11.372 18.544 12.488C17.776 13.604 16.672 14.162 15.232 14.162ZM15.232 12.866C16.24 12.866 16.99 12.44 17.482 11.588C17.974 10.736 18.22 9.416 18.22 7.628C18.22 5.828 17.974 4.514 17.482 3.686C16.99 2.846 16.24 2.426 15.232 2.426C14.236 2.426 13.486 2.846 12.982 3.686C12.49 4.526 12.244 5.84 12.244 7.628C12.244 9.416 12.49 10.736 12.982 11.588C13.486 12.44 14.236 12.866 15.232 12.866ZM22.047 17.888V7.052C22.047 6.716 22.029 6.374 21.993 6.026C21.969 5.666 21.939 5.312 21.903 4.964H23.307L23.505 7.106H23.289C23.481 6.398 23.871 5.84 24.459 5.432C25.047 5.012 25.749 4.802 26.565 4.802C27.381 4.802 28.083 4.988 28.671 5.36C29.271 5.732 29.739 6.266 30.075 6.962C30.411 7.658 30.579 8.498 30.579 9.482C30.579 10.454 30.411 11.288 30.075 11.984C29.751 12.68 29.289 13.22 28.689 13.604C28.089 13.976 27.381 14.162 26.565 14.162C25.761 14.162 25.065 13.958 24.477 13.55C23.889 13.142 23.499 12.584 23.307 11.876H23.505V17.888H22.047ZM26.277 12.974C27.141 12.974 27.825 12.68 28.329 12.092C28.845 11.492 29.103 10.622 29.103 9.482C29.103 8.33 28.845 7.46 28.329 6.872C27.825 6.272 27.141 5.972 26.277 5.972C25.425 5.972 24.741 6.272 24.225 6.872C23.721 7.46 23.469 8.33 23.469 9.482C23.469 10.622 23.721 11.492 24.225 12.092C24.741 12.68 25.425 12.974 26.277 12.974ZM35.9561 14.162C35.0681 14.162 34.3901 13.91 33.9221 13.406C33.4541 12.89 33.2201 12.116 33.2201 11.084V6.098H31.4561V4.964H33.2201V2.498L34.6781 2.084V4.964H37.2701V6.098H34.6781V10.922C34.6781 11.642 34.7981 12.158 35.0381 12.47C35.2901 12.77 35.6621 12.92 36.1541 12.92C36.3821 12.92 36.5861 12.902 36.7661 12.866C36.9461 12.818 37.1081 12.764 37.2521 12.704V13.928C37.0841 14 36.8801 14.054 36.6401 14.09C36.4121 14.138 36.1841 14.162 35.9561 14.162ZM43.7024 14V7.142C43.7024 6.782 43.6904 6.416 43.6664 6.044C43.6544 5.672 43.6304 5.312 43.5944 4.964H44.9984L45.1784 7.16L44.9264 7.178C45.0464 6.638 45.2564 6.194 45.5564 5.846C45.8564 5.498 46.2104 5.24 46.6184 5.072C47.0264 4.892 47.4524 4.802 47.8964 4.802C48.0764 4.802 48.2324 4.808 48.3644 4.82C48.5084 4.832 48.6404 4.862 48.7604 4.91L48.7424 6.206C48.5624 6.146 48.3944 6.11 48.2384 6.098C48.0944 6.074 47.9264 6.062 47.7344 6.062C47.2064 6.062 46.7444 6.188 46.3484 6.44C45.9644 6.692 45.6704 7.016 45.4664 7.412C45.2744 7.808 45.1784 8.228 45.1784 8.672V14H43.7024ZM53.6276 14.162C52.8236 14.162 52.1216 13.976 51.5216 13.604C50.9216 13.22 50.4536 12.68 50.1176 11.984C49.7936 11.288 49.6316 10.454 49.6316 9.482C49.6316 8.498 49.7936 7.658 50.1176 6.962C50.4536 6.266 50.9216 5.732 51.5216 5.36C52.1216 4.988 52.8236 4.802 53.6276 4.802C54.4436 4.802 55.1456 5.012 55.7336 5.432C56.3336 5.84 56.7296 6.398 56.9216 7.106H56.7056L56.9036 4.964H58.3076C58.2716 5.312 58.2356 5.666 58.1996 6.026C58.1756 6.374 58.1636 6.716 58.1636 7.052V14H56.7056V11.876H56.9036C56.7116 12.584 56.3156 13.142 55.7156 13.55C55.1156 13.958 54.4196 14.162 53.6276 14.162ZM53.9156 12.974C54.7796 12.974 55.4636 12.68 55.9676 12.092C56.4716 11.492 56.7236 10.622 56.7236 9.482C56.7236 8.33 56.4716 7.46 55.9676 6.872C55.4636 6.272 54.7796 5.972 53.9156 5.972C53.0636 5.972 52.3796 6.272 51.8636 6.872C51.3596 7.46 51.1076 8.33 51.1076 9.482C51.1076 10.622 51.3596 11.492 51.8636 12.092C52.3796 12.68 53.0636 12.974 53.9156 12.974ZM64.4025 14.162C63.6105 14.162 62.9145 13.976 62.3145 13.604C61.7145 13.22 61.2465 12.68 60.9105 11.984C60.5865 11.288 60.4245 10.454 60.4245 9.482C60.4245 8.498 60.5865 7.658 60.9105 6.962C61.2465 6.266 61.7145 5.732 62.3145 5.36C62.9145 4.988 63.6105 4.802 64.4025 4.802C65.2185 4.802 65.9205 5.006 66.5085 5.414C67.1085 5.822 67.5105 6.374 67.7145 7.07H67.4985V0.751999H68.9565V14H67.5165V11.84H67.7145C67.5225 12.56 67.1265 13.13 66.5265 13.55C65.9265 13.958 65.2185 14.162 64.4025 14.162ZM64.7085 12.974C65.5605 12.974 66.2445 12.68 66.7605 12.092C67.2765 11.492 67.5345 10.622 67.5345 9.482C67.5345 8.33 67.2765 7.46 66.7605 6.872C66.2445 6.272 65.5605 5.972 64.7085 5.972C63.8565 5.972 63.1725 6.272 62.6565 6.872C62.1525 7.46 61.9005 8.33 61.9005 9.482C61.9005 10.622 62.1525 11.492 62.6565 12.092C63.1725 12.68 63.8565 12.974 64.7085 12.974ZM71.7755 14V4.964H73.2335V14H71.7755ZM71.5955 2.912V1.274H73.3955V2.912H71.5955ZM79.2506 14.162C78.1826 14.162 77.3726 13.868 76.8206 13.28C76.2806 12.692 76.0106 11.792 76.0106 10.58V4.964H77.4686V10.544C77.4686 11.372 77.6366 11.984 77.9726 12.38C78.3086 12.764 78.8306 12.956 79.5386 12.956C80.3306 12.956 80.9666 12.698 81.4466 12.182C81.9266 11.666 82.1666 10.976 82.1666 10.112V4.964H83.6246V14H82.2026V11.966H82.4366C82.1846 12.662 81.7766 13.202 81.2126 13.586C80.6606 13.97 80.0066 14.162 79.2506 14.162ZM89.4593 14.162C88.7393 14.162 88.0673 14.066 87.4433 13.874C86.8193 13.67 86.3033 13.388 85.8953 13.028L86.3993 12.002C86.8433 12.35 87.3233 12.608 87.8393 12.776C88.3673 12.944 88.9133 13.028 89.4773 13.028C90.1973 13.028 90.7373 12.902 91.0973 12.65C91.4693 12.386 91.6553 12.026 91.6553 11.57C91.6553 11.222 91.5353 10.946 91.2953 10.742C91.0673 10.526 90.6893 10.358 90.1613 10.238L88.4873 9.896C87.7193 9.728 87.1433 9.446 86.7593 9.05C86.3753 8.642 86.1833 8.126 86.1833 7.502C86.1833 6.974 86.3213 6.512 86.5973 6.116C86.8733 5.708 87.2753 5.39 87.8033 5.162C88.3313 4.922 88.9493 4.802 89.6572 4.802C90.3173 4.802 90.9233 4.904 91.4753 5.108C92.0393 5.3 92.5073 5.582 92.8793 5.954L92.3573 6.962C91.9973 6.614 91.5833 6.356 91.1153 6.188C90.6593 6.008 90.1853 5.918 89.6933 5.918C88.9853 5.918 88.4513 6.062 88.0913 6.35C87.7433 6.626 87.5693 6.992 87.5693 7.448C87.5693 7.796 87.6773 8.084 87.8933 8.312C88.1213 8.528 88.4693 8.69 88.9373 8.798L90.6113 9.14C91.4273 9.32 92.0333 9.602 92.4293 9.986C92.8373 10.358 93.0413 10.862 93.0413 11.498C93.0413 12.038 92.8913 12.512 92.5913 12.92C92.2913 13.316 91.8713 13.622 91.3313 13.838C90.8033 14.054 90.1793 14.162 89.4593 14.162Z" fill="#6AB04C"/>
</svg>
