<svg width="94" height="18" viewBox="0 0 94 18" fill="none" xmlns="http://www.w3.org/2000/svg">
<path d="M5.17306 14.162C4.62106 14.162 4.08106 14.102 3.55306 13.982C3.02506 13.862 2.52706 13.688 2.05906 13.46C1.60306 13.232 1.20106 12.956 0.853063 12.632L1.41106 11.48C1.99906 11.948 2.59906 12.296 3.21106 12.524C3.82306 12.74 4.47706 12.848 5.17306 12.848C6.08506 12.848 6.79906 12.602 7.31506 12.11C7.83106 11.618 8.08906 10.97 8.08906 10.166C8.08906 9.338 7.84306 8.66 7.35106 8.132C6.85906 7.604 6.17506 7.34 5.29906 7.34C4.67506 7.34 4.11706 7.466 3.62506 7.718C3.13306 7.958 2.70706 8.336 2.34706 8.852H1.26706V1.31H8.79106V2.57H2.70706V7.628H2.31106C2.63506 7.124 3.07906 6.74 3.64306 6.476C4.21906 6.2 4.86706 6.062 5.58706 6.062C6.40306 6.062 7.10506 6.23 7.69306 6.566C8.29306 6.902 8.75506 7.37 9.07906 7.97C9.40306 8.57 9.56506 9.272 9.56506 10.076C9.56506 10.88 9.38506 11.594 9.02506 12.218C8.67706 12.83 8.17306 13.31 7.51306 13.658C6.86506 13.994 6.08506 14.162 5.17306 14.162ZM15.732 14.162C14.292 14.162 13.188 13.604 12.42 12.488C11.652 11.372 11.268 9.758 11.268 7.646C11.268 5.522 11.652 3.908 12.42 2.804C13.188 1.7 14.292 1.148 15.732 1.148C17.184 1.148 18.288 1.7 19.044 2.804C19.812 3.908 20.196 5.516 20.196 7.628C20.196 9.752 19.812 11.372 19.044 12.488C18.276 13.604 17.172 14.162 15.732 14.162ZM15.732 12.866C16.74 12.866 17.49 12.44 17.982 11.588C18.474 10.736 18.72 9.416 18.72 7.628C18.72 5.828 18.474 4.514 17.982 3.686C17.49 2.846 16.74 2.426 15.732 2.426C14.736 2.426 13.986 2.846 13.482 3.686C12.99 4.526 12.744 5.84 12.744 7.628C12.744 9.416 12.99 10.736 13.482 11.588C13.986 12.44 14.736 12.866 15.732 12.866ZM22.547 17.888V7.052C22.547 6.716 22.529 6.374 22.493 6.026C22.469 5.666 22.439 5.312 22.403 4.964H23.807L24.005 7.106H23.789C23.981 6.398 24.371 5.84 24.959 5.432C25.547 5.012 26.249 4.802 27.065 4.802C27.881 4.802 28.583 4.988 29.171 5.36C29.771 5.732 30.239 6.266 30.575 6.962C30.911 7.658 31.079 8.498 31.079 9.482C31.079 10.454 30.911 11.288 30.575 11.984C30.251 12.68 29.789 13.22 29.189 13.604C28.589 13.976 27.881 14.162 27.065 14.162C26.261 14.162 25.565 13.958 24.977 13.55C24.389 13.142 23.999 12.584 23.807 11.876H24.005V17.888H22.547ZM26.777 12.974C27.641 12.974 28.325 12.68 28.829 12.092C29.345 11.492 29.603 10.622 29.603 9.482C29.603 8.33 29.345 7.46 28.829 6.872C28.325 6.272 27.641 5.972 26.777 5.972C25.925 5.972 25.241 6.272 24.725 6.872C24.221 7.46 23.969 8.33 23.969 9.482C23.969 10.622 24.221 11.492 24.725 12.092C25.241 12.68 25.925 12.974 26.777 12.974ZM36.4561 14.162C35.5681 14.162 34.8901 13.91 34.4221 13.406C33.9541 12.89 33.7201 12.116 33.7201 11.084V6.098H31.9561V4.964H33.7201V2.498L35.1781 2.084V4.964H37.7701V6.098H35.1781V10.922C35.1781 11.642 35.2981 12.158 35.5381 12.47C35.7901 12.77 36.1621 12.92 36.6541 12.92C36.8821 12.92 37.0861 12.902 37.2661 12.866C37.4461 12.818 37.6081 12.764 37.7521 12.704V13.928C37.5841 14 37.3801 14.054 37.1401 14.09C36.9121 14.138 36.6841 14.162 36.4561 14.162ZM44.2024 14V7.142C44.2024 6.782 44.1904 6.416 44.1664 6.044C44.1544 5.672 44.1304 5.312 44.0944 4.964H45.4984L45.6784 7.16L45.4264 7.178C45.5464 6.638 45.7564 6.194 46.0564 5.846C46.3564 5.498 46.7104 5.24 47.1184 5.072C47.5264 4.892 47.9524 4.802 48.3964 4.802C48.5764 4.802 48.7324 4.808 48.8644 4.82C49.0084 4.832 49.1404 4.862 49.2604 4.91L49.2424 6.206C49.0624 6.146 48.8944 6.11 48.7384 6.098C48.5944 6.074 48.4264 6.062 48.2344 6.062C47.7064 6.062 47.2444 6.188 46.8484 6.44C46.4644 6.692 46.1704 7.016 45.9664 7.412C45.7744 7.808 45.6784 8.228 45.6784 8.672V14H44.2024ZM54.1276 14.162C53.3236 14.162 52.6216 13.976 52.0216 13.604C51.4216 13.22 50.9536 12.68 50.6176 11.984C50.2936 11.288 50.1316 10.454 50.1316 9.482C50.1316 8.498 50.2936 7.658 50.6176 6.962C50.9536 6.266 51.4216 5.732 52.0216 5.36C52.6216 4.988 53.3236 4.802 54.1276 4.802C54.9436 4.802 55.6456 5.012 56.2336 5.432C56.8336 5.84 57.2296 6.398 57.4216 7.106H57.2056L57.4036 4.964H58.8076C58.7716 5.312 58.7356 5.666 58.6996 6.026C58.6756 6.374 58.6636 6.716 58.6636 7.052V14H57.2056V11.876H57.4036C57.2116 12.584 56.8156 13.142 56.2156 13.55C55.6156 13.958 54.9196 14.162 54.1276 14.162ZM54.4156 12.974C55.2796 12.974 55.9636 12.68 56.4676 12.092C56.9716 11.492 57.2236 10.622 57.2236 9.482C57.2236 8.33 56.9716 7.46 56.4676 6.872C55.9636 6.272 55.2796 5.972 54.4156 5.972C53.5636 5.972 52.8796 6.272 52.3636 6.872C51.8596 7.46 51.6076 8.33 51.6076 9.482C51.6076 10.622 51.8596 11.492 52.3636 12.092C52.8796 12.68 53.5636 12.974 54.4156 12.974ZM64.9025 14.162C64.1105 14.162 63.4145 13.976 62.8145 13.604C62.2145 13.22 61.7465 12.68 61.4105 11.984C61.0865 11.288 60.9245 10.454 60.9245 9.482C60.9245 8.498 61.0865 7.658 61.4105 6.962C61.7465 6.266 62.2145 5.732 62.8145 5.36C63.4145 4.988 64.1105 4.802 64.9025 4.802C65.7185 4.802 66.4205 5.006 67.0085 5.414C67.6085 5.822 68.0105 6.374 68.2145 7.07H67.9985V0.751999H69.4565V14H68.0165V11.84H68.2145C68.0225 12.56 67.6265 13.13 67.0265 13.55C66.4265 13.958 65.7185 14.162 64.9025 14.162ZM65.2085 12.974C66.0605 12.974 66.7445 12.68 67.2605 12.092C67.7765 11.492 68.0345 10.622 68.0345 9.482C68.0345 8.33 67.7765 7.46 67.2605 6.872C66.7445 6.272 66.0605 5.972 65.2085 5.972C64.3565 5.972 63.6725 6.272 63.1565 6.872C62.6525 7.46 62.4005 8.33 62.4005 9.482C62.4005 10.622 62.6525 11.492 63.1565 12.092C63.6725 12.68 64.3565 12.974 65.2085 12.974ZM72.2755 14V4.964H73.7335V14H72.2755ZM72.0955 2.912V1.274H73.8955V2.912H72.0955ZM79.7506 14.162C78.6826 14.162 77.8726 13.868 77.3206 13.28C76.7806 12.692 76.5106 11.792 76.5106 10.58V4.964H77.9686V10.544C77.9686 11.372 78.1366 11.984 78.4726 12.38C78.8086 12.764 79.3306 12.956 80.0386 12.956C80.8306 12.956 81.4666 12.698 81.9466 12.182C82.4266 11.666 82.6666 10.976 82.6666 10.112V4.964H84.1246V14H82.7026V11.966H82.9366C82.6846 12.662 82.2766 13.202 81.7126 13.586C81.1606 13.97 80.5066 14.162 79.7506 14.162ZM89.9593 14.162C89.2393 14.162 88.5673 14.066 87.9433 13.874C87.3193 13.67 86.8033 13.388 86.3953 13.028L86.8993 12.002C87.3433 12.35 87.8233 12.608 88.3393 12.776C88.8673 12.944 89.4133 13.028 89.9773 13.028C90.6973 13.028 91.2373 12.902 91.5973 12.65C91.9693 12.386 92.1553 12.026 92.1553 11.57C92.1553 11.222 92.0353 10.946 91.7953 10.742C91.5673 10.526 91.1893 10.358 90.6613 10.238L88.9873 9.896C88.2193 9.728 87.6433 9.446 87.2593 9.05C86.8753 8.642 86.6833 8.126 86.6833 7.502C86.6833 6.974 86.8213 6.512 87.0973 6.116C87.3733 5.708 87.7753 5.39 88.3033 5.162C88.8313 4.922 89.4493 4.802 90.1572 4.802C90.8173 4.802 91.4233 4.904 91.9753 5.108C92.5393 5.3 93.0073 5.582 93.3793 5.954L92.8573 6.962C92.4973 6.614 92.0833 6.356 91.6153 6.188C91.1593 6.008 90.6853 5.918 90.1933 5.918C89.4853 5.918 88.9513 6.062 88.5913 6.35C88.2433 6.626 88.0693 6.992 88.0693 7.448C88.0693 7.796 88.1773 8.084 88.3933 8.312C88.6213 8.528 88.9693 8.69 89.4373 8.798L91.1113 9.14C91.9273 9.32 92.5333 9.602 92.9293 9.986C93.3373 10.358 93.5413 10.862 93.5413 11.498C93.5413 12.038 93.3913 12.512 93.0913 12.92C92.7913 13.316 92.3713 13.622 91.8313 13.838C91.3033 14.054 90.6793 14.162 89.9593 14.162Z" fill="#FF6348"/>
</svg>
