<svg width="54" height="14" viewBox="0 0 54 14" fill="none" xmlns="http://www.w3.org/2000/svg">
<path d="M0.722672 13V0.309999H5.79867C7.14267 0.309999 8.18067 0.597999 8.91267 1.174C9.64467 1.75 10.0107 2.566 10.0107 3.622C10.0107 4.414 9.77067 5.074 9.29067 5.602C8.82267 6.13 8.16867 6.478 7.32867 6.646V6.394C8.26467 6.502 8.99667 6.826 9.52467 7.366C10.0647 7.894 10.3347 8.608 10.3347 9.508C10.3347 10.636 9.95667 11.5 9.20067 12.1C8.45667 12.7 7.40067 13 6.03267 13H0.722672ZM2.18067 11.794H5.88867C6.80067 11.794 7.52067 11.62 8.04867 11.272C8.58867 10.912 8.85867 10.318 8.85867 9.49C8.85867 8.65 8.58867 8.056 8.04867 7.708C7.52067 7.348 6.80067 7.168 5.88867 7.168H2.18067V11.794ZM2.18067 5.98H5.58267C6.56667 5.98 7.30467 5.788 7.79667 5.404C8.28867 5.02 8.53467 4.468 8.53467 3.748C8.53467 3.004 8.28867 2.446 7.79667 2.074C7.30467 1.69 6.56667 1.498 5.58267 1.498H2.18067V5.98ZM15.981 13.162C14.913 13.162 14.103 12.868 13.551 12.28C13.011 11.692 12.741 10.792 12.741 9.58V3.964H14.199V9.544C14.199 10.372 14.367 10.984 14.703 11.38C15.039 11.764 15.561 11.956 16.269 11.956C17.061 11.956 17.697 11.698 18.177 11.182C18.657 10.666 18.897 9.976 18.897 9.112V3.964H20.355V13H18.933V10.966H19.167C18.915 11.662 18.507 12.202 17.943 12.586C17.391 12.97 16.737 13.162 15.981 13.162ZM26.3877 13.162C25.4997 13.162 24.8217 12.91 24.3537 12.406C23.8857 11.89 23.6517 11.116 23.6517 10.084V5.098H21.8877V3.964H23.6517V1.498L25.1097 1.084V3.964H27.7017V5.098H25.1097V9.922C25.1097 10.642 25.2297 11.158 25.4697 11.47C25.7217 11.77 26.0937 11.92 26.5857 11.92C26.8137 11.92 27.0177 11.902 27.1977 11.866C27.3777 11.818 27.5397 11.764 27.6837 11.704V12.928C27.5157 13 27.3117 13.054 27.0717 13.09C26.8437 13.138 26.6157 13.162 26.3877 13.162ZM32.4522 13.162C31.5642 13.162 30.8862 12.91 30.4182 12.406C29.9502 11.89 29.7162 11.116 29.7162 10.084V5.098H27.9522V3.964H29.7162V1.498L31.1742 1.084V3.964H33.7662V5.098H31.1742V9.922C31.1742 10.642 31.2942 11.158 31.5342 11.47C31.7862 11.77 32.1582 11.92 32.6502 11.92C32.8782 11.92 33.0822 11.902 33.2622 11.866C33.4422 11.818 33.6042 11.764 33.7482 11.704V12.928C33.5802 13 33.3762 13.054 33.1362 13.09C32.9082 13.138 32.6802 13.162 32.4522 13.162ZM39.1613 13.162C38.2973 13.162 37.5413 12.976 36.8933 12.604C36.2573 12.22 35.7653 11.68 35.4173 10.984C35.0693 10.276 34.8953 9.442 34.8953 8.482C34.8953 7.51 35.0693 6.676 35.4173 5.98C35.7653 5.284 36.2573 4.75 36.8933 4.378C37.5413 3.994 38.2973 3.802 39.1613 3.802C40.0373 3.802 40.7933 3.994 41.4293 4.378C42.0773 4.75 42.5753 5.284 42.9233 5.98C43.2833 6.676 43.4633 7.51 43.4633 8.482C43.4633 9.442 43.2833 10.276 42.9233 10.984C42.5753 11.68 42.0773 12.22 41.4293 12.604C40.7933 12.976 40.0373 13.162 39.1613 13.162ZM39.1613 11.974C40.0253 11.974 40.7093 11.68 41.2133 11.092C41.7173 10.492 41.9693 9.622 41.9693 8.482C41.9693 7.33 41.7113 6.46 41.1953 5.872C40.6913 5.272 40.0133 4.972 39.1613 4.972C38.3093 4.972 37.6313 5.272 37.1273 5.872C36.6233 6.46 36.3713 7.33 36.3713 8.482C36.3713 9.622 36.6233 10.492 37.1273 11.092C37.6313 11.68 38.3093 11.974 39.1613 11.974ZM45.7365 13V6.052C45.7365 5.716 45.7185 5.374 45.6825 5.026C45.6585 4.666 45.6285 4.312 45.5925 3.964H46.9965L47.1765 5.944H46.9605C47.2245 5.248 47.6445 4.72 48.2205 4.36C48.8085 3.988 49.4865 3.802 50.2545 3.802C51.3225 3.802 52.1265 4.09 52.6665 4.666C53.2185 5.23 53.4945 6.124 53.4945 7.348V13H52.0365V7.438C52.0365 6.586 51.8625 5.968 51.5145 5.584C51.1785 5.188 50.6505 4.99 49.9305 4.99C49.0905 4.99 48.4245 5.248 47.9325 5.764C47.4405 6.28 47.1945 6.97 47.1945 7.834V13H45.7365Z" fill="white"/>
</svg>
