<svg width="1397" height="93" viewBox="0 0 1397 93" fill="none" xmlns="http://www.w3.org/2000/svg">
<path d="M22.8303 71V13.496H0.46225V3.32H57.5823V13.496H35.2143V71H22.8303ZM57.7758 71V34.904C57.7758 32.856 57.7118 30.776 57.5838 28.664C57.5198 26.552 57.3598 24.504 57.1038 22.52H68.7198L70.0638 35.768H68.1438C68.7838 32.568 69.8398 29.912 71.3118 27.8C72.8478 25.688 74.7038 24.12 76.8798 23.096C79.0558 22.072 81.4238 21.56 83.9838 21.56C85.1358 21.56 86.0638 21.624 86.7678 21.752C87.4718 21.816 88.1758 21.976 88.8798 22.232L88.7838 32.792C87.5678 32.28 86.5118 31.96 85.6158 31.832C84.7838 31.704 83.7278 31.64 82.4478 31.64C79.6958 31.64 77.3598 32.216 75.4398 33.368C73.5838 34.52 72.1758 36.12 71.2158 38.168C70.3198 40.216 69.8718 42.552 69.8718 45.176V71H57.7758ZM118.233 71.96C110.105 71.96 103.737 69.72 99.1293 65.24C94.5213 60.76 92.2173 54.616 92.2173 46.808C92.2173 41.752 93.2093 37.336 95.1933 33.56C97.1773 29.784 99.9293 26.84 103.449 24.728C107.033 22.616 111.193 21.56 115.929 21.56C120.601 21.56 124.505 22.552 127.641 24.536C130.777 26.52 133.145 29.304 134.745 32.888C136.409 36.472 137.241 40.664 137.241 45.464V48.632H101.913V42.296H128.697L127.065 43.64C127.065 39.16 126.105 35.736 124.185 33.368C122.329 31 119.609 29.816 116.025 29.816C112.057 29.816 108.985 31.224 106.809 34.04C104.697 36.856 103.641 40.792 103.641 45.848V47.096C103.641 52.344 104.921 56.28 107.481 58.904C110.105 61.464 113.785 62.744 118.521 62.744C121.273 62.744 123.833 62.392 126.201 61.688C128.633 60.92 130.937 59.704 133.113 58.04L136.665 66.104C134.361 67.96 131.609 69.4 128.409 70.424C125.209 71.448 121.817 71.96 118.233 71.96ZM147.403 71V34.616C147.403 32.632 147.339 30.616 147.211 28.568C147.083 26.52 146.891 24.504 146.635 22.52H158.251L159.211 32.12H158.059C159.595 28.728 161.867 26.136 164.875 24.344C167.883 22.488 171.371 21.56 175.339 21.56C181.035 21.56 185.323 23.16 188.203 26.36C191.083 29.56 192.523 34.552 192.523 41.336V71H180.523V41.912C180.523 38.008 179.755 35.224 178.219 33.56C176.747 31.832 174.507 30.968 171.499 30.968C167.787 30.968 164.843 32.12 162.667 34.424C160.491 36.728 159.403 39.8 159.403 43.64V71H147.403ZM224.063 71.96C219.839 71.96 216.095 70.968 212.831 68.984C209.631 66.936 207.135 64.024 205.343 60.248C203.551 56.472 202.655 51.96 202.655 46.712C202.655 41.464 203.551 36.984 205.343 33.272C207.135 29.496 209.631 26.616 212.831 24.632C216.095 22.584 219.839 21.56 224.063 21.56C228.095 21.56 231.647 22.552 234.719 24.536C237.855 26.456 239.935 29.08 240.959 32.408H239.711V0.343994H251.711V71H239.903V60.728H241.055C240.031 64.184 237.951 66.936 234.815 68.984C231.743 70.968 228.159 71.96 224.063 71.96ZM227.423 62.744C231.199 62.744 234.239 61.432 236.543 58.808C238.847 56.12 239.999 52.088 239.999 46.712C239.999 41.336 238.847 37.336 236.543 34.712C234.239 32.088 231.199 30.776 227.423 30.776C223.647 30.776 220.575 32.088 218.207 34.712C215.903 37.336 214.751 41.336 214.751 46.712C214.751 52.088 215.903 56.12 218.207 58.808C220.575 61.432 223.647 62.744 227.423 62.744ZM263.818 92.792L261.034 83.288C264.042 82.648 266.57 81.912 268.618 81.08C270.666 80.248 272.362 79.16 273.706 77.816C275.05 76.472 276.17 74.744 277.066 72.632L279.466 66.968L279.178 71.672L258.058 22.52H270.826L285.994 60.344H283.21L298.474 22.52H310.57L288.49 73.688C287.018 77.144 285.418 79.992 283.69 82.232C281.962 84.536 280.106 86.36 278.122 87.704C276.138 89.112 273.962 90.2 271.594 90.968C269.226 91.736 266.634 92.344 263.818 92.792ZM370.991 71.96C366.895 71.96 363.311 70.968 360.239 68.984C357.167 66.936 355.119 64.184 354.095 60.728H355.151V71H343.247V0.343994H355.247V32.408H354.095C355.183 29.08 357.263 26.456 360.335 24.536C363.407 22.552 366.959 21.56 370.991 21.56C375.279 21.56 379.023 22.584 382.223 24.632C385.423 26.68 387.919 29.592 389.711 33.368C391.503 37.08 392.399 41.56 392.399 46.808C392.399 52.056 391.503 56.568 389.711 60.344C387.919 64.056 385.391 66.936 382.127 68.984C378.927 70.968 375.215 71.96 370.991 71.96ZM367.631 62.744C371.407 62.744 374.447 61.432 376.751 58.808C379.119 56.184 380.303 52.184 380.303 46.808C380.303 41.432 379.119 37.432 376.751 34.808C374.447 32.12 371.407 30.776 367.631 30.776C363.855 30.776 360.815 32.088 358.511 34.712C356.207 37.336 355.055 41.336 355.055 46.712C355.055 52.088 356.207 56.12 358.511 58.808C360.815 61.432 363.855 62.744 367.631 62.744ZM420.25 71.96C414.298 71.96 409.85 70.328 406.906 67.064C403.962 63.8 402.49 58.808 402.49 52.088V22.52H414.49V51.992C414.49 55.576 415.226 58.232 416.698 59.96C418.17 61.624 420.41 62.456 423.418 62.456C426.81 62.456 429.562 61.304 431.674 59C433.85 56.696 434.938 53.656 434.938 49.88V22.52H446.938V71H435.226V61.112H436.57C435.162 64.568 433.018 67.256 430.138 69.176C427.322 71.032 424.026 71.96 420.25 71.96ZM480.702 71.96C474.942 71.96 470.59 70.456 467.646 67.448C464.702 64.44 463.23 59.928 463.23 53.912V31.544H453.918V22.52H463.23V10.136L475.23 7.064V22.52H488.19V31.544H475.23V53.144C475.23 56.472 475.87 58.808 477.15 60.152C478.43 61.496 480.19 62.168 482.43 62.168C483.646 62.168 484.67 62.072 485.502 61.88C486.398 61.688 487.262 61.432 488.094 61.112V70.616C487.006 71.064 485.79 71.384 484.446 71.576C483.166 71.832 481.918 71.96 480.702 71.96ZM514.358 71.96C508.598 71.96 504.246 70.456 501.302 67.448C498.358 64.44 496.886 59.928 496.886 53.912V31.544H487.574V22.52H496.886V10.136L508.886 7.064V22.52H521.846V31.544H508.886V53.144C508.886 56.472 509.526 58.808 510.806 60.152C512.086 61.496 513.846 62.168 516.086 62.168C517.302 62.168 518.326 62.072 519.158 61.88C520.054 61.688 520.918 61.432 521.75 61.112V70.616C520.662 71.064 519.446 71.384 518.102 71.576C516.822 71.832 515.574 71.96 514.358 71.96ZM551.416 71.96C546.424 71.96 542.104 70.936 538.456 68.888C534.808 66.84 531.96 63.928 529.912 60.152C527.928 56.376 526.936 51.896 526.936 46.712C526.936 41.528 527.928 37.08 529.912 33.368C531.96 29.592 534.808 26.68 538.456 24.632C542.104 22.584 546.424 21.56 551.416 21.56C556.408 21.56 560.728 22.584 564.376 24.632C568.088 26.68 570.936 29.592 572.92 33.368C574.968 37.08 575.992 41.528 575.992 46.712C575.992 51.896 574.968 56.376 572.92 60.152C570.936 63.928 568.088 66.84 564.376 68.888C560.728 70.936 556.408 71.96 551.416 71.96ZM551.416 62.744C555.192 62.744 558.2 61.432 560.44 58.808C562.68 56.12 563.8 52.088 563.8 46.712C563.8 41.336 562.68 37.336 560.44 34.712C558.2 32.088 555.192 30.776 551.416 30.776C547.64 30.776 544.632 32.088 542.392 34.712C540.152 37.336 539.032 41.336 539.032 46.712C539.032 52.088 540.152 56.12 542.392 58.808C544.632 61.432 547.64 62.744 551.416 62.744ZM586.341 71V34.616C586.341 32.632 586.277 30.616 586.148 28.568C586.021 26.52 585.829 24.504 585.573 22.52H597.189L598.149 32.12H596.997C598.533 28.728 600.805 26.136 603.812 24.344C606.821 22.488 610.309 21.56 614.277 21.56C619.973 21.56 624.261 23.16 627.141 26.36C630.021 29.56 631.461 34.552 631.461 41.336V71H619.461V41.912C619.461 38.008 618.693 35.224 617.157 33.56C615.685 31.832 613.445 30.968 610.437 30.968C606.725 30.968 603.781 32.12 601.605 34.424C599.429 36.728 598.341 39.8 598.341 43.64V71H586.341ZM689.344 71.96C685.12 71.96 681.376 70.968 678.112 68.984C674.912 66.936 672.416 64.024 670.624 60.248C668.832 56.472 667.936 51.96 667.936 46.712C667.936 41.464 668.832 36.984 670.624 33.272C672.416 29.496 674.912 26.616 678.112 24.632C681.376 22.584 685.12 21.56 689.344 21.56C693.376 21.56 696.928 22.552 700 24.536C703.136 26.456 705.216 29.08 706.24 32.408H704.992V0.343994H716.992V71H705.184V60.728H706.336C705.312 64.184 703.232 66.936 700.096 68.984C697.024 70.968 693.44 71.96 689.344 71.96ZM692.704 62.744C696.48 62.744 699.52 61.432 701.824 58.808C704.128 56.12 705.28 52.088 705.28 46.712C705.28 41.336 704.128 37.336 701.824 34.712C699.52 32.088 696.48 30.776 692.704 30.776C688.928 30.776 685.856 32.088 683.488 34.712C681.184 37.336 680.032 41.336 680.032 46.712C680.032 52.088 681.184 56.12 683.488 58.808C685.856 61.432 688.928 62.744 692.704 62.744ZM753.483 71.96C745.355 71.96 738.987 69.72 734.379 65.24C729.771 60.76 727.467 54.616 727.467 46.808C727.467 41.752 728.459 37.336 730.443 33.56C732.427 29.784 735.179 26.84 738.699 24.728C742.283 22.616 746.443 21.56 751.179 21.56C755.851 21.56 759.755 22.552 762.891 24.536C766.027 26.52 768.395 29.304 769.995 32.888C771.659 36.472 772.491 40.664 772.491 45.464V48.632H737.163V42.296H763.947L762.315 43.64C762.315 39.16 761.355 35.736 759.435 33.368C757.579 31 754.859 29.816 751.275 29.816C747.307 29.816 744.235 31.224 742.059 34.04C739.947 36.856 738.891 40.792 738.891 45.848V47.096C738.891 52.344 740.171 56.28 742.731 58.904C745.355 61.464 749.035 62.744 753.771 62.744C756.523 62.744 759.083 62.392 761.451 61.688C763.883 60.92 766.187 59.704 768.363 58.04L771.915 66.104C769.611 67.96 766.859 69.4 763.659 70.424C760.459 71.448 757.067 71.96 753.483 71.96ZM799.933 71.96C795.773 71.96 791.933 71.48 788.413 70.52C784.957 69.496 782.045 68.088 779.677 66.296L783.037 58.232C785.469 59.896 788.157 61.176 791.101 62.072C794.045 62.968 797.021 63.416 800.029 63.416C803.229 63.416 805.597 62.872 807.133 61.784C808.733 60.696 809.533 59.224 809.533 57.368C809.533 55.896 809.021 54.744 807.997 53.912C807.037 53.016 805.469 52.344 803.293 51.896L793.693 50.072C789.597 49.176 786.461 47.64 784.285 45.464C782.173 43.288 781.117 40.44 781.117 36.92C781.117 33.912 781.917 31.256 783.517 28.952C785.181 26.648 787.517 24.856 790.525 23.576C793.597 22.232 797.181 21.56 801.277 21.56C804.861 21.56 808.221 22.04 811.357 23C814.557 23.96 817.245 25.4 819.421 27.32L815.965 35.096C813.981 33.496 811.709 32.248 809.149 31.352C806.589 30.456 804.093 30.008 801.661 30.008C798.333 30.008 795.901 30.616 794.365 31.832C792.829 32.984 792.061 34.488 792.061 36.344C792.061 37.752 792.509 38.936 793.405 39.896C794.365 40.792 795.837 41.464 797.821 41.912L807.421 43.736C811.709 44.568 814.941 46.04 817.117 48.152C819.357 50.2 820.477 53.016 820.477 56.6C820.477 59.8 819.613 62.552 817.885 64.856C816.157 67.16 813.757 68.92 810.685 70.136C807.613 71.352 804.029 71.96 799.933 71.96ZM830.747 71V22.52H842.747V71H830.747ZM830.075 13.4V1.68799H843.419V13.4H830.075ZM878.242 92.504C873.762 92.504 869.698 92.024 866.05 91.064C862.466 90.104 859.266 88.632 856.45 86.648L859.042 78.008C860.898 79.224 862.818 80.216 864.802 80.984C866.786 81.752 868.834 82.328 870.946 82.712C873.058 83.096 875.202 83.288 877.378 83.288C881.858 83.288 885.186 82.168 887.362 79.928C889.602 77.752 890.722 74.616 890.722 70.52V58.904H891.682C890.658 62.232 888.578 64.888 885.442 66.872C882.37 68.856 878.818 69.848 874.786 69.848C870.434 69.848 866.626 68.888 863.362 66.968C860.162 64.984 857.666 62.168 855.874 58.52C854.082 54.872 853.186 50.584 853.186 45.656C853.186 40.728 854.082 36.472 855.874 32.888C857.666 29.24 860.162 26.456 863.362 24.536C866.626 22.552 870.434 21.56 874.786 21.56C878.882 21.56 882.434 22.552 885.442 24.536C888.514 26.456 890.562 29.08 891.586 32.408L890.722 31.832L891.682 22.52H903.298C903.042 24.504 902.85 26.52 902.722 28.568C902.594 30.616 902.53 32.632 902.53 34.616V69.08C902.53 76.696 900.45 82.488 896.29 86.456C892.194 90.488 886.178 92.504 878.242 92.504ZM878.05 60.632C881.89 60.632 884.93 59.352 887.17 56.792C889.474 54.168 890.626 50.456 890.626 45.656C890.626 40.856 889.474 37.176 887.17 34.616C884.93 32.056 881.89 30.776 878.05 30.776C874.146 30.776 871.042 32.056 868.738 34.616C866.434 37.176 865.282 40.856 865.282 45.656C865.282 50.456 866.434 54.168 868.738 56.792C871.042 59.352 874.146 60.632 878.05 60.632ZM915.497 71V34.616C915.497 32.632 915.433 30.616 915.305 28.568C915.177 26.52 914.985 24.504 914.729 22.52H926.345L927.305 32.12H926.153C927.689 28.728 929.961 26.136 932.969 24.344C935.977 22.488 939.465 21.56 943.433 21.56C949.129 21.56 953.417 23.16 956.297 26.36C959.177 29.56 960.617 34.552 960.617 41.336V71H948.617V41.912C948.617 38.008 947.849 35.224 946.313 33.56C944.841 31.832 942.601 30.968 939.593 30.968C935.881 30.968 932.937 32.12 930.761 34.424C928.585 36.728 927.497 39.8 927.497 43.64V71H915.497ZM1020.42 71.96C1014.66 71.96 1010.31 70.456 1007.36 67.448C1004.42 64.44 1002.95 59.928 1002.95 53.912V31.544H993.636V22.52H1002.95V10.136L1014.95 7.064V22.52H1027.91V31.544H1014.95V53.144C1014.95 56.472 1015.59 58.808 1016.87 60.152C1018.15 61.496 1019.91 62.168 1022.15 62.168C1023.36 62.168 1024.39 62.072 1025.22 61.88C1026.12 61.688 1026.98 61.432 1027.81 61.112V70.616C1026.72 71.064 1025.51 71.384 1024.16 71.576C1022.88 71.832 1021.64 71.96 1020.42 71.96ZM1059.01 71.96C1050.89 71.96 1044.52 69.72 1039.91 65.24C1035.3 60.76 1033 54.616 1033 46.808C1033 41.752 1033.99 37.336 1035.97 33.56C1037.96 29.784 1040.71 26.84 1044.23 24.728C1047.81 22.616 1051.97 21.56 1056.71 21.56C1061.38 21.56 1065.29 22.552 1068.42 24.536C1071.56 26.52 1073.93 29.304 1075.53 32.888C1077.19 36.472 1078.02 40.664 1078.02 45.464V48.632H1042.69V42.296H1069.48L1067.85 43.64C1067.85 39.16 1066.89 35.736 1064.97 33.368C1063.11 31 1060.39 29.816 1056.81 29.816C1052.84 29.816 1049.77 31.224 1047.59 34.04C1045.48 36.856 1044.42 40.792 1044.42 45.848V47.096C1044.42 52.344 1045.7 56.28 1048.26 58.904C1050.89 61.464 1054.57 62.744 1059.3 62.744C1062.05 62.744 1064.61 62.392 1066.98 61.688C1069.41 60.92 1071.72 59.704 1073.89 58.04L1077.45 66.104C1075.14 67.96 1072.39 69.4 1069.19 70.424C1065.99 71.448 1062.6 71.96 1059.01 71.96ZM1088.18 71V34.616C1088.18 32.632 1088.12 30.616 1087.99 28.568C1087.86 26.52 1087.67 24.504 1087.42 22.52H1099.03L1099.99 32.12H1098.84C1100.18 28.792 1102.23 26.2 1104.98 24.344C1107.8 22.488 1111.13 21.56 1114.97 21.56C1118.81 21.56 1121.98 22.488 1124.47 24.344C1127.03 26.136 1128.82 28.952 1129.85 32.792H1128.31C1129.66 29.336 1131.86 26.616 1134.94 24.632C1138.01 22.584 1141.53 21.56 1145.5 21.56C1150.94 21.56 1155 23.16 1157.69 26.36C1160.38 29.56 1161.72 34.552 1161.72 41.336V71H1149.72V41.816C1149.72 37.976 1149.08 35.224 1147.8 33.56C1146.52 31.832 1144.47 30.968 1141.66 30.968C1138.33 30.968 1135.7 32.152 1133.78 34.52C1131.86 36.824 1130.9 39.96 1130.9 43.928V71H1118.9V41.816C1118.9 37.976 1118.26 35.224 1116.98 33.56C1115.7 31.832 1113.66 30.968 1110.84 30.968C1107.51 30.968 1104.89 32.152 1102.97 34.52C1101.11 36.824 1100.18 39.96 1100.18 43.928V71H1088.18ZM1174.53 91.736V34.616C1174.53 32.632 1174.46 30.616 1174.34 28.568C1174.21 26.52 1174.02 24.504 1173.76 22.52H1185.38L1186.43 32.696H1185.38C1186.34 29.304 1188.35 26.616 1191.42 24.632C1194.56 22.584 1198.18 21.56 1202.27 21.56C1206.56 21.56 1210.3 22.584 1213.5 24.632C1216.7 26.616 1219.2 29.496 1220.99 33.272C1222.78 36.984 1223.68 41.464 1223.68 46.712C1223.68 51.96 1222.78 56.472 1220.99 60.248C1219.2 64.024 1216.7 66.936 1213.5 68.984C1210.3 70.968 1206.56 71.96 1202.27 71.96C1198.24 71.96 1194.69 70.968 1191.62 68.984C1188.54 67 1186.5 64.344 1185.47 61.016H1186.53V91.736H1174.53ZM1198.91 62.744C1202.75 62.744 1205.82 61.432 1208.13 58.808C1210.43 56.12 1211.58 52.088 1211.58 46.712C1211.58 41.336 1210.43 37.336 1208.13 34.712C1205.82 32.088 1202.75 30.776 1198.91 30.776C1195.14 30.776 1192.1 32.088 1189.79 34.712C1187.49 37.336 1186.34 41.336 1186.34 46.712C1186.34 52.088 1187.49 56.12 1189.79 58.808C1192.1 61.432 1195.14 62.744 1198.91 62.744ZM1234.06 71V0.343994H1246.06V71H1234.06ZM1277.81 71.96C1273.59 71.96 1269.87 70.968 1266.67 68.984C1263.47 66.936 1260.98 64.024 1259.19 60.248C1257.39 56.472 1256.5 51.96 1256.5 46.712C1256.5 41.464 1257.39 36.984 1259.19 33.272C1260.98 29.496 1263.47 26.616 1266.67 24.632C1269.87 22.584 1273.59 21.56 1277.81 21.56C1281.91 21.56 1285.49 22.584 1288.56 24.632C1291.7 26.616 1293.78 29.304 1294.8 32.696H1293.75L1294.8 22.52H1306.32C1306.13 24.504 1305.94 26.52 1305.75 28.568C1305.62 30.616 1305.55 32.632 1305.55 34.616V71H1293.65L1293.55 61.016H1294.71C1293.68 64.344 1291.6 67 1288.47 68.984C1285.33 70.968 1281.78 71.96 1277.81 71.96ZM1281.17 62.744C1284.95 62.744 1287.99 61.432 1290.29 58.808C1292.59 56.12 1293.75 52.088 1293.75 46.712C1293.75 41.336 1292.59 37.336 1290.29 34.712C1287.99 32.088 1284.95 30.776 1281.17 30.776C1277.39 30.776 1274.35 32.088 1272.05 34.712C1269.75 37.336 1268.59 41.336 1268.59 46.712C1268.59 52.088 1269.71 56.12 1271.95 58.808C1274.26 61.432 1277.33 62.744 1281.17 62.744ZM1339.36 71.96C1333.6 71.96 1329.25 70.456 1326.3 67.448C1323.36 64.44 1321.89 59.928 1321.89 53.912V31.544H1312.57V22.52H1321.89V10.136L1333.89 7.064V22.52H1346.85V31.544H1333.89V53.144C1333.89 56.472 1334.53 58.808 1335.81 60.152C1337.09 61.496 1338.85 62.168 1341.09 62.168C1342.3 62.168 1343.33 62.072 1344.16 61.88C1345.05 61.688 1345.92 61.432 1346.75 61.112V70.616C1345.66 71.064 1344.45 71.384 1343.1 71.576C1341.82 71.832 1340.57 71.96 1339.36 71.96ZM1377.95 71.96C1369.82 71.96 1363.46 69.72 1358.85 65.24C1354.24 60.76 1351.94 54.616 1351.94 46.808C1351.94 41.752 1352.93 37.336 1354.91 33.56C1356.9 29.784 1359.65 26.84 1363.17 24.728C1366.75 22.616 1370.91 21.56 1375.65 21.56C1380.32 21.56 1384.22 22.552 1387.36 24.536C1390.5 26.52 1392.86 29.304 1394.46 32.888C1396.13 36.472 1396.96 40.664 1396.96 45.464V48.632H1361.63V42.296H1388.42L1386.78 43.64C1386.78 39.16 1385.82 35.736 1383.9 33.368C1382.05 31 1379.33 29.816 1375.74 29.816C1371.78 29.816 1368.7 31.224 1366.53 34.04C1364.42 36.856 1363.36 40.792 1363.36 45.848V47.096C1363.36 52.344 1364.64 56.28 1367.2 58.904C1369.82 61.464 1373.5 62.744 1378.24 62.744C1380.99 62.744 1383.55 62.392 1385.92 61.688C1388.35 60.92 1390.66 59.704 1392.83 58.04L1396.38 66.104C1394.08 67.96 1391.33 69.4 1388.13 70.424C1384.93 71.448 1381.54 71.96 1377.95 71.96Z" fill="black"/>
</svg>
