<svg width="84" height="84" viewBox="0 0 84 84" fill="none" xmlns="http://www.w3.org/2000/svg">
<g clip-path="url(#clip0_195_1208)">
<rect width="84" height="84" rx="42" fill="url(#paint0_linear_195_1208)"/>
<path fill-rule="evenodd" clip-rule="evenodd" d="M-19.3846 84.9052C-19.3846 84.9052 -18.4772 56.3873 2.09332 51.9282C20.0786 49.2764 33.9448 69.8587 50.0271 69.8587C68.7703 69.8587 77.6035 57.9137 95.8013 57.9137C109.074 57.9137 122.034 68.2987 140.108 64.6989C146.121 63.5015 155.077 61.4409 155.077 61.4409L154.779 100.734L-19.3846 103.385V84.9052Z" fill="url(#paint1_linear_195_1208)" fill-opacity="0.7"/>
<path d="M34.9581 56.0194C45.9997 44.2102 56.5472 44.612 57.753 44.8312C55.959 42.7236 53.3653 41.3565 50.6392 40.8782C47.9132 40.3999 45.0687 40.7822 42.4882 41.7826C38.7719 43.2235 35.4765 46.1088 34.2474 49.9004C33.587 51.9377 33.6081 54.3568 34.9581 56.0194Z" fill="#236002"/>
<path d="M37.4763 50.3564C45.4199 43.6884 49.8846 42.5287 57.753 44.8312C55.9591 42.7236 53.3653 41.3565 50.6393 40.8782C47.9133 40.3999 45.0688 40.7822 42.4883 41.7826C38.7719 43.2235 35.4765 46.1088 34.2474 49.9004C33.5871 51.9377 35.6337 51.9031 37.4763 50.3564Z" fill="#358013"/>
<path d="M49.1937 46.7605C48.7671 48.0175 48.5313 49.3748 48.5623 50.7023C48.8153 61.549 50.0006 72.7378 53.5375 83.6385H61.2492C56.7265 72.6218 54.5812 59.2278 53.4119 44.7576C53.4484 44.0629 52.4839 43.7883 51.8177 43.9798C50.5461 44.3453 49.6202 45.5036 49.1937 46.7605Z" fill="#563913"/>
<mask id="mask0_195_1208" style="mask-type:alpha" maskUnits="userSpaceOnUse" x="48" y="43" width="14" height="41">
<path d="M49.1937 46.7605C48.7671 48.0175 48.5313 49.3748 48.5623 50.7023C48.8153 61.549 50.0006 72.7378 53.5375 83.6385H61.2492C56.7265 72.6218 54.5812 59.2278 53.4119 44.7576C53.4484 44.0629 52.4839 43.7883 51.8177 43.9798C50.5461 44.3453 49.6202 45.5036 49.1937 46.7605Z" fill="#868162"/>
</mask>
<g mask="url(#mask0_195_1208)">
<path d="M52.3778 54.3573C52.3778 53.8449 52.7932 53.4296 53.3056 53.4296H57.0164C57.5288 53.4296 57.9442 53.8449 57.9442 54.3573C57.9442 54.8697 57.5288 55.285 57.0164 55.285H53.3056C52.7932 55.285 52.3778 54.8697 52.3778 54.3573Z" fill="black"/>
<path d="M45.304 60.6194C45.304 60.107 45.7193 59.6917 46.2317 59.6917H49.9426C50.4549 59.6917 50.8703 60.107 50.8703 60.6194C50.8703 61.1318 50.4549 61.5471 49.9426 61.5471H46.2317C45.7193 61.5471 45.304 61.1318 45.304 60.6194Z" fill="black"/>
<path d="M55.161 69.5487C55.161 69.0364 55.5764 68.621 56.0887 68.621H59.7996C60.312 68.621 60.7273 69.0364 60.7273 69.5487C60.7273 70.0611 60.312 70.4765 59.7996 70.4765H56.0887C55.5764 70.4765 55.161 70.0611 55.161 69.5487Z" fill="black"/>
<path d="M48.0871 75.8109C48.0871 75.2985 48.5025 74.8831 49.0148 74.8831H52.7257C53.2381 74.8831 53.6535 75.2985 53.6535 75.8109C53.6535 76.3232 53.2381 76.7386 52.7257 76.7386H49.0148C48.5025 76.7386 48.0871 76.3232 48.0871 75.8109Z" fill="black"/>
</g>
<path opacity="0.4" d="M49.1937 46.7605C48.7671 48.0174 48.5313 49.3748 48.5623 50.7023C48.8153 61.5489 50.0006 72.7377 53.5375 83.6385H57.9442C57.9442 83.6385 50.5224 65.5479 50.0996 45.138C50.0867 44.519 49.3924 46.1748 49.1937 46.7605Z" fill="#92672D"/>
<path d="M52.7677 44.5247C52.6802 44.8491 52.4863 45.2332 52.1506 45.2206C51.8648 44.8563 51.5733 44.5005 51.2761 44.1531C48.7108 41.1548 45.7238 38.789 42.4048 37.0223C39.2403 35.3378 35.7741 34.198 32.0839 33.574C31.7147 33.5115 31.3432 33.4542 30.9696 33.4021C30.533 33.3916 30.6727 32.6916 30.9719 32.3733C33.3635 29.8295 37.0774 28.7235 40.5395 29.1757C44.0017 29.6279 47.1855 31.5265 49.5368 34.1076C52.0915 36.9122 53.7555 40.8619 52.7677 44.5247Z" fill="#358013"/>
<path d="M52.1506 45.2206C52.4863 45.2332 52.6802 44.8491 52.7677 44.5247C53.7555 40.8619 52.0915 36.9122 49.5368 34.1076C47.1855 31.5265 44.0017 29.6279 40.5395 29.1757C37.0774 28.7235 33.3635 29.8295 30.9719 32.3733C30.6922 32.6709 30.5518 33.3022 30.8916 33.3916C32.8194 32.3523 35.0216 31.7441 37.3603 31.7441C44.3508 31.7441 49.7286 37.1782 50.5339 43.316C50.7851 43.5893 51.0325 43.8684 51.2761 44.1531C51.5733 44.5005 51.8648 44.8563 52.1506 45.2206Z" fill="#236002"/>
<path d="M52.1597 40.8745C52.091 42.2082 52.2622 43.6225 53.0533 44.6985C58.0602 35.107 69.3668 34.7012 69.3668 34.7012C73.0777 34.9911 68.1491 29.3668 64.3803 29.1928C63.1622 29.0486 61.9357 29.1922 60.7712 29.5777C55.9949 31.1588 52.4189 35.8499 52.1597 40.8745Z" fill="#358013"/>
<path d="M52.1597 40.8745C52.0909 42.2082 52.2622 43.6225 53.0532 44.6986C53.7319 43.7191 54.1247 42.7699 54.9291 41.8911C55.277 37.1945 60.5213 28.9414 68.8449 31.4542C68.9173 31.4795 68.9891 31.5049 69.0604 31.5303C67.8872 30.2186 66.122 29.3268 64.393 29.1221C63.1749 28.9778 61.9356 29.1923 60.7712 29.5778C55.9949 31.1589 52.4189 35.85 52.1597 40.8745Z" fill="#236002"/>
<path d="M56.7265 47.0514C55.5104 46.1393 53.6309 45.374 52.195 44.8748C51.5745 44.6591 51.3095 43.8535 51.523 43.2322C51.7366 42.6109 52.3043 42.1716 52.9066 41.9091C53.8435 41.5007 54.8971 41.4397 55.9167 41.5103C59.8376 41.782 63.6524 43.9802 65.6474 47.3665C67.5113 50.5304 68.9685 60.9533 66.3517 57.3724C65.25 55.8648 62.4088 51.3132 56.7265 47.0514Z" fill="#236002"/>
<path d="M51.6241 43.3986C56.9585 43.9205 60.6114 47.5734 63.1627 50.2986C65.7139 53.0238 65.9778 46.8452 62.7568 44.2684C57.2484 39.8617 51.2762 41.6012 51.6241 43.3986Z" fill="#358013"/>
<path d="M52.6098 47.5154C52.6098 49.8851 51.0366 50.7624 48.6669 50.7624C46.2972 50.7624 44.7241 49.8851 44.7241 47.5154C44.7241 45.1457 46.6375 42.6448 48.6669 42.6448C50.6963 42.6448 52.6098 45.1457 52.6098 47.5154Z" fill="#264510"/>
<path d="M55.5089 44.7322C55.5089 47.1019 53.9358 47.9793 51.5661 47.9793C49.1964 47.9793 47.6233 47.1019 47.6233 44.7322C47.6233 42.3625 49.5367 39.8617 51.5661 39.8617C53.5955 39.8617 55.5089 42.3625 55.5089 44.7322Z" fill="#469B1A"/>
<path d="M58.524 48.7908C58.524 51.1605 56.9509 52.0378 54.5812 52.0378C52.2115 52.0378 50.6384 51.1605 50.6384 48.7908C50.6384 46.4211 52.5518 43.9202 54.5812 43.9202C56.6106 43.9202 58.524 46.4211 58.524 48.7908Z" fill="#173208"/>
<path opacity="0.9" d="M15.0529 27.4615H25.0923C28.1851 27.4615 30.6923 24.9204 30.6923 21.7858C30.6923 18.6513 28.1851 16.1102 25.0923 16.1102C24.159 16.1102 23.279 16.3416 22.5052 16.7509C21.4276 13.5832 18.4606 11.3077 14.9692 11.3077C10.5679 11.3077 7 14.9238 7 19.3846C7 19.476 7.0015 19.5671 7.00447 19.6578C5.71969 20.3574 4.84616 21.7322 4.84616 23.3139C4.84616 25.6046 6.67834 27.4615 8.93846 27.4615H14.9692C14.9818 27.4615 15.0529 27.4615 15.0529 27.4615H14.9692H15.0529Z" fill="url(#paint2_linear_195_1208)"/>
<path opacity="0.9" d="M67.3318 19.3846H57.2923C54.1995 19.3846 48.4615 21 48.4615 13.7089C48.4615 8.67395 54.1995 8.03327 57.2923 8.03327C58.2256 8.03327 59.1056 8.26467 59.8794 8.67395C60.957 5.50634 63.924 3.23077 67.4154 3.23077C71.8167 3.23077 75.3846 6.84694 75.3846 11.3077C75.3846 11.3991 75.3831 11.4902 75.3801 11.5809C76.6649 12.2805 77.5385 13.6553 77.5385 15.237C77.5385 17.5277 75.7063 19.3846 73.4462 19.3846H67.4154C67.4028 19.3846 67.3318 19.3846 67.3318 19.3846Z" fill="url(#paint3_linear_195_1208)"/>
</g>
<defs>
<linearGradient id="paint0_linear_195_1208" x1="35.112" y1="-2.94" x2="45.276" y2="59.64" gradientUnits="userSpaceOnUse">
<stop stop-color="#C0CBCD"/>
<stop offset="1" stop-color="#83A69D"/>
</linearGradient>
<linearGradient id="paint1_linear_195_1208" x1="67.8462" y1="51.6923" x2="67.8462" y2="103.385" gradientUnits="userSpaceOnUse">
<stop stop-color="#607942"/>
<stop offset="1" stop-color="#2C5206"/>
</linearGradient>
<linearGradient id="paint2_linear_195_1208" x1="10.5" y1="4.03845" x2="11.8878" y2="36.2103" gradientUnits="userSpaceOnUse">
<stop stop-color="#5C6A77"/>
<stop offset="1" stop-color="#818B97" stop-opacity="0"/>
</linearGradient>
<linearGradient id="paint3_linear_195_1208" x1="71.1779" y1="-4.10699" x2="69.9204" y2="28.3799" gradientUnits="userSpaceOnUse">
<stop stop-color="#5C6A77"/>
<stop offset="1" stop-color="#818B97" stop-opacity="0"/>
</linearGradient>
<clipPath id="clip0_195_1208">
<rect width="84" height="84" rx="42" fill="white"/>
</clipPath>
</defs>
</svg>
