<svg width="419" height="213" viewBox="0 0 419 213" fill="none" xmlns="http://www.w3.org/2000/svg">
<g filter="url(#filter0_di_1_139)">
<rect x="58" y="24" width="295" height="89" rx="25" fill="#2F6EFF"/>
<rect x="58" y="24" width="295" height="89" rx="25" fill="url(#paint0_radial_1_139)" fill-opacity="0.7"/>
<g filter="url(#filter1_d_1_139)">
<path d="M163.611 81C169.025 81 172.383 78.2051 172.383 73.7402C172.383 70.3828 169.852 67.8691 166.406 67.6055V67.4648C169.096 67.0605 171.17 64.7402 171.17 61.9629C171.17 58.0781 168.182 55.6348 163.418 55.6348H152.379V81H163.611ZM157.688 59.5898H162.047C164.525 59.5898 165.949 60.75 165.949 62.7891C165.949 64.9336 164.332 66.1816 161.502 66.1816H157.688V59.5898ZM157.688 77.0449V69.6797H162.135C165.264 69.6797 166.969 70.9453 166.969 73.3184C166.969 75.7441 165.316 77.0449 162.258 77.0449H157.688ZM192.369 62.1562H187.236V72.9492C187.236 75.4453 185.812 77.0801 183.527 77.0801C181.26 77.0801 180.012 75.7441 180.012 73.2305V62.1562H174.879V74.3027C174.879 78.6973 177.586 81.3516 181.664 81.3516C184.512 81.3516 186.375 79.9805 187.307 77.6074H187.412V81H192.369V62.1562ZM197.08 57.8145V62.1562H194.426V66.0234H197.08V75.9199C197.08 79.5938 198.803 81.0703 203.232 81.0703C204.27 81.0703 205.148 80.9824 205.676 80.8594V77.0801C205.359 77.1328 204.885 77.168 204.428 77.168C202.916 77.168 202.213 76.4824 202.213 75.041V66.0234H205.693V62.1562H202.213V57.8145H197.08ZM209.877 57.8145V62.1562H207.223V66.0234H209.877V75.9199C209.877 79.5938 211.6 81.0703 216.029 81.0703C217.066 81.0703 217.945 80.9824 218.473 80.8594V77.0801C218.156 77.1328 217.682 77.168 217.225 77.168C215.713 77.168 215.01 76.4824 215.01 75.041V66.0234H218.49V62.1562H215.01V57.8145H209.877ZM229.67 81.4043C235.365 81.4043 239.004 77.7656 239.004 71.5605C239.004 65.4434 235.312 61.752 229.67 61.752C224.027 61.752 220.336 65.4609 220.336 71.5605C220.336 77.748 223.975 81.4043 229.67 81.4043ZM229.67 77.4844C227.139 77.4844 225.539 75.3574 225.539 71.5781C225.539 67.834 227.174 65.6719 229.67 65.6719C232.166 65.6719 233.783 67.834 233.783 71.5781C233.783 75.3574 232.184 77.4844 229.67 77.4844ZM241.658 81H246.791V70.1895C246.791 67.7461 248.25 66.0586 250.553 66.0586C252.855 66.0586 254.016 67.4648 254.016 69.9258V81H259.148V68.8535C259.148 64.4414 256.793 61.8047 252.609 61.8047C249.709 61.8047 247.723 63.1758 246.721 65.5137H246.615V62.1562H241.658V81Z" fill="white" fill-opacity="0.9"/>
<path d="M163.611 81C169.025 81 172.383 78.2051 172.383 73.7402C172.383 70.3828 169.852 67.8691 166.406 67.6055V67.4648C169.096 67.0605 171.17 64.7402 171.17 61.9629C171.17 58.0781 168.182 55.6348 163.418 55.6348H152.379V81H163.611ZM157.688 59.5898H162.047C164.525 59.5898 165.949 60.75 165.949 62.7891C165.949 64.9336 164.332 66.1816 161.502 66.1816H157.688V59.5898ZM157.688 77.0449V69.6797H162.135C165.264 69.6797 166.969 70.9453 166.969 73.3184C166.969 75.7441 165.316 77.0449 162.258 77.0449H157.688ZM192.369 62.1562H187.236V72.9492C187.236 75.4453 185.812 77.0801 183.527 77.0801C181.26 77.0801 180.012 75.7441 180.012 73.2305V62.1562H174.879V74.3027C174.879 78.6973 177.586 81.3516 181.664 81.3516C184.512 81.3516 186.375 79.9805 187.307 77.6074H187.412V81H192.369V62.1562ZM197.08 57.8145V62.1562H194.426V66.0234H197.08V75.9199C197.08 79.5938 198.803 81.0703 203.232 81.0703C204.27 81.0703 205.148 80.9824 205.676 80.8594V77.0801C205.359 77.1328 204.885 77.168 204.428 77.168C202.916 77.168 202.213 76.4824 202.213 75.041V66.0234H205.693V62.1562H202.213V57.8145H197.08ZM209.877 57.8145V62.1562H207.223V66.0234H209.877V75.9199C209.877 79.5938 211.6 81.0703 216.029 81.0703C217.066 81.0703 217.945 80.9824 218.473 80.8594V77.0801C218.156 77.1328 217.682 77.168 217.225 77.168C215.713 77.168 215.01 76.4824 215.01 75.041V66.0234H218.49V62.1562H215.01V57.8145H209.877ZM229.67 81.4043C235.365 81.4043 239.004 77.7656 239.004 71.5605C239.004 65.4434 235.312 61.752 229.67 61.752C224.027 61.752 220.336 65.4609 220.336 71.5605C220.336 77.748 223.975 81.4043 229.67 81.4043ZM229.67 77.4844C227.139 77.4844 225.539 75.3574 225.539 71.5781C225.539 67.834 227.174 65.6719 229.67 65.6719C232.166 65.6719 233.783 67.834 233.783 71.5781C233.783 75.3574 232.184 77.4844 229.67 77.4844ZM241.658 81H246.791V70.1895C246.791 67.7461 248.25 66.0586 250.553 66.0586C252.855 66.0586 254.016 67.4648 254.016 69.9258V81H259.148V68.8535C259.148 64.4414 256.793 61.8047 252.609 61.8047C249.709 61.8047 247.723 63.1758 246.721 65.5137H246.615V62.1562H241.658V81Z" fill="url(#paint1_radial_1_139)" fill-opacity="0.7"/>
</g>
</g>
<defs>
<filter id="filter0_di_1_139" x="0" y="0" width="419" height="213" filterUnits="userSpaceOnUse" color-interpolation-filters="sRGB">
<feFlood flood-opacity="0" result="BackgroundImageFix"/>
<feColorMatrix in="SourceAlpha" type="matrix" values="0 0 0 0 0 0 0 0 0 0 0 0 0 0 0 0 0 0 127 0" result="hardAlpha"/>
<feOffset dx="4" dy="38"/>
<feGaussianBlur stdDeviation="31"/>
<feColorMatrix type="matrix" values="0 0 0 0 0 0 0 0 0 0 0 0 0 0 0 0 0 0 0.5 0"/>
<feBlend mode="normal" in2="BackgroundImageFix" result="effect1_dropShadow_1_139"/>
<feBlend mode="normal" in="SourceGraphic" in2="effect1_dropShadow_1_139" result="shape"/>
<feColorMatrix in="SourceAlpha" type="matrix" values="0 0 0 0 0 0 0 0 0 0 0 0 0 0 0 0 0 0 127 0" result="hardAlpha"/>
<feOffset dx="-3" dy="-4"/>
<feGaussianBlur stdDeviation="3.5"/>
<feComposite in2="hardAlpha" operator="arithmetic" k2="-1" k3="1"/>
<feColorMatrix type="matrix" values="0 0 0 0 1 0 0 0 0 1 0 0 0 0 1 0 0 0 0.15 0"/>
<feBlend mode="normal" in2="shape" result="effect2_innerShadow_1_139"/>
</filter>
<filter id="filter1_d_1_139" x="152.379" y="55.6348" width="108.77" height="27.7695" filterUnits="userSpaceOnUse" color-interpolation-filters="sRGB">
<feFlood flood-opacity="0" result="BackgroundImageFix"/>
<feColorMatrix in="SourceAlpha" type="matrix" values="0 0 0 0 0 0 0 0 0 0 0 0 0 0 0 0 0 0 127 0" result="hardAlpha"/>
<feOffset dx="1" dy="1"/>
<feGaussianBlur stdDeviation="0.5"/>
<feColorMatrix type="matrix" values="0 0 0 0 0 0 0 0 0 0 0 0 0 0 0 0 0 0 0.25 0"/>
<feBlend mode="normal" in2="BackgroundImageFix" result="effect1_dropShadow_1_139"/>
<feBlend mode="normal" in="SourceGraphic" in2="effect1_dropShadow_1_139" result="shape"/>
</filter>
<radialGradient id="paint0_radial_1_139" cx="0" cy="0" r="1" gradientTransform="matrix(125.738 56.1721 -186.189 37.9344 152.303 41.5082)" gradientUnits="userSpaceOnUse">
<stop stop-color="white"/>
<stop offset="0.697917" stop-color="white" stop-opacity="0"/>
<stop offset="1" stop-color="white" stop-opacity="0"/>
</radialGradient>
<radialGradient id="paint1_radial_1_139" cx="0" cy="0" r="1" gradientTransform="matrix(47.3115 27.1393 -70.0574 18.3279 185.484 55.459)" gradientUnits="userSpaceOnUse">
<stop stop-color="white"/>
<stop offset="0.697917" stop-color="white" stop-opacity="0"/>
<stop offset="1" stop-color="white" stop-opacity="0"/>
</radialGradient>
</defs>
</svg>
