<svg width="168" height="168" viewBox="0 0 168 168" fill="none" xmlns="http://www.w3.org/2000/svg">
<g filter="url(#filter0_d_1_119)">
<path fill-rule="evenodd" clip-rule="evenodd" d="M100.365 25.636C101.771 27.0418 101.771 29.3212 100.365 30.7271L82.5457 48.5462C81.1398 49.9521 78.8604 49.9521 77.4546 48.5462L59.6355 30.7271C58.2296 29.3212 58.2296 27.0418 59.6355 25.636C61.0414 24.2301 63.3208 24.2301 64.7266 25.636L80.0001 40.9095L95.2736 25.636C96.6795 24.2301 98.9589 24.2301 100.365 25.636Z" fill="white" fill-opacity="0.85"/>
<path fill-rule="evenodd" clip-rule="evenodd" d="M59.6355 66.3654C58.2296 64.9595 58.2296 62.6801 59.6355 61.2742L77.4546 43.4551C78.8605 42.0492 81.1398 42.0492 82.5457 43.4551L100.365 61.2742C101.771 62.6801 101.771 64.9595 100.365 66.3654C98.9589 67.7713 96.6795 67.7713 95.2737 66.3654L80.0002 51.0919L64.7266 66.3654C63.3208 67.7713 61.0414 67.7713 59.6355 66.3654Z" fill="white" fill-opacity="0.85"/>
</g>
<defs>
<filter id="filter0_d_1_119" x="0.581055" y="0.581543" width="166.838" height="166.838" filterUnits="userSpaceOnUse" color-interpolation-filters="sRGB">
<feFlood flood-opacity="0" result="BackgroundImageFix"/>
<feColorMatrix in="SourceAlpha" type="matrix" values="0 0 0 0 0 0 0 0 0 0 0 0 0 0 0 0 0 0 127 0" result="hardAlpha"/>
<feOffset dx="4" dy="38"/>
<feGaussianBlur stdDeviation="31"/>
<feColorMatrix type="matrix" values="0 0 0 0 0 0 0 0 0 0 0 0 0 0 0 0 0 0 0.5 0"/>
<feBlend mode="normal" in2="BackgroundImageFix" result="effect1_dropShadow_1_119"/>
<feBlend mode="normal" in="SourceGraphic" in2="effect1_dropShadow_1_119" result="shape"/>
</filter>
</defs>
</svg>
