<svg width="600" height="600" viewBox="0 0 600 600" fill="none" xmlns="http://www.w3.org/2000/svg">
<path d="M169.971 377.474L437.707 160.881C437.707 160.881 449.762 171.717 456.506 203.902C463.251 236.086 456.803 261.891 456.803 261.891L270.618 412.511C270.618 412.511 244.423 414.027 211.759 401.897C179.095 389.767 169.971 377.474 169.971 377.474Z" fill="#FFE790"/>
<path d="M265.029 300.574C273.37 310.883 285.464 317.458 298.651 318.85C311.839 320.243 325.039 316.339 335.349 307.999C345.659 299.659 352.233 287.565 353.626 274.377C355.018 261.19 351.115 247.989 342.775 237.679L339.592 240.254C347.25 249.72 350.833 261.84 349.555 273.947C348.276 286.055 342.24 297.159 332.775 304.817C323.309 312.474 311.189 316.058 299.081 314.779C286.973 313.501 275.869 307.465 268.212 297.999L265.029 300.574Z" fill="#FFE790"/>
<path d="M245.593 316.297C258.104 331.762 276.245 341.623 296.026 343.712C315.807 345.801 335.608 339.946 351.073 327.436C366.537 314.925 376.399 296.784 378.487 277.003C380.576 257.221 374.721 237.42 362.211 221.956L359.296 224.314C371.18 239.006 376.742 257.817 374.758 276.609C372.774 295.401 363.405 312.635 348.714 324.52C334.023 336.405 315.212 341.967 296.42 339.983C277.628 337.998 260.394 328.63 248.509 313.939L245.593 316.297Z" fill="#FFE790"/>
<path d="M290.776 393.435C257.807 389.954 227.571 373.519 206.721 347.744L209.636 345.386C229.861 370.387 259.19 386.329 291.169 389.706C293.496 389.952 295.823 390.13 298.147 390.24L293.844 393.721C292.821 393.639 291.798 393.544 290.776 393.435Z" fill="#FFE790"/>
<path d="M427.85 285.314C427.982 284.296 428.103 283.276 428.211 282.253C431.692 249.284 421.934 216.283 401.084 190.509L398.168 192.867C418.393 217.868 427.859 249.88 424.482 281.859C424.236 284.186 423.924 286.499 423.546 288.795L427.85 285.314Z" fill="#FFE790"/>
<path d="M293.401 368.574C267.026 365.789 242.837 352.64 226.157 332.021L229.267 329.505C245.28 349.3 268.501 361.922 293.821 364.596C308.227 366.117 322.641 364.347 336.036 359.589L327.84 366.219C316.688 368.969 305.042 369.803 293.401 368.574Z" fill="#FFE790"/>
<path d="M393.853 312.816C398.872 302.484 402.12 291.269 403.349 279.628C406.134 253.253 398.328 226.852 381.647 206.232L378.537 208.748C394.551 228.543 402.045 253.888 399.371 279.208C397.85 293.614 393.108 307.34 385.657 319.446L393.853 312.816Z" fill="#FFE790"/>
<path d="M333.103 458.66L560.995 274.3C560.995 274.3 553.911 262.083 527.942 250.28C501.972 238.477 479.138 239.001 479.138 239.001L320.662 367.206C320.662 367.206 314.941 388.985 319.618 418.81C324.295 448.635 333.103 458.66 333.103 458.66Z" fill="#FFE790"/>
<path d="M414.016 393.204C406.745 384.217 403.259 372.778 404.323 361.403C405.387 350.029 410.915 339.65 419.69 332.551C428.465 325.452 439.77 322.214 451.116 323.549C462.462 324.884 472.92 330.683 480.191 339.67L477.482 341.862C470.807 333.61 461.204 328.286 450.787 327.06C440.37 325.835 429.991 328.808 421.934 335.325C413.878 341.843 408.802 351.372 407.825 361.816C406.848 372.259 410.05 382.762 416.725 391.013L414.016 393.204Z" fill="#FFE790"/>
<path d="M397.472 406.588C386.567 393.107 381.337 375.948 382.933 358.886C384.529 341.824 392.821 326.256 405.984 315.608C419.147 304.959 436.103 300.102 453.122 302.104C470.141 304.107 485.829 312.806 496.735 326.286L494.253 328.294C483.893 315.487 468.989 307.224 452.821 305.321C436.653 303.419 420.545 308.033 408.04 318.149C395.535 328.265 387.658 343.055 386.141 359.264C384.625 375.473 389.593 391.774 399.954 404.58L397.472 406.588Z" fill="#FFE790"/>
<path d="M361.542 356.369C359.413 379.119 366.387 401.997 380.928 419.971L383.575 417.83C369.615 400.575 362.921 378.611 364.964 356.772C366.127 344.346 370.063 332.54 376.344 322.16L369.368 327.804C365.159 336.676 362.481 346.328 361.542 356.369Z" fill="#FFE790"/>
<path d="M425.557 282.348C435.112 280.085 445.112 279.482 455.127 280.66C477.82 283.33 498.737 294.928 513.278 312.903L510.631 315.044C496.672 297.789 476.591 286.655 454.806 284.091C442.412 282.633 430.044 284.017 418.581 287.991L425.557 282.348Z" fill="#FFE790"/>
<path d="M209.362 273.961C209.362 273.961 209.362 311.996 156.105 311.996C101.781 311.996 102.93 273.961 102.93 273.961C102.93 273.961 114.647 300.374 156.105 300.374C198.686 299.053 209.362 273.961 209.362 273.961Z" fill="#FFE790"/>
<path d="M181.371 253.367C175.801 253.367 170.971 256.423 168.584 260.892C169.295 260.788 170.023 260.734 170.764 260.734C178.744 260.734 185.216 266.977 185.216 274.681C185.216 276.927 184.666 279.049 183.688 280.928C190.528 279.859 195.748 274.136 195.748 267.237C195.748 259.578 189.313 253.367 181.371 253.367Z" fill="#FFE790"/>
<path d="M170.764 288.551C176.334 288.551 181.164 285.495 183.551 281.026C182.84 281.13 182.112 281.183 181.371 281.183C173.391 281.183 166.919 274.941 166.919 267.237C166.919 264.991 167.469 262.869 168.447 260.99C161.607 262.058 156.387 267.782 156.387 274.681C156.387 282.34 162.822 288.551 170.764 288.551Z" fill="#FFE790"/>
<path d="M181.371 281.108C182.128 281.108 182.87 281.051 183.595 280.943C184.583 279.061 185.14 276.934 185.14 274.681C185.14 267.022 178.705 260.81 170.764 260.81C170.007 260.81 169.265 260.867 168.54 260.975C167.552 262.856 166.995 264.984 166.995 267.237C166.995 274.896 173.43 281.108 181.371 281.108Z" fill="#FFE790"/>
<path fill-rule="evenodd" clip-rule="evenodd" d="M156.106 300.397C186.559 300.397 211.246 284.596 211.246 265.104C211.246 245.612 186.559 229.811 156.106 229.811C125.653 229.811 100.966 245.612 100.966 265.104C100.966 284.596 125.653 300.397 156.106 300.397ZM181.371 253.291C175.752 253.291 170.881 256.386 168.49 260.906C161.589 261.958 156.311 267.724 156.311 274.681C156.311 282.384 162.783 288.627 170.764 288.627C176.382 288.627 181.254 285.532 183.644 281.012C190.546 279.96 195.824 274.194 195.824 267.237C195.824 259.534 189.352 253.291 181.371 253.291Z" fill="#FFE790"/>
<path d="M139.393 276.914C139.393 276.914 130.023 277.654 124.978 271.736C119.933 265.818 119.933 248.064 119.933 248.064C119.933 248.064 137.23 247.325 142.996 251.763C148.762 256.201 147.321 268.777 147.321 268.777" fill="#FFE790"/>
<path d="M148.76 277.654C148.76 277.654 140.702 271.404 135.787 265.818C130.872 260.232 128.58 254.722 128.58 254.722" fill="#FFE790"/>
<path d="M135.787 265.818L136.507 256.202L135.787 265.818Z" fill="#FFE790"/>
<path d="M135.787 265.818L128.58 265.078L135.787 265.818Z" fill="#FFE790"/>
<path d="M317.758 203.808C317.758 203.808 317.758 241.843 264.501 241.843C210.177 241.843 211.326 203.808 211.326 203.808C211.326 203.808 223.043 230.221 264.501 230.221C307.082 228.9 317.758 203.808 317.758 203.808Z" fill="#FFE790"/>
<path d="M319.641 194.951C319.641 214.443 294.954 230.244 264.502 230.244C234.049 230.244 209.362 214.443 209.362 194.951C209.362 175.459 234.049 159.658 264.502 159.658C294.954 159.658 319.641 175.459 319.641 194.951Z" fill="#FFE790"/>
<path d="M591.978 286.962C591.978 384.165 464.233 462.962 306.652 462.962C149.071 462.962 21.3264 384.165 21.3264 286.962C21.3264 189.76 149.071 110.962 306.652 110.962C464.233 110.962 591.978 189.76 591.978 286.962ZM61.7012 286.962C61.7012 370.41 171.37 438.058 306.652 438.058C441.935 438.058 551.603 370.41 551.603 286.962C551.603 203.515 441.935 135.867 306.652 135.867C171.37 135.867 61.7012 203.515 61.7012 286.962Z" fill="#FFE790"/>
<path d="M300.326 126.5C378.729 126.5 449.59 146.107 500.77 177.677C551.988 209.271 583.151 252.588 583.151 300C583.151 347.412 551.988 390.729 500.77 422.323C449.59 453.893 378.729 473.5 300.326 473.5C221.923 473.5 151.062 453.892 99.8828 422.323C48.6639 390.729 17.5 347.412 17.5 300C17.5 252.588 48.6639 209.271 99.8828 177.677C151.062 146.108 221.923 126.5 300.326 126.5Z" stroke="#1E1E1E" stroke-width="5"/>
<path d="M196.374 267.945L199.344 267.945C199.344 266.534 198.351 265.317 196.967 265.035C195.584 264.753 194.194 265.484 193.641 266.783L196.374 267.945ZM89.9424 267.945L92.6573 266.741C92.0952 265.474 90.7312 264.764 89.3709 265.031C88.0105 265.298 87.0156 266.47 86.9737 267.856L89.9424 267.945ZM143.117 294.358V297.328C143.148 297.328 143.178 297.328 143.209 297.327L143.117 294.358ZM155.595 254.876L152.975 253.477L150.204 258.665L156.024 257.815L155.595 254.876ZM170.699 274.913L168.065 273.542L165.353 278.754L171.158 277.847L170.699 274.913ZM155.502 254.89L155.949 257.826L157.428 257.601L158.127 256.279L155.502 254.89ZM170.656 274.996L170.208 272.06L168.729 272.285L168.03 273.607L170.656 274.996ZM170.562 275.01L173.182 276.409L175.953 271.222L170.133 272.071L170.562 275.01ZM155.458 254.974L158.093 256.344L160.804 251.132L154.999 252.039L155.458 254.974ZM170.606 274.927L171.046 277.864L172.535 277.641L173.236 276.308L170.606 274.927ZM155.551 254.959L155.111 252.022L153.622 252.245L152.922 253.578L155.551 254.959ZM126.638 273.859C128.273 273.73 129.494 272.299 129.365 270.664C129.236 269.029 127.805 267.808 126.17 267.937L126.638 273.859ZM106.944 242.049L106.817 239.081C105.228 239.149 103.974 240.458 103.974 242.049H106.944ZM131.381 262.423C131.194 264.052 132.364 265.525 133.994 265.712C135.623 265.898 137.096 264.729 137.283 263.099L131.381 262.423ZM133.951 273.985C135.247 274.99 137.113 274.754 138.118 273.458C139.124 272.162 138.888 270.296 137.592 269.291L133.951 273.985ZM118.333 247.565C117.703 246.051 115.965 245.334 114.45 245.964C112.936 246.594 112.219 248.332 112.849 249.847L118.333 247.565ZM126.48 250.408C126.603 248.772 125.376 247.347 123.74 247.224C122.104 247.102 120.679 248.328 120.557 249.964L126.48 250.408ZM115.894 256.108C114.263 255.94 112.804 257.127 112.636 258.759C112.469 260.391 113.656 261.849 115.288 262.017L115.894 256.108ZM196.374 267.945C193.404 267.945 193.404 267.943 193.404 267.942C193.404 267.941 193.404 267.94 193.404 267.939C193.404 267.937 193.404 267.936 193.404 267.936C193.404 267.935 193.404 267.936 193.404 267.94C193.404 267.947 193.404 267.963 193.403 267.987C193.402 268.036 193.4 268.119 193.394 268.234C193.384 268.464 193.361 268.82 193.315 269.284C193.222 270.214 193.033 271.571 192.65 273.213C191.882 276.503 190.346 280.885 187.284 285.259C181.271 293.848 168.941 303.01 143.117 303.01V308.95C170.55 308.95 184.849 299.094 192.15 288.666C195.745 283.532 197.538 278.405 198.434 274.563C198.883 272.639 199.11 271.025 199.225 269.875C199.283 269.3 199.313 268.839 199.328 268.511C199.336 268.347 199.34 268.217 199.342 268.121C199.343 268.074 199.343 268.035 199.344 268.006C199.344 267.991 199.344 267.979 199.344 267.969C199.344 267.964 199.344 267.959 199.344 267.955C199.344 267.953 199.344 267.951 199.344 267.95C199.344 267.948 199.344 267.945 196.374 267.945ZM143.117 303.01C116.734 303.01 104.454 293.832 98.6097 285.286C95.6297 280.929 94.2011 276.563 93.5195 273.284C93.1794 271.647 93.0281 270.294 92.9615 269.367C92.9283 268.904 92.9163 268.549 92.9124 268.321C92.9104 268.207 92.9104 268.124 92.9107 268.076C92.9109 268.052 92.9112 268.036 92.9113 268.029C92.9114 268.026 92.9114 268.024 92.9114 268.025C92.9114 268.026 92.9113 268.027 92.9113 268.028C92.9113 268.029 92.9112 268.031 92.9112 268.031C92.9112 268.033 92.9111 268.035 89.9424 267.945C86.9737 267.856 86.9737 267.858 86.9736 267.86C86.9736 267.861 86.9735 267.864 86.9734 267.866C86.9733 267.87 86.9732 267.874 86.9731 267.879C86.9728 267.889 86.9725 267.902 86.9723 267.917C86.9717 267.946 86.9711 267.985 86.9708 268.033C86.9701 268.129 86.9703 268.26 86.9732 268.424C86.9789 268.753 86.9953 269.215 87.0367 269.792C87.1195 270.945 87.3028 272.564 87.7037 274.493C88.5042 278.345 90.1834 283.488 93.7066 288.639C100.868 299.111 115.176 308.95 143.117 308.95V303.01ZM89.9424 267.945C87.2275 269.15 87.2283 269.151 87.2292 269.153C87.2295 269.154 87.2304 269.156 87.2311 269.158C87.2325 269.161 87.2341 269.164 87.2359 269.168C87.2394 269.176 87.2437 269.186 87.2488 269.197C87.2588 269.219 87.272 269.247 87.2882 269.282C87.3206 269.351 87.3655 269.445 87.4233 269.561C87.5389 269.795 87.7065 270.12 87.9307 270.523C88.3789 271.33 89.0543 272.452 89.9937 273.784C91.8719 276.447 94.8117 279.958 99.1078 283.455C107.744 290.485 121.698 297.328 143.117 297.328V291.388C123.078 291.388 110.445 285.025 102.858 278.849C99.0427 275.743 96.4623 272.65 94.8481 270.361C94.0413 269.217 93.4774 268.275 93.123 267.638C92.9458 267.319 92.8212 267.076 92.7449 266.922C92.7068 266.846 92.6808 266.791 92.6664 266.76C92.6592 266.745 92.6549 266.735 92.6534 266.732C92.6526 266.73 92.6526 266.73 92.6533 266.732C92.6536 266.733 92.6541 266.734 92.6548 266.735C92.6551 266.736 92.6558 266.737 92.6559 266.738C92.6566 266.739 92.6573 266.741 89.9424 267.945ZM143.209 297.327C165.119 296.647 179.062 289.829 187.577 282.969C191.815 279.555 194.666 276.165 196.471 273.593C197.374 272.308 198.016 271.226 198.44 270.447C198.653 270.057 198.811 269.742 198.92 269.515C198.975 269.402 199.017 269.31 199.048 269.242C199.064 269.208 199.076 269.179 199.086 269.157C199.091 269.146 199.095 269.136 199.099 269.128C199.1 269.124 199.102 269.12 199.103 269.117C199.104 269.115 199.105 269.113 199.105 269.112C199.106 269.11 199.107 269.108 196.374 267.945C193.641 266.783 193.642 266.781 193.643 266.779C193.643 266.779 193.643 266.777 193.644 266.776C193.645 266.774 193.645 266.773 193.646 266.772C193.647 266.77 193.647 266.769 193.646 266.77C193.646 266.772 193.642 266.78 193.636 266.793C193.624 266.82 193.601 266.869 193.567 266.94C193.5 267.081 193.387 267.307 193.224 267.606C192.898 268.203 192.373 269.092 191.61 270.18C190.083 272.354 187.603 275.32 183.85 278.344C176.382 284.36 163.696 290.749 143.025 291.39L143.209 297.327ZM195.287 259.088C195.287 267.474 189.971 275.484 180.506 281.542C171.074 287.58 157.863 291.411 143.117 291.411V297.351C158.825 297.351 173.184 293.282 183.708 286.545C194.199 279.83 201.227 270.193 201.227 259.088H195.287ZM143.117 226.765C157.863 226.765 171.074 230.596 180.506 236.634C189.971 242.692 195.287 250.701 195.287 259.088H201.227C201.227 247.983 194.199 238.346 183.708 231.631C173.184 224.894 158.825 220.825 143.117 220.825V226.765ZM90.9476 259.088C90.9476 250.701 96.2632 242.692 105.729 236.634C115.161 230.596 128.372 226.765 143.117 226.765V220.825C127.41 220.825 113.051 224.894 102.526 231.631C92.0353 238.346 85.0075 247.983 85.0075 259.088H90.9476ZM143.117 291.411C128.372 291.411 115.161 287.58 105.729 281.542C96.2632 275.484 90.9476 267.474 90.9476 259.088H85.0075C85.0075 270.193 92.0353 279.83 102.526 286.545C113.051 293.282 127.41 297.351 143.117 297.351V291.411ZM158.215 256.276C160.087 252.77 163.912 250.321 168.383 250.321V244.381C161.712 244.381 155.877 248.044 152.975 253.477L158.215 256.276ZM157.775 251.749C156.89 251.749 156.019 251.813 155.166 251.937L156.024 257.815C156.593 257.732 157.178 257.689 157.775 257.689V251.749ZM175.197 268.665C175.197 259.222 167.295 251.749 157.775 251.749V257.689C164.216 257.689 169.257 262.701 169.257 268.665H175.197ZM173.334 276.283C174.525 273.993 175.197 271.403 175.197 268.665H169.257C169.257 270.42 168.829 272.073 168.065 273.542L173.334 276.283ZM179.789 261.221C179.789 266.556 175.736 271.119 170.241 271.978L171.158 277.847C179.342 276.568 185.729 269.683 185.729 261.221H179.789ZM168.383 250.321C174.785 250.321 179.789 255.302 179.789 261.221H185.729C185.729 251.823 177.863 244.381 168.383 244.381V250.321ZM158.127 256.279C160.005 252.728 163.867 250.245 168.383 250.245V244.305C161.66 244.305 155.78 248.011 152.876 253.502L158.127 256.279ZM146.292 268.665C146.292 263.275 150.398 258.673 155.949 257.826L155.054 251.954C146.804 253.212 140.352 260.14 140.352 268.665H146.292ZM157.775 279.641C151.333 279.641 146.292 274.629 146.292 268.665H140.352C140.352 278.108 148.255 285.581 157.775 285.581V279.641ZM168.03 273.607C166.152 277.158 162.29 279.641 157.775 279.641V285.581C164.497 285.581 170.377 281.875 173.281 276.385L168.03 273.607ZM179.865 261.221C179.865 266.611 175.76 271.214 170.208 272.06L171.103 277.932C179.354 276.674 185.805 269.746 185.805 261.221H179.865ZM168.383 250.245C174.824 250.245 179.865 255.257 179.865 261.221H185.805C185.805 251.778 177.902 244.305 168.383 244.305V250.245ZM167.942 273.611C166.07 277.116 162.246 279.565 157.775 279.565V285.505C164.445 285.505 170.28 281.842 173.182 276.409L167.942 273.611ZM168.383 278.138C169.267 278.138 170.139 278.073 170.991 277.949L170.133 272.071C169.564 272.154 168.98 272.198 168.383 272.198V278.138ZM150.96 261.221C150.96 270.665 158.863 278.138 168.383 278.138V272.198C161.941 272.198 156.9 267.185 156.9 261.221H150.96ZM152.823 253.603C151.632 255.893 150.96 258.484 150.96 261.221H156.9C156.9 259.467 157.329 257.813 158.093 256.344L152.823 253.603ZM146.368 268.665C146.368 263.33 150.422 258.767 155.916 257.908L154.999 252.039C146.815 253.318 140.428 260.203 140.428 268.665H146.368ZM157.775 279.565C151.373 279.565 146.368 274.585 146.368 268.665H140.428C140.428 278.063 148.294 285.505 157.775 285.505V279.565ZM170.166 271.99C169.587 272.076 168.991 272.122 168.383 272.122V278.062C169.287 278.062 170.176 277.994 171.046 277.864L170.166 271.99ZM169.181 268.665C169.181 270.422 168.748 272.077 167.977 273.546L173.236 276.308C174.441 274.014 175.121 271.414 175.121 268.665H169.181ZM157.775 257.765C164.177 257.765 169.181 262.745 169.181 268.665H175.121C175.121 259.266 167.255 251.824 157.775 251.824V257.765ZM155.991 257.897C156.571 257.81 157.166 257.765 157.775 257.765V251.824C156.871 251.824 155.981 251.892 155.111 252.022L155.991 257.897ZM156.976 261.221C156.976 259.464 157.409 257.809 158.18 256.341L152.922 253.578C151.717 255.872 151.036 258.472 151.036 261.221H156.976ZM168.383 272.122C161.981 272.122 156.976 267.141 156.976 261.221H151.036C151.036 270.62 158.902 278.062 168.383 278.062V272.122ZM126.404 270.898C126.17 267.937 126.171 267.937 126.172 267.937C126.172 267.937 126.173 267.937 126.174 267.937C126.175 267.937 126.175 267.937 126.176 267.937C126.178 267.937 126.179 267.936 126.179 267.936C126.18 267.936 126.178 267.936 126.175 267.937C126.168 267.937 126.152 267.938 126.129 267.94C126.082 267.942 126.002 267.946 125.895 267.95C125.679 267.957 125.349 267.962 124.933 267.952C124.095 267.932 122.929 267.85 121.633 267.608C118.978 267.113 116.144 266.016 114.249 263.793L109.729 267.647C112.879 271.342 117.253 272.834 120.544 273.448C122.221 273.761 123.713 273.864 124.789 273.89C125.33 273.903 125.772 273.897 126.088 273.887C126.246 273.881 126.373 273.875 126.466 273.87C126.512 273.867 126.55 273.865 126.579 273.863C126.593 273.862 126.605 273.861 126.615 273.86C126.62 273.86 126.624 273.86 126.628 273.86C126.63 273.859 126.632 273.859 126.633 273.859C126.634 273.859 126.635 273.859 126.636 273.859C126.637 273.859 126.638 273.859 126.404 270.898ZM114.249 263.793C113.403 262.8 112.599 261.07 111.929 258.713C111.278 256.419 110.828 253.81 110.523 251.306C110.219 248.813 110.067 246.487 109.99 244.782C109.952 243.931 109.933 243.24 109.923 242.764C109.919 242.527 109.916 242.343 109.915 242.222C109.915 242.161 109.914 242.115 109.914 242.086C109.914 242.072 109.914 242.061 109.914 242.055C109.914 242.052 109.914 242.05 109.914 242.049C109.914 242.048 109.914 242.048 109.914 242.048C109.914 242.048 109.914 242.048 109.914 242.048C109.914 242.048 109.914 242.049 106.944 242.049C103.974 242.049 103.974 242.049 103.974 242.05C103.974 242.05 103.974 242.051 103.974 242.051C103.974 242.052 103.974 242.054 103.974 242.055C103.974 242.058 103.974 242.063 103.974 242.068C103.974 242.079 103.974 242.094 103.974 242.113C103.974 242.152 103.975 242.207 103.975 242.277C103.977 242.418 103.979 242.622 103.984 242.882C103.995 243.401 104.015 244.142 104.056 245.048C104.137 246.856 104.299 249.339 104.626 252.024C104.952 254.698 105.449 257.637 106.216 260.337C106.965 262.972 108.053 265.681 109.729 267.647L114.249 263.793ZM106.944 242.049C107.071 245.016 107.071 245.016 107.07 245.016L107.07 245.016C107.07 245.016 107.07 245.016 107.071 245.016C107.072 245.016 107.074 245.016 107.077 245.016C107.083 245.015 107.094 245.015 107.108 245.014C107.136 245.013 107.181 245.012 107.24 245.01C107.359 245.006 107.538 245 107.769 244.995C108.233 244.984 108.908 244.972 109.737 244.972C111.4 244.972 113.666 245.017 116.096 245.196C118.538 245.375 121.079 245.683 123.311 246.193C125.615 246.718 127.27 247.388 128.196 248.101L131.819 243.394C129.862 241.887 127.192 240.985 124.632 240.401C121.999 239.801 119.134 239.462 116.531 239.271C113.916 239.08 111.498 239.032 109.737 239.032C108.855 239.032 108.133 239.044 107.628 239.056C107.375 239.062 107.177 239.068 107.039 239.073C106.971 239.075 106.917 239.077 106.88 239.079C106.861 239.079 106.847 239.08 106.836 239.08C106.831 239.081 106.827 239.081 106.823 239.081C106.822 239.081 106.821 239.081 106.82 239.081C106.819 239.081 106.818 239.081 106.818 239.081C106.818 239.081 106.817 239.081 106.944 242.049ZM128.196 248.101C129.053 248.76 129.777 249.833 130.334 251.32C130.889 252.799 131.211 254.511 131.376 256.206C131.54 257.889 131.541 259.461 131.499 260.62C131.478 261.195 131.447 261.661 131.422 261.975C131.409 262.133 131.398 262.252 131.391 262.328C131.387 262.367 131.384 262.394 131.382 262.41C131.382 262.418 131.381 262.423 131.381 262.425C131.381 262.426 131.381 262.427 131.381 262.426C131.381 262.426 131.381 262.426 131.381 262.425C131.381 262.425 131.381 262.424 131.381 262.424C131.381 262.423 131.381 262.423 134.332 262.761C137.283 263.099 137.283 263.098 137.283 263.098C137.283 263.097 137.283 263.096 137.283 263.096C137.283 263.094 137.283 263.093 137.283 263.091C137.284 263.088 137.284 263.084 137.285 263.079C137.286 263.069 137.287 263.056 137.289 263.04C137.293 263.008 137.297 262.964 137.302 262.909C137.313 262.799 137.328 262.644 137.343 262.448C137.374 262.058 137.411 261.506 137.435 260.834C137.483 259.495 137.484 257.647 137.288 255.63C137.093 253.627 136.694 251.363 135.897 249.236C135.103 247.117 133.845 244.953 131.819 243.394L128.196 248.101ZM135.771 271.638C137.592 269.291 137.592 269.291 137.592 269.291C137.592 269.291 137.592 269.291 137.592 269.291C137.592 269.291 137.592 269.291 137.592 269.291C137.591 269.29 137.59 269.289 137.588 269.288C137.585 269.286 137.58 269.282 137.574 269.277C137.56 269.266 137.539 269.25 137.511 269.227C137.454 269.183 137.369 269.116 137.258 269.029C137.036 268.853 136.71 268.594 136.304 268.265C135.489 267.606 134.352 266.67 133.065 265.563C130.467 263.329 127.348 260.476 125.028 257.84L120.569 261.764C123.164 264.713 126.531 267.779 129.192 270.066C130.533 271.22 131.717 272.195 132.568 272.883C132.993 273.227 133.336 273.5 133.573 273.688C133.692 273.782 133.785 273.855 133.849 273.905C133.881 273.93 133.906 273.949 133.923 273.962C133.931 273.969 133.938 273.974 133.943 273.978C133.945 273.98 133.947 273.981 133.948 273.982C133.949 273.983 133.95 273.983 133.95 273.984C133.95 273.984 133.951 273.984 133.951 273.984C133.951 273.984 133.951 273.985 135.771 271.638ZM125.028 257.84C122.734 255.233 121.044 252.633 119.929 250.684C119.374 249.713 118.966 248.912 118.7 248.362C118.568 248.088 118.471 247.878 118.41 247.741C118.38 247.673 118.358 247.623 118.345 247.594C118.339 247.579 118.335 247.569 118.333 247.564C118.332 247.562 118.331 247.561 118.331 247.561C118.331 247.561 118.332 247.561 118.332 247.562C118.332 247.563 118.332 247.563 118.332 247.564C118.333 247.564 118.333 247.564 118.333 247.564C118.333 247.565 118.333 247.565 115.591 248.706C112.849 249.847 112.849 249.848 112.849 249.848C112.849 249.848 112.85 249.849 112.85 249.849C112.85 249.85 112.851 249.851 112.851 249.852C112.852 249.854 112.853 249.857 112.854 249.86C112.856 249.865 112.859 249.872 112.863 249.88C112.87 249.897 112.879 249.918 112.891 249.945C112.914 249.999 112.946 250.073 112.988 250.167C113.071 250.353 113.192 250.617 113.352 250.946C113.67 251.605 114.142 252.53 114.773 253.634C116.034 255.837 117.947 258.785 120.569 261.764L125.028 257.84ZM125.76 260.024L126.48 250.408L120.557 249.964L119.837 259.58L125.76 260.024ZM123.102 256.848L115.894 256.108L115.288 262.017L122.495 262.757L123.102 256.848Z" fill="#1E1E1E"/>
<path d="M304.769 197.793C304.769 197.793 304.769 235.827 251.512 235.827C197.188 235.827 198.337 197.793 198.337 197.793C198.337 197.793 210.054 224.205 251.512 224.205C294.093 222.885 304.769 197.793 304.769 197.793Z" stroke="#1E1E1E" stroke-width="5.9401"/>
<path d="M306.653 188.935C306.653 208.427 281.966 224.228 251.513 224.228C221.06 224.228 196.373 208.427 196.373 188.935C196.373 169.443 221.06 153.642 251.513 153.642C281.966 153.642 306.653 169.443 306.653 188.935Z" stroke="#1E1E1E" stroke-width="5.9401"/>
<path d="M421.903 161.125C423.054 162.54 424.694 164.788 426.555 168.035C430.274 174.527 434.885 185.034 438.206 200.885C441.519 216.695 441.593 230.951 440.837 241.253C440.459 246.401 439.874 250.553 439.387 253.406C439.143 254.832 438.924 255.933 438.768 256.671C438.745 256.776 438.722 256.873 438.702 256.963L253.841 406.513C253.742 406.515 253.635 406.521 253.519 406.523C252.769 406.541 251.65 406.552 250.201 406.529C247.303 406.483 243.083 406.297 237.851 405.737C227.381 404.617 212.875 402.003 196.776 396.024C180.632 390.029 170.388 384.025 164.225 379.58C161.143 377.358 159.079 375.524 157.806 374.272C157.788 374.255 157.77 374.236 157.752 374.219L421.605 160.767C421.7 160.88 421.8 160.999 421.903 161.125Z" stroke="#1E1E1E" stroke-width="5"/>
<path d="M249.176 297.044C257.516 307.354 269.61 313.928 282.798 315.321C295.985 316.713 309.186 312.81 319.495 304.47C329.805 296.129 336.379 284.035 337.772 270.848C339.164 257.66 335.261 244.46 326.921 234.15L323.738 236.725C331.396 246.19 334.98 258.31 333.701 270.418C332.422 282.526 326.386 293.63 316.921 301.287C307.455 308.945 295.335 312.528 283.228 311.25C271.12 309.971 260.016 303.935 252.358 294.469L249.176 297.044Z" fill="#1E1E1E"/>
<path d="M326.844 234.854C334.886 245.002 338.636 257.905 337.274 270.795C335.896 283.851 329.387 295.824 319.181 304.081C308.974 312.337 295.906 316.202 282.851 314.824C269.96 313.463 258.126 307.1 249.881 297.116L252.288 295.168C260.017 304.515 271.101 310.472 283.175 311.747C295.414 313.039 307.667 309.416 317.235 301.675C326.804 293.934 332.906 282.71 334.198 270.47C335.473 258.396 331.962 246.313 324.437 236.802L326.844 234.854Z" stroke="#1E1E1E"/>
<path d="M229.739 312.768C242.25 328.232 260.391 338.093 280.172 340.182C299.953 342.271 319.754 336.416 335.219 323.906C350.683 311.395 360.545 293.254 362.633 273.473C364.722 253.692 358.867 233.891 346.357 218.426L343.442 220.785C355.327 235.476 360.889 254.287 358.904 273.079C356.92 291.871 347.552 309.105 332.86 320.99C318.169 332.875 299.358 338.437 280.566 336.453C261.774 334.469 244.54 325.1 232.655 310.409L229.739 312.768Z" fill="#1E1E1E"/>
<path d="M346.28 219.131C358.492 234.435 364.194 253.937 362.137 273.42C360.062 293.07 350.266 311.09 334.904 323.517C319.543 335.944 299.874 341.76 280.225 339.685C260.741 337.628 242.86 327.978 230.444 312.839L232.582 311.11C244.539 325.682 261.755 334.97 280.514 336.951C299.438 338.949 318.381 333.348 333.175 321.379C347.969 309.411 357.403 292.055 359.401 273.131C361.382 254.373 355.895 235.596 344.142 220.86L346.28 219.131Z" stroke="#1E1E1E"/>
<path d="M274.922 389.906C241.953 386.425 211.718 369.989 190.867 344.215L193.783 341.857C214.008 366.857 243.336 382.8 275.316 386.177C277.643 386.423 279.97 386.6 282.294 386.711L277.991 390.192C276.968 390.109 275.945 390.014 274.922 389.906Z" fill="#1E1E1E"/>
<path d="M411.996 281.784C412.129 280.767 412.25 279.747 412.358 278.724C415.839 245.755 406.081 212.754 385.23 186.979L382.315 189.338C402.54 214.339 412.005 246.35 408.628 278.33C408.383 280.657 408.07 282.969 407.693 285.266L411.996 281.784Z" fill="#1E1E1E"/>
<path d="M193.71 342.557C214.007 367.438 243.317 383.3 275.264 386.674C277.166 386.875 279.069 387.028 280.97 387.139L277.833 389.676C276.88 389.597 275.927 389.51 274.975 389.409C242.303 385.959 212.329 369.735 191.572 344.286L193.71 342.557ZM385.153 187.685C405.705 213.298 415.31 246 411.86 278.671C411.76 279.624 411.647 280.574 411.524 281.522L408.388 284.06C408.676 282.177 408.925 280.285 409.126 278.383C412.499 246.437 403.108 214.46 383.015 189.413L385.153 187.685Z" stroke="#1E1E1E"/>
<path d="M277.548 365.044C251.173 362.259 226.984 349.11 210.304 328.491L213.414 325.975C229.427 345.77 252.648 358.392 277.968 361.066C292.374 362.587 306.788 360.817 320.183 356.059L311.987 362.689C300.835 365.439 289.189 366.273 277.548 365.044Z" fill="#1E1E1E"/>
<path d="M378 309.286C383.019 298.954 386.267 287.739 387.496 276.098C390.281 249.723 382.475 223.322 365.794 202.703L362.684 205.218C378.698 225.013 386.192 250.358 383.518 275.678C381.997 290.084 377.255 303.81 369.804 315.916L378 309.286Z" fill="#1E1E1E"/>
<path d="M213.341 326.676C229.426 346.351 252.629 358.893 277.915 361.563C291.448 362.992 304.987 361.531 317.691 357.43L311.76 362.229C300.696 364.944 289.146 365.766 277.601 364.546C251.523 361.793 227.595 348.856 211.009 328.563L213.341 326.676ZM365.717 203.408C382.098 223.866 389.753 249.968 386.999 276.045C385.78 287.59 382.564 298.714 377.599 308.966L371.665 313.767C378.329 302.199 382.587 289.264 384.016 275.731C386.686 250.445 379.266 225.134 363.385 205.294L365.717 203.408Z" stroke="#1E1E1E"/>
<path d="M464.289 237.6C464.937 237.608 465.902 237.634 467.146 237.7C469.632 237.832 473.23 238.129 477.632 238.79C486.441 240.112 498.443 242.887 511.208 248.688C524.005 254.504 532.082 260.391 536.928 264.766C539.352 266.955 540.972 268.768 541.972 270.011C542.072 270.136 542.166 270.256 542.254 270.369L317.663 452.058C317.64 452.023 317.617 451.988 317.594 451.952C316.753 450.637 315.555 448.544 314.204 445.521C311.502 439.475 308.18 429.696 305.867 414.951C303.561 400.245 303.818 387.524 304.651 378.489C305.068 373.973 305.627 370.382 306.08 367.931C306.306 366.706 306.506 365.766 306.647 365.138C306.669 365.044 306.69 364.957 306.708 364.876L464.04 237.598C464.117 237.599 464.2 237.599 464.289 237.6Z" stroke="#1E1E1E" stroke-width="4.2559"/>
<path d="M398.163 389.675C390.893 380.688 387.406 369.248 388.47 357.874C389.534 346.499 395.062 336.12 403.837 329.021C412.613 321.922 423.917 318.684 435.263 320.019C446.609 321.354 457.068 327.153 464.338 336.14L461.629 338.332C454.954 330.081 445.352 324.756 434.934 323.531C424.517 322.305 414.139 325.278 406.082 331.796C398.025 338.314 392.95 347.842 391.973 358.286C390.996 368.729 394.197 379.232 400.872 387.483L398.163 389.675Z" fill="#1E1E1E"/>
<path d="M381.619 403.058C370.713 389.577 365.483 372.418 367.08 355.356C368.676 338.294 376.968 322.727 390.131 312.078C403.294 301.429 420.25 296.572 437.269 298.575C454.288 300.577 469.976 309.276 480.882 322.757L478.4 324.764C468.04 311.957 453.136 303.694 436.968 301.791C420.8 299.889 404.691 304.503 392.187 314.619C379.682 324.736 371.805 339.525 370.288 355.734C368.772 371.943 373.74 388.244 384.101 401.05L381.619 403.058Z" fill="#1E1E1E"/>
<path d="M345.688 352.84C343.56 375.589 350.533 398.467 365.074 416.442L367.721 414.3C353.762 397.045 347.068 375.082 349.111 353.242C350.273 340.817 354.21 329.01 360.491 318.63L353.515 324.274C349.306 333.146 346.628 342.799 345.688 352.84Z" fill="#1E1E1E"/>
<path d="M409.704 278.818C419.259 276.555 429.258 275.952 439.274 277.131C461.966 279.801 482.884 291.399 497.424 309.373L494.777 311.515C480.818 294.259 460.738 283.125 438.953 280.562C426.559 279.103 414.19 280.487 402.727 284.462L409.704 278.818Z" fill="#1E1E1E"/>
</svg>
