<svg width="1600" height="1200" viewBox="0 0 1600 1200" fill="none" xmlns="http://www.w3.org/2000/svg">
<rect width="1600" height="1200" fill="white"/>
<g filter="url(#filter0_f_1_25)">
<path d="M432 544.5C432 474.5 385.333 413.333 362 391.5C252.5 269 589.5 335 777 487.5C964.5 640 759.5 741 589.5 868C419.5 995 432 632 432 544.5Z" fill="url(#paint0_linear_1_25)"/>
</g>
<g filter="url(#filter1_f_1_25)">
<path d="M952.532 569.009C1022.29 563.222 1079.39 511.658 1099.22 486.6C1212.25 367.348 1174.33 708.651 1037.86 908.116C901.379 1107.58 783.778 911.632 643.159 752.713C502.54 593.793 865.331 576.242 952.532 569.009Z" fill="url(#paint1_linear_1_25)"/>
</g>
<defs>
<filter id="filter0_f_1_25" x="140.598" y="127.73" width="910.974" height="966.944" filterUnits="userSpaceOnUse" color-interpolation-filters="sRGB">
<feFlood flood-opacity="0" result="BackgroundImageFix"/>
<feBlend mode="normal" in="SourceGraphic" in2="BackgroundImageFix" result="shape"/>
<feGaussianBlur stdDeviation="100" result="effect1_foregroundBlur_1_25"/>
</filter>
<filter id="filter1_f_1_25" x="411.133" y="261.933" width="954.625" height="930.619" filterUnits="userSpaceOnUse" color-interpolation-filters="sRGB">
<feFlood flood-opacity="0" result="BackgroundImageFix"/>
<feBlend mode="normal" in="SourceGraphic" in2="BackgroundImageFix" result="shape"/>
<feGaussianBlur stdDeviation="100" result="effect1_foregroundBlur_1_25"/>
</filter>
<linearGradient id="paint0_linear_1_25" x1="296.501" y1="328" x2="733.501" y2="824" gradientUnits="userSpaceOnUse">
<stop stop-color="#5E8778"/>
<stop offset="1" stop-color="#78FF86"/>
</linearGradient>
<linearGradient id="paint1_linear_1_25" x1="1157.09" y1="416.076" x2="698.912" y2="892.583" gradientUnits="userSpaceOnUse">
<stop stop-color="#575EFF"/>
<stop offset="1" stop-color="#E478FF"/>
</linearGradient>
</defs>
</svg>
