<svg width="1728" height="1117" viewBox="0 0 1728 1117" fill="none" xmlns="http://www.w3.org/2000/svg">
<rect width="1728" height="1117" fill="#FDFEFF"/>
<g clip-path="url(#clip0_8_687)">
<path d="M1000.16 884.844C1003.77 873.917 1029.26 850.508 1032.01 851.651C1034.76 852.794 1014.03 866.134 1004.73 888.736C1004.18 890.131 997.857 891.812 1000.16 884.844Z" fill="#74BAAB"/>
<path d="M1009.21 847.7C1011.83 842.136 1019.43 844.515 1025.88 846.801C1023.1 838.471 1027.21 828.309 1033.91 829.855C1040.62 831.402 1035.75 841.623 1033.62 847.196C1037.95 846.599 1045.92 841.942 1048.89 847.196C1051.85 852.449 1042.27 852.937 1037.95 852.365C1039.44 855.728 1048.4 864.679 1040.02 865.638C1033.97 866.335 1030.77 863.066 1028.96 855.467C1017.35 855.618 1005.21 856.223 1009.21 847.7Z" fill="#EC8C92"/>
<path d="M1015.97 866.436C1015.97 866.436 1034.82 869.277 1036.34 875.556C1034.3 880.65 1021.47 876.077 1015.97 866.436Z" fill="#74BAAB"/>
<path d="M974.985 907.523L960.024 916.489L960.891 917.931L975.851 908.964L974.985 907.523Z" fill="#74BAAB"/>
<path d="M941.912 907.438L940.792 906.177C945.842 901.655 953.047 895.948 958.467 894.41L958.93 896.032C953.813 897.486 946.861 903.034 941.912 907.438Z" fill="#74BAAB"/>
<path d="M847.948 927.612L846.77 926.41C852.779 920.526 861.297 912.784 867.736 909.237L868.578 910.716C862.282 914.163 853.882 921.812 847.948 927.612Z" fill="#74BAAB"/>
<path d="M840.651 883.298L839.296 882.297C842.781 877.59 847.89 871.631 852.435 870.009L852.999 871.589C849.767 872.749 845.382 876.901 840.651 883.298Z" fill="#74BAAB"/>
<path d="M816.546 884.979L815.124 884.088C815.494 883.491 824.256 869.563 831.115 865.932L831.957 867.411C825.451 870.841 816.672 884.836 816.546 884.979Z" fill="#74BAAB"/>
<path d="M808.803 925.342L807.414 924.443C810.899 918.945 816.268 911.549 822.093 907.505L823.052 908.884C817.421 912.767 812.203 919.979 808.803 925.342Z" fill="#74BAAB"/>
<path d="M730.141 900.361L728.525 899.882C728.677 899.386 732.262 887.744 740.595 879.649L741.765 880.86C733.744 888.685 730.175 900.285 730.141 900.361Z" fill="#74BAAB"/>
<path d="M707.113 908.455L705.514 907.926C705.682 907.43 709.722 895.595 718.433 886.189L719.67 887.332C711.186 896.461 707.147 908.338 707.113 908.455Z" fill="#74BAAB"/>
<path d="M1083.56 935C1079.97 929.737 1075.98 924.755 1071.64 920.097C1071.32 919.743 1071.07 919.327 1070.92 918.874C1070.77 918.421 1070.72 917.942 1070.77 917.468C1070.81 916.993 1070.96 916.533 1071.19 916.118C1071.43 915.702 1071.74 915.34 1072.13 915.054C1074.49 913.325 1077.03 911.847 1079.7 910.641C1080.14 910.439 1080.41 910.145 1080.38 909.901C1080.36 909.657 1080.04 909.38 1079.54 909.246C1074.65 907.936 1069.47 908.115 1064.68 909.758C1062.94 910.313 1060.89 909.632 1058.74 907.808L1057.9 907.111C1057.36 906.66 1056.92 906.105 1056.61 905.48C1056.29 904.854 1056.1 904.171 1056.06 903.471C1055.7 896.36 1053.21 889.522 1048.9 883.852C1048.79 883.725 1048.65 883.631 1048.5 883.581C1048.34 883.532 1048.17 883.53 1048.01 883.575C1047.84 883.623 1047.69 883.723 1047.58 883.862C1047.47 884.001 1047.41 884.171 1047.4 884.348C1047.3 885.651 1047.13 887.189 1046.88 888.929C1046.76 889.852 1046.4 890.729 1045.84 891.477C1045.29 892.225 1044.55 892.822 1043.7 893.212C1042.85 893.602 1041.92 893.773 1040.99 893.709C1040.06 893.645 1039.16 893.349 1038.37 892.846L1038.27 892.779C1037.5 892.292 1036.92 891.572 1036.6 890.727C1036.28 889.883 1036.24 888.957 1036.49 888.089L1038.6 880.692C1038.63 880.619 1038.63 880.54 1038.6 880.468C1038.58 880.395 1038.53 880.332 1038.47 880.288C1038.41 880.243 1038.33 880.218 1038.25 880.218C1038.18 880.218 1038.1 880.243 1038.04 880.288L1032.46 883.894C1031.16 884.735 1029.66 885.212 1028.11 885.276C1026.57 885.34 1025.03 884.987 1023.67 884.256C1013.74 878.952 1003.48 874.278 992.959 870.261C992.494 870.086 992.073 869.811 991.728 869.456C991.382 869.1 991.119 868.672 990.958 868.203C990.797 867.734 990.742 867.235 990.797 866.742C990.852 866.249 991.015 865.774 991.275 865.352L995.602 858.56C995.745 858.345 995.815 858.09 995.8 857.832C995.785 857.574 995.685 857.328 995.517 857.131C995.355 856.928 995.131 856.783 994.879 856.718C994.627 856.653 994.361 856.671 994.12 856.77L978.642 862.889C976.555 863.704 974.253 863.79 972.111 863.133C962.76 860.292 952.971 857.779 943.006 855.677C942.626 855.596 942.275 855.414 941.989 855.151C941.703 854.888 941.494 854.553 941.382 854.181C941.269 853.811 941.257 853.418 941.349 853.042C941.441 852.666 941.632 852.322 941.904 852.046C943.721 850.188 945.203 848.642 946.608 847.179C948.679 845.019 950.631 842.976 953.291 840.329C953.42 840.196 953.502 840.024 953.523 839.84C953.544 839.656 953.504 839.47 953.409 839.312C953.322 839.152 953.181 839.029 953.012 838.963C952.843 838.897 952.655 838.892 952.483 838.95C944.067 841.472 932.755 846.515 926.114 850.768C924.705 851.665 923.013 852.006 921.367 851.727C901.756 848.499 884.662 847.238 860.414 847.238C847.789 847.238 835.012 847.826 822.488 848.97C822.012 849.015 821.534 848.912 821.119 848.674C820.704 848.436 820.374 848.075 820.174 847.641L819.265 845.7C819.195 845.549 819.095 845.414 818.971 845.303C818.847 845.193 818.701 845.11 818.543 845.058C818.385 845.007 818.218 844.989 818.052 845.005C817.887 845.022 817.726 845.072 817.581 845.153L812.607 847.902C812.124 848.17 811.592 848.336 811.042 848.391C810.493 848.446 809.938 848.388 809.411 848.221C808.885 848.054 808.398 847.782 807.981 847.421C807.564 847.059 807.225 846.617 806.985 846.12L806.749 845.633C806.713 845.559 806.662 845.494 806.598 845.443C806.533 845.392 806.459 845.357 806.379 845.338C806.3 845.318 806.217 845.316 806.137 845.332C806.057 845.348 805.981 845.382 805.916 845.431L802.549 847.952C802.212 848.208 801.809 848.364 801.388 848.403C800.966 848.442 800.542 848.363 800.163 848.174C799.784 847.985 799.465 847.694 799.243 847.335C799.021 846.975 798.904 846.56 798.905 846.137V841.371C798.949 841.133 798.92 840.886 798.821 840.665C798.74 840.723 798.669 840.794 798.61 840.875L790.85 851.18C789.588 852.654 787.86 853.654 785.952 854.013C756.493 859.502 732.523 866.999 710.396 877.599C709.663 877.957 708.846 878.105 708.035 878.026C707.223 877.947 706.45 877.645 705.8 877.153C697.116 870.575 687.01 866.119 676.291 864.141C676.181 864.116 676.065 864.132 675.966 864.187C675.867 864.241 675.791 864.329 675.753 864.436C675.701 864.541 675.689 864.661 675.72 864.774C675.751 864.887 675.823 864.985 675.921 865.049C680.971 868.722 685.407 872.085 688.992 875.043C689.455 875.426 689.789 875.943 689.948 876.522C690.107 877.101 690.084 877.715 689.882 878.28C689.68 878.846 689.308 879.335 688.818 879.682C688.327 880.03 687.742 880.218 687.14 880.221H680.836C680.746 880.216 680.657 880.243 680.585 880.299C680.514 880.355 680.466 880.435 680.449 880.524C680.425 880.608 680.43 880.698 680.466 880.778C680.501 880.858 680.564 880.923 680.643 880.961C682.006 881.667 683.294 882.407 684.472 883.138C685.191 883.58 685.785 884.198 686.197 884.933C686.608 885.669 686.825 886.498 686.825 887.341C686.825 888.184 686.608 889.012 686.197 889.748C685.785 890.484 685.191 891.102 684.472 891.543C680.988 893.712 677.596 895.965 674.372 898.268C673.492 898.882 672.41 899.138 671.348 898.981C670.285 898.825 669.323 898.269 668.658 897.427L662.261 889.442C662.199 889.359 662.128 889.283 662.05 889.215C661.976 889.476 661.976 889.753 662.05 890.014L665.257 902.681C665.423 903.266 665.415 903.888 665.232 904.469C665.05 905.049 664.702 905.565 664.23 905.951L663.742 906.354C663.368 906.665 662.918 906.872 662.438 906.955C661.958 907.038 661.464 906.993 661.007 906.825C658.061 905.749 649.905 903.589 637.802 906.825C644.089 908.203 649.03 909.977 652.472 912.112C652.863 912.303 653.198 912.591 653.444 912.949C653.69 913.307 653.84 913.722 653.878 914.154C653.884 914.381 653.843 914.607 653.76 914.818C653.676 915.029 653.55 915.22 653.39 915.382C652.695 916 651.795 916.339 650.865 916.331C645.569 916.554 640.374 917.853 635.597 920.147C635.472 920.215 635.374 920.322 635.318 920.451C635.261 920.581 635.25 920.726 635.286 920.862C635.322 920.999 635.403 921.12 635.516 921.205C635.629 921.29 635.767 921.335 635.908 921.333C638.312 921.241 640.719 921.35 643.105 921.66C643.517 921.717 643.907 921.883 644.233 922.142C644.559 922.401 644.809 922.743 644.956 923.131C645.109 923.526 645.152 923.954 645.083 924.371C645.013 924.788 644.833 925.178 644.561 925.502C641.994 928.587 639.578 931.789 637.39 935.025L636.001 934.084C638.265 930.735 640.698 927.503 643.29 924.401C643.368 924.306 643.42 924.192 643.44 924.072C643.461 923.951 643.45 923.827 643.408 923.711C643.366 923.602 643.296 923.506 643.204 923.434C643.112 923.361 643.002 923.315 642.886 923.3C640.596 922.999 638.284 922.895 635.976 922.989C635.46 923.004 634.954 922.847 634.537 922.543C634.121 922.238 633.819 921.803 633.678 921.307C633.539 920.803 633.577 920.267 633.787 919.788C633.997 919.309 634.366 918.916 634.831 918.676C639.828 916.255 645.273 914.89 650.823 914.667C651.993 914.625 652.363 914.289 652.405 914.171C652.447 914.053 652.186 913.784 651.782 913.541C648.508 911.507 643.753 909.8 637.651 908.497C637.276 908.422 636.939 908.221 636.694 907.929C636.449 907.637 636.311 907.27 636.302 906.889C636.293 906.507 636.414 906.135 636.646 905.831C636.877 905.528 637.205 905.312 637.575 905.219C650.141 901.857 658.692 904.169 661.79 905.303C661.97 905.368 662.165 905.385 662.354 905.351C662.543 905.317 662.72 905.234 662.867 905.11L663.355 904.707C663.578 904.526 663.742 904.283 663.828 904.01C663.913 903.736 663.916 903.443 663.835 903.168L660.636 890.501C660.426 890.006 660.395 889.453 660.548 888.938C660.702 888.422 661.031 887.976 661.478 887.677C661.888 887.504 662.347 887.489 662.767 887.635C663.187 887.781 663.537 888.077 663.751 888.467L670.13 896.427C670.531 896.93 671.108 897.261 671.745 897.353C672.381 897.446 673.029 897.292 673.556 896.923C676.78 894.628 680.197 892.359 683.715 890.199C684.19 889.908 684.583 889.5 684.855 889.014C685.128 888.529 685.271 887.981 685.271 887.425C685.271 886.868 685.128 886.321 684.855 885.835C684.583 885.349 684.19 884.942 683.715 884.651C682.57 883.945 681.316 883.23 679.995 882.541C679.587 882.325 679.264 881.979 679.075 881.558C678.886 881.138 678.843 880.666 678.952 880.218C679.061 879.77 679.316 879.372 679.677 879.084C680.038 878.797 680.484 878.638 680.946 878.633H687.267C687.525 878.634 687.776 878.554 687.985 878.402C688.194 878.251 688.349 878.037 688.428 877.792C688.517 877.549 688.527 877.285 688.458 877.036C688.388 876.788 688.243 876.567 688.041 876.405C684.489 873.472 680.121 870.135 675.063 866.478C674.656 866.189 674.361 865.769 674.226 865.289C674.092 864.809 674.125 864.297 674.322 863.839C674.518 863.38 674.866 863.003 675.307 862.769C675.748 862.535 676.256 862.459 676.746 862.553C687.725 864.586 698.077 869.151 706.978 875.884C707.379 876.189 707.857 876.376 708.358 876.424C708.859 876.471 709.364 876.377 709.815 876.153C732.085 865.486 756.224 857.947 785.8 852.433C787.313 852.15 788.684 851.361 789.689 850.197L797.314 839.841C797.526 839.477 797.855 839.195 798.248 839.043C798.641 838.89 799.075 838.875 799.477 839.001C799.92 839.216 800.279 839.573 800.496 840.014C800.714 840.455 800.779 840.956 800.681 841.438V846.12C800.678 846.23 800.707 846.338 800.766 846.43C800.824 846.523 800.909 846.596 801.009 846.641C801.106 846.692 801.215 846.715 801.324 846.706C801.433 846.697 801.537 846.657 801.623 846.591L804.99 844.069C805.254 843.871 805.558 843.733 805.88 843.664C806.203 843.596 806.537 843.599 806.859 843.674C807.181 843.75 807.483 843.898 807.74 844.106C807.998 844.314 808.206 844.577 808.348 844.876L808.584 845.364C808.717 845.645 808.906 845.896 809.139 846.103C809.372 846.309 809.644 846.467 809.939 846.566C810.246 846.665 810.571 846.7 810.893 846.668C811.214 846.637 811.526 846.539 811.808 846.381L816.782 843.632C817.128 843.44 817.51 843.322 817.904 843.284C818.298 843.246 818.696 843.29 819.073 843.412C819.449 843.534 819.797 843.733 820.093 843.995C820.39 844.257 820.629 844.577 820.797 844.935L821.706 846.885C821.758 847.005 821.848 847.104 821.962 847.169C822.075 847.234 822.207 847.261 822.337 847.246C834.962 846.095 847.73 845.506 860.422 845.506C884.771 845.506 901.941 846.776 921.645 850.02C922.882 850.227 924.152 849.973 925.213 849.306C931.947 844.994 943.486 839.824 952.012 837.286C952.543 837.123 953.114 837.143 953.632 837.345C954.15 837.546 954.584 837.916 954.865 838.395C955.152 838.876 955.27 839.439 955.202 839.994C955.133 840.55 954.881 841.066 954.486 841.463C951.844 844.103 949.899 846.137 947.837 848.289C946.423 849.76 944.942 851.306 943.115 853.172C943.056 853.233 943.014 853.309 942.994 853.392C942.975 853.475 942.979 853.562 943.006 853.643C943.029 853.727 943.075 853.803 943.139 853.862C943.203 853.922 943.282 853.962 943.368 853.979C953.375 856.097 963.214 858.619 972.616 861.477C974.394 862.021 976.304 861.95 978.036 861.275L993.506 855.156C994.077 854.932 994.705 854.893 995.3 855.047C995.894 855.2 996.425 855.537 996.816 856.01C997.207 856.483 997.439 857.067 997.478 857.679C997.517 858.291 997.361 858.899 997.032 859.418L992.706 866.201C992.588 866.408 992.516 866.639 992.494 866.876C992.473 867.114 992.502 867.354 992.58 867.579C992.658 867.816 992.788 868.032 992.959 868.212C993.131 868.392 993.341 868.532 993.573 868.622C1004.16 872.659 1014.48 877.365 1024.47 882.709C1025.57 883.298 1026.8 883.582 1028.05 883.53C1029.3 883.478 1030.5 883.093 1031.55 882.415L1037.13 878.809C1037.48 878.583 1037.89 878.47 1038.31 878.484C1038.73 878.499 1039.14 878.64 1039.47 878.889C1039.81 879.138 1040.06 879.483 1040.19 879.879C1040.33 880.274 1040.34 880.702 1040.23 881.104L1038.11 888.501C1037.96 889.022 1037.98 889.578 1038.17 890.085C1038.37 890.593 1038.72 891.024 1039.17 891.317L1039.28 891.384C1039.82 891.734 1040.45 891.94 1041.1 891.984C1041.75 892.028 1042.4 891.908 1043 891.635C1043.59 891.362 1044.1 890.945 1044.49 890.423C1044.88 889.9 1045.13 889.288 1045.22 888.644C1045.46 886.962 1045.63 885.441 1045.72 884.172C1045.76 883.659 1045.95 883.168 1046.27 882.765C1046.59 882.362 1047.02 882.067 1047.52 881.919C1048 881.774 1048.51 881.776 1049 881.926C1049.48 882.076 1049.9 882.366 1050.22 882.76C1054.77 888.69 1057.4 895.871 1057.74 903.336C1057.77 903.807 1057.9 904.266 1058.12 904.686C1058.33 905.106 1058.63 905.479 1058.99 905.782L1059.83 906.48C1061.01 907.48 1062.71 908.573 1064.17 908.161C1069.27 906.411 1074.78 906.224 1079.99 907.623C1080.51 907.716 1081 907.974 1081.37 908.359C1081.74 908.744 1081.98 909.237 1082.05 909.767C1082.05 910.293 1081.89 910.807 1081.59 911.238C1081.29 911.669 1080.86 911.995 1080.37 912.171C1077.81 913.317 1075.39 914.726 1073.13 916.373C1072.93 916.52 1072.76 916.706 1072.64 916.921C1072.52 917.135 1072.45 917.373 1072.43 917.617C1072.4 917.858 1072.43 918.101 1072.51 918.33C1072.58 918.559 1072.71 918.769 1072.87 918.945C1077.28 923.673 1081.32 928.731 1084.95 934.075L1083.56 935Z" fill="#74BAAB"/>
<path d="M1136.82 818.407C1135.41 818.391 1134.02 818.106 1132.72 817.566L991.957 761.165C990.624 760.687 989.414 759.917 988.417 758.912C987.42 757.907 986.659 756.693 986.192 755.357C985.431 752.921 985.559 750.294 986.554 747.944C988.557 742.951 994.028 738.983 1000.22 741.463L1010.32 745.498C1010.61 745.656 1010.92 745.747 1011.25 745.763C1011.58 745.779 1011.9 745.72 1012.2 745.59C1014.24 744.556 1015.57 739.202 1017.11 732.982C1017.57 731.107 1018.04 729.199 1018.58 727.199L1018.68 726.829C1020.79 718.928 1025.15 702.453 1043.78 703.251C1050.71 703.529 1054.06 703.915 1060.11 704.605H1060.26C1061.79 704.781 1063.51 704.983 1065.5 705.201C1071.1 705.815 1074.82 707.278 1077.6 709.942C1080.96 713.178 1082.72 718.171 1082.97 725.207C1083.3 734.974 1085.49 737.168 1089.4 737.815C1123.18 743.27 1123.07 757.837 1123 771.924C1123 772.765 1123 773.606 1123 774.446C1123 782.852 1123.85 790.98 1129.8 793.359L1140.42 797.561C1141.81 798.074 1143.08 798.888 1144.12 799.946C1145.17 801.004 1145.97 802.279 1146.46 803.681C1147.32 806.258 1147.22 809.056 1146.18 811.565C1145.24 813.98 1143.49 815.992 1141.23 817.247C1139.88 817.999 1138.37 818.398 1136.82 818.407ZM1133.35 816.011C1134.46 816.512 1135.67 816.756 1136.89 816.725C1138.11 816.694 1139.31 816.39 1140.39 815.835C1142.31 814.76 1143.8 813.051 1144.6 811.002C1145.49 808.863 1145.58 806.478 1144.86 804.277C1144.45 803.109 1143.78 802.047 1142.91 801.166C1142.03 800.284 1140.98 799.604 1139.81 799.175L1129.21 794.922C1122.35 792.173 1121.37 783.465 1121.35 774.463C1121.35 773.622 1121.35 772.782 1121.35 771.941C1121.43 758.56 1121.51 744.724 1089.16 739.496C1083 738.504 1081.59 733.335 1081.31 725.307C1081.08 718.734 1079.49 714.111 1076.45 711.195C1073.93 708.807 1070.56 707.488 1065.34 706.908L1060.09 706.319H1059.96C1053.93 705.63 1050.61 705.252 1043.74 704.975C1026.5 704.294 1022.33 719.827 1020.33 727.308L1020.23 727.678C1019.7 729.662 1019.23 731.561 1018.77 733.385C1017 740.572 1015.72 745.741 1012.98 747.111C1012.47 747.349 1011.92 747.472 1011.35 747.472C1010.79 747.472 1010.23 747.349 1009.72 747.111L999.625 743.077C994.457 741.001 989.853 744.388 988.153 748.624C987.302 750.603 987.183 752.82 987.816 754.878C988.209 755.981 988.844 756.982 989.674 757.808C990.504 758.634 991.508 759.264 992.614 759.652L1133.35 816.011Z" fill="black"/>
<path d="M1135.77 646.607C1135.24 646.604 1134.71 646.554 1134.19 646.455L1031.41 627.434C1030.41 627.286 1029.45 626.916 1028.61 626.352C1027.77 625.788 1027.07 625.043 1026.55 624.172C1025.68 622.574 1025.4 620.72 1025.76 618.936C1026.11 617.025 1027.1 615.289 1028.56 614.01C1029.36 613.322 1030.31 612.827 1031.33 612.565C1032.35 612.302 1033.42 612.279 1034.45 612.497L1041.8 613.85C1042.45 613.976 1042.72 613.85 1042.87 613.707C1044.01 612.816 1044.19 608.891 1044.37 604.739C1044.43 603.419 1044.49 602.057 1044.58 600.62V600.359C1044.94 594.669 1045.68 582.825 1058.55 580.783C1063.29 580.035 1065.59 579.833 1069.79 579.48H1070.01L1073.51 579.177C1077.44 578.833 1080.21 579.329 1082.49 580.783C1085.27 582.548 1087.17 585.742 1088.31 590.533C1089.83 596.905 1091.52 598.098 1094.11 597.964C1117.9 597.056 1119.92 607.47 1121.72 616.658V616.826C1121.82 617.339 1121.91 617.851 1122.02 618.364C1123.16 623.954 1124.81 629.241 1128.98 630.014L1136.72 631.443C1137.77 631.611 1138.76 632.006 1139.63 632.6C1140.5 633.194 1141.24 633.973 1141.77 634.881C1142.74 636.56 1143.06 638.529 1142.69 640.429C1142.16 643.564 1139.76 646.607 1135.77 646.607ZM1134.49 644.799C1138.32 645.514 1140.56 642.95 1141.09 640.101C1141.38 638.601 1141.13 637.046 1140.38 635.713C1139.96 635.012 1139.39 634.414 1138.7 633.959C1138.02 633.504 1137.25 633.205 1136.44 633.082L1128.69 631.645C1123.53 630.695 1121.65 624.853 1120.39 618.683C1120.28 618.171 1120.18 617.65 1120.08 617.128V616.969C1118.25 607.613 1116.52 598.779 1094.18 599.628C1089.69 599.788 1087.99 596.417 1086.69 590.903C1085.65 586.558 1083.98 583.708 1081.64 582.187C1079.68 580.943 1077.24 580.506 1073.72 580.842L1070.21 581.136H1069.99C1065.83 581.481 1063.54 581.674 1058.86 582.422C1047.33 584.254 1046.67 594.787 1046.31 600.443V600.704C1046.22 602.125 1046.16 603.478 1046.1 604.781C1045.87 609.925 1045.71 613.632 1043.96 615.01C1043.61 615.263 1043.22 615.436 1042.8 615.517C1042.38 615.599 1041.95 615.586 1041.54 615.481L1034.19 614.119C1033.41 613.958 1032.6 613.978 1031.83 614.178C1031.05 614.377 1030.34 614.751 1029.73 615.271C1028.56 616.296 1027.78 617.685 1027.5 619.213C1027.21 620.605 1027.42 622.056 1028.1 623.306C1028.49 623.966 1029.03 624.528 1029.67 624.953C1030.31 625.378 1031.04 625.654 1031.8 625.761L1134.49 644.833V644.799Z" fill="black"/>
<path d="M589.709 814.961C588.609 814.963 587.525 814.704 586.545 814.204C584.812 813.268 583.462 811.754 582.732 809.926C581.914 807.985 581.78 805.825 582.353 803.798C582.67 802.711 583.232 801.71 583.997 800.874C584.762 800.037 585.708 799.387 586.764 798.973L594.297 795.838C594.987 795.552 595.138 795.233 595.231 794.998C595.753 793.459 593.547 789.744 591.233 785.819C590.484 784.558 589.735 783.297 588.969 781.935L588.826 781.683C585.762 776.287 579.382 765.04 589.886 755.542C593.775 752.037 595.778 750.499 599.389 747.658L599.498 747.574L602.604 745.145C605.97 742.497 608.79 741.303 611.727 741.278H611.845C615.389 741.278 618.983 743.06 622.829 746.708C628.064 751.676 630.328 751.751 632.676 750.07C653.836 735.1 661.899 743.346 669.003 750.701L670.332 752.062C674.743 756.517 679.422 760.384 683.749 758.585L691.694 755.282C696.643 753.222 700.851 756.03 702.45 759.871C703.957 763.485 703.292 768.277 698.242 770.403L592.883 814.288C591.88 814.72 590.801 814.949 589.709 814.961ZM611.845 742.976H611.744C609.219 742.976 606.694 744.077 603.647 746.481L600.533 748.919L600.432 748.994C596.83 751.793 594.852 753.34 591.022 756.803C581.512 765.402 587.445 775.85 590.29 780.876L590.433 781.129C591.191 782.473 591.94 783.734 592.664 784.953C595.534 789.803 597.596 793.283 596.822 795.552C596.664 795.976 596.413 796.36 596.089 796.675C595.764 796.991 595.373 797.23 594.945 797.376L587.412 800.512C586.587 800.834 585.848 801.341 585.251 801.994C584.654 802.647 584.216 803.428 583.969 804.277C583.506 805.93 583.619 807.69 584.289 809.27C584.857 810.735 585.928 811.951 587.311 812.7C588.08 813.064 588.921 813.253 589.773 813.253C590.624 813.253 591.465 813.064 592.234 812.7L697.628 768.823C701.6 767.142 702.13 763.443 700.902 760.485C699.673 757.526 696.264 755.164 692.342 756.795L684.397 760.106C679.153 762.292 673.96 758.081 669.137 753.214L667.799 751.844C660.519 744.346 653.634 737.269 633.644 751.407C629.697 754.197 626.137 752.138 621.667 747.902C618.149 744.607 614.934 742.976 611.845 742.976Z" fill="black"/>
<path d="M683.892 658.433L762.166 789.635C763.984 792.479 764.62 795.919 763.94 799.224C763.259 802.529 761.316 805.439 758.522 807.337L742.69 818.088C741.827 818.675 741.175 819.524 740.83 820.509C740.485 821.494 740.465 822.563 740.772 823.561C741.08 824.558 741.7 825.43 742.54 826.05C743.381 826.67 744.398 827.005 745.443 827.006H802.019C807.793 827.008 813.527 826.054 818.987 824.182L854.733 811.96C870 806.74 874.326 788.82 866.087 774.976L826.874 705.21L828.742 704.546C836.964 701.632 844.415 696.889 850.53 690.674C856.644 684.46 861.263 676.937 864.036 668.676C866.808 660.415 867.663 651.632 866.534 642.992C865.404 634.353 862.322 626.083 857.519 618.81L853.588 612.858H703.242C680.045 612.825 671.578 638.798 683.892 658.433Z" fill="#274D76"/>
<path d="M783.073 658.433L861.348 789.635C863.163 792.481 863.796 795.921 863.114 799.225C862.432 802.53 860.489 805.439 857.695 807.337L841.889 818.088C841.026 818.675 840.374 819.524 840.028 820.509C839.683 821.494 839.663 822.563 839.971 823.561C840.279 824.558 840.898 825.43 841.739 826.05C842.579 826.67 843.596 827.005 844.641 827.006H901.226C906.997 827.007 912.728 826.053 918.186 824.182L953.931 811.96C969.199 806.74 973.533 788.82 965.293 774.976L926.072 705.21L927.94 704.546C936.163 701.632 943.613 696.889 949.728 690.674C955.843 684.46 960.461 676.937 963.234 668.676C966.007 660.415 966.861 651.632 965.732 642.992C964.603 634.353 961.52 626.083 956.717 618.81L952.786 612.858H802.432C779.227 612.825 770.768 638.798 783.073 658.433Z" fill="#74BAAB"/>
<path d="M707.256 183.816C775.221 213.832 976.698 368.998 1075.35 437.318C1086.65 445.135 1088.35 463.492 1063.64 463.274L620.313 459.424C612.039 459.357 611.004 451.641 612.881 443.597C612.881 443.597 662.472 220.094 679.642 189.204C682.848 183.11 697.897 179.68 707.256 183.816Z" fill="#93B4F6"/>
<path d="M668.54 483.119C674.289 462.946 691.492 450.96 726.11 446.362C742.943 444.126 763.379 444.269 787.189 444.269C900.401 444.269 1002.47 529.804 1002.47 600.687C1002.47 644.396 949.109 660.03 847.713 613.094C805.563 612.514 775.002 612.707 737.262 612.825C699.993 562.299 659.576 514.489 668.54 483.119Z" fill="#FFF3A1"/>
<path d="M764.86 510.345H753.75C751.379 510.345 749.106 509.404 747.43 507.73C745.753 506.056 744.812 503.786 744.812 501.418V432.527H770.061L787.248 451.229C791.099 455.418 793.235 460.899 793.232 466.586V481.959C793.236 485.684 792.504 489.372 791.08 492.814C789.656 496.256 787.567 499.385 784.933 502.021C782.298 504.656 779.169 506.748 775.725 508.176C772.281 509.605 768.589 510.342 764.86 510.345Z" fill="#EC8C92"/>
<path d="M779.261 435.469H778.419C777.946 435.469 777.492 435.281 777.157 434.947C776.823 434.612 776.635 434.159 776.635 433.687V412.328C782.291 409.084 780.75 400.132 779.16 396.568C777.476 392.752 774.825 392.424 774.11 394.887C772.62 400.056 767.957 400.897 765.693 400.846C757.605 400.661 757.074 393.659 743.456 393.92C739.569 394.023 735.877 395.643 733.171 398.432C730.465 401.22 728.961 404.957 728.98 408.84V476.496C728.986 478.765 729.892 480.94 731.499 482.545C733.106 484.15 735.284 485.054 737.556 485.061H754.979C760.715 485.061 766.217 482.785 770.274 478.734C774.33 474.683 776.609 469.188 776.609 463.459V462.291C776.602 461.486 776.839 460.698 777.29 460.032C777.741 459.365 778.384 458.852 779.134 458.558C780.699 457.968 782.047 456.916 782.999 455.542C783.95 454.168 784.461 452.538 784.462 450.867V440.621C784.462 439.941 784.327 439.267 784.065 438.64C783.803 438.012 783.42 437.442 782.936 436.963C782.453 436.484 781.879 436.105 781.248 435.849C780.617 435.592 779.942 435.463 779.261 435.469Z" fill="#F2BDBA"/>
<path d="M767.629 431.846H723.467C722.69 431.841 721.944 432.142 721.388 432.683C720.832 433.224 720.511 433.962 720.496 434.737C720.454 436.586 720.454 437.814 720.454 439.52V439.949C720.454 449.035 726.118 456.44 733.079 456.44C738.373 456.44 743.179 452.078 744.938 445.597C744.969 445.464 745.044 445.344 745.151 445.258C745.257 445.171 745.389 445.122 745.527 445.118C745.664 445.123 745.795 445.173 745.902 445.259C746.008 445.346 746.083 445.464 746.116 445.597C747.917 452.078 752.681 456.44 757.975 456.44C764.936 456.44 770.6 449.035 770.6 439.949V434.813C770.598 434.027 770.284 433.273 769.727 432.717C769.171 432.161 768.416 431.848 767.629 431.846ZM768.917 439.949C768.917 448.127 764.018 454.759 757.975 454.759C753.287 454.759 749.289 450.758 747.74 445.152C747.611 444.664 747.324 444.232 746.924 443.924C746.523 443.616 746.032 443.449 745.527 443.449C745.021 443.449 744.53 443.616 744.13 443.924C743.729 444.232 743.442 444.664 743.313 445.152C741.756 450.758 737.767 454.759 733.079 454.759C727.035 454.759 722.137 448.127 722.137 439.949C722.137 438.015 722.137 436.755 722.179 434.779C722.188 434.444 722.327 434.126 722.568 433.892C722.808 433.658 723.131 433.527 723.467 433.527H767.629C767.97 433.527 768.298 433.662 768.539 433.904C768.781 434.145 768.917 434.472 768.917 434.813V439.949Z" fill="black"/>
<path d="M736.647 442.815H736.521C735.994 442.816 735.472 442.713 734.985 442.513C734.498 442.312 734.056 442.018 733.683 441.646C733.31 441.274 733.014 440.833 732.812 440.347C732.61 439.861 732.506 439.34 732.506 438.814C732.506 438.5 732.631 438.198 732.854 437.976C733.076 437.754 733.378 437.629 733.693 437.629H739.467C739.782 437.629 740.084 437.754 740.306 437.976C740.529 438.198 740.654 438.5 740.654 438.814C740.654 439.339 740.55 439.86 740.349 440.345C740.147 440.831 739.852 441.272 739.48 441.643C739.108 442.015 738.667 442.309 738.18 442.51C737.694 442.712 737.173 442.815 736.647 442.815Z" fill="black"/>
<path d="M754.869 442.815H754.743C753.68 442.815 752.66 442.394 751.907 441.644C751.155 440.894 750.731 439.876 750.729 438.814C750.729 438.5 750.854 438.198 751.076 437.976C751.299 437.754 751.6 437.629 751.915 437.629H757.697C758.011 437.631 758.31 437.757 758.531 437.979C758.752 438.201 758.876 438.501 758.876 438.814C758.876 439.875 758.454 440.893 757.702 441.643C756.951 442.393 755.932 442.815 754.869 442.815Z" fill="black"/>
<path d="M756.174 464.232H746.217V462.551H756.174C756.715 462.552 757.247 462.417 757.722 462.159C758.198 461.9 758.6 461.526 758.892 461.072L760.306 461.979C759.862 462.671 759.251 463.24 758.529 463.634C757.806 464.028 756.997 464.234 756.174 464.232Z" fill="black"/>
<path d="M806.505 584.566L797.954 596.333C797.06 597.565 796.441 598.974 796.138 600.465C795.836 601.955 795.857 603.494 796.201 604.976C796.545 606.458 797.203 607.849 798.131 609.055C799.06 610.261 800.236 611.254 801.582 611.968L811.513 617.238C814.73 618.944 818.459 619.423 822.003 618.587C825.548 617.75 828.667 615.654 830.779 612.69L834.146 607.95L806.505 584.566Z" fill="#EC8C92"/>
<path d="M758.455 584.566L767.006 596.333C767.9 597.565 768.519 598.974 768.822 600.465C769.124 601.955 769.103 603.494 768.759 604.976C768.415 606.458 767.757 607.849 766.829 609.055C765.9 610.261 764.724 611.254 763.378 611.968L753.447 617.238C750.233 618.944 746.509 619.426 742.966 618.594C739.424 617.762 736.305 615.673 734.189 612.716L730.823 607.975L758.455 584.566Z" fill="#EC8C92"/>
<path d="M836.645 539.403C831.317 529.821 827.949 519.277 826.736 508.384C825.524 497.491 826.492 486.466 829.584 475.949L831.2 476.42C828.166 486.728 827.215 497.536 828.403 508.215C829.59 518.893 832.893 529.229 838.118 538.621L836.645 539.403Z" fill="black"/>
<path d="M706.254 541.445C695.843 519.364 694.059 499.678 700.472 477.563L702.097 478.034C695.801 499.678 697.552 519.002 707.778 540.68L706.254 541.445Z" fill="black"/>
<path d="M960.277 521.104L779.681 338.872L778.276 337.443L777.931 337.099L777.628 336.813L777.03 336.241C776.228 335.511 775.385 334.826 774.505 334.19C772.853 332.979 771.029 332.021 769.093 331.349C765.458 330.08 761.47 330.273 757.975 331.887C754.156 333.749 750.902 336.592 748.548 340.125L739.652 353.447L704.075 406.738L632.929 513.329L615.136 539.966L612.914 543.328L612.359 544.169L611.929 544.866C611.652 545.337 611.323 545.783 611.088 546.27C610.038 548.128 609.21 550.103 608.622 552.154C607.446 556.042 607.321 560.172 608.26 564.123C609.195 567.945 611.225 571.412 614.101 574.101C617.067 576.819 620.714 578.686 624.655 579.506C626.726 579.956 628.84 580.182 630.959 580.178H638.947L654.997 580.111L783.351 579.573C826.141 579.237 868.923 579.573 911.705 579.707L943.528 579.791C947.793 579.71 951.995 578.754 955.875 576.984C959.623 575.206 962.907 572.585 965.47 569.326C970.68 562.778 972.952 553.659 971.917 544.875C971.409 540.442 970.136 536.131 968.155 532.132C966.151 528.05 963.49 524.325 960.277 521.104ZM971.084 510.269C975.499 514.61 979.175 519.641 981.967 525.164C984.782 530.742 986.607 536.766 987.362 542.967C988.132 549.229 987.747 555.579 986.225 561.703C984.677 567.961 981.845 573.832 977.91 578.942C973.872 584.142 968.688 588.342 962.76 591.214C956.913 593.975 950.557 595.498 944.092 595.686H942.913H939.808H935.801H927.78L911.73 595.745C868.948 595.863 826.166 596.216 783.376 595.871L655.023 595.341L638.972 595.274H630.926C627.69 595.259 624.466 594.884 621.314 594.156C614.747 592.704 608.693 589.51 603.791 584.91C598.849 580.202 595.379 574.164 593.8 567.528C592.287 561.023 592.525 554.234 594.49 547.85C595.417 544.762 596.699 541.792 598.311 538.999C598.682 538.293 599.153 537.646 599.54 536.965L600.171 535.973L600.735 535.133L602.991 531.771L621.003 505.302L693.158 399.157L729.224 346.093L738.246 332.829C740.067 330.24 742.192 327.878 744.576 325.793C745.799 324.715 747.099 323.726 748.464 322.835C749.864 321.913 751.339 321.111 752.874 320.439C759.245 317.592 766.454 317.238 773.074 319.447C776.208 320.505 779.167 322.023 781.853 323.953C783.146 324.876 784.385 325.872 785.565 326.936L786.406 327.777L787.248 328.542L788.67 329.954L971.084 510.269Z" fill="white"/>
<path d="M989.037 542.765C988.263 536.369 986.378 530.156 983.465 524.407C980.597 518.721 976.816 513.541 972.271 509.076L789.798 328.786L788.367 327.374L787.526 326.592L786.684 325.751C785.459 324.642 784.169 323.606 782.821 322.65C780.004 320.594 776.891 318.979 773.588 317.859C770.581 316.853 767.433 316.337 764.262 316.329C763.766 316.329 763.269 316.329 762.781 316.371C759.122 316.545 755.528 317.4 752.184 318.892C750.567 319.599 749.012 320.443 747.538 321.414C746.102 322.372 744.735 323.431 743.448 324.583C740.964 326.758 738.748 329.221 736.849 331.921L727.818 345.21L691.745 398.274L619.614 504.377L601.577 530.913L599.322 534.225L598.758 535.066L598.126 536.057L597.722 536.705C597.428 537.167 597.125 537.654 596.839 538.184C595.177 541.084 593.849 544.164 592.883 547.363C590.825 554.029 590.581 561.122 592.176 567.914C593.834 574.863 597.467 581.185 602.638 586.121C607.749 590.951 614.08 594.302 620.952 595.812C624.221 596.562 627.563 596.952 630.918 596.972H638.981L655.023 597.039L783.376 597.569C795.547 597.67 808.525 597.72 823.044 597.72C841.561 597.72 860.304 597.636 878.467 597.569C889.561 597.519 900.654 597.477 911.747 597.443L927.797 597.384H935.818H939.825H942.922H944.117C950.82 597.179 957.41 595.6 963.475 592.744C969.648 589.766 975.046 585.402 979.248 579.993C983.321 574.692 986.256 568.608 987.867 562.123C989.447 555.797 989.843 549.235 989.037 542.765ZM986.226 561.703C984.677 567.961 981.845 573.832 977.91 578.942C973.872 584.142 968.688 588.342 962.76 591.214C956.913 593.975 950.557 595.498 944.092 595.686H942.914H939.808H935.802H927.781L911.73 595.745C882.171 595.821 852.603 596.022 823.036 596.022C809.816 596.022 796.596 595.972 783.376 595.871L655.023 595.341L638.972 595.274H630.926C627.69 595.259 624.467 594.884 621.314 594.156C614.747 592.704 608.693 589.51 603.791 584.91C598.849 580.202 595.379 574.164 593.8 567.528C592.287 561.023 592.525 554.234 594.49 547.85C595.417 544.762 596.7 541.792 598.312 538.999C598.682 538.293 599.153 537.646 599.54 536.965L600.172 535.973L600.736 535.133L602.991 531.771L621.003 505.302L693.159 399.157L729.224 346.093L738.246 332.829C740.067 330.24 742.192 327.878 744.576 325.793C745.799 324.715 747.099 323.727 748.464 322.835C749.864 321.913 751.339 321.112 752.875 320.439C756.029 319.026 759.42 318.217 762.874 318.052C763.336 318.052 763.799 318.01 764.262 318.01C767.249 318.022 770.215 318.507 773.049 319.447C776.183 320.505 779.142 322.023 781.828 323.953C783.121 324.876 784.36 325.872 785.539 326.936L786.381 327.777L787.223 328.542L788.645 329.954L971.118 510.286C975.533 514.627 979.208 519.658 982 525.181C984.815 530.759 986.641 536.782 987.395 542.984C988.153 549.242 987.756 555.587 986.226 561.703Z" fill="#93B4F6"/>
<path d="M968.172 532.04C966.159 527.993 963.498 524.303 960.294 521.112L779.682 338.872L778.276 337.443L777.931 337.099L777.628 336.813L777.03 336.241C776.228 335.511 775.385 334.826 774.505 334.19C772.854 332.979 771.029 332.021 769.094 331.349C767.513 330.8 765.852 330.516 764.178 330.509C762.037 330.515 759.922 330.979 757.975 331.871C754.156 333.732 750.903 336.575 748.549 340.108L739.652 353.431L704.075 406.722L632.929 513.329L615.137 539.966L612.915 543.328L612.359 544.169L611.93 544.866C611.652 545.337 611.324 545.783 611.088 546.27C610.038 548.128 609.21 550.103 608.622 552.154C607.446 556.042 607.321 560.172 608.26 564.123C609.196 567.945 611.225 571.412 614.101 574.101C617.068 576.819 620.714 578.686 624.656 579.505C626.721 579.956 628.829 580.182 630.943 580.178V578.497C628.962 578.498 626.987 578.286 625.051 577.866C621.405 577.113 618.031 575.388 615.288 572.874C612.647 570.409 610.787 567.227 609.935 563.72C609.056 560.057 609.173 556.227 610.272 552.625C610.823 550.71 611.6 548.868 612.586 547.136V547.085V547.035C612.713 546.782 612.857 546.538 613.016 546.304C613.125 546.127 613.243 545.942 613.352 545.749L613.748 545.11L614.295 544.27L616.517 540.907L634.301 514.27L705.447 407.697L741.032 354.406L749.92 341.083C752.096 337.81 755.106 335.175 758.64 333.451C760.368 332.651 762.249 332.235 764.153 332.232C765.64 332.234 767.116 332.484 768.521 332.972C770.299 333.585 771.973 334.463 773.487 335.577C774.316 336.171 775.109 336.814 775.861 337.502L776.433 338.057L776.727 338.326L777.056 338.654L778.461 340.074L959.082 522.289C962.165 525.349 964.723 528.892 966.657 532.779C968.564 536.6 969.786 540.725 970.268 544.967C971.261 553.465 968.989 562.14 964.174 568.192C961.769 571.248 958.686 573.705 955.168 575.37C951.511 577.048 947.544 577.95 943.52 578.018L911.73 577.934C900.637 577.9 889.547 577.858 878.459 577.808C860.296 577.732 841.51 577.656 823.027 577.656C808.509 577.656 795.53 577.707 783.36 577.799L655.006 578.337L638.964 578.404H630.968V580.085H638.956L655.006 580.018L783.36 579.48C796.585 579.379 809.805 579.332 823.019 579.337C852.587 579.337 882.154 579.531 911.713 579.615L943.537 579.699C947.801 579.617 952.004 578.662 955.884 576.891C959.631 575.113 962.915 572.492 965.479 569.234C970.689 562.686 972.961 553.566 971.926 544.782C971.42 540.35 970.15 536.039 968.172 532.04Z" fill="#93B4F6"/>
<path d="M700.422 612.892C702.669 617.095 710.842 617.935 716.565 613.682C719.932 618.398 729.754 618.398 734.669 612.892C741.95 619.835 759.078 612.194 763.698 596.14C753.077 596.14 753.8 579.631 764.447 579.245C761.148 564.115 747.48 550.59 724.696 553.549C711.54 555.23 695.642 558.332 688.849 568.906C682.31 579.094 683.025 588.827 683.067 596.14C683.151 612.11 692.107 618.373 700.422 612.892Z" fill="#F2BDBA"/>
<path d="M766.307 325.247C766.307 322.473 767.873 320.431 769.741 318.993C770.937 318.069 770.238 316.9 768.731 316.9H762.293C756.401 316.9 753.624 319.851 753.624 325.524C753.624 331.198 756.367 334.14 762.293 334.14H766.871C768.689 334.14 770.339 332.635 770.154 331.77C768.016 330.711 766.341 328.693 766.307 325.247Z" fill="#274D76"/>
<path d="M864.538 612.892C862.291 617.095 853.866 617.935 848.143 613.682C845.719 618.398 835.206 618.398 830.291 612.892C822.884 619.953 805.883 611.715 800.993 595.241C795.227 575.908 809.359 549.506 840.265 553.516C857.098 555.693 878.139 560.24 879.596 579.396C870.876 579.455 868.25 596.106 881.893 596.106C883.678 612.052 872.887 618.373 864.538 612.892Z" fill="#F2BDBA"/>
<path d="M854.518 601.269L853.309 602.439L861.235 610.605L862.444 609.434L854.518 601.269Z" fill="black"/>
<path d="M838.013 602.1L836.805 603.271L844.227 610.917L845.436 609.747L838.013 602.1Z" fill="black"/>
<path d="M820.092 601.135L818.884 602.306L827.011 610.675L828.219 609.505L820.092 601.135Z" fill="black"/>
<path d="M694.895 601.318L693.429 602.145L698.19 610.561L699.655 609.734L694.895 601.318Z" fill="black"/>
<path d="M710.724 601.416L709.258 602.242L713.586 609.898L715.052 609.072L710.724 601.416Z" fill="black"/>
<path d="M729.149 601.415L727.684 602.241L732.281 610.373L733.747 609.547L729.149 601.415Z" fill="black"/>
<path d="M778.657 354.776L777.172 355.568L826.373 447.554L827.858 446.762L778.657 354.776Z" fill="white"/>
<path d="M725.664 255.701L724.179 256.493L751.276 307.154L752.761 306.361L725.664 255.701Z" fill="white"/>
<path d="M693.083 194.804L691.599 195.596L709.868 229.752L711.353 228.96L693.083 194.804Z" fill="white"/>
<path d="M777.611 414.161C783.191 408.092 780.725 400.132 779.109 396.568C777.426 392.752 774.775 392.424 774.059 394.887C772.569 400.056 767.907 400.897 765.643 400.846C757.554 400.661 757.024 393.659 743.406 393.92C739.529 394.055 735.856 395.684 733.156 398.466C730.457 401.248 728.942 404.966 728.929 408.84C728.929 421.599 741.125 406.907 751.368 414.034C765.643 423.928 773.79 418.321 777.611 414.161Z" fill="black"/>
<path d="M834.71 797.133H777.435V798.814H834.71V797.133Z" fill="white"/>
<path d="M941.348 797.133H873.973V798.814H941.348V797.133Z" fill="black"/>
<path d="M903.485 663.327L902.017 664.15L919.967 696.095L921.435 695.272L903.485 663.327Z" fill="black"/>
</g>
<path d="M81.333 62.6954C86.117 62.6954 89.9996 58.8128 89.9996 54.0288V36.6957C89.9996 41.4796 86.117 45.3623 81.333 45.3623" fill="#8093B8"/>
<path d="M81.3332 45.3623H64V62.6955H81.3332V45.3623Z" fill="#8093B8"/>
<path d="M98.6666 28.0291C93.8826 28.0291 90 31.9117 90 36.6956V54.0288C90 49.2449 93.8826 45.3622 98.6666 45.3622" fill="#8093B8"/>
<path d="M98.6668 45.3331H116V28L98.6668 28V45.3331Z" fill="#8093B8"/>
<path d="M132.352 48.92L132.736 46.712L139.056 39.48H142.128L140.88 46.552H142.192L141.776 48.92H140.464L140.096 51H137.344L137.728 48.92H132.352ZM139.056 42.488L135.648 46.552H138.336L139.056 42.488ZM143.772 45.176C144.081 43.4053 144.679 42.0027 145.564 40.968C146.46 39.9227 147.697 39.4 149.276 39.4C150.545 39.4 151.473 39.7467 152.06 40.44C152.657 41.1227 152.956 42.0773 152.956 43.304C152.956 43.8053 152.892 44.4293 152.764 45.176C152.455 46.9467 151.852 48.3547 150.956 49.4C150.06 50.4347 148.823 50.952 147.244 50.952C145.975 50.952 145.047 50.6107 144.46 49.928C143.884 49.2347 143.596 48.2747 143.596 47.048C143.596 46.4827 143.655 45.8587 143.772 45.176ZM150.06 45.176C150.177 44.5147 150.236 43.9973 150.236 43.624C150.236 43.0907 150.129 42.68 149.916 42.392C149.703 42.104 149.34 41.96 148.828 41.96C148.092 41.96 147.553 42.2427 147.212 42.808C146.881 43.3733 146.631 44.1627 146.46 45.176C146.343 45.8373 146.284 46.3547 146.284 46.728C146.284 47.2613 146.391 47.672 146.604 47.96C146.817 48.248 147.18 48.392 147.692 48.392C148.428 48.392 148.961 48.1093 149.292 47.544C149.633 46.9787 149.889 46.1893 150.06 45.176ZM153.618 48.92L154.002 46.712L160.322 39.48H163.394L162.146 46.552H163.458L163.042 48.92H161.73L161.362 51H158.61L158.994 48.92H153.618ZM160.322 42.488L156.914 46.552H159.602L160.322 42.488ZM170.51 40.792C169.987 40.76 169.603 40.8347 169.358 41.016C169.123 41.1973 168.963 41.5227 168.878 41.992L168.862 42.072H170.334L169.934 44.344H168.462L167.294 51H164.542L165.71 44.344H164.718L165.118 42.072H166.11L166.158 41.816C166.36 40.7173 166.824 39.8853 167.55 39.32C168.286 38.744 169.262 38.456 170.478 38.456C170.67 38.456 170.814 38.4613 170.91 38.472L170.51 40.792ZM174.115 51.128C173.347 51.128 172.665 50.9733 172.067 50.664C171.47 50.3547 171.006 49.9173 170.675 49.352C170.355 48.7867 170.195 48.1307 170.195 47.384C170.195 46.3707 170.435 45.448 170.915 44.616C171.395 43.784 172.057 43.1333 172.899 42.664C173.742 42.184 174.681 41.944 175.715 41.944C176.483 41.944 177.166 42.104 177.763 42.424C178.371 42.7333 178.841 43.1707 179.171 43.736C179.502 44.3013 179.667 44.9573 179.667 45.704C179.667 46.728 179.422 47.656 178.931 48.488C178.451 49.3093 177.785 49.9547 176.931 50.424C176.089 50.8933 175.15 51.128 174.115 51.128ZM174.499 48.776C174.947 48.776 175.347 48.6427 175.699 48.376C176.062 48.0987 176.339 47.7467 176.531 47.32C176.734 46.8827 176.835 46.4293 176.835 45.96C176.835 45.4267 176.691 45.016 176.403 44.728C176.115 44.44 175.753 44.296 175.315 44.296C174.857 44.296 174.451 44.4347 174.099 44.712C173.758 44.9787 173.491 45.3307 173.299 45.768C173.107 46.2053 173.011 46.664 173.011 47.144C173.011 47.6667 173.15 48.072 173.427 48.36C173.705 48.6373 174.062 48.776 174.499 48.776ZM184.239 43.688C184.655 43.1547 185.13 42.7387 185.663 42.44C186.207 42.1307 186.772 41.976 187.359 41.976L186.847 44.872H186.095C185.412 44.872 184.874 45.0213 184.479 45.32C184.084 45.608 183.823 46.12 183.695 46.856L182.959 51H180.223L181.791 42.072H184.527L184.239 43.688ZM200.059 41.976C201.019 41.976 201.765 42.232 202.299 42.744C202.843 43.2453 203.115 43.9493 203.115 44.856C203.115 45.1333 203.083 45.4427 203.019 45.784L202.091 51H199.371L200.235 46.152C200.256 46.0453 200.267 45.9013 200.267 45.72C200.267 45.272 200.139 44.9307 199.883 44.696C199.637 44.4613 199.291 44.344 198.843 44.344C198.309 44.344 197.861 44.504 197.499 44.824C197.136 45.1333 196.907 45.576 196.811 46.152L195.947 51H193.227L194.091 46.152C194.112 46.0453 194.123 45.9013 194.123 45.72C194.123 45.272 193.995 44.9307 193.739 44.696C193.493 44.4613 193.147 44.344 192.699 44.344C192.165 44.344 191.717 44.504 191.355 44.824C190.992 45.1333 190.763 45.576 190.667 46.152V46.072L189.803 51H187.067L188.635 42.072H191.371L191.179 43.208C191.52 42.824 191.931 42.5253 192.411 42.312C192.901 42.088 193.429 41.976 193.995 41.976C194.677 41.976 195.253 42.12 195.723 42.408C196.203 42.696 196.544 43.112 196.747 43.656C197.141 43.1547 197.632 42.7493 198.219 42.44C198.805 42.1307 199.419 41.976 200.059 41.976ZM209.572 41.944C210.724 41.944 211.636 42.2587 212.308 42.888C212.991 43.5067 213.332 44.3547 213.332 45.432C213.332 45.784 213.305 46.0987 213.252 46.376C213.209 46.6213 213.145 46.8827 213.06 47.16H206.868C206.857 47.224 206.852 47.3253 206.852 47.464C206.852 47.9333 206.98 48.2907 207.236 48.536C207.492 48.7813 207.833 48.904 208.26 48.904C208.943 48.904 209.465 48.616 209.828 48.04H212.74C212.356 48.9467 211.732 49.688 210.868 50.264C210.004 50.84 209.033 51.128 207.956 51.128C206.804 51.128 205.881 50.808 205.188 50.168C204.505 49.528 204.164 48.6587 204.164 47.56C204.164 47.2293 204.196 46.888 204.26 46.536C204.42 45.608 204.751 44.7973 205.252 44.104C205.753 43.4107 206.377 42.8773 207.124 42.504C207.871 42.1307 208.687 41.944 209.572 41.944ZM210.564 45.768C210.585 45.6187 210.596 45.5173 210.596 45.464C210.596 45.0373 210.463 44.712 210.196 44.488C209.929 44.2533 209.577 44.136 209.14 44.136C208.671 44.136 208.255 44.28 207.892 44.568C207.54 44.8453 207.284 45.2453 207.124 45.768H210.564Z" fill="#8093B8"/>
<path d="M955.495 39.3636V51H953.739V39.3636H955.495ZM957.915 39.3636H959.614V48.6136C959.614 48.9886 959.662 49.2538 959.756 49.4091C959.855 49.5644 960.04 49.6383 960.313 49.6307C960.461 49.6269 960.571 49.6174 960.643 49.6023C960.719 49.5871 960.787 49.5701 960.847 49.5511L961.154 50.9091C961.037 50.9432 960.887 50.9754 960.705 51.0057C960.527 51.0398 960.325 51.0587 960.097 51.0625C959.362 51.0739 958.815 50.8996 958.455 50.5398C958.095 50.1799 957.915 49.6553 957.915 48.9659V39.3636ZM962.509 39.3636H964.208V48.6136C964.208 48.9886 964.255 49.2538 964.35 49.4091C964.449 49.5644 964.634 49.6383 964.907 49.6307C965.055 49.6269 965.165 49.6174 965.237 49.6023C965.312 49.5871 965.38 49.5701 965.441 49.5511L965.748 50.9091C965.63 50.9432 965.481 50.9754 965.299 51.0057C965.121 51.0398 964.918 51.0587 964.691 51.0625C963.956 51.0739 963.409 50.8996 963.049 50.5398C962.689 50.1799 962.509 49.6553 962.509 48.9659V39.3636ZM972.397 47.3807V42.2727H974.102V51H972.431V49.4886H972.34C972.139 49.9545 971.817 50.3428 971.374 50.6534C970.935 50.9602 970.388 51.1136 969.732 51.1136C969.172 51.1136 968.675 50.9905 968.244 50.7443C967.816 50.4943 967.478 50.125 967.232 49.6364C966.99 49.1477 966.869 48.5436 966.869 47.8239V42.2727H968.567V47.6193C968.567 48.214 968.732 48.6875 969.062 49.0398C969.391 49.392 969.819 49.5682 970.346 49.5682C970.664 49.5682 970.98 49.4886 971.295 49.3295C971.613 49.1705 971.876 48.9299 972.085 48.608C972.297 48.286 972.401 47.8769 972.397 47.3807ZM982.924 44.4034L981.384 44.6761C981.32 44.4792 981.218 44.2917 981.077 44.1136C980.941 43.9356 980.755 43.7898 980.521 43.6761C980.286 43.5625 979.992 43.5057 979.64 43.5057C979.159 43.5057 978.757 43.6136 978.435 43.8295C978.113 44.0417 977.952 44.3163 977.952 44.6534C977.952 44.9451 978.06 45.1799 978.276 45.358C978.492 45.536 978.841 45.6818 979.322 45.7955L980.708 46.1136C981.511 46.2992 982.11 46.5852 982.504 46.9716C982.897 47.358 983.094 47.8598 983.094 48.4773C983.094 49 982.943 49.4659 982.64 49.875C982.341 50.2803 981.922 50.5985 981.384 50.8295C980.85 51.0606 980.231 51.1761 979.526 51.1761C978.549 51.1761 977.752 50.9678 977.134 50.5511C976.517 50.1307 976.138 49.5341 975.998 48.7614L977.64 48.5114C977.742 48.9394 977.952 49.2633 978.271 49.483C978.589 49.6989 979.004 49.8068 979.515 49.8068C980.072 49.8068 980.517 49.6913 980.85 49.4602C981.183 49.2254 981.35 48.9394 981.35 48.6023C981.35 48.3295 981.248 48.1004 981.043 47.9148C980.843 47.7292 980.534 47.589 980.117 47.4943L978.64 47.1705C977.826 46.9848 977.223 46.6894 976.833 46.2841C976.447 45.8788 976.254 45.3655 976.254 44.7443C976.254 44.2292 976.397 43.7784 976.685 43.392C976.973 43.0057 977.371 42.7045 977.879 42.4886C978.386 42.2689 978.968 42.1591 979.623 42.1591C980.566 42.1591 981.308 42.3636 981.85 42.7727C982.392 43.178 982.75 43.7216 982.924 44.4034ZM989.036 42.2727V43.6364H984.269V42.2727H989.036ZM985.548 40.1818H987.246V48.4375C987.246 48.767 987.296 49.0152 987.394 49.1818C987.493 49.3447 987.62 49.4564 987.775 49.517C987.934 49.5739 988.106 49.6023 988.292 49.6023C988.428 49.6023 988.548 49.5928 988.65 49.5739C988.752 49.5549 988.832 49.5398 988.888 49.5284L989.195 50.9318C989.097 50.9697 988.957 51.0076 988.775 51.0455C988.593 51.0871 988.366 51.1098 988.093 51.1136C987.646 51.1212 987.229 51.0417 986.843 50.875C986.457 50.7083 986.144 50.4508 985.906 50.1023C985.667 49.7538 985.548 49.3163 985.548 48.7898V40.1818ZM990.915 51V42.2727H992.558V43.6591H992.648C992.808 43.1894 993.088 42.8201 993.489 42.5511C993.891 42.2784 994.349 42.142 994.864 42.142C995.103 42.142 995.317 42.1705 995.506 42.2273C995.696 42.2841 995.862 42.3617 996.006 42.4602L995.461 43.8807C995.359 43.8314 995.243 43.7917 995.114 43.7614C994.986 43.7273 994.838 43.7102 994.671 43.7102C994.277 43.7102 993.925 43.7955 993.614 43.9659C993.308 44.1326 993.063 44.3636 992.881 44.6591C992.703 44.9545 992.614 45.2917 992.614 45.6705V51H990.915ZM1000.21 51.1705C999.509 51.1705 998.88 50.9905 998.327 50.6307C997.778 50.267 997.346 49.75 997.032 49.0795C996.721 48.4053 996.566 47.5966 996.566 46.6534C996.566 45.7102 996.723 44.9034 997.038 44.233C997.356 43.5625 997.791 43.0492 998.344 42.6932C998.897 42.3371 999.524 42.1591 1000.23 42.1591C1000.77 42.1591 1001.2 42.25 1001.53 42.4318C1001.87 42.6098 1002.12 42.8182 1002.3 43.0568C1002.49 43.2955 1002.63 43.5057 1002.74 43.6875H1002.84V42.2727H1004.54V51H1002.88V49.642H1002.74C1002.63 49.8277 1002.49 50.0398 1002.29 50.2784C1002.1 50.517 1001.84 50.7254 1001.51 50.9034C1001.18 51.0814 1000.74 51.1705 1000.21 51.1705ZM1000.59 49.7216C1001.08 49.7216 1001.49 49.5928 1001.83 49.3352C1002.17 49.0739 1002.43 48.7121 1002.6 48.25C1002.78 47.7879 1002.87 47.25 1002.87 46.6364C1002.87 46.0303 1002.78 45.5 1002.61 45.0455C1002.43 44.5909 1002.18 44.2367 1001.84 43.983C1001.5 43.7292 1001.08 43.6023 1000.59 43.6023C1000.08 43.6023 999.651 43.7348 999.31 44C998.969 44.2652 998.712 44.6269 998.538 45.0852C998.367 45.5436 998.282 46.0606 998.282 46.6364C998.282 47.2197 998.369 47.7443 998.543 48.2102C998.718 48.6761 998.975 49.0455 999.316 49.3182C999.661 49.5871 1000.08 49.7216 1000.59 49.7216ZM1011.04 42.2727V43.6364H1006.27V42.2727H1011.04ZM1007.55 40.1818H1009.25V48.4375C1009.25 48.767 1009.3 49.0152 1009.39 49.1818C1009.49 49.3447 1009.62 49.4564 1009.77 49.517C1009.93 49.5739 1010.11 49.6023 1010.29 49.6023C1010.43 49.6023 1010.55 49.5928 1010.65 49.5739C1010.75 49.5549 1010.83 49.5398 1010.89 49.5284L1011.2 50.9318C1011.1 50.9697 1010.96 51.0076 1010.77 51.0455C1010.59 51.0871 1010.37 51.1098 1010.09 51.1136C1009.65 51.1212 1009.23 51.0417 1008.84 50.875C1008.46 50.7083 1008.14 50.4508 1007.91 50.1023C1007.67 49.7538 1007.55 49.3163 1007.55 48.7898V40.1818ZM1012.92 51V42.2727H1014.61V51H1012.92ZM1013.77 40.9261C1013.48 40.9261 1013.22 40.8277 1013.01 40.6307C1012.8 40.4299 1012.7 40.1913 1012.7 39.9148C1012.7 39.6345 1012.8 39.3958 1013.01 39.1989C1013.22 38.9981 1013.48 38.8977 1013.77 38.8977C1014.07 38.8977 1014.32 38.9981 1014.53 39.1989C1014.74 39.3958 1014.85 39.6345 1014.85 39.9148C1014.85 40.1913 1014.74 40.4299 1014.53 40.6307C1014.32 40.8277 1014.07 40.9261 1013.77 40.9261ZM1020.58 51.1761C1019.76 51.1761 1019.04 50.9886 1018.43 50.6136C1017.82 50.2386 1017.35 49.714 1017.01 49.0398C1016.68 48.3655 1016.51 47.5777 1016.51 46.6761C1016.51 45.7708 1016.68 44.9792 1017.01 44.3011C1017.35 43.6231 1017.82 43.0966 1018.43 42.7216C1019.04 42.3466 1019.76 42.1591 1020.58 42.1591C1021.39 42.1591 1022.11 42.3466 1022.72 42.7216C1023.33 43.0966 1023.8 43.6231 1024.14 44.3011C1024.48 44.9792 1024.64 45.7708 1024.64 46.6761C1024.64 47.5777 1024.48 48.3655 1024.14 49.0398C1023.8 49.714 1023.33 50.2386 1022.72 50.6136C1022.11 50.9886 1021.39 51.1761 1020.58 51.1761ZM1020.58 49.75C1021.11 49.75 1021.55 49.6098 1021.9 49.3295C1022.25 49.0492 1022.51 48.6761 1022.67 48.2102C1022.84 47.7443 1022.93 47.2311 1022.93 46.6705C1022.93 46.1136 1022.84 45.6023 1022.67 45.1364C1022.51 44.6667 1022.25 44.2898 1021.9 44.0057C1021.55 43.7216 1021.11 43.5795 1020.58 43.5795C1020.05 43.5795 1019.6 43.7216 1019.25 44.0057C1018.9 44.2898 1018.64 44.6667 1018.47 45.1364C1018.31 45.6023 1018.22 46.1136 1018.22 46.6705C1018.22 47.2311 1018.31 47.7443 1018.47 48.2102C1018.64 48.6761 1018.9 49.0492 1019.25 49.3295C1019.6 49.6098 1020.05 49.75 1020.58 49.75ZM1028.24 45.8182V51H1026.54V42.2727H1028.17V43.6932H1028.28C1028.48 43.2311 1028.79 42.8598 1029.22 42.5795C1029.65 42.2992 1030.2 42.1591 1030.85 42.1591C1031.45 42.1591 1031.97 42.2841 1032.42 42.5341C1032.86 42.7803 1033.21 43.1477 1033.46 43.6364C1033.7 44.125 1033.82 44.7292 1033.82 45.4489V51H1032.13V45.6534C1032.13 45.0208 1031.96 44.5265 1031.63 44.1705C1031.3 43.8106 1030.85 43.6307 1030.27 43.6307C1029.88 43.6307 1029.53 43.7159 1029.22 43.8864C1028.92 44.0568 1028.68 44.3068 1028.5 44.6364C1028.33 44.9621 1028.24 45.3561 1028.24 45.8182ZM1042.64 44.4034L1041.1 44.6761C1041.04 44.4792 1040.94 44.2917 1040.8 44.1136C1040.66 43.9356 1040.47 43.7898 1040.24 43.6761C1040 43.5625 1039.71 43.5057 1039.36 43.5057C1038.88 43.5057 1038.48 43.6136 1038.15 43.8295C1037.83 44.0417 1037.67 44.3163 1037.67 44.6534C1037.67 44.9451 1037.78 45.1799 1038 45.358C1038.21 45.536 1038.56 45.6818 1039.04 45.7955L1040.43 46.1136C1041.23 46.2992 1041.83 46.5852 1042.22 46.9716C1042.62 47.358 1042.81 47.8598 1042.81 48.4773C1042.81 49 1042.66 49.4659 1042.36 49.875C1042.06 50.2803 1041.64 50.5985 1041.1 50.8295C1040.57 51.0606 1039.95 51.1761 1039.25 51.1761C1038.27 51.1761 1037.47 50.9678 1036.85 50.5511C1036.24 50.1307 1035.86 49.5341 1035.72 48.7614L1037.36 48.5114C1037.46 48.9394 1037.67 49.2633 1037.99 49.483C1038.31 49.6989 1038.72 49.8068 1039.23 49.8068C1039.79 49.8068 1040.24 49.6913 1040.57 49.4602C1040.9 49.2254 1041.07 48.9394 1041.07 48.6023C1041.07 48.3295 1040.97 48.1004 1040.76 47.9148C1040.56 47.7292 1040.25 47.589 1039.84 47.4943L1038.36 47.1705C1037.54 46.9848 1036.94 46.6894 1036.55 46.2841C1036.17 45.8788 1035.97 45.3655 1035.97 44.7443C1035.97 44.2292 1036.12 43.7784 1036.4 43.392C1036.69 43.0057 1037.09 42.7045 1037.6 42.4886C1038.1 42.2689 1038.69 42.1591 1039.34 42.1591C1040.28 42.1591 1041.03 42.3636 1041.57 42.7727C1042.11 43.178 1042.47 43.7216 1042.64 44.4034Z" fill="#111827"/>
<path d="M1065 43L1060 48L1055 43" stroke="#111827" stroke-width="1.39167" stroke-linecap="round" stroke-linejoin="round"/>
<path d="M1099.1 51H1095.33V39.3636H1099.22C1100.36 39.3636 1101.34 39.5966 1102.16 40.0625C1102.98 40.5246 1103.6 41.1894 1104.04 42.0568C1104.48 42.9205 1104.7 43.9564 1104.7 45.1648C1104.7 46.3769 1104.48 47.4186 1104.03 48.2898C1103.59 49.161 1102.96 49.8314 1102.12 50.3011C1101.29 50.767 1100.28 51 1099.1 51ZM1097.09 49.4659H1099C1099.89 49.4659 1100.63 49.2992 1101.21 48.9659C1101.8 48.6288 1102.24 48.142 1102.53 47.5057C1102.82 46.8655 1102.97 46.0852 1102.97 45.1648C1102.97 44.2519 1102.82 43.4773 1102.53 42.8409C1102.24 42.2045 1101.81 41.7216 1101.24 41.392C1100.67 41.0625 1099.96 40.8977 1099.11 40.8977H1097.09V49.4659ZM1110.42 51.1761C1109.6 51.1761 1108.89 50.9886 1108.28 50.6136C1107.67 50.2386 1107.19 49.714 1106.86 49.0398C1106.52 48.3655 1106.35 47.5777 1106.35 46.6761C1106.35 45.7708 1106.52 44.9792 1106.86 44.3011C1107.19 43.6231 1107.67 43.0966 1108.28 42.7216C1108.89 42.3466 1109.6 42.1591 1110.42 42.1591C1111.24 42.1591 1111.95 42.3466 1112.56 42.7216C1113.17 43.0966 1113.65 43.6231 1113.98 44.3011C1114.32 44.9792 1114.49 45.7708 1114.49 46.6761C1114.49 47.5777 1114.32 48.3655 1113.98 49.0398C1113.65 49.714 1113.17 50.2386 1112.56 50.6136C1111.95 50.9886 1111.24 51.1761 1110.42 51.1761ZM1110.43 49.75C1110.96 49.75 1111.4 49.6098 1111.74 49.3295C1112.09 49.0492 1112.35 48.6761 1112.52 48.2102C1112.69 47.7443 1112.77 47.2311 1112.77 46.6705C1112.77 46.1136 1112.69 45.6023 1112.52 45.1364C1112.35 44.6667 1112.09 44.2898 1111.74 44.0057C1111.4 43.7216 1110.96 43.5795 1110.43 43.5795C1109.89 43.5795 1109.45 43.7216 1109.1 44.0057C1108.75 44.2898 1108.49 44.6667 1108.32 45.1364C1108.15 45.6023 1108.07 46.1136 1108.07 46.6705C1108.07 47.2311 1108.15 47.7443 1108.32 48.2102C1108.49 48.6761 1108.75 49.0492 1109.1 49.3295C1109.45 49.6098 1109.89 49.75 1110.43 49.75ZM1120.06 51.1761C1119.22 51.1761 1118.49 50.9848 1117.88 50.6023C1117.27 50.2159 1116.81 49.6837 1116.48 49.0057C1116.16 48.3277 1115.99 47.5511 1115.99 46.6761C1115.99 45.7898 1116.16 45.0076 1116.49 44.3295C1116.83 43.6477 1117.3 43.1155 1117.9 42.733C1118.51 42.3504 1119.22 42.1591 1120.04 42.1591C1120.71 42.1591 1121.3 42.2822 1121.82 42.5284C1122.33 42.7708 1122.75 43.1117 1123.07 43.5511C1123.39 43.9905 1123.58 44.5038 1123.65 45.0909H1121.99C1121.9 44.6818 1121.69 44.3295 1121.37 44.0341C1121.05 43.7386 1120.61 43.5909 1120.07 43.5909C1119.6 43.5909 1119.18 43.7159 1118.83 43.9659C1118.48 44.2121 1118.2 44.5644 1118 45.0227C1117.81 45.4773 1117.71 46.0152 1117.71 46.6364C1117.71 47.2727 1117.8 47.822 1118 48.2841C1118.19 48.7462 1118.46 49.1042 1118.82 49.358C1119.17 49.6117 1119.59 49.7386 1120.07 49.7386C1120.39 49.7386 1120.69 49.6799 1120.95 49.5625C1121.21 49.4413 1121.43 49.2689 1121.61 49.0455C1121.79 48.822 1121.92 48.553 1121.99 48.2386H1123.65C1123.58 48.803 1123.4 49.3068 1123.09 49.75C1122.79 50.1932 1122.38 50.5417 1121.86 50.7955C1121.35 51.0492 1120.75 51.1761 1120.06 51.1761ZM1130.99 47.3807V42.2727H1132.7V51H1131.02V49.4886H1130.93C1130.73 49.9545 1130.41 50.3428 1129.97 50.6534C1129.53 50.9602 1128.98 51.1136 1128.33 51.1136C1127.77 51.1136 1127.27 50.9905 1126.84 50.7443C1126.41 50.4943 1126.07 50.125 1125.83 49.6364C1125.58 49.1477 1125.46 48.5436 1125.46 47.8239V42.2727H1127.16V47.6193C1127.16 48.214 1127.33 48.6875 1127.66 49.0398C1127.99 49.392 1128.41 49.5682 1128.94 49.5682C1129.26 49.5682 1129.57 49.4886 1129.89 49.3295C1130.21 49.1705 1130.47 48.9299 1130.68 48.608C1130.89 48.286 1130.99 47.8769 1130.99 47.3807ZM1134.98 51V42.2727H1136.61V43.6932H1136.72C1136.9 43.2121 1137.2 42.8371 1137.61 42.5682C1138.02 42.2955 1138.52 42.1591 1139.09 42.1591C1139.67 42.1591 1140.16 42.2955 1140.56 42.5682C1140.96 42.8409 1141.25 43.2159 1141.44 43.6932H1141.53C1141.74 43.2273 1142.07 42.8561 1142.52 42.5795C1142.98 42.2992 1143.52 42.1591 1144.15 42.1591C1144.94 42.1591 1145.59 42.4072 1146.09 42.9034C1146.59 43.3996 1146.84 44.1477 1146.84 45.1477V51H1145.14V45.3068C1145.14 44.7159 1144.98 44.2879 1144.66 44.0227C1144.34 43.7576 1143.95 43.625 1143.51 43.625C1142.95 43.625 1142.52 43.7955 1142.22 44.1364C1141.91 44.4735 1141.76 44.9072 1141.76 45.4375V51H1140.06V45.1989C1140.06 44.7254 1139.92 44.3447 1139.62 44.0568C1139.32 43.7689 1138.94 43.625 1138.47 43.625C1138.14 43.625 1137.85 43.7102 1137.57 43.8807C1137.31 44.0473 1137.09 44.2803 1136.92 44.5795C1136.76 44.8788 1136.68 45.2254 1136.68 45.6193V51H1134.98ZM1152.88 51.1761C1152.02 51.1761 1151.28 50.9924 1150.66 50.625C1150.04 50.2538 1149.56 49.733 1149.23 49.0625C1148.89 48.3883 1148.73 47.5985 1148.73 46.6932C1148.73 45.7992 1148.89 45.0114 1149.23 44.3295C1149.56 43.6477 1150.03 43.1155 1150.64 42.733C1151.24 42.3504 1151.95 42.1591 1152.76 42.1591C1153.25 42.1591 1153.73 42.2405 1154.19 42.4034C1154.65 42.5663 1155.07 42.822 1155.44 43.1705C1155.8 43.5189 1156.09 43.9716 1156.31 44.5284C1156.52 45.0814 1156.62 45.7538 1156.62 46.5455V47.1477H1149.69V45.875H1154.96C1154.96 45.428 1154.87 45.0322 1154.69 44.6875C1154.5 44.339 1154.25 44.0644 1153.92 43.8636C1153.59 43.6629 1153.21 43.5625 1152.77 43.5625C1152.29 43.5625 1151.88 43.6799 1151.52 43.9148C1151.17 44.1458 1150.9 44.4489 1150.7 44.8239C1150.51 45.1951 1150.42 45.5985 1150.42 46.0341V47.0284C1150.42 47.6117 1150.52 48.108 1150.73 48.517C1150.93 48.9261 1151.22 49.2386 1151.6 49.4545C1151.97 49.6667 1152.4 49.7727 1152.9 49.7727C1153.22 49.7727 1153.51 49.7273 1153.78 49.6364C1154.04 49.5417 1154.27 49.4015 1154.47 49.2159C1154.66 49.0303 1154.81 48.8011 1154.91 48.5284L1156.52 48.8182C1156.39 49.2917 1156.16 49.7064 1155.82 50.0625C1155.49 50.4148 1155.08 50.6894 1154.58 50.8864C1154.08 51.0795 1153.52 51.1761 1152.88 51.1761ZM1160.21 45.8182V51H1158.51V42.2727H1160.14V43.6932H1160.25C1160.45 43.2311 1160.76 42.8598 1161.19 42.5795C1161.62 42.2992 1162.17 42.1591 1162.82 42.1591C1163.42 42.1591 1163.94 42.2841 1164.38 42.5341C1164.83 42.7803 1165.18 43.1477 1165.42 43.6364C1165.67 44.125 1165.79 44.7292 1165.79 45.4489V51H1164.09V45.6534C1164.09 45.0208 1163.93 44.5265 1163.6 44.1705C1163.27 43.8106 1162.82 43.6307 1162.24 43.6307C1161.85 43.6307 1161.5 43.7159 1161.19 43.8864C1160.89 44.0568 1160.65 44.3068 1160.47 44.6364C1160.3 44.9621 1160.21 45.3561 1160.21 45.8182ZM1172.15 42.2727V43.6364H1167.38V42.2727H1172.15ZM1168.66 40.1818H1170.36V48.4375C1170.36 48.767 1170.41 49.0152 1170.5 49.1818C1170.6 49.3447 1170.73 49.4564 1170.88 49.517C1171.04 49.5739 1171.22 49.6023 1171.4 49.6023C1171.54 49.6023 1171.66 49.5928 1171.76 49.5739C1171.86 49.5549 1171.94 49.5398 1172 49.5284L1172.3 50.9318C1172.21 50.9697 1172.07 51.0076 1171.88 51.0455C1171.7 51.0871 1171.48 51.1098 1171.2 51.1136C1170.76 51.1212 1170.34 51.0417 1169.95 50.875C1169.57 50.7083 1169.25 50.4508 1169.01 50.1023C1168.78 49.7538 1168.66 49.3163 1168.66 48.7898V40.1818ZM1177.2 51.1705C1176.49 51.1705 1175.86 50.9905 1175.31 50.6307C1174.76 50.267 1174.33 49.75 1174.02 49.0795C1173.71 48.4053 1173.55 47.5966 1173.55 46.6534C1173.55 45.7102 1173.71 44.9034 1174.02 44.233C1174.34 43.5625 1174.78 43.0492 1175.33 42.6932C1175.88 42.3371 1176.51 42.1591 1177.21 42.1591C1177.75 42.1591 1178.19 42.25 1178.52 42.4318C1178.85 42.6098 1179.11 42.8182 1179.29 43.0568C1179.47 43.2955 1179.62 43.5057 1179.72 43.6875H1179.82V42.2727H1181.52V51H1179.86V49.642H1179.72C1179.62 49.8277 1179.47 50.0398 1179.28 50.2784C1179.09 50.517 1178.83 50.7254 1178.49 50.9034C1178.16 51.0814 1177.73 51.1705 1177.2 51.1705ZM1177.57 49.7216C1178.06 49.7216 1178.47 49.5928 1178.81 49.3352C1179.15 49.0739 1179.41 48.7121 1179.58 48.25C1179.76 47.7879 1179.85 47.25 1179.85 46.6364C1179.85 46.0303 1179.76 45.5 1179.59 45.0455C1179.42 44.5909 1179.16 44.2367 1178.82 43.983C1178.49 43.7292 1178.07 43.6023 1177.57 43.6023C1177.06 43.6023 1176.64 43.7348 1176.29 44C1175.95 44.2652 1175.7 44.6269 1175.52 45.0852C1175.35 45.5436 1175.27 46.0606 1175.27 46.6364C1175.27 47.2197 1175.35 47.7443 1175.53 48.2102C1175.7 48.6761 1175.96 49.0455 1176.3 49.3182C1176.65 49.5871 1177.07 49.7216 1177.57 49.7216ZM1188.02 42.2727V43.6364H1183.25V42.2727H1188.02ZM1184.53 40.1818H1186.23V48.4375C1186.23 48.767 1186.28 49.0152 1186.38 49.1818C1186.48 49.3447 1186.6 49.4564 1186.76 49.517C1186.92 49.5739 1187.09 49.6023 1187.28 49.6023C1187.41 49.6023 1187.53 49.5928 1187.63 49.5739C1187.74 49.5549 1187.82 49.5398 1187.87 49.5284L1188.18 50.9318C1188.08 50.9697 1187.94 51.0076 1187.76 51.0455C1187.58 51.0871 1187.35 51.1098 1187.08 51.1136C1186.63 51.1212 1186.21 51.0417 1185.83 50.875C1185.44 50.7083 1185.13 50.4508 1184.89 50.1023C1184.65 49.7538 1184.53 49.3163 1184.53 48.7898V40.1818ZM1189.9 51V42.2727H1191.6V51H1189.9ZM1190.76 40.9261C1190.46 40.9261 1190.21 40.8277 1190 40.6307C1189.79 40.4299 1189.68 40.1913 1189.68 39.9148C1189.68 39.6345 1189.79 39.3958 1190 39.1989C1190.21 38.9981 1190.46 38.8977 1190.76 38.8977C1191.05 38.8977 1191.31 38.9981 1191.51 39.1989C1191.73 39.3958 1191.83 39.6345 1191.83 39.9148C1191.83 40.1913 1191.73 40.4299 1191.51 40.6307C1191.31 40.8277 1191.05 40.9261 1190.76 40.9261ZM1197.56 51.1761C1196.74 51.1761 1196.03 50.9886 1195.42 50.6136C1194.81 50.2386 1194.33 49.714 1194 49.0398C1193.66 48.3655 1193.49 47.5777 1193.49 46.6761C1193.49 45.7708 1193.66 44.9792 1194 44.3011C1194.33 43.6231 1194.81 43.0966 1195.42 42.7216C1196.03 42.3466 1196.74 42.1591 1197.56 42.1591C1198.38 42.1591 1199.09 42.3466 1199.7 42.7216C1200.31 43.0966 1200.79 43.6231 1201.12 44.3011C1201.46 44.9792 1201.63 45.7708 1201.63 46.6761C1201.63 47.5777 1201.46 48.3655 1201.12 49.0398C1200.79 49.714 1200.31 50.2386 1199.7 50.6136C1199.09 50.9886 1198.38 51.1761 1197.56 51.1761ZM1197.57 49.75C1198.1 49.75 1198.54 49.6098 1198.88 49.3295C1199.23 49.0492 1199.49 48.6761 1199.66 48.2102C1199.83 47.7443 1199.91 47.2311 1199.91 46.6705C1199.91 46.1136 1199.83 45.6023 1199.66 45.1364C1199.49 44.6667 1199.23 44.2898 1198.88 44.0057C1198.54 43.7216 1198.1 43.5795 1197.57 43.5795C1197.03 43.5795 1196.59 43.7216 1196.24 44.0057C1195.89 44.2898 1195.63 44.6667 1195.46 45.1364C1195.29 45.6023 1195.21 46.1136 1195.21 46.6705C1195.21 47.2311 1195.29 47.7443 1195.46 48.2102C1195.63 48.6761 1195.89 49.0492 1196.24 49.3295C1196.59 49.6098 1197.03 49.75 1197.57 49.75ZM1205.22 45.8182V51H1203.52V42.2727H1205.16V43.6932H1205.26C1205.46 43.2311 1205.78 42.8598 1206.21 42.5795C1206.64 42.2992 1207.18 42.1591 1207.84 42.1591C1208.43 42.1591 1208.95 42.2841 1209.4 42.5341C1209.85 42.7803 1210.19 43.1477 1210.44 43.6364C1210.69 44.125 1210.81 44.7292 1210.81 45.4489V51H1209.11V45.6534C1209.11 45.0208 1208.95 44.5265 1208.62 44.1705C1208.29 43.8106 1207.83 43.6307 1207.26 43.6307C1206.86 43.6307 1206.51 43.7159 1206.21 43.8864C1205.9 44.0568 1205.66 44.3068 1205.49 44.6364C1205.31 44.9621 1205.22 45.3561 1205.22 45.8182Z" fill="#111827"/>
<path d="M1238.6 51H1236.73L1240.92 39.3636H1242.95L1247.14 51H1245.27L1241.98 41.4773H1241.89L1238.6 51ZM1238.91 46.4432H1244.96V47.9205H1238.91V46.4432ZM1248.82 51V39.3636H1250.52V43.6875H1250.62C1250.72 43.5057 1250.86 43.2955 1251.04 43.0568C1251.23 42.8182 1251.49 42.6098 1251.82 42.4318C1252.15 42.25 1252.58 42.1591 1253.12 42.1591C1253.83 42.1591 1254.46 42.3371 1255.01 42.6932C1255.56 43.0492 1256 43.5625 1256.31 44.233C1256.63 44.9034 1256.79 45.7102 1256.79 46.6534C1256.79 47.5966 1256.63 48.4053 1256.32 49.0795C1256 49.75 1255.57 50.267 1255.02 50.6307C1254.47 50.9905 1253.85 51.1705 1253.14 51.1705C1252.61 51.1705 1252.18 51.0814 1251.84 50.9034C1251.51 50.7254 1251.25 50.517 1251.06 50.2784C1250.87 50.0398 1250.72 49.8277 1250.62 49.642H1250.48V51H1248.82ZM1250.48 46.6364C1250.48 47.25 1250.57 47.7879 1250.75 48.25C1250.93 48.7121 1251.18 49.0739 1251.52 49.3352C1251.86 49.5928 1252.27 49.7216 1252.76 49.7216C1253.27 49.7216 1253.69 49.5871 1254.03 49.3182C1254.37 49.0455 1254.63 48.6761 1254.81 48.2102C1254.98 47.7443 1255.07 47.2197 1255.07 46.6364C1255.07 46.0606 1254.99 45.5436 1254.81 45.0852C1254.64 44.6269 1254.38 44.2652 1254.04 44C1253.7 43.7348 1253.27 43.6023 1252.76 43.6023C1252.27 43.6023 1251.85 43.7292 1251.51 43.983C1251.17 44.2367 1250.92 44.5909 1250.74 45.0455C1250.57 45.5 1250.48 46.0303 1250.48 46.6364ZM1262.37 51.1761C1261.55 51.1761 1260.84 50.9886 1260.23 50.6136C1259.62 50.2386 1259.15 49.714 1258.81 49.0398C1258.47 48.3655 1258.3 47.5777 1258.3 46.6761C1258.3 45.7708 1258.47 44.9792 1258.81 44.3011C1259.15 43.6231 1259.62 43.0966 1260.23 42.7216C1260.84 42.3466 1261.55 42.1591 1262.37 42.1591C1263.19 42.1591 1263.91 42.3466 1264.51 42.7216C1265.12 43.0966 1265.6 43.6231 1265.94 44.3011C1266.27 44.9792 1266.44 45.7708 1266.44 46.6761C1266.44 47.5777 1266.27 48.3655 1265.94 49.0398C1265.6 49.714 1265.12 50.2386 1264.51 50.6136C1263.91 50.9886 1263.19 51.1761 1262.37 51.1761ZM1262.38 49.75C1262.91 49.75 1263.35 49.6098 1263.7 49.3295C1264.05 49.0492 1264.3 48.6761 1264.47 48.2102C1264.64 47.7443 1264.73 47.2311 1264.73 46.6705C1264.73 46.1136 1264.64 45.6023 1264.47 45.1364C1264.3 44.6667 1264.05 44.2898 1263.7 44.0057C1263.35 43.7216 1262.91 43.5795 1262.38 43.5795C1261.84 43.5795 1261.4 43.7216 1261.05 44.0057C1260.7 44.2898 1260.44 44.6667 1260.27 45.1364C1260.1 45.6023 1260.02 46.1136 1260.02 46.6705C1260.02 47.2311 1260.1 47.7443 1260.27 48.2102C1260.44 48.6761 1260.7 49.0492 1261.05 49.3295C1261.4 49.6098 1261.84 49.75 1262.38 49.75ZM1273.87 47.3807V42.2727H1275.57V51H1273.9V49.4886H1273.81C1273.61 49.9545 1273.29 50.3428 1272.84 50.6534C1272.4 50.9602 1271.86 51.1136 1271.2 51.1136C1270.64 51.1136 1270.14 50.9905 1269.71 50.7443C1269.28 50.4943 1268.95 50.125 1268.7 49.6364C1268.46 49.1477 1268.34 48.5436 1268.34 47.8239V42.2727H1270.04V47.6193C1270.04 48.214 1270.2 48.6875 1270.53 49.0398C1270.86 49.392 1271.29 49.5682 1271.81 49.5682C1272.13 49.5682 1272.45 49.4886 1272.76 49.3295C1273.08 49.1705 1273.34 48.9299 1273.55 48.608C1273.77 48.286 1273.87 47.8769 1273.87 47.3807ZM1281.93 42.2727V43.6364H1277.16V42.2727H1281.93ZM1278.44 40.1818H1280.14V48.4375C1280.14 48.767 1280.19 49.0152 1280.28 49.1818C1280.38 49.3447 1280.51 49.4564 1280.67 49.517C1280.82 49.5739 1281 49.6023 1281.18 49.6023C1281.32 49.6023 1281.44 49.5928 1281.54 49.5739C1281.64 49.5549 1281.72 49.5398 1281.78 49.5284L1282.09 50.9318C1281.99 50.9697 1281.85 51.0076 1281.67 51.0455C1281.48 51.0871 1281.26 51.1098 1280.98 51.1136C1280.54 51.1212 1280.12 51.0417 1279.73 50.875C1279.35 50.7083 1279.03 50.4508 1278.8 50.1023C1278.56 49.7538 1278.44 49.3163 1278.44 48.7898V40.1818Z" fill="#111827"/>
<rect x="1323" y="23" width="1" height="44" fill="#D1D5DB"/>
<g filter="url(#filter0_d_8_687)">
<rect x="1364" y="25" width="83" height="40" rx="6" fill="white"/>
<rect x="1364.5" y="25.5" width="82" height="39" rx="5.5" stroke="#D1D5DB"/>
<path d="M1385.73 51V39.3636H1387.49V49.4886H1392.76V51H1385.73ZM1398.3 51.1761C1397.48 51.1761 1396.77 50.9886 1396.16 50.6136C1395.55 50.2386 1395.08 49.714 1394.74 49.0398C1394.4 48.3655 1394.23 47.5777 1394.23 46.6761C1394.23 45.7708 1394.4 44.9792 1394.74 44.3011C1395.08 43.6231 1395.55 43.0966 1396.16 42.7216C1396.77 42.3466 1397.48 42.1591 1398.3 42.1591C1399.12 42.1591 1399.83 42.3466 1400.44 42.7216C1401.05 43.0966 1401.53 43.6231 1401.87 44.3011C1402.2 44.9792 1402.37 45.7708 1402.37 46.6761C1402.37 47.5777 1402.2 48.3655 1401.87 49.0398C1401.53 49.714 1401.05 50.2386 1400.44 50.6136C1399.83 50.9886 1399.12 51.1761 1398.3 51.1761ZM1398.31 49.75C1398.84 49.75 1399.28 49.6098 1399.63 49.3295C1399.97 49.0492 1400.23 48.6761 1400.4 48.2102C1400.57 47.7443 1400.65 47.2311 1400.65 46.6705C1400.65 46.1136 1400.57 45.6023 1400.4 45.1364C1400.23 44.6667 1399.97 44.2898 1399.63 44.0057C1399.28 43.7216 1398.84 43.5795 1398.31 43.5795C1397.77 43.5795 1397.33 43.7216 1396.98 44.0057C1396.63 44.2898 1396.37 44.6667 1396.2 45.1364C1396.03 45.6023 1395.95 46.1136 1395.95 46.6705C1395.95 47.2311 1396.03 47.7443 1396.2 48.2102C1396.37 48.6761 1396.63 49.0492 1396.98 49.3295C1397.33 49.6098 1397.77 49.75 1398.31 49.75ZM1407.93 54.4545C1407.23 54.4545 1406.64 54.3636 1406.14 54.1818C1405.64 54 1405.23 53.7595 1404.92 53.4602C1404.61 53.161 1404.37 52.8333 1404.22 52.4773L1405.68 51.875C1405.78 52.0417 1405.91 52.2178 1406.09 52.4034C1406.26 52.5928 1406.49 52.7538 1406.79 52.8864C1407.09 53.0189 1407.47 53.0852 1407.94 53.0852C1408.59 53.0852 1409.12 52.928 1409.54 52.6136C1409.96 52.303 1410.17 51.8068 1410.17 51.125V49.4091H1410.06C1409.96 49.5947 1409.81 49.8011 1409.62 50.0284C1409.43 50.2557 1409.17 50.4527 1408.84 50.6193C1408.5 50.786 1408.07 50.8693 1407.53 50.8693C1406.84 50.8693 1406.22 50.7083 1405.67 50.3864C1405.12 50.0606 1404.69 49.5814 1404.36 48.9489C1404.05 48.3125 1403.89 47.5303 1403.89 46.6023C1403.89 45.6742 1404.04 44.8788 1404.36 44.2159C1404.68 43.553 1405.11 43.0455 1405.66 42.6932C1406.22 42.3371 1406.84 42.1591 1407.55 42.1591C1408.09 42.1591 1408.52 42.25 1408.86 42.4318C1409.19 42.6098 1409.45 42.8182 1409.64 43.0568C1409.83 43.2955 1409.97 43.5057 1410.07 43.6875H1410.2V42.2727H1411.86V51.1932C1411.86 51.9432 1411.69 52.5587 1411.34 53.0398C1410.99 53.5208 1410.52 53.8769 1409.93 54.108C1409.34 54.339 1408.67 54.4545 1407.93 54.4545ZM1407.91 49.4602C1408.4 49.4602 1408.81 49.3466 1409.15 49.1193C1409.49 48.8883 1409.75 48.5587 1409.92 48.1307C1410.1 47.6989 1410.19 47.1818 1410.19 46.5795C1410.19 45.9924 1410.1 45.4754 1409.93 45.0284C1409.75 44.5814 1409.5 44.233 1409.16 43.983C1408.82 43.7292 1408.41 43.6023 1407.91 43.6023C1407.4 43.6023 1406.97 43.7348 1406.63 44C1406.29 44.2614 1406.03 44.6174 1405.86 45.0682C1405.69 45.5189 1405.6 46.0227 1405.6 46.5795C1405.6 47.1515 1405.69 47.6534 1405.86 48.0852C1406.04 48.517 1406.3 48.8542 1406.64 49.0966C1406.98 49.339 1407.41 49.4602 1407.91 49.4602ZM1414.14 51V42.2727H1415.84V51H1414.14ZM1415 40.9261C1414.7 40.9261 1414.45 40.8277 1414.24 40.6307C1414.03 40.4299 1413.93 40.1913 1413.93 39.9148C1413.93 39.6345 1414.03 39.3958 1414.24 39.1989C1414.45 38.9981 1414.7 38.8977 1415 38.8977C1415.3 38.8977 1415.55 38.9981 1415.76 39.1989C1415.97 39.3958 1416.07 39.6345 1416.07 39.9148C1416.07 40.1913 1415.97 40.4299 1415.76 40.6307C1415.55 40.8277 1415.3 40.9261 1415 40.9261ZM1419.83 45.8182V51H1418.13V42.2727H1419.76V43.6932H1419.87C1420.07 43.2311 1420.38 42.8598 1420.81 42.5795C1421.24 42.2992 1421.78 42.1591 1422.44 42.1591C1423.03 42.1591 1423.55 42.2841 1424 42.5341C1424.45 42.7803 1424.79 43.1477 1425.04 43.6364C1425.29 44.125 1425.41 44.7292 1425.41 45.4489V51H1423.71V45.6534C1423.71 45.0208 1423.55 44.5265 1423.22 44.1705C1422.89 43.8106 1422.44 43.6307 1421.86 43.6307C1421.47 43.6307 1421.12 43.7159 1420.81 43.8864C1420.51 44.0568 1420.26 44.3068 1420.09 44.6364C1419.91 44.9621 1419.83 45.3561 1419.83 45.8182Z" fill="#374151"/>
</g>
<rect x="1459" y="25" width="98" height="40" rx="6" fill="#566FA7"/>
<path d="M1486.95 42.4205C1486.89 41.8826 1486.64 41.4659 1486.2 41.1705C1485.76 40.8712 1485.21 40.7216 1484.54 40.7216C1484.07 40.7216 1483.65 40.7973 1483.31 40.9489C1482.96 41.0966 1482.69 41.3011 1482.49 41.5625C1482.3 41.8201 1482.21 42.1136 1482.21 42.4432C1482.21 42.7197 1482.27 42.9583 1482.4 43.1591C1482.53 43.3598 1482.71 43.5284 1482.92 43.6648C1483.13 43.7973 1483.37 43.9091 1483.61 44C1483.86 44.0871 1484.1 44.1591 1484.32 44.2159L1485.46 44.5114C1485.83 44.6023 1486.21 44.7254 1486.6 44.8807C1486.99 45.036 1487.35 45.2405 1487.69 45.4943C1488.02 45.7481 1488.29 46.0625 1488.49 46.4375C1488.7 46.8125 1488.81 47.2614 1488.81 47.7841C1488.81 48.4432 1488.63 49.0284 1488.29 49.5398C1487.96 50.0511 1487.47 50.4545 1486.82 50.75C1486.18 51.0455 1485.41 51.1932 1484.5 51.1932C1483.63 51.1932 1482.87 51.0549 1482.24 50.7784C1481.6 50.5019 1481.1 50.1098 1480.74 49.6023C1480.38 49.0909 1480.18 48.4848 1480.15 47.7841H1481.91C1481.94 48.2045 1482.08 48.5549 1482.32 48.8352C1482.56 49.1117 1482.87 49.3182 1483.24 49.4545C1483.62 49.5871 1484.04 49.6534 1484.49 49.6534C1484.98 49.6534 1485.42 49.5758 1485.81 49.4205C1486.2 49.2614 1486.51 49.0417 1486.73 48.7614C1486.96 48.4773 1487.07 48.1458 1487.07 47.767C1487.07 47.4223 1486.97 47.1402 1486.77 46.9205C1486.58 46.7008 1486.31 46.5189 1485.98 46.375C1485.65 46.2311 1485.28 46.1042 1484.86 45.9943L1483.49 45.6193C1482.56 45.3655 1481.82 44.9924 1481.27 44.5C1480.73 44.0076 1480.46 43.3561 1480.46 42.5455C1480.46 41.875 1480.64 41.2898 1481 40.7898C1481.37 40.2898 1481.86 39.9015 1482.48 39.625C1483.1 39.3447 1483.8 39.2045 1484.58 39.2045C1485.37 39.2045 1486.07 39.3428 1486.67 39.6193C1487.28 39.8958 1487.75 40.2765 1488.1 40.7614C1488.45 41.2424 1488.63 41.7955 1488.65 42.4205H1486.95ZM1490.77 51V42.2727H1492.47V51H1490.77ZM1491.62 40.9261C1491.33 40.9261 1491.08 40.8277 1490.86 40.6307C1490.66 40.4299 1490.55 40.1913 1490.55 39.9148C1490.55 39.6345 1490.66 39.3958 1490.86 39.1989C1491.08 38.9981 1491.33 38.8977 1491.62 38.8977C1491.92 38.8977 1492.17 38.9981 1492.38 39.1989C1492.59 39.3958 1492.7 39.6345 1492.7 39.9148C1492.7 40.1913 1492.59 40.4299 1492.38 40.6307C1492.17 40.8277 1491.92 40.9261 1491.62 40.9261ZM1498.41 54.4545C1497.72 54.4545 1497.12 54.3636 1496.62 54.1818C1496.12 54 1495.72 53.7595 1495.4 53.4602C1495.09 53.161 1494.86 52.8333 1494.7 52.4773L1496.16 51.875C1496.26 52.0417 1496.4 52.2178 1496.57 52.4034C1496.74 52.5928 1496.98 52.7538 1497.27 52.8864C1497.57 53.0189 1497.96 53.0852 1498.43 53.0852C1499.07 53.0852 1499.6 52.928 1500.02 52.6136C1500.44 52.303 1500.65 51.8068 1500.65 51.125V49.4091H1500.55C1500.44 49.5947 1500.3 49.8011 1500.1 50.0284C1499.91 50.2557 1499.65 50.4527 1499.32 50.6193C1498.99 50.786 1498.55 50.8693 1498.02 50.8693C1497.33 50.8693 1496.71 50.7083 1496.15 50.3864C1495.61 50.0606 1495.17 49.5814 1494.85 48.9489C1494.53 48.3125 1494.37 47.5303 1494.37 46.6023C1494.37 45.6742 1494.53 44.8788 1494.84 44.2159C1495.16 43.553 1495.6 43.0455 1496.15 42.6932C1496.7 42.3371 1497.33 42.1591 1498.03 42.1591C1498.57 42.1591 1499.01 42.25 1499.34 42.4318C1499.68 42.6098 1499.94 42.8182 1500.12 43.0568C1500.31 43.2955 1500.46 43.5057 1500.56 43.6875H1500.68V42.2727H1502.35V51.1932C1502.35 51.9432 1502.17 52.5587 1501.83 53.0398C1501.48 53.5208 1501.01 53.8769 1500.41 54.108C1499.82 54.339 1499.15 54.4545 1498.41 54.4545ZM1498.39 49.4602C1498.88 49.4602 1499.29 49.3466 1499.63 49.1193C1499.97 48.8883 1500.23 48.5587 1500.4 48.1307C1500.58 47.6989 1500.67 47.1818 1500.67 46.5795C1500.67 45.9924 1500.58 45.4754 1500.41 45.0284C1500.24 44.5814 1499.98 44.233 1499.64 43.983C1499.31 43.7292 1498.89 43.6023 1498.39 43.6023C1497.88 43.6023 1497.46 43.7348 1497.12 44C1496.77 44.2614 1496.52 44.6174 1496.34 45.0682C1496.17 45.5189 1496.09 46.0227 1496.09 46.5795C1496.09 47.1515 1496.17 47.6534 1496.35 48.0852C1496.52 48.517 1496.78 48.8542 1497.12 49.0966C1497.47 49.339 1497.89 49.4602 1498.39 49.4602ZM1506.33 45.8182V51H1504.63V42.2727H1506.26V43.6932H1506.37C1506.57 43.2311 1506.88 42.8598 1507.31 42.5795C1507.74 42.2992 1508.28 42.1591 1508.94 42.1591C1509.53 42.1591 1510.05 42.2841 1510.5 42.5341C1510.95 42.7803 1511.29 43.1477 1511.54 43.6364C1511.79 44.125 1511.91 44.7292 1511.91 45.4489V51H1510.21V45.6534C1510.21 45.0208 1510.05 44.5265 1509.72 44.1705C1509.39 43.8106 1508.94 43.6307 1508.36 43.6307C1507.97 43.6307 1507.62 43.7159 1507.31 43.8864C1507.01 44.0568 1506.76 44.3068 1506.59 44.6364C1506.41 44.9621 1506.33 45.3561 1506.33 45.8182ZM1523.95 47.3807V42.2727H1525.66V51H1523.99V49.4886H1523.89C1523.69 49.9545 1523.37 50.3428 1522.93 50.6534C1522.49 50.9602 1521.94 51.1136 1521.29 51.1136C1520.73 51.1136 1520.23 50.9905 1519.8 50.7443C1519.37 50.4943 1519.03 50.125 1518.79 49.6364C1518.54 49.1477 1518.42 48.5436 1518.42 47.8239V42.2727H1520.12V47.6193C1520.12 48.214 1520.29 48.6875 1520.62 49.0398C1520.95 49.392 1521.37 49.5682 1521.9 49.5682C1522.22 49.5682 1522.54 49.4886 1522.85 49.3295C1523.17 49.1705 1523.43 48.9299 1523.64 48.608C1523.85 48.286 1523.96 47.8769 1523.95 47.3807ZM1527.94 54.2727V42.2727H1529.6V43.6875H1529.74C1529.84 43.5057 1529.98 43.2955 1530.17 43.0568C1530.35 42.8182 1530.61 42.6098 1530.94 42.4318C1531.27 42.25 1531.7 42.1591 1532.25 42.1591C1532.95 42.1591 1533.58 42.3371 1534.13 42.6932C1534.69 43.0492 1535.12 43.5625 1535.43 44.233C1535.75 44.9034 1535.91 45.7102 1535.91 46.6534C1535.91 47.5966 1535.75 48.4053 1535.44 49.0795C1535.12 49.75 1534.69 50.267 1534.14 50.6307C1533.59 50.9905 1532.97 51.1705 1532.26 51.1705C1531.73 51.1705 1531.3 51.0814 1530.96 50.9034C1530.63 50.7254 1530.37 50.517 1530.18 50.2784C1529.99 50.0398 1529.84 49.8277 1529.74 49.642H1529.64V54.2727H1527.94ZM1529.6 46.6364C1529.6 47.25 1529.69 47.7879 1529.87 48.25C1530.05 48.7121 1530.31 49.0739 1530.64 49.3352C1530.98 49.5928 1531.39 49.7216 1531.88 49.7216C1532.39 49.7216 1532.81 49.5871 1533.15 49.3182C1533.5 49.0455 1533.75 48.6761 1533.93 48.2102C1534.11 47.7443 1534.19 47.2197 1534.19 46.6364C1534.19 46.0606 1534.11 45.5436 1533.93 45.0852C1533.76 44.6269 1533.51 44.2652 1533.16 44C1532.82 43.7348 1532.39 43.6023 1531.88 43.6023C1531.39 43.6023 1530.97 43.7292 1530.63 43.983C1530.29 44.2367 1530.04 44.5909 1529.87 45.0455C1529.69 45.5 1529.6 46.0303 1529.6 46.6364Z" fill="white"/>
<defs>
<filter id="filter0_d_8_687" x="1362" y="24" width="87" height="44" filterUnits="userSpaceOnUse" color-interpolation-filters="sRGB">
<feFlood flood-opacity="0" result="BackgroundImageFix"/>
<feColorMatrix in="SourceAlpha" type="matrix" values="0 0 0 0 0 0 0 0 0 0 0 0 0 0 0 0 0 0 127 0" result="hardAlpha"/>
<feOffset dy="1"/>
<feGaussianBlur stdDeviation="1"/>
<feColorMatrix type="matrix" values="0 0 0 0 0.0627451 0 0 0 0 0.0941176 0 0 0 0 0.156863 0 0 0 0.05 0"/>
<feBlend mode="normal" in2="BackgroundImageFix" result="effect1_dropShadow_8_687"/>
<feBlend mode="normal" in="SourceGraphic" in2="effect1_dropShadow_8_687" result="shape"/>
</filter>
<clipPath id="clip0_8_687">
<rect width="565" height="753" fill="white" transform="translate(582 182)"/>
</clipPath>
</defs>
</svg>
