<svg width="1728" height="1117" viewBox="0 0 1728 1117" fill="none" xmlns="http://www.w3.org/2000/svg">
<rect width="1728" height="1117" fill="#FDFEFF"/>
<path d="M1014.42 548.04C1011.66 538.781 1004.51 531.71 991.289 533.506L928.128 541.936C920.54 542.712 917.656 535.212 924.763 533.195L977.289 517.59C997.568 512.107 1004.82 499.583 1005.13 485.094C1005.34 475.244 997.679 466.902 988.064 466.496C976.468 466.008 960.774 472.85 925.791 477.816C920.185 478.614 918.891 476.7 920.141 473.05C923.499 463.186 951.351 458.316 964.449 457.141C980.195 455.73 981.134 445.334 982.85 440.457C988.042 425.731 982.961 370.256 979.862 353.268C979.167 349.456 975.521 347.431 970.137 348.074C951.677 350.291 894.485 384.006 872.771 396.693C867.039 400.04 863.289 408.227 869.62 425.872C873.939 437.901 872.149 451.548 867.446 457.6C864.036 461.981 859.658 461.013 858.275 456.27C853.859 441.167 848.727 426.515 848.727 426.515C846.064 416.769 833.684 413.924 823.625 418.35C815.061 422.118 811.511 423.167 802.244 428.088C786.513 436.453 780.256 450.994 786.846 464.065L810.816 511.59C813.367 516.644 803.154 519.807 799.574 515.07L766.5 471.321C761.33 463.865 746.79 462.927 739.727 469.57C735.8 473.264 728.803 483.076 725.586 487.369C717.665 497.936 720.379 506.462 727.147 517.804L753.32 561.014C757.913 569.179 751.575 572.26 748.927 569.179C739.35 558.015 721.311 533.483 721.311 533.483C716.364 526.59 705.699 528.097 702.866 536.092C699.649 545.165 694.79 559.478 693.799 562.278L732.486 774.066L1009.79 772.108L1017.22 558.273C1016.35 554.83 1015.42 551.424 1014.42 548.04Z" fill="#74BAAB"/>
<path d="M759.053 675.705C756.08 675.83 754.786 673.547 757.219 671.84C758.787 670.747 760.059 669.808 760.51 669.373C765.088 664.902 765.199 660.794 764.082 656.25C760.984 643.652 753.521 631.822 748.492 626.857C745.349 623.754 740.053 624.153 737.058 627.396L736.23 628.29C734.388 630.285 731.26 627.862 732.731 625.586L739.898 614.473C741.754 611.591 742.132 607.986 740.896 604.786C728.257 572.223 714.079 561.066 701.336 553.064C695.959 549.687 688.852 552.473 687.277 558.621L677.24 597.7C676.072 602.252 669.297 601.025 669.8 596.356L674.267 554.837C674.689 550.308 673.772 544.995 669.933 542.55C660.903 536.794 643.981 533.417 630.373 532.745C626.949 532.575 624.087 535.309 624.146 538.737L624.73 571.743C624.575 577.204 617.549 575.992 616.632 570.605L610.375 538.205C609.199 533.831 605.996 530.646 601.537 529.811C581.642 526.058 562.132 525.119 549.618 526.774C540.188 528.016 538.169 537.599 539.656 544.537L546.416 577.071C547.91 581.969 549.795 584.29 554.832 585.213L589.363 591.213C594.903 591.678 595.088 596.74 589.592 597.56C573.758 599.924 558.567 601.897 548.841 603.7C545.824 604.262 543.546 606.774 543.317 609.833C542.821 616.409 541.601 623.731 547.066 629.99C552.85 636.603 581.146 639.751 607.601 645.056C611.499 645.839 611.994 649.053 608.156 650.088C608.156 650.088 574.032 655.053 562.457 661.363C554.61 665.634 554.055 669.616 554.47 677.788C554.721 682.673 555.786 690.579 556.807 697.347C557.931 704.817 564.077 710.521 571.621 711.075C571.621 711.075 601.722 713.019 611.484 715.849C617.978 717.733 612.845 721.974 609.583 723.563C600.908 727.782 584.452 736.094 584.452 736.094C576.628 739.767 573.344 748.027 573.307 756.665C573.285 762.517 574.209 774.191 574.209 774.191H770.546C770.546 774.191 777.868 728.114 769.282 680.323C768.764 677.456 766.198 675.424 763.291 675.55L759.053 675.705Z" fill="#93B4F6"/>
<path d="M620.928 759.945C616.143 742.242 683.534 722.661 694.68 773.511C682.587 773.534 689.421 773.511 674.274 773.511C650.985 759.051 624.412 772.846 620.928 759.945Z" fill="#274D76"/>
<path d="M615.137 695.914C614.36 690.815 618.738 686.301 623.753 685.104C657.374 677.101 661.671 701.692 665.687 706.45C668.527 709.812 676.337 707.78 680.508 712.708C683.215 715.908 679.983 725.639 683.141 730.043C686.61 734.875 691.846 730.929 695.958 736.996C699.56 742.308 692.194 747.998 694.583 753.739C697.719 761.283 708.605 758.158 702.444 772.403C697.171 772.381 696.099 772.366 696.099 772.366C696.099 772.366 680.849 770.519 682.69 759.103C683.467 754.308 671.02 757.751 668.046 753.325C665.672 749.793 669.378 746.483 664.999 744.71C662.285 743.609 652.308 745.05 649.594 739.301C647.523 734.927 653.025 729.599 646.465 727.922C631.755 724.154 618.731 719.573 615.137 695.914Z" fill="#FDFFFF"/>
<path d="M689.895 741.215C693.955 729.104 695.094 716.735 702.793 713.95C708.362 711.933 709.819 716.891 713.791 715.782C719.33 714.238 718.775 687.823 754.164 690.512C764.984 691.332 771.663 709.095 752.382 714.593C742.087 717.533 753.802 719.056 750.644 724.656C746.192 732.548 728.723 728.89 723.139 736.242C719.84 740.587 725.683 748.486 719.877 759.916C718.516 762.598 716.949 765.162 715.344 767.512C710.877 774.066 700.944 773.127 697.801 765.849C693.666 756.273 688.704 744.769 689.895 741.215Z" fill="#FDFFFF"/>
<path d="M693.503 762.835C689.288 748.005 687.239 732.843 687.661 719.218C688.26 700.081 693.673 685.104 703.31 675.912L706.372 679.119C688.519 696.135 689.362 732.385 698.015 762.458C698.969 765.739 694.524 766.433 693.503 762.835Z" fill="#FDFFFF"/>
<path d="M683.815 676.126L709.693 675.151L707.578 681.609L714.848 691.872C715.462 692.921 713.968 694.317 712.097 693.741C710.292 693.194 708.443 691.288 707.282 689.33C706.69 688.332 705.906 688.968 705.951 689.699C706.062 691.547 706.187 694.694 706.187 694.694C706.313 696.608 704.789 697.11 702.948 695.019C700.418 692.145 700.145 688.827 699.805 686.352C699.686 685.502 698.821 685.155 698.03 685.473C698.03 685.473 692.298 687.032 690.427 687.682C688.164 688.473 686.766 686.81 688.578 685.251C689.28 684.645 691.299 682.702 691.299 682.702C691.854 682.259 691.677 681.379 690.989 681.187L683.563 678.852C681.515 678.284 681.685 676.148 683.815 676.126Z" fill="#274D76"/>
<path d="M684.673 646.836L686.507 647.161C687.284 647.302 687.964 646.637 687.853 645.861L687.373 642.558C687.025 640.164 689.562 638.398 691.684 639.566L693.164 640.378C693.881 640.77 694.768 640.312 694.865 639.499L695.19 636.721C695.427 634.711 697.912 633.898 699.287 635.383L700.36 636.544C700.87 637.098 701.765 637.016 702.172 636.388L704.509 632.783C705.825 630.751 708.857 630.935 709.922 633.108L711.187 635.701C711.527 636.388 712.43 636.566 712.999 636.049L714.981 634.253C716.638 632.753 719.3 633.728 719.596 635.938L719.811 637.511C719.914 638.25 720.683 638.701 721.379 638.428L724.648 637.142C725.979 636.617 727.332 637.859 726.925 639.233L726.63 640.223C726.371 641.088 727.162 641.9 728.035 641.664L731.378 640.755C733.959 640.053 735.978 643.001 734.388 645.152L733.515 646.334C732.975 647.058 733.449 648.092 734.351 648.166L739.188 648.558C741.754 648.765 742.797 651.964 740.844 653.641L739.343 654.927C738.611 655.555 738.929 656.752 739.876 656.93L742.331 657.41C743.699 657.676 744.032 659.471 742.856 660.218L741.813 660.875C740.941 661.429 741.177 662.759 742.191 662.974L743.795 663.314C745.533 663.683 745.689 666.099 744.01 666.69L742.035 667.385C741.118 667.71 740.985 668.944 741.813 669.454L743.677 670.599C745.519 671.737 744.875 674.559 742.723 674.781L741.052 674.951C740.171 675.04 739.72 676.045 740.231 676.761L741.325 678.313C742.346 679.754 740.918 681.653 739.247 681.084L737.413 680.456C736.629 680.19 735.823 680.81 735.889 681.638L736.067 683.847C736.163 685.059 734.869 685.887 733.818 685.288L732.635 684.616C731.932 684.217 731.045 684.653 730.927 685.451L730.831 686.123C730.594 687.712 728.627 688.34 727.517 687.172L726.593 686.204C725.964 685.547 724.862 685.835 724.64 686.722L724.219 688.406C723.686 690.542 720.846 691.014 719.655 689.16L718.797 687.822C718.332 687.098 717.267 687.121 716.83 687.859L716.594 688.258C716.135 689.034 715.003 689.012 714.582 688.214C714.168 687.431 713.058 687.394 712.585 688.14L712.23 688.709C711.705 689.537 710.455 689.381 710.152 688.45L709.841 687.475C709.641 686.847 708.954 686.515 708.332 686.751L706.557 687.423C705.714 687.741 704.849 687.017 705.012 686.138L705.115 685.591C705.263 684.786 704.553 684.091 703.747 684.254L701.898 684.63C701.129 684.786 700.426 684.15 700.522 683.367L700.596 682.702C700.692 681.897 699.953 681.254 699.169 681.453L696.847 682.044C695.893 682.288 695.086 681.298 695.53 680.411L695.671 680.138C696.063 679.347 695.464 678.424 694.576 678.475L692.402 678.594C690.886 678.675 689.791 677.175 690.338 675.756L690.701 674.803C690.96 674.123 690.531 673.377 689.813 673.252L686.485 672.705C685.146 672.483 684.821 670.71 685.99 670.03C686.914 669.491 686.67 668.101 685.62 667.902L684 667.599C682.203 667.267 681.841 664.843 683.468 664.008L683.815 663.823C684.747 663.343 684.607 661.969 683.593 661.688L682.728 661.452C680.813 660.927 680.916 658.178 682.861 657.794C683.948 657.58 684.133 656.109 683.142 655.629L681.071 654.632C679.622 653.93 680.125 651.75 681.737 651.757L683.837 651.772C684.858 651.779 685.383 650.553 684.673 649.821L683.667 648.787C682.861 647.974 683.571 646.644 684.673 646.836Z" fill="#FFF3A1"/>
<path d="M717.742 671.553L716.263 671.557L716.294 681.599L717.773 681.594L717.742 671.553Z" fill="black"/>
<path d="M717.652 643.4L716.173 643.405L716.205 653.683L717.684 653.678L717.652 643.4Z" fill="black"/>
<path d="M723.126 670.022L722.008 670.99L729.71 679.868L730.828 678.9L723.126 670.022Z" fill="black"/>
<path d="M703.91 643.04L702.622 643.767L708.115 653.482L709.403 652.755L703.91 643.04Z" fill="black"/>
<path d="M731.603 649.326L721.62 655.675L722.414 656.921L732.397 650.573L731.603 649.326Z" fill="black"/>
<path d="M688.982 650.903L688.478 652.292L701.686 657.081L702.191 655.692L688.982 650.903Z" fill="black"/>
<path d="M723.82 663.556L723.608 665.019L738.079 667.112L738.291 665.65L723.82 663.556Z" fill="black"/>
<path d="M709.993 669.373L700.792 676.959L701.733 678.099L710.935 670.513L709.993 669.373Z" fill="black"/>
<path d="M707.247 662.158L686.55 665.014L686.752 666.478L707.449 663.622L707.247 662.158Z" fill="black"/>
<path d="M703.946 746.756L702.645 746.047C714.796 723.806 741.162 703.339 741.428 703.132L742.331 704.3C742.079 704.514 715.95 724.789 703.946 746.756Z" fill="black"/>
<path d="M678.098 740.956C661.886 717.91 648.766 709.457 640.083 703.864C639.063 703.206 638.094 702.585 637.191 701.98L638.012 700.753C638.907 701.352 639.869 701.972 640.889 702.622C649.668 708.275 662.936 716.824 679.311 740.106L678.098 740.956Z" fill="black"/>
<path d="M545.757 751.988L544.315 751.67C545.905 744.451 545.772 741.333 545.387 739.996C544.929 738.414 544.189 737.491 543.183 737.262C541.845 736.951 539.974 737.89 538.309 739.707C536.764 741.399 534.833 742.028 533.14 741.377C531.439 740.727 530.366 738.954 530.344 736.744C530.233 725.233 527.992 716.24 523.488 709.243C522.209 707.255 520.323 706.066 518.799 706.287C517.838 706.428 517.143 707.13 516.795 708.327C516.47 709.428 515.064 712.96 510.435 712.066C505.657 711.142 501.419 703.369 499.141 699.194C498.801 698.573 498.527 698.064 498.313 697.702C496.797 695.138 494.807 694.074 492.559 694.613C488.425 695.603 484.475 701.492 484.113 707.211C483.957 709.679 484.017 712.856 484.276 715.708L482.804 715.841C482.537 712.915 482.478 709.657 482.641 707.115C483.048 700.701 487.434 694.317 492.219 693.172C495.118 692.478 497.736 693.815 499.592 696.948C499.814 697.325 500.103 697.849 500.45 698.492C502.454 702.172 506.633 709.834 510.73 710.625C513.911 711.238 515.013 709.191 515.39 707.92C515.907 706.154 517.054 705.053 518.607 704.832C520.722 704.521 523.133 705.948 524.746 708.452C529.405 715.686 531.72 724.937 531.838 736.737C531.853 738.326 532.563 739.574 533.68 740.003C534.796 740.432 536.091 739.966 537.23 738.717C539.286 736.464 541.645 735.385 543.531 735.828C544.603 736.079 546.053 736.937 546.822 739.589C547.436 741.769 547.081 745.944 545.757 751.988Z" fill="black"/>
<path d="M523.229 767.992C522.49 740.402 512.165 719.949 512.062 719.743L513.378 719.07C513.482 719.277 523.961 740.01 524.708 767.955L523.229 767.992Z" fill="black"/>
<path d="M545.963 774.354C545.675 774.354 545.394 774.354 545.098 774.347L545.12 772.869C553.788 773.009 560.223 771.081 563.174 767.438C564.823 765.406 565.326 762.901 564.66 759.997C563.861 756.502 561.554 753.961 557.989 752.653C551.496 750.266 541.674 752.343 534.64 757.589C526.209 763.877 521.372 773.933 521.328 774.036L519.989 773.401C520.189 772.972 525.033 762.909 533.753 756.406C541.282 750.791 551.459 748.678 558.499 751.271C562.56 752.764 565.185 755.668 566.102 759.68C566.864 763.005 566.243 766.012 564.32 768.384C561.191 772.241 554.683 774.354 545.963 774.354Z" fill="black"/>
<path d="M519.923 773.792C518.451 760.16 514.872 751.596 512.121 746.808C509.155 741.636 506.5 739.648 506.47 739.626C505.716 739.087 505.102 738.85 504.74 738.961C504.251 739.116 503.926 740.04 503.638 740.845C503.283 741.857 502.942 742.811 502.099 743.143C501.641 743.32 501.138 743.269 500.605 742.981C499.4 742.338 498.971 741 498.335 738.968C497.196 735.37 495.295 729.348 487.204 720.459C484.978 718.013 477.183 710.159 470.497 711.873C468.729 712.324 467.465 713.469 467.117 714.925C466.74 716.477 465.342 717.481 463.781 717.304C461.563 717.053 456.038 716.78 452.732 719.499C451.164 720.792 450.277 722.624 450.092 724.952C449.471 732.754 459.521 736.22 467.605 739.005C471.628 740.387 475.097 741.584 476.547 743.136C477.257 743.889 477.294 744.636 477.197 745.123C476.813 747.14 473.44 748.744 470.734 750.03C469.765 750.488 468.855 750.924 468.448 751.219C467.235 752.098 466 753.709 466.525 755.364C466.925 756.65 469.069 759.672 480.2 759.894C490.222 760.101 496.242 763.684 499.526 766.655C503.12 769.906 504.303 773.098 504.355 773.231L502.965 773.733C502.92 773.615 498.357 761.734 480.171 761.364C469.092 761.135 465.867 758.209 465.113 755.793C464.491 753.813 465.46 751.537 467.583 750.007C468.101 749.638 468.981 749.217 470.105 748.685C472.124 747.724 475.511 746.113 475.748 744.835C475.777 744.68 475.77 744.458 475.467 744.133C474.269 742.848 470.8 741.658 467.124 740.387C459.011 737.594 447.903 733.767 448.62 724.819C448.842 722.077 449.907 719.905 451.793 718.346C455.402 715.368 460.956 715.486 463.944 715.819C464.75 715.915 465.482 715.383 465.682 714.563C466.163 712.56 467.827 711.016 470.134 710.425C472.553 709.804 479.187 709.442 488.299 719.447C496.612 728.58 498.579 734.794 499.747 738.51C500.295 740.247 500.627 741.303 501.308 741.658C501.478 741.747 501.559 741.754 501.574 741.747C501.789 741.665 502.092 740.801 502.255 740.335C502.654 739.197 503.112 737.904 504.311 737.528C505.161 737.262 506.152 737.55 507.35 738.407C507.809 738.739 518.511 746.808 521.402 773.607L519.923 773.792Z" fill="black"/>
<path d="M526.535 774.258L525.529 773.179C537.91 761.652 551.836 758.024 551.977 757.987L552.339 759.421C552.206 759.45 538.627 762.997 526.535 774.258Z" fill="black"/>
<path d="M509.443 773.608C509.421 750.562 472.508 726.703 472.139 726.467L472.937 725.218C473.034 725.277 482.515 731.373 491.863 740.299C504.503 752.357 510.915 763.566 510.922 773.608H509.443Z" fill="black"/>
<path d="M1185.33 458.486H1016.88C1013.71 458.486 1011.07 457.341 1009.25 455.176C1007.66 453.284 1006.78 450.706 1006.78 447.905C1006.78 442.319 1010.44 436.386 1017.25 436.386H1029.29C1030.49 436.386 1031.37 436.054 1031.96 435.374C1033.93 433.12 1033.08 427.083 1032.03 419.436C1031.73 417.323 1031.43 415.136 1031.15 412.816L1031.1 412.394C1030.04 403.52 1027.82 385.055 1046.59 378.332C1053.83 375.738 1057.42 374.741 1063.93 372.945C1065.62 372.48 1067.52 371.955 1069.74 371.327C1075.54 369.694 1079.8 369.65 1083.56 371.187C1088.14 373.056 1091.86 377.371 1094.92 384.368C1099 393.7 1102.38 396.575 1107.83 395.341C1144.12 387.102 1149.91 401.939 1155.51 416.288C1155.85 417.175 1156.19 418.054 1156.55 418.934C1160.19 428 1164.61 436.386 1172.26 436.386H1184.96C1192.05 436.386 1195.75 442.046 1195.75 447.632C1195.75 452.863 1192.49 458.486 1185.33 458.486ZM1017.25 437.871C1011.35 437.871 1008.26 442.925 1008.26 447.913C1008.26 450.358 1009.01 452.605 1010.38 454.23C1011.91 456.048 1014.16 457.016 1016.88 457.016H1185.33C1191.48 457.016 1194.28 452.154 1194.28 447.639C1194.28 442.933 1191.36 437.871 1184.96 437.871H1172.26C1163.72 437.871 1159 429.034 1155.17 419.488C1154.82 418.608 1154.47 417.722 1154.12 416.835C1151.44 409.956 1148.66 402.833 1142.29 398.599C1135.09 393.804 1123.92 393.213 1108.14 396.796C1101.01 398.415 1097.27 393.471 1093.55 384.974C1087.47 371.083 1079.79 370.049 1070.13 372.768C1067.91 373.388 1066.01 373.92 1064.32 374.386C1057.63 376.233 1054.27 377.164 1047.08 379.743C1029.42 386.068 1031.54 403.742 1032.56 412.239L1032.61 412.66C1032.88 414.966 1033.19 417.145 1033.48 419.259C1034.63 427.586 1035.46 433.608 1033.06 436.364C1032.18 437.369 1030.91 437.879 1029.27 437.879H1017.25V437.871Z" fill="black"/>
<path d="M695.257 474.505H559.691C557.117 474.505 554.972 473.715 553.479 472.229C552.147 470.899 551.415 469.082 551.415 467.109C551.415 463.215 554.418 459.077 559.987 459.077H569.675C570.718 459.077 571.443 458.819 571.887 458.294C573.196 456.757 572.515 452.656 571.731 447.905C571.495 446.472 571.251 444.994 571.029 443.42L570.992 443.132C570.127 437.051 568.329 424.409 583.587 419.805C589.422 418.047 592.314 417.374 597.558 416.155C598.918 415.837 600.442 415.483 602.217 415.062C609.495 413.34 617.009 413.229 622.6 423.98C625.455 429.455 627.932 432.248 632.873 431.302C662.145 425.716 666.834 435.817 671.368 445.585C671.649 446.184 671.923 446.782 672.204 447.373C675.103 453.454 678.631 459.077 684.732 459.077H694.946C700.744 459.077 703.784 463.023 703.784 466.924C703.799 470.574 701.129 474.505 695.257 474.505ZM559.994 460.555C555.342 460.555 552.902 463.85 552.902 467.109C552.902 468.683 553.478 470.131 554.529 471.18C555.734 472.385 557.524 473.027 559.691 473.027H695.257C700.108 473.027 702.32 469.865 702.32 466.924C702.32 463.858 700.02 460.555 694.961 460.555H684.747C677.825 460.555 673.994 454.526 670.88 448.009C670.599 447.41 670.318 446.812 670.037 446.213C665.54 436.534 661.302 427.386 633.154 432.758C627.363 433.866 624.323 430.482 621.291 424.66C616.447 415.357 610.293 414.67 602.557 416.495C600.775 416.916 599.251 417.271 597.89 417.589C592.506 418.845 589.799 419.473 584.008 421.217C569.964 425.45 571.583 436.814 572.449 442.918L572.493 443.206C572.715 444.765 572.959 446.235 573.188 447.661C574.098 453.188 574.756 457.186 573.011 459.247C572.271 460.112 571.147 460.555 569.668 460.555H559.994Z" fill="black"/>
<path d="M689.635 749.867C688.481 743.867 687.328 734.971 687.32 734.882L688.785 734.69C688.792 734.779 689.938 743.631 691.085 749.586L689.635 749.867Z" fill="black"/>
<path d="M1362.65 772.869H456.444V774.346H1362.65V772.869Z" fill="black"/>
<path d="M695.944 772.899H940.917V672.425C940.917 672.425 755.814 734.21 693.933 753.451C680.938 757.493 680.709 772.899 695.944 772.899Z" fill="#EC8C92"/>
<path d="M1247.58 716.44L1299.29 751.101C1306.79 751.101 1312.08 743.757 1309.68 736.656L1270.04 618.87C1265.59 605.651 1251.18 598.624 1238.01 603.242L1136.31 638.938C1028.09 681.653 1123.34 747.496 1141.29 740.469L1222.5 708.704C1231.64 705.135 1242.05 708.342 1247.58 716.44Z" fill="#EC8C92"/>
<path d="M1270.05 618.863C1265.6 605.644 1251.19 598.617 1238.02 603.235L1153.7 632.835C1164.81 649.622 1178.18 691.288 1183.84 723.829L1222.51 708.704C1231.65 705.128 1242.05 708.335 1247.58 716.433L1274.81 739.619C1276.97 742.405 1299.3 751.094 1299.3 751.094C1306.8 751.094 1312.08 743.75 1309.69 736.649L1270.05 618.863Z" fill="#FFF3A1"/>
<path d="M887.91 659.501L1003.32 750.554L993.952 772.898H1062.13C1068.18 772.898 1074.8 772.898 1079.51 772.898H1100.33C1125.83 772.898 1146.51 752.246 1146.51 726.77V605.695C1146.51 556.603 1108.79 549.407 1073.25 535.464L887.91 639.189V659.501Z" fill="#274D76"/>
<path d="M779.199 766.456H777.72C777.72 762.532 779.14 758.742 781.713 755.779L789.642 746.668L790.759 747.636L782.83 756.747C780.493 759.436 779.199 762.887 779.199 766.456Z" fill="black"/>
<path d="M755.208 766.455H753.729C753.729 763.064 754.438 758.438 757.818 755.69C763.491 751.072 777.595 740.062 777.735 739.951L778.645 741.119C778.505 741.23 764.408 752.232 758.75 756.842C755.822 759.222 755.208 763.382 755.208 766.455Z" fill="black"/>
<path d="M723.879 766.456H722.399C722.399 762.576 722.399 757.759 730.572 753.688C738.389 749.801 758.972 739.959 759.179 739.863L759.815 741.193C759.608 741.289 739.04 751.124 731.23 755.01C723.879 758.668 723.879 762.806 723.879 766.456Z" fill="black"/>
<path d="M1309.69 736.649L1301.55 712.48L1298.92 704.655L1294.38 691.163L1291.17 681.631L1270.04 618.855C1266.06 607.025 1254.09 600.161 1242.19 602.163L1270.21 677.035C1260.13 675.417 1248.6 674.442 1236.72 675.158C1231.52 649.216 1222.48 626.222 1215.58 611.104L1202.9 615.56C1212.01 635.465 1225.69 670.939 1227.39 707.448C1232.07 706.82 1236.79 707.795 1240.81 710.145C1240.61 702.793 1239.97 695.5 1238.97 688.362C1248.61 687.904 1258.07 688.68 1266.55 689.966C1272.13 690.815 1276.81 694.65 1278.78 699.941L1280.16 703.628C1264.62 708.224 1254.94 714.26 1249.39 718.768L1257.53 729.26C1259.38 727.723 1262.02 725.809 1265.63 723.799C1269.6 721.59 1275.17 719.056 1282.63 716.765C1283.86 716.388 1285.19 717.031 1285.64 718.243L1287.04 721.996C1290.24 730.531 1283.92 739.619 1274.8 739.619L1299.29 751.094C1306.79 751.094 1312.08 743.749 1309.69 736.649Z" fill="#274D76"/>
<path d="M1266.5 738.245L1289.96 768.487C1292.12 771.273 1295.46 772.906 1298.99 772.906H1318.22C1325.71 772.906 1331 765.554 1328.61 758.461L1288.96 640.674C1284.52 627.456 1270.11 620.429 1256.94 625.047L1155.24 660.742C1150.97 662.242 1146.5 659.073 1146.5 654.558V580.011C1146.5 552.702 1124.76 529.937 1097.42 529.582C1069.65 529.22 1047.02 551.609 1047.02 579.273V737.927C1047.02 757.241 1062.69 772.906 1082.03 772.906H1103.88C1123.16 772.906 1142.27 769.3 1160.22 762.281L1241.42 730.516C1250.57 726.94 1260.97 730.139 1266.5 738.245Z" fill="#274D76"/>
<path d="M837.715 715.125L814.041 711.386C807.622 710.374 801.387 714.083 799.227 720.208L792.645 738.858C792.571 739.072 792.504 739.286 792.438 739.501C790.685 745.729 795.662 751.84 802.134 751.811L828.426 751.685L837.715 715.125Z" fill="#F2BDBA"/>
<path d="M1288.97 640.667C1284.53 627.448 1270.11 620.421 1256.95 625.039L1155.25 660.735C1151.8 661.947 1148.22 660.107 1146.97 656.974L1135.93 676.451L1068.18 770.039C1072.43 771.871 1077.11 772.891 1082.03 772.891H1103.88C1123.16 772.891 1142.27 769.285 1160.22 762.266L1241.42 730.501C1250.57 726.925 1260.96 730.132 1266.5 738.23L1289.96 768.472C1292.12 771.258 1295.46 772.891 1298.99 772.891H1318.22C1325.71 772.891 1331 765.539 1328.61 758.446L1288.97 640.667Z" fill="#F2BDBA"/>
<path d="M995.794 584.46L995.21 584.349C972.623 580.049 950.82 594.863 946.515 617.429L932.796 692.493C931.509 699.246 926.229 704.529 919.469 705.822C919.469 705.822 828.589 720.999 813.901 722.558C803.155 723.696 801.076 733.39 807.111 741.895C802.718 745.412 803.776 757.36 811.172 760.641C807.496 767.786 812.444 776.128 819.026 778.869C813.427 787.159 825.157 798.169 838.899 796.462C872.291 792.317 946.101 783.273 983.08 777.539C995.069 775.677 1003.82 764.697 1006.13 752.535L1028.9 633.108C1033.21 610.543 1018.39 588.76 995.794 584.46Z" fill="#F2BDBA"/>
<path d="M1098.56 660.942C1096.88 660.942 1095.21 660.543 1093.68 659.745L1075.54 650.265C1069.56 647.14 1065.84 641 1065.84 634.254V589.928C1065.84 585.11 1069.77 581.187 1074.59 581.187H1122.53C1127.35 581.187 1131.28 585.11 1131.28 589.928V634.254C1131.28 641 1127.56 647.14 1121.57 650.265L1103.43 659.745C1101.91 660.543 1100.23 660.942 1098.56 660.942ZM1074.59 582.657C1070.58 582.657 1067.32 585.916 1067.32 589.92V634.246C1067.32 640.446 1070.74 646.076 1076.23 648.95L1094.37 658.43C1096.99 659.804 1100.13 659.804 1102.75 658.43L1120.89 648.95C1126.39 646.076 1129.81 640.446 1129.81 634.246V589.92C1129.81 585.916 1126.54 582.657 1122.54 582.657H1074.59Z" fill="white"/>
<path d="M1098.78 620.68C1096.87 620.68 1095.09 619.742 1094.02 618.175C1089.48 611.562 1081.99 607.617 1073.98 607.617H1065.84V589.928C1065.84 585.11 1069.77 581.187 1074.59 581.187H1122.53C1127.35 581.187 1131.28 585.11 1131.28 589.928V607.617H1123.58C1115.57 607.617 1108.08 611.562 1103.54 618.175C1102.46 619.742 1100.68 620.68 1098.78 620.68ZM1067.31 606.132H1073.98C1082.47 606.132 1090.42 610.321 1095.23 617.333C1096.04 618.515 1097.33 619.195 1098.77 619.195C1100.22 619.195 1101.5 618.515 1102.32 617.333C1107.12 610.321 1115.07 606.132 1123.57 606.132H1129.79V589.92C1129.79 585.916 1126.53 582.657 1122.52 582.657H1074.58C1070.57 582.657 1067.31 585.916 1067.31 589.92V606.132Z" fill="white"/>
<path d="M1098.59 612.818C1095.55 612.818 1093.09 610.358 1093.09 607.321C1093.09 604.284 1095.55 601.824 1098.59 601.824C1101.63 601.824 1104.09 604.284 1104.09 607.321C1104.09 610.35 1101.63 612.818 1098.59 612.818Z" fill="#FDFDFF"/>
<path d="M1109.63 656.642L1108.18 656.361C1109.81 648.049 1110.78 636.337 1110.78 625.032C1110.78 620.289 1110.61 615.604 1110.28 611.104L1111.75 610.993C1112.09 615.53 1112.26 620.252 1112.26 625.032C1112.25 636.418 1111.26 648.233 1109.63 656.642Z" fill="white"/>
<path d="M1089.05 657.462C1087.31 648.906 1086.27 636.78 1086.27 625.025C1086.27 620.532 1086.41 616.084 1086.71 611.799L1088.19 611.902C1087.89 616.151 1087.75 620.569 1087.75 625.032C1087.75 636.699 1088.77 648.713 1090.5 657.174L1089.05 657.462Z" fill="white"/>
<path d="M1288.97 640.667C1284.53 627.448 1270.11 620.421 1256.95 625.039L1158.9 659.457C1173.52 679.311 1189.13 722.691 1192.77 749.542L1241.43 730.508C1250.57 726.932 1260.97 730.139 1266.51 738.237L1289.97 768.48C1292.13 771.265 1295.47 772.898 1298.99 772.898H1318.22C1325.72 772.898 1331.01 765.546 1328.61 758.453L1288.97 640.667Z" fill="#FFF3A1"/>
<path d="M1328.61 758.453L1320.48 734.284L1317.85 726.46L1313.3 712.967L1310.09 703.436L1288.96 640.66C1284.99 628.83 1273.02 621.966 1261.11 623.968L1289.13 698.84C1279.05 697.222 1267.52 696.246 1255.65 696.963C1250.45 671.021 1241.4 648.026 1234.51 632.909L1221.83 637.364C1230.94 657.27 1244.61 692.744 1246.31 729.253C1250.99 728.624 1255.72 729.6 1259.74 731.949C1259.54 724.598 1258.89 717.305 1257.89 710.167C1267.54 709.709 1277 710.485 1285.47 711.77C1291.06 712.62 1295.73 716.455 1297.71 721.745L1299.09 725.432C1283.54 730.028 1273.87 736.065 1268.32 740.572L1276.45 751.065C1278.31 749.528 1280.95 747.614 1284.56 745.612C1288.53 743.402 1294.1 740.868 1301.55 738.577C1302.79 738.2 1304.11 738.843 1304.56 740.055L1305.97 743.809C1309.16 752.343 1302.85 761.431 1293.73 761.431H1284.49L1289.96 768.488C1292.12 771.273 1295.46 772.906 1298.99 772.906H1318.22C1325.71 772.899 1331 765.554 1328.61 758.453Z" fill="#274D76"/>
<path d="M809.182 741.757L808.817 743.189L824.078 747.066L824.443 745.633L809.182 741.757Z" fill="black"/>
<path d="M814.741 761.773L814.376 763.205L828.402 766.773L828.767 765.341L814.741 761.773Z" fill="black"/>
<path d="M821.795 779.696L821.402 781.121L832.568 784.194L832.961 782.769L821.795 779.696Z" fill="black"/>
<path d="M1246.46 628.006L1156.17 659.658L1156.65 661.052L1246.95 629.4L1246.46 628.006Z" fill="black"/>
<path d="M1152.08 661.038C1149.32 660.617 1147.01 658.43 1146.59 655.519L1047.02 703.591V737.927C1047.02 756.872 1062.1 772.293 1080.93 772.876L1152.08 661.038Z" fill="#93B4F6"/>
<path d="M831.517 725.21C827.975 725.314 824.255 724.442 823.693 721.139C822.783 715.864 821.511 699.926 821.511 699.926L832.56 696.852L839.187 718.065C840.03 722.89 836.546 725.07 831.517 725.21Z" fill="black"/>
<path d="M844.919 656.612C839.527 635.347 827.058 620.155 817.051 622.69L799.989 627.005C809.988 624.478 822.465 639.662 827.857 660.927C833.248 682.192 829.506 701.485 819.499 704.012L836.562 699.697C846.568 697.17 850.311 677.877 844.919 656.612Z" fill="black"/>
<path d="M819.486 703.997C829.488 701.467 833.229 682.179 827.841 660.916C822.453 639.653 809.977 624.467 799.975 626.997C789.973 629.526 786.233 648.814 791.621 670.077C797.008 691.34 809.484 706.526 819.486 703.997Z" fill="#274D76"/>
<path d="M812.155 631.357C807.384 637.933 806.267 651.536 809.98 666.196C813.567 680.36 820.652 691.51 827.738 695.426C831.006 687.313 831.302 674.53 827.856 660.927C824.55 647.886 818.582 637.143 812.155 631.357Z" fill="#74BAAB"/>
<path d="M816.179 699.342C807.54 695.559 800.492 685.126 796.846 670.718C792.053 651.787 794.642 635.34 803.14 630.707L803.85 632.007C796.062 636.249 793.725 652.379 798.281 670.363C801.816 684.321 808.561 694.392 816.77 697.99L816.179 699.342Z" fill="#FAFCFC"/>
<path d="M920.282 672.794C918.167 665.095 915.046 652.556 912.324 641.398C916.474 640.349 919.558 636.603 919.558 632.133C919.558 626.85 915.268 622.564 909.98 622.564H907.783C907.081 619.609 906.659 617.835 906.659 617.835H854.659V681.092C854.659 693.01 864.326 702.667 876.255 702.667H896.091C909.899 702.667 924.602 688.547 920.282 672.794Z" fill="#F2BDBA"/>
<path d="M866.988 568.3C866.988 568.3 862.143 548.106 862.691 538.663C863.193 529.893 872.32 524.536 879.435 526.324C887.933 528.467 885.536 539.868 890.595 542.905C897.274 546.909 904.618 539.794 914.203 544.464C926.213 550.316 921.502 570.702 887.785 577.137C882.674 578.113 877.379 577.433 872.668 575.224C872.645 575.216 872.638 575.209 872.638 575.209C869.569 573.99 867.446 571.389 866.988 568.3Z" fill="#274D76"/>
<path d="M843.883 620.51C856.707 625.49 886.712 633.714 926.665 622.564C929.749 621.707 930.237 617.54 927.434 615.995C910.12 606.456 891.497 596.518 885.921 593.548C884.878 592.994 883.628 592.994 882.585 593.541L843.528 614.037C840.821 615.456 841.036 619.402 843.883 620.51Z" fill="#FFF3A1"/>
<path d="M910.719 606.227C910.771 604.225 910.667 601.136 910.564 600.176C909.107 586.632 897.628 576.088 883.68 576.088C868.748 576.088 856.641 588.184 856.641 603.102V606.227C870.071 610.712 896.371 612.56 910.719 606.227Z" fill="#93B4F6"/>
<path d="M883.681 576.088C872.298 576.088 862.565 583.115 858.579 593.06C871.855 596.917 894.878 598.373 908.841 593.208C904.892 583.189 895.115 576.088 883.681 576.088Z" fill="#FFF3A1"/>
<path d="M859.503 565.537C852.507 559.914 849.564 553.389 848.328 548.912C846.99 544.043 847.308 540.533 847.323 540.385L848.794 540.525C848.78 540.658 847.67 554.136 860.435 564.384L859.503 565.537Z" fill="#274D76"/>
<path d="M860.051 563.66C853.616 550.426 855.591 539.299 855.68 538.833L857.137 539.107C857.115 539.217 855.177 550.242 861.389 563.017L860.051 563.66Z" fill="#274D76"/>
<path d="M859.2 560.135C860.99 559.648 862.832 560.727 863.29 562.522L863.845 564.731C864.067 565.596 864.629 566.342 865.398 566.793L873.608 571.537C877.054 573.524 886.232 581.031 883.052 583.425C881.994 584.26 880.582 584.489 879.317 584.046C875.708 582.768 873.401 581.933 870.908 581.068C867.432 579.856 864.503 577.44 862.64 574.27L857.263 565.101C856.079 563.202 857.056 560.719 859.2 560.135Z" fill="#274D76"/>
<path d="M869.355 566.8C869.355 566.8 871.145 546.665 874.517 538.116C877.653 530.173 887.541 528.031 893.428 531.873C900.462 536.461 894.804 546.252 898.458 550.611C903.272 556.367 912.095 552.045 919.336 559.308C928.403 568.396 917.938 585.76 885.522 581.364C880.567 580.699 868.785 574.004 869.355 566.8Z" fill="white"/>
<path d="M884.22 657.152L883.147 656.139C883.34 655.933 887.97 651.152 896.275 653.435L895.883 654.861C888.472 652.829 884.39 656.974 884.22 657.152Z" fill="black"/>
<path d="M898.553 644.59C897.947 644.539 894.966 644.25 892.089 643.94C886.794 643.379 886.01 643.29 885.907 642.78C885.81 642.669 885.729 642.536 885.67 642.396C885.47 641.893 885.603 641.332 886.003 640.977L892.652 634.97L893.643 636.064L887.208 641.871C889.028 642.174 897.326 643.002 898.679 643.113L898.553 644.59ZM886.838 641.723L886.875 643.186C887.082 643.12 887.334 642.906 887.364 642.558C887.386 642.292 887.267 642.078 887.119 641.952L886.979 642.078C887.023 642.041 887.053 641.967 887.038 641.893C886.986 641.856 886.942 641.834 886.89 641.827C886.92 641.834 886.964 641.849 887.023 641.856C887.001 641.768 886.912 641.723 886.838 641.723C886.846 641.723 886.846 641.723 886.838 641.723Z" fill="black"/>
<path d="M867.424 649.622C864.924 649.622 862.897 647.59 862.897 645.1V641.568C862.897 639.071 864.931 637.046 867.424 637.046C869.923 637.046 871.95 639.078 871.95 641.568V645.1C871.95 647.598 869.923 649.622 867.424 649.622ZM867.424 638.517C865.745 638.517 864.377 639.884 864.377 641.561V645.093C864.377 646.77 865.745 648.137 867.424 648.137C869.103 648.137 870.471 646.77 870.471 645.093V641.561C870.471 639.884 869.103 638.517 867.424 638.517Z" fill="black"/>
<path d="M862.876 667.23H861.396V687.21H862.876V667.23Z" fill="black"/>
<path d="M874.228 671.457H872.749V694.111H874.228V671.457Z" fill="black"/>
<path d="M886.676 669.713L885.197 669.735L885.64 698.63L887.119 698.608L886.676 669.713Z" fill="black"/>
<path d="M899.092 667.212L897.613 667.262L898.536 694.688L900.014 694.638L899.092 667.212Z" fill="black"/>
<path d="M908.661 658.462L907.193 658.643L910.481 685.188L911.949 685.006L908.661 658.462Z" fill="black"/>
<path d="M995.794 584.46L995.209 584.349C972.623 580.049 950.82 594.863 946.515 617.429L932.796 689.39C932.582 690.498 932.019 692.146 931.324 693.749C941.878 702.076 994.462 742.397 1006.33 751.523L1028.91 633.101C1033.21 610.543 1018.39 588.76 995.794 584.46Z" fill="#93B4F6"/>
<path d="M1120.71 674.229L1056.48 713.555L1057.25 714.814L1121.48 675.489L1120.71 674.229Z" fill="black"/>
<path d="M1110.58 691.585L1054.34 743.372L1055.34 744.459L1111.58 692.672L1110.58 691.585Z" fill="black"/>
<path d="M1122.71 691.481L1084.87 744.476L1086.07 745.334L1123.91 692.34L1122.71 691.481Z" fill="black"/>
<path d="M945.868 688.29L945.04 689.515L995.046 723.277L995.874 722.053L945.868 688.29Z" fill="black"/>
<path d="M946.714 672.675L945.93 673.928L987.136 699.67L987.92 698.417L946.714 672.675Z" fill="black"/>
<path d="M980.868 682.709L980.133 683.991L1000.64 695.722L1001.37 694.44L980.868 682.709Z" fill="black"/>
<path d="M1047.76 602.925H1046.29V732.215H1047.76V602.925Z" fill="black"/>
<path d="M885.381 611.06C875.973 611.06 866.477 609.826 859.362 607.949L859.739 606.523C872.046 609.767 891.579 611.067 905.113 607.262L905.512 608.688C899.573 610.35 892.503 611.06 885.381 611.06Z" fill="black"/>
<path d="M804.53 753.717C803.059 749.091 803.746 744.23 806.143 741.791C803.007 737.084 802.186 731.994 803.961 728.063C805.551 724.553 809.049 722.336 813.827 721.834L813.982 723.304C809.752 723.755 806.668 725.661 805.307 728.676C803.68 732.274 804.582 737.062 807.718 741.481L808.125 742.05L807.577 742.486C805.277 744.333 804.567 748.966 805.943 753.281L804.53 753.717Z" fill="black"/>
<path d="M937.182 672.631L935.725 672.365L945.79 617.296C950.161 594.361 972.393 579.258 995.35 583.625L995.934 583.736C1005.49 585.553 1013.88 590.408 1020.19 597.775L1019.06 598.735C1012.97 591.627 1004.88 586.942 995.653 585.184L995.069 585.073C984.337 583.034 973.451 585.287 964.42 591.42C955.39 597.56 949.289 606.841 947.24 617.562L937.182 672.631Z" fill="black"/>
<path d="M81.333 62.6954C86.117 62.6954 89.9996 58.8128 89.9996 54.0288V36.6957C89.9996 41.4796 86.117 45.3623 81.333 45.3623" fill="#8093B8"/>
<path d="M81.3332 45.3623H64V62.6955H81.3332V45.3623Z" fill="#8093B8"/>
<path d="M98.6666 28.0291C93.8826 28.0291 90 31.9117 90 36.6956V54.0288C90 49.2449 93.8826 45.3622 98.6666 45.3622" fill="#8093B8"/>
<path d="M98.6668 45.3331H116V28L98.6668 28V45.3331Z" fill="#8093B8"/>
<path d="M132.352 48.92L132.736 46.712L139.056 39.48H142.128L140.88 46.552H142.192L141.776 48.92H140.464L140.096 51H137.344L137.728 48.92H132.352ZM139.056 42.488L135.648 46.552H138.336L139.056 42.488ZM143.772 45.176C144.081 43.4053 144.679 42.0027 145.564 40.968C146.46 39.9227 147.697 39.4 149.276 39.4C150.545 39.4 151.473 39.7467 152.06 40.44C152.657 41.1227 152.956 42.0773 152.956 43.304C152.956 43.8053 152.892 44.4293 152.764 45.176C152.455 46.9467 151.852 48.3547 150.956 49.4C150.06 50.4347 148.823 50.952 147.244 50.952C145.975 50.952 145.047 50.6107 144.46 49.928C143.884 49.2347 143.596 48.2747 143.596 47.048C143.596 46.4827 143.655 45.8587 143.772 45.176ZM150.06 45.176C150.177 44.5147 150.236 43.9973 150.236 43.624C150.236 43.0907 150.129 42.68 149.916 42.392C149.703 42.104 149.34 41.96 148.828 41.96C148.092 41.96 147.553 42.2427 147.212 42.808C146.881 43.3733 146.631 44.1627 146.46 45.176C146.343 45.8373 146.284 46.3547 146.284 46.728C146.284 47.2613 146.391 47.672 146.604 47.96C146.817 48.248 147.18 48.392 147.692 48.392C148.428 48.392 148.961 48.1093 149.292 47.544C149.633 46.9787 149.889 46.1893 150.06 45.176ZM153.618 48.92L154.002 46.712L160.322 39.48H163.394L162.146 46.552H163.458L163.042 48.92H161.73L161.362 51H158.61L158.994 48.92H153.618ZM160.322 42.488L156.914 46.552H159.602L160.322 42.488ZM170.51 40.792C169.987 40.76 169.603 40.8347 169.358 41.016C169.123 41.1973 168.963 41.5227 168.878 41.992L168.862 42.072H170.334L169.934 44.344H168.462L167.294 51H164.542L165.71 44.344H164.718L165.118 42.072H166.11L166.158 41.816C166.36 40.7173 166.824 39.8853 167.55 39.32C168.286 38.744 169.262 38.456 170.478 38.456C170.67 38.456 170.814 38.4613 170.91 38.472L170.51 40.792ZM174.115 51.128C173.347 51.128 172.665 50.9733 172.067 50.664C171.47 50.3547 171.006 49.9173 170.675 49.352C170.355 48.7867 170.195 48.1307 170.195 47.384C170.195 46.3707 170.435 45.448 170.915 44.616C171.395 43.784 172.057 43.1333 172.899 42.664C173.742 42.184 174.681 41.944 175.715 41.944C176.483 41.944 177.166 42.104 177.763 42.424C178.371 42.7333 178.841 43.1707 179.171 43.736C179.502 44.3013 179.667 44.9573 179.667 45.704C179.667 46.728 179.422 47.656 178.931 48.488C178.451 49.3093 177.785 49.9547 176.931 50.424C176.089 50.8933 175.15 51.128 174.115 51.128ZM174.499 48.776C174.947 48.776 175.347 48.6427 175.699 48.376C176.062 48.0987 176.339 47.7467 176.531 47.32C176.734 46.8827 176.835 46.4293 176.835 45.96C176.835 45.4267 176.691 45.016 176.403 44.728C176.115 44.44 175.753 44.296 175.315 44.296C174.857 44.296 174.451 44.4347 174.099 44.712C173.758 44.9787 173.491 45.3307 173.299 45.768C173.107 46.2053 173.011 46.664 173.011 47.144C173.011 47.6667 173.15 48.072 173.427 48.36C173.705 48.6373 174.062 48.776 174.499 48.776ZM184.239 43.688C184.655 43.1547 185.13 42.7387 185.663 42.44C186.207 42.1307 186.772 41.976 187.359 41.976L186.847 44.872H186.095C185.412 44.872 184.874 45.0213 184.479 45.32C184.084 45.608 183.823 46.12 183.695 46.856L182.959 51H180.223L181.791 42.072H184.527L184.239 43.688ZM200.059 41.976C201.019 41.976 201.765 42.232 202.299 42.744C202.843 43.2453 203.115 43.9493 203.115 44.856C203.115 45.1333 203.083 45.4427 203.019 45.784L202.091 51H199.371L200.235 46.152C200.256 46.0453 200.267 45.9013 200.267 45.72C200.267 45.272 200.139 44.9307 199.883 44.696C199.637 44.4613 199.291 44.344 198.843 44.344C198.309 44.344 197.861 44.504 197.499 44.824C197.136 45.1333 196.907 45.576 196.811 46.152L195.947 51H193.227L194.091 46.152C194.112 46.0453 194.123 45.9013 194.123 45.72C194.123 45.272 193.995 44.9307 193.739 44.696C193.493 44.4613 193.147 44.344 192.699 44.344C192.165 44.344 191.717 44.504 191.355 44.824C190.992 45.1333 190.763 45.576 190.667 46.152V46.072L189.803 51H187.067L188.635 42.072H191.371L191.179 43.208C191.52 42.824 191.931 42.5253 192.411 42.312C192.901 42.088 193.429 41.976 193.995 41.976C194.677 41.976 195.253 42.12 195.723 42.408C196.203 42.696 196.544 43.112 196.747 43.656C197.141 43.1547 197.632 42.7493 198.219 42.44C198.805 42.1307 199.419 41.976 200.059 41.976ZM209.572 41.944C210.724 41.944 211.636 42.2587 212.308 42.888C212.991 43.5067 213.332 44.3547 213.332 45.432C213.332 45.784 213.305 46.0987 213.252 46.376C213.209 46.6213 213.145 46.8827 213.06 47.16H206.868C206.857 47.224 206.852 47.3253 206.852 47.464C206.852 47.9333 206.98 48.2907 207.236 48.536C207.492 48.7813 207.833 48.904 208.26 48.904C208.943 48.904 209.465 48.616 209.828 48.04H212.74C212.356 48.9467 211.732 49.688 210.868 50.264C210.004 50.84 209.033 51.128 207.956 51.128C206.804 51.128 205.881 50.808 205.188 50.168C204.505 49.528 204.164 48.6587 204.164 47.56C204.164 47.2293 204.196 46.888 204.26 46.536C204.42 45.608 204.751 44.7973 205.252 44.104C205.753 43.4107 206.377 42.8773 207.124 42.504C207.871 42.1307 208.687 41.944 209.572 41.944ZM210.564 45.768C210.585 45.6187 210.596 45.5173 210.596 45.464C210.596 45.0373 210.463 44.712 210.196 44.488C209.929 44.2533 209.577 44.136 209.14 44.136C208.671 44.136 208.255 44.28 207.892 44.568C207.54 44.8453 207.284 45.2453 207.124 45.768H210.564Z" fill="#8093B8"/>
<path d="M955.495 39.3636V51H953.739V39.3636H955.495ZM957.915 39.3636H959.614V48.6136C959.614 48.9886 959.662 49.2538 959.756 49.4091C959.855 49.5644 960.04 49.6383 960.313 49.6307C960.461 49.6269 960.571 49.6174 960.643 49.6023C960.719 49.5871 960.787 49.5701 960.847 49.5511L961.154 50.9091C961.037 50.9432 960.887 50.9754 960.705 51.0057C960.527 51.0398 960.325 51.0587 960.097 51.0625C959.362 51.0739 958.815 50.8996 958.455 50.5398C958.095 50.1799 957.915 49.6553 957.915 48.9659V39.3636ZM962.509 39.3636H964.208V48.6136C964.208 48.9886 964.255 49.2538 964.35 49.4091C964.449 49.5644 964.634 49.6383 964.907 49.6307C965.055 49.6269 965.165 49.6174 965.237 49.6023C965.312 49.5871 965.38 49.5701 965.441 49.5511L965.748 50.9091C965.63 50.9432 965.481 50.9754 965.299 51.0057C965.121 51.0398 964.918 51.0587 964.691 51.0625C963.956 51.0739 963.409 50.8996 963.049 50.5398C962.689 50.1799 962.509 49.6553 962.509 48.9659V39.3636ZM972.397 47.3807V42.2727H974.102V51H972.431V49.4886H972.34C972.139 49.9545 971.817 50.3428 971.374 50.6534C970.935 50.9602 970.388 51.1136 969.732 51.1136C969.172 51.1136 968.675 50.9905 968.244 50.7443C967.816 50.4943 967.478 50.125 967.232 49.6364C966.99 49.1477 966.869 48.5436 966.869 47.8239V42.2727H968.567V47.6193C968.567 48.214 968.732 48.6875 969.062 49.0398C969.391 49.392 969.819 49.5682 970.346 49.5682C970.664 49.5682 970.98 49.4886 971.295 49.3295C971.613 49.1705 971.876 48.9299 972.085 48.608C972.297 48.286 972.401 47.8769 972.397 47.3807ZM982.924 44.4034L981.384 44.6761C981.32 44.4792 981.218 44.2917 981.077 44.1136C980.941 43.9356 980.755 43.7898 980.521 43.6761C980.286 43.5625 979.992 43.5057 979.64 43.5057C979.159 43.5057 978.757 43.6136 978.435 43.8295C978.113 44.0417 977.952 44.3163 977.952 44.6534C977.952 44.9451 978.06 45.1799 978.276 45.358C978.492 45.536 978.841 45.6818 979.322 45.7955L980.708 46.1136C981.511 46.2992 982.11 46.5852 982.504 46.9716C982.897 47.358 983.094 47.8598 983.094 48.4773C983.094 49 982.943 49.4659 982.64 49.875C982.341 50.2803 981.922 50.5985 981.384 50.8295C980.85 51.0606 980.231 51.1761 979.526 51.1761C978.549 51.1761 977.752 50.9678 977.134 50.5511C976.517 50.1307 976.138 49.5341 975.998 48.7614L977.64 48.5114C977.742 48.9394 977.952 49.2633 978.271 49.483C978.589 49.6989 979.004 49.8068 979.515 49.8068C980.072 49.8068 980.517 49.6913 980.85 49.4602C981.183 49.2254 981.35 48.9394 981.35 48.6023C981.35 48.3295 981.248 48.1004 981.043 47.9148C980.843 47.7292 980.534 47.589 980.117 47.4943L978.64 47.1705C977.826 46.9848 977.223 46.6894 976.833 46.2841C976.447 45.8788 976.254 45.3655 976.254 44.7443C976.254 44.2292 976.397 43.7784 976.685 43.392C976.973 43.0057 977.371 42.7045 977.879 42.4886C978.386 42.2689 978.968 42.1591 979.623 42.1591C980.566 42.1591 981.308 42.3636 981.85 42.7727C982.392 43.178 982.75 43.7216 982.924 44.4034ZM989.036 42.2727V43.6364H984.269V42.2727H989.036ZM985.548 40.1818H987.246V48.4375C987.246 48.767 987.296 49.0152 987.394 49.1818C987.493 49.3447 987.62 49.4564 987.775 49.517C987.934 49.5739 988.106 49.6023 988.292 49.6023C988.428 49.6023 988.548 49.5928 988.65 49.5739C988.752 49.5549 988.832 49.5398 988.888 49.5284L989.195 50.9318C989.097 50.9697 988.957 51.0076 988.775 51.0455C988.593 51.0871 988.366 51.1098 988.093 51.1136C987.646 51.1212 987.229 51.0417 986.843 50.875C986.457 50.7083 986.144 50.4508 985.906 50.1023C985.667 49.7538 985.548 49.3163 985.548 48.7898V40.1818ZM990.915 51V42.2727H992.558V43.6591H992.648C992.808 43.1894 993.088 42.8201 993.489 42.5511C993.891 42.2784 994.349 42.142 994.864 42.142C995.103 42.142 995.317 42.1705 995.506 42.2273C995.696 42.2841 995.862 42.3617 996.006 42.4602L995.461 43.8807C995.359 43.8314 995.243 43.7917 995.114 43.7614C994.986 43.7273 994.838 43.7102 994.671 43.7102C994.277 43.7102 993.925 43.7955 993.614 43.9659C993.308 44.1326 993.063 44.3636 992.881 44.6591C992.703 44.9545 992.614 45.2917 992.614 45.6705V51H990.915ZM1000.21 51.1705C999.509 51.1705 998.88 50.9905 998.327 50.6307C997.778 50.267 997.346 49.75 997.032 49.0795C996.721 48.4053 996.566 47.5966 996.566 46.6534C996.566 45.7102 996.723 44.9034 997.038 44.233C997.356 43.5625 997.791 43.0492 998.344 42.6932C998.897 42.3371 999.524 42.1591 1000.23 42.1591C1000.77 42.1591 1001.2 42.25 1001.53 42.4318C1001.87 42.6098 1002.12 42.8182 1002.3 43.0568C1002.49 43.2955 1002.63 43.5057 1002.74 43.6875H1002.84V42.2727H1004.54V51H1002.88V49.642H1002.74C1002.63 49.8277 1002.49 50.0398 1002.29 50.2784C1002.1 50.517 1001.84 50.7254 1001.51 50.9034C1001.18 51.0814 1000.74 51.1705 1000.21 51.1705ZM1000.59 49.7216C1001.08 49.7216 1001.49 49.5928 1001.83 49.3352C1002.17 49.0739 1002.43 48.7121 1002.6 48.25C1002.78 47.7879 1002.87 47.25 1002.87 46.6364C1002.87 46.0303 1002.78 45.5 1002.61 45.0455C1002.43 44.5909 1002.18 44.2367 1001.84 43.983C1001.5 43.7292 1001.08 43.6023 1000.59 43.6023C1000.08 43.6023 999.651 43.7348 999.31 44C998.969 44.2652 998.712 44.6269 998.538 45.0852C998.367 45.5436 998.282 46.0606 998.282 46.6364C998.282 47.2197 998.369 47.7443 998.543 48.2102C998.718 48.6761 998.975 49.0455 999.316 49.3182C999.661 49.5871 1000.08 49.7216 1000.59 49.7216ZM1011.04 42.2727V43.6364H1006.27V42.2727H1011.04ZM1007.55 40.1818H1009.25V48.4375C1009.25 48.767 1009.3 49.0152 1009.39 49.1818C1009.49 49.3447 1009.62 49.4564 1009.77 49.517C1009.93 49.5739 1010.11 49.6023 1010.29 49.6023C1010.43 49.6023 1010.55 49.5928 1010.65 49.5739C1010.75 49.5549 1010.83 49.5398 1010.89 49.5284L1011.2 50.9318C1011.1 50.9697 1010.96 51.0076 1010.77 51.0455C1010.59 51.0871 1010.37 51.1098 1010.09 51.1136C1009.65 51.1212 1009.23 51.0417 1008.84 50.875C1008.46 50.7083 1008.14 50.4508 1007.91 50.1023C1007.67 49.7538 1007.55 49.3163 1007.55 48.7898V40.1818ZM1012.92 51V42.2727H1014.61V51H1012.92ZM1013.77 40.9261C1013.48 40.9261 1013.22 40.8277 1013.01 40.6307C1012.8 40.4299 1012.7 40.1913 1012.7 39.9148C1012.7 39.6345 1012.8 39.3958 1013.01 39.1989C1013.22 38.9981 1013.48 38.8977 1013.77 38.8977C1014.07 38.8977 1014.32 38.9981 1014.53 39.1989C1014.74 39.3958 1014.85 39.6345 1014.85 39.9148C1014.85 40.1913 1014.74 40.4299 1014.53 40.6307C1014.32 40.8277 1014.07 40.9261 1013.77 40.9261ZM1020.58 51.1761C1019.76 51.1761 1019.04 50.9886 1018.43 50.6136C1017.82 50.2386 1017.35 49.714 1017.01 49.0398C1016.68 48.3655 1016.51 47.5777 1016.51 46.6761C1016.51 45.7708 1016.68 44.9792 1017.01 44.3011C1017.35 43.6231 1017.82 43.0966 1018.43 42.7216C1019.04 42.3466 1019.76 42.1591 1020.58 42.1591C1021.39 42.1591 1022.11 42.3466 1022.72 42.7216C1023.33 43.0966 1023.8 43.6231 1024.14 44.3011C1024.48 44.9792 1024.64 45.7708 1024.64 46.6761C1024.64 47.5777 1024.48 48.3655 1024.14 49.0398C1023.8 49.714 1023.33 50.2386 1022.72 50.6136C1022.11 50.9886 1021.39 51.1761 1020.58 51.1761ZM1020.58 49.75C1021.11 49.75 1021.55 49.6098 1021.9 49.3295C1022.25 49.0492 1022.51 48.6761 1022.67 48.2102C1022.84 47.7443 1022.93 47.2311 1022.93 46.6705C1022.93 46.1136 1022.84 45.6023 1022.67 45.1364C1022.51 44.6667 1022.25 44.2898 1021.9 44.0057C1021.55 43.7216 1021.11 43.5795 1020.58 43.5795C1020.05 43.5795 1019.6 43.7216 1019.25 44.0057C1018.9 44.2898 1018.64 44.6667 1018.47 45.1364C1018.31 45.6023 1018.22 46.1136 1018.22 46.6705C1018.22 47.2311 1018.31 47.7443 1018.47 48.2102C1018.64 48.6761 1018.9 49.0492 1019.25 49.3295C1019.6 49.6098 1020.05 49.75 1020.58 49.75ZM1028.24 45.8182V51H1026.54V42.2727H1028.17V43.6932H1028.28C1028.48 43.2311 1028.79 42.8598 1029.22 42.5795C1029.65 42.2992 1030.2 42.1591 1030.85 42.1591C1031.45 42.1591 1031.97 42.2841 1032.42 42.5341C1032.86 42.7803 1033.21 43.1477 1033.46 43.6364C1033.7 44.125 1033.82 44.7292 1033.82 45.4489V51H1032.13V45.6534C1032.13 45.0208 1031.96 44.5265 1031.63 44.1705C1031.3 43.8106 1030.85 43.6307 1030.27 43.6307C1029.88 43.6307 1029.53 43.7159 1029.22 43.8864C1028.92 44.0568 1028.68 44.3068 1028.5 44.6364C1028.33 44.9621 1028.24 45.3561 1028.24 45.8182ZM1042.64 44.4034L1041.1 44.6761C1041.04 44.4792 1040.94 44.2917 1040.8 44.1136C1040.66 43.9356 1040.47 43.7898 1040.24 43.6761C1040 43.5625 1039.71 43.5057 1039.36 43.5057C1038.88 43.5057 1038.48 43.6136 1038.15 43.8295C1037.83 44.0417 1037.67 44.3163 1037.67 44.6534C1037.67 44.9451 1037.78 45.1799 1038 45.358C1038.21 45.536 1038.56 45.6818 1039.04 45.7955L1040.43 46.1136C1041.23 46.2992 1041.83 46.5852 1042.22 46.9716C1042.62 47.358 1042.81 47.8598 1042.81 48.4773C1042.81 49 1042.66 49.4659 1042.36 49.875C1042.06 50.2803 1041.64 50.5985 1041.1 50.8295C1040.57 51.0606 1039.95 51.1761 1039.25 51.1761C1038.27 51.1761 1037.47 50.9678 1036.85 50.5511C1036.24 50.1307 1035.86 49.5341 1035.72 48.7614L1037.36 48.5114C1037.46 48.9394 1037.67 49.2633 1037.99 49.483C1038.31 49.6989 1038.72 49.8068 1039.23 49.8068C1039.79 49.8068 1040.24 49.6913 1040.57 49.4602C1040.9 49.2254 1041.07 48.9394 1041.07 48.6023C1041.07 48.3295 1040.97 48.1004 1040.76 47.9148C1040.56 47.7292 1040.25 47.589 1039.84 47.4943L1038.36 47.1705C1037.54 46.9848 1036.94 46.6894 1036.55 46.2841C1036.17 45.8788 1035.97 45.3655 1035.97 44.7443C1035.97 44.2292 1036.12 43.7784 1036.4 43.392C1036.69 43.0057 1037.09 42.7045 1037.6 42.4886C1038.1 42.2689 1038.69 42.1591 1039.34 42.1591C1040.28 42.1591 1041.03 42.3636 1041.57 42.7727C1042.11 43.178 1042.47 43.7216 1042.64 44.4034Z" fill="#111827"/>
<path d="M1065 43L1060 48L1055 43" stroke="#111827" stroke-width="1.39167" stroke-linecap="round" stroke-linejoin="round"/>
<path d="M1099.1 51H1095.33V39.3636H1099.22C1100.36 39.3636 1101.34 39.5966 1102.16 40.0625C1102.98 40.5246 1103.6 41.1894 1104.04 42.0568C1104.48 42.9205 1104.7 43.9564 1104.7 45.1648C1104.7 46.3769 1104.48 47.4186 1104.03 48.2898C1103.59 49.161 1102.96 49.8314 1102.12 50.3011C1101.29 50.767 1100.28 51 1099.1 51ZM1097.09 49.4659H1099C1099.89 49.4659 1100.63 49.2992 1101.21 48.9659C1101.8 48.6288 1102.24 48.142 1102.53 47.5057C1102.82 46.8655 1102.97 46.0852 1102.97 45.1648C1102.97 44.2519 1102.82 43.4773 1102.53 42.8409C1102.24 42.2045 1101.81 41.7216 1101.24 41.392C1100.67 41.0625 1099.96 40.8977 1099.11 40.8977H1097.09V49.4659ZM1110.42 51.1761C1109.6 51.1761 1108.89 50.9886 1108.28 50.6136C1107.67 50.2386 1107.19 49.714 1106.86 49.0398C1106.52 48.3655 1106.35 47.5777 1106.35 46.6761C1106.35 45.7708 1106.52 44.9792 1106.86 44.3011C1107.19 43.6231 1107.67 43.0966 1108.28 42.7216C1108.89 42.3466 1109.6 42.1591 1110.42 42.1591C1111.24 42.1591 1111.95 42.3466 1112.56 42.7216C1113.17 43.0966 1113.65 43.6231 1113.98 44.3011C1114.32 44.9792 1114.49 45.7708 1114.49 46.6761C1114.49 47.5777 1114.32 48.3655 1113.98 49.0398C1113.65 49.714 1113.17 50.2386 1112.56 50.6136C1111.95 50.9886 1111.24 51.1761 1110.42 51.1761ZM1110.43 49.75C1110.96 49.75 1111.4 49.6098 1111.74 49.3295C1112.09 49.0492 1112.35 48.6761 1112.52 48.2102C1112.69 47.7443 1112.77 47.2311 1112.77 46.6705C1112.77 46.1136 1112.69 45.6023 1112.52 45.1364C1112.35 44.6667 1112.09 44.2898 1111.74 44.0057C1111.4 43.7216 1110.96 43.5795 1110.43 43.5795C1109.89 43.5795 1109.45 43.7216 1109.1 44.0057C1108.75 44.2898 1108.49 44.6667 1108.32 45.1364C1108.15 45.6023 1108.07 46.1136 1108.07 46.6705C1108.07 47.2311 1108.15 47.7443 1108.32 48.2102C1108.49 48.6761 1108.75 49.0492 1109.1 49.3295C1109.45 49.6098 1109.89 49.75 1110.43 49.75ZM1120.06 51.1761C1119.22 51.1761 1118.49 50.9848 1117.88 50.6023C1117.27 50.2159 1116.81 49.6837 1116.48 49.0057C1116.16 48.3277 1115.99 47.5511 1115.99 46.6761C1115.99 45.7898 1116.16 45.0076 1116.49 44.3295C1116.83 43.6477 1117.3 43.1155 1117.9 42.733C1118.51 42.3504 1119.22 42.1591 1120.04 42.1591C1120.71 42.1591 1121.3 42.2822 1121.82 42.5284C1122.33 42.7708 1122.75 43.1117 1123.07 43.5511C1123.39 43.9905 1123.58 44.5038 1123.65 45.0909H1121.99C1121.9 44.6818 1121.69 44.3295 1121.37 44.0341C1121.05 43.7386 1120.61 43.5909 1120.07 43.5909C1119.6 43.5909 1119.18 43.7159 1118.83 43.9659C1118.48 44.2121 1118.2 44.5644 1118 45.0227C1117.81 45.4773 1117.71 46.0152 1117.71 46.6364C1117.71 47.2727 1117.8 47.822 1118 48.2841C1118.19 48.7462 1118.46 49.1042 1118.82 49.358C1119.17 49.6117 1119.59 49.7386 1120.07 49.7386C1120.39 49.7386 1120.69 49.6799 1120.95 49.5625C1121.21 49.4413 1121.43 49.2689 1121.61 49.0455C1121.79 48.822 1121.92 48.553 1121.99 48.2386H1123.65C1123.58 48.803 1123.4 49.3068 1123.09 49.75C1122.79 50.1932 1122.38 50.5417 1121.86 50.7955C1121.35 51.0492 1120.75 51.1761 1120.06 51.1761ZM1130.99 47.3807V42.2727H1132.7V51H1131.02V49.4886H1130.93C1130.73 49.9545 1130.41 50.3428 1129.97 50.6534C1129.53 50.9602 1128.98 51.1136 1128.33 51.1136C1127.77 51.1136 1127.27 50.9905 1126.84 50.7443C1126.41 50.4943 1126.07 50.125 1125.83 49.6364C1125.58 49.1477 1125.46 48.5436 1125.46 47.8239V42.2727H1127.16V47.6193C1127.16 48.214 1127.33 48.6875 1127.66 49.0398C1127.99 49.392 1128.41 49.5682 1128.94 49.5682C1129.26 49.5682 1129.57 49.4886 1129.89 49.3295C1130.21 49.1705 1130.47 48.9299 1130.68 48.608C1130.89 48.286 1130.99 47.8769 1130.99 47.3807ZM1134.98 51V42.2727H1136.61V43.6932H1136.72C1136.9 43.2121 1137.2 42.8371 1137.61 42.5682C1138.02 42.2955 1138.52 42.1591 1139.09 42.1591C1139.67 42.1591 1140.16 42.2955 1140.56 42.5682C1140.96 42.8409 1141.25 43.2159 1141.44 43.6932H1141.53C1141.74 43.2273 1142.07 42.8561 1142.52 42.5795C1142.98 42.2992 1143.52 42.1591 1144.15 42.1591C1144.94 42.1591 1145.59 42.4072 1146.09 42.9034C1146.59 43.3996 1146.84 44.1477 1146.84 45.1477V51H1145.14V45.3068C1145.14 44.7159 1144.98 44.2879 1144.66 44.0227C1144.34 43.7576 1143.95 43.625 1143.51 43.625C1142.95 43.625 1142.52 43.7955 1142.22 44.1364C1141.91 44.4735 1141.76 44.9072 1141.76 45.4375V51H1140.06V45.1989C1140.06 44.7254 1139.92 44.3447 1139.62 44.0568C1139.32 43.7689 1138.94 43.625 1138.47 43.625C1138.14 43.625 1137.85 43.7102 1137.57 43.8807C1137.31 44.0473 1137.09 44.2803 1136.92 44.5795C1136.76 44.8788 1136.68 45.2254 1136.68 45.6193V51H1134.98ZM1152.88 51.1761C1152.02 51.1761 1151.28 50.9924 1150.66 50.625C1150.04 50.2538 1149.56 49.733 1149.23 49.0625C1148.89 48.3883 1148.73 47.5985 1148.73 46.6932C1148.73 45.7992 1148.89 45.0114 1149.23 44.3295C1149.56 43.6477 1150.03 43.1155 1150.64 42.733C1151.24 42.3504 1151.95 42.1591 1152.76 42.1591C1153.25 42.1591 1153.73 42.2405 1154.19 42.4034C1154.65 42.5663 1155.07 42.822 1155.44 43.1705C1155.8 43.5189 1156.09 43.9716 1156.31 44.5284C1156.52 45.0814 1156.62 45.7538 1156.62 46.5455V47.1477H1149.69V45.875H1154.96C1154.96 45.428 1154.87 45.0322 1154.69 44.6875C1154.5 44.339 1154.25 44.0644 1153.92 43.8636C1153.59 43.6629 1153.21 43.5625 1152.77 43.5625C1152.29 43.5625 1151.88 43.6799 1151.52 43.9148C1151.17 44.1458 1150.9 44.4489 1150.7 44.8239C1150.51 45.1951 1150.42 45.5985 1150.42 46.0341V47.0284C1150.42 47.6117 1150.52 48.108 1150.73 48.517C1150.93 48.9261 1151.22 49.2386 1151.6 49.4545C1151.97 49.6667 1152.4 49.7727 1152.9 49.7727C1153.22 49.7727 1153.51 49.7273 1153.78 49.6364C1154.04 49.5417 1154.27 49.4015 1154.47 49.2159C1154.66 49.0303 1154.81 48.8011 1154.91 48.5284L1156.52 48.8182C1156.39 49.2917 1156.16 49.7064 1155.82 50.0625C1155.49 50.4148 1155.08 50.6894 1154.58 50.8864C1154.08 51.0795 1153.52 51.1761 1152.88 51.1761ZM1160.21 45.8182V51H1158.51V42.2727H1160.14V43.6932H1160.25C1160.45 43.2311 1160.76 42.8598 1161.19 42.5795C1161.62 42.2992 1162.17 42.1591 1162.82 42.1591C1163.42 42.1591 1163.94 42.2841 1164.38 42.5341C1164.83 42.7803 1165.18 43.1477 1165.42 43.6364C1165.67 44.125 1165.79 44.7292 1165.79 45.4489V51H1164.09V45.6534C1164.09 45.0208 1163.93 44.5265 1163.6 44.1705C1163.27 43.8106 1162.82 43.6307 1162.24 43.6307C1161.85 43.6307 1161.5 43.7159 1161.19 43.8864C1160.89 44.0568 1160.65 44.3068 1160.47 44.6364C1160.3 44.9621 1160.21 45.3561 1160.21 45.8182ZM1172.15 42.2727V43.6364H1167.38V42.2727H1172.15ZM1168.66 40.1818H1170.36V48.4375C1170.36 48.767 1170.41 49.0152 1170.5 49.1818C1170.6 49.3447 1170.73 49.4564 1170.88 49.517C1171.04 49.5739 1171.22 49.6023 1171.4 49.6023C1171.54 49.6023 1171.66 49.5928 1171.76 49.5739C1171.86 49.5549 1171.94 49.5398 1172 49.5284L1172.3 50.9318C1172.21 50.9697 1172.07 51.0076 1171.88 51.0455C1171.7 51.0871 1171.48 51.1098 1171.2 51.1136C1170.76 51.1212 1170.34 51.0417 1169.95 50.875C1169.57 50.7083 1169.25 50.4508 1169.01 50.1023C1168.78 49.7538 1168.66 49.3163 1168.66 48.7898V40.1818ZM1177.2 51.1705C1176.49 51.1705 1175.86 50.9905 1175.31 50.6307C1174.76 50.267 1174.33 49.75 1174.02 49.0795C1173.71 48.4053 1173.55 47.5966 1173.55 46.6534C1173.55 45.7102 1173.71 44.9034 1174.02 44.233C1174.34 43.5625 1174.78 43.0492 1175.33 42.6932C1175.88 42.3371 1176.51 42.1591 1177.21 42.1591C1177.75 42.1591 1178.19 42.25 1178.52 42.4318C1178.85 42.6098 1179.11 42.8182 1179.29 43.0568C1179.47 43.2955 1179.62 43.5057 1179.72 43.6875H1179.82V42.2727H1181.52V51H1179.86V49.642H1179.72C1179.62 49.8277 1179.47 50.0398 1179.28 50.2784C1179.09 50.517 1178.83 50.7254 1178.49 50.9034C1178.16 51.0814 1177.73 51.1705 1177.2 51.1705ZM1177.57 49.7216C1178.06 49.7216 1178.47 49.5928 1178.81 49.3352C1179.15 49.0739 1179.41 48.7121 1179.58 48.25C1179.76 47.7879 1179.85 47.25 1179.85 46.6364C1179.85 46.0303 1179.76 45.5 1179.59 45.0455C1179.42 44.5909 1179.16 44.2367 1178.82 43.983C1178.49 43.7292 1178.07 43.6023 1177.57 43.6023C1177.06 43.6023 1176.64 43.7348 1176.29 44C1175.95 44.2652 1175.7 44.6269 1175.52 45.0852C1175.35 45.5436 1175.27 46.0606 1175.27 46.6364C1175.27 47.2197 1175.35 47.7443 1175.53 48.2102C1175.7 48.6761 1175.96 49.0455 1176.3 49.3182C1176.65 49.5871 1177.07 49.7216 1177.57 49.7216ZM1188.02 42.2727V43.6364H1183.25V42.2727H1188.02ZM1184.53 40.1818H1186.23V48.4375C1186.23 48.767 1186.28 49.0152 1186.38 49.1818C1186.48 49.3447 1186.6 49.4564 1186.76 49.517C1186.92 49.5739 1187.09 49.6023 1187.28 49.6023C1187.41 49.6023 1187.53 49.5928 1187.63 49.5739C1187.74 49.5549 1187.82 49.5398 1187.87 49.5284L1188.18 50.9318C1188.08 50.9697 1187.94 51.0076 1187.76 51.0455C1187.58 51.0871 1187.35 51.1098 1187.08 51.1136C1186.63 51.1212 1186.21 51.0417 1185.83 50.875C1185.44 50.7083 1185.13 50.4508 1184.89 50.1023C1184.65 49.7538 1184.53 49.3163 1184.53 48.7898V40.1818ZM1189.9 51V42.2727H1191.6V51H1189.9ZM1190.76 40.9261C1190.46 40.9261 1190.21 40.8277 1190 40.6307C1189.79 40.4299 1189.68 40.1913 1189.68 39.9148C1189.68 39.6345 1189.79 39.3958 1190 39.1989C1190.21 38.9981 1190.46 38.8977 1190.76 38.8977C1191.05 38.8977 1191.31 38.9981 1191.51 39.1989C1191.73 39.3958 1191.83 39.6345 1191.83 39.9148C1191.83 40.1913 1191.73 40.4299 1191.51 40.6307C1191.31 40.8277 1191.05 40.9261 1190.76 40.9261ZM1197.56 51.1761C1196.74 51.1761 1196.03 50.9886 1195.42 50.6136C1194.81 50.2386 1194.33 49.714 1194 49.0398C1193.66 48.3655 1193.49 47.5777 1193.49 46.6761C1193.49 45.7708 1193.66 44.9792 1194 44.3011C1194.33 43.6231 1194.81 43.0966 1195.42 42.7216C1196.03 42.3466 1196.74 42.1591 1197.56 42.1591C1198.38 42.1591 1199.09 42.3466 1199.7 42.7216C1200.31 43.0966 1200.79 43.6231 1201.12 44.3011C1201.46 44.9792 1201.63 45.7708 1201.63 46.6761C1201.63 47.5777 1201.46 48.3655 1201.12 49.0398C1200.79 49.714 1200.31 50.2386 1199.7 50.6136C1199.09 50.9886 1198.38 51.1761 1197.56 51.1761ZM1197.57 49.75C1198.1 49.75 1198.54 49.6098 1198.88 49.3295C1199.23 49.0492 1199.49 48.6761 1199.66 48.2102C1199.83 47.7443 1199.91 47.2311 1199.91 46.6705C1199.91 46.1136 1199.83 45.6023 1199.66 45.1364C1199.49 44.6667 1199.23 44.2898 1198.88 44.0057C1198.54 43.7216 1198.1 43.5795 1197.57 43.5795C1197.03 43.5795 1196.59 43.7216 1196.24 44.0057C1195.89 44.2898 1195.63 44.6667 1195.46 45.1364C1195.29 45.6023 1195.21 46.1136 1195.21 46.6705C1195.21 47.2311 1195.29 47.7443 1195.46 48.2102C1195.63 48.6761 1195.89 49.0492 1196.24 49.3295C1196.59 49.6098 1197.03 49.75 1197.57 49.75ZM1205.22 45.8182V51H1203.52V42.2727H1205.16V43.6932H1205.26C1205.46 43.2311 1205.78 42.8598 1206.21 42.5795C1206.64 42.2992 1207.18 42.1591 1207.84 42.1591C1208.43 42.1591 1208.95 42.2841 1209.4 42.5341C1209.85 42.7803 1210.19 43.1477 1210.44 43.6364C1210.69 44.125 1210.81 44.7292 1210.81 45.4489V51H1209.11V45.6534C1209.11 45.0208 1208.95 44.5265 1208.62 44.1705C1208.29 43.8106 1207.83 43.6307 1207.26 43.6307C1206.86 43.6307 1206.51 43.7159 1206.21 43.8864C1205.9 44.0568 1205.66 44.3068 1205.49 44.6364C1205.31 44.9621 1205.22 45.3561 1205.22 45.8182Z" fill="#111827"/>
<path d="M1238.6 51H1236.73L1240.92 39.3636H1242.95L1247.14 51H1245.27L1241.98 41.4773H1241.89L1238.6 51ZM1238.91 46.4432H1244.96V47.9205H1238.91V46.4432ZM1248.82 51V39.3636H1250.52V43.6875H1250.62C1250.72 43.5057 1250.86 43.2955 1251.04 43.0568C1251.23 42.8182 1251.49 42.6098 1251.82 42.4318C1252.15 42.25 1252.58 42.1591 1253.12 42.1591C1253.83 42.1591 1254.46 42.3371 1255.01 42.6932C1255.56 43.0492 1256 43.5625 1256.31 44.233C1256.63 44.9034 1256.79 45.7102 1256.79 46.6534C1256.79 47.5966 1256.63 48.4053 1256.32 49.0795C1256 49.75 1255.57 50.267 1255.02 50.6307C1254.47 50.9905 1253.85 51.1705 1253.14 51.1705C1252.61 51.1705 1252.18 51.0814 1251.84 50.9034C1251.51 50.7254 1251.25 50.517 1251.06 50.2784C1250.87 50.0398 1250.72 49.8277 1250.62 49.642H1250.48V51H1248.82ZM1250.48 46.6364C1250.48 47.25 1250.57 47.7879 1250.75 48.25C1250.93 48.7121 1251.18 49.0739 1251.52 49.3352C1251.86 49.5928 1252.27 49.7216 1252.76 49.7216C1253.27 49.7216 1253.69 49.5871 1254.03 49.3182C1254.37 49.0455 1254.63 48.6761 1254.81 48.2102C1254.98 47.7443 1255.07 47.2197 1255.07 46.6364C1255.07 46.0606 1254.99 45.5436 1254.81 45.0852C1254.64 44.6269 1254.38 44.2652 1254.04 44C1253.7 43.7348 1253.27 43.6023 1252.76 43.6023C1252.27 43.6023 1251.85 43.7292 1251.51 43.983C1251.17 44.2367 1250.92 44.5909 1250.74 45.0455C1250.57 45.5 1250.48 46.0303 1250.48 46.6364ZM1262.37 51.1761C1261.55 51.1761 1260.84 50.9886 1260.23 50.6136C1259.62 50.2386 1259.15 49.714 1258.81 49.0398C1258.47 48.3655 1258.3 47.5777 1258.3 46.6761C1258.3 45.7708 1258.47 44.9792 1258.81 44.3011C1259.15 43.6231 1259.62 43.0966 1260.23 42.7216C1260.84 42.3466 1261.55 42.1591 1262.37 42.1591C1263.19 42.1591 1263.91 42.3466 1264.51 42.7216C1265.12 43.0966 1265.6 43.6231 1265.94 44.3011C1266.27 44.9792 1266.44 45.7708 1266.44 46.6761C1266.44 47.5777 1266.27 48.3655 1265.94 49.0398C1265.6 49.714 1265.12 50.2386 1264.51 50.6136C1263.91 50.9886 1263.19 51.1761 1262.37 51.1761ZM1262.38 49.75C1262.91 49.75 1263.35 49.6098 1263.7 49.3295C1264.05 49.0492 1264.3 48.6761 1264.47 48.2102C1264.64 47.7443 1264.73 47.2311 1264.73 46.6705C1264.73 46.1136 1264.64 45.6023 1264.47 45.1364C1264.3 44.6667 1264.05 44.2898 1263.7 44.0057C1263.35 43.7216 1262.91 43.5795 1262.38 43.5795C1261.84 43.5795 1261.4 43.7216 1261.05 44.0057C1260.7 44.2898 1260.44 44.6667 1260.27 45.1364C1260.1 45.6023 1260.02 46.1136 1260.02 46.6705C1260.02 47.2311 1260.1 47.7443 1260.27 48.2102C1260.44 48.6761 1260.7 49.0492 1261.05 49.3295C1261.4 49.6098 1261.84 49.75 1262.38 49.75ZM1273.87 47.3807V42.2727H1275.57V51H1273.9V49.4886H1273.81C1273.61 49.9545 1273.29 50.3428 1272.84 50.6534C1272.4 50.9602 1271.86 51.1136 1271.2 51.1136C1270.64 51.1136 1270.14 50.9905 1269.71 50.7443C1269.28 50.4943 1268.95 50.125 1268.7 49.6364C1268.46 49.1477 1268.34 48.5436 1268.34 47.8239V42.2727H1270.04V47.6193C1270.04 48.214 1270.2 48.6875 1270.53 49.0398C1270.86 49.392 1271.29 49.5682 1271.81 49.5682C1272.13 49.5682 1272.45 49.4886 1272.76 49.3295C1273.08 49.1705 1273.34 48.9299 1273.55 48.608C1273.77 48.286 1273.87 47.8769 1273.87 47.3807ZM1281.93 42.2727V43.6364H1277.16V42.2727H1281.93ZM1278.44 40.1818H1280.14V48.4375C1280.14 48.767 1280.19 49.0152 1280.28 49.1818C1280.38 49.3447 1280.51 49.4564 1280.67 49.517C1280.82 49.5739 1281 49.6023 1281.18 49.6023C1281.32 49.6023 1281.44 49.5928 1281.54 49.5739C1281.64 49.5549 1281.72 49.5398 1281.78 49.5284L1282.09 50.9318C1281.99 50.9697 1281.85 51.0076 1281.67 51.0455C1281.48 51.0871 1281.26 51.1098 1280.98 51.1136C1280.54 51.1212 1280.12 51.0417 1279.73 50.875C1279.35 50.7083 1279.03 50.4508 1278.8 50.1023C1278.56 49.7538 1278.44 49.3163 1278.44 48.7898V40.1818Z" fill="#111827"/>
<rect x="1323" y="23" width="1" height="44" fill="#D1D5DB"/>
<g filter="url(#filter0_d_8_883)">
<rect x="1364" y="25" width="83" height="40" rx="6" fill="white"/>
<rect x="1364.5" y="25.5" width="82" height="39" rx="5.5" stroke="#D1D5DB"/>
<path d="M1385.73 51V39.3636H1387.49V49.4886H1392.76V51H1385.73ZM1398.3 51.1761C1397.48 51.1761 1396.77 50.9886 1396.16 50.6136C1395.55 50.2386 1395.08 49.714 1394.74 49.0398C1394.4 48.3655 1394.23 47.5777 1394.23 46.6761C1394.23 45.7708 1394.4 44.9792 1394.74 44.3011C1395.08 43.6231 1395.55 43.0966 1396.16 42.7216C1396.77 42.3466 1397.48 42.1591 1398.3 42.1591C1399.12 42.1591 1399.83 42.3466 1400.44 42.7216C1401.05 43.0966 1401.53 43.6231 1401.87 44.3011C1402.2 44.9792 1402.37 45.7708 1402.37 46.6761C1402.37 47.5777 1402.2 48.3655 1401.87 49.0398C1401.53 49.714 1401.05 50.2386 1400.44 50.6136C1399.83 50.9886 1399.12 51.1761 1398.3 51.1761ZM1398.31 49.75C1398.84 49.75 1399.28 49.6098 1399.63 49.3295C1399.97 49.0492 1400.23 48.6761 1400.4 48.2102C1400.57 47.7443 1400.65 47.2311 1400.65 46.6705C1400.65 46.1136 1400.57 45.6023 1400.4 45.1364C1400.23 44.6667 1399.97 44.2898 1399.63 44.0057C1399.28 43.7216 1398.84 43.5795 1398.31 43.5795C1397.77 43.5795 1397.33 43.7216 1396.98 44.0057C1396.63 44.2898 1396.37 44.6667 1396.2 45.1364C1396.03 45.6023 1395.95 46.1136 1395.95 46.6705C1395.95 47.2311 1396.03 47.7443 1396.2 48.2102C1396.37 48.6761 1396.63 49.0492 1396.98 49.3295C1397.33 49.6098 1397.77 49.75 1398.31 49.75ZM1407.93 54.4545C1407.23 54.4545 1406.64 54.3636 1406.14 54.1818C1405.64 54 1405.23 53.7595 1404.92 53.4602C1404.61 53.161 1404.37 52.8333 1404.22 52.4773L1405.68 51.875C1405.78 52.0417 1405.91 52.2178 1406.09 52.4034C1406.26 52.5928 1406.49 52.7538 1406.79 52.8864C1407.09 53.0189 1407.47 53.0852 1407.94 53.0852C1408.59 53.0852 1409.12 52.928 1409.54 52.6136C1409.96 52.303 1410.17 51.8068 1410.17 51.125V49.4091H1410.06C1409.96 49.5947 1409.81 49.8011 1409.62 50.0284C1409.43 50.2557 1409.17 50.4527 1408.84 50.6193C1408.5 50.786 1408.07 50.8693 1407.53 50.8693C1406.84 50.8693 1406.22 50.7083 1405.67 50.3864C1405.12 50.0606 1404.69 49.5814 1404.36 48.9489C1404.05 48.3125 1403.89 47.5303 1403.89 46.6023C1403.89 45.6742 1404.04 44.8788 1404.36 44.2159C1404.68 43.553 1405.11 43.0455 1405.66 42.6932C1406.22 42.3371 1406.84 42.1591 1407.55 42.1591C1408.09 42.1591 1408.52 42.25 1408.86 42.4318C1409.19 42.6098 1409.45 42.8182 1409.64 43.0568C1409.83 43.2955 1409.97 43.5057 1410.07 43.6875H1410.2V42.2727H1411.86V51.1932C1411.86 51.9432 1411.69 52.5587 1411.34 53.0398C1410.99 53.5208 1410.52 53.8769 1409.93 54.108C1409.34 54.339 1408.67 54.4545 1407.93 54.4545ZM1407.91 49.4602C1408.4 49.4602 1408.81 49.3466 1409.15 49.1193C1409.49 48.8883 1409.75 48.5587 1409.92 48.1307C1410.1 47.6989 1410.19 47.1818 1410.19 46.5795C1410.19 45.9924 1410.1 45.4754 1409.93 45.0284C1409.75 44.5814 1409.5 44.233 1409.16 43.983C1408.82 43.7292 1408.41 43.6023 1407.91 43.6023C1407.4 43.6023 1406.97 43.7348 1406.63 44C1406.29 44.2614 1406.03 44.6174 1405.86 45.0682C1405.69 45.5189 1405.6 46.0227 1405.6 46.5795C1405.6 47.1515 1405.69 47.6534 1405.86 48.0852C1406.04 48.517 1406.3 48.8542 1406.64 49.0966C1406.98 49.339 1407.41 49.4602 1407.91 49.4602ZM1414.14 51V42.2727H1415.84V51H1414.14ZM1415 40.9261C1414.7 40.9261 1414.45 40.8277 1414.24 40.6307C1414.03 40.4299 1413.93 40.1913 1413.93 39.9148C1413.93 39.6345 1414.03 39.3958 1414.24 39.1989C1414.45 38.9981 1414.7 38.8977 1415 38.8977C1415.3 38.8977 1415.55 38.9981 1415.76 39.1989C1415.97 39.3958 1416.07 39.6345 1416.07 39.9148C1416.07 40.1913 1415.97 40.4299 1415.76 40.6307C1415.55 40.8277 1415.3 40.9261 1415 40.9261ZM1419.83 45.8182V51H1418.13V42.2727H1419.76V43.6932H1419.87C1420.07 43.2311 1420.38 42.8598 1420.81 42.5795C1421.24 42.2992 1421.78 42.1591 1422.44 42.1591C1423.03 42.1591 1423.55 42.2841 1424 42.5341C1424.45 42.7803 1424.79 43.1477 1425.04 43.6364C1425.29 44.125 1425.41 44.7292 1425.41 45.4489V51H1423.71V45.6534C1423.71 45.0208 1423.55 44.5265 1423.22 44.1705C1422.89 43.8106 1422.44 43.6307 1421.86 43.6307C1421.47 43.6307 1421.12 43.7159 1420.81 43.8864C1420.51 44.0568 1420.26 44.3068 1420.09 44.6364C1419.91 44.9621 1419.83 45.3561 1419.83 45.8182Z" fill="#374151"/>
</g>
<rect x="1459" y="25" width="98" height="40" rx="6" fill="#566FA7"/>
<path d="M1486.95 42.4205C1486.89 41.8826 1486.64 41.4659 1486.2 41.1705C1485.76 40.8712 1485.21 40.7216 1484.54 40.7216C1484.07 40.7216 1483.65 40.7973 1483.31 40.9489C1482.96 41.0966 1482.69 41.3011 1482.49 41.5625C1482.3 41.8201 1482.21 42.1136 1482.21 42.4432C1482.21 42.7197 1482.27 42.9583 1482.4 43.1591C1482.53 43.3598 1482.71 43.5284 1482.92 43.6648C1483.13 43.7973 1483.37 43.9091 1483.61 44C1483.86 44.0871 1484.1 44.1591 1484.32 44.2159L1485.46 44.5114C1485.83 44.6023 1486.21 44.7254 1486.6 44.8807C1486.99 45.036 1487.35 45.2405 1487.69 45.4943C1488.02 45.7481 1488.29 46.0625 1488.49 46.4375C1488.7 46.8125 1488.81 47.2614 1488.81 47.7841C1488.81 48.4432 1488.63 49.0284 1488.29 49.5398C1487.96 50.0511 1487.47 50.4545 1486.82 50.75C1486.18 51.0455 1485.41 51.1932 1484.5 51.1932C1483.63 51.1932 1482.87 51.0549 1482.24 50.7784C1481.6 50.5019 1481.1 50.1098 1480.74 49.6023C1480.38 49.0909 1480.18 48.4848 1480.15 47.7841H1481.91C1481.94 48.2045 1482.08 48.5549 1482.32 48.8352C1482.56 49.1117 1482.87 49.3182 1483.24 49.4545C1483.62 49.5871 1484.04 49.6534 1484.49 49.6534C1484.98 49.6534 1485.42 49.5758 1485.81 49.4205C1486.2 49.2614 1486.51 49.0417 1486.73 48.7614C1486.96 48.4773 1487.07 48.1458 1487.07 47.767C1487.07 47.4223 1486.97 47.1402 1486.77 46.9205C1486.58 46.7008 1486.31 46.5189 1485.98 46.375C1485.65 46.2311 1485.28 46.1042 1484.86 45.9943L1483.49 45.6193C1482.56 45.3655 1481.82 44.9924 1481.27 44.5C1480.73 44.0076 1480.46 43.3561 1480.46 42.5455C1480.46 41.875 1480.64 41.2898 1481 40.7898C1481.37 40.2898 1481.86 39.9015 1482.48 39.625C1483.1 39.3447 1483.8 39.2045 1484.58 39.2045C1485.37 39.2045 1486.07 39.3428 1486.67 39.6193C1487.28 39.8958 1487.75 40.2765 1488.1 40.7614C1488.45 41.2424 1488.63 41.7955 1488.65 42.4205H1486.95ZM1490.77 51V42.2727H1492.47V51H1490.77ZM1491.62 40.9261C1491.33 40.9261 1491.08 40.8277 1490.86 40.6307C1490.66 40.4299 1490.55 40.1913 1490.55 39.9148C1490.55 39.6345 1490.66 39.3958 1490.86 39.1989C1491.08 38.9981 1491.33 38.8977 1491.62 38.8977C1491.92 38.8977 1492.17 38.9981 1492.38 39.1989C1492.59 39.3958 1492.7 39.6345 1492.7 39.9148C1492.7 40.1913 1492.59 40.4299 1492.38 40.6307C1492.17 40.8277 1491.92 40.9261 1491.62 40.9261ZM1498.41 54.4545C1497.72 54.4545 1497.12 54.3636 1496.62 54.1818C1496.12 54 1495.72 53.7595 1495.4 53.4602C1495.09 53.161 1494.86 52.8333 1494.7 52.4773L1496.16 51.875C1496.26 52.0417 1496.4 52.2178 1496.57 52.4034C1496.74 52.5928 1496.98 52.7538 1497.27 52.8864C1497.57 53.0189 1497.96 53.0852 1498.43 53.0852C1499.07 53.0852 1499.6 52.928 1500.02 52.6136C1500.44 52.303 1500.65 51.8068 1500.65 51.125V49.4091H1500.55C1500.44 49.5947 1500.3 49.8011 1500.1 50.0284C1499.91 50.2557 1499.65 50.4527 1499.32 50.6193C1498.99 50.786 1498.55 50.8693 1498.02 50.8693C1497.33 50.8693 1496.71 50.7083 1496.15 50.3864C1495.61 50.0606 1495.17 49.5814 1494.85 48.9489C1494.53 48.3125 1494.37 47.5303 1494.37 46.6023C1494.37 45.6742 1494.53 44.8788 1494.84 44.2159C1495.16 43.553 1495.6 43.0455 1496.15 42.6932C1496.7 42.3371 1497.33 42.1591 1498.03 42.1591C1498.57 42.1591 1499.01 42.25 1499.34 42.4318C1499.68 42.6098 1499.94 42.8182 1500.12 43.0568C1500.31 43.2955 1500.46 43.5057 1500.56 43.6875H1500.68V42.2727H1502.35V51.1932C1502.35 51.9432 1502.17 52.5587 1501.83 53.0398C1501.48 53.5208 1501.01 53.8769 1500.41 54.108C1499.82 54.339 1499.15 54.4545 1498.41 54.4545ZM1498.39 49.4602C1498.88 49.4602 1499.29 49.3466 1499.63 49.1193C1499.97 48.8883 1500.23 48.5587 1500.4 48.1307C1500.58 47.6989 1500.67 47.1818 1500.67 46.5795C1500.67 45.9924 1500.58 45.4754 1500.41 45.0284C1500.24 44.5814 1499.98 44.233 1499.64 43.983C1499.31 43.7292 1498.89 43.6023 1498.39 43.6023C1497.88 43.6023 1497.46 43.7348 1497.12 44C1496.77 44.2614 1496.52 44.6174 1496.34 45.0682C1496.17 45.5189 1496.09 46.0227 1496.09 46.5795C1496.09 47.1515 1496.17 47.6534 1496.35 48.0852C1496.52 48.517 1496.78 48.8542 1497.12 49.0966C1497.47 49.339 1497.89 49.4602 1498.39 49.4602ZM1506.33 45.8182V51H1504.63V42.2727H1506.26V43.6932H1506.37C1506.57 43.2311 1506.88 42.8598 1507.31 42.5795C1507.74 42.2992 1508.28 42.1591 1508.94 42.1591C1509.53 42.1591 1510.05 42.2841 1510.5 42.5341C1510.95 42.7803 1511.29 43.1477 1511.54 43.6364C1511.79 44.125 1511.91 44.7292 1511.91 45.4489V51H1510.21V45.6534C1510.21 45.0208 1510.05 44.5265 1509.72 44.1705C1509.39 43.8106 1508.94 43.6307 1508.36 43.6307C1507.97 43.6307 1507.62 43.7159 1507.31 43.8864C1507.01 44.0568 1506.76 44.3068 1506.59 44.6364C1506.41 44.9621 1506.33 45.3561 1506.33 45.8182ZM1523.95 47.3807V42.2727H1525.66V51H1523.99V49.4886H1523.89C1523.69 49.9545 1523.37 50.3428 1522.93 50.6534C1522.49 50.9602 1521.94 51.1136 1521.29 51.1136C1520.73 51.1136 1520.23 50.9905 1519.8 50.7443C1519.37 50.4943 1519.03 50.125 1518.79 49.6364C1518.54 49.1477 1518.42 48.5436 1518.42 47.8239V42.2727H1520.12V47.6193C1520.12 48.214 1520.29 48.6875 1520.62 49.0398C1520.95 49.392 1521.37 49.5682 1521.9 49.5682C1522.22 49.5682 1522.54 49.4886 1522.85 49.3295C1523.17 49.1705 1523.43 48.9299 1523.64 48.608C1523.85 48.286 1523.96 47.8769 1523.95 47.3807ZM1527.94 54.2727V42.2727H1529.6V43.6875H1529.74C1529.84 43.5057 1529.98 43.2955 1530.17 43.0568C1530.35 42.8182 1530.61 42.6098 1530.94 42.4318C1531.27 42.25 1531.7 42.1591 1532.25 42.1591C1532.95 42.1591 1533.58 42.3371 1534.13 42.6932C1534.69 43.0492 1535.12 43.5625 1535.43 44.233C1535.75 44.9034 1535.91 45.7102 1535.91 46.6534C1535.91 47.5966 1535.75 48.4053 1535.44 49.0795C1535.12 49.75 1534.69 50.267 1534.14 50.6307C1533.59 50.9905 1532.97 51.1705 1532.26 51.1705C1531.73 51.1705 1531.3 51.0814 1530.96 50.9034C1530.63 50.7254 1530.37 50.517 1530.18 50.2784C1529.99 50.0398 1529.84 49.8277 1529.74 49.642H1529.64V54.2727H1527.94ZM1529.6 46.6364C1529.6 47.25 1529.69 47.7879 1529.87 48.25C1530.05 48.7121 1530.31 49.0739 1530.64 49.3352C1530.98 49.5928 1531.39 49.7216 1531.88 49.7216C1532.39 49.7216 1532.81 49.5871 1533.15 49.3182C1533.5 49.0455 1533.75 48.6761 1533.93 48.2102C1534.11 47.7443 1534.19 47.2197 1534.19 46.6364C1534.19 46.0606 1534.11 45.5436 1533.93 45.0852C1533.76 44.6269 1533.51 44.2652 1533.16 44C1532.82 43.7348 1532.39 43.6023 1531.88 43.6023C1531.39 43.6023 1530.97 43.7292 1530.63 43.983C1530.29 44.2367 1530.04 44.5909 1529.87 45.0455C1529.69 45.5 1529.6 46.0303 1529.6 46.6364Z" fill="white"/>
<defs>
<filter id="filter0_d_8_883" x="1362" y="24" width="87" height="44" filterUnits="userSpaceOnUse" color-interpolation-filters="sRGB">
<feFlood flood-opacity="0" result="BackgroundImageFix"/>
<feColorMatrix in="SourceAlpha" type="matrix" values="0 0 0 0 0 0 0 0 0 0 0 0 0 0 0 0 0 0 127 0" result="hardAlpha"/>
<feOffset dy="1"/>
<feGaussianBlur stdDeviation="1"/>
<feColorMatrix type="matrix" values="0 0 0 0 0.0627451 0 0 0 0 0.0941176 0 0 0 0 0.156863 0 0 0 0.05 0"/>
<feBlend mode="normal" in2="BackgroundImageFix" result="effect1_dropShadow_8_883"/>
<feBlend mode="normal" in="SourceGraphic" in2="effect1_dropShadow_8_883" result="shape"/>
</filter>
</defs>
</svg>
