<svg width="1728" height="1117" viewBox="0 0 1728 1117" fill="none" xmlns="http://www.w3.org/2000/svg">
<rect width="1728" height="1117" fill="#F2FF9E"/>
<rect width="1728" height="90" fill="#0F0F0F"/>
<path d="M81.3332 62.6954C86.1171 62.6954 89.9998 58.8128 89.9998 54.0288V36.6957C89.9998 41.4796 86.1171 45.3623 81.3332 45.3623" fill="#F2FF9E"/>
<path d="M81.3332 45.3623H64V62.6955H81.3332V45.3623Z" fill="#F2FF9E"/>
<path d="M98.6664 28.0291C93.8824 28.0291 89.9998 31.9117 89.9998 36.6956V54.0288C89.9998 49.2449 93.8824 45.3622 98.6664 45.3622" fill="#F2FF9E"/>
<path d="M98.6669 45.3331H116V28L98.6669 28V45.3331Z" fill="#F2FF9E"/>
<path d="M132.352 48.92L132.736 46.712L139.056 39.48H142.128L140.88 46.552H142.192L141.776 48.92H140.464L140.096 51H137.344L137.728 48.92H132.352ZM139.056 42.488L135.648 46.552H138.336L139.056 42.488ZM143.772 45.176C144.081 43.4053 144.679 42.0027 145.564 40.968C146.46 39.9227 147.697 39.4 149.276 39.4C150.545 39.4 151.473 39.7467 152.06 40.44C152.657 41.1227 152.956 42.0773 152.956 43.304C152.956 43.8053 152.892 44.4293 152.764 45.176C152.455 46.9467 151.852 48.3547 150.956 49.4C150.06 50.4347 148.823 50.952 147.244 50.952C145.975 50.952 145.047 50.6107 144.46 49.928C143.884 49.2347 143.596 48.2747 143.596 47.048C143.596 46.4827 143.655 45.8587 143.772 45.176ZM150.06 45.176C150.177 44.5147 150.236 43.9973 150.236 43.624C150.236 43.0907 150.129 42.68 149.916 42.392C149.703 42.104 149.34 41.96 148.828 41.96C148.092 41.96 147.553 42.2427 147.212 42.808C146.881 43.3733 146.631 44.1627 146.46 45.176C146.343 45.8373 146.284 46.3547 146.284 46.728C146.284 47.2613 146.391 47.672 146.604 47.96C146.817 48.248 147.18 48.392 147.692 48.392C148.428 48.392 148.961 48.1093 149.292 47.544C149.633 46.9787 149.889 46.1893 150.06 45.176ZM153.618 48.92L154.002 46.712L160.322 39.48H163.394L162.146 46.552H163.458L163.042 48.92H161.73L161.362 51H158.61L158.994 48.92H153.618ZM160.322 42.488L156.914 46.552H159.602L160.322 42.488ZM170.51 40.792C169.987 40.76 169.603 40.8347 169.358 41.016C169.123 41.1973 168.963 41.5227 168.878 41.992L168.862 42.072H170.334L169.934 44.344H168.462L167.294 51H164.542L165.71 44.344H164.718L165.118 42.072H166.11L166.158 41.816C166.36 40.7173 166.824 39.8853 167.55 39.32C168.286 38.744 169.262 38.456 170.478 38.456C170.67 38.456 170.814 38.4613 170.91 38.472L170.51 40.792ZM174.115 51.128C173.347 51.128 172.665 50.9733 172.067 50.664C171.47 50.3547 171.006 49.9173 170.675 49.352C170.355 48.7867 170.195 48.1307 170.195 47.384C170.195 46.3707 170.435 45.448 170.915 44.616C171.395 43.784 172.057 43.1333 172.899 42.664C173.742 42.184 174.681 41.944 175.715 41.944C176.483 41.944 177.166 42.104 177.763 42.424C178.371 42.7333 178.841 43.1707 179.171 43.736C179.502 44.3013 179.667 44.9573 179.667 45.704C179.667 46.728 179.422 47.656 178.931 48.488C178.451 49.3093 177.785 49.9547 176.931 50.424C176.089 50.8933 175.15 51.128 174.115 51.128ZM174.499 48.776C174.947 48.776 175.347 48.6427 175.699 48.376C176.062 48.0987 176.339 47.7467 176.531 47.32C176.734 46.8827 176.835 46.4293 176.835 45.96C176.835 45.4267 176.691 45.016 176.403 44.728C176.115 44.44 175.753 44.296 175.315 44.296C174.857 44.296 174.451 44.4347 174.099 44.712C173.758 44.9787 173.491 45.3307 173.299 45.768C173.107 46.2053 173.011 46.664 173.011 47.144C173.011 47.6667 173.15 48.072 173.427 48.36C173.705 48.6373 174.062 48.776 174.499 48.776ZM184.239 43.688C184.655 43.1547 185.13 42.7387 185.663 42.44C186.207 42.1307 186.772 41.976 187.359 41.976L186.847 44.872H186.095C185.412 44.872 184.874 45.0213 184.479 45.32C184.084 45.608 183.823 46.12 183.695 46.856L182.959 51H180.223L181.791 42.072H184.527L184.239 43.688ZM200.059 41.976C201.019 41.976 201.765 42.232 202.299 42.744C202.843 43.2453 203.115 43.9493 203.115 44.856C203.115 45.1333 203.083 45.4427 203.019 45.784L202.091 51H199.371L200.235 46.152C200.256 46.0453 200.267 45.9013 200.267 45.72C200.267 45.272 200.139 44.9307 199.883 44.696C199.637 44.4613 199.291 44.344 198.843 44.344C198.309 44.344 197.861 44.504 197.499 44.824C197.136 45.1333 196.907 45.576 196.811 46.152L195.947 51H193.227L194.091 46.152C194.112 46.0453 194.123 45.9013 194.123 45.72C194.123 45.272 193.995 44.9307 193.739 44.696C193.493 44.4613 193.147 44.344 192.699 44.344C192.165 44.344 191.717 44.504 191.355 44.824C190.992 45.1333 190.763 45.576 190.667 46.152V46.072L189.803 51H187.067L188.635 42.072H191.371L191.179 43.208C191.52 42.824 191.931 42.5253 192.411 42.312C192.901 42.088 193.429 41.976 193.995 41.976C194.677 41.976 195.253 42.12 195.723 42.408C196.203 42.696 196.544 43.112 196.747 43.656C197.141 43.1547 197.632 42.7493 198.219 42.44C198.805 42.1307 199.419 41.976 200.059 41.976ZM209.572 41.944C210.724 41.944 211.636 42.2587 212.308 42.888C212.991 43.5067 213.332 44.3547 213.332 45.432C213.332 45.784 213.305 46.0987 213.252 46.376C213.209 46.6213 213.145 46.8827 213.06 47.16H206.868C206.857 47.224 206.852 47.3253 206.852 47.464C206.852 47.9333 206.98 48.2907 207.236 48.536C207.492 48.7813 207.833 48.904 208.26 48.904C208.943 48.904 209.465 48.616 209.828 48.04H212.74C212.356 48.9467 211.732 49.688 210.868 50.264C210.004 50.84 209.033 51.128 207.956 51.128C206.804 51.128 205.881 50.808 205.188 50.168C204.505 49.528 204.164 48.6587 204.164 47.56C204.164 47.2293 204.196 46.888 204.26 46.536C204.42 45.608 204.751 44.7973 205.252 44.104C205.753 43.4107 206.377 42.8773 207.124 42.504C207.871 42.1307 208.687 41.944 209.572 41.944ZM210.564 45.768C210.585 45.6187 210.596 45.5173 210.596 45.464C210.596 45.0373 210.463 44.712 210.196 44.488C209.929 44.2533 209.577 44.136 209.14 44.136C208.671 44.136 208.255 44.28 207.892 44.568C207.54 44.8453 207.284 45.2453 207.124 45.768H210.564Z" fill="#F2FF9E"/>
<path d="M955.495 39.3636V51H953.739V39.3636H955.495ZM957.915 39.3636H959.614V48.6136C959.614 48.9886 959.662 49.2538 959.756 49.4091C959.855 49.5644 960.04 49.6383 960.313 49.6307C960.461 49.6269 960.571 49.6174 960.643 49.6023C960.719 49.5871 960.787 49.5701 960.847 49.5511L961.154 50.9091C961.037 50.9432 960.887 50.9754 960.705 51.0057C960.527 51.0398 960.325 51.0587 960.097 51.0625C959.362 51.0739 958.815 50.8996 958.455 50.5398C958.095 50.1799 957.915 49.6553 957.915 48.9659V39.3636ZM962.509 39.3636H964.208V48.6136C964.208 48.9886 964.255 49.2538 964.35 49.4091C964.449 49.5644 964.634 49.6383 964.907 49.6307C965.055 49.6269 965.165 49.6174 965.237 49.6023C965.312 49.5871 965.38 49.5701 965.441 49.5511L965.748 50.9091C965.63 50.9432 965.481 50.9754 965.299 51.0057C965.121 51.0398 964.918 51.0587 964.691 51.0625C963.956 51.0739 963.409 50.8996 963.049 50.5398C962.689 50.1799 962.509 49.6553 962.509 48.9659V39.3636ZM972.397 47.3807V42.2727H974.102V51H972.431V49.4886H972.34C972.139 49.9545 971.817 50.3428 971.374 50.6534C970.935 50.9602 970.388 51.1136 969.732 51.1136C969.172 51.1136 968.675 50.9905 968.244 50.7443C967.816 50.4943 967.478 50.125 967.232 49.6364C966.99 49.1477 966.869 48.5436 966.869 47.8239V42.2727H968.567V47.6193C968.567 48.214 968.732 48.6875 969.062 49.0398C969.391 49.392 969.819 49.5682 970.346 49.5682C970.664 49.5682 970.98 49.4886 971.295 49.3295C971.613 49.1705 971.876 48.9299 972.085 48.608C972.297 48.286 972.401 47.8769 972.397 47.3807ZM982.924 44.4034L981.384 44.6761C981.32 44.4792 981.218 44.2917 981.077 44.1136C980.941 43.9356 980.755 43.7898 980.521 43.6761C980.286 43.5625 979.992 43.5057 979.64 43.5057C979.159 43.5057 978.757 43.6136 978.435 43.8295C978.113 44.0417 977.952 44.3163 977.952 44.6534C977.952 44.9451 978.06 45.1799 978.276 45.358C978.492 45.536 978.841 45.6818 979.322 45.7955L980.708 46.1136C981.511 46.2992 982.11 46.5852 982.504 46.9716C982.897 47.358 983.094 47.8598 983.094 48.4773C983.094 49 982.943 49.4659 982.64 49.875C982.341 50.2803 981.922 50.5985 981.384 50.8295C980.85 51.0606 980.231 51.1761 979.526 51.1761C978.549 51.1761 977.752 50.9678 977.134 50.5511C976.517 50.1307 976.138 49.5341 975.998 48.7614L977.64 48.5114C977.742 48.9394 977.952 49.2633 978.271 49.483C978.589 49.6989 979.004 49.8068 979.515 49.8068C980.072 49.8068 980.517 49.6913 980.85 49.4602C981.183 49.2254 981.35 48.9394 981.35 48.6023C981.35 48.3295 981.248 48.1004 981.043 47.9148C980.843 47.7292 980.534 47.589 980.117 47.4943L978.64 47.1705C977.826 46.9848 977.223 46.6894 976.833 46.2841C976.447 45.8788 976.254 45.3655 976.254 44.7443C976.254 44.2292 976.397 43.7784 976.685 43.392C976.973 43.0057 977.371 42.7045 977.879 42.4886C978.386 42.2689 978.968 42.1591 979.623 42.1591C980.566 42.1591 981.308 42.3636 981.85 42.7727C982.392 43.178 982.75 43.7216 982.924 44.4034ZM989.036 42.2727V43.6364H984.269V42.2727H989.036ZM985.548 40.1818H987.246V48.4375C987.246 48.767 987.296 49.0152 987.394 49.1818C987.493 49.3447 987.62 49.4564 987.775 49.517C987.934 49.5739 988.106 49.6023 988.292 49.6023C988.428 49.6023 988.548 49.5928 988.65 49.5739C988.752 49.5549 988.832 49.5398 988.888 49.5284L989.195 50.9318C989.097 50.9697 988.957 51.0076 988.775 51.0455C988.593 51.0871 988.366 51.1098 988.093 51.1136C987.646 51.1212 987.229 51.0417 986.843 50.875C986.457 50.7083 986.144 50.4508 985.906 50.1023C985.667 49.7538 985.548 49.3163 985.548 48.7898V40.1818ZM990.915 51V42.2727H992.558V43.6591H992.648C992.808 43.1894 993.088 42.8201 993.489 42.5511C993.891 42.2784 994.349 42.142 994.864 42.142C995.103 42.142 995.317 42.1705 995.506 42.2273C995.696 42.2841 995.862 42.3617 996.006 42.4602L995.461 43.8807C995.359 43.8314 995.243 43.7917 995.114 43.7614C994.986 43.7273 994.838 43.7102 994.671 43.7102C994.277 43.7102 993.925 43.7955 993.614 43.9659C993.308 44.1326 993.063 44.3636 992.881 44.6591C992.703 44.9545 992.614 45.2917 992.614 45.6705V51H990.915ZM1000.21 51.1705C999.509 51.1705 998.88 50.9905 998.327 50.6307C997.778 50.267 997.346 49.75 997.032 49.0795C996.721 48.4053 996.566 47.5966 996.566 46.6534C996.566 45.7102 996.723 44.9034 997.038 44.233C997.356 43.5625 997.791 43.0492 998.344 42.6932C998.897 42.3371 999.524 42.1591 1000.23 42.1591C1000.77 42.1591 1001.2 42.25 1001.53 42.4318C1001.87 42.6098 1002.12 42.8182 1002.3 43.0568C1002.49 43.2955 1002.63 43.5057 1002.74 43.6875H1002.84V42.2727H1004.54V51H1002.88V49.642H1002.74C1002.63 49.8277 1002.49 50.0398 1002.29 50.2784C1002.1 50.517 1001.84 50.7254 1001.51 50.9034C1001.18 51.0814 1000.74 51.1705 1000.21 51.1705ZM1000.59 49.7216C1001.08 49.7216 1001.49 49.5928 1001.83 49.3352C1002.17 49.0739 1002.43 48.7121 1002.6 48.25C1002.78 47.7879 1002.87 47.25 1002.87 46.6364C1002.87 46.0303 1002.78 45.5 1002.61 45.0455C1002.43 44.5909 1002.18 44.2367 1001.84 43.983C1001.5 43.7292 1001.08 43.6023 1000.59 43.6023C1000.08 43.6023 999.651 43.7348 999.31 44C998.969 44.2652 998.712 44.6269 998.538 45.0852C998.367 45.5436 998.282 46.0606 998.282 46.6364C998.282 47.2197 998.369 47.7443 998.543 48.2102C998.718 48.6761 998.975 49.0455 999.316 49.3182C999.661 49.5871 1000.08 49.7216 1000.59 49.7216ZM1011.04 42.2727V43.6364H1006.27V42.2727H1011.04ZM1007.55 40.1818H1009.25V48.4375C1009.25 48.767 1009.3 49.0152 1009.39 49.1818C1009.49 49.3447 1009.62 49.4564 1009.77 49.517C1009.93 49.5739 1010.11 49.6023 1010.29 49.6023C1010.43 49.6023 1010.55 49.5928 1010.65 49.5739C1010.75 49.5549 1010.83 49.5398 1010.89 49.5284L1011.2 50.9318C1011.1 50.9697 1010.96 51.0076 1010.77 51.0455C1010.59 51.0871 1010.37 51.1098 1010.09 51.1136C1009.65 51.1212 1009.23 51.0417 1008.84 50.875C1008.46 50.7083 1008.14 50.4508 1007.91 50.1023C1007.67 49.7538 1007.55 49.3163 1007.55 48.7898V40.1818ZM1012.92 51V42.2727H1014.61V51H1012.92ZM1013.77 40.9261C1013.48 40.9261 1013.22 40.8277 1013.01 40.6307C1012.8 40.4299 1012.7 40.1913 1012.7 39.9148C1012.7 39.6345 1012.8 39.3958 1013.01 39.1989C1013.22 38.9981 1013.48 38.8977 1013.77 38.8977C1014.07 38.8977 1014.32 38.9981 1014.53 39.1989C1014.74 39.3958 1014.85 39.6345 1014.85 39.9148C1014.85 40.1913 1014.74 40.4299 1014.53 40.6307C1014.32 40.8277 1014.07 40.9261 1013.77 40.9261ZM1020.58 51.1761C1019.76 51.1761 1019.04 50.9886 1018.43 50.6136C1017.82 50.2386 1017.35 49.714 1017.01 49.0398C1016.68 48.3655 1016.51 47.5777 1016.51 46.6761C1016.51 45.7708 1016.68 44.9792 1017.01 44.3011C1017.35 43.6231 1017.82 43.0966 1018.43 42.7216C1019.04 42.3466 1019.76 42.1591 1020.58 42.1591C1021.39 42.1591 1022.11 42.3466 1022.72 42.7216C1023.33 43.0966 1023.8 43.6231 1024.14 44.3011C1024.48 44.9792 1024.64 45.7708 1024.64 46.6761C1024.64 47.5777 1024.48 48.3655 1024.14 49.0398C1023.8 49.714 1023.33 50.2386 1022.72 50.6136C1022.11 50.9886 1021.39 51.1761 1020.58 51.1761ZM1020.58 49.75C1021.11 49.75 1021.55 49.6098 1021.9 49.3295C1022.25 49.0492 1022.51 48.6761 1022.67 48.2102C1022.84 47.7443 1022.93 47.2311 1022.93 46.6705C1022.93 46.1136 1022.84 45.6023 1022.67 45.1364C1022.51 44.6667 1022.25 44.2898 1021.9 44.0057C1021.55 43.7216 1021.11 43.5795 1020.58 43.5795C1020.05 43.5795 1019.6 43.7216 1019.25 44.0057C1018.9 44.2898 1018.64 44.6667 1018.47 45.1364C1018.31 45.6023 1018.22 46.1136 1018.22 46.6705C1018.22 47.2311 1018.31 47.7443 1018.47 48.2102C1018.64 48.6761 1018.9 49.0492 1019.25 49.3295C1019.6 49.6098 1020.05 49.75 1020.58 49.75ZM1028.24 45.8182V51H1026.54V42.2727H1028.17V43.6932H1028.28C1028.48 43.2311 1028.79 42.8598 1029.22 42.5795C1029.65 42.2992 1030.2 42.1591 1030.85 42.1591C1031.45 42.1591 1031.97 42.2841 1032.42 42.5341C1032.86 42.7803 1033.21 43.1477 1033.46 43.6364C1033.7 44.125 1033.82 44.7292 1033.82 45.4489V51H1032.13V45.6534C1032.13 45.0208 1031.96 44.5265 1031.63 44.1705C1031.3 43.8106 1030.85 43.6307 1030.27 43.6307C1029.88 43.6307 1029.53 43.7159 1029.22 43.8864C1028.92 44.0568 1028.68 44.3068 1028.5 44.6364C1028.33 44.9621 1028.24 45.3561 1028.24 45.8182ZM1042.64 44.4034L1041.1 44.6761C1041.04 44.4792 1040.94 44.2917 1040.8 44.1136C1040.66 43.9356 1040.47 43.7898 1040.24 43.6761C1040 43.5625 1039.71 43.5057 1039.36 43.5057C1038.88 43.5057 1038.48 43.6136 1038.15 43.8295C1037.83 44.0417 1037.67 44.3163 1037.67 44.6534C1037.67 44.9451 1037.78 45.1799 1038 45.358C1038.21 45.536 1038.56 45.6818 1039.04 45.7955L1040.43 46.1136C1041.23 46.2992 1041.83 46.5852 1042.22 46.9716C1042.62 47.358 1042.81 47.8598 1042.81 48.4773C1042.81 49 1042.66 49.4659 1042.36 49.875C1042.06 50.2803 1041.64 50.5985 1041.1 50.8295C1040.57 51.0606 1039.95 51.1761 1039.25 51.1761C1038.27 51.1761 1037.47 50.9678 1036.85 50.5511C1036.24 50.1307 1035.86 49.5341 1035.72 48.7614L1037.36 48.5114C1037.46 48.9394 1037.67 49.2633 1037.99 49.483C1038.31 49.6989 1038.72 49.8068 1039.23 49.8068C1039.79 49.8068 1040.24 49.6913 1040.57 49.4602C1040.9 49.2254 1041.07 48.9394 1041.07 48.6023C1041.07 48.3295 1040.97 48.1004 1040.76 47.9148C1040.56 47.7292 1040.25 47.589 1039.84 47.4943L1038.36 47.1705C1037.54 46.9848 1036.94 46.6894 1036.55 46.2841C1036.17 45.8788 1035.97 45.3655 1035.97 44.7443C1035.97 44.2292 1036.12 43.7784 1036.4 43.392C1036.69 43.0057 1037.09 42.7045 1037.6 42.4886C1038.1 42.2689 1038.69 42.1591 1039.34 42.1591C1040.28 42.1591 1041.03 42.3636 1041.57 42.7727C1042.11 43.178 1042.47 43.7216 1042.64 44.4034Z" fill="white"/>
<path d="M1065 43L1060 48L1055 43" stroke="white" stroke-width="1.39167" stroke-linecap="round" stroke-linejoin="round"/>
<path d="M1099.1 51H1095.33V39.3636H1099.22C1100.36 39.3636 1101.34 39.5966 1102.16 40.0625C1102.98 40.5246 1103.6 41.1894 1104.04 42.0568C1104.48 42.9205 1104.7 43.9564 1104.7 45.1648C1104.7 46.3769 1104.48 47.4186 1104.03 48.2898C1103.59 49.161 1102.96 49.8314 1102.12 50.3011C1101.29 50.767 1100.28 51 1099.1 51ZM1097.09 49.4659H1099C1099.89 49.4659 1100.63 49.2992 1101.21 48.9659C1101.8 48.6288 1102.24 48.142 1102.53 47.5057C1102.82 46.8655 1102.97 46.0852 1102.97 45.1648C1102.97 44.2519 1102.82 43.4773 1102.53 42.8409C1102.24 42.2045 1101.81 41.7216 1101.24 41.392C1100.67 41.0625 1099.96 40.8977 1099.11 40.8977H1097.09V49.4659ZM1110.42 51.1761C1109.6 51.1761 1108.89 50.9886 1108.28 50.6136C1107.67 50.2386 1107.19 49.714 1106.86 49.0398C1106.52 48.3655 1106.35 47.5777 1106.35 46.6761C1106.35 45.7708 1106.52 44.9792 1106.86 44.3011C1107.19 43.6231 1107.67 43.0966 1108.28 42.7216C1108.89 42.3466 1109.6 42.1591 1110.42 42.1591C1111.24 42.1591 1111.95 42.3466 1112.56 42.7216C1113.17 43.0966 1113.65 43.6231 1113.98 44.3011C1114.32 44.9792 1114.49 45.7708 1114.49 46.6761C1114.49 47.5777 1114.32 48.3655 1113.98 49.0398C1113.65 49.714 1113.17 50.2386 1112.56 50.6136C1111.95 50.9886 1111.24 51.1761 1110.42 51.1761ZM1110.43 49.75C1110.96 49.75 1111.4 49.6098 1111.74 49.3295C1112.09 49.0492 1112.35 48.6761 1112.52 48.2102C1112.69 47.7443 1112.77 47.2311 1112.77 46.6705C1112.77 46.1136 1112.69 45.6023 1112.52 45.1364C1112.35 44.6667 1112.09 44.2898 1111.74 44.0057C1111.4 43.7216 1110.96 43.5795 1110.43 43.5795C1109.89 43.5795 1109.45 43.7216 1109.1 44.0057C1108.75 44.2898 1108.49 44.6667 1108.32 45.1364C1108.15 45.6023 1108.07 46.1136 1108.07 46.6705C1108.07 47.2311 1108.15 47.7443 1108.32 48.2102C1108.49 48.6761 1108.75 49.0492 1109.1 49.3295C1109.45 49.6098 1109.89 49.75 1110.43 49.75ZM1120.06 51.1761C1119.22 51.1761 1118.49 50.9848 1117.88 50.6023C1117.27 50.2159 1116.81 49.6837 1116.48 49.0057C1116.16 48.3277 1115.99 47.5511 1115.99 46.6761C1115.99 45.7898 1116.16 45.0076 1116.49 44.3295C1116.83 43.6477 1117.3 43.1155 1117.9 42.733C1118.51 42.3504 1119.22 42.1591 1120.04 42.1591C1120.71 42.1591 1121.3 42.2822 1121.82 42.5284C1122.33 42.7708 1122.75 43.1117 1123.07 43.5511C1123.39 43.9905 1123.58 44.5038 1123.65 45.0909H1121.99C1121.9 44.6818 1121.69 44.3295 1121.37 44.0341C1121.05 43.7386 1120.61 43.5909 1120.07 43.5909C1119.6 43.5909 1119.18 43.7159 1118.83 43.9659C1118.48 44.2121 1118.2 44.5644 1118 45.0227C1117.81 45.4773 1117.71 46.0152 1117.71 46.6364C1117.71 47.2727 1117.8 47.822 1118 48.2841C1118.19 48.7462 1118.46 49.1042 1118.82 49.358C1119.17 49.6117 1119.59 49.7386 1120.07 49.7386C1120.39 49.7386 1120.69 49.6799 1120.95 49.5625C1121.21 49.4413 1121.43 49.2689 1121.61 49.0455C1121.79 48.822 1121.92 48.553 1121.99 48.2386H1123.65C1123.58 48.803 1123.4 49.3068 1123.09 49.75C1122.79 50.1932 1122.38 50.5417 1121.86 50.7955C1121.35 51.0492 1120.75 51.1761 1120.06 51.1761ZM1130.99 47.3807V42.2727H1132.7V51H1131.02V49.4886H1130.93C1130.73 49.9545 1130.41 50.3428 1129.97 50.6534C1129.53 50.9602 1128.98 51.1136 1128.33 51.1136C1127.77 51.1136 1127.27 50.9905 1126.84 50.7443C1126.41 50.4943 1126.07 50.125 1125.83 49.6364C1125.58 49.1477 1125.46 48.5436 1125.46 47.8239V42.2727H1127.16V47.6193C1127.16 48.214 1127.33 48.6875 1127.66 49.0398C1127.99 49.392 1128.41 49.5682 1128.94 49.5682C1129.26 49.5682 1129.57 49.4886 1129.89 49.3295C1130.21 49.1705 1130.47 48.9299 1130.68 48.608C1130.89 48.286 1130.99 47.8769 1130.99 47.3807ZM1134.98 51V42.2727H1136.61V43.6932H1136.72C1136.9 43.2121 1137.2 42.8371 1137.61 42.5682C1138.02 42.2955 1138.52 42.1591 1139.09 42.1591C1139.67 42.1591 1140.16 42.2955 1140.56 42.5682C1140.96 42.8409 1141.25 43.2159 1141.44 43.6932H1141.53C1141.74 43.2273 1142.07 42.8561 1142.52 42.5795C1142.98 42.2992 1143.52 42.1591 1144.15 42.1591C1144.94 42.1591 1145.59 42.4072 1146.09 42.9034C1146.59 43.3996 1146.84 44.1477 1146.84 45.1477V51H1145.14V45.3068C1145.14 44.7159 1144.98 44.2879 1144.66 44.0227C1144.34 43.7576 1143.95 43.625 1143.51 43.625C1142.95 43.625 1142.52 43.7955 1142.22 44.1364C1141.91 44.4735 1141.76 44.9072 1141.76 45.4375V51H1140.06V45.1989C1140.06 44.7254 1139.92 44.3447 1139.62 44.0568C1139.32 43.7689 1138.94 43.625 1138.47 43.625C1138.14 43.625 1137.85 43.7102 1137.57 43.8807C1137.31 44.0473 1137.09 44.2803 1136.92 44.5795C1136.76 44.8788 1136.68 45.2254 1136.68 45.6193V51H1134.98ZM1152.88 51.1761C1152.02 51.1761 1151.28 50.9924 1150.66 50.625C1150.04 50.2538 1149.56 49.733 1149.23 49.0625C1148.89 48.3883 1148.73 47.5985 1148.73 46.6932C1148.73 45.7992 1148.89 45.0114 1149.23 44.3295C1149.56 43.6477 1150.03 43.1155 1150.64 42.733C1151.24 42.3504 1151.95 42.1591 1152.76 42.1591C1153.25 42.1591 1153.73 42.2405 1154.19 42.4034C1154.65 42.5663 1155.07 42.822 1155.44 43.1705C1155.8 43.5189 1156.09 43.9716 1156.31 44.5284C1156.52 45.0814 1156.62 45.7538 1156.62 46.5455V47.1477H1149.69V45.875H1154.96C1154.96 45.428 1154.87 45.0322 1154.69 44.6875C1154.5 44.339 1154.25 44.0644 1153.92 43.8636C1153.59 43.6629 1153.21 43.5625 1152.77 43.5625C1152.29 43.5625 1151.88 43.6799 1151.52 43.9148C1151.17 44.1458 1150.9 44.4489 1150.7 44.8239C1150.51 45.1951 1150.42 45.5985 1150.42 46.0341V47.0284C1150.42 47.6117 1150.52 48.108 1150.73 48.517C1150.93 48.9261 1151.22 49.2386 1151.6 49.4545C1151.97 49.6667 1152.4 49.7727 1152.9 49.7727C1153.22 49.7727 1153.51 49.7273 1153.78 49.6364C1154.04 49.5417 1154.27 49.4015 1154.47 49.2159C1154.66 49.0303 1154.81 48.8011 1154.91 48.5284L1156.52 48.8182C1156.39 49.2917 1156.16 49.7064 1155.82 50.0625C1155.49 50.4148 1155.08 50.6894 1154.58 50.8864C1154.08 51.0795 1153.52 51.1761 1152.88 51.1761ZM1160.21 45.8182V51H1158.51V42.2727H1160.14V43.6932H1160.25C1160.45 43.2311 1160.76 42.8598 1161.19 42.5795C1161.62 42.2992 1162.17 42.1591 1162.82 42.1591C1163.42 42.1591 1163.94 42.2841 1164.38 42.5341C1164.83 42.7803 1165.18 43.1477 1165.42 43.6364C1165.67 44.125 1165.79 44.7292 1165.79 45.4489V51H1164.09V45.6534C1164.09 45.0208 1163.93 44.5265 1163.6 44.1705C1163.27 43.8106 1162.82 43.6307 1162.24 43.6307C1161.85 43.6307 1161.5 43.7159 1161.19 43.8864C1160.89 44.0568 1160.65 44.3068 1160.47 44.6364C1160.3 44.9621 1160.21 45.3561 1160.21 45.8182ZM1172.15 42.2727V43.6364H1167.38V42.2727H1172.15ZM1168.66 40.1818H1170.36V48.4375C1170.36 48.767 1170.41 49.0152 1170.5 49.1818C1170.6 49.3447 1170.73 49.4564 1170.88 49.517C1171.04 49.5739 1171.22 49.6023 1171.4 49.6023C1171.54 49.6023 1171.66 49.5928 1171.76 49.5739C1171.86 49.5549 1171.94 49.5398 1172 49.5284L1172.3 50.9318C1172.21 50.9697 1172.07 51.0076 1171.88 51.0455C1171.7 51.0871 1171.48 51.1098 1171.2 51.1136C1170.76 51.1212 1170.34 51.0417 1169.95 50.875C1169.57 50.7083 1169.25 50.4508 1169.01 50.1023C1168.78 49.7538 1168.66 49.3163 1168.66 48.7898V40.1818ZM1177.2 51.1705C1176.49 51.1705 1175.86 50.9905 1175.31 50.6307C1174.76 50.267 1174.33 49.75 1174.02 49.0795C1173.71 48.4053 1173.55 47.5966 1173.55 46.6534C1173.55 45.7102 1173.71 44.9034 1174.02 44.233C1174.34 43.5625 1174.78 43.0492 1175.33 42.6932C1175.88 42.3371 1176.51 42.1591 1177.21 42.1591C1177.75 42.1591 1178.19 42.25 1178.52 42.4318C1178.85 42.6098 1179.11 42.8182 1179.29 43.0568C1179.47 43.2955 1179.62 43.5057 1179.72 43.6875H1179.82V42.2727H1181.52V51H1179.86V49.642H1179.72C1179.62 49.8277 1179.47 50.0398 1179.28 50.2784C1179.09 50.517 1178.83 50.7254 1178.49 50.9034C1178.16 51.0814 1177.73 51.1705 1177.2 51.1705ZM1177.57 49.7216C1178.06 49.7216 1178.47 49.5928 1178.81 49.3352C1179.15 49.0739 1179.41 48.7121 1179.58 48.25C1179.76 47.7879 1179.85 47.25 1179.85 46.6364C1179.85 46.0303 1179.76 45.5 1179.59 45.0455C1179.42 44.5909 1179.16 44.2367 1178.82 43.983C1178.49 43.7292 1178.07 43.6023 1177.57 43.6023C1177.06 43.6023 1176.64 43.7348 1176.29 44C1175.95 44.2652 1175.7 44.6269 1175.52 45.0852C1175.35 45.5436 1175.27 46.0606 1175.27 46.6364C1175.27 47.2197 1175.35 47.7443 1175.53 48.2102C1175.7 48.6761 1175.96 49.0455 1176.3 49.3182C1176.65 49.5871 1177.07 49.7216 1177.57 49.7216ZM1188.02 42.2727V43.6364H1183.25V42.2727H1188.02ZM1184.53 40.1818H1186.23V48.4375C1186.23 48.767 1186.28 49.0152 1186.38 49.1818C1186.48 49.3447 1186.6 49.4564 1186.76 49.517C1186.92 49.5739 1187.09 49.6023 1187.28 49.6023C1187.41 49.6023 1187.53 49.5928 1187.63 49.5739C1187.74 49.5549 1187.82 49.5398 1187.87 49.5284L1188.18 50.9318C1188.08 50.9697 1187.94 51.0076 1187.76 51.0455C1187.58 51.0871 1187.35 51.1098 1187.08 51.1136C1186.63 51.1212 1186.21 51.0417 1185.83 50.875C1185.44 50.7083 1185.13 50.4508 1184.89 50.1023C1184.65 49.7538 1184.53 49.3163 1184.53 48.7898V40.1818ZM1189.9 51V42.2727H1191.6V51H1189.9ZM1190.76 40.9261C1190.46 40.9261 1190.21 40.8277 1190 40.6307C1189.79 40.4299 1189.68 40.1913 1189.68 39.9148C1189.68 39.6345 1189.79 39.3958 1190 39.1989C1190.21 38.9981 1190.46 38.8977 1190.76 38.8977C1191.05 38.8977 1191.31 38.9981 1191.51 39.1989C1191.73 39.3958 1191.83 39.6345 1191.83 39.9148C1191.83 40.1913 1191.73 40.4299 1191.51 40.6307C1191.31 40.8277 1191.05 40.9261 1190.76 40.9261ZM1197.56 51.1761C1196.74 51.1761 1196.03 50.9886 1195.42 50.6136C1194.81 50.2386 1194.33 49.714 1194 49.0398C1193.66 48.3655 1193.49 47.5777 1193.49 46.6761C1193.49 45.7708 1193.66 44.9792 1194 44.3011C1194.33 43.6231 1194.81 43.0966 1195.42 42.7216C1196.03 42.3466 1196.74 42.1591 1197.56 42.1591C1198.38 42.1591 1199.09 42.3466 1199.7 42.7216C1200.31 43.0966 1200.79 43.6231 1201.12 44.3011C1201.46 44.9792 1201.63 45.7708 1201.63 46.6761C1201.63 47.5777 1201.46 48.3655 1201.12 49.0398C1200.79 49.714 1200.31 50.2386 1199.7 50.6136C1199.09 50.9886 1198.38 51.1761 1197.56 51.1761ZM1197.57 49.75C1198.1 49.75 1198.54 49.6098 1198.88 49.3295C1199.23 49.0492 1199.49 48.6761 1199.66 48.2102C1199.83 47.7443 1199.91 47.2311 1199.91 46.6705C1199.91 46.1136 1199.83 45.6023 1199.66 45.1364C1199.49 44.6667 1199.23 44.2898 1198.88 44.0057C1198.54 43.7216 1198.1 43.5795 1197.57 43.5795C1197.03 43.5795 1196.59 43.7216 1196.24 44.0057C1195.89 44.2898 1195.63 44.6667 1195.46 45.1364C1195.29 45.6023 1195.21 46.1136 1195.21 46.6705C1195.21 47.2311 1195.29 47.7443 1195.46 48.2102C1195.63 48.6761 1195.89 49.0492 1196.24 49.3295C1196.59 49.6098 1197.03 49.75 1197.57 49.75ZM1205.22 45.8182V51H1203.52V42.2727H1205.16V43.6932H1205.26C1205.46 43.2311 1205.78 42.8598 1206.21 42.5795C1206.64 42.2992 1207.18 42.1591 1207.84 42.1591C1208.43 42.1591 1208.95 42.2841 1209.4 42.5341C1209.85 42.7803 1210.19 43.1477 1210.44 43.6364C1210.69 44.125 1210.81 44.7292 1210.81 45.4489V51H1209.11V45.6534C1209.11 45.0208 1208.95 44.5265 1208.62 44.1705C1208.29 43.8106 1207.83 43.6307 1207.26 43.6307C1206.86 43.6307 1206.51 43.7159 1206.21 43.8864C1205.9 44.0568 1205.66 44.3068 1205.49 44.6364C1205.31 44.9621 1205.22 45.3561 1205.22 45.8182Z" fill="white"/>
<path d="M1238.6 51H1236.73L1240.92 39.3636H1242.95L1247.14 51H1245.27L1241.98 41.4773H1241.89L1238.6 51ZM1238.91 46.4432H1244.96V47.9205H1238.91V46.4432ZM1248.82 51V39.3636H1250.52V43.6875H1250.62C1250.72 43.5057 1250.86 43.2955 1251.04 43.0568C1251.23 42.8182 1251.49 42.6098 1251.82 42.4318C1252.15 42.25 1252.58 42.1591 1253.12 42.1591C1253.83 42.1591 1254.46 42.3371 1255.01 42.6932C1255.56 43.0492 1256 43.5625 1256.31 44.233C1256.63 44.9034 1256.79 45.7102 1256.79 46.6534C1256.79 47.5966 1256.63 48.4053 1256.32 49.0795C1256 49.75 1255.57 50.267 1255.02 50.6307C1254.47 50.9905 1253.85 51.1705 1253.14 51.1705C1252.61 51.1705 1252.18 51.0814 1251.84 50.9034C1251.51 50.7254 1251.25 50.517 1251.06 50.2784C1250.87 50.0398 1250.72 49.8277 1250.62 49.642H1250.48V51H1248.82ZM1250.48 46.6364C1250.48 47.25 1250.57 47.7879 1250.75 48.25C1250.93 48.7121 1251.18 49.0739 1251.52 49.3352C1251.86 49.5928 1252.27 49.7216 1252.76 49.7216C1253.27 49.7216 1253.69 49.5871 1254.03 49.3182C1254.37 49.0455 1254.63 48.6761 1254.81 48.2102C1254.98 47.7443 1255.07 47.2197 1255.07 46.6364C1255.07 46.0606 1254.99 45.5436 1254.81 45.0852C1254.64 44.6269 1254.38 44.2652 1254.04 44C1253.7 43.7348 1253.27 43.6023 1252.76 43.6023C1252.27 43.6023 1251.85 43.7292 1251.51 43.983C1251.17 44.2367 1250.92 44.5909 1250.74 45.0455C1250.57 45.5 1250.48 46.0303 1250.48 46.6364ZM1262.37 51.1761C1261.55 51.1761 1260.84 50.9886 1260.23 50.6136C1259.62 50.2386 1259.15 49.714 1258.81 49.0398C1258.47 48.3655 1258.3 47.5777 1258.3 46.6761C1258.3 45.7708 1258.47 44.9792 1258.81 44.3011C1259.15 43.6231 1259.62 43.0966 1260.23 42.7216C1260.84 42.3466 1261.55 42.1591 1262.37 42.1591C1263.19 42.1591 1263.91 42.3466 1264.51 42.7216C1265.12 43.0966 1265.6 43.6231 1265.94 44.3011C1266.27 44.9792 1266.44 45.7708 1266.44 46.6761C1266.44 47.5777 1266.27 48.3655 1265.94 49.0398C1265.6 49.714 1265.12 50.2386 1264.51 50.6136C1263.91 50.9886 1263.19 51.1761 1262.37 51.1761ZM1262.38 49.75C1262.91 49.75 1263.35 49.6098 1263.7 49.3295C1264.05 49.0492 1264.3 48.6761 1264.47 48.2102C1264.64 47.7443 1264.73 47.2311 1264.73 46.6705C1264.73 46.1136 1264.64 45.6023 1264.47 45.1364C1264.3 44.6667 1264.05 44.2898 1263.7 44.0057C1263.35 43.7216 1262.91 43.5795 1262.38 43.5795C1261.84 43.5795 1261.4 43.7216 1261.05 44.0057C1260.7 44.2898 1260.44 44.6667 1260.27 45.1364C1260.1 45.6023 1260.02 46.1136 1260.02 46.6705C1260.02 47.2311 1260.1 47.7443 1260.27 48.2102C1260.44 48.6761 1260.7 49.0492 1261.05 49.3295C1261.4 49.6098 1261.84 49.75 1262.38 49.75ZM1273.87 47.3807V42.2727H1275.57V51H1273.9V49.4886H1273.81C1273.61 49.9545 1273.29 50.3428 1272.84 50.6534C1272.4 50.9602 1271.86 51.1136 1271.2 51.1136C1270.64 51.1136 1270.14 50.9905 1269.71 50.7443C1269.28 50.4943 1268.95 50.125 1268.7 49.6364C1268.46 49.1477 1268.34 48.5436 1268.34 47.8239V42.2727H1270.04V47.6193C1270.04 48.214 1270.2 48.6875 1270.53 49.0398C1270.86 49.392 1271.29 49.5682 1271.81 49.5682C1272.13 49.5682 1272.45 49.4886 1272.76 49.3295C1273.08 49.1705 1273.34 48.9299 1273.55 48.608C1273.77 48.286 1273.87 47.8769 1273.87 47.3807ZM1281.93 42.2727V43.6364H1277.16V42.2727H1281.93ZM1278.44 40.1818H1280.14V48.4375C1280.14 48.767 1280.19 49.0152 1280.28 49.1818C1280.38 49.3447 1280.51 49.4564 1280.67 49.517C1280.82 49.5739 1281 49.6023 1281.18 49.6023C1281.32 49.6023 1281.44 49.5928 1281.54 49.5739C1281.64 49.5549 1281.72 49.5398 1281.78 49.5284L1282.09 50.9318C1281.99 50.9697 1281.85 51.0076 1281.67 51.0455C1281.48 51.0871 1281.26 51.1098 1280.98 51.1136C1280.54 51.1212 1280.12 51.0417 1279.73 50.875C1279.35 50.7083 1279.03 50.4508 1278.8 50.1023C1278.56 49.7538 1278.44 49.3163 1278.44 48.7898V40.1818Z" fill="white"/>
<rect x="1323" y="23" width="1" height="44" fill="#D1D5DB"/>
<g filter="url(#filter0_d_7_19371)">
<rect x="1364" y="25" width="83" height="40" rx="6" fill="white"/>
<rect x="1364.5" y="25.5" width="82" height="39" rx="5.5" stroke="#D1D5DB"/>
<path d="M1385.73 51V39.3636H1387.49V49.4886H1392.76V51H1385.73ZM1398.3 51.1761C1397.48 51.1761 1396.77 50.9886 1396.16 50.6136C1395.55 50.2386 1395.08 49.714 1394.74 49.0398C1394.4 48.3655 1394.23 47.5777 1394.23 46.6761C1394.23 45.7708 1394.4 44.9792 1394.74 44.3011C1395.08 43.6231 1395.55 43.0966 1396.16 42.7216C1396.77 42.3466 1397.48 42.1591 1398.3 42.1591C1399.12 42.1591 1399.83 42.3466 1400.44 42.7216C1401.05 43.0966 1401.53 43.6231 1401.87 44.3011C1402.2 44.9792 1402.37 45.7708 1402.37 46.6761C1402.37 47.5777 1402.2 48.3655 1401.87 49.0398C1401.53 49.714 1401.05 50.2386 1400.44 50.6136C1399.83 50.9886 1399.12 51.1761 1398.3 51.1761ZM1398.31 49.75C1398.84 49.75 1399.28 49.6098 1399.63 49.3295C1399.97 49.0492 1400.23 48.6761 1400.4 48.2102C1400.57 47.7443 1400.65 47.2311 1400.65 46.6705C1400.65 46.1136 1400.57 45.6023 1400.4 45.1364C1400.23 44.6667 1399.97 44.2898 1399.63 44.0057C1399.28 43.7216 1398.84 43.5795 1398.31 43.5795C1397.77 43.5795 1397.33 43.7216 1396.98 44.0057C1396.63 44.2898 1396.37 44.6667 1396.2 45.1364C1396.03 45.6023 1395.95 46.1136 1395.95 46.6705C1395.95 47.2311 1396.03 47.7443 1396.2 48.2102C1396.37 48.6761 1396.63 49.0492 1396.98 49.3295C1397.33 49.6098 1397.77 49.75 1398.31 49.75ZM1407.93 54.4545C1407.23 54.4545 1406.64 54.3636 1406.14 54.1818C1405.64 54 1405.23 53.7595 1404.92 53.4602C1404.61 53.161 1404.37 52.8333 1404.22 52.4773L1405.68 51.875C1405.78 52.0417 1405.91 52.2178 1406.09 52.4034C1406.26 52.5928 1406.49 52.7538 1406.79 52.8864C1407.09 53.0189 1407.47 53.0852 1407.94 53.0852C1408.59 53.0852 1409.12 52.928 1409.54 52.6136C1409.96 52.303 1410.17 51.8068 1410.17 51.125V49.4091H1410.06C1409.96 49.5947 1409.81 49.8011 1409.62 50.0284C1409.43 50.2557 1409.17 50.4527 1408.84 50.6193C1408.5 50.786 1408.07 50.8693 1407.53 50.8693C1406.84 50.8693 1406.22 50.7083 1405.67 50.3864C1405.12 50.0606 1404.69 49.5814 1404.36 48.9489C1404.05 48.3125 1403.89 47.5303 1403.89 46.6023C1403.89 45.6742 1404.04 44.8788 1404.36 44.2159C1404.68 43.553 1405.11 43.0455 1405.66 42.6932C1406.22 42.3371 1406.84 42.1591 1407.55 42.1591C1408.09 42.1591 1408.52 42.25 1408.86 42.4318C1409.19 42.6098 1409.45 42.8182 1409.64 43.0568C1409.83 43.2955 1409.97 43.5057 1410.07 43.6875H1410.2V42.2727H1411.86V51.1932C1411.86 51.9432 1411.69 52.5587 1411.34 53.0398C1410.99 53.5208 1410.52 53.8769 1409.93 54.108C1409.34 54.339 1408.67 54.4545 1407.93 54.4545ZM1407.91 49.4602C1408.4 49.4602 1408.81 49.3466 1409.15 49.1193C1409.49 48.8883 1409.75 48.5587 1409.92 48.1307C1410.1 47.6989 1410.19 47.1818 1410.19 46.5795C1410.19 45.9924 1410.1 45.4754 1409.93 45.0284C1409.75 44.5814 1409.5 44.233 1409.16 43.983C1408.82 43.7292 1408.41 43.6023 1407.91 43.6023C1407.4 43.6023 1406.97 43.7348 1406.63 44C1406.29 44.2614 1406.03 44.6174 1405.86 45.0682C1405.69 45.5189 1405.6 46.0227 1405.6 46.5795C1405.6 47.1515 1405.69 47.6534 1405.86 48.0852C1406.04 48.517 1406.3 48.8542 1406.64 49.0966C1406.98 49.339 1407.41 49.4602 1407.91 49.4602ZM1414.14 51V42.2727H1415.84V51H1414.14ZM1415 40.9261C1414.7 40.9261 1414.45 40.8277 1414.24 40.6307C1414.03 40.4299 1413.93 40.1913 1413.93 39.9148C1413.93 39.6345 1414.03 39.3958 1414.24 39.1989C1414.45 38.9981 1414.7 38.8977 1415 38.8977C1415.3 38.8977 1415.55 38.9981 1415.76 39.1989C1415.97 39.3958 1416.07 39.6345 1416.07 39.9148C1416.07 40.1913 1415.97 40.4299 1415.76 40.6307C1415.55 40.8277 1415.3 40.9261 1415 40.9261ZM1419.83 45.8182V51H1418.13V42.2727H1419.76V43.6932H1419.87C1420.07 43.2311 1420.38 42.8598 1420.81 42.5795C1421.24 42.2992 1421.78 42.1591 1422.44 42.1591C1423.03 42.1591 1423.55 42.2841 1424 42.5341C1424.45 42.7803 1424.79 43.1477 1425.04 43.6364C1425.29 44.125 1425.41 44.7292 1425.41 45.4489V51H1423.71V45.6534C1423.71 45.0208 1423.55 44.5265 1423.22 44.1705C1422.89 43.8106 1422.44 43.6307 1421.86 43.6307C1421.47 43.6307 1421.12 43.7159 1420.81 43.8864C1420.51 44.0568 1420.26 44.3068 1420.09 44.6364C1419.91 44.9621 1419.83 45.3561 1419.83 45.8182Z" fill="#374151"/>
</g>
<rect x="1459" y="25" width="98" height="40" rx="6" fill="#F2FF9E"/>
<path d="M1486.95 42.4205C1486.89 41.8826 1486.64 41.4659 1486.2 41.1705C1485.76 40.8712 1485.21 40.7216 1484.54 40.7216C1484.07 40.7216 1483.65 40.7973 1483.31 40.9489C1482.96 41.0966 1482.69 41.3011 1482.49 41.5625C1482.3 41.8201 1482.21 42.1136 1482.21 42.4432C1482.21 42.7197 1482.27 42.9583 1482.4 43.1591C1482.53 43.3598 1482.71 43.5284 1482.92 43.6648C1483.13 43.7973 1483.37 43.9091 1483.61 44C1483.86 44.0871 1484.1 44.1591 1484.32 44.2159L1485.46 44.5114C1485.83 44.6023 1486.21 44.7254 1486.6 44.8807C1486.99 45.036 1487.35 45.2405 1487.69 45.4943C1488.02 45.7481 1488.29 46.0625 1488.49 46.4375C1488.7 46.8125 1488.81 47.2614 1488.81 47.7841C1488.81 48.4432 1488.63 49.0284 1488.29 49.5398C1487.96 50.0511 1487.47 50.4545 1486.82 50.75C1486.18 51.0455 1485.41 51.1932 1484.5 51.1932C1483.63 51.1932 1482.87 51.0549 1482.24 50.7784C1481.6 50.5019 1481.1 50.1098 1480.74 49.6023C1480.38 49.0909 1480.18 48.4848 1480.15 47.7841H1481.91C1481.94 48.2045 1482.08 48.5549 1482.32 48.8352C1482.56 49.1117 1482.87 49.3182 1483.24 49.4545C1483.62 49.5871 1484.04 49.6534 1484.49 49.6534C1484.98 49.6534 1485.42 49.5758 1485.81 49.4205C1486.2 49.2614 1486.51 49.0417 1486.73 48.7614C1486.96 48.4773 1487.07 48.1458 1487.07 47.767C1487.07 47.4223 1486.97 47.1402 1486.77 46.9205C1486.58 46.7008 1486.31 46.5189 1485.98 46.375C1485.65 46.2311 1485.28 46.1042 1484.86 45.9943L1483.49 45.6193C1482.56 45.3655 1481.82 44.9924 1481.27 44.5C1480.73 44.0076 1480.46 43.3561 1480.46 42.5455C1480.46 41.875 1480.64 41.2898 1481 40.7898C1481.37 40.2898 1481.86 39.9015 1482.48 39.625C1483.1 39.3447 1483.8 39.2045 1484.58 39.2045C1485.37 39.2045 1486.07 39.3428 1486.67 39.6193C1487.28 39.8958 1487.75 40.2765 1488.1 40.7614C1488.45 41.2424 1488.63 41.7955 1488.65 42.4205H1486.95ZM1490.77 51V42.2727H1492.47V51H1490.77ZM1491.62 40.9261C1491.33 40.9261 1491.08 40.8277 1490.86 40.6307C1490.66 40.4299 1490.55 40.1913 1490.55 39.9148C1490.55 39.6345 1490.66 39.3958 1490.86 39.1989C1491.08 38.9981 1491.33 38.8977 1491.62 38.8977C1491.92 38.8977 1492.17 38.9981 1492.38 39.1989C1492.59 39.3958 1492.7 39.6345 1492.7 39.9148C1492.7 40.1913 1492.59 40.4299 1492.38 40.6307C1492.17 40.8277 1491.92 40.9261 1491.62 40.9261ZM1498.41 54.4545C1497.72 54.4545 1497.12 54.3636 1496.62 54.1818C1496.12 54 1495.72 53.7595 1495.4 53.4602C1495.09 53.161 1494.86 52.8333 1494.7 52.4773L1496.16 51.875C1496.26 52.0417 1496.4 52.2178 1496.57 52.4034C1496.74 52.5928 1496.98 52.7538 1497.27 52.8864C1497.57 53.0189 1497.96 53.0852 1498.43 53.0852C1499.07 53.0852 1499.6 52.928 1500.02 52.6136C1500.44 52.303 1500.65 51.8068 1500.65 51.125V49.4091H1500.55C1500.44 49.5947 1500.3 49.8011 1500.1 50.0284C1499.91 50.2557 1499.65 50.4527 1499.32 50.6193C1498.99 50.786 1498.55 50.8693 1498.02 50.8693C1497.33 50.8693 1496.71 50.7083 1496.15 50.3864C1495.61 50.0606 1495.17 49.5814 1494.85 48.9489C1494.53 48.3125 1494.37 47.5303 1494.37 46.6023C1494.37 45.6742 1494.53 44.8788 1494.84 44.2159C1495.16 43.553 1495.6 43.0455 1496.15 42.6932C1496.7 42.3371 1497.33 42.1591 1498.03 42.1591C1498.57 42.1591 1499.01 42.25 1499.34 42.4318C1499.68 42.6098 1499.94 42.8182 1500.12 43.0568C1500.31 43.2955 1500.46 43.5057 1500.56 43.6875H1500.68V42.2727H1502.35V51.1932C1502.35 51.9432 1502.17 52.5587 1501.83 53.0398C1501.48 53.5208 1501.01 53.8769 1500.41 54.108C1499.82 54.339 1499.15 54.4545 1498.41 54.4545ZM1498.39 49.4602C1498.88 49.4602 1499.29 49.3466 1499.63 49.1193C1499.97 48.8883 1500.23 48.5587 1500.4 48.1307C1500.58 47.6989 1500.67 47.1818 1500.67 46.5795C1500.67 45.9924 1500.58 45.4754 1500.41 45.0284C1500.24 44.5814 1499.98 44.233 1499.64 43.983C1499.31 43.7292 1498.89 43.6023 1498.39 43.6023C1497.88 43.6023 1497.46 43.7348 1497.12 44C1496.77 44.2614 1496.52 44.6174 1496.34 45.0682C1496.17 45.5189 1496.09 46.0227 1496.09 46.5795C1496.09 47.1515 1496.17 47.6534 1496.35 48.0852C1496.52 48.517 1496.78 48.8542 1497.12 49.0966C1497.47 49.339 1497.89 49.4602 1498.39 49.4602ZM1506.33 45.8182V51H1504.63V42.2727H1506.26V43.6932H1506.37C1506.57 43.2311 1506.88 42.8598 1507.31 42.5795C1507.74 42.2992 1508.28 42.1591 1508.94 42.1591C1509.53 42.1591 1510.05 42.2841 1510.5 42.5341C1510.95 42.7803 1511.29 43.1477 1511.54 43.6364C1511.79 44.125 1511.91 44.7292 1511.91 45.4489V51H1510.21V45.6534C1510.21 45.0208 1510.05 44.5265 1509.72 44.1705C1509.39 43.8106 1508.94 43.6307 1508.36 43.6307C1507.97 43.6307 1507.62 43.7159 1507.31 43.8864C1507.01 44.0568 1506.76 44.3068 1506.59 44.6364C1506.41 44.9621 1506.33 45.3561 1506.33 45.8182ZM1523.95 47.3807V42.2727H1525.66V51H1523.99V49.4886H1523.89C1523.69 49.9545 1523.37 50.3428 1522.93 50.6534C1522.49 50.9602 1521.94 51.1136 1521.29 51.1136C1520.73 51.1136 1520.23 50.9905 1519.8 50.7443C1519.37 50.4943 1519.03 50.125 1518.79 49.6364C1518.54 49.1477 1518.42 48.5436 1518.42 47.8239V42.2727H1520.12V47.6193C1520.12 48.214 1520.29 48.6875 1520.62 49.0398C1520.95 49.392 1521.37 49.5682 1521.9 49.5682C1522.22 49.5682 1522.54 49.4886 1522.85 49.3295C1523.17 49.1705 1523.43 48.9299 1523.64 48.608C1523.85 48.286 1523.96 47.8769 1523.95 47.3807ZM1527.94 54.2727V42.2727H1529.6V43.6875H1529.74C1529.84 43.5057 1529.98 43.2955 1530.17 43.0568C1530.35 42.8182 1530.61 42.6098 1530.94 42.4318C1531.27 42.25 1531.7 42.1591 1532.25 42.1591C1532.95 42.1591 1533.58 42.3371 1534.13 42.6932C1534.69 43.0492 1535.12 43.5625 1535.43 44.233C1535.75 44.9034 1535.91 45.7102 1535.91 46.6534C1535.91 47.5966 1535.75 48.4053 1535.44 49.0795C1535.12 49.75 1534.69 50.267 1534.14 50.6307C1533.59 50.9905 1532.97 51.1705 1532.26 51.1705C1531.73 51.1705 1531.3 51.0814 1530.96 50.9034C1530.63 50.7254 1530.37 50.517 1530.18 50.2784C1529.99 50.0398 1529.84 49.8277 1529.74 49.642H1529.64V54.2727H1527.94ZM1529.6 46.6364C1529.6 47.25 1529.69 47.7879 1529.87 48.25C1530.05 48.7121 1530.31 49.0739 1530.64 49.3352C1530.98 49.5928 1531.39 49.7216 1531.88 49.7216C1532.39 49.7216 1532.81 49.5871 1533.15 49.3182C1533.5 49.0455 1533.75 48.6761 1533.93 48.2102C1534.11 47.7443 1534.19 47.2197 1534.19 46.6364C1534.19 46.0606 1534.11 45.5436 1533.93 45.0852C1533.76 44.6269 1533.51 44.2652 1533.16 44C1532.82 43.7348 1532.39 43.6023 1531.88 43.6023C1531.39 43.6023 1530.97 43.7292 1530.63 43.983C1530.29 44.2367 1530.04 44.5909 1529.87 45.0455C1529.69 45.5 1529.6 46.0303 1529.6 46.6364Z" fill="#0F0F0F"/>
<mask id="mask0_7_19371" style="mask-type:alpha" maskUnits="userSpaceOnUse" x="681" y="420" width="436" height="471">
<path d="M738.757 421.915L1085.32 504.608C1105.45 509.409 1118.89 528.395 1116.73 548.971L1084.23 858.435C1082.19 877.825 1064.82 891.894 1045.43 889.857C1045.22 889.835 1045 889.811 1044.79 889.785L712.463 848.767C694.524 846.553 681.155 831.147 681.49 813.076L688.018 461.213C688.44 438.47 707.219 420.375 729.962 420.797C732.925 420.852 735.874 421.227 738.757 421.915Z" fill="white"/>
</mask>
<g mask="url(#mask0_7_19371)">
<path d="M738.757 421.915L1085.32 504.608C1105.45 509.409 1118.89 528.395 1116.73 548.971L1084.23 858.435C1082.19 877.825 1064.82 891.894 1045.43 889.857C1045.22 889.835 1045 889.811 1044.79 889.785L712.463 848.767C694.524 846.553 681.155 831.147 681.49 813.076L688.018 461.213C688.44 438.47 707.219 420.375 729.962 420.797C732.925 420.852 735.874 421.227 738.757 421.915Z" fill="#F2FF9E"/>
<path fill-rule="evenodd" clip-rule="evenodd" d="M680.901 798.319L886.829 652.112L959.116 707.587L859.512 877.798L686.364 861.407C683.542 842.861 681.721 828.852 680.901 819.38C680.08 809.908 680.08 802.887 680.901 798.319Z" fill="#CEDF62"/>
</g>
<path d="M877.167 456.204C877.17 456.319 877.164 456.435 877.148 456.552L867.852 523.977C872.746 525.402 876.323 529.921 876.323 535.276C876.323 541.736 871.117 546.98 864.672 547.043L859.027 587.989C863.704 589.545 867.077 593.957 867.077 599.157C867.077 605.469 862.107 610.621 855.867 610.912L845.627 685.18C845.469 686.329 844.408 687.133 843.259 686.974C842.109 686.816 841.306 685.755 841.464 684.606L851.7 610.361C846.966 608.838 843.541 604.397 843.541 599.157C843.541 592.807 848.572 587.631 854.866 587.398L860.527 546.336C856.012 544.691 852.787 540.36 852.787 535.276C852.787 529.075 857.584 523.994 863.67 523.541L872.985 455.978C872.997 455.886 873.016 455.796 873.039 455.709L754.448 499.553L829.677 443.236L916.253 463.83L951.556 540.319L877.167 456.204ZM1052.94 617.495L1056.94 618.798L972.256 878.449L968.26 877.146L1052.94 617.495ZM783.447 726.92L682.161 797.526L688.045 456.265L705.536 503.922L783.447 726.92Z" fill="#B1BF58"/>
<mask id="mask1_7_19371" style="mask-type:alpha" maskUnits="userSpaceOnUse" x="847" y="213" width="182" height="253">
<path d="M938.174 413.856L938.14 465.735L849.377 460.903L848.479 353.119C848.161 350.434 847.998 347.701 847.998 344.931V282.58C847.998 244.514 878.856 213.655 916.922 213.655H959.251C997.317 213.655 1028.18 244.514 1028.18 282.58V344.931C1028.18 382.997 997.317 413.856 959.251 413.856H938.174Z" fill="white"/>
</mask>
<g mask="url(#mask1_7_19371)">
<path d="M925.295 412.744L916.253 463.83L829.677 443.657L847.509 337.354C847.663 334.655 847.976 331.936 848.457 329.208L859.284 267.804C865.895 230.316 901.643 205.285 939.131 211.895L980.816 219.245C1018.3 225.855 1043.34 261.604 1036.73 299.091L1025.9 360.495C1019.29 397.983 983.54 423.014 946.052 416.404L925.295 412.744Z" fill="#81A6FF"/>
</g>
<mask id="mask2_7_19371" style="mask-type:alpha" maskUnits="userSpaceOnUse" x="847" y="213" width="181" height="253">
<path d="M937.85 413.828L937.816 465.708L849.052 460.875L848.154 353.092C847.837 350.407 847.673 347.674 847.673 344.904V282.553C847.673 244.487 878.532 213.628 916.598 213.628H958.927C996.993 213.628 1027.85 244.487 1027.85 282.553V344.904C1027.85 382.97 996.993 413.828 958.927 413.828H937.85Z" fill="white"/>
</mask>
<g mask="url(#mask2_7_19371)">
<path d="M924.97 412.717L915.928 463.803L829.352 443.63L847.185 337.327C847.338 334.628 847.652 331.909 848.133 329.18L858.96 267.777C865.57 230.289 901.318 205.258 938.806 211.868L980.492 219.218C1017.98 225.828 1043.01 261.576 1036.4 299.064L1025.57 360.468C1018.96 397.956 983.215 422.987 945.727 416.377L924.97 412.717Z" fill="#FF8181"/>
<path fill-rule="evenodd" clip-rule="evenodd" d="M859.096 281.012L1024.26 220.913L927.87 199.899L851.531 214.546L859.096 281.012Z" fill="#111827"/>
</g>
<path d="M823.613 237.614L818.68 236.565C794.159 231.353 770.057 247.006 764.845 271.526L763.797 276.459C758.585 300.979 774.237 325.081 798.757 330.293L803.69 331.342C828.21 336.554 852.313 320.901 857.525 296.381L858.573 291.448C863.785 266.928 848.133 242.826 823.613 237.614Z" fill="#111827"/>
<path fill-rule="evenodd" clip-rule="evenodd" d="M946.512 372.631L960.965 384.193C963.892 386.535 967.355 388.115 971.042 388.792L981.054 390.631C984.254 391.219 987.559 390.627 990.356 388.963L1001.57 382.297L993.117 373.846C991.565 372.294 989.354 371.597 987.193 371.978L983.496 372.631L976.456 368.471C975.036 367.631 973.355 367.344 971.736 367.663L946.512 372.631Z" fill="#111827"/>
<path d="M1035.19 304.127C1023.35 299.983 1010.54 301.465 995.892 307.115" stroke="#111827" stroke-width="3" stroke-linecap="round" stroke-linejoin="round"/>
<path fill-rule="evenodd" clip-rule="evenodd" d="M969.679 360.305L996.939 365.591C999.217 366.033 1001.42 364.544 1001.86 362.265C1001.99 361.624 1001.96 360.964 1001.79 360.335C998.613 348.964 996.889 340.109 996.614 333.772C996.289 326.263 994.888 323.181 992.412 324.526L993.583 304.378L991.481 304.378C981.597 328.603 976.132 342.472 975.086 345.985C974.436 348.171 965.576 349.189 964.674 353.525C964.508 354.323 964.763 355.468 965.44 356.96C966.228 358.696 967.807 359.943 969.679 360.305Z" fill="#C55858"/>
<path d="M1072.57 454.848L1058.22 452.057L1019.71 650.135L1034.07 652.926L1072.57 454.848Z" fill="#8C8C8C"/>
<path d="M1054.54 517.383L1051.51 516.794C1041.94 514.933 1032.67 521.183 1030.81 530.753L1008.63 644.881C1006.77 654.45 1013.02 663.716 1022.59 665.576L1025.62 666.165C1035.19 668.025 1044.45 661.776 1046.31 652.206L1068.5 538.078C1070.36 528.508 1064.11 519.243 1054.54 517.383Z" fill="#111827"/>
<path fill-rule="evenodd" clip-rule="evenodd" d="M1068.93 426.624L1071.96 427.213C1081.53 429.073 1087.78 438.339 1085.92 447.908L1082.9 463.435C1082.01 468.025 1078.08 471.4 1073.41 471.589C1069.13 471.761 1065.5 471.556 1062.5 470.974C1059.37 470.365 1055.56 469.076 1051.09 467.106C1046.77 465.209 1044.35 460.576 1045.25 455.949L1048.23 440.583C1050.09 431.013 1059.36 424.764 1068.93 426.624Z" fill="#111827"/>
<path fill-rule="evenodd" clip-rule="evenodd" d="M994.96 410.354C977.187 381.912 975.955 348.544 985.593 319.256C993.03 296.658 1006.2 276.471 1027.82 262.963C1044.74 252.389 1062.75 248.353 1080.99 247.81C1091.94 247.485 1103.1 247.405 1113.78 250.752C1124.55 254.129 1138.54 260.603 1148.24 267.563C1159.91 275.94 1166.88 285.533 1174.69 298.043C1184.39 313.552 1189.42 330.845 1190.69 347.835C1191.36 356.835 1189.79 368.787 1188.16 377.254C1185.71 390.043 1181.8 398.993 1174.72 410.455C1166.58 423.621 1155.88 436.661 1141.84 445.434C1131.23 452.061 1120.11 456.901 1108.73 459.207C1091.88 462.624 1074.52 461.063 1057.88 456.265C1046.79 453.069 1034.17 447.609 1024.26 441.135C1012.1 433.192 1003.11 423.393 994.96 410.354ZM1007.35 402.884C1034.25 445.932 1090.68 459.194 1133.39 432.505C1176.1 405.816 1188.92 349.282 1162.02 306.235C1135.12 263.187 1078.69 249.925 1035.98 276.614C993.267 303.303 980.449 359.836 1007.35 402.884Z" fill="#898989"/>
<mask id="mask3_7_19371" style="mask-type:alpha" maskUnits="userSpaceOnUse" x="990" y="261" width="188" height="186">
<path d="M1084.21 446.241C1104.69 446.241 1123.85 438.773 1139.14 427.328C1142.87 424.538 1146.67 421.938 1149.97 418.729C1162.01 407.011 1170.3 392.363 1174.62 376.059C1176.46 369.088 1177.45 361.732 1177.45 354.023C1177.45 312.005 1148.09 278.524 1109.24 267.401C1100.99 265.042 1093.22 261.804 1084.21 261.804C1054.65 261.804 1029.38 276.78 1012.3 298.015C999.636 313.762 990.978 332.337 990.978 354.023C990.978 371.71 996.857 388.313 1005.59 402.349C1021.99 428.73 1050.6 446.241 1084.21 446.241Z" fill="white"/>
</mask>
<g mask="url(#mask3_7_19371)">
<path d="M1006.01 402.891C1016.86 420.257 1033.34 432.547 1051.16 439.454C1055.5 441.138 1059.71 442.981 1064.18 444.077C1080.5 448.081 1097.32 447.349 1113.43 442.367C1120.32 440.237 1127.08 437.176 1133.62 433.09C1169.25 410.824 1182.09 368.189 1170.93 329.343C1168.57 321.102 1167.19 312.797 1162.42 305.154C1146.75 280.08 1120.66 266.593 1093.6 263.36C1073.54 260.963 1053.2 263.463 1034.81 274.955C1019.81 284.328 1008.84 298.112 1001.56 312.952C987.885 340.845 988.196 374.388 1006.01 402.891Z" fill="white"/>
<path opacity="0.65332" fill-rule="evenodd" clip-rule="evenodd" d="M1101.21 339.207C1097.2 337.509 1094.19 336.578 1089.73 335.632C1085.1 334.646 1080.63 334.458 1076.04 334.405C1070.69 334.344 1065.56 335.323 1060.29 336.532C1055.8 337.561 1049.06 340.003 1040.07 343.858C1046.13 350.828 1050.89 355.654 1054.35 358.336C1059.63 362.429 1064.62 366.31 1070.78 368.691C1073.32 369.673 1076.4 370.757 1079.34 371.58L1030.96 443.186L992.541 389.811L1130.81 244.809L1152.09 263.905L1101.21 339.207ZM1115.8 347.518C1113.88 346.083 1111.8 344.716 1109.65 343.457L1158.89 271.79L1164.2 273.415L1115.8 347.518ZM1098.84 373.497L1044.07 457.358L1039.38 445.76L1089.14 373.315C1090.48 373.429 1091.82 373.51 1093.19 373.583C1095.08 373.683 1096.96 373.645 1098.84 373.497Z" fill="#E0E0E0"/>
<path d="M1101.37 375.553C1098.54 375.869 1095.87 375.939 1093.14 375.768C1089.84 375.562 1087.43 375.344 1085.17 374.992L1081.08 395.621C1080.86 396.745 1079.75 397.459 1078.61 397.218C1077.46 396.976 1076.72 395.869 1076.94 394.746L1081.02 374.167C1077.73 373.369 1073.83 372.072 1069.94 370.557C1068.21 369.881 1066.54 369.1 1064.86 368.174L1052.69 378.415C1051.81 379.153 1050.48 379.038 1049.71 378.158C1048.95 377.277 1049.04 375.965 1049.92 375.226L1061.05 365.86C1059.86 365.076 1058.63 364.214 1057.33 363.26C1056.07 362.338 1055.13 361.618 1052.81 359.837C1049.18 357.044 1044.27 352.134 1038.04 345.077C1037.09 344.004 1037.46 342.351 1038.76 341.808C1047.86 338.036 1054.7 335.65 1059.35 334.644C1066.13 333.175 1070.74 332.544 1075.63 332.648C1081.57 332.774 1085.57 333.121 1089.81 334.049C1094.53 335.083 1097.72 336.098 1101.98 337.926C1107.19 340.158 1112.48 343.17 1116.94 346.474C1120.86 349.369 1126.45 354.746 1133.79 362.643C1134.77 363.699 1134.43 365.373 1133.13 365.94C1126.38 368.866 1121.31 370.832 1117.89 371.846C1113.23 373.225 1109.28 374.241 1105.68 374.906L1111.12 386.514C1111.61 387.565 1111.15 388.794 1110.1 389.258C1109.04 389.723 1107.79 389.248 1107.29 388.196L1101.37 375.553ZM1116.61 367.858C1119.38 367.037 1123.41 365.506 1128.69 363.271C1122.51 356.728 1117.75 352.224 1114.46 349.786C1110.26 346.685 1105.27 343.839 1100.36 341.738C1096.36 340.019 1093.42 339.087 1088.97 338.111C1085.07 337.255 1081.31 336.929 1075.63 336.808C1071.14 336.713 1066.82 337.305 1060.33 338.71C1056.43 339.554 1050.69 341.504 1043.13 344.555C1048.28 350.257 1052.37 354.27 1055.36 356.574C1057.65 358.336 1058.58 359.043 1059.8 359.94C1064.17 363.149 1067.65 365.219 1071.42 366.69C1075.54 368.293 1079.66 369.638 1082.88 370.345C1085.96 371.019 1088.7 371.327 1093.32 371.615C1100 372.032 1106.53 370.842 1116.61 367.858ZM1084.65 362.795C1082.02 362.218 1079.08 359.312 1077.86 357.029C1076.83 355.089 1077.01 353.014 1077.5 350.655C1077.99 348.27 1079.18 346.547 1080.92 345.207C1082.92 343.662 1085.62 342.716 1088.23 343.288C1091.19 343.937 1095.07 345.333 1096.18 348.053C1096.89 349.796 1097.65 353.228 1097.24 355.233C1096.83 357.187 1095.22 359.146 1093.94 360.429C1091.85 362.517 1087.67 363.455 1084.65 362.795Z" fill="#111827"/>
</g>
<path fill-rule="evenodd" clip-rule="evenodd" d="M910.099 304.565C912.168 314.937 920.677 322.531 935.624 327.346C950.572 332.161 961.857 330.709 969.479 322.989C963.972 310.62 956.067 302.821 945.764 299.592C935.461 296.364 923.572 298.021 910.099 304.565Z" fill="white"/>
<path fill-rule="evenodd" clip-rule="evenodd" d="M948.897 322.599C951.336 322.77 953.736 321.604 955.167 319.607C956.046 318.38 956.464 316.806 956.581 315.132C956.702 313.413 956.54 311.862 955.803 310.503C954.654 308.383 952.41 306.835 950.011 306.668C947.903 306.52 945.788 307.025 944.37 308.56C943.14 309.891 942.47 312.092 942.327 314.135C942.186 316.156 942.562 318.458 943.574 319.94C944.764 321.684 946.769 322.45 948.897 322.599Z" fill="#111827"/>
<path fill-rule="evenodd" clip-rule="evenodd" d="M909.742 304.63C926.378 306.287 939.269 308.515 948.417 311.312C957.564 314.11 964.746 318.022 969.963 323.048C967.494 310.373 959.317 302.035 945.431 298.034C931.545 294.032 919.649 296.231 909.742 304.63Z" fill="#C55858"/>
<path fill-rule="evenodd" clip-rule="evenodd" d="M974.516 318.89L936.001 284.374L938.523 271.345L985.593 315.474C984.699 319.099 981.035 321.313 977.41 320.419C976.335 320.154 975.341 319.629 974.516 318.89Z" fill="#111827"/>
<path fill-rule="evenodd" clip-rule="evenodd" d="M829.677 443.236L811.748 388.206C804.082 364.676 809.139 338.854 825.115 319.954L859.096 279.751L829.677 443.236Z" fill="#111827"/>
<mask id="mask4_7_19371" style="mask-type:alpha" maskUnits="userSpaceOnUse" x="887" y="521" width="217" height="185">
<path d="M887.666 654.334L1018.55 534.212C1022.29 530.779 1026.87 528.392 1031.82 527.291L1029.3 538.218L1075.06 522.569C1080.99 520.54 1087.48 523.521 1089.8 529.347C1090.25 530.489 1090.81 531.706 1091.45 532.997C1095.99 542.063 1095.99 550.256 1091.45 557.578C1098.09 559.67 1101.93 564.726 1102.98 572.746C1104.03 580.765 1102.1 587.041 1097.22 591.574C1105.12 606.298 1099.58 624.639 1084.86 632.54C1084.03 632.988 1083.17 633.396 1082.3 633.764L1079.4 634.983L975.676 669.502L955.769 705.066L887.666 654.334Z" fill="white"/>
</mask>
<g mask="url(#mask4_7_19371)">
<path d="M887.666 654.334L1018.55 534.212C1022.29 530.779 1026.87 528.392 1031.82 527.291L1029.3 538.218L1075.06 522.569C1080.99 520.54 1087.48 523.521 1089.8 529.347C1090.25 530.489 1090.81 531.706 1091.45 532.997C1095.99 542.063 1095.99 550.256 1091.45 557.578C1098.09 559.67 1101.93 564.726 1102.98 572.746C1104.03 580.765 1102.1 587.041 1097.22 591.574C1105.12 606.298 1099.58 624.639 1084.86 632.54C1084.03 632.988 1083.17 633.396 1082.3 633.764L1079.4 634.983L975.676 669.502L955.769 705.066L887.666 654.334Z" fill="#FF8181"/>
<path fill-rule="evenodd" clip-rule="evenodd" d="M1032.66 536.957L1001.14 550.406C1007.53 541.095 1013.13 534.511 1017.95 530.653C1022.78 526.795 1028.38 524.413 1034.77 523.508L1032.66 536.957Z" fill="#C55858"/>
<path d="M1096.21 591.423C1096.76 591.006 1097.55 591.121 1097.97 591.679C1098.39 592.237 1098.27 593.027 1097.72 593.443C1094.08 596.158 1089.73 598.188 1084.68 599.535C1084 599.714 1083.31 599.314 1083.13 598.642C1082.96 597.969 1083.36 597.278 1084.03 597.099C1088.78 595.831 1092.84 593.938 1096.21 591.423ZM1089.93 556.886C1090.5 556.481 1091.29 556.611 1091.69 557.177C1092.1 557.743 1091.97 558.531 1091.4 558.936C1087.63 561.64 1083.18 563.577 1078.07 564.751C1077.39 564.906 1076.71 564.482 1076.55 563.804C1076.4 563.125 1076.82 562.449 1077.5 562.293C1082.3 561.192 1086.44 559.389 1089.93 556.886Z" fill="#C55858"/>
</g>
<path fill-rule="evenodd" clip-rule="evenodd" d="M851.531 339.429C868.707 339.429 882.631 326.07 882.631 309.59C882.631 293.11 868.707 279.751 851.531 279.751C834.355 279.751 820.431 293.11 820.431 309.59C820.431 322.47 828.937 333.445 840.853 337.624C844.183 338.792 847.779 339.429 851.531 339.429Z" fill="#FF8181"/>
<mask id="mask5_7_19371" style="mask-type:alpha" maskUnits="userSpaceOnUse" x="817" y="331" width="50" height="64">
<path d="M833.496 333.947C835.946 335.448 838.599 336.806 841.526 337.896C839.26 338.311 837.081 339.355 835.267 341.039C825.914 349.722 822.101 362.85 825.349 375.192L825.885 377.23C826.315 378.865 827.046 380.406 828.039 381.774C832.466 387.87 840.996 389.223 847.091 384.796L847.62 384.412C858.448 376.549 862.442 362.267 857.263 349.928L855.352 345.374C854.783 344.019 853.981 342.774 852.981 341.697C851.649 340.263 850.06 339.21 848.351 338.545C849.095 335.02 849.562 332.807 849.75 331.907C852.772 332.886 855.594 334.628 857.909 337.122C859.445 338.777 860.679 340.69 861.552 342.772L863.463 347.325C869.85 362.543 864.925 380.155 851.571 389.853L851.043 390.237C841.942 396.846 829.207 394.826 822.598 385.725C821.115 383.683 820.024 381.382 819.382 378.941L818.846 376.903C814.967 362.162 819.52 346.482 830.692 336.111C831.575 335.291 832.514 334.57 833.496 333.947Z" fill="white"/>
</mask>
<g mask="url(#mask5_7_19371)">
<path d="M833.496 333.947C835.946 335.448 838.599 336.806 841.526 337.896C839.26 338.311 837.081 339.355 835.267 341.039C825.914 349.722 822.101 362.85 825.349 375.192L825.885 377.23C826.315 378.865 827.046 380.406 828.039 381.774C832.466 387.87 840.996 389.223 847.091 384.796L847.62 384.412C858.448 376.549 862.442 362.267 857.263 349.928L855.352 345.374C854.783 344.019 853.981 342.774 852.981 341.697C851.649 340.263 850.06 339.21 848.351 338.545C849.095 335.02 849.562 332.807 849.75 331.907C852.772 332.886 855.594 334.628 857.909 337.122C859.445 338.777 860.679 340.69 861.552 342.772L863.463 347.325C869.85 362.543 864.925 380.155 851.571 389.853L851.043 390.237C841.942 396.846 829.207 394.826 822.598 385.725C821.115 383.683 820.024 381.382 819.382 378.941L818.846 376.903C814.967 362.162 819.52 346.482 830.692 336.111C831.575 335.291 832.514 334.57 833.496 333.947Z" fill="#F2FF9E"/>
<path fill-rule="evenodd" clip-rule="evenodd" d="M820.847 319.256L851.527 316.314L835.977 413.397L808.659 406.673L820.847 319.256Z" fill="#CEDF62"/>
</g>
<path fill-rule="evenodd" clip-rule="evenodd" d="M648.519 260.418V323.815L706.533 310.411L652.87 341.566L706.533 360.404L648.519 353.521L652.87 410.035L630.389 358.231L599.207 399.891L619.512 349.536C578.902 335.77 558.597 328.887 558.597 328.887C558.597 328.887 578.902 329.732 619.512 331.423L599.207 286.864L630.389 319.83L648.519 260.418ZM1214.02 634.288L1211.11 550.997L1148.99 579.114L1198.89 530.219L1137.6 485.039L1209.75 511.969L1201.46 437.92L1233.29 504.952L1272.23 448.791L1247.93 515.877C1297.98 518.351 1323 519.587 1323 519.587C1323 519.587 1298.26 526.283 1248.77 539.675L1277.41 597.288L1235.05 555.403L1214.02 634.288Z" fill="#111827"/>
<path fill-rule="evenodd" clip-rule="evenodd" d="M564.379 571.397L580.319 610.887L549.439 606.818L579.507 621.768C557.081 638.437 545.867 646.772 545.867 646.772C545.867 646.772 559.685 641.653 587.32 631.416L598.191 667.023L596.882 631.341L631.238 649.208L604.537 620.988L638.502 599.554L601.705 612.738L616.938 572.926L591.724 605.165L564.379 571.397Z" fill="#111827"/>
<path d="M581.005 702.116C627.19 689.74 654.598 642.268 642.223 596.082C629.848 549.897 582.375 522.489 536.19 534.864C490.004 547.239 462.596 594.712 474.971 640.897C487.346 687.083 534.819 714.491 581.005 702.116Z" fill="#111827"/>
<path d="M536.635 629.185L538.685 636.836L531.637 638.725L533.175 644.463L524.114 646.891L522.577 641.153L497.71 647.816L495.659 640.164L514.673 611.655L523.733 609.227L529.587 631.073L536.635 629.185ZM505.425 637.548L520.526 633.501L517.1 620.715L505.425 637.548ZM563.362 636.914C549.368 640.664 540.997 636.001 537.854 624.272C534.725 612.594 539.656 604.421 553.65 600.671C567.594 596.935 576.015 601.584 579.131 613.212C582.26 624.891 577.305 633.178 563.362 636.914ZM561.325 629.313C569.278 627.182 571.837 622.234 570.07 615.64C568.317 609.096 563.64 606.141 555.687 608.272C547.734 610.403 545.148 615.25 546.915 621.845C548.695 628.489 553.372 631.444 561.325 629.313ZM624.223 605.716L626.273 613.367L619.225 615.256L620.763 620.994L611.702 623.422L610.165 617.683L585.298 624.346L583.247 616.695L602.261 588.185L611.321 585.758L617.175 607.604L624.223 605.716ZM593.013 614.078L608.114 610.032L604.688 597.246L593.013 614.078Z" fill="white"/>
<path fill-rule="evenodd" clip-rule="evenodd" d="M942.158 341.046C940.349 340.628 939.891 339.105 940.204 337.748C940.517 336.391 941.484 335.714 943.293 336.132C945.102 336.55 945.56 338.072 945.247 339.429C944.934 340.786 943.968 341.464 942.158 341.046ZM959.81 340.205C958 339.788 957.542 339.105 957.855 337.748C958.169 336.391 959.135 334.874 960.944 335.291C962.753 335.709 963.212 337.232 962.899 338.589C962.585 339.946 961.619 340.623 959.81 340.205ZM952.245 349.451C950.436 349.034 949.977 347.511 950.29 346.154C950.604 344.797 951.57 344.12 953.379 344.537C955.189 344.955 955.647 346.058 955.334 347.415C955.02 348.772 954.054 349.869 952.245 349.451ZM935.434 351.973C933.625 351.555 932.746 350.873 933.059 349.516C933.373 348.159 934.759 346.641 936.568 347.059C938.378 347.477 938.416 348.579 938.103 349.936C937.789 351.293 937.243 352.391 935.434 351.973ZM923.666 337.684C921.857 337.266 920.978 336.163 921.292 334.806C921.605 333.449 922.992 332.352 924.801 332.77C926.61 333.187 927.068 335.131 926.755 336.487C926.442 337.844 925.476 338.101 923.666 337.684Z" fill="#C55858"/>
<path d="M513.088 992.501C508.949 992.501 505.131 991.541 501.632 989.621C498.176 987.659 495.424 984.949 493.376 981.493C491.371 977.995 490.368 974.069 490.368 969.717C490.368 965.365 491.371 961.461 493.376 958.005C495.424 954.549 498.176 951.861 501.632 949.941C505.131 947.979 508.949 946.997 513.088 946.997C517.269 946.997 521.088 947.979 524.544 949.941C528.043 951.861 530.795 954.549 532.8 958.005C534.805 961.461 535.808 965.365 535.808 969.717C535.808 974.069 534.805 977.995 532.8 981.493C530.795 984.949 528.043 987.659 524.544 989.621C521.088 991.541 517.269 992.501 513.088 992.501ZM513.088 986.165C516.032 986.165 518.656 985.504 520.96 984.181C523.264 982.816 525.056 980.896 526.336 978.421C527.659 975.904 528.32 973.003 528.32 969.717C528.32 966.432 527.659 963.552 526.336 961.077C525.056 958.603 523.264 956.704 520.96 955.381C518.656 954.059 516.032 953.397 513.088 953.397C510.144 953.397 507.52 954.059 505.216 955.381C502.912 956.704 501.099 958.603 499.776 961.077C498.496 963.552 497.856 966.432 497.856 969.717C497.856 973.003 498.496 975.904 499.776 978.421C501.099 980.896 502.912 982.816 505.216 984.181C507.52 985.504 510.144 986.165 513.088 986.165ZM558.284 992.629C554.956 992.629 551.948 991.883 549.26 990.389C546.572 988.853 544.46 986.72 542.924 983.989C541.388 981.216 540.62 978.016 540.62 974.389C540.62 970.805 541.409 967.627 542.988 964.853C544.566 962.08 546.721 959.947 549.452 958.453C552.182 956.96 555.233 956.213 558.604 956.213C561.974 956.213 565.025 956.96 567.756 958.453C570.486 959.947 572.641 962.08 574.22 964.853C575.798 967.627 576.588 970.805 576.588 974.389C576.588 977.973 575.777 981.152 574.156 983.925C572.534 986.699 570.316 988.853 567.5 990.389C564.726 991.883 561.654 992.629 558.284 992.629ZM558.284 986.293C560.161 986.293 561.91 985.845 563.532 984.949C565.196 984.053 566.54 982.709 567.564 980.917C568.588 979.125 569.1 976.949 569.1 974.389C569.1 971.829 568.609 969.675 567.628 967.925C566.646 966.133 565.345 964.789 563.724 963.893C562.102 962.997 560.353 962.549 558.476 962.549C556.598 962.549 554.849 962.997 553.228 963.893C551.649 964.789 550.39 966.133 549.452 967.925C548.513 969.675 548.044 971.829 548.044 974.389C548.044 978.187 549.004 981.131 550.924 983.221C552.886 985.269 555.34 986.293 558.284 986.293ZM599.096 992.629C595.768 992.629 592.76 991.883 590.072 990.389C587.384 988.853 585.272 986.72 583.736 983.989C582.2 981.216 581.432 978.016 581.432 974.389C581.432 970.805 582.221 967.627 583.8 964.853C585.379 962.08 587.533 959.947 590.264 958.453C592.995 956.96 596.045 956.213 599.416 956.213C602.787 956.213 605.837 956.96 608.568 958.453C611.299 959.947 613.453 962.08 615.032 964.853C616.611 967.627 617.4 970.805 617.4 974.389C617.4 977.973 616.589 981.152 614.968 983.925C613.347 986.699 611.128 988.853 608.312 990.389C605.539 991.883 602.467 992.629 599.096 992.629ZM599.096 986.293C600.973 986.293 602.723 985.845 604.344 984.949C606.008 984.053 607.352 982.709 608.376 980.917C609.4 979.125 609.912 976.949 609.912 974.389C609.912 971.829 609.421 969.675 608.44 967.925C607.459 966.133 606.157 964.789 604.536 963.893C602.915 962.997 601.165 962.549 599.288 962.549C597.411 962.549 595.661 962.997 594.04 963.893C592.461 964.789 591.203 966.133 590.264 967.925C589.325 969.675 588.856 971.829 588.856 974.389C588.856 978.187 589.816 981.131 591.736 983.221C593.699 985.269 596.152 986.293 599.096 986.293ZM631.909 961.973C633.146 960.352 634.831 958.987 636.965 957.877C639.098 956.768 641.509 956.213 644.197 956.213C647.269 956.213 650.063 956.981 652.581 958.517C655.141 960.011 657.146 962.123 658.597 964.853C660.047 967.584 660.773 970.72 660.773 974.261C660.773 977.803 660.047 980.981 658.597 983.797C657.146 986.571 655.141 988.747 652.581 990.325C650.063 991.861 647.269 992.629 644.197 992.629C641.509 992.629 639.119 992.096 637.029 991.029C634.938 989.92 633.231 988.555 631.909 986.933V1008.82H624.613V956.789H631.909V961.973ZM653.349 974.261C653.349 971.829 652.837 969.739 651.812 967.989C650.831 966.197 649.509 964.853 647.845 963.957C646.223 963.019 644.474 962.549 642.597 962.549C640.762 962.549 639.013 963.019 637.349 963.957C635.727 964.896 634.405 966.261 633.381 968.053C632.399 969.845 631.909 971.957 631.909 974.389C631.909 976.821 632.399 978.955 633.381 980.789C634.405 982.581 635.727 983.947 637.349 984.885C639.013 985.824 640.762 986.293 642.597 986.293C644.474 986.293 646.223 985.824 647.845 984.885C649.509 983.904 650.831 982.496 651.812 980.661C652.837 978.827 653.349 976.693 653.349 974.261ZM680.788 992.629C678.014 992.629 675.518 992.139 673.3 991.157C671.124 990.133 669.396 988.768 668.116 987.061C666.836 985.312 666.153 983.371 666.068 981.237H673.62C673.748 982.731 674.452 983.989 675.732 985.013C677.054 985.995 678.697 986.485 680.66 986.485C682.708 986.485 684.286 986.101 685.396 985.333C686.548 984.523 687.124 983.499 687.124 982.261C687.124 980.939 686.484 979.957 685.204 979.317C683.966 978.677 681.982 977.973 679.252 977.205C676.606 976.48 674.452 975.776 672.788 975.093C671.124 974.411 669.673 973.365 668.436 971.957C667.241 970.549 666.644 968.693 666.644 966.389C666.644 964.512 667.198 962.805 668.308 961.269C669.417 959.691 670.996 958.453 673.044 957.557C675.134 956.661 677.524 956.213 680.212 956.213C684.222 956.213 687.444 957.237 689.876 959.285C692.35 961.291 693.673 964.043 693.844 967.541H686.548C686.42 965.963 685.78 964.704 684.628 963.765C683.476 962.827 681.918 962.357 679.956 962.357C678.036 962.357 676.564 962.72 675.54 963.445C674.516 964.171 674.004 965.131 674.004 966.325C674.004 967.264 674.345 968.053 675.028 968.693C675.71 969.333 676.542 969.845 677.524 970.229C678.505 970.571 679.956 971.019 681.876 971.573C684.436 972.256 686.526 972.96 688.148 973.685C689.812 974.368 691.241 975.392 692.436 976.757C693.63 978.123 694.249 979.936 694.292 982.197C694.292 984.203 693.737 985.995 692.628 987.573C691.518 989.152 689.94 990.389 687.892 991.285C685.886 992.181 683.518 992.629 680.788 992.629ZM755.344 992.053H748.048L726.096 958.837V992.053H718.8V947.509H726.096L748.048 980.661V947.509H755.344V992.053ZM780.221 992.629C776.893 992.629 773.885 991.883 771.197 990.389C768.509 988.853 766.397 986.72 764.861 983.989C763.325 981.216 762.557 978.016 762.557 974.389C762.557 970.805 763.346 967.627 764.925 964.853C766.504 962.08 768.658 959.947 771.389 958.453C774.12 956.96 777.17 956.213 780.541 956.213C783.912 956.213 786.962 956.96 789.693 958.453C792.424 959.947 794.578 962.08 796.157 964.853C797.736 967.627 798.525 970.805 798.525 974.389C798.525 977.973 797.714 981.152 796.093 983.925C794.472 986.699 792.253 988.853 789.437 990.389C786.664 991.883 783.592 992.629 780.221 992.629ZM780.221 986.293C782.098 986.293 783.848 985.845 785.469 984.949C787.133 984.053 788.477 982.709 789.501 980.917C790.525 979.125 791.037 976.949 791.037 974.389C791.037 971.829 790.546 969.675 789.565 967.925C788.584 966.133 787.282 964.789 785.661 963.893C784.04 962.997 782.29 962.549 780.413 962.549C778.536 962.549 776.786 962.997 775.165 963.893C773.586 964.789 772.328 966.133 771.389 967.925C770.45 969.675 769.981 971.829 769.981 974.389C769.981 978.187 770.941 981.131 772.861 983.221C774.824 985.269 777.277 986.293 780.221 986.293ZM853.467 960.821C853.467 963.083 852.933 965.216 851.867 967.221C850.8 969.227 849.093 970.869 846.747 972.149C844.4 973.387 841.392 974.005 837.723 974.005H829.659V992.053H822.363V947.573H837.723C841.136 947.573 844.016 948.171 846.363 949.365C848.752 950.517 850.523 952.096 851.675 954.101C852.869 956.107 853.467 958.347 853.467 960.821ZM837.723 968.053C840.496 968.053 842.565 967.435 843.931 966.197C845.296 964.917 845.979 963.125 845.979 960.821C845.979 955.957 843.227 953.525 837.723 953.525H829.659V968.053H837.723ZM857.993 974.261C857.993 970.72 858.718 967.584 860.169 964.853C861.662 962.123 863.668 960.011 866.185 958.517C868.745 956.981 871.561 956.213 874.633 956.213C877.406 956.213 879.817 956.768 881.865 957.877C883.956 958.944 885.62 960.288 886.857 961.909V956.789H894.217V992.053H886.857V986.805C885.62 988.469 883.934 989.856 881.801 990.965C879.668 992.075 877.236 992.629 874.505 992.629C871.476 992.629 868.702 991.861 866.185 990.325C863.668 988.747 861.662 986.571 860.169 983.797C858.718 980.981 857.993 977.803 857.993 974.261ZM886.857 974.389C886.857 971.957 886.345 969.845 885.321 968.053C884.34 966.261 883.038 964.896 881.417 963.957C879.796 963.019 878.046 962.549 876.169 962.549C874.292 962.549 872.542 963.019 870.921 963.957C869.3 964.853 867.977 966.197 866.953 967.989C865.972 969.739 865.481 971.829 865.481 974.261C865.481 976.693 865.972 978.827 866.953 980.661C867.977 982.496 869.3 983.904 870.921 984.885C872.585 985.824 874.334 986.293 876.169 986.293C878.046 986.293 879.796 985.824 881.417 984.885C883.038 983.947 884.34 982.581 885.321 980.789C886.345 978.955 886.857 976.821 886.857 974.389ZM918.008 956.213C920.739 956.213 923.149 956.768 925.24 957.877C927.373 958.944 929.037 960.288 930.232 961.909V956.789H937.592V992.629C937.592 995.872 936.909 998.752 935.544 1001.27C934.179 1003.83 932.195 1005.83 929.592 1007.29C927.032 1008.74 923.96 1009.46 920.376 1009.46C915.597 1009.46 911.629 1008.33 908.472 1006.07C905.315 1003.85 903.523 1000.82 903.096 996.981H910.328C910.883 998.816 912.056 1000.29 913.848 1001.4C915.683 1002.55 917.859 1003.13 920.376 1003.13C923.32 1003.13 925.688 1002.23 927.48 1000.44C929.315 998.645 930.232 996.043 930.232 992.629V986.741C928.995 988.405 927.309 989.813 925.176 990.965C923.085 992.075 920.696 992.629 918.008 992.629C914.936 992.629 912.12 991.861 909.56 990.325C907.043 988.747 905.037 986.571 903.544 983.797C902.093 980.981 901.368 977.803 901.368 974.261C901.368 970.72 902.093 967.584 903.544 964.853C905.037 962.123 907.043 960.011 909.56 958.517C912.12 956.981 914.936 956.213 918.008 956.213ZM930.232 974.389C930.232 971.957 929.72 969.845 928.696 968.053C927.715 966.261 926.413 964.896 924.792 963.957C923.171 963.019 921.421 962.549 919.544 962.549C917.667 962.549 915.917 963.019 914.296 963.957C912.675 964.853 911.352 966.197 910.328 967.989C909.347 969.739 908.856 971.829 908.856 974.261C908.856 976.693 909.347 978.827 910.328 980.661C911.352 982.496 912.675 983.904 914.296 984.885C915.96 985.824 917.709 986.293 919.544 986.293C921.421 986.293 923.171 985.824 924.792 984.885C926.413 983.947 927.715 982.581 928.696 980.789C929.72 978.955 930.232 976.821 930.232 974.389ZM979.495 973.557C979.495 974.88 979.41 976.075 979.239 977.141H952.295C952.508 979.957 953.554 982.219 955.431 983.925C957.308 985.632 959.612 986.485 962.343 986.485C966.268 986.485 969.042 984.843 970.663 981.557H978.535C977.468 984.8 975.527 987.467 972.711 989.557C969.938 991.605 966.482 992.629 962.343 992.629C958.972 992.629 955.943 991.883 953.255 990.389C950.61 988.853 948.519 986.72 946.983 983.989C945.49 981.216 944.743 978.016 944.743 974.389C944.743 970.763 945.468 967.584 946.919 964.853C948.412 962.08 950.482 959.947 953.127 958.453C955.815 956.96 958.887 956.213 962.343 956.213C965.671 956.213 968.636 956.939 971.239 958.389C973.842 959.84 975.868 961.888 977.319 964.533C978.77 967.136 979.495 970.144 979.495 973.557ZM971.879 971.253C971.836 968.565 970.876 966.411 968.999 964.789C967.122 963.168 964.796 962.357 962.023 962.357C959.506 962.357 957.351 963.168 955.559 964.789C953.767 966.368 952.7 968.523 952.359 971.253H971.879ZM1029.48 947.573V953.525H1010.6V966.645H1025.32V972.597H1010.6V992.053H1003.3V947.573H1029.48ZM1051.53 992.629C1048.21 992.629 1045.2 991.883 1042.51 990.389C1039.82 988.853 1037.71 986.72 1036.17 983.989C1034.64 981.216 1033.87 978.016 1033.87 974.389C1033.87 970.805 1034.66 967.627 1036.24 964.853C1037.82 962.08 1039.97 959.947 1042.7 958.453C1045.43 956.96 1048.48 956.213 1051.85 956.213C1055.22 956.213 1058.27 956.96 1061.01 958.453C1063.74 959.947 1065.89 962.08 1067.47 964.853C1069.05 967.627 1069.84 970.805 1069.84 974.389C1069.84 977.973 1069.03 981.152 1067.41 983.925C1065.78 986.699 1063.57 988.853 1060.75 990.389C1057.98 991.883 1054.9 992.629 1051.53 992.629ZM1051.53 986.293C1053.41 986.293 1055.16 985.845 1056.78 984.949C1058.45 984.053 1059.79 982.709 1060.81 980.917C1061.84 979.125 1062.35 976.949 1062.35 974.389C1062.35 971.829 1061.86 969.675 1060.88 967.925C1059.9 966.133 1058.59 964.789 1056.97 963.893C1055.35 962.997 1053.6 962.549 1051.73 962.549C1049.85 962.549 1048.1 962.997 1046.48 963.893C1044.9 964.789 1043.64 966.133 1042.7 967.925C1041.76 969.675 1041.29 971.829 1041.29 974.389C1041.29 978.187 1042.25 981.131 1044.17 983.221C1046.14 985.269 1048.59 986.293 1051.53 986.293ZM1108.99 956.789V992.053H1101.69V987.893C1100.54 989.344 1099.02 990.496 1097.15 991.349C1095.31 992.16 1093.35 992.565 1091.26 992.565C1088.48 992.565 1085.99 991.989 1083.77 990.837C1081.59 989.685 1079.87 987.979 1078.59 985.717C1077.35 983.456 1076.73 980.725 1076.73 977.525V956.789H1083.96V976.437C1083.96 979.595 1084.75 982.027 1086.33 983.733C1087.91 985.397 1090.06 986.229 1092.79 986.229C1095.52 986.229 1097.68 985.397 1099.26 983.733C1100.88 982.027 1101.69 979.595 1101.69 976.437V956.789H1108.99ZM1136.4 956.213C1139.18 956.213 1141.65 956.789 1143.83 957.941C1146.05 959.093 1147.78 960.8 1149.01 963.061C1150.25 965.323 1150.87 968.053 1150.87 971.253V992.053H1143.64V972.341C1143.64 969.184 1142.85 966.773 1141.27 965.109C1139.69 963.403 1137.54 962.549 1134.8 962.549C1132.07 962.549 1129.9 963.403 1128.28 965.109C1126.7 966.773 1125.91 969.184 1125.91 972.341V992.053H1118.61V956.789H1125.91V960.821C1127.1 959.371 1128.62 958.24 1130.45 957.429C1132.33 956.619 1134.31 956.213 1136.4 956.213ZM1157.74 974.261C1157.74 970.72 1158.47 967.584 1159.92 964.853C1161.41 962.123 1163.42 960.011 1165.94 958.517C1168.5 956.981 1171.33 956.213 1174.45 956.213C1176.75 956.213 1179.01 956.725 1181.23 957.749C1183.49 958.731 1185.28 960.053 1186.61 961.717V944.693H1193.97V992.053H1186.61V986.741C1185.41 988.448 1183.75 989.856 1181.62 990.965C1179.52 992.075 1177.11 992.629 1174.38 992.629C1171.31 992.629 1168.5 991.861 1165.94 990.325C1163.42 988.747 1161.41 986.571 1159.92 983.797C1158.47 980.981 1157.74 977.803 1157.74 974.261ZM1186.61 974.389C1186.61 971.957 1186.1 969.845 1185.07 968.053C1184.09 966.261 1182.79 964.896 1181.17 963.957C1179.55 963.019 1177.8 962.549 1175.92 962.549C1174.04 962.549 1172.29 963.019 1170.67 963.957C1169.05 964.853 1167.73 966.197 1166.7 967.989C1165.72 969.739 1165.23 971.829 1165.23 974.261C1165.23 976.693 1165.72 978.827 1166.7 980.661C1167.73 982.496 1169.05 983.904 1170.67 984.885C1172.34 985.824 1174.08 986.293 1175.92 986.293C1177.8 986.293 1179.55 985.824 1181.17 984.885C1182.79 983.947 1184.09 982.581 1185.07 980.789C1186.1 978.955 1186.61 976.821 1186.61 974.389ZM1212.7 947.573L1211.87 978.613H1205.79L1204.96 947.573H1212.7ZM1209.05 992.501C1207.73 992.501 1206.62 992.053 1205.73 991.157C1204.83 990.261 1204.38 989.152 1204.38 987.829C1204.38 986.507 1204.83 985.397 1205.73 984.501C1206.62 983.605 1207.73 983.157 1209.05 983.157C1210.33 983.157 1211.42 983.605 1212.32 984.501C1213.21 985.397 1213.66 986.507 1213.66 987.829C1213.66 989.152 1213.21 990.261 1212.32 991.157C1211.42 992.053 1210.33 992.501 1209.05 992.501ZM1233.26 947.573L1232.43 978.613H1226.35L1225.52 947.573H1233.26ZM1229.62 992.501C1228.29 992.501 1227.18 992.053 1226.29 991.157C1225.39 990.261 1224.94 989.152 1224.94 987.829C1224.94 986.507 1225.39 985.397 1226.29 984.501C1227.18 983.605 1228.29 983.157 1229.62 983.157C1230.9 983.157 1231.98 983.605 1232.88 984.501C1233.78 985.397 1234.22 986.507 1234.22 987.829C1234.22 989.152 1233.78 990.261 1232.88 991.157C1231.98 992.053 1230.9 992.501 1229.62 992.501Z" fill="#0F0F0F"/>
<defs>
<filter id="filter0_d_7_19371" x="1362" y="24" width="87" height="44" filterUnits="userSpaceOnUse" color-interpolation-filters="sRGB">
<feFlood flood-opacity="0" result="BackgroundImageFix"/>
<feColorMatrix in="SourceAlpha" type="matrix" values="0 0 0 0 0 0 0 0 0 0 0 0 0 0 0 0 0 0 127 0" result="hardAlpha"/>
<feOffset dy="1"/>
<feGaussianBlur stdDeviation="1"/>
<feColorMatrix type="matrix" values="0 0 0 0 0.0627451 0 0 0 0 0.0941176 0 0 0 0 0.156863 0 0 0 0.05 0"/>
<feBlend mode="normal" in2="BackgroundImageFix" result="effect1_dropShadow_7_19371"/>
<feBlend mode="normal" in="SourceGraphic" in2="effect1_dropShadow_7_19371" result="shape"/>
</filter>
</defs>
</svg>
