<svg width="1728" height="1117" viewBox="0 0 1728 1117" fill="none" xmlns="http://www.w3.org/2000/svg">
<rect width="1728" height="1117" fill="#FDFEFF"/>
<path d="M81.3333 62.6954C86.1172 62.6954 89.9998 58.8128 89.9998 54.0288V36.6957C89.9998 41.4796 86.1172 45.3623 81.3333 45.3623" fill="#8093B8"/>
<path d="M81.3332 45.3623H64V62.6955H81.3332V45.3623Z" fill="#8093B8"/>
<path d="M98.6663 28.0291C93.8824 28.0291 89.9998 31.9117 89.9998 36.6956V54.0288C89.9998 49.2449 93.8824 45.3622 98.6663 45.3622" fill="#8093B8"/>
<path d="M98.6668 45.3331H116V28L98.6668 28V45.3331Z" fill="#8093B8"/>
<path d="M132.352 48.92L132.736 46.712L139.056 39.48H142.128L140.88 46.552H142.192L141.776 48.92H140.464L140.096 51H137.344L137.728 48.92H132.352ZM139.056 42.488L135.648 46.552H138.336L139.056 42.488ZM143.772 45.176C144.081 43.4053 144.679 42.0027 145.564 40.968C146.46 39.9227 147.697 39.4 149.276 39.4C150.545 39.4 151.473 39.7467 152.06 40.44C152.657 41.1227 152.956 42.0773 152.956 43.304C152.956 43.8053 152.892 44.4293 152.764 45.176C152.455 46.9467 151.852 48.3547 150.956 49.4C150.06 50.4347 148.823 50.952 147.244 50.952C145.975 50.952 145.047 50.6107 144.46 49.928C143.884 49.2347 143.596 48.2747 143.596 47.048C143.596 46.4827 143.655 45.8587 143.772 45.176ZM150.06 45.176C150.177 44.5147 150.236 43.9973 150.236 43.624C150.236 43.0907 150.129 42.68 149.916 42.392C149.703 42.104 149.34 41.96 148.828 41.96C148.092 41.96 147.553 42.2427 147.212 42.808C146.881 43.3733 146.631 44.1627 146.46 45.176C146.343 45.8373 146.284 46.3547 146.284 46.728C146.284 47.2613 146.391 47.672 146.604 47.96C146.817 48.248 147.18 48.392 147.692 48.392C148.428 48.392 148.961 48.1093 149.292 47.544C149.633 46.9787 149.889 46.1893 150.06 45.176ZM153.618 48.92L154.002 46.712L160.322 39.48H163.394L162.146 46.552H163.458L163.042 48.92H161.73L161.362 51H158.61L158.994 48.92H153.618ZM160.322 42.488L156.914 46.552H159.602L160.322 42.488ZM170.51 40.792C169.987 40.76 169.603 40.8347 169.358 41.016C169.123 41.1973 168.963 41.5227 168.878 41.992L168.862 42.072H170.334L169.934 44.344H168.462L167.294 51H164.542L165.71 44.344H164.718L165.118 42.072H166.11L166.158 41.816C166.36 40.7173 166.824 39.8853 167.55 39.32C168.286 38.744 169.262 38.456 170.478 38.456C170.67 38.456 170.814 38.4613 170.91 38.472L170.51 40.792ZM174.115 51.128C173.347 51.128 172.665 50.9733 172.067 50.664C171.47 50.3547 171.006 49.9173 170.675 49.352C170.355 48.7867 170.195 48.1307 170.195 47.384C170.195 46.3707 170.435 45.448 170.915 44.616C171.395 43.784 172.057 43.1333 172.899 42.664C173.742 42.184 174.681 41.944 175.715 41.944C176.483 41.944 177.166 42.104 177.763 42.424C178.371 42.7333 178.841 43.1707 179.171 43.736C179.502 44.3013 179.667 44.9573 179.667 45.704C179.667 46.728 179.422 47.656 178.931 48.488C178.451 49.3093 177.785 49.9547 176.931 50.424C176.089 50.8933 175.15 51.128 174.115 51.128ZM174.499 48.776C174.947 48.776 175.347 48.6427 175.699 48.376C176.062 48.0987 176.339 47.7467 176.531 47.32C176.734 46.8827 176.835 46.4293 176.835 45.96C176.835 45.4267 176.691 45.016 176.403 44.728C176.115 44.44 175.753 44.296 175.315 44.296C174.857 44.296 174.451 44.4347 174.099 44.712C173.758 44.9787 173.491 45.3307 173.299 45.768C173.107 46.2053 173.011 46.664 173.011 47.144C173.011 47.6667 173.15 48.072 173.427 48.36C173.705 48.6373 174.062 48.776 174.499 48.776ZM184.239 43.688C184.655 43.1547 185.13 42.7387 185.663 42.44C186.207 42.1307 186.772 41.976 187.359 41.976L186.847 44.872H186.095C185.412 44.872 184.874 45.0213 184.479 45.32C184.084 45.608 183.823 46.12 183.695 46.856L182.959 51H180.223L181.791 42.072H184.527L184.239 43.688ZM200.059 41.976C201.019 41.976 201.765 42.232 202.299 42.744C202.843 43.2453 203.115 43.9493 203.115 44.856C203.115 45.1333 203.083 45.4427 203.019 45.784L202.091 51H199.371L200.235 46.152C200.256 46.0453 200.267 45.9013 200.267 45.72C200.267 45.272 200.139 44.9307 199.883 44.696C199.637 44.4613 199.291 44.344 198.843 44.344C198.309 44.344 197.861 44.504 197.499 44.824C197.136 45.1333 196.907 45.576 196.811 46.152L195.947 51H193.227L194.091 46.152C194.112 46.0453 194.123 45.9013 194.123 45.72C194.123 45.272 193.995 44.9307 193.739 44.696C193.493 44.4613 193.147 44.344 192.699 44.344C192.165 44.344 191.717 44.504 191.355 44.824C190.992 45.1333 190.763 45.576 190.667 46.152V46.072L189.803 51H187.067L188.635 42.072H191.371L191.179 43.208C191.52 42.824 191.931 42.5253 192.411 42.312C192.901 42.088 193.429 41.976 193.995 41.976C194.677 41.976 195.253 42.12 195.723 42.408C196.203 42.696 196.544 43.112 196.747 43.656C197.141 43.1547 197.632 42.7493 198.219 42.44C198.805 42.1307 199.419 41.976 200.059 41.976ZM209.572 41.944C210.724 41.944 211.636 42.2587 212.308 42.888C212.991 43.5067 213.332 44.3547 213.332 45.432C213.332 45.784 213.305 46.0987 213.252 46.376C213.209 46.6213 213.145 46.8827 213.06 47.16H206.868C206.857 47.224 206.852 47.3253 206.852 47.464C206.852 47.9333 206.98 48.2907 207.236 48.536C207.492 48.7813 207.833 48.904 208.26 48.904C208.943 48.904 209.465 48.616 209.828 48.04H212.74C212.356 48.9467 211.732 49.688 210.868 50.264C210.004 50.84 209.033 51.128 207.956 51.128C206.804 51.128 205.881 50.808 205.188 50.168C204.505 49.528 204.164 48.6587 204.164 47.56C204.164 47.2293 204.196 46.888 204.26 46.536C204.42 45.608 204.751 44.7973 205.252 44.104C205.753 43.4107 206.377 42.8773 207.124 42.504C207.871 42.1307 208.687 41.944 209.572 41.944ZM210.564 45.768C210.585 45.6187 210.596 45.5173 210.596 45.464C210.596 45.0373 210.463 44.712 210.196 44.488C209.929 44.2533 209.577 44.136 209.14 44.136C208.671 44.136 208.255 44.28 207.892 44.568C207.54 44.8453 207.284 45.2453 207.124 45.768H210.564Z" fill="#8093B8"/>
<path d="M955.495 39.3636V51H953.739V39.3636H955.495ZM957.915 39.3636H959.614V48.6136C959.614 48.9886 959.662 49.2538 959.756 49.4091C959.855 49.5644 960.04 49.6383 960.313 49.6307C960.461 49.6269 960.571 49.6174 960.643 49.6023C960.719 49.5871 960.787 49.5701 960.847 49.5511L961.154 50.9091C961.037 50.9432 960.887 50.9754 960.705 51.0057C960.527 51.0398 960.325 51.0587 960.097 51.0625C959.362 51.0739 958.815 50.8996 958.455 50.5398C958.095 50.1799 957.915 49.6553 957.915 48.9659V39.3636ZM962.509 39.3636H964.208V48.6136C964.208 48.9886 964.255 49.2538 964.35 49.4091C964.449 49.5644 964.634 49.6383 964.907 49.6307C965.055 49.6269 965.165 49.6174 965.237 49.6023C965.312 49.5871 965.38 49.5701 965.441 49.5511L965.748 50.9091C965.63 50.9432 965.481 50.9754 965.299 51.0057C965.121 51.0398 964.918 51.0587 964.691 51.0625C963.956 51.0739 963.409 50.8996 963.049 50.5398C962.689 50.1799 962.509 49.6553 962.509 48.9659V39.3636ZM972.397 47.3807V42.2727H974.102V51H972.431V49.4886H972.34C972.139 49.9545 971.817 50.3428 971.374 50.6534C970.935 50.9602 970.388 51.1136 969.732 51.1136C969.172 51.1136 968.675 50.9905 968.244 50.7443C967.816 50.4943 967.478 50.125 967.232 49.6364C966.99 49.1477 966.869 48.5436 966.869 47.8239V42.2727H968.567V47.6193C968.567 48.214 968.732 48.6875 969.062 49.0398C969.391 49.392 969.819 49.5682 970.346 49.5682C970.664 49.5682 970.98 49.4886 971.295 49.3295C971.613 49.1705 971.876 48.9299 972.085 48.608C972.297 48.286 972.401 47.8769 972.397 47.3807ZM982.924 44.4034L981.384 44.6761C981.32 44.4792 981.218 44.2917 981.077 44.1136C980.941 43.9356 980.755 43.7898 980.521 43.6761C980.286 43.5625 979.992 43.5057 979.64 43.5057C979.159 43.5057 978.757 43.6136 978.435 43.8295C978.113 44.0417 977.952 44.3163 977.952 44.6534C977.952 44.9451 978.06 45.1799 978.276 45.358C978.492 45.536 978.841 45.6818 979.322 45.7955L980.708 46.1136C981.511 46.2992 982.11 46.5852 982.504 46.9716C982.897 47.358 983.094 47.8598 983.094 48.4773C983.094 49 982.943 49.4659 982.64 49.875C982.341 50.2803 981.922 50.5985 981.384 50.8295C980.85 51.0606 980.231 51.1761 979.526 51.1761C978.549 51.1761 977.752 50.9678 977.134 50.5511C976.517 50.1307 976.138 49.5341 975.998 48.7614L977.64 48.5114C977.742 48.9394 977.952 49.2633 978.271 49.483C978.589 49.6989 979.004 49.8068 979.515 49.8068C980.072 49.8068 980.517 49.6913 980.85 49.4602C981.183 49.2254 981.35 48.9394 981.35 48.6023C981.35 48.3295 981.248 48.1004 981.043 47.9148C980.843 47.7292 980.534 47.589 980.117 47.4943L978.64 47.1705C977.826 46.9848 977.223 46.6894 976.833 46.2841C976.447 45.8788 976.254 45.3655 976.254 44.7443C976.254 44.2292 976.397 43.7784 976.685 43.392C976.973 43.0057 977.371 42.7045 977.879 42.4886C978.386 42.2689 978.968 42.1591 979.623 42.1591C980.566 42.1591 981.308 42.3636 981.85 42.7727C982.392 43.178 982.75 43.7216 982.924 44.4034ZM989.036 42.2727V43.6364H984.269V42.2727H989.036ZM985.548 40.1818H987.246V48.4375C987.246 48.767 987.296 49.0152 987.394 49.1818C987.493 49.3447 987.62 49.4564 987.775 49.517C987.934 49.5739 988.106 49.6023 988.292 49.6023C988.428 49.6023 988.548 49.5928 988.65 49.5739C988.752 49.5549 988.832 49.5398 988.888 49.5284L989.195 50.9318C989.097 50.9697 988.957 51.0076 988.775 51.0455C988.593 51.0871 988.366 51.1098 988.093 51.1136C987.646 51.1212 987.229 51.0417 986.843 50.875C986.457 50.7083 986.144 50.4508 985.906 50.1023C985.667 49.7538 985.548 49.3163 985.548 48.7898V40.1818ZM990.915 51V42.2727H992.558V43.6591H992.648C992.808 43.1894 993.088 42.8201 993.489 42.5511C993.891 42.2784 994.349 42.142 994.864 42.142C995.103 42.142 995.317 42.1705 995.506 42.2273C995.696 42.2841 995.862 42.3617 996.006 42.4602L995.461 43.8807C995.359 43.8314 995.243 43.7917 995.114 43.7614C994.986 43.7273 994.838 43.7102 994.671 43.7102C994.277 43.7102 993.925 43.7955 993.614 43.9659C993.308 44.1326 993.063 44.3636 992.881 44.6591C992.703 44.9545 992.614 45.2917 992.614 45.6705V51H990.915ZM1000.21 51.1705C999.509 51.1705 998.88 50.9905 998.327 50.6307C997.778 50.267 997.346 49.75 997.032 49.0795C996.721 48.4053 996.566 47.5966 996.566 46.6534C996.566 45.7102 996.723 44.9034 997.038 44.233C997.356 43.5625 997.791 43.0492 998.344 42.6932C998.897 42.3371 999.524 42.1591 1000.23 42.1591C1000.77 42.1591 1001.2 42.25 1001.53 42.4318C1001.87 42.6098 1002.12 42.8182 1002.3 43.0568C1002.49 43.2955 1002.63 43.5057 1002.74 43.6875H1002.84V42.2727H1004.54V51H1002.88V49.642H1002.74C1002.63 49.8277 1002.49 50.0398 1002.29 50.2784C1002.1 50.517 1001.84 50.7254 1001.51 50.9034C1001.18 51.0814 1000.74 51.1705 1000.21 51.1705ZM1000.59 49.7216C1001.08 49.7216 1001.49 49.5928 1001.83 49.3352C1002.17 49.0739 1002.43 48.7121 1002.6 48.25C1002.78 47.7879 1002.87 47.25 1002.87 46.6364C1002.87 46.0303 1002.78 45.5 1002.61 45.0455C1002.43 44.5909 1002.18 44.2367 1001.84 43.983C1001.5 43.7292 1001.08 43.6023 1000.59 43.6023C1000.08 43.6023 999.651 43.7348 999.31 44C998.969 44.2652 998.712 44.6269 998.538 45.0852C998.367 45.5436 998.282 46.0606 998.282 46.6364C998.282 47.2197 998.369 47.7443 998.543 48.2102C998.718 48.6761 998.975 49.0455 999.316 49.3182C999.661 49.5871 1000.08 49.7216 1000.59 49.7216ZM1011.04 42.2727V43.6364H1006.27V42.2727H1011.04ZM1007.55 40.1818H1009.25V48.4375C1009.25 48.767 1009.3 49.0152 1009.39 49.1818C1009.49 49.3447 1009.62 49.4564 1009.77 49.517C1009.93 49.5739 1010.11 49.6023 1010.29 49.6023C1010.43 49.6023 1010.55 49.5928 1010.65 49.5739C1010.75 49.5549 1010.83 49.5398 1010.89 49.5284L1011.2 50.9318C1011.1 50.9697 1010.96 51.0076 1010.77 51.0455C1010.59 51.0871 1010.37 51.1098 1010.09 51.1136C1009.65 51.1212 1009.23 51.0417 1008.84 50.875C1008.46 50.7083 1008.14 50.4508 1007.91 50.1023C1007.67 49.7538 1007.55 49.3163 1007.55 48.7898V40.1818ZM1012.92 51V42.2727H1014.61V51H1012.92ZM1013.77 40.9261C1013.48 40.9261 1013.22 40.8277 1013.01 40.6307C1012.8 40.4299 1012.7 40.1913 1012.7 39.9148C1012.7 39.6345 1012.8 39.3958 1013.01 39.1989C1013.22 38.9981 1013.48 38.8977 1013.77 38.8977C1014.07 38.8977 1014.32 38.9981 1014.53 39.1989C1014.74 39.3958 1014.85 39.6345 1014.85 39.9148C1014.85 40.1913 1014.74 40.4299 1014.53 40.6307C1014.32 40.8277 1014.07 40.9261 1013.77 40.9261ZM1020.58 51.1761C1019.76 51.1761 1019.04 50.9886 1018.43 50.6136C1017.82 50.2386 1017.35 49.714 1017.01 49.0398C1016.68 48.3655 1016.51 47.5777 1016.51 46.6761C1016.51 45.7708 1016.68 44.9792 1017.01 44.3011C1017.35 43.6231 1017.82 43.0966 1018.43 42.7216C1019.04 42.3466 1019.76 42.1591 1020.58 42.1591C1021.39 42.1591 1022.11 42.3466 1022.72 42.7216C1023.33 43.0966 1023.8 43.6231 1024.14 44.3011C1024.48 44.9792 1024.64 45.7708 1024.64 46.6761C1024.64 47.5777 1024.48 48.3655 1024.14 49.0398C1023.8 49.714 1023.33 50.2386 1022.72 50.6136C1022.11 50.9886 1021.39 51.1761 1020.58 51.1761ZM1020.58 49.75C1021.11 49.75 1021.55 49.6098 1021.9 49.3295C1022.25 49.0492 1022.51 48.6761 1022.67 48.2102C1022.84 47.7443 1022.93 47.2311 1022.93 46.6705C1022.93 46.1136 1022.84 45.6023 1022.67 45.1364C1022.51 44.6667 1022.25 44.2898 1021.9 44.0057C1021.55 43.7216 1021.11 43.5795 1020.58 43.5795C1020.05 43.5795 1019.6 43.7216 1019.25 44.0057C1018.9 44.2898 1018.64 44.6667 1018.47 45.1364C1018.31 45.6023 1018.22 46.1136 1018.22 46.6705C1018.22 47.2311 1018.31 47.7443 1018.47 48.2102C1018.64 48.6761 1018.9 49.0492 1019.25 49.3295C1019.6 49.6098 1020.05 49.75 1020.58 49.75ZM1028.24 45.8182V51H1026.54V42.2727H1028.17V43.6932H1028.28C1028.48 43.2311 1028.79 42.8598 1029.22 42.5795C1029.65 42.2992 1030.2 42.1591 1030.85 42.1591C1031.45 42.1591 1031.97 42.2841 1032.42 42.5341C1032.86 42.7803 1033.21 43.1477 1033.46 43.6364C1033.7 44.125 1033.82 44.7292 1033.82 45.4489V51H1032.13V45.6534C1032.13 45.0208 1031.96 44.5265 1031.63 44.1705C1031.3 43.8106 1030.85 43.6307 1030.27 43.6307C1029.88 43.6307 1029.53 43.7159 1029.22 43.8864C1028.92 44.0568 1028.68 44.3068 1028.5 44.6364C1028.33 44.9621 1028.24 45.3561 1028.24 45.8182ZM1042.64 44.4034L1041.1 44.6761C1041.04 44.4792 1040.94 44.2917 1040.8 44.1136C1040.66 43.9356 1040.47 43.7898 1040.24 43.6761C1040 43.5625 1039.71 43.5057 1039.36 43.5057C1038.88 43.5057 1038.48 43.6136 1038.15 43.8295C1037.83 44.0417 1037.67 44.3163 1037.67 44.6534C1037.67 44.9451 1037.78 45.1799 1038 45.358C1038.21 45.536 1038.56 45.6818 1039.04 45.7955L1040.43 46.1136C1041.23 46.2992 1041.83 46.5852 1042.22 46.9716C1042.62 47.358 1042.81 47.8598 1042.81 48.4773C1042.81 49 1042.66 49.4659 1042.36 49.875C1042.06 50.2803 1041.64 50.5985 1041.1 50.8295C1040.57 51.0606 1039.95 51.1761 1039.25 51.1761C1038.27 51.1761 1037.47 50.9678 1036.85 50.5511C1036.24 50.1307 1035.86 49.5341 1035.72 48.7614L1037.36 48.5114C1037.46 48.9394 1037.67 49.2633 1037.99 49.483C1038.31 49.6989 1038.72 49.8068 1039.23 49.8068C1039.79 49.8068 1040.24 49.6913 1040.57 49.4602C1040.9 49.2254 1041.07 48.9394 1041.07 48.6023C1041.07 48.3295 1040.97 48.1004 1040.76 47.9148C1040.56 47.7292 1040.25 47.589 1039.84 47.4943L1038.36 47.1705C1037.54 46.9848 1036.94 46.6894 1036.55 46.2841C1036.17 45.8788 1035.97 45.3655 1035.97 44.7443C1035.97 44.2292 1036.12 43.7784 1036.4 43.392C1036.69 43.0057 1037.09 42.7045 1037.6 42.4886C1038.1 42.2689 1038.69 42.1591 1039.34 42.1591C1040.28 42.1591 1041.03 42.3636 1041.57 42.7727C1042.11 43.178 1042.47 43.7216 1042.64 44.4034Z" fill="#111827"/>
<path d="M1065 43L1060 48L1055 43" stroke="#111827" stroke-width="1.39167" stroke-linecap="round" stroke-linejoin="round"/>
<path d="M1099.1 51H1095.33V39.3636H1099.22C1100.36 39.3636 1101.34 39.5966 1102.16 40.0625C1102.98 40.5246 1103.6 41.1894 1104.04 42.0568C1104.48 42.9205 1104.7 43.9564 1104.7 45.1648C1104.7 46.3769 1104.48 47.4186 1104.03 48.2898C1103.59 49.161 1102.96 49.8314 1102.12 50.3011C1101.29 50.767 1100.28 51 1099.1 51ZM1097.09 49.4659H1099C1099.89 49.4659 1100.63 49.2992 1101.21 48.9659C1101.8 48.6288 1102.24 48.142 1102.53 47.5057C1102.82 46.8655 1102.97 46.0852 1102.97 45.1648C1102.97 44.2519 1102.82 43.4773 1102.53 42.8409C1102.24 42.2045 1101.81 41.7216 1101.24 41.392C1100.67 41.0625 1099.96 40.8977 1099.11 40.8977H1097.09V49.4659ZM1110.42 51.1761C1109.6 51.1761 1108.89 50.9886 1108.28 50.6136C1107.67 50.2386 1107.19 49.714 1106.86 49.0398C1106.52 48.3655 1106.35 47.5777 1106.35 46.6761C1106.35 45.7708 1106.52 44.9792 1106.86 44.3011C1107.19 43.6231 1107.67 43.0966 1108.28 42.7216C1108.89 42.3466 1109.6 42.1591 1110.42 42.1591C1111.24 42.1591 1111.95 42.3466 1112.56 42.7216C1113.17 43.0966 1113.65 43.6231 1113.98 44.3011C1114.32 44.9792 1114.49 45.7708 1114.49 46.6761C1114.49 47.5777 1114.32 48.3655 1113.98 49.0398C1113.65 49.714 1113.17 50.2386 1112.56 50.6136C1111.95 50.9886 1111.24 51.1761 1110.42 51.1761ZM1110.43 49.75C1110.96 49.75 1111.4 49.6098 1111.74 49.3295C1112.09 49.0492 1112.35 48.6761 1112.52 48.2102C1112.69 47.7443 1112.77 47.2311 1112.77 46.6705C1112.77 46.1136 1112.69 45.6023 1112.52 45.1364C1112.35 44.6667 1112.09 44.2898 1111.74 44.0057C1111.4 43.7216 1110.96 43.5795 1110.43 43.5795C1109.89 43.5795 1109.45 43.7216 1109.1 44.0057C1108.75 44.2898 1108.49 44.6667 1108.32 45.1364C1108.15 45.6023 1108.07 46.1136 1108.07 46.6705C1108.07 47.2311 1108.15 47.7443 1108.32 48.2102C1108.49 48.6761 1108.75 49.0492 1109.1 49.3295C1109.45 49.6098 1109.89 49.75 1110.43 49.75ZM1120.06 51.1761C1119.22 51.1761 1118.49 50.9848 1117.88 50.6023C1117.27 50.2159 1116.81 49.6837 1116.48 49.0057C1116.16 48.3277 1115.99 47.5511 1115.99 46.6761C1115.99 45.7898 1116.16 45.0076 1116.49 44.3295C1116.83 43.6477 1117.3 43.1155 1117.9 42.733C1118.51 42.3504 1119.22 42.1591 1120.04 42.1591C1120.71 42.1591 1121.3 42.2822 1121.82 42.5284C1122.33 42.7708 1122.75 43.1117 1123.07 43.5511C1123.39 43.9905 1123.58 44.5038 1123.65 45.0909H1121.99C1121.9 44.6818 1121.69 44.3295 1121.37 44.0341C1121.05 43.7386 1120.61 43.5909 1120.07 43.5909C1119.6 43.5909 1119.18 43.7159 1118.83 43.9659C1118.48 44.2121 1118.2 44.5644 1118 45.0227C1117.81 45.4773 1117.71 46.0152 1117.71 46.6364C1117.71 47.2727 1117.8 47.822 1118 48.2841C1118.19 48.7462 1118.46 49.1042 1118.82 49.358C1119.17 49.6117 1119.59 49.7386 1120.07 49.7386C1120.39 49.7386 1120.69 49.6799 1120.95 49.5625C1121.21 49.4413 1121.43 49.2689 1121.61 49.0455C1121.79 48.822 1121.92 48.553 1121.99 48.2386H1123.65C1123.58 48.803 1123.4 49.3068 1123.09 49.75C1122.79 50.1932 1122.38 50.5417 1121.86 50.7955C1121.35 51.0492 1120.75 51.1761 1120.06 51.1761ZM1130.99 47.3807V42.2727H1132.7V51H1131.02V49.4886H1130.93C1130.73 49.9545 1130.41 50.3428 1129.97 50.6534C1129.53 50.9602 1128.98 51.1136 1128.33 51.1136C1127.77 51.1136 1127.27 50.9905 1126.84 50.7443C1126.41 50.4943 1126.07 50.125 1125.83 49.6364C1125.58 49.1477 1125.46 48.5436 1125.46 47.8239V42.2727H1127.16V47.6193C1127.16 48.214 1127.33 48.6875 1127.66 49.0398C1127.99 49.392 1128.41 49.5682 1128.94 49.5682C1129.26 49.5682 1129.57 49.4886 1129.89 49.3295C1130.21 49.1705 1130.47 48.9299 1130.68 48.608C1130.89 48.286 1130.99 47.8769 1130.99 47.3807ZM1134.98 51V42.2727H1136.61V43.6932H1136.72C1136.9 43.2121 1137.2 42.8371 1137.61 42.5682C1138.02 42.2955 1138.52 42.1591 1139.09 42.1591C1139.67 42.1591 1140.16 42.2955 1140.56 42.5682C1140.96 42.8409 1141.25 43.2159 1141.44 43.6932H1141.53C1141.74 43.2273 1142.07 42.8561 1142.52 42.5795C1142.98 42.2992 1143.52 42.1591 1144.15 42.1591C1144.94 42.1591 1145.59 42.4072 1146.09 42.9034C1146.59 43.3996 1146.84 44.1477 1146.84 45.1477V51H1145.14V45.3068C1145.14 44.7159 1144.98 44.2879 1144.66 44.0227C1144.34 43.7576 1143.95 43.625 1143.51 43.625C1142.95 43.625 1142.52 43.7955 1142.22 44.1364C1141.91 44.4735 1141.76 44.9072 1141.76 45.4375V51H1140.06V45.1989C1140.06 44.7254 1139.92 44.3447 1139.62 44.0568C1139.32 43.7689 1138.94 43.625 1138.47 43.625C1138.14 43.625 1137.85 43.7102 1137.57 43.8807C1137.31 44.0473 1137.09 44.2803 1136.92 44.5795C1136.76 44.8788 1136.68 45.2254 1136.68 45.6193V51H1134.98ZM1152.88 51.1761C1152.02 51.1761 1151.28 50.9924 1150.66 50.625C1150.04 50.2538 1149.56 49.733 1149.23 49.0625C1148.89 48.3883 1148.73 47.5985 1148.73 46.6932C1148.73 45.7992 1148.89 45.0114 1149.23 44.3295C1149.56 43.6477 1150.03 43.1155 1150.64 42.733C1151.24 42.3504 1151.95 42.1591 1152.76 42.1591C1153.25 42.1591 1153.73 42.2405 1154.19 42.4034C1154.65 42.5663 1155.07 42.822 1155.44 43.1705C1155.8 43.5189 1156.09 43.9716 1156.31 44.5284C1156.52 45.0814 1156.62 45.7538 1156.62 46.5455V47.1477H1149.69V45.875H1154.96C1154.96 45.428 1154.87 45.0322 1154.69 44.6875C1154.5 44.339 1154.25 44.0644 1153.92 43.8636C1153.59 43.6629 1153.21 43.5625 1152.77 43.5625C1152.29 43.5625 1151.88 43.6799 1151.52 43.9148C1151.17 44.1458 1150.9 44.4489 1150.7 44.8239C1150.51 45.1951 1150.42 45.5985 1150.42 46.0341V47.0284C1150.42 47.6117 1150.52 48.108 1150.73 48.517C1150.93 48.9261 1151.22 49.2386 1151.6 49.4545C1151.97 49.6667 1152.4 49.7727 1152.9 49.7727C1153.22 49.7727 1153.51 49.7273 1153.78 49.6364C1154.04 49.5417 1154.27 49.4015 1154.47 49.2159C1154.66 49.0303 1154.81 48.8011 1154.91 48.5284L1156.52 48.8182C1156.39 49.2917 1156.16 49.7064 1155.82 50.0625C1155.49 50.4148 1155.08 50.6894 1154.58 50.8864C1154.08 51.0795 1153.52 51.1761 1152.88 51.1761ZM1160.21 45.8182V51H1158.51V42.2727H1160.14V43.6932H1160.25C1160.45 43.2311 1160.76 42.8598 1161.19 42.5795C1161.62 42.2992 1162.17 42.1591 1162.82 42.1591C1163.42 42.1591 1163.94 42.2841 1164.38 42.5341C1164.83 42.7803 1165.18 43.1477 1165.42 43.6364C1165.67 44.125 1165.79 44.7292 1165.79 45.4489V51H1164.09V45.6534C1164.09 45.0208 1163.93 44.5265 1163.6 44.1705C1163.27 43.8106 1162.82 43.6307 1162.24 43.6307C1161.85 43.6307 1161.5 43.7159 1161.19 43.8864C1160.89 44.0568 1160.65 44.3068 1160.47 44.6364C1160.3 44.9621 1160.21 45.3561 1160.21 45.8182ZM1172.15 42.2727V43.6364H1167.38V42.2727H1172.15ZM1168.66 40.1818H1170.36V48.4375C1170.36 48.767 1170.41 49.0152 1170.5 49.1818C1170.6 49.3447 1170.73 49.4564 1170.88 49.517C1171.04 49.5739 1171.22 49.6023 1171.4 49.6023C1171.54 49.6023 1171.66 49.5928 1171.76 49.5739C1171.86 49.5549 1171.94 49.5398 1172 49.5284L1172.3 50.9318C1172.21 50.9697 1172.07 51.0076 1171.88 51.0455C1171.7 51.0871 1171.48 51.1098 1171.2 51.1136C1170.76 51.1212 1170.34 51.0417 1169.95 50.875C1169.57 50.7083 1169.25 50.4508 1169.01 50.1023C1168.78 49.7538 1168.66 49.3163 1168.66 48.7898V40.1818ZM1177.2 51.1705C1176.49 51.1705 1175.86 50.9905 1175.31 50.6307C1174.76 50.267 1174.33 49.75 1174.02 49.0795C1173.71 48.4053 1173.55 47.5966 1173.55 46.6534C1173.55 45.7102 1173.71 44.9034 1174.02 44.233C1174.34 43.5625 1174.78 43.0492 1175.33 42.6932C1175.88 42.3371 1176.51 42.1591 1177.21 42.1591C1177.75 42.1591 1178.19 42.25 1178.52 42.4318C1178.85 42.6098 1179.11 42.8182 1179.29 43.0568C1179.47 43.2955 1179.62 43.5057 1179.72 43.6875H1179.82V42.2727H1181.52V51H1179.86V49.642H1179.72C1179.62 49.8277 1179.47 50.0398 1179.28 50.2784C1179.09 50.517 1178.83 50.7254 1178.49 50.9034C1178.16 51.0814 1177.73 51.1705 1177.2 51.1705ZM1177.57 49.7216C1178.06 49.7216 1178.47 49.5928 1178.81 49.3352C1179.15 49.0739 1179.41 48.7121 1179.58 48.25C1179.76 47.7879 1179.85 47.25 1179.85 46.6364C1179.85 46.0303 1179.76 45.5 1179.59 45.0455C1179.42 44.5909 1179.16 44.2367 1178.82 43.983C1178.49 43.7292 1178.07 43.6023 1177.57 43.6023C1177.06 43.6023 1176.64 43.7348 1176.29 44C1175.95 44.2652 1175.7 44.6269 1175.52 45.0852C1175.35 45.5436 1175.27 46.0606 1175.27 46.6364C1175.27 47.2197 1175.35 47.7443 1175.53 48.2102C1175.7 48.6761 1175.96 49.0455 1176.3 49.3182C1176.65 49.5871 1177.07 49.7216 1177.57 49.7216ZM1188.02 42.2727V43.6364H1183.25V42.2727H1188.02ZM1184.53 40.1818H1186.23V48.4375C1186.23 48.767 1186.28 49.0152 1186.38 49.1818C1186.48 49.3447 1186.6 49.4564 1186.76 49.517C1186.92 49.5739 1187.09 49.6023 1187.28 49.6023C1187.41 49.6023 1187.53 49.5928 1187.63 49.5739C1187.74 49.5549 1187.82 49.5398 1187.87 49.5284L1188.18 50.9318C1188.08 50.9697 1187.94 51.0076 1187.76 51.0455C1187.58 51.0871 1187.35 51.1098 1187.08 51.1136C1186.63 51.1212 1186.21 51.0417 1185.83 50.875C1185.44 50.7083 1185.13 50.4508 1184.89 50.1023C1184.65 49.7538 1184.53 49.3163 1184.53 48.7898V40.1818ZM1189.9 51V42.2727H1191.6V51H1189.9ZM1190.76 40.9261C1190.46 40.9261 1190.21 40.8277 1190 40.6307C1189.79 40.4299 1189.68 40.1913 1189.68 39.9148C1189.68 39.6345 1189.79 39.3958 1190 39.1989C1190.21 38.9981 1190.46 38.8977 1190.76 38.8977C1191.05 38.8977 1191.31 38.9981 1191.51 39.1989C1191.73 39.3958 1191.83 39.6345 1191.83 39.9148C1191.83 40.1913 1191.73 40.4299 1191.51 40.6307C1191.31 40.8277 1191.05 40.9261 1190.76 40.9261ZM1197.56 51.1761C1196.74 51.1761 1196.03 50.9886 1195.42 50.6136C1194.81 50.2386 1194.33 49.714 1194 49.0398C1193.66 48.3655 1193.49 47.5777 1193.49 46.6761C1193.49 45.7708 1193.66 44.9792 1194 44.3011C1194.33 43.6231 1194.81 43.0966 1195.42 42.7216C1196.03 42.3466 1196.74 42.1591 1197.56 42.1591C1198.38 42.1591 1199.09 42.3466 1199.7 42.7216C1200.31 43.0966 1200.79 43.6231 1201.12 44.3011C1201.46 44.9792 1201.63 45.7708 1201.63 46.6761C1201.63 47.5777 1201.46 48.3655 1201.12 49.0398C1200.79 49.714 1200.31 50.2386 1199.7 50.6136C1199.09 50.9886 1198.38 51.1761 1197.56 51.1761ZM1197.57 49.75C1198.1 49.75 1198.54 49.6098 1198.88 49.3295C1199.23 49.0492 1199.49 48.6761 1199.66 48.2102C1199.83 47.7443 1199.91 47.2311 1199.91 46.6705C1199.91 46.1136 1199.83 45.6023 1199.66 45.1364C1199.49 44.6667 1199.23 44.2898 1198.88 44.0057C1198.54 43.7216 1198.1 43.5795 1197.57 43.5795C1197.03 43.5795 1196.59 43.7216 1196.24 44.0057C1195.89 44.2898 1195.63 44.6667 1195.46 45.1364C1195.29 45.6023 1195.21 46.1136 1195.21 46.6705C1195.21 47.2311 1195.29 47.7443 1195.46 48.2102C1195.63 48.6761 1195.89 49.0492 1196.24 49.3295C1196.59 49.6098 1197.03 49.75 1197.57 49.75ZM1205.22 45.8182V51H1203.52V42.2727H1205.16V43.6932H1205.26C1205.46 43.2311 1205.78 42.8598 1206.21 42.5795C1206.64 42.2992 1207.18 42.1591 1207.84 42.1591C1208.43 42.1591 1208.95 42.2841 1209.4 42.5341C1209.85 42.7803 1210.19 43.1477 1210.44 43.6364C1210.69 44.125 1210.81 44.7292 1210.81 45.4489V51H1209.11V45.6534C1209.11 45.0208 1208.95 44.5265 1208.62 44.1705C1208.29 43.8106 1207.83 43.6307 1207.26 43.6307C1206.86 43.6307 1206.51 43.7159 1206.21 43.8864C1205.9 44.0568 1205.66 44.3068 1205.49 44.6364C1205.31 44.9621 1205.22 45.3561 1205.22 45.8182Z" fill="#111827"/>
<path d="M1238.6 51H1236.73L1240.92 39.3636H1242.95L1247.14 51H1245.27L1241.98 41.4773H1241.89L1238.6 51ZM1238.91 46.4432H1244.96V47.9205H1238.91V46.4432ZM1248.82 51V39.3636H1250.52V43.6875H1250.62C1250.72 43.5057 1250.86 43.2955 1251.04 43.0568C1251.23 42.8182 1251.49 42.6098 1251.82 42.4318C1252.15 42.25 1252.58 42.1591 1253.12 42.1591C1253.83 42.1591 1254.46 42.3371 1255.01 42.6932C1255.56 43.0492 1256 43.5625 1256.31 44.233C1256.63 44.9034 1256.79 45.7102 1256.79 46.6534C1256.79 47.5966 1256.63 48.4053 1256.32 49.0795C1256 49.75 1255.57 50.267 1255.02 50.6307C1254.47 50.9905 1253.85 51.1705 1253.14 51.1705C1252.61 51.1705 1252.18 51.0814 1251.84 50.9034C1251.51 50.7254 1251.25 50.517 1251.06 50.2784C1250.87 50.0398 1250.72 49.8277 1250.62 49.642H1250.48V51H1248.82ZM1250.48 46.6364C1250.48 47.25 1250.57 47.7879 1250.75 48.25C1250.93 48.7121 1251.18 49.0739 1251.52 49.3352C1251.86 49.5928 1252.27 49.7216 1252.76 49.7216C1253.27 49.7216 1253.69 49.5871 1254.03 49.3182C1254.37 49.0455 1254.63 48.6761 1254.81 48.2102C1254.98 47.7443 1255.07 47.2197 1255.07 46.6364C1255.07 46.0606 1254.99 45.5436 1254.81 45.0852C1254.64 44.6269 1254.38 44.2652 1254.04 44C1253.7 43.7348 1253.27 43.6023 1252.76 43.6023C1252.27 43.6023 1251.85 43.7292 1251.51 43.983C1251.17 44.2367 1250.92 44.5909 1250.74 45.0455C1250.57 45.5 1250.48 46.0303 1250.48 46.6364ZM1262.37 51.1761C1261.55 51.1761 1260.84 50.9886 1260.23 50.6136C1259.62 50.2386 1259.15 49.714 1258.81 49.0398C1258.47 48.3655 1258.3 47.5777 1258.3 46.6761C1258.3 45.7708 1258.47 44.9792 1258.81 44.3011C1259.15 43.6231 1259.62 43.0966 1260.23 42.7216C1260.84 42.3466 1261.55 42.1591 1262.37 42.1591C1263.19 42.1591 1263.91 42.3466 1264.51 42.7216C1265.12 43.0966 1265.6 43.6231 1265.94 44.3011C1266.27 44.9792 1266.44 45.7708 1266.44 46.6761C1266.44 47.5777 1266.27 48.3655 1265.94 49.0398C1265.6 49.714 1265.12 50.2386 1264.51 50.6136C1263.91 50.9886 1263.19 51.1761 1262.37 51.1761ZM1262.38 49.75C1262.91 49.75 1263.35 49.6098 1263.7 49.3295C1264.05 49.0492 1264.3 48.6761 1264.47 48.2102C1264.64 47.7443 1264.73 47.2311 1264.73 46.6705C1264.73 46.1136 1264.64 45.6023 1264.47 45.1364C1264.3 44.6667 1264.05 44.2898 1263.7 44.0057C1263.35 43.7216 1262.91 43.5795 1262.38 43.5795C1261.84 43.5795 1261.4 43.7216 1261.05 44.0057C1260.7 44.2898 1260.44 44.6667 1260.27 45.1364C1260.1 45.6023 1260.02 46.1136 1260.02 46.6705C1260.02 47.2311 1260.1 47.7443 1260.27 48.2102C1260.44 48.6761 1260.7 49.0492 1261.05 49.3295C1261.4 49.6098 1261.84 49.75 1262.38 49.75ZM1273.87 47.3807V42.2727H1275.57V51H1273.9V49.4886H1273.81C1273.61 49.9545 1273.29 50.3428 1272.84 50.6534C1272.4 50.9602 1271.86 51.1136 1271.2 51.1136C1270.64 51.1136 1270.14 50.9905 1269.71 50.7443C1269.28 50.4943 1268.95 50.125 1268.7 49.6364C1268.46 49.1477 1268.34 48.5436 1268.34 47.8239V42.2727H1270.04V47.6193C1270.04 48.214 1270.2 48.6875 1270.53 49.0398C1270.86 49.392 1271.29 49.5682 1271.81 49.5682C1272.13 49.5682 1272.45 49.4886 1272.76 49.3295C1273.08 49.1705 1273.34 48.9299 1273.55 48.608C1273.77 48.286 1273.87 47.8769 1273.87 47.3807ZM1281.93 42.2727V43.6364H1277.16V42.2727H1281.93ZM1278.44 40.1818H1280.14V48.4375C1280.14 48.767 1280.19 49.0152 1280.28 49.1818C1280.38 49.3447 1280.51 49.4564 1280.67 49.517C1280.82 49.5739 1281 49.6023 1281.18 49.6023C1281.32 49.6023 1281.44 49.5928 1281.54 49.5739C1281.64 49.5549 1281.72 49.5398 1281.78 49.5284L1282.09 50.9318C1281.99 50.9697 1281.85 51.0076 1281.67 51.0455C1281.48 51.0871 1281.26 51.1098 1280.98 51.1136C1280.54 51.1212 1280.12 51.0417 1279.73 50.875C1279.35 50.7083 1279.03 50.4508 1278.8 50.1023C1278.56 49.7538 1278.44 49.3163 1278.44 48.7898V40.1818Z" fill="#111827"/>
<rect x="1323" y="23" width="1" height="44" fill="#D1D5DB"/>
<g filter="url(#filter0_d_8_358)">
<rect x="1364" y="25" width="83" height="40" rx="6" fill="white"/>
<rect x="1364.5" y="25.5" width="82" height="39" rx="5.5" stroke="#D1D5DB"/>
<path d="M1385.73 51V39.3636H1387.49V49.4886H1392.76V51H1385.73ZM1398.3 51.1761C1397.48 51.1761 1396.77 50.9886 1396.16 50.6136C1395.55 50.2386 1395.08 49.714 1394.74 49.0398C1394.4 48.3655 1394.23 47.5777 1394.23 46.6761C1394.23 45.7708 1394.4 44.9792 1394.74 44.3011C1395.08 43.6231 1395.55 43.0966 1396.16 42.7216C1396.77 42.3466 1397.48 42.1591 1398.3 42.1591C1399.12 42.1591 1399.83 42.3466 1400.44 42.7216C1401.05 43.0966 1401.53 43.6231 1401.87 44.3011C1402.2 44.9792 1402.37 45.7708 1402.37 46.6761C1402.37 47.5777 1402.2 48.3655 1401.87 49.0398C1401.53 49.714 1401.05 50.2386 1400.44 50.6136C1399.83 50.9886 1399.12 51.1761 1398.3 51.1761ZM1398.31 49.75C1398.84 49.75 1399.28 49.6098 1399.63 49.3295C1399.97 49.0492 1400.23 48.6761 1400.4 48.2102C1400.57 47.7443 1400.65 47.2311 1400.65 46.6705C1400.65 46.1136 1400.57 45.6023 1400.4 45.1364C1400.23 44.6667 1399.97 44.2898 1399.63 44.0057C1399.28 43.7216 1398.84 43.5795 1398.31 43.5795C1397.77 43.5795 1397.33 43.7216 1396.98 44.0057C1396.63 44.2898 1396.37 44.6667 1396.2 45.1364C1396.03 45.6023 1395.95 46.1136 1395.95 46.6705C1395.95 47.2311 1396.03 47.7443 1396.2 48.2102C1396.37 48.6761 1396.63 49.0492 1396.98 49.3295C1397.33 49.6098 1397.77 49.75 1398.31 49.75ZM1407.93 54.4545C1407.23 54.4545 1406.64 54.3636 1406.14 54.1818C1405.64 54 1405.23 53.7595 1404.92 53.4602C1404.61 53.161 1404.37 52.8333 1404.22 52.4773L1405.68 51.875C1405.78 52.0417 1405.91 52.2178 1406.09 52.4034C1406.26 52.5928 1406.49 52.7538 1406.79 52.8864C1407.09 53.0189 1407.47 53.0852 1407.94 53.0852C1408.59 53.0852 1409.12 52.928 1409.54 52.6136C1409.96 52.303 1410.17 51.8068 1410.17 51.125V49.4091H1410.06C1409.96 49.5947 1409.81 49.8011 1409.62 50.0284C1409.43 50.2557 1409.17 50.4527 1408.84 50.6193C1408.5 50.786 1408.07 50.8693 1407.53 50.8693C1406.84 50.8693 1406.22 50.7083 1405.67 50.3864C1405.12 50.0606 1404.69 49.5814 1404.36 48.9489C1404.05 48.3125 1403.89 47.5303 1403.89 46.6023C1403.89 45.6742 1404.04 44.8788 1404.36 44.2159C1404.68 43.553 1405.11 43.0455 1405.66 42.6932C1406.22 42.3371 1406.84 42.1591 1407.55 42.1591C1408.09 42.1591 1408.52 42.25 1408.86 42.4318C1409.19 42.6098 1409.45 42.8182 1409.64 43.0568C1409.83 43.2955 1409.97 43.5057 1410.07 43.6875H1410.2V42.2727H1411.86V51.1932C1411.86 51.9432 1411.69 52.5587 1411.34 53.0398C1410.99 53.5208 1410.52 53.8769 1409.93 54.108C1409.34 54.339 1408.67 54.4545 1407.93 54.4545ZM1407.91 49.4602C1408.4 49.4602 1408.81 49.3466 1409.15 49.1193C1409.49 48.8883 1409.75 48.5587 1409.92 48.1307C1410.1 47.6989 1410.19 47.1818 1410.19 46.5795C1410.19 45.9924 1410.1 45.4754 1409.93 45.0284C1409.75 44.5814 1409.5 44.233 1409.16 43.983C1408.82 43.7292 1408.41 43.6023 1407.91 43.6023C1407.4 43.6023 1406.97 43.7348 1406.63 44C1406.29 44.2614 1406.03 44.6174 1405.86 45.0682C1405.69 45.5189 1405.6 46.0227 1405.6 46.5795C1405.6 47.1515 1405.69 47.6534 1405.86 48.0852C1406.04 48.517 1406.3 48.8542 1406.64 49.0966C1406.98 49.339 1407.41 49.4602 1407.91 49.4602ZM1414.14 51V42.2727H1415.84V51H1414.14ZM1415 40.9261C1414.7 40.9261 1414.45 40.8277 1414.24 40.6307C1414.03 40.4299 1413.93 40.1913 1413.93 39.9148C1413.93 39.6345 1414.03 39.3958 1414.24 39.1989C1414.45 38.9981 1414.7 38.8977 1415 38.8977C1415.3 38.8977 1415.55 38.9981 1415.76 39.1989C1415.97 39.3958 1416.07 39.6345 1416.07 39.9148C1416.07 40.1913 1415.97 40.4299 1415.76 40.6307C1415.55 40.8277 1415.3 40.9261 1415 40.9261ZM1419.83 45.8182V51H1418.13V42.2727H1419.76V43.6932H1419.87C1420.07 43.2311 1420.38 42.8598 1420.81 42.5795C1421.24 42.2992 1421.78 42.1591 1422.44 42.1591C1423.03 42.1591 1423.55 42.2841 1424 42.5341C1424.45 42.7803 1424.79 43.1477 1425.04 43.6364C1425.29 44.125 1425.41 44.7292 1425.41 45.4489V51H1423.71V45.6534C1423.71 45.0208 1423.55 44.5265 1423.22 44.1705C1422.89 43.8106 1422.44 43.6307 1421.86 43.6307C1421.47 43.6307 1421.12 43.7159 1420.81 43.8864C1420.51 44.0568 1420.26 44.3068 1420.09 44.6364C1419.91 44.9621 1419.83 45.3561 1419.83 45.8182Z" fill="#374151"/>
</g>
<rect x="1459" y="25" width="98" height="40" rx="6" fill="#566FA7"/>
<path d="M1486.95 42.4205C1486.89 41.8826 1486.64 41.4659 1486.2 41.1705C1485.76 40.8712 1485.21 40.7216 1484.54 40.7216C1484.07 40.7216 1483.65 40.7973 1483.31 40.9489C1482.96 41.0966 1482.69 41.3011 1482.49 41.5625C1482.3 41.8201 1482.21 42.1136 1482.21 42.4432C1482.21 42.7197 1482.27 42.9583 1482.4 43.1591C1482.53 43.3598 1482.71 43.5284 1482.92 43.6648C1483.13 43.7973 1483.37 43.9091 1483.61 44C1483.86 44.0871 1484.1 44.1591 1484.32 44.2159L1485.46 44.5114C1485.83 44.6023 1486.21 44.7254 1486.6 44.8807C1486.99 45.036 1487.35 45.2405 1487.69 45.4943C1488.02 45.7481 1488.29 46.0625 1488.49 46.4375C1488.7 46.8125 1488.81 47.2614 1488.81 47.7841C1488.81 48.4432 1488.63 49.0284 1488.29 49.5398C1487.96 50.0511 1487.47 50.4545 1486.82 50.75C1486.18 51.0455 1485.41 51.1932 1484.5 51.1932C1483.63 51.1932 1482.87 51.0549 1482.24 50.7784C1481.6 50.5019 1481.1 50.1098 1480.74 49.6023C1480.38 49.0909 1480.18 48.4848 1480.15 47.7841H1481.91C1481.94 48.2045 1482.08 48.5549 1482.32 48.8352C1482.56 49.1117 1482.87 49.3182 1483.24 49.4545C1483.62 49.5871 1484.04 49.6534 1484.49 49.6534C1484.98 49.6534 1485.42 49.5758 1485.81 49.4205C1486.2 49.2614 1486.51 49.0417 1486.73 48.7614C1486.96 48.4773 1487.07 48.1458 1487.07 47.767C1487.07 47.4223 1486.97 47.1402 1486.77 46.9205C1486.58 46.7008 1486.31 46.5189 1485.98 46.375C1485.65 46.2311 1485.28 46.1042 1484.86 45.9943L1483.49 45.6193C1482.56 45.3655 1481.82 44.9924 1481.27 44.5C1480.73 44.0076 1480.46 43.3561 1480.46 42.5455C1480.46 41.875 1480.64 41.2898 1481 40.7898C1481.37 40.2898 1481.86 39.9015 1482.48 39.625C1483.1 39.3447 1483.8 39.2045 1484.58 39.2045C1485.37 39.2045 1486.07 39.3428 1486.67 39.6193C1487.28 39.8958 1487.75 40.2765 1488.1 40.7614C1488.45 41.2424 1488.63 41.7955 1488.65 42.4205H1486.95ZM1490.77 51V42.2727H1492.47V51H1490.77ZM1491.62 40.9261C1491.33 40.9261 1491.08 40.8277 1490.86 40.6307C1490.66 40.4299 1490.55 40.1913 1490.55 39.9148C1490.55 39.6345 1490.66 39.3958 1490.86 39.1989C1491.08 38.9981 1491.33 38.8977 1491.62 38.8977C1491.92 38.8977 1492.17 38.9981 1492.38 39.1989C1492.59 39.3958 1492.7 39.6345 1492.7 39.9148C1492.7 40.1913 1492.59 40.4299 1492.38 40.6307C1492.17 40.8277 1491.92 40.9261 1491.62 40.9261ZM1498.41 54.4545C1497.72 54.4545 1497.12 54.3636 1496.62 54.1818C1496.12 54 1495.72 53.7595 1495.4 53.4602C1495.09 53.161 1494.86 52.8333 1494.7 52.4773L1496.16 51.875C1496.26 52.0417 1496.4 52.2178 1496.57 52.4034C1496.74 52.5928 1496.98 52.7538 1497.27 52.8864C1497.57 53.0189 1497.96 53.0852 1498.43 53.0852C1499.07 53.0852 1499.6 52.928 1500.02 52.6136C1500.44 52.303 1500.65 51.8068 1500.65 51.125V49.4091H1500.55C1500.44 49.5947 1500.3 49.8011 1500.1 50.0284C1499.91 50.2557 1499.65 50.4527 1499.32 50.6193C1498.99 50.786 1498.55 50.8693 1498.02 50.8693C1497.33 50.8693 1496.71 50.7083 1496.15 50.3864C1495.61 50.0606 1495.17 49.5814 1494.85 48.9489C1494.53 48.3125 1494.37 47.5303 1494.37 46.6023C1494.37 45.6742 1494.53 44.8788 1494.84 44.2159C1495.16 43.553 1495.6 43.0455 1496.15 42.6932C1496.7 42.3371 1497.33 42.1591 1498.03 42.1591C1498.57 42.1591 1499.01 42.25 1499.34 42.4318C1499.68 42.6098 1499.94 42.8182 1500.12 43.0568C1500.31 43.2955 1500.46 43.5057 1500.56 43.6875H1500.68V42.2727H1502.35V51.1932C1502.35 51.9432 1502.17 52.5587 1501.83 53.0398C1501.48 53.5208 1501.01 53.8769 1500.41 54.108C1499.82 54.339 1499.15 54.4545 1498.41 54.4545ZM1498.39 49.4602C1498.88 49.4602 1499.29 49.3466 1499.63 49.1193C1499.97 48.8883 1500.23 48.5587 1500.4 48.1307C1500.58 47.6989 1500.67 47.1818 1500.67 46.5795C1500.67 45.9924 1500.58 45.4754 1500.41 45.0284C1500.24 44.5814 1499.98 44.233 1499.64 43.983C1499.31 43.7292 1498.89 43.6023 1498.39 43.6023C1497.88 43.6023 1497.46 43.7348 1497.12 44C1496.77 44.2614 1496.52 44.6174 1496.34 45.0682C1496.17 45.5189 1496.09 46.0227 1496.09 46.5795C1496.09 47.1515 1496.17 47.6534 1496.35 48.0852C1496.52 48.517 1496.78 48.8542 1497.12 49.0966C1497.47 49.339 1497.89 49.4602 1498.39 49.4602ZM1506.33 45.8182V51H1504.63V42.2727H1506.26V43.6932H1506.37C1506.57 43.2311 1506.88 42.8598 1507.31 42.5795C1507.74 42.2992 1508.28 42.1591 1508.94 42.1591C1509.53 42.1591 1510.05 42.2841 1510.5 42.5341C1510.95 42.7803 1511.29 43.1477 1511.54 43.6364C1511.79 44.125 1511.91 44.7292 1511.91 45.4489V51H1510.21V45.6534C1510.21 45.0208 1510.05 44.5265 1509.72 44.1705C1509.39 43.8106 1508.94 43.6307 1508.36 43.6307C1507.97 43.6307 1507.62 43.7159 1507.31 43.8864C1507.01 44.0568 1506.76 44.3068 1506.59 44.6364C1506.41 44.9621 1506.33 45.3561 1506.33 45.8182ZM1523.95 47.3807V42.2727H1525.66V51H1523.99V49.4886H1523.89C1523.69 49.9545 1523.37 50.3428 1522.93 50.6534C1522.49 50.9602 1521.94 51.1136 1521.29 51.1136C1520.73 51.1136 1520.23 50.9905 1519.8 50.7443C1519.37 50.4943 1519.03 50.125 1518.79 49.6364C1518.54 49.1477 1518.42 48.5436 1518.42 47.8239V42.2727H1520.12V47.6193C1520.12 48.214 1520.29 48.6875 1520.62 49.0398C1520.95 49.392 1521.37 49.5682 1521.9 49.5682C1522.22 49.5682 1522.54 49.4886 1522.85 49.3295C1523.17 49.1705 1523.43 48.9299 1523.64 48.608C1523.85 48.286 1523.96 47.8769 1523.95 47.3807ZM1527.94 54.2727V42.2727H1529.6V43.6875H1529.74C1529.84 43.5057 1529.98 43.2955 1530.17 43.0568C1530.35 42.8182 1530.61 42.6098 1530.94 42.4318C1531.27 42.25 1531.7 42.1591 1532.25 42.1591C1532.95 42.1591 1533.58 42.3371 1534.13 42.6932C1534.69 43.0492 1535.12 43.5625 1535.43 44.233C1535.75 44.9034 1535.91 45.7102 1535.91 46.6534C1535.91 47.5966 1535.75 48.4053 1535.44 49.0795C1535.12 49.75 1534.69 50.267 1534.14 50.6307C1533.59 50.9905 1532.97 51.1705 1532.26 51.1705C1531.73 51.1705 1531.3 51.0814 1530.96 50.9034C1530.63 50.7254 1530.37 50.517 1530.18 50.2784C1529.99 50.0398 1529.84 49.8277 1529.74 49.642H1529.64V54.2727H1527.94ZM1529.6 46.6364C1529.6 47.25 1529.69 47.7879 1529.87 48.25C1530.05 48.7121 1530.31 49.0739 1530.64 49.3352C1530.98 49.5928 1531.39 49.7216 1531.88 49.7216C1532.39 49.7216 1532.81 49.5871 1533.15 49.3182C1533.5 49.0455 1533.75 48.6761 1533.93 48.2102C1534.11 47.7443 1534.19 47.2197 1534.19 46.6364C1534.19 46.0606 1534.11 45.5436 1533.93 45.0852C1533.76 44.6269 1533.51 44.2652 1533.16 44C1532.82 43.7348 1532.39 43.6023 1531.88 43.6023C1531.39 43.6023 1530.97 43.7292 1530.63 43.983C1530.29 44.2367 1530.04 44.5909 1529.87 45.0455C1529.69 45.5 1529.6 46.0303 1529.6 46.6364Z" fill="white"/>
<path d="M1122.01 386.696C1100.41 386.696 1082.94 403.4 1082.94 424.616C1082.94 445.928 1100.41 462.44 1122.01 462.44C1143.52 462.44 1160.99 445.928 1160.99 424.616C1160.99 403.4 1143.52 386.696 1122.01 386.696ZM1122.01 445.928C1110.59 445.928 1101.57 436.712 1101.57 424.616C1101.57 412.616 1110.59 403.304 1122.01 403.304C1133.44 403.304 1142.46 412.616 1142.46 424.616C1142.46 436.712 1133.44 445.928 1122.01 445.928ZM1205.83 386.696C1184.23 386.696 1166.76 403.4 1166.76 424.616C1166.76 445.928 1184.23 462.44 1205.83 462.44C1227.33 462.44 1244.8 445.928 1244.8 424.616C1244.8 403.4 1227.33 386.696 1205.83 386.696ZM1205.83 445.928C1194.4 445.928 1185.38 436.712 1185.38 424.616C1185.38 412.616 1194.4 403.304 1205.83 403.304C1217.25 403.304 1226.28 412.616 1226.28 424.616C1226.28 436.712 1217.25 445.928 1205.83 445.928ZM1253.16 388.04V461H1271.59V445.16H1287.14C1305.77 445.16 1317.96 433.352 1317.96 416.264C1317.96 399.368 1306.34 388.04 1287.14 388.04H1253.16ZM1271.59 429.32V403.88H1286.47C1294.15 403.88 1300.49 408.584 1300.49 416.264C1300.49 424.136 1294.15 429.32 1286.47 429.32H1271.59ZM1353.27 386.696C1337.33 386.696 1325.62 394.856 1325.62 409.736C1325.62 421.544 1333.11 427.208 1344.15 430.376L1357.68 434.312C1361.71 435.368 1363.25 437.384 1363.25 440.264C1363.25 444.104 1359.99 446.6 1354.61 446.6C1348.27 446.6 1343.95 443.528 1342.42 436.328L1323.51 440.168C1325.33 454.088 1338.19 462.44 1354.03 462.44C1368.34 462.44 1382.74 455.528 1382.74 439.112C1382.74 427.688 1376.21 422.12 1364.21 418.184L1350 413.672C1346.83 412.712 1345.3 410.888 1345.3 408.008C1345.3 403.976 1348.75 401.768 1353.17 401.768C1357.49 401.768 1362.48 403.88 1364.02 411.272L1382.07 407.624C1379.67 393.992 1368.43 386.696 1353.27 386.696ZM1410.46 388.04H1390.11V391.112L1391.55 435.752H1409.02L1410.46 391.112V388.04ZM1400.67 442.28C1394.91 442.28 1390.78 446.888 1390.78 451.976C1390.78 457.352 1394.91 461.48 1400.67 461.48C1406.52 461.48 1410.75 457.352 1410.75 451.976C1410.75 446.888 1406.52 442.28 1400.67 442.28Z" fill="#566FA7"/>
<path d="M1106.27 541.344H1086.93V509.52H1081.79V546H1106.27V541.344ZM1122.73 521.52C1115.58 521.52 1109.82 526.704 1109.82 534.096C1109.82 541.488 1115.58 546.672 1122.73 546.672C1129.79 546.672 1135.55 541.488 1135.55 534.096C1135.55 526.704 1129.79 521.52 1122.73 521.52ZM1122.73 542.256C1118.32 542.256 1114.72 539.04 1114.72 534.096C1114.72 529.152 1118.32 525.936 1122.73 525.936C1127.05 525.936 1130.7 529.152 1130.7 534.096C1130.7 539.04 1127.05 542.256 1122.73 542.256ZM1151.94 521.52C1144.78 521.52 1139.02 526.704 1139.02 534.096C1139.02 541.488 1144.78 546.672 1151.94 546.672C1158.99 546.672 1164.75 541.488 1164.75 534.096C1164.75 526.704 1158.99 521.52 1151.94 521.52ZM1151.94 542.256C1147.52 542.256 1143.92 539.04 1143.92 534.096C1143.92 529.152 1147.52 525.936 1151.94 525.936C1156.26 525.936 1159.9 529.152 1159.9 534.096C1159.9 539.04 1156.26 542.256 1151.94 542.256ZM1186.9 546H1193.81L1179.99 534.096L1192.9 522.192H1186.47L1175.28 532.32V507.6H1170.29V546H1175.28V536.16L1186.9 546ZM1195.14 539.616C1195.66 544.56 1200.13 546.672 1204.93 546.672C1210.5 546.672 1214.34 543.936 1214.34 539.04C1214.34 535.728 1212.46 533.568 1208.62 532.56L1203.97 531.312C1201.86 530.784 1200.85 529.92 1200.85 528.384C1200.85 526.56 1202.29 525.36 1204.59 525.36C1207.38 525.36 1208.91 527.136 1209.3 529.392L1214.05 528.384C1213.23 524.4 1209.78 521.52 1204.59 521.52C1199.26 521.52 1195.81 524.544 1195.81 528.912C1195.81 532.416 1198.06 534.432 1201.9 535.392L1206.85 536.688C1208.72 537.168 1209.44 538.08 1209.44 539.424C1209.44 541.296 1207.95 542.736 1205.22 542.736C1202.62 542.736 1200.51 541.392 1200.18 538.56L1195.14 539.616ZM1236.55 546V507.6H1231.56V546H1236.55ZM1247 510.576C1245.13 510.576 1243.78 512.064 1243.78 513.744C1243.78 515.472 1245.13 516.768 1247 516.768C1248.82 516.768 1250.17 515.472 1250.17 513.744C1250.17 512.064 1248.82 510.576 1247 510.576ZM1249.5 546V522.192H1244.5V546H1249.5ZM1274.04 546H1280.95L1267.13 534.096L1280.04 522.192H1273.61L1262.42 532.32V507.6H1257.43V546H1262.42V536.16L1274.04 546ZM1305.81 533.568C1305.57 526.416 1300.29 521.52 1293.91 521.52C1287.19 521.52 1281.57 526.56 1281.57 534.144C1281.57 541.68 1287.24 546.672 1293.72 546.672C1299 546.672 1303.22 544.176 1305.19 539.184L1300.72 538.224C1299.04 541.584 1296.36 542.352 1293.72 542.352C1290.21 542.352 1287 539.712 1286.52 535.296H1305.81V533.568ZM1293.91 525.936C1297.17 525.936 1299.91 527.856 1300.68 531.744H1286.66C1287.43 527.904 1290.79 525.936 1293.91 525.936ZM1336.83 521.52C1333.23 521.52 1330.25 522.768 1328.19 524.928V507.6H1323.2V546H1328.19V543.264C1330.25 545.424 1333.23 546.672 1336.83 546.672C1343.07 546.672 1348.64 541.632 1348.64 534.096C1348.64 526.608 1343.07 521.52 1336.83 521.52ZM1336.01 542.256C1332.08 542.256 1328.19 539.136 1328.19 534.096C1328.19 529.104 1332.08 525.936 1336.01 525.936C1340.38 525.936 1343.79 529.104 1343.79 534.096C1343.79 539.136 1340.38 542.256 1336.01 542.256ZM1357.02 510.576C1355.14 510.576 1353.8 512.064 1353.8 513.744C1353.8 515.472 1355.14 516.768 1357.02 516.768C1358.84 516.768 1360.18 515.472 1360.18 513.744C1360.18 512.064 1358.84 510.576 1357.02 510.576ZM1359.51 546V522.192H1354.52V546H1359.51ZM1392.31 526.32V522.192H1381.9C1380.7 521.76 1379.35 521.52 1377.96 521.52C1372.1 521.52 1367.69 525.648 1367.69 531.12C1367.69 532.848 1368.12 534.432 1368.94 535.776C1367.16 536.832 1365.77 538.56 1365.77 541.008C1365.77 542.88 1366.54 544.512 1367.88 545.616C1366.01 547.104 1364.76 549.312 1364.76 552.048C1364.76 557.136 1368.79 560.88 1375.94 560.88H1379.26C1386.65 560.88 1391.21 557.136 1391.21 551.616C1391.21 546.672 1387.46 543.408 1381.9 543.408H1373.78C1371.72 543.408 1370.33 542.352 1370.33 540.768C1370.33 539.904 1370.81 539.184 1371.72 538.752C1373.4 539.952 1375.56 540.624 1377.96 540.624C1383.82 540.624 1388.23 536.544 1388.23 531.12C1388.23 529.392 1387.8 527.76 1386.98 526.368L1392.31 526.32ZM1377.96 536.4C1374.7 536.4 1372.25 534.096 1372.25 531.12C1372.25 528.096 1374.7 525.792 1377.96 525.792C1381.18 525.792 1383.67 528.096 1383.67 531.12C1383.67 534.096 1381.18 536.4 1377.96 536.4ZM1381.9 547.536C1384.49 547.536 1386.17 549.12 1386.17 551.568C1386.17 554.544 1383.62 556.752 1379.26 556.752H1376.28C1371.96 556.752 1369.75 554.592 1369.75 551.76C1369.75 549.12 1371.67 547.536 1374.55 547.536H1381.9ZM1423.87 526.32V522.192H1414.51V515.856C1414.51 513.168 1416.14 511.344 1418.64 511.344C1419.41 511.344 1420.32 511.488 1421.18 511.824L1422.38 507.744C1421.09 507.168 1419.79 506.88 1418.3 506.88C1412.98 506.88 1409.52 510.48 1409.52 515.856V522.192H1404.67V526.32H1409.52V546H1414.51V526.32H1423.87ZM1438.2 521.52C1431.05 521.52 1425.29 526.704 1425.29 534.096C1425.29 541.488 1431.05 546.672 1438.2 546.672C1445.26 546.672 1451.02 541.488 1451.02 534.096C1451.02 526.704 1445.26 521.52 1438.2 521.52ZM1438.2 542.256C1433.79 542.256 1430.19 539.04 1430.19 534.096C1430.19 529.152 1433.79 525.936 1438.2 525.936C1442.52 525.936 1446.17 529.152 1446.17 534.096C1446.17 539.04 1442.52 542.256 1438.2 542.256ZM1467.41 521.52C1460.25 521.52 1454.49 526.704 1454.49 534.096C1454.49 541.488 1460.25 546.672 1467.41 546.672C1474.46 546.672 1480.22 541.488 1480.22 534.096C1480.22 526.704 1474.46 521.52 1467.41 521.52ZM1467.41 542.256C1462.99 542.256 1459.39 539.04 1459.39 534.096C1459.39 529.152 1462.99 525.936 1467.41 525.936C1471.73 525.936 1475.37 529.152 1475.37 534.096C1475.37 539.04 1471.73 542.256 1467.41 542.256ZM1492.1 526.32H1501.94V522.192H1492.1V511.44L1487.1 512.976V522.192H1481.97V526.32H1487.1V538.272C1487.1 543.552 1490.13 546.672 1495.36 546.672C1497.33 546.672 1499.01 546.192 1501.22 544.848L1499.73 540.672C1498.48 541.488 1496.94 541.968 1495.7 541.968C1493.49 541.968 1492.1 540.48 1492.1 537.888V526.32ZM1095.04 586.52C1091.49 586.52 1088.7 587.816 1086.78 590.12V572.6H1081.79V611H1086.78V600.008C1086.78 594.008 1089.62 591.128 1093.89 591.128C1097.3 591.128 1099.55 593.72 1099.55 597.608V611H1104.59V596.6C1104.59 590.648 1100.75 586.52 1095.04 586.52ZM1134.07 606.44C1133.01 606.536 1132.53 606.632 1132.05 606.632C1131.29 606.632 1130.76 605.864 1130.76 604.76V595.496C1130.76 589.736 1126.73 586.52 1121.01 586.52C1115.64 586.52 1111.85 589.4 1110.93 594.008L1115.54 595.016C1116.07 592.328 1118.04 590.792 1120.82 590.792C1124.09 590.792 1126.01 592.808 1126.01 595.88V596.312L1119.14 596.84C1112.85 597.32 1109.49 600.008 1109.49 604.424C1109.49 608.792 1112.9 611.672 1117.85 611.672C1121.78 611.672 1124.52 610.088 1126.29 607.928C1126.97 610.184 1128.65 611.24 1131.05 611.24C1132.2 611.24 1133.16 611.048 1134.45 610.424L1134.07 606.44ZM1118.81 607.64C1116.31 607.64 1114.53 606.44 1114.53 604.232C1114.53 602.216 1115.97 600.776 1119.53 600.44L1126.01 599.768V601.208C1126.01 604.856 1122.84 607.64 1118.81 607.64ZM1136.73 604.616C1137.26 609.56 1141.72 611.672 1146.52 611.672C1152.09 611.672 1155.93 608.936 1155.93 604.04C1155.93 600.728 1154.06 598.568 1150.22 597.56L1145.56 596.312C1143.45 595.784 1142.44 594.92 1142.44 593.384C1142.44 591.56 1143.88 590.36 1146.19 590.36C1148.97 590.36 1150.51 592.136 1150.89 594.392L1155.64 593.384C1154.83 589.4 1151.37 586.52 1146.19 586.52C1140.86 586.52 1137.4 589.544 1137.4 593.912C1137.4 597.416 1139.66 599.432 1143.5 600.392L1148.44 601.688C1150.31 602.168 1151.03 603.08 1151.03 604.424C1151.03 606.296 1149.55 607.736 1146.81 607.736C1144.22 607.736 1142.11 606.392 1141.77 603.56L1136.73 604.616ZM1186.78 586.52C1183.18 586.52 1180.21 587.768 1178.14 589.928V572.6H1173.15V611H1178.14V608.264C1180.21 610.424 1183.18 611.672 1186.78 611.672C1193.02 611.672 1198.59 606.632 1198.59 599.096C1198.59 591.608 1193.02 586.52 1186.78 586.52ZM1185.97 607.256C1182.03 607.256 1178.14 604.136 1178.14 599.096C1178.14 594.104 1182.03 590.936 1185.97 590.936C1190.34 590.936 1193.74 594.104 1193.74 599.096C1193.74 604.136 1190.34 607.256 1185.97 607.256ZM1218.15 586.904C1213.88 586.904 1210.9 588.92 1209.08 592.088V587.192H1204.09V611H1209.08V602.6C1209.08 596.072 1212.06 591.848 1218.1 591.848C1218.54 591.848 1219.11 591.848 1219.5 591.896L1219.83 587.096C1219.21 586.904 1218.73 586.904 1218.15 586.904ZM1234.67 586.52C1227.52 586.52 1221.76 591.704 1221.76 599.096C1221.76 606.488 1227.52 611.672 1234.67 611.672C1241.73 611.672 1247.49 606.488 1247.49 599.096C1247.49 591.704 1241.73 586.52 1234.67 586.52ZM1234.67 607.256C1230.26 607.256 1226.66 604.04 1226.66 599.096C1226.66 594.152 1230.26 590.936 1234.67 590.936C1238.99 590.936 1242.64 594.152 1242.64 599.096C1242.64 604.04 1238.99 607.256 1234.67 607.256ZM1269.63 611H1276.55L1262.72 599.096L1275.63 587.192H1269.2L1258.02 597.32V572.6H1253.03V611H1258.02V601.16L1269.63 611ZM1301.41 598.568C1301.17 591.416 1295.89 586.52 1289.5 586.52C1282.78 586.52 1277.17 591.56 1277.17 599.144C1277.17 606.68 1282.83 611.672 1289.31 611.672C1294.59 611.672 1298.81 609.176 1300.78 604.184L1296.32 603.224C1294.64 606.584 1291.95 607.352 1289.31 607.352C1285.81 607.352 1282.59 604.712 1282.11 600.296H1301.41V598.568ZM1289.5 590.936C1292.77 590.936 1295.5 592.856 1296.27 596.744H1282.25C1283.02 592.904 1286.38 590.936 1289.5 590.936ZM1320.18 586.52C1316.63 586.52 1313.84 587.816 1311.92 590.12V587.192H1306.93V611H1311.92V600.008C1311.92 594.008 1314.76 591.128 1319.03 591.128C1322.44 591.128 1324.69 593.72 1324.69 597.608V611H1329.73V596.6C1329.73 590.648 1325.89 586.52 1320.18 586.52ZM1354.89 591.32H1364.73V587.192H1354.89V576.44L1349.9 577.976V587.192H1344.77V591.32H1349.9V603.272C1349.9 608.552 1352.93 611.672 1358.16 611.672C1360.13 611.672 1361.81 611.192 1364.01 609.848L1362.53 605.672C1361.28 606.488 1359.74 606.968 1358.49 606.968C1356.29 606.968 1354.89 605.48 1354.89 602.888V591.32ZM1381.92 586.52C1378.36 586.52 1375.58 587.816 1373.66 590.12V572.6H1368.67V611H1373.66V600.008C1373.66 594.008 1376.49 591.128 1380.76 591.128C1384.17 591.128 1386.43 593.72 1386.43 597.608V611H1391.47V596.6C1391.47 590.648 1387.63 586.52 1381.92 586.52ZM1420.61 598.568C1420.37 591.416 1415.09 586.52 1408.7 586.52C1401.98 586.52 1396.37 591.56 1396.37 599.144C1396.37 606.68 1402.03 611.672 1408.51 611.672C1413.79 611.672 1418.02 609.176 1419.98 604.184L1415.52 603.224C1413.84 606.584 1411.15 607.352 1408.51 607.352C1405.01 607.352 1401.79 604.712 1401.31 600.296H1420.61V598.568ZM1408.7 590.936C1411.97 590.936 1414.7 592.856 1415.47 596.744H1401.46C1402.22 592.904 1405.58 590.936 1408.7 590.936ZM1442.99 611V572.6H1438V611H1442.99ZM1453.44 575.576C1451.57 575.576 1450.22 577.064 1450.22 578.744C1450.22 580.472 1451.57 581.768 1453.44 581.768C1455.26 581.768 1456.61 580.472 1456.61 578.744C1456.61 577.064 1455.26 575.576 1453.44 575.576ZM1455.93 611V587.192H1450.94V611H1455.93ZM1477.12 586.52C1473.57 586.52 1470.78 587.816 1468.86 590.12V587.192H1463.87V611H1468.86V600.008C1468.86 594.008 1471.69 591.128 1475.97 591.128C1479.37 591.128 1481.63 593.72 1481.63 597.608V611H1486.67V596.6C1486.67 590.648 1482.83 586.52 1477.12 586.52ZM1510.24 611H1517.16L1503.33 599.096L1516.24 587.192H1509.81L1498.63 597.32V572.6H1493.64V611H1498.63V601.16L1510.24 611Z" fill="#8093B8"/>
<path fill-rule="evenodd" clip-rule="evenodd" d="M483.687 484.272C490.3 489.303 494.235 495.694 489.941 502.888C486.319 508.958 478.004 509.02 469.126 506.788C470.457 510.556 472.013 514.243 473.787 517.83C477.65 525.638 480.888 531.276 483.5 534.742C488.471 541.339 497.657 535.037 511.058 515.837C516.348 508.258 525.007 503.742 534.25 503.742C535.095 503.742 535.937 503.828 536.765 503.999C543.511 505.387 547.853 511.982 546.464 518.728C531.574 591.052 519.756 630.509 511.012 637.099C497.016 647.645 484.01 694.263 484.01 694.263L405.446 682.87L396.719 648.603C394.063 638.173 393.623 627.302 395.427 616.691L414.937 501.957C416.24 494.291 418.655 486.856 422.103 479.887L429.459 465.022C435.229 453.364 447.481 446.358 460.455 447.299L530.641 452.39C536.613 452.823 541.826 456.598 544.103 462.136C547.417 470.202 543.566 479.428 535.5 482.742C528.913 485.45 511.641 485.959 483.687 484.272Z" fill="#8093B8"/>
<path fill-rule="evenodd" clip-rule="evenodd" d="M403 547.992L389.242 571.331C389.081 571.605 388.931 571.886 388.794 572.173L340 674.242L349 727.742L427 668.242L423 609.742L400 625.242L412.424 551.429C412.892 548.651 411.019 546.02 408.241 545.553C406.157 545.202 404.073 546.172 403 547.992Z" fill="#9AACD3"/>
<path fill-rule="evenodd" clip-rule="evenodd" d="M349.5 560.185C330.462 553.224 311.425 546.262 292.387 539.301C245.704 522.231 194.023 546.236 176.953 592.919C173.705 601.8 171.878 611.136 171.537 620.586L168 718.742H370C356.333 613.037 349.5 560.185 349.5 560.185Z" fill="#CBDBFE"/>
<path fill-rule="evenodd" clip-rule="evenodd" d="M340.862 369.726L387.102 365.879L395.067 312.393C395.311 310.754 396.837 309.623 398.476 309.868C399.788 310.063 400.816 311.097 401.004 312.41L409.591 372.464C410.451 378.478 406.272 384.051 400.258 384.911C400.209 384.918 400.161 384.924 400.112 384.931L345.788 391.953C338.998 392.83 332.747 388.136 331.696 381.371C330.837 375.845 334.621 370.67 340.147 369.811C340.384 369.774 340.623 369.746 340.862 369.726Z" fill="#DFE9FF"/>
<mask id="mask0_8_358" style="mask-type:alpha" maskUnits="userSpaceOnUse" x="169" y="159" width="208" height="406">
<path d="M222.693 560.564C219.455 561.811 215.885 562.345 212.196 561.992C210.828 561.862 209.473 561.615 208.146 561.256C195.156 557.738 187.478 544.355 190.996 531.365L196.446 511.242L196.367 511.286C192.1 513.638 187.062 514.162 182.402 512.736C172.889 509.826 167.536 499.756 170.446 490.242L198.897 391.291C201.241 379.767 205.435 365.57 212.206 345.003L213 342.242L213.032 342.501C221.37 317.315 233.428 282.828 250.446 232.742C250.762 231.812 260.128 203.678 260.446 202.742C262.46 200.058 266.269 199.513 268.953 201.527C270.042 202.344 270.826 203.503 271.178 204.818L277.446 228.242L286.047 165.057C286.569 161.226 290.097 158.543 293.928 159.065C296.657 159.436 298.915 161.374 299.696 164.015L300.946 168.242L372.568 401.014C375.471 410.447 376.946 420.26 376.946 430.129V523.742C376.946 546.386 358.59 564.742 335.946 564.742H240.742C234.275 564.742 228.146 563.242 222.693 560.564Z" fill="white"/>
</mask>
<g mask="url(#mask0_8_358)">
<path d="M222.693 560.564C219.455 561.811 215.885 562.345 212.196 561.992C210.828 561.862 209.473 561.615 208.146 561.256C195.156 557.738 187.478 544.355 190.996 531.365L196.446 511.242L196.367 511.286C192.1 513.638 187.062 514.162 182.402 512.736C172.889 509.826 167.536 499.756 170.446 490.242L198.897 391.291C201.241 379.767 205.435 365.57 212.206 345.003L213 342.242L213.032 342.501C221.37 317.315 233.428 282.828 250.446 232.742C250.762 231.812 260.128 203.678 260.446 202.742C262.46 200.058 266.269 199.513 268.953 201.527C270.042 202.344 270.826 203.503 271.178 204.818L277.446 228.242L286.047 165.057C286.569 161.226 290.097 158.543 293.928 159.065C296.657 159.436 298.915 161.374 299.696 164.015L300.946 168.242L372.568 401.014C375.471 410.447 376.946 420.26 376.946 430.129V523.742C376.946 546.386 358.59 564.742 335.946 564.742H240.742C234.275 564.742 228.146 563.242 222.693 560.564Z" fill="#CBDBFE"/>
<path fill-rule="evenodd" clip-rule="evenodd" d="M374.446 411.742C372.446 406.409 369.446 404.242 365.446 405.242C361.446 406.242 358.779 409.909 357.446 416.242C351.281 406.225 339.948 400.594 328.241 401.731C324.821 402.063 321.056 402.567 316.946 403.242C292.678 407.23 281.153 431.194 279.946 443.742C278.92 454.411 279.763 447.286 280 474.242C280.051 480.044 277.171 495.466 271.36 520.509C268.614 532.345 275.982 544.166 287.818 546.912C289.403 547.28 291.023 547.471 292.65 547.481C314.7 547.622 327.132 547.542 329.946 547.242C344.828 545.657 348.054 542.242 359 542.242C368.233 542.242 372.733 544.576 372.5 549.242C388.485 542.969 397.134 527.135 398.446 501.742C399.758 476.35 391.758 446.35 374.446 411.742Z" fill="#B0BFDC"/>
</g>
<path fill-rule="evenodd" clip-rule="evenodd" d="M327.946 524.242H335.946L333.645 534.725C333.471 535.521 332.831 536.131 332.028 536.268C330.94 536.454 329.906 535.722 329.72 534.633L327.946 524.242ZM366.946 524.242H374.946L372.645 534.725C372.471 535.521 371.831 536.131 371.028 536.268C369.94 536.454 368.906 535.722 368.72 534.633L366.946 524.242Z" fill="white"/>
<mask id="mask1_8_358" style="mask-type:alpha" maskUnits="userSpaceOnUse" x="498" y="706" width="355" height="342">
<path d="M694.046 808.811C716.191 754.367 731.411 724.156 739.704 718.178C749.871 710.851 761.415 712.628 766.292 718.662C782.374 703.078 798.3 702.747 814.071 717.668C815.431 718.586 816.677 719.511 817.808 720.442C823.213 720.377 828.681 721.434 834.213 723.611C862.001 734.552 858.105 757.174 822.525 791.479L720.749 908.608C708.663 922.516 692.936 932.781 675.309 938.265C670.767 939.678 664.968 944.445 657.911 952.566C651.642 959.781 648.238 965.204 647.701 968.833C644.923 987.602 636.856 1005.16 624.44 1019.44L611.4 1034.45C610.337 1035.67 609.195 1036.83 607.979 1037.9C592.685 1051.39 569.25 1049.85 555.636 1034.47L531.701 1007.42L531.513 1007.59L531.231 1006.89L526.642 1001.7L528.437 999.93L498.47 925.29L624.767 808.3L692.744 810.544C693.179 809.964 693.613 809.387 694.046 808.811Z" fill="white"/>
</mask>
<g mask="url(#mask1_8_358)">
<path d="M694.046 808.811C716.191 754.367 731.411 724.156 739.704 718.178C749.871 710.851 761.415 712.628 766.292 718.662C782.374 703.078 798.3 702.747 814.071 717.668C815.431 718.586 816.677 719.511 817.808 720.442C823.213 720.377 828.681 721.434 834.213 723.611C862.001 734.552 858.105 757.174 822.525 791.479L720.749 908.608C708.663 922.516 692.936 932.781 675.309 938.265C670.767 939.678 664.968 944.445 657.911 952.566C651.641 959.781 648.238 965.204 647.701 968.833C644.923 987.602 636.856 1005.16 624.44 1019.44L611.4 1034.45C610.337 1035.67 609.195 1036.83 607.979 1037.9C592.685 1051.39 569.25 1049.85 555.636 1034.47L531.701 1007.42L531.513 1007.59L531.231 1006.89L526.642 1001.7L528.437 999.93L498.47 925.29L624.767 808.3L692.743 810.544C693.179 809.964 693.613 809.387 694.046 808.811Z" fill="#8093B8"/>
</g>
<mask id="mask2_8_358" style="mask-type:alpha" maskUnits="userSpaceOnUse" x="286" y="468" width="51" height="29">
<path d="M322.946 468.742H300.946C293.214 468.742 286.946 475.01 286.946 482.742C286.946 490.474 293.214 496.742 300.946 496.742H322.946C330.678 496.742 336.946 490.474 336.946 482.742C336.946 475.01 330.678 468.742 322.946 468.742Z" fill="white"/>
</mask>
<g mask="url(#mask2_8_358)">
<path d="M322.946 468.742H300.946C293.214 468.742 286.946 475.01 286.946 482.742C286.946 490.474 293.214 496.742 300.946 496.742H322.946C330.678 496.742 336.946 490.474 336.946 482.742C336.946 475.01 330.678 468.742 322.946 468.742Z" fill="white"/>
<path d="M337.446 479.742C337.446 473.667 332.521 468.742 326.446 468.742C320.371 468.742 315.446 473.667 315.446 479.742V485.742C315.446 491.818 320.371 496.742 326.446 496.742C332.521 496.742 337.446 491.818 337.446 485.742V479.742Z" fill="#2B2B2B"/>
</g>
<mask id="mask3_8_358" style="mask-type:alpha" maskUnits="userSpaceOnUse" x="363" y="468" width="14" height="29">
<path d="M376.946 468.742V496.742C369.49 496.742 363.446 490.698 363.446 483.242V482.242C363.446 474.787 369.49 468.742 376.946 468.742Z" fill="white"/>
</mask>
<g mask="url(#mask3_8_358)">
<path d="M376.946 468.742V496.742C369.49 496.742 363.446 490.698 363.446 483.242V482.242C363.446 474.787 369.49 468.742 376.946 468.742Z" fill="white"/>
<path d="M392.946 479.742C392.946 473.667 388.021 468.742 381.946 468.742C375.871 468.742 370.946 473.667 370.946 479.742V485.742C370.946 491.818 375.871 496.742 381.946 496.742C388.021 496.742 392.946 491.818 392.946 485.742V479.742Z" fill="#2B2B2B"/>
</g>
<path fill-rule="evenodd" clip-rule="evenodd" d="M599 892.242C615.121 889.762 628.744 878.975 634.855 863.852L635 863.492C641.26 847.998 639.495 830.415 630.28 816.474L625.5 809.242C643.033 815.618 662.415 806.573 668.791 789.04C668.94 788.63 669.081 788.218 669.214 787.803L675 769.742C646.172 772.526 625.839 770.526 614 763.742C602.161 756.958 592.161 748.625 584 738.742L574.5 754.742L599 892.242Z" fill="#9AACD3"/>
<mask id="mask4_8_358" style="mask-type:alpha" maskUnits="userSpaceOnUse" x="363" y="892" width="422" height="158">
<path d="M625.451 963.089C681.177 944.198 714.027 935.915 724 938.242C736.225 941.095 742.472 950.921 741.117 958.52C763.474 960.427 774.196 972.168 773.285 993.742L770.211 994.978C775.51 999.586 779.451 1005.51 782.035 1012.74C792.035 1040.74 772.368 1052.58 723.035 1048.24H567.554C549.091 1048.24 530.989 1043.13 515.252 1033.47C511.198 1030.99 503.78 1029.74 493 1029.74C483.422 1029.74 477.084 1030.72 473.986 1032.69C457.969 1042.85 439.393 1048.24 420.426 1048.24H400.504C398.881 1048.24 397.259 1048.14 395.65 1047.92C375.392 1045.24 361.143 1026.65 363.824 1006.39L368.538 970.771L368.285 970.742L368.631 970.071L369.535 963.242L372.055 963.434L408.785 892.242L580.285 910.742L623.285 963.242C624.009 963.191 624.731 963.14 625.451 963.089Z" fill="white"/>
</mask>
<g mask="url(#mask4_8_358)">
<path d="M625.451 963.089C681.177 944.198 714.027 935.915 724 938.242C736.225 941.095 742.472 950.921 741.117 958.52C763.474 960.427 774.196 972.168 773.285 993.742L770.211 994.978C775.51 999.586 779.451 1005.51 782.035 1012.74C792.035 1040.74 772.368 1052.58 723.035 1048.24H567.554C549.091 1048.24 530.989 1043.13 515.252 1033.47C511.198 1030.99 503.78 1029.74 493 1029.74C483.422 1029.74 477.084 1030.72 473.986 1032.69C457.969 1042.85 439.393 1048.24 420.426 1048.24H400.504C398.881 1048.24 397.259 1048.14 395.65 1047.92C375.392 1045.24 361.143 1026.65 363.824 1006.39L368.538 970.771L368.285 970.742L368.631 970.071L369.535 963.242L372.055 963.434L408.785 892.242L580.285 910.742L623.285 963.242C624.009 963.191 624.731 963.14 625.451 963.089Z" fill="#B0BFDC"/>
<path d="M775.137 993.093C774.742 992.531 773.977 991.63 772.802 990.506C770.892 988.679 768.496 986.864 765.577 985.179C751.665 977.146 731.476 974.764 704.037 981.297C702.962 981.553 702.299 982.631 702.554 983.706C702.81 984.78 703.889 985.444 704.963 985.188C731.444 978.883 750.586 981.142 763.577 988.643C766.213 990.165 768.354 991.786 770.037 993.396C770.615 993.949 771.093 994.458 771.474 994.907C771.689 995.16 771.817 995.326 771.863 995.392C772.498 996.296 773.745 996.514 774.649 995.879C775.553 995.244 775.772 993.997 775.137 993.093Z" fill="#7181A1"/>
<path d="M781.164 1010.24C782.268 1010.24 783.164 1011.14 783.164 1012.24C783.164 1013.35 782.268 1014.24 781.164 1014.24C778.234 1014.24 764.434 1011.07 754.916 1007.96C748.732 1005.93 743.972 1003.89 741.066 1001.86C736.922 998.967 736.048 995.31 740.037 992.59C747.993 987.166 759.399 987.166 774.163 992.356C775.205 992.722 775.753 993.864 775.387 994.906C775.021 995.948 773.879 996.495 772.837 996.129C759.153 991.319 749.001 991.319 742.29 995.895C741.108 996.701 741.197 997.073 743.355 998.579C745.859 1000.33 750.322 1002.24 756.161 1004.15C765.301 1007.15 778.775 1010.24 781.164 1010.24ZM756.5 956.242C757.605 956.242 758.5 957.138 758.5 958.242C758.5 959.347 757.605 960.242 756.5 960.242C753.233 960.242 750.902 959.989 746.104 959.259L745.968 959.238C739.132 958.197 735.8 957.994 730.52 958.692C723.479 959.622 714.94 962.326 703.676 967.453C702.671 967.911 701.485 967.467 701.027 966.462C700.57 965.456 701.014 964.27 702.019 963.813C713.617 958.534 722.521 955.713 729.996 954.726C735.736 953.968 739.392 954.19 746.57 955.283L746.706 955.304C751.316 956.006 753.491 956.242 756.5 956.242Z" fill="#7181A1"/>
</g>
<path fill-rule="evenodd" clip-rule="evenodd" d="M356.287 455.271L370.521 499.838C371.99 504.436 369.453 509.354 364.855 510.823C364.044 511.082 363.199 511.221 362.348 511.236L357.7 511.317C353.835 511.385 350.646 508.306 350.579 504.44C350.578 504.407 350.578 504.373 350.578 504.34L350.429 456.193C350.424 454.536 351.763 453.189 353.42 453.184C354.729 453.18 355.889 454.024 356.287 455.271Z" fill="#7181A1"/>
<mask id="mask5_8_358" style="mask-type:alpha" maskUnits="userSpaceOnUse" x="135" y="605" width="490" height="359">
<path d="M173 695.742L137.407 854.21C127.724 897.319 154.821 940.115 197.93 949.798C203.684 951.09 209.564 951.742 215.462 951.742H297.216C334.56 951.742 368.792 930.935 385.986 897.785L420.5 831.242L369.5 963.242H392.941C418.565 963.242 442.788 951.547 458.723 931.481L474 912.242V930.242C474 948.468 488.775 963.242 507 963.242C526.809 963.242 544.498 950.842 551.253 932.22L558.5 912.242L566.557 927.748C577.889 949.557 600.422 963.242 625 963.242C601.686 893.694 588.353 837.86 585 795.742C581.647 753.625 585.48 690.125 596.5 605.242H497.5L319 712.242L173 695.742Z" fill="white"/>
</mask>
<g mask="url(#mask5_8_358)">
<path d="M173 695.742L137.407 854.21C127.724 897.319 154.821 940.115 197.93 949.798C203.684 951.09 209.564 951.742 215.462 951.742H297.216C334.56 951.742 368.792 930.935 385.986 897.785L420.5 831.242L369.5 963.242H392.941C418.565 963.242 442.788 951.547 458.723 931.481L474 912.242V930.242C474 948.468 488.775 963.242 507 963.242C526.809 963.242 544.498 950.842 551.253 932.22L558.5 912.242L566.557 927.748C577.889 949.557 600.422 963.242 625 963.242C601.686 893.694 588.353 837.86 585 795.742C581.647 753.625 585.48 690.125 596.5 605.242H497.5L319 712.242L173 695.742Z" fill="#9AACD3"/>
</g>
<path d="M291.861 534.157C297.169 528.848 301.154 526.242 303.446 526.242H375.946C377.051 526.242 377.946 525.347 377.946 524.242C377.946 523.138 377.051 522.242 375.946 522.242H303.446C299.738 522.242 295.057 525.303 289.032 531.328C288.251 532.109 288.251 533.376 289.032 534.157C289.813 534.938 291.079 534.938 291.861 534.157Z" fill="#7181A1"/>
<mask id="mask6_8_358" style="mask-type:alpha" maskUnits="userSpaceOnUse" x="288" y="468" width="48" height="29">
<path d="M335.073 475.742H288.819C291.24 471.558 295.764 468.742 300.946 468.742H322.946C328.128 468.742 332.653 471.558 335.073 475.742V475.742ZM334.437 490.742C331.907 494.369 327.704 496.742 322.946 496.742H300.946C296.189 496.742 291.986 494.369 289.456 490.742H334.437Z" fill="white"/>
</mask>
<g mask="url(#mask6_8_358)">
<path d="M335.073 475.742H288.819C291.24 471.558 295.764 468.742 300.946 468.742H322.946C328.128 468.742 332.653 471.558 335.073 475.742V475.742ZM334.437 490.742C331.907 494.369 327.704 496.742 322.946 496.742H300.946C296.189 496.742 291.986 494.369 289.456 490.742H334.437Z" fill="#7181A1"/>
</g>
<path fill-rule="evenodd" clip-rule="evenodd" d="M591.352 554.755L506.654 607.547L629.146 630.025L683.21 589.96C694.697 581.447 703.842 570.211 709.776 557.32L724.623 525.062C729.516 514.433 729.088 502.232 723.469 492.14L715.314 477.491L714.904 477.747C713.393 468.929 711.597 458.44 709.514 446.279C708.365 439.575 704.24 433.777 698.263 430.467L692.669 427.368L682.975 422.852L682.161 414.276L624.735 364.212C624.566 364.065 624.394 363.921 624.219 363.781C617.299 358.249 607.055 359.384 601.336 366.316C596.201 372.542 595.85 381.114 600.014 387.489C595.546 388.411 591.521 391.32 589.369 395.705C589.058 396.339 588.793 396.993 588.575 397.662C585.555 406.935 590.081 416.842 599.055 420.606L648.123 441.187C650.863 470.413 652.234 485.026 652.234 485.026C652.234 485.026 602.382 522.067 587.783 524.733C578.051 526.51 570.638 524.348 565.547 518.245L586.678 457.532C586.739 457.357 586.797 457.181 586.852 457.004C589.708 447.865 584.564 438.296 575.362 435.631C565.741 432.844 555.489 438.158 552.22 447.626C532.768 503.959 523.929 537.336 525.703 547.757C528.622 564.9 505.826 607.834 505.826 607.834L591.352 554.755Z" fill="#B0BFDC"/>
<mask id="mask7_8_358" style="mask-type:alpha" maskUnits="userSpaceOnUse" x="364" y="468" width="13" height="29">
<path d="M376.946 475.742H364.819C367.24 471.558 371.764 468.742 376.946 468.742V475.742ZM376.946 496.742C372.189 496.742 367.986 494.369 365.456 490.742H376.946V496.742Z" fill="white"/>
</mask>
<g mask="url(#mask7_8_358)">
<path d="M376.946 475.742H364.819C367.24 471.558 371.764 468.742 376.946 468.742V475.742ZM376.946 496.742C372.189 496.742 367.986 494.369 365.456 490.742H376.946V496.742Z" fill="#7181A1"/>
</g>
<path fill-rule="evenodd" clip-rule="evenodd" d="M637.887 340.288L571.461 338.32C564.346 338.109 558.205 343.271 557.19 350.316L535.864 498.241L618.906 508.604L631.927 499.583L651.346 356.16C652.383 348.498 647.013 341.446 639.351 340.408C638.865 340.343 638.376 340.303 637.887 340.288Z" fill="#2B2B2B"/>
<path d="M585.5 495.742C579.701 495.742 575 491.041 575 485.242C575 479.443 579.701 474.742 585.5 474.742C591.299 474.742 596 479.443 596 485.242C596 491.041 591.299 495.742 585.5 495.742ZM585.5 491.742C589.09 491.742 592 488.832 592 485.242C592 481.652 589.09 478.742 585.5 478.742C581.91 478.742 579 481.652 579 485.242C579 488.832 581.91 491.742 585.5 491.742ZM613.364 346.589C613.653 346.599 613.816 346.586 613.888 346.566C613.884 346.568 613.882 346.567 613.912 346.542C614.025 346.449 614.148 346.26 614.255 345.964C614.413 345.528 614.481 345.084 614.523 343.883L614.528 343.728L615.731 338.825L618.644 339.54L617.515 344.144C617.461 345.528 617.347 346.237 617.076 346.985C616.797 347.756 616.38 348.395 615.821 348.856C615.132 349.425 614.414 349.627 613.259 349.587L593.399 348.893C592.244 348.853 591.541 348.601 590.894 347.986C590.369 347.487 589.997 346.82 589.772 346.032C589.546 345.238 589.486 344.498 589.538 343.01L589.543 342.855L590.746 337.953L593.66 338.667L592.531 343.268C592.497 344.356 592.536 344.784 592.658 345.21C592.744 345.512 592.854 345.71 592.96 345.811C592.988 345.838 592.986 345.838 592.981 345.835C593.051 345.86 593.213 345.885 593.504 345.895L613.364 346.589Z" fill="white"/>
<mask id="mask8_8_358" style="mask-type:alpha" maskUnits="userSpaceOnUse" x="86" y="951" width="271" height="98">
<path d="M144.255 984.361L86 1048.24H357L329.467 1001.22C311.525 970.573 278.679 951.742 243.17 951.742H218.145C190.024 951.742 163.203 963.582 144.255 984.361Z" fill="white"/>
</mask>
<g mask="url(#mask8_8_358)">
<path d="M144.255 984.361L86 1048.24H357L329.467 1001.22C311.525 970.573 278.679 951.742 243.17 951.742H218.145C190.024 951.742 163.203 963.582 144.255 984.361Z" fill="#DFE9FF"/>
<path d="M118.523 1003.01L121.773 999.514C145.166 1021.46 169.735 1032.38 195.551 1032.38C216.269 1032.38 239.264 1022.4 254.299 1005.55C272.173 985.524 277.857 957.87 267.88 924.553L272.44 923.172C282.888 958.063 276.847 987.457 257.844 1008.75C241.892 1026.62 217.601 1037.17 195.551 1037.17C168.453 1037.17 142.753 1025.75 118.523 1003.01ZM327.094 991.412L328.906 996.072C299.959 1007.33 288.009 1025.73 292.464 1051.82L287.536 1052.66C282.658 1024.09 296.041 1003.49 327.094 991.412Z" fill="white"/>
<path d="M125.523 983.748C145.758 1002.66 167.242 1012.17 189.904 1012.17C208.37 1012.17 228.695 1003.38 242.048 988.475C257.954 970.723 263.01 946.219 254.277 917.172L249.701 918.536C257.966 946.028 253.265 968.812 238.483 985.309C226.05 999.185 207.028 1007.42 189.904 1007.42C168.534 1007.42 148.187 998.408 128.793 980.281L125.523 983.748Z" fill="white"/>
</g>
<path fill-rule="evenodd" clip-rule="evenodd" d="M381.946 401.242C386.446 419.242 381.946 427.742 366.946 427.742C356.946 427.742 346.946 423.076 336.946 413.742C342.28 423.076 339.28 427.742 327.946 427.742C310.946 427.742 308.446 417.183 308.446 416.242C308.446 415.301 307.833 399.234 311.446 395.742C313.303 393.948 321.813 393.948 336.974 395.742C363.955 387.409 378.946 389.242 381.946 401.242Z" fill="#CBDBFE"/>
<path fill-rule="evenodd" clip-rule="evenodd" d="M261.539 450.365C266.039 468.365 261.539 476.865 246.539 476.865C236.539 476.865 226.539 472.199 216.539 462.865C221.873 472.199 218.873 476.865 207.539 476.865C190.539 476.865 188.039 466.307 188.039 465.365C188.039 464.424 187.426 448.357 191.039 444.865C192.897 443.071 201.406 443.071 216.567 444.865C243.549 436.532 258.539 438.365 261.539 450.365Z" fill="#CBDBFE"/>
<path fill-rule="evenodd" clip-rule="evenodd" d="M599.5 323.742L588 296.742H586.5C563.304 296.742 544.5 277.938 544.5 254.742V206.242C544.5 183.046 563.304 164.242 586.5 164.242H716.5C739.696 164.242 758.5 183.046 758.5 206.242V254.742C758.5 277.938 739.696 296.742 716.5 296.742H619.5L599.5 323.742Z" fill="#DFE9FF"/>
<path fill-rule="evenodd" clip-rule="evenodd" d="M502.826 601.622C502.826 601.622 527.755 559.862 525.711 542.538C524.468 532.006 534.983 499.061 557.254 443.702C560.998 434.398 571.499 429.632 580.96 432.943C590.613 436.322 596.101 446.34 593.74 456.271L581.007 509.811C579.622 515.633 583.254 521.404 589.119 522.701C590.15 522.929 591.212 523.007 592.27 522.932" fill="#B0BFDC"/>
<path fill-rule="evenodd" clip-rule="evenodd" d="M323.678 458.508L290.566 464.452C290.022 464.549 289.502 464.188 289.405 463.644C289.376 463.486 289.386 463.324 289.434 463.171L291.196 457.492C292.581 453.03 296.313 449.694 300.902 448.817L312.61 446.579L317.946 449.242L317.801 445.586L320.566 445.058C323.824 444.435 326.97 446.571 327.593 449.829C327.651 450.13 327.685 450.436 327.696 450.742L327.791 453.409C327.88 455.895 326.127 458.069 323.678 458.508ZM367.504 446.874C365.394 446.203 363.977 444.223 364.021 442.009L364.113 437.486C364.121 437.055 364.196 436.628 364.334 436.22C365.08 434.02 367.469 432.841 369.669 433.586L369.587 437.242L372.597 434.579L376.437 435.88C380.735 437.336 383.894 441.023 384.677 445.492L385.662 451.117C385.689 451.275 385.678 451.439 385.629 451.592C385.462 452.118 384.9 452.409 384.373 452.242L367.504 446.874Z" fill="#CBDBFE"/>
<path fill-rule="evenodd" clip-rule="evenodd" d="M348.739 559.582L365.684 550.572L367.733 566.891C368.131 570.063 367.13 573.251 364.99 575.625C360.923 580.138 353.967 580.499 349.454 576.432L345.651 573.004L343.617 581.846C342.622 586.171 339.876 589.888 336.035 592.109C328.386 596.534 318.599 593.92 314.174 586.27L306.034 572.196L295.28 594.466C293.169 598.838 289.187 602.015 284.455 603.102C275.843 605.081 267.257 599.704 265.278 591.092L260.557 570.544L252.712 582.702C250.086 586.772 245.757 589.433 240.939 589.939C232.151 590.863 224.279 584.487 223.355 575.699L221.358 556.688C237.628 555.234 248.99 555.252 255.446 556.742C257.135 557.132 258.56 557.64 259.722 558.264C263.493 556.544 268.734 556.037 275.446 556.742C281.516 557.38 289.732 559.109 300.095 561.929L299.104 560.216L350.464 552.081L348.739 559.582Z" fill="#CBDBFE"/>
<path d="M263.471 591.71C265.697 601.399 275.356 607.448 285.045 605.222C290.368 603.999 294.848 600.425 297.223 595.506L306.334 576.637L312.585 587.442C317.562 596.047 328.573 598.988 337.178 594.011C341.499 591.512 344.589 587.33 345.708 582.465L346.979 576.937L348.257 578.088C349.077 578.828 350.342 578.762 351.081 577.941C351.821 577.121 351.755 575.856 350.935 575.117L347.131 571.689C345.998 570.668 344.185 571.24 343.843 572.726L341.81 581.568C340.939 585.352 338.536 588.605 335.176 590.549C328.482 594.42 319.918 592.132 316.047 585.439L307.907 571.365C307.103 569.976 305.072 570.052 304.374 571.497L293.621 593.767C291.773 597.592 288.289 600.372 284.149 601.324C276.613 603.055 269.101 598.35 267.369 590.815L262.648 570.267C262.251 568.543 259.977 568.144 259.018 569.63L251.173 581.788C248.875 585.349 245.087 587.678 240.872 588.121C233.182 588.929 226.294 583.35 225.486 575.66L223.489 556.649C223.374 555.551 222.39 554.754 221.291 554.869C220.192 554.984 219.395 555.968 219.511 557.067L221.508 576.078C222.546 585.965 231.403 593.137 241.29 592.099C246.71 591.53 251.579 588.536 254.534 583.957L259.81 575.78L263.471 591.71Z" fill="#B0BFDC"/>
<path fill-rule="evenodd" clip-rule="evenodd" d="M225.865 380.471L179.945 387.125L160.152 336.801C159.546 335.259 157.804 334.501 156.262 335.108C155.028 335.593 154.259 336.832 154.371 338.154L159.514 398.6C160.029 404.654 165.354 409.143 171.407 408.628C171.456 408.624 171.505 408.62 171.554 408.615L226.065 403.237C232.878 402.564 237.914 396.584 237.416 389.757C237.01 384.179 232.158 379.987 226.581 380.394C226.341 380.411 226.103 380.437 225.865 380.471Z" fill="#DFE9FF"/>
<path fill-rule="evenodd" clip-rule="evenodd" d="M201.466 553.502L313 707.742L502.113 553.504C504.369 551.664 506.723 549.947 509.164 548.361L526.563 537.052C531.886 533.592 538.836 533.972 543.75 537.992C549.091 542.362 552.788 548.418 554.233 555.165L555 558.742L568.455 552.152C575.15 548.873 583.236 551.642 586.515 558.337C588.355 562.093 588.349 566.491 586.5 570.242L603.173 567.396C605.716 566.962 608.3 566.818 610.875 566.968L651.483 569.337C658.65 569.755 664.122 575.905 663.704 583.072C663.659 583.842 663.545 584.606 663.365 585.355L658.232 606.697C657.752 608.694 656.767 610.534 655.372 612.042L617.562 652.893C615.19 655.457 612.654 657.864 609.971 660.1L315.74 905.292C307.822 911.891 296.284 911.767 288.509 904.999L197.357 825.656C185.377 815.229 178.5 800.125 178.5 784.242L173.765 788.061C167.526 793.093 158.585 792.959 152.5 787.742C146.078 782.238 143.367 773.548 145.519 765.368L149.5 750.242L144.472 754.459C138.707 759.295 130.113 758.541 125.278 752.775C125.268 752.764 125.259 752.753 125.25 752.742C119.801 746.204 118.078 737.333 120.682 729.23L125.5 714.242L119.15 718.476C113.268 722.397 105.426 721.563 100.5 716.492C95.3815 711.223 94.0464 703.342 97.144 696.681L161.973 557.28C167.329 545.762 181.009 540.767 192.527 546.124C196.087 547.78 199.165 550.32 201.466 553.502Z" fill="#CBDBFE"/>
<path d="M266.666 641.136C266.055 640.216 264.814 639.965 263.894 640.576C262.973 641.187 262.723 642.429 263.334 643.349L306.834 708.849C307.473 709.811 308.791 710.033 309.71 709.335L334.71 690.335C335.59 689.666 335.761 688.412 335.092 687.532C334.424 686.653 333.169 686.482 332.29 687.15L308.987 704.86L266.666 641.136Z" fill="#B0BFDC"/>
<path d="M604.425 887.7C604.344 887.412 603.596 884.926 603.33 884.026C602.63 881.661 601.935 879.227 601.195 876.515C599.103 868.856 597.07 860.51 595.164 851.411C587.541 815.017 584 777.026 586.761 739.677C586.842 738.576 586.015 737.617 584.914 737.535C583.812 737.454 582.853 738.281 582.772 739.382C579.98 777.146 583.555 815.497 591.249 852.231C593.172 861.412 595.224 869.836 597.336 877.569C598.084 880.309 598.787 882.77 599.494 885.161C599.77 886.093 600.505 888.536 600.575 888.785C600.875 889.848 601.979 890.467 603.042 890.168C604.106 889.868 604.725 888.763 604.425 887.7Z" fill="#CBDBFE"/>
<path d="M276.62 230.584L292.709 277.383C293.068 278.427 294.205 278.983 295.25 278.624C296.295 278.265 296.85 277.127 296.491 276.082L280.403 229.283C280.044 228.239 278.906 227.683 277.862 228.042C276.817 228.401 276.261 229.539 276.62 230.584Z" fill="#7181A1"/>
<mask id="mask9_8_358" style="mask-type:alpha" maskUnits="userSpaceOnUse" x="207" y="449" width="43" height="55">
<path d="M239.284 503.667C217.761 502.774 207 493.905 207 477.06C207 459.733 218.386 450.644 241.158 449.793C240.59 450.857 240.17 452.3 240 454.242C239.435 460.698 242.488 463.874 249.16 463.77C237.566 472.86 231.68 481.017 231.5 488.242C231.342 494.578 234.112 500.286 239.284 503.667Z" fill="white"/>
</mask>
<g mask="url(#mask9_8_358)">
<path d="M239.284 503.667C217.761 502.774 207 493.905 207 477.06C207 459.733 218.386 450.644 241.158 449.793C240.59 450.857 240.17 452.3 240 454.242C239.435 460.698 242.488 463.874 249.16 463.77C237.566 472.86 231.68 481.017 231.5 488.242C231.342 494.578 234.112 500.286 239.284 503.667Z" fill="#B0BFDC"/>
</g>
<path d="M678.528 417.577C678.343 416.488 679.076 415.456 680.165 415.271C681.254 415.086 682.287 415.819 682.472 416.908L693.539 482.083C695.167 491.67 691.705 501.414 684.393 507.825L658.818 530.246C657.988 530.974 656.724 530.891 655.996 530.061C655.268 529.23 655.351 527.967 656.181 527.239L681.756 504.817C688.023 499.322 690.991 490.97 689.596 482.753L678.528 417.577ZM712.024 479.554C711.852 478.463 712.597 477.439 713.688 477.267C714.779 477.095 715.803 477.839 715.975 478.93L718.899 497.448C719.991 504.363 718.453 511.436 714.588 517.273L695.667 545.847C695.058 546.768 693.817 547.02 692.896 546.41C691.975 545.8 691.723 544.559 692.332 543.638L711.253 515.065C714.566 510.062 715.884 503.999 714.948 498.071L712.024 479.554ZM648.929 439.216C649.22 440.282 648.592 441.381 647.526 441.672C646.46 441.963 645.361 441.334 645.07 440.269L642.07 429.269C641.78 428.203 642.408 427.103 643.474 426.813C644.539 426.522 645.639 427.15 645.929 428.216L648.929 439.216ZM567.501 433.669C567.542 432.565 568.469 431.703 569.573 431.744C570.677 431.784 571.539 432.712 571.499 433.816C570.801 452.817 563.59 463.995 549.888 466.704C548.804 466.919 547.752 466.214 547.538 465.13C547.324 464.047 548.028 462.995 549.112 462.78C560.743 460.48 566.865 450.991 567.501 433.669Z" fill="#7181A1"/>
<path d="M625.468 236.27V245.694H616.788V252.762H605.628V245.694H575V236.27L605.628 209.362H616.788V236.27H625.468ZM587.028 236.27H605.628V220.522L587.028 236.27ZM653.802 253.382C636.566 253.382 628.382 245.446 628.382 231C628.382 216.616 636.566 208.742 653.802 208.742C670.976 208.742 679.222 216.678 679.222 231C679.222 245.384 670.976 253.382 653.802 253.382ZM653.802 244.02C663.598 244.02 668.062 239.122 668.062 231C668.062 222.94 663.598 218.104 653.802 218.104C644.006 218.104 639.542 222.878 639.542 231C639.542 239.184 644.006 244.02 653.802 244.02ZM733.348 236.27V245.694H724.668V252.762H713.508V245.694H682.88V236.27L713.508 209.362H724.668V236.27H733.348ZM694.908 236.27H713.508V220.522L694.908 236.27Z" fill="white"/>
<rect x="1080" y="686" width="435" height="100" rx="50" fill="#566FA7"/>
<path d="M1158.3 735.576C1159.5 735.789 1160.51 736.419 1161.34 737.464C1162.18 738.509 1162.59 739.693 1162.59 741.016C1162.59 742.147 1162.29 743.171 1161.7 744.088C1161.12 744.984 1160.28 745.699 1159.17 746.232C1158.06 746.744 1156.77 747 1155.3 747H1146.4V724.76H1154.88C1156.39 724.76 1157.7 725.016 1158.78 725.528C1159.87 726.04 1160.69 726.733 1161.25 727.608C1161.8 728.461 1162.08 729.421 1162.08 730.488C1162.08 731.768 1161.74 732.835 1161.06 733.688C1160.37 734.541 1159.46 735.171 1158.3 735.576ZM1150.05 734.104H1154.56C1155.75 734.104 1156.68 733.837 1157.34 733.304C1158.03 732.749 1158.37 731.96 1158.37 730.936C1158.37 729.933 1158.03 729.155 1157.34 728.6C1156.68 728.024 1155.75 727.736 1154.56 727.736H1150.05V734.104ZM1154.98 744.024C1156.21 744.024 1157.18 743.725 1157.89 743.128C1158.59 742.531 1158.94 741.699 1158.94 740.632C1158.94 739.544 1158.57 738.68 1157.82 738.04C1157.08 737.4 1156.09 737.08 1154.85 737.08H1150.05V744.024H1154.98ZM1165.34 738.104C1165.34 736.333 1165.7 734.765 1166.43 733.4C1167.17 732.035 1168.18 730.979 1169.44 730.232C1170.72 729.464 1172.12 729.08 1173.66 729.08C1175.05 729.08 1176.25 729.357 1177.28 729.912C1178.32 730.445 1179.15 731.117 1179.77 731.928V729.368H1183.45V747H1179.77V744.376C1179.15 745.208 1178.31 745.901 1177.24 746.456C1176.18 747.011 1174.96 747.288 1173.6 747.288C1172.08 747.288 1170.69 746.904 1169.44 746.136C1168.18 745.347 1167.17 744.259 1166.43 742.872C1165.7 741.464 1165.34 739.875 1165.34 738.104ZM1179.77 738.168C1179.77 736.952 1179.52 735.896 1179 735C1178.51 734.104 1177.86 733.421 1177.05 732.952C1176.24 732.483 1175.37 732.248 1174.43 732.248C1173.49 732.248 1172.61 732.483 1171.8 732.952C1170.99 733.4 1170.33 734.072 1169.82 734.968C1169.33 735.843 1169.08 736.888 1169.08 738.104C1169.08 739.32 1169.33 740.387 1169.82 741.304C1170.33 742.221 1170.99 742.925 1171.8 743.416C1172.64 743.885 1173.51 744.12 1174.43 744.12C1175.37 744.12 1176.24 743.885 1177.05 743.416C1177.86 742.947 1178.51 742.264 1179 741.368C1179.52 740.451 1179.77 739.384 1179.77 738.168ZM1187.03 738.168C1187.03 736.355 1187.39 734.765 1188.12 733.4C1188.86 732.013 1189.89 730.947 1191.19 730.2C1192.49 729.453 1193.98 729.08 1195.67 729.08C1197.8 729.08 1199.56 729.592 1200.95 730.616C1202.36 731.619 1203.31 733.059 1203.8 734.936H1199.86C1199.54 734.061 1199.03 733.379 1198.32 732.888C1197.62 732.397 1196.73 732.152 1195.67 732.152C1194.17 732.152 1192.98 732.685 1192.08 733.752C1191.21 734.797 1190.77 736.269 1190.77 738.168C1190.77 740.067 1191.21 741.549 1192.08 742.616C1192.98 743.683 1194.17 744.216 1195.67 744.216C1197.78 744.216 1199.18 743.288 1199.86 741.432H1203.8C1203.28 743.224 1202.32 744.653 1200.92 745.72C1199.51 746.765 1197.76 747.288 1195.67 747.288C1193.98 747.288 1192.49 746.915 1191.19 746.168C1189.89 745.4 1188.86 744.333 1188.12 742.968C1187.39 741.581 1187.03 739.981 1187.03 738.168ZM1214.41 738.2L1222.54 747H1217.61L1211.08 739.416V747H1207.43V723.32H1211.08V737.08L1217.48 729.368H1222.54L1214.41 738.2ZM1237.72 732.344V742.104C1237.72 742.765 1237.87 743.245 1238.17 743.544C1238.49 743.821 1239.02 743.96 1239.77 743.96H1242.01V747H1239.13C1237.48 747 1236.23 746.616 1235.35 745.848C1234.48 745.08 1234.04 743.832 1234.04 742.104V732.344H1231.96V729.368H1234.04V724.984H1237.72V729.368H1242.01V732.344H1237.72ZM1253.02 747.288C1251.35 747.288 1249.85 746.915 1248.5 746.168C1247.16 745.4 1246.1 744.333 1245.34 742.968C1244.57 741.581 1244.18 739.981 1244.18 738.168C1244.18 736.376 1244.58 734.787 1245.37 733.4C1246.16 732.013 1247.24 730.947 1248.6 730.2C1249.97 729.453 1251.49 729.08 1253.18 729.08C1254.86 729.08 1256.39 729.453 1257.75 730.2C1259.12 730.947 1260.2 732.013 1260.98 733.4C1261.77 734.787 1262.17 736.376 1262.17 738.168C1262.17 739.96 1261.76 741.549 1260.95 742.936C1260.14 744.323 1259.03 745.4 1257.62 746.168C1256.24 746.915 1254.7 747.288 1253.02 747.288ZM1253.02 744.12C1253.96 744.12 1254.83 743.896 1255.64 743.448C1256.47 743 1257.14 742.328 1257.66 741.432C1258.17 740.536 1258.42 739.448 1258.42 738.168C1258.42 736.888 1258.18 735.811 1257.69 734.936C1257.2 734.04 1256.55 733.368 1255.74 732.92C1254.93 732.472 1254.05 732.248 1253.11 732.248C1252.17 732.248 1251.3 732.472 1250.49 732.92C1249.7 733.368 1249.07 734.04 1248.6 734.936C1248.13 735.811 1247.9 736.888 1247.9 738.168C1247.9 740.067 1248.38 741.539 1249.34 742.584C1250.32 743.608 1251.54 744.12 1253.02 744.12ZM1283.21 729.08C1284.55 729.08 1285.75 729.368 1286.79 729.944C1287.86 730.52 1288.69 731.373 1289.29 732.504C1289.91 733.635 1290.22 735 1290.22 736.6V747H1286.6V737.144C1286.6 735.565 1286.2 734.36 1285.42 733.528C1284.63 732.675 1283.55 732.248 1282.18 732.248C1280.82 732.248 1279.73 732.675 1278.92 733.528C1278.13 734.36 1277.74 735.565 1277.74 737.144V747H1274.09V723.32H1277.74V731.416C1278.35 730.669 1279.13 730.093 1280.07 729.688C1281.03 729.283 1282.08 729.08 1283.21 729.08ZM1302.52 747.288C1300.85 747.288 1299.35 746.915 1298 746.168C1296.66 745.4 1295.6 744.333 1294.84 742.968C1294.07 741.581 1293.68 739.981 1293.68 738.168C1293.68 736.376 1294.08 734.787 1294.87 733.4C1295.66 732.013 1296.74 730.947 1298.1 730.2C1299.47 729.453 1300.99 729.08 1302.68 729.08C1304.36 729.08 1305.89 729.453 1307.25 730.2C1308.62 730.947 1309.7 732.013 1310.48 733.4C1311.27 734.787 1311.67 736.376 1311.67 738.168C1311.67 739.96 1311.26 741.549 1310.45 742.936C1309.64 744.323 1308.53 745.4 1307.12 746.168C1305.74 746.915 1304.2 747.288 1302.52 747.288ZM1302.52 744.12C1303.46 744.12 1304.33 743.896 1305.14 743.448C1305.97 743 1306.64 742.328 1307.16 741.432C1307.67 740.536 1307.92 739.448 1307.92 738.168C1307.92 736.888 1307.68 735.811 1307.19 734.936C1306.7 734.04 1306.05 733.368 1305.24 732.92C1304.43 732.472 1303.55 732.248 1302.61 732.248C1301.67 732.248 1300.8 732.472 1299.99 732.92C1299.2 733.368 1298.57 734.04 1298.1 734.936C1297.63 735.811 1297.4 736.888 1297.4 738.168C1297.4 740.067 1297.88 741.539 1298.84 742.584C1299.82 743.608 1301.04 744.12 1302.52 744.12ZM1336.62 729.08C1338.01 729.08 1339.24 729.368 1340.33 729.944C1341.44 730.52 1342.3 731.373 1342.92 732.504C1343.56 733.635 1343.88 735 1343.88 736.6V747H1340.27V737.144C1340.27 735.565 1339.87 734.36 1339.08 733.528C1338.29 732.675 1337.22 732.248 1335.85 732.248C1334.49 732.248 1333.4 732.675 1332.59 733.528C1331.8 734.36 1331.4 735.565 1331.4 737.144V747H1327.79V737.144C1327.79 735.565 1327.39 734.36 1326.6 733.528C1325.81 732.675 1324.74 732.248 1323.37 732.248C1322.01 732.248 1320.92 732.675 1320.11 733.528C1319.32 734.36 1318.92 735.565 1318.92 737.144V747H1315.28V729.368H1318.92V731.384C1319.52 730.659 1320.28 730.093 1321.2 729.688C1322.11 729.283 1323.09 729.08 1324.14 729.08C1325.55 729.08 1326.81 729.379 1327.92 729.976C1329.02 730.573 1329.88 731.437 1330.48 732.568C1331.01 731.501 1331.84 730.659 1332.97 730.04C1334.1 729.4 1335.32 729.08 1336.62 729.08ZM1364.69 737.752C1364.69 738.413 1364.64 739.011 1364.56 739.544H1351.09C1351.19 740.952 1351.71 742.083 1352.65 742.936C1353.59 743.789 1354.74 744.216 1356.11 744.216C1358.07 744.216 1359.46 743.395 1360.27 741.752H1364.2C1363.67 743.373 1362.7 744.707 1361.29 745.752C1359.91 746.776 1358.18 747.288 1356.11 747.288C1354.42 747.288 1352.91 746.915 1351.57 746.168C1350.24 745.4 1349.2 744.333 1348.43 742.968C1347.68 741.581 1347.31 739.981 1347.31 738.168C1347.31 736.355 1347.67 734.765 1348.4 733.4C1349.14 732.013 1350.18 730.947 1351.5 730.2C1352.85 729.453 1354.38 729.08 1356.11 729.08C1357.77 729.08 1359.26 729.443 1360.56 730.168C1361.86 730.893 1362.87 731.917 1363.6 733.24C1364.32 734.541 1364.69 736.045 1364.69 737.752ZM1360.88 736.6C1360.86 735.256 1360.38 734.179 1359.44 733.368C1358.5 732.557 1357.34 732.152 1355.95 732.152C1354.69 732.152 1353.61 732.557 1352.72 733.368C1351.82 734.157 1351.29 735.235 1351.12 736.6H1360.88ZM1371.92 731.96C1372.54 731.149 1373.38 730.467 1374.45 729.912C1375.52 729.357 1376.72 729.08 1378.07 729.08C1379.6 729.08 1381 729.464 1382.26 730.232C1383.54 730.979 1384.54 732.035 1385.27 733.4C1385.99 734.765 1386.36 736.333 1386.36 738.104C1386.36 739.875 1385.99 741.464 1385.27 742.872C1384.54 744.259 1383.54 745.347 1382.26 746.136C1381 746.904 1379.6 747.288 1378.07 747.288C1376.72 747.288 1375.53 747.021 1374.48 746.488C1373.44 745.933 1372.58 745.251 1371.92 744.44V755.384H1368.28V729.368H1371.92V731.96ZM1382.64 738.104C1382.64 736.888 1382.39 735.843 1381.88 734.968C1381.38 734.072 1380.72 733.4 1379.89 732.952C1379.08 732.483 1378.21 732.248 1377.27 732.248C1376.35 732.248 1375.48 732.483 1374.64 732.952C1373.83 733.421 1373.17 734.104 1372.66 735C1372.17 735.896 1371.92 736.952 1371.92 738.168C1371.92 739.384 1372.17 740.451 1372.66 741.368C1373.17 742.264 1373.83 742.947 1374.64 743.416C1375.48 743.885 1376.35 744.12 1377.27 744.12C1378.21 744.12 1379.08 743.885 1379.89 743.416C1380.72 742.925 1381.38 742.221 1381.88 741.304C1382.39 740.387 1382.64 739.32 1382.64 738.104ZM1388.75 738.104C1388.75 736.333 1389.11 734.765 1389.83 733.4C1390.58 732.035 1391.58 730.979 1392.84 730.232C1394.12 729.464 1395.53 729.08 1397.07 729.08C1398.45 729.08 1399.66 729.357 1400.68 729.912C1401.73 730.445 1402.56 731.117 1403.18 731.928V729.368H1406.86V747H1403.18V744.376C1402.56 745.208 1401.72 745.901 1400.65 746.456C1399.58 747.011 1398.37 747.288 1397 747.288C1395.49 747.288 1394.1 746.904 1392.84 746.136C1391.58 745.347 1390.58 744.259 1389.83 742.872C1389.11 741.464 1388.75 739.875 1388.75 738.104ZM1403.18 738.168C1403.18 736.952 1402.92 735.896 1402.41 735C1401.92 734.104 1401.27 733.421 1400.46 732.952C1399.65 732.483 1398.77 732.248 1397.83 732.248C1396.9 732.248 1396.02 732.483 1395.21 732.952C1394.4 733.4 1393.74 734.072 1393.23 734.968C1392.74 735.843 1392.49 736.888 1392.49 738.104C1392.49 739.32 1392.74 740.387 1393.23 741.304C1393.74 742.221 1394.4 742.925 1395.21 743.416C1396.04 743.885 1396.92 744.12 1397.83 744.12C1398.77 744.12 1399.65 743.885 1400.46 743.416C1401.27 742.947 1401.92 742.264 1402.41 741.368C1402.92 740.451 1403.18 739.384 1403.18 738.168ZM1418.75 729.08C1420.12 729.08 1421.32 729.357 1422.37 729.912C1423.44 730.445 1424.27 731.117 1424.87 731.928V729.368H1428.55V747.288C1428.55 748.909 1428.2 750.349 1427.52 751.608C1426.84 752.888 1425.85 753.891 1424.55 754.616C1423.27 755.341 1421.73 755.704 1419.94 755.704C1417.55 755.704 1415.56 755.139 1413.99 754.008C1412.41 752.899 1411.51 751.384 1411.3 749.464H1414.91C1415.19 750.381 1415.78 751.117 1416.67 751.672C1417.59 752.248 1418.68 752.536 1419.94 752.536C1421.41 752.536 1422.59 752.088 1423.49 751.192C1424.41 750.296 1424.87 748.995 1424.87 747.288V744.344C1424.25 745.176 1423.4 745.88 1422.34 746.456C1421.29 747.011 1420.1 747.288 1418.75 747.288C1417.22 747.288 1415.81 746.904 1414.53 746.136C1413.27 745.347 1412.27 744.259 1411.52 742.872C1410.8 741.464 1410.43 739.875 1410.43 738.104C1410.43 736.333 1410.8 734.765 1411.52 733.4C1412.27 732.035 1413.27 730.979 1414.53 730.232C1415.81 729.464 1417.22 729.08 1418.75 729.08ZM1424.87 738.168C1424.87 736.952 1424.61 735.896 1424.1 735C1423.61 734.104 1422.96 733.421 1422.15 732.952C1421.34 732.483 1420.46 732.248 1419.52 732.248C1418.58 732.248 1417.71 732.483 1416.9 732.952C1416.09 733.4 1415.43 734.072 1414.91 734.968C1414.42 735.843 1414.18 736.888 1414.18 738.104C1414.18 739.32 1414.42 740.387 1414.91 741.304C1415.43 742.221 1416.09 742.925 1416.9 743.416C1417.73 743.885 1418.6 744.12 1419.52 744.12C1420.46 744.12 1421.34 743.885 1422.15 743.416C1422.96 742.947 1423.61 742.264 1424.1 741.368C1424.61 740.451 1424.87 739.384 1424.87 738.168ZM1449.5 737.752C1449.5 738.413 1449.45 739.011 1449.37 739.544H1435.9C1436 740.952 1436.53 742.083 1437.47 742.936C1438.4 743.789 1439.56 744.216 1440.92 744.216C1442.88 744.216 1444.27 743.395 1445.08 741.752H1449.02C1448.48 743.373 1447.51 744.707 1446.11 745.752C1444.72 746.776 1442.99 747.288 1440.92 747.288C1439.24 747.288 1437.72 746.915 1436.38 746.168C1435.05 745.4 1434.01 744.333 1433.24 742.968C1432.49 741.581 1432.12 739.981 1432.12 738.168C1432.12 736.355 1432.48 734.765 1433.21 733.4C1433.96 732.013 1434.99 730.947 1436.31 730.2C1437.66 729.453 1439.19 729.08 1440.92 729.08C1442.59 729.08 1444.07 729.443 1445.37 730.168C1446.67 730.893 1447.68 731.917 1448.41 733.24C1449.13 734.541 1449.5 736.045 1449.5 737.752ZM1445.69 736.6C1445.67 735.256 1445.19 734.179 1444.25 733.368C1443.31 732.557 1442.15 732.152 1440.76 732.152C1439.5 732.152 1438.43 732.557 1437.53 733.368C1436.63 734.157 1436.1 735.235 1435.93 736.6H1445.69Z" fill="white"/>
<defs>
<filter id="filter0_d_8_358" x="1362" y="24" width="87" height="44" filterUnits="userSpaceOnUse" color-interpolation-filters="sRGB">
<feFlood flood-opacity="0" result="BackgroundImageFix"/>
<feColorMatrix in="SourceAlpha" type="matrix" values="0 0 0 0 0 0 0 0 0 0 0 0 0 0 0 0 0 0 127 0" result="hardAlpha"/>
<feOffset dy="1"/>
<feGaussianBlur stdDeviation="1"/>
<feColorMatrix type="matrix" values="0 0 0 0 0.0627451 0 0 0 0 0.0941176 0 0 0 0 0.156863 0 0 0 0.05 0"/>
<feBlend mode="normal" in2="BackgroundImageFix" result="effect1_dropShadow_8_358"/>
<feBlend mode="normal" in="SourceGraphic" in2="effect1_dropShadow_8_358" result="shape"/>
</filter>
</defs>
</svg>
