<svg width="1728" height="1117" viewBox="0 0 1728 1117" fill="none" xmlns="http://www.w3.org/2000/svg">
<g clip-path="url(#clip0_2_2)">
<rect width="1728" height="1117" fill="#FFFFFE"/>
<rect width="2066.08" height="768.775" transform="translate(-185.295 846.598) rotate(-15)" fill="#37474F"/>
<rect width="2205.84" height="899.114" transform="translate(-459 40.7419) rotate(-15)" fill="#263238"/>
<path opacity="0.2" d="M1234.61 670.692V649.736L1204.34 632.262V611.306L1174.08 593.814V572.875L1143.84 555.4L1013.07 626.725L1047.04 646.238V667.194L1077.3 684.651V705.624L1107.56 723.082V744.055L1240.12 935.631C1371.4 913.469 1471.61 846.627 1513.89 760.239C1518.78 750.254 1523.14 740.194 1526.95 730.062L1234.61 670.692Z" fill="#92E3A9"/>
<path opacity="0.15" d="M1048.21 262.153C959.733 313.099 888 449.636 888 567.186C888 637.034 913.337 684.465 952.532 700.768L968.716 691.427L1127.84 599.571L1144.43 589.993C1183.34 528.772 1208.49 452.438 1208.49 382.811C1208.42 265.294 1136.7 211.257 1048.21 262.153Z" fill="#92E3A9"/>
<path opacity="0.15" d="M1048.21 296.151C973.862 338.946 913.592 453.677 913.592 552.462C913.592 651.248 973.862 696.658 1048.21 653.897C1122.56 611.136 1182.84 496.353 1182.84 397.568C1182.84 298.783 1122.57 253.373 1048.21 296.151Z" fill="#92E3A9"/>
<path opacity="0.15" d="M1048.21 320.113C984.051 357.168 932.035 456.547 932.035 542.086C932.035 627.625 984.051 666.973 1048.21 629.935C1112.37 592.897 1164.38 493.5 1164.38 407.944C1164.38 322.388 1112.39 283.041 1048.21 320.113Z" fill="#92E3A9"/>
<path d="M979.704 546.145C979.704 472.035 1024.77 385.936 1080.36 353.822C1104.86 339.693 1127.3 338.386 1144.74 347.692L1122.13 334.615C1104.47 324.426 1081.38 325.275 1056.17 339.846C1000.56 371.959 955.504 458.059 955.504 532.169C955.504 572.739 969.005 601.303 990.351 613.598C994.003 615.687 1007.57 623.55 1013.11 626.742C992.542 613.989 979.704 585.798 979.704 546.145Z" fill="#92E3A9"/>
<path opacity="0.3" d="M979.704 546.145C979.704 472.035 1024.77 385.936 1080.36 353.822C1104.86 339.693 1127.3 338.386 1144.74 347.692L1122.13 334.615C1104.47 324.426 1081.38 325.275 1056.17 339.846C1000.56 371.959 955.504 458.059 955.504 532.169C955.504 572.739 969.005 601.303 990.351 613.598C994.003 615.687 1007.57 623.55 1013.11 626.742C992.542 613.989 979.704 585.798 979.704 546.145Z" fill="white"/>
<path d="M1119.91 369.361C1128.69 381.079 1133.39 399.725 1132.34 423.976C1129.81 483.413 1093.65 554.127 1051.61 581.791C1038.84 590.197 1026.96 593.678 1016.74 592.744C1029.51 609.726 1050.91 612.155 1075.81 595.767C1117.87 568.103 1154.03 497.44 1156.56 437.935C1158.29 396.532 1143.31 371.45 1119.91 369.361Z" fill="#92E3A9"/>
<path opacity="0.15" d="M1119.91 369.361C1128.69 381.079 1133.39 399.725 1132.34 423.976C1129.81 483.413 1093.65 554.127 1051.61 581.791C1038.84 590.197 1026.96 593.678 1016.74 592.744C1029.51 609.726 1050.91 612.155 1075.81 595.767C1117.87 568.103 1154.03 497.44 1156.56 437.935C1158.29 396.532 1143.31 371.45 1119.91 369.361Z" fill="black"/>
<path d="M1005.35 387.566L1029.55 401.542L1031.48 398.944L1007.28 384.934C1006.62 385.834 1005.99 386.632 1005.35 387.566Z" fill="#92E3A9"/>
<path d="M994.24 468.503L969.956 454.56C969.616 455.494 969.293 456.462 968.971 457.413L993.17 471.39C993.51 470.405 993.816 469.437 994.24 468.503Z" fill="#92E3A9"/>
<path d="M1104.62 328.451L1128.84 342.478C1129.83 342.648 1130.81 342.818 1131.78 343.022L1107.56 329.045C1106.59 328.791 1105.61 328.604 1104.62 328.451Z" fill="#92E3A9"/>
<path d="M983.117 509.549C983.304 508.496 983.508 507.426 983.711 506.373L959.512 492.397C959.291 493.449 959.087 494.502 958.9 495.572L983.117 509.549Z" fill="#92E3A9"/>
<path d="M1029.14 360.394L1053.34 374.371C1054.17 373.573 1055.04 372.774 1055.85 372.01L1031.6 358.034C1030.8 358.798 1029.9 359.596 1029.14 360.394Z" fill="#92E3A9"/>
<path d="M983.236 579.413C983.015 578.479 982.811 577.528 982.607 576.577L982.421 576.153L958.34 562.244C958.561 563.331 958.782 564.401 959.036 565.454L983.236 579.413Z" fill="#92E3A9"/>
<path d="M1083.52 329.079C1082.5 329.283 1081.44 329.555 1080.41 329.81L1104.62 343.786C1105.68 343.514 1106.73 343.276 1107.77 343.073L1083.52 329.079Z" fill="#92E3A9"/>
<path d="M1081.87 353.007L1057.67 339.082C1057.16 339.37 1056.67 339.608 1056.17 339.897L1054.7 340.797L1078.9 354.773L1080.36 353.873L1081.87 353.007Z" fill="#92E3A9"/>
<path d="M984.832 420.596L1009.03 434.572L1010.46 431.923L986.259 417.947C985.749 418.796 985.291 419.679 984.832 420.596Z" fill="#92E3A9"/>
<path d="M993.51 606.075C992.967 605.141 992.457 604.207 991.931 603.239L967.748 589.28C968.258 590.248 968.801 591.182 969.344 592.116L993.51 606.075Z" fill="#92E3A9"/>
<path d="M955.504 532.441L979.704 546.434V546.145C979.704 545.109 979.704 544.039 979.704 542.986L955.487 529.01C955.487 530.063 955.487 531.133 955.487 532.169L955.504 532.441Z" fill="#92E3A9"/>
<path d="M1080.36 353.822C1024.77 385.935 979.703 472.035 979.703 546.145C979.703 620.255 1024.77 654.338 1080.36 622.242C1135.94 590.146 1181.04 504.046 1181.04 429.919C1181.04 355.792 1135.96 321.726 1080.36 353.822ZM1156.5 437.935C1153.97 497.372 1117.82 568.086 1075.75 595.75C1033.69 623.414 1001.68 597.618 1004.21 538.13C1006.74 478.641 1042.93 407.978 1084.96 380.314C1126.99 352.65 1159.05 378.446 1156.5 437.935Z" fill="#92E3A9"/>
<g opacity="0.15">
<path d="M1059.76 402.68C1060.57 401.78 1061.37 400.863 1062.2 399.98L1055.83 372.01C1054.99 372.774 1054.14 373.556 1053.32 374.354L1059.76 402.68Z" fill="black"/>
<path d="M1078.88 354.705V384.696C1079.86 383.932 1080.85 383.184 1081.85 382.471V352.99L1080.36 353.822L1078.88 354.705Z" fill="black"/>
<path d="M1099.34 372.774C1100.43 372.35 1101.52 371.959 1102.59 371.62L1107.68 343.056C1106.65 343.259 1105.59 343.497 1104.54 343.752L1099.34 372.774Z" fill="black"/>
<path d="M1017.29 475.975L1018.35 473.156L994.24 468.486C993.901 469.437 993.561 470.388 993.238 471.339L1017.29 475.975Z" fill="black"/>
<path d="M1028.71 449.466L1030.07 446.749L1010.44 431.906L1009.03 434.572L1028.71 449.466Z" fill="black"/>
<path d="M1176.92 394.325L1155.57 414.347C1155.74 415.536 1155.89 416.741 1156.03 417.998L1177.78 397.619C1177.46 396.533 1177.21 395.412 1176.92 394.325Z" fill="black"/>
<path d="M1004.94 528.433L979.738 542.969C979.738 544.039 979.738 545.092 979.738 546.145V546.434L1004.63 532.067C1004.68 530.861 1004.82 529.638 1004.94 528.433Z" fill="black"/>
<path d="M1009.01 503.809C1009.27 502.739 1009.54 501.669 1009.8 500.582L983.694 506.339C983.491 507.392 983.287 508.462 983.1 509.515L1009.01 503.809Z" fill="black"/>
<path d="M1119.4 369.344C1120.43 369.429 1121.44 369.548 1122.42 369.718L1131.8 342.937C1130.81 342.733 1129.83 342.546 1128.82 342.376L1119.4 369.344Z" fill="black"/>
<path d="M1149.02 391.625C1149.49 392.627 1149.95 393.679 1150.39 394.749L1167.88 371.195C1167.36 370.244 1166.8 369.327 1166.18 368.427L1149.02 391.625Z" fill="black"/>
<path d="M1136.65 375.848C1137.45 376.46 1138.23 377.105 1139 377.801L1152.17 352.566C1151.38 351.937 1150.58 351.343 1149.75 350.766L1136.65 375.848Z" fill="black"/>
<path d="M1042.93 424.74L1044.76 421.972L1031.47 398.927L1029.53 401.542L1042.93 424.74Z" fill="black"/>
<path d="M1101.48 572.807C1100.68 573.741 1099.78 574.641 1099.05 575.524L1105.42 603.579C1106.27 602.815 1107.12 601.982 1107.94 601.184L1101.48 572.807Z" fill="black"/>
<path d="M1133.05 524.561C1132.61 525.478 1132.15 526.378 1131.69 527.278L1151.38 542.154L1152.75 539.454L1133.05 524.561Z" fill="black"/>
<path d="M1118.69 550L1116.85 552.785L1130.18 575.881C1130.83 575.015 1131.49 574.183 1132.12 573.283L1118.69 550Z" fill="black"/>
<path d="M1144.4 497.406C1144.06 498.357 1143.73 499.308 1143.38 500.242L1167.49 504.896C1167.83 503.945 1168.15 502.994 1168.48 502.043L1144.4 497.406Z" fill="black"/>
<path d="M1152.36 469.233C1152.14 470.303 1151.92 471.373 1151.66 472.426L1177.65 466.737C1177.83 465.667 1178 464.614 1178.19 463.561L1152.36 469.233Z" fill="black"/>
<path d="M1181.04 426.795L1156.32 440.975C1156.32 442.163 1156.16 443.352 1156.08 444.558L1181.04 430.208V429.919C1181.04 428.866 1181.04 427.83 1181.04 426.795Z" fill="black"/>
<path d="M1081.85 621.342V591.386C1080.87 592.15 1079.86 592.897 1078.88 593.61V623.091L1080.36 622.242C1080.85 621.953 1081.36 621.631 1081.85 621.342Z" fill="black"/>
<path d="M1010.9 582.674C1010.44 581.638 1010 580.568 1009.58 579.447L991.931 603.222C992.44 604.19 992.984 605.141 993.527 606.058L1010.9 582.674Z" fill="black"/>
<path d="M1023.01 599.401C1022.23 598.756 1021.46 598.077 1020.72 597.346L1007.47 622.684C1008.25 623.329 1009.05 623.94 1009.86 624.535L1023.01 599.401Z" fill="black"/>
<path d="M1060.81 603.545C1059.72 603.952 1058.65 604.309 1057.58 604.649L1052.49 633.128C1053.54 632.924 1054.59 632.703 1055.65 632.449L1060.81 603.545Z" fill="black"/>
<path d="M1040.35 606.652C1039.33 606.551 1038.34 606.398 1037.36 606.211L1028.09 632.873C1029.07 633.111 1030.06 633.297 1031.04 633.467L1040.35 606.652Z" fill="black"/>
<path d="M1004.89 559.187C1004.75 557.965 1004.63 556.708 1004.53 555.434L982.454 576.034C982.692 577.171 982.93 578.292 983.185 579.43L1004.89 559.187Z" fill="black"/>
</g>
<path d="M1107.53 744.072L992.491 677.655V614.77L1016.71 628.746L1047 646.255V667.211L1077.27 684.668V705.641L1107.53 723.099V744.072Z" fill="#263238"/>
<path d="M1016.74 628.78L1143.84 555.4L1174.08 572.875L1047 646.255L1016.74 628.78Z" fill="#455A64"/>
<path d="M1047 646.255V667.211L1174.08 593.831V572.875L1047 646.255Z" fill="#37474F"/>
<path d="M1047 667.211L1174.08 593.831L1204.34 611.306L1077.27 684.668L1047 667.211Z" fill="#455A64"/>
<path d="M1077.27 684.669V705.642L1204.34 632.262V611.306L1077.27 684.669Z" fill="#37474F"/>
<path d="M1077.27 705.642L1204.34 632.262L1234.61 649.736L1107.53 723.099L1077.27 705.642Z" fill="#455A64"/>
<path d="M1107.53 723.099V744.072L1234.61 670.692V649.736L1107.53 723.099Z" fill="#37474F"/>
<path d="M1143.92 430.785C1141.39 490.223 1105.22 560.936 1063.17 588.617C1047.55 598.892 1033.32 601.796 1021.7 598.314C1009.81 587.463 1003.02 566.676 1004.21 538.163C1006.76 478.726 1042.93 408.012 1084.96 380.348C1100.6 370.057 1114.86 367.17 1126.46 370.669C1138.42 381.537 1145.14 402.255 1143.92 430.785Z" fill="#92E3A9"/>
<path opacity="0.9" d="M1143.92 430.785C1141.39 490.223 1105.22 560.936 1063.17 588.617C1047.55 598.892 1033.32 601.796 1021.7 598.314C1009.81 587.463 1003.02 566.676 1004.21 538.163C1006.76 478.726 1042.93 408.012 1084.96 380.348C1100.6 370.057 1114.86 367.17 1126.46 370.669C1138.42 381.537 1145.14 402.255 1143.92 430.785Z" fill="white"/>
<path opacity="0.1" d="M1062.98 558.151C1049.86 559.671 1037.71 565.847 1028.75 575.558C1023.91 580.755 1019.96 586.717 1017.06 593.203C1018.46 595.03 1020.01 596.734 1021.7 598.297C1024.2 599.028 1026.78 599.472 1029.38 599.622C1030.06 597.924 1030.57 596.141 1031.16 594.425C1034.1 586.439 1039.33 579.499 1046.2 574.48C1053.07 569.461 1061.28 566.586 1069.78 566.218C1075.6 566.065 1081.38 567.118 1087.17 567.577C1089.46 565.046 1091.7 562.482 1093.96 559.697C1083.7 559.17 1073.12 557.133 1062.98 558.151ZM1060.47 471.186C1072.36 472.731 1085.33 473.394 1095.73 467.314C1107.49 460.419 1113.08 446.749 1118.75 434.369C1124.03 422.872 1131.25 410.729 1142.78 406.28C1140.39 390.198 1134.65 378.09 1126.45 370.618C1120.85 369.008 1114.95 368.757 1109.24 369.887C1103.49 376.475 1099.3 384.277 1096.98 392.711C1094.27 402.221 1093.31 412.326 1088.95 421.173C1084.51 430.069 1076.96 437.033 1067.74 440.754C1060.47 443.641 1052.57 444.337 1044.85 445.526C1039.46 446.322 1034.13 447.491 1028.9 449.024C1024.87 457.036 1021.27 465.262 1018.13 473.665C1020.22 472.599 1022.39 471.707 1024.62 470.999C1036.15 467.45 1048.58 469.657 1060.47 471.186ZM1072.63 411.748C1076.43 405.176 1077.72 397.517 1079.81 390.198C1080.56 387.464 1081.51 384.798 1082.39 382.132C1079.68 384.045 1076.98 386.128 1074.31 388.381C1070.47 397.704 1066.74 407.061 1059.66 414.092C1056.05 417.628 1051.74 420.37 1047 422.141C1046.11 422.441 1045.19 422.651 1044.25 422.77C1042.52 425.317 1040.82 427.921 1039.16 430.582C1042.99 430.274 1046.79 429.626 1050.5 428.646C1059.7 425.885 1067.58 419.858 1072.65 411.697L1072.63 411.748ZM1143.95 422.057C1140.63 423.778 1137.63 426.045 1135.06 428.764C1128.74 435.693 1125.34 444.677 1121.47 453.236C1116.07 465.429 1109.02 477.843 1097.29 484.16C1089.48 488.355 1080.31 489.408 1071.53 489.646C1054.8 490.104 1037.82 487.947 1021.46 491.531C1017.94 492.3 1014.49 493.398 1011.17 494.808C1010.04 498.872 1009.05 502.92 1008.2 506.95C1012.01 504.935 1016.04 503.367 1020.21 502.28C1044.37 496.167 1071.15 509.583 1094.3 500.582C1111.28 493.942 1121.62 477.079 1129.96 460.878C1133.36 454.272 1137.01 447.292 1142.87 442.911C1143.32 438.869 1143.64 434.861 1143.82 430.887C1144.04 427.746 1144.07 424.842 1144.02 422.006L1143.95 422.057ZM1083.67 521.045C1070.59 521.521 1057.53 520.298 1044.46 520.111C1037.76 519.747 1031.04 520.435 1024.55 522.149C1018.87 524.07 1013.53 526.872 1008.73 530.454C1007.25 531.506 1005.82 532.593 1004.41 533.697C1004.31 535.209 1004.21 536.703 1004.14 538.18C1003.41 555.417 1005.6 569.801 1010.07 580.908C1012.95 578.402 1015.52 575.55 1017.71 572.416C1026.69 560.274 1035.35 546.841 1048.97 540.337C1063.6 533.358 1080.83 535.854 1096.73 532.661C1103.68 531.241 1110.36 528.712 1116.51 525.172C1119.03 520.462 1121.4 515.662 1123.63 510.771C1122.95 511.179 1122.25 511.569 1121.56 511.96C1110.06 518.26 1096.8 520.519 1083.74 520.995L1083.67 521.045Z" fill="#92E3A9"/>
<path d="M1222.03 404.895C1222.03 410.669 1220.95 415.798 1213.88 417.037C1221.12 417.343 1221.62 422.132 1222.03 428.823C1222.27 422.183 1222.9 417.343 1229.45 417.037C1222.69 415.916 1222.03 410.669 1222.03 404.895Z" fill="#92E3A9"/>
<path d="M1057.2 712.289C1057.2 718.063 1056.12 723.191 1049.05 724.431C1056.29 724.737 1056.8 729.526 1057.2 736.217C1057.44 729.56 1058.07 724.737 1064.62 724.431C1057.83 723.293 1057.2 718.063 1057.2 712.289Z" fill="#92E3A9"/>
<path d="M1004.1 534.384C1004.1 536.914 1003.62 539.139 1000.53 539.682C1003.69 539.818 1003.93 541.941 1004.1 544.777C1004.2 541.873 1004.47 539.682 1007.34 539.682C1004.37 539.19 1004.1 536.914 1004.1 534.384Z" fill="#92E3A9"/>
<path d="M990.209 544.318C990.209 550.075 989.105 555.204 982.058 556.444C989.292 556.749 989.802 561.538 990.209 568.246C990.43 561.589 991.058 556.766 997.63 556.444C990.838 555.408 990.209 550.075 990.209 544.318Z" fill="#E0E0E0"/>
<path d="M983.586 515.381C983.586 518.353 983.026 520.968 979.409 521.613C983.111 521.766 983.382 524.246 983.586 527.659C983.705 524.263 984.028 521.766 987.407 521.613C983.909 521.036 983.586 518.353 983.586 515.381Z" fill="#E0E0E0"/>
<path d="M1202.42 387.539C1202.42 390.936 1202.33 394.162 1197.46 394.927C1202.55 394.927 1202.21 398.102 1202.47 402.178C1202.6 398.102 1202.96 395.181 1206.99 394.994C1202.83 394.298 1202.94 392.379 1202.42 387.539Z" fill="#E0E0E0"/>
<path d="M1244.77 544.709C1244.41 551.077 1243.91 553.828 1238.15 554.593C1244.01 554.915 1244.5 558.804 1244.84 564.221C1245.03 558.804 1245.5 554.864 1250.85 554.593C1245.35 553.71 1245.21 551.162 1244.77 544.709Z" fill="#E0E0E0"/>
<path d="M1033.8 712.34C1033.6 716.059 1033.31 717.655 1029.95 718.114C1033.34 718.301 1033.65 720.542 1033.85 723.701C1033.96 720.542 1034.23 718.25 1037.35 718.114C1034.19 717.57 1034.06 716.11 1033.8 712.34Z" fill="#E0E0E0"/>
<path d="M1232.75 398.985C1232.75 401.04 1232.75 403.01 1229.74 403.469C1232.87 403.469 1232.63 405.388 1232.78 407.85C1232.87 405.388 1233.07 403.621 1235.5 403.502C1232.99 403.078 1233.05 401.923 1232.75 398.985Z" fill="#E0E0E0"/>
<path d="M1239.15 563.22C1239.15 565.257 1239.15 567.227 1236.14 567.686C1239.25 567.686 1239.01 569.622 1239.17 572.084C1239.25 569.622 1239.47 567.839 1241.9 567.737C1239.39 567.295 1239.46 566.141 1239.15 563.22Z" fill="#E0E0E0"/>
<path d="M1049.48 704.239C1049.48 706.277 1049.48 708.247 1046.47 708.706C1049.6 708.706 1049.36 710.625 1049.51 713.087C1049.6 710.625 1049.82 708.859 1052.24 708.74C1049.77 708.332 1049.83 707.16 1049.48 704.239Z" fill="#E0E0E0"/>
<path d="M1476.62 659.532L1530.09 628.658L1610.83 675.257L1649.56 652.892L1568.85 606.293L1595.07 591.145L1552.61 566.605L1526.39 581.753L1479.59 554.769L1440.83 577.151L1487.59 604.204L1387.88 661.671L1419.08 679.673L1670.72 747.227L1675.61 744.408C1678.01 734.763 1680 724.919 1681.57 714.877L1476.62 659.532Z" fill="#263238"/>
<path d="M1481.64 422.648L1479.64 423.803V358.557L1455.42 344.581L1425.46 361.869L1450.17 268.976L1425.97 255L1384.32 279.047L1317 530.756V566.843L1341.2 580.819L1416.75 537.175V563.175L1440.97 577.151L1479.59 554.769V500.834L1505.79 485.702V436.624L1481.64 422.648ZM1416.75 460.161L1396.26 472.049L1416.75 394.916V460.161Z" fill="#92E3A9"/>
<path opacity="0.3" d="M1481.64 422.648L1479.64 423.803V358.557L1455.42 344.581L1425.46 361.869L1450.17 268.976L1425.97 255L1384.32 279.047L1317 530.756V566.843L1341.2 580.819L1416.75 537.175V563.175L1440.97 577.151L1479.59 554.769V500.834L1505.79 485.702V436.624L1481.64 422.648ZM1416.75 460.161L1396.26 472.049L1416.75 394.916V460.161Z" fill="black"/>
<path d="M1479.62 451.755V358.557L1440.88 380.923V474.138L1387.39 505.011L1450.17 268.976L1408.52 293.023L1341.2 544.732V580.752L1440.88 523.216V577.151L1479.62 554.769V500.834L1505.84 485.702V436.624L1479.62 451.755Z" fill="#92E3A9"/>
<path opacity="0.3" d="M1479.62 451.755V358.557L1440.88 380.923V474.138L1387.39 505.011L1450.17 268.976L1408.52 293.023L1341.2 544.732V580.752L1440.88 523.216V577.151L1479.62 554.769V500.834L1505.84 485.702V436.624L1479.62 451.755Z" fill="white"/>
<path d="M1450.17 268.976L1425.97 255L1384.32 279.047L1408.52 293.023L1450.17 268.976Z" fill="#92E3A9"/>
<path opacity="0.5" d="M1450.17 268.976L1425.97 255L1384.32 279.047L1408.52 293.023L1450.17 268.976Z" fill="white"/>
<path d="M1455.42 344.581L1479.62 358.557L1440.88 380.923L1423.12 370.665L1425.47 361.869L1455.42 344.581Z" fill="#92E3A9"/>
<path opacity="0.5" d="M1455.42 344.581L1479.62 358.557L1440.88 380.923L1423.12 370.665L1425.47 361.869L1455.42 344.581Z" fill="white"/>
<path d="M1440.88 474.138L1416.67 460.161L1396.17 471.998L1387.39 505.011L1440.88 474.138Z" fill="#92E3A9"/>
<path opacity="0.5" d="M1440.88 474.138L1416.67 460.161L1396.17 471.998L1387.39 505.011L1440.88 474.138Z" fill="white"/>
<path d="M1505.84 436.624L1481.64 422.648L1479.62 423.803V451.755L1505.84 436.624Z" fill="#92E3A9"/>
<path opacity="0.5" d="M1479.62 451.755L1505.84 436.624L1481.64 422.648L1479.62 423.803V451.755Z" fill="white"/>
<path d="M1341.2 544.732L1317 530.756L1384.32 279.047L1408.52 293.023L1341.2 544.732Z" fill="#92E3A9"/>
<path opacity="0.15" d="M1341.2 544.732L1317 530.756L1384.32 279.047L1408.52 293.023L1341.2 544.732Z" fill="black"/>
<path d="M1041.07 876.162L998.559 851.622L972.356 866.753L925.638 839.786L886.885 862.151L933.603 889.119L833.917 946.671L865.114 964.689L1116.77 1032.24L1158.43 1008.2L922.615 944.549L976.109 913.658L1056.83 960.274L1095.58 937.892L1014.85 891.293L1041.07 876.162Z" fill="#263238"/>
<path d="M927.642 707.648L925.638 708.819V643.506L901.421 629.53L871.465 646.902L896.174 554.01L871.974 540.034L830.317 564.047L763 815.773V851.792L787.267 865.768L862.753 822.192V848.175L886.953 862.151L925.706 839.786V785.833L951.909 770.702V721.624L927.642 707.648ZM862.685 745.161L842.188 757.049L862.685 679.984V745.161Z" fill="#92E3A9"/>
<path opacity="0.3" d="M927.642 707.648L925.638 708.819V643.506L901.421 629.53L871.465 646.902L896.174 554.01L871.974 540.034L830.317 564.047L763 815.773V851.792L787.267 865.768L862.753 822.192V848.175L886.953 862.151L925.706 839.786V785.833L951.909 770.702V721.624L927.642 707.648ZM862.685 745.161L842.188 757.049L862.685 679.984V745.161Z" fill="black"/>
<path d="M925.638 736.772V643.557L886.885 665.923V759.138L833.391 790.011L896.191 553.976L854.534 578.023L787.199 829.732V865.768L886.885 808.216V862.151L925.638 839.786V785.833L951.841 770.702V721.624L925.638 736.772Z" fill="#92E3A9"/>
<path opacity="0.3" d="M925.638 736.772V643.557L886.885 665.923V759.138L833.391 790.011L896.191 553.976L854.534 578.023L787.199 829.732V865.768L886.885 808.216V862.151L925.638 839.786V785.833L951.841 770.702V721.624L925.638 736.772Z" fill="white"/>
<path d="M896.191 553.976L871.974 540L830.317 564.047L854.534 578.023L896.191 553.976Z" fill="#92E3A9"/>
<path opacity="0.5" d="M896.191 553.976L871.974 540L830.317 564.047L854.534 578.023L896.191 553.976Z" fill="white"/>
<path d="M901.422 629.581L925.638 643.557L886.885 665.923L869.121 655.682L871.465 646.886L901.422 629.581Z" fill="#92E3A9"/>
<path opacity="0.5" d="M901.422 629.581L925.638 643.557L886.885 665.923L869.121 655.682L871.465 646.886L901.422 629.581Z" fill="white"/>
<path d="M886.885 759.138L862.685 745.161L842.188 756.998L833.391 790.011L886.885 759.138Z" fill="#92E3A9"/>
<path opacity="0.5" d="M886.885 759.138L862.685 745.161L842.188 756.998L833.391 790.011L886.885 759.138Z" fill="white"/>
<path d="M951.842 721.624L927.642 707.648L925.638 708.819V736.772L951.842 721.624Z" fill="#92E3A9"/>
<path opacity="0.5" d="M925.638 736.772L951.842 721.624L927.642 707.648L925.638 708.819V736.772Z" fill="white"/>
<path d="M787.199 829.732L763 815.773L830.317 564.047L854.534 578.023L787.199 829.732Z" fill="#92E3A9"/>
<path opacity="0.15" d="M787.199 829.732L763 815.773L830.317 564.047L854.534 578.023L787.199 829.732Z" fill="black"/>
<path d="M1336.07 838.364C1329.3 835.274 1322.13 833.131 1314.77 831.996C1310.27 831.25 1305.67 831.29 1301.19 832.115C1297.99 832.768 1294.9 833.842 1291.98 835.308C1282 840.266 1280.55 845.786 1280.23 850.456C1279.91 855.126 1282.49 861.375 1290.74 867.149L1432.39 966.376C1458.17 952.64 1482.13 935.73 1503.72 916.041C1442.17 887.443 1341.74 840.793 1336.07 838.364Z" fill="#263238"/>
<path d="M1381.39 629.535C1390.09 631.233 1393.48 631.828 1397.64 639.028C1401.81 646.228 1408.87 672.992 1410.81 678.546C1412.74 684.099 1413.32 686.12 1412.5 692.301C1411.67 698.754 1407.87 710.217 1406.27 716.501C1405.52 719.405 1405.03 722.241 1404.49 725.212C1403.74 728.254 1402.77 731.239 1401.6 734.145C1401.1 735.562 1400.23 736.818 1399.07 737.779C1398.36 738.408 1397.37 738.476 1396.69 739.053C1396.01 739.63 1395.83 740.649 1394.88 741.125C1393.93 741.6 1392.6 741.328 1391.67 741.872C1390.75 742.547 1389.79 743.171 1388.8 743.74C1387.89 744.005 1387.05 744.489 1386.37 745.15C1385.76 745.812 1385.18 747.306 1384.08 747.187C1382.97 747.068 1382.65 745.88 1382.6 744.861C1382.64 742.861 1383.32 740.927 1384.53 739.342C1385.62 737.576 1386.8 735.875 1388.08 734.247C1389.33 732.737 1390.22 730.967 1390.7 729.067C1391.09 727.794 1390.97 726.18 1389.32 726.911C1387.4 727.794 1385.37 729.628 1383.06 729.22C1381.46 728.949 1381.36 727.692 1382.29 726.639C1383.83 724.904 1385.24 723.059 1386.5 721.12C1387.8 719.133 1388.87 717.044 1390.21 715.108C1390.93 714.102 1391.72 713.143 1392.57 712.238C1394.91 709.691 1394.81 706.209 1395.08 702.966C1395.45 698.466 1395.78 686.918 1395.78 686.918L1385.25 660.986L1381.39 629.535Z" fill="#FFBDA7"/>
<path d="M1395.1 702.966C1395.2 697.616 1395.42 692.267 1395.62 686.918C1392.23 678.664 1388.59 669.579 1385.26 660.986C1388.93 669.579 1392.5 678.212 1395.96 686.884C1395.69 692.25 1395.45 697.616 1395.1 702.966Z" fill="white"/>
<path d="M1322.69 830.926C1325.67 829.873 1327.9 829.771 1327.87 831.249C1327.46 833.07 1326.82 834.829 1325.95 836.479L1323.57 839.757L1322.43 842.984C1322.43 842.984 1321.04 844.682 1320.95 844.852C1320.87 845.021 1320.41 838.823 1320.41 838.823C1320.41 838.823 1318.73 831.69 1322.69 830.926Z" fill="#263238"/>
<path d="M1354.78 704.851C1354.78 704.851 1347.99 712.917 1343.96 728.031C1340.25 742.078 1337.42 756.342 1335.47 770.741C1334.51 777.178 1332.94 785.295 1330.63 797.913C1328.85 807.627 1323.25 837.413 1323.25 837.413C1323.25 837.413 1326.47 842.78 1330.38 844.41C1335.98 846.754 1341.38 845.684 1342.1 840.674C1342.1 840.674 1345.8 834.764 1351.42 819.514C1354.12 812.513 1356.28 805.314 1357.87 797.981C1358.43 793.378 1358.59 788.737 1358.37 784.106L1380.92 744.895C1383.41 740.599 1386.4 736.609 1389.82 733.007C1391.93 730.845 1393.59 728.281 1394.69 725.467C1398.43 715.278 1392.99 701.573 1392.99 701.573L1354.78 704.851Z" fill="#263238"/>
<path d="M1335.56 770.725C1331.92 793.056 1327.76 815.303 1323.33 837.481C1327.24 815.201 1331.41 792.971 1335.56 770.725Z" fill="white"/>
<path d="M1326.76 854.65L1325.56 854.413C1325.64 853.954 1334.68 807.457 1340.99 787.927C1347.31 768.398 1363.87 729.611 1364.04 729.22L1365.17 729.713C1365.01 730.086 1348.48 768.856 1342.18 788.318C1335.88 807.78 1326.86 854.192 1326.76 854.65Z" fill="black"/>
<path d="M1384.47 717.91H1347.43C1346.07 721.199 1344.94 724.575 1344.03 728.014C1340.61 740.947 1337.97 754.076 1336.14 767.328C1337.04 773.391 1338.05 779.623 1338.99 783.903C1341.48 795.213 1343.05 803.194 1345.02 807.865C1346.92 811.812 1349.16 815.586 1351.73 819.141C1354.36 812.282 1356.47 805.23 1358.03 798.049C1358.58 793.446 1358.75 788.805 1358.52 784.174L1380.59 745.88L1382.17 739.851C1387.66 730.732 1387.03 723.888 1384.47 717.91Z" fill="black"/>
<path d="M1292.32 845.989C1291.66 845.684 1290.84 848.282 1290.78 849.216C1290.71 850.15 1292.47 853.954 1297.11 856.756C1301.75 859.558 1309.71 861.121 1312.7 862.055C1315.69 862.989 1318.08 865.451 1322.02 867.37C1325.52 869.068 1330.8 869.968 1333.11 868.932C1333.56 868.667 1333.94 868.307 1334.23 867.879C1334.53 867.451 1334.72 866.965 1334.81 866.453C1335.44 864.534 1335.39 864.092 1335.15 864.025L1292.32 845.989Z" fill="#37474F"/>
<path d="M1336.8 859.779C1336.49 861.74 1335.84 863.632 1334.88 865.366C1334.2 865.874 1333.43 866.243 1332.61 866.45C1331.8 866.657 1330.94 866.699 1330.11 866.572C1326.51 866.314 1323.05 865.107 1320.07 863.074C1317.8 861.594 1315.34 860.413 1312.77 859.558C1309.23 858.704 1305.75 857.603 1302.36 856.264C1299.83 855.196 1297.48 853.753 1295.38 851.984C1293.68 850.388 1292.1 848.588 1292.27 846.346C1292.65 844.935 1293.46 843.676 1294.59 842.743C1295.71 841.809 1297.1 841.247 1298.55 841.133C1301.34 840.991 1304.13 841.413 1306.76 842.372C1309.3 843.235 1311.94 843.805 1314.62 844.071C1316.45 844.223 1318.61 845.769 1320.04 844.155C1321.73 842.287 1322.4 837.872 1323.53 835.664C1323.72 835.308 1323.98 834.917 1324.37 834.832C1324.76 834.747 1325.4 835.223 1325.76 835.698C1327.42 837.773 1329.55 839.426 1331.98 840.521C1338.53 843.765 1341.57 842.05 1341.57 842.05L1342.18 840.691C1342.18 840.691 1343.49 841.421 1341.82 844.478C1340.42 846.991 1339.24 849.622 1338.29 852.341C1337.47 854.743 1336.96 857.244 1336.8 859.779Z" fill="#455A64"/>
<path d="M1292.32 846.346C1294.38 838.738 1303 840.776 1308.57 842.695C1310.55 843.39 1312.59 843.863 1314.67 844.104C1312.57 844.01 1310.49 843.639 1308.49 843.001C1302.99 841.302 1294.72 839.129 1292.32 846.397V846.346Z" fill="white"/>
<path d="M1307.98 842.712C1305.18 842.967 1304.41 847.501 1304.41 847.501C1306.92 848.849 1309.66 849.735 1312.48 850.116C1314.44 850.456 1316.46 850.051 1318.14 848.98C1319.82 847.909 1321.04 846.249 1321.56 844.325C1322.75 840.538 1321.67 835.24 1321.45 833.525C1321.32 832.935 1321.42 832.319 1321.74 831.806C1322.06 831.293 1322.56 830.922 1323.14 830.773C1322.66 830.818 1322.2 830.962 1321.77 831.195C1321.35 831.428 1320.98 831.745 1320.69 832.127C1320.39 832.51 1320.18 832.949 1320.06 833.417C1319.94 833.885 1319.92 834.373 1320 834.849C1320.09 836.887 1320 840.912 1319.14 842.253C1318.27 843.595 1313.94 844.189 1307.98 842.712Z" fill="#455A64"/>
<path d="M1378.18 704.851C1382.26 709.671 1384.65 715.696 1384.98 722.003C1385.26 728.129 1383.33 734.153 1379.56 738.985C1378.15 759.635 1374.07 799.39 1374.07 799.39C1379.53 804.995 1380.87 808.629 1384.09 818.682C1386.01 824.796 1393.21 844.444 1395 849.912C1385.45 851.084 1380.26 860.577 1380.26 860.577C1380.26 860.577 1363.44 835.749 1355.36 821.145C1349.36 810.344 1346.6 806.404 1344.81 800.019C1342.61 792.054 1342.01 787.945 1340.04 774.546C1338.07 761.147 1336.19 744.097 1335.22 730.884C1334.25 717.672 1333.52 703.713 1333.52 703.713L1378.18 704.851Z" fill="#263238"/>
<path d="M1380.32 860.526C1370.52 846.091 1360.91 831.487 1352.49 816.203C1349.72 811.746 1347.34 807.058 1345.37 802.192C1343.8 797.193 1342.6 792.084 1341.77 786.909C1337.44 759.318 1334.7 731.5 1333.55 703.594L1334.98 724.482C1336.27 745.387 1338.87 766.19 1342.2 786.841C1343.4 793.633 1344.66 800.647 1347.75 806.896C1357.66 825.341 1368.54 843.253 1380.32 860.56V860.526Z" fill="white"/>
<path d="M1356.57 805.827C1351.62 793.226 1345.7 724.635 1346 700.928H1344.76C1344.66 708.859 1345.26 721.782 1346.27 735.962C1342.25 733.924 1339.65 730.188 1339.65 711.406H1338.41C1338.41 730.29 1340.87 734.858 1346.38 737.389C1348.45 765.477 1352.15 797.964 1355.41 806.302C1360.25 818.631 1385.5 860.288 1385.74 860.645L1386.81 860C1386.56 859.626 1361.37 818.071 1356.57 805.827Z" fill="black"/>
<path d="M1378.93 858.42C1377.42 860.56 1375.7 862.072 1380 864.925C1383.4 867.115 1383.52 868.881 1384.55 871.225C1385.23 873.51 1385.5 875.894 1385.37 878.273C1385.37 878.273 1391.07 869.663 1389.41 864.109C1387.74 858.556 1378.93 858.42 1378.93 858.42Z" fill="#455A64"/>
<path d="M1397.22 853.496C1398.83 855.191 1400.72 856.593 1402.81 857.639C1404.25 858.539 1405.75 859.337 1406.2 861.036C1406.2 861.222 1405.35 862.241 1405.37 862.428C1405.45 863.238 1405.42 864.054 1405.29 864.857C1404.96 867.659 1403.44 869.731 1403.1 872.516C1402.98 873.628 1402.79 874.729 1402.5 875.81C1402.26 877.126 1402.15 878.463 1402.18 879.801C1402.09 881.193 1401.99 882.586 1401.92 883.979C1401.85 884.57 1401.85 885.17 1401.92 885.762C1402.04 886.356 1392.57 891.128 1388.75 892.962C1388.52 893.071 1388.29 893.168 1388.05 893.251C1385.72 893.885 1383.24 893.643 1381.07 892.572C1373.46 889.803 1373.94 887.052 1373.94 887.052C1373.98 885.913 1374.34 884.808 1374.98 883.864C1375.62 882.921 1376.51 882.177 1377.55 881.72C1378.02 881.45 1378.51 881.228 1379.02 881.058C1380.91 880.355 1382.97 880.254 1384.93 880.769C1385.31 879.638 1385.49 878.447 1385.45 877.254C1385.61 875.469 1385.64 873.676 1385.54 871.887C1385.2 869.866 1384.42 867.946 1383.24 866.266C1381.63 864.041 1379.85 861.172 1378.78 859.609C1377.71 858.047 1377.42 854.277 1383.75 849.743C1389.83 845.412 1394.28 846.346 1395.15 848.129C1395.63 849.992 1396.33 851.792 1397.22 853.496Z" fill="#455A64"/>
<path d="M1373.84 887.069C1373.84 881.822 1380.53 879.19 1384.89 880.735C1380.43 879.903 1374.48 881.975 1373.84 887.069Z" fill="white"/>
<path opacity="0.1" d="M1380.87 883.486C1381.37 882.191 1382.33 881.123 1383.57 880.48C1384.01 880.532 1384.46 880.617 1384.89 880.735C1384.13 881.465 1381.39 882.552 1380.87 883.486Z" fill="black"/>
<path d="M1407.09 862.683C1408.79 863.396 1407.38 866.079 1405.39 870.24C1403.59 873.315 1402.88 876.901 1403.35 880.429C1403.76 884.114 1402.89 885.915 1401.3 887.222C1399.7 888.53 1387.85 893.709 1387.85 893.709C1390.66 890.15 1392.3 885.797 1392.52 881.261C1393.16 873.144 1393.94 867.93 1397.98 864.381C1399.24 863.364 1400.73 862.676 1402.32 862.38C1403.91 862.083 1405.55 862.188 1407.09 862.683Z" fill="black"/>
<path d="M1373.84 887.052C1374.02 888.649 1378.56 891.875 1383.91 891.807C1389.26 891.739 1389.71 890.602 1390.55 884.335C1391.38 878.069 1391.96 869.357 1394.67 865.655C1397.39 861.953 1400.96 859.711 1406.17 861.07C1406.76 861.358 1408.38 862.972 1407.78 864.466C1407.78 864.466 1407.78 863.277 1405.64 862.649C1403.81 862.123 1401.62 862.173 1398.56 864.823C1394.98 867.896 1394.18 875.148 1393.77 881.363C1393.37 887.579 1391.43 893.539 1386.28 894.1C1384.06 894.401 1381.8 894.213 1379.66 893.55C1377.52 892.887 1375.55 891.765 1373.89 890.262C1373.56 889.219 1373.55 888.105 1373.84 887.052Z" fill="#37474F"/>
<path d="M1343.17 590.544C1342.47 589.568 1342.05 588.429 1341.93 587.238C1341.81 586.046 1342 584.845 1342.49 583.751C1343.35 581.543 1345.15 579.217 1350.4 576.5C1356.65 573.273 1373.8 570.964 1382.29 582.189C1383.52 583.887 1366.64 615.559 1367.47 622.131C1363.09 617.529 1348.63 601.345 1348.63 601.345C1345.24 599.884 1343.13 598.644 1342.4 595.418C1342.14 593.753 1342.41 592.048 1343.17 590.544Z" fill="#263238"/>
<path d="M1348.63 601.26C1343.54 599.918 1340.3 595.452 1343.17 590.493C1340.99 595.588 1343.9 599.29 1348.63 601.26Z" fill="white"/>
<path d="M1343.17 590.544C1341.03 588.2 1341.55 584.43 1343.17 581.917C1345.04 579.479 1347.54 577.594 1350.4 576.466C1349.1 577.217 1347.84 578.045 1346.63 578.945C1343.08 581.408 1340.43 586.587 1343.23 590.544H1343.17Z" fill="white"/>
<path d="M1345.75 599.562C1345.75 599.562 1341.11 607.119 1341.64 607.747C1342.7 608.595 1343.84 609.35 1345.03 610.006L1345.75 599.562Z" fill="#F0997A"/>
<path d="M1345.75 599.562C1344.59 601.99 1343.2 604.283 1342.06 606.694C1341.91 607.085 1341.59 607.543 1341.81 607.815C1342.1 608.151 1342.44 608.438 1342.83 608.664C1342.37 608.409 1341.6 608.205 1341.5 607.594C1342.44 604.689 1343.87 601.97 1345.75 599.562Z" fill="white"/>
<path d="M1351.49 585.738C1348.38 587.216 1345.7 589.593 1344.69 596.403C1344.44 598.186 1345.83 600.614 1345.2 602.975C1342.5 613.164 1345.71 621.655 1347.68 623.438C1349.01 624.695 1355.97 625.256 1359.57 624.237C1364.14 622.963 1374.07 618.48 1378.81 611.33C1384.38 602.839 1385.6 591.631 1379.47 587.097C1370.83 580.711 1354.8 584.176 1351.49 585.738Z" fill="#FFBDA7"/>
<path d="M1344.73 596.403C1344.73 598.712 1346.09 600.971 1345.31 603.332C1343.86 609.904 1343.76 617.715 1347.72 623.438C1343.37 617.902 1343.37 609.853 1345.03 603.264C1345.82 601.022 1344.52 598.729 1344.73 596.471V596.403Z" fill="white"/>
<path d="M1375.25 616.136L1377.05 628.652C1379.85 629.246 1380.1 632.558 1378.74 635.054L1379.41 638.587L1360.25 642.017L1358.11 624.508L1375.25 616.136Z" fill="#FFBDA7"/>
<path d="M1348.09 623.693C1349.79 624.593 1353.27 625.255 1358.13 624.576L1357.84 622.097C1356.3 622.675 1354.71 623.129 1353.1 623.455C1351.45 623.782 1349.76 623.862 1348.09 623.693Z" fill="#F0997A"/>
<path d="M1346.9 589.372C1346.77 590.842 1347.16 592.31 1347.99 593.527C1348.82 594.745 1350.05 595.635 1351.47 596.046C1350.71 597.673 1350.43 599.48 1350.66 601.26C1350.72 602.311 1351.08 603.322 1351.7 604.174C1352.32 605.025 1353.17 605.682 1354.15 606.066C1355.5 606.524 1355.85 605.93 1356.38 604.86C1357.06 603.349 1357.92 601.039 1361.17 601.464C1364.89 601.973 1365.87 607.577 1363.7 611.245C1363.28 612.021 1362.68 612.683 1361.95 613.174C1361.22 613.665 1360.38 613.971 1359.5 614.064C1359.02 614.057 1358.55 613.947 1358.11 613.742C1357.67 613.537 1357.29 613.242 1356.97 612.876C1356.97 612.876 1357.21 617.766 1363.51 620.67C1367.45 622.766 1372.02 623.369 1376.37 622.369C1379.3 619.115 1382.06 615.715 1384.64 612.179C1391.43 602.262 1392.87 584.108 1381.24 580.847C1380.68 580.694 1370.1 579.149 1364.94 580.338C1349.02 583.734 1346.94 588.608 1346.9 589.372Z" fill="#263238"/>
<path d="M1375.62 579.574C1374.21 580.587 1373.25 582.1 1372.92 583.802C1372.77 584.651 1372.85 585.523 1373.15 586.331C1373.45 587.138 1373.96 587.854 1374.62 588.404C1378.01 591.07 1383.31 587.963 1383.94 584.023C1384.65 579.37 1379.05 577.026 1375.62 579.574Z" fill="#92E3A9"/>
<path d="M1378.39 581.051C1374.91 583.191 1372.73 588.234 1374.58 591.869C1375.09 592.854 1375.81 593.737 1376.28 594.773C1377.62 598.084 1375.67 601.735 1375.25 605.285C1374.96 608.102 1375.44 610.945 1376.66 613.504C1377.81 615.389 1380.36 615.864 1381.38 617.834C1382.07 619.193 1381.6 620.857 1381.87 622.369C1382.46 625.612 1386.3 627.175 1389.61 627.242C1391.01 627.366 1392.42 627.181 1393.74 626.7C1395.06 626.219 1396.26 625.453 1397.25 624.457C1398.01 623.278 1398.84 622.144 1399.73 621.061C1401.7 619.21 1404.83 619.363 1407 617.665C1407.81 616.955 1408.44 616.069 1408.84 615.077C1409.25 614.084 1409.42 613.011 1409.35 611.942C1409.15 609.798 1408.57 607.705 1407.65 605.76C1406.24 602.364 1407.36 600.173 1408.07 596.726C1408.41 594.864 1408.1 592.943 1407.2 591.28C1406.3 589.617 1404.86 588.309 1403.11 587.572C1400.72 586.621 1397.8 586.774 1395.86 585.059C1394.94 583.972 1394.08 582.838 1393.28 581.662C1389.65 577.672 1382.48 578.555 1378.39 581.051Z" fill="#263238"/>
<path d="M1392.06 638.892C1391.29 636.816 1390.09 634.933 1388.52 633.375C1386.95 631.817 1385.05 630.622 1382.97 629.875C1381.27 629.365 1377.05 628.652 1377.05 628.652C1378.01 630.86 1376.38 632.32 1373.51 632.982C1369.83 633.848 1364.21 633.933 1360.39 631.403L1358.82 630.435C1354.65 631.46 1350.54 632.696 1346.49 634.137C1345.66 634.528 1341.06 636.073 1333.83 652.325C1330.74 659.271 1331.65 666.318 1337.34 671.328C1337.66 675.726 1334.83 685.627 1334.83 685.627C1333.39 693.89 1333.05 702.308 1333.84 710.659C1333.84 710.659 1337.24 719.659 1364.17 719.557C1385.01 719.557 1395.49 709.368 1395.49 709.368C1395.23 704.273 1387.22 686.391 1388.02 680.38C1389.26 671.617 1397.29 655.908 1392.06 638.892Z" fill="#92E3A9"/>
<path d="M1346.49 634.137C1351.98 638.603 1352.4 644.734 1351.59 653.004C1350.77 661.275 1342.47 687.121 1340.77 692.742C1339.07 698.364 1336.65 700.317 1332.37 704.868C1328.09 709.419 1318.08 716.653 1313.11 720.797C1310.8 722.716 1308.74 724.72 1306.55 726.809C1304.16 728.827 1301.63 730.677 1298.98 732.345C1297.74 733.192 1296.3 733.696 1294.8 733.805C1293.85 733.805 1293.02 733.364 1292.12 733.432C1291.22 733.5 1290.42 734.213 1289.43 734.043C1288.45 733.873 1287.46 732.871 1286.39 732.752C1285.26 732.768 1284.13 732.717 1283 732.6C1282.1 732.268 1281.14 732.169 1280.2 732.311C1279.31 732.481 1277.97 733.347 1277.14 732.617C1276.31 731.886 1276.77 730.715 1277.31 729.848C1278.51 728.228 1280.2 727.037 1282.13 726.452C1284.04 725.662 1286 724.987 1287.99 724.431C1289.86 723.928 1291.6 723.018 1293.09 721.765C1294.14 720.967 1294.99 719.574 1293.24 719.218C1291.17 718.793 1288.43 719.082 1286.79 717.401C1285.66 716.246 1286.33 715.176 1287.7 714.87C1289.96 714.371 1292.18 713.701 1294.34 712.866C1296.55 712.017 1298.64 710.947 1300.86 710.166C1302.05 709.783 1303.26 709.471 1304.48 709.232C1307.88 708.536 1309.83 705.666 1311.94 703.203C1314.89 699.807 1319.97 693.32 1323.42 688.667L1328.63 663.448C1331.92 649.761 1333.08 638.281 1346.49 634.137Z" fill="#FFBDA7"/>
<path d="M1351.56 653.004C1350.23 660.476 1348.41 667.851 1346.1 675.081C1345.93 675.676 1345.75 676.253 1345.58 676.779C1343.49 683.861 1341.47 690.246 1340.72 692.726C1339.19 697.82 1337.04 699.926 1333.45 703.662L1332.31 704.851C1327.85 709.589 1318.03 716.637 1313.06 720.797C1310.76 722.716 1308.69 724.703 1306.52 726.792C1304.12 728.816 1301.58 730.672 1298.93 732.345C1297.69 733.187 1296.25 733.685 1294.75 733.789C1293.8 733.873 1292.97 733.347 1292.07 733.415C1291.17 733.483 1290.37 734.196 1289.38 734.026C1288.4 733.856 1287.41 732.854 1286.34 732.753C1285.21 732.763 1284.08 732.706 1282.95 732.583C1282.05 732.259 1281.09 732.16 1280.15 732.294C1279.87 732.294 1279.55 732.481 1279.21 732.6L1278.79 732.736C1278.6 732.807 1278.4 732.852 1278.19 732.871C1278 732.91 1277.81 732.905 1277.62 732.858C1277.43 732.811 1277.26 732.723 1277.11 732.6C1276.17 731.785 1276.71 730.715 1277.26 729.849C1278.46 728.227 1280.15 727.036 1282.08 726.452C1283.99 725.657 1285.95 724.976 1287.94 724.414C1289.81 723.911 1291.55 723.001 1293.03 721.748C1294.09 720.95 1294.94 719.574 1293.19 719.201C1291.12 718.776 1288.38 719.065 1286.75 717.401C1285.61 716.229 1286.28 715.159 1287.65 714.853C1289.91 714.356 1292.13 713.686 1294.29 712.849C1296.5 712 1298.6 710.931 1300.81 710.166C1302 709.772 1303.2 709.46 1304.43 709.232C1307.83 708.536 1309.78 705.649 1311.88 703.204C1314.84 699.807 1319.92 693.303 1323.38 688.65L1328.58 663.431C1331.87 649.676 1333.08 638.196 1346.44 634.069C1347.82 635.187 1348.98 636.559 1349.84 638.111C1352.12 642.119 1352.17 646.993 1351.56 653.004Z" fill="#FFBDA7"/>
<path d="M1277.04 732.617C1276.72 732.296 1276.53 731.87 1276.51 731.42C1276.48 730.969 1276.62 730.525 1276.9 730.171C1278.18 727.709 1280.94 726.656 1283.39 725.824C1285.01 725.06 1286.72 724.49 1288.48 724.126C1290.15 723.61 1291.72 722.811 1293.12 721.765C1291.8 722.953 1290.25 723.865 1288.57 724.448C1285.18 725.28 1281.92 726.584 1278.89 728.32C1277.77 729.22 1275.81 731.105 1277.11 732.549L1277.04 732.617Z" fill="white"/>
<path d="M1286.79 717.468C1284.68 715.057 1288.76 714.751 1290.28 714.242C1294.33 713.206 1297.89 710.981 1301.87 709.861C1303.9 709.549 1305.85 708.814 1307.59 707.704C1310.36 705.513 1313.33 701.115 1315.62 698.347L1323.26 688.616C1324.96 680.125 1327.66 666.896 1329.68 658.269C1331.84 648.079 1335.15 637.194 1346.49 634.137C1335.32 637.313 1332.06 648.13 1329.99 658.337C1327.95 667.099 1325.5 679.921 1323.59 688.905L1315.88 698.618C1313.52 701.403 1310.61 705.717 1307.74 707.975C1305.98 709.089 1304.01 709.824 1301.95 710.132C1297.98 711.236 1294.36 713.41 1290.32 714.378C1288.77 714.87 1284.73 715.091 1286.79 717.519V717.468Z" fill="white"/>
<path opacity="0.3" d="M1384.89 744.606C1384.89 745.266 1385.07 745.912 1385.42 746.474C1385.77 746.033 1386.08 745.489 1386.39 745.15C1387.07 744.489 1387.9 744.005 1388.81 743.74C1389.8 743.171 1390.76 742.547 1391.68 741.872C1392.6 741.329 1393.82 741.651 1394.89 741.125C1395.96 740.598 1396 739.664 1396.71 739.053C1397.42 738.442 1398.41 738.408 1399.09 737.779C1400.24 736.818 1401.12 735.562 1401.62 734.145C1402.79 731.239 1403.75 728.254 1404.51 725.213C1405.05 722.241 1405.54 719.405 1406.29 716.501C1407.89 710.217 1411.69 698.754 1412.52 692.301C1413.32 686.12 1412.74 684.082 1410.82 678.546C1408.9 673.009 1401.82 646.28 1397.66 639.028C1393.72 632.235 1390.44 631.318 1382.7 629.79L1382.24 629.671L1381.46 629.501L1380.85 629.365L1380.07 629.212L1379.61 629.128L1378.49 628.907L1377.64 628.754H1377.42H1377.06L1376.16 622.488H1376.38C1377.76 620.789 1379.27 619.176 1380.85 617.274C1381.04 617.497 1381.21 617.742 1381.34 618.004C1382.06 619.363 1381.56 621.01 1381.83 622.522C1382.43 625.782 1386.27 627.327 1389.58 627.412C1390.98 627.529 1392.39 627.339 1393.71 626.855C1395.03 626.371 1396.23 625.605 1397.22 624.61C1397.99 623.435 1398.81 622.301 1399.7 621.214C1401.67 619.363 1404.79 619.516 1406.99 617.817C1407.79 617.103 1408.41 616.214 1408.82 615.219C1409.22 614.224 1409.39 613.149 1409.31 612.077C1409.12 609.932 1408.54 607.839 1407.61 605.896C1406.2 602.5 1407.32 600.309 1408.04 596.878C1408.37 595.016 1408.07 593.095 1407.17 591.429C1406.27 589.763 1404.84 588.451 1403.1 587.708C1400.68 586.757 1397.76 586.927 1395.83 585.195C1394.92 584.108 1394.06 582.974 1393.26 581.798C1390.55 578.826 1385.88 578.572 1381.97 579.659C1381.01 578.989 1379.85 578.65 1378.68 578.691C1373.38 574.581 1366.47 573.596 1360.54 574.071C1358.31 575.008 1356.29 576.389 1354.61 578.13C1349.28 583.412 1346.12 591.172 1347.51 598.509C1347.79 599.884 1348.21 601.209 1348.43 602.584C1348.99 606.1 1348.21 609.683 1348.23 613.249C1348.24 616.815 1349.36 620.755 1352.46 622.505C1354.8 623.812 1357.67 623.557 1360.34 623.897C1364.72 624.457 1364.21 627.158 1364.38 630.877C1364.45 631.446 1364.4 632.025 1364.24 632.575C1364.17 632.773 1364.07 632.958 1363.94 633.118C1362.8 634.528 1359.57 635.088 1358.14 635.564C1355.32 636.249 1352.56 637.181 1349.89 638.349C1348.67 638.97 1347.61 639.872 1346.8 640.981C1343.56 645.532 1342.18 650.95 1340.81 656.265C1339.53 661.19 1338.19 666.115 1336.78 671.006C1335.51 675.444 1334.19 679.859 1332.81 684.252C1331.73 688.249 1330.12 692.082 1328.02 695.647C1325.39 699.671 1321.62 702.796 1318.22 706.227C1310.53 714.004 1304.09 723.956 1293.8 727.692C1289.84 729.118 1285.6 729.509 1281.54 730.596C1280.13 730.969 1278.53 731.717 1278.14 733.024C1278.34 733.005 1278.54 732.96 1278.74 732.888L1279.16 732.753C1279.5 732.634 1279.82 732.515 1280.09 732.447C1281.04 732.312 1282 732.412 1282.9 732.736C1284.02 732.859 1285.16 732.916 1286.29 732.905C1287.36 733.007 1288.16 733.992 1289.33 734.179C1290.5 734.366 1291.03 733.636 1292.02 733.568C1293 733.5 1293.71 734.026 1294.7 733.941C1296.19 733.837 1297.64 733.339 1298.88 732.498C1301.53 730.824 1304.07 728.969 1306.47 726.945C1308.64 724.856 1310.71 722.869 1313.01 720.95C1317.98 716.789 1327.8 709.742 1332.26 705.004L1333.4 703.815C1336.97 700.096 1339.12 698.007 1340.65 692.896C1341.4 690.416 1343.42 684.031 1345.51 676.949L1346.04 675.251C1346.82 676.206 1347.23 677.413 1347.19 678.648C1347.82 686.901 1349.79 695.256 1351.13 703.475C1352.08 709.334 1353.05 715.193 1353.49 721.103C1353.83 725.382 1353.88 729.594 1353.95 733.941L1354.36 764.509C1354.36 766.207 1354.36 767.906 1354.44 769.706C1354.46 774.516 1354.79 779.321 1355.43 784.09C1355.98 788.293 1356.9 792.44 1358.16 796.487C1358.47 797.472 1358.79 798.457 1359.15 799.442C1362.66 809.206 1368.18 818.122 1373.5 826.919C1378.89 836.318 1383.73 846.026 1387.98 855.992C1388.85 857.735 1389.49 859.585 1389.88 861.494C1390.43 864.789 1389.53 868.134 1389.27 871.463C1389.02 874.791 1389.39 877.984 1389.27 881.244C1389.35 884.526 1388.4 887.749 1386.56 890.466C1385.23 892.176 1383.39 893.42 1381.31 894.015C1382.94 894.299 1384.6 894.351 1386.25 894.168C1387.2 894.081 1388.11 893.766 1388.92 893.251C1393.12 891.479 1397.22 889.483 1401.21 887.273C1402.81 886 1403.67 884.182 1403.28 880.48C1402.79 876.953 1403.5 873.364 1405.3 870.291C1406.39 868.424 1407.23 866.419 1407.78 864.33C1408.21 862.887 1406.71 861.392 1406.08 861.104C1405.66 859.405 1404.17 858.59 1402.69 857.707C1400.6 856.662 1398.72 855.259 1397.12 853.564C1396.2 851.854 1395.49 850.041 1395 848.163C1394.78 847.75 1394.44 847.413 1394.03 847.195C1391.41 839.672 1385.72 824.032 1384.04 818.716C1380.88 808.646 1379.47 805.012 1374.02 799.408C1374.02 799.408 1377.03 770.062 1378.78 748.716L1380.88 745.031C1381.1 744.64 1381.32 744.266 1381.56 743.893C1383.92 740.049 1386.68 736.463 1389.78 733.194C1390.09 732.871 1390.39 732.498 1390.7 732.141C1390.24 732.905 1389.8 733.67 1389.29 734.417C1387.27 737.508 1384.74 740.819 1384.89 744.606ZM1395.28 709.589L1395.49 709.402C1395.39 708.297 1395.18 707.205 1394.86 706.142C1394.47 704.698 1393.93 702.983 1393.33 701.132C1393.14 700.554 1392.94 699.96 1392.74 699.434C1392.04 697.362 1391.29 695.154 1390.61 693.014C1390.39 692.352 1390.19 691.69 1390 691.044C1389.82 690.399 1389.56 689.618 1389.37 688.939C1389.19 688.259 1389.1 687.971 1388.98 687.495C1388.98 687.342 1388.9 687.173 1388.87 687.02C1388.83 686.867 1388.71 686.391 1388.64 686.103C1388.51 685.542 1388.39 685.016 1388.3 684.506L1388.2 683.946C1388.19 683.816 1388.19 683.685 1388.2 683.555C1388.15 683.309 1388.12 683.059 1388.1 682.808V682.299C1388.08 681.993 1388.08 681.687 1388.1 681.382C1388.08 681.088 1388.08 680.793 1388.1 680.499C1388.56 677.862 1389.19 675.259 1389.99 672.704C1390.53 670.734 1391.14 668.628 1391.68 666.386C1393.3 669.392 1394.86 672.398 1396.42 675.421C1397.76 677.811 1398.9 680.31 1399.82 682.893C1401.69 688.769 1401.23 695.137 1400.51 701.268C1399.77 708.261 1398.22 715.144 1395.9 721.782C1396.39 717.713 1396.19 713.588 1395.28 709.589Z" fill="black"/>
<path d="M81.3333 62.6954C86.1172 62.6954 89.9998 58.8128 89.9998 54.0288V36.6957C89.9998 41.4796 86.1172 45.3623 81.3333 45.3623" fill="#92E3A9"/>
<path d="M81.3332 45.3623H64V62.6955H81.3332V45.3623Z" fill="#92E3A9"/>
<path d="M98.6663 28.0291C93.8824 28.0291 89.9998 31.9117 89.9998 36.6956V54.0288C89.9998 49.2449 93.8824 45.3622 98.6663 45.3622" fill="#92E3A9"/>
<path d="M98.6668 45.3331H116V28L98.6668 28V45.3331Z" fill="#92E3A9"/>
<path d="M132.352 48.92L132.736 46.712L139.056 39.48H142.128L140.88 46.552H142.192L141.776 48.92H140.464L140.096 51H137.344L137.728 48.92H132.352ZM139.056 42.488L135.648 46.552H138.336L139.056 42.488ZM143.772 45.176C144.081 43.4053 144.679 42.0027 145.564 40.968C146.46 39.9227 147.697 39.4 149.276 39.4C150.545 39.4 151.473 39.7467 152.06 40.44C152.657 41.1227 152.956 42.0773 152.956 43.304C152.956 43.8053 152.892 44.4293 152.764 45.176C152.455 46.9467 151.852 48.3547 150.956 49.4C150.06 50.4347 148.823 50.952 147.244 50.952C145.975 50.952 145.047 50.6107 144.46 49.928C143.884 49.2347 143.596 48.2747 143.596 47.048C143.596 46.4827 143.655 45.8587 143.772 45.176ZM150.06 45.176C150.177 44.5147 150.236 43.9973 150.236 43.624C150.236 43.0907 150.129 42.68 149.916 42.392C149.703 42.104 149.34 41.96 148.828 41.96C148.092 41.96 147.553 42.2427 147.212 42.808C146.881 43.3733 146.631 44.1627 146.46 45.176C146.343 45.8373 146.284 46.3547 146.284 46.728C146.284 47.2613 146.391 47.672 146.604 47.96C146.817 48.248 147.18 48.392 147.692 48.392C148.428 48.392 148.961 48.1093 149.292 47.544C149.633 46.9787 149.889 46.1893 150.06 45.176ZM153.618 48.92L154.002 46.712L160.322 39.48H163.394L162.146 46.552H163.458L163.042 48.92H161.73L161.362 51H158.61L158.994 48.92H153.618ZM160.322 42.488L156.914 46.552H159.602L160.322 42.488ZM170.51 40.792C169.987 40.76 169.603 40.8347 169.358 41.016C169.123 41.1973 168.963 41.5227 168.878 41.992L168.862 42.072H170.334L169.934 44.344H168.462L167.294 51H164.542L165.71 44.344H164.718L165.118 42.072H166.11L166.158 41.816C166.36 40.7173 166.824 39.8853 167.55 39.32C168.286 38.744 169.262 38.456 170.478 38.456C170.67 38.456 170.814 38.4613 170.91 38.472L170.51 40.792ZM174.115 51.128C173.347 51.128 172.665 50.9733 172.067 50.664C171.47 50.3547 171.006 49.9173 170.675 49.352C170.355 48.7867 170.195 48.1307 170.195 47.384C170.195 46.3707 170.435 45.448 170.915 44.616C171.395 43.784 172.057 43.1333 172.899 42.664C173.742 42.184 174.681 41.944 175.715 41.944C176.483 41.944 177.166 42.104 177.763 42.424C178.371 42.7333 178.841 43.1707 179.171 43.736C179.502 44.3013 179.667 44.9573 179.667 45.704C179.667 46.728 179.422 47.656 178.931 48.488C178.451 49.3093 177.785 49.9547 176.931 50.424C176.089 50.8933 175.15 51.128 174.115 51.128ZM174.499 48.776C174.947 48.776 175.347 48.6427 175.699 48.376C176.062 48.0987 176.339 47.7467 176.531 47.32C176.734 46.8827 176.835 46.4293 176.835 45.96C176.835 45.4267 176.691 45.016 176.403 44.728C176.115 44.44 175.753 44.296 175.315 44.296C174.857 44.296 174.451 44.4347 174.099 44.712C173.758 44.9787 173.491 45.3307 173.299 45.768C173.107 46.2053 173.011 46.664 173.011 47.144C173.011 47.6667 173.15 48.072 173.427 48.36C173.705 48.6373 174.062 48.776 174.499 48.776ZM184.239 43.688C184.655 43.1547 185.13 42.7387 185.663 42.44C186.207 42.1307 186.772 41.976 187.359 41.976L186.847 44.872H186.095C185.412 44.872 184.874 45.0213 184.479 45.32C184.084 45.608 183.823 46.12 183.695 46.856L182.959 51H180.223L181.791 42.072H184.527L184.239 43.688ZM200.059 41.976C201.019 41.976 201.765 42.232 202.299 42.744C202.843 43.2453 203.115 43.9493 203.115 44.856C203.115 45.1333 203.083 45.4427 203.019 45.784L202.091 51H199.371L200.235 46.152C200.256 46.0453 200.267 45.9013 200.267 45.72C200.267 45.272 200.139 44.9307 199.883 44.696C199.637 44.4613 199.291 44.344 198.843 44.344C198.309 44.344 197.861 44.504 197.499 44.824C197.136 45.1333 196.907 45.576 196.811 46.152L195.947 51H193.227L194.091 46.152C194.112 46.0453 194.123 45.9013 194.123 45.72C194.123 45.272 193.995 44.9307 193.739 44.696C193.493 44.4613 193.147 44.344 192.699 44.344C192.165 44.344 191.717 44.504 191.355 44.824C190.992 45.1333 190.763 45.576 190.667 46.152V46.072L189.803 51H187.067L188.635 42.072H191.371L191.179 43.208C191.52 42.824 191.931 42.5253 192.411 42.312C192.901 42.088 193.429 41.976 193.995 41.976C194.677 41.976 195.253 42.12 195.723 42.408C196.203 42.696 196.544 43.112 196.747 43.656C197.141 43.1547 197.632 42.7493 198.219 42.44C198.805 42.1307 199.419 41.976 200.059 41.976ZM209.572 41.944C210.724 41.944 211.636 42.2587 212.308 42.888C212.991 43.5067 213.332 44.3547 213.332 45.432C213.332 45.784 213.305 46.0987 213.252 46.376C213.209 46.6213 213.145 46.8827 213.06 47.16H206.868C206.857 47.224 206.852 47.3253 206.852 47.464C206.852 47.9333 206.98 48.2907 207.236 48.536C207.492 48.7813 207.833 48.904 208.26 48.904C208.943 48.904 209.465 48.616 209.828 48.04H212.74C212.356 48.9467 211.732 49.688 210.868 50.264C210.004 50.84 209.033 51.128 207.956 51.128C206.804 51.128 205.881 50.808 205.188 50.168C204.505 49.528 204.164 48.6587 204.164 47.56C204.164 47.2293 204.196 46.888 204.26 46.536C204.42 45.608 204.751 44.7973 205.252 44.104C205.753 43.4107 206.377 42.8773 207.124 42.504C207.871 42.1307 208.687 41.944 209.572 41.944ZM210.564 45.768C210.585 45.6187 210.596 45.5173 210.596 45.464C210.596 45.0373 210.463 44.712 210.196 44.488C209.929 44.2533 209.577 44.136 209.14 44.136C208.671 44.136 208.255 44.28 207.892 44.568C207.54 44.8453 207.284 45.2453 207.124 45.768H210.564Z" fill="#92E3A9"/>
<path d="M955.495 39.3636V51H953.739V39.3636H955.495ZM957.915 39.3636H959.614V48.6136C959.614 48.9886 959.662 49.2538 959.756 49.4091C959.855 49.5644 960.04 49.6383 960.313 49.6307C960.461 49.6269 960.571 49.6174 960.643 49.6023C960.719 49.5871 960.787 49.5701 960.847 49.5511L961.154 50.9091C961.037 50.9432 960.887 50.9754 960.705 51.0057C960.527 51.0398 960.325 51.0587 960.097 51.0625C959.362 51.0739 958.815 50.8996 958.455 50.5398C958.095 50.1799 957.915 49.6553 957.915 48.9659V39.3636ZM962.509 39.3636H964.208V48.6136C964.208 48.9886 964.255 49.2538 964.35 49.4091C964.449 49.5644 964.634 49.6383 964.907 49.6307C965.055 49.6269 965.165 49.6174 965.237 49.6023C965.312 49.5871 965.38 49.5701 965.441 49.5511L965.748 50.9091C965.63 50.9432 965.481 50.9754 965.299 51.0057C965.121 51.0398 964.918 51.0587 964.691 51.0625C963.956 51.0739 963.409 50.8996 963.049 50.5398C962.689 50.1799 962.509 49.6553 962.509 48.9659V39.3636ZM972.397 47.3807V42.2727H974.102V51H972.431V49.4886H972.34C972.139 49.9545 971.817 50.3428 971.374 50.6534C970.935 50.9602 970.388 51.1136 969.732 51.1136C969.172 51.1136 968.675 50.9905 968.244 50.7443C967.816 50.4943 967.478 50.125 967.232 49.6364C966.99 49.1477 966.869 48.5436 966.869 47.8239V42.2727H968.567V47.6193C968.567 48.214 968.732 48.6875 969.062 49.0398C969.391 49.392 969.819 49.5682 970.346 49.5682C970.664 49.5682 970.98 49.4886 971.295 49.3295C971.613 49.1705 971.876 48.9299 972.085 48.608C972.297 48.286 972.401 47.8769 972.397 47.3807ZM982.924 44.4034L981.384 44.6761C981.32 44.4792 981.218 44.2917 981.077 44.1136C980.941 43.9356 980.755 43.7898 980.521 43.6761C980.286 43.5625 979.992 43.5057 979.64 43.5057C979.159 43.5057 978.757 43.6136 978.435 43.8295C978.113 44.0417 977.952 44.3163 977.952 44.6534C977.952 44.9451 978.06 45.1799 978.276 45.358C978.492 45.536 978.841 45.6818 979.322 45.7955L980.708 46.1136C981.511 46.2992 982.11 46.5852 982.504 46.9716C982.897 47.358 983.094 47.8598 983.094 48.4773C983.094 49 982.943 49.4659 982.64 49.875C982.341 50.2803 981.922 50.5985 981.384 50.8295C980.85 51.0606 980.231 51.1761 979.526 51.1761C978.549 51.1761 977.752 50.9678 977.134 50.5511C976.517 50.1307 976.138 49.5341 975.998 48.7614L977.64 48.5114C977.742 48.9394 977.952 49.2633 978.271 49.483C978.589 49.6989 979.004 49.8068 979.515 49.8068C980.072 49.8068 980.517 49.6913 980.85 49.4602C981.183 49.2254 981.35 48.9394 981.35 48.6023C981.35 48.3295 981.248 48.1004 981.043 47.9148C980.843 47.7292 980.534 47.589 980.117 47.4943L978.64 47.1705C977.826 46.9848 977.223 46.6894 976.833 46.2841C976.447 45.8788 976.254 45.3655 976.254 44.7443C976.254 44.2292 976.397 43.7784 976.685 43.392C976.973 43.0057 977.371 42.7045 977.879 42.4886C978.386 42.2689 978.968 42.1591 979.623 42.1591C980.566 42.1591 981.308 42.3636 981.85 42.7727C982.392 43.178 982.75 43.7216 982.924 44.4034ZM989.036 42.2727V43.6364H984.269V42.2727H989.036ZM985.548 40.1818H987.246V48.4375C987.246 48.767 987.296 49.0152 987.394 49.1818C987.493 49.3447 987.62 49.4564 987.775 49.517C987.934 49.5739 988.106 49.6023 988.292 49.6023C988.428 49.6023 988.548 49.5928 988.65 49.5739C988.752 49.5549 988.832 49.5398 988.888 49.5284L989.195 50.9318C989.097 50.9697 988.957 51.0076 988.775 51.0455C988.593 51.0871 988.366 51.1098 988.093 51.1136C987.646 51.1212 987.229 51.0417 986.843 50.875C986.457 50.7083 986.144 50.4508 985.906 50.1023C985.667 49.7538 985.548 49.3163 985.548 48.7898V40.1818ZM990.915 51V42.2727H992.558V43.6591H992.648C992.808 43.1894 993.088 42.8201 993.489 42.5511C993.891 42.2784 994.349 42.142 994.864 42.142C995.103 42.142 995.317 42.1705 995.506 42.2273C995.696 42.2841 995.862 42.3617 996.006 42.4602L995.461 43.8807C995.359 43.8314 995.243 43.7917 995.114 43.7614C994.986 43.7273 994.838 43.7102 994.671 43.7102C994.277 43.7102 993.925 43.7955 993.614 43.9659C993.308 44.1326 993.063 44.3636 992.881 44.6591C992.703 44.9545 992.614 45.2917 992.614 45.6705V51H990.915ZM1000.21 51.1705C999.509 51.1705 998.88 50.9905 998.327 50.6307C997.778 50.267 997.346 49.75 997.032 49.0795C996.721 48.4053 996.566 47.5966 996.566 46.6534C996.566 45.7102 996.723 44.9034 997.038 44.233C997.356 43.5625 997.791 43.0492 998.344 42.6932C998.897 42.3371 999.524 42.1591 1000.23 42.1591C1000.77 42.1591 1001.2 42.25 1001.53 42.4318C1001.87 42.6098 1002.12 42.8182 1002.3 43.0568C1002.49 43.2955 1002.63 43.5057 1002.74 43.6875H1002.84V42.2727H1004.54V51H1002.88V49.642H1002.74C1002.63 49.8277 1002.49 50.0398 1002.29 50.2784C1002.1 50.517 1001.84 50.7254 1001.51 50.9034C1001.18 51.0814 1000.74 51.1705 1000.21 51.1705ZM1000.59 49.7216C1001.08 49.7216 1001.49 49.5928 1001.83 49.3352C1002.17 49.0739 1002.43 48.7121 1002.6 48.25C1002.78 47.7879 1002.87 47.25 1002.87 46.6364C1002.87 46.0303 1002.78 45.5 1002.61 45.0455C1002.43 44.5909 1002.18 44.2367 1001.84 43.983C1001.5 43.7292 1001.08 43.6023 1000.59 43.6023C1000.08 43.6023 999.651 43.7348 999.31 44C998.969 44.2652 998.712 44.6269 998.538 45.0852C998.367 45.5436 998.282 46.0606 998.282 46.6364C998.282 47.2197 998.369 47.7443 998.543 48.2102C998.718 48.6761 998.975 49.0455 999.316 49.3182C999.661 49.5871 1000.08 49.7216 1000.59 49.7216ZM1011.04 42.2727V43.6364H1006.27V42.2727H1011.04ZM1007.55 40.1818H1009.25V48.4375C1009.25 48.767 1009.3 49.0152 1009.39 49.1818C1009.49 49.3447 1009.62 49.4564 1009.77 49.517C1009.93 49.5739 1010.11 49.6023 1010.29 49.6023C1010.43 49.6023 1010.55 49.5928 1010.65 49.5739C1010.75 49.5549 1010.83 49.5398 1010.89 49.5284L1011.2 50.9318C1011.1 50.9697 1010.96 51.0076 1010.77 51.0455C1010.59 51.0871 1010.37 51.1098 1010.09 51.1136C1009.65 51.1212 1009.23 51.0417 1008.84 50.875C1008.46 50.7083 1008.14 50.4508 1007.91 50.1023C1007.67 49.7538 1007.55 49.3163 1007.55 48.7898V40.1818ZM1012.92 51V42.2727H1014.61V51H1012.92ZM1013.77 40.9261C1013.48 40.9261 1013.22 40.8277 1013.01 40.6307C1012.8 40.4299 1012.7 40.1913 1012.7 39.9148C1012.7 39.6345 1012.8 39.3958 1013.01 39.1989C1013.22 38.9981 1013.48 38.8977 1013.77 38.8977C1014.07 38.8977 1014.32 38.9981 1014.53 39.1989C1014.74 39.3958 1014.85 39.6345 1014.85 39.9148C1014.85 40.1913 1014.74 40.4299 1014.53 40.6307C1014.32 40.8277 1014.07 40.9261 1013.77 40.9261ZM1020.58 51.1761C1019.76 51.1761 1019.04 50.9886 1018.43 50.6136C1017.82 50.2386 1017.35 49.714 1017.01 49.0398C1016.68 48.3655 1016.51 47.5777 1016.51 46.6761C1016.51 45.7708 1016.68 44.9792 1017.01 44.3011C1017.35 43.6231 1017.82 43.0966 1018.43 42.7216C1019.04 42.3466 1019.76 42.1591 1020.58 42.1591C1021.39 42.1591 1022.11 42.3466 1022.72 42.7216C1023.33 43.0966 1023.8 43.6231 1024.14 44.3011C1024.48 44.9792 1024.64 45.7708 1024.64 46.6761C1024.64 47.5777 1024.48 48.3655 1024.14 49.0398C1023.8 49.714 1023.33 50.2386 1022.72 50.6136C1022.11 50.9886 1021.39 51.1761 1020.58 51.1761ZM1020.58 49.75C1021.11 49.75 1021.55 49.6098 1021.9 49.3295C1022.25 49.0492 1022.51 48.6761 1022.67 48.2102C1022.84 47.7443 1022.93 47.2311 1022.93 46.6705C1022.93 46.1136 1022.84 45.6023 1022.67 45.1364C1022.51 44.6667 1022.25 44.2898 1021.9 44.0057C1021.55 43.7216 1021.11 43.5795 1020.58 43.5795C1020.05 43.5795 1019.6 43.7216 1019.25 44.0057C1018.9 44.2898 1018.64 44.6667 1018.47 45.1364C1018.31 45.6023 1018.22 46.1136 1018.22 46.6705C1018.22 47.2311 1018.31 47.7443 1018.47 48.2102C1018.64 48.6761 1018.9 49.0492 1019.25 49.3295C1019.6 49.6098 1020.05 49.75 1020.58 49.75ZM1028.24 45.8182V51H1026.54V42.2727H1028.17V43.6932H1028.28C1028.48 43.2311 1028.79 42.8598 1029.22 42.5795C1029.65 42.2992 1030.2 42.1591 1030.85 42.1591C1031.45 42.1591 1031.97 42.2841 1032.42 42.5341C1032.86 42.7803 1033.21 43.1477 1033.46 43.6364C1033.7 44.125 1033.82 44.7292 1033.82 45.4489V51H1032.13V45.6534C1032.13 45.0208 1031.96 44.5265 1031.63 44.1705C1031.3 43.8106 1030.85 43.6307 1030.27 43.6307C1029.88 43.6307 1029.53 43.7159 1029.22 43.8864C1028.92 44.0568 1028.68 44.3068 1028.5 44.6364C1028.33 44.9621 1028.24 45.3561 1028.24 45.8182ZM1042.64 44.4034L1041.1 44.6761C1041.04 44.4792 1040.94 44.2917 1040.8 44.1136C1040.66 43.9356 1040.47 43.7898 1040.24 43.6761C1040 43.5625 1039.71 43.5057 1039.36 43.5057C1038.88 43.5057 1038.48 43.6136 1038.15 43.8295C1037.83 44.0417 1037.67 44.3163 1037.67 44.6534C1037.67 44.9451 1037.78 45.1799 1038 45.358C1038.21 45.536 1038.56 45.6818 1039.04 45.7955L1040.43 46.1136C1041.23 46.2992 1041.83 46.5852 1042.22 46.9716C1042.62 47.358 1042.81 47.8598 1042.81 48.4773C1042.81 49 1042.66 49.4659 1042.36 49.875C1042.06 50.2803 1041.64 50.5985 1041.1 50.8295C1040.57 51.0606 1039.95 51.1761 1039.25 51.1761C1038.27 51.1761 1037.47 50.9678 1036.85 50.5511C1036.24 50.1307 1035.86 49.5341 1035.72 48.7614L1037.36 48.5114C1037.46 48.9394 1037.67 49.2633 1037.99 49.483C1038.31 49.6989 1038.72 49.8068 1039.23 49.8068C1039.79 49.8068 1040.24 49.6913 1040.57 49.4602C1040.9 49.2254 1041.07 48.9394 1041.07 48.6023C1041.07 48.3295 1040.97 48.1004 1040.76 47.9148C1040.56 47.7292 1040.25 47.589 1039.84 47.4943L1038.36 47.1705C1037.54 46.9848 1036.94 46.6894 1036.55 46.2841C1036.17 45.8788 1035.97 45.3655 1035.97 44.7443C1035.97 44.2292 1036.12 43.7784 1036.4 43.392C1036.69 43.0057 1037.09 42.7045 1037.6 42.4886C1038.1 42.2689 1038.69 42.1591 1039.34 42.1591C1040.28 42.1591 1041.03 42.3636 1041.57 42.7727C1042.11 43.178 1042.47 43.7216 1042.64 44.4034Z" fill="white"/>
<path d="M1065 43L1060 48L1055 43" stroke="white" stroke-width="1.39167" stroke-linecap="round" stroke-linejoin="round"/>
<path d="M1099.1 51H1095.33V39.3636H1099.22C1100.36 39.3636 1101.34 39.5966 1102.16 40.0625C1102.98 40.5246 1103.6 41.1894 1104.04 42.0568C1104.48 42.9205 1104.7 43.9564 1104.7 45.1648C1104.7 46.3769 1104.48 47.4186 1104.03 48.2898C1103.59 49.161 1102.96 49.8314 1102.12 50.3011C1101.29 50.767 1100.28 51 1099.1 51ZM1097.09 49.4659H1099C1099.89 49.4659 1100.63 49.2992 1101.21 48.9659C1101.8 48.6288 1102.24 48.142 1102.53 47.5057C1102.82 46.8655 1102.97 46.0852 1102.97 45.1648C1102.97 44.2519 1102.82 43.4773 1102.53 42.8409C1102.24 42.2045 1101.81 41.7216 1101.24 41.392C1100.67 41.0625 1099.96 40.8977 1099.11 40.8977H1097.09V49.4659ZM1110.42 51.1761C1109.6 51.1761 1108.89 50.9886 1108.28 50.6136C1107.67 50.2386 1107.19 49.714 1106.86 49.0398C1106.52 48.3655 1106.35 47.5777 1106.35 46.6761C1106.35 45.7708 1106.52 44.9792 1106.86 44.3011C1107.19 43.6231 1107.67 43.0966 1108.28 42.7216C1108.89 42.3466 1109.6 42.1591 1110.42 42.1591C1111.24 42.1591 1111.95 42.3466 1112.56 42.7216C1113.17 43.0966 1113.65 43.6231 1113.98 44.3011C1114.32 44.9792 1114.49 45.7708 1114.49 46.6761C1114.49 47.5777 1114.32 48.3655 1113.98 49.0398C1113.65 49.714 1113.17 50.2386 1112.56 50.6136C1111.95 50.9886 1111.24 51.1761 1110.42 51.1761ZM1110.43 49.75C1110.96 49.75 1111.4 49.6098 1111.74 49.3295C1112.09 49.0492 1112.35 48.6761 1112.52 48.2102C1112.69 47.7443 1112.77 47.2311 1112.77 46.6705C1112.77 46.1136 1112.69 45.6023 1112.52 45.1364C1112.35 44.6667 1112.09 44.2898 1111.74 44.0057C1111.4 43.7216 1110.96 43.5795 1110.43 43.5795C1109.89 43.5795 1109.45 43.7216 1109.1 44.0057C1108.75 44.2898 1108.49 44.6667 1108.32 45.1364C1108.15 45.6023 1108.07 46.1136 1108.07 46.6705C1108.07 47.2311 1108.15 47.7443 1108.32 48.2102C1108.49 48.6761 1108.75 49.0492 1109.1 49.3295C1109.45 49.6098 1109.89 49.75 1110.43 49.75ZM1120.06 51.1761C1119.22 51.1761 1118.49 50.9848 1117.88 50.6023C1117.27 50.2159 1116.81 49.6837 1116.48 49.0057C1116.16 48.3277 1115.99 47.5511 1115.99 46.6761C1115.99 45.7898 1116.16 45.0076 1116.49 44.3295C1116.83 43.6477 1117.3 43.1155 1117.9 42.733C1118.51 42.3504 1119.22 42.1591 1120.04 42.1591C1120.71 42.1591 1121.3 42.2822 1121.82 42.5284C1122.33 42.7708 1122.75 43.1117 1123.07 43.5511C1123.39 43.9905 1123.58 44.5038 1123.65 45.0909H1121.99C1121.9 44.6818 1121.69 44.3295 1121.37 44.0341C1121.05 43.7386 1120.61 43.5909 1120.07 43.5909C1119.6 43.5909 1119.18 43.7159 1118.83 43.9659C1118.48 44.2121 1118.2 44.5644 1118 45.0227C1117.81 45.4773 1117.71 46.0152 1117.71 46.6364C1117.71 47.2727 1117.8 47.822 1118 48.2841C1118.19 48.7462 1118.46 49.1042 1118.82 49.358C1119.17 49.6117 1119.59 49.7386 1120.07 49.7386C1120.39 49.7386 1120.69 49.6799 1120.95 49.5625C1121.21 49.4413 1121.43 49.2689 1121.61 49.0455C1121.79 48.822 1121.92 48.553 1121.99 48.2386H1123.65C1123.58 48.803 1123.4 49.3068 1123.09 49.75C1122.79 50.1932 1122.38 50.5417 1121.86 50.7955C1121.35 51.0492 1120.75 51.1761 1120.06 51.1761ZM1130.99 47.3807V42.2727H1132.7V51H1131.02V49.4886H1130.93C1130.73 49.9545 1130.41 50.3428 1129.97 50.6534C1129.53 50.9602 1128.98 51.1136 1128.33 51.1136C1127.77 51.1136 1127.27 50.9905 1126.84 50.7443C1126.41 50.4943 1126.07 50.125 1125.83 49.6364C1125.58 49.1477 1125.46 48.5436 1125.46 47.8239V42.2727H1127.16V47.6193C1127.16 48.214 1127.33 48.6875 1127.66 49.0398C1127.99 49.392 1128.41 49.5682 1128.94 49.5682C1129.26 49.5682 1129.57 49.4886 1129.89 49.3295C1130.21 49.1705 1130.47 48.9299 1130.68 48.608C1130.89 48.286 1130.99 47.8769 1130.99 47.3807ZM1134.98 51V42.2727H1136.61V43.6932H1136.72C1136.9 43.2121 1137.2 42.8371 1137.61 42.5682C1138.02 42.2955 1138.52 42.1591 1139.09 42.1591C1139.67 42.1591 1140.16 42.2955 1140.56 42.5682C1140.96 42.8409 1141.25 43.2159 1141.44 43.6932H1141.53C1141.74 43.2273 1142.07 42.8561 1142.52 42.5795C1142.98 42.2992 1143.52 42.1591 1144.15 42.1591C1144.94 42.1591 1145.59 42.4072 1146.09 42.9034C1146.59 43.3996 1146.84 44.1477 1146.84 45.1477V51H1145.14V45.3068C1145.14 44.7159 1144.98 44.2879 1144.66 44.0227C1144.34 43.7576 1143.95 43.625 1143.51 43.625C1142.95 43.625 1142.52 43.7955 1142.22 44.1364C1141.91 44.4735 1141.76 44.9072 1141.76 45.4375V51H1140.06V45.1989C1140.06 44.7254 1139.92 44.3447 1139.62 44.0568C1139.32 43.7689 1138.94 43.625 1138.47 43.625C1138.14 43.625 1137.85 43.7102 1137.57 43.8807C1137.31 44.0473 1137.09 44.2803 1136.92 44.5795C1136.76 44.8788 1136.68 45.2254 1136.68 45.6193V51H1134.98ZM1152.88 51.1761C1152.02 51.1761 1151.28 50.9924 1150.66 50.625C1150.04 50.2538 1149.56 49.733 1149.23 49.0625C1148.89 48.3883 1148.73 47.5985 1148.73 46.6932C1148.73 45.7992 1148.89 45.0114 1149.23 44.3295C1149.56 43.6477 1150.03 43.1155 1150.64 42.733C1151.24 42.3504 1151.95 42.1591 1152.76 42.1591C1153.25 42.1591 1153.73 42.2405 1154.19 42.4034C1154.65 42.5663 1155.07 42.822 1155.44 43.1705C1155.8 43.5189 1156.09 43.9716 1156.31 44.5284C1156.52 45.0814 1156.62 45.7538 1156.62 46.5455V47.1477H1149.69V45.875H1154.96C1154.96 45.428 1154.87 45.0322 1154.69 44.6875C1154.5 44.339 1154.25 44.0644 1153.92 43.8636C1153.59 43.6629 1153.21 43.5625 1152.77 43.5625C1152.29 43.5625 1151.88 43.6799 1151.52 43.9148C1151.17 44.1458 1150.9 44.4489 1150.7 44.8239C1150.51 45.1951 1150.42 45.5985 1150.42 46.0341V47.0284C1150.42 47.6117 1150.52 48.108 1150.73 48.517C1150.93 48.9261 1151.22 49.2386 1151.6 49.4545C1151.97 49.6667 1152.4 49.7727 1152.9 49.7727C1153.22 49.7727 1153.51 49.7273 1153.78 49.6364C1154.04 49.5417 1154.27 49.4015 1154.47 49.2159C1154.66 49.0303 1154.81 48.8011 1154.91 48.5284L1156.52 48.8182C1156.39 49.2917 1156.16 49.7064 1155.82 50.0625C1155.49 50.4148 1155.08 50.6894 1154.58 50.8864C1154.08 51.0795 1153.52 51.1761 1152.88 51.1761ZM1160.21 45.8182V51H1158.51V42.2727H1160.14V43.6932H1160.25C1160.45 43.2311 1160.76 42.8598 1161.19 42.5795C1161.62 42.2992 1162.17 42.1591 1162.82 42.1591C1163.42 42.1591 1163.94 42.2841 1164.38 42.5341C1164.83 42.7803 1165.18 43.1477 1165.42 43.6364C1165.67 44.125 1165.79 44.7292 1165.79 45.4489V51H1164.09V45.6534C1164.09 45.0208 1163.93 44.5265 1163.6 44.1705C1163.27 43.8106 1162.82 43.6307 1162.24 43.6307C1161.85 43.6307 1161.5 43.7159 1161.19 43.8864C1160.89 44.0568 1160.65 44.3068 1160.47 44.6364C1160.3 44.9621 1160.21 45.3561 1160.21 45.8182ZM1172.15 42.2727V43.6364H1167.38V42.2727H1172.15ZM1168.66 40.1818H1170.36V48.4375C1170.36 48.767 1170.41 49.0152 1170.5 49.1818C1170.6 49.3447 1170.73 49.4564 1170.88 49.517C1171.04 49.5739 1171.22 49.6023 1171.4 49.6023C1171.54 49.6023 1171.66 49.5928 1171.76 49.5739C1171.86 49.5549 1171.94 49.5398 1172 49.5284L1172.3 50.9318C1172.21 50.9697 1172.07 51.0076 1171.88 51.0455C1171.7 51.0871 1171.48 51.1098 1171.2 51.1136C1170.76 51.1212 1170.34 51.0417 1169.95 50.875C1169.57 50.7083 1169.25 50.4508 1169.01 50.1023C1168.78 49.7538 1168.66 49.3163 1168.66 48.7898V40.1818ZM1177.2 51.1705C1176.49 51.1705 1175.86 50.9905 1175.31 50.6307C1174.76 50.267 1174.33 49.75 1174.02 49.0795C1173.71 48.4053 1173.55 47.5966 1173.55 46.6534C1173.55 45.7102 1173.71 44.9034 1174.02 44.233C1174.34 43.5625 1174.78 43.0492 1175.33 42.6932C1175.88 42.3371 1176.51 42.1591 1177.21 42.1591C1177.75 42.1591 1178.19 42.25 1178.52 42.4318C1178.85 42.6098 1179.11 42.8182 1179.29 43.0568C1179.47 43.2955 1179.62 43.5057 1179.72 43.6875H1179.82V42.2727H1181.52V51H1179.86V49.642H1179.72C1179.62 49.8277 1179.47 50.0398 1179.28 50.2784C1179.09 50.517 1178.83 50.7254 1178.49 50.9034C1178.16 51.0814 1177.73 51.1705 1177.2 51.1705ZM1177.57 49.7216C1178.06 49.7216 1178.47 49.5928 1178.81 49.3352C1179.15 49.0739 1179.41 48.7121 1179.58 48.25C1179.76 47.7879 1179.85 47.25 1179.85 46.6364C1179.85 46.0303 1179.76 45.5 1179.59 45.0455C1179.42 44.5909 1179.16 44.2367 1178.82 43.983C1178.49 43.7292 1178.07 43.6023 1177.57 43.6023C1177.06 43.6023 1176.64 43.7348 1176.29 44C1175.95 44.2652 1175.7 44.6269 1175.52 45.0852C1175.35 45.5436 1175.27 46.0606 1175.27 46.6364C1175.27 47.2197 1175.35 47.7443 1175.53 48.2102C1175.7 48.6761 1175.96 49.0455 1176.3 49.3182C1176.65 49.5871 1177.07 49.7216 1177.57 49.7216ZM1188.02 42.2727V43.6364H1183.25V42.2727H1188.02ZM1184.53 40.1818H1186.23V48.4375C1186.23 48.767 1186.28 49.0152 1186.38 49.1818C1186.48 49.3447 1186.6 49.4564 1186.76 49.517C1186.92 49.5739 1187.09 49.6023 1187.28 49.6023C1187.41 49.6023 1187.53 49.5928 1187.63 49.5739C1187.74 49.5549 1187.82 49.5398 1187.87 49.5284L1188.18 50.9318C1188.08 50.9697 1187.94 51.0076 1187.76 51.0455C1187.58 51.0871 1187.35 51.1098 1187.08 51.1136C1186.63 51.1212 1186.21 51.0417 1185.83 50.875C1185.44 50.7083 1185.13 50.4508 1184.89 50.1023C1184.65 49.7538 1184.53 49.3163 1184.53 48.7898V40.1818ZM1189.9 51V42.2727H1191.6V51H1189.9ZM1190.76 40.9261C1190.46 40.9261 1190.21 40.8277 1190 40.6307C1189.79 40.4299 1189.68 40.1913 1189.68 39.9148C1189.68 39.6345 1189.79 39.3958 1190 39.1989C1190.21 38.9981 1190.46 38.8977 1190.76 38.8977C1191.05 38.8977 1191.31 38.9981 1191.51 39.1989C1191.73 39.3958 1191.83 39.6345 1191.83 39.9148C1191.83 40.1913 1191.73 40.4299 1191.51 40.6307C1191.31 40.8277 1191.05 40.9261 1190.76 40.9261ZM1197.56 51.1761C1196.74 51.1761 1196.03 50.9886 1195.42 50.6136C1194.81 50.2386 1194.33 49.714 1194 49.0398C1193.66 48.3655 1193.49 47.5777 1193.49 46.6761C1193.49 45.7708 1193.66 44.9792 1194 44.3011C1194.33 43.6231 1194.81 43.0966 1195.42 42.7216C1196.03 42.3466 1196.74 42.1591 1197.56 42.1591C1198.38 42.1591 1199.09 42.3466 1199.7 42.7216C1200.31 43.0966 1200.79 43.6231 1201.12 44.3011C1201.46 44.9792 1201.63 45.7708 1201.63 46.6761C1201.63 47.5777 1201.46 48.3655 1201.12 49.0398C1200.79 49.714 1200.31 50.2386 1199.7 50.6136C1199.09 50.9886 1198.38 51.1761 1197.56 51.1761ZM1197.57 49.75C1198.1 49.75 1198.54 49.6098 1198.88 49.3295C1199.23 49.0492 1199.49 48.6761 1199.66 48.2102C1199.83 47.7443 1199.91 47.2311 1199.91 46.6705C1199.91 46.1136 1199.83 45.6023 1199.66 45.1364C1199.49 44.6667 1199.23 44.2898 1198.88 44.0057C1198.54 43.7216 1198.1 43.5795 1197.57 43.5795C1197.03 43.5795 1196.59 43.7216 1196.24 44.0057C1195.89 44.2898 1195.63 44.6667 1195.46 45.1364C1195.29 45.6023 1195.21 46.1136 1195.21 46.6705C1195.21 47.2311 1195.29 47.7443 1195.46 48.2102C1195.63 48.6761 1195.89 49.0492 1196.24 49.3295C1196.59 49.6098 1197.03 49.75 1197.57 49.75ZM1205.22 45.8182V51H1203.52V42.2727H1205.16V43.6932H1205.26C1205.46 43.2311 1205.78 42.8598 1206.21 42.5795C1206.64 42.2992 1207.18 42.1591 1207.84 42.1591C1208.43 42.1591 1208.95 42.2841 1209.4 42.5341C1209.85 42.7803 1210.19 43.1477 1210.44 43.6364C1210.69 44.125 1210.81 44.7292 1210.81 45.4489V51H1209.11V45.6534C1209.11 45.0208 1208.95 44.5265 1208.62 44.1705C1208.29 43.8106 1207.83 43.6307 1207.26 43.6307C1206.86 43.6307 1206.51 43.7159 1206.21 43.8864C1205.9 44.0568 1205.66 44.3068 1205.49 44.6364C1205.31 44.9621 1205.22 45.3561 1205.22 45.8182Z" fill="white"/>
<path d="M1238.6 51H1236.73L1240.92 39.3636H1242.95L1247.14 51H1245.27L1241.98 41.4773H1241.89L1238.6 51ZM1238.91 46.4432H1244.96V47.9205H1238.91V46.4432ZM1248.82 51V39.3636H1250.52V43.6875H1250.62C1250.72 43.5057 1250.86 43.2955 1251.04 43.0568C1251.23 42.8182 1251.49 42.6098 1251.82 42.4318C1252.15 42.25 1252.58 42.1591 1253.12 42.1591C1253.83 42.1591 1254.46 42.3371 1255.01 42.6932C1255.56 43.0492 1256 43.5625 1256.31 44.233C1256.63 44.9034 1256.79 45.7102 1256.79 46.6534C1256.79 47.5966 1256.63 48.4053 1256.32 49.0795C1256 49.75 1255.57 50.267 1255.02 50.6307C1254.47 50.9905 1253.85 51.1705 1253.14 51.1705C1252.61 51.1705 1252.18 51.0814 1251.84 50.9034C1251.51 50.7254 1251.25 50.517 1251.06 50.2784C1250.87 50.0398 1250.72 49.8277 1250.62 49.642H1250.48V51H1248.82ZM1250.48 46.6364C1250.48 47.25 1250.57 47.7879 1250.75 48.25C1250.93 48.7121 1251.18 49.0739 1251.52 49.3352C1251.86 49.5928 1252.27 49.7216 1252.76 49.7216C1253.27 49.7216 1253.69 49.5871 1254.03 49.3182C1254.37 49.0455 1254.63 48.6761 1254.81 48.2102C1254.98 47.7443 1255.07 47.2197 1255.07 46.6364C1255.07 46.0606 1254.99 45.5436 1254.81 45.0852C1254.64 44.6269 1254.38 44.2652 1254.04 44C1253.7 43.7348 1253.27 43.6023 1252.76 43.6023C1252.27 43.6023 1251.85 43.7292 1251.51 43.983C1251.17 44.2367 1250.92 44.5909 1250.74 45.0455C1250.57 45.5 1250.48 46.0303 1250.48 46.6364ZM1262.37 51.1761C1261.55 51.1761 1260.84 50.9886 1260.23 50.6136C1259.62 50.2386 1259.15 49.714 1258.81 49.0398C1258.47 48.3655 1258.3 47.5777 1258.3 46.6761C1258.3 45.7708 1258.47 44.9792 1258.81 44.3011C1259.15 43.6231 1259.62 43.0966 1260.23 42.7216C1260.84 42.3466 1261.55 42.1591 1262.37 42.1591C1263.19 42.1591 1263.91 42.3466 1264.51 42.7216C1265.12 43.0966 1265.6 43.6231 1265.94 44.3011C1266.27 44.9792 1266.44 45.7708 1266.44 46.6761C1266.44 47.5777 1266.27 48.3655 1265.94 49.0398C1265.6 49.714 1265.12 50.2386 1264.51 50.6136C1263.91 50.9886 1263.19 51.1761 1262.37 51.1761ZM1262.38 49.75C1262.91 49.75 1263.35 49.6098 1263.7 49.3295C1264.05 49.0492 1264.3 48.6761 1264.47 48.2102C1264.64 47.7443 1264.73 47.2311 1264.73 46.6705C1264.73 46.1136 1264.64 45.6023 1264.47 45.1364C1264.3 44.6667 1264.05 44.2898 1263.7 44.0057C1263.35 43.7216 1262.91 43.5795 1262.38 43.5795C1261.84 43.5795 1261.4 43.7216 1261.05 44.0057C1260.7 44.2898 1260.44 44.6667 1260.27 45.1364C1260.1 45.6023 1260.02 46.1136 1260.02 46.6705C1260.02 47.2311 1260.1 47.7443 1260.27 48.2102C1260.44 48.6761 1260.7 49.0492 1261.05 49.3295C1261.4 49.6098 1261.84 49.75 1262.38 49.75ZM1273.87 47.3807V42.2727H1275.57V51H1273.9V49.4886H1273.81C1273.61 49.9545 1273.29 50.3428 1272.84 50.6534C1272.4 50.9602 1271.86 51.1136 1271.2 51.1136C1270.64 51.1136 1270.14 50.9905 1269.71 50.7443C1269.28 50.4943 1268.95 50.125 1268.7 49.6364C1268.46 49.1477 1268.34 48.5436 1268.34 47.8239V42.2727H1270.04V47.6193C1270.04 48.214 1270.2 48.6875 1270.53 49.0398C1270.86 49.392 1271.29 49.5682 1271.81 49.5682C1272.13 49.5682 1272.45 49.4886 1272.76 49.3295C1273.08 49.1705 1273.34 48.9299 1273.55 48.608C1273.77 48.286 1273.87 47.8769 1273.87 47.3807ZM1281.93 42.2727V43.6364H1277.16V42.2727H1281.93ZM1278.44 40.1818H1280.14V48.4375C1280.14 48.767 1280.19 49.0152 1280.28 49.1818C1280.38 49.3447 1280.51 49.4564 1280.67 49.517C1280.82 49.5739 1281 49.6023 1281.18 49.6023C1281.32 49.6023 1281.44 49.5928 1281.54 49.5739C1281.64 49.5549 1281.72 49.5398 1281.78 49.5284L1282.09 50.9318C1281.99 50.9697 1281.85 51.0076 1281.67 51.0455C1281.48 51.0871 1281.26 51.1098 1280.98 51.1136C1280.54 51.1212 1280.12 51.0417 1279.73 50.875C1279.35 50.7083 1279.03 50.4508 1278.8 50.1023C1278.56 49.7538 1278.44 49.3163 1278.44 48.7898V40.1818Z" fill="white"/>
<rect x="1323" y="23" width="1" height="44" fill="#D1D5DB"/>
<g filter="url(#filter0_d_2_2)">
<rect x="1364" y="25" width="83" height="40" rx="6" fill="white"/>
<rect x="1364.5" y="25.5" width="82" height="39" rx="5.5" stroke="#D1D5DB"/>
<path d="M1385.73 51V39.3636H1387.49V49.4886H1392.76V51H1385.73ZM1398.3 51.1761C1397.48 51.1761 1396.77 50.9886 1396.16 50.6136C1395.55 50.2386 1395.08 49.714 1394.74 49.0398C1394.4 48.3655 1394.23 47.5777 1394.23 46.6761C1394.23 45.7708 1394.4 44.9792 1394.74 44.3011C1395.08 43.6231 1395.55 43.0966 1396.16 42.7216C1396.77 42.3466 1397.48 42.1591 1398.3 42.1591C1399.12 42.1591 1399.83 42.3466 1400.44 42.7216C1401.05 43.0966 1401.53 43.6231 1401.87 44.3011C1402.2 44.9792 1402.37 45.7708 1402.37 46.6761C1402.37 47.5777 1402.2 48.3655 1401.87 49.0398C1401.53 49.714 1401.05 50.2386 1400.44 50.6136C1399.83 50.9886 1399.12 51.1761 1398.3 51.1761ZM1398.31 49.75C1398.84 49.75 1399.28 49.6098 1399.63 49.3295C1399.97 49.0492 1400.23 48.6761 1400.4 48.2102C1400.57 47.7443 1400.65 47.2311 1400.65 46.6705C1400.65 46.1136 1400.57 45.6023 1400.4 45.1364C1400.23 44.6667 1399.97 44.2898 1399.63 44.0057C1399.28 43.7216 1398.84 43.5795 1398.31 43.5795C1397.77 43.5795 1397.33 43.7216 1396.98 44.0057C1396.63 44.2898 1396.37 44.6667 1396.2 45.1364C1396.03 45.6023 1395.95 46.1136 1395.95 46.6705C1395.95 47.2311 1396.03 47.7443 1396.2 48.2102C1396.37 48.6761 1396.63 49.0492 1396.98 49.3295C1397.33 49.6098 1397.77 49.75 1398.31 49.75ZM1407.93 54.4545C1407.23 54.4545 1406.64 54.3636 1406.14 54.1818C1405.64 54 1405.23 53.7595 1404.92 53.4602C1404.61 53.161 1404.37 52.8333 1404.22 52.4773L1405.68 51.875C1405.78 52.0417 1405.91 52.2178 1406.09 52.4034C1406.26 52.5928 1406.49 52.7538 1406.79 52.8864C1407.09 53.0189 1407.47 53.0852 1407.94 53.0852C1408.59 53.0852 1409.12 52.928 1409.54 52.6136C1409.96 52.303 1410.17 51.8068 1410.17 51.125V49.4091H1410.06C1409.96 49.5947 1409.81 49.8011 1409.62 50.0284C1409.43 50.2557 1409.17 50.4527 1408.84 50.6193C1408.5 50.786 1408.07 50.8693 1407.53 50.8693C1406.84 50.8693 1406.22 50.7083 1405.67 50.3864C1405.12 50.0606 1404.69 49.5814 1404.36 48.9489C1404.05 48.3125 1403.89 47.5303 1403.89 46.6023C1403.89 45.6742 1404.04 44.8788 1404.36 44.2159C1404.68 43.553 1405.11 43.0455 1405.66 42.6932C1406.22 42.3371 1406.84 42.1591 1407.55 42.1591C1408.09 42.1591 1408.52 42.25 1408.86 42.4318C1409.19 42.6098 1409.45 42.8182 1409.64 43.0568C1409.83 43.2955 1409.97 43.5057 1410.07 43.6875H1410.2V42.2727H1411.86V51.1932C1411.86 51.9432 1411.69 52.5587 1411.34 53.0398C1410.99 53.5208 1410.52 53.8769 1409.93 54.108C1409.34 54.339 1408.67 54.4545 1407.93 54.4545ZM1407.91 49.4602C1408.4 49.4602 1408.81 49.3466 1409.15 49.1193C1409.49 48.8883 1409.75 48.5587 1409.92 48.1307C1410.1 47.6989 1410.19 47.1818 1410.19 46.5795C1410.19 45.9924 1410.1 45.4754 1409.93 45.0284C1409.75 44.5814 1409.5 44.233 1409.16 43.983C1408.82 43.7292 1408.41 43.6023 1407.91 43.6023C1407.4 43.6023 1406.97 43.7348 1406.63 44C1406.29 44.2614 1406.03 44.6174 1405.86 45.0682C1405.69 45.5189 1405.6 46.0227 1405.6 46.5795C1405.6 47.1515 1405.69 47.6534 1405.86 48.0852C1406.04 48.517 1406.3 48.8542 1406.64 49.0966C1406.98 49.339 1407.41 49.4602 1407.91 49.4602ZM1414.14 51V42.2727H1415.84V51H1414.14ZM1415 40.9261C1414.7 40.9261 1414.45 40.8277 1414.24 40.6307C1414.03 40.4299 1413.93 40.1913 1413.93 39.9148C1413.93 39.6345 1414.03 39.3958 1414.24 39.1989C1414.45 38.9981 1414.7 38.8977 1415 38.8977C1415.3 38.8977 1415.55 38.9981 1415.76 39.1989C1415.97 39.3958 1416.07 39.6345 1416.07 39.9148C1416.07 40.1913 1415.97 40.4299 1415.76 40.6307C1415.55 40.8277 1415.3 40.9261 1415 40.9261ZM1419.83 45.8182V51H1418.13V42.2727H1419.76V43.6932H1419.87C1420.07 43.2311 1420.38 42.8598 1420.81 42.5795C1421.24 42.2992 1421.78 42.1591 1422.44 42.1591C1423.03 42.1591 1423.55 42.2841 1424 42.5341C1424.45 42.7803 1424.79 43.1477 1425.04 43.6364C1425.29 44.125 1425.41 44.7292 1425.41 45.4489V51H1423.71V45.6534C1423.71 45.0208 1423.55 44.5265 1423.22 44.1705C1422.89 43.8106 1422.44 43.6307 1421.86 43.6307C1421.47 43.6307 1421.12 43.7159 1420.81 43.8864C1420.51 44.0568 1420.26 44.3068 1420.09 44.6364C1419.91 44.9621 1419.83 45.3561 1419.83 45.8182Z" fill="#374151"/>
</g>
<rect x="1459" y="25" width="98" height="40" rx="6" fill="#92E3A9"/>
<path d="M1486.95 42.4205C1486.89 41.8826 1486.64 41.4659 1486.2 41.1705C1485.76 40.8712 1485.21 40.7216 1484.54 40.7216C1484.07 40.7216 1483.65 40.7973 1483.31 40.9489C1482.96 41.0966 1482.69 41.3011 1482.49 41.5625C1482.3 41.8201 1482.21 42.1136 1482.21 42.4432C1482.21 42.7197 1482.27 42.9583 1482.4 43.1591C1482.53 43.3598 1482.71 43.5284 1482.92 43.6648C1483.13 43.7973 1483.37 43.9091 1483.61 44C1483.86 44.0871 1484.1 44.1591 1484.32 44.2159L1485.46 44.5114C1485.83 44.6023 1486.21 44.7254 1486.6 44.8807C1486.99 45.036 1487.35 45.2405 1487.69 45.4943C1488.02 45.7481 1488.29 46.0625 1488.49 46.4375C1488.7 46.8125 1488.81 47.2614 1488.81 47.7841C1488.81 48.4432 1488.63 49.0284 1488.29 49.5398C1487.96 50.0511 1487.47 50.4545 1486.82 50.75C1486.18 51.0455 1485.41 51.1932 1484.5 51.1932C1483.63 51.1932 1482.87 51.0549 1482.24 50.7784C1481.6 50.5019 1481.1 50.1098 1480.74 49.6023C1480.38 49.0909 1480.18 48.4848 1480.15 47.7841H1481.91C1481.94 48.2045 1482.08 48.5549 1482.32 48.8352C1482.56 49.1117 1482.87 49.3182 1483.24 49.4545C1483.62 49.5871 1484.04 49.6534 1484.49 49.6534C1484.98 49.6534 1485.42 49.5758 1485.81 49.4205C1486.2 49.2614 1486.51 49.0417 1486.73 48.7614C1486.96 48.4773 1487.07 48.1458 1487.07 47.767C1487.07 47.4223 1486.97 47.1402 1486.77 46.9205C1486.58 46.7008 1486.31 46.5189 1485.98 46.375C1485.65 46.2311 1485.28 46.1042 1484.86 45.9943L1483.49 45.6193C1482.56 45.3655 1481.82 44.9924 1481.27 44.5C1480.73 44.0076 1480.46 43.3561 1480.46 42.5455C1480.46 41.875 1480.64 41.2898 1481 40.7898C1481.37 40.2898 1481.86 39.9015 1482.48 39.625C1483.1 39.3447 1483.8 39.2045 1484.58 39.2045C1485.37 39.2045 1486.07 39.3428 1486.67 39.6193C1487.28 39.8958 1487.75 40.2765 1488.1 40.7614C1488.45 41.2424 1488.63 41.7955 1488.65 42.4205H1486.95ZM1490.77 51V42.2727H1492.47V51H1490.77ZM1491.62 40.9261C1491.33 40.9261 1491.08 40.8277 1490.86 40.6307C1490.66 40.4299 1490.55 40.1913 1490.55 39.9148C1490.55 39.6345 1490.66 39.3958 1490.86 39.1989C1491.08 38.9981 1491.33 38.8977 1491.62 38.8977C1491.92 38.8977 1492.17 38.9981 1492.38 39.1989C1492.59 39.3958 1492.7 39.6345 1492.7 39.9148C1492.7 40.1913 1492.59 40.4299 1492.38 40.6307C1492.17 40.8277 1491.92 40.9261 1491.62 40.9261ZM1498.41 54.4545C1497.72 54.4545 1497.12 54.3636 1496.62 54.1818C1496.12 54 1495.72 53.7595 1495.4 53.4602C1495.09 53.161 1494.86 52.8333 1494.7 52.4773L1496.16 51.875C1496.26 52.0417 1496.4 52.2178 1496.57 52.4034C1496.74 52.5928 1496.98 52.7538 1497.27 52.8864C1497.57 53.0189 1497.96 53.0852 1498.43 53.0852C1499.07 53.0852 1499.6 52.928 1500.02 52.6136C1500.44 52.303 1500.65 51.8068 1500.65 51.125V49.4091H1500.55C1500.44 49.5947 1500.3 49.8011 1500.1 50.0284C1499.91 50.2557 1499.65 50.4527 1499.32 50.6193C1498.99 50.786 1498.55 50.8693 1498.02 50.8693C1497.33 50.8693 1496.71 50.7083 1496.15 50.3864C1495.61 50.0606 1495.17 49.5814 1494.85 48.9489C1494.53 48.3125 1494.37 47.5303 1494.37 46.6023C1494.37 45.6742 1494.53 44.8788 1494.84 44.2159C1495.16 43.553 1495.6 43.0455 1496.15 42.6932C1496.7 42.3371 1497.33 42.1591 1498.03 42.1591C1498.57 42.1591 1499.01 42.25 1499.34 42.4318C1499.68 42.6098 1499.94 42.8182 1500.12 43.0568C1500.31 43.2955 1500.46 43.5057 1500.56 43.6875H1500.68V42.2727H1502.35V51.1932C1502.35 51.9432 1502.17 52.5587 1501.83 53.0398C1501.48 53.5208 1501.01 53.8769 1500.41 54.108C1499.82 54.339 1499.15 54.4545 1498.41 54.4545ZM1498.39 49.4602C1498.88 49.4602 1499.29 49.3466 1499.63 49.1193C1499.97 48.8883 1500.23 48.5587 1500.4 48.1307C1500.58 47.6989 1500.67 47.1818 1500.67 46.5795C1500.67 45.9924 1500.58 45.4754 1500.41 45.0284C1500.24 44.5814 1499.98 44.233 1499.64 43.983C1499.31 43.7292 1498.89 43.6023 1498.39 43.6023C1497.88 43.6023 1497.46 43.7348 1497.12 44C1496.77 44.2614 1496.52 44.6174 1496.34 45.0682C1496.17 45.5189 1496.09 46.0227 1496.09 46.5795C1496.09 47.1515 1496.17 47.6534 1496.35 48.0852C1496.52 48.517 1496.78 48.8542 1497.12 49.0966C1497.47 49.339 1497.89 49.4602 1498.39 49.4602ZM1506.33 45.8182V51H1504.63V42.2727H1506.26V43.6932H1506.37C1506.57 43.2311 1506.88 42.8598 1507.31 42.5795C1507.74 42.2992 1508.28 42.1591 1508.94 42.1591C1509.53 42.1591 1510.05 42.2841 1510.5 42.5341C1510.95 42.7803 1511.29 43.1477 1511.54 43.6364C1511.79 44.125 1511.91 44.7292 1511.91 45.4489V51H1510.21V45.6534C1510.21 45.0208 1510.05 44.5265 1509.72 44.1705C1509.39 43.8106 1508.94 43.6307 1508.36 43.6307C1507.97 43.6307 1507.62 43.7159 1507.31 43.8864C1507.01 44.0568 1506.76 44.3068 1506.59 44.6364C1506.41 44.9621 1506.33 45.3561 1506.33 45.8182ZM1523.95 47.3807V42.2727H1525.66V51H1523.99V49.4886H1523.89C1523.69 49.9545 1523.37 50.3428 1522.93 50.6534C1522.49 50.9602 1521.94 51.1136 1521.29 51.1136C1520.73 51.1136 1520.23 50.9905 1519.8 50.7443C1519.37 50.4943 1519.03 50.125 1518.79 49.6364C1518.54 49.1477 1518.42 48.5436 1518.42 47.8239V42.2727H1520.12V47.6193C1520.12 48.214 1520.29 48.6875 1520.62 49.0398C1520.95 49.392 1521.37 49.5682 1521.9 49.5682C1522.22 49.5682 1522.54 49.4886 1522.85 49.3295C1523.17 49.1705 1523.43 48.9299 1523.64 48.608C1523.85 48.286 1523.96 47.8769 1523.95 47.3807ZM1527.94 54.2727V42.2727H1529.6V43.6875H1529.74C1529.84 43.5057 1529.98 43.2955 1530.17 43.0568C1530.35 42.8182 1530.61 42.6098 1530.94 42.4318C1531.27 42.25 1531.7 42.1591 1532.25 42.1591C1532.95 42.1591 1533.58 42.3371 1534.13 42.6932C1534.69 43.0492 1535.12 43.5625 1535.43 44.233C1535.75 44.9034 1535.91 45.7102 1535.91 46.6534C1535.91 47.5966 1535.75 48.4053 1535.44 49.0795C1535.12 49.75 1534.69 50.267 1534.14 50.6307C1533.59 50.9905 1532.97 51.1705 1532.26 51.1705C1531.73 51.1705 1531.3 51.0814 1530.96 50.9034C1530.63 50.7254 1530.37 50.517 1530.18 50.2784C1529.99 50.0398 1529.84 49.8277 1529.74 49.642H1529.64V54.2727H1527.94ZM1529.6 46.6364C1529.6 47.25 1529.69 47.7879 1529.87 48.25C1530.05 48.7121 1530.31 49.0739 1530.64 49.3352C1530.98 49.5928 1531.39 49.7216 1531.88 49.7216C1532.39 49.7216 1532.81 49.5871 1533.15 49.3182C1533.5 49.0455 1533.75 48.6761 1533.93 48.2102C1534.11 47.7443 1534.19 47.2197 1534.19 46.6364C1534.19 46.0606 1534.11 45.5436 1533.93 45.0852C1533.76 44.6269 1533.51 44.2652 1533.16 44C1532.82 43.7348 1532.39 43.6023 1531.88 43.6023C1531.39 43.6023 1530.97 43.7292 1530.63 43.983C1530.29 44.2367 1530.04 44.5909 1529.87 45.0455C1529.69 45.5 1529.6 46.0303 1529.6 46.6364Z" fill="white"/>
<path d="M97.52 324.24V336.048H127.376C125.072 347.568 116.336 355.344 104.144 355.344C90.032 355.344 79.088 344.208 79.088 329.616C79.088 315.12 89.744 303.888 103.376 303.888C112.208 303.888 121.136 307.536 126.224 318.288L137.936 314.16C132.848 299.376 118.64 291.6 103.376 291.6C82.352 291.6 65.84 308.304 65.84 329.616C65.84 350.928 82.448 367.536 103.76 367.536C125.072 367.536 140.144 351.216 140.144 329.808C140.144 328.272 140.048 326.448 139.856 324.24H97.52ZM173.122 316.656C158.722 316.656 146.818 327.024 146.818 342.096C146.818 357.168 158.722 367.44 173.122 367.44C187.33 367.44 199.234 357.168 199.234 342.096C199.234 327.024 187.33 316.656 173.122 316.656ZM173.122 356.4C165.634 356.4 159.106 351.024 159.106 342.096C159.106 333.168 165.634 327.792 173.122 327.792C180.418 327.792 186.946 333.168 186.946 342.096C186.946 351.024 180.418 356.4 173.122 356.4ZM294.812 293.04H281.756V323.472H245.276V293.04H232.22V366H245.276V335.28H281.756V366H294.812V293.04ZM330.715 316.656C316.315 316.656 304.411 327.024 304.411 342.096C304.411 357.168 316.315 367.44 330.715 367.44C344.923 367.44 356.827 357.168 356.827 342.096C356.827 327.024 344.923 316.656 330.715 316.656ZM330.715 356.4C323.227 356.4 316.699 351.024 316.699 342.096C316.699 333.168 323.227 327.792 330.715 327.792C338.011 327.792 344.539 333.168 344.539 342.096C344.539 351.024 338.011 356.4 330.715 356.4ZM426.662 316.656C418.982 316.656 413.126 319.632 409.19 324.528C405.734 319.44 399.878 316.656 393.446 316.656C387.206 316.656 382.502 318.672 379.142 322.032V318.096H366.47V366H379.142V342.96C379.142 332.88 383.366 328.272 390.086 328.272C395.366 328.272 399.494 332.208 399.494 338.64V366H412.166V342.96C412.166 332.88 416.582 328.272 423.302 328.272C428.582 328.272 432.71 332.208 432.71 338.64V366H445.286V336.048C445.286 324.336 436.646 316.656 426.662 316.656ZM502.717 341.136C502.237 326.544 491.197 316.656 478.429 316.656C464.701 316.656 453.661 327.024 453.661 342.096C453.661 357.168 464.701 367.44 478.237 367.44C488.701 367.44 497.245 362.64 501.469 352.656L490.141 350.256C486.685 356.112 481.981 356.592 478.237 356.592C472.381 356.592 467.485 352.368 466.237 345.456H502.717V341.136ZM478.429 327.696C483.517 327.696 488.125 330.384 489.757 336.528H466.621C468.157 330.576 473.629 327.696 478.429 327.696ZM539.433 378.672L550.281 353.232V352.944H535.689L529.929 378.672H539.433ZM105.776 472.576L136.016 423.04H121.04L99.248 459.136L77.36 423.04H62.96L92.72 472.768V496H105.776V472.576ZM154.653 446.656C140.253 446.656 128.349 457.024 128.349 472.096C128.349 487.168 140.253 497.44 154.653 497.44C168.861 497.44 180.765 487.168 180.765 472.096C180.765 457.024 168.861 446.656 154.653 446.656ZM154.653 486.4C147.165 486.4 140.637 481.024 140.637 472.096C140.637 463.168 147.165 457.792 154.653 457.792C161.949 457.792 168.477 463.168 168.477 472.096C168.477 481.024 161.949 486.4 154.653 486.4ZM236.104 448.096H223.432V469.312C223.432 481.024 218.728 485.824 211.528 485.824C205.672 485.824 201.832 481.312 201.832 474.592V448.096H189.16V477.28C189.16 489.184 196.84 497.44 208.359 497.44C214.696 497.44 219.688 495.424 223.432 491.68V496H236.104V448.096ZM255.708 448.768L266.556 423.328V423.04H251.964L246.204 448.768H255.708ZM305.576 447.424C297.512 447.424 291.944 450.88 288.392 456.448V448.096H275.72V496H288.392V480.544C288.392 467.2 293.768 460 305.48 460H308.264L308.936 447.808C307.784 447.424 306.824 447.424 305.576 447.424ZM361.624 471.136C361.144 456.544 350.104 446.656 337.336 446.656C323.608 446.656 312.568 457.024 312.568 472.096C312.568 487.168 323.608 497.44 337.144 497.44C347.608 497.44 356.152 492.64 360.375 482.656L349.048 480.256C345.592 486.112 340.888 486.592 337.144 486.592C331.288 486.592 326.392 482.368 325.144 475.456H361.624V471.136ZM337.336 457.696C342.424 457.696 347.032 460.384 348.664 466.528H325.528C327.064 460.576 332.536 457.696 337.336 457.696ZM394.595 423.04V496H424.355C447.683 496 463.235 481.408 463.235 459.52C463.235 437.632 447.683 423.04 424.355 423.04H394.595ZM407.651 484.192V434.848H425.219C440.099 434.848 450.083 444.736 450.083 459.52C450.083 474.304 440.099 484.192 425.219 484.192H407.651ZM503.67 447.424C495.606 447.424 490.038 450.88 486.486 456.448V448.096H473.814V496H486.486V480.544C486.486 467.2 491.862 460 503.574 460H506.358L507.03 447.808C505.878 447.424 504.918 447.424 503.67 447.424ZM560.666 448.096H547.994V469.312C547.994 481.024 543.29 485.824 536.09 485.824C530.234 485.824 526.394 481.312 526.394 474.592V448.096H513.722V477.28C513.722 489.184 521.402 497.44 532.922 497.44C539.258 497.44 544.25 495.424 547.994 491.68V496H560.666V448.096ZM601.87 446.656C595.534 446.656 590.542 448.672 586.798 452.416V448.096H574.126V496H586.798V474.784C586.798 463.072 591.502 458.272 598.702 458.272C604.558 458.272 608.398 462.784 608.398 469.504V496H621.07V466.816C621.07 454.912 613.39 446.656 601.87 446.656ZM665.155 496H682.435L657.475 472L680.611 448.096H664.579L645.955 466.912V419.2H633.283V496H645.955V477.856L665.155 496ZM703.27 423.04H689.35V426.4L689.83 472H702.79L703.27 426.4V423.04ZM696.262 481.696C691.846 481.696 688.678 485.152 688.678 489.088C688.678 493.216 691.846 496.384 696.262 496.384C700.678 496.384 703.846 493.216 703.846 489.088C703.846 485.152 700.678 481.696 696.262 481.696Z" fill="white"/>
<rect x="62" y="622" width="368" height="100" rx="50" fill="#92E3A9"/>
<path d="M140.304 671.576C141.499 671.789 142.512 672.419 143.344 673.464C144.176 674.509 144.592 675.693 144.592 677.016C144.592 678.147 144.293 679.171 143.696 680.088C143.12 680.984 142.277 681.699 141.168 682.232C140.059 682.744 138.768 683 137.296 683H128.4V660.76H136.88C138.395 660.76 139.696 661.016 140.784 661.528C141.872 662.04 142.693 662.733 143.248 663.608C143.803 664.461 144.08 665.421 144.08 666.488C144.08 667.768 143.739 668.835 143.056 669.688C142.373 670.541 141.456 671.171 140.304 671.576ZM132.048 670.104H136.56C137.755 670.104 138.683 669.837 139.344 669.304C140.027 668.749 140.368 667.96 140.368 666.936C140.368 665.933 140.027 665.155 139.344 664.6C138.683 664.024 137.755 663.736 136.56 663.736H132.048V670.104ZM136.976 680.024C138.213 680.024 139.184 679.725 139.888 679.128C140.592 678.531 140.944 677.699 140.944 676.632C140.944 675.544 140.571 674.68 139.824 674.04C139.077 673.4 138.085 673.08 136.848 673.08H132.048V680.024H136.976ZM161.964 678.456H152.652L151.052 683H147.244L155.212 660.728H159.436L167.404 683H163.564L161.964 678.456ZM160.94 675.48L157.324 665.144L153.676 675.48H160.94ZM169.653 671.832C169.653 669.656 170.154 667.704 171.157 665.976C172.181 664.248 173.557 662.904 175.285 661.944C177.034 660.963 178.943 660.472 181.013 660.472C183.381 660.472 185.482 661.059 187.317 662.232C189.173 663.384 190.517 665.027 191.349 667.16H186.965C186.389 665.987 185.589 665.112 184.565 664.536C183.541 663.96 182.357 663.672 181.013 663.672C179.541 663.672 178.229 664.003 177.077 664.664C175.925 665.325 175.018 666.275 174.357 667.512C173.717 668.749 173.397 670.189 173.397 671.832C173.397 673.475 173.717 674.915 174.357 676.152C175.018 677.389 175.925 678.349 177.077 679.032C178.229 679.693 179.541 680.024 181.013 680.024C182.357 680.024 183.541 679.736 184.565 679.16C185.589 678.584 186.389 677.709 186.965 676.536H191.349C190.517 678.669 189.173 680.312 187.317 681.464C185.482 682.616 183.381 683.192 181.013 683.192C178.922 683.192 177.013 682.712 175.285 681.752C173.557 680.771 172.181 679.416 171.157 677.688C170.154 675.96 169.653 674.008 169.653 671.832ZM207.875 683L199.267 673.048V683H195.619V660.76H199.267V670.904L207.907 660.76H212.483L202.819 671.896L212.643 683H207.875ZM238.549 660.76V663.736H232.629V683H228.981V663.736H223.029V660.76H238.549ZM252.388 683.224C250.318 683.224 248.409 682.744 246.66 681.784C244.932 680.803 243.556 679.448 242.532 677.72C241.529 675.971 241.028 674.008 241.028 671.832C241.028 669.656 241.529 667.704 242.532 665.976C243.556 664.248 244.932 662.904 246.66 661.944C248.409 660.963 250.318 660.472 252.388 660.472C254.478 660.472 256.388 660.963 258.116 661.944C259.865 662.904 261.241 664.248 262.244 665.976C263.246 667.704 263.748 669.656 263.748 671.832C263.748 674.008 263.246 675.971 262.244 677.72C261.241 679.448 259.865 680.803 258.116 681.784C256.388 682.744 254.478 683.224 252.388 683.224ZM252.388 680.056C253.86 680.056 255.172 679.725 256.324 679.064C257.476 678.381 258.372 677.421 259.012 676.184C259.673 674.925 260.004 673.475 260.004 671.832C260.004 670.189 259.673 668.749 259.012 667.512C258.372 666.275 257.476 665.325 256.324 664.664C255.172 664.003 253.86 663.672 252.388 663.672C250.916 663.672 249.604 664.003 248.452 664.664C247.3 665.325 246.393 666.275 245.732 667.512C245.092 668.749 244.772 670.189 244.772 671.832C244.772 673.475 245.092 674.925 245.732 676.184C246.393 677.421 247.3 678.381 248.452 679.064C249.604 679.725 250.916 680.056 252.388 680.056ZM293.41 660.76V683H289.762V673.272H279.298V683H275.65V660.76H279.298V670.296H289.762V660.76H293.41ZM308.357 683.224C306.287 683.224 304.378 682.744 302.629 681.784C300.901 680.803 299.525 679.448 298.501 677.72C297.498 675.971 296.997 674.008 296.997 671.832C296.997 669.656 297.498 667.704 298.501 665.976C299.525 664.248 300.901 662.904 302.629 661.944C304.378 660.963 306.287 660.472 308.357 660.472C310.447 660.472 312.357 660.963 314.085 661.944C315.834 662.904 317.21 664.248 318.213 665.976C319.215 667.704 319.717 669.656 319.717 671.832C319.717 674.008 319.215 675.971 318.213 677.72C317.21 679.448 315.834 680.803 314.085 681.784C312.357 682.744 310.447 683.224 308.357 683.224ZM308.357 680.056C309.829 680.056 311.141 679.725 312.293 679.064C313.445 678.381 314.341 677.421 314.981 676.184C315.642 674.925 315.973 673.475 315.973 671.832C315.973 670.189 315.642 668.749 314.981 667.512C314.341 666.275 313.445 665.325 312.293 664.664C311.141 664.003 309.829 663.672 308.357 663.672C306.885 663.672 305.573 664.003 304.421 664.664C303.269 665.325 302.362 666.275 301.701 667.512C301.061 668.749 300.741 670.189 300.741 671.832C300.741 673.475 301.061 674.925 301.701 676.184C302.362 677.421 303.269 678.381 304.421 679.064C305.573 679.725 306.885 680.056 308.357 680.056ZM346.73 660.76V683H343.082V667.768L336.298 683H333.77L326.954 667.768V683H323.306V660.76H327.242L335.05 678.2L342.826 660.76H346.73ZM355.173 663.704V670.232H362.853V673.208H355.173V680.024H363.813V683H351.525V660.728H363.813V663.704H355.173Z" fill="white"/>
</g>
<defs>
<filter id="filter0_d_2_2" x="1362" y="24" width="87" height="44" filterUnits="userSpaceOnUse" color-interpolation-filters="sRGB">
<feFlood flood-opacity="0" result="BackgroundImageFix"/>
<feColorMatrix in="SourceAlpha" type="matrix" values="0 0 0 0 0 0 0 0 0 0 0 0 0 0 0 0 0 0 127 0" result="hardAlpha"/>
<feOffset dy="1"/>
<feGaussianBlur stdDeviation="1"/>
<feColorMatrix type="matrix" values="0 0 0 0 0.0627451 0 0 0 0 0.0941176 0 0 0 0 0.156863 0 0 0 0.05 0"/>
<feBlend mode="normal" in2="BackgroundImageFix" result="effect1_dropShadow_2_2"/>
<feBlend mode="normal" in="SourceGraphic" in2="effect1_dropShadow_2_2" result="shape"/>
</filter>
<clipPath id="clip0_2_2">
<rect width="1728" height="1117" fill="white"/>
</clipPath>
</defs>
</svg>
