<svg width="136" height="71" viewBox="0 0 136 71" fill="none" xmlns="http://www.w3.org/2000/svg">
<rect x="1.05154" width="133.949" height="71" fill="#FFEFEC"/>
<rect x="1.05154" width="8.92992" height="71" fill="#FFCD9E"/>
<path d="M55.5635 71C49.324 61.0667 45.7007 49.2201 45.7007 36.5C45.7007 22.9147 49.8337 10.3258 56.8726 0L135 0V71L55.5635 71Z" fill="#FFC38B"/>
<path d="M45.7007 36.5C45.7007 49.2201 49.324 61.0667 55.5635 71H122.615C122.653 70.1117 122.672 69.2185 122.672 68.3208C122.672 34.4583 95.4349 7.00726 61.8361 7.00726C58.6104 7.00726 55.4434 7.26027 52.3535 7.74769C48.0991 16.3803 45.7007 26.151 45.7007 36.5Z" fill="#FFB58B"/>
<path d="M124.086 11.8837L135 5M135 11.0233L124.086 17.907M124.086 23.9302L135 17.0465M135 23.0698L124.086 29.9535M135 29.093L124.086 35.9767M135 35.1163L124.086 42" stroke="black"/>
<path d="M1 21.7741L10.1762 16.6422M10.1762 22.6655L1 27.7974M1 33.8207L10.1762 28.6888M10.1762 34.712L1 39.8439M10.1762 40.7353L1 45.8672M10.1762 46.7585L1 51.8904" stroke="#E4704B"/>
<rect x="14.9421" y="4" width="14.8832" height="10" fill="#006FFF"/>
<path d="M98.7723 57.3719H105.725V25.4013H110.07C105.29 14.0145 93.4046 11.3994 85.3014 16.9013" stroke="#F98C8B" stroke-width="2"/>
<path d="M98.2067 30.7808V62.941L70.6579 62.941V30.7808L98.2067 30.7808Z" stroke="#B56766" stroke-width="2"/>
<path d="M100.881 30.533H67.9833L84.4316 16.2156L100.881 30.533Z" stroke="#B56766" stroke-width="2"/>
<path d="M88.7394 26.1536H80.1252L84.4318 22.3548L88.7394 26.1536Z" stroke="#B56766" stroke-opacity="0.6" stroke-width="2"/>
<path d="M84.4328 36.9122C88.2002 36.9124 91.2541 39.967 91.2541 43.7344V62.9415H77.6106V43.7344C77.6106 39.9669 80.6653 36.9122 84.4328 36.9122Z" stroke="#B56766" stroke-width="2"/>
<path d="M84.4323 46.4231C84.4323 55.0216 84.4323 63.0653 84.4323 63.0653M77.4796 46.4231H91.385M91.385 53.496H77.4796" stroke="#B56766" stroke-width="2"/>
<path d="M55.6221 41.0726L56.9587 45.2185H61.2841L57.7848 47.7808L59.1214 51.9267L55.6221 49.3644L52.1229 51.9267L53.4595 47.7808L49.9602 45.2185H54.2855L55.6221 41.0726Z" fill="#FCF350"/>
<path d="M62.1659 54.9245L63.5025 59.0704H67.8278L64.3285 61.6327L65.6651 65.7786L62.1659 63.2163L58.6666 65.7786L60.0032 61.6327L56.504 59.0704H60.8293L62.1659 54.9245Z" fill="#FCF350"/>
<path d="M53.7407 28.9049L54.6318 31.6689H57.5153L55.1825 33.3771L56.0735 36.141L53.7407 34.4328L51.4079 36.141L52.2989 33.3771L49.9661 31.6689H52.8496L53.7407 28.9049Z" fill="#FCF350"/>
<rect x="114.85" width="10.429" height="70.9485" fill="#F3ECA8"/>
<rect x="114.85" y="38.5399" width="10.429" height="13.1386" fill="#F98C8B"/>
<rect x="114.85" y="3.50362" width="10.429" height="15.7663" fill="#E26D00"/>
<rect x="15.9344" y="54.3062" width="17.8598" height="7" fill="#FFCEBE"/>
<path d="M53.4831 9.07207H44.5763L44.1549 14.9705H44.3797C44.567 14.5257 44.773 14.1253 44.9978 13.7695C45.2413 13.3958 45.5223 13.0844 45.8407 12.8353C46.1591 12.5684 46.5431 12.3638 46.9927 12.2215C47.4422 12.0791 47.9761 12.0079 48.5942 12.0079C49.4371 12.0079 50.2238 12.1414 50.9543 12.4083C51.6849 12.6752 52.3217 13.0666 52.8649 13.5826C53.4081 14.0808 53.839 14.7036 54.1574 15.4509C54.4758 16.1804 54.635 17.0078 54.635 17.9331C54.635 18.8761 54.4665 19.7568 54.1293 20.5753C53.8109 21.376 53.3239 22.07 52.6683 22.6571C52.0314 23.2443 51.2447 23.7069 50.3081 24.045C49.3716 24.3653 48.3039 24.5254 47.1051 24.5254C46.1498 24.5254 45.3069 24.4275 44.5763 24.2318C43.8458 24.0361 43.1996 23.7781 42.6376 23.4578C42.0757 23.1197 41.5887 22.7372 41.1766 22.3102C40.7645 21.8831 40.4086 21.4294 40.1089 20.949L43.1715 18.6537C43.6023 19.3832 44.1174 20.006 44.7168 20.522C45.3162 21.0202 46.1217 21.2693 47.1332 21.2693C48.1447 21.2693 48.9033 20.9935 49.409 20.4419C49.9335 19.8903 50.1957 19.1608 50.1957 18.2533V18.0398C50.1957 17.1857 49.9335 16.5096 49.409 16.0114C48.8845 15.5132 48.1634 15.2641 47.2455 15.2641C46.4776 15.2641 45.8407 15.4153 45.335 15.7178C44.8479 16.0025 44.4733 16.2872 44.2111 16.5719L40.7551 16.1182L41.4857 5.57572H53.4831V9.07207Z" fill="black"/>
<path d="M62.9689 24.5254C60.4027 24.5254 58.5015 23.6802 57.2652 21.9899C56.0289 20.2995 55.4108 17.9331 55.4108 14.8904C55.4108 11.8478 56.0289 9.48132 57.2652 7.79097C58.5015 6.10062 60.4027 5.25545 62.9689 5.25545C65.5351 5.25545 67.4363 6.10062 68.6726 7.79097C69.9088 9.48132 70.527 11.8478 70.527 14.8904C70.527 17.9331 69.9088 20.2995 68.6726 21.9899C67.4363 23.6802 65.5351 24.5254 62.9689 24.5254ZM62.9689 21.1358C64.0928 21.1358 64.8701 20.7444 65.3009 19.9615C65.7317 19.1786 65.9472 18.0754 65.9472 16.6519V13.1289C65.9472 11.7055 65.7317 10.6023 65.3009 9.81938C64.8701 9.03649 64.0928 8.64504 62.9689 8.64504C61.845 8.64504 61.0676 9.03649 60.6368 9.81938C60.206 10.6023 59.9906 11.7055 59.9906 13.1289V16.6519C59.9906 18.0754 60.206 19.1786 60.6368 19.9615C61.0676 20.7444 61.845 21.1358 62.9689 21.1358Z" fill="black"/>
</svg>
