<svg width="49" height="12" viewBox="0 0 49 12" fill="none" xmlns="http://www.w3.org/2000/svg">
<path d="M1.65057 11H0.357955L4.09659 0.818182H5.36932L9.10795 11H7.81534L4.77273 2.42898H4.69318L1.65057 11ZM2.12784 7.02273H7.33807V8.11648H2.12784V7.02273ZM13.6371 11.1591C12.9212 11.1591 12.3047 10.9901 11.7876 10.652C11.2706 10.3139 10.8729 9.84825 10.5945 9.25497C10.3161 8.66169 10.1768 7.9839 10.1768 7.22159C10.1768 6.44602 10.3194 5.7616 10.6044 5.16832C10.8928 4.57173 11.2938 4.10606 11.8075 3.77131C12.3246 3.43324 12.9278 3.2642 13.6172 3.2642C14.1541 3.2642 14.638 3.36364 15.0689 3.5625C15.4998 3.76136 15.8527 4.03977 16.1278 4.39773C16.4029 4.75568 16.5736 5.1733 16.6399 5.65057H15.4666C15.3771 5.30256 15.1783 4.99432 14.87 4.72585C14.5651 4.45407 14.1541 4.31818 13.6371 4.31818C13.1797 4.31818 12.7786 4.4375 12.4339 4.67614C12.0926 4.91146 11.8258 5.24455 11.6335 5.67543C11.4446 6.10298 11.3501 6.60511 11.3501 7.18182C11.3501 7.77178 11.4429 8.28551 11.6286 8.72301C11.8175 9.16051 12.0826 9.50024 12.424 9.74219C12.7687 9.98414 13.1731 10.1051 13.6371 10.1051C13.942 10.1051 14.2188 10.0521 14.4673 9.94602C14.7159 9.83996 14.9264 9.6875 15.0987 9.48864C15.2711 9.28977 15.3937 9.05114 15.4666 8.77273H16.6399C16.5736 9.22348 16.4096 9.6295 16.1477 9.99077C15.8892 10.3487 15.5462 10.6338 15.1186 10.8459C14.6944 11.0547 14.2005 11.1591 13.6371 11.1591ZM21.6761 3.36364V4.35795H17.7188V3.36364H21.6761ZM18.8722 1.53409H20.0455V8.8125C20.0455 9.14394 20.0935 9.39252 20.1896 9.55824C20.2891 9.72064 20.415 9.83002 20.5675 9.88636C20.7232 9.93939 20.8873 9.96591 21.0597 9.96591C21.1889 9.96591 21.295 9.95928 21.3778 9.94602C21.4607 9.92945 21.527 9.91619 21.5767 9.90625L21.8153 10.9602C21.7358 10.9901 21.6248 11.0199 21.4822 11.0497C21.3397 11.0829 21.1591 11.0994 20.9403 11.0994C20.6089 11.0994 20.2841 11.0282 19.9659 10.8857C19.651 10.7431 19.3892 10.526 19.1804 10.2344C18.9749 9.94271 18.8722 9.57481 18.8722 9.13068V1.53409ZM23.4411 11V3.36364H24.6143V11H23.4411ZM24.0376 2.09091C23.8089 2.09091 23.6117 2.01302 23.446 1.85724C23.2836 1.70147 23.2024 1.5142 23.2024 1.29545C23.2024 1.0767 23.2836 0.889441 23.446 0.733664C23.6117 0.577888 23.8089 0.5 24.0376 0.5C24.2663 0.5 24.4619 0.577888 24.6243 0.733664C24.79 0.889441 24.8729 1.0767 24.8729 1.29545C24.8729 1.5142 24.79 1.70147 24.6243 1.85724C24.4619 2.01302 24.2663 2.09091 24.0376 2.09091ZM29.8656 11.1591C29.1762 11.1591 28.5713 10.995 28.051 10.6669C27.5339 10.3388 27.1296 9.87973 26.8379 9.28977C26.5495 8.69981 26.4054 8.01042 26.4054 7.22159C26.4054 6.42614 26.5495 5.73177 26.8379 5.13849C27.1296 4.54522 27.5339 4.08452 28.051 3.75639C28.5713 3.42827 29.1762 3.2642 29.8656 3.2642C30.555 3.2642 31.1582 3.42827 31.6752 3.75639C32.1956 4.08452 32.6 4.54522 32.8883 5.13849C33.18 5.73177 33.3258 6.42614 33.3258 7.22159C33.3258 8.01042 33.18 8.69981 32.8883 9.28977C32.6 9.87973 32.1956 10.3388 31.6752 10.6669C31.1582 10.995 30.555 11.1591 29.8656 11.1591ZM29.8656 10.1051C30.3893 10.1051 30.8201 9.97088 31.1582 9.70241C31.4963 9.43395 31.7465 9.08097 31.9089 8.64347C32.0713 8.20597 32.1525 7.73201 32.1525 7.22159C32.1525 6.71117 32.0713 6.23556 31.9089 5.79474C31.7465 5.35393 31.4963 4.99763 31.1582 4.72585C30.8201 4.45407 30.3893 4.31818 29.8656 4.31818C29.3419 4.31818 28.911 4.45407 28.573 4.72585C28.2349 4.99763 27.9847 5.35393 27.8223 5.79474C27.6599 6.23556 27.5787 6.71117 27.5787 7.22159C27.5787 7.73201 27.6599 8.20597 27.8223 8.64347C27.9847 9.08097 28.2349 9.43395 28.573 9.70241C28.911 9.97088 29.3419 10.1051 29.8656 10.1051ZM36.2901 6.40625V11H35.1168V3.36364H36.2504V4.55682H36.3498C36.5288 4.16903 36.8005 3.85748 37.1651 3.62216C37.5297 3.38352 38.0004 3.2642 38.5771 3.2642C39.0941 3.2642 39.5465 3.37027 39.9343 3.58239C40.3221 3.79119 40.6237 4.10938 40.8391 4.53693C41.0546 4.96117 41.1623 5.49811 41.1623 6.14773V11H39.989V6.22727C39.989 5.62737 39.8332 5.16004 39.5217 4.82528C39.2101 4.48722 38.7826 4.31818 38.239 4.31818C37.8645 4.31818 37.5297 4.39938 37.2347 4.56179C36.9431 4.72419 36.7127 4.96117 36.5437 5.27273C36.3746 5.58428 36.2901 5.96212 36.2901 6.40625ZM48.7154 5.07386L47.6614 5.37216C47.5951 5.1965 47.4973 5.0258 47.3681 4.86009C47.2421 4.69105 47.0698 4.55185 46.851 4.44247C46.6323 4.3331 46.3522 4.27841 46.0108 4.27841C45.5435 4.27841 45.1541 4.38613 44.8425 4.60156C44.5343 4.81368 44.3801 5.08381 44.3801 5.41193C44.3801 5.7036 44.4862 5.93395 44.6983 6.10298C44.9105 6.27202 45.2419 6.41288 45.6926 6.52557L46.8262 6.80398C47.5089 6.9697 48.0177 7.22325 48.3525 7.56463C48.6872 7.9027 48.8546 8.33854 48.8546 8.87216C48.8546 9.30966 48.7286 9.70076 48.4767 10.0455C48.2282 10.3902 47.8801 10.6619 47.4327 10.8608C46.9853 11.0597 46.4649 11.1591 45.8716 11.1591C45.0927 11.1591 44.4481 10.9901 43.9377 10.652C43.4273 10.3139 43.1041 9.82008 42.9682 9.17045L44.0819 8.89205C44.1879 9.30303 44.3884 9.61127 44.6834 9.81676C44.9817 10.0223 45.3712 10.125 45.8517 10.125C46.3986 10.125 46.8328 10.009 47.1543 9.77699C47.4791 9.54167 47.6415 9.25994 47.6415 8.93182C47.6415 8.66667 47.5487 8.4446 47.3631 8.26562C47.1775 8.08333 46.8925 7.94744 46.508 7.85795L45.2353 7.55966C44.5359 7.39394 44.0222 7.13707 43.6941 6.78906C43.3693 6.43774 43.2069 5.99858 43.2069 5.47159C43.2069 5.04072 43.3278 4.65956 43.5698 4.32812C43.815 3.99669 44.1481 3.73651 44.5691 3.54758C44.9933 3.35866 45.4739 3.2642 46.0108 3.2642C46.7665 3.2642 47.3598 3.42992 47.7907 3.76136C48.2248 4.0928 48.5331 4.5303 48.7154 5.07386Z" fill="#A1A7C4"/>
</svg>
