<svg width="153" height="158" viewBox="0 0 153 158" fill="none" xmlns="http://www.w3.org/2000/svg">
<path fill-rule="evenodd" clip-rule="evenodd" d="M26.0835 47.3231L72.7787 38.4565L95.2078 126.044L47.5231 137.963L26.0835 47.3231Z" fill="white"/>
<path d="M26.0926 47.3625L23.7495 50.6187L45.1891 141.26L92.8677 129.349L95.2024 126.082L47.5231 137.963L26.0926 47.3625Z" fill="#81F8F8"/>
<path d="M41.4466 49.7374C41.4618 49.8723 41.5029 50.0027 41.5674 50.1212C41.6319 50.2397 41.7187 50.344 41.8226 50.4281C41.9266 50.5123 42.0459 50.5746 42.1735 50.6115C42.3011 50.6484 42.4347 50.6593 42.5665 50.6434C42.6984 50.6275 42.8259 50.5852 42.9419 50.519C43.0579 50.4527 43.1601 50.3637 43.2425 50.2571C43.325 50.1505 43.3862 50.0284 43.4226 49.8978C43.4589 49.7671 43.4698 49.6304 43.4546 49.4956C43.4394 49.3607 43.3983 49.2303 43.3338 49.1118C43.2693 48.9933 43.1826 48.889 43.0786 48.8049C42.9746 48.7208 42.8554 48.6584 42.7277 48.6215C42.6001 48.5846 42.4665 48.5737 42.3347 48.5896C42.2028 48.6055 42.0753 48.6478 41.9593 48.7141C41.8433 48.7803 41.7412 48.8693 41.6587 48.9759C41.5762 49.0825 41.5151 49.2046 41.4787 49.3353C41.4423 49.4659 41.4314 49.6026 41.4466 49.7374Z" fill="#FFD997"/>
<path d="M95.5787 125.943L73.148 38.3562C73.1167 38.2497 73.0469 38.1598 72.953 38.1053C72.8591 38.0507 72.7485 38.0357 72.6442 38.0634C71.6721 38.196 65.5382 39.3453 26.0144 46.9339C25.9232 46.9519 25.8958 46.9401 25.7164 47.1694C25.4634 47.4967 24.9078 48.3107 23.4425 50.3808C23.2791 50.6163 21.8366 44.1793 44.8304 141.381C44.8561 141.459 44.9045 141.526 44.969 141.573C45.0335 141.621 45.1107 141.646 45.1899 141.646C45.2659 141.646 43.0832 142.176 92.9567 129.725C93.1451 129.678 92.9871 129.839 95.4958 126.297C95.5362 126.249 95.5648 126.192 95.5792 126.13C95.5936 126.069 95.5935 126.005 95.5787 125.943ZM72.4458 38.9182L74.5267 47.021L28.6554 56.5415L26.5479 47.6317L72.4458 38.9182ZM25.9087 48.2354L47.1127 137.882L45.3647 140.35L24.1607 50.7034L25.9087 48.2354ZM92.6428 129.001L46.1088 140.626L47.7488 138.31L94.2814 126.687L92.6428 129.001ZM47.8028 137.49L28.8355 57.3045L74.7212 47.7809L94.7427 125.763L47.8028 137.49Z" fill="black"/>
<path d="M41.0691 49.7841C41.0993 50.0669 41.21 50.3341 41.3873 50.5518C41.5646 50.7695 41.8005 50.9279 42.0651 51.007C42.3297 51.086 42.611 51.0821 42.8735 50.9958C43.1359 50.9095 43.3677 50.7447 43.5393 50.5222C43.7109 50.2997 43.8148 50.0296 43.8376 49.7461C43.8604 49.4626 43.8013 49.1785 43.6676 48.9297C43.5339 48.681 43.3317 48.4789 43.0867 48.349C42.8417 48.219 42.5648 48.1672 42.2912 48.2C41.926 48.2432 41.5922 48.4342 41.3631 48.7311C41.1341 49.0281 41.0283 49.4068 41.0691 49.7841ZM42.3786 48.9795C42.5006 48.9666 42.6235 48.9912 42.7319 49.0502C42.8403 49.1093 42.9294 49.2001 42.988 49.3113C43.0466 49.4225 43.0721 49.5491 43.0613 49.6752C43.0504 49.8013 43.0037 49.9213 42.927 50.02C42.8503 50.1188 42.7471 50.192 42.6303 50.2303C42.5134 50.2686 42.3883 50.2704 42.2705 50.2355C42.1526 50.2005 42.0475 50.1304 41.9681 50.0339C41.8888 49.9374 41.8389 49.8188 41.8246 49.6931C41.8065 49.5226 41.8546 49.3516 41.9585 49.2178C42.0624 49.084 42.2135 48.9983 42.3786 48.9795Z" fill="black"/>
<path d="M47.2774 49.751C50.0673 49.751 56.0174 48.6096 58.9198 47.7297C61.0182 47.0938 61.3738 46.7264 61.2948 46.2727C61.1162 45.2475 56.769 45.8268 53.1529 46.4933C49.5368 47.1598 45.2664 48.1646 45.4397 49.1898C45.5096 49.594 46.2202 49.751 47.2774 49.751ZM60.0864 46.4917C57.4196 47.6315 49.4464 49.0885 46.6504 48.966C49.2625 47.8506 57.1224 46.3881 60.0864 46.4917Z" fill="black"/>
<path fill-rule="evenodd" clip-rule="evenodd" d="M78.6453 89.8491C78.6453 89.8491 83.9037 101.924 86.4368 102.267C88.9699 102.61 93.4113 99.1482 93.4774 97.3144C93.3715 96.4883 93.0137 95.7185 92.456 95.1164L84.9936 74.7778L71.9976 78.3669L73.1056 82.6946L78.6453 89.8491Z" fill="white"/>
<path fill-rule="evenodd" clip-rule="evenodd" d="M77.6082 86.7113C78.711 89.9127 80.0511 93.0216 81.6164 96.0104C84.4033 101.453 85.5866 101.85 86.1384 102.227C86.6902 102.604 88.3287 101.985 88.3287 101.985C87.0998 104.24 79.7673 107.784 79.7673 107.784C79.0012 108.923 75.4308 112.615 75.4308 112.615C75.4308 112.615 63.2594 110.432 65.8494 99.4761L69.7254 96.6289C69.7254 96.6289 69.5149 88.4257 71.0881 84.6184C72.6613 80.8112 75.6755 78.0386 77.7761 77.8321C79.8768 77.6257 85.4027 77.2363 85.7668 78.6234C86.1308 80.0105 85.6657 81.9369 79.2809 82.3129L77.6082 86.7113Z" fill="#FFD997"/>
<path fill-rule="evenodd" clip-rule="evenodd" d="M84.0063 77.7544C83.9136 78.6281 81.7195 82.0547 81.7195 82.0547C81.7195 82.0547 79.9251 83.8484 79.8438 85.0667C79.7298 86.7874 81.6253 86.5943 81.6253 86.5943C81.6253 86.5943 80.2496 88.0073 80.3203 89.3465C80.3336 89.6231 80.4105 89.8925 80.5448 90.1322C80.6791 90.3719 80.8668 90.5751 81.0924 90.7248C81.318 90.8745 81.5749 90.9664 81.8418 90.9929C82.1087 91.0194 82.3779 90.9798 82.6269 90.8773C82.8854 90.788 83.1488 90.7149 83.4158 90.6583C83.4158 90.6583 81.8616 91.9425 82.7508 93.4505C83.0211 93.9116 83.422 94.2757 83.8993 94.4935C84.3766 94.7112 84.9072 94.7722 85.4192 94.668C84.834 97.0128 88.0138 97.8308 89.9655 96.8017C90.8521 96.3359 91.6872 95.7721 92.456 95.1202C92.7044 95.3781 92.9331 95.6555 93.14 95.95C93.5509 95.6838 93.9021 95.3301 94.17 94.9124C94.4379 94.4948 94.6164 94.0229 94.6935 93.5282C94.7183 93.0911 94.6501 92.6537 94.4936 92.2468C94.3371 91.84 94.0961 91.4735 93.7875 91.1732C94.2003 90.4731 94.4623 89.6895 94.5559 88.8755C94.7345 87.468 94.0315 85.953 91.5592 85.5573C91.5592 85.5573 92.966 83.6396 92.2903 82.5123C91.6147 81.3851 90.2908 80.9973 88.2107 81.8317C88.2107 81.8317 89.2253 79.9022 88.7062 78.3934C88.1871 76.8847 86.132 76.146 84.0063 77.7544Z" fill="#FFD997"/>
<path fill-rule="evenodd" clip-rule="evenodd" d="M86.657 96.7411C85.9798 96.2191 85.8902 95.8894 86.0194 95.3085C86.1678 95.1045 86.3782 94.9579 86.6169 94.8923C86.8556 94.8267 87.1088 94.8458 87.3357 94.9466C88.1215 95.3218 88.1527 95.9341 87.8426 96.3926C87.704 96.5699 87.5156 96.6986 87.3033 96.761C87.0911 96.8234 86.8653 96.8165 86.657 96.7411Z" fill="white"/>
<path fill-rule="evenodd" clip-rule="evenodd" d="M84.8442 94.2064C84.6257 94.189 84.4127 94.1271 84.2174 94.0243C84.0221 93.9214 83.8484 93.7798 83.7064 93.6074C83.5643 93.4349 83.4567 93.2352 83.3897 93.0197C83.3227 92.8041 83.2976 92.577 83.3159 92.3514C83.3159 92.3514 84.2719 90.9165 85.2159 91.2681C86.1598 91.6198 86.3308 92.309 86.0275 92.908C85.7403 93.4331 85.3343 93.8785 84.8442 94.2064Z" fill="white"/>
<path fill-rule="evenodd" clip-rule="evenodd" d="M80.9106 88.8057C80.577 90.1402 82.1152 90.5327 82.1152 90.5327C82.1152 90.5327 84.3808 89.9973 83.6991 88.5051C83.3624 87.7624 81.7755 87.4484 80.9106 88.8057Z" fill="white"/>
<path fill-rule="evenodd" clip-rule="evenodd" d="M80.3174 85.6941C80.7734 86.7931 82.757 85.7255 82.757 85.7255C82.757 85.7255 83.2472 84.402 82.2379 84.1688C81.2286 83.9357 80.0879 85.1352 80.3174 85.6941Z" fill="white"/>
<path fill-rule="evenodd" clip-rule="evenodd" d="M71.377 78.2505L85.7091 74.309C85.7091 74.309 94.4962 71.4995 102.95 71.6526C111.405 71.8057 114.26 73.8082 115.775 73.5225C117.289 73.2367 119.842 71.9234 115.489 54.6589C111.04 37.0145 107.156 32.4489 103.663 38.5429C100.17 44.6368 89.6504 52.8919 84.1534 55.0436C78.6563 57.1952 65.9696 61.4201 65.9696 61.4201C65.9696 61.4201 64.0392 64.5554 66.2554 70.771C68.4715 76.9867 71.377 78.2505 71.377 78.2505Z" fill="white"/>
<path fill-rule="evenodd" clip-rule="evenodd" d="M66.5776 79.9581L67.8788 83.7866L72.2191 82.1883L71.0404 78.3708L66.5776 79.9581Z" fill="#81F8F8"/>
<path fill-rule="evenodd" clip-rule="evenodd" d="M65.9738 61.4209C65.9738 61.4209 64.0054 65.0201 66.2079 70.5442C68.4103 76.0682 69.6605 77.2716 71.3759 78.2505L61.0748 81.9157C61.0748 81.9157 57.6928 80.6832 55.542 74.3279C53.2917 67.6766 55.957 64.7046 55.957 64.7046L65.9738 61.4209Z" fill="#81F8F8"/>
<path d="M115.861 54.5601C112.752 42.2293 109.849 36.0341 106.986 35.6164C105.705 35.4296 104.483 36.3496 103.338 38.3443C100.001 44.169 89.6263 52.483 84.0221 54.677C78.5972 56.7965 65.9827 61.0049 65.8581 61.0473C55.4962 64.4895 55.839 64.258 55.6741 64.4377C55.5585 64.5657 52.8803 67.6609 55.1801 74.4575C57.3651 80.9164 60.7995 82.2337 60.9447 82.2863C61.1248 82.3522 60.7303 82.4527 66.3407 80.4556L67.5164 83.9167C67.5425 83.9934 67.5911 84.0598 67.6553 84.1068C67.7196 84.1538 67.7964 84.179 67.8751 84.1789C67.9807 84.1789 67.8325 84.2189 71.5087 82.8656C71.2201 83.3814 70.9618 83.9146 70.735 84.4623C69.2705 88.0097 69.3153 95.0912 69.3373 96.4296L65.605 99.1771C61.8141 102.383 49.1008 109.074 41.8603 112.777C41.8154 112.8 41.7753 112.832 41.7422 112.871C41.7092 112.91 41.6839 112.955 41.6678 113.004C41.6517 113.053 41.645 113.104 41.6483 113.156C41.6515 113.208 41.6645 113.258 41.6866 113.304C41.7088 113.351 41.7395 113.392 41.7771 113.426C41.8147 113.46 41.8585 113.487 41.9059 113.503C41.9532 113.52 42.0033 113.527 42.0533 113.523C42.1032 113.52 42.1521 113.507 42.197 113.484C49.0005 110.004 60.6224 103.892 65.2394 100.453C64.9423 102.258 64.7834 105.93 67.6182 108.701C69.6078 110.683 72.0492 112.116 74.7166 112.866C72.6791 115.227 63.2406 125.617 46.8482 135.608C46.7641 135.662 46.7038 135.748 46.6802 135.848C46.6567 135.947 46.6717 136.052 46.7221 136.141C46.7724 136.229 46.8542 136.293 46.9499 136.32C47.0456 136.347 47.1476 136.334 47.2343 136.284C65.6073 125.088 75.3178 113.362 75.7077 112.887C75.9607 112.625 79.1512 109.315 80.0153 108.099C80.8863 107.672 87.1692 104.543 88.5722 102.323C89.78 101.849 90.9004 101.165 91.885 100.301C92.4626 99.7965 93.8109 98.4957 93.8534 97.3316C93.8527 96.9081 93.7539 96.4909 93.5654 96.1148C93.9721 95.8174 94.3152 95.4367 94.5735 94.9965C94.8317 94.5562 94.9995 94.0658 95.0664 93.5557C95.1201 92.6636 94.829 91.7859 94.257 91.1152C94.6055 90.4335 94.8326 89.6928 94.9273 88.9281C95.1067 87.5151 94.4607 85.8721 92.1852 85.2889C92.6032 84.573 93.1861 83.2707 92.6078 82.3059C92.1769 81.5868 91.1455 80.5655 88.8883 81.1865C89.256 80.2576 89.3159 79.2292 89.0586 78.2616C88.835 77.6688 88.4257 77.1704 87.8959 76.8459C87.3662 76.5213 86.7464 76.3894 86.1356 76.471L85.3977 74.8013L85.8179 74.6859C85.9053 74.6576 94.618 71.8819 102.944 72.0475C111.463 72.2045 114.157 74.229 115.842 73.9111C116.189 73.8631 116.522 73.7361 116.815 73.5393C117.109 73.3424 117.357 73.0806 117.54 72.7728C118.934 70.5199 118.383 64.5633 115.861 54.5601ZM61.0868 81.4958C60.4955 81.21 57.7329 79.6204 55.8975 74.1953C53.9466 68.4342 55.8177 65.5296 56.1757 65.0429L65.2957 62.0537C64.8191 63.4541 64.1967 66.5423 65.8527 70.6942C67.7125 75.3586 68.9307 77.066 70.4849 78.1517L61.0868 81.4958ZM67.0627 80.2005L70.7958 78.8746L71.7458 81.9487L68.1115 83.2832L67.0627 80.2005ZM79.6027 107.428C79.3161 107.566 79.8307 107.469 75.3003 112.192C72.6052 111.52 70.1333 110.116 68.1411 108.125C64.9719 105.025 65.9675 100.51 66.1742 99.7164L69.9423 96.9485C69.993 96.9112 70.0341 96.8617 70.0619 96.8042C70.0897 96.7467 70.1035 96.683 70.1019 96.6188C70.1019 96.5403 69.9119 88.4548 71.4342 84.7708C73.0081 80.9573 75.9683 78.4021 77.8075 78.2215C79.2736 78.0779 80.539 78.0135 81.5946 78.0096C81.6969 78.3553 81.9115 78.6541 82.2023 78.8553C82.493 79.0565 82.8421 79.1479 83.1906 79.1141C83.9367 79.1315 84.6761 78.9661 85.3483 78.6313C85.3688 78.6593 85.3842 78.691 85.3939 78.7247C85.4724 78.9568 85.4963 79.2048 85.4636 79.4483C85.431 79.6918 85.3427 79.9238 85.2061 80.1252C84.7266 80.812 83.3061 81.6818 79.2531 81.9228C79.1804 81.9269 79.1104 81.9524 79.0514 81.9964C78.9924 82.0404 78.9468 82.1009 78.9202 82.1709L77.2482 86.5669C77.1205 86.9028 77.4724 87.0465 78.2666 89.9314C78.2701 89.9468 78.2744 89.962 78.2795 89.9769C78.6843 91.1881 78.8482 92.4714 78.7613 93.7496C78.4816 95.6236 77.5803 97.339 76.2115 98.6025C76.1347 98.6699 76.087 98.7661 76.0789 98.8699C76.0708 98.9737 76.1029 99.0766 76.1682 99.1559C76.2335 99.2352 76.3267 99.2845 76.4271 99.2929C76.5276 99.3013 76.6272 99.2681 76.704 99.2007C78.205 97.8243 79.1959 95.9516 79.5069 93.9035C79.5699 93.5339 79.5888 93.1576 79.5631 92.7833C81.3225 96.4665 84.4378 102.392 86.3803 102.655C86.6813 102.693 86.9858 102.691 87.2863 102.649C85.4904 104.379 81.3142 106.602 79.6065 107.428H79.6027ZM93.0934 97.3017C93.0721 97.885 92.4216 98.8042 91.3941 99.7007C90.4691 100.51 89.4178 101.151 88.2849 101.597C88.2286 101.603 88.1743 101.622 88.1261 101.653C87.6011 101.852 87.0402 101.93 86.4829 101.881C84.7935 101.651 81.0026 94.3117 79 89.7186C78.6238 88.3418 78.1739 87.1281 78.012 86.7121L79.5403 82.6929C79.9421 82.6662 80.3257 82.6327 80.691 82.5924C80.0374 83.2631 79.6057 84.1299 79.4575 85.0691C79.4575 86.1351 79.8375 86.7741 80.8741 86.8903C80.2998 87.5843 79.9687 88.4579 79.934 89.3701C79.9461 89.6755 80.0224 89.9745 80.1577 90.2464C80.293 90.5183 80.4839 90.7565 80.7173 90.9444C80.9507 91.1324 81.2209 91.2656 81.5092 91.3348C81.7974 91.404 82.0968 91.4075 82.3865 91.3452C82.1882 91.6973 82.0865 92.0985 82.0924 92.5059C82.0982 92.9132 82.2115 93.3112 82.42 93.657C82.6798 94.1138 83.0549 94.489 83.5052 94.7426C83.9556 94.9962 84.4641 95.1186 84.9766 95.0967C84.8391 96.1721 86.0095 97.6142 88.0584 97.6142C89.6833 97.5198 91.2233 96.8343 92.4056 95.6791C92.7905 96.1339 93.0318 96.6992 93.0972 97.2994L93.0934 97.3017ZM80.9532 85.0353C81.5733 84.3869 82.2809 84.4584 82.4314 84.7425C82.5097 84.9706 82.5124 85.2192 82.439 85.449C81.9488 85.6845 80.8795 86.0574 80.6644 85.5448C80.698 85.343 80.8021 85.1608 80.957 85.033L80.9532 85.0353ZM81.264 88.9682C81.4049 88.7404 81.6019 88.5553 81.8348 88.432C82.0677 88.3087 82.3281 88.2516 82.5895 88.2664C82.7395 88.2653 82.8875 88.302 83.0207 88.3733C83.1539 88.4446 83.2683 88.5482 83.354 88.6754C83.4093 88.7691 83.4414 88.8754 83.4474 88.9849C83.4533 89.0945 83.433 89.2039 83.3882 89.3034C83.0753 89.7267 82.6263 90.0207 82.1221 90.1323C81.5756 89.9337 81.1485 89.5632 81.2678 88.9658L81.264 88.9682ZM83.6998 92.4708C83.9673 92.1145 84.5883 91.4551 85.0815 91.6395C85.2219 91.6763 85.3534 91.743 85.4674 91.8353C85.5814 91.9276 85.6754 92.0436 85.7435 92.1757C85.9433 92.7048 85.1833 93.4804 84.7365 93.8085C84.4387 93.7474 84.1715 93.5792 83.9824 93.3339C83.7933 93.0885 83.6946 92.7819 83.7036 92.4685L83.6998 92.4708ZM86.3667 95.49C86.4638 95.3735 86.5948 95.2926 86.7402 95.2594C86.8855 95.2261 87.0373 95.2423 87.173 95.3055C87.2749 95.3406 87.3683 95.3979 87.447 95.4734C87.5257 95.549 87.5877 95.6411 87.629 95.7435C87.6417 95.8485 87.6277 95.9551 87.5884 96.0529C87.5491 96.1506 87.4859 96.2361 87.4049 96.301C87.324 96.3658 87.2281 96.4078 87.1267 96.4228C87.0252 96.4378 86.9218 96.4252 86.8265 96.3864C86.3378 95.9939 86.3066 95.8016 86.3705 95.4876L86.3667 95.49ZM94.3079 93.507C94.2511 93.8891 94.1218 94.2557 93.9273 94.5859C93.7328 94.9161 93.4771 95.2034 93.1747 95.4311C93.0408 95.2326 92.8949 95.043 92.7377 94.8635C92.7047 94.8246 92.6645 94.7928 92.6195 94.77C92.5746 94.7472 92.5257 94.7338 92.4757 94.7306C92.4256 94.7274 92.3755 94.7345 92.3281 94.7513C92.2808 94.7682 92.2371 94.7946 92.1997 94.829C90.4973 96.3911 89.0479 96.8606 87.9718 96.8347C88.1423 96.6798 88.2694 96.4805 88.34 96.2576C88.4105 96.0348 88.4219 95.7964 88.3729 95.5674C88.3239 95.3384 88.2164 95.1272 88.0615 94.9558C87.9066 94.7843 87.71 94.659 87.4922 94.5927C87.3934 94.546 87.2903 94.5097 87.1844 94.4844C88.7044 93.6994 92.7917 90.9079 93.5456 91.4817C93.8075 91.7416 94.0116 92.057 94.1439 92.4063C94.2761 92.7556 94.3334 93.1303 94.3117 93.5047L94.3079 93.507ZM94.1734 88.8253C94.0926 89.4694 93.9063 90.0945 93.6224 90.674C92.6161 90.4267 90.8552 91.4095 88.5646 92.788C87.6038 93.4814 86.5281 93.9869 85.3908 94.2795C87.1008 92.8429 86.7429 91.426 85.3399 90.904C84.1414 90.4589 83.0455 92.065 82.9999 92.1333C82.9538 92.2024 82.9303 92.2849 82.933 92.3688C82.9407 92.7029 83.0063 93.0328 83.1268 93.343C82.9012 92.9696 82.8231 92.521 82.9087 92.0899C82.9943 91.6587 83.237 91.278 83.5866 91.0265C84.401 90.9106 85.2037 90.7196 85.9851 90.4558C87.1574 90.0881 88.2583 89.5113 89.2379 88.7515C90.201 87.9662 91.0448 87.0364 91.7414 85.993C94.1962 86.4821 94.2661 88.1235 94.1772 88.823L94.1734 88.8253ZM91.9618 82.7204C92.4026 83.4536 91.5894 84.8399 91.2512 85.3219C91.2431 85.3325 91.2357 85.3438 91.2291 85.3556C90.5548 86.4217 89.7155 87.3661 88.7447 88.151C87.8152 88.8575 86.7754 89.3943 85.6705 89.7383C85.0038 89.9587 84.3197 90.1184 83.6261 90.2155C83.9011 90.0062 84.0944 89.7019 84.1706 89.3579C84.2469 89.0139 84.2012 88.6531 84.0418 88.341C83.6231 87.4264 82.097 87.0983 81.0383 88.0599C81.272 87.6324 81.5567 87.2368 81.8857 86.8824C83.7287 86.7051 85.4494 85.8525 86.7368 84.4788C87.5325 83.4889 88.2332 82.4778 88.4491 82.1607C90.1644 81.4942 91.3447 81.6834 91.9656 82.7212L91.9618 82.7204ZM88.3427 78.5245C88.7736 79.7805 87.9703 81.4471 87.8791 81.6292C87.7719 81.7862 87.0203 82.8946 86.1516 83.9724C85.3239 84.8643 84.2766 85.5064 83.1222 85.8297C83.845 83.6875 81.6243 83.0823 80.3307 84.5738C80.7207 83.7668 81.2491 83.0397 81.8903 82.4276C84.342 82.006 86.7755 80.9918 86.1303 78.5222C86.0239 78.1195 85.6492 77.8094 85.0101 77.5927C86.6425 76.8046 87.9786 77.4554 88.3465 78.5222L88.3427 78.5245ZM83.9081 77.347C81.8535 77.1508 79.7845 77.1837 77.7369 77.4452C76.0307 77.6124 73.9817 79.2224 72.391 81.4699L71.5117 78.6234L84.6521 75.0125L85.3642 76.6225C84.8456 76.7797 84.3551 77.0228 83.9119 77.3423L83.9081 77.347ZM102.96 71.2602C94.5146 71.1212 85.6857 73.9056 85.6112 73.9291C85.5352 73.9386 71.5033 77.8078 71.4273 77.8298C69.9233 76.9506 68.7324 75.8461 66.5588 70.3943C64.6877 65.7023 65.9386 62.4242 66.2426 61.7436C67.6965 61.2577 79.1733 57.4151 84.2919 55.411C90.0603 53.1533 100.493 44.8535 103.994 38.7439C104.179 38.4164 104.382 38.1003 104.602 37.7972C103.961 41.3548 105.115 48.8052 105.566 51.4452C106.091 54.5216 110.926 69.8267 114.718 73.0625C110.898 71.9074 106.941 71.3009 102.96 71.2602ZM115.12 72.4377C112.004 69.7373 107.049 55.5939 106.317 51.3047C105.31 45.4038 104.771 38.8758 105.538 37.0836C105.824 36.4164 106.749 36.0906 107.735 36.7547C111.11 39.0312 114.189 51.037 115.127 54.754C115.875 57.722 118.167 66.8689 117.372 71.0176C117.081 72.5452 116.302 73.466 115.12 72.4416L115.12 72.4377Z" fill="black"/>
<path fill-rule="evenodd" clip-rule="evenodd" d="M110.187 46.984L117.928 37.5789L114.432 36.8952L127.574 27.8677L120.628 35.9351L124.452 36.6557L110.187 46.984Z" fill="#81F8F8"/>
<path fill-rule="evenodd" clip-rule="evenodd" d="M118.75 54.1339L132.308 48.1106L127.98 45.5907L148.475 42.7419L136.443 47.7502L141.19 50.4813L118.75 54.1339Z" fill="#81F8F8"/>
<path fill-rule="evenodd" clip-rule="evenodd" d="M113.337 63.3522L124.965 66.197L123.967 62.6724L137.723 70.6574L127.607 67.9342L128.724 71.7807L113.337 63.3522Z" fill="#81F8F8"/>
<path d="M124.52 36.2696L121.362 35.6738L127.86 28.1284C127.922 28.0572 127.957 27.965 127.958 27.8693C127.958 27.7736 127.925 27.6809 127.864 27.6087C127.804 27.5364 127.719 27.4896 127.628 27.477C127.536 27.4645 127.443 27.487 127.366 27.5404L114.225 36.5679C114.162 36.6111 114.112 36.6727 114.084 36.7448C114.055 36.817 114.047 36.8964 114.062 36.9729C114.077 37.0494 114.114 37.1196 114.168 37.1744C114.222 37.2293 114.29 37.2663 114.364 37.2807L117.215 37.8388L109.897 46.7305C109.85 46.7876 109.82 46.8574 109.811 46.9315C109.801 47.0056 109.812 47.0811 109.842 47.149C109.873 47.2169 109.921 47.2743 109.982 47.3147C110.043 47.355 110.114 47.3765 110.187 47.3766C110.371 47.3766 109.373 48.054 124.671 36.9761C124.732 36.9315 124.779 36.8693 124.806 36.7973C124.833 36.7253 124.839 36.6467 124.822 36.5713C124.806 36.4959 124.769 36.427 124.715 36.3734C124.662 36.3197 124.594 36.2836 124.52 36.2696ZM112.397 44.9046L118.218 37.8325C118.261 37.7802 118.29 37.717 118.302 37.6494C118.314 37.5818 118.308 37.5121 118.286 37.4474C118.264 37.3826 118.225 37.325 118.175 37.2803C118.124 37.2356 118.063 37.2054 117.998 37.1928L115.422 36.6888L125.336 29.8774L120.344 35.6738C120.299 35.7259 120.269 35.7894 120.255 35.8577C120.242 35.9261 120.247 35.9968 120.269 36.0627C120.291 36.1285 120.33 36.1872 120.381 36.2325C120.432 36.2778 120.494 36.3082 120.561 36.3206L123.49 36.8701L112.397 44.9046Z" fill="black"/>
<path d="M148.424 42.3533L127.93 45.1981C127.851 45.209 127.778 45.2452 127.72 45.3016C127.662 45.3581 127.622 45.4319 127.607 45.5127C127.592 45.5935 127.602 45.6771 127.635 45.7518C127.669 45.8265 127.724 45.8885 127.793 45.9289L131.453 48.0618L118.6 53.7719C118.519 53.8074 118.453 53.8708 118.412 53.9513C118.371 54.0317 118.359 54.1242 118.377 54.213C118.395 54.3019 118.442 54.3816 118.51 54.4385C118.579 54.4955 118.664 54.5262 118.752 54.5255C118.828 54.5255 117.964 54.6652 141.248 50.8682C141.326 50.8555 141.398 50.8179 141.455 50.7606C141.511 50.7034 141.549 50.6294 141.563 50.5489C141.577 50.4685 141.566 50.3856 141.532 50.3118C141.498 50.238 141.442 50.177 141.373 50.1373L137.322 47.8067L148.615 43.1053C148.7 43.0688 148.769 43.002 148.809 42.9172C148.85 42.8323 148.86 42.7352 148.836 42.6436C148.813 42.552 148.759 42.4722 148.683 42.4189C148.607 42.3655 148.515 42.3422 148.424 42.3533ZM136.301 47.3859C136.235 47.4137 136.177 47.4603 136.135 47.5204C136.093 47.5804 136.069 47.6515 136.064 47.7253C136.06 47.7992 136.076 47.8728 136.11 47.9378C136.144 48.0027 136.196 48.0563 136.258 48.0924L140.042 50.27L121.679 53.2601L132.458 48.4716C132.523 48.4428 132.579 48.3957 132.619 48.3357C132.66 48.2758 132.684 48.2053 132.687 48.1322C132.691 48.0592 132.675 47.9864 132.641 47.9222C132.607 47.858 132.557 47.805 132.495 47.769L129.151 45.8222L145.521 43.5496L136.301 47.3859Z" fill="black"/>
<path d="M137.914 70.3182L124.154 62.3301C124.088 62.2917 124.013 62.2746 123.938 62.2808C123.862 62.287 123.79 62.3163 123.731 62.3649C123.672 62.4136 123.628 62.4793 123.605 62.5538C123.583 62.6283 123.582 62.7081 123.603 62.783L124.418 65.66L113.425 62.9706C113.335 62.9486 113.24 62.9612 113.159 63.006C113.077 63.0508 113.014 63.1248 112.981 63.214C112.949 63.3033 112.949 63.4018 112.981 63.4911C113.014 63.5804 113.077 63.6543 113.159 63.6991L128.552 72.1237C128.619 72.1599 128.694 72.1751 128.768 72.1674C128.843 72.1596 128.913 72.1293 128.971 72.0803C129.029 72.0312 129.072 71.9656 129.094 71.8916C129.115 71.8176 129.116 71.7386 129.094 71.6645L128.171 68.4876L137.632 71.0349C137.72 71.0547 137.811 71.0419 137.89 70.9988C137.97 70.9557 138.032 70.885 138.065 70.7993C138.099 70.7135 138.102 70.6182 138.075 70.5302C138.047 70.4422 137.99 70.3671 137.914 70.3182ZM127.709 67.5574C127.644 67.5406 127.576 67.542 127.511 67.5613C127.447 67.5805 127.389 67.617 127.342 67.6671C127.296 67.7172 127.263 67.779 127.248 67.8463C127.232 67.9136 127.234 67.984 127.253 68.0504L128.109 70.9957L116.139 64.4433L124.879 66.5816C124.944 66.5974 125.012 66.5954 125.075 66.5758C125.139 66.5562 125.197 66.5197 125.242 66.4698C125.288 66.42 125.321 66.3587 125.336 66.2919C125.352 66.2252 125.35 66.1553 125.332 66.0894L124.595 63.4887L134.977 69.5136L127.709 67.5574Z" fill="black"/>
<path fill-rule="evenodd" clip-rule="evenodd" d="M111.279 101.574C111.279 101.574 113.78 95.0763 117.891 93.4686C122.003 91.8609 124.325 92.3492 126.83 89.1762C128.447 87.0497 129.777 84.7053 130.782 82.2078C130.782 82.2078 137.876 86.1618 141.822 85.0432C141.822 85.0432 139.411 92.0124 135.724 93.6279C132.037 95.2435 124.754 97.4493 122.728 104.812C122.725 104.812 114.963 101.253 111.279 101.574Z" fill="black"/>
<path fill-rule="evenodd" clip-rule="evenodd" d="M112.006 84.2299C112.006 84.2299 107.142 84.2166 106.397 80.0757L103.881 82.8397C106.237 85.8666 106.957 86.7301 109.829 86.6822L112.006 84.2299Z" fill="black"/>
<path fill-rule="evenodd" clip-rule="evenodd" d="M10.5488 103.864C10.5488 103.864 17.3622 103.854 18.4323 109.655L21.9443 105.766C18.6261 101.536 17.6123 100.33 13.5881 100.414L10.5488 103.864Z" fill="black"/>
<path fill-rule="evenodd" clip-rule="evenodd" d="M4.07471 24.6634L13.8931 13.6028C13.8931 13.6028 20.591 12.8123 22.662 17.9203C24.733 23.0282 28.6957 28.5963 36.874 30.7158L28.4905 41.402C28.4905 41.402 24.5164 41.1892 19.4822 37.5241C13.6408 33.2709 15.5233 29.2031 11.0029 26.3119C8.94633 24.9544 6.499 24.372 4.07471 24.6634Z" fill="black"/>
<path fill-rule="evenodd" clip-rule="evenodd" d="M9.0708 132.591L20.3636 120.48C29.7416 123.711 38.1475 129.4 44.7596 136.991L35.5811 150.366C28.8118 142.122 20.6198 136.555 9.0708 132.591Z" fill="black"/>
<path fill-rule="evenodd" clip-rule="evenodd" d="M22.6566 92.5998L21.9026 83.7371C21.9026 83.7371 18.5678 84.0511 16.7848 80.2211C15.0018 76.3911 11.9497 72.5038 7.4102 71.7988L5.69336 81.3272C5.69336 81.3272 10.8895 83.5134 12.4384 87.2727C13.9872 91.0321 17.4893 93.9609 22.6566 92.5998Z" fill="black"/>
<path fill-rule="evenodd" clip-rule="evenodd" d="M117.873 127.941L117.094 129.47C110.927 124.169 111.67 116.298 111.67 116.298L100.317 119.386C100.317 119.386 100.849 130.69 107.854 133.244C114.983 135.845 125.522 133.932 129.66 125.322C129.66 125.322 125.971 126.623 117.873 127.941Z" fill="black"/>
<path fill-rule="evenodd" clip-rule="evenodd" d="M86.0171 24.0549L93.2067 21.9896C93.8675 19.4167 95.1284 17.05 96.879 15.0965C98.6296 13.143 100.817 11.662 103.249 10.7829C101.861 9.80751 100.286 9.14969 98.6315 8.85348C96.9767 8.55727 95.2798 8.6295 93.6543 9.06534C93.6543 9.06534 86.204 15.3241 86.0171 24.0549Z" fill="black"/>
<path fill-rule="evenodd" clip-rule="evenodd" d="M61.3086 31.6788C61.3086 31.6788 69.582 29.9974 67.7428 21.2383L72.223 19.7468C72.223 19.7468 74.6534 32.569 61.3086 31.6788Z" fill="black"/>
<path fill-rule="evenodd" clip-rule="evenodd" d="M85.198 149.899C85.198 149.899 80.8257 145.962 85.1509 140.312L82.997 137.765C82.997 137.765 76.8236 146.124 85.198 149.899Z" fill="black"/>
<path fill-rule="evenodd" clip-rule="evenodd" d="M110.896 100.384C110.896 100.384 113.395 93.8853 117.508 92.2784C121.62 90.6715 123.942 91.1582 126.447 87.986C128.063 85.859 129.391 83.5147 130.395 81.0176C130.395 81.0176 137.49 84.9716 141.435 83.8522C141.435 83.8522 139.024 90.8214 135.337 92.4378C131.65 94.0541 124.368 96.2583 122.341 103.622C122.34 103.618 114.578 100.059 110.896 100.384Z" fill="white"/>
<path fill-rule="evenodd" clip-rule="evenodd" d="M5.14355 23.4984L14.962 12.4377C14.962 12.4377 21.6599 11.6472 23.7309 16.7552C25.8019 21.8632 29.7638 27.4312 37.9429 29.5507L29.5586 40.2377C29.5586 40.2377 25.5822 40.0242 20.5503 36.359C14.7089 32.1059 16.5914 28.038 12.071 25.1469C10.0147 23.7893 7.56761 23.207 5.14355 23.4984Z" fill="white"/>
<path fill-rule="evenodd" clip-rule="evenodd" d="M9.73096 130.912L21.0223 118.804C30.4003 122.036 38.8063 127.725 45.4183 135.316L36.2405 148.688C29.472 140.444 21.2792 134.877 9.73096 130.912Z" fill="white"/>
<path fill-rule="evenodd" clip-rule="evenodd" d="M22.9666 91.0273L22.2127 82.1639C22.2127 82.1639 18.8778 82.4779 17.0949 78.6486C15.3119 74.8194 12.2597 70.9313 7.72254 70.2256L6.00342 79.7539C6.00342 79.7539 11.1995 81.9409 12.7484 85.7003C14.2973 89.4597 17.7994 92.3877 22.9666 91.0273Z" fill="white"/>
<path fill-rule="evenodd" clip-rule="evenodd" d="M118.378 126.731L117.599 128.261C111.433 122.96 112.175 115.088 112.175 115.088L100.822 118.177C100.822 118.177 101.354 129.481 108.359 132.034C115.489 134.636 126.027 132.723 130.166 124.113C130.165 124.113 126.475 125.413 118.378 126.731Z" fill="white"/>
<path fill-rule="evenodd" clip-rule="evenodd" d="M86.5342 22.7384L93.7238 20.6731C94.3846 18.1002 95.6454 15.7337 97.396 13.7802C99.1466 11.8268 101.334 10.346 103.766 9.46721C102.378 8.49157 100.803 7.83356 99.1487 7.53721C97.4939 7.24086 95.797 7.31302 94.1714 7.74885C94.1714 7.74885 86.7211 14.0077 86.5342 22.7384Z" fill="white"/>
<path d="M20.1625 29.2265C20.3457 29.3842 20.574 29.4822 20.8343 29.5149C21.0946 29.5477 21.3819 29.5145 21.6798 29.4173C21.9776 29.3202 22.2802 29.1609 22.5703 28.9486C22.8603 28.7363 23.1321 28.4751 23.3702 28.1801C23.6082 27.885 23.8079 27.5617 23.9577 27.2288C24.1075 26.8958 24.2046 26.5597 24.2434 26.2395C24.2823 25.9194 24.262 25.6215 24.1839 25.363C24.1058 25.1044 23.9713 24.8901 23.7881 24.7325C23.6049 24.5748 23.3767 24.4768 23.1163 24.4441C22.856 24.4114 22.5687 24.4445 22.2708 24.5417C21.973 24.6389 21.6704 24.7982 21.3804 25.0105C21.0903 25.2228 20.8185 25.4839 20.5805 25.779C20.3424 26.0741 20.1427 26.3973 19.9929 26.7303C19.8431 27.0632 19.746 27.3994 19.7072 27.7195C19.6684 28.0396 19.6886 28.3375 19.7667 28.5961C19.8448 28.8547 19.9793 29.0689 20.1625 29.2265Z" fill="#FFD997"/>
<path d="M93.3515 14.4925C93.5839 14.5096 93.8157 14.5034 94.0335 14.4742C94.2514 14.445 94.4511 14.3934 94.6212 14.3223C94.7913 14.2513 94.9284 14.1622 95.0249 14.0601C95.1213 13.958 95.1751 13.8449 95.1833 13.7273C95.1914 13.6098 95.1536 13.49 95.0721 13.3748C94.9907 13.2596 94.8671 13.1513 94.7085 13.0561C94.5498 12.9609 94.3593 12.8806 94.1476 12.8198C93.936 12.759 93.7074 12.7189 93.4749 12.7018C93.2425 12.6847 93.0107 12.6909 92.7929 12.7201C92.575 12.7493 92.3753 12.8009 92.2053 12.872C92.0352 12.943 91.898 13.0321 91.8015 13.1342C91.7051 13.2363 91.6513 13.3494 91.6432 13.4669C91.6351 13.5845 91.6728 13.7043 91.7543 13.8195C91.8357 13.9347 91.9593 14.043 92.118 14.1382C92.2766 14.2334 92.4672 14.3137 92.6788 14.3745C92.8905 14.4353 93.119 14.4754 93.3515 14.4925Z" fill="#FFD997"/>
<path d="M26.7416 134.113C27.0934 134.387 27.6199 134.39 28.2053 134.122C28.7907 133.854 29.3871 133.336 29.8631 132.683C30.3392 132.03 30.656 131.295 30.7439 130.64C30.8318 129.985 30.6835 129.463 30.3317 129.189C30.1575 129.054 29.9386 128.983 29.6875 128.982C29.4363 128.98 29.1579 129.048 28.868 129.181C28.5781 129.314 28.2825 129.509 27.9981 129.756C27.7137 130.003 27.4459 130.296 27.2102 130.619C26.9745 130.943 26.7754 131.289 26.6242 131.64C26.4731 131.991 26.3729 132.338 26.3294 132.662C26.2859 132.987 26.2999 133.282 26.3706 133.531C26.4414 133.78 26.5674 133.978 26.7416 134.113Z" fill="#FFD997"/>
<path d="M108.758 128.865C108.879 129.171 109.207 129.375 109.67 129.432C110.132 129.49 110.691 129.395 111.224 129.17C111.756 128.945 112.219 128.608 112.51 128.232C112.8 127.856 112.896 127.473 112.774 127.167C112.714 127.015 112.603 126.887 112.446 126.79C112.29 126.693 112.092 126.628 111.863 126.599C111.634 126.571 111.379 126.58 111.112 126.625C110.845 126.669 110.572 126.75 110.309 126.861C110.045 126.973 109.796 127.113 109.575 127.274C109.354 127.435 109.167 127.614 109.023 127.8C108.879 127.986 108.781 128.176 108.736 128.358C108.69 128.541 108.698 128.713 108.758 128.865Z" fill="#FFD997"/>
<path d="M127.912 93.1465C128.254 93.2079 128.597 93.2412 128.922 93.2446C129.247 93.2481 129.547 93.2215 129.806 93.1665C130.064 93.1115 130.276 93.0291 130.428 92.924C130.581 92.8189 130.671 92.6932 130.695 92.554C130.718 92.4149 130.674 92.265 130.565 92.113C130.455 91.961 130.283 91.8098 130.058 91.668C129.832 91.5262 129.558 91.3967 129.251 91.2867C128.944 91.1768 128.61 91.0887 128.268 91.0273C127.926 90.966 127.582 90.9327 127.257 90.9292C126.932 90.9258 126.632 90.9524 126.374 91.0074C126.115 91.0624 125.904 91.1448 125.751 91.2499C125.599 91.355 125.508 91.4807 125.485 91.6198C125.461 91.759 125.505 91.9089 125.615 92.0609C125.724 92.2129 125.896 92.3641 126.122 92.5059C126.347 92.6477 126.621 92.7772 126.928 92.8871C127.235 92.9971 127.569 93.0852 127.912 93.1465Z" fill="#FFD997"/>
<path d="M15.1185 84.6975C15.2354 84.717 15.3606 84.6755 15.4871 84.5753C15.6136 84.4751 15.7389 84.3182 15.8558 84.1135C15.9727 83.9088 16.079 83.6604 16.1685 83.3823C16.258 83.1043 16.329 82.8021 16.3775 82.4931C16.426 82.184 16.451 81.8741 16.451 81.5811C16.4511 81.2881 16.4263 81.0177 16.3779 80.7854C16.3296 80.553 16.2587 80.3633 16.1693 80.2269C16.0799 80.0906 15.9738 80.0103 15.8569 79.9908C15.7401 79.9712 15.6148 80.0127 15.4883 80.1129C15.3618 80.2131 15.2365 80.3701 15.1196 80.5748C15.0027 80.7795 14.8965 81.0279 14.807 81.306C14.7175 81.584 14.6464 81.8862 14.598 82.1952C14.5495 82.5043 14.5245 82.8141 14.5244 83.1072C14.5243 83.4002 14.5492 83.6706 14.5975 83.9029C14.6459 84.1353 14.7167 84.325 14.8061 84.4614C14.8955 84.5977 15.0017 84.6779 15.1185 84.6975Z" fill="#FFD997"/>
<path d="M141.331 83.4701C137.58 84.5306 130.64 80.7069 130.571 80.6684C130.523 80.6425 130.471 80.6271 130.418 80.6232C130.365 80.6194 130.311 80.6273 130.261 80.6464C130.211 80.6654 130.165 80.6952 130.127 80.7338C130.088 80.7723 130.058 80.8188 130.039 80.8702C129.048 83.3287 127.739 85.6376 126.15 87.7342C123.739 90.7879 121.5 90.2925 117.371 91.9073C113.153 93.5558 110.648 99.963 110.543 100.235C110.519 100.297 110.511 100.364 110.519 100.431C110.528 100.497 110.552 100.56 110.591 100.614C110.63 100.667 110.681 100.71 110.74 100.737C110.799 100.765 110.864 100.776 110.928 100.771C114.479 100.457 122.111 103.941 122.187 103.977C122.237 104 122.291 104.011 122.345 104.011C122.4 104.01 122.454 103.998 122.503 103.974C122.552 103.95 122.596 103.915 122.632 103.872C122.667 103.829 122.693 103.779 122.708 103.725C124.459 97.3473 130.296 94.9429 134.158 93.3517C134.635 93.1547 135.08 92.9717 135.483 92.7951C139.283 91.1309 141.69 84.2716 141.791 83.9811C141.815 83.9133 141.82 83.84 141.806 83.7693C141.792 83.6986 141.759 83.6333 141.712 83.5804C141.664 83.5276 141.604 83.4894 141.536 83.4699C141.469 83.4505 141.398 83.4505 141.331 83.4701ZM135.185 92.0721C134.786 92.2472 134.349 92.4285 133.874 92.6216C129.96 94.2348 124.087 96.6542 122.099 103.081C120.546 102.397 114.895 100.01 111.483 99.9669C112.188 98.3843 114.424 93.8973 117.639 92.6413C121.707 91.0509 124.148 91.5109 126.738 88.2296C128.296 86.1878 129.589 83.9447 130.584 81.5571C132.028 82.3138 137.246 84.88 140.824 84.3729C140.127 86.1226 138.025 90.8279 135.186 92.0721H135.185Z" fill="black"/>
<path d="M11.8712 25.4805C16.2116 28.2579 14.4256 32.3807 20.3323 36.6801C25.5763 40.4991 29.6347 40.6302 29.5587 40.6302C29.6153 40.6303 29.6713 40.6173 29.7224 40.5922C29.7736 40.5671 29.8186 40.5304 29.8543 40.485L38.2371 29.8019C38.2774 29.7507 38.3045 29.6899 38.3159 29.625C38.3274 29.5601 38.3228 29.4933 38.3027 29.4307C38.2825 29.3681 38.2475 29.3118 38.2007 29.2669C38.1539 29.222 38.0969 29.1901 38.035 29.1739C31.4655 27.4705 26.771 23.2417 24.0806 16.6061C21.9252 11.2861 14.9887 12.0397 14.9196 12.0484C14.7144 12.0711 15.349 11.4431 4.86323 23.2331C4.8094 23.2936 4.77535 23.3702 4.76588 23.4518C4.75641 23.5335 4.77201 23.6161 4.81048 23.6881C4.84894 23.7601 4.90832 23.8178 4.98024 23.8531C5.05216 23.8883 5.13299 23.8994 5.21131 23.8846C7.54236 23.6193 9.89136 24.1822 11.8712 25.4805ZM15.1392 12.8153C16.0793 12.7431 21.5992 12.517 23.3768 16.9083C26.0862 23.591 30.7595 27.9179 37.2734 29.7823L29.3884 39.8303C26.2606 39.3045 23.3026 38.0044 20.767 36.0411C15.0047 31.8461 16.9427 27.808 12.2687 24.8156C10.415 23.6156 8.26518 22.9941 6.07771 23.0258L15.1392 12.8153Z" fill="black"/>
<path d="M21.1485 118.434C21.0798 118.409 21.0057 118.405 20.935 118.423C20.8642 118.44 20.7999 118.479 20.7495 118.533L9.45667 130.64C9.41216 130.687 9.38004 130.746 9.3633 130.81C9.34655 130.874 9.34573 130.941 9.36089 131.005C9.37606 131.07 9.40673 131.129 9.45005 131.178C9.49338 131.227 9.54794 131.263 9.60867 131.284C21.0125 135.198 29.1361 140.645 35.9487 148.941C35.9862 148.987 36.0333 149.023 36.0863 149.047C36.1394 149.071 36.197 149.082 36.2549 149.08C36.3127 149.077 36.3693 149.061 36.4201 149.032C36.471 149.004 36.5149 148.963 36.5484 148.915L45.7299 135.543C45.7795 135.47 45.8036 135.382 45.7985 135.294C45.7934 135.205 45.7593 135.121 45.7018 135.055C39.0552 127.404 30.5925 121.676 21.1485 118.434ZM36.2125 148.05C29.4857 139.99 21.4913 134.627 10.4211 130.737L21.128 119.258C30.2623 122.434 38.4576 127.973 44.9335 135.346L36.2125 148.05Z" fill="black"/>
<path d="M12.3986 85.8541C14.1892 90.1983 18.1032 92.7135 23.0606 91.4072C23.1479 91.3841 23.2244 91.3298 23.2764 91.2539C23.3285 91.178 23.3527 91.0854 23.3449 90.9927L22.591 82.1293C22.5866 82.0778 22.5724 82.0278 22.5492 81.982C22.526 81.9362 22.4943 81.8955 22.4559 81.8624C22.4175 81.8293 22.3731 81.8044 22.3254 81.789C22.2776 81.7736 22.2273 81.7682 22.1775 81.7729C22.1471 81.7729 19.0851 82.0202 17.4366 78.4759C16.0998 75.6005 13.0666 70.6558 7.77628 69.8346C7.67931 69.8197 7.58048 69.844 7.50046 69.9025C7.42044 69.961 7.36541 70.0492 7.34688 70.1486L5.63004 79.6825C5.61398 79.771 5.62787 79.8625 5.66938 79.9417C5.7109 80.0209 5.7775 80.0829 5.85804 80.1174C5.91048 80.1386 10.928 82.2847 12.3986 85.8541ZM8.02632 70.6777C12.749 71.6127 15.5131 76.1515 16.7542 78.819C17.185 79.8716 17.8917 80.7791 18.7948 81.4392C19.698 82.0994 20.7616 82.486 21.8659 82.5556L22.5606 90.7243C16.3688 92.171 13.7582 87.1447 13.0993 85.5433C11.7024 82.1521 7.57184 80.0428 6.43412 79.5153L8.02632 70.6777Z" fill="black"/>
<path d="M130.043 123.741C126.204 124.912 122.284 125.782 118.319 126.344C118.251 126.355 118.187 126.385 118.135 126.43C118.082 126.475 118.043 126.534 118.02 126.601C117.884 126.973 117.716 127.331 117.519 127.672C111.933 122.578 112.546 115.201 112.552 115.126C112.558 115.063 112.549 115 112.526 114.941C112.503 114.883 112.467 114.831 112.42 114.79C112.374 114.749 112.318 114.72 112.258 114.706C112.199 114.692 112.137 114.693 112.077 114.709L100.726 117.797C100.642 117.82 100.568 117.872 100.516 117.945C100.465 118.018 100.439 118.106 100.443 118.196C100.465 118.667 101.069 129.79 108.232 132.405C116.037 135.253 126.517 132.586 130.506 124.289C130.54 124.219 130.553 124.14 130.543 124.063C130.534 123.986 130.502 123.913 130.452 123.855C130.403 123.796 130.337 123.754 130.264 123.734C130.191 123.713 130.114 123.716 130.043 123.741ZM101.225 118.473L111.773 115.604C111.742 117.488 112.047 123.799 117.102 128.339C115.763 130.278 112.78 132.892 107.003 130.93C102.267 127.903 101.364 120.137 101.225 118.473ZM111.171 132.396C112.501 132.358 113.803 131.989 114.966 131.321C116.129 130.652 117.118 129.703 117.85 128.555C117.9 128.51 117.937 128.453 117.958 128.388C118.222 127.974 118.453 127.539 118.648 127.086C122.271 126.528 125.86 125.753 129.396 124.764C125.719 131.313 117.771 133.637 111.171 132.396Z" fill="black"/>
<path d="M104.002 9.15878C102.571 8.14016 100.944 7.45275 99.2326 7.14357C97.521 6.8344 95.7649 6.91075 94.0844 7.36741C94.0286 7.38118 93.9766 7.40804 93.9324 7.44591C93.6231 7.70574 86.3438 13.9198 86.1554 22.7306C86.1543 22.7829 86.1633 22.8349 86.1819 22.8835C86.2005 22.9321 86.2283 22.9764 86.2637 23.0138C86.2991 23.0511 86.3413 23.0808 86.388 23.1011C86.4346 23.1214 86.4848 23.1318 86.5354 23.1318C86.6167 23.1318 86.1341 23.2637 93.8268 21.0523C93.8942 21.033 93.9551 20.9949 94.0028 20.9421C94.0506 20.8893 94.0833 20.824 94.0974 20.7532C94.755 18.2512 95.99 15.9511 97.6965 14.05C99.403 12.1488 101.53 10.7032 103.896 9.83702C103.96 9.81326 104.016 9.77226 104.06 9.71828C104.103 9.66429 104.132 9.59931 104.142 9.53007C104.153 9.46083 104.146 9.38988 104.121 9.32458C104.096 9.25928 104.055 9.20203 104.002 9.15878ZM97.7765 8.19794C97.7878 8.11719 97.775 8.03481 97.7398 7.96176C97.7047 7.8887 97.6488 7.82843 97.5797 7.78895C97.9384 7.80387 98.2834 7.83448 98.6156 7.87766C98.3206 7.93539 98.037 8.04364 97.7765 8.19794ZM93.408 20.3568L86.9351 22.2165C87.3736 14.4717 93.6368 8.73645 94.3466 8.11002C95.2506 7.89349 96.1752 7.78264 97.1032 7.77953C96.4636 7.86161 95.8576 8.12153 95.3498 8.53156L94.9448 8.4931C94.8448 8.48494 94.7457 8.51736 94.6685 8.58346C94.5913 8.64957 94.5421 8.74415 94.5313 8.84713C94.5224 8.94611 94.5501 9.04491 94.6089 9.12359C94.6677 9.20227 94.7533 9.25496 94.8482 9.27103C94.6575 10.257 96.2542 10.7029 97.3023 9.59995C97.3296 9.5709 97.3562 9.54343 97.3836 9.51595L97.8799 9.56384C97.8281 9.57297 97.7758 9.57796 97.7233 9.57875C97.6225 9.57875 97.5259 9.6201 97.4546 9.69371C97.3834 9.76732 97.3433 9.86715 97.3433 9.97125C97.3433 10.0753 97.3834 10.1752 97.4546 10.2488C97.5259 10.3224 97.6225 10.3638 97.7233 10.3638C98.2992 10.3125 98.8463 10.0808 99.2912 9.69964L99.5808 9.7279C99.6577 9.73511 99.7349 9.71794 99.8021 9.67869C99.8694 9.63943 99.9234 9.57995 99.9571 9.50816C99.9908 9.43638 100.002 9.3557 99.9906 9.27687C99.9788 9.19804 99.944 9.12481 99.8908 9.06693C99.9984 8.94415 100.067 8.79023 100.087 8.62598C100.107 8.46172 100.078 8.29505 100.003 8.14848C101.032 8.41251 102.02 8.82503 102.937 9.37387C100.648 10.341 98.601 11.8318 96.9505 13.7342C95.3 15.6366 94.0888 17.901 93.408 20.3568Z" fill="black"/>
<path d="M21.0364 29.9228C23.4798 29.9228 25.8123 25.9632 24.0323 24.4278C22.5032 23.1121 19.6243 25.2544 19.3302 27.6667C19.2634 27.9346 19.257 28.2148 19.3117 28.4856C19.3663 28.7565 19.4805 29.0107 19.6454 29.2288C19.8103 29.4468 20.0214 29.6228 20.2626 29.7431C20.5038 29.8634 20.7686 29.9249 21.0364 29.9228ZM20.0841 27.7711C20.3296 25.7607 22.6324 24.2496 23.5452 25.0369C24.1433 25.5511 23.9297 26.877 23.0793 27.932C21.8033 29.5091 19.8637 29.608 20.0841 27.7711Z" fill="black"/>
<path d="M93.5333 12.2699C92.6213 12.2008 91.3567 12.4865 91.2936 13.3979C91.2427 14.1319 92.1296 14.7528 93.3555 14.8431C94.2523 14.9114 95.5306 14.6288 95.5937 13.715C95.6438 12.9811 94.7577 12.3601 93.5333 12.2699ZM94.5099 13.9184C94.1571 14.0473 93.7814 14.0961 93.4087 14.0612C92.5043 13.9945 92.0407 13.6012 92.0521 13.4544C92.0521 13.4034 92.1448 13.2927 92.3774 13.1954C92.7305 13.0666 93.1064 13.0182 93.4793 13.0533C94.3822 13.12 94.8473 13.5133 94.8352 13.6601C94.8321 13.7103 94.7425 13.821 94.5099 13.9176V13.9184Z" fill="black"/>
<path d="M28.7137 128.821C28.0033 129.191 27.3848 129.725 26.906 130.382C26.4273 131.039 26.1011 131.8 25.9526 132.608C25.8771 132.935 25.8894 133.277 25.9881 133.597C26.0868 133.918 26.2682 134.204 26.5127 134.426C28.0229 135.599 30.8014 133.076 31.1206 130.693C31.341 129.036 30.2223 128.133 28.7137 128.821ZM30.3675 130.586C30.0126 133.242 26.3494 135.354 26.7058 132.715C26.8215 132.036 27.0991 131.396 27.5137 130.855C28.6909 129.241 30.6281 128.658 30.3705 130.586H30.3675Z" fill="black"/>
<path d="M109.959 129.84C111.683 129.84 113.638 128.313 113.125 127.02C112.788 126.168 111.488 125.939 110.161 126.499C107.748 127.52 107.763 129.84 109.959 129.84ZM111.591 126.976C113.084 126.976 112.417 128.243 111.08 128.808C110.133 129.208 109.256 129.09 109.11 128.717C108.888 128.158 110.196 126.976 111.591 126.976Z" fill="black"/>
<path d="M128.335 90.6403C125.234 90.0829 124.209 91.7613 125.926 92.8383C126.521 93.1869 127.172 93.4212 127.848 93.5299C128.965 93.73 130.888 93.7088 131.071 92.6177C131.228 91.6702 129.812 90.9056 128.335 90.6403ZM130.322 92.4858C130.289 92.6813 129.427 93.0188 127.978 92.759C127.397 92.6655 126.836 92.4661 126.321 92.1702C125.951 91.9347 125.852 91.744 125.862 91.6867C125.872 91.6294 126.028 91.4818 126.453 91.3915C127.032 91.2928 127.624 91.3003 128.201 91.4135C129.65 91.6702 130.352 92.2911 130.32 92.4858H130.322Z" fill="black"/>
<path d="M15.0576 85.0848C16.7296 85.3667 17.6127 79.8874 15.9179 79.6032C14.2383 79.3261 13.3651 84.8022 15.0576 85.0848ZM14.9725 82.2588C15.1617 81.0554 15.6314 80.4015 15.7963 80.3795C15.9483 80.4541 16.1908 81.2281 16.003 82.4308C15.8153 83.6334 15.3365 84.2975 15.1822 84.3148C15.034 84.2465 14.7832 83.4693 14.9725 82.2581V82.2588Z" fill="black"/>
<path d="M22.7242 123.941L23.1445 123.441C23.2105 123.362 23.2436 123.259 23.2364 123.156C23.2292 123.052 23.1823 122.955 23.1061 122.887C23.0299 122.819 22.9306 122.785 22.8301 122.792C22.7295 122.799 22.636 122.848 22.5699 122.927L22.0699 123.522C21.4609 123.343 20.8119 123.378 20.2242 123.621C19.6364 123.863 19.1427 124.3 18.8201 124.862C18.7373 125.02 18.6876 125.194 18.6741 125.372C18.6607 125.551 18.6838 125.731 18.742 125.9C18.8002 126.069 18.8922 126.223 19.012 126.353C19.1318 126.483 19.2767 126.585 19.4372 126.653L17.6489 128.78C17.5039 128.652 17.4093 128.473 17.3829 128.277C17.3564 128.082 17.4 127.883 17.5053 127.718C17.5624 127.632 17.5843 127.527 17.5659 127.424C17.5476 127.322 17.4907 127.231 17.4076 127.172C17.3246 127.113 17.2223 127.091 17.1231 127.11C17.024 127.128 16.9362 127.187 16.8791 127.273C16.6675 127.597 16.578 127.99 16.6276 128.377C16.6772 128.765 16.8623 129.12 17.1481 129.376L16.8661 129.711C16.8183 129.768 16.7873 129.838 16.7769 129.913C16.7664 129.987 16.777 130.063 16.8073 130.132C16.8376 130.2 16.8863 130.258 16.9477 130.299C17.0091 130.34 17.0805 130.361 17.1534 130.361C17.3617 130.361 17.4111 130.262 17.7538 129.853C18.2206 130.181 18.787 130.323 19.3473 130.252C19.9077 130.181 20.4239 129.901 20.7999 129.466C21.6693 128.298 21.7066 127.34 20.5939 126.475L22.2257 124.534C22.69 124.99 22.5236 125.67 22.2257 126.261C22.1749 126.35 22.1596 126.455 22.1832 126.555C22.2067 126.654 22.2672 126.741 22.3517 126.795C22.4361 126.849 22.5378 126.867 22.6349 126.845C22.7319 126.823 22.8167 126.762 22.8709 126.676C23.2187 126.091 23.3377 125.39 23.2038 124.718C23.1172 124.418 22.9511 124.149 22.7242 123.941ZM20.1972 128.987C19.9537 129.254 19.6282 129.425 19.2761 129.472C18.924 129.519 18.567 129.438 18.2661 129.243L20.0954 127.068C20.8037 127.599 20.904 128.04 20.1972 128.987ZM19.8104 125.97C19.3377 125.709 19.3962 125.428 19.5003 125.213C19.7158 124.87 20.0168 124.592 20.3718 124.41C20.7268 124.228 21.1228 124.148 21.5181 124.178L19.9472 126.047C19.9023 126.021 19.8575 125.995 19.8104 125.97Z" fill="black"/>
<path d="M107.754 121.471L109.465 120.888C109.478 120.972 109.474 121.058 109.455 121.141C109.333 121.462 109.103 121.727 108.807 121.886C108.762 121.908 108.721 121.94 108.687 121.98C108.654 122.019 108.628 122.065 108.612 122.115C108.596 122.165 108.589 122.217 108.593 122.269C108.597 122.322 108.611 122.373 108.635 122.419C108.658 122.466 108.69 122.507 108.729 122.541C108.768 122.574 108.813 122.6 108.862 122.615C108.911 122.63 108.962 122.635 109.012 122.629C109.063 122.624 109.112 122.608 109.156 122.583C109.515 122.427 109.812 122.15 110 121.797C110.188 121.445 110.254 121.037 110.19 120.641L110.603 120.499C110.698 120.465 110.775 120.395 110.819 120.302C110.864 120.21 110.871 120.103 110.839 120.005C110.808 119.907 110.74 119.826 110.651 119.779C110.562 119.732 110.459 119.723 110.364 119.754L109.842 119.932C109.483 119.553 109.013 119.306 108.505 119.23C107.996 119.154 107.478 119.253 107.03 119.512C106.909 119.584 106.803 119.681 106.72 119.796C106.636 119.912 106.576 120.043 106.542 120.184C106.509 120.324 106.504 120.469 106.526 120.612C106.549 120.754 106.599 120.89 106.674 121.012L104.799 121.652C104.773 121.532 104.788 121.407 104.84 121.298C104.893 121.188 104.98 121.1 105.087 121.049C105.179 121.005 105.25 120.926 105.285 120.828C105.32 120.731 105.316 120.623 105.274 120.528C105.232 120.433 105.155 120.36 105.06 120.324C104.966 120.288 104.861 120.292 104.769 120.335C104.491 120.468 104.268 120.699 104.139 120.987C104.011 121.275 103.985 121.6 104.068 121.905L103.812 121.992C103.726 122.022 103.654 122.082 103.607 122.162C103.561 122.241 103.543 122.335 103.558 122.427C103.572 122.519 103.618 122.603 103.686 122.663C103.755 122.723 103.842 122.757 103.932 122.757C104.008 122.757 104.027 122.745 104.35 122.635C104.555 123.055 104.9 123.386 105.321 123.566C105.741 123.747 106.211 123.766 106.644 123.62C107.673 123.199 108.146 122.55 107.754 121.471ZM107.442 120.172C107.688 120.052 107.958 119.993 108.23 120.001C108.502 120.009 108.769 120.083 109.008 120.217L107.412 120.761C107.265 120.504 107.199 120.334 107.442 120.172ZM105.105 122.375L107.031 121.718C107.24 122.267 107.174 122.559 106.364 122.895C106.128 122.964 105.877 122.95 105.649 122.856C105.421 122.762 105.23 122.593 105.105 122.375Z" fill="black"/>
<path d="M122.979 94.467C121.468 94.0816 120.537 94.6892 119.676 95.88L117.722 95.2238C118.006 94.9535 118.341 94.7478 118.706 94.6203C119.072 94.4927 119.459 94.4461 119.843 94.4835C119.943 94.4969 120.044 94.4688 120.124 94.4053C120.204 94.3418 120.256 94.2481 120.269 94.1448C120.282 94.0415 120.255 93.9372 120.193 93.8546C120.132 93.7721 120.041 93.7182 119.941 93.7048C119.378 93.6447 118.81 93.7277 118.285 93.9466C117.761 94.1656 117.296 94.5137 116.932 94.9608L116.307 94.7512C116.259 94.7346 116.209 94.728 116.158 94.7316C116.108 94.7353 116.059 94.7492 116.014 94.7725C115.97 94.7958 115.93 94.8281 115.897 94.8674C115.864 94.9068 115.839 94.9525 115.824 95.0019C115.808 95.0512 115.802 95.1033 115.806 95.155C115.811 95.2067 115.824 95.2571 115.848 95.3032C115.871 95.3494 115.902 95.3903 115.941 95.4237C115.979 95.4571 116.024 95.4822 116.072 95.4977L116.522 95.6492C115.686 97.6636 118.438 99.3128 119.854 97.0073C119.895 96.939 119.937 96.8738 119.977 96.8095L122.153 97.5403C121.982 97.7386 121.771 97.8959 121.534 98.0013C121.298 98.1068 121.042 98.1579 120.785 98.151C120.735 98.1394 120.684 98.1384 120.633 98.148C120.583 98.1575 120.535 98.1775 120.492 98.2067C120.449 98.2359 120.413 98.2737 120.385 98.3179C120.356 98.362 120.337 98.4116 120.328 98.4637C120.319 98.5157 120.32 98.5691 120.331 98.6207C120.343 98.6723 120.364 98.721 120.394 98.7639C120.424 98.8067 120.462 98.8429 120.506 98.8702C120.55 98.8975 120.598 98.9154 120.649 98.9227C121.093 98.9467 121.536 98.8578 121.938 98.6637C122.341 98.4696 122.692 98.1763 122.959 97.8096L123.401 97.9587C123.449 97.9746 123.499 97.9806 123.548 97.9765C123.598 97.9724 123.647 97.9582 123.691 97.9348C123.736 97.9113 123.775 97.879 123.808 97.8397C123.84 97.8005 123.865 97.755 123.88 97.7059C123.895 97.6569 123.901 97.6052 123.897 97.5537C123.893 97.5023 123.879 97.4522 123.857 97.4063C123.834 97.3604 123.803 97.3195 123.765 97.2861C123.727 97.2527 123.683 97.2273 123.635 97.2114L123.44 97.1462C124.302 95.694 123.873 94.6947 122.979 94.467ZM117.249 95.8902L119.229 96.5551C118.266 98.1071 116.701 97.052 117.249 95.8902ZM120.445 96.1383C120.682 95.7375 121.043 95.4303 121.469 95.2655C121.896 95.1008 122.363 95.0881 122.797 95.2293C122.941 95.2662 123.244 95.3431 123.12 95.9428C123.038 96.2848 122.894 96.6075 122.694 96.8935L120.445 96.1383Z" fill="black"/>
<path d="M136.915 85.7372C136.312 85.5731 135.675 85.6032 135.089 85.8234C134.503 86.0437 133.996 86.4436 133.636 86.9696L131.753 86.4201C132.354 85.9998 133.075 85.8012 133.798 85.8565C133.898 85.8657 133.997 85.8347 134.075 85.77C134.153 85.7054 134.204 85.612 134.217 85.5095C134.228 85.4064 134.199 85.303 134.137 85.2218C134.074 85.1406 133.983 85.0882 133.883 85.0762C133.338 85.0228 132.788 85.0929 132.271 85.2816C131.755 85.4703 131.284 85.7731 130.893 86.1689L130.241 85.9798C130.144 85.9514 130.04 85.9641 129.952 86.015C129.864 86.0658 129.8 86.1507 129.772 86.251C129.745 86.3512 129.757 86.4586 129.806 86.5495C129.855 86.6404 129.938 86.7074 130.035 86.7357L130.444 86.855C129.714 88.6393 132.379 90.0319 133.788 88.0396C133.831 87.9792 133.873 87.9218 133.914 87.8653L136.021 88.4792C135.661 88.797 135.195 88.9582 134.722 88.929C134.671 88.9187 134.62 88.919 134.57 88.9299C134.52 88.9408 134.472 88.9619 134.43 88.9922C134.388 89.0224 134.353 89.061 134.326 89.1058C134.299 89.1506 134.28 89.2006 134.273 89.2527C134.265 89.3049 134.267 89.3582 134.279 89.4095C134.292 89.4607 134.314 89.5088 134.345 89.5509C134.376 89.593 134.415 89.6283 134.459 89.6546C134.503 89.6808 134.552 89.6976 134.603 89.7038C135.03 89.7288 135.457 89.6544 135.853 89.486C136.248 89.3177 136.602 89.0597 136.888 88.7312L137.36 88.8686C137.408 88.8845 137.459 88.8902 137.51 88.8853C137.561 88.8804 137.61 88.865 137.655 88.8401C137.7 88.8151 137.739 88.7811 137.771 88.74C137.803 88.6989 137.827 88.6516 137.841 88.601C137.854 88.5503 137.858 88.4972 137.852 88.445C137.845 88.3928 137.829 88.3424 137.803 88.2969C137.777 88.2515 137.743 88.2118 137.702 88.1802C137.662 88.1487 137.615 88.126 137.566 88.1134L137.423 88.0718C138.231 86.8354 137.822 85.9397 136.915 85.7372ZM131.186 87.0717L133.129 87.6377C132.225 88.8215 130.679 88.0113 131.186 87.0717ZM134.454 87.2083C134.73 86.8736 135.095 86.6288 135.503 86.5035C135.911 86.3781 136.345 86.3775 136.754 86.5018C137.044 86.5654 137.134 86.6972 137.081 86.9853C137.003 87.3023 136.856 87.5965 136.651 87.8449L134.454 87.2083Z" fill="black"/>
<path d="M11.8502 79.0622C11.9566 77.8934 11.6343 77.2065 10.758 76.8203L10.986 75.2259C11.2074 75.5681 11.3266 75.9699 11.3288 76.3815C11.3281 76.4856 11.3675 76.5857 11.4382 76.6598C11.509 76.7339 11.6054 76.776 11.7061 76.7767C11.8069 76.7774 11.9039 76.7368 11.9756 76.6637C12.0474 76.5906 12.0881 76.4911 12.0888 76.387C12.0888 76.3163 12.0888 74.8554 11.1137 74.3271L11.1852 73.8286C11.1925 73.7776 11.1899 73.7255 11.1777 73.6754C11.1655 73.6254 11.1439 73.5783 11.1141 73.5368C11.0843 73.4954 11.0469 73.4604 11.004 73.4339C10.9611 73.4074 10.9135 73.3899 10.8641 73.3824C10.8146 73.3748 10.7642 73.3775 10.7157 73.3901C10.6673 73.4026 10.6217 73.425 10.5815 73.4558C10.5414 73.4866 10.5076 73.5252 10.4819 73.5695C10.4562 73.6139 10.4393 73.663 10.432 73.714L10.3697 74.1521C8.97813 74.2565 8.31769 76.9294 9.91369 77.3706L9.66213 79.14C9.51882 78.9759 9.44398 78.7601 9.45389 78.5394C9.45864 78.4356 9.42329 78.334 9.35561 78.257C9.28793 78.18 9.19344 78.134 9.09289 78.1289C8.99284 78.126 8.8956 78.1632 8.82151 78.2327C8.74742 78.3022 8.70224 78.3986 8.69541 78.5017C8.68453 78.813 8.75677 79.1213 8.90422 79.393C9.05168 79.6646 9.26866 79.8891 9.53141 80.0419L9.48277 80.3826C9.46815 80.4857 9.49377 80.5905 9.55399 80.674C9.61421 80.7576 9.70409 80.813 9.80387 80.8281C9.90364 80.8432 10.0051 80.8167 10.086 80.7545C10.1669 80.6923 10.2206 80.5995 10.2352 80.4964L10.2618 80.3127C10.4474 80.3554 10.6399 80.3556 10.8256 80.3135C11.0114 80.2713 11.186 80.1878 11.3373 80.0687C11.4885 79.9496 11.6128 79.7979 11.7014 79.624C11.79 79.4502 11.8408 79.2584 11.8502 79.0622ZM10.2496 74.9904L10.0216 76.5785C9.49341 76.3359 9.78297 75.2519 10.2496 74.9904ZM11.0932 78.9892C11.0928 79.079 11.072 79.1674 11.0325 79.2473C10.9929 79.3272 10.9358 79.3964 10.8656 79.4494C10.7954 79.5023 10.7142 79.5375 10.6285 79.552C10.5427 79.5666 10.4549 79.5602 10.372 79.5332L10.6425 77.6296C11.0567 77.8769 11.1593 78.2623 11.0932 78.9892Z" fill="black"/>
<path d="M19.244 86.6823L19.2128 87.8818C19.1746 87.7877 19.1517 87.6877 19.1452 87.5858C19.1379 87.4824 19.0918 87.386 19.0167 87.3172C18.9416 87.2484 18.8434 87.2127 18.7431 87.2177C18.6426 87.2239 18.5485 87.2712 18.4817 87.3491C18.4148 87.4269 18.3807 87.529 18.3867 87.6329C18.4092 87.9158 18.4923 88.19 18.6299 88.4357C18.7675 88.6814 18.9562 88.8925 19.1824 89.0538L19.174 89.3764C19.1713 89.4805 19.2088 89.5815 19.2781 89.6571C19.3474 89.7326 19.443 89.7767 19.5438 89.7795C19.6446 89.7823 19.7423 89.7437 19.8155 89.672C19.8887 89.6004 19.9313 89.5017 19.934 89.3976V89.3733C20.0862 89.4019 20.2429 89.3928 20.391 89.3466C20.5391 89.3004 20.6744 89.2185 20.7858 89.1076C20.8971 88.9967 20.9814 88.86 21.0315 88.7088C21.0816 88.5576 21.0962 88.3963 21.074 88.2382C21.116 87.8244 21.0377 87.4072 20.8493 87.0396C20.661 86.6719 20.3709 86.3705 20.0161 86.1736L20.0427 85.1209C20.1547 85.3814 20.2299 85.6571 20.2662 85.9397C20.2757 86.0438 20.325 86.1397 20.403 86.2063C20.481 86.2729 20.5815 86.3048 20.6823 86.2949C20.783 86.285 20.8759 86.2342 20.9404 86.1536C21.0049 86.073 21.0357 85.9692 21.0262 85.8651C20.9966 85.5006 20.8975 85.1457 20.7346 84.8209C20.5716 84.4961 20.3481 84.2077 20.0769 83.9725L20.0891 83.5015C20.0904 83.4499 20.0818 83.3986 20.0639 83.3505C20.046 83.3024 20.0191 83.2583 19.9848 83.2209C19.9504 83.1835 19.9092 83.1535 19.8636 83.1325C19.818 83.1116 19.7689 83.1001 19.719 83.0988C19.6691 83.0974 19.6194 83.1063 19.5728 83.1247C19.5262 83.1432 19.4836 83.171 19.4474 83.2065C19.4112 83.242 19.3821 83.2845 19.3618 83.3316C19.3415 83.3787 19.3304 83.4295 19.3291 83.4811L19.3222 83.7684C18.2202 83.9379 17.9573 86.1909 19.244 86.6823ZM20.3156 88.2523C20.3216 88.5427 20.2396 88.6558 19.9553 88.5781L19.9933 87.1172C20.2373 87.44 20.3525 87.8469 20.3156 88.2546V88.2523Z" fill="black"/>
<path d="M12.7097 21.4261C12.6565 21.4809 12.6202 21.5508 12.6055 21.627C12.5907 21.7031 12.5982 21.7821 12.6269 21.8539C12.6556 21.9257 12.7043 21.987 12.7668 22.0302C12.8293 22.0734 12.9028 22.0964 12.978 22.0964C13.1688 22.0964 13.2121 22.0179 13.5959 21.6254C14.0458 21.9957 14.611 22.184 15.1856 22.1551C15.7602 22.1262 16.3049 21.8821 16.718 21.4684C17.6687 20.3694 17.8086 19.3953 16.718 18.4148L18.529 16.5551C18.7051 16.8217 18.7888 17.1419 18.7666 17.4638C18.7444 17.7857 18.6176 18.0903 18.4067 18.3284C18.3518 18.4127 18.3308 18.5157 18.3479 18.6157C18.365 18.7157 18.419 18.805 18.4985 18.8648C18.578 18.9245 18.6768 18.9501 18.7742 18.9362C18.8716 18.9222 18.96 18.8699 19.0208 18.79C19.4159 18.2239 19.5876 17.5236 19.5011 16.8314C19.4348 16.5186 19.285 16.2311 19.0686 16.0017L19.5376 15.5205C19.5739 15.4844 19.603 15.4412 19.623 15.3933C19.6431 15.3455 19.6537 15.2941 19.6543 15.2419C19.6548 15.1898 19.6454 15.1381 19.6264 15.0899C19.6074 15.0416 19.5793 14.9977 19.5437 14.9607C19.5082 14.9238 19.4658 14.8945 19.4192 14.8746C19.3726 14.8548 19.3225 14.8447 19.2721 14.845C19.2216 14.8453 19.1718 14.8559 19.1253 14.8764C19.0789 14.8968 19.0369 14.9266 19.0018 14.9639L18.4462 15.5338C17.841 15.3044 17.1792 15.2887 16.5643 15.4891C15.9495 15.6895 15.4163 16.0948 15.0482 16.6415C14.9524 16.7953 14.8891 16.9684 14.8626 17.1493C14.8361 17.3302 14.8469 17.5149 14.8943 17.6912C14.9418 17.8674 15.0248 18.0314 15.1379 18.1722C15.251 18.313 15.3916 18.4275 15.5506 18.5082L13.5655 20.5492C13.4238 20.406 13.3379 20.2141 13.3239 20.0099C13.3099 19.8057 13.3688 19.6032 13.4895 19.4408C13.5526 19.3596 13.5819 19.2558 13.5709 19.1523C13.5599 19.0488 13.5096 18.9541 13.431 18.8889C13.3524 18.8238 13.2519 18.7935 13.1517 18.8049C13.0515 18.8162 12.9598 18.8682 12.8967 18.9494C12.6584 19.2623 12.5397 19.6546 12.5629 20.052C12.5862 20.4493 12.7498 20.824 13.0228 21.105L12.7097 21.4261ZM16.151 20.9464C15.8811 21.2008 15.534 21.3506 15.1691 21.3702C14.8042 21.3898 14.444 21.278 14.1499 21.054L16.1806 18.9706C16.8776 19.5758 16.9353 20.0405 16.151 20.9464ZM15.7026 17.0442C15.9491 16.7082 16.279 16.4474 16.6574 16.2894C17.0358 16.1314 17.4486 16.0822 17.8519 16.1469L16.1039 17.9407C15.7269 17.6832 15.4526 17.4806 15.7026 17.0442Z" fill="black"/>
<path d="M25.6458 36.2178C25.6821 36.2532 25.7248 36.2808 25.7715 36.2992C25.8181 36.3175 25.8678 36.3261 25.9177 36.3246C25.9676 36.3231 26.0167 36.3114 26.0623 36.2902C26.1078 36.2691 26.1489 36.2389 26.1831 36.2013L26.5023 35.8512C26.9285 36.1944 27.4647 36.3582 28.003 36.3095C28.5414 36.2609 29.0419 36.0035 29.404 35.5891C30.2818 34.5144 30.4862 33.548 29.48 32.5841L31.1953 30.704C31.2685 30.8015 31.3204 30.9142 31.3473 31.0345C31.3911 31.5276 31.2634 32.0208 30.987 32.4255C30.9295 32.511 30.9072 32.6165 30.925 32.719C30.9428 32.8215 30.9993 32.9124 31.082 32.9719C31.1648 33.0313 31.267 33.0544 31.3662 33.036C31.4654 33.0176 31.5535 32.9592 31.611 32.8737C32.0047 32.2882 32.175 31.573 32.089 30.8657C32.0312 30.5915 31.9058 30.3373 31.725 30.1278L32.1848 29.623C32.2505 29.5467 32.2849 29.4469 32.2805 29.3448C32.2761 29.2427 32.2333 29.1464 32.1612 29.0764C32.0892 29.0064 31.9935 28.9681 31.8946 28.9698C31.7957 28.9715 31.7013 29.0129 31.6315 29.0853L31.1124 29.6537C30.537 29.464 29.9172 29.4744 29.3481 29.6834C28.7789 29.8924 28.2918 30.2884 27.9615 30.8108C27.8599 30.957 27.7891 31.1237 27.7537 31.3C27.7182 31.4763 27.719 31.6583 27.7559 31.8342C27.7928 32.0102 27.8649 32.1762 27.9678 32.3216C28.0706 32.467 28.2018 32.5885 28.3529 32.6783L26.4757 34.7358C26.3613 34.5848 26.2997 34.3984 26.3008 34.2067C26.3019 34.0151 26.3657 33.8294 26.4818 33.6799C26.5429 33.5972 26.5698 33.4927 26.5564 33.3895C26.543 33.2863 26.4904 33.1928 26.4103 33.1296C26.3302 33.0665 26.2291 33.0387 26.1291 33.0526C26.0292 33.0664 25.9387 33.1207 25.8776 33.2034C25.6516 33.5101 25.5349 33.8878 25.5469 34.273C25.5589 34.6581 25.6991 35.0273 25.9437 35.3182L25.629 35.6628C25.5948 35.7004 25.5681 35.7446 25.5505 35.7928C25.5328 35.841 25.5245 35.8924 25.5261 35.9439C25.5276 35.9955 25.539 36.0462 25.5595 36.0932C25.5801 36.1402 25.6094 36.1825 25.6458 36.2178ZM28.8233 35.0827C28.5966 35.3313 28.2907 35.487 27.9618 35.5213C27.6329 35.5556 27.303 35.4662 27.0328 35.2696L28.9624 33.1548C29.4952 33.6634 29.6168 34.1109 28.8233 35.0827ZM28.7906 32.0361C28.7186 32.0037 28.6549 31.9542 28.6047 31.8918C28.5544 31.8293 28.519 31.7556 28.5013 31.6765C28.4836 31.5974 28.484 31.5151 28.5026 31.4362C28.5211 31.3573 28.5573 31.284 28.6082 31.2221C28.8235 30.9061 29.1145 30.6531 29.4527 30.488C29.7909 30.3229 30.1648 30.2513 30.5379 30.2801L28.8818 32.0958L28.7906 32.0361Z" fill="black"/>
<path d="M92.9617 18.3275C93.075 17.5205 92.6448 17.0385 91.9988 17.0919C91.6191 17.091 91.2483 17.2112 90.9371 17.4359C90.6259 17.6607 90.3894 17.9792 90.2599 18.3479H89.4824C89.6977 18.1817 89.9458 18.0668 90.209 18.0111C90.3085 17.994 90.3973 17.9367 90.4558 17.8519C90.5144 17.7671 90.538 17.6617 90.5214 17.559C90.5047 17.4562 90.4493 17.3645 90.3672 17.304C90.2851 17.2435 90.1831 17.2192 90.0836 17.2363C89.7576 17.297 89.4479 17.4286 89.1749 17.6224C88.902 17.8162 88.6721 18.0678 88.5005 18.3605H88.1798C88.079 18.3605 87.9824 18.4018 87.9111 18.4754C87.8398 18.549 87.7998 18.6489 87.7998 18.753C87.7998 18.8571 87.8398 18.9569 87.9111 19.0305C87.9824 19.1041 88.079 19.1455 88.1798 19.1455H88.3234C88.4443 20.3803 90.3678 20.5585 90.7919 19.1203H91.7039C91.6134 19.1976 91.504 19.2476 91.3878 19.2648C91.3369 19.2693 91.2874 19.2843 91.2423 19.309C91.1972 19.3337 91.1574 19.3675 91.1252 19.4084C91.093 19.4494 91.0691 19.4966 91.055 19.5473C91.0409 19.5979 91.0368 19.651 91.043 19.7034C91.0491 19.7557 91.0655 19.8062 91.091 19.8519C91.1165 19.8976 91.1506 19.9375 91.1914 19.9693C91.2322 20.001 91.2787 20.0239 91.3282 20.0367C91.3778 20.0495 91.4293 20.0518 91.4797 20.0435C91.737 19.9929 91.9796 19.8822 92.189 19.7199C92.3985 19.5576 92.5692 19.348 92.6881 19.107H92.8895C92.985 19.1077 93.0773 19.0713 93.148 19.0049C93.2187 18.9385 93.2626 18.8471 93.2709 18.7488C93.2792 18.6505 93.2514 18.5525 93.193 18.4745C93.1346 18.3964 93.0498 18.3439 92.9556 18.3275H92.9617ZM92.0497 17.8746C92.169 17.8683 92.2017 17.8793 92.2146 18.019C92.2212 18.1248 92.2104 18.2309 92.1827 18.333H91.1187C91.2254 18.1826 91.3667 18.062 91.5297 17.982C91.6927 17.9019 91.8725 17.865 92.0528 17.8746H92.0497Z" fill="black"/>
<path d="M40.2281 134.509L39.6323 135.123C38.9904 134.905 38.2973 134.91 37.6581 135.136C37.019 135.362 36.4686 135.797 36.0907 136.375C35.9981 136.53 35.9382 136.704 35.915 136.884C35.8918 137.065 35.9057 137.249 35.956 137.423C36.0062 137.598 36.0915 137.76 36.2064 137.898C36.3213 138.036 36.4631 138.148 36.6227 138.225L34.5121 140.399C34.3667 140.249 34.28 140.048 34.2686 139.836C34.2572 139.624 34.322 139.415 34.4506 139.249C34.5139 139.168 34.5434 139.064 34.5326 138.961C34.5219 138.857 34.4717 138.762 34.3932 138.697C34.3147 138.631 34.2142 138.601 34.114 138.612C34.0137 138.623 33.9218 138.675 33.8585 138.756C33.6118 139.072 33.4868 139.472 33.5076 139.877C33.5284 140.283 33.6934 140.666 33.971 140.954L33.629 141.307C33.5577 141.38 33.5175 141.48 33.5175 141.584C33.5174 141.688 33.5574 141.788 33.6286 141.862C33.6999 141.936 33.7966 141.977 33.8974 141.977C33.9982 141.977 34.095 141.936 34.1663 141.862L34.5463 141.47C35.0189 141.841 35.6056 142.022 36.1978 141.981C36.79 141.939 37.3475 141.677 37.7672 141.244C38.7507 140.109 38.9239 139.105 37.7984 138.121L39.7265 136.135C40.1909 136.637 39.9461 137.423 39.5745 137.971C39.5148 138.055 39.4899 138.16 39.5051 138.263C39.5204 138.366 39.5746 138.458 39.6558 138.52C39.737 138.581 39.8386 138.607 39.9383 138.591C40.0379 138.576 40.1274 138.52 40.1871 138.436C40.6041 137.848 40.7869 137.118 40.6978 136.395C40.6296 136.087 40.4793 135.805 40.2638 135.581L40.7662 135.063C40.8015 135.027 40.8295 134.984 40.8487 134.936C40.8678 134.888 40.8777 134.837 40.8777 134.786C40.8778 134.734 40.868 134.683 40.8489 134.636C40.8298 134.588 40.8018 134.545 40.7666 134.508C40.7313 134.472 40.6894 134.443 40.6433 134.423C40.5971 134.403 40.5477 134.393 40.4978 134.393C40.4479 134.393 40.3984 134.403 40.3523 134.423C40.3061 134.442 40.2642 134.471 40.2289 134.508L40.2281 134.509ZM37.1987 140.722C36.9202 140.993 36.5608 141.158 36.1795 141.19C35.7981 141.223 35.4174 141.121 35.0996 140.901L37.2573 138.678C37.9595 139.266 38.0507 139.74 37.1987 140.722ZM36.7541 136.762C37.0124 136.398 37.3597 136.112 37.7603 135.933C38.161 135.754 38.6006 135.688 39.0341 135.742L37.1752 137.657C36.7914 137.407 36.4988 137.223 36.7541 136.762Z" fill="black"/>
</svg>
