<svg width="106" height="122" viewBox="0 0 106 122" fill="none" xmlns="http://www.w3.org/2000/svg">
<path d="M63 56V79L102 42.4146L63 4V26.0122C37.3406 25.6206 4 34.5294 4 74C4 98.6405 16.9934 111.37 33 117.363V56H63Z" fill="#FFFB9B"/>
<path d="M9.65135 98.2787L19.0353 102.422L21.459 96.9337L6.24591 90.2161C7.14384 93.1493 8.29114 95.8305 9.65135 98.2787Z" fill="#FF729B"/>
<path d="M91.4916 32.064L97.5539 38.0353L87.0284 38.0852L87 32.0852L91.4916 32.064Z" fill="#FF729B"/>
<path d="M44.1729 27.5523C45.9588 27.2115 47.7532 26.9333 49.5444 26.7114L51.5701 30.1818L36.0247 39.256L33 34.0742L44.1729 27.5523Z" fill="#FF729B"/>
<path d="M12.2204 45.7005C13.4499 44.0159 14.7934 42.4635 16.2342 41.0345L20.7195 43.4017L17.9189 48.708L12.2204 45.7005Z" fill="#FF729B"/>
<path d="M79.6978 42.5107L63.8369 34L61 39.287L76.8609 47.7976L79.6978 42.5107Z" fill="#FF729B"/>
<path d="M23.6422 71.4801L11.5094 58.1837L7.07725 62.2279L19.2101 75.5244L23.6422 71.4801Z" fill="#FF729B"/>
<path d="M96.5566 38.3965L60 72.6895V51H28V111.9C20.6723 108.944 14.1118 104.505 9.29785 98.0752C4.19583 91.2602 1 82.1356 1 70C1 50.6052 9.16083 38.8358 20.4023 31.9092C31.7154 24.9385 46.2467 22.8174 58.9844 23.0117L60 23.0273V2.38867L96.5566 38.3965Z" stroke="black" stroke-width="2"/>
<path d="M59 60V52H29V113.363C24.5027 111.679 20.2432 109.464 16.443 106.601C21.6964 113.654 28.9689 118.356 37 121.363V60H59Z" fill="black"/>
<path d="M59 75L67 83L106 46.4146L97.9376 38.4732L59 75Z" fill="black"/>
</svg>
