<svg width="46" height="12" viewBox="0 0 46 12" fill="none" xmlns="http://www.w3.org/2000/svg">
<path d="M1.65057 11H0.357955L4.09659 0.818182H5.36932L9.10795 11H7.81534L4.77273 2.42898H4.69318L1.65057 11ZM2.12784 7.02273H7.33807V8.11648H2.12784V7.02273ZM10.5348 11V3.36364H11.6683V4.51705H11.7479C11.8871 4.1392 12.139 3.83262 12.5036 3.5973C12.8681 3.36198 13.2791 3.24432 13.7365 3.24432C13.8227 3.24432 13.9304 3.24597 14.0597 3.24929C14.1889 3.2526 14.2867 3.25758 14.353 3.2642V4.45739C14.3132 4.44744 14.2221 4.43253 14.0795 4.41264C13.9403 4.38944 13.7929 4.37784 13.6371 4.37784C13.2659 4.37784 12.9344 4.45573 12.6428 4.61151C12.3544 4.76397 12.1257 4.97609 11.9567 5.24787C11.791 5.51634 11.7081 5.82292 11.7081 6.16761V11H10.5348ZM15.7438 11V3.36364H16.8773V4.51705H16.9569C17.0961 4.1392 17.348 3.83262 17.7125 3.5973C18.0771 3.36198 18.4881 3.24432 18.9455 3.24432C19.0317 3.24432 19.1394 3.24597 19.2686 3.24929C19.3979 3.2526 19.4957 3.25758 19.562 3.2642V4.45739C19.5222 4.44744 19.431 4.43253 19.2885 4.41264C19.1493 4.38944 19.0018 4.37784 18.8461 4.37784C18.4748 4.37784 18.1434 4.45573 17.8517 4.61151C17.5634 4.76397 17.3347 4.97609 17.1657 5.24787C16.9999 5.51634 16.9171 5.82292 16.9171 6.16761V11H15.7438ZM23.8226 11.1591C23.1332 11.1591 22.5284 10.995 22.008 10.6669C21.4909 10.3388 21.0866 9.87973 20.7949 9.28977C20.5066 8.69981 20.3624 8.01042 20.3624 7.22159C20.3624 6.42614 20.5066 5.73177 20.7949 5.13849C21.0866 4.54522 21.4909 4.08452 22.008 3.75639C22.5284 3.42827 23.1332 3.2642 23.8226 3.2642C24.512 3.2642 25.1152 3.42827 25.6323 3.75639C26.1526 4.08452 26.557 4.54522 26.8453 5.13849C27.137 5.73177 27.2828 6.42614 27.2828 7.22159C27.2828 8.01042 27.137 8.69981 26.8453 9.28977C26.557 9.87973 26.1526 10.3388 25.6323 10.6669C25.1152 10.995 24.512 11.1591 23.8226 11.1591ZM23.8226 10.1051C24.3463 10.1051 24.7772 9.97088 25.1152 9.70241C25.4533 9.43395 25.7035 9.08097 25.8659 8.64347C26.0284 8.20597 26.1096 7.73201 26.1096 7.22159C26.1096 6.71117 26.0284 6.23556 25.8659 5.79474C25.7035 5.35393 25.4533 4.99763 25.1152 4.72585C24.7772 4.45407 24.3463 4.31818 23.8226 4.31818C23.2989 4.31818 22.8681 4.45407 22.53 4.72585C22.1919 4.99763 21.9417 5.35393 21.7793 5.79474C21.6169 6.23556 21.5357 6.71117 21.5357 7.22159C21.5357 7.73201 21.6169 8.20597 21.7793 8.64347C21.9417 9.08097 22.1919 9.43395 22.53 9.70241C22.8681 9.97088 23.2989 10.1051 23.8226 10.1051ZM30.5442 11L28.2175 3.36364H29.4505L31.101 9.21023H31.1806L32.8113 3.36364H34.0641L35.6749 9.19034H35.7544L37.405 3.36364H38.638L36.3113 11H35.1578L33.4874 5.13352H33.3681L31.6976 11H30.5442ZM45.5982 5.07386L44.5442 5.37216C44.4779 5.1965 44.3801 5.0258 44.2509 4.86009C44.1249 4.69105 43.9526 4.55185 43.7338 4.44247C43.5151 4.3331 43.235 4.27841 42.8936 4.27841C42.4263 4.27841 42.0369 4.38613 41.7253 4.60156C41.4171 4.81368 41.263 5.08381 41.263 5.41193C41.263 5.7036 41.369 5.93395 41.5811 6.10298C41.7933 6.27202 42.1247 6.41288 42.5755 6.52557L43.709 6.80398C44.3917 6.9697 44.9005 7.22325 45.2353 7.56463C45.57 7.9027 45.7374 8.33854 45.7374 8.87216C45.7374 9.30966 45.6114 9.70076 45.3596 10.0455C45.111 10.3902 44.763 10.6619 44.3155 10.8608C43.8681 11.0597 43.3477 11.1591 42.7544 11.1591C41.9756 11.1591 41.3309 10.9901 40.8205 10.652C40.3101 10.3139 39.9869 9.82008 39.851 9.17045L40.9647 8.89205C41.0707 9.30303 41.2712 9.61127 41.5662 9.81676C41.8645 10.0223 42.254 10.125 42.7346 10.125C43.2814 10.125 43.7156 10.009 44.0371 9.77699C44.3619 9.54167 44.5243 9.25994 44.5243 8.93182C44.5243 8.66667 44.4315 8.4446 44.2459 8.26562C44.0603 8.08333 43.7753 7.94744 43.3908 7.85795L42.1181 7.55966C41.4187 7.39394 40.905 7.13707 40.5769 6.78906C40.2521 6.43774 40.0897 5.99858 40.0897 5.47159C40.0897 5.04072 40.2106 4.65956 40.4526 4.32812C40.6979 3.99669 41.031 3.73651 41.4519 3.54758C41.8761 3.35866 42.3567 3.2642 42.8936 3.2642C43.6493 3.2642 44.2426 3.42992 44.6735 3.76136C45.1077 4.0928 45.4159 4.5303 45.5982 5.07386Z" fill="#A1A7C4"/>
</svg>
