<svg width="106" height="122" viewBox="0 0 106 122" fill="none" xmlns="http://www.w3.org/2000/svg">
<path d="M63 56V79L102 42.4146L63 4V26.0122C37.3406 25.6206 4 34.5294 4 74C4 98.6405 16.9934 111.37 33 117.363V56H63Z" fill="#2285FF"/>
<path d="M65.735 6.69395L63 4V14.4574C64.0256 12.0172 64.937 9.43155 65.735 6.69395Z" fill="#19E59B"/>
<path d="M56.4493 26.1203C38.8423 26.983 19.3752 32.6769 9.87164 49.3301C31.0852 46.5949 46.5309 39.5669 56.4493 26.1203Z" fill="#19E59B"/>
<path d="M6.5058 91.0368C4.89545 86.1163 4 80.4686 4 74C4 73.2629 4.01163 72.5364 4.03462 71.8205C15.8384 70.8613 25.2025 68.3425 33 64.7968V73.6214C24.0337 77.4817 20.2313 81.4205 17.1409 84.6217C14.2161 87.6514 11.9291 90.0204 6.5058 91.0368Z" fill="#19E59B"/>
<path d="M33 93.5152V117.363C28.2566 115.587 23.7778 113.219 19.8233 110.126C22.8825 102.238 26.7117 97.6578 33 93.5152Z" fill="#19E59B"/>
<path d="M78.4696 64.4882C74.5759 65.1188 70.7566 65.5257 66.8951 65.937C65.6029 66.0747 64.306 66.2129 63 66.3601V56H47.4017C54.2759 50.6128 59.9096 44.3763 65.597 38.0804C70.529 32.6208 75.5013 27.1166 81.358 22.0824L102 42.4146L78.4696 64.4882Z" fill="#19E59B"/>
<path d="M96.5566 38.3965L60 72.6895V51H28V111.9C20.6723 108.944 14.1118 104.505 9.29785 98.0752C4.19583 91.2602 1 82.1356 1 70C1 50.6052 9.16083 38.8358 20.4023 31.9092C31.7154 24.9385 46.2467 22.8174 58.9844 23.0117L60 23.0273V2.38867L96.5566 38.3965Z" stroke="black" stroke-width="2"/>
<path d="M59 60V52H29V113.363C24.5027 111.679 20.2432 109.464 16.443 106.601C21.6964 113.654 28.9689 118.356 37 121.363V60H59Z" fill="black"/>
<path d="M59 75L67 83L106 46.4146L97.9376 38.4732L59 75Z" fill="black"/>
</svg>
