<svg width="600" height="600" viewBox="0 0 600 600" fill="none" xmlns="http://www.w3.org/2000/svg">
<path d="M108.895 286.113C104.341 283.642 101.249 278.818 101.249 273.272C101.249 267.208 104.946 262.008 110.209 259.802C111.434 259.084 112.87 258.672 114.398 258.672L513.405 258.672C513.408 258.672 513.411 258.672 513.414 258.672H514.855C516.384 258.672 517.82 259.084 519.046 259.802C524.308 262.008 528.005 267.209 528.005 273.272C528.005 278.818 524.913 283.642 520.358 286.113C517.761 298.578 513.395 310.796 507.322 322.526C496.84 342.77 481.477 361.164 462.109 376.658C447.383 388.439 430.562 398.367 412.222 406.136C416.252 408.594 418.942 413.031 418.942 418.096V419.296C418.942 427.028 412.674 433.296 404.942 433.296H224.371C216.639 433.296 210.371 427.028 210.371 419.296V418.096C210.371 413.041 213.05 408.611 217.067 406.151C198.713 398.38 181.88 388.446 167.145 376.658C147.777 361.164 132.414 342.77 121.932 322.526C115.859 310.796 111.493 298.578 108.895 286.113Z" fill="#FFE790"/>
<path d="M303.671 259.737H422.182L502.674 186.932C510.121 180.196 511.103 168.854 504.926 160.938L497.463 151.373C491.285 143.457 480.044 141.653 471.701 147.24L303.671 259.737Z" fill="#FFE790"/>
<path d="M100.149 272.172H500.606C501.683 272.172 502.684 272.462 503.533 272.959L503.677 273.043L503.83 273.108C508.196 274.939 511.256 279.251 511.256 284.272C511.256 288.865 508.698 292.864 504.917 294.916L503.898 295.468L503.662 296.603C501.112 308.839 496.825 320.842 490.853 332.376C480.546 352.283 465.417 370.411 446.299 385.706C431.762 397.335 415.14 407.149 396.998 414.833L392.513 416.734L396.672 419.27C399.988 421.293 402.193 424.938 402.193 429.096V430.296C402.193 436.648 397.045 441.796 390.693 441.796H210.122C203.771 441.796 198.622 436.648 198.622 430.296V429.096C198.622 424.947 200.818 421.307 204.124 419.282L208.268 416.743L203.793 414.848C185.637 407.161 169.003 397.342 154.457 385.706C135.339 370.411 120.21 352.283 109.903 332.376C103.931 320.842 99.6438 308.839 97.0938 296.603L96.8574 295.468L95.8389 294.916L95.4883 294.718C91.9007 292.614 89.5 288.721 89.5 284.272C89.5002 279.25 92.5601 274.937 96.9268 273.107L97.0801 273.042L97.2236 272.958C97.9669 272.523 98.826 272.248 99.75 272.186L100.149 272.172Z" stroke="#1E1E1E" stroke-width="5"/>
<path d="M298.409 270.737L460.234 162.394C466.4 158.266 474.707 159.599 479.272 165.449L486.736 175.014C491.3 180.864 490.574 189.246 485.071 194.224L400.48 270.737H407.933L488.425 197.932C495.872 191.196 496.855 179.854 490.677 171.938L483.214 162.373C477.037 154.457 465.796 152.653 457.452 158.24L289.422 270.737H298.409Z" fill="#1E1E1E"/>
</svg>
