<svg width="600" height="600" viewBox="0 0 600 600" fill="none" xmlns="http://www.w3.org/2000/svg">
<path d="M209.3 254.366L214.493 254.366L211.894 246.649L209.3 254.366Z" fill="#1E1E1E"/>
<path fill-rule="evenodd" clip-rule="evenodd" d="M541.691 204.007L586.873 185.53C587.584 185.24 587.92 184.426 587.623 183.719L583.99 175.077C583.692 174.37 582.875 174.041 582.171 174.345L537.43 193.675C508.558 144.044 396.962 160.004 312.8 178.261C272.14 187.081 222.774 211.209 206.313 219.255C204.401 220.189 202.934 220.906 201.975 221.358C199.875 222.346 201.055 229.391 202.715 236.057C204.31 242.461 206.349 248.515 206.349 248.515C205.214 248.515 202.379 244.984 199.159 240.973L199.158 240.971C198.569 240.237 197.967 239.488 197.361 238.741C193.227 233.651 188.869 228.682 186.829 229.739C71.87 289.315 -5.25509 370.302 14.6352 419.54C14.7082 419.721 14.7825 419.902 14.8582 420.082C29.8101 455.644 84.6813 456.917 163.481 445.25C169.542 444.353 171.438 425.723 172.03 413.557C172.32 407.588 172.296 403.175 172.296 403.175C172.296 403.175 174.531 406.825 177.961 411.892C186.131 423.963 201.083 444.076 208.761 442.044C219.046 439.323 231.365 437.399 244.942 435.279C270.326 431.315 300.108 426.664 329.215 414.83C376.058 395.785 437.928 353.302 477.713 318.47C503.112 301.803 549.089 237.807 541.691 204.007ZM166.333 382.229L175.964 353.567L536.173 206.264C537.183 211.957 536.538 219.086 534.237 227.378C531.277 238.043 525.803 249.82 518.978 261.351C505.222 284.592 486.777 305.524 474.503 313.578L474.164 313.801L473.859 314.068C434.364 348.646 373.046 390.693 327.011 409.41C305.258 418.254 283.012 423.02 262.319 426.552C256.244 427.589 250.239 428.527 244.403 429.439C230.785 431.566 218.084 433.55 207.547 436.314C207.406 436.279 207.123 436.189 206.668 435.963C205.583 435.424 204.134 434.406 202.362 432.824C198.838 429.677 194.88 425.066 191.078 420.124C187.313 415.23 183.859 410.222 181.337 406.42C180.079 404.523 179.059 402.938 178.357 401.831C178.007 401.277 177.735 400.844 177.553 400.552C177.463 400.406 177.394 400.295 177.349 400.222L177.3 400.142L177.288 400.123L166.333 382.229ZM20.0508 417.326C20.1166 417.489 20.1835 417.652 20.2517 417.814C26.5368 432.763 41.3908 441.38 65.9805 444.575C90.3773 447.745 122.806 445.322 161.732 439.594C162.101 439.013 162.583 437.978 163.085 436.369C164.159 432.923 164.932 428.165 165.457 423.107C165.975 418.12 166.224 413.136 166.342 409.378C166.4 407.504 166.426 405.949 166.438 404.867C166.443 404.326 166.445 403.905 166.446 403.621C166.446 403.48 166.446 403.373 166.446 403.303L166.446 403.226L166.333 382.229L175.964 353.567L20.0508 417.326ZM20.008 417.219L177.429 349.208L532.014 196.015C526.349 186.65 517.127 179.778 504.806 174.982C490.106 169.259 471.377 166.663 450.222 166.386C407.928 165.831 357.541 174.542 314.04 183.978C274.193 192.622 225.64 216.33 208.971 224.47L208.969 224.471C208.141 224.875 207.391 225.241 206.725 225.565C206.732 225.682 206.741 225.806 206.752 225.939C206.93 228.103 207.516 231.076 208.3 234.268C209.069 237.398 209.968 240.499 210.682 242.834C211.037 243.997 211.343 244.96 211.559 245.628C211.667 245.962 211.752 246.222 211.81 246.396C211.839 246.483 211.861 246.548 211.875 246.591L211.89 246.637L211.894 246.647L209.3 254.366L206.349 254.366C204.525 254.366 203.173 253.586 202.643 253.258C201.965 252.84 201.384 252.352 200.942 251.95C200.047 251.135 199.118 250.107 198.255 249.102C197.131 247.792 195.812 246.149 194.502 244.519C193.827 243.678 193.154 242.84 192.512 242.053C190.501 239.586 188.686 237.482 187.227 236.128C130.979 265.549 84.2896 299.969 54.1327 332.844C38.8408 349.514 28.0044 365.566 22.2179 380.156C16.5491 394.45 15.884 406.89 20.008 417.219ZM161.459 439.964C161.459 439.963 161.466 439.955 161.481 439.941C161.467 439.958 161.459 439.965 161.459 439.964ZM206.734 224.145C206.752 224.049 206.757 224.069 206.73 224.169C206.731 224.16 206.733 224.152 206.734 224.145ZM580.479 181.824L564.271 188.452L580.346 181.507L580.479 181.824Z" fill="#1E1E1E"/>
<path d="M406.301 292.369C406.138 293.455 405.831 294.899 405.248 296.317C405.021 296.868 404.695 297.449 404.33 298.014C406.737 300.843 407.356 307.728 397.134 322.063C385.717 338.075 357.56 368.636 354.542 366.483C352.532 365.05 363.241 351.443 373.993 337.783C379.384 330.933 384.785 324.07 388.598 318.723C390.384 316.218 392.369 312.558 394.324 308.953C397.946 302.274 401.466 295.784 403.426 297.182C403.624 297.323 403.817 297.483 404.004 297.665C404.329 297.152 404.616 296.634 404.817 296.145C405.381 294.772 405.682 293.367 405.841 292.302C405.92 291.77 405.964 291.325 405.988 291.013C406 290.857 406.007 290.735 406.011 290.652C406.013 290.61 406.014 290.579 406.015 290.558L406.016 290.534L406.016 290.529L406.016 290.527L406.249 290.532C406.481 290.537 406.481 290.537 406.481 290.538L406.481 290.54L406.481 290.547L406.48 290.573C406.479 290.596 406.478 290.63 406.476 290.673C406.471 290.76 406.464 290.887 406.452 291.048C406.427 291.368 406.382 291.824 406.301 292.369Z" stroke="#1E1E1E" stroke-width="3"/>
<path d="M396.822 293.072C396.109 293.661 395.17 294.497 394.258 295.485C393.43 296.382 392.518 297.661 391.809 298.722L391.747 298.814C394.11 300.837 392.516 303.229 381.774 318.294C370.356 334.306 346.218 360.76 343.2 358.607C340.752 356.862 352.92 340.163 363.698 325.372C366.212 321.921 368.65 318.575 370.81 315.546C375.903 308.403 388.237 296.282 391.256 298.434C391.299 298.465 391.341 298.496 391.383 298.526L391.42 298.47C392.132 297.405 393.061 296.101 393.914 295.177C394.844 294.169 395.8 293.319 396.523 292.721C396.885 292.422 397.189 292.185 397.403 292.023C397.51 291.942 397.594 291.88 397.652 291.837C397.681 291.816 397.704 291.8 397.719 291.789L397.736 291.777L397.741 291.774L397.742 291.773L397.878 291.959L398.013 292.145L398.012 292.146L398.008 292.149L397.992 292.16C397.978 292.17 397.957 292.186 397.929 292.206C397.873 292.247 397.791 292.308 397.686 292.387C397.477 292.545 397.178 292.778 396.822 293.072Z" stroke="#1E1E1E" stroke-width="3"/>
<path d="M210.745 291.298L212.245 291.298C212.245 290.585 211.743 289.97 211.045 289.828C210.346 289.686 209.644 290.055 209.365 290.711L210.745 291.298ZM156.992 291.298L158.364 290.69C158.08 290.05 157.391 289.691 156.704 289.826C156.017 289.961 155.514 290.553 155.493 291.253L156.992 291.298ZM183.848 304.638V306.138C183.863 306.138 183.879 306.137 183.894 306.137L183.848 304.638ZM190.15 284.697L188.827 283.991L187.428 286.611L190.367 286.182L190.15 284.697ZM197.778 294.817L196.447 294.125L195.078 296.757L198.009 296.299L197.778 294.817ZM190.103 284.704L190.329 286.187L191.076 286.074L191.429 285.406L190.103 284.704ZM197.756 294.859L197.53 293.376L196.783 293.49L196.43 294.158L197.756 294.859ZM197.709 294.866L199.032 295.573L200.431 292.953L197.492 293.382L197.709 294.866ZM190.081 284.747L191.412 285.439L192.781 282.807L189.849 283.265L190.081 284.747ZM197.731 294.824L197.953 296.307L198.705 296.195L199.059 295.522L197.731 294.824ZM190.128 284.739L189.906 283.256L189.154 283.369L188.8 284.042L190.128 284.739ZM175.525 294.284C176.351 294.219 176.968 293.497 176.903 292.671C176.838 291.845 176.115 291.229 175.289 291.294L175.525 294.284ZM165.579 278.219L165.515 276.72C164.713 276.755 164.079 277.415 164.079 278.219H165.579ZM177.921 288.509C177.827 289.332 178.417 290.076 179.241 290.17C180.064 290.264 180.807 289.673 180.902 288.85L177.921 288.509ZM179.219 294.348C179.874 294.856 180.816 294.737 181.324 294.082C181.832 293.428 181.713 292.485 181.058 291.978L179.219 294.348ZM171.332 281.005C171.013 280.24 170.135 279.878 169.371 280.197C168.606 280.515 168.244 281.393 168.562 282.158L171.332 281.005ZM175.446 282.441C175.508 281.615 174.889 280.895 174.063 280.833C173.237 280.771 172.517 281.39 172.455 282.217L175.446 282.441ZM170.1 285.32C169.276 285.235 168.539 285.834 168.455 286.659C168.37 287.483 168.969 288.219 169.794 288.304L170.1 285.32ZM210.745 291.298C209.245 291.298 209.245 291.297 209.245 291.296C209.245 291.296 209.245 291.295 209.245 291.295C209.245 291.294 209.245 291.293 209.245 291.293C209.245 291.293 209.245 291.293 209.245 291.295C209.245 291.299 209.245 291.307 209.244 291.319C209.244 291.344 209.243 291.386 209.24 291.444C209.235 291.56 209.223 291.739 209.2 291.974C209.153 292.444 209.057 293.129 208.864 293.958C208.476 295.62 207.701 297.833 206.154 300.042C203.117 304.38 196.89 309.007 183.848 309.007V312.007C197.703 312.007 204.924 307.029 208.612 301.763C210.427 299.17 211.333 296.58 211.785 294.64C212.012 293.668 212.127 292.853 212.185 292.273C212.214 291.982 212.229 291.749 212.237 291.583C212.241 291.501 212.243 291.435 212.244 291.387C212.244 291.363 212.245 291.343 212.245 291.328C212.245 291.321 212.245 291.315 212.245 291.31C212.245 291.307 212.245 291.305 212.245 291.303C212.245 291.302 212.245 291.301 212.245 291.3C212.245 291.299 212.245 291.298 210.745 291.298ZM183.848 309.007C170.523 309.007 164.322 304.372 161.37 300.056C159.865 297.855 159.143 295.65 158.799 293.994C158.627 293.167 158.551 292.484 158.517 292.016C158.5 291.782 158.494 291.603 158.492 291.487C158.491 291.43 158.491 291.388 158.492 291.364C158.492 291.351 158.492 291.344 158.492 291.34C158.492 291.338 158.492 291.338 158.492 291.338C158.492 291.338 158.492 291.339 158.492 291.34C158.492 291.34 158.492 291.341 158.492 291.341C158.492 291.342 158.492 291.343 156.992 291.298C155.493 291.253 155.493 291.254 155.493 291.255C155.493 291.255 155.493 291.257 155.493 291.258C155.493 291.26 155.493 291.262 155.493 291.264C155.493 291.27 155.492 291.276 155.492 291.283C155.492 291.298 155.492 291.318 155.492 291.342C155.491 291.39 155.491 291.457 155.493 291.54C155.496 291.706 155.504 291.939 155.525 292.231C155.567 292.813 155.659 293.63 155.862 294.604C156.266 296.55 157.114 299.147 158.893 301.749C162.51 307.038 169.736 312.007 183.848 312.007V309.007ZM156.992 291.298C155.621 291.906 155.622 291.907 155.622 291.908C155.622 291.908 155.623 291.909 155.623 291.91C155.624 291.912 155.625 291.914 155.625 291.916C155.627 291.92 155.629 291.924 155.632 291.93C155.637 291.941 155.644 291.955 155.652 291.973C155.668 292.008 155.691 292.055 155.72 292.114C155.779 292.232 155.863 292.396 155.976 292.6C156.203 293.007 156.544 293.574 157.018 294.247C157.967 295.592 159.452 297.365 161.621 299.131C165.983 302.681 173.03 306.138 183.848 306.138V303.138C173.727 303.138 167.347 299.924 163.515 296.804C161.588 295.236 160.285 293.674 159.47 292.518C159.062 291.94 158.778 291.465 158.599 291.142C158.509 290.981 158.446 290.859 158.408 290.781C158.389 290.742 158.375 290.715 158.368 290.699C158.364 290.692 158.362 290.687 158.362 290.685C158.361 290.684 158.361 290.684 158.361 290.685C158.362 290.685 158.362 290.686 158.362 290.687C158.362 290.687 158.363 290.688 158.363 290.688C158.363 290.689 158.364 290.69 156.992 291.298ZM183.894 306.137C194.96 305.794 202.001 302.35 206.302 298.886C208.442 297.161 209.882 295.449 210.794 294.15C211.25 293.501 211.574 292.955 211.789 292.561C211.896 292.364 211.976 292.205 212.031 292.091C212.058 292.033 212.08 291.987 212.095 291.953C212.103 291.935 212.11 291.921 212.115 291.91C212.117 291.904 212.119 291.899 212.121 291.895C212.122 291.893 212.123 291.891 212.123 291.89C212.124 291.889 212.124 291.888 212.124 291.887C212.125 291.886 212.125 291.885 210.745 291.298C209.365 290.711 209.365 290.71 209.365 290.709C209.365 290.709 209.366 290.708 209.366 290.707C209.366 290.706 209.367 290.706 209.367 290.705C209.367 290.704 209.368 290.704 209.367 290.704C209.367 290.705 209.365 290.709 209.362 290.716C209.356 290.729 209.345 290.754 209.327 290.79C209.293 290.861 209.236 290.975 209.154 291.126C208.989 291.428 208.724 291.877 208.339 292.426C207.568 293.525 206.315 295.022 204.42 296.549C200.648 299.588 194.241 302.814 183.801 303.138L183.894 306.137ZM210.196 286.824C210.196 291.06 207.511 295.105 202.731 298.165C197.967 301.214 191.295 303.149 183.848 303.149V306.149C191.781 306.149 199.033 304.094 204.348 300.692C209.647 297.3 213.196 292.433 213.196 286.824H210.196ZM183.848 270.5C191.295 270.5 197.967 272.435 202.731 275.484C207.511 278.544 210.196 282.589 210.196 286.824H213.196C213.196 281.216 209.647 276.349 204.348 272.957C199.033 269.555 191.781 267.5 183.848 267.5V270.5ZM157.5 286.824C157.5 282.589 160.185 278.544 164.965 275.484C169.729 272.435 176.401 270.5 183.848 270.5V267.5C175.915 267.5 168.663 269.555 163.348 272.957C158.049 276.349 154.5 281.216 154.5 286.824H157.5ZM183.848 303.149C176.401 303.149 169.729 301.214 164.965 298.165C160.185 295.105 157.5 291.06 157.5 286.824H154.5C154.5 292.433 158.049 297.3 163.348 300.692C168.663 304.094 175.915 306.149 183.848 306.149V303.149ZM191.473 285.404C192.419 283.634 194.35 282.397 196.608 282.397V279.397C193.239 279.397 190.293 281.247 188.827 283.991L191.473 285.404ZM191.25 283.118C190.804 283.118 190.364 283.15 189.934 283.213L190.367 286.182C190.654 286.14 190.949 286.118 191.25 286.118V283.118ZM200.05 291.661C200.05 286.892 196.058 283.118 191.25 283.118V286.118C194.504 286.118 197.05 288.649 197.05 291.661H200.05ZM199.109 295.509C199.71 294.353 200.05 293.044 200.05 291.661H197.05C197.05 292.548 196.833 293.383 196.447 294.125L199.109 295.509ZM202.369 287.902C202.369 290.597 200.322 292.901 197.546 293.335L198.009 296.299C202.143 295.653 205.369 292.176 205.369 287.902H202.369ZM196.608 282.397C199.842 282.397 202.369 284.912 202.369 287.902H205.369C205.369 283.155 201.396 279.397 196.608 279.397V282.397ZM191.429 285.406C192.377 283.613 194.328 282.359 196.608 282.359V279.359C193.213 279.359 190.244 281.23 188.777 284.003L191.429 285.406ZM185.451 291.661C185.451 288.939 187.525 286.615 190.329 286.187L189.877 283.222C185.71 283.857 182.451 287.356 182.451 291.661H185.451ZM191.25 297.205C187.997 297.205 185.451 294.673 185.451 291.661H182.451C182.451 296.431 186.442 300.205 191.25 300.205V297.205ZM196.43 294.158C195.481 295.951 193.531 297.205 191.25 297.205V300.205C194.646 300.205 197.615 298.333 199.082 295.56L196.43 294.158ZM202.407 287.902C202.407 290.624 200.334 292.949 197.53 293.376L197.982 296.342C202.149 295.707 205.407 292.208 205.407 287.902H202.407ZM196.608 282.359C199.861 282.359 202.407 284.89 202.407 287.902H205.407C205.407 283.133 201.416 279.359 196.608 279.359V282.359ZM196.386 294.159C195.44 295.929 193.508 297.166 191.25 297.166V300.166C194.619 300.166 197.566 298.316 199.032 295.573L196.386 294.159ZM196.608 296.445C197.055 296.445 197.495 296.413 197.925 296.35L197.492 293.382C197.205 293.424 196.91 293.445 196.608 293.445V296.445ZM187.809 287.902C187.809 292.671 191.8 296.445 196.608 296.445V293.445C193.355 293.445 190.809 290.914 190.809 287.902H187.809ZM188.75 284.054C188.149 285.211 187.809 286.519 187.809 287.902H190.809C190.809 287.016 191.026 286.181 191.412 285.439L188.75 284.054ZM185.49 291.661C185.49 288.967 187.537 286.662 190.312 286.229L189.849 283.265C185.716 283.91 182.49 287.388 182.49 291.661H185.49ZM191.25 297.166C188.017 297.166 185.49 294.651 185.49 291.661H182.49C182.49 296.408 186.462 300.166 191.25 300.166V297.166ZM197.509 293.34C197.216 293.384 196.916 293.407 196.608 293.407V296.407C197.065 296.407 197.514 296.373 197.953 296.307L197.509 293.34ZM197.011 291.661C197.011 292.549 196.793 293.385 196.403 294.126L199.059 295.522C199.667 294.363 200.011 293.05 200.011 291.661H197.011ZM191.25 286.156C194.484 286.156 197.011 288.672 197.011 291.661H200.011C200.011 286.915 196.039 283.156 191.25 283.156V286.156ZM190.35 286.223C190.642 286.179 190.943 286.156 191.25 286.156V283.156C190.794 283.156 190.345 283.19 189.906 283.256L190.35 286.223ZM190.847 287.902C190.847 287.015 191.066 286.179 191.456 285.437L188.8 284.042C188.191 285.2 187.847 286.514 187.847 287.902H190.847ZM196.608 293.407C193.375 293.407 190.847 290.892 190.847 287.902H187.847C187.847 292.649 191.82 296.407 196.608 296.407V293.407ZM175.407 292.789C175.289 291.294 175.29 291.294 175.29 291.294C175.29 291.294 175.291 291.294 175.291 291.294C175.292 291.294 175.292 291.294 175.292 291.294C175.293 291.293 175.294 291.293 175.294 291.293C175.294 291.293 175.293 291.293 175.292 291.294C175.288 291.294 175.28 291.294 175.268 291.295C175.245 291.296 175.205 291.298 175.15 291.3C175.041 291.304 174.875 291.306 174.664 291.301C174.241 291.291 173.652 291.25 172.998 291.128C171.657 290.878 170.226 290.323 169.269 289.201L166.986 291.147C168.577 293.013 170.786 293.767 172.448 294.077C173.295 294.235 174.048 294.287 174.592 294.3C174.865 294.307 175.088 294.304 175.248 294.299C175.328 294.296 175.392 294.293 175.439 294.29C175.462 294.289 175.481 294.288 175.496 294.287C175.503 294.286 175.509 294.286 175.514 294.285C175.517 294.285 175.519 294.285 175.521 294.285C175.522 294.285 175.522 294.285 175.523 294.285C175.524 294.285 175.524 294.285 175.524 294.285C175.525 294.285 175.525 294.284 175.407 292.789ZM169.269 289.201C168.841 288.699 168.436 287.826 168.097 286.635C167.768 285.477 167.541 284.159 167.387 282.894C167.234 281.635 167.156 280.461 167.118 279.599C167.098 279.17 167.089 278.82 167.084 278.58C167.082 278.46 167.081 278.368 167.08 278.306C167.08 278.276 167.08 278.253 167.079 278.238C167.079 278.231 167.079 278.225 167.079 278.222C167.079 278.221 167.079 278.219 167.079 278.219C167.079 278.219 167.079 278.219 167.079 278.219C167.079 278.219 167.079 278.219 167.079 278.219C167.079 278.219 167.079 278.219 165.579 278.219C164.079 278.219 164.079 278.219 164.079 278.22C164.079 278.22 164.079 278.22 164.079 278.22C164.079 278.221 164.079 278.221 164.079 278.222C164.079 278.224 164.079 278.226 164.079 278.229C164.079 278.234 164.079 278.242 164.079 278.252C164.08 278.271 164.08 278.299 164.08 278.334C164.081 278.406 164.082 278.509 164.085 278.64C164.09 278.902 164.1 279.276 164.121 279.734C164.162 280.647 164.244 281.901 164.409 283.257C164.573 284.607 164.824 286.092 165.211 287.455C165.59 288.786 166.139 290.154 166.986 291.147L169.269 289.201ZM165.579 278.219C165.643 279.718 165.643 279.718 165.643 279.718L165.643 279.718C165.643 279.718 165.643 279.718 165.643 279.718C165.644 279.718 165.645 279.718 165.647 279.717C165.65 279.717 165.655 279.717 165.662 279.717C165.677 279.716 165.699 279.716 165.729 279.714C165.789 279.712 165.879 279.71 165.996 279.707C166.23 279.701 166.571 279.696 166.99 279.696C167.83 279.696 168.974 279.718 170.202 279.808C171.435 279.899 172.718 280.055 173.845 280.312C175.009 280.577 175.845 280.916 176.312 281.276L178.142 278.898C177.154 278.137 175.805 277.682 174.512 277.387C173.183 277.084 171.736 276.913 170.421 276.816C169.1 276.72 167.879 276.696 166.99 276.696C166.544 276.696 166.18 276.702 165.925 276.708C165.797 276.711 165.697 276.714 165.627 276.716C165.593 276.717 165.566 276.718 165.547 276.719C165.538 276.719 165.53 276.72 165.525 276.72C165.522 276.72 165.52 276.72 165.518 276.72C165.518 276.72 165.517 276.72 165.516 276.72C165.516 276.72 165.516 276.72 165.516 276.72C165.516 276.72 165.515 276.72 165.579 278.219ZM176.312 281.276C176.745 281.609 177.111 282.15 177.392 282.902C177.672 283.648 177.835 284.513 177.918 285.369C178.001 286.219 178.002 287.013 177.981 287.598C177.97 287.889 177.954 288.124 177.942 288.283C177.935 288.362 177.93 288.423 177.926 288.461C177.924 288.48 177.923 288.494 177.922 288.502C177.921 288.506 177.921 288.509 177.921 288.51C177.921 288.511 177.921 288.511 177.921 288.511C177.921 288.51 177.921 288.51 177.921 288.51C177.921 288.51 177.921 288.51 177.921 288.509C177.921 288.509 177.921 288.509 179.411 288.68C180.902 288.85 180.902 288.85 180.902 288.85C180.902 288.849 180.902 288.849 180.902 288.849C180.902 288.848 180.902 288.847 180.902 288.846C180.902 288.845 180.902 288.843 180.903 288.84C180.903 288.835 180.904 288.828 180.905 288.82C180.907 288.804 180.909 288.782 180.912 288.754C180.917 288.699 180.924 288.62 180.932 288.522C180.948 288.325 180.966 288.046 180.979 287.706C181.003 287.03 181.004 286.097 180.904 285.078C180.806 284.067 180.604 282.923 180.202 281.849C179.801 280.779 179.165 279.686 178.142 278.898L176.312 281.276ZM180.139 293.163C181.058 291.978 181.058 291.978 181.058 291.978C181.058 291.978 181.058 291.978 181.058 291.978C181.058 291.978 181.058 291.978 181.058 291.978C181.058 291.977 181.057 291.977 181.056 291.976C181.055 291.975 181.052 291.973 181.049 291.97C181.042 291.965 181.031 291.957 181.017 291.946C180.988 291.923 180.945 291.889 180.889 291.845C180.777 291.756 180.613 291.626 180.407 291.459C179.996 291.127 179.422 290.654 178.772 290.095C177.46 288.967 175.884 287.526 174.713 286.194L172.461 288.176C173.771 289.666 175.472 291.214 176.816 292.369C177.493 292.952 178.091 293.444 178.521 293.792C178.735 293.966 178.909 294.103 179.029 294.198C179.089 294.246 179.135 294.283 179.168 294.308C179.184 294.32 179.196 294.33 179.205 294.337C179.209 294.34 179.213 294.343 179.215 294.345C179.216 294.346 179.217 294.346 179.218 294.347C179.218 294.347 179.219 294.348 179.219 294.348C179.219 294.348 179.219 294.348 179.219 294.348C179.219 294.348 179.219 294.348 180.139 293.163ZM174.713 286.194C173.554 284.878 172.701 283.565 172.138 282.581C171.857 282.09 171.651 281.685 171.517 281.408C171.45 281.269 171.401 281.163 171.371 281.094C171.355 281.06 171.344 281.035 171.338 281.019C171.334 281.012 171.332 281.007 171.331 281.005C171.331 281.003 171.331 281.003 171.331 281.003C171.331 281.003 171.331 281.003 171.331 281.004C171.331 281.004 171.331 281.004 171.331 281.004C171.331 281.004 171.331 281.005 171.331 281.005C171.332 281.005 171.332 281.005 169.947 281.581C168.562 282.158 168.562 282.158 168.562 282.158C168.562 282.158 168.562 282.159 168.562 282.159C168.562 282.159 168.563 282.16 168.563 282.16C168.563 282.161 168.564 282.163 168.564 282.164C168.566 282.167 168.567 282.17 168.569 282.174C168.572 282.183 168.577 282.194 168.583 282.207C168.595 282.234 168.611 282.272 168.632 282.319C168.674 282.413 168.735 282.546 168.816 282.713C168.976 283.045 169.215 283.512 169.534 284.07C170.17 285.183 171.137 286.672 172.461 288.176L174.713 286.194ZM175.082 287.297L175.446 282.441L172.455 282.217L172.091 287.073L175.082 287.297ZM173.74 285.693L170.1 285.32L169.794 288.304L173.434 288.678L173.74 285.693Z" fill="#1E1E1E"/>
<path d="M281.745 253.298C281.745 253.298 281.745 272.507 254.848 272.507C227.412 272.507 227.992 253.298 227.992 253.298C227.992 253.298 233.91 266.638 254.848 266.638C276.353 265.97 281.745 253.298 281.745 253.298Z" stroke="#1E1E1E" stroke-width="3"/>
<path d="M282.696 248.824C282.696 258.669 270.228 266.649 254.848 266.649C239.468 266.649 227 258.669 227 248.824C227 238.98 239.468 231 254.848 231C270.228 231 282.696 238.98 282.696 248.824Z" stroke="#1E1E1E" stroke-width="3"/>
<path d="M431.745 206.298C431.745 206.298 431.745 225.507 404.848 225.507C377.412 225.507 377.992 206.298 377.992 206.298C377.992 206.298 383.91 219.638 404.848 219.638C426.353 218.97 431.745 206.298 431.745 206.298Z" stroke="#1E1E1E" stroke-width="3"/>
<path d="M432.696 201.824C432.696 211.669 420.228 219.649 404.848 219.649C389.468 219.649 377 211.669 377 201.824C377 191.98 389.468 184 404.848 184C420.228 184 432.696 191.98 432.696 201.824Z" stroke="#1E1E1E" stroke-width="3"/>
<path d="M128.745 408.298L130.245 408.298C130.245 407.585 129.743 406.97 129.045 406.828C128.346 406.686 127.644 407.055 127.365 407.711L128.745 408.298ZM74.9924 408.298L76.3636 407.69C76.0797 407.05 75.3908 406.691 74.7037 406.826C74.0167 406.961 73.5142 407.553 73.4931 408.253L74.9924 408.298ZM101.848 421.638V423.138C101.863 423.138 101.879 423.137 101.894 423.137L101.848 421.638ZM108.15 401.697L106.827 400.991L105.428 403.611L108.367 403.182L108.15 401.697ZM115.778 411.817L114.447 411.125L113.078 413.757L116.009 413.299L115.778 411.817ZM108.103 401.704L108.329 403.187L109.076 403.074L109.429 402.406L108.103 401.704ZM115.756 411.859L115.53 410.376L114.783 410.49L114.43 411.158L115.756 411.859ZM115.709 411.866L117.032 412.573L118.431 409.953L115.492 410.382L115.709 411.866ZM108.081 401.747L109.412 402.439L110.781 399.807L107.849 400.265L108.081 401.747ZM115.731 411.824L115.953 413.307L116.705 413.195L117.059 412.522L115.731 411.824ZM108.128 401.739L107.906 400.256L107.154 400.369L106.8 401.042L108.128 401.739ZM93.5254 411.284C94.3513 411.219 94.9679 410.497 94.9027 409.671C94.8375 408.845 94.1152 408.229 93.2893 408.294L93.5254 411.284ZM83.5794 395.219L83.5153 393.72C82.7125 393.755 82.0794 394.415 82.0794 395.219H83.5794ZM95.9211 405.509C95.8268 406.332 96.4175 407.076 97.2405 407.17C98.0636 407.264 98.8073 406.673 98.9016 405.85L95.9211 405.509ZM97.2193 411.348C97.8739 411.856 98.8162 411.737 99.3239 411.082C99.8317 410.428 99.7126 409.485 99.058 408.978L97.2193 411.348ZM89.3316 398.005C89.0134 397.24 88.1354 396.878 87.3705 397.197C86.6057 397.515 86.2435 398.393 86.5617 399.158L89.3316 398.005ZM93.4464 399.441C93.5083 398.615 92.8887 397.895 92.0626 397.833C91.2365 397.771 90.5166 398.39 90.4547 399.217L93.4464 399.441ZM88.0998 402.32C87.2757 402.235 86.5391 402.834 86.4545 403.659C86.3699 404.483 86.9694 405.219 87.7935 405.304L88.0998 402.32ZM128.745 408.298C127.245 408.298 127.245 408.297 127.245 408.296C127.245 408.296 127.245 408.295 127.245 408.295C127.245 408.294 127.245 408.293 127.245 408.293C127.245 408.293 127.245 408.293 127.245 408.295C127.245 408.299 127.245 408.307 127.244 408.319C127.244 408.344 127.243 408.386 127.24 408.444C127.235 408.56 127.223 408.739 127.2 408.974C127.153 409.444 127.057 410.129 126.864 410.958C126.476 412.62 125.701 414.833 124.154 417.042C121.117 421.38 114.89 426.007 101.848 426.007V429.007C115.703 429.007 122.924 424.029 126.612 418.763C128.427 416.17 129.333 413.58 129.785 411.64C130.012 410.668 130.127 409.853 130.185 409.273C130.214 408.982 130.229 408.749 130.237 408.583C130.241 408.501 130.243 408.435 130.244 408.387C130.244 408.363 130.245 408.343 130.245 408.328C130.245 408.321 130.245 408.315 130.245 408.31C130.245 408.307 130.245 408.305 130.245 408.303C130.245 408.302 130.245 408.301 130.245 408.3C130.245 408.299 130.245 408.298 128.745 408.298ZM101.848 426.007C88.5231 426.007 82.3215 421.372 79.3697 417.056C77.8647 414.855 77.1432 412.65 76.799 410.994C76.6272 410.167 76.5508 409.484 76.5172 409.016C76.5004 408.782 76.4944 408.603 76.4924 408.487C76.4914 408.43 76.4914 408.388 76.4915 408.364C76.4916 408.351 76.4918 408.344 76.4918 408.34C76.4919 408.338 76.4919 408.338 76.4919 408.338C76.4918 408.338 76.4918 408.339 76.4918 408.34C76.4918 408.34 76.4918 408.341 76.4918 408.341C76.4917 408.342 76.4917 408.343 74.9924 408.298C73.4931 408.253 73.4931 408.254 73.493 408.255C73.493 408.255 73.493 408.257 73.4929 408.258C73.4929 408.26 73.4928 408.262 73.4928 408.264C73.4926 408.27 73.4925 408.276 73.4924 408.283C73.4921 408.298 73.4918 408.318 73.4916 408.342C73.4913 408.39 73.4914 408.457 73.4928 408.54C73.4957 408.706 73.504 408.939 73.5249 409.231C73.5667 409.813 73.6593 410.63 73.8618 411.604C74.2661 413.55 75.1141 416.147 76.8935 418.749C80.5104 424.038 87.7365 429.007 101.848 429.007V426.007ZM74.9924 408.298C73.6212 408.906 73.6217 408.907 73.6221 408.908C73.6223 408.908 73.6227 408.909 73.6231 408.91C73.6238 408.912 73.6246 408.914 73.6255 408.916C73.6273 408.92 73.6294 408.924 73.632 408.93C73.6371 408.941 73.6437 408.955 73.6519 408.973C73.6683 409.008 73.6909 409.055 73.7201 409.114C73.7785 409.232 73.8632 409.396 73.9764 409.6C74.2028 410.007 74.5439 410.574 75.0183 411.247C75.9669 412.592 77.4516 414.365 79.6213 416.131C83.9828 419.681 91.0303 423.138 101.848 423.138V420.138C91.7271 420.138 85.347 416.924 81.5153 413.804C79.5884 412.236 78.2852 410.674 77.47 409.518C77.0625 408.94 76.7777 408.465 76.5987 408.142C76.5092 407.981 76.4463 407.859 76.4078 407.781C76.3885 407.742 76.3754 407.715 76.3681 407.699C76.3645 407.692 76.3623 407.687 76.3615 407.685C76.3612 407.684 76.3612 407.684 76.3615 407.685C76.3617 407.685 76.3619 407.686 76.3623 407.687C76.3624 407.687 76.3628 407.688 76.3628 407.688C76.3632 407.689 76.3636 407.69 74.9924 408.298ZM101.894 423.137C112.96 422.794 120.001 419.35 124.302 415.886C126.442 414.161 127.882 412.449 128.794 411.15C129.25 410.501 129.574 409.955 129.789 409.561C129.896 409.364 129.976 409.205 130.031 409.091C130.058 409.033 130.08 408.987 130.095 408.953C130.103 408.935 130.11 408.921 130.115 408.91C130.117 408.904 130.119 408.899 130.121 408.895C130.122 408.893 130.123 408.891 130.123 408.89C130.124 408.889 130.124 408.888 130.124 408.887C130.125 408.886 130.125 408.885 128.745 408.298C127.365 407.711 127.365 407.71 127.365 407.709C127.365 407.709 127.366 407.708 127.366 407.707C127.366 407.706 127.367 407.706 127.367 407.705C127.367 407.704 127.368 407.704 127.367 407.704C127.367 407.705 127.365 407.709 127.362 407.716C127.356 407.729 127.345 407.754 127.327 407.79C127.293 407.861 127.236 407.975 127.154 408.126C126.989 408.428 126.724 408.877 126.339 409.426C125.568 410.525 124.315 412.022 122.42 413.549C118.648 416.588 112.241 419.814 101.801 420.138L101.894 423.137ZM128.196 403.824C128.196 408.06 125.511 412.105 120.731 415.165C115.967 418.214 109.295 420.149 101.848 420.149V423.149C109.781 423.149 117.033 421.094 122.348 417.692C127.647 414.3 131.196 409.433 131.196 403.824H128.196ZM101.848 387.5C109.295 387.5 115.967 389.435 120.731 392.484C125.511 395.544 128.196 399.589 128.196 403.824H131.196C131.196 398.216 127.647 393.349 122.348 389.957C117.033 386.555 109.781 384.5 101.848 384.5V387.5ZM75.5 403.824C75.5 399.589 78.1846 395.544 82.9651 392.484C87.7288 389.435 94.4008 387.5 101.848 387.5V384.5C93.9151 384.5 86.6631 386.555 81.3478 389.957C76.0493 393.349 72.5 398.216 72.5 403.824H75.5ZM101.848 420.149C94.4008 420.149 87.7288 418.214 82.9651 415.165C78.1846 412.105 75.5 408.06 75.5 403.824H72.5C72.5 409.433 76.0493 414.3 81.3478 417.692C86.6631 421.094 93.9151 423.149 101.848 423.149V420.149ZM109.473 402.404C110.419 400.634 112.35 399.397 114.608 399.397V396.397C111.239 396.397 108.293 398.247 106.827 400.991L109.473 402.404ZM109.25 400.118C108.804 400.118 108.364 400.15 107.934 400.213L108.367 403.182C108.654 403.14 108.949 403.118 109.25 403.118V400.118ZM118.05 408.661C118.05 403.892 114.058 400.118 109.25 400.118V403.118C112.504 403.118 115.05 405.649 115.05 408.661H118.05ZM117.109 412.509C117.71 411.353 118.05 410.044 118.05 408.661H115.05C115.05 409.548 114.833 410.383 114.447 411.125L117.109 412.509ZM120.369 404.902C120.369 407.597 118.322 409.901 115.546 410.335L116.009 413.299C120.143 412.653 123.369 409.176 123.369 404.902H120.369ZM114.608 399.397C117.842 399.397 120.369 401.912 120.369 404.902H123.369C123.369 400.155 119.396 396.397 114.608 396.397V399.397ZM109.429 402.406C110.377 400.613 112.328 399.359 114.608 399.359V396.359C111.213 396.359 108.244 398.23 106.777 401.003L109.429 402.406ZM103.451 408.661C103.451 405.939 105.525 403.615 108.329 403.187L107.877 400.222C103.71 400.857 100.451 404.356 100.451 408.661H103.451ZM109.25 414.205C105.997 414.205 103.451 411.673 103.451 408.661H100.451C100.451 413.431 104.442 417.205 109.25 417.205V414.205ZM114.43 411.158C113.481 412.951 111.531 414.205 109.25 414.205V417.205C112.646 417.205 115.615 415.333 117.082 412.56L114.43 411.158ZM120.407 404.902C120.407 407.624 118.334 409.949 115.53 410.376L115.982 413.342C120.149 412.707 123.407 409.208 123.407 404.902H120.407ZM114.608 399.359C117.861 399.359 120.407 401.89 120.407 404.902H123.407C123.407 400.133 119.416 396.359 114.608 396.359V399.359ZM114.386 411.159C113.44 412.929 111.508 414.166 109.25 414.166V417.166C112.619 417.166 115.566 415.316 117.032 412.573L114.386 411.159ZM114.608 413.445C115.055 413.445 115.495 413.413 115.925 413.35L115.492 410.382C115.205 410.424 114.91 410.445 114.608 410.445V413.445ZM105.809 404.902C105.809 409.671 109.8 413.445 114.608 413.445V410.445C111.355 410.445 108.809 407.914 108.809 404.902H105.809ZM106.75 401.054C106.149 402.211 105.809 403.519 105.809 404.902H108.809C108.809 404.016 109.026 403.181 109.412 402.439L106.75 401.054ZM103.49 408.661C103.49 405.967 105.537 403.662 108.312 403.229L107.849 400.265C103.716 400.91 100.49 404.388 100.49 408.661H103.49ZM109.25 414.166C106.017 414.166 103.49 411.651 103.49 408.661H100.49C100.49 413.408 104.462 417.166 109.25 417.166V414.166ZM115.509 410.34C115.216 410.384 114.916 410.407 114.608 410.407V413.407C115.065 413.407 115.514 413.373 115.953 413.307L115.509 410.34ZM115.011 408.661C115.011 409.549 114.793 410.385 114.403 411.126L117.059 412.522C117.667 411.363 118.011 410.05 118.011 408.661H115.011ZM109.25 403.156C112.484 403.156 115.011 405.672 115.011 408.661H118.011C118.011 403.915 114.039 400.156 109.25 400.156V403.156ZM108.35 403.223C108.642 403.179 108.943 403.156 109.25 403.156V400.156C108.794 400.156 108.345 400.19 107.906 400.256L108.35 403.223ZM108.847 404.902C108.847 404.015 109.066 403.179 109.456 402.437L106.8 401.042C106.191 402.2 105.847 403.514 105.847 404.902H108.847ZM114.608 410.407C111.375 410.407 108.847 407.892 108.847 404.902H105.847C105.847 409.649 109.82 413.407 114.608 413.407V410.407ZM93.4074 409.789C93.2893 408.294 93.2898 408.294 93.2902 408.294C93.2904 408.294 93.2908 408.294 93.2911 408.294C93.2916 408.294 93.292 408.294 93.2924 408.294C93.2931 408.293 93.2936 408.293 93.2938 408.293C93.2942 408.293 93.2935 408.293 93.2917 408.294C93.2881 408.294 93.2803 408.294 93.2684 408.295C93.2446 408.296 93.2047 408.298 93.1502 408.3C93.0411 408.304 92.8748 408.306 92.6644 408.301C92.2411 408.291 91.6524 408.25 90.998 408.128C89.6568 407.878 88.2259 407.323 87.2689 406.201L84.9859 408.147C86.5769 410.013 88.7859 410.767 90.4477 411.077C91.2948 411.235 92.0484 411.287 92.592 411.3C92.865 411.307 93.0883 411.304 93.2479 411.299C93.3278 411.296 93.392 411.293 93.4388 411.29C93.4622 411.289 93.4812 411.288 93.4957 411.287C93.503 411.286 93.5091 411.286 93.5141 411.285C93.5165 411.285 93.5187 411.285 93.5206 411.285C93.5216 411.285 93.5224 411.285 93.5232 411.285C93.5236 411.285 93.5242 411.285 93.5244 411.285C93.5249 411.285 93.5254 411.284 93.4074 409.789ZM87.2689 406.201C86.8413 405.699 86.4356 404.826 86.0972 403.635C85.7679 402.477 85.5409 401.159 85.3869 399.894C85.2335 398.635 85.1563 397.461 85.1177 396.599C85.0984 396.17 85.0888 395.82 85.0841 395.58C85.0817 395.46 85.0805 395.368 85.0799 395.306C85.0796 395.276 85.0795 395.253 85.0794 395.238C85.0794 395.231 85.0794 395.225 85.0794 395.222C85.0794 395.221 85.0794 395.219 85.0794 395.219C85.0794 395.219 85.0794 395.219 85.0794 395.219C85.0794 395.219 85.0794 395.219 85.0794 395.219C85.0794 395.219 85.0794 395.219 83.5794 395.219C82.0794 395.219 82.0794 395.219 82.0794 395.22C82.0794 395.22 82.0794 395.22 82.0794 395.22C82.0794 395.221 82.0794 395.221 82.0794 395.222C82.0794 395.224 82.0794 395.226 82.0794 395.229C82.0794 395.234 82.0794 395.242 82.0795 395.252C82.0796 395.271 82.0797 395.299 82.0801 395.334C82.0807 395.406 82.0821 395.509 82.0846 395.64C82.0898 395.902 82.1002 396.276 82.1207 396.734C82.1617 397.647 82.2437 398.901 82.4089 400.257C82.5733 401.607 82.8241 403.092 83.2114 404.455C83.5897 405.786 84.1395 407.154 84.9859 408.147L87.2689 406.201ZM83.5794 395.219C83.6435 396.718 83.6433 396.718 83.6432 396.718L83.6431 396.718C83.6431 396.718 83.6432 396.718 83.6435 396.718C83.644 396.718 83.645 396.718 83.6466 396.717C83.6497 396.717 83.6549 396.717 83.6621 396.717C83.6765 396.716 83.6989 396.716 83.7289 396.714C83.7889 396.712 83.8792 396.71 83.9962 396.707C84.2304 396.701 84.571 396.696 84.9899 396.696C85.8296 396.696 86.9743 396.718 88.2017 396.808C89.4348 396.899 90.7179 397.055 91.8453 397.312C93.0092 397.577 93.845 397.916 94.3124 398.276L96.1423 395.898C95.1538 395.137 93.8055 394.682 92.5124 394.387C91.1828 394.084 89.7359 393.913 88.421 393.816C87.1004 393.72 85.8791 393.696 84.9899 393.696C84.5443 393.696 84.1796 393.702 83.9246 393.708C83.7971 393.711 83.6969 393.714 83.6275 393.716C83.5928 393.717 83.5658 393.718 83.5469 393.719C83.5375 393.719 83.5301 393.72 83.5248 393.72C83.5222 393.72 83.5201 393.72 83.5185 393.72C83.5177 393.72 83.517 393.72 83.5165 393.72C83.5162 393.72 83.5159 393.72 83.5158 393.72C83.5155 393.72 83.5153 393.72 83.5794 395.219ZM94.3124 398.276C94.7452 398.609 95.1109 399.15 95.3925 399.902C95.6724 400.648 95.835 401.513 95.9184 402.369C96.0012 403.219 96.0017 404.013 95.9806 404.598C95.9701 404.889 95.9544 405.124 95.9417 405.283C95.9354 405.362 95.9298 405.423 95.926 405.461C95.9241 405.48 95.9227 405.494 95.9218 405.502C95.9214 405.506 95.9211 405.509 95.921 405.51C95.9209 405.511 95.9209 405.511 95.9209 405.511C95.9209 405.51 95.921 405.51 95.921 405.51C95.921 405.51 95.921 405.51 95.921 405.509C95.9211 405.509 95.9211 405.509 97.4114 405.68C98.9016 405.85 98.9016 405.85 98.9017 405.85C98.9017 405.849 98.9018 405.849 98.9018 405.849C98.9019 405.848 98.902 405.847 98.9021 405.846C98.9023 405.845 98.9025 405.843 98.9028 405.84C98.9033 405.835 98.904 405.828 98.9049 405.82C98.9066 405.804 98.9089 405.782 98.9116 405.754C98.9171 405.699 98.9243 405.62 98.9322 405.522C98.9479 405.325 98.9664 405.046 98.9786 404.706C99.003 404.03 99.0035 403.097 98.9043 402.078C98.8057 401.067 98.6044 399.923 98.2017 398.849C97.8008 397.779 97.1655 396.686 96.1423 395.898L94.3124 398.276ZM98.1387 410.163C99.058 408.978 99.0581 408.978 99.0581 408.978C99.0581 408.978 99.0581 408.978 99.0581 408.978C99.0581 408.978 99.058 408.978 99.0579 408.978C99.0576 408.977 99.0571 408.977 99.0563 408.976C99.0548 408.975 99.0523 408.973 99.0488 408.97C99.0419 408.965 99.0313 408.957 99.017 408.946C98.9884 408.923 98.9454 408.889 98.8893 408.845C98.7771 408.756 98.6128 408.626 98.4074 408.459C97.9962 408.127 97.4218 407.654 96.7716 407.095C95.4599 405.967 93.8845 404.526 92.7127 403.194L90.4606 405.176C91.7713 406.666 93.4719 408.214 94.8156 409.369C95.4931 409.952 96.0912 410.444 96.5206 410.792C96.7355 410.966 96.9085 411.103 97.0286 411.198C97.0886 411.246 97.1355 411.283 97.1677 411.308C97.1839 411.32 97.1963 411.33 97.205 411.337C97.2093 411.34 97.2127 411.343 97.2151 411.345C97.2163 411.346 97.2172 411.346 97.2179 411.347C97.2183 411.347 97.2186 411.348 97.2188 411.348C97.2189 411.348 97.2191 411.348 97.2191 411.348C97.2192 411.348 97.2193 411.348 98.1387 410.163ZM92.7128 403.194C91.5541 401.878 90.7007 400.565 90.1378 399.581C89.8571 399.09 89.651 398.685 89.517 398.408C89.4501 398.269 89.4013 398.163 89.3705 398.094C89.3551 398.06 89.3442 398.035 89.3377 398.019C89.3345 398.012 89.3323 398.007 89.3313 398.005C89.3308 398.003 89.3306 398.003 89.3306 398.003C89.3307 398.003 89.3308 398.003 89.3309 398.004C89.331 398.004 89.3311 398.004 89.3312 398.004C89.3313 398.004 89.3314 398.005 89.3314 398.005C89.3315 398.005 89.3316 398.005 87.9467 398.581C86.5617 399.158 86.5619 399.158 86.562 399.158C86.562 399.158 86.5621 399.159 86.5622 399.159C86.5624 399.159 86.5626 399.16 86.5629 399.16C86.5633 399.161 86.5638 399.163 86.5644 399.164C86.5656 399.167 86.5671 399.17 86.5688 399.174C86.5723 399.183 86.577 399.194 86.5829 399.207C86.5946 399.234 86.6109 399.272 86.632 399.319C86.6742 399.413 86.7353 399.546 86.8157 399.713C86.9763 400.045 87.2147 400.512 87.5337 401.07C88.1702 402.183 89.1368 403.672 90.4605 405.176L92.7128 403.194ZM93.0825 404.297L93.4464 399.441L90.4547 399.217L90.0909 404.073L93.0825 404.297ZM91.7398 402.693L88.0998 402.32L87.7935 405.304L91.4335 405.678L91.7398 402.693Z" fill="#1E1E1E"/>
<path d="M499.745 267.298L501.245 267.298L498.365 266.711L499.745 267.298ZM445.992 267.298L447.364 266.69L444.493 267.253L445.992 267.298ZM472.848 280.638V282.138H472.871L472.894 282.137L472.848 280.638ZM479.15 260.697L477.827 259.991C477.56 260.49 477.597 261.097 477.923 261.56C478.248 262.023 478.807 262.263 479.367 262.182L479.15 260.697ZM486.778 270.817L485.447 270.125C485.186 270.626 485.23 271.233 485.56 271.692C485.89 272.151 486.45 272.386 487.009 272.299L486.778 270.817ZM479.103 260.704L479.329 262.187C479.799 262.116 480.207 261.826 480.429 261.406L479.103 260.704ZM486.756 270.859L486.53 269.376C486.06 269.448 485.652 269.738 485.43 270.158L486.756 270.859ZM486.709 270.866L488.032 271.573C488.298 271.073 488.261 270.467 487.936 270.004C487.61 269.54 487.052 269.3 486.492 269.382L486.709 270.866ZM479.081 260.747L480.412 261.439C480.673 260.937 480.629 260.331 480.299 259.871C479.969 259.412 479.408 259.177 478.849 259.265L479.081 260.747ZM486.731 270.824L486.953 272.307C487.426 272.237 487.836 271.945 488.059 271.522L486.731 270.824ZM479.128 260.739L478.906 259.256C478.433 259.327 478.022 259.619 477.8 260.042L479.128 260.739ZM464.525 270.284C465.351 270.219 465.968 269.497 465.903 268.671C465.838 267.845 465.115 267.229 464.289 267.294L464.525 270.284ZM454.579 254.219L454.515 252.72C453.713 252.755 453.079 253.415 453.079 254.219H454.579ZM466.921 264.509C466.827 265.332 467.417 266.076 468.241 266.17C469.064 266.264 469.807 265.673 469.902 264.85L466.921 264.509ZM468.219 270.348C468.874 270.856 469.816 270.737 470.324 270.082C470.832 269.428 470.713 268.485 470.058 267.978L468.219 270.348ZM460.332 257.005C460.013 256.24 459.135 255.878 458.371 256.197C457.606 256.515 457.244 257.393 457.562 258.158L460.332 257.005ZM464.446 258.441C464.508 257.615 463.889 256.895 463.063 256.833C462.237 256.771 461.517 257.39 461.455 258.217L464.446 258.441ZM459.1 261.32C458.276 261.235 457.539 261.834 457.455 262.659C457.37 263.483 457.969 264.219 458.794 264.304L459.1 261.32ZM499.745 267.298C498.245 267.298 498.245 267.297 498.245 267.296C498.245 267.296 498.245 267.295 498.245 267.295C498.245 267.294 498.245 267.293 498.245 267.293C498.245 267.293 498.245 267.293 498.245 267.295C498.245 267.299 498.245 267.307 498.244 267.319C498.244 267.344 498.243 267.386 498.24 267.444C498.235 267.56 498.223 267.739 498.2 267.974C498.153 268.444 498.057 269.129 497.864 269.958C497.476 271.62 496.701 273.833 495.154 276.042C492.117 280.38 485.89 285.007 472.848 285.007V288.007C486.703 288.007 493.924 283.029 497.612 277.763C499.427 275.17 500.333 272.58 500.785 270.64C501.012 269.668 501.127 268.853 501.185 268.273C501.214 267.982 501.229 267.749 501.237 267.583C501.241 267.501 501.243 267.435 501.244 267.387C501.244 267.363 501.245 267.343 501.245 267.328C501.245 267.321 501.245 267.315 501.245 267.31C501.245 267.307 501.245 267.305 501.245 267.303C501.245 267.302 501.245 267.301 501.245 267.3C501.245 267.299 501.245 267.298 499.745 267.298ZM472.848 285.007C459.523 285.007 453.322 280.372 450.37 276.056C448.865 273.855 448.143 271.65 447.799 269.994C447.627 269.167 447.551 268.484 447.517 268.016C447.5 267.782 447.494 267.603 447.492 267.487C447.491 267.43 447.491 267.388 447.492 267.364C447.492 267.351 447.492 267.344 447.492 267.34C447.492 267.338 447.492 267.338 447.492 267.338C447.492 267.338 447.492 267.339 447.492 267.34C447.492 267.34 447.492 267.341 447.492 267.341C447.492 267.342 447.492 267.343 445.992 267.298C444.493 267.253 444.493 267.254 444.493 267.255C444.493 267.255 444.493 267.257 444.493 267.258C444.493 267.26 444.493 267.262 444.493 267.264C444.493 267.27 444.492 267.276 444.492 267.283C444.492 267.298 444.492 267.318 444.492 267.342C444.491 267.39 444.491 267.457 444.493 267.54C444.496 267.706 444.504 267.939 444.525 268.231C444.567 268.813 444.659 269.63 444.862 270.604C445.266 272.55 446.114 275.147 447.893 277.749C451.51 283.038 458.736 288.007 472.848 288.007V285.007ZM445.992 267.298C444.621 267.906 444.622 267.907 444.622 267.908C444.622 267.908 444.623 267.909 444.623 267.91C444.624 267.912 444.625 267.914 444.625 267.916C444.627 267.92 444.629 267.924 444.632 267.93C444.637 267.941 444.644 267.955 444.652 267.973C444.668 268.008 444.691 268.055 444.72 268.114C444.779 268.232 444.863 268.396 444.976 268.6C445.203 269.007 445.544 269.574 446.018 270.247C446.967 271.592 448.452 273.365 450.621 275.131C454.983 278.681 462.03 282.138 472.848 282.138V279.138C462.727 279.138 456.347 275.924 452.515 272.804C450.588 271.236 449.285 269.674 448.47 268.518C448.062 267.94 447.778 267.465 447.599 267.142C447.509 266.981 447.446 266.859 447.408 266.781C447.389 266.742 447.375 266.715 447.368 266.699C447.364 266.692 447.362 266.687 447.362 266.685C447.361 266.684 447.361 266.684 447.361 266.685C447.362 266.685 447.362 266.686 447.362 266.687C447.362 266.687 447.363 266.688 447.363 266.688C447.363 266.689 447.364 266.69 445.992 267.298ZM472.894 282.137C483.96 281.794 491.001 278.35 495.302 274.886C497.442 273.161 498.882 271.449 499.794 270.15C500.25 269.501 500.574 268.955 500.789 268.561C500.896 268.364 500.976 268.205 501.031 268.091C501.058 268.033 501.08 267.987 501.095 267.953C501.103 267.935 501.11 267.921 501.115 267.91C501.117 267.904 501.119 267.899 501.121 267.895C501.122 267.893 501.123 267.891 501.123 267.89C501.124 267.889 501.124 267.888 501.124 267.887C501.125 267.886 501.125 267.885 499.745 267.298C498.365 266.711 498.365 266.71 498.365 266.709C498.365 266.709 498.366 266.708 498.366 266.707C498.366 266.706 498.367 266.706 498.367 266.705C498.367 266.704 498.368 266.704 498.367 266.704C498.367 266.705 498.365 266.709 498.362 266.716C498.356 266.729 498.345 266.754 498.327 266.79C498.293 266.861 498.236 266.975 498.154 267.126C497.989 267.428 497.724 267.877 497.339 268.426C496.568 269.525 495.315 271.022 493.42 272.549C489.648 275.588 483.241 278.814 472.801 279.138L472.894 282.137ZM499.196 262.824C499.196 267.06 496.511 271.105 491.731 274.165C486.967 277.214 480.295 279.149 472.848 279.149V282.149C480.781 282.149 488.033 280.094 493.348 276.692C498.647 273.3 502.196 268.433 502.196 262.824H499.196ZM472.848 246.5C480.295 246.5 486.967 248.435 491.731 251.484C496.511 254.544 499.196 258.589 499.196 262.824H502.196C502.196 257.216 498.647 252.349 493.348 248.957C488.033 245.555 480.781 243.5 472.848 243.5V246.5ZM446.5 262.824C446.5 258.589 449.185 254.544 453.965 251.484C458.729 248.435 465.401 246.5 472.848 246.5V243.5C464.915 243.5 457.663 245.555 452.348 248.957C447.049 252.349 443.5 257.216 443.5 262.824H446.5ZM472.848 279.149C465.401 279.149 458.729 277.214 453.965 274.165C449.185 271.105 446.5 267.06 446.5 262.824H443.5C443.5 268.433 447.049 273.3 452.348 276.692C457.663 280.094 464.915 282.149 472.848 282.149V279.149ZM480.473 261.404C481.419 259.634 483.35 258.397 485.608 258.397V255.397C482.239 255.397 479.293 257.247 477.827 259.991L480.473 261.404ZM480.25 259.118C479.804 259.118 479.364 259.15 478.934 259.213L479.367 262.182C479.654 262.14 479.949 262.118 480.25 262.118V259.118ZM489.05 267.661C489.05 262.892 485.058 259.118 480.25 259.118V262.118C483.504 262.118 486.05 264.649 486.05 267.661H489.05ZM488.109 271.509C488.71 270.353 489.05 269.044 489.05 267.661H486.05C486.05 268.548 485.833 269.383 485.447 270.125L488.109 271.509ZM491.369 263.902C491.369 266.597 489.322 268.901 486.546 269.335L487.009 272.299C491.143 271.653 494.369 268.176 494.369 263.902H491.369ZM485.608 258.397C488.842 258.397 491.369 260.912 491.369 263.902H494.369C494.369 259.155 490.396 255.397 485.608 255.397V258.397ZM480.429 261.406C481.377 259.613 483.328 258.359 485.608 258.359V255.359C482.213 255.359 479.244 257.23 477.777 260.003L480.429 261.406ZM474.451 267.661C474.451 264.939 476.525 262.615 479.329 262.187L478.877 259.222C474.71 259.857 471.451 263.356 471.451 267.661H474.451ZM480.25 273.205C476.997 273.205 474.451 270.673 474.451 267.661H471.451C471.451 272.431 475.442 276.205 480.25 276.205V273.205ZM485.43 270.158C484.481 271.951 482.531 273.205 480.25 273.205V276.205C483.646 276.205 486.615 274.333 488.082 271.56L485.43 270.158ZM491.407 263.902C491.407 266.624 489.334 268.949 486.53 269.376L486.982 272.342C491.149 271.707 494.407 268.208 494.407 263.902H491.407ZM485.608 258.359C488.861 258.359 491.407 260.89 491.407 263.902H494.407C494.407 259.133 490.416 255.359 485.608 255.359V258.359ZM485.386 270.159C484.44 271.929 482.508 273.166 480.25 273.166V276.166C483.619 276.166 486.566 274.316 488.032 271.573L485.386 270.159ZM485.608 272.445C486.055 272.445 486.495 272.413 486.925 272.35L486.492 269.382C486.205 269.424 485.91 269.445 485.608 269.445V272.445ZM476.809 263.902C476.809 268.671 480.8 272.445 485.608 272.445V269.445C482.355 269.445 479.809 266.914 479.809 263.902H476.809ZM477.75 260.054C477.149 261.211 476.809 262.519 476.809 263.902H479.809C479.809 263.016 480.026 262.181 480.412 261.439L477.75 260.054ZM474.49 267.661C474.49 264.967 476.537 262.662 479.312 262.229L478.849 259.265C474.716 259.91 471.49 263.388 471.49 267.661H474.49ZM480.25 273.166C477.017 273.166 474.49 270.651 474.49 267.661H471.49C471.49 272.408 475.462 276.166 480.25 276.166V273.166ZM486.509 269.34C486.216 269.384 485.916 269.407 485.608 269.407V272.407C486.065 272.407 486.514 272.373 486.953 272.307L486.509 269.34ZM486.011 267.661C486.011 268.549 485.793 269.385 485.403 270.126L488.059 271.522C488.667 270.363 489.011 269.05 489.011 267.661H486.011ZM480.25 262.156C483.484 262.156 486.011 264.672 486.011 267.661H489.011C489.011 262.915 485.039 259.156 480.25 259.156V262.156ZM479.35 262.223C479.642 262.179 479.943 262.156 480.25 262.156V259.156C479.794 259.156 479.345 259.19 478.906 259.256L479.35 262.223ZM479.847 263.902C479.847 263.015 480.066 262.179 480.456 261.437L477.8 260.042C477.191 261.2 476.847 262.514 476.847 263.902H479.847ZM485.608 269.407C482.375 269.407 479.847 266.892 479.847 263.902H476.847C476.847 268.649 480.82 272.407 485.608 272.407V269.407ZM464.407 268.789C464.289 267.294 464.29 267.294 464.29 267.294C464.29 267.294 464.291 267.294 464.291 267.294C464.292 267.294 464.292 267.294 464.292 267.294C464.293 267.293 464.294 267.293 464.294 267.293C464.294 267.293 464.293 267.293 464.292 267.294C464.288 267.294 464.28 267.294 464.268 267.295C464.245 267.296 464.205 267.298 464.15 267.3C464.041 267.304 463.875 267.306 463.664 267.301C463.241 267.291 462.652 267.25 461.998 267.128C460.657 266.878 459.226 266.323 458.269 265.201L455.986 267.147C457.577 269.013 459.786 269.767 461.448 270.077C462.295 270.235 463.048 270.287 463.592 270.3C463.865 270.307 464.088 270.304 464.248 270.299C464.328 270.296 464.392 270.293 464.439 270.29C464.462 270.289 464.481 270.288 464.496 270.287C464.503 270.286 464.509 270.286 464.514 270.285C464.517 270.285 464.519 270.285 464.521 270.285C464.522 270.285 464.522 270.285 464.523 270.285C464.524 270.285 464.524 270.285 464.524 270.285C464.525 270.285 464.525 270.284 464.407 268.789ZM458.269 265.201C457.841 264.699 457.436 263.826 457.097 262.635C456.768 261.477 456.541 260.159 456.387 258.894C456.234 257.635 456.156 256.461 456.118 255.599C456.098 255.17 456.089 254.82 456.084 254.58C456.082 254.46 456.081 254.368 456.08 254.306C456.08 254.276 456.08 254.253 456.079 254.238C456.079 254.231 456.079 254.225 456.079 254.222C456.079 254.221 456.079 254.219 456.079 254.219C456.079 254.219 456.079 254.219 456.079 254.219C456.079 254.219 456.079 254.219 456.079 254.219C456.079 254.219 456.079 254.219 454.579 254.219C453.079 254.219 453.079 254.219 453.079 254.22C453.079 254.22 453.079 254.22 453.079 254.22C453.079 254.221 453.079 254.221 453.079 254.222C453.079 254.224 453.079 254.226 453.079 254.229C453.079 254.234 453.079 254.242 453.079 254.252C453.08 254.271 453.08 254.299 453.08 254.334C453.081 254.406 453.082 254.509 453.085 254.64C453.09 254.902 453.1 255.276 453.121 255.734C453.162 256.647 453.244 257.901 453.409 259.257C453.573 260.607 453.824 262.092 454.211 263.455C454.59 264.786 455.139 266.154 455.986 267.147L458.269 265.201ZM454.579 254.219C454.643 255.718 454.643 255.718 454.643 255.718L454.643 255.718C454.643 255.718 454.643 255.718 454.643 255.718C454.644 255.718 454.645 255.718 454.647 255.717C454.65 255.717 454.655 255.717 454.662 255.717C454.677 255.716 454.699 255.716 454.729 255.714C454.789 255.712 454.879 255.71 454.996 255.707C455.23 255.701 455.571 255.696 455.99 255.696C456.83 255.696 457.974 255.718 459.202 255.808C460.435 255.899 461.718 256.055 462.845 256.312C464.009 256.577 464.845 256.916 465.312 257.276L467.142 254.898C466.154 254.137 464.805 253.682 463.512 253.387C462.183 253.084 460.736 252.913 459.421 252.816C458.1 252.72 456.879 252.696 455.99 252.696C455.544 252.696 455.18 252.702 454.925 252.708C454.797 252.711 454.697 252.714 454.627 252.716C454.593 252.717 454.566 252.718 454.547 252.719C454.538 252.719 454.53 252.72 454.525 252.72C454.522 252.72 454.52 252.72 454.518 252.72C454.518 252.72 454.517 252.72 454.516 252.72C454.516 252.72 454.516 252.72 454.516 252.72C454.516 252.72 454.515 252.72 454.579 254.219ZM465.312 257.276C465.745 257.609 466.111 258.15 466.392 258.902C466.672 259.648 466.835 260.513 466.918 261.369C467.001 262.219 467.002 263.013 466.981 263.598C466.97 263.889 466.954 264.124 466.942 264.283C466.935 264.362 466.93 264.423 466.926 264.461C466.924 264.48 466.923 264.494 466.922 264.502C466.921 264.506 466.921 264.509 466.921 264.51C466.921 264.511 466.921 264.511 466.921 264.511C466.921 264.51 466.921 264.51 466.921 264.51C466.921 264.51 466.921 264.51 466.921 264.509C466.921 264.509 466.921 264.509 468.411 264.68C469.902 264.85 469.902 264.85 469.902 264.85C469.902 264.849 469.902 264.849 469.902 264.849C469.902 264.848 469.902 264.847 469.902 264.846C469.902 264.845 469.902 264.843 469.903 264.84C469.903 264.835 469.904 264.828 469.905 264.82C469.907 264.804 469.909 264.782 469.912 264.754C469.917 264.699 469.924 264.62 469.932 264.522C469.948 264.325 469.966 264.046 469.979 263.706C470.003 263.03 470.004 262.097 469.904 261.078C469.806 260.067 469.604 258.923 469.202 257.849C468.801 256.779 468.165 255.686 467.142 254.898L465.312 257.276ZM469.139 269.163C470.058 267.978 470.058 267.978 470.058 267.978C470.058 267.978 470.058 267.978 470.058 267.978C470.058 267.978 470.058 267.978 470.058 267.978C470.058 267.977 470.057 267.977 470.056 267.976C470.055 267.975 470.052 267.973 470.049 267.97C470.042 267.965 470.031 267.957 470.017 267.946C469.988 267.923 469.945 267.889 469.889 267.845C469.777 267.756 469.613 267.626 469.407 267.459C468.996 267.127 468.422 266.654 467.772 266.095C466.46 264.967 464.884 263.526 463.713 262.194L461.461 264.176C462.771 265.666 464.472 267.214 465.816 268.369C466.493 268.952 467.091 269.444 467.521 269.792C467.735 269.966 467.909 270.103 468.029 270.198C468.089 270.246 468.135 270.283 468.168 270.308C468.184 270.32 468.196 270.33 468.205 270.337C468.209 270.34 468.213 270.343 468.215 270.345C468.216 270.346 468.217 270.346 468.218 270.347C468.218 270.347 468.219 270.348 468.219 270.348C468.219 270.348 468.219 270.348 468.219 270.348C468.219 270.348 468.219 270.348 469.139 269.163ZM463.713 262.194C462.554 260.878 461.701 259.565 461.138 258.581C460.857 258.09 460.651 257.685 460.517 257.408C460.45 257.269 460.401 257.163 460.371 257.094C460.355 257.06 460.344 257.035 460.338 257.019C460.334 257.012 460.332 257.007 460.331 257.005C460.331 257.003 460.331 257.003 460.331 257.003C460.331 257.003 460.331 257.003 460.331 257.004C460.331 257.004 460.331 257.004 460.331 257.004C460.331 257.004 460.331 257.005 460.331 257.005C460.332 257.005 460.332 257.005 458.947 257.581C457.562 258.158 457.562 258.158 457.562 258.158C457.562 258.158 457.562 258.159 457.562 258.159C457.562 258.159 457.563 258.16 457.563 258.16C457.563 258.161 457.564 258.163 457.564 258.164C457.566 258.167 457.567 258.17 457.569 258.174C457.572 258.183 457.577 258.194 457.583 258.207C457.595 258.234 457.611 258.272 457.632 258.319C457.674 258.413 457.735 258.546 457.816 258.713C457.976 259.045 458.215 259.512 458.534 260.07C459.17 261.183 460.137 262.672 461.461 264.176L463.713 262.194ZM464.082 263.297L464.446 258.441L461.455 258.217L461.091 263.073L464.082 263.297ZM462.74 261.693L459.1 261.32L458.794 264.304L462.434 264.678L462.74 261.693Z" fill="#1E1E1E"/>
<path d="M147.398 337.385C147.398 337.385 147.398 357.531 120.18 357.531C92.4165 357.531 93.004 337.385 93.004 337.385C93.004 337.385 98.9918 351.376 120.18 351.376C141.942 350.676 147.398 337.385 147.398 337.385Z" stroke="#1E1E1E" stroke-width="3"/>
<path fill-rule="evenodd" clip-rule="evenodd" d="M120.18 351.387C135.744 351.387 148.36 343.018 148.36 332.694C148.36 322.369 135.744 314 120.18 314C104.617 314 92 322.369 92 332.694C92 343.018 104.617 351.387 120.18 351.387ZM108.345 329.691C110.193 329.691 111.691 328.193 111.691 326.345C111.691 324.498 110.193 323 108.345 323C106.498 323 105 324.498 105 326.345C105 328.193 106.498 329.691 108.345 329.691ZM125.691 326.345C125.691 328.193 124.193 329.691 122.345 329.691C120.498 329.691 119 328.193 119 326.345C119 324.498 120.498 323 122.345 323C124.193 323 125.691 324.498 125.691 326.345ZM135.235 330.695C137.083 330.695 138.58 329.197 138.58 327.349C138.58 325.501 137.083 324.004 135.235 324.004C133.387 324.004 131.889 325.501 131.889 327.349C131.889 329.197 133.387 330.695 135.235 330.695ZM114.691 339.345C114.691 341.193 113.193 342.691 111.345 342.691C109.498 342.691 108 341.193 108 339.345C108 337.498 109.498 336 111.345 336C113.193 336 114.691 337.498 114.691 339.345ZM128.345 342.691C130.193 342.691 131.691 341.193 131.691 339.345C131.691 337.498 130.193 336 128.345 336C126.498 336 125 337.498 125 339.345C125 341.193 126.498 342.691 128.345 342.691Z" stroke="#1E1E1E" stroke-width="3"/>
<path d="M355.398 226.385C355.398 226.385 355.398 246.531 328.18 246.531C300.416 246.531 301.004 226.385 301.004 226.385C301.004 226.385 306.992 240.376 328.18 240.376C349.942 239.676 355.398 226.385 355.398 226.385Z" stroke="#1E1E1E" stroke-width="3"/>
<path fill-rule="evenodd" clip-rule="evenodd" d="M328.18 240.387C343.744 240.387 356.36 232.018 356.36 221.694C356.36 211.369 343.744 203 328.18 203C312.617 203 300 211.369 300 221.694C300 232.018 312.617 240.387 328.18 240.387ZM316.345 218.691C318.193 218.691 319.691 217.193 319.691 215.345C319.691 213.498 318.193 212 316.345 212C314.498 212 313 213.498 313 215.345C313 217.193 314.498 218.691 316.345 218.691ZM333.691 215.345C333.691 217.193 332.193 218.691 330.345 218.691C328.498 218.691 327 217.193 327 215.345C327 213.498 328.498 212 330.345 212C332.193 212 333.691 213.498 333.691 215.345ZM343.235 219.695C345.083 219.695 346.58 218.197 346.58 216.349C346.58 214.501 345.083 213.004 343.235 213.004C341.387 213.004 339.889 214.501 339.889 216.349C339.889 218.197 341.387 219.695 343.235 219.695ZM322.691 228.345C322.691 230.193 321.193 231.691 319.345 231.691C317.498 231.691 316 230.193 316 228.345C316 226.498 317.498 225 319.345 225C321.193 225 322.691 226.498 322.691 228.345ZM336.345 231.691C338.193 231.691 339.691 230.193 339.691 228.345C339.691 226.498 338.193 225 336.345 225C334.498 225 333 226.498 333 228.345C333 230.193 334.498 231.691 336.345 231.691Z" stroke="#1E1E1E" stroke-width="3"/>
<path d="M237.306 387.729C241.365 400.592 251.652 401.313 261.659 402.014C264.229 402.194 266.781 402.373 269.204 402.756C268.92 403.166 268.632 403.575 268.342 403.984C258.827 417.399 248.396 414.132 236.511 410.41C232.909 409.282 229.174 408.113 225.291 407.353C221.857 406.681 218.365 406.779 215.005 406.873C206.584 407.108 198.992 407.321 195.209 395.334C188.753 374.877 197.189 362.16 210.886 353.519C220.157 347.669 223.241 348.736 223.241 348.736C223.241 348.736 234.227 348.074 246.488 349.29C236.161 357.817 231.674 369.886 237.306 387.729ZM237.306 387.729C242.598 404.499 258.475 400.63 270.517 402.987C287.216 406.255 298.04 413.858 310.438 396.379C318.287 385.314 324.37 373.695 321.369 358C317.542 337.987 302.796 337.91 289.254 336.198C279.264 334.934 260.661 339.914 251.39 345.764C237.693 354.405 230.849 367.272 237.306 387.729Z" stroke="#1E1E1E" stroke-width="3"/>
</svg>
