<svg width="152" height="157" viewBox="0 0 152 157" fill="none" xmlns="http://www.w3.org/2000/svg">
<path fill-rule="evenodd" clip-rule="evenodd" d="M75.5813 33.3615C90.7025 -0.830632 124.064 6.92647 136.631 20.1678C151.244 35.5665 150.785 58.4197 136.065 88.3671C125.18 110.512 98.263 132.966 75.5813 147.833C52.8981 132.966 25.9824 110.51 15.099 88.3671C0.380299 58.4197 0.576599 35.0689 15.666 20.1678C28.9601 7.03801 60.4609 -0.830632 75.5813 33.3615Z" fill="#81F8F8"/>
<path d="M136.914 19.8823C130.285 12.9013 116.799 6.53648 102.826 9.06759C94.5597 10.5636 83.1841 15.838 75.5812 32.395C69.6273 19.4143 60.599 11.3943 49.425 9.17912C36.0796 6.52946 22.7146 12.6415 15.3934 19.8745C-0.0991995 35.1726 -0.321922 58.9228 14.7441 88.5465C27.1133 114.607 61.2619 138.93 75.3706 148.177C75.4337 148.219 75.5072 148.241 75.5824 148.241C75.6575 148.241 75.731 148.219 75.7941 148.177C89.9006 138.931 124.048 114.609 136.415 88.5566C151.619 58.6615 151.786 35.5525 136.914 19.8823ZM135.71 88.1869C123.488 113.935 89.7594 138.036 75.5812 147.349C61.4031 138.035 27.6727 113.932 15.45 88.1767C0.558407 58.8994 0.727526 35.4846 15.9385 20.4626C23.3072 13.4612 32.9143 9.51008 42.9245 9.36398C55.7104 9.36398 65.6605 16.384 72.3287 27.8352C75.6416 33.5245 78.2177 39.4946 78.5401 54.2179C78.5408 54.2973 78.5725 54.373 78.6277 54.4284C78.6828 54.4838 78.7575 54.5143 78.8338 54.5131C78.9108 54.5119 78.984 54.4793 79.0376 54.4223C79.0912 54.3654 79.1207 54.2887 79.1199 54.2093C79.0399 41.3494 81.1252 29.8733 85.4929 19.1366C90.2758 14.2947 96.3671 11.0643 102.963 9.87176C116.657 7.39058 129.865 13.6197 136.349 20.4532C150.954 35.8458 150.741 58.6311 135.71 88.1869Z" fill="black"/>
<path fill-rule="evenodd" clip-rule="evenodd" d="M21.496 63.6582C20.8006 62.8977 20.257 62.003 19.8964 61.0253C19.5356 60.0478 19.3649 59.0063 19.3938 57.9605C19.4226 56.9147 19.6506 55.885 20.0647 54.9302C20.4788 53.9754 21.0709 53.1142 21.8071 52.3958L45.5224 29.2571C46.2586 28.5387 47.1245 27.9773 48.0707 27.6046C49.0169 27.232 50.0249 27.0556 51.0371 27.0854C52.0493 27.1153 53.046 27.3508 53.9701 27.7785C54.8942 28.2063 55.7278 28.8179 56.423 29.5785C57.1184 30.339 57.6619 31.2336 58.0226 32.2112C58.3833 33.1887 58.554 34.2301 58.5251 35.2758C58.4963 36.3216 58.2683 37.3512 57.8542 38.306C57.4402 39.2607 56.8482 40.1218 56.112 40.8401L32.3967 63.9796C30.9099 65.4302 28.9262 66.2113 26.8819 66.151C24.8377 66.0908 22.9004 65.1941 21.496 63.6582Z" fill="#FFD997"/>
<path fill-rule="evenodd" clip-rule="evenodd" d="M30.4362 50.5028C29.9778 49.9805 29.7389 49.2916 29.7721 48.5875C29.8052 47.8834 30.1076 47.2217 30.6129 46.7478L39.7899 38.0368C40.2896 37.5567 40.9535 37.3013 41.6355 37.3267C42.3175 37.3522 42.9618 37.6564 43.4267 38.1725L47.4833 42.7332C47.9417 43.2554 48.1806 43.9443 48.1474 44.6485C48.1143 45.3526 47.8119 46.0142 47.3067 46.4881L38.1296 55.1991C37.8824 55.437 37.5921 55.6222 37.2755 55.7441C36.9589 55.8661 36.6222 55.9224 36.2846 55.9099C35.9469 55.8973 35.615 55.8162 35.3076 55.6711C35.0003 55.526 34.7237 55.3198 34.4936 55.0642L30.4362 50.5028Z" fill="white"/>
<path d="M56.6345 29.3735C55.1773 27.7799 53.1671 26.8493 51.0458 26.7866C48.9247 26.7238 46.8662 27.534 45.3231 29.0389L21.6085 52.1784C20.8181 52.9168 20.1783 53.8107 19.7267 54.8079C19.2751 55.8051 19.0209 56.8854 18.9789 57.9854C18.9369 59.0855 19.1079 60.1832 19.482 61.214C19.8561 62.2449 20.4257 63.1881 21.1574 63.9885C21.8891 64.7889 22.7681 65.4302 23.7429 65.8749C24.7178 66.3197 25.7687 66.5587 26.8342 66.5782C27.8996 66.5976 28.9582 66.3971 29.9476 65.9882C30.937 65.5794 31.8374 64.9706 32.5961 64.1974L56.3106 41.0587C57.075 40.3137 57.6898 39.4204 58.1199 38.4298C58.5499 37.4392 58.7867 36.3707 58.8168 35.2855C58.8469 34.2003 58.6696 33.1196 58.2952 32.1051C57.9207 31.0907 57.3564 30.1625 56.6345 29.3735ZM58.2358 35.268C58.2106 36.2749 57.9922 37.2666 57.5934 38.1858C57.1947 39.1049 56.6234 39.9332 55.9127 40.6227L32.1974 63.7622C31.4889 64.4536 30.6555 64.994 29.7448 65.3528C28.8341 65.7114 27.864 65.8812 26.8898 65.8526C24.9222 65.7946 23.0575 64.9316 21.7059 63.4533C20.3543 61.9751 19.6265 60.0026 19.6826 57.9699C19.7386 55.9372 20.574 54.0108 22.0049 52.6144L45.7255 29.4749C46.794 28.4386 48.1353 27.752 49.5807 27.5015C51.026 27.2509 52.5108 27.4476 53.8482 28.067C55.1856 28.6862 56.3157 29.7004 57.0965 30.9817C57.8772 32.2631 58.2737 33.7544 58.2358 35.268Z" fill="black"/>
<path d="M43.704 37.9081C43.171 37.3163 42.4323 36.9675 41.6504 36.9382C40.8684 36.909 40.1073 37.2017 39.5342 37.7521L30.3571 46.4608C29.779 47.0052 29.4333 47.7642 29.396 48.5714C29.3586 49.3787 29.6326 50.1683 30.1578 50.7672L34.2144 55.3278C34.4779 55.6217 34.795 55.8589 35.1473 56.0258C35.4998 56.1927 35.8806 56.2862 36.268 56.3006C36.6554 56.3151 37.0418 56.2504 37.405 56.1103C37.7682 55.9701 38.101 55.7572 38.3843 55.4838L47.5613 46.7751C47.8482 46.506 48.0808 46.1811 48.246 45.819C48.4112 45.457 48.5058 45.0648 48.5243 44.665C48.5428 44.2652 48.4849 43.8655 48.3539 43.4888C48.2229 43.1121 48.0213 42.7657 47.7607 42.4695L43.704 37.9081ZM47.051 46.2011L37.8732 54.9121C37.6624 55.1152 37.415 55.2735 37.145 55.3778C36.875 55.4822 36.5878 55.5306 36.2997 55.5202C36.0116 55.5098 35.7283 55.4409 35.466 55.3175C35.2036 55.194 34.9675 55.0183 34.7709 54.8006L30.7143 50.2399C30.3235 49.7939 30.1199 49.206 30.1482 48.6051C30.1765 48.0043 30.4344 47.4395 30.8653 47.0349L40.0446 38.3238C40.4707 37.9142 41.0368 37.6959 41.6186 37.717C42.2003 37.7381 42.7502 37.9967 43.1476 38.4362L47.2042 42.9976C47.3978 43.2183 47.5474 43.4763 47.6445 43.7567C47.7415 44.0372 47.7842 44.3347 47.77 44.6322C47.7557 44.9297 47.6849 45.2213 47.5616 45.4905C47.4382 45.7597 47.2647 46.0011 47.051 46.2011Z" fill="black"/>
<path d="M52.4088 37.5563C52.2776 37.6852 52.1791 37.8457 52.1222 38.0234C52.0653 38.201 52.0516 38.3904 52.0825 38.5748C52.1134 38.7593 52.1878 38.9329 52.2991 39.0806C52.4105 39.2281 52.5554 39.3451 52.7209 39.421C52.8865 39.497 53.0676 39.5295 53.2483 39.5159C53.429 39.5022 53.6036 39.4428 53.7567 39.3428C53.9098 39.2427 54.0367 39.1053 54.1261 38.9425C54.2155 38.7797 54.2646 38.5967 54.2691 38.4096C54.2743 38.1847 54.2149 37.9634 54.0983 37.7734C53.9818 37.5834 53.8134 37.4332 53.6145 37.342C53.4155 37.2507 53.1948 37.2224 52.9802 37.2605C52.7656 37.2987 52.5669 37.4015 52.4088 37.5563ZM53.527 38.7715C53.4522 38.8449 53.358 38.8938 53.2563 38.9119C53.1546 38.93 53.05 38.9165 52.9557 38.8732C52.8614 38.83 52.7817 38.7587 52.7266 38.6687C52.6715 38.5785 52.6435 38.4736 52.6461 38.367C52.6488 38.2604 52.682 38.1571 52.7415 38.07C52.801 37.9829 52.8841 37.916 52.9804 37.8777C53.0767 37.8394 53.1818 37.8316 53.2824 37.855C53.3832 37.8784 53.4748 37.9322 53.5459 38.0095C53.5933 38.0607 53.6303 38.1211 53.655 38.1872C53.6798 38.2532 53.6916 38.3237 53.6898 38.3946C53.6881 38.4654 53.6728 38.5351 53.6448 38.5999C53.6169 38.6645 53.5768 38.7229 53.527 38.7715Z" fill="black"/>
<path d="M32.4 57.146C32.2688 57.2749 32.1703 57.4354 32.1134 57.613C32.0565 57.7906 32.0429 57.98 32.0737 58.1644C32.1045 58.3488 32.1789 58.5224 32.2902 58.6701C32.4015 58.8176 32.5463 58.9346 32.7118 59.0106C32.8773 59.0866 33.0584 59.1193 33.239 59.1057C33.4197 59.0921 33.5943 59.0328 33.7474 58.9328C33.9006 58.8329 34.0275 58.6955 34.1169 58.5329C34.2064 58.3701 34.2556 58.1872 34.2603 58.0001C34.2652 57.7753 34.2057 57.5541 34.0892 57.3642C33.9727 57.1743 33.8044 57.0243 33.6055 56.933C33.4066 56.8417 33.1861 56.8132 32.9715 56.8511C32.757 56.889 32.5582 56.9917 32.4 57.146ZM33.5182 58.362C33.4433 58.4354 33.3491 58.4841 33.2475 58.5021C33.1459 58.5201 33.0413 58.5066 32.9471 58.4633C32.8529 58.42 32.7732 58.3488 32.7181 58.2587C32.663 58.1686 32.6351 58.0636 32.6377 57.9571C32.6403 57.8506 32.6735 57.7473 32.733 57.6602C32.7924 57.5731 32.8754 57.5062 32.9717 57.4679C33.068 57.4296 33.173 57.4217 33.2736 57.4451C33.3743 57.4684 33.4659 57.5221 33.537 57.5992C33.5844 57.6505 33.6216 57.711 33.6463 57.7771C33.671 57.8433 33.6828 57.9138 33.6811 57.9847C33.6793 58.0556 33.664 58.1254 33.6361 58.1902C33.6082 58.2549 33.5681 58.3134 33.5182 58.362Z" fill="black"/>
<path d="M48.9926 41.3721C48.9878 41.5593 49.0278 41.7448 49.1091 41.9122C49.1904 42.0795 49.3103 42.2235 49.4584 42.3316C49.6065 42.4395 49.778 42.5082 49.9578 42.5312C50.1377 42.5543 50.3203 42.5312 50.4894 42.464C50.6585 42.3967 50.809 42.2874 50.9275 42.1457C51.0459 42.004 51.1287 41.8342 51.1685 41.6516C51.2082 41.4689 51.2037 41.2789 51.1554 41.0985C51.1071 40.918 51.0164 40.7526 50.8914 40.617C50.7418 40.4531 50.5482 40.3388 50.3354 40.2888C50.1227 40.2388 49.9004 40.2554 49.6968 40.3363C49.4931 40.4173 49.3174 40.559 49.192 40.7435C49.0666 40.9279 48.9972 41.1467 48.9926 41.3721ZM50.4527 41.7917C50.391 41.8524 50.3157 41.8965 50.2336 41.9201C50.1516 41.9437 50.0651 41.9463 49.9818 41.9274C49.8986 41.9086 49.8211 41.869 49.7561 41.8121C49.6911 41.7551 49.6405 41.6826 49.6089 41.6009C49.5773 41.519 49.5656 41.4306 49.5747 41.343C49.5839 41.2555 49.6137 41.1716 49.6615 41.0987C49.7093 41.0258 49.7736 40.9661 49.849 40.9248C49.9242 40.8836 50.0081 40.862 50.0934 40.862C50.1975 40.8626 50.2991 40.8953 50.3852 40.9559C50.4712 41.0165 50.5378 41.1023 50.5764 41.2022C50.6151 41.3021 50.6239 41.4117 50.6018 41.5169C50.5798 41.622 50.5279 41.718 50.4527 41.7925V41.7917Z" fill="black"/>
<path d="M29.3257 60.1662C29.1678 60.3213 29.0578 60.5212 29.0099 60.7408C28.9619 60.9605 28.9782 61.1898 29.0564 61.3998C29.1347 61.61 29.2715 61.7914 29.4495 61.9211C29.6276 62.0509 29.8389 62.1232 30.0567 62.1288C30.2745 62.1345 30.4891 62.0734 30.6732 61.953C30.8574 61.8327 31.0029 61.6586 31.0913 61.4529C31.1797 61.2471 31.207 61.0189 31.1699 60.7971C31.1327 60.5753 31.0327 60.3698 30.8825 60.2067C30.681 59.9886 30.4041 59.8618 30.1123 59.8542C29.8205 59.8465 29.5376 59.9588 29.3257 60.1662ZM30.4439 61.3822C30.3816 61.443 30.3058 61.487 30.2232 61.5104C30.1405 61.5338 30.0536 61.5357 29.97 61.5161C29.8865 61.4966 29.8089 61.456 29.7441 61.3981C29.6793 61.3402 29.6294 61.2667 29.5986 61.1841C29.5678 61.1015 29.5573 61.0123 29.5678 60.9244C29.5783 60.8366 29.6095 60.7528 29.6588 60.6804C29.7081 60.608 29.7739 60.5492 29.8504 60.5094C29.9268 60.4695 30.0117 60.4496 30.0973 60.4517C30.2011 60.4534 30.302 60.487 30.387 60.5484C30.4721 60.6098 30.5375 60.696 30.5748 60.796C30.612 60.8961 30.6195 61.0054 30.5961 61.1098C30.5728 61.2143 30.5198 61.3091 30.4439 61.3822Z" fill="black"/>
<path d="M49.8503 34.7764C49.6926 34.9315 49.5829 35.1315 49.5351 35.3511C49.4874 35.5706 49.5037 35.7998 49.582 36.0098C49.6603 36.2198 49.7971 36.4011 49.9752 36.5307C50.1531 36.6604 50.3644 36.7326 50.5821 36.7383C50.7999 36.744 51.0144 36.6828 51.1984 36.5625C51.3826 36.4423 51.528 36.2684 51.6165 36.0628C51.7049 35.8572 51.7324 35.6291 51.6954 35.4073C51.6584 35.1856 51.5586 34.9801 51.4086 34.817C51.2072 34.5981 50.9298 34.4709 50.6376 34.4633C50.3453 34.4557 50.0621 34.5683 49.8503 34.7764ZM50.97 35.9924C50.8952 36.0658 50.8011 36.1147 50.6994 36.1327C50.5977 36.1509 50.4933 36.1375 50.399 36.0943C50.3047 36.0511 50.2249 35.9799 50.1698 35.8899C50.1146 35.7998 50.0865 35.6949 50.0891 35.5885C50.0916 35.4819 50.1247 35.3786 50.184 35.2914C50.2433 35.2043 50.3264 35.1373 50.4226 35.0989C50.5188 35.0605 50.6239 35.0525 50.7245 35.0757C50.8251 35.0989 50.9169 35.1525 50.9881 35.2296C51.0834 35.3333 51.1349 35.4719 51.1315 35.6149C51.1281 35.7579 51.0701 35.8936 50.97 35.9924Z" fill="black"/>
<path d="M30.6289 54.0533C30.4111 54.0476 30.1965 54.1086 30.0123 54.2288C29.8281 54.3491 29.6825 54.523 29.594 54.7287C29.5055 54.9345 29.478 55.1626 29.5151 55.3845C29.5521 55.6063 29.652 55.8118 29.8022 55.975C29.9523 56.1382 30.1459 56.2517 30.3584 56.3011C30.571 56.3507 30.793 56.3339 30.9964 56.253C31.1997 56.1721 31.3752 56.0308 31.5009 55.8468C31.6264 55.6628 31.6963 55.4445 31.7018 55.2194C31.7089 54.9179 31.5999 54.6258 31.3988 54.4071C31.1977 54.1886 30.9208 54.0613 30.6289 54.0533ZM30.9604 55.5813C30.8987 55.6422 30.8234 55.6864 30.7413 55.7103C30.6592 55.7341 30.5727 55.7367 30.4893 55.718C30.406 55.6993 30.3283 55.6597 30.2632 55.6027C30.1981 55.5458 30.1475 55.4732 30.1158 55.3914C30.0842 55.3095 30.0724 55.2209 30.0816 55.1333C30.0908 55.0457 30.1207 54.9617 30.1685 54.8888C30.2164 54.8158 30.2809 54.7562 30.3563 54.715C30.4316 54.6737 30.5157 54.6523 30.601 54.6524C30.7052 54.6525 30.8069 54.6849 30.8931 54.7453C30.9793 54.8057 31.0461 54.8914 31.0847 54.9913C31.1234 55.0913 31.1322 55.2009 31.11 55.306C31.0879 55.4111 31.0357 55.5071 30.9604 55.5813Z" fill="black"/>
<path d="M46.7759 37.7966C46.6448 37.9254 46.5465 38.0856 46.4895 38.2631C46.4326 38.4405 46.4189 38.6297 46.4495 38.8139C46.4802 38.9982 46.5543 39.1718 46.6654 39.3194C46.7764 39.4669 46.9209 39.584 47.0861 39.6602C47.2513 39.7364 47.4321 39.7694 47.6127 39.7563C47.7932 39.7431 47.9677 39.6842 48.121 39.5848C48.2742 39.4854 48.4013 39.3485 48.4913 39.1863C48.5811 39.0241 48.6309 38.8415 48.6362 38.6546C48.6419 38.4295 48.5829 38.2077 48.4667 38.0171C48.3505 37.8267 48.1822 37.676 47.9832 37.5842C47.7842 37.4924 47.5633 37.4636 47.3484 37.5014C47.1335 37.5392 46.9343 37.6419 46.7759 37.7966ZM47.8948 39.0126C47.8201 39.0861 47.7259 39.135 47.6243 39.1532C47.5226 39.1715 47.418 39.1581 47.3237 39.1149C47.2294 39.0717 47.1496 39.0006 47.0944 38.9106C47.0392 38.8205 47.011 38.7156 47.0136 38.6089C47.0161 38.5024 47.0491 38.399 47.1086 38.3118C47.168 38.2247 47.2511 38.1577 47.3474 38.1193C47.4436 38.081 47.5487 38.073 47.6494 38.0963C47.7501 38.1196 47.8418 38.1733 47.9129 38.2505C47.9602 38.3018 47.9972 38.3621 48.0219 38.4282C48.0465 38.4943 48.0583 38.5647 48.0567 38.6355C48.0549 38.7062 48.0398 38.7759 48.0121 38.8407C47.9843 38.9053 47.9444 38.9638 47.8948 39.0126Z" fill="black"/>
<path d="M26.4252 58.1826C26.4206 58.3697 26.4606 58.5551 26.542 58.7224C26.6233 58.8896 26.7432 59.0336 26.8912 59.1415C27.0393 59.2494 27.2107 59.3179 27.3905 59.341C27.5703 59.3641 27.7528 59.341 27.9219 59.2738C28.091 59.2065 28.2414 59.0973 28.3598 58.9557C28.4783 58.8141 28.5611 58.6445 28.6009 58.4619C28.6408 58.2793 28.6364 58.0894 28.5882 57.909C28.5401 57.7286 28.4495 57.5632 28.3247 57.4276C28.1758 57.2618 27.982 57.1458 27.7687 57.0948C27.5553 57.0437 27.3321 57.0599 27.1277 57.1411C26.9233 57.2224 26.7471 57.365 26.6219 57.5507C26.4967 57.7362 26.4282 57.9564 26.4252 58.1826ZM27.8861 58.6015C27.8244 58.6623 27.7491 58.7066 27.667 58.7304C27.5849 58.7542 27.4984 58.7569 27.415 58.7381C27.3317 58.7194 27.254 58.6798 27.1889 58.6229C27.1238 58.5659 27.0732 58.4934 27.0415 58.4116C27.0099 58.3297 26.9981 58.241 27.0073 58.1535C27.0165 58.0659 27.0464 57.9819 27.0942 57.9089C27.1421 57.836 27.2066 57.7763 27.282 57.7351C27.3574 57.6939 27.4414 57.6724 27.5267 57.6725C27.6307 57.6731 27.7322 57.7057 27.8181 57.7661C27.9041 57.8266 27.9706 57.9122 28.0093 58.012C28.0479 58.1117 28.0568 58.2212 28.0348 58.3261C28.0129 58.4312 27.9611 58.5271 27.8861 58.6015Z" fill="black"/>
<path d="M48.8493 32.0378C48.7237 31.9012 48.5672 31.7991 48.3939 31.7403C48.2207 31.6817 48.0359 31.6683 47.8565 31.7016C47.6769 31.7348 47.5083 31.8136 47.3655 31.9307C47.2227 32.048 47.1103 32.2 47.0384 32.3731C46.9665 32.5462 46.9374 32.7351 46.9536 32.9227C46.9698 33.1104 47.0308 33.291 47.1312 33.4483C47.2315 33.6055 47.3682 33.7346 47.5288 33.8239C47.6894 33.9132 47.8689 33.9598 48.0512 33.9597C48.2667 33.9597 48.4774 33.8943 48.6572 33.7718C48.8371 33.6492 48.9782 33.4749 49.0631 33.2704C49.148 33.0659 49.173 32.84 49.1351 32.621C49.097 32.4019 48.9977 32.1992 48.8493 32.0378ZM48.4106 33.2125C48.3484 33.2735 48.2726 33.3177 48.1899 33.3412C48.1073 33.3647 48.0203 33.3669 47.9366 33.3474C47.853 33.3279 47.7753 33.2873 47.7104 33.2294C47.6455 33.1715 47.5955 33.0979 47.5647 33.0152C47.5339 32.9326 47.5232 32.8433 47.5338 32.7554C47.5443 32.6675 47.5756 32.5836 47.625 32.5112C47.6744 32.4387 47.7403 32.38 47.8169 32.3401C47.8935 32.3004 47.9784 32.2806 48.0641 32.2827C48.1674 32.2853 48.2675 32.3195 48.352 32.3809C48.4364 32.4424 48.5012 32.5284 48.5384 32.6279C48.5754 32.7275 48.5831 32.8361 48.5604 32.9402C48.5377 33.0443 48.4855 33.1391 48.4106 33.2125Z" fill="black"/>
<path d="M28.841 51.6275C28.7154 51.491 28.5589 51.3888 28.3856 51.33C28.2123 51.2714 28.0276 51.258 27.8482 51.2913C27.6686 51.3245 27.5 51.4032 27.3572 51.5204C27.2144 51.6377 27.102 51.7896 27.0301 51.9628C26.9582 52.1359 26.9291 52.3248 26.9453 52.5124C26.9614 52.7001 27.0225 52.8807 27.1229 53.0379C27.2232 53.1953 27.3599 53.3243 27.5205 53.4136C27.6811 53.5029 27.8606 53.5495 28.0429 53.5495C28.2595 53.5519 28.4718 53.4881 28.6532 53.366C28.8346 53.2438 28.977 53.0691 29.0624 52.8634C29.1477 52.6579 29.1723 52.4308 29.1329 52.2108C29.0935 51.9909 28.9919 51.7879 28.841 51.6275ZM27.6639 52.7827C27.6051 52.7184 27.5625 52.6401 27.5399 52.5547C27.5172 52.4693 27.5154 52.3795 27.5343 52.2932C27.5533 52.2069 27.5925 52.1267 27.6486 52.0598C27.7046 51.9929 27.7758 51.9412 27.8558 51.9094C27.9357 51.8777 28.022 51.8667 28.107 51.8776C28.1921 51.8884 28.2732 51.9207 28.3433 51.9717C28.4134 52.0226 28.4702 52.0905 28.5088 52.1696C28.5474 52.2486 28.5666 52.3362 28.5647 52.4247C28.5631 52.5319 28.5305 52.6362 28.471 52.724C28.4116 52.8119 28.3282 52.8794 28.2313 52.9179C28.1345 52.9564 28.0287 52.9641 27.9276 52.94C27.8265 52.9159 27.7347 52.8612 27.6639 52.7827Z" fill="black"/>
<path d="M44.9765 36.9799C45.1564 36.9796 45.3335 36.9338 45.4924 36.8465C45.6512 36.7591 45.7868 36.633 45.8875 36.4789C45.9883 36.3249 46.0509 36.1477 46.07 35.9629C46.0892 35.7781 46.0642 35.5912 45.9973 35.4187C45.9304 35.2461 45.8236 35.0932 45.6862 34.9731C45.5489 34.853 45.3852 34.7696 45.2093 34.73C45.0336 34.6904 44.8511 34.6959 44.6778 34.746C44.5045 34.7962 44.3458 34.8893 44.2154 35.0174C44.0555 35.1742 43.9447 35.377 43.8975 35.5996C43.8504 35.8221 43.869 36.0541 43.951 36.2656C44.033 36.4771 44.1746 36.6583 44.3575 36.7856C44.5403 36.913 44.756 36.9807 44.9765 36.9799ZM44.6171 35.4511C44.6919 35.3777 44.7862 35.3289 44.8878 35.3107C44.9895 35.2926 45.094 35.3061 45.1883 35.3494C45.2826 35.3927 45.3624 35.4639 45.4175 35.554C45.4726 35.6442 45.5006 35.7492 45.498 35.8557C45.4953 35.9623 45.4622 36.0656 45.4027 36.1527C45.3432 36.2398 45.26 36.3067 45.1637 36.3449C45.0674 36.3832 44.9623 36.3911 44.8617 36.3677C44.761 36.3442 44.6693 36.2905 44.5982 36.2132C44.5031 36.1094 44.4517 35.971 44.4552 35.8281C44.4587 35.6853 44.517 35.5497 44.6171 35.4511Z" fill="black"/>
<path d="M24.996 54.2944C24.7784 54.2886 24.5639 54.3496 24.3798 54.4697C24.1956 54.5897 24.0502 54.7635 23.9615 54.969C23.873 55.1744 23.8453 55.4024 23.882 55.6242C23.9188 55.8459 24.0184 56.0514 24.1681 56.2146C24.3178 56.378 24.5111 56.4918 24.7234 56.5417C24.9357 56.5916 25.1575 56.5754 25.3609 56.495C25.5643 56.4148 25.7402 56.2741 25.8662 56.0906C25.9922 55.9072 26.0627 55.6892 26.0689 55.4644C26.073 55.3147 26.0485 55.1657 25.9968 55.0258C25.9451 54.886 25.8671 54.7581 25.7675 54.6493C25.6678 54.5407 25.5484 54.4534 25.416 54.3925C25.2836 54.3316 25.1409 54.2982 24.996 54.2944ZM25.3275 55.8224C25.2657 55.8831 25.1904 55.9271 25.1084 55.9508C25.0263 55.9744 24.9399 55.977 24.8566 55.9581C24.7733 55.9393 24.6958 55.8997 24.6308 55.8427C24.5658 55.7858 24.5152 55.7133 24.4837 55.6315C24.452 55.5497 24.4403 55.4612 24.4495 55.3736C24.4586 55.2861 24.4884 55.2023 24.5362 55.1293C24.584 55.0564 24.6483 54.9967 24.7236 54.9555C24.799 54.9142 24.8829 54.8926 24.9681 54.8926C25.0724 54.8926 25.1744 54.9249 25.2607 54.9854C25.3471 55.0458 25.414 55.1316 25.4526 55.2318C25.4914 55.3318 25.5001 55.4416 25.4778 55.5469C25.4554 55.6522 25.4031 55.7481 25.3275 55.8224Z" fill="black"/>
<path fill-rule="evenodd" clip-rule="evenodd" d="M56.4232 63.6582C57.1186 62.8977 57.6621 62.003 58.0229 61.0253C58.3836 60.0478 58.5543 59.0063 58.5255 57.9605C58.4966 56.9147 58.2686 55.885 57.8545 54.9302C57.4404 53.9754 56.8484 53.1142 56.1121 52.3958L32.3968 29.2571C31.6607 28.5388 30.7947 27.9774 29.8486 27.6048C28.9023 27.2322 27.8944 27.0558 26.8822 27.0857C25.87 27.1156 24.8734 27.3511 23.9494 27.7789C23.0252 28.2067 22.1918 28.8183 21.4965 29.5789C20.8012 30.3394 20.2578 31.234 19.8971 32.2115C19.5365 33.1891 19.3658 34.2304 19.3947 35.2761C19.4237 36.3218 19.6517 37.3514 20.0657 38.3061C20.4798 39.2608 21.0718 40.1218 21.808 40.8401L45.5225 63.9796C47.0093 65.4302 48.993 66.2113 51.0372 66.151C53.0815 66.0908 55.0189 65.1941 56.4232 63.6582Z" fill="#FFD997"/>
<path fill-rule="evenodd" clip-rule="evenodd" d="M47.4828 50.5028C47.9412 49.9805 48.1801 49.2916 48.1469 48.5875C48.1138 47.8834 47.8114 47.2217 47.3062 46.7478L38.1291 38.0368C37.6294 37.5567 36.9655 37.3013 36.2835 37.3267C35.6016 37.3522 34.9572 37.6564 34.4923 38.1725L30.4357 42.7332C29.9773 43.2554 29.7385 43.9443 29.7716 44.6484C29.8047 45.3526 30.1071 46.0142 30.6124 46.4881L39.7894 55.1991C40.0367 55.437 40.327 55.6222 40.6437 55.7442C40.9603 55.8661 41.2971 55.9224 41.6348 55.91C41.9725 55.8974 42.3046 55.8163 42.612 55.6711C42.9193 55.526 43.196 55.3198 43.4262 55.0642L47.4828 50.5028Z" fill="white"/>
<path d="M56.3111 52.1782L32.5958 29.0387C31.835 28.2889 30.937 27.7035 29.9544 27.3167C28.9719 26.9298 27.9245 26.7495 26.8736 26.7861C25.2946 26.8391 23.7659 27.3731 22.4798 28.321C21.1936 29.2688 20.2071 30.5882 19.6446 32.1134C19.082 33.6386 18.9682 35.3016 19.3176 36.8934C19.6669 38.4852 20.4639 39.9348 21.6083 41.0601L45.3228 64.1988C46.0829 64.9652 46.983 65.5677 47.9707 65.971C48.9584 66.3744 50.0139 66.5707 51.0757 66.5484C52.1376 66.5261 53.1845 66.2856 54.1555 65.841C55.1265 65.3965 56.0022 64.7566 56.7313 63.9589C57.4606 63.1612 58.0288 62.2215 58.4029 61.1946C58.7771 60.1677 58.9496 59.0741 58.9105 57.9776C58.8714 56.8811 58.6214 55.8037 58.1751 54.808C57.7288 53.8123 57.0952 52.9184 56.3111 52.1782ZM56.2122 63.4523C54.8598 64.9301 52.9951 65.793 51.0275 65.8515C49.0598 65.91 47.1501 65.1593 45.7177 63.7643L22.0062 40.6225C21.2977 39.9311 20.7279 39.1023 20.3295 38.1834C19.931 37.2645 19.7116 36.2735 19.6839 35.267C19.6278 33.2344 20.3556 31.2619 21.7072 29.7836C23.0588 28.3054 24.9235 27.4423 26.891 27.3844C28.8585 27.3265 30.7678 28.0784 32.1987 29.4748L55.9132 52.6142C57.342 54.0117 58.176 55.9376 58.232 57.9694C58.2881 60.0013 57.5617 61.9731 56.2122 63.4523Z" fill="black"/>
<path d="M47.7639 50.7672C48.2894 50.1684 48.5634 49.3787 48.5261 48.5714C48.4888 47.7641 48.143 47.0051 47.5646 46.4608L38.3845 37.7498C37.8112 37.2 37.0501 36.9077 36.2684 36.9368C35.4866 36.9661 34.7481 37.3146 34.2147 37.9058L30.158 42.4672C29.8968 42.7631 29.6947 43.1094 29.5634 43.4862C29.432 43.863 29.374 44.2629 29.3925 44.6629C29.4111 45.063 29.506 45.4553 29.6717 45.8174C29.8374 46.1794 30.0707 46.5041 30.3581 46.7728L39.5344 55.4862C39.8181 55.759 40.151 55.9714 40.5142 56.1112C40.8774 56.251 41.2636 56.3155 41.651 56.301C42.0383 56.2866 42.4191 56.1934 42.7715 56.0268C43.124 55.8602 43.4411 55.6235 43.705 55.3302L47.7639 50.7672ZM43.1508 54.8006C42.7535 55.2401 42.2035 55.4987 41.6217 55.5196C41.0399 55.5405 40.4738 55.3221 40.0478 54.9121L30.8685 46.2011C30.6548 46.0011 30.4815 45.7595 30.3583 45.4902C30.235 45.2209 30.1644 44.9292 30.1503 44.6317C30.1363 44.3341 30.1792 44.0367 30.2765 43.7563C30.3738 43.476 30.5237 43.2181 30.7175 42.9976L34.7711 38.4385C35.1685 37.999 35.7184 37.7404 36.3001 37.7193C36.8819 37.6983 37.4479 37.9165 37.8741 38.3262L47.0504 47.0349C47.4811 47.4396 47.7389 48.0043 47.7671 48.6052C47.7954 49.2059 47.592 49.7938 47.2014 50.2399L43.1508 54.8006Z" fill="black"/>
<path d="M23.9525 37.5969C23.8277 37.7326 23.7372 37.898 23.689 38.0784C23.6409 38.2589 23.6366 38.4488 23.6764 38.6314C23.7163 38.814 23.7992 38.9836 23.9176 39.1252C24.0362 39.2668 24.1867 39.3761 24.3558 39.4432C24.5249 39.5104 24.7075 39.5334 24.8872 39.5102C25.0671 39.4871 25.2385 39.4184 25.3865 39.3104C25.5345 39.2024 25.6545 39.0584 25.7356 38.8911C25.8169 38.7237 25.8569 38.5383 25.8521 38.3511C25.8461 38.1264 25.7758 37.9086 25.6501 37.725C25.5244 37.5415 25.3488 37.4005 25.1457 37.3198C24.9426 37.2392 24.7208 37.2224 24.5085 37.2718C24.2962 37.3211 24.1027 37.4342 23.9525 37.5969ZM24.3919 38.7716C24.3298 38.7105 24.2832 38.6346 24.2563 38.5504C24.2293 38.4664 24.2228 38.3766 24.2374 38.2894C24.252 38.202 24.2872 38.1198 24.3399 38.0499C24.3926 37.9799 24.4612 37.9246 24.5395 37.8886C24.6179 37.8526 24.7036 37.837 24.7891 37.8434C24.8747 37.8498 24.9574 37.8779 25.0299 37.9252C25.1025 37.9725 25.1626 38.0375 25.205 38.1146C25.2474 38.1916 25.2708 38.2782 25.273 38.3667C25.2761 38.4735 25.2484 38.5789 25.1934 38.6693C25.1383 38.7598 25.0585 38.8312 24.964 38.8747C24.8696 38.9181 24.7647 38.9315 24.6628 38.9131C24.5609 38.8947 24.4666 38.8455 24.3919 38.7716Z" fill="black"/>
<path d="M45.5187 57.146C45.3874 57.0171 45.2273 56.9236 45.0527 56.8738C44.878 56.824 44.6942 56.8195 44.5175 56.8607C44.3408 56.9019 44.1766 56.9874 44.0395 57.1098C43.9024 57.2321 43.7967 57.3875 43.7317 57.5622C43.6666 57.7369 43.6443 57.9255 43.6666 58.1112C43.6889 58.2969 43.7553 58.4741 43.8597 58.627C43.9642 58.7799 44.1035 58.9038 44.2654 58.9878C44.4273 59.0718 44.6067 59.1133 44.7878 59.1085C45.0053 59.102 45.216 59.0293 45.3936 58.8994C45.5711 58.7695 45.7075 58.5883 45.7856 58.3786C45.8637 58.1688 45.88 57.9399 45.8325 57.7206C45.785 57.5013 45.6759 57.3014 45.5187 57.146ZM45.1412 58.3418C45.0822 58.4057 45.0089 58.4538 44.9277 58.4816C44.8466 58.5095 44.76 58.5162 44.6757 58.5014C44.5914 58.4866 44.5119 58.4506 44.4443 58.3966C44.3766 58.3425 44.3228 58.2721 44.2877 58.1916C44.2525 58.111 44.2371 58.0228 44.2428 57.9347C44.2484 57.8465 44.2749 57.7611 44.3199 57.686C44.365 57.6109 44.4273 57.5484 44.5012 57.504C44.5752 57.4597 44.6586 57.4348 44.744 57.4315C44.8478 57.4274 44.9503 57.4555 45.0384 57.5121C45.1266 57.5687 45.1964 57.6512 45.2387 57.7491C45.2811 57.847 45.2942 57.9557 45.2762 58.0614C45.2583 58.167 45.2102 58.2646 45.1381 58.3418H45.1412Z" fill="black"/>
<path d="M27.7981 40.2637C27.6167 40.2681 27.4392 40.3186 27.2813 40.4109C27.1234 40.5032 26.99 40.6344 26.893 40.7927C26.796 40.951 26.7383 41.1318 26.7251 41.3187C26.7119 41.5056 26.7436 41.693 26.8174 41.8642C26.8911 42.0354 27.0047 42.1852 27.148 42.3001C27.2913 42.4151 27.4598 42.4918 27.6386 42.5233C27.8174 42.5547 28.001 42.5401 28.1731 42.4807C28.3452 42.4213 28.5003 42.3188 28.6248 42.1825C28.7748 42.0195 28.8745 41.8142 28.9114 41.5926C28.9483 41.371 28.9208 41.1431 28.8323 40.9376C28.7437 40.7322 28.5982 40.5585 28.4142 40.4386C28.2301 40.3186 28.0157 40.2578 27.7981 40.2637ZM28.2043 41.773C28.1447 41.8375 28.0706 41.8858 27.9885 41.9134C27.9064 41.941 27.819 41.9472 27.7341 41.9313C27.6491 41.9155 27.5693 41.8781 27.5018 41.8225C27.4343 41.767 27.3812 41.695 27.3472 41.613C27.3132 41.531 27.2995 41.4417 27.3072 41.3529C27.3149 41.2641 27.3438 41.1786 27.3913 41.1042C27.4389 41.0297 27.5035 40.9687 27.5795 40.9264C27.6556 40.8841 27.7405 40.862 27.8268 40.862C27.9291 40.8616 28.0292 40.8924 28.1147 40.9504C28.2002 41.0084 28.2673 41.0912 28.3075 41.1884C28.3477 41.2855 28.3594 41.3928 28.3411 41.4967C28.3227 41.6007 28.2752 41.6968 28.2043 41.773Z" fill="black"/>
<path d="M47.0364 60.2068C46.8861 60.37 46.7862 60.5755 46.749 60.7975C46.7119 61.0194 46.7392 61.2478 46.8277 61.4537C46.9162 61.6595 47.0618 61.8336 47.2461 61.954C47.4304 62.0744 47.645 62.1356 47.863 62.1299C48.0809 62.1243 48.2923 62.0519 48.4705 61.9221C48.6487 61.7923 48.7856 61.6108 48.8639 61.4006C48.9422 61.1904 48.9585 60.9609 48.9105 60.7412C48.8627 60.5215 48.7527 60.3214 48.5947 60.1662C48.4898 60.0631 48.3664 59.9823 48.2313 59.9285C48.0962 59.8747 47.9521 59.849 47.8074 59.8527C47.6627 59.8565 47.5201 59.8897 47.3878 59.9505C47.2555 60.0112 47.1361 60.0983 47.0364 60.2068ZM47.4758 61.3822C47.4133 61.3211 47.3663 61.2451 47.339 61.1608C47.3117 61.0765 47.3051 60.9865 47.3196 60.8989C47.3341 60.8113 47.3693 60.7287 47.4221 60.6585C47.4749 60.5884 47.5437 60.5328 47.6223 60.4966C47.7009 60.4605 47.7869 60.445 47.8727 60.4515C47.9586 60.458 48.0414 60.4863 48.1142 60.5339C48.1869 60.5814 48.247 60.6468 48.2894 60.7242C48.3317 60.8016 48.3549 60.8886 48.3569 60.9774C48.3596 61.084 48.3317 61.1891 48.2766 61.2793C48.2215 61.3695 48.1417 61.4408 48.0473 61.4842C47.953 61.5275 47.8484 61.5409 47.7466 61.5229C47.6448 61.5047 47.5506 61.4557 47.4758 61.3822Z" fill="black"/>
<path d="M28.1071 36.3856C28.2573 36.2225 28.3573 36.017 28.3944 35.7953C28.4316 35.5734 28.4043 35.3452 28.3158 35.1394C28.2274 34.9337 28.082 34.7597 27.8978 34.6393C27.7137 34.519 27.4991 34.4578 27.2813 34.4635C27.0635 34.4692 26.8521 34.5414 26.6741 34.6712C26.4961 34.801 26.3593 34.9824 26.281 35.1925C26.2028 35.4025 26.1866 35.6319 26.2345 35.8515C26.2824 36.0711 26.3923 36.2711 26.5503 36.4261C26.7622 36.6335 27.045 36.7458 27.3368 36.7381C27.6286 36.7306 27.9056 36.6037 28.1071 36.3856ZM26.7866 35.6149C26.7846 35.5265 26.8039 35.4388 26.8425 35.3598C26.881 35.2808 26.9379 35.2128 27.008 35.1619C27.0781 35.111 27.1592 35.0787 27.2442 35.0678C27.3292 35.0569 27.4156 35.0679 27.4955 35.0997C27.5755 35.1315 27.6466 35.1831 27.7027 35.2501C27.7587 35.317 27.798 35.3972 27.8169 35.4834C27.8359 35.5698 27.834 35.6595 27.8114 35.745C27.7888 35.8303 27.7462 35.9086 27.6873 35.973C27.6163 36.0506 27.5245 36.1047 27.4237 36.1283C27.3228 36.152 27.2174 36.1442 27.1208 36.1058C27.0243 36.0674 26.941 36.0003 26.8815 35.9128C26.822 35.8255 26.7889 35.7218 26.7866 35.6149Z" fill="black"/>
<path d="M48.4195 55.1625C48.4144 54.9758 48.3649 54.7932 48.2754 54.6309C48.1859 54.4686 48.0591 54.3315 47.9061 54.2318C47.7532 54.1321 47.5788 54.0729 47.3985 54.0593C47.2181 54.0457 47.0373 54.0782 46.8719 54.1539C46.7067 54.2296 46.5619 54.3462 46.4505 54.4934C46.3391 54.6405 46.2645 54.8138 46.2334 54.9979C46.2021 55.1819 46.2152 55.371 46.2716 55.5485C46.3278 55.7261 46.4256 55.8866 46.5561 56.0158C46.7138 56.1725 46.9129 56.277 47.1283 56.3161C47.3436 56.3553 47.5653 56.3274 47.7653 56.2358C47.9652 56.1443 48.1341 55.9933 48.2506 55.8021C48.3671 55.611 48.426 55.3883 48.4195 55.1625ZM46.9397 54.8193C46.9988 54.7553 47.0725 54.7073 47.1539 54.6796C47.2353 54.6519 47.3221 54.6454 47.4065 54.6606C47.491 54.6758 47.5705 54.7122 47.638 54.7667C47.7056 54.8213 47.7591 54.8921 47.7939 54.9731C47.8286 55.054 47.8435 55.1425 47.8373 55.2309C47.831 55.3192 47.8038 55.4046 47.758 55.4794C47.7122 55.5543 47.6493 55.6164 47.5748 55.6602C47.5002 55.7039 47.4164 55.728 47.3307 55.7304C47.2275 55.7329 47.1258 55.7038 47.0384 55.6467C46.9511 55.5896 46.8822 55.507 46.8404 55.4095C46.7985 55.3118 46.7856 55.2036 46.8033 55.0984C46.821 54.9933 46.8684 54.8958 46.9397 54.8185V54.8193Z" fill="black"/>
<path d="M29.6251 39.4463C29.7564 39.5752 29.9164 39.6687 30.091 39.7185C30.2656 39.7683 30.4494 39.7728 30.6261 39.7317C30.8028 39.6906 30.967 39.6051 31.1041 39.4828C31.2411 39.3605 31.3469 39.2051 31.412 39.0305C31.4771 38.8559 31.4995 38.6674 31.4773 38.4817C31.455 38.2959 31.3888 38.1188 31.2844 37.9658C31.18 37.8129 31.0408 37.6889 30.879 37.6048C30.7171 37.5207 30.5378 37.4792 30.3567 37.4838C30.1392 37.4901 29.9284 37.5627 29.7507 37.6926C29.5731 37.8224 29.4366 38.0036 29.3584 38.2133C29.2801 38.4232 29.2638 38.6522 29.3113 38.8715C29.3587 39.0909 29.4679 39.2909 29.6251 39.4463ZM30.744 38.231C30.8062 38.2921 30.8528 38.3681 30.8798 38.4523C30.9067 38.5364 30.9132 38.6261 30.8986 38.7135C30.8839 38.8008 30.8487 38.883 30.796 38.953C30.7432 39.0229 30.6746 39.0783 30.5961 39.1142C30.5177 39.1502 30.4319 39.1656 30.3464 39.1592C30.2608 39.1527 30.1781 39.1245 30.1056 39.0771C30.0331 39.0297 29.973 38.9646 29.9307 38.8875C29.8884 38.8104 29.8651 38.7237 29.8629 38.6351C29.8604 38.5285 29.8885 38.4235 29.9436 38.3335C29.9988 38.2434 30.0785 38.1722 30.1729 38.1289C30.2672 38.0857 30.3717 38.0723 30.4734 38.0905C30.5751 38.1087 30.6693 38.1576 30.744 38.231Z" fill="black"/>
<path d="M51.1518 57.387C51.0206 57.258 50.8605 57.1642 50.6858 57.1143C50.5112 57.0644 50.3272 57.0598 50.1504 57.1008C49.9736 57.1419 49.8093 57.2274 49.6721 57.3498C49.535 57.4721 49.4292 57.6276 49.3641 57.8023C49.2989 57.9771 49.2766 58.1657 49.2989 58.3515C49.3213 58.5373 49.3877 58.7145 49.4922 58.8675C49.5968 59.0204 49.7362 59.1444 49.8983 59.2284C50.0602 59.3123 50.2397 59.3537 50.4209 59.3487C50.6385 59.3429 50.8496 59.2705 51.0274 59.1408C51.2053 59.011 51.3419 58.8298 51.4201 58.6199C51.4983 58.41 51.5146 58.1809 51.4668 57.9614C51.4191 57.742 51.3094 57.5422 51.1518 57.387ZM50.7743 58.5828C50.7152 58.647 50.6417 58.6951 50.5602 58.723C50.4789 58.7508 50.392 58.7575 50.3075 58.7425C50.223 58.7274 50.1434 58.691 50.0758 58.6365C50.008 58.5821 49.9544 58.5113 49.9196 58.4304C49.8847 58.3494 49.8697 58.2608 49.8759 58.1724C49.8821 58.0841 49.9093 57.9986 49.955 57.9237C50.0009 57.8487 50.0638 57.7866 50.1383 57.7428C50.2129 57.699 50.2967 57.6749 50.3824 57.6725C50.4853 57.6707 50.5863 57.7003 50.6729 57.7575C50.7596 57.8147 50.8279 57.8971 50.8694 57.9943C50.9109 58.0915 50.9237 58.1992 50.9063 58.3039C50.8888 58.4085 50.8419 58.5056 50.7713 58.5828H50.7743Z" fill="black"/>
<path d="M30.6661 33.6025C30.8161 33.4394 30.916 33.234 30.9531 33.0122C30.9902 32.7904 30.9628 32.5622 30.8744 32.3566C30.7859 32.1509 30.6405 31.9769 30.4563 31.8566C30.2722 31.7363 30.0577 31.6752 29.8399 31.6808C29.6221 31.6865 29.4109 31.7588 29.2328 31.8885C29.0548 32.0182 28.918 32.1995 28.8397 32.4095C28.7614 32.6196 28.7452 32.8489 28.793 33.0685C28.8408 33.288 28.9506 33.4879 29.1085 33.6431C29.2134 33.7461 29.3368 33.8268 29.4718 33.8805C29.6069 33.9342 29.7508 33.9599 29.8954 33.9562C30.0401 33.9524 30.1825 33.9192 30.3147 33.8585C30.447 33.7978 30.5664 33.7109 30.6661 33.6025ZM29.4928 32.4505C29.5639 32.3729 29.6557 32.319 29.7565 32.2953C29.8574 32.2717 29.9627 32.2795 30.0593 32.3178C30.1557 32.3561 30.2391 32.4231 30.2987 32.5103C30.3585 32.5976 30.3917 32.7012 30.3943 32.8079C30.397 32.9147 30.3689 33.0199 30.3136 33.1102C30.2584 33.2004 30.1785 33.2718 30.0839 33.3151C29.9894 33.3584 29.8846 33.3718 29.7827 33.3536C29.6809 33.3353 29.5866 33.2862 29.5117 33.2125C29.4117 33.1139 29.3536 32.9783 29.3501 32.8356C29.3465 32.6927 29.3978 32.5543 29.4928 32.4505Z" fill="black"/>
<path d="M49.9043 53.5494C50.1995 53.5456 50.4812 53.4214 50.6879 53.2037C50.8946 52.9861 51.0096 52.6929 51.0078 52.3879C51.0059 52.083 50.8873 51.7913 50.6781 51.5763C50.4687 51.3614 50.1855 51.2407 49.8904 51.2407C49.5952 51.2407 49.3121 51.3614 49.1028 51.5763C48.8934 51.7913 48.7749 52.083 48.773 52.3879C48.7712 52.6929 48.8861 52.9861 49.0929 53.2037C49.2996 53.4214 49.5813 53.5456 49.8764 53.5494H49.9043ZM49.3539 52.4239C49.3521 52.3355 49.3714 52.2479 49.4101 52.1689C49.4488 52.09 49.5057 52.0221 49.5758 51.9713C49.6459 51.9205 49.7271 51.8883 49.8121 51.8775C49.8971 51.8668 49.9833 51.8778 50.0633 51.9096C50.1431 51.9414 50.2143 51.993 50.2702 52.06C50.3262 52.127 50.3654 52.2071 50.3844 52.2934C50.4032 52.3797 50.4013 52.4695 50.3787 52.5548C50.3561 52.6401 50.3135 52.7184 50.2547 52.7827C50.1835 52.86 50.0916 52.9138 49.9908 52.9372C49.89 52.9606 49.7847 52.9526 49.6883 52.9141C49.5919 52.8758 49.5086 52.8087 49.4491 52.7214C49.3897 52.6342 49.3565 52.5306 49.3539 52.4239Z" fill="black"/>
<path d="M32.1833 36.6671C32.3146 36.7961 32.4747 36.8896 32.6493 36.9394C32.824 36.9891 33.0078 36.9936 33.1845 36.9525C33.3612 36.9113 33.5254 36.8258 33.6625 36.7034C33.7996 36.581 33.9053 36.4256 33.9704 36.2509C34.0354 36.0763 34.0578 35.8877 34.0354 35.702C34.0131 35.5162 33.9467 35.3391 33.8423 35.1861C33.7379 35.0333 33.5985 34.9093 33.4366 34.8253C33.2747 34.7413 33.0953 34.6999 32.9142 34.7047C32.6966 34.7107 32.4856 34.7833 32.3078 34.9131C32.13 35.0429 31.9935 35.2242 31.9153 35.4341C31.8372 35.644 31.8209 35.8731 31.8686 36.0926C31.9163 36.312 32.0258 36.5119 32.1833 36.6671ZM32.9429 35.3029C33.0455 35.3031 33.1457 35.3345 33.2311 35.3932C33.3164 35.452 33.3832 35.5354 33.4229 35.6331C33.4626 35.7307 33.4736 35.8384 33.4545 35.9424C33.4354 36.0466 33.387 36.1425 33.3153 36.2183C33.2437 36.2942 33.152 36.3466 33.0517 36.3688C32.9514 36.3911 32.8471 36.3824 32.7516 36.3437C32.656 36.3051 32.5737 36.2381 32.5148 36.1514C32.4559 36.0646 32.4231 35.9619 32.4204 35.8559C32.4187 35.7839 32.431 35.7123 32.4564 35.6453C32.4819 35.5783 32.5201 35.5172 32.5688 35.4657C32.6175 35.4141 32.6757 35.3732 32.7399 35.3453C32.8042 35.3173 32.8732 35.3029 32.9429 35.3029Z" fill="black"/>
<path d="M52.1528 54.6477C52.028 54.7833 51.9375 54.9486 51.8893 55.129C51.8411 55.3094 51.8367 55.4993 51.8765 55.6818C51.9163 55.8644 51.9991 56.034 52.1175 56.1756C52.2359 56.3172 52.3862 56.4265 52.5553 56.4937C52.7243 56.561 52.9068 56.5841 53.0865 56.5612C53.2663 56.5382 53.4378 56.4698 53.5858 56.3619C53.7338 56.2541 53.8539 56.1103 53.9353 55.9431C54.0166 55.7759 54.0569 55.5906 54.0524 55.4035C54.0469 55.1785 53.9771 54.9601 53.8515 54.7761C53.726 54.5921 53.5504 54.4507 53.347 54.3698C53.1437 54.2889 52.9217 54.2721 52.7091 54.3216C52.4965 54.371 52.3029 54.4845 52.1528 54.6477ZM53.3291 55.8029C53.2696 55.8675 53.1954 55.916 53.1134 55.9437C53.0313 55.9716 52.9438 55.9778 52.8588 55.9621C52.7737 55.9463 52.6938 55.909 52.6262 55.8535C52.5586 55.7979 52.5054 55.7259 52.4714 55.6438C52.4373 55.5618 52.4236 55.4723 52.4313 55.3835C52.439 55.2945 52.468 55.2091 52.5156 55.1346C52.5632 55.0601 52.6279 54.999 52.704 54.9568C52.7801 54.9145 52.8652 54.8924 52.9516 54.8926C53.054 54.8917 53.1544 54.922 53.2403 54.9799C53.326 55.0378 53.3933 55.1206 53.4337 55.2179C53.474 55.3152 53.4857 55.4226 53.467 55.5267C53.4484 55.6308 53.4004 55.7269 53.3291 55.8029Z" fill="black"/>
</svg>
