<svg width="600" height="600" viewBox="0 0 600 600" fill="none" xmlns="http://www.w3.org/2000/svg">
<path fill-rule="evenodd" clip-rule="evenodd" d="M507.773 90.8361H110.719V487.89H507.773V90.8361ZM272.442 240.519C279.554 235.491 287.813 231.977 296.748 230.447L296.748 252.773C296.748 258.386 301.299 262.937 306.912 262.937C312.526 262.937 317.076 258.386 317.076 252.773V163.329C317.076 157.716 312.526 153.165 306.912 153.165C301.299 153.165 296.748 157.716 296.748 163.329L296.748 208.68C281.902 210.532 268.298 216.386 257.051 225.128L224.426 192.504C220.457 188.534 214.022 188.534 210.052 192.504C206.083 196.473 206.083 202.909 210.052 206.878L242.677 239.502C233.935 250.749 228.081 264.353 226.229 279.199H247.996C249.526 270.264 253.04 262.005 258.068 254.894L273.298 270.124C277.268 274.093 283.703 274.093 287.673 270.124C291.642 266.155 291.642 259.719 287.673 255.75L272.442 240.519ZM356.773 225.128C345.527 216.385 331.923 210.531 317.076 208.68V230.446C326.012 231.977 334.27 235.491 341.382 240.519L326.152 255.75C322.182 259.719 322.182 266.155 326.152 270.124C330.121 274.093 336.556 274.093 340.526 270.124L355.756 254.893C360.785 262.005 364.299 270.264 365.829 279.199H387.596C385.744 264.353 379.89 250.749 371.148 239.502L403.772 206.878C407.741 202.909 407.741 196.473 403.772 192.504C399.802 188.535 393.367 188.535 389.398 192.504L356.773 225.128ZM226.23 299.527C228.107 314.585 234.102 328.364 243.052 339.702L211.315 371.439C207.345 375.408 207.345 381.844 211.315 385.813C215.284 389.783 221.719 389.783 225.689 385.813L257.532 353.969C268.685 362.507 282.113 368.221 296.748 370.046L296.748 415.397C296.748 421.01 301.299 425.561 306.912 425.561C312.526 425.561 317.076 421.01 317.076 415.397V325.954C317.076 320.34 312.526 315.79 306.912 315.79C301.299 315.79 296.748 320.34 296.748 325.954L296.748 348.28C288.022 346.785 279.941 343.399 272.944 338.558L288.935 322.567C292.904 318.598 292.904 312.162 288.935 308.193C284.965 304.224 278.53 304.224 274.561 308.193L258.424 324.33C253.206 317.107 249.562 308.672 247.996 299.527L274.989 299.527C280.602 299.527 285.153 294.977 285.153 289.363C285.153 283.75 280.602 279.199 274.989 279.199H185.546C179.932 279.199 175.382 283.75 175.382 289.363C175.382 294.977 179.932 299.527 185.546 299.527L226.23 299.527ZM355.756 323.833C360.785 316.722 364.299 308.463 365.829 299.527L343.503 299.527C337.89 299.527 333.339 294.977 333.339 289.363C333.339 283.75 337.89 279.199 343.503 279.199H432.947C438.56 279.199 443.111 283.75 443.111 289.363C443.111 294.977 438.56 299.527 432.947 299.527L387.596 299.527C385.744 314.374 379.89 327.978 371.147 339.225L401.883 369.96C405.852 373.93 405.852 380.365 401.883 384.334C397.914 388.304 391.478 388.304 387.509 384.334L356.773 353.599C345.527 362.341 331.923 368.195 317.076 370.046V348.28C326.012 346.749 334.27 343.235 341.382 338.207L324.263 321.088C320.294 317.119 320.294 310.684 324.263 306.714C328.232 302.745 334.668 302.745 338.637 306.714L355.756 323.833Z" fill="#FF6E6E"/>
<rect x="98.5" y="98.5" width="402.054" height="402.054" stroke="#1E1E1E" stroke-width="5"/>
<path d="M297.193 160.829C304.188 160.829 309.857 166.499 309.857 173.493V216.668C323.549 218.744 336.152 224.131 346.824 231.986L377.911 200.9C382.857 195.954 390.876 195.954 395.821 200.9C400.767 205.845 400.767 213.864 395.821 218.81L364.734 249.896C372.59 260.568 377.977 273.171 380.053 286.864H423.229C430.222 286.864 435.893 292.534 435.893 299.528C435.892 306.521 430.222 312.191 423.229 312.192H380.053C377.977 325.883 372.588 338.486 364.733 349.157L393.933 378.357C398.878 383.302 398.878 391.32 393.933 396.266C388.987 401.211 380.968 401.211 376.022 396.266L346.824 367.068C336.152 374.922 323.549 380.309 309.857 382.385V425.561C309.857 432.555 304.188 438.225 297.193 438.225C290.199 438.225 284.529 432.555 284.529 425.561V382.385C271.048 380.341 258.622 375.087 248.056 367.427L217.738 397.744C212.793 402.69 204.774 402.69 199.828 397.744C194.883 392.799 194.883 384.781 199.828 379.835L230.016 349.647C221.964 338.872 216.444 326.093 214.336 312.192H175.827C168.833 312.192 163.163 306.522 163.163 299.528C163.163 292.533 168.833 286.864 175.827 286.864H214.336C216.412 273.172 221.799 260.569 229.653 249.897L198.566 218.81C193.621 213.864 193.621 205.845 198.566 200.9C203.512 195.954 211.53 195.954 216.476 200.9L247.562 231.987C258.234 224.132 270.838 218.745 284.529 216.669V173.493C284.529 166.499 290.199 160.83 297.193 160.829ZM309.857 262.937C309.857 269.931 304.187 275.601 297.193 275.601C290.199 275.601 284.529 269.931 284.529 262.937V243.655C278.09 245.108 272.061 247.646 266.645 251.069L279.722 264.146C284.667 269.091 284.667 277.11 279.722 282.056C274.776 287.001 266.758 287.001 261.812 282.056L248.734 268.978C245.312 274.395 242.775 280.424 241.322 286.864H265.271C272.265 286.864 277.935 292.533 277.935 299.528C277.934 306.522 272.265 312.192 265.271 312.192H241.323C242.823 318.837 245.477 325.046 249.067 330.595L263.074 316.589C268.02 311.644 276.039 311.644 280.984 316.589C285.93 321.535 285.93 329.554 280.984 334.499L267.169 348.314C272.449 351.571 278.297 353.992 284.529 355.399V336.117C284.529 329.123 290.199 323.454 297.193 323.453C304.187 323.453 309.857 329.123 309.857 336.117V355.399C316.297 353.946 322.325 351.408 327.742 347.986L312.776 333.02C307.831 328.074 307.831 320.056 312.776 315.111C317.722 310.165 325.741 310.165 330.687 315.111L345.652 330.076C349.075 324.66 351.612 318.631 353.065 312.192H333.785C326.791 312.192 321.121 306.522 321.121 299.528C321.121 292.533 326.791 286.864 333.785 286.864H353.066C351.613 280.424 349.075 274.395 345.652 268.978L332.575 282.056C327.63 287.001 319.611 287.001 314.665 282.056C309.719 277.11 309.72 269.091 314.665 264.146L327.742 251.068C322.325 247.646 316.297 245.108 309.857 243.655V262.937Z" stroke="#1E1E1E" stroke-width="5"/>
</svg>
