<svg width="600" height="600" viewBox="0 0 600 600" fill="none" xmlns="http://www.w3.org/2000/svg">
<rect x="80.5" y="262.5" width="438" height="169" stroke="#1E1E1E" stroke-width="5"/>
<rect x="228.5" y="263.5" width="142" height="168" stroke="#1E1E1E" stroke-width="5"/>
<path d="M518.659 172.5V262.813H80.5V172.5H518.659ZM299.58 183.156C292.757 183.156 286.086 185.18 280.412 188.971C274.739 192.762 270.317 198.15 267.706 204.454C265.095 210.758 264.411 217.695 265.742 224.387C267.073 231.079 270.36 237.227 275.185 242.052C280.009 246.877 286.156 250.163 292.849 251.494C299.541 252.825 306.478 252.142 312.782 249.53C319.086 246.919 324.475 242.498 328.266 236.824C332.057 231.151 334.08 224.48 334.08 217.656C334.08 208.506 330.445 199.732 323.975 193.262C317.505 186.792 308.73 183.156 299.58 183.156ZM307.831 238.172L307.833 238.174C307.834 238.175 307.834 238.176 307.834 238.177C307.834 238.178 307.834 238.179 307.833 238.18C307.832 238.18 307.83 238.181 307.829 238.181L307.826 238.18L304.697 234.469L307.831 238.172ZM301.258 217.842C300.863 217.897 300.464 217.931 300.063 217.937H290.761L290.751 217.925L290.742 217.915L290.791 217.917H300.298L300.335 217.915C300.645 217.906 300.953 217.88 301.258 217.842ZM301.54 217.8C301.48 217.81 301.419 217.819 301.358 217.828C301.419 217.82 301.48 217.809 301.54 217.8ZM306.195 200.313C305.714 199.91 305.191 199.554 304.635 199.254C303.312 198.54 301.836 198.157 300.333 198.137H304.258L306.195 200.313Z" stroke="#1E1E1E" stroke-width="5"/>
<line x1="302.5" y1="264" x2="302.5" y2="431" stroke="#1E1E1E" stroke-width="5"/>
</svg>
