<svg width="153" height="157" viewBox="0 0 153 157" fill="none" xmlns="http://www.w3.org/2000/svg">
<path d="M38.5991 63.1592L41.1352 69.0935V69.7978C41.1352 70.4437 41.6452 70.9678 42.2752 70.9678H42.9577V71.9748C42.9577 72.4397 43.3248 72.8172 43.7785 72.8172C42.618 91.5222 41.1512 107.699 41.1428 128.713H52.6067C52.5983 107.699 51.1323 91.5222 49.971 72.8172C50.424 72.8172 50.7842 72.4405 50.7842 71.9748V70.9678H51.4667C52.0967 70.9678 52.6067 70.4437 52.6067 69.7978V69.0935L55.1428 63.1592H38.5991Z" fill="white"/>
<path d="M55.1423 62.8868H38.5987C38.4064 62.8868 38.2779 63.0889 38.3555 63.2683L40.8695 69.1487V69.7976C40.8695 70.594 41.4996 71.2406 42.2755 71.2406H42.6928V71.9738C42.6928 72.4886 43.0348 72.9239 43.4984 73.051C42.3143 92.03 40.8863 107.817 40.8787 128.713C40.8787 128.863 40.9972 128.986 41.1447 128.986H52.6077C52.7544 128.986 52.8737 128.864 52.8737 128.713C52.8661 107.78 51.4237 91.842 50.254 73.0487C50.7131 72.9184 51.052 72.4863 51.052 71.9738V71.2406H51.4693C52.2452 71.2406 52.8753 70.594 52.8753 69.7976V69.2158C52.8943 69.1768 55.3886 63.269 55.3886 63.269C55.4653 63.0896 55.3377 62.8868 55.1454 62.8868H55.1423ZM51.239 63.4321C50.5185 64.4546 49.4636 66.6995 48.7819 68.222C48.1861 65.3805 47.743 64.0529 47.4291 63.4321H51.239ZM48.3616 68.8203H45.409C45.8817 66.5201 46.5331 64.0311 46.8849 63.4976C47.2376 64.0303 47.8889 66.5201 48.3616 68.8203ZM46.3415 63.4313C46.0277 64.0522 45.5838 65.3805 44.9887 68.2213C44.307 66.6987 43.2521 64.4539 42.5317 63.4313H46.3415ZM44.6695 68.8203H41.4114C41.5011 66.5536 41.72 64.0592 41.9259 63.4945C42.3941 64.0007 43.6139 66.4421 44.6695 68.8203ZM40.9182 67.9061L39.006 63.4313H41.4304C41.1979 64.1692 41.0261 65.666 40.9182 67.9061ZM44.0281 73.0892H45.105C44.0897 89.073 43.7233 112.07 43.7195 128.44H41.4099C41.4304 107.532 42.8873 91.445 44.0281 73.0892ZM46.6091 73.0892V128.44H44.2508C44.2546 112.067 44.6217 89.0605 45.6385 73.0892H46.6091ZM48.1116 73.0892C49.1285 89.0605 49.4955 112.067 49.4993 128.44H47.1403V73.0892H48.1116ZM52.3402 128.44H50.0306C50.0268 112.07 49.6605 89.073 48.6451 73.0892H49.722C50.8749 91.6158 52.3197 107.601 52.3402 128.44ZM50.5193 71.9738C50.5193 72.2874 50.27 72.5432 49.9645 72.5432H43.7788C43.4733 72.5432 43.2248 72.2874 43.2248 71.9738V71.2406H50.52L50.5193 71.9738ZM52.3417 69.7976C52.3417 70.2922 51.9488 70.6946 51.4677 70.6946H42.2755C41.7937 70.6946 41.4015 70.2914 41.4015 69.7976V69.3655H52.3425L52.3417 69.7976ZM49.1011 68.8203C50.1461 66.4655 51.3522 64.0475 51.831 63.5093C52.0575 64.152 52.2711 66.5965 52.3592 68.8203H49.1011ZM52.8502 67.8469C52.7415 65.6395 52.5713 64.1629 52.341 63.4321H54.7365L52.8502 67.8469Z" fill="black"/>
<path d="M60.4155 63.1592L62.9516 69.0935V69.7978C62.9516 70.4437 63.4616 70.9678 64.0916 70.9678H64.7741V71.9748C64.7741 72.4397 65.1412 72.8172 65.5949 72.8172C64.4344 91.5222 62.9676 107.699 62.9592 128.713H74.4231C74.4147 107.699 72.9487 91.5222 71.7874 72.8172C72.2404 72.8172 72.6006 72.4405 72.6006 71.9748V70.9678H73.2831C73.9131 70.9678 74.4231 70.4437 74.4231 69.7978V69.0935L76.9592 63.1592H60.4155Z" fill="white"/>
<path d="M76.9592 62.8868H60.4156C60.2233 62.8868 60.0948 63.0889 60.1724 63.2683L62.6864 69.1487V69.7976C62.6864 70.594 63.3165 71.2406 64.0924 71.2406H64.5097V71.9738C64.5097 72.4886 64.8517 72.9239 65.3153 73.051C64.1312 92.03 62.7032 107.817 62.6956 128.713C62.6956 128.863 62.8141 128.986 62.9615 128.986H74.4246C74.5713 128.986 74.6906 128.864 74.6906 128.713C74.683 107.78 73.2405 91.842 72.0709 73.0487C72.5299 72.9184 72.8689 72.4863 72.8689 71.9738V71.2406H73.2861C74.0621 71.2406 74.6921 70.594 74.6921 69.7976V69.2158C74.7111 69.1768 77.2055 63.269 77.2055 63.269C77.2822 63.0896 77.1545 62.8868 76.9623 62.8868H76.9592ZM73.0559 63.4321C72.3354 64.4546 71.2805 66.6995 70.5988 68.222C70.0029 65.3805 69.5599 64.0529 69.246 63.4321H73.0559ZM70.1785 68.8203H67.2259C67.6986 66.5201 68.35 64.0311 68.7018 63.4976C69.0545 64.0303 69.7058 66.5201 70.1785 68.8203ZM68.1584 63.4313C67.8445 64.0522 67.4007 65.3805 66.8056 68.2213C66.1239 66.6987 65.069 64.4539 64.3485 63.4313H68.1584ZM66.4864 68.8203H63.2283C63.318 66.5536 63.5369 64.0592 63.7428 63.4945C64.211 64.0007 65.4308 66.4421 66.4864 68.8203ZM62.7351 67.9061L60.8229 63.4313H63.2473C63.0147 64.1692 62.843 65.666 62.7351 67.9061ZM65.845 73.0892H66.9219C65.9065 89.073 65.5402 112.07 65.5364 128.44H63.2268C63.2473 107.532 64.7042 91.445 65.845 73.0892ZM68.4259 73.0892V128.44H66.0677C66.0715 112.067 66.4386 89.0605 67.4554 73.0892H68.4259ZM69.9285 73.0892C70.9453 89.0605 71.3124 112.067 71.3162 128.44H68.9572V73.0892H69.9285ZM74.1571 128.44H71.8475C71.8437 112.07 71.4773 89.073 70.462 73.0892H71.5389C72.6918 91.6158 74.1366 107.601 74.1571 128.44ZM72.3361 71.9738C72.3361 72.2874 72.0869 72.5432 71.7813 72.5432H65.5957C65.2902 72.5432 65.0417 72.2874 65.0417 71.9738V71.2406H72.3369L72.3361 71.9738ZM74.1586 69.7976C74.1586 70.2922 73.7657 70.6946 73.2846 70.6946H64.0924C63.6106 70.6946 63.2184 70.2914 63.2184 69.7976V69.3655H74.1594L74.1586 69.7976ZM70.918 68.8203C71.963 66.4655 73.1691 64.0475 73.6479 63.5093C73.8744 64.152 74.0879 66.5965 74.1761 68.8203H70.918ZM74.6671 67.8469C74.5584 65.6395 74.3881 64.1629 74.1579 63.4321H76.5534L74.6671 67.8469Z" fill="black"/>
<path d="M82.2314 63.1592L84.7676 69.0935V69.7978C84.7676 70.4437 85.2775 70.9678 85.9076 70.9678H86.59V71.9748C86.59 72.4397 86.9571 72.8172 87.4108 72.8172C86.2503 91.5222 84.7835 107.699 84.7752 128.713H96.239C96.2306 107.699 94.7646 91.5222 93.6033 72.8172C94.0563 72.8172 94.4165 72.4405 94.4165 71.9748V70.9678H95.099C95.729 70.9678 96.239 70.4437 96.239 69.7978V69.0935L98.7751 63.1592H82.2314Z" fill="white"/>
<path d="M98.7752 62.8868H82.2315C82.0392 62.8868 81.9107 63.0889 81.9883 63.2683L84.5023 69.1487V69.7976C84.5023 70.594 85.1324 71.2406 85.9084 71.2406H86.3256V71.9738C86.3256 72.4886 86.6676 72.9239 87.1312 73.051C85.9471 92.03 84.5191 107.817 84.5115 128.713C84.5115 128.863 84.63 128.986 84.7775 128.986H96.2406C96.3872 128.986 96.5066 128.864 96.5066 128.713C96.499 107.78 95.0565 91.842 93.8868 73.0487C94.3459 72.9184 94.6848 72.4863 94.6848 71.9738V71.2406H95.1021C95.878 71.2406 96.5081 70.594 96.5081 69.7976V69.2158C96.5271 69.1768 99.0214 63.269 99.0214 63.269C99.0981 63.0896 98.9705 62.8868 98.7782 62.8868H98.7752ZM94.8718 63.4321C94.1513 64.4546 93.0964 66.6995 92.4147 68.222C91.8189 65.3805 91.3758 64.0529 91.0619 63.4321H94.8718ZM91.9944 68.8203H89.0418C89.5146 66.5201 90.1659 64.0311 90.5177 63.4976C90.8704 64.0303 91.5217 66.5201 91.9944 68.8203ZM89.9744 63.4313C89.6605 64.0522 89.2166 65.3805 88.6216 68.2213C87.9398 66.6987 86.885 64.4539 86.1645 63.4313H89.9744ZM88.3023 68.8203H85.0442C85.1339 66.5536 85.3528 64.0592 85.5588 63.4945C86.0269 64.0007 87.2467 66.4421 88.3023 68.8203ZM84.551 67.9061L82.6388 63.4313H85.0632C84.8307 64.1692 84.6589 65.666 84.551 67.9061ZM87.6609 73.0892H88.7378C87.7225 89.073 87.3561 112.07 87.3523 128.44H85.0427C85.0632 107.532 86.5202 91.445 87.6609 73.0892ZM90.2419 73.0892V128.44H87.8836C87.8874 112.067 88.2545 89.0605 89.2713 73.0892H90.2419ZM91.7444 73.0892C92.7613 89.0605 93.1283 112.067 93.1321 128.44H90.7731V73.0892H91.7444ZM95.973 128.44H93.6634C93.6596 112.07 93.2933 89.073 92.2779 73.0892H93.3548C94.5077 91.6158 95.9525 107.601 95.973 128.44ZM94.1521 71.9738C94.1521 72.2874 93.9028 72.5432 93.5973 72.5432H87.4116C87.1061 72.5432 86.8576 72.2874 86.8576 71.9738V71.2406H94.1528L94.1521 71.9738ZM95.9745 69.7976C95.9745 70.2922 95.5816 70.6946 95.1006 70.6946H85.9084C85.4265 70.6946 85.0344 70.2914 85.0344 69.7976V69.3655H95.9753L95.9745 69.7976ZM92.7339 68.8203C93.7789 66.4655 94.985 64.0475 95.4638 63.5093C95.6903 64.152 95.9039 66.5965 95.992 68.8203H92.7339ZM96.483 67.8469C96.3743 65.6395 96.2041 64.1629 95.9738 63.4321H98.3693L96.483 67.8469Z" fill="black"/>
<path d="M120.591 63.1592L118.054 69.0934V69.7978C118.054 70.4436 117.544 70.9678 116.914 70.9678H116.232V71.9747C116.232 72.4396 115.865 72.8171 115.411 72.8171C116.572 91.5222 118.038 107.699 118.047 128.713H106.583C106.591 107.699 108.057 91.5222 109.219 72.8171C108.766 72.8171 108.405 72.4404 108.405 71.9747V70.9678H107.723C107.093 70.9678 106.583 70.4436 106.583 69.7978V69.0934L104.047 63.1592H120.591Z" fill="white"/>
<path d="M103.804 63.2691C103.804 63.2691 106.297 69.1768 106.317 69.2158V69.7977C106.317 70.5941 106.947 71.2407 107.723 71.2407H108.14V71.9739C108.14 72.4863 108.478 72.9185 108.938 73.0487C107.769 91.842 106.326 107.78 106.318 128.713C106.318 128.863 106.437 128.986 106.585 128.986H118.048C118.194 128.986 118.314 128.864 118.314 128.713C118.306 107.817 116.877 92.03 115.694 73.0511C116.157 72.9239 116.499 72.4887 116.499 71.9739V71.2407H116.917C117.693 71.2407 118.323 70.5941 118.323 69.7977V69.1487L120.837 63.2683C120.914 63.0889 120.786 62.8861 120.594 62.8861H104.05C103.857 62.8861 103.729 63.0905 103.807 63.2691H103.804ZM111.76 63.4321C111.446 64.053 111.003 65.3813 110.407 68.2221C109.726 66.6995 108.671 64.4547 107.95 63.4321H111.76ZM112.304 63.4976C112.656 64.0312 113.307 66.5201 113.78 68.8203H110.828C111.3 66.5201 111.952 64.0304 112.304 63.4976ZM116.658 63.4313C115.938 64.4539 114.883 66.6995 114.201 68.2213C113.605 65.3798 113.162 64.0522 112.848 63.4313H116.659H116.658ZM117.263 63.4945C117.469 64.0592 117.688 66.5537 117.778 68.8203H114.52C115.575 66.4421 116.795 64.0007 117.263 63.4945ZM117.759 63.4313H120.183L118.271 67.9062C118.162 65.6653 117.991 64.1692 117.759 63.4313ZM117.78 128.44H115.47C115.467 112.07 115.1 89.073 114.085 73.0893H115.162C116.303 91.445 117.76 107.532 117.78 128.44ZM113.551 73.0893C114.568 89.0605 114.935 112.067 114.939 128.44H112.581V73.0893H113.551ZM112.05 73.0893V128.44H109.691C109.694 112.067 110.061 89.0605 111.078 73.0893H112.05ZM109.469 73.0893H110.546C109.53 89.073 109.164 112.07 109.16 128.44H106.85C106.871 107.601 108.316 91.6158 109.469 73.0893ZM108.671 71.2407H115.967V71.9739C115.967 72.2874 115.718 72.5433 115.413 72.5433H109.227C108.921 72.5433 108.672 72.2874 108.672 71.9739L108.671 71.2407ZM106.849 69.3664H117.79V69.7985C117.79 70.293 117.397 70.6955 116.916 70.6955H107.724C107.242 70.6955 106.85 70.2922 106.85 69.7985V69.3664H106.849ZM106.831 68.8211C106.92 66.5973 107.133 64.1536 107.36 63.5101C107.838 64.0483 109.045 66.4655 110.09 68.8211H106.831ZM104.455 63.4329H106.85C106.62 64.1638 106.45 65.6411 106.341 67.8477L104.455 63.4329Z" fill="black"/>
<path fill-rule="evenodd" clip-rule="evenodd" d="M135.016 138.128V133.425H131.678V128.721H27.5136V133.425H24.1742V138.128H21.6685V142.831H137.522V138.128H135.016Z" fill="#FFD997"/>
<path d="M137.522 137.855H135.282V133.424C135.282 133.273 135.164 133.151 135.016 133.151H131.943V128.72C131.943 128.57 131.824 128.447 131.677 128.447H27.5135C27.3668 128.447 27.2475 128.569 27.2475 128.72V133.151H24.1741C24.0274 133.151 23.9081 133.272 23.9081 133.424V137.855H21.6683C21.5217 137.855 21.4023 137.977 21.4023 138.128V142.831C21.4023 142.982 21.5209 143.104 21.6683 143.104H137.521C137.668 143.104 137.787 142.983 137.787 142.831V138.128C137.787 137.977 137.669 137.855 137.521 137.855H137.522ZM27.7795 128.994H131.412V133.152H27.7795V128.994ZM24.4401 133.697H134.751V137.855H24.4401V133.697ZM137.256 142.558H21.9343V138.4H137.256V142.558Z" fill="black"/>
<path d="M130.239 60.8245H28.9521V63.1583H130.239V60.8245Z" fill="white"/>
<path d="M135.372 58.4641H23.6211V60.8158H135.372V58.4641Z" fill="#FFD997"/>
<path d="M130.238 63.432H28.9515C28.8049 63.432 28.6855 63.3103 28.6855 63.159V60.8244C28.6855 60.6739 28.8041 60.5514 28.9515 60.5514H130.238C130.384 60.5514 130.504 60.6731 130.504 60.8244V63.159C130.504 63.3095 130.385 63.432 130.238 63.432H130.238ZM29.2175 62.8867H129.972V61.0974H29.2175V62.8867Z" fill="black"/>
<path fill-rule="evenodd" clip-rule="evenodd" d="M23.6212 58.4643L21.7554 55.8918L79.5952 27.9889L137.522 56.0463L135.372 58.4643L79.5952 30.7251L23.6212 58.4643Z" fill="#FFD997"/>
<path fill-rule="evenodd" clip-rule="evenodd" d="M79.5951 30.725L135.372 58.4641H23.6211L79.5951 30.725Z" fill="white"/>
<path d="M137.635 55.7997C79.457 27.7977 79.6614 27.6542 79.4813 27.7424L21.6423 55.6453C21.4918 55.7163 21.4394 55.9159 21.542 56.0548L23.3553 58.5539V60.8159C23.3553 60.9664 23.4739 61.0889 23.6213 61.0889H135.372C135.519 61.0889 135.638 60.9672 135.638 60.8159V58.5703L137.719 56.2303C137.84 56.0922 137.795 55.8762 137.636 55.7989L137.635 55.7997ZM79.5946 31.0277L134.213 58.1912H24.7834L79.5946 31.0277ZM79.3286 28.4194V30.5535L23.7027 58.1202L22.1629 55.9978L79.3286 28.4194ZM135.106 60.5437H23.8866V58.7372H135.106V60.5437ZM135.309 58.1296L79.8606 30.5535V28.4202L137.082 56.1359L135.309 58.1296Z" fill="black"/>
<path d="M101.969 56.2154H34.1196C33.8361 56.2154 33.7502 55.8199 34.0071 55.6951L40.6609 52.4948C40.974 52.3396 41.2096 52.8341 40.8866 52.9901L35.3143 55.6702H101.969C102.32 55.6702 102.32 56.2154 101.969 56.2154Z" fill="black"/>
<path d="M109.55 48.5349L79.6012 33.938L58.958 43.8666C58.6366 44.0179 58.4146 43.5242 58.7323 43.3713C79.668 33.2953 79.535 33.3031 79.7159 33.3897L109.664 48.0154C109.92 48.1402 109.833 48.5349 109.55 48.5349Z" fill="black"/>
<path d="M124.712 55.7966H105.003C104.651 55.7966 104.651 55.2513 105.003 55.2513H123.489L112.741 50.2102C112.423 50.0612 112.64 49.5628 112.963 49.7133L124.822 55.2755C125.08 55.3972 124.996 55.7966 124.711 55.7966H124.712Z" fill="black"/>
<path d="M79.4967 52.8037C75.7697 52.8037 72.7373 49.6923 72.7373 45.8664C72.7373 42.0405 75.7689 38.9291 79.4967 38.9291C83.2245 38.9291 86.2562 42.0405 86.2562 45.8664C86.2562 49.6923 83.2245 52.8037 79.4967 52.8037ZM79.4967 39.4751C76.0623 39.4751 73.2693 42.3424 73.2693 45.8664C73.2693 49.3905 76.0631 52.2577 79.4967 52.2577C82.9304 52.2577 85.7242 49.3905 85.7242 45.8664C85.7242 42.3424 82.9304 39.4751 79.4967 39.4751Z" fill="black"/>
<path fill-rule="evenodd" clip-rule="evenodd" d="M25.2087 79.0281L24.0588 79.4329C20.2299 80.7816 18.466 85.8952 20.1212 90.8459C21.7036 95.5774 25.629 98.9322 31.313 96.9307C34.6897 95.7412 36.9264 90.8849 35.1449 85.5552C33.4896 80.6045 29.0368 77.6796 25.2087 79.0281Z" fill="#FFD997"/>
<path d="M29.1585 95.7607C26.5912 95.7607 23.571 93.7319 22.2912 89.9005C20.8753 85.6659 22.4112 81.2753 25.715 80.11C29.309 78.8433 32.9821 81.8135 34.2748 85.6807C35.9658 90.7382 33.4343 95.7607 29.1585 95.7607ZM25.8867 80.6271C20.9847 82.3525 21.1671 90.9839 26.1216 94.2397C31.076 97.493 35.8868 92.1844 33.771 85.8578C32.3612 81.6419 28.7116 79.6326 25.8867 80.6271Z" fill="black"/>
<path d="M35.3961 85.467C33.696 80.3791 29.0881 77.373 25.1224 78.7699C22.6935 79.6256 20.89 80.4875 19.7827 83.6972C19.0181 85.9124 19.0493 88.4825 19.8693 90.934C21.4364 95.6226 25.4135 99.298 31.2921 97.2263C35.5679 95.7185 36.9686 90.1673 35.3961 85.467ZM34.9827 92.5221C32.5887 99.4594 24.0919 98.0359 21.5223 90.3529C19.541 84.4273 22.5521 78.9735 27.138 78.9735C32.7346 78.9735 37.0408 86.5559 34.9827 92.5221Z" fill="black"/>
<path fill-rule="evenodd" clip-rule="evenodd" d="M29.8715 91.6813C29.0834 92.0026 28.1638 91.4886 27.8583 90.5573C27.7869 90.3389 27.5558 90.2211 27.343 90.2944C27.1302 90.3678 27.0155 90.6049 27.0869 90.8233C27.4965 92.0721 28.613 92.785 29.6922 92.6017L30.0403 93.7116C30.1117 93.93 30.3427 94.0478 30.5555 93.9745C30.7683 93.9012 30.8831 93.664 30.8117 93.4456L30.4545 92.3076C31.3961 91.7101 31.8475 90.3857 31.4402 89.1439C30.9796 87.7392 29.6162 87.0169 28.4253 87.4794C27.6432 87.7828 26.7753 87.2509 26.4736 86.3289C26.1658 85.3898 26.523 84.3664 27.3119 84.0396C28.1007 83.7128 28.9778 84.2463 29.2841 85.1823C29.3555 85.4007 29.5865 85.5185 29.7993 85.4452C30.0121 85.3719 30.1269 85.1347 30.0555 84.9163C29.6458 83.6676 28.5294 82.9546 27.4502 83.1379L27.1089 82.1419C27.0375 81.9235 26.8065 81.8057 26.5937 81.879C26.3809 81.9523 26.2661 82.1895 26.3375 82.4079L26.6879 83.4312C25.7463 84.0287 25.2956 85.3531 25.7022 86.5949C26.1567 87.9825 27.4851 88.7087 28.6654 88.2797C29.4627 87.9256 30.3595 88.4638 30.6695 89.4099C30.9652 90.3116 30.5973 91.317 29.8723 91.6805L29.8715 91.6813Z" fill="black"/>
<path fill-rule="evenodd" clip-rule="evenodd" d="M37.1162 13.9433L36.1 14.3013C32.7173 15.4923 31.1578 20.0109 32.6208 24.3851C34.0838 28.7594 38.0168 31.3435 41.3995 30.1524L42.8139 29.6353C45.9192 28.2407 47.2994 23.9093 45.8949 19.7106C44.4327 15.3363 40.4989 12.7522 37.1162 13.9433Z" fill="#FFD997"/>
<path d="M40.5903 28.6774C38.1652 28.6774 35.7134 26.6923 34.7049 23.6745C33.4942 20.0553 34.8113 16.2996 37.6385 15.3043C40.4642 14.309 43.7512 16.4431 44.9611 20.0631C46.4104 24.3999 44.2224 28.6774 40.5903 28.6774ZM37.811 15.8206C35.2604 16.7184 34.0931 20.1629 35.208 23.4982C36.3229 26.8319 39.3029 28.8162 41.855 27.9169C44.4048 27.0183 45.5729 23.5746 44.458 20.2393C43.3438 16.9056 40.3646 14.9213 37.811 15.8206Z" fill="black"/>
<path d="M46.1464 19.6217C44.6378 15.1094 40.5436 12.4464 37.0294 13.6851C34.8885 14.4393 33.2758 15.2061 32.2923 18.0585C30.2365 24.0138 34.9599 32.9534 42.6526 29.9972C45.7679 28.7999 47.7644 24.4592 46.1464 19.6217ZM45.7223 25.8554C45.1112 27.6276 43.956 28.9115 42.4619 29.4871C37.2118 31.5089 31.6775 24.0521 33.8078 17.8815C34.437 16.0571 35.6424 14.7498 37.2012 14.2007C42.4262 12.3606 47.832 19.7457 45.7223 25.8554Z" fill="black"/>
<path fill-rule="evenodd" clip-rule="evenodd" d="M42.6155 22.8843C42.2196 21.6777 41.0484 21.056 40.0254 21.4546C39.3536 21.7143 38.608 21.2588 38.3481 20.4655C38.0844 19.6621 38.3907 18.7815 39.064 18.5007C39.7435 18.2168 40.4997 18.677 40.7626 19.4812C40.8242 19.6692 41.0225 19.7698 41.2057 19.7066C41.3889 19.6434 41.4877 19.4398 41.4261 19.2519C41.075 18.1794 40.1151 17.5671 39.1879 17.7238L38.8596 16.8487C38.798 16.6607 38.5997 16.5601 38.4165 16.6233C38.2341 16.6864 38.1353 16.89 38.1969 17.078L38.5328 17.9766C37.7234 18.4898 37.3366 19.6278 37.6862 20.6949C38.0844 21.9093 39.2518 22.538 40.2793 22.1238C40.9549 21.8516 41.6921 22.3157 41.9536 23.1136C42.2112 23.8999 41.9232 24.7587 41.2817 25.059C40.5909 25.3827 39.8081 24.9193 39.539 24.0988C39.4775 23.9108 39.2791 23.8102 39.096 23.8734C38.9128 23.9365 38.8148 24.1401 38.8756 24.3281C39.2274 25.4006 40.1866 26.0129 41.1138 25.8561L41.4649 26.7882C41.6123 27.2383 42.2743 27.0097 42.1276 26.5597L41.7689 25.6042C42.5783 25.0909 42.9659 23.9529 42.6155 22.8859V22.8843Z" fill="black"/>
<path fill-rule="evenodd" clip-rule="evenodd" d="M27.6645 42.9672L26.3147 42.2488C21.8201 39.8565 15.7865 42.6325 12.8498 48.4451C9.91318 54.2569 11.1778 60.9181 15.6725 63.3103L17.5702 64.2916C21.9957 66.1932 27.6683 63.4117 30.4871 57.8324C33.4238 52.0206 32.1591 45.3594 27.6645 42.9672Z" fill="#FFD997"/>
<path d="M21.0799 63.1808C15.3168 63.1808 12.4851 56.2052 15.6679 49.9059C19.623 42.0786 29.1131 41.9679 30.6263 49.941C31.8134 56.1849 26.8833 63.1808 21.0799 63.1808ZM16.1399 50.1579C13.8059 54.777 14.7924 60.0709 18.3378 61.9585C24.0675 65.0021 31.5094 57.4517 30.1041 50.0463C28.6989 42.6512 19.8958 42.7245 16.1399 50.1579Z" fill="black"/>
<path d="M32.1259 49.0643C31.5764 46.1737 30.0359 43.9219 27.7871 42.7254L26.4373 42.0069C21.4434 39.3487 15.374 42.8579 12.6144 48.3194C9.6132 54.2591 10.9295 61.0928 15.5503 63.5521L17.176 64.4171C17.8888 64.7962 19.2014 65.1659 20.5222 65.1659C27.4337 65.1659 33.5935 56.7934 32.1259 49.0643ZM30.251 57.7067C28.8572 60.4648 26.7193 62.6146 24.2303 63.7604C19.1254 66.1097 14.1534 63.4623 13.0834 57.8268C11.7055 50.5721 17.4465 42.3774 24.1642 42.3774C30.6812 42.3774 33.9765 50.3334 30.251 57.7067Z" fill="black"/>
<path fill-rule="evenodd" clip-rule="evenodd" d="M20.5479 57.9516C19.5454 57.5156 19.246 56.2177 19.8137 55.1109C19.9444 54.855 19.8487 54.5384 19.6001 54.4042C19.3516 54.27 19.0423 54.3683 18.9116 54.6234C18.163 56.0843 18.4981 57.7395 19.5933 58.5858L18.9891 59.8127C18.8576 60.0686 18.9534 60.3852 19.2027 60.5194C19.4519 60.6536 19.7597 60.5553 19.8912 60.3002L20.5114 59.0405C21.8543 59.4001 23.4138 58.6747 24.1586 57.2216C25.0015 55.5781 24.474 53.6804 23.0308 52.9807C22.0739 52.5174 21.792 51.2507 22.3498 50.1641C23.0004 48.8951 24.5409 48.3389 25.5312 49.2562C26.1513 49.8303 26.26 50.8794 25.7941 51.7881C25.6634 52.0439 25.7592 52.3606 26.0077 52.4948C26.2562 52.6289 26.5655 52.5306 26.6963 52.2756C27.4449 50.8146 27.1097 49.1595 26.0145 48.3132L26.6134 47.1876C26.7441 46.9318 26.6491 46.6151 26.3999 46.481C26.1506 46.3468 25.8428 46.4451 25.7113 46.7001L25.0957 47.8577C23.7528 47.4981 22.1933 48.2243 21.4477 49.6774C20.5866 51.356 21.1581 53.2935 22.6683 53.9635C23.5537 54.4572 23.7961 55.6834 23.2565 56.7348C22.7017 57.8167 21.5085 58.3705 20.5471 57.9516H20.5479Z" fill="black"/>
<path d="M13.1746 102.221C12.1866 101.184 11.2518 100.1 10.4082 99.0086C10.1893 98.7411 10.5975 98.3807 10.8262 98.6724C11.6691 99.7574 12.5887 100.825 13.5546 101.84C13.7955 102.07 13.4611 102.475 13.1746 102.221ZM8.47781 96.2474C7.71782 95.0298 7.03382 93.7662 6.44862 92.4878C6.30878 92.1384 6.78986 91.9379 6.93502 92.2538C7.50502 93.5088 8.17381 94.7576 8.92621 95.9502C9.11165 96.2567 8.67845 96.543 8.47781 96.2474ZM5.22502 89.3202C4.78422 87.9474 4.44222 86.5512 4.20662 85.1472C4.17926 85.0614 4.23398 84.868 4.42702 84.8352C4.56382 84.8126 4.70822 84.914 4.73026 85.0614C4.95902 86.4428 5.29266 87.8226 5.72662 89.1486C5.8353 89.5059 5.31698 89.6533 5.22502 89.3202ZM4.10782 82.0272C3.97026 82.0272 3.84866 81.9102 3.84106 81.762C3.78406 80.5359 3.80078 78.9291 3.93226 77.4641C3.9657 77.142 4.46426 77.1163 4.46426 77.518C4.32974 78.9844 4.31758 80.6045 4.37306 81.7378C4.3837 81.8392 4.3001 82.0264 4.10706 82.0264L4.10782 82.0272ZM4.42702 74.1023C4.69302 72.7139 5.06542 71.3185 5.51382 69.9535C5.60654 69.6657 6.03062 69.7258 6.03062 70.0463C6.03062 70.1938 5.48038 71.5221 4.94382 74.2123C4.87846 74.5649 4.34874 74.4565 4.42702 74.1023ZM6.72222 66.7781C7.74062 64.4459 8.66857 63.0341 8.70581 62.9795C8.90189 62.6855 9.34573 62.9842 9.14661 63.2837C9.13901 63.2923 9.13901 63.3001 9.13065 63.3071C8.90265 63.6659 8.09781 64.9763 7.20862 67.0043C7.05662 67.3397 6.57782 67.1096 6.72146 66.7781H6.72222Z" fill="black"/>
<path d="M15.1413 26.4499H12.7063C12.3544 26.4499 12.3544 25.9046 12.7063 25.9046H15.1413C15.4932 25.9046 15.4932 26.4499 15.1413 26.4499Z" fill="black"/>
<path d="M15.8379 25.0084V22.0475C15.8379 21.6864 16.3691 21.6864 16.3691 22.0475V25.0084C16.3691 25.3695 15.8379 25.3695 15.8379 25.0084Z" fill="black"/>
<path d="M19.4992 26.4499H17.0642C16.7123 26.4499 16.7123 25.9046 17.0642 25.9046H19.4992C19.8511 25.9046 19.8511 26.4499 19.4992 26.4499Z" fill="black"/>
<path d="M15.8379 30.3061V27.346C15.8379 26.9848 16.3691 26.9848 16.3691 27.346V30.3061C16.3691 30.6672 15.8379 30.6672 15.8379 30.3061Z" fill="black"/>
<path d="M133.164 109.024H130.729C130.377 109.024 130.377 108.479 130.729 108.479H133.164C133.516 108.479 133.516 109.024 133.164 109.024Z" fill="black"/>
<path d="M133.86 107.582V104.621C133.86 104.26 134.392 104.26 134.392 104.621V107.582C134.392 107.943 133.86 107.943 133.86 107.582Z" fill="black"/>
<path d="M137.522 109.024H135.087C134.735 109.024 134.735 108.479 135.087 108.479H137.522C137.874 108.479 137.874 109.024 137.522 109.024Z" fill="black"/>
<path d="M133.86 112.88V109.919C133.86 109.558 134.392 109.558 134.392 109.919V112.88C134.392 113.241 133.86 113.241 133.86 112.88Z" fill="black"/>
<path fill-rule="evenodd" clip-rule="evenodd" d="M67.4582 110.714C67.4582 109.64 66.6093 108.769 65.5627 108.769H6.38763C5.34111 108.769 4.49219 109.64 4.49219 110.714V145.015C4.49219 146.089 5.34111 146.961 6.38763 146.961H65.562C66.6085 146.961 67.4574 146.089 67.4574 145.015L67.4582 110.714Z" fill="#81F8F8"/>
<path fill-rule="evenodd" clip-rule="evenodd" d="M4.49219 124.167C4.49219 124.167 10.845 122.811 11.5777 128.369C11.5777 128.369 15.6277 127.423 18.0529 129.252C20.478 131.082 21.3437 133.748 20.478 137.043C20.478 137.043 22.587 135.473 25.3473 135.66C28.1077 135.847 29.6261 138.331 29.6261 140.065C29.6261 140.065 32.6646 137.308 37.5704 139.126C42.2512 140.861 43.2529 146.96 43.2529 146.96H6.43627C5.36239 146.96 4.49219 146.066 4.49219 144.965V124.167V124.167Z" fill="white"/>
<path fill-rule="evenodd" clip-rule="evenodd" d="M19.5791 117.61C19.5791 117.141 19.2463 116.761 18.8359 116.761H12.3219C11.9115 116.761 11.5786 117.141 11.5786 117.61V121.509C11.5786 121.978 11.9115 122.358 12.3219 122.358H18.8359C19.2463 122.358 19.5791 121.978 19.5791 121.509V117.61Z" fill="#FFD997"/>
<path d="M18.8345 116.488H12.3213C11.765 116.488 11.312 116.992 11.312 117.61V121.509C11.312 122.128 11.765 122.631 12.3213 122.631H18.8345C19.3908 122.631 19.8438 122.128 19.8438 121.509V117.61C19.8438 116.992 19.3908 116.488 18.8345 116.488ZM14.4409 120.297L14.4288 118.991H16.4025L16.3903 120.297H14.4409ZM11.8433 118.991H13.8983L13.9089 120.275C13.9036 120.282 13.8975 120.289 13.8922 120.296H11.8433V118.991ZM16.9337 118.991H19.3125V120.297H16.9231L16.9337 118.991ZM18.8345 117.034C19.0982 117.034 19.3125 117.292 19.3125 117.609V118.445H17.2043C17.4688 117.862 17.5524 117.346 17.579 117.033H18.8345V117.034ZM17.0447 117.034C17.0143 117.34 16.9201 117.877 16.6297 118.446H14.2031C13.9143 117.88 13.8193 117.342 13.7889 117.034H17.0455H17.0447ZM12.3213 117.034H13.2531C13.2797 117.346 13.364 117.862 13.6277 118.446H11.8433V117.61C11.8433 117.293 12.0576 117.034 12.3213 117.034ZM12.3213 122.085C12.0576 122.085 11.8433 121.827 11.8433 121.509V120.843H13.5403C13.3648 121.174 13.1976 121.606 13.1717 122.086L12.3213 122.085ZM13.7037 122.085C13.7402 121.577 13.9811 121.121 14.1628 120.842H16.6677C16.8501 121.121 17.0903 121.576 17.1268 122.085H13.7037ZM18.8345 122.085H17.6603C17.6329 121.59 17.4566 121.163 17.275 120.842H19.3133V121.508C19.3133 121.826 19.099 122.084 18.8353 122.084L18.8345 122.085Z" fill="black"/>
<path d="M65.5619 108.496H6.38751C5.19583 108.496 4.22607 109.49 4.22607 110.714V145.015C4.22607 146.238 5.19507 147.234 6.38751 147.234H65.5619C66.7535 147.234 67.7233 146.239 67.7233 145.015V110.714C67.7233 109.491 66.7543 108.496 65.5619 108.496ZM4.75731 145.015V124.398C5.48235 124.287 7.91359 124.03 9.60535 125.259C10.5546 125.949 11.1299 127.007 11.3138 128.406C11.3336 128.564 11.4841 128.67 11.6361 128.636C11.6763 128.628 15.5995 127.741 17.8954 129.473C20.2408 131.243 21.0456 133.836 20.221 136.973C20.1549 137.22 20.4331 137.415 20.6337 137.264C20.6535 137.249 22.6857 135.747 25.3297 135.934C27.9251 136.11 29.3608 138.488 29.3608 140.066C29.3608 140.303 29.6336 140.426 29.8023 140.271C29.832 140.244 32.78 137.644 37.4806 139.385C41.3536 140.82 42.6425 145.432 42.9268 146.688H6.38751C5.48843 146.688 4.75731 145.938 4.75731 145.015ZM67.1913 145.015C67.1913 145.938 66.4602 146.689 65.5611 146.689H43.4717C43.2369 145.536 41.9707 140.469 37.66 138.872C33.6327 137.381 30.8504 138.858 29.8525 139.551C29.5949 137.775 28.0505 135.572 25.3647 135.389C23.3705 135.258 21.7091 135.998 20.8845 136.467C21.5001 133.385 20.5828 130.825 18.2093 129.034C16.0608 127.412 12.7745 127.865 11.7964 128.047C11.1915 124.541 8.14767 123.341 4.75579 123.845V110.715C4.75579 109.792 5.48691 109.042 6.38599 109.042H65.5603C66.4594 109.042 67.1905 109.792 67.1905 110.715V145.016L67.1913 145.015Z" fill="black"/>
<path d="M22.5178 130.167H11.5776V131.997H22.5178V130.167Z" fill="#FFD997"/>
<path d="M31.571 138.592H11.5776V140.422H31.571V138.592Z" fill="#FFD997"/>
<path d="M45.282 138.592H39.0303V140.422H45.282V138.592Z" fill="#FFD997"/>
<path d="M53.0159 138.592H46.7642V140.422H53.0159V138.592Z" fill="#FFD997"/>
<path d="M61.0818 138.592H54.8301V140.422H61.0818V138.592Z" fill="#FFD997"/>
<path d="M48.5349 130.167H37.5947V131.997H48.5349V130.167Z" fill="#FFD997"/>
<path d="M35.5266 130.167H24.5864V131.997H35.5266V130.167Z" fill="#FFD997"/>
<path d="M61.5437 130.167H50.6035V131.997H61.5437V130.167Z" fill="#FFD997"/>
<path d="M22.5185 132.27H11.5775C11.4308 132.27 11.3115 132.148 11.3115 131.997V130.167C11.3115 130.017 11.4301 129.894 11.5775 129.894H22.5185C22.6652 129.894 22.7845 130.016 22.7845 130.167V131.997C22.7845 132.148 22.6659 132.27 22.5185 132.27ZM11.8435 131.725H22.2525V130.441H11.8435V131.725Z" fill="black"/>
<path d="M31.5716 140.695H11.5775C11.4308 140.695 11.3115 140.573 11.3115 140.422V138.592C11.3115 138.441 11.4301 138.319 11.5775 138.319H31.5716C31.7183 138.319 31.8376 138.441 31.8376 138.592V140.422C31.8376 140.572 31.719 140.695 31.5716 140.695ZM11.8435 140.15H31.3056V138.866H11.8435V140.15Z" fill="black"/>
<path d="M45.2822 140.695H39.0297C38.883 140.695 38.7637 140.573 38.7637 140.422V138.592C38.7637 138.441 38.8822 138.319 39.0297 138.319H45.2822C45.4289 138.319 45.5482 138.441 45.5482 138.592V140.422C45.5482 140.572 45.4296 140.695 45.2822 140.695ZM39.2957 140.15H45.0162V138.866H39.2957V140.15Z" fill="black"/>
<path d="M53.0158 140.695H46.764C46.6174 140.695 46.498 140.573 46.498 140.422V138.592C46.498 138.441 46.6166 138.319 46.764 138.319H53.0158C53.1625 138.319 53.2818 138.441 53.2818 138.592V140.422C53.2818 140.572 53.1632 140.695 53.0158 140.695ZM47.03 140.15H52.7498V138.866H47.03V140.15Z" fill="black"/>
<path d="M61.0817 140.695H54.83C54.6833 140.695 54.564 140.573 54.564 140.422V138.592C54.564 138.441 54.6825 138.319 54.83 138.319H61.0817C61.2284 138.319 61.3477 138.441 61.3477 138.592V140.422C61.3477 140.572 61.2292 140.695 61.0817 140.695ZM55.096 140.15H60.8157V138.866H55.096V140.15Z" fill="black"/>
<path d="M48.5351 132.27H37.5941C37.4474 132.27 37.3281 132.148 37.3281 131.997V130.167C37.3281 130.017 37.4467 129.894 37.5941 129.894H48.5351C48.6818 129.894 48.8011 130.016 48.8011 130.167V131.997C48.8011 132.148 48.6825 132.27 48.5351 132.27ZM37.8601 131.725H48.2691V130.441H37.8601V131.725Z" fill="black"/>
<path d="M35.5268 132.27H24.5858C24.4391 132.27 24.3198 132.148 24.3198 131.997V130.167C24.3198 130.017 24.4384 129.894 24.5858 129.894H35.5268C35.6735 129.894 35.7928 130.016 35.7928 130.167V131.997C35.7928 132.148 35.6742 132.27 35.5268 132.27ZM24.8518 131.725H35.2608V130.441H24.8518V131.725Z" fill="black"/>
<path d="M61.5426 132.27H50.6024C50.4557 132.27 50.3364 132.148 50.3364 131.997V130.167C50.3364 130.017 50.455 129.894 50.6024 129.894H61.5426C61.6893 129.894 61.8086 130.016 61.8086 130.167V131.997C61.8086 132.148 61.6901 132.27 61.5426 132.27ZM50.8684 131.725H61.2766V130.441H50.8684V131.725Z" fill="black"/>
<path d="M86.8186 30.8756C86.6331 30.8756 86.5123 30.6868 86.5678 30.5168C87.4197 27.8749 88.2778 26.7041 88.2778 26.5778C88.3462 26.453 88.5202 26.4062 88.6418 26.4764C88.7885 26.5575 88.7968 26.7548 88.7406 26.85C86.9713 30.0597 87.2958 30.8756 86.8186 30.8756ZM90.345 24.191C90.1109 24.191 90.0022 23.9024 90.1322 23.7472C91.2585 22.2722 92.5991 20.9258 92.9981 20.6037C93.0969 20.5023 93.271 20.5101 93.3698 20.6201C93.4716 20.7394 93.4556 20.9063 93.3546 21.0101C93.1136 21.191 91.7289 22.5428 90.5502 24.0826C90.5046 24.1528 90.4293 24.191 90.345 24.191ZM95.5662 18.4509C96.7138 17.5851 97.9146 16.8286 99.1298 16.189C99.2772 16.1039 99.5098 16.2022 99.5098 16.423C99.5402 16.8332 98.7794 16.7014 95.8778 18.8956C95.5874 19.0929 95.2796 18.6701 95.5662 18.4517V18.4509ZM102.269 15.3778C101.977 15.3778 101.897 14.9402 102.186 14.8474C103.523 14.3716 104.899 14.0362 106.267 13.849C106.596 13.7811 106.703 14.3443 106.335 14.3872C103.824 14.7249 102.468 15.3778 102.269 15.3778ZM113.661 14.98C113.407 14.98 112.289 14.3606 109.572 14.2468C109.21 14.2062 109.262 13.693 109.58 13.693C111.018 13.693 113.768 14.3232 113.768 14.4574C114.012 14.5517 113.975 14.98 113.661 14.98Z" fill="black"/>
<path d="M137.538 49.6867L147.867 38.6317C148.089 38.3946 147.939 38.0015 147.623 37.9742C147.541 37.9664 139.354 37.1451 136.032 27.9949C132.125 17.2356 125.331 10.7974 125.263 10.7343C125.134 10.6126 124.939 10.5978 124.794 10.6999L111.045 20.3634C110.793 20.5381 110.833 20.9351 111.121 21.0498C111.187 21.0755 117.641 23.7049 119.763 29.6836C123.099 39.1107 126.504 48.2429 137.21 49.8037C137.331 49.8216 137.454 49.7772 137.538 49.6867Z" fill="#81F8F8"/>
<path d="M110.897 20.1373L124.643 10.4754C124.892 10.3007 125.22 10.3249 125.442 10.5339C125.509 10.5955 132.376 17.1483 136.28 27.9006C139.525 36.8371 147.565 37.6958 147.647 37.7036C148.176 37.7481 148.439 38.4142 148.057 38.8222L137.729 49.8763C137.584 50.0308 137.375 50.1049 137.169 50.0737C126.124 48.4645 122.762 38.9641 119.512 29.7773C117.441 23.9429 111.087 21.3307 111.024 21.3049C110.541 21.1146 110.463 20.4376 110.896 20.1388L110.897 20.1373ZM147.601 38.2465C147.515 38.2387 139.146 37.3565 135.782 28.0909C131.882 17.3511 125.152 11.0003 125.085 10.9372C125.045 10.9005 124.987 10.8958 124.944 10.9255L111.196 20.5889C111.117 20.6443 111.134 20.762 111.218 20.7948C111.285 20.8221 117.859 23.5232 120.012 29.5901C123.21 38.6256 126.516 47.9692 137.248 49.5323C137.34 49.5472 137.289 49.5386 147.675 38.4431C147.743 38.3698 147.692 38.2543 147.602 38.2465H147.601Z" fill="black"/>
<path fill-rule="evenodd" clip-rule="evenodd" d="M124.619 12.6078L113.94 20.2916C113.94 20.2916 119.796 23.5855 121.749 29.2733C123.702 34.9611 126.558 45.8522 136.566 47.5612L145.06 39.113C145.06 39.113 137.622 37.2238 134.577 28.5518C131.112 18.6832 124.619 12.6078 124.619 12.6078Z" fill="white"/>
<path d="M123.014 24.0779C124.467 24.3181 125.348 22.5194 124.472 21.1638C123.837 20.1818 124.432 18.9299 125.401 19.0906C126.455 19.2668 126.925 20.8853 126.074 21.5647C125.8 21.7855 126.122 22.2191 126.402 21.9953C127.062 21.4672 127.229 20.4384 126.819 19.6046L127.515 19.0469C127.792 18.823 127.465 18.3948 127.187 18.6163L126.519 19.1514C126.241 18.8308 125.876 18.6163 125.488 18.5524C124.042 18.3113 123.151 20.1061 124.03 21.4657C124.437 22.0943 124.358 22.9391 123.853 23.3447C122.682 24.2799 121.222 22.0304 122.428 21.0647C122.705 20.8401 122.377 20.4134 122.1 20.6342C121.462 21.1451 121.261 22.1614 121.683 23.0249L120.987 23.5826C120.712 23.8033 121.037 24.2354 121.314 24.0131L121.981 23.4781C122.26 23.7986 122.625 24.0131 123.014 24.0779Z" fill="black"/>
<path d="M133.373 42.1918C134.833 42.3704 135.641 40.5366 134.713 39.2184C134.041 38.2637 134.585 36.9876 135.559 37.1085C136.619 37.2403 137.152 38.8378 136.329 39.5522C136.064 39.7839 136.403 40.2043 136.673 39.9688C137.312 39.4134 137.438 38.3791 136.995 37.5625L137.668 36.9759C137.936 36.7403 137.592 36.3262 137.324 36.5594L136.677 37.1218C136.386 36.8129 136.013 36.614 135.622 36.5664C134.168 36.3854 133.348 38.2169 134.281 39.539C134.713 40.1497 134.668 40.9976 134.179 41.4235C133.047 42.4063 131.499 40.2207 132.665 39.2051C132.933 38.9688 132.588 38.5562 132.321 38.7886C131.704 39.326 131.543 40.3502 131.999 41.1949L131.325 41.7815C131.059 42.0131 131.401 42.4312 131.669 42.198L132.315 41.6356C132.607 41.9445 132.98 42.1434 133.371 42.1918H133.373Z" fill="black"/>
<path fill-rule="evenodd" clip-rule="evenodd" d="M132.283 28.8826C132.745 29.5628 131.885 31.2429 130.363 32.6383C128.841 34.0337 127.233 34.6133 126.77 33.9331C126.307 33.2529 127.167 31.5705 128.689 30.1751C130.211 28.7796 131.82 28.2024 132.282 28.8826H132.283Z" fill="#FFD997"/>
<path d="M132.501 28.7244C133.129 29.6487 131.962 31.5386 130.541 32.8412C129.496 33.799 127.305 35.1968 126.551 34.0892C125.263 32.1797 131.184 26.7837 132.501 28.7244ZM132.065 29.0363C131.605 28.3609 129.696 29.6174 128.866 30.3779C127.389 31.7328 126.66 33.2952 126.988 33.7764C127.448 34.4527 129.357 33.1953 130.187 32.4348C131.021 31.6696 132.539 29.7329 132.065 29.0363Z" fill="black"/>
<path d="M145.245 39.3097C145.376 39.1795 145.343 38.9049 145.125 38.848C145.052 38.83 137.786 36.8839 134.828 28.4591C131.381 18.6405 124.864 12.4668 124.798 12.4052C124.706 12.3194 124.569 12.31 124.467 12.3833L113.788 20.0671C113.623 20.1857 113.644 20.4361 113.813 20.5304C113.87 20.5632 119.603 23.8439 121.499 29.3632C121.645 29.7883 121.796 30.243 121.955 30.7211C124.639 38.7957 128.106 46.3921 136.522 47.8297C136.729 47.864 136.603 47.9162 145.245 39.3097ZM144.553 39.2387L142.652 41.1295C142.303 40.9586 141.485 40.4602 141.591 39.5788C141.641 39.1709 142.352 38.7247 142.847 38.5079C143.576 38.8753 144.175 39.1077 144.553 39.2387ZM126.131 14.6212C124.889 15.5096 123.767 15.2506 122.953 14.1415L124.595 12.9598C124.849 13.2117 125.4 13.7764 126.131 14.6212ZM114.433 20.2715L116.017 19.1327C117.559 19.6217 117.668 20.5967 116.628 21.865C115.688 21.0874 114.88 20.5499 114.433 20.2715ZM122.459 30.5464C122.299 30.0667 122.147 29.6104 122.001 29.183C120.95 26.1254 118.826 23.7674 117.039 22.2129C118.162 20.8401 118.184 19.44 116.549 18.7489L122.516 14.4558C123.477 15.7873 124.944 16.1632 126.484 15.0338C128.674 17.6335 132.131 22.3892 134.328 28.6448C136.204 33.9901 139.768 36.809 142.259 38.1951C141.784 38.4564 141.136 38.9166 141.065 39.5117C140.958 40.4072 141.487 41.0905 142.251 41.5288L137.831 45.9241C136.771 44.4803 135.226 44.3267 133.783 46.5021C126.844 43.7347 124.247 35.9198 122.46 30.5456L122.459 30.5464ZM134.298 46.6971C135.309 45.2315 136.436 44.8758 137.444 46.3087L136.478 47.2688C135.709 47.1308 134.983 46.9381 134.298 46.6971Z" fill="black"/>
</svg>
