<svg width="600" height="600" viewBox="0 0 600 600" fill="none" xmlns="http://www.w3.org/2000/svg">
<path d="M300.326 126.5C378.729 126.5 449.59 146.107 500.77 177.677C551.988 209.271 583.151 252.588 583.151 300C583.151 347.412 551.988 390.729 500.77 422.323C449.59 453.893 378.729 473.5 300.326 473.5C221.923 473.5 151.062 453.892 99.8828 422.323C48.6639 390.729 17.5 347.412 17.5 300C17.5 252.588 48.6639 209.271 99.8828 177.677C151.062 146.108 221.923 126.5 300.326 126.5Z" stroke="#1E1E1E" stroke-width="5"/>
<path d="M174.091 331.981C223.28 364.192 303.454 363.617 303.454 363.617C303.454 363.617 275.09 285.075 225.902 252.864C176.713 220.652 125.327 246.97 125.327 246.97C125.327 246.97 124.903 299.77 174.091 331.981Z" stroke="#1E1E1E" stroke-width="5"/>
<path d="M334.739 407.252C315.12 394.404 303.705 363.233 303.705 363.233C303.705 363.233 338.213 359.141 357.832 371.988L334.739 407.252Z" stroke="#1E1E1E" stroke-width="5"/>
<line x1="210.164" y1="244.926" x2="160.426" y2="320.879" stroke="#1E1E1E" stroke-width="5"/>
<path d="M169.476 263.07C168.386 264.734 166.153 265.2 164.488 264.11C162.824 263.02 162.358 260.787 163.448 259.122C164.538 257.458 166.771 256.992 168.436 258.082C170.1 259.172 170.566 261.405 169.476 263.07Z" fill="#1E1E1E"/>
<path d="M160.243 321.761C162.88 323.488 165.831 324.678 168.927 325.264C172.024 325.851 175.206 325.821 178.291 325.178C181.377 324.534 184.305 323.289 186.909 321.514C189.514 319.739 191.743 317.468 193.469 314.832C195.196 312.195 196.387 309.244 196.973 306.147C197.559 303.051 197.53 299.869 196.886 296.784C196.243 293.698 194.998 290.77 193.223 288.166C191.448 285.561 189.177 283.332 186.54 281.605L184.312 285.009C186.501 286.443 188.387 288.294 189.861 290.457C191.336 292.62 192.37 295.052 192.904 297.614C193.438 300.176 193.463 302.819 192.976 305.391C192.489 307.963 191.5 310.413 190.066 312.603C188.632 314.793 186.781 316.679 184.618 318.153C182.455 319.627 180.023 320.661 177.461 321.195C174.899 321.73 172.256 321.754 169.684 321.267C167.112 320.781 164.662 319.792 162.472 318.358L160.243 321.761Z" fill="#1E1E1E"/>
<path d="M197.471 346.375C200.107 348.102 203.058 349.292 206.155 349.879C209.252 350.465 212.434 350.435 215.519 349.792C218.604 349.149 221.533 347.904 224.137 346.129C226.741 344.353 228.97 342.083 230.697 339.446C232.424 336.809 233.614 333.858 234.2 330.762C234.787 327.665 234.757 324.483 234.114 321.398C233.47 318.312 232.225 315.384 230.45 312.78C228.675 310.176 226.404 307.946 223.768 306.22L221.539 309.623C223.729 311.057 225.615 312.908 227.089 315.071C228.563 317.234 229.597 319.666 230.131 322.228C230.666 324.791 230.69 327.433 230.203 330.005C229.717 332.577 228.728 335.028 227.294 337.217C225.86 339.407 224.009 341.293 221.846 342.767C219.683 344.242 217.251 345.275 214.688 345.81C212.126 346.344 209.484 346.369 206.912 345.882C204.34 345.395 201.889 344.406 199.699 342.972L197.471 346.375Z" fill="#1E1E1E"/>
<path d="M220.781 309.413C223.418 311.139 226.369 312.33 229.466 312.916C232.562 313.502 235.744 313.473 238.829 312.829C241.915 312.186 244.843 310.941 247.447 309.166C250.052 307.391 252.281 305.12 254.008 302.483C255.734 299.847 256.925 296.896 257.511 293.799C258.097 290.702 258.068 287.52 257.424 284.435C256.781 281.35 255.536 278.421 253.761 275.817C251.986 273.213 249.715 270.984 247.078 269.257L244.85 272.66C247.039 274.094 248.925 275.946 250.4 278.108C251.874 280.271 252.908 282.703 253.442 285.266C253.976 287.828 254.001 290.471 253.514 293.042C253.027 295.614 252.038 298.065 250.604 300.255C249.17 302.444 247.319 304.33 245.156 305.805C242.993 307.279 240.561 308.313 237.999 308.847C235.437 309.381 232.794 309.406 230.222 308.919C227.65 308.432 225.2 307.443 223.01 306.009L220.781 309.413Z" fill="#1E1E1E"/>
<path d="M226.696 339.814C229.333 341.541 232.284 342.731 235.381 343.317C238.477 343.904 241.659 343.874 244.745 343.231C247.83 342.587 250.758 341.342 253.363 339.567C255.967 337.792 258.196 335.521 259.923 332.885C261.649 330.248 262.84 327.297 263.426 324.2C264.012 321.104 263.983 317.922 263.339 314.836C262.696 311.751 261.451 308.823 259.676 306.218C257.901 303.614 255.63 301.385 252.993 299.658L250.765 303.062C252.954 304.496 254.84 306.347 256.315 308.51C257.789 310.673 258.823 313.105 259.357 315.667C259.891 318.229 259.916 320.872 259.429 323.444C258.942 326.016 257.953 328.466 256.519 330.656C255.085 332.846 253.234 334.732 251.071 336.206C248.908 337.68 246.476 338.714 243.914 339.248C241.352 339.783 238.709 339.807 236.137 339.32C233.565 338.834 231.115 337.845 228.925 336.411L226.696 339.814Z" fill="#1E1E1E"/>
<path d="M190.541 316.342C193.178 318.068 196.129 319.259 199.225 319.845C202.322 320.431 205.504 320.402 208.589 319.759C211.675 319.115 214.603 317.87 217.207 316.095C219.812 314.32 222.041 312.049 223.767 309.413C225.494 306.776 226.684 303.825 227.271 300.728C227.857 297.632 227.828 294.45 227.184 291.364C226.541 288.279 225.296 285.351 223.521 282.746C221.745 280.142 219.475 277.913 216.838 276.186L214.609 279.589C216.799 281.023 218.685 282.875 220.159 285.038C221.634 287.2 222.667 289.632 223.202 292.195C223.736 294.757 223.761 297.4 223.274 299.972C222.787 302.543 221.798 304.994 220.364 307.184C218.93 309.374 217.079 311.259 214.916 312.734C212.753 314.208 210.321 315.242 207.759 315.776C205.196 316.311 202.554 316.335 199.982 315.848C197.41 315.361 194.959 314.373 192.77 312.939L190.541 316.342Z" fill="#1E1E1E"/>
<path d="M213.852 277.7C216.488 279.426 219.439 280.617 222.536 281.203C225.633 281.789 228.814 281.76 231.9 281.116C234.985 280.473 237.914 279.228 240.518 277.453C243.122 275.678 245.351 273.407 247.078 270.77L243.675 268.542C242.241 270.732 240.389 272.617 238.227 274.092C236.064 275.566 233.632 276.6 231.069 277.134C228.507 277.669 225.864 277.693 223.293 277.206C220.721 276.719 218.27 275.731 216.08 274.297L213.852 277.7Z" fill="#1E1E1E"/>
<path d="M198.457 346.375C200.183 343.739 201.374 340.788 201.96 337.691C202.546 334.594 202.517 331.412 201.874 328.327C201.23 325.242 199.985 322.313 198.21 319.709C196.435 317.105 194.164 314.876 191.528 313.149L189.299 316.552C191.489 317.986 193.374 319.837 194.849 322C196.323 324.163 197.357 326.595 197.891 329.157C198.426 331.72 198.45 334.362 197.963 336.934C197.476 339.506 196.488 341.957 195.054 344.147L198.457 346.375Z" fill="#1E1E1E"/>
<path d="M252.994 301.838C256.117 303.882 259.673 305.171 263.38 305.6C267.088 306.03 270.845 305.589 274.352 304.312L272.96 300.49C270.048 301.55 266.928 301.916 263.849 301.559C260.769 301.203 257.816 300.133 255.223 298.434L252.994 301.838Z" fill="#1E1E1E"/>
<path d="M240.334 357.394C240.012 353.775 238.872 350.276 237 347.161C235.128 344.047 232.574 341.398 229.529 339.414L227.309 342.823C229.837 344.47 231.959 346.67 233.513 349.257C235.068 351.843 236.014 354.749 236.282 357.755L240.334 357.394Z" fill="#1E1E1E"/>
<path d="M184.779 283.115C187.416 284.842 190.367 286.033 193.464 286.619C196.56 287.205 199.742 287.176 202.828 286.532C205.913 285.889 208.841 284.644 211.446 282.869C214.05 281.094 216.279 278.823 218.006 276.186C219.732 273.55 220.923 270.599 221.509 267.502C222.095 264.405 222.066 261.223 221.422 258.138C220.779 255.053 219.534 252.124 217.759 249.52C215.984 246.916 213.713 244.687 211.076 242.96L208.848 246.363C211.037 247.797 212.923 249.648 214.398 251.811C215.872 253.974 216.906 256.406 217.44 258.969C217.974 261.531 217.999 264.173 217.512 266.745C217.025 269.317 216.036 271.768 214.602 273.958C213.168 276.147 211.317 278.033 209.154 279.507C206.991 280.982 204.559 282.016 201.997 282.55C199.435 283.084 196.792 283.109 194.22 282.622C191.648 282.135 189.198 281.146 187.008 279.712L184.779 283.115Z" fill="#1E1E1E"/>
<path d="M279.93 267.281C329.118 299.492 409.292 298.917 409.292 298.917C409.292 298.917 380.929 220.375 331.74 188.164C282.552 155.952 231.165 182.27 231.165 182.27C231.165 182.27 230.741 235.07 279.93 267.281Z" stroke="#1E1E1E" stroke-width="5"/>
<path d="M440.578 342.552C420.959 329.704 409.544 298.533 409.544 298.533C409.544 298.533 444.051 294.44 463.67 307.288L440.578 342.552Z" stroke="#1E1E1E" stroke-width="5"/>
<line x1="316.003" y1="180.227" x2="266.265" y2="256.179" stroke="#1E1E1E" stroke-width="5"/>
<path d="M275.314 198.369C274.224 200.034 271.991 200.5 270.326 199.409C268.662 198.319 268.196 196.086 269.286 194.422C270.376 192.757 272.609 192.291 274.274 193.381C275.938 194.472 276.404 196.705 275.314 198.369Z" fill="#1E1E1E"/>
<path d="M266.082 257.06C268.718 258.787 271.669 259.977 274.766 260.564C277.863 261.15 281.044 261.121 284.13 260.477C287.215 259.834 290.144 258.589 292.748 256.814C295.352 255.038 297.581 252.768 299.308 250.131C301.035 247.494 302.225 244.543 302.811 241.447C303.397 238.35 303.368 235.168 302.725 232.083C302.081 228.997 300.836 226.069 299.061 223.465C297.286 220.861 295.015 218.631 292.379 216.905L290.15 220.308C292.34 221.742 294.226 223.593 295.7 225.756C297.174 227.919 298.208 230.351 298.742 232.913C299.277 235.476 299.301 238.118 298.814 240.69C298.327 243.262 297.339 245.713 295.905 247.902C294.471 250.092 292.619 251.978 290.457 253.452C288.294 254.927 285.862 255.96 283.299 256.495C280.737 257.029 278.094 257.054 275.523 256.567C272.951 256.08 270.5 255.091 268.31 253.657L266.082 257.06Z" fill="#1E1E1E"/>
<path d="M303.309 281.675C305.946 283.401 308.897 284.592 311.993 285.178C315.09 285.764 318.272 285.735 321.357 285.091C324.443 284.448 327.371 283.203 329.975 281.428C332.58 279.653 334.809 277.382 336.535 274.745C338.262 272.109 339.453 269.158 340.039 266.061C340.625 262.964 340.596 259.782 339.952 256.697C339.309 253.612 338.064 250.683 336.289 248.079C334.514 245.475 332.243 243.246 329.606 241.519L327.377 244.922C329.567 246.356 331.453 248.207 332.927 250.37C334.402 252.533 335.435 254.965 335.97 257.528C336.504 260.09 336.529 262.733 336.042 265.304C335.555 267.876 334.566 270.327 333.132 272.517C331.698 274.706 329.847 276.592 327.684 278.067C325.521 279.541 323.089 280.575 320.527 281.109C317.964 281.643 315.322 281.668 312.75 281.181C310.178 280.694 307.727 279.705 305.538 278.271L303.309 281.675Z" fill="#1E1E1E"/>
<path d="M326.62 244.712C329.256 246.439 332.207 247.629 335.304 248.215C338.401 248.802 341.583 248.772 344.668 248.129C347.753 247.485 350.682 246.24 353.286 244.465C355.89 242.69 358.119 240.419 359.846 237.783C361.573 235.146 362.763 232.195 363.349 229.098C363.936 226.002 363.906 222.82 363.263 219.734C362.619 216.649 361.374 213.721 359.599 211.116C357.824 208.512 355.553 206.283 352.917 204.556L350.688 207.96C352.878 209.394 354.764 211.245 356.238 213.408C357.712 215.571 358.746 218.003 359.28 220.565C359.815 223.127 359.839 225.77 359.352 228.342C358.865 230.914 357.877 233.364 356.443 235.554C355.009 237.744 353.157 239.63 350.995 241.104C348.832 242.578 346.4 243.612 343.837 244.146C341.275 244.681 338.632 244.705 336.061 244.218C333.489 243.731 331.038 242.743 328.848 241.309L326.62 244.712Z" fill="#1E1E1E"/>
<path d="M332.535 275.113C335.171 276.84 338.122 278.03 341.219 278.617C344.316 279.203 347.498 279.173 350.583 278.53C353.668 277.887 356.597 276.642 359.201 274.867C361.805 273.091 364.034 270.821 365.761 268.184C367.488 265.547 368.678 262.596 369.264 259.5C369.851 256.403 369.821 253.221 369.178 250.136C368.534 247.05 367.289 244.122 365.514 241.518C363.739 238.914 361.468 236.684 358.832 234.958L356.603 238.361C358.793 239.795 360.679 241.646 362.153 243.809C363.627 245.972 364.661 248.404 365.195 250.966C365.73 253.529 365.754 256.171 365.267 258.743C364.78 261.315 363.792 263.766 362.358 265.955C360.924 268.145 359.072 270.031 356.91 271.505C354.747 272.98 352.315 274.013 349.752 274.548C347.19 275.082 344.547 275.107 341.976 274.62C339.404 274.133 336.953 273.144 334.763 271.71L332.535 275.113Z" fill="#1E1E1E"/>
<path d="M296.379 251.641C299.016 253.368 301.967 254.558 305.064 255.145C308.16 255.731 311.342 255.701 314.428 255.058C317.513 254.414 320.441 253.17 323.046 251.394C325.65 249.619 327.879 247.349 329.606 244.712C331.332 242.075 332.523 239.124 333.109 236.028C333.695 232.931 333.666 229.749 333.022 226.664C332.379 223.578 331.134 220.65 329.359 218.046C327.584 215.441 325.313 213.212 322.676 211.486L320.448 214.889C322.638 216.323 324.523 218.174 325.998 220.337C327.472 222.5 328.506 224.932 329.04 227.494C329.575 230.057 329.599 232.699 329.112 235.271C328.625 237.843 327.637 240.293 326.203 242.483C324.769 244.673 322.917 246.559 320.754 248.033C318.592 249.507 316.16 250.541 313.597 251.076C311.035 251.61 308.392 251.634 305.82 251.148C303.249 250.661 300.798 249.672 298.608 248.238L296.379 251.641Z" fill="#1E1E1E"/>
<path d="M319.69 212.999C322.327 214.726 325.278 215.916 328.374 216.502C331.471 217.089 334.653 217.059 337.738 216.416C340.824 215.772 343.752 214.528 346.356 212.752C348.96 210.977 351.19 208.706 352.916 206.07L349.513 203.841C348.079 206.031 346.228 207.917 344.065 209.391C341.902 210.865 339.47 211.899 336.908 212.434C334.345 212.968 331.703 212.992 329.131 212.505C326.559 212.019 324.108 211.03 321.919 209.596L319.69 212.999Z" fill="#1E1E1E"/>
<path d="M304.295 281.675C306.022 279.038 307.212 276.087 307.799 272.99C308.385 269.894 308.355 266.712 307.712 263.626C307.068 260.541 305.824 257.613 304.048 255.008C302.273 252.404 300.003 250.175 297.366 248.448L295.137 251.851C297.327 253.285 299.213 255.137 300.687 257.3C302.161 259.462 303.195 261.894 303.73 264.457C304.264 267.019 304.288 269.662 303.802 272.234C303.315 274.805 302.326 277.256 300.892 279.446L304.295 281.675Z" fill="#1E1E1E"/>
<path d="M358.833 237.137C361.955 239.182 365.511 240.47 369.219 240.9C372.926 241.329 376.683 240.888 380.19 239.612L378.799 235.789C375.886 236.849 372.766 237.216 369.687 236.859C366.608 236.502 363.654 235.432 361.061 233.734L358.833 237.137Z" fill="#1E1E1E"/>
<path d="M346.173 292.694C345.85 289.074 344.71 285.575 342.838 282.461C340.967 279.346 338.412 276.697 335.367 274.714L333.147 278.122C335.675 279.77 337.797 281.969 339.352 284.556C340.906 287.143 341.853 290.049 342.121 293.055L346.173 292.694Z" fill="#1E1E1E"/>
<path d="M290.618 218.415C293.254 220.141 296.205 221.332 299.302 221.918C302.399 222.504 305.581 222.475 308.666 221.832C311.751 221.188 314.68 219.943 317.284 218.168C319.888 216.393 322.117 214.122 323.844 211.486C325.571 208.849 326.761 205.898 327.347 202.801C327.934 199.705 327.904 196.523 327.261 193.437C326.617 190.352 325.372 187.424 323.597 184.819C321.822 182.215 319.551 179.986 316.915 178.259L314.686 181.662C316.876 183.096 318.762 184.948 320.236 187.111C321.71 189.273 322.744 191.705 323.278 194.268C323.813 196.83 323.837 199.473 323.35 202.045C322.864 204.616 321.875 207.067 320.441 209.257C319.007 211.447 317.156 213.332 314.993 214.807C312.83 216.281 310.398 217.315 307.835 217.849C305.273 218.384 302.63 218.408 300.059 217.921C297.487 217.434 295.036 216.446 292.846 215.012L290.618 218.415Z" fill="#1E1E1E"/>
</svg>
