<svg width="152" height="157" viewBox="0 0 152 157" fill="none" xmlns="http://www.w3.org/2000/svg">
<path d="M113.662 147.93C128.127 141.004 133.661 121.588 126.022 104.564C118.384 87.5402 100.466 79.3557 86.0014 86.2829C71.5369 93.21 66.0031 112.626 73.6414 129.649C81.2796 146.673 99.1973 154.857 113.662 147.93Z" fill="white"/>
<path d="M103.358 144.5C93.3601 144.5 84.0148 137.271 79.3798 127.117C72.9306 112.989 77.0167 96.9268 88.4896 91.3077C91.0061 90.1182 93.7256 89.4559 96.4911 89.36C99.2567 89.2641 102.013 89.7367 104.601 90.7492C111.555 93.3232 117.53 99.1482 120.995 106.739C129.292 124.913 119.972 144.5 103.358 144.5ZM80.1242 126.757C86.0887 139.816 99.9573 147.451 111.532 141.781C122.595 136.361 126.508 120.806 120.25 107.101C114.286 94.0416 100.417 86.4061 88.8422 92.0767C77.7792 97.4962 73.8668 113.052 80.1242 126.757Z" fill="black"/>
<path d="M126.294 104.143C118.706 87.5184 101.015 78.9361 86.2315 85.7049C83.8004 86.7423 81.287 88.0129 80.6913 88.367C67.2342 96.3581 61.4388 115.667 68.9979 132.231C76.2391 148.088 92.3349 155.36 106.238 151.425C108.916 150.567 111.525 149.492 114.04 148.211C128.625 141.065 134.125 121.299 126.294 104.143ZM111.509 148.381C86.5373 155.947 65.6804 129.654 71.6366 105.458C76.079 88.3366 91.4803 80.475 106.355 85.9756C114.564 89.0105 121.561 95.7653 125.55 104.506C133.532 121.995 127.356 142.44 111.509 148.381Z" fill="black"/>
<path d="M69.9037 107.866L67.8569 108.972C67.8388 108.98 67.8186 108.983 67.7987 108.981C67.7789 108.979 67.76 108.971 67.7444 108.957C67.7288 108.945 67.7168 108.928 67.71 108.908C67.7032 108.889 67.7018 108.868 67.7059 108.847C67.8237 108.339 67.9525 107.833 68.0924 107.328C68.1717 107.231 67.9362 107.384 70.1015 106.201C70.1196 106.192 70.1397 106.188 70.1596 106.191C70.1796 106.193 70.1984 106.201 70.2141 106.214C70.2298 106.227 70.2418 106.244 70.2486 106.263C70.2554 106.283 70.2567 106.304 70.2525 106.324C69.9158 107.865 69.986 107.823 69.9037 107.866Z" fill="white"/>
<path d="M69.5237 109.455C69.5411 109.446 69.5607 109.442 69.5802 109.443C69.5998 109.444 69.6187 109.451 69.6347 109.463C69.6507 109.475 69.6634 109.49 69.6712 109.509C69.6791 109.528 69.6819 109.548 69.6792 109.568C69.5003 111.01 69.5645 110.993 69.4723 111.041L67.2625 112.239C67.245 112.248 67.2255 112.252 67.2059 112.251C67.1864 112.25 67.1675 112.243 67.1515 112.231C67.1355 112.219 67.1228 112.204 67.1149 112.185C67.1071 112.166 67.1043 112.146 67.1069 112.126C67.1726 111.648 67.2481 111.171 67.3289 110.695C67.3425 110.617 67.2217 110.716 69.5237 109.455Z" fill="white"/>
<path d="M69.2597 112.549C69.2764 112.541 69.2951 112.537 69.3138 112.538C69.3324 112.538 69.3506 112.545 69.3663 112.555C69.382 112.566 69.3948 112.581 69.4034 112.598C69.412 112.615 69.4161 112.634 69.4153 112.653C69.3549 114.037 69.4198 114.021 69.3239 114.07L66.9872 115.336C66.9704 115.345 66.9518 115.35 66.933 115.349C66.9142 115.347 66.896 115.342 66.8802 115.331C66.8643 115.321 66.8514 115.306 66.8426 115.29C66.8338 115.272 66.8295 115.253 66.8301 115.233C66.849 114.78 66.8762 114.327 66.9177 113.875C66.9253 113.786 66.7803 113.875 69.2597 112.549Z" fill="white"/>
<path d="M69.2468 115.502C69.2628 115.494 69.2806 115.49 69.2986 115.49C69.3167 115.491 69.3343 115.495 69.3498 115.506C69.3654 115.515 69.3783 115.528 69.3875 115.544C69.3967 115.56 69.4018 115.578 69.4023 115.597C69.4385 116.896 69.5216 116.91 69.4114 116.97L66.9765 118.29C66.9603 118.299 66.9424 118.303 66.9242 118.303C66.9062 118.302 66.8885 118.296 66.8728 118.287C66.8571 118.278 66.844 118.264 66.8345 118.249C66.825 118.232 66.8196 118.215 66.8187 118.196C66.8011 117.764 66.7923 117.332 66.7923 116.9C66.79 116.804 66.6571 116.889 69.2468 115.502Z" fill="white"/>
<path d="M69.4542 118.338C69.4697 118.329 69.487 118.325 69.5045 118.325C69.5221 118.325 69.5392 118.33 69.5546 118.339C69.57 118.347 69.5831 118.36 69.5927 118.374C69.6023 118.39 69.6082 118.407 69.6098 118.425C69.6226 118.559 69.7004 119.222 69.7608 119.645C69.7766 119.753 69.9073 119.665 67.1938 121.118C67.1783 121.126 67.1612 121.13 67.1437 121.13C67.1263 121.13 67.1091 121.126 67.0937 121.118C67.0783 121.109 67.0651 121.097 67.0552 121.083C67.0452 121.068 67.0389 121.051 67.0367 121.033C66.9864 120.617 66.9446 120.203 66.9114 119.791C66.9084 119.684 66.78 119.81 69.4542 118.338Z" fill="white"/>
<path d="M69.8545 121.068C69.8691 121.06 69.8853 121.056 69.9017 121.056C69.9181 121.056 69.9343 121.06 69.949 121.068C69.9637 121.075 69.9765 121.086 69.9862 121.1C69.9961 121.113 70.0026 121.129 70.0055 121.146C70.2169 122.348 70.3075 122.374 70.1867 122.443L67.6197 123.833C67.6048 123.841 67.5883 123.845 67.5714 123.845C67.5546 123.846 67.5379 123.842 67.5227 123.834C67.5076 123.827 67.4944 123.816 67.4842 123.802C67.474 123.788 67.4672 123.772 67.4642 123.755C67.3887 123.358 67.3132 122.961 67.249 122.561C67.2354 122.444 67.1169 122.555 69.8545 121.068Z" fill="white"/>
<path d="M81.2707 142.289C79.1876 144.047 79.2737 144.012 79.177 143.927C78.8833 143.678 78.5919 143.423 78.308 143.162C78.296 143.152 78.2861 143.139 78.2793 143.124C78.2733 143.109 78.2695 143.093 78.2695 143.077C78.2695 143.061 78.2733 143.045 78.2793 143.03C78.2861 143.015 78.296 143.002 78.308 142.992C80.4288 141.198 80.3548 141.221 80.4515 141.32C81.251 142.135 81.4111 142.171 81.2707 142.289Z" fill="white"/>
<path d="M83.2274 144.004C81.2425 145.635 81.3543 145.626 81.2592 145.559C80.9398 145.331 80.6265 145.091 80.3169 144.857C80.3041 144.847 80.2935 144.834 80.2867 144.818C80.2792 144.803 80.2754 144.786 80.2754 144.77C80.2754 144.752 80.2792 144.735 80.2867 144.72C80.2935 144.705 80.3041 144.692 80.3169 144.681C82.329 142.972 82.2497 143.01 82.3456 143.092C82.6385 143.343 82.9337 143.591 83.2312 143.835C83.2433 143.845 83.2531 143.859 83.2592 143.873C83.2659 143.888 83.269 143.905 83.269 143.921C83.2682 143.937 83.2644 143.953 83.2576 143.968C83.2501 143.982 83.2403 143.994 83.2274 144.004Z" fill="white"/>
<path d="M85.3457 145.59C83.5164 147.15 83.6092 147.091 83.5156 147.035C83.1721 146.828 82.8301 146.618 82.4926 146.4C82.4782 146.39 82.4662 146.377 82.4571 146.362C82.4488 146.347 82.4435 146.33 82.442 146.312C82.4413 146.295 82.4443 146.277 82.4511 146.26C82.4579 146.245 82.4684 146.23 82.482 146.219C84.3786 144.626 84.2865 144.659 84.3801 144.729C84.6942 144.963 85.0135 145.193 85.3374 145.413C85.351 145.422 85.3631 145.436 85.3714 145.451C85.3797 145.465 85.3842 145.483 85.385 145.5C85.3857 145.517 85.3827 145.534 85.3759 145.55C85.3691 145.565 85.3586 145.579 85.3457 145.59Z" fill="white"/>
<path d="M87.6406 147.032C85.9682 148.442 86.0551 148.399 85.9682 148.358C85.7916 148.272 85.0502 147.898 84.8569 147.794C84.841 147.786 84.8274 147.773 84.8176 147.758C84.8078 147.743 84.8018 147.725 84.8003 147.707C84.7987 147.688 84.801 147.67 84.8078 147.653C84.8146 147.636 84.8259 147.621 84.8395 147.61C86.5919 146.154 86.5005 146.175 86.5888 146.232C86.9293 146.447 87.2751 146.652 87.6247 146.85C87.6398 146.858 87.6526 146.871 87.6625 146.886C87.6723 146.901 87.6776 146.918 87.6798 146.936C87.6813 146.954 87.6783 146.972 87.6715 146.989C87.6647 147.006 87.6542 147.02 87.6406 147.032Z" fill="white"/>
<path d="M90.2574 148.194C88.6206 149.571 88.7187 149.52 88.6372 149.488C88.231 149.34 87.8255 149.176 87.4246 149.011C87.4073 149.003 87.3922 148.992 87.3809 148.977C87.3695 148.961 87.362 148.943 87.3597 148.925C87.3567 148.906 87.359 148.886 87.3657 148.868C87.3718 148.851 87.3831 148.835 87.3975 148.822C88.9875 147.496 88.8893 147.535 88.9769 147.579C89.399 147.79 89.8263 148 90.2574 148.194Z" fill="white"/>
<path d="M92.8306 149.401C91.6121 150.437 91.6475 150.42 91.5713 150.401C91.1228 150.292 90.6781 150.167 90.2349 150.028C90.2161 150.022 90.1995 150.011 90.1866 149.996C90.173 149.981 90.1647 149.963 90.161 149.943C90.1572 149.923 90.1579 149.903 90.1647 149.884C90.1715 149.865 90.1828 149.848 90.1979 149.836C91.5569 148.697 91.489 148.721 91.5713 148.755C91.9767 148.918 92.3852 149.067 92.7967 149.211C92.8148 149.217 92.8314 149.228 92.8442 149.243C92.8563 149.258 92.8654 149.276 92.8684 149.296C92.8722 149.315 92.8706 149.335 92.8639 149.354C92.8571 149.372 92.8457 149.389 92.8306 149.401Z" fill="white"/>
<path d="M107.485 110.714C108.647 108.873 108.909 106.846 107.499 103.667C105.687 99.5787 102.42 97.2333 97.8962 98.8206L95.8117 99.6006L94.3326 95.9424L91.2553 97.0757L92.695 100.763L90.7366 101.494L89.321 97.7871L86.2028 98.9352L87.5792 102.672L85.1851 103.565L86.9918 108.62L89.4032 107.703L97.0371 128.464L94.4572 129.517L96.6467 135.65C97.5859 135.26 98.464 134.892 99.2892 134.552L101.026 139.267L104.568 137.767L102.786 133.099C103.582 132.772 104.303 132.475 104.958 132.203L106.77 136.835L110.269 135.353L108.412 130.763C111.523 129.437 112.036 129.11 113.047 128.261C115.892 125.873 116.026 120.973 114.086 116.628C112.525 113.137 110.283 110.969 107.485 110.714ZM93.7739 106.043C98.6301 104.196 99.6969 103.643 101.22 103.731C102.167 103.865 102.926 104.607 103.499 105.957C104.022 107.192 104.096 108.171 103.714 108.89C103.261 109.673 102.548 110.26 101.707 110.539L96.3236 112.634L93.7739 106.043ZM107.325 124.259L101.71 126.555L98.3221 117.796L103.862 115.601C106.203 114.722 107.96 115.223 109.172 118.07C110.675 121.598 109.664 123.302 107.325 124.259Z" fill="#FFD997"/>
<path d="M101.025 139.69C100.941 139.69 100.86 139.664 100.791 139.615C100.722 139.566 100.669 139.497 100.64 139.416L99.0544 135.105C98.3432 135.399 97.5942 135.712 96.8015 136.041C96.7502 136.062 96.6958 136.073 96.6407 136.073C96.5856 136.072 96.5312 136.059 96.4814 136.036C96.4308 136.013 96.3855 135.98 96.3477 135.938C96.31 135.897 96.2805 135.848 96.2617 135.795L94.0722 129.663C94.0344 129.558 94.0374 129.442 94.082 129.34C94.1258 129.237 94.2066 129.157 94.3077 129.117L96.5101 128.217L89.1632 108.248L87.1345 109.02C87.0839 109.039 87.0295 109.048 86.9759 109.046C86.9216 109.044 86.8687 109.031 86.8196 109.007C86.7706 108.984 86.726 108.95 86.6898 108.91C86.6528 108.869 86.6248 108.82 86.606 108.768C84.6528 103.287 84.7087 103.614 84.8113 103.386C84.908 103.171 84.8498 103.238 87.0446 102.42C85.7294 98.8471 85.7272 98.9829 85.8283 98.7535C85.9295 98.5242 85.8374 98.6116 89.1828 97.3839C89.2832 97.3464 89.3934 97.3511 89.4908 97.3971C89.5882 97.4424 89.6637 97.525 89.703 97.628L90.9721 100.952L92.153 100.51L90.8695 97.2341C90.8491 97.1811 90.8385 97.1241 90.84 97.0664C90.8408 97.0095 90.8528 96.9525 90.8763 96.9003C90.8989 96.848 90.9314 96.8012 90.9721 96.7622C91.0129 96.7232 91.0612 96.6936 91.1133 96.6741L94.1907 95.5415C94.2896 95.5048 94.3983 95.5087 94.495 95.5524C94.5909 95.5953 94.6679 95.6757 94.7086 95.7755L96.0367 99.0593L97.752 98.4189C102.084 96.901 105.769 98.7489 107.869 103.489C109.103 106.27 109.198 108.372 108.152 110.38C114.591 111.628 118.653 124.123 113.298 128.589C112.284 129.447 111.724 129.798 108.943 130.991L110.641 135.187C110.662 135.239 110.672 135.294 110.672 135.35C110.672 135.407 110.661 135.462 110.64 135.514C110.619 135.566 110.589 135.612 110.549 135.652C110.511 135.691 110.465 135.722 110.414 135.743C106.65 137.335 106.818 137.321 106.599 137.225C106.38 137.13 106.524 137.372 104.722 132.756C104.281 132.939 103.811 133.132 103.311 133.337L104.943 137.609C104.982 137.713 104.98 137.828 104.937 137.93C104.895 138.032 104.816 138.113 104.716 138.155C100.841 139.797 101.143 139.69 101.025 139.69ZM99.2885 134.125C99.3723 134.125 99.4538 134.151 99.5225 134.201C99.5912 134.25 99.6441 134.319 99.6735 134.4L101.259 138.707L104.034 137.531L102.401 133.254C102.361 133.149 102.364 133.032 102.407 132.928C102.45 132.825 102.531 132.744 102.632 132.702C105.039 131.713 104.897 131.719 105.117 131.811C105.337 131.902 105.204 131.698 106.992 136.278L109.725 135.12L108.028 130.925C108.006 130.874 107.996 130.819 107.996 130.762C107.995 130.706 108.006 130.651 108.027 130.599C108.047 130.548 108.077 130.5 108.116 130.461C108.154 130.422 108.2 130.39 108.25 130.368C111.427 129.017 111.84 128.73 112.78 127.93C115.308 125.824 115.689 121.247 113.706 116.804C112.163 113.348 110.012 111.391 107.487 111.141C107.445 111.149 107.402 111.142 107.365 111.124C107.301 111.104 107.242 111.068 107.195 111.02C107.146 110.971 107.111 110.912 107.09 110.847C107.069 110.781 107.065 110.711 107.076 110.643C107.087 110.575 107.114 110.51 107.155 110.456C108.363 108.53 108.349 106.611 107.122 103.843C106.003 101.319 103.334 97.369 98.0246 99.2223L95.9483 100.002C95.8494 100.039 95.74 100.035 95.6441 99.9914C95.5474 99.9485 95.4704 99.8682 95.4289 99.7683L94.1001 96.4822L91.7943 97.3316C93.1609 100.829 93.1684 100.704 93.068 100.941C92.9706 101.165 93.0144 101.118 90.874 101.898C90.7736 101.936 90.6626 101.932 90.5644 101.887C90.467 101.841 90.39 101.758 90.3508 101.655L89.0816 98.33L86.7336 99.1927L87.9604 102.526C87.9801 102.579 87.9891 102.635 87.9869 102.691C87.9854 102.747 87.9725 102.803 87.9499 102.854C87.9272 102.905 87.894 102.951 87.854 102.99C87.814 103.028 87.7664 103.058 87.7151 103.076L85.7113 103.824L87.2326 108.078L89.2583 107.308C89.3602 107.27 89.4727 107.273 89.5716 107.32C89.6705 107.366 89.7475 107.451 89.7868 107.556L97.4206 128.317C97.4583 128.422 97.4553 128.537 97.4115 128.639C97.3677 128.741 97.287 128.822 97.1865 128.863L94.9812 129.763L96.8868 135.095C99.2379 134.111 99.1745 134.125 99.2915 134.125H99.2885ZM101.704 126.98C101.623 126.979 101.544 126.954 101.476 126.906C101.409 126.858 101.357 126.791 101.327 126.713L97.9378 117.954C97.9174 117.902 97.9076 117.846 97.9091 117.789C97.9098 117.733 97.9212 117.678 97.9431 117.626C97.9649 117.575 97.9967 117.528 98.0359 117.489C98.0752 117.45 98.122 117.42 98.1726 117.399C103.738 115.201 104.878 114.547 106.388 114.825C107.729 115.087 108.791 116.119 109.547 117.895C110.444 120.001 110.515 121.695 109.76 122.929C109.191 123.735 108.392 124.337 107.476 124.651C101.392 127.139 101.83 126.98 101.71 126.98H101.704ZM98.8528 118.038L101.935 126.004C107.285 123.82 108.401 123.543 109.05 122.498C109.659 121.514 109.575 120.084 108.79 118.241C107.668 115.607 106.141 115.199 103.998 116.001L98.8528 118.038ZM96.3183 113.06C96.236 113.06 96.1552 113.034 96.0873 112.986C96.0193 112.939 95.9665 112.871 95.9363 112.792L93.3874 106.202C93.367 106.149 93.3572 106.092 93.3587 106.035C93.3594 105.978 93.3715 105.922 93.3942 105.87C93.4168 105.818 93.4493 105.771 93.4893 105.732C93.5293 105.693 93.5769 105.663 93.6282 105.642C98.4534 103.805 99.6056 103.214 101.237 103.307C102.37 103.463 103.241 104.298 103.871 105.787C104.449 107.149 104.515 108.262 104.068 109.096C103.569 109.968 102.78 110.623 101.846 110.936C96.0352 113.201 96.4323 113.06 96.3236 113.06H96.3183ZM94.307 106.291L96.5501 112.09L101.556 110.14C102.304 109.896 102.94 109.379 103.347 108.685C103.664 108.093 103.587 107.234 103.121 106.127C102.613 104.928 101.954 104.263 101.163 104.152C100.296 104.142 99.4357 104.31 98.6324 104.647L94.307 106.291Z" fill="black"/>
<path d="M83.8304 68.8059C98.2947 61.8789 103.828 42.4631 96.1898 25.4396C88.5522 8.41609 70.6339 0.231258 56.1693 7.1583C41.7048 14.0854 36.1711 33.5011 43.8094 50.5246C51.4476 67.5481 69.3655 75.733 83.8304 68.8059Z" fill="white"/>
<path d="M73.5231 65.3766C63.4423 65.3766 54.1392 58.0578 49.545 47.9958C43.0951 33.8685 47.1826 17.8098 58.6549 12.1868C61.1711 10.9973 63.8908 10.3353 66.6564 10.2391C69.422 10.143 72.1786 10.6146 74.7666 11.6268C81.7201 14.2008 87.6959 20.025 91.1606 27.6168C99.4581 45.79 90.1376 65.3766 73.5231 65.3766ZM67.1849 11.0831C51.1034 11.0831 42.2917 30.1151 50.2895 47.6339C53.662 55.0213 59.4665 60.6903 66.22 63.1871C68.7061 64.1613 71.3546 64.6163 74.0121 64.5258C76.6699 64.4353 79.2837 63.801 81.702 62.6598C92.765 57.2412 96.6767 41.6848 90.4192 27.9795C85.9836 18.2692 76.9832 11.0831 67.1849 11.0831Z" fill="black"/>
<path d="M96.4619 25.0225C88.9202 8.51066 71.3113 -0.183225 56.4718 6.54895C54.0173 7.59259 51.4564 8.88896 50.8546 9.24386C37.3975 17.235 31.6021 36.5439 39.1619 53.1087C46.271 68.6775 62.2159 76.3176 76.4016 72.3022C79.0788 71.4436 81.6873 70.3704 84.203 69.0925C98.7903 61.9446 104.288 42.1778 96.4619 25.0225ZM81.6994 69.2485C56.4507 76.9252 35.8324 50.1775 41.8354 26.2112C43.8724 18.4705 48.7406 11.2625 56.1449 7.63471C70.5654 0.574935 88.1879 8.903 95.7107 25.3852C103.723 42.9328 97.4661 63.3205 81.6994 69.2485Z" fill="black"/>
<path d="M40.0671 28.7431L38.0203 29.8483C38.0022 29.8573 37.9819 29.8609 37.9619 29.8586C37.9419 29.8562 37.923 29.8481 37.9072 29.8352C37.8915 29.8222 37.8795 29.805 37.8728 29.7854C37.8661 29.7657 37.8649 29.7446 37.8693 29.7243C37.988 29.2163 38.1169 28.7098 38.2558 28.2049C38.3313 28.1074 38.0996 28.2618 40.2649 27.0778C40.283 27.0688 40.3032 27.0652 40.3233 27.0676C40.3433 27.0699 40.3622 27.078 40.378 27.091C40.3938 27.1039 40.4056 27.1211 40.4123 27.1407C40.4191 27.1604 40.4203 27.1815 40.4159 27.2018C40.0784 28.7423 40.1494 28.7002 40.0671 28.7431Z" fill="white"/>
<path d="M39.6899 30.3343C39.7074 30.325 39.7269 30.3208 39.7465 30.3221C39.766 30.3235 39.7849 30.3304 39.8009 30.3421C39.8169 30.3537 39.8296 30.3697 39.8375 30.3883C39.8453 30.4068 39.8481 30.4273 39.8455 30.4474C39.665 31.8943 39.7292 31.8725 39.6378 31.92L37.428 33.1181C37.4105 33.128 37.3907 33.1328 37.3707 33.1317C37.3508 33.1307 37.3315 33.1238 37.3152 33.1121C37.2987 33.1003 37.2859 33.0841 37.2779 33.0652C37.2699 33.0463 37.2673 33.0255 37.2702 33.005C37.3366 32.5269 37.4121 32.0503 37.4921 31.5745C37.508 31.4965 37.3872 31.5948 39.6899 30.3343Z" fill="white"/>
<path d="M39.4248 33.4285C39.4414 33.4196 39.46 33.4154 39.4787 33.4162C39.4975 33.4171 39.5157 33.423 39.5314 33.4335C39.5472 33.4439 39.5601 33.4585 39.5686 33.4757C39.5772 33.4929 39.5813 33.5122 39.5803 33.5315C39.5199 34.9199 39.5803 34.9004 39.4889 34.9495L37.153 36.2155C37.1361 36.2243 37.1174 36.2284 37.0985 36.2275C37.0797 36.2265 37.0614 36.2205 37.0455 36.21C37.0296 36.1996 37.0165 36.185 37.0077 36.1677C36.9989 36.1505 36.9946 36.1312 36.9952 36.1117C37.0148 35.6593 37.0412 35.2062 37.0828 34.7538C37.0911 34.6664 36.934 34.7616 39.4248 33.4285Z" fill="white"/>
<path d="M39.4118 36.3816C39.4278 36.373 39.4456 36.3687 39.4636 36.3692C39.4817 36.3697 39.4993 36.3749 39.5148 36.3843C39.5304 36.3938 39.5433 36.4071 39.5525 36.4232C39.5617 36.4392 39.5668 36.4573 39.5673 36.476C39.6043 37.7731 39.6873 37.7895 39.5763 37.8496L37.1415 39.1693C37.1254 39.1778 37.1075 39.182 37.0894 39.1815C37.0713 39.181 37.0537 39.1758 37.038 39.1664C37.0224 39.1571 37.0093 39.1437 36.9999 39.1278C36.9905 39.1118 36.9853 39.0936 36.9844 39.0749C36.9671 38.642 36.958 38.2115 36.9572 37.7794C36.9572 37.6834 36.8229 37.7684 39.4118 36.3816Z" fill="white"/>
<path d="M39.6195 39.2185C39.635 39.2101 39.6522 39.2058 39.6697 39.2058C39.6871 39.2059 39.7042 39.2104 39.7196 39.2189C39.735 39.2275 39.7481 39.2399 39.7578 39.2548C39.7674 39.2699 39.7734 39.2871 39.7751 39.3051C39.7879 39.433 39.8649 40.0952 39.9261 40.525C39.9419 40.6342 40.0718 40.5437 37.3628 41.9984C37.3474 42.0067 37.3301 42.011 37.3127 42.011C37.2953 42.011 37.278 42.0066 37.2626 41.9982C37.2471 41.9899 37.2338 41.9779 37.2238 41.9631C37.2138 41.9483 37.2074 41.9312 37.205 41.9134C37.1575 41.4992 37.1144 41.0858 37.0797 40.6708C37.0737 40.5632 36.9453 40.6888 39.6195 39.2185Z" fill="white"/>
<path d="M40.0202 41.9485C40.0348 41.9409 40.051 41.937 40.0674 41.9371C40.0838 41.9371 40.0999 41.941 40.1146 41.9486C40.1291 41.9561 40.1419 41.9671 40.1518 41.9806C40.1616 41.9942 40.1682 42.0099 40.1712 42.0265C40.3818 43.2277 40.4694 43.2558 40.3516 43.3244L37.7846 44.7144C37.7698 44.7223 37.7532 44.7265 37.7365 44.7268C37.7197 44.727 37.7031 44.7232 37.688 44.7156C37.6729 44.7081 37.6597 44.6969 37.6495 44.6832C37.6393 44.6694 37.6323 44.6534 37.6291 44.6364C37.5536 44.2386 37.4781 43.8416 37.4147 43.4422C37.4003 43.3236 37.2833 43.436 40.0202 41.9485Z" fill="white"/>
<path d="M51.4358 63.1684C49.3528 64.9265 49.4396 64.8914 49.343 64.8064C49.0485 64.5576 48.7571 64.3025 48.4732 64.0412C48.4615 64.0304 48.4522 64.0172 48.446 64.0024C48.4397 63.9875 48.4367 63.9715 48.437 63.9553C48.4373 63.9391 48.4411 63.9232 48.4481 63.9087C48.4549 63.8942 48.4648 63.8814 48.477 63.8712C50.597 62.0772 50.523 62.0998 50.6197 62.1989C51.4162 63.014 51.5763 63.0498 51.4358 63.1684Z" fill="white"/>
<path d="M53.3912 64.8805C51.4056 66.5099 51.5181 66.5021 51.423 66.435C51.1036 66.2073 50.7903 65.967 50.4807 65.733C50.4677 65.7229 50.4569 65.7098 50.4495 65.6947C50.442 65.6797 50.4379 65.6631 50.4375 65.6462C50.4372 65.6293 50.4405 65.6125 50.4473 65.5971C50.4541 65.5818 50.4643 65.5682 50.4769 65.5575C52.4883 63.8462 52.4097 63.886 52.5056 63.9679C52.7986 64.219 53.0938 64.4665 53.3912 64.7104C53.4035 64.7207 53.4134 64.7336 53.4202 64.7483C53.4271 64.763 53.4306 64.7792 53.4306 64.7955C53.4306 64.8118 53.4271 64.8278 53.4202 64.8426C53.4134 64.8573 53.4035 64.8703 53.3912 64.8805Z" fill="white"/>
<path d="M55.5112 66.4693C53.6819 68.0293 53.7747 67.9701 53.6811 67.9147C53.3368 67.7072 52.9956 67.4974 52.6573 67.279C52.6428 67.2695 52.6307 67.2565 52.622 67.2412C52.6133 67.2259 52.6081 67.2086 52.6071 67.1909C52.6061 67.1731 52.6092 67.1554 52.616 67.1391C52.6229 67.1228 52.6335 67.1085 52.6468 67.0972C54.5433 65.5053 54.4512 65.5372 54.5448 65.6082C54.8597 65.8422 55.1783 66.0723 55.5022 66.2915C55.5162 66.301 55.5278 66.3139 55.5361 66.3289C55.5445 66.3439 55.5492 66.3608 55.5501 66.3781C55.551 66.3953 55.5479 66.4126 55.5412 66.4285C55.5344 66.4443 55.5242 66.4583 55.5112 66.4693Z" fill="white"/>
<path d="M57.8057 67.9092C56.1333 69.3187 56.2202 69.2758 56.1333 69.2352C55.9567 69.1486 55.2153 68.775 55.022 68.6713C55.0063 68.6626 54.9929 68.6501 54.983 68.6348C54.9731 68.6195 54.9671 68.602 54.9654 68.5837C54.9636 68.5654 54.9663 68.5469 54.9732 68.53C54.98 68.513 54.9908 68.4981 55.0046 68.4864C56.7577 67.0317 56.6656 67.0528 56.7539 67.1097C57.0942 67.324 57.4395 67.5296 57.7898 67.7267C57.8051 67.7354 57.8181 67.748 57.8276 67.7631C57.8371 67.7783 57.843 67.7957 57.8445 67.8136C57.8461 67.8316 57.8433 67.8497 57.8366 67.8664C57.8298 67.8831 57.8192 67.8978 57.8057 67.9092Z" fill="white"/>
<path d="M60.4224 69.0722C58.7863 70.4497 58.8845 70.3982 58.8029 70.367C58.396 70.2188 57.9906 70.055 57.5897 69.8904C57.5726 69.8829 57.5576 69.871 57.5463 69.8558C57.535 69.8407 57.5277 69.8227 57.525 69.8037C57.5224 69.7847 57.5245 69.7654 57.5312 69.7475C57.5379 69.7297 57.549 69.7138 57.5632 69.7017C59.1487 68.3757 59.0544 68.4139 59.1427 68.4576C59.5647 68.6689 59.9951 68.8788 60.4224 69.0722Z" fill="white"/>
<path d="M62.9969 70.2804C61.7783 71.3155 61.813 71.2944 61.7375 71.2804C61.2891 71.1712 60.8444 71.0464 60.4012 70.9068C60.3824 70.9011 60.3656 70.8902 60.3525 70.8754C60.3393 70.8606 60.3303 70.8422 60.3264 70.8225C60.3225 70.8028 60.3239 70.7823 60.3304 70.7634C60.3369 70.7444 60.3484 70.7277 60.3634 70.7149C61.7224 69.5753 61.6545 69.6002 61.7375 69.633C62.1422 69.7968 62.5514 69.945 62.9629 70.0901C62.981 70.0964 62.9972 70.1076 63.0096 70.1225C63.0222 70.1374 63.0305 70.1555 63.034 70.175C63.0375 70.1943 63.0359 70.2143 63.0293 70.2329C63.0228 70.2514 63.0116 70.2679 62.9969 70.2804Z" fill="white"/>
<path d="M60.5542 40.9345L62.3662 16.9105L79.8822 30.6892C77.8535 34.3786 73.1914 41.9524 73.1914 41.9524C73.1914 41.9524 64.6961 41.4516 60.5542 40.9345Z" fill="#FFD997"/>
<path d="M74.4462 44.6948C74.5912 44.8836 78.8199 37.6148 80.9392 33.7998L79.3779 56.5867L61.4844 43.6387C65.47 44.1387 74.296 44.4991 74.4462 44.6948Z" fill="#FFD997"/>
<path d="M80.5803 33.5907C78.4543 37.4268 75.0824 43.1847 74.3274 44.2221C74.1274 44.2128 74.3274 44.1769 69.9628 43.893C61.6261 43.347 61.7514 43.2128 61.4577 43.2128C61.3709 43.217 61.2875 43.2497 61.2198 43.306C61.152 43.3623 61.1033 43.4393 61.0806 43.5261C61.0579 43.6128 61.0625 43.7047 61.0936 43.7886C61.1247 43.8725 61.1808 43.944 61.2538 43.9928L79.1255 56.9244C79.1851 56.9705 79.2553 56.999 79.3293 57.0072C79.4033 57.0154 79.478 57.0029 79.5452 56.971C79.6132 56.939 79.6713 56.889 79.7136 56.8259C79.7559 56.7628 79.7808 56.689 79.7861 56.6124L81.3474 33.8255C81.3519 33.7302 81.3255 33.6361 81.2727 33.5581C81.2191 33.4802 81.1421 33.4231 81.0537 33.3961C80.9646 33.369 80.8703 33.3734 80.7842 33.4087C80.6981 33.444 80.6264 33.5081 80.5803 33.5907ZM74.0284 45.0443L78.4074 55.373L63.0153 44.2331C66.9413 44.6004 72.4935 44.8641 74.0284 45.0443ZM79.0817 54.8348L74.859 44.8828C75.6759 43.914 79.7664 36.7295 80.3999 35.607L79.0817 54.8348Z" fill="black"/>
<path d="M80.0875 30.3163L62.6425 16.5907C62.6017 16.5534 62.5542 16.5248 62.5027 16.5065C62.4513 16.4883 62.3967 16.4807 62.3425 16.4844C62.2881 16.4879 62.235 16.5027 62.1863 16.5276C62.1374 16.5525 62.0939 16.5872 62.0581 16.6297C61.9169 16.8005 62.0143 16.6445 60.145 40.8986C60.1362 41.0077 60.1687 41.1161 60.2358 41.2009C60.3028 41.2857 60.3991 41.3404 60.5043 41.3533C64.0657 41.8026 72.8108 42.3736 73.1883 42.3736C73.2576 42.374 73.3258 42.3563 73.3865 42.3221C73.4473 42.2878 73.4986 42.2382 73.5356 42.1778C73.5824 42.0998 78.2265 34.5541 80.237 30.8982C80.2914 30.8004 80.3057 30.6845 80.2778 30.5755C80.2499 30.4666 80.1819 30.3735 80.0875 30.3163ZM73.2397 41.0717L68.539 30.0472L79.2049 31.0472C77.4594 34.1555 74.3405 39.2746 73.2397 41.0717ZM62.6591 18.5087C63.4715 20.3401 65.0494 23.9952 67.3824 29.4474L61.088 39.3199L62.6591 18.5087ZM67.7773 30.3702L72.5149 41.4805C70.5292 41.3572 64.7693 40.9844 61.2654 40.5866L67.7773 30.3702ZM68.1585 29.1588C65.5274 23.0085 64.1789 19.8987 63.4775 18.3168L78.493 30.1268L68.1585 29.1588Z" fill="black"/>
<path d="M137.572 12.5932H134.643V6.84847C134.643 6.73572 134.6 6.6276 134.523 6.54787C134.446 6.46816 134.341 6.42337 134.232 6.42337C134.122 6.42337 134.018 6.46816 133.941 6.54787C133.863 6.6276 133.82 6.73572 133.82 6.84847V12.5963H130.89C130.78 12.5963 130.676 12.6411 130.599 12.7208C130.521 12.8005 130.478 12.9087 130.478 13.0214C130.478 13.1341 130.521 13.2423 130.599 13.322C130.676 13.4017 130.78 13.4465 130.89 13.4465H133.818V19.1927C133.818 19.3055 133.861 19.4136 133.939 19.4934C134.016 19.5731 134.12 19.6178 134.23 19.6178C134.339 19.6178 134.443 19.5731 134.52 19.4934C134.598 19.4136 134.641 19.3055 134.641 19.1927V13.4434H137.57C137.679 13.4434 137.783 13.3986 137.86 13.3189C137.938 13.2392 137.981 13.131 137.981 13.0183C137.981 12.9056 137.938 12.7974 137.86 12.7177C137.783 12.6379 137.679 12.5932 137.57 12.5932H137.572Z" fill="black"/>
<path d="M25.9869 130.294C29.1126 133.045 29.0069 133.024 29.1579 132.985L32.9722 131.971C33.0088 131.962 33.0472 131.963 33.0832 131.975C33.1192 131.987 33.1513 132.009 33.176 132.038C33.2006 132.067 33.2168 132.104 33.2229 132.142C33.2289 132.18 33.2244 132.22 33.21 132.256C31.6147 136.229 31.6321 136.07 31.7144 136.206L33.8284 139.638C33.8486 139.671 33.8595 139.709 33.8598 139.748C33.8602 139.787 33.8501 139.825 33.8306 139.859C33.8111 139.892 33.7829 139.92 33.7493 139.937C33.7157 139.955 33.678 139.962 33.6404 139.959C29.4833 139.602 29.6389 139.587 29.5422 139.71L27.0341 142.845C27.01 142.874 26.9782 142.897 26.9424 142.909C26.9066 142.922 26.8682 142.924 26.8313 142.915C26.7946 142.906 26.7608 142.887 26.7339 142.859C26.7071 142.832 26.6882 142.798 26.6793 142.76C25.7053 138.47 25.7823 138.711 25.6419 138.656L21.9794 137.161C21.9443 137.146 21.9139 137.122 21.8914 137.091C21.8689 137.059 21.8554 137.022 21.8522 136.983C21.8492 136.944 21.8566 136.905 21.8736 136.87C21.8908 136.835 21.917 136.806 21.9492 136.786C25.5135 134.547 25.3973 134.657 25.4056 134.498L25.651 130.437C25.6538 130.398 25.667 130.361 25.6891 130.329C25.7112 130.297 25.7414 130.273 25.7763 130.259C25.8112 130.244 25.8493 130.239 25.8865 130.245C25.9237 130.251 25.9585 130.269 25.9869 130.294Z" fill="white"/>
<path d="M34.0721 139.48L31.9852 136.083L33.4809 132.368C33.5155 132.281 33.5261 132.186 33.5114 132.093C33.4967 132 33.4574 131.914 33.3978 131.843C33.3381 131.772 33.2606 131.719 33.1738 131.691C33.087 131.663 32.9944 131.661 32.9063 131.684L29.1313 132.686L26.174 130.069C26.1048 130.008 26.0204 129.968 25.9304 129.954C25.8404 129.939 25.7483 129.95 25.6643 129.987C25.5803 130.024 25.5079 130.084 25.4552 130.16C25.4024 130.237 25.3713 130.328 25.3654 130.422L25.1223 134.438L21.8003 136.536C21.7226 136.585 21.6597 136.655 21.6186 136.74C21.5775 136.823 21.5599 136.917 21.5677 137.011C21.5756 137.105 21.6086 137.194 21.663 137.27C21.7174 137.345 21.7911 137.403 21.8758 137.438L25.4998 138.92L26.4058 142.832C26.4271 142.923 26.4726 143.007 26.5373 143.073C26.6021 143.139 26.6834 143.186 26.7721 143.207C26.8609 143.228 26.9536 143.224 27.0399 143.193C27.1261 143.163 27.2025 143.108 27.2604 143.036L29.7421 139.934L33.6243 140.256C33.7149 140.263 33.8054 140.243 33.8859 140.2C33.9663 140.157 34.0335 140.091 34.08 140.01C34.1264 139.93 34.1503 139.838 34.1488 139.744C34.1475 139.65 34.1209 139.558 34.0721 139.48ZM29.7391 139.342C29.6607 139.335 29.5818 139.348 29.5091 139.379C29.4366 139.41 29.3725 139.46 29.3223 139.523L26.9199 142.526L26.0449 138.735C26.0263 138.656 25.9897 138.583 25.9381 138.521C25.8864 138.46 25.8213 138.412 25.7482 138.382L22.2397 136.952L25.4567 134.921C25.5235 134.878 25.5794 134.819 25.6198 134.749C25.6603 134.68 25.6841 134.601 25.6893 134.52L25.9248 130.631L28.7938 133.165C28.8539 133.217 28.9252 133.254 29.0017 133.272C29.0782 133.29 29.1578 133.29 29.234 133.27L32.8875 132.3L31.4401 135.899C31.4095 135.974 31.3971 136.056 31.404 136.137C31.4108 136.219 31.4367 136.298 31.4794 136.367L33.4952 139.652L29.7391 139.342Z" fill="black"/>
<path d="M17.4006 28.2516C18.5233 30.6267 18.4349 30.5012 18.5255 30.5136L20.857 30.8958C20.8794 30.8994 20.9003 30.9094 20.9175 30.9246C20.9347 30.9398 20.9474 30.9597 20.9542 30.982C20.9611 31.0043 20.9617 31.0282 20.9562 31.0508C20.9506 31.0735 20.939 31.0941 20.9227 31.1103C19.0805 32.9582 19.1771 32.8217 19.1862 32.916L19.5546 35.3262C19.5584 35.3493 19.5558 35.373 19.5472 35.3947C19.5386 35.4164 19.5243 35.4351 19.5059 35.4489C19.4876 35.4625 19.4658 35.4707 19.4432 35.4723C19.4206 35.474 19.398 35.469 19.3779 35.4581C17.2005 34.2623 17.2639 34.2639 17.1809 34.3115L15.0767 35.4191C15.0565 35.4295 15.0338 35.434 15.0112 35.4319C14.9887 35.4298 14.9671 35.4213 14.9489 35.4074C14.9308 35.3933 14.9167 35.3744 14.9083 35.3527C14.9 35.3309 14.8976 35.3072 14.9015 35.2841C15.3311 32.7803 15.3545 32.849 15.279 32.7702L13.6097 31.0456C13.5937 31.0291 13.5823 31.0082 13.577 30.9854C13.5718 30.9625 13.5728 30.9387 13.5801 30.9164C13.5873 30.8941 13.6004 30.8744 13.618 30.8595C13.6355 30.8445 13.6567 30.835 13.6792 30.8319C16.1707 30.4661 16.0665 30.5097 16.1088 30.4232L17.1801 28.2493C17.1903 28.2279 17.2062 28.21 17.2258 28.1976C17.2454 28.1851 17.2681 28.1786 17.2911 28.1789C17.3141 28.1791 17.3366 28.186 17.356 28.1989C17.3754 28.2118 17.3909 28.2301 17.4006 28.2516Z" fill="#FFD997"/>
<path d="M20.9028 30.6026L18.656 30.2344L17.6579 28.1222C17.6244 28.052 17.5727 27.9928 17.5085 27.9512C17.4443 27.9096 17.3702 27.8873 17.2945 27.8868C17.2187 27.8862 17.1443 27.9074 17.0795 27.948C17.0148 27.9887 16.9623 28.0471 16.9278 28.1167L15.8934 30.2103L13.6413 30.5379C13.5661 30.5489 13.4953 30.5813 13.437 30.6315C13.3786 30.6817 13.3349 30.7477 13.3108 30.8221C13.2866 30.8965 13.283 30.9764 13.3003 31.0527C13.3176 31.1292 13.3552 31.1991 13.4087 31.2547L15.0169 32.9161L14.6197 35.2319C14.6067 35.309 14.6147 35.3884 14.6428 35.4611C14.6708 35.5338 14.718 35.5969 14.7789 35.6436C14.8397 35.6902 14.912 35.7184 14.9875 35.725C15.063 35.7316 15.1388 35.7165 15.2064 35.6812L17.2358 34.6165C19.4291 35.8208 19.2962 35.7701 19.4359 35.7701C19.4952 35.7702 19.5539 35.7569 19.6078 35.7313C19.6617 35.7057 19.7096 35.6684 19.7482 35.6218C19.7868 35.5752 19.8152 35.5206 19.8314 35.4617C19.8476 35.4027 19.8513 35.3408 19.8421 35.2803L19.4857 32.959L21.1233 31.321C21.1771 31.2662 21.2153 31.1972 21.2334 31.1214C21.2516 31.0457 21.2492 30.9663 21.2263 30.892C21.2035 30.8176 21.1612 30.7512 21.1041 30.7001C21.0471 30.6491 20.9774 30.6153 20.9028 30.6026ZM18.9029 32.9629L19.2215 35.0361C17.2698 33.9652 17.3747 34.0011 17.2358 34.0011C17.0969 34.0011 17.2222 33.9527 15.2388 34.9971L15.5914 32.9309C15.603 32.8642 15.5987 32.7956 15.5792 32.7311C15.5596 32.6664 15.5252 32.6076 15.4789 32.5596L14.0444 31.0776L16.0573 30.7859C16.122 30.7762 16.1834 30.7507 16.2366 30.7115C16.2898 30.6722 16.3331 30.6205 16.363 30.5605L17.2864 28.6885L18.1773 30.5753C18.2054 30.6368 18.2476 30.6902 18.3002 30.731C18.3528 30.7718 18.4144 30.7986 18.4793 30.8093L20.4868 31.1385C18.9066 32.7086 18.8576 32.6743 18.9029 32.9629Z" fill="black"/>
<path d="M132.642 84.6144C136.231 60.5748 128.284 42.4266 110.913 34.2132C108.956 36.8294 107.184 39.5872 105.609 42.4656C121.173 48.0433 129.425 65.1636 128.716 84.4756L123.649 84.8827L129.905 96.0274L137.887 84.4374L132.642 84.6144Z" fill="#81F8F8"/>
<path d="M129.579 96.2224L123.323 85.077C123.292 85.0201 123.275 84.9561 123.273 84.8906C123.273 84.8251 123.288 84.7603 123.317 84.7018C123.347 84.6441 123.39 84.595 123.443 84.5583C123.496 84.5224 123.557 84.5006 123.62 84.4951L128.352 84.1145C128.907 66.3305 121.61 48.5956 105.485 42.8322C105.434 42.8136 105.388 42.7839 105.349 42.7453C105.311 42.7067 105.28 42.66 105.261 42.6083C105.24 42.5565 105.232 42.501 105.234 42.4455C105.237 42.3899 105.251 42.3356 105.276 42.2862C106.864 39.3811 108.652 36.5986 110.629 33.9605C110.682 33.8973 110.753 33.8535 110.833 33.8355C110.912 33.8176 110.994 33.8264 111.068 33.8606C130.21 42.9203 136.175 62.6965 133.079 84.2104L137.874 84.0497C137.943 84.0482 138.013 84.0661 138.073 84.1028C138.133 84.1387 138.182 84.1917 138.216 84.2549C138.248 84.3188 138.264 84.3906 138.259 84.4624C138.256 84.5341 138.232 84.6035 138.192 84.6628L130.21 96.2536C130.173 96.3059 130.125 96.348 130.068 96.3761C130.012 96.4042 129.949 96.4174 129.887 96.4143C129.824 96.4112 129.763 96.3925 129.709 96.3589C129.655 96.3254 129.611 96.2786 129.579 96.2224ZM124.273 85.2244L129.936 95.3122L137.141 84.8485C132.299 85.0115 132.525 85.063 132.359 84.8687C132.323 84.8258 132.296 84.7759 132.281 84.7213C132.265 84.6667 132.262 84.609 132.27 84.5528C135.535 63.3524 129.708 43.6808 111.017 34.689C109.245 37.1036 107.619 39.6289 106.147 42.2503C122.514 48.3819 129.745 66.5161 129.091 84.4897C129.088 84.5848 129.051 84.6761 128.987 84.7439C128.922 84.8126 128.836 84.8547 128.743 84.8609L124.273 85.2244Z" fill="black"/>
<path d="M31.7659 74.1671C27.0661 101.918 39.4065 118.373 55.0751 126.755C56.0905 125.039 58.8712 118.005 59.8444 116.225C42.6983 109.549 34.3563 92.852 36.12 74.7357L41.7984 74.8137L35.9358 61.7542L25.9102 73.8106L31.7659 74.1671Z" fill="#81F8F8"/>
<path d="M55.0782 127.184C55.0104 127.186 54.9431 127.171 54.8819 127.141C36.4871 117.339 27.2557 99.1997 31.2723 74.5688L25.8877 74.2412C25.8098 74.2361 25.7348 74.2088 25.6711 74.1621C25.6074 74.1156 25.5575 74.0515 25.527 73.9773C25.4966 73.9031 25.4867 73.8215 25.4985 73.7418C25.5103 73.6621 25.5434 73.5873 25.594 73.526L35.6196 61.4734C35.6653 61.4182 35.7237 61.3757 35.7894 61.3499C35.855 61.3241 35.926 61.3158 35.9956 61.3258C36.0653 61.3357 36.1314 61.3636 36.1878 61.4068C36.2443 61.4501 36.2893 61.5073 36.3188 61.5732L42.1813 74.6304C42.211 74.6969 42.224 74.77 42.2189 74.843C42.2139 74.916 42.1911 74.9865 42.1526 75.048C42.1141 75.1094 42.0611 75.1597 41.9987 75.1944C41.9363 75.2289 41.8663 75.2466 41.7955 75.2459L36.503 75.1718C34.9084 93.0221 43.2346 109.303 59.9956 115.814C60.0522 115.836 60.1035 115.871 60.1461 115.915C60.1887 115.959 60.2215 116.013 60.2422 116.071C60.263 116.13 60.2711 116.192 60.2662 116.254C60.2613 116.317 60.2434 116.377 60.2138 116.431C59.7736 117.24 58.9454 119.161 58.0703 121.202C55.5411 127.082 55.4316 127.184 55.0782 127.184ZM26.7801 73.4331C32.1814 73.7584 31.9277 73.6804 32.0953 73.9011C32.132 73.9491 32.1583 74.0046 32.1728 74.0639C32.1872 74.1231 32.1894 74.1849 32.1791 74.2451C27.9715 98.5811 37.0164 116.438 54.9106 126.181C55.9208 124.254 58.2409 118.508 59.2504 116.457C42.3036 109.627 33.9314 92.9519 35.7034 74.696C35.7139 74.5892 35.7623 74.4903 35.8393 74.4182C35.9163 74.3462 36.0164 74.3062 36.1202 74.306L41.1372 74.3762L35.8288 62.5529L26.7801 73.4331Z" fill="black"/>
</svg>
