<svg width="600" height="600" viewBox="0 0 600 600" fill="none" xmlns="http://www.w3.org/2000/svg">
<path d="M161.02 216L142 261.994H459L439.98 216H161.02Z" stroke="#1E1E1E" stroke-width="5"/>
<path d="M220 270.551H204V328.674C141.541 312.889 106 286.595 106 286.595L167.992 385H421.068L494 286.595C494 286.595 455.738 311.331 396 327.222V270.551H380V331.132C374.799 332.29 369.462 333.369 364 334.351V270.551H348V336.88C332.334 339.019 315.783 340.282 298.541 340.282C282.118 340.282 266.582 339.276 252 337.539V270.551H236V335.291C230.512 334.402 225.177 333.414 220 332.345V270.551Z" stroke="#1E1E1E" stroke-width="5"/>
<path d="M321 286.595H279V320.823H321V286.595Z" stroke="#1E1E1E" stroke-width="5"/>
</svg>
