<svg width="153" height="157" viewBox="0 0 153 157" fill="none" xmlns="http://www.w3.org/2000/svg">
<path fill-rule="evenodd" clip-rule="evenodd" d="M70.4123 23.1996C71.2239 22.948 71.9371 22.4394 72.4499 21.7465C73.2038 20.6444 73.8452 20.986 74.3826 20.7426C75.4716 20.2489 74.286 19.3535 74.286 19.3535C74.286 19.3535 72.2652 19.4143 71.3388 20.3916C70.4123 21.369 67.9446 20.2645 67.9446 20.2645L66.0765 20.5149C65.8048 21.5984 65.7166 22.7219 65.8158 23.8361L70.4123 23.1996Z" fill="#FFD997"/>
<path d="M70.4123 23.5896C70.32 23.5898 70.2309 23.5555 70.1615 23.4931C70.0921 23.4308 70.0471 23.3446 70.035 23.2508C70.0229 23.1569 70.0445 23.0617 70.0957 22.983C70.147 22.9043 70.2244 22.8474 70.3135 22.8229C71.0378 22.5938 71.6751 22.1398 72.1375 21.5234C72.9834 20.2871 73.8156 20.5726 74.229 20.3862C74.3939 20.316 74.457 20.2497 74.457 20.2216C74.4684 20.1311 74.3271 19.9213 74.153 19.7536C73.2329 19.7795 72.3434 20.0978 71.607 20.6646C71.5365 20.7388 71.4401 20.7812 71.3391 20.7824C71.2381 20.7836 71.1408 20.7437 71.0686 20.6713C70.9963 20.5989 70.955 20.5 70.9538 20.3963C70.9526 20.2927 70.9915 20.1928 71.0621 20.1186C72.0851 19.0407 74.1827 18.965 74.2716 18.9627C74.7694 18.9557 75.974 20.4899 74.5239 21.1022C73.8832 21.3908 73.4128 21.0117 72.7569 21.9704C72.1772 22.7677 71.3503 23.3388 70.4123 23.5896Z" fill="black"/>
<path fill-rule="evenodd" clip-rule="evenodd" d="M93.2275 23.6403L108.748 32.5105L109.854 29.8273L93.2275 23.6403Z" fill="white"/>
<path d="M108.748 32.9005C108.596 32.9005 109.714 33.5198 93.0417 23.9851C92.9567 23.9383 92.8921 23.86 92.8613 23.7661C92.8304 23.6722 92.8355 23.5698 92.8756 23.4796C92.9156 23.3894 92.9876 23.3183 93.0769 23.2807C93.1662 23.243 93.2661 23.2417 93.3564 23.2769C111.323 29.8921 110.101 29.4334 110.202 29.6729C110.29 29.8804 110.326 29.6791 109.097 32.665C109.068 32.735 109.019 32.7947 108.957 32.8365C108.895 32.8784 108.822 32.9006 108.748 32.9005ZM97.5463 25.6613L108.566 31.9552L109.351 30.0504L97.5463 25.6613Z" fill="black"/>
<path d="M43.035 9.74073V4.27449C43.0272 4.16368 42.9771 4.06052 42.8955 3.98747C42.814 3.91443 42.7076 3.87741 42.5995 3.88449L34.3725 4.72065C34.2805 4.73126 34.1959 4.77754 34.136 4.85002C34.0761 4.92251 34.0455 5.01574 34.0503 5.11065C34.0739 17.9331 34.0298 13.7687 34.0298 14.7889C34.0298 15.8809 35.2291 16.7389 36.7597 16.7389C38.2903 16.7389 39.4889 15.8809 39.4889 14.7889C39.4889 12.9731 36.4489 12.2305 34.8088 13.3989V5.46165L42.2803 4.70427C42.2803 12.0363 42.2651 10.7399 42.3161 10.9786C42.2097 12.3046 43.697 13.0472 45.03 13.0472C46.5607 13.0472 47.7592 12.1892 47.7592 11.0972C47.7592 9.26181 44.6667 8.52003 43.035 9.74073Z" fill="black"/>
<path d="M39.6249 106.806V100.226C39.615 100.116 39.5637 100.014 39.4818 99.9422C39.4 99.8703 39.294 99.8339 39.1864 99.8409L29.507 100.822C29.4154 100.833 29.3313 100.879 29.2721 100.952C29.2128 101.024 29.1829 101.118 29.1886 101.212C29.2175 116.847 29.165 111.415 29.165 112.6C29.165 113.848 30.546 114.829 32.3092 114.829C34.0724 114.829 35.4533 113.85 35.4533 112.6C35.4533 110.479 31.8053 109.642 29.9471 111.111V101.563L38.871 100.658C38.871 109.226 38.852 107.861 38.9136 108.116C38.7866 109.642 40.5096 110.481 42.0394 110.481C43.8019 110.481 45.1836 109.502 45.1836 108.252C45.1836 106.107 41.4558 105.279 39.6249 106.806Z" fill="black"/>
<path d="M127.282 69.7071C127.286 69.6119 127.255 69.5185 127.195 69.4461C127.134 69.3737 127.049 69.3275 126.957 69.3171L119.985 68.6097C119.932 68.6059 119.878 68.613 119.828 68.6305C119.777 68.6481 119.73 68.6758 119.69 68.7121C119.65 68.7484 119.617 68.7925 119.593 68.8418C119.57 68.8912 119.556 68.9448 119.553 68.9997V73.5237C118.093 72.5424 115.548 73.2195 115.548 74.7802C115.548 75.7412 116.59 76.4963 117.919 76.4963C119.087 76.4963 120.364 75.8411 120.275 74.6859C120.317 74.4519 120.305 75.7092 120.305 69.4334L126.52 70.0636V76.6343C125.04 75.6796 122.555 76.3769 122.555 77.9127C122.555 78.8745 123.596 79.6287 124.926 79.6287C126.256 79.6287 127.296 78.876 127.296 77.9127C127.299 77.0376 127.261 80.571 127.282 69.7071Z" fill="black"/>
<path d="M91.0547 16.3879L103.364 5.91251L105.319 8.36093L91.0547 16.3879Z" fill="white"/>
<path d="M91.0556 16.7779C90.9775 16.7779 90.9014 16.7532 90.8375 16.7071C90.7736 16.6611 90.725 16.596 90.6985 16.5206C90.6719 16.4453 90.6686 16.3634 90.689 16.2861C90.7094 16.2087 90.7525 16.1397 90.8124 16.0884C103.978 4.87744 103.165 5.503 103.401 5.5225C103.619 5.54356 103.515 5.48116 105.613 8.11132C105.649 8.15566 105.674 8.20744 105.688 8.26298C105.701 8.31852 105.703 8.37646 105.692 8.43267C105.682 8.48889 105.659 8.542 105.626 8.58824C105.593 8.63448 105.551 8.67271 105.502 8.70022C90.2333 17.3122 91.2046 16.7779 91.0556 16.7779ZM103.314 6.4624L94.3563 14.0853L104.735 8.24314L103.314 6.4624Z" fill="black"/>
<path d="M53.9577 45.6621L50.1889 63.4289L46.9277 62.1029L53.9577 45.6621Z" fill="white"/>
<path d="M50.1887 63.8189C50.0769 63.8189 50.292 63.8899 46.7877 62.4672C46.7401 62.4479 46.6969 62.419 46.6605 62.3821C46.6242 62.3453 46.5954 62.3013 46.5759 62.2528C46.5565 62.2043 46.5468 62.1523 46.5474 62.0999C46.548 62.0475 46.5589 61.9957 46.5794 61.9477L53.6094 45.5053C53.647 45.4162 53.7155 45.3447 53.8017 45.3047C53.8878 45.2647 53.9854 45.2592 54.0754 45.2891C54.1653 45.319 54.2412 45.3823 54.2881 45.4665C54.335 45.5508 54.3497 45.65 54.3291 45.7447L50.5603 63.5123C50.5417 63.5993 50.4948 63.6771 50.4272 63.7329C50.3596 63.7886 50.2754 63.819 50.1887 63.8189ZM47.4344 61.8907L49.9128 62.8977L52.7772 49.3936L47.4344 61.8907Z" fill="black"/>
<path d="M95.7349 20.0141L122.938 13.7219L123.189 16.7093L95.7349 20.0141Z" fill="white"/>
<path d="M95.7341 20.4041C95.6405 20.4041 95.5502 20.3687 95.4805 20.3046C95.4108 20.2406 95.3666 20.1523 95.3563 20.0569C95.346 19.9614 95.3705 19.8654 95.4249 19.7873C95.4793 19.7092 95.5599 19.6544 95.6513 19.6335C124.692 12.9138 122.946 13.2437 123.163 13.4067C123.359 13.5541 123.3 13.5058 123.568 16.6757C123.576 16.7766 123.546 16.8769 123.483 16.9554C123.421 17.0339 123.331 17.0843 123.233 17.0961C95.0341 20.4774 95.8116 20.4041 95.7341 20.4041ZM122.596 14.2008L102.878 18.7614L122.777 16.3645L122.596 14.2008Z" fill="black"/>
<path d="M48.7169 45.6621L27.1701 67.6409L25.6304 64.4819L48.7169 45.6621Z" fill="white"/>
<path d="M27.1701 68.0309C27.0995 68.031 27.0302 68.011 26.97 67.973C26.9099 67.9349 26.8613 67.8804 26.8296 67.8156L25.2906 64.6566C25.2516 64.5766 25.2406 64.4853 25.2595 64.398C25.2783 64.3106 25.3258 64.2326 25.394 64.1769L48.4805 45.3563C48.5563 45.2916 48.6537 45.2597 48.752 45.2673C48.8503 45.2749 48.9419 45.3215 49.0074 45.3971C49.0729 45.4727 49.1072 45.5716 49.1031 45.6727C49.0989 45.7738 49.0566 45.8693 48.9851 45.939C25.9161 69.4825 27.4133 68.0309 27.1701 68.0309ZM26.1061 64.5911L27.2742 66.9865L43.6013 50.3304L26.1061 64.5911Z" fill="black"/>
<path d="M47.9087 40.2255L29.3867 41.7403L29.8002 44.535L47.9087 40.2255Z" fill="white"/>
<path d="M29.8002 44.925C29.7094 44.9249 29.6215 44.8914 29.5527 44.8306C29.4838 44.7698 29.4384 44.6857 29.4248 44.5935C28.9886 41.6201 28.9452 41.6841 29.0889 41.4984C29.2454 41.2949 27.8356 41.312 47.8784 39.837C47.9744 39.8284 48.0701 39.8575 48.146 39.9186C48.2219 39.9796 48.2723 40.068 48.2871 40.1657C48.3019 40.2635 48.2799 40.3634 48.2256 40.4452C48.1713 40.527 48.0887 40.5845 47.9946 40.6061C28.9878 45.1465 29.877 44.925 29.8002 44.925ZM29.8238 42.0959L30.1141 44.06L42.8403 41.0312L29.8238 42.0959Z" fill="black"/>
<path fill-rule="evenodd" clip-rule="evenodd" d="M53.7086 41.3245L50.9263 27.9498L52.6157 25.5685L88.7385 20.9088L91.3507 35.1243L53.7086 41.3245Z" fill="white"/>
<path fill-rule="evenodd" clip-rule="evenodd" d="M70.2945 147.661L75.3774 149.807L76.0614 146.665C76.0614 146.665 70.2041 147.816 70.2945 147.661Z" fill="white"/>
<path fill-rule="evenodd" clip-rule="evenodd" d="M92.9756 131.691C93.1946 131.984 93.492 132.207 93.8316 132.331C94.1713 132.455 94.5387 132.475 94.8893 132.389C96.0923 132.072 96.6373 129.592 95.9365 127.158L92.9756 131.691Z" fill="#FFD997"/>
<path fill-rule="evenodd" clip-rule="evenodd" d="M64.9096 146.876L61.2768 143.027C61.2768 143.027 59.8009 143.594 60.1185 146.02C60.4362 148.446 62.1371 149.206 63.6062 148.76C63.9889 148.627 64.3208 148.373 64.5548 148.035C64.7888 147.696 64.913 147.291 64.9096 146.876Z" fill="#FFD997"/>
<path fill-rule="evenodd" clip-rule="evenodd" d="M75.9154 146.828C75.4256 147.728 75.2361 148.767 75.3758 149.787C75.3922 150.196 75.4954 150.597 75.6781 150.961C75.8607 151.324 76.1186 151.643 76.4335 151.894C76.7485 152.145 77.1131 152.323 77.5017 152.414C77.8904 152.506 78.2939 152.509 78.6841 152.425C80.423 152.121 80.6396 150.843 80.5081 148.837C80.5179 148.465 80.4539 148.094 80.32 147.749C80.1861 147.403 79.985 147.089 79.7291 146.825C79.4732 146.562 79.1678 146.354 78.8314 146.215C78.4949 146.077 78.1345 146.01 77.7721 146.018C77.4232 146.002 77.0751 146.066 76.7537 146.206C76.4323 146.346 76.1457 146.559 75.9154 146.828Z" fill="#FFD997"/>
<path fill-rule="evenodd" clip-rule="evenodd" d="M80.372 124.361C80.372 124.361 70.7314 132.585 67.6397 135.176C64.548 137.767 59.7813 141.906 61.7315 144.692C62.813 146.238 64.9508 147.163 68.0904 147.628C71.2342 148.105 74.4451 147.621 77.3229 146.238C80.3196 144.783 83.0575 142.823 85.423 140.44C90.971 134.925 95.797 128.038 96.0022 126.946C96.3062 125.333 96.4278 120.409 86.0682 122.188L80.372 124.361Z" fill="white"/>
<path fill-rule="evenodd" clip-rule="evenodd" d="M61.7459 141.57C61.7459 141.57 61.2899 143.598 65.058 145.206C67.759 146.356 75.1158 146.108 77.3936 144.95C81.6792 142.67 85.5316 139.619 88.7677 135.943C91.38 133.103 93.8 130.083 96.0105 126.905C96.0105 126.905 96.2302 127.212 95.7985 127.828C93.4265 131.217 85.7665 142.353 77.4984 146.158C70.4981 149.374 59.1824 147.211 61.7459 141.57Z" fill="#81F8F8"/>
<path d="M95.3503 123.165C93.7444 121.475 90.6003 121.018 86.0068 121.806C85.9094 121.826 85.8232 121.883 85.7665 121.967C85.7099 122.05 85.6874 122.153 85.7037 122.254C85.7201 122.354 85.7741 122.444 85.8542 122.504C85.9342 122.564 86.034 122.59 86.1322 122.576C90.4057 121.843 93.4047 122.235 94.8061 123.71C95.1597 124.106 95.4235 124.578 95.5787 125.091C95.7339 125.605 95.7765 126.147 95.7037 126.679C93.4997 129.842 91.0901 132.848 88.4913 135.678C85.2937 139.328 81.4768 142.351 77.2265 144.6C75.1487 145.657 67.8565 145.975 65.2056 144.846C63.8498 144.269 61.9809 143.098 62.1193 141.608C63.523 138.8 66.1389 137.006 80.6161 124.661C80.6569 124.629 80.691 124.589 80.7163 124.543C80.7417 124.497 80.7577 124.446 80.7635 124.394C80.7693 124.342 80.7647 124.289 80.75 124.239C80.7353 124.188 80.7108 124.141 80.678 124.101C80.6452 124.06 80.6048 124.027 80.5591 124.003C80.5135 123.979 80.4636 123.965 80.4124 123.961C80.3613 123.958 80.3099 123.965 80.2615 123.982C80.213 123.999 80.1685 124.026 80.1305 124.061C80.034 124.139 70.4565 132.316 67.4013 134.874C64.5338 137.272 59.1978 141.738 61.4239 144.919C62.5228 146.49 64.5323 147.415 67.9386 147.92C71.1778 148.446 74.4963 147.985 77.4827 146.594C80.5191 145.121 83.2935 143.136 85.6907 140.722C91.0418 135.404 96.1483 128.554 96.3968 127.233C96.5516 126.518 96.5374 125.776 96.3553 125.069C96.1732 124.361 95.8286 123.708 95.3503 123.165ZM77.1642 145.884C74.3107 147.214 71.1392 147.653 68.0442 147.148C64.8583 146.675 63.0054 145.848 62.0402 144.465C61.7521 144.046 61.6261 143.533 61.6868 143.024C62.0972 143.804 62.9895 144.748 64.913 145.567C67.6293 146.723 75.0773 146.564 77.5625 145.299C80.6828 143.676 83.5672 141.614 86.1322 139.173C83.571 141.958 80.5307 144.233 77.1642 145.884Z" fill="black"/>
<path d="M78.6303 151.844C77.998 151.749 76.8512 151.075 77.0305 149.209C77.029 148.909 77.0875 148.611 77.2023 148.335C77.317 148.058 77.4857 147.809 77.6979 147.602C77.9102 147.395 78.1614 147.234 78.4363 147.131C78.7111 147.027 79.0037 146.982 79.2961 146.999C79.3969 147.007 79.4906 147.055 79.5565 147.134C79.6225 147.212 79.6554 147.314 79.648 147.418C79.6405 147.521 79.5933 147.617 79.5168 147.685C79.4402 147.753 79.3406 147.787 79.2398 147.779C79.1053 147.774 77.9349 147.743 77.7867 149.287C77.6347 150.888 78.6987 151.067 78.7405 151.074C78.8345 151.095 78.9172 151.152 78.9719 151.234C79.0267 151.315 79.0493 151.414 79.0353 151.512C79.0213 151.61 78.9718 151.698 78.8966 151.76C78.8214 151.822 78.7263 151.852 78.6303 151.844Z" fill="black"/>
<path d="M80.8887 148.812C80.896 148.391 80.8204 147.973 80.6662 147.582C80.512 147.191 80.2825 146.837 79.9915 146.54C79.7004 146.242 79.3539 146.009 78.9726 145.852C78.5913 145.696 78.1831 145.62 77.7727 145.63C77.6719 145.63 77.5752 145.671 77.504 145.744C77.4327 145.817 77.3927 145.917 77.3927 146.02C77.3927 146.123 77.4327 146.223 77.504 146.296C77.5752 146.369 77.6719 146.41 77.7727 146.41C78.0872 146.402 78.3999 146.461 78.6916 146.582C78.9832 146.703 79.2476 146.884 79.4684 147.114C79.6892 147.344 79.8617 147.618 79.9752 147.919C80.0888 148.22 80.141 148.542 80.1287 148.865C80.2731 151.07 79.9204 151.812 78.6193 152.04C78.2803 152.116 77.9291 152.114 77.5908 152.035C77.2525 151.956 76.9353 151.801 76.6617 151.582C76.3881 151.363 76.1647 151.085 76.0075 150.768C75.8502 150.45 75.763 150.101 75.7518 149.745C75.6278 148.815 75.7958 147.869 76.2314 147.043C76.2837 146.957 76.3013 146.854 76.2805 146.754C76.2596 146.655 76.2019 146.568 76.1197 146.512C76.0374 146.456 75.937 146.435 75.8398 146.453C75.7426 146.472 75.6562 146.528 75.5991 146.611C75.1666 147.378 74.9463 148.251 74.9622 149.136L70.4546 147.367C70.3618 147.335 70.2607 147.342 70.1723 147.385C70.0839 147.428 70.0151 147.504 69.9802 147.598C69.9452 147.692 69.9468 147.796 69.9847 147.888C70.0225 147.981 70.0936 148.055 70.1833 148.095L75.0291 149.997C75.0698 150.443 75.2018 150.874 75.4165 151.264C75.6312 151.653 75.9237 151.991 76.2748 152.256C76.6259 152.522 77.0276 152.708 77.4537 152.802C77.8798 152.897 78.3205 152.898 78.747 152.805C80.9396 152.426 81.0072 150.624 80.8887 148.812Z" fill="black"/>
<path d="M62.8097 149.27C59.2879 149.27 58.7711 143.576 61.1438 142.661C61.238 142.624 61.3427 142.628 61.4347 142.67C61.5267 142.712 61.5985 142.79 61.6344 142.887C61.6703 142.984 61.6672 143.091 61.626 143.186C61.5847 143.28 61.5086 143.354 61.4144 143.391C59.6185 144.144 60.358 149.343 63.499 148.383C63.8031 148.275 64.0663 148.071 64.2514 147.801C64.4366 147.531 64.5341 147.208 64.5304 146.878C64.5288 146.775 64.5674 146.675 64.6376 146.6C64.7078 146.526 64.8039 146.484 64.9047 146.482C65.0054 146.481 65.1027 146.52 65.175 146.592C65.2474 146.664 65.2888 146.763 65.2904 146.866C65.2993 147.367 65.1509 147.857 64.8671 148.265C64.5834 148.672 64.1794 148.975 63.7149 149.128C63.4214 149.22 63.1165 149.268 62.8097 149.27Z" fill="black"/>
<path d="M94.4012 132.845C94.0744 132.84 93.7529 132.759 93.4608 132.609C93.1686 132.459 92.9133 132.243 92.714 131.977C92.6553 131.893 92.6317 131.788 92.6482 131.686C92.6647 131.584 92.7201 131.493 92.8022 131.432C92.8842 131.372 92.9862 131.348 93.0857 131.365C93.1851 131.382 93.274 131.439 93.3326 131.523C93.503 131.742 93.7324 131.905 93.9924 131.992C94.2523 132.079 94.5313 132.086 94.7949 132.011C95.0922 131.898 95.335 131.67 95.472 131.376C96.0331 130.079 96.0988 128.613 95.656 127.268C95.641 127.219 95.6357 127.167 95.6404 127.115C95.6452 127.064 95.6599 127.014 95.6836 126.968C95.7074 126.923 95.7397 126.882 95.7788 126.85C95.8179 126.817 95.8629 126.793 95.9112 126.778C95.9595 126.763 96.0102 126.759 96.0603 126.764C96.1104 126.77 96.1589 126.786 96.2029 126.811C96.247 126.836 96.2858 126.87 96.317 126.91C96.3482 126.951 96.3713 126.997 96.3848 127.047C97.0551 129.375 96.685 132.845 94.4012 132.845Z" fill="black"/>
<path fill-rule="evenodd" clip-rule="evenodd" d="M82.9518 37.4893L53.7085 41.3245L56.1025 39.6865L82.6539 36.0533L82.9518 37.4893Z" fill="#81F8F8"/>
<path fill-rule="evenodd" clip-rule="evenodd" d="M62.4921 24.2635L61.1499 19.9026L77.781 17.8036L79.301 22.1022L77.8311 22.2909L76.7383 19.1842L63.0499 20.8924L64.0128 24.0685L62.4921 24.2635Z" fill="white"/>
<path d="M62.4926 24.6536C62.4118 24.6536 62.3331 24.6272 62.2679 24.5783C62.2028 24.5294 62.1545 24.4604 62.1301 24.3813L60.7887 20.0204C60.7718 19.9657 60.767 19.908 60.7743 19.8512C60.7817 19.7945 60.8012 19.7401 60.8314 19.6919C60.8615 19.6437 60.9017 19.6029 60.949 19.5725C60.9962 19.542 61.0494 19.5226 61.1048 19.5157L77.7359 17.4167C77.8213 17.4047 77.9082 17.4234 77.9817 17.4696C78.0553 17.5158 78.111 17.5867 78.1395 17.6702C79.7719 22.2933 79.7628 22.0796 79.6283 22.3058C79.4999 22.5203 79.4413 22.4719 77.8803 22.6778C77.7948 22.6887 77.7082 22.6695 77.6348 22.6233C77.5613 22.5771 77.5053 22.5067 77.476 22.4235L76.488 19.6093L63.5452 21.2231L64.3728 23.9531C64.3878 24.002 64.3932 24.0535 64.3888 24.1045C64.3844 24.1556 64.3703 24.2053 64.3471 24.2507C64.324 24.2962 64.2924 24.3365 64.2541 24.3694C64.2158 24.4023 64.1716 24.4272 64.1239 24.4426C64.0763 24.4579 64.0261 24.4635 63.9764 24.459C63.9266 24.4545 63.8782 24.4399 63.8339 24.4162C63.7896 24.3925 63.7503 24.36 63.7183 24.3207C63.6862 24.2814 63.662 24.236 63.647 24.1871C62.6172 20.7972 62.5944 20.8947 62.7282 20.681C62.8619 20.4673 61.782 20.5991 76.6947 18.7973C76.7801 18.7866 76.8665 18.8059 76.9398 18.852C77.0131 18.8982 77.069 18.9686 77.0983 19.0516L78.0863 21.865L78.7817 21.7761L77.5284 18.2287L61.6505 20.2325L62.8543 24.1465C62.8722 24.2049 62.8765 24.2668 62.8668 24.3271C62.8571 24.3875 62.8336 24.4446 62.7984 24.494C62.7632 24.5433 62.7172 24.5835 62.6641 24.6112C62.6109 24.6389 62.5522 24.6534 62.4926 24.6536Z" fill="black"/>
<path d="M64.7716 31.3655C63.8452 26.7861 58.9614 25.2323 56.7156 28.7259C54.4569 32.2359 56.835 37.7404 60.7148 37.7404C63.4538 37.7404 65.461 34.7725 64.7716 31.3655ZM62.9606 34.9605C61.3334 37.4892 57.9096 36.2202 57.2423 32.9192C56.8388 30.9302 57.7021 28.6901 59.5656 28.3063C62.4985 27.7018 64.7815 32.1322 62.9606 34.9605Z" fill="black"/>
<path d="M61.5585 32.1267C61.4529 31.4434 60.9635 30.9731 60.4345 31.055C60.1591 31.1368 59.9262 31.3264 59.7858 31.583C59.6455 31.8395 59.6091 32.1424 59.6844 32.4262C59.7984 33.1563 60.3213 33.5752 60.8084 33.4964C60.9458 33.4579 61.0744 33.3917 61.1867 33.3018C61.2989 33.2119 61.3927 33.0999 61.4625 32.9725C61.5323 32.8451 61.5767 32.7047 61.5932 32.5595C61.6097 32.4143 61.5979 32.2672 61.5585 32.1267Z" fill="black"/>
<path d="M89.1349 28.183C88.2085 23.6037 83.3247 22.0491 81.0789 25.5435C78.8171 29.0574 81.2066 34.5572 85.0788 34.5572C87.8171 34.5572 89.8235 31.5877 89.1349 28.183ZM87.3246 31.7781C85.7088 34.2881 82.2789 33.0612 81.6056 29.7368C81.202 27.747 82.0654 25.5076 83.9297 25.1231C86.899 24.5077 89.1243 28.9818 87.3246 31.7781Z" fill="black"/>
<path d="M75.8219 30.5901C75.7992 30.4981 75.7447 30.4177 75.6684 30.364C75.5922 30.3103 75.4995 30.287 75.4077 30.2984C69.4797 31.0784 69.7898 30.9349 69.6514 31.1463C69.6209 31.1927 69.6004 31.2454 69.5915 31.3008C69.5826 31.3561 69.5854 31.4127 69.5998 31.4668L69.843 32.3833C69.8671 32.4739 69.9223 32.5525 69.9984 32.6047C70.0745 32.6568 70.1664 32.679 70.2572 32.6673C76.1806 31.9356 75.85 32.0089 75.9883 31.8022C76.113 31.6127 76.0552 31.5316 75.8219 30.5901Z" fill="black"/>
<path d="M68.1173 26.843C68.004 26.8712 67.8973 26.922 67.8033 26.9926C67.7093 27.0633 67.6298 27.1523 67.5695 27.2546C67.5092 27.3569 67.4692 27.4705 67.4518 27.5887C67.4344 27.707 67.44 27.8276 67.4682 27.9436C67.5038 28.1818 67.6291 28.3961 67.8172 28.5402C68.0053 28.6844 68.2411 28.7469 68.4737 28.7142C68.5869 28.6859 68.6936 28.6349 68.7875 28.5642C68.8815 28.4934 68.9609 28.4043 69.0212 28.302C69.0816 28.1997 69.1216 28.0861 69.139 27.9678C69.1564 27.8496 69.1509 27.7289 69.1227 27.6129C69.0867 27.375 68.9612 27.1612 68.7732 27.0172C68.5852 26.8733 68.3497 26.8108 68.1173 26.843Z" fill="black"/>
<path d="M70.484 26.5513C70.3707 26.5794 70.264 26.6303 70.17 26.7009C70.076 26.7716 69.9965 26.8606 69.9362 26.9629C69.8759 27.0652 69.8359 27.1788 69.8185 27.297C69.8011 27.4152 69.8067 27.5359 69.8349 27.6519C69.8706 27.8901 69.9962 28.1043 70.1844 28.2483C70.3727 28.3923 70.6085 28.4546 70.8412 28.4217C70.9544 28.3936 71.0611 28.3427 71.1551 28.2721C71.2491 28.2015 71.3286 28.1124 71.3889 28.0101C71.4493 27.9078 71.4893 27.7943 71.5066 27.676C71.524 27.5578 71.5184 27.4372 71.4902 27.3212C71.4545 27.083 71.329 26.8687 71.1407 26.7247C70.9525 26.5807 70.7166 26.5184 70.484 26.5513Z" fill="black"/>
<path d="M72.8546 26.2596C72.7413 26.2877 72.6346 26.3386 72.5406 26.4092C72.4466 26.4799 72.3671 26.5689 72.3068 26.6712C72.2465 26.7735 72.2065 26.8871 72.1891 27.0053C72.1717 27.1236 72.1773 27.2442 72.2055 27.3602C72.2411 27.5983 72.3664 27.8125 72.5546 27.9566C72.7427 28.1006 72.9785 28.1629 73.211 28.13C73.3242 28.1018 73.4308 28.0509 73.5248 27.9802C73.6188 27.9096 73.6982 27.8205 73.7585 27.7183C73.8188 27.616 73.8588 27.5025 73.8763 27.3843C73.8937 27.2661 73.8882 27.1455 73.86 27.0295C73.8247 26.7913 73.6994 26.5769 73.5112 26.4328C73.323 26.2887 73.0871 26.2265 72.8546 26.2596Z" fill="black"/>
<path d="M76.2243 26.7385C76.1878 26.5006 76.0621 26.2869 75.874 26.143C75.686 25.9991 75.4505 25.9365 75.218 25.9686C75.1049 25.9969 74.9983 26.0479 74.9044 26.1186C74.8105 26.1893 74.7311 26.2783 74.6708 26.3806C74.6105 26.4828 74.5705 26.5963 74.553 26.7145C74.5355 26.8326 74.5409 26.9532 74.569 27.0692C74.6047 27.3074 74.7302 27.5217 74.9184 27.6659C75.1066 27.81 75.3425 27.8725 75.5752 27.8398C75.6885 27.8116 75.7952 27.7607 75.8892 27.6899C75.9832 27.6192 76.0627 27.5301 76.123 27.4277C76.1833 27.3254 76.2234 27.2118 76.2407 27.0935C76.2581 26.9752 76.2525 26.8545 76.2243 26.7385Z" fill="black"/>
<path fill-rule="evenodd" clip-rule="evenodd" d="M91.7023 40.5484L91.5093 41.0382C91.5093 41.0382 91.2509 44.84 94.1738 44.84C94.4021 44.4104 94.5251 43.9303 94.5321 43.4411C94.5391 42.9518 94.43 42.4682 94.2141 42.032C93.9266 41.6113 93.5526 41.2604 93.1186 41.004C92.6847 40.7477 92.2012 40.5922 91.7023 40.5484Z" fill="#81F8F8"/>
<path fill-rule="evenodd" clip-rule="evenodd" d="M94.1709 44.8399C94.1709 44.8399 94.6983 48.2914 98.6678 47.2205C98.6678 47.2205 98.0545 44.2354 94.1709 44.8399Z" fill="#81F8F8"/>
<path fill-rule="evenodd" clip-rule="evenodd" d="M98.6675 47.2205C99.428 46.5017 100.434 46.1201 101.468 46.1587C102.501 46.1972 103.477 46.6528 104.185 47.4264C104.185 47.4264 101.868 50.3608 98.6675 47.2205Z" fill="#81F8F8"/>
<path fill-rule="evenodd" clip-rule="evenodd" d="M104.185 47.3991C104.185 47.3991 105.298 44.7869 108.973 46.0926C108.971 46.0926 106.945 49.286 104.185 47.3991Z" fill="#81F8F8"/>
<path fill-rule="evenodd" clip-rule="evenodd" d="M108.949 46.1262C108.949 46.1262 109.044 43.3252 112.53 42.6942C112.53 42.6942 112.271 46.5248 108.949 46.1262Z" fill="#81F8F8"/>
<path d="M112.465 42.3104C109.664 42.8166 108.875 44.6723 108.654 45.5864C105.948 44.8064 104.596 46.1043 104.088 46.8196C103.372 46.1721 102.461 45.7964 101.507 45.7552C100.554 45.7141 99.6153 46.0099 98.8486 46.5934C98.4686 45.7424 97.4046 44.2128 94.7621 44.3829C94.901 43.9654 94.9528 43.5226 94.9144 43.0832C94.8759 42.6438 94.7479 42.2177 94.5386 41.8323C94.221 41.3558 93.8037 40.958 93.3172 40.6681C92.8307 40.3781 92.2873 40.2032 91.7267 40.1561C91.3634 40.1303 91.0928 41.0858 91.127 41.0078C91.0472 42.2097 91.3929 43.4007 92.1006 44.3618C92.5639 44.8609 93.1954 45.1597 93.8661 45.1972C94.3981 47.123 96.029 48.2392 98.5575 47.6363C100.635 49.5746 102.772 49.4006 104.273 47.896C106.073 48.9326 107.877 48.2018 109.132 46.5224C109.549 46.5709 109.971 46.5338 110.373 46.4133C110.776 46.2928 111.151 46.0912 111.477 45.8204C112.306 45.0001 112.816 43.8975 112.911 42.7191C112.915 42.6601 112.905 42.601 112.883 42.5463C112.861 42.4916 112.828 42.4428 112.785 42.4034C112.742 42.364 112.691 42.3352 112.635 42.3191C112.58 42.303 112.521 42.3 112.465 42.3104ZM91.8794 40.9665C93.7156 41.2925 94.6253 42.7262 93.9314 44.4398C93.4456 44.4161 92.9876 44.2 92.6539 43.8369C91.7578 42.8494 91.8954 41.0531 91.8794 40.9665ZM94.6542 45.1722C97.0284 44.9632 97.8918 46.2736 98.1737 46.9374C96.5078 47.2728 95.1983 46.7486 94.6542 45.1722ZM99.259 47.2424C99.8959 46.744 100.683 46.4909 101.483 46.5271C102.283 46.5633 103.046 46.8865 103.637 47.4405C102.443 48.5325 100.893 48.6565 99.259 47.2424ZM104.701 47.2619C105.068 46.7229 106.096 45.6933 108.33 46.2986C107.323 47.4654 106.056 48.0052 104.698 47.2619H104.701ZM109.386 45.7643C109.551 45.1194 109.891 44.5358 110.366 44.0813C110.841 43.6268 111.432 43.3199 112.07 43.1965C111.738 44.7206 110.9 45.7705 109.386 45.7643Z" fill="black"/>
<path fill-rule="evenodd" clip-rule="evenodd" d="M77.8347 130.662C77.3316 129.882 76.8688 129.224 76.8688 129.224C76.8688 129.224 80.8101 112.961 81.938 108.384C81.938 108.384 81.2935 109.798 78.2763 109.587C77.2962 109.516 76.355 109.165 75.5585 108.575C74.762 107.984 74.1419 107.177 73.768 106.245C72.8573 108.621 72.3343 111.135 72.2199 113.686C72.1621 118.143 73.1174 125.84 72.1895 128.577C71.9615 129.243 71.7046 129.885 71.4492 130.499C72.23 131.367 73.1427 132.099 74.1518 132.667L77.8347 130.662Z" fill="white"/>
<path fill-rule="evenodd" clip-rule="evenodd" d="M71.4487 130.499C70.656 132.407 70.2167 133.496 70.5542 133.811C71.5757 135.245 72.8028 136.512 74.1938 137.569C76.1622 138.583 79.2015 139.864 80.8149 139.738C84.0434 139.485 83.6459 137.751 83.6459 137.751C81.1303 134.218 79.5693 133.653 78.6907 132.068C78.4521 131.637 78.1359 131.132 77.8342 130.664C77.8342 130.664 74.7273 129.708 74.1589 132.647C73.1089 132.15 72.1823 131.416 71.4487 130.499Z" fill="#81F8F8"/>
<path fill-rule="evenodd" clip-rule="evenodd" d="M82.2693 80.9945C81.3877 79.2114 71.5062 77.1109 69.3105 80.7355C69.3105 80.7355 70.6991 88.2937 72.7024 92.7039C74.7058 97.114 76.4226 100.007 75.4209 102.23C74.9938 103.178 74.357 104.59 73.768 106.245C73.768 106.245 74.7818 109.071 77.3551 109.638C80.5601 110.345 81.938 108.384 81.938 108.384C83.0149 104.03 84.1701 101.886 84.5827 99.4454C84.6261 99.188 84.6002 99.0858 84.6261 99.2793C85.1687 100.563 85.4956 101.931 85.5928 103.327C85.5837 104.411 84.9544 105.642 84.2362 107.319C84.2362 107.319 88.2239 111.375 91.2958 107.709C91.9449 105.111 92.5506 102.156 92.9914 99.5C93.854 94.3013 89.8161 79.3464 89.8161 79.3464C89.8161 79.3464 87.1173 76.1328 82.2693 80.9945Z" fill="#FFD997"/>
<path fill-rule="evenodd" clip-rule="evenodd" d="M91.2616 60.5507C91.0627 62.5404 91.0118 64.5427 91.1096 66.5403C91.1856 71.4543 96.0207 79.3947 96.7495 80.6677C97.2525 81.7264 97.4339 82.9159 97.2701 84.0817C97.2649 85.0301 97.4984 85.9637 97.9481 86.7922C98.3638 87.4498 99.0926 89.1767 99.7227 89.0901C100.353 89.0035 99.6603 88.0761 99.4422 86.2681C99.2241 84.46 100.404 85.5988 101.038 86.8999C101.672 88.2009 101.195 90.4785 101.962 90.2102C102.728 89.9419 102.525 87.1191 101.909 85.1223C101.309 83.5236 100.52 82.007 99.5577 80.6068C98.8885 78.3823 98.4683 76.0868 98.3053 73.7647C98.0886 71.3538 97.6322 68.9721 96.9433 66.6565C96.2502 63.2495 96.9555 55.9292 96.9555 55.9292C97.3879 52.8388 96.6948 50.452 95.6445 49.0504C94.7111 48.0211 93.5814 47.1998 92.3256 46.6378C91.9881 45.9772 90.4355 43.8064 90.4355 43.8064L92.1075 39.6319C93.8334 39.8362 94.2674 39.3425 94.5889 38.4946C94.6653 38.2398 94.6532 37.9657 94.5549 37.7189C94.4565 37.4722 94.2778 37.2681 94.0493 37.1413C96.1879 29.4053 89.148 28.0021 89.148 28.0021C89.148 28.0021 86.2433 27.8835 84.8852 29.7391C83.5271 31.5948 84.3927 31.8451 83.3492 33.4668C82.9881 33.9627 82.7495 34.5411 82.6538 35.1524C82.5581 35.7637 82.6082 36.3897 82.7997 36.9768C82.9753 37.9533 82.7047 40.3393 84.4717 40.5102L84.2095 41.507L81.1475 40.961C81.1475 40.961 79.7955 38.4517 77.5816 38.1686L64.0977 39.9384C67.1574 42.1225 70.5844 43.7068 74.2057 44.6114C74.2057 44.6114 74.0491 50.2968 74.347 53.0752C74.6449 55.8535 75.1032 58.2232 73.9533 59.8526C73.4437 60.4789 73.0226 61.1758 72.7024 61.9227C72.7024 61.9227 78.2648 69.3327 86.9904 68.7384C86.9904 68.7384 88.5028 66.1581 89.376 64.8212C90.2594 63.5314 90.899 62.0828 91.2616 60.5507Z" fill="#FFD997"/>
<path fill-rule="evenodd" clip-rule="evenodd" d="M89.1495 28.0021C88.641 27.5847 88.0447 27.2946 87.4079 27.1547C86.7712 27.0149 86.1114 27.0291 85.481 27.1964C84.6512 27.4725 83.9062 27.9663 83.3196 28.6289C82.7331 29.2914 82.3254 30.0998 82.137 30.9739C81.8277 32.4621 81.8976 33.4488 81.6924 34.2171C82.4595 33.8861 83.1507 33.3941 83.7216 32.7726C84.2771 31.9793 83.6874 30.5254 85.3069 29.2626C86.443 28.4719 87.7772 28.0342 89.1495 28.0021Z" fill="#81F8F8"/>
<path fill-rule="evenodd" clip-rule="evenodd" d="M89.1494 28.0021C89.6038 28.3408 89.9738 28.7849 90.2292 29.2983C90.4846 29.8116 90.6183 30.3796 90.6193 30.9559C90.7834 33.1462 91.6468 35.0119 93.4389 35.6C93.4389 35.6 92.6272 34.0104 92.9585 33.026C93.5194 31.3561 93.4989 28.3273 91.912 27.7766C90.9966 27.49 90.0092 27.5706 89.1494 28.0021Z" fill="#81F8F8"/>
<path fill-rule="evenodd" clip-rule="evenodd" d="M93.2831 30.4552C93.9575 30.904 94.4971 31.5363 94.8416 32.2816C95.1861 33.0269 95.322 33.8558 95.2341 34.6758C95.1828 35.6094 94.8518 36.504 94.2863 37.2373C94.2863 37.2373 93.8501 36.6866 92.5839 37.9799C92.2843 37.8444 92.0251 37.6296 91.8328 37.3576C91.6405 37.0855 91.522 36.766 91.4895 36.4316C91.4304 35.7422 91.5271 35.0482 91.7723 34.4036L93.2831 30.4552Z" fill="#81F8F8"/>
<path d="M93.6454 30.2345C93.5504 29.0496 93.1354 27.7868 92.0334 27.4046C91.1011 27.1035 90.0945 27.1556 89.1963 27.5513C88.6531 27.1385 88.0251 26.8585 87.3603 26.7328C86.6955 26.6071 86.0116 26.6389 85.3606 26.8259C84.4701 27.1262 83.6709 27.6589 83.0414 28.3717C82.4119 29.0846 81.9736 29.953 81.7696 30.892C81.4497 32.4263 81.5249 33.3786 81.3296 34.1142C81.3105 34.1851 81.3114 34.26 81.3321 34.3304C81.3528 34.4008 81.3924 34.4637 81.4464 34.512C81.5004 34.5602 81.5666 34.5919 81.6374 34.6032C81.7082 34.6145 81.7806 34.6051 81.8464 34.5759C83.3398 33.9098 81.8411 33.9902 82.3784 36.7787C82.6657 38.2739 82.3153 40.6927 84.5208 40.9064C87.5342 41.1981 90.4617 41.3385 92.2287 38.6507C92.5061 38.2279 92.3807 38.3691 92.5814 38.3691C92.9051 38.3691 93.0169 37.9393 93.6659 37.5992C94.4525 37.1874 94.2739 38.3574 94.1591 38.5352C93.9266 38.8392 93.6112 39.0651 93.253 39.1842C92.8948 39.3032 92.5101 39.31 92.1482 39.2037C92.0625 39.1872 91.9739 39.2015 91.8972 39.2441C91.8206 39.2867 91.7605 39.355 91.7271 39.4377L89.6577 44.691C89.6207 44.7867 89.6221 44.8936 89.6615 44.9882C89.701 45.0829 89.7754 45.1577 89.8684 45.1963C89.9614 45.2349 90.0655 45.2342 90.158 45.1944C90.2505 45.1545 90.3239 45.0787 90.3622 44.9835L92.3207 40.0125C94.0877 40.1997 95.6829 38.7989 94.7573 37.2443C95.2443 36.4888 95.5386 35.6198 95.613 34.7171C95.7115 33.8571 95.5805 32.9857 95.2339 32.1962C94.8874 31.4067 94.3383 30.7286 93.6454 30.2345ZM91.7902 28.1441C93.1179 28.6043 93.0875 31.4419 92.5989 32.8974C92.446 33.5261 92.4839 34.1876 92.7075 34.7936C91.4216 33.8505 91.0811 32.0378 90.9983 30.9263C90.9554 29.8898 90.5613 28.9011 89.8841 28.1308C90.5063 27.9384 91.1704 27.9425 91.7902 28.1425V28.1441ZM82.2021 33.5245C82.2585 32.6968 82.3628 31.8732 82.5144 31.0581C82.9902 28.7798 85.3887 26.6675 87.8884 27.7104C86.6042 27.853 85.422 28.495 84.5847 29.5044C83.4036 31.1182 83.7965 31.5737 83.3861 32.5823C83.05 32.967 82.6488 33.2862 82.2021 33.5245ZM91.5995 38.217C90.0095 40.635 87.2416 40.383 84.5102 40.1249C83.1186 39.9938 83.3861 38.0384 83.1771 36.9089C82.9948 36.3714 82.9444 35.796 83.0304 35.2337C83.1164 34.6714 83.3363 34.1395 83.6704 33.6852C84.7914 31.9388 83.8877 31.7578 85.1904 29.9763C86.2779 28.4943 88.5344 28.396 89.0322 28.3937C89.406 28.7094 89.7078 29.1054 89.9164 29.5537C90.1251 30.0021 90.2355 30.4919 90.2398 30.9887C90.2903 32.2281 90.6718 33.4294 91.3426 34.4613C91.1318 35.1071 91.0517 35.7903 91.107 36.469C91.1486 37.0164 91.3912 37.5271 91.7857 37.898C91.8465 37.9526 91.6808 38.086 91.5972 38.2139L91.5995 38.217ZM94.8583 34.6344C94.7949 35.3873 94.5587 36.1141 94.169 36.7553C93.8572 36.7486 93.5478 36.8124 93.2627 36.942C92.9776 37.0717 92.7237 37.2641 92.5191 37.5056C92.3353 37.385 92.1808 37.2227 92.0677 37.0312C91.9545 36.8397 91.8856 36.6242 91.8662 36.4011C91.8323 35.9833 91.86 35.5626 91.9483 35.1532C92.3458 35.5235 92.8151 35.8034 93.3254 35.9745C93.3972 35.998 93.4741 35.999 93.5465 35.9776C93.6188 35.9561 93.6833 35.913 93.7318 35.8538C93.7802 35.7947 93.8104 35.722 93.8186 35.6452C93.8268 35.5684 93.8125 35.4908 93.7776 35.4222C93.3959 34.7346 93.2362 33.9406 93.3216 33.154C93.5157 32.5384 93.6284 31.8988 93.6568 31.2524C94.1036 31.6775 94.4454 32.2057 94.654 32.7932C94.8625 33.3808 94.9318 34.0108 94.8561 34.6313L94.8583 34.6344Z" fill="black"/>
<path d="M83.509 44.0397C83.4588 44.0397 83.4091 44.0295 83.3628 44.0097C83.3165 43.9898 83.2745 43.9608 83.2392 43.9242C82.3996 43.0591 81.6168 42.1377 80.8961 41.1662C80.4013 40.4439 79.0721 38.7435 77.4001 38.5602C77.3017 38.547 77.2121 38.4948 77.1507 38.4147C77.0893 38.3346 77.0609 38.2331 77.0715 38.1317C77.0821 38.0304 77.131 37.9374 77.2076 37.8726C77.2842 37.8077 77.3825 37.7763 77.4814 37.7849C79.3913 37.9939 80.8307 39.7123 81.5193 40.7177C82.2168 41.6522 82.972 42.5399 83.7803 43.3751C83.8332 43.4299 83.8691 43.4995 83.8834 43.5752C83.8978 43.6509 83.8899 43.7293 83.8609 43.8004C83.8319 43.8715 83.7829 43.9322 83.7203 43.9748C83.6577 44.0174 83.5841 44.04 83.509 44.0397Z" fill="black"/>
<path d="M77.884 45.7908C77.8002 45.7907 77.7188 45.7622 77.6524 45.7098C77.586 45.6573 77.5384 45.5838 77.5169 45.5006C77.2811 44.531 76.7729 43.6538 76.0555 42.9781C75.9762 42.914 75.9251 42.8202 75.9133 42.7173C75.9014 42.6145 75.9299 42.5111 75.9924 42.4298C76.0549 42.3485 76.1463 42.296 76.2465 42.2838C76.3467 42.2717 76.4474 42.3009 76.5267 42.365C77.3765 43.1435 77.9773 44.1674 78.2503 45.3025C78.2649 45.36 78.2665 45.4203 78.255 45.4785C78.2434 45.5368 78.219 45.5916 78.1837 45.6387C78.1483 45.6858 78.103 45.724 78.051 45.7504C77.9991 45.7767 77.942 45.7906 77.884 45.7908Z" fill="black"/>
<path fill-rule="evenodd" clip-rule="evenodd" d="M72.6736 61.9578C72.6736 61.9578 68.9845 66.4982 68.6076 71.7733C68.355 74.7638 68.5646 77.7764 69.2285 80.6997C69.2285 80.6997 70.6261 78.8565 74.1609 78.7497C77.6957 78.6428 82.1059 81.099 82.1059 81.099C82.1059 81.099 86.0815 76.4401 89.8473 79.3214C89.8473 79.3214 88.7476 71.8474 87.1751 68.7859C78.1988 69.5706 72.6736 61.9578 72.6736 61.9578Z" fill="black"/>
<path d="M90.0052 78.3417C87.5854 75.841 84.0499 77.6943 82.1362 79.3191C82.1294 79.2894 82.1233 79.2582 82.1164 79.2286C84.7673 76.9564 85.3282 75.1406 85.351 75.0626C85.3797 74.9639 85.3691 74.8576 85.3217 74.7669C85.2743 74.6761 85.1939 74.6083 85.0979 74.5782C85.0018 74.548 84.8979 74.5581 84.809 74.6064C84.7201 74.6546 84.6535 74.737 84.6237 74.8356C84.6191 74.852 84.1312 76.3956 81.9166 78.3815C80.9901 74.6593 80.0584 73.6875 80.0112 73.6407C79.939 73.57 79.8425 73.5313 79.7426 73.5331C79.6428 73.5348 79.5477 73.5768 79.4778 73.65C79.4079 73.7232 79.3688 73.8216 79.3691 73.9241C79.3694 74.0266 79.409 74.1248 79.4792 74.1976C79.4899 74.2093 80.449 75.2631 81.3671 79.3588C79.857 78.6568 76.25 77.1218 73.6949 77.1218C71.8674 77.0332 70.071 77.6295 68.6401 78.7996C68.567 78.8707 68.5243 78.9688 68.5216 79.0722C68.5189 79.1757 68.5563 79.2759 68.6257 79.351C68.695 79.4261 68.7906 79.4699 68.8914 79.4727C68.9921 79.4754 69.0898 79.437 69.163 79.3659C70.4585 78.3453 72.0634 77.8268 73.6949 77.9018C76.4461 77.9018 80.7028 79.8947 81.5685 80.3143C81.624 80.5905 81.6787 80.8728 81.7326 81.1723C81.7403 81.224 81.758 81.2735 81.7847 81.318C81.8114 81.3625 81.8465 81.401 81.8879 81.4313C81.9294 81.4616 81.9763 81.483 82.026 81.4943C82.0757 81.5056 82.1271 81.5066 82.1771 81.4971C82.2272 81.4877 82.2749 81.468 82.3174 81.4393C82.3598 81.4105 82.3963 81.3733 82.4245 81.3299C82.4527 81.2864 82.4722 81.2376 82.4816 81.1863C82.4911 81.1349 82.4905 81.0822 82.4797 81.0312C82.4273 80.7371 82.3733 80.4625 82.3186 80.1911C83.1075 79.4891 86.9652 76.3083 89.4664 78.8916C89.5388 78.955 89.6317 78.9882 89.7268 78.9846C89.8219 78.9811 89.9123 78.941 89.98 78.8724C90.0477 78.8038 90.0878 78.7116 90.0925 78.6141C90.0972 78.5165 90.0661 78.4207 90.0052 78.3456V78.3417Z" fill="white"/>
<path d="M82.6406 70.9317C82.6895 70.8126 82.6905 70.6785 82.6434 70.5587C82.5962 70.4388 82.5048 70.343 82.389 70.2921C82.2647 70.2672 82.1359 70.2929 82.0298 70.3638C81.9236 70.4347 81.8486 70.5453 81.8205 70.672C81.7716 70.7912 81.7707 70.9254 81.818 71.0452C81.8653 71.1651 81.9569 71.2609 82.0728 71.3116C82.197 71.3363 82.3257 71.3105 82.4316 71.2396C82.5376 71.1687 82.6125 71.0583 82.6406 70.9317Z" fill="white"/>
<path d="M87.3971 69.0262C85.5405 69.1992 83.6687 69.0266 81.8718 68.5168C78.3112 67.238 75.0787 65.1488 72.4167 62.4055C72.3469 62.331 72.251 62.2879 72.1502 62.2859C72.0495 62.2838 71.952 62.3229 71.8794 62.3946C71.8067 62.4663 71.7648 62.5647 71.7628 62.6681C71.7608 62.7715 71.7989 62.8715 71.8687 62.9461C72.4849 63.5848 73.1339 64.1894 73.8128 64.7572C73.4119 65.7777 73.2229 66.8727 73.258 67.9724C73.2601 68.0395 73.279 68.1049 73.313 68.1623C73.3469 68.2197 73.3948 68.2671 73.4518 68.3L74.8723 69.1198C74.9263 69.1511 74.987 69.1683 75.0491 69.1699C75.1111 69.1715 75.1726 69.1575 75.2282 69.1291C75.2837 69.1007 75.3317 69.0588 75.3678 69.007C75.4039 68.9552 75.4271 68.8951 75.4354 68.832C75.5472 68.0158 75.736 67.2128 75.9993 66.4342C78.409 68.2021 81.1848 69.3734 84.1093 69.8561C83.7506 70.6371 83.2735 71.3548 82.6957 71.9824C82.6592 72.018 82.63 72.0608 82.6098 72.1081C82.5896 72.1554 82.5787 72.2064 82.5779 72.2581C82.577 72.3098 82.5862 72.3611 82.6048 72.4091C82.6235 72.4571 82.6512 72.5009 82.6865 72.5378C82.7217 72.5747 82.7638 72.604 82.8102 72.6241C82.8566 72.6442 82.9064 72.6546 82.9568 72.6547C83.0071 72.6549 83.057 72.6448 83.1035 72.6249C83.15 72.6051 83.1922 72.576 83.2277 72.5393C83.9323 71.7714 84.5056 70.887 84.9232 69.9232C85.7936 70.001 86.6702 69.9577 87.5293 69.7945C87.5799 69.7873 87.6287 69.7698 87.6725 69.7428C87.7164 69.7159 87.7546 69.6802 87.7847 69.6377C87.8148 69.5953 87.8362 69.5471 87.8477 69.496C87.8593 69.4449 87.8606 69.3919 87.8517 69.3402C87.8428 69.2885 87.8238 69.2392 87.7959 69.1953C87.768 69.1513 87.7318 69.1136 87.6893 69.0843C87.6469 69.0551 87.5991 69.0349 87.5489 69.0251C87.4987 69.0152 87.447 69.0159 87.3971 69.027V69.0262ZM74.7704 68.1682L74.0104 67.7322C74.0108 66.8932 74.1538 66.0606 74.433 65.272C74.7203 65.5024 75.0273 65.7382 75.3541 65.9795C75.092 66.6878 74.8965 67.4201 74.7704 68.1666V68.1682Z" fill="white"/>
<path fill-rule="evenodd" clip-rule="evenodd" d="M81.3667 40.9657C81.3667 40.9657 81.052 46.2463 78.3472 49.3117C75.6423 52.3771 74.9621 52.4278 74.3101 52.5932L74.6384 55.7771C74.6384 55.7771 77.287 54.7062 83.6451 57.3566C90.0033 60.0071 90.9913 61.3128 90.9913 61.3128C90.9913 61.3128 91.1327 60.7254 91.1676 60.525C91.9931 60.2521 92.7338 59.7607 93.315 59.1002C93.8963 58.4397 94.2975 57.6335 94.4782 56.763C95.0011 53.8224 93.8611 51.3725 94.7062 47.949L93.4195 47.247C93.4195 47.247 93.4286 56.0353 88.9902 55.2584C88.0242 55.0661 87.135 54.5853 86.4343 53.8763C83.6983 51.2586 82.021 45.7892 82.5158 43.0194L82.6457 41.1474L81.3667 40.9657Z" fill="white"/>
<path d="M88.5756 55.554C88.5231 55.5542 88.4712 55.5432 88.423 55.5217C88.3749 55.5002 88.3316 55.4688 88.2959 55.4293C88.2602 55.3898 88.2328 55.3431 88.2156 55.2922C88.1983 55.2413 88.1915 55.1873 88.1956 55.1336C88.293 53.49 87.9859 51.8476 87.3026 50.3577C87.278 50.3122 87.2625 50.2621 87.2571 50.2103C87.2516 50.1586 87.2563 50.1062 87.2709 50.0564C87.2854 50.0065 87.3096 49.9602 87.3419 49.9201C87.3742 49.8799 87.4139 49.8468 87.4589 49.8227C87.5038 49.7986 87.553 49.784 87.6035 49.7797C87.6541 49.7754 87.7049 49.7816 87.7531 49.7977C87.8013 49.8139 87.8459 49.8399 87.8841 49.874C87.9224 49.9082 87.9537 49.9498 87.976 49.9965C88.7297 51.6151 89.0662 53.405 88.9534 55.1952C88.9457 55.2928 88.9027 55.3838 88.8327 55.4502C88.7627 55.5167 88.671 55.5537 88.5756 55.554Z" fill="black"/>
<path d="M85.3336 66.0505C85.263 66.0505 85.1939 66.0303 85.1338 65.9922C85.0738 65.9542 85.0253 65.8997 84.9937 65.8349C84.9622 65.7701 84.9488 65.6976 84.9551 65.6255C84.9615 65.5533 84.9873 65.4844 85.0296 65.4265C86.3262 63.6762 86.8886 60.493 86.8947 60.461C86.9152 60.362 86.9723 60.2751 87.0541 60.2186C87.1359 60.1621 87.2358 60.1404 87.3329 60.1581C87.4299 60.1758 87.5165 60.2316 87.5743 60.3136C87.632 60.3955 87.6565 60.4974 87.6425 60.5975C87.6189 60.7348 87.0429 63.9967 85.6346 65.9015C85.5988 65.9482 85.5531 65.9859 85.5009 66.0118C85.4487 66.0376 85.3915 66.0508 85.3336 66.0505Z" fill="black"/>
<path d="M85.7092 31.743C85.6502 31.743 85.592 31.7289 85.5392 31.7018C85.4865 31.6747 85.4406 31.6354 85.4052 31.587C85.2691 31.4021 84.8732 30.9341 84.4278 31.3483C84.3542 31.4171 84.2573 31.4535 84.1578 31.4497C84.0583 31.4459 83.9642 31.4022 83.8958 31.328C83.4809 30.874 84.307 30.3631 84.918 30.4131C85.1394 30.4413 85.3522 30.5188 85.5414 30.64C85.7307 30.7612 85.8919 30.9233 86.0139 31.1151C86.0574 31.173 86.0841 31.2424 86.091 31.3152C86.0979 31.388 86.0848 31.4614 86.053 31.5269C86.0212 31.5924 85.9721 31.6473 85.9113 31.6856C85.8505 31.7238 85.7805 31.7437 85.7092 31.743Z" fill="black"/>
<path d="M89.6907 32.8779C89.6243 32.878 89.5591 32.8602 89.5015 32.8264C89.4439 32.7926 89.3959 32.7439 89.3623 32.6852C89.2093 32.3257 88.9273 32.0404 88.5748 31.8886C88.2223 31.7369 87.8263 31.7302 87.4692 31.8701C87.3768 31.9115 87.2721 31.9135 87.1783 31.8757C87.0844 31.8378 87.009 31.7633 86.9687 31.6685C86.9284 31.5736 86.9265 31.4662 86.9633 31.3699C87.0001 31.2736 87.0728 31.1962 87.1652 31.1548C87.6927 30.9406 88.2795 30.9386 88.8084 31.1493C89.3372 31.36 89.769 31.7679 90.0175 32.2913C90.0511 32.3504 90.069 32.4177 90.0693 32.4861C90.0695 32.5546 90.0523 32.622 90.0191 32.6814C89.986 32.7409 89.9382 32.7904 89.8805 32.8248C89.8229 32.8593 89.7574 32.8776 89.6907 32.8779Z" fill="black"/>
<path d="M84.7006 35.7733C84.6089 35.7732 84.5204 35.7391 84.4513 35.6773C84.2793 35.538 84.1406 35.3601 84.0459 35.1573C83.9512 34.9545 83.9029 34.7322 83.9048 34.5073C83.8988 33.81 84.8875 33.3989 85.5008 32.991C85.7699 32.8132 85.6224 32.3904 85.6164 32.3732C85.582 32.277 85.586 32.1708 85.6273 32.0775C85.6687 31.9842 85.7442 31.9114 85.8375 31.8748C85.9308 31.8382 86.0343 31.8408 86.1258 31.8819C86.2173 31.9231 86.2892 31.9996 86.3262 32.0948C86.4387 32.3633 86.4591 32.6631 86.384 32.9451C86.3089 33.227 86.1427 33.4745 85.9128 33.647C85.548 33.8872 84.7294 34.3186 84.6595 34.5214C84.6604 34.633 84.6871 34.7429 84.7373 34.842C84.7875 34.9411 84.8598 35.0266 84.9483 35.0915C85.0057 35.1438 85.0463 35.2126 85.0649 35.289C85.0834 35.3654 85.079 35.4458 85.0522 35.5196C85.0254 35.5933 84.9774 35.6571 84.9147 35.7023C84.8519 35.7476 84.7773 35.7723 84.7006 35.7733Z" fill="black"/>
<path fill-rule="evenodd" clip-rule="evenodd" d="M85.4437 33.0877C84.8821 33.1469 84.6404 33.0572 84.5522 32.9714V32.2328C84.7688 32.2631 84.9708 32.3615 85.1305 32.5147C85.2902 32.6678 85.3996 32.868 85.4437 33.0877Z" fill="white"/>
<path fill-rule="evenodd" clip-rule="evenodd" d="M89.4142 34.2468C88.9779 34.2932 88.5375 34.2178 88.1396 34.0284V33.2905C88.5607 33.0362 89.2758 33.7585 89.4142 34.2468Z" fill="white"/>
<path fill-rule="evenodd" clip-rule="evenodd" d="M85.796 32.8911C85.169 31.2867 83.896 31.8077 84.2061 32.4231C84.0093 32.98 84.6872 33.3147 84.8369 32.7351C85.1143 33.0471 85.0649 33.4262 85.4449 33.4262C85.5069 33.4259 85.5679 33.4101 85.6225 33.3801C85.6772 33.3501 85.7239 33.3068 85.7585 33.2541C85.7931 33.2013 85.8146 33.1406 85.8212 33.0774C85.8277 33.0141 85.8191 32.9502 85.796 32.8911Z" fill="black"/>
<path fill-rule="evenodd" clip-rule="evenodd" d="M89.8075 34.0378C88.9996 32.4356 87.8034 32.3787 87.8619 33.0667C87.7976 33.1196 87.746 33.1868 87.711 33.2634C87.6759 33.3399 87.6584 33.4236 87.6597 33.5081C87.6597 34.1602 88.438 34.2484 88.5087 33.5744C89.0977 34.0206 89.0407 34.6072 89.4708 34.6072C89.536 34.607 89.6 34.5897 89.6568 34.5568C89.7136 34.524 89.7611 34.4767 89.7949 34.4195C89.8288 34.3623 89.8477 34.2972 89.8499 34.2303C89.8521 34.1635 89.8375 34.0971 89.8075 34.0378Z" fill="black"/>
<path d="M87.5326 36.54C87.2458 36.6973 86.9166 36.754 86.5955 36.7014C85.4175 35.7498 84.8475 35.4714 83.9932 35.806C83.9852 35.8095 83.9768 35.8121 83.9682 35.8138C83.9157 35.7522 83.8633 35.689 83.8108 35.625C83.7529 35.554 83.6723 35.5064 83.5833 35.4908C83.4943 35.4752 83.4028 35.4927 83.3252 35.54C82.9726 35.7561 83.18 36.2295 83.5091 36.4589C83.5752 36.5369 83.6353 36.6032 83.6915 36.6663C82.9179 38.4869 85.84 39.2848 87.3274 37.5314C87.526 37.4449 87.7167 37.3405 87.8974 37.2194C87.9744 37.1643 88.0288 37.0819 88.0502 36.988C88.0715 36.8942 88.0583 36.7955 88.0129 36.7111C87.9676 36.6267 87.8935 36.5625 87.8048 36.5309C87.7161 36.4993 87.6191 36.5026 87.5326 36.54Z" fill="black"/>
<path d="M101.85 90.6205C100.731 90.6205 101.322 88.3382 100.703 87.0723C100.483 86.5929 100.176 86.161 99.7986 85.8001C99.8375 86.5158 99.9652 87.2235 100.179 87.9061C100.342 88.4911 100.45 88.8772 100.255 89.1868C100.2 89.2687 100.129 89.337 100.045 89.3868C99.9621 89.4366 99.8689 89.4666 99.7728 89.4747C98.8228 89.6096 98.1335 87.8 97.6296 87.0028C97.0567 85.955 96.8039 84.7547 96.9038 83.5576C97.0571 82.4941 96.8142 81.4105 96.2236 80.5226C92.6318 74.3551 90.7782 69.6556 90.7295 66.5442C90.6294 64.5213 90.6819 62.4935 90.8869 60.4789C90.9084 60.3807 90.966 60.2948 91.0478 60.2393C91.1296 60.1837 91.2292 60.1627 91.3257 60.1807C91.4222 60.1988 91.5082 60.2544 91.5656 60.336C91.6231 60.4176 91.6476 60.5189 91.6339 60.6186C91.4456 62.5837 91.3973 64.5602 91.4895 66.5325C91.5359 69.5043 93.3523 74.0736 96.8757 80.1217C97.8371 81.7722 97.6501 82.319 97.6501 84.0802C97.6438 84.9526 97.856 85.8121 98.2665 86.5762C98.6296 87.3191 99.0727 88.0179 99.5873 88.6596C99.4125 87.7017 98.4846 85.279 99.5113 84.9616C100.386 84.6964 101.344 86.6386 101.384 86.7213C101.862 87.6978 101.775 89.1478 101.916 89.7578C102.181 89.3101 102.19 87.3 101.553 85.2338C100.964 83.6737 100.192 82.1933 99.2537 80.8252C99.1937 80.7387 99.2294 80.7933 98.9497 79.7839C98.4117 77.8305 98.0707 75.8255 97.9321 73.8006C97.7158 71.4201 97.2656 69.0681 96.5884 66.7806C95.8785 63.3057 96.5527 56.1874 96.5815 55.8863C96.9539 53.2249 96.5055 50.8249 95.3473 49.2836C94.4533 48.307 93.3753 47.5269 92.1789 46.9904C91.9288 46.8789 92.1386 46.8539 90.1322 43.9593C90.0749 43.8749 90.0524 43.7706 90.0696 43.6693C90.0869 43.5679 90.1425 43.4776 90.2243 43.4181C90.3061 43.3586 90.4076 43.3348 90.5065 43.3517C90.6054 43.3686 90.6938 43.425 90.7523 43.5085C90.8071 43.5865 92.0497 45.3899 92.5969 46.3282C93.8713 46.9049 95.0136 47.7497 95.95 48.8078C97.2298 50.5152 97.7352 53.129 97.3362 55.9838C97.3309 56.0392 96.6469 63.2674 97.3195 66.5762C98.0142 68.9033 98.4726 71.2979 98.6875 73.7218C98.846 76.0015 99.2573 78.2551 99.9134 80.4392C100.885 81.8527 101.678 83.3863 102.275 85.0037C102.772 86.6113 103.418 90.6205 101.85 90.6205Z" fill="black"/>
<path fill-rule="evenodd" clip-rule="evenodd" d="M91.2956 107.71C90.8379 109.734 90.2074 111.713 89.4116 113.623C88.188 116.203 84.9603 123.334 86.0676 124.225C87.1749 125.117 92.6271 127.414 92.9767 128.905C93.0619 129.17 93.0888 129.451 93.0556 129.728C93.0223 130.005 92.9296 130.27 92.7843 130.506C92.6389 130.742 92.4445 130.941 92.2149 131.091C91.9854 131.24 91.7264 131.335 91.4567 131.369C89.4626 131.682 87.4256 131.242 85.7241 130.13C84.3263 129.153 82.7681 128.444 81.1245 128.036C79.8797 127.49 78.7632 127.361 80.8616 123.487C82.9599 119.614 81.9476 114.604 82.9607 110.892C83.3015 109.672 83.7274 108.479 84.2352 107.323C86.8177 109.199 89.2444 109.894 91.2956 107.71Z" fill="white"/>
<path fill-rule="evenodd" clip-rule="evenodd" d="M79.8379 126.379C79.8379 126.379 82.0974 127.218 83.7755 127.792C85.4535 128.366 87.0693 130.102 89.8121 130.399C92.555 130.696 93.0376 129.628 93.0474 129.58C93.0573 129.532 93.4214 128.442 91.0532 127.084C88.685 125.726 86.0023 124.16 86.0023 124.16C85.2456 124.232 84.5183 124.497 83.8864 124.93C82.8178 125.657 81.8587 125.288 80.9049 123.558C80.3282 124.394 79.9617 125.363 79.8379 126.379Z" fill="#81F8F8"/>
<path d="M80.0595 126.086C80.0191 126.118 79.9729 126.142 79.9236 126.155C79.8743 126.168 79.8228 126.171 79.7723 126.164C79.7218 126.156 79.6733 126.139 79.6297 126.111C79.5861 126.084 79.5482 126.048 79.5184 126.006C79.4886 125.963 79.4674 125.915 79.4562 125.864C79.4449 125.813 79.4438 125.76 79.4528 125.709C79.4619 125.657 79.481 125.608 79.509 125.564C79.5369 125.52 79.5732 125.483 79.6156 125.454C81.0262 124.409 82.7567 125.706 83.9051 125.972C83.7936 125.681 83.6459 125.406 83.4658 125.154C83.4069 125.07 83.383 124.966 83.3993 124.864C83.4155 124.761 83.4706 124.67 83.5524 124.61C83.6343 124.549 83.7361 124.525 83.8356 124.541C83.9351 124.558 84.0241 124.615 84.0829 124.699C84.4804 125.266 84.8908 126.038 84.586 126.497C83.8838 127.556 81.4123 125.084 80.0595 126.086Z" fill="white"/>
<path d="M75.1217 135.62C74.7919 135.62 74.3579 135.19 73.7963 134.69C73.3585 134.3 71.2404 132.355 70.8961 132.883C70.8693 132.928 70.8341 132.967 70.7924 132.997C70.7507 133.027 70.7035 133.049 70.6536 133.06C70.6037 133.071 70.5521 133.072 70.5018 133.062C70.4516 133.052 70.4038 133.032 70.3613 133.003C70.3188 132.974 70.2825 132.937 70.2545 132.893C70.2265 132.849 70.2074 132.8 70.1984 132.748C70.1893 132.696 70.1905 132.643 70.2019 132.592C70.2133 132.541 70.2346 132.493 70.2645 132.45C71.1393 131.105 73.3653 133.283 74.5601 134.337C74.364 133.894 74.0873 133.342 73.8213 132.855C73.7963 132.811 73.7801 132.761 73.7737 132.71C73.7673 132.659 73.7708 132.607 73.784 132.558C73.7972 132.508 73.8198 132.462 73.8506 132.421C73.8813 132.38 73.9196 132.347 73.9633 132.321C74.0069 132.296 74.0549 132.28 74.1047 132.273C74.1545 132.267 74.2049 132.271 74.2532 132.285C74.3015 132.299 74.3466 132.322 74.3859 132.354C74.4253 132.386 74.4581 132.426 74.4825 132.471C75.8171 134.889 75.6104 135.233 75.5108 135.397C75.4703 135.466 75.4132 135.522 75.345 135.561C75.2767 135.601 75.1998 135.621 75.1217 135.62Z" fill="white"/>
<path d="M94.8845 47.6074L93.5978 46.9054C93.5399 46.8737 93.475 46.858 93.4093 46.8598C93.3437 46.8615 93.2797 46.8807 93.2234 46.9154C93.1672 46.9501 93.1206 46.9992 93.0884 47.0579C93.0561 47.1166 93.0392 47.1828 93.0392 47.2502C93.0392 47.304 93.0187 52.6033 90.9781 54.3716C89.7051 55.4753 87.9032 54.7522 86.6925 53.5916C84.0811 51.0956 82.4183 45.7284 82.8925 43.0475L82.9936 41.5936C84.4467 41.8034 84.2164 41.7722 84.2582 41.7722C84.3363 41.7722 84.4125 41.7475 84.4764 41.7014C84.5403 41.6554 84.5889 41.5902 84.6154 41.5148L84.908 40.681C84.9422 40.5837 84.9373 40.4764 84.8944 40.3828C84.8515 40.2892 84.7741 40.2169 84.6793 40.1818C84.5844 40.1467 84.4799 40.1518 84.3887 40.1958C84.2975 40.2398 84.227 40.3193 84.1929 40.4166L84.0051 40.9517L81.2585 40.5562C81.1776 40.5437 81.0948 40.5587 81.023 40.5989C80.9511 40.6391 80.894 40.7022 80.8603 40.7788C80.8267 40.8554 80.8183 40.9412 80.8366 41.0231C80.8548 41.105 80.8986 41.1785 80.9613 41.2325C80.8504 42.3533 80.2956 46.5224 78.065 49.052C76.0282 51.3615 75.1899 51.9021 74.645 52.094C74.493 49.754 74.5454 46.3539 74.569 45.1052C75.047 45.2245 75.5403 45.3392 76.0533 45.4491C76.152 45.4698 76.2547 45.4494 76.3388 45.3924C76.4229 45.3353 76.4815 45.2463 76.5017 45.1449C76.5218 45.0436 76.5019 44.9382 76.4463 44.8518C76.3907 44.7655 76.304 44.7054 76.2052 44.6847C68.0109 42.9399 64.4176 39.6927 64.3827 39.6569C64.3079 39.5875 64.2093 39.5514 64.1086 39.5566C64.0079 39.5618 63.9134 39.6078 63.8458 39.6846C63.7781 39.7613 63.743 39.8625 63.748 39.9658C63.7531 40.0692 63.798 40.1662 63.8727 40.2356C64.0088 40.3612 66.9956 43.0616 73.8105 44.9024C73.7259 47.641 73.7766 50.3824 73.9625 53.1158C74.2315 55.625 74.7157 58.0945 73.6387 59.6217C73.1368 60.2722 72.708 60.9787 72.3604 61.7277C72.1195 62.0265 68.5977 66.4779 68.2207 71.7461C67.9609 74.7816 68.1751 77.8403 68.8553 80.8065C68.874 80.8758 68.9114 80.9383 68.9632 80.9867C70.4832 89.002 72.1263 92.4114 73.2283 94.7646C76.8467 102.487 75.1565 100.21 72.8749 107.718C72.8423 107.796 72.5269 108.883 72.3027 109.909C72.0194 111.147 71.8617 112.412 71.8322 113.683C71.7745 118.141 72.7191 125.808 71.8223 128.45C70.8799 131.227 69.344 133.609 69.9451 135.334C70.5281 137.008 72.2875 137.836 73.3325 139.147C74.5773 140.707 77.7329 141.944 81.371 141.217C82.8074 140.93 83.7217 140.364 84.0865 139.534C84.2149 139.21 84.269 138.86 84.2446 138.512C84.2203 138.163 84.118 137.825 83.9459 137.523C83.0382 136.205 81.9897 134.995 80.82 133.915C78.6616 131.878 79.6268 132.557 77.2723 129.146C77.2913 129.068 81.7343 111.174 81.7867 110.57C82.3021 108.184 82.9706 105.835 83.7878 103.54C84.1465 102.499 84.4665 101.56 84.6998 100.64C86.0906 105.039 84.2491 104.68 82.5847 110.785C81.5534 114.564 82.5649 119.521 80.5198 123.296C79.4611 125.251 79.1214 126.416 79.3851 127.183C79.6047 127.825 80.177 128.061 80.7295 128.294C82.0831 128.863 83.2018 128.805 85.497 130.448C86.8433 131.384 88.4394 131.869 90.0654 131.836C90.5898 131.836 90.9857 131.795 91.4737 131.758C91.9777 131.707 92.4477 131.473 92.799 131.099C93.1504 130.725 93.36 130.234 93.3904 129.715C93.4212 129.641 93.4263 129.558 93.4048 129.481C93.407 129.256 93.3827 129.031 93.3326 128.812C92.9222 127.064 87.4426 124.849 86.2897 123.92C85.9097 123.616 86.5177 120.598 89.7424 113.796C91.2198 110.681 92.7527 103.2 93.3546 99.5671C94.1906 94.5158 90.5913 80.8128 90.2006 79.3526C90.2295 78.9517 88.9922 71.5136 87.4996 68.6073C87.9358 67.8702 89.0037 66.0723 89.6778 65.0404C90.5194 63.7549 91.1338 62.3273 91.4927 60.8229C92.3385 60.5112 93.0915 59.9802 93.6784 59.2817C94.2654 58.5832 94.6665 57.7409 94.8427 56.8364C95.3816 53.8068 94.2347 51.4068 95.0639 48.0489C95.086 47.9653 95.0804 47.8766 95.0479 47.7966C95.0154 47.7167 94.9579 47.6501 94.8845 47.6074ZM73.9283 138.652C72.6644 137.067 70.4612 136.128 70.5843 134.295C71.4999 135.674 72.6526 136.869 73.9861 137.824C76.2828 139.331 81.2349 141.115 83.3834 139.247C82.517 141.041 76.1072 141.384 73.9283 138.652ZM77.5763 130.971C78.7163 132.744 78.3811 132.665 80.3123 134.488C81.4378 135.521 82.4457 136.681 83.3166 137.947C83.3166 137.947 83.3348 137.983 83.3553 138.03C82.0884 140.571 76.6901 138.675 74.3927 137.167C72.958 136.104 71.7379 134.766 70.8001 133.226C71.029 132.522 71.292 131.83 71.5883 131.153C72.2615 131.928 73.0754 132.562 73.9845 133.017C74.0378 133.044 74.0964 133.058 74.1557 133.057C74.215 133.056 74.2733 133.041 74.326 133.013C74.3787 132.985 74.4242 132.945 74.459 132.896C74.4938 132.847 74.5169 132.79 74.5264 132.73C74.6474 132.116 74.989 131.571 75.4833 131.203C75.7988 131.021 76.1471 130.907 76.507 130.867C76.8668 130.827 77.2309 130.862 77.577 130.971H77.5763ZM76.4994 129.131C76.4424 129.365 76.5587 129.443 76.9987 130.094C76.3377 130.007 75.668 130.16 75.1049 130.525C74.5418 130.891 74.1206 131.447 73.9139 132.097C73.1471 131.648 72.4711 131.052 71.9219 130.343C72.1393 129.814 72.3536 129.275 72.5474 128.705C73.5149 125.853 72.5405 118.203 72.5991 113.691C72.6148 112.844 72.6949 111.999 72.8384 111.164C73.9076 112.291 75.2862 113.057 76.7905 113.359C77.979 113.745 79.266 113.654 80.3913 113.103L76.4994 129.131ZM80.6794 111.918C80.5015 112.131 79.4277 113.258 76.9812 112.604C74.0317 111.817 73.22 110.475 73.0452 110.097C73.1126 109.785 73.1865 109.473 73.2671 109.161C73.752 110.056 74.7947 111.189 77.0382 111.751C78.2609 112.14 79.5774 112.081 80.7622 111.583L80.6794 111.918ZM81.0533 110.387C79.7879 112.173 74.0932 110.947 73.6159 107.915C73.7003 107.639 73.7877 107.369 73.8759 107.102C74.6002 108.376 75.7666 109.322 77.1416 109.751C78.5166 110.18 79.9987 110.059 81.2912 109.415L81.0533 110.387ZM84.2058 99.3791C83.8098 101.719 82.6987 103.799 81.6218 108.064C81.5967 108.118 80.9819 109.39 78.2998 109.198C77.403 109.133 76.5431 108.805 75.8222 108.254C75.1013 107.702 74.5495 106.951 74.2323 106.087C74.7985 104.542 75.3845 103.236 75.7637 102.394C76.9037 99.8643 74.8091 96.4253 73.0444 92.5385C71.1991 88.4771 69.8608 81.606 69.7004 80.7551C70.9469 79.6722 72.5382 79.0983 74.1707 79.1428C77.1925 79.0492 80.9347 80.9228 81.754 81.3541C82.2784 83.9429 84.5789 97.1889 84.2081 99.3791H84.2058ZM91.4258 130.978C89.4042 131.134 87.6653 131.042 85.937 129.808C84.5216 128.809 82.9393 128.087 81.2691 127.676C80.7736 127.462 80.2378 127.305 80.1071 126.923C80.0752 126.83 80.1231 126.958 83.6495 128.163C85.2804 128.72 86.9258 130.479 89.7674 130.787C90.5602 130.898 91.3661 130.854 92.1432 130.659C91.9434 130.837 91.6947 130.949 91.4311 130.978H91.4258ZM92.6 128.993C92.6379 129.153 92.6576 129.317 92.6585 129.481C92.5255 129.653 91.9122 130.236 89.8465 130.011C88.4044 129.792 87.0282 129.246 85.8185 128.411C84.0219 127.333 84.6534 127.745 80.1542 126.082C80.3271 125.456 80.5683 124.853 80.8732 124.283C81.2143 124.861 81.7214 125.316 82.3248 125.586C83.5339 126.043 84.3525 124.578 85.8649 124.557C86.9524 125.404 92.3195 127.783 92.6053 128.996L92.6 128.993ZM85.5008 123.794C84.0317 123.98 83.2619 125.111 82.5855 124.855C82.0127 124.558 81.5542 124.072 81.2843 123.475C83.3432 119.454 82.302 114.673 83.3546 110.887C85.1375 111.979 87.7154 113.007 89.6109 112.099C88.9497 113.96 85.2143 121.14 85.5061 123.794H85.5008ZM90.0281 110.85C88.1715 112.787 84.5508 110.724 83.5879 110.118C83.6601 109.891 83.7323 109.669 83.8068 109.454C85.6779 110.682 88.2991 111.624 90.1695 110.379C90.1277 110.537 90.0806 110.698 90.0304 110.85H90.0281ZM90.6004 108.853C89.1564 111.08 86.2198 110.157 84.0788 108.704C84.1966 108.397 84.3152 108.108 84.4338 107.826C86.2646 109.131 88.7863 110.139 90.6073 108.828L90.6004 108.853ZM92.6144 99.4345C92.2055 101.899 91.6378 104.705 91.0184 107.235C90.8341 107.589 90.5754 107.896 90.261 108.135C89.9466 108.374 89.5843 108.538 89.2005 108.616C87.4571 108.948 85.3838 107.564 84.7477 107.098C85.3291 105.763 85.9637 104.458 85.9697 103.333C85.8794 101.897 85.5475 100.487 84.9886 99.167C85.1755 96.0337 82.9799 83.6395 82.5026 81.2355C83.1349 80.5476 86.3596 77.3402 89.4718 79.5468C89.8024 80.7668 93.4223 94.5821 92.6144 99.4345ZM89.3342 78.5344C86.0769 76.7981 82.8613 79.7582 82.0261 80.6201C81.0145 80.0921 77.2799 78.2801 74.1479 78.3628C72.4525 78.3387 70.7976 78.8947 69.4443 79.9431C68.9319 77.2634 68.7769 74.5247 68.9837 71.8022C69.2915 67.5013 71.893 63.6543 72.7115 62.5405C76.1627 66.5778 81.4143 69.4677 86.9121 69.1307C88.0932 71.5596 89.0052 76.5423 89.3365 78.5344H89.3342ZM86.7624 68.3609C79.1981 68.7633 74.0347 62.9469 73.1387 61.858C74.0826 59.915 75.2758 59.7684 75.0387 56.0704C75.8199 55.8972 78.4404 55.6086 83.5043 57.7193C88.5074 59.805 90.1391 61.0499 90.5632 61.4282C89.8936 63.5857 89.0599 64.4679 86.7624 68.3609ZM94.1025 56.6952C93.9391 57.4959 93.5716 58.2379 93.0376 58.8452C92.5035 59.4525 91.8219 59.9035 91.0625 60.1521C90.8421 60.2184 90.8026 60.3963 90.7676 60.5936C89.9795 59.9813 88.1008 58.7942 83.7885 56.9963C78.7725 54.9059 76.0039 55.0884 74.9725 55.2904C74.9323 54.8754 74.7157 52.9387 74.7111 52.8935C75.3677 52.7102 76.2463 52.2757 78.6281 49.5753C80.9796 46.9093 81.5754 42.7324 81.7092 41.4087L82.2412 41.4867L82.1409 42.9508C81.6332 45.7962 83.3189 51.4325 86.1742 54.1633C87.6942 55.6157 89.886 56.3387 91.4683 54.9659C93.3394 53.3443 93.708 49.4381 93.7802 47.8898L94.2674 48.1557C93.5325 51.5246 94.6048 53.8864 94.1055 56.6952H94.1025Z" fill="black"/>
<path d="M65.8158 24.2269C65.7203 24.2272 65.6282 24.1907 65.5578 24.1245C65.4873 24.0583 65.4438 23.9673 65.4358 23.8696C65.3372 22.7014 65.4317 21.5244 65.7155 20.3885C65.75 20.2933 65.8194 20.2157 65.9088 20.1722C65.9982 20.1287 66.1007 20.1227 66.1943 20.1555C66.288 20.1884 66.3655 20.2574 66.4103 20.3479C66.4552 20.4385 66.4638 20.5434 66.4344 20.6404C66.1873 21.6746 66.1056 22.7431 66.1927 23.8041C66.1971 23.8578 66.1907 23.9118 66.1738 23.9627C66.1568 24.0137 66.1298 24.0605 66.0944 24.1002C66.059 24.1399 66.016 24.1716 65.968 24.1935C65.9201 24.2153 65.8682 24.2266 65.8158 24.2269Z" fill="black"/>
<path d="M66.4604 19.2325C66.4604 19.2325 66.9818 16.8044 68.9168 18.316C69.1151 17.1928 70.1525 17.561 70.4125 18.2942C70.4634 18.1319 70.5599 17.9886 70.6898 17.8823C70.8197 17.776 70.9772 17.7114 71.1427 17.6966C71.3083 17.6818 71.4743 17.7174 71.6202 17.799C71.7661 17.8806 71.8853 18.0046 71.9629 18.1554C72.4295 18.7942 71.8762 21.1669 70.8358 20.7161C70.2278 21.4626 69.4123 21.4961 69.1486 20.9501C68.6523 21.6973 67.7616 21.7636 67.4979 20.9602C67.2896 20.3277 68.0032 19.0336 67.3588 19.1148L66.4604 19.2325Z" fill="#FFD997"/>
<path d="M72.2668 17.9245C72.1792 17.7662 72.0579 17.6302 71.912 17.5266C71.7661 17.4229 71.5994 17.3544 71.4241 17.326C71.2489 17.2976 71.0697 17.3101 70.8998 17.3625C70.7299 17.4149 70.5737 17.506 70.4428 17.6289C70.3398 17.4914 70.2057 17.3817 70.0522 17.3093C69.8987 17.2368 69.7303 17.2038 69.5615 17.213C69.3928 17.2222 69.2288 17.2734 69.0836 17.3621C68.9384 17.4509 68.8165 17.5746 68.7282 17.7225C68.5183 17.5804 68.28 17.4885 68.0309 17.4534C67.7818 17.4183 67.5282 17.4409 67.2888 17.5197C66.9842 17.6834 66.7187 17.9143 66.5114 18.1959C66.3042 18.4775 66.1604 18.8028 66.0903 19.1483C66.0778 19.209 66.0795 19.2719 66.0954 19.3317C66.1113 19.3915 66.1409 19.4466 66.1817 19.4924C66.2225 19.5381 66.2733 19.5733 66.33 19.5948C66.3867 19.6164 66.4475 19.6237 66.5075 19.6163L67.2478 19.5227C67.1025 20.0302 67.0654 20.5639 67.1391 21.0874C67.2022 21.2927 67.3171 21.4771 67.4723 21.6219C67.6274 21.7667 67.8172 21.8668 68.0223 21.9118C68.2274 21.9568 68.4404 21.9452 68.6397 21.8783C68.839 21.8113 69.0175 21.6912 69.1569 21.5304C69.4538 21.6908 69.7957 21.7406 70.1244 21.6714C70.4531 21.6021 70.7483 21.4181 70.9596 21.1506C72.285 21.3409 72.8862 18.7692 72.2668 17.9245ZM67.8588 20.844C67.7152 20.4033 68.2783 19.387 67.852 18.9135C67.624 18.6592 67.3336 18.7326 67.0426 18.7692C67.4226 18.0618 67.9082 18.0836 68.5557 18.5352C68.7171 18.9181 68.7917 19.3337 68.7738 19.7505C68.7701 20.1422 68.7391 20.5332 68.6811 20.9205C68.3764 21.2215 67.9979 21.2613 67.858 20.8409L67.8588 20.844ZM69.489 20.7824C69.587 19.9657 69.5231 19.1372 69.3013 18.3465C69.3302 18.2053 69.3948 18.0072 69.5376 17.997C69.655 18.0122 69.7658 18.0609 69.8574 18.1376C69.949 18.2143 70.0179 18.3158 70.056 18.4307C70.0613 18.4463 70.0757 18.4541 70.0833 18.4689C70.3451 19.2037 70.3929 20.0008 70.2209 20.7629C69.9731 20.9267 69.6129 21.0367 69.4882 20.7793L69.489 20.7824ZM71.0599 20.3815C71.1285 19.6901 71.0544 18.9917 70.8426 18.3316C71.1093 17.9666 71.3943 18.0282 71.6596 18.3925C71.9544 18.7942 71.5311 20.4532 71.0592 20.3784L71.0599 20.3815Z" fill="black"/>
<path d="M89.0803 20.8183C89.0618 20.7213 89.0081 20.6352 88.9301 20.5772C88.8521 20.5193 88.7556 20.494 88.66 20.5063C50.2686 24.9219 52.4992 25.0724 52.3077 25.3423C50.508 27.8773 50.505 27.7954 50.5544 28.0325C53.5245 42.287 53.3238 41.4602 53.4317 41.5834C53.6438 41.8237 52.6041 41.8408 82.862 37.8316C82.9591 37.815 83.0461 37.7604 83.1047 37.6793C83.1634 37.5981 83.189 37.4968 83.1763 37.3966C83.1636 37.2964 83.1135 37.2052 83.0366 37.1422C82.9597 37.0792 82.8619 37.0492 82.7639 37.0587L55.125 40.741L56.1343 39.9821L82.637 36.3863C82.7347 36.3702 82.8225 36.3156 82.8816 36.2342C82.9407 36.1527 82.9666 36.0508 82.9536 35.9501C82.9406 35.8494 82.8899 35.7579 82.8122 35.695C82.7345 35.6321 82.6359 35.6028 82.5375 35.6133L80.8655 35.8403L77.5975 22.7145L88.4009 21.3253L89.6169 27.7681C89.6246 27.82 89.6425 27.8697 89.6694 27.9144C89.6964 27.959 89.7318 27.9976 89.7736 28.0278C89.8155 28.0581 89.8628 28.0793 89.9128 28.0903C89.9628 28.1013 90.0145 28.1019 90.0647 28.0919C90.115 28.0819 90.1627 28.0616 90.2051 28.0322C90.2475 28.0029 90.2837 27.965 90.3115 27.9209C90.3393 27.8768 90.3581 27.8275 90.3669 27.7757C90.3756 27.724 90.3741 27.671 90.3624 27.6199L89.0803 20.8183ZM64.1143 24.4484L67.4089 37.6655L56.2764 39.1764L53.1391 25.8594L64.1143 24.4484ZM52.4863 26.4132L55.5582 39.4478L53.9569 40.6521L51.3334 28.0387L52.4863 26.4132ZM68.1681 37.5625L66.4072 30.5004L78.3529 28.8944L80.1077 35.9425L68.1681 37.5625ZM78.1637 28.1331L66.218 29.7399L64.8743 24.3509L76.8397 22.812L78.1637 28.1331Z" fill="black"/>
<path fill-rule="evenodd" clip-rule="evenodd" d="M84.4982 40.5445C84.4982 40.5445 82.4462 45.5864 86.3017 47.0559C86.3017 47.0591 88.5862 43.4305 84.4982 40.5445Z" fill="#81F8F8"/>
<path fill-rule="evenodd" clip-rule="evenodd" d="M86.3018 47.0591C86.3018 47.0591 85.5904 50.5807 90.0904 50.5893C90.0904 50.5893 90.6178 47.4257 86.3018 47.0591Z" fill="#81F8F8"/>
<path fill-rule="evenodd" clip-rule="evenodd" d="M90.0903 50.5893C90.0903 50.5893 90.1564 53.7312 95.0151 53.2008C95.0151 53.2008 94.8464 49.5816 90.0903 50.5893Z" fill="#81F8F8"/>
<path fill-rule="evenodd" clip-rule="evenodd" d="M95.0151 53.2585C95.0151 53.2585 98.6267 55.0283 100.34 51.3865C100.34 51.3865 97.4783 49.8327 95.0151 53.2585Z" fill="#81F8F8"/>
<path d="M100.519 51.0441C99.6164 50.6379 98.6088 50.549 97.6523 50.7912C96.6959 51.0334 95.8442 51.5931 95.2297 52.3834C94.5556 50.3148 92.5986 49.7883 90.4865 50.1214C90.4212 48.538 89.3549 47.1074 86.8819 46.733C87.3736 45.5529 88.1131 42.6224 84.7143 40.2232C84.6678 40.1902 84.6146 40.1684 84.5588 40.1592C84.503 40.1501 84.4458 40.1538 84.3916 40.1702C84.3373 40.1865 84.2873 40.2151 84.2452 40.2538C84.2031 40.2926 84.1699 40.3404 84.1481 40.394C84.1025 40.5071 83.0271 43.195 83.9331 45.3361C84.317 46.2211 85.0192 46.9198 85.8931 47.2861C85.7479 49.201 86.8978 50.8452 89.7623 50.9638C90.1628 52.9067 92.0347 53.6477 93.9613 53.6477C94.2387 53.6477 94.5366 53.6243 94.8375 53.597L94.8527 53.6095C95.5322 53.9075 96.2624 54.0642 97.0013 54.0705C97.7909 54.0827 98.5656 53.8488 99.223 53.3997C99.8805 52.9506 100.39 52.3074 100.683 51.555C100.725 51.4644 100.731 51.3608 100.701 51.2657C100.67 51.1705 100.605 51.0912 100.519 51.0441ZM84.6877 41.174C87.3341 43.3143 86.5216 45.7432 86.1317 46.5646C84.12 45.6013 84.0387 43.3104 84.687 41.174H84.6877ZM86.644 47.4881C88.2871 47.7065 89.6741 48.5021 89.7296 50.1908C87.4648 50.08 86.606 48.9373 86.6432 47.4865L86.644 47.4881ZM90.5245 50.9037C92.3873 50.5878 94.1117 50.9817 94.5731 52.849C92.8691 52.9684 90.9593 52.6033 90.5238 50.9037H90.5245ZM95.6363 53.0877C97.3083 51.0745 99.0677 51.3483 99.8072 51.5901C99.4033 52.3125 98.7592 52.8614 97.9931 53.1362C97.2269 53.411 96.39 53.3932 95.6355 53.0861L95.6363 53.0877Z" fill="black"/>
</svg>
