<svg width="700" height="550" viewBox="0 0 700 550" fill="none" xmlns="http://www.w3.org/2000/svg">
<path d="M227.24 248.995C227.564 251.61 228.258 254.165 229.3 256.585C228.317 254.145 227.626 251.597 227.24 248.995ZM308.25 285.365C309.902 283.995 311.132 282.185 311.8 280.145C312.37 278.325 312.49 276.335 310.91 275.315C307.54 273.135 298.61 279.485 296.62 283.055C294.64 286.625 286.9 296.155 289.87 310.435C292.85 324.725 303.96 336.435 303.96 336.435C303.96 336.435 304.94 337.445 306.42 339.095L310.78 327.015C307.82 323.685 305.41 320.945 304.76 320.165C302.84 317.855 291.4 299.505 308.25 285.365ZM277.97 323.935C277.97 323.935 266.85 314.805 255.15 309.245C246.85 305.305 242.74 299.075 243.52 294.155C243.75 292.869 244.333 291.672 245.204 290.697C246.074 289.723 247.198 289.009 248.45 288.635C251.8 287.565 259.74 283.855 258.92 272.735L258.77 269.215C257.03 269.167 255.323 268.726 253.777 267.926C252.231 267.126 250.885 265.988 249.84 264.595C246.27 259.835 240.02 257.455 230.34 258.795L225.28 255.965C225.28 255.965 224.91 246.865 226.95 245.985C226.92 245.305 226.91 244.615 226.92 243.915C226.92 243.915 222.45 244.905 223.2 254.085C223.2 254.085 221.41 253.085 219.82 242.775C219.82 242.775 212.08 244.955 214.27 260.035C214.948 263.06 214.813 266.21 213.88 269.165C213.88 269.165 210.7 282.855 208.12 290.795C205.54 298.735 200.28 318.035 212.78 354.645L219.23 375.335C219.23 375.335 222.4 397.755 217.44 402.125C217.44 402.125 209.9 403.005 212.68 408.915C212.816 409.209 212.998 409.479 213.22 409.715C213.01 409.348 212.887 408.937 212.86 408.515C212.825 408.098 212.866 407.678 212.98 407.275C213.096 406.839 213.331 406.444 213.66 406.135C213.818 405.97 214.016 405.847 214.235 405.779C214.453 405.711 214.686 405.699 214.91 405.745C214.639 405.988 214.421 406.284 214.27 406.615C214.135 406.919 214.024 407.233 213.94 407.555C213.75 408.291 213.509 409.012 213.22 409.715C213.92 410.495 215.42 411.495 218.24 410.855L218.54 410.825C218.09 410.045 217.914 409.137 218.04 408.245C218.103 407.785 218.259 407.342 218.5 406.945C218.613 406.728 218.78 406.544 218.985 406.41C219.19 406.277 219.426 406.2 219.67 406.185C219.436 406.505 219.278 406.874 219.21 407.265C219.14 407.625 219.08 407.995 219.03 408.385C218.949 409.213 218.785 410.03 218.54 410.825L220.22 410.675C220.127 410.064 220.144 409.44 220.27 408.835C220.416 408.221 220.707 407.652 221.12 407.175C221.532 406.688 222.039 406.29 222.61 406.005C223.167 405.786 223.691 405.493 224.17 405.135C225.131 404.441 225.918 403.534 226.47 402.485C226.934 401.378 227.266 400.22 227.46 399.035C228.512 394.272 229.191 389.434 229.49 384.565C229.89 379.695 229.96 374.805 229.91 369.915C229.9 367.465 229.82 365.025 229.71 362.575C229.63 360.125 229.47 357.685 229.3 355.235C230.03 360.093 230.491 364.987 230.68 369.895C230.882 374.808 230.818 379.729 230.49 384.635C230.151 389.552 229.389 394.43 228.21 399.215C227.958 400.444 227.562 401.639 227.03 402.775C226.4 403.882 225.519 404.827 224.46 405.535C223.933 405.878 223.365 406.154 222.77 406.355C222.224 406.583 221.731 406.92 221.32 407.345C220.909 407.789 220.597 408.316 220.407 408.89C220.218 409.465 220.154 410.074 220.22 410.675C220.22 410.675 220.56 411.825 222.52 412.475C222.189 411.597 222.151 410.637 222.41 409.735C222.545 409.258 222.784 408.818 223.11 408.445C223.273 408.233 223.502 408.081 223.761 408.014C224.02 407.947 224.295 407.968 224.54 408.075C224.356 408.146 224.191 408.256 224.054 408.398C223.918 408.539 223.814 408.709 223.75 408.895C223.598 409.255 223.475 409.626 223.38 410.005C223.168 410.853 222.88 411.679 222.52 412.475C224.056 412.915 225.666 413.034 227.25 412.825C226.921 412.473 226.714 412.024 226.66 411.545C226.603 411.065 226.647 410.577 226.79 410.115C226.935 409.664 227.174 409.25 227.492 408.898C227.809 408.546 228.197 408.266 228.63 408.075C228.49 408.535 228.31 408.925 228.16 409.305C228.01 409.695 227.86 410.055 227.74 410.425C227.49 411.205 227.329 412.01 227.26 412.825C228.598 412.705 229.925 412.484 231.23 412.165C231.23 412.165 235.7 411.645 236.15 401.975C236.962 397.513 238.308 393.165 240.16 389.025L243.29 378.385C243.72 375.255 244.39 372.205 245.06 369.155L246.1 364.595C246.42 363.065 246.82 361.565 247.01 360.005C247.163 361.581 247.116 363.171 246.87 364.735C246.67 366.295 246.36 367.835 246.03 369.375C245.361 372.447 244.444 375.46 243.29 378.385C243.29 378.385 243.74 386.795 252.14 395.795C251.005 390.915 250.362 385.933 250.22 380.925C250.054 375.869 250.803 370.825 252.43 366.035C254.154 361.21 257.383 357.067 261.64 354.215C265.926 351.49 270.96 350.182 276.03 350.475C273.542 350.528 271.075 350.932 268.7 351.675C266.338 352.384 264.101 353.457 262.07 354.855C260.058 356.254 258.282 357.966 256.81 359.925C255.363 361.905 254.205 364.08 253.37 366.385C251.743 371.058 250.938 375.977 250.99 380.925C250.965 383.409 251.065 385.892 251.29 388.365C251.42 389.605 251.49 390.855 251.66 392.085L252.14 395.795C252.14 395.795 250.14 399.595 243.59 399.885C243.59 399.885 239.57 400.265 239.12 405.325C239.12 405.325 238.9 408.195 245.45 408.915C245.45 408.915 252.37 410.255 256.54 407.875L260.5 408.075H261.97C260.873 405.444 260.237 402.643 260.09 399.795C259.784 394.656 260.639 389.514 262.594 384.751C264.549 379.988 267.552 375.727 271.38 372.285C282.2 362.435 293.64 362.615 296.89 362.895C295.18 349.365 290.25 334.255 277.97 323.935ZM220 253.735C220 253.735 219.48 254.625 220.22 256.715C220.22 256.715 213.82 255.075 219.33 244.805C219.33 244.805 220.22 252.395 222.9 255.965C221.809 255.4 220.827 254.645 220 253.735V253.735ZM245.97 269.805C240.02 271.295 238.97 266.085 238.97 266.085C245.22 265.645 245.97 269.805 245.97 269.805V269.805ZM223.64 276.655C227.197 275.796 230.82 275.235 234.47 274.975C236.296 274.83 238.129 274.78 239.96 274.825C241.806 274.804 243.639 275.123 245.37 275.765C244.481 275.589 243.576 275.512 242.67 275.535C241.77 275.525 240.87 275.575 239.96 275.605C238.16 275.695 236.35 275.835 234.54 275.965C230.92 276.235 227.3 276.545 223.64 276.655ZM226.92 283.355C228.148 282.242 229.508 281.285 230.97 280.505C232.432 279.712 233.965 279.059 235.55 278.555C237.134 278.048 238.766 277.702 240.42 277.525C242.065 277.337 243.727 277.343 245.37 277.545C243.73 277.765 242.12 277.955 240.54 278.295C238.953 278.606 237.387 279.014 235.85 279.515C234.307 279.995 232.791 280.559 231.31 281.205C229.83 281.855 228.36 282.545 226.92 283.355V283.355ZM238.9 283.275C236.6 284.825 234.35 286.445 231.98 287.965C233.865 285.87 236.001 284.016 238.34 282.445C240.642 280.798 243.229 279.591 245.97 278.885C243.5 280.235 241.19 281.715 238.9 283.275L238.9 283.275Z" fill="black"/>
<path d="M226.955 245.979C226.955 245.979 226.955 246.012 226.959 246.07C226.955 246.041 226.955 246.012 226.951 245.983L226.955 245.979Z" fill="white"/>
<path d="M242.471 266.408C242.754 266.64 242.975 266.938 243.114 267.277C243.236 267.55 243.298 267.846 243.298 268.146C243.3 268.445 243.238 268.741 243.116 269.014C242.977 269.353 242.755 269.652 242.471 269.883C242.187 269.652 241.965 269.353 241.826 269.014C241.704 268.741 241.642 268.445 241.644 268.146C241.644 267.846 241.706 267.55 241.828 267.277C241.967 266.938 242.188 266.64 242.471 266.408Z" fill="black"/>
<path d="M226.951 245.983C227.057 247.075 227.205 248.156 227.395 249.228C227.584 250.3 227.797 251.368 228.085 252.417C228.342 253.473 228.654 254.516 229.022 255.539C229.363 256.574 229.803 257.571 230.226 258.584C229.072 256.705 228.215 254.659 227.685 252.519C227.125 250.387 226.878 248.186 226.951 245.983Z" fill="black"/>
<path d="M343.894 264.871C344.68 262.986 345.779 261.248 347.144 259.731C348.505 258.162 350.171 256.887 352.041 255.983C352.988 255.536 353.986 255.205 355.012 255C356.04 254.815 357.087 254.761 358.129 254.839C360.175 255.026 362.171 255.574 364.026 256.457C365.891 257.262 367.645 258.301 369.248 259.548C370.88 260.797 372.286 262.317 373.403 264.043C374.564 265.797 375.282 267.808 375.496 269.901C375.699 272.082 375.041 274.256 373.661 275.957L373.649 275.973C373.615 276.017 373.573 276.055 373.527 276.085C372.218 276.989 370.663 277.467 369.073 277.454C368.247 277.4 367.451 277.122 366.77 276.65C366.123 276.182 365.586 275.577 365.2 274.877C364.871 274.27 364.489 273.693 364.058 273.153C363.601 272.63 363.102 272.092 362.614 271.574C362.118 271.058 361.624 270.538 361.113 270.04C360.855 269.792 360.594 269.549 360.32 269.326C360.185 269.214 360.044 269.11 359.897 269.013C359.762 268.926 359.574 268.828 359.482 268.882L359.461 268.895C359.448 268.903 359.432 268.905 359.417 268.902C359.402 268.898 359.389 268.889 359.381 268.876C359.373 268.863 359.37 268.847 359.373 268.832C359.376 268.817 359.385 268.804 359.397 268.795C359.628 268.639 359.825 268.781 359.992 268.834C360.161 268.911 360.324 269 360.48 269.101C360.791 269.297 361.086 269.512 361.377 269.731C361.958 270.169 362.516 270.635 363.056 271.117C363.601 271.602 364.126 272.076 364.665 272.593C365.189 273.131 365.648 273.728 366.034 274.372C366.347 274.922 366.794 275.383 367.335 275.711C367.876 276.039 368.492 276.223 369.124 276.246C370.432 276.196 371.698 275.772 372.773 275.024L372.639 275.152C373.819 273.693 374.416 271.849 374.316 269.975C374.158 268.05 373.573 266.185 372.603 264.516C370.686 261.007 367.592 258.287 363.866 256.836C362.035 256.094 360.077 255.714 358.101 255.718C356.167 255.748 354.259 256.169 352.491 256.957C348.954 258.738 346.006 261.504 344.005 264.923C344.001 264.93 343.996 264.936 343.99 264.941C343.983 264.946 343.976 264.95 343.969 264.952C343.961 264.955 343.953 264.955 343.945 264.955C343.937 264.954 343.929 264.952 343.922 264.948C343.91 264.94 343.9 264.928 343.895 264.914C343.89 264.9 343.89 264.885 343.894 264.871Z" fill="black"/>
<path d="M403.741 262.914C401.537 263.298 399.412 264.045 397.452 265.125C395.454 266.133 393.523 267.274 391.618 268.45C387.796 270.791 384.099 273.335 380.455 275.948C376.812 278.564 373.208 281.234 369.642 283.96C366.078 286.682 362.566 289.483 359.073 292.288L359.068 292.292C358.989 292.356 358.893 292.396 358.792 292.407C358.691 292.419 358.589 292.401 358.498 292.357C358.406 292.313 358.329 292.244 358.275 292.158C358.221 292.072 358.193 291.972 358.193 291.87L358.243 279.552L358.374 267.233L358.635 267.577L355.426 266.722C354.358 266.432 353.265 266.25 352.185 266.008C351.105 265.755 350.002 265.657 348.911 265.474C347.816 265.322 346.709 265.28 345.608 265.196C343.405 265.101 341.199 265.298 339.048 265.784C338.513 265.907 337.989 266.07 337.479 266.271C336.965 266.458 336.466 266.684 335.986 266.947C335.029 267.445 334.211 268.174 333.609 269.069L333.627 269.007C333.174 273.29 332.81 277.584 332.535 281.888C332.25 286.193 332.095 290.489 332.104 294.8C332.083 303.417 332.301 312.041 332.536 320.656L332.532 320.6C332.703 321.43 333.003 322.228 333.421 322.965C333.638 323.337 333.883 323.692 334.154 324.026L334.563 324.525C334.713 324.679 334.877 324.82 335.033 324.968C336.341 326.122 337.915 326.933 339.614 327.327C343.149 327.963 346.782 327.813 350.253 326.887C352.007 326.489 353.796 326.015 355.58 325.542L360.948 324.228L371.707 321.767C378.878 320.144 386.067 318.622 393.153 316.713C394.933 316.263 396.681 315.712 398.446 315.214C400.183 314.636 401.949 314.129 403.653 313.464C407.122 312.316 410.415 310.695 413.44 308.645L413.448 308.639C413.502 308.6 413.568 308.584 413.633 308.594C413.698 308.605 413.756 308.64 413.795 308.693C413.827 308.737 413.843 308.789 413.842 308.843L413.653 320.45C413.653 320.466 413.646 320.482 413.635 320.493C413.623 320.504 413.608 320.51 413.592 320.51C413.576 320.51 413.561 320.504 413.55 320.493C413.538 320.482 413.532 320.466 413.531 320.45L413.342 308.843L413.745 309.041C410.725 311.201 407.412 312.916 403.905 314.134C402.194 314.836 400.431 315.376 398.69 315.988C396.925 316.52 395.174 317.105 393.397 317.588C386.308 319.602 379.15 321.341 371.979 322.967L361.24 325.456L355.899 326.781C354.129 327.251 352.369 327.736 350.534 328.143C346.869 329.086 343.042 329.206 339.325 328.494C337.434 328.038 335.686 327.117 334.24 325.814C332.778 324.471 331.79 322.69 331.423 320.739L331.419 320.703L331.419 320.683C331.329 316.367 331.313 312.053 331.297 307.738C331.289 303.423 331.308 299.107 331.393 294.791C331.454 290.476 331.692 286.152 332.052 281.854C332.391 277.552 332.758 273.254 333.248 268.963L333.25 268.946C333.252 268.929 333.257 268.914 333.266 268.9C334.588 266.911 336.806 265.983 338.947 265.395C341.133 264.881 343.378 264.659 345.623 264.736C347.857 264.833 350.082 265.071 352.286 265.449C353.38 265.668 354.49 265.829 355.573 266.098L358.829 266.888C358.902 266.906 358.968 266.948 359.015 267.008C359.063 267.067 359.089 267.141 359.09 267.217V267.233L359.222 279.552L359.271 291.87L358.391 291.453C361.878 288.603 365.449 285.875 369.035 283.161C372.631 280.461 376.251 277.79 379.96 275.243C383.668 272.697 387.429 270.221 391.317 267.948C393.268 266.825 395.251 265.751 397.298 264.804C399.317 263.782 401.491 263.102 403.733 262.792C403.749 262.791 403.765 262.796 403.777 262.806C403.789 262.816 403.797 262.83 403.799 262.846C403.801 262.862 403.796 262.878 403.786 262.89C403.776 262.903 403.762 262.911 403.746 262.913L403.741 262.914Z" fill="black"/>
<path d="M369.192 247.939L372.303 255.301L375.328 262.698L374.979 262.429C377.732 262.62 380.498 262.388 383.18 261.741C385.846 261.126 388.332 259.895 390.436 258.147C392.483 256.344 393.97 253.991 394.72 251.368C395.47 248.703 395.747 245.928 395.538 243.167L395.537 243.143L395.539 243.116C395.675 242.525 395.97 241.982 396.392 241.546C396.814 241.11 397.347 240.798 397.933 240.641C399.016 240.332 400.145 240.213 401.27 240.29C403.474 240.31 405.673 240.5 407.848 240.858C414.422 241.917 420.625 244.606 425.891 248.68L428.418 250.84C428.843 251.196 429.24 251.583 429.607 251.999L430.748 253.208C432.266 254.826 433.664 256.552 434.93 258.373C435.589 259.265 436.097 260.255 436.688 261.192C437.24 262.151 437.875 263.069 438.358 264.064L439.786 267.061C440.294 268.045 440.742 269.058 441.129 270.095C441.864 272.177 442.656 274.254 443.342 276.34L447.354 288.859C448.706 293.027 450.141 297.165 451.616 301.288C452.365 303.345 453.146 305.391 453.98 307.413C454.397 308.424 454.826 309.431 455.303 310.413C455.724 311.408 456.288 312.336 456.979 313.168L457.009 313.198C457.019 313.209 457.024 313.223 457.025 313.237C457.025 313.252 457.019 313.266 457.009 313.276C456.999 313.287 456.985 313.293 456.97 313.294C456.956 313.294 456.942 313.289 456.931 313.279C456.16 312.475 455.521 311.554 455.037 310.551C454.503 309.587 454.018 308.599 453.545 307.606C452.588 305.624 451.759 303.588 450.922 301.556C449.261 297.487 447.758 293.358 446.303 289.215C444.828 285.079 443.483 280.899 442.143 276.72C441.448 274.643 440.664 272.624 439.931 270.574C439.556 269.554 439.127 268.556 438.644 267.583L437.28 264.623C436.819 263.64 436.209 262.738 435.681 261.791C435.114 260.867 434.629 259.888 433.995 259.009L432.079 256.381C431.456 255.494 430.766 254.655 430.016 253.873L428.932 252.659C428.585 252.242 428.207 251.852 427.8 251.492L425.385 249.309C423.702 247.936 421.909 246.701 420.026 245.618C416.242 243.435 412.097 241.948 407.788 241.227C405.633 240.88 403.451 240.716 401.268 240.738C400.199 240.671 399.126 240.801 398.104 241.122C397.63 241.263 397.201 241.526 396.861 241.885C396.521 242.245 396.282 242.687 396.168 243.169V243.118C396.486 245.964 396.299 248.844 395.617 251.625C394.891 254.461 393.333 257.015 391.142 258.957C388.916 260.828 386.262 262.12 383.416 262.717C380.62 263.367 377.738 263.556 374.881 263.276C374.804 263.268 374.73 263.239 374.669 263.191C374.607 263.144 374.56 263.08 374.533 263.007L371.762 255.512L369.078 247.983C369.073 247.968 369.073 247.951 369.08 247.937C369.087 247.922 369.098 247.911 369.113 247.905C369.128 247.9 369.145 247.9 369.159 247.906C369.174 247.912 369.185 247.924 369.192 247.939V247.939Z" fill="black"/>
<path d="M356.652 245.333C352.306 246.742 348.14 248.65 344.235 251.021C340.322 253.339 336.702 256.12 333.453 259.302C330.201 262.459 327.419 266.066 325.19 270.012C322.969 273.993 320.718 278.01 318.386 281.94C316.057 285.875 313.648 289.767 311.641 293.833C310.614 295.834 309.806 297.941 309.232 300.116C308.642 302.239 308.689 304.488 309.368 306.585C310.215 308.643 311.573 310.451 313.313 311.839C315.025 313.314 316.915 314.568 318.94 315.57C323.042 317.577 327.432 318.929 331.952 319.578C329.668 319.374 327.405 318.976 325.188 318.387C322.957 317.817 320.78 317.054 318.681 316.107C316.576 315.133 314.603 313.895 312.812 312.421C311.919 311.669 311.085 310.85 310.317 309.97C309.547 309.056 308.931 308.024 308.492 306.913C307.679 304.652 307.58 302.195 308.208 299.876C308.782 297.619 309.599 295.431 310.645 293.35C312.658 289.192 315.039 285.273 317.341 281.322C319.708 277.402 321.962 273.454 324.23 269.465C326.519 265.437 329.411 261.783 332.807 258.631C339.551 252.319 347.738 247.754 356.652 245.333Z" fill="black"/>
<path d="M315.479 296.579C316.541 295.558 317.726 294.674 319.008 293.948C320.286 293.202 321.637 292.588 323.039 292.114C324.458 291.653 325.929 291.373 327.419 291.281C328.909 291.212 330.397 291.449 331.792 291.978C330.362 291.928 328.93 292.011 327.515 292.225C326.128 292.482 324.759 292.831 323.418 293.269C322.071 293.704 320.754 294.239 319.434 294.792C318.119 295.36 316.81 295.957 315.479 296.579Z" fill="black"/>
<path d="M413.592 308.843C415.196 307.579 416.695 306.23 418.177 304.864C419.646 303.485 421.081 302.073 422.48 300.627C423.883 299.184 425.244 297.698 426.601 296.201C427.958 294.703 429.277 293.168 430.675 291.671C429.687 293.461 428.57 295.177 427.333 296.805C426.101 298.439 424.772 299.998 423.353 301.473C421.926 302.944 420.401 304.317 418.79 305.585C417.192 306.872 415.447 307.965 413.592 308.843Z" fill="black"/>
<path d="M408.336 260.882C410.535 260.405 412.8 260.325 415.027 260.646C417.287 260.95 419.47 261.673 421.465 262.778C422.459 263.345 423.4 264 424.276 264.736C425.118 265.506 425.88 266.36 426.549 267.284C426.904 267.727 427.22 268.198 427.494 268.694L428.267 270.2C428.508 270.707 428.706 271.233 428.859 271.773C429.04 272.302 429.206 272.834 429.361 273.365C428.409 271.395 427.215 269.551 425.807 267.876C425.11 267.062 424.349 266.306 423.53 265.614C422.694 264.95 421.805 264.356 420.87 263.839C418.99 262.792 416.964 262.03 414.861 261.577C412.718 261.109 410.53 260.876 408.336 260.882Z" fill="black"/>
<path d="M339.937 366.858L333.715 376.34C331.642 379.502 329.548 382.65 327.435 385.784C327.386 385.857 327.32 385.915 327.241 385.955C327.163 385.994 327.076 386.012 326.989 386.008C326.901 386.004 326.816 385.977 326.742 385.93C326.668 385.884 326.608 385.819 326.566 385.742L326.548 385.708C325.044 383.016 323.187 380.537 321.028 378.335C318.872 376.111 316.536 374.068 314.044 372.229C312.76 371.361 311.515 370.437 310.165 369.67C309.497 369.278 308.851 368.849 308.165 368.486L306.106 367.405C305.428 367.029 304.724 366.704 304.013 366.394L301.892 365.439C300.458 364.846 298.994 364.327 297.548 363.768L297.53 363.761C297.334 363.685 297.176 363.536 297.087 363.345C296.999 363.154 296.989 362.936 297.058 362.738C298.491 358.637 300.014 354.568 301.494 350.483C302.98 346.401 304.465 342.319 306.004 338.256L315.146 313.845C315.179 313.756 315.247 313.683 315.333 313.644C315.42 313.604 315.519 313.601 315.608 313.634C315.628 313.642 315.647 313.651 315.666 313.662C318.166 315.141 320.793 316.395 323.515 317.409C326.218 318.464 329.066 319.1 331.961 319.294C332.033 319.297 332.101 319.327 332.151 319.378C332.201 319.43 332.23 319.499 332.231 319.57L332.232 319.591C332.283 320.581 332.56 321.545 333.041 322.411C333.525 323.297 334.143 324.103 334.872 324.801C335.605 325.506 336.409 326.133 337.272 326.67L338.603 327.427L339.992 328.082L339.998 328.085C340.055 328.112 340.104 328.154 340.138 328.207C340.172 328.26 340.19 328.322 340.191 328.385L340.664 375.63L340.781 399.253C340.836 407.127 340.83 415.001 340.806 422.875V422.88C340.805 423.037 340.765 423.192 340.69 423.33C340.201 424.179 339.504 424.891 338.666 425.399C337.898 425.877 337.067 426.245 336.197 426.491C334.55 426.957 332.853 427.226 331.143 427.292C327.82 427.426 324.492 427.283 321.193 426.866C314.672 426.013 308.203 424.795 301.817 423.22C295.431 421.713 289.119 419.94 282.845 418.056C276.568 416.181 270.344 414.143 264.173 411.942L264.168 411.94C264.139 411.93 264.113 411.912 264.094 411.888C263.184 410.739 262.441 409.468 261.886 408.111C261.877 408.089 261.877 408.065 261.886 408.042C261.895 408.02 261.912 408.003 261.934 407.993C261.956 407.983 261.981 407.983 262.003 407.991C262.026 408 262.044 408.017 262.054 408.038C262.65 409.349 263.428 410.569 264.366 411.662L264.287 411.608C270.531 413.551 276.826 415.332 283.128 417.064C289.437 418.776 295.777 420.344 302.149 421.77C308.498 423.225 314.922 424.325 321.393 425.064C324.591 425.447 327.815 425.572 331.034 425.438C332.596 425.373 334.145 425.125 335.649 424.698C337.023 424.393 338.231 423.58 339.03 422.421L338.914 422.875C338.89 415.001 338.884 407.127 338.939 399.253L339.057 375.63L339.529 328.385L339.728 328.688L338.304 328.003L336.932 327.21C336.035 326.641 335.2 325.98 334.442 325.237C333.674 324.49 333.026 323.629 332.52 322.685C331.995 321.724 331.703 320.653 331.669 319.559L331.938 319.857C330.461 319.761 328.993 319.554 327.547 319.236C326.11 318.901 324.694 318.485 323.304 317.99C320.529 316.989 317.849 315.744 315.294 314.268L315.814 314.086L307.29 338.719C305.885 342.83 304.425 346.922 302.967 351.014C301.501 355.103 300.079 359.209 298.568 363.282L298.079 362.252C299.553 362.839 301.044 363.384 302.504 364.005L304.665 365.005C305.389 365.329 306.106 365.67 306.798 366.062L308.896 367.191C309.593 367.57 310.253 368.015 310.934 368.425C312.307 369.225 313.578 370.185 314.884 371.089C317.435 372.992 319.801 375.132 321.949 377.48C324.134 379.82 325.994 382.443 327.478 385.28L326.592 385.204C328.767 382.113 330.957 379.031 333.16 375.959L339.786 366.754C339.8 366.735 339.821 366.722 339.845 366.717C339.868 366.713 339.892 366.719 339.912 366.732C339.932 366.746 339.945 366.766 339.95 366.79C339.954 366.813 339.95 366.838 339.937 366.858L339.937 366.858Z" fill="black"/>
<path d="M317.377 390.166C319.2 389.402 321.102 388.844 323.048 388.501C325.001 388.124 326.987 387.955 328.975 387.997C330.983 388.022 332.976 388.356 334.882 388.987C336.789 389.621 338.503 390.73 339.862 392.21C338.257 391.145 336.481 390.362 334.611 389.897C334.143 389.803 333.679 389.704 333.218 389.595L331.802 389.406C331.333 389.326 330.853 389.311 330.378 389.275C329.902 389.24 329.426 389.202 328.945 389.213C327.021 389.167 325.095 389.242 323.179 389.437C321.252 389.622 319.323 389.865 317.377 390.166Z" fill="black"/>
<path d="M299.941 363.794C296.993 370.503 293.719 377.041 290.364 383.538C286.977 390.019 283.508 396.456 279.709 402.722C282.654 396.012 285.928 389.474 289.285 382.978C292.675 376.499 296.144 370.061 299.941 363.794Z" fill="black"/>
<path d="M304.383 409.146C307.252 404.148 310.418 399.356 313.667 394.62C316.945 389.904 320.295 385.239 323.953 380.786C321.087 385.785 317.917 390.576 314.667 395.311C311.387 400.024 308.039 404.692 304.383 409.146Z" fill="black"/>
<path d="M295.48 434.335C299.6 434.095 303.71 433.795 307.82 433.475C307.462 435.185 306.651 436.767 305.47 438.055C305.47 438.055 238.17 444.625 228.1 439.365C228.1 439.365 224.59 430.825 230.94 427.765C233.05 426.745 237.76 424.875 243.56 422.425C245.308 422.713 247.01 423.234 248.62 423.975C250.219 424.707 251.702 425.671 253.02 426.835C253.671 427.418 254.276 428.05 254.83 428.725C255.358 429.416 255.829 430.149 256.24 430.915C257.051 432.453 257.633 434.1 257.97 435.805L257.98 435.815C258.001 435.912 258.056 435.998 258.135 436.059C258.213 436.119 258.311 436.15 258.41 436.145L270.77 435.645L283.13 435.045C287.25 434.855 291.36 434.585 295.48 434.335Z" fill="black"/>
<path d="M304.38 409.145C284.16 419.145 279.71 402.725 279.71 402.725C276.598 405.399 273.236 407.767 269.67 409.795C270.491 409.832 271.295 410.04 272.03 410.405C272.812 410.781 273.525 411.284 274.14 411.895C274.75 412.502 275.257 413.204 275.64 413.975C276.024 414.738 276.264 415.565 276.35 416.415C275.86 415.715 275.46 415.015 274.97 414.385C274.508 413.749 273.993 413.154 273.43 412.605C272.88 412.046 272.281 411.537 271.64 411.085C270.996 410.62 270.321 410.199 269.62 409.825C268 410.785 266.323 411.725 264.59 412.645C265.366 412.693 266.125 412.897 266.82 413.245C268.388 413.996 269.656 415.254 270.42 416.815C270.808 417.577 271.049 418.405 271.13 419.255C270.65 418.545 270.24 417.855 269.76 417.225C269.295 416.589 268.78 415.99 268.22 415.435C267.664 414.879 267.062 414.37 266.421 413.915C265.798 413.461 265.142 413.054 264.46 412.695C262.691 413.635 260.88 414.555 259.06 415.445C259.915 415.467 260.754 415.675 261.52 416.055C263.091 416.81 264.363 418.071 265.131 419.635C265.514 420.395 265.754 421.219 265.841 422.065C265.361 421.365 264.95 420.665 264.46 420.035C264.002 419.4 263.49 418.804 262.93 418.255C262.377 417.696 261.775 417.187 261.131 416.735C260.472 416.256 259.781 415.825 259.06 415.445C253.71 418.055 248.27 420.435 243.56 422.425C245.342 422.591 247.091 423.015 248.75 423.685C250.427 424.346 251.986 425.271 253.37 426.425C254.068 427.004 254.717 427.64 255.31 428.326C255.885 429.03 256.404 429.779 256.861 430.565C257.709 432.034 258.333 433.622 258.71 435.275L270.731 434.665L283.091 434.155C287.21 433.965 291.33 433.855 295.45 433.735C299.571 433.605 303.7 433.535 307.821 433.475C310.08 424.275 304.38 409.145 304.38 409.145ZM295.04 427.335C291.17 427.335 291.18 421.335 295.04 421.335C298.91 421.335 298.9 427.335 295.04 427.335Z" fill="black"/>
<path d="M264.57 412.645C264.53 412.665 264.5 412.675 264.46 412.695C264.42 412.675 264.39 412.655 264.35 412.635C264.424 412.633 264.497 412.637 264.57 412.645Z" fill="white"/>
<path d="M269.67 409.795C269.65 409.805 269.64 409.815 269.62 409.825C269.6 409.815 269.59 409.805 269.57 409.795H269.67Z" fill="white"/>
<path d="M339.861 328.386C339.861 328.386 331.977 332.058 365.266 335.562L476.811 317.749L459.291 311.033L339.861 328.386Z" fill="black"/>
<path d="M339.953 328.386C340.134 336.966 340.292 345.545 340.371 354.125C340.464 362.704 340.571 371.283 340.586 379.862C340.611 388.442 340.693 397.021 340.669 405.6C340.64 414.18 340.625 422.759 340.502 431.338L340.08 430.737L358.109 437.514C364.111 439.795 370.152 441.967 376.171 444.199L376.008 444.187C380.981 443.176 385.937 442.089 390.898 441.024L405.773 437.787L435.5 431.213C445.409 429.018 455.319 426.828 465.242 424.704C475.165 422.578 485.074 420.384 495.008 418.313L494.253 419.347C493.383 410.782 492.411 402.222 491.338 393.666C490.274 385.116 489.206 376.565 487.953 368.041C486.69 359.52 485.378 351.003 483.736 342.55C482.907 338.327 482.018 334.113 480.972 329.94C480.019 325.745 478.597 321.671 476.732 317.795L476.729 317.79C476.718 317.769 476.716 317.744 476.723 317.721C476.73 317.699 476.746 317.679 476.767 317.668C476.788 317.656 476.812 317.654 476.836 317.66C476.859 317.667 476.878 317.682 476.89 317.703C478.901 321.538 480.472 325.588 481.575 329.776C482.786 333.926 483.786 338.131 484.709 342.35C486.557 350.788 488.091 359.288 489.448 367.812C490.805 376.337 492.069 384.876 493.162 393.436C494.252 401.999 495.252 410.572 496.162 419.156C496.186 419.389 496.124 419.623 495.987 419.814C495.849 420.004 495.647 420.137 495.418 420.187L495.406 420.19C485.484 422.324 475.537 424.334 465.604 426.412C455.671 428.492 445.724 430.507 435.777 432.517L405.936 438.556L391.026 441.627C386.059 442.664 381.087 443.678 376.132 444.77C376.077 444.781 376.021 444.777 375.968 444.758C369.918 442.61 363.89 440.403 357.822 438.303L339.643 431.94C339.522 431.898 339.416 431.819 339.34 431.715C339.265 431.61 339.223 431.485 339.221 431.356L339.221 431.338C339.098 422.759 339.083 414.18 339.054 405.601C339.03 397.021 339.112 388.442 339.137 379.863C339.152 371.283 339.259 362.704 339.352 354.125C339.431 345.545 339.589 336.966 339.77 328.387C339.771 328.363 339.781 328.34 339.798 328.323C339.815 328.307 339.838 328.297 339.861 328.297C339.885 328.297 339.908 328.307 339.925 328.323C339.942 328.34 339.952 328.363 339.953 328.387L339.953 328.386Z" fill="black"/>
<path d="M365.266 335.562C365.777 339.957 366.21 344.357 366.684 348.754L367.975 361.955C368.817 370.761 369.573 379.557 370.355 388.384C370.985 397.213 371.494 406.045 371.881 414.882L372.372 428.141C372.478 432.563 372.614 436.983 372.655 441.407L370.946 414.931C370.373 406.109 369.867 397.282 369.143 388.477L367.047 362.036L366.093 348.803C365.819 344.389 365.503 339.978 365.266 335.562Z" fill="black"/>
<path d="M343.374 429.011C344.588 429.047 345.789 428.743 346.84 428.132C347.863 427.516 348.704 426.639 349.278 425.592C350.362 423.433 350.883 421.036 350.795 418.622C350.993 413.689 351.124 408.753 351.41 403.822L352.383 389.036C352.673 384.107 352.884 379.174 353.018 374.238C353.02 374.167 353.049 374.1 353.099 374.05C353.149 374 353.216 373.971 353.287 373.969C353.357 373.968 353.426 373.993 353.479 374.04C353.531 374.088 353.563 374.154 353.569 374.224L353.57 374.238L354.73 390.557L355.828 406.875L356.376 415.029C356.467 416.386 356.566 417.744 356.687 419.094C356.747 419.769 356.812 420.446 356.899 421.106C356.938 421.432 356.995 421.778 357.054 422.042L357.093 422.194L357.21 422.442C357.293 422.609 357.356 422.769 357.424 422.93C357.905 424.191 358.452 425.425 359.064 426.628C359.692 427.815 360.426 428.944 361.257 429.999C362.947 432.122 364.893 434.027 367.053 435.669C367.06 435.674 367.065 435.68 367.069 435.687C367.073 435.694 367.076 435.701 367.077 435.709C367.078 435.717 367.077 435.725 367.075 435.733C367.073 435.741 367.07 435.748 367.065 435.754C367.056 435.767 367.042 435.775 367.026 435.777C367.011 435.78 366.995 435.777 366.982 435.768C364.678 434.267 362.587 432.461 360.767 430.4C358.971 428.291 357.539 425.898 356.531 423.318C356.463 423.167 356.395 423.011 356.322 422.875L356.216 422.664L356.094 422.331C356.003 421.977 355.931 421.619 355.879 421.257C355.768 420.568 355.684 419.889 355.603 419.208C355.443 417.846 355.305 416.487 355.175 415.127C354.934 412.406 354.718 409.684 354.53 406.963C354.152 401.519 353.902 396.068 353.625 390.621C353.363 385.172 353.192 379.719 353.018 374.266L353.57 374.267C353.25 379.192 353.009 384.122 352.846 389.056L352.459 403.858C352.292 408.79 351.971 413.717 351.715 418.646C351.714 421.192 351.058 423.695 349.81 425.914C349.155 427.012 348.199 427.898 347.055 428.469C345.911 429.039 344.628 429.269 343.357 429.132C343.342 429.129 343.328 429.121 343.318 429.109C343.309 429.097 343.304 429.082 343.305 429.066C343.307 429.051 343.314 429.037 343.325 429.026C343.337 429.016 343.352 429.01 343.367 429.011L343.374 429.011Z" fill="black"/>
<path d="M397.338 330.44C397.338 330.44 415.886 326.196 416.264 367.441C416.305 372.002 416.472 378.211 417.534 382.647C419.716 391.757 424.316 402.213 430.16 393.354C432.121 390.312 433.127 386.752 433.046 383.133C432.987 378.271 431.818 371.012 426.294 365.346C417.146 355.96 419.505 353.082 420.381 347.826C421.257 342.57 423.406 339.028 417.534 333.591L411.662 328.153L422.133 326.481C427.9 328.204 432.719 335.27 432.427 341.694C432.379 342.734 432.301 343.796 432.204 344.847C431.594 351.373 433.255 357.91 436.907 363.353C440.763 369.089 444.983 377.248 444.983 385.494C444.983 400.678 428.338 421.411 413.592 404.985C398.846 388.56 404.394 385.494 404.978 361.55C405.562 337.606 381.336 332.995 381.336 332.995L397.338 330.44Z" fill="black"/>
<path d="M357.471 199.044C355.251 203.633 353.611 208.48 352.589 213.474C352.398 214.726 352.304 215.992 352.307 217.259C352.253 218.554 352.157 219.848 351.987 221.136C351.869 222.45 351.492 223.728 350.877 224.895C350.5 225.431 350.066 225.924 349.584 226.367C349.194 226.793 348.964 227.341 348.935 227.918C348.937 228.174 349.016 228.423 349.162 228.633C349.307 228.843 349.512 229.004 349.75 229.096C349.972 229.207 350.33 229.325 350.625 229.461C350.999 229.605 351.33 229.842 351.588 230.148C351.81 230.485 351.948 230.87 351.989 231.271C352.044 231.611 352.078 231.929 352.118 232.25C352.197 232.887 352.261 233.52 352.355 234.147C352.666 236.639 353.313 239.078 354.277 241.398C355.211 243.659 356.895 245.66 359.381 245.755C361.933 245.99 364.487 246.246 367.054 246.586L367.061 246.587C367.076 246.589 367.09 246.596 367.1 246.608C367.109 246.62 367.114 246.635 367.113 246.65C367.113 246.665 367.106 246.68 367.095 246.69C367.084 246.701 367.07 246.707 367.054 246.708C364.484 246.769 361.902 246.748 359.317 246.705C358.976 246.702 358.636 246.668 358.302 246.602L357.776 246.517C357.606 246.467 357.438 246.407 357.276 246.337C356.608 246.094 355.992 245.729 355.458 245.261C354.439 244.336 353.633 243.202 353.096 241.936C352.07 239.502 351.437 236.921 351.219 234.289C351.147 233.64 351.091 232.993 351.049 232.349C351.063 231.793 350.98 231.239 350.804 230.712C350.648 230.523 350.449 230.374 350.223 230.279C349.945 230.122 349.694 230.024 349.352 229.825C349.012 229.634 348.727 229.359 348.523 229.026C348.326 228.684 348.238 228.289 348.27 227.896C348.348 227.178 348.677 226.512 349.198 226.014C349.443 225.756 349.721 225.573 349.932 225.368C350.152 225.156 350.348 224.92 350.516 224.665C351.147 223.572 351.516 222.348 351.595 221.089C351.706 219.817 351.718 218.537 351.63 217.263C351.505 215.961 351.49 214.65 351.585 213.345C351.921 210.747 352.629 208.212 353.688 205.816C354.697 203.428 355.928 201.14 357.365 198.983C357.37 198.977 357.376 198.971 357.382 198.966C357.389 198.962 357.397 198.959 357.404 198.958C357.412 198.956 357.42 198.956 357.428 198.958C357.436 198.959 357.443 198.963 357.45 198.967C357.462 198.976 357.47 198.988 357.474 199.002C357.478 199.016 357.477 199.031 357.471 199.044Z" fill="black"/>
<path d="M348.712 216.384C349.459 218.174 350.083 220.007 350.773 221.818C351.382 223.657 352.055 225.473 352.605 227.334C352.611 227.354 352.611 227.375 352.605 227.395C352.599 227.415 352.587 227.433 352.57 227.446C352.554 227.46 352.534 227.468 352.513 227.47C352.492 227.471 352.471 227.467 352.453 227.457L352.376 227.415C351.395 226.87 350.541 226.123 349.87 225.222C349.277 224.436 348.808 223.562 348.481 222.633C348.152 221.704 347.966 220.73 347.929 219.745C347.882 218.625 348.071 217.508 348.483 216.465L348.516 216.385C348.523 216.365 348.537 216.348 348.554 216.336C348.572 216.325 348.592 216.318 348.613 216.318C348.635 216.318 348.655 216.324 348.673 216.336C348.69 216.347 348.704 216.364 348.712 216.384L348.712 216.384Z" fill="black"/>
<path d="M377.567 223.135C377.555 223.135 377.542 223.134 377.529 223.132C377.49 223.127 377.452 223.115 377.417 223.095C377.382 223.075 377.351 223.049 377.327 223.018C377.302 222.986 377.284 222.95 377.273 222.912C377.263 222.873 377.26 222.833 377.265 222.793C377.281 222.611 377.258 222.427 377.197 222.254C377.135 222.082 377.037 221.924 376.909 221.793C373.416 217.692 348.834 216.738 348.586 216.728C348.505 216.725 348.429 216.69 348.374 216.631C348.319 216.572 348.29 216.493 348.293 216.412C348.291 216.371 348.297 216.33 348.312 216.292C348.328 216.254 348.351 216.219 348.382 216.192C348.412 216.164 348.448 216.143 348.487 216.13C348.526 216.118 348.568 216.115 348.609 216.12C349.632 216.157 373.708 217.096 377.373 221.399C377.556 221.594 377.695 221.826 377.78 222.079C377.866 222.333 377.896 222.601 377.868 222.867C377.859 222.941 377.824 223.009 377.768 223.058C377.713 223.107 377.641 223.135 377.567 223.135Z" fill="black"/>
<path d="M375.678 232.532C382.029 239.869 395.853 243.143 395.853 243.143C402.095 240.296 402.204 215.22 400.124 200.875C398.043 186.53 380.523 190.034 375.982 191.677C371.44 193.32 357.826 194.853 357.826 194.853C357.826 194.853 361.032 222.228 367.821 223.651C367.821 223.651 373.756 217.487 375.757 222.321C376.076 223.131 376.207 224.002 376.141 224.87L375.678 232.532Z" fill="black"/>
<path d="M372.692 236.075C371.656 236.019 370.652 235.697 369.778 235.139C369.708 235.099 369.656 235.033 369.635 234.955C369.614 234.877 369.625 234.794 369.665 234.724C369.705 234.654 369.772 234.603 369.849 234.582C369.927 234.561 370.01 234.571 370.08 234.612C371.61 235.487 372.849 235.69 373.767 235.219C375.19 234.483 375.412 232.33 375.414 232.309C375.417 232.269 375.428 232.23 375.447 232.194C375.465 232.159 375.491 232.127 375.522 232.101C375.553 232.076 375.588 232.057 375.627 232.046C375.666 232.034 375.706 232.031 375.746 232.035C375.786 232.039 375.824 232.051 375.86 232.07C375.895 232.088 375.926 232.114 375.952 232.145C375.977 232.175 375.996 232.211 376.008 232.249C376.02 232.287 376.024 232.328 376.02 232.367C376.01 232.469 375.761 234.872 374.046 235.759C373.627 235.973 373.162 236.081 372.692 236.075Z" fill="black"/>
<path d="M352.01 235.771C352.23 236.372 352.634 236.888 353.165 237.247C353.424 237.392 353.709 237.482 354.004 237.513C354.299 237.545 354.597 237.516 354.881 237.429C356.117 237.02 357.3 236.463 358.404 235.771C357.523 236.842 356.342 237.626 355.013 238.022C354.653 238.125 354.275 238.144 353.907 238.077C353.539 238.009 353.192 237.858 352.892 237.634C352.62 237.404 352.401 237.12 352.249 236.798C352.096 236.477 352.015 236.126 352.01 235.771Z" fill="black"/>
<path d="M353.878 223.359C354.351 223.343 354.799 223.143 355.128 222.803C355.456 222.462 355.64 222.008 355.64 221.534C355.64 221.061 355.456 220.606 355.128 220.266C354.799 219.925 354.351 219.726 353.878 219.709C353.405 219.726 352.957 219.925 352.628 220.266C352.299 220.606 352.115 221.061 352.115 221.534C352.115 222.008 352.299 222.462 352.628 222.803C352.957 223.143 353.405 223.343 353.878 223.359Z" fill="black"/>
<path d="M286.133 404.401C286.606 404.385 287.054 404.185 287.383 403.845C287.712 403.504 287.895 403.05 287.895 402.576C287.895 402.103 287.712 401.648 287.383 401.308C287.054 400.967 286.606 400.768 286.133 400.751C285.66 400.768 285.212 400.967 284.883 401.308C284.554 401.648 284.37 402.103 284.37 402.576C284.37 403.05 284.554 403.504 284.883 403.845C285.212 404.185 285.66 404.385 286.133 404.401Z" fill="black"/>
<path d="M303.434 396.955C303.907 396.939 304.355 396.739 304.684 396.399C305.013 396.058 305.197 395.604 305.197 395.13C305.197 394.657 305.013 394.202 304.684 393.862C304.355 393.521 303.907 393.322 303.434 393.305C302.961 393.322 302.513 393.521 302.184 393.862C301.855 394.202 301.672 394.657 301.672 395.13C301.672 395.604 301.855 396.058 302.184 396.399C302.513 396.739 302.961 396.939 303.434 396.955Z" fill="black"/>
<path d="M296.645 410.533C297.118 410.517 297.566 410.317 297.895 409.977C298.224 409.636 298.407 409.182 298.407 408.708C298.407 408.235 298.224 407.78 297.895 407.44C297.566 407.099 297.118 406.9 296.645 406.883C296.172 406.9 295.724 407.099 295.395 407.44C295.066 407.78 294.883 408.235 294.883 408.708C294.883 409.182 295.066 409.636 295.395 409.977C295.724 410.317 296.172 410.517 296.645 410.533Z" fill="black"/>
<path d="M293.36 387.1C293.833 387.084 294.281 386.884 294.61 386.544C294.939 386.203 295.122 385.748 295.122 385.275C295.122 384.802 294.939 384.347 294.61 384.007C294.281 383.666 293.833 383.467 293.36 383.45C292.887 383.467 292.439 383.666 292.11 384.007C291.781 384.347 291.598 384.802 291.598 385.275C291.598 385.748 291.781 386.203 292.11 386.544C292.439 386.884 292.887 387.084 293.36 387.1Z" fill="black"/>
<path d="M312.851 382.939C313.324 382.923 313.772 382.723 314.101 382.383C314.43 382.042 314.614 381.587 314.614 381.114C314.614 380.641 314.43 380.186 314.101 379.846C313.772 379.505 313.324 379.306 312.851 379.289C312.378 379.306 311.93 379.505 311.601 379.846C311.273 380.186 311.089 380.641 311.089 381.114C311.089 381.587 311.273 382.042 311.601 382.383C311.93 382.723 312.378 382.923 312.851 382.939Z" fill="black"/>
<path d="M301.463 373.084C301.936 373.068 302.384 372.868 302.713 372.528C303.042 372.187 303.226 371.732 303.226 371.259C303.226 370.786 303.042 370.331 302.713 369.99C302.384 369.65 301.936 369.45 301.463 369.434C300.99 369.45 300.542 369.65 300.213 369.99C299.884 370.331 299.701 370.786 299.701 371.259C299.701 371.732 299.884 372.187 300.213 372.528C300.542 372.868 300.99 373.068 301.463 373.084Z" fill="black"/>
<path d="M302.339 385.567C302.812 385.551 303.26 385.351 303.589 385.011C303.918 384.67 304.102 384.215 304.102 383.742C304.102 383.269 303.918 382.814 303.589 382.474C303.26 382.133 302.812 381.934 302.339 381.917C301.866 381.934 301.418 382.133 301.089 382.474C300.76 382.814 300.577 383.269 300.577 383.742C300.577 384.215 300.76 384.67 301.089 385.011C301.418 385.351 301.866 385.551 302.339 385.567Z" fill="black"/>
<path d="M293.798 398.05C294.271 398.034 294.719 397.834 295.048 397.494C295.377 397.153 295.56 396.699 295.56 396.225C295.56 395.752 295.377 395.297 295.048 394.957C294.719 394.616 294.271 394.417 293.798 394.4C293.325 394.417 292.877 394.616 292.548 394.957C292.219 395.297 292.036 395.752 292.036 396.225C292.036 396.699 292.219 397.153 292.548 397.494C292.877 397.834 293.325 398.034 293.798 398.05Z" fill="black"/>
<path d="M310.047 400.934L308.039 403.848C307.655 403.683 307.338 403.393 307.14 403.025C306.942 402.656 306.876 402.232 306.952 401.82C307.027 401.409 307.241 401.036 307.557 400.762C307.873 400.488 308.272 400.33 308.69 400.313C308.949 400.303 309.207 400.353 309.443 400.461C309.678 400.569 309.885 400.731 310.047 400.934Z" fill="black"/>
<path d="M316.708 391.286L314.658 394.254C314.408 393.998 314.238 393.674 314.169 393.323C314.1 392.971 314.134 392.608 314.267 392.275C314.4 391.943 314.627 391.656 314.92 391.451C315.213 391.245 315.56 391.128 315.917 391.115C316.191 391.111 316.461 391.169 316.708 391.286Z" fill="black"/>
<path d="M344.242 342.351C344.715 342.334 345.163 342.135 345.491 341.794C345.82 341.454 346.004 340.999 346.004 340.526C346.004 340.052 345.82 339.598 345.491 339.257C345.163 338.917 344.715 338.717 344.242 338.701C343.769 338.717 343.32 338.917 342.992 339.257C342.663 339.598 342.479 340.052 342.479 340.526C342.479 340.999 342.663 341.454 342.992 341.794C343.32 342.135 343.769 342.334 344.242 342.351Z" fill="black"/>
<path d="M352.71 348.191C353.183 348.174 353.631 347.975 353.96 347.634C354.288 347.294 354.472 346.839 354.472 346.366C354.472 345.892 354.288 345.438 353.96 345.097C353.631 344.757 353.183 344.557 352.71 344.541C352.237 344.557 351.788 344.757 351.46 345.097C351.131 345.438 350.947 345.892 350.947 346.366C350.947 346.839 351.131 347.294 351.46 347.634C351.788 347.975 352.237 348.174 352.71 348.191Z" fill="black"/>
<path d="M361.47 341.767C361.943 341.75 362.391 341.551 362.72 341.21C363.048 340.87 363.232 340.415 363.232 339.942C363.232 339.468 363.048 339.014 362.72 338.673C362.391 338.333 361.943 338.133 361.47 338.117C360.997 338.133 360.549 338.333 360.22 338.673C359.891 339.014 359.707 339.468 359.707 339.942C359.707 340.415 359.891 340.87 360.22 341.21C360.549 341.551 360.997 341.75 361.47 341.767Z" fill="black"/>
<path d="M345.118 358.995C345.591 358.978 346.039 358.779 346.367 358.438C346.696 358.098 346.88 357.643 346.88 357.17C346.88 356.697 346.696 356.242 346.367 355.901C346.039 355.561 345.591 355.361 345.118 355.345C344.645 355.361 344.196 355.561 343.868 355.901C343.539 356.242 343.355 356.697 343.355 357.17C343.355 357.643 343.539 358.098 343.868 358.438C344.196 358.779 344.645 358.978 345.118 358.995Z" fill="black"/>
<path d="M361.47 357.827C361.943 357.81 362.391 357.611 362.72 357.27C363.048 356.93 363.232 356.475 363.232 356.002C363.232 355.529 363.048 355.074 362.72 354.733C362.391 354.393 361.943 354.193 361.47 354.177C360.997 354.193 360.549 354.393 360.22 354.733C359.891 355.074 359.707 355.529 359.707 356.002C359.707 356.475 359.891 356.93 360.22 357.27C360.549 357.611 360.997 357.81 361.47 357.827Z" fill="black"/>
<path d="M353.294 366.295C353.767 366.278 354.215 366.079 354.544 365.738C354.872 365.398 355.056 364.943 355.056 364.47C355.056 363.997 354.872 363.542 354.544 363.201C354.215 362.861 353.767 362.661 353.294 362.645C352.821 362.661 352.373 362.861 352.044 363.201C351.715 363.542 351.531 363.997 351.531 364.47C351.531 364.943 351.715 365.398 352.044 365.738C352.373 366.079 352.821 366.278 353.294 366.295Z" fill="black"/>
<path d="M345.702 375.055C346.175 375.038 346.623 374.839 346.951 374.499C347.28 374.158 347.464 373.703 347.464 373.23C347.464 372.757 347.28 372.302 346.951 371.961C346.623 371.621 346.175 371.421 345.702 371.405C345.229 371.421 344.78 371.621 344.452 371.961C344.123 372.302 343.939 372.757 343.939 373.23C343.939 373.703 344.123 374.158 344.452 374.499C344.78 374.839 345.229 375.038 345.702 375.055Z" fill="black"/>
<path d="M362.346 375.639C362.819 375.623 363.267 375.423 363.596 375.083C363.924 374.742 364.108 374.287 364.108 373.814C364.108 373.341 363.924 372.886 363.596 372.545C363.267 372.205 362.819 372.006 362.346 371.989C361.873 372.006 361.425 372.205 361.096 372.545C360.767 372.886 360.583 373.341 360.583 373.814C360.583 374.287 360.767 374.742 361.096 375.083C361.425 375.423 361.873 375.623 362.346 375.639Z" fill="black"/>
<path d="M346.578 390.239C347.051 390.223 347.499 390.023 347.827 389.683C348.156 389.342 348.34 388.887 348.34 388.414C348.34 387.941 348.156 387.486 347.827 387.146C347.499 386.805 347.051 386.606 346.578 386.589C346.105 386.606 345.656 386.805 345.328 387.146C344.999 387.486 344.815 387.941 344.815 388.414C344.815 388.887 344.999 389.342 345.328 389.683C345.656 390.023 346.105 390.223 346.578 390.239Z" fill="black"/>
<path d="M362.346 390.823C362.819 390.807 363.267 390.607 363.596 390.267C363.924 389.926 364.108 389.471 364.108 388.998C364.108 388.525 363.924 388.07 363.596 387.73C363.267 387.389 362.819 387.19 362.346 387.173C361.873 387.19 361.425 387.389 361.096 387.73C360.767 388.07 360.583 388.525 360.583 388.998C360.583 389.471 360.767 389.926 361.096 390.267C361.425 390.607 361.873 390.807 362.346 390.823Z" fill="black"/>
<path d="M345.994 403.671C346.467 403.655 346.915 403.455 347.243 403.115C347.572 402.774 347.756 402.32 347.756 401.846C347.756 401.373 347.572 400.918 347.243 400.578C346.915 400.237 346.467 400.038 345.994 400.021C345.521 400.038 345.072 400.237 344.744 400.578C344.415 400.918 344.231 401.373 344.231 401.846C344.231 402.32 344.415 402.774 344.744 403.115C345.072 403.455 345.521 403.655 345.994 403.671Z" fill="black"/>
<path d="M362.346 405.131C362.819 405.115 363.267 404.915 363.596 404.575C363.924 404.234 364.108 403.78 364.108 403.306C364.108 402.833 363.924 402.378 363.596 402.038C363.267 401.697 362.819 401.498 362.346 401.481C361.873 401.498 361.425 401.697 361.096 402.038C360.767 402.378 360.583 402.833 360.583 403.306C360.583 403.78 360.767 404.234 361.096 404.575C361.425 404.915 361.873 405.115 362.346 405.131Z" fill="black"/>
<path d="M346.286 418.563C346.759 418.547 347.207 418.347 347.535 418.007C347.864 417.667 348.048 417.212 348.048 416.738C348.048 416.265 347.864 415.81 347.535 415.47C347.207 415.129 346.759 414.93 346.286 414.913C345.813 414.93 345.364 415.129 345.036 415.47C344.707 415.81 344.523 416.265 344.523 416.738C344.523 417.212 344.707 417.667 345.036 418.007C345.364 418.347 345.813 418.547 346.286 418.563Z" fill="black"/>
<path d="M362.638 419.147C363.111 419.131 363.559 418.931 363.888 418.591C364.216 418.251 364.4 417.796 364.4 417.322C364.4 416.849 364.216 416.394 363.888 416.054C363.559 415.713 363.111 415.514 362.638 415.497C362.165 415.514 361.717 415.713 361.388 416.054C361.059 416.394 360.875 416.849 360.875 417.322C360.875 417.796 361.059 418.251 361.388 418.591C361.717 418.931 362.165 419.131 362.638 419.147Z" fill="black"/>
<path d="M354.17 429.66C354.643 429.643 355.091 429.444 355.42 429.103C355.748 428.763 355.932 428.308 355.932 427.835C355.932 427.361 355.748 426.906 355.42 426.566C355.091 426.226 354.643 426.026 354.17 426.01C353.697 426.026 353.249 426.226 352.92 426.566C352.591 426.906 352.407 427.361 352.407 427.835C352.407 428.308 352.591 428.763 352.92 429.103C353.249 429.444 353.697 429.643 354.17 429.66Z" fill="black"/>
<path d="M366.434 431.996C366.907 431.979 367.355 431.78 367.684 431.439C368.012 431.099 368.196 430.644 368.196 430.171C368.196 429.697 368.012 429.243 367.684 428.902C367.355 428.562 366.907 428.362 366.434 428.346C365.961 428.362 365.513 428.562 365.184 428.902C364.855 429.243 364.671 429.697 364.671 430.171C364.671 430.644 364.855 431.099 365.184 431.439C365.513 431.78 365.961 431.979 366.434 431.996Z" fill="black"/>
<path d="M371.106 347.315C371.579 347.298 372.027 347.099 372.356 346.758C372.685 346.418 372.868 345.963 372.868 345.49C372.868 345.016 372.685 344.562 372.356 344.221C372.027 343.881 371.579 343.681 371.106 343.665C370.633 343.681 370.185 343.881 369.856 344.221C369.527 344.562 369.343 345.016 369.343 345.49C369.343 345.963 369.527 346.418 369.856 346.758C370.185 347.099 370.633 347.298 371.106 347.315Z" fill="black"/>
<path d="M378.698 340.599C379.171 340.582 379.619 340.383 379.948 340.042C380.277 339.702 380.46 339.247 380.46 338.774C380.46 338.3 380.277 337.846 379.948 337.505C379.619 337.165 379.171 336.965 378.698 336.949C378.225 336.965 377.777 337.165 377.448 337.505C377.119 337.846 376.935 338.3 376.935 338.774C376.935 339.247 377.119 339.702 377.448 340.042C377.777 340.383 378.225 340.582 378.698 340.599Z" fill="black"/>
<path d="M388.042 345.271C388.515 345.254 388.963 345.055 389.292 344.714C389.621 344.374 389.804 343.919 389.804 343.446C389.804 342.972 389.621 342.518 389.292 342.177C388.963 341.837 388.515 341.637 388.042 341.621C387.569 341.637 387.121 341.837 386.792 342.177C386.463 342.518 386.28 342.972 386.28 343.446C386.28 343.919 386.463 344.374 386.792 344.714C387.121 345.055 387.569 345.254 388.042 345.271Z" fill="black"/>
<path d="M381.618 352.863C382.091 352.846 382.539 352.647 382.868 352.306C383.197 351.966 383.38 351.511 383.38 351.038C383.38 350.564 383.197 350.11 382.868 349.769C382.539 349.429 382.091 349.229 381.618 349.213C381.145 349.229 380.697 349.429 380.368 349.769C380.039 350.11 379.856 350.564 379.856 351.038C379.856 351.511 380.039 351.966 380.368 352.306C380.697 352.647 381.145 352.846 381.618 352.863Z" fill="black"/>
<path d="M376.07 364.543C376.543 364.526 376.991 364.327 377.32 363.986C377.649 363.646 377.832 363.191 377.832 362.718C377.832 362.245 377.649 361.79 377.32 361.449C376.991 361.109 376.543 360.909 376.07 360.893C375.597 360.909 375.149 361.109 374.82 361.449C374.491 361.79 374.307 362.245 374.307 362.718C374.307 363.191 374.491 363.646 374.82 363.986C375.149 364.327 375.597 364.526 376.07 364.543Z" fill="black"/>
<path d="M392.714 361.039C393.187 361.022 393.635 360.823 393.964 360.482C394.293 360.142 394.477 359.687 394.477 359.214C394.477 358.741 394.293 358.286 393.964 357.945C393.635 357.605 393.187 357.405 392.714 357.389C392.241 357.405 391.793 357.605 391.464 357.945C391.135 358.286 390.952 358.741 390.952 359.214C390.952 359.687 391.135 360.142 391.464 360.482C391.793 360.823 392.241 361.022 392.714 361.039Z" fill="black"/>
<path d="M386.29 370.091C386.763 370.075 387.211 369.875 387.54 369.535C387.869 369.194 388.052 368.739 388.052 368.266C388.052 367.793 387.869 367.338 387.54 366.997C387.211 366.657 386.763 366.458 386.29 366.441C385.817 366.458 385.369 366.657 385.04 366.997C384.711 367.338 384.528 367.793 384.528 368.266C384.528 368.739 384.711 369.194 385.04 369.535C385.369 369.875 385.817 370.075 386.29 370.091Z" fill="black"/>
<path d="M378.114 379.143C378.587 379.127 379.035 378.927 379.364 378.587C379.693 378.246 379.876 377.791 379.876 377.318C379.876 376.845 379.693 376.39 379.364 376.049C379.035 375.709 378.587 375.51 378.114 375.493C377.641 375.51 377.193 375.709 376.864 376.049C376.535 376.39 376.351 376.845 376.351 377.318C376.351 377.791 376.535 378.246 376.864 378.587C377.193 378.927 377.641 379.127 378.114 379.143Z" fill="black"/>
<path d="M395.342 375.347C395.815 375.33 396.263 375.131 396.592 374.791C396.921 374.45 397.105 373.995 397.105 373.522C397.105 373.049 396.921 372.594 396.592 372.253C396.263 371.913 395.815 371.713 395.342 371.697C394.869 371.713 394.421 371.913 394.092 372.253C393.763 372.594 393.58 373.049 393.58 373.522C393.58 373.995 393.763 374.45 394.092 374.791C394.421 375.131 394.869 375.33 395.342 375.347Z" fill="black"/>
<path d="M388.626 385.859C389.099 385.843 389.547 385.643 389.876 385.303C390.205 384.962 390.388 384.507 390.388 384.034C390.388 383.561 390.205 383.106 389.876 382.766C389.547 382.425 389.099 382.226 388.626 382.209C388.153 382.226 387.705 382.425 387.376 382.766C387.047 383.106 386.864 383.561 386.864 384.034C386.864 384.507 387.047 384.962 387.376 385.303C387.705 385.643 388.153 385.843 388.626 385.859Z" fill="black"/>
<path d="M379.282 394.327C379.755 394.311 380.203 394.111 380.532 393.771C380.861 393.43 381.044 392.975 381.044 392.502C381.044 392.029 380.861 391.574 380.532 391.234C380.203 390.893 379.755 390.694 379.282 390.677C378.809 390.694 378.361 390.893 378.032 391.234C377.703 391.574 377.519 392.029 377.519 392.502C377.519 392.975 377.703 393.43 378.032 393.771C378.361 394.111 378.809 394.311 379.282 394.327Z" fill="black"/>
<path d="M392.13 402.211C392.603 402.195 393.051 401.995 393.38 401.655C393.709 401.314 393.893 400.86 393.893 400.386C393.893 399.913 393.709 399.458 393.38 399.118C393.051 398.777 392.603 398.578 392.13 398.561C391.657 398.578 391.209 398.777 390.88 399.118C390.551 399.458 390.368 399.913 390.368 400.386C390.368 400.86 390.551 401.314 390.88 401.655C391.209 401.995 391.657 402.195 392.13 402.211Z" fill="black"/>
<path d="M398.262 390.823C398.735 390.807 399.183 390.607 399.512 390.267C399.841 389.926 400.025 389.471 400.025 388.998C400.025 388.525 399.841 388.07 399.512 387.73C399.183 387.389 398.735 387.19 398.262 387.173C397.789 387.19 397.341 387.389 397.012 387.73C396.683 388.07 396.5 388.525 396.5 388.998C396.5 389.471 396.683 389.926 397.012 390.267C397.341 390.607 397.789 390.807 398.262 390.823Z" fill="black"/>
<path d="M381.618 408.927C382.091 408.911 382.539 408.711 382.868 408.371C383.197 408.03 383.38 407.576 383.38 407.102C383.38 406.629 383.197 406.174 382.868 405.834C382.539 405.493 382.091 405.294 381.618 405.277C381.145 405.294 380.697 405.493 380.368 405.834C380.039 406.174 379.856 406.629 379.856 407.102C379.856 407.576 380.039 408.03 380.368 408.371C380.697 408.711 381.145 408.911 381.618 408.927Z" fill="black"/>
<path d="M395.05 418.271C395.523 418.255 395.971 418.055 396.3 417.715C396.629 417.375 396.812 416.92 396.812 416.446C396.812 415.973 396.629 415.518 396.3 415.178C395.971 414.837 395.523 414.638 395.05 414.621C394.577 414.638 394.129 414.837 393.8 415.178C393.471 415.518 393.288 415.973 393.288 416.446C393.288 416.92 393.471 417.375 393.8 417.715C394.129 418.055 394.577 418.255 395.05 418.271Z" fill="black"/>
<path d="M403.81 404.839C404.283 404.823 404.731 404.623 405.06 404.283C405.389 403.942 405.573 403.488 405.573 403.014C405.573 402.541 405.389 402.086 405.06 401.746C404.731 401.405 404.283 401.206 403.81 401.189C403.337 401.206 402.889 401.405 402.56 401.746C402.231 402.086 402.048 402.541 402.048 403.014C402.048 403.488 402.231 403.942 402.56 404.283C402.889 404.623 403.337 404.823 403.81 404.839Z" fill="black"/>
<path d="M383.078 427.324C383.551 427.307 383.999 427.108 384.328 426.767C384.657 426.427 384.84 425.972 384.84 425.499C384.84 425.025 384.657 424.57 384.328 424.23C383.999 423.89 383.551 423.69 383.078 423.674C382.605 423.69 382.157 423.89 381.828 424.23C381.499 424.57 381.316 425.025 381.316 425.499C381.316 425.972 381.499 426.427 381.828 426.767C382.157 427.108 382.605 427.307 383.078 427.324Z" fill="black"/>
<path d="M397.386 436.084C397.859 436.067 398.307 435.868 398.636 435.527C398.965 435.187 399.149 434.732 399.149 434.259C399.149 433.785 398.965 433.331 398.636 432.99C398.307 432.65 397.859 432.45 397.386 432.434C396.913 432.45 396.465 432.65 396.136 432.99C395.807 433.331 395.624 433.785 395.624 434.259C395.624 434.732 395.807 435.187 396.136 435.527C396.465 435.868 396.913 436.067 397.386 436.084Z" fill="black"/>
<path d="M385.122 441.924C385.595 441.907 386.043 441.708 386.372 441.367C386.701 441.027 386.884 440.572 386.884 440.099C386.884 439.625 386.701 439.171 386.372 438.83C386.043 438.49 385.595 438.29 385.122 438.274C384.649 438.29 384.201 438.49 383.872 438.83C383.543 439.171 383.36 439.625 383.36 440.099C383.36 440.572 383.543 441.027 383.872 441.367C384.201 441.708 384.649 441.907 385.122 441.924Z" fill="black"/>
<path d="M408.482 426.448C408.955 426.431 409.403 426.232 409.732 425.891C410.061 425.551 410.245 425.096 410.245 424.623C410.245 424.149 410.061 423.694 409.732 423.354C409.403 423.014 408.955 422.814 408.482 422.798C408.009 422.814 407.561 423.014 407.232 423.354C406.904 423.694 406.72 424.149 406.72 424.623C406.72 425.096 406.904 425.551 407.232 425.891C407.561 426.232 408.009 426.431 408.482 426.448Z" fill="black"/>
<path d="M417.534 417.687C418.007 417.671 418.455 417.471 418.784 417.131C419.113 416.791 419.297 416.336 419.297 415.862C419.297 415.389 419.113 414.934 418.784 414.594C418.455 414.253 418.007 414.054 417.534 414.037C417.061 414.054 416.613 414.253 416.284 414.594C415.956 414.934 415.772 415.389 415.772 415.862C415.772 416.336 415.956 416.791 416.284 417.131C416.613 417.471 417.061 417.671 417.534 417.687Z" fill="black"/>
<path d="M422.498 432.872C422.971 432.855 423.42 432.656 423.748 432.315C424.077 431.975 424.261 431.52 424.261 431.047C424.261 430.573 424.077 430.119 423.748 429.778C423.42 429.438 422.971 429.238 422.498 429.222C422.025 429.238 421.577 429.438 421.249 429.778C420.92 430.119 420.736 430.573 420.736 431.047C420.736 431.52 420.92 431.975 421.249 432.315C421.577 432.656 422.025 432.855 422.498 432.872Z" fill="black"/>
<path d="M430.09 422.36C430.563 422.343 431.012 422.144 431.34 421.803C431.669 421.463 431.853 421.008 431.853 420.535C431.853 420.061 431.669 419.606 431.34 419.266C431.012 418.926 430.563 418.726 430.09 418.71C429.617 418.726 429.169 418.926 428.841 419.266C428.512 419.606 428.328 420.061 428.328 420.535C428.328 421.008 428.512 421.463 428.841 421.803C429.169 422.144 429.617 422.343 430.09 422.36Z" fill="black"/>
<path d="M440.019 411.555C440.492 411.539 440.94 411.339 441.268 410.999C441.597 410.659 441.781 410.204 441.781 409.73C441.781 409.257 441.597 408.802 441.268 408.462C440.94 408.121 440.492 407.922 440.019 407.905C439.546 407.922 439.097 408.121 438.769 408.462C438.44 408.802 438.256 409.257 438.256 409.73C438.256 410.204 438.44 410.659 438.769 410.999C439.097 411.339 439.546 411.539 440.019 411.555Z" fill="black"/>
<path d="M444.107 426.74C444.58 426.723 445.028 426.524 445.357 426.183C445.685 425.843 445.869 425.388 445.869 424.915C445.869 424.441 445.685 423.986 445.357 423.646C445.028 423.306 444.58 423.106 444.107 423.09C443.634 423.106 443.186 423.306 442.857 423.646C442.528 423.986 442.344 424.441 442.344 424.915C442.344 425.388 442.528 425.843 442.857 426.183C443.186 426.524 443.634 426.723 444.107 426.74Z" fill="black"/>
<path d="M451.699 415.935C452.172 415.919 452.62 415.719 452.949 415.379C453.277 415.039 453.461 414.584 453.461 414.11C453.461 413.637 453.277 413.182 452.949 412.842C452.62 412.501 452.172 412.302 451.699 412.285C451.226 412.302 450.778 412.501 450.449 412.842C450.12 413.182 449.936 413.637 449.936 414.11C449.936 414.584 450.12 415.039 450.449 415.379C450.778 415.719 451.226 415.919 451.699 415.935Z" fill="black"/>
<path d="M459.583 405.423C460.056 405.407 460.504 405.207 460.833 404.867C461.161 404.526 461.345 404.072 461.345 403.598C461.345 403.125 461.161 402.67 460.833 402.33C460.504 401.989 460.056 401.79 459.583 401.773C459.11 401.79 458.662 401.989 458.333 402.33C458.004 402.67 457.82 403.125 457.82 403.598C457.82 404.072 458.004 404.526 458.333 404.867C458.662 405.207 459.11 405.407 459.583 405.423Z" fill="black"/>
<path d="M464.547 420.608C465.02 420.591 465.468 420.392 465.797 420.051C466.126 419.711 466.309 419.256 466.309 418.783C466.309 418.309 466.126 417.854 465.797 417.514C465.468 417.173 465.02 416.974 464.547 416.957C464.074 416.974 463.626 417.173 463.297 417.514C462.968 417.854 462.784 418.309 462.784 418.783C462.784 419.256 462.968 419.711 463.297 420.051C463.626 420.392 464.074 420.591 464.547 420.608Z" fill="black"/>
<path d="M469.511 410.679C469.984 410.663 470.432 410.463 470.761 410.123C471.09 409.782 471.273 409.328 471.273 408.854C471.273 408.381 471.09 407.926 470.761 407.586C470.432 407.245 469.984 407.046 469.511 407.029C469.038 407.046 468.59 407.245 468.261 407.586C467.932 407.926 467.748 408.381 467.748 408.854C467.748 409.328 467.932 409.782 468.261 410.123C468.59 410.463 469.038 410.663 469.511 410.679Z" fill="black"/>
<path d="M478.855 401.335C479.328 401.319 479.776 401.119 480.105 400.779C480.434 400.438 480.617 399.984 480.617 399.51C480.617 399.037 480.434 398.582 480.105 398.242C479.776 397.901 479.328 397.702 478.855 397.685C478.382 397.702 477.934 397.901 477.605 398.242C477.276 398.582 477.093 399.037 477.093 399.51C477.093 399.984 477.276 400.438 477.605 400.779C477.934 401.119 478.382 401.319 478.855 401.335Z" fill="black"/>
<path d="M484.111 418.271C484.584 418.255 485.032 418.055 485.361 417.715C485.69 417.375 485.874 416.92 485.874 416.446C485.874 415.973 485.69 415.518 485.361 415.178C485.032 414.837 484.584 414.638 484.111 414.621C483.638 414.638 483.19 414.837 482.861 415.178C482.532 415.518 482.349 415.973 482.349 416.446C482.349 416.92 482.532 417.375 482.861 417.715C483.19 418.055 483.638 418.255 484.111 418.271Z" fill="black"/>
<path d="M489.075 407.467C489.548 407.451 489.996 407.251 490.325 406.911C490.654 406.57 490.838 406.116 490.838 405.642C490.838 405.169 490.654 404.714 490.325 404.374C489.996 404.033 489.548 403.834 489.075 403.817C488.602 403.834 488.154 404.033 487.825 404.374C487.497 404.714 487.313 405.169 487.313 405.642C487.313 406.116 487.497 406.57 487.825 406.911C488.154 407.251 488.602 407.451 489.075 407.467Z" fill="black"/>
<path d="M465.715 395.787C466.188 395.771 466.636 395.571 466.965 395.231C467.294 394.89 467.477 394.436 467.477 393.962C467.477 393.489 467.294 393.034 466.965 392.694C466.636 392.353 466.188 392.154 465.715 392.137C465.242 392.154 464.794 392.353 464.465 392.694C464.136 393.034 463.952 393.489 463.952 393.962C463.952 394.436 464.136 394.89 464.465 395.231C464.794 395.571 465.242 395.771 465.715 395.787Z" fill="black"/>
<path d="M447.027 397.831C447.5 397.815 447.948 397.615 448.277 397.275C448.605 396.934 448.789 396.48 448.789 396.006C448.789 395.533 448.605 395.078 448.277 394.738C447.948 394.397 447.5 394.198 447.027 394.181C446.554 394.198 446.106 394.397 445.777 394.738C445.448 395.078 445.264 395.533 445.264 396.006C445.264 396.48 445.448 396.934 445.777 397.275C446.106 397.615 446.554 397.815 447.027 397.831Z" fill="black"/>
<path d="M454.327 386.735C454.8 386.719 455.248 386.519 455.577 386.179C455.905 385.838 456.089 385.383 456.089 384.91C456.089 384.437 455.905 383.982 455.577 383.642C455.248 383.301 454.8 383.102 454.327 383.085C453.854 383.102 453.406 383.301 453.077 383.642C452.748 383.982 452.564 384.437 452.564 384.91C452.564 385.383 452.748 385.838 453.077 386.179C453.406 386.519 453.854 386.719 454.327 386.735Z" fill="black"/>
<path d="M474.475 384.691C474.948 384.675 475.396 384.475 475.725 384.135C476.054 383.794 476.237 383.339 476.237 382.866C476.237 382.393 476.054 381.938 475.725 381.598C475.396 381.257 474.948 381.058 474.475 381.041C474.002 381.058 473.554 381.257 473.225 381.598C472.896 381.938 472.713 382.393 472.713 382.866C472.713 383.339 472.896 383.794 473.225 384.135C473.554 384.475 474.002 384.675 474.475 384.691Z" fill="black"/>
<path d="M486.447 390.239C486.92 390.223 487.368 390.023 487.697 389.683C488.026 389.342 488.209 388.887 488.209 388.414C488.209 387.941 488.026 387.486 487.697 387.146C487.368 386.805 486.92 386.606 486.447 386.589C485.974 386.606 485.526 386.805 485.197 387.146C484.868 387.486 484.685 387.941 484.685 388.414C484.685 388.887 484.868 389.342 485.197 389.683C485.526 390.023 485.974 390.223 486.447 390.239Z" fill="black"/>
<path d="M480.023 371.843C480.496 371.826 480.944 371.627 481.273 371.287C481.602 370.946 481.785 370.491 481.785 370.018C481.785 369.545 481.602 369.09 481.273 368.749C480.944 368.409 480.496 368.209 480.023 368.193C479.55 368.209 479.102 368.409 478.773 368.749C478.444 369.09 478.261 369.545 478.261 370.018C478.261 370.491 478.444 370.946 478.773 371.287C479.102 371.627 479.55 371.826 480.023 371.843Z" fill="black"/>
<path d="M462.503 373.887C462.976 373.87 463.424 373.671 463.753 373.331C464.081 372.99 464.265 372.535 464.265 372.062C464.265 371.589 464.081 371.134 463.753 370.793C463.424 370.453 462.976 370.253 462.503 370.237C462.03 370.253 461.582 370.453 461.253 370.793C460.924 371.134 460.74 371.589 460.74 372.062C460.74 372.535 460.924 372.99 461.253 373.331C461.582 373.671 462.03 373.87 462.503 373.887Z" fill="black"/>
<path d="M447.611 374.179C448.084 374.162 448.532 373.963 448.861 373.623C449.189 373.282 449.373 372.827 449.373 372.354C449.373 371.881 449.189 371.426 448.861 371.085C448.532 370.745 448.084 370.545 447.611 370.529C447.138 370.545 446.69 370.745 446.361 371.085C446.032 371.426 445.848 371.881 445.848 372.354C445.848 372.827 446.032 373.282 446.361 373.623C446.69 373.963 447.138 374.162 447.611 374.179Z" fill="black"/>
<path d="M451.991 362.499C452.464 362.482 452.912 362.283 453.241 361.942C453.569 361.602 453.753 361.147 453.753 360.674C453.753 360.201 453.569 359.746 453.241 359.405C452.912 359.065 452.464 358.865 451.991 358.849C451.518 358.865 451.07 359.065 450.741 359.405C450.412 359.746 450.228 360.201 450.228 360.674C450.228 361.147 450.412 361.602 450.741 361.942C451.07 362.283 451.518 362.482 451.991 362.499Z" fill="black"/>
<path d="M468.635 360.455C469.108 360.438 469.556 360.239 469.885 359.898C470.214 359.558 470.397 359.103 470.397 358.63C470.397 358.157 470.214 357.702 469.885 357.361C469.556 357.021 469.108 356.821 468.635 356.805C468.162 356.821 467.714 357.021 467.385 357.361C467.056 357.702 466.872 358.157 466.872 358.63C466.872 359.103 467.056 359.558 467.385 359.898C467.714 360.239 468.162 360.438 468.635 360.455Z" fill="black"/>
<path d="M435.931 362.791C436.404 362.774 436.852 362.575 437.18 362.234C437.509 361.894 437.693 361.439 437.693 360.966C437.693 360.493 437.509 360.038 437.18 359.697C436.852 359.357 436.404 359.157 435.931 359.141C435.458 359.157 435.009 359.357 434.681 359.697C434.352 360.038 434.168 360.493 434.168 360.966C434.168 361.439 434.352 361.894 434.681 362.234C435.009 362.575 435.458 362.774 435.931 362.791Z" fill="black"/>
<path d="M444.107 352.279C444.58 352.262 445.028 352.063 445.357 351.722C445.685 351.382 445.869 350.927 445.869 350.454C445.869 349.98 445.685 349.526 445.357 349.185C445.028 348.845 444.58 348.645 444.107 348.629C443.634 348.645 443.186 348.845 442.857 349.185C442.528 349.526 442.344 349.98 442.344 350.454C442.344 350.927 442.528 351.382 442.857 351.722C443.186 352.063 443.634 352.262 444.107 352.279Z" fill="black"/>
<path d="M459.291 352.571C459.764 352.554 460.212 352.355 460.541 352.014C460.869 351.674 461.053 351.219 461.053 350.746C461.053 350.272 460.869 349.818 460.541 349.477C460.212 349.137 459.764 348.937 459.291 348.921C458.818 348.937 458.37 349.137 458.041 349.477C457.712 349.818 457.528 350.272 457.528 350.746C457.528 351.219 457.712 351.674 458.041 352.014C458.37 352.355 458.818 352.554 459.291 352.571Z" fill="black"/>
<path d="M475.059 349.651C475.532 349.634 475.98 349.435 476.309 349.094C476.638 348.754 476.821 348.299 476.821 347.826C476.821 347.352 476.638 346.898 476.309 346.557C475.98 346.217 475.532 346.017 475.059 346.001C474.586 346.017 474.138 346.217 473.809 346.557C473.48 346.898 473.297 347.352 473.297 347.826C473.297 348.299 473.48 348.754 473.809 349.094C474.138 349.435 474.586 349.634 475.059 349.651Z" fill="black"/>
<path d="M484.987 357.535C485.46 357.518 485.908 357.319 486.237 356.978C486.566 356.638 486.75 356.183 486.75 355.71C486.75 355.237 486.566 354.782 486.237 354.441C485.908 354.101 485.46 353.901 484.987 353.885C484.514 353.901 484.066 354.101 483.737 354.441C483.408 354.782 483.225 355.237 483.225 355.71C483.225 356.183 483.408 356.638 483.737 356.978C484.066 357.319 484.514 357.518 484.987 357.535Z" fill="black"/>
<path d="M488.783 378.851C489.256 378.835 489.704 378.635 490.033 378.295C490.362 377.954 490.546 377.499 490.546 377.026C490.546 376.553 490.362 376.098 490.033 375.757C489.704 375.417 489.256 375.217 488.783 375.201C488.31 375.217 487.862 375.417 487.533 375.757C487.204 376.098 487.021 376.553 487.021 377.026C487.021 377.499 487.204 377.954 487.533 378.295C487.862 378.635 488.31 378.835 488.783 378.851Z" fill="black"/>
<path d="M465.423 341.183C465.896 341.166 466.344 340.967 466.673 340.626C467.002 340.286 467.185 339.831 467.185 339.358C467.185 338.884 467.002 338.43 466.673 338.089C466.344 337.749 465.896 337.549 465.423 337.533C464.95 337.549 464.502 337.749 464.173 338.089C463.844 338.43 463.66 338.884 463.66 339.358C463.66 339.831 463.844 340.286 464.173 340.626C464.502 340.967 464.95 341.166 465.423 341.183Z" fill="black"/>
<path d="M450.239 340.891C450.712 340.874 451.16 340.675 451.489 340.334C451.817 339.994 452.001 339.539 452.001 339.066C452.001 338.592 451.817 338.138 451.489 337.797C451.16 337.457 450.712 337.257 450.239 337.241C449.766 337.257 449.318 337.457 448.989 337.797C448.66 338.138 448.476 338.592 448.476 339.066C448.476 339.539 448.66 339.994 448.989 340.334C449.318 340.675 449.766 340.874 450.239 340.891Z" fill="black"/>
<path d="M433.01 344.103C433.484 344.086 433.932 343.887 434.26 343.546C434.589 343.206 434.773 342.751 434.773 342.278C434.773 341.804 434.589 341.35 434.26 341.009C433.932 340.669 433.484 340.469 433.01 340.453C432.537 340.469 432.089 340.669 431.761 341.009C431.432 341.35 431.248 341.804 431.248 342.278C431.248 342.751 431.432 343.206 431.761 343.546C432.089 343.887 432.537 344.086 433.01 344.103Z" fill="black"/>
<path d="M440.019 335.051C440.492 335.034 440.94 334.835 441.268 334.494C441.597 334.154 441.781 333.699 441.781 333.226C441.781 332.752 441.597 332.297 441.268 331.957C440.94 331.617 440.492 331.417 440.019 331.401C439.546 331.417 439.097 331.617 438.769 331.957C438.44 332.297 438.256 332.752 438.256 333.226C438.256 333.699 438.44 334.154 438.769 334.494C439.097 334.835 439.546 335.034 440.019 335.051Z" fill="black"/>
<path d="M456.371 331.255C456.844 331.238 457.292 331.039 457.621 330.698C457.949 330.358 458.133 329.903 458.133 329.43C458.133 328.956 457.949 328.501 457.621 328.161C457.292 327.821 456.844 327.621 456.371 327.605C455.898 327.621 455.45 327.821 455.121 328.161C454.792 328.501 454.608 328.956 454.608 329.43C454.608 329.903 454.792 330.358 455.121 330.698C455.45 331.039 455.898 331.238 456.371 331.255Z" fill="black"/>
<path d="M472.431 328.335C472.904 328.318 473.352 328.118 473.681 327.778C474.01 327.438 474.193 326.983 474.193 326.509C474.193 326.036 474.01 325.581 473.681 325.241C473.352 324.9 472.904 324.701 472.431 324.684C471.958 324.701 471.51 324.9 471.181 325.241C470.852 325.581 470.668 326.036 470.668 326.509C470.668 326.983 470.852 327.438 471.181 327.778C471.51 328.118 471.958 328.318 472.431 328.335Z" fill="black"/>
<path d="M477.103 334.759C477.576 334.742 478.024 334.543 478.353 334.202C478.682 333.862 478.865 333.407 478.865 332.934C478.865 332.46 478.682 332.005 478.353 331.665C478.024 331.325 477.576 331.125 477.103 331.109C476.63 331.125 476.182 331.325 475.853 331.665C475.524 332.005 475.341 332.46 475.341 332.934C475.341 333.407 475.524 333.862 475.853 334.202C476.182 334.543 476.63 334.742 477.103 334.759Z" fill="black"/>
<path d="M482.067 340.891C482.54 340.874 482.988 340.675 483.317 340.334C483.646 339.994 483.829 339.539 483.829 339.066C483.829 338.592 483.646 338.138 483.317 337.797C482.988 337.457 482.54 337.257 482.067 337.241C481.594 337.257 481.146 337.457 480.817 337.797C480.488 338.138 480.305 338.592 480.305 339.066C480.305 339.539 480.488 339.994 480.817 340.334C481.146 340.675 481.594 340.874 482.067 340.891Z" fill="black"/>
<path d="M446.151 325.414C446.624 325.398 447.072 325.198 447.401 324.858C447.729 324.518 447.913 324.063 447.913 323.589C447.913 323.116 447.729 322.661 447.401 322.321C447.072 321.98 446.624 321.781 446.151 321.764C445.678 321.781 445.229 321.98 444.901 322.321C444.572 322.661 444.388 323.116 444.388 323.589C444.388 324.063 444.572 324.518 444.901 324.858C445.229 325.198 445.678 325.398 446.151 325.414Z" fill="black"/>
<path d="M428.046 327.75C428.519 327.734 428.968 327.534 429.296 327.194C429.625 326.854 429.809 326.399 429.809 325.925C429.809 325.452 429.625 324.997 429.296 324.657C428.968 324.317 428.519 324.117 428.046 324.1C427.573 324.117 427.125 324.317 426.797 324.657C426.468 324.997 426.284 325.452 426.284 325.925C426.284 326.399 426.468 326.854 426.797 327.194C427.125 327.534 427.573 327.734 428.046 327.75Z" fill="black"/>
<path d="M462.795 321.91C463.268 321.894 463.716 321.694 464.045 321.354C464.373 321.014 464.557 320.559 464.557 320.085C464.557 319.612 464.373 319.157 464.045 318.817C463.716 318.476 463.268 318.277 462.795 318.26C462.322 318.277 461.874 318.476 461.545 318.817C461.216 319.157 461.032 319.612 461.032 320.085C461.032 320.559 461.216 321.014 461.545 321.354C461.874 321.694 462.322 321.894 462.795 321.91Z" fill="black"/>
<path d="M475.643 319.866C476.116 319.85 476.564 319.65 476.893 319.31C477.222 318.969 477.405 318.515 477.405 318.041C477.405 317.568 477.222 317.113 476.893 316.773C476.564 316.432 476.116 316.233 475.643 316.216C475.17 316.233 474.722 316.432 474.393 316.773C474.064 317.113 473.881 317.568 473.881 318.041C473.881 318.515 474.064 318.969 474.393 319.31C474.722 319.65 475.17 319.85 475.643 319.866Z" fill="black"/>
<path d="M410.234 334.467C410.707 334.45 411.155 334.251 411.484 333.91C411.813 333.57 411.997 333.115 411.997 332.642C411.997 332.168 411.813 331.713 411.484 331.373C411.155 331.033 410.707 330.833 410.234 330.817C409.761 330.833 409.313 331.033 408.984 331.373C408.656 331.713 408.472 332.168 408.472 332.642C408.472 333.115 408.656 333.57 408.984 333.91C409.313 334.251 409.761 334.45 410.234 334.467Z" fill="black"/>
<path d="M419.286 340.891C419.759 340.874 420.207 340.675 420.536 340.334C420.865 339.994 421.049 339.539 421.049 339.066C421.049 338.592 420.865 338.138 420.536 337.797C420.207 337.457 419.759 337.257 419.286 337.241C418.813 337.257 418.365 337.457 418.036 337.797C417.708 338.138 417.524 338.592 417.524 339.066C417.524 339.539 417.708 339.994 418.036 340.334C418.365 340.675 418.813 340.874 419.286 340.891Z" fill="black"/>
<path d="M414.906 350.527C415.379 350.51 415.827 350.311 416.156 349.97C416.485 349.63 416.669 349.175 416.669 348.702C416.669 348.228 416.485 347.774 416.156 347.433C415.827 347.093 415.379 346.893 414.906 346.877C414.433 346.893 413.985 347.093 413.656 347.433C413.328 347.774 413.144 348.228 413.144 348.702C413.144 349.175 413.328 349.63 413.656 349.97C413.985 350.311 414.433 350.51 414.906 350.527Z" fill="black"/>
<path d="M420.454 361.039C420.927 361.022 421.375 360.823 421.704 360.482C422.033 360.142 422.217 359.687 422.217 359.214C422.217 358.741 422.033 358.286 421.704 357.945C421.375 357.605 420.927 357.405 420.454 357.389C419.981 357.405 419.533 357.605 419.204 357.945C418.876 358.286 418.692 358.741 418.692 359.214C418.692 359.687 418.876 360.142 419.204 360.482C419.533 360.823 419.981 361.022 420.454 361.039Z" fill="black"/>
<path d="M416.658 369.507C417.131 369.49 417.579 369.291 417.908 368.951C418.237 368.61 418.421 368.155 418.421 367.682C418.421 367.209 418.237 366.754 417.908 366.413C417.579 366.073 417.131 365.873 416.658 365.857C416.185 365.873 415.737 366.073 415.408 366.413C415.08 366.754 414.896 367.209 414.896 367.682C414.896 368.155 415.08 368.61 415.408 368.951C415.737 369.291 416.185 369.49 416.658 369.507Z" fill="black"/>
<path d="M400.598 350.819C401.071 350.802 401.519 350.603 401.848 350.262C402.177 349.922 402.361 349.467 402.361 348.994C402.361 348.52 402.177 348.066 401.848 347.725C401.519 347.385 401.071 347.185 400.598 347.169C400.125 347.185 399.677 347.385 399.348 347.725C399.019 348.066 398.836 348.52 398.836 348.994C398.836 349.467 399.019 349.922 399.348 350.262C399.677 350.603 400.125 350.802 400.598 350.819Z" fill="black"/>
<path d="M403.518 365.419C403.991 365.402 404.439 365.203 404.768 364.862C405.097 364.522 405.281 364.067 405.281 363.594C405.281 363.121 405.097 362.666 404.768 362.325C404.439 361.985 403.991 361.785 403.518 361.769C403.045 361.785 402.597 361.985 402.268 362.325C401.939 362.666 401.756 363.121 401.756 363.594C401.756 364.067 401.939 364.522 402.268 364.862C402.597 365.203 403.045 365.402 403.518 365.419Z" fill="black"/>
<path d="M427.754 372.719C428.227 372.702 428.676 372.503 429.004 372.163C429.333 371.822 429.517 371.367 429.517 370.894C429.517 370.421 429.333 369.966 429.004 369.625C428.676 369.285 428.227 369.085 427.754 369.069C427.281 369.085 426.833 369.285 426.505 369.625C426.176 369.966 425.992 370.421 425.992 370.894C425.992 371.367 426.176 371.822 426.505 372.163C426.833 372.503 427.281 372.702 427.754 372.719Z" fill="black"/>
<path d="M418.994 380.895C419.467 380.879 419.916 380.679 420.244 380.339C420.573 379.998 420.757 379.543 420.757 379.07C420.757 378.597 420.573 378.142 420.244 377.802C419.916 377.461 419.467 377.262 418.994 377.245C418.521 377.262 418.073 377.461 417.744 377.802C417.416 378.142 417.232 378.597 417.232 379.07C417.232 379.543 417.416 379.998 417.744 380.339C418.073 380.679 418.521 380.879 418.994 380.895Z" fill="black"/>
<path d="M431.258 383.815C431.731 383.799 432.18 383.599 432.508 383.259C432.837 382.918 433.021 382.463 433.021 381.99C433.021 381.517 432.837 381.062 432.508 380.722C432.18 380.381 431.731 380.182 431.258 380.165C430.785 380.182 430.337 380.381 430.009 380.722C429.68 381.062 429.496 381.517 429.496 381.99C429.496 382.463 429.68 382.918 430.009 383.259C430.337 383.599 430.785 383.799 431.258 383.815Z" fill="black"/>
<path d="M423.958 389.363C424.431 389.347 424.879 389.147 425.208 388.807C425.537 388.466 425.721 388.011 425.721 387.538C425.721 387.065 425.537 386.61 425.208 386.27C424.879 385.929 424.431 385.73 423.958 385.713C423.485 385.73 423.037 385.929 422.708 386.27C422.38 386.61 422.196 387.065 422.196 387.538C422.196 388.011 422.38 388.466 422.708 388.807C423.037 389.147 423.485 389.347 423.958 389.363Z" fill="black"/>
<path d="M359.687 179.674C359.671 180.351 359.389 180.994 358.904 181.465C358.427 181.942 357.876 182.338 357.272 182.64C356.089 183.246 354.812 183.651 353.495 183.836C352.816 183.936 352.124 183.901 351.459 183.732C350.794 183.564 350.169 183.266 349.619 182.855C349.066 182.446 348.62 181.911 348.317 181.294C348.015 180.676 347.866 179.995 347.882 179.308C347.943 178.919 348.129 178.56 348.411 178.285C348.674 178.038 348.973 177.834 349.299 177.68C349.914 177.371 350.524 177.147 351.114 176.909C351.693 176.682 352.253 176.41 352.788 176.094C353.05 175.938 353.296 175.765 353.541 175.593C353.83 175.385 354.133 175.198 354.448 175.032C355.123 174.677 355.899 174.563 356.647 174.708C357.374 174.881 358.013 175.312 358.446 175.92C359.219 177.023 359.65 178.328 359.687 179.674ZM359.587 179.674C359.503 178.401 358.919 177.212 357.963 176.367C357.569 175.978 357.057 175.731 356.508 175.662C355.959 175.594 355.402 175.708 354.924 175.987C354.668 176.106 354.435 176.293 354.181 176.446C353.902 176.651 353.609 176.836 353.304 177C352.706 177.312 352.085 177.576 351.445 177.79C350.825 178.012 350.197 178.179 349.63 178.401C349.063 178.629 348.56 178.897 348.42 179.413C348.329 180.02 348.411 180.641 348.657 181.203C348.903 181.766 349.303 182.248 349.811 182.593C350.338 182.91 350.926 183.112 351.537 183.185C352.147 183.258 352.767 183.2 353.353 183.016C354.557 182.711 355.825 182.397 357.031 182.061C357.637 181.893 358.211 181.626 358.729 181.271C358.988 181.092 359.201 180.854 359.351 180.576C359.5 180.298 359.581 179.989 359.587 179.674Z" fill="black"/>
<path d="M350.594 159.229C350.581 159.79 350.454 160.342 350.221 160.853C349.988 161.363 349.655 161.821 349.24 162.198C348.417 162.965 347.474 163.593 346.45 164.057C344.425 164.992 342.281 165.646 340.079 166.003C338.959 166.201 337.811 166.173 336.702 165.921C335.593 165.668 334.546 165.196 333.622 164.532C332.699 163.863 331.957 162.974 331.463 161.946C330.97 160.918 330.741 159.783 330.797 158.644C330.906 158.034 331.21 157.475 331.663 157.052C332.101 156.662 332.595 156.341 333.128 156.099C334.154 155.604 335.195 155.245 336.206 154.847C337.208 154.466 338.179 154.007 339.109 153.473C339.569 153.208 339.999 152.907 340.429 152.605C340.902 152.268 341.396 151.962 341.91 151.69C342.982 151.116 344.217 150.921 345.414 151.137C346.584 151.404 347.624 152.069 348.357 153.019C349.066 153.901 349.61 154.904 349.963 155.979C350.34 157.023 350.553 158.12 350.594 159.229ZM350.494 159.229C350.445 158.138 350.177 157.068 349.705 156.083C349.264 155.103 348.643 154.215 347.873 153.465C347.158 152.747 346.239 152.265 345.242 152.085C344.254 151.956 343.252 152.153 342.386 152.644C341.932 152.891 341.492 153.163 341.068 153.458C340.608 153.796 340.126 154.104 339.625 154.379C338.632 154.909 337.6 155.36 336.536 155.728C335.495 156.11 334.437 156.412 333.459 156.82C332.981 157.01 332.529 157.26 332.115 157.564C331.733 157.864 331.459 158.28 331.334 158.749C331.209 159.808 331.373 160.881 331.81 161.853C332.247 162.825 332.939 163.661 333.814 164.271C334.715 164.841 335.725 165.216 336.779 165.373C337.834 165.53 338.909 165.465 339.937 165.182C342.023 164.698 344.166 164.15 346.208 163.478C347.235 163.148 348.2 162.65 349.065 162.004C349.498 161.681 349.853 161.263 350.101 160.782C350.348 160.301 350.483 159.77 350.494 159.229Z" fill="black"/>
<path d="M346.136 131.663C346.458 132.443 346.618 133.28 346.607 134.124C346.575 134.975 346.311 135.801 345.843 136.513C344.863 137.887 343.583 139.021 342.1 139.829C339.173 141.456 336.106 142.817 332.935 143.895C329.805 145.062 326.633 146.091 323.511 147.235C321.951 147.813 320.39 148.381 318.85 148.996C317.295 149.606 315.721 150.214 314.11 150.692C310.894 151.721 307.534 152.233 304.158 152.208C300.738 152.247 297.421 151.044 294.822 148.822C292.424 146.41 290.912 143.258 290.533 139.877C290.06 136.544 290.102 133.157 290.657 129.837C291.438 126.551 292.747 123.414 294.535 120.548C296.277 117.656 298.399 115.009 300.844 112.68C303.294 110.326 306.129 108.408 309.226 107.01C312.352 105.617 315.752 104.947 319.172 105.048C322.594 105.105 325.956 105.955 328.993 107.533C331.98 109.155 334.608 111.364 336.719 114.029C338.806 116.656 340.603 119.5 342.079 122.513C343.587 125.495 344.919 128.557 346.136 131.663ZM346.044 131.7C343.524 125.557 340.603 119.434 336.218 114.455C334.076 111.96 331.475 109.898 328.558 108.38C325.629 106.922 322.411 106.135 319.14 106.079C312.586 105.865 306.271 108.893 301.486 113.367C299.078 115.624 296.962 118.172 295.187 120.953C293.377 123.717 292.028 126.757 291.192 129.953C290.557 133.205 290.451 136.539 290.881 139.825C291.098 141.466 291.542 143.068 292.201 144.585C292.867 146.095 293.839 147.451 295.056 148.566C297.595 150.706 300.849 151.808 304.166 151.651C307.47 151.574 310.741 150.984 313.863 149.901C317.013 148.936 320.03 147.454 323.22 146.419C326.38 145.328 329.559 144.318 332.729 143.302C335.915 142.352 339.007 141.113 341.968 139.603C343.451 138.86 344.732 137.769 345.704 136.425C346.167 135.741 346.434 134.943 346.475 134.117C346.496 133.291 346.349 132.469 346.044 131.7V131.7Z" fill="black"/>
</svg>
