<svg width="153" height="157" viewBox="0 0 153 157" fill="none" xmlns="http://www.w3.org/2000/svg">
<path d="M148.33 66.0351C148.33 65.5749 148.102 64.5375 146.088 62.9151C144.654 61.861 143.093 61.0011 141.444 60.3567C140.441 59.9043 139.164 59.3505 137.728 58.7577L134.49 54.9747C132.925 53.0403 133.221 52.8219 130.888 49.1481C127.141 43.2435 125.75 42.8067 125.074 42.7209C124.679 42.6663 123.85 42.6273 121.152 43.7583C118.947 44.6833 116.838 45.8358 114.86 47.1981C113.078 47.263 111.295 47.1375 109.54 46.8237C108.02 46.5507 107.807 46.3401 107.389 46.5273C106.971 46.7145 106.363 47.4711 106.272 49.5771C106.196 49.5771 104.463 48.7971 102.35 51.4023C102.365 52.2822 102.116 53.1456 101.636 53.8749C101.218 54.5067 100.876 54.6159 99.956 55.3335C97.144 57.5955 96.916 58.4535 97.0832 61.3863C97.1905 63.0521 97.3859 64.7108 97.6684 66.3549C98.0864 69.6387 98.1244 73.9755 98.5272 76.3701C98.5728 76.6353 98.8008 77.1501 98.9832 77.8053C100.314 83.0956 102.796 88.0077 106.241 92.1729C107.302 93.6895 108.501 95.0997 109.821 96.3849C110.574 97.0007 111.232 97.729 111.774 98.5455C112.344 99.478 112.729 100.517 112.906 101.603C121.032 103.257 129.326 103.87 137.599 103.428C137.366 101.944 137.444 100.426 137.827 98.9745C138.144 98.0175 138.515 97.0799 138.936 96.1665C140.13 93.2259 140.494 91.8609 142.128 89.0763C141.737 88.9235 141.412 88.6296 141.216 88.2495C140.639 87.1185 141.536 85.1295 143.58 83.5695C144.432 81.7318 145.06 79.7931 145.45 77.7975C145.45 77.7975 146.673 71.4639 147.486 69.6777C148.007 68.5353 148.294 67.2957 148.33 66.0351ZM114.016 63.0711C113.55 63.6016 113.226 64.2465 113.074 64.9434C112.922 65.6403 112.948 66.3655 113.15 67.0491L111.865 67.3533C111.006 65.3557 110.267 63.3056 109.654 61.2147L112.884 61.0665L109.585 57.1665C109.593 55.9828 109.426 54.8048 109.091 53.6721C109.836 54.3214 110.8 54.6437 111.774 54.5691L121.411 63.5547L114.016 63.0711Z" fill="#FFD997"/>
<path d="M90.9651 48.376H85.1131L84.9003 56.371L78.1287 56.6596L78.4783 65.0446L85.0067 65.1538C85.1435 67.0882 85.2879 69.0148 85.4247 70.9492C78.1287 71.1598 75.1343 71.0818 64.4107 71.0818V64.9276L72.0563 64.8418V48.7348L63.1491 48.6022L63.3011 55.5442L57.9355 55.4116C57.9355 52.7284 58.0419 50.1388 57.8975 47.362C57.7683 45.022 57.8975 42.682 57.8975 40.342C44.3315 40.5994 37.7271 40.5682 26.0611 40.342L25.8559 49.3822C28.4323 49.7644 30.8339 49.9828 33.3267 50.2792C33.6079 55.0216 33.7295 59.8108 34.1703 64.5064L40.4783 65.1148C40.6227 67.33 40.4783 69.0148 40.5163 70.9492C33.5851 70.9492 27.4063 71.2378 20.4447 71.2378C20.3915 66.7996 20.1331 50.7706 20.1331 48.8752C17.2223 48.9298 14.5395 48.5398 11.5679 48.4384V50.2948C13.9771 50.4586 16.1279 50.4664 18.4839 50.56C18.4839 52.2994 18.8259 67.8448 18.9399 72.7432C23.4999 72.8056 27.8015 72.7432 41.8539 72.5014C41.9603 69.4516 41.8539 66.4096 41.8539 63.3676L35.5383 62.9932C35.2343 58.2742 35.2343 53.6254 34.8847 48.7348L27.9839 47.869V42.0424C38.1299 42.5104 45.4639 42.2452 55.8987 42.4558C55.9671 44.4682 56.1191 46.4806 56.1191 48.493C56.1191 51.5194 56.3243 54.2026 56.4231 57.034H64.4335L64.7527 50.6614L70.1183 50.5912L70.2931 63.3364H62.7615C62.8831 66.4564 63.0123 69.6024 63.1491 72.7744C72.6187 73.1878 75.7955 72.673 86.7775 72.8836L86.3975 63.82L79.8995 63.6406L79.8007 58.009L86.5039 57.6346C86.5039 55.1698 86.5495 52.4008 86.5647 49.936C88.0304 50.0177 89.4993 50.0177 90.9651 49.936V48.376Z" fill="#81F8F8"/>
<path d="M109.714 59.0464L141.634 88.9672C141.216 88.3963 141.022 87.6847 141.091 86.9738C141.16 86.263 141.487 85.6047 142.007 85.1296C142.439 84.7924 142.96 84.5965 143.502 84.5673C144.044 84.5381 144.583 84.6769 145.047 84.9658L111.721 54.616C110.835 54.6105 109.968 54.3569 109.213 53.8828C109.648 55.5654 109.817 57.3088 109.714 59.0464Z" fill="#81F8F8"/>
<path d="M142.714 87.8909C142.402 87.6725 142.501 86.9237 142.843 86.4791C143.185 86.0345 143.725 85.8005 144.013 86.0189C144.302 86.2373 144.226 86.9471 143.922 87.3761C143.618 87.8051 143.003 88.1093 142.714 87.8909Z" fill="black"/>
<path d="M101.727 50.0763L102.357 51.4569C102.795 50.8359 103.365 50.3251 104.023 49.963C104.681 49.6009 105.411 49.3969 106.157 49.3665L104.204 48.0327C103.648 48.1056 103.122 48.335 102.684 48.6957C102.247 49.0564 101.916 49.5342 101.727 50.0763Z" fill="#81F8F8"/>
<path d="M3.96045 49.4914C3.96045 49.9564 4.0497 50.4169 4.2231 50.8466C4.39649 51.2762 4.65065 51.6666 4.97105 51.9954C5.29145 52.3242 5.67182 52.5851 6.09044 52.763C6.50906 52.941 6.95774 53.0326 7.41085 53.0326C7.86396 53.0326 8.31264 52.941 8.73126 52.763C9.14988 52.5851 9.53025 52.3242 9.85065 51.9954C10.171 51.6666 10.4252 51.2762 10.5986 50.8466C10.772 50.4169 10.8612 49.9564 10.8612 49.4914C10.8612 49.0264 10.772 48.5659 10.5986 48.1362C10.4252 47.7066 10.171 47.3162 9.85065 46.9874C9.53025 46.6586 9.14988 46.3977 8.73126 46.2198C8.31264 46.0418 7.86396 45.9502 7.41085 45.9502C6.95774 45.9502 6.50906 46.0418 6.09044 46.2198C5.67182 46.3977 5.29145 46.6586 4.97105 46.9874C4.65065 47.3162 4.39649 47.7066 4.2231 48.1362C4.0497 48.5659 3.96045 49.0264 3.96045 49.4914Z" fill="black"/>
<path d="M15.0182 45.6849C15.0182 45.7477 15.042 45.8081 15.0845 45.8532C15.1271 45.8983 15.1851 45.9247 15.2462 45.9267C15.3678 45.9267 15.4818 45.8253 15.4818 45.7005C15.839 34.7805 15.3222 30.4281 15.3222 22.3941C17.169 22.5111 19.0234 22.6047 20.8246 22.6671L30.4082 22.8777C30.4422 22.884 30.4771 22.8826 30.5105 22.8736C30.5438 22.8646 30.5749 22.8481 30.6013 22.8254C30.6278 22.8028 30.6492 22.7744 30.6638 22.7423C30.6784 22.7102 30.686 22.6752 30.686 22.6398C30.686 22.6044 30.6784 22.5694 30.6638 22.5373C30.6492 22.5052 30.6278 22.4769 30.6013 22.4542C30.5749 22.4315 30.5438 22.415 30.5105 22.406C30.4771 22.397 30.4422 22.3956 30.4082 22.4019C23.2794 22.2693 19.9126 22.2147 15.3222 21.9183C15.3222 19.4223 15.3754 16.9341 15.4666 14.3913C34.8998 14.9451 38.943 14.3913 67.5418 14.8437L67.747 22.5423C67.7508 22.6044 67.7771 22.6629 67.8206 22.7062C67.8642 22.7495 67.922 22.7745 67.9826 22.7763C68.0136 22.7753 68.044 22.768 68.0722 22.7549C68.1005 22.7419 68.1259 22.7232 68.147 22.7C68.1682 22.6768 68.1847 22.6496 68.1956 22.6199C68.2066 22.5901 68.2117 22.5585 68.2106 22.5267L68.013 14.8515C74.3666 14.9529 81.6094 15.0855 89.7034 15.2493C89.635 18.1509 89.6122 20.7093 89.6046 22.7451C83.859 22.2381 81.2446 22.4487 74.4882 21.9651C74.4543 21.9588 74.4194 21.9602 74.386 21.9692C74.3527 21.9782 74.3216 21.9947 74.2951 22.0174C74.2686 22.0401 74.2473 22.0684 74.2327 22.1005C74.2181 22.1326 74.2105 22.1676 74.2105 22.203C74.2105 22.2384 74.2181 22.2734 74.2327 22.3055C74.2473 22.3376 74.2686 22.366 74.2951 22.3886C74.3216 22.4113 74.3527 22.4278 74.386 22.4368C74.4194 22.4458 74.4543 22.4472 74.4882 22.4409C81.5562 22.9323 83.6082 22.6827 89.635 23.2209C89.635 23.9073 89.7718 42.3309 89.7414 44.8659L81.9134 44.5539C81.7994 44.5539 81.655 44.6787 81.655 44.7879V52.6893C79.2914 53.0481 78.3414 52.7595 75.2558 52.9311C75.309 48.0639 75.3394 43.4385 75.2558 38.5011C78.083 38.3607 80.5758 38.5011 83.4562 38.2281C83.5105 38.218 83.5596 38.1886 83.595 38.1451C83.6303 38.1017 83.6497 38.0468 83.6497 37.9902C83.6497 37.9336 83.6303 37.8787 83.595 37.8353C83.5596 37.7918 83.5105 37.7624 83.4562 37.7523C81.1762 38.0253 77.931 37.8849 75.043 38.0331C74.9832 38.0371 74.9271 38.0643 74.8862 38.1092C74.8452 38.1541 74.8225 38.2134 74.8226 38.2749C74.8682 40.2717 74.891 42.1749 74.8986 44.1405L60.0178 44.4057C59.9114 42.3231 59.8354 40.1937 59.8506 37.9941C59.8506 37.8381 59.7062 37.7289 59.615 37.7523H53.4894L53.0486 22.7607C55.7314 22.8621 57.6086 22.9011 60.3142 22.8465C60.4282 25.4829 60.5346 28.1193 60.6486 30.7557C60.6525 30.8171 60.679 30.8747 60.7228 30.9167C60.7666 30.9587 60.8243 30.982 60.8842 30.9819C62.9818 30.9819 65.2162 30.9039 67.3822 30.9351V37.6587C67.3822 37.7228 67.4071 37.7843 67.4513 37.8297C67.4954 37.875 67.5554 37.9005 67.6178 37.9005C67.6484 37.9005 67.6787 37.8942 67.7069 37.882C67.7351 37.8697 67.7605 37.8518 67.7818 37.8292C67.8031 37.8067 67.8197 37.7799 67.8307 37.7506C67.8417 37.7214 67.8469 37.6901 67.8458 37.6587V30.9507C72.0714 31.0209 75.6662 31.3407 82.2858 30.9507C82.3165 30.9497 82.3466 30.9424 82.3744 30.9292C82.4022 30.9161 82.4271 30.8973 82.4477 30.874C82.4683 30.8507 82.4841 30.8233 82.4941 30.7936C82.5042 30.7639 82.5083 30.7325 82.5062 30.7011C82.5062 30.1005 81.7994 30.9195 71.4102 30.5373C68.1194 30.4125 65.0718 30.3579 61.1274 30.4671L60.679 22.6047C60.6771 22.544 60.6522 22.4865 60.6096 22.4443C60.5671 22.4021 60.5102 22.3785 60.451 22.3785C52.851 22.4643 53.687 22.1523 45.1446 22.1523C45.0904 22.1624 45.0413 22.1918 45.0059 22.2353C44.9706 22.2787 44.9512 22.3336 44.9512 22.3902C44.9512 22.4468 44.9706 22.5017 45.0059 22.5451C45.0413 22.5886 45.0904 22.618 45.1446 22.6281C48.6786 22.6281 50.6014 22.6827 52.5014 22.7529L52.9422 37.7523C48.4886 37.7055 28.9414 37.1049 23.1122 37.1049C23.0498 37.1049 22.9898 37.1304 22.9457 37.1757C22.9015 37.2211 22.8766 37.2826 22.8766 37.3467C22.9146 40.5915 22.9526 43.5009 22.8766 46.4805C22.755 50.5131 22.6714 56.8623 22.5346 60.4425C22.5345 60.5061 22.5581 60.5673 22.6004 60.6137C22.6428 60.6601 22.7008 60.6881 22.7626 60.6921C22.7926 60.6931 22.8224 60.6881 22.8505 60.6773C22.8785 60.6665 22.9042 60.6501 22.9261 60.6291C22.948 60.6081 22.9656 60.5829 22.978 60.5549C22.9904 60.5269 22.9973 60.4966 22.9982 60.4659C23.097 57.9387 23.1958 52.9389 23.1958 52.9155L30.2638 53.1183V67.4547H23.1502C23.1163 67.4484 23.0814 67.4498 23.048 67.4588C23.0147 67.4678 22.9836 67.4843 22.9571 67.507C22.9306 67.5297 22.9093 67.558 22.8947 67.5901C22.8801 67.6222 22.8725 67.6572 22.8725 67.6926C22.8725 67.728 22.8801 67.763 22.8947 67.7951C22.9093 67.8272 22.9306 67.8555 22.9571 67.8782C22.9836 67.9009 23.0147 67.9174 23.048 67.9264C23.0814 67.9354 23.1163 67.9368 23.1502 67.9305H38.3502C38.3842 67.9368 38.4191 67.9354 38.4525 67.9264C38.4858 67.9174 38.5169 67.9009 38.5433 67.8782C38.5698 67.8555 38.5912 67.8272 38.6058 67.7951C38.6204 67.763 38.628 67.728 38.628 67.6926C38.628 67.6572 38.6204 67.6222 38.6058 67.5901C38.5912 67.558 38.5698 67.5297 38.5433 67.507C38.5169 67.4843 38.4858 67.4678 38.4525 67.4588C38.4191 67.4498 38.3842 67.4484 38.3502 67.4547H30.7122V52.8921C30.7123 52.8293 30.6885 52.769 30.646 52.7238C30.6034 52.6787 30.5454 52.6523 30.4842 52.6503L23.1882 52.4397C23.363 43.2591 23.4238 46.5507 23.3478 37.6197C35.8118 37.6197 46.9078 38.3997 59.2958 38.2749C59.2958 43.6647 59.7898 48.2199 59.7898 53.2275C59.7898 53.2589 59.796 53.29 59.8079 53.3189C59.8198 53.3478 59.8373 53.3739 59.8593 53.3958C59.8813 53.4176 59.9073 53.4347 59.9359 53.446C59.9644 53.4573 59.9949 53.4625 60.0254 53.4615C60.0557 53.4626 60.0858 53.4573 60.1139 53.4459C60.1421 53.4345 60.1676 53.4173 60.189 53.3954C60.2104 53.3734 60.2272 53.3472 60.2383 53.3183C60.2493 53.2894 60.2545 53.2585 60.2534 53.2275C60.2534 50.4429 60.0938 47.7675 59.957 44.9205L74.815 44.6553C74.815 47.6505 74.6782 62.3613 74.739 67.1661H67.253C67.1906 67.1661 67.1306 67.1916 67.0864 67.2369C67.0423 67.2823 67.0174 67.3438 67.0174 67.4079C67.0174 67.4393 67.0236 67.4704 67.0355 67.4993C67.0474 67.5282 67.0649 67.5544 67.0869 67.5762C67.1089 67.598 67.1349 67.6151 67.1635 67.6264C67.192 67.6377 67.2225 67.6429 67.253 67.6419H81.7766C81.8072 67.6429 81.8377 67.6377 81.8662 67.6264C81.8948 67.6151 81.9208 67.598 81.9428 67.5762C81.9648 67.5544 81.9823 67.5282 81.9942 67.4993C82.0061 67.4704 82.0123 67.4393 82.0122 67.4079C82.0122 67.3438 81.9874 67.2823 81.9432 67.2369C81.8991 67.1916 81.8391 67.1661 81.7766 67.1661H75.2026C75.1494 62.3613 75.2026 53.5239 75.2026 53.4459C78.387 53.2743 79.299 53.5863 81.8526 53.1651C81.9086 53.1565 81.9602 53.1287 81.9988 53.0862C82.0374 53.0437 82.0609 52.989 82.0654 52.9311V45.0375L89.9086 45.3495C89.9396 45.3505 89.9704 45.3453 89.9994 45.3341C90.0284 45.3229 90.0549 45.306 90.0775 45.2842C90.1001 45.2625 90.1183 45.2364 90.131 45.2075C90.1438 45.1785 90.1509 45.1473 90.1518 45.1155C90.1518 42.4869 90.0454 19.2663 90.1518 15.0231C90.1529 14.9917 90.1477 14.9605 90.1367 14.9312C90.1257 14.9019 90.1091 14.8751 90.0878 14.8526C90.0665 14.83 90.0411 14.8121 90.0129 14.7998C89.9847 14.7876 89.9544 14.7813 89.9238 14.7813C53.5578 14.0013 18.613 14.0013 15.231 13.9077C15.2002 13.9044 15.1691 13.9078 15.1397 13.9177C15.1103 13.9276 15.0832 13.9437 15.0602 13.9651C15.0373 13.9864 15.019 14.0125 15.0065 14.0416C14.994 14.0707 14.9877 14.1021 14.9878 14.1339C14.4938 28.2051 15.4742 31.9569 15.0182 45.6849Z" fill="black"/>
<path d="M37.3547 21.4348C37.2943 21.4348 37.2363 21.4595 37.1935 21.5034C37.1507 21.5473 37.1267 21.6068 37.1267 21.6688V30.6466C34.1779 30.6466 24.3739 30.5374 23.1199 30.4984C22.8159 30.4984 22.7931 30.9664 23.1199 30.9742C24.0167 30.9742 37.3395 31.138 37.4231 31.1224C40.3643 31.1224 46.4595 31.2628 46.4595 31.2628C46.5138 31.2527 46.5629 31.2234 46.5983 31.1799C46.6336 31.1364 46.653 31.0816 46.653 31.0249C46.653 30.9683 46.6336 30.9135 46.5983 30.87C46.5629 30.8265 46.5138 30.7972 46.4595 30.787C43.4651 30.709 40.4859 30.6622 37.5979 30.6466V21.6688C37.598 21.6368 37.5916 21.605 37.5792 21.5755C37.5668 21.5461 37.5487 21.5196 37.5259 21.4976C37.5031 21.4757 37.4761 21.4588 37.4467 21.448C37.4172 21.4372 37.3859 21.4327 37.3547 21.4348Z" fill="black"/>
<path d="M90.2129 52.4945C90.2139 52.4631 90.2087 52.4318 90.1977 52.4025C90.1867 52.3732 90.1701 52.3465 90.1488 52.324C90.1276 52.3014 90.1021 52.2835 90.0739 52.2712C90.0457 52.259 90.0155 52.2527 89.9849 52.2527C89.9224 52.2527 89.8625 52.2782 89.8183 52.3235C89.7741 52.3689 89.7493 52.4304 89.7493 52.4945V75.5435L80.7585 75.6995C80.7279 75.6995 80.6976 75.7058 80.6694 75.718C80.6413 75.7302 80.6158 75.7482 80.5945 75.7708C80.5732 75.7933 80.5566 75.82 80.5456 75.8493C80.5346 75.8786 80.5295 75.9099 80.5305 75.9413C80.5324 76.004 80.5581 76.0636 80.6021 76.1072C80.6461 76.1509 80.7049 76.1753 80.7661 76.1753L89.7493 76.0193C89.7493 76.6979 89.8405 86.0423 89.8937 90.0593C84.9841 90.0593 80.1023 90.0749 75.2485 90.1061C75.2029 87.5321 75.1117 85.3247 74.9825 82.8989L82.5369 83.1407C82.596 83.1407 82.6529 83.1171 82.6955 83.0749C82.738 83.0327 82.7629 82.9752 82.7649 82.9145C82.7669 82.8831 82.7628 82.8516 82.7527 82.8219C82.7427 82.7922 82.7269 82.7649 82.7063 82.7416C82.6858 82.7183 82.6608 82.6995 82.633 82.6863C82.6052 82.6732 82.5751 82.6659 82.5445 82.6649L74.9445 82.4231C74.8609 80.6525 74.7697 78.5231 74.7013 75.8165C74.6994 75.755 74.6747 75.6966 74.6324 75.6532C74.59 75.6097 74.5331 75.5844 74.4733 75.5825C69.7385 75.5201 64.9049 75.4967 60.0333 75.5045V67.9385C60.0333 67.9071 60.0272 67.876 60.0152 67.8471C60.0033 67.8182 59.9858 67.792 59.9638 67.7702C59.9419 67.7484 59.9158 67.7313 59.8873 67.72C59.8587 67.7087 59.8283 67.7034 59.7977 67.7045C59.7674 67.7034 59.7373 67.7087 59.7092 67.7201C59.681 67.7314 59.6555 67.7486 59.6341 67.7706C59.6127 67.7925 59.596 67.8188 59.5849 67.8477C59.5738 67.8765 59.5686 67.9075 59.5697 67.9385V75.5123L45.8897 75.5825C45.8745 70.6217 45.6313 65.7779 45.9125 60.4349C45.9145 60.4035 45.9104 60.372 45.9004 60.3423C45.8903 60.3126 45.8745 60.2853 45.8539 60.262C45.8334 60.2387 45.8084 60.2199 45.7806 60.2067C45.7528 60.1936 45.7227 60.1863 45.6921 60.1853L38.0921 59.9747C38.2517 55.0841 37.9553 50.4509 38.0921 45.2015C42.7357 45.2015 47.5389 45.3185 52.3269 45.5291C52.7145 53.5085 52.3269 55.2089 52.4029 67.8839C52.4048 67.9474 52.4302 68.0078 52.474 68.0527C52.5178 68.0976 52.5766 68.1237 52.6385 68.1257C52.701 68.1257 52.7609 68.1002 52.8051 68.0549C52.8493 68.0095 52.8741 67.948 52.8741 67.8839V60.5519C68.9861 60.5519 68.0057 60.5519 68.0741 60.4739C68.1425 60.3959 68.2033 60.8795 67.5801 53.2745C67.5862 53.2396 67.5849 53.2038 67.5761 53.1696C67.5673 53.1353 67.5513 53.1035 67.5292 53.0763C67.507 53.0491 67.4794 53.0272 67.4481 53.0122C67.4169 52.9972 67.3828 52.9894 67.3483 52.9894C67.3138 52.9894 67.2797 52.9972 67.2484 53.0122C67.2172 53.0272 67.1895 53.0491 67.1674 53.0763C67.1453 53.1035 67.1293 53.1353 67.1205 53.1696C67.1117 53.2038 67.1103 53.2396 67.1165 53.2745L67.6561 60.0371H52.8665C52.9121 54.9593 53.0869 51.5663 52.7753 45.2171C52.7717 45.1583 52.7473 45.1029 52.7067 45.0612C52.6662 45.0196 52.6122 44.9946 52.5549 44.9909C45.9201 44.8349 38.4493 44.6789 30.9709 44.8349C30.9369 44.8285 30.902 44.8299 30.8687 44.839C30.8353 44.848 30.8043 44.8644 30.7778 44.8871C30.7513 44.9098 30.73 44.9382 30.7153 44.9703C30.7007 45.0024 30.6931 45.0374 30.6931 45.0728C30.6931 45.1082 30.7007 45.1432 30.7153 45.1753C30.73 45.2073 30.7513 45.2357 30.7778 45.2584C30.8043 45.2811 30.8353 45.2976 30.8687 45.3066C30.902 45.3156 30.9369 45.317 30.9709 45.3107C30.9709 45.3107 35.3789 45.2561 37.6209 45.2639C37.4993 50.3417 37.8033 55.4663 37.6209 60.2633C37.6188 60.2943 37.6229 60.3254 37.6331 60.3546C37.6432 60.3839 37.6591 60.4107 37.6798 60.4334C37.7005 60.4561 37.7255 60.4742 37.7533 60.4865C37.7811 60.4988 37.811 60.5051 37.8413 60.5051L45.4413 60.7157C45.1677 65.9573 45.3957 70.7699 45.4413 75.5825C40.4785 75.5825 35.4017 75.4343 30.3097 75.2237C30.2465 75.2236 30.1857 75.2489 30.1403 75.294C30.0949 75.3391 30.0685 75.4006 30.0665 75.4655V83.1719C30.0665 83.236 30.0913 83.2975 30.1355 83.3429C30.1797 83.3882 30.2396 83.4137 30.3021 83.4137C30.3327 83.4137 30.363 83.4074 30.3911 83.3952C30.4193 83.3829 30.4448 83.365 30.4661 83.3424C30.4873 83.3198 30.504 83.2931 30.515 83.2638C30.526 83.2345 30.5311 83.2033 30.5301 83.1719V75.6839C35.5461 75.8789 40.5545 75.9959 45.4489 76.0271C45.4489 78.3671 45.4489 80.7071 45.3805 83.1641C45.3784 83.1961 45.3827 83.2282 45.3933 83.2584C45.4038 83.2886 45.4203 83.3163 45.4416 83.3397C45.463 83.3631 45.4889 83.3818 45.5176 83.3945C45.5463 83.4072 45.5772 83.4137 45.6085 83.4137L52.6081 83.2343C52.9197 83.2343 52.8969 82.7273 52.6081 82.7585L45.8669 82.9301C45.9657 80.5901 45.9657 78.2501 45.9353 76.0271L59.6153 75.9569V83.2811C59.6152 83.3426 59.6379 83.4018 59.6788 83.4468C59.7198 83.4917 59.7759 83.5189 59.8357 83.5229L68.3021 83.8817C68.3615 83.88 68.4183 83.8561 68.4617 83.8144C68.5051 83.7728 68.5321 83.7162 68.5377 83.6555C68.5378 83.5919 68.5143 83.5307 68.4719 83.4843C68.4295 83.4379 68.3715 83.4098 68.3097 83.4059L60.1169 83.0549V75.9491C64.8669 75.9491 69.6321 75.9491 74.2909 76.0271C74.4505 81.9707 74.7241 84.9425 74.8153 90.0671C67.3749 90.1139 42.9485 90.3167 38.1149 90.3401V83.4449C38.1211 83.41 38.1197 83.3742 38.1109 83.34C38.1021 83.3057 38.0861 83.2739 38.064 83.2467C38.0419 83.2195 38.0142 83.1976 37.9829 83.1826C37.9517 83.1676 37.9176 83.1598 37.8831 83.1598C37.8486 83.1598 37.8145 83.1676 37.7832 83.1826C37.752 83.1976 37.7243 83.2195 37.7022 83.2467C37.6801 83.2739 37.6641 83.3057 37.6553 83.34C37.6465 83.3742 37.6451 83.41 37.6513 83.4449V90.3479L23.1657 90.4259L22.8921 76.2221C22.885 76.1599 22.8567 76.1023 22.8122 76.0594C22.7677 76.0166 22.7098 75.9913 22.6489 75.9881C22.5877 75.9901 22.5297 76.0165 22.4872 76.0616C22.4446 76.1067 22.4209 76.1671 22.4209 76.2299L22.7021 90.4259H15.5581C15.7633 78.0473 15.3301 66.1367 15.3301 52.6427C15.3301 52.5786 15.3053 52.517 15.2611 52.4717C15.2169 52.4264 15.157 52.4009 15.0945 52.4009C15.032 52.4009 14.9721 52.4264 14.9279 52.4717C14.8837 52.517 14.8589 52.5786 14.8589 52.6427C14.8589 58.3523 15.2161 83.2421 15.0945 90.6599C15.0935 90.6913 15.0986 90.7225 15.1096 90.7518C15.1206 90.7811 15.1372 90.8078 15.1585 90.8304C15.1798 90.853 15.2053 90.8709 15.2334 90.8831C15.2616 90.8954 15.2919 90.9017 15.3225 90.9017C27.9613 90.9017 74.3745 90.4727 90.1597 90.4727C90.2208 90.4707 90.2788 90.4443 90.3214 90.3992C90.3639 90.354 90.3877 90.2937 90.3877 90.2309C90.2129 77.5403 90.1673 64.2413 90.2129 52.4945Z" fill="black"/>
<path d="M18.2559 50.8253C18.2559 50.8253 18.6435 69.9431 18.7119 72.7823C18.7138 72.8438 18.7384 72.9022 18.7808 72.9456C18.8231 72.9891 18.88 73.0144 18.9399 73.0163C24.1839 73.0865 29.6407 73.0163 41.8615 72.7745C41.9208 72.7708 41.9767 72.745 42.0187 72.7019C42.0607 72.6588 42.0859 72.6014 42.0895 72.5405C42.1959 69.4829 42.0895 66.4019 42.0895 63.4067C42.0896 63.3452 42.0669 63.286 42.026 63.241C41.985 63.1961 41.9289 63.1689 41.8691 63.1649L35.7891 62.7983C35.4851 58.1183 35.4851 53.5709 35.1507 48.7115C35.1446 48.657 35.1212 48.6061 35.0841 48.5667C35.0471 48.5272 34.9983 48.5013 34.9455 48.4931L28.2575 47.6585V42.2843C30.8111 42.4013 51.6959 42.6041 55.7163 42.6821C55.7163 43.2671 55.7619 43.8521 55.7923 44.4371C56.0507 49.7255 55.7923 47.6819 56.1039 54.1949C56.1495 55.1231 56.1951 56.0513 56.2331 57.0029C56.235 57.0644 56.2596 57.1228 56.302 57.1662C56.3443 57.2097 56.4012 57.235 56.4611 57.2369L64.4411 57.3149C64.501 57.3151 64.5588 57.2917 64.6025 57.2497C64.6463 57.2077 64.6728 57.1501 64.6767 57.0887L64.9807 50.9033L69.8979 50.8331L70.0727 63.1025H62.7615C62.7299 63.1025 62.6986 63.109 62.6696 63.1217C62.6405 63.1343 62.6141 63.1528 62.5922 63.1761C62.5702 63.1994 62.553 63.227 62.5416 63.2572C62.5302 63.2874 62.5249 63.3197 62.5259 63.3521C62.6627 66.4721 62.7919 69.6155 62.9135 72.7823C62.9169 72.8419 62.941 72.8983 62.9814 72.9413C63.0219 72.9842 63.076 73.0108 63.1339 73.0163C72.8619 73.4297 75.9703 72.9149 86.7775 73.1255C87.0283 73.1801 86.9979 72.7589 86.9979 72.6263C86.9979 71.9087 86.8839 69.8495 86.6255 63.8123C86.6255 63.7826 86.6198 63.7532 86.6087 63.7258C86.5976 63.6983 86.5814 63.6734 86.5609 63.6524C86.5405 63.6314 86.5162 63.6147 86.4894 63.6033C86.4627 63.592 86.434 63.5861 86.4051 63.5861L80.1275 63.4145L80.0743 58.2275L86.5647 57.8453C86.6232 57.8415 86.6782 57.8154 86.719 57.7721C86.7598 57.7288 86.7833 57.6715 86.7851 57.6113C86.7851 56.3789 86.8307 51.3167 86.8383 50.1623C89.0271 50.2871 90.7067 50.1623 91.0107 50.1623C91.0712 50.1623 91.1292 50.1377 91.1719 50.0938C91.2147 50.0499 91.2387 49.9904 91.2387 49.9283V48.3683C91.2397 48.3369 91.2346 48.3057 91.2236 48.2764C91.2126 48.2471 91.1959 48.2204 91.1747 48.1978C91.1534 48.1752 91.1279 48.1573 91.0997 48.1451C91.0716 48.1328 91.0413 48.1265 91.0107 48.1265H85.1511C85.1215 48.1244 85.0919 48.1284 85.0638 48.1384C85.0358 48.1483 85.0101 48.1639 84.9881 48.1843C84.9661 48.2047 84.9483 48.2294 84.9358 48.257C84.9234 48.2846 84.9165 48.3145 84.9155 48.3449L84.7103 56.1449C77.5435 56.4491 78.0831 56.4023 77.9919 56.5037C77.9007 56.6051 77.9083 56.0123 78.2883 65.0837C78.2883 65.1437 78.3115 65.2013 78.3529 65.2437C78.3942 65.2861 78.4502 65.3099 78.5087 65.3099L84.8243 65.4191C84.9611 67.1923 85.0903 68.9681 85.2119 70.7465C79.1927 70.9259 76.5251 70.8791 64.6919 70.8791L64.7451 65.2163L72.0639 65.1383C72.0941 65.1394 72.1243 65.1341 72.1524 65.1227C72.1805 65.1114 72.2061 65.0942 72.2275 65.0722C72.2489 65.0503 72.2656 65.024 72.2767 64.9951C72.2878 64.9663 72.293 64.9354 72.2919 64.9043L72.4363 48.8285C72.4363 48.7644 72.4115 48.7029 72.3673 48.6576C72.3231 48.6122 72.2632 48.5867 72.2007 48.5867C62.5791 48.4307 63.1719 48.4151 63.0807 48.5243C62.9895 48.6335 63.0047 48.1889 63.1719 55.3883L58.2699 55.2635V52.8299C58.3459 46.1765 58.1027 49.0001 58.1635 42.8069C58.1635 40.2875 58.1635 40.3811 58.1103 40.2875C57.8139 39.9911 51.9391 40.7243 26.1143 40.2251C26.0531 40.2251 25.9943 40.2495 25.9503 40.2932C25.9064 40.3368 25.8807 40.3964 25.8787 40.4591L25.6735 49.4993C25.6711 49.5577 25.6901 49.6148 25.7266 49.6596C25.7632 49.7043 25.8147 49.7334 25.8711 49.7411C28.3639 50.0999 30.6895 50.3261 33.1519 50.6147C33.4331 55.2947 33.5547 60.0215 33.9879 64.6547C33.993 64.7109 34.017 64.7635 34.0559 64.8033C34.0948 64.8432 34.146 64.8679 34.2007 64.8731L40.3491 65.4269C40.4631 67.4393 40.3491 68.9915 40.3491 70.8011C37.2027 70.8011 24.3891 71.0897 20.7411 71.0897C20.6879 66.7607 20.4295 51.0593 20.4295 48.9611C20.4297 48.9293 20.4237 48.8978 20.412 48.8683C20.4002 48.8389 20.3829 48.8121 20.3611 48.7895C20.3112 48.7549 20.2538 48.7334 20.1939 48.7271C16.9943 48.7349 14.9955 48.4151 11.6743 48.2357C11.5147 48.1343 11.3475 48.2357 11.3551 48.3917C11.3551 48.8675 11.2867 49.8347 11.3551 50.2949C11.3551 50.4353 11.5223 50.6303 11.6895 50.5445C14.2963 50.7629 15.8239 50.7239 18.2559 50.8253ZM11.7427 48.7349C14.9879 48.9143 16.9411 49.2185 19.9051 49.1639C19.9051 51.2075 20.1635 66.8543 20.2167 71.2925C20.2167 71.3239 20.2228 71.355 20.2348 71.3839C20.2467 71.4128 20.2642 71.439 20.2861 71.4608C20.3081 71.4826 20.3342 71.4997 20.3627 71.511C20.3913 71.5223 20.4217 71.5276 20.4523 71.5265C24.1763 71.5265 37.3015 71.2535 40.5239 71.2379C40.5538 71.2379 40.5833 71.2317 40.6107 71.2196C40.6382 71.2076 40.6629 71.1899 40.6835 71.1677C40.7899 71.0585 40.7367 71.1677 40.7671 69.1319C40.7671 67.9073 40.8127 66.6437 40.7139 65.1539C40.7091 65.0969 40.6853 65.0433 40.6466 65.0021C40.6078 64.9609 40.5565 64.9347 40.5011 64.9277L34.3451 64.3349C33.9271 59.7173 33.8055 54.9749 33.5243 50.2949C33.5212 50.2386 33.499 50.1851 33.4615 50.1438C33.424 50.1025 33.3737 50.0759 33.3191 50.0687C30.8643 49.7801 28.5235 49.5539 26.0535 49.2029L26.2511 40.6229C34.0563 40.7789 55.1311 40.6775 57.6315 40.6229C57.6315 42.8537 57.5479 45.1391 57.6315 47.3855C57.7759 50.1623 57.6315 52.7519 57.6315 55.4195C57.6304 55.4505 57.6356 55.4815 57.6467 55.5103C57.6578 55.5392 57.6745 55.5655 57.6959 55.5874C57.7173 55.6094 57.7429 55.6266 57.771 55.6379C57.7992 55.6493 57.8293 55.6546 57.8595 55.6535L63.2251 55.7939C63.2883 55.794 63.349 55.7687 63.3944 55.7236C63.4398 55.6785 63.4663 55.617 63.4683 55.5521L63.3543 48.8753L71.8587 49.0079L71.7295 64.6079L64.4031 64.6859C64.3419 64.6879 64.284 64.7143 64.2414 64.7594C64.1988 64.8046 64.1751 64.8649 64.1751 64.9277L64.1219 71.0585C64.1235 71.1216 64.1476 71.1818 64.1896 71.2278C64.2317 71.2738 64.2887 71.3024 64.3499 71.3081C64.3499 71.3081 81.5867 71.3081 85.4019 71.1599C85.6527 71.1599 85.6223 70.9103 85.6147 70.7465C85.6147 70.2473 85.4855 68.8979 85.2043 65.1071C85.2004 65.0478 85.1747 64.9922 85.1324 64.9517C85.09 64.9111 85.0342 64.8886 84.9763 64.8887L78.6683 64.7795L78.3415 56.8625L84.8775 56.5817C84.9374 56.5798 84.9943 56.5545 85.0366 56.511C85.079 56.4676 85.1036 56.4092 85.1055 56.3477L85.3031 48.5945H90.7067V49.6787C89.3083 49.7333 87.9631 49.7333 86.5571 49.6787C86.5253 49.6754 86.4932 49.6791 86.4628 49.6893C86.4325 49.6996 86.4046 49.7163 86.3809 49.7384C86.3573 49.7605 86.3384 49.7874 86.3256 49.8174C86.3127 49.8475 86.3061 49.8799 86.3063 49.9127C86.3063 51.1451 86.2607 56.2229 86.2531 57.3929L79.7551 57.7751C79.7258 57.775 79.6969 57.7812 79.67 57.7931C79.6431 57.805 79.619 57.8225 79.599 57.8445C79.579 57.8665 79.5637 57.8924 79.5539 57.9207C79.5442 57.9491 79.5402 57.9792 79.5423 58.0091L79.6335 63.6485C79.6354 63.71 79.66 63.7684 79.7024 63.8118C79.7447 63.8553 79.8016 63.8806 79.8615 63.8825L86.1467 64.0541L86.5039 72.6341C75.7575 72.4313 72.9835 72.9461 63.3391 72.5405C63.2251 69.5531 63.0959 66.5579 62.9743 63.5705H70.2703C70.3328 63.5705 70.3927 63.5451 70.4369 63.4997C70.4811 63.4544 70.5059 63.3929 70.5059 63.3287L70.3311 50.5835C70.3311 50.5215 70.3071 50.4619 70.2643 50.4181C70.2216 50.3742 70.1636 50.3495 70.1031 50.3495L64.7299 50.4197C64.7003 50.4187 64.6708 50.4238 64.6432 50.4347C64.6156 50.4456 64.5904 50.462 64.5691 50.4832C64.5478 50.5043 64.5309 50.5296 64.5194 50.5575C64.5078 50.5855 64.5019 50.6156 64.5019 50.6459L64.1903 56.8313L56.5903 56.7611C56.4839 53.9921 56.2863 51.4181 56.2863 48.4853C56.2863 46.4573 56.1419 44.4137 56.0735 42.4403C56.0699 42.3795 56.0447 42.3221 56.0027 42.279C55.9607 42.2359 55.9048 42.21 55.8455 42.2063C51.7415 42.1283 30.5603 41.9177 27.9383 41.7929C27.9065 41.7907 27.8745 41.7954 27.8445 41.8067C27.8146 41.8179 27.7872 41.8355 27.7643 41.8583C27.7414 41.8811 27.7234 41.9086 27.7115 41.939C27.6995 41.9694 27.694 42.002 27.6951 42.0347V47.8691C27.6965 47.9269 27.7179 47.9822 27.7555 48.0251C27.7932 48.068 27.8445 48.0957 27.9003 48.1031L34.6035 48.9455C34.9227 53.7113 34.9303 58.3991 35.2419 63.0401C35.2472 63.0975 35.2724 63.1511 35.3128 63.1911C35.3532 63.2312 35.4062 63.2551 35.4623 63.2585L41.5423 63.6251C41.5423 66.5033 41.6335 69.3971 41.5423 72.2987C31.7915 72.4781 24.6855 72.6107 19.0767 72.5405C19.0159 69.7949 18.6283 50.5913 18.6283 50.5913C18.6264 50.5299 18.6018 50.4715 18.5594 50.428C18.5171 50.3846 18.4602 50.3593 18.4003 50.3573C15.9303 50.2481 14.3267 50.2871 11.6743 50.0765C11.7503 49.7411 11.7351 49.0625 11.7427 48.7349Z" fill="black"/>
<path d="M113.34 104.824C113.029 104.804 112.718 104.851 112.427 104.961C112.135 105.071 111.868 105.242 111.645 105.464C111.36 105.734 111.171 106.094 111.107 106.486C111.042 106.878 111.106 107.281 111.288 107.632C111.441 107.841 111.642 108.007 111.872 108.117C112.103 108.227 112.356 108.278 112.61 108.264C114.883 108.264 115.529 104.973 113.34 104.824ZM113.712 107.375C113.157 107.89 112.063 107.96 111.668 107.375C111.556 107.114 111.526 106.824 111.582 106.544C111.638 106.265 111.777 106.01 111.979 105.815C112.534 105.238 113.659 105.121 114.062 105.682C114.193 105.965 114.23 106.284 114.167 106.59C114.104 106.896 113.944 107.172 113.712 107.375Z" fill="black"/>
<path d="M106.378 50.2947C105.99 50.0919 105.565 50.3337 105.048 50.5833C103.201 51.4569 103.034 51.3633 103.019 51.5973C102.982 52.3783 102.82 53.1478 102.54 53.8749C102.525 53.9092 102.517 53.9464 102.517 53.9841C102.517 54.0218 102.525 54.059 102.54 54.0933C102.616 54.2181 102.722 54.2103 103.148 54.2103C104.091 54.2092 105.028 54.0646 105.93 53.7813C105.969 53.7654 106.005 53.7415 106.036 53.7111C106.56 53.1408 106.856 52.389 106.864 51.6051C106.887 50.8875 106.712 50.4507 106.378 50.2947ZM105.747 53.3445C104.885 53.6136 103.988 53.7451 103.087 53.7345C103.3 53.1023 103.43 52.444 103.475 51.7767C105.474 50.9967 105.922 50.5911 106.158 50.7159C106.241 50.7627 106.424 50.9343 106.424 51.6129C106.401 52.244 106.162 52.8465 105.747 53.3133V53.3445Z" fill="black"/>
<path d="M147.714 69.7947C148.256 68.6108 148.558 67.3266 148.604 66.0195C148.558 65.0133 147.768 63.9447 146.27 62.7513C144.821 61.6867 143.245 60.8165 141.581 60.1617C140.418 59.6391 139.187 59.1087 137.926 58.6017C137.408 57.8622 136.828 57.1706 136.193 56.5347C133.153 53.3445 133.837 53.3289 131.116 49.0467C127.126 42.8067 125.728 42.5883 125.135 42.5103C124.785 42.4635 123.957 42.3621 121.099 43.5633C118.897 44.4846 116.791 45.6318 114.814 46.9875C113.063 47.0505 111.311 46.925 109.585 46.6131C108.065 46.3323 107.807 46.1061 107.305 46.3323C106.614 46.6365 106.211 47.5257 106.082 49.0233C104.197 47.5803 103.216 47.2917 100.23 45.6225L100.708 45.1077C100.73 45.0866 100.747 45.0611 100.759 45.033C100.771 45.0048 100.777 44.9745 100.777 44.9439C100.777 44.9132 100.771 44.8829 100.759 44.8548C100.747 44.8266 100.73 44.8012 100.708 44.7801C98.9907 43.0251 99.0667 43.0563 98.9299 43.0719C98.7931 43.0875 99.0515 42.7833 95.6163 47.3307C91.9607 43.2903 92.2343 43.5477 92.0899 43.5399C91.9455 43.5321 92.0899 43.4853 90.4331 45.0453C90.4089 45.0672 90.3895 45.0942 90.3761 45.1245C90.3628 45.1548 90.356 45.1876 90.356 45.2208C90.356 45.254 90.3628 45.2868 90.3761 45.3171C90.3895 45.3473 90.4089 45.3743 90.4331 45.3963L94.0051 48.7113L90.5015 52.4865C90.4795 52.509 90.462 52.5357 90.45 52.5651C90.4381 52.5946 90.4319 52.6262 90.4319 52.6581C90.4319 52.69 90.4381 52.7216 90.45 52.751C90.462 52.7805 90.4795 52.8072 90.5015 52.8297C92.3331 54.5301 92.2495 54.4833 92.3939 54.4677C92.5383 54.4521 92.3103 54.7251 95.3731 50.4039C98.6563 55.1463 98.4131 54.8421 98.5499 54.8577C98.5829 54.861 98.6162 54.8572 98.6476 54.8464C98.6791 54.8357 98.7079 54.8183 98.7323 54.7953C101.012 52.7517 100.914 52.8687 100.914 52.7205C100.914 52.5723 101.187 52.8687 97.0451 48.9999L99.6367 46.2387C100.336 47.7987 101.195 49.6707 102.107 51.4881C102.113 52.3041 101.88 53.1031 101.438 53.7813C101.043 54.3585 100.678 54.4677 99.804 55.1931C96.8856 57.5331 96.6955 58.4613 96.8475 61.4331C97.0299 65.1537 97.3871 64.1475 97.8507 71.5185C97.9647 73.4061 98.0788 75.1845 98.284 76.4403C98.3714 76.9633 98.5327 77.4704 98.7627 77.9457C99.1351 78.6789 101.263 88.7799 110.041 96.9543C110.628 97.4608 111.14 98.052 111.561 98.7093C112.063 99.5361 112.41 100.451 112.587 101.408C111.71 101.241 110.803 101.395 110.026 101.845C109.812 102.039 109.642 102.28 109.529 102.55C109.416 102.819 109.362 103.111 109.372 103.405C109.122 105.831 109.372 105.901 109.16 110.472C103.733 110.472 104.706 110.721 104.394 117.219C104.007 125.097 101.719 141.282 101.544 142.693C118.371 143.169 126.047 142.366 133.054 142.194C136.554 142.133 140.047 141.844 143.512 141.328C142.98 133.7 142.645 115.893 142.273 113.061C142.227 112.687 142.394 111.876 140.593 111.759C141.019 108.834 141.064 106.868 141.171 106.096C141.277 105.324 141.406 104.317 140.814 103.678C140.054 102.898 138.739 103.108 137.774 103.194C137.583 101.813 137.668 100.407 138.024 99.0603C138.138 98.6625 139.506 95.3397 140.046 93.9435C140.636 92.3562 141.363 90.8265 142.22 89.3727C142.767 89.459 143.327 89.3879 143.837 89.1672C144.347 88.9465 144.788 88.585 145.11 88.1227C145.432 87.6603 145.623 87.1154 145.662 86.5485C145.7 85.9815 145.585 85.4147 145.328 84.9111C145.328 84.8097 145.366 84.9111 143.854 83.5149C146.559 76.4559 146.536 72.3531 147.714 69.7947ZM100.64 47.3073C100.768 47.0381 100.991 46.8289 101.263 46.7223L103.543 47.9391C103.131 48.0245 102.745 48.2129 102.42 48.4877C102.095 48.7625 101.841 49.1152 101.681 49.5147C101.354 48.8205 101.028 48.1497 100.64 47.3073ZM101.993 50.1777C102.072 49.6342 102.354 49.1437 102.78 48.8103C103.206 48.4768 103.741 48.3266 104.273 48.3915C104.372 48.3915 104.334 48.3915 104.714 48.6255C105.094 48.8595 105.322 49.0389 105.618 49.2573C104.996 49.3096 104.391 49.4923 103.841 49.7942C103.29 50.096 102.806 50.5106 102.418 51.0123L101.993 50.1777ZM138.594 103.6C138.928 103.523 139.274 103.52 139.609 103.59C139.945 103.66 140.262 103.801 140.54 104.005C140.981 104.481 140.867 105.308 140.768 106.026C140.654 106.891 140.646 108.592 140.19 111.743C137.481 111.883 134.767 111.883 132.058 111.743C127.544 111.587 117.398 110.495 109.684 110.487C109.851 106.26 109.684 105.807 109.889 103.467C109.877 103.24 109.913 103.012 109.996 102.8C110.079 102.589 110.206 102.399 110.368 102.243C110.953 101.798 112.245 101.751 114.214 102.118C123.448 103.834 131.192 104.31 138.594 103.6ZM137.979 97.9215C137.833 98.2482 137.709 98.5843 137.606 98.9277C137.241 100.331 137.151 101.794 137.34 103.233C125.606 104.146 115.49 101.743 113.127 101.463C112.828 99.5584 111.86 97.8324 110.406 96.6111C101.681 88.5069 99.69 78.6711 99.234 77.7429C99.0213 77.311 98.8751 76.8479 98.8007 76.3701C98.3979 73.9911 98.3599 69.6543 97.9419 66.3627C97.6656 64.7257 97.4728 63.0751 97.3643 61.4175C97.2199 58.5783 97.3643 57.8217 100.146 55.5675C101.043 54.8421 101.415 54.7251 101.879 54.0543C102.37 53.3074 102.634 52.428 102.639 51.5271C103.771 50.1621 105.154 49.4835 106.18 49.8189C107.206 50.1543 107.609 51.1371 108.324 52.5801C109.4 54.6881 109.73 57.114 109.258 59.4441C108.712 58.3372 108.033 57.3047 107.237 56.3709C107.215 56.3482 107.189 56.3303 107.16 56.318C107.131 56.3057 107.101 56.2994 107.07 56.2994C107.038 56.2994 107.008 56.3057 106.979 56.318C106.95 56.3303 106.924 56.3482 106.902 56.3709C106.86 56.4159 106.836 56.476 106.836 56.5386C106.836 56.6011 106.86 56.6612 106.902 56.7063C107.837 57.7895 108.606 59.0125 109.182 60.3333C109.859 61.8933 110.208 64.0149 111.972 67.9851C111.989 68.0235 112.015 68.0566 112.048 68.0812C112.082 68.1058 112.121 68.1211 112.162 68.1255C113.672 68.2869 115.134 68.7676 116.456 69.5373C116.51 69.5681 116.574 69.5755 116.634 69.558C116.694 69.5404 116.744 69.4994 116.775 69.4437C116.789 69.4166 116.799 69.3868 116.802 69.356C116.805 69.3252 116.803 69.294 116.794 69.2642C116.786 69.2344 116.772 69.2067 116.753 69.1826C116.734 69.1585 116.71 69.1386 116.684 69.1239C115.346 68.346 113.871 67.8501 112.344 67.6653L112.283 67.5405C113.925 67.1349 115.658 66.7605 117.436 66.5343C143.519 90.9561 141.581 89.1933 141.832 89.2791C139.978 92.3601 139.902 93.1947 137.941 97.9215H137.979ZM112.899 66.8697L112.048 67.0725C111.267 65.2109 110.592 63.3045 110.026 61.3629C110.629 61.4029 111.235 61.3846 111.835 61.3083L113.735 63.0867C113.306 63.6001 113.002 64.211 112.849 64.8688C112.695 65.5267 112.697 66.2126 112.853 66.8697H112.899ZM114.084 63.4065L116.95 66.0897C115.787 66.2691 114.616 66.4875 113.355 66.7683C113.202 66.1923 113.184 65.5873 113.303 65.0029C113.422 64.4185 113.674 63.8714 114.039 63.4065H114.084ZM109.859 60.8715C109.775 60.6375 109.684 60.3957 109.57 60.1383C109.638 59.8731 109.699 59.6079 109.745 59.3583L111.371 60.9183C110.851 60.9441 110.331 60.9285 109.813 60.8715H109.859ZM142.714 88.9515C142.447 88.9514 142.188 88.8633 141.975 88.7003C141.761 88.5374 141.605 88.3082 141.528 88.0467C141.353 87.5764 141.327 87.0616 141.452 86.575C141.578 86.0884 141.849 85.6546 142.228 85.3348C142.607 85.015 143.074 84.8254 143.563 84.7928C144.053 84.7601 144.54 84.8861 144.956 85.1529C145.155 85.5516 145.25 85.9965 145.233 86.4443C145.215 86.8921 145.085 87.3276 144.854 87.7084C144.624 88.0892 144.302 88.4024 143.919 88.6175C143.535 88.8326 143.105 88.9423 142.668 88.9359L142.714 88.9515ZM144.12 84.3729C143.655 84.2993 143.179 84.348 142.738 84.5142C142.296 84.6805 141.903 84.959 141.595 85.3236C141.286 85.6882 141.073 86.1271 140.975 86.5993C140.877 87.0714 140.897 87.5613 141.034 88.0233C108.635 57.7047 109.897 58.8747 109.783 58.8201C109.989 57.275 109.867 55.7025 109.426 54.2103C110.051 54.7102 110.842 54.9397 111.63 54.8499L144.12 84.3729ZM121.373 63.0711L112.458 54.9747C113.438 55.1541 112.648 55.0995 115.863 55.6455C117.285 55.8729 118.73 55.9252 120.164 55.8015V56.1993C120.203 56.7355 120.36 57.2556 120.623 57.7205C120.887 58.1853 121.249 58.5826 121.684 58.8825C121.451 60.2653 121.347 61.6679 121.373 63.0711ZM147.281 69.5919C146.141 72.0957 146.058 76.4013 143.481 83.1795L121.874 63.5079C121.822 61.9698 121.924 60.4303 122.178 58.9137L123.926 57.6189C123.955 57.6022 123.98 57.5795 124 57.5521C124.02 57.5248 124.034 57.4935 124.041 57.4602C124.048 57.427 124.048 57.3926 124.042 57.3593C124.035 57.3259 124.021 57.2944 124.002 57.2668C123.983 57.2392 123.958 57.2161 123.929 57.199C123.901 57.1819 123.869 57.1712 123.836 57.1676C123.803 57.1641 123.769 57.1677 123.738 57.1782C123.706 57.1888 123.677 57.206 123.653 57.2289L121.981 58.4769C121.387 58.0399 120.953 57.4109 120.75 56.6907C120.651 56.2773 120.75 56.1291 120.62 55.4895C120.408 54.2181 119.99 54.0231 119.686 52.9545C119.489 52.0856 119.44 51.1884 119.541 50.3025C119.57 49.5711 119.656 48.8433 119.8 48.1263C119.802 48.069 119.784 48.0128 119.749 47.9678C119.714 47.9228 119.665 47.8919 119.61 47.8806C119.555 47.8694 119.499 47.8785 119.45 47.9063C119.401 47.9342 119.363 47.979 119.344 48.0327C119.197 48.7757 119.108 49.5295 119.078 50.2869C118.969 51.223 119.026 52.1715 119.245 53.0871C119.518 54.0777 119.914 54.4053 120.119 55.3257C118.734 55.4377 117.342 55.3853 115.969 55.1697C113.917 54.8187 113.438 54.7017 113.438 54.7017C112.567 54.4562 111.667 54.3303 110.763 54.3273C110.069 54.1649 109.462 53.7349 109.068 53.1261C108.962 52.8687 108.84 52.6113 108.711 52.3461C108.035 50.9889 107.495 49.8891 106.553 49.4523C106.629 47.9391 106.963 47.0109 107.518 46.7613C107.716 46.6755 107.852 46.6989 108.384 46.8315C110.529 47.3382 112.73 47.5455 114.928 47.4477C114.965 47.4587 115.005 47.4587 115.042 47.4477C117.013 46.0976 119.111 44.9531 121.304 44.0313C124.056 42.8769 124.816 42.9783 125.104 43.0095C127.346 43.3059 131.595 50.6223 132.704 52.6425C133.533 54.2281 134.609 55.664 135.889 56.8935C136.53 57.5295 137.11 58.2269 137.622 58.9761C138.534 60.2943 140.183 63.0711 139.522 64.5375C139.332 64.9484 139.035 65.2969 138.663 65.5437C138.621 65.5826 138.594 65.6356 138.588 65.693C138.581 65.7504 138.594 65.8084 138.625 65.8565C138.657 65.9046 138.704 65.9397 138.758 65.9553C138.812 65.9708 138.87 65.966 138.921 65.9415C139.36 65.6457 139.712 65.2332 139.94 64.7481C140.244 64.0773 140.434 62.4939 138.42 59.3271C139.453 59.7561 140.456 60.1929 141.414 60.6297C143.032 61.2696 144.565 62.1189 145.974 63.1569C147.35 64.2489 148.094 65.2317 148.132 66.0741C148.076 67.2926 147.787 68.4879 147.281 69.5919Z" fill="black"/>
</svg>
