<svg width="391" height="461" viewBox="0 0 391 461" fill="none" xmlns="http://www.w3.org/2000/svg">
<g filter="url(#filter0_ddddd_6_1662)">
<path d="M234.754 37.4876C247.563 26.4032 266.568 26.4032 279.377 37.4876L303.377 58.2561C306.648 61.0868 310.428 63.2692 314.515 64.6867L344.501 75.0871C352.691 77.9278 359.179 83.6251 363.133 90.7409L367.413 86.4603V106.277C367.486 108.734 367.293 111.23 366.812 113.731L360.826 144.9C360.01 149.148 360.01 153.513 360.826 157.761L364.919 179.069L367.413 176.574V194.38C367.433 195.05 367.433 195.719 367.413 196.384V197.654L367.354 197.622C366.468 211.011 357.694 222.999 344.501 227.575L314.515 237.975C310.428 239.392 306.648 241.575 303.377 244.406L279.377 265.174C266.568 276.258 247.563 276.258 234.754 265.174L210.754 244.406C207.483 241.575 203.703 239.392 199.616 237.975L169.63 227.575C156.441 223 147.668 211.017 146.778 197.633L146.739 197.654V196.934C146.691 195.906 146.691 194.87 146.739 193.829V176.574L149.216 179.052L153.305 157.761C154.121 153.513 154.121 149.148 153.305 144.9L147.319 113.731C146.73 110.665 146.573 107.605 146.808 104.618V86.4603L151.03 90.6833C154.988 83.5944 161.462 77.9201 169.63 75.0871L199.616 64.6867C203.703 63.2692 207.483 61.0868 210.754 58.2561L234.754 37.4876Z" fill="#0C3855"/>
<g style="mix-blend-mode:color">
<path d="M234.754 37.4876C247.563 26.4032 266.568 26.4032 279.377 37.4876L303.377 58.2561C306.648 61.0868 310.428 63.2692 314.515 64.6867L344.501 75.0871C352.691 77.9278 359.179 83.6251 363.133 90.7409L367.413 86.4603V106.277C367.486 108.734 367.293 111.23 366.812 113.731L360.826 144.9C360.01 149.148 360.01 153.513 360.826 157.761L364.919 179.069L367.413 176.574V194.38C367.433 195.05 367.433 195.719 367.413 196.384V197.654L367.354 197.622C366.468 211.011 357.694 222.999 344.501 227.575L314.515 237.975C310.428 239.392 306.648 241.575 303.377 244.406L279.377 265.174C266.568 276.258 247.563 276.258 234.754 265.174L210.754 244.406C207.483 241.575 203.703 239.392 199.616 237.975L169.63 227.575C156.441 223 147.668 211.017 146.778 197.633L146.739 197.654V196.934C146.691 195.906 146.691 194.87 146.739 193.829V176.574L149.216 179.052L153.305 157.761C154.121 153.513 154.121 149.148 153.305 144.9L147.319 113.731C146.73 110.665 146.573 107.605 146.808 104.618V86.4603L151.03 90.6833C154.988 83.5944 161.462 77.9201 169.63 75.0871L199.616 64.6867C203.703 63.2692 207.483 61.0868 210.754 58.2561L234.754 37.4876Z" fill="#FEBDA3"/>
</g>
<path d="M234.753 19.8198C247.562 8.73538 266.567 8.73537 279.376 19.8197L303.376 40.5882C306.647 43.4189 310.427 45.6013 314.514 47.0189L344.5 57.4193C360.504 62.9701 370.006 79.4283 366.811 96.0634L360.825 127.232C360.009 131.481 360.009 135.845 360.825 140.094L366.811 171.262C370.006 187.898 360.504 204.356 344.5 209.907L314.514 220.307C310.427 221.725 306.647 223.907 303.376 226.738L279.376 247.506C266.567 258.591 247.562 258.591 234.753 247.506L210.753 226.738C207.482 223.907 203.702 221.725 199.615 220.307L169.629 209.907C153.625 204.356 144.123 187.898 147.318 171.263L153.304 140.094C154.12 135.845 154.12 131.481 153.304 127.232L147.318 96.0635C144.123 79.4283 153.625 62.9701 169.629 57.4193L199.615 47.0189C203.702 45.6013 207.482 43.4189 210.753 40.5882L234.753 19.8198Z" fill="url(#paint0_radial_6_1662)"/>
<path d="M234.753 19.8198C247.562 8.73538 266.567 8.73537 279.376 19.8197L303.376 40.5882C306.647 43.4189 310.427 45.6013 314.514 47.0189L344.5 57.4193C360.504 62.9701 370.006 79.4283 366.811 96.0634L360.825 127.232C360.009 131.481 360.009 135.845 360.825 140.094L366.811 171.262C370.006 187.898 360.504 204.356 344.5 209.907L314.514 220.307C310.427 221.725 306.647 223.907 303.376 226.738L279.376 247.506C266.567 258.591 247.562 258.591 234.753 247.506L210.753 226.738C207.482 223.907 203.702 221.725 199.615 220.307L169.629 209.907C153.625 204.356 144.123 187.898 147.318 171.263L153.304 140.094C154.12 135.845 154.12 131.481 153.304 127.232L147.318 96.0635C144.123 79.4283 153.625 62.9701 169.629 57.4193L199.615 47.0189C203.702 45.6013 207.482 43.4189 210.753 40.5882L234.753 19.8198Z" fill="white" fill-opacity="0.1" style="mix-blend-mode:color-dodge"/>
<path d="M240.879 38.405C250.171 30.3638 263.958 30.3638 273.25 38.4049L295.539 57.6928C297.912 59.7463 300.654 61.3295 303.619 62.3579L331.468 72.0168C343.078 76.0436 349.971 87.9832 347.653 100.051L342.094 128.998C341.502 132.08 341.502 135.246 342.094 138.328L347.653 167.275C349.971 179.343 343.078 191.282 331.468 195.309L303.619 204.968C300.654 205.996 297.912 207.58 295.539 209.633L273.25 228.921C263.958 236.962 250.171 236.962 240.879 228.921L218.59 209.633C216.217 207.58 213.475 205.996 210.51 204.968L182.661 195.309C171.052 191.282 164.158 179.343 166.476 167.275L172.035 138.328C172.627 135.246 172.627 132.08 172.035 128.998L166.476 100.051C164.158 87.9832 171.052 76.0436 182.661 72.0168L210.51 62.3579C213.475 61.3295 216.217 59.7463 218.59 57.6928L240.879 38.405Z" fill="white" fill-opacity="0.2" style="mix-blend-mode:screen"/>
<path d="M252.56 99.0635C254.368 95.274 259.762 95.274 261.571 99.0635L269.505 115.692C270.233 117.217 271.683 118.27 273.358 118.491L291.624 120.899C295.787 121.448 297.454 126.578 294.409 129.469L281.047 142.153C279.821 143.317 279.267 145.021 279.575 146.683L282.929 164.799C283.694 168.928 279.33 172.098 275.64 170.095L259.447 161.307C257.961 160.501 256.169 160.501 254.684 161.307L238.491 170.095C234.801 172.098 230.437 168.928 231.201 164.799L234.556 146.683C234.864 145.021 234.31 143.317 233.084 142.153L219.722 129.469C216.677 126.578 218.343 121.448 222.506 120.899L240.773 118.491C242.448 118.27 243.898 117.217 244.625 115.692L252.56 99.0635Z" fill="#124344"/>
<g style="mix-blend-mode:multiply" opacity="0.3">
<path d="M253.215 273.316C246.431 272.634 239.811 269.92 234.326 265.174L210.326 244.406C207.055 241.575 203.275 239.393 199.188 237.975L169.202 227.575C156.013 223 147.24 211.018 146.35 197.633L146.311 197.654V196.934C146.263 195.906 146.263 194.87 146.311 193.829V181.389L166.518 164.829C164.074 178.373 171.852 191.709 184.885 196.229L209.492 204.764C212.846 205.927 215.948 207.718 218.632 210.041L238.327 227.084C242.662 230.836 247.863 233.04 253.215 233.697V273.316Z" fill="#124344"/>
</g>
<g style="mix-blend-mode:soft-light">
<path d="M255.877 33.4306C262.655 33.2474 269.486 35.5179 274.945 40.2422L294.64 57.285C297.324 59.6079 300.426 61.3988 303.78 62.5621L328.387 71.0967C336.216 73.8123 342.15 79.7093 345.109 86.9217L366.326 82.8804C363.994 71.3598 355.77 61.4763 344.073 57.4193L314.087 47.0189C310 45.6014 306.22 43.419 302.949 40.5883L278.949 19.8198C272.34 14.101 264.083 11.3328 255.877 11.515V33.4306Z" fill="white"/>
</g>
<g style="mix-blend-mode:color">
<path d="M234.753 19.8198C247.562 8.73538 266.567 8.73537 279.376 19.8197L303.376 40.5882C306.647 43.4189 310.427 45.6013 314.514 47.0189L344.5 57.4193C360.504 62.9701 370.006 79.4283 366.811 96.0634L360.825 127.232C360.009 131.481 360.009 135.845 360.825 140.094L366.811 171.262C370.006 187.898 360.504 204.356 344.5 209.907L314.514 220.307C310.427 221.725 306.647 223.907 303.376 226.738L279.376 247.506C266.567 258.591 247.562 258.591 234.753 247.506L210.753 226.738C207.482 223.907 203.702 221.725 199.615 220.307L169.629 209.907C153.625 204.356 144.123 187.898 147.318 171.263L153.304 140.094C154.12 135.845 154.12 131.481 153.304 127.232L147.318 96.0635C144.123 79.4283 153.625 62.9701 169.629 57.4193L199.615 47.0189C203.702 45.6013 207.482 43.4189 210.753 40.5882L234.753 19.8198Z" fill="#FEBDA3"/>
</g>
<path d="M197.332 30.8533C198.161 28.6146 201.327 28.6146 202.155 30.8533L205.08 38.7573C205.341 39.4611 205.896 40.016 206.599 40.2765L214.503 43.2012C216.742 44.0296 216.742 47.196 214.503 48.0243L206.599 50.9491C205.896 51.2095 205.341 51.7644 205.08 52.4683L202.155 60.3722C201.327 62.6109 198.161 62.6109 197.332 60.3722L194.408 52.4683C194.147 51.7644 193.592 51.2095 192.888 50.9491L184.984 48.0244C182.746 47.196 182.746 44.0296 184.984 43.2012L192.888 40.2765C193.592 40.016 194.147 39.4611 194.408 38.7573L197.332 30.8533Z" fill="white"/>
<path d="M314.742 190.157C315.279 188.707 317.33 188.707 317.867 190.157L319.761 195.277C319.93 195.733 320.29 196.093 320.746 196.261L325.866 198.156C327.316 198.693 327.316 200.744 325.866 201.28L320.746 203.175C320.29 203.344 319.93 203.703 319.761 204.159L317.867 209.28C317.33 210.73 315.279 210.73 314.742 209.28L312.848 204.159C312.679 203.703 312.319 203.344 311.863 203.175L306.743 201.28C305.293 200.744 305.293 198.693 306.743 198.156L311.863 196.261C312.319 196.093 312.679 195.733 312.848 195.277L314.742 190.157Z" fill="white"/>
</g>
<defs>
<filter id="filter0_ddddd_6_1662" x="0.275024" y="2.50647" width="378.153" height="457.981" filterUnits="userSpaceOnUse" color-interpolation-filters="sRGB">
<feFlood flood-opacity="0" result="BackgroundImageFix"/>
<feColorMatrix in="SourceAlpha" type="matrix" values="0 0 0 0 0 0 0 0 0 0 0 0 0 0 0 0 0 0 127 0" result="hardAlpha"/>
<feOffset dx="-4" dy="6"/>
<feGaussianBlur stdDeviation="7.5"/>
<feColorMatrix type="matrix" values="0 0 0 0 0.101961 0 0 0 0 0.0313726 0 0 0 0 0.168627 0 0 0 0.98 0"/>
<feBlend mode="normal" in2="BackgroundImageFix" result="effect1_dropShadow_6_1662"/>
<feColorMatrix in="SourceAlpha" type="matrix" values="0 0 0 0 0 0 0 0 0 0 0 0 0 0 0 0 0 0 127 0" result="hardAlpha"/>
<feOffset dx="-16" dy="22"/>
<feGaussianBlur stdDeviation="13.5"/>
<feColorMatrix type="matrix" values="0 0 0 0 0.101961 0 0 0 0 0.0313726 0 0 0 0 0.168627 0 0 0 0.85 0"/>
<feBlend mode="normal" in2="effect1_dropShadow_6_1662" result="effect2_dropShadow_6_1662"/>
<feColorMatrix in="SourceAlpha" type="matrix" values="0 0 0 0 0 0 0 0 0 0 0 0 0 0 0 0 0 0 127 0" result="hardAlpha"/>
<feOffset dx="-35" dy="50"/>
<feGaussianBlur stdDeviation="18.5"/>
<feColorMatrix type="matrix" values="0 0 0 0 0.101961 0 0 0 0 0.0313726 0 0 0 0 0.168627 0 0 0 0.5 0"/>
<feBlend mode="normal" in2="effect2_dropShadow_6_1662" result="effect3_dropShadow_6_1662"/>
<feColorMatrix in="SourceAlpha" type="matrix" values="0 0 0 0 0 0 0 0 0 0 0 0 0 0 0 0 0 0 127 0" result="hardAlpha"/>
<feOffset dx="-63" dy="89"/>
<feGaussianBlur stdDeviation="22"/>
<feColorMatrix type="matrix" values="0 0 0 0 0.101961 0 0 0 0 0.0313726 0 0 0 0 0.168627 0 0 0 0.15 0"/>
<feBlend mode="normal" in2="effect3_dropShadow_6_1662" result="effect4_dropShadow_6_1662"/>
<feColorMatrix in="SourceAlpha" type="matrix" values="0 0 0 0 0 0 0 0 0 0 0 0 0 0 0 0 0 0 127 0" result="hardAlpha"/>
<feOffset dx="-98" dy="139"/>
<feGaussianBlur stdDeviation="24"/>
<feColorMatrix type="matrix" values="0 0 0 0 0.101961 0 0 0 0 0.0313726 0 0 0 0 0.168627 0 0 0 0.02 0"/>
<feBlend mode="normal" in2="effect4_dropShadow_6_1662" result="effect5_dropShadow_6_1662"/>
<feBlend mode="normal" in="SourceGraphic" in2="effect5_dropShadow_6_1662" result="shape"/>
</filter>
<radialGradient id="paint0_radial_6_1662" cx="0" cy="0" r="1" gradientUnits="userSpaceOnUse" gradientTransform="translate(257.065 0.512695) rotate(90) scale(266.301)">
<stop stop-color="#95CCEA"/>
<stop offset="1" stop-color="#104D7D"/>
</radialGradient>
</defs>
</svg>
