<svg width="338" height="458" viewBox="0 0 338 458" fill="none" xmlns="http://www.w3.org/2000/svg">
<g filter="url(#filter0_ddddd_6_1642)">
<path d="M220.931 31.5552C229.556 25.3562 241.176 25.3562 249.801 31.5552L313.876 77.6051C320.342 82.2522 324.175 89.728 324.175 97.6907V199.977C324.175 207.94 320.342 215.416 313.876 220.063L249.801 266.113C241.176 272.312 229.556 272.312 220.931 266.113L156.856 220.063C150.39 215.416 146.557 207.94 146.557 199.977V97.6907C146.557 89.728 150.39 82.2522 156.856 77.6051L220.931 31.5552Z" fill="#0C3855"/>
<g style="mix-blend-mode:color">
<path d="M220.931 31.5552C229.556 25.3563 241.176 25.3563 249.801 31.5552L313.876 77.6051C320.342 82.2522 324.175 89.728 324.175 97.6908V199.977C324.175 207.94 320.342 215.416 313.876 220.063L249.801 266.113C241.176 272.312 229.556 272.312 220.931 266.113L156.856 220.063C150.39 215.416 146.557 207.94 146.557 199.977V97.6908C146.557 89.728 150.39 82.2522 156.856 77.6051L220.931 31.5552Z" fill="#FEBDA3"/>
</g>
<path d="M220.931 13.8874C229.556 7.6884 241.176 7.68841 249.801 13.8874L313.876 59.9373C320.342 64.5844 324.175 72.0602 324.175 80.0229V182.309C324.175 190.272 320.342 197.748 313.876 202.395L249.801 248.445C241.176 254.644 229.556 254.644 220.931 248.445L156.856 202.395C150.39 197.748 146.557 190.272 146.557 182.309V80.0229C146.557 72.0602 150.39 64.5844 156.856 59.9373L220.931 13.8874Z" fill="url(#paint0_radial_6_1642)"/>
<path d="M220.931 13.8874C229.556 7.6884 241.176 7.68841 249.801 13.8874L313.876 59.9373C320.342 64.5844 324.175 72.0602 324.175 80.0229V182.309C324.175 190.272 320.342 197.748 313.876 202.395L249.801 248.445C241.176 254.644 229.556 254.644 220.931 248.445L156.856 202.395C150.39 197.748 146.557 190.272 146.557 182.309V80.0229C146.557 72.0602 150.39 64.5844 156.856 59.9373L220.931 13.8874Z" fill="white" fill-opacity="0.1" style="mix-blend-mode:color-dodge"/>
<path d="M220.929 41.7242C229.555 35.5252 241.175 35.5252 249.8 41.7242L294.509 73.8557C300.975 78.5028 304.808 85.9786 304.808 93.9414V168.391C304.808 176.354 300.975 183.83 294.509 188.477L249.8 220.608C241.175 226.807 229.555 226.807 220.929 220.608L176.221 188.477C169.755 183.83 165.922 176.354 165.922 168.391V93.9414C165.922 85.9787 169.755 78.5028 176.221 73.8557L220.929 41.7242Z" fill="white" fill-opacity="0.2" style="mix-blend-mode:screen"/>
<path d="M230.862 91.0697C232.671 87.2802 238.065 87.2802 239.873 91.0697L247.808 107.698C248.535 109.223 249.985 110.276 251.661 110.497L269.927 112.905C274.09 113.454 275.757 118.584 272.711 121.475L259.349 134.159C258.123 135.323 257.57 137.027 257.877 138.689L261.232 156.805C261.996 160.934 257.632 164.104 253.942 162.101L237.749 153.313C236.264 152.507 234.472 152.507 232.986 153.313L216.793 162.101C213.103 164.104 208.739 160.934 209.504 156.805L212.858 138.689C213.166 137.027 212.612 135.323 211.387 134.159L198.024 121.475C194.979 118.584 196.646 113.454 200.809 112.905L219.075 110.497C220.75 110.276 222.2 109.223 222.928 107.698L230.862 91.0697Z" fill="#124344"/>
<g style="mix-blend-mode:soft-light">
<path d="M235.367 9.23917C240.429 9.2389 245.49 10.788 249.803 13.8876L313.878 59.9374C318.593 63.3266 321.907 68.2211 323.356 73.7108L301.428 80.5019C300.068 78.4336 298.328 76.6009 296.263 75.1171L247.34 39.956C243.763 37.3854 239.565 36.0999 235.367 36.0995V9.23917Z" fill="white"/>
</g>
<g style="mix-blend-mode:multiply" opacity="0.3">
<path d="M165.992 172.234C166.482 178.199 169.56 183.688 174.466 187.214L223.39 222.376C226.968 224.948 231.169 226.232 235.369 226.231V270.759C230.307 270.76 225.246 269.211 220.933 266.111L156.858 220.061C150.392 215.414 146.559 207.938 146.559 199.975V182.538L165.992 172.234Z" fill="#124344"/>
</g>
<g style="mix-blend-mode:color">
<path d="M220.931 13.8874C229.556 7.6884 241.176 7.68841 249.801 13.8874L313.876 59.9373C320.342 64.5844 324.175 72.0602 324.175 80.0229V182.309C324.175 190.272 320.342 197.748 313.876 202.395L249.801 248.445C241.176 254.644 229.556 254.644 220.931 248.445L156.856 202.395C150.39 197.748 146.557 190.272 146.557 182.309V80.0229C146.557 72.0602 150.39 64.5844 156.856 59.9373L220.931 13.8874Z" fill="#FEBDA3"/>
</g>
<path d="M181.427 28.2072C182.255 25.9685 185.421 25.9685 186.25 28.2071L189.175 36.1111C189.435 36.8149 189.99 37.3699 190.694 37.6303L198.598 40.555C200.836 41.3834 200.836 44.5498 198.598 45.3782L190.694 48.3029C189.99 48.5633 189.435 49.1183 189.175 49.8221L186.25 57.726C185.421 59.9647 182.255 59.9647 181.427 57.7261L178.502 49.8221C178.242 49.1183 177.687 48.5633 176.983 48.3029L169.079 45.3782C166.84 44.5498 166.84 41.3834 169.079 40.555L176.983 37.6303C177.687 37.3699 178.242 36.8149 178.502 36.1111L181.427 28.2072Z" fill="white"/>
<path d="M277.592 190.804C278.128 189.354 280.18 189.354 280.716 190.804L282.611 195.924C282.78 196.38 283.139 196.74 283.595 196.908L288.715 198.803C290.166 199.34 290.166 201.391 288.715 201.928L283.595 203.822C283.139 203.991 282.78 204.35 282.611 204.806L280.716 209.927C280.18 211.377 278.128 211.377 277.592 209.927L275.697 204.806C275.528 204.35 275.169 203.991 274.713 203.822L269.593 201.928C268.143 201.391 268.143 199.34 269.593 198.803L274.713 196.908C275.169 196.74 275.528 196.38 275.697 195.924L277.592 190.804Z" fill="white"/>
</g>
<defs>
<filter id="filter0_ddddd_6_1642" x="0.556641" y="0.238159" width="334.619" height="457.524" filterUnits="userSpaceOnUse" color-interpolation-filters="sRGB">
<feFlood flood-opacity="0" result="BackgroundImageFix"/>
<feColorMatrix in="SourceAlpha" type="matrix" values="0 0 0 0 0 0 0 0 0 0 0 0 0 0 0 0 0 0 127 0" result="hardAlpha"/>
<feOffset dx="-4" dy="6"/>
<feGaussianBlur stdDeviation="7.5"/>
<feColorMatrix type="matrix" values="0 0 0 0 0.101961 0 0 0 0 0.0313726 0 0 0 0 0.168627 0 0 0 0.98 0"/>
<feBlend mode="normal" in2="BackgroundImageFix" result="effect1_dropShadow_6_1642"/>
<feColorMatrix in="SourceAlpha" type="matrix" values="0 0 0 0 0 0 0 0 0 0 0 0 0 0 0 0 0 0 127 0" result="hardAlpha"/>
<feOffset dx="-16" dy="22"/>
<feGaussianBlur stdDeviation="13.5"/>
<feColorMatrix type="matrix" values="0 0 0 0 0.101961 0 0 0 0 0.0313726 0 0 0 0 0.168627 0 0 0 0.85 0"/>
<feBlend mode="normal" in2="effect1_dropShadow_6_1642" result="effect2_dropShadow_6_1642"/>
<feColorMatrix in="SourceAlpha" type="matrix" values="0 0 0 0 0 0 0 0 0 0 0 0 0 0 0 0 0 0 127 0" result="hardAlpha"/>
<feOffset dx="-35" dy="50"/>
<feGaussianBlur stdDeviation="18.5"/>
<feColorMatrix type="matrix" values="0 0 0 0 0.101961 0 0 0 0 0.0313726 0 0 0 0 0.168627 0 0 0 0.5 0"/>
<feBlend mode="normal" in2="effect2_dropShadow_6_1642" result="effect3_dropShadow_6_1642"/>
<feColorMatrix in="SourceAlpha" type="matrix" values="0 0 0 0 0 0 0 0 0 0 0 0 0 0 0 0 0 0 127 0" result="hardAlpha"/>
<feOffset dx="-63" dy="89"/>
<feGaussianBlur stdDeviation="22"/>
<feColorMatrix type="matrix" values="0 0 0 0 0.101961 0 0 0 0 0.0313726 0 0 0 0 0.168627 0 0 0 0.15 0"/>
<feBlend mode="normal" in2="effect3_dropShadow_6_1642" result="effect4_dropShadow_6_1642"/>
<feColorMatrix in="SourceAlpha" type="matrix" values="0 0 0 0 0 0 0 0 0 0 0 0 0 0 0 0 0 0 127 0" result="hardAlpha"/>
<feOffset dx="-98" dy="139"/>
<feGaussianBlur stdDeviation="24"/>
<feColorMatrix type="matrix" values="0 0 0 0 0.101961 0 0 0 0 0.0313726 0 0 0 0 0.168627 0 0 0 0.02 0"/>
<feBlend mode="normal" in2="effect4_dropShadow_6_1642" result="effect5_dropShadow_6_1642"/>
<feBlend mode="normal" in="SourceGraphic" in2="effect5_dropShadow_6_1642" result="shape"/>
</filter>
<radialGradient id="paint0_radial_6_1642" cx="0" cy="0" r="1" gradientUnits="userSpaceOnUse" gradientTransform="translate(235.366 3.51276) rotate(90) scale(255.307 205.096)">
<stop stop-color="#95CCEA"/>
<stop offset="1" stop-color="#104D7D"/>
</radialGradient>
</defs>
</svg>
