<svg width="152" height="157" viewBox="0 0 152 157" fill="none" xmlns="http://www.w3.org/2000/svg">
<path d="M133.688 135.287H17.8607C17.4794 135.287 17.4794 135.883 17.8607 135.883H133.688C134.07 135.883 134.07 135.287 133.688 135.287Z" fill="black"/>
<path d="M107.218 57.6882C106.066 43.8245 95.2209 32.5083 81.0941 29.9795L74.5905 29.4749C58.1104 30.07 44.8443 42.4603 43.7072 57.969C41.1161 59.1897 39.6514 60.5781 39.6514 62.0492V67.4515C39.6514 69.0801 41.4468 70.6043 44.5747 71.9154L51.1311 136.975L51.1757 143.326C51.1757 148.216 62.1881 152.181 75.7743 152.181C89.3606 152.181 100.373 148.216 100.373 143.326L100.433 136.815L106.974 71.9147C110.102 70.6035 111.897 69.0778 111.897 67.4507V62.0484C111.897 60.4619 110.196 58.9752 107.218 57.6882Z" fill="white"/>
<path d="M101.746 93.6792L97.3713 137.071C97.2822 137.947 96.836 138.742 96.1429 139.255C95.2347 139.926 93.7292 140.747 91.3389 141.522C79.1064 145.49 61.1978 143.538 55.4092 139.252C54.7161 138.74 54.2699 137.945 54.1808 137.069L50.5923 101.457L101.745 93.6792H101.746Z" fill="#FFD997"/>
<path d="M50.5949 101.503C50.3654 99.5165 50.6002 96.5089 53.8776 95.1002C57.8399 93.3967 62.2083 95.0183 71.824 95.1244C80.0731 95.2148 85.8904 93.5464 90.6212 92.3171C93.1558 91.6588 100.901 89.747 101.719 92.5628C101.961 93.3928 101.601 94.4543 101.067 95.6438C99.8873 98.2693 97.5083 100.596 95.79 101.92C90.5185 105.98 82.129 109.355 71.8859 109.355C58.1985 109.355 51.0403 105.356 50.5949 101.503Z" fill="#FFD997"/>
<path d="M101.99 92.4762C101.058 89.2602 92.8142 91.438 89.6734 92.2593C79.1819 95.0042 74.0336 95.2974 62.9759 94.3248C58.9593 93.9707 56.3054 93.7374 53.7671 94.8279C50.8581 96.079 50.005 98.4978 50.3311 101.736L53.8947 137.102C53.9921 138.062 54.4814 138.932 55.2401 139.494C59.8554 142.9 69.684 143.95 75.7731 143.951C81.5987 143.951 87.1562 143.189 91.4205 141.804C94.0192 140.961 95.5118 140.082 96.3061 139.494C97.0649 138.932 97.5556 138.059 97.6515 137.102C102.132 92.505 102.193 93.1758 101.99 92.4754L101.99 92.4762ZM53.9853 95.37C56.6037 94.2452 59.789 94.6352 62.9253 94.9106C75.0038 95.9776 80.0645 95.3801 89.8116 92.8287C92.3801 92.1564 100.672 89.9778 101.446 92.6454C101.67 93.42 101.272 94.4831 100.808 95.5174C99.425 98.5929 96.4858 101.013 95.6183 101.682C89.5307 106.371 80.8799 109.06 71.8849 109.06C58.6701 109.06 51.3134 105.241 50.8762 101.467C50.6361 99.3995 50.9812 96.6617 53.9846 95.3708L53.9853 95.37ZM97.0868 137.039C97.0067 137.832 96.6013 138.552 95.9762 139.015C95.2151 139.579 93.7776 140.421 91.2521 141.243C78.8747 145.264 61.1389 143.14 55.5731 139.015C54.9472 138.55 54.5425 137.831 54.4625 137.039L51.0771 103.457C53.2484 106.705 60.0283 109.649 71.8864 109.649C81.0007 109.649 89.7753 106.916 95.9588 102.154C96.8353 101.48 99.7549 99.0695 101.227 95.9667L97.0875 137.04L97.0868 137.039Z" fill="black"/>
<path d="M79.9394 7.46936C78.1372 7.46936 76.6763 6.81961 76.6763 6.01855L68.2354 101.017C68.2354 101.818 69.6963 102.468 71.4985 102.468C73.3006 102.468 74.7616 101.818 74.7616 101.017L83.2025 6.01855C83.2025 6.81883 81.7415 7.46936 79.9394 7.46936Z" fill="#81F8F8"/>
<path d="M76.3863 6.05142L67.9507 100.991C67.9507 103.334 75.0145 103.333 75.0477 101.034L83.4765 6.177C83.8729 3.8721 76.6136 3.4938 76.3863 6.05142ZM74.4777 101.018C74.4777 101.563 73.1911 102.175 71.4984 102.175C69.8057 102.175 68.5373 101.573 68.52 101.029L76.8808 6.91488C78.1764 8.0178 81.4093 8.02716 82.8257 7.05138L74.4777 101.018Z" fill="black"/>
<path d="M81.1439 29.6919C80.7724 29.6256 80.6766 30.2043 81.0457 30.2706C97.0102 33.1254 108.163 47.1093 106.948 62.228C101.75 65.2996 86.629 67.1966 75.4738 67.1966C67.7124 67.1966 50.2765 65.9447 43.9986 62.228C42.6646 45.6343 56.2281 30.4313 74.6018 29.7675C74.9786 29.7496 74.9552 29.1661 74.5822 29.1802C55.8567 29.8541 42.0168 45.3745 43.4445 62.4308C43.4535 62.5267 43.5049 62.611 43.5834 62.6586C49.8756 66.5227 67.5516 67.7855 75.4746 67.7855C82.86 67.7855 101.015 66.5593 107.364 62.6609C107.444 62.611 107.496 62.5267 107.503 62.4331C108.8 46.9462 97.4881 32.6192 81.1446 29.6934L81.1439 29.6919Z" fill="black"/>
<path d="M58.2871 149.865C53.5185 148.149 50.8911 145.826 50.8911 143.327V137.924C50.8911 137.536 51.4596 137.536 51.4596 137.924C51.4596 140.122 54.0153 142.304 58.4728 143.909C68.0236 147.346 83.5237 147.346 93.0745 143.909C97.532 142.304 100.088 140.122 100.088 137.924C100.088 137.536 100.656 137.536 100.656 137.924V143.327C100.656 151.578 73.7216 155.421 58.2856 149.865H58.2871ZM51.4604 139.908V143.327C51.4604 145.525 54.0161 147.706 58.4736 149.311C68.0243 152.749 83.5245 152.748 93.0752 149.311C97.5327 147.706 100.088 145.525 100.088 143.327V139.908C99.0767 141.638 96.7377 143.21 93.2617 144.462C79.6596 149.357 55.6333 147.045 51.4604 139.908Z" fill="black"/>
<path d="M75.7745 147.072C63.0875 147.072 52.4284 143.606 51.055 138.989C51.0316 138.91 44.1815 71.8538 44.4042 71.6822C44.485 71.6206 44.5885 71.6058 44.6813 71.6456C58.1619 77.4168 92.8496 77.5049 106.868 71.6456C107.51 71.3772 107.213 67.9109 100.508 138.932C100.505 138.953 100.502 138.971 100.495 138.989C99.0896 143.598 88.463 147.072 75.776 147.072H75.7745ZM51.6054 138.841C53.7617 145.708 77.3683 149.022 92.1595 144.222C96.5393 142.8 99.301 140.891 99.9458 138.841L106.645 72.3678C92.4683 77.9994 59.083 77.9994 44.9063 72.3678L51.6054 138.841Z" fill="black"/>
<path d="M112.182 62.0468C112.182 59.1257 107.255 57.1234 103.123 55.9573C97.4511 54.3583 89.6482 53.3061 81.1544 52.9957C80.7754 52.9824 80.7596 53.5705 81.1333 53.583C89.5863 53.8934 97.3409 54.9363 102.972 56.5244C115.514 60.064 113.9 64.9219 101.25 68.0231C87.1756 71.4731 64.3715 71.4731 50.2976 68.0231C37.4747 64.8805 36.1383 60.0086 48.657 56.5025C54.3429 54.9106 62.1617 53.8716 70.6735 53.576C71.0503 53.5627 71.0322 52.9793 70.6554 52.9886C55.1069 53.5284 39.3667 56.9183 39.3667 62.0483V67.4506C39.3667 72.5807 55.3606 76.5992 75.7751 76.5992C96.1895 76.5992 112.182 72.5807 112.182 67.4506V62.0468ZM109.367 65.6379C109.462 65.5802 109.434 65.0654 109.434 70.3226C108.296 71.062 106.73 71.7687 104.781 72.4177V67.6386C106.251 67.1511 108.045 66.4452 109.367 65.6379ZM83.3243 71.0051V75.8161C81.7985 75.8957 80.2439 75.9503 78.669 75.9807V71.1658C79.8868 71.1424 83.2481 71.009 83.3243 71.0051ZM83.8928 70.9747C84.114 70.9622 88.5338 70.6369 88.5459 70.6361V75.4409C87.0321 75.5813 85.4791 75.696 83.8928 75.7857V70.9747ZM89.1144 70.5808C89.1944 70.573 92.376 70.2266 93.7675 70.0348V74.8333C92.2703 75.0455 90.7165 75.2303 89.1144 75.3863V70.5808ZM94.336 69.9552C94.4205 69.9427 97.5968 69.431 98.989 69.1448V73.9324C97.5168 74.2374 95.9638 74.5127 94.336 74.753V69.9552ZM57.2119 69.9552V74.753C55.5833 74.512 54.0296 74.2374 52.5573 73.9316V69.1456C53.5849 69.3569 56.0492 69.7789 57.2119 69.9552ZM57.7804 70.0363C59.2345 70.2399 60.7347 70.4185 62.4335 70.5823V75.3871C60.8313 75.2311 59.2776 75.0463 57.7804 74.8341V70.0363ZM63.0027 70.6377C63.4482 70.6783 67.5516 70.9692 67.6558 70.9754V75.7857C66.0695 75.6968 64.5165 75.5821 63.0027 75.4417V70.6377ZM68.2251 71.0066C68.4742 71.0191 72.7543 71.1642 72.8781 71.1665V75.9807C71.304 75.9503 69.7502 75.8957 68.2251 75.8161V71.0066ZM46.7665 67.6386V72.4177C44.8163 71.7687 43.2512 71.062 42.1134 70.3226V65.5966C43.5441 66.4748 45.2104 67.1113 46.7665 67.6386ZM39.9345 67.4506V63.7012C40.2297 64.1224 40.814 64.7183 41.5449 65.2284V69.924C40.4924 69.1214 39.9345 68.2868 39.9345 67.4506ZM47.3357 72.5994V67.8211C48.8359 68.2907 50.4539 68.6955 51.9888 69.0247V73.8123C50.4033 73.4699 48.968 73.1134 47.3357 72.5994ZM73.4474 75.9908V71.1767C75.1371 71.2024 76.2432 71.2032 78.1005 71.1751V75.9908C77.3289 76.0025 74.219 76.0025 73.4474 75.9908ZM99.5591 73.8123V69.0247C101.438 68.6222 102.874 68.2376 104.212 67.8196V72.6002C102.585 73.1134 101.144 73.4707 99.5591 73.8123ZM111.613 63.7012V67.4506C111.613 68.2868 111.055 69.1214 110.003 69.924V65.2261C110.55 64.8431 111.227 64.255 111.613 63.7012Z" fill="black"/>
<path d="M75.7747 39.0267C70.9457 39.0267 67.1616 37.2732 67.1616 35.0331C67.1616 33.3233 69.3745 31.8476 72.7977 31.2758C73.1676 31.2142 73.259 31.7922 72.8883 31.8546C69.8026 32.3694 67.7301 33.647 67.7301 35.0315C67.7301 36.8786 71.4145 38.4393 75.7747 38.4393C82.0147 38.4393 86.3281 35.3186 82.1786 32.9965C81.8501 32.8124 82.1174 32.2945 82.4504 32.4801C86.855 34.9434 83.4304 39.0267 75.7747 39.0267Z" fill="black"/>
<path d="M85.7685 122.706C88.0856 122.706 89.9633 120.765 89.9633 118.372C89.9633 115.978 88.0856 114.038 85.7685 114.038C83.4522 114.038 81.5737 115.978 81.5737 118.372C81.5737 120.765 83.4522 122.706 85.7685 122.706Z" fill="black"/>
<path d="M84.9934 118.158C85.9636 118.158 86.7496 117.576 86.7496 116.858C86.7496 116.139 85.9636 115.557 84.9934 115.557C84.0233 115.557 83.2373 116.139 83.2373 116.858C83.2373 117.576 84.0233 118.158 84.9934 118.158Z" fill="white"/>
<path d="M83.2627 140.378C85.579 140.378 87.4574 138.437 87.4574 136.044C87.4574 133.65 85.579 131.71 83.2627 131.71C80.9463 131.71 79.0679 133.65 79.0679 136.044C79.0679 138.437 80.9463 140.378 83.2627 140.378Z" fill="black"/>
<path d="M82.4881 135.83C83.4582 135.83 84.2442 135.248 84.2442 134.529C84.2442 133.811 83.4582 133.229 82.4881 133.229C81.5179 133.229 80.7319 133.811 80.7319 134.529C80.7319 135.248 81.5179 135.83 82.4881 135.83Z" fill="white"/>
<path d="M75.3268 132.842C77.2196 132.842 78.7538 131.257 78.7538 129.302C78.7538 127.346 77.2196 125.761 75.3268 125.761C73.4342 125.761 71.8999 127.346 71.8999 129.302C71.8999 131.257 73.4342 132.842 75.3268 132.842Z" fill="black"/>
<path d="M74.6943 129.127C75.4865 129.127 76.1288 128.651 76.1288 128.064C76.1288 127.477 75.4865 127.001 74.6943 127.001C73.902 127.001 73.2598 127.477 73.2598 128.064C73.2598 128.651 73.902 129.127 74.6943 129.127Z" fill="white"/>
<path d="M61.1877 138.779C63.0803 138.779 64.6146 137.194 64.6146 135.238C64.6146 133.283 63.0803 131.698 61.1877 131.698C59.2951 131.698 57.7607 133.283 57.7607 135.238C57.7607 137.194 59.2951 138.779 61.1877 138.779Z" fill="black"/>
<path d="M60.5551 135.064C61.3474 135.064 61.9896 134.588 61.9896 134C61.9896 133.413 61.3474 132.937 60.5551 132.937C59.7629 132.937 59.1206 133.413 59.1206 134C59.1206 134.588 59.7629 135.064 60.5551 135.064Z" fill="white"/>
<path d="M69.4465 138.444C70.9798 138.444 72.2227 137.16 72.2227 135.576C72.2227 133.992 70.9798 132.708 69.4465 132.708C67.9134 132.708 66.6704 133.992 66.6704 135.576C66.6704 137.16 67.9134 138.444 69.4465 138.444Z" fill="black"/>
<path d="M68.9352 135.435C69.5773 135.435 70.0979 135.049 70.0979 134.574C70.0979 134.098 69.5773 133.712 68.9352 133.712C68.293 133.712 67.7725 134.098 67.7725 134.574C67.7725 135.049 68.293 135.435 68.9352 135.435Z" fill="white"/>
<path d="M83.1985 129.706C84.7319 129.706 85.9746 128.422 85.9746 126.838C85.9746 125.253 84.7319 123.969 83.1985 123.969C81.6651 123.969 80.4224 125.253 80.4224 126.838C80.4224 128.422 81.6651 129.706 83.1985 129.706Z" fill="black"/>
<path d="M82.6866 126.696C83.3291 126.696 83.8493 126.31 83.8493 125.834C83.8493 125.359 83.3291 124.973 82.6866 124.973C82.0441 124.973 81.5239 125.359 81.5239 125.834C81.5239 126.31 82.0441 126.696 82.6866 126.696Z" fill="white"/>
<path d="M94.4968 122.236C96.0302 122.236 97.273 120.952 97.273 119.368C97.273 117.783 96.0302 116.5 94.4968 116.5C92.9634 116.5 91.7207 117.783 91.7207 119.368C91.7207 120.952 92.9634 122.236 94.4968 122.236Z" fill="black"/>
<path d="M93.985 119.226C94.6275 119.226 95.1477 118.841 95.1477 118.365C95.1477 117.889 94.6275 117.504 93.985 117.504C93.3425 117.504 92.8223 117.889 92.8223 118.365C92.8223 118.841 93.3425 119.226 93.985 119.226Z" fill="white"/>
<path d="M62.4746 118.558C63.2943 118.558 63.9589 117.872 63.9589 117.024C63.9589 116.177 63.2943 115.491 62.4746 115.491C61.6548 115.491 60.9902 116.177 60.9902 117.024C60.9902 117.872 61.6548 118.558 62.4746 118.558Z" fill="black"/>
<path d="M62.2007 116.95C62.5443 116.95 62.8229 116.743 62.8229 116.489C62.8229 116.234 62.5443 116.028 62.2007 116.028C61.8571 116.028 61.5786 116.234 61.5786 116.489C61.5786 116.743 61.8571 116.95 62.2007 116.95Z" fill="white"/>
<path d="M66.8007 130.763C67.6205 130.763 68.2851 130.077 68.2851 129.23C68.2851 128.383 67.6205 127.696 66.8007 127.696C65.981 127.696 65.3164 128.383 65.3164 129.23C65.3164 130.077 65.981 130.763 66.8007 130.763Z" fill="black"/>
<path d="M66.5264 129.155C66.87 129.155 67.1485 128.948 67.1485 128.694C67.1485 128.439 66.87 128.233 66.5264 128.233C66.1828 128.233 65.9043 128.439 65.9043 128.694C65.9043 128.948 66.1828 129.155 66.5264 129.155Z" fill="white"/>
<path d="M75.7104 139.035C76.5303 139.035 77.1947 138.349 77.1947 137.502C77.1947 136.655 76.5303 135.968 75.7104 135.968C74.8906 135.968 74.2261 136.655 74.2261 137.502C74.2261 138.349 74.8906 139.035 75.7104 139.035Z" fill="black"/>
<path d="M75.4346 137.425C75.7781 137.425 76.0567 137.219 76.0567 136.964C76.0567 136.71 75.7781 136.503 75.4346 136.503C75.091 136.503 74.8125 136.71 74.8125 136.964C74.8125 137.219 75.091 137.425 75.4346 137.425Z" fill="white"/>
<path d="M90.6245 136.033C91.4444 136.033 92.1088 135.346 92.1088 134.499C92.1088 133.652 91.4444 132.966 90.6245 132.966C89.8045 132.966 89.1401 133.652 89.1401 134.499C89.1401 135.346 89.8045 136.033 90.6245 136.033Z" fill="black"/>
<path d="M90.3506 134.425C90.6942 134.425 90.9728 134.218 90.9728 133.964C90.9728 133.709 90.6942 133.503 90.3506 133.503C90.0071 133.503 89.7285 133.709 89.7285 133.964C89.7285 134.218 90.0071 134.425 90.3506 134.425Z" fill="white"/>
<path d="M92.8833 113.622C93.7032 113.622 94.3676 112.935 94.3676 112.088C94.3676 111.241 93.7032 110.555 92.8833 110.555C92.0633 110.555 91.3989 111.241 91.3989 112.088C91.3989 112.935 92.0633 113.622 92.8833 113.622Z" fill="black"/>
<path d="M92.6099 112.014C92.9534 112.014 93.232 111.807 93.232 111.553C93.232 111.298 92.9534 111.092 92.6099 111.092C92.2664 111.092 91.9878 111.298 91.9878 111.553C91.9878 111.807 92.2664 112.014 92.6099 112.014Z" fill="white"/>
<path d="M59.6985 128.372C61.2318 128.372 62.4746 127.088 62.4746 125.504C62.4746 123.92 61.2318 122.636 59.6985 122.636C58.1653 122.636 56.9224 123.92 56.9224 125.504C56.9224 127.088 58.1653 128.372 59.6985 128.372Z" fill="black"/>
<path d="M59.1861 125.363C59.8283 125.363 60.3488 124.977 60.3488 124.501C60.3488 124.026 59.8283 123.64 59.1861 123.64C58.544 123.64 58.0234 124.026 58.0234 124.501C58.0234 124.977 58.544 125.363 59.1861 125.363Z" fill="white"/>
<path d="M91.403 131.04C93.2958 131.04 94.83 129.455 94.83 127.5C94.83 125.544 93.2958 123.959 91.403 123.959C89.5102 123.959 87.9761 125.544 87.9761 127.5C87.9761 129.455 89.5102 131.04 91.403 131.04Z" fill="black"/>
<path d="M90.77 127.326C91.5619 127.326 92.2045 126.85 92.2045 126.263C92.2045 125.675 91.5619 125.199 90.77 125.199C89.978 125.199 89.3354 125.675 89.3354 126.263C89.3354 126.85 89.978 127.326 90.77 127.326Z" fill="white"/>
<path d="M70.2277 123.037C72.1204 123.037 73.6547 121.452 73.6547 119.496C73.6547 117.541 72.1204 115.956 70.2277 115.956C68.3351 115.956 66.8008 117.541 66.8008 119.496C66.8008 121.452 68.3351 123.037 70.2277 123.037Z" fill="black"/>
<path d="M69.5951 119.322C70.3874 119.322 71.0296 118.846 71.0296 118.258C71.0296 117.671 70.3874 117.195 69.5951 117.195C68.8029 117.195 68.1606 117.671 68.1606 118.258C68.1606 118.846 68.8029 119.322 69.5951 119.322Z" fill="white"/>
<path d="M23.7123 40.7241C25.0721 42.6546 24.9845 42.561 25.0789 42.5563L27.2132 42.4261C27.3167 42.4206 27.3793 42.5399 27.3197 42.6265C25.9803 44.5718 26.0203 44.4478 26.0558 44.5383L26.8357 46.5952C26.8727 46.6942 26.7829 46.7933 26.6847 46.7605C24.4922 46.0273 24.61 46.0476 24.5337 46.1084L22.881 47.5117C22.801 47.5795 22.6825 47.521 22.6817 47.4142C22.6772 45.0328 22.6968 45.1529 22.616 45.0983L20.8154 43.9088C20.7285 43.8519 20.7459 43.7162 20.8441 43.6826C23.0426 42.9377 22.9316 42.9986 22.9558 42.9042L23.4941 40.767C23.5205 40.664 23.6504 40.6383 23.7108 40.7249L23.7123 40.7241Z" fill="#81F8F8"/>
<path d="M27.198 42.1528L25.1406 42.2792L23.9356 40.5788C23.7831 40.3034 23.3293 40.3432 23.2387 40.6965L22.7193 42.7565L20.7608 43.4219C20.449 43.5287 20.3999 43.9585 20.6732 44.1371L22.409 45.2837L22.418 47.4123C22.418 47.7501 22.7993 47.9342 23.0485 47.7204L24.6408 46.3695L26.6023 47.0184C26.9118 47.123 27.1995 46.8102 27.0824 46.4943L26.3297 44.5123L27.5354 42.783C27.7068 42.5311 27.5634 42.1645 27.198 42.1528ZM25.8586 44.2557C25.7793 44.3664 25.7612 44.5092 25.8103 44.6371L26.4822 46.4046L24.7299 45.825C24.6091 45.7845 24.4732 45.8094 24.3682 45.896L22.9465 47.1019L22.9382 45.2034C22.9382 45.0684 22.8726 44.9436 22.7601 44.8664L21.2123 43.8431L22.9579 43.2503C23.0855 43.2081 23.1806 43.1028 23.2131 42.971L23.6759 41.1341L24.7623 42.6676C24.8386 42.7737 24.9669 42.8298 25.0945 42.8283L26.9314 42.7152L25.8586 44.2557Z" fill="black"/>
<path d="M128.155 87.9327C129.113 90.5972 129.02 90.4459 129.128 90.4701L131.589 91.0372C131.708 91.0645 131.742 91.2205 131.646 91.2977C129.479 93.0496 129.598 92.9279 129.611 93.0402L129.849 95.6345C129.859 95.7593 129.726 95.8419 129.627 95.7725C127.345 94.1844 127.494 94.2648 127.393 94.3108L125.079 95.3467C124.967 95.3966 124.851 95.2897 124.883 95.1704C125.603 92.5106 125.615 92.6112 125.539 92.5246L123.872 90.5707C123.792 90.4771 123.853 90.3289 123.976 90.325C126.725 90.2291 126.557 90.2501 126.614 90.1503L127.897 87.9086C127.959 87.8001 128.115 87.815 128.157 87.9327H128.155Z" fill="white"/>
<path d="M131.647 90.7717L129.251 90.2195L128.403 87.8373C128.285 87.5113 127.848 87.459 127.668 87.7703L126.419 89.955L123.967 90.0533C123.622 90.0642 123.446 90.4839 123.673 90.7522L125.297 92.6546L124.628 95.0991C124.539 95.4377 124.862 95.7372 125.183 95.5983L127.436 94.5898L129.478 96C129.763 96.1989 130.143 95.9657 130.111 95.61L129.879 93.0828L131.806 91.515C132.08 91.2974 131.984 90.8497 131.645 90.7717H131.647ZM129.503 92.6952C129.392 92.7849 129.333 92.9253 129.348 93.068L129.562 95.401C127.538 94.0032 127.621 94.0266 127.449 94.0266C127.333 94.0266 127.468 93.9814 125.207 94.9931L125.825 92.7311C125.86 92.5922 125.825 92.4479 125.738 92.345L124.238 90.5884L126.505 90.4971C126.645 90.4917 126.77 90.4145 126.841 90.2897L127.992 88.2757L128.777 90.4745C128.827 90.6079 128.936 90.7062 129.07 90.7366L131.282 91.2467L129.503 92.6952Z" fill="black"/>
<path d="M120.844 17.4948C121.87 17.4948 122.702 16.6351 122.702 15.5744C122.702 14.5138 121.87 13.6541 120.844 13.6541C119.817 13.6541 118.985 14.5138 118.985 15.5744C118.985 16.6351 119.817 17.4948 120.844 17.4948Z" fill="white"/>
<path d="M120.843 13.3811C119.672 13.3811 118.72 14.3655 118.72 15.5745C118.72 16.7835 119.672 17.7678 120.843 17.7678C122.014 17.7678 122.966 16.7835 122.966 15.5745C122.966 14.3655 122.014 13.3811 120.843 13.3811ZM120.843 17.2219C119.964 17.2219 119.249 16.4832 119.249 15.5745C119.249 14.6658 119.964 13.9271 120.843 13.9271C121.722 13.9271 122.438 14.6658 122.438 15.5745C122.438 16.4832 121.722 17.2219 120.843 17.2219Z" fill="black"/>
</svg>
