<svg width="600" height="600" viewBox="0 0 600 600" fill="none" xmlns="http://www.w3.org/2000/svg">
<path fill-rule="evenodd" clip-rule="evenodd" d="M419.288 129.712C445.355 155.78 460 191.135 460 228V231.325L422 484H220.5L182 228C182 191.135 196.645 155.78 222.712 129.712C248.78 103.645 284.135 89 321 89C357.865 89 393.22 103.645 419.288 129.712ZM186.674 228L455.326 228C455.326 192.375 441.174 158.208 415.983 133.017C390.792 107.826 356.625 93.6743 321 93.6743C285.375 93.6743 251.208 107.826 226.017 133.017C200.826 158.208 186.674 192.375 186.674 228Z" fill="#FFB46E"/>
<path d="M436.5 244.5V245.135L398.848 495.5H201.652L163.904 244.5H436.5Z" stroke="#1E1E1E" stroke-width="5"/>
</svg>
