<svg width="153" height="158" viewBox="0 0 153 158" fill="none" xmlns="http://www.w3.org/2000/svg">
<path d="M148.474 141.429H4.07446C3.72258 141.429 3.72258 140.88 4.07446 140.88H148.474C148.826 140.88 148.826 141.429 148.474 141.429Z" fill="black"/>
<path d="M53.9293 74.7721H10.1602V141.155H53.9293V74.7721Z" fill="#FFD997"/>
<path d="M25.1997 124.766V141.154H26.8307V126.452H37.2571V141.154H38.8896V124.766H25.1997Z" fill="white"/>
<path d="M53.9289 74.4974H10.1605C10.0139 74.4974 9.89453 74.6198 9.89453 74.7721V141.154C9.89453 141.306 10.0131 141.429 10.1605 141.429H53.9297C54.0764 141.429 54.1957 141.306 54.1957 141.154V74.7721C54.1957 74.6206 54.0764 74.4974 53.9289 74.4974ZM38.6233 140.879H25.4654V125.04H38.6233V140.879ZM53.6629 140.879H39.1545V124.766C39.1545 124.615 39.036 124.492 38.8885 124.492H25.1987C25.052 124.492 24.9327 124.614 24.9327 124.766V140.879H10.4258V75.0461H53.6637L53.6629 140.879Z" fill="black"/>
<path d="M49.5109 129.4H42.411C42.2641 129.4 42.145 129.523 42.145 129.675V141.154C42.145 141.306 42.2641 141.429 42.411 141.429H49.5109C49.6579 141.429 49.7769 141.306 49.7769 141.154V129.675C49.7769 129.523 49.6579 129.4 49.5109 129.4Z" fill="black"/>
<path d="M37.2573 72.2523H14.9004V74.7721H37.2573V72.2523Z" fill="white"/>
<path d="M37.2577 75.046H14.9008C14.7541 75.046 14.6348 74.9236 14.6348 74.7713V72.2514C14.6348 72.0999 14.7533 71.9767 14.9008 71.9767H37.2577C37.4044 71.9767 37.5237 72.0991 37.5237 72.2514V74.7713C37.5237 74.9228 37.4051 75.046 37.2577 75.046ZM15.1668 74.4973H36.9924V72.5262H15.1668V74.4973Z" fill="black"/>
<path d="M34.0176 70.5999H18.1396V72.2523H34.0176V70.5999Z" fill="white"/>
<path d="M34.0179 72.5262H18.14C17.9933 72.5262 17.874 72.4038 17.874 72.2515V70.5998C17.874 70.4483 17.9926 70.3251 18.14 70.3251H34.0179C34.1646 70.3251 34.2839 70.4475 34.2839 70.5998V72.2515C34.2839 72.403 34.1654 72.5262 34.0179 72.5262ZM18.406 71.9775H33.7519V70.8746H18.406V71.9775Z" fill="black"/>
<path d="M50.1322 72.2523H38.9541V74.7721H50.1322V72.2523Z" fill="white"/>
<path d="M50.1326 75.046H38.9545C38.8078 75.046 38.6885 74.9236 38.6885 74.7713V72.2514C38.6885 72.0999 38.807 71.9767 38.9545 71.9767H50.1326C50.2792 71.9767 50.3986 72.0991 50.3986 72.2514V74.7713C50.3986 74.9228 50.28 75.046 50.1326 75.046ZM39.2205 74.4973H49.8673V72.5262H39.2205V74.4973Z" fill="black"/>
<path d="M47.0819 69.7536H45.7641V67.9622H46.496C46.8479 67.9622 46.8479 67.4135 46.496 67.4135H42.4163C42.0644 67.4135 42.0644 67.9622 42.4163 67.9622H43.1489V69.7536H41.6213C41.2695 69.7536 41.2695 70.3023 41.6213 70.3023H43.1489V72.2515C43.1489 72.6149 43.6802 72.6149 43.6802 72.2515V70.3023H45.2329V72.2515C45.2329 72.6149 45.7641 72.6149 45.7641 72.2515V70.3023H47.0819C47.4338 70.3023 47.4338 69.7536 47.0819 69.7536ZM43.6794 69.7536V67.9622H45.2321V69.7536H43.6794Z" fill="black"/>
<path d="M37.2567 126.452H26.8311V141.154H37.2567V126.452Z" fill="#81F8F8"/>
<path d="M37.2574 126.177H26.8309C26.6843 126.177 26.5649 126.3 26.5649 126.452V141.154C26.5649 141.306 26.6835 141.429 26.8309 141.429H37.2574C37.4041 141.429 37.5234 141.306 37.5234 141.154V126.452C37.5234 126.3 37.4048 126.177 37.2574 126.177ZM27.0969 126.726H31.7785V140.879H27.0969V126.726ZM36.9921 140.879H32.3105V126.726H36.9921V140.879Z" fill="black"/>
<path d="M47.8404 136.681C48.216 136.681 48.5206 136.366 48.5206 135.979C48.5206 135.591 48.216 135.276 47.8404 135.276C47.4647 135.276 47.1602 135.591 47.1602 135.979C47.1602 136.366 47.4647 136.681 47.8404 136.681Z" fill="white"/>
<path d="M31.0298 133.609H29.6162V134.86H31.0298V133.609Z" fill="white"/>
<path d="M31.0294 135.134H29.6166C29.4699 135.134 29.3506 135.011 29.3506 134.859V133.609C29.3506 133.457 29.4691 133.334 29.6166 133.334H31.0294C31.1761 133.334 31.2954 133.456 31.2954 133.609V134.859C31.2954 135.011 31.1769 135.134 31.0294 135.134ZM29.8818 134.585H30.7634V133.883H29.8818V134.585Z" fill="black"/>
<path d="M34.4727 133.609H33.0591V134.86H34.4727V133.609Z" fill="white"/>
<path d="M34.4728 135.134H33.0599C32.9133 135.134 32.7939 135.011 32.7939 134.859V133.609C32.7939 133.457 32.9125 133.334 33.0599 133.334H34.4728C34.6195 133.334 34.7388 133.456 34.7388 133.609V134.859C34.7388 135.011 34.6202 135.134 34.4728 135.134ZM33.3252 134.585H34.2068V133.883H33.3252V134.585Z" fill="black"/>
<path d="M19.9274 79.4288H13.9902V86.7834H19.9274V79.4288Z" fill="#81F8F8"/>
<path d="M19.9105 79.4288H14.0068V82.5264H19.9105V79.4288Z" fill="white"/>
<path d="M19.9263 79.1548H13.9891C13.8425 79.1548 13.7231 79.2772 13.7231 79.4295V86.7842C13.7231 86.9357 13.8417 87.059 13.9891 87.059H19.9263C20.0729 87.059 20.1923 86.9365 20.1923 86.7842V79.4295C20.1923 79.278 20.0737 79.1548 19.9263 79.1548ZM19.6603 82.2516H17.2237V79.7035H19.6603V82.2516ZM16.6925 79.7035V82.2516H14.2551V79.7035H16.6925ZM14.2551 86.5094V82.8003H19.6603V86.5094H14.2551Z" fill="black"/>
<path d="M30.0006 79.4288H24.0635V86.7834H30.0006V79.4288Z" fill="#81F8F8"/>
<path d="M29.9842 79.4288H24.0806V82.5264H29.9842V79.4288Z" fill="white"/>
<path d="M30.001 79.1548H24.0639C23.9172 79.1548 23.7979 79.2772 23.7979 79.4295V86.7842C23.7979 86.9357 23.9164 87.059 24.0639 87.059H30.001C30.1477 87.059 30.267 86.9365 30.267 86.7842V79.4295C30.267 79.278 30.1484 79.1548 30.001 79.1548ZM29.735 82.2516H27.2984V79.7035H29.735V82.2516ZM26.7672 79.7035V82.2516H24.3299V79.7035H26.7672ZM24.3299 86.5094V82.8003H29.735V86.5094H24.3299Z" fill="black"/>
<path d="M40.0753 79.4288H34.1382V86.7834H40.0753V79.4288Z" fill="#81F8F8"/>
<path d="M40.0585 79.4288H34.1548V82.5264H40.0585V79.4288Z" fill="white"/>
<path d="M40.0752 79.1548H34.1381C33.9914 79.1548 33.8721 79.2772 33.8721 79.4295V86.7842C33.8721 86.9357 33.9906 87.059 34.1381 87.059H40.0752C40.2219 87.059 40.3412 86.9365 40.3412 86.7842V79.4295C40.3412 79.278 40.2226 79.1548 40.0752 79.1548ZM39.8092 82.2516H37.3726V79.7035H39.8092V82.2516ZM36.8414 79.7035V82.2516H34.4041V79.7035H36.8414ZM34.4041 86.5094V82.8003H39.8092V86.5094H34.4041Z" fill="black"/>
<path d="M50.15 79.4288H44.2129V86.7834H50.15V79.4288Z" fill="#81F8F8"/>
<path d="M50.1332 79.4288H44.2295V82.5264H50.1332V79.4288Z" fill="white"/>
<path d="M50.1494 79.1548H44.2123C44.0656 79.1548 43.9463 79.2772 43.9463 79.4295V86.7842C43.9463 86.9357 44.0649 87.059 44.2123 87.059H50.1494C50.2961 87.059 50.4154 86.9365 50.4154 86.7842V79.4295C50.4154 79.278 50.2969 79.1548 50.1494 79.1548ZM49.8834 82.2516H47.4469V79.7035H49.8834V82.2516ZM46.9156 79.7035V82.2516H44.4783V79.7035H46.9156ZM44.4783 86.5094V82.8003H49.8834V86.5094H44.4783Z" fill="black"/>
<path d="M19.9274 94.8712H13.9902V102.226H19.9274V94.8712Z" fill="#81F8F8"/>
<path d="M19.9105 94.8712H14.0068V97.9688H19.9105V94.8712Z" fill="white"/>
<path d="M19.9263 94.5972H13.9891C13.8425 94.5972 13.7231 94.7197 13.7231 94.872V102.227C13.7231 102.378 13.8417 102.501 13.9891 102.501H19.9263C20.0729 102.501 20.1923 102.379 20.1923 102.227V94.872C20.1923 94.7205 20.0737 94.5972 19.9263 94.5972ZM19.6603 97.6941H17.2237V95.1459H19.6603V97.6941ZM16.6925 95.1459V97.6941H14.2551V95.1459H16.6925ZM14.2551 101.952V98.2428H19.6603V101.952H14.2551Z" fill="black"/>
<path d="M30.0006 94.8712H24.0635V102.226H30.0006V94.8712Z" fill="#81F8F8"/>
<path d="M29.9842 94.8712H24.0806V97.9688H29.9842V94.8712Z" fill="white"/>
<path d="M30.001 94.5972H24.0639C23.9172 94.5972 23.7979 94.7197 23.7979 94.872V102.227C23.7979 102.378 23.9164 102.501 24.0639 102.501H30.001C30.1477 102.501 30.267 102.379 30.267 102.227V94.872C30.267 94.7205 30.1484 94.5972 30.001 94.5972ZM29.735 97.6941H27.2984V95.1459H29.735V97.6941ZM26.7672 95.1459V97.6941H24.3299V95.1459H26.7672ZM24.3299 101.952V98.2428H29.735V101.952H24.3299Z" fill="black"/>
<path d="M40.0753 94.8712H34.1382V102.226H40.0753V94.8712Z" fill="#81F8F8"/>
<path d="M40.0585 94.8712H34.1548V97.9688H40.0585V94.8712Z" fill="white"/>
<path d="M40.0752 94.5972H34.1381C33.9914 94.5972 33.8721 94.7197 33.8721 94.872V102.227C33.8721 102.378 33.9906 102.501 34.1381 102.501H40.0752C40.2219 102.501 40.3412 102.379 40.3412 102.227V94.872C40.3412 94.7205 40.2226 94.5972 40.0752 94.5972ZM39.8092 97.6941H37.3726V95.1459H39.8092V97.6941ZM36.8414 95.1459V97.6941H34.4041V95.1459H36.8414ZM34.4041 101.952V98.2428H39.8092V101.952H34.4041Z" fill="black"/>
<path d="M50.15 94.8712H44.2129V102.226H50.15V94.8712Z" fill="#81F8F8"/>
<path d="M50.1332 94.8712H44.2295V97.9688H50.1332V94.8712Z" fill="white"/>
<path d="M50.1494 94.5972H44.2123C44.0656 94.5972 43.9463 94.7197 43.9463 94.872V102.227C43.9463 102.378 44.0649 102.501 44.2123 102.501H50.1494C50.2961 102.501 50.4154 102.379 50.4154 102.227V94.872C50.4154 94.7205 50.2969 94.5972 50.1494 94.5972ZM49.8834 97.6941H47.4469V95.1459H49.8834V97.6941ZM46.9156 95.1459V97.6941H44.4783V95.1459H46.9156ZM44.4783 101.952V98.2428H49.8834V101.952H44.4783Z" fill="black"/>
<path d="M19.9274 110.315H13.9902V117.669H19.9274V110.315Z" fill="#81F8F8"/>
<path d="M19.9105 110.315H14.0068V113.412H19.9105V110.315Z" fill="white"/>
<path d="M19.9263 110.04H13.9891C13.8425 110.04 13.7231 110.162 13.7231 110.315V117.669C13.7231 117.821 13.8417 117.944 13.9891 117.944H19.9263C20.0729 117.944 20.1923 117.821 20.1923 117.669V110.315C20.1923 110.163 20.0737 110.04 19.9263 110.04ZM19.6603 113.137H17.2237V110.589H19.6603V113.137ZM16.6925 110.589V113.137H14.2551V110.589H16.6925ZM14.2551 117.394V113.685H19.6603V117.394H14.2551Z" fill="black"/>
<path d="M30.0006 110.315H24.0635V117.669H30.0006V110.315Z" fill="#81F8F8"/>
<path d="M29.9842 110.315H24.0806V113.412H29.9842V110.315Z" fill="white"/>
<path d="M30.001 110.04H24.0639C23.9172 110.04 23.7979 110.162 23.7979 110.315V117.669C23.7979 117.821 23.9164 117.944 24.0639 117.944H30.001C30.1477 117.944 30.267 117.821 30.267 117.669V110.315C30.267 110.163 30.1484 110.04 30.001 110.04ZM29.735 113.137H27.2984V110.589H29.735V113.137ZM26.7672 110.589V113.137H24.3299V110.589H26.7672ZM24.3299 117.394V113.685H29.735V117.394H24.3299Z" fill="black"/>
<path d="M40.0753 110.315H34.1382V117.669H40.0753V110.315Z" fill="#81F8F8"/>
<path d="M40.0585 110.315H34.1548V113.412H40.0585V110.315Z" fill="white"/>
<path d="M40.0752 110.04H34.1381C33.9914 110.04 33.8721 110.162 33.8721 110.315V117.669C33.8721 117.821 33.9906 117.944 34.1381 117.944H40.0752C40.2219 117.944 40.3412 117.821 40.3412 117.669V110.315C40.3412 110.163 40.2226 110.04 40.0752 110.04ZM39.8092 113.137H37.3726V110.589H39.8092V113.137ZM36.8414 110.589V113.137H34.4041V110.589H36.8414ZM34.4041 117.394V113.685H39.8092V117.394H34.4041Z" fill="black"/>
<path d="M50.15 110.315H44.2129V117.669H50.15V110.315Z" fill="#81F8F8"/>
<path d="M50.1332 110.315H44.2295V113.412H50.1332V110.315Z" fill="white"/>
<path d="M50.1494 110.04H44.2123C44.0656 110.04 43.9463 110.162 43.9463 110.315V117.669C43.9463 117.821 44.0649 117.944 44.2123 117.944H50.1494C50.2961 117.944 50.4154 117.821 50.4154 117.669V110.315C50.4154 110.163 50.2969 110.04 50.1494 110.04ZM49.8834 113.137H47.4469V110.589H49.8834V113.137ZM46.9156 110.589V113.137H44.4783V110.589H46.9156ZM44.4783 117.394V113.685H49.8834V117.394H44.4783Z" fill="black"/>
<path d="M21.3259 86.5094H12.5897C12.4431 86.5094 12.3237 86.6319 12.3237 86.7841V89.9689C12.3237 90.1204 12.4423 90.2436 12.5897 90.2436H12.8481L18.1233 102.34C18.2677 102.671 18.7533 102.446 18.6089 102.114L18.3171 101.445H20.6929L21.0827 102.34C21.2264 102.669 21.7128 102.447 21.5684 102.114L16.3935 90.2436H21.3259C21.4726 90.2436 21.5919 90.1212 21.5919 89.9689V86.7841C21.5919 86.6326 21.4734 86.5094 21.3259 86.5094ZM21.0599 87.0581V88.1014H12.855V87.0581H21.0599ZM17.0289 93.0406H14.6516L14.0345 91.626H16.4118L17.0289 93.0406ZM16.6041 97.5167H18.9806L19.5977 98.932H17.2219L16.6048 97.5167H16.6041ZM16.3647 96.968L15.7475 95.5534H18.1241L18.7404 96.968H16.3639H16.3647ZM15.5081 95.0047L14.891 93.5893H17.2683L17.8854 95.0047H15.5081ZM18.0769 100.895L17.4598 99.4807H19.8356L20.4519 100.895H18.0769ZM16.1731 91.0773H13.7959L13.4318 90.2429H15.8091L16.1731 91.0773ZM12.855 89.6934V88.6501H21.0599V89.6934H12.855Z" fill="black"/>
<path d="M21.3254 101.952H12.5892C12.4426 101.952 12.3232 102.074 12.3232 102.227V105.411C12.3232 105.563 12.4418 105.686 12.5892 105.686H12.8476L18.1228 117.782C18.2672 118.114 18.7528 117.888 18.6084 117.557L18.3166 116.887H20.6924L21.0822 117.782C21.2259 118.112 21.7123 117.89 21.5679 117.557L16.393 105.686H21.3254C21.4721 105.686 21.5914 105.564 21.5914 105.411V102.227C21.5914 102.075 21.4729 101.952 21.3254 101.952ZM21.0594 102.501V103.544H12.8545V102.501H21.0594ZM17.0284 108.483H14.6511L14.034 107.069H16.4113L17.0284 108.483ZM16.6036 112.959H18.9801L19.5972 114.375H17.2214L16.6036 112.959ZM16.3642 112.411L15.747 110.996H18.1236L18.7399 112.411H16.3642ZM15.5076 110.447L14.8905 109.032H17.2678L17.8849 110.447H15.5076ZM18.0764 116.338L17.4593 114.923H19.8351L20.4514 116.338H18.0764ZM16.1726 106.52H13.7954L13.4313 105.685H15.8086L16.1726 106.52ZM12.8545 105.136V104.093H21.0594V105.136H12.8545Z" fill="black"/>
<path d="M21.3254 117.395H12.5892C12.4426 117.395 12.3232 117.518 12.3232 117.67V120.855C12.3232 121.006 12.4418 121.13 12.5892 121.13H12.8476L18.1228 133.226C18.2672 133.557 18.7528 133.332 18.6084 133L18.3166 132.331H20.6924L21.0822 133.226C21.2259 133.555 21.7123 133.333 21.5679 133L16.393 121.13H21.3254C21.4721 121.13 21.5914 121.007 21.5914 120.855V117.67C21.5914 117.519 21.4729 117.395 21.3254 117.395ZM21.0594 117.944V118.987H12.8545V117.944H21.0594ZM17.0284 123.926H14.6511L14.034 122.512H16.4113L17.0284 123.926ZM16.6036 128.403H18.9801L19.5972 129.818H17.2214L16.6036 128.403ZM16.3642 127.854L15.747 126.439H18.1236L18.7399 127.854H16.3642ZM15.5076 125.891L14.8905 124.475H17.2678L17.8849 125.891H15.5076ZM18.0764 131.781L17.4593 130.367H19.8351L20.4514 131.781H18.0764ZM16.1726 121.963H13.7954L13.4313 121.129H15.8086L16.1726 121.963ZM12.8545 120.579V119.536H21.0594V120.579H12.8545Z" fill="black"/>
<path d="M97.2147 43.975H57.8604V141.155H97.2147V43.975Z" fill="white"/>
<path d="M97.481 43.9742C97.481 43.8227 97.3625 43.6995 97.215 43.6995H57.8607C57.7141 43.6995 57.5947 43.8219 57.5947 43.9742V141.154C57.5947 141.306 57.7133 141.429 57.86 141.429H97.2143C97.361 141.429 97.4803 141.306 97.4803 141.154L97.481 43.9742ZM58.1267 44.249H96.9498V48.7698H58.1267V44.249ZM96.949 140.88H58.126V49.3185H96.949V140.88Z" fill="black"/>
<path d="M95.4898 123.017H59.5874V141.154H95.4898V123.017Z" fill="#81F8F8"/>
<path d="M69.4275 123.017H67.8672V141.154H69.4275V123.017Z" fill="white"/>
<path d="M78.3181 123.017H76.7578V141.154H78.3181V123.017Z" fill="white"/>
<path d="M87.2087 123.017H85.6484V141.154H87.2087V123.017Z" fill="white"/>
<path d="M95.4892 122.743H59.5868C59.4401 122.743 59.3208 122.865 59.3208 123.017V141.154C59.3208 141.306 59.4394 141.429 59.5868 141.429H95.4892C95.6359 141.429 95.7552 141.306 95.7552 141.154V123.017C95.7552 122.866 95.6366 122.743 95.4892 122.743ZM85.3827 123.291V140.879H78.5838V123.291H85.3827ZM76.4922 123.291V140.879H69.6933V123.291H76.4922ZM59.852 123.291H67.601V140.879H59.852V123.291ZM68.133 140.879V123.291H69.162V140.879H68.133ZM77.0235 140.879V123.291H78.0525V140.879H77.0235ZM85.914 140.879V123.291H86.943V140.879H85.914ZM95.2232 140.879H87.4742V123.291H95.2232V140.879Z" fill="black"/>
<path d="M95.4896 34.9954H78.2832V43.975H95.4896V34.9954Z" fill="white"/>
<path d="M97.2149 33.4355H73.3594V34.9953H97.2149V33.4355Z" fill="#FFD997"/>
<path d="M97.2157 33.1608H73.3593C73.2126 33.1608 73.0933 33.2833 73.0933 33.4356V34.9954C73.0933 35.1469 73.2118 35.2701 73.3593 35.2701H75.1027V43.975H76.0253V35.2701H78.0181V43.975C78.0181 44.1265 78.1366 44.2497 78.2841 44.2497H95.4905C95.6371 44.2497 95.7565 44.1273 95.7565 43.975V35.2701H97.2164C97.3631 35.2701 97.4824 35.1477 97.4824 34.9954V33.4356C97.4824 33.2841 97.3631 33.1608 97.2157 33.1608ZM95.2245 43.7002H78.5501V35.2701H95.2245V43.7002ZM96.9504 34.7214H73.626V33.7103H96.9504V34.7214Z" fill="black"/>
<path d="M93.7743 36.4672H79.9985V41.9646H93.7743V36.4672Z" fill="#81F8F8"/>
<path d="M93.7742 36.1933H79.9984C79.8517 36.1933 79.7324 36.3158 79.7324 36.468V41.9654C79.7324 42.1169 79.851 42.2402 79.9984 42.2402H93.7742C93.9209 42.2402 94.0402 42.1177 94.0402 41.9654V36.468C94.0402 36.3165 93.9216 36.1933 93.7742 36.1933ZM89.0082 36.742V41.6907H84.7636V36.742H89.0082ZM80.2637 36.742H84.2324V41.6907H80.2637V36.742ZM93.5082 41.6907H89.5395V36.742H93.5082V41.6907Z" fill="black"/>
<path d="M66.2476 29.7233C65.8213 30.6347 65.2938 31.6261 64.7565 32.2934C64.0193 33.2087 63.6066 33.8767 63.2677 34.2378C63.2555 33.1419 63.121 31.7179 62.9903 30.5499C62.6977 30.7862 62.3823 30.9447 62.0874 30.9981C62.1216 32.2463 62.1239 33.6255 62.0091 34.354C61.3981 34.1389 60.4884 33.7079 59.5285 32.7981C59.4266 33.1624 59.1865 33.4724 58.8042 33.6294C61.0728 35.7207 62.44 35.3007 62.44 38.6173V43.9749H64.3955V36.8173C64.3955 33.8092 65.8426 32.9206 67.1748 30.2147C66.7386 30.1927 66.4316 29.9917 66.2469 29.7241L66.2476 29.7233Z" fill="#FFD997"/>
<path d="M73.3834 24.9058C73.8789 24.0627 73.4997 22.7635 72.7632 22.1088C73.4647 20.3104 71.6468 18.5834 69.9376 19.0897C69.6678 17.391 68.1219 17.0346 67.1096 17.7112C66.5237 16.1671 63.2845 15.5588 62.3908 17.7466C61.8033 17.4396 60.8578 17.4663 60.1921 17.8596C59.5628 18.2309 59.2444 18.8589 59.2664 19.6455C58.0177 18.8982 56.0205 19.7161 55.8791 21.4329C53.7283 20.7924 51.8481 22.7658 52.0457 24.2362C51.3852 24.1616 50.5234 24.4928 49.923 25.0957C49.1873 25.8344 49.011 26.7654 49.4077 27.7059C48.9654 27.8683 48.4714 28.4178 48.409 29.0678C48.3809 29.3701 48.4341 29.8936 48.9965 30.3631C48.2039 30.8364 47.966 31.7659 48.365 32.6121C47.1079 33.8022 48.3984 36.3259 50.496 35.5472C50.1213 37.2883 52.1087 38.9628 53.5125 38.0663C54.3804 39.9189 57.4432 39.0342 57.2904 37.4438C58.7542 36.9704 59.3531 35.2599 58.761 33.9537C60.9726 35.9429 62.1749 35.504 62.1749 38.6158V43.9726C62.1749 44.1241 62.2935 44.2474 62.4409 44.2474H64.3964C64.5431 44.2474 64.6624 44.1249 64.6624 43.9726V36.815C64.6624 33.949 66.0357 33.0737 67.3384 30.4863C67.7693 30.4683 68.3302 30.3058 69.0362 29.8513C70.7059 31.163 73.1007 29.9643 73.1372 27.7977C74.3714 27.3612 74.5113 25.5495 73.3834 24.9042V24.9058ZM63.9845 29.7696C64.5636 30.2375 65.3137 30.082 65.8609 29.5506C65.8845 29.6142 65.9118 29.677 65.9445 29.7382C65.0713 31.5806 64.7681 31.8004 63.5103 33.4992C63.473 32.7251 63.3932 31.7753 63.2708 30.6653C63.5467 30.418 63.7937 30.1119 63.9845 29.7696ZM61.1634 31.046C61.3465 31.1975 61.576 31.2776 61.8284 31.2886C61.855 32.4677 61.8405 33.3822 61.7866 33.9749C61.095 33.6868 60.4376 33.2605 59.825 32.7024C59.8767 32.4064 59.8569 32.0932 59.7672 31.7949C60.3144 31.8263 60.8373 31.5759 61.1626 31.0452L61.1634 31.046ZM64.1304 36.8166V43.7002H62.7062V38.6174C62.7062 35.2473 61.2736 35.4295 59.2657 33.6781C59.4108 33.5635 59.5332 33.4214 59.6289 33.2534C60.341 33.8712 61.1117 34.3281 61.9241 34.6131C62.0731 34.668 62.2448 34.5691 62.2722 34.3972C62.3657 33.799 62.3953 32.7275 62.3589 31.2117C62.4949 31.1677 62.6332 31.1065 62.7746 31.0272C63.1318 34.3878 62.8764 34.3721 63.169 34.4937C63.4069 34.5919 63.5422 34.3713 64.0878 33.6224C65.0789 32.2596 65.4125 32.0579 66.3215 30.1912C66.4537 30.294 66.6027 30.3709 66.7714 30.4212C65.5227 32.8343 64.1304 33.8006 64.1304 36.8166Z" fill="black"/>
<path d="M78.2832 40.3977H57.8597C57.7131 40.3977 57.5938 40.5202 57.5938 40.6725V43.9749C57.5938 44.3384 58.125 44.3384 58.125 43.9749V40.9472H60.7478V43.9749C60.7478 44.3384 61.279 44.3384 61.279 43.9749V40.9472H65.1497V43.9749C65.1497 44.3384 65.6809 44.3384 65.6809 43.9749V40.9472H69.5524V43.9749C69.5524 44.3384 70.0836 44.3384 70.0836 43.9749V40.9472H73.955V43.9749C73.955 44.3384 74.4863 44.3384 74.4863 43.9749V40.9472H78.2825C78.6344 40.9472 78.6344 40.3985 78.2825 40.3985L78.2832 40.3977Z" fill="black"/>
<path d="M95.4896 52.9554H59.5864V60.2967H95.4896V52.9554Z" fill="#81F8F8"/>
<path d="M95.4895 52.6807H59.5863C59.4396 52.6807 59.3203 52.8031 59.3203 52.9554V60.2967C59.3203 60.4482 59.4389 60.5715 59.5863 60.5715H95.4895C95.6361 60.5715 95.7555 60.449 95.7555 60.2967V52.9554C95.7555 52.8039 95.6369 52.6807 95.4895 52.6807ZM77.8035 53.2294H86.1628V60.0212H77.8035V53.2294ZM77.2723 60.0212H68.913V53.2294H77.2723V60.0212ZM59.8523 53.2294H68.3818V60.0212H59.8523V53.2294ZM95.2242 60.0212H86.694V53.2294H95.2242V60.0212Z" fill="black"/>
<path d="M95.4896 62.5638H59.5864V69.9051H95.4896V62.5638Z" fill="#81F8F8"/>
<path d="M95.4895 62.289H59.5863C59.4396 62.289 59.3203 62.4115 59.3203 62.5638V69.9051C59.3203 70.0566 59.4389 70.1798 59.5863 70.1798H95.4895C95.6361 70.1798 95.7555 70.0574 95.7555 69.9051V62.5638C95.7555 62.4122 95.6369 62.289 95.4895 62.289ZM77.8035 62.8377H86.1628V69.6295H77.8035V62.8377ZM77.2723 69.6295H68.913V62.8377H77.2723V69.6295ZM59.8523 62.8377H68.3818V69.6295H59.8523V62.8377ZM95.2242 69.6295H86.694V62.8377H95.2242V69.6295Z" fill="black"/>
<path d="M95.4896 72.1722H59.5864V79.5135H95.4896V72.1722Z" fill="#81F8F8"/>
<path d="M95.4895 71.8982H59.5863C59.4396 71.8982 59.3203 72.0207 59.3203 72.1729V79.5143C59.3203 79.6658 59.4389 79.789 59.5863 79.789H95.4895C95.6361 79.789 95.7555 79.6666 95.7555 79.5143V72.1729C95.7555 72.0214 95.6369 71.8982 95.4895 71.8982ZM77.8035 72.4469H86.1628V79.2387H77.8035V72.4469ZM77.2723 79.2387H68.913V72.4469H77.2723V79.2387ZM59.8523 72.4469H68.3818V79.2387H59.8523V72.4469ZM95.2242 79.2387H86.694V72.4469H95.2242V79.2387Z" fill="black"/>
<path d="M95.4896 81.7806H59.5864V89.1219H95.4896V81.7806Z" fill="#81F8F8"/>
<path d="M95.4895 81.5066H59.5863C59.4396 81.5066 59.3203 81.6291 59.3203 81.7813V89.1227C59.3203 89.2742 59.4389 89.3974 59.5863 89.3974H95.4895C95.6361 89.3974 95.7555 89.275 95.7555 89.1227V81.7813C95.7555 81.6298 95.6369 81.5066 95.4895 81.5066ZM77.8035 82.0553H86.1628V88.8471H77.8035V82.0553ZM77.2723 88.8471H68.913V82.0553H77.2723V88.8471ZM59.8523 82.0553H68.3818V88.8471H59.8523V82.0553ZM95.2242 88.8471H86.694V82.0553H95.2242V88.8471Z" fill="black"/>
<path d="M95.4896 91.3898H59.5864V98.7311H95.4896V91.3898Z" fill="#81F8F8"/>
<path d="M95.4895 91.115H59.5863C59.4396 91.115 59.3203 91.2374 59.3203 91.3897V98.7311C59.3203 98.8826 59.4389 99.0058 59.5863 99.0058H95.4895C95.6361 99.0058 95.7555 98.8833 95.7555 98.7311V91.3897C95.7555 91.2382 95.6369 91.115 95.4895 91.115ZM77.8035 91.6637H86.1628V98.4555H77.8035V91.6637ZM77.2723 98.4555H68.913V91.6637H77.2723V98.4555ZM59.8523 91.6637H68.3818V98.4555H59.8523V91.6637ZM95.2242 98.4555H86.694V91.6637H95.2242V98.4555Z" fill="black"/>
<path d="M95.4896 100.998H59.5864V108.339H95.4896V100.998Z" fill="#81F8F8"/>
<path d="M95.4895 100.723H59.5863C59.4396 100.723 59.3203 100.846 59.3203 100.998V108.339C59.3203 108.491 59.4389 108.614 59.5863 108.614H95.4895C95.6361 108.614 95.7555 108.492 95.7555 108.339V100.998C95.7555 100.847 95.6369 100.723 95.4895 100.723ZM77.8035 101.272H86.1628V108.064H77.8035V101.272ZM77.2723 108.064H68.913V101.272H77.2723V108.064ZM59.8523 101.272H68.3818V108.064H59.8523V101.272ZM95.2242 108.064H86.694V101.272H95.2242V108.064Z" fill="black"/>
<path d="M95.4896 110.607H59.5864V117.948H95.4896V110.607Z" fill="#81F8F8"/>
<path d="M95.4895 110.333H59.5863C59.4396 110.333 59.3203 110.455 59.3203 110.607V117.949C59.3203 118.1 59.4389 118.223 59.5863 118.223H95.4895C95.6361 118.223 95.7555 118.101 95.7555 117.949V110.607C95.7555 110.456 95.6369 110.333 95.4895 110.333ZM77.8035 110.881H86.1628V117.673H77.8035V110.881ZM77.2723 117.673H68.913V110.881H77.2723V117.673ZM59.8523 110.881H68.3818V117.673H59.8523V110.881ZM95.2242 117.673H86.694V110.881H95.2242V117.673Z" fill="black"/>
<path d="M141.267 75.7321H101.867V95.9686H141.267V75.7321Z" fill="#FFD997"/>
<path d="M141.267 95.9686H101.867V97.5371H141.267V95.9686Z" fill="white"/>
<path d="M137.786 80.1572H132.769V89.3856H137.786V80.1572Z" fill="#81F8F8"/>
<path d="M138.434 89.3856H132.121V90.7727H138.434V89.3856Z" fill="white"/>
<path d="M137.786 90.7728H132.769V91.5476C132.769 91.9809 133.11 92.3326 133.529 92.3326H137.026C137.445 92.3326 137.786 91.9809 137.786 91.5476V90.7728Z" fill="white"/>
<path d="M138.434 89.1109H138.051V80.1572C138.051 80.0057 137.932 79.8824 137.785 79.8824H132.768C132.622 79.8824 132.502 80.0049 132.502 80.1572V89.1109H132.12C131.973 89.1109 131.854 89.2334 131.854 89.3857V90.7728C131.854 90.9243 131.973 91.0475 132.12 91.0475H132.502V91.5483C132.502 92.1324 132.962 92.6081 133.528 92.6081H137.025C137.59 92.6081 138.051 92.1332 138.051 91.5483V91.0475H138.434C138.581 91.0475 138.7 90.925 138.7 90.7728V89.3857C138.7 89.2342 138.582 89.1109 138.434 89.1109ZM133.035 81.8983H137.52V89.1109H133.035V81.8983ZM137.52 91.5475C137.52 91.8286 137.298 92.0578 137.026 92.0578H133.529C133.257 92.0578 133.035 91.8286 133.035 91.5475V91.0467H137.52V91.5475ZM138.169 90.498H132.388V89.6604H138.169V90.498Z" fill="black"/>
<path d="M110.367 80.1572H105.351V89.3856H110.367V80.1572Z" fill="#81F8F8"/>
<path d="M111.015 89.3856H104.702V90.7727H111.015V89.3856Z" fill="white"/>
<path d="M110.366 90.7728H105.35V91.5476C105.35 91.9809 105.69 92.3326 106.11 92.3326H109.606C110.026 92.3326 110.366 91.9809 110.366 91.5476V90.7728Z" fill="white"/>
<path d="M111.016 89.1109H110.633V80.1572C110.633 80.0057 110.514 79.8824 110.367 79.8824H105.35C105.203 79.8824 105.084 80.0049 105.084 80.1572V89.1109H104.702C104.555 89.1109 104.436 89.2334 104.436 89.3857V90.7728C104.436 90.9243 104.554 91.0475 104.702 91.0475H105.084V91.5483C105.084 92.1324 105.544 92.6081 106.11 92.6081H109.607C110.172 92.6081 110.633 92.1332 110.633 91.5483V91.0475H111.016C111.162 91.0475 111.282 90.925 111.282 90.7728V89.3857C111.282 89.2342 111.163 89.1109 111.016 89.1109ZM105.617 81.8983H110.101V89.1109H105.617V81.8983ZM110.101 91.5475C110.101 91.8286 109.879 92.0578 109.607 92.0578H106.111C105.839 92.0578 105.617 91.8286 105.617 91.5475V91.0467H110.101V91.5475ZM110.75 90.498H104.969V89.6604H110.75V90.498Z" fill="black"/>
<path d="M119.507 80.1572H114.49V89.3856H119.507V80.1572Z" fill="#81F8F8"/>
<path d="M120.155 89.3856H113.841V90.7727H120.155V89.3856Z" fill="white"/>
<path d="M119.507 90.7728H114.49V91.5476C114.49 91.9809 114.83 92.3326 115.25 92.3326H118.747C119.166 92.3326 119.507 91.9809 119.507 91.5476V90.7728Z" fill="white"/>
<path d="M120.155 89.1109H119.772V80.1572C119.772 80.0057 119.653 79.8824 119.506 79.8824H114.489C114.342 79.8824 114.223 80.0049 114.223 80.1572V89.1109H113.841C113.694 89.1109 113.575 89.2334 113.575 89.3857V90.7728C113.575 90.9243 113.693 91.0475 113.841 91.0475H114.223V91.5483C114.223 92.1324 114.683 92.6081 115.249 92.6081H118.746C119.311 92.6081 119.772 92.1332 119.772 91.5483V91.0475H120.155C120.301 91.0475 120.421 90.925 120.421 90.7728V89.3857C120.421 89.2342 120.302 89.1109 120.155 89.1109ZM114.756 81.8983H119.241V89.1109H114.756V81.8983ZM119.241 91.5475C119.241 91.8286 119.019 92.0578 118.747 92.0578H115.25C114.978 92.0578 114.756 91.8286 114.756 91.5475V91.0467H119.241V91.5475ZM119.89 90.498H114.108V89.6604H119.89V90.498Z" fill="black"/>
<path d="M128.646 80.1572H123.629V89.3856H128.646V80.1572Z" fill="#81F8F8"/>
<path d="M129.294 89.3856H122.981V90.7727H129.294V89.3856Z" fill="white"/>
<path d="M128.646 90.7728H123.629V91.5476C123.629 91.9809 123.97 92.3326 124.389 92.3326H127.886C128.306 92.3326 128.646 91.9809 128.646 91.5476V90.7728Z" fill="white"/>
<path d="M129.294 89.1109H128.911V80.1572C128.911 80.0057 128.793 79.8824 128.645 79.8824H123.629C123.482 79.8824 123.363 80.0049 123.363 80.1572V89.1109H122.98C122.834 89.1109 122.714 89.2334 122.714 89.3857V90.7728C122.714 90.9243 122.833 91.0475 122.98 91.0475H123.363V91.5483C123.363 92.1324 123.822 92.6081 124.389 92.6081H127.885C128.451 92.6081 128.911 92.1332 128.911 91.5483V91.0475H129.294C129.441 91.0475 129.56 90.925 129.56 90.7728V89.3857C129.56 89.2342 129.442 89.1109 129.294 89.1109ZM123.895 81.8983H128.38V89.1109H123.895V81.8983ZM128.38 91.5475C128.38 91.8286 128.158 92.0578 127.886 92.0578H124.389C124.117 92.0578 123.895 91.8286 123.895 91.5475V91.0467H128.38V91.5475ZM129.029 90.498H123.248V89.6604H129.029V90.498Z" fill="black"/>
<path d="M141.267 97.5378H101.867V117.771H141.267V97.5378Z" fill="#FFD997"/>
<path d="M141.267 117.771H101.867V119.34H141.267V117.771Z" fill="white"/>
<path d="M137.786 101.96H132.769V111.188H137.786V101.96Z" fill="#81F8F8"/>
<path d="M138.434 111.188H132.121V112.575H138.434V111.188Z" fill="white"/>
<path d="M137.786 112.575H132.769V113.35C132.769 113.783 133.11 114.135 133.529 114.135H137.026C137.445 114.135 137.786 113.783 137.786 113.35V112.575Z" fill="white"/>
<path d="M138.434 110.913H138.051V101.96C138.051 101.808 137.932 101.685 137.785 101.685H132.768C132.622 101.685 132.502 101.807 132.502 101.96V110.913H132.12C131.973 110.913 131.854 111.036 131.854 111.188V112.575C131.854 112.727 131.973 112.85 132.12 112.85H132.502V113.351C132.502 113.935 132.962 114.411 133.528 114.411H137.025C137.59 114.411 138.051 113.936 138.051 113.351V112.85H138.434C138.581 112.85 138.7 112.728 138.7 112.575V111.188C138.7 111.037 138.582 110.913 138.434 110.913ZM133.035 103.701H137.52V110.913H133.035V103.701ZM137.52 113.35C137.52 113.631 137.298 113.86 137.026 113.86H133.529C133.257 113.86 133.035 113.631 133.035 113.35V112.849H137.52V113.35ZM138.169 112.301H132.388V111.463H138.169V112.301Z" fill="black"/>
<path d="M110.367 101.96H105.351V111.188H110.367V101.96Z" fill="#81F8F8"/>
<path d="M111.015 111.188H104.702V112.575H111.015V111.188Z" fill="white"/>
<path d="M110.366 112.575H105.35V113.35C105.35 113.783 105.69 114.135 106.11 114.135H109.606C110.026 114.135 110.366 113.783 110.366 113.35V112.575Z" fill="white"/>
<path d="M111.016 110.913H110.633V101.96C110.633 101.808 110.514 101.685 110.367 101.685H105.35C105.203 101.685 105.084 101.807 105.084 101.96V110.913H104.702C104.555 110.913 104.436 111.036 104.436 111.188V112.575C104.436 112.727 104.554 112.85 104.702 112.85H105.084V113.351C105.084 113.935 105.544 114.411 106.11 114.411H109.607C110.172 114.411 110.633 113.936 110.633 113.351V112.85H111.016C111.162 112.85 111.282 112.728 111.282 112.575V111.188C111.282 111.037 111.163 110.913 111.016 110.913ZM105.617 103.701H110.101V110.913H105.617V103.701ZM110.101 113.35C110.101 113.631 109.879 113.86 109.607 113.86H106.111C105.839 113.86 105.617 113.631 105.617 113.35V112.849H110.101V113.35ZM110.75 112.301H104.969V111.463H110.75V112.301Z" fill="black"/>
<path d="M119.507 101.96H114.49V111.188H119.507V101.96Z" fill="#81F8F8"/>
<path d="M120.155 111.188H113.841V112.575H120.155V111.188Z" fill="white"/>
<path d="M119.507 112.575H114.49V113.35C114.49 113.783 114.83 114.135 115.25 114.135H118.747C119.166 114.135 119.507 113.783 119.507 113.35V112.575Z" fill="white"/>
<path d="M120.155 110.913H119.772V101.96C119.772 101.808 119.653 101.685 119.506 101.685H114.489C114.342 101.685 114.223 101.807 114.223 101.96V110.913H113.841C113.694 110.913 113.575 111.036 113.575 111.188V112.575C113.575 112.727 113.693 112.85 113.841 112.85H114.223V113.351C114.223 113.935 114.683 114.411 115.249 114.411H118.746C119.311 114.411 119.772 113.936 119.772 113.351V112.85H120.155C120.301 112.85 120.421 112.728 120.421 112.575V111.188C120.421 111.037 120.302 110.913 120.155 110.913ZM114.756 103.701H119.241V110.913H114.756V103.701ZM119.241 113.35C119.241 113.631 119.019 113.86 118.747 113.86H115.25C114.978 113.86 114.756 113.631 114.756 113.35V112.849H119.241V113.35ZM119.89 112.301H114.108V111.463H119.89V112.301Z" fill="black"/>
<path d="M128.646 101.96H123.629V111.188H128.646V101.96Z" fill="#81F8F8"/>
<path d="M129.294 111.188H122.981V112.575H129.294V111.188Z" fill="white"/>
<path d="M128.646 112.575H123.629V113.35C123.629 113.783 123.97 114.135 124.389 114.135H127.886C128.306 114.135 128.646 113.783 128.646 113.35V112.575Z" fill="white"/>
<path d="M129.294 110.913H128.911V101.96C128.911 101.808 128.793 101.685 128.645 101.685H123.629C123.482 101.685 123.363 101.807 123.363 101.96V110.913H122.98C122.834 110.913 122.714 111.036 122.714 111.188V112.575C122.714 112.727 122.833 112.85 122.98 112.85H123.363V113.351C123.363 113.935 123.822 114.411 124.389 114.411H127.885C128.451 114.411 128.911 113.936 128.911 113.351V112.85H129.294C129.441 112.85 129.56 112.728 129.56 112.575V111.188C129.56 111.037 129.442 110.913 129.294 110.913ZM123.895 103.701H128.38V110.913H123.895V103.701ZM128.38 113.35C128.38 113.631 128.158 113.86 127.886 113.86H124.389C124.117 113.86 123.895 113.631 123.895 113.35V112.849H128.38V113.35ZM129.029 112.301H123.248V111.463H129.029V112.301Z" fill="black"/>
<path d="M141.267 53.9272H101.867V74.1606H141.267V53.9272Z" fill="#FFD997"/>
<path d="M141.267 74.1606H101.867V75.7322H141.267V74.1606Z" fill="white"/>
<path d="M137.786 58.3491H132.769V67.5775H137.786V58.3491Z" fill="#81F8F8"/>
<path d="M138.434 67.5768H132.121V68.9639H138.434V67.5768Z" fill="white"/>
<path d="M137.786 68.9646H132.769V69.7394C132.769 70.1727 133.11 70.5244 133.529 70.5244H137.026C137.445 70.5244 137.786 70.1727 137.786 69.7394V68.9646Z" fill="white"/>
<path d="M138.434 67.3028H138.051V58.3491C138.051 58.1976 137.932 58.0743 137.785 58.0743H132.768C132.622 58.0743 132.502 58.1968 132.502 58.3491V67.3028H132.12C131.973 67.3028 131.854 67.4253 131.854 67.5776V68.9646C131.854 69.1162 131.973 69.2394 132.12 69.2394H132.502V69.7402C132.502 70.3243 132.962 70.8 133.528 70.8H137.025C137.59 70.8 138.051 70.3251 138.051 69.7402V69.2394H138.434C138.581 69.2394 138.7 69.1169 138.7 68.9646V67.5776C138.7 67.426 138.582 67.3028 138.434 67.3028ZM133.035 60.0902H137.52V67.3028H133.035V60.0902ZM137.52 69.7394C137.52 70.0205 137.298 70.2497 137.026 70.2497H133.529C133.257 70.2497 133.035 70.0205 133.035 69.7394V69.2386H137.52V69.7394ZM138.169 68.6899H132.388V67.8523H138.169V68.6899Z" fill="black"/>
<path d="M110.367 58.3491H105.351V67.5775H110.367V58.3491Z" fill="#81F8F8"/>
<path d="M111.015 67.5768H104.702V68.9639H111.015V67.5768Z" fill="white"/>
<path d="M110.366 68.9646H105.35V69.7394C105.35 70.1727 105.69 70.5244 106.11 70.5244H109.606C110.026 70.5244 110.366 70.1727 110.366 69.7394V68.9646Z" fill="white"/>
<path d="M111.016 67.3028H110.633V58.3491C110.633 58.1976 110.514 58.0743 110.367 58.0743H105.35C105.203 58.0743 105.084 58.1968 105.084 58.3491V67.3028H104.702C104.555 67.3028 104.436 67.4253 104.436 67.5776V68.9646C104.436 69.1162 104.554 69.2394 104.702 69.2394H105.084V69.7402C105.084 70.3243 105.544 70.8 106.11 70.8H109.607C110.172 70.8 110.633 70.3251 110.633 69.7402V69.2394H111.016C111.162 69.2394 111.282 69.1169 111.282 68.9646V67.5776C111.282 67.426 111.163 67.3028 111.016 67.3028ZM105.617 60.0902H110.101V67.3028H105.617V60.0902ZM110.101 69.7394C110.101 70.0205 109.879 70.2497 109.607 70.2497H106.111C105.839 70.2497 105.617 70.0205 105.617 69.7394V69.2386H110.101V69.7394ZM110.75 68.6899H104.969V67.8523H110.75V68.6899Z" fill="black"/>
<path d="M119.507 58.3491H114.49V67.5775H119.507V58.3491Z" fill="#81F8F8"/>
<path d="M120.155 67.5768H113.841V68.9639H120.155V67.5768Z" fill="white"/>
<path d="M119.507 68.9646H114.49V69.7394C114.49 70.1727 114.83 70.5244 115.25 70.5244H118.747C119.166 70.5244 119.507 70.1727 119.507 69.7394V68.9646Z" fill="white"/>
<path d="M120.155 67.3028H119.772V58.3491C119.772 58.1976 119.653 58.0743 119.506 58.0743H114.489C114.342 58.0743 114.223 58.1968 114.223 58.3491V67.3028H113.841C113.694 67.3028 113.575 67.4253 113.575 67.5776V68.9646C113.575 69.1162 113.693 69.2394 113.841 69.2394H114.223V69.7402C114.223 70.3243 114.683 70.8 115.249 70.8H118.746C119.311 70.8 119.772 70.3251 119.772 69.7402V69.2394H120.155C120.301 69.2394 120.421 69.1169 120.421 68.9646V67.5776C120.421 67.426 120.302 67.3028 120.155 67.3028ZM114.756 60.0902H119.241V67.3028H114.756V60.0902ZM119.241 69.7394C119.241 70.0205 119.019 70.2497 118.747 70.2497H115.25C114.978 70.2497 114.756 70.0205 114.756 69.7394V69.2386H119.241V69.7394ZM119.89 68.6899H114.108V67.8523H119.89V68.6899Z" fill="black"/>
<path d="M128.646 58.3491H123.629V67.5775H128.646V58.3491Z" fill="#81F8F8"/>
<path d="M129.294 67.5768H122.981V68.9639H129.294V67.5768Z" fill="white"/>
<path d="M128.646 68.9646H123.629V69.7394C123.629 70.1727 123.97 70.5244 124.389 70.5244H127.886C128.306 70.5244 128.646 70.1727 128.646 69.7394V68.9646Z" fill="white"/>
<path d="M129.294 67.3028H128.911V58.3491C128.911 58.1976 128.793 58.0743 128.645 58.0743H123.629C123.482 58.0743 123.363 58.1968 123.363 58.3491V67.3028H122.98C122.834 67.3028 122.714 67.4253 122.714 67.5776V68.9646C122.714 69.1162 122.833 69.2394 122.98 69.2394H123.363V69.7402C123.363 70.3243 123.822 70.8 124.389 70.8H127.885C128.451 70.8 128.911 70.3251 128.911 69.7402V69.2394H129.294C129.441 69.2394 129.56 69.1169 129.56 68.9646V67.5776C129.56 67.426 129.442 67.3028 129.294 67.3028ZM123.895 60.0902H128.38V67.3028H123.895V60.0902ZM128.38 69.7394C128.38 70.0205 128.158 70.2497 127.886 70.2497H124.389C124.117 70.2497 123.895 70.0205 123.895 69.7394V69.2386H128.38V69.7394ZM129.029 68.6899H123.248V67.8523H129.029V68.6899Z" fill="black"/>
<path d="M141.267 119.352H101.868V139.575H141.267V119.352Z" fill="#FFD997"/>
<path d="M113.505 139.574H101.868V141.142H113.505V139.574Z" fill="white"/>
<path d="M141.267 139.574H129.63V141.142H141.267V139.574Z" fill="white"/>
<path d="M141.533 53.9272C141.533 53.7756 141.415 53.6524 141.267 53.6524H101.868C101.721 53.6524 101.602 53.7749 101.602 53.9272V141.143C101.602 141.295 101.72 141.418 101.868 141.418H113.505C113.651 141.418 113.771 141.295 113.771 141.143V139.849H129.365V141.143C129.365 141.295 129.484 141.418 129.631 141.418H141.268C141.415 141.418 141.534 141.295 141.534 141.143L141.533 53.9272ZM102.134 54.2019H141.002V73.8866H102.134V54.2019ZM102.134 74.4353H141.002V75.455H102.134V74.4353ZM102.134 76.01H141.002V95.6946H102.134V76.01ZM102.134 96.2434H141.002V97.2631H102.134V96.2434ZM102.134 97.8118H141.002V117.496H102.134V97.8118ZM102.134 118.045H141.002V119.066H102.134V118.045ZM113.239 140.867H102.134V139.848H113.239V140.867ZM102.134 139.299V119.625H141.002V139.299H102.134ZM141.002 140.867H129.896V139.848H141.002V140.867Z" fill="black"/>
<path d="M115.068 141.154V128.657C115.032 126.64 116.617 125 118.569 125H124.566C126.519 125 128.106 126.64 128.106 128.657V141.154H115.068Z" fill="#81F8F8"/>
<path d="M124.538 125C126.494 125 128.079 126.638 128.079 128.658V141.155H129.646L129.682 128.658C129.69 125.748 127.406 123.382 124.589 123.382H118.563C115.746 123.382 113.462 125.748 113.47 128.658L113.506 141.155H115.069V128.658C115.069 126.638 116.658 125 118.613 125H124.538Z" fill="white"/>
<path d="M119.932 134.58H118.573V136.555H119.932V134.58Z" fill="white"/>
<path d="M119.932 136.829H118.574C118.427 136.829 118.308 136.707 118.308 136.555V134.579C118.308 134.427 118.426 134.304 118.574 134.304H119.932C120.079 134.304 120.198 134.427 120.198 134.579V136.555C120.198 136.706 120.08 136.829 119.932 136.829ZM118.84 136.281H119.667V134.854H118.84V136.281Z" fill="black"/>
<path d="M124.562 134.58H123.203V136.555H124.562V134.58Z" fill="white"/>
<path d="M124.563 136.829H123.203C123.056 136.829 122.937 136.707 122.937 136.555V134.579C122.937 134.427 123.056 134.304 123.203 134.304H124.563C124.709 134.304 124.829 134.427 124.829 134.579V136.555C124.829 136.706 124.71 136.829 124.563 136.829ZM123.469 136.281H124.297V134.854H123.469V136.281Z" fill="black"/>
<path d="M124.588 123.107H118.562C115.569 123.107 113.193 125.624 113.204 128.658L113.239 141.155C113.239 141.306 113.357 141.429 113.505 141.429H129.645C129.792 141.429 129.911 141.307 129.911 141.155L129.947 128.658C129.956 125.599 127.549 123.107 124.588 123.107ZM121.302 140.88H115.338V128.932H121.302V140.88ZM115.349 128.383C115.485 126.646 116.896 125.275 118.613 125.275H124.538C126.254 125.275 127.667 126.646 127.802 128.383H115.348H115.349ZM121.834 128.932H127.814V140.88H121.834V128.932ZM129.382 140.88H128.346V128.658C128.346 126.489 126.638 124.726 124.539 124.726H118.613C116.476 124.726 114.8 126.543 114.8 128.658L114.807 140.88H113.771L113.736 128.657C113.729 125.927 115.864 123.656 118.564 123.656H124.59C127.258 123.656 129.424 125.902 129.417 128.657L129.382 140.88Z" fill="black"/>
<path d="M142.389 51.5989H100.748V53.9272H142.389V51.5989Z" fill="white"/>
<path d="M126.21 47.5616H116.925V51.5988H126.21V47.5616Z" fill="white"/>
<path d="M137.83 49.5806H128.544V51.5996H137.83V49.5806Z" fill="white"/>
<path d="M114.591 49.5806H105.306V51.5996H114.591V49.5806Z" fill="white"/>
<path d="M142.388 51.3249H138.096V49.5806C138.096 49.4291 137.977 49.3059 137.83 49.3059H128.544C128.397 49.3059 128.278 49.4283 128.278 49.5806V51.3249H126.476V47.5616C126.476 47.4101 126.357 47.2869 126.21 47.2869H116.924C116.777 47.2869 116.658 47.4093 116.658 47.5616V51.3249H114.856V49.5806C114.856 49.4291 114.737 49.3059 114.59 49.3059H105.304C105.157 49.3059 105.038 49.4283 105.038 49.5806V51.3249H100.745C100.599 51.3249 100.479 51.4474 100.479 51.5997V53.928C100.479 54.0795 100.598 54.2027 100.745 54.2027H142.387C142.533 54.2027 142.653 54.0803 142.653 53.928V51.5997C142.653 51.4481 142.534 51.3249 142.387 51.3249H142.388ZM128.81 49.8554H137.564V51.3249H128.81V49.8554ZM117.19 47.8364H125.946V51.3249H117.19V47.8364ZM105.571 49.8554H114.326V51.3249H105.571V49.8554ZM142.123 53.6532H101.013V51.8736H142.123V53.6532Z" fill="black"/>
<path d="M137.786 123.774H132.769V133.003H137.786V123.774Z" fill="#81F8F8"/>
<path d="M138.434 133.002H132.121V134.389H138.434V133.002Z" fill="white"/>
<path d="M137.786 134.389H132.769V135.164C132.769 135.597 133.11 135.949 133.529 135.949H137.026C137.445 135.949 137.786 135.597 137.786 135.164V134.389Z" fill="white"/>
<path d="M138.7 133.002C138.7 132.85 138.582 132.727 138.434 132.727H138.051V123.773C138.051 123.622 137.932 123.499 137.785 123.499H132.768C132.622 123.499 132.502 123.621 132.502 123.773V132.727H132.12C131.973 132.727 131.854 132.85 131.854 133.002V134.389C131.854 134.54 131.973 134.664 132.12 134.664H132.502V135.164C132.502 135.749 132.962 136.224 133.528 136.224H137.025C137.59 136.224 138.051 135.749 138.051 135.164V134.664H138.434C138.581 134.664 138.7 134.541 138.7 134.389V133.002ZM133.035 125.514H137.52V132.727H133.035V125.514ZM137.52 135.164C137.52 135.445 137.298 135.674 137.026 135.674H133.529C133.257 135.674 133.035 135.445 133.035 135.164V134.663H137.52V135.164ZM138.169 134.114H132.388V133.277H138.169V134.114Z" fill="black"/>
<path d="M110.367 123.774H105.351V133.003H110.367V123.774Z" fill="#81F8F8"/>
<path d="M111.015 133.002H104.702V134.389H111.015V133.002Z" fill="white"/>
<path d="M110.366 134.389H105.35V135.164C105.35 135.597 105.69 135.949 106.11 135.949H109.606C110.026 135.949 110.366 135.597 110.366 135.164V134.389Z" fill="white"/>
<path d="M111.016 132.728H110.633V123.774C110.633 123.623 110.514 123.499 110.367 123.499H105.35C105.203 123.499 105.084 123.622 105.084 123.774V132.728H104.702C104.555 132.728 104.436 132.85 104.436 133.003V134.39C104.436 134.541 104.554 134.664 104.702 134.664H105.084V135.165C105.084 135.749 105.544 136.225 106.11 136.225H109.607C110.172 136.225 110.633 135.75 110.633 135.165V134.664H111.016C111.162 134.664 111.282 134.542 111.282 134.39V133.003C111.282 132.851 111.163 132.728 111.016 132.728ZM105.617 125.515H110.101V132.728H105.617V125.515ZM110.101 135.164C110.101 135.446 109.879 135.675 109.607 135.675H106.111C105.839 135.675 105.617 135.446 105.617 135.164V134.664H110.101V135.164ZM110.75 134.115H104.969V133.277H110.75V134.115Z" fill="black"/>
</svg>
