<svg width="153" height="158" viewBox="0 0 153 158" fill="none" xmlns="http://www.w3.org/2000/svg">
<path d="M66.4645 96.6155C66.3785 96.22 66.3811 95.8095 66.4721 95.4152C67.1804 92.1771 67.0732 87.3988 67.7808 83.5138C68.4883 79.6289 70.8208 80.0661 73.3995 79.1351C75.0456 78.5385 76.5861 77.6216 78.3395 76.7801C79.3839 76.2649 80.465 75.8329 81.5733 75.488C84.8565 74.4895 93.0979 78.0785 97.0894 78.7387C98.0326 78.8937 98.9621 79.1274 99.8687 79.4373L99.887 79.3808C99.887 79.3808 118.091 66.4927 122.85 62.9633C127.609 59.434 137.379 52.2677 137.379 52.2677L148.506 78.7379C148.506 78.7379 126.659 93.6529 123.426 96.5935C120.193 99.5341 113.082 103.271 113.082 103.271L113.024 103.257C112.59 105.311 111.146 107.653 107.165 109.975L106.925 110.062C106.267 108.496 105.434 107.015 104.443 105.648C100.473 98.1046 84.2804 86.9262 82.8805 87.1664C81.4805 87.4067 77.6144 87.9326 77.6144 87.9326C77.3302 88.8149 76.1415 89.3087 76.1415 89.3087H76.0397C76.059 91.9775 75.1715 94.5687 73.5317 96.6312C70.9416 100.007 66.9972 99.049 66.4645 96.6155Z" fill="#FFD997"/>
<path d="M111.503 30.2139C111.757 31.4173 111.856 32.6504 111.796 33.8806C111.783 34.0959 111.727 34.3062 111.631 34.4976C111.535 34.689 111.401 34.8574 111.237 34.9917C111.074 35.1261 110.885 35.2233 110.683 35.2772C110.48 35.3312 110.269 35.3405 110.064 35.3046L104.654 34.3822C104.322 34.3274 104.019 34.1576 103.793 33.9008C103.568 33.6439 103.433 33.3154 103.413 32.9692C103.391 32.0497 103.07 31.1645 102.501 30.4572C102.268 30.1782 102.007 29.9258 101.723 29.7044L100.166 39.4471L102.389 40.8365C105.447 42.6985 107.412 44.8588 108.284 47.3175C109.156 49.7733 109.388 52.4229 108.955 55.0003C108.681 56.815 108.057 58.5546 107.121 60.1161C106.228 61.6036 105.077 62.9077 103.725 63.9626C102.357 65.0205 100.793 65.7778 99.1309 66.1881C98.0518 66.4614 96.9427 66.5876 95.8318 66.5633L95.087 71.2286C95.0456 71.487 94.9554 71.7345 94.8214 71.9569C94.6874 72.1793 94.5124 72.3723 94.3062 72.5248C94.1 72.6774 93.8668 72.7865 93.6198 72.8459C93.3728 72.9053 93.1169 72.9139 92.8666 72.8712C92.6164 72.8284 92.3768 72.7352 92.1615 72.5969C91.9462 72.4585 91.7593 72.2776 91.6117 72.0647C91.464 71.8517 91.3584 71.6108 91.3008 71.3557C91.2433 71.1006 91.235 70.8362 91.2763 70.5778L92.0128 65.9698C89.3555 65.2405 87.0062 63.624 85.3309 61.3721C84.5152 60.3085 83.8763 59.1124 83.44 57.8325C83.3062 57.4518 83.1861 57.0609 83.082 56.655C82.8095 55.5992 82.6637 54.5127 82.6481 53.4201C82.6402 53.0651 82.7082 52.7127 82.8471 52.3879C82.9861 52.0631 83.1925 51.7739 83.4519 51.5408C83.7113 51.3078 84.0172 51.1366 84.3478 51.0394C84.6785 50.9423 85.0258 50.9215 85.3651 50.9787L87.6504 51.3712L89.2722 51.6467C89.7525 51.7304 90.1956 51.9667 90.5399 52.3227C90.8841 52.6786 91.1123 53.1366 91.1927 53.6328C91.306 54.3196 91.4989 54.9899 91.7673 55.629C92.0864 56.3841 92.6666 56.9892 93.3945 57.3262L95.1501 46.3362L93.2098 45.198C90.8032 43.8428 88.8167 41.8124 87.4794 39.3411C86.2211 36.8579 85.8203 34.0058 86.3432 31.2556C86.6179 29.4371 87.2564 27.6978 88.2181 26.1484C89.134 24.6729 90.3282 23.4029 91.7293 22.4141C93.0675 21.4249 94.5917 20.7365 96.2034 20.3935C97.2339 20.1714 98.2863 20.0762 99.3384 20.1102L99.9935 16.007C100.077 15.4849 100.358 15.0185 100.774 14.7103C100.98 14.5577 101.214 14.4485 101.461 14.389C101.708 14.3295 101.964 14.3209 102.214 14.3636C102.464 14.4062 102.704 14.4994 102.919 14.6378C103.135 14.7761 103.322 14.9569 103.469 15.1699C103.617 15.3829 103.723 15.6238 103.78 15.8789C103.838 16.1341 103.846 16.3984 103.805 16.6569L103.152 20.7499C104.197 21.0735 105.197 21.538 106.124 22.1315C107.503 23.0055 108.686 24.1715 109.596 25.5526C110.514 26.9661 111.162 28.5485 111.503 30.2139ZM100.671 53.7702C100.883 52.6323 100.73 51.4541 100.234 50.4143C99.8542 49.7008 99.3314 49.0789 98.7008 48.59L97.2439 57.7038C97.7159 57.5668 98.1688 57.3673 98.5913 57.1103C99.1638 56.7569 99.6494 56.2715 100.01 55.692C100.371 55.1126 100.597 54.4548 100.671 53.7702ZM96.6085 37.191L97.9537 28.7758C97.3169 28.8892 96.7219 29.1793 96.2323 29.6149C95.3607 30.3658 94.7841 31.4191 94.6105 32.5775C94.4788 33.4307 94.5514 34.3042 94.8217 35.1217C95.1946 35.9866 95.8191 36.7099 96.6085 37.191Z" fill="#81F8F8"/>
<path d="M66.4647 96.6155C66.9967 99.049 70.9419 100.004 73.5281 96.632C75.1679 94.5695 76.0554 91.9783 76.0361 89.3095H76.138C76.138 89.3095 77.3266 88.8158 77.6109 87.9334C77.6109 87.9334 81.4739 87.4075 82.8769 87.1673C84.2798 86.9271 100.469 98.1054 104.44 105.649C105.43 107.016 106.263 108.497 106.922 110.063C107.353 111.213 107.517 112.308 106.998 112.942C105.208 115.14 103.019 114.493 101.483 112.666C101.407 112.578 101.331 112.483 101.255 112.386C99.7109 110.349 95.7483 105.376 95.7483 105.376L92.4415 103.257C93.2127 104.002 93.937 104.798 94.6098 105.639C95.4952 106.886 98.9775 110.558 100.542 113.075C100.944 113.62 101.208 114.26 101.31 114.937C101.277 115.432 101.13 115.911 100.882 116.336C100.634 116.761 100.292 117.118 99.8831 117.379C99.4746 117.64 99.0118 117.797 98.533 117.836C98.0542 117.875 97.5733 117.796 97.1299 117.606C97.0749 117.582 97.0222 117.553 96.9726 117.519C95.6487 116.672 89.1317 110.634 88.1201 109.65C87.9183 109.262 87.64 108.921 87.3031 108.651C87.0995 108.482 86.8827 108.33 86.6548 108.198L86.645 108.19C84.9312 107.183 83.0555 107.562 81.4359 108.869C79.6492 110.318 80.4327 109.463 79.6598 110.294C79.5934 109.64 79.3229 109.027 78.8892 108.546C77.2879 106.689 75.1173 106.598 73.0744 107.733C71.4977 108.67 69.9765 109.702 68.519 110.826L62.5735 111.414L62.5218 111.403C62.6673 110.311 62.438 109.2 61.8735 108.263C60.5815 106.251 58.6428 106.458 57.6213 106.521C57.4539 106.532 57.2882 106.563 57.1273 106.612L57.1144 106.521C56.3228 106.118 55.556 105.666 54.8184 105.166C53.8517 104.542 52.8022 103.825 51.9631 103.242C51.039 102.6 50.3755 102.125 50.3755 102.125C50.4379 94.341 50.9865 86.5688 52.0179 78.8572L53.3585 79.3942C55.5313 80.2655 59.6376 81.9062 60.1628 82.0977C60.4141 82.2345 60.6938 82.306 60.9779 82.306C61.2619 82.306 61.5417 82.2345 61.793 82.0977C62.537 81.8065 71.2876 77.047 73.0562 76.6129C74.8247 76.1788 78.3351 76.777 78.3351 76.777C76.5795 77.6217 75.039 78.5385 73.3951 79.132C70.8195 80.063 68.4817 79.6226 67.7765 83.5107C67.0712 87.3988 67.1761 92.174 66.4677 95.4121C66.3778 95.8078 66.3768 96.2194 66.4647 96.6155Z" fill="#FFD997"/>
<path d="M101.263 112.385C101.339 112.482 101.415 112.577 101.491 112.666C101.491 112.666 100.571 113.105 100.553 113.076C98.9891 110.559 95.5068 106.886 94.6214 105.64C93.9486 104.799 93.2244 104.003 92.4531 103.257L95.7599 105.377C95.7599 105.377 99.7187 110.348 101.263 112.385Z" fill="#FFD997"/>
<path d="M96.9816 117.519L96.8015 117.792C96.7339 118.158 96.5845 118.503 96.365 118.799C96.1456 119.095 95.8623 119.334 95.5376 119.497C95.0764 119.797 94.5602 119.994 94.0215 120.076C93.4827 120.159 92.9333 120.125 92.4079 119.977C91.9369 119.741 91.4823 119.472 91.0475 119.171L90.3521 119.092C90.7032 118.757 91.0138 118.379 91.277 117.967C92.265 116.246 92.2308 115.18 91.141 114.284C90.7315 113.884 90.2274 113.602 89.6793 113.466C89.1311 113.33 88.5581 113.346 88.0174 113.51L87.9019 113.437C87.9605 113.337 88.0113 113.232 88.0539 113.123C88.314 112.587 88.4558 111.997 88.469 111.397C88.4821 110.797 88.3663 110.202 88.1299 109.654C89.1407 110.634 95.6546 116.672 96.9816 117.519Z" fill="#FFD997"/>
<path d="M92.4076 119.977C91.4826 121.161 90.2179 122.011 88.7954 122.406C88.4959 122.517 88.1765 122.56 87.8594 122.531C87.5424 122.502 87.2352 122.402 86.9592 122.239L86.6035 122.233C87.917 121.271 89.169 120.222 90.3518 119.093L91.0472 119.172C91.4821 119.472 91.9366 119.742 92.4076 119.977Z" fill="#FFD997"/>
<path d="M91.1409 114.278C92.2307 115.174 92.2619 116.24 91.2769 117.96C91.0137 118.373 90.7032 118.751 90.352 119.086C89.1692 120.215 87.9172 121.264 86.6037 122.226C86.1675 122.553 85.8885 122.752 85.8885 122.752C81.5885 125.361 79.6816 125.941 78.1434 125.193C77.6667 124.997 77.2394 124.691 76.8933 124.3C76.5473 123.908 76.2916 123.441 76.1453 122.933L76.0693 122.754C77.7955 121.973 79.4679 121.071 81.0747 120.054C81.0747 120.054 86.6987 115.535 87.8995 113.428L88.015 113.501C88.5563 113.336 89.13 113.321 89.6786 113.458C90.2272 113.594 90.7315 113.877 91.1409 114.278Z" fill="#FFD997"/>
<path d="M88.1309 109.647C88.3673 110.195 88.4831 110.79 88.47 111.39C88.4568 111.99 88.3151 112.58 88.0549 113.116C88.0124 113.225 87.9615 113.33 87.9029 113.43C86.7013 115.537 81.0781 120.056 81.0781 120.056C79.4712 121.074 77.7989 121.976 76.0727 122.757C72.5007 124.292 71.6693 123.385 70.3864 122.762C69.164 122.096 68.246 120.957 67.832 119.595V119.557C68.8943 119.475 69.9311 119.182 70.8857 118.694C70.8857 118.694 77.8549 114.847 78.9022 113.074C79.4475 112.258 79.7183 111.28 79.6728 110.289C80.4458 109.458 79.6622 110.314 81.449 108.865C83.0685 107.556 84.945 107.179 86.658 108.185L86.6679 108.194C86.8957 108.326 87.1126 108.477 87.3162 108.646C87.6524 108.917 87.9299 109.258 88.1309 109.647Z" fill="#FFD997"/>
<path d="M68.5226 110.824C69.982 109.701 71.5046 108.668 73.0826 107.732C75.1254 106.596 77.296 106.688 78.8973 108.544C79.331 109.025 79.6015 109.639 79.668 110.293C79.7134 111.283 79.4426 112.261 78.8973 113.077C77.85 114.849 70.8808 118.697 70.8808 118.697C69.9263 119.185 68.8894 119.478 67.8272 119.56C65.8077 119.63 63.7918 119.338 61.8688 118.697C59.7719 118.135 58.771 114.083 58.771 114.083C59.5738 113.948 60.3556 113.703 61.0958 113.355C61.4741 113.18 61.8036 112.909 62.0539 112.568C62.3042 112.226 62.4671 111.825 62.5277 111.402L62.5794 111.412L68.5226 110.824Z" fill="#FFD997"/>
<path d="M77.3705 12.3363L77.8638 14.8028L48.47 21.0592L56.4394 61.0094L54.0492 61.5166L53.5559 59.0477L45.5889 19.1006L74.9803 12.8442L77.3705 12.3363Z" fill="#81F8F8"/>
<path d="M74.9803 12.8442L45.5888 19.1006L53.5559 59.0477L51.1657 59.558L42.7046 17.1389L74.4893 10.3754L74.9803 12.8442Z" fill="black"/>
<path d="M57.1339 106.612C57.2948 106.562 57.4605 106.531 57.6279 106.52C58.6494 106.46 60.5843 106.25 61.8801 108.263C62.4446 109.199 62.6739 110.31 62.5284 111.403C62.4678 111.826 62.3049 112.227 62.0546 112.569C61.8044 112.91 61.4749 113.181 61.0966 113.356C60.3564 113.704 59.5746 113.949 58.7717 114.084C56.988 114.394 55.1328 114.227 54.3181 113.399C52.9501 112.004 51.4788 108.799 54.6738 105.413L54.8258 105.164C55.5634 105.664 56.3301 106.117 57.1218 106.519L57.1339 106.612Z" fill="#FFD997"/>
<path d="M52.9075 77.5023L52.8786 77.5266C52.8504 77.4876 52.8141 77.4555 52.7724 77.4326C52.7307 77.4097 52.6847 77.3966 52.6375 77.3943C52.5904 77.392 52.5433 77.4005 52.4997 77.4191C52.4561 77.4378 52.4171 77.4662 52.3854 77.5023C52.1847 77.9266 52.0622 78.3858 52.0244 78.8564C50.993 86.5679 50.4444 94.3401 50.382 102.125C50.4154 103.918 50.5538 105.101 50.8334 105.26C51.0079 105.384 51.2228 105.433 51.4316 105.394L51.4422 105.429C50.664 105.964 48.5869 106.233 48.0222 104.537C47.8828 103.161 47.8723 101.775 47.991 100.398C48.2601 93.7251 49.3127 81.1651 49.891 77.7237C49.922 77.4242 49.9941 77.1308 50.1054 76.8523C50.7293 76.0077 52.8345 76.4936 52.9075 77.5023Z" fill="#81F8F8"/>
<path d="M49.7503 77.697L49.8939 77.7245C49.3141 81.1698 48.2615 93.729 47.9939 100.398H47.9179C47.9179 100.398 43.4149 98.3103 41.1266 98.0293C37.8092 97.625 4.10547 81.4579 4.10547 81.4579L17.0011 55.5137L47.6542 76.62L49.7503 77.697Z" fill="#FFD997"/>
<path d="M137.375 52.2677L148.502 78.7379" stroke="#FFD997" stroke-width="0.980065" stroke-linecap="round" stroke-linejoin="round"/>
<path d="M4.10254 81.4548L17.0013 55.5137" stroke="#FFD997" stroke-width="0.980065" stroke-linecap="round" stroke-linejoin="round"/>
<path d="M110.802 137.391C102.743 142.888 93.4293 146.108 83.79 146.728C74.1507 147.349 64.5224 145.348 55.8648 140.927C47.2072 136.506 39.8229 129.818 34.4481 121.529C29.0732 113.241 25.8956 103.643 25.2319 93.6906" stroke="black" stroke-width="0.980065" stroke-linecap="round" stroke-linejoin="round"/>
<path d="M135.554 91.4996C135.326 99.6426 133.408 107.64 129.93 114.952C126.453 122.263 121.497 128.719 115.397 133.883" stroke="black" stroke-width="0.980065" stroke-linecap="round" stroke-linejoin="round"/>
<path d="M104.637 128.301C98.6219 132.405 91.7233 134.922 84.5468 135.63C77.3702 136.338 70.135 135.217 63.4759 132.364C56.8167 129.511 50.9371 125.014 46.3528 119.267C41.7684 113.52 38.6195 106.699 37.1821 99.4022" stroke="black" stroke-width="0.980065" stroke-linecap="round" stroke-linejoin="round"/>
<path d="M123.633 98.8136C121.711 109.292 116.285 118.739 108.302 125.504" stroke="black" stroke-width="0.980065" stroke-linecap="round" stroke-linejoin="round"/>
<path d="M109.963 56.838C112.571 59.2682 114.888 62.0107 116.867 65.0075" stroke="black" stroke-width="0.980065" stroke-linecap="round" stroke-linejoin="round"/>
<path d="M41.0044 70.1179C43.0366 65.9018 45.6879 62.0357 48.8643 58.6569" stroke="black" stroke-width="0.980065" stroke-linecap="round" stroke-linejoin="round"/>
<path d="M107.362 40.0107C114.314 44.0504 120.342 49.589 125.036 56.25" stroke="black" stroke-width="0.980065" stroke-linecap="round" stroke-linejoin="round"/>
<path d="M31.5225 63.0709C35.0559 56.2037 39.9056 50.1512 45.7763 45.282" stroke="black" stroke-width="0.980065" stroke-linecap="round" stroke-linejoin="round"/>
<path d="M99.8892 79.38C99.8892 79.38 118.093 66.4919 122.852 62.9625C127.611 59.4332 137.378 52.2677 137.378 52.2677" stroke="black" stroke-width="0.980065" stroke-linecap="round" stroke-linejoin="round"/>
<path d="M113.081 103.272C113.081 103.272 120.19 99.5318 123.424 96.5935C126.658 93.6553 148.504 78.7379 148.504 78.7379" stroke="black" stroke-width="0.980065" stroke-linecap="round" stroke-linejoin="round"/>
<path d="M4.10254 81.4547C4.10254 81.4547 37.807 97.6257 41.1244 98.0261C43.4128 98.3071 47.9158 100.395 47.9158 100.395" stroke="black" stroke-width="0.980065" stroke-linecap="round" stroke-linejoin="round"/>
<path d="M49.7521 77.6962L47.6545 76.62L17.0015 55.5137" stroke="black" stroke-width="0.980065" stroke-linecap="round" stroke-linejoin="round"/>
<path d="M53.3907 79.3235C53.346 78.6936 53.1713 78.081 52.8784 77.5266C52.8502 77.4876 52.8139 77.4554 52.7723 77.4326C52.7306 77.4097 52.6845 77.3966 52.6374 77.3943C52.5902 77.392 52.5432 77.4004 52.4996 77.4191C52.456 77.4378 52.4169 77.4662 52.3852 77.5023C52.1845 77.9266 52.0621 78.3858 52.0242 78.8564C50.9929 86.5679 50.4443 94.3401 50.3818 102.125C50.4153 103.918 50.5536 105.101 50.8333 105.26C51.0077 105.384 51.2227 105.433 51.4314 105.394C52.1154 105.211 51.8942 103.471 51.8942 103.471" stroke="black" stroke-width="0.980065" stroke-linecap="round" stroke-linejoin="round"/>
<path d="M52.9078 77.5024C52.8318 76.4937 50.7296 76.0109 50.1102 76.8524C49.999 77.1308 49.9269 77.4242 49.8959 77.7237C49.316 81.1691 48.2634 93.7283 47.9959 100.398C47.8772 101.775 47.8876 103.161 48.0271 104.537C48.5887 106.233 50.6658 105.964 51.4471 105.43" stroke="black" stroke-width="0.980065" stroke-linecap="round" stroke-linejoin="round"/>
<path d="M52.0239 78.8564L53.3646 79.3933C55.5374 80.2647 59.6437 81.9053 60.1688 82.0969C60.4201 82.2337 60.6999 82.3052 60.9839 82.3052C61.268 82.3052 61.5478 82.2337 61.799 82.0969C62.5431 81.8056 71.2937 77.0462 73.0622 76.6121C74.8308 76.178 78.3412 76.7762 78.3412 76.7762" stroke="black" stroke-width="0.980065" stroke-linecap="round" stroke-linejoin="round"/>
<path d="M50.3818 102.125C50.3818 102.125 51.0453 102.6 51.9695 103.242C52.8055 103.824 53.8581 104.542 54.8248 105.165C55.5623 105.665 56.3291 106.118 57.1208 106.52" stroke="black" stroke-width="0.980065" stroke-linecap="round" stroke-linejoin="round"/>
<path d="M112.819 98.1259C112.819 99.2649 113.48 101.099 113.023 103.257C112.589 105.311 111.145 107.653 107.164 109.976" stroke="black" stroke-width="0.980065" stroke-linecap="round" stroke-linejoin="round"/>
<path d="M103.465 81.2067C102.355 80.442 101.145 79.8459 99.8707 79.4365C98.964 79.1266 98.0345 78.8929 97.0914 78.7379C93.0999 78.0793 84.8554 74.4887 81.5752 75.4872C80.467 75.8322 79.3859 76.2641 78.3414 76.7793C76.5858 77.624 75.0453 78.5409 73.4014 79.1343C70.8258 80.0653 68.488 79.6249 67.7827 83.513C67.0775 87.4012 67.1823 92.1763 66.474 95.4144C66.383 95.8087 66.3804 96.2192 66.4664 96.6147C66.9984 99.0482 70.9436 100.004 73.5299 96.6312C75.1697 94.5687 76.0572 91.9775 76.0379 89.3087C76.0326 88.5561 75.9503 87.8062 75.7924 87.0715" stroke="black" stroke-width="0.980065" stroke-linecap="round" stroke-linejoin="round"/>
<path d="M76.1401 89.3087C76.1401 89.3087 77.3288 88.8149 77.613 87.9326C77.613 87.9326 81.4761 87.4066 82.8791 87.1664C84.282 86.9262 100.472 98.1046 104.442 105.648" stroke="black" stroke-width="0.980065" stroke-linecap="round" stroke-linejoin="round"/>
<path d="M104.441 105.649C105.432 107.015 106.265 108.496 106.924 110.062C107.355 111.212 107.519 112.307 107 112.941C105.21 115.139 103.021 114.492 101.485 112.666C101.409 112.577 101.333 112.482 101.257 112.385C99.7128 110.348 95.7501 105.375 95.7501 105.375L92.4434 103.256" stroke="black" stroke-width="0.980065" stroke-linecap="round" stroke-linejoin="round"/>
<path d="M86.6636 96.0165C86.7312 96.7433 86.9076 97.4548 87.1865 98.1258C87.4031 98.3848 90.2918 101.075 92.4495 103.257C93.2207 104.003 93.9449 104.799 94.6177 105.64C95.5031 106.886 98.9855 110.559 100.55 113.076C100.952 113.621 101.216 114.261 101.318 114.937C101.285 115.432 101.138 115.912 100.89 116.337C100.642 116.761 100.3 117.119 99.8911 117.38C99.4826 117.641 99.0197 117.797 98.541 117.837C98.0622 117.876 97.5812 117.797 97.1379 117.606C97.0829 117.583 97.0302 117.554 96.9806 117.52C95.6567 116.673 89.1397 110.635 88.1281 109.65L88.1235 109.645" stroke="black" stroke-width="0.980065" stroke-linecap="round" stroke-linejoin="round"/>
<path d="M96.8013 117.792C96.7338 118.158 96.5843 118.503 96.3649 118.799C96.1455 119.095 95.8621 119.334 95.5374 119.497C95.0763 119.797 94.56 119.994 94.0213 120.076C93.4826 120.159 92.9332 120.125 92.4078 119.977C91.9367 119.741 91.4822 119.472 91.0474 119.171" stroke="black" stroke-width="0.980065" stroke-linecap="round" stroke-linejoin="round"/>
<path d="M92.4074 119.977C91.4824 121.161 90.2177 122.011 88.7951 122.406C88.4957 122.517 88.1763 122.56 87.8592 122.531C87.5422 122.502 87.235 122.402 86.959 122.239" stroke="black" stroke-width="0.980065" stroke-linecap="round" stroke-linejoin="round"/>
<path d="M82.8789 87.1665C82.8789 87.1665 84.0599 85.9576 84.0599 85.2699" stroke="black" stroke-width="0.980065" stroke-linecap="round" stroke-linejoin="round"/>
<path d="M77.6128 87.9327C77.7174 87.3658 77.7174 86.7836 77.6128 86.2167" stroke="black" stroke-width="0.980065" stroke-linecap="round" stroke-linejoin="round"/>
<path d="M66.4043 96.3643C66.4039 96.4526 66.4245 96.5397 66.4643 96.6178C66.9371 97.6054 70.2522 97.2867 71.3154 95.6413C72.4615 93.8633 71.0616 91.4996 71.0616 91.4996" stroke="black" stroke-width="0.980065" stroke-linecap="round" stroke-linejoin="round"/>
<path d="M67.1099 90.8574C67.1099 90.8574 67.9611 90.7899 69.0859 90.6549" stroke="black" stroke-width="0.980065" stroke-linecap="round" stroke-linejoin="round"/>
<path d="M104.063 113.076C104.841 112.839 105.555 112.42 106.15 111.851" stroke="black" stroke-width="0.980065" stroke-linecap="round" stroke-linejoin="round"/>
<path d="M101.488 112.666C101.488 112.666 100.568 113.105 100.55 113.076" stroke="black" stroke-width="0.980065" stroke-linecap="round" stroke-linejoin="round"/>
<path d="M55.3213 107.605C55.87 107.177 56.4821 106.843 57.1339 106.616C57.2948 106.566 57.4605 106.535 57.6279 106.524C58.6494 106.464 60.5843 106.254 61.8801 108.266C62.4446 109.203 62.6739 110.314 62.5284 111.406C62.4678 111.83 62.3049 112.231 62.0546 112.572C61.8044 112.914 61.4749 113.184 61.0966 113.359C60.3564 113.708 59.5746 113.953 58.7717 114.088C56.988 114.398 55.1328 114.231 54.3181 113.403C52.9501 112.008 51.4788 108.803 54.6738 105.417" stroke="black" stroke-width="0.980065" stroke-linecap="round" stroke-linejoin="round"/>
<path d="M68.5223 110.824C67.9189 111.278 67.4173 111.663 67.1064 111.901" stroke="black" stroke-width="0.980065" stroke-linecap="round" stroke-linejoin="round"/>
<path d="M58.7715 114.085C58.7715 114.085 59.7724 118.137 61.8692 118.698C63.7923 119.339 65.8082 119.631 67.8276 119.562C68.8899 119.48 69.9268 119.187 70.8813 118.698C70.8813 118.698 77.8505 114.852 78.8978 113.079C79.4431 112.263 79.7139 111.284 79.6684 110.294C79.602 109.64 79.3315 109.027 78.8978 108.546C77.2965 106.689 75.1259 106.598 73.083 107.733C71.5063 108.67 69.9851 109.702 68.5276 110.826" stroke="black" stroke-width="0.980065" stroke-linecap="round" stroke-linejoin="round"/>
<path d="M68.5278 110.826H68.5256L62.5801 111.414" stroke="black" stroke-width="0.980065" stroke-linecap="round" stroke-linejoin="round"/>
<path d="M73.2244 110.502C72.7294 111.107 72.4598 111.874 72.4644 112.666C72.5013 112.999 72.6168 113.318 72.8009 113.594C72.985 113.87 73.2319 114.095 73.5201 114.25C73.8082 114.405 74.1287 114.484 74.4534 114.48C74.778 114.477 75.0969 114.391 75.3821 114.231C76.7326 113.459 78.8955 111.897 78.3005 110.502" stroke="black" stroke-width="0.980065" stroke-linecap="round" stroke-linejoin="round"/>
<path d="M74.1519 109.646C74.6238 109.214 75.1994 108.921 75.8185 108.796C76.254 108.777 76.6805 108.928 77.0125 109.22" stroke="black" stroke-width="0.980065" stroke-linecap="round" stroke-linejoin="round"/>
<path d="M86.6537 108.19C84.9399 107.183 83.0642 107.562 81.4447 108.869C79.6579 110.318 80.4415 109.463 79.6685 110.294C79.6526 110.311 79.6374 110.329 79.6191 110.348" stroke="black" stroke-width="0.980065" stroke-linecap="round" stroke-linejoin="round"/>
<path d="M67.8311 119.6C68.245 120.962 69.1631 122.1 70.3854 122.767C71.6683 123.39 72.5035 124.297 76.0717 122.762C77.7979 121.981 79.4703 121.078 81.0771 120.061C81.0771 120.061 86.7011 115.542 87.9019 113.435C87.9606 113.335 88.0114 113.23 88.0539 113.121C88.3141 112.584 88.4559 111.995 88.469 111.395C88.4821 110.795 88.3663 110.199 88.1299 109.651C87.9281 109.263 87.6498 108.923 87.3129 108.653C87.1093 108.484 86.8925 108.332 86.6646 108.2" stroke="black" stroke-width="0.980065" stroke-linecap="round" stroke-linejoin="round"/>
<path d="M82.0378 111.573C81.6515 112.256 81.5135 113.06 81.6487 113.839C81.74 114.161 81.9064 114.454 82.1332 114.694C82.3599 114.934 82.6403 115.112 82.9495 115.214C83.2587 115.316 83.5873 115.338 83.9066 115.278C84.2259 115.218 84.526 115.078 84.7806 114.87C85.9875 113.872 87.8602 111.954 87.0454 110.683" stroke="black" stroke-width="0.980065" stroke-linecap="round" stroke-linejoin="round"/>
<path d="M82.8105 110.564C83.2044 110.056 83.723 109.666 84.3123 109.436C84.739 109.34 85.1851 109.415 85.561 109.644" stroke="black" stroke-width="0.980065" stroke-linecap="round" stroke-linejoin="round"/>
<path d="M76.145 122.94C76.2913 123.448 76.547 123.915 76.893 124.307C77.2391 124.698 77.6664 125.004 78.1431 125.2C79.6813 125.948 81.5881 125.368 85.8882 122.759C85.8882 122.759 86.1671 122.56 86.6034 122.233C87.9169 121.271 89.1689 120.222 90.3517 119.093C90.7028 118.758 91.0134 118.38 91.2766 117.967C92.2646 116.247 92.2304 115.181 91.1406 114.285C90.7311 113.885 90.227 113.603 89.6789 113.467C89.1307 113.331 88.5577 113.346 88.017 113.511" stroke="black" stroke-width="0.980065" stroke-linecap="round" stroke-linejoin="round"/>
<path d="M86.8469 116.13C86.5482 116.658 86.4418 117.279 86.5467 117.881C86.617 118.13 86.7455 118.358 86.9209 118.544C87.0963 118.73 87.3133 118.868 87.5527 118.947C87.7921 119.026 88.0466 119.043 88.2938 118.996C88.541 118.949 88.7733 118.841 88.9703 118.679C89.9028 117.908 91.3529 116.424 90.7183 115.439" stroke="black" stroke-width="0.980065" stroke-linecap="round" stroke-linejoin="round"/>
<path d="M87.4463 115.348C87.7518 114.955 88.1543 114.653 88.6114 114.476C88.9409 114.401 89.2855 114.459 89.5751 114.638" stroke="black" stroke-width="0.980065" stroke-linecap="round" stroke-linejoin="round"/>
<path d="M84.0601 104.772L84.9348 106.496L86.6539 108.19L86.6638 108.198" stroke="black" stroke-width="0.980065" stroke-linecap="round" stroke-linejoin="round"/>
<path d="M61.0962 113.356C60.3372 112.997 59.645 112.503 59.051 111.897C58.6473 111.354 58.3678 110.724 58.2332 110.054C58.2047 109.902 58.1385 109.761 58.0411 109.644C57.9437 109.527 57.8186 109.438 57.6779 109.386C57.5372 109.334 57.3858 109.321 57.2387 109.348C57.0915 109.375 56.9537 109.441 56.8386 109.539C56.4729 109.818 56.2169 110.224 56.1174 110.683C56.0022 111.209 56.0616 111.76 56.2862 112.248C56.5107 112.735 56.8873 113.13 57.3554 113.37" stroke="black" stroke-width="0.980065" stroke-linecap="round" stroke-linejoin="round"/>
<path d="M83.4198 57.8389L56.93 63.4752L56.4391 61.0096L48.4697 21.0593L77.8635 14.8029L80.2514 14.2958L87.6485 51.3666" stroke="black" stroke-width="0.980065" stroke-linecap="round" stroke-linejoin="round"/>
<path d="M56.4394 61.0094L54.0492 61.5166L53.5559 59.0477L45.5889 19.1006L74.9803 12.8442L77.3705 12.3363L77.8638 14.8028V14.8051" stroke="black" stroke-width="0.980065" stroke-linecap="round" stroke-linejoin="round"/>
<path d="M53.5559 59.0477L51.1657 59.558L42.7046 17.1389L74.4893 10.3754L74.9803 12.8442" stroke="black" stroke-width="0.980065" stroke-linecap="round" stroke-linejoin="round"/>
<path d="M54.6523 25.6272L76.3222 21.0161" stroke="black" stroke-width="0.980065" stroke-linecap="round" stroke-linejoin="round"/>
<path d="M56.8306 30.3113L78.5012 25.697" stroke="black" stroke-width="0.980065" stroke-linecap="round" stroke-linejoin="round"/>
<path d="M54.9341 33.2872L78.9942 28.1659" stroke="black" stroke-width="0.980065" stroke-linecap="round" stroke-linejoin="round"/>
<path d="M55.4253 35.7552L79.4854 30.6346" stroke="black" stroke-width="0.980065" stroke-linecap="round" stroke-linejoin="round"/>
<path d="M55.9194 38.2241L72.8097 34.6281" stroke="black" stroke-width="0.980065" stroke-linecap="round" stroke-linejoin="round"/>
<path d="M58.8008 40.1834L80.4707 35.5723" stroke="black" stroke-width="0.980065" stroke-linecap="round" stroke-linejoin="round"/>
<path d="M56.9043 43.1593L80.9644 38.0411" stroke="black" stroke-width="0.980065" stroke-linecap="round" stroke-linejoin="round"/>
<path d="M57.395 45.6274L81.4551 40.5068" stroke="black" stroke-width="0.980065" stroke-linecap="round" stroke-linejoin="round"/>
<path d="M60.2764 47.5892L81.9493 42.9757" stroke="black" stroke-width="0.980065" stroke-linecap="round" stroke-linejoin="round"/>
<path d="M58.3804 50.565L82.4404 45.4445" stroke="black" stroke-width="0.980065" stroke-linecap="round" stroke-linejoin="round"/>
<path d="M58.8735 53.0339L82.9336 47.9133" stroke="black" stroke-width="0.980065" stroke-linecap="round" stroke-linejoin="round"/>
<path d="M66.5557 57.831L69.0089 57.3105L71.9235 56.6896L77.9785 55.3999L79.1283 55.1542L81.0587 54.7444" stroke="black" stroke-width="0.980065" stroke-linecap="round" stroke-linejoin="round"/>
<path d="M73.6906 54.0237C73.6146 54.3102 73.1441 56.1126 73.7924 56.1314C74.4924 56.1526 76.0884 51.9952 76.0884 51.9952C76.0884 51.9952 75.3071 55.3707 76.2525 55.4406C77.198 55.5105 77.0604 53.0393 77.8805 52.8101C78.4573 52.6476 77.9792 54.4123 77.9792 55.4006C77.9792 55.8245 78.0682 56.1071 78.3638 56.0286C78.7317 55.9344 78.9536 55.5756 79.1291 55.1541C79.4164 54.4476 79.5806 53.5676 80.0928 53.4357" stroke="black" stroke-width="0.980065" stroke-linecap="round" stroke-linejoin="round"/>
<path d="M70.6504 55.2382C70.9848 56.0774 71.4864 56.7297 71.9089 56.6276C72.8703 56.3874 73.5863 54.3292 73.6881 54.0238C73.69 54.0147 73.6926 54.0058 73.6957 53.9971V53.9893" stroke="black" stroke-width="0.980065" stroke-linecap="round" stroke-linejoin="round"/>
<path d="M70.6502 55.2382C71.4254 53.7271 71.854 51.9545 70.9268 52.2002C70.027 52.4404 70.1706 54.0293 70.6502 55.2382Z" stroke="black" stroke-width="0.980065" stroke-linecap="round" stroke-linejoin="round"/>
<path d="M68.9907 57.2211C69.5106 57.0758 70.1528 56.2123 70.6521 55.2382" stroke="black" stroke-width="0.980065" stroke-linecap="round" stroke-linejoin="round"/>
<path d="M65.0569 54.8927L63.8554 56.7783L62.6538 58.6615" stroke="black" stroke-width="0.980065" stroke-linecap="round" stroke-linejoin="round"/>
<path d="M62.0293 55.5372L63.8556 56.7783L65.6788 58.017" stroke="black" stroke-width="0.980065" stroke-linecap="round" stroke-linejoin="round"/>
<path d="M83.4383 57.831C83.8746 59.1108 84.5136 60.3069 85.3292 61.3705C87.0049 63.622 89.354 65.2383 92.0111 65.9683L91.2747 70.5762C91.2333 70.8347 91.2416 71.099 91.2991 71.3541C91.3567 71.6092 91.4623 71.8501 91.61 72.0631C91.7576 72.2761 91.9445 72.4569 92.1598 72.5953C92.3751 72.7336 92.6148 72.8269 92.865 72.8696C93.1152 72.9123 93.3711 72.9037 93.6181 72.8443C93.8651 72.7849 94.0983 72.6758 94.3045 72.5233C94.5107 72.3707 94.6857 72.1777 94.8197 71.9553C94.9537 71.7329 95.0439 71.4854 95.0853 71.227L95.8301 66.5617C96.941 66.586 98.0501 66.4598 99.1293 66.1865C100.792 65.7758 102.355 65.0179 103.723 63.9594C105.075 62.9045 106.227 61.6004 107.119 60.1129C108.056 58.5525 108.68 56.814 108.955 55.0002C109.387 52.4226 109.156 49.7727 108.283 47.3167C107.411 44.857 105.446 42.6967 102.388 40.8357L100.165 39.4463L101.722 29.7036C102.006 29.925 102.267 30.1774 102.5 30.4564C103.069 31.1637 103.391 32.0489 103.412 32.9684C103.433 33.3146 103.567 33.6431 103.792 33.9C104.018 34.1568 104.321 34.3266 104.653 34.3814L110.063 35.3038C110.269 35.3397 110.479 35.3304 110.682 35.2764C110.884 35.2225 111.073 35.1252 111.236 34.9909C111.4 34.8566 111.534 34.6882 111.63 34.4968C111.726 34.3054 111.782 34.0951 111.795 33.8798C111.855 32.6496 111.757 31.4165 111.502 30.2131C111.16 28.5493 110.513 26.9686 109.595 25.5565C108.685 24.1754 107.502 23.0094 106.124 22.1354C105.196 21.5419 104.196 21.0774 103.151 20.7538L103.804 16.6608C103.845 16.4024 103.837 16.138 103.779 15.8828C103.722 15.6277 103.616 15.3868 103.468 15.1738C103.321 14.9608 103.134 14.78 102.918 14.6417C102.703 14.5033 102.463 14.4101 102.213 14.3675C101.963 14.3248 101.707 14.3334 101.46 14.3929C101.213 14.4524 100.979 14.5616 100.773 14.7142C100.357 15.0224 100.076 15.4888 99.9926 16.0109L99.3375 20.1141C98.2853 20.0802 97.233 20.1753 96.2025 20.3974C94.5908 20.7404 93.0666 21.4288 91.7284 22.418C90.3272 23.4068 89.1331 24.6768 88.2172 26.1523C87.2555 27.7017 86.6169 29.441 86.3423 31.2595C85.8194 34.0097 86.2202 36.8618 87.4785 39.345C88.8158 41.8163 90.8023 43.8467 93.2089 45.2019L95.1476 46.3378L93.392 57.3278C92.6641 56.9908 92.084 56.3857 91.7649 55.6306C91.4963 54.9912 91.3034 54.3207 91.1903 53.6336C91.1097 53.1375 90.8814 52.6797 90.5372 52.3239C90.193 51.9681 89.75 51.7319 89.2698 51.6483L87.6479 51.3728L85.3626 50.9803C85.0233 50.9231 84.676 50.9438 84.3454 51.041C84.0147 51.1381 83.7088 51.3093 83.4495 51.5424C83.1901 51.7754 82.9836 52.0646 82.8447 52.3894C82.7058 52.7142 82.6378 53.0666 82.6456 53.4216C82.6613 54.5142 82.807 55.6007 83.0796 56.6566C83.1845 57.0593 83.3045 57.4502 83.4383 57.831Z" stroke="black" stroke-width="0.980065" stroke-linecap="round" stroke-linejoin="round"/>
<path d="M94.8186 35.1241C94.5482 34.3066 94.4757 33.4331 94.6073 32.58C94.781 31.4215 95.3576 30.3682 96.2292 29.6174C96.7187 29.1817 97.3137 28.8916 97.9506 28.7782L96.6054 37.1934C95.816 36.7123 95.1914 35.989 94.8186 35.1241Z" stroke="black" stroke-width="0.980065" stroke-linecap="round" stroke-linejoin="round"/>
<path d="M98.5936 57.1104C98.1711 57.3673 97.7181 57.5668 97.2461 57.7038L98.703 48.59C99.3336 49.079 99.8564 49.7008 100.237 50.4143C100.732 51.4541 100.885 52.6323 100.673 53.7702C100.599 54.4548 100.373 55.1126 100.012 55.692C99.6516 56.2715 99.166 56.7569 98.5936 57.1104Z" stroke="black" stroke-width="0.980065" stroke-linecap="round" stroke-linejoin="round"/>
</svg>
