<svg width="153" height="158" viewBox="0 0 153 158" fill="none" xmlns="http://www.w3.org/2000/svg">
<path d="M24.9136 116.836H42.8139V150.788H24.9136V116.836Z" fill="#81F8F8"/>
<path d="M52.4824 109.953H70.3827V150.79H52.4824V109.953Z" fill="#81F8F8"/>
<path d="M80.0522 93.2321H97.9525V150.789H80.0522V93.2321Z" fill="#81F8F8"/>
<path d="M107.622 69.6648H125.522V150.788H107.622V69.6648Z" fill="#81F8F8"/>
<path d="M145.555 150.433L140.166 147.82C140.12 147.791 140.07 147.774 140.017 147.767C139.965 147.76 139.911 147.765 139.86 147.781C139.81 147.797 139.763 147.824 139.723 147.86C139.683 147.895 139.65 147.939 139.628 147.989C139.605 148.038 139.593 148.092 139.591 148.147C139.59 148.202 139.6 148.256 139.62 148.307C139.64 148.357 139.671 148.403 139.709 148.441C139.747 148.479 139.793 148.508 139.843 148.526L143.691 150.392H130.522L129.93 81.1353C129.93 81.0286 130.189 81.7955 125.902 69.7528V69.6673C125.902 69.5632 125.862 69.4633 125.791 69.3897C125.72 69.3161 125.623 69.2748 125.522 69.2748H107.622C107.521 69.2748 107.425 69.3161 107.353 69.3897C107.282 69.4633 107.242 69.5632 107.242 69.6673V150.397H103.005C102.575 114.401 102.397 101.227 102.376 101.189C98.1464 92.7847 98.2885 92.9213 98.0529 92.8554C97.9769 92.8334 99.2598 92.8413 80.0523 92.8413C79.9515 92.8413 79.8549 92.8826 79.7836 92.9562C79.7123 93.0298 79.6723 93.1297 79.6723 93.2338V150.397H75.4877C75.0545 124.692 74.8645 115.543 74.8303 115.493L70.7469 109.722C70.7068 109.666 70.6529 109.621 70.5908 109.594C70.5287 109.566 70.4606 109.556 70.3935 109.565H52.4825C52.3818 109.565 52.2851 109.606 52.2138 109.68C52.1426 109.753 52.1025 109.853 52.1025 109.957V150.399H47.8245L47.2423 121.612C47.2402 121.52 47.2066 121.431 47.1473 121.362L43.1619 116.678C43.1188 116.587 43.0467 116.513 42.9576 116.47C42.8685 116.428 42.7678 116.418 42.6725 116.442H24.9128C24.812 116.442 24.7153 116.484 24.6441 116.557C24.5728 116.631 24.5328 116.731 24.5328 116.835V150.394H10.7905L14.6383 148.528C14.6882 148.509 14.7338 148.48 14.7722 148.442C14.8106 148.405 14.8409 148.359 14.8612 148.308C14.8815 148.258 14.8913 148.203 14.89 148.149C14.8887 148.094 14.8764 148.04 14.8537 147.991C14.8311 147.941 14.7987 147.897 14.7586 147.861C14.7185 147.825 14.6716 147.799 14.6209 147.783C14.5702 147.767 14.5168 147.762 14.4642 147.769C14.4116 147.775 14.3609 147.793 14.3153 147.821L8.92619 150.434C8.86069 150.466 8.80529 150.516 8.76647 150.579C8.72765 150.642 8.70703 150.715 8.70703 150.79C8.70703 150.865 8.72765 150.938 8.76647 151.001C8.80529 151.064 8.86069 151.114 8.92619 151.146C14.9841 154.05 14.5365 153.844 14.6596 153.844C14.7463 153.844 14.8306 153.814 14.8983 153.758C14.966 153.702 15.0131 153.623 15.0318 153.536C15.0505 153.448 15.0397 153.357 15.0012 153.277C14.9627 153.196 14.8987 153.132 14.82 153.095L10.814 151.182H143.662L139.657 153.095C139.565 153.138 139.494 153.218 139.46 153.316C139.425 153.413 139.429 153.521 139.471 153.616C139.514 153.71 139.591 153.784 139.685 153.82C139.78 153.856 139.884 153.851 139.976 153.808L145.55 151.146C145.616 151.115 145.672 151.065 145.712 151.002C145.751 150.939 145.773 150.866 145.773 150.791C145.774 150.716 145.754 150.642 145.715 150.579C145.676 150.515 145.621 150.465 145.555 150.433ZM108.002 70.0582H125.116V150.395H108.002V70.0582ZM80.4323 93.6247H97.5726V150.395H80.4323V93.6247ZM52.8625 110.345H70.0036V150.394H52.8625V110.345ZM25.2928 117.228H42.4156V150.394H25.2928V117.228Z" fill="black"/>
<path fill-rule="evenodd" clip-rule="evenodd" d="M7.50635 110.225C8.09839 110.245 93.8948 90.1643 127.807 36.2874L135.774 40.5664L133.426 10.0009L105.444 26.215L115.262 30.5223C115.262 30.5223 82.9303 84.871 7.50635 110.225Z" fill="#FFD997"/>
<path d="M7.38856 109.851C37.835 99.7213 65.8053 82.9214 89.388 60.5997C105.044 45.6203 113.242 33.0344 114.702 30.7029L105.296 26.5762C105.229 26.5479 105.172 26.5009 105.131 26.4406C105.089 26.3803 105.065 26.3091 105.061 26.2353C105.057 26.1615 105.074 26.088 105.108 26.0233C105.143 25.9586 105.195 25.9054 105.258 25.8697L133.238 9.65552C133.294 9.62324 133.357 9.60603 133.421 9.60548C133.485 9.60493 133.548 9.62106 133.604 9.65237C133.661 9.68368 133.708 9.72916 133.743 9.7846C133.778 9.84004 133.799 9.90364 133.803 9.96952L136.153 40.5311C136.159 40.601 136.146 40.6712 136.116 40.7342C136.087 40.7973 136.041 40.851 135.985 40.8898C135.928 40.9286 135.862 40.951 135.795 40.9548C135.727 40.9585 135.659 40.9434 135.599 40.9111L127.937 36.7985C94.5142 89.4806 11.5169 109.862 7.62796 110.597C7.58055 110.613 7.53051 110.62 7.4807 110.616C7.43088 110.612 7.38227 110.598 7.33763 110.575C7.293 110.552 7.25321 110.52 7.22054 110.481C7.18788 110.442 7.16298 110.397 7.14726 110.348C7.13154 110.299 7.12531 110.247 7.12893 110.196C7.13255 110.144 7.14594 110.094 7.16835 110.048C7.19076 110.002 7.22174 109.961 7.25952 109.927C7.2973 109.893 7.34115 109.868 7.38856 109.851ZM106.305 26.1656L115.413 30.1613C115.463 30.1834 115.508 30.2165 115.545 30.2582C115.582 30.3 115.609 30.3495 115.626 30.4033C115.642 30.4571 115.648 30.5139 115.641 30.57C115.634 30.626 115.616 30.68 115.587 30.7281C115.507 30.8646 107.276 44.5527 89.9276 61.1539C68.539 81.4241 43.5122 97.1688 16.2616 107.498C39.0524 100.857 100.166 79.4813 127.488 36.0739C127.54 35.9921 127.619 35.9331 127.71 35.9083C127.802 35.8834 127.899 35.8946 127.982 35.9397L135.341 39.8882L133.093 10.643L106.305 26.1656Z" fill="black"/>
<path d="M21.1851 29.9155C21.1851 31.3765 21.4637 32.8232 22.0049 34.1729C22.5462 35.5227 23.3396 36.7491 24.3397 37.7821C25.3399 38.8152 26.5272 39.6346 27.834 40.1937C29.1408 40.7528 30.5413 41.0406 31.9558 41.0406C33.3702 41.0406 34.7708 40.7528 36.0776 40.1937C37.3843 39.6346 38.5717 38.8152 39.5718 37.7821C40.572 36.7491 41.3653 35.5227 41.9066 34.1729C42.4479 32.8232 42.7265 31.3765 42.7265 29.9155C42.7265 26.965 41.5917 24.1353 39.5718 22.049C37.5519 19.9626 34.8124 18.7905 31.9558 18.7905C29.0992 18.7905 26.3596 19.9626 24.3397 22.049C22.3198 24.1353 21.1851 26.965 21.1851 29.9155Z" fill="#FFD997"/>
<path d="M31.9557 41.4299C29.7501 41.4301 27.594 40.7547 25.7602 39.4891C23.9263 38.2234 22.4969 36.4245 21.6529 34.3198C20.8089 32.2151 20.5882 29.8991 21.0186 27.6648C21.449 25.4305 22.5112 23.3782 24.071 21.7675C25.6307 20.1568 27.6179 19.06 29.7811 18.6159C31.9444 18.1718 34.1865 18.4003 36.224 19.2724C38.2616 20.1446 40.0029 21.6214 41.2278 23.5158C42.4528 25.4103 43.1062 27.6374 43.1056 29.9156C43.1016 32.9685 41.9255 35.8952 39.8353 38.0537C37.7451 40.2122 34.9114 41.4264 31.9557 41.4299ZM31.9557 19.1799C29.9007 19.1797 27.8918 19.809 26.183 20.9881C24.4742 22.1671 23.1423 23.8431 22.3557 25.804C21.569 27.7649 21.3629 29.9227 21.7635 32.0046C22.1641 34.0865 23.1534 35.9989 24.6062 37.5001C26.0591 39.0012 27.9102 40.0237 29.9257 40.4383C31.9411 40.8528 34.0302 40.6408 35.929 39.829C37.8278 39.0171 39.4508 37.642 40.593 35.8775C41.7351 34.1129 42.345 32.0382 42.3456 29.9156C42.3426 27.0702 41.247 24.3423 39.2992 22.3302C37.3514 20.3182 34.7104 19.1864 31.9557 19.183V19.1799Z" fill="black"/>
<path d="M31.9557 16.5353C31.8549 16.5353 31.7582 16.4939 31.687 16.4203C31.6157 16.3467 31.5757 16.2469 31.5757 16.1428V4.29948C31.5757 4.19538 31.6157 4.09555 31.687 4.02194C31.7582 3.94834 31.8549 3.90698 31.9557 3.90698C32.0565 3.90698 32.1531 3.94834 32.2244 4.02194C32.2956 4.09555 32.3357 4.19538 32.3357 4.29948V16.1428C32.3357 16.2469 32.2956 16.3467 32.2244 16.4203C32.1531 16.4939 32.0565 16.5353 31.9557 16.5353Z" fill="black"/>
<path d="M56.7558 30.3081H45.2897C45.1889 30.3081 45.0922 30.2667 45.021 30.1931C44.9497 30.1195 44.9097 30.0197 44.9097 29.9156C44.9097 29.8115 44.9497 29.7116 45.021 29.638C45.0922 29.5644 45.1889 29.5231 45.2897 29.5231H56.7558C56.8566 29.5231 56.9532 29.5644 57.0245 29.638C57.0958 29.7116 57.1358 29.8115 57.1358 29.9156C57.1358 30.0197 57.0958 30.1195 57.0245 30.1931C56.9532 30.2667 56.8566 30.3081 56.7558 30.3081Z" fill="black"/>
<path d="M31.9557 55.925C31.8549 55.925 31.7582 55.8837 31.687 55.8101C31.6157 55.7365 31.5757 55.6366 31.5757 55.5325V43.6893C31.5757 43.5852 31.6157 43.4853 31.687 43.4117C31.7582 43.3381 31.8549 43.2968 31.9557 43.2968C32.0565 43.2968 32.1531 43.3381 32.2244 43.4117C32.2956 43.4853 32.3357 43.5852 32.3357 43.6893V55.5325C32.3357 55.6366 32.2956 55.7365 32.2244 55.8101C32.1531 55.8837 32.0565 55.925 31.9557 55.925Z" fill="black"/>
<path d="M18.6215 30.3081H7.15539C7.05461 30.3081 6.95795 30.2667 6.88669 30.1931C6.81543 30.1195 6.77539 30.0197 6.77539 29.9156C6.77539 29.8115 6.81543 29.7116 6.88669 29.638C6.95795 29.5644 7.05461 29.5231 7.15539 29.5231H18.6215C18.7223 29.5231 18.8189 29.5644 18.8902 29.638C18.9615 29.7116 19.0015 29.8115 19.0015 29.9156C19.0015 30.0197 18.9615 30.1195 18.8902 30.1931C18.8189 30.2667 18.7223 30.3081 18.6215 30.3081Z" fill="black"/>
<path d="M38.7138 16.8202C38.6488 16.82 38.5848 16.8025 38.5282 16.7695C38.4715 16.7365 38.424 16.689 38.3902 16.6315C38.3564 16.5741 38.3375 16.5087 38.3352 16.4415C38.3329 16.3743 38.3474 16.3077 38.3772 16.2479L42.3892 8.24093C42.4105 8.1925 42.4412 8.14905 42.4793 8.11323C42.5174 8.07741 42.5621 8.04996 42.6108 8.03256C42.6595 8.01516 42.7111 8.00817 42.7625 8.01201C42.8139 8.01585 42.864 8.03044 42.9097 8.05489C42.9555 8.07935 42.9959 8.11316 43.0287 8.15427C43.0614 8.19538 43.0856 8.24293 43.1 8.29403C43.1144 8.34513 43.1185 8.39872 43.1122 8.45153C43.1059 8.50435 43.0893 8.55528 43.0633 8.60125L39.0513 16.6082C39.0192 16.6721 38.9708 16.7257 38.9113 16.7631C38.8518 16.8004 38.7835 16.8202 38.7138 16.8202Z" fill="black"/>
<path d="M52.8703 41.2189C52.738 41.2189 53.2502 41.4591 44.9085 37.1126C44.8185 37.0656 44.7502 36.9837 44.7187 36.8847C44.6872 36.7858 44.6951 36.678 44.7405 36.585C44.786 36.4921 44.8653 36.4216 44.9611 36.389C45.0569 36.3565 45.1613 36.3646 45.2512 36.4116L53.042 40.4763C53.1182 40.5162 53.1792 40.5814 53.2151 40.6615C53.251 40.7415 53.2597 40.8318 53.2398 40.9176C53.22 41.0034 53.1727 41.0798 53.1057 41.1345C53.0386 41.1892 52.9557 41.2189 52.8703 41.2189Z" fill="black"/>
<path d="M21.5998 52.0189C21.5353 52.0188 21.4718 52.0017 21.4154 51.9693C21.359 51.9369 21.3115 51.8901 21.2774 51.8335C21.2434 51.7769 21.2238 51.7122 21.2207 51.6456C21.2175 51.579 21.2308 51.5127 21.2593 51.4529L25.1163 43.3674C25.1608 43.2737 25.2395 43.2021 25.335 43.1683C25.4306 43.1345 25.5352 43.1413 25.6259 43.1872C25.7166 43.2331 25.786 43.3144 25.8187 43.4131C25.8514 43.5118 25.8448 43.6199 25.8004 43.7136L21.9433 51.7991C21.9119 51.8654 21.863 51.9212 21.8022 51.96C21.7415 51.9989 21.6713 52.0193 21.5998 52.0189Z" fill="black"/>
<path d="M18.702 23.7322C18.5743 23.7322 19.0714 23.9677 10.6703 19.7899C10.6224 19.7696 10.5791 19.7394 10.5429 19.7012C10.5067 19.663 10.4784 19.6175 10.4599 19.5676C10.4413 19.5177 10.4328 19.4644 10.4349 19.411C10.437 19.3576 10.4496 19.3052 10.472 19.257C10.4944 19.2088 10.5261 19.1658 10.5651 19.1307C10.6042 19.0956 10.6498 19.0691 10.6991 19.0529C10.7484 19.0366 10.8004 19.0309 10.8519 19.0362C10.9034 19.0415 10.9534 19.0575 10.9986 19.0834L18.8662 22.9825C18.9457 23.0199 19.0103 23.0844 19.0491 23.1653C19.088 23.2461 19.0986 23.3383 19.0794 23.4263C19.0601 23.5144 19.012 23.5928 18.9433 23.6485C18.8746 23.7042 18.7894 23.7338 18.702 23.7322Z" fill="black"/>
<path d="M44.898 23.1002C44.8134 23.1003 44.7311 23.0712 44.6643 23.0175C44.5975 22.9639 44.55 22.8887 44.5292 22.804C44.5084 22.7193 44.5156 22.6298 44.5497 22.5498C44.5837 22.4698 44.6426 22.4038 44.7171 22.3623L52.3992 18.0832C52.4431 18.0588 52.4912 18.0434 52.5409 18.0382C52.5905 18.0329 52.6407 18.0378 52.6885 18.0526C52.7363 18.0673 52.7808 18.0917 52.8195 18.1242C52.8582 18.1567 52.8904 18.1968 52.9141 18.2422C52.9378 18.2876 52.9526 18.3373 52.9577 18.3886C52.9628 18.4398 52.958 18.4917 52.9438 18.541C52.9295 18.5904 52.9059 18.6364 52.8744 18.6764C52.8429 18.7164 52.8041 18.7496 52.7602 18.774C44.5666 23.3506 45.0386 23.1002 44.898 23.1002Z" fill="black"/>
<path d="M43.2813 51.4953C43.2133 51.4953 43.1465 51.4764 43.0879 51.4406C43.0294 51.4049 42.9812 51.3535 42.9484 51.2919L38.7304 43.4003C38.6856 43.3096 38.6768 43.2044 38.7057 43.107C38.7346 43.0097 38.799 42.9277 38.8853 42.8785C38.9717 42.8292 39.0731 42.8166 39.1683 42.8432C39.2635 42.8699 39.3449 42.9337 39.3954 43.0212L43.6142 50.9136C43.646 50.9733 43.6622 51.0406 43.6612 51.1088C43.6602 51.177 43.642 51.2438 43.6084 51.3025C43.5748 51.3612 43.5269 51.4099 43.4696 51.4437C43.4122 51.4775 43.3473 51.4953 43.2813 51.4953Z" fill="black"/>
<path d="M11.5562 42.2149C11.4721 42.2151 11.3903 42.1865 11.3236 42.1335C11.2569 42.0806 11.2092 42.0062 11.1878 41.9222C11.1664 41.8382 11.1726 41.7492 11.2055 41.6692C11.2383 41.5892 11.2959 41.5227 11.3693 41.4802L18.9693 37.0449C19.0127 37.0196 19.0606 37.0033 19.1102 36.997C19.1597 36.9908 19.21 36.9947 19.2581 37.0085C19.3062 37.0223 19.3512 37.0458 19.3905 37.0775C19.4298 37.1093 19.4627 37.1488 19.4872 37.1937C19.5118 37.2386 19.5275 37.288 19.5336 37.3392C19.5396 37.3904 19.5359 37.4423 19.5225 37.492C19.5091 37.5416 19.4864 37.5881 19.4556 37.6287C19.4249 37.6693 19.3867 37.7033 19.3432 37.7286C11.2317 42.463 11.7037 42.2149 11.5562 42.2149Z" fill="black"/>
<path d="M24.594 17.1617C24.5273 17.1617 24.4617 17.1435 24.404 17.1091C24.3462 17.0746 24.2982 17.0251 24.2649 16.9654L19.8949 9.16096C19.8453 9.07086 19.8322 8.96415 19.8585 8.86413C19.8848 8.7641 19.9483 8.67888 20.0352 8.62705C20.1221 8.57523 20.2253 8.56101 20.3223 8.5875C20.4194 8.61399 20.5023 8.67904 20.553 8.76846L24.9223 16.5729C24.9556 16.6325 24.9732 16.7001 24.9732 16.769C24.9732 16.8378 24.9557 16.9054 24.9225 16.9651C24.8892 17.0247 24.8413 17.0743 24.7837 17.1088C24.726 17.1433 24.6606 17.1615 24.594 17.1617Z" fill="black"/>
</svg>
