<svg width="153" height="158" viewBox="0 0 153 158" fill="none" xmlns="http://www.w3.org/2000/svg">
<path d="M141.93 92.7495C140.723 92.8563 139.34 92.7966 138.447 92.9748C136.417 93.3767 136.907 96.7648 134.247 96.4759C131.587 96.187 132.006 93.2213 130.255 92.0705C129.866 91.8669 129.435 91.764 129 91.7705C128.564 91.7771 128.137 91.893 127.754 92.1082L127.74 92.0705C127.74 92.0705 128.378 89.4313 129.076 86.0213C129.599 83.4685 130.151 80.4831 130.495 77.851C131.125 73.0036 130.9 69.4288 131.737 67.4105C132.573 65.3923 140.874 80.4729 141.93 92.7495Z" fill="#FFD997"/>
<path d="M111.781 75.4386L112.18 80.377C110.993 80.9988 109.686 81.3363 108.356 81.3646L103.648 79.9005C102.465 80.4862 101.464 81.403 100.76 82.5468C99.3676 82.4718 97.9819 82.2971 96.6128 82.024L97.8934 77.7127C99.2158 77.7394 100.762 77.6138 100.762 77.6138L101.005 76.5195L101.222 76.5714C102.935 76.8357 104.668 76.9233 106.398 76.8328C108.232 76.5537 110.036 76.0867 111.781 75.4386Z" fill="#81F8F8"/>
<path d="M102.924 86.4286C102.94 86.3917 102.957 86.3501 102.974 86.3077C103.266 85.4929 102.417 85.2213 101.671 85.814L100.359 85.1789C100 85.8461 100.885 86.4781 101.626 85.8485L101.671 85.814L102.924 86.4286ZM108.355 81.352L109.665 81.7594C109.665 81.7594 105.628 83.6136 104.638 85.7221C103.649 87.8306 104.399 88.6855 101.611 90.8089L98.8288 92.9284L93.5415 90.5734C93.5415 90.5734 97.5763 88.3935 98.2793 86.902C98.984 85.3735 99.8174 83.912 100.77 82.5342C101.476 81.3925 102.476 80.476 103.658 79.8872L108.355 81.352Z" fill="#81F8F8"/>
<path d="M101.344 67.0995C101.382 67.0809 101.42 67.0602 101.456 67.0375C102.174 66.5877 101.684 65.8302 100.739 65.8027L100.096 64.4682C99.4074 64.7547 99.7159 65.8239 100.677 65.809H100.732L101.344 67.0995ZM94.1239 66.8099L98.3882 65.1457V63.779H98.5797C101.126 62.6258 104.078 61.8039 105.876 62.4657L109.435 67.8115C109.435 67.8115 105.17 66.634 103.107 67.6412C101.044 68.6483 101.114 69.7991 97.6617 69.6484L94.2097 69.4977L93.0105 67.4135L92.9512 67.2565L94.1239 66.8099Z" fill="#81F8F8"/>
<path d="M101.671 85.836C102.417 85.2339 103.267 85.5055 102.974 86.3298C102.957 86.3745 102.941 86.4138 102.924 86.4507L101.671 85.836Z" fill="#81F8F8"/>
<path d="M102.128 71.3944L101.005 76.5031L100.766 77.5967C100.766 77.5967 99.2212 77.7223 97.8966 77.6956C97.4679 77.6964 97.0397 77.6633 96.616 77.5967L96.54 77.5598L97.8996 74.4143C97.8996 74.4143 93.5038 75.6334 92.0073 75.0289C90.5603 74.4308 89.0685 73.9551 87.5469 73.6065L89.1026 70.1666C89.1026 70.1666 89.928 70.4139 90.9456 70.6981C91.8021 70.9446 92.7916 71.2115 93.5418 71.3944C95.1811 71.7963 102.128 71.3944 102.128 71.3944Z" fill="black"/>
<path d="M100.359 85.1891L101.672 85.8234L101.626 85.8579C100.885 86.4891 100.001 85.8556 100.359 85.1891Z" fill="#81F8F8"/>
<path d="M100.734 65.8115C101.69 65.8264 102.168 66.584 101.452 67.0463C101.416 67.069 101.378 67.0895 101.339 67.1076L100.734 65.8115Z" fill="#81F8F8"/>
<path d="M100.096 64.4684L100.732 65.8115H100.677C99.716 65.8359 99.4105 64.7549 100.096 64.4684Z" fill="#81F8F8"/>
<path d="M98.3891 65.0036V65.1418L94.1247 66.806L92.9535 67.2629L91.7269 67.7394L87.7612 69.2882L87.7232 69.179L87.5439 66.0335L87.5195 65.9645L98.3891 61.7545V63.779V65.0036Z" fill="#FFD997"/>
<path d="M88.992 75.1521C88.2988 74.8758 87.8132 75.8704 88.5253 76.54L88.5641 76.5792L88.1575 77.9444C88.1973 77.9585 88.2379 77.97 88.2791 77.9789C89.1044 78.1642 89.2359 77.2583 88.5641 76.5792L88.992 75.1521ZM85.192 78.3447C83.5119 78.3715 81.8459 78.6646 80.252 79.2137L82.9842 74.4456L83.4622 73.6284C84.7968 73.2203 86.2162 73.2127 87.5548 73.6064C89.0767 73.955 90.5687 74.4307 92.016 75.0289C93.5124 75.6333 97.9083 74.4142 97.9083 74.4142L96.5479 77.5597L95.5561 79.8433L92.1232 80.2358C88.6879 80.6283 88.6811 79.4704 86.5584 78.6085C86.1197 78.4439 85.6578 78.3548 85.1912 78.3447H85.192Z" fill="#81F8F8"/>
<path d="M99.1043 41.6161C98.6157 41.8998 98.151 42.2251 97.715 42.5887C93.763 45.8536 92.2172 39.8483 88.4711 39.678C86.1356 39.572 84.4363 42.975 82.1912 42.9522C81.4547 42.9136 80.7549 42.6079 80.2152 42.0887C81.0175 39.7853 81.2014 37.3006 80.7472 34.8981C79.877 29.6833 75.1514 24.4662 75.1514 24.4662C75.1514 24.4662 79.1482 23.3869 85.9084 26.6218C94.1012 30.5272 99.0108 41.4042 99.1043 41.6161Z" fill="#FFD997"/>
<path d="M85.5693 70.1423L87.7612 69.2929L91.7291 67.7394L90.9425 70.7027C89.9241 70.4162 89.0995 70.1721 89.0995 70.1721L87.5461 73.6151C86.7861 71.914 83.7522 70.9312 83.6519 70.899L85.5693 70.1423Z" fill="#81F8F8"/>
<path d="M81.3597 89.1581C80.659 88.9108 80.2098 89.9188 80.9409 90.5625L80.982 90.6025L80.621 91.9802C80.6603 91.9952 80.7011 92.006 80.7426 92.0124C81.5717 92.1694 81.6819 91.2564 80.982 90.5994L81.3597 89.1581ZM90.238 88.1062L88.072 93.6169L84.652 94.1256C81.232 94.6366 81.1879 93.4866 79.0387 92.6984C76.8894 91.9103 72.7588 93.5282 72.7588 93.5282L75.7737 87.8346C76.0643 87.6985 76.3709 87.6022 76.6857 87.5481C78.3471 87.2466 80.7327 87.7529 82.8341 88.4116C83.3661 88.5764 83.8859 88.7546 84.3685 88.9297C85.8825 89.4807 90.238 88.1054 90.238 88.1054V88.1062Z" fill="#81F8F8"/>
<path d="M88.9924 75.1521L88.5646 76.5792L88.5258 76.54C87.8137 75.8704 88.2993 74.8758 88.9924 75.1521Z" fill="#81F8F8"/>
<path d="M88.5643 76.5793C89.2483 77.2584 89.1047 78.1643 88.2801 77.979C88.2386 77.9703 88.1977 77.9587 88.1577 77.9445L88.5643 76.5793Z" fill="#81F8F8"/>
<path d="M88.5714 82.0146L84.0031 85.4835C83.0278 85.2 82.1459 84.6468 81.4525 83.8837C80.0496 82.5601 79.2896 80.2491 78.3928 78.1877C78.3092 77.9899 78.221 77.7952 78.1321 77.5997C77.4168 76.1975 76.3199 75.0421 74.9766 74.276L80.5177 72.1157V72.1377C81.3512 72.8038 82.1236 73.5477 82.8251 74.36L82.9771 74.4519L80.2563 79.2168C81.8502 78.6679 83.5163 78.3748 85.1963 78.3478C85.533 80.5796 88.5714 82.0146 88.5714 82.0146Z" fill="#81F8F8"/>
<path d="M77.8645 107.99C85.4014 104.384 89.8603 105.587 89.8603 105.587C89.8603 105.587 84.6011 111.404 83.6185 117.219C82.825 121.967 84.8139 124.715 84.8139 124.715C83.9582 125.493 83.1419 126.197 82.0118 126.197C79.5091 126.219 77.6137 122.429 75.0077 122.545C70.8413 122.735 69.1055 129.432 64.6998 125.792C64.2882 125.449 63.8537 125.136 63.3994 124.856L63.4876 124.708C63.4876 124.708 68.6442 112.404 77.8645 107.99Z" fill="#FFD997"/>
<path d="M87.723 69.1791L87.761 69.2882L85.5692 70.1422L85.3921 66.7887L87.4745 65.9817L87.5193 65.9645L87.5437 66.0336L87.723 69.1791Z" fill="black"/>
<path d="M87.4691 65.9692L87.4744 65.9818L85.392 66.7888V66.7746L70.8691 59.8808L72.9561 59.1986H72.9591L87.4691 65.9692Z" fill="#81F8F8"/>
<path d="M85.3946 66.7856L85.5717 70.1392L83.6588 70.8802L80.5306 72.1056L74.9895 74.2659L72.575 75.2189L72.5271 75.0878L72.3477 71.9423L72.3188 71.8638L85.3946 66.7856Z" fill="#FFD997"/>
<path d="M83.6465 70.8904C83.7468 70.9226 86.78 71.9054 87.5407 73.6065C86.2021 73.2127 84.7827 73.2204 83.4481 73.6285L82.9701 74.4457L82.8181 74.3546C82.1168 73.5421 81.3444 72.7982 80.5107 72.1323V72.1103L83.6404 70.8881L83.6465 70.8904Z" fill="black"/>
<path d="M84.1919 86.803L82.8315 88.406C80.7301 87.749 78.3475 87.2426 76.6831 87.5425L76.6686 87.4538C75.7202 86.777 74.9477 85.8696 74.419 84.8115L76.2818 83.0562C76.2818 83.0562 71.778 82.3599 70.6426 81.1895C72.216 80.3207 73.8481 79.5706 75.5263 78.9452L75.5453 79.0017C76.8002 79.8602 77.8536 80.9974 78.6287 82.3301C80.176 84.7817 83.1233 86.5942 84.1919 86.803Z" fill="black"/>
<path d="M81.3597 89.1581L80.9721 90.6025L80.9318 90.5625C80.2098 89.918 80.6589 88.9077 81.3597 89.1581Z" fill="#81F8F8"/>
<path d="M80.9718 90.6017C81.6726 91.2556 81.5624 92.167 80.7324 92.0147C80.691 92.0082 80.6502 91.9974 80.6108 91.9825L80.9718 90.6017Z" fill="#81F8F8"/>
<path d="M74.0538 78.3518C74.0836 78.3204 74.1108 78.2866 74.1351 78.2505C74.6375 77.5519 73.8965 77.0464 73.0187 77.4067L71.9334 76.4191C71.4014 76.9522 72.0854 77.8211 72.9663 77.4263L73.0187 77.4067L74.0538 78.3518ZM78.3927 78.1846L78.132 78.3055C77.2419 78.4132 76.3674 78.6295 75.5267 78.95C73.8485 79.5754 72.2163 80.3255 70.6429 81.1943C69.371 79.8487 67.9674 78.6431 66.4546 77.5966L70.3724 76.0682L72.5718 75.211L74.9765 74.2729C76.3198 75.039 77.4167 76.1944 78.132 77.5966C78.2209 77.789 78.3091 77.9891 78.3927 78.1815V78.1846Z" fill="#81F8F8"/>
<path d="M70.1941 86.4827L68.7311 86.0117C66.214 85.2024 65.8629 84.3946 65.1454 83.316C64.8867 82.9253 64.5939 82.5598 64.2707 82.2241C63.482 81.5349 62.5452 81.0505 61.5385 80.8111C60.4647 80.5041 59.3672 80.294 58.2583 80.1831L60.7853 78.2991L62.5424 79.1312L62.7286 79.0574L66.4655 77.6005C67.9781 78.6469 69.3815 79.8526 70.6531 81.1981C71.7886 82.3686 76.2923 83.0648 76.2923 83.0648L74.4303 84.8201L72.0401 87.0746L70.1941 86.4827ZM67.8381 80.063C67.3061 79.5253 66.48 80.2388 66.882 81.1447L66.9033 81.1965L66.0019 82.283C66.0333 82.3108 66.0661 82.337 66.1 82.3615C66.784 82.8702 67.262 82.0993 66.9033 81.1934L67.8381 80.063Z" fill="#81F8F8"/>
<path d="M73.0186 77.4068C73.8986 77.0464 74.6374 77.552 74.135 78.2506C74.1106 78.2866 74.0834 78.3205 74.0537 78.3519L73.0186 77.4068Z" fill="#81F8F8"/>
<path d="M73.0188 77.4067L72.9663 77.4263C72.0817 77.8188 71.403 76.9553 71.9335 76.4192L73.0188 77.4067Z" fill="#81F8F8"/>
<path d="M72.5238 75.0807L72.5717 75.211L70.3722 76.0682L70.1929 72.6754L72.2707 71.8708L72.3156 71.8535L72.3444 71.9352L72.5238 75.0807Z" fill="black"/>
<path d="M72.2707 71.871L70.1929 72.6756L54.5277 65.3672L54.4829 65.2212L56.5623 64.5446L72.2707 71.871Z" fill="#81F8F8"/>
<path d="M62.8709 84.0706L62.8831 83.7079L62.8466 83.3743C63.6043 83.259 64.3727 83.2392 65.135 83.3154C65.8707 84.394 66.2104 85.1994 68.7207 86.0119L70.1837 86.4829L70.4991 88.1102C70.4991 88.1102 68.6895 88.0168 66.6459 87.9532C65.5606 87.9187 64.4077 87.8936 63.428 87.8936C63.2274 87.8936 63.0093 87.8936 62.7775 87.9085L62.7539 87.3723L62.7661 86.9971H62.8922C63.7335 86.9508 63.6431 86.0417 62.8162 85.5676L62.8709 84.0706Z" fill="#81F8F8"/>
<path d="M70.193 72.6754L70.3723 76.0682L66.4545 77.5966L62.7184 79.0535L62.7017 79.0064V75.5917L62.7351 75.5148L62.7898 75.5422L70.193 72.6754Z" fill="#FFD997"/>
<path d="M67.8241 80.0607L66.868 81.1943V81.1448C66.4758 80.2358 67.3065 79.5222 67.8241 80.0607Z" fill="#81F8F8"/>
<path d="M67.2643 93.5542C64.9265 93.4898 61.9861 95.2812 61.9861 95.2812C61.9568 94.4019 61.6167 93.5641 61.03 92.9262C59.985 91.598 60.6667 88.0914 60.6667 88.0914V88.0521C61.4313 87.9807 62.1609 87.9265 62.7871 87.9014C63.0258 87.9014 63.2363 87.8865 63.4369 87.8865C64.4173 87.8865 65.5695 87.9116 66.6548 87.9461C66.3765 88.2658 66.1784 88.6511 66.0779 89.0683C65.9775 89.4855 65.9777 89.9218 66.0787 90.3388C66.291 91.4733 66.6921 92.5612 67.2643 93.5542Z" fill="black"/>
<path d="M56.5623 64.5444L54.483 65.2211L54.1167 65.3396L54.0498 65.1198C54.0384 62.5843 54.0498 58.6114 54.0285 57.6529C54.0072 56.6944 54.0999 50.7645 54.0999 50.7645C53.8861 49.9116 53.599 49.0801 53.2419 48.28C52.7099 47.1645 51.5699 43.4656 51.5699 43.4656C51.5699 43.4656 49.1113 41.0376 48.5785 40.4096C48.0458 39.7816 46.5129 38.3207 46.2712 37.2594C46.0295 36.1981 47.1224 35.7773 48.2289 36.9061C49.6427 38.3689 51.1406 39.7423 52.7145 41.0187L52.9531 40.0634C52.9531 40.0634 51.3708 37.5718 50.8502 36.6557C50.3296 35.7396 48.4448 31.6631 48.3802 30.3812C48.3156 29.0993 49.9344 28.5545 50.8335 30.9794C51.4593 32.6421 52.2506 34.2332 53.1948 35.7271C53.4767 36.1643 54.369 37.8261 54.4237 37.9298C54.3827 37.7814 53.5657 34.8683 53.4007 33.7324C53.2358 32.5965 52.1619 28.8238 52.165 28.0411C52.168 27.2585 53.7473 25.7466 54.6122 28.7814C55.4771 31.8162 56.1732 33.6876 56.2842 34.5048C56.3951 35.322 56.8413 36.9988 56.8413 36.9988L57.6902 36.9022C57.6902 36.9022 57.5443 33.9718 57.64 33.0879C57.7358 32.204 58.3065 29.7022 58.4 28.6432C58.4935 27.5843 60.2886 26.7121 60.4269 29.9251C60.5653 33.1381 60.0735 36.2954 60.1883 37.1102C60.4206 38.2375 60.7252 39.3476 61.1003 40.4331C61.4287 40.9612 61.9429 41.3367 62.5344 41.4803V41.6012L62.7214 41.6232C63.1866 41.0198 63.5467 40.3374 63.7854 39.6065C63.9214 38.8215 63.7489 37.8183 64.2467 37.1196C64.7445 36.421 65.3107 35.3518 65.9316 35.3793C66.5525 35.4068 67.4212 35.9665 67.0101 37.4776C66.5989 38.9887 66.8733 39.5186 65.9582 41.0658C65.1222 42.4788 64.1867 48.1968 61.6118 50.2307C61.6118 50.2307 62.5565 60.2363 62.7358 62.2334L62.824 62.5199L56.5623 64.5444Z" fill="#FFD997"/>
<path d="M66.8894 81.1943C67.2481 82.1002 66.7723 82.8711 66.0868 82.3624C66.0529 82.338 66.0202 82.3118 65.9888 82.2839L66.8894 81.1943Z" fill="#81F8F8"/>
<path d="M62.8224 85.5645C63.6516 86.0355 63.7428 86.9476 62.8984 86.9939H62.7715L62.8224 85.5645Z" fill="#81F8F8"/>
<path d="M62.7753 86.9939L62.7632 87.3691L62.7875 87.9053C62.1612 87.9296 61.4316 87.9838 60.6671 88.056C57.7031 88.3323 54.2124 88.8661 54.2124 88.8661L54.844 87.034L54.8607 86.7867L58.4464 87.0606C58.4464 87.0606 59.2109 85.0683 59.7992 83.8704C60.3874 82.6725 61.3412 83.5399 62.8544 83.3649L62.8901 83.6977L62.8779 84.0612C62.1392 83.9827 61.9218 85.073 62.7799 85.5275L62.83 85.555L62.7753 86.9939Z" fill="#81F8F8"/>
<path d="M62.8709 84.0706L62.823 85.5519L62.7729 85.5252C61.9171 85.0958 62.1322 83.9889 62.8709 84.0706Z" fill="#81F8F8"/>
<path d="M60.7743 78.2952L58.2716 77.1052L56.8641 76.4387L50.9543 73.6339H50.952L46.522 71.5325V70.0928V67.8163L62.735 75.5148L62.7016 75.5917V79.0065L62.7183 79.0536L62.5314 79.1273L60.7743 78.2952Z" fill="#FFD997"/>
<path d="M61.5301 80.8089L61.5134 80.8654C61.5134 80.8654 60.6842 82.3475 60.0982 83.3154C60.0078 83.4661 59.9022 83.6585 59.7942 83.8806C59.206 85.0785 58.4407 87.0709 58.4407 87.0709L54.855 86.7969L52.8159 86.6399C53.7192 85.8819 54.3847 84.8643 54.7281 83.7158C54.795 83.5234 54.8801 83.3138 54.9675 83.0878C55.9441 81.047 57.0377 79.0681 58.2423 77.1618L58.2666 77.11L60.7693 78.3L58.2423 80.184C59.3537 80.2935 60.4538 80.5026 61.5301 80.8089Z" fill="#81F8F8"/>
<path d="M53.8369 82.4315C53.8727 82.4072 53.9072 82.381 53.9403 82.353C54.5999 81.8098 54.0094 81.1182 53.0701 81.2399L52.2667 80.0051C51.6215 80.385 52.0608 81.4 53.0146 81.254H53.0701L53.8369 82.4315ZM58.2624 77.1053L58.2381 77.1571C57.0345 79.0641 55.941 81.0429 54.9632 83.083C53.1012 84.2386 47.8299 85.1719 47.8299 85.1719L46.1807 80.3049C46.1807 80.3049 48.2099 80.1793 50.483 79.7821C51.4079 79.5661 52.3005 79.2228 53.1369 78.7616C54.4017 78.0954 55.6276 77.3534 56.8085 76.5393L56.8609 76.4231L58.2624 77.1053Z" fill="#81F8F8"/>
<path d="M56.8643 76.4411L56.8111 76.5573C55.6305 77.3716 54.4045 78.1134 53.1395 78.7788L53.1106 78.7176C52.5293 78.1162 51.7739 77.7271 50.9591 77.6092L46.5298 77.1696C46.8822 76.5336 47.2919 75.9333 47.7534 75.3767C48.6649 74.5339 49.7662 73.9402 50.9568 73.6497L56.8643 76.4411Z" fill="black"/>
<path d="M53.0703 81.2414C54.0097 81.1276 54.6002 81.8113 53.9405 82.3546C53.9074 82.3826 53.8729 82.4088 53.8371 82.4331L53.0703 81.2414Z" fill="#81F8F8"/>
<path d="M53.0699 81.2414H53.0182C52.0621 81.3866 51.6251 80.3716 52.2704 79.9917L53.0699 81.2414Z" fill="#81F8F8"/>
<path d="M44.5449 92.463C44.0129 91.9253 43.1898 92.6365 43.5888 93.5447L43.6101 93.5965L42.7064 94.683C42.7383 94.7115 42.7721 94.7377 42.8075 94.7615C43.4915 95.2701 43.9688 94.4969 43.6101 93.5934L44.5449 92.463ZM53.0029 95.4656L48.7469 99.4691L45.4477 98.4101C42.1493 97.3512 42.5795 96.2906 40.9774 94.6249C39.3753 92.9591 34.9658 92.5839 34.9658 92.5839L40.0578 88.7837C42.1972 88.7837 45.2881 91.4598 47.3584 93.5957C48.4915 94.767 53.0029 95.4656 53.0029 95.4656Z" fill="#81F8F8"/>
<path d="M45.9177 75.5494C45.9465 75.517 45.9736 75.4832 45.9991 75.4481C46.5007 74.7495 45.7597 74.2431 44.8803 74.6042L43.7951 73.6151C43.2631 74.1505 43.9471 75.0171 44.8271 74.6246L44.8803 74.605L45.9177 75.5494ZM46.5219 71.5325L50.952 73.634C49.7625 73.9277 48.662 74.521 47.7486 75.361C47.287 75.9175 46.8773 76.5178 46.525 77.1539C46.0226 77.9562 45.4275 78.6352 43.4652 79.3762L40.2208 80.6103L35.7915 76.8085C35.7915 76.8085 40.2565 75.8846 41.3349 74.6552C42.8233 72.8605 44.5773 71.3204 46.5318 70.092L46.5219 71.5325Z" fill="#81F8F8"/>
<path d="M44.875 74.6042C45.7574 74.2431 46.4961 74.7494 45.9937 75.4481C45.9685 75.4834 45.9414 75.5172 45.9124 75.5494L44.875 74.6042Z" fill="#81F8F8"/>
<path d="M43.7952 73.6151L44.8804 74.6034L44.8272 74.623C43.9434 75.0163 43.2639 74.1497 43.7952 73.6151Z" fill="#81F8F8"/>
<path d="M44.5455 92.463L43.6039 93.5965L43.5826 93.5447C43.2026 92.6365 44.0173 91.9253 44.5455 92.463Z" fill="#81F8F8"/>
<path d="M43.6033 93.5966C43.9621 94.5001 43.4863 95.2733 42.8 94.7646C42.765 94.7407 42.7315 94.7145 42.6997 94.6861L43.6033 93.5966Z" fill="#81F8F8"/>
<path d="M22.8107 61.5496C23.3701 60.3721 20.9487 66.2408 19.3809 71.9721C18.7564 74.075 18.3428 76.2385 18.1466 78.4287C17.9938 82.2959 18.3331 86.1671 19.1559 89.9431H19.1985C18.9846 91.3179 18.865 92.7066 18.8405 94.0989C18.329 90.2524 14.4994 89.8348 13.5258 85.0541C12.6343 80.6887 9.37167 81.0271 7.31055 79.4861L7.40175 79.3527C8.14471 75.5762 9.56222 71.9758 11.5817 68.7355C12.5803 67.0655 13.8003 65.548 15.2062 64.2273C19.2684 60.5566 22.8107 61.5496 22.8107 61.5496Z" fill="#FFD997"/>
<path d="M63.4902 124.719C63.4902 124.719 68.6438 112.408 77.8641 107.993C85.401 104.387 89.86 105.59 89.86 105.59C89.86 105.59 84.6008 111.407 83.6181 117.222C82.8246 121.97 84.8136 124.719 84.8136 124.719" stroke="black" stroke-width="0.980065" stroke-linecap="round" stroke-linejoin="round"/>
<path d="M67.7573 121.454C68.8639 115.994 77.8433 109.147 82.0142 108.022" stroke="black" stroke-width="0.980065" stroke-linecap="round" stroke-linejoin="round"/>
<path d="M11.5801 68.752C12.5786 67.0754 13.8002 65.5521 15.2091 64.2265C19.2728 60.5566 22.8091 61.5496 22.8091 61.5496C23.3684 60.3721 20.9471 66.2408 19.3792 71.9721C18.7547 74.075 18.3412 76.2385 18.145 78.4287C17.9926 82.296 18.3325 86.1672 19.1558 89.9431" stroke="black" stroke-width="0.980065" stroke-linecap="round" stroke-linejoin="round"/>
<path d="M7.39404 79.3598C8.13705 75.5832 9.55455 71.9825 11.574 68.7419" stroke="black" stroke-width="0.980065" stroke-linecap="round" stroke-linejoin="round"/>
<path d="M20.6377 62.8732C13.8487 68.7866 14.009 84.967 15.5792 89.0922" stroke="black" stroke-width="0.980065" stroke-linecap="round" stroke-linejoin="round"/>
<path d="M56.395 125.878C56.9232 124.332 59.6554 122.562 63.4015 124.864C63.856 125.143 64.2906 125.456 64.7018 125.8C69.1098 129.439 70.8434 122.743 75.0097 122.552C77.6157 122.437 79.5112 126.227 82.0139 126.204C83.1379 126.204 83.9602 125.497 84.816 124.723C85.9104 123.718 87.0625 122.579 88.9732 122.569C92.0132 122.552 93.0559 126.125 95.1717 126.14C97.9473 126.162 100.515 123.545 103.744 124.557" stroke="black" stroke-width="0.980065" stroke-linecap="round" stroke-linejoin="round"/>
<path d="M60.6762 121.454C58.5422 121.745 52.6035 122.474 52.6035 125.536C52.6035 127.263 55.164 129.239 60.9704 129.812C69.0218 130.618 69.3372 132.731 72.6842 132.731C76.0313 132.731 77.6159 128.978 82.0072 129.292" stroke="black" stroke-width="0.980065" stroke-linecap="round" stroke-linejoin="round"/>
<path d="M85.3184 120.96C88.0157 119.988 90.9266 119.838 93.7042 120.528C97.9182 121.554 102.311 121.507 106.503 120.392" stroke="black" stroke-width="0.980065" stroke-linecap="round" stroke-linejoin="round"/>
<path d="M54.7383 126.019C54.7383 126.019 55.9543 128.034 60.7529 128.286C65.5516 128.538 67.9053 128.533 70.9939 129.713" stroke="black" stroke-width="0.980065" stroke-linecap="round" stroke-linejoin="round"/>
<path d="M99.1066 41.6185C99.0131 41.4066 94.1035 30.5398 85.9084 26.625C79.1482 23.39 75.1514 24.4694 75.1514 24.4694C75.1514 24.4694 79.877 29.6865 80.7472 34.9013C81.2041 37.3036 81.0202 39.7891 80.2152 42.0919" stroke="black" stroke-width="0.980065" stroke-linecap="round" stroke-linejoin="round"/>
<path d="M94.9761 38.6928C93.9836 33.7967 85.9321 27.658 82.1914 26.6454" stroke="black" stroke-width="0.980065" stroke-linecap="round" stroke-linejoin="round"/>
<path d="M105.166 42.661C104.702 41.3076 102.347 39.7565 99.1038 41.6161C98.6153 41.8998 98.1506 42.2251 97.7145 42.5887C93.7625 45.8536 92.2167 39.8483 88.4707 39.678C86.1352 39.572 84.4358 42.975 82.1908 42.9522C81.4542 42.9136 80.7545 42.6079 80.2148 42.0887C79.0482 41.1255 77.9751 39.7031 75.9497 39.6905C73.2273 39.6764 72.2903 42.8784 70.3918 42.9004C69.2154 42.7639 68.0844 42.3538 67.0835 41.7009" stroke="black" stroke-width="0.980065" stroke-linecap="round" stroke-linejoin="round"/>
<path d="M54.4087 37.9345L55.193 37.6974" stroke="black" stroke-width="0.980065" stroke-linecap="round" stroke-linejoin="round"/>
<path d="M54.0498 65.1198C54.0384 62.5842 54.0498 58.6114 54.0285 57.6529C54.0072 56.6944 54.0999 50.7645 54.0999 50.7645C53.8861 49.9116 53.599 49.0801 53.2419 48.28C52.7099 47.1645 51.5699 43.4656 51.5699 43.4656C51.5699 43.4656 49.1113 41.0376 48.5785 40.4096C48.0458 39.7816 46.5129 38.3207 46.2712 37.2594C46.0295 36.198 47.1224 35.7773 48.2289 36.9061C49.6427 38.3689 51.1406 39.7423 52.7145 41.0187L52.9531 40.0634C52.9531 40.0634 51.3708 37.5718 50.8502 36.6557C50.3296 35.7396 48.4448 31.6631 48.3802 30.3812C48.3156 29.0993 49.9344 28.5545 50.8335 30.9794C51.4593 32.6421 52.2506 34.2332 53.1948 35.727C53.4767 36.1643 54.369 37.8261 54.4237 37.9297" stroke="black" stroke-width="0.980065" stroke-linecap="round" stroke-linejoin="round"/>
<path d="M54.4081 37.9345C54.3679 37.7861 53.5501 34.873 53.3852 33.7371C53.2203 32.6012 52.1471 28.8285 52.1494 28.0458C52.1517 27.2632 53.7317 25.752 54.5974 28.7861C55.463 31.8201 56.1584 33.6923 56.2694 34.5103C56.3803 35.3283 56.8265 37.0034 56.8265 37.0034L57.6754 36.9077C57.6754 36.9077 57.5295 33.9765 57.6252 33.0926C57.721 32.2087 58.2917 29.7076 58.3852 28.6479C58.4787 27.5882 60.2738 26.7176 60.4121 29.9298C60.5505 33.142 60.0587 36.3001 60.1735 37.1149C60.4061 38.2424 60.7108 39.3527 61.0855 40.4386C61.4147 40.966 61.929 41.3411 62.5204 41.485C62.5568 41.4874 62.5934 41.4874 62.6298 41.485" stroke="black" stroke-width="0.980065" stroke-linecap="round" stroke-linejoin="round"/>
<path d="M57.9629 43.3274C58.1383 42.9039 58.4057 42.5279 58.7444 42.2284C59.0831 41.9289 59.484 41.714 59.9161 41.6004C60.7749 41.5038 61.6413 41.5038 62.5001 41.6004L62.6871 41.6223C63.1525 41.0191 63.5126 40.3367 63.7511 39.6057C63.8879 38.8207 63.7153 37.8174 64.2131 37.1188C64.7109 36.4201 65.2771 35.351 65.8981 35.3784C66.519 35.4059 67.3877 35.9656 66.9765 37.4768C66.5653 38.9879 66.8397 39.5178 65.9247 41.0642C65.0887 42.4819 64.1531 48.1951 61.5782 50.2299C61.3509 50.4127 61.1029 50.5661 60.8395 50.6867" stroke="black" stroke-width="0.980065" stroke-linecap="round" stroke-linejoin="round"/>
<path d="M61.5776 50.2261C61.5776 50.2261 62.5223 60.2309 62.7017 62.2326" stroke="black" stroke-width="0.980065" stroke-linecap="round" stroke-linejoin="round"/>
<path d="M101.325 38.6929C103.237 38.9543 108.566 39.6043 108.566 42.3573C108.566 43.9006 106.271 45.6707 101.055 46.1912C93.8352 46.915 93.5441 48.8092 90.5558 48.8092C87.5675 48.8092 86.1334 45.4431 82.189 45.7249" stroke="black" stroke-width="0.980065" stroke-linecap="round" stroke-linejoin="round"/>
<path d="M79.2271 38.2485C76.8095 37.3742 74.199 37.2395 71.7092 37.8607C70.5087 38.1786 69.2815 38.3771 68.0444 38.4534" stroke="black" stroke-width="0.980065" stroke-linecap="round" stroke-linejoin="round"/>
<path d="M106.651 42.7866C106.651 42.7866 105.559 44.5921 101.255 44.8213C96.951 45.0506 94.839 45.0459 92.0703 46.1001" stroke="black" stroke-width="0.980065" stroke-linecap="round" stroke-linejoin="round"/>
<path d="M8.25008 73.1174C8.25008 73.1174 4.6644 76.4859 6.60848 78.8362C6.81346 79.0837 7.04699 79.3043 7.30388 79.4932C9.37184 81.0334 12.6345 80.695 13.5192 85.0612C14.492 89.8411 18.3216 90.2587 18.8331 94.1052C18.8475 94.2017 18.8574 94.2975 18.8665 94.3988" stroke="black" stroke-width="0.980065" stroke-linecap="round" stroke-linejoin="round"/>
<path d="M18.1465 78.4287C18.1465 78.4287 22.1532 83.4527 22.4329 86.095C22.7126 88.7373 20.64 94.0581 23.6116 97.0191C26.5832 99.9801 31.5962 98.5624 34.8756 103.226" stroke="black" stroke-width="0.980065" stroke-linecap="round" stroke-linejoin="round"/>
<path d="M11.5801 68.7521C11.384 68.8015 2.9602 70.9744 3.268 78.8786C3.46408 83.8021 7.39708 82.0884 6.5626 89.0051" stroke="black" stroke-width="0.980065" stroke-linecap="round" stroke-linejoin="round"/>
<path d="M129.069 86.0017C129.592 83.4489 130.145 80.4635 130.489 77.8314C131.118 72.984 130.893 69.4091 131.729 67.3909C132.565 65.3727 140.871 80.4721 141.93 92.7464" stroke="black" stroke-width="0.980065" stroke-linecap="round" stroke-linejoin="round"/>
<path d="M127.732 92.0626C127.732 92.0626 128.371 89.4226 129.069 86.0126" stroke="black" stroke-width="0.980065" stroke-linecap="round" stroke-linejoin="round"/>
<path d="M132.566 68.6696C132.566 68.6696 134.957 75.3091 134.957 81.4156C134.957 84.7762 134.443 95.095 134.443 95.095" stroke="black" stroke-width="0.980065" stroke-linecap="round" stroke-linejoin="round"/>
<path d="M72.9563 59.1987L70.8693 59.8808L62.7898 62.5153L56.5623 64.5445L54.483 65.2212L54.1167 65.3397L46.522 67.8164L62.735 75.5149L62.7898 75.5424L70.1929 72.6755L72.2708 71.8709L72.3156 71.8536L85.3922 66.7888L87.4746 65.9818L87.5194 65.9646L98.3889 61.7546L78.9063 57.2605L72.9593 59.1987" stroke="black" stroke-width="0.980065" stroke-linecap="round" stroke-linejoin="round"/>
<path d="M83.6494 70.8903L85.5692 70.1422L87.761 69.2881L91.7267 67.7393L92.9533 67.2628L94.1245 66.8059L98.3889 65.1417" stroke="black" stroke-width="0.980065" stroke-linecap="round" stroke-linejoin="round"/>
<path d="M62.5312 79.1274L62.7182 79.0536L66.4544 77.5966L70.3722 76.0682L72.5716 75.211L74.9762 74.2729L80.5174 72.1126L83.6471 70.8904" stroke="black" stroke-width="0.980065" stroke-linecap="round" stroke-linejoin="round"/>
<path d="M50.952 73.6339L46.522 71.5325V70.0928V67.8163" stroke="black" stroke-width="0.980065" stroke-linecap="round" stroke-linejoin="round"/>
<path d="M62.5312 79.1273L60.7741 78.2952L58.2714 77.1052L56.8639 76.4387L50.9541 73.6339" stroke="black" stroke-width="0.980065" stroke-linecap="round" stroke-linejoin="round"/>
<path d="M62.7017 75.5917V79.0064" stroke="black" stroke-width="0.980065" stroke-linecap="round" stroke-linejoin="round"/>
<path d="M98.3887 61.7545V63.779V65.0036" stroke="black" stroke-width="0.980065" stroke-linecap="round" stroke-linejoin="round"/>
<path d="M34.9614 92.5815C34.9614 92.5815 39.3603 92.9599 40.9738 94.6264C42.5873 96.293 42.1449 97.3425 45.4441 98.4117L48.7433 99.4706L52.9993 95.4671C52.9993 95.4671 48.4955 94.7708 47.3601 93.5981C45.2898 91.4621 42.1989 88.786 40.0595 88.786L34.9614 92.5815Z" stroke="black" stroke-width="0.980065" stroke-linecap="round" stroke-linejoin="round"/>
<path d="M44.4113 93.441C44.4988 93.4072 44.5763 93.3505 44.6362 93.2765C44.6962 93.2026 44.7365 93.1138 44.7534 93.0189C44.7702 92.9241 44.763 92.8263 44.7323 92.7352C44.7017 92.644 44.6487 92.5627 44.5785 92.499L44.5451 92.4645C44.0131 91.9267 43.19 92.6379 43.589 93.5462L43.6103 93.598C43.969 94.5015 43.4932 95.2748 42.8077 94.7661C42.7723 94.7423 42.7386 94.7161 42.7066 94.6876C42.586 94.5951 42.5058 94.4569 42.4837 94.3034C42.4616 94.1499 42.4994 93.9936 42.5888 93.8688C42.6222 93.8226 42.6619 93.7816 42.7066 93.7471" stroke="black" stroke-width="0.980065" stroke-linecap="round" stroke-linejoin="round"/>
<path d="M44.7745 92.1866L44.545 92.463L43.6034 93.5965L42.6997 94.6829L42.4634 94.9671" stroke="black" stroke-width="0.980065" stroke-linecap="round" stroke-linejoin="round"/>
<path d="M37.7305 91.7871L40.3069 89.8481C41.2759 90.1082 42.2039 90.5103 43.0626 91.0421" stroke="black" stroke-width="0.980065" stroke-linecap="round" stroke-linejoin="round"/>
<path d="M51.076 95.7129L48.3104 98.2139C48.3104 98.2139 45.0424 97.3002 44.407 96.9618C43.9681 96.7555 43.6045 96.4094 43.3696 95.9743" stroke="black" stroke-width="0.980065" stroke-linecap="round" stroke-linejoin="round"/>
<path d="M76.6833 87.5473C76.3685 87.6015 76.0619 87.6978 75.7713 87.8339L72.7563 93.5275C72.7563 93.5275 76.8847 91.9127 79.0362 92.6977C81.1878 93.4827 81.2311 94.6359 84.6496 94.1249L88.0696 93.6162L90.2356 88.1055C90.2356 88.1055 85.88 89.4808 84.3638 88.9274C83.8858 88.7523 83.3652 88.5741 82.8294 88.4093C80.7325 87.7522 78.3423 87.2459 76.6833 87.5473Z" stroke="black" stroke-width="0.980065" stroke-linecap="round" stroke-linejoin="round"/>
<path d="M81.6457 90.1001C81.7102 90.0305 81.7562 89.945 81.7794 89.8518C81.8026 89.7586 81.8021 89.6607 81.778 89.5678C81.754 89.4748 81.7072 89.3897 81.642 89.3209C81.5769 89.252 81.4958 89.2016 81.4063 89.1745L81.3615 89.1573C80.6608 88.91 80.2116 89.9179 80.9427 90.5616L80.9838 90.6017C81.6837 91.2556 81.5743 92.167 80.7444 92.0147C80.7029 92.0083 80.6621 91.9975 80.6228 91.9825C80.4764 91.9538 80.3471 91.8662 80.2633 91.739C80.1795 91.6118 80.1481 91.4554 80.1759 91.3042C80.1867 91.2443 80.2067 91.1865 80.2352 91.1331" stroke="black" stroke-width="0.980065" stroke-linecap="round" stroke-linejoin="round"/>
<path d="M81.4521 88.8065L81.3594 89.1574L80.9817 90.6018L80.6207 91.9795L80.5249 92.3445" stroke="black" stroke-width="0.980065" stroke-linecap="round" stroke-linejoin="round"/>
<path d="M74.9263 91.579L76.4463 88.6832C77.4281 88.4885 78.4317 88.4393 79.427 88.5372" stroke="black" stroke-width="0.980065" stroke-linecap="round" stroke-linejoin="round"/>
<path d="M88.6213 89.1864L87.1682 92.6757C87.1682 92.6757 83.8401 93.3037 83.1235 93.2833C82.6397 93.2897 82.1666 93.1365 81.7729 92.8461" stroke="black" stroke-width="0.980065" stroke-linecap="round" stroke-linejoin="round"/>
<path d="M82.982 74.4457L80.2544 79.2138C81.8483 78.6648 83.5144 78.3717 85.1944 78.3448C85.6586 78.3552 86.118 78.4435 86.5548 78.6062C88.6775 79.4697 88.6828 80.6236 92.1195 80.2335L95.5524 79.841L96.5404 77.5574L97.9008 74.4119C97.9008 74.4119 93.5042 75.631 92.0078 75.0266C90.5607 74.4284 89.069 73.9527 87.5474 73.6042C86.2088 73.2104 84.7893 73.218 83.4548 73.6261L82.982 74.4457Z" stroke="black" stroke-width="0.980065" stroke-linecap="round" stroke-linejoin="round"/>
<path d="M89.2477 76.1027C89.315 76.0355 89.3642 75.9514 89.3906 75.8587C89.4169 75.7659 89.4195 75.6677 89.398 75.5736C89.3766 75.4795 89.3319 75.3928 89.2682 75.3219C89.2046 75.2511 89.1242 75.1985 89.0349 75.1694L88.9924 75.1521C88.2993 74.8758 87.8136 75.8704 88.5257 76.54L88.5645 76.5792C89.2485 77.2582 89.1049 78.1641 88.2795 77.9789C88.2383 77.97 88.1977 77.9585 88.1579 77.9443C88.0712 77.9243 87.9904 77.8834 87.922 77.8248C87.8536 77.7662 87.7997 77.6917 87.7647 77.6074C87.7297 77.523 87.7145 77.4313 87.7205 77.3398C87.7265 77.2483 87.7535 77.1595 87.7992 77.0808" stroke="black" stroke-width="0.980065" stroke-linecap="round" stroke-linejoin="round"/>
<path d="M89.095 74.8036L88.9924 75.1521L88.5645 76.5793L88.1579 77.9444L88.0508 78.3055" stroke="black" stroke-width="0.980065" stroke-linecap="round" stroke-linejoin="round"/>
<path d="M82.4805 77.3423L84.0939 74.5029C85.0814 74.3436 86.0858 74.3301 87.0769 74.4629" stroke="black" stroke-width="0.980065" stroke-linecap="round" stroke-linejoin="round"/>
<path d="M96.235 75.4386L94.6664 78.8745C94.6664 78.8745 91.3224 79.3856 90.6027 79.3385C90.1176 79.3261 89.6492 79.153 89.2666 78.8447" stroke="black" stroke-width="0.980065" stroke-linecap="round" stroke-linejoin="round"/>
<path d="M108.355 81.352L109.665 81.7594C109.665 81.7594 105.628 83.6136 104.638 85.7221C103.649 87.8306 104.399 88.6855 101.611 90.8089L98.8288 92.9284L93.5415 90.5734C93.5415 90.5734 97.5763 88.3935 98.2793 86.902C98.984 85.3735 99.8174 83.912 100.77 82.5342C101.476 81.3925 102.476 80.476 103.658 79.8872L108.355 81.352Z" stroke="black" stroke-width="0.980065" stroke-linecap="round" stroke-linejoin="round"/>
<path d="M101.308 85.0581C101.253 84.9799 101.18 84.9179 101.094 84.878C101.009 84.8381 100.915 84.8217 100.822 84.8304C100.729 84.8391 100.64 84.8726 100.563 84.9276C100.486 84.9827 100.424 85.0574 100.384 85.1444C100.374 85.1593 100.367 85.1742 100.359 85.1892C100.001 85.8556 100.885 86.4883 101.626 85.858L101.672 85.8234C102.417 85.2213 103.268 85.4929 102.974 86.318C102.958 86.3619 102.941 86.4012 102.924 86.4389C102.893 86.5243 102.842 86.6007 102.776 86.6621C102.71 86.7234 102.632 86.7679 102.546 86.7919C102.461 86.8159 102.371 86.8188 102.284 86.8003C102.198 86.7818 102.116 86.7424 102.047 86.6854" stroke="black" stroke-width="0.980065" stroke-linecap="round" stroke-linejoin="round"/>
<path d="M100.042 85.0337L100.359 85.1891L101.672 85.8234L102.924 86.4286L103.254 86.5896" stroke="black" stroke-width="0.980065" stroke-linecap="round" stroke-linejoin="round"/>
<path d="M106.789 81.9424L103.742 80.9816C102.909 81.5549 102.16 82.2485 101.519 83.0414" stroke="black" stroke-width="0.980065" stroke-linecap="round" stroke-linejoin="round"/>
<path d="M95.4268 90.1645L98.8338 91.5917C98.8338 91.5917 101.628 89.6166 102.125 89.093" stroke="black" stroke-width="0.980065" stroke-linecap="round" stroke-linejoin="round"/>
<path d="M98.5803 63.779C101.126 62.6258 104.079 61.8039 105.876 62.4657L109.431 67.8115C109.431 67.8115 105.166 66.634 103.103 67.6412C101.04 68.6483 101.11 69.7991 97.6577 69.6484L94.2057 69.4977L93.0103 67.4135" stroke="black" stroke-width="0.980065" stroke-linecap="round" stroke-linejoin="round"/>
<path d="M100.916 64.9801C100.92 64.8835 100.9 64.7873 100.858 64.701C100.816 64.6147 100.752 64.5412 100.674 64.4877C100.596 64.4342 100.506 64.4026 100.413 64.3959C100.319 64.3892 100.226 64.4076 100.141 64.4495L100.098 64.4667C99.4102 64.7533 99.718 65.8224 100.679 65.8075H100.734C101.69 65.8224 102.168 66.58 101.452 67.0415C101.415 67.0648 101.378 67.0855 101.339 67.1035C101.262 67.1499 101.176 67.1769 101.088 67.1823C100.999 67.1878 100.91 67.1716 100.829 67.135C100.747 67.0985 100.675 67.0426 100.619 66.9719C100.562 66.9013 100.523 66.8178 100.503 66.7283" stroke="black" stroke-width="0.980065" stroke-linecap="round" stroke-linejoin="round"/>
<path d="M99.9434 64.1394L100.098 64.4683L100.735 65.8115L101.344 67.0957L101.504 67.4333" stroke="black" stroke-width="0.980065" stroke-linecap="round" stroke-linejoin="round"/>
<path d="M107.083 66.105L105.29 63.3889C104.294 63.2981 103.29 63.3547 102.31 63.5569" stroke="black" stroke-width="0.980065" stroke-linecap="round" stroke-linejoin="round"/>
<path d="M94.1196 66.806L95.021 68.4734C95.021 68.4734 98.3916 68.7497 99.1014 68.6555" stroke="black" stroke-width="0.980065" stroke-linecap="round" stroke-linejoin="round"/>
<path d="M46.5219 77.157C46.0203 77.9593 45.4253 78.6383 43.4622 79.3793L40.2185 80.6141L35.7915 76.8092C35.7915 76.8092 40.2565 75.8853 41.3349 74.656C42.8233 72.8612 44.5773 71.3211 46.5318 70.0928" stroke="black" stroke-width="0.980065" stroke-linecap="round" stroke-linejoin="round"/>
<path d="M50.9543 73.6339C49.7649 73.9277 48.6644 74.521 47.7509 75.3609C47.2894 75.9175 46.8797 76.5178 46.5273 77.1539" stroke="black" stroke-width="0.980065" stroke-linecap="round" stroke-linejoin="round"/>
<path d="M44.7389 73.7642C44.7076 73.6729 44.6537 73.5916 44.5825 73.5283C44.5114 73.4651 44.4255 73.4222 44.3334 73.4038C44.2412 73.3854 44.146 73.3922 44.0572 73.4235C43.9684 73.4547 43.889 73.5094 43.8269 73.5821L43.7935 73.6135C43.2615 74.1497 43.9455 75.0163 44.8256 74.6238L44.8788 74.6042C45.7604 74.2431 46.4991 74.7494 45.9975 75.4481C45.9721 75.4832 45.9449 75.517 45.9162 75.5493C45.871 75.61 45.8148 75.6609 45.7506 75.6992C45.6864 75.7374 45.6155 75.7622 45.542 75.7721C45.4685 75.782 45.3939 75.7768 45.3223 75.7569C45.2508 75.737 45.1837 75.7028 45.125 75.6561C45.0796 75.6206 45.0399 75.5779 45.0072 75.5297" stroke="black" stroke-width="0.980065" stroke-linecap="round" stroke-linejoin="round"/>
<path d="M43.5288 73.3718L43.7948 73.6136L44.8801 74.6043L45.9175 75.5494L46.1896 75.7967" stroke="black" stroke-width="0.980065" stroke-linecap="round" stroke-linejoin="round"/>
<path d="M53.1417 80.4039C53.1341 80.3073 53.1022 80.2144 53.0492 80.1344C52.9963 80.0545 52.924 79.9901 52.8396 79.9478C52.7552 79.9055 52.6615 79.8866 52.5679 79.8931C52.4743 79.8996 52.3839 79.9311 52.3057 79.9847L52.2655 80.0067C51.6202 80.3866 52.0595 81.4016 53.0133 81.2556H53.0688C54.0082 81.1426 54.5987 81.8263 53.939 82.3695C53.9056 82.397 53.8713 82.4221 53.8356 82.448C53.7777 82.4952 53.7114 82.5302 53.6405 82.5509C53.5695 82.5717 53.4952 82.5778 53.422 82.5689C53.3487 82.56 53.2779 82.5363 53.2135 82.4991C53.1491 82.4619 53.0925 82.412 53.0467 82.3522C53.0119 82.3062 52.9838 82.2551 52.9632 82.2007" stroke="black" stroke-width="0.980065" stroke-linecap="round" stroke-linejoin="round"/>
<path d="M52.0708 79.6957L52.2669 79.9987L53.0702 81.2413L53.837 82.4314L54.0407 82.7446" stroke="black" stroke-width="0.980065" stroke-linecap="round" stroke-linejoin="round"/>
<path d="M37.7036 76.9624L40.584 79.3174C40.584 79.3174 43.8019 78.2412 44.4235 77.873" stroke="black" stroke-width="0.980065" stroke-linecap="round" stroke-linejoin="round"/>
<path d="M65.1372 83.3154C65.8736 84.394 66.2126 85.1994 68.7229 86.0119L70.1859 86.4829L72.022 87.0708L74.4122 84.8163L76.2742 83.0611C76.2742 83.0611 71.7705 82.3648 70.635 81.1943C69.3633 79.8486 67.9596 78.6429 66.4467 77.5967" stroke="black" stroke-width="0.980065" stroke-linecap="round" stroke-linejoin="round"/>
<path d="M60.777 78.2928L58.25 80.1768C59.3587 80.2876 60.456 80.4978 61.5294 80.8048C62.5368 81.0455 63.4746 81.5298 64.2654 82.2178C64.5884 82.5537 64.8812 82.9192 65.1402 83.3098" stroke="black" stroke-width="0.980065" stroke-linecap="round" stroke-linejoin="round"/>
<path d="M67.6974 81.0412C67.7844 81.0069 67.8613 80.9499 67.9209 80.876C67.9804 80.802 68.0205 80.7134 68.0373 80.6188C68.0541 80.5241 68.047 80.4266 68.0168 80.3356C67.9865 80.2446 67.9341 80.1632 67.8646 80.0992L67.8334 80.0647C67.3014 79.5262 66.4753 80.2397 66.8773 81.1464L66.8986 81.1982C67.2573 82.1041 66.7816 82.875 66.0953 82.3663C66.0614 82.3418 66.0286 82.3156 65.9972 82.2878C65.9256 82.234 65.8674 82.1634 65.8272 82.0819C65.7871 82.0004 65.7661 81.9102 65.7661 81.8188C65.7661 81.7273 65.7871 81.6371 65.8272 81.5556C65.8674 81.4741 65.9256 81.4035 65.9972 81.3497" stroke="black" stroke-width="0.980065" stroke-linecap="round" stroke-linejoin="round"/>
<path d="M68.0609 79.7867L67.8337 80.0607L66.889 81.1942L65.9884 82.2807L65.749 82.5672" stroke="black" stroke-width="0.980065" stroke-linecap="round" stroke-linejoin="round"/>
<path d="M74.3624 83.3153L71.5968 85.814C71.5968 85.814 68.3288 84.9002 67.6927 84.5642C67.2545 84.3566 66.8913 84.0109 66.6553 83.5767" stroke="black" stroke-width="0.980065" stroke-linecap="round" stroke-linejoin="round"/>
<path d="M54.5278 65.3672L70.1929 72.6755" stroke="black" stroke-width="0.980065" stroke-linecap="round" stroke-linejoin="round"/>
<path d="M56.5337 64.5294L56.5626 64.5443L72.271 71.8707" stroke="black" stroke-width="0.980065" stroke-linecap="round" stroke-linejoin="round"/>
<path d="M70.3722 76.0682L70.1929 72.6754" stroke="black" stroke-width="0.980065" stroke-linecap="round" stroke-linejoin="round"/>
<path d="M72.5241 75.0807L72.3447 71.9352" stroke="black" stroke-width="0.980065" stroke-linecap="round" stroke-linejoin="round"/>
<path d="M70.8691 59.8807L85.392 66.7746" stroke="black" stroke-width="0.980065" stroke-linecap="round" stroke-linejoin="round"/>
<path d="M72.9561 59.1986H72.9591L87.469 65.9692" stroke="black" stroke-width="0.980065" stroke-linecap="round" stroke-linejoin="round"/>
<path d="M85.5714 70.1666L85.5692 70.1423L85.3921 66.7888V66.7747" stroke="black" stroke-width="0.980065" stroke-linecap="round" stroke-linejoin="round"/>
<path d="M87.7233 69.1791L87.5439 66.0336" stroke="black" stroke-width="0.980065" stroke-linecap="round" stroke-linejoin="round"/>
<path d="M46.522 77.157L50.952 77.5966C51.7668 77.7145 52.5222 78.1036 53.1036 78.705" stroke="black" stroke-width="0.980065" stroke-linecap="round" stroke-linejoin="round"/>
<path d="M56.8109 76.5549C55.6304 77.3692 54.4044 78.111 53.1394 78.7765C52.3033 79.2379 51.4109 79.5811 50.4862 79.797C48.2199 80.1942 46.1831 80.3198 46.1831 80.3198L47.8323 85.1868C47.8323 85.1868 53.0915 84.2534 54.9657 83.0979" stroke="black" stroke-width="0.980065" stroke-linecap="round" stroke-linejoin="round"/>
<path d="M58.2482 77.157C57.0443 79.0638 55.9508 81.0426 54.9733 83.0829C54.8776 83.3098 54.794 83.5202 54.7339 83.711C54.3936 84.8608 53.7276 85.879 52.8218 86.6343L54.8609 86.7913L58.4465 87.066C58.4465 87.066 59.2111 85.0729 59.7993 83.8758C59.9095 83.6536 60.0144 83.4605 60.1033 83.3098C60.6885 82.3498 61.5185 80.8606 61.5185 80.8606" stroke="black" stroke-width="0.980065" stroke-linecap="round" stroke-linejoin="round"/>
<path d="M54.8425 87.034L54.2109 88.8662C54.2109 88.8662 57.7016 88.3324 60.6656 88.056C61.4302 87.9846 62.1598 87.9297 62.786 87.9053C63.0247 87.9053 63.2352 87.8904 63.4358 87.8904C64.4162 87.8904 65.5684 87.9155 66.6537 87.9501C68.6973 88.0168 70.5076 88.1071 70.5076 88.1071L70.1945 86.4829" stroke="black" stroke-width="0.980065" stroke-linecap="round" stroke-linejoin="round"/>
<path d="M59.792 83.8806C59.792 83.8806 61.3333 83.5502 62.8464 83.3743C63.6041 83.259 64.3725 83.2392 65.1348 83.3154" stroke="black" stroke-width="0.980065" stroke-linecap="round" stroke-linejoin="round"/>
<path d="M60.6694 88.0928C60.6694 88.0928 59.993 91.5963 61.0327 92.9277C61.6151 93.5676 61.9538 94.4034 61.9865 95.2811C61.9865 95.2811 64.9269 93.4936 67.2647 93.5541C66.6892 92.5638 66.2849 91.4776 66.0699 90.3442C65.9726 89.9269 65.9742 89.4916 66.0745 89.075C66.1748 88.6585 66.3708 88.2731 66.646 87.9515" stroke="black" stroke-width="0.980065" stroke-linecap="round" stroke-linejoin="round"/>
<path d="M82.8315 74.3547C82.1307 73.542 81.3585 72.798 80.5249 72.1323" stroke="black" stroke-width="0.980065" stroke-linecap="round" stroke-linejoin="round"/>
<path d="M74.9766 74.2729C76.3199 75.039 77.4168 76.1944 78.1321 77.5966C78.221 77.789 78.3092 77.9891 78.3928 78.1846C79.2896 80.246 80.0496 82.5571 81.4525 83.8806C82.1459 84.6437 83.0278 85.1969 84.0031 85.4804L88.5714 82.0146C88.5714 82.0146 85.5314 80.5828 85.1917 78.3479V78.3086" stroke="black" stroke-width="0.980065" stroke-linecap="round" stroke-linejoin="round"/>
<path d="M20.0951 86.1272C19.6847 87.3706 19.3846 88.6499 19.1983 89.9494C18.9845 91.3242 18.8649 92.7129 18.8403 94.1052C18.8403 94.7748 18.8403 95.4758 18.8738 96.2019C19.1649 102.142 26.5232 101.182 26.5232 101.182" stroke="black" stroke-width="0.980065" stroke-linecap="round" stroke-linejoin="round"/>
<path d="M19.3809 71.972C21.2946 73.7845 22.537 76.2292 22.8943 78.8855C23.6908 83.6214 23.0927 87.2018 25.0292 89.4045" stroke="black" stroke-width="0.980065" stroke-linecap="round" stroke-linejoin="round"/>
<path d="M126.392 89.458C126.099 89.8104 125.9 90.236 125.817 90.6924C125.733 91.1488 125.766 91.6199 125.914 92.0587C126.208 92.7746 126.906 92.4237 127.755 92.0956C128.137 91.8803 128.565 91.7645 129 91.7581C129.436 91.7516 129.867 91.8548 130.255 92.0587C132.007 93.2087 131.587 96.1745 134.247 96.4633C136.908 96.7522 136.418 93.365 138.447 92.9622C139.341 92.7841 140.723 92.8437 141.93 92.7377C143.467 92.6043 144.722 92.2063 144.32 90.7226" stroke="black" stroke-width="0.980065" stroke-linecap="round" stroke-linejoin="round"/>
<path d="M125.741 64.6135C125.293 64.7453 124.875 64.9689 124.512 65.2708C124.149 65.5727 123.848 65.9469 123.628 66.3712C123.408 66.7954 123.272 67.2611 123.23 67.7405C123.187 68.2199 123.238 68.7032 123.38 69.1618C124.297 72.7375 129.191 70.7373 129.191 73.5523C129.191 76.3673 122.005 78.0213 122.005 82.8012C122.005 87.5811 129.535 83.7251 129.073 86.0111" stroke="black" stroke-width="0.980065" stroke-linecap="round" stroke-linejoin="round"/>
<path d="M119.822 82.152C119.822 82.152 117.614 88.0607 122.007 88.7593C126.401 89.458 119.822 93.3476 124.56 96.4806C129.298 99.6135 134.84 100.925 139.883 98.6362" stroke="black" stroke-width="0.980065" stroke-linecap="round" stroke-linejoin="round"/>
<path d="M141.93 70.0732C142.679 70.7147 143.287 71.5138 143.713 72.4173C144.139 73.3208 144.374 74.3077 144.401 75.3123C144.641 78.95 139.226 77.1469 140.753 81.2705C142.281 85.3941 146.641 81.3199 147.229 85.8486C147.816 90.3773 148.86 95.2906 141.927 96.4806" stroke="black" stroke-width="0.980065" stroke-linecap="round" stroke-linejoin="round"/>
<path d="M21.145 59.1987C26.6885 47.9253 37.8331 43.0159 46.5222 41.0455" stroke="black" stroke-width="0.980065" stroke-linecap="round" stroke-linejoin="round"/>
<path d="M138.077 103.567C138.122 108.73 127.733 125.945 105.656 129.456" stroke="black" stroke-width="0.980065" stroke-linecap="round" stroke-linejoin="round"/>
<path d="M48.0137 123.182C40.1583 124.715 20.6377 117.216 15.6514 104.722" stroke="black" stroke-width="0.980065" stroke-linecap="round" stroke-linejoin="round"/>
<path d="M115.771 41.441C128.357 42.7865 138.437 55.7791 139.881 67.1938" stroke="black" stroke-width="0.980065" stroke-linecap="round" stroke-linejoin="round"/>
<path d="M30.7876 110.137C30.7876 110.137 36.6115 115.076 42.5015 114.737C48.3915 114.399 56.8754 112.577 61.2241 114.051" stroke="black" stroke-width="0.980065" stroke-linecap="round" stroke-linejoin="round"/>
<path d="M9.76367 89.0012C11.0841 92.0437 11.7058 95.3603 11.5801 98.692C11.3004 103.994 11.0542 106.502 12.4526 108.021" stroke="black" stroke-width="0.980065" stroke-linecap="round" stroke-linejoin="round"/>
<path d="M25.73 119.155C30.5111 123.722 42.0616 126.735 46.0083 127.868C49.955 129.001 54.2315 132.239 58.2443 132.735" stroke="black" stroke-width="0.980065" stroke-linecap="round" stroke-linejoin="round"/>
<path d="M119.266 96.6533C119.266 99.4063 123.229 102.969 125.742 105.394C129.191 108.72 124.111 113.903 119.266 116.505" stroke="black" stroke-width="0.980065" stroke-linecap="round" stroke-linejoin="round"/>
<path d="M145.387 101.199C145.387 101.199 142.944 109.333 139.073 114.725C136.689 118.004 133.615 120.682 130.083 122.555" stroke="black" stroke-width="0.980065" stroke-linecap="round" stroke-linejoin="round"/>
<path d="M28.1201 56.5202C28.1201 56.5202 31.2825 51.6783 34.2396 50.3619C37.1968 49.0454 43.9099 50.5495 51.6642 47.5398" stroke="black" stroke-width="0.980065" stroke-linecap="round" stroke-linejoin="round"/>
<path d="M101.377 49.6727C102.644 50.111 104.01 50.1414 105.293 49.7599C106.577 49.3785 107.718 48.6032 108.566 47.5367C111.839 43.764 123.889 47.9567 127.826 52.9116" stroke="black" stroke-width="0.980065" stroke-linecap="round" stroke-linejoin="round"/>
<path d="M70.6426 81.1943C72.216 80.3255 73.8481 79.5755 75.5263 78.95C76.367 78.6296 77.2416 78.4132 78.1316 78.3055" stroke="black" stroke-width="0.980065" stroke-linecap="round" stroke-linejoin="round"/>
<path d="M74.4194 84.8163C74.9481 85.8743 75.7207 86.7818 76.669 87.4586" stroke="black" stroke-width="0.980065" stroke-linecap="round" stroke-linejoin="round"/>
<path d="M75.5454 79.0065C76.8003 79.865 77.8537 81.0021 78.6287 82.3349C80.1761 84.7817 83.1127 86.5943 84.1919 86.8094L82.8315 88.4123" stroke="black" stroke-width="0.980065" stroke-linecap="round" stroke-linejoin="round"/>
<path d="M91.7269 67.7394L90.938 70.698" stroke="black" stroke-width="0.980065" stroke-linecap="round" stroke-linejoin="round"/>
<path d="M83.6465 70.8904C83.7468 70.9226 86.78 71.9054 87.5407 73.6065L89.0987 70.1666C89.0987 70.1666 89.9241 70.4139 90.9417 70.6981C91.7982 70.9446 92.7878 71.2115 93.5379 71.3944C95.1856 71.7963 102.132 71.3944 102.132 71.3944L101.009 76.5031L100.769 77.5967C100.769 77.5967 99.225 77.7223 97.901 77.6956C97.4721 77.6964 97.0437 77.6633 96.6197 77.5967" stroke="black" stroke-width="0.980065" stroke-linecap="round" stroke-linejoin="round"/>
<path d="M97.8968 77.697L96.6162 82.0145C97.9852 82.2881 99.371 82.463 100.764 82.5381" stroke="black" stroke-width="0.980065" stroke-linecap="round" stroke-linejoin="round"/>
<path d="M101.222 76.5549C102.935 76.8192 104.668 76.9068 106.398 76.8163C108.231 76.5393 110.034 76.0779 111.781 75.4386L112.18 80.377C110.993 80.9988 109.686 81.3363 108.356 81.3646" stroke="black" stroke-width="0.980065" stroke-linecap="round" stroke-linejoin="round"/>
<path d="M63.3591 84.9191C63.4069 84.8359 63.4329 84.7414 63.4348 84.6447C63.4366 84.548 63.4142 84.4524 63.3696 84.3673C63.3251 84.2823 63.26 84.2106 63.1806 84.1592C63.1012 84.1079 63.0103 84.0787 62.9168 84.0745H62.8712C62.1325 83.996 61.9151 85.0871 62.7731 85.5416L62.8233 85.5683C63.6525 86.0393 63.7437 86.9515 62.8993 86.9986H62.7724C62.6235 87.005 62.4782 86.9501 62.3684 86.8461C62.2586 86.7421 62.1931 86.5973 62.1864 86.4436C62.1842 86.3808 62.1916 86.318 62.2085 86.2575" stroke="black" stroke-width="0.980065" stroke-linecap="round" stroke-linejoin="round"/>
<path d="M62.8833 83.7079L62.8711 84.0706L62.8232 85.5644L62.7753 86.9939L62.7632 87.3691" stroke="black" stroke-width="0.980065" stroke-linecap="round" stroke-linejoin="round"/>
<path d="M72.8781 76.569C72.8466 76.4778 72.7927 76.3966 72.7217 76.3335C72.6507 76.2703 72.5649 76.2273 72.4729 76.2086C72.3809 76.19 72.2858 76.1965 72.197 76.2273C72.1081 76.2582 72.0285 76.3123 71.9661 76.3846C71.9537 76.3947 71.9424 76.4063 71.9326 76.4191C71.4006 76.9521 72.0846 77.8211 72.9655 77.4262L73.0179 77.4066C73.898 77.0463 74.6367 77.5519 74.1344 78.2505C74.11 78.2865 74.0828 78.3204 74.053 78.3518C73.9994 78.4251 73.9298 78.4842 73.8498 78.5244C73.7698 78.5646 73.6817 78.5847 73.5928 78.583C73.5039 78.5813 73.4166 78.5579 73.338 78.5147C73.2595 78.4715 73.192 78.4098 73.141 78.3345" stroke="black" stroke-width="0.980065" stroke-linecap="round" stroke-linejoin="round"/>
<path d="M71.668 76.1766L71.9332 76.4192L73.0185 77.4067L74.0536 78.3519L74.3287 78.6015" stroke="black" stroke-width="0.980065" stroke-linecap="round" stroke-linejoin="round"/>
<path d="M61.5105 88.7821C61.3207 89.7083 61.3207 90.6654 61.5105 91.5916C61.6608 92.2166 61.9516 92.7962 62.3595 93.2833L65.1373 92.3413" stroke="black" stroke-width="0.980065" stroke-linecap="round" stroke-linejoin="round"/>
<path d="M48.6665 76.3077C48.6665 76.3077 51.9626 76.4114 52.8214 76.9624" stroke="black" stroke-width="0.980065" stroke-linecap="round" stroke-linejoin="round"/>
<path d="M54.5278 85.8139L57.8202 85.8924C58.0788 84.9048 58.4304 83.9457 58.8697 83.0287C59.1386 82.54 59.4473 82.0757 59.7924 81.6409" stroke="black" stroke-width="0.980065" stroke-linecap="round" stroke-linejoin="round"/>
<path d="M47.3896 81.3522L48.272 83.8807C48.272 83.8807 49.944 83.5667 51.499 83.266" stroke="black" stroke-width="0.980065" stroke-linecap="round" stroke-linejoin="round"/>
<path d="M80.1685 80.3104C80.1685 80.3104 82.1027 83.3939 83.0732 83.7079" stroke="black" stroke-width="0.980065" stroke-linecap="round" stroke-linejoin="round"/>
<path d="M90.6387 71.8951C91.9819 72.3711 93.3794 72.6643 94.7959 72.7673C96.4884 72.7673 100.514 72.5765 100.514 72.5765L99.7252 76.5549" stroke="black" stroke-width="0.980065" stroke-linecap="round" stroke-linejoin="round"/>
<path d="M102.128 77.697C103.315 77.8747 104.515 77.9448 105.714 77.9066C107.431 77.6716 109.13 77.3061 110.796 76.8131V79.3369" stroke="black" stroke-width="0.980065" stroke-linecap="round" stroke-linejoin="round"/>
<path d="M35.4595 75.5424L33.3315 76.3077L36.4513 79.6958" stroke="black" stroke-width="0.980065" stroke-linecap="round" stroke-linejoin="round"/>
<path d="M39.855 95.7129C40.5524 96.4222 41.0988 97.274 41.4593 98.2139C41.8675 99.5249 48.6664 101.236 48.6664 101.236L50.7435 99.9401" stroke="black" stroke-width="0.980065" stroke-linecap="round" stroke-linejoin="round"/>
<path d="M76.2817 94.9247C77.233 94.5676 78.2755 94.5676 79.2267 94.9247C80.8987 95.515 86.1975 95.6658 88.6097 94.9671L89.8667 92.0626" stroke="black" stroke-width="0.980065" stroke-linecap="round" stroke-linejoin="round"/>
<path d="M106.459 87.95C106.672 86.769 107.217 85.679 108.026 84.8163C109.4 83.3075 112.18 82.3349 112.18 82.3349L114.602 80.9815L113.739 75.3029" stroke="black" stroke-width="0.980065" stroke-linecap="round" stroke-linejoin="round"/>
<path d="M86.2861 85.4804L88.6102 83.5721L90.6394 81.6284L94.1248 81.8859" stroke="black" stroke-width="0.980065" stroke-linecap="round" stroke-linejoin="round"/>
<path d="M103.032 75.3122V71.0975L102.128 69.668C102.128 69.668 102.57 68.8508 104.697 69.0212C106.825 69.1915 111.747 69.0212 111.747 69.0212L109.431 64.5294" stroke="black" stroke-width="0.980065" stroke-linecap="round" stroke-linejoin="round"/>
<path d="M45.3008 81.6316L47.2228 86.8063L51.4993 85.8902" stroke="black" stroke-width="0.980065" stroke-linecap="round" stroke-linejoin="round"/>
<path d="M59.7922 92.3445C59.6901 93.2439 59.8419 94.1547 60.2292 94.9672C60.8531 95.9743 61.36 96.965 61.36 96.965L65.749 95.4335" stroke="black" stroke-width="0.980065" stroke-linecap="round" stroke-linejoin="round"/>
<path d="M54.1982 43.5591C54.1982 43.5591 56.7017 46.9864 56.5292 48.0038C56.3566 49.0211 56.1013 50.1327 56.1013 50.1327" stroke="black" stroke-width="0.980065" stroke-linecap="round" stroke-linejoin="round"/>
</svg>
