<svg width="152" height="158" viewBox="0 0 152 158" fill="none" xmlns="http://www.w3.org/2000/svg">
<path d="M114.929 79.1334L118.394 75.3732L78.9381 34.985L52.8906 61.2746L12.0073 18.5L27.8623 19.4342L53.1775 45.6217L78.7946 19.2614L126.269 68.1669L132.4 61.3061L137.76 88.2943L117.3 83.5844C116.69 82.004 115.894 80.5088 114.929 79.1334Z" fill="#81F8F8"/>
<path d="M114.279 115.495C117.204 113.297 119.412 110.22 120.606 106.679C121.686 103.264 121.361 100.493 120.87 96.1915C120.329 91.8192 119.124 87.5639 117.299 83.5844C116.076 80.6328 115.08 78.9294 113.426 77.4693C112.357 76.5344 111.141 75.7963 109.832 75.287C110.133 75.9001 110.311 76.5705 110.355 77.2574C110.4 77.9443 110.309 78.6333 110.089 79.2826C109.16 81.5984 106.427 82.2185 104.804 82.1714C101.912 82.0851 99.5795 79.7458 98.447 77.587C96.7029 74.2665 98.447 72.4924 96.937 66.9503C95.2725 61.234 91.8177 56.2603 87.122 52.8203C87.5146 56.8395 86.2386 60.2935 83.9208 61.4553C80.9008 62.8918 77.2994 59.9402 75.9782 58.8648C67.1824 51.6742 69.2134 34.9144 69.7343 31.3113C68.9218 34.6841 67.7016 37.9364 66.1028 40.9903C61.9352 48.9424 58.666 48.7304 57.0428 54.4766C55.903 59.3544 55.5787 64.3996 56.0839 69.3916C56.2274 70.8596 56.5973 73.7248 54.9741 75.3419C54.4949 75.7694 53.935 76.088 53.3304 76.2772C52.7258 76.4665 52.0899 76.5223 51.4633 76.4409C49.2738 76.174 47.3788 74.2115 46.7219 71.5033C46.1011 76.1059 44.3743 80.4716 41.7012 84.1967C37.3977 90.0136 33.668 89.6446 30.6178 94.9905C30.3535 95.4615 25.5366 104.277 29.9836 112.512C33.8794 119.742 41.8748 120.895 42.8639 121.021C42.8639 121.021 42.6374 117.222 42.6374 117.198C44.2455 116.931 49.757 116.044 50.882 115.871C50.5197 113.698 50.5197 111.475 50.882 109.301L52.6185 109.913L52.1655 106.899C51.0607 106.497 49.9879 106.007 48.9567 105.431C48.6446 103.374 48.473 101.296 48.4433 99.2138C53.381 98.0049 58.4622 96.5526 63.0073 95.0847C62.0542 94.0826 61.4012 92.8146 61.1273 91.4344C60.5837 88.6006 62.1164 86.0807 63.8227 83.3097C66.0877 79.6437 67.2428 79.4946 68.1337 77.0768C68.9088 74.7416 68.9379 72.2086 68.2168 69.8548C69.8395 71.2641 71.1303 73.0411 71.9902 75.0496C72.85 77.058 73.256 79.2445 73.1771 81.4414C74.6231 81.3881 75.9901 80.7426 76.9801 79.6456C77.9702 78.5485 78.5029 77.089 78.4621 75.5853C79.7323 76.0891 80.8944 76.8484 81.8821 77.8196C82.8698 78.7908 83.6637 79.9549 84.2183 81.2454C84.773 82.5358 85.0775 83.9273 85.1146 85.3402C85.1516 86.7532 84.9204 88.1598 84.4342 89.4798L98.0242 94.2761C98.145 96.762 98.2733 99.2504 98.4092 101.741L102.033 102.385C102.003 104.714 101.968 107.045 101.928 109.38L98.5753 110.95L104.434 112.834L104.615 114.576C107.93 114.765 110.293 114.984 114.279 115.495Z" fill="#FFD997"/>
<path d="M63.4604 94.9512C65.9446 94.4999 68.3799 93.7953 70.7311 92.8474C75.5102 95.2024 80.463 97.4789 85.4385 99.5827C85.7771 101.448 85.9389 103.344 85.9217 105.243C83.4226 106.098 80.9236 106.813 78.2962 107.441C78.1455 105.182 78.1455 102.916 78.2962 100.658C73.5699 98.994 68.6548 97.1257 63.4604 94.9512Z" fill="#81F8F8"/>
<path d="M53.2983 131.399C51.7307 132.575 49.9959 133.489 48.1567 134.107C48.1114 136.203 47.968 138.613 47.7264 140.968C45.5553 140.375 43.4461 139.56 41.4297 138.534C41.5267 136.329 41.7333 134.131 42.0488 131.948C44.4874 131.163 46.843 130.308 49.7724 129.13L53.2983 131.399Z" fill="#81F8F8"/>
<path d="M104.185 123.792C98.4773 125.888 92.9205 127.639 87.5223 129.091C87.3562 128.439 87.1674 127.788 86.9636 127.128H66.1633C65.7556 128.887 65.1667 131.053 64.5552 132.953H88.1565L88.8209 136.384C89.6287 137.043 90.5045 137.75 91.4105 138.37C91.8443 136.494 92.187 134.597 92.4373 132.686C96.1066 131.297 107.666 127.097 109.697 126.406C107.769 125.757 105.92 124.88 104.185 123.792Z" fill="#81F8F8"/>
<path d="M64.9858 110.667L64.8726 112.92C67.3674 113.359 69.8922 113.59 72.4226 113.611C72.4226 111.946 72.483 110.557 72.483 108.901L64.9858 110.667Z" fill="#81F8F8"/>
<path d="M90.1573 149.776L93.4944 150.451C93.6076 147.892 93.8266 145.081 94.1361 142.35L95.6461 140.976L92.5129 138.974L89.6816 140.772C90.1044 142.389 90.5348 144.006 90.9576 145.623C90.8557 147.036 90.5869 148.431 90.1573 149.776Z" fill="#81F8F8"/>
<path d="M145.234 75.5696C145.174 68.379 144.547 42.8508 144.925 37.4186C145.619 27.4962 144.925 4.70768 144.925 4.44863C144.924 4.4098 144.916 4.37156 144.9 4.33617C144.885 4.30079 144.863 4.26898 144.835 4.24263C144.808 4.21628 144.775 4.19592 144.74 4.18277C144.705 4.16961 144.668 4.16392 144.63 4.16603C144.427 4.16603 124.245 5.19438 110.142 4.58208C95.8801 4.00118 65.2045 4.43293 50.4065 4.19743C23.8078 3.77353 6.72971 4.19743 6.56361 4.19743C6.49487 4.2052 6.43135 4.2392 6.38533 4.29285C6.3393 4.3465 6.31405 4.41599 6.31446 4.48788V98.6879C6.31446 98.7271 6.32188 98.7658 6.3363 98.802C6.35072 98.8382 6.37185 98.8711 6.39849 98.8988C6.42513 98.9265 6.45676 98.9485 6.49157 98.9635C6.52637 98.9785 6.56368 98.9862 6.60136 98.9862H28.7229C27.6961 102.424 27.0317 107.66 29.7195 112.684C33.2302 119.208 40.0177 120.888 42.1241 121.264C32.9962 123.949 30.6934 124.295 30.0441 124.522C29.9158 124.569 29.8176 124.624 29.795 124.766C29.7723 124.907 29.7195 127.003 29.7195 127.544C29.7195 129.036 29.7195 130.551 29.7874 132.058C25.1493 132.168 20.5335 132.76 16.0087 133.824C15.948 133.841 15.894 133.878 15.8546 133.928C15.8152 133.979 15.7925 134.042 15.7897 134.107C15.7897 134.272 16.2427 135.842 16.4994 138.032C16.8769 141.36 16.4994 141.737 16.8392 141.957C22.7439 145.266 28.9931 147.863 35.465 149.697C35.7066 149.791 46.9033 147.931 58.6662 144.736C58.7261 144.716 58.7786 144.678 58.8165 144.626C58.8544 144.574 58.8757 144.511 58.8776 144.446V143.841L60.0931 144.029C59.542 145.458 59.5269 145.419 59.5722 145.599C60.38 147.928 61.4361 150.156 62.7205 152.241C62.7432 152.277 62.7731 152.308 62.8083 152.331C62.8435 152.354 62.8831 152.368 62.9244 152.374C71.7574 153.647 80.7228 153.557 89.5306 152.107C89.5788 152.099 89.6243 152.078 89.6626 152.046C89.7009 152.015 89.7308 151.974 89.7495 151.927C89.9685 151.354 90.1723 150.78 90.346 150.192C94.876 151.102 90.2327 150.09 110.293 153.818C110.333 153.825 110.374 153.823 110.413 153.812C110.452 153.801 110.488 153.782 110.52 153.756C115.518 151.157 120.689 148.779 125.952 146.691C126.023 146.66 126.08 146.6 126.11 146.526C126.835 144.642 127.436 142.709 127.907 140.74C130.302 139.81 132.582 138.59 134.702 137.106C134.756 137.069 134.796 137.013 134.815 136.949C135.524 134.61 135.903 132.178 135.94 129.727C135.942 129.659 135.92 129.592 135.88 129.538C135.846 129.495 135.802 129.463 135.752 129.444C133.986 129.359 132.259 128.883 130.686 128.047C131.033 124.932 130.934 121.782 130.391 118.698C130.381 118.647 130.358 118.6 130.325 118.562C130.292 118.523 130.249 118.494 130.202 118.478C125.208 117.138 120.14 116.11 115.027 115.401C117.755 113.229 119.801 110.265 120.908 106.883C121.662 104.344 121.861 101.662 121.49 99.0333H144.706C144.779 99.0333 144.849 99.0038 144.901 98.951C144.953 98.8982 144.983 98.8263 144.985 98.7507C144.948 98.4995 145.318 82.6189 145.234 75.5696ZM42.6224 121.728V122.411C41.1038 123.104 39.5198 123.63 37.8961 123.981C37.855 123.989 37.8163 124.006 37.7826 124.032C37.749 124.058 37.7214 124.091 37.7019 124.13C37.6823 124.168 37.6713 124.211 37.6696 124.254C37.6679 124.298 37.6757 124.341 37.6923 124.381C37.8982 124.874 37.9356 125.426 37.7983 125.944C37.6609 126.463 37.3571 126.916 36.9373 127.23C36.8999 127.257 36.8693 127.293 36.8482 127.335C36.8271 127.376 36.8161 127.423 36.8161 127.47C36.8161 127.517 36.8271 127.563 36.8482 127.605C36.8693 127.647 36.8999 127.683 36.9373 127.709C38.9572 129.095 41.1105 130.258 43.3623 131.179L42.0109 131.634C37.9962 129.891 34.1947 127.66 30.6859 124.985C34.7327 123.965 38.5983 122.921 42.6224 121.728ZM68.7077 70.7026C70.089 72.0852 71.1752 73.7543 71.8958 75.6017C72.6164 77.4491 72.9552 79.4334 72.8904 81.4257C72.8882 81.4665 72.8943 81.5074 72.9083 81.5455C72.9223 81.5837 72.944 81.6184 72.9717 81.6473C72.9995 81.6762 73.0329 81.6986 73.0696 81.7132C73.1063 81.7278 73.1456 81.7342 73.1848 81.7319C74.6327 81.6748 76.0074 81.0553 77.0376 79.9959C78.0677 78.9364 78.6784 77.514 78.7492 76.0092C80.7463 76.9216 82.4159 78.4653 83.5208 80.4209C84.2138 81.7629 84.6338 83.2387 84.7546 84.7567C84.8753 86.2747 84.6944 87.8022 84.2229 89.2443C81.9579 88.5064 82.0259 88.53 81.9051 88.5849C78.2312 90.1396 74.4663 91.4506 70.6329 92.5099C68.2985 93.4482 65.8809 94.1449 63.4151 94.5902L63.0829 94.7001C62.2632 93.7831 61.6926 92.6561 61.4295 91.4345C60.9236 88.6399 62.4563 86.1514 64.0795 83.5138C66.3445 79.9028 67.5148 79.6987 68.4208 77.2338C69.1328 75.1445 69.2326 72.8824 68.7077 70.734V70.7026ZM105.008 116.083C110.085 116.363 115.116 117.226 120.01 118.658C119.709 118.847 119.481 119.14 119.365 119.485C119.249 119.831 119.253 120.207 119.376 120.55L113.774 122.991C112.591 122.43 111.257 122.312 110 122.658C108.743 123.005 107.64 123.794 106.88 124.891L102.819 122.882L104.548 122.175C104.594 122.155 104.634 122.123 104.664 122.081C104.695 122.04 104.714 121.991 104.721 121.94C104.985 120.011 105.081 118.061 105.008 116.115V116.083ZM109.666 126.657C111.259 127.544 117.919 130.841 119.564 131.626C114.038 133.613 108.602 135.732 102.645 138.268L93.1244 132.773C96.5823 131.422 107.673 127.387 109.666 126.689V126.657ZM101.452 145.497C98.5834 142.56 95.3082 140.087 91.7352 138.158C92.1353 136.391 92.4298 134.759 92.6563 133.094L102.267 138.676C101.575 140.893 101.296 143.227 101.444 145.552L101.452 145.497ZM97.2391 142.475L94.7854 142.098L95.6687 141.313C96.1972 141.729 96.7257 142.122 97.2391 142.53V142.475ZM91.9541 138.935L89.8779 140.254C89.6438 139.194 89.4249 138.095 89.2437 137.035C89.9534 137.6 91.2444 138.542 91.2973 138.605L91.9541 138.935ZM92.3543 132.341C91.9692 132.482 92.3543 132.992 91.2444 137.836C90.6329 137.396 89.8024 136.768 89.0927 136.172C88.8234 133.841 88.4201 131.529 87.8847 129.248C93.7133 127.678 98.8926 125.99 104.17 124.067C105.65 124.973 107.21 125.73 108.828 126.328C103.981 128.078 98.0998 130.221 92.3392 132.396L92.3543 132.341ZM83.4981 133.22H85.7631L87.0391 141.549C86.0289 141.466 85.0171 141.687 84.1242 142.185C83.2314 142.683 82.4952 143.438 82.0032 144.359C77.2298 144.772 72.4316 144.772 67.6582 144.359C67.3157 143.551 66.7774 142.849 66.0959 142.322C65.4143 141.795 64.6129 141.461 63.77 141.353L66.1482 133.22H67.7715C68.7292 134.418 69.9279 135.382 71.283 136.046C72.6382 136.71 74.1169 137.057 75.6149 137.062C77.1129 137.067 78.5938 136.731 79.9532 136.076C81.3126 135.422 82.5175 134.466 83.483 133.275L83.4981 133.22ZM68.5944 133.22H82.728C81.8291 134.238 80.7375 135.051 79.5217 135.609C78.306 136.166 76.9924 136.457 75.6636 136.461C74.3347 136.465 73.0194 136.184 71.8002 135.634C70.5811 135.085 69.4844 134.279 68.5793 133.267L68.5944 133.22ZM67.8394 132.631H64.978C64.978 132.545 65.8387 129.837 66.4125 127.395H86.7975C87.3243 129.109 87.738 130.859 88.0357 132.631C70.5876 132.78 67.93 132.631 67.8092 132.678L67.8394 132.631ZM49.4174 118.164C50.553 117.988 51.6452 117.586 52.6337 116.978C57.3223 118.958 62.1709 120.5 67.1222 121.586C67.0165 122.144 66.8957 122.709 66.7749 123.274C64.2758 124.004 61.6258 124.844 59.2249 125.7C58.7841 125.169 58.1961 124.794 57.5417 124.625C56.8873 124.457 56.1987 124.503 55.5707 124.758C53.4205 123.441 51.3978 121.911 49.5307 120.189C49.6581 119.864 49.7141 119.513 49.6945 119.163C49.6749 118.813 49.5803 118.471 49.4174 118.164ZM68.9795 113.713C74.6722 114.058 79.9194 114.207 84.7363 114.231C84.9152 118.494 85.5534 122.723 86.6389 126.838H85.4838C84.8873 123.973 84.3664 120.856 83.9738 117.944C83.9655 117.89 83.9437 117.839 83.9106 117.796C83.8775 117.753 83.8342 117.72 83.785 117.701C82.6293 117.299 81.6424 116.495 80.9915 115.424C80.833 115.165 80.9915 115.377 76.4011 115.377C75.3139 115.377 74.1965 115.338 73.0791 115.291C73.0115 115.293 72.9464 115.318 72.8934 115.362C72.8405 115.406 72.8023 115.466 72.7847 115.534C72.6668 116.335 72.2754 117.066 71.6821 117.592C71.0887 118.118 70.3331 118.405 69.5533 118.399C69.4857 118.4 69.4206 118.426 69.3695 118.472C69.3184 118.518 69.2846 118.581 69.2739 118.65C68.8939 121.448 68.2204 124.193 67.2656 126.838H66.5484C67.6291 122.522 68.4411 118.138 68.9795 113.713ZM65.2045 112.669L65.2951 110.91C67.7941 110.408 69.8251 109.937 72.2109 109.34V113.265C69.866 113.212 67.5263 113.013 65.2045 112.669ZM57.1713 98.3189C60.0056 97.7526 62.8082 97.0267 65.5669 96.1445C69.1154 97.5889 72.3619 98.837 75.4725 99.9596C73.198 100.319 70.9627 100.908 68.7983 101.718C68.0088 101.092 67.0432 100.752 66.0501 100.752C65.0569 100.752 64.0913 101.092 63.3019 101.718C61.2213 101.113 59.183 100.36 57.2015 99.465C57.2992 99.2899 57.3481 99.0899 57.3428 98.8875C57.3375 98.6851 57.2781 98.4882 57.1713 98.3189ZM72.3694 98.1776C69.7873 97.2042 67.3185 96.2308 64.4721 95.0376C66.6025 94.5908 68.6935 93.9607 70.7235 93.1536C75.2988 95.4066 80.2063 97.6674 85.1893 99.779C85.4955 101.506 85.6472 103.259 85.6423 105.015C83.3773 105.8 81.067 106.467 78.5529 107.064C78.5 106.028 78.4774 104.976 78.4849 103.924C78.4849 101.679 78.6435 100.697 78.5982 100.533C78.5529 100.368 78.7114 100.564 72.3694 98.1776ZM90.731 95.7598C88.3282 97.046 85.7267 97.883 83.0451 98.2326C81.7012 97.6517 75.1554 94.6687 73.2905 93.7659C75.5782 93.138 77.8069 92.2973 79.9496 91.2539C80.6008 91.6681 81.3493 91.8873 82.1127 91.8873C82.876 91.8873 83.6246 91.6681 84.2758 91.2539C86.1303 91.8288 87.9441 92.537 89.7042 93.3734C89.6295 93.8322 89.6871 94.3037 89.8699 94.7284C90.0526 95.1531 90.3523 95.512 90.731 95.7598ZM95.4498 103.657L88.1187 106.389C87.6046 106.129 87.0406 105.994 86.469 105.994C85.8975 105.994 85.3334 106.129 84.8194 106.389L83.7473 106.247C89.5079 104.465 89.742 104.63 95.5479 102.77C95.4222 103.046 95.3877 103.358 95.4498 103.657ZM85.9594 108.759V115.824H85.3479C85.3101 115.196 85.2724 114.568 85.2497 113.94C85.2459 113.865 85.2151 113.795 85.1633 113.742C85.1115 113.69 85.0426 113.66 84.9704 113.658C80.9311 113.658 76.8239 113.54 72.7394 113.344V109.23C74.5816 108.775 76.4011 108.296 78.1527 107.802C80.7261 108.338 83.3367 108.658 85.9594 108.759ZM86.2388 116.397C86.3445 116.397 85.8764 116.578 97.3524 111.687L97.6166 112.363C97.1315 112.407 96.674 112.616 96.315 112.958C95.956 113.3 95.7155 113.756 95.631 114.254L85.4989 117.551C85.4989 117.175 85.4234 116.766 85.3932 116.405L86.2388 116.397ZM68.8738 126.838H67.8923C68.789 124.296 69.4366 121.666 69.8251 118.988C70.6526 118.944 71.4432 118.618 72.075 118.06C72.7067 117.503 73.1445 116.745 73.3207 115.903C75.7971 116.013 78.198 116.005 80.6291 115.903C81.316 116.963 82.3067 117.77 83.4604 118.211C83.8228 121.029 84.3211 124.036 84.9024 126.846H83.1886C79.5495 121.194 72.4374 121.563 68.836 126.838H68.8738ZM82.4638 126.838H69.5382C72.8828 122.363 79.0134 121.947 82.4638 126.838ZM88.3452 128.549C92.0674 127.152 101.226 123.549 102.048 123.219L103.362 123.769C98.4924 125.535 93.6529 127.089 88.3452 128.549ZM85.5895 118.533V118.124L96.0009 114.733C96.0544 114.717 96.102 114.685 96.1371 114.64C96.1722 114.595 96.1932 114.54 96.1972 114.482C96.217 114.252 96.2806 114.029 96.3843 113.825C96.4881 113.621 96.6298 113.441 96.8014 113.295C96.9729 113.149 97.1707 113.04 97.3833 112.974C97.5959 112.908 97.8189 112.887 98.0394 112.912C98.0879 112.916 98.1365 112.906 98.1806 112.885C98.2247 112.864 98.2628 112.831 98.2915 112.791C98.3202 112.75 98.3384 112.702 98.3445 112.652C98.3506 112.602 98.3443 112.551 98.3263 112.504L97.9111 111.436L98.4245 111.216C100.046 111.904 101.714 112.466 103.415 112.896C98.0017 114.749 91.6295 116.759 85.5895 118.533ZM86.1784 108.179C83.9323 108.1 81.6945 107.856 79.4815 107.448C80.4404 107.213 81.4068 106.954 82.3656 106.663C84.9477 107.009 84.8722 107.025 84.9779 106.962C85.4375 106.714 85.9476 106.585 86.4653 106.585C86.9829 106.585 87.493 106.714 87.9526 106.962C88.1187 107.048 87.56 107.237 95.865 104.112C95.9356 104.086 95.9934 104.031 96.0259 103.961C96.0584 103.89 96.0629 103.809 96.0387 103.735C95.953 103.48 95.9666 103.2 96.0766 102.955C96.1866 102.71 96.3843 102.52 96.6276 102.424L97.4958 102.134L101.014 102.652C96.0236 104.465 91.0934 106.295 86.1935 108.179H86.1784ZM85.4234 99.2688L84.0266 98.6722C86.626 98.222 89.1346 97.3225 91.4483 96.011C91.4985 95.9886 91.5413 95.9514 91.5713 95.904C91.6014 95.8565 91.6174 95.8009 91.6174 95.7441C91.6174 95.6873 91.6014 95.6318 91.5713 95.5843C91.5413 95.5369 91.4985 95.4996 91.4483 95.4772C91.0241 95.3293 90.67 95.0188 90.4582 94.609C90.2464 94.1992 90.1928 93.7209 90.3082 93.2714C90.327 93.2045 90.3222 93.1329 90.2944 93.0695C90.2667 93.0061 90.218 92.9552 90.1572 92.926C88.2646 92.0153 86.3086 91.2543 84.306 90.6495C84.269 90.6328 84.2292 90.6243 84.1889 90.6243C84.1487 90.6243 84.1088 90.6328 84.0719 90.6495C83.4863 91.0522 82.7997 91.267 82.0976 91.267C81.3955 91.267 80.7089 91.0522 80.1233 90.6495C79.8439 90.4611 79.7609 90.83 76.6654 92.0154C75.2932 92.5419 73.8943 92.99 72.4751 93.3577L71.5389 92.9024C75.103 91.8782 78.6049 90.6331 82.0259 89.1737C86.9258 90.7044 92.1957 92.5256 97.2618 94.4881C93.4116 96.3067 89.4698 97.9079 85.4536 99.2845L85.4234 99.2688ZM63.4227 95.2653L64.6835 95.7912C61.9687 96.6361 59.2113 97.3253 56.4238 97.8558C56.3641 97.8738 56.3116 97.9114 56.2743 97.9631C56.2369 98.0148 56.2167 98.0777 56.2167 98.1423C56.2167 98.2069 56.2369 98.2698 56.2743 98.3215C56.3116 98.3732 56.3641 98.4109 56.4238 98.4288C56.5112 98.458 56.5892 98.5116 56.6492 98.5839C56.7091 98.6562 56.7487 98.7443 56.7635 98.8385C56.7784 98.9327 56.7679 99.0293 56.7333 99.1177C56.6986 99.2061 56.6412 99.2828 56.5673 99.3394C56.525 99.3684 56.4911 99.4087 56.4692 99.4561C56.4472 99.5036 56.4381 99.5563 56.4428 99.6087C56.4474 99.6611 56.4657 99.7112 56.4956 99.7536C56.5255 99.7961 56.5659 99.8293 56.6126 99.8497C58.7732 100.846 61.0014 101.675 63.2792 102.33C63.3233 102.341 63.3691 102.342 63.4134 102.332C63.4578 102.323 63.4996 102.303 63.5359 102.275C64.2459 101.673 65.134 101.345 66.0501 101.345C66.9662 101.345 67.8542 101.673 68.5642 102.275C68.6024 102.306 68.6471 102.326 68.6945 102.334C68.7419 102.342 68.7904 102.338 68.836 102.322C71.3579 101.365 73.9773 100.711 76.6427 100.376L77.3977 100.635C73.2507 101.916 69.008 102.836 64.7137 103.382C62.1392 102.676 52.0599 99.8497 49.6137 99.151C55.8727 97.738 59.4287 96.5134 63.0678 95.3909L63.4227 95.2653ZM64.6835 111.059L64.608 112.629C60.6254 111.995 56.6973 111.034 52.8602 109.756L52.5129 107.401C56.4692 108.941 60.5328 110.164 64.6684 111.059H64.6835ZM64.3664 103.924C64.1139 106.073 64.0886 108.245 64.2909 110.4C59.1467 109.226 54.1174 107.563 49.2664 105.431C48.9323 103.482 48.7505 101.508 48.7228 99.5278C53.8266 100.972 59.2249 102.487 64.3664 103.892V103.924ZM68.3755 113.697C68.0886 116.107 67.7035 118.619 67.2354 121.037C61.7083 119.833 56.3127 118.05 51.1313 115.715C50.8784 113.735 50.8784 111.729 51.1313 109.749C56.7136 111.746 62.5007 113.06 68.3755 113.666V113.697ZM51.9618 116.727C51.0023 117.244 49.9569 117.567 48.8814 117.677C48.8277 117.68 48.7762 117.7 48.7329 117.733C48.6897 117.766 48.6565 117.811 48.6373 117.864C48.6182 117.916 48.614 117.973 48.6251 118.027C48.6363 118.082 48.6623 118.132 48.7002 118.172C48.9357 118.436 49.0862 118.77 49.1309 119.127C49.1755 119.484 49.1121 119.847 48.9493 120.165C48.9233 120.224 48.9158 120.29 48.928 120.354C48.9402 120.417 48.9715 120.475 49.0173 120.519C50.991 122.357 53.1386 123.982 55.4272 125.37C55.4674 125.39 55.5112 125.4 55.5556 125.4C55.5999 125.4 55.6437 125.39 55.6839 125.37C56.2407 125.113 56.8647 125.058 57.4551 125.215C58.0455 125.371 58.5679 125.73 58.938 126.234C58.9729 126.282 59.0215 126.318 59.077 126.336C59.1325 126.354 59.1921 126.354 59.2475 126.336C61.5805 125.503 64.223 124.648 66.6314 123.941L66.4276 124.86C63.8484 125.645 61.3107 126.57 58.8247 127.631C53.1193 125.166 47.8557 121.715 43.2566 117.426L50.8066 116.201L51.9618 116.727ZM55.1026 132.867C56.3861 133.636 57.6721 134.382 58.9606 135.104C59.0118 135.147 59.0758 135.171 59.1418 135.171C59.2078 135.171 59.2718 135.147 59.323 135.104L59.6552 134.963C59.5876 135.104 59.532 135.251 59.4891 135.402C56.5155 135.209 53.5962 134.484 50.8595 133.259L51.1539 133.11C51.7415 133.545 52.4557 133.755 53.1754 133.705C53.8951 133.655 54.5759 133.348 55.1026 132.835V132.867ZM51.7353 132.82C52.2789 132.498 52.8074 132.145 53.3208 131.768L54.5892 132.553C54.1906 132.884 53.7057 133.084 53.197 133.126C52.6882 133.168 52.1791 133.05 51.7353 132.788V132.82ZM59.7005 136.03C59.7695 136.033 59.8373 136.011 59.8914 135.966C59.9455 135.921 59.9823 135.858 59.995 135.787C60.0401 135.486 60.159 135.202 60.3402 134.963C60.5213 134.724 60.7587 134.537 61.0293 134.421C64.155 133.047 64.1399 133.126 64.2154 133.087C63.7121 134.395 63.2238 135.703 62.7507 137.012C58.1533 136.302 53.5984 135.322 49.1079 134.076C49.4778 133.934 49.8629 133.77 50.2026 133.605C53.1975 135.011 56.4187 135.823 59.7005 135.999V136.03ZM58.5454 128.18L58.8474 134.398C53.4571 131.369 48.2732 127.959 43.3321 124.193L42.9546 117.999C47.5713 122.256 52.8411 125.679 58.5454 128.125V128.18ZM49.1607 129.083C48.1415 129.491 45.8689 130.347 45.8085 130.37C45.561 130.156 45.3698 129.88 45.2526 129.567C45.1354 129.255 45.096 128.917 45.1382 128.585C45.1804 128.253 45.3028 127.937 45.4939 127.667C45.685 127.398 45.9387 127.183 46.2313 127.042C46.9939 127.544 48.9493 128.887 49.1607 129.028V129.083ZM45.7179 126.673C45.4078 126.872 45.144 127.14 44.9457 127.458C44.7473 127.776 44.6194 128.136 44.571 128.511C44.5226 128.887 44.555 129.269 44.6658 129.63C44.7767 129.99 44.9633 130.321 45.2121 130.598L44.2532 130.936C41.927 130.033 39.6998 128.875 37.6092 127.482C37.9813 127.108 38.2482 126.635 38.3812 126.115C38.5142 125.595 38.5084 125.047 38.3642 124.53C39.8485 124.196 41.2995 123.717 42.6979 123.101L42.7734 124.365C42.7764 124.408 42.788 124.45 42.8075 124.488C42.827 124.526 42.854 124.559 42.8867 124.585C43.8153 125.189 44.7591 125.927 45.7179 126.618V126.673ZM30.3612 125.441C33.8893 128.136 37.7077 130.393 41.7391 132.168C41.4446 134.241 41.271 136.187 41.1653 138.111C37.3903 136.282 33.8569 134.358 30.3839 132.254C30.2706 129.899 30.2706 127.544 30.3612 125.386V125.441ZM17.2544 141.533C17.2702 139.21 17.0167 136.893 16.4994 134.633L34.6194 141.91C34.4304 144.295 34.6269 146.696 35.2008 149.014C28.9676 147.204 22.9483 144.677 17.2544 141.478V141.533ZM34.9139 141.408L17.0581 134.241C21.3276 133.305 25.6737 132.797 30.0366 132.725C31.6976 133.73 33.3888 134.704 35.0573 135.614C36.8844 136.619 41.7466 139.092 43.3095 139.767C40.5915 140.175 37.647 140.748 34.9139 141.353V141.408ZM47.4846 140.623C45.4989 140.052 43.568 139.293 41.7164 138.354C41.8146 136.344 42.0033 134.303 42.3053 132.176C44.9327 131.312 47.6809 130.284 49.7496 129.452C50.7538 130.127 51.773 130.794 52.7696 131.438C51.3351 132.472 49.7598 133.276 48.0962 133.824C47.6281 133.919 48.0886 134.413 47.4846 140.591V140.623ZM48.0358 140.78C48.2547 138.605 48.3755 136.431 48.4284 134.5C53.0683 135.819 57.7805 136.847 62.5393 137.577C62.4336 137.859 60.9538 141.777 60.2743 143.441C56.141 142.831 52.0522 141.932 48.0358 140.748V140.78ZM60.2441 145.207C61.3766 142.279 63.3925 136.972 64.7741 133.275H65.6122C65.6122 133.275 63.6492 139.979 63.1811 141.596C63.1683 141.639 63.1651 141.684 63.1718 141.728C63.1785 141.772 63.1949 141.814 63.2198 141.85C63.2446 141.887 63.2772 141.917 63.315 141.938C63.3528 141.959 63.3948 141.971 63.4378 141.973C64.2657 142.02 65.0633 142.313 65.7363 142.816C66.4093 143.32 66.9295 144.013 67.2354 144.814C67.2532 144.867 67.2857 144.913 67.3287 144.947C67.3717 144.98 67.4233 145 67.477 145.003C72.3808 145.435 77.3109 145.435 82.2146 145.003C82.2619 144.998 82.3074 144.981 82.3469 144.954C82.3864 144.927 82.4188 144.889 82.4411 144.846C82.8954 143.934 83.613 143.193 84.4933 142.727C85.3735 142.261 86.3721 142.093 87.3486 142.248C87.3924 142.252 87.4367 142.247 87.4783 142.232C87.5198 142.217 87.5576 142.192 87.5888 142.16C87.6199 142.127 87.6437 142.088 87.6583 142.045C87.6729 142.002 87.678 141.956 87.6733 141.91C87.6733 141.91 86.5483 134.594 86.352 133.275H88.0885C88.5954 137.434 89.439 141.541 90.6102 145.552C80.4963 146.324 70.3375 146.198 60.2441 145.176V145.207ZM93.2301 150.129L90.5121 149.579C90.8503 148.36 91.1027 147.116 91.2671 145.859C91.2671 145.678 90.7688 144.289 89.9987 140.944L92.5128 139.374C93.4238 139.898 94.3147 140.463 95.1855 141.07L94.0077 142.138C93.951 142.166 93.9048 142.213 93.8762 142.271C93.8475 142.329 93.838 142.395 93.8492 142.459C93.5547 144.948 93.3433 147.625 93.2301 150.098V150.129ZM110.051 153.128L93.7888 150.239C93.902 147.884 94.0983 145.27 94.3852 142.719L98.1602 143.292C99.3765 144.308 100.531 145.401 101.618 146.565C101.671 146.613 101.737 146.643 101.807 146.651C102.192 146.651 106.752 145.27 107.22 145.081L110.316 145.662C110.093 148.133 110.004 150.615 110.051 153.096V153.128ZM110.557 145.16L108.345 144.736C111.918 143.528 115.414 142.083 118.809 140.411C118.915 140.356 118.938 140.34 118.991 140.05C119.044 139.759 119.142 138.888 119.466 137.067L127.069 137.545C122.094 139.767 117.035 142.083 110.557 145.128V145.16ZM134.302 129.79C129.772 131.305 124.615 132.78 120.078 133.911C120.168 133.495 120.259 133.079 120.357 132.678C123.788 131.552 127.128 130.145 130.346 128.471C131.593 129.11 132.927 129.544 134.302 129.758V129.79ZM129.123 118.729C126.571 119.702 113.441 124.624 109.538 126.029C108.783 125.786 108.104 125.503 107.409 125.197C108.113 124.226 109.12 123.539 110.257 123.253C111.394 122.966 112.592 123.099 113.645 123.627C113.811 123.706 113.321 123.855 119.866 121.021C119.904 121.004 119.938 120.979 119.966 120.947C119.993 120.915 120.014 120.877 120.026 120.836C120.038 120.795 120.041 120.752 120.036 120.709C120.031 120.667 120.017 120.626 119.995 120.589C119.549 119.804 120.108 119.098 120.923 118.949C120.985 118.934 121.039 118.898 121.078 118.846C121.117 118.795 121.138 118.731 121.138 118.666C121.138 118.601 121.117 118.537 121.078 118.486C121.039 118.435 120.985 118.399 120.923 118.384C115.72 116.791 110.356 115.835 104.94 115.534C104.94 115.338 104.94 115.141 104.902 114.945C113.074 115.371 121.186 116.628 129.123 118.698V118.729ZM120.319 106.593C119.179 110.05 117.034 113.053 114.181 115.189C111.116 114.788 107.983 114.498 104.88 114.333C104.88 114.199 104.736 112.928 104.699 112.763C104.57 112.402 104.23 112.692 101.014 111.601C100.387 111.389 99.7533 111.154 99.1342 110.902L102.033 109.662C102.084 109.643 102.128 109.608 102.16 109.561C102.191 109.515 102.207 109.46 102.207 109.403L102.501 102.542C102.503 102.504 102.498 102.466 102.486 102.43C102.474 102.394 102.455 102.361 102.43 102.332C102.406 102.304 102.376 102.281 102.343 102.264C102.31 102.248 102.274 102.238 102.237 102.236L98.5755 101.694C98.605 101.651 98.6208 101.599 98.6208 101.545C98.7245 99.1471 98.6031 96.7441 98.2584 94.3704V94.3076C98.1225 94.1192 92.6034 92.1331 92.158 91.9526C89.674 91.0577 87.2052 90.2177 84.7816 89.4327C85.2748 87.9124 85.4623 86.3028 85.3324 84.704C85.2025 83.1052 84.7581 81.5512 84.0266 80.1383C82.787 77.9374 80.8689 76.2362 78.5831 75.3106C78.5395 75.2941 78.4928 75.2888 78.4469 75.2952C78.401 75.3016 78.3573 75.3194 78.3194 75.3472C78.2816 75.3749 78.2508 75.4118 78.2297 75.4547C78.2085 75.4975 78.1977 75.545 78.198 75.5932C78.2317 76.9628 77.7614 78.2941 76.883 79.3153C76.0047 80.3365 74.7845 80.9706 73.4717 81.0882C73.497 78.9031 73.0565 76.7393 72.1819 74.7522C71.3073 72.7651 70.0202 71.0042 68.4132 69.5958C68.3675 69.5527 68.3094 69.5265 68.2479 69.5214C68.1864 69.5162 68.125 69.5324 68.0732 69.5673C68.0215 69.6023 67.9823 69.6541 67.9619 69.7146C67.9415 69.7751 67.9409 69.841 67.9602 69.9019C68.6723 72.2036 68.6431 74.684 67.8772 76.9669C67.0316 79.267 65.816 79.5417 63.5888 83.1449C61.9806 85.7589 60.3121 88.4672 60.8632 91.4894C61.1184 92.7659 61.6852 93.9527 62.5091 94.9356C53.5246 97.895 48.6096 98.6486 48.3076 98.8606C48.2615 98.8876 48.2246 98.9287 48.2019 98.9783C48.1822 100.145 48.2301 101.311 48.3453 102.472C48.4435 103.539 48.5794 104.599 48.7606 105.612C48.7702 105.66 48.7911 105.705 48.8213 105.744C48.8516 105.782 48.8903 105.812 48.9342 105.831C49.9082 106.263 50.9123 106.687 51.9542 107.095L52.3015 109.45C50.9048 108.971 50.9274 108.916 50.7915 109.018C50.7556 109.042 50.7248 109.072 50.7014 109.109C50.6779 109.146 50.6623 109.187 50.6556 109.23C50.3801 111.34 50.3801 113.479 50.6556 115.589C42.2827 116.947 42.6904 116.868 42.6149 116.908C42.5734 116.928 42.5374 116.959 42.5098 116.998C42.4822 117.036 42.4639 117.08 42.4563 117.128C42.4563 117.206 42.4563 117.19 42.6677 120.676C41.1577 120.448 33.9324 119.027 30.331 112.339C27.6281 107.323 28.4209 102.134 29.4703 98.7271C29.8707 97.4772 30.3759 96.2662 30.9803 95.1083C34.0003 89.8566 37.7753 90.1863 42.0411 84.3459C44.5356 80.9151 46.21 76.9168 46.9259 72.6808C47.2911 73.7136 47.9108 74.6285 48.7231 75.3339C49.5353 76.0393 50.5116 76.5104 51.5541 76.7C52.2183 76.791 52.8934 76.736 53.5359 76.5386C54.1784 76.3412 54.7738 76.0057 55.2838 75.5539C56.9448 73.9054 56.6579 71.0637 56.4993 69.5408C56.204 66.5693 56.1838 63.5752 56.4389 60.5997C57.511 48.0397 61.1048 51.266 66.4502 41.1081C67.536 39.0365 68.4503 36.8725 69.1833 34.6397C68.5869 41.7754 68.8964 53.3463 75.9783 59.0532C77.3675 60.1836 81.067 63.1745 84.2154 61.6751C86.4804 60.5683 87.8394 57.2948 87.628 53.4248C92.029 56.7894 95.2591 61.5501 96.8314 66.9896C98.0772 71.6132 97.0579 73.5522 97.7525 76.127C97.7514 76.1805 97.7673 76.233 97.7978 76.2761C98.6208 79.0943 101.573 82.3206 104.978 82.4148C106.556 82.4698 109.508 81.8653 110.504 79.3455C110.92 78.1968 110.92 76.9303 110.504 75.7816C112.235 76.5461 113.748 77.7597 114.899 79.3062C115.82 80.6825 116.595 82.1592 117.209 83.7101C119.655 89.6133 120.365 92.1959 120.984 98.5701C120.973 98.6113 120.973 98.6546 120.984 98.6957C121.142 101.639 121.165 103.947 120.319 106.593ZM38.938 30.4949C27.2506 18.4295 28.0132 19.1438 27.8471 19.136L25.3254 18.9868V15.8861H48.1113V30.4949H38.938ZM48.1113 31.0758V39.9699L39.5345 31.0758H48.1113ZM27.7263 19.709L52.9735 45.8338C53.0279 45.8862 53.0993 45.9154 53.1735 45.9154C53.2477 45.9154 53.3192 45.8862 53.3736 45.8338L78.7945 19.6698C165.944 109.489 98.4244 40.1347 126.05 68.3398C126.076 68.3688 126.108 68.3919 126.143 68.4077C126.178 68.4235 126.216 68.4316 126.254 68.4316C126.292 68.4316 126.33 68.4235 126.365 68.4077C126.4 68.3919 126.431 68.3688 126.458 68.3398L132.203 61.8949L137.382 87.8784L117.481 83.3254C116.91 81.8417 116.176 80.4323 115.291 79.1257L118.583 75.5618C118.635 75.5061 118.664 75.4315 118.664 75.3538C118.664 75.2761 118.635 75.2014 118.583 75.1457L79.1342 34.7732C79.0819 34.7195 79.0114 34.6894 78.9379 34.6894C78.8644 34.6894 78.7939 34.7195 78.7416 34.7732L69.6363 43.9341C69.2739 39.7475 69.3956 35.5307 69.9987 31.3741C70.0078 31.2996 69.9895 31.2243 69.9476 31.1632C69.9056 31.102 69.843 31.0596 69.7722 31.0444C69.7005 31.032 69.6269 31.0475 69.5656 31.0881C69.5042 31.1287 69.4595 31.1914 69.44 31.2642C68.6377 34.6158 67.4275 37.8473 65.8387 40.8805C61.0444 49.9943 57.5337 48.2124 56.0916 57.7501L52.898 60.8901L12.7244 18.8298L27.7263 19.709ZM66.9108 31.0758L53.1773 45.2058L48.6473 40.5586V31.0758H66.9108ZM48.6775 30.4949V15.8861H70.8821V27.0017L67.4695 30.4949H48.6775ZM90.1119 30.4949L79.0059 19.0496C78.9536 18.9959 78.883 18.9658 78.8096 18.9658C78.7361 18.9658 78.6655 18.9959 78.6133 19.0496L71.4408 26.4208V15.8861H94.2871V30.4949H90.1119ZM94.2871 31.0758V34.7967L90.6782 31.0758H94.2871ZM117.375 31.0758V45.6847H104.849L94.8533 35.3855V31.0758H117.375ZM94.8533 30.4949V15.8861H117.375V30.4949H94.8533ZM117.375 46.2734V58.5901L105.423 46.2734H117.375ZM109.938 75.0201C109.885 74.9977 109.827 74.9926 109.772 75.0054C109.716 75.0183 109.666 75.0485 109.627 75.0921C109.588 75.1357 109.563 75.1905 109.556 75.2492C109.548 75.3079 109.558 75.3677 109.583 75.4205C109.652 75.571 109.713 75.7257 109.765 75.8836H98.1074C97.5336 73.5286 98.4547 71.4484 97.224 66.8875C96.6483 64.7877 95.8026 62.7783 94.7099 60.9137H103.86L117.994 75.3891L117.541 75.8836H111.697C111.133 75.5501 110.545 75.2615 109.938 75.0201ZM109.833 79.1806C108.942 81.4022 106.269 81.9203 104.842 81.8889C101.822 81.8025 99.1795 79.0236 98.281 76.4724H109.946C110.192 77.364 110.152 78.3146 109.833 79.1806ZM94.8533 60.3406V51.7056L103.287 60.3406H94.8533ZM116.997 76.4724L114.951 78.6861C114.274 77.8328 113.48 77.0871 112.596 76.4724H116.997ZM86.8654 52.9224C87.1674 56.0624 86.4351 58.8334 84.993 60.3563H78.5076C77.6909 59.8544 76.9112 59.2902 76.1746 58.6686C74.0557 56.8941 72.4231 54.5713 71.4408 51.9333V46.2734H89.5608L94.2871 51.1169V60.215C92.4589 57.2368 90.0892 54.6583 87.3109 52.6241C87.2658 52.5927 87.2132 52.5752 87.159 52.5737C87.1049 52.5721 87.0514 52.5866 87.0048 52.6153C86.9582 52.6441 86.9203 52.686 86.8957 52.7361C86.871 52.7863 86.8605 52.8427 86.8654 52.8988V52.9224ZM84.306 60.9137C82.879 61.8949 81.1878 61.6359 79.6174 60.9137H84.306ZM71.471 45.6847V42.9293L78.9681 35.3933L88.987 45.6847H71.471ZM69.8779 45.6847C69.8251 45.3471 69.7873 45.0096 69.742 44.672L70.9123 43.5024V45.6847H69.8779ZM70.9123 46.2734V50.3083C70.4994 48.9903 70.1839 47.6414 69.9685 46.2734H70.9123ZM52.1505 60.9137L52.6866 61.4789C52.7388 61.5326 52.8094 61.5627 52.8829 61.5627C52.9563 61.5627 53.0269 61.5326 53.0792 61.4789L53.6681 60.9058H55.7368C55.4999 63.817 55.5277 66.745 55.8198 69.6507C56.0765 72.2098 56.0388 74.9102 53.7134 75.8758H50.414C49.7604 75.5923 49.1695 75.1729 48.6775 74.6433V60.9137H52.1505ZM48.6775 60.3328V57.2791L51.6145 60.3328H48.6775ZM55.7821 60.3328H54.2721L55.9708 58.6843C55.9003 59.2128 55.8374 59.7623 55.7821 60.3328ZM38.1528 46.2734L48.1113 56.6825V60.3328H25.3254V46.2734H38.1528ZM25.3178 45.6847V32.8499L37.5941 45.6847H25.3178ZM25.3178 60.9137H48.1113V73.9604C47.5856 73.2092 47.206 72.3586 46.9939 71.4562C46.9791 71.3907 46.9435 71.3323 46.8928 71.2905C46.8421 71.2487 46.7792 71.2259 46.7145 71.2259C46.6498 71.2259 46.587 71.2487 46.5362 71.2905C46.4855 71.3323 46.4499 71.3907 46.4352 71.4562C46.2204 72.9435 45.9025 74.4127 45.4839 75.8522H25.3254L25.3178 60.9137ZM144.381 98.366H121.392C121.033 93.3909 119.805 88.5255 117.768 84.0084L137.684 88.5692C137.73 88.5795 137.778 88.5777 137.822 88.564C137.867 88.5503 137.908 88.5251 137.941 88.4908C137.974 88.4564 137.998 88.4139 138.012 88.3673C138.025 88.3207 138.027 88.2713 138.017 88.2238L132.634 61.2434C132.624 61.1899 132.6 61.1402 132.565 61.1C132.53 61.0598 132.485 61.0306 132.434 61.0159C132.384 61.0012 132.331 61.0015 132.28 61.0167C132.23 61.0319 132.185 61.0615 132.15 61.1021L126.231 67.7432L119.61 60.9137H132.958C133.032 60.9137 133.103 60.8831 133.156 60.8286C133.208 60.7741 133.238 60.7003 133.238 60.6232C133.238 60.5462 133.208 60.4723 133.156 60.4179C133.103 60.3634 133.032 60.3328 132.958 60.3328H119.059L117.941 59.171V46.2734H132.981C133.048 46.262 133.109 46.2261 133.153 46.1722C133.197 46.1183 133.221 46.0498 133.221 45.9791C133.221 45.9083 133.197 45.8399 133.153 45.7859C133.109 45.732 133.048 45.6961 132.981 45.6847H117.941V31.0758H132.981C133.055 31.0758 133.126 31.0452 133.178 30.9908C133.231 30.9363 133.26 30.8624 133.26 30.7854C133.26 30.7084 133.231 30.6345 133.178 30.58C133.126 30.5255 133.055 30.4949 132.981 30.4949H117.941V15.8861H132.981C133.017 15.8861 133.054 15.8786 133.088 15.864C133.122 15.8494 133.152 15.828 133.178 15.801C133.204 15.774 133.225 15.742 133.239 15.7068C133.253 15.6715 133.26 15.6338 133.26 15.5956C133.26 15.5179 133.231 15.4432 133.179 15.3874C133.127 15.3317 133.056 15.2994 132.981 15.2973H117.941V11.5058C117.93 11.436 117.896 11.3725 117.844 11.3267C117.792 11.2809 117.726 11.2557 117.658 11.2557C117.59 11.2557 117.524 11.2809 117.472 11.3267C117.42 11.3725 117.386 11.436 117.375 11.5058V15.2895H94.8533V9.95148C94.8533 9.87445 94.8239 9.80057 94.7715 9.7461C94.7191 9.69163 94.648 9.66103 94.574 9.66103C94.4992 9.66101 94.4273 9.69135 94.3737 9.74561C94.3201 9.79987 94.289 9.87374 94.2871 9.95148V15.2895H71.4408V8.79753C71.4408 8.7205 71.4113 8.64662 71.3589 8.59215C71.3065 8.53768 71.2355 8.50708 71.1614 8.50708C71.0873 8.50708 71.0163 8.53768 70.9639 8.59215C70.9115 8.64662 70.8821 8.7205 70.8821 8.79753V15.2895H48.6775V7.86338C48.6665 7.79356 48.632 7.73008 48.5801 7.68427C48.5283 7.63846 48.4624 7.61331 48.3944 7.61331C48.3263 7.61331 48.2605 7.63846 48.2086 7.68427C48.1568 7.73008 48.1223 7.79356 48.1113 7.86338V15.2895H25.3254V6.33263C25.3144 6.26281 25.2798 6.19933 25.228 6.15352C25.1761 6.10771 25.1103 6.08256 25.0422 6.08256C24.9742 6.08256 24.9083 6.10771 24.8565 6.15352C24.8046 6.19933 24.7701 6.26281 24.7591 6.33263V15.2895H9.33446C9.25968 15.2915 9.18863 15.3239 9.13645 15.3796C9.08427 15.4353 9.05508 15.51 9.05511 15.5878C9.05511 15.6648 9.08454 15.7387 9.13693 15.7932C9.18932 15.8476 9.26037 15.8782 9.33446 15.8782H24.7591V18.9397L12.0223 18.194C11.9654 18.1895 11.9087 18.2033 11.8595 18.2333C11.8104 18.2634 11.7714 18.3083 11.7475 18.3622C11.7237 18.416 11.7163 18.4761 11.7262 18.5344C11.7362 18.5928 11.7631 18.6465 11.8033 18.6885L23.0755 30.4635H9.79501C9.72092 30.4635 9.64987 30.4941 9.59748 30.5486C9.54509 30.6031 9.51566 30.6769 9.51566 30.754C9.51566 30.831 9.54509 30.9049 9.59748 30.9594C9.64987 31.0138 9.72092 31.0444 9.79501 31.0444H23.6342L24.7591 32.2219V45.6847H9.79501C9.75395 45.6777 9.71193 45.6801 9.67185 45.6916C9.63176 45.7032 9.59458 45.7237 9.56287 45.7517C9.53117 45.7797 9.5057 45.8146 9.48823 45.8538C9.47077 45.8931 9.46172 45.9358 9.46172 45.9791C9.46172 46.0223 9.47077 46.065 9.48823 46.1043C9.5057 46.1436 9.53117 46.1784 9.56287 46.2064C9.59458 46.2344 9.63176 46.2549 9.67185 46.2665C9.71193 46.2781 9.75395 46.2804 9.79501 46.2734H24.7591V60.3328H9.79501C9.75832 60.3328 9.722 60.3403 9.6881 60.3549C9.65421 60.3695 9.62342 60.3909 9.59748 60.4179C9.57154 60.4448 9.55096 60.4768 9.53692 60.5121C9.52288 60.5473 9.51566 60.5851 9.51566 60.6232C9.51566 60.6614 9.52288 60.6991 9.53692 60.7344C9.55096 60.7696 9.57154 60.8016 9.59748 60.8286C9.62342 60.8556 9.65421 60.877 9.6881 60.8916C9.722 60.9062 9.75832 60.9137 9.79501 60.9137H24.7591V75.8836H9.79501C9.75395 75.8766 9.71193 75.879 9.67185 75.8906C9.63176 75.9022 9.59458 75.9227 9.56287 75.9507C9.53117 75.9787 9.5057 76.0135 9.48823 76.0528C9.47077 76.092 9.46172 76.1348 9.46172 76.178C9.46172 76.2213 9.47077 76.264 9.48823 76.3033C9.5057 76.3425 9.53117 76.3773 9.56287 76.4053C9.59458 76.4334 9.63176 76.4539 9.67185 76.4654C9.71193 76.477 9.75395 76.4794 9.79501 76.4724H24.7591V90.414C24.7524 90.4567 24.7547 90.5004 24.7658 90.542C24.7769 90.5837 24.7966 90.6224 24.8236 90.6553C24.8505 90.6883 24.884 90.7148 24.9218 90.7329C24.9595 90.7511 25.0006 90.7605 25.0422 90.7605C25.0838 90.7605 25.1249 90.7511 25.1627 90.7329C25.2004 90.7148 25.234 90.6883 25.2609 90.6553C25.2878 90.6224 25.3075 90.5837 25.3187 90.542C25.3298 90.5004 25.3321 90.4567 25.3254 90.414V76.4724H45.3027C44.4451 79.2007 43.151 81.7591 41.4748 84.0398C36.4767 90.8143 31.8259 89.3385 28.9041 98.3739H6.85051V4.77833C28.3303 4.29163 42.8565 4.88823 72.8979 4.85683C86.2388 4.85683 101.369 4.85683 110.142 5.20223C123.377 5.77528 141.852 4.91963 144.389 4.80188C144.472 7.52583 145.031 28.1007 144.389 37.3794C144.117 41.3515 144.389 55.8269 144.555 66.4244C144.698 74.816 144.842 78.1915 144.389 98.366H144.381Z" fill="black"/>
<path d="M79.112 100.941C79.2781 100.941 83.4382 100.415 84.4423 100.156C84.5151 100.136 84.5773 100.086 84.6154 100.019C84.6536 99.9512 84.6646 99.8707 84.6462 99.7948C84.6266 99.7191 84.5793 99.6544 84.5143 99.6148C84.4493 99.5751 84.3719 99.5636 84.2989 99.5828C83.257 99.8654 79.1196 100.368 79.0818 100.368C79.0147 100.379 78.9536 100.415 78.9096 100.469C78.8655 100.523 78.8413 100.591 78.8413 100.662C78.8413 100.733 78.8655 100.801 78.9096 100.855C78.9536 100.909 79.0147 100.945 79.0818 100.957L79.112 100.941Z" fill="black"/>
<path d="M91.524 131.76C90.4959 131.191 89.5586 130.46 88.7456 129.593C88.6936 129.537 88.6222 129.505 88.5471 129.503C88.4721 129.502 88.3996 129.531 88.3455 129.585C88.2914 129.64 88.2603 129.714 88.2588 129.792C88.2574 129.87 88.2859 129.945 88.3379 130.002C89.2011 130.93 90.2031 131.706 91.3051 132.302C91.3393 132.317 91.376 132.324 91.4131 132.325C91.4502 132.325 91.487 132.317 91.5213 132.303C91.5557 132.288 91.5869 132.267 91.6133 132.24C91.6397 132.212 91.6607 132.18 91.675 132.145C91.6894 132.109 91.6969 132.071 91.6971 132.032C91.6973 131.994 91.6902 131.955 91.6762 131.92C91.6621 131.884 91.6415 131.852 91.6154 131.824C91.5893 131.797 91.5582 131.775 91.524 131.76Z" fill="black"/>
<path d="M93.487 142.036C93.4793 141.958 93.4426 141.886 93.3847 141.836C93.3268 141.786 93.2524 141.762 93.1774 141.769C92.3137 141.844 91.4494 141.632 90.7086 141.164C90.6453 141.122 90.5687 141.108 90.4954 141.124C90.422 141.14 90.3576 141.186 90.316 141.251C90.2954 141.283 90.2814 141.32 90.2748 141.359C90.2682 141.397 90.2692 141.437 90.2777 141.475C90.2861 141.513 90.3019 141.549 90.3241 141.58C90.3462 141.612 90.3743 141.639 90.4066 141.659C91.2486 142.207 92.2408 142.453 93.2303 142.357C93.2677 142.354 93.3042 142.344 93.3375 142.326C93.3709 142.308 93.4004 142.283 93.4244 142.253C93.4484 142.223 93.4662 142.188 93.477 142.151C93.4878 142.114 93.4912 142.074 93.487 142.036Z" fill="black"/>
<path d="M47.0848 133.511C45.6726 133.243 44.303 132.773 43.0153 132.113C42.9826 132.096 42.9469 132.085 42.9102 132.082C42.8735 132.078 42.8365 132.083 42.8014 132.094C42.7663 132.106 42.7338 132.125 42.7057 132.15C42.6777 132.174 42.6546 132.205 42.6378 132.239C42.6055 132.308 42.6 132.387 42.6225 132.46C42.645 132.533 42.6938 132.595 42.7586 132.631C44.0986 133.326 45.5275 133.818 47.0017 134.091C47.039 134.098 47.0772 134.097 47.114 134.088C47.1508 134.079 47.1855 134.062 47.2158 134.038C47.2462 134.015 47.2716 133.985 47.2906 133.951C47.3096 133.917 47.3218 133.879 47.3264 133.84C47.335 133.763 47.3147 133.686 47.2696 133.625C47.2246 133.563 47.1583 133.522 47.0848 133.511Z" fill="black"/>
</svg>
