<svg width="153" height="158" viewBox="0 0 153 158" fill="none" xmlns="http://www.w3.org/2000/svg">
<path d="M110.527 99.0412L123.797 97.6125L131.108 46.7994L115.414 60.2308C110.801 97.3063 111.759 89.7703 110.527 99.0412Z" fill="#81F8F8"/>
<path d="M38.396 99.0804L25.0732 97.5575L17.7544 46.8308L33.4332 60.3642C37.826 94.5745 36.7544 86.3242 38.396 99.0804Z" fill="#81F8F8"/>
<path d="M50.3658 36.0764C51.2702 35.5034 53.9302 37.2853 54.3862 39.5775C54.5534 40.3625 54.523 41.7206 53.8314 42.0974C53.1398 42.4742 51.7414 41.4929 51.0954 40.6608C49.8718 39.1144 49.5678 36.5867 50.3658 36.0764Z" fill="#81F8F8"/>
<path d="M79.3143 16.4592C79.9679 15.6742 82.0731 16.1452 83.2815 17.3227C84.2771 18.2883 85.0599 20.1095 84.3607 20.9887C83.7907 21.7187 82.4227 21.5617 81.5867 21.1928C79.6107 20.3293 78.5543 17.3934 79.3143 16.4592Z" fill="#81F8F8"/>
<path d="M91.2844 52.5064C92.1356 52.6477 93.116 51.4467 93.42 50.332C93.9444 48.4166 92.66 46.0773 91.6492 46.0773C90.798 46.0773 90.0456 47.7336 89.924 49.0367C89.8024 50.3398 90.3116 52.3494 91.2844 52.5064Z" fill="#81F8F8"/>
<path d="M70.5589 30.7697C72.0257 30.7697 73.1961 32.5909 73.4469 34.0981C73.8953 36.9006 71.3645 40.0092 69.6469 39.7187C68.2181 39.4754 67.1769 36.877 67.4581 34.7497C67.6785 33.0462 68.8793 30.7462 70.5589 30.7697Z" fill="#FFD997"/>
<path d="M55.7543 62.2011C54.7587 61.1021 55.5643 58.2761 57.1831 56.7532C58.5131 55.5208 60.9451 54.6573 62.0775 55.7798C63.2099 56.9024 62.6703 59.014 61.8191 60.325C60.3599 62.5858 56.8715 63.4414 55.7543 62.2011Z" fill="#FFD997"/>
<path d="M97.5009 67.3664C96.4673 66.3773 96.8701 63.9517 97.9113 62.468C99.1121 60.7646 101.673 59.5635 103.057 60.6311C104.212 61.526 104.174 63.7005 103.497 65.1056C102.335 67.5234 98.8005 68.5989 97.5009 67.3664Z" fill="#FFD997"/>
<path d="M58.1103 74.9495C57.3503 79.2905 56.2635 84.0869 55.0703 88.6085C56.1063 89.1436 57.2254 89.4864 58.3763 89.6211C59.871 90.7977 61.5793 91.652 63.3999 92.1331C63.1645 92.5409 63.069 93.0188 63.1289 93.4896C63.1888 93.9604 63.4005 94.3965 63.7299 94.7277C64.0594 95.0589 64.4872 95.2657 64.9444 95.3148C65.4017 95.3639 65.8616 95.2525 66.2499 94.9984C66.1127 95.471 66.1164 95.9754 66.2606 96.4459C66.4048 96.9163 66.6828 97.331 67.0584 97.636C67.434 97.9409 67.8898 98.122 68.3664 98.1556C68.8431 98.1892 69.3185 98.0738 69.7307 97.8244C69.7152 98.2828 69.8231 98.7366 70.0423 99.1355C70.2615 99.5344 70.5835 99.8627 70.9725 100.084C71.3615 100.305 71.8023 100.411 72.2458 100.389C72.6894 100.367 73.1184 100.218 73.4851 99.9596C73.5839 100.358 73.7785 100.725 74.0508 101.026C74.3232 101.326 74.6645 101.551 75.0433 101.68C75.4221 101.808 75.826 101.836 76.2179 101.76C76.6097 101.684 76.9768 101.508 77.2851 101.247C78.4555 102.534 79.9679 102.872 80.7431 102.299C81.5183 101.726 81.5031 100.47 81.5031 100.101C81.5099 99.5058 81.3905 98.9163 81.1535 98.3739C81.4361 98.7618 81.8202 99.0582 82.2606 99.2279C82.701 99.3976 83.1792 99.4336 83.6387 99.3316C85.0523 98.9469 85.9871 96.796 84.9763 94.9748C85.8579 95.8619 87.4463 96.1994 88.3811 95.5008C88.8074 95.1231 89.1021 94.6116 89.2201 94.0445C89.3382 93.4774 89.273 92.886 89.0347 92.3608C89.4094 92.8367 89.9453 93.1477 90.5338 93.2308C91.1222 93.3139 91.7193 93.1628 92.2039 92.8082C92.426 92.5478 92.5879 92.2386 92.6774 91.9041C92.7669 91.5696 92.7817 91.2184 92.7207 90.8771C93.4037 91.0677 94.1042 91.1835 94.8107 91.2225C93.2836 87.0992 92.2871 82.7868 91.8467 78.3956C86.9599 77.1396 86.1619 75.4833 82.8331 74.3764C81.6387 73.9221 80.3743 73.696 79.1015 73.7092C77.8272 73.743 76.571 74.0281 75.4003 74.5491C74.0602 73.8583 72.6703 73.2757 71.2431 72.8064C70.5332 72.5285 69.7739 72.4107 69.0163 72.461C68.3422 72.5718 67.6886 72.7889 67.0783 73.1047C65.6348 73.6645 64.2434 74.3581 62.9211 75.1771L58.1103 74.9495Z" fill="#FFD997"/>
<path d="M52.3951 90.8693C52.2083 90.8679 52.0277 90.9375 51.8875 91.065C51.7473 91.1924 51.6575 91.3686 51.6351 91.5601C51.6158 91.7157 51.6421 91.8737 51.7106 92.0138C51.7791 92.1538 51.8867 92.2694 52.0194 92.3457C52.1522 92.422 52.304 92.4554 52.4553 92.4417C52.6066 92.428 52.7505 92.3678 52.8684 92.2688C52.9862 92.1698 53.0727 92.0366 53.1165 91.8864C53.1604 91.7362 53.1597 91.5759 53.1145 91.4261C53.0692 91.2763 52.9816 91.1439 52.8629 91.0461C52.7441 90.9482 52.5997 90.8894 52.4483 90.8771L52.3951 90.8693Z" fill="black"/>
<path d="M97.5544 94.3862C97.7047 94.3862 97.8517 94.3401 97.9767 94.2539C98.1017 94.1676 98.1991 94.045 98.2566 93.9016C98.3141 93.7581 98.3292 93.6003 98.2998 93.448C98.2705 93.2957 98.1981 93.1559 98.0918 93.0461C97.9855 92.9363 97.8501 92.8615 97.7027 92.8312C97.5553 92.801 97.4025 92.8165 97.2636 92.8759C97.1247 92.9353 97.006 93.0359 96.9225 93.165C96.839 93.2941 96.7944 93.4459 96.7944 93.6012C96.7944 93.8094 96.8745 94.009 97.017 94.1562C97.1596 94.3035 97.3529 94.3862 97.5544 94.3862Z" fill="black"/>
<path d="M48.5115 42.8824C48.4878 44.666 47.8767 46.3881 46.7787 47.765C46.7533 47.7994 46.7368 47.8399 46.731 47.8828C46.7251 47.9256 46.7301 47.9693 46.7454 48.0095C46.7607 48.0498 46.7858 48.0853 46.8182 48.1126C46.8507 48.1399 46.8895 48.1581 46.9307 48.1654C48.8658 48.5251 50.8369 48.6333 52.7979 48.4873C54.3179 48.4873 55.9063 48.6913 56.0203 48.6913C56.066 48.6908 56.1107 48.6773 56.1496 48.6524C56.1884 48.6275 56.22 48.5921 56.2407 48.55C58.4295 44.0206 58.8779 40.3703 57.5707 37.717C56.1495 34.8204 53.0639 33.792 52.2507 30.0319C52.0076 28.8572 52.0076 27.6427 52.2507 26.468C52.2599 26.428 52.2594 26.3862 52.2493 26.3464C52.2392 26.3066 52.2198 26.27 52.1928 26.2398C52.1658 26.2095 52.132 26.1866 52.0944 26.173C52.0568 26.1594 52.0165 26.1556 51.9771 26.1619C48.9371 26.6643 48.0403 27.5278 46.2239 27.8889C44.7039 28.1872 44.4303 27.9281 44.2631 28.1558C43.6781 28.9914 43.3069 29.9662 43.1839 30.9896C42.6595 35.6133 48.3671 38.0546 48.5115 42.8824ZM43.6703 31.0367C43.7786 30.1427 44.0997 29.2904 44.6051 28.5561C47.6451 28.5561 48.2759 27.3629 51.7187 26.7271C51.5287 27.8593 51.5519 29.0187 51.7871 30.1418C52.6307 34.0668 55.7695 35.158 57.1071 37.9447C58.3155 40.4175 57.8671 43.8636 55.8455 48.1497C51.8327 47.6787 50.7079 48.3617 47.3715 47.7337C48.3985 46.326 48.9582 44.6135 48.9675 42.851C48.8535 37.8662 43.1839 35.3699 43.6703 31.0367Z" fill="black"/>
<path d="M68.4539 16.3414C72.1703 16.2865 74.8455 17.0165 76.4035 18.7828C78.2579 20.8709 77.4903 22.9982 79.9071 25.2355C81.468 26.6182 83.4457 27.3978 85.5016 27.4407C87.5576 27.4837 89.5641 26.7874 91.1779 25.471C91.3451 25.3375 91.4287 24.4819 92.5003 22.331C92.8598 21.6688 93.1624 20.9754 93.4047 20.2586C93.6295 19.5208 93.7573 18.7551 93.7847 17.9821C93.7857 17.9383 93.7755 17.8949 93.7553 17.8564C93.735 17.8179 93.7054 17.7855 93.6693 17.7625C93.6332 17.7395 93.5918 17.7266 93.5494 17.7252C93.507 17.7238 93.465 17.7339 93.4275 17.7544C90.8587 19.1988 88.7611 19.5678 87.1727 18.8534C84.1327 17.4875 84.3987 12.8796 80.9103 11.1683C79.3371 10.3833 77.3915 10.3833 75.1343 11.2311H75.0735C71.6003 13.641 70.5667 13.6803 68.2791 15.9411C68.2532 15.977 68.2371 16.0194 68.2324 16.064C68.2277 16.1085 68.2346 16.1535 68.2525 16.1944C68.2703 16.2352 68.2984 16.2704 68.3338 16.2962C68.3692 16.3221 68.4107 16.3377 68.4539 16.3414ZM75.2939 11.6314C77.4143 10.8464 79.2231 10.8464 80.6747 11.5529C83.9579 13.1229 83.7147 17.778 86.9523 19.2459C88.5939 20.0309 90.7067 19.6855 93.2375 18.3432C93.0095 20.8866 92.0063 21.4832 90.7827 25.0863C89.4665 26.1349 87.8806 26.7601 86.2227 26.884C84.0325 27.0055 81.8783 26.2713 80.1883 24.8273C79.2347 23.9294 78.5648 22.756 78.2655 21.4596C77.9956 20.3359 77.4751 19.2928 76.7455 18.4138C74.8759 16.2943 71.8283 15.7527 69.0771 15.7919C71.1595 13.9707 71.9499 13.9943 75.3243 11.6628L75.2939 11.6314Z" fill="black"/>
<path d="M89.7794 38.4157C86.7394 41.9875 89.9846 48.0712 87.1726 50.7716C86.0478 51.8549 84.1326 52.1689 81.5562 51.6822C81.514 51.676 81.4709 51.681 81.4311 51.6968C81.3912 51.7126 81.3559 51.7386 81.3285 51.7724C81.3011 51.8062 81.2825 51.8466 81.2745 51.8899C81.2665 51.9332 81.2693 51.9779 81.2826 52.0198C82.3846 55.0342 83.5626 56.3922 87.9326 61.3927C87.9596 61.4244 87.9941 61.4483 88.0328 61.462C88.0714 61.4758 88.1129 61.4789 88.153 61.4712C92.0746 60.7961 94.5978 59.3438 95.6618 57.1537C97.4098 53.5427 94.3698 49.8689 96.1026 46.7838C97.1134 44.9862 99.4618 43.9264 103.072 43.6438C103.119 43.6387 103.163 43.6199 103.2 43.5898C103.238 43.5596 103.266 43.5193 103.282 43.4733C103.297 43.4274 103.3 43.3778 103.29 43.3302C103.28 43.2826 103.257 43.2389 103.224 43.2042C99.895 39.9229 99.5758 38.3294 96.5814 36.2962C96.5391 36.2849 96.4946 36.2849 96.4522 36.2962C93.359 36.1392 91.1094 36.8614 89.7794 38.4157ZM96.3686 36.7594C99.1046 38.6434 99.4922 40.1192 102.494 43.1885C99.021 43.5496 96.7258 44.6722 95.6542 46.5326C93.7998 49.8296 96.855 53.5191 95.1982 56.926C94.2254 58.9435 91.8618 60.2937 88.1834 60.9531C83.7906 55.8898 82.8634 54.728 81.8754 52.2553C84.4214 52.6556 86.3062 52.2553 87.4842 51.1406C90.5242 48.2204 87.241 42.1366 90.129 38.7533C91.3678 37.3324 93.4654 36.6652 96.3686 36.7594Z" fill="black"/>
<path d="M53.4136 42.4506C54.6448 42.4506 54.8728 40.755 54.6296 39.5225C54.4282 38.7408 54.0622 38.0146 53.5577 37.3958C53.0532 36.777 52.4227 36.2809 51.7112 35.9429C50.6776 35.4798 49.9024 35.6839 49.7124 36.8143C49.5956 38.2589 50.02 39.6947 50.898 40.8256C51.4528 41.5321 52.5168 42.4506 53.4136 42.4506ZM50.1988 36.9006C50.29 36.3354 50.5104 36.2177 50.7916 36.2177C51.8328 36.2177 53.786 37.7877 54.1508 39.6246C54.2952 40.3546 54.2648 41.5792 53.7176 41.8775C53.1704 42.1758 51.9012 41.2966 51.278 40.5038C50.488 39.488 50.1021 38.1997 50.1988 36.9006Z" fill="black"/>
<path d="M81.5103 21.4283C82.4299 21.8287 83.9195 21.9778 84.5503 21.1536C85.4015 20.0781 84.4363 18.0999 83.4483 17.1344C82.5729 16.2988 81.4254 15.8337 80.2335 15.8313C78.9719 15.8941 78.6147 16.8204 78.8959 18.0842C79.0665 18.806 79.3893 19.48 79.8413 20.0581C80.2932 20.6362 80.8631 21.104 81.5103 21.4283ZM79.5115 16.632C79.6319 16.5218 79.773 16.4385 79.926 16.3872C80.079 16.3358 80.2406 16.3176 80.4007 16.3337C81.4083 16.3901 82.3664 16.8032 83.1139 17.5033C84.0563 18.4218 84.7403 20.1095 84.1703 20.8317C83.6003 21.5539 82.4223 21.287 81.6851 20.9652C79.7319 20.1095 78.9035 17.3463 79.5115 16.632Z" fill="black"/>
<path d="M91.246 52.7576C92.3176 52.9224 93.3512 51.5251 93.6552 50.4026C93.802 49.7616 93.81 49.095 93.6786 48.4504C93.5473 47.8059 93.2797 47.1992 92.8952 46.6738C92.7589 46.4437 92.5739 46.2486 92.3541 46.1031C92.1342 45.9576 91.8853 45.8655 91.626 45.8339C90.5468 45.8339 89.7792 47.7179 89.6576 49.021C89.536 50.3241 90.03 52.5535 91.246 52.7576ZM90.1668 49.0445C90.2808 47.8121 90.9876 46.3206 91.6868 46.3206C92.4468 46.3206 93.7236 48.4322 93.2068 50.2456C92.9256 51.2425 92.044 52.3572 91.3372 52.2395C90.6304 52.1217 90.0452 50.4026 90.1668 49.0445Z" fill="black"/>
<path d="M73.3936 30.597C73.2872 30.4792 73.3936 30.5185 70.5588 30.5185C68.712 30.5185 67.4504 32.8735 67.1996 34.7104C66.9108 36.877 67.9596 40.1112 69.9584 39.9856H72.474C72.5253 39.9831 72.575 39.9668 72.6184 39.9385C73.328 39.426 73.9199 38.7588 74.3524 37.9841C74.7848 37.2094 75.0473 36.346 75.1213 35.455C75.1952 34.564 75.0788 33.6671 74.7803 32.8276C74.4817 31.9882 74.0084 31.2267 73.3936 30.597ZM67.686 34.781C67.8988 33.211 68.9856 31.0209 70.5512 31.0209C71.8356 31.0209 72.9604 32.6537 73.2036 34.1609C73.6444 36.8848 71.1592 39.7501 69.6696 39.491C68.4308 39.2555 67.4124 36.8534 67.686 34.781Z" fill="black"/>
<path d="M63.6656 57.4362C63.2502 56.8101 62.7931 56.2147 62.2976 55.6542C61.0892 54.2805 58.3684 55.3088 56.9776 56.5727C55.8548 57.6286 55.1598 59.0839 55.032 60.6468C54.9948 60.9688 55.0251 61.2953 55.1208 61.6041C55.2166 61.9129 55.3755 62.1968 55.5868 62.4366L56.704 63.6377C56.8636 63.8025 56.8788 63.7947 56.9472 63.8025C60.9448 64.0302 64 61.2277 63.6656 57.4362ZM55.5564 60.6704C55.6878 59.243 56.3236 57.9155 57.3424 56.9416C58.5356 55.8348 60.8536 54.9242 61.9024 55.9604C62.784 56.8239 62.4572 58.8806 61.6136 60.1837C61.1602 60.844 60.5747 61.3959 59.8968 61.8022C59.2189 62.2085 58.4644 62.4597 57.6844 62.5387C57.3762 62.597 57.0594 62.585 56.7562 62.5037C56.453 62.4223 56.1706 62.2735 55.9288 62.0677C55.779 61.8726 55.6688 61.6483 55.6048 61.4082C55.5409 61.1681 55.5244 60.9172 55.5564 60.6704Z" fill="black"/>
<path d="M105.154 62.5779C104.503 61.7708 103.797 61.0127 103.041 60.3092C101.445 59.3044 98.8689 60.686 97.7213 62.3188C96.6877 63.7868 96.2773 66.1104 97.1285 67.2957C97.2349 67.4449 97.2501 67.4527 98.6485 68.9364C98.7321 69.0227 98.8309 69.0227 99.2261 69.0227C102.874 69.0227 105.747 66.3145 105.154 62.5779ZM98.1165 62.6171C99.1805 61.1021 101.62 59.8382 102.92 60.8352C103.938 61.6202 103.93 63.6533 103.284 64.9957C102.16 67.3507 98.8081 68.2534 97.6757 67.178C96.7409 66.3145 97.1437 63.9987 98.1089 62.6171H98.1165Z" fill="black"/>
<path d="M69.8752 35.1107V37.0497C69.7237 37.0484 69.5739 37.0164 69.4344 36.9555C69.3738 36.9291 69.3057 36.9282 69.2446 36.9532C69.1834 36.9782 69.1342 37.0269 69.1076 37.0889C69.095 37.1193 69.0885 37.152 69.0882 37.185C69.0879 37.2181 69.0939 37.2508 69.1059 37.2815C69.1179 37.3121 69.1357 37.34 69.1581 37.3635C69.1806 37.387 69.2073 37.4058 69.2368 37.4186C69.4382 37.5086 69.6557 37.5541 69.8752 37.5521V38.0545C69.8741 38.0881 69.8797 38.1216 69.8914 38.153C69.9032 38.1844 69.921 38.213 69.9436 38.2372C69.9663 38.2614 69.9935 38.2806 70.0235 38.2937C70.0535 38.3068 70.0858 38.3135 70.1184 38.3135C70.1836 38.3136 70.2463 38.2873 70.2931 38.2404C70.3399 38.1935 70.3672 38.1297 70.3692 38.0623V37.4971C70.7222 37.3808 71.0195 37.1308 71.2014 36.7973C71.3833 36.4638 71.4362 36.0716 71.3496 35.6995C71.2666 35.4756 71.1351 35.2742 70.9652 35.111C70.7953 34.9477 70.5914 34.8267 70.3692 34.7575V33.0305C70.4701 33.0385 70.5697 33.0596 70.6656 33.0933C70.6955 33.106 70.7275 33.1124 70.7599 33.1122C70.7922 33.1119 70.8242 33.105 70.8539 33.0918C70.8836 33.0787 70.9105 33.0595 70.933 33.0355C70.9554 33.0115 70.973 32.9831 70.9848 32.952C71.0057 32.8893 71.0033 32.8208 70.978 32.7598C70.9527 32.6989 70.9063 32.6499 70.848 32.6223C70.6965 32.5651 70.5378 32.5307 70.3768 32.5202V32.167C70.3768 32.1003 70.3511 32.0365 70.3055 31.9893C70.2599 31.9422 70.1981 31.9158 70.1336 31.9158C70.0044 31.9158 69.8904 32.0257 69.8904 32.167V32.6144C69.6161 32.6784 69.3711 32.8368 69.1955 33.0636C69.02 33.2904 68.9243 33.5722 68.9243 33.8626C68.9243 34.153 69.02 34.4347 69.1955 34.6616C69.3711 34.8884 69.6161 35.0468 69.8904 35.1107H69.8752ZM70.8708 35.8408C70.9105 36.0578 70.8799 36.2822 70.7838 36.4795C70.6876 36.6767 70.5312 36.8357 70.3388 36.9319V35.3619C70.6124 35.4718 70.8176 35.621 70.8708 35.8408ZM69.9056 33.1482V34.5534C69.6852 34.4356 69.518 34.31 69.4724 34.1138C69.4397 33.9264 69.4638 33.7331 69.5413 33.5603C69.6188 33.3876 69.746 33.2437 69.9056 33.1482Z" fill="black"/>
<path d="M57.0312 60.741L56.8108 60.9922C56.7863 61.0151 56.7668 61.0429 56.7534 61.074C56.7401 61.1051 56.7331 61.1388 56.7331 61.1728C56.7331 61.2068 56.7401 61.2405 56.7534 61.2716C56.7668 61.3027 56.7863 61.3305 56.8108 61.3533C56.8563 61.3998 56.9178 61.4259 56.9818 61.4259C57.0458 61.4259 57.1073 61.3998 57.1528 61.3533L57.4416 61.0236C57.7265 61.1491 58.0406 61.1862 58.3456 61.1304C58.6506 61.0747 58.9333 60.9285 59.1592 60.7096C59.2963 60.4552 59.3682 60.1688 59.3682 59.8775C59.3682 59.5863 59.2963 59.2999 59.1592 59.0454L60.3676 57.6795C60.4513 57.8081 60.5106 57.952 60.5424 58.1034C60.5495 58.1361 60.5629 58.167 60.5818 58.1942C60.6006 58.2215 60.6245 58.2446 60.6522 58.2621C60.6798 58.2797 60.7105 58.2913 60.7426 58.2965C60.7746 58.3016 60.8073 58.3 60.8388 58.2918C60.9016 58.2751 60.9557 58.2339 60.9898 58.1768C61.0238 58.1197 61.035 58.0512 61.0212 57.9857C60.9639 57.7369 60.855 57.5038 60.702 57.3027L60.9604 57.0123C61.0059 56.9639 61.0313 56.8992 61.0313 56.8317C61.0313 56.7643 61.0059 56.6995 60.9604 56.6512C60.9149 56.6047 60.8534 56.5786 60.7894 56.5786C60.7254 56.5786 60.6639 56.6047 60.6184 56.6512L60.3524 56.9573C60.0889 56.808 59.7844 56.7546 59.4879 56.8059C59.1915 56.8572 58.9204 57.0101 58.7184 57.2399C58.5764 57.4837 58.497 57.7609 58.4877 58.0453C58.4784 58.3296 58.5395 58.6117 58.6652 58.8649L57.3732 60.325C57.2395 60.2207 57.1303 60.0865 57.054 59.9325C57.0206 59.8754 56.9678 59.8333 56.906 59.8144C56.8441 59.7955 56.7776 59.8013 56.7196 59.8304C56.663 59.8635 56.621 59.9181 56.6026 59.9825C56.5841 60.047 56.5907 60.1163 56.6208 60.1758C56.717 60.3923 56.857 60.585 57.0312 60.741ZM58.7944 60.3721C58.6607 60.4886 58.5015 60.5695 58.3306 60.6078C58.1597 60.6461 57.9824 60.6407 57.814 60.5919L58.7944 59.4693C58.916 59.8383 58.9616 60.168 58.7944 60.3721ZM59.068 57.6089C59.1823 57.4813 59.3307 57.3916 59.4944 57.351C59.658 57.3105 59.8297 57.321 59.9876 57.3812L59.0376 58.4645C58.9803 58.3284 58.954 58.1805 58.9606 58.0322C58.9672 57.8839 59.0065 57.7391 59.0756 57.6089H59.068Z" fill="black"/>
<path d="M102.046 62.2169L102.22 61.9736C102.26 61.9205 102.277 61.8534 102.268 61.7872C102.26 61.7209 102.226 61.6609 102.175 61.6203C102.123 61.5797 102.058 61.5619 101.994 61.5707C101.93 61.5795 101.872 61.6143 101.833 61.6674L101.597 61.9814C101.349 61.9053 101.086 61.9032 100.837 61.9755C100.588 62.0477 100.364 62.1913 100.191 62.3896C100.062 62.6298 99.9943 62.8999 99.9943 63.1746C99.9943 63.4493 100.062 63.7195 100.191 63.9596L99.2259 65.2863C99.0751 65.2012 98.9511 65.0731 98.8687 64.9173C98.8523 64.8889 98.8306 64.8641 98.8049 64.8444C98.7792 64.8247 98.75 64.8104 98.7189 64.8024C98.6878 64.7944 98.6555 64.7927 98.6239 64.7976C98.5922 64.8026 98.5618 64.8139 98.5343 64.831C98.5062 64.8473 98.4815 64.8692 98.4617 64.8954C98.4418 64.9217 98.4272 64.9518 98.4187 64.9839C98.4102 65.0161 98.408 65.0496 98.4122 65.0827C98.4164 65.1157 98.4269 65.1476 98.4431 65.1764C98.5625 65.387 98.7294 65.5647 98.9295 65.6945L98.6331 66.0948C98.6065 66.1491 98.5992 66.2114 98.6126 66.2708C98.626 66.3301 98.6592 66.3826 98.7064 66.4192C98.7535 66.4557 98.8117 66.4739 98.8706 66.4706C98.9295 66.4673 98.9853 66.4426 99.0284 66.401L99.3931 65.8986C99.6251 65.9508 99.8663 65.9383 100.092 65.8624C100.318 65.7866 100.52 65.65 100.678 65.4668C100.798 65.254 100.866 65.0137 100.876 64.7672C100.885 64.5207 100.835 64.2757 100.731 64.0538L101.757 62.6487C101.86 62.7278 101.948 62.8263 102.015 62.9391C102.031 62.9677 102.053 62.9925 102.079 63.0121C102.105 63.0317 102.135 63.0456 102.166 63.0529C102.197 63.0603 102.23 63.0609 102.261 63.0549C102.293 63.0488 102.323 63.0361 102.35 63.0176C102.377 63.0006 102.401 62.9782 102.42 62.9517C102.439 62.9251 102.453 62.8949 102.461 62.8628C102.469 62.8307 102.47 62.7974 102.465 62.7647C102.461 62.732 102.45 62.7005 102.433 62.6722C102.337 62.4938 102.204 62.3386 102.046 62.2169ZM100.571 62.7193C100.66 62.619 100.77 62.5408 100.892 62.4905C101.015 62.4402 101.147 62.4191 101.278 62.4289L100.518 63.4337C100.475 63.3169 100.459 63.1912 100.472 63.067C100.485 62.9427 100.527 62.8235 100.594 62.7193H100.571ZM100.298 65.0743C100.149 65.2393 99.9452 65.3402 99.7275 65.3569L100.351 64.5013C100.39 64.6002 100.406 64.7075 100.396 64.8141C100.387 64.9207 100.353 65.0234 100.298 65.1136V65.0743Z" fill="black"/>
<path d="M102.707 142.028C103.581 141.926 104.447 141.816 105.321 141.698C105.366 141.692 105.409 141.674 105.444 141.644C105.479 141.615 105.505 141.576 105.52 141.532C105.535 141.488 105.538 141.441 105.529 141.395C105.519 141.35 105.497 141.308 105.466 141.274C103.954 139.659 102.531 137.958 101.202 136.18C98.8842 133.04 97.6682 131.093 89.0422 115.62C89.0201 115.582 88.9889 115.551 88.9516 115.529C88.9144 115.507 88.8723 115.495 88.8294 115.495C88.8294 115.495 71.7902 115.77 68.9782 115.77C64.8514 115.691 63.5214 115.55 63.0578 115.542C62.807 115.542 62.807 115.581 62.7614 115.683C61.0654 119.314 59.1305 122.821 56.9702 126.179C55.0702 129.107 53.4134 131.273 50.4038 135.206C46.3302 140.544 44.9622 142.051 44.5594 142.585C44.2858 142.946 44.4834 143.119 44.643 143.127L47.5006 143.237L45.4638 146.793C45.4401 146.83 45.4267 146.873 45.4252 146.918C45.4238 146.963 45.4342 147.007 45.4554 147.046C45.4765 147.085 45.5077 147.117 45.5454 147.138C45.583 147.16 45.6258 147.171 45.669 147.17C78.8886 147.311 89.5134 147.295 105.306 145.709C105.351 145.705 105.393 145.688 105.429 145.66C105.465 145.632 105.493 145.595 105.509 145.552C105.526 145.509 105.531 145.462 105.523 145.416C105.515 145.371 105.495 145.328 105.466 145.293L102.707 142.028ZM57.373 126.414C59.5188 123.09 61.4411 119.617 63.1262 116.021C70.8478 116.445 74.017 116.217 88.7078 116.021C90.9878 120.142 93.3894 124.389 95.8062 128.628C98.2683 133.214 101.282 137.46 104.774 141.266C88.761 143.339 77.6346 143.339 63.643 143.103C55.5262 142.97 49.203 142.766 45.1674 142.609C48.253 138.809 54.4622 130.92 57.373 126.414Z" fill="black"/>
<path d="M64.3345 121.586C66.8805 121.806 69.3277 121.908 71.7825 121.908H82.9013C82.9594 121.898 83.012 121.866 83.0499 121.82C83.0878 121.773 83.1086 121.714 83.1086 121.653C83.1086 121.592 83.0878 121.533 83.0499 121.487C83.012 121.44 82.9594 121.409 82.9013 121.398C73.2645 121.327 70.7413 121.673 64.3725 121.115C64.3269 121.132 64.2869 121.162 64.2574 121.201C64.2278 121.241 64.21 121.288 64.2059 121.338C64.2019 121.388 64.2119 121.438 64.2347 121.482C64.2575 121.526 64.2922 121.562 64.3345 121.586Z" fill="black"/>
<path d="M61.4543 126.681C69.0543 127.019 73.4623 126.532 83.7907 126.336C83.8226 126.335 83.8541 126.327 83.8832 126.314C83.9123 126.3 83.9386 126.281 83.9605 126.257C83.9823 126.233 83.9994 126.204 84.0107 126.173C84.022 126.142 84.0273 126.11 84.0263 126.077C84.0192 126.012 83.99 125.952 83.9441 125.907C83.8982 125.863 83.8384 125.837 83.7755 125.833C73.9411 126.022 68.8567 126.508 61.4771 126.179C61.4126 126.179 61.3507 126.205 61.3051 126.252C61.2595 126.299 61.2339 126.363 61.2339 126.43C61.2339 126.496 61.2595 126.56 61.3051 126.607C61.3507 126.655 61.4126 126.681 61.4771 126.681H61.4543Z" fill="black"/>
<path d="M85.3332 129.735C69.2744 130.347 70.5284 130.637 59.9188 130.52C59.8548 130.52 59.7932 130.545 59.7466 130.59C59.7 130.635 59.6718 130.697 59.668 130.763C59.6679 130.831 59.693 130.897 59.7382 130.946C59.7834 130.996 59.8453 131.026 59.9112 131.03C68.1116 131.265 71.79 130.802 85.3484 130.284C85.4189 130.282 85.4858 130.251 85.5342 130.198C85.5827 130.145 85.6088 130.075 85.6068 130.002C85.6048 129.929 85.5748 129.86 85.5235 129.81C85.4722 129.76 85.4037 129.733 85.3332 129.735Z" fill="black"/>
<path d="M95.0461 135.395C94.6316 135.217 94.1719 135.187 93.7389 135.308C93.1765 135.481 93.0397 135.881 92.4849 136.258C91.9301 136.635 91.1777 136.863 91.0637 136.753C90.9497 136.643 91.1017 136.117 91.1549 135.921C91.2461 135.583 91.3221 135.324 91.0865 135.206C90.6381 134.986 90.4633 135.991 89.4601 136.894C88.6165 137.679 87.3245 138.228 86.8153 137.805C86.4885 137.53 86.4961 136.839 86.5721 136.47C86.7688 136.164 86.9441 135.844 87.0965 135.512C87.1161 135.459 87.1179 135.4 87.1018 135.345C87.0856 135.291 87.0524 135.243 87.0072 135.21C86.9621 135.177 86.9076 135.16 86.8523 135.162C86.7969 135.164 86.7439 135.185 86.7013 135.222C86.424 135.506 86.2247 135.861 86.1237 136.25C86.008 136.417 85.8837 136.576 85.7513 136.729C84.8697 137.757 83.4713 138.487 82.9925 138.134C82.8888 138.014 82.813 137.871 82.7709 137.716C82.7287 137.561 82.7213 137.398 82.7493 137.239C82.9387 137.027 83.1139 136.801 83.2737 136.564C83.6826 136.027 83.9637 135.397 84.0945 134.727C84.0811 134.65 84.0405 134.58 83.9805 134.531C83.6005 134.256 82.9697 135.112 82.7417 135.528C82.4904 135.988 82.3302 136.495 82.2705 137.02C81.1761 138.197 79.6789 138.966 79.1013 138.542C78.7821 138.315 78.6909 137.687 78.8277 136.69C78.9855 135.717 79.4829 134.837 80.2261 134.217C80.2711 134.17 80.2964 134.107 80.2964 134.04C80.2964 133.974 80.2711 133.911 80.2261 133.864C80.1845 133.811 80.1245 133.778 80.0591 133.77C79.9937 133.763 79.9281 133.782 79.8765 133.825C79.0411 134.523 78.4838 135.515 78.3109 136.611C78.2425 137.114 78.0601 138.44 78.7821 138.966C79.6941 139.626 81.3661 138.542 82.2401 137.726C82.5213 139.602 84.7633 138.511 86.0401 137.161C86.2301 139.461 89.0801 138.378 90.5393 136.423C90.4025 137.671 91.7173 137.412 92.7509 136.69C92.961 136.542 93.1569 136.374 93.3361 136.187C93.4779 136.013 93.6613 135.881 93.8681 135.803C94.1962 135.716 94.5427 135.741 94.8561 135.873C94.886 135.886 94.9181 135.892 94.9503 135.892C94.9825 135.891 95.0144 135.884 95.044 135.871C95.0737 135.858 95.1005 135.839 95.1231 135.815C95.1456 135.791 95.1633 135.763 95.1753 135.732C95.1873 135.701 95.1932 135.668 95.1929 135.635C95.1925 135.602 95.1857 135.569 95.173 135.538C95.1603 135.507 95.1419 135.48 95.1188 135.456C95.0957 135.433 95.0685 135.415 95.0385 135.402L95.0461 135.395Z" fill="black"/>
<path d="M61.1729 83.1135C61.2197 83.1605 61.2824 83.1868 61.3477 83.1868C61.413 83.1868 61.4757 83.1605 61.5225 83.1135C61.5457 83.0908 61.5642 83.0634 61.5769 83.033C61.5895 83.0026 61.596 82.9699 61.596 82.9369C61.596 82.9038 61.5895 82.8711 61.5769 82.8407C61.5642 82.8104 61.5457 82.783 61.5225 82.7602C60.8993 82.1821 60.4572 81.4252 60.2528 80.5861C60.0484 79.7471 60.0909 78.8642 60.3749 78.0502C60.3854 78.0188 60.3897 77.9855 60.3878 77.9523C60.3858 77.9192 60.3775 77.8867 60.3634 77.8568C60.3493 77.8269 60.3296 77.8002 60.3055 77.7782C60.2814 77.7561 60.2533 77.7392 60.2229 77.7284C60.1924 77.7176 60.1602 77.713 60.1281 77.7151C60.096 77.7171 60.0645 77.7257 60.0356 77.7402C60.0067 77.7548 59.9808 77.7751 59.9595 77.8C59.9381 77.8249 59.9218 77.8539 59.9113 77.8854C59.5957 78.7878 59.5471 79.7668 59.7718 80.6978C59.9964 81.6287 60.4842 82.4697 61.1729 83.1135Z" fill="black"/>
<path d="M26.2891 62.8526C26.3456 62.4077 26.5515 61.9973 26.871 61.6932C27.1904 61.389 27.6032 61.2104 28.0371 61.1884C28.3566 61.2029 28.6664 61.306 28.9339 61.487C29.2014 61.6679 29.4167 61.9201 29.5571 62.2168C29.5863 62.2772 29.6376 62.3231 29.6996 62.3444C29.7616 62.3658 29.8293 62.3608 29.8877 62.3306C29.9462 62.3004 29.9906 62.2475 30.0113 62.1834C30.0319 62.1194 30.0271 62.0495 29.9979 61.9891C29.813 61.6063 29.5307 61.2828 29.1812 61.0532C28.8318 60.8236 28.4284 60.6967 28.0143 60.686C27.4631 60.7079 26.9367 60.9289 26.527 61.3105C26.1173 61.692 25.8502 62.21 25.7723 62.7741C25.7622 62.8449 25.7798 62.9169 25.8211 62.9744C25.8625 63.0318 25.9242 63.0699 25.9927 63.0803C26.0612 63.0907 26.131 63.0726 26.1866 63.0299C26.2421 62.9872 26.279 62.9234 26.2891 62.8526Z" fill="black"/>
<path d="M31.6014 90.1708C31.633 90.1178 31.6452 90.0549 31.6356 89.9936C31.626 89.9322 31.5954 89.8764 31.5493 89.8364C31.5032 89.7964 31.4447 89.7749 31.3845 89.7757C31.3243 89.7766 31.2664 89.7998 31.2214 89.8411C30.9026 90.2828 30.4371 90.5875 29.9142 90.6967C28.7362 90.8616 27.1098 89.5742 26.4106 87.1093C26.4016 87.0773 26.3866 87.0475 26.3665 87.0215C26.3464 86.9955 26.3215 86.9739 26.2932 86.9579C26.265 86.9418 26.234 86.9317 26.202 86.928C26.17 86.9244 26.1376 86.9273 26.1066 86.9366C26.0757 86.9458 26.0468 86.9613 26.0217 86.9821C25.9965 87.0029 25.9756 87.0286 25.9601 87.0578C25.9445 87.087 25.9347 87.119 25.9312 87.1521C25.9276 87.1851 25.9304 87.2186 25.9394 87.2506C26.8286 90.3827 29.5798 92.6357 31.6014 90.1708Z" fill="black"/>
<path d="M116.767 64.8466C116.974 64.4977 117.246 64.1954 117.569 63.958C117.892 63.7206 118.257 63.5529 118.644 63.465C120.088 63.2766 121.98 64.7995 122.543 67.602C122.549 67.6345 122.562 67.6655 122.58 67.693C122.598 67.7205 122.621 67.7441 122.648 67.7623C122.674 67.7806 122.705 67.7932 122.736 67.7993C122.768 67.8055 122.8 67.8051 122.832 67.7982C122.864 67.7927 122.894 67.7804 122.921 67.7622C122.949 67.7439 122.972 67.72 122.99 67.692C123.008 67.6639 123.02 67.6324 123.025 67.5994C123.031 67.5664 123.029 67.5325 123.022 67.4999C122.262 63.6534 118.667 61.1493 116.364 64.5562C116.346 64.5839 116.333 64.6151 116.326 64.648C116.32 64.6809 116.32 64.7148 116.326 64.7477C116.332 64.7807 116.345 64.812 116.363 64.8397C116.382 64.8675 116.405 64.8912 116.432 64.9094C116.458 64.9287 116.487 64.9423 116.518 64.9495C116.549 64.9568 116.581 64.9575 116.613 64.9516C116.644 64.9458 116.674 64.9335 116.7 64.9154C116.727 64.8974 116.749 64.874 116.767 64.8466Z" fill="black"/>
<path d="M116.326 93.7267C117.372 93.6495 118.389 93.3394 119.307 92.8177C120.225 92.296 121.023 91.5751 121.646 90.7044C122.322 89.6617 122.711 88.4488 122.771 87.1955C122.773 87.1622 122.769 87.1289 122.758 87.0975C122.747 87.0661 122.73 87.0374 122.708 87.0131C122.686 86.9889 122.659 86.9695 122.629 86.9563C122.6 86.9431 122.568 86.9363 122.535 86.9364C122.472 86.936 122.41 86.9597 122.363 87.0032C122.315 87.0466 122.285 87.1067 122.277 87.1719C122.225 88.332 121.867 89.4555 121.243 90.4218C120.659 91.2324 119.911 91.9026 119.052 92.3863C118.192 92.8701 117.242 93.156 116.265 93.2243C116.201 93.2326 116.142 93.267 116.102 93.32C116.063 93.373 116.045 93.4402 116.053 93.5069C116.061 93.5735 116.094 93.6341 116.145 93.6753C116.197 93.7165 116.262 93.735 116.326 93.7267Z" fill="black"/>
<path d="M148.474 110.769H139.354L131.602 88.5772L138.123 42.9687C138.131 42.9149 138.122 42.8598 138.098 42.8117C138.073 42.7635 138.034 42.725 137.986 42.7018C134.855 41.2025 133.829 40.6844 133.426 40.5431C133.221 40.4724 133.198 40.5431 133.137 40.5431L113.902 59.7049C113.803 59.7991 113.902 59.281 112.746 68.5362C106.666 70.4123 98.6408 72.9008 93.7464 74.4001C93.683 74.4201 93.6299 74.4651 93.5985 74.5254C93.5672 74.5857 93.5603 74.6564 93.5792 74.722L93.8452 75.6247L91.626 76.6138C91.5782 76.6337 91.5377 76.6687 91.5104 76.7138C91.483 76.759 91.4703 76.8119 91.474 76.865L91.588 78.1289C89.9665 77.7746 88.4211 77.1175 87.028 76.1899C85.0021 74.7887 82.6896 73.8913 80.2716 73.568C78.586 73.4264 76.8906 73.662 75.3012 74.2588C74.1761 73.66 73.0072 73.1535 71.8052 72.7438C70.7271 72.3356 69.5716 72.1931 68.4308 72.3277C67.9672 72.4062 67.5264 72.5397 65.1628 73.7643C64.2508 74.2353 63.4832 74.6356 62.9436 74.9339L58.4292 74.7769C58.4249 74.7037 58.4249 74.6303 58.4292 74.5571C58.4367 74.4984 58.4251 74.4388 58.3962 74.3876C58.3674 74.3364 58.3228 74.2967 58.2696 74.2745L55.8528 73.3796C55.9364 72.995 56.0048 72.5946 56.0808 72.2335C56.0945 72.1711 56.0839 72.1056 56.0511 72.0512C56.0184 71.9969 55.9663 71.958 55.906 71.9431C52.8204 71.0246 39.5888 67.0447 35.728 65.8672C34.8692 59.3595 34.968 59.7363 34.854 59.65C18.6432 43.3769 16.1124 40.9591 15.6868 40.598C15.55 40.4724 15.5044 40.4803 15.3752 40.5274C15.0484 40.653 14.106 41.1318 10.8152 42.7097C10.7668 42.7326 10.7268 42.7708 10.7008 42.8188C10.6749 42.8668 10.6644 42.922 10.6708 42.9766L17.26 88.7107L9.56121 110.769H4.07401C4.01593 110.78 3.96331 110.811 3.92539 110.858C3.88748 110.904 3.8667 110.963 3.8667 111.024C3.8667 111.085 3.88748 111.144 3.92539 111.191C3.96331 111.237 4.01593 111.269 4.07401 111.279H9.39401L5.67761 121.924C4.24121 125.802 6.50601 129.115 9.39401 129.209C40.0828 130.402 38.008 130.245 38.1144 130.182L42.4616 127.121C42.495 127.097 42.5222 127.066 42.5407 127.029C42.5593 126.992 42.5687 126.95 42.568 126.909V125.103C42.568 125.037 42.5424 124.973 42.4968 124.926C42.4512 124.879 42.3893 124.852 42.3248 124.852L17.298 124.805C15.4816 124.805 13.688 122.795 14.448 120.173L17.5716 111.279H20.566L21.6376 118.713C21.6467 118.773 21.6763 118.827 21.721 118.866C21.7656 118.905 21.8224 118.926 21.8808 118.925L26.7676 118.541L42.188 114.521C42.2471 114.507 42.2987 114.469 42.3325 114.417C42.3662 114.365 42.3798 114.301 42.3704 114.239L41.9904 111.279H106.856L106.438 114.278C106.433 114.341 106.449 114.404 106.483 114.455C106.518 114.507 106.57 114.544 106.628 114.561C121.722 118.352 122.155 118.486 122.239 118.486L127.103 118.87C127.16 118.869 127.215 118.847 127.258 118.809C127.301 118.77 127.329 118.717 127.338 118.658L128.395 111.264H131.435L134.551 120.142C134.735 120.697 134.789 121.289 134.707 121.869C134.625 122.449 134.41 123.001 134.08 123.478C133.802 123.874 133.441 124.2 133.023 124.431C132.606 124.663 132.144 124.793 131.67 124.813H106.674C106.609 124.822 106.549 124.854 106.504 124.905C106.46 124.955 106.434 125.02 106.431 125.088V126.893C106.432 126.934 106.442 126.975 106.461 127.012C106.479 127.048 106.505 127.08 106.537 127.105L110.892 130.167C110.991 130.237 108.969 130.386 139.605 129.193C142.462 129.083 144.72 125.786 143.283 121.916L139.567 111.264H148.474C148.525 111.247 148.57 111.214 148.601 111.17C148.633 111.125 148.65 111.072 148.65 111.016C148.65 110.961 148.633 110.907 148.601 110.863C148.57 110.818 148.525 110.786 148.474 110.769ZM117.025 90.3592C117.933 89.9066 118.732 89.2525 119.366 88.4438C124.61 79.5968 121.319 66.3225 121.289 66.189C121.281 66.1563 121.267 66.1256 121.247 66.0989C121.227 66.0722 121.202 66.05 121.174 66.0337C121.145 66.0175 121.113 66.0076 121.081 66.0046C121.048 66.0016 121.016 66.0056 120.985 66.0163L114.768 67.8846L115.642 60.3329L130.774 47.3961L123.576 97.3614L110.808 98.7273L111.667 92.2667L117.025 90.3592ZM93.9972 76.1428L99.5072 94.7552L96.7104 95.5402C94.0959 89.7074 92.4982 83.4439 91.9908 77.0377L93.9972 76.1428ZM86.7468 76.6531C88.241 77.6479 89.9044 78.3405 91.6488 78.6941C92.1085 82.897 93.0316 87.032 94.4 91.0186C93.8672 90.9563 93.3423 90.8352 92.8344 90.6575C92.5371 89.6823 92.0682 88.7722 91.4512 87.9728C90.9344 87.2663 89.5664 85.3901 87.94 85.6963C87.6387 85.7559 87.3522 85.8777 87.0975 86.0544C86.8429 86.2311 86.6254 86.4591 86.458 86.7246C86.3216 87.044 86.2556 87.3906 86.2648 87.7395C86.274 88.0885 86.3582 88.4309 86.5112 88.7421C86.0314 88.3674 85.4277 88.2038 84.8316 88.2868C84.4143 88.3862 84.0253 88.5849 83.6954 88.867C83.3656 89.1491 83.104 89.5068 82.9316 89.9117C82.6724 90.5494 82.6401 91.2614 82.8404 91.9213C82.5232 91.6797 82.1593 91.5114 81.7734 91.4281C81.3876 91.3448 80.9889 91.3483 80.6045 91.4384C80.2201 91.5286 79.859 91.7032 79.5458 91.9504C79.2326 92.1977 78.9747 92.5117 78.7896 92.8712C78.6222 93.2396 78.5354 93.6417 78.5354 94.0487C78.5354 94.4557 78.6222 94.8577 78.7896 95.2262C78.2222 94.9831 77.5928 94.9413 76.9999 95.1076C76.4071 95.2738 75.8845 95.6385 75.514 96.1446C75.3093 96.5066 75.189 96.9128 75.1626 97.3311C75.1363 97.7494 75.2045 98.1683 75.362 98.5546C74.6061 99.2571 73.6782 99.7323 72.6792 99.9283C72.1125 100.117 71.4984 100.083 70.954 99.8341C70.6585 99.6172 70.4151 99.3331 70.2425 99.0038C70.0699 98.6744 69.9727 98.3086 69.9584 97.9344C70.162 97.8089 70.3464 97.6528 70.5056 97.4713C71.2656 96.6863 72.892 95.1163 75.5596 92.6278C75.6046 92.5808 75.6299 92.5173 75.6299 92.4512C75.6299 92.3851 75.6046 92.3216 75.5596 92.2746C75.5128 92.2276 75.4501 92.2013 75.3848 92.2013C75.3195 92.2013 75.2568 92.2276 75.21 92.2746C72.5348 94.7395 70.8704 96.333 70.1256 97.1494C69.7674 97.5429 69.2908 97.7997 68.7734 97.8781C68.256 97.9564 67.7282 97.8518 67.2756 97.5812C66.9266 97.3187 66.6628 96.9532 66.519 96.5328C66.3752 96.1124 66.3581 95.6568 66.47 95.2262C66.7537 95.1036 67.0217 94.9454 67.268 94.7552C68.788 93.562 72.2308 89.5035 72.8996 88.7028C72.9228 88.6801 72.9413 88.6527 72.954 88.6223C72.9666 88.592 72.9731 88.5593 72.9731 88.5262C72.9731 88.4931 72.9666 88.4604 72.954 88.4301C72.9413 88.3997 72.9228 88.3723 72.8996 88.3496C72.8541 88.3031 72.7926 88.277 72.7286 88.277C72.6646 88.277 72.6031 88.3031 72.5576 88.3496C71.8888 89.1346 68.4764 93.1695 66.9944 94.3234C66.2344 94.92 64.7144 95.3518 64 94.7002C63.2856 94.0487 63.6276 92.3452 63.6504 92.251C63.7848 91.7832 64.0214 91.3535 64.342 90.995C65.0108 90.21 68.8412 85.7355 69.7456 84.6758C71.0486 84.6648 72.326 84.3008 73.4503 83.6204C74.5745 82.9399 75.5062 81.9667 76.1524 80.7979C77.2544 83.8044 80.6212 86.34 83.3192 85.4451C83.8284 85.2724 84.406 85.084 84.6264 84.5345C85.0824 83.3884 83.4864 82.4385 81.0088 79.1729C79.5648 77.2654 79.39 76.6452 78.1816 75.766C77.4488 75.3152 76.687 74.9165 75.9016 74.5728C79.8992 73.2776 83.2432 74.4237 86.7468 76.6217V76.6531ZM75.9168 96.4351C76.1555 96.1183 76.4686 95.8698 76.8264 95.7132C77.1842 95.5566 77.5749 95.497 77.9612 95.5402C78.4723 95.6069 78.9464 95.8504 79.3064 96.231C79.6174 96.7421 79.9628 97.23 80.34 97.6911C81.0392 98.9157 81.7612 100.996 80.9024 101.875C80.5939 102.172 80.1913 102.342 79.77 102.354C78.4248 102.417 77.4444 101.129 77.0112 100.548C75.7268 98.845 75.3316 97.3457 75.9168 96.4351ZM76.9048 101.231C76.6255 101.409 76.3118 101.52 75.9861 101.558C75.6604 101.596 75.3306 101.56 75.02 101.451C74.7364 101.331 74.4792 101.153 74.2637 100.928C74.0482 100.702 73.879 100.435 73.766 100.14C74.403 99.8857 74.994 99.5222 75.514 99.0648C75.8876 99.8445 76.3549 100.572 76.9048 101.231ZM80.7048 97.4006C80.4084 96.8682 80.0567 96.3707 79.656 95.917C79.1316 95.0378 78.7364 93.9859 79.1848 93.1302C79.3874 92.7533 79.6837 92.4389 80.043 92.2196C80.4023 92.0002 80.8118 91.8837 81.2292 91.8821C81.662 91.9214 82.08 92.0638 82.4505 92.2981C82.8211 92.5324 83.134 92.8521 83.3648 93.2323C83.5377 93.5268 83.728 93.8099 83.9348 94.0801C84.6492 95.2262 85.394 96.6235 84.8316 97.8873C84.6984 98.2164 84.4909 98.5078 84.2265 98.7372C83.9621 98.9666 83.6484 99.1274 83.3116 99.2061C82.2856 99.3239 81.3964 98.2327 80.7428 97.4006H80.7048ZM84.3528 93.8132C84.292 93.7347 84.0488 93.3265 83.7752 92.9497C83.4827 92.5553 83.2899 92.0918 83.2143 91.6012C83.1387 91.1105 83.1826 90.6081 83.342 90.1394C83.4775 89.8102 83.6854 89.5181 83.9492 89.2865C84.2131 89.0548 84.5256 88.8899 84.862 88.8049C86.0628 88.6086 87.0812 89.9196 87.7576 90.9636C89.118 93.0282 88.9736 94.1978 88.6164 94.8101C88.3669 95.2158 87.9835 95.5142 87.5372 95.6501C86.2376 96.0269 84.9076 94.4883 84.3908 93.7896L84.3528 93.8132ZM88.1528 90.6732C87.4612 89.6605 86.2984 88.0513 86.838 86.9758C87.1001 86.5697 87.5073 86.2875 87.9704 86.1908C89.3004 85.9396 90.5392 87.6274 91.0104 88.2711C91.7704 89.3465 92.8876 91.2462 92.1732 92.3766C92.0399 92.5817 91.8647 92.7542 91.6598 92.8817C91.4549 93.0092 91.2255 93.0887 90.9876 93.1145C89.954 93.2009 89.0648 91.9135 88.206 90.6496L88.1528 90.6732ZM58.3076 75.2793C63.2932 75.452 62.9968 75.4599 63.0804 75.4128C63.6276 75.1145 64.4104 74.6984 65.3604 74.2117C68.4916 72.6417 68.7576 72.4219 71.6532 73.2305C72.8938 73.664 74.1028 74.1886 75.2708 74.8005C76.1764 75.196 77.0572 75.6496 77.908 76.1585C79.428 77.2889 79.1392 77.9326 82.8708 82.1638C83.9044 83.3413 84.3908 83.8751 84.1856 84.3147C83.9804 84.7543 83.6232 84.7857 83.1596 84.9427C81.4192 85.5236 79.6332 84.3618 78.7212 83.616C77.6357 82.6946 76.8417 81.4589 76.4412 80.0678C76.4267 80.0203 76.3989 79.9783 76.3612 79.9471C76.3236 79.916 76.2778 79.8971 76.2298 79.8929C76.1817 79.8887 76.1335 79.8993 76.0913 79.9235C76.0491 79.9477 76.0148 79.9842 75.9928 80.0286C75.3865 81.29 74.4557 82.3546 73.3024 83.1058C70.0648 85.1468 66.4624 83.616 65.7024 83.2942C65.6735 83.2795 65.6421 83.271 65.6099 83.269C65.5778 83.267 65.5456 83.2716 65.5152 83.2825C65.4848 83.2935 65.4568 83.3106 65.4328 83.3328C65.4089 83.355 65.3894 83.3819 65.3756 83.4119C65.3495 83.4735 65.3476 83.5431 65.3703 83.6061C65.393 83.6691 65.4385 83.7205 65.4972 83.7495C66.6271 84.2629 67.8368 84.5634 69.0692 84.6365C68.3092 85.5707 64.6156 89.8725 63.9544 90.6339C63.6276 90.9792 63.3694 91.3872 63.1944 91.835C61.4185 91.3218 59.7492 90.4756 58.2696 89.3387C57.2177 89.2133 56.1916 88.9166 55.2296 88.4595C56.484 84.1264 57.5115 79.7266 58.3076 75.2793ZM55.754 73.8899L57.9124 74.6749C56.8408 80.9331 55.3166 87.0995 53.3524 93.1224L50.8368 92.4787C52.8254 86.3867 54.4673 80.1799 55.754 73.8899ZM36.9592 89.739L38.1144 98.7901L25.2856 97.33L18.0732 47.4746L33.1972 60.5135L33.6836 65.2235L27.3908 63.3002C27.3467 63.2881 27.3002 63.2882 27.2562 63.3006C27.2121 63.313 27.172 63.3373 27.14 63.3709C27.0564 63.4729 24.9892 65.8515 24.7536 72.8929C24.5788 78.1367 25.468 83.0194 29.0628 86.8738C29.2148 87.0622 36.0548 89.4329 36.9592 89.739ZM42.074 126.76L37.894 129.696L9.39401 128.706C6.88601 128.597 4.83401 125.676 6.14881 122.105C7.75241 117.661 15.8844 94.2214 17.4424 89.7626L17.868 92.6828L7.76001 122.23C6.87841 125.37 7.97281 127.537 11.0964 127.725L37.3164 128.738C37.4228 128.738 37.0352 128.981 42.0436 125.598L42.074 126.76ZM13.954 120.001C13.7455 120.631 13.6864 121.303 13.7816 121.961C13.8768 122.62 14.1236 123.245 14.5012 123.784C14.8198 124.25 15.2377 124.634 15.7226 124.906C16.2075 125.178 16.7465 125.332 17.298 125.354H41.4736L37.248 128.212L11.1192 127.207C8.30721 127.074 7.44081 125.182 8.23121 122.411L18.0048 93.7896L19.5248 104.207C16.7736 111.955 21.8124 97.5969 13.954 120.016V120.001ZM17.754 110.753L19.6996 105.204L20.5052 110.753H17.754ZM26.874 117.975L15.8236 41.4458L34.474 59.9483L35.234 65.7102L34.2156 65.3962C33.6456 59.9012 33.7216 60.2623 33.6076 60.1681L17.8908 46.6347C17.8517 46.6033 17.8045 46.5846 17.7552 46.5809C17.7058 46.5772 17.6565 46.5887 17.6135 46.6139C17.5704 46.639 17.5355 46.6768 17.5132 46.7224C17.4909 46.768 17.4821 46.8194 17.488 46.8702L24.8296 97.5969C24.8388 97.6509 24.8643 97.7006 24.9026 97.7387C24.9408 97.7768 24.9898 97.8013 25.0424 97.8088L38.3728 99.3317C38.4097 99.3343 38.4467 99.3285 38.4812 99.3146C38.5156 99.3007 38.5467 99.2791 38.5721 99.2513C38.5976 99.2235 38.6167 99.1903 38.6282 99.154C38.6398 99.1177 38.6434 99.0792 38.6388 99.0413L37.514 89.9117L38.7984 90.3435L41.8384 114.082L26.874 117.975ZM41.8612 110.769L39.2544 90.5162C42.834 91.6937 49.9476 93.8603 50.1908 93.8603C50.2416 93.8607 50.2914 93.8451 50.3334 93.8157C50.3755 93.7863 50.4079 93.7443 50.4264 93.6954L50.6696 92.9575C53.3828 93.6483 53.4284 93.6719 53.5044 93.6719C53.5564 93.6729 53.6073 93.6567 53.6497 93.6256C53.6921 93.5945 53.7238 93.5502 53.74 93.4992C54.2264 91.9998 54.6976 90.4926 55.1308 88.9697C56.0964 89.4165 57.1209 89.7128 58.1708 89.8489C59.6355 90.9996 61.3031 91.8448 63.0804 92.3374C62.5788 94.5982 63.7568 95.9876 65.9152 95.3753C65.8564 95.7398 65.8739 96.113 65.9667 96.4698C66.0594 96.8266 66.2252 97.1587 66.4529 97.4437C66.6805 97.7287 66.9647 97.9599 67.2863 98.1218C67.6078 98.2836 67.9592 98.3723 68.3168 98.3819C68.7039 98.3786 69.0874 98.3042 69.4492 98.1621C69.4885 98.5858 69.6187 98.9952 69.8303 99.3605C70.042 99.7258 70.3298 100.038 70.6728 100.274C71.3166 100.589 72.0509 100.645 72.7324 100.431C72.9122 100.397 73.0899 100.353 73.2644 100.297C73.3966 100.688 73.6145 101.042 73.9011 101.331C74.1876 101.62 74.535 101.837 74.9162 101.965C75.2973 102.093 75.7019 102.128 76.0983 102.067C76.4947 102.007 76.8722 101.852 77.2012 101.616C77.5102 102.009 77.901 102.324 78.3444 102.539C78.7879 102.754 79.2726 102.862 79.7624 102.856C80.3013 102.84 80.8154 102.62 81.2064 102.236C81.9664 101.451 81.8068 100.109 81.4116 98.9471C81.6579 99.2141 81.9574 99.4226 82.2894 99.5581C82.6214 99.6937 82.978 99.753 83.3344 99.7321C83.7607 99.6491 84.1605 99.4589 84.4986 99.1782C84.8366 98.8975 85.1024 98.535 85.2724 98.1228C85.4415 97.6945 85.522 97.2345 85.5089 96.7722C85.4958 96.3099 85.3894 95.8555 85.1964 95.4381C85.5278 95.7472 85.9238 95.9731 86.3535 96.0984C86.7832 96.2236 87.2351 96.2448 87.674 96.1603C88.238 95.9914 88.7221 95.6142 89.0344 95.1006C89.2198 94.7547 89.3307 94.3715 89.3595 93.9773C89.3884 93.583 89.3345 93.187 89.2016 92.8162C89.4363 93.0771 89.7229 93.2823 90.0417 93.4179C90.3605 93.5534 90.704 93.6159 91.0484 93.6012C91.3264 93.5785 91.5969 93.497 91.8431 93.3619C92.0894 93.2267 92.3062 93.0408 92.48 92.8156C92.6539 92.5904 92.7811 92.3307 92.8538 92.0527C92.9265 91.7746 92.9432 91.4841 92.9028 91.1991C93.4372 91.3672 93.9876 91.4752 94.5444 91.521C95.0764 93.0125 95.6692 94.4804 96.3228 95.9248C96.3421 95.9681 96.3733 96.0045 96.4125 96.0296C96.4517 96.0547 96.4971 96.0674 96.5432 96.0661C96.6192 96.0661 96.6496 96.0661 99.5832 95.2105C99.9176 96.3644 99.9024 96.3958 100.032 96.4586C100.161 96.5214 99.53 96.7255 109.25 93.1616L106.818 110.777L41.8612 110.769ZM122.003 117.936L106.894 114.121L109.843 93.0046L111.15 92.5258L110.284 99.0413C110.284 99.1983 110.345 99.316 110.565 99.3082C111.15 99.3082 113.537 98.9863 123.82 97.903C123.874 97.8984 123.925 97.875 123.965 97.8365C124.005 97.7981 124.032 97.7468 124.04 97.6911L131.351 46.878C131.36 46.8274 131.353 46.7754 131.332 46.7289C131.31 46.6824 131.276 46.6438 131.233 46.6181C131.19 46.5924 131.14 46.581 131.091 46.5854C131.041 46.5898 130.994 46.6097 130.956 46.6425L115.254 60.0346C115.254 60.0346 115.209 60.0346 115.178 60.2073C115.102 60.6155 114.943 62.1149 114.259 68.0573L113.263 68.3635L114.274 60.0346L132.962 41.4772C131.442 52.2317 123.744 105.973 122.026 117.936H122.003ZM128.41 110.769L129.223 105.101L131.214 110.769H128.41ZM131.655 125.307C133.783 125.307 135.843 122.952 134.969 120.001L129.398 103.995L130.918 93.6169L140.73 122.364C141.49 125.111 140.684 127.074 137.849 127.176L111.713 128.18L107.434 125.331C140.646 125.331 129.178 125.307 131.678 125.307H131.655ZM142.782 122.112C144.058 125.668 142.06 128.597 139.544 128.706L111.052 129.711L106.902 126.76V125.582L111.462 128.659C111.561 128.73 109.699 128.926 137.811 127.686C140.745 127.56 142.09 125.551 141.14 122.191L131.024 92.463L131.435 89.6056C136.208 103.21 137.834 108.328 142.804 122.112H142.782Z" fill="black"/>
</svg>
