<svg width="400" height="368" viewBox="0 0 400 368" fill="none" xmlns="http://www.w3.org/2000/svg">
<rect width="400" height="368" fill="white"/>
<path d="M31.9607 27.9173V42.4628H29.3258V27.9173H31.9607ZM39.0589 42.6758C37.9699 42.6758 37.0348 42.4367 36.2535 41.9585C35.477 41.4803 34.8781 40.8198 34.4567 39.977C34.04 39.1294 33.8317 38.1541 33.8317 37.0508C33.8317 35.9429 34.0447 34.9651 34.4709 34.1176C34.897 33.2653 35.4983 32.6024 36.2748 32.129C37.0561 31.6507 37.9794 31.4116 39.0447 31.4116C39.9302 31.4116 40.7138 31.575 41.3956 31.9017C42.0821 32.2237 42.629 32.6806 43.0362 33.2724C43.4434 33.8595 43.6754 34.5461 43.7322 35.3321H41.2748C41.1754 34.8065 40.9387 34.3685 40.5646 34.0182C40.1953 33.6631 39.7005 33.4855 39.0802 33.4855C38.5547 33.4855 38.093 33.6275 37.6953 33.9116C37.2976 34.191 36.9874 34.5935 36.7649 35.119C36.5471 35.6446 36.4382 36.2743 36.4382 37.0082C36.4382 37.7516 36.5471 38.3908 36.7649 38.9258C36.9827 39.4561 37.2881 39.8657 37.6811 40.1545C38.0788 40.4386 38.5452 40.5807 39.0802 40.5807C39.459 40.5807 39.7976 40.5096 40.0959 40.3676C40.3989 40.2208 40.6522 40.0101 40.8558 39.7355C41.0594 39.4609 41.1991 39.1271 41.2748 38.7341H43.7322C43.6707 39.5059 43.4434 40.19 43.0504 40.7866C42.6574 41.3785 42.1224 41.8425 41.4453 42.1787C40.7682 42.5101 39.9728 42.6758 39.0589 42.6758ZM50.2019 42.6758C49.1366 42.6758 48.2133 42.4415 47.432 41.9727C46.6508 41.504 46.0447 40.8482 45.6138 40.0054C45.1877 39.1626 44.9746 38.1777 44.9746 37.0508C44.9746 35.9239 45.1877 34.9367 45.6138 34.0892C46.0447 33.2417 46.6508 32.5835 47.432 32.1148C48.2133 31.646 49.1366 31.4116 50.2019 31.4116C51.2673 31.4116 52.1905 31.646 52.9718 32.1148C53.753 32.5835 54.3567 33.2417 54.7829 34.0892C55.2137 34.9367 55.4292 35.9239 55.4292 37.0508C55.4292 38.1777 55.2137 39.1626 54.7829 40.0054C54.3567 40.8482 53.753 41.504 52.9718 41.9727C52.1905 42.4415 51.2673 42.6758 50.2019 42.6758ZM50.2161 40.6162C50.7938 40.6162 51.2767 40.4576 51.665 40.1403C52.0532 39.8184 52.3421 39.3875 52.5315 38.8477C52.7256 38.3079 52.8226 37.7066 52.8226 37.0437C52.8226 36.3761 52.7256 35.7724 52.5315 35.2327C52.3421 34.6881 52.0532 34.2549 51.665 33.9329C51.2767 33.611 50.7938 33.45 50.2161 33.45C49.6243 33.45 49.1318 33.611 48.7388 33.9329C48.3506 34.2549 48.0594 34.6881 47.8653 35.2327C47.6759 35.7724 47.5812 36.3761 47.5812 37.0437C47.5812 37.7066 47.6759 38.3079 47.8653 38.8477C48.0594 39.3875 48.3506 39.8184 48.7388 40.1403C49.1318 40.4576 49.6243 40.6162 50.2161 40.6162ZM59.7824 36.0707V42.4628H57.2114V31.5537H59.6687V33.4074H59.7966C60.0475 32.7966 60.4476 32.3113 60.9969 31.9514C61.5508 31.5916 62.235 31.4116 63.0494 31.4116C63.8023 31.4116 64.458 31.5726 65.0168 31.8946C65.5802 32.2166 66.0158 32.6829 66.3236 33.2937C66.6361 33.9045 66.79 34.6455 66.7852 35.5167V42.4628H64.2142V35.9145C64.2142 35.1853 64.0248 34.6148 63.646 34.2028C63.272 33.7909 62.7535 33.5849 62.0906 33.5849C61.6408 33.5849 61.2407 33.6844 60.8903 33.8832C60.5447 34.0774 60.2724 34.3591 60.0736 34.7284C59.8794 35.0977 59.7824 35.5452 59.7824 36.0707ZM73.6734 42.4628V27.9173H79.2416C80.2927 27.9173 81.1663 28.083 81.8623 28.4145C82.5631 28.7412 83.0863 29.1886 83.432 29.7568C83.7823 30.325 83.9575 30.9689 83.9575 31.6886C83.9575 32.2805 83.8439 32.7871 83.6166 33.2085C83.3893 33.6252 83.0839 33.9637 82.7004 34.2241C82.3169 34.4845 81.8884 34.6716 81.4149 34.7852V34.9273C81.931 34.9557 82.4258 35.1143 82.8993 35.4031C83.3775 35.6872 83.7681 36.0897 84.0712 36.6105C84.3742 37.1313 84.5257 37.7611 84.5257 38.4997C84.5257 39.2525 84.3434 39.9296 83.9788 40.531C83.6142 41.1275 83.065 41.5987 82.3311 41.9443C81.5972 42.2899 80.6739 42.4628 79.5612 42.4628H73.6734ZM76.3084 40.2611H79.1422C80.0986 40.2611 80.7875 40.0788 81.2089 39.7142C81.6351 39.3449 81.8481 38.8714 81.8481 38.2937C81.8481 37.8629 81.7416 37.4746 81.5285 37.129C81.3155 36.7786 81.0124 36.504 80.6195 36.3051C80.2265 36.1015 79.7577 35.9997 79.2132 35.9997H76.3084V40.2611ZM76.3084 34.1034H78.9149C79.3695 34.1034 79.779 34.0205 80.1436 33.8548C80.5082 33.6844 80.7946 33.4452 81.003 33.1375C81.216 32.825 81.3226 32.4557 81.3226 32.0295C81.3226 31.4661 81.1237 31.0021 80.726 30.6375C80.333 30.2729 79.7482 30.0906 78.9717 30.0906H76.3084V34.1034ZM93.2574 37.8747V31.5537H95.8285V42.4628H93.3356V40.5238H93.2219C92.9757 41.1346 92.5709 41.6342 92.0074 42.0224C91.4487 42.4107 90.7598 42.6048 89.9407 42.6048C89.2257 42.6048 88.5936 42.4462 88.0444 42.129C87.4999 41.807 87.0737 41.3406 86.766 40.7298C86.4582 40.1143 86.3043 39.3709 86.3043 38.4997V31.5537H88.8753V38.102C88.8753 38.7933 89.0647 39.3425 89.4435 39.7497C89.8223 40.1569 90.3195 40.3605 90.935 40.3605C91.3138 40.3605 91.6807 40.2682 92.0359 40.0835C92.391 39.8988 92.6822 39.6242 92.9094 39.2596C93.1414 38.8903 93.2574 38.4287 93.2574 37.8747ZM103.52 31.5537V33.5423H97.2484V31.5537H103.52ZM98.7967 28.94H101.368V39.1815C101.368 39.5272 101.42 39.7923 101.524 39.977C101.633 40.1569 101.775 40.28 101.95 40.3463C102.125 40.4126 102.319 40.4457 102.533 40.4457C102.694 40.4457 102.84 40.4339 102.973 40.4102C103.11 40.3865 103.214 40.3652 103.285 40.3463L103.719 42.3562C103.581 42.4036 103.385 42.4557 103.129 42.5125C102.878 42.5693 102.57 42.6024 102.206 42.6119C101.562 42.6309 100.982 42.5338 100.466 42.3207C99.9497 42.1029 99.5401 41.7667 99.2371 41.3122C98.9388 40.8577 98.792 40.2895 98.7967 39.6077V28.94ZM110.717 31.5537V33.5423H104.446V31.5537H110.717ZM105.994 28.94H108.565V39.1815C108.565 39.5272 108.617 39.7923 108.722 39.977C108.831 40.1569 108.973 40.28 109.148 40.3463C109.323 40.4126 109.517 40.4457 109.73 40.4457C109.891 40.4457 110.038 40.4339 110.171 40.4102C110.308 40.3865 110.412 40.3652 110.483 40.3463L110.916 42.3562C110.779 42.4036 110.582 42.4557 110.327 42.5125C110.076 42.5693 109.768 42.6024 109.403 42.6119C108.76 42.6309 108.18 42.5338 107.663 42.3207C107.147 42.1029 106.738 41.7667 106.435 41.3122C106.136 40.8577 105.99 40.2895 105.994 39.6077V28.94ZM117.109 42.6758C116.044 42.6758 115.12 42.4415 114.339 41.9727C113.558 41.504 112.952 40.8482 112.521 40.0054C112.095 39.1626 111.882 38.1777 111.882 37.0508C111.882 35.9239 112.095 34.9367 112.521 34.0892C112.952 33.2417 113.558 32.5835 114.339 32.1148C115.12 31.646 116.044 31.4116 117.109 31.4116C118.174 31.4116 119.098 31.646 119.879 32.1148C120.66 32.5835 121.264 33.2417 121.69 34.0892C122.121 34.9367 122.336 35.9239 122.336 37.0508C122.336 38.1777 122.121 39.1626 121.69 40.0054C121.264 40.8482 120.66 41.504 119.879 41.9727C119.098 42.4415 118.174 42.6758 117.109 42.6758ZM117.123 40.6162C117.701 40.6162 118.184 40.4576 118.572 40.1403C118.96 39.8184 119.249 39.3875 119.438 38.8477C119.633 38.3079 119.73 37.7066 119.73 37.0437C119.73 36.3761 119.633 35.7724 119.438 35.2327C119.249 34.6881 118.96 34.2549 118.572 33.9329C118.184 33.611 117.701 33.45 117.123 33.45C116.531 33.45 116.039 33.611 115.646 33.9329C115.258 34.2549 114.966 34.6881 114.772 35.2327C114.583 35.7724 114.488 36.3761 114.488 37.0437C114.488 37.7066 114.583 38.3079 114.772 38.8477C114.966 39.3875 115.258 39.8184 115.646 40.1403C116.039 40.4576 116.531 40.6162 117.123 40.6162ZM126.689 36.0707V42.4628H124.118V31.5537H126.576V33.4074H126.704C126.955 32.7966 127.355 32.3113 127.904 31.9514C128.458 31.5916 129.142 31.4116 129.956 31.4116C130.709 31.4116 131.365 31.5726 131.924 31.8946C132.487 32.2166 132.923 32.6829 133.231 33.2937C133.543 33.9045 133.697 34.6455 133.692 35.5167V42.4628H131.121V35.9145C131.121 35.1853 130.932 34.6148 130.553 34.2028C130.179 33.7909 129.661 33.5849 128.998 33.5849C128.548 33.5849 128.148 33.6844 127.797 33.8832C127.452 34.0774 127.179 34.3591 126.981 34.7284C126.786 35.0977 126.689 35.5452 126.689 36.0707Z" fill="black" fill-opacity="0.8"/>
<rect x="28.5" y="69.5" width="71" height="71" rx="4.5" stroke="#9747FF" stroke-dasharray="10 5"/>
<path d="M56 112V110H58V103C58 101.617 58.4167 100.387 59.25 99.312C60.0833 98.2373 61.1667 97.5333 62.5 97.2V96.5C62.5 96.0833 62.646 95.7293 62.938 95.438C63.2293 95.146 63.5833 95 64 95C64.4167 95 64.7707 95.146 65.062 95.438C65.354 95.7293 65.5 96.0833 65.5 96.5V97.2C66.8333 97.5333 67.9167 98.2373 68.75 99.312C69.5833 100.387 70 101.617 70 103V110H72V112H56ZM64 115C63.45 115 62.9793 114.804 62.588 114.413C62.196 114.021 62 113.55 62 113H66C66 113.55 65.8043 114.021 65.413 114.413C65.021 114.804 64.55 115 64 115ZM60 110H68V103C68 101.9 67.6083 100.958 66.825 100.175C66.0417 99.3917 65.1 99 64 99C62.9 99 61.9583 99.3917 61.175 100.175C60.3917 100.958 60 101.9 60 103V110Z" fill="#666666"/>
<path d="M31.688 329.998V331.587C31.688 331.678 31.6857 331.771 31.6812 331.864C31.6766 331.955 31.6686 332.039 31.6572 332.117H31.6948C31.7723 331.985 31.8703 331.874 31.9888 331.785C32.1095 331.694 32.2463 331.626 32.3989 331.58C32.5516 331.532 32.7134 331.509 32.8843 331.509C33.1851 331.509 33.4357 331.556 33.6362 331.652C33.839 331.748 33.9906 331.896 34.0908 332.096C34.1934 332.297 34.2446 332.557 34.2446 332.876V335.316H33.6841V332.913C33.6841 332.601 33.6123 332.368 33.4688 332.213C33.3275 332.058 33.1099 331.98 32.8159 331.98C32.5379 331.98 32.3158 332.034 32.1494 332.141C31.9854 332.246 31.8669 332.401 31.7939 332.606C31.7233 332.811 31.688 333.061 31.688 333.358V335.316H31.1206V329.998H31.688ZM36.6235 334.92C36.717 334.92 36.8127 334.912 36.9106 334.896C37.0086 334.88 37.0884 334.86 37.1499 334.838V335.279C37.0838 335.308 36.9915 335.333 36.873 335.354C36.7568 335.374 36.6429 335.385 36.5312 335.385C36.333 335.385 36.153 335.35 35.9912 335.282C35.8294 335.211 35.6995 335.093 35.6016 334.927C35.5059 334.76 35.458 334.53 35.458 334.236V332.014H34.9248V331.738L35.4614 331.515L35.687 330.702H36.0288V331.57H37.126V332.014H36.0288V334.219C36.0288 334.454 36.0824 334.629 36.1895 334.745C36.2988 334.862 36.4435 334.92 36.6235 334.92ZM39.1187 334.92C39.2121 334.92 39.3078 334.912 39.4058 334.896C39.5037 334.88 39.5835 334.86 39.645 334.838V335.279C39.5789 335.308 39.4867 335.333 39.3682 335.354C39.252 335.374 39.138 335.385 39.0264 335.385C38.8281 335.385 38.6481 335.35 38.4863 335.282C38.3245 335.211 38.1947 335.093 38.0967 334.927C38.001 334.76 37.9531 334.53 37.9531 334.236V332.014H37.4199V331.738L37.9565 331.515L38.1821 330.702H38.5239V331.57H39.6211V332.014H38.5239V334.219C38.5239 334.454 38.5775 334.629 38.6846 334.745C38.7939 334.862 38.9386 334.92 39.1187 334.92ZM42.1641 331.502C42.6312 331.502 43.0037 331.662 43.2817 331.984C43.5597 332.305 43.6987 332.788 43.6987 333.433C43.6987 333.859 43.6349 334.217 43.5073 334.506C43.3797 334.795 43.1997 335.014 42.9673 335.162C42.7371 335.31 42.4648 335.385 42.1504 335.385C41.9521 335.385 41.7778 335.358 41.6274 335.306C41.4771 335.253 41.3483 335.183 41.2412 335.094C41.1341 335.005 41.0452 334.908 40.9746 334.803H40.9336C40.9404 334.892 40.9484 334.999 40.9575 335.125C40.9689 335.25 40.9746 335.359 40.9746 335.453V336.991H40.4038V331.57H40.8721L40.9473 332.124H40.9746C41.0475 332.01 41.1364 331.906 41.2412 331.813C41.346 331.717 41.4736 331.642 41.624 331.587C41.7767 331.53 41.9567 331.502 42.1641 331.502ZM42.0649 331.98C41.8052 331.98 41.5955 332.03 41.436 332.131C41.2788 332.231 41.1637 332.381 41.0908 332.582C41.0179 332.78 40.9792 333.03 40.9746 333.33V333.44C40.9746 333.756 41.0088 334.024 41.0771 334.243C41.1478 334.462 41.2629 334.628 41.4224 334.742C41.5841 334.856 41.8006 334.913 42.0718 334.913C42.3042 334.913 42.4979 334.85 42.6528 334.725C42.8078 334.6 42.9229 334.425 42.998 334.202C43.0755 333.976 43.1143 333.718 43.1143 333.426C43.1143 332.984 43.0277 332.633 42.8545 332.373C42.6836 332.111 42.4204 331.98 42.0649 331.98ZM47.1133 334.291C47.1133 334.53 47.0529 334.732 46.9321 334.896C46.8136 335.058 46.6427 335.179 46.4194 335.261C46.1984 335.344 45.9341 335.385 45.6265 335.385C45.3644 335.385 45.1377 335.364 44.9463 335.323C44.7549 335.282 44.5874 335.224 44.4438 335.149V334.626C44.5965 334.701 44.7788 334.769 44.9907 334.831C45.2026 334.892 45.4191 334.923 45.6401 334.923C45.9637 334.923 46.1984 334.871 46.3442 334.766C46.4901 334.661 46.563 334.519 46.563 334.339C46.563 334.236 46.5334 334.146 46.4741 334.069C46.4172 333.989 46.3203 333.913 46.1836 333.84C46.0469 333.764 45.8577 333.682 45.6162 333.594C45.377 333.502 45.1696 333.412 44.9941 333.323C44.821 333.232 44.6865 333.122 44.5908 332.992C44.4974 332.862 44.4507 332.693 44.4507 332.486C44.4507 332.169 44.5783 331.927 44.8335 331.758C45.091 331.587 45.4282 331.502 45.8452 331.502C46.0708 331.502 46.2816 331.524 46.4775 331.57C46.6758 331.613 46.8604 331.673 47.0312 331.748L46.8398 332.202C46.6849 332.136 46.5197 332.08 46.3442 332.035C46.1688 331.989 45.9899 331.967 45.8076 331.967C45.5456 331.967 45.3439 332.01 45.2026 332.096C45.0636 332.183 44.9941 332.302 44.9941 332.452C44.9941 332.568 45.026 332.664 45.0898 332.739C45.1559 332.814 45.2607 332.885 45.4043 332.951C45.5479 333.017 45.737 333.094 45.9717 333.183C46.2064 333.27 46.4092 333.36 46.5801 333.453C46.751 333.545 46.882 333.656 46.9731 333.788C47.0666 333.918 47.1133 334.086 47.1133 334.291ZM47.9404 334.961C47.9404 334.801 47.9792 334.688 48.0566 334.622C48.1341 334.554 48.2287 334.52 48.3403 334.52C48.4565 334.52 48.5545 334.554 48.6343 334.622C48.714 334.688 48.7539 334.801 48.7539 334.961C48.7539 335.118 48.714 335.233 48.6343 335.306C48.5545 335.377 48.4565 335.412 48.3403 335.412C48.2287 335.412 48.1341 335.377 48.0566 335.306C47.9792 335.233 47.9404 335.118 47.9404 334.961ZM47.9404 331.929C47.9404 331.765 47.9792 331.65 48.0566 331.584C48.1341 331.515 48.2287 331.481 48.3403 331.481C48.4565 331.481 48.5545 331.515 48.6343 331.584C48.714 331.65 48.7539 331.765 48.7539 331.929C48.7539 332.084 48.714 332.197 48.6343 332.267C48.5545 332.338 48.4565 332.373 48.3403 332.373C48.2287 332.373 48.1341 332.338 48.0566 332.267C47.9792 332.197 47.9404 332.084 47.9404 331.929ZM51.7583 330.319L49.8989 335.316H49.3384L51.2012 330.319H51.7583ZM54.3286 330.319L52.4692 335.316H51.9087L53.7715 330.319H54.3286ZM59.0728 331.502C59.4852 331.502 59.7962 331.61 60.0059 331.826C60.2155 332.041 60.3203 332.386 60.3203 332.862V335.316H59.7598V332.889C59.7598 332.586 59.6937 332.36 59.5615 332.209C59.4316 332.057 59.238 331.98 58.9805 331.98C58.6182 331.98 58.355 332.085 58.1909 332.295C58.0269 332.504 57.9448 332.813 57.9448 333.221V335.316H57.3809V332.889C57.3809 332.687 57.3512 332.518 57.292 332.384C57.235 332.249 57.1484 332.149 57.0322 332.083C56.9183 332.014 56.7736 331.98 56.5981 331.98C56.3498 331.98 56.1504 332.031 56 332.134C55.8496 332.237 55.7402 332.389 55.6719 332.592C55.6058 332.793 55.5728 333.04 55.5728 333.334V335.316H55.0054V331.57H55.4634L55.5488 332.1H55.5796C55.6548 331.97 55.7493 331.861 55.8633 331.772C55.9772 331.683 56.1048 331.616 56.2461 331.57C56.3874 331.524 56.5378 331.502 56.6973 331.502C56.9821 331.502 57.2202 331.555 57.4116 331.662C57.6053 331.767 57.7454 331.928 57.832 332.144H57.8628C57.9858 331.928 58.1545 331.767 58.3687 331.662C58.5828 331.555 58.8175 331.502 59.0728 331.502ZM64.3228 331.485C64.3228 331.708 64.2795 331.902 64.1929 332.066C64.1063 332.23 63.9855 332.364 63.8306 332.469C63.6756 332.572 63.4933 332.643 63.2837 332.684V332.712C63.6802 332.762 63.9775 332.889 64.1758 333.094C64.3763 333.3 64.4766 333.568 64.4766 333.901C64.4766 334.191 64.4082 334.447 64.2715 334.67C64.137 334.893 63.9297 335.069 63.6494 335.197C63.3714 335.322 63.0148 335.385 62.5796 335.385C62.3153 335.385 62.0703 335.363 61.8447 335.32C61.6214 335.279 61.4072 335.209 61.2021 335.111V334.578C61.4095 334.68 61.6351 334.761 61.8789 334.821C62.1227 334.878 62.3586 334.906 62.5864 334.906C63.0422 334.906 63.3714 334.816 63.5742 334.636C63.777 334.454 63.8784 334.205 63.8784 333.891C63.8784 333.674 63.8215 333.5 63.7075 333.368C63.5959 333.233 63.4341 333.135 63.2222 333.074C63.0125 333.01 62.7596 332.978 62.4634 332.978H61.9644V332.493H62.4668C62.738 332.493 62.9681 332.453 63.1572 332.373C63.3464 332.294 63.4899 332.182 63.5879 332.038C63.6882 331.892 63.7383 331.72 63.7383 331.522C63.7383 331.269 63.654 331.074 63.4854 330.938C63.3167 330.799 63.0877 330.729 62.7983 330.729C62.6206 330.729 62.4588 330.747 62.313 330.784C62.1672 330.82 62.0304 330.871 61.9028 330.934C61.7752 330.998 61.6476 331.072 61.52 331.156L61.2329 330.767C61.4152 330.626 61.6374 330.504 61.8994 330.401C62.1615 330.299 62.4588 330.247 62.7915 330.247C63.3019 330.247 63.6847 330.364 63.9399 330.596C64.1951 330.828 64.3228 331.125 64.3228 331.485ZM65.4062 334.961C65.4062 334.801 65.445 334.688 65.5225 334.622C65.5999 334.554 65.6945 334.52 65.8062 334.52C65.9224 334.52 66.0203 334.554 66.1001 334.622C66.1799 334.688 66.2197 334.801 66.2197 334.961C66.2197 335.118 66.1799 335.233 66.1001 335.306C66.0203 335.377 65.9224 335.412 65.8062 335.412C65.6945 335.412 65.5999 335.377 65.5225 335.306C65.445 335.233 65.4062 335.118 65.4062 334.961ZM71.3979 331.502C71.8104 331.502 72.1214 331.61 72.3311 331.826C72.5407 332.041 72.6455 332.386 72.6455 332.862V335.316H72.085V332.889C72.085 332.586 72.0189 332.36 71.8867 332.209C71.7568 332.057 71.5632 331.98 71.3057 331.98C70.9434 331.98 70.6802 332.085 70.5161 332.295C70.3521 332.504 70.27 332.813 70.27 333.221V335.316H69.7061V332.889C69.7061 332.687 69.6764 332.518 69.6172 332.384C69.5602 332.249 69.4736 332.149 69.3574 332.083C69.2435 332.014 69.0988 331.98 68.9233 331.98C68.675 331.98 68.4756 332.031 68.3252 332.134C68.1748 332.237 68.0654 332.389 67.9971 332.592C67.931 332.793 67.8979 333.04 67.8979 333.334V335.316H67.3306V331.57H67.7886L67.874 332.1H67.9048C67.98 331.97 68.0745 331.861 68.1885 331.772C68.3024 331.683 68.43 331.616 68.5713 331.57C68.7126 331.524 68.863 331.502 69.0225 331.502C69.3073 331.502 69.5454 331.555 69.7368 331.662C69.9305 331.767 70.0706 331.928 70.1572 332.144H70.188C70.311 331.928 70.4797 331.767 70.6938 331.662C70.908 331.555 71.1427 331.502 71.3979 331.502ZM75.2124 331.509C75.659 331.509 75.9906 331.609 76.207 331.809C76.4235 332.01 76.5317 332.33 76.5317 332.77V335.316H76.1182L76.0088 334.762H75.9814C75.8766 334.899 75.7673 335.014 75.6533 335.108C75.5394 335.199 75.4072 335.268 75.2568 335.316C75.1087 335.362 74.9264 335.385 74.71 335.385C74.4821 335.385 74.2793 335.345 74.1016 335.265C73.9261 335.185 73.7871 335.064 73.6846 334.903C73.5843 334.741 73.5342 334.536 73.5342 334.287C73.5342 333.914 73.6823 333.627 73.9785 333.426C74.2747 333.226 74.7259 333.116 75.332 333.098L75.978 333.071V332.842C75.978 332.518 75.9085 332.291 75.7695 332.161C75.6305 332.031 75.4346 331.967 75.1816 331.967C74.9857 331.967 74.7988 331.995 74.6211 332.052C74.4434 332.109 74.2747 332.176 74.1152 332.254L73.9409 331.823C74.1095 331.736 74.3032 331.662 74.522 331.601C74.7407 331.539 74.9709 331.509 75.2124 331.509ZM75.9712 333.47L75.4004 333.494C74.9333 333.513 74.604 333.589 74.4126 333.723C74.2212 333.858 74.1255 334.048 74.1255 334.294C74.1255 334.508 74.1904 334.667 74.3203 334.769C74.4502 334.872 74.6222 334.923 74.8364 334.923C75.1691 334.923 75.4414 334.831 75.6533 334.646C75.8652 334.462 75.9712 334.185 75.9712 333.816V333.47ZM78.9106 334.92C79.0041 334.92 79.0998 334.912 79.1978 334.896C79.2957 334.88 79.3755 334.86 79.437 334.838V335.279C79.3709 335.308 79.2786 335.333 79.1602 335.354C79.0439 335.374 78.93 335.385 78.8184 335.385C78.6201 335.385 78.4401 335.35 78.2783 335.282C78.1165 335.211 77.9867 335.093 77.8887 334.927C77.793 334.76 77.7451 334.53 77.7451 334.236V332.014H77.2119V331.738L77.7485 331.515L77.9741 330.702H78.3159V331.57H79.4131V332.014H78.3159V334.219C78.3159 334.454 78.3695 334.629 78.4766 334.745C78.5859 334.862 78.7306 334.92 78.9106 334.92ZM81.6382 331.502C81.9572 331.502 82.2306 331.572 82.4585 331.714C82.6864 331.855 82.8607 332.053 82.9814 332.308C83.1022 332.561 83.1626 332.858 83.1626 333.197V333.549H80.5752C80.582 333.989 80.6914 334.324 80.9033 334.554C81.1152 334.784 81.4137 334.899 81.7988 334.899C82.0358 334.899 82.2454 334.878 82.4277 334.834C82.61 334.791 82.7992 334.727 82.9951 334.643V335.142C82.806 335.226 82.618 335.288 82.4312 335.326C82.2466 335.365 82.0278 335.385 81.7749 335.385C81.4149 335.385 81.1004 335.312 80.8315 335.166C80.5649 335.018 80.3576 334.801 80.2095 334.516C80.0614 334.232 79.9873 333.883 79.9873 333.47C79.9873 333.067 80.0545 332.719 80.189 332.425C80.3257 332.128 80.5171 331.9 80.7632 331.741C81.0116 331.581 81.3032 331.502 81.6382 331.502ZM81.6313 331.967C81.3283 331.967 81.0868 332.066 80.9067 332.264C80.7267 332.462 80.6196 332.739 80.5854 333.094H82.5679C82.5656 332.871 82.5303 332.675 82.4619 332.507C82.3958 332.336 82.2944 332.204 82.1577 332.11C82.021 332.014 81.8455 331.967 81.6313 331.967ZM85.8286 331.502C85.9038 331.502 85.9824 331.506 86.0645 331.515C86.1465 331.522 86.2194 331.532 86.2832 331.546L86.2114 332.073C86.1499 332.057 86.0815 332.044 86.0063 332.035C85.9312 332.026 85.8605 332.021 85.7944 332.021C85.644 332.021 85.5016 332.052 85.3672 332.114C85.235 332.173 85.1188 332.259 85.0186 332.373C84.9183 332.485 84.8397 332.621 84.7827 332.78C84.7257 332.937 84.6973 333.113 84.6973 333.306V335.316H84.1265V331.57H84.5981L84.6597 332.26H84.6836C84.7611 332.122 84.8545 331.995 84.9639 331.881C85.0732 331.765 85.1997 331.673 85.3433 331.604C85.4891 331.536 85.6509 331.502 85.8286 331.502ZM87.5581 331.57V335.316H86.9907V331.57H87.5581ZM87.2812 330.169C87.3747 330.169 87.4544 330.199 87.5205 330.261C87.5889 330.32 87.623 330.414 87.623 330.541C87.623 330.667 87.5889 330.76 87.5205 330.822C87.4544 330.883 87.3747 330.914 87.2812 330.914C87.1833 330.914 87.1012 330.883 87.0352 330.822C86.9714 330.76 86.9395 330.667 86.9395 330.541C86.9395 330.414 86.9714 330.32 87.0352 330.261C87.1012 330.199 87.1833 330.169 87.2812 330.169ZM90.1626 331.509C90.6092 331.509 90.9408 331.609 91.1572 331.809C91.3737 332.01 91.4819 332.33 91.4819 332.77V335.316H91.0684L90.959 334.762H90.9316C90.8268 334.899 90.7174 335.014 90.6035 335.108C90.4896 335.199 90.3574 335.268 90.207 335.316C90.0589 335.362 89.8766 335.385 89.6602 335.385C89.4323 335.385 89.2295 335.345 89.0518 335.265C88.8763 335.185 88.7373 335.064 88.6348 334.903C88.5345 334.741 88.4844 334.536 88.4844 334.287C88.4844 333.914 88.6325 333.627 88.9287 333.426C89.2249 333.226 89.6761 333.116 90.2822 333.098L90.9282 333.071V332.842C90.9282 332.518 90.8587 332.291 90.7197 332.161C90.5807 332.031 90.3848 331.967 90.1318 331.967C89.9359 331.967 89.749 331.995 89.5713 332.052C89.3936 332.109 89.2249 332.176 89.0654 332.254L88.8911 331.823C89.0597 331.736 89.2534 331.662 89.4722 331.601C89.6909 331.539 89.9211 331.509 90.1626 331.509ZM90.9214 333.47L90.3506 333.494C89.8835 333.513 89.5542 333.589 89.3628 333.723C89.1714 333.858 89.0757 334.048 89.0757 334.294C89.0757 334.508 89.1406 334.667 89.2705 334.769C89.4004 334.872 89.5724 334.923 89.7866 334.923C90.1193 334.923 90.3916 334.831 90.6035 334.646C90.8154 334.462 90.9214 334.185 90.9214 333.816V333.47ZM93.2217 335.316H92.6509V329.998H93.2217V335.316ZM94.3359 334.961C94.3359 334.801 94.3747 334.688 94.4521 334.622C94.5296 334.554 94.6242 334.52 94.7358 334.52C94.8521 334.52 94.95 334.554 95.0298 334.622C95.1095 334.688 95.1494 334.801 95.1494 334.961C95.1494 335.118 95.1095 335.233 95.0298 335.306C94.95 335.377 94.8521 335.412 94.7358 335.412C94.6242 335.412 94.5296 335.377 94.4521 335.306C94.3747 335.233 94.3359 335.118 94.3359 334.961ZM96.8276 331.57V335.316H96.2603V331.57H96.8276ZM96.5508 330.169C96.6442 330.169 96.724 330.199 96.79 330.261C96.8584 330.32 96.8926 330.414 96.8926 330.541C96.8926 330.667 96.8584 330.76 96.79 330.822C96.724 330.883 96.6442 330.914 96.5508 330.914C96.4528 330.914 96.3708 330.883 96.3047 330.822C96.2409 330.76 96.209 330.667 96.209 330.541C96.209 330.414 96.2409 330.32 96.3047 330.261C96.3708 330.199 96.4528 330.169 96.5508 330.169ZM101.261 333.436C101.261 333.744 101.221 334.018 101.141 334.26C101.061 334.502 100.946 334.705 100.796 334.872C100.646 335.038 100.463 335.166 100.249 335.255C100.037 335.341 99.7967 335.385 99.5278 335.385C99.2772 335.385 99.047 335.341 98.8374 335.255C98.63 335.166 98.45 335.038 98.2974 334.872C98.147 334.705 98.0296 334.502 97.9453 334.26C97.8633 334.018 97.8223 333.744 97.8223 333.436C97.8223 333.026 97.8918 332.677 98.0308 332.39C98.1698 332.101 98.368 331.881 98.6255 331.731C98.8853 331.578 99.194 331.502 99.5518 331.502C99.8936 331.502 100.192 331.578 100.447 331.731C100.705 331.883 100.904 332.104 101.045 332.394C101.189 332.681 101.261 333.028 101.261 333.436ZM98.4102 333.436C98.4102 333.737 98.45 333.998 98.5298 334.219C98.6095 334.44 98.7326 334.611 98.8989 334.732C99.0653 334.852 99.2795 334.913 99.5415 334.913C99.8013 334.913 100.014 334.852 100.181 334.732C100.349 334.611 100.473 334.44 100.553 334.219C100.633 333.998 100.673 333.737 100.673 333.436C100.673 333.138 100.633 332.88 100.553 332.664C100.473 332.445 100.35 332.276 100.184 332.158C100.018 332.039 99.8024 331.98 99.5381 331.98C99.1484 331.98 98.8625 332.109 98.6802 332.366C98.5002 332.624 98.4102 332.981 98.4102 333.436ZM104.135 330.319L102.276 335.316H101.715L103.578 330.319H104.135ZM106.312 335.385C105.975 335.385 105.678 335.315 105.42 335.176C105.163 335.037 104.962 334.825 104.819 334.54C104.675 334.255 104.604 333.897 104.604 333.464C104.604 333.01 104.679 332.64 104.829 332.353C104.982 332.063 105.191 331.849 105.458 331.71C105.725 331.571 106.028 331.502 106.367 331.502C106.554 331.502 106.734 331.521 106.907 331.56C107.083 331.596 107.226 331.643 107.338 331.7L107.167 332.175C107.053 332.129 106.921 332.088 106.771 332.052C106.622 332.016 106.483 331.997 106.354 331.997C106.094 331.997 105.877 332.053 105.704 332.165C105.533 332.276 105.404 332.441 105.318 332.657C105.234 332.873 105.191 333.14 105.191 333.457C105.191 333.76 105.232 334.018 105.314 334.233C105.399 334.447 105.523 334.611 105.687 334.725C105.853 334.837 106.061 334.892 106.309 334.892C106.507 334.892 106.686 334.872 106.846 334.831C107.005 334.788 107.15 334.737 107.28 334.68V335.186C107.154 335.25 107.014 335.299 106.859 335.333C106.707 335.367 106.524 335.385 106.312 335.385ZM111.398 333.436C111.398 333.744 111.359 334.018 111.279 334.26C111.199 334.502 111.084 334.705 110.934 334.872C110.783 335.038 110.601 335.166 110.387 335.255C110.175 335.341 109.934 335.385 109.666 335.385C109.415 335.385 109.185 335.341 108.975 335.255C108.768 335.166 108.588 335.038 108.435 334.872C108.285 334.705 108.167 334.502 108.083 334.26C108.001 334.018 107.96 333.744 107.96 333.436C107.96 333.026 108.029 332.677 108.168 332.39C108.307 332.101 108.506 331.881 108.763 331.731C109.023 331.578 109.332 331.502 109.689 331.502C110.031 331.502 110.33 331.578 110.585 331.731C110.842 331.883 111.042 332.104 111.183 332.394C111.327 332.681 111.398 333.028 111.398 333.436ZM108.548 333.436C108.548 333.737 108.588 333.998 108.667 334.219C108.747 334.44 108.87 334.611 109.037 334.732C109.203 334.852 109.417 334.913 109.679 334.913C109.939 334.913 110.152 334.852 110.318 334.732C110.487 334.611 110.611 334.44 110.691 334.219C110.771 333.998 110.811 333.737 110.811 333.436C110.811 333.138 110.771 332.88 110.691 332.664C110.611 332.445 110.488 332.276 110.322 332.158C110.155 332.039 109.94 331.98 109.676 331.98C109.286 331.98 109 332.109 108.818 332.366C108.638 332.624 108.548 332.981 108.548 333.436ZM116.447 331.502C116.859 331.502 117.17 331.61 117.38 331.826C117.59 332.041 117.694 332.386 117.694 332.862V335.316H117.134V332.889C117.134 332.586 117.068 332.36 116.936 332.209C116.806 332.057 116.612 331.98 116.354 331.98C115.992 331.98 115.729 332.085 115.565 332.295C115.401 332.504 115.319 332.813 115.319 333.221V335.316H114.755V332.889C114.755 332.687 114.725 332.518 114.666 332.384C114.609 332.249 114.522 332.149 114.406 332.083C114.292 332.014 114.148 331.98 113.972 331.98C113.724 331.98 113.524 332.031 113.374 332.134C113.224 332.237 113.114 332.389 113.046 332.592C112.98 332.793 112.947 333.04 112.947 333.334V335.316H112.379V331.57H112.837L112.923 332.1H112.954C113.029 331.97 113.123 331.861 113.237 331.772C113.351 331.683 113.479 331.616 113.62 331.57C113.761 331.524 113.912 331.502 114.071 331.502C114.356 331.502 114.594 331.555 114.786 331.662C114.979 331.767 115.119 331.928 115.206 332.144H115.237C115.36 331.928 115.528 331.767 115.743 331.662C115.957 331.555 116.192 331.502 116.447 331.502ZM120.62 331.502C121.087 331.502 121.46 331.662 121.738 331.984C122.016 332.305 122.155 332.788 122.155 333.433C122.155 333.859 122.091 334.217 121.963 334.506C121.836 334.795 121.656 335.014 121.423 335.162C121.193 335.31 120.921 335.385 120.606 335.385C120.408 335.385 120.234 335.358 120.083 335.306C119.933 335.253 119.804 335.183 119.697 335.094C119.59 335.005 119.501 334.908 119.431 334.803H119.39C119.396 334.892 119.404 334.999 119.414 335.125C119.425 335.25 119.431 335.359 119.431 335.453V336.991H118.86V331.57H119.328L119.403 332.124H119.431C119.504 332.01 119.592 331.906 119.697 331.813C119.802 331.717 119.93 331.642 120.08 331.587C120.233 331.53 120.413 331.502 120.62 331.502ZM120.521 331.98C120.261 331.98 120.052 332.03 119.892 332.131C119.735 332.231 119.62 332.381 119.547 332.582C119.474 332.78 119.435 333.03 119.431 333.33V333.44C119.431 333.756 119.465 334.024 119.533 334.243C119.604 334.462 119.719 334.628 119.878 334.742C120.04 334.856 120.257 334.913 120.528 334.913C120.76 334.913 120.954 334.85 121.109 334.725C121.264 334.6 121.379 334.425 121.454 334.202C121.532 333.976 121.57 333.718 121.57 333.426C121.57 332.984 121.484 332.633 121.311 332.373C121.14 332.111 120.876 331.98 120.521 331.98ZM126.376 333.436C126.376 333.744 126.336 334.018 126.256 334.26C126.177 334.502 126.062 334.705 125.911 334.872C125.761 335.038 125.578 335.166 125.364 335.255C125.152 335.341 124.912 335.385 124.643 335.385C124.392 335.385 124.162 335.341 123.953 335.255C123.745 335.166 123.565 335.038 123.413 334.872C123.262 334.705 123.145 334.502 123.061 334.26C122.979 334.018 122.938 333.744 122.938 333.436C122.938 333.026 123.007 332.677 123.146 332.39C123.285 332.101 123.483 331.881 123.741 331.731C124 331.578 124.309 331.502 124.667 331.502C125.009 331.502 125.307 331.578 125.562 331.731C125.82 331.883 126.019 332.104 126.161 332.394C126.304 332.681 126.376 333.028 126.376 333.436ZM123.525 333.436C123.525 333.737 123.565 333.998 123.645 334.219C123.725 334.44 123.848 334.611 124.014 334.732C124.181 334.852 124.395 334.913 124.657 334.913C124.917 334.913 125.13 334.852 125.296 334.732C125.465 334.611 125.589 334.44 125.668 334.219C125.748 333.998 125.788 333.737 125.788 333.436C125.788 333.138 125.748 332.88 125.668 332.664C125.589 332.445 125.466 332.276 125.299 332.158C125.133 332.039 124.918 331.98 124.653 331.98C124.264 331.98 123.978 332.109 123.795 332.366C123.615 332.624 123.525 332.981 123.525 333.436ZM129.131 331.502C129.575 331.502 129.911 331.611 130.139 331.83C130.367 332.046 130.481 332.395 130.481 332.876V335.316H129.92V332.913C129.92 332.601 129.849 332.368 129.705 332.213C129.564 332.058 129.346 331.98 129.052 331.98C128.638 331.98 128.346 332.098 128.177 332.332C128.009 332.567 127.924 332.908 127.924 333.354V335.316H127.357V331.57H127.815L127.9 332.11H127.931C128.011 331.978 128.112 331.867 128.235 331.779C128.358 331.687 128.496 331.619 128.649 331.573C128.802 331.526 128.962 331.502 129.131 331.502ZM133.092 331.502C133.411 331.502 133.685 331.572 133.913 331.714C134.14 331.855 134.315 332.053 134.436 332.308C134.556 332.561 134.617 332.858 134.617 333.197V333.549H132.029C132.036 333.989 132.146 334.324 132.357 334.554C132.569 334.784 132.868 334.899 133.253 334.899C133.49 334.899 133.7 334.878 133.882 334.834C134.064 334.791 134.253 334.727 134.449 334.643V335.142C134.26 335.226 134.072 335.288 133.885 335.326C133.701 335.365 133.482 335.385 133.229 335.385C132.869 335.385 132.555 335.312 132.286 335.166C132.019 335.018 131.812 334.801 131.664 334.516C131.515 334.232 131.441 333.883 131.441 333.47C131.441 333.067 131.509 332.719 131.643 332.425C131.78 332.128 131.971 331.9 132.217 331.741C132.466 331.581 132.757 331.502 133.092 331.502ZM133.085 331.967C132.782 331.967 132.541 332.066 132.361 332.264C132.181 332.462 132.074 332.739 132.04 333.094H134.022C134.02 332.871 133.984 332.675 133.916 332.507C133.85 332.336 133.749 332.204 133.612 332.11C133.475 332.014 133.3 331.967 133.085 331.967ZM137.354 331.502C137.799 331.502 138.135 331.611 138.363 331.83C138.591 332.046 138.705 332.395 138.705 332.876V335.316H138.144V332.913C138.144 332.601 138.072 332.368 137.929 332.213C137.787 332.058 137.57 331.98 137.276 331.98C136.861 331.98 136.569 332.098 136.401 332.332C136.232 332.567 136.148 332.908 136.148 333.354V335.316H135.581V331.57H136.039L136.124 332.11H136.155C136.235 331.978 136.336 331.867 136.459 331.779C136.582 331.687 136.72 331.619 136.873 331.573C137.025 331.526 137.186 331.502 137.354 331.502ZM141.083 334.92C141.177 334.92 141.273 334.912 141.371 334.896C141.469 334.88 141.548 334.86 141.61 334.838V335.279C141.544 335.308 141.451 335.333 141.333 335.354C141.217 335.374 141.103 335.385 140.991 335.385C140.793 335.385 140.613 335.35 140.451 335.282C140.289 335.211 140.16 335.093 140.062 334.927C139.966 334.76 139.918 334.53 139.918 334.236V332.014H139.385V331.738L139.921 331.515L140.147 330.702H140.489V331.57H141.586V332.014H140.489V334.219C140.489 334.454 140.542 334.629 140.649 334.745C140.759 334.862 140.903 334.92 141.083 334.92ZM144.792 334.291C144.792 334.53 144.732 334.732 144.611 334.896C144.492 335.058 144.321 335.179 144.098 335.261C143.877 335.344 143.613 335.385 143.305 335.385C143.043 335.385 142.816 335.364 142.625 335.323C142.434 335.282 142.266 335.224 142.123 335.149V334.626C142.275 334.701 142.458 334.769 142.669 334.831C142.881 334.892 143.098 334.923 143.319 334.923C143.642 334.923 143.877 334.871 144.023 334.766C144.169 334.661 144.242 334.519 144.242 334.339C144.242 334.236 144.212 334.146 144.153 334.069C144.096 333.989 143.999 333.913 143.862 333.84C143.726 333.764 143.536 333.682 143.295 333.594C143.056 333.502 142.848 333.412 142.673 333.323C142.5 333.232 142.365 333.122 142.27 332.992C142.176 332.862 142.129 332.693 142.129 332.486C142.129 332.169 142.257 331.927 142.512 331.758C142.77 331.587 143.107 331.502 143.524 331.502C143.75 331.502 143.96 331.524 144.156 331.57C144.354 331.613 144.539 331.673 144.71 331.748L144.519 332.202C144.364 332.136 144.198 332.08 144.023 332.035C143.847 331.989 143.669 331.967 143.486 331.967C143.224 331.967 143.023 332.01 142.881 332.096C142.742 332.183 142.673 332.302 142.673 332.452C142.673 332.568 142.705 332.664 142.769 332.739C142.835 332.814 142.939 332.885 143.083 332.951C143.227 333.017 143.416 333.094 143.65 333.183C143.885 333.27 144.088 333.36 144.259 333.453C144.43 333.545 144.561 333.656 144.652 333.788C144.745 333.918 144.792 334.086 144.792 334.291ZM147.598 330.319L145.739 335.316H145.178L147.041 330.319H147.598ZM148.842 331.57V335.316H148.275V331.57H148.842ZM148.565 330.169C148.659 330.169 148.739 330.199 148.805 330.261C148.873 330.32 148.907 330.414 148.907 330.541C148.907 330.667 148.873 330.76 148.805 330.822C148.739 330.883 148.659 330.914 148.565 330.914C148.467 330.914 148.385 330.883 148.319 330.822C148.256 330.76 148.224 330.667 148.224 330.541C148.224 330.414 148.256 330.32 148.319 330.261C148.385 330.199 148.467 330.169 148.565 330.169ZM151.546 335.385C151.209 335.385 150.911 335.315 150.654 335.176C150.396 335.037 150.196 334.825 150.052 334.54C149.909 334.255 149.837 333.897 149.837 333.464C149.837 333.01 149.912 332.64 150.062 332.353C150.215 332.063 150.425 331.849 150.691 331.71C150.958 331.571 151.261 331.502 151.601 331.502C151.787 331.502 151.967 331.521 152.141 331.56C152.316 331.596 152.46 331.643 152.571 331.7L152.4 332.175C152.286 332.129 152.154 332.088 152.004 332.052C151.856 332.016 151.717 331.997 151.587 331.997C151.327 331.997 151.111 332.053 150.938 332.165C150.767 332.276 150.638 332.441 150.551 332.657C150.467 332.873 150.425 333.14 150.425 333.457C150.425 333.76 150.466 334.018 150.548 334.233C150.632 334.447 150.756 334.611 150.92 334.725C151.087 334.837 151.294 334.892 151.542 334.892C151.741 334.892 151.92 334.872 152.079 334.831C152.239 334.788 152.383 334.737 152.513 334.68V335.186C152.388 335.25 152.248 335.299 152.093 335.333C151.94 335.367 151.758 335.385 151.546 335.385ZM156.632 333.436C156.632 333.744 156.592 334.018 156.512 334.26C156.432 334.502 156.317 334.705 156.167 334.872C156.017 335.038 155.834 335.166 155.62 335.255C155.408 335.341 155.168 335.385 154.899 335.385C154.648 335.385 154.418 335.341 154.208 335.255C154.001 335.166 153.821 335.038 153.668 334.872C153.518 334.705 153.401 334.502 153.316 334.26C153.234 334.018 153.193 333.744 153.193 333.436C153.193 333.026 153.263 332.677 153.402 332.39C153.541 332.101 153.739 331.881 153.997 331.731C154.256 331.578 154.565 331.502 154.923 331.502C155.265 331.502 155.563 331.578 155.818 331.731C156.076 331.883 156.275 332.104 156.417 332.394C156.56 332.681 156.632 333.028 156.632 333.436ZM153.781 333.436C153.781 333.737 153.821 333.998 153.901 334.219C153.981 334.44 154.104 334.611 154.27 334.732C154.436 334.852 154.651 334.913 154.913 334.913C155.172 334.913 155.385 334.852 155.552 334.732C155.72 334.611 155.845 334.44 155.924 334.219C156.004 333.998 156.044 333.737 156.044 333.436C156.044 333.138 156.004 332.88 155.924 332.664C155.845 332.445 155.722 332.276 155.555 332.158C155.389 332.039 155.174 331.98 154.909 331.98C154.52 331.98 154.234 332.109 154.051 332.366C153.871 332.624 153.781 332.981 153.781 333.436ZM159.387 331.502C159.831 331.502 160.167 331.611 160.395 331.83C160.623 332.046 160.737 332.395 160.737 332.876V335.316H160.176V332.913C160.176 332.601 160.104 332.368 159.961 332.213C159.82 332.058 159.602 331.98 159.308 331.98C158.893 331.98 158.602 332.098 158.433 332.332C158.264 332.567 158.18 332.908 158.18 333.354V335.316H157.613V331.57H158.071L158.156 332.11H158.187C158.267 331.978 158.368 331.867 158.491 331.779C158.614 331.687 158.752 331.619 158.905 331.573C159.057 331.526 159.218 331.502 159.387 331.502ZM161.588 333.689V333.183H163.283V333.689H161.588ZM164.729 329.998V331.327C164.729 331.48 164.724 331.628 164.715 331.772C164.708 331.915 164.703 332.027 164.698 332.107H164.729C164.832 331.938 164.98 331.796 165.173 331.679C165.367 331.563 165.614 331.505 165.915 331.505C166.384 331.505 166.758 331.668 167.036 331.994C167.316 332.317 167.457 332.799 167.457 333.44C167.457 333.861 167.393 334.217 167.265 334.506C167.138 334.795 166.958 335.014 166.725 335.162C166.493 335.31 166.218 335.385 165.901 335.385C165.605 335.385 165.361 335.33 165.17 335.22C164.981 335.109 164.835 334.973 164.732 334.814H164.688L164.572 335.316H164.162V329.998H164.729ZM165.823 331.98C165.552 331.98 165.336 332.034 165.177 332.141C165.017 332.246 164.902 332.405 164.832 332.619C164.763 332.831 164.729 333.1 164.729 333.426V333.457C164.729 333.928 164.808 334.29 164.965 334.54C165.122 334.789 165.408 334.913 165.823 334.913C166.171 334.913 166.432 334.785 166.605 334.53C166.781 334.275 166.869 333.91 166.869 333.436C166.869 332.953 166.782 332.59 166.609 332.346C166.438 332.102 166.176 331.98 165.823 331.98ZM171.541 331.57V335.316H171.076L170.994 334.79H170.963C170.886 334.92 170.786 335.029 170.663 335.118C170.54 335.207 170.401 335.273 170.246 335.316C170.093 335.362 169.93 335.385 169.757 335.385C169.461 335.385 169.212 335.337 169.012 335.241C168.811 335.145 168.66 334.997 168.557 334.797C168.457 334.596 168.407 334.339 168.407 334.024V331.57H168.981V333.983C168.981 334.295 169.052 334.529 169.193 334.684C169.334 334.837 169.549 334.913 169.839 334.913C170.117 334.913 170.338 334.86 170.502 334.756C170.668 334.651 170.788 334.497 170.861 334.294C170.934 334.089 170.97 333.838 170.97 333.542V331.57H171.541ZM173.951 334.92C174.044 334.92 174.14 334.912 174.238 334.896C174.336 334.88 174.416 334.86 174.477 334.838V335.279C174.411 335.308 174.319 335.333 174.2 335.354C174.084 335.374 173.97 335.385 173.858 335.385C173.66 335.385 173.48 335.35 173.318 335.282C173.157 335.211 173.027 335.093 172.929 334.927C172.833 334.76 172.785 334.53 172.785 334.236V332.014H172.252V331.738L172.789 331.515L173.014 330.702H173.356V331.57H174.453V332.014H173.356V334.219C173.356 334.454 173.41 334.629 173.517 334.745C173.626 334.862 173.771 334.92 173.951 334.92ZM176.446 334.92C176.539 334.92 176.635 334.912 176.733 334.896C176.831 334.88 176.911 334.86 176.972 334.838V335.279C176.906 335.308 176.814 335.333 176.695 335.354C176.579 335.374 176.465 335.385 176.354 335.385C176.155 335.385 175.975 335.35 175.813 335.282C175.652 335.211 175.522 335.093 175.424 334.927C175.328 334.76 175.28 334.53 175.28 334.236V332.014H174.747V331.738L175.284 331.515L175.509 330.702H175.851V331.57H176.948V332.014H175.851V334.219C175.851 334.454 175.905 334.629 176.012 334.745C176.121 334.862 176.266 334.92 176.446 334.92ZM180.961 333.436C180.961 333.744 180.921 334.018 180.841 334.26C180.762 334.502 180.646 334.705 180.496 334.872C180.346 335.038 180.163 335.166 179.949 335.255C179.737 335.341 179.497 335.385 179.228 335.385C178.977 335.385 178.747 335.341 178.538 335.255C178.33 335.166 178.15 335.038 177.998 334.872C177.847 334.705 177.73 334.502 177.646 334.26C177.563 334.018 177.522 333.744 177.522 333.436C177.522 333.026 177.592 332.677 177.731 332.39C177.87 332.101 178.068 331.881 178.326 331.731C178.585 331.578 178.894 331.502 179.252 331.502C179.594 331.502 179.892 331.578 180.147 331.731C180.405 331.883 180.604 332.104 180.746 332.394C180.889 332.681 180.961 333.028 180.961 333.436ZM178.11 333.436C178.11 333.737 178.15 333.998 178.23 334.219C178.31 334.44 178.433 334.611 178.599 334.732C178.765 334.852 178.98 334.913 179.242 334.913C179.501 334.913 179.715 334.852 179.881 334.732C180.049 334.611 180.174 334.44 180.253 334.219C180.333 333.998 180.373 333.737 180.373 333.436C180.373 333.138 180.333 332.88 180.253 332.664C180.174 332.445 180.051 332.276 179.884 332.158C179.718 332.039 179.503 331.98 179.238 331.98C178.849 331.98 178.563 332.109 178.38 332.366C178.2 332.624 178.11 332.981 178.11 333.436ZM183.716 331.502C184.16 331.502 184.496 331.611 184.724 331.83C184.952 332.046 185.066 332.395 185.066 332.876V335.316H184.505V332.913C184.505 332.601 184.434 332.368 184.29 332.213C184.149 332.058 183.931 331.98 183.637 331.98C183.222 331.98 182.931 332.098 182.762 332.332C182.594 332.567 182.509 332.908 182.509 333.354V335.316H181.942V331.57H182.4L182.485 332.11H182.516C182.596 331.978 182.697 331.867 182.82 331.779C182.943 331.687 183.081 331.619 183.234 331.573C183.387 331.526 183.547 331.502 183.716 331.502ZM188.658 334.291C188.658 334.53 188.598 334.732 188.477 334.896C188.359 335.058 188.188 335.179 187.964 335.261C187.743 335.344 187.479 335.385 187.171 335.385C186.909 335.385 186.683 335.364 186.491 335.323C186.3 335.282 186.132 335.224 185.989 335.149V334.626C186.141 334.701 186.324 334.769 186.536 334.831C186.748 334.892 186.964 334.923 187.185 334.923C187.509 334.923 187.743 334.871 187.889 334.766C188.035 334.661 188.108 334.519 188.108 334.339C188.108 334.236 188.078 334.146 188.019 334.069C187.962 333.989 187.865 333.913 187.729 333.84C187.592 333.764 187.403 333.682 187.161 333.594C186.922 333.502 186.715 333.412 186.539 333.323C186.366 333.232 186.231 333.122 186.136 332.992C186.042 332.862 185.996 332.693 185.996 332.486C185.996 332.169 186.123 331.927 186.378 331.758C186.636 331.587 186.973 331.502 187.39 331.502C187.616 331.502 187.826 331.524 188.022 331.57C188.221 331.613 188.405 331.673 188.576 331.748L188.385 332.202C188.23 332.136 188.065 332.08 187.889 332.035C187.714 331.989 187.535 331.967 187.353 331.967C187.09 331.967 186.889 332.01 186.748 332.096C186.609 332.183 186.539 332.302 186.539 332.452C186.539 332.568 186.571 332.664 186.635 332.739C186.701 332.814 186.806 332.885 186.949 332.951C187.093 333.017 187.282 333.094 187.517 333.183C187.751 333.27 187.954 333.36 188.125 333.453C188.296 333.545 188.427 333.656 188.518 333.788C188.611 333.918 188.658 334.086 188.658 334.291ZM191.464 330.319L189.605 335.316H189.044L190.907 330.319H191.464ZM195.371 333.436C195.371 333.744 195.331 334.018 195.251 334.26C195.172 334.502 195.057 334.705 194.906 334.872C194.756 335.038 194.574 335.166 194.359 335.255C194.147 335.341 193.907 335.385 193.638 335.385C193.388 335.385 193.157 335.341 192.948 335.255C192.74 335.166 192.56 335.038 192.408 334.872C192.257 334.705 192.14 334.502 192.056 334.26C191.974 334.018 191.933 333.744 191.933 333.436C191.933 333.026 192.002 332.677 192.141 332.39C192.28 332.101 192.478 331.881 192.736 331.731C192.996 331.578 193.304 331.502 193.662 331.502C194.004 331.502 194.302 331.578 194.558 331.731C194.815 331.883 195.014 332.104 195.156 332.394C195.299 332.681 195.371 333.028 195.371 333.436ZM192.521 333.436C192.521 333.737 192.56 333.998 192.64 334.219C192.72 334.44 192.843 334.611 193.009 334.732C193.176 334.852 193.39 334.913 193.652 334.913C193.912 334.913 194.125 334.852 194.291 334.732C194.46 334.611 194.584 334.44 194.664 334.219C194.743 333.998 194.783 333.737 194.783 333.436C194.783 333.138 194.743 332.88 194.664 332.664C194.584 332.445 194.461 332.276 194.294 332.158C194.128 332.039 193.913 331.98 193.648 331.98C193.259 331.98 192.973 332.109 192.791 332.366C192.611 332.624 192.521 332.981 192.521 333.436ZM197.176 335.316L195.754 331.57H196.362L197.186 333.836C197.243 333.991 197.301 334.162 197.36 334.349C197.42 334.536 197.461 334.686 197.483 334.8H197.507C197.535 334.686 197.58 334.536 197.644 334.349C197.708 334.16 197.766 333.989 197.818 333.836L198.642 331.57H199.25L197.825 335.316H197.176ZM201.294 331.502C201.613 331.502 201.887 331.572 202.115 331.714C202.343 331.855 202.517 332.053 202.638 332.308C202.758 332.561 202.819 332.858 202.819 333.197V333.549H200.231C200.238 333.989 200.348 334.324 200.56 334.554C200.771 334.784 201.07 334.899 201.455 334.899C201.692 334.899 201.902 334.878 202.084 334.834C202.266 334.791 202.455 334.727 202.651 334.643V335.142C202.462 335.226 202.274 335.288 202.087 335.326C201.903 335.365 201.684 335.385 201.431 335.385C201.071 335.385 200.757 335.312 200.488 335.166C200.221 335.018 200.014 334.801 199.866 334.516C199.718 334.232 199.644 333.883 199.644 333.47C199.644 333.067 199.711 332.719 199.845 332.425C199.982 332.128 200.173 331.9 200.419 331.741C200.668 331.581 200.959 331.502 201.294 331.502ZM201.288 331.967C200.985 331.967 200.743 332.066 200.563 332.264C200.383 332.462 200.276 332.739 200.242 333.094H202.224C202.222 332.871 202.187 332.675 202.118 332.507C202.052 332.336 201.951 332.204 201.814 332.11C201.677 332.014 201.502 331.967 201.288 331.967ZM205.485 331.502C205.56 331.502 205.639 331.506 205.721 331.515C205.803 331.522 205.876 331.532 205.939 331.546L205.868 332.073C205.806 332.057 205.738 332.044 205.663 332.035C205.587 332.026 205.517 332.021 205.451 332.021C205.3 332.021 205.158 332.052 205.023 332.114C204.891 332.173 204.775 332.259 204.675 332.373C204.575 332.485 204.496 332.621 204.439 332.78C204.382 332.937 204.354 333.113 204.354 333.306V335.316H203.783V331.57H204.254L204.316 332.26H204.34C204.417 332.122 204.511 331.995 204.62 331.881C204.729 331.765 204.856 331.673 205 331.604C205.145 331.536 205.307 331.502 205.485 331.502ZM207.471 335.316L206.049 331.57H206.657L207.481 333.836C207.538 333.991 207.596 334.162 207.655 334.349C207.715 334.536 207.756 334.686 207.778 334.8H207.802C207.83 334.686 207.875 334.536 207.939 334.349C208.003 334.16 208.061 333.989 208.113 333.836L208.937 331.57H209.545L208.12 335.316H207.471ZM210.714 331.57V335.316H210.147V331.57H210.714ZM210.438 330.169C210.531 330.169 210.611 330.199 210.677 330.261C210.745 330.32 210.779 330.414 210.779 330.541C210.779 330.667 210.745 330.76 210.677 330.822C210.611 330.883 210.531 330.914 210.438 330.914C210.34 330.914 210.257 330.883 210.191 330.822C210.128 330.76 210.096 330.667 210.096 330.541C210.096 330.414 210.128 330.32 210.191 330.261C210.257 330.199 210.34 330.169 210.438 330.169ZM213.36 331.502C213.679 331.502 213.952 331.572 214.18 331.714C214.408 331.855 214.582 332.053 214.703 332.308C214.824 332.561 214.884 332.858 214.884 333.197V333.549H212.297C212.304 333.989 212.413 334.324 212.625 334.554C212.837 334.784 213.135 334.899 213.521 334.899C213.757 334.899 213.967 334.878 214.149 334.834C214.332 334.791 214.521 334.727 214.717 334.643V335.142C214.528 335.226 214.34 335.288 214.153 335.326C213.968 335.365 213.75 335.385 213.497 335.385C213.137 335.385 212.822 335.312 212.553 335.166C212.287 335.018 212.079 334.801 211.931 334.516C211.783 334.232 211.709 333.883 211.709 333.47C211.709 333.067 211.776 332.719 211.911 332.425C212.047 332.128 212.239 331.9 212.485 331.741C212.733 331.581 213.025 331.502 213.36 331.502ZM213.353 331.967C213.05 331.967 212.808 332.066 212.628 332.264C212.448 332.462 212.341 332.739 212.307 333.094H214.29C214.287 332.871 214.252 332.675 214.184 332.507C214.118 332.336 214.016 332.204 213.879 332.11C213.743 332.014 213.567 331.967 213.353 331.967ZM218.897 335.309L218.23 333.129C218.201 333.035 218.172 332.944 218.145 332.855C218.12 332.764 218.096 332.677 218.073 332.595C218.053 332.511 218.033 332.434 218.015 332.363C217.999 332.29 217.986 332.227 217.974 332.175H217.95C217.941 332.227 217.929 332.29 217.913 332.363C217.897 332.434 217.877 332.511 217.854 332.595C217.834 332.68 217.811 332.769 217.786 332.862C217.761 332.953 217.733 333.045 217.701 333.139L217.003 335.309H216.364L215.332 331.563H215.92L216.46 333.631C216.496 333.768 216.531 333.903 216.562 334.038C216.597 334.17 216.625 334.295 216.648 334.414C216.673 334.53 216.691 334.631 216.703 334.718H216.73C216.744 334.661 216.758 334.593 216.774 334.513C216.793 334.433 216.812 334.349 216.833 334.26C216.855 334.169 216.879 334.079 216.904 333.99C216.929 333.899 216.954 333.813 216.979 333.734L217.67 331.563H218.282L218.948 333.73C218.982 333.84 219.015 333.954 219.047 334.072C219.082 334.191 219.112 334.306 219.14 334.417C219.167 334.527 219.186 334.625 219.198 334.711H219.225C219.234 334.634 219.251 334.538 219.276 334.424C219.301 334.31 219.33 334.185 219.362 334.048C219.396 333.911 219.431 333.772 219.468 333.631L220.015 331.563H220.592L219.557 335.309H218.897Z" fill="#666666"/>
<path d="M30.5225 335.743H220.674V335.914H30.5225V335.743Z" fill="#666666"/>
<a href="https://m3.material.io/components/icon-buttons/overview">
<rect fill="black" fill-opacity="0" y="0.233643" width="190.152" height="9.53271"/>
</a>
</svg>
