<svg width="600" height="600" viewBox="0 0 600 600" fill="none" xmlns="http://www.w3.org/2000/svg">
<path d="M416.371 194.168C416.371 183.992 413.935 173.917 409.202 164.516C404.469 155.116 397.531 146.574 388.785 139.379C380.039 132.184 369.656 126.477 358.229 122.583C346.802 118.689 334.554 116.685 322.186 116.685C309.817 116.685 297.569 118.689 286.142 122.583C274.715 126.477 264.332 132.184 255.586 139.379C246.84 146.574 239.903 155.116 235.169 164.516C230.436 173.917 228 183.992 228 194.168H229.204C229.204 184.122 231.609 174.176 236.282 164.895C240.955 155.615 247.804 147.182 256.438 140.08C265.072 132.977 275.322 127.342 286.603 123.498C297.884 119.654 309.975 117.675 322.186 117.675C334.396 117.675 346.487 119.654 357.768 123.498C369.049 127.342 379.299 132.977 387.933 140.08C396.568 147.182 403.416 155.615 408.089 164.895C412.762 174.176 415.167 184.122 415.167 194.168H416.371Z" fill="#FFB46E"/>
<path d="M191 199.984H453.371V455.246H191V199.984Z" fill="#FFB46E"/>
<path d="M394.371 208.483C394.371 198.308 391.935 188.232 387.202 178.831C382.469 169.431 375.531 160.889 366.785 153.694C358.039 146.499 347.656 140.792 336.229 136.898C324.802 133.004 312.554 131 300.186 131C287.817 131 275.569 133.004 264.142 136.898C252.715 140.792 242.332 146.499 233.586 153.694C224.84 160.889 217.903 169.431 213.169 178.831C208.436 188.232 206 198.308 206 208.483L207.204 208.483C207.204 198.438 209.609 188.491 214.282 179.211C218.955 169.93 225.804 161.498 234.438 154.395C243.072 147.292 253.322 141.657 264.603 137.813C275.884 133.969 287.975 131.991 300.186 131.991C312.396 131.991 324.487 133.969 335.768 137.813C347.049 141.657 357.299 147.292 365.933 154.395C374.568 161.498 381.416 169.93 386.089 179.211C390.762 188.491 393.167 198.438 393.167 208.483H394.371Z" stroke="#1E1E1E" stroke-width="5"/>
<rect x="171.5" y="216.799" width="257.371" height="250.263" stroke="#1E1E1E" stroke-width="5"/>
</svg>
