<svg width="600" height="600" viewBox="0 0 600 600" fill="none" xmlns="http://www.w3.org/2000/svg">
<path fill-rule="evenodd" clip-rule="evenodd" d="M298.311 97.2713C301.656 89.7982 310.426 86.4518 317.899 89.7969L403.394 128.066C410.867 131.411 414.214 140.181 410.869 147.654L394.999 183.108L418.302 183.108V192.454L386.83 508.627H213.402L181 183.108L259.889 183.108L298.311 97.2713ZM338.766 296.498L387.283 188.108L263.129 188.108L228.374 265.752C226.149 270.721 228.39 276.552 233.37 278.752L273.522 296.498H338.766ZM344.244 296.498H402.921L413.302 192.206V188.108L392.761 188.108L344.244 296.498ZM402.423 301.498H197.809L217.929 503.627H382.303L402.423 301.498ZM197.311 296.498L186.522 188.108L257.651 188.108L223.81 263.709C220.454 271.207 223.835 280.005 231.349 283.326L261.153 296.498H197.311ZM406.305 145.612L389.521 183.108L265.367 183.108L302.874 99.3141C305.091 94.3614 310.903 92.1437 315.856 94.3606L401.352 132.63C406.304 134.847 408.522 140.659 406.305 145.612Z" fill="#1E1E1E"/>
</svg>
