<svg width="600" height="600" viewBox="0 0 600 600" fill="none" xmlns="http://www.w3.org/2000/svg">
<path d="M203.162 491.386H411.065L382.07 491.386L403.722 273.868H210.219L231.871 491.386L203.162 491.386Z" fill="#FF6E6E"/>
<path fill-rule="evenodd" clip-rule="evenodd" d="M324.103 94.9096C318.046 92.198 310.936 94.9107 308.225 100.969L235.559 263.307C232.847 269.365 235.56 276.474 241.618 279.186L324.981 316.501C331.039 319.212 338.148 316.5 340.86 310.442L413.525 148.103C416.237 142.045 413.524 134.936 407.466 132.224L324.103 94.9096ZM325.695 109L395.896 140.423C399.433 142.007 401.017 146.158 399.434 149.696L332.66 298.872C331.077 302.409 326.925 303.993 323.388 302.41L253.187 270.987C249.65 269.403 248.066 265.252 249.649 261.714L316.423 112.538C318.007 109.001 322.158 107.417 325.695 109ZM311.86 110.496C314.571 104.438 321.68 101.725 327.738 104.437L397.939 135.86C403.997 138.571 406.709 145.681 403.998 151.738L337.224 300.914C334.512 306.972 327.403 309.685 321.345 306.973L251.145 275.55C245.087 272.839 242.374 265.73 245.086 259.672L311.86 110.496Z" fill="#FF6E6E"/>
<path d="M415.118 191.548V192.397L385.178 493.188H230.343L200.318 191.548H415.118Z" stroke="#FF6E6E" stroke-width="6.00878"/>
<path fill-rule="evenodd" clip-rule="evenodd" d="M298.311 97.2708C301.656 89.7977 310.426 86.4513 317.899 89.7964L403.394 128.066C410.867 131.411 414.214 140.181 410.869 147.654L394.999 183.108L418.302 183.108V192.454L386.83 508.627H213.402L181 183.108L259.889 183.108L298.311 97.2708ZM338.766 296.497L387.283 188.108L263.129 188.108L228.374 265.751C226.149 270.721 228.39 276.551 233.37 278.752L273.522 296.497H338.766ZM344.244 296.497H402.921L413.302 192.206V188.108L392.761 188.108L344.244 296.497ZM402.423 301.497H197.809L217.929 503.627H382.303L402.423 301.497ZM197.311 296.497L186.522 188.108L257.651 188.108L223.81 263.709C220.454 271.207 223.835 280.005 231.349 283.325L261.153 296.497H197.311ZM406.305 145.611L389.521 183.108L265.367 183.108L302.874 99.3136C305.091 94.361 310.903 92.1432 315.856 94.3601L401.352 132.629C406.304 134.846 408.522 140.658 406.305 145.611Z" fill="#1E1E1E"/>
</svg>
