<svg width="600" height="600" viewBox="0 0 600 600" fill="none" xmlns="http://www.w3.org/2000/svg">
<path d="M109.685 304.489C110.05 305.156 110.47 305.858 110.954 306.59C114.367 311.753 120.884 318.304 133.292 324.643C158.037 337.283 206.495 349.229 301.707 347.572C396.891 345.915 444.862 333.958 469.122 322.184C481.282 316.282 487.596 310.372 490.87 305.72C491.139 305.338 491.385 304.963 491.614 304.6C492.577 307.87 493.658 312.142 494.401 316.861C496.072 327.481 495.92 339.651 489.781 348.018C486.502 352.488 482.926 356.591 477.051 360.354C471.138 364.141 462.764 367.666 449.801 370.729C423.82 376.868 379.907 381.048 301.627 382.152C223.369 383.255 179.501 379.274 153.354 372.701C140.317 369.423 131.777 365.523 125.606 361.354C119.449 357.195 115.52 352.685 111.754 347.943C104.797 339.181 104.648 327.053 106.523 316.608C107.365 311.918 108.594 307.699 109.685 304.489Z" stroke="#1E1E1E" stroke-width="5"/>
<path d="M236.801 217.5H364.79C380.661 217.5 394.003 228.355 397.785 243.05L398.269 244.927H469.925C476.118 244.927 481.138 249.947 481.138 256.14C481.138 262.332 476.118 267.352 469.925 267.353H398.269L397.785 269.229C394.003 283.924 380.661 294.779 364.79 294.779H236.801C220.93 294.779 207.588 283.924 203.806 269.229L203.323 267.353H131.666C125.474 267.352 120.453 262.332 120.453 256.14C120.453 249.947 125.474 244.927 131.666 244.927H203.323L203.806 243.05C207.588 228.355 220.93 217.5 236.801 217.5Z" stroke="#1E1E1E" stroke-width="5"/>
</svg>
