<svg width="600" height="600" viewBox="0 0 600 600" fill="none" xmlns="http://www.w3.org/2000/svg">
<path d="M124.75 281.139C124.75 281.139 126.484 332.241 316.617 328.933C506.749 325.624 506.75 281.139 506.75 281.139C506.75 281.139 520.28 314.917 506.75 333.358C493.219 351.799 473.204 366.304 316.617 368.512C160.029 370.72 140.042 352.618 124.75 333.358C109.458 314.098 124.75 281.139 124.75 281.139Z" fill="#FFE790"/>
<path d="M498.592 240C498.592 232.426 492.452 226.287 484.879 226.287H415.16C411.101 210.514 396.783 198.86 379.744 198.86H251.754C234.715 198.86 220.398 210.514 216.338 226.287H146.62C139.047 226.287 132.907 232.426 132.907 240C132.907 247.573 139.047 253.713 146.62 253.713H216.338C220.398 269.485 234.715 281.139 251.754 281.139H379.744C396.783 281.139 411.101 269.485 415.16 253.713H484.879C492.452 253.713 498.592 247.573 498.592 240Z" fill="#FFE790"/>
<path d="M109.685 304.489C110.049 305.156 110.469 305.859 110.953 306.591C114.367 311.754 120.883 318.305 133.292 324.644C158.037 337.284 206.495 349.229 301.706 347.572C396.891 345.916 444.862 333.958 469.121 322.185C481.281 316.283 487.596 310.373 490.869 305.721C491.138 305.338 491.385 304.964 491.613 304.601C492.576 307.871 493.658 312.143 494.4 316.861C496.071 327.482 495.919 339.651 489.78 348.019C486.501 352.488 482.925 356.592 477.051 360.354C471.138 364.142 462.764 367.666 449.801 370.729C423.82 376.869 379.907 381.048 301.627 382.152C223.368 383.256 179.5 379.274 153.354 372.701C140.316 369.424 131.777 365.523 125.605 361.354C119.448 357.195 115.519 352.686 111.754 347.943C104.797 339.181 104.647 327.054 106.522 316.608C107.364 311.919 108.594 307.699 109.685 304.489Z" stroke="#1E1E1E" stroke-width="5"/>
<path d="M236.801 217.5H364.79C380.661 217.5 394.003 228.355 397.785 243.05L398.269 244.927H469.925C476.118 244.927 481.138 249.947 481.138 256.14C481.138 262.332 476.118 267.352 469.925 267.353H398.269L397.785 269.229C394.003 283.924 380.661 294.779 364.79 294.779H236.801C220.93 294.779 207.588 283.924 203.806 269.229L203.322 267.353H131.666C125.473 267.352 120.453 262.332 120.453 256.14C120.453 249.947 125.473 244.927 131.666 244.927H203.322L203.806 243.05C207.588 228.355 220.93 217.5 236.801 217.5Z" stroke="#1E1E1E" stroke-width="5"/>
</svg>
