<svg width="153" height="158" viewBox="0 0 153 158" fill="none" xmlns="http://www.w3.org/2000/svg">
<path d="M60.3137 81.5121C63.2017 100.894 66.8193 118.917 71.2273 136.682C68.8235 136.483 66.4055 136.575 64.0225 136.957C59.6829 137.655 59.8197 138.801 50.9277 137.451C46.4969 136.776 44.2853 136.439 42.5677 135.795C39.1705 134.539 39.3377 133.652 33.9037 130.449C29.0245 127.576 28.1429 127.866 24.7001 125.441C22.4467 123.852 20.3717 122.009 18.5137 119.946C15.0253 116.107 14.9797 114.286 9.96369 104.834C5.72289 96.9295 4.68169 96.1445 4.27129 92.7847C3.90649 89.6447 4.65889 89.3464 4.65889 83.2391C4.65889 76.2683 3.67089 76.0877 4.25609 72.6808C5.01609 68.12 6.82489 68.2848 9.21889 61.8635C11.6737 55.2224 10.1537 54.1862 12.5173 50.6145C14.7973 47.1919 16.2717 48.0946 20.7253 42.9843C23.3093 40.0248 23.2257 39.2555 25.7717 36.7043C27.1017 35.3933 28.8877 34.1216 32.3989 31.6253C38.9501 26.9781 40.0977 26.6406 40.8349 26.4757C44.0117 25.7457 44.3233 27.0252 48.3361 26.4757C52.8961 25.8477 53.2761 24.1207 56.9317 23.7596C60.3289 23.4378 60.8381 24.8508 66.3405 26.0754C73.0893 27.5747 73.4921 25.6986 78.1965 27.2372C79.9445 27.8102 82.8933 29.7963 88.6997 33.7448C96.7481 39.2398 98.3669 40.0248 105.868 49.9394C111.241 57.0044 113.939 60.584 114.494 64.8544C114.844 67.5234 114.35 68.4418 114.95 73.144C115.581 78.1209 116.402 79.2042 116.47 81.8261C116.538 84.448 115.809 88.2474 111.971 93.0594C95.2737 90.1863 77.1097 86.1436 60.3137 81.5121Z" fill="#FFD997"/>
<path d="M72.6641 95.7049C80.7733 123.965 81.4345 132.066 88.6241 152.641C92.623 151.082 96.3636 148.892 99.7125 146.149C104.979 141.58 107.13 141.824 109.858 140.214C111.606 139.186 112.8 137.781 115.178 134.971C117.998 131.666 120.08 129.232 121.707 125.441C122.794 122.897 122.642 122.159 124.108 118.933C124.982 116.998 125.999 115.134 127.148 113.36C116.805 111.421 111.637 108.799 103.338 105.839C100.442 104.779 89.3385 101.679 72.6641 95.7049Z" fill="#FFD997"/>
<path d="M100.594 141.847C97.0067 144.813 92.4703 146.276 87.8867 145.945C87.3648 144.701 86.5074 143.638 85.4167 142.883L84.7251 140.63C88.2 137.974 91.8634 135.591 95.6843 133.503C98.2075 137.043 98.0707 138.275 100.594 141.847Z" fill="#81F8F8"/>
<path d="M111.013 122.56C111.996 124.829 113.192 126.993 114.585 129.02C110.025 131.94 110.17 134.311 105.61 136.768C103.763 134.625 102.241 132.206 101.095 129.593C104.249 127.027 107.562 124.678 111.013 122.56Z" fill="#81F8F8"/>
<path d="M119.457 116.664L116.463 118.91L117.983 121.547C118.738 121.036 119.298 120.269 119.567 119.379C119.836 118.488 119.797 117.529 119.457 116.664Z" fill="#81F8F8"/>
<path d="M109.782 108.241L117.071 110.832C116.139 112.141 114.796 113.073 113.271 113.469L109.782 108.241Z" fill="#81F8F8"/>
<path d="M89.7183 114.2C94.2023 110.691 94.1567 109.435 99.2487 105.604C101.25 109.907 104.097 113.733 107.609 116.837C104.645 119.239 102.646 119.773 101.08 120.762C99.8731 121.526 98.7864 122.476 97.8579 123.58C94.9547 119.121 92.9939 118.847 89.7183 114.2Z" fill="#81F8F8"/>
<path d="M79.4351 120.919C80.6741 119.503 82.102 118.277 83.6759 117.277C85.9559 119.702 86.3891 120.958 87.5443 122.473C88.6995 123.988 89.7559 124.687 91.7091 127.607C86.9439 131.022 85.2187 130.747 82.8551 134.17L79.4351 120.919Z" fill="#81F8F8"/>
<path d="M74.5103 102.26C77.6415 105.4 77.6035 107.119 80.9779 112.653C80.0471 113.512 79.0031 114.231 77.8771 114.788C76.7523 110.612 75.63 106.436 74.5103 102.26Z" fill="#81F8F8"/>
<path d="M79.8608 98.1306C81.7344 101.309 83.8514 104.328 86.1916 107.158C88.958 105.792 89.7332 104.803 92.9632 102.574L79.8608 98.1306Z" fill="#81F8F8"/>
<path d="M72.7856 95.752L74.4348 101.663L79.1012 97.9421L72.7856 95.752Z" fill="#81F8F8"/>
<path d="M61.8874 130.166L60.2686 132.608C61.03 133.098 61.9369 133.289 62.8232 133.144C63.7095 133 64.5159 132.531 65.0946 131.823L61.8874 130.166Z" fill="#81F8F8"/>
<path d="M67.1537 119.184C65.6945 120.974 66.1429 121.893 64.7065 124.091C66.0441 125.857 66.9865 125.433 68.8865 126.964L67.1537 119.184Z" fill="#81F8F8"/>
<path d="M28.3941 112.975C26.9583 114.449 25.8147 116.198 25.0273 118.125C25.8952 120.22 27.1779 122.105 28.793 123.659C30.4081 125.212 32.32 126.399 34.4057 127.144C36.9517 122.827 37.8029 122.207 38.8669 119.114C35.5203 116.815 32.0207 114.764 28.3941 112.975Z" fill="#81F8F8"/>
<path d="M44.8934 121.853C43.4309 124.285 42.262 126.892 41.4126 129.617C44.6426 131.187 46.459 130.999 48.397 131.524C49.801 131.904 51.1322 132.528 52.3338 133.369C53.2089 131.178 54.28 129.075 55.5334 127.089C52.258 124.806 48.6721 123.039 44.8934 121.845V121.853Z" fill="#81F8F8"/>
<path d="M35.7355 95.1475C33.8707 98.7296 32.3241 102.479 31.1147 106.349C36.5943 108.979 37.4835 110.431 42.1423 112.151C43.9055 107.684 44.7491 104.615 46.8619 100.376C42.0739 97.4868 40.4779 98.3503 35.7355 95.1475Z" fill="#81F8F8"/>
<path d="M52.3186 103.743C50.4338 109.113 50.449 110.604 48.5186 115.338C51.7182 117.473 53.7018 117.693 55.5106 118.58C56.8209 119.253 58.0047 120.162 59.0066 121.264C60.8686 115.432 60.9522 114.78 61.4158 113.509C62.0841 111.661 62.9917 109.916 64.1138 108.32C60.2635 106.579 56.3262 105.051 52.3186 103.743Z" fill="#81F8F8"/>
<path d="M18.2784 86.6067C16.4635 90.5214 15.1724 94.6728 14.4404 98.9469C17.3734 101.488 20.7182 103.473 24.3204 104.811C26.0912 98.6172 27.9228 95.1475 29.8152 92.4157C25.7156 91.0717 21.8287 89.1146 18.2784 86.6067Z" fill="#81F8F8"/>
<path d="M17.8682 109.411L21.0754 110.518C20.4797 111.446 19.944 112.414 19.4718 113.415C18.4729 112.333 17.901 110.905 17.8682 109.411Z" fill="#81F8F8"/>
<path d="M10.6935 82.8622C10.6344 83.454 10.6966 84.052 10.876 84.6174C11.0554 85.1827 11.348 85.7027 11.7347 86.1435L13.1939 83.8906L10.6935 82.8622Z" fill="#81F8F8"/>
<path d="M13.5207 63.6847C11.0411 67.2138 9.80478 71.5129 10.0171 75.8679C11.6774 77.2201 13.7578 77.901 15.8691 77.7833C18.3695 72.5944 18.6583 71.0244 21.0447 66.6991C18.4758 65.8647 15.9624 64.8577 13.5207 63.6847Z" fill="#81F8F8"/>
<path d="M26.7216 69.9726C25.2776 74.5177 23.7424 75.4676 22.1616 80.3503C27.208 84.0319 27.7704 85.6804 29.9288 86.4105C31.0181 86.7758 32.1801 86.8461 33.3032 86.6146C34.4367 85.0292 35.3003 83.2559 35.8568 81.3708C36.0392 80.7585 37.3768 75.7345 37.506 75.2007C33.7405 73.8614 30.1251 72.1087 26.7216 69.9726Z" fill="#81F8F8"/>
<path d="M44.8932 77.5871C44.3434 78.192 43.9032 78.8939 43.5936 79.6595C43.1756 80.6564 43.2288 81.567 41.9824 83.5845C40.9272 85.5714 40.1008 87.6791 39.52 89.8645C43.6848 91.4345 44.7564 92.9417 49.59 95.2103C49.9615 93.702 50.581 92.2708 51.4216 90.9792C52.3716 89.5191 53.1088 89.0402 53.998 87.5409C54.6821 86.3822 55.1752 85.1142 55.4572 83.7886C54.6972 83.2391 50.502 80.1776 49.5824 79.6045C48.1268 78.6917 46.5458 78.0115 44.8932 77.5871Z" fill="#81F8F8"/>
<path d="M61.1497 87.0306C59.2198 90.1693 57.6246 93.5146 56.3921 97.008C58.9533 99.363 60.5721 98.578 63.5361 100.98L61.1497 87.0306Z" fill="#81F8F8"/>
<path d="M24.5941 46.2656C24.1373 46.9697 23.61 47.6222 23.0209 48.2124C21.6757 49.5469 20.8245 49.7353 19.9809 50.9756C19.5904 51.6209 19.2934 52.3217 19.0993 53.0558C18.4973 54.7665 17.776 56.4299 16.9409 58.0327C17.8168 58.8748 18.8633 59.5047 20.0044 59.8768C21.1455 60.2488 22.3525 60.3536 23.5377 60.1836C24.6332 59.0673 25.5697 57.796 26.3193 56.4078C27.3985 54.3903 27.7405 52.42 30.1193 48.7305L24.5941 46.2656Z" fill="#81F8F8"/>
<path d="M35.4998 52.0197C34.6334 57.13 32.285 57.8836 30.5522 63.6926C34.641 66.4794 36.2902 66.181 40.4322 68.8893C42.7877 65.4719 44.5991 61.6876 45.7978 57.6795C42.0601 56.4847 38.5705 54.5814 35.5074 52.0668L35.4998 52.0197Z" fill="#81F8F8"/>
<path d="M52.2653 59.5792C50.1375 63.1882 48.3557 67.003 46.9453 70.9695C50.7184 72.5419 54.3586 74.435 57.8285 76.6294C59.5917 73.1675 61.6285 69.5094 63.7717 66.0397C58.0337 63.1195 57.3953 61.3768 52.2653 59.5792Z" fill="#81F8F8"/>
<path d="M69.738 68.6695L64.5244 80.3424C66.9716 82.6346 68.2864 82.2892 71.3644 84.4166L74.868 85.2879C75.2622 84.2632 75.727 83.2689 76.2588 82.3128C77.528 80.0363 77.3988 81.3001 80.2108 73.1126C77.0254 70.9567 73.4709 69.4486 69.738 68.6695Z" fill="#81F8F8"/>
<path d="M81.5938 86.8972C83.623 83.5845 83.5773 82.3206 85.7965 77.5871C87.0874 78.5656 88.5013 79.3579 89.9993 79.9421C91.5193 80.5073 93.7385 80.8841 97.8729 82.3834C96.9153 85.5234 95.7829 86.0572 94.3389 89.7467L81.5938 86.8972Z" fill="#81F8F8"/>
<path d="M101.141 91.1126L103.816 85.6647L108.164 88.1532V92.4471L101.141 91.1126Z" fill="#81F8F8"/>
<path d="M105.998 78.953C106.692 77.0419 107.507 75.1801 108.437 73.3795C109.289 75.7813 109.432 78.3904 108.848 80.8762C107.766 80.4712 106.791 79.8129 105.998 78.953Z" fill="#81F8F8"/>
<path d="M88.6089 70.3494C89.9171 66.4975 91.9673 62.9592 94.6357 59.9481C97.9142 62.0986 101.507 63.689 105.276 64.6581C103.856 65.7523 102.832 67.3052 102.365 69.0698C101.605 71.5269 101.65 72.8535 100.009 75.3498C99.1023 75.2513 98.2155 75.0104 97.3793 74.6355C95.9353 73.9839 95.7681 73.4187 94.2937 72.775C93.0473 72.2255 92.7205 72.4296 91.3373 71.8958C90.3606 71.5184 89.4417 70.9976 88.6089 70.3494Z" fill="#81F8F8"/>
<path d="M76.6313 51.2896C75.3013 55.9996 73.4469 56.5491 72.0713 61.4946C73.5271 62.9355 75.2378 64.0735 77.1101 64.8465C79.1885 65.5644 81.1984 66.4789 83.1141 67.5783C84.0284 63.7571 85.593 60.1343 87.7349 56.8788C84.0033 55.0811 80.2717 53.2207 76.6313 51.2896Z" fill="#81F8F8"/>
<path d="M60.6255 42.4034C57.6684 45.5305 55.4613 49.3292 54.1807 53.4954C55.1901 54.3761 56.3129 55.1079 57.5171 55.6699C59.1435 56.4549 60.0175 56.4549 61.6591 57.2399C62.8642 57.7992 63.9914 58.5226 65.0107 59.3908C68.0507 54.4296 67.1767 52.4043 70.4371 48.8718C66.0823 46.2734 65.1551 44.1225 60.6255 42.4034Z" fill="#81F8F8"/>
<path d="M42.8337 34.5142C40.6195 37.7772 38.8308 41.3271 37.5137 45.0724C40.8431 47.7572 44.4285 50.085 48.2145 52.0197L53.6637 39.8443C49.7539 38.8078 46.0759 36.9976 42.8337 34.5142Z" fill="#81F8F8"/>
<path d="M33.0299 38.6825L28.5991 41.8225C28.8797 42.2724 29.2797 42.6293 29.7514 42.8506C30.2231 43.072 30.7465 43.1484 31.2591 43.0706C31.8519 41.5948 32.4447 40.1426 33.0299 38.6825Z" fill="#81F8F8"/>
<path d="M57.6311 30.9895C55.8492 30.8409 54.0591 31.1455 52.4175 31.8765C53.6024 32.7714 54.9447 33.4194 56.3695 33.7841C56.7951 32.8499 57.2131 31.9236 57.6311 30.9895Z" fill="#81F8F8"/>
<path d="M76.6992 33.3916C72.933 31.7925 68.9718 30.7359 64.9268 30.2516C63.69 31.8675 63.0035 33.8596 62.9736 35.9193C67.4576 39.4361 69.8136 38.0152 74.1608 41.8539C75.81 37.9995 74.8372 36.4845 76.6992 33.3916Z" fill="#81F8F8"/>
<path d="M82.757 36.7592C81.5092 39.3406 80.6628 42.109 80.249 44.9625C84.5582 48.1025 86.6102 47.2547 91.2386 50.5281C92.2135 48.4205 93.0538 46.2493 93.7542 44.0283C93.025 42.4605 91.8983 41.1258 90.4938 40.1661C89.3082 39.389 87.1498 38.8395 82.757 36.7592Z" fill="#81F8F8"/>
<path d="M97.7821 50.1278C97.3753 51.3938 97.1675 52.7189 97.1665 54.0528C98.9008 55.3248 100.83 56.2855 102.874 56.8945C101.607 54.3263 99.8789 52.03 97.7821 50.1278Z" fill="#81F8F8"/>
<path d="M43.5939 38.2979C42.6943 38.9642 41.9612 39.8422 41.455 40.8591C40.9489 41.876 40.6843 43.0027 40.6831 44.1461C40.6831 44.2127 40.7087 44.2766 40.7543 44.3237C40.7999 44.3709 40.8618 44.3973 40.9263 44.3973C40.9589 44.3984 40.9913 44.3926 41.0217 44.3805C41.0521 44.3683 41.0798 44.35 41.1032 44.3266C41.1266 44.3031 41.1452 44.2751 41.1579 44.2441C41.1706 44.2131 41.1771 44.1798 41.1771 44.1461C41.178 43.0838 41.4239 42.037 41.8944 41.0923C42.3649 40.1477 43.0465 39.3324 43.8827 38.7139C43.915 38.6971 43.9434 38.6732 43.9659 38.6439C43.9885 38.6147 44.0046 38.5807 44.0132 38.5444C44.0219 38.5081 44.0228 38.4703 44.0159 38.4336C44.009 38.3969 43.9946 38.3621 43.9735 38.3317C43.9524 38.3014 43.9252 38.276 43.8937 38.2575C43.8623 38.2391 43.8273 38.2278 43.7912 38.2246C43.7552 38.2214 43.7189 38.2263 43.6848 38.2389C43.6507 38.2516 43.6197 38.2717 43.5939 38.2979Z" fill="black"/>
<path d="M36.343 56.0389C36.3115 56.0307 36.2788 56.0291 36.2468 56.0342C36.2147 56.0393 36.184 56.051 36.1564 56.0686C36.1288 56.0861 36.1048 56.1092 36.086 56.1365C36.0671 56.1637 36.0537 56.1946 36.0466 56.2273C35.5192 58.5624 34.3314 60.6828 32.6342 62.3189C32.5967 62.353 32.5703 62.3982 32.5586 62.4483C32.5468 62.4985 32.5503 62.5512 32.5686 62.5992C32.5869 62.6472 32.619 62.6883 32.6607 62.7168C32.7023 62.7453 32.7515 62.7598 32.8014 62.7585C32.8625 62.758 32.9215 62.7358 32.9686 62.6957C34.7425 60.9926 35.9836 58.7813 36.533 56.345C36.5466 56.2784 36.5343 56.209 36.4987 56.1517C36.4632 56.0944 36.4072 56.0539 36.343 56.0389Z" fill="black"/>
<path d="M27.6869 73.3795C26.0433 74.902 24.9119 76.9257 24.4569 79.1571C24.4503 79.1896 24.4499 79.2231 24.4559 79.2558C24.4618 79.2884 24.474 79.3195 24.4917 79.3472C24.5094 79.3749 24.5322 79.3988 24.5588 79.4174C24.5855 79.4359 24.6154 79.4489 24.6469 79.4554C24.7114 79.4695 24.7786 79.4568 24.8341 79.42C24.8895 79.3833 24.9288 79.3255 24.9433 79.2592C25.3643 77.1398 26.4293 75.2147 27.9833 73.7642C28.014 73.7442 28.04 73.7175 28.0598 73.6861C28.0795 73.6547 28.0924 73.6193 28.0976 73.5822C28.1027 73.5452 28.1001 73.5074 28.0898 73.4715C28.0795 73.4356 28.0618 73.4025 28.0378 73.3743C28.0139 73.3462 27.9844 73.3237 27.9513 73.3085C27.9182 73.2933 27.8823 73.2857 27.846 73.2862C27.8098 73.2866 27.7741 73.2953 27.7414 73.3114C27.7087 73.3275 27.6797 73.3507 27.6565 73.3795H27.6869Z" fill="black"/>
<path d="M44.62 81.779C44.5874 81.7758 44.5546 81.7793 44.5234 81.7895C44.4922 81.7997 44.4633 81.8163 44.4385 81.8383C44.4137 81.8603 44.3934 81.8872 44.3789 81.9175C44.3643 81.9478 44.3559 81.9808 44.354 82.0145C44.3351 84.0033 43.5534 85.9031 42.1804 87.2975C42.1463 87.3337 42.1232 87.3794 42.1139 87.429C42.1047 87.4786 42.1096 87.5299 42.1282 87.5766C42.1468 87.6233 42.1781 87.6633 42.2185 87.6919C42.2588 87.7204 42.3063 87.7361 42.3552 87.7371C42.4187 87.7345 42.4787 87.7064 42.5224 87.6586C43.2542 86.9243 43.8379 86.0473 44.2397 85.0786C44.6415 84.1098 44.8534 83.0684 44.8632 82.0145C44.8593 81.9506 44.832 81.8907 44.7868 81.8469C44.7416 81.8032 44.6819 81.7789 44.62 81.779Z" fill="black"/>
<path d="M52.8737 63.6455C52.8486 63.6236 52.8194 63.6072 52.788 63.5973C52.7565 63.5874 52.7235 63.5842 52.6908 63.5879C52.6581 63.5916 52.6265 63.602 52.5978 63.6187C52.5692 63.6353 52.5441 63.6578 52.5241 63.6847C51.1282 65.4782 50.0479 67.5108 49.3321 69.69C49.3202 69.7285 49.3173 69.7694 49.3234 69.8093C49.3296 69.8493 49.3448 69.8872 49.3677 69.92C49.3906 69.9528 49.4206 69.9796 49.4553 69.9983C49.4901 70.017 49.5286 70.027 49.5677 70.0275C49.6194 70.0273 49.6698 70.0106 49.712 69.9797C49.7542 69.9488 49.7861 69.9052 49.8033 69.8548C50.5051 67.7324 51.5567 65.7512 52.9117 63.9987C52.9317 63.973 52.9465 63.9434 52.9554 63.9117C52.9644 63.88 52.9671 63.8468 52.9636 63.814C52.9601 63.7812 52.9503 63.7494 52.9349 63.7205C52.9195 63.6916 52.8987 63.6661 52.8737 63.6455Z" fill="black"/>
<path d="M60.9522 46.2106C60.8869 46.2063 60.8225 46.2284 60.7728 46.2724C60.7231 46.3165 60.6921 46.3788 60.6862 46.4461C60.5995 47.6333 60.2862 48.7911 59.7645 49.8527C59.2427 50.9143 58.5228 51.8588 57.6462 52.6319C57.6063 52.6648 57.5774 52.7099 57.5636 52.7608C57.5499 52.8116 57.552 52.8656 57.5697 52.9151C57.5873 52.9647 57.6197 53.0072 57.6621 53.0367C57.7045 53.0662 57.7548 53.0811 57.8058 53.0794C57.8667 53.0777 57.9254 53.0556 57.973 53.0166C58.8929 52.1977 59.6471 51.1992 60.1923 50.0783C60.7375 48.9575 61.0629 47.7365 61.1498 46.4854C61.1549 46.4226 61.1376 46.3601 61.1012 46.3095C61.0649 46.2589 61.0119 46.2238 60.9522 46.2106Z" fill="black"/>
<path d="M36.7541 98.7664C35.0935 100.549 33.9757 102.795 33.5393 105.227C33.5276 105.261 33.523 105.297 33.5256 105.333C33.5282 105.369 33.5381 105.404 33.5546 105.436C33.571 105.467 33.5937 105.495 33.6212 105.517C33.6486 105.54 33.6803 105.556 33.7141 105.564C33.7794 105.576 33.8466 105.562 33.9018 105.524C33.9569 105.486 33.9959 105.427 34.0105 105.36C34.4155 103.031 35.4723 100.875 37.0505 99.1589C37.0739 99.1355 37.0926 99.1074 37.1053 99.0764C37.118 99.0454 37.1246 99.012 37.1246 98.9783C37.1246 98.9447 37.118 98.9113 37.1053 98.8803C37.0926 98.8493 37.0739 98.8212 37.0505 98.7978C37.0108 98.7605 36.9606 98.7374 36.9073 98.7317C36.8539 98.726 36.8002 98.7382 36.7541 98.7664Z" fill="black"/>
<path d="M69.6089 128.895C69.5413 126.892 69.6533 124.887 69.9433 122.905C70.124 122.156 70.046 121.364 69.7229 120.668C69.2137 119.734 68.5373 119.883 67.9293 119.153C67.0249 118.109 67.0097 116.178 67.5189 114.922C67.9293 113.901 68.4537 113.909 68.7349 112.716C68.8107 112.344 68.8286 111.963 68.7881 111.585C68.7159 110.569 68.7159 109.548 68.7881 108.532C68.9477 106.42 67.0401 106.506 64.1445 102.888C64.0001 102.103 62.6853 94.7393 62.2065 91.8976C62.6366 91.7072 63.0112 91.4041 63.2933 91.0184C64.3649 89.4484 63.1413 87.2426 63.8101 86.646C64.0381 86.4497 64.3573 86.6067 65.4593 86.748C68.1193 87.0699 68.3777 86.3241 70.9769 86.591C71.4894 86.6437 71.9975 86.7356 72.4969 86.8658C74.4349 87.376 75.5369 86.7402 77.2317 86.6303C78.21 86.5533 79.194 86.6301 80.1501 86.8579C82.4976 87.5319 84.5301 89.0598 85.8729 91.1597C86.0584 91.5064 86.3184 91.8044 86.6329 92.0311C87.4702 92.5784 88.4573 92.8292 89.4449 92.7454C91.0559 92.7094 92.6641 92.5889 94.2633 92.3843C98.3293 91.8741 98.4205 92.7062 106.887 92.4942C106.887 92.4942 109.167 92.926 111.865 93.3891C111.908 93.3981 111.953 93.3948 111.994 93.3796C112.036 93.3644 112.072 93.3378 112.1 93.3028C112.686 92.5649 113.218 91.827 113.689 91.0969C113.733 91.0729 113.768 91.0341 113.788 90.987C114 90.4846 116.744 86.7245 116.66 81.8967C116.607 79.2748 115.779 78.0973 115.14 73.1911C114.578 68.7872 115.019 67.3978 114.692 64.9015C114.175 60.4976 111.47 56.8945 106.066 49.8295C102.433 45.0253 99.9861 41.9088 95.9049 38.5569C94.1797 37.136 84.6417 30.7069 83.9805 30.3065C87.5145 22.6763 90.5393 16.3728 91.0181 15.9724C91.9149 15.4229 107.122 15.6977 117.132 16.0117C117.164 16.0127 117.195 16.0072 117.225 15.9956C117.255 15.9839 117.283 15.9663 117.306 15.9437C117.329 15.9211 117.348 15.894 117.361 15.8639C117.374 15.8338 117.381 15.8013 117.382 15.7683C117.385 15.7347 117.38 15.701 117.369 15.6692C117.358 15.6374 117.341 15.6082 117.319 15.5833C117.297 15.5584 117.271 15.5383 117.241 15.5242C117.212 15.5102 117.179 15.5024 117.147 15.5014C112.929 15.368 91.8617 14.7164 90.7445 15.5485C90.1897 15.941 86.9445 22.7705 83.5549 30.0239C80.9557 28.3126 79.4053 27.4099 78.2349 27.0409C73.4925 25.4709 73.0365 27.3549 66.3561 25.8713C60.8917 24.6624 60.3369 23.218 56.8713 23.5555C53.2005 23.9009 52.7065 25.6593 48.2681 26.2638C44.3085 26.8211 43.9665 25.5259 40.7441 26.2638C40.0373 26.4286 38.9657 26.672 32.2245 31.4526C28.8045 33.8783 26.9045 35.2128 25.5593 36.563C24.5345 37.553 23.6148 38.653 22.8157 39.8443C20.867 42.7691 18.4021 45.2884 15.5501 47.2704C14.2443 48.0773 13.1261 49.1707 12.2745 50.4732C9.84248 54.1156 11.4157 55.1832 8.95328 61.8007C6.56688 68.1749 4.78088 68.0807 3.97528 72.6573C3.7309 74.0326 3.7309 75.4424 3.97528 76.8178C4.49634 80.8852 4.52952 85.0036 4.07408 89.0795C3.88963 90.3165 3.87173 91.574 4.02088 92.8161C4.31728 95.2574 4.93288 96.3564 6.75688 99.5985C15.6869 115.455 14.7521 118.752 24.5257 125.653C27.9305 128.008 28.9641 127.858 33.7369 130.669C39.2013 133.887 39.0037 134.759 42.4465 136.038C44.2097 136.69 46.4289 137.027 50.8825 137.702C53.0184 138.073 55.1772 138.286 57.3425 138.338C58.7547 138.33 60.1599 138.133 61.5225 137.749C64.6842 136.943 67.9525 136.678 71.1973 136.964C71.2368 136.967 71.2763 136.959 71.3127 136.943C71.349 136.927 71.3813 136.902 71.407 136.871C71.4327 136.84 71.4512 136.803 71.4609 136.764C71.4707 136.724 71.4715 136.683 71.4633 136.643C70.8629 134.17 70.2321 131.556 69.6089 128.895ZM69.2897 120.911C69.8977 122.042 69.2213 122.591 69.1149 126.767C68.5525 124.31 67.9977 121.845 67.4657 119.38C68.1801 120.299 68.8565 120.111 69.2897 120.911ZM68.5297 126.477C66.8121 125.252 65.9837 125.331 64.9577 123.996C66.1281 122.175 65.9761 121.484 67.0249 119.718C67.5163 121.979 68.0205 124.232 68.5373 126.477H68.5297ZM68.2561 107.919C68.3853 108.343 68.2561 108.43 68.2561 110.329C68.3387 111.094 68.3387 111.865 68.2561 112.629C68.0205 113.658 67.4961 113.666 67.0705 114.757C66.9108 115.157 66.801 115.576 66.7437 116.005C65.8975 111.981 65.097 107.956 64.3421 103.932C66.6449 106.538 67.9141 106.695 68.2561 107.919ZM63.1793 100.431C60.6713 98.2797 59.1513 99.0647 56.7117 96.9609C57.9198 93.7604 59.3551 90.6565 61.0057 87.6743C61.7581 92.3215 62.7993 98.3032 63.1793 100.399V100.431ZM72.6337 86.3791C71.1944 85.992 69.6919 85.9251 68.2257 86.1828C67.075 86.391 65.8965 86.3724 64.7525 86.1279C64.1749 86.0337 63.8177 85.9709 63.4909 86.2692C62.3281 87.2975 64.4181 90.1942 62.1153 91.3795C61.5833 88.1767 61.0817 85.0053 60.5953 81.8889C65.9153 83.349 71.4253 84.7698 77.0721 86.1357C75.4381 86.2299 74.4121 86.8108 72.6337 86.3477V86.3791ZM71.4633 84.2203C68.3169 82.1322 67.1161 82.25 64.8133 80.2953C66.4397 75.3734 67.7165 74.557 69.8901 69.0227C72.8465 69.9961 74.9897 70.0511 79.9145 73.2539C78.3337 77.3202 78.1665 78.6233 77.4749 79.9735C76.7833 81.3237 76.0385 81.9124 74.7237 85.0289L71.4633 84.2203ZM75.2101 85.1545C76.4489 82.2421 77.2773 81.4728 77.9157 80.209C78.5541 78.9451 78.7897 77.54 80.3401 73.5365C82.1223 74.8217 83.8301 76.2135 85.4549 77.7048C84.4137 80.2718 84.0869 80.8448 83.5625 82.1008C83.036 83.6949 82.3267 85.2182 81.4497 86.6381C79.4585 86.1436 76.1905 85.3586 75.2101 85.1545ZM84.0185 82.2971C84.5505 81.0254 84.7785 80.5858 85.8653 78.0188C87.1493 78.9608 88.5568 79.7088 90.0453 80.2404C93.0853 81.3629 94.6053 81.3315 97.5313 82.5404C96.8853 84.6521 95.6845 85.9316 94.1493 89.4484C91.1093 88.8126 82.9545 86.9914 81.9893 86.7637C82.8312 85.3501 83.5122 83.8408 84.0185 82.2657V82.2971ZM97.9949 82.7367C99.8911 83.6019 101.718 84.6203 103.459 85.7825C102.266 87.6822 102.35 88.6477 101.02 90.8457C98.9119 90.4375 96.7865 90.0084 94.6433 89.5583C96.1025 86.2221 97.3337 84.8248 97.9949 82.7053V82.7367ZM96.1557 91.7014C94.4533 91.7956 94.1645 91.984 91.1625 92.1724C89.0269 92.3137 87.9173 92.298 86.9521 91.615C86.6818 91.4338 86.4597 91.1855 86.3061 90.8928C85.4109 89.5179 84.2392 88.3585 82.8709 87.4938C89.5209 89.0638 97.2577 90.6338 104.037 91.9526C99.1425 91.8113 98.3141 91.5601 96.1557 91.67V91.7014ZM107.913 92.1645C105.815 91.7799 103.687 91.3795 101.544 90.9556C102.806 88.8047 102.745 87.8627 103.885 86.0415C105.207 86.8265 106.583 87.6115 107.913 88.3494V92.1645ZM111.85 92.871L108.414 92.2509V88.6163C109.995 89.4563 111.599 90.2491 113.21 90.9713C112.8 91.5836 112.344 92.2195 111.85 92.8396V92.871ZM40.8961 26.7426C43.9361 26.0361 44.3617 27.3078 48.3745 26.7426C52.9345 26.1303 53.3905 24.3876 56.9549 24.0344C58.0814 23.8892 59.2252 24.0238 60.2913 24.4269L57.4793 30.7069C55.6879 30.5877 53.895 30.9134 52.2505 31.6567C52.2108 31.679 52.1777 31.7118 52.1546 31.7519C52.1315 31.792 52.1194 31.8377 52.1194 31.8844C52.1194 31.931 52.1315 31.9767 52.1546 32.0168C52.1777 32.0569 52.2108 32.0898 52.2505 32.112C53.4567 32.8413 54.7295 33.446 56.0505 33.9175L53.4741 39.6716C53.1777 39.3183 49.9477 39.0907 43.8449 34.9066C41.0808 32.9346 38.0753 31.3507 34.9073 30.1966C39.4825 27.0645 40.3489 26.8682 40.8961 26.7426ZM57.2741 31.2171L56.2709 33.4701C55.1213 33.0614 54.0076 32.5519 52.9421 31.9472C54.3221 31.3988 55.7968 31.1503 57.2741 31.2171ZM48.1541 51.6742C44.5185 49.7938 41.0695 47.5512 37.8561 44.9782C39.0113 41.273 40.6529 38.4548 42.9329 34.8674C44.3052 35.8515 45.7313 36.7531 47.2041 37.5678C49.1471 38.6089 51.1833 39.4528 53.2841 40.0876C53.3069 40.119 53.6945 39.177 48.1009 51.6742H48.1541ZM25.9393 36.9084C27.2769 35.5896 29.1465 34.2629 32.5361 31.853L34.3829 30.5656C35.0593 30.8011 35.7281 31.0601 36.3893 31.3506C34.1093 34.153 33.5545 36.4845 32.8401 38.5176C31.2485 39.4004 29.7508 40.4528 28.3713 41.6576C28.328 41.7056 28.3039 41.7687 28.3039 41.8342C28.3039 41.8998 28.328 41.9629 28.3713 42.0109C28.7073 42.4531 29.1463 42.8002 29.6473 43.0199C30.1483 43.2395 30.6951 43.3245 31.2365 43.2669C31.2758 43.2677 31.3147 43.258 31.3493 43.2388C31.3839 43.2195 31.4131 43.1913 31.4341 43.157C34.3221 37.3794 33.7141 35.3933 36.9061 31.5468C38.852 32.3908 40.7235 33.4073 42.4997 34.5848C40.1437 38.2978 38.4717 41.1866 37.3165 44.9939C37.2997 45.044 37.2988 45.0984 37.3138 45.1492C37.3288 45.2 37.359 45.2445 37.4001 45.2765C40.7423 47.9731 44.3432 50.3089 48.1465 52.2473C48.1736 52.2631 48.2036 52.2728 48.2345 52.2757C48.2655 52.2787 48.2967 52.2749 48.3261 52.2645C48.3556 52.2541 48.3825 52.2374 48.4053 52.2155C48.428 52.1936 48.446 52.167 48.4581 52.1374C48.8077 51.4544 50.5785 47.4274 60.8005 24.5917C62.5931 25.3369 64.4441 25.9225 66.3333 26.3423C73.0745 27.8338 73.5381 25.989 78.1589 27.4962C78.7607 27.7034 79.3431 27.9661 79.8993 28.2812C78.648 29.7442 77.5524 31.3416 76.6313 33.0462C72.8879 31.5517 68.9837 30.529 65.0033 30.0004C64.9603 29.9988 64.9176 30.0071 64.8781 30.0248C64.8387 30.0424 64.8035 30.0689 64.7753 30.1024C63.5096 31.7631 62.8049 33.806 62.7689 35.9193C62.7661 35.9624 62.7745 36.0054 62.7932 36.044C62.8119 36.0827 62.8403 36.1155 62.8753 36.1391C67.5417 39.3968 69.7837 38.4941 74.0321 42.0501C74.0618 42.0768 74.0972 42.0956 74.1355 42.105C74.1738 42.1144 74.2137 42.114 74.2518 42.104C74.2899 42.094 74.3251 42.0745 74.3543 42.0474C74.3836 42.0202 74.406 41.9861 74.4197 41.9481C76.0461 37.8347 74.9897 36.9869 76.9353 33.525C77.8839 31.7313 79.0289 30.0562 80.3477 28.5324C81.1913 29.0191 82.1869 29.6471 83.3877 30.4321C79.9221 37.9053 76.4185 45.6925 75.6965 47.2861C75.6704 47.3476 75.6685 47.4173 75.6912 47.4802C75.7139 47.5432 75.7594 47.5946 75.8181 47.6236C75.8478 47.6393 75.8803 47.6485 75.9137 47.6506C75.947 47.6527 75.9804 47.6477 76.0117 47.6359C76.0431 47.6241 76.0718 47.6058 76.096 47.5821C76.1202 47.5584 76.1394 47.5297 76.1525 47.498C78.4325 42.4112 81.2445 36.2411 83.8057 30.7147C84.7329 31.327 93.7845 37.4029 95.5021 38.7924C95.2589 39.4125 93.9821 42.9136 93.7389 43.5416C93.0198 42.094 91.9584 40.8573 90.6533 39.9463C89.3081 39.0436 88.2213 38.9415 82.9089 36.5002C82.8522 36.4725 82.7874 36.4684 82.7279 36.4889C82.6684 36.5094 82.6189 36.5528 82.5897 36.6101C81.2528 39.1866 80.392 41.9977 80.0513 44.8997C80.0433 44.9457 80.0485 44.9932 80.066 45.0364C80.0835 45.0795 80.1127 45.1166 80.1501 45.143C84.2997 48.1731 86.4733 47.498 90.9649 50.5909C90.2049 51.9961 88.6849 54.7985 87.6893 56.502C84.8697 55.2067 81.9513 53.7545 79.2001 52.2394C73.6901 49.2093 72.4665 50.3711 68.6817 47.2233C66.2562 45.2054 63.602 43.4999 60.7777 42.1443C60.7312 42.1216 60.6789 42.1147 60.6284 42.1245C60.5779 42.1344 60.5317 42.1606 60.4965 42.1993C57.4706 45.3251 55.2363 49.1723 53.9909 53.4012C53.9756 53.4484 53.9747 53.4993 53.9883 53.547C54.0019 53.5947 54.0293 53.637 54.0669 53.6681C58.1633 57.2242 60.5801 56.0231 64.9045 59.5478C64.933 59.5697 64.9655 59.5853 65.0001 59.5937C65.0347 59.602 65.0706 59.6029 65.1056 59.5963C65.1405 59.5896 65.1738 59.5756 65.2033 59.5551C65.2327 59.5346 65.2578 59.5081 65.2769 59.4771C68.0509 54.6729 67.3213 53.1108 70.5513 49.1544C72.6337 50.3476 73.4013 50.167 76.3653 51.4152C74.8453 55.8426 73.3253 56.6747 71.8813 61.3611C71.8651 61.4101 71.8645 61.4632 71.8795 61.5126C71.8945 61.562 71.9245 61.6052 71.9649 61.6359C72.7249 62.2717 73.5609 62.884 74.3969 63.4492C78.5313 66.393 79.0937 65.1684 83.1825 67.8374C83.2166 67.8601 83.2556 67.8737 83.2961 67.8769C83.3365 67.8801 83.3771 67.8727 83.4141 67.8556C83.4511 67.8384 83.4834 67.8119 83.508 67.7786C83.5326 67.7453 83.5487 67.7061 83.5549 67.6647C83.8809 65.7794 84.4059 63.9368 85.1205 62.1697C86.3061 59.2024 87.1877 58.5587 89.6805 54.092C92.7205 48.597 92.6749 48.2202 94.0277 44.3188C94.0352 44.2852 94.0352 44.2503 94.0277 44.2167C94.5825 42.6467 95.1829 40.9825 95.9125 39.1142C99.8037 42.3484 102.198 45.3942 105.732 50.1042C111.052 57.1692 113.75 60.6782 114.297 64.925C114.434 66.2282 114.477 67.5402 114.426 68.85C112.482 68.1205 110.609 67.2032 108.832 66.1104C107.174 65.0457 105.367 64.2513 103.474 63.7554C100.397 62.9054 97.4737 61.5454 94.8181 59.7283C94.7726 59.688 94.7146 59.6658 94.6547 59.6658C94.5947 59.6658 94.5368 59.688 94.4913 59.7283C91.8471 62.8004 89.7847 66.3579 88.4113 70.2159C88.3925 70.2651 88.3897 70.3194 88.4034 70.3704C88.4171 70.4214 88.4466 70.4664 88.4873 70.4985C89.0767 71.0188 89.728 71.4593 90.4253 71.8095C92.2949 72.6808 93.0245 72.1549 95.0461 73.615C96.5109 74.6677 98.1957 75.3481 99.9633 75.601C100.01 75.6101 100.058 75.6044 100.101 75.5848C100.145 75.5652 100.181 75.5326 100.206 75.4911C101.218 73.925 101.902 72.1575 102.213 70.3023C102.266 70.0354 102.312 69.792 102.372 69.5173C102.893 67.6946 103.957 66.0878 105.412 64.925C108.217 66.0476 109.57 67.6019 114.35 69.376C114.47 72.4202 114.898 75.4432 115.627 78.3956C115.941 79.5147 116.119 80.6695 116.159 81.8339C116.12 84.9292 115.174 87.9397 113.446 90.4689C105.914 87.0149 102.585 84.3381 99.4237 82.7759C97.6019 81.8515 95.6775 81.1608 93.6933 80.7192C88.5177 79.4318 86.7773 78.1994 84.3149 76.0092C82.5215 74.349 80.5505 72.9057 78.4401 71.7074C72.5045 68.3084 71.8737 69.9647 63.9013 65.7885C63.8742 65.7667 63.8432 65.7507 63.8101 65.7414C58.6725 63.0489 58.2089 61.7222 53.1701 59.6341C48.1313 57.546 47.2345 58.2525 42.5985 56.1095C38.2741 54.0763 37.1493 52.6005 32.9541 50.065C31.1377 48.9738 30.6361 48.7776 30.2409 48.495C30.2035 48.485 30.1643 48.485 30.1269 48.495C26.8348 46.7684 23.3886 45.375 19.8365 44.3345C23.0741 40.9119 23.2337 39.5774 25.9393 36.9084ZM32.5665 39.2634C32.1485 40.3702 31.6317 41.5791 31.0465 42.8116C30.6477 42.8325 30.2493 42.7632 29.8792 42.6086C29.509 42.4541 29.176 42.2179 28.9033 41.9167C30.0453 40.9165 31.2712 40.0233 32.5665 39.2477V39.2634ZM76.3501 33.5329C74.5109 36.9241 75.4989 37.5835 74.0701 41.4771C69.8977 38.133 67.7089 38.8944 63.2477 35.8329C63.3105 33.9276 63.9452 32.0896 65.0641 30.5734C68.9258 31.089 72.7144 32.0772 76.3501 33.5172V33.5329ZM93.4653 44.2403C92.8448 46.2758 92.0697 48.2575 91.1473 50.167C86.6481 47.0663 84.5733 47.7571 80.5073 44.8526C80.8451 42.1468 81.6427 39.5239 82.8633 37.1046C87.6741 39.3026 89.1181 39.6245 90.3417 40.4095C91.6964 41.3676 92.7755 42.6856 93.4653 44.2246V44.2403ZM87.3853 56.9808C86.3035 58.5534 85.3816 60.237 84.6341 62.0048C83.9572 63.6898 83.4479 65.4415 83.1141 67.2329C80.2793 65.4588 78.9265 65.4431 77.1785 64.5796C75.4855 63.668 73.8798 62.5929 72.3829 61.369C73.7661 56.9023 75.2861 56.0153 76.7985 51.635C78.5085 52.3964 81.1457 54.0999 87.3701 56.9651L87.3853 56.9808ZM70.0649 48.9189C66.9033 52.8439 67.5493 54.4139 64.9425 58.9904C60.5725 55.5286 58.4597 56.8003 54.4697 53.4091C55.6854 49.3829 57.8142 45.7147 60.6789 42.7095C62.7433 43.7159 64.7191 44.9057 66.5841 46.2656C68.4081 47.6079 68.7121 48.0946 70.0649 48.9189ZM104.918 64.7445C103.462 65.9554 102.4 67.5997 101.878 69.4545C101.521 70.946 101.415 72.5945 99.8721 75.0908C98.822 74.9125 97.7997 74.5904 96.8321 74.1331C94.9245 73.2146 94.9625 72.4689 92.2265 71.8801C91.6749 71.7799 91.1384 71.6057 90.6305 71.362C90.0139 71.0606 89.4347 70.6838 88.9053 70.2395C90.2311 66.5822 92.1852 63.2022 94.6737 60.2621C99.3401 63.4178 102.98 64.0772 104.918 64.7445ZM63.4225 66.1104C61.5073 69.2504 59.3565 72.932 57.7377 76.2369C54.3571 74.1346 50.8284 72.2978 47.1813 70.7419C48.6141 66.9692 50.3504 63.3271 52.3721 59.8539C57.9277 62.0912 58.1025 63.3158 63.4225 66.1339V66.1104ZM45.4789 57.8051C43.7309 63.4963 41.9145 65.6551 40.3109 68.5203C36.3665 66.0083 34.7325 66.1653 30.8413 63.5748C32.2929 58.8648 33.7597 58.0798 34.9149 55.0576C35.2437 54.2142 35.498 53.342 35.6749 52.4514C37.77 54.0575 40.0217 55.4335 42.3933 56.5569C43.3974 57.0346 44.4277 57.4514 45.4789 57.8051ZM29.7317 48.8482C28.4749 51.0049 27.3774 53.2564 26.4485 55.5835C25.6579 57.1861 24.6325 58.653 23.4085 59.9324C22.3019 60.0849 21.1765 59.9877 20.1098 59.6475C19.0431 59.3073 18.0605 58.7323 17.2297 57.9621C19.4413 53.1893 19.5097 51.9568 20.2697 50.9834C21.1969 49.7902 22.3065 49.5704 24.7689 46.5717C26.4637 47.2468 28.1205 48.0083 29.7317 48.8482ZM12.7229 50.7401C14.7141 47.7885 16.0745 48.1025 19.4337 44.727C21.0753 45.198 22.6941 45.7475 24.2901 46.3755C21.8961 49.2486 20.9081 49.3428 19.8897 50.6694C19.0157 51.792 19.1297 52.7732 16.7129 57.915C16.6914 57.9644 16.685 58.0194 16.6945 58.0727C16.704 58.126 16.7289 58.175 16.7661 58.2133C17.6699 59.0926 18.755 59.7486 19.9398 60.1321C21.1245 60.5155 22.3781 60.6163 23.6061 60.427C23.658 60.4198 23.7062 60.3949 23.7429 60.3563C25.0086 59.0212 26.065 57.4903 26.8741 55.819C27.7989 53.4899 28.8966 51.2381 30.1573 49.0837C31.9065 49.9971 33.6017 51.0168 35.2341 52.1374C34.3145 57.1143 32.0649 57.8051 30.3245 63.6062C30.3074 63.6591 30.3079 63.7163 30.3258 63.7689C30.3436 63.8215 30.3779 63.8664 30.4233 63.8967C34.4589 66.6442 36.0777 66.4244 40.0677 68.9599C39.0208 70.8559 38.1163 72.8321 37.3621 74.871C34.8273 73.9919 32.3626 72.9105 29.9901 71.6368C25.7645 69.3603 25.5289 68.4418 21.7669 66.7462C18.6509 65.3332 17.6401 65.4039 13.9465 63.6062C12.4949 62.8997 11.0661 62.1147 9.69808 61.2512C11.8489 55.1989 10.4505 54.147 12.7229 50.7401ZM37.1949 75.3498C36.835 76.4195 36.5455 77.5132 36.3285 78.6233C35.7781 81.3968 34.701 84.0302 33.1593 86.3712C32.0769 86.5819 30.9605 86.5063 29.9141 86.1514C27.9837 85.4842 27.4517 84.1497 22.4585 80.2482C23.9101 75.8522 25.2173 74.9887 26.8513 70.3651C30.1004 72.4351 33.5716 74.1079 37.1949 75.3498ZM20.7333 66.8483C18.8333 70.2552 18.3165 71.8958 15.7097 77.54C13.7447 77.615 11.8165 76.9761 10.2605 75.7345C10.0879 71.5518 11.2611 67.4279 13.5969 64.0066C17.2069 65.7728 18.0809 65.7414 20.7333 66.8483ZM4.50728 72.7279C5.26728 68.1985 7.09888 68.3633 9.52328 61.7379C10.6937 62.4523 11.9097 63.1274 13.1485 63.7475C10.7571 67.2826 9.56772 71.5367 9.76648 75.8444C9.76894 75.8804 9.77826 75.9156 9.79391 75.9479C9.80955 75.9803 9.83123 76.0091 9.85768 76.0328C11.5624 77.4302 13.7038 78.1339 15.8769 78.011C15.9217 78.0107 15.9655 77.9973 16.0032 77.9723C16.0409 77.9473 16.0709 77.9117 16.0897 77.8697C18.8789 71.8409 19.1981 70.5849 21.1969 67.0131C23.0462 67.8165 24.8006 68.8358 26.4257 70.0511C24.7841 74.7611 23.4389 75.5461 21.9341 80.2561C21.8049 80.6486 22.2457 80.4288 26.7221 84.5265C27.5722 85.4553 28.6102 86.179 29.7621 86.646C30.9266 87.028 32.1655 87.1009 33.3645 86.8579C33.4282 86.8411 33.4846 86.8024 33.5241 86.748C35.1263 84.3291 36.2451 81.6043 36.8149 78.7332C37.7345 74.3215 39.5357 70.6555 42.0741 66.5421C43.0119 65.0925 43.8257 63.5611 44.5061 61.9656C45.0641 60.6574 45.5513 59.3182 45.9653 57.9542C47.8501 58.5273 49.2333 58.6921 51.9161 59.7126C49.8485 63.2564 48.0813 66.978 46.6341 70.8361C46.6113 70.8986 46.6128 70.9679 46.6383 71.0293C46.6638 71.0908 46.7113 71.1397 46.7709 71.1658C50.5548 72.7583 54.2116 74.656 57.7073 76.8413C58.2241 77.1632 57.8821 76.1505 63.8709 66.3694C65.6672 67.3221 67.5262 68.1432 69.4341 68.8265C67.3441 74.1409 65.9913 75.1614 64.3041 80.2639C64.2893 80.3124 64.2886 80.3642 64.3021 80.4131C64.3156 80.4619 64.3427 80.5056 64.3801 80.5387C66.4397 82.3442 67.6557 82.5247 69.8369 83.7729C66.6297 82.946 63.4807 82.1087 60.3901 81.2609C60.3501 81.2493 60.3079 81.2486 60.2676 81.2586C60.2272 81.2687 60.19 81.2893 60.1596 81.3184C60.1291 81.3475 60.1063 81.3842 60.0935 81.425C60.0806 81.4657 60.0781 81.5092 60.0861 81.5513C60.2989 83.0036 60.5269 84.4715 60.7549 85.9552C53.1549 83.4589 52.3949 79.424 44.9697 77.3202C44.9268 77.3078 44.8814 77.3078 44.8385 77.3203C44.7956 77.3328 44.7569 77.3572 44.7265 77.3908C43.8349 78.3717 43.2062 79.5757 42.9025 80.8841C42.4769 82.5326 41.7245 83.2391 40.6681 85.6883C40.105 86.9961 39.6351 88.3447 39.2621 89.7232C39.1253 90.2491 39.9461 89.8252 44.7645 92.7925C46.2762 93.7447 47.8421 94.6019 49.4537 95.3595C49.4867 95.3767 49.5231 95.3857 49.5601 95.3857C49.597 95.3857 49.6335 95.3767 49.6665 95.3595C49.9249 95.2417 49.7653 94.7707 50.6241 92.9574C51.2176 91.7536 51.9639 90.6369 52.8433 89.6368C54.1073 88.0162 55.0382 86.1465 55.5793 84.1418C57.2298 85.1579 58.9931 85.9644 60.8309 86.5439C60.8309 86.6538 60.8309 86.7559 60.8841 86.8658C59.0602 90.0863 57.4871 93.4514 56.1797 96.9295C56.1612 96.9781 56.1579 97.0314 56.1702 97.082C56.1824 97.1327 56.2097 97.1781 56.2481 97.2121C59.0145 99.7005 60.7017 98.6172 63.3313 101.247C63.767 103.602 64.2154 105.957 64.6765 108.312C55.4349 103.924 53.7097 104.897 49.0129 101.498C44.8557 98.4916 42.3173 98.4916 37.3317 95.7363C34.5345 94.1484 31.6166 92.7989 28.6069 91.7014C24.9993 90.3747 21.5656 88.5895 18.3849 86.3869C14.1666 83.8072 9.59942 81.8917 4.83408 80.7035C4.65928 76.1427 4.01328 75.6089 4.50728 72.7279ZM55.1385 83.8435C53.4589 89.8645 50.9205 89.6054 49.4005 94.7786C45.2433 92.7925 43.9513 91.356 39.7865 89.6447C40.3823 87.4488 41.2428 85.339 42.3477 83.3647C42.8035 82.638 43.1494 81.8439 43.3737 81.0097C43.6408 79.8407 44.1898 78.7605 44.9697 77.8697C50.0769 79.3533 52.0453 81.8261 55.1385 83.8435ZM63.7341 108.43C62.7282 110.029 61.8585 111.715 61.1349 113.469C59.7365 116.868 59.8277 118.25 58.9005 120.786C57.4917 119.368 55.7933 118.295 53.9301 117.646C52.1061 117.142 50.3753 116.33 48.8077 115.244C50.6773 111.005 50.5785 109.246 52.4633 104.081C54.8041 105.101 57.7681 105.667 63.7341 108.43ZM46.5277 100.501C44.3237 104.834 44.1793 106.648 41.9677 111.868C37.5065 110.172 36.6477 108.728 31.3809 106.24C32.5471 102.53 34.0272 98.9341 35.8041 95.4929C37.4868 96.4747 39.2282 97.3452 41.0177 98.0991C42.9061 98.7668 44.7472 99.5695 46.5277 100.501ZM29.4429 92.5413C28.4306 94.1213 27.5289 95.774 26.7449 97.4868C25.2249 100.815 25.2249 102.008 24.2065 104.473C20.7665 103.144 17.5601 101.243 14.7141 98.8449C15.5231 94.7668 16.7537 90.7902 18.3849 86.9835C20.2637 88.2776 22.2324 89.4268 24.2749 90.4218C25.953 91.2391 27.679 91.947 29.4429 92.5413ZM12.7989 84.0162C12.3961 84.5693 12.0207 85.1431 11.6741 85.7354C11.172 85.0011 10.9061 84.1223 10.9141 83.2234C11.5601 83.4746 12.1833 83.7415 12.7989 84.0162ZM4.52248 92.7533C4.13488 89.5112 5.10768 88.53 4.87208 81.2373C6.75831 81.7259 8.61578 82.3261 10.4353 83.035C10.3812 84.1832 10.7262 85.3135 11.4081 86.2221C9.62968 89.4798 9.88808 91.2382 7.36488 95.5793C7.3442 95.6363 7.34365 95.6991 7.36332 95.7565C7.38299 95.8139 7.42162 95.8623 7.47243 95.8933C7.52324 95.9242 7.58297 95.9356 7.64114 95.9256C7.6993 95.9155 7.75218 95.8846 7.79048 95.8383C10.7773 90.6338 10.0705 88.5378 13.2701 84.2282C14.8803 84.9675 16.4484 85.8009 17.9669 86.7245C16.2755 90.6282 15.0013 94.7108 14.1669 98.8998C14.1591 98.9456 14.1627 98.9926 14.1773 99.0365C14.192 99.0805 14.2171 99.1199 14.2505 99.151C17.1591 101.625 20.4435 103.585 23.9709 104.952C23.1342 106.785 22.1289 108.53 20.9689 110.165C16.8818 109.112 13.0848 107.1 9.87288 104.285C5.92848 96.8039 4.91008 96.011 4.52248 92.7533ZM20.7333 110.612C20.2773 111.397 19.8593 112.182 19.4565 112.928C18.6785 112.069 18.2091 110.961 18.1265 109.788C18.9777 110.102 19.8517 110.384 20.7333 110.612ZM10.5417 105.462C12.6915 107.19 15.0756 108.581 17.6173 109.592C17.6631 111.026 18.2334 112.389 19.2133 113.407C18.4533 114.898 17.7769 116.437 17.1689 117.999C15.1397 115.275 14.3189 112.629 10.5417 105.462ZM24.8069 125.229C22.0952 123.323 19.646 121.047 17.5261 118.462C18.2829 116.492 19.1534 114.57 20.1329 112.708C22.4129 108.375 23.8873 107.629 25.6201 101.922C26.0401 100.48 26.566 99.0736 27.1933 97.7145C27.9772 95.9819 28.8867 94.3129 29.9141 92.7219C31.6773 93.4127 33.8585 94.4567 35.3861 95.2574C33.5671 98.7935 32.0564 102.49 30.8717 106.302C30.8527 106.362 30.8554 106.427 30.8792 106.484C30.9029 106.542 30.9462 106.589 31.0009 106.616C36.4501 109.191 37.3241 110.683 42.0513 112.433C42.1109 112.454 42.1761 112.452 42.2338 112.425C42.2916 112.399 42.3377 112.352 42.3629 112.292C44.6429 106.891 44.7037 105.172 46.9229 100.752C48.9065 101.899 49.4309 102.668 51.9693 103.892C51.3066 105.727 50.7333 107.595 50.2517 109.489C48.8457 114.859 47.9261 115.22 48.3593 115.526C50.0106 116.705 51.8463 117.581 53.7857 118.117C55.636 118.765 57.3199 119.839 58.7105 121.257C57.5933 124.067 56.7725 124.726 55.4501 126.705C53.6624 125.486 51.7874 124.41 49.8413 123.486C45.8437 121.578 44.1793 121.626 40.4857 119.671C39.3153 119.051 39.0265 118.823 38.9657 118.792C35.6332 116.501 32.1431 114.465 28.5233 112.7C28.4771 112.679 28.4258 112.672 28.3758 112.68C28.3258 112.688 28.2793 112.712 28.2421 112.747C26.7873 114.236 25.6236 116.001 24.8145 117.944C24.7919 118.01 24.7919 118.082 24.8145 118.148C25.6734 120.233 26.9395 122.113 28.5335 123.671C30.1275 125.228 32.0153 126.429 34.0789 127.199C33.7225 128.019 33.4451 128.874 33.2505 129.75C29.0021 127.372 28.0521 127.544 24.8069 125.229ZM55.2069 127.168C54.0373 129.029 53.0302 130.994 52.1973 133.039C47.6373 130.316 46.3377 131.595 41.7169 129.523C42.5377 126.96 43.6392 124.503 45.0001 122.199C48.6016 123.352 52.0275 125.025 55.1765 127.168H55.2069ZM38.5477 119.176C37.0277 123.258 35.3937 124.459 34.2765 126.775C32.2888 126.041 30.4674 124.895 28.924 123.407C27.3805 121.919 26.1476 120.122 25.3009 118.124C26.0552 116.335 27.1247 114.706 28.4549 113.32C31.6471 114.9 34.7412 116.682 37.7193 118.658C38.0005 118.815 38.2741 118.996 38.5477 119.176ZM50.7077 137.161C46.4821 136.517 44.3541 136.179 42.6213 135.551C39.2241 134.295 39.3913 133.369 33.6913 130.056C33.8944 129.057 34.216 128.086 34.6489 127.168C35.8041 124.679 37.3925 123.698 38.9809 119.451C40.7321 120.508 42.5899 121.363 44.5213 122.002C43.1292 124.378 42.0071 126.912 41.1773 129.554C41.1566 129.614 41.1584 129.679 41.1824 129.737C41.2063 129.795 41.2506 129.842 41.3065 129.868C46.1781 132.113 47.3865 130.7 52.0073 133.479C51.531 134.683 51.1105 135.91 50.7457 137.161H50.7077ZM63.9469 136.705C59.6529 137.388 59.7669 138.519 51.2093 137.239C52.0336 134.386 53.1709 131.639 54.5989 129.052C56.6509 125.37 57.5553 125.229 58.9233 121.987C60.2913 118.745 60.0253 117.387 61.5529 113.674C62.275 111.921 63.1448 110.237 64.1521 108.642L64.7601 108.932C65.4187 112.292 66.1129 115.654 66.8425 119.019C66.1617 120.141 65.5962 121.333 65.1553 122.575C64.5473 123.839 64.2433 123.91 64.3953 124.145C64.9835 124.953 65.771 125.582 66.6753 125.967C67.3809 126.309 68.0464 126.733 68.6589 127.23C69.1681 129.413 69.6773 131.595 70.1789 133.77C67.0705 132.725 66.2269 131.854 61.9025 129.915C61.8584 129.896 61.81 129.89 61.7628 129.899C61.7157 129.907 61.6719 129.929 61.6365 129.962C60.8864 130.658 60.3101 131.53 59.9569 132.506C59.9359 132.561 59.9343 132.621 59.9524 132.677C59.9705 132.733 60.007 132.781 60.0557 132.812C60.8562 133.314 61.8017 133.51 62.7278 133.367C63.6539 133.223 64.5021 132.749 65.1249 132.027C66.7769 132.984 68.5154 133.773 70.3157 134.382L70.8173 136.407C68.5361 136.246 66.2447 136.346 63.9849 136.705H63.9469ZM64.7069 131.815C64.1786 132.38 63.4865 132.753 62.7351 132.876C61.9837 132.999 61.2139 132.866 60.5421 132.498C60.8519 131.731 61.3156 131.041 61.9025 130.473C63.0805 130.983 64.0381 131.469 64.7449 131.815H64.7069Z" fill="black"/>
<path d="M97.022 54.2883C98.772 55.573 100.716 56.5491 102.775 57.1771C102.822 57.1912 102.871 57.191 102.918 57.1766C102.964 57.1622 103.006 57.1342 103.037 57.096C103.068 57.0578 103.088 57.011 103.094 56.9613C103.101 56.9116 103.093 56.8611 103.072 56.816C101.803 54.2085 100.064 51.8746 97.9492 49.9394C97.9183 49.9113 97.8811 49.8915 97.841 49.8817C97.801 49.8719 97.7592 49.8725 97.7194 49.8833C97.6796 49.8942 97.643 49.915 97.6128 49.944C97.5826 49.9729 97.5598 50.0091 97.5464 50.0493C97.1284 51.348 96.9154 52.7077 96.9156 54.0763C96.9149 54.118 96.9242 54.1592 96.9428 54.1962C96.9614 54.2332 96.9886 54.2648 97.022 54.2883ZM97.9036 50.6145C99.6979 52.3115 101.201 54.3101 102.35 56.5255C100.591 55.9282 98.9271 55.0687 97.4096 53.9743C97.4247 52.8363 97.5909 51.7058 97.9036 50.6145Z" fill="black"/>
<path d="M108.764 81.151C108.797 81.1618 108.831 81.1657 108.866 81.1625C108.9 81.1592 108.934 81.1489 108.964 81.132C108.995 81.1152 109.022 81.0922 109.043 81.0645C109.065 81.0367 109.081 81.0047 109.091 80.9704C109.686 78.4345 109.537 75.7733 108.665 73.3245C108.646 73.2789 108.615 73.24 108.575 73.2126C108.536 73.1853 108.489 73.1707 108.441 73.1707C108.393 73.1707 108.346 73.1853 108.306 73.2126C108.266 73.24 108.235 73.2789 108.217 73.3245C107.288 75.1204 106.468 76.974 105.762 78.8745C105.746 78.9197 105.742 78.9686 105.752 79.0157C105.761 79.0629 105.783 79.1064 105.815 79.1414C106.633 80.0398 107.643 80.7281 108.764 81.151ZM108.384 74.086C109.029 76.1918 109.129 78.4356 108.673 80.5936C107.776 80.2077 106.965 79.639 106.286 78.9216C106.9 77.2612 107.6 75.6365 108.384 74.0546V74.086Z" fill="black"/>
<path d="M70.1939 87.9334C69.4339 88.0276 69.2287 88.7184 68.8107 88.7184C68.2103 88.6792 67.9063 87.6194 67.1311 87.7293C66.7207 87.7921 66.3711 88.1532 66.1355 88.8126C65.7555 90.0215 66.7131 91.4581 67.4199 91.411C67.6166 91.3871 67.7979 91.2893 67.9291 91.1362C68.1267 90.9321 68.1571 90.9714 68.3015 91.1362C68.4135 91.3354 68.5761 91.4992 68.7716 91.6098C68.9672 91.7205 69.1883 91.7739 69.4111 91.7642C70.2775 91.7642 71.3263 91.0342 71.3719 90.1942C71.3801 90.0334 71.3541 89.8726 71.2959 89.7232C71.2959 89.6133 71.2503 89.5741 71.2959 89.5113C71.3795 89.2758 71.8279 89.2993 71.8735 88.899C71.875 88.7998 71.8546 88.7015 71.8138 88.6117C71.7729 88.522 71.7128 88.443 71.6379 88.3809C71.4407 88.2064 71.2104 88.0765 70.9617 87.9994C70.7131 87.9224 70.4515 87.8999 70.1939 87.9334ZM70.8095 89.3778C70.7454 89.555 70.7454 89.7501 70.8095 89.9273C70.8467 90.0165 70.8649 90.1128 70.8627 90.2099C70.7327 90.5937 70.4637 90.9105 70.1121 91.0935C69.7606 91.2765 69.354 91.3115 68.9779 91.1912C68.6435 90.9949 68.6055 90.4847 68.0963 90.4847C67.5871 90.4847 67.5187 90.8929 67.3819 90.9007C67.0931 90.9478 66.3027 89.8802 66.6219 88.9618C66.7815 88.53 67.0019 88.271 67.2147 88.2396C67.6555 88.1846 67.9747 89.1894 68.8335 89.2287C69.5935 89.2287 69.5935 88.5222 70.2699 88.4437C70.4686 88.4233 70.6692 88.4502 70.8563 88.5223C71.0434 88.5944 71.212 88.7098 71.3491 88.8597C71.0907 88.9932 70.8931 89.0795 70.7943 89.3778H70.8095Z" fill="black"/>
<path d="M67.5188 96.1444C67.1442 96.2443 66.7945 96.4254 66.4931 96.6758C66.1917 96.9263 65.9454 97.2402 65.7708 97.5967C65.6445 98.0207 65.5629 98.4576 65.5276 98.8998C65.4611 99.2993 65.423 99.7034 65.4136 100.109C65.5504 101.506 67.306 102.315 67.8456 102.526C68.2576 102.72 68.7009 102.832 69.1528 102.856C69.4857 102.858 69.8122 102.762 70.0946 102.58C70.3771 102.398 70.6039 102.137 70.7488 101.828C70.9312 101.404 70.7488 101.239 70.8704 100.847C70.9104 100.697 70.9924 100.563 71.106 100.462C71.3431 100.175 71.502 99.8285 71.5661 99.4573C71.6302 99.0861 71.5973 98.704 71.4708 98.3503C71.3855 97.9166 71.2091 97.5075 70.954 97.1519C70.6989 96.7963 70.3713 96.503 69.9943 96.2926C69.6173 96.0822 69.2002 95.9599 68.7725 95.9343C68.3447 95.9087 67.9167 95.9804 67.5188 96.1444ZM70.992 99.724C70.8324 100.171 70.5664 100.109 70.3916 100.705C70.2624 101.161 70.3916 101.373 70.2928 101.624C70.1778 101.88 69.9785 102.086 69.7304 102.205C69.4517 102.302 69.1563 102.339 68.8631 102.312C68.57 102.285 68.2855 102.195 68.028 102.048C67.0628 101.655 65.9912 100.933 65.9076 100.085C65.9208 99.7143 65.9563 99.3446 66.014 98.9783C66.0589 98.5818 66.1275 98.1886 66.2192 97.8008C66.3708 97.5106 66.5797 97.2566 66.8323 97.0551C67.085 96.8536 67.3758 96.7092 67.686 96.6311C68.0181 96.4966 68.3749 96.4394 68.7309 96.4636C69.0868 96.4879 69.4333 96.5929 69.7454 96.7714C70.0575 96.9498 70.3277 97.1972 70.5366 97.4959C70.7455 97.7947 70.888 98.1373 70.954 98.4994C71.0859 98.9025 71.0991 99.3368 70.992 99.7476V99.724Z" fill="black"/>
<path d="M75.1341 109.419C74.9193 109.275 74.7365 109.086 74.5976 108.864C74.4587 108.642 74.367 108.393 74.3285 108.131C74.2753 107.896 74.2145 107.621 73.9409 107.558C73.4393 107.456 73.4089 108.233 72.3677 108.854C72.2065 108.932 72.0735 109.061 71.9877 109.223C71.5773 110.008 72.2233 111.334 72.8617 111.342C73.2645 111.342 73.2721 110.965 73.6217 110.871C73.9713 110.777 74.0853 111.036 74.5413 110.95C74.9973 110.863 75.5217 110.463 75.5369 110.008C75.5279 109.881 75.4857 109.759 75.4147 109.655C75.3437 109.552 75.2467 109.47 75.1341 109.419ZM74.4273 110.447C74.3145 110.467 74.1986 110.453 74.0929 110.408C73.8903 110.341 73.6723 110.341 73.4697 110.408C73.2244 110.487 73.0108 110.647 72.8617 110.863C72.6413 110.863 72.1853 109.96 72.4209 109.497C72.4209 109.427 72.4893 109.403 72.6109 109.332C73.0893 109.039 73.5034 108.646 73.8269 108.179C73.8884 108.579 74.0365 108.96 74.2601 109.293C74.5945 109.764 75.0201 109.921 75.0201 110.023C75.0201 110.125 74.7541 110.392 74.4273 110.447Z" fill="black"/>
<path d="M111.332 97.9107C110.847 97.9034 110.378 98.088 110.021 98.4266C109.663 98.7652 109.445 99.2322 109.41 99.7319C109.483 100.207 109.731 100.634 110.101 100.925C110.404 101.318 110.843 101.574 111.325 101.639C111.612 101.593 111.886 101.483 112.129 101.318C112.372 101.152 112.577 100.935 112.731 100.681C112.885 100.426 112.985 100.14 113.023 99.8424C113.061 99.5446 113.036 99.2419 112.951 98.9548C112.802 98.6428 112.571 98.3798 112.285 98.1955C111.999 98.0111 111.67 97.9125 111.332 97.9107ZM111.332 101.129C110.982 101.051 110.67 100.848 110.451 100.556C110.179 100.346 109.987 100.043 109.911 99.7005C109.954 99.3426 110.124 99.0139 110.388 98.7776C110.652 98.5414 110.991 98.4143 111.34 98.421C111.582 98.4212 111.819 98.4912 112.024 98.6229C112.23 98.7547 112.395 98.943 112.503 99.1667C112.559 99.3758 112.573 99.5946 112.543 99.8094C112.513 100.024 112.441 100.23 112.33 100.415C112.22 100.599 112.073 100.758 111.9 100.881C111.727 101.004 111.531 101.088 111.325 101.129H111.332Z" fill="black"/>
<path d="M120.293 77.9953C121.661 77.0454 121.562 74.9103 120.498 74.455C120.12 74.3512 119.719 74.387 119.364 74.5561C119.008 74.7252 118.722 75.017 118.552 75.3813C117.83 76.7001 118.834 79.0236 120.293 77.9953ZM118.986 75.6403C119.229 75.1928 119.837 74.7376 120.3 74.9338C120.962 75.2164 121.06 76.8335 120.019 77.5792C119.866 77.7035 119.673 77.7625 119.48 77.7441C118.993 77.6185 118.545 76.441 118.986 75.6325V75.6403Z" fill="black"/>
<path d="M57.0307 142.24C56.8546 142.286 56.6896 142.369 56.5458 142.484C56.4021 142.599 56.2826 142.743 56.1947 142.907C55.9207 143.307 55.5812 143.655 55.1915 143.935C54.7127 144.289 54.4315 144.359 54.3555 144.72C54.3512 144.845 54.3726 144.969 54.4185 145.084C54.4644 145.199 54.5336 145.302 54.6215 145.388C54.8497 145.631 55.1223 145.826 55.4235 145.961C55.7248 146.096 56.0489 146.168 56.3771 146.173C57.7071 146.173 59.2271 144.681 58.8623 143.425C58.7322 143.042 58.4802 142.717 58.1474 142.501C57.8146 142.286 57.4209 142.194 57.0307 142.24ZM56.3999 145.67C55.5107 145.67 54.8267 145.011 54.8799 144.791C55.554 144.39 56.1454 143.857 56.6203 143.221C56.8407 142.923 56.9395 142.789 57.1523 142.75C57.4237 142.733 57.6932 142.807 57.9214 142.959C58.1497 143.112 58.3249 143.335 58.4215 143.598C58.6419 144.461 57.4259 145.67 56.3999 145.67Z" fill="black"/>
<path d="M64.0379 139.563C63.1715 139.21 62.3963 140.277 62.3887 140.293C62.2237 140.477 62.1038 140.699 62.039 140.941C61.9742 141.183 61.9664 141.437 62.0163 141.682C62.0996 141.955 62.2642 142.194 62.4867 142.365C62.7091 142.535 62.9781 142.629 63.2551 142.632C63.6169 142.611 63.9618 142.467 64.2366 142.223C64.5113 141.979 64.7006 141.648 64.7751 141.282C64.8605 140.952 64.8339 140.601 64.6998 140.288C64.5657 139.976 64.3322 139.72 64.0379 139.563ZM64.2583 141.172C64.2141 141.442 64.0763 141.685 63.8706 141.857C63.6649 142.029 63.4055 142.118 63.1411 142.106C62.993 142.081 62.8545 142.014 62.7406 141.913C62.6266 141.812 62.5418 141.681 62.4951 141.533C62.4688 141.366 62.4812 141.195 62.5314 141.034C62.5816 140.873 62.6682 140.727 62.7839 140.607C62.7839 140.607 63.2399 140.01 63.6807 140.01C64.1215 140.01 64.3571 140.693 64.2583 141.172Z" fill="black"/>
<path d="M148.474 149.014C138.693 149.093 123.865 149.305 123.113 149.014C122.679 148.7 118.636 143.197 113.993 136.737L117.397 132.725C119.262 130.573 120.8 128.141 121.957 125.511C123.09 122.874 122.854 122.309 124.351 119.012C125.227 117.087 126.243 115.234 127.391 113.469C127.521 113.265 127.391 113.14 127.156 113.069C126.396 112.826 123.994 112.59 118.796 111.052C117.762 110.267 114.449 107.762 113.225 107.346C111.12 106.632 110.512 107.715 108.794 107.15C107.396 106.687 107.533 105.871 105.192 104.01C103.596 102.738 102.076 101.522 100.13 101.561C98.3291 101.561 98.1923 102.597 96.5659 102.88C94.0731 103.319 93.1459 101.066 88.6923 99.4729C87.6359 99.0961 87.6587 99.2531 81.9283 98.0206C82.3886 97.992 82.8296 97.8199 83.1933 97.527C83.5569 97.234 83.826 96.8341 83.9651 96.38C84.0791 95.7363 83.6839 95.3124 83.2659 94.8649C82.8449 94.5026 82.529 94.0271 82.3533 93.491C82.1776 92.9548 82.1489 92.3789 82.2703 91.827C82.3311 91.3874 82.3843 90.9713 82.0423 90.6966C81.7003 90.4218 81.2823 90.516 80.0663 91.0184C78.0447 91.8662 77.1175 92.2509 77.0263 93.0437C76.8895 94.0328 77.9611 95.0141 78.5463 95.3987C79.1315 95.7834 79.4583 95.7206 79.7471 96.1209C80.1499 96.6704 79.8307 97.2199 80.7275 97.7616L77.0491 96.9766C75.6279 96.4742 74.2219 95.9796 72.8311 95.4772C72.6563 95.4223 72.4587 95.54 72.5271 95.854C72.6715 96.5527 73.5531 99.1432 76.5475 110.408C76.6995 111.978 76.8287 113.705 76.8971 115.298C77.163 119.005 78.386 122.569 80.4387 125.621C80.7199 126.744 81.0087 127.882 81.3051 129.044C80.6667 131.901 80.6515 134.272 81.2671 136.109C81.4596 136.618 81.6097 137.143 81.7155 137.679C82.1107 139.657 81.5939 140.222 81.7915 141.863C82.0008 143.348 82.618 144.74 83.5699 145.874C84.3755 146.848 85.2495 147.232 87.4611 149.799C87.8563 150.969 88.2211 151.958 88.4643 152.727C88.476 152.759 88.4939 152.789 88.5167 152.814C88.5396 152.839 88.567 152.859 88.5974 152.872C88.6279 152.886 88.6606 152.894 88.6939 152.895C88.7271 152.895 88.7601 152.889 88.7911 152.876C92.7725 151.289 96.4962 149.084 99.8339 146.337C105.032 141.831 107.16 142.075 109.934 140.442C111.325 139.562 112.565 138.451 113.605 137.153C118.043 143.307 122.429 149.281 122.847 149.501C123.698 149.933 147.547 149.54 148.443 149.501C148.48 149.507 148.517 149.506 148.552 149.496C148.587 149.486 148.62 149.469 148.648 149.444C148.676 149.42 148.699 149.39 148.714 149.355C148.73 149.321 148.738 149.284 148.738 149.246C148.738 149.208 148.73 149.171 148.714 149.136C148.699 149.102 148.676 149.072 148.648 149.047C148.62 149.023 148.587 149.005 148.552 148.996C148.517 148.986 148.48 148.984 148.443 148.991L148.474 149.014ZM113.005 107.865C114.088 108.367 115.108 109.002 116.045 109.756C116.045 109.756 116.934 110.384 117.306 110.667C114.54 109.796 112.093 108.869 109.448 107.857C110.755 107.959 111.371 107.307 113.005 107.865ZM116.744 111.005C115.821 112.021 114.654 112.769 113.362 113.171C112.83 112.386 110.793 109.364 110.322 108.72C112.473 109.544 114.509 110.274 116.744 111.012V111.005ZM109.493 108.398C113.081 113.407 112.967 113.815 113.293 113.713C114.82 113.279 116.19 112.395 117.238 111.169C119.221 111.79 121.258 112.339 123.447 112.841C123.336 113.306 123.12 113.736 122.816 114.096C122.512 114.456 122.129 114.737 121.699 114.914C119.789 116 117.976 117.258 116.28 118.674C116.236 118.712 116.205 118.764 116.192 118.823C116.18 118.881 116.187 118.942 116.212 118.996C116.658 119.914 117.15 120.808 117.686 121.673C117.703 121.702 117.725 121.728 117.751 121.748C117.777 121.769 117.807 121.783 117.839 121.792C117.871 121.8 117.905 121.801 117.937 121.795C117.97 121.79 118.001 121.777 118.028 121.759C118.824 121.25 119.426 120.474 119.735 119.561C120.043 118.648 120.039 117.653 119.723 116.743C120.415 116.233 121.145 115.779 121.904 115.385C122.405 115.174 122.849 114.843 123.202 114.42C123.555 113.997 123.805 113.494 123.933 112.951C124.853 113.163 125.78 113.352 126.707 113.532C125.638 115.222 124.686 116.987 123.857 118.815C122.337 122.206 122.596 122.67 121.456 125.331C120.361 127.826 118.911 130.139 117.154 132.192C114.785 129.211 112.796 125.929 111.234 122.426C110.425 120.333 109.276 118.397 107.837 116.704L107.783 116.633C106.461 115.126 105.367 114.419 103.527 112.104C101.964 110.128 100.63 107.971 99.5527 105.674L100.313 105.078C102.95 105.902 106.925 107.425 109.493 108.406V108.398ZM117.998 121.186C117.549 120.401 117.154 119.718 116.782 118.964C117.739 118.179 118.591 117.583 119.328 117.049C119.558 117.795 119.553 118.598 119.314 119.341C119.075 120.084 118.614 120.73 117.998 121.186ZM93.2447 134.531C90.2343 136.058 87.4122 137.953 84.8391 140.175C84.2159 138.087 83.6535 136.109 83.1291 134.217C85.5763 131.077 87.3091 131.195 91.8539 127.804C91.9062 127.764 91.9417 127.705 91.9531 127.64C91.9644 127.574 91.9506 127.506 91.9147 127.45C89.6347 123.933 88.4947 123.682 86.8759 121.021C86.0619 119.693 85.1225 118.452 84.0715 117.316C86.0475 116.154 87.3395 116.021 89.6499 114.521C92.6899 118.917 94.6279 119.169 97.6679 123.714C97.6905 123.745 97.7198 123.77 97.7535 123.787C97.7871 123.804 97.8241 123.813 97.8617 123.813C97.8992 123.813 97.9362 123.804 97.9699 123.787C98.0035 123.77 98.0328 123.745 98.0555 123.714C99.2185 122.403 100.591 121.309 102.114 120.479C104.067 119.59 105.915 118.473 107.624 117.151C108.935 118.723 109.985 120.508 110.732 122.434C109.136 123.447 107.555 124.499 106.013 125.574L104.88 124.004C104.841 123.949 104.782 123.912 104.716 123.902C104.651 123.892 104.584 123.909 104.531 123.949C104.503 123.969 104.48 123.994 104.463 124.023C104.445 124.052 104.434 124.084 104.429 124.118C104.424 124.152 104.425 124.186 104.434 124.219C104.442 124.252 104.457 124.283 104.477 124.31C104.751 124.703 105.139 125.237 105.602 125.88C98.7851 130.739 99.2563 131.469 93.2447 134.547V134.531ZM95.6159 133.832C98.1619 137.498 98.5039 139.414 100.237 141.777C96.7806 144.569 92.4573 145.965 88.0767 145.702C87.5428 144.502 86.7052 143.474 85.6523 142.726C85.4395 142.043 85.2343 141.376 85.0367 140.717C89.6879 136.65 93.0775 135.316 95.6159 133.824V133.832ZM90.0679 114.247C91.5879 113.218 91.5879 112.802 95.1751 109.497C96.4747 108.296 97.7971 107.142 99.1575 105.988C102.197 112.496 105.906 115.291 107.259 116.79C103.368 119.859 101.111 119.64 97.8959 123.156C94.8635 118.76 93.0851 118.564 90.0679 114.262V114.247ZM105.868 126.304C107.001 127.874 108.543 130.056 110.246 132.427C109.033 134.097 107.475 135.468 105.686 136.439C104.007 134.365 102.576 132.09 101.422 129.664C102.874 128.526 104.394 127.387 105.868 126.32V126.304ZM106.279 126.014C107.799 124.946 109.319 123.91 110.907 122.913C111.857 125.006 112.965 127.02 114.221 128.934C112.871 129.799 111.645 130.856 110.58 132.074C109.113 130.002 107.647 127.953 106.279 126.029V126.014ZM100.077 102.087C101.909 102.087 103.345 103.257 104.835 104.442C105.793 105.277 106.701 106.171 107.555 107.119C100.997 104.63 100.229 104.544 96.5507 103.414C98.2455 103.147 98.4887 102.118 100.077 102.103V102.087ZM88.4719 99.9753C89.9992 100.53 91.4503 101.287 92.7887 102.228C92.3555 102.087 84.5959 99.5592 81.2747 98.4288C87.7803 99.8575 87.4079 99.6063 88.4719 99.991V99.9753ZM80.6363 97.1336C80.3171 96.7803 80.4615 96.3486 80.0663 95.8226C79.6711 95.2967 79.3063 95.3438 78.7287 94.9748C78.1511 94.6059 77.3455 93.7659 77.4367 93.1301C77.5051 92.6355 78.5159 92.2116 80.2107 91.5051C82.6427 90.4925 81.4039 91.4031 81.7307 93.1693C82.0575 94.9356 83.5927 95.4694 83.4483 96.3093C83.3499 96.5856 83.1901 96.8341 82.9816 97.0347C82.7731 97.2353 82.5218 97.3825 82.248 97.4643C81.9743 97.546 81.6858 97.5601 81.4058 97.5054C81.1258 97.4507 80.8622 97.3287 80.6363 97.1493V97.1336ZM92.3859 102.629C89.5359 104.544 88.9507 105.564 86.2603 106.82C84.1563 104.238 82.2144 101.519 80.4463 98.68C84.5123 100.069 88.4339 101.38 92.3859 102.652V102.629ZM73.0363 96.1445C74.8603 96.796 76.7071 97.4397 78.5767 98.0913C77.3835 99.2688 76.8363 99.4729 74.4879 101.271C73.9939 99.5357 73.5303 97.8244 73.0363 96.1445ZM74.7539 102.126L74.6551 101.765C77.0795 99.8968 77.6951 99.6927 79.1315 98.2404L79.7243 98.4445C81.6227 101.551 83.7279 104.518 86.0247 107.323C86.0602 107.364 86.1073 107.392 86.1592 107.403C86.2111 107.414 86.2651 107.408 86.3135 107.386C89.3003 106.051 90.1135 104.709 93.0319 102.848C96.1631 103.845 99.4843 104.827 99.7199 104.897C96.9306 107.185 94.2545 109.616 91.7019 112.182C91.079 112.868 90.3741 113.47 89.6043 113.972C88.5459 114.673 87.4202 115.26 86.2451 115.722C83.6979 116.733 81.4152 118.347 79.5799 120.432C79.4583 119.954 78.5387 116.303 78.1891 114.937C79.29 114.417 80.2994 113.712 81.1759 112.849C81.2104 112.802 81.2291 112.744 81.2291 112.684C81.2291 112.625 81.2104 112.567 81.1759 112.52C77.9763 107.378 78.0827 105.502 74.7539 102.126ZM75.0427 103.162C77.7483 106.192 77.7483 107.872 80.6819 112.582C79.9047 113.324 79.02 113.936 78.0599 114.396C77.0795 110.738 76.0611 106.946 75.0199 103.162H75.0427ZM78.5539 120.998C77.2543 117.763 77.3531 115.644 77.1707 113.148C77.6951 115.134 79.8003 123.455 79.9219 123.965C79.3929 123.013 78.9356 122.021 78.5539 120.998ZM79.6939 120.998C80.8505 119.693 82.1722 118.555 83.6231 117.614C86.4503 120.66 86.1159 121.469 88.5935 124.114C89.6079 125.175 90.531 126.326 91.3523 127.552C87.0051 130.755 85.3939 130.692 82.9467 133.644C81.9511 129.939 80.6363 124.703 79.7091 120.99L79.6939 120.998ZM83.8739 145.505C82.9818 144.449 82.4038 143.148 82.2095 141.761C82.0271 140.191 82.5287 139.579 82.1259 137.53C82.0117 136.977 81.8567 136.433 81.6623 135.905C81.133 134.021 81.0833 132.028 81.5179 130.119C83.1595 136.399 84.8467 142.161 86.9747 148.567C85.3939 146.801 84.5047 146.275 83.8739 145.505ZM88.7683 152.296C87.7119 149.273 86.2679 144.783 85.8879 143.582C86.65 144.254 87.2531 145.097 87.6511 146.047C87.6695 146.09 87.6992 146.127 87.7368 146.153C87.7744 146.179 87.8184 146.194 87.8639 146.196C92.4267 146.535 96.9483 145.108 100.548 142.193C101.017 142.802 101.525 143.379 102.068 143.92C99.2031 145.961 97.2727 148.685 88.7607 152.296H88.7683ZM102.524 143.621C99.0739 140.34 99.3247 138.315 96.0567 133.589C97.8067 132.549 99.4626 131.348 101.004 130.002C102.198 132.491 103.68 134.822 105.42 136.941C105.456 136.986 105.505 137.017 105.561 137.029C105.616 137.04 105.674 137.031 105.724 137.004C107.616 136.021 109.266 134.607 110.55 132.867L113.339 136.737C108.794 141.894 107.783 140.042 102.517 143.621H102.524ZM110.884 132.474C111.939 131.266 113.158 130.222 114.502 129.374C115.262 130.48 116.022 131.556 116.865 132.6C116.273 133.314 114.061 135.897 113.673 136.344C112.754 135.08 111.819 133.777 110.884 132.474Z" fill="black"/>
<path d="M129.139 147.169C129.206 147.169 129.269 147.142 129.316 147.094C129.363 147.045 129.39 146.979 129.39 146.91V138.715C129.39 138.646 129.363 138.58 129.316 138.532C129.269 138.483 129.206 138.456 129.139 138.456C129.072 138.456 129.009 138.483 128.962 138.532C128.915 138.58 128.888 138.646 128.888 138.715V146.926C128.892 146.992 128.92 147.054 128.967 147.099C129.013 147.144 129.075 147.17 129.139 147.169Z" fill="black"/>
<path d="M131.047 138.974H134.292L132.073 141.572C132.039 141.617 132.021 141.672 132.02 141.729C132.02 141.785 132.037 141.841 132.07 141.886C132.103 141.932 132.149 141.965 132.202 141.98C132.254 141.996 132.31 141.993 132.362 141.973C132.682 141.779 133.039 141.66 133.409 141.626C133.779 141.593 134.151 141.644 134.499 141.778C134.847 141.911 135.162 142.123 135.421 142.397C135.68 142.672 135.876 143.003 135.996 143.366C136.116 143.728 136.156 144.114 136.113 144.495C136.071 144.876 135.947 145.242 135.75 145.567C135.553 145.892 135.289 146.168 134.976 146.375C134.664 146.581 134.311 146.713 133.942 146.761C133.456 146.822 132.962 146.744 132.515 146.537C132.068 146.329 131.684 146 131.404 145.584C131.387 145.55 131.364 145.521 131.335 145.497C131.306 145.474 131.273 145.457 131.237 145.449C131.202 145.44 131.165 145.44 131.129 145.447C131.093 145.455 131.059 145.471 131.03 145.494C131.001 145.516 130.976 145.545 130.959 145.579C130.942 145.612 130.932 145.649 130.93 145.687C130.928 145.725 130.934 145.762 130.948 145.797C130.961 145.833 130.982 145.864 131.009 145.89C131.297 146.332 131.689 146.691 132.148 146.933C132.607 147.175 133.118 147.293 133.634 147.275C134.149 147.257 134.651 147.103 135.094 146.83C135.536 146.556 135.903 146.17 136.162 145.709C137.552 143.354 135.5 140.811 133.03 141.227L135.022 138.872C135.055 138.836 135.077 138.791 135.085 138.742C135.093 138.693 135.087 138.643 135.067 138.597C135.048 138.552 135.016 138.514 134.975 138.487C134.935 138.461 134.887 138.447 134.839 138.448H131.039C130.975 138.448 130.913 138.475 130.867 138.522C130.822 138.569 130.796 138.633 130.796 138.699C130.793 138.735 130.797 138.771 130.808 138.805C130.819 138.838 130.837 138.869 130.861 138.895C130.885 138.921 130.914 138.942 130.946 138.955C130.978 138.969 131.012 138.975 131.047 138.974Z" fill="black"/>
<path d="M138.951 147.169C138.981 147.181 139.014 147.185 139.046 147.183C139.078 147.181 139.11 147.173 139.139 147.158C139.168 147.144 139.194 147.123 139.215 147.098C139.236 147.073 139.252 147.044 139.263 147.012C139.886 145.191 141.543 140.45 142.128 138.801C142.144 138.738 142.137 138.672 142.107 138.614C142.078 138.556 142.029 138.512 141.969 138.49C141.91 138.469 141.845 138.471 141.787 138.496C141.729 138.522 141.682 138.569 141.657 138.629C141.094 140.277 139.422 145.019 138.799 146.848C138.788 146.879 138.784 146.912 138.786 146.946C138.787 146.979 138.796 147.011 138.81 147.041C138.824 147.071 138.844 147.098 138.868 147.12C138.892 147.142 138.92 147.159 138.951 147.169Z" fill="black"/>
<path d="M138.366 140.976C138.606 140.976 138.842 140.902 139.041 140.764C139.241 140.626 139.397 140.43 139.489 140.201C139.581 139.971 139.605 139.718 139.559 139.475C139.512 139.231 139.396 139.007 139.226 138.832C139.056 138.656 138.839 138.536 138.603 138.488C138.367 138.44 138.123 138.464 137.901 138.559C137.678 138.655 137.488 138.816 137.355 139.022C137.221 139.229 137.15 139.471 137.15 139.72C137.15 140.053 137.278 140.372 137.506 140.608C137.734 140.844 138.043 140.976 138.366 140.976ZM138.366 138.974C138.509 138.974 138.648 139.018 138.767 139.1C138.886 139.182 138.978 139.298 139.033 139.434C139.088 139.571 139.102 139.721 139.074 139.865C139.046 140.01 138.977 140.143 138.876 140.247C138.775 140.351 138.647 140.423 138.507 140.451C138.367 140.48 138.222 140.465 138.09 140.409C137.958 140.352 137.845 140.257 137.766 140.134C137.686 140.012 137.644 139.867 137.644 139.72C137.653 139.525 137.732 139.341 137.866 139.203C137.999 139.065 138.177 138.984 138.366 138.974Z" fill="black"/>
<path d="M141.223 145.929C141.222 146.18 141.292 146.425 141.426 146.634C141.56 146.843 141.751 147.007 141.975 147.103C142.199 147.2 142.446 147.225 142.684 147.177C142.922 147.128 143.14 147.008 143.312 146.831C143.484 146.653 143.6 146.428 143.647 146.182C143.694 145.936 143.669 145.681 143.576 145.45C143.482 145.218 143.324 145.021 143.122 144.883C142.919 144.745 142.682 144.672 142.439 144.673C142.117 144.673 141.807 144.806 141.579 145.041C141.351 145.277 141.223 145.596 141.223 145.929ZM142.439 145.183C142.631 145.183 142.814 145.262 142.95 145.402C143.085 145.542 143.161 145.731 143.161 145.929C143.161 146.127 143.085 146.317 142.95 146.456C142.814 146.596 142.631 146.675 142.439 146.675C142.248 146.675 142.064 146.596 141.929 146.456C141.793 146.317 141.717 146.127 141.717 145.929C141.717 145.731 141.793 145.542 141.929 145.402C142.064 145.262 142.248 145.183 142.439 145.183Z" fill="black"/>
<path d="M108.642 13.8215C108.706 13.8411 108.774 13.8339 108.833 13.8015C108.891 13.7692 108.935 13.7143 108.954 13.6488C110.064 9.93577 110.611 8.93882 111.812 5.45342C111.834 5.38887 111.83 5.31797 111.801 5.2562C111.773 5.19443 111.722 5.14681 111.66 5.12372C111.629 5.11262 111.597 5.10788 111.565 5.10978C111.533 5.11169 111.501 5.12019 111.472 5.1348C111.443 5.14942 111.417 5.16984 111.396 5.1949C111.375 5.21995 111.358 5.24912 111.348 5.28072C110.155 8.75042 109.592 9.77877 108.483 13.4997C108.464 13.5642 108.469 13.634 108.499 13.6941C108.529 13.7542 108.58 13.8 108.642 13.8215Z" fill="black"/>
<path d="M108.057 7.6279C108.3 7.62945 108.537 7.55665 108.739 7.41873C108.941 7.2808 109.099 7.08396 109.193 6.85316C109.287 6.62237 109.312 6.36801 109.266 6.12233C109.22 5.87665 109.104 5.65072 108.933 5.47318C108.762 5.29564 108.544 5.17449 108.306 5.12509C108.069 5.07568 107.822 5.10025 107.598 5.19567C107.374 5.29109 107.183 5.45307 107.048 5.66108C106.913 5.86909 106.841 6.11375 106.841 6.36405C106.841 6.69788 106.969 7.01817 107.197 7.25496C107.425 7.49175 107.734 7.62582 108.057 7.6279ZM108.057 5.6183C108.209 5.61045 108.36 5.64974 108.489 5.73109C108.619 5.81244 108.723 5.93212 108.786 6.07469C108.849 6.21727 108.87 6.37619 108.845 6.53096C108.82 6.68572 108.751 6.82924 108.646 6.94298C108.542 7.05673 108.406 7.13548 108.258 7.16909C108.11 7.2027 107.955 7.18962 107.814 7.13153C107.673 7.07345 107.552 6.97302 107.467 6.84322C107.381 6.71342 107.335 6.56018 107.335 6.4033C107.33 6.30211 107.345 6.2009 107.379 6.10584C107.413 6.01078 107.465 5.92387 107.533 5.85041C107.6 5.77695 107.682 5.71848 107.772 5.67857C107.862 5.63867 107.959 5.61816 108.057 5.6183Z" fill="black"/>
<path d="M110.915 12.5734C110.915 12.8218 110.986 13.0646 111.119 13.2712C111.253 13.4777 111.443 13.6387 111.665 13.7338C111.887 13.8288 112.132 13.8537 112.368 13.8052C112.604 13.7568 112.82 13.6372 112.99 13.4615C113.16 13.2859 113.276 13.0621 113.323 12.8184C113.37 12.5748 113.346 12.3222 113.254 12.0927C113.162 11.8632 113.006 11.6671 112.806 11.5291C112.606 11.391 112.371 11.3174 112.131 11.3174C111.808 11.3174 111.499 11.4497 111.271 11.6853C111.043 11.9208 110.915 12.2403 110.915 12.5734ZM112.131 11.8276C112.271 11.8353 112.407 11.8855 112.521 11.9719C112.634 12.0584 112.721 12.1774 112.77 12.3141C112.819 12.4509 112.828 12.5995 112.796 12.7414C112.764 12.8834 112.692 13.0126 112.59 13.113C112.488 13.2134 112.359 13.2807 112.22 13.3064C112.081 13.3321 111.938 13.3152 111.808 13.2578C111.678 13.2004 111.568 13.105 111.49 12.9833C111.412 12.8617 111.371 12.7192 111.371 12.5734C111.38 12.3721 111.465 12.1823 111.606 12.0435C111.748 11.9047 111.935 11.8274 112.131 11.8276Z" fill="black"/>
<path d="M100.518 5.6183C101.998 5.38193 103.501 5.32397 104.994 5.4456C104.933 5.9009 104.5 7.66715 103.999 9.61395H102.874C102.807 9.61395 102.743 9.64124 102.696 9.68982C102.649 9.7384 102.623 9.8043 102.623 9.873C102.623 9.90666 102.629 9.93998 102.642 9.97098C102.655 10.002 102.673 10.03 102.697 10.0535C102.72 10.0769 102.748 10.0952 102.778 10.1074C102.809 10.1195 102.841 10.1253 102.874 10.1242H103.877C103.573 11.3095 103.254 12.5184 102.995 13.5075C102.985 13.54 102.981 13.5744 102.985 13.6083C102.988 13.6423 102.998 13.6752 103.015 13.7048C103.031 13.7345 103.054 13.7602 103.081 13.7803C103.107 13.8004 103.138 13.8144 103.17 13.8215C103.234 13.8384 103.301 13.829 103.358 13.7953C103.415 13.7615 103.456 13.7062 103.474 13.641C103.565 13.2956 103.968 11.7727 104.386 10.1242H105.253C105.285 10.1253 105.318 10.1195 105.348 10.1074C105.378 10.0952 105.406 10.0769 105.429 10.0535C105.453 10.03 105.471 10.002 105.484 9.97098C105.497 9.93998 105.503 9.90666 105.503 9.873C105.503 9.83898 105.497 9.80529 105.484 9.77387C105.472 9.74244 105.453 9.71388 105.43 9.68982C105.407 9.66577 105.379 9.64669 105.349 9.63367C105.318 9.62065 105.286 9.61395 105.253 9.61395H104.493C104.987 7.65145 105.481 5.68895 105.481 5.3671C105.481 5.31414 105.469 5.26181 105.447 5.21417C105.425 5.16653 105.392 5.12485 105.351 5.09235C104.857 4.63705 101.749 4.95105 100.434 5.09235C100.402 5.09622 100.371 5.10664 100.343 5.123C100.315 5.13936 100.29 5.16132 100.27 5.18762C100.251 5.21392 100.236 5.24403 100.228 5.27619C100.219 5.30835 100.217 5.34192 100.221 5.37495C100.223 5.41199 100.232 5.44825 100.248 5.48128C100.265 5.5143 100.288 5.54333 100.316 5.5664C100.344 5.58947 100.377 5.60604 100.411 5.615C100.446 5.62395 100.482 5.62508 100.518 5.6183Z" fill="black"/>
<path d="M94.643 11.1839C94.624 11.544 94.6762 11.9043 94.7966 12.2428C94.9169 12.5812 95.1028 12.8908 95.3428 13.1527C95.5829 13.4145 95.8721 13.623 96.1927 13.7655C96.5134 13.908 96.8589 13.9815 97.208 13.9815C97.5571 13.9815 97.9025 13.908 98.2232 13.7655C98.5439 13.623 98.8331 13.4145 99.0731 13.1527C99.3131 12.8908 99.499 12.5812 99.6193 12.2428C99.7397 11.9043 99.7919 11.544 99.773 11.1839C99.7836 10.6609 99.6452 10.1463 99.3749 9.70384C99.1047 9.26142 98.7145 8.91078 98.253 8.6955C98.5914 8.45936 98.8475 8.11725 98.9837 7.71952C99.1198 7.32178 99.1288 6.88942 99.0092 6.48604C98.8897 6.08265 98.6479 5.72955 98.3196 5.47868C97.9912 5.2278 97.5936 5.09241 97.1852 5.09241C96.7767 5.09241 96.3791 5.2278 96.0507 5.47868C95.7224 5.72955 95.4807 6.08265 95.3611 6.48604C95.2416 6.88942 95.2505 7.32178 95.3866 7.71952C95.5228 8.11725 95.7789 8.45936 96.1174 8.6955C95.6625 8.91529 95.2802 9.26837 95.018 9.71081C94.7559 10.1533 94.6255 10.6655 94.643 11.1839ZM95.783 7.0784C95.783 6.80549 95.8571 6.53807 95.9968 6.30645C96.1366 6.07484 96.3364 5.88832 96.5735 5.76804C96.8107 5.64776 97.0758 5.59854 97.3386 5.62597C97.6015 5.6534 97.8517 5.75638 98.0608 5.92322C98.2699 6.09006 98.4295 6.31408 98.5216 6.56988C98.6136 6.82568 98.6344 7.10301 98.5817 7.37041C98.5289 7.63781 98.4046 7.88458 98.2229 8.08272C98.0412 8.28086 97.8094 8.42244 97.5538 8.4914C97.3217 8.45998 97.0866 8.45998 96.8546 8.4914C96.5491 8.41273 96.2778 8.23102 96.0837 7.97506C95.8896 7.7191 95.7838 7.40354 95.783 7.0784ZM96.8394 9.0095C97.0903 9.06069 97.3485 9.06069 97.5994 9.0095C98.0896 9.09969 98.532 9.36897 98.846 9.76817C99.1599 10.1674 99.3244 10.6699 99.3094 11.1839C99.3094 11.7502 99.0916 12.2933 98.7039 12.6938C98.3162 13.0942 97.7904 13.3191 97.2422 13.3191C96.6939 13.3191 96.1681 13.0942 95.7804 12.6938C95.3928 12.2933 95.175 11.7502 95.175 11.1839C95.1612 10.6774 95.3203 10.1819 95.6246 9.78434C95.9289 9.38679 96.3589 9.1125 96.8394 9.0095Z" fill="black"/>
</svg>
