<svg width="1720" height="280" viewBox="0 0 1720 280" fill="none" xmlns="http://www.w3.org/2000/svg">
<path d="M180.597 54.6069C180.597 54.6069 150.648 92.5425 102.729 69.9142C54.8106 47.2859 6.89168 108.516 48.1551 145.786C89.4186 183.056 49.0392 203.536 77.072 226.377C108.933 252.338 136.672 199.694 161.962 211.674C217.78 238.114 259.131 227.647 249.814 197.032C233.458 143.292 212.543 139.796 228.516 111.843C244.489 83.8905 209.237 25.7701 180.597 54.6069Z" fill="#DEE9FF"/>
<path d="M164.292 159.527L161.926 172.23L150.656 232.615L130.356 228.824L143.372 159.069L143.991 155.745L164.292 159.527Z" fill="#699CFF"/>
<path d="M214.288 129.149L207.288 166.677C207.267 166.787 207.225 166.892 207.164 166.986C207.103 167.08 207.024 167.16 206.932 167.224C206.84 167.287 206.736 167.331 206.626 167.354C206.517 167.377 206.404 167.379 206.294 167.358L107.949 149.016L119.524 86.9539L194.204 100.883C207.739 103.406 216.729 116.059 214.288 129.149Z" fill="#A2BDFF"/>
<path d="M140.53 116.555L133.584 153.792L81.9628 144.164L88.9079 106.927C91.465 93.2164 105.094 84.2571 119.349 86.9157C133.604 89.5743 143.087 102.844 140.53 116.555Z" fill="#699CFF"/>
<path d="M164.562 133.962C160.758 133.252 158.248 129.555 158.964 125.716C159.681 121.876 163.354 119.332 167.158 120.042C168.371 120.269 169.501 120.814 170.435 121.621C171.369 122.427 172.072 123.467 172.474 124.634L220.526 133.596L219.228 140.556L171.176 131.594C170.381 132.537 169.35 133.254 168.188 133.67C167.026 134.085 165.775 134.186 164.562 133.962Z" fill="#418DF9"/>
<path d="M138.817 117.239L132.05 153.519L83.4209 144.449L90.1881 108.169C92.6794 94.8112 105.586 86.0124 119.014 88.517C132.443 91.0216 141.308 103.881 138.817 117.239Z" fill="#418DF9"/>
<path d="M165.924 130.446C167.88 130.446 169.465 128.861 169.465 126.905C169.465 124.95 167.88 123.365 165.924 123.365C163.969 123.365 162.384 124.95 162.384 126.905C162.384 128.861 163.969 130.446 165.924 130.446Z" fill="white"/>
<path d="M221.082 133.571L216.837 156.329C216.819 156.427 216.762 156.514 216.68 156.57C216.598 156.627 216.496 156.648 216.398 156.63L205.24 154.549C205.221 154.545 205.204 154.534 205.193 154.518C205.182 154.502 205.178 154.482 205.181 154.462L209.481 131.407C209.485 131.388 209.496 131.371 209.512 131.36C209.528 131.349 209.548 131.345 209.568 131.348L221.022 133.485C221.042 133.488 221.059 133.499 221.07 133.516C221.081 133.532 221.085 133.552 221.082 133.571Z" fill="#699CFF"/>
<path d="M99.5136 131.43C99.9834 134.886 103.776 138.995 103.776 138.995C97.9968 139.404 94.8668 136.136 93.52 134.15C91.8549 134.631 90.1436 134.935 88.4145 135.056C76.5494 135.897 66.3353 128.151 65.5976 117.745C64.86 107.34 73.8795 98.2301 85.7446 97.3893C97.6097 96.5484 107.823 104.294 108.561 114.7C109.04 121.468 105.388 127.689 99.5136 131.43Z" fill="white"/>
<path d="M133.634 153.815C133.097 155.175 123.271 195.69 91.4749 189.76C56.608 183.857 81.828 144.152 81.828 144.152L133.634 153.815Z" fill="#A2BDFF"/>
<path d="M87.0789 119.792C88.7082 119.792 90.0289 118.471 90.0289 116.842C90.0289 115.213 88.7082 113.892 87.0789 113.892C85.4496 113.892 84.1288 115.213 84.1288 116.842C84.1288 118.471 85.4496 119.792 87.0789 119.792Z" fill="#699CFF"/>
<path d="M73.8719 118.506C75.511 118.506 76.8398 117.177 76.8398 115.538C76.8398 113.899 75.511 112.57 73.8719 112.57C72.2328 112.57 70.9041 113.899 70.9041 115.538C70.9041 117.177 72.2328 118.506 73.8719 118.506Z" fill="#699CFF"/>
<path d="M100.159 121.049C101.799 121.049 103.127 119.721 103.127 118.081C103.127 116.442 101.799 115.114 100.159 115.114C98.5203 115.114 97.1915 116.442 97.1915 118.081C97.1915 119.721 98.5203 121.049 100.159 121.049Z" fill="#699CFF"/>
<path d="M164.292 159.527L161.926 172.23L143.372 159.069L143.991 155.745L164.292 159.527Z" fill="#418DF9"/>
<path d="M455.76 79.7227C455.76 79.7227 483.124 100.488 524.726 61.6602C561.672 27.1782 591.838 81.5833 592.049 107.637C592.322 141.388 555.103 168.393 573.166 190.56C591.228 212.728 537.345 249.334 508.305 217.654C472.18 178.245 462.394 210.265 441.803 210.265C427.024 210.265 396.683 173.544 417.172 146.225C434.414 123.237 425.01 115.607 420.456 107.637C413.888 96.143 429.487 64.9443 455.76 79.7227Z" fill="#DEE9FF"/>
<path d="M563.629 174.789L463.161 205.635C461.497 206.145 459.697 205.974 458.159 205.158C456.621 204.342 455.47 202.948 454.959 201.283L443.21 163.024L433.457 131.251L433.268 130.643L434.606 129.099L478.268 78.7554C478.468 78.5223 478.73 78.3508 479.023 78.2606C479.317 78.1705 479.63 78.1655 479.926 78.2462L544.343 95.4302L546.289 95.9474L546.889 97.885L567.981 166.58C568.49 168.245 568.318 170.045 567.502 171.584C566.687 173.123 565.294 174.276 563.629 174.789Z" fill="#418DF9"/>
<path d="M546.889 97.8844L508.81 142.745V140.282L544.344 95.4296L546.289 95.9468L546.889 97.8844Z" fill="#208AF2"/>
<path d="M563.746 174.75C563.672 174.775 563.591 174.775 563.516 174.75L502.022 151.918C501.972 151.899 501.928 151.869 501.892 151.829C501.856 151.79 501.83 151.743 501.816 151.692C501.801 151.641 501.799 151.587 501.809 151.535C501.82 151.483 501.842 151.434 501.874 151.392L512.153 138.568L545.897 96.4422C545.934 96.3943 545.984 96.3575 546.04 96.3359C546.097 96.3143 546.158 96.3088 546.217 96.3198C546.277 96.3308 546.332 96.358 546.377 96.3985C546.422 96.4389 546.455 96.4909 546.472 96.5489L567.835 166.138L567.975 166.581C568.482 168.225 568.323 170.003 567.532 171.531C566.741 173.059 565.382 174.215 563.746 174.75Z" fill="#A2BDFF"/>
<path d="M498.096 149.338L497.538 150.504L433.876 130.832C433.817 130.814 433.755 130.812 433.696 130.827C433.637 130.841 433.583 130.872 433.54 130.915C433.497 130.958 433.466 131.012 433.452 131.071C433.437 131.13 433.439 131.192 433.457 131.251L433.268 130.643L434.606 129.099L498.096 149.338Z" fill="#208AF2"/>
<path d="M501.322 152.129L463.235 205.537C463.191 205.603 463.124 205.65 463.046 205.668C461.393 206.143 459.619 205.95 458.106 205.13C456.593 204.31 455.463 202.929 454.959 201.284L443.21 163.024L433.457 131.251C433.439 131.193 433.437 131.131 433.452 131.071C433.466 131.012 433.497 130.958 433.54 130.915C433.583 130.872 433.637 130.842 433.696 130.827C433.755 130.812 433.817 130.814 433.876 130.832L497.537 150.504L501.149 151.62C501.199 151.636 501.245 151.663 501.282 151.7C501.32 151.736 501.348 151.781 501.365 151.831C501.382 151.881 501.387 151.933 501.379 151.985C501.372 152.037 501.352 152.086 501.322 152.129Z" fill="#A2BDFF"/>
<path d="M563.627 174.79L463.165 205.635C461.644 206.097 460.007 205.994 458.557 205.343C457.106 204.693 455.94 203.54 455.273 202.096C455.161 201.85 455.111 201.579 455.128 201.309C455.145 201.039 455.229 200.777 455.371 200.546L495.409 135.328C495.618 134.988 495.944 134.735 496.327 134.618C496.709 134.5 497.121 134.527 497.485 134.691L567.223 166.204C567.47 166.315 567.686 166.485 567.852 166.699C568.018 166.913 568.128 167.165 568.173 167.432C568.431 169.001 568.113 170.61 567.278 171.962C566.442 173.315 565.145 174.319 563.627 174.79Z" fill="#699CFF"/>
<path d="M543.796 72.3998C543.737 72.3997 543.678 72.3845 543.626 72.3555C543.574 72.3265 543.531 72.2848 543.499 72.2342C543.468 72.1836 543.45 72.1258 543.447 72.0664C543.444 72.0069 543.457 71.9477 543.483 71.8944C543.783 71.2886 543.943 70.9564 543.944 70.9555C543.963 70.9125 543.99 70.8737 544.024 70.8414C544.058 70.8092 544.099 70.7842 544.143 70.7679C544.187 70.7516 544.234 70.7444 544.281 70.7466C544.328 70.7489 544.374 70.7606 544.416 70.781C544.459 70.8015 544.496 70.8302 544.527 70.8656C544.558 70.901 544.582 70.9422 544.597 70.9869C544.611 71.0316 544.617 71.0787 544.613 71.1256C544.609 71.1724 544.596 71.218 544.574 71.2596C544.574 71.2596 544.412 71.5941 544.11 72.205C544.081 72.2634 544.036 72.3126 543.981 72.347C543.925 72.3814 543.862 72.3997 543.796 72.3998Z" fill="white"/>
<path d="M508.453 122.26C508.386 122.26 508.321 122.241 508.265 122.205C508.208 122.169 508.164 122.118 508.135 122.058C508.107 121.997 508.097 121.93 508.106 121.864C508.114 121.798 508.142 121.736 508.185 121.685C508.637 121.146 509.067 120.611 509.462 120.096C509.518 120.022 509.602 119.974 509.694 119.962C509.786 119.95 509.879 119.974 509.953 120.031C510.026 120.087 510.075 120.171 510.087 120.263C510.099 120.355 510.074 120.448 510.017 120.522C509.616 121.045 509.18 121.588 508.721 122.135C508.688 122.174 508.647 122.206 508.601 122.227C508.554 122.249 508.504 122.26 508.453 122.26ZM510.945 118.995C510.881 118.995 510.819 118.978 510.764 118.945C510.71 118.912 510.665 118.865 510.635 118.809C510.606 118.753 510.592 118.689 510.595 118.626C510.599 118.562 510.62 118.501 510.655 118.448C511.056 117.86 511.418 117.282 511.732 116.732C511.755 116.692 511.786 116.657 511.822 116.629C511.858 116.601 511.9 116.58 511.944 116.568C511.988 116.556 512.035 116.553 512.08 116.558C512.126 116.564 512.17 116.579 512.21 116.602C512.25 116.624 512.285 116.655 512.313 116.691C512.341 116.728 512.362 116.769 512.374 116.813C512.386 116.858 512.389 116.904 512.384 116.95C512.378 116.995 512.363 117.039 512.34 117.079C512.017 117.645 511.645 118.238 511.234 118.842C511.202 118.889 511.159 118.928 511.108 118.955C511.058 118.981 511.002 118.995 510.945 118.995H510.945ZM510.873 115.659H510.867C510.159 115.663 509.46 115.51 508.818 115.211C508.777 115.192 508.739 115.164 508.708 115.13C508.677 115.097 508.653 115.057 508.637 115.014C508.622 114.97 508.615 114.925 508.617 114.879C508.619 114.833 508.63 114.788 508.649 114.746C508.669 114.704 508.696 114.667 508.73 114.636C508.764 114.605 508.804 114.581 508.847 114.565C508.89 114.549 508.936 114.542 508.982 114.544C509.028 114.546 509.073 114.557 509.114 114.577C509.664 114.832 510.262 114.962 510.867 114.959C510.895 114.959 510.925 114.959 510.954 114.959H510.96C511.006 114.958 511.052 114.967 511.095 114.984C511.137 115.001 511.176 115.027 511.209 115.059C511.242 115.091 511.268 115.129 511.286 115.172C511.304 115.214 511.313 115.259 511.314 115.305C511.314 115.351 511.306 115.397 511.288 115.44C511.271 115.482 511.246 115.521 511.213 115.554C511.181 115.587 511.143 115.613 511.101 115.631C511.058 115.649 511.013 115.658 510.967 115.659C510.936 115.659 510.904 115.659 510.873 115.659H510.873ZM512.957 115.421C512.877 115.399 512.804 115.356 512.745 115.296C512.687 115.236 512.646 115.161 512.626 115.08C512.606 114.999 512.609 114.914 512.633 114.834C512.657 114.754 512.701 114.682 512.762 114.625C512.969 114.114 513.133 113.586 513.252 113.048C513.262 113.003 513.28 112.96 513.306 112.922C513.332 112.883 513.365 112.851 513.404 112.825C513.443 112.8 513.486 112.783 513.531 112.774C513.577 112.766 513.624 112.766 513.669 112.776C513.714 112.786 513.757 112.804 513.795 112.831C513.833 112.857 513.865 112.891 513.89 112.93C513.915 112.969 513.932 113.013 513.94 113.058C513.948 113.104 513.947 113.15 513.937 113.196C513.859 113.554 513.76 113.907 513.643 114.254C513.962 114.104 514.289 113.93 514.621 113.734C514.701 113.69 514.794 113.679 514.882 113.703C514.969 113.727 515.044 113.784 515.091 113.862C515.137 113.94 515.151 114.033 515.13 114.122C515.109 114.21 515.054 114.287 514.978 114.336C514.441 114.657 513.879 114.933 513.298 115.163L513.279 115.208C513.252 115.271 513.207 115.325 513.15 115.362C513.093 115.4 513.026 115.421 512.957 115.421L512.957 115.421ZM507.284 114.077C507.199 114.077 507.117 114.047 507.053 113.99C506.495 113.523 506.023 112.961 505.661 112.329C505.637 112.288 505.622 112.243 505.615 112.197C505.609 112.15 505.613 112.102 505.625 112.057C505.638 112.012 505.66 111.969 505.689 111.933C505.719 111.896 505.755 111.865 505.797 111.843C505.838 111.821 505.884 111.807 505.931 111.803C505.978 111.798 506.025 111.804 506.07 111.818C506.115 111.832 506.156 111.856 506.192 111.887C506.227 111.917 506.256 111.955 506.277 111.997C506.6 112.555 507.019 113.052 507.515 113.464C507.568 113.511 507.606 113.573 507.623 113.642C507.64 113.711 507.636 113.784 507.611 113.851C507.586 113.917 507.541 113.975 507.483 114.015C507.424 114.056 507.355 114.077 507.284 114.077H507.284ZM516.497 113.229C516.424 113.229 516.353 113.206 516.293 113.164C516.234 113.121 516.189 113.061 516.166 112.992C516.142 112.922 516.141 112.847 516.162 112.777C516.183 112.707 516.226 112.646 516.284 112.601C516.787 112.216 517.31 111.779 517.84 111.3C517.874 111.269 517.914 111.246 517.957 111.23C518.001 111.215 518.046 111.208 518.092 111.211C518.138 111.213 518.183 111.224 518.225 111.244C518.266 111.264 518.304 111.291 518.334 111.326C518.365 111.36 518.389 111.4 518.404 111.443C518.42 111.486 518.426 111.532 518.424 111.578C518.422 111.624 518.41 111.669 518.391 111.71C518.371 111.752 518.343 111.789 518.309 111.82C517.765 112.311 517.227 112.761 516.71 113.157C516.649 113.203 516.574 113.228 516.498 113.228L516.497 113.229ZM513.703 111.432C513.619 111.431 513.538 111.401 513.475 111.346C513.411 111.291 513.369 111.215 513.357 111.132C513.282 110.518 513.018 109.942 512.603 109.483C512.54 109.415 512.507 109.325 512.511 109.232C512.514 109.14 512.554 109.053 512.622 108.99C512.69 108.927 512.78 108.893 512.873 108.897C512.965 108.9 513.053 108.94 513.116 109.007C513.628 109.57 513.955 110.276 514.05 111.031C514.057 111.076 514.054 111.123 514.043 111.167C514.032 111.212 514.012 111.254 513.984 111.291C513.957 111.328 513.922 111.359 513.883 111.382C513.843 111.406 513.8 111.421 513.754 111.428C513.737 111.43 513.72 111.432 513.703 111.432ZM505.748 110.535C505.692 110.535 505.636 110.521 505.586 110.495C505.536 110.469 505.493 110.431 505.461 110.385C505.429 110.339 505.408 110.285 505.401 110.23C505.394 110.174 505.4 110.117 505.42 110.064C505.662 109.406 506.19 108.833 506.948 108.407C507.029 108.362 507.124 108.35 507.214 108.375C507.303 108.4 507.379 108.46 507.424 108.541C507.47 108.622 507.481 108.718 507.456 108.807C507.431 108.896 507.372 108.972 507.291 109.018C506.68 109.36 506.26 109.806 506.077 110.306C506.052 110.373 506.007 110.431 505.949 110.472C505.89 110.513 505.82 110.535 505.748 110.535ZM519.559 110.485C519.49 110.485 519.423 110.464 519.365 110.426C519.308 110.388 519.263 110.333 519.236 110.27C519.21 110.206 519.202 110.136 519.215 110.068C519.229 110 519.261 109.938 519.31 109.889C519.766 109.427 520.237 108.926 520.71 108.402C520.772 108.333 520.859 108.292 520.952 108.287C521.044 108.282 521.135 108.315 521.204 108.377C521.273 108.439 521.314 108.526 521.319 108.619C521.324 108.711 521.292 108.802 521.23 108.871C520.75 109.403 520.272 109.91 519.808 110.38C519.776 110.413 519.737 110.44 519.694 110.458C519.651 110.475 519.605 110.485 519.559 110.485ZM511.106 108.578C511.075 108.578 511.044 108.574 511.014 108.566C510.392 108.405 509.746 108.364 509.109 108.445C509.063 108.45 509.017 108.446 508.973 108.434C508.928 108.422 508.887 108.401 508.851 108.372C508.815 108.344 508.784 108.309 508.762 108.269C508.739 108.229 508.725 108.185 508.719 108.139C508.714 108.093 508.717 108.047 508.73 108.003C508.742 107.959 508.763 107.917 508.791 107.881C508.82 107.845 508.855 107.815 508.895 107.792C508.935 107.77 508.979 107.755 509.025 107.75C509.751 107.658 510.489 107.705 511.197 107.89C511.279 107.912 511.35 107.963 511.397 108.033C511.445 108.104 511.464 108.189 511.453 108.274C511.442 108.358 511.401 108.435 511.337 108.491C511.273 108.547 511.191 108.578 511.106 108.578V108.578ZM522.32 107.434C522.253 107.434 522.188 107.415 522.132 107.379C522.076 107.343 522.031 107.292 522.003 107.232C521.975 107.171 521.964 107.104 521.973 107.038C521.982 106.972 522.009 106.91 522.052 106.859C522.476 106.355 522.912 105.822 523.347 105.273C523.376 105.236 523.411 105.205 523.451 105.182C523.492 105.159 523.536 105.144 523.582 105.139C523.628 105.133 523.675 105.137 523.72 105.149C523.764 105.162 523.806 105.183 523.842 105.212C523.879 105.241 523.909 105.277 523.931 105.317C523.954 105.358 523.968 105.403 523.973 105.449C523.978 105.495 523.973 105.541 523.96 105.586C523.947 105.63 523.925 105.672 523.896 105.708C523.456 106.262 523.016 106.801 522.588 107.31C522.555 107.349 522.514 107.38 522.468 107.402C522.422 107.423 522.371 107.434 522.32 107.434H522.32ZM524.881 104.213C524.816 104.213 524.752 104.194 524.697 104.16C524.642 104.126 524.597 104.077 524.568 104.019C524.539 103.96 524.527 103.895 524.533 103.83C524.539 103.766 524.563 103.704 524.602 103.652C525.002 103.122 525.412 102.568 525.821 102.003C525.876 101.927 525.958 101.877 526.05 101.862C526.141 101.848 526.235 101.87 526.31 101.924C526.385 101.979 526.436 102.061 526.451 102.153C526.465 102.244 526.443 102.338 526.388 102.413C525.976 102.982 525.563 103.541 525.16 104.074C525.128 104.117 525.086 104.152 525.037 104.176C524.989 104.2 524.936 104.213 524.882 104.213H524.881ZM527.297 100.881C527.233 100.881 527.17 100.863 527.116 100.83C527.061 100.797 527.016 100.749 526.987 100.692C526.957 100.636 526.944 100.572 526.948 100.508C526.952 100.444 526.974 100.383 527.01 100.33C527.392 99.7844 527.783 99.2144 528.172 98.6381C528.224 98.5611 528.305 98.508 528.396 98.4904C528.487 98.4727 528.581 98.492 528.658 98.544C528.735 98.596 528.788 98.6764 528.806 98.7675C528.824 98.8587 528.804 98.9531 528.752 99.0301C528.36 99.6094 527.968 100.182 527.585 100.731C527.552 100.777 527.509 100.815 527.459 100.841C527.409 100.867 527.354 100.881 527.297 100.881L527.297 100.881ZM529.602 97.4705C529.538 97.4704 529.477 97.4533 529.422 97.421C529.368 97.3886 529.324 97.3422 529.294 97.2867C529.264 97.2311 529.249 97.1685 529.252 97.1055C529.255 97.0424 529.274 96.9813 529.309 96.9285C529.679 96.3638 530.055 95.7823 530.427 95.2002C530.477 95.122 530.556 95.0668 530.646 95.0467C530.737 95.0267 530.832 95.0435 530.91 95.0935C530.988 95.1434 531.044 95.2224 531.064 95.313C531.084 95.4037 531.067 95.4986 531.017 95.5768C530.644 96.1613 530.266 96.7453 529.895 97.3128C529.863 97.3612 529.819 97.401 529.768 97.4285C529.717 97.456 529.66 97.4703 529.602 97.4703L529.602 97.4705ZM531.818 93.9985C531.756 93.9984 531.695 93.9817 531.641 93.95C531.587 93.9183 531.543 93.8728 531.513 93.8183C531.482 93.7637 531.467 93.7021 531.469 93.6397C531.47 93.5773 531.489 93.5165 531.522 93.4635C531.876 92.8939 532.238 92.3052 532.598 91.7135C532.647 91.6342 532.724 91.5773 532.815 91.5554C532.905 91.5334 533 91.5482 533.079 91.5965C533.159 91.6448 533.216 91.7225 533.237 91.8128C533.259 91.903 533.245 91.9982 533.196 92.0775C532.835 92.6711 532.472 93.2619 532.116 93.8334C532.084 93.8837 532.04 93.9251 531.989 93.9539C531.937 93.9826 531.878 93.9977 531.819 93.9976L531.818 93.9985ZM533.958 90.4822C533.896 90.4821 533.836 90.4657 533.782 90.4346C533.729 90.4034 533.685 90.3587 533.654 90.305C533.624 90.2512 533.608 90.1904 533.609 90.1286C533.609 90.0668 533.626 90.0063 533.658 89.9532C534.012 89.3594 534.36 88.7692 534.702 88.1827C534.725 88.1424 534.755 88.107 534.792 88.0786C534.828 88.0501 534.87 88.0293 534.915 88.0172C534.96 88.0051 535.007 88.002 535.053 88.0081C535.098 88.0142 535.143 88.0294 535.183 88.0528C535.223 88.0762 535.258 88.1072 535.286 88.1442C535.314 88.1812 535.334 88.2234 535.345 88.2683C535.357 88.3132 535.359 88.36 535.353 88.4059C535.346 88.4517 535.33 88.4958 535.306 88.5355C534.963 89.1235 534.614 89.7154 534.259 90.3113C534.228 90.3633 534.184 90.4064 534.132 90.4363C534.079 90.4662 534.019 90.4819 533.959 90.4819L533.958 90.4822ZM536.034 86.9272C535.973 86.9272 535.912 86.911 535.859 86.8803C535.806 86.8497 535.762 86.8056 535.731 86.7526C535.701 86.6995 535.684 86.6393 535.684 86.578C535.684 86.5167 535.7 86.4564 535.73 86.4032C536.077 85.7992 536.415 85.2032 536.745 84.6152C536.768 84.575 536.798 84.5395 536.834 84.511C536.87 84.4824 536.912 84.4612 536.956 84.4487C537 84.4362 537.047 84.4325 537.093 84.438C537.138 84.4434 537.183 84.4579 537.223 84.4805C537.263 84.5031 537.298 84.5334 537.327 84.5696C537.355 84.6059 537.376 84.6474 537.388 84.6919C537.401 84.7363 537.404 84.7827 537.398 84.8284C537.393 84.8741 537.378 84.9183 537.355 84.9584C537.024 85.5472 536.685 86.1446 536.338 86.7504C536.307 86.8038 536.263 86.8481 536.21 86.8789C536.156 86.9097 536.096 86.926 536.034 86.9259L536.034 86.9272ZM538.053 83.3387C537.992 83.3387 537.932 83.3227 537.879 83.2925C537.826 83.2623 537.782 83.2188 537.751 83.1663C537.721 83.1139 537.704 83.0543 537.703 82.9935C537.702 82.9326 537.717 82.8726 537.747 82.8193C538.087 82.2033 538.416 81.6021 538.735 81.0157C538.779 80.9341 538.854 80.8735 538.943 80.8472C539.032 80.8209 539.128 80.831 539.21 80.8754C539.291 80.9197 539.352 80.9946 539.378 81.0836C539.405 81.1726 539.395 81.2685 539.35 81.35C539.031 81.9372 538.701 82.5398 538.359 83.158C538.329 83.2126 538.285 83.258 538.231 83.2896C538.177 83.3213 538.116 83.3379 538.053 83.3379L538.053 83.3387ZM540.019 79.72C539.959 79.7199 539.9 79.7041 539.847 79.6743C539.795 79.6444 539.751 79.6015 539.72 79.5496C539.689 79.4978 539.672 79.4388 539.67 79.3784C539.669 79.318 539.683 79.2582 539.711 79.2049C540.049 78.5722 540.371 77.9662 540.675 77.3869C540.696 77.3453 540.725 77.3083 540.76 77.278C540.795 77.2478 540.836 77.2248 540.881 77.2106C540.925 77.1964 540.972 77.1911 541.018 77.1951C541.064 77.1991 541.109 77.2124 541.151 77.234C541.192 77.2557 541.228 77.2853 541.258 77.3212C541.287 77.3571 541.31 77.3985 541.323 77.4431C541.336 77.4876 541.341 77.5344 541.336 77.5807C541.331 77.627 541.317 77.6718 541.294 77.7125C540.99 78.2919 540.668 78.8993 540.328 79.5348C540.298 79.5905 540.254 79.6371 540.2 79.6696C540.145 79.702 540.083 79.7192 540.02 79.7192L540.019 79.72ZM541.936 76.0723C541.876 76.0723 541.817 76.0568 541.765 76.0273C541.712 75.9979 541.668 75.9555 541.637 75.9042C541.606 75.8529 541.589 75.7944 541.586 75.7344C541.584 75.6744 541.598 75.6149 541.625 75.5616C541.974 74.8875 542.287 74.2736 542.563 73.7288C542.584 73.6876 542.613 73.6508 542.647 73.6206C542.682 73.5904 542.723 73.5674 542.767 73.553C542.81 73.5385 542.857 73.5328 542.903 73.5363C542.949 73.5397 542.993 73.5522 543.035 73.5731C543.076 73.5939 543.112 73.6227 543.142 73.6578C543.172 73.6928 543.195 73.7334 543.209 73.7773C543.224 73.8212 543.229 73.8675 543.225 73.9134C543.222 73.9594 543.209 74.0042 543.188 74.0452C542.911 74.5912 542.597 75.2072 542.247 75.8829C542.218 75.9398 542.173 75.9875 542.118 76.0207C542.064 76.054 542.001 76.0715 541.937 76.0715L541.936 76.0723Z" fill="white"/>
<path d="M506.427 124.55C506.359 124.55 506.293 124.53 506.236 124.493C506.179 124.456 506.134 124.402 506.106 124.34C506.079 124.278 506.071 124.209 506.082 124.142C506.094 124.074 506.124 124.012 506.171 123.962C506.412 123.701 506.647 123.444 506.875 123.191C506.906 123.156 506.943 123.127 506.984 123.106C507.026 123.086 507.071 123.074 507.118 123.071C507.164 123.068 507.211 123.074 507.255 123.09C507.298 123.105 507.339 123.129 507.373 123.16C507.408 123.191 507.436 123.229 507.456 123.271C507.476 123.313 507.487 123.358 507.489 123.405C507.491 123.451 507.484 123.497 507.468 123.541C507.452 123.585 507.427 123.625 507.396 123.659C507.166 123.915 506.928 124.175 506.684 124.438C506.651 124.473 506.612 124.502 506.567 124.521C506.523 124.54 506.475 124.55 506.427 124.55Z" fill="white"/>
<path d="M491.772 102.023C491.712 102.023 491.654 102.008 491.602 101.979C491.55 101.95 491.506 101.908 491.475 101.858C491.443 101.807 491.425 101.749 491.422 101.69C491.42 101.63 491.432 101.571 491.458 101.518C491.743 100.941 491.897 100.588 491.899 100.584C491.936 100.5 492.005 100.433 492.092 100.399C492.178 100.366 492.274 100.367 492.359 100.404C492.444 100.441 492.51 100.51 492.545 100.596C492.579 100.682 492.577 100.778 492.541 100.863C492.535 100.878 492.379 101.234 492.086 101.828C492.057 101.887 492.012 101.936 491.957 101.97C491.901 102.005 491.837 102.023 491.772 102.023Z" fill="white"/>
<path d="M474.832 118.824C474.764 118.824 474.698 118.805 474.641 118.767C474.584 118.73 474.539 118.677 474.512 118.615C474.484 118.553 474.476 118.484 474.487 118.417C474.498 118.35 474.529 118.288 474.575 118.237C475.074 117.694 475.548 117.159 475.985 116.646C476.015 116.61 476.051 116.581 476.092 116.559C476.133 116.538 476.178 116.525 476.224 116.521C476.27 116.517 476.317 116.522 476.361 116.536C476.405 116.55 476.446 116.573 476.481 116.603C476.517 116.633 476.546 116.67 476.566 116.711C476.587 116.752 476.6 116.797 476.603 116.844C476.607 116.89 476.601 116.936 476.586 116.98C476.572 117.024 476.548 117.065 476.518 117.1C476.075 117.619 475.595 118.161 475.09 118.711C475.057 118.747 475.017 118.775 474.973 118.795C474.929 118.814 474.881 118.824 474.832 118.824ZM477.599 115.561C477.534 115.561 477.47 115.542 477.414 115.508C477.359 115.473 477.314 115.424 477.285 115.365C477.257 115.307 477.245 115.241 477.251 115.176C477.257 115.111 477.282 115.049 477.322 114.997C477.78 114.4 478.193 113.821 478.549 113.277C478.575 113.239 478.607 113.206 478.645 113.18C478.683 113.154 478.726 113.136 478.771 113.126C478.816 113.117 478.862 113.117 478.907 113.125C478.953 113.134 478.996 113.151 479.034 113.176C479.073 113.201 479.106 113.234 479.132 113.272C479.157 113.31 479.176 113.353 479.185 113.398C479.194 113.443 479.195 113.489 479.186 113.534C479.178 113.579 479.16 113.622 479.135 113.661C478.769 114.22 478.346 114.813 477.877 115.424C477.844 115.466 477.802 115.501 477.754 115.524C477.706 115.548 477.653 115.561 477.599 115.561ZM480.019 113.65C479.93 113.65 479.844 113.616 479.779 113.555C479.715 113.493 479.676 113.41 479.67 113.321C479.665 113.232 479.694 113.145 479.751 113.076C479.807 113.008 479.888 112.964 479.977 112.953C480.653 112.866 481.314 112.686 481.941 112.419C482.027 112.383 482.123 112.382 482.209 112.417C482.295 112.453 482.364 112.52 482.4 112.606C482.436 112.692 482.436 112.788 482.401 112.874C482.366 112.96 482.298 113.028 482.212 113.064C481.526 113.356 480.802 113.552 480.062 113.648C480.048 113.649 480.033 113.65 480.019 113.65ZM477.891 113.578C477.868 113.578 477.846 113.576 477.824 113.572C477.092 113.427 476.382 113.182 475.717 112.843C475.635 112.801 475.572 112.728 475.544 112.641C475.515 112.553 475.522 112.457 475.564 112.375C475.605 112.292 475.677 112.229 475.765 112.2C475.853 112.171 475.948 112.177 476.031 112.218C476.639 112.527 477.287 112.752 477.956 112.885C478.042 112.901 478.118 112.949 478.17 113.019C478.222 113.088 478.247 113.175 478.239 113.261C478.23 113.348 478.19 113.429 478.126 113.487C478.062 113.546 477.978 113.578 477.891 113.578ZM483.948 112.058C483.873 112.058 483.8 112.035 483.74 111.99C483.68 111.946 483.635 111.883 483.613 111.812C483.591 111.741 483.592 111.664 483.617 111.593C483.641 111.523 483.688 111.462 483.75 111.42C484.323 111.023 484.867 110.585 485.377 110.11C485.41 110.079 485.45 110.055 485.493 110.039C485.536 110.023 485.582 110.016 485.628 110.018C485.674 110.019 485.719 110.03 485.761 110.05C485.803 110.069 485.84 110.096 485.871 110.13C485.903 110.164 485.927 110.203 485.943 110.246C485.959 110.289 485.966 110.335 485.964 110.381C485.962 110.427 485.951 110.472 485.932 110.514C485.913 110.556 485.886 110.593 485.852 110.624C485.317 111.122 484.746 111.581 484.145 111.996C484.087 112.037 484.018 112.058 483.947 112.058H483.948ZM479.912 111.967C479.853 111.967 479.794 111.952 479.743 111.923C479.691 111.895 479.647 111.853 479.615 111.803C479.584 111.752 479.566 111.695 479.563 111.635C479.56 111.576 479.572 111.517 479.598 111.463C479.91 110.855 480.141 110.21 480.286 109.542C480.304 109.451 480.357 109.37 480.434 109.318C480.511 109.266 480.606 109.247 480.697 109.265C480.788 109.283 480.868 109.336 480.92 109.413C480.972 109.49 480.991 109.584 480.974 109.675C480.817 110.403 480.566 111.108 480.227 111.771C480.198 111.83 480.153 111.88 480.097 111.915C480.042 111.949 479.977 111.968 479.912 111.967H479.912ZM474.115 111.676C474.023 111.676 473.934 111.639 473.868 111.574C473.27 110.978 472.966 110.342 472.966 109.682C472.966 109.578 472.974 109.473 472.99 109.369C473.004 109.277 473.053 109.195 473.128 109.14C473.203 109.084 473.296 109.061 473.388 109.075C473.48 109.089 473.562 109.138 473.617 109.213C473.673 109.288 473.696 109.381 473.682 109.473C473.672 109.542 473.666 109.613 473.666 109.683C473.666 110.149 473.901 110.618 474.363 111.078C474.412 111.127 474.445 111.19 474.459 111.258C474.472 111.326 474.465 111.396 474.439 111.46C474.412 111.524 474.368 111.579 474.31 111.617C474.252 111.656 474.185 111.676 474.115 111.676V111.676ZM487.103 109.179C487.036 109.179 486.97 109.16 486.914 109.123C486.857 109.087 486.813 109.035 486.785 108.974C486.757 108.913 486.748 108.845 486.757 108.778C486.767 108.712 486.796 108.649 486.84 108.599C487.283 108.093 487.728 107.538 488.163 106.952C488.219 106.878 488.301 106.829 488.393 106.815C488.484 106.802 488.577 106.826 488.652 106.881C488.726 106.936 488.775 107.018 488.789 107.109C488.803 107.201 488.78 107.294 488.726 107.368C488.28 107.97 487.822 108.539 487.367 109.06C487.334 109.098 487.293 109.128 487.248 109.148C487.202 109.169 487.153 109.18 487.103 109.179H487.103ZM474.519 108.052C474.446 108.052 474.374 108.029 474.315 107.986C474.255 107.943 474.211 107.883 474.187 107.813C474.164 107.743 474.163 107.668 474.185 107.598C474.207 107.528 474.251 107.466 474.309 107.422C474.921 106.974 475.608 106.639 476.337 106.433C476.426 106.409 476.52 106.421 476.599 106.466C476.679 106.511 476.738 106.586 476.763 106.673C476.789 106.761 476.779 106.855 476.736 106.936C476.693 107.017 476.62 107.077 476.533 107.105C475.885 107.289 475.275 107.586 474.73 107.982C474.669 108.028 474.595 108.052 474.519 108.052L474.519 108.052ZM480.371 107.889C480.313 107.889 480.255 107.874 480.204 107.846C480.153 107.818 480.109 107.778 480.077 107.729C479.704 107.15 479.02 106.959 478.512 106.901C478.466 106.896 478.421 106.883 478.381 106.86C478.34 106.838 478.304 106.808 478.275 106.772C478.246 106.736 478.225 106.695 478.212 106.65C478.199 106.606 478.195 106.559 478.2 106.513C478.206 106.467 478.22 106.423 478.243 106.382C478.265 106.342 478.296 106.306 478.332 106.278C478.368 106.249 478.41 106.228 478.455 106.216C478.499 106.203 478.546 106.2 478.592 106.206C479.535 106.314 480.252 106.71 480.665 107.348C480.699 107.401 480.719 107.462 480.721 107.525C480.723 107.588 480.709 107.651 480.679 107.706C480.649 107.761 480.604 107.807 480.55 107.839C480.496 107.872 480.434 107.889 480.371 107.889H480.371ZM489.661 105.747C489.598 105.746 489.537 105.73 489.483 105.697C489.429 105.665 489.384 105.619 489.354 105.564C489.324 105.509 489.309 105.447 489.312 105.384C489.314 105.321 489.333 105.26 489.367 105.207C489.743 104.624 490.112 104.013 490.465 103.39C490.487 103.35 490.518 103.314 490.554 103.286C490.59 103.257 490.632 103.236 490.676 103.224C490.721 103.211 490.767 103.208 490.813 103.213C490.859 103.219 490.903 103.233 490.943 103.256C490.983 103.279 491.019 103.309 491.047 103.346C491.075 103.382 491.096 103.424 491.108 103.468C491.12 103.513 491.124 103.56 491.118 103.605C491.112 103.651 491.097 103.695 491.074 103.735C490.715 104.369 490.338 104.992 489.956 105.586C489.924 105.635 489.88 105.676 489.829 105.704C489.777 105.733 489.719 105.747 489.66 105.747L489.661 105.747Z" fill="white"/>
<path d="M472.612 121.137C472.543 121.137 472.476 121.116 472.418 121.078C472.36 121.04 472.316 120.985 472.289 120.921C472.262 120.857 472.255 120.787 472.269 120.719C472.282 120.652 472.315 120.589 472.364 120.54C472.616 120.288 472.861 120.04 473.098 119.796C473.163 119.729 473.252 119.691 473.345 119.69C473.437 119.689 473.527 119.725 473.593 119.789C473.66 119.854 473.698 119.943 473.699 120.036C473.7 120.128 473.665 120.218 473.6 120.284C473.36 120.53 473.113 120.781 472.859 121.035C472.827 121.067 472.788 121.093 472.746 121.11C472.704 121.128 472.658 121.137 472.612 121.137Z" fill="white"/>
<path d="M934.459 108.79C934.459 108.79 909.42 130.768 938.251 177.83C963.856 219.626 906.304 237.744 881.505 232.892C849.378 226.608 830.933 186.002 806.365 198.868C781.797 211.734 757.458 153.432 793.195 131.978C837.649 105.29 809.119 89.7819 813.112 70.2138C815.977 56.17 856.756 34.4568 878.744 59.2249C897.246 80.067 906.32 72.6106 914.777 69.8283C926.974 65.8153 953.597 86.6889 934.459 108.79Z" fill="#DEE9FF"/>
<path d="M863.565 133.557L855.362 167.205C855.057 168.453 855.001 169.749 855.198 171.018C855.394 172.287 855.839 173.506 856.506 174.603C857.173 175.701 858.05 176.656 859.087 177.414C860.123 178.173 861.299 178.72 862.547 179.024L903.346 188.97C904.395 200.488 913.927 201.339 917.687 201.734C917.724 201.736 917.761 201.726 917.792 201.705C917.822 201.684 917.845 201.653 917.857 201.618C917.868 201.583 917.867 201.545 917.855 201.51C917.843 201.475 917.819 201.445 917.788 201.425C915.087 199.779 914.281 195.266 914.101 191.592L917.13 192.33C918.378 192.635 919.673 192.691 920.943 192.494C922.212 192.298 923.43 191.853 924.528 191.186C925.625 190.519 926.58 189.642 927.339 188.605C928.097 187.569 928.644 186.393 928.948 185.145L937.151 151.496C937.456 150.248 937.512 148.953 937.315 147.683C937.119 146.414 936.674 145.196 936.007 144.098C935.34 143.001 934.463 142.046 933.426 141.287C932.39 140.529 931.214 139.982 929.966 139.678L875.383 126.371C874.136 126.067 872.84 126.011 871.571 126.207C870.301 126.403 869.083 126.848 867.985 127.515C866.888 128.182 865.933 129.059 865.174 130.096C864.416 131.133 863.869 132.309 863.565 133.557Z" fill="#A2BDFF"/>
<path d="M931.241 150.156L908.427 144.594C908.277 144.558 908.126 144.65 908.089 144.8L906.919 149.601C906.882 149.751 906.974 149.903 907.124 149.939L929.938 155.501C930.088 155.538 930.24 155.446 930.277 155.295L931.447 150.495C931.484 150.344 931.391 150.193 931.241 150.156Z" fill="white"/>
<path d="M927.984 163.518L866.171 148.449C866.021 148.412 865.87 148.504 865.833 148.655L864.663 153.455C864.626 153.606 864.718 153.757 864.868 153.794L926.681 168.863C926.831 168.9 926.982 168.808 927.019 168.657L928.189 163.857C928.226 163.706 928.134 163.555 927.984 163.518Z" fill="#D4E5FF"/>
<path d="M924.726 176.88L862.914 161.811C862.764 161.774 862.612 161.867 862.576 162.017L861.405 166.817C861.369 166.968 861.461 167.119 861.611 167.156L923.423 182.225C923.573 182.262 923.725 182.17 923.761 182.019L924.932 177.219C924.968 177.069 924.876 176.917 924.726 176.88Z" fill="#D4E5FF"/>
<path d="M886.536 93.1923L899.95 136.27C900.448 137.868 900.626 139.548 900.475 141.214C900.323 142.88 899.845 144.501 899.067 145.982C898.289 147.463 897.227 148.777 895.941 149.848C894.655 150.919 893.171 151.726 891.574 152.223L839.343 168.487C838.92 183.547 826.597 185.433 821.74 186.253C821.692 186.259 821.643 186.249 821.601 186.225C821.559 186.2 821.526 186.162 821.509 186.117C821.491 186.072 821.488 186.022 821.502 185.975C821.516 185.929 821.545 185.888 821.584 185.86C824.96 183.499 825.64 177.566 825.574 172.774L821.696 173.982C820.099 174.48 818.419 174.658 816.753 174.506C815.086 174.355 813.466 173.876 811.985 173.099C810.503 172.321 809.19 171.259 808.119 169.973C807.048 168.687 806.241 167.203 805.744 165.606L792.33 122.528C791.832 120.93 791.653 119.25 791.805 117.584C791.956 115.918 792.435 114.297 793.213 112.816C793.991 111.335 795.053 110.021 796.338 108.95C797.624 107.879 799.108 107.072 800.706 106.575L870.583 84.8159C872.18 84.318 873.86 84.1397 875.527 84.2912C877.193 84.4427 878.813 84.9211 880.295 85.699C881.776 86.4768 883.09 87.539 884.161 88.8247C885.231 90.1104 886.038 91.5946 886.536 93.1923Z" fill="#418DF9"/>
<path d="M837.186 108.621L799.767 120.258C799.619 120.304 799.536 120.461 799.582 120.609L801.544 126.918C801.59 127.066 801.747 127.148 801.895 127.102L839.314 115.465C839.462 115.419 839.544 115.262 839.498 115.114L837.536 108.805C837.49 108.657 837.333 108.575 837.186 108.621Z" fill="white"/>
<path d="M884.407 112.62L805.113 137.312C804.965 137.358 804.883 137.515 804.929 137.663L806.893 143.971C806.939 144.119 807.096 144.201 807.244 144.155L886.538 119.462C886.686 119.416 886.768 119.259 886.722 119.112L884.758 112.804C884.712 112.656 884.555 112.574 884.407 112.62Z" fill="#D4E5FF"/>
<path d="M889.727 129.814L810.414 154.48C810.266 154.525 810.184 154.682 810.23 154.83L812.192 161.139C812.238 161.287 812.395 161.37 812.542 161.324L891.855 136.658C892.003 136.612 892.085 136.455 892.039 136.307L890.077 129.998C890.031 129.85 889.874 129.768 889.727 129.814Z" fill="#D4E5FF"/>
<path d="M1219.75 63.2846C1219.75 63.2846 1224.79 95.6564 1279.05 96.5499C1327.24 97.3433 1311.92 154.662 1294.82 172.685C1272.66 196.032 1229.23 189.925 1226.95 217.1C1224.67 244.276 1163.45 233.725 1164.49 192.752C1165.79 141.783 1137.87 157.281 1123.74 143.648C1113.59 133.863 1117.08 88.5679 1149.23 83.3823C1176.29 79.0188 1174.88 67.5559 1177.04 59.0699C1180.14 46.8314 1211.5 35.7451 1219.75 63.2846Z" fill="#DEE9FF"/>
<path d="M1270.8 178.517C1270.8 179.34 1270.64 180.155 1270.33 180.915C1270.02 181.676 1269.56 182.368 1268.98 182.95C1268.4 183.533 1267.71 183.995 1266.95 184.311C1266.19 184.626 1265.37 184.789 1264.55 184.789L1164.33 184.993C1163.5 184.995 1162.69 184.835 1161.93 184.522C1161.17 184.209 1160.48 183.749 1159.89 183.169C1159.31 182.589 1158.85 181.899 1158.53 181.14C1158.22 180.381 1158.06 179.567 1158.05 178.744L1157.91 108.274L1213.39 73.4455C1213.64 73.2889 1213.92 73.2051 1214.22 73.2037C1214.51 73.2023 1214.8 73.2834 1215.05 73.4376L1269.36 107.24L1270.66 108.046V109.174L1270.8 178.517Z" fill="#208AF2"/>
<path d="M1262.62 79.5109H1165.35C1165.12 79.5109 1164.93 79.699 1164.93 79.9309V184.014C1164.93 184.246 1165.12 184.434 1165.35 184.434H1262.62C1262.85 184.434 1263.04 184.246 1263.04 184.014V79.9309C1263.04 79.699 1262.85 79.5109 1262.62 79.5109Z" fill="#699CFF"/>
<path d="M1264.45 184.69L1214.7 146.76C1214.66 146.73 1214.63 146.69 1214.61 146.644C1214.59 146.599 1214.58 146.549 1214.58 146.499C1214.58 146.448 1214.59 146.399 1214.62 146.355C1214.64 146.311 1214.68 146.273 1214.72 146.244L1270.16 108.352C1270.21 108.32 1270.26 108.301 1270.32 108.297C1270.38 108.294 1270.43 108.306 1270.49 108.333C1270.54 108.36 1270.58 108.401 1270.61 108.45C1270.64 108.5 1270.66 108.557 1270.66 108.614L1270.8 178.483C1270.8 180.125 1270.16 181.702 1269.01 182.875C1267.86 184.049 1266.3 184.725 1264.66 184.759C1264.58 184.76 1264.51 184.736 1264.45 184.69Z" fill="#A2BDFF"/>
<path d="M1164.41 184.889L1214 146.762C1214.04 146.731 1214.08 146.691 1214.1 146.646C1214.12 146.6 1214.13 146.55 1214.13 146.5C1214.13 146.449 1214.11 146.4 1214.09 146.356C1214.07 146.312 1214.03 146.274 1213.99 146.246L1158.4 108.576C1158.35 108.543 1158.3 108.524 1158.24 108.521C1158.18 108.518 1158.12 108.531 1158.07 108.558C1158.02 108.585 1157.98 108.626 1157.95 108.675C1157.92 108.725 1157.9 108.782 1157.9 108.84L1158.04 178.709C1158.05 180.35 1158.69 181.924 1159.84 183.093C1161 184.262 1162.56 184.932 1164.2 184.959C1164.28 184.96 1164.35 184.935 1164.41 184.889Z" fill="#A2BDFF"/>
<path d="M1264.54 184.76L1164.32 184.96C1162.8 184.959 1161.34 184.409 1160.2 183.413C1159.05 182.416 1158.31 181.039 1158.1 179.537C1158.07 179.281 1158.1 179.021 1158.19 178.779C1158.28 178.537 1158.43 178.321 1158.62 178.15L1213.29 129.79C1213.57 129.537 1213.94 129.397 1214.32 129.396C1214.7 129.396 1215.07 129.534 1215.36 129.785L1270.21 177.927C1270.41 178.097 1270.56 178.312 1270.65 178.554C1270.74 178.795 1270.77 179.056 1270.74 179.312C1270.54 180.815 1269.8 182.194 1268.66 183.195C1267.52 184.197 1266.06 184.752 1264.54 184.76Z" fill="#418DF9"/>
<path d="M1189.83 105.35C1191.78 105.35 1193.35 103.247 1193.35 100.652C1193.35 98.0577 1191.78 95.9543 1189.83 95.9543C1187.89 95.9543 1186.31 98.0577 1186.31 100.652C1186.31 103.247 1187.89 105.35 1189.83 105.35Z" fill="white"/>
<path d="M1239.16 105.35C1241.11 105.35 1242.68 103.247 1242.68 100.652C1242.68 98.0577 1241.11 95.9543 1239.16 95.9543C1237.21 95.9543 1235.64 98.0577 1235.64 100.652C1235.64 103.247 1237.21 105.35 1239.16 105.35Z" fill="white"/>
<path d="M1227.81 120.928C1227.69 120.928 1227.57 120.898 1227.47 120.84C1227.36 120.782 1227.28 120.699 1227.21 120.599C1227.18 120.54 1223.34 114.621 1214.44 113.879C1210.73 113.57 1207.21 114.602 1203.99 116.948C1202.55 117.981 1201.27 119.222 1200.19 120.63C1200.08 120.78 1199.92 120.883 1199.74 120.914C1199.56 120.946 1199.37 120.904 1199.22 120.798C1199.07 120.691 1198.96 120.53 1198.93 120.348C1198.9 120.166 1198.94 119.978 1199.05 119.826C1199.1 119.742 1200.51 117.752 1203.12 115.845C1206.59 113.311 1210.54 112.149 1214.55 112.483C1224.19 113.286 1228.23 119.589 1228.4 119.857C1228.47 119.963 1228.5 120.084 1228.51 120.209C1228.51 120.334 1228.48 120.458 1228.42 120.567C1228.36 120.676 1228.27 120.767 1228.16 120.831C1228.05 120.894 1227.93 120.928 1227.81 120.928L1227.81 120.928Z" fill="white"/>
<path d="M1613.46 58.0226C1613.46 58.0226 1584.09 95.2329 1537.08 73.038C1490.08 50.8431 1443.08 110.9 1483.55 147.458C1524.03 184.016 1484.42 204.104 1511.92 226.509C1543.17 251.973 1570.38 200.336 1595.19 212.087C1649.94 238.021 1690.5 227.754 1681.36 197.725C1665.31 145.012 1644.8 141.583 1660.47 114.165C1676.13 86.7464 1641.56 29.7371 1613.46 58.0226Z" fill="#DEE9FF"/>
<path d="M1563.27 174.775C1563.27 200.042 1583.76 220.522 1609.02 220.522C1614.91 220.532 1620.74 219.4 1626.19 217.187C1626.3 217.201 1626.41 217.207 1626.53 217.207H1646.55C1647.19 217.208 1647.83 217.081 1648.43 216.834C1649.02 216.588 1649.56 216.227 1650.02 215.771C1650.47 215.315 1650.84 214.774 1651.08 214.179C1651.33 213.584 1651.46 212.945 1651.45 212.301V191.894C1653.65 186.455 1654.78 180.641 1654.77 174.775C1654.77 149.507 1634.29 129.027 1609.02 129.027C1583.76 129.027 1563.27 149.507 1563.27 174.775Z" fill="#A2BDFF"/>
<path d="M1627.33 142.348C1627.33 174.047 1601.64 199.74 1569.94 199.74C1562.56 199.752 1555.25 198.331 1548.41 195.556C1548.27 195.573 1548.12 195.581 1547.98 195.581H1522.86C1522.05 195.581 1521.25 195.423 1520.51 195.113C1519.76 194.804 1519.08 194.351 1518.51 193.779C1517.94 193.208 1517.48 192.529 1517.18 191.782C1516.87 191.035 1516.71 190.234 1516.71 189.426V163.824C1513.95 157.001 1512.54 149.708 1512.55 142.348C1512.55 110.649 1538.24 84.9558 1569.94 84.9558C1601.64 84.9558 1627.33 110.649 1627.33 142.348Z" fill="#418DF9"/>
<path d="M1543.32 153.992C1547.92 153.992 1551.64 150.268 1551.64 145.675C1551.64 141.081 1547.92 137.357 1543.32 137.357C1538.73 137.357 1535.01 141.081 1535.01 145.675C1535.01 150.268 1538.73 153.992 1543.32 153.992Z" fill="white"/>
<path d="M1567.45 153.992C1572.04 153.992 1575.76 150.268 1575.76 145.675C1575.76 141.081 1572.04 137.357 1567.45 137.357C1562.85 137.357 1559.13 141.081 1559.13 145.675C1559.13 150.268 1562.85 153.992 1567.45 153.992Z" fill="white"/>
<path d="M1592.4 153.992C1596.99 153.992 1600.72 150.268 1600.72 145.675C1600.72 141.081 1596.99 137.357 1592.4 137.357C1587.81 137.357 1584.08 141.081 1584.08 145.675C1584.08 150.268 1587.81 153.992 1592.4 153.992Z" fill="white"/>
<path d="M1618.18 114.899C1626.45 114.899 1633.16 108.196 1633.16 99.9272C1633.16 91.6585 1626.45 84.9553 1618.18 84.9553C1609.91 84.9553 1603.21 91.6585 1603.21 99.9272C1603.21 108.196 1609.91 114.899 1618.18 114.899Z" fill="#418DF9" stroke="white" stroke-width="15" stroke-miterlimit="10"/>
<path d="M1622.94 95.4898C1622.75 94.7284 1622.39 94.0165 1621.9 93.3996C1621.47 92.8799 1620.91 92.4813 1620.28 92.2431C1618.92 91.773 1617.44 91.773 1616.08 92.2431C1615.45 92.4798 1614.89 92.8788 1614.46 93.3996C1613.97 94.0136 1613.62 94.7265 1613.42 95.4898C1613.16 96.5179 1613.04 97.5767 1613.06 98.6376V101.161C1613.04 102.224 1613.16 103.285 1613.43 104.315C1613.63 105.084 1613.98 105.803 1614.48 106.424C1614.91 106.949 1615.46 107.353 1616.1 107.599C1617.45 108.085 1618.93 108.085 1620.29 107.599C1620.92 107.353 1621.47 106.948 1621.9 106.424C1622.38 105.8 1622.74 105.082 1622.93 104.315C1623.19 103.285 1623.31 102.224 1623.29 101.161H1623.31V98.6376C1623.33 97.5767 1623.2 96.5179 1622.94 95.4898ZM1620.69 101.538C1620.69 102.211 1620.64 102.884 1620.52 103.548C1620.45 104.02 1620.29 104.474 1620.05 104.89C1619.87 105.21 1619.6 105.472 1619.27 105.644C1618.93 105.806 1618.57 105.886 1618.19 105.879C1617.82 105.885 1617.45 105.804 1617.12 105.644C1616.79 105.471 1616.51 105.21 1616.32 104.89C1616.08 104.475 1615.91 104.021 1615.82 103.548C1615.7 102.885 1615.64 102.212 1615.65 101.538V98.2356C1615.64 97.5638 1615.7 96.8927 1615.82 96.2319C1615.9 95.7687 1616.06 95.3243 1616.31 94.9208C1616.5 94.6125 1616.77 94.364 1617.1 94.2035C1617.44 94.0567 1617.8 93.9809 1618.17 93.9809C1618.54 93.9809 1618.9 94.0567 1619.24 94.2035C1619.57 94.3601 1619.84 94.6095 1620.03 94.9208C1620.27 95.3244 1620.44 95.7687 1620.52 96.2319C1620.64 96.8926 1620.7 97.5638 1620.68 98.2356V101.538L1620.69 101.538Z" fill="white"/>
</svg>
