<svg width="153" height="158" viewBox="0 0 153 158" fill="none" xmlns="http://www.w3.org/2000/svg">
<path d="M60.3218 72.995L93.4882 72.3356L93.701 80.4132L60.6258 81.2453L60.3218 72.995Z" fill="#81F8F8"/>
<path d="M27.3301 48.9033V55.2069H75.3621V48.9033H27.3301Z" fill="#81F8F8"/>
<path d="M124.572 48.8798H76.9504L76.8896 55.1598H124.648L124.572 48.8798ZM100.944 52.1218C100.953 51.6992 101.124 51.2976 101.42 51.0053C101.715 50.7131 102.111 50.5542 102.521 50.5636C102.93 50.573 103.319 50.7498 103.602 51.0553C103.884 51.3608 104.038 51.7698 104.029 52.1925C104.02 52.6151 103.849 53.0167 103.553 53.3089C103.407 53.4536 103.234 53.5671 103.045 53.6429C102.856 53.7187 102.655 53.7553 102.452 53.7507C102.043 53.7413 101.654 53.5644 101.371 53.259C101.088 52.9535 100.935 52.5444 100.944 52.1218ZM107.282 52.1218C107.287 51.9125 107.331 51.7062 107.413 51.5147C107.494 51.3231 107.612 51.15 107.758 51.0053C107.905 50.8607 108.077 50.7472 108.266 50.6714C108.455 50.5956 108.656 50.5589 108.859 50.5636C109.062 50.5682 109.261 50.614 109.447 50.6984C109.632 50.7828 109.8 50.904 109.94 51.0553C110.08 51.2066 110.19 51.3848 110.263 51.5799C110.337 51.7751 110.372 51.9832 110.368 52.1925C110.359 52.6151 110.187 53.0167 109.892 53.3089C109.596 53.6011 109.2 53.7601 108.791 53.7507C108.381 53.7413 107.993 53.5644 107.71 53.259C107.427 52.9535 107.273 52.5444 107.282 52.1218ZM113.62 52.1218C113.625 51.9125 113.669 51.7062 113.751 51.5147C113.833 51.3231 113.95 51.15 114.097 51.0053C114.243 50.8607 114.416 50.7472 114.604 50.6714C114.793 50.5956 114.995 50.5589 115.197 50.5636C115.4 50.5682 115.6 50.614 115.785 50.6984C115.971 50.7828 116.138 50.904 116.278 51.0553C116.418 51.2066 116.528 51.3848 116.602 51.5799C116.675 51.7751 116.711 51.9832 116.706 52.1925C116.697 52.6151 116.526 53.0167 116.23 53.3089C115.934 53.6011 115.538 53.7601 115.129 53.7507C114.72 53.7413 114.331 53.5644 114.048 53.259C113.765 52.9535 113.611 52.5444 113.62 52.1218Z" fill="#81F8F8"/>
<path d="M148.474 136.486L128.714 116.217V44.7821H76.8898C76.8898 46.1559 76.8898 47.4904 76.9506 48.8641C85.3106 48.7778 122.193 48.8641 124.61 48.8641V111.845H27.3302V48.9034H75.3622V44.7821H23.0742V116.217L4.07422 135.944V139.814C4.20854 140.312 4.47124 140.762 4.83422 141.117C5.39972 141.612 6.1323 141.855 6.87102 141.792H145.518C146.468 141.668 147.335 141.167 147.935 140.395C148.261 139.937 148.456 139.393 148.497 138.825C148.474 138.071 148.474 137.279 148.474 136.486ZM51.3766 136.407L54.8802 128.259H98.2686L100.777 136.407H51.3766ZM20.0342 127.176L29.1542 117.693H124.542L132.469 127.176H20.0342Z" fill="#FFD997"/>
<path d="M104.257 52.0905C104.254 51.8492 104.205 51.611 104.113 51.3893C104.021 51.1676 103.888 50.9668 103.72 50.7984C103.553 50.6301 103.355 50.4974 103.138 50.4079C102.922 50.3185 102.69 50.274 102.456 50.2771C102.01 50.2801 101.582 50.4575 101.258 50.7736C100.933 51.0897 100.737 51.521 100.708 51.9806C100.594 54.5397 104.295 54.6182 104.257 52.0905ZM101.172 52.0198C101.194 51.8086 101.263 51.6056 101.375 51.4274C101.487 51.2493 101.638 51.1009 101.816 50.9944C101.994 50.8879 102.194 50.8263 102.399 50.8145C102.605 50.8028 102.81 50.8412 102.998 50.9268C103.186 51.0123 103.352 51.1426 103.483 51.3069C103.613 51.4712 103.704 51.665 103.748 51.8724C103.792 52.0799 103.789 52.2952 103.737 52.5009C103.686 52.7065 103.588 52.8967 103.452 53.056C103.266 53.2656 103.022 53.4099 102.753 53.4685C102.484 53.527 102.204 53.497 101.952 53.3827C101.7 53.2683 101.49 53.0753 101.35 52.8308C101.21 52.5864 101.147 52.3027 101.172 52.0198Z" fill="black"/>
<path d="M110.596 52.0904C110.61 51.6032 110.436 51.1302 110.112 50.7754C109.789 50.4207 109.342 50.2132 108.87 50.1986C108.399 50.184 107.941 50.3636 107.597 50.6977C107.254 51.0319 107.053 51.4933 107.039 51.9805C106.894 54.5396 110.634 54.6181 110.596 52.0904ZM107.51 52.0198C107.529 51.681 107.673 51.3625 107.911 51.1292C108.15 50.8958 108.466 50.7652 108.794 50.7638C109.058 50.7597 109.316 50.8378 109.535 50.9879C109.755 51.1379 109.925 51.353 110.025 51.6048C110.124 51.8567 110.147 52.1336 110.092 52.3994C110.036 52.6652 109.904 52.9074 109.713 53.0943C109.522 53.2813 109.28 53.4042 109.02 53.4471C108.76 53.49 108.494 53.4508 108.256 53.3347C108.018 53.2186 107.819 53.0309 107.686 52.7963C107.553 52.5617 107.492 52.291 107.51 52.0198Z" fill="black"/>
<path d="M116.934 52.0904C116.932 51.793 116.86 51.5004 116.725 51.238C116.589 50.9756 116.394 50.751 116.156 50.5837C115.918 50.4164 115.644 50.3114 115.358 50.2775C115.072 50.2437 114.782 50.2822 114.514 50.3896C114.245 50.497 114.006 50.6702 113.816 50.8942C113.627 51.1182 113.493 51.3864 113.426 51.6757C113.359 51.965 113.361 52.2668 113.432 52.5551C113.503 52.8433 113.641 53.1095 113.833 53.3307C114.076 53.6036 114.393 53.7946 114.743 53.8788C115.092 53.963 115.458 53.9364 115.793 53.8025C116.128 53.6686 116.416 53.4336 116.619 53.1282C116.823 52.8228 116.933 52.4612 116.934 52.0904ZM113.849 52.0197C113.868 51.681 114.011 51.3625 114.25 51.1292C114.489 50.8958 114.804 50.7652 115.133 50.7638C115.463 50.7898 115.772 50.9437 115.997 51.1948C116.223 51.4459 116.348 51.7756 116.348 52.1179C116.348 52.4602 116.223 52.7899 115.997 53.041C115.772 53.292 115.463 53.446 115.133 53.472C114.955 53.4671 114.78 53.4252 114.619 53.3489C114.457 53.2726 114.312 53.1634 114.192 53.0278C114.072 52.8923 113.98 52.7331 113.921 52.5599C113.862 52.3867 113.837 52.203 113.849 52.0197Z" fill="black"/>
<path d="M99.2257 71.9196L108.581 73.835L108.969 73.5524C109.017 73.5174 109.051 73.4648 109.064 73.4052C109.077 73.3456 109.067 73.2833 109.037 73.2305L108.194 71.8097C112.26 70.4438 112.07 70.5223 112.153 70.4595C112.237 70.3967 112.313 70.4595 111.173 67.0369C111.162 67.0032 111.144 66.9724 111.121 66.9466C111.097 66.9209 111.068 66.9008 111.036 66.8877L110.132 66.5345C110.041 66.5345 110.261 66.456 106.978 67.3823L107.031 65.9693C107.032 65.9132 107.015 65.8584 106.982 65.814C106.948 65.7697 106.901 65.7386 106.849 65.7259L105.914 65.4747C105.762 65.4747 106.165 65.1372 98.899 71.1817C98.8598 71.2503 98.8372 71.3277 98.8332 71.4073C98.8292 71.4868 98.8438 71.5662 98.8759 71.6387C98.908 71.7112 98.9566 71.7745 99.0175 71.8235C99.0784 71.8724 99.1498 71.9053 99.2257 71.9196ZM110.975 67.2802L111.789 69.8236L111.15 69.596L110.329 67.029L110.975 67.2802ZM106.089 66.0085L106.56 66.1184L106.514 67.4843L106.02 67.6178L106.089 66.0085ZM105.61 66.2283L105.541 67.9318C105.54 67.9698 105.547 68.0075 105.563 68.0421C105.578 68.0766 105.601 68.1069 105.63 68.1306C105.659 68.1542 105.693 68.1706 105.729 68.1783C105.765 68.186 105.802 68.185 105.838 68.1751L109.927 67.0212L110.869 69.6509L106.674 71.0639C106.616 71.0771 106.565 71.1132 106.532 71.1646C106.5 71.2159 106.488 71.2784 106.499 71.3387C106.499 71.4486 106.499 71.3387 107.419 72.6496L99.621 71.2288L105.61 66.2283Z" fill="black"/>
<path d="M56.8711 69.7294C56.9116 69.7299 56.9515 69.7196 56.987 69.6995C57.0225 69.6794 57.0524 69.6502 57.0738 69.6147C57.0951 69.5792 57.1073 69.5386 57.1091 69.4968C57.1109 69.455 57.1022 69.4135 57.0839 69.3762L53.0179 61.6832C52.998 61.6437 52.968 61.6106 52.9312 61.5875C52.8943 61.5644 52.852 61.5522 52.8089 61.5522C52.7658 61.5522 52.7235 61.5644 52.6867 61.5875C52.6498 61.6106 52.6198 61.6437 52.5999 61.6832L51.8399 63.3709C47.9639 60.435 48.3439 60.6941 48.1919 60.6863H47.1659C47.1289 60.6877 47.0927 60.6976 47.0598 60.7153C47.027 60.7329 46.9983 60.7579 46.9759 60.7883L45.2127 63.3239C45.0303 63.5908 45.0531 63.4887 48.6479 66.4639L47.2723 67.5707C47.236 67.6008 47.2091 67.6414 47.195 67.6873C47.181 67.7332 47.1805 67.7823 47.1935 67.8285C47.2065 67.8747 47.2325 67.9159 47.2682 67.9469C47.3038 67.9779 47.3476 67.9972 47.3939 68.0025L55.9439 69.9964L56.8711 69.7294ZM45.8739 63.1747L47.2723 61.1729H47.7131L46.1931 63.1433L45.8739 63.1747ZM49.1267 67.5315C50.3123 66.6837 50.2591 66.7464 50.3047 66.6444C50.3238 66.5885 50.3238 66.5276 50.3047 66.4717C50.3047 66.3775 50.5251 66.613 46.6263 63.3317L48.2299 61.2515C52.0299 64.156 51.8095 64.0068 51.9615 63.9676C51.9948 63.9581 52.0256 63.9413 52.0519 63.9183C52.0781 63.8952 52.0992 63.8665 52.1135 63.8341L52.8051 62.3112L56.3999 69.125L49.1267 67.5315Z" fill="black"/>
<path d="M48.7317 86.073C48.7189 86.0295 48.6941 85.9908 48.6603 85.9615C48.6266 85.9323 48.5854 85.9137 48.5417 85.9081L40.1817 84.8248C40.1367 84.8184 40.0908 84.8255 40.0496 84.8454C40.0083 84.8653 39.9736 84.897 39.9495 84.9369C39.9254 84.9767 39.9129 85.0229 39.9137 85.0699C39.9144 85.1169 39.9284 85.1626 39.9537 85.2016L40.9569 86.8187C36.6781 88.2317 36.7997 88.1689 36.7237 88.2239C36.6477 88.2788 36.6325 88.3181 36.0473 89.2679C36.0322 89.3025 36.0244 89.3399 36.0244 89.3778C36.0244 89.4157 36.0322 89.4532 36.0473 89.4877C37.2557 92.6277 37.1797 92.5021 37.2329 92.5806C37.2637 92.6186 37.3047 92.6462 37.3507 92.6602C37.3966 92.6742 37.4456 92.6738 37.4913 92.6591L41.5269 91.2461V93.2479C41.5269 93.2798 41.533 93.3115 41.5449 93.341C41.5567 93.3705 41.5741 93.3974 41.5959 93.42C41.6178 93.4426 41.6438 93.4605 41.6724 93.4727C41.701 93.4849 41.7316 93.4912 41.7625 93.4912C41.8765 93.4912 41.4281 93.868 48.5569 87.2662C48.7317 86.7245 48.8533 86.4498 48.7317 86.073ZM37.4305 91.9212L36.4805 89.4249L36.7769 88.9461L37.7725 91.4345L37.4305 91.9212ZM42.5985 91.4973C42.5225 90.1393 42.5225 89.9744 42.5073 89.9273C42.4945 89.8838 42.4697 89.8451 42.436 89.8159C42.4022 89.7866 42.361 89.7681 42.3173 89.7625C42.2261 89.7625 42.4389 89.6918 38.1753 91.1441L37.1341 88.5771L41.3673 87.1798C41.4017 87.1687 41.4331 87.1496 41.4591 87.124C41.4852 87.0983 41.5052 87.0669 41.5177 87.032C41.5302 86.9972 41.5348 86.9598 41.5311 86.9228C41.5274 86.8859 41.5156 86.8503 41.4965 86.8187L40.5921 85.3743L47.9793 86.3242L42.5985 91.4973Z" fill="black"/>
<path d="M65.2159 96.7726C65.2072 96.7373 65.1909 96.7045 65.1683 96.6766C65.1457 96.6487 65.1172 96.6264 65.0852 96.6113C65.0531 96.5962 65.0181 96.5888 64.9829 96.5895C64.9476 96.5903 64.913 96.5992 64.8815 96.6156L57.1143 100.541C57.0758 100.56 57.0433 100.59 57.0205 100.627C56.9978 100.665 56.9857 100.708 56.9857 100.753C56.9857 100.797 56.9978 100.84 57.0205 100.878C57.0433 100.915 57.0758 100.945 57.1143 100.964L58.8471 101.922C55.8071 105.667 56.0503 105.29 56.0351 105.439C56.0199 105.588 56.0351 105.902 55.9819 106.703C55.9822 106.742 55.9913 106.781 56.0084 106.817C56.0255 106.852 56.0503 106.883 56.0807 106.907C58.8547 108.932 58.6571 108.799 58.7483 108.807C58.8395 108.814 58.7483 108.924 61.6971 105.329L62.7003 106.758C62.7268 106.799 62.7652 106.831 62.8102 106.848C62.8551 106.866 62.9043 106.868 62.9506 106.855C62.997 106.842 63.0381 106.814 63.0682 106.776C63.0984 106.737 63.1159 106.69 63.1183 106.64L65.3983 98.6252C65.3147 97.6361 65.2311 96.8589 65.2159 96.7726ZM58.5431 108.108L56.4455 106.585V105.902L58.5355 107.519L58.5431 108.108ZM62.7383 104.866C62.7383 104.866 62.1607 104.002 61.9783 103.72C61.7959 103.437 61.6971 103.508 61.5755 103.626C61.3475 103.861 60.7547 104.63 58.7863 107.072L56.6127 105.392L59.4019 102.001C59.4241 101.973 59.4401 101.941 59.4488 101.906C59.4574 101.871 59.4585 101.835 59.452 101.8C59.4455 101.764 59.4314 101.731 59.411 101.702C59.3905 101.673 59.364 101.649 59.3335 101.632L57.7451 100.76L64.6459 97.275L62.7383 104.866Z" fill="black"/>
<path d="M84.8087 88.9933C84.7816 88.9567 84.7452 88.9284 84.7036 88.9117C84.6619 88.895 84.6167 88.8905 84.5727 88.8986C84.5288 88.9067 84.4878 88.9271 84.4544 88.9577C84.4209 88.9882 84.3962 89.0277 84.3831 89.0718C81.7231 99.4338 82.1867 97.7068 81.7231 99.1512C81.7098 99.1963 81.7095 99.2445 81.7222 99.2898C81.735 99.3351 81.7602 99.3757 81.7948 99.4064C81.8295 99.4372 81.872 99.4569 81.9173 99.4632C81.9626 99.4694 82.0086 99.4619 82.0499 99.4416L83.5167 98.6566C84.7403 102.699 84.7023 102.644 84.7631 102.731C84.7851 102.761 84.8138 102.786 84.8469 102.802C84.88 102.818 84.9164 102.826 84.9531 102.825C85.0291 102.825 85.2419 102.778 87.9323 102.205C87.9707 102.198 88.0066 102.181 88.0361 102.154C88.0656 102.128 88.0875 102.094 88.0995 102.056L88.5023 100.972C88.5023 100.862 88.5023 101.074 87.9019 97.5027L89.2471 97.7146C89.2936 97.7133 89.3388 97.6987 89.3778 97.6724C89.4167 97.646 89.4478 97.609 89.4675 97.5655C89.7411 96.8276 89.8247 96.6627 89.8323 96.5842C89.8399 96.5057 90.0755 96.8825 84.8087 88.9933ZM87.7119 101.789L85.3103 102.299L85.4547 101.883L87.8943 101.279L87.7119 101.789ZM88.0007 100.76L85.4471 101.388L84.3831 97.0238C84.2539 96.6706 84.0107 96.9139 82.6427 97.6911L84.7099 89.6998L89.0951 96.2467L87.4611 95.9641C87.4242 95.9586 87.3866 95.9621 87.3514 95.9745C87.3161 95.9869 87.2842 96.0077 87.2583 96.0353C87.2323 96.0629 87.213 96.0964 87.2021 96.1331C87.1911 96.1699 87.1887 96.2088 87.1951 96.2467L88.0007 100.76ZM89.0951 97.2358L87.8107 97.0317L87.7195 96.4979L89.2395 96.7726L89.0951 97.2358Z" fill="black"/>
<path d="M112.214 95.4303C112.214 95.344 112.412 95.5088 109.174 93.4992L110.254 92.5808C110.292 92.5453 110.319 92.4981 110.33 92.4458C110.341 92.3936 110.336 92.3391 110.314 92.2903L109.957 91.5053C109.874 91.3248 110.466 91.4582 100.944 90.2729C100.906 90.2693 100.869 90.275 100.834 90.2894C100.8 90.3038 100.769 90.3265 100.744 90.3556C100.72 90.3848 100.702 90.4195 100.693 90.457C100.684 90.4945 100.684 90.5336 100.693 90.5712V91.0108L106.066 99.1669C106.085 99.2085 106.115 99.2436 106.153 99.2682C106.191 99.2928 106.234 99.3058 106.279 99.3058C106.323 99.3058 106.367 99.2928 106.405 99.2682C106.442 99.2436 106.473 99.2085 106.492 99.1669L107.252 97.5498C110.945 99.5437 110.74 99.4966 110.907 99.4024C111.074 99.3082 110.907 99.4024 112.564 96.5921C112.581 96.5581 112.589 96.5204 112.589 96.4822C112.589 96.444 112.581 96.4064 112.564 96.3723C112.564 96.3723 112.23 95.4617 112.214 95.4303ZM109.934 92.4316L108.893 93.3187L108.316 92.9811L109.615 91.8429L109.934 92.4316ZM110.504 97.9266C108.042 96.545 107.145 96.0191 106.796 95.8464C106.446 95.6737 106.385 95.8464 106.362 95.9484L106.013 97.3614L101.453 90.8067L109.22 91.7644L107.928 92.9183C107.9 92.9419 107.876 92.9717 107.861 93.0057C107.845 93.0397 107.837 93.0769 107.837 93.1146C107.837 93.1523 107.845 93.1895 107.861 93.2235C107.876 93.2574 107.9 93.2873 107.928 93.3108L111.728 95.6658L110.504 97.9266ZM110.953 98.7509L110.763 98.115L111.971 95.9249L112.237 96.5607L110.953 98.7509Z" fill="black"/>
<path d="M148.527 136.242C142.257 129.962 136.527 123.266 128.927 116.115C128.972 41.54 128.927 44.68 128.843 44.6015C128.798 44.5567 128.739 44.5314 128.676 44.5309C124.321 44.6251 82.1337 44.4759 77.1101 44.5309C77.1101 44.1462 76.9961 17.1501 76.9885 15.9804C76.9885 15.9159 76.9637 15.854 76.9195 15.8083C76.8753 15.7627 76.8154 15.7371 76.7529 15.7371C76.7223 15.737 76.692 15.7434 76.6638 15.7557C76.6357 15.768 76.6102 15.7861 76.5889 15.8088C76.5676 15.8315 76.551 15.8584 76.54 15.8879C76.529 15.9174 76.5239 15.9488 76.5249 15.9804V18.0057C75.4685 16.9146 75.5141 16.946 75.4381 16.9224V15.9883C75.4282 15.9322 75.3996 15.8815 75.3572 15.845C75.3149 15.8084 75.2615 15.7884 75.2063 15.7884C75.1511 15.7884 75.0977 15.8084 75.0553 15.845C75.013 15.8815 74.9844 15.9322 74.9745 15.9883C74.8377 22.9434 74.9745 27.3394 75.0885 44.5466C68.1269 44.5858 25.7341 44.5466 23.0133 44.5466C22.9528 44.5466 22.8948 44.5714 22.8521 44.6155C22.8093 44.6597 22.7853 44.7196 22.7853 44.7821C22.7093 49.2409 22.7853 111.374 22.7853 116.139C14.2505 125.3 11.5601 127.089 3.96009 135.764C3.91819 135.789 3.88576 135.829 3.86788 135.876C3.85 135.923 3.84768 135.974 3.86129 136.023V139.696C3.86129 141.314 5.70809 142.051 7.03809 142.051H145.358C146.184 142.071 146.987 141.766 147.603 141.197C148.22 140.629 148.604 139.84 148.679 138.99C148.679 136.109 148.732 136.447 148.527 136.242ZM77.1253 49.1074H124.412V54.94C121.372 54.94 84.2921 55.042 77.1177 54.94C77.1253 53.0246 77.1253 51.0856 77.1253 49.1388V49.1074ZM124.412 55.3874V111.648H27.5657C27.5657 104.866 27.4517 56.9339 27.4669 55.3874C33.6989 55.3325 70.6045 55.4738 75.1189 55.3874V58.5274C74.7147 58.7025 74.3618 58.9837 74.0952 59.3431C73.8285 59.7025 73.6575 60.1276 73.5989 60.5763C73.5509 61.1936 73.7129 61.809 74.0569 62.3162C74.401 62.8235 74.9055 63.1909 75.4837 63.3552C75.4837 65.2235 75.4229 66.8563 75.4837 67.1075C75.6661 68.9208 76.6009 68.1123 77.0037 69.5253H72.9301C72.8455 68.7777 72.8201 68.0242 72.8541 67.2723C72.3829 68.0102 71.9649 68.756 71.5697 69.5253C67.5721 69.5253 63.4301 69.5802 59.0069 69.7137C56.7269 69.7765 56.2709 70.6871 56.2709 72.2492L56.7953 82.3757C56.7857 82.9221 56.9603 83.4549 57.2893 83.8829C57.761 84.5249 58.3606 85.0547 59.0476 85.4366C59.7347 85.8186 60.4931 86.0436 61.2717 86.0966L95.4717 85.5C97.3565 85.5 98.6029 84.6051 98.5117 83.145L97.8049 71.5506C97.7061 69.5017 95.3425 69.1406 93.4881 69.1956C88.1149 69.3997 83.1901 69.4389 78.1209 69.4546C78.062 69.1919 77.9536 68.9438 77.8017 68.7246C77.5053 68.3164 77.2393 68.2771 76.8289 67.7512C76.6287 67.5182 76.5226 67.2147 76.5325 66.9034C76.5325 66.6443 76.5325 65.5689 76.4489 63.363C77.0457 63.2965 77.6009 63.0157 78.0176 62.5695C78.4343 62.1233 78.686 61.54 78.7289 60.9217C78.7378 60.3877 78.5882 59.8637 78.3001 59.4202C78.0121 58.9767 77.5994 58.635 77.1177 58.4411V55.3011C92.8117 55.67 99.0209 55.5366 124.412 55.4502V55.3874ZM76.5325 27.5435C75.5141 26.5701 75.5141 26.5622 75.4229 26.5387V24.1837C76.1069 24.8902 76.4261 25.2434 76.5021 25.2984C76.4869 26.1226 76.4869 26.8605 76.4945 27.6063L76.5325 27.5435ZM76.5325 28.2264V29.7964L75.4381 28.8152V27.1824C76.0689 27.8496 76.4261 28.2421 76.5021 28.2892L76.5325 28.2264ZM76.1677 62.1777C75.9181 62.1681 75.6769 62.0823 75.4746 61.931C75.2722 61.7797 75.118 61.5698 75.0312 61.3279C74.9445 61.0859 74.9293 60.8229 74.9875 60.572C75.0456 60.3211 75.1746 60.0937 75.358 59.9186C75.5414 59.7435 75.771 59.6285 76.0177 59.5883C76.2644 59.5481 76.5171 59.5844 76.7438 59.6927C76.9705 59.8009 77.161 59.9763 77.2912 60.1964C77.4213 60.4166 77.4852 60.6718 77.4749 60.9295C77.4741 61.1075 77.4384 61.2834 77.37 61.4467C77.3016 61.61 77.2019 61.7573 77.0769 61.8798C76.952 62.0023 76.8043 62.0974 76.6428 62.1594C76.4813 62.2214 76.3094 62.2489 76.1373 62.2405L76.1677 62.1777ZM76.6845 53.5427L75.6281 52.5928V51.0464L76.6845 51.9648V53.5427ZM76.6845 54.1864V55.5366L75.5901 54.7123V53.315L76.6845 54.1864ZM76.6845 56.1646V57.295L75.5901 56.4629V55.3246L76.6845 56.1646ZM76.6845 57.923V58.4646C76.3369 58.3823 75.9757 58.3823 75.6281 58.4646V57.0909L76.6845 57.923ZM95.8441 71.5741L96.2697 80.6958C96.2697 82.3129 96.1557 83.2942 94.6281 83.302C88.5481 83.302 59.1893 83.8201 59.1893 83.8201C57.9049 83.8201 57.4185 83.8201 57.3121 82.3286L56.7801 72.2257C56.7801 70.8284 57.0993 70.2396 59.0601 70.1847C63.3921 70.0512 67.4201 70.012 71.3721 69.9963C71.1441 70.4673 70.9465 70.9147 70.7641 71.3543C71.0024 71.2265 71.259 71.139 71.5241 71.0953C71.4798 71.5753 71.5054 72.0596 71.6001 72.5318C67.9597 72.6103 64.2889 72.6653 60.3749 72.6653C60.3433 72.6652 60.312 72.6718 60.2829 72.6845C60.2538 72.6972 60.2275 72.7159 60.2055 72.7393C60.1836 72.7627 60.1664 72.7905 60.155 72.8209C60.1436 72.8514 60.1383 72.8839 60.1393 72.9165C60.2356 75.6744 60.3369 78.4245 60.4433 81.1668C60.4443 81.1988 60.4513 81.2302 60.4641 81.2594C60.4769 81.2885 60.495 81.3148 60.5176 81.3366C60.5402 81.3585 60.5668 81.3756 60.5957 81.3868C60.6247 81.3981 60.6555 81.4034 60.6865 81.4023C72.3753 81.1511 82.5441 81.0805 93.7617 80.5624C93.7923 80.5624 93.8226 80.556 93.8507 80.5437C93.8789 80.5314 93.9044 80.5133 93.9257 80.4906C93.9469 80.4679 93.9636 80.441 93.9746 80.4115C93.9856 80.3821 93.9907 80.3506 93.9897 80.319L93.7541 72.3356C93.7541 72.304 93.748 72.2727 93.736 72.2436C93.7241 72.2145 93.7066 72.1882 93.6846 72.1662C93.6627 72.1442 93.6366 72.127 93.6081 72.1157C93.5795 72.1043 93.5491 72.099 93.5185 72.1001L72.5425 72.5946C72.4314 72.1299 72.4082 71.6475 72.4741 71.1738C72.6864 71.2 72.891 71.2722 73.0745 71.3857C73.0745 70.9775 73.0289 70.5301 72.9909 70.0748C80.0057 70.0748 86.3289 70.0748 93.5109 69.8079C94.9853 69.7529 95.7301 70.3417 95.7985 71.6605L95.8441 71.5741ZM75.2253 75.4991C75.2009 75.665 75.1468 75.8247 75.0657 75.9701C75.0415 76.0257 75.0385 76.0887 75.0571 76.1465C75.0757 76.2043 75.1147 76.2528 75.1662 76.2824C75.2178 76.312 75.2783 76.3206 75.3356 76.3063C75.393 76.2921 75.4431 76.2562 75.4761 76.2056C75.6651 75.8621 75.7413 75.4646 75.6933 75.0727C75.6454 74.6807 75.4758 74.3153 75.2101 74.0312C75.1652 73.9942 75.1087 73.9755 75.0514 73.9785C74.994 73.9815 74.9397 74.006 74.8986 74.0475C74.8575 74.0889 74.8325 74.1444 74.8283 74.2036C74.8241 74.2628 74.8409 74.3215 74.8757 74.3687C74.9813 74.4801 75.0663 74.6104 75.1265 74.7534C74.6093 74.7237 74.1109 74.5427 73.6897 74.2313C73.2684 73.9199 72.9417 73.4911 72.7477 72.995C75.0885 72.94 88.6089 72.5711 93.3057 72.5083L93.5109 80.0992C82.5137 80.5938 72.4361 80.4289 60.8993 80.8842C60.7929 78.3016 60.7017 75.7111 60.6105 73.1284C64.4789 73.1284 68.1117 73.0735 71.7141 72.9871C71.9063 73.7699 72.3586 74.4581 72.992 74.9316C73.6254 75.405 74.3997 75.6337 75.1797 75.5776L75.2253 75.4991ZM76.6997 51.2583L75.6433 50.332V48.5736L76.7073 49.6726L76.6997 51.2583ZM76.6997 48.9897L75.6357 47.8907V45.7398L76.7073 46.7132C76.6541 47.5531 76.6541 48.3067 76.6541 49.0446L76.6997 48.9897ZM76.6997 46.0695L75.6281 45.0961V42.5919L76.7073 43.5104C76.6389 44.4445 76.6465 45.3002 76.6465 46.148L76.6997 46.0695ZM76.6997 42.8824L75.6205 41.9561V40.3076L76.7073 41.2182C76.6237 41.8462 76.6313 42.3878 76.6313 42.9609L76.6997 42.8824ZM76.6997 38.4314V40.5902L75.5141 39.7581V37.4031L76.6997 38.4314ZM76.6997 37.7642C75.9397 36.9792 75.6737 36.7358 75.5977 36.6887V34.9774C76.2817 35.5976 76.6161 35.9273 76.6997 35.9665C76.5857 36.6966 76.5857 37.2696 76.5933 37.8427L76.6997 37.7642ZM76.6997 35.3307C76.0157 34.7027 75.6813 34.373 75.6053 34.3337V31.9787L76.6921 32.9914C76.5477 33.4545 76.5629 34.6556 76.5705 35.4092L76.6997 35.3307ZM76.6997 32.3398L75.6129 31.3193V29.4039L76.6921 30.4637L76.6997 32.3398ZM75.4305 17.5583C76.4717 18.6337 76.4109 18.6023 76.5249 18.6102V20.1802C75.5445 19.0184 75.5749 19.0027 75.4229 19.0105C75.4153 18.5317 75.4229 18.045 75.4305 17.5583ZM75.4305 19.6071C76.4641 20.8317 76.4185 20.8082 76.5325 20.8317V22.4017C75.4989 21.2242 75.5521 21.2478 75.4305 21.2242C75.4001 20.714 75.4077 20.1645 75.4077 19.6071H75.4305ZM76.4717 23.0847C76.5477 23.1632 76.5249 22.9198 76.5173 24.6547C76.1722 24.263 75.8069 23.8909 75.4229 23.54V21.8915L76.4717 23.0847ZM75.1265 54.9714C69.0465 55.0813 33.7065 54.9164 27.4745 54.9714C27.4745 53.0089 27.5024 51.0621 27.5581 49.131C32.5209 49.2173 68.8793 49.1938 75.1265 49.131V54.9714ZM23.2641 45.0176C26.0685 45.0176 68.1421 45.0647 75.1037 45.0176V48.6364C68.8565 48.6992 32.3537 48.7149 27.3149 48.6364C27.2837 48.6353 27.2526 48.6409 27.2235 48.6527C27.1944 48.6645 27.168 48.6824 27.1459 48.7053C27.1238 48.7281 27.1065 48.7553 27.0951 48.7854C27.0836 48.8154 27.0782 48.8475 27.0793 48.8798C27.0185 52.5536 27.0793 105.086 27.0793 111.947C27.0793 112.011 27.1041 112.073 27.1483 112.119C27.1925 112.164 27.2524 112.19 27.3149 112.19H124.633C124.823 112.19 124.83 112.19 124.838 111.986C124.891 110.942 124.838 103.304 124.838 48.9269C124.838 48.8623 124.813 48.8004 124.769 48.7548C124.725 48.7092 124.665 48.6835 124.602 48.6835H77.1253V45.0333C82.1489 44.9783 124.177 45.1353 128.463 45.0333C128.516 52.2396 128.463 115.989 128.463 115.989H23.2641C23.0741 68.7874 23.0057 61.2828 23.2641 45.0176ZM23.1425 116.453H128.6C136.747 124.114 138.48 126.83 148.162 136.533C147.684 137.491 146.772 138.017 145.312 138.04H10.1541C7.91209 138.04 5.25969 137.867 4.36289 135.991C11.9173 127.411 14.6457 125.582 23.1425 116.46V116.453ZM148.216 138.943C148.141 139.665 147.806 140.332 147.276 140.809C146.746 141.286 146.061 141.54 145.358 141.518H7.04569C5.91329 141.518 4.33249 140.976 4.33249 139.673V136.815C5.59409 138.378 8.04889 138.535 10.1541 138.535H145.312C145.852 138.569 146.393 138.479 146.895 138.271C147.397 138.063 147.848 137.743 148.216 137.334V138.943Z" fill="black"/>
<path d="M100.26 134.052C99.6212 131.925 99.4312 130.849 98.4812 128.173C98.4666 128.126 98.438 128.086 98.3997 128.058C98.3615 128.03 98.3154 128.015 98.2684 128.016C89.2776 127.835 83.8284 127.874 75.894 127.945C72.9072 127.945 54.8724 128.016 54.8724 128.016C54.8295 128.016 54.7875 128.028 54.7512 128.052C54.7149 128.075 54.6857 128.109 54.6672 128.149C53.474 130.622 52.296 133.33 51.156 136.313C51.1424 136.35 51.1377 136.39 51.1423 136.429C51.1469 136.468 51.1607 136.505 51.1824 136.538C51.204 136.57 51.233 136.597 51.2668 136.615C51.3006 136.633 51.3382 136.643 51.3764 136.643C58.034 136.486 99.4844 136.643 100.776 136.643C100.936 136.643 101.058 136.517 100.959 136.211C100.86 135.905 100.662 135.395 100.26 134.052ZM51.7184 136.18C52.828 133.307 53.9224 130.818 55.0168 128.534H98.1012C99.2184 131.729 99.2716 132.718 100.442 136.195C92.12 136.18 58.034 135.999 51.7184 136.18Z" fill="black"/>
<path d="M20.0337 127.372C34.5877 127.443 132.514 127.458 132.514 127.458C132.56 127.46 132.605 127.447 132.644 127.422C132.684 127.397 132.715 127.36 132.734 127.317C132.856 127.034 132.673 127.199 129.816 123.573C128.23 121.442 126.541 119.396 124.754 117.442C124.71 117.394 124.65 117.366 124.587 117.363C124.496 117.363 29.1841 117.481 29.0625 117.599C25.7869 120.739 22.7165 123.926 19.8893 126.956C19.86 126.99 19.8401 127.031 19.8317 127.075C19.8233 127.12 19.8266 127.166 19.8414 127.208C19.8562 127.251 19.8819 127.289 19.9157 127.317C19.9496 127.346 19.9903 127.365 20.0337 127.372ZM29.2905 118.023C40.4701 118.023 118.096 117.85 124.465 117.85C127.604 121.241 128.47 122.866 131.974 126.979C127.186 126.979 36.2141 126.979 20.5809 126.885C23.2181 124.036 26.1669 121.029 29.2601 118.023H29.2905Z" fill="black"/>
<path d="M70.4827 125.88C70.4772 125.916 70.4791 125.951 70.4885 125.986C70.4978 126.02 70.5143 126.052 70.5367 126.078C70.5592 126.105 70.5871 126.127 70.6184 126.142C70.6498 126.156 70.6839 126.163 70.7183 126.163C70.7726 126.164 70.8257 126.147 70.8686 126.112C70.9116 126.078 70.9417 126.029 70.9539 125.975C70.9995 125.7 71.0527 125.425 71.0983 125.15H82.7871C82.7871 125.417 82.7871 125.676 82.8327 125.935C82.8426 125.991 82.8712 126.042 82.9136 126.079C82.9559 126.115 83.0094 126.135 83.0645 126.135C83.1197 126.135 83.1731 126.115 83.2155 126.079C83.2579 126.042 83.2865 125.991 83.2963 125.935V125.15L96.5659 125.205C96.6571 125.559 96.7331 125.912 96.8091 126.265C96.8145 126.296 96.826 126.326 96.8429 126.353C96.8597 126.379 96.8815 126.402 96.9071 126.419C96.9326 126.437 96.9614 126.449 96.9915 126.455C97.0217 126.461 97.0527 126.46 97.0827 126.453C97.1434 126.438 97.1962 126.4 97.2301 126.346C97.2641 126.292 97.2766 126.226 97.2651 126.163C97.1967 125.849 97.1283 125.527 97.0523 125.213C102.626 125.245 108.389 125.292 114.342 125.354L114.715 126.296C114.738 126.355 114.783 126.402 114.84 126.427C114.897 126.452 114.961 126.453 115.019 126.43C115.076 126.406 115.121 126.359 115.146 126.3C115.17 126.241 115.171 126.175 115.148 126.116L114.852 125.331C119.412 125.378 128.874 125.504 128.874 125.504C128.935 125.502 128.993 125.475 129.035 125.43C129.078 125.384 129.102 125.323 129.102 125.26C129.103 125.229 129.097 125.197 129.086 125.168C129.075 125.138 129.059 125.111 129.038 125.089C129.016 125.066 128.991 125.048 128.963 125.036C128.934 125.023 128.904 125.017 128.874 125.017L114.662 124.844L114.099 123.478H127.308C127.37 123.478 127.43 123.453 127.475 123.407C127.519 123.361 127.544 123.299 127.544 123.235C127.544 123.17 127.519 123.109 127.475 123.063C127.43 123.017 127.37 122.992 127.308 122.992H113.848C113.712 122.67 113.21 121.516 113.088 121.272L125.446 121.131C125.508 121.131 125.568 121.106 125.613 121.06C125.657 121.014 125.682 120.952 125.682 120.888C125.682 120.823 125.657 120.761 125.613 120.716C125.568 120.67 125.508 120.644 125.446 120.644C121.205 120.697 117.015 120.747 112.876 120.794C112.655 120.307 112.435 119.82 112.214 119.349H123.926C123.988 119.349 124.048 119.324 124.093 119.278C124.137 119.232 124.162 119.17 124.162 119.106C124.162 119.041 124.137 118.979 124.093 118.934C124.048 118.888 123.988 118.863 123.926 118.863L111.994 118.91L111.804 118.517C111.772 118.47 111.724 118.435 111.67 118.421C111.615 118.406 111.557 118.412 111.507 118.438C111.457 118.464 111.417 118.507 111.394 118.56C111.372 118.614 111.369 118.674 111.386 118.729L111.47 118.91C105.39 118.91 99.8643 118.91 95.0155 118.965C95.0155 118.831 94.9471 118.698 94.9167 118.564C94.8982 118.506 94.859 118.457 94.8068 118.427C94.7546 118.397 94.6934 118.389 94.6356 118.404C94.5778 118.419 94.5276 118.456 94.4951 118.507C94.4627 118.559 94.4504 118.621 94.4607 118.682C94.4607 118.776 94.5139 118.878 94.5367 118.972L82.3767 119.051L82.3311 118.603C82.3293 118.572 82.3212 118.541 82.3074 118.512C82.2937 118.484 82.2745 118.459 82.2511 118.438C82.2277 118.418 82.2005 118.402 82.1711 118.393C82.1418 118.384 82.1109 118.38 82.0803 118.384C82.0493 118.387 82.0192 118.396 81.9917 118.411C81.9642 118.426 81.9398 118.446 81.9201 118.471C81.9003 118.496 81.8854 118.525 81.8764 118.555C81.8674 118.586 81.8644 118.619 81.8675 118.651V119.051L72.2231 119.145C72.2231 118.98 72.2687 118.815 72.2839 118.651C72.2924 118.617 72.2937 118.582 72.2879 118.547C72.2821 118.513 72.2692 118.481 72.2501 118.452C72.231 118.423 72.2062 118.399 72.1773 118.381C72.1485 118.363 72.1162 118.352 72.0827 118.348C72.0492 118.344 72.0153 118.347 71.9833 118.358C71.9512 118.369 71.9217 118.386 71.8969 118.41C71.872 118.433 71.8523 118.462 71.8391 118.494C71.8259 118.526 71.8195 118.561 71.8203 118.596L71.7519 119.145L59.6375 119.231L59.8883 118.737C59.9152 118.678 59.9191 118.611 59.8992 118.55C59.8794 118.489 59.8374 118.437 59.7819 118.407C59.7551 118.392 59.7256 118.383 59.6953 118.38C59.6649 118.377 59.6343 118.381 59.6053 118.39C59.5762 118.4 59.5493 118.415 59.5261 118.436C59.503 118.456 59.484 118.481 59.4703 118.509L59.1131 119.231L46.8011 119.279L47.0367 118.902C47.0688 118.848 47.0795 118.784 47.0668 118.723C47.054 118.661 47.0187 118.607 46.9683 118.572C46.9438 118.553 46.9158 118.54 46.886 118.533C46.8563 118.526 46.8254 118.525 46.7954 118.531C46.7653 118.537 46.7368 118.549 46.7117 118.567C46.6865 118.585 46.6652 118.608 46.6491 118.635L46.2387 119.279H36.6627L37.0807 118.784C37.1012 118.761 37.117 118.734 37.1273 118.704C37.1376 118.675 37.1422 118.643 37.1408 118.612C37.1394 118.581 37.132 118.55 37.1191 118.521C37.1062 118.493 37.088 118.468 37.0655 118.446C37.0431 118.425 37.0168 118.409 36.9882 118.398C36.9597 118.388 36.9293 118.383 36.899 118.384C36.8686 118.386 36.8389 118.393 36.8114 118.407C36.7839 118.42 36.7592 118.439 36.7387 118.462C36.5031 118.729 36.2675 119.004 36.0395 119.247H29.6783C29.6478 119.246 29.6173 119.251 29.5887 119.263C29.5602 119.274 29.5342 119.291 29.5122 119.313C29.4902 119.335 29.4727 119.362 29.4608 119.391C29.4489 119.42 29.4427 119.451 29.4427 119.483C29.4427 119.547 29.4676 119.609 29.5117 119.655C29.5559 119.7 29.6158 119.726 29.6783 119.726H35.6367C35.3859 120.024 34.6563 120.943 34.5499 121.076L27.8163 121.147C27.762 121.157 27.7129 121.187 27.6776 121.23C27.6422 121.274 27.6229 121.329 27.6229 121.386C27.6229 121.443 27.6422 121.498 27.6776 121.542C27.7129 121.586 27.762 121.616 27.8163 121.626L34.1699 121.563L33.3035 122.701H26.2355C26.2049 122.701 26.1747 122.707 26.1465 122.72C26.1183 122.732 26.0928 122.75 26.0716 122.773C26.0503 122.796 26.0337 122.822 26.0227 122.852C26.0117 122.881 26.0065 122.913 26.0075 122.945C26.0065 122.976 26.0117 123.008 26.0227 123.037C26.0337 123.067 26.0503 123.093 26.0716 123.116C26.0928 123.139 26.1183 123.157 26.1465 123.169C26.1747 123.182 26.2049 123.188 26.2355 123.188H32.9159C32.5739 123.627 32.2167 124.051 31.8519 124.475L24.4343 124.405C24.3718 124.405 24.3119 124.43 24.2677 124.476C24.2236 124.522 24.1987 124.583 24.1987 124.648C24.1987 124.713 24.2236 124.774 24.2677 124.82C24.3119 124.866 24.3718 124.891 24.4343 124.891L31.4415 124.954C31.2059 125.213 30.9703 125.48 30.7271 125.739C30.6838 125.786 30.6602 125.849 30.6617 125.913C30.6631 125.978 30.6894 126.04 30.7347 126.085C30.7801 126.129 30.8408 126.154 30.9035 126.152C30.9662 126.151 31.0258 126.124 31.0691 126.077C31.4111 125.7 31.7455 125.292 32.0647 124.954L43.0163 125.04C42.9403 125.182 42.8643 125.323 42.7959 125.464C42.7803 125.492 42.7704 125.524 42.7669 125.556C42.7635 125.588 42.7665 125.621 42.7757 125.651C42.785 125.682 42.8004 125.711 42.8208 125.736C42.8413 125.76 42.8665 125.78 42.8947 125.794C42.9216 125.809 42.9511 125.818 42.9814 125.821C43.0117 125.824 43.0423 125.821 43.0714 125.811C43.1004 125.801 43.1274 125.786 43.1505 125.766C43.1737 125.745 43.1927 125.72 43.2063 125.692L43.5407 125.04L56.6127 125.103L56.2555 125.794C56.2409 125.821 56.2316 125.851 56.2282 125.882C56.2248 125.913 56.2275 125.945 56.236 125.975C56.2445 126.005 56.2586 126.033 56.2776 126.057C56.2966 126.081 56.3201 126.101 56.3467 126.116C56.4012 126.147 56.4653 126.154 56.5251 126.137C56.5849 126.119 56.6355 126.078 56.6659 126.022C56.8255 125.716 56.9851 125.409 57.1371 125.103H70.6195L70.4827 125.88ZM71.0983 122.811L58.1783 122.74L58.6951 121.445H71.4099L71.0983 122.811ZM57.6995 122.733H44.7795L45.4787 121.524L58.1783 121.469C58.1479 121.618 57.8287 122.419 57.6995 122.733ZM71.1819 124.664C71.2731 124.201 71.3719 123.745 71.4707 123.298L82.6047 123.384C82.6655 123.808 82.7111 124.24 82.7491 124.672L71.1819 124.664ZM83.0151 122.905C82.9087 122.167 82.8175 121.751 82.7643 121.461H95.2739C95.5247 122.16 95.6387 122.419 95.8515 123.031L83.0151 122.905ZM83.2127 124.672C83.2127 124.24 83.1367 123.816 83.0759 123.384L95.9959 123.463C96.1327 123.879 96.2619 124.303 96.3759 124.726C91.8615 124.695 87.4738 124.677 83.2127 124.672ZM113.514 123.51C113.704 123.965 113.894 124.42 114.076 124.876C108.158 124.813 102.418 124.763 96.8547 124.726C96.7407 124.303 96.6191 123.879 96.4823 123.463C102.106 123.489 107.784 123.504 113.514 123.51ZM113.301 123.023C107.576 123.023 101.914 123.007 96.3151 122.976C96.2543 122.795 95.8515 121.72 95.7451 121.406C101.232 121.406 106.849 121.343 112.556 121.288C112.891 121.995 113.088 122.442 113.332 123.023H113.301ZM111.667 119.381C111.895 119.859 112.116 120.338 112.336 120.825C106.641 120.877 101.055 120.919 95.5779 120.951C95.4107 120.456 95.2587 119.946 95.1143 119.443L111.667 119.381ZM94.6279 119.443C94.7647 119.967 94.9167 120.469 95.0839 120.951H82.6503C82.5667 120.456 82.5059 120.04 82.4375 119.491L94.6279 119.443ZM72.2003 119.616L81.9663 119.53C82.0347 120.071 82.1031 120.519 82.1791 120.982H71.9571C72.0787 120.535 72.1547 120.087 72.2307 119.616H72.2003ZM71.8583 121.445H82.2627C82.3311 121.838 82.3995 122.16 82.5059 122.882L71.5771 122.835L71.8583 121.445ZM59.4855 119.695L71.7519 119.608C71.6835 120.048 71.5999 120.511 71.5163 120.943H58.9231C59.0827 120.59 59.2727 120.158 59.4855 119.695ZM46.5655 119.695H58.9611C58.8547 119.922 58.4823 120.77 58.4063 120.951C53.8463 120.951 45.7979 120.998 45.7979 120.998C46.0563 120.59 46.3147 120.166 46.5731 119.75L46.5655 119.695ZM36.2447 119.695H46.0107L45.2507 120.966L35.1579 121.037C35.4391 120.739 35.8419 120.244 36.2523 119.75L36.2447 119.695ZM34.7779 121.579C37.8179 121.579 41.1999 121.524 44.9695 121.508C44.7339 121.908 44.5059 122.293 44.2779 122.709H33.9115L34.7779 121.579ZM43.2671 124.569L32.4827 124.491C32.8399 124.067 33.1895 123.643 33.5315 123.204H44.0119C43.7535 123.62 43.5103 124.114 43.2671 124.569ZM56.8483 124.632L43.7991 124.577C44.0423 124.114 44.2931 123.651 44.5591 123.196H57.4791C57.2739 123.698 57.0763 124.169 56.8483 124.632ZM57.3727 124.632C57.5931 124.169 57.8059 123.698 58.0035 123.219L70.9919 123.29C70.8931 123.737 70.7943 124.193 70.7107 124.664L57.3727 124.632Z" fill="black"/>
</svg>
