<svg width="140" height="140" viewBox="0 0 140 140" fill="none" xmlns="http://www.w3.org/2000/svg">
<rect opacity="0.01" width="140" height="140" fill="white"/>
<path fill-rule="evenodd" clip-rule="evenodd" d="M38.7887 93.9637C38.3622 93.9878 37.9325 94 37.5 94C25.0736 94 15 83.9264 15 71.5C15 59.0736 25.0736 49 37.5 49C37.9384 49 38.3739 49.0125 38.8061 49.0373C43.3673 35.6385 56.0581 26 71 26C88.4379 26 102.81 39.1275 104.772 56.0391C105.178 56.0132 105.587 56 106 56C116.493 56 125 64.5066 125 75C125 85.4934 116.493 94 106 94C105.468 94 104.942 93.9782 104.421 93.9353C104.045 94 103.547 94 102.8 94H71H40.2C39.5838 94 39.1371 94 38.7887 93.9637Z" fill="#D7DBEC"/>
<circle cx="90" cy="93" r="22" fill="#336DFF"/>
<path fill-rule="evenodd" clip-rule="evenodd" d="M91.287 83.469C90.5012 82.8069 89.3257 82.8458 88.5858 83.5858L81.0858 91.0858L80.9689 91.213L83.9142 93.9142L88 89.8288V103H92V89.8288L96.0858 93.9142L96.213 94.031L98.9142 91.0858L91.4142 83.5858L91.287 83.469Z" fill="white"/>
</svg>
