<svg width="153" height="158" viewBox="0 0 153 158" fill="none" xmlns="http://www.w3.org/2000/svg">
<path d="M117.542 53.8935H43.4004V50.8681C43.4006 49.9823 43.7414 49.1328 44.3478 48.5064C44.9542 47.8801 45.7766 47.5281 46.6342 47.5279H116.554C116.435 48.1279 116.375 48.7389 116.375 49.3514V49.4252H54.9942V51.9702H116.688L116.747 51.9529C116.942 52.628 117.209 53.2787 117.542 53.8935Z" fill="#81F8F8"/>
<path d="M83.7366 103.497C84.2104 103.497 84.6737 103.642 85.0677 103.913C85.4618 104.185 85.7689 104.572 85.9503 105.024C86.1318 105.476 86.1793 105.974 86.0868 106.454C85.9944 106.934 85.7663 107.375 85.4312 107.721C85.0961 108.067 84.6692 108.303 84.2045 108.398C83.7397 108.493 83.258 108.444 82.8202 108.257C82.3825 108.07 82.0084 107.752 81.7452 107.345C81.482 106.938 81.3416 106.46 81.3418 105.97C81.3422 105.314 81.5946 104.686 82.0437 104.222C82.4927 103.758 83.1016 103.497 83.7366 103.497Z" fill="#FFD997"/>
<path d="M126.948 66.3059V94.8014C126.379 95.0538 125.827 95.3422 125.293 95.6649L124.044 95.2285L124.076 95.1288V60.891L126.948 66.3059Z" fill="#FFD997"/>
<path d="M126.948 60.449V66.3059L124.076 60.8894V59.5471C125.004 59.9374 125.966 60.2393 126.948 60.449Z" fill="black"/>
<path d="M121.395 110.482H116.157L118.604 101.46H120.213C119.791 102.541 119.574 103.697 119.573 104.863C119.588 106.888 120.226 108.856 121.395 110.482Z" fill="black"/>
<path d="M118.606 101.46L116.16 110.482H44.8907C43.7337 110.482 42.6241 110.007 41.806 109.162C40.9879 108.317 40.5283 107.171 40.5283 105.976V84.4567L43.4004 80.6675V98.1196C43.4006 99.0054 43.7413 99.8549 44.3477 100.481C44.9542 101.108 45.7766 101.46 46.6342 101.46H118.606ZM86.1367 105.97C86.1368 105.481 85.9965 105.002 85.7333 104.595C85.4702 104.188 85.0961 103.871 84.6583 103.683C84.2205 103.496 83.7388 103.447 83.2739 103.542C82.8091 103.637 82.382 103.873 82.0468 104.219C81.7115 104.565 81.4831 105.005 81.3904 105.485C81.2977 105.966 81.3449 106.463 81.526 106.916C81.7071 107.368 82.014 107.755 82.4079 108.027C82.8018 108.299 83.265 108.444 83.7389 108.445C84.3741 108.445 84.9833 108.184 85.4325 107.72C85.8817 107.256 86.1342 106.627 86.1344 105.97H86.1367Z" fill="#FFD997"/>
<path d="M117.574 62.2702C117.743 62.266 117.911 62.2966 118.068 62.3603C118.225 62.4241 118.368 62.5196 118.489 62.6414C118.61 62.7632 118.706 62.9086 118.771 63.0693C118.837 63.23 118.87 63.4025 118.87 63.5769C118.87 63.7512 118.837 63.9238 118.771 64.0844C118.706 64.2451 118.61 64.3906 118.489 64.5123C118.368 64.6341 118.225 64.7296 118.068 64.7934C117.911 64.8571 117.743 64.8878 117.574 64.8835H88.4113C88.1609 64.884 87.9161 64.8077 87.7078 64.6642C87.4995 64.5207 87.3371 64.3166 87.2413 64.0777C87.1454 63.8388 87.1205 63.5759 87.1695 63.3223C87.2186 63.0687 87.3394 62.8358 87.5168 62.6533C87.6338 62.5313 87.7731 62.4346 87.9267 62.3688C88.0803 62.303 88.2451 62.2695 88.4113 62.2702H117.574Z" fill="#81F8F8"/>
<path d="M117.574 67.8578C117.91 67.8578 118.232 67.9956 118.469 68.2407C118.706 68.4858 118.84 68.8182 118.84 69.1649C118.84 69.5115 118.706 69.844 118.469 70.0891C118.232 70.3342 117.91 70.4719 117.574 70.4719H73.6568C73.321 70.4713 72.9992 70.3332 72.7619 70.0879C72.5245 69.8426 72.391 69.5101 72.3906 69.1633C72.392 68.8171 72.526 68.4856 72.7632 68.241C73.0004 67.9964 73.3216 67.8587 73.6568 67.8578H117.574Z" fill="black"/>
<path d="M117.574 73.4463C117.743 73.442 117.911 73.4726 118.068 73.5364C118.225 73.6001 118.368 73.6957 118.489 73.8174C118.61 73.9392 118.706 74.0847 118.771 74.2453C118.837 74.406 118.871 74.5785 118.871 74.7529C118.871 74.9272 118.837 75.0998 118.771 75.2605C118.706 75.4211 118.61 75.5666 118.489 75.6883C118.368 75.8101 118.225 75.9057 118.068 75.9694C117.911 76.0332 117.743 76.0638 117.574 76.0595H103.166C102.83 76.0593 102.508 75.9215 102.271 75.6762C102.034 75.431 101.9 75.0985 101.9 74.7517C101.901 74.4053 102.034 74.0732 102.272 73.8285C102.509 73.5837 102.831 73.4463 103.166 73.4463H117.574Z" fill="#81F8F8"/>
<path d="M117.574 79.0316C117.91 79.0316 118.231 79.1693 118.469 79.4144C118.706 79.6595 118.839 79.9919 118.839 80.3386C118.839 80.6852 118.706 81.0177 118.469 81.2628C118.231 81.5079 117.91 81.6456 117.574 81.6456H71.1981C70.8622 81.6452 70.5402 81.5072 70.3027 81.2619C70.0652 81.0165 69.9316 80.6839 69.9312 80.337C69.9326 79.9907 70.0666 79.659 70.304 79.4144C70.5413 79.1698 70.8628 79.0322 71.1981 79.0316H117.574Z" fill="black"/>
<path d="M117.574 84.6223C117.904 84.6306 118.218 84.7719 118.449 85.0161C118.679 85.2602 118.808 85.5878 118.808 85.9289C118.808 86.27 118.679 86.5976 118.449 86.8417C118.218 87.0858 117.904 87.2272 117.574 87.2355H93.3299C92.9941 87.2353 92.6721 87.0975 92.4346 86.8523C92.197 86.6071 92.0634 86.2746 92.063 85.9277C92.064 85.5813 92.1979 85.2493 92.4354 85.0046C92.6728 84.76 92.9945 84.6225 93.3299 84.6223H117.574Z" fill="#81F8F8"/>
<path d="M117.574 90.2099C117.743 90.2057 117.911 90.2363 118.068 90.3C118.225 90.3638 118.368 90.4593 118.489 90.5811C118.61 90.7028 118.706 90.8483 118.771 91.009C118.837 91.1696 118.871 91.3422 118.871 91.5166C118.871 91.6909 118.837 91.8635 118.771 92.0241C118.706 92.1848 118.61 92.3303 118.489 92.452C118.368 92.5738 118.225 92.6693 118.068 92.7331C117.911 92.7968 117.743 92.8275 117.574 92.8232H110.544C110.208 92.823 109.886 92.6851 109.648 92.4399C109.411 92.1947 109.278 91.8622 109.277 91.5154C109.278 91.1691 109.412 90.8373 109.649 90.5926C109.887 90.3479 110.208 90.2103 110.544 90.2099H117.574Z" fill="black"/>
<path d="M117.574 95.7975C117.91 95.7975 118.232 95.9353 118.469 96.1804C118.706 96.4255 118.84 96.7579 118.84 97.1046C118.84 97.4512 118.706 97.7837 118.469 98.0288C118.232 98.2739 117.91 98.4116 117.574 98.4116H78.5755C78.2396 98.4112 77.9176 98.2732 77.6801 98.0279C77.4426 97.7825 77.309 97.4499 77.3086 97.103C77.31 96.7567 77.444 96.425 77.6814 96.1804C77.9188 95.9358 78.2402 95.7982 78.5755 95.7975H117.574Z" fill="#81F8F8"/>
<path d="M117.672 56.692L116.445 59.2958H78.5755C78.2399 59.2958 77.918 59.1581 77.6807 58.913C77.4434 58.6679 77.3101 58.3354 77.3101 57.9888C77.3101 57.6421 77.4434 57.3097 77.6807 57.0646C77.918 56.8195 78.2399 56.6818 78.5755 56.6818H117.574C117.608 56.6818 117.638 56.6896 117.672 56.692Z" fill="black"/>
<path d="M44.8907 45.3636H117.259C116.94 46.0529 116.704 46.7796 116.554 47.5279H46.6342C45.7766 47.5281 44.9542 47.8801 44.3477 48.5064C43.7413 49.1328 43.4006 49.9823 43.4004 50.8681V61.5307C42.5093 60.8488 41.5457 60.2744 40.5283 59.8186V49.8695C40.5283 48.6745 40.9879 47.5284 41.806 46.6834C42.6241 45.8384 43.7337 45.3636 44.8907 45.3636Z" fill="#FFD997"/>
<path d="M116.748 51.953L116.689 51.9703H54.9941V49.4253H116.378C116.382 50.2819 116.507 51.1333 116.748 51.953Z" fill="black"/>
<path d="M103.558 90.2099C103.888 90.2183 104.202 90.3596 104.433 90.6037C104.664 90.8478 104.793 91.1754 104.793 91.5165C104.793 91.8576 104.664 92.1852 104.433 92.4293C104.202 92.6735 103.888 92.8148 103.558 92.8232H54.7222C54.3865 92.823 54.0645 92.6851 53.8271 92.4399C53.5897 92.1947 53.4563 91.8621 53.4561 91.5154C53.4571 91.169 53.5909 90.8372 53.8282 90.5926C54.0655 90.3479 54.3869 90.2103 54.7222 90.2099H103.558Z" fill="#81F8F8"/>
<path d="M96.1802 73.4463C96.5104 73.4546 96.8242 73.596 97.0549 73.8401C97.2855 74.0842 97.4146 74.4118 97.4146 74.7529C97.4146 75.094 97.2855 75.4216 97.0549 75.6657C96.8242 75.9099 96.5104 76.0512 96.1802 76.0596H54.7222C54.3865 76.0593 54.0645 75.9215 53.8271 75.6763C53.5897 75.4311 53.4563 75.0985 53.4561 74.7517C53.4567 74.4053 53.5903 74.0733 53.8277 73.8285C54.0651 73.5838 54.3868 73.4463 54.7222 73.4463H96.1802Z" fill="black"/>
<path d="M93.1578 116.961L94.196 121.688H92.7299H75.3738H73.2808L75.7401 110.482L93.1578 116.961Z" fill="#FFD997"/>
<path d="M91.7367 110.482L93.1579 116.961L75.7402 110.482H91.7367Z" fill="black"/>
<path d="M86.3435 84.6223C86.6737 84.6306 86.9876 84.7719 87.2182 85.0161C87.4488 85.2602 87.5779 85.5878 87.5779 85.9289C87.5779 86.27 87.4488 86.5976 87.2182 86.8417C86.9876 87.0858 86.6737 87.2272 86.3435 87.2355H54.7222C54.3865 87.2353 54.0645 87.0975 53.8271 86.8522C53.5897 86.607 53.4563 86.2745 53.4561 85.9277C53.4567 85.5813 53.5903 85.2492 53.8277 85.0045C54.0651 84.7597 54.3868 84.6223 54.7222 84.6223H86.3435Z" fill="black"/>
<path d="M81.4256 62.2702C81.5943 62.266 81.7621 62.2966 81.9192 62.3603C82.0763 62.4241 82.2195 62.5196 82.3403 62.6414C82.4611 62.7632 82.5571 62.9086 82.6226 63.0693C82.6882 63.23 82.722 63.4025 82.722 63.5769C82.722 63.7512 82.6882 63.9238 82.6226 64.0844C82.5571 64.2451 82.4611 64.3906 82.3403 64.5123C82.2195 64.6341 82.0763 64.7296 81.9192 64.7934C81.7621 64.8571 81.5943 64.8878 81.4256 64.8835H54.7222C54.5535 64.8878 54.3856 64.8571 54.2285 64.7934C54.0714 64.7296 53.9282 64.6341 53.8074 64.5123C53.6866 64.3906 53.5906 64.2451 53.5251 64.0844C53.4595 63.9238 53.4258 63.7512 53.4258 63.5769C53.4258 63.4025 53.4595 63.23 53.5251 63.0693C53.5906 62.9086 53.6866 62.7632 53.8074 62.6414C53.9282 62.5196 54.0714 62.4241 54.2285 62.3603C54.3856 62.2966 54.5535 62.266 54.7222 62.2702H81.4256Z" fill="black"/>
<path d="M71.5889 56.6818C71.9245 56.6818 72.2464 56.8195 72.4837 57.0646C72.721 57.3097 72.8543 57.6421 72.8543 57.9888C72.8543 58.3354 72.721 58.6679 72.4837 58.913C72.2464 59.1581 71.9245 59.2958 71.5889 59.2958H54.7222C54.3865 59.2956 54.0645 59.1578 53.8271 58.9125C53.5897 58.6673 53.4563 58.3348 53.4561 57.988C53.4569 57.6416 53.5906 57.3095 53.8279 57.0647C54.0652 56.8199 54.3868 56.6822 54.7222 56.6818H71.5889Z" fill="#81F8F8"/>
<path d="M71.5889 95.7975C71.9245 95.7975 72.2464 95.9353 72.4837 96.1804C72.721 96.4255 72.8543 96.7579 72.8543 97.1046C72.8543 97.4512 72.721 97.7837 72.4837 98.0288C72.2464 98.2739 71.9245 98.4116 71.5889 98.4116H54.7222C54.3864 98.4112 54.0645 98.2732 53.8271 98.0278C53.5897 97.7825 53.4563 97.4499 53.4561 97.103C53.4571 96.7567 53.5909 96.4249 53.8282 96.1802C54.0655 95.9356 54.3869 95.798 54.7222 95.7975H71.5889Z" fill="black"/>
<path d="M66.6709 67.8578C67.0065 67.8578 67.3284 67.9956 67.5657 68.2407C67.803 68.4858 67.9363 68.8182 67.9363 69.1649C67.9363 69.5115 67.803 69.844 67.5657 70.0891C67.3284 70.3342 67.0065 70.4719 66.6709 70.4719H54.7222C54.3864 70.4715 54.0645 70.3335 53.8271 70.0881C53.5897 69.8428 53.4563 69.5102 53.4561 69.1633C53.4571 68.817 53.5909 68.4852 53.8282 68.2405C54.0655 67.9959 54.3869 67.8583 54.7222 67.8578H66.6709Z" fill="#81F8F8"/>
<path d="M64.2116 79.0316C64.5472 79.0316 64.869 79.1693 65.1064 79.4144C65.3437 79.6595 65.477 79.9919 65.477 80.3386C65.477 80.6852 65.3437 81.0177 65.1064 81.2628C64.869 81.5079 64.5472 81.6456 64.2116 81.6456H54.7222C54.3864 81.6452 54.0645 81.5072 53.8271 81.2618C53.5897 81.0165 53.4563 80.6839 53.4561 80.337C53.4571 79.9907 53.5909 79.6589 53.8282 79.4142C54.0655 79.1696 54.3869 79.032 54.7222 79.0316H64.2116Z" fill="#81F8F8"/>
<path d="M47.6846 68.2598C47.8513 68.324 47.9968 68.4362 48.1039 68.5829C48.211 68.7297 48.2753 68.9051 48.2892 69.0883C48.3031 69.2716 48.266 69.4551 48.1823 69.6174C48.0987 69.7796 47.9718 69.9137 47.8168 70.004V69.8392C47.8168 69.7097 47.8168 69.5801 47.8069 69.4506V69.42C47.7907 69.0309 47.7499 68.6433 47.6846 68.2598Z" fill="black"/>
<path d="M47.35 57.0146C47.5365 57.014 47.719 57.0705 47.8744 57.1771C48.0298 57.2837 48.151 57.4355 48.2228 57.6133C48.2946 57.7911 48.3137 57.9869 48.2777 58.176C48.2417 58.365 48.1522 58.5387 48.0205 58.6752C47.8888 58.8116 47.7209 58.9046 47.538 58.9425C47.3551 58.9803 47.1655 58.9612 46.9931 58.8876C46.8207 58.814 46.6734 58.6893 46.5697 58.5291C46.466 58.369 46.4106 58.1806 46.4106 57.988C46.4106 57.7304 46.5095 57.4833 46.6856 57.3008C46.8617 57.1183 47.1006 57.0154 47.35 57.0146Z" fill="black"/>
<path d="M47.35 62.603C47.5363 62.6026 47.7186 62.6592 47.8738 62.7658C48.0289 62.8724 48.15 63.0241 48.2216 63.2018C48.2932 63.3795 48.3122 63.5751 48.2761 63.7639C48.24 63.9528 48.1505 64.1263 48.0189 64.2625C47.8873 64.3988 47.7196 64.4917 47.5368 64.5294C47.3541 64.5671 47.1647 64.548 46.9925 64.4744C46.8203 64.4009 46.6731 64.2762 46.5695 64.1162C46.4659 63.9562 46.4106 63.7681 46.4106 63.5756C46.4106 63.3181 46.5095 63.0711 46.6856 62.8887C46.8617 62.7064 47.1007 62.6037 47.35 62.603Z" fill="black"/>
<path d="M47.35 73.7791C47.5997 73.7791 47.8392 73.8816 48.0158 74.064C48.1924 74.2464 48.2916 74.4938 48.2916 74.7517C48.2916 75.0097 48.1924 75.257 48.0158 75.4394C47.8392 75.6218 47.5997 75.7243 47.35 75.7243C47.1493 75.7194 46.9551 75.6493 46.7952 75.5238C46.6353 75.3984 46.5177 75.2241 46.4593 75.0257L46.3301 74.9417C46.5521 74.5856 46.7516 74.2151 46.9274 73.8325L46.9692 73.8521C47.0475 73.772 47.2854 73.7791 47.35 73.7791Z" fill="black"/>
<path d="M47.35 84.9544C47.5365 84.9537 47.719 85.0103 47.8744 85.1169C48.0298 85.2235 48.151 85.3753 48.2228 85.5531C48.2946 85.7309 48.3137 85.9267 48.2777 86.1157C48.2417 86.3047 48.1522 86.4785 48.0205 86.6149C47.8888 86.7514 47.7209 86.8444 47.538 86.8822C47.3551 86.92 47.1655 86.9009 46.9931 86.8273C46.8207 86.7538 46.6734 86.629 46.5697 86.4689C46.466 86.3087 46.4106 86.1204 46.4106 85.9277C46.4106 85.6701 46.5095 85.423 46.6856 85.2406C46.8617 85.0581 47.1006 84.9552 47.35 84.9544Z" fill="black"/>
<path d="M47.35 90.5427C47.5363 90.5423 47.7186 90.5989 47.8738 90.7055C48.0289 90.8121 48.15 90.9638 48.2216 91.1415C48.2932 91.3192 48.3122 91.5148 48.2761 91.7036C48.24 91.8925 48.1505 92.066 48.0189 92.2023C47.8873 92.3385 47.7196 92.4314 47.5368 92.4691C47.3541 92.5068 47.1647 92.4877 46.9925 92.4141C46.8203 92.3406 46.6731 92.2159 46.5695 92.0559C46.4659 91.8959 46.4106 91.7078 46.4106 91.5153C46.4106 91.2578 46.5095 91.0108 46.6856 90.8284C46.8617 90.6461 47.1007 90.5434 47.35 90.5427Z" fill="black"/>
<path d="M47.35 96.1304C47.5366 96.1298 47.7191 96.1863 47.8745 96.2929C48.0299 96.3996 48.1511 96.5514 48.2229 96.7293C48.2947 96.9071 48.3137 97.103 48.2776 97.292C48.2416 97.4811 48.152 97.6548 48.0202 97.7912C47.8885 97.9276 47.7205 98.0206 47.5376 98.0583C47.3546 98.0961 47.1649 98.0768 46.9926 98.0031C46.8202 97.9294 46.6729 97.8046 46.5693 97.6443C46.4657 97.4841 46.4105 97.2957 46.4106 97.103C46.4106 96.8454 46.5095 96.5984 46.6856 96.4161C46.8617 96.2337 47.1007 96.131 47.35 96.1304Z" fill="black"/>
<path d="M42.0996 79.0362L43.4676 79.7042L43.3984 79.8565V80.6674L40.5264 84.4566V79.8565C41.0666 79.6167 41.592 79.3427 42.0996 79.0362Z" fill="black"/>
<path d="M37.4177 80.9006L37.4443 81.0254C36.1736 84.0022 34.5563 86.9561 32.6616 88.5999C32.0465 89.1332 31.4547 89.6733 30.8862 90.2202C30.6719 86.9742 30.4409 83.6897 30.2197 81.0254C31.3095 81.2304 32.415 81.3331 33.5227 81.3324C34.8323 81.3344 36.1383 81.1896 37.4177 80.9006Z" fill="black"/>
<path d="M28.5082 95.7803C28.9758 94.6493 29.6965 93.649 30.6112 92.8617C30.751 92.7502 30.8908 92.638 31.0337 92.5312C33.2903 90.8918 35.7492 89.5717 38.3449 88.6062C38.2758 88.7585 35.6348 94.5369 33.1009 96.7443C32.5134 97.2545 31.9252 97.7122 31.3696 98.1573C30.8058 98.6002 30.2726 99.0831 29.7736 99.6025C29.2229 100.163 28.7873 100.832 28.4928 101.57C28.1983 102.308 28.0511 103.1 28.0598 103.898V104.028H26.9761V103.898C26.9899 102.529 27.1134 101.164 27.3454 99.816C27.5665 98.4255 27.9572 97.0694 28.5082 95.7803Z" fill="#81F8F8"/>
<path d="M31.6384 103.898V104.028H30.3205C30.2564 102.539 30.0721 101.059 29.7695 99.6025C30.2684 99.0831 30.8017 98.6002 31.3655 98.1573C31.535 101.104 31.6384 103.308 31.6384 103.898Z" fill="black"/>
<path d="M31.0333 92.5288C30.8904 92.638 30.7506 92.7502 30.6107 92.8617C29.6961 93.649 28.9753 94.6493 28.5078 95.7803C28.2152 95.3093 27.8534 94.7873 27.4354 94.2056C26.4642 92.8491 25.2056 91.1983 23.9144 89.3637C22.3595 87.2128 20.9715 84.9384 19.7632 82.5617C19.7632 82.5617 19.7556 82.5491 19.7435 82.5264C19.5618 82.1527 19.3893 81.7822 19.2252 81.4062C13.8466 69.1531 17.3312 56.9362 17.3312 56.9362C19.1752 58.6734 20.9052 60.5353 22.5099 62.5097C21.5018 63.4308 20.6895 64.5578 20.1241 65.8194C19.5588 67.0811 19.2527 68.45 19.2252 69.84C19.2252 75.273 23.9144 79.8275 30.2193 81.0262C30.4405 83.6905 30.6715 86.975 30.8858 90.2209C30.9352 90.995 30.9869 91.7666 31.0333 92.5288Z" fill="#81F8F8"/>
<path d="M26.8164 95.1703C26.8164 95.1703 27.22 97.6517 27.3484 99.8136C27.1164 101.161 26.9929 102.527 26.9791 103.896V104.025H25.8991V103.896C26.2791 101.269 25.8892 98.3127 25.8991 96.9154C26.173 96.3164 26.4792 95.7338 26.8164 95.1703Z" fill="black"/>
<path d="M27.4358 94.2056C27.22 94.5196 27.0133 94.843 26.8164 95.1703C26.4792 95.7338 26.173 96.3164 25.8991 96.9154C24.9024 99.1407 24.3784 101.561 24.3624 104.013V104.025H23.9292C23.903 101.3 23.6305 98.5823 23.1152 95.909C23.3638 94.5651 23.4952 93.0414 23.6541 91.4863C23.7255 90.7853 23.8015 90.0773 23.895 89.3786L23.9148 89.3629C25.206 91.199 26.4646 92.8475 27.4358 94.2056Z" fill="#81F8F8"/>
<path d="M23.929 104.028H22.0138C21.8884 97.2962 17.4819 95.1704 13.0701 91.3302C8.51009 87.3651 3.76465 76.8979 3.76465 76.8979C8.50803 78.6625 12.9905 81.1005 17.0829 84.1419C17.2104 84.2535 17.3433 84.3583 17.4811 84.4559C20.6731 87.0417 22.2988 91.7156 23.115 95.9091C23.6304 98.5832 23.9029 101.301 23.929 104.028Z" fill="#81F8F8"/>
<path d="M23.9149 89.3637L23.8951 89.3794C23.8016 90.078 23.7256 90.7861 23.6542 91.4871C23.2164 88.4876 20.8901 86.8925 17.4822 84.4566C17.3492 84.3499 17.2185 84.2431 17.0832 84.1426C13.9923 81.4658 13.0264 74.9354 13.0264 74.9354C16.5649 77.0839 19.4788 82.0647 19.744 82.5271C19.7562 82.5499 19.7638 82.5624 19.7638 82.5624C20.972 84.9388 22.36 87.213 23.9149 89.3637Z" fill="black"/>
<path d="M40.5283 79.8565C41.0677 79.6166 41.5924 79.3426 42.0992 79.0362L43.4672 79.7042L50.1552 82.9557L45.8232 75.6992C46.0049 75.4527 46.1774 75.2015 46.3347 74.9416C46.5569 74.5854 46.7564 74.2146 46.9321 73.8316C47.4914 72.6368 47.7933 71.3309 47.8167 70.004V69.8391C47.8167 69.7096 47.8167 69.5801 47.8068 69.4506" stroke="black" stroke-width="0.980065" stroke-linecap="round" stroke-linejoin="round"/>
<path d="M47.8099 69.42C47.7928 69.0308 47.7509 68.6433 47.6845 68.2598C47.1435 65.5329 45.61 63.1243 43.4004 61.5308C42.5094 60.8488 41.5458 60.2744 40.5284 59.8187C38.3168 58.8331 35.9314 58.3316 33.5227 58.346C29.4766 58.257 25.5459 59.742 22.5103 62.5065C21.5022 63.4277 20.6899 64.5546 20.1246 65.8163C19.5592 67.0779 19.2531 68.4469 19.2256 69.8368C19.2256 75.2698 23.9148 79.8244 30.2197 81.0231C31.3095 81.228 32.415 81.3307 33.5227 81.33C34.8323 81.332 36.1383 81.1873 37.4177 80.8983C38.485 80.6571 39.5269 80.3085 40.5284 79.8574" stroke="black" stroke-width="0.980065" stroke-linecap="round" stroke-linejoin="round"/>
<path d="M117.675 56.692L118.373 55.2092C118.064 54.7924 117.784 54.3527 117.537 53.8935C117.205 53.2786 116.94 52.6279 116.746 51.953C116.505 51.1332 116.381 50.2818 116.377 49.4253V49.3515C116.376 48.739 116.436 48.128 116.554 47.5279C116.703 46.7797 116.94 46.053 117.258 45.3637C119.274 40.9803 124.519 37.856 130.672 37.856C138.566 37.856 144.967 43.0016 144.967 49.3515C144.967 55.7014 138.566 60.8455 130.672 60.8455C129.421 60.8476 128.173 60.714 126.948 60.4467C125.966 60.2389 125.005 59.9377 124.076 59.5471C123.395 59.2636 122.734 58.9291 122.1 58.5462L115.412 61.4931L116.45 59.2951L117.679 56.6912" stroke="black" stroke-width="0.980065" stroke-linecap="round" stroke-linejoin="round"/>
<path d="M124.044 95.2292L119.767 93.733L121.57 99.0035C121.011 99.754 120.554 100.581 120.213 101.46C119.791 102.541 119.574 103.697 119.573 104.863C119.588 106.888 120.227 108.856 121.397 110.482C123.843 113.987 128.513 116.357 133.871 116.357C141.766 116.357 148.166 111.21 148.166 104.863C148.166 98.5152 141.766 93.3696 133.871 93.3696C131.494 93.357 129.138 93.8452 126.949 94.8045C126.381 95.0569 125.828 95.3453 125.294 95.668L124.044 95.2292Z" stroke="black" stroke-width="0.980065" stroke-linecap="round" stroke-linejoin="round"/>
<path d="M40.5283 59.8186V49.8695C40.5283 48.6745 40.9879 47.5284 41.806 46.6834C42.6241 45.8384 43.7337 45.3636 44.8907 45.3636H117.259" stroke="black" stroke-width="0.980065" stroke-linecap="round" stroke-linejoin="round"/>
<path d="M75.7422 110.482H44.8907C43.7337 110.482 42.6241 110.007 41.806 109.162C40.9879 108.317 40.5283 107.171 40.5283 105.976V79.8566" stroke="black" stroke-width="0.980065" stroke-linecap="round" stroke-linejoin="round"/>
<path d="M121.396 110.482H116.158H91.7368" stroke="black" stroke-width="0.980065" stroke-linecap="round" stroke-linejoin="round"/>
<path d="M126.948 60.449V66.3059V94.8045" stroke="black" stroke-width="0.980065" stroke-linecap="round" stroke-linejoin="round"/>
<path d="M43.4004 61.5339V50.8681C43.4006 49.9823 43.7414 49.1328 44.3478 48.5064C44.9542 47.8801 45.7766 47.5281 46.6342 47.5279H116.554" stroke="black" stroke-width="0.980065" stroke-linecap="round" stroke-linejoin="round"/>
<path d="M120.213 101.46H46.6342C45.7766 101.46 44.9542 101.108 44.3478 100.481C43.7414 99.8549 43.4006 99.0054 43.4004 98.1196V79.8566" stroke="black" stroke-width="0.980065" stroke-linecap="round" stroke-linejoin="round"/>
<path d="M124.076 59.5502V60.891V95.1295" stroke="black" stroke-width="0.980065" stroke-linecap="round" stroke-linejoin="round"/>
<path d="M43.4004 53.8934H117.539" stroke="black" stroke-width="0.980065" stroke-linecap="round" stroke-linejoin="round"/>
<path d="M116.689 51.9703H54.9951V49.4253H116.357" stroke="black" stroke-width="0.980065" stroke-linecap="round" stroke-linejoin="round"/>
<path d="M86.1344 105.97C86.1347 106.46 85.9944 106.939 85.7314 107.346C85.4683 107.753 85.0942 108.07 84.6565 108.258C84.2188 108.446 83.737 108.495 83.2721 108.4C82.8072 108.305 82.3801 108.069 82.0447 107.723C81.7094 107.377 81.4809 106.936 81.3881 106.456C81.2954 105.976 81.3425 105.479 81.5236 105.026C81.7047 104.574 82.0116 104.187 82.4055 103.915C82.7994 103.643 83.2626 103.497 83.7366 103.497C84.372 103.497 84.9816 103.757 85.4312 104.221C85.8808 104.685 86.1338 105.314 86.1344 105.97Z" stroke="black" stroke-width="0.980065" stroke-linecap="round" stroke-linejoin="round"/>
<path d="M73.2808 121.688L75.7401 110.482H91.7366L93.1578 116.961L94.196 121.688" stroke="black" stroke-width="0.980065" stroke-linecap="round" stroke-linejoin="round"/>
<path d="M92.7297 121.688H75.3735" stroke="black" stroke-width="0.980065" stroke-linecap="round" stroke-linejoin="round"/>
<path d="M75.7402 110.482L93.1579 116.961" stroke="black" stroke-width="0.980065" stroke-linecap="round" stroke-linejoin="round"/>
<path d="M66.6636 121.688H70.456" stroke="black" stroke-width="0.980065" stroke-linecap="round" stroke-linejoin="round"/>
<path d="M71.582 121.688H73.2806H75.3737" stroke="black" stroke-width="0.980065" stroke-linecap="round" stroke-linejoin="round"/>
<path d="M12.5635 121.688H16.3559" stroke="black" stroke-width="0.980065" stroke-linecap="round" stroke-linejoin="round"/>
<path d="M31.1689 121.688H40.9463" stroke="black" stroke-width="0.980065" stroke-linecap="round" stroke-linejoin="round"/>
<path d="M17.4824 121.688H22.6117" stroke="black" stroke-width="0.980065" stroke-linecap="round" stroke-linejoin="round"/>
<path d="M92.7295 121.688H94.1955H96.5211" stroke="black" stroke-width="0.980065" stroke-linecap="round" stroke-linejoin="round"/>
<path d="M97.6479 121.688H101.44" stroke="black" stroke-width="0.980065" stroke-linecap="round" stroke-linejoin="round"/>
<path d="M50.2466 52.2653L52.7622 50.7668L50.2466 49.2651" stroke="black" stroke-width="0.980065" stroke-linecap="round" stroke-linejoin="round"/>
<path d="M48.6209 49.2651L46.103 50.7668L48.6209 52.2653" stroke="black" stroke-width="0.980065" stroke-linecap="round" stroke-linejoin="round"/>
<path d="M124.076 60.891L126.948 66.3059" stroke="black" stroke-width="0.980065" stroke-linecap="round" stroke-linejoin="round"/>
<path d="M118.604 101.46L116.157 110.482" stroke="black" stroke-width="0.980065" stroke-linecap="round" stroke-linejoin="round"/>
<path d="M43.4004 80.6675L40.5283 84.4567" stroke="black" stroke-width="0.980065" stroke-linecap="round" stroke-linejoin="round"/>
<path d="M31.1693 121.688H22.6117C21.2513 121.688 19.9467 121.129 18.9847 120.136C18.0228 119.142 17.4824 117.795 17.4824 116.39V104.027H36.2985V116.39C36.2983 117.795 35.7578 119.142 34.796 120.136C33.8341 121.129 32.5296 121.687 31.1693 121.688Z" stroke="black" stroke-width="0.980065" stroke-linecap="round" stroke-linejoin="round"/>
<path d="M23.929 104.028C23.9029 101.301 23.6304 98.5832 23.115 95.9091C22.2988 91.7156 20.6731 87.0386 17.4819 84.4559C17.3489 84.3492 17.2182 84.2424 17.0829 84.1419C12.9905 81.1005 8.50803 78.6625 3.76465 76.8979C3.76465 76.8979 8.51085 87.3651 13.0701 91.3302C17.4819 95.1704 21.8861 97.2962 22.0138 104.028" stroke="black" stroke-width="0.980065" stroke-linecap="round" stroke-linejoin="round"/>
<path d="M25.899 96.9177C24.9023 99.1431 24.3783 101.563 24.3623 104.015" stroke="black" stroke-width="0.980065" stroke-linecap="round" stroke-linejoin="round"/>
<path d="M27.4356 94.2056C27.2198 94.5196 27.0131 94.843 26.8162 95.1703C26.4791 95.7338 26.1728 96.3164 25.8989 96.9154" stroke="black" stroke-width="0.980065" stroke-linecap="round" stroke-linejoin="round"/>
<path d="M37.4443 81.0255C36.1736 84.0022 34.5563 86.9561 32.6616 88.5999C32.0465 89.1332 31.4547 89.6733 30.8862 90.2202" stroke="black" stroke-width="0.980065" stroke-linecap="round" stroke-linejoin="round"/>
<path d="M23.1152 95.909C23.3638 94.5651 23.4952 93.0414 23.6541 91.4863C23.7255 90.7853 23.8015 90.0773 23.895 89.3786" stroke="black" stroke-width="0.980065" stroke-linecap="round" stroke-linejoin="round"/>
<path d="M38.3504 88.5999C38.2789 88.7569 35.638 94.5329 33.1064 96.7403C32.5189 97.2506 31.9307 97.7082 31.3751 98.1533C30.8113 98.5962 30.278 99.0791 29.7791 99.5985C29.2284 100.159 28.7928 100.828 28.4983 101.566C28.2038 102.304 28.0565 103.096 28.0653 103.894" stroke="black" stroke-width="0.980065" stroke-linecap="round" stroke-linejoin="round"/>
<path d="M31.0337 92.5288C33.2903 90.8894 35.7492 89.5694 38.3449 88.6038" stroke="black" stroke-width="0.980065" stroke-linecap="round" stroke-linejoin="round"/>
<path d="M26.9761 103.898C26.9899 102.529 27.1134 101.164 27.3454 99.816C27.5667 98.4262 27.9574 97.071 28.5082 95.7826C28.9758 94.6516 29.6965 93.6513 30.6112 92.864C30.751 92.7525 30.8908 92.6403 31.0337 92.5335" stroke="black" stroke-width="0.980065" stroke-linecap="round" stroke-linejoin="round"/>
<path d="M29.7695 99.6024C30.0721 101.059 30.2564 102.539 30.3205 104.027" stroke="black" stroke-width="0.980065" stroke-linecap="round" stroke-linejoin="round"/>
<path d="M19.7637 82.564C20.9719 84.9407 22.3599 87.2151 23.9148 89.3661C25.2068 91.2006 26.4646 92.8514 27.4359 94.2079C27.8539 94.7896 28.2156 95.3148 28.5082 95.7826" stroke="black" stroke-width="0.980065" stroke-linecap="round" stroke-linejoin="round"/>
<path d="M22.5099 62.5089C20.9052 60.5345 19.1752 58.6726 17.3312 56.9354C17.3312 56.9354 13.8466 69.1523 19.2252 81.4054C19.3893 81.7814 19.5618 82.1519 19.7435 82.5256" stroke="black" stroke-width="0.980065" stroke-linecap="round" stroke-linejoin="round"/>
<path d="M31.0337 92.5336C30.9873 91.769 30.9356 90.9973 30.8862 90.2225C30.6719 86.9766 30.4409 83.6921 30.2197 81.0278" stroke="black" stroke-width="0.980065" stroke-linecap="round" stroke-linejoin="round"/>
<path d="M31.6387 103.898C31.6387 103.308 31.5354 101.104 31.3682 98.1573" stroke="black" stroke-width="0.980065" stroke-linecap="round" stroke-linejoin="round"/>
<path d="M19.7638 82.564C19.7638 82.564 19.7562 82.5514 19.744 82.5287C19.4788 82.0663 16.5649 77.0855 13.0264 74.937C13.0264 74.937 13.9923 81.4674 17.0832 84.1442C17.2109 84.256 17.3441 84.3608 17.4822 84.4582C20.8901 86.8917 23.2164 88.4892 23.6542 91.4887" stroke="black" stroke-width="0.980065" stroke-linecap="round" stroke-linejoin="round"/>
<path d="M25.8991 96.9154C25.8892 98.3127 26.2791 101.269 25.8991 103.896" stroke="black" stroke-width="0.980065" stroke-linecap="round" stroke-linejoin="round"/>
<path d="M26.8164 95.1703C26.8164 95.1703 27.22 97.6517 27.3484 99.8136" stroke="black" stroke-width="0.980065" stroke-linecap="round" stroke-linejoin="round"/>
<path d="M51.5034 55.7092V98.6652" stroke="black" stroke-width="0.980065" stroke-linecap="round" stroke-linejoin="round"/>
<path d="M71.5889 59.2958H54.7222C54.3865 59.2956 54.0645 59.1578 53.8271 58.9125C53.5897 58.6673 53.4563 58.3348 53.4561 57.988C53.4569 57.6416 53.5906 57.3095 53.8279 57.0647C54.0652 56.8199 54.3868 56.6822 54.7222 56.6818H71.5889C71.9245 56.6818 72.2464 56.8195 72.4837 57.0646C72.721 57.3097 72.8543 57.6421 72.8543 57.9888C72.8543 58.3354 72.721 58.6679 72.4837 58.913C72.2464 59.1581 71.9245 59.2958 71.5889 59.2958Z" stroke="black" stroke-width="0.980065" stroke-linecap="round" stroke-linejoin="round"/>
<path d="M117.674 56.692C117.638 56.692 117.608 56.6818 117.574 56.6818H78.5755C78.2399 56.6818 77.918 56.8195 77.6807 57.0646C77.4434 57.3097 77.3101 57.6421 77.3101 57.9888C77.3101 58.3354 77.4434 58.6679 77.6807 58.913C77.918 59.1581 78.2399 59.2958 78.5755 59.2958H116.445L117.674 56.692Z" stroke="black" stroke-width="0.980065" stroke-linecap="round" stroke-linejoin="round"/>
<path d="M48.2919 57.988C48.2916 58.1801 48.2362 58.3678 48.1327 58.5274C48.0291 58.687 47.8821 58.8113 47.7102 58.8846C47.5383 58.958 47.3492 58.9771 47.1668 58.9394C46.9844 58.9018 46.8169 58.8092 46.6855 58.6733C46.554 58.5374 46.4645 58.3643 46.4282 58.1759C46.392 57.9875 46.4106 57.7922 46.4817 57.6147C46.5528 57.4372 46.6733 57.2855 46.8279 57.1786C46.9825 57.0718 47.1643 57.0147 47.3503 57.0146C47.4741 57.0144 47.5967 57.0394 47.711 57.0883C47.8254 57.1371 47.9293 57.2088 48.0168 57.2993C48.1043 57.3897 48.1737 57.4971 48.2209 57.6153C48.2681 57.7335 48.2922 57.8601 48.2919 57.988Z" stroke="black" stroke-width="0.980065" stroke-linecap="round" stroke-linejoin="round"/>
<path d="M81.4256 64.8835H54.7222C54.5535 64.8878 54.3856 64.8571 54.2285 64.7934C54.0714 64.7296 53.9282 64.6341 53.8074 64.5123C53.6866 64.3906 53.5906 64.2451 53.5251 64.0844C53.4595 63.9238 53.4258 63.7512 53.4258 63.5769C53.4258 63.4025 53.4595 63.23 53.5251 63.0693C53.5906 62.9086 53.6866 62.7632 53.8074 62.6414C53.9282 62.5196 54.0714 62.4241 54.2285 62.3603C54.3856 62.2966 54.5535 62.266 54.7222 62.2702H81.4256C81.5943 62.266 81.7621 62.2966 81.9192 62.3603C82.0763 62.4241 82.2195 62.5196 82.3403 62.6414C82.4611 62.7632 82.5571 62.9086 82.6226 63.0693C82.6882 63.23 82.722 63.4025 82.722 63.5769C82.722 63.7512 82.6882 63.9238 82.6226 64.0844C82.5571 64.2451 82.4611 64.3906 82.3403 64.5123C82.2195 64.6341 82.0763 64.7296 81.9192 64.7934C81.7621 64.8571 81.5943 64.8878 81.4256 64.8835Z" stroke="black" stroke-width="0.980065" stroke-linecap="round" stroke-linejoin="round"/>
<path d="M117.574 64.8835H88.4113C88.1609 64.884 87.9161 64.8077 87.7078 64.6642C87.4995 64.5207 87.3371 64.3166 87.2413 64.0777C87.1454 63.8388 87.1205 63.5759 87.1695 63.3223C87.2186 63.0687 87.3394 62.8358 87.5168 62.6533C87.6338 62.5313 87.7731 62.4346 87.9267 62.3688C88.0803 62.303 88.2451 62.2695 88.4113 62.2702H117.574C117.743 62.266 117.911 62.2966 118.068 62.3603C118.225 62.4241 118.368 62.5196 118.489 62.6414C118.61 62.7632 118.706 62.9086 118.771 63.0693C118.837 63.23 118.87 63.4025 118.87 63.5769C118.87 63.7512 118.837 63.9238 118.771 64.0844C118.706 64.2451 118.61 64.3906 118.489 64.5123C118.368 64.6341 118.225 64.7296 118.068 64.7934C117.911 64.8571 117.743 64.8878 117.574 64.8835Z" stroke="black" stroke-width="0.980065" stroke-linecap="round" stroke-linejoin="round"/>
<path d="M48.2919 63.5756C48.2918 63.7678 48.2365 63.9556 48.133 64.1153C48.0296 64.275 47.8826 64.3994 47.7107 64.4729C47.5389 64.5463 47.3497 64.5655 47.1673 64.528C46.9849 64.4904 46.8173 64.3979 46.6857 64.262C46.5542 64.1262 46.4646 63.9531 46.4283 63.7646C46.3919 63.5762 46.4105 63.3809 46.4816 63.2033C46.5528 63.0258 46.6732 62.874 46.8278 62.7671C46.9824 62.6603 47.1643 62.6032 47.3503 62.603C47.474 62.6028 47.5965 62.6278 47.7109 62.6766C47.8252 62.7254 47.9291 62.7971 48.0166 62.8874C48.104 62.9778 48.1734 63.0851 48.2206 63.2032C48.2679 63.3213 48.2921 63.4479 48.2919 63.5756Z" stroke="black" stroke-width="0.980065" stroke-linecap="round" stroke-linejoin="round"/>
<path d="M66.6709 70.475H54.7222C54.3864 70.4746 54.0645 70.3366 53.8271 70.0912C53.5897 69.8459 53.4563 69.5133 53.4561 69.1664C53.4571 68.8201 53.5909 68.4883 53.8282 68.2436C54.0655 67.999 54.3869 67.8614 54.7222 67.861H66.6709C67.0065 67.861 67.3284 67.9987 67.5657 68.2438C67.803 68.4889 67.9363 68.8213 67.9363 69.168C67.9363 69.5146 67.803 69.8471 67.5657 70.0922C67.3284 70.3373 67.0065 70.475 66.6709 70.475Z" stroke="black" stroke-width="0.980065" stroke-linecap="round" stroke-linejoin="round"/>
<path d="M117.574 70.475H73.6568C73.321 70.4744 72.9992 70.3363 72.7619 70.091C72.5245 69.8457 72.391 69.5132 72.3906 69.1664C72.392 68.8202 72.526 68.4887 72.7632 68.2441C73.0004 67.9995 73.3216 67.8618 73.6568 67.861H117.574C117.91 67.861 118.232 67.9987 118.469 68.2438C118.706 68.4889 118.84 68.8213 118.84 69.168C118.84 69.5146 118.706 69.8471 118.469 70.0922C118.232 70.3373 117.91 70.475 117.574 70.475Z" stroke="black" stroke-width="0.980065" stroke-linecap="round" stroke-linejoin="round"/>
<path d="M47.8196 69.8392C47.8196 69.8949 47.8196 69.9507 47.8143 70.004C47.9693 69.9137 48.0962 69.7796 48.1799 69.6174C48.2636 69.4551 48.3006 69.2716 48.2867 69.0883C48.2728 68.9051 48.2086 68.7297 48.1014 68.5829C47.9943 68.4362 47.8488 68.324 47.6821 68.2598H47.6768C47.744 68.6443 47.7877 69.0329 47.8075 69.4231V69.4545C47.8166 69.5801 47.8196 69.7097 47.8196 69.8392Z" stroke="black" stroke-width="0.980065" stroke-linecap="round" stroke-linejoin="round"/>
<path d="M96.1802 76.0596H54.7222C54.3865 76.0593 54.0645 75.9215 53.8271 75.6763C53.5897 75.4311 53.4563 75.0985 53.4561 74.7517C53.4567 74.4053 53.5903 74.0733 53.8277 73.8285C54.0651 73.5838 54.3868 73.4463 54.7222 73.4463H96.1802C96.5104 73.4546 96.8242 73.596 97.0549 73.8401C97.2855 74.0842 97.4146 74.4118 97.4146 74.7529C97.4146 75.094 97.2855 75.4216 97.0549 75.6657C96.8242 75.9099 96.5104 76.0512 96.1802 76.0596Z" stroke="black" stroke-width="0.980065" stroke-linecap="round" stroke-linejoin="round"/>
<path d="M117.574 76.0595H103.166C102.83 76.0593 102.508 75.9215 102.271 75.6762C102.034 75.431 101.9 75.0985 101.9 74.7517C101.901 74.4053 102.034 74.0732 102.272 73.8285C102.509 73.5837 102.831 73.4463 103.166 73.4463H117.574C117.743 73.442 117.911 73.4726 118.068 73.5364C118.225 73.6001 118.368 73.6957 118.489 73.8174C118.61 73.9392 118.706 74.0847 118.771 74.2453C118.837 74.406 118.871 74.5785 118.871 74.7529C118.871 74.9272 118.837 75.0998 118.771 75.2605C118.706 75.4211 118.61 75.5666 118.489 75.6883C118.368 75.8101 118.225 75.9057 118.068 75.9694C117.911 76.0332 117.743 76.0638 117.574 76.0595Z" stroke="black" stroke-width="0.980065" stroke-linecap="round" stroke-linejoin="round"/>
<path d="M46.9712 73.8505C47.0472 73.772 47.2858 73.7775 47.3512 73.7775C47.6009 73.7775 47.8404 73.88 48.017 74.0624C48.1936 74.2448 48.2928 74.4921 48.2928 74.7501C48.2928 75.0081 48.1936 75.2554 48.017 75.4378C47.8404 75.6202 47.6009 75.7227 47.3512 75.7227C47.1504 75.7178 46.9563 75.6477 46.7964 75.5222C46.6365 75.3968 46.5189 75.2225 46.4604 75.0241" stroke="black" stroke-width="0.980065" stroke-linecap="round" stroke-linejoin="round"/>
<path d="M64.2116 81.648H54.7222C54.3864 81.6476 54.0645 81.5095 53.8271 81.2642C53.5897 81.0189 53.4563 80.6862 53.4561 80.3394C53.4571 79.9931 53.5909 79.6613 53.8282 79.4166C54.0655 79.1719 54.3869 79.0343 54.7222 79.0339H64.2116C64.5472 79.0339 64.869 79.1716 65.1064 79.4168C65.3437 79.6619 65.477 79.9943 65.477 80.341C65.477 80.6876 65.3437 81.0201 65.1064 81.2652C64.869 81.5103 64.5472 81.648 64.2116 81.648Z" stroke="black" stroke-width="0.980065" stroke-linecap="round" stroke-linejoin="round"/>
<path d="M117.574 81.648H71.1981C70.8622 81.6476 70.5402 81.5096 70.3027 81.2642C70.0652 81.0189 69.9316 80.6863 69.9312 80.3394C69.9326 79.9931 70.0666 79.6614 70.304 79.4168C70.5413 79.1722 70.8628 79.0346 71.1981 79.0339H117.574C117.91 79.0339 118.231 79.1716 118.469 79.4168C118.706 79.6619 118.839 79.9943 118.839 80.341C118.839 80.6876 118.706 81.0201 118.469 81.2652C118.231 81.5103 117.91 81.648 117.574 81.648Z" stroke="black" stroke-width="0.980065" stroke-linecap="round" stroke-linejoin="round"/>
<path d="M86.3435 87.2355H54.7222C54.3865 87.2353 54.0645 87.0975 53.8271 86.8522C53.5897 86.607 53.4563 86.2745 53.4561 85.9277C53.4567 85.5813 53.5903 85.2492 53.8277 85.0045C54.0651 84.7597 54.3868 84.6223 54.7222 84.6223H86.3435C86.6737 84.6306 86.9876 84.7719 87.2182 85.0161C87.4488 85.2602 87.5779 85.5878 87.5779 85.9289C87.5779 86.27 87.4488 86.5976 87.2182 86.8417C86.9876 87.0858 86.6737 87.2272 86.3435 87.2355Z" stroke="black" stroke-width="0.980065" stroke-linecap="round" stroke-linejoin="round"/>
<path d="M117.574 87.2355H93.3299C92.9941 87.2353 92.6721 87.0975 92.4346 86.8523C92.197 86.6071 92.0634 86.2746 92.063 85.9277C92.064 85.5813 92.1979 85.2493 92.4354 85.0046C92.6728 84.76 92.9945 84.6225 93.3299 84.6223H117.574C117.904 84.6306 118.218 84.7719 118.449 85.0161C118.679 85.2602 118.808 85.5878 118.808 85.9289C118.808 86.27 118.679 86.5976 118.449 86.8417C118.218 87.0858 117.904 87.2272 117.574 87.2355Z" stroke="black" stroke-width="0.980065" stroke-linecap="round" stroke-linejoin="round"/>
<path d="M48.2919 85.9277C48.2916 86.1199 48.2362 86.3076 48.1327 86.4672C48.0291 86.6268 47.8821 86.7511 47.7102 86.8244C47.5383 86.8977 47.3492 86.9168 47.1668 86.8792C46.9844 86.8416 46.8169 86.749 46.6855 86.6131C46.554 86.4772 46.4645 86.3041 46.4282 86.1157C46.392 85.9273 46.4106 85.732 46.4817 85.5545C46.5528 85.377 46.6733 85.2252 46.8279 85.1184C46.9825 85.0116 47.1643 84.9545 47.3503 84.9543C47.4741 84.9541 47.5967 84.9792 47.711 85.028C47.8254 85.0769 47.9293 85.1486 48.0168 85.239C48.1043 85.3295 48.1737 85.4369 48.2209 85.5551C48.2681 85.6732 48.2922 85.7999 48.2919 85.9277Z" stroke="black" stroke-width="0.980065" stroke-linecap="round" stroke-linejoin="round"/>
<path d="M103.558 92.8232H54.7222C54.3865 92.823 54.0645 92.6851 53.8271 92.4399C53.5897 92.1947 53.4563 91.8621 53.4561 91.5154C53.4571 91.169 53.5909 90.8372 53.8282 90.5926C54.0655 90.3479 54.3869 90.2103 54.7222 90.2099H103.558C103.888 90.2183 104.202 90.3596 104.433 90.6037C104.664 90.8478 104.793 91.1754 104.793 91.5165C104.793 91.8576 104.664 92.1852 104.433 92.4293C104.202 92.6735 103.888 92.8148 103.558 92.8232Z" stroke="black" stroke-width="0.980065" stroke-linecap="round" stroke-linejoin="round"/>
<path d="M117.574 92.8232H110.544C110.208 92.823 109.886 92.6851 109.648 92.4399C109.411 92.1947 109.278 91.8622 109.277 91.5154C109.278 91.1691 109.412 90.8373 109.649 90.5926C109.887 90.3479 110.208 90.2103 110.544 90.2099H117.574C117.743 90.2057 117.911 90.2363 118.068 90.3C118.225 90.3638 118.368 90.4593 118.489 90.5811C118.61 90.7028 118.706 90.8483 118.771 91.009C118.837 91.1696 118.871 91.3422 118.871 91.5166C118.871 91.6909 118.837 91.8635 118.771 92.0241C118.706 92.1848 118.61 92.3303 118.489 92.452C118.368 92.5738 118.225 92.6693 118.068 92.7331C117.911 92.7968 117.743 92.8275 117.574 92.8232Z" stroke="black" stroke-width="0.980065" stroke-linecap="round" stroke-linejoin="round"/>
<path d="M48.2919 91.513C48.2918 91.7052 48.2365 91.893 48.133 92.0526C48.0296 92.2123 47.8826 92.3368 47.7107 92.4102C47.5389 92.4837 47.3497 92.5029 47.1673 92.4654C46.9849 92.4278 46.8173 92.3353 46.6857 92.1994C46.5542 92.0636 46.4646 91.8905 46.4283 91.702C46.3919 91.5136 46.4105 91.3182 46.4816 91.1407C46.5528 90.9632 46.6732 90.8114 46.8278 90.7045C46.9824 90.5977 47.1643 90.5406 47.3503 90.5404C47.474 90.5402 47.5965 90.5652 47.7109 90.614C47.8252 90.6628 47.9291 90.7345 48.0166 90.8248C48.104 90.9152 48.1734 91.0225 48.2206 91.1406C48.2679 91.2587 48.2921 91.3852 48.2919 91.513Z" stroke="black" stroke-width="0.980065" stroke-linecap="round" stroke-linejoin="round"/>
<path d="M71.5889 98.4116H54.7222C54.3864 98.4112 54.0645 98.2732 53.8271 98.0278C53.5897 97.7825 53.4563 97.4499 53.4561 97.103C53.4571 96.7567 53.5909 96.4249 53.8282 96.1802C54.0655 95.9356 54.3869 95.798 54.7222 95.7975H71.5889C71.9245 95.7975 72.2464 95.9353 72.4837 96.1804C72.721 96.4255 72.8543 96.7579 72.8543 97.1046C72.8543 97.4512 72.721 97.7837 72.4837 98.0288C72.2464 98.2739 71.9245 98.4116 71.5889 98.4116Z" stroke="black" stroke-width="0.980065" stroke-linecap="round" stroke-linejoin="round"/>
<path d="M117.574 98.4116H78.5755C78.2396 98.4112 77.9176 98.2732 77.6801 98.0279C77.4426 97.7825 77.309 97.4499 77.3086 97.103C77.31 96.7567 77.444 96.425 77.6814 96.1804C77.9188 95.9358 78.2402 95.7982 78.5755 95.7975H117.574C117.91 95.7975 118.232 95.9353 118.469 96.1804C118.706 96.4255 118.84 96.7579 118.84 97.1046C118.84 97.4512 118.706 97.7837 118.469 98.0288C118.232 98.2739 117.91 98.4116 117.574 98.4116Z" stroke="black" stroke-width="0.980065" stroke-linecap="round" stroke-linejoin="round"/>
<path d="M48.2919 97.103C48.2918 97.2951 48.2365 97.4829 48.133 97.6426C48.0296 97.8023 47.8826 97.9267 47.7107 98.0002C47.5389 98.0737 47.3497 98.0928 47.1673 98.0553C46.9849 98.0178 46.8173 97.9253 46.6857 97.7894C46.5542 97.6535 46.4646 97.4804 46.4283 97.292C46.3919 97.1035 46.4105 96.9082 46.4816 96.7307C46.5528 96.5531 46.6732 96.4013 46.8278 96.2945C46.9824 96.1876 47.1643 96.1305 47.3503 96.1304C47.474 96.1303 47.5965 96.1554 47.7107 96.2042C47.825 96.253 47.9289 96.3247 48.0163 96.415C48.1038 96.5054 48.1732 96.6126 48.2204 96.7307C48.2677 96.8487 48.292 96.9752 48.2919 97.103Z" stroke="black" stroke-width="0.980065" stroke-linecap="round" stroke-linejoin="round"/>
<path d="M30.4511 69.7779H30.3629H30.2717C29.3587 69.7298 28.5 69.3151 27.8788 68.6223C27.2576 67.9296 26.9231 67.0135 26.9465 66.0696C26.9699 65.1256 27.3494 64.2285 28.0041 63.5694C28.6588 62.9104 29.5369 62.5416 30.4511 62.5418" stroke="black" stroke-width="0.980065" stroke-linecap="round" stroke-linejoin="round"/>
<path d="M25.4731 69.7733H30.4504H30.3622C29.4431 69.801 28.5713 70.2006 27.9348 70.8861C27.2983 71.5716 26.9481 72.488 26.9596 73.4377C26.9712 74.3874 27.3436 75.2944 27.9966 75.9631C28.6496 76.6318 29.5309 77.0087 30.4504 77.0125" stroke="black" stroke-width="0.980065" stroke-linecap="round" stroke-linejoin="round"/>
<path d="M36.7437 69.7779H36.8349H36.923C37.836 69.7298 38.6947 69.3151 39.3159 68.6223C39.9371 67.9296 40.2716 67.0135 40.2482 66.0696C40.2249 65.1256 39.8453 64.2285 39.1906 63.5694C38.5359 62.9104 37.6578 62.5416 36.7437 62.5418" stroke="black" stroke-width="0.980065" stroke-linecap="round" stroke-linejoin="round"/>
<path d="M41.7209 69.7733H36.7437H36.8349C37.7542 69.8011 38.6261 70.201 39.2626 70.8868C39.8991 71.5726 40.2491 72.4893 40.2371 73.4392C40.2251 74.3892 39.8522 75.2962 39.1986 75.9646C38.5451 76.6331 37.6634 77.0094 36.7437 77.0125" stroke="black" stroke-width="0.980065" stroke-linecap="round" stroke-linejoin="round"/>
<path d="M133.691 53.5858L140.372 49.6035L133.691 45.618" stroke="black" stroke-width="0.980065" stroke-linecap="round" stroke-linejoin="round"/>
<path d="M126.833 45.618L120.151 49.6035L126.833 53.5858" stroke="black" stroke-width="0.980065" stroke-linecap="round" stroke-linejoin="round"/>
<path d="M132.164 43.8172L128.17 55.3308" stroke="black" stroke-width="0.980065" stroke-linecap="round" stroke-linejoin="round"/>
<path d="M126.25 109.603L127.332 106.209L129.9 98.1573L132.469 106.209L133.551 109.603" stroke="black" stroke-width="0.980065" stroke-linecap="round" stroke-linejoin="round"/>
<path d="M127.332 106.209H132.468" stroke="black" stroke-width="0.980065" stroke-linecap="round" stroke-linejoin="round"/>
<path d="M139.11 107.627C138.405 109.189 137.084 110.096 136.164 109.654C135.245 109.212 135.073 107.584 135.778 106.019C136.484 104.455 137.802 103.55 138.724 103.992C139.008 104.172 139.235 104.432 139.381 104.741C139.527 105.05 139.584 105.395 139.546 105.736C139.534 106.392 139.386 107.036 139.11 107.627Z" stroke="black" stroke-width="0.980065" stroke-linecap="round" stroke-linejoin="round"/>
<path d="M139.543 105.714V105.736C139.678 107.111 138.864 110.731 140.987 109.257" stroke="black" stroke-width="0.980065" stroke-linecap="round" stroke-linejoin="round"/>
</svg>
