<svg width="153" height="158" viewBox="0 0 153 158" fill="none" xmlns="http://www.w3.org/2000/svg">
<path d="M98.7701 24.3453C102.643 24.3448 106.43 25.5308 109.651 27.7532C112.871 29.9756 115.382 33.1346 116.864 36.8307C118.347 40.5268 118.735 44.594 117.979 48.5179C117.224 52.4418 115.358 56.0461 112.62 58.8751C109.881 61.704 106.391 63.6305 102.592 64.4109C98.7933 65.1913 94.8557 64.7905 91.2773 63.2593C87.6989 61.7281 84.6404 59.1351 82.4888 55.8085C80.3372 52.4818 79.189 48.5707 79.1895 44.57C79.1899 39.2062 81.2529 34.0622 84.9249 30.2694C88.5969 26.4766 93.5771 24.3457 98.7701 24.3453ZM115.186 44.5724C115.187 41.2176 114.225 37.9378 112.421 35.1478C110.618 32.3578 108.054 30.183 105.053 28.8983C102.053 27.6136 98.7509 27.2768 95.5652 27.9304C92.3795 28.5841 89.453 30.1988 87.1558 32.5705C84.8587 34.9421 83.294 37.9642 82.6597 41.2544C82.0253 44.5446 82.3499 47.9552 83.5923 51.0548C84.8347 54.1545 86.9391 56.804 89.6394 58.6683C92.3397 60.5326 95.5145 61.5279 98.7625 61.5284H98.767C100.924 61.5294 103.059 61.0915 105.052 60.2397C107.045 59.3879 108.855 58.1389 110.381 56.564C111.906 54.9891 113.116 53.1193 113.941 51.0613C114.766 49.0033 115.191 46.7976 115.191 44.57L115.186 44.5724Z" fill="#FFD997"/>
<path d="M99.1019 45.1682L99.001 45.2372C99.036 45.2163 99.0697 45.1933 99.1019 45.1682Z" fill="black"/>
<path d="M98.8638 45.2938C98.9069 45.2803 98.9491 45.2638 98.99 45.2443C98.9494 45.2647 98.9072 45.2813 98.8638 45.2938Z" fill="black"/>
<path d="M97.9643 44.6006C97.9605 44.6366 97.9605 44.6729 97.9643 44.7089C97.9613 44.6729 97.9613 44.6367 97.9643 44.6006Z" fill="black"/>
<path d="M99.1598 45.1116L99.1005 45.1689C99.0682 45.1935 99.0347 45.2163 99.0001 45.2372H98.9887C98.9481 45.2567 98.9062 45.2732 98.8634 45.2867C98.8417 45.2945 98.8192 45.3 98.7965 45.3032H98.7699C98.735 45.3063 98.6999 45.3063 98.665 45.3032C98.6286 45.3063 98.592 45.3063 98.5555 45.3032H98.5327C98.5102 45.3001 98.488 45.2946 98.4666 45.2867C98.3541 45.2533 98.2518 45.1905 98.1695 45.1046C98.1189 45.0523 98.0759 44.9929 98.0418 44.9279C98.0227 44.8861 98.0067 44.8428 97.9939 44.7984C97.9863 44.7763 97.9809 44.7534 97.9779 44.7301C97.9772 44.7207 97.9772 44.7113 97.9779 44.7019C97.9741 44.6659 97.9741 44.6295 97.9779 44.5935C97.9779 44.4985 97.996 44.4043 98.0312 44.3165C98.0664 44.2287 98.1181 44.1489 98.1831 44.0817L99.3779 42.843V44.5935C99.378 44.6908 99.3587 44.7869 99.3211 44.8761C99.2836 44.9652 99.2287 45.0454 99.1598 45.1116Z" fill="black"/>
<path d="M99.3653 31.7305V42.558C98.9024 42.4162 98.4057 42.4487 97.9639 42.6499V31.7305C97.9639 31.5386 98.0377 31.3545 98.1691 31.2187C98.3005 31.083 98.4787 31.0068 98.6646 31.0068C98.7566 31.0067 98.8478 31.0253 98.9329 31.0616C99.0179 31.098 99.0952 31.1513 99.1603 31.2185C99.2254 31.2857 99.277 31.3656 99.3122 31.4534C99.3473 31.5413 99.3654 31.6355 99.3653 31.7305Z" fill="black"/>
<path d="M99.3653 42.558V42.8532L98.1691 44.0888C98.104 44.156 98.0523 44.2358 98.0171 44.3236C97.9819 44.4114 97.9638 44.5056 97.9639 44.6006V42.6499C98.4057 42.4487 98.9024 42.4162 99.3653 42.558Z" fill="black"/>
<path d="M104.614 39.4808L100.603 43.628C100.385 43.1839 100.022 42.8338 99.5781 42.6397L103.621 38.4619C103.684 38.3886 103.761 38.3294 103.848 38.288C103.934 38.2465 104.028 38.2237 104.123 38.2208C104.218 38.218 104.313 38.2352 104.401 38.2714C104.49 38.3076 104.57 38.362 104.638 38.4314C104.706 38.5007 104.759 38.5836 104.794 38.6749C104.83 38.7661 104.847 38.8639 104.845 38.9622C104.842 39.0606 104.821 39.1574 104.781 39.2468C104.741 39.3363 104.685 39.4164 104.614 39.4824V39.4808Z" fill="black"/>
<path d="M99.5782 42.6358C100.022 42.8298 100.385 43.18 100.603 43.6241L99.1587 45.1156C99.2244 45.049 99.2765 44.9695 99.3117 44.8817C99.347 44.7939 99.3647 44.6996 99.3639 44.6045V42.8532L99.5744 42.6358H99.5782Z" fill="black"/>
<path d="M100.823 44.57C100.823 44.9491 100.724 45.3212 100.537 45.6471C100.349 45.973 100.08 46.2406 99.7577 46.4214C99.4352 46.6023 99.0713 46.6898 98.7046 46.6747C98.3379 46.6596 97.982 46.5424 97.6744 46.3356C97.3669 46.1287 97.1191 45.8399 96.9574 45.4996C96.7957 45.1593 96.726 44.7802 96.7557 44.4024C96.7854 44.0245 96.9134 43.662 97.1261 43.3531C97.3388 43.0442 97.6284 42.8004 97.9643 42.6475V44.5982C97.9612 44.6343 97.9612 44.6705 97.9643 44.7066C97.9635 44.716 97.9635 44.7254 97.9643 44.7348C97.9673 44.7581 97.9727 44.781 97.9802 44.8031C97.993 44.8475 98.009 44.8908 98.0281 44.9327C98.0622 44.9976 98.1052 45.057 98.1558 45.1093C98.2381 45.1953 98.3404 45.258 98.4529 45.2914C98.4744 45.2993 98.4965 45.3048 98.5191 45.3079H98.5419C98.5783 45.311 98.6149 45.311 98.6513 45.3079C98.6862 45.311 98.7213 45.311 98.7562 45.3079H98.7835C98.8063 45.3047 98.8287 45.2992 98.8504 45.2914C98.8936 45.2789 98.9356 45.2623 98.9758 45.2419H98.9872L99.0875 45.1737L99.1506 45.1195L100.595 43.628C100.741 43.9192 100.819 44.2419 100.823 44.57Z" fill="#81F8F8"/>
<path d="M45.1142 81.0929C45.4458 80.749 45.84 80.4764 46.2741 80.2906C46.7082 80.1048 47.1736 80.0096 47.6435 80.0104C48.5358 80.0285 49.3932 80.3726 50.0633 80.9814L50.175 81.0929C50.5078 81.4361 50.7716 81.8437 50.9514 82.2924C51.1313 82.7411 51.2236 83.2221 51.2231 83.7077C51.2228 84.1344 51.1519 84.5579 51.0133 84.9598C50.5997 84.573 50.1645 84.2115 49.7099 83.8773C49.5389 83.7535 49.3383 83.6806 49.1299 83.6665C48.9215 83.6525 48.7133 83.6978 48.5282 83.7976C48.343 83.8974 48.188 84.0478 48.0799 84.2324C47.9719 84.417 47.915 84.6287 47.9156 84.8444H47.5006C47.5022 84.5712 47.4117 84.3059 47.2447 84.094C47.0777 83.8821 46.8445 83.7368 46.5852 83.683C46.3258 83.6292 46.0564 83.6702 45.8231 83.799C45.5898 83.9279 45.4072 84.1365 45.3065 84.3891C45.2905 84.4268 45.213 84.6246 45.099 84.9292L44.9234 84.8444V82.1864H44.3823C44.5597 81.7788 44.8077 81.4082 45.1142 81.0929Z" fill="black"/>
<path d="M51.0209 84.9598C50.754 85.7235 50.2507 86.375 49.589 86.8132C49.2179 86.4529 48.8244 86.1181 48.411 85.8107C48.1591 85.6371 47.9842 85.3672 47.9249 85.0604C47.8656 84.7536 47.9268 84.4351 48.0949 84.1748C48.263 83.9146 48.5243 83.734 48.8213 83.6727C49.1183 83.6115 49.4268 83.6746 49.6787 83.8482L49.7175 83.8757C50.1721 84.2104 50.6073 84.5724 51.0209 84.9598Z" fill="black"/>
<path d="M54.1873 92.55C54.4186 92.8843 54.5709 93.27 54.6319 93.6761C54.6929 94.0822 54.6608 94.4975 54.5384 94.8885C54.4155 95.2752 54.1927 95.62 53.8939 95.8854C53.594 96.1509 53.228 96.3241 52.8375 96.3855L52.7258 96.4043C52.4765 96.4491 52.2371 96.5197 51.9331 96.6029L52.0585 96.3973C52.9015 95.1564 53.5746 93.8012 54.0588 92.3702L54.1873 92.55Z" fill="#81F8F8"/>
<path d="M51.1807 88.2278L54.0619 92.371C53.5777 93.802 52.9045 95.1572 52.0616 96.3981L51.9362 96.6037C51.1706 96.8124 50.3927 96.9697 49.6075 97.0747C49.4059 97.1052 49.2011 97.1052 48.9995 97.0747C49.3468 96.4216 49.742 95.7732 50.1395 95.1342C51.0348 93.6725 51.9635 92.163 51.9932 90.9824C51.9391 90.026 51.5823 89.1145 50.9778 88.3879L51.1807 88.2278Z" fill="black"/>
<path d="M84.4679 101.169C84.4816 104.734 78.8105 108.478 78.8105 108.478L78.6326 108.504C78.5414 107.849 78.4289 107.186 78.3013 106.536C79.8881 105.408 82.7192 103.283 82.9517 101.112C83.109 99.6527 82.9654 98.662 81.8307 98.235C83.0247 98.089 84.458 98.4571 84.4679 101.169Z" fill="#81F8F8"/>
<path d="M141.951 101.395C142.492 103.913 142.236 105.203 141.316 105.733C140.928 105.832 140.528 105.875 140.129 105.861V105.721C141.483 100.351 137.869 100.947 136.933 99.8269C135.997 98.7067 136.435 96.4192 136.021 95.2519C135.607 94.0846 134.37 93.9457 133.718 93.5736C132.665 92.9723 132.156 91.4675 132.135 89.4563C132.135 88.5276 131.925 87.5723 131.343 87.2277C129.811 86.3249 129.044 89.1807 129.015 89.2914C128.689 88.5988 128.295 87.943 127.839 87.3344C127.801 87.1486 127.753 86.9651 127.695 86.7849L127.839 86.7355C128.131 85.7566 128.903 84.2643 130.074 83.7972C130.221 83.7413 130.374 83.708 130.53 83.6983C131.731 83.6198 133.418 84.7714 133.727 87.3321C134.087 90.2366 134.639 91.1213 135.308 91.4486C135.978 91.776 137.208 91.9628 137.612 93.1277C138.015 94.2927 137.566 96.5817 138.524 97.7019C139.481 98.8221 141.406 98.8739 141.951 101.395Z" fill="#FFD997"/>
<path d="M51.1806 88.2278L50.9686 88.3847C50.5513 87.8203 50.0866 87.295 49.5801 86.8147C50.2418 86.3765 50.7451 85.7251 51.0119 84.9614C52.3997 86.2488 54.3468 88.5221 54.267 91.064C54.2501 91.5071 54.1812 91.9465 54.0618 92.3726L51.1806 88.2278Z" fill="black"/>
<path d="M76.2398 98.9116C76.1217 98.5409 75.9267 98.2014 75.6684 97.9166C75.41 97.6319 75.0946 97.4089 74.7441 97.2631C75.9428 96.4865 77.2619 95.9289 78.6437 95.6146C80.796 95.2394 85.1181 95.1099 85.9488 98.8614C84.6021 95.6288 81.2186 96.4397 80.2412 96.789C78.8683 97.4382 77.5615 98.2271 76.3401 99.144H76.2831C76.2741 99.0656 76.2596 98.9879 76.2398 98.9116Z" fill="white"/>
<path d="M130.518 83.7054C130.362 83.715 130.209 83.7484 130.062 83.8043C128.889 84.2753 128.119 85.7668 127.827 86.7426L127.683 86.792C127.519 86.2712 127.226 85.804 126.833 85.4369C126.439 85.0698 125.959 84.8157 125.441 84.7C125.143 84.6131 124.838 84.5555 124.529 84.5281C124.644 84.0793 124.892 83.679 125.239 83.3833C125.585 83.0877 126.013 82.9115 126.461 82.8796C127.852 82.8845 129.229 83.1648 130.518 83.7054Z" fill="#81F8F8"/>
<path d="M39.063 71.103C39.5298 71.1031 39.992 71.1982 40.4232 71.3828C40.8544 71.5674 41.2462 71.8379 41.5762 72.1789C41.9062 72.5199 42.1679 72.9247 42.3465 73.3702C42.525 73.8156 42.6169 74.2931 42.6168 74.7752V74.9566C42.502 77.3422 42.3652 80.304 42.2877 82.1903H25.6437V80.052L21.8019 74.5366C21.5776 74.2123 21.444 73.8305 21.4158 73.4331C21.3876 73.0356 21.4658 72.6378 21.6419 72.2832C21.8181 71.9286 22.0853 71.6309 22.4143 71.4227C22.7433 71.2146 23.1215 71.1039 23.5073 71.103H39.063Z" fill="#81F8F8"/>
<path d="M50.0619 80.9814C49.392 80.3722 48.5345 80.0281 47.6421 80.0104C47.7415 77.472 48.1668 74.9584 48.9067 72.5356C49.0698 72.1112 49.3527 71.7473 49.7187 71.4911C50.0846 71.2349 50.5167 71.0984 50.9587 71.0991H52.6155C53.0022 71.0993 53.3814 71.2096 53.7113 71.4178C54.0412 71.6261 54.3092 71.9243 54.4857 72.2797C54.6622 72.6351 54.7404 73.0338 54.7117 73.4321C54.6831 73.8304 54.5487 74.2129 54.3232 74.5374L50.0619 80.9814Z" fill="#81F8F8"/>
<path d="M114.901 79.5174H121.638C121.375 80.3252 120.881 81.0319 120.222 81.5445C119.562 82.0571 118.768 82.3518 117.944 82.3897H111.933C111.109 82.3517 110.315 82.0571 109.655 81.5444C108.996 81.0318 108.503 80.3252 108.239 79.5174H114.901Z" fill="black"/>
<path d="M49.6073 97.0818C50.3925 96.9768 51.1704 96.8194 51.9359 96.6108C50.9935 98.1549 50.0641 99.7327 50.1879 100.949C50.204 101.103 50.1905 101.259 50.1482 101.407C50.1059 101.556 50.0358 101.694 49.9417 101.815C49.8476 101.935 49.7314 102.035 49.5999 102.109C49.4683 102.183 49.3239 102.23 49.1749 102.246C49.1336 102.249 49.0922 102.249 49.051 102.246C48.7682 102.248 48.495 102.141 48.2843 101.946C48.0736 101.751 47.9406 101.482 47.911 101.192C47.8536 99.7396 48.2296 98.304 48.9879 97.0794C49.1931 97.1125 49.4019 97.1133 49.6073 97.0818Z" fill="black"/>
<path d="M17.2154 115.026C17.2154 116.306 26.5756 117.342 38.1428 117.342C43.266 117.342 47.9597 117.139 51.5948 116.802H51.6222C51.4665 120.028 51.6962 123.262 52.3062 126.43L52.1466 126.472C50.2671 127.179 45.9024 128.245 38.0562 128.245C33.3066 128.258 28.5794 127.573 24.0167 126.21C22.945 125.878 21.96 125.299 21.1355 124.518C17.8774 122.214 17.0444 118.599 17.0444 115.208V115.024L17.2154 115.026Z" fill="black"/>
<path d="M25.6417 84.8444C25.3112 84.8278 24.9996 84.6805 24.7715 84.4331C24.5433 84.1857 24.416 83.8571 24.416 83.5154C24.416 83.1737 24.5433 82.8451 24.7715 82.5977C24.9996 82.3503 25.3112 82.203 25.6417 82.1864V84.8444Z" fill="black"/>
<path d="M74.7446 97.2686C75.0954 97.4137 75.4112 97.6365 75.6696 97.9213C75.928 98.2061 76.1228 98.5461 76.2403 98.9171C76.26 98.9945 76.2745 99.0731 76.2836 99.1526C76.6142 101.866 71.3937 105.486 64.3577 107.361C57.3216 109.235 51.0736 108.674 50.0803 106.144C50.0473 106.068 50.0206 105.989 50.0005 105.908C49.5445 104.103 51.7196 101.833 55.3357 99.947C57.4268 98.8802 59.6215 98.0455 61.8831 97.457C67.33 96.0024 72.3133 96.0118 74.7446 97.2686Z" fill="#81F8F8"/>
<path d="M136.917 99.834C137.865 100.952 141.483 100.355 140.109 105.729V105.866C138.678 105.904 136.372 105.787 135.416 105.359C133.972 104.71 135.532 102.529 135.473 100.879C135.414 99.2288 133.856 99.8717 132.76 98.3433C131.468 96.5472 132.931 95.219 131.868 94.715C131.151 94.3215 130.544 93.7451 130.103 93.0406C129.94 91.7364 129.563 90.4703 128.989 89.2962C129.019 89.1855 129.786 86.3297 131.318 87.2324C131.9 87.5747 132.101 88.5324 132.11 89.461C132.13 91.4722 132.642 92.977 133.692 93.5783C134.345 93.9504 135.592 94.0925 135.996 95.2567C136.399 96.4208 135.967 98.7114 136.917 99.834Z" fill="black"/>
<path d="M76.5615 130.618C76.5615 130.618 90.3251 131.865 83.6888 134.814C75.6852 138.375 63.2091 137.121 60.3484 136.088C56.9284 134.847 56.8372 133.414 56.835 133.34C58.8011 134.583 61.4603 135.104 65.3302 135.043H65.369C71.3616 135.143 74.4502 133.846 76.5615 130.618Z" fill="black"/>
<path d="M51.7396 114.328C51.7032 114.845 51.653 115.717 51.6211 116.802H51.5937C47.9571 117.139 43.2588 117.34 38.1417 117.34C26.5836 117.34 17.2144 116.304 17.2144 115.024C17.2144 113.743 26.5753 112.708 38.1425 112.708C43.3523 112.708 47.888 112.918 51.5504 113.267L51.6804 113.224C51.8901 113.93 52.1234 114.637 52.3788 115.33C52.2111 115.221 52.0697 115.075 51.9656 114.901C51.8615 114.727 51.7975 114.531 51.7784 114.327L51.7396 114.328Z" fill="#FFD997"/>
<path d="M117.581 84.0139V84.2494H112.298V82.3889H117.583L117.581 84.0139Z" fill="#FFD997"/>
<path d="M53.989 130.384C54.7051 131.582 55.679 132.594 56.8352 133.341C50.8381 135.409 31.7446 134.814 24.4045 132.488C22.9265 132.061 21.6304 131.133 20.7246 129.853C21.8889 130.351 27.6672 132.723 38.0632 132.723C43.4575 132.806 48.8311 132.017 53.989 130.384Z" fill="black"/>
<path d="M127.831 87.3391H102.048C102.137 86.7006 102.413 86.1055 102.839 85.6337C103.265 85.1619 103.821 84.8361 104.431 84.7C105.426 84.3585 109.535 84.269 112.296 84.2502H117.581C119.82 84.2666 122.893 84.3287 124.529 84.528C124.838 84.5555 125.143 84.613 125.441 84.7C125.96 84.8157 126.439 85.0697 126.833 85.4368C127.226 85.8039 127.519 86.2712 127.683 86.792C127.742 86.9714 127.792 87.154 127.831 87.3391Z" fill="white"/>
<path d="M42.2844 82.1864H44.3827C44.1721 82.664 44.0637 83.1829 44.0651 83.7077C44.0644 84.0935 44.1221 84.477 44.2361 84.8444H42.2114C42.2114 84.3514 42.2114 83.9597 42.2274 83.7077C42.2365 83.3843 42.257 82.8489 42.2844 82.1864Z" fill="black"/>
<path d="M47.5007 84.8444C47.4999 85.0005 47.4697 85.1548 47.4118 85.2989C47.4118 85.3178 47.0804 86.1271 46.7133 87.2756C45.9275 87.0573 45.2372 86.5689 44.7563 85.8908C44.8863 85.507 45.0056 85.1843 45.0991 84.9292C45.2131 84.6199 45.2906 84.4268 45.3066 84.3891C45.4073 84.1365 45.59 83.9279 45.8232 83.799C46.0565 83.6702 46.3259 83.6292 46.5853 83.683C46.8446 83.7368 47.0778 83.8821 47.2448 84.094C47.4118 84.3059 47.5023 84.5712 47.5007 84.8444Z" fill="black"/>
<path d="M44.9236 84.8444L45.0992 84.9292C45.0057 85.1812 44.8864 85.507 44.7564 85.8908C44.5306 85.5725 44.3549 85.2194 44.2358 84.8444H44.9236Z" fill="black"/>
<path d="M42.2108 93.7895C42.215 94.7997 41.8342 95.7711 41.1508 96.4937C40.4673 97.2164 39.5361 97.6323 38.5582 97.6517C38.1448 97.6517 37.7549 97.6658 37.4304 97.6658C32.7253 97.6043 28.0311 97.1826 23.3864 96.4043L23.2853 96.3878C22.894 96.326 22.5272 96.1527 22.2261 95.8875C21.925 95.6222 21.7014 95.2754 21.5806 94.8861C21.4579 94.4957 21.426 94.0808 21.4874 93.6752C21.5488 93.2697 21.7018 92.8847 21.934 92.5515L25.639 87.2198V84.846H42.207C42.1948 86.938 42.2017 90.8591 42.2108 93.7895Z" fill="#81F8F8"/>
<path d="M136.298 123.112C136.298 123.112 147.69 126.062 129.239 129.273C111.182 132.413 96.6469 127.823 93.5811 123.112C93.5811 123.112 98.3478 127.828 114.937 127.828C133.621 127.823 136.298 123.112 136.298 123.112Z" fill="black"/>
<path d="M77.3682 86.372C78.5485 86.1177 80.1756 85.7825 80.9402 85.7024C81.1351 85.6797 81.332 85.6797 81.5269 85.7024C82.5286 85.8296 82.7665 86.6123 82.0863 87.0299C81.5406 87.3604 79.0105 87.0935 77.3879 86.8792C77.3289 86.8725 77.2741 86.8441 77.2335 86.7993C77.1929 86.7544 77.1692 86.696 77.1667 86.6347C77.1642 86.5734 77.1831 86.5131 77.2199 86.465C77.2568 86.4168 77.3091 86.3838 77.3674 86.372H77.3682Z" fill="#FFD997"/>
<path d="M78.3718 115.255C78.5094 114.758 78.6279 114.229 78.7283 113.675C78.7257 113.641 78.7312 113.607 78.7442 113.576L78.8833 113.602C78.8833 113.602 79.8082 123.855 77.7182 128.486C77.389 129.223 77.0034 129.932 76.5653 130.606C74.454 133.824 71.3654 135.131 65.3796 135.034H65.3409C61.4709 135.095 58.8117 134.563 56.8456 133.331C55.6855 132.588 54.7075 131.578 53.988 130.379C53.6124 129.77 53.2775 129.135 52.9855 128.479C52.6973 127.818 52.4718 127.13 52.3122 126.425C51.6974 123.258 51.4676 120.023 51.6282 116.797C51.6601 115.712 51.7103 114.84 51.7467 114.324H51.7855C51.8046 114.527 51.8686 114.723 51.9727 114.897C52.0768 115.071 52.2182 115.217 52.3859 115.326C54.0913 116.712 59.2457 117.719 65.3371 117.719C71.5349 117.726 76.7675 116.679 78.3718 115.255Z" fill="#FFD997"/>
<path d="M50.9667 88.3855C51.5691 89.1134 51.9255 90.0242 51.982 90.98C51.9455 92.1575 51.0237 93.6702 50.1284 95.1318C49.7385 95.7708 49.3433 96.4192 48.9884 97.0724C48.4739 96.997 48.0022 96.735 47.6576 96.3334C47.313 95.9317 47.1179 95.4164 47.1074 94.8798C47.0595 92.3992 47.0162 88.749 47.1461 87.3603C47.3073 87.3839 47.4698 87.3957 47.6325 87.3957C48.3201 87.3965 48.9932 87.1917 49.5705 86.8061C50.0802 87.2889 50.5474 87.8174 50.9667 88.3855Z" fill="#81F8F8"/>
<path d="M44.9234 82.1864V84.8444H44.2394C44.1254 84.477 44.0677 84.0935 44.0684 83.7077C44.067 83.1829 44.1754 82.664 44.3861 82.1864H44.9234Z" fill="black"/>
<path d="M64.3576 107.363C71.3937 105.488 76.6141 101.868 76.2835 99.155H76.3405C76.3405 99.155 76.5685 99.801 76.8794 100.847C77.4462 102.717 77.9208 104.614 78.3013 106.533C78.429 107.184 78.5415 107.846 78.6327 108.502C78.7398 109.263 78.8174 110.018 78.8607 110.744C78.9225 111.687 78.8835 112.635 78.7444 113.57C78.7469 113.604 78.7415 113.638 78.7284 113.669C78.6281 114.223 78.5004 114.751 78.372 115.249C76.776 116.662 71.532 117.72 65.3304 117.72C59.239 117.72 54.0824 116.713 52.3792 115.327C52.1239 114.631 51.8906 113.914 51.6808 113.221C50.9924 110.902 50.4517 108.539 50.062 106.147H50.0802C51.0736 108.676 57.3306 109.235 64.3576 107.363Z" fill="white"/>
<path d="M86.4169 100.692C87.0902 105.733 78.8716 110.74 78.8716 110.74H78.8488C78.81 110.014 78.7325 109.259 78.6208 108.498L78.7986 108.472C78.7986 108.472 84.4697 104.732 84.4553 101.162C84.4553 98.4508 83.0113 98.0827 81.8189 98.224C81.3304 98.2929 80.8511 98.4188 80.3901 98.5992C79.2204 99.2254 78.1045 99.9534 77.0544 100.775L76.8675 100.839C76.5521 99.7924 76.3286 99.1463 76.3286 99.1463C77.558 98.2388 78.868 97.454 80.2411 96.8023C81.2185 96.453 84.602 95.6421 85.9487 98.8747C86.1839 99.4557 86.3414 100.067 86.4169 100.692Z" fill="white"/>
<path d="M81.5297 85.6883C83.4586 85.8531 88.3621 88.3808 89.6245 92.6748C91.3937 98.695 90.7272 106.929 94.1609 112.195C94.6011 112.879 95.1049 113.518 95.6649 114.102L95.6969 114.069C94.8958 107.332 98.0483 104.083 98.0483 104.083C97.7496 102.601 97.7478 101.07 98.0431 99.587C98.3384 98.1036 98.9244 96.6983 99.7651 95.4576C99.5112 92.551 100.325 89.6521 102.045 87.3368H127.828C128.285 87.9451 128.679 88.601 129.004 89.2938C129.579 90.4716 129.955 91.7418 130.118 93.05C130.217 93.8525 130.217 94.6646 130.118 95.467C130.957 96.7069 131.542 98.1106 131.837 99.5923C132.131 101.074 132.13 102.602 131.833 104.083C131.833 104.083 134.978 107.332 134.179 114.069C134.179 114.069 137.096 118.314 136.295 123.109C136.295 123.109 133.618 127.826 114.939 127.826C98.3477 127.826 93.5833 123.109 93.5833 123.109C93.3379 121.516 93.4289 119.886 93.8501 118.333C92.7713 117.261 91.8048 116.076 90.9666 114.795C87.5466 109.53 88.885 100.822 87.1157 94.8045C85.3464 88.7867 77.3877 86.8839 77.3877 86.8839C79.0103 87.0982 81.5403 87.3548 82.086 87.0346C82.77 86.6169 82.5283 85.8343 81.5267 85.7071L81.5297 85.6883Z" fill="#81F8F8"/>
<path d="M47.1557 87.3674C47.0066 87.3462 46.8588 87.3156 46.7134 87.2756C47.0805 86.1271 47.3974 85.3178 47.4118 85.2989C47.4697 85.1548 47.4999 85.0005 47.5007 84.8444H47.9142C47.9141 85.0342 47.9584 85.2211 48.0434 85.3894C48.1283 85.5577 48.2514 85.7022 48.4021 85.8108C48.8154 86.1181 49.2089 86.453 49.5801 86.8132C49.0027 87.1988 48.3297 87.4036 47.6421 87.4027C47.4794 87.4027 47.3168 87.3909 47.1557 87.3674Z" fill="black"/>
<path d="M121.638 79.5174H108.239C109.379 77.8453 114.901 77.7841 114.901 77.7841C114.901 77.7841 120.506 77.8453 121.638 79.5174Z" fill="white"/>
<path d="M25.6583 82.1864H42.284C42.2567 82.8489 42.2361 83.3796 42.227 83.7077C42.227 83.9597 42.2133 84.3514 42.2111 84.8444H25.6431V82.1864H25.6583Z" fill="black"/>
<path d="M46.3365 97.0465C46.8937 99.1353 47.1362 101.3 47.0554 103.465C46.642 107.459 42.1998 108.46 42.0128 108.5C41.9378 108.516 41.8614 108.524 41.7848 108.526C41.4993 108.53 41.2226 108.424 41.0093 108.228C40.7961 108.031 40.6619 107.76 40.6332 107.466C40.6045 107.173 40.6835 106.879 40.8546 106.643C41.0256 106.407 41.2762 106.245 41.5568 106.191C41.5819 106.191 44.5588 105.484 44.7959 103.215C44.8385 101.304 44.6081 99.3973 44.1119 97.5559C43.7364 96.0148 43.4943 94.4423 43.3884 92.8569C43.3177 90.5804 44.1689 87.6476 44.7564 85.9002C45.2373 86.5783 45.9276 87.0667 46.7134 87.285C46.0866 89.0484 45.7321 90.9028 45.6631 92.78C45.7697 94.2193 45.995 95.6467 46.3365 97.0465Z" fill="black"/>
<path d="M79.189 44.5724C79.189 49.9369 81.2522 55.0818 84.9247 58.8751C88.5972 62.6684 93.5782 64.7994 98.7719 64.7994C103.966 64.7994 108.947 62.6684 112.619 58.8751C116.292 55.0818 118.355 49.9369 118.355 44.5724C118.355 41.9161 117.848 39.2858 116.864 36.8318C115.88 34.3777 114.438 32.1479 112.619 30.2696C110.801 28.3914 108.642 26.9015 106.266 25.885C103.89 24.8684 101.344 24.3453 98.7719 24.3453C96.2002 24.3453 93.6537 24.8684 91.2778 25.885C88.9019 26.9015 86.7431 28.3914 84.9247 30.2696C83.1062 32.1479 81.6638 34.3777 80.6796 36.8318C79.6955 39.2858 79.189 41.9161 79.189 44.5724Z" stroke="black" stroke-width="0.980065" stroke-linecap="round" stroke-linejoin="round"/>
<path d="M115.191 44.57C115.192 47.9249 114.23 51.2048 112.426 53.9949C110.622 56.7849 108.058 58.9598 105.057 60.2444C102.057 61.529 98.7546 61.8656 95.5688 61.2117C92.383 60.5578 89.4565 58.9427 87.1595 56.5707C84.8624 54.1988 83.2979 51.1765 82.664 47.8861C82.03 44.5956 82.355 41.185 83.5979 38.0853C84.8407 34.9857 86.9456 32.3364 89.6463 30.4725C92.347 28.6086 95.5221 27.6138 98.7702 27.614H98.7748C103.129 27.614 107.304 29.4004 110.383 32.5803C113.461 35.7602 115.191 40.073 115.191 44.57Z" stroke="black" stroke-width="0.980065" stroke-linecap="round" stroke-linejoin="round"/>
<path d="M112.296 82.3897V84.0139" stroke="black" stroke-width="0.980065" stroke-linecap="round" stroke-linejoin="round"/>
<path d="M114.901 82.3897H117.941C118.765 82.3518 119.559 82.0571 120.219 81.5445C120.878 81.0319 121.372 80.3252 121.635 79.5174H108.236C108.5 80.3252 108.993 81.0318 109.652 81.5444C110.312 82.0571 111.106 82.3517 111.93 82.3897H114.898" stroke="black" stroke-width="0.980065" stroke-linecap="round" stroke-linejoin="round"/>
<path d="M117.581 82.3897V84.0139" stroke="black" stroke-width="0.980065" stroke-linecap="round" stroke-linejoin="round"/>
<path d="M121.638 79.5174C120.498 77.8453 114.901 77.7841 114.901 77.7841C114.901 77.7841 109.374 77.8453 108.239 79.5174" stroke="black" stroke-width="0.980065" stroke-linecap="round" stroke-linejoin="round"/>
<path d="M127.831 87.3392C127.793 87.1533 127.745 86.9699 127.687 86.7897C127.523 86.2689 127.23 85.8016 126.837 85.4345C126.443 85.0674 125.964 84.8133 125.445 84.6976C125.147 84.6107 124.842 84.5532 124.533 84.5257C122.897 84.3255 119.821 84.2643 117.585 84.2478H112.298C109.538 84.2667 105.429 84.3562 104.434 84.6976C103.823 84.8338 103.268 85.1596 102.841 85.6314C102.415 86.1031 102.139 86.6983 102.05 87.3368L127.831 87.3392Z" stroke="black" stroke-width="0.980065" stroke-linecap="round" stroke-linejoin="round"/>
<path d="M95.6968 114.072C94.8957 107.335 98.0482 104.086 98.0482 104.086C97.7495 102.603 97.7477 101.073 98.043 99.5894C98.3383 98.106 98.9243 96.7007 99.765 95.46C99.5112 92.5534 100.325 89.6545 102.045 87.3391" stroke="black" stroke-width="0.980065" stroke-linecap="round" stroke-linejoin="round"/>
<path d="M129.007 89.2985C129.582 90.4755 129.958 91.7449 130.121 93.0524C130.22 93.8548 130.22 94.667 130.121 95.4694C130.96 96.7092 131.545 98.113 131.839 99.5946C132.134 101.076 132.133 102.604 131.835 104.086C131.835 104.086 134.981 107.335 134.182 114.072C134.182 114.072 137.099 118.316 136.298 123.112C136.298 123.112 133.621 127.828 114.942 127.828C98.3507 127.828 93.5862 123.112 93.5862 123.112C93.3408 121.518 93.4318 119.889 93.853 118.335" stroke="black" stroke-width="0.980065" stroke-linecap="round" stroke-linejoin="round"/>
<path d="M127.831 87.3391C128.288 87.9475 128.682 88.6034 129.007 89.2961" stroke="black" stroke-width="0.980065" stroke-linecap="round" stroke-linejoin="round"/>
<path d="M100.396 104.647C100.396 104.647 105.087 106.393 113.577 106.403C124.673 106.415 129.24 104.647 129.24 104.647" stroke="black" stroke-width="0.980065" stroke-linecap="round" stroke-linejoin="round"/>
<path d="M102.762 95.646C106.421 96.289 110.128 96.5946 113.839 96.559C122.585 96.559 126.641 95.646 126.641 95.646" stroke="black" stroke-width="0.980065" stroke-linecap="round" stroke-linejoin="round"/>
<path d="M99.4824 114.314C104.028 115.86 108.791 116.613 113.577 116.543C124.673 116.543 129.924 114.314 129.924 114.314" stroke="black" stroke-width="0.980065" stroke-linecap="round" stroke-linejoin="round"/>
<path d="M77.3887 86.8815C77.3887 86.8815 85.3443 88.7843 87.1167 94.8021C88.889 100.82 87.5347 109.527 90.9676 114.793C91.8058 116.073 92.7723 117.259 93.851 118.33C95.3487 119.862 97.0823 121.127 98.981 122.072" stroke="black" stroke-width="0.980065" stroke-linecap="round" stroke-linejoin="round"/>
<path d="M81.5298 85.6883C83.4587 85.8531 88.3622 88.3808 89.6245 92.6748C91.3938 98.695 90.7273 106.929 94.161 112.195C94.6012 112.879 95.1049 113.518 95.665 114.102C96.7778 115.344 98.2588 116.167 99.8747 116.444" stroke="black" stroke-width="0.980065" stroke-linecap="round" stroke-linejoin="round"/>
<path d="M124.53 84.5265C124.645 84.0777 124.893 83.6774 125.239 83.3818C125.586 83.0861 126.013 82.9099 126.462 82.878C127.852 82.879 129.23 83.1578 130.518 83.6991" stroke="black" stroke-width="0.980065" stroke-linecap="round" stroke-linejoin="round"/>
<path d="M129.007 89.2985C129.036 89.1878 129.803 86.332 131.335 87.2348C131.918 87.577 132.118 88.5347 132.127 89.4634C132.148 91.4745 132.659 92.9794 133.71 93.5807C134.363 93.9528 135.61 94.0949 136.013 95.259C136.417 96.4232 135.967 98.713 136.925 99.834C137.884 100.955 141.491 100.355 140.117 105.729" stroke="black" stroke-width="0.980065" stroke-linecap="round" stroke-linejoin="round"/>
<path d="M130.123 93.0524C130.561 93.7592 131.169 94.3363 131.888 94.7268C132.952 95.2213 131.491 96.559 132.78 98.3551C133.876 99.8835 135.434 99.2421 135.493 100.891C135.552 102.539 133.993 104.715 135.436 105.371C136.392 105.799 138.698 105.915 140.129 105.878C140.528 105.891 140.928 105.848 141.316 105.75C142.228 105.22 142.492 103.929 141.951 101.411C141.409 98.8928 139.462 98.8433 138.531 97.7216C137.599 96.5998 138.033 94.3147 137.619 93.1474C137.204 91.9801 135.994 91.7964 135.315 91.4683C134.636 91.1401 134.094 90.2562 133.733 87.3517C133.416 84.791 131.726 83.6355 130.537 83.7179C130.381 83.7276 130.227 83.7609 130.081 83.8169C128.907 84.2879 128.138 85.7794 127.846 86.7551" stroke="black" stroke-width="0.980065" stroke-linecap="round" stroke-linejoin="round"/>
<path d="M81.5276 85.704C81.3327 85.6812 81.1358 85.6812 80.9409 85.704C80.1756 85.7825 78.5484 86.1193 77.3689 86.3736C77.3106 86.3854 77.2582 86.4183 77.2214 86.4665C77.1846 86.5147 77.1657 86.5749 77.1682 86.6363C77.1707 86.6976 77.1944 86.756 77.2349 86.8008C77.2755 86.8457 77.3303 86.874 77.3894 86.8807C79.012 87.095 81.5421 87.3517 82.0877 87.0314C82.7672 86.6122 82.5247 85.8296 81.5276 85.704Z" stroke="black" stroke-width="0.980065" stroke-linecap="round" stroke-linejoin="round"/>
<path d="M93.5811 123.112C96.6469 127.828 111.182 132.414 129.239 129.273C147.69 126.062 136.298 123.112 136.298 123.112" stroke="black" stroke-width="0.980065" stroke-linecap="round" stroke-linejoin="round"/>
<path d="M99.3652 42.558C99.437 42.5794 99.5073 42.6056 99.5758 42.6365" stroke="black" stroke-width="0.980065" stroke-linecap="round" stroke-linejoin="round"/>
<path d="M100.602 43.628C100.784 43.9988 100.855 44.4169 100.806 44.8293C100.757 45.2418 100.591 45.63 100.329 45.945C100.067 46.26 99.7199 46.4876 99.3324 46.5989C98.9449 46.7103 98.5341 46.7005 98.1519 46.5707C97.7698 46.441 97.4336 46.1971 97.1856 45.8699C96.9377 45.5427 96.7893 45.1469 96.7591 44.7326C96.729 44.3183 96.8185 43.9041 97.0162 43.5423C97.214 43.1805 97.5112 42.8874 97.8703 42.7001C97.9007 42.6836 97.9318 42.6687 97.9637 42.6538" stroke="black" stroke-width="0.980065" stroke-linecap="round" stroke-linejoin="round"/>
<path d="M98.7856 27.9131V29.7994" stroke="black" stroke-width="0.980065" stroke-linecap="round" stroke-linejoin="round"/>
<path d="M98.7856 59.2738V61.1602" stroke="black" stroke-width="0.980065" stroke-linecap="round" stroke-linejoin="round"/>
<path d="M82.6567 44.5724H84.4861" stroke="black" stroke-width="0.980065" stroke-linecap="round" stroke-linejoin="round"/>
<path d="M113.249 44.5724H115.077" stroke="black" stroke-width="0.980065" stroke-linecap="round" stroke-linejoin="round"/>
<path d="M87.4282 32.8413L88.721 34.1758" stroke="black" stroke-width="0.980065" stroke-linecap="round" stroke-linejoin="round"/>
<path d="M108.898 55.0152L110.19 56.3505" stroke="black" stroke-width="0.980065" stroke-linecap="round" stroke-linejoin="round"/>
<path d="M87.4282 56.4L88.721 55.0647" stroke="black" stroke-width="0.980065" stroke-linecap="round" stroke-linejoin="round"/>
<path d="M109.059 34.0581L110.351 32.7228" stroke="black" stroke-width="0.980065" stroke-linecap="round" stroke-linejoin="round"/>
<path d="M92.2451 29.3818L92.9899 31.1057" stroke="black" stroke-width="0.980065" stroke-linecap="round" stroke-linejoin="round"/>
<path d="M104.616 58.0217L105.363 59.7456" stroke="black" stroke-width="0.980065" stroke-linecap="round" stroke-linejoin="round"/>
<path d="M84.0884 51.3846L85.7573 50.6153" stroke="black" stroke-width="0.980065" stroke-linecap="round" stroke-linejoin="round"/>
<path d="M112.025 38.5098L113.693 37.7381" stroke="black" stroke-width="0.980065" stroke-linecap="round" stroke-linejoin="round"/>
<path d="M105.97 29.6173L105.155 31.3082" stroke="black" stroke-width="0.980065" stroke-linecap="round" stroke-linejoin="round"/>
<path d="M92.4346 57.6921L91.6191 59.3822" stroke="black" stroke-width="0.980065" stroke-linecap="round" stroke-linejoin="round"/>
<path d="M84.3418 37.1039L85.9788 37.9462" stroke="black" stroke-width="0.980065" stroke-linecap="round" stroke-linejoin="round"/>
<path d="M111.725 51.1883L113.362 52.0306" stroke="black" stroke-width="0.980065" stroke-linecap="round" stroke-linejoin="round"/>
<path d="M78.8105 114.678C78.7093 114.902 78.5593 115.1 78.372 115.255C76.776 116.668 71.532 117.726 65.3304 117.726C59.239 117.726 54.0824 116.719 52.3792 115.333C52.2115 115.225 52.0701 115.078 51.966 114.904C51.862 114.73 51.7979 114.534 51.7788 114.331" stroke="black" stroke-width="0.980065" stroke-linecap="round" stroke-linejoin="round"/>
<path d="M77.0659 118.622C74.7213 119.643 70.3429 120.32 65.3299 120.32C60.317 120.32 55.9356 119.639 53.5933 118.622" stroke="black" stroke-width="0.980065" stroke-linecap="round" stroke-linejoin="round"/>
<path d="M56.8329 133.341C55.6773 132.594 54.7041 131.582 53.989 130.384C53.6134 129.775 53.2785 129.14 52.9865 128.483C52.6983 127.823 52.4728 127.135 52.3132 126.43C51.6984 123.262 51.4686 120.028 51.6292 116.802C51.6611 115.717 51.7112 114.845 51.7477 114.328C51.7705 113.996 51.7865 113.812 51.7865 113.812" stroke="black" stroke-width="0.980065" stroke-linecap="round" stroke-linejoin="round"/>
<path d="M78.8719 113.597C78.8719 113.597 79.7968 123.853 77.7076 128.483C77.3784 129.22 76.9928 129.929 76.5547 130.603C74.4434 133.821 71.3548 135.128 65.369 135.031H65.3302C61.4603 135.092 58.8011 134.56 56.835 133.328" stroke="black" stroke-width="0.980065" stroke-linecap="round" stroke-linejoin="round"/>
<path d="M74.7446 97.2686C75.0954 97.4137 75.4112 97.6365 75.6696 97.9213C75.928 98.2061 76.1228 98.5461 76.2403 98.9171C76.26 98.9945 76.2745 99.0731 76.2836 99.1526C76.6142 101.866 71.3937 105.486 64.3577 107.361C57.3216 109.235 51.0736 108.674 50.0803 106.144C50.0473 106.068 50.0206 105.989 50.0005 105.908C49.5445 104.103 51.7196 101.833 55.3357 99.947C57.4268 98.8802 59.6215 98.0455 61.8831 97.457C67.33 96.0024 72.3133 96.0118 74.7446 97.2686Z" stroke="black" stroke-width="0.980065" stroke-linecap="round" stroke-linejoin="round"/>
<path d="M51.8879 106.106C51.3035 103.764 55.8581 100.525 62.0605 98.8739C68.2629 97.2231 73.7645 97.7796 74.352 100.124" stroke="black" stroke-width="0.980065" stroke-linecap="round" stroke-linejoin="round"/>
<path d="M75.6763 103.951C72.4019 106.429 68.6906 108.223 64.7505 109.233C60.7193 110.373 56.5002 110.62 52.3701 109.957" stroke="black" stroke-width="0.980065" stroke-linecap="round" stroke-linejoin="round"/>
<path d="M52.3905 115.333C52.1351 114.638 51.9018 113.92 51.692 113.227C51.0037 110.908 50.4629 108.545 50.0732 106.153" stroke="black" stroke-width="0.980065" stroke-linecap="round" stroke-linejoin="round"/>
<path d="M76.3403 99.1526C76.3403 99.1526 76.5683 99.7986 76.8792 100.845C77.446 102.714 77.9206 104.612 78.3011 106.531C78.4288 107.182 78.5413 107.844 78.6325 108.5C78.7397 109.261 78.8172 110.015 78.8605 110.742C78.9223 111.685 78.8833 112.633 78.7442 113.568C78.7468 113.601 78.7413 113.635 78.7283 113.666C78.6279 114.221 78.5003 114.749 78.3718 115.247" stroke="black" stroke-width="0.980065" stroke-linecap="round" stroke-linejoin="round"/>
<path d="M76.3403 99.1526C77.5642 98.2397 78.8707 97.451 80.2414 96.7976C81.2188 96.4483 84.6023 95.6374 85.949 98.87C86.1845 99.452 86.342 100.064 86.4172 100.69C87.0905 105.732 78.8719 110.738 78.8719 110.738" stroke="black" stroke-width="0.980065" stroke-linecap="round" stroke-linejoin="round"/>
<path d="M77.0664 100.781C78.1165 99.9596 79.2324 99.2317 80.402 98.6055C80.8664 98.4278 81.3488 98.3051 81.84 98.2396C83.0339 98.0983 84.468 98.4752 84.4772 101.178C84.4908 104.743 78.8197 108.488 78.8197 108.488" stroke="black" stroke-width="0.980065" stroke-linecap="round" stroke-linejoin="round"/>
<path d="M74.7422 97.2709C75.9408 96.4943 77.2599 95.9367 78.6417 95.6224C80.7941 95.2472 85.1162 95.1177 85.9469 98.8692" stroke="black" stroke-width="0.980065" stroke-linecap="round" stroke-linejoin="round"/>
<path d="M81.8395 98.2397C82.9795 98.6667 83.1178 99.6527 82.9605 101.117C82.7325 103.288 79.8969 105.413 78.3101 106.54" stroke="black" stroke-width="0.980065" stroke-linecap="round" stroke-linejoin="round"/>
<path d="M56.835 133.341C56.835 133.412 56.9155 134.845 60.3484 136.088C63.2091 137.122 75.6852 138.376 83.6888 134.815C90.3251 131.866 76.5615 130.619 76.5615 130.619" stroke="black" stroke-width="0.980065" stroke-linecap="round" stroke-linejoin="round"/>
<path d="M51.6443 71.103L59.6 55.874C59.6971 55.6835 59.745 55.4703 59.7389 55.2551C59.7328 55.0399 59.673 54.83 59.5653 54.6457C59.4576 54.4613 59.3056 54.3089 59.124 54.2031C58.9425 54.0973 58.7376 54.0417 58.5291 54.0418H56.7279C56.3087 54.0418 55.9017 54.1878 55.5727 54.4563L54.5711 55.2703C54.0056 55.7312 53.3098 55.9884 52.5896 56.0026C51.8695 56.0167 51.1646 55.7872 50.5826 55.3488L49.3293 54.4068C49.0107 54.1681 48.6271 54.0395 48.2334 54.0395H17.5925C17.384 54.0398 17.1791 54.0958 16.9977 54.2019C16.8163 54.308 16.6645 54.4608 16.5571 54.6453C16.4496 54.8298 16.3901 55.0399 16.3843 55.2552C16.3785 55.4704 16.4266 55.6836 16.5239 55.874L24.4796 71.0967" stroke="black" stroke-width="0.980065" stroke-linecap="round" stroke-linejoin="round"/>
<path d="M25.6412 82.1864V80.052L21.7994 74.5366C21.575 74.2122 21.4414 73.8302 21.4133 73.4325C21.3852 73.0348 21.4636 72.6368 21.64 72.2821C21.8164 71.9275 22.084 71.6298 22.4133 71.4218C22.7427 71.2138 23.1211 71.1035 23.5072 71.103H39.056C39.5228 71.1031 39.985 71.1982 40.4162 71.3828C40.8474 71.5674 41.2392 71.8379 41.5692 72.1789C41.8992 72.5199 42.1609 72.9247 42.3395 73.3702C42.518 73.8156 42.6099 74.2931 42.6098 74.7752V74.9566C42.495 77.3422 42.3582 80.304 42.2807 82.1903" stroke="black" stroke-width="0.980065" stroke-linecap="round" stroke-linejoin="round"/>
<path d="M42.2108 84.8444C42.1948 86.938 42.2108 90.8591 42.2108 93.7879C42.215 94.7981 41.8342 95.7695 41.1508 96.4922C40.4673 97.2148 39.5361 97.6308 38.5582 97.6501C38.1448 97.6501 37.7549 97.6643 37.4304 97.6643C32.7253 97.6027 28.0311 97.1811 23.3864 96.4028L23.2853 96.3863C22.894 96.3245 22.5272 96.1512 22.2261 95.8859C21.925 95.6206 21.7014 95.2739 21.5806 94.8846C21.4579 94.4941 21.426 94.0793 21.4874 93.6737C21.5488 93.2681 21.7018 92.8831 21.934 92.55L25.639 87.2183V84.8444" stroke="black" stroke-width="0.980065" stroke-linecap="round" stroke-linejoin="round"/>
<path d="M50.062 80.9814L54.318 74.5374C54.5431 74.2137 54.6777 73.8324 54.7069 73.435C54.7362 73.0376 54.659 72.6396 54.4838 72.2845C54.3086 71.9294 54.0422 71.631 53.7138 71.4219C53.3853 71.2128 53.0075 71.1011 52.6217 71.0991H50.9709C50.5289 71.0984 50.0968 71.2349 49.7309 71.4911C49.3649 71.7473 49.082 72.1112 48.9189 72.5356C48.179 74.9584 47.7537 77.472 47.6543 80.0104" stroke="black" stroke-width="0.980065" stroke-linecap="round" stroke-linejoin="round"/>
<path d="M48.9981 97.0795C48.4837 97.0041 48.012 96.7421 47.6673 96.3404C47.3227 95.9388 47.1277 95.4235 47.1171 94.8869C47.0693 92.4063 47.0259 88.7561 47.1559 87.3674" stroke="black" stroke-width="0.980065" stroke-linecap="round" stroke-linejoin="round"/>
<path d="M54.0619 92.371L54.1873 92.55C54.4186 92.8843 54.5709 93.27 54.6319 93.6761C54.6929 94.0823 54.6608 94.4975 54.5384 94.8885C54.4155 95.2753 54.1927 95.62 53.8939 95.8854C53.594 96.1509 53.228 96.3241 52.8375 96.3855L52.7258 96.4043C52.4765 96.4491 52.2371 96.5197 51.9331 96.6029" stroke="black" stroke-width="0.980065" stroke-linecap="round" stroke-linejoin="round"/>
<path d="M53.989 130.384C48.8314 132.018 43.4575 132.808 38.0632 132.723C27.6672 132.723 21.8889 130.351 20.7246 129.853C20.4043 129.717 20.149 129.456 20.0144 129.127C19.8797 128.797 19.8766 128.426 20.0056 128.094L20.4616 126.897L19.1635 125.66C14.9835 122.708 14.3695 117.815 14.6545 113.594C15.1409 106.15 23.3549 96.5935 23.3549 96.5935" stroke="black" stroke-width="0.980065" stroke-linecap="round" stroke-linejoin="round"/>
<path d="M52.7607 96.5896C52.7607 96.5896 53.8901 97.9029 55.3356 99.9353" stroke="black" stroke-width="0.980065" stroke-linecap="round" stroke-linejoin="round"/>
<path d="M17.5605 111.138C19.2614 105.031 24.8953 98.4783 24.8953 98.4783" stroke="black" stroke-width="0.980065" stroke-linecap="round" stroke-linejoin="round"/>
<path d="M52.1627 126.472C50.2832 127.179 45.9185 128.245 38.0723 128.245C33.3227 128.258 28.5955 127.573 24.0328 126.21C22.9611 125.878 21.9761 125.299 21.1516 124.518C17.8935 122.214 17.0605 118.599 17.0605 115.208V115.024C17.0605 114.579 17.0811 114.14 17.1107 113.708" stroke="black" stroke-width="0.980065" stroke-linecap="round" stroke-linejoin="round"/>
<path d="M22.6943 72.6157H38.0608" stroke="black" stroke-width="0.980065" stroke-linecap="round" stroke-linejoin="round"/>
<path d="M22.6943 94.5894C23.9438 94.8783 25.2097 95.0855 26.4845 95.2096C28.1717 95.3352 38.0608 95.9161 38.0608 95.9161" stroke="black" stroke-width="0.980065" stroke-linecap="round" stroke-linejoin="round"/>
<path d="M27.5898 80.0104H36.719" stroke="black" stroke-width="0.980065" stroke-linecap="round" stroke-linejoin="round"/>
<path d="M30.3765 87.0558H37.4308" stroke="black" stroke-width="0.980065" stroke-linecap="round" stroke-linejoin="round"/>
<path d="M49.7334 80.0104H50.4159" stroke="black" stroke-width="0.980065" stroke-linecap="round" stroke-linejoin="round"/>
<path d="M51.5937 116.802C47.9571 117.139 43.2588 117.34 38.1417 117.34C26.5836 117.34 17.2144 116.304 17.2144 115.024C17.2144 113.743 26.5753 112.708 38.1425 112.708C43.3523 112.708 47.888 112.918 51.5504 113.267" stroke="black" stroke-width="0.980065" stroke-linecap="round" stroke-linejoin="round"/>
<path d="M20.7222 129.853C21.6279 131.133 22.924 132.061 24.4021 132.488C31.7422 134.814 50.8356 135.409 56.8328 133.341" stroke="black" stroke-width="0.980065" stroke-linecap="round" stroke-linejoin="round"/>
<path d="M135.718 110.334H147.97" stroke="black" stroke-width="0.980065" stroke-linecap="round" stroke-linejoin="round"/>
<path d="M82.4722 110.334H87.2343" stroke="black" stroke-width="0.980065" stroke-linecap="round" stroke-linejoin="round"/>
<path d="M3.57031 110.334H13.9808" stroke="black" stroke-width="0.980065" stroke-linecap="round" stroke-linejoin="round"/>
<path d="M30.3923 53.048C30.0525 52.4212 29.8733 51.7152 29.8717 50.9968C29.6164 42.2048 48.3838 51.7818 48.5601 44.5692C48.7364 37.3566 33.2644 47.2288 32.6594 39.8671C32.0544 32.5053 47.2423 39.7846 47.2058 34.1727C47.1693 28.5607 34.7372 34.7952 34.4378 30.239C34.1384 25.6829 45.6098 29.2774 45.6098 25.5071C45.6098 21.7367 39.7244 24.2432 39.0077 21.0263C38.2218 17.5111 42.2308 16.5039 43.6893 17.4522" stroke="black" stroke-width="0.980065" stroke-linecap="round" stroke-linejoin="round"/>
<path d="M35.5769 68.2087C33.9049 59.8704 48.56 67.2251 48.56 59.3822C48.56 53.6689 38.7796 56.4965 33.3691 55.0552" stroke="black" stroke-width="0.980065" stroke-linecap="round" stroke-linejoin="round"/>
</svg>
