<svg width="153" height="158" viewBox="0 0 153 158" fill="none" xmlns="http://www.w3.org/2000/svg">
<path d="M64.1143 61.6045C59.7975 55.5914 52.8967 50.8657 44.9091 50.3005C42.4258 50.0751 39.9243 50.2071 37.4763 50.693C25.0731 53.1658 16.9563 64.3285 16.1963 73.827C18.1115 75.8758 18.4155 79.322 17.3895 82.1637C17.2001 82.7327 16.9173 83.2638 16.5535 83.7337C16.5613 83.8601 16.5765 83.9859 16.5991 84.1105C17.0019 86.7167 19.2971 91.1755 19.3655 91.356C21.0007 92.4987 22.5162 93.8141 23.8875 95.281C26.0991 97.636 26.6387 99.3238 26.7527 99.732C26.7491 99.7475 26.7491 99.7636 26.7527 99.7791C27.0111 99.9832 27.2771 100.195 27.5659 100.399C29.9884 101.93 32.7079 102.889 35.5307 103.21C37.8867 103.045 42.5531 102.77 44.9091 102.896C46.5954 102.941 48.2584 103.313 49.8111 103.995C50.7719 103.756 51.7164 103.452 52.6383 103.084C68.9555 96.5449 73.8043 75.1065 64.1143 61.6045ZM42.5303 100.909C38.0723 100.908 33.7149 99.5411 30.0089 96.9818C26.303 94.4224 23.4149 90.7856 21.71 86.531C20.005 82.2764 19.5597 77.5952 20.4303 73.0793C21.301 68.5633 23.4485 64.4154 26.6013 61.16C29.7541 57.9045 33.7706 55.6878 38.143 54.7901C42.5155 53.8923 47.0474 54.3539 51.1659 56.1163C55.2844 57.8788 58.8045 60.8631 61.2811 64.6918C63.7576 68.5205 65.0795 73.0218 65.0795 77.6264C65.0795 83.8001 62.7056 89.721 58.4799 94.0872C54.2542 98.4534 48.5226 100.907 42.5455 100.909H42.5303Z" fill="#81F8F8"/>
<path d="M105.154 113.572C105.154 113.572 103.885 108.862 104.987 91.7564C106.02 75.499 107.434 66.9347 107.434 66.9347C107.434 66.9347 103.512 66.4951 98.7701 60.7646C94.0277 55.0341 90.6381 50.5596 84.7633 47.3646C78.8885 44.1697 74.4425 41.3908 71.0833 38.1409C67.3821 34.5927 62.1685 29.8513 57.4565 29.6158C52.7445 29.3803 52.7141 31.1073 47.6601 32.8421C42.6061 34.577 31.5101 35.5739 30.9933 37.089C30.4765 38.604 29.4277 41.4143 34.9681 44.413C36.7465 45.3707 39.1481 45.669 41.5193 45.9281C46.5505 46.4697 51.7489 46.4462 52.8661 44.2482C53.762 48.0504 55.3061 51.6575 57.4261 54.9006C57.4261 54.9006 64.3725 59.9246 66.8273 66.3145C69.2821 72.7044 71.0301 82.0616 65.0793 92.141C63.414 95.0568 61.2082 97.6047 58.5882 99.6387C55.9682 101.673 52.9855 103.153 49.8109 103.995C49.8109 103.995 49.3549 102.841 41.8537 102.911C34.3525 102.982 32.8705 104.065 26.8209 99.7241C26.8209 99.7241 26.4713 97.7616 23.7125 94.9513C22.4387 93.5431 20.9897 92.3156 19.4033 91.3011C19.4033 91.3011 16.5837 84.8013 16.5837 83.6709C17.5455 82.3056 18.0401 80.6485 17.9897 78.9609C17.9331 76.9969 17.3345 75.0904 16.2645 73.4659C16.2645 73.4659 17.7009 67.1859 18.7953 65.1449C19.8897 63.1039 22.8689 58.9826 22.8689 58.9826C22.8689 58.9826 17.1081 59.4536 15.5045 60.5526C13.9009 61.6516 5.62448 67.6176 4.86448 70.7576C4.57064 71.5281 4.31694 72.3142 4.10448 73.1126C3.90781 74.2858 3.96893 75.4895 4.28334 76.635C4.59774 77.7804 5.15738 78.8382 5.92088 79.7302C8.23888 82.3128 9.66008 82.9801 9.66008 82.9801C8.81993 86.3594 8.26808 89.8083 8.01088 93.2871C7.86648 97.5497 9.43968 101.09 11.9781 102.636C14.2008 103.872 16.5012 104.953 18.8637 105.871C18.8637 105.871 19.1981 109.921 20.6953 111.083C22.1925 112.245 29.3745 116.555 29.3745 116.555C28.8786 117.153 28.5467 117.878 28.413 118.654C28.2794 119.429 28.349 120.228 28.6145 120.966C29.5341 123.604 31.5633 124.962 34.1625 126.077C36.7617 127.191 38.3653 127.647 40.1133 127.325C43.2427 126.435 46.2139 125.033 48.9141 123.172C51.7717 121.155 51.8249 118.98 51.8249 118.98C51.8249 118.98 67.2149 118.062 75.1417 117.63C83.0685 117.198 89.7413 116.272 90.5925 115.667C91.4437 115.063 102.304 112.504 105.154 113.572Z" fill="#FFD997"/>
<path d="M110.079 111.389C109.591 111.389 109.113 111.539 108.707 111.819C108.301 112.1 107.984 112.498 107.797 112.964C107.61 113.43 107.562 113.943 107.657 114.438C107.752 114.933 107.987 115.388 108.333 115.744C108.678 116.101 109.118 116.344 109.598 116.443C110.077 116.541 110.573 116.491 111.025 116.298C111.476 116.104 111.862 115.777 112.133 115.358C112.405 114.938 112.549 114.445 112.549 113.94C112.549 113.264 112.289 112.615 111.826 112.136C111.363 111.658 110.734 111.389 110.079 111.389Z" fill="black"/>
<path d="M147.752 70.1924C147.638 65.0114 145.009 64.7524 144.88 64.7445C144.75 64.7367 138.138 64.5169 131.542 64.3599C117.968 64.0302 117.93 64.25 117.862 64.5875C117.862 64.6425 117.862 64.9329 117.808 65.4432H108.954C108.232 65.4432 107.776 65.5374 107.434 66.6521C97.2351 63.2452 96.6727 52.6477 82.7191 45.9909C68.7655 39.3341 63.1719 24.6075 51.5591 30.8561C46.4443 33.58 41.4587 34.3022 37.4535 34.9145C33.1899 35.5347 29.1999 35.8879 30.4539 40.0484C31.5787 43.7772 35.4699 45.3236 39.3991 45.983C39.3622 46.5057 39.3622 47.0304 39.3991 47.553C39.3995 47.5983 39.4117 47.6426 39.4344 47.6813C39.4572 47.72 39.4896 47.7516 39.5283 47.7728L40.1135 48.1261V50.0415C33.3191 50.6773 28.1207 53.6211 23.3935 58.4017C23.2263 58.5744 23.0515 58.7864 22.9603 58.7864C22.8691 58.7864 19.0235 59.2574 16.8803 59.7127C14.6003 60.1915 7.76033 66.3224 6.14913 68.175C4.54125 70.1573 3.74271 72.7077 3.92233 75.2871C4.24153 78.8981 6.55193 81.2766 9.50833 83.2077C9.39433 83.5453 6.84073 91.6151 8.20113 97.6046C9.24993 102.275 14.3267 104.748 18.7955 106.13C18.7955 106.915 19.0691 110.416 21.3567 111.962C23.8616 113.712 26.4655 115.306 29.1543 116.735C28.6679 117.183 27.7179 118.462 28.3943 121.225C29.3215 124.899 35.4395 127.207 38.3579 127.576C41.6183 127.984 51.6655 123.51 52.0379 119.271C66.8199 118.164 83.9579 117.928 91.2843 115.73C98.9299 113.438 103.976 113.729 104.964 113.815C105.398 117.316 106.021 118.038 106.583 118.125C107.655 118.297 115.574 118.219 116.668 118.211C116.767 125.731 117.064 127.843 117.482 128.149C117.717 128.33 119.078 128.408 121.631 128.408C125.272 128.408 143.869 127.859 145.495 127.811C146.46 127.811 148.33 127.026 148.535 124.232C149.234 110.965 147.844 74.3137 147.752 70.1924ZM39.8855 47.4274V46.0301C41.5286 46.2595 43.1831 46.3906 44.8407 46.4226V47.3803L44.1339 47.8042H40.5543L39.8855 47.4274ZM45.2055 47.7964C45.2429 47.7723 45.2737 47.7387 45.295 47.6989C45.3163 47.659 45.3273 47.6142 45.3271 47.5687V46.4383C45.7527 46.4383 47.3183 46.4383 47.6527 46.4854C49.4918 46.5709 51.2959 45.9469 52.7143 44.7349C53.5037 48.1272 54.8479 51.3554 56.6891 54.2805C53.0027 51.9968 48.8893 50.5467 44.6203 50.0258V48.1182L45.2055 47.7964ZM44.1035 48.3616V50.0179C42.9321 49.9316 41.7562 49.9316 40.5847 50.0179V48.3223L44.1035 48.3616ZM23.7355 58.8021C26.2658 56.1691 29.244 54.0403 32.5211 52.5221C35.6934 51.1583 39.0942 50.4515 42.5303 50.4418C46.7068 50.5538 50.8035 51.6492 54.5079 53.6446C59.2799 56.0441 63.18 59.9625 65.6343 64.823C67.6787 68.7666 68.7908 73.1539 68.8795 77.6264C68.8609 83.5372 66.9861 89.2822 63.5368 93.9986C60.0874 98.715 55.2498 102.148 49.7503 103.783L49.6743 103.822C46.8167 102.346 43.5943 102.55 40.7215 102.754C37.6815 102.974 34.5579 103.202 30.5527 101.836C29.2805 101.28 28.0988 100.526 27.0491 99.5985C25.7419 95.6735 20.3915 91.7093 19.7835 91.2697C18.4927 88.9831 17.535 86.5126 16.9411 83.9378C16.9297 83.8877 16.904 83.8423 16.8675 83.8074C16.8309 83.7724 16.7851 83.7495 16.7359 83.7415C17.6424 82.4783 18.1349 80.9493 18.1419 79.3769C18.2194 77.3652 17.6384 75.3852 16.4927 73.7563C17.1363 68.0344 19.7051 62.7277 23.7507 58.7628L23.7355 58.8021ZM4.38593 75.2871C4.20539 72.8304 4.96386 70.3984 6.49873 68.5125C8.33793 66.4558 14.9043 60.6625 16.9563 60.2151C18.6207 59.8618 21.3339 59.5086 22.4739 59.3673C18.9909 63.1477 16.7493 67.9653 16.0671 73.1362C15.0381 71.731 13.814 70.4905 12.4343 69.4545C12.3799 69.415 12.3125 69.3994 12.2469 69.4111C12.1814 69.4229 12.123 69.4611 12.0847 69.5173C12.0464 69.5735 12.0313 69.6432 12.0427 69.7109C12.0541 69.7786 12.0911 69.8389 12.1455 69.8784C12.2063 69.9255 18.0355 74.1253 17.6707 79.3455C17.3819 83.5688 15.4895 85.5156 11.6667 83.8043C11.0084 82.3112 10.7486 80.6633 10.9143 79.0315C11.0645 77.8483 11.3189 76.6816 11.6743 75.5461C11.6981 75.4855 11.6988 75.4178 11.6763 75.3566C11.6537 75.2954 11.6096 75.2453 11.5527 75.2164C11.2943 75.083 8.96113 73.8898 7.90473 74.5256C6.84833 75.1615 6.04273 78.0895 7.04593 80.6251C5.55038 79.226 4.60839 77.3052 4.40113 75.2321L4.38593 75.2871ZM8.18593 81.7084C7.71831 81.062 7.38794 80.3209 7.21639 79.5337C7.04483 78.7465 7.03595 77.9307 7.19033 77.1397C7.24268 76.3109 7.58904 75.5311 8.16313 74.9495C8.79393 74.5727 10.3671 75.1929 11.1271 75.5618C10.8149 76.6658 10.5787 77.7911 10.4203 78.9295C10.2347 80.4564 10.4175 82.0069 10.9523 83.4432C9.99307 82.9231 9.07561 82.3246 8.20873 81.6534L8.18593 81.7084ZM8.63433 97.4947C7.39553 91.9997 9.61473 84.4245 9.90353 83.4746C11.9859 84.7463 14.6307 85.7354 16.4167 84.0398C17.022 86.6801 18.0056 89.2122 19.3351 91.5523C19.3521 91.5878 19.3785 91.6178 19.4111 91.6386C19.4871 91.6936 26.8971 97.0159 26.7831 101.302C26.6919 105.094 24.2219 106.852 21.3035 106.287C18.9551 103.838 21.3871 97.9579 21.4099 97.9029C21.4256 97.8677 21.4333 97.8293 21.4327 97.7906C21.4321 97.7519 21.423 97.7138 21.4063 97.6791C21.3895 97.6445 21.3654 97.6142 21.3358 97.5904C21.3062 97.5666 21.2718 97.55 21.2351 97.5418C20.9615 97.479 14.4483 95.9718 13.4983 99.6692C13.298 100.401 13.2852 101.175 13.461 101.914C13.6369 102.653 13.9954 103.332 14.5015 103.885C11.8719 102.558 9.34113 100.525 8.63433 97.4947ZM16.2343 104.701C15.7479 104.426 13.1943 102.825 13.9543 99.8262C14.7143 97.0159 19.5479 97.7695 20.7943 98.0128C20.3383 99.1982 18.8563 103.571 20.4675 106.114C19.0313 105.728 17.6179 105.256 16.2343 104.701ZM21.5543 111.499C19.6771 110.227 19.3351 107.268 19.2743 106.295L20.7335 106.711C24.1231 107.653 27.2011 105.69 27.3151 101.341C27.3199 101.028 27.2945 100.715 27.2391 100.407C28.1794 101.221 29.2422 101.871 30.3855 102.33C37.6739 104.819 42.3023 102.134 47.5995 103.586C50.2215 104.309 51.8479 105.745 52.3191 107.747C52.5266 108.858 52.4629 110.006 52.1339 111.086C51.8048 112.166 51.2208 113.144 50.4343 113.933C48.1543 116.091 39.7943 118.211 35.2799 118.211C31.4343 118.203 24.0319 113.187 21.5543 111.499ZM49.6743 120.558C47.9187 121.343 43.5943 122.913 42.4999 121.476C42.095 120.988 41.8385 120.387 41.7628 119.749C41.6871 119.111 41.7955 118.464 42.0743 117.889V117.811C44.0505 117.378 45.9877 116.774 47.8655 116.005C47.9947 116.123 49.4691 116.374 49.6743 120.558ZM51.4147 119.773C50.8523 123.007 41.4131 127.466 38.3959 127.089C35.3787 126.712 29.6863 124.405 28.8655 121.123C28.1055 117.983 29.5647 117.057 29.6255 117.018C31.6851 118.022 33.7067 118.76 35.2115 118.76C37.3181 118.701 39.4147 118.438 41.4739 117.975C41.2274 118.619 41.1566 119.32 41.2692 120.003C41.3817 120.685 41.6734 121.322 42.1123 121.845C43.4955 123.588 48.0783 121.924 50.0391 120.99C50.0845 120.969 50.1229 120.934 50.1499 120.891C50.1768 120.848 50.1912 120.798 50.1911 120.746C50.1911 120.574 50.0315 116.774 48.4507 115.77C49.6211 115.22 49.4387 115.196 49.5223 115.244C50.2656 115.683 50.8533 116.357 51.1992 117.166C51.5452 117.976 51.6314 118.878 51.4451 119.742L51.4147 119.773ZM91.0943 115.259C83.8895 117.426 67.1467 117.669 51.9999 118.737C51.9846 117.98 51.7929 117.238 51.441 116.574C51.0891 115.91 50.5873 115.343 49.9783 114.922C51.0732 114.117 51.9205 113.003 52.4192 111.714C52.9178 110.425 53.0467 109.015 52.7903 107.653C52.6116 106.93 52.2942 106.252 51.8568 105.659C51.4194 105.065 50.8711 104.569 50.2443 104.199C55.9426 102.414 60.9081 98.7304 64.3649 93.7227C67.8217 88.7149 69.5749 82.6654 69.3507 76.5195C71.1291 81.2295 76.6695 93.6011 86.3291 93.6639C86.3957 93.6639 86.4594 93.6366 86.5065 93.5881C86.5535 93.5395 86.5799 93.4736 86.5799 93.4049C86.5799 93.3362 86.5535 93.2703 86.5065 93.2217C86.4594 93.1731 86.3957 93.1458 86.3291 93.1458C74.7543 93.0045 69.2519 74.714 69.1987 74.5256C68.7081 71.0535 67.6492 67.6929 66.0675 64.5875C64.1154 60.6954 61.2389 57.3787 57.7075 54.9477C57.7136 54.9118 57.7119 54.8749 57.7027 54.8396C57.6935 54.8044 57.677 54.7716 57.6543 54.7436C54.6751 50.8186 53.3451 45.2765 53.1399 44.3345C53.3614 44.1136 53.5624 43.8718 53.7403 43.6123C53.7776 43.5551 53.7914 43.4849 53.7785 43.4171C53.7657 43.3494 53.7274 43.2897 53.6719 43.2512C53.6445 43.2322 53.6137 43.2189 53.5813 43.2121C53.5488 43.2053 53.5154 43.2052 53.483 43.2118C53.4174 43.225 53.3596 43.2646 53.3223 43.3219C52.6564 44.1968 51.7963 44.8933 50.8148 45.3524C49.8332 45.8115 48.7591 46.0197 47.6831 45.9595C42.0667 45.7946 32.7567 45.881 30.9631 39.86C30.8025 39.4877 30.7246 39.0829 30.7351 38.6754C30.7456 38.2679 30.8443 37.868 31.0239 37.505C32.7415 34.7026 42.4239 36.3511 51.7567 31.3114C62.9743 25.2826 68.4767 39.7737 82.4911 46.454C96.2927 53.0402 96.8855 63.6848 107.282 67.1466C106.963 68.489 106.872 69.9255 106.378 74.4079C105.618 81.4729 104.288 93.3656 104.387 102.385C104.44 107.472 104.63 110.934 104.888 113.281C103.634 113.187 98.5879 112.991 91.1247 115.228L91.0943 115.259ZM116.6 117.716C115.886 117.716 107.647 117.811 106.598 117.646C105.998 117.551 104.98 115.448 104.835 102.417C104.714 91.4267 106.697 76.182 107.222 70.844C107.7 65.9848 108.073 65.9848 108.901 65.9927H117.763C117.033 80.4445 116.44 100.855 116.63 117.685L116.6 117.716Z" fill="black"/>
<path d="M29.4588 96.7725C38.6928 102.974 50.0396 102.268 57.7156 95.2025C64.814 88.6792 66.562 79.6752 64.206 70.5614C61.8348 61.2042 51.9548 53.6289 40.8208 54.1313C39.7358 54.1687 38.6567 54.3133 37.5984 54.5631C25.3548 57.6795 16.8884 70.8361 20.6732 84.2832C21.9985 89.4288 25.1303 93.8808 29.4588 96.7725ZM37.72 55.0655C39.0922 54.7536 40.4951 54.6087 41.9 54.6337C52.502 54.6337 61.5384 62.0441 63.7196 70.6713C66.0452 79.6674 64.3048 88.4201 57.3736 94.7865C49.8192 101.742 38.7156 102.362 29.7324 96.3565C25.5056 93.5345 22.447 89.1888 21.152 84.1654C17.5116 71.1894 25.4916 58.1898 37.72 55.0655Z" fill="black"/>
<path d="M60.1246 87.2662C61.903 84.4559 62.1538 80.9862 62.1462 77.6264C62.1231 72.2284 60.0394 67.0578 56.3474 63.2373C56.3337 63.1997 56.3123 63.1655 56.2848 63.1371C56.2573 63.1087 56.2242 63.0867 56.1878 63.0725C54.861 61.732 53.3469 60.6047 51.6962 59.7284C48.8475 58.1596 45.695 57.2691 42.4698 57.1222C39.279 57.2391 36.1437 58.0186 33.251 59.4144C29.451 61.0629 27.171 64.1244 25.3546 66.919C22.7706 70.946 21.8738 76.5274 22.953 81.834C26.3426 98.5623 48.5954 105.565 60.1246 87.2662ZM25.7802 67.2094C26.5797 65.9247 27.4822 64.7116 28.4782 63.5827L30.2338 65.3961C30.2812 65.445 30.3454 65.4725 30.4124 65.4725C30.4794 65.4725 30.5436 65.445 30.591 65.3961C30.6384 65.3472 30.665 65.2808 30.665 65.2116C30.665 65.1424 30.6384 65.0761 30.591 65.0271L28.8278 63.1745C30.1398 61.7643 31.7106 60.6382 33.4486 59.8618C36.1657 58.5812 39.0921 57.8408 42.0746 57.6795V60.1366C42.0746 60.2053 42.101 60.2712 42.1481 60.3198C42.1951 60.3683 42.2589 60.3956 42.3254 60.3956C42.3919 60.3956 42.4557 60.3683 42.5027 60.3198C42.5498 60.2712 42.5762 60.2053 42.5762 60.1366V57.6795C47.4716 57.9301 52.1304 59.931 55.7546 63.3394L54.113 65.0271C54.0795 65.0648 54.0571 65.1116 54.0486 65.162C54.0401 65.2124 54.0458 65.2642 54.065 65.3114C54.0843 65.3585 54.1162 65.399 54.157 65.4279C54.1979 65.4568 54.2459 65.473 54.2954 65.4746C54.4398 65.4746 54.2954 65.5452 56.1118 63.7083C59.5646 67.3469 61.5411 72.2106 61.637 77.3045H59.2126C59.1526 77.3153 59.0982 77.3475 59.059 77.3957C59.0198 77.4438 58.9984 77.5046 58.9984 77.5675C58.9984 77.6304 59.0198 77.6912 59.059 77.7394C59.0982 77.7875 59.1526 77.8197 59.2126 77.8305H61.6446C61.6446 81.0411 61.3786 84.3617 59.7066 87.015C58.6932 88.6381 57.5162 90.1459 56.1954 91.513L54.4474 89.7075C54.4 89.6586 54.3358 89.6311 54.2688 89.6311C54.2018 89.6311 54.1376 89.6586 54.0902 89.7075C54.0428 89.7565 54.0162 89.8228 54.0162 89.892C54.0162 89.9612 54.0428 90.0275 54.0902 90.0765L55.8382 91.8741C52.3007 95.4713 47.5551 97.5186 42.5914 97.5889V94.9984C42.5914 94.9297 42.565 94.8638 42.5179 94.8153C42.4709 94.7667 42.4071 94.7394 42.3406 94.7394C42.2741 94.7394 42.2103 94.7667 42.1633 94.8153C42.1162 94.8638 42.0898 94.9297 42.0898 94.9984V97.5889C37.1305 97.4895 32.3918 95.4531 28.8278 91.8898L30.591 90.0765C30.6384 90.0275 30.665 89.9612 30.665 89.892C30.665 89.8228 30.6384 89.7565 30.591 89.7075C30.5436 89.6586 30.4794 89.6311 30.4124 89.6311C30.3454 89.6311 30.2812 89.6586 30.2338 89.7075L28.4706 91.5209C25.0207 87.8481 23.0674 82.9475 23.0138 77.8305H25.4686C25.5286 77.8197 25.583 77.7875 25.6222 77.7394C25.6614 77.6912 25.6829 77.6304 25.6829 77.5675C25.6829 77.5046 25.6614 77.4438 25.6222 77.3957C25.583 77.3475 25.5286 77.3153 25.4686 77.3045H23.0138C22.9705 73.7339 23.9316 70.227 25.7802 67.2094Z" fill="black"/>
<path d="M59.5922 70.6948C59.5682 70.6298 59.5207 70.5771 59.4597 70.5477C59.3986 70.5184 59.3289 70.5149 59.2654 70.5378L54.3634 72.4454C52.1518 67.021 46.5658 63.2844 40.7442 64.3206C38.3909 64.6725 36.1712 65.6671 34.3146 67.2016C32.8347 68.4658 31.6383 70.0469 30.8081 71.8356C29.9779 73.6244 29.5337 75.578 29.5062 77.5614C29.4788 79.5448 29.8687 81.5108 30.649 83.3233C31.4294 85.1358 32.5815 86.7516 34.0258 88.059C35.7586 89.629 38.5098 90.414 39.6194 90.6495C43.8526 91.513 47.9794 90.4611 50.6242 88.1768C52.7071 86.3536 54.2 83.9157 54.9024 81.1906C55.6048 78.4655 55.483 75.5836 54.5534 72.9321L59.4478 71.0245C59.4786 71.0132 59.5069 70.9956 59.5309 70.9727C59.555 70.9498 59.5744 70.9222 59.5878 70.8914C59.6013 70.8606 59.6087 70.8273 59.6094 70.7936C59.6101 70.7598 59.6043 70.7262 59.5922 70.6948ZM54.8574 77.3045H53.1702C53.1102 77.3153 53.0558 77.3475 53.0166 77.3956C52.9774 77.4437 52.9559 77.5046 52.9559 77.5675C52.9559 77.6304 52.9774 77.6912 53.0166 77.7393C53.0558 77.7875 53.1102 77.8197 53.1702 77.8305H54.865C54.8034 81.1206 53.582 84.2746 51.4298 86.701C51.4298 86.544 51.4298 86.5911 50.1758 85.2958C50.1531 85.2716 50.1259 85.2523 50.0959 85.2392C50.0659 85.226 50.0336 85.2193 50.001 85.2193C49.9684 85.2193 49.9361 85.226 49.906 85.2392C49.876 85.2523 49.8489 85.2716 49.8262 85.2958C49.8025 85.3199 49.7837 85.3486 49.7709 85.3803C49.7581 85.412 49.7515 85.446 49.7515 85.4803C49.7515 85.5146 49.7581 85.5486 49.7709 85.5803C49.7837 85.6119 49.8025 85.6407 49.8262 85.6648C51.1106 86.9914 51.0346 86.9679 51.1942 86.96C50.0573 88.1048 48.711 89.004 47.2338 89.6051C45.7566 90.2063 44.1783 90.4973 42.591 90.4611V88.7577C42.591 88.7236 42.5845 88.69 42.5719 88.6585C42.5593 88.6271 42.5408 88.5985 42.5175 88.5745C42.4942 88.5504 42.4666 88.5314 42.4362 88.5183C42.4057 88.5053 42.3731 88.4986 42.3402 88.4986C42.3072 88.4986 42.2746 88.5053 42.2442 88.5183C42.2138 88.5314 42.1861 88.5504 42.1628 88.5745C42.1395 88.5985 42.1211 88.6271 42.1085 88.6585C42.0959 88.69 42.0894 88.7236 42.0894 88.7577V90.4533C39.2981 90.3885 36.5959 89.4253 34.3602 87.6979C34.1018 87.4546 33.8434 87.1955 33.6002 86.9129C34.0419 86.5148 34.4607 86.0901 34.8542 85.6412C34.9002 85.5915 34.9258 85.5255 34.9258 85.4567C34.9258 85.388 34.9002 85.3219 34.8542 85.2723C34.8308 85.2478 34.803 85.2284 34.7724 85.2152C34.7417 85.2019 34.7088 85.1951 34.6756 85.1951C34.6423 85.1951 34.6094 85.2019 34.5788 85.2152C34.5481 85.2284 34.5203 85.2478 34.497 85.2723C33.4026 86.4027 33.319 86.4733 33.2734 86.5518C31.2127 84.1299 30.0518 81.0307 29.9978 77.8069H31.5178C31.5778 77.7962 31.6321 77.7639 31.6713 77.7158C31.7105 77.6677 31.732 77.6068 31.732 77.5439C31.732 77.4811 31.7105 77.4202 31.6713 77.3721C31.6321 77.324 31.5778 77.2917 31.5178 77.281H29.9978C30.1589 74.1137 31.3907 71.1051 33.4786 68.7794L34.4742 69.8078C34.4969 69.832 34.524 69.8512 34.554 69.8644C34.5841 69.8775 34.6164 69.8843 34.649 69.8843C34.6816 69.8843 34.7139 69.8775 34.7439 69.8644C34.7739 69.8512 34.8011 69.832 34.8238 69.8078C34.8474 69.7837 34.8662 69.7549 34.8791 69.7233C34.8919 69.6916 34.8985 69.6576 34.8985 69.6233C34.8985 69.589 34.8919 69.555 34.8791 69.5233C34.8662 69.4916 34.8474 69.4629 34.8238 69.4388L33.8054 68.3869C35.6784 66.4216 38.1399 65.1684 40.7898 64.8309C41.215 64.7592 41.6438 64.7121 42.0742 64.6896V66.3145C42.0742 66.3485 42.0807 66.3822 42.0933 66.4136C42.1059 66.4451 42.1243 66.4736 42.1476 66.4977C42.1709 66.5217 42.1986 66.5408 42.229 66.5538C42.2594 66.5669 42.292 66.5736 42.325 66.5736C42.3579 66.5736 42.3905 66.5669 42.421 66.5538C42.4514 66.5408 42.479 66.5217 42.5023 66.4977C42.5256 66.4736 42.5441 66.4451 42.5567 66.4136C42.5693 66.3822 42.5758 66.3485 42.5758 66.3145V64.666C45.7095 64.6862 48.7108 65.9741 50.9358 68.2535L49.8262 69.4545C49.8025 69.4786 49.7837 69.5073 49.7709 69.539C49.7581 69.5707 49.7515 69.6047 49.7515 69.639C49.7515 69.6733 49.7581 69.7073 49.7709 69.739C49.7837 69.7706 49.8025 69.7994 49.8262 69.8235C49.8489 69.8477 49.876 69.8669 49.906 69.8801C49.9361 69.8932 49.9684 69.9 50.001 69.9C50.0336 69.9 50.0659 69.8932 50.0959 69.8801C50.1259 69.8669 50.1531 69.8477 50.1758 69.8235L51.331 68.6381C52.4151 69.8022 53.2832 71.1618 53.8922 72.6495L43.8906 76.5195C43.6825 76.1364 43.3485 75.843 42.949 75.6925C42.5495 75.542 42.111 75.5443 41.713 75.699C41.315 75.8538 40.9839 76.1507 40.7796 76.536C40.5754 76.9213 40.5116 77.3694 40.5998 77.7991L33.6382 80.5073C33.4786 80.2176 33.2204 79.9995 32.9137 79.8956C32.6071 79.7916 32.274 79.8093 31.9793 79.945C31.6845 80.0808 31.4492 80.325 31.3191 80.63C31.1891 80.9351 31.1736 81.2793 31.2756 81.5955C31.3777 81.9117 31.59 82.1774 31.8713 82.3409C32.1525 82.5043 32.4826 82.5539 32.7973 82.4798C33.1119 82.4057 33.3887 82.2134 33.5736 81.9402C33.7585 81.667 33.8384 81.3326 33.7978 81.0019L40.7746 78.2858C40.9792 78.6758 41.3135 78.9763 41.7159 79.1315C42.1183 79.2867 42.5614 79.2863 42.9635 79.1304C43.3656 78.9744 43.6995 78.6734 43.9034 78.2829C44.1073 77.8925 44.1676 77.439 44.073 77.0062L54.0822 73.0812C54.5736 74.4325 54.8359 75.8612 54.8574 77.3045Z" fill="black"/>
<path d="M40.3946 113.705C42.9634 114.969 47.417 113.964 50.0542 112.92C50.0934 112.904 50.1282 112.878 50.1554 112.845C50.1827 112.811 50.2017 112.772 50.2107 112.729C50.2197 112.686 50.2184 112.642 50.2071 112.6C50.1957 112.558 50.1745 112.52 50.1454 112.488C49.4758 111.601 48.9919 110.58 48.7242 109.49C48.2585 107.857 47.9604 106.178 47.835 104.481C47.8323 104.445 47.8223 104.409 47.8056 104.377C47.789 104.344 47.766 104.316 47.7382 104.293C47.7104 104.27 47.6783 104.253 47.644 104.244C47.6096 104.234 47.5738 104.232 47.5386 104.238C47.2574 104.285 40.5998 105.423 38.7378 108.587C38.4807 109.008 38.3203 109.485 38.269 109.98C38.2176 110.475 38.2766 110.976 38.4414 111.444C38.5948 111.942 38.848 112.4 39.1846 112.79C39.5212 113.179 39.9335 113.491 40.3946 113.705ZM47.3486 104.78C47.5538 107.135 48.2302 110.659 49.545 112.559C45.9806 113.815 40.0982 114.961 38.905 111.264C37.7118 107.566 43.6322 105.517 47.3486 104.78Z" fill="black"/>
</svg>
