<svg width="153" height="158" viewBox="0 0 153 158" fill="none" xmlns="http://www.w3.org/2000/svg">
<path fill-rule="evenodd" clip-rule="evenodd" d="M117.653 91.4261L120.092 91.3884C120.092 91.3884 119.83 72.2603 118.298 70.9399C118.298 70.9399 118.423 85.9397 117.653 91.4261Z" fill="white"/>
<path fill-rule="evenodd" clip-rule="evenodd" d="M118.308 77.0566C118.308 77.0566 116.468 73.4063 111.945 74.7534C107.421 76.1005 105.772 83.0336 105.772 83.0336C105.772 83.0336 107.253 72.0711 112.012 71.6307C116.771 71.1903 118.308 77.0566 118.308 77.0566Z" fill="#81F8F8"/>
<path fill-rule="evenodd" clip-rule="evenodd" d="M119.439 76.7835C119.439 76.7835 121.461 72.7454 126.065 75.5165C130.669 78.2875 134.223 95.9265 134.223 95.9265C134.223 95.9265 132.845 77.6603 126.529 74.014C120.213 70.3677 119.439 76.7835 119.439 76.7835Z" fill="#81F8F8"/>
<path fill-rule="evenodd" clip-rule="evenodd" d="M119.083 73.4346C119.083 73.4346 120.647 63.7438 125.898 63.9071C131.15 64.0703 137.667 78.8841 139.207 89.7508C139.207 89.7508 131.735 65.043 125.429 65.8044C121.646 65.7102 119.083 73.4346 119.083 73.4346Z" fill="#81F8F8"/>
<path fill-rule="evenodd" clip-rule="evenodd" d="M118.187 73.4346C118.187 73.4346 107.127 60.1391 101.68 73.4346C101.68 73.4346 107.449 66.0007 118.187 73.4346Z" fill="#81F8F8"/>
<path fill-rule="evenodd" clip-rule="evenodd" d="M132.699 42.6957C132.699 42.6957 114.739 43.9313 118.298 71.0067C118.972 56.6169 122.737 46.948 132.699 42.6957Z" fill="#81F8F8"/>
<path fill-rule="evenodd" clip-rule="evenodd" d="M118.689 71.4424C118.689 71.4424 119.139 61.0858 125.318 58.5786C131.498 56.0713 139.207 60.6886 139.207 60.6886C139.207 60.6886 123.119 54.0774 118.689 71.4424Z" fill="#81F8F8"/>
<path fill-rule="evenodd" clip-rule="evenodd" d="M98.7822 66.2481C98.7822 66.2481 101.254 61.2508 106.23 61.0129C111.207 60.7751 118.294 72.6105 118.294 72.6105C118.294 72.6105 112.964 58.9963 106.433 59.6886C104.649 59.8027 102.947 60.4997 101.571 61.6788C100.196 62.8578 99.2193 64.458 98.7822 66.2481Z" fill="#81F8F8"/>
<path d="M125.91 63.5155C123.84 63.4598 121.975 65.2087 120.675 67.1516C121.85 64.6362 123.776 62.5768 126.169 61.2767C132.017 58.2262 138.996 61.0255 139.066 61.0537C139.157 61.0991 139.261 61.1054 139.357 61.0713C139.452 61.0371 139.53 60.9653 139.574 60.8716C139.618 60.7779 139.624 60.67 139.591 60.5717C139.558 60.4734 139.488 60.3926 139.398 60.3472C139.077 60.1549 131.458 55.6671 125.18 58.2112C121.465 59.7184 119.752 63.8499 118.967 67.0982C120.222 54.0861 124.574 46.587 132.844 43.0568C132.928 43.0213 132.996 42.9563 133.037 42.8734C133.078 42.7905 133.09 42.6952 133.069 42.6045C133.049 42.5138 132.998 42.4336 132.925 42.3783C132.852 42.3229 132.763 42.2961 132.673 42.3024C128.505 42.829 124.699 45.0124 122.064 48.3893C118.064 53.4487 116.66 60.9493 117.876 70.6739C116.155 66.9334 111.744 58.7184 106.395 59.2969C104.533 59.4305 102.76 60.1665 101.326 61.4004C99.8929 62.6343 98.8722 64.3033 98.4094 66.1704C98.3905 66.2637 98.4052 66.361 98.4508 66.444C98.4963 66.527 98.5696 66.59 98.6568 66.6212C98.7441 66.6525 98.8394 66.6499 98.9249 66.6139C99.0104 66.5778 99.0803 66.5109 99.1215 66.4255C99.145 66.3768 101.546 61.6276 106.25 61.4015C110.134 61.2704 115.474 68.866 117.599 72.2156C115.812 70.3654 111.56 66.5464 107.407 67.2066C104.857 67.6171 102.813 69.6605 101.327 73.2778C101.291 73.365 101.287 73.4628 101.315 73.553C101.343 73.6433 101.402 73.7198 101.481 73.7686C101.56 73.8173 101.653 73.8349 101.744 73.8181C101.834 73.8014 101.916 73.7513 101.973 73.6773C102.164 73.4332 106.024 68.6667 113.312 71.2901C112.87 71.2171 112.421 71.1991 111.975 71.2367C106.973 71.6991 105.455 82.5172 105.393 82.9764C105.379 83.0765 105.402 83.1783 105.459 83.2608C105.516 83.3433 105.601 83.4 105.697 83.4191C105.793 83.4383 105.893 83.4183 105.975 83.3635C106.057 83.3087 106.116 83.2232 106.139 83.1248C106.155 83.0581 107.791 76.395 112.047 75.1272C115.823 74.0015 117.564 76.5402 117.903 77.1211C117.859 81.9096 117.714 88.2336 117.275 91.3673C117.267 91.4229 117.271 91.4796 117.286 91.5335C117.302 91.5874 117.328 91.6373 117.364 91.6798C117.399 91.7223 117.443 91.7564 117.493 91.7798C117.542 91.8033 117.596 91.8154 117.65 91.8155L120.095 91.7771C120.196 91.7754 120.292 91.7327 120.362 91.6582C120.432 91.5838 120.47 91.4837 120.469 91.3798C120.442 89.3538 120.313 82.226 119.827 76.8668C120.333 76.0151 121.118 75.3797 122.04 75.0762C122.696 74.9277 123.375 74.92 124.034 75.0535C124.693 75.1871 125.318 75.4591 125.871 75.8526C130.279 78.5043 133.812 95.83 133.851 96.0043C133.871 96.1018 133.926 96.188 134.005 96.2452C134.084 96.3025 134.181 96.3266 134.276 96.3126C134.372 96.2986 134.459 96.2476 134.519 96.17C134.58 96.0923 134.609 95.9938 134.602 95.8944C134.545 95.14 133.134 77.3762 126.715 73.6703C123.856 72.0218 121.046 71.8757 119.622 74.8792C119.565 74.4129 119.506 73.9709 119.442 73.5619C120.31 70.9243 122.723 66.084 125.474 66.1916C130.398 65.5981 136.792 83.0785 138.845 89.8656C138.874 89.9589 138.936 90.0374 139.019 90.0859C139.102 90.1343 139.199 90.149 139.291 90.1271C139.384 90.1053 139.465 90.0484 139.519 89.9678C139.573 89.8871 139.596 89.7885 139.583 89.6913C138.106 79.2775 131.715 63.6953 125.91 63.5155ZM106.378 60.6173C104.279 60.689 102.28 61.5551 100.759 63.0508C101.47 62.1855 102.343 61.4767 103.324 60.9666C104.306 60.4564 105.377 60.1553 106.473 60.0811C110.183 59.7027 113.541 64.273 115.652 68.0371C113.134 64.6773 109.449 60.6173 106.377 60.6173H106.378ZM126.344 74.3548C129.84 76.3714 131.791 83.1711 132.821 88.6088C131.326 83.3265 128.996 76.822 126.257 75.1743C123.778 73.6828 121.795 73.9591 120.369 75.0958C121.629 72.627 123.982 72.9952 126.343 74.3587L126.344 74.3548ZM125.458 58.9436C128.412 57.745 131.871 58.2073 134.893 59.2137C128.129 58.3251 122.634 60.9705 119.704 67.3636C120.45 64.2683 122.052 60.3252 125.458 58.9436ZM122.646 48.8957C124.471 46.5911 126.873 44.8481 129.591 43.8567C123.055 47.8799 119.455 55.0469 118.267 66.3996C117.905 58.9193 119.373 53.0483 122.643 48.8996L122.646 48.8957ZM102.874 71.8224C106.044 66.1358 110.878 67.223 115.705 71.4864C109.372 68.26 105.002 70.2469 102.874 71.8224ZM111.842 74.3767C109.695 75.0157 108.178 76.8102 107.158 78.5922C108.049 75.6265 109.595 72.2494 112.049 72.0225C114.294 71.8192 115.976 73.0925 117.107 75.139C116.351 74.5883 115.48 74.2318 114.564 74.0992C113.648 73.9666 112.715 74.0618 111.842 74.3767ZM117.922 75.095C117.42 74.0864 116.727 73.1922 115.884 72.4653C116.583 72.8501 117.264 73.2708 117.922 73.726V75.095ZM119.708 91.0015L118.09 91.0266C118.614 86.7052 118.686 77.8849 118.687 73.5384C119.342 79.3352 119.683 85.1653 119.707 91.0015H119.708ZM125.439 65.4105C123.574 65.3273 122.001 67.0095 120.854 68.8111C121.852 66.5024 123.464 64.2118 125.887 64.2989C129.839 64.4206 134.942 74.0439 137.524 83.5683C135.771 78.7735 130.413 64.8288 125.438 65.412L125.439 65.4105Z" fill="black"/>
<path fill-rule="evenodd" clip-rule="evenodd" d="M106.584 91.704C106.27 89.6174 105.718 86.5952 105.413 85.1885C104.431 80.6739 103.46 76.2709 100.669 72.55C98.46 69.6086 95.9459 68.3008 84.0785 61.2114L67.4581 57.014C67.4581 57.014 64.3801 59.3965 64.5617 62.312C62.8738 63.5727 56.6882 68.1014 55.2654 69.0771C52.2361 71.1542 49.2546 72.8349 46.6014 75.4356C43.4094 78.5756 41.8286 83.0125 39.8161 86.9375C38.0522 90.3781 35.7501 94.4428 33.8555 97.7657C33.8555 97.7657 38.1715 102.602 50.2456 102.158L75.0748 110.196L106.584 91.704Z" fill="white"/>
<path fill-rule="evenodd" clip-rule="evenodd" d="M67.5471 56.7377C67.5395 56.7071 67.5327 56.6757 67.5259 56.6443C67.5259 56.6443 64.3962 55.2627 63.7 52.2067C63.0039 49.1507 64.1841 48.1679 65.2998 48.9443C66.4155 49.7206 60.6357 42.5292 70.9132 39.4615C81.1907 36.3937 86.1421 42.3071 86.1421 42.3071C86.6059 44.4225 86.4112 46.6351 85.5857 48.6295C86.1635 49.3687 86.5615 50.2399 86.7466 51.1705C86.9317 52.1011 86.8985 53.0639 86.6497 53.9785C85.9355 56.3987 85.004 58.7448 83.8674 60.9861C83.8119 61.0741 83.6538 61.5105 83.593 61.6142C83.2244 64.8075 81.4255 68.0268 76.525 71.0656C75.689 70.4949 73.805 69.0363 71.68 67.7827C69.7595 66.3438 68.2547 65.0438 68.2547 65.0438L67.4286 56.7228L67.5471 56.7377Z" fill="#FFD997"/>
<path fill-rule="evenodd" clip-rule="evenodd" d="M65.2886 48.8948C65.2886 48.8948 66.3488 51.5355 67.336 52.3998C67.336 52.3998 66.7516 40.4678 73.2002 40.0141C73.2002 40.0141 77.6636 40.7991 79.021 41.8321C79.021 41.8321 81.681 40.0415 83.0878 40.8799C84.4945 41.7183 85.6908 42.4185 86.3558 44.7547C86.3558 44.7547 86.7031 38.8334 83.676 35.7374C82.719 34.652 81.5308 33.8114 80.2052 33.2818C78.8796 32.7522 77.453 32.5483 76.038 32.6861C71.044 33.0747 70.4254 34.4476 70.4254 34.4476C70.4254 34.4476 65.1464 35.162 64.3203 39.9018C63.8361 42.826 63.9919 45.825 64.7763 48.6789L65.2886 48.8948Z" fill="#81F8F8"/>
<path d="M77.839 56.8625C77.7891 56.8639 77.7394 56.8552 77.6928 56.8368C77.6462 56.8184 77.6035 56.7907 77.5672 56.7553C77.5309 56.7199 77.5018 56.6774 77.4814 56.6304C77.461 56.5833 77.4498 56.5325 77.4484 56.481C77.447 56.4294 77.4554 56.3781 77.4732 56.3299C77.4911 56.2818 77.5179 56.2377 77.5522 56.2002C77.6214 56.1246 77.717 56.0804 77.8178 56.0775C78.3414 56.0469 79.8614 55.791 79.9792 55.0468C80.1206 54.1488 79.5536 52.5521 78.4592 50.7748C77.4203 49.0839 79.3925 47.1034 79.4776 47.0202C79.5505 46.9481 79.648 46.9089 79.7489 46.9112C79.8497 46.9135 79.9456 46.9571 80.0153 47.0323C80.085 47.1076 80.123 47.2084 80.1208 47.3125C80.1186 47.4167 80.0764 47.5157 80.0035 47.5877C79.9868 47.6026 78.3954 49.2056 79.1014 50.3548C79.8074 51.5041 80.9626 53.6691 80.7255 55.1732C80.5446 56.3452 78.941 56.8429 77.839 56.8625Z" fill="black"/>
<path fill-rule="evenodd" clip-rule="evenodd" d="M74.7216 49.5777C74.7216 50.0628 73.9532 50.6319 73.1583 50.6249C72.8021 50.6167 72.4528 50.5225 72.1383 50.3498C71.8238 50.1771 71.5528 49.9307 71.3472 49.6303C71.3472 49.6303 73.1833 47.7973 74.7216 49.5777Z" fill="white"/>
<path fill-rule="evenodd" clip-rule="evenodd" d="M84.0537 49.6209C84.0537 50.106 83.0459 50.6539 82.3954 50.6539C82.0655 50.6665 81.7397 50.5758 81.4607 50.3937C81.1817 50.2116 80.9626 49.9466 80.832 49.6334C80.832 49.6334 82.6857 47.6231 84.0537 49.6209Z" fill="white"/>
<path d="M70.0962 48.0784C70.0174 48.0786 69.9405 48.0535 69.8762 48.0066C69.8118 47.9597 69.7632 47.8933 69.737 47.8165C69.7108 47.7398 69.7083 47.6566 69.7299 47.5783C69.7515 47.5001 69.7961 47.4307 69.8575 47.3798C73.4782 44.367 76.1412 46.8256 76.1655 46.8499C76.2301 46.9115 76.2721 46.9942 76.2842 47.0841C76.2964 47.174 76.278 47.2655 76.2322 47.3429C76.1864 47.4204 76.116 47.4791 76.0331 47.509C75.9501 47.5389 75.8597 47.5382 75.7772 47.507C73.5276 46.6521 70.309 48.0784 70.0962 48.0784Z" fill="black"/>
<path d="M85.1192 47.6592C83.5498 46.8742 80.8191 47.5697 80.7918 47.5807C80.7073 47.6024 80.6182 47.5936 80.5393 47.5556C80.4604 47.5176 80.3965 47.4528 80.3583 47.372C80.3201 47.2912 80.31 47.1993 80.3295 47.1117C80.3491 47.0241 80.3972 46.9461 80.4657 46.8907C80.9006 46.4727 81.4177 46.1568 81.9818 45.9646C82.5458 45.7723 83.1435 45.7082 83.7337 45.7768C84.117 45.8595 84.4805 46.0201 84.8031 46.2492C85.1258 46.4783 85.4012 46.7713 85.6132 47.1113C85.6531 47.1839 85.6695 47.2678 85.66 47.3507C85.6506 47.4336 85.6158 47.5112 85.5607 47.5723C85.5057 47.6334 85.4331 47.6748 85.3537 47.6904C85.2743 47.706 85.1922 47.6951 85.1192 47.6592Z" fill="black"/>
<path fill-rule="evenodd" clip-rule="evenodd" d="M78.4421 58.3658C77.0851 57.9173 75.663 57.7162 74.2393 57.7715C74.2393 57.7715 77.5217 59.884 79.3442 59.5417C79.8849 59.4334 80.3962 59.2045 80.8425 58.8712C81.2888 58.5378 81.6593 58.1079 81.9282 57.6114C80.724 57.5655 79.5272 57.8245 78.4421 58.3658Z" fill="white"/>
<path d="M78.9214 59.9703C76.9614 59.9703 74.1661 58.1868 74.0376 58.1051C73.9663 58.0592 73.9116 57.9902 73.8823 57.9089C73.853 57.8275 73.8506 57.7384 73.8755 57.6554C73.9004 57.5725 73.9513 57.5005 74.0201 57.4506C74.0889 57.4007 74.1718 57.3758 74.2558 57.3798C75.6587 57.3344 77.0596 57.5198 78.4061 57.9293C79.5168 57.4199 80.7247 57.1765 81.9394 57.2173C82.0029 57.2195 82.0649 57.2382 82.1197 57.2715C82.1744 57.3049 82.2202 57.352 82.2528 57.4084C82.2854 57.4648 82.3038 57.5287 82.3062 57.5944C82.3087 57.66 82.2952 57.7252 82.2669 57.7841C81.9372 58.4139 81.4564 58.9457 80.8706 59.3285C80.2848 59.7114 79.6136 59.9323 78.9214 59.9703ZM75.8768 58.2433C76.9895 58.7928 78.3848 59.3258 79.2756 59.1578C80.0186 59.0155 80.6924 58.6159 81.1862 58.0251C80.3004 58.0456 79.4311 58.2763 78.6455 58.6994C78.5934 58.7336 78.534 58.7543 78.4724 58.7595C78.4108 58.7647 78.3489 58.7543 78.2921 58.7292C77.5187 58.4295 76.7025 58.2645 75.8768 58.2409V58.2433Z" fill="black"/>
<path d="M77.438 61.1856C77.3432 61.1852 77.252 61.1482 77.1823 61.082C77.1126 61.0157 77.0693 60.9249 77.061 60.8274C77.0527 60.7299 77.08 60.6327 77.1375 60.5549C77.1951 60.4771 77.2786 60.4243 77.3719 60.4069C78.3789 60.1982 79.4039 60.0967 80.4309 60.1039C80.4818 60.1101 80.531 60.127 80.5755 60.1534C80.6199 60.1798 80.6587 60.2153 80.6896 60.2576C80.7204 60.2999 80.7427 60.3482 80.7549 60.3997C80.7672 60.4511 80.7693 60.5046 80.761 60.5569C80.7527 60.6092 80.7343 60.6592 80.7068 60.7039C80.6794 60.7486 80.6434 60.7872 80.6011 60.8172C80.5588 60.8472 80.5111 60.868 80.4608 60.8784C80.4105 60.8889 80.3587 60.8887 80.3085 60.8779C79.3451 60.8991 78.3851 61.002 77.438 61.1856Z" fill="black"/>
<path d="M84.2543 46.2902C83.3416 46.2984 82.4595 46.6305 81.7557 47.2308C81.0519 47.8311 80.5694 48.6631 80.389 49.5872C79.9689 49.3639 79.4985 49.2611 79.0268 49.2897C78.5552 49.3183 78.0996 49.4771 77.7077 49.7497C77.4571 48.9706 76.9827 48.2888 76.3475 47.7952C75.7124 47.3016 74.9467 47.0196 74.1525 46.9868C73.3583 46.9539 72.5733 47.1718 71.902 47.6114C71.2307 48.0511 70.705 48.6915 70.395 49.4475L65.455 48.5416C65.3557 48.5234 65.2535 48.5466 65.1708 48.6062C65.0882 48.6659 65.0318 48.757 65.0142 48.8595C64.9965 48.962 65.0191 49.0676 65.0768 49.153C65.1345 49.2384 65.2227 49.2966 65.322 49.3148L70.1578 50.2011C70.0107 50.7913 69.9932 51.408 70.1065 52.0061C70.2198 52.6043 70.4611 53.1687 70.8128 53.6581C71.1644 54.1475 71.6175 54.5496 72.139 54.8348C72.6604 55.1201 73.237 55.2814 73.8265 55.307C74.416 55.3325 75.0037 55.2216 75.5464 54.9824C76.0891 54.7432 76.5732 54.3818 76.9633 53.9245C77.3534 53.4672 77.6396 52.9257 77.801 52.3394C77.9624 51.7532 77.9949 51.1371 77.8962 50.5363C78.7709 50.0205 79.822 49.7355 80.3206 50.6407C80.372 51.4349 80.6472 52.1963 81.1122 52.8312C81.5772 53.466 82.2117 53.9465 82.9378 54.2136C83.6638 54.4807 84.4496 54.5227 85.1984 54.3345C85.9473 54.1462 86.6265 53.7359 87.1524 53.154C87.6784 52.5721 88.0281 51.8441 88.1587 51.0596C88.2892 50.275 88.1948 49.4682 87.887 48.7383C87.5793 48.0085 87.0717 47.3875 86.4266 46.9518C85.7816 46.5162 85.0273 46.2848 84.2566 46.2863L84.2543 46.2902ZM73.9943 54.5327C73.3433 54.5497 72.7022 54.3659 72.1528 54.0046C71.6035 53.6434 71.1709 53.1212 70.9103 52.5048C70.6497 51.8883 70.5729 51.2057 70.6899 50.5439C70.8068 49.8822 71.112 49.2715 71.5666 48.7899C72.0212 48.3083 72.6045 47.9776 73.242 47.8401C73.8794 47.7026 74.5421 47.7645 75.1454 48.0179C75.7486 48.2713 76.265 48.7048 76.6285 49.2628C76.9921 49.8209 77.1863 50.4783 77.1863 51.1509C77.1955 52.0351 76.8653 52.887 76.268 53.5205C75.6707 54.1539 74.8548 54.5173 73.9989 54.5311L73.9943 54.5327ZM84.2543 53.8403C83.6033 53.8573 82.9621 53.6735 82.4127 53.3122C81.8634 52.951 81.4308 52.4287 81.1702 51.8122C80.9096 51.1957 80.8329 50.513 80.9499 49.8513C81.0669 49.1896 81.3722 48.5789 81.8269 48.0973C82.2816 47.6157 82.8649 47.285 83.5024 47.1476C84.14 47.0102 84.8027 47.0722 85.4059 47.3258C86.0091 47.5793 86.5254 48.0129 86.8889 48.5711C87.2523 49.1292 87.4464 49.7866 87.4463 50.4593C87.4553 51.3442 87.1244 52.1966 86.5261 52.83C85.9278 53.4634 85.111 53.8261 84.2543 53.8387V53.8403Z" fill="black"/>
<path d="M75.013 49.3257C74.8136 49.0555 74.5609 48.8322 74.2716 48.6706C73.9823 48.509 73.663 48.4128 73.3349 48.3884C72.4939 48.4016 71.6891 48.7445 71.0838 49.3477C71.0295 49.402 70.9921 49.4719 70.9765 49.5483C70.9608 49.6247 70.9676 49.7041 70.9959 49.7765C71.0242 49.8489 71.0728 49.9109 71.1354 49.9547C71.1981 49.9984 71.2719 50.0219 71.3475 50.022C71.5998 50.022 71.6241 49.8163 72.204 49.4835C72.1898 49.5349 72.1796 49.5874 72.1736 49.6405C72.1629 49.7808 72.1805 49.9219 72.2251 50.0549C72.2698 50.1879 72.3406 50.3099 72.4331 50.4132C72.5256 50.5166 72.6378 50.5991 72.7626 50.6555C72.8875 50.7119 73.0223 50.741 73.1586 50.741C73.2948 50.741 73.4296 50.7119 73.5545 50.6555C73.6793 50.5991 73.7915 50.5166 73.8841 50.4132C73.9766 50.3099 74.0474 50.1879 74.092 50.0549C74.1367 49.9219 74.1542 49.7808 74.1435 49.6405C74.1381 49.5981 74.13 49.5562 74.1192 49.5149C74.2329 49.6086 74.3373 49.7138 74.4308 49.8289C74.4956 49.9086 74.5884 49.9585 74.6888 49.9676C74.7892 49.9766 74.889 49.9441 74.9662 49.8772C75.0434 49.8102 75.0917 49.7144 75.1005 49.6107C75.1093 49.5069 75.0778 49.4039 75.013 49.3241V49.3257Z" fill="black"/>
<path d="M84.3567 49.3845C84.1793 49.1095 83.9439 48.8795 83.6681 48.7119C83.3924 48.5443 83.0834 48.4433 82.7645 48.4166C81.9158 48.4539 81.115 48.8333 80.5339 49.4732C80.4828 49.529 80.4485 49.599 80.4355 49.6746C80.4225 49.7503 80.4313 49.8282 80.4608 49.8987C80.4902 49.9692 80.5391 50.0293 80.6012 50.0714C80.6634 50.1136 80.7362 50.136 80.8106 50.1358C81.0332 50.1358 81.0386 50.0141 81.4588 49.7009C81.4829 49.9243 81.587 50.1304 81.7507 50.2786C81.9144 50.4267 82.1259 50.5063 82.3435 50.5016C82.4817 50.5083 82.6194 50.4798 82.7444 50.4187C82.8695 50.3575 82.9781 50.2656 83.0606 50.1509C83.1432 50.0362 83.1972 49.9023 83.2179 49.761C83.2387 49.6198 83.2255 49.4754 83.1795 49.3406C83.4036 49.467 83.5971 49.6441 83.7457 49.8587C83.8066 49.9424 83.8971 49.9977 83.9975 50.0124C84.0978 50.0271 84.1997 50 84.2807 49.9372C84.3618 49.8743 84.4153 49.7807 84.4295 49.6771C84.4438 49.5735 84.4176 49.4682 84.3567 49.3845Z" fill="black"/>
<path fill-rule="evenodd" clip-rule="evenodd" d="M48.8538 102.268C44.9512 102.213 41.0899 101.435 37.4538 99.9707C37.4538 99.9707 32.073 114.956 37.9295 115.763C43.7861 116.57 67.245 113.127 69.1458 113.346C71.0465 113.565 73.2452 115.416 74.5691 115.522L75.0745 106.573C72.894 105.741 70.5534 105.458 68.2459 105.746C64.7751 106.094 61.2719 105.717 57.9449 104.638C56.2106 104.097 52.9114 102.412 48.8538 102.268Z" fill="#FFD997"/>
<path d="M102.772 75.1608C100.406 70.7829 98.3499 69.4625 94.6305 67.1099C91.5654 65.1709 85.6807 61.7162 84.3423 60.9319C85.4034 58.7315 86.2947 56.4479 87.0077 54.1024C87.276 53.1659 87.3269 52.1772 87.1563 51.2165C86.9857 50.2558 86.5984 49.3502 86.0258 48.5729C86.5984 47.0978 86.8459 45.5095 86.75 43.9233C86.6847 42.1383 86.4035 37.973 83.976 35.4932C82.9831 34.354 81.7454 33.4712 80.3623 32.9157C78.9791 32.3601 77.4892 32.1473 76.012 32.2944C71.8464 32.6186 70.5727 33.6422 70.2109 34.0865C69.2754 34.2655 64.7283 35.3606 63.9493 39.8327C63.4796 42.662 63.5946 45.562 64.2867 48.3421C62.9028 48.6875 62.9947 50.8313 63.3299 52.2977C63.9326 54.9424 66.1958 56.3844 67.0539 56.8444C66.3934 57.4049 64.1408 59.5134 64.1742 62.1181C62.9164 63.0601 54.7692 69.1697 51.6342 70.9831C47.2957 73.482 43.8459 77.3501 41.79 82.021C39.3929 87.4375 33.5865 97.4666 33.528 97.564C33.486 97.6366 33.4677 97.7213 33.4761 97.8054C33.4845 97.8896 33.5189 97.9687 33.5744 98.031C33.775 98.2548 37.7901 102.584 48.6398 102.584C51.3977 102.568 54.15 102.325 56.8706 101.858C56.9409 101.846 57.0067 101.815 57.0604 101.767C57.1142 101.719 57.1537 101.656 57.1746 101.586C57.354 100.984 61.5066 86.7592 56.1258 78.4987C56.0695 78.4123 55.9822 78.3525 55.8833 78.3326C55.7843 78.3126 55.6817 78.3341 55.598 78.3923C55.5144 78.4505 55.4565 78.5406 55.4372 78.6429C55.4179 78.7451 55.4387 78.8511 55.495 78.9375C60.3073 86.3267 57.0325 99.2297 56.5142 101.122C41.7162 103.517 35.4964 98.7399 34.3382 97.6927C35.2882 96.0442 40.2912 87.2962 42.4823 82.342C44.4722 77.8241 47.8101 74.0829 52.0074 71.666C55.0345 69.9131 62.4034 64.4158 64.3278 62.9706C65.0404 66.2408 66.1584 69.4025 67.6543 72.3772C68.6477 74.1677 69.3656 76.1068 69.7823 78.125C69.9343 78.8213 70.2071 80.2547 70.8934 80.206C71.4558 80.1715 71.927 79.2978 73.032 77.1485C74.1789 74.9206 75.7483 71.8686 77.0464 71.5436C79.429 70.9454 83.1264 73.7164 83.1659 73.7416C83.212 73.7765 83.2651 73.8002 83.3213 73.8109C83.3775 73.8217 83.4354 73.8192 83.4905 73.8036C83.5457 73.7881 83.5967 73.7599 83.6399 73.7212C83.683 73.6824 83.7171 73.6341 83.7397 73.5799C83.8696 73.2659 86.728 66.3312 86.2074 62.9266C88.5885 64.3326 92.1012 66.4262 94.2368 67.7748C97.9091 70.0952 99.8319 71.3222 102.112 75.5392C104.45 79.8614 106.195 91.6396 106.216 91.7581C106.222 91.8105 106.238 91.8612 106.263 91.9071C106.288 91.953 106.322 91.9932 106.363 92.0252C106.403 92.0573 106.45 92.0806 106.499 92.0937C106.548 92.1068 106.6 92.1095 106.65 92.1016C106.701 92.0937 106.749 92.0753 106.793 92.0476C106.836 92.0199 106.874 91.9834 106.904 91.9404C106.933 91.8973 106.954 91.8486 106.965 91.797C106.976 91.7455 106.976 91.6922 106.967 91.6404C106.889 91.156 105.179 79.6079 102.772 75.1608ZM76.069 33.0778C77.4292 32.9508 78.7995 33.1498 80.073 33.6595C81.3466 34.1691 82.489 34.9756 83.4114 36.016C85.0073 37.652 85.6252 40.1553 85.8563 42.0605C85.7043 42.2521 85.7803 42.3942 85.8319 42.6807C85.149 41.7762 84.2754 41.0443 83.2776 40.5408C81.9141 39.7244 79.7466 40.9215 79.0277 41.3666C77.7489 40.7218 76.3921 40.2571 74.9936 39.985C72.9956 39.5234 71.1981 39.2251 68.9744 37.2516C70.1311 33.9845 72.9302 33.3219 76.069 33.0778ZM64.6971 39.9717C65.2223 36.9604 67.6452 35.6785 69.1811 35.1604C68.7386 35.7955 68.3966 36.4993 68.168 37.2454C68.1457 37.3157 68.143 37.3911 68.1603 37.4629C68.1777 37.5347 68.2143 37.6 68.2661 37.6512C69.2954 38.6126 70.4809 39.3788 71.7682 39.9144C67.4628 41.4663 66.9634 48.5258 66.9376 51.3063C66.4335 50.4923 65.9982 49.6351 65.6365 48.744C65.5605 48.5572 65.4434 48.5376 65.0855 48.3861C64.3726 45.6426 64.2402 42.7727 64.6971 39.9717ZM64.0701 52.118C63.6688 50.3556 63.947 49.4293 64.308 49.1719C64.4177 49.1093 64.5426 49.081 64.6676 49.0905C64.7925 49.1 64.9121 49.1468 65.0118 49.2252C65.2952 49.8972 66.6298 52.7915 67.3358 52.7915C67.3874 52.7916 67.4384 52.7808 67.4858 52.7599C67.5332 52.7389 67.5759 52.7082 67.6115 52.6697C67.647 52.6311 67.6746 52.5855 67.6925 52.5356C67.7105 52.4857 67.7184 52.4325 67.7158 52.3794C67.7098 52.2632 67.2211 40.8807 73.181 40.4097C74.4342 40.6326 77.7539 41.3517 78.7951 42.1485C78.8575 42.1959 78.9324 42.2225 79.0098 42.2248C79.0872 42.227 79.1635 42.2048 79.2283 42.161C79.9123 41.701 81.9149 40.6303 82.9333 41.2426C84.3013 42.0574 85.3744 42.7011 85.9946 44.8669L86.0022 44.8826C85.9877 46.1181 85.7291 47.3375 85.2422 48.4661C85.2119 48.5341 85.201 48.6096 85.2108 48.6837C85.2206 48.7578 85.2508 48.8275 85.2977 48.8845C85.8298 49.5741 86.1967 50.3838 86.3684 51.2476C86.54 52.1114 86.5117 53.0048 86.2857 53.8552C85.5839 56.2442 84.6666 58.5599 83.5459 60.7718C82.7046 62.1063 81.7637 64.3365 79.3317 64.6348C76.7758 64.9488 68.9402 61.3009 67.8952 56.5587C67.8819 56.4985 67.855 56.4423 67.8167 56.3949C67.7784 56.3474 67.7298 56.3099 67.6748 56.2855C67.6459 56.2714 64.7123 54.9385 64.0701 52.118ZM67.7622 63.9903C67.3895 63.3867 67.1586 62.7015 67.0879 61.9894C67.0172 61.2772 67.1086 60.5578 67.3548 59.8887L67.7622 63.9903ZM70.9147 79.3229C70.3644 78.2326 70.5696 76.2347 68.3147 72.0004C66.7796 68.9161 65.6433 65.6368 64.935 62.2468C64.8362 60.3157 66.3228 58.6013 67.1474 57.8037L67.1869 58.1962C66.8304 58.9027 65.467 61.9642 67.0888 64.3734C68.8011 66.9199 73.0883 68.8196 75.9519 71.2727C73.8566 72.9707 71.8875 78.1996 70.9177 79.3229H70.9147ZM76.4292 70.6518C74.1166 68.6775 70.5369 66.8477 68.6256 64.992L68.0115 58.803C70.3736 62.7108 76.3601 65.4355 79.0315 65.4355C79.7583 65.4066 80.4697 65.2106 81.1139 64.8619C81.7581 64.5132 82.3189 64.0205 82.7555 63.4196C81.351 67.3226 77.4142 70.0262 76.4323 70.6518H76.4292ZM83.213 72.8302C82.2759 72.1881 79.8644 70.6934 77.7737 70.6816C79.7292 69.2686 83.4288 66.0556 83.9646 61.6643C83.9745 61.5858 83.7617 61.4964 85.3159 62.4093C85.2984 62.7202 86.4833 64.4958 83.216 72.8302H83.213Z" fill="black"/>
<path d="M98.2483 92.0965C98.1944 92.0969 98.1409 92.0855 98.0916 92.0628C98.0422 92.0402 97.9981 92.007 97.9622 91.9654C97.9262 91.9239 97.8992 91.8748 97.8831 91.8216C97.8669 91.7684 97.8619 91.7123 97.8683 91.6569C98.3669 87.3787 97.3728 80.8773 97.3622 80.8122C97.3543 80.7612 97.3562 80.7092 97.3678 80.659C97.3794 80.6089 97.4004 80.5616 97.4297 80.5198C97.459 80.478 97.496 80.4426 97.5385 80.4156C97.581 80.3886 97.6283 80.3705 97.6776 80.3623C97.7269 80.3542 97.7773 80.3562 97.8258 80.3681C97.8744 80.3801 97.9202 80.4018 97.9607 80.4321C98.0011 80.4623 98.0354 80.5005 98.0615 80.5444C98.0877 80.5884 98.1052 80.6372 98.1131 80.6881C98.1549 80.9582 99.1338 87.3606 98.623 91.7503C98.6121 91.8453 98.568 91.9328 98.499 91.9966C98.43 92.0603 98.3409 92.0959 98.2483 92.0965Z" fill="black"/>
<path d="M37.8801 116.156C32.6976 115.44 35.2254 105.058 37.0251 100.046C37.0409 99.9959 37.0664 99.9494 37.1 99.9096C37.1337 99.8697 37.1748 99.8373 37.2209 99.8142C37.2669 99.7912 37.317 99.778 37.3682 99.7755C37.4193 99.7729 37.4704 99.7811 37.5184 99.7995C37.5664 99.8178 37.6103 99.846 37.6475 99.8823C37.6847 99.9187 37.7144 99.9624 37.7349 100.011C37.7553 100.059 37.766 100.112 37.7664 100.164C37.7668 100.217 37.7569 100.27 37.7372 100.319C36.2172 104.543 33.5648 114.769 37.9804 115.377C43.7731 116.177 67.1978 112.736 69.189 112.959C70.972 113.166 72.9313 114.678 74.2164 115.057L74.6793 106.846C72.6286 106.123 70.4477 105.881 68.2953 106.139C63.8417 106.756 59.1608 105.438 57.8331 105.019C55.0576 104.141 49.5005 101.219 43.0496 103.456C43.0023 103.473 42.9523 103.479 42.9025 103.476C42.8526 103.473 42.804 103.459 42.7592 103.436C42.7145 103.413 42.6745 103.381 42.6417 103.343C42.6088 103.304 42.5837 103.259 42.5677 103.21C42.5357 103.111 42.5429 103.003 42.5878 102.91C42.6327 102.817 42.7116 102.746 42.8071 102.713C48.5444 100.721 53.6516 102.638 56.7037 103.783C60.3662 105.212 64.298 105.753 68.195 105.362C70.5686 105.059 72.9779 105.352 75.2189 106.215C75.2918 106.246 75.3535 106.3 75.3955 106.369C75.4374 106.438 75.4575 106.519 75.4529 106.6L74.9475 115.549C74.9446 115.601 74.9316 115.652 74.9094 115.699C74.8872 115.746 74.8562 115.787 74.8182 115.822C74.7802 115.856 74.736 115.882 74.6881 115.898C74.6403 115.915 74.5897 115.921 74.5394 115.917C73.1046 115.803 70.9089 113.948 69.1024 113.74C67.2928 113.518 43.843 116.972 37.8801 116.156Z" fill="black"/>
<path fill-rule="evenodd" clip-rule="evenodd" d="M54.4146 114.714L72.973 129.337L74.4238 114.763L68.5323 113.35L54.4146 114.714Z" fill="white"/>
<path d="M124.6 91.0242C124.419 90.8154 127.704 90.8177 76.636 92.0502C76.5435 92.0524 76.4549 92.0894 76.3868 92.1543C76.3188 92.2192 76.2761 92.3075 76.2667 92.4027L74.0878 114.295C72.1042 113.844 69.3264 112.949 69.1143 112.96L54.4615 114.452C54.3847 114.459 54.3119 114.49 54.2525 114.541C54.1932 114.592 54.1503 114.66 54.1294 114.736C54.1085 114.813 54.1108 114.895 54.1357 114.97C54.1607 115.045 54.2073 115.111 54.2692 115.158L72.7372 129.652C72.947 129.822 69.72 129.97 120.009 126.335C120.097 126.329 120.179 126.291 120.243 126.229C120.307 126.167 120.348 126.084 120.36 125.994C125.024 88.9078 124.782 91.233 124.6 91.0242ZM72.6643 128.602L55.5004 115.132L69.1166 113.748C69.6334 113.899 72.6787 114.785 74.0102 115.083L72.6643 128.602Z" fill="black"/>
<path fill-rule="evenodd" clip-rule="evenodd" d="M86.2305 72.9558C85.6842 72.4825 85.033 72.1563 84.3349 72.0063C83.6368 71.8563 82.9136 71.8872 82.2299 72.0962C80.7179 72.477 79.3958 73.4221 78.5181 74.7495C78.5181 74.7495 81.7146 90.9135 85.1696 90.5916C87.2337 90.4001 89.3496 89.7901 88.9316 84.9953C88.5136 80.2006 86.2305 72.9558 86.2305 72.9558Z" fill="white"/>
<path d="M89.3085 84.96C88.9201 80.509 86.9844 74.1074 86.6416 72.9982C86.5527 72.2838 85.988 68.2371 84.3327 66.2856C83.9323 65.8562 83.4324 65.5396 82.8803 65.3657C82.3282 65.1917 81.7423 65.1663 81.178 65.2918C79.5478 65.5493 77.8614 66.6781 77.34 67.8603C76.6514 69.4194 77.7542 73.4378 78.1 74.5941C78.8022 78.1266 81.7564 91.3004 85.206 90.9825C86.3285 90.9825 87.4125 90.56 88.2551 89.794C89.1626 88.8324 89.5084 87.2506 89.3085 84.96ZM87.7079 89.2445C86.987 89.8687 86.0745 90.2077 85.1338 90.2007C82.4632 90.455 79.4893 77.6038 78.9322 74.8884C80.288 73.2831 81.6902 72.4275 83.1016 72.3576C84.1456 72.3241 85.1648 72.6907 85.963 73.3867C86.3946 74.8045 88.1898 80.8835 88.5515 85.0306C88.7301 87.0787 88.4542 88.4572 87.7079 89.2445Z" fill="black"/>
<path fill-rule="evenodd" clip-rule="evenodd" d="M80.2136 81.9363C80.2136 81.9363 80.9995 77.0316 83.6519 77.0693C86.3043 77.107 88.1723 79.8168 88.1723 79.8168C88.1723 79.8168 89.1702 75.4404 87.5575 74.1695C85.9448 72.8986 81.9092 72.2996 78.7924 76.7529C78.5941 78.606 79.1041 80.4658 80.2136 81.9363Z" fill="white"/>
<path fill-rule="evenodd" clip-rule="evenodd" d="M51.7145 59.8189L51.4227 54.4165L48.2147 54.3121L48.1873 55.2141L16.9103 42.8362L16.5379 44.5844L48.258 56.6977L48.4541 61.7602L14.9107 51.6023L14.3164 53.5813L48.4792 63.455L48.5362 64.3664L51.7145 64.0649L51.6757 62.1747L79.2516 76.1422L80.4714 74.8783L51.7145 59.8189Z" fill="white"/>
<path d="M87.7878 73.8594C86.0162 72.4629 82.9739 72.3891 80.4333 74.4175L51.9644 59.5096L51.8064 54.3898C51.8042 54.2864 51.7635 54.1878 51.6927 54.1147C51.6219 54.0416 51.5265 53.9995 51.4264 53.9973H48.1888C48.1383 53.9951 48.0879 54.0037 48.0408 54.0227C47.9937 54.0416 47.951 54.0704 47.9153 54.1073C47.8795 54.1442 47.8516 54.1884 47.8333 54.237C47.815 54.2856 47.8066 54.3377 47.8088 54.3898L47.8179 54.6567L17.1139 42.53C17.0197 42.4928 16.9151 42.4957 16.8231 42.538C16.731 42.5804 16.659 42.6589 16.6229 42.7561C16.5868 42.8533 16.5896 42.9614 16.6307 43.0565C16.6717 43.1516 16.7477 43.226 16.8418 43.2632L47.8004 55.4951L47.8262 56.171L16.708 44.2029C16.6135 44.1665 16.5089 44.1705 16.4172 44.2138C16.3254 44.2572 16.2541 44.3364 16.219 44.4341C16.1838 44.5317 16.1876 44.6398 16.2296 44.7345C16.2716 44.8292 16.3483 44.9029 16.4428 44.9392L47.9068 57.0384L48.0527 61.2287L15.0186 51.2286C14.9701 51.2119 14.9189 51.2055 14.868 51.2097C14.817 51.2139 14.7675 51.2287 14.7222 51.2532C14.6769 51.2776 14.6369 51.3113 14.6045 51.352C14.5721 51.3928 14.548 51.44 14.5337 51.4906C14.5193 51.5412 14.515 51.5943 14.5209 51.6467C14.5269 51.6991 14.543 51.7498 14.5683 51.7956C14.5937 51.8414 14.6277 51.8815 14.6683 51.9134C14.709 51.9453 14.7555 51.9685 14.805 51.9814L48.0489 62.0451L48.096 62.9652L14.4797 53.1597C14.3827 53.1315 14.2787 53.1443 14.1908 53.1952C14.1029 53.2462 14.0381 53.3311 14.0108 53.4313C13.9835 53.5316 13.9958 53.6389 14.0452 53.7298C14.0945 53.8206 14.1767 53.8875 14.2738 53.9157L48.1401 63.7949C48.1584 64.3185 48.1181 64.5407 48.2921 64.6969C48.4662 64.8531 48.3438 64.8193 51.7623 64.4967C51.8587 64.4875 51.9482 64.4407 52.0123 64.3657C52.0764 64.2907 52.1104 64.1932 52.1073 64.0932L52.0678 62.8097L78.6701 76.2842C78.5371 76.464 78.433 76.5449 78.4155 76.7089C78.2078 78.66 78.7431 80.618 79.9081 82.1686C79.9521 82.2318 80.0133 82.2801 80.0839 82.3073C80.1545 82.3346 80.2313 82.3395 80.3046 82.3215C80.378 82.3035 80.4444 82.2633 80.4956 82.2062C80.5468 82.1491 80.5804 82.0775 80.5921 82.0006C80.8786 80.2218 81.8689 77.4476 83.6504 77.4602C86.0725 77.4759 87.8478 80.0201 87.8661 80.0452C87.9085 80.1067 87.9672 80.1542 88.0351 80.1821C88.103 80.21 88.1772 80.2171 88.2489 80.2025C88.3207 80.1879 88.3868 80.1523 88.4394 80.0999C88.492 80.0475 88.5288 79.9805 88.5455 79.907C88.6504 79.4352 89.5457 75.2441 87.7878 73.8594ZM48.9062 63.9747L48.5862 54.7847H51.0585L51.3344 63.7478L48.9062 63.9747ZM52.0382 61.9188L51.9918 60.4021L79.8078 74.9662C79.5912 75.1758 79.3746 75.4019 79.1595 75.6539L52.0382 61.9188ZM87.9497 78.9297C87.4133 78.2713 86.7533 77.7319 86.0095 77.3442C85.2658 76.9564 84.4537 76.7283 83.6222 76.6736C81.4456 76.6736 80.4302 79.4502 80.0404 80.9479C79.3348 79.7301 79.0261 78.3106 79.1595 76.8981C79.6841 76.0673 80.3668 75.3553 81.1662 74.8055C81.9655 74.2557 82.8647 73.8796 83.8092 73.7C85.0359 73.4781 86.2979 73.7598 87.3265 74.485C88.2772 75.2323 88.1647 77.5034 87.9497 78.9321V78.9297Z" fill="black"/>
<path fill-rule="evenodd" clip-rule="evenodd" d="M40.7168 124.257C40.7168 124.257 40.7928 127.397 38.0112 128.115C34.8769 128.922 29.4308 128.731 27.1227 127.594C26.5205 127.298 26.0013 126.849 25.614 126.288C25.2268 125.727 24.9843 125.073 24.9095 124.389L24.1001 106.35C24.1001 106.35 23.7004 102.652 31.4873 102.122C39.1193 101.606 40.0981 105.8 40.0981 105.8L40.2144 109.27C40.2144 109.27 43.7705 108.831 44.9925 112.163C46.2146 115.494 46.1455 123.037 40.7472 124.252L40.7168 124.257ZM40.618 121.308L40.3102 112.08C43.6025 111.661 42.9056 114.059 42.9269 116.755C42.9481 119.451 42.5674 120.321 41.9389 120.94C41.555 121.221 41.0866 121.352 40.618 121.308Z" fill="white"/>
<path d="M45.3501 112.025C44.9737 111.051 44.3118 110.222 43.457 109.655C42.6022 109.088 41.5973 108.811 40.5826 108.862L40.48 105.788L40.4694 105.71C40.4268 105.525 39.3225 101.21 31.4634 101.733C28.0228 101.969 25.6744 102.832 24.482 104.305C23.9826 104.871 23.7109 105.612 23.722 106.377L24.5314 124.413C24.6089 125.168 24.8734 125.889 25.2993 126.508C25.7253 127.127 26.2984 127.622 26.9634 127.945C29.1249 129.01 34.6067 129.393 38.1073 128.495C38.9463 128.255 39.6886 127.744 40.225 127.036C40.7614 126.328 41.0634 125.46 41.0865 124.562C41.8964 124.353 42.6538 123.968 43.3083 123.433C43.9628 122.898 44.4993 122.225 44.8819 121.459C46.386 118.608 46.2461 114.471 45.3501 112.025ZM40.6997 112.373C41.8237 112.232 42.5472 112.612 42.5472 113.782C42.5472 116.149 43.2456 120.599 40.9839 120.877L40.6997 112.373ZM25.0877 104.78C26.6267 102.925 30.413 102.473 32.7713 102.473C38.2874 102.473 39.5004 105.199 39.6972 105.784C38.0799 109.48 27.7143 110.226 24.4835 106.135C24.542 105.629 24.7534 105.154 25.0877 104.78ZM37.9196 127.733C34.7876 128.54 29.4205 128.29 27.2864 127.239C26.7445 126.976 26.2767 126.574 25.9272 126.072C25.5778 125.57 25.3584 124.984 25.2899 124.37L24.5231 107.3C25.5612 108.242 27.7804 109.661 31.7605 109.663C34.5018 109.663 37.9492 109.169 39.7626 107.073L40.3371 124.264C40.3394 124.382 40.3645 127.104 37.9196 127.734V127.733ZM44.2108 121.083C43.8915 121.724 43.4493 122.291 42.9112 122.75C42.373 123.209 41.7501 123.55 41.0804 123.752L41.0105 121.657C44.1075 121.351 43.3072 116.409 43.3072 113.781C43.3072 112.153 42.2242 111.421 40.6738 111.583L40.6084 109.639C41.4657 109.587 42.3168 109.817 43.0401 110.295C43.7635 110.773 44.3222 111.475 44.6364 112.3C45.3554 114.258 45.6966 118.274 44.2108 121.084V121.083Z" fill="black"/>
<path d="M37.9011 112.913C37.8979 112.854 37.8826 112.797 37.8562 112.745C37.8298 112.693 37.793 112.647 37.7482 112.611C37.7033 112.575 37.6515 112.549 37.5962 112.536C37.541 112.522 37.4835 112.52 37.4276 112.532C37.36 112.547 30.6005 114.032 26.7975 112.827C26.7395 112.808 26.6782 112.805 26.6186 112.816C26.5589 112.827 26.5028 112.853 26.4547 112.891C26.2328 113.067 26.2944 112.734 26.5224 119.316C26.5253 119.396 26.5521 119.473 26.5992 119.538C26.6462 119.602 26.7112 119.65 26.7853 119.674C28.2939 120.262 29.9036 120.523 31.5141 120.44L30.656 122.576C30.6245 122.658 30.6209 122.749 30.6457 122.834C30.6705 122.918 30.7224 122.992 30.7928 123.042C30.8632 123.093 30.9481 123.117 31.0337 123.112C31.1192 123.106 31.2004 123.071 31.264 123.011L34.1467 120.197C35.3436 120.214 36.5338 120.011 37.6617 119.597C37.7336 119.568 37.795 119.517 37.8372 119.45C37.8795 119.384 37.9005 119.305 37.8973 119.226L37.9011 112.913Z" fill="black"/>
<path d="M25.0237 18.3747C25.023 18.3231 25.0124 18.272 24.9926 18.2246C24.9727 18.1771 24.944 18.1342 24.9081 18.0982C24.8721 18.0623 24.8297 18.034 24.7831 18.015C24.7366 17.9961 24.6869 17.9868 24.6368 17.9877L4.29618 18.3606C4.24803 18.362 4.20064 18.3733 4.1568 18.3939C4.11296 18.4146 4.07356 18.444 4.04091 18.4806C4.00826 18.5172 3.98302 18.5601 3.96669 18.6069C3.95036 18.6537 3.94327 18.7034 3.94582 18.7531V39.9057C3.95036 40.0124 3.99496 40.1131 4.07016 40.1863C4.14536 40.2596 4.24525 40.2998 4.34862 40.2982H5.68546C5.73432 40.2976 5.78257 40.2869 5.82736 40.2667C5.87215 40.2466 5.91256 40.2173 5.94622 40.1807C5.97987 40.1441 6.00608 40.1009 6.0233 40.0537C6.04052 40.0065 6.04839 39.9562 6.04646 39.9057V20.5696L24.6703 20.203C24.7706 20.2009 24.8662 20.1579 24.9359 20.0833C25.0057 20.0088 25.0441 19.9087 25.0427 19.805L25.0237 18.3747Z" fill="black"/>
<path d="M24.4425 137.546L5.82247 137.18V117.848C5.8244 117.797 5.81652 117.747 5.79931 117.7C5.78209 117.652 5.75588 117.609 5.72222 117.573C5.68857 117.536 5.64815 117.507 5.60336 117.487C5.55858 117.466 5.51033 117.456 5.46147 117.455H4.12007C4.0168 117.454 3.91713 117.494 3.84201 117.567C3.76689 117.641 3.72218 117.741 3.71727 117.848V138.999C3.71482 139.049 3.72199 139.099 3.73836 139.145C3.75472 139.192 3.77996 139.235 3.81259 139.272C3.84522 139.308 3.88459 139.338 3.92838 139.358C3.97217 139.379 4.01951 139.39 4.06763 139.392L24.4151 139.765C24.515 139.765 24.6108 139.724 24.6819 139.652C24.7531 139.579 24.7937 139.481 24.7951 139.378L24.8149 137.948C24.816 137.896 24.8072 137.845 24.7891 137.796C24.771 137.748 24.7438 137.704 24.7092 137.667C24.6746 137.63 24.6333 137.6 24.5875 137.579C24.5417 137.559 24.4924 137.547 24.4425 137.546Z" fill="black"/>
<path d="M148.481 18.3607C126.75 17.9603 128.037 17.9297 127.869 18.0977C127.717 18.2492 127.755 18.2602 127.734 19.8051C127.733 19.9089 127.771 20.0091 127.841 20.0837C127.911 20.1583 128.007 20.2012 128.107 20.2031L146.727 20.5697V39.9019C146.725 39.9523 146.733 40.0026 146.75 40.0499C146.767 40.0971 146.794 40.1403 146.827 40.1769C146.861 40.2135 146.901 40.2427 146.946 40.2629C146.991 40.2831 147.039 40.2938 147.088 40.2944H148.425C148.528 40.2955 148.628 40.2552 148.703 40.1821C148.778 40.1089 148.823 40.0084 148.828 39.9019V18.754C148.83 18.7046 148.823 18.6551 148.807 18.6085C148.791 18.5619 148.766 18.5191 148.734 18.4825C148.702 18.4459 148.663 18.4163 148.619 18.3954C148.576 18.3745 148.529 18.3627 148.481 18.3607Z" fill="black"/>
<path d="M148.603 117.844C148.598 117.737 148.554 117.636 148.479 117.563C148.403 117.49 148.303 117.45 148.2 117.451H146.862C146.814 117.452 146.765 117.463 146.721 117.483C146.676 117.503 146.636 117.532 146.602 117.569C146.568 117.605 146.542 117.649 146.525 117.696C146.508 117.743 146.5 117.793 146.502 117.844V137.176L127.882 137.542C127.781 137.544 127.685 137.587 127.615 137.662C127.545 137.736 127.507 137.837 127.508 137.94C127.53 139.468 127.492 139.495 127.643 139.648C127.821 139.824 126.489 139.785 148.256 139.385C148.304 139.383 148.351 139.372 148.395 139.351C148.439 139.331 148.478 139.301 148.511 139.265C148.544 139.228 148.569 139.185 148.585 139.138C148.601 139.092 148.608 139.042 148.606 138.992L148.603 117.844Z" fill="black"/>
</svg>
