<svg width="152" height="157" viewBox="0 0 152 157" fill="none" xmlns="http://www.w3.org/2000/svg">
<path fill-rule="evenodd" clip-rule="evenodd" d="M71.4753 75.2625L4.04932 123.459V131.294L71.4753 141.249V133.016L116.186 78.338L71.4753 75.2625Z" fill="white"/>
<path d="M116.299 77.9463C68.2987 74.6469 71.5098 74.8263 71.3489 74.9418C16.1788 114.669 5.87157 121.821 4.06863 123.133C3.51823 123.532 3.75983 123.592 3.75983 123.592V131.181C3.75985 131.275 3.7927 131.365 3.85235 131.436C3.91199 131.507 3.99443 131.554 4.08448 131.567C57.4049 139.416 68.8212 141.112 71.2236 141.429C71.6683 141.487 71.7997 141.429 71.8571 141.357C117.912 82.337 115.997 84.9383 116.015 84.7604L116.65 78.3761C116.681 78.047 116.408 78.0002 116.299 77.9463ZM71.6691 75.6609L115.504 78.6733L71.4116 132.6L5.15054 123.209L71.6691 75.6609ZM71.1572 140.662L4.51483 130.841V123.906L71.1572 133.356V140.662Z" fill="black"/>
<path fill-rule="evenodd" clip-rule="evenodd" d="M12.3872 86.7456V96.8521L21.1452 93.1806V83.1108L12.3872 86.7456Z" fill="#FFD997"/>
<path fill-rule="evenodd" clip-rule="evenodd" d="M15.6603 95.4684L15.5259 104.14L23.655 100.804V92.3226L15.6603 95.4684Z" fill="#FFD997"/>
<path d="M23.5379 91.9521L21.519 92.6408V83.1108C21.5191 83.0468 21.5039 82.9838 21.4749 82.9274C21.4459 82.8709 21.4039 82.8226 21.3526 82.7869C21.3013 82.7511 21.2422 82.729 21.1807 82.7223C21.1191 82.7157 21.0569 82.7248 20.9995 82.7488L12.2846 86.3844C12.2109 86.4117 12.146 86.4597 12.0974 86.5232C12.0489 86.5866 12.0185 86.6628 12.0098 86.7432V96.8489C12.0098 97.125 12.1608 97.2389 12.348 97.2389C12.428 97.2389 12.1721 97.3473 15.2744 96.0502L15.1483 104.133C15.1475 104.185 15.1567 104.236 15.1753 104.284C15.1939 104.333 15.2216 104.376 15.2567 104.413C15.2918 104.45 15.3337 104.479 15.3799 104.499C15.4261 104.519 15.4757 104.53 15.5258 104.53C15.6338 104.53 15.1 104.735 23.7946 101.167C23.8649 101.138 23.9253 101.088 23.9679 101.024C24.0104 100.959 24.0332 100.882 24.0331 100.804V92.3226C24.0331 92.2609 24.019 92.2001 23.9918 92.1452C23.9647 92.0903 23.9254 92.0429 23.877 92.0067C23.8287 91.9705 23.7728 91.9467 23.7138 91.9372C23.6548 91.9277 23.5946 91.9328 23.5379 91.9521ZM12.7655 87.01L20.764 83.6887V92.9177L12.7655 96.2717V87.01ZM23.2789 100.54L15.9131 103.562L16.0347 95.7351C17.2925 95.2093 23.2827 92.8623 23.2827 92.8623L23.2789 100.54Z" fill="black"/>
<path d="M13.2607 89.4554C13.1717 89.4556 13.0854 89.4233 13.0172 89.3642C12.949 89.305 12.9032 89.2229 12.8879 89.1322C12.8726 89.0416 12.8889 88.9483 12.9338 88.8689C12.9786 88.7894 13.0492 88.7289 13.1331 88.698L18.4302 86.7316C18.4771 86.7133 18.527 86.7048 18.5771 86.7067C18.6271 86.7085 18.6764 86.7206 18.7218 86.7423C18.7673 86.764 18.8082 86.7948 18.842 86.833C18.8759 86.8711 18.902 86.9159 18.919 86.9646C18.9359 87.0133 18.9433 87.065 18.9407 87.1167C18.9381 87.1684 18.9255 87.219 18.9038 87.2656C18.8821 87.3123 18.8516 87.354 18.8141 87.3883C18.7766 87.4226 18.7328 87.4489 18.6854 87.4656C13.0342 89.57 13.3589 89.4554 13.2607 89.4554Z" fill="black"/>
<path d="M13.718 91.2042C13.6283 91.2039 13.5416 91.1707 13.4734 91.1105C13.4052 91.0503 13.3601 90.9669 13.346 90.8754C13.3319 90.7839 13.3498 90.6902 13.3965 90.611C13.4433 90.5319 13.5157 90.4726 13.6009 90.4437L18.8278 88.6941C18.9231 88.6622 19.0268 88.6706 19.1161 88.7176C19.2054 88.7647 19.2729 88.8464 19.3038 88.9449C19.3348 89.0434 19.3266 89.1505 19.2811 89.2427C19.2355 89.3349 19.1564 89.4047 19.0611 89.4367C13.4061 91.3274 13.8078 91.2042 13.718 91.2042Z" fill="black"/>
<path d="M16.7442 97.242C16.6538 97.2419 16.5665 97.2083 16.4981 97.1473C16.4296 97.0863 16.3847 97.0019 16.3713 96.9096C16.358 96.8172 16.3771 96.723 16.4253 96.644C16.4735 96.5651 16.5475 96.5065 16.6339 96.4792L22.045 94.7717C22.1408 94.7414 22.2444 94.7517 22.3329 94.8003C22.4214 94.8488 22.4876 94.9317 22.5169 95.0307C22.5462 95.1297 22.5363 95.2367 22.4893 95.3281C22.4423 95.4195 22.3621 95.4879 22.2662 95.5182C16.461 97.3496 16.828 97.242 16.7442 97.242Z" fill="black"/>
<path d="M16.7442 99.4713C16.6542 99.4713 16.5672 99.4381 16.4988 99.3777C16.4304 99.3172 16.3852 99.2336 16.3713 99.1417C16.3573 99.0499 16.3756 98.9559 16.4228 98.8768C16.47 98.7976 16.543 98.7385 16.6286 98.71L22.0397 96.916C22.135 96.8843 22.2387 96.893 22.3278 96.9401C22.4169 96.9873 22.4843 97.0691 22.515 97.1676C22.5457 97.2661 22.5374 97.3731 22.4917 97.4652C22.446 97.5573 22.3668 97.6268 22.2715 97.6586C16.4905 99.5751 16.8325 99.4713 16.7442 99.4713Z" fill="black"/>
<path fill-rule="evenodd" clip-rule="evenodd" d="M33.1927 107.798L69.4267 79.1406C69.4267 79.1406 71.6985 77.6422 72.0397 75.2406C72.381 72.839 72.5305 40.5306 72.5305 40.5306C72.5305 40.5306 72.7245 36.5939 69.4267 37.4886C66.1288 38.3833 33.1927 49.4195 33.1927 49.4195C33.1927 49.4195 29.882 50.4865 29.7416 52.6019C29.6012 54.7172 29.7416 107.798 29.7416 107.798C29.7582 109.589 31.1044 109.281 33.1927 107.798Z" fill="white"/>
<path d="M71.777 37.5026C71.4211 37.2355 71.0074 37.0624 70.572 36.9984C70.1365 36.9343 69.6925 36.9813 69.2787 37.1352C66.0073 38.0252 34.3682 48.6129 33.0266 49.0614C32.8816 49.1082 29.469 50.2361 29.312 52.5901C29.1716 54.6961 29.3052 105.646 29.312 107.814C29.3233 108.984 29.8775 109.433 30.5593 109.433C31.2184 109.433 32.1146 109.012 33.3528 108.132L45.438 98.5766C51.6638 99.4603 51.6668 99.4681 51.7423 99.4681C51.9137 99.4681 51.2893 99.8667 61.8283 92.6447C62.0344 92.5035 61.9975 92.3927 61.9975 91.541C61.9974 91.4477 61.965 91.3576 61.9061 91.2869C61.8473 91.2162 61.7658 91.1696 61.6766 91.1557L55.9605 90.2548L69.5777 79.4837C69.6758 79.419 71.9937 77.8606 72.3613 75.3162C72.7018 72.9185 72.8189 41.8729 72.8551 40.5711C72.8574 40.4892 72.9434 38.4838 71.777 37.5026ZM60.5811 91.775L51.5392 97.8278L47.0394 97.3114L55.1262 90.9154L60.5811 91.775ZM72.1009 40.5524C72.0933 40.8753 71.9499 72.8623 71.6131 75.2062C71.3013 77.3902 69.1919 78.8161 69.145 78.8488L32.9171 107.501C31.1051 108.784 30.5011 108.703 30.3245 108.609C30.1161 108.497 30.0693 108.114 30.0662 107.815C30.0662 107.284 29.9266 54.7242 30.0662 52.6471C30.187 50.8234 33.2221 49.8188 33.2569 49.8079C33.5853 49.6979 66.2209 38.7771 69.4712 37.8926C69.7711 37.778 70.0929 37.738 70.4105 37.7756C70.7282 37.8133 71.0328 37.9276 71.2998 38.1094C72.1696 38.8372 72.1016 40.5181 72.1009 40.5524Z" fill="black"/>
<path fill-rule="evenodd" clip-rule="evenodd" d="M47.8056 73.8608L46.3711 75.2648C46.3711 75.2648 51.1691 75.9965 54.393 74.3522C56.2186 73.4925 57.7406 72.0681 58.7486 70.2759L57.5579 69.9507L56.4307 70.2744L55.6757 69.3766L50.5674 67.8634L53.0204 72.534C51.3522 73.2309 49.5962 73.6777 47.8056 73.8608Z" fill="#FFD997"/>
<path fill-rule="evenodd" clip-rule="evenodd" d="M50.569 67.8627C50.1779 67.8182 47.9205 66.9672 47.956 64.9837C48.3123 62.9377 49.8722 64.7629 49.8722 64.7629C52.7533 61.852 54.2897 59.9207 55.6774 56.0355C55.6774 56.0355 58.1847 58.3365 58.0118 60.0915L57.8208 62.0236C58.2607 63.1573 58.3278 64.4089 58.0118 65.5858C57.4477 66.9758 56.6583 68.2563 55.6774 69.372C55.6774 69.372 52.0488 69.868 50.569 67.8627Z" fill="#FFD997"/>
<path fill-rule="evenodd" clip-rule="evenodd" d="M46.3729 75.2625C46.3729 75.2625 51.3106 75.775 54.2286 74.5176C56.1097 73.5787 57.7001 72.1166 58.8213 70.2955C58.8213 70.2955 62.5835 69.2456 63.6533 70.6145C64.7231 71.9834 64.1818 77.4894 64.1818 77.4894L43.2494 92.5832C43.2494 92.5832 41.3204 82.1226 43.2494 79.115C44.1693 77.7309 45.2152 76.4409 46.3729 75.2625Z" fill="#81F8F8"/>
<path d="M55.4915 64.7613C55.5385 64.6702 55.6185 64.602 55.7141 64.5718C55.8096 64.5415 55.9128 64.5516 56.0012 64.5998C56.1197 64.6435 56.1793 64.5405 56.2277 64.4025C56.3152 64.1685 55.8622 63.3791 55.2764 62.7403C55.2075 62.6652 55.1703 62.5649 55.173 62.4615C55.1757 62.3581 55.218 62.26 55.2907 62.1889C55.3634 62.1177 55.4605 62.0793 55.5606 62.0821C55.6607 62.0848 55.7556 62.1286 55.8245 62.2037C56.165 62.5742 57.2499 63.8471 56.9313 64.688C56.4949 65.8447 55.1767 65.3712 55.4915 64.7613Z" fill="black"/>
<path d="M52.5622 62.4627C52.4866 62.4627 52.4127 62.4393 52.3501 62.3954C52.2875 62.3515 52.2391 62.2892 52.2112 62.2166C52.1833 62.144 52.1772 62.0643 52.1936 61.9881C52.21 61.9118 52.2482 61.8423 52.3033 61.7888C52.5893 61.5278 52.9321 61.342 53.3024 61.2469C53.6728 61.1519 54.0599 61.1504 54.4309 61.2428C54.5276 61.2696 54.61 61.3349 54.6601 61.4245C54.7101 61.5141 54.7237 61.6206 54.6978 61.7205C54.6718 61.8204 54.6085 61.9056 54.5218 61.9573C54.4351 62.009 54.332 62.023 54.2353 61.9962C53.988 61.9375 53.7308 61.9398 53.4845 62.0028C53.2382 62.0658 53.0096 62.1878 52.8174 62.3589C52.748 62.4253 52.6569 62.4624 52.5622 62.4627Z" fill="black"/>
<path d="M56.2867 61.1366C56.2185 61.1366 56.1516 61.1175 56.093 61.0814C56.0344 61.0452 55.9865 60.9933 55.9542 60.9312C55.9219 60.8691 55.9065 60.7992 55.9096 60.7288C55.9127 60.6583 55.9342 60.5901 55.9719 60.5313C56.8855 59.1016 58.2422 59.6874 57.9281 60.2973C57.8814 60.3887 57.8015 60.4572 57.7059 60.4878C57.6104 60.5184 57.507 60.5085 57.4185 60.4604C57.0667 60.2708 56.6069 60.9502 56.6016 60.9572C56.5677 61.0118 56.5211 61.0568 56.4662 61.0881C56.4112 61.1195 56.3495 61.1361 56.2867 61.1366Z" fill="black"/>
<path d="M53.2669 66.9087C53.2041 66.855 53.1598 66.7819 53.1405 66.7C53.1213 66.6182 53.1282 66.5322 53.1603 66.4548C53.1923 66.3773 53.2477 66.3127 53.3182 66.2705C53.3888 66.2283 53.4706 66.2109 53.5516 66.2207C53.5712 66.2207 55.6021 66.4547 56.7807 65.571C56.8456 65.5226 56.9237 65.4968 57.0037 65.4973C57.0837 65.4978 57.1615 65.5245 57.2258 65.5736C57.2902 65.6228 57.3377 65.6917 57.3617 65.7706C57.3856 65.8495 57.3847 65.9342 57.359 66.0125C57.2015 66.4108 56.9373 66.7546 56.5973 67.0032C56.2574 67.2519 55.8558 67.3953 55.4398 67.4165C54.6799 67.5251 53.9076 67.3447 53.2669 66.9087Z" fill="black"/>
<path d="M53.5914 62.2638C53.2877 62.1524 52.9552 62.1581 52.6552 62.2798C52.3551 62.4014 52.1077 62.6309 51.9584 62.926C51.9124 63.0048 51.8955 63.0981 51.9108 63.1888C51.926 63.2795 51.9724 63.3614 52.0415 63.4195C52.1105 63.4777 52.1975 63.5081 52.2866 63.5053C52.3756 63.5025 52.4607 63.4666 52.5261 63.4042C52.8009 63.8675 53.3808 63.6296 53.3808 63.0204V63.0001C53.4688 63.0102 53.5575 62.988 53.6313 62.9373C53.7051 62.8866 53.7592 62.8108 53.7844 62.723C53.8095 62.6353 53.8039 62.5412 53.7686 62.4572C53.7334 62.3733 53.6706 62.3048 53.5914 62.2638Z" fill="black"/>
<path d="M57.3098 61.2241C56.7262 60.8653 56.098 61.2732 55.759 61.8808C55.711 61.9661 55.6965 62.0671 55.7185 62.163C55.7404 62.259 55.7971 62.3426 55.8769 62.3967C55.9568 62.4507 56.0536 62.4711 56.1475 62.4537C56.2414 62.4362 56.3253 62.3822 56.3819 62.3028C56.6552 62.7162 57.192 62.5111 57.2184 61.9323C57.2889 61.9113 57.352 61.8696 57.3999 61.8122C57.4478 61.7548 57.4785 61.6842 57.4882 61.609C57.4979 61.5339 57.4862 61.4575 57.4545 61.3891C57.4228 61.3207 57.3725 61.2634 57.3098 61.2241Z" fill="black"/>
<path d="M70.5156 39.5205C70.2838 39.3465 72.8704 38.5494 31.7841 52.6018C31.7088 52.6277 31.6434 52.6775 31.597 52.744C31.5507 52.8105 31.5258 52.8904 31.5259 52.9723V100.708C31.5259 100.812 31.5657 100.911 31.6364 100.984C31.7072 101.057 31.8033 101.098 31.9034 101.098C32.0868 101.098 29.3847 103.039 70.5111 73.5331C70.7617 73.3537 70.6734 75.5026 70.6734 39.8371C70.6733 39.7752 70.659 39.7142 70.6315 39.6591C70.6041 39.604 70.5643 39.5565 70.5156 39.5205ZM53.3514 72.3475L51.7244 69.2486C52.9292 69.7449 54.2331 69.9299 55.5228 69.7876L56.1562 70.534C56.2031 70.5892 56.2641 70.6297 56.3322 70.6506C56.4004 70.6716 56.4728 70.6723 56.5413 70.6526L57.5605 70.3585L58.1736 70.5239C57.1796 72.0245 55.8177 73.2256 54.2272 74.0043C51.9162 75.1828 48.7036 75.0892 47.2284 74.9668L47.9751 74.2367C49.7509 74.0111 51.4933 73.5619 53.1634 72.899C53.213 72.8783 53.2578 72.8468 53.2948 72.8069C53.3317 72.7669 53.36 72.7192 53.3778 72.6671C53.3956 72.6149 53.4024 72.5595 53.3979 72.5044C53.3933 72.4493 53.3775 72.3958 53.3514 72.3475ZM57.473 62.1834C57.8778 63.2286 57.9417 64.3818 57.6549 65.4679C57.1338 66.7643 56.4034 67.9599 55.4949 69.0037C54.8456 69.063 52.0468 69.2197 50.872 67.6262C50.8335 67.5766 50.7837 67.5378 50.727 67.5131C50.6515 67.4429 47.9335 66.2807 48.3684 64.8814C48.4628 64.5756 48.5851 64.3884 48.7044 64.3666C48.9369 64.3284 49.3567 64.7074 49.5749 65.0007C49.6067 65.0432 49.6466 65.0784 49.6921 65.1042C49.7377 65.13 49.7879 65.1458 49.8396 65.1507C49.8913 65.1555 49.9435 65.1492 49.9928 65.1323C50.0421 65.1154 50.0874 65.0881 50.1261 65.0522C52.6292 62.7762 54.5862 59.9306 55.8429 56.7397C56.6085 57.5486 57.7448 58.9939 57.6406 60.0563C57.436 62.0898 57.4178 62.05 57.4752 62.1834H57.473ZM58.203 61.9704C58.2506 61.4938 58.3842 60.0859 58.3858 60.0618C59.6126 64.1599 60.4092 67.5677 60.6508 68.6503L56.5677 69.8313L56.1796 69.375C57.1077 68.2918 57.8483 67.0517 58.3691 65.709C58.7095 64.4775 58.652 63.165 58.2053 61.9704H58.203ZM54.5594 74.7C56.3926 73.8199 57.9349 72.4024 58.9943 70.6237C60.3284 70.3687 62.4839 70.1518 63.1038 70.5941C64.1162 71.3179 64.0316 75.1017 63.7342 77.4363L43.5191 91.9154C43.1529 89.6854 41.9962 81.7754 43.5644 79.3301C44.4345 78.0202 45.4203 76.7964 46.5089 75.6742C48.9505 75.9878 52.2695 75.8685 54.5594 74.7ZM69.9146 73.0105L64.5602 76.845C64.7406 75.0019 64.9565 70.9701 63.5326 69.9529C62.0943 68.9241 57.5636 70.3507 61.2034 69.3016C61.2965 69.2749 61.3761 69.2122 61.4259 69.1266C61.4756 69.041 61.4916 68.9389 61.4707 68.8414C61.4601 68.7923 60.3971 63.8752 58.5775 58.1047C56.9377 52.906 52.6176 52.1557 47.8482 54.3935C47.0985 54.7453 46.4137 55.7086 45.8097 57.2569C45.7912 57.3044 45.782 57.3552 45.7825 57.4065C45.783 57.4577 45.7933 57.5083 45.8128 57.5554C45.8322 57.6025 45.8605 57.6452 45.8959 57.6811C45.9313 57.7169 45.9732 57.7452 46.0192 57.7643C46.0652 57.7834 46.1144 57.7929 46.164 57.7924C46.2136 57.7918 46.2626 57.7812 46.3082 57.7611C46.3538 57.741 46.3951 57.7118 46.4298 57.6752C46.4645 57.6387 46.4919 57.5954 46.5104 57.5478C47.1672 55.8591 47.7697 55.2858 48.16 55.1041C52.2302 53.1946 56.0581 53.4661 57.6927 57.8809C57.1913 57.0951 56.597 56.3769 55.9237 55.7429C55.8761 55.6998 55.8188 55.6697 55.7571 55.6554C55.6953 55.6411 55.631 55.6432 55.5702 55.6612C55.5094 55.6793 55.4539 55.713 55.409 55.759C55.364 55.805 55.331 55.862 55.3129 55.9246C54.1843 59.0983 52.3258 61.9409 49.8973 64.2075C48.9913 63.2715 48.04 63.3658 47.6436 64.6435C47.0593 66.5311 49.6738 67.8766 50.2967 68.1667L52.4794 72.3249C50.4543 73.097 48.3169 73.5074 46.1585 73.5386C46.0534 73.5282 45.9519 73.4932 45.8619 73.4362C45.7719 73.3791 45.6957 73.3016 45.6391 73.2094C44.5066 71.7001 44.4787 65.8993 45.5787 60.7965C45.6005 60.6955 45.5826 60.5896 45.5289 60.5022C45.4751 60.4148 45.39 60.353 45.2922 60.3305C45.1944 60.3079 45.0919 60.3264 45.0073 60.382C44.9227 60.4375 44.8629 60.5254 44.8411 60.6265C43.8112 65.4063 43.5953 71.7586 45.0426 73.6868C45.5485 74.3623 46.0317 74.3365 46.7935 74.317C45.3407 75.6865 44.0458 77.2247 42.9347 78.9011C41.0895 81.7793 42.5474 90.7657 42.8343 92.4084L32.2794 99.965V53.2539L69.9169 40.3769L69.9146 73.0105Z" fill="black"/>
<path d="M40.2231 86.046C40.2231 86.798 40.4721 87.5191 40.9153 88.0509C41.3585 88.5826 41.9595 88.8813 42.5863 88.8813C43.213 88.8813 43.8141 88.5826 44.2573 88.0509C44.7005 87.5191 44.9494 86.798 44.9494 86.046C44.9494 85.294 44.7005 84.5729 44.2573 84.0411C43.8141 83.5094 43.213 83.2107 42.5863 83.2107C41.9595 83.2107 41.3585 83.5094 40.9153 84.0411C40.4721 84.5729 40.2231 85.294 40.2231 86.046Z" fill="#FFD997"/>
<path d="M47.9795 81.8644C47.9795 82.6163 48.2285 83.3375 48.6716 83.8692C49.1148 84.4009 49.7159 84.6997 50.3426 84.6997C50.9694 84.6997 51.5705 84.4009 52.0136 83.8692C52.4568 83.3375 52.7058 82.6163 52.7058 81.8644C52.7058 81.1124 52.4568 80.3912 52.0136 79.8595C51.5705 79.3278 50.9694 79.0291 50.3426 79.0291C49.7159 79.0291 49.1148 79.3278 48.6716 79.8595C48.2285 80.3912 47.9795 81.1124 47.9795 81.8644Z" fill="#FFD997"/>
<path d="M55.1963 77.7319C55.1963 78.0562 55.2495 78.3773 55.353 78.677C55.4564 78.9766 55.608 79.2488 55.7991 79.4781C55.9902 79.7074 56.2171 79.8893 56.4668 80.0134C56.7165 80.1375 56.9841 80.2014 57.2544 80.2014C57.5247 80.2014 57.7923 80.1375 58.042 80.0134C58.2917 79.8893 58.5186 79.7074 58.7097 79.4781C58.9009 79.2488 59.0524 78.9766 59.1559 78.677C59.2593 78.3773 59.3125 78.0562 59.3125 77.7319C59.3125 77.4076 59.2593 77.0865 59.1559 76.7869C59.0524 76.4873 58.9009 76.2151 58.7097 75.9857C58.5186 75.7564 58.2917 75.5745 58.042 75.4504C57.7923 75.3263 57.5247 75.2625 57.2544 75.2625C56.9841 75.2625 56.7165 75.3263 56.4668 75.4504C56.2171 75.5745 55.9902 75.7564 55.7991 75.9857C55.608 76.2151 55.4564 76.4873 55.353 76.7869C55.2495 77.0865 55.1963 77.4076 55.1963 77.7319Z" fill="#FFD997"/>
<path d="M62.0576 73.5114C62.0576 74.1463 62.2679 74.7551 62.6421 75.2041C63.0163 75.653 63.5239 75.9052 64.0531 75.9052C64.5823 75.9052 65.0899 75.653 65.4641 75.2041C65.8383 74.7551 66.0485 74.1463 66.0485 73.5114C66.0485 72.8765 65.8383 72.2676 65.4641 71.8187C65.0899 71.3698 64.5823 71.1176 64.0531 71.1176C63.5239 71.1176 63.0163 71.3698 62.6421 71.8187C62.2679 72.2676 62.0576 72.8765 62.0576 73.5114Z" fill="#FFD997"/>
<path d="M42.5864 89.2713C41.9515 89.3571 41.3064 89.2409 40.7371 88.9382C40.1677 88.6356 39.7012 88.1608 39.3998 87.5773C39.0983 86.9937 38.9761 86.3291 39.0496 85.6719C39.1231 85.0148 39.3887 84.3965 39.8111 83.8993C40.2334 83.4022 40.7925 83.0498 41.4136 82.8893C42.0347 82.7287 42.6885 82.7676 43.2877 83.0007C43.8869 83.2338 44.4031 83.6501 44.7674 84.194C45.1318 84.738 45.327 85.3837 45.327 86.0452C45.3733 86.8474 45.1115 87.6361 44.5984 88.24C44.0853 88.844 43.3623 89.2146 42.5864 89.2713ZM42.5864 83.5999C42.0299 83.7014 41.5258 84.0022 41.1627 84.4494C40.7995 84.8967 40.6004 85.4618 40.6004 86.0456C40.6004 86.6294 40.7995 87.1945 41.1627 87.6417C41.5258 88.089 42.0299 88.3898 42.5864 88.4913C43.1428 88.3898 43.6469 88.089 44.0101 87.6417C44.3732 87.1945 44.5723 86.6294 44.5723 86.0456C44.5723 85.4618 44.3732 84.8967 44.0101 84.4494C43.6469 84.0022 43.1428 83.7014 42.5864 83.5999Z" fill="black"/>
<path d="M50.3427 85.0905C49.7078 85.1763 49.0627 85.0601 48.4933 84.7574C47.924 84.4547 47.4575 83.9799 47.156 83.3963C46.8545 82.8127 46.7325 82.148 46.806 81.4909C46.8796 80.8337 47.1453 80.2154 47.5677 79.7182C47.9901 79.2211 48.5492 78.8688 49.1704 78.7084C49.7916 78.5479 50.4454 78.5869 51.0446 78.8201C51.6437 79.0534 52.1599 79.4698 52.5241 80.0138C52.8884 80.5578 53.0835 81.2037 53.0834 81.8652C53.1298 82.6673 52.868 83.456 52.3549 84.06C51.8417 84.6639 51.1186 85.0342 50.3427 85.0905ZM50.3427 79.4191C49.8569 79.3304 49.3564 79.3983 48.9092 79.6136C48.462 79.8288 48.0898 80.181 47.843 80.6223C47.5962 81.0636 47.4868 81.5727 47.5296 82.0805C47.5725 82.5882 47.7655 83.0701 48.0825 83.4606C48.3995 83.8511 48.8252 84.1314 49.3017 84.2635C49.7782 84.3955 50.2825 84.3729 50.7461 84.1987C51.2098 84.0245 51.6103 83.7071 51.8933 83.2896C52.1764 82.8722 52.3283 82.3749 52.3284 81.8652C52.374 81.2699 52.1914 80.6799 51.82 80.2224C51.4486 79.7648 50.9181 79.4764 50.3427 79.4191Z" fill="black"/>
<path fill-rule="evenodd" clip-rule="evenodd" d="M62.9569 74.3624C62.9592 74.3939 62.9688 74.4244 62.9849 74.4513C63.001 74.4781 63.0232 74.5006 63.0494 74.5168C63.0757 74.533 63.1053 74.5425 63.1359 74.5444C63.1664 74.5463 63.197 74.5406 63.2249 74.5277L63.6447 74.3351C63.6856 74.3165 63.7186 74.2833 63.7378 74.2417C63.7569 74.2 63.7608 74.1526 63.7489 74.1081C63.7021 73.9642 63.704 73.8082 63.7543 73.6656C63.8046 73.523 63.9003 73.4023 64.0257 73.3233C64.1512 73.2443 64.2989 73.2117 64.4446 73.2309C64.5904 73.25 64.7255 73.3198 64.8278 73.4287C64.8587 73.456 64.8967 73.4731 64.937 73.478C64.9774 73.4829 65.0182 73.4752 65.0543 73.456L65.314 73.3172C65.3446 73.3009 65.3708 73.2769 65.3901 73.2474C65.4093 73.2179 65.4211 73.1839 65.4244 73.1485C65.4276 73.1131 65.4222 73.0774 65.4086 73.0447C65.3949 73.012 65.3736 72.9834 65.3465 72.9615C64.1513 71.9896 62.8285 72.5793 62.9569 74.3624Z" fill="black"/>
<path d="M57.2555 80.5914C56.6923 80.6661 56.1205 80.5617 55.6162 80.2921C55.1119 80.0225 54.6991 79.6006 54.4327 79.0825C54.1664 78.5644 54.0593 77.9747 54.1255 77.3921C54.1918 76.8095 54.4283 76.2616 54.8037 75.8214C55.179 75.3811 55.6752 75.0695 56.2263 74.9281C56.7773 74.7866 57.357 74.822 57.8882 75.0295C58.4193 75.237 58.8765 75.6068 59.1991 76.0896C59.5216 76.5724 59.694 77.1453 59.6934 77.7319C59.7338 78.4443 59.5004 79.1443 59.0439 79.6798C58.5873 80.2153 57.9447 80.5429 57.2555 80.5914ZM57.2555 75.6525C56.842 75.5754 56.4154 75.6318 56.034 75.8139C55.6525 75.9961 55.3345 76.2952 55.1234 76.6706C54.9122 77.046 54.8181 77.4795 54.8537 77.9121C54.8894 78.3447 55.0531 78.7555 55.3227 79.0886C55.5923 79.4216 55.9546 79.6609 56.3604 79.7738C56.7662 79.8867 57.1958 79.8677 57.5908 79.7195C57.9858 79.5713 58.3271 79.301 58.5682 78.9454C58.8093 78.5898 58.9386 78.1661 58.9384 77.7319C58.9778 77.2266 58.8235 76.7255 58.5087 76.3366C58.194 75.9476 57.7439 75.702 57.2555 75.6525Z" fill="black"/>
<path d="M64.054 76.2951C63.5061 76.3677 62.9498 76.2661 62.4592 76.0038C61.9686 75.7416 61.5669 75.3311 61.3078 74.8271C61.0487 74.3231 60.9444 73.7495 61.0088 73.1827C61.0731 72.6159 61.3031 72.0828 61.6682 71.6544C62.0332 71.2261 62.5159 70.9228 63.0519 70.785C63.588 70.6472 64.1519 70.6814 64.6687 70.8831C65.1855 71.0847 65.6305 71.4443 65.9445 71.9138C66.2585 72.3833 66.4265 72.9406 66.4262 73.5113C66.4654 74.2045 66.2382 74.8858 65.7941 75.407C65.3499 75.9282 64.7246 76.2474 64.054 76.2951ZM64.054 71.5074C63.6554 71.4321 63.244 71.4855 62.8757 71.6603C62.5075 71.8351 62.2003 72.1229 61.996 72.4845C61.7917 72.8461 61.7002 73.2639 61.734 73.6811C61.7677 74.0983 61.925 74.4947 62.1845 74.8163C62.4441 75.1378 62.7932 75.369 63.1844 75.4783C63.5756 75.5876 63.9899 75.5697 64.3709 75.4271C64.7519 75.2845 65.0812 75.0241 65.3138 74.6813C65.5465 74.3385 65.6713 73.9299 65.6712 73.5113C65.7086 73.0255 65.5601 72.544 65.2578 72.17C64.9555 71.796 64.5233 71.5592 64.054 71.5106V71.5074Z" fill="black"/>
<path d="M51.9871 81.6725C51.9812 81.569 51.9358 81.4723 51.8608 81.4034C51.7858 81.3346 51.6875 81.2994 51.5874 81.3055C51.4872 81.3116 51.3936 81.3585 51.327 81.436C51.2603 81.5134 51.2262 81.6151 51.2321 81.7185C51.2411 81.9121 51.1874 82.1033 51.0795 82.2619C50.9717 82.4205 50.8158 82.5375 50.6364 82.5944C50.4297 82.663 50.2104 82.6804 49.9959 82.6453C49.7815 82.6102 49.5781 82.5236 49.402 82.3924C49.3243 82.3288 49.2256 82.2993 49.127 82.3103C49.0285 82.3213 48.9381 82.3719 48.8753 82.4512C48.8126 82.5304 48.7825 82.632 48.7916 82.734C48.8008 82.8359 48.8483 82.9301 48.9241 82.9961C49.1533 83.1743 49.4149 83.3032 49.6931 83.3751C49.9714 83.4471 50.2609 83.4606 50.5443 83.415L50.6364 83.727C50.6656 83.826 50.7316 83.909 50.8199 83.9577C50.9083 84.0064 51.0117 84.0168 51.1076 83.9867C51.2034 83.9566 51.2837 83.8884 51.3308 83.7972C51.378 83.7059 51.3881 83.599 51.359 83.5L51.2548 83.1443C51.4887 82.9843 51.6788 82.765 51.8071 82.5072C51.9353 82.2495 51.9973 81.9621 51.9871 81.6725Z" fill="black"/>
<path d="M46.2035 50.3251C46.2007 50.2647 46.1843 50.2057 46.1556 50.1529C46.1269 50.1001 46.0868 50.0549 46.0383 50.021C45.9898 49.987 45.9343 49.9651 45.8762 49.9571C45.8181 49.9492 45.7591 49.9552 45.7036 49.9749L33.7965 54.2275C33.7207 54.2545 33.6552 54.3057 33.6095 54.3737C33.5637 54.4417 33.5401 54.523 33.5421 54.6058L33.7852 64.8425C33.7867 64.9043 33.8023 64.9649 33.8309 65.0192C33.8595 65.0736 33.9002 65.1201 33.9496 65.155C33.999 65.1899 34.0557 65.2121 34.1151 65.2199C34.1745 65.2277 34.2348 65.2208 34.2911 65.1997L46.43 60.6687C46.5059 60.6403 46.571 60.5874 46.6157 60.5179C46.6604 60.4484 46.6824 60.366 46.6784 60.2826L46.2035 50.3251ZM37.3835 61.1032C37.8032 60.6574 38.2578 60.248 38.7425 59.8794C38.7406 59.9017 38.7406 59.9241 38.7425 59.9464C38.9479 61.3762 39.533 61.6047 40.6074 60.9838C41 61.0618 41.6735 61.1258 41.9823 60.7842C42.0993 60.6547 42.3507 60.3669 41.6131 58.9808C42.6127 58.9956 43.8584 59.1368 44.251 59.5354C44.5154 59.7792 44.709 60.0941 44.8105 60.4449L37.0574 63.3371C36.963 62.9613 36.9433 62.5696 36.9993 62.1857C37.0554 61.8018 37.1861 61.4335 37.3835 61.1032ZM37.5345 55.8078C37.4764 55.7473 37.4431 55.666 37.4417 55.5808C37.4403 55.4956 37.4709 55.4131 37.527 55.3507C37.5789 55.3833 37.6377 55.4024 37.6984 55.4065C37.759 55.4105 37.8197 55.3994 37.8753 55.3741C37.9308 55.3487 37.9797 55.3099 38.0176 55.2609C38.0556 55.2119 38.0815 55.1541 38.0932 55.0925C38.1687 54.6705 38.2963 54.4225 38.4775 54.3328C38.6362 54.2111 38.8173 54.1244 39.0097 54.078C39.2021 54.0316 39.4017 54.0266 39.5961 54.0631C39.7904 54.0997 39.9755 54.1771 40.1397 54.2906C40.3039 54.404 40.4438 54.5512 40.5508 54.7228C40.5906 54.7666 40.64 54.8001 40.6948 54.8205C40.7496 54.8408 40.8082 54.8474 40.866 54.8398C40.9238 54.8322 40.9789 54.8106 41.027 54.7767C41.0751 54.7428 41.1148 54.6976 41.1427 54.6448C41.7829 55.0839 41.7641 56.1127 41.0989 55.7742C40.5938 55.5526 40.1305 55.2408 39.7301 54.853C39.6663 54.7954 39.5856 54.7616 39.501 54.757C39.4163 54.7525 39.3327 54.7775 39.2635 54.8281C39.0364 55.008 38.8504 55.2373 38.7187 55.4998C38.5869 55.7622 38.5126 56.0513 38.5009 56.3467C38.5006 56.4085 38.4922 56.4699 38.476 56.5293C38.3792 56.346 38.2451 56.1867 38.083 56.0621C37.9209 55.9376 37.7345 55.8508 37.5368 55.8078H37.5345ZM38.2435 57.8732C38.2261 58.0503 38.0313 58.2733 37.866 58.2078C37.379 58.0198 37.0657 56.8194 37.3103 56.5909C37.5549 56.3623 38.2775 57.5425 38.2458 57.8732H38.2435ZM39.2559 56.3678C39.264 56.1148 39.35 55.8711 39.5013 55.672C39.9425 56.0727 40.4622 56.3702 41.0249 56.5441C41.1059 57.1038 41.0106 57.6756 40.7531 58.1751C40.325 58.7452 39.7716 58.7211 38.9645 58.1064C39.0306 57.8228 39.0013 57.5243 38.8815 57.2601C39.0052 57.1503 39.1033 57.013 39.1686 56.8585C39.2338 56.704 39.2644 56.5362 39.2582 56.3678H39.2559ZM40.9283 59.8723C40.8102 60.0399 40.6374 60.1576 40.4419 60.2038C40.2464 60.2499 40.0413 60.2214 39.8645 60.1235C39.6328 59.9435 39.4636 59.691 39.382 59.4036C39.4017 59.3895 39.533 59.2983 39.5527 59.2811C39.7585 59.3549 39.9775 59.3812 40.1943 59.3583C40.411 59.3354 40.6203 59.2638 40.8075 59.1485C40.9303 59.3671 40.9739 59.6236 40.9305 59.8723H40.9283ZM45.5172 60.1789C45.3742 59.7187 45.1179 59.3048 44.7735 58.9777C44.1272 58.3233 42.5009 58.2086 41.5746 58.1977C41.6954 57.8584 41.65 57.934 41.7014 57.9169C41.8765 57.8422 42.0336 57.7287 42.1617 57.5845C42.2897 57.4402 42.3856 57.2687 42.4425 57.0821C42.4995 56.8954 42.5161 56.6981 42.4912 56.5041C42.4663 56.31 42.4006 56.124 42.2986 55.9591C42.6557 54.8406 41.5632 53.5333 40.6844 53.7915C40.338 53.4816 39.9028 53.2977 39.4455 53.268C38.9882 53.2383 38.5341 53.3644 38.1529 53.6269C37.8288 53.8021 37.5846 54.1022 37.4734 54.4623C37.3239 54.5132 37.1862 54.5955 37.069 54.7041C36.9518 54.8126 36.8576 54.945 36.7923 55.093C36.727 55.241 36.692 55.4013 36.6896 55.5639C36.6871 55.7265 36.7172 55.8879 36.778 56.0379C35.8064 57.0129 37.2499 59.8544 38.5508 58.7601C38.6263 58.8139 38.6904 58.8498 38.7599 58.895C38.0644 59.3881 37.4163 59.9491 36.8248 60.5704C36.0381 61.4425 36.2133 62.9658 36.3303 63.6046L34.5183 64.2809L34.2918 54.8702L45.4658 50.8805L45.9022 60.0315L45.5172 60.1789Z" fill="black"/>
<path fill-rule="evenodd" clip-rule="evenodd" d="M55.1049 38.4933C55.2665 36.282 50.9969 36.8382 50.9969 36.8382C50.9969 36.8382 48.5651 37.1377 47.3571 38.3865C46.1491 39.6352 46.658 41.3505 48.6798 41.2771C48.889 41.2693 49.1268 41.2483 49.3775 41.2194L48.8875 44.2466L52.4692 43.0337C52.4692 43.0337 51.8063 41.6664 51.3948 40.8419C53.2144 40.3755 55.0271 39.5588 55.1049 38.4933Z" fill="#81F8F8"/>
<path d="M55.4815 38.5228C55.702 35.5011 49.1939 35.9355 47.0897 38.1109C45.6461 39.6031 46.2592 41.83 48.9251 41.6521L48.5295 44.0935C48.5205 44.1494 48.5234 44.2066 48.5379 44.2612C48.5525 44.3157 48.5784 44.3664 48.6138 44.4096C48.6492 44.4528 48.6933 44.4875 48.743 44.5113C48.7928 44.5351 48.8469 44.5475 48.9017 44.5475C48.9825 44.5475 48.7197 44.6193 52.5785 43.4064C52.6308 43.3897 52.6789 43.3614 52.7195 43.3236C52.7602 43.2858 52.7924 43.2393 52.8139 43.1874C52.8354 43.1355 52.8458 43.0794 52.8443 43.0229C52.8427 42.9664 52.8294 42.911 52.805 42.8604C52.4351 42.0975 52.1595 41.5289 51.9466 41.1007C53.7088 40.5929 55.3894 39.7443 55.4815 38.5228ZM51.933 42.7956L49.3766 43.6006L49.7058 41.5726C50.1648 41.511 50.6737 41.4166 51.1984 41.298C51.4189 41.7465 51.6899 42.3034 51.9307 42.7956H51.933ZM48.6699 40.887C47.0089 40.9384 46.6435 39.6795 47.6265 38.6624C49.3381 36.8926 54.8745 36.5088 54.731 38.4643C54.6412 39.6585 50.9425 40.8019 48.6699 40.887Z" fill="black"/>
<path d="M48.9956 38.37C48.597 38.37 48.2852 38.8084 48.2852 39.3692C48.2852 39.93 48.597 40.3676 48.9956 40.3676C49.3942 40.3676 49.7068 39.9284 49.7068 39.3692C49.7068 38.8099 49.395 38.37 48.9956 38.37Z" fill="black"/>
<path fill-rule="evenodd" clip-rule="evenodd" d="M78.0393 138.963C77.6053 136.5 77.6939 133.969 78.299 131.545C79.1718 128.221 85.082 128.475 85.082 128.475C85.082 128.475 82.8487 118.627 89.612 117.53C95.2745 116.611 127.748 119.09 127.748 119.09L134.183 72.2805C134.183 72.2805 139.359 71.4436 142.229 72.7485C145.1 74.0535 147.191 76.3178 147.478 79.8543C147.766 83.3908 143.762 111.802 142.229 119.088C141.211 124.408 140.534 129.791 140.204 135.202L78.0393 138.963Z" fill="white"/>
<path d="M98.1548 89.5178C93.8686 88.9882 95.7727 86.8837 89.4164 86.7176C84.7603 86.5959 81.4406 85.4992 80.7535 83.855C80.6334 83.5597 80.602 83.2338 80.6635 82.9198C80.7251 82.6059 80.8767 82.3183 81.0986 82.0945C82.9928 79.9058 85.6421 78.9574 89.4421 79.1235C93.6104 79.2998 101.149 80.4448 102.957 83.6202C104.917 87.0577 103.332 90.1527 98.1548 89.5178ZM81.6618 82.6148C81.537 82.7277 81.4492 82.8779 81.4107 83.0446C81.3721 83.2113 81.3847 83.3863 81.4466 83.5453C81.8913 84.6085 84.5806 85.8073 89.436 85.9376C96.04 86.11 94.2514 88.2495 98.2446 88.7456C102.782 89.308 103.952 86.9056 102.308 84.0188C100.874 81.5072 94.6191 80.1266 89.4111 79.9058C84.7437 79.7007 82.752 81.3566 81.6633 82.6148H81.6618Z" fill="black"/>
<path d="M92.3984 85.7847C90.424 85.7847 88.3735 85.4243 87.8684 84.5609C87.2938 83.5812 87.5173 82.5882 88.4973 81.7661C89.3655 81.0384 91.4153 80.6523 93.6569 81.327C96.4504 82.1678 97.3806 85.1568 94.6996 85.6092C93.9382 85.7298 93.1687 85.7885 92.3984 85.7847ZM91.3414 81.7529C90.5088 81.7024 89.6814 81.9187 88.9722 82.3722C88.0775 83.1225 88.2572 83.72 88.5131 84.1568C88.9374 84.8814 92.1666 85.2441 94.578 84.8385C96.541 84.5086 95.1722 82.596 93.4455 82.0758C92.7626 81.8647 92.0542 81.7549 91.3414 81.7497V81.7529Z" fill="black"/>
<path d="M85.4632 90.4037C85.4596 90.3107 85.4241 90.2222 85.3629 90.154C85.3017 90.0857 85.2189 90.0423 85.1295 90.0316L75.0404 88.8265C74.8063 88.7969 76.5504 87.4787 49.3795 108.941C49.1764 109.102 49.2285 109.114 49.2715 111.125C49.2734 111.214 49.3043 111.299 49.3591 111.367C49.414 111.435 49.4896 111.481 49.5735 111.499L64.1941 114.454C64.2547 114.467 64.3173 114.463 64.3764 114.445C64.4355 114.426 64.4893 114.393 64.5331 114.348C86.9045 91.3155 85.5477 92.7741 85.5394 92.5081L85.4632 90.4037ZM75.1053 89.6237L84.262 90.7157L63.7448 111.723L50.5044 109.036L75.1053 89.6237ZM49.997 109.731L63.544 112.477L63.7373 113.569L50.0197 110.796L49.997 109.731ZM64.4621 113.319L64.2764 112.276L84.7414 91.3225L84.7814 92.3685L64.4621 113.319Z" fill="black"/>
<path d="M55.3139 108.285C55.2359 108.285 55.1597 108.26 55.096 108.214C55.0323 108.167 54.9841 108.101 54.9581 108.025C54.9321 107.949 54.9295 107.867 54.9508 107.789C54.9721 107.711 55.0161 107.643 55.0769 107.592L73.7488 92.0246C73.7873 91.9924 73.8317 91.9684 73.8792 91.9538C73.9268 91.9393 73.9767 91.9346 74.026 91.94C74.0753 91.9454 74.1231 91.9608 74.1667 91.9853C74.2102 92.0098 74.2487 92.0429 74.2799 92.0827C74.3111 92.1226 74.3344 92.1684 74.3484 92.2175C74.3625 92.2667 74.367 92.3182 74.3618 92.3691C74.3566 92.4201 74.3417 92.4695 74.318 92.5145C74.2943 92.5595 74.2622 92.5993 74.2237 92.6315C54.2403 109.292 55.5246 108.285 55.3139 108.285Z" fill="black"/>
<path d="M58.0274 108.762C57.9497 108.762 57.8739 108.737 57.8104 108.691C57.7468 108.645 57.6986 108.58 57.6723 108.504C57.6459 108.429 57.6428 108.347 57.6632 108.269C57.6837 108.192 57.7267 108.123 57.7865 108.072L75.378 93.0175C75.4552 92.9525 75.5542 92.9215 75.6534 92.9315C75.7525 92.9415 75.8438 92.9916 75.9074 93.0709C75.971 93.1501 76.0016 93.2521 75.9927 93.3546C75.9838 93.4571 75.936 93.5519 75.8597 93.6181C57.0572 109.743 58.2403 108.762 58.0274 108.762Z" fill="black"/>
<path d="M64.3435 105.93C64.266 105.93 64.1905 105.905 64.1271 105.859C64.0637 105.813 64.0155 105.748 63.989 105.673C63.9626 105.598 63.9591 105.516 63.9792 105.439C63.9992 105.361 64.0418 105.292 64.1011 105.241L76.616 94.3717C76.6931 94.3096 76.7904 94.2808 76.8877 94.2913C76.9849 94.3019 77.0743 94.351 77.1372 94.4282C77.2001 94.5055 77.2315 94.605 77.2248 94.7058C77.2182 94.8065 77.174 94.9007 77.1015 94.9684C63.6814 106.611 64.5504 105.93 64.3435 105.93Z" fill="black"/>
<path fill-rule="evenodd" clip-rule="evenodd" d="M117.299 47.6606C120.563 45.5374 130.597 68.531 130.597 68.531L131.239 70.7548L121.641 76.1126C120.646 74.5219 119.802 72.8358 119.12 71.0777C119.12 71.0777 116.185 72.5683 115.219 71.6097C114.252 70.6511 115.251 69.9865 114.392 68.9951C113.576 68.0545 112.934 67.0787 115.61 66.3041C115.753 66.262 116.377 65.6731 116.058 65.6731C115.668 65.6731 113.045 65.8798 112.76 65.4313C112.454 64.9469 113.565 63.9111 113.565 63.9111C113.565 63.9111 110.761 63.3862 110.923 62.1031C111.084 60.82 113.919 58.9753 113.565 58.2233C113.211 57.4714 111.774 55.9013 113.912 54.0659C113.912 54.0675 114.034 49.7837 117.299 47.6606Z" fill="#FFD997"/>
<path d="M116.48 57.4776C115.144 55.9176 113.795 56.6016 113.739 56.6321C113.694 56.6562 113.645 56.6707 113.594 56.6747C113.544 56.6787 113.493 56.6721 113.445 56.6554C113.397 56.6386 113.352 56.612 113.314 56.5772C113.277 56.5424 113.246 56.5 113.224 56.4527C113.168 56.3196 113.141 56.1753 113.144 56.0301C113.148 55.8849 113.183 55.7424 113.246 55.6126C113.382 55.3956 113.565 55.2139 113.781 55.0818C113.996 54.9496 114.238 54.8705 114.487 54.8505C116.126 54.5253 117.075 56.9729 117.115 57.0774C117.147 57.1629 117.15 57.2574 117.121 57.3445C117.093 57.4315 117.036 57.5054 116.96 57.5532C116.884 57.601 116.794 57.6197 116.707 57.6058C116.619 57.592 116.538 57.5466 116.48 57.4776Z" fill="black"/>
<path d="M115.968 59.0307C115.534 58.3282 114.92 57.7643 114.194 57.402C114.101 57.3688 113.999 57.3742 113.91 57.417C113.821 57.4599 113.752 57.5368 113.717 57.6316C113.682 57.7263 113.684 57.8314 113.723 57.9246C113.762 58.0177 113.834 58.0916 113.925 58.1306C113.846 58.3176 113.806 58.5195 113.807 58.7234C113.807 59.9643 114.847 60.1032 115.068 59.1063C115.364 59.4667 115.402 59.6477 115.661 59.6477C115.731 59.6476 115.799 59.6278 115.858 59.5904C115.917 59.553 115.965 59.4995 115.997 59.4358C116.028 59.372 116.042 59.3005 116.037 59.229C116.032 59.1576 116.008 59.0889 115.968 59.0307Z" fill="black"/>
<path fill-rule="evenodd" clip-rule="evenodd" d="M117.485 47.4866C115.851 48.6055 114.676 50.3091 114.186 52.2696L113.566 52.0356C113.566 52.0356 112.823 53.9403 112.07 53.4669C111.317 52.9934 112.07 52.0356 112.07 52.0356C112.07 52.0356 109.585 51.2876 110.434 50.3835C111.283 49.4795 112.357 50.3835 112.357 50.3835C112.357 50.3835 112.153 48.8945 113.565 49.7517C113.565 49.7517 112.525 48.4016 113.179 47.8649C113.414 47.7193 113.683 47.6424 113.956 47.6424C114.23 47.6424 114.499 47.7193 114.734 47.8649C114.735 47.5683 114.825 47.2793 114.991 47.0372C115.156 46.7951 115.39 46.6116 115.661 46.5116C116.379 46.2956 117.141 46.2956 117.859 46.5116C118.19 46.0497 118.671 45.7261 119.213 45.5998C120.081 45.4266 120.157 46.1676 120.157 46.1676C120.157 46.1676 120.592 44.4399 121.482 44.422C122.371 44.4041 122.383 45.5998 122.383 45.5998C122.383 45.5998 123.298 43.2731 124.605 43.3635C124.975 43.3879 125.328 43.5307 125.615 43.772C125.903 44.0133 126.11 44.3411 126.209 44.7098C126.209 44.7098 127.523 42.8464 128.492 44.7098C128.492 44.7098 131.223 43.6654 132.238 44.422C133.254 45.1786 132.238 46.1676 132.238 46.1676C132.238 46.1676 134.126 44.5991 133.782 46.5116C133.782 46.5116 135.569 45.383 135.098 47.8649C135.098 47.8649 136.218 46.0896 137.085 46.5116C137.953 46.9336 137.085 49.3578 137.085 49.3578C137.085 49.3578 138.774 48.2112 138.05 51.0692C138.05 51.0692 139.372 50.1277 138.709 52.268C138.709 52.268 140.325 52.5309 138.709 54.0706C138.709 54.0706 141.165 53.7804 139.766 55.2125C139.766 55.2125 140.723 55.4613 140.719 56.2156C140.714 56.9699 139.766 57.3801 139.766 57.3801C139.766 57.3801 142.001 57.8481 141.971 58.7256C141.942 59.6031 141.065 59.3762 141.065 59.3762C141.065 59.3762 143.083 60.5001 142.198 61.3129C141.98 61.544 141.711 61.7151 141.413 61.8105C141.115 61.9059 140.799 61.9225 140.494 61.8589C140.494 61.8589 141.664 64.1162 139.953 63.9797C139.953 63.9797 140.805 66.2823 138.703 65.7371C138.703 65.7371 138.672 67.5872 137.637 66.8915C137.637 66.8915 136.59 67.8563 136.001 66.8915C136.001 66.8915 135.501 67.5623 135.092 67.1769C135.092 67.1769 135.847 69.1847 134.694 69.0591C134.396 69.0573 134.108 68.9535 133.874 68.7641C133.64 68.5746 133.474 68.3101 133.401 68.0123C133.401 68.0123 132.549 69.0326 132.232 67.1769C132.232 67.1769 132.056 68.9397 130.578 69.0591C129.101 69.1784 129.466 68.0123 129.466 68.0123C129.466 68.0123 128.87 69.4787 127.603 69.0591C126.335 68.6394 127.603 66.2253 127.603 66.2253L123.375 59.2607C123.375 59.2607 122.106 59.3535 122.744 57.7701C122.744 57.7701 120.815 57.8224 121.8 56.4566C121.8 56.4566 119.209 56.6376 120.155 54.8888C120.037 54.8215 119.936 54.7271 119.859 54.613C119.782 54.4988 119.732 54.368 119.712 54.2305C119.692 54.0931 119.703 53.9527 119.744 53.8203C119.785 53.6879 119.854 53.567 119.948 53.4669C119.948 53.4669 117.978 52.9739 118.95 52.0356C118.95 52.0356 117.295 51.1854 118.137 50.3835C118.137 50.3835 117.249 49.2198 118.383 48.634C118.386 48.634 117.005 47.9546 117.485 47.4866Z" fill="#81F8F8"/>
<path d="M131.386 43.5032C131.205 43.2404 130.973 43.019 130.706 42.8526C130.438 42.6863 130.14 42.5786 129.83 42.5362C129.52 42.4939 129.206 42.5178 128.905 42.6064C128.605 42.6951 128.325 42.8466 128.084 43.0516C127.917 43.1834 128.105 42.4518 125.497 55.8662C124.35 55.8386 123.222 56.1648 122.255 56.8032C121.289 57.4416 120.528 58.3632 120.071 59.4502C119.614 60.5372 119.481 61.7403 119.689 62.9059C119.897 64.0714 120.436 65.1464 121.239 65.9936C122.041 66.8408 123.069 67.4218 124.193 67.6622C125.316 67.9026 126.483 67.7916 127.545 67.3434C128.607 66.8951 129.516 66.13 130.155 65.1458C130.794 64.1615 131.134 63.0028 131.133 61.8176C131.14 60.7956 130.895 59.7885 130.422 58.8913C129.948 57.994 129.261 57.2362 128.425 56.6891C131.698 42.8004 131.553 43.7271 131.386 43.5032Z" fill="black"/>
<path fill-rule="evenodd" clip-rule="evenodd" d="M109.841 113.227C109.841 113.227 110.246 127.99 114.359 130.728C118.472 133.466 133.543 134.179 134.505 130.728C135.468 127.278 131.439 120.282 134.505 112.008C137.571 103.734 141.666 89.414 134.505 75.2609C134.505 75.2609 134.66 71.8944 132.387 70.3937C132.387 70.3937 124.64 72.4482 119.854 77.8895C119.854 77.8895 113.436 85.0655 110.606 94.0776L105.78 99.4783C108.596 102.863 111.97 105.707 115.746 107.878C113.973 110.232 109.841 113.227 109.841 113.227Z" fill="#81F8F8"/>
<path fill-rule="evenodd" clip-rule="evenodd" d="M109.029 95.8201C102.165 94.4302 93.2753 94.0667 91.6211 93.4146C89.9669 92.7625 86.7808 90.8905 83.7163 89.5739C80.6517 88.2572 76.5702 91.3577 75.7563 91.9864C75.5277 92.1437 75.3393 92.3556 75.2071 92.6043C75.0748 92.853 75.0027 93.1309 74.9968 93.4146C74.7455 93.519 74.5177 93.676 74.3278 93.8755C74.1378 94.0751 73.9898 94.3131 73.893 94.5745C73.6061 95.4325 74.9968 95.2343 74.9968 95.2343C74.9968 95.2343 74.8911 95.7125 76.0462 95.8201C77.2014 95.9278 79.8567 94.5986 80.8231 95.2343C81.4844 95.6955 82.0882 96.2391 82.6208 96.8528C82.6208 96.8528 79.3373 96.8583 78.7491 97.8801C78.161 98.9019 79.4656 98.8161 80.506 98.9596C81.5464 99.1031 86.1814 98.4479 86.1814 98.4479C86.1814 98.4479 87.9065 97.1524 90.9756 98.4479C94.0447 99.7435 98.8774 101.412 102.557 102.504C104.947 100.531 107.118 98.289 109.029 95.8201Z" fill="#FFD997"/>
<path fill-rule="evenodd" clip-rule="evenodd" d="M115.661 108.015C115.661 108.015 106.794 117.195 102.731 116.634C98.6686 116.072 78.8046 110.188 76.6913 110.004C74.5781 109.819 71.919 110.779 69.7748 110.595C68.0377 110.367 66.2797 110.367 64.5426 110.595C62.8023 110.864 61.2576 111.115 60.8544 110.004C60.5998 110.027 60.3449 109.962 60.13 109.819C59.9152 109.676 59.7527 109.463 59.6683 109.213C59.6683 109.213 58.6785 109.091 59.1602 108.013C59.0029 107.805 58.9175 107.549 58.9175 107.286C58.9175 107.022 59.0029 106.766 59.1602 106.558C59.7325 105.864 65.8329 102.488 67.5407 102.598C69.2485 102.708 75.0356 103.605 77.1164 104.746C80.3229 106.505 92.2541 104.153 99.6441 105.198L105.782 99.5328C108.592 102.912 111.932 105.779 115.661 108.015Z" fill="#FFD997"/>
<path d="M147.861 79.8239C147.559 76.122 145.17 73.6619 142.387 72.3944C139.45 71.0575 134.346 71.8616 134.131 71.896C134.052 71.9078 133.978 71.9456 133.922 72.0038C133.865 72.0621 133.828 72.1376 133.817 72.2191C133.805 72.3007 133.819 72.3841 133.856 72.4568C133.894 72.5295 133.953 72.5878 134.026 72.6229C134.069 72.7009 138.217 74.4419 139.832 78.7459C141.426 82.9954 137.958 97.2748 137.923 97.4191C137.909 97.4694 137.905 97.522 137.911 97.5739C137.917 97.6257 137.933 97.6758 137.959 97.7211C137.984 97.7664 138.018 97.806 138.058 97.8376C138.098 97.8691 138.144 97.892 138.193 97.9048C138.242 97.9176 138.293 97.9201 138.343 97.9122C138.393 97.9042 138.441 97.8859 138.484 97.8584C138.527 97.831 138.565 97.7948 138.594 97.7522C138.623 97.7096 138.644 97.6613 138.655 97.6102C138.794 97.0471 141.844 84.4735 140.769 79.3021C140.88 79.3262 140.302 79.3021 147.052 79.4908C147.561 83.5663 143.006 113.593 141.867 119.007C140.847 124.347 140.169 129.75 139.835 135.182C139.829 135.285 139.863 135.387 139.93 135.464C139.996 135.542 140.09 135.589 140.19 135.595C140.29 135.601 140.389 135.565 140.464 135.496C140.538 135.428 140.584 135.331 140.59 135.227C140.921 129.836 141.595 124.473 142.606 119.173C144.085 112.135 148.156 83.4532 147.861 79.8239ZM140.538 78.4643C139.517 75.9612 137.729 73.8741 135.447 72.5246C137.12 72.3686 140.168 72.236 142.085 73.1089C144.76 74.3264 146.384 76.2078 146.932 78.7069C140.635 78.5306 140.572 78.5595 140.535 78.4643H140.538Z" fill="black"/>
<path d="M142.003 59.5532C142.115 59.4515 142.203 59.3261 142.263 59.1857C142.322 59.0452 142.352 58.8931 142.349 58.7397C142.375 57.9597 141.43 57.4792 140.656 57.2187C140.816 57.0789 140.939 56.8999 141.015 56.698C141.091 56.4961 141.117 56.2779 141.09 56.0631C141.063 55.8484 140.984 55.644 140.861 55.4687C140.738 55.2934 140.575 55.1528 140.385 55.0597C140.777 54.4357 140.586 53.7875 139.555 53.6713C139.666 53.5478 139.745 53.3981 139.787 53.2354C139.829 53.0726 139.831 52.9018 139.794 52.7379C139.756 52.5741 139.681 52.4222 139.573 52.2956C139.466 52.1691 139.33 52.0717 139.177 52.0122C139.313 51.4615 139.356 50.889 138.986 50.6082C138.864 50.5144 138.713 50.468 138.561 50.4771C138.684 49.6691 138.573 49.1613 138.222 48.9C138.061 48.7817 137.865 48.7264 137.668 48.744C137.889 47.8657 138.057 46.553 137.248 46.1591C136.938 46.0631 136.607 46.0666 136.299 46.1691C135.991 46.2716 135.72 46.4683 135.523 46.7331C135.503 46.5807 135.451 46.4347 135.369 46.3063C135.287 46.1778 135.178 46.0703 135.05 45.9918C134.923 45.9132 134.779 45.8658 134.631 45.853C134.482 45.8403 134.333 45.8625 134.194 45.918C134.188 45.7847 134.149 45.6551 134.082 45.541C134.015 45.4268 133.921 45.3317 133.81 45.264C133.698 45.1963 133.572 45.1582 133.443 45.1531C133.314 45.148 133.186 45.1761 133.07 45.2348C133.067 45.0093 133.009 44.7881 132.903 44.591C132.797 44.394 132.645 44.2274 132.461 44.1061C131.492 43.3854 129.45 43.9704 128.659 44.2387C128.546 44.0307 128.386 43.8541 128.192 43.7243C127.998 43.5944 127.777 43.5151 127.547 43.4933C127.317 43.4714 127.085 43.5076 126.872 43.5987C126.659 43.6898 126.47 43.8332 126.322 44.0164C126.143 43.7146 125.897 43.4622 125.603 43.2808C125.309 43.0994 124.977 42.9945 124.635 42.9751C123.672 42.9072 122.913 43.8253 122.475 44.5686C122.368 44.3976 122.22 44.2582 122.045 44.1642C121.871 44.0703 121.676 44.025 121.479 44.0328C120.765 44.0328 120.306 44.759 120.05 45.3408C119.365 44.9142 118.305 45.4142 117.724 46.074C116.395 45.7706 114.844 45.9687 114.442 47.322C114.193 47.2327 113.927 47.2073 113.667 47.2481C113.407 47.2888 113.16 47.3945 112.948 47.556C112.75 47.751 112.622 48.0106 112.587 48.2911C112.553 48.5717 112.612 48.8561 112.756 49.0965C112.586 49.1116 112.424 49.1817 112.295 49.2969C112.165 49.4122 112.074 49.5667 112.034 49.7385C110.734 49.1979 109.723 50.2377 109.91 50.9748C110.068 51.5918 110.918 52.02 111.508 52.2477C111.434 52.3744 111.384 52.515 111.363 52.6614C111.341 52.8078 111.348 52.9572 111.382 53.101C111.416 53.2448 111.478 53.3802 111.563 53.4995C111.648 53.6188 111.755 53.7195 111.877 53.796C112.648 54.2789 113.335 53.406 113.74 52.5808C113.647 53.007 113.583 53.4394 113.547 53.8748C111.625 55.6283 112.583 57.2678 113.048 58.0642C113.123 58.1874 113.185 58.2982 113.223 58.3653C113.223 58.9019 110.724 60.7318 110.555 62.0492C110.404 63.2379 111.914 63.8627 112.839 64.1318C112.487 64.5725 112.153 65.1755 112.449 65.6427C112.682 66.0093 113.349 66.1411 114.974 66.0998C114.021 66.4437 113.502 66.8595 113.353 67.3899C113.159 68.0747 113.644 68.7104 114.114 69.2533C114.789 70.0333 113.888 70.8227 114.961 71.8889C115.893 72.8124 118.025 72.0028 118.917 71.6027C119.542 73.1449 120.291 74.6303 121.156 76.0432C117.495 79.3543 112.416 87.1192 110.275 93.8732L108.911 95.3997C102.082 94.1938 93.3203 93.6611 91.7597 93.0464C90.1515 92.4131 86.9103 90.5185 83.8654 89.2096C80.8771 87.9257 77.0447 90.5036 75.534 91.6697C75.2968 91.8426 75.0955 92.0628 74.942 92.3174C74.7885 92.5719 74.6858 92.8556 74.6401 93.1517C73.919 93.5503 73.1354 94.622 73.645 95.2655C73.7894 95.406 73.9618 95.5122 74.1501 95.5767C74.3384 95.6413 74.5381 95.6626 74.7352 95.6392C74.898 95.822 75.0967 95.9667 75.3181 96.0637C75.5395 96.1607 75.7783 96.2077 76.0187 96.2015C77.2033 96.3084 79.8775 95.0612 80.6242 95.5565C81.029 95.8301 81.4081 96.1421 81.7567 96.4886C80.6461 96.5666 78.9202 96.8247 78.4347 97.6734C78.3335 97.8112 78.2689 97.974 78.2475 98.1456C78.226 98.3172 78.2484 98.4916 78.3124 98.6515C78.6144 99.2708 79.6231 99.2232 80.4664 99.3395C81.5234 99.4853 85.7642 98.8949 86.2437 98.827C86.3041 98.8182 86.3617 98.7944 86.4113 98.7576C86.4762 98.7108 88.0292 97.6133 90.8431 98.8021C93.5679 99.9518 97.9877 101.511 101.809 102.676L99.5301 104.782C92.0987 103.814 80.3297 106.055 77.3022 104.396C75.0734 103.173 69.084 102.3 67.5725 102.203C65.7197 102.108 59.5189 105.527 58.8825 106.299C58.6864 106.539 58.5679 106.837 58.5437 107.151C58.5195 107.464 58.5907 107.778 58.7473 108.047C58.6828 108.187 58.6486 108.34 58.6469 108.495C58.6452 108.651 58.6762 108.804 58.7376 108.946C58.7991 109.087 58.8896 109.213 59.0028 109.315C59.1161 109.417 59.2494 109.492 59.3936 109.536C59.5081 109.776 59.6819 109.98 59.8975 110.129C60.113 110.277 60.3627 110.364 60.6212 110.381C61.2358 111.497 62.856 111.246 64.6084 110.974C66.3167 110.751 68.0454 110.751 69.7537 110.974C71.8632 111.157 74.668 110.215 76.6695 110.383C78.8968 110.576 100.541 117.036 103.101 117.036C104.863 117.036 107.254 115.647 109.503 113.974C109.538 114.721 109.61 115.968 109.754 117.461C105.895 117.223 90.7344 116.379 87.2788 117.535C83.571 118.776 84.4098 126.363 84.6672 128.162C83.1128 128.147 81.5635 128.349 80.0617 128.764C76.6869 130.211 77.7016 138.568 77.7461 138.923C77.759 139.026 77.8109 139.119 77.8902 139.182C77.9696 139.245 78.07 139.273 78.1693 139.259C78.2686 139.246 78.3588 139.193 78.4198 139.111C78.4809 139.029 78.508 138.925 78.4951 138.822C78.2112 136.568 77.9915 130.497 80.3509 129.485C82.3652 128.621 93.2674 128.62 112.74 129.478C113.103 130.1 113.589 130.635 114.166 131.05C118.056 133.638 132.151 134.645 134.567 131.44C134.864 132.306 135.039 133.211 135.087 134.128C135.086 134.18 135.094 134.231 135.112 134.278C135.13 134.326 135.157 134.37 135.192 134.407C135.226 134.444 135.267 134.474 135.313 134.494C135.358 134.515 135.407 134.526 135.457 134.527C135.556 134.527 135.652 134.488 135.724 134.416C135.796 134.345 135.838 134.248 135.842 134.145C135.748 132.828 135.461 131.534 134.988 130.308C135.541 126.572 131.962 119.987 134.869 112.144C136.825 106.868 142.771 90.8336 134.896 75.1665C134.903 74.5425 134.82 71.5262 132.601 70.0614C132.558 70.0328 132.509 70.0136 132.458 70.0052C132.406 69.9967 132.354 69.9991 132.304 70.0122C132.246 70.0271 131.945 70.1097 131.473 70.2626L131.125 69.3313C131.615 69.1553 132.023 68.7975 132.271 68.3275C132.378 68.4845 132.535 68.5979 132.714 68.648C132.893 68.6982 133.084 68.6819 133.253 68.602C133.411 68.845 133.62 69.0471 133.866 69.1927C134.111 69.3383 134.386 69.4233 134.669 69.4413C135.65 69.5442 135.862 68.6426 135.638 67.641C135.766 67.5977 135.887 67.5323 135.994 67.4476C136.248 67.6274 136.551 67.7151 136.858 67.697C137.165 67.679 137.457 67.5561 137.689 67.3478C138.438 67.6715 138.92 67.0701 139.057 66.191C140.208 66.3221 140.691 65.5163 140.458 64.3331C141.358 64.1287 141.415 63.1958 141.096 62.2684C141.608 62.1975 142.085 61.9636 142.462 61.5992C143.143 60.9697 142.734 60.164 142.003 59.5532ZM119.609 71.3016C121.362 70.6184 122.994 69.6436 124.441 68.4156C124.479 68.3809 124.51 68.3388 124.531 68.2918C124.553 68.2447 124.565 68.1936 124.568 68.1415C124.57 68.0894 124.562 68.0374 124.544 67.9885C124.527 67.9396 124.5 67.8949 124.465 67.8569C124.431 67.8189 124.389 67.7885 124.343 67.7674C124.297 67.7464 124.247 67.7351 124.197 67.7342C124.146 67.7334 124.096 67.743 124.049 67.7625C124.003 67.782 123.96 67.811 123.924 67.8477C122.216 69.5123 119.088 70.6511 118.977 70.7221L118.957 70.7267C117.837 71.2946 116.019 71.8577 115.484 71.3281C115.344 71.2038 115.239 71.043 115.18 70.8624C115.121 70.6819 115.109 70.4882 115.147 70.3016C115.187 70.0207 115.166 69.734 115.084 69.4628C115.003 69.1916 114.863 68.9427 114.676 68.7346C114.317 68.3196 113.997 67.8961 114.077 67.6098C114.129 67.4242 114.411 67.0568 115.715 66.6785C115.891 66.627 116.584 66.1177 116.524 65.6708C116.509 65.5574 116.453 65.4543 116.367 65.382C116.281 65.3097 116.171 65.2735 116.061 65.2808C115.071 65.3502 114.076 65.335 113.088 65.2355C113.07 65.0951 113.354 64.6841 113.688 64.3377C114.56 64.4937 115.145 64 114.866 63C114.837 62.9023 114.773 62.8202 114.685 62.7714C114.598 62.7226 114.496 62.7111 114.401 62.7394C114.306 62.7676 114.226 62.8333 114.177 62.9223C114.128 63.0113 114.115 63.1166 114.141 63.2153C114.204 63.4423 114.18 63.5398 114.171 63.5531C114.01 63.6034 113.837 63.5974 113.68 63.5359H113.652L113.636 63.5273C112.868 63.3838 111.215 62.8378 111.303 62.1538C111.368 61.6444 112.109 60.8683 112.706 60.2443C113.544 59.3691 114.204 58.6773 113.908 58.0517C113.493 57.1812 112.306 55.9535 114.156 54.3655C114.197 54.3302 114.231 54.2863 114.254 54.2367C114.278 54.1871 114.291 54.1329 114.293 54.0776C114.383 52.8613 114.706 51.6756 115.243 50.5895C115.72 49.6589 116.388 48.8469 117.199 48.2097C117.344 48.3956 117.517 48.5561 117.712 48.6847C117.538 48.9238 117.441 49.2134 117.434 49.5125C117.428 49.8117 117.512 50.1054 117.676 50.3523C117.261 51.027 117.756 51.7017 118.401 52.1463C118.066 52.8483 118.657 53.3873 119.377 53.6814C119.299 53.907 119.288 54.1512 119.345 54.3834C119.402 54.6155 119.524 54.825 119.695 54.9855C119.353 55.8591 119.717 56.6883 121.19 56.831C121.033 57.3887 121.301 57.9636 122.243 58.1204C122.182 58.2827 122.158 58.4576 122.174 58.631C122.19 58.8044 122.245 58.9716 122.335 59.1191C122.425 59.2665 122.547 59.3903 122.691 59.4803C122.835 59.5703 122.998 59.6241 123.166 59.6375L127.176 66.2425C126.621 67.4273 126.281 69.0255 127.495 69.4272C127.8 69.5353 128.128 69.5513 128.442 69.4734C128.755 69.3954 129.041 69.2269 129.265 68.9873C129.401 69.1425 129.568 69.2642 129.756 69.3435C129.943 69.4227 130.145 69.4575 130.347 69.4452L130.744 70.5091C127.487 71.6419 124.441 73.3404 121.736 75.5315C120.918 74.1834 120.206 72.7687 119.609 71.3016ZM91.1194 98.0868C88.2399 96.8716 86.4543 97.8146 86.0466 98.0727C84.2294 98.3644 82.3955 98.5317 80.557 98.5735C80.0233 98.5535 79.4939 98.4679 78.9798 98.3184C78.9903 98.2318 79.0226 98.1495 79.0734 98.0798C79.4034 97.5065 81.3475 97.2475 82.6219 97.2428C83.1899 97.1149 83.7479 96.9433 84.2912 96.7296C84.3703 96.7046 84.4393 96.6535 84.4876 96.584C84.5358 96.5146 84.5606 96.4307 84.5582 96.3453C84.5558 96.2599 84.5263 96.1776 84.4743 96.1112C84.4222 96.0448 84.3505 95.9979 84.2701 95.9777C81.2803 95.2187 81.6631 95.3154 81.5574 95.2983C80.6098 94.5393 80.2739 94.4481 77.8858 95.0908C77.1195 95.2967 76.1335 95.6079 75.4842 95.2959C76.2754 94.5588 79.1935 92.1307 82.5457 92.9279C82.6433 92.951 82.7458 92.9332 82.8307 92.8783C82.9156 92.8233 82.9759 92.7358 82.9983 92.635C83.0207 92.5341 83.0034 92.4282 82.9503 92.3405C82.8971 92.2528 82.8124 92.1905 82.7148 92.1674C78.7269 91.2212 75.4441 94.2461 74.8303 94.856C74.6288 94.8837 74.4239 94.8626 74.2316 94.7944C74.2315 94.7625 74.2376 94.7309 74.2497 94.7016C74.4966 93.9621 75.1429 93.8241 75.2712 93.6821C75.2999 93.6501 78.1878 90.5418 82.187 91.2048C82.286 91.2212 82.3871 91.1963 82.4682 91.1356C82.5494 91.0749 82.6038 90.9833 82.6197 90.8811C82.6355 90.779 82.6114 90.6745 82.5526 90.5906C82.4938 90.5068 82.4053 90.4506 82.3063 90.4342C80.8747 90.2008 79.4086 90.3672 78.0602 90.9163C79.7174 89.9803 81.8458 89.1932 83.5717 89.9335C85.195 90.6308 86.8477 91.4833 88.3056 92.2344C92.0088 94.1431 91.2123 93.9949 98.3161 94.7858C101.325 95.1204 105.016 95.5338 108.294 96.09C104.534 100.302 105.954 98.8488 102.463 102.07C98.566 100.9 93.9311 99.2732 91.1194 98.0868ZM102.782 116.243C98.7699 115.688 78.8718 109.798 76.7224 109.613C74.5985 109.429 71.8481 110.383 69.8066 110.203C68.0243 109.972 66.2207 109.975 64.4393 110.214C62.8885 110.454 61.8466 110.571 61.3966 110.143C63.399 109.074 65.564 108.368 67.7975 108.056C67.8479 108.052 67.8969 108.037 67.9417 108.013C67.9864 107.988 68.026 107.955 68.058 107.915C68.0901 107.874 68.1139 107.828 68.1282 107.777C68.1425 107.727 68.1469 107.675 68.1411 107.623C68.1353 107.571 68.1195 107.521 68.0946 107.475C68.0697 107.43 68.0363 107.39 67.9962 107.358C67.9561 107.326 67.9103 107.303 67.8614 107.29C67.8124 107.277 67.7615 107.274 67.7114 107.281C65.274 107.614 62.916 108.405 60.7533 109.613C60.6256 109.616 60.4991 109.587 60.3853 109.527C60.2714 109.467 60.1737 109.379 60.101 109.27C60.5631 108.697 62.4815 106.666 66.9715 105.98C67.0705 105.965 67.1596 105.91 67.2193 105.827C67.2789 105.744 67.3041 105.64 67.2894 105.537C67.2739 105.435 67.2203 105.344 67.1401 105.282C67.0599 105.221 66.9595 105.194 66.8605 105.208C62.1516 105.927 60.1071 108.037 59.537 108.754C59.4952 108.733 59.4599 108.7 59.4351 108.659C59.3977 108.516 59.4167 108.364 59.488 108.235C61.5473 106.417 63.9798 105.106 66.6016 104.402C66.6993 104.38 66.7842 104.318 66.8377 104.23C66.8911 104.142 66.9087 104.037 66.8866 103.936C66.8645 103.835 66.8044 103.747 66.7197 103.692C66.6349 103.636 66.5324 103.618 66.4347 103.641C63.8192 104.325 61.3832 105.601 59.3022 107.375C59.2834 107.275 59.2873 107.172 59.3135 107.074C59.3397 106.975 59.3875 106.885 59.4532 106.809C60.015 106.126 65.9915 102.896 67.5212 102.987C69.1474 103.091 74.9134 103.977 76.9436 105.093C80.3471 106.965 92.0745 104.522 99.5936 105.586C99.8382 105.622 99.3671 105.976 105.767 100.071C108.47 103.207 111.64 105.877 115.157 107.981C112.804 110.342 106.034 116.687 102.782 116.243ZM85.4169 128.137C85.2048 126.639 84.3448 119.341 87.5015 118.284C90.8235 117.171 106.252 118.037 109.824 118.255C110.184 121.613 110.896 125.904 112.284 128.685C99.5898 128.131 90.677 127.947 85.4169 128.139V128.137ZM134.153 111.87C131.076 120.173 135.048 127.377 134.143 130.621C133.313 133.608 118.645 133.117 114.564 130.401C110.916 127.973 110.294 115.185 110.226 113.42C112.197 111.857 114.073 110.171 115.845 108.372C117.423 109.257 119.079 109.989 120.789 110.556C120.859 110.579 120.933 110.58 121.004 110.56C121.075 110.539 121.138 110.498 121.187 110.441L129.556 100.587C129.59 100.549 129.616 100.504 129.632 100.455C129.649 100.407 129.656 100.355 129.653 100.303C129.65 100.252 129.637 100.201 129.615 100.155C129.593 100.108 129.563 100.067 129.525 100.033C129.487 99.9988 129.444 99.9728 129.396 99.9564C129.349 99.9399 129.299 99.9334 129.249 99.9372C129.199 99.941 129.15 99.955 129.105 99.9784C129.061 100.002 129.021 100.034 128.989 100.073L120.783 109.735C112.913 107.065 107.4 100.829 106.281 99.4892C109.749 95.5892 117.483 86.4102 122.254 84.7254C128.676 82.4571 130.755 86.7627 130.841 86.9476C130.889 87.0317 130.965 87.0943 131.055 87.123C131.146 87.1516 131.243 87.1444 131.328 87.1026C131.413 87.0608 131.48 86.9875 131.516 86.8971C131.552 86.8068 131.553 86.706 131.52 86.6146C131.498 86.5631 129.088 81.4876 122.007 83.9875C118.626 85.1817 113.822 90.0231 111.57 92.4396C113.505 87.5465 116.164 82.994 119.453 78.9456V82.472C119.45 82.54 119.465 82.6076 119.496 82.6677C119.527 82.7278 119.573 82.7781 119.629 82.8132C119.686 82.8483 119.75 82.867 119.816 82.8672C119.882 82.8674 119.947 82.8492 120.003 82.8144C120.112 82.7512 130.59 76.6368 134.297 75.7086C141.881 91.0106 136.071 106.696 134.153 111.87ZM132.324 70.8188C133.89 71.9654 134.105 74.1728 134.13 74.9575C130.777 75.7928 122.493 80.4955 120.219 81.8066V78.0502C124.498 73.2641 131.2 71.1472 132.324 70.8188ZM140.614 61.4876C140.543 61.4645 140.466 61.4638 140.394 61.4857C140.323 61.5076 140.259 61.5511 140.211 61.6107C140.163 61.6702 140.133 61.7431 140.126 61.8201C140.118 61.8971 140.133 61.9747 140.168 62.043C140.395 62.4813 140.621 63.2239 140.462 63.4766C140.386 63.603 140.133 63.6022 139.991 63.5905C139.928 63.5852 139.864 63.5967 139.806 63.6238C139.748 63.6509 139.697 63.6928 139.659 63.7455C139.621 63.7982 139.596 63.8601 139.587 63.9253C139.578 63.9906 139.586 64.057 139.609 64.1186C139.738 64.4703 139.84 65.0936 139.65 65.3127C139.529 65.4531 139.23 65.4688 138.804 65.3588C138.749 65.3443 138.692 65.3429 138.636 65.3547C138.58 65.3665 138.528 65.3912 138.482 65.4269C138.437 65.4626 138.4 65.5084 138.375 65.5609C138.349 65.6134 138.335 65.6712 138.334 65.73C138.354 66.0588 138.265 66.3849 138.082 66.6543C138.065 66.6684 137.98 66.6543 137.851 66.5646C137.782 66.5189 137.7 66.4976 137.619 66.5039C137.537 66.5103 137.46 66.5439 137.398 66.5997C137.19 66.7972 136.921 66.9128 136.638 66.9266C136.572 66.9139 136.51 66.8853 136.457 66.8432C136.404 66.801 136.361 66.7465 136.332 66.684C136.3 66.6311 136.255 66.587 136.203 66.5554C136.151 66.5238 136.092 66.5057 136.031 66.5025C135.971 66.4994 135.911 66.5113 135.856 66.5374C135.801 66.5634 135.752 66.6027 135.715 66.652C135.628 66.7734 135.501 66.8569 135.358 66.886C135.295 66.8281 135.215 66.7937 135.131 66.7883C135.046 66.7829 134.963 66.8068 134.893 66.8562C134.824 66.9056 134.772 66.9776 134.747 67.0608C134.722 67.1439 134.724 67.2334 134.754 67.315C134.945 67.7273 135.002 68.1926 134.915 68.641C134.679 68.6791 134.437 68.6306 134.231 68.5038C134.025 68.3771 133.868 68.1801 133.788 67.9468C133.777 67.8735 133.745 67.8051 133.698 67.7497C133.65 67.6943 133.588 67.6541 133.518 67.6338C133.449 67.6136 133.376 67.6142 133.307 67.6355C133.238 67.6568 133.177 67.698 133.13 67.7542C133.077 67.8189 132.969 67.9164 132.914 67.8992C132.914 67.8992 132.74 67.8095 132.619 67.1067C132.603 67.0145 132.555 66.9314 132.484 66.8727C132.413 66.8139 132.325 66.7833 132.234 66.7867C132.143 66.79 132.057 66.8269 131.99 66.8907C131.924 66.9545 131.882 67.0409 131.872 67.134C131.679 68.985 129.594 68.9967 129.84 68.1293C129.872 68.0333 129.866 67.9284 129.823 67.8369C129.781 67.7454 129.706 67.6744 129.614 67.6391C129.522 67.6038 129.42 67.6069 129.331 67.6478C129.241 67.6886 129.17 67.764 129.133 67.8579C129.114 67.9047 128.664 68.9936 127.732 68.6847C127.088 68.4718 127.628 67.0194 127.949 66.4079C127.98 66.3475 127.996 66.2797 127.994 66.2112C127.992 66.1427 127.972 66.0761 127.937 66.0179L123.709 59.0532C123.672 58.9945 123.621 58.9467 123.561 58.9148C123.501 58.8829 123.434 58.868 123.366 58.8715C123.3 58.8775 123.234 58.869 123.172 58.8466C123.109 58.8241 123.052 58.7882 123.004 58.7413C122.914 58.6094 122.953 58.3029 123.107 57.9207C123.2 57.6867 123.088 57.4308 122.749 57.3801C122.39 57.3911 121.979 57.2826 121.919 57.1617C121.899 57.1212 121.914 56.9714 122.117 56.6898C122.161 56.6301 122.187 56.5587 122.193 56.484C122.198 56.4094 122.183 56.3347 122.148 56.2689C122.113 56.2031 122.061 56.149 121.998 56.113C121.934 56.077 121.862 56.0606 121.79 56.0659C121.329 56.0846 120.555 56.0081 120.378 55.7195C120.279 55.5573 120.389 55.2804 120.499 55.0768C120.545 54.9912 120.558 54.8908 120.536 54.7956C120.514 54.7003 120.458 54.6172 120.379 54.5628C120.226 54.4575 120.116 54.2987 120.069 54.1159C120.029 53.7758 120.434 53.7352 120.324 53.3538C120.305 53.2886 120.27 53.2296 120.222 53.1826C120.174 53.1357 120.116 53.1025 120.052 53.0863C119.59 52.9693 119.114 52.7079 119.074 52.548C119.065 52.5153 119.108 52.4295 119.225 52.3195C119.27 52.2766 119.304 52.2232 119.324 52.1638C119.344 52.1044 119.35 52.0409 119.341 51.9786C119.333 51.9163 119.31 51.857 119.274 51.806C119.238 51.7549 119.191 51.7135 119.137 51.6854C118.806 51.5138 118.329 51.1394 118.295 50.8913C118.29 50.864 118.281 50.7915 118.41 50.6682C118.479 50.6017 118.522 50.5105 118.53 50.4128C118.537 50.3151 118.509 50.2181 118.45 50.141C118.283 49.9218 118.198 49.6475 118.212 49.3688C118.225 49.3126 118.262 49.1402 118.569 48.9788C118.633 48.9462 118.686 48.8958 118.723 48.8333C118.76 48.7708 118.779 48.6988 118.779 48.6256C118.778 48.5523 118.757 48.4807 118.719 48.419C118.681 48.3573 118.626 48.308 118.562 48.2768C118.274 48.1446 118.014 47.956 117.796 47.7214C117.851 47.6501 117.88 47.5612 117.878 47.4702C117.876 47.3791 117.843 47.2917 117.785 47.2229C117.727 47.1542 117.648 47.1086 117.561 47.0939C117.474 47.0792 117.385 47.0965 117.309 47.1426C116.906 47.4024 116.531 47.706 116.19 48.0482C115.139 49.0566 114.365 50.3351 113.948 51.7532L113.709 51.6635C113.617 51.6289 113.516 51.6325 113.426 51.6737C113.337 51.7149 113.266 51.7904 113.23 51.8843C113.104 52.2033 112.55 53.2969 112.281 53.1284C112.243 53.1107 112.209 53.0841 112.183 53.0506C112.157 53.0172 112.138 52.9778 112.13 52.9357C112.137 52.693 112.224 52.4601 112.376 52.2751C112.416 52.225 112.442 52.1658 112.454 52.1027C112.465 52.0396 112.461 51.9745 112.443 51.9132C112.424 51.8519 112.391 51.7963 112.346 51.7514C112.302 51.7065 112.247 51.6736 112.188 51.6557C111.516 51.4537 110.715 51.0317 110.648 50.7743C110.62 50.6597 111.273 49.9764 112.131 50.68C112.19 50.729 112.261 50.7588 112.337 50.7653C112.412 50.7719 112.487 50.755 112.553 50.7167C112.619 50.6785 112.672 50.6207 112.706 50.5509C112.74 50.4811 112.753 50.4024 112.743 50.3251C112.714 50.173 112.736 50.0155 112.805 49.8781C112.833 49.8625 112.999 49.8477 113.387 50.0825C113.463 50.1282 113.552 50.1451 113.638 50.1302C113.725 50.1154 113.804 50.0697 113.862 50.0011C113.919 49.9325 113.952 49.8453 113.954 49.7545C113.956 49.6637 113.927 49.575 113.873 49.5037C113.603 49.1504 113.178 48.3688 113.427 48.1644C113.868 47.801 114.559 48.1972 114.559 48.1972C114.618 48.2323 114.684 48.2504 114.752 48.2497C114.82 48.2489 114.886 48.2294 114.944 48.1931C115.002 48.1568 115.049 48.1051 115.081 48.0434C115.113 47.9817 115.128 47.9122 115.125 47.8423C115.13 47.6273 115.198 47.419 115.321 47.2452C115.443 47.0713 115.614 46.9403 115.811 46.8696C116.45 46.6846 117.127 46.6881 117.764 46.8798C117.841 46.9024 117.923 46.8995 117.998 46.8715C118.074 46.8435 118.139 46.7919 118.184 46.7238C118.577 46.1442 119.694 45.6271 119.795 46.1996C119.804 46.2904 119.844 46.375 119.908 46.4386C119.971 46.5022 120.054 46.5408 120.142 46.5476C120.23 46.5545 120.318 46.5292 120.39 46.4762C120.462 46.4231 120.513 46.3457 120.536 46.2573C120.651 45.8057 121.054 44.805 121.503 44.8034C121.975 44.8034 122.017 45.4898 122.019 45.5951C122.02 45.6852 122.051 45.7721 122.107 45.8411C122.163 45.9101 122.24 45.957 122.326 45.9738C122.411 45.9906 122.5 45.9763 122.576 45.9333C122.653 45.8903 122.713 45.8213 122.746 45.7379C122.958 45.202 123.762 43.6826 124.594 43.7442C124.883 43.7627 125.16 43.8735 125.385 44.0615C125.611 44.2494 125.774 44.5051 125.853 44.7933C125.87 44.8654 125.907 44.931 125.959 44.9824C126.011 45.0338 126.076 45.0688 126.146 45.0833C126.217 45.0978 126.29 45.0912 126.357 45.0643C126.424 45.0374 126.482 44.9912 126.524 44.9313C126.655 44.7488 127.116 44.2426 127.514 44.2644C127.741 44.2808 127.967 44.4899 128.171 44.8884C128.214 44.9713 128.285 45.0353 128.37 45.0685C128.455 45.1018 128.549 45.1021 128.635 45.0694C129.616 44.6942 131.412 44.2722 132.032 44.7317C132.31 44.9391 132.322 45.1154 132.327 45.1724C132.304 45.4408 132.185 45.691 131.994 45.8744C131.923 45.9435 131.881 46.0385 131.876 46.1393C131.871 46.2401 131.904 46.339 131.968 46.415C132.033 46.4911 132.123 46.5385 132.22 46.5472C132.318 46.5559 132.414 46.5253 132.49 46.4617C132.764 46.2115 133.087 46.0252 133.437 45.9157C133.437 45.9157 133.498 46.0249 133.426 46.4274C133.413 46.5015 133.42 46.5779 133.448 46.6475C133.476 46.7171 133.523 46.7769 133.583 46.8197C133.643 46.8624 133.714 46.8862 133.787 46.8883C133.859 46.8904 133.931 46.8707 133.994 46.8314C134.204 46.7004 134.574 46.5701 134.7 46.6614C134.783 46.7214 134.885 47.0233 134.743 47.7768C134.726 47.8655 134.74 47.9573 134.781 48.0367C134.823 48.1161 134.89 48.1781 134.971 48.212C135.052 48.246 135.142 48.2499 135.226 48.223C135.309 48.1961 135.381 48.1401 135.429 48.0646C135.758 47.5451 136.542 46.6544 136.939 46.8517C137.255 47.0077 137.098 48.223 136.746 49.2089C136.718 49.2859 136.714 49.3701 136.735 49.4494C136.757 49.5287 136.801 49.599 136.864 49.6504C136.926 49.7017 137.002 49.7314 137.082 49.7351C137.161 49.7389 137.24 49.7166 137.307 49.6714C137.496 49.5443 137.739 49.4756 137.794 49.5154C137.794 49.5154 138.006 49.7408 137.698 50.9561C137.679 51.033 137.682 51.1143 137.709 51.189C137.735 51.2638 137.783 51.3284 137.846 51.3743C137.909 51.4201 137.984 51.4449 138.061 51.4455C138.138 51.446 138.213 51.4222 138.277 51.3773C138.355 51.3227 138.441 51.2799 138.531 51.2501C138.527 51.5529 138.471 51.8526 138.364 52.1346C138.348 52.1883 138.343 52.245 138.349 52.3009C138.356 52.3568 138.374 52.4105 138.403 52.4584C138.432 52.5063 138.47 52.5472 138.516 52.5783C138.561 52.6094 138.612 52.6299 138.666 52.6385C138.787 52.6588 139.028 52.754 139.061 52.8663C139.069 52.8936 139.12 53.1502 138.47 53.7703C138.411 53.8263 138.371 53.9001 138.356 53.9811C138.34 54.062 138.35 54.1461 138.383 54.221C138.417 54.296 138.473 54.358 138.542 54.3981C138.612 54.4382 138.693 54.4543 138.772 54.4442C139.128 54.3988 139.488 54.4098 139.841 54.477C139.841 54.477 139.827 54.6104 139.522 54.9216C139.475 54.9702 139.441 55.0308 139.424 55.0974C139.407 55.1639 139.407 55.234 139.424 55.3005C139.442 55.367 139.476 55.4276 139.523 55.476C139.571 55.5243 139.63 55.5589 139.695 55.576C139.695 55.576 140.365 55.7694 140.363 56.2C140.363 56.6774 139.642 57.0073 139.642 57.0073C139.568 57.0398 139.506 57.0958 139.464 57.1673C139.423 57.2388 139.406 57.322 139.413 57.4048C139.421 57.4875 139.455 57.5655 139.509 57.6273C139.562 57.6891 139.634 57.7315 139.713 57.7483C140.7 57.9581 141.624 58.4207 141.615 58.6991C141.621 58.7891 141.592 58.8777 141.535 58.9456C141.424 59.0005 141.299 59.0143 141.18 58.9846C141.091 58.9619 140.997 58.9736 140.916 59.0173C140.834 59.0611 140.771 59.1341 140.738 59.2225C140.705 59.311 140.704 59.4088 140.736 59.4979C140.768 59.5869 140.829 59.6609 140.91 59.7061C141.355 59.9549 142.031 60.4806 142.068 60.8176C142.072 61.0766 141.167 61.66 140.61 61.4876H140.614Z" fill="black"/>
<path d="M37.1466 15.1096H13.198C11.8968 15.1109 10.6493 15.6454 9.72923 16.596C8.80915 17.5465 8.29173 18.8354 8.29053 20.1796V29.5396C8.29193 30.8838 8.80941 32.1726 9.72945 33.1231C10.6495 34.0736 11.8969 34.6082 13.198 34.6096H25.7892C28.8847 39.6515 32.4271 42.2755 36.6106 42.6288C36.685 42.6351 36.7596 42.6185 36.8249 42.581C36.8901 42.5435 36.9432 42.4869 36.9773 42.4182C37.0114 42.3496 37.025 42.272 37.0165 42.1954C37.0079 42.1187 36.9775 42.0464 36.9292 41.9876C35.0817 39.8921 33.7635 37.3578 33.0915 34.6096H37.1466C38.4477 34.6082 39.6952 34.0736 40.6152 33.1231C41.5352 32.1726 42.0527 30.8838 42.0541 29.5396V20.1796C42.0529 18.8354 41.5355 17.5465 40.6154 16.596C39.6954 15.6454 38.4478 15.1109 37.1466 15.1096Z" fill="black"/>
<path d="M16.2578 25.3338C16.2578 25.7757 16.4277 26.1994 16.7302 26.5119C17.0326 26.8244 17.4428 26.9999 17.8705 26.9999C18.2982 26.9999 18.7084 26.8244 19.0108 26.5119C19.3133 26.1994 19.4832 25.7757 19.4832 25.3338C19.4832 24.8919 19.3133 24.4682 19.0108 24.1557C18.7084 23.8433 18.2982 23.6677 17.8705 23.6677C17.4428 23.6677 17.0326 23.8433 16.7302 24.1557C16.4277 24.4682 16.2578 24.8919 16.2578 25.3338Z" fill="white"/>
<path d="M23.3701 25.3915C23.3701 25.8334 23.54 26.2572 23.8425 26.5696C24.1449 26.8821 24.5551 27.0576 24.9828 27.0576C25.4105 27.0576 25.8207 26.8821 26.1231 26.5696C26.4256 26.2572 26.5955 25.8334 26.5955 25.3915C26.5955 25.1728 26.5538 24.9561 26.4727 24.754C26.3917 24.5518 26.2729 24.3682 26.1231 24.2134C25.9734 24.0587 25.7956 23.936 25.5999 23.8523C25.4043 23.7686 25.1946 23.7255 24.9828 23.7255C24.771 23.7255 24.5613 23.7686 24.3657 23.8523C24.17 23.936 23.9922 24.0587 23.8425 24.2134C23.6927 24.3682 23.5739 24.5518 23.4929 24.754C23.4118 24.9561 23.3701 25.1728 23.3701 25.3915Z" fill="white"/>
<path d="M30.8613 25.3915C30.8613 25.8334 31.0312 26.2572 31.3337 26.5696C31.6361 26.8821 32.0463 27.0576 32.474 27.0576C32.9017 27.0576 33.3119 26.8821 33.6143 26.5696C33.9168 26.2572 34.0867 25.8334 34.0867 25.3915C34.0867 24.9497 33.9168 24.5259 33.6143 24.2134C33.3119 23.901 32.9017 23.7255 32.474 23.7255C32.0463 23.7255 31.6361 23.901 31.3337 24.2134C31.0312 24.5259 30.8613 24.9497 30.8613 25.3915Z" fill="white"/>
<path d="M42.3855 85.0047C42.3574 84.9426 42.3141 84.8893 42.2598 84.85C42.2054 84.8107 42.1421 84.7869 42.076 84.781C42.01 84.7751 41.9436 84.7872 41.8835 84.8162C41.8235 84.8452 41.7719 84.89 41.7339 84.9462C40.9842 86.0647 40.8641 86.131 40.9713 86.3931L41.3179 87.2464C41.3467 87.3172 41.3951 87.3776 41.457 87.42C41.519 87.4625 41.5916 87.4851 41.6659 87.4851C42.9962 87.4001 43.068 87.4469 43.1993 87.2168C43.2309 87.1622 43.249 87.1004 43.2522 87.0369C43.2553 86.9735 43.2434 86.9101 43.2175 86.8525L42.3855 85.0047Z" fill="black"/>
<path d="M44.1904 86.0966L43.3094 84.4079C43.2859 84.3628 43.254 84.3229 43.2156 84.2905C43.1771 84.2581 43.1329 84.2339 43.0854 84.2191C43.0379 84.2044 42.9881 84.1995 42.9387 84.2046C42.8894 84.2098 42.8415 84.2249 42.7978 84.2492C42.7542 84.2735 42.7156 84.3064 42.6842 84.3461C42.6528 84.3858 42.6294 84.4315 42.6151 84.4806C42.6008 84.5296 42.596 84.5811 42.601 84.6321C42.606 84.6831 42.6207 84.7325 42.6442 84.7777L43.526 86.4687C43.5735 86.5598 43.654 86.6277 43.75 86.6575C43.8459 86.6873 43.9493 86.6765 44.0376 86.6274C44.1258 86.5784 44.1915 86.4952 44.2203 86.3961C44.2491 86.297 44.2387 86.1901 44.1912 86.099L44.1904 86.0966Z" fill="black"/>
<path d="M50.2374 82.2138C50.1235 82.2145 50.012 82.1795 49.9177 82.1135C49.8234 82.0475 49.7506 81.9536 49.7089 81.8441L49.3057 80.7927C49.2783 80.721 49.2649 80.6444 49.2662 80.5673C49.2675 80.4903 49.2834 80.4142 49.3132 80.3435C49.3429 80.2728 49.3858 80.2089 49.4394 80.1553C49.4931 80.1018 49.5564 80.0597 49.6258 80.0314C49.6952 80.0031 49.7693 79.9892 49.8439 79.9906C49.9185 79.9919 49.9921 80.0084 50.0606 80.0391C50.129 80.0698 50.1909 80.1141 50.2427 80.1696C50.2946 80.225 50.3353 80.2904 50.3627 80.3621L50.7651 81.4136C50.7992 81.5024 50.8116 81.5985 50.8014 81.6934C50.7912 81.7883 50.7586 81.8793 50.7066 81.9582C50.6545 82.0372 50.5845 82.1017 50.5027 82.1463C50.421 82.1908 50.3298 82.214 50.2374 82.2138Z" fill="black"/>
<path d="M58.5605 78.2264L57.7059 76.3544C57.675 76.2885 57.6267 76.2329 57.5666 76.1939C57.5065 76.155 57.437 76.1344 57.3661 76.1344C57.2952 76.1344 57.2257 76.155 57.1656 76.1939C57.1055 76.2329 57.0573 76.2885 57.0264 76.3544L56.5492 77.3684L56.1249 77.6094C56.0405 77.6572 55.977 77.7364 55.9472 77.8309C55.9175 77.9254 55.9238 78.0281 55.9648 78.118C56.2668 78.7771 56.2918 78.9276 56.5032 78.9947C56.7146 79.0618 56.8678 78.9206 57.3065 78.6562L58.1694 78.7786C58.2366 78.7878 58.3049 78.7781 58.3672 78.7506C58.4294 78.7231 58.4834 78.6787 58.5234 78.6223C58.5634 78.5658 58.5879 78.4992 58.5945 78.4296C58.601 78.3599 58.5893 78.2898 58.5605 78.2264Z" fill="black"/>
</svg>
