<svg width="153" height="158" viewBox="0 0 153 158" fill="none" xmlns="http://www.w3.org/2000/svg">
<path fill-rule="evenodd" clip-rule="evenodd" d="M44.7259 124.831C43.2156 121.471 40.715 118.691 37.5819 116.888C32.6023 114.247 27.5909 113.524 24.842 108.183C24.842 108.183 20.6931 118.188 27.3401 129.247C33.9871 140.306 44.7259 136.336 44.7259 136.336V124.831Z" fill="#81F8F8"/>
<path d="M44.9106 134.948C43.2386 127.621 33.9507 121.003 31.0559 119.091C30.7625 118.884 30.4737 118.698 30.1917 118.541C30.148 118.518 30.0971 118.513 30.0498 118.527C30.0025 118.541 29.9625 118.574 29.9382 118.619C29.9139 118.663 29.9073 118.715 29.9197 118.765C29.9321 118.814 29.9626 118.856 30.0048 118.883C34.7008 121.588 41.7612 131.878 44.5656 136.44C44.5928 136.484 44.6357 136.515 44.685 136.526C44.7343 136.538 44.7859 136.528 44.8286 136.501C44.8866 135.985 44.914 135.467 44.9106 134.948Z" fill="white"/>
<path fill-rule="evenodd" clip-rule="evenodd" d="M44.7259 136.336C44.7259 136.336 37.5257 125.167 27.3417 129.247C17.1577 133.328 12.0034 141.937 7.69189 143.729C10.3859 144.572 13.0303 145.577 15.6119 146.736C17.9967 147.981 38.0934 152.446 44.7776 140.634L44.7259 136.336Z" fill="#81F8F8"/>
<path d="M44.9694 140.295C44.8824 140.243 44.7788 140.228 44.6813 140.254C44.5838 140.281 44.5005 140.346 44.4496 140.436C38.0656 151.719 18.4576 147.782 15.7831 146.386C13.4834 145.326 11.123 144.412 8.71511 143.65C12.9384 141.171 17.9917 133.415 27.4818 129.613C37.2607 125.693 44.3416 136.442 44.4123 136.555C44.4682 136.641 44.5552 136.701 44.654 136.722C44.7529 136.742 44.8555 136.721 44.9394 136.663C45.0232 136.606 45.0814 136.516 45.1012 136.414C45.1209 136.312 45.1006 136.206 45.0446 136.119C44.9724 136.006 37.7023 124.972 27.5175 128.77C25.7679 125.868 24.6327 122.617 24.1864 119.23C23.7401 115.843 23.9929 112.397 24.9282 109.118C27.8208 113.926 32.6924 114.734 37.4127 117.237C42.2045 119.779 44.3576 124.93 44.3789 124.983C44.4203 125.075 44.4947 125.147 44.5866 125.184C44.6784 125.221 44.7805 125.219 44.8712 125.18C44.962 125.14 45.0344 125.066 45.0731 124.972C45.1118 124.879 45.1139 124.774 45.0788 124.678C43.5441 121.227 40.9791 118.374 37.76 116.539C32.7205 113.87 27.8633 113.209 25.1813 108C25.1475 107.934 25.0967 107.88 25.0346 107.844C24.9725 107.807 24.9016 107.79 24.8302 107.793C24.7588 107.796 24.6896 107.82 24.6307 107.861C24.5718 107.903 24.5256 107.962 24.4973 108.029C23.3478 111.491 22.9576 115.173 23.355 118.81C23.7523 122.447 24.9272 125.946 26.7948 129.056C16.8152 133.228 11.686 141.647 7.55307 143.365C7.48013 143.395 7.41805 143.448 7.37537 143.516C7.3327 143.584 7.31153 143.664 7.31478 143.745C7.31803 143.826 7.34554 143.904 7.39353 143.969C7.44151 144.033 7.50761 144.08 7.58271 144.104C10.2564 144.941 12.881 145.937 15.4434 147.087C16.7643 147.776 21.7028 149.032 27.3123 149.031C33.9182 149.031 41.4552 147.29 45.1085 140.832C45.1335 140.788 45.1498 140.738 45.1564 140.687C45.163 140.636 45.1597 140.584 45.1468 140.534C45.1339 140.484 45.1116 140.437 45.0811 140.396C45.0507 140.355 45.0127 140.321 44.9694 140.295Z" fill="black"/>
<path d="M44.8569 138.858C44.7763 138.779 36.6033 131.132 19.6401 141.605C19.6046 141.628 19.5771 141.661 19.5618 141.701C19.5464 141.741 19.5442 141.785 19.5553 141.826C19.5664 141.867 19.5903 141.904 19.6233 141.93C19.6563 141.956 19.6967 141.97 19.7382 141.97C19.8392 141.97 39.4351 133.27 44.6236 140.75C44.6473 140.784 44.681 140.809 44.7198 140.822C44.7585 140.835 44.8002 140.835 44.8387 140.821C44.8773 140.808 44.9106 140.782 44.9339 140.747C44.9571 140.713 44.969 140.672 44.9679 140.63C44.9139 138.876 44.9367 138.935 44.8569 138.858Z" fill="white"/>
<path fill-rule="evenodd" clip-rule="evenodd" d="M129.447 138.476C126 141.259 118.883 139.557 118.883 139.557V133.874C118.883 133.874 126.265 116.812 139.993 118.715C138.703 119.255 137.573 120.136 136.716 121.268C135.858 122.401 135.303 123.745 135.106 125.168C134.276 130.235 132.894 135.693 129.447 138.476Z" fill="#81F8F8"/>
<path d="M129.448 138.869C129.369 138.869 129.291 138.844 129.227 138.796C129.162 138.749 129.114 138.682 129.088 138.605C129.062 138.527 129.06 138.444 129.083 138.365C129.105 138.287 129.151 138.217 129.213 138.167C132.66 135.384 133.974 129.723 134.734 125.102C134.911 123.851 135.351 122.654 136.023 121.597C136.694 120.539 137.582 119.646 138.623 118.979C126.152 118.336 119.303 133.872 119.233 134.034C119.212 134.081 119.183 134.124 119.147 134.159C119.111 134.194 119.068 134.222 119.022 134.241C118.975 134.259 118.925 134.268 118.875 134.266C118.826 134.265 118.776 134.253 118.731 134.232C118.685 134.211 118.644 134.181 118.61 134.144C118.576 134.106 118.549 134.062 118.531 134.014C118.513 133.966 118.505 133.915 118.506 133.863C118.507 133.812 118.519 133.761 118.539 133.714C118.615 133.54 126.2 116.402 140.047 118.328C140.132 118.34 140.211 118.381 140.27 118.445C140.33 118.509 140.367 118.592 140.375 118.68C140.383 118.768 140.361 118.857 140.314 118.931C140.268 119.006 140.198 119.061 140.116 119.089C138.888 119.602 137.813 120.44 137 121.519C136.187 122.599 135.664 123.881 135.484 125.236C134.7 129.996 133.334 135.838 129.681 138.788C129.614 138.841 129.532 138.869 129.448 138.869Z" fill="black"/>
<path d="M127.891 124.64C121.169 129.077 118.726 138.87 118.701 138.968C118.537 139.652 120.281 138.613 120.303 138.534C121.752 133.396 124.442 128.723 128.12 124.954C128.16 124.923 128.187 124.876 128.194 124.824C128.201 124.773 128.188 124.72 128.158 124.679C128.127 124.637 128.082 124.61 128.032 124.602C127.982 124.595 127.932 124.609 127.891 124.64Z" fill="white"/>
<path fill-rule="evenodd" clip-rule="evenodd" d="M118.803 11.2648C118.803 10.3501 118.629 9.44429 118.29 8.59918C117.951 7.75406 117.455 6.98617 116.828 6.33936C116.202 5.69255 115.459 5.17949 114.641 4.82949C113.822 4.47949 112.945 4.2994 112.06 4.2995H51.4696C49.6811 4.2995 47.9658 5.03334 46.7012 6.33959C45.4365 7.64584 44.7261 9.41749 44.7261 11.2648V139.769C44.7263 141.616 45.4368 143.388 46.7015 144.694C47.9661 146 49.6812 146.734 51.4696 146.734H112.06C113.848 146.734 115.563 146 116.828 144.694C118.093 143.388 118.803 141.616 118.803 139.769V11.2648Z" fill="white"/>
<path fill-rule="evenodd" clip-rule="evenodd" d="M118.803 13.641V11.2648C118.803 10.3501 118.629 9.44429 118.29 8.59918C117.951 7.75406 117.455 6.98617 116.828 6.33936C116.202 5.69255 115.459 5.17949 114.641 4.82949C113.822 4.47949 112.945 4.2994 112.06 4.2995H51.4696C49.6811 4.2995 47.9658 5.03334 46.7012 6.33959C45.4365 7.64584 44.7261 9.41749 44.7261 11.2648V13.641H118.803Z" fill="#FFD997"/>
<path fill-rule="evenodd" clip-rule="evenodd" d="M118.803 137.395V139.771C118.803 140.686 118.629 141.591 118.29 142.436C117.951 143.281 117.454 144.049 116.828 144.696C116.202 145.343 115.459 145.856 114.64 146.205C113.822 146.555 112.945 146.735 112.06 146.735H51.4696C49.6812 146.735 47.9661 146.002 46.7015 144.696C45.4368 143.389 44.7263 141.618 44.7261 139.771V137.395H118.803Z" fill="#FFD997"/>
<path d="M77.521 8.72061C77.521 9.31855 77.7481 9.892 78.1523 10.3148C78.5565 10.7376 79.1047 10.9751 79.6764 10.9751C80.248 10.9751 80.7962 10.7376 81.2004 10.3148C81.6046 9.892 81.8317 9.31855 81.8317 8.72061C81.8317 8.12268 81.6046 7.54923 81.2004 7.12643C80.7962 6.70362 80.248 6.46609 79.6764 6.46609C79.1047 6.46609 78.5565 6.70362 78.1523 7.12643C77.7481 7.54923 77.521 8.12268 77.521 8.72061Z" fill="white"/>
<path d="M88.4829 8.72062C88.4829 8.87824 88.5126 9.03432 88.5703 9.17994C88.6279 9.32556 88.7125 9.45788 88.819 9.56934C88.9256 9.68079 89.0521 9.7692 89.1913 9.82952C89.3306 9.88984 89.4798 9.92089 89.6305 9.92089C89.7812 9.92089 89.9304 9.88984 90.0697 9.82952C90.2089 9.7692 90.3354 9.68079 90.442 9.56934C90.5485 9.45788 90.6331 9.32556 90.6907 9.17994C90.7484 9.03432 90.7781 8.87824 90.7781 8.72062C90.7781 8.563 90.7484 8.40692 90.6907 8.2613C90.6331 8.11568 90.5485 7.98336 90.442 7.8719C90.3354 7.76045 90.2089 7.67204 90.0697 7.61172C89.9304 7.5514 89.7812 7.52036 89.6305 7.52036C89.4798 7.52036 89.3306 7.5514 89.1913 7.61172C89.0521 7.67204 88.9256 7.76045 88.819 7.8719C88.7125 7.98336 88.6279 8.11568 88.5703 8.2613C88.5126 8.40692 88.4829 8.563 88.4829 8.72062Z" fill="white"/>
<path d="M79.6766 11.3645C79.1684 11.3703 78.67 11.2199 78.2447 10.9324C77.8194 10.6449 77.4865 10.2334 77.2882 9.75007C77.0899 9.26674 77.0351 8.73342 77.1309 8.21788C77.2267 7.70233 77.4686 7.22783 77.8261 6.85465C78.1835 6.48146 78.6403 6.22645 79.1384 6.12199C79.6364 6.01754 80.1533 6.06836 80.6234 6.26801C81.0934 6.46765 81.4954 6.80711 81.7782 7.24325C82.0611 7.67939 82.212 8.19253 82.2119 8.71748C82.2147 9.41552 81.9494 10.0862 81.4741 10.5824C80.9988 11.0787 80.3524 11.3599 79.6766 11.3645ZM79.6766 6.85467C79.3187 6.84891 78.9673 6.95324 78.6671 7.15439C78.3668 7.35555 78.1313 7.64442 77.9904 7.98426C77.8496 8.32409 77.8099 8.69952 77.8763 9.06276C77.9426 9.426 78.1121 9.76063 78.3632 10.0241C78.6143 10.2875 78.9355 10.4678 79.2861 10.5421C79.6367 10.6163 80.0008 10.5812 80.332 10.4411C80.6631 10.301 80.9465 10.0623 81.1459 9.75535C81.3454 9.44842 81.4519 9.08713 81.4519 8.71748C81.4541 8.22804 81.2686 7.75761 80.9359 7.4091C80.6032 7.06059 80.1504 6.86237 79.6766 6.85781V6.85467Z" fill="black"/>
<path d="M89.6305 10.3134C89.3249 10.3165 89.0253 10.2257 88.7697 10.0526C88.5141 9.87951 88.3141 9.63185 88.195 9.3411C88.076 9.05035 88.0433 8.72961 88.101 8.41962C88.1588 8.10963 88.3045 7.82436 88.5195 7.60003C88.7345 7.37571 89.0093 7.22244 89.3088 7.1597C89.6083 7.09696 89.9192 7.12758 90.2018 7.24765C90.4845 7.36773 90.7262 7.57186 90.8964 7.83411C91.0665 8.09637 91.1573 8.40493 91.1573 8.72062C91.1587 9.14078 90.9988 9.54437 90.7126 9.84294C90.4264 10.1415 90.0373 10.3107 89.6305 10.3134ZM89.6305 7.91285C89.4752 7.90973 89.3225 7.95445 89.1919 8.04129C89.0614 8.12813 88.9588 8.25317 88.8972 8.40047C88.8357 8.54776 88.818 8.71065 88.8465 8.86836C88.8749 9.02607 88.9482 9.17146 89.0569 9.28601C89.1656 9.40055 89.3049 9.47906 89.457 9.51152C89.6091 9.54398 89.7672 9.52893 89.9109 9.46828C90.0547 9.40763 90.1778 9.30413 90.2644 9.17098C90.351 9.03782 90.3973 8.88104 90.3973 8.72062C90.3985 8.6154 90.3796 8.51097 90.3417 8.4133C90.3039 8.31563 90.2477 8.22663 90.1765 8.15139C90.1053 8.07615 90.0204 8.01615 89.9267 7.97481C89.833 7.93348 89.7323 7.91163 89.6305 7.9105V7.91285Z" fill="black"/>
<path d="M119.183 11.2648C119.181 9.31416 118.43 7.444 117.094 6.06462C115.759 4.68524 113.948 3.90928 112.06 3.907H51.4697C49.5811 3.90928 47.7705 4.68521 46.4351 6.06457C45.0996 7.44393 44.3484 9.31409 44.3462 11.2648V139.769C44.3482 141.72 45.0994 143.59 46.4348 144.97C47.7703 146.349 49.581 147.125 51.4697 147.127H112.06C113.948 147.125 115.759 146.349 117.094 144.97C118.43 143.59 119.181 141.72 119.183 139.769C119.184 72.83 119.185 11.3449 119.183 11.2648ZM45.1062 11.2648C45.108 9.52216 45.779 7.85143 46.972 6.61919C48.165 5.38696 49.7825 4.69387 51.4697 4.692H112.06C113.747 4.69387 115.364 5.38698 116.557 6.61924C117.75 7.8515 118.421 9.52223 118.423 11.2648V13.2485H45.1062V11.2648ZM118.423 14.0335V137.003H45.1062V14.0335H118.423ZM112.06 146.345H51.4697C49.7825 146.343 48.165 145.65 46.972 144.418C45.779 143.186 45.108 141.515 45.1062 139.772V137.79H118.423V139.772C118.421 141.515 117.75 143.185 116.557 144.417C115.364 145.649 113.747 146.342 112.06 146.344V146.345Z" fill="black"/>
<path d="M34.979 48.0774C34.979 54.567 37.4436 60.7909 41.8306 65.3797C46.2176 69.9686 52.1676 72.5466 58.3718 72.5466C64.576 72.5466 70.526 69.9686 74.913 65.3797C79.3 60.7909 81.7646 54.567 81.7646 48.0774C81.7646 41.5877 79.3 35.3639 74.913 30.775C70.526 26.1861 64.576 23.6081 58.3718 23.6081C52.1676 23.6081 46.2176 26.1861 41.8306 30.775C37.4436 35.3639 34.979 41.5877 34.979 48.0774Z" fill="white"/>
<path fill-rule="evenodd" clip-rule="evenodd" d="M58.3718 23.218C39.6606 23.218 28.3685 44.8534 38.2318 61.2685C38.2494 61.3141 38.2752 61.3559 38.3078 61.3917C40.4304 64.9155 43.3853 67.8241 46.8949 69.8444C50.4046 71.8648 54.3539 72.9305 58.3718 72.9415C64.7087 72.8679 70.7619 70.2162 75.2178 65.5617C79.6736 60.9072 82.1728 54.6255 82.1728 48.0797C82.1728 41.534 79.6736 35.2523 75.2178 30.5978C70.7619 25.9433 64.7087 23.2915 58.3718 23.218ZM70.0294 68.8265C67.5876 70.337 64.8923 71.3591 62.0844 71.8393C62.4621 69.4083 62.6934 66.9555 62.7767 64.4949C65.2464 64.4064 67.6992 64.0379 70.091 63.3959C70.4479 65.1897 70.4269 67.0418 70.0294 68.8265ZM49.2875 62.3353C49.0408 61.3212 48.5855 60.3738 47.9524 59.5578C47.3194 58.7417 46.5235 58.0762 45.619 57.6065C47.0409 56.7822 50.559 54.8951 53.1749 54.7711C59.7785 54.4657 65.1137 57.714 69.6669 62.6996C60.8296 65.0734 50.8827 62.7412 49.2875 62.3353ZM49.248 70.1767C49.7814 67.8881 49.8633 65.5121 49.4889 63.1902C53.5982 64.1485 57.8039 64.595 62.016 64.52C61.9293 67.0105 61.6886 69.4927 61.2955 71.9516C57.1981 72.5097 53.031 71.8957 49.248 70.1767ZM74.8303 64.8819C75.3563 60.0934 71.139 57.163 67.0951 59.1514C62.7418 55.4956 58.0716 53.7545 53.1407 53.99C49.8978 54.1431 45.5787 56.7092 44.7298 57.232C41.9763 56.2704 39.7852 57.6245 38.5297 60.2559C29.6103 44.4067 40.4981 24.003 58.3718 24.003C62.9263 24.073 67.3615 25.5169 71.1317 28.1571C74.9019 30.7972 77.8425 34.5183 79.5915 38.8625C81.3406 43.2066 81.8217 47.9842 80.9758 52.6072C80.1298 57.2301 77.9937 61.4967 74.8303 64.8819Z" fill="black"/>
<path fill-rule="evenodd" clip-rule="evenodd" d="M52.6847 49.9213L51.5112 55.6903C51.5112 55.6903 51.686 60.5573 56.2149 60.5683C60.7437 60.5793 61.658 58.1607 61.658 58.1607L62.4058 55.6903L59.6014 55.2444L52.6847 49.9213Z" fill="#81F8F8"/>
<path fill-rule="evenodd" clip-rule="evenodd" d="M52.685 49.9213L59.601 55.2444L59.1852 47.6888L56.9584 43.9624C56.9584 43.9624 59.8464 40.7078 59.9984 40.0523C60.2363 39.204 60.2952 38.3129 60.1713 37.4391C60.0473 36.5653 59.7434 35.7291 59.2799 34.987C58.8165 34.2448 58.2043 33.614 57.4847 33.137C56.7651 32.66 55.9549 32.348 55.1086 32.222C51.2812 34.9388 51.7844 42.2205 52.685 49.9213Z" fill="#81F8F8"/>
<path fill-rule="evenodd" clip-rule="evenodd" d="M59.6016 55.246L63.4077 55.7225L68.4107 46.0803L67.8559 43.829L68.7163 40.9535C68.7163 40.9535 70.6254 35.8777 67.3528 33.2299C64.0803 30.5821 59.1159 29.0851 55.1069 32.2235C58.8203 33.1302 60.5029 35.6995 59.9945 40.0649L56.9591 43.964L59.1859 47.6904L59.6016 55.246Z" fill="white"/>
<path d="M64.9611 43.3187C64.9162 43.225 64.8372 43.1536 64.7413 43.1201C64.6455 43.0866 64.5407 43.0938 64.45 43.1401C64.3593 43.1864 64.2901 43.2681 64.2577 43.3671C64.2252 43.4661 64.2322 43.5744 64.2771 43.668C64.7171 44.5826 65.2096 46.0921 64.9254 46.5867C64.8866 46.6534 64.8212 46.7233 64.6214 46.7311C63.7139 46.7672 63.4814 46.5867 63.4388 46.5419C63.4388 46.4506 63.408 46.3622 63.3516 46.2919C63.2953 46.2215 63.217 46.1736 63.1302 46.1565C62.7062 46.078 62.5048 46.6236 62.8566 47.0475C63.1095 47.2463 63.3986 47.3905 63.7067 47.4714C64.0147 47.5523 64.3353 47.5683 64.6495 47.5185C66.4104 47.4478 65.7401 44.9366 64.9611 43.3187Z" fill="black"/>
<path d="M66.0551 48.0546C65.6629 48.0004 64.5594 47.9761 61.1219 47.7445C61.0711 47.7416 61.0202 47.7492 60.9722 47.767C60.9243 47.7847 60.8803 47.8122 60.8429 47.8479C60.8055 47.8836 60.7754 47.9266 60.7544 47.9745C60.7334 48.0225 60.7219 48.0742 60.7206 48.1268C60.6804 49.8052 61.508 51.4717 63.2248 51.4717C65.384 51.4717 66.3287 48.6677 66.369 48.5452C66.3892 48.4915 66.3966 48.4336 66.3907 48.3764C66.3847 48.3191 66.3656 48.2641 66.3348 48.2161C66.3041 48.168 66.2627 48.1283 66.214 48.1002C66.1653 48.0721 66.1108 48.0565 66.0551 48.0546ZM63.0911 50.682C61.8538 50.5894 61.5673 49.247 61.5019 48.5531L65.4486 48.7799C65.1028 49.5045 64.3154 50.7715 63.0888 50.682H63.0911Z" fill="black"/>
<path d="M60.1748 43.0761C60.1748 43.3297 60.2723 43.5729 60.4459 43.7522C60.6195 43.9315 60.855 44.0323 61.1005 44.0323C61.346 44.0323 61.5814 43.9315 61.755 43.7522C61.9286 43.5729 62.0262 43.3297 62.0262 43.0761C62.0262 42.8226 61.9286 42.5794 61.755 42.4001C61.5814 42.2207 61.346 42.12 61.1005 42.12C60.855 42.12 60.6195 42.2207 60.4459 42.4001C60.2723 42.5794 60.1748 42.8226 60.1748 43.0761Z" fill="black"/>
<path d="M65.9268 43.7834C65.9268 43.909 65.9507 44.0333 65.9972 44.1493C66.0437 44.2653 66.1119 44.3707 66.1979 44.4595C66.2838 44.5483 66.3859 44.6187 66.4982 44.6668C66.6105 44.7148 66.7309 44.7396 66.8524 44.7396C66.974 44.7396 67.0944 44.7148 67.2067 44.6668C67.319 44.6187 67.421 44.5483 67.507 44.4595C67.5929 44.3707 67.6611 44.2653 67.7077 44.1493C67.7542 44.0333 67.7781 43.909 67.7781 43.7834C67.7781 43.5298 67.6806 43.2867 67.507 43.1073C67.3334 42.928 67.0979 42.8273 66.8524 42.8273C66.6069 42.8273 66.3715 42.928 66.1979 43.1073C66.0243 43.2867 65.9268 43.5298 65.9268 43.7834Z" fill="black"/>
<path d="M52.3707 38.3167C50.3241 38.3167 48.6597 40.4519 48.6597 43.0761C48.6597 45.7004 50.3241 47.8364 52.3707 47.8364C54.4174 47.8364 56.0826 45.7012 56.0826 43.0761C56.0826 40.4511 54.4174 38.3167 52.3707 38.3167Z" fill="black"/>
<path d="M51.3545 42.1444L48.6945 42.175L48.376 36.983L47.3447 36.9626L47.002 43.9954H51.3545V42.1444Z" fill="white"/>
<path d="M51.6322 41.8657C51.4802 41.7087 51.462 41.7503 49.0482 41.7785L48.783 37.4516C48.977 37.252 49.1082 36.9966 49.1596 36.7188C49.211 36.441 49.1801 36.1536 49.0709 35.8942C48.9618 35.6348 48.7795 35.4154 48.5478 35.2647C48.3161 35.1139 48.0458 35.0388 47.7721 35.0491C47.4984 35.0595 47.2342 35.1548 47.0137 35.3226C46.7933 35.4905 46.627 35.723 46.5365 35.99C46.446 36.2569 46.4355 36.5459 46.5064 36.8191C46.5773 37.0923 46.7263 37.3371 46.9339 37.5215L46.6192 43.9875C46.6156 44.0404 46.6229 44.0934 46.6406 44.1432C46.6583 44.1929 46.6861 44.2382 46.722 44.2761C46.7579 44.3139 46.8012 44.3434 46.849 44.3627C46.8968 44.382 46.948 44.3906 46.9992 44.3879H51.3533C51.4546 44.3844 51.5507 44.3407 51.6215 44.2658C51.6923 44.1909 51.7324 44.0906 51.7333 43.986C51.7447 41.9881 51.7758 42.0125 51.6322 41.8657ZM50.9771 43.6029H47.4051L47.6855 37.852C47.807 37.8743 47.9316 37.8711 48.0518 37.8425L48.3186 42.2001C48.3263 42.2992 48.3696 42.3917 48.4398 42.4597C48.5101 42.5276 48.6024 42.566 48.6986 42.5675L50.9786 42.5416L50.9771 43.6029Z" fill="black"/>
<path d="M69.4818 39.5334C69.8162 37.7358 69.9082 34.7968 67.5871 32.9198C63.5964 29.6888 58.6191 28.8119 54.522 32.1898C50.0744 35.8589 51.9273 46.2067 52.0565 46.8975L52.3012 49.8962C51.0624 55.9925 51.1293 55.6267 51.1324 55.7052C51.1324 55.7578 51.3763 60.9482 56.2137 60.9647H56.2472C60.9531 60.9647 61.9715 58.4158 62.0232 58.2816L62.7072 56.0318L63.3623 56.1095C63.4381 56.1189 63.515 56.1044 63.5828 56.068C63.6506 56.0316 63.7062 55.9749 63.7423 55.9054C69.1869 45.4249 68.8343 46.1981 68.778 45.9806L68.5766 45.1635H69.747C69.8387 45.1634 69.9273 45.1292 69.9964 45.067C70.0655 45.0048 70.1106 44.9189 70.1232 44.8251L70.564 41.565C70.7336 41.5182 70.8906 41.4322 71.0232 41.3134C71.1558 41.1947 71.2605 41.0463 71.3294 40.8796C71.3982 40.7129 71.4295 40.5321 71.4207 40.3511C71.412 40.1701 71.3634 39.9934 71.2788 39.8346C71.1942 39.6758 71.0757 39.539 70.9323 39.4345C70.7889 39.33 70.6243 39.2606 70.4511 39.2315C70.2779 39.2024 70.1005 39.2144 69.9325 39.2666C69.7644 39.3187 69.61 39.4097 69.481 39.5327L69.4818 39.5334ZM67.119 33.5376C69.6536 35.588 68.8145 39.3011 68.471 40.4668C65.8606 39.6746 63.1345 39.3689 60.4203 39.5641C60.8528 35.3894 58.9383 32.8916 55.9538 32.1066C60.8049 29.0058 65.6734 32.3672 67.119 33.5376ZM54.9947 32.8036C55.0258 32.7777 55.057 32.7558 55.0882 32.7306C56.4508 32.911 57.7018 33.6018 58.6039 34.6719C59.5805 35.9224 59.9233 37.6691 59.6246 39.8655C58.7875 41.2438 57.806 42.5227 56.6978 43.679C56.634 43.7406 56.5927 43.823 56.5808 43.9123C56.5689 44.0017 56.5871 44.0926 56.6325 44.1697L58.7947 47.8411L59.1747 54.4257L53.0491 49.7118C52.8431 47.1833 52.8211 46.8559 52.8066 46.7672C52.7907 46.662 50.8519 36.2223 54.9947 32.8036ZM61.3027 58.0139C61.267 58.1026 60.3907 60.1758 56.2449 60.1758H56.213C52.2868 60.1656 51.9212 56.2202 51.8908 55.7209L52.9313 50.6027C59.8017 55.8905 59.4103 55.6165 59.5532 55.6346L61.932 55.9321L61.3027 58.0139ZM68.0059 46.0277L63.1958 55.2986L59.962 54.8943C59.506 47.0742 59.563 47.6401 59.4901 47.5153L57.4381 44.0291C58.4777 42.908 59.4065 41.6826 60.2106 40.371C62.9131 40.1461 65.6328 40.4318 68.2362 41.2141L67.4891 43.7096C67.4473 43.8635 67.4534 43.785 68.0059 46.0277ZM68.9939 43.3909H68.3859C68.3859 43.3909 69.12 40.9645 69.1717 40.8004C69.2536 41.0493 69.4122 41.2635 69.6232 41.4104L68.9939 43.3909Z" fill="black"/>
<path d="M85.5625 107.233C85.5625 110.447 86.1676 113.629 87.3432 116.597C88.5188 119.566 90.2419 122.264 92.4141 124.536C94.5863 126.808 97.1651 128.61 100.003 129.84C102.841 131.07 105.883 131.703 108.955 131.703C112.027 131.703 115.069 131.07 117.907 129.84C120.745 128.61 123.324 126.808 125.497 124.536C127.669 122.264 129.392 119.566 130.567 116.597C131.743 113.629 132.348 110.447 132.348 107.233C132.348 104.02 131.743 100.838 130.567 97.8694C129.392 94.9007 127.669 92.2032 125.497 89.931C123.324 87.6589 120.745 85.8565 117.907 84.6268C115.069 83.3971 112.027 82.7642 108.955 82.7642C105.883 82.7642 102.841 83.3971 100.003 84.6268C97.1651 85.8565 94.5863 87.6589 92.4141 89.931C90.2419 92.2032 88.5188 94.9007 87.3432 97.8694C86.1676 100.838 85.5625 104.02 85.5625 107.233Z" fill="white"/>
<path fill-rule="evenodd" clip-rule="evenodd" d="M102.384 91.2657C102.384 91.2657 99.5719 93.4111 100.056 96.4554C99.3977 96.6657 98.8256 97.0959 98.4296 97.6785C98.0336 98.261 97.836 98.9628 97.868 99.6739C97.9539 102.232 98.4844 105.187 98.3582 106.828C98.232 108.468 98.9981 110.267 101.522 110.544L100.056 114.357C100.056 114.357 91.3989 113.114 89.8135 116.473C89.2903 117.507 88.9871 118.645 88.9243 119.81C97.3808 133.909 115.95 136.72 127.563 122.013C127.563 122.013 126.626 116.985 118.306 115.699L113.415 115.205L114.332 107.92C114.332 107.92 119.929 107.418 118.034 103.318C118.034 103.318 120.314 94.1286 115.349 91.2681C110.384 88.4075 102.384 91.2657 102.384 91.2657Z" fill="#FFD997"/>
<path fill-rule="evenodd" clip-rule="evenodd" d="M101.162 125.478C101.162 125.478 105.256 127.692 107.722 126.453L110.226 131.641C106.603 131.88 102.976 131.231 99.6421 129.745L101.162 125.478Z" fill="white"/>
<path fill-rule="evenodd" clip-rule="evenodd" d="M98.7814 108.931C97.6334 111.171 96.1791 113.23 94.463 115.043C92.0394 117.378 90.9511 121.449 91.2102 123.179C93.5088 126.051 96.4535 128.297 99.7868 129.721C99.7868 129.721 102.603 122.365 102.198 118.363C101.949 115.798 101.834 113.222 101.853 110.644C101.239 110.674 100.628 110.53 100.087 110.228C99.5454 109.927 99.0941 109.478 98.7814 108.931Z" fill="#81F8F8"/>
<path fill-rule="evenodd" clip-rule="evenodd" d="M112.401 90.4179C111.113 90.9829 109.698 91.1601 108.317 90.9289C105.961 90.5545 103.265 90.4289 101.279 92.3961C101.535 91.459 101.97 90.5841 102.558 89.823C103.146 89.0619 103.876 88.4299 104.703 87.964C107.523 86.3728 112.446 85.4088 115.359 88.8911C115.359 88.8911 121.227 89.5513 120.723 95.6358C120.288 100.895 118.005 103.315 118.005 103.315C117.367 103.032 116.661 102.957 115.981 103.103C115.301 103.248 114.681 103.606 114.205 104.128C114.205 104.128 113.236 99.4674 115.356 97.2458C115.359 97.2435 111.226 93.6898 112.401 90.4179Z" fill="#81F8F8"/>
<path d="M103.32 94.9207C103.241 94.9207 103.163 94.8953 103.099 94.8479C103.035 94.8004 102.986 94.7334 102.96 94.6561C102.751 94.0281 102.462 93.6608 102.098 93.5571C101.848 93.5303 101.594 93.5577 101.355 93.6376C101.115 93.7175 100.894 93.8481 100.705 94.0211C100.628 94.0851 100.53 94.1155 100.431 94.1058C100.333 94.0961 100.242 94.047 100.178 93.9691C100.114 93.8912 100.082 93.7905 100.088 93.6885C100.095 93.5865 100.14 93.4912 100.214 93.4229C100.496 93.1691 100.829 92.9815 101.189 92.8731C101.548 92.7647 101.926 92.738 102.297 92.7949C102.639 92.9206 102.944 93.133 103.186 93.4127C103.428 93.6924 103.597 94.0304 103.679 94.3955C103.7 94.4549 103.706 94.5186 103.698 94.5811C103.69 94.6437 103.667 94.7033 103.632 94.7548C103.597 94.8063 103.55 94.8483 103.495 94.8772C103.441 94.9061 103.381 94.921 103.32 94.9207Z" fill="black"/>
<path d="M112.07 98.483C111.994 98.483 111.92 98.4595 111.857 98.4156C111.795 98.3716 111.746 98.3093 111.718 98.2365C111.535 97.6472 111.236 97.1037 110.838 96.6407C110.441 96.1777 109.954 95.8055 109.41 95.5479C108.415 95.2035 107.332 95.251 106.37 95.6814C106.28 95.7185 106.18 95.719 106.09 95.6828C106 95.6466 105.927 95.5765 105.885 95.4866C105.844 95.3967 105.837 95.2938 105.866 95.1988C105.895 95.1037 105.958 95.0237 106.042 94.9749C107.191 94.4497 108.49 94.3936 109.678 94.8179C110.322 95.1114 110.9 95.5418 111.373 96.081C111.846 96.6203 112.204 97.2562 112.423 97.9476C112.445 98.007 112.454 98.0712 112.447 98.1346C112.44 98.1979 112.418 98.2586 112.383 98.3113C112.349 98.364 112.302 98.4072 112.247 98.4371C112.193 98.4671 112.132 98.4828 112.07 98.483Z" fill="black"/>
<path fill-rule="evenodd" clip-rule="evenodd" d="M101.042 94.9144C101.446 94.937 101.832 95.0947 102.143 95.3636C102.453 95.6326 102.67 95.9984 102.762 96.4059C102.212 96.6145 101.616 96.6597 101.042 96.5362V94.9144Z" fill="white"/>
<path fill-rule="evenodd" clip-rule="evenodd" d="M107.228 96.7796C107.228 96.7796 108.861 96.665 110.226 98.9587C109.252 98.8761 108.287 98.6976 107.345 98.4257L107.228 96.7796Z" fill="white"/>
<path d="M101.385 101.301C99.2633 100.099 99.1576 98.7193 101.393 97.5198C101.817 97.3395 102.197 97.0656 102.508 96.7172C102.818 96.3688 103.051 95.9544 103.189 95.5032C103.208 95.4013 103.265 95.3112 103.347 95.2523C103.43 95.1935 103.532 95.1708 103.63 95.1892C103.728 95.2074 103.816 95.2648 103.873 95.3489C103.931 95.4331 103.954 95.5373 103.938 95.639C103.782 96.2108 103.504 96.7393 103.124 97.1856C102.744 97.6318 102.272 97.9845 101.743 98.2177C100.957 98.6392 100.523 99.0537 100.519 99.3858C100.519 99.5828 100.671 100.004 101.751 100.614C101.835 100.666 101.897 100.75 101.923 100.848C101.949 100.946 101.937 101.05 101.889 101.14C101.842 101.229 101.763 101.295 101.669 101.325C101.575 101.356 101.473 101.347 101.385 101.301Z" fill="black"/>
<path fill-rule="evenodd" clip-rule="evenodd" d="M105.136 104.866C103.134 104.541 101.243 103.697 99.6424 102.412C99.5161 102.945 99.4972 103.499 99.5869 104.04C99.7625 104.686 100.97 105.263 101.567 105.368C102.768 105.295 103.961 105.127 105.136 104.866Z" fill="white"/>
<path d="M105.221 104.484C102.966 103.949 102.365 102.303 100.708 102.114C100.268 102.066 99.8373 101.944 99.4347 101.753C99.3515 101.708 99.2552 101.697 99.1645 101.721C99.0737 101.745 98.9948 101.804 98.9431 101.884C98.8913 101.965 98.8702 102.063 98.884 102.159C98.8977 102.254 98.9453 102.342 99.0175 102.403C99.0897 102.465 99.1657 102.521 99.2387 102.581C99.0107 104.795 99.7 105.968 103.093 105.546C103.169 105.537 105.129 105.298 105.205 105.246C105.288 105.227 105.362 105.179 105.416 105.112C105.47 105.044 105.5 104.959 105.502 104.871C105.504 104.783 105.477 104.697 105.426 104.627C105.375 104.557 105.303 104.506 105.221 104.484ZM100.03 103.987C99.9683 103.704 99.9458 103.414 99.9629 103.124C100.982 103.816 102.089 104.358 103.252 104.736C102.164 104.872 100.328 105.086 100.03 103.987Z" fill="black"/>
<path d="M99.1361 106.501C98.9859 106.353 98.8663 106.176 98.7847 105.979C98.703 105.782 98.661 105.57 98.6611 105.356C98.6661 105.252 98.7108 105.154 98.7856 105.084C98.8604 105.014 98.959 104.977 99.0598 104.982C99.1605 104.988 99.2552 105.034 99.323 105.111C99.3908 105.188 99.4261 105.29 99.4211 105.394C99.4354 105.614 99.5329 105.818 99.6925 105.964C99.9714 106.244 100.59 106.562 101.96 106.491C102.01 106.487 102.06 106.494 102.108 106.511C102.155 106.528 102.199 106.555 102.236 106.59C102.273 106.624 102.303 106.666 102.324 106.713C102.346 106.76 102.357 106.811 102.359 106.863C102.362 106.914 102.355 106.966 102.338 107.015C102.321 107.063 102.295 107.108 102.262 107.146C102.228 107.185 102.188 107.216 102.142 107.238C102.097 107.26 102.048 107.273 101.998 107.275C101.495 107.349 100.983 107.319 100.492 107.186C100 107.053 99.5394 106.82 99.1361 106.501Z" fill="black"/>
<path d="M103.026 96.1084C102.504 94.6279 101.45 94.4269 100.963 94.529C100.9 94.5423 100.841 94.5726 100.792 94.6169C100.743 94.6611 100.706 94.7178 100.685 94.7813C100.664 94.8448 100.659 94.9129 100.672 94.9788C100.684 95.0447 100.713 95.1061 100.755 95.157C100.093 95.9639 101.019 97.041 101.737 96.402C101.903 96.2517 102.007 96.0422 102.03 95.8156C102.149 95.9874 102.243 96.1755 102.312 96.3745C102.346 96.4723 102.417 96.5521 102.508 96.5961C102.6 96.6401 102.704 96.6448 102.799 96.6092C102.894 96.5736 102.971 96.5006 103.013 96.4062C103.056 96.3119 103.061 96.2039 103.026 96.106V96.1084Z" fill="black"/>
<path d="M110.55 98.753C109.081 96.285 107.282 96.3815 107.203 96.3878C107.152 96.3913 107.103 96.4053 107.058 96.4289C107.013 96.4524 106.973 96.4851 106.941 96.525C106.908 96.5648 106.884 96.611 106.869 96.6609C106.854 96.7107 106.849 96.763 106.855 96.8149C106.681 96.9851 106.567 97.2102 106.532 97.4546C106.486 97.6516 106.501 97.8584 106.576 98.0457C106.65 98.2331 106.78 98.3914 106.946 98.4984C107.113 98.6054 107.308 98.6556 107.503 98.6418C107.699 98.6281 107.885 98.5511 108.036 98.4218C108.231 98.2456 108.358 98.0029 108.394 97.738C108.397 97.6707 108.395 97.6032 108.387 97.5363C109.016 97.9409 109.538 98.5006 109.907 99.1652C109.96 99.2523 110.045 99.3141 110.142 99.3372C110.24 99.3603 110.342 99.3429 110.427 99.2887C110.512 99.2345 110.573 99.148 110.597 99.0477C110.62 98.9474 110.605 98.8416 110.553 98.753H110.55Z" fill="black"/>
<path fill-rule="evenodd" clip-rule="evenodd" d="M114.263 107.825C114.263 107.825 112.735 110.555 109.869 114.884C107.002 119.213 106.632 128.681 109.869 131.648C112.896 131.511 115.871 130.778 118.633 129.489C118.633 129.489 120.568 122.804 119.597 119.326C118.625 115.849 115.764 111.237 116.965 107.219C116.135 107.674 115.2 107.883 114.263 107.825Z" fill="#81F8F8"/>
<path d="M108.955 82.3717C103.671 82.4493 98.5588 84.3169 94.403 87.6874C90.2471 91.0578 87.2779 95.7447 85.9515 101.028C84.6251 106.31 85.015 111.897 87.0613 116.929C89.1076 121.961 92.697 126.159 97.278 128.879C112.91 138.142 132.728 126.375 132.728 107.236C132.761 100.684 130.276 94.3874 125.819 89.726C121.362 85.0647 115.297 82.4198 108.955 82.3717ZM108.955 83.1567C113.207 83.2206 117.362 84.483 120.971 86.8076C124.58 89.1322 127.506 92.4307 129.433 96.347C131.36 100.263 132.215 104.649 131.905 109.03C131.596 113.412 130.133 117.623 127.676 121.209C125.949 116.587 119.004 115.309 118.696 115.255C118.638 115.248 118.579 115.253 118.523 115.273C117.524 112.688 116.581 109.862 117.323 107.353C117.676 107.195 117.992 106.959 118.248 106.662C118.504 106.365 118.693 106.013 118.803 105.632C118.912 105.251 118.94 104.849 118.883 104.456C118.826 104.063 118.686 103.687 118.474 103.356C119.051 102.629 120.729 100.167 121.1 95.6696C121.582 89.8449 116.504 88.6894 115.552 88.5261C112.692 85.2432 107.847 85.744 104.521 87.621C103.66 88.1039 102.9 88.7578 102.284 89.5451C101.668 90.3324 101.209 91.2375 100.934 92.2085C100.015 93.3112 99.5514 94.7416 99.6416 96.1932C98.976 96.4726 98.4113 96.9592 98.0258 97.5853C97.6404 98.2115 97.4534 98.9462 97.4908 99.6872C97.5759 102.226 98.0987 105.218 97.9817 106.795C97.9168 107.529 98.0444 108.268 98.3511 108.933C97.4551 110.626 96.3962 112.222 95.1902 113.696C93.8202 113.68 92.4659 113.998 91.2382 114.627C90.5568 115.047 89.9725 115.616 89.5261 116.294C89.0798 116.972 88.7822 117.742 88.6542 118.552C80.5777 102.76 91.4594 83.1567 108.955 83.1567ZM110.013 131.254C106.957 128.23 107.546 119.086 110.182 115.105C112.582 111.48 114.063 108.944 114.474 108.228C115.135 108.238 115.792 108.124 116.414 107.892C115.707 111.863 118.325 116.193 119.231 119.432C120.074 122.452 118.609 128.129 118.319 129.198C115.695 130.402 112.881 131.099 110.014 131.254H110.013ZM107.301 126.201C105.373 126.942 102.503 125.698 101.616 125.27C103.408 118.639 102.201 119.129 102.229 110.994C105.578 111.206 111.036 110.753 113.033 107.951C113.247 108.002 113.463 108.041 113.68 108.069C113.138 109.004 111.729 111.378 109.555 114.663C107.73 117.418 106.863 122.211 107.302 126.201H107.301ZM91.5688 122.983C91.3971 121.256 92.5188 117.451 94.7206 115.331C96.3385 113.651 97.72 111.745 98.8246 109.668C99.5195 110.42 100.466 110.872 101.471 110.931C101.464 113.427 101.581 115.921 101.82 118.405C102.159 121.753 100.136 127.644 99.5739 129.195C96.4944 127.761 93.761 125.639 91.5703 122.982L91.5688 122.983ZM90.818 122.029C90.2515 121.274 89.729 120.485 89.2531 119.666C89.2919 119.156 89.5906 116.395 91.5856 115.322C92.4772 114.86 93.4487 114.584 94.4439 114.512C94.3633 114.59 94.2843 114.678 94.2022 114.756C92.313 116.717 91.1209 119.28 90.8195 122.028L90.818 122.029ZM101.569 92.6544C103.427 90.8387 105.992 90.9588 108.257 91.3199C109.459 91.5119 110.687 91.4212 111.85 91.0546C111.45 93.7895 113.941 96.4412 114.82 97.2812C112.926 99.706 113.795 104.024 113.832 104.214C113.846 104.281 113.877 104.343 113.922 104.394C113.966 104.445 114.023 104.483 114.086 104.504C114.149 104.526 114.217 104.529 114.282 104.515C114.347 104.501 114.407 104.47 114.457 104.424C116.292 102.729 118.766 103.225 118.056 105.458C117.676 106.645 115.409 107.803 113.064 107.153C112.976 107.119 112.879 107.114 112.788 107.14C112.697 107.166 112.616 107.221 112.557 107.297C110.652 110.41 103.808 110.402 101.559 110.154C98.7257 109.84 98.6802 107.554 98.7341 106.857C98.8481 105.358 98.3192 101.868 98.2447 99.6589C98.2136 99.0353 98.3847 98.4187 98.731 97.9069C99.0774 97.395 99.5791 97.0171 100.157 96.8329C100.246 96.8065 100.324 96.7469 100.373 96.6656C100.423 96.5842 100.443 96.4868 100.427 96.3918C100.351 95.7206 100.413 95.0402 100.61 94.3957C100.807 93.7513 101.134 93.1574 101.57 92.6536L101.569 92.6544ZM115.601 96.9452C115.561 96.9114 111.688 93.5273 112.755 90.5545C112.781 90.4809 112.785 90.4007 112.767 90.3245C112.749 90.2482 112.709 90.1793 112.653 90.1268C112.596 90.0742 112.526 90.0403 112.45 90.0295C112.375 90.0187 112.298 90.0315 112.23 90.0662C111.013 90.5939 109.676 90.7587 108.372 90.542C106.32 90.2162 104.04 90.0796 102.118 91.2485C102.734 90.005 103.698 88.9816 104.884 88.311C107.112 87.055 112.109 85.6106 115.068 89.1501C115.131 89.2252 115.219 89.2728 115.314 89.2836C115.538 89.3095 120.808 89.9673 120.341 95.6052C120.221 98.2122 119.371 100.727 117.894 102.844C117.322 102.643 116.712 102.589 116.116 102.688C115.52 102.786 114.956 103.034 114.474 103.409C114.306 102.098 114.12 99.0992 115.624 97.5214C115.661 97.4831 115.69 97.4373 115.709 97.3868C115.729 97.3364 115.737 97.2823 115.735 97.2281C115.733 97.1739 115.721 97.1207 115.698 97.0718C115.675 97.023 115.642 96.9796 115.602 96.9444L115.601 96.9452ZM100.266 129.523C100.484 128.925 100.944 127.62 101.401 126.033C103.138 126.86 105.594 127.603 107.416 126.999C107.607 128.552 108.168 130.033 109.05 131.307C106.036 131.324 103.05 130.718 100.267 129.523L100.266 129.523ZM119.217 128.773C119.704 126.855 120.757 122.068 119.96 119.216C119.638 118.154 119.264 117.109 118.84 116.085C120.15 116.368 126.043 117.866 127.132 121.973C125.02 124.823 122.316 127.147 119.218 128.774L119.217 128.773Z" fill="black"/>
<path d="M118.091 18.665H94.9288C92.9911 18.6673 91.1334 19.4634 89.7633 20.8787C88.3932 22.294 87.6226 24.2129 87.6206 26.2143V32.638C87.6228 34.6393 88.3935 36.558 89.7636 37.9731C91.1336 39.3882 92.9912 40.1843 94.9288 40.1866H99.4652C97.8191 44.0472 94.1452 46.8496 90.7252 49.0932C90.6512 49.1418 90.5958 49.2153 90.5683 49.3013C90.5408 49.3872 90.543 49.4804 90.5744 49.5649C90.6058 49.6494 90.6645 49.7202 90.7406 49.7651C90.8167 49.81 90.9055 49.8264 90.992 49.8114C98.744 48.4722 103.733 45.2341 105.835 40.1866H118.088C120.026 40.1843 121.883 39.3882 123.253 37.9731C124.624 36.558 125.394 34.6393 125.396 32.638V26.2112C125.394 24.2107 124.623 22.293 123.253 20.8784C121.884 19.4639 120.027 18.6679 118.091 18.665Z" fill="black"/>
<path d="M67.4528 84.0932H44.2911C42.3535 84.0955 40.4959 84.8915 39.1259 86.3066C37.7558 87.7217 36.9851 89.6404 36.9829 91.6417V98.0724C36.9851 100.074 37.7558 101.992 39.1259 103.407C40.496 104.822 42.3536 105.618 44.2911 105.62H56.5446C58.646 110.669 63.6384 113.906 71.3874 115.246C71.4741 115.261 71.5632 115.245 71.6397 115.2C71.7162 115.155 71.7752 115.084 71.8066 115C71.8381 114.915 71.8401 114.821 71.8123 114.735C71.7845 114.649 71.7286 114.575 71.6541 114.527C68.2387 112.283 64.5626 109.482 62.9141 105.62H67.4506C69.3881 105.618 71.2456 104.822 72.6157 103.407C73.9858 101.992 74.7565 100.074 74.7587 98.0724V91.6417C74.7565 89.6408 73.9861 87.7225 72.6166 86.3074C71.247 84.8924 69.39 84.0961 67.4528 84.0932Z" fill="black"/>
<path fill-rule="evenodd" clip-rule="evenodd" d="M117.643 141.251C117.643 141.251 119.41 137.056 125.447 137.428C131.485 137.801 134.742 140.38 138.063 143.679C139.937 145.605 142.289 146.961 144.86 147.598C140.977 148.393 137.146 149.442 133.391 150.738C128.977 152.436 121.714 155.199 116.139 151.916C108.541 147.45 117.643 141.251 117.643 141.251Z" fill="#81F8F8"/>
<path d="M138.54 147.47C138.455 147.446 129.985 144.985 127.223 142.652C123.901 139.844 119.383 140.604 117.595 141.061C117.551 141.073 117.512 141.101 117.486 141.139C117.46 141.178 117.448 141.225 117.453 141.271C117.457 141.318 117.478 141.362 117.511 141.394C117.544 141.426 117.587 141.445 117.633 141.448C117.694 141.448 123.728 141.711 126.085 143.456C128.626 145.34 135.401 148.458 138.524 147.852C138.566 147.844 138.604 147.821 138.632 147.787C138.66 147.754 138.676 147.712 138.677 147.668C138.679 147.624 138.667 147.58 138.642 147.545C138.617 147.509 138.581 147.483 138.54 147.47Z" fill="white"/>
<path d="M115.947 152.259C113.867 151.036 112.786 149.554 112.733 147.856C112.626 144.475 116.666 141.466 117.343 140.987C117.679 140.291 119.715 136.683 125.47 137.037C131.828 137.429 135.178 140.269 138.325 143.395C140.149 145.261 142.43 146.58 144.923 147.212C145.01 147.228 145.09 147.275 145.147 147.344C145.205 147.414 145.237 147.503 145.238 147.594C145.239 147.686 145.209 147.775 145.153 147.846C145.097 147.917 145.018 147.966 144.931 147.984C141.069 148.777 137.258 149.821 133.522 151.108C127.87 153.282 121.29 155.405 115.947 152.259ZM124.695 137.797C119.599 137.797 118.055 141.255 117.989 141.408C117.959 141.477 117.911 141.536 117.85 141.578C117.806 141.608 113.391 144.657 113.493 147.83C113.537 149.236 114.49 150.499 116.323 151.576C121.779 154.787 128.963 152.022 133.257 150.371C136.541 149.214 139.892 148.268 143.289 147.538C141.239 146.752 139.37 145.533 137.801 143.96C134.761 140.938 131.527 138.195 125.428 137.819C125.173 137.804 124.931 137.797 124.694 137.797H124.695Z" fill="black"/>
<path d="M97.0059 29.7092C97.0059 29.9574 97.0526 30.2032 97.1434 30.4325C97.2343 30.6619 97.3674 30.8703 97.5352 31.0458C97.703 31.2213 97.9022 31.3606 98.1215 31.4555C98.3408 31.5505 98.5758 31.5994 98.8131 31.5994C99.0505 31.5994 99.2855 31.5505 99.5048 31.4555C99.724 31.3606 99.9233 31.2213 100.091 31.0458C100.259 30.8703 100.392 30.6619 100.483 30.4325C100.574 30.2032 100.62 29.9574 100.62 29.7092C100.62 29.2078 100.43 28.727 100.091 28.3725C99.7521 28.018 99.2925 27.8189 98.8131 27.8189C98.3338 27.8189 97.8741 28.018 97.5352 28.3725C97.1963 28.727 97.0059 29.2078 97.0059 29.7092Z" fill="white"/>
<path d="M104.702 29.7092C104.702 30.2105 104.893 30.6913 105.231 31.0458C105.57 31.4003 106.03 31.5994 106.509 31.5994C106.989 31.5994 107.448 31.4003 107.787 31.0458C108.126 30.6913 108.317 30.2105 108.317 29.7092C108.317 29.2078 108.126 28.727 107.787 28.3725C107.448 28.018 106.989 27.8189 106.509 27.8189C106.03 27.8189 105.57 28.018 105.231 28.3725C104.893 28.727 104.702 29.2078 104.702 29.7092Z" fill="white"/>
<path d="M112.4 29.7092C112.4 30.2105 112.59 30.6913 112.929 31.0458C113.268 31.4003 113.728 31.5994 114.207 31.5994C114.686 31.5994 115.146 31.4003 115.485 31.0458C115.824 30.6913 116.014 30.2105 116.014 29.7092C116.014 29.2078 115.824 28.727 115.485 28.3725C115.146 28.018 114.686 27.8189 114.207 27.8189C113.728 27.8189 113.268 28.018 112.929 28.3725C112.59 28.727 112.4 29.2078 112.4 29.7092Z" fill="white"/>
<path d="M61.7612 95.1405C61.7612 95.6418 61.9516 96.1226 62.2906 96.4771C62.6295 96.8316 63.0892 97.0308 63.5685 97.0308C64.0478 97.0308 64.5075 96.8316 64.8465 96.4771C65.1854 96.1226 65.3758 95.6418 65.3758 95.1405C65.3758 94.6392 65.1854 94.1584 64.8465 93.8039C64.5075 93.4494 64.0478 93.2502 63.5685 93.2502C63.0892 93.2502 62.6295 93.4494 62.2906 93.8039C61.9516 94.1584 61.7612 94.6392 61.7612 95.1405Z" fill="white"/>
<path d="M54.0645 95.1405C54.0645 95.6418 54.2549 96.1226 54.5938 96.4771C54.9327 96.8316 55.3924 97.0308 55.8717 97.0308C56.3511 97.0308 56.8107 96.8316 57.1497 96.4771C57.4886 96.1226 57.679 95.6418 57.679 95.1405C57.679 94.6392 57.4886 94.1584 57.1497 93.8039C56.8107 93.4494 56.3511 93.2502 55.8717 93.2502C55.3924 93.2502 54.9327 93.4494 54.5938 93.8039C54.2549 94.1584 54.0645 94.6392 54.0645 95.1405Z" fill="white"/>
<path d="M46.3677 95.1405C46.3677 95.6418 46.5581 96.1226 46.897 96.4771C47.2359 96.8316 47.6956 97.0308 48.175 97.0308C48.6543 97.0308 49.114 96.8316 49.4529 96.4771C49.7918 96.1226 49.9822 95.6418 49.9822 95.1405C49.9822 94.6392 49.7918 94.1584 49.4529 93.8039C49.114 93.4494 48.6543 93.2502 48.175 93.2502C47.6956 93.2502 47.2359 93.4494 46.897 93.8039C46.5581 94.1584 46.3677 94.6392 46.3677 95.1405Z" fill="white"/>
</svg>
