<svg width="153" height="158" viewBox="0 0 153 158" fill="none" xmlns="http://www.w3.org/2000/svg">
<path fill-rule="evenodd" clip-rule="evenodd" d="M75.9956 142.548L111.64 115.062L148.475 116.916L122.454 145.938L75.9956 142.548Z" fill="white"/>
<path d="M122.301 146.329C121.741 146.301 118.086 146.001 75.9696 142.94C75.8921 142.934 75.8181 142.905 75.7576 142.854C75.6971 142.804 75.6529 142.736 75.6311 142.659C75.6092 142.582 75.6107 142.5 75.6354 142.424C75.66 142.348 75.7066 142.281 75.7689 142.233C105.015 119.716 110.236 115.636 111.24 114.912C111.547 114.689 111.613 114.663 111.658 114.67L148.493 116.523C148.565 116.527 148.635 116.552 148.694 116.595C148.753 116.638 148.799 116.697 148.826 116.767C148.853 116.836 148.861 116.912 148.848 116.985C148.835 117.059 148.802 117.127 148.753 117.182C128.403 139.898 123.876 144.99 122.824 146.078C122.489 146.425 122.592 146.343 122.301 146.329ZM77.0427 142.231L122.299 145.534L147.638 117.267L111.754 115.461L77.0427 142.231Z" fill="black"/>
<path fill-rule="evenodd" clip-rule="evenodd" d="M117.801 139.334L144.661 146.603C145.066 146.787 145.525 146.802 145.94 146.644C146.356 146.487 146.696 146.17 146.891 145.76C147.013 145.541 147.079 145.293 147.083 145.041C147.087 144.788 147.029 144.539 146.914 144.316C146.798 144.093 146.63 143.904 146.425 143.767C146.219 143.63 145.983 143.549 145.739 143.533L118.834 136.903C117.887 137.239 117.51 138.026 117.801 139.334Z" fill="#FFD997"/>
<path d="M147.29 144.136C147.123 143.879 146.907 143.658 146.656 143.489C146.405 143.32 146.123 143.205 145.827 143.151L118.847 136.51C118.699 136.505 115.223 136.373 113.907 136.51C113.466 136.555 113.375 136.831 113.36 136.947C113.316 137.24 113.242 137.732 117.644 139.695C117.715 139.725 140.921 146.035 144.848 147.011C145.22 147.118 145.614 147.113 145.984 146.999C146.354 146.885 146.686 146.665 146.94 146.365C147.194 146.064 147.362 145.696 147.423 145.302C147.483 144.908 147.435 144.504 147.284 144.137L147.29 144.136ZM117.302 138.676C116.499 138.301 115.694 137.9 115.087 137.563C115.094 137.45 115.123 137.34 115.174 137.239C115.934 137.228 116.861 137.239 117.581 137.254C117.333 137.681 117.235 138.183 117.302 138.676ZM118.811 137.3L145.313 143.83C145.139 143.986 144.994 144.172 144.882 144.38C144.858 144.427 144.844 144.477 144.823 144.526L118.264 137.607C118.402 137.438 118.598 137.328 118.811 137.3ZM118.051 138.361C138.885 143.784 143.56 145.008 144.62 145.279C144.584 145.58 144.584 145.884 144.62 146.184L118.131 139.016C118.081 138.801 118.053 138.582 118.049 138.361H118.051ZM146.544 145.6C146.457 145.834 146.299 146.033 146.094 146.169C145.888 146.304 145.647 146.368 145.404 146.351C145.305 145.81 145.209 144.57 146.258 144.145C146.411 144.231 146.538 144.359 146.626 144.515C146.694 144.69 146.722 144.879 146.708 145.067C146.694 145.255 146.638 145.437 146.544 145.6Z" fill="black"/>
<path fill-rule="evenodd" clip-rule="evenodd" d="M9.92678 84.6443C9.92678 84.6443 11.044 81.9243 19.6244 81.5404C28.2048 81.1565 28.7489 83.5382 28.7489 83.5382L29.1335 105.983C26.9529 108.312 24.0532 109.781 20.9354 110.137C13.4007 110.733 11.3822 105.983 11.3822 105.983L11.1489 102.567L10.968 102.617C7.25842 103.301 4.32331 102.169 4.08923 96.008C3.78523 88.1438 10.1137 88.4461 10.1137 88.4461C10.2308 88.5175 10.2156 88.9335 9.92678 84.6443ZM10.4535 92.3718C7.00078 91.9919 5.93299 94.8297 6.91794 97.3605C7.9029 99.8914 10.8981 98.8818 10.8981 98.8818L10.4535 92.3718Z" fill="white"/>
<path d="M29.1218 83.4762C28.8725 81.0136 21.4914 81.0631 19.6043 81.1479C12.0575 81.4862 9.23641 83.9566 9.57993 84.795C9.60273 85.3202 9.67493 86.5079 9.77525 88.059C8.2145 88.1208 6.72868 88.7664 5.59449 89.8755C4.23637 91.2681 3.59949 93.3374 3.70209 96.0236C3.89893 101.169 5.97677 103.829 10.7959 103.037C10.9282 104.895 11.0186 106.123 11.0239 106.141C11.106 106.333 12.9931 110.582 19.6324 110.582C20.0535 110.582 20.4945 110.564 20.9556 110.529C24.174 110.176 27.1677 108.658 29.4076 106.245C29.4718 106.171 29.5065 106.075 29.5048 105.976C29.1803 85.4638 29.14 83.6552 29.1218 83.4762ZM28.342 83.5845C28.0517 84.7455 25.4852 85.3712 19.5694 85.7307C14.409 86.0447 11.4769 84.9583 10.4965 84.5038C13.1945 81.3692 26.9117 81.0176 28.342 83.5845ZM4.46513 95.993C4.37165 93.5391 4.93025 91.6708 6.12649 90.4384C7.13426 89.4649 8.44745 88.8984 9.82617 88.8424L10.0344 91.9824C8.9654 91.9179 7.91316 92.2795 7.09473 92.9927C6.72622 93.4047 6.45636 93.9002 6.30682 94.4393C6.15728 94.9785 6.13222 95.5464 6.23365 96.0974C6.47457 98.4202 7.77341 99.4839 9.55713 99.4839C9.88895 99.4829 10.2199 99.4482 10.5451 99.3803L10.7465 102.255C6.37425 102.998 4.64525 100.731 4.46513 95.993ZM10.4858 98.5733C8.59953 99.02 7.22241 98.2593 6.98985 96.0111C6.90489 95.579 6.9179 95.1325 7.02786 94.7065C7.13782 94.2805 7.34175 93.8866 7.62369 93.5556C8.31898 92.9802 9.20012 92.6996 10.0884 92.7706L10.4858 98.5733ZM20.9032 109.745C14.1247 110.285 12.0112 106.429 11.752 105.882L10.3483 85.2943C12.7032 86.2238 15.2144 86.657 17.734 86.5683C18.3252 86.5683 18.95 86.5502 19.6134 86.5102C24.6066 86.2072 27.2302 85.7331 28.3869 84.8201L28.7471 105.829C26.6396 108.018 23.8729 109.399 20.9032 109.745Z" fill="black"/>
<path fill-rule="evenodd" clip-rule="evenodd" d="M24.7344 122.89L26.0978 127.865H135.707V122.89H24.7344Z" fill="white"/>
<path fill-rule="evenodd" clip-rule="evenodd" d="M37.2546 104.688V46.3904C37.209 45.9152 37.2624 45.4355 37.411 44.9834C37.5597 44.5313 37.8003 44.1172 38.1167 43.769C38.433 43.4209 38.8178 43.1466 39.2452 42.9647C39.6727 42.7828 40.1328 42.6974 40.5948 42.7143H120.18C121.123 42.7118 122.028 43.0925 122.701 43.7741C123.374 44.4557 123.761 45.3833 123.777 46.3567V104.688L135.707 122.89H24.7344L37.2546 104.688Z" fill="#81F8F8"/>
<path d="M136.019 122.67C136.019 122.67 124.186 104.536 124.155 104.487V46.3559C124.136 45.2792 123.709 44.253 122.966 43.4984C122.222 42.7438 121.221 42.3212 120.178 42.3218H40.5948C40.0827 42.3046 39.5728 42.4 39.0991 42.6017C38.6253 42.8034 38.1985 43.1067 37.8467 43.4916C37.495 43.8765 37.2265 44.3341 37.0589 44.8343C36.8913 45.3345 36.8285 45.8657 36.8746 46.3928V104.561L24.4258 122.658C24.3589 122.754 24.3186 122.761 24.4159 123.178C24.5421 123.718 24.9 124.952 25.7322 127.971C25.7549 128.053 25.803 128.125 25.8691 128.177C25.9352 128.228 26.0158 128.256 26.0986 128.256H135.707C135.807 128.256 135.904 128.214 135.975 128.141C136.046 128.067 136.087 127.967 136.087 127.863C136.087 124.88 136.095 123.648 136.087 123.122C136.078 122.692 136.061 122.734 136.019 122.67ZM37.6346 46.3865C37.6194 44.154 38.9828 43.1068 40.5948 43.1068H120.18C121.021 43.1064 121.829 43.4466 122.43 44.0544C123.031 44.6621 123.377 45.489 123.395 46.3575V104.296H37.6346V46.3865ZM37.6437 105.081H123.623C124.263 106.073 126.608 109.646 134.987 122.497H25.4769L37.6437 105.081ZM26.3851 127.472L25.2367 123.282H135.327V127.472H26.3851Z" fill="black"/>
<path d="M42.0601 47.7171H118.258V99.345H42.0601V47.7171Z" fill="white"/>
<path fill-rule="evenodd" clip-rule="evenodd" d="M51.5744 62.9539L51.1693 69.8109C52.1366 70.9182 53.3852 71.723 54.7732 72.1337C54.7732 72.1337 57.4484 70.8919 57.9189 68.4442C57.5845 65.6771 57.2486 63.2208 57.2311 63.0952C57.9026 62.0733 58.28 60.8757 58.3194 59.6412C58.4288 56.7791 57.719 54.7405 54.5437 54.9469C49.872 55.2515 51.1693 62.2043 51.1693 62.2043C51.286 62.4643 51.4214 62.7149 51.5744 62.9539Z" fill="#FFD997"/>
<path fill-rule="evenodd" clip-rule="evenodd" d="M51.8783 54.0881C53.0366 53.2035 54.5786 52.8447 55.4116 55.4462C55.4116 55.4462 54.6516 54.5419 53.7396 55.7492C53.1107 56.5078 52.3458 57.1337 51.4869 57.5924C51.6701 58.4394 52.1527 61.1429 51.132 62.2239C51.8054 63.4736 52.9021 65.4667 51.6382 67.5839C50.3082 69.8109 54.0702 68.7896 54.0702 68.7896C54.0702 68.7896 49.3301 71.2561 47.0539 69.1115C44.7777 66.9669 48.8019 62.906 48.8019 62.906C48.204 62.9149 47.6103 62.8032 47.0539 62.5771C47.0539 62.5771 48.9539 62.3306 48.8581 61.1704C48.8223 60.1602 48.8927 59.149 49.0679 58.1544C48.8284 58.1094 48.6005 58.014 48.3983 57.8742C48.7029 57.6505 48.9964 57.411 49.2776 57.1567C49.6895 55.5239 50.4693 54.045 51.8783 54.0881ZM58.2221 59.7629C58.2221 59.7629 58.4326 59.7841 58.4166 59.7629C57.6004 58.6639 57.0486 54.2679 55.4116 55.4454C55.383 54.9543 55.539 54.4707 55.847 54.0954C56.1551 53.7202 56.5916 53.4822 57.0653 53.4311C58.7852 53.2741 59.0581 55.2978 59.1052 56.7407C59.1523 58.1835 59.85 59.6318 61.0341 58.4151C60.5558 59.0885 59.9286 59.634 59.2047 60.0063L59.3666 60.0463C58.2509 62.7365 61.2598 63.7444 62.7805 66.2235C64.3013 68.7025 60.8099 69.1892 58.2205 68.5486C55.6312 67.9081 57.2325 63.0976 57.2325 63.0976C57.9333 62.1416 58.2839 60.9603 58.2221 59.7629Z" fill="#81F8F8"/>
<path d="M53.6268 61.6548C53.5422 61.6018 53.481 61.5168 53.4561 61.4179C53.4312 61.319 53.4446 61.214 53.4935 61.1252C53.5424 61.0364 53.6229 60.9707 53.7179 60.9422C53.8129 60.9137 53.9149 60.9246 54.0022 60.9726C54.0349 60.9914 54.7394 61.3918 55.0282 60.9129C55.0547 60.8692 55.0892 60.8313 55.1298 60.8014C55.1704 60.7715 55.2164 60.7501 55.265 60.7385C55.3136 60.7269 55.364 60.7253 55.4132 60.7338C55.4624 60.7424 55.5095 60.7608 55.5518 60.7881C56.1667 61.1845 55.0708 62.5049 53.6268 61.6548Z" fill="black"/>
<path d="M54.5003 63.5498C53.9848 63.5329 53.4824 63.3785 53.0418 63.1015C52.9616 63.0851 52.8886 63.0423 52.8338 62.9796C52.779 62.9169 52.7452 62.8376 52.7375 62.7534C52.7298 62.6693 52.7486 62.5848 52.7911 62.5126C52.8337 62.4404 52.8976 62.3843 52.9734 62.3527C53.0567 62.3269 53.1447 62.322 53.2302 62.3383C53.3157 62.3545 53.3962 62.3914 53.4652 62.4461C53.7638 62.6584 54.1196 62.7685 54.4821 62.7606C54.8446 62.7527 55.1955 62.6273 55.4852 62.4021C55.5252 62.3712 55.5706 62.3487 55.6189 62.3359C55.6673 62.3231 55.7176 62.3203 55.767 62.3276C55.8164 62.3348 55.8639 62.3521 55.9069 62.3784C55.9498 62.4046 55.9873 62.4394 56.0172 62.4806C56.0472 62.5218 56.069 62.5688 56.0814 62.6187C56.0937 62.6686 56.0965 62.7206 56.0894 62.7716C56.0824 62.8226 56.0657 62.8717 56.0402 62.9161C56.0148 62.9604 55.9812 62.9992 55.9412 63.0301C55.5293 63.3623 55.0229 63.5449 54.5003 63.5498Z" fill="black"/>
<path d="M53.812 58.2401C53.7611 58.2401 53.7108 58.2295 53.6639 58.209C53.617 58.1885 53.5746 58.1585 53.5392 58.1207C52.8552 57.3907 52.3042 57.8067 52.1993 57.9001C52.1233 57.9664 52.0252 57.9993 51.926 57.9916C51.8268 57.984 51.7344 57.9365 51.6688 57.8593C51.6031 57.7821 51.5694 57.6814 51.5748 57.5789C51.5802 57.4763 51.6243 57.38 51.6977 57.3106C51.8698 57.1625 52.069 57.0516 52.2834 56.9846C52.4978 56.9175 52.723 56.8957 52.9457 56.9203C53.1685 56.9449 53.3842 57.0154 53.58 57.1278C53.7758 57.2402 53.9477 57.392 54.0856 57.5744C54.1376 57.6298 54.1727 57.6998 54.1864 57.7757C54.2 57.8515 54.1918 57.9299 54.1626 58.0009C54.1334 58.072 54.0845 58.1325 54.0222 58.1751C53.9599 58.2176 53.8868 58.2402 53.812 58.2401Z" fill="black"/>
<path d="M57.5402 58.3075C57.1648 58.3075 57.2218 57.8648 56.7042 57.7674C56.2566 57.7476 55.8154 57.8824 55.4502 58.1505C55.3678 58.2106 55.2656 58.2344 55.1662 58.2166C55.0668 58.1989 54.9783 58.1411 54.9201 58.0559C54.862 57.9708 54.839 57.8653 54.8561 57.7626C54.8733 57.6599 54.9293 57.5685 55.0117 57.5084C55.9617 56.816 57.1861 56.692 57.8564 57.6929C57.8957 57.752 57.9186 57.8212 57.9225 57.8928C57.9265 57.9644 57.9113 58.0358 57.8787 58.0992C57.8461 58.1625 57.7973 58.2155 57.7377 58.2522C57.678 58.2889 57.6097 58.3081 57.5402 58.3075Z" fill="black"/>
<path fill-rule="evenodd" clip-rule="evenodd" d="M76.0653 59.2621C76.0721 58.9481 76.0843 58.7597 76.0843 58.7597C76.0843 58.7597 75.6146 54.0497 77.7647 53.9217C79.9147 53.7937 82.9418 52.7246 83.603 55.0992C83.9405 56.1233 84.1604 57.1848 84.2581 58.262C83.9465 61.1429 84.1996 57.8812 85.1154 58.3405C85.6861 58.6262 84.9543 60.9671 83.8637 61.5802C83.8286 62.2938 83.689 62.9979 83.4495 63.6683L83.2815 65.575C83.2815 65.575 82.7495 68.872 80.1488 68.9293C78.1781 68.9717 76.9431 65.575 76.9431 65.575L76.7197 63.45C76.464 62.9774 76.2962 62.4596 76.2249 61.9232C75.2855 61.6532 74.5879 59.1074 75.0743 58.4967C75.5607 57.8859 76.0653 59.2621 76.0653 59.2621Z" fill="#FFD997"/>
<path d="M76.8269 58.2377C76.7501 58.2375 76.6751 58.2133 76.6119 58.1682C76.5487 58.1231 76.5002 58.0593 76.4728 57.9852C76.4453 57.9111 76.4403 57.8301 76.4584 57.753C76.4764 57.6758 76.5167 57.6062 76.5738 57.5531C77.003 57.1953 77.5341 56.9928 78.0854 56.9768C78.6368 56.9608 79.178 57.1321 79.626 57.4644C79.6677 57.4927 79.7036 57.5292 79.7317 57.5719C79.7598 57.6145 79.7794 57.6624 79.7895 57.7129C79.7997 57.7634 79.8001 57.8154 79.7907 57.8661C79.7814 57.9167 79.7625 57.965 79.7351 58.0081C79.7077 58.0511 79.6723 58.0882 79.631 58.1172C79.5898 58.1462 79.5434 58.1665 79.4945 58.177C79.4456 58.1874 79.3952 58.1878 79.3462 58.1782C79.2972 58.1685 79.2505 58.149 79.2088 58.1207C78.9004 57.8817 78.5245 57.7543 78.139 57.7581C77.7535 57.7619 77.38 57.8968 77.0762 58.1419C77.007 58.2038 76.9185 58.2378 76.8269 58.2377Z" fill="black"/>
<path fill-rule="evenodd" clip-rule="evenodd" d="M51.6067 90.0568C51.4086 89.6446 51.2696 89.2049 51.194 88.7514C50.206 88.5284 49.3259 86.898 49.8389 86.1035C50.3519 85.3091 50.8475 86.2111 51.077 86.3979C51.0078 86.051 50.2699 82.0529 52.749 81.2601C55.3421 80.4311 58.8161 80.7946 58.9977 82.6786C59.0957 83.8187 59.1044 84.9651 59.0235 86.1067C59.3937 85.7291 59.8519 85.3594 60.3049 86.0698C60.7579 86.7802 59.4628 87.9428 58.6815 88.3384C58.6122 89.0841 58.4245 89.8129 58.126 90.4956L57.9124 92.798L55.0244 95.9718L51.5991 92.798L51.6067 90.0568Z" fill="#FFD997"/>
<path d="M80.9106 57.433C81.3782 57.1399 81.915 56.9857 82.462 56.9875C83.009 56.9893 83.5449 57.147 84.0107 57.4432C84.0937 57.5023 84.1506 57.5929 84.169 57.6953C84.1873 57.7977 84.1655 57.9034 84.1083 57.9892C84.0512 58.075 83.9634 58.1338 83.8643 58.1527C83.7651 58.1716 83.6628 58.1491 83.5797 58.0901C83.2351 57.8815 82.8426 57.7725 82.4432 57.7745C82.0438 57.7764 81.6523 57.8892 81.3096 58.1011C81.2239 58.1541 81.1214 58.1701 81.0243 58.1457C80.9273 58.1212 80.8434 58.0582 80.791 57.9704C80.7385 57.8826 80.7217 57.7769 80.744 57.6764C80.7664 57.5758 80.8263 57.4884 80.9106 57.433Z" fill="black"/>
<path d="M81.1922 60.7984C81.1407 60.8484 81.1037 60.9124 81.0855 60.983C81.0672 61.0535 81.0684 61.128 81.0889 61.1979C81.0418 61.1979 80.9939 61.1979 80.949 61.1917C80.6283 61.1579 80.645 61.5057 80.0507 61.2984C79.8188 61.203 79.5679 61.1672 79.3196 61.194C79.3061 61.1075 79.2649 61.0282 79.2027 60.9687C79.1404 60.9092 79.0607 60.8729 78.9762 60.8656C78.8917 60.8583 78.8072 60.8804 78.7363 60.9283C78.6653 60.9763 78.612 61.0475 78.5847 61.1304C78.4441 61.559 78.7298 62.0544 79.4207 61.9719C79.809 61.9288 80.1944 62.3974 80.9893 61.9814C82.7343 62.0866 81.7759 60.219 81.1922 60.7984Z" fill="black"/>
<path d="M78.7545 63.5568C78.6926 63.4929 78.6539 63.4089 78.645 63.3189C78.6361 63.229 78.6576 63.1387 78.7058 63.0632C78.7539 62.9877 78.8258 62.9317 78.9094 62.9046C78.9929 62.8776 79.0829 62.8811 79.1641 62.9147C79.879 63.1578 80.6529 63.1404 81.3567 62.8652C81.4434 62.834 81.5381 62.8362 81.6233 62.8715C81.7085 62.9068 81.7784 62.9727 81.8202 63.0571C81.862 63.1415 81.8728 63.2387 81.8506 63.3307C81.8284 63.4227 81.7748 63.5033 81.6995 63.5576C81.5197 63.7808 81.2946 63.9603 81.0401 64.0835C80.7856 64.2067 80.5079 64.2705 80.2268 64.2705C79.9457 64.2704 79.6681 64.2064 79.4137 64.0831C79.1592 63.9597 78.9342 63.7801 78.7545 63.5568Z" fill="black"/>
<path fill-rule="evenodd" clip-rule="evenodd" d="M58.993 86.2017C59.3373 84.7251 59.7394 83.0115 59.0189 81.9195C59.0189 81.9195 57.7641 77.1459 53.8 78.8879C49.8358 80.6298 50.3739 82.3058 50.5943 82.7344C50.8147 83.163 50.5061 85.0273 51.0275 86.478C51.2683 85.7058 51.6379 84.9829 52.1196 84.342C51.9817 83.6782 51.9817 82.9916 52.1196 82.3277C52.6859 82.2893 53.2543 82.352 53.8 82.513C54.56 82.7744 56.618 83.5335 58.1578 82.3277C58.2724 82.614 58.3125 82.9263 58.2741 83.2335C58.2357 83.5407 58.1201 83.8322 57.9389 84.0791C58.1293 84.8602 58.4899 85.5862 58.993 86.2017Z" fill="#81F8F8"/>
<path d="M51.9207 85.7629C51.8455 85.7627 51.772 85.7395 51.7095 85.6962C51.6471 85.6528 51.5985 85.5913 51.57 85.5195C51.5414 85.4476 51.5341 85.3686 51.5491 85.2924C51.564 85.2163 51.6005 85.1464 51.6539 85.0917C52.0189 84.7531 52.4745 84.5364 52.9609 84.4702C53.4473 84.4039 53.9417 84.4911 54.3793 84.7204C54.4244 84.7424 54.465 84.7734 54.4985 84.8116C54.5321 84.8498 54.5581 84.8944 54.5749 84.943C54.5918 84.9915 54.5992 85.043 54.5968 85.0945C54.5944 85.146 54.5822 85.1966 54.5609 85.2432C54.5396 85.2899 54.5096 85.3317 54.4726 85.3664C54.4357 85.4011 54.3924 85.4279 54.3454 85.4453C54.2984 85.4627 54.2486 85.4704 54.1987 85.4679C54.1488 85.4655 54.0999 85.4528 54.0547 85.4308C53.7568 85.271 53.4194 85.207 53.0859 85.247C52.7524 85.287 52.4382 85.4292 52.1836 85.6553C52.1124 85.7244 52.0184 85.7628 51.9207 85.7629Z" fill="black"/>
<path d="M58.174 85.978C58.1199 85.978 58.0665 85.9661 58.0172 85.9431C57.9679 85.9201 57.924 85.8865 57.8883 85.8445C57.6414 85.5898 57.3309 85.4109 56.9914 85.3277C56.6519 85.2446 56.2968 85.2604 55.9655 85.3735C55.8713 85.4026 55.7698 85.3929 55.6824 85.3463C55.595 85.2998 55.5285 85.2201 55.4968 85.1239C55.4651 85.0278 55.4708 84.9227 55.5125 84.8308C55.5543 84.7388 55.6289 84.6672 55.7207 84.6309C56.1938 84.468 56.7019 84.4469 57.1861 84.57C57.6703 84.6931 58.1109 84.9554 58.4567 85.3264C58.5048 85.3829 58.5362 85.4525 58.547 85.5269C58.5579 85.6013 58.5478 85.6774 58.518 85.746C58.4882 85.8147 58.44 85.873 58.379 85.9141C58.318 85.9553 58.2469 85.9774 58.174 85.978Z" fill="black"/>
<path d="M55.8302 88.3267C55.73 88.3459 55.6412 88.4049 55.5827 88.4911C55.5243 88.5773 55.501 88.6837 55.5178 88.7875C55.3818 88.9751 54.466 88.8747 54.2395 88.8087V88.7757C54.2488 88.725 54.2482 88.6729 54.2379 88.6224C54.2277 88.5719 54.2078 88.524 54.1796 88.4814C54.1513 88.4388 54.1153 88.4024 54.0734 88.3742C54.0315 88.3461 53.9847 88.3267 53.9355 88.3173C53.3488 88.2098 53.3062 89.2546 53.8291 89.4948C54.2143 89.6309 54.6199 89.695 55.0269 89.684C56.6107 89.6809 56.4792 88.216 55.8302 88.3267Z" fill="black"/>
<path d="M53.4085 90.8215C53.326 90.7617 53.2698 90.6705 53.2523 90.568C53.2349 90.4655 53.2576 90.36 53.3154 90.2747C53.3733 90.1895 53.4615 90.1314 53.5608 90.1134C53.6601 90.0954 53.7622 90.1188 53.8448 90.1786C54.1655 90.3562 54.5267 90.4412 54.8902 90.4245C55.2538 90.4078 55.6063 90.29 55.9104 90.0836C55.9544 90.0585 56.0028 90.0428 56.0528 90.0372C56.1027 90.0316 56.1532 90.0363 56.2014 90.051C56.2496 90.0657 56.2945 90.0902 56.3334 90.1229C56.3724 90.1556 56.4047 90.196 56.4285 90.2418C56.4522 90.2875 56.467 90.3376 56.4719 90.3892C56.4768 90.4409 56.4717 90.493 56.4569 90.5426C56.4422 90.5922 56.4181 90.6383 56.386 90.6782C56.3539 90.7181 56.3144 90.7511 56.2699 90.7752C55.841 91.0477 55.3489 91.1958 54.8454 91.2039C54.3418 91.2121 53.8455 91.08 53.4085 90.8215Z" fill="black"/>
<path fill-rule="evenodd" clip-rule="evenodd" d="M75.5415 92.6834C75.5415 92.6834 76.3995 96.3768 80.7726 96.0306C84.7709 95.7166 84.9853 92.4879 84.9853 92.4879L82.8383 92.0342V88.8361C83.2465 88.195 83.5542 87.4913 83.7503 86.7512C83.7503 86.7512 85.7795 86.6727 85.2657 84.9025C84.8773 84.0672 84.1067 84.9025 84.1067 84.9025C84.1067 84.9025 85.0879 81.1298 82.8405 80.3212C80.5932 79.5127 76.2969 79.7011 76.4254 84.6387C76.5257 88.5292 77.5601 89.5936 77.5601 89.5936V92.035L75.5415 92.6834Z" fill="#FFD997"/>
<path d="M80.244 87.4703C79.8127 87.4312 79.4051 87.2492 79.082 86.9514C79.0086 86.882 78.9645 86.7857 78.9591 86.6831C78.9536 86.5806 78.9874 86.4799 79.0531 86.4027C79.1187 86.3255 79.2111 86.278 79.3103 86.2704C79.4094 86.2628 79.5076 86.2956 79.5836 86.3619C79.7584 86.5189 80.105 86.7347 80.3048 86.6759C80.336 86.6688 80.4325 86.6445 80.5245 86.4113C80.5626 86.3151 80.636 86.2384 80.7288 86.1981C80.8215 86.1578 80.926 86.1571 81.0192 86.1962C81.5854 86.4349 81.0208 87.4703 80.244 87.4703Z" fill="black"/>
<path d="M78.8965 88.8762C78.8507 88.8556 78.8092 88.8259 78.7746 88.7887C78.7399 88.7515 78.7126 88.7077 78.6943 88.6597C78.6761 88.6116 78.6671 88.5603 78.668 88.5087C78.6689 88.4571 78.6797 88.4062 78.6997 88.3589C78.7196 88.3116 78.7484 88.2688 78.7844 88.233C78.8203 88.1971 78.8628 88.169 78.9093 88.1501C78.9558 88.1312 79.0055 88.122 79.0554 88.1229C79.1054 88.1239 79.1547 88.135 79.2005 88.1556C79.4795 88.3117 79.7918 88.3935 80.1091 88.3935C80.4264 88.3935 80.7387 88.3117 81.0176 88.1556C81.058 88.1253 81.1038 88.1035 81.1523 88.0914C81.2008 88.0794 81.2512 88.0773 81.3005 88.0854C81.3498 88.0934 81.397 88.1114 81.4396 88.1384C81.4822 88.1653 81.5192 88.2006 81.5485 88.2423C81.5779 88.284 81.599 88.3313 81.6106 88.3814C81.6223 88.4315 81.6243 88.4835 81.6165 88.5344C81.6087 88.5854 81.5912 88.6342 81.5652 88.6782C81.5391 88.7221 81.5049 88.7603 81.4645 88.7906C81.0815 89.0366 80.6424 89.174 80.1916 89.189C79.7408 89.204 79.2941 89.0961 78.8965 88.8762Z" fill="black"/>
<path d="M77.105 85.0761C77.105 85.4156 77.2356 85.7413 77.468 85.9814C77.7005 86.2215 78.0158 86.3564 78.3445 86.3564C78.6733 86.3564 78.9886 86.2215 79.221 85.9814C79.4535 85.7413 79.5841 85.4156 79.5841 85.0761C79.5841 84.7365 79.4535 84.4108 79.221 84.1707C78.9886 83.9306 78.6733 83.7957 78.3445 83.7957C78.0158 83.7957 77.7005 83.9306 77.468 84.1707C77.2356 84.4108 77.105 84.7365 77.105 85.0761Z" fill="white"/>
<path d="M80.8364 85.0761C80.8364 85.4156 80.967 85.7413 81.1995 85.9814C81.4319 86.2215 81.7472 86.3564 82.076 86.3564C82.4047 86.3564 82.72 86.2215 82.9525 85.9814C83.185 85.7413 83.3155 85.4156 83.3155 85.0761C83.3155 84.7365 83.185 84.4108 82.9525 84.1707C82.72 83.9306 82.4047 83.7957 82.076 83.7957C81.7472 83.7957 81.4319 83.9306 81.1995 84.1707C80.967 84.4108 80.8364 84.7365 80.8364 85.0761Z" fill="white"/>
<path d="M82.0769 83.404C81.7304 83.4051 81.3934 83.5213 81.1156 83.7352C80.8379 83.9492 80.634 84.2497 80.5341 84.5925H79.8874C79.7704 84.2042 79.5197 83.8737 79.1827 83.6634C78.8457 83.4531 78.4457 83.3778 78.0586 83.4515C77.6714 83.5252 77.3238 83.743 77.0815 84.0635C76.8393 84.3841 76.7192 84.7852 76.7439 85.1911C76.7687 85.597 76.9366 85.9794 77.2159 86.266C77.4951 86.5526 77.8665 86.7236 78.2595 86.7465C78.6526 86.7695 79.0402 86.6429 79.349 86.3906C79.6578 86.1383 79.8664 85.7779 79.9353 85.3775H80.4863C80.5417 85.6901 80.6824 85.98 80.8916 86.2131C81.1009 86.4461 81.3702 86.6127 81.6678 86.6934C81.9655 86.774 82.2793 86.7654 82.5724 86.6684C82.8655 86.5714 83.1257 86.3902 83.3226 86.1459C83.5195 85.9016 83.6449 85.6044 83.6841 85.2891C83.7233 84.9738 83.6747 84.6535 83.544 84.3657C83.4133 84.078 83.2058 83.8347 82.946 83.6643C82.6861 83.494 82.3847 83.4037 82.0769 83.404ZM78.3446 85.9639C78.1746 85.9639 78.0084 85.9118 77.867 85.8143C77.7257 85.7167 77.6155 85.578 77.5504 85.4158C77.4854 85.2536 77.4684 85.0751 77.5015 84.9028C77.5347 84.7306 77.6166 84.5724 77.7368 84.4483C77.857 84.3241 78.0101 84.2395 78.1769 84.2053C78.3436 84.171 78.5164 84.1886 78.6735 84.2558C78.8306 84.323 78.9648 84.4368 79.0593 84.5828C79.1537 84.7288 79.2041 84.9004 79.2041 85.076C79.2039 85.3115 79.1133 85.5372 78.9521 85.7036C78.791 85.8701 78.5725 85.9637 78.3446 85.9639ZM82.0769 85.9639C81.9069 85.9639 81.7407 85.9118 81.5994 85.8143C81.458 85.7167 81.3479 85.578 81.2828 85.4158C81.2177 85.2536 81.2007 85.0751 81.2339 84.9028C81.2671 84.7306 81.3489 84.5724 81.4691 84.4483C81.5893 84.3241 81.7425 84.2395 81.9092 84.2053C82.076 84.171 82.2488 84.1886 82.4059 84.2558C82.5629 84.323 82.6972 84.4368 82.7916 84.5828C82.8861 84.7288 82.9365 84.9004 82.9365 85.076C82.9361 85.3114 82.8454 85.537 82.6843 85.7034C82.5232 85.8698 82.3048 85.9635 82.0769 85.9639Z" fill="black"/>
<path fill-rule="evenodd" clip-rule="evenodd" d="M100.846 84.2267C100.479 82.8553 100.148 80.4948 101.645 79.1037C103.362 76.014 111.438 76.3013 109.657 84.5477C110.09 84.3295 110.728 84.0854 110.895 84.441C111.346 85.4034 109.978 86.7755 109.446 87.2591C109.369 88.2961 109.049 89.2982 108.514 90.1793C108.221 92.6426 105.904 94.8893 105.904 94.8893C102.777 93.9795 102.237 89.8049 102.237 89.8049C101.725 88.9494 101.404 87.9866 101.298 86.9867C101.298 86.9867 99.3086 85.4277 99.687 84.5297C99.9523 83.9032 100.526 84.0697 100.846 84.2267Z" fill="#FFD997"/>
<path fill-rule="evenodd" clip-rule="evenodd" d="M109.762 84.6121C109.898 83.3765 109.898 82.1291 109.762 80.8935C109.554 78.4035 107.279 77.4223 105.155 77.3045C103.03 77.1868 101.551 79.1768 101.551 79.1768C100.275 80.41 100.259 82.4738 101.171 85.1428C101.084 83.9164 101.252 82.685 101.665 81.5318C101.978 80.7939 102.247 80.0373 102.472 79.2662C102.472 79.2662 103.445 79.7734 105.944 79.687C108.443 79.6007 108.841 79.406 109.237 81.0945C109.633 82.783 109.309 84.4339 109.482 85.4615L109.762 84.6121Z" fill="#81F8F8"/>
<path d="M104.792 87.8235C104.698 87.7853 104.622 87.7102 104.582 87.6146C104.542 87.5191 104.54 87.411 104.577 87.314C104.614 87.2171 104.687 87.1394 104.78 87.0979C104.872 87.0563 104.977 87.0545 105.071 87.0927C105.419 87.2665 105.812 87.3181 106.192 87.2395C106.228 87.212 106.22 87.1013 106.217 87.0683C106.213 87.0169 106.218 86.9651 106.233 86.9158C106.248 86.8665 106.272 86.8207 106.304 86.7811C106.336 86.7414 106.375 86.7086 106.419 86.6846C106.463 86.6607 106.512 86.6459 106.562 86.6413C107.116 86.6075 107.11 87.5095 106.648 87.8675C106.356 88.0048 106.037 88.0722 105.715 88.0646C105.394 88.057 105.078 87.9746 104.792 87.8235Z" fill="black"/>
<path d="M105.7 89.7695C105.022 89.7419 104.362 89.5432 103.776 89.191C103.69 89.137 103.628 89.0499 103.604 88.9488C103.58 88.8477 103.595 88.7408 103.648 88.6517C103.7 88.5626 103.784 88.4985 103.882 88.4736C103.98 88.4488 104.084 88.4651 104.17 88.519C104.187 88.53 105.878 89.5638 106.809 88.4868C106.876 88.4092 106.97 88.3622 107.071 88.3563C107.171 88.3505 107.27 88.3861 107.345 88.4554C107.42 88.5248 107.466 88.6221 107.471 88.726C107.477 88.83 107.443 88.932 107.375 89.0096C107.167 89.2553 106.909 89.4507 106.619 89.582C106.33 89.7133 106.016 89.7773 105.7 89.7695Z" fill="black"/>
<path d="M102.014 83.5202C102.054 83.477 102.992 82.4604 104.886 83.1607C104.935 83.1761 104.981 83.2016 105.02 83.2358C105.059 83.27 105.092 83.312 105.115 83.3595C105.138 83.4069 105.152 83.4587 105.155 83.5117C105.158 83.5647 105.151 83.6179 105.134 83.6679C105.116 83.718 105.089 83.7639 105.055 83.8029C105.02 83.8419 104.977 83.8731 104.93 83.8948C104.883 83.9164 104.833 83.928 104.781 83.9288C104.73 83.9295 104.679 83.9195 104.631 83.8993C103.233 83.3852 102.597 84.0289 102.57 84.0563C102.501 84.1324 102.406 84.1772 102.305 84.1807C102.204 84.1842 102.106 84.1463 102.033 84.0752C101.959 84.0041 101.916 83.9057 101.912 83.8016C101.909 83.6975 101.946 83.5963 102.014 83.5202Z" fill="black"/>
<path d="M108.931 84.5265C108.872 84.5265 108.814 84.5123 108.761 84.4851C108.708 84.4578 108.662 84.4183 108.627 84.3695C107.91 83.3686 106.575 83.8891 106.519 83.9119C106.425 83.9501 106.32 83.9482 106.228 83.9067C106.135 83.8652 106.063 83.7874 106.026 83.6905C105.989 83.5936 105.99 83.4855 106.031 83.3899C106.071 83.2944 106.146 83.2192 106.24 83.181C106.748 82.9541 107.314 82.9016 107.854 83.0313C108.393 83.161 108.878 83.4661 109.237 83.9017C109.279 83.9601 109.304 84.0294 109.31 84.1017C109.316 84.174 109.302 84.2466 109.27 84.3113C109.238 84.376 109.19 84.4304 109.13 84.4684C109.07 84.5064 109.001 84.5265 108.931 84.5265Z" fill="black"/>
<path d="M101.645 83.7863H104.556V85.6844H101.645V83.7863Z" fill="white"/>
<path d="M106.304 83.7517H109.216V85.6498H106.304V83.7517Z" fill="white"/>
<path d="M118.692 47.6975C118.692 47.5934 118.652 47.4936 118.58 47.42C118.509 47.3463 118.412 47.305 118.312 47.305H42.1124C42.0116 47.305 41.915 47.3463 41.8437 47.42C41.7725 47.4936 41.7324 47.5934 41.7324 47.6975V99.3254C41.7324 99.4295 41.7725 99.5293 41.8437 99.6029C41.915 99.6765 42.0116 99.7179 42.1124 99.7179H118.312C118.412 99.7179 118.509 99.6765 118.58 99.6029C118.652 99.5293 118.692 99.4295 118.692 99.3254V47.6975ZM102.016 81.688C102.282 81.0611 102.517 80.4208 102.72 79.7695C103.778 80.0457 104.871 80.1491 105.96 80.0756C108.503 79.9822 108.559 79.8566 108.87 81.1832C109.239 82.7532 108.957 84.0312 109.09 85.288C109.204 86.5919 109.046 87.9057 108.628 89.1416C107.729 91.5853 105.224 91.1151 103.811 90.6158C101.278 89.724 101.155 83.6897 102.016 81.6896V81.688ZM100.952 82.6622C100.849 82.0789 100.881 81.4787 101.046 80.9108C101.211 80.3429 101.504 79.8235 101.901 79.395C101.918 79.3793 102.007 79.3024 102.089 79.2309C101.594 80.9156 101.184 81.414 100.95 82.6637L100.952 82.6622ZM102.403 78.807C103.08 78.2222 103.902 77.8445 104.775 77.7167H104.799C106.839 77.5369 108.113 78.3627 108.814 79.512C108.249 79.1407 107.311 79.2388 105.936 79.2906C104.826 79.409 103.704 79.2803 102.646 78.913C102.568 78.8716 102.486 78.8367 102.402 78.8086L102.403 78.807ZM102.053 90.6496C102.34 92.1714 103.16 93.5305 104.356 94.467C103.6 94.7378 102.913 95.1817 102.345 95.7654C102.068 94.2266 101.905 92.6679 101.859 91.1033C101.913 90.9476 101.978 90.7959 102.053 90.6496ZM102.919 91.0366C103.838 91.5356 104.86 91.7999 105.898 91.8074C106.604 91.8233 107.299 91.6366 107.908 91.2681C107.444 92.4627 106.738 93.5408 105.837 94.4301C105.13 94.1349 104.499 93.675 103.993 93.0863C103.487 92.4976 103.12 91.7961 102.919 91.0366ZM108.883 90.3081L108.892 90.2932C109.117 90.5723 109.315 90.873 109.484 91.1912C109.831 92.5675 109.845 94.0108 109.525 95.3941C108.767 94.7851 107.834 94.4538 106.874 94.4521C107.948 93.3228 108.651 91.873 108.883 90.3081ZM109.281 89.5521C109.525 88.9366 109.694 88.2917 109.782 87.6328C110.742 86.5715 112.164 84.6035 110.899 83.9818C110.666 83.8661 110.399 83.8503 110.156 83.9378C110.876 79.2199 108.34 76.6208 104.776 76.9348C104.11 77.0052 103.464 77.2111 102.876 77.5405C102.288 77.8699 101.768 78.3164 101.348 78.8541C99.9598 80.1847 100.031 82.2241 100.326 83.6858C100.162 83.6711 99.9963 83.7016 99.8468 83.7741C99.6974 83.8466 99.5691 83.9586 99.4749 84.0987C98.854 84.9418 100.222 86.4938 100.946 87.2175C101.061 88.0841 101.324 88.9227 101.723 89.6942C101.509 90.0134 101.328 90.3555 101.185 90.7147C100.132 91.0436 95.1969 92.6937 93.3501 95.2339C93.3562 77.6861 93.3501 74.7494 93.3501 74.5924H117.93V95.0157C117.853 94.8841 117.768 94.7573 117.677 94.6358C116.452 93.0501 111.266 91.316 110.229 90.9816C109.974 90.4642 109.656 89.9831 109.281 89.5505V89.5521ZM109.853 85.3225C109.948 85.0085 110.319 84.565 110.572 84.6945C110.883 84.8421 110.125 85.9631 109.888 86.2912C109.888 85.8713 109.857 85.3461 109.853 85.3225ZM100.825 85.9293C100.277 85.2519 99.9925 84.693 100.08 84.5744C100.167 84.4559 100.268 84.3978 100.546 84.5744C100.658 84.9536 100.764 85.2409 100.818 85.3759C100.816 85.4811 100.816 85.6797 100.822 85.9293H100.825ZM93.3494 48.0923H117.932V70.8102C116.378 68.1585 112.973 67.4347 111.934 67.2683C111.303 63.2464 110.377 59.2799 109.163 55.4031C108.256 53.0167 107.111 52.621 104.925 52.6375C103.785 52.674 102.689 53.094 101.801 53.8337C100.914 54.5735 100.286 55.5923 100.011 56.7352C99.421 58.8877 98.5515 65.7964 98.3676 67.2887C96.513 67.6363 94.7815 68.4882 93.3516 69.7568L93.3494 48.0923ZM93.3494 70.8636C94.7838 69.3532 96.6506 68.3593 98.6739 68.029C100.238 68.7221 102.191 72.8874 105.715 72.8874C108.584 72.8874 111.513 69.964 111.915 68.0604C113.198 68.27 117.558 69.2724 117.932 73.2665V73.816H93.3494V70.8636ZM93.3494 74.5987C93.3494 75.4433 93.3494 74.6772 93.3494 74.5987ZM66.9925 98.9337H42.4924V97.2946C42.9203 96.1461 47.8246 94.3657 49.0839 93.9866C49.5234 93.8513 49.9401 93.6472 50.3197 93.3814C50.6092 94.9591 51.0217 96.5101 51.5531 98.0191C51.5823 98.0825 51.6274 98.1367 51.6837 98.176C51.74 98.2153 51.8055 98.2382 51.8734 98.2425C51.9412 98.2467 52.0089 98.2321 52.0694 98.2001C52.1299 98.1682 52.181 98.12 52.2174 98.0607C52.737 97.2015 53.3026 96.3729 53.9114 95.5786C55.1191 96.7812 54.8181 96.7773 56.0569 95.369C56.8218 96.1194 57.5174 96.9417 58.1347 97.8252C58.1754 97.896 58.2366 97.9518 58.3096 97.9847C58.3826 98.0177 58.4638 98.026 58.5417 98.0087C58.6196 97.9913 58.6902 97.9491 58.7436 97.888C58.797 97.8269 58.8305 97.75 58.8393 97.6682C58.994 96.1035 59.0294 94.5287 58.9449 92.9582C59.687 93.4915 60.5148 93.8846 61.3898 94.1192C63.134 94.6797 66.3785 95.723 66.9948 97.5159L66.9925 98.9337ZM58.1598 92.7494C58.2576 94.0157 58.2576 95.288 58.1598 96.5543C57.6141 95.88 56.9317 95.1641 56.5638 94.7873C58.3004 92.8185 58.1005 93.1199 58.1621 92.7486L58.1598 92.7494ZM54.9184 95.4922L51.9126 92.4998L51.8716 91.192C53.0427 92.4927 53.8544 93.4928 55.5583 93.1906C56.3022 93.0498 56.982 92.6643 57.4963 92.0916L57.4013 92.6701L54.9184 95.4922ZM58.1545 88.95C57.9265 90.4282 56.978 92.1426 55.4307 92.4166C54.1926 92.6356 53.5816 91.9456 52.6521 90.9047C52.031 90.3635 51.6251 89.6046 51.5121 88.7734C51.3866 88.0325 51.3485 87.2786 51.3989 86.5283C51.5931 85.7943 51.9315 85.1095 52.3929 84.5163C52.6209 84.2235 52.2949 84.3154 52.4347 82.6889C54.3127 82.7265 55.3668 84.1246 57.8543 82.9314C57.7889 83.791 57.3573 83.9614 57.5989 84.3099C58.0614 84.9883 58.3804 85.7597 58.5353 86.5738C58.4441 87.1351 58.365 87.6006 58.1568 88.95H58.1545ZM58.3498 84.0461C58.6113 83.4707 58.6818 82.8224 58.5505 82.2014C58.5346 82.1414 58.5053 82.0862 58.4647 82.0403C58.4242 81.9944 58.3737 81.959 58.3174 81.9372C58.2611 81.9153 58.2006 81.9076 58.1408 81.9146C58.081 81.9217 58.0237 81.9433 57.9736 81.9777C57.1517 82.5179 56.1623 82.7167 55.2042 82.5342C53.7138 82.1237 52.1756 81.4407 50.86 82.367C50.4739 81.0239 52.684 79.8016 53.9456 79.249C57.529 77.6751 58.5505 81.918 58.7025 82.1402C59.1425 82.8074 59.0027 84.0194 58.8332 84.9662C58.6983 84.646 58.5373 84.3382 58.3521 84.0461H58.3498ZM51.6664 82.8121C51.6248 83.2669 51.6327 83.725 51.6899 84.178C51.4822 84.4685 51.2938 84.7733 51.126 85.0902C51.05 84.2879 51.085 83.8059 51.05 83.1952C51.2292 83.0258 51.4396 82.8955 51.6687 82.8121H51.6664ZM51.1572 92.6678C51.1655 92.9103 51.0911 92.7722 53.3612 95.0338C52.8656 95.6585 52.4046 96.3116 51.9803 96.99C51.563 95.6743 51.1169 93.5062 50.9816 92.8295C51.0424 92.7769 51.1085 92.7204 51.1595 92.6678H51.1572ZM66.9925 96.1037C65.357 94.3367 61.8519 93.4975 60.7826 93.0878C59.9092 92.6944 59.0928 92.1779 58.3567 91.5531C58.4449 91.19 58.5024 90.8196 58.5284 90.4462C58.7647 89.8292 58.9203 89.1825 58.9913 88.523C59.3349 88.4312 59.6569 88.2682 59.9376 88.0439C60.2184 87.8196 60.4521 87.5387 60.6245 87.2183C60.984 86.3815 60.4786 85.0823 59.5757 85.142C59.7741 84.0501 59.9337 82.6771 59.3652 81.7531C58.9859 80.3709 58.1086 79.1911 56.9134 78.4561C56.3977 78.2172 55.8371 78.0993 55.272 78.1112C54.7069 78.123 54.1513 78.2641 53.6454 78.5244C51.6975 79.3793 50.5294 80.3472 50.1692 81.3999C50.0792 81.6436 50.04 81.9042 50.0543 82.1646C50.0686 82.425 50.136 82.6794 50.252 82.911C50.2989 83.2043 50.3169 83.5018 50.306 83.7989C50.3063 84.297 50.3316 84.7949 50.382 85.2904C50.1607 85.3194 49.9492 85.4021 49.7648 85.5317C49.5804 85.6613 49.4284 85.8342 49.3211 86.0362C49.2138 86.2382 49.1544 86.4636 49.1476 86.6939C49.1409 86.9242 49.187 87.1528 49.2823 87.3612C49.5636 88.1215 50.1102 88.7457 50.8144 89.111C50.878 89.4018 50.9649 89.6867 51.0743 89.9627L51.123 91.517C50.5649 92.3183 49.7772 92.9183 48.8711 93.2322C48.8171 93.2487 44.3012 94.6797 42.4924 96.1595V74.5963H66.9948L66.9925 96.1037ZM59.1372 87.6155C59.2071 87.1822 59.4062 86.0455 59.4123 86.0157C59.4846 85.9587 59.5729 85.9273 59.6639 85.9262C59.8068 86.0347 59.9107 86.1893 59.9593 86.3655C60.0079 86.5417 59.9983 86.7296 59.9321 86.8996C59.7522 87.2234 59.4723 87.4755 59.1372 87.6155ZM50.6624 88.059C50.1722 87.6061 49.6949 86.8188 50.0894 86.2787C50.2209 86.0989 50.3037 86.0659 50.3174 86.0659C50.3896 86.0777 50.5454 86.2944 50.6411 86.5369C50.6125 87.0442 50.6196 87.5529 50.6624 88.059ZM53.9715 68.4089C53.08 68.6499 51.943 68.7269 51.7553 68.4662C51.4908 68.0902 53.0047 66.9402 52.6065 64.6574C53.1844 65.086 53.8865 65.2984 54.5969 65.2594C55.3074 65.2205 55.9837 64.9325 56.5144 64.4431C56.2484 65.9511 56.2195 67.8186 57.4697 68.635C56.9672 69.9827 55.9898 71.0842 54.7337 71.7185C53.6809 71.3926 52.7175 70.8146 51.9217 70.0315C52.7175 69.8085 53.4917 69.5103 54.2344 69.1406C54.3155 69.0956 54.3781 69.0218 54.4105 68.9329C54.4429 68.8439 54.4429 68.7458 54.4106 68.6568C54.3783 68.5678 54.3158 68.494 54.2348 68.449C54.1537 68.4039 54.0596 68.3908 53.9699 68.4121L53.9715 68.4089ZM57.586 63.2452C58.1416 62.3849 58.5005 61.4054 58.6356 60.3807C58.7038 60.4027 58.7741 60.4172 58.8453 60.4239C58.4144 62.1446 59.5628 63.2758 60.6823 64.3709C61.4195 65.0923 63.2435 66.846 62.6522 67.704C62.1597 68.4105 60.1723 68.6248 58.3118 68.1648C56.6353 67.7527 57.0555 64.9188 57.5845 63.2483L57.586 63.2452ZM55.8654 54.8583C55.9234 54.6376 56.0324 54.4348 56.183 54.2672C56.3337 54.0996 56.5214 53.9723 56.7302 53.8962C56.9389 53.8201 57.1624 53.7974 57.3815 53.8302C57.6006 53.8629 57.8088 53.9501 57.9881 54.0843C58.4387 54.4956 58.6804 55.3693 58.7253 56.7533C58.7557 57.6741 59.0581 58.8571 59.809 59.1813C59.5754 59.4252 59.2753 59.5895 58.9487 59.6523C58.1218 59.6546 57.776 54.7491 55.8654 54.8583ZM56.0311 55.655C56.7819 55.9047 57.3603 58.6318 57.9364 59.7056C57.8224 61.9963 56.4004 64.4941 54.3507 64.4847C53.1887 64.4792 52.3435 63.4477 51.8929 62.7302C51.8374 62.6251 51.6892 62.3377 51.6223 62.238C52.4917 60.9632 52.1003 58.6184 51.9263 57.7895C52.7317 57.3276 53.4489 56.7182 54.0429 55.991C54.3651 55.5632 54.7831 55.3081 55.1305 55.7061C55.1621 55.7428 55.2003 55.7729 55.2429 55.7948L55.2581 55.7995C55.5918 55.9573 55.7453 55.5506 56.0311 55.655ZM53.4402 55.5075C52.7235 56.4597 50.5849 58.0312 49.1546 57.7753C49.8118 57.2744 50.3638 56.6409 50.7772 55.9133C51.0204 55.3685 52.3679 53.7467 53.5466 53.8268C53.7983 53.8604 54.0371 53.9612 54.2395 54.1192C54.442 54.2773 54.6011 54.4871 54.7011 54.728C54.447 54.749 54.2011 54.8303 53.9824 54.9655C53.7638 55.1007 53.5782 55.2862 53.4402 55.5075ZM49.3849 58.5792C50.0184 58.5783 50.644 58.4325 51.2165 58.1521C51.4148 59.2009 51.7485 61.7341 50.4739 62.2106C49.8319 62.4513 49.1482 62.5505 48.4668 62.5018C48.7102 62.3779 48.9128 62.1826 49.0492 61.9403C49.1856 61.6981 49.2497 61.4196 49.2336 61.1398C49.2046 60.2832 49.2553 59.4258 49.3849 58.5792ZM48.9676 63.2947C49.6849 63.2831 50.3915 63.1134 51.0401 62.797C51.0987 62.9053 51.1701 63.027 51.2537 63.1604C51.6654 63.7792 51.891 64.5098 51.9019 65.2605C51.9129 66.0112 51.7088 66.7485 51.3153 67.3798C50.6928 68.4231 50.9999 69.0558 51.6405 69.2944C47.1778 70.5057 44.6767 67.901 48.9676 63.2947ZM46.7948 69.4043C47.9181 70.4625 49.5407 70.5198 51.0379 70.238C52.285 71.5929 54.4214 72.728 54.9321 72.4917C55.0423 72.4407 57.4956 71.275 58.1895 68.9419C59.6433 69.2921 62.0556 69.4389 63.0983 68.3618C63.4821 68.4882 66.0942 69.5126 66.7942 73.8113H43.0563C43.0762 72.7226 43.3758 71.6588 43.9243 70.7289C44.4729 69.799 45.2508 69.0363 46.1784 68.5188C46.3207 68.8558 46.5308 69.1577 46.7948 69.4043ZM66.9948 71.5827C66.7057 70.7143 66.2442 69.9179 65.6398 69.2444C65.0354 68.571 64.3015 68.0353 63.4851 67.6718C63.5369 67.3834 63.5298 67.0869 63.4644 66.8015C63.399 66.516 63.2766 66.2478 63.1051 66.0139C61.5768 63.5231 58.7397 62.5685 59.7193 60.2049C60.3468 59.7943 60.896 59.2683 61.3397 58.653C61.3982 58.5738 61.4255 58.4746 61.4159 58.3755C61.4063 58.2764 61.3606 58.1847 61.288 58.1191C61.2154 58.0536 61.1214 58.0189 61.025 58.0223C60.9286 58.0256 60.8371 58.0667 60.7689 58.1372C60.6169 58.2942 60.3258 58.5462 60.1107 58.4598C59.828 58.3452 59.5187 57.6654 59.4883 56.7281C59.4541 55.6998 59.315 54.2452 58.495 53.4963C58.2487 53.2964 57.9624 53.1557 57.6569 53.0843C57.3514 53.0129 57.0344 53.0126 56.7288 53.0835C56.4232 53.1544 56.1367 53.2946 55.8901 53.494C55.6435 53.6935 55.4429 53.9471 55.303 54.2365C54.5498 52.9562 53.3581 52.5935 51.8024 53.6965C50.8463 53.7027 49.6493 54.3009 48.9479 56.9362C48.6439 57.207 48.3535 57.4331 48.1879 57.5539C48.1371 57.5903 48.0957 57.6389 48.0673 57.6955C48.0388 57.7521 48.0241 57.815 48.0245 57.8788C48.0249 57.9426 48.0403 58.0053 48.0694 58.0615C48.0986 58.1178 48.1405 58.1659 48.1917 58.2016C48.3336 58.2993 48.4868 58.3784 48.6477 58.4371C48.5051 59.3535 48.4511 60.2823 48.4865 61.2097C48.5481 61.9554 47.0281 62.1909 47.0121 62.1933C46.9302 62.2042 46.854 62.2424 46.7949 62.3022C46.7359 62.3619 46.6973 62.4398 46.685 62.5242C46.6728 62.6086 46.6874 62.6948 46.7268 62.7698C46.7663 62.8448 46.8283 62.9045 46.9035 62.9398C47.2544 63.088 47.6222 63.1895 47.9979 63.2421C46.9947 64.436 45.8699 66.1646 46.0067 67.7401C45.113 68.1865 44.3316 68.8405 43.7236 69.651C43.1156 70.4615 42.6976 71.4064 42.5023 72.4116V48.09H66.9948V71.5827ZM92.5894 98.9329H67.7548C67.7548 97.1431 67.7487 97.6635 67.7867 97.4657C68.0626 95.9883 71.9363 94.2472 75.3449 93.1105C76.0153 95.1515 77.7709 96.4954 80.4613 96.3479C84.1556 96.1461 85.1041 93.9097 85.3443 92.9174C87.9495 93.671 91.767 95.336 92.5894 98.7264V98.9329ZM77.9973 92.0123C77.9973 90.5106 78.0072 90.6778 78.0072 90.184C78.499 90.6888 79.1638 90.9726 79.8571 90.9738C80.8333 90.9905 81.7816 90.6369 82.5224 89.9799V91.9754C82.5217 92.0716 82.5552 92.1647 82.6165 92.2371C82.6779 92.3094 82.7629 92.356 82.8553 92.3679C83.4492 92.4556 84.0385 92.5746 84.6207 92.7243C84.449 93.4944 83.6943 95.387 80.4233 95.5668C77.289 95.7364 76.3238 93.6954 76.0647 92.8797C76.6438 92.6968 77.2047 92.532 77.7131 92.3946C77.7945 92.3722 77.8663 92.3224 77.9174 92.2532C77.9684 92.184 77.9957 92.0993 77.9951 92.0123H77.9973ZM76.8148 84.901C77.0625 83.2187 78.4427 81.3685 78.9967 80.6769C80.3047 81.7563 81.7145 83.1222 83.3531 82.6708C83.6967 83.9764 83.7228 85.3495 83.4291 86.668C83.0491 88.6148 81.8232 90.1888 79.8616 90.1888C77.8347 90.1888 77.0291 86.9703 76.8125 84.901H76.8148ZM92.5916 96.7545C90.6468 93.4999 86.1385 92.2109 84.0447 91.7776C85.3952 91.4216 86.6868 90.8594 87.8766 90.1095C87.9496 90.0627 88.0052 89.9918 88.0341 89.9082C88.0631 89.8247 88.0638 89.7335 88.0362 89.6495C88.0195 89.6008 86.4235 84.7683 84.9506 81.0145C83.3979 77.0573 81.1285 77.5769 78.5005 78.1759L78.2094 78.2426C75.3905 78.88 74.7681 83.0696 74.3334 85.9639C74.0386 87.503 73.5474 88.995 72.8727 90.4007C72.8315 90.4844 72.8208 90.5805 72.8424 90.6717C72.864 90.7629 72.9166 90.843 72.9905 90.8976C74.4193 91.9495 76.3124 91.4871 77.2373 91.1582V91.7077C75.6877 92.1411 69.8258 93.8979 67.7571 96.092V74.5963H92.5916V96.7545ZM84.262 86.3415C84.3346 85.8869 84.3715 85.4269 84.3722 84.9662C84.4855 84.8335 84.6641 84.6812 84.7568 84.6961C84.7948 84.7008 84.8928 84.7785 84.9741 84.9701C85.1277 85.7669 85.0357 86.3321 84.262 86.3415ZM92.5894 73.8113H67.7548C67.7548 70.636 67.7373 71.4131 67.8217 71.1847C67.8331 71.1549 69.0331 68.1672 76.7053 65.9527C77.2981 67.6349 78.4146 69.347 80.1519 69.3085C81.0199 69.242 81.8394 68.8698 82.4735 68.2541C83.1076 67.6385 83.5179 66.8166 83.6358 65.926C85.0965 66.2039 90.5244 67.3986 92.5894 70.0943V73.8113ZM77.3696 54.3582C78.2603 54.0968 78.6205 55.1754 80.4977 55.0592C81.1193 55.0442 81.7283 54.8757 82.2739 54.5678C82.5566 54.4155 82.5855 54.3998 82.8454 54.5435C83.5165 54.9156 83.6707 58.0815 83.765 59.018C83.7961 59.3375 83.3759 62.3754 83.2938 62.8472C83.2879 62.8621 83.2829 62.8773 83.2786 62.8927C83.1192 63.5187 82.7907 64.0848 82.3313 64.525C81.872 64.9653 81.3009 65.2614 80.6847 65.3788C79.4847 65.4283 78.1387 64.3128 77.2419 63.4901C76.4819 62.7923 76.412 60.1806 76.45 59.1287L76.4644 59.1349C76.9698 57.9323 76.9964 57.9739 76.9721 57.8052C76.7661 56.2595 76.8771 54.5034 77.3696 54.3582ZM82.9465 65.4126C82.7367 67.0666 81.7966 68.4521 80.1208 68.5235C78.239 68.6217 77.3263 65.4157 77.3263 65.4157L77.2001 64.4918C79.2909 66.2973 81.1118 66.9253 83.0118 64.9141L82.9465 65.4126ZM92.5894 68.9451C90.0494 66.4629 85.1337 65.4032 83.7475 65.1473C84.1001 62.4783 84.0751 62.8527 84.2088 61.8683C84.6168 61.6536 84.9744 61.3492 85.2564 60.9765C85.5384 60.6038 85.7381 60.1719 85.8413 59.7111C86.0883 58.6569 85.6847 57.5249 84.6937 57.8083C84.9217 55.0506 84.0188 52.5982 81.3444 52.3965C78.0521 52.1492 76.1574 53.0779 75.7135 55.1573C75.568 56.0189 75.5325 56.8964 75.6079 57.7675C75.3972 57.7242 75.1787 57.7476 74.981 57.8346C74.7834 57.9216 74.6157 58.0681 74.4998 58.255C74.3454 58.5239 74.2559 58.8273 74.239 59.1395C74.2221 59.4518 74.2782 59.7636 74.4025 60.0487C74.6655 60.8065 75.1695 61.4499 75.8321 61.8738C75.9094 62.41 76.0631 62.9314 76.2881 63.421L76.5321 65.1889C71.073 66.7589 68.7291 68.7284 67.7563 69.8989V48.09H92.5909L92.5894 68.9451ZM84.3388 60.8596C84.4391 60.0542 84.5295 59.2613 84.5827 58.7825C84.6869 58.6671 84.8518 58.5195 85.0068 58.5588C85.0922 58.702 85.1452 58.8633 85.1618 59.0306C85.1784 59.1979 85.1581 59.367 85.1026 59.5251C84.9753 60.0358 84.7105 60.4988 84.3388 60.8604V60.8596ZM75.7113 60.7772C75.2606 60.2622 74.762 59.2715 75.1078 58.7236C75.3313 58.4496 75.4817 58.4025 75.6999 58.8374C75.6666 59.4839 75.6704 60.1319 75.7113 60.7779V60.7772ZM93.3494 97.4995C93.5014 97.2381 92.7543 94.277 101.116 91.5602C101.169 93.2798 101.392 94.9894 101.779 96.6627C101.798 96.7315 101.835 96.7937 101.886 96.8424C101.937 96.891 102 96.9244 102.068 96.9388C102.136 96.9532 102.207 96.9481 102.272 96.924C102.337 96.9 102.395 96.8579 102.439 96.8024C102.455 96.782 103.963 94.8995 105.429 95.1476V98.9313H93.3494V97.4995ZM106.189 98.9321V95.2473C106.781 95.1947 108.53 95.157 109.426 96.4303C109.467 96.4898 109.525 96.5359 109.591 96.5634C109.657 96.591 109.729 96.5988 109.799 96.586C109.869 96.5733 109.934 96.5404 109.987 96.4912C110.04 96.442 110.079 96.3785 110.098 96.3078C110.481 94.8647 110.593 93.3591 110.427 91.8726C112.403 92.5343 116.198 93.9803 117.084 95.1288C117.448 95.6672 117.734 96.2581 117.932 96.8825V98.9321H106.189Z" fill="black"/>
<path fill-rule="evenodd" clip-rule="evenodd" d="M39.484 107.113H120.666L125.497 114.602H34.1123L39.484 107.113Z" fill="white"/>
<path d="M125.497 114.995C27.4178 114.995 33.9371 115.114 33.7737 114.778C33.7421 114.713 33.7286 114.64 33.7346 114.568C33.7407 114.496 33.766 114.427 33.8079 114.368L39.1788 106.879C39.2214 106.819 39.1788 106.752 39.9122 106.765C42.2507 106.808 54.5658 106.72 120.666 106.72C120.728 106.72 120.79 106.736 120.845 106.766C120.9 106.797 120.947 106.841 120.982 106.894L125.813 114.384C125.852 114.443 125.874 114.512 125.877 114.583C125.881 114.654 125.865 114.725 125.833 114.787C125.8 114.85 125.752 114.902 125.693 114.939C125.634 114.975 125.566 114.995 125.497 114.995ZM34.8673 114.21H124.787L120.463 107.505H39.6758L34.8673 114.21Z" fill="black"/>
<path fill-rule="evenodd" clip-rule="evenodd" d="M62.898 116.618H100.448L102.722 120.687H61.0049L62.898 116.618Z" fill="white"/>
<path d="M102.723 121.079C58.084 121.079 60.8587 121.181 60.6847 120.896C60.6506 120.84 60.6308 120.776 60.6271 120.71C60.6234 120.644 60.6359 120.578 60.6634 120.518L62.5558 116.411C62.6835 116.136 60.3017 116.226 100.449 116.226C100.519 116.234 100.585 116.259 100.642 116.301C100.699 116.342 100.745 116.397 100.776 116.461L103.05 120.491C103.083 120.551 103.101 120.618 103.101 120.687C103.101 120.756 103.083 120.823 103.05 120.883C103.017 120.942 102.969 120.992 102.912 121.026C102.854 121.061 102.789 121.079 102.723 121.079ZM61.6066 120.294H102.06L100.228 117.011H63.1402L61.6066 120.294Z" fill="black"/>
<path d="M79.8403 45.282C79.8403 45.6245 79.9721 45.953 80.2065 46.1952C80.441 46.4373 80.759 46.5734 81.0905 46.5734C81.4221 46.5734 81.7401 46.4373 81.9746 46.1952C82.209 45.953 82.3407 45.6245 82.3407 45.282C82.3407 44.9396 82.209 44.6111 81.9746 44.3689C81.7401 44.1268 81.4221 43.9907 81.0905 43.9907C80.759 43.9907 80.441 44.1268 80.2065 44.3689C79.9721 44.6111 79.8403 44.9396 79.8403 45.282Z" fill="white"/>
<path d="M85.2344 45.5372C85.2344 45.7116 85.3015 45.879 85.4209 46.0023C85.5404 46.1257 85.7023 46.195 85.8713 46.195C86.0402 46.195 86.2022 46.1257 86.3216 46.0023C86.441 45.879 86.5081 45.7116 86.5081 45.5372C86.5081 45.3627 86.441 45.1954 86.3216 45.072C86.2022 44.9486 86.0402 44.8793 85.8713 44.8793C85.7023 44.8793 85.5404 44.9486 85.4209 45.072C85.3015 45.1954 85.2344 45.3627 85.2344 45.5372Z" fill="black"/>
<path d="M81.0909 46.9666C80.7685 46.9668 80.4533 46.8682 80.1851 46.6833C79.9169 46.4984 79.7079 46.2355 79.5843 45.9279C79.4608 45.6203 79.4284 45.2818 79.4911 44.9551C79.5539 44.6284 79.709 44.3283 79.9369 44.0927C80.1648 43.8571 80.4552 43.6966 80.7714 43.6315C81.0876 43.5664 81.4154 43.5996 81.7133 43.7269C82.0112 43.8542 82.266 44.0699 82.4452 44.3467C82.6245 44.6235 82.7202 44.949 82.7204 45.282C82.72 45.7284 82.5482 46.1564 82.2428 46.4722C81.9373 46.788 81.5231 46.9658 81.0909 46.9666ZM81.0909 44.384C80.9187 44.3838 80.7504 44.4364 80.6072 44.5352C80.464 44.6339 80.3523 44.7742 80.2864 44.9385C80.2204 45.1028 80.2031 45.2836 80.2366 45.458C80.2702 45.6324 80.3531 45.7926 80.4748 45.9184C80.5966 46.0441 80.7517 46.1298 80.9206 46.1644C81.0895 46.1991 81.2645 46.1812 81.4235 46.1131C81.5826 46.045 81.7185 45.9296 81.814 45.7817C81.9096 45.6338 81.9605 45.4599 81.9604 45.282C81.96 45.044 81.8682 44.8158 81.7053 44.6475C81.5423 44.4792 81.3214 44.3844 81.0909 44.384Z" fill="black"/>
<path d="M32.2567 68.1616C29.4363 69.1209 19.4363 69.8714 16.2382 70.0912C17.791 68.2735 19.2434 66.3668 20.5884 64.3803C20.6225 64.3298 20.6447 64.2717 20.6531 64.2108C20.6615 64.1498 20.6559 64.0877 20.6367 64.0294C20.6176 63.9711 20.5854 63.9182 20.5428 63.8751C20.5002 63.832 20.4484 63.7999 20.3916 63.7813C16.1584 62.406 8.08566 61.9672 7.74442 61.9491C7.6583 61.9445 7.57323 61.9703 7.50318 62.0222C7.43312 62.0741 7.38225 62.1491 7.35891 62.2349C7.33557 62.3206 7.34116 62.412 7.37475 62.494C7.40835 62.5761 7.46795 62.6438 7.54377 62.6862C9.69229 63.8881 14.9849 64.8756 16.9723 65.2163C15.205 67.0719 13.7629 69.2302 12.7103 71.5952C12.685 71.655 12.6745 71.7205 12.6799 71.7855C12.6853 71.8506 12.7062 71.9132 12.741 71.9678C12.7757 72.0223 12.823 72.0671 12.8787 72.098C12.9344 72.1289 12.9966 72.1449 13.0599 72.1447C17.7833 72.1447 28.3837 71.1313 32.5516 68.8854C32.5976 68.8654 32.6393 68.8362 32.6744 68.7996C32.7095 68.7629 32.7373 68.7195 32.7561 68.6717C32.775 68.624 32.7845 68.5729 32.7842 68.5213C32.784 68.4697 32.7739 68.4187 32.7545 68.3712C32.7351 68.3237 32.7069 68.2806 32.6714 68.2443C32.6359 68.2081 32.5938 68.1794 32.5476 68.1599C32.5014 68.1405 32.4519 68.1306 32.402 68.1309C32.3521 68.1312 32.3027 68.1416 32.2567 68.1616Z" fill="white"/>
<path d="M13.078 72.5341C12.9509 72.5372 12.825 72.5074 12.7119 72.4473C12.5987 72.3871 12.5021 72.2986 12.4307 72.1899C12.3593 72.0811 12.3154 71.9556 12.3032 71.8249C12.291 71.6941 12.3107 71.5622 12.3606 71.4413C13.3328 69.2591 14.6279 67.2463 16.1994 65.4753C13.7742 65.0381 9.32667 64.1275 7.36283 63.0277C7.21108 62.9422 7.09209 62.8058 7.02548 62.6411C6.95888 62.4763 6.94864 62.293 6.99645 62.1214C7.04427 61.9499 7.14728 61.8003 7.2885 61.6973C7.42971 61.5943 7.6007 61.5441 7.77323 61.5551C8.10535 61.5723 16.1902 62.0033 20.5055 63.4045C20.6192 63.4415 20.7228 63.5057 20.8081 63.5917C20.8933 63.6778 20.9578 63.7833 20.9963 63.8998C21.0347 64.0164 21.0461 64.1406 21.0295 64.2625C21.0129 64.3844 20.9688 64.5006 20.9007 64.6016C20.6773 64.9306 18.873 67.5713 17.144 69.6311C20.9288 69.3572 29.5822 68.6546 32.1381 67.7856C32.3192 67.7247 32.5158 67.7362 32.6891 67.8179C32.8623 67.8996 32.9996 68.0455 33.0737 68.2267C33.1477 68.408 33.1532 68.6113 33.089 68.7965C33.0248 68.9818 32.8957 69.1353 32.7271 69.2269C32.5021 69.3509 27.0613 72.3684 13.078 72.5341ZM7.72231 62.3408C9.85563 63.5348 15.3869 64.5467 17.0316 64.8285C17.1006 64.8403 17.1651 64.8715 17.2181 64.9188C17.271 64.966 17.3103 65.0274 17.3316 65.0963C17.3529 65.1651 17.3554 65.2387 17.3388 65.3089C17.3222 65.3791 17.2871 65.4432 17.2375 65.4942C15.5054 67.3149 14.0912 69.4313 13.0575 71.7499C26.8637 71.4217 32.1548 68.6515 32.3729 68.5314C29.4925 69.5134 19.3123 70.2717 16.2609 70.4813C16.1848 70.4867 16.1089 70.4684 16.043 70.4286C15.9772 70.3889 15.9244 70.3296 15.8916 70.2585C15.8588 70.1873 15.8475 70.1077 15.8591 70.0298C15.8708 69.9519 15.9049 69.8795 15.9569 69.8219C17.4984 68.0184 18.9396 66.1262 20.2737 64.1542C16.055 62.782 7.80819 62.3456 7.72231 62.3408Z" fill="black"/>
<path d="M34.4239 61.997C29.7157 59.3571 22.7472 55.2711 20.8199 53.7121C22.6209 53.2045 24.3169 52.3606 25.8237 51.2221C25.8671 51.188 25.903 51.1447 25.9288 51.0951C25.9546 51.0454 25.9697 50.9906 25.9732 50.9344C25.9766 50.8782 25.9683 50.8218 25.9488 50.7692C25.9293 50.7166 25.8991 50.6689 25.8602 50.6294C25.4703 50.2369 16.2842 40.9904 12.0191 39.2642C11.9377 39.2313 11.8479 39.2284 11.7647 39.2559C11.6815 39.2834 11.61 39.3396 11.5622 39.4152C11.5145 39.4908 11.4934 39.581 11.5026 39.6708C11.5117 39.7605 11.5505 39.8443 11.6125 39.9079C11.6885 39.9817 18.5695 47.0718 22.0245 50.7354C20.8898 51.1577 18.4297 52.2269 17.485 53.8307C17.4346 53.9159 17.4176 54.0177 17.4374 54.1154C17.4572 54.2131 17.5122 54.2994 17.5914 54.3566C18.0314 54.6745 28.4427 62.2584 34.2088 62.7334C34.296 62.7416 34.3833 62.7185 34.4559 62.6679C34.5285 62.6174 34.582 62.5425 34.6073 62.4559C34.6326 62.3693 34.6281 62.2763 34.5947 62.1927C34.5613 62.1091 34.5009 62.04 34.4239 61.997Z" fill="white"/>
<path d="M34.2417 63.1258C28.2992 62.5355 17.8135 54.9979 17.3697 54.6769C17.2114 54.5624 17.1012 54.3898 17.0617 54.1944C17.0222 53.999 17.0562 53.7954 17.1569 53.625C18.0164 52.1657 19.9689 51.1475 21.3445 50.58C17.7907 46.8245 11.3984 40.2415 11.3436 40.1866C11.2191 40.0595 11.1408 39.8919 11.122 39.7121C11.1033 39.5323 11.1452 39.3513 11.2408 39.1997C11.3363 39.0482 11.4795 38.9353 11.6463 38.8803C11.8131 38.8252 11.9932 38.8313 12.1561 38.8976C16.4881 40.6544 25.7335 49.9527 26.1249 50.3476C26.2028 50.4268 26.2633 50.5224 26.3022 50.6279C26.3411 50.7334 26.3575 50.8464 26.3503 50.959C26.3431 51.0717 26.3124 51.1814 26.2604 51.2808C26.2084 51.3801 26.1362 51.4666 26.0489 51.5345C24.7158 52.5492 23.2323 53.3339 21.6561 53.8581C24.025 55.5521 29.817 58.97 34.6012 61.6516C34.7491 61.7349 34.8661 61.8667 34.9337 62.0261C35.0012 62.1856 35.0156 62.3638 34.9744 62.5326C34.9332 62.7014 34.8389 62.8512 34.7063 62.9586C34.5736 63.066 34.4102 63.1248 34.2417 63.1258ZM11.8794 39.6292C11.9349 39.6857 18.8426 46.7994 22.2914 50.4622C22.3358 50.5093 22.3679 50.5671 22.385 50.6303C22.4021 50.6935 22.4036 50.7601 22.3893 50.8241C22.375 50.8881 22.3454 50.9473 22.3032 50.9964C22.261 51.0455 22.2076 51.0829 22.1478 51.1051C21.1393 51.4803 18.6966 52.5181 17.8029 54.034C18.2406 54.348 28.5668 61.7741 34.2394 62.3416C30.4394 60.2111 22.6965 55.7303 20.5822 54.0206C20.5269 53.9758 20.4848 53.9161 20.4604 53.8481C20.436 53.7801 20.4303 53.7064 20.444 53.6352C20.4577 53.564 20.4902 53.4982 20.538 53.445C20.5857 53.3918 20.6468 53.3533 20.7144 53.3337C22.4694 52.8392 24.1219 52.0174 25.5906 50.9089C25.2068 50.5187 16.0708 41.3272 11.8794 39.6292Z" fill="black"/>
<path d="M52.313 20.925C52.3098 18.1909 51.2568 15.5696 49.3849 13.6364C47.5131 11.7031 44.9752 10.6156 42.3281 10.6125H31.0041C29.693 10.6125 28.3947 10.8792 27.1834 11.3975C25.9721 11.9157 24.8714 12.6754 23.9443 13.633C23.0172 14.5906 22.2818 15.7274 21.78 16.9786C21.2783 18.2298 21.02 19.5708 21.02 20.925C21.02 22.2793 21.2783 23.6203 21.78 24.8715C22.2818 26.1226 23.0172 27.2595 23.9443 28.2171C24.8714 29.1747 25.9721 29.9343 27.1834 30.4526C28.3947 30.9708 29.693 31.2376 31.0041 31.2376H34.1893L41.8372 39.8938C41.8916 39.9552 41.9636 39.9972 42.0427 40.0137C42.1218 40.0301 42.2038 40.0201 42.2771 39.9851C42.3503 39.9501 42.4108 39.892 42.4499 39.8191C42.489 39.7463 42.5047 39.6624 42.4946 39.5798L41.4503 31.2376H42.3281C44.9753 31.2347 47.5132 30.1473 49.3851 28.2139C51.257 26.2806 52.31 23.6593 52.313 20.925Z" fill="black"/>
<path d="M127.726 14.3161H113.313C109.97 14.3161 106.764 15.6879 104.4 18.1296C102.036 20.5713 100.708 23.883 100.708 27.3362C100.708 30.7893 102.036 34.101 104.4 36.5427C106.764 38.9844 109.97 40.3562 113.313 40.3562H114.549L113.204 51.0934C113.194 51.1761 113.21 51.2599 113.249 51.3328C113.288 51.4056 113.349 51.4638 113.422 51.4987C113.495 51.5337 113.577 51.5437 113.656 51.5273C113.735 51.5109 113.807 51.4689 113.862 51.4074L123.628 40.3546H127.732C131.075 40.3546 134.281 38.9829 136.645 36.5411C139.009 34.0994 140.337 30.7877 140.337 27.3346C140.337 23.8815 139.009 20.5698 136.645 18.128C134.281 15.6863 131.075 14.3146 127.732 14.3146L127.726 14.3161Z" fill="black"/>
<path d="M35.606 26.2245C35.606 26.5539 35.7326 26.8698 35.9581 27.1027C36.1836 27.3356 36.4894 27.4664 36.8083 27.4664C37.1272 27.4664 37.433 27.3356 37.6584 27.1027C37.8839 26.8698 38.0106 26.5539 38.0106 26.2245C38.0106 25.8952 37.8839 25.5793 37.6584 25.3464C37.433 25.1135 37.1272 24.9827 36.8083 24.9827C36.4894 24.9827 36.1836 25.1135 35.9581 25.3464C35.7326 25.5793 35.606 25.8952 35.606 26.2245Z" fill="white"/>
<path d="M118.508 34.281C118.508 34.7003 118.669 35.1024 118.956 35.3989C119.243 35.6954 119.632 35.862 120.038 35.862C120.444 35.862 120.834 35.6954 121.121 35.3989C121.408 35.1024 121.569 34.7003 121.569 34.281C121.569 33.8617 121.408 33.4596 121.121 33.1631C120.834 32.8666 120.444 32.7 120.038 32.7C119.632 32.7 119.243 32.8666 118.956 33.1631C118.669 33.4596 118.508 33.8617 118.508 34.281Z" fill="white"/>
<path fill-rule="evenodd" clip-rule="evenodd" d="M36.642 23.269C37.8291 23.3083 38.4143 21.7626 38.485 19.2145C38.5762 15.9175 38.7274 13.451 36.6116 13.5806C34.0861 13.7344 35.1334 23.218 36.642 23.269Z" fill="white"/>
<path fill-rule="evenodd" clip-rule="evenodd" d="M119.822 30.6222C121.334 30.6716 122.079 28.7044 122.168 25.4616C122.286 21.2618 122.478 18.125 119.784 18.2898C116.573 18.4861 117.906 30.5594 119.822 30.6222Z" fill="white"/>
<path fill-rule="evenodd" clip-rule="evenodd" d="M128.979 85.39L130.628 100.033C132.771 101.286 135.188 101.952 137.651 101.969C140.582 101.867 143.225 101.527 145.152 100.033L146.498 85.39H128.979Z" fill="white"/>
<path fill-rule="evenodd" clip-rule="evenodd" d="M132.783 77.0737C132.796 76.9858 133.195 74.1778 134.151 73.0035C135.065 73.9846 135.896 75.0442 136.635 76.171C136.635 76.171 137.389 74.6009 137.739 74.1025C138.065 74.6814 138.36 75.2778 138.625 75.8891C139.249 74.7634 140.089 73.7814 141.094 73.0035C141.738 74.258 142.14 75.6296 142.279 77.0423C142.682 76.3216 143.162 75.6503 143.711 75.0413C144.13 76.1439 144.366 77.3116 144.409 78.4953C145.633 77.5757 146.962 76.8156 148.367 76.2322C148.367 76.2322 148.607 75.5979 148.367 79.5394C148.315 80.6681 148.033 81.7728 147.538 82.7807C147.044 83.7887 146.348 84.6771 145.498 85.3876H130.257C127.583 83.3953 127.576 77.0666 127.576 77.0666C128.56 77.6609 129.684 78.4208 130.672 79.1139C130.568 77.752 130.655 76.3817 130.929 75.0453L132.783 77.0737Z" fill="#81F8F8"/>
<path d="M148.484 75.813C148.433 75.8026 148.379 75.8032 148.328 75.8148C148.277 75.8264 148.228 75.8488 148.185 75.8805C146.956 76.3215 145.802 76.9599 144.765 77.7724C144.641 76.7901 144.405 75.8264 144.063 74.9008C144.041 74.8417 144.005 74.7889 143.959 74.7472C143.913 74.7055 143.857 74.676 143.797 74.6612C143.738 74.6465 143.675 74.647 143.616 74.6626C143.556 74.6782 143.501 74.7085 143.455 74.7509C143.094 75.1002 142.78 75.4977 142.52 75.9331C142.294 74.8476 141.926 73.7989 141.426 72.8159C141.401 72.7678 141.366 72.7258 141.323 72.6926C141.281 72.6593 141.233 72.6356 141.181 72.6229C141.129 72.6101 141.076 72.6087 141.024 72.6187C140.971 72.6287 140.922 72.6499 140.878 72.6809C140.009 73.334 139.263 74.1444 138.674 75.0727C138.37 74.4353 138.09 73.9431 138.066 73.9047C138.034 73.8485 137.989 73.8015 137.935 73.7678C137.881 73.7341 137.819 73.7149 137.756 73.7119C137.693 73.7088 137.631 73.7221 137.574 73.7504C137.517 73.7787 137.468 73.8212 137.431 73.8741C137.128 74.3251 136.859 74.7996 136.626 75.2933C135.992 74.3354 135.242 73.4648 134.395 72.7028C134.356 72.6695 134.312 72.6443 134.265 72.6286C134.217 72.6129 134.167 72.607 134.117 72.6113C134.068 72.6156 134.019 72.63 133.975 72.6536C133.93 72.6773 133.891 72.7097 133.859 72.7491C133.192 73.7831 132.747 74.9525 132.553 76.1788C132.121 75.6738 131.662 75.195 131.177 74.7446C131.127 74.6998 131.067 74.6691 131.002 74.6556C130.938 74.642 130.871 74.6461 130.808 74.6673C130.746 74.6885 130.689 74.7262 130.645 74.7766C130.601 74.8271 130.57 74.8885 130.556 74.955C130.326 76.069 130.224 77.2069 130.252 78.3454C129.426 77.7763 128.552 77.1962 127.767 76.722C127.71 76.6872 127.644 76.6688 127.577 76.6685C127.51 76.6683 127.444 76.6863 127.387 76.7207C127.329 76.7551 127.28 76.8047 127.247 76.8645C127.213 76.9242 127.196 76.9921 127.196 77.0612C127.196 77.3029 127.237 82.4659 129.316 84.9897C129.018 84.9897 128.839 84.9543 128.697 85.1215C128.528 85.3146 128.469 84.4833 130.251 100.071C130.258 100.131 130.278 100.188 130.309 100.239C130.341 100.289 130.383 100.331 130.433 100.362C132.535 101.596 134.897 102.282 137.313 102.36C139.964 102.36 143.264 101.981 145.381 100.34C145.579 100.183 145.474 101.037 146.88 85.419C146.885 85.3645 146.879 85.3095 146.862 85.2575C146.845 85.2055 146.818 85.1578 146.782 85.1173C146.746 85.0769 146.703 85.0446 146.654 85.0226C146.605 85.0006 146.553 84.9894 146.5 84.9897C147.842 83.5076 148.637 81.5852 148.745 79.559C148.968 75.9213 148.846 75.8915 148.484 75.813ZM143.557 75.78C143.845 76.626 144.003 77.5128 144.028 78.409C141.792 80.5159 142.911 81.0819 142.364 78.0165C142.655 77.215 143.057 76.4612 143.557 75.7785V75.78ZM140.956 73.6001C141.273 74.2943 141.523 75.0186 141.704 75.7628C141.575 75.4495 141.428 75.1439 141.266 74.8475C141.24 74.8015 141.206 74.7614 141.165 74.7295C141.124 74.6975 141.078 74.6745 141.028 74.6616C140.978 74.6488 140.927 74.6465 140.876 74.6548C140.825 74.6631 140.777 74.6819 140.734 74.7101C140.14 75.1307 139.612 75.6421 139.167 76.2267C139.129 76.1239 139.091 76.0226 139.05 75.9205C139.559 75.0449 140.203 74.2606 140.956 73.5985V73.6001ZM140.81 75.6285C141.721 77.6251 142.016 79.8619 141.657 82.0373C141.539 82.9204 141.353 84.3562 140.745 84.9959H138.214C138.456 83.6633 138.427 82.2933 138.13 80.9728C138.21 79.9425 138.489 78.939 138.949 78.0211C139.409 77.1033 140.042 76.2893 140.81 75.627V75.6285ZM137.716 74.8655C138.083 75.5507 138.386 76.2704 138.621 77.0148C136.925 79.7757 138.393 80.253 136.686 77.0502C136.984 76.2997 137.328 75.5695 137.716 74.8639V74.8655ZM137.441 84.9959H134.941C133.704 84.2203 133.666 81.0599 133.649 80.9799C133.665 80.9014 133.352 77.9074 134.855 75.6552C136.618 77.8195 138.133 81.7971 137.441 84.9975V84.9959ZM134.212 73.5922C134.998 74.342 135.68 75.2003 136.238 76.1427C136.227 76.1694 136.213 76.1984 136.203 76.2212C135.881 75.7065 135.517 75.2214 135.115 74.7713C135.08 74.7325 135.037 74.7014 134.99 74.6801C134.943 74.6587 134.892 74.6475 134.84 74.6472C134.789 74.6468 134.738 74.6573 134.69 74.6779C134.643 74.6986 134.6 74.729 134.564 74.7674C133.993 75.4701 133.569 76.2871 133.319 77.1671C133.274 77.1028 133.229 77.04 133.183 76.9764C133.349 75.7984 133.697 74.6554 134.212 73.5907V73.5922ZM131.172 75.8185C131.894 76.5314 132.53 77.3316 133.066 78.2018C132.936 78.8637 132.869 79.5374 132.868 80.2129C132.422 79.8848 131.768 79.4107 131.035 78.8941C130.974 77.8663 131.02 76.8346 131.172 75.8169V75.8185ZM127.98 77.7731C129.968 79.0291 132.295 80.7561 132.897 81.2012C132.907 82.5308 133.243 83.8361 133.872 84.9959H130.394C128.495 83.466 128.072 79.4169 127.981 77.7755L127.98 77.7731ZM144.789 99.8191C142.894 101.205 140.235 101.485 137.637 101.575C135.31 101.558 133.024 100.944 130.983 99.7885L129.406 85.7825H146.083L144.789 99.8191ZM147.986 79.5158C147.933 80.5649 147.673 81.5917 147.223 82.5338C146.773 83.4759 146.142 84.3136 145.369 84.9959H141.672C142.082 84.1123 142.33 83.1579 142.403 82.1809C143.612 78.8093 146.954 77.2095 148.092 76.7519C148.099 77.1538 148.083 77.9498 147.987 79.5143L147.986 79.5158Z" fill="black"/>
<path d="M109.216 83.3592H106.304C106.203 83.3592 106.107 83.4005 106.035 83.4742C105.964 83.5478 105.924 83.6476 105.924 83.7517V84.3624H104.936V83.7862C104.936 83.6821 104.896 83.5823 104.825 83.5087C104.754 83.4351 104.657 83.3937 104.556 83.3937H101.645C101.544 83.3937 101.447 83.4351 101.376 83.5087C101.305 83.5823 101.265 83.6821 101.265 83.7862V85.6844C101.265 85.7885 101.305 85.8883 101.376 85.9619C101.447 86.0355 101.544 86.0769 101.645 86.0769H104.556C104.657 86.0769 104.754 86.0355 104.825 85.9619C104.896 85.8883 104.936 85.7885 104.936 85.6844V85.1474H105.924V85.6498C105.924 85.7539 105.964 85.8538 106.035 85.9274C106.107 86.001 106.203 86.0423 106.304 86.0423H109.216C109.317 86.0423 109.413 86.001 109.484 85.9274C109.556 85.8538 109.596 85.7539 109.596 85.6498V83.7517C109.596 83.6476 109.556 83.5478 109.484 83.4742C109.413 83.4005 109.317 83.3592 109.216 83.3592ZM104.177 85.2919H102.025V84.1787H104.177V85.2919ZM108.836 85.2573H106.684V84.1442H108.836V85.2573Z" fill="black"/>
<path d="M83.3525 58.952C83.0045 58.6473 82.5621 58.4817 82.1059 58.4855C81.6496 58.4892 81.2099 58.662 80.8665 58.9724C80.792 59.0425 80.7474 59.1403 80.7426 59.2443C80.7378 59.3483 80.7733 59.45 80.8411 59.527C80.9089 59.604 81.0036 59.6501 81.1043 59.655C81.205 59.66 81.3034 59.6234 81.378 59.5533C81.4691 59.4733 81.5717 59.4084 81.682 59.361V59.4929C81.682 59.597 81.7221 59.6968 81.7933 59.7704C81.8646 59.844 81.9612 59.8854 82.062 59.8854C82.1628 59.8854 82.2595 59.844 82.3307 59.7704C82.402 59.6968 82.442 59.597 82.442 59.4929V59.328C82.603 59.3794 82.7534 59.4608 82.8859 59.5682C82.9252 59.5999 82.9703 59.6233 83.0184 59.637C83.0665 59.6507 83.1168 59.6545 83.1663 59.6482C83.2159 59.6419 83.2637 59.6255 83.3071 59.6001C83.3506 59.5746 83.3887 59.5406 83.4194 59.4999C83.4501 59.4593 83.4727 59.4127 83.486 59.363C83.4993 59.3133 83.503 59.2614 83.4968 59.2102C83.4907 59.1591 83.4748 59.1097 83.4502 59.0648C83.4256 59.02 83.3926 58.9806 83.3533 58.9489L83.3525 58.952Z" fill="black"/>
<path d="M77.0222 58.985C76.953 59.059 76.9147 59.1581 76.9155 59.261C76.9164 59.364 76.9564 59.4624 77.0268 59.5352C77.0973 59.6079 77.1926 59.6492 77.2922 59.6501C77.3919 59.651 77.4878 59.6115 77.5595 59.54C77.6541 59.4481 77.7621 59.372 77.8795 59.3147V59.4991C77.8795 59.6032 77.9195 59.7031 77.9908 59.7767C78.062 59.8503 78.1587 59.8916 78.2595 59.8916C78.3603 59.8916 78.4569 59.8503 78.5282 59.7767C78.5994 59.7031 78.6395 59.6032 78.6395 59.4991V59.3421C78.7335 59.3958 78.8197 59.4629 78.8956 59.5415C78.9302 59.5817 78.9723 59.6142 79.0195 59.6368C79.0667 59.6595 79.1179 59.6719 79.17 59.6733C79.222 59.6746 79.2737 59.665 79.322 59.6448C79.3703 59.6247 79.414 59.5946 79.4505 59.5563C79.487 59.518 79.5155 59.4723 79.5343 59.4222C79.553 59.372 79.5615 59.3184 79.5594 59.2647C79.5572 59.211 79.5444 59.1583 79.5218 59.1099C79.4991 59.0615 79.467 59.0185 79.4276 58.9834C79.2727 58.8146 79.0862 58.6802 78.8793 58.5884C78.6725 58.4966 78.4497 58.4494 78.2246 58.4495C77.9994 58.4497 77.7767 58.4972 77.57 58.5893C77.3632 58.6814 77.1769 58.816 77.0222 58.985Z" fill="black"/>
<path d="M57.4682 58.7785C57.1376 58.4766 56.71 58.3124 56.2687 58.3179C55.8274 58.3234 55.4038 58.4982 55.0803 58.8084C55.0082 58.8812 54.967 58.9807 54.9658 59.085C54.9647 59.1892 55.0037 59.2896 55.0742 59.3642C55.1448 59.4387 55.2411 59.4812 55.342 59.4824C55.4429 59.4836 55.5402 59.4433 55.6123 59.3704C55.6929 59.2955 55.7848 59.2348 55.8844 59.1907V59.4262C55.8844 59.5303 55.9244 59.6301 55.9957 59.7037C56.067 59.7773 56.1636 59.8187 56.2644 59.8187C56.3652 59.8187 56.4618 59.7773 56.5331 59.7037C56.6044 59.6301 56.6444 59.5303 56.6444 59.4262V59.1907C57.0122 59.3398 57.0084 59.4819 57.2349 59.4819C57.3144 59.4822 57.3919 59.4568 57.4566 59.4092C57.5213 59.3616 57.57 59.2943 57.5957 59.2166C57.6215 59.139 57.623 59.055 57.6002 58.9764C57.5773 58.8978 57.5312 58.8286 57.4682 58.7785Z" fill="black"/>
<path d="M53.8908 58.8319C53.7688 58.6703 53.6156 58.5367 53.441 58.4394C53.2664 58.3422 53.0741 58.2834 52.8764 58.2669C52.6786 58.2504 52.4797 58.2764 52.2922 58.3434C52.1047 58.4104 51.9328 58.5168 51.7872 58.656C51.7474 58.6892 51.7145 58.7304 51.6905 58.7771C51.6665 58.8237 51.6518 58.8749 51.6474 58.9275C51.643 58.9802 51.6489 59.0332 51.6649 59.0834C51.6808 59.1336 51.7063 59.18 51.74 59.2198C51.7737 59.2595 51.8148 59.2919 51.8609 59.3148C51.907 59.3378 51.9571 59.3509 52.0081 59.3534C52.0592 59.3559 52.1103 59.3477 52.1583 59.3293C52.2062 59.3109 52.2501 59.2827 52.2872 59.2464C52.2872 59.2464 52.3184 59.2228 52.3632 59.1953V59.4238C52.3632 59.5279 52.4033 59.6277 52.4745 59.7013C52.5458 59.7749 52.6425 59.8163 52.7432 59.8163C52.844 59.8163 52.9407 59.7749 53.0119 59.7013C53.0832 59.6277 53.1232 59.5279 53.1232 59.4238V59.171C53.196 59.2199 53.2619 59.2788 53.3193 59.346C53.3861 59.4215 53.4787 59.4671 53.5776 59.4731C53.6764 59.479 53.7735 59.445 53.8484 59.3781C53.9233 59.3112 53.9699 59.2168 53.9784 59.1149C53.9869 59.013 53.9566 58.9118 53.8939 58.8327L53.8908 58.8319Z" fill="black"/>
<path d="M54.2136 86.018C53.9286 85.7691 53.5652 85.6367 53.1921 85.646C52.819 85.6552 52.4621 85.8055 52.189 86.0682C52.1218 86.1421 52.0849 86.24 52.086 86.3413C52.087 86.4426 52.126 86.5396 52.1948 86.612C52.2635 86.6843 52.3567 86.7263 52.4548 86.7293C52.5529 86.7323 52.6482 86.696 52.721 86.6279C52.7784 86.5735 52.8442 86.5292 52.9155 86.4968V86.6538C52.9193 86.7054 52.9328 86.7557 52.9554 86.8018C52.9779 86.8479 53.0091 86.889 53.047 86.9228C53.0849 86.9565 53.1289 86.9821 53.1765 86.9983C53.224 87.0144 53.2741 87.0208 53.324 87.0169C53.3739 87.013 53.4226 86.9991 53.4673 86.9758C53.512 86.9525 53.5518 86.9203 53.5844 86.8811C53.617 86.842 53.6419 86.7965 53.6575 86.7474C53.6732 86.6983 53.6793 86.6465 53.6755 86.595C53.7037 86.6138 53.7303 86.6256 53.7599 86.6483C53.8405 86.7108 53.9419 86.7376 54.0416 86.7229C54.1414 86.7082 54.2314 86.6531 54.2919 86.5698C54.3524 86.4866 54.3783 86.3819 54.3641 86.2788C54.3498 86.1758 54.2965 86.0828 54.2159 86.0203L54.2136 86.018Z" fill="black"/>
<path d="M57.8254 86.2904C57.5701 86.0134 57.2295 85.8368 56.862 85.7907C56.4944 85.7445 56.1228 85.8319 55.8107 86.0377C55.7301 86.1001 55.6768 86.1931 55.6625 86.2962C55.6483 86.3992 55.6742 86.5039 55.7347 86.5872C55.7952 86.6704 55.8852 86.7255 55.985 86.7402C56.0847 86.7549 56.1861 86.7281 56.2667 86.6657C56.2895 86.6508 56.3134 86.6376 56.3381 86.6264V86.7434C56.3401 86.7949 56.3519 86.8456 56.3729 86.8924C56.3938 86.9392 56.4235 86.9813 56.4602 87.0163C56.4969 87.0513 56.5399 87.0785 56.5868 87.0963C56.6336 87.1141 56.6834 87.1222 56.7333 87.1202C56.7832 87.1181 56.8323 87.1059 56.8776 87.0843C56.9229 87.0627 56.9637 87.032 56.9976 86.9941C57.0315 86.9562 57.0578 86.9118 57.075 86.8634C57.0923 86.815 57.1001 86.7635 57.0981 86.712C57.3261 86.8501 57.3717 86.9789 57.5762 86.9789C57.6535 86.9788 57.729 86.9544 57.7926 86.9088C57.8561 86.8632 57.9047 86.7987 57.9318 86.7239C57.9589 86.649 57.9632 86.5674 57.9442 86.49C57.9252 86.4125 57.8838 86.3429 57.8254 86.2904Z" fill="black"/>
<path fill-rule="evenodd" clip-rule="evenodd" d="M106.132 56.0742C104.474 55.6189 102.969 56.3631 102.524 57.3129C102.081 58.3458 101.69 59.4021 101.354 60.4773C101.485 61.1312 102.362 65.0075 104.799 65.0789C105.227 65.0933 105.653 65.0115 106.048 64.8393C106.443 64.667 106.797 64.4084 107.086 64.0812C108.016 62.984 108.495 61.5547 108.42 60.0981C108.25 57.7667 107.503 56.451 106.132 56.0742Z" fill="#FFD997"/>
<path d="M104.174 57.9935C104.092 57.9935 104.012 57.966 103.946 57.915C103.728 57.7535 103.466 57.6663 103.197 57.6656C102.929 57.6649 102.667 57.7507 102.447 57.9111C102.367 57.9735 102.265 58.0004 102.166 57.9856C102.066 57.9709 101.976 57.9159 101.915 57.8326C101.855 57.7493 101.829 57.6446 101.843 57.5416C101.857 57.4385 101.911 57.3455 101.991 57.2831C102.34 57.0209 102.761 56.8797 103.192 56.8797C103.624 56.8797 104.044 57.0209 104.393 57.2831C104.458 57.3315 104.506 57.3998 104.531 57.4783C104.556 57.5567 104.556 57.6413 104.532 57.7201C104.508 57.7988 104.46 57.8676 104.396 57.9167C104.332 57.9658 104.254 57.9927 104.174 57.9935Z" fill="black"/>
<path d="M107.937 58.2126C107.88 58.2126 107.824 58.1994 107.773 58.1742C107.722 58.1489 107.677 58.1121 107.641 58.0666C107.133 57.4181 106.065 57.9881 106.055 57.9881C105.966 58.0328 105.865 58.0403 105.771 58.009C105.677 57.9777 105.599 57.9099 105.552 57.8201C105.506 57.7303 105.495 57.6254 105.522 57.5276C105.55 57.4297 105.612 57.3466 105.698 57.2957C105.763 57.2596 107.326 56.4157 108.232 57.5697C108.279 57.6272 108.308 57.6972 108.317 57.7714C108.326 57.8456 108.314 57.9209 108.283 57.9885C108.252 58.056 108.203 58.113 108.141 58.1527C108.08 58.1924 108.009 58.2132 107.937 58.2126Z" fill="black"/>
<path d="M103.96 61.6932C103.869 61.6513 103.798 61.5743 103.762 61.4788C103.725 61.3833 103.727 61.2768 103.765 61.1822C103.804 61.0876 103.877 61.0125 103.969 60.9729C104.06 60.9332 104.163 60.9323 104.256 60.9703C104.59 61.1492 104.971 61.2107 105.342 61.1453C105.369 61.0911 105.376 61.0288 105.363 60.9695C105.358 60.9181 105.364 60.8663 105.378 60.817C105.393 60.7677 105.417 60.7219 105.449 60.6822C105.481 60.6425 105.52 60.6096 105.564 60.5855C105.608 60.5614 105.656 60.5465 105.706 60.5416C106.273 60.515 106.252 61.4279 105.792 61.7788C105.5 61.9092 105.184 61.9693 104.866 61.9545C104.549 61.9396 104.239 61.8503 103.96 61.6932Z" fill="black"/>
<path d="M103.461 63.0795C103.419 63.0514 103.383 63.0151 103.355 62.9726C103.326 62.93 103.306 62.8822 103.296 62.8317C103.286 62.7812 103.285 62.7291 103.294 62.6784C103.303 62.6276 103.322 62.5792 103.349 62.5359C103.376 62.4926 103.411 62.4553 103.452 62.426C103.494 62.3968 103.54 62.3762 103.589 62.3654C103.638 62.3547 103.688 62.354 103.737 62.3634C103.786 62.3727 103.833 62.392 103.875 62.4201C104.207 62.6603 104.6 62.7929 105.005 62.801C105.41 62.8091 105.808 62.6923 106.148 62.4657C106.191 62.4374 106.239 62.4183 106.289 62.4095C106.34 62.4007 106.391 62.4024 106.441 62.4146C106.49 62.4267 106.537 62.449 106.578 62.4801C106.619 62.5113 106.653 62.5506 106.679 62.5958C106.705 62.641 106.722 62.6911 106.729 62.7432C106.736 62.7953 106.733 62.8483 106.72 62.8991C106.706 62.9499 106.683 62.9973 106.652 63.0387C106.62 63.0801 106.581 63.1145 106.537 63.14C106.075 63.4424 105.537 63.5979 104.99 63.5872C104.443 63.5764 103.911 63.3999 103.461 63.0795Z" fill="black"/>
<path d="M104.389 58.8806C104.104 58.5446 103.703 58.3373 103.271 58.303C102.84 58.2686 102.413 58.41 102.081 58.6969C102.002 58.7614 101.952 58.8554 101.94 58.9584C101.928 59.0613 101.957 59.1648 102.019 59.2464C102.08 59.3282 102.171 59.3814 102.271 59.3944C102.37 59.4073 102.471 59.3789 102.551 59.3155C102.65 59.2389 102.76 59.1788 102.877 59.1373C102.867 59.1901 102.868 59.2445 102.879 59.297C102.891 59.3496 102.912 59.3992 102.943 59.4428C102.973 59.4864 103.012 59.523 103.057 59.5504C103.102 59.5778 103.152 59.5953 103.204 59.602C103.255 59.6086 103.308 59.6042 103.358 59.589C103.408 59.5738 103.454 59.5481 103.494 59.5136C103.534 59.479 103.567 59.4364 103.59 59.3883C103.613 59.3401 103.627 59.2876 103.63 59.2338C103.702 59.2847 103.769 59.3442 103.828 59.4112C103.897 59.4841 103.991 59.5266 104.089 59.5295C104.188 59.5324 104.284 59.4957 104.356 59.427C104.429 59.3583 104.473 59.263 104.479 59.1614C104.486 59.0597 104.453 58.9596 104.389 58.8821V58.8806Z" fill="black"/>
<path d="M107.859 58.8617C107.704 58.6962 107.518 58.5648 107.312 58.4754C107.106 58.386 106.885 58.3405 106.662 58.3415C106.439 58.3425 106.218 58.3901 106.013 58.4814C105.808 58.5727 105.623 58.7058 105.469 58.8727C105.399 58.9473 105.36 59.0477 105.361 59.1519C105.362 59.2561 105.403 59.3556 105.475 59.4285C105.548 59.5014 105.645 59.5417 105.746 59.5405C105.847 59.5393 105.943 59.4968 106.013 59.4222C106.082 59.354 106.159 59.2949 106.241 59.2464C106.239 59.2979 106.246 59.3495 106.263 59.3981C106.28 59.4467 106.306 59.4915 106.339 59.5298C106.373 59.5681 106.413 59.5992 106.458 59.6214C106.503 59.6435 106.552 59.6563 106.602 59.6589C106.652 59.6615 106.702 59.654 106.749 59.6367C106.796 59.6194 106.839 59.5927 106.876 59.5581C106.914 59.5235 106.944 59.4817 106.965 59.4351C106.987 59.3885 106.999 59.338 107.001 59.2864V59.2016C107.34 59.3586 107.347 59.5392 107.596 59.5392C107.672 59.5397 107.747 59.5165 107.81 59.4726C107.873 59.4287 107.922 59.3662 107.951 59.2931C107.979 59.2201 107.986 59.1399 107.969 59.0629C107.953 58.986 107.915 58.9159 107.859 58.8617Z" fill="black"/>
<path d="M104.756 68.7826C103.491 68.2332 102.381 67.3649 101.526 66.2573C100.671 65.1497 100.098 63.8382 99.8612 62.4429C99.8454 62.3411 99.8691 62.2369 99.927 62.1529C99.985 62.0689 100.073 62.0119 100.171 61.9941C100.269 61.9764 100.371 61.9994 100.453 62.0581C100.535 62.1168 100.591 62.2066 100.61 62.3079C100.825 63.5736 101.344 64.7632 102.12 65.7679C102.895 66.7727 103.902 67.5603 105.049 68.0588C105.139 68.1011 105.209 68.1778 105.245 68.2728C105.282 68.3678 105.28 68.4736 105.242 68.5677C105.204 68.6618 105.132 68.7369 105.041 68.777C104.95 68.8171 104.848 68.8191 104.756 68.7826Z" fill="white"/>
<path d="M104.971 70.5465C106.275 69.7032 107.365 68.5513 108.152 67.1862C108.938 65.8211 109.399 64.282 109.495 62.6965C109.503 62.5924 109.55 62.4957 109.627 62.4279C109.704 62.36 109.804 62.3264 109.904 62.3346C110.005 62.3427 110.099 62.3918 110.164 62.4712C110.23 62.5505 110.263 62.6536 110.255 62.7577C110.164 64.4792 109.668 66.1517 108.809 67.6303C107.951 69.1089 106.756 70.3489 105.329 71.2427C105.24 71.2918 105.135 71.3021 105.038 71.2715C104.942 71.2409 104.861 71.1718 104.813 71.0795C104.766 70.9871 104.756 70.8791 104.785 70.7791C104.815 70.6792 104.882 70.5955 104.971 70.5465Z" fill="white"/>
</svg>
