<svg width="59" height="12" viewBox="0 0 59 12" fill="none" xmlns="http://www.w3.org/2000/svg">
<path d="M9.42614 4H8.19318C8.12027 3.64536 7.99266 3.33381 7.81037 3.06534C7.63139 2.79688 7.41264 2.5715 7.15412 2.3892C6.89891 2.2036 6.61553 2.06439 6.30398 1.97159C5.99242 1.87879 5.66761 1.83239 5.32955 1.83239C4.71307 1.83239 4.15459 1.98816 3.65412 2.29972C3.15696 2.61127 2.76089 3.07031 2.46591 3.67685C2.17424 4.28338 2.02841 5.02746 2.02841 5.90909C2.02841 6.79072 2.17424 7.5348 2.46591 8.14134C2.76089 8.74787 3.15696 9.20691 3.65412 9.51847C4.15459 9.83002 4.71307 9.9858 5.32955 9.9858C5.66761 9.9858 5.99242 9.93939 6.30398 9.84659C6.61553 9.75379 6.89891 9.61624 7.15412 9.43395C7.41264 9.24834 7.63139 9.02131 7.81037 8.75284C7.99266 8.48106 8.12027 8.16951 8.19318 7.81818H9.42614C9.33333 8.33854 9.1643 8.80421 8.91903 9.2152C8.67377 9.62618 8.36885 9.97585 8.00426 10.2642C7.63968 10.5492 7.23035 10.7663 6.77628 10.9155C6.32552 11.0646 5.84328 11.1392 5.32955 11.1392C4.46117 11.1392 3.68892 10.9271 3.01278 10.5028C2.33665 10.0786 1.80469 9.47538 1.4169 8.69318C1.02912 7.91098 0.835227 6.98295 0.835227 5.90909C0.835227 4.83523 1.02912 3.9072 1.4169 3.125C1.80469 2.3428 2.33665 1.73958 3.01278 1.31534C3.68892 0.891098 4.46117 0.678977 5.32955 0.678977C5.84328 0.678977 6.32552 0.753551 6.77628 0.902699C7.23035 1.05185 7.63968 1.2706 8.00426 1.55895C8.36885 1.84399 8.67377 2.192 8.91903 2.60298C9.1643 3.01065 9.33333 3.47633 9.42614 4ZM14.3617 11.1591C13.6723 11.1591 13.0674 10.995 12.5471 10.6669C12.03 10.3388 11.6257 9.87973 11.334 9.28977C11.0456 8.69981 10.9015 8.01042 10.9015 7.22159C10.9015 6.42614 11.0456 5.73177 11.334 5.13849C11.6257 4.54522 12.03 4.08452 12.5471 3.75639C13.0674 3.42827 13.6723 3.2642 14.3617 3.2642C15.0511 3.2642 15.6543 3.42827 16.1713 3.75639C16.6917 4.08452 17.0961 4.54522 17.3844 5.13849C17.6761 5.73177 17.8219 6.42614 17.8219 7.22159C17.8219 8.01042 17.6761 8.69981 17.3844 9.28977C17.0961 9.87973 16.6917 10.3388 16.1713 10.6669C15.6543 10.995 15.0511 11.1591 14.3617 11.1591ZM14.3617 10.1051C14.8854 10.1051 15.3162 9.97088 15.6543 9.70241C15.9924 9.43395 16.2426 9.08097 16.405 8.64347C16.5674 8.20597 16.6486 7.73201 16.6486 7.22159C16.6486 6.71117 16.5674 6.23556 16.405 5.79474C16.2426 5.35393 15.9924 4.99763 15.6543 4.72585C15.3162 4.45407 14.8854 4.31818 14.3617 4.31818C13.838 4.31818 13.4071 4.45407 13.0691 4.72585C12.731 4.99763 12.4808 5.35393 12.3184 5.79474C12.156 6.23556 12.0748 6.71117 12.0748 7.22159C12.0748 7.73201 12.156 8.20597 12.3184 8.64347C12.4808 9.08097 12.731 9.43395 13.0691 9.70241C13.4071 9.97088 13.838 10.1051 14.3617 10.1051ZM19.6129 11V3.36364H20.7464V4.55682H20.8459C21.005 4.14915 21.2618 3.83262 21.6165 3.60724C21.9711 3.37855 22.397 3.2642 22.8942 3.2642C23.398 3.2642 23.8172 3.37855 24.152 3.60724C24.4901 3.83262 24.7536 4.14915 24.9425 4.55682H25.022C25.2176 4.16241 25.5109 3.84919 25.902 3.61719C26.2931 3.38187 26.7621 3.2642 27.3089 3.2642C27.9917 3.2642 28.5502 3.47798 28.9844 3.90554C29.4186 4.32978 29.6357 4.991 29.6357 5.8892V11H28.4624V5.8892C28.4624 5.32576 28.3082 4.92306 28 4.68111C27.6918 4.43916 27.3288 4.31818 26.9112 4.31818C26.3743 4.31818 25.9583 4.48059 25.6634 4.8054C25.3684 5.12689 25.2209 5.53456 25.2209 6.02841V11H24.0277V5.76989C24.0277 5.3357 23.8868 4.98603 23.6051 4.72088C23.3234 4.45241 22.9605 4.31818 22.5163 4.31818C22.2114 4.31818 21.9264 4.39938 21.6612 4.56179C21.3994 4.72419 21.1873 4.94957 21.0249 5.23793C20.8658 5.52296 20.7862 5.85275 20.7862 6.22727V11H19.6129ZM31.7809 11V3.36364H32.9144V4.55682H33.0138C33.1729 4.14915 33.4298 3.83262 33.7844 3.60724C34.1391 3.37855 34.565 3.2642 35.0621 3.2642C35.5659 3.2642 35.9852 3.37855 36.32 3.60724C36.658 3.83262 36.9215 4.14915 37.1104 4.55682H37.19C37.3855 4.16241 37.6789 3.84919 38.07 3.61719C38.4611 3.38187 38.93 3.2642 39.4769 3.2642C40.1597 3.2642 40.7182 3.47798 41.1523 3.90554C41.5865 4.32978 41.8036 4.991 41.8036 5.8892V11H40.6303V5.8892C40.6303 5.32576 40.4762 4.92306 40.168 4.68111C39.8597 4.43916 39.4968 4.31818 39.0792 4.31818C38.5423 4.31818 38.1263 4.48059 37.8313 4.8054C37.5363 5.12689 37.3888 5.53456 37.3888 6.02841V11H36.1957V5.76989C36.1957 5.3357 36.0548 4.98603 35.7731 4.72088C35.4914 4.45241 35.1284 4.31818 34.6843 4.31818C34.3794 4.31818 34.0943 4.39938 33.8292 4.56179C33.5674 4.72419 33.3552 4.94957 33.1928 5.23793C33.0337 5.52296 32.9542 5.85275 32.9542 6.22727V11H31.7809ZM47.0511 11.1591C46.3617 11.1591 45.7569 10.995 45.2365 10.6669C44.7195 10.3388 44.3151 9.87973 44.0234 9.28977C43.7351 8.69981 43.5909 8.01042 43.5909 7.22159C43.5909 6.42614 43.7351 5.73177 44.0234 5.13849C44.3151 4.54522 44.7195 4.08452 45.2365 3.75639C45.7569 3.42827 46.3617 3.2642 47.0511 3.2642C47.7405 3.2642 48.3438 3.42827 48.8608 3.75639C49.3812 4.08452 49.7855 4.54522 50.0739 5.13849C50.3655 5.73177 50.5114 6.42614 50.5114 7.22159C50.5114 8.01042 50.3655 8.69981 50.0739 9.28977C49.7855 9.87973 49.3812 10.3388 48.8608 10.6669C48.3438 10.995 47.7405 11.1591 47.0511 11.1591ZM47.0511 10.1051C47.5748 10.1051 48.0057 9.97088 48.3438 9.70241C48.6818 9.43395 48.9321 9.08097 49.0945 8.64347C49.2569 8.20597 49.3381 7.73201 49.3381 7.22159C49.3381 6.71117 49.2569 6.23556 49.0945 5.79474C48.9321 5.35393 48.6818 4.99763 48.3438 4.72585C48.0057 4.45407 47.5748 4.31818 47.0511 4.31818C46.5275 4.31818 46.0966 4.45407 45.7585 4.72585C45.4205 4.99763 45.1702 5.35393 45.0078 5.79474C44.8454 6.23556 44.7642 6.71117 44.7642 7.22159C44.7642 7.73201 44.8454 8.20597 45.0078 8.64347C45.1702 9.08097 45.4205 9.43395 45.7585 9.70241C46.0966 9.97088 46.5275 10.1051 47.0511 10.1051ZM53.4757 6.40625V11H52.3024V3.36364H53.4359V4.55682H53.5353C53.7143 4.16903 53.9861 3.85748 54.3507 3.62216C54.7153 3.38352 55.1859 3.2642 55.7626 3.2642C56.2797 3.2642 56.7321 3.37027 57.1199 3.58239C57.5076 3.79119 57.8092 4.10938 58.0247 4.53693C58.2401 4.96117 58.3478 5.49811 58.3478 6.14773V11H57.1745V6.22727C57.1745 5.62737 57.0188 5.16004 56.7072 4.82528C56.3957 4.48722 55.9681 4.31818 55.4245 4.31818C55.05 4.31818 54.7153 4.39938 54.4203 4.56179C54.1286 4.72419 53.8983 4.96117 53.7292 5.27273C53.5602 5.58428 53.4757 5.96212 53.4757 6.40625Z" fill="#A1A7C4"/>
</svg>
