<svg width="103" height="12" viewBox="0 0 103 12" fill="none" xmlns="http://www.w3.org/2000/svg">
<path d="M9.42614 4H8.19318C8.12027 3.64536 7.99266 3.33381 7.81037 3.06534C7.63139 2.79688 7.41264 2.5715 7.15412 2.3892C6.89891 2.2036 6.61553 2.06439 6.30398 1.97159C5.99242 1.87879 5.66761 1.83239 5.32955 1.83239C4.71307 1.83239 4.15459 1.98816 3.65412 2.29972C3.15696 2.61127 2.76089 3.07031 2.46591 3.67685C2.17424 4.28338 2.02841 5.02746 2.02841 5.90909C2.02841 6.79072 2.17424 7.5348 2.46591 8.14134C2.76089 8.74787 3.15696 9.20691 3.65412 9.51847C4.15459 9.83002 4.71307 9.9858 5.32955 9.9858C5.66761 9.9858 5.99242 9.93939 6.30398 9.84659C6.61553 9.75379 6.89891 9.61624 7.15412 9.43395C7.41264 9.24834 7.63139 9.02131 7.81037 8.75284C7.99266 8.48106 8.12027 8.16951 8.19318 7.81818H9.42614C9.33333 8.33854 9.1643 8.80421 8.91903 9.2152C8.67377 9.62618 8.36885 9.97585 8.00426 10.2642C7.63968 10.5492 7.23035 10.7663 6.77628 10.9155C6.32552 11.0646 5.84328 11.1392 5.32955 11.1392C4.46117 11.1392 3.68892 10.9271 3.01278 10.5028C2.33665 10.0786 1.80469 9.47538 1.4169 8.69318C1.02912 7.91098 0.835227 6.98295 0.835227 5.90909C0.835227 4.83523 1.02912 3.9072 1.4169 3.125C1.80469 2.3428 2.33665 1.73958 3.01278 1.31534C3.68892 0.891098 4.46117 0.678977 5.32955 0.678977C5.84328 0.678977 6.32552 0.753551 6.77628 0.902699C7.23035 1.05185 7.63968 1.2706 8.00426 1.55895C8.36885 1.84399 8.67377 2.192 8.91903 2.60298C9.1643 3.01065 9.33333 3.47633 9.42614 4ZM14.3617 11.1591C13.6723 11.1591 13.0674 10.995 12.5471 10.6669C12.03 10.3388 11.6257 9.87973 11.334 9.28977C11.0456 8.69981 10.9015 8.01042 10.9015 7.22159C10.9015 6.42614 11.0456 5.73177 11.334 5.13849C11.6257 4.54522 12.03 4.08452 12.5471 3.75639C13.0674 3.42827 13.6723 3.2642 14.3617 3.2642C15.0511 3.2642 15.6543 3.42827 16.1713 3.75639C16.6917 4.08452 17.0961 4.54522 17.3844 5.13849C17.6761 5.73177 17.8219 6.42614 17.8219 7.22159C17.8219 8.01042 17.6761 8.69981 17.3844 9.28977C17.0961 9.87973 16.6917 10.3388 16.1713 10.6669C15.6543 10.995 15.0511 11.1591 14.3617 11.1591ZM14.3617 10.1051C14.8854 10.1051 15.3162 9.97088 15.6543 9.70241C15.9924 9.43395 16.2426 9.08097 16.405 8.64347C16.5674 8.20597 16.6486 7.73201 16.6486 7.22159C16.6486 6.71117 16.5674 6.23556 16.405 5.79474C16.2426 5.35393 15.9924 4.99763 15.6543 4.72585C15.3162 4.45407 14.8854 4.31818 14.3617 4.31818C13.838 4.31818 13.4071 4.45407 13.0691 4.72585C12.731 4.99763 12.4808 5.35393 12.3184 5.79474C12.156 6.23556 12.0748 6.71117 12.0748 7.22159C12.0748 7.73201 12.156 8.20597 12.3184 8.64347C12.4808 9.08097 12.731 9.43395 13.0691 9.70241C13.4071 9.97088 13.838 10.1051 14.3617 10.1051ZM19.6129 11V3.36364H20.7464V4.55682H20.8459C21.005 4.14915 21.2618 3.83262 21.6165 3.60724C21.9711 3.37855 22.397 3.2642 22.8942 3.2642C23.398 3.2642 23.8172 3.37855 24.152 3.60724C24.4901 3.83262 24.7536 4.14915 24.9425 4.55682H25.022C25.2176 4.16241 25.5109 3.84919 25.902 3.61719C26.2931 3.38187 26.7621 3.2642 27.3089 3.2642C27.9917 3.2642 28.5502 3.47798 28.9844 3.90554C29.4186 4.32978 29.6357 4.991 29.6357 5.8892V11H28.4624V5.8892C28.4624 5.32576 28.3082 4.92306 28 4.68111C27.6918 4.43916 27.3288 4.31818 26.9112 4.31818C26.3743 4.31818 25.9583 4.48059 25.6634 4.8054C25.3684 5.12689 25.2209 5.53456 25.2209 6.02841V11H24.0277V5.76989C24.0277 5.3357 23.8868 4.98603 23.6051 4.72088C23.3234 4.45241 22.9605 4.31818 22.5163 4.31818C22.2114 4.31818 21.9264 4.39938 21.6612 4.56179C21.3994 4.72419 21.1873 4.94957 21.0249 5.23793C20.8658 5.52296 20.7862 5.85275 20.7862 6.22727V11H19.6129ZM31.7809 11V3.36364H32.9144V4.55682H33.0138C33.1729 4.14915 33.4298 3.83262 33.7844 3.60724C34.1391 3.37855 34.565 3.2642 35.0621 3.2642C35.5659 3.2642 35.9852 3.37855 36.32 3.60724C36.658 3.83262 36.9215 4.14915 37.1104 4.55682H37.19C37.3855 4.16241 37.6789 3.84919 38.07 3.61719C38.4611 3.38187 38.93 3.2642 39.4769 3.2642C40.1597 3.2642 40.7182 3.47798 41.1523 3.90554C41.5865 4.32978 41.8036 4.991 41.8036 5.8892V11H40.6303V5.8892C40.6303 5.32576 40.4762 4.92306 40.168 4.68111C39.8597 4.43916 39.4968 4.31818 39.0792 4.31818C38.5423 4.31818 38.1263 4.48059 37.8313 4.8054C37.5363 5.12689 37.3888 5.53456 37.3888 6.02841V11H36.1957V5.76989C36.1957 5.3357 36.0548 4.98603 35.7731 4.72088C35.4914 4.45241 35.1284 4.31818 34.6843 4.31818C34.3794 4.31818 34.0943 4.39938 33.8292 4.56179C33.5674 4.72419 33.3552 4.94957 33.1928 5.23793C33.0337 5.52296 32.9542 5.85275 32.9542 6.22727V11H31.7809ZM48.7614 7.87784V3.36364H49.9347V11H48.7614V9.70739H48.6818C48.5028 10.0952 48.2244 10.425 47.8466 10.6967C47.4688 10.9652 46.9915 11.0994 46.4148 11.0994C45.9375 11.0994 45.5133 10.995 45.142 10.7862C44.7708 10.5741 44.4792 10.2559 44.267 9.83168C44.0549 9.40412 43.9489 8.86553 43.9489 8.21591V3.36364H45.1222V8.13636C45.1222 8.69318 45.2779 9.13731 45.5895 9.46875C45.9044 9.80019 46.3054 9.96591 46.7926 9.96591C47.0843 9.96591 47.3809 9.89134 47.6825 9.74219C47.9875 9.59304 48.2427 9.36435 48.4482 9.05611C48.657 8.74787 48.7614 8.35511 48.7614 7.87784ZM53.2569 6.40625V11H52.0836V3.36364H53.2172V4.55682H53.3166C53.4956 4.16903 53.7673 3.85748 54.1319 3.62216C54.4965 3.38352 54.9672 3.2642 55.5439 3.2642C56.0609 3.2642 56.5133 3.37027 56.9011 3.58239C57.2889 3.79119 57.5905 4.10938 57.8059 4.53693C58.0214 4.96117 58.1291 5.49811 58.1291 6.14773V11H56.9558V6.22727C56.9558 5.62737 56.8 5.16004 56.4885 4.82528C56.1769 4.48722 55.7493 4.31818 55.2058 4.31818C54.8313 4.31818 54.4965 4.39938 54.2015 4.56179C53.9099 4.72419 53.6795 4.96117 53.5105 5.27273C53.3414 5.58428 53.2569 5.96212 53.2569 6.40625ZM60.2731 11V3.36364H61.4464V11H60.2731ZM60.8697 2.09091C60.641 2.09091 60.4438 2.01302 60.2781 1.85724C60.1156 1.70147 60.0344 1.5142 60.0344 1.29545C60.0344 1.0767 60.1156 0.889441 60.2781 0.733664C60.4438 0.577888 60.641 0.5 60.8697 0.5C61.0984 0.5 61.2939 0.577888 61.4563 0.733664C61.622 0.889441 61.7049 1.0767 61.7049 1.29545C61.7049 1.5142 61.622 1.70147 61.4563 1.85724C61.2939 2.01302 61.0984 2.09091 60.8697 2.09091ZM66.6976 11.1591C65.9817 11.1591 65.3652 10.9901 64.8482 10.652C64.3311 10.3139 63.9334 9.84825 63.655 9.25497C63.3766 8.66169 63.2374 7.9839 63.2374 7.22159C63.2374 6.44602 63.3799 5.7616 63.665 5.16832C63.9533 4.57173 64.3543 4.10606 64.8681 3.77131C65.3851 3.43324 65.9883 3.2642 66.6777 3.2642C67.2147 3.2642 67.6986 3.36364 68.1294 3.5625C68.5603 3.76136 68.9133 4.03977 69.1884 4.39773C69.4635 4.75568 69.6342 5.1733 69.7005 5.65057H68.5272C68.4377 5.30256 68.2388 4.99432 67.9306 4.72585C67.6257 4.45407 67.2147 4.31818 66.6976 4.31818C66.2402 4.31818 65.8392 4.4375 65.4945 4.67614C65.1531 4.91146 64.8863 5.24455 64.6941 5.67543C64.5051 6.10298 64.4107 6.60511 64.4107 7.18182C64.4107 7.77178 64.5035 8.28551 64.6891 8.72301C64.878 9.16051 65.1432 9.50024 65.4846 9.74219C65.8292 9.98414 66.2336 10.1051 66.6976 10.1051C67.0025 10.1051 67.2793 10.0521 67.5279 9.94602C67.7765 9.83996 67.9869 9.6875 68.1593 9.48864C68.3316 9.28977 68.4542 9.05114 68.5272 8.77273H69.7005C69.6342 9.22348 69.4701 9.6295 69.2083 9.99077C68.9498 10.3487 68.6067 10.6338 68.1792 10.8459C67.7549 11.0547 67.2611 11.1591 66.6976 11.1591ZM73.6628 11.179C73.1789 11.179 72.7398 11.0878 72.3453 10.9055C71.9509 10.7199 71.6377 10.4531 71.4057 10.1051C71.1737 9.75379 71.0577 9.32955 71.0577 8.83239C71.0577 8.39489 71.1439 8.04025 71.3162 7.76847C71.4886 7.49337 71.7189 7.27794 72.0073 7.12216C72.2956 6.96638 72.6138 6.85038 72.9618 6.77415C73.3132 6.6946 73.6661 6.63163 74.0208 6.58523C74.4848 6.52557 74.861 6.48082 75.1493 6.45099C75.441 6.41785 75.6531 6.36316 75.7857 6.28693C75.9216 6.2107 75.9895 6.07812 75.9895 5.8892V5.84943C75.9895 5.3589 75.8553 4.97775 75.5868 4.70597C75.3217 4.43419 74.919 4.2983 74.3787 4.2983C73.8186 4.2983 73.3794 4.42093 73.0613 4.66619C72.7431 4.91146 72.5194 5.1733 72.3901 5.4517L71.2765 5.05398C71.4753 4.58996 71.7405 4.22869 72.0719 3.97017C72.4067 3.70833 72.7712 3.52604 73.1657 3.4233C73.5634 3.31723 73.9545 3.2642 74.339 3.2642C74.5842 3.2642 74.8659 3.29403 75.1841 3.35369C75.5056 3.41004 75.8155 3.5277 76.1138 3.70668C76.4154 3.88565 76.6657 4.15578 76.8645 4.51705C77.0634 4.87831 77.1628 5.36222 77.1628 5.96875V11H75.9895V9.96591H75.9299C75.8503 10.1316 75.7177 10.3089 75.5321 10.4979C75.3465 10.6868 75.0996 10.8475 74.7914 10.9801C74.4831 11.1127 74.1069 11.179 73.6628 11.179ZM73.8418 10.125C74.3058 10.125 74.6969 10.0339 75.0151 9.85156C75.3366 9.66927 75.5785 9.43395 75.7409 9.1456C75.9067 8.85724 75.9895 8.55398 75.9895 8.2358V7.16193C75.9398 7.22159 75.8304 7.27628 75.6614 7.32599C75.4957 7.3724 75.3034 7.41383 75.0847 7.45028C74.8693 7.48343 74.6588 7.51326 74.4533 7.53977C74.2511 7.56297 74.0871 7.58286 73.9611 7.59943C73.6562 7.6392 73.3712 7.70384 73.106 7.79332C72.8442 7.8795 72.632 8.01042 72.4696 8.18608C72.3105 8.35843 72.231 8.59375 72.231 8.89205C72.231 9.29972 72.3818 9.60795 72.6834 9.81676C72.9883 10.0223 73.3745 10.125 73.8418 10.125ZM82.6254 3.36364V4.35795H78.668V3.36364H82.6254ZM79.8214 1.53409H80.9947V8.8125C80.9947 9.14394 81.0427 9.39252 81.1388 9.55824C81.2383 9.72064 81.3642 9.83002 81.5167 9.88636C81.6725 9.93939 81.8365 9.96591 82.0089 9.96591C82.1381 9.96591 82.2442 9.95928 82.3271 9.94602C82.4099 9.92945 82.4762 9.91619 82.5259 9.90625L82.7646 10.9602C82.685 10.9901 82.574 11.0199 82.4315 11.0497C82.2889 11.0829 82.1083 11.0994 81.8896 11.0994C81.5581 11.0994 81.2333 11.0282 80.9151 10.8857C80.6003 10.7431 80.3384 10.526 80.1296 10.2344C79.9241 9.94271 79.8214 9.57481 79.8214 9.13068V1.53409ZM84.3903 11V3.36364H85.5636V11H84.3903ZM84.9869 2.09091C84.7582 2.09091 84.561 2.01302 84.3952 1.85724C84.2328 1.70147 84.1516 1.5142 84.1516 1.29545C84.1516 1.0767 84.2328 0.889441 84.3952 0.733664C84.561 0.577888 84.7582 0.5 84.9869 0.5C85.2156 0.5 85.4111 0.577888 85.5735 0.733664C85.7392 0.889441 85.8221 1.0767 85.8221 1.29545C85.8221 1.5142 85.7392 1.70147 85.5735 1.85724C85.4111 2.01302 85.2156 2.09091 84.9869 2.09091ZM90.8148 11.1591C90.1254 11.1591 89.5205 10.995 89.0002 10.6669C88.4831 10.3388 88.0788 9.87973 87.7871 9.28977C87.4988 8.69981 87.3546 8.01042 87.3546 7.22159C87.3546 6.42614 87.4988 5.73177 87.7871 5.13849C88.0788 4.54522 88.4831 4.08452 89.0002 3.75639C89.5205 3.42827 90.1254 3.2642 90.8148 3.2642C91.5042 3.2642 92.1074 3.42827 92.6245 3.75639C93.1448 4.08452 93.5492 4.54522 93.8375 5.13849C94.1292 5.73177 94.275 6.42614 94.275 7.22159C94.275 8.01042 94.1292 8.69981 93.8375 9.28977C93.5492 9.87973 93.1448 10.3388 92.6245 10.6669C92.1074 10.995 91.5042 11.1591 90.8148 11.1591ZM90.8148 10.1051C91.3385 10.1051 91.7694 9.97088 92.1074 9.70241C92.4455 9.43395 92.6957 9.08097 92.8581 8.64347C93.0205 8.20597 93.1017 7.73201 93.1017 7.22159C93.1017 6.71117 93.0205 6.23556 92.8581 5.79474C92.6957 5.35393 92.4455 4.99763 92.1074 4.72585C91.7694 4.45407 91.3385 4.31818 90.8148 4.31818C90.2911 4.31818 89.8603 4.45407 89.5222 4.72585C89.1841 4.99763 88.9339 5.35393 88.7715 5.79474C88.6091 6.23556 88.5279 6.71117 88.5279 7.22159C88.5279 7.73201 88.6091 8.20597 88.7715 8.64347C88.9339 9.08097 89.1841 9.43395 89.5222 9.70241C89.8603 9.97088 90.2911 10.1051 90.8148 10.1051ZM97.2393 6.40625V11H96.0661V3.36364H97.1996V4.55682H97.299C97.478 4.16903 97.7498 3.85748 98.1143 3.62216C98.4789 3.38352 98.9496 3.2642 99.5263 3.2642C100.043 3.2642 100.496 3.37027 100.884 3.58239C101.271 3.79119 101.573 4.10938 101.788 4.53693C102.004 4.96117 102.112 5.49811 102.112 6.14773V11H100.938V6.22727C100.938 5.62737 100.782 5.16004 100.471 4.82528C100.159 4.48722 99.7318 4.31818 99.1882 4.31818C98.8137 4.31818 98.4789 4.39938 98.1839 4.56179C97.8923 4.72419 97.6619 4.96117 97.4929 5.27273C97.3239 5.58428 97.2393 5.96212 97.2393 6.40625Z" fill="#A1A7C4"/>
</svg>
