<svg width="153" height="158" viewBox="0 0 153 158" fill="none" xmlns="http://www.w3.org/2000/svg">
<path d="M49.5132 42.5714H102.302V81.1918H49.5132V42.5714Z" fill="#81F8F8"/>
<path d="M102.302 81.5843H49.5128C49.412 81.5843 49.3154 81.543 49.2441 81.4693C49.1728 81.3957 49.1328 81.2959 49.1328 81.1918V42.5698C49.1328 42.4657 49.1728 42.3659 49.2441 42.2923C49.3154 42.2187 49.412 42.1773 49.5128 42.1773H102.302C102.402 42.1773 102.499 42.2187 102.57 42.2923C102.642 42.3659 102.682 42.4657 102.682 42.5698V81.1918C102.682 81.2959 102.642 81.3957 102.57 81.4693C102.499 81.543 102.402 81.5843 102.302 81.5843ZM49.8928 80.7993H101.922V42.9623H49.8928V80.7993Z" fill="black"/>
<path d="M51.688 44.9044H100.126V78.8588H51.688V44.9044Z" fill="white"/>
<path d="M100.125 79.2514H51.6876C51.5868 79.2514 51.4902 79.21 51.4189 79.1364C51.3477 79.0628 51.3076 78.963 51.3076 78.8589V44.9053C51.3076 44.8012 51.3477 44.7013 51.4189 44.6277C51.4902 44.5541 51.5868 44.5128 51.6876 44.5128H100.125C100.226 44.5128 100.323 44.5541 100.394 44.6277C100.465 44.7013 100.505 44.8012 100.505 44.9053V78.8589C100.505 78.963 100.465 79.0628 100.394 79.1364C100.323 79.21 100.226 79.2514 100.125 79.2514ZM52.0676 78.4664H99.7455V45.2978H52.0676V78.4664Z" fill="black"/>
<path d="M95.1052 66.3263H86.2133C87.3686 63.6266 87.5559 60.5904 86.7418 57.7611C85.9277 54.9318 84.1653 52.4941 81.77 50.8844C79.3747 49.2747 76.503 48.5981 73.6688 48.9757C70.8347 49.3533 68.2232 50.7605 66.3017 52.9453C64.3803 55.1301 63.2745 57.9499 63.1821 60.9C63.0897 63.8501 64.0168 66.7378 65.7976 69.0463C67.5783 71.3548 70.0963 72.9333 72.9009 73.4992C75.7055 74.0652 78.6136 73.5817 81.1045 72.1353V72.308C81.1051 72.9061 81.3355 73.4796 81.7449 73.9026C82.1544 74.3255 82.7097 74.5634 83.2888 74.5641H89.4577L93.5989 77.6837C93.6702 77.7376 93.7575 77.7641 93.8457 77.7588C93.9339 77.7534 94.0176 77.7165 94.0822 77.6543C94.1469 77.5921 94.1886 77.5086 94.2002 77.4181C94.2117 77.3276 94.1923 77.2358 94.1454 77.1585L92.5798 74.568H95.103C95.6821 74.5674 96.2373 74.3295 96.6468 73.9065C97.0563 73.4835 97.2866 72.9101 97.2872 72.3119V68.5831C97.2866 67.9853 97.0566 67.4121 96.6476 66.9891C96.2387 66.5661 95.684 66.3277 95.1052 66.3263ZM70.8848 54.1698C71.2551 53.553 71.7421 53.0199 72.3167 52.6025C72.8914 52.185 73.5417 51.8917 74.2288 51.7402C75.3164 51.5502 76.9352 51.8132 78.459 54.1305C78.5138 54.2166 78.5337 54.3216 78.5142 54.4227C78.4948 54.5238 78.4376 54.6129 78.3551 54.6708C78.2725 54.7288 78.1713 54.7509 78.0731 54.7323C77.9749 54.7137 77.8878 54.6561 77.8304 54.5717C76.8668 53.1069 75.7785 52.4035 74.6385 52.4804C74.0336 52.5779 73.4538 52.7993 72.933 53.1316C72.4123 53.4639 71.9611 53.9004 71.6061 54.4155C71.5718 54.5106 71.5031 54.5883 71.4145 54.6323C71.3259 54.6763 71.2243 54.6831 71.1309 54.6513C71.0376 54.6195 70.9598 54.5515 70.9139 54.4618C70.868 54.372 70.8576 54.2673 70.8848 54.1698ZM77.0408 55.9808C77.0009 56.0117 76.9555 56.0342 76.9071 56.047C76.8588 56.0598 76.8085 56.0626 76.7591 56.0553C76.7097 56.048 76.6621 56.0308 76.6192 56.0045C76.5763 55.9782 76.5388 55.9435 76.5088 55.9023C76.3579 55.5677 76.1223 55.2815 75.8269 55.0739C75.5314 54.8664 75.1872 54.7452 74.8305 54.7231C74.4738 54.7011 74.118 54.779 73.8007 54.9487C73.4834 55.1185 73.2164 55.3736 73.028 55.6872C72.9706 55.7727 72.8826 55.8312 72.7834 55.8498C72.6842 55.8683 72.5819 55.8454 72.499 55.7861C72.4162 55.7267 72.3596 55.6358 72.3416 55.5334C72.3237 55.4309 72.3458 55.3253 72.4033 55.2397C72.6685 54.8672 73.0081 54.5579 73.3991 54.3328C73.7901 54.1077 74.2234 53.9721 74.6696 53.935C75.165 53.9586 75.6472 54.1074 76.0739 54.3685C76.5006 54.6295 76.8587 54.9947 77.1168 55.432C77.1774 55.5149 77.2037 55.6191 77.19 55.722C77.1763 55.8248 77.1238 55.9178 77.0439 55.9808H77.0408ZM77.1594 59.5918C77.1594 61.5637 76.1433 63.1627 74.8893 63.1627C73.6353 63.1627 72.626 61.5645 72.626 59.5925C72.626 57.6206 73.6428 56.0224 74.8961 56.0224C76.1493 56.0224 77.1624 57.6206 77.1624 59.5925L77.1594 59.5918ZM75.6333 65.867L75.6698 68.047C79.3793 68.2393 78.6247 69.2692 74.8057 69.2692C70.7967 69.2692 70.3019 68.1765 74.1764 68.0344V65.8584C69.3724 65.3874 69.8056 60.8933 69.8056 60.8933H71.2496C71.2496 60.8933 71.7923 64.6228 74.8976 64.6354C78.0319 64.6472 78.0607 60.7222 78.0607 60.7222L79.6651 60.686C79.6651 60.686 80.3392 65.4675 75.6333 65.867ZM96.5333 72.3103C96.5329 72.7004 96.3827 73.0743 96.1157 73.3501C95.8487 73.6259 95.4867 73.781 95.109 73.7814H91.9011C91.8334 73.7815 91.7669 73.8003 91.7086 73.8358C91.6502 73.8713 91.6022 73.9223 91.5693 73.9835C91.5364 74.0446 91.52 74.1137 91.5217 74.1836C91.5234 74.2536 91.5431 74.3218 91.5789 74.3812L92.4711 75.8593L89.8111 73.856C89.669 73.7492 90.1805 73.7814 83.2941 73.7814C82.9165 73.7808 82.5546 73.6256 82.2877 73.3499C82.0207 73.0741 81.8705 72.7003 81.8699 72.3103V68.5831C81.8701 68.193 82.0201 67.8188 82.2872 67.5429C82.5542 67.2669 82.9164 67.1117 83.2941 67.1113H95.1083C95.4861 67.1115 95.8484 67.2666 96.1154 67.5427C96.3825 67.8187 96.5325 68.1929 96.5325 68.5831L96.5333 72.3103Z" fill="black"/>
<path fill-rule="evenodd" clip-rule="evenodd" d="M41.3377 61.2654C41.8913 61.6713 42.3464 62.2041 42.6674 62.8219C42.9885 63.4398 43.1668 64.1261 43.1883 64.8269C43.4284 67.4433 43.7263 67.4065 43.9749 67.8759C44.2234 68.3453 44.0858 69.5071 43.5044 70.8809C43.5044 70.8809 44.9955 72.5294 44.5684 73.3827C44.1413 74.236 42.7748 74.3105 42.2656 74.8059C42.2656 74.8059 44.1656 75.9425 43.8054 77.8729C43.4451 79.8032 43.0021 81.5993 40.355 81.7476L40.6324 87.0526C40.6324 87.0526 39.2644 90.0647 34.4209 90.1086C33.0765 90.1602 31.7459 89.8132 30.5864 89.1087C29.4268 88.4041 28.4868 87.3714 27.8773 86.1326L29.9483 75.9064C29.9483 75.9064 25.7295 75.5571 25.9826 72.1832C26.2357 68.8092 29.5691 71.1336 30.4248 71.5654C30.4248 71.5654 32.5148 61.4491 37.0695 60.9679C41.6242 60.4867 41.3377 61.2654 41.3377 61.2654Z" fill="#FFD997"/>
<path fill-rule="evenodd" clip-rule="evenodd" d="M37.9951 70.8848C37.9951 70.8848 38.6875 69.5401 39.617 69.5401L39.6808 70.6697C39.4286 70.8217 39.1491 70.9192 38.8594 70.9561C38.5696 70.9931 38.2755 70.9688 37.9951 70.8848Z" fill="white"/>
<path fill-rule="evenodd" clip-rule="evenodd" d="M22.5374 87.6995C22.5374 87.6995 14.0938 91.316 11.7675 94.248C9.44112 97.1799 8.14532 110.114 8.00928 115.77C8.40391 116.372 8.93957 116.862 9.56652 117.194H57.2945L60.0419 111.009C60.0419 111.009 57.2945 98.9745 54.8663 94.8995C51.5102 89.2687 42.9298 85.726 42.9298 85.726L40.6885 86.1703C40.6885 86.1703 40.5783 90.0168 34.7917 90.0733C29.005 90.1299 27.7396 85.9827 27.7396 85.9827L22.5374 87.6995Z" fill="white"/>
<path fill-rule="evenodd" clip-rule="evenodd" d="M43.3827 80.7907C42.3126 82.0247 38.8888 81.768 38.8888 81.768C38.8888 81.768 37.4167 87.2371 40.4589 87.2371C43.5012 87.2371 46.4189 85.5101 46.0997 83.4825C45.9682 82.648 43.2139 82.5475 43.3827 80.7907Z" fill="#81F8F8"/>
<path fill-rule="evenodd" clip-rule="evenodd" d="M43.1222 76.5761L42.024 75.6262L39.4644 77.2198C39.6624 77.6016 39.9653 77.9145 40.335 78.1191C40.7047 78.3237 41.1247 78.4109 41.5422 78.3698C41.9687 78.3129 42.3618 78.1013 42.6512 77.7727C42.9406 77.4441 43.1076 77.02 43.1222 76.5761Z" fill="white"/>
<path d="M39.7985 68.9741C38.7003 68.9741 37.8225 70.2552 37.7283 70.4013C37.6895 70.4602 37.667 70.529 37.6632 70.6002C37.6594 70.6714 37.6744 70.7423 37.7067 70.8053C37.7389 70.8683 37.7872 70.9211 37.8463 70.9579C37.9054 70.9948 37.9731 71.0143 38.0422 71.0143C38.3781 71.0143 38.3553 70.6831 38.977 70.1508C39.0993 71.0104 39.9885 70.8707 39.9885 70.0095C39.9891 69.9138 39.9757 69.8186 39.949 69.7269C40.0292 69.6911 40.0951 69.6279 40.1354 69.5478C40.1758 69.4677 40.1881 69.3757 40.1705 69.2873C40.1528 69.1988 40.1061 69.1194 40.0384 69.0624C39.9706 69.0053 39.8859 68.9742 39.7985 68.9741Z" fill="black"/>
<path fill-rule="evenodd" clip-rule="evenodd" d="M31.5229 69.847C30.5189 72.4202 30.0318 71.5183 30.0158 71.5654C29.9999 71.6125 26.1892 68.9568 25.9301 72.2114C25.6732 75.4362 29.8577 75.8271 29.8577 75.8271C29.8577 75.8271 30.6033 77.4136 29.8577 81.8073C28.9123 87.3808 30.2104 85.1561 23.647 87.4169C17.0837 89.6777 19.7034 81.8073 20.8806 79.8809C22.0579 77.9545 22.6879 76.7338 23.0223 72.9729C23.3567 69.2119 25.0887 59.014 31.9075 58.2337C38.7262 57.4534 41.3558 61.3321 41.3558 61.3321C40.6138 60.9525 39.7955 60.7591 38.9675 60.7676C38.1396 60.776 37.3252 60.9861 36.5906 61.3808C33.8835 62.7043 34.5735 64.6935 34.8175 66.0272C33.3509 66.9023 32.1958 68.2416 31.5229 69.847Z" fill="#81F8F8"/>
<path d="M43.9482 70.804C44.4802 69.4561 44.62 68.2755 44.3077 67.6875C44.0432 67.1883 43.7954 67.2872 43.5667 64.7901C43.5416 64.027 43.3445 63.2805 42.991 62.6099C42.6376 61.9393 42.1375 61.3631 41.5307 60.9271C40.9113 60.1499 38.081 57.134 31.8657 57.8436C24.2878 58.7071 22.8544 70.5606 22.6439 72.9297C22.3141 76.6475 21.7023 77.7967 20.5592 79.6674C19.6974 81.0804 18.1379 85.4222 19.5712 87.3109C20.5227 88.5669 22.3072 88.2898 23.7672 87.7859C29.36 85.8571 29.455 87.1979 29.9475 83.7321C30.3678 81.6769 30.5671 79.58 30.5418 77.4796C31.1589 78.9169 31.9615 79.0983 33.8706 79.8652C34.8759 80.2329 35.8541 80.6755 36.7974 81.1895C37.9606 82.0287 39.3939 82.3685 40.795 82.137C42.5103 81.9243 43.499 81.7445 43.8676 80.4979C44.0266 80.0095 44.1254 79.5023 44.1618 78.9884C44.3819 78.2567 44.4446 77.4842 44.3455 76.7248C44.2464 75.9655 43.9878 75.2377 43.588 74.5924C44.1372 74.4302 44.6081 74.0625 44.9088 73.5609C45.3588 72.6558 44.3981 71.3425 43.9482 70.804ZM29.4839 81.7367C28.5932 86.9899 29.8897 84.85 23.527 87.0401C21.8467 87.6194 20.715 87.5488 20.1693 86.8266C19.0415 85.3398 20.3821 81.4282 21.2022 80.0858C22.3749 78.1665 23.0558 76.8916 23.4009 73.002C23.6015 70.7404 24.9581 59.4215 31.9493 58.6239C35.4628 58.2243 38.1213 59.08 39.902 60.4451C38.7138 60.2755 37.5037 60.4779 36.428 61.026C33.6874 62.366 34.1001 64.4015 34.376 65.7423L34.3935 65.8294C32.9612 66.7466 31.8367 68.0966 31.1726 69.6963C30.6353 71.074 30.3093 71.2663 30.2918 71.2797C29.8221 70.866 27.65 69.7654 26.4865 70.3997C26.1947 70.5861 25.955 70.848 25.7914 71.1594C25.6277 71.4709 25.5456 71.8211 25.5532 72.1754C25.3373 74.8907 27.9662 75.9591 29.5812 76.1851C29.7301 76.7182 30.0516 78.3871 29.4839 81.7367ZM26.3086 72.2382C26.2968 72.0163 26.3394 71.795 26.4324 71.5947C26.5254 71.3944 26.6658 71.2215 26.8406 71.0921C27.2047 70.8911 27.9806 70.8566 29.5766 71.7648C29.3441 72.7853 29.5675 73.4824 29.9771 75.4622C29.6906 75.3632 26.0859 75.0414 26.3086 72.2397V72.2382ZM38.9246 79.8165L38.5644 77.7355C38.7589 77.617 38.9444 77.5118 39.1313 77.4074C39.2787 77.7888 39.5296 78.1182 39.8538 78.356C40.1781 78.5937 40.5619 78.7296 40.9591 78.7474C40.6863 80.2459 38.9208 79.8165 38.9208 79.8165H38.9246ZM39.7872 77.0541C40.5563 76.6498 41.3562 76.3113 42.1789 76.0423C42.256 76.1867 42.3628 76.3119 42.492 76.4088C42.6211 76.5058 42.7692 76.5723 42.926 76.6035C42.7352 78.4083 40.228 78.358 39.7834 77.0557L39.7872 77.0541ZM42.0505 78.6681C42.4127 78.5752 42.7451 78.3859 43.0146 78.1192C43.2841 77.8524 43.4812 77.5174 43.5865 77.1476C43.8152 78.8047 42.9602 79.8699 42.0467 78.6697L42.0505 78.6681ZM44.237 73.2021C43.9239 73.8301 42.7687 73.9369 42.1386 74.4181C40.2174 74.5194 38.2201 74.8773 37.0976 76.4701C36.2613 75.9799 35.4699 75.4121 34.7332 74.7737C33.8661 73.9291 32.1287 73.615 31.9873 72.7743C31.8786 71.832 31.8491 70.8817 31.8992 69.9342C32.5472 68.4437 33.6293 67.1992 34.9947 66.3742C35.0665 66.3351 35.1243 66.2731 35.1596 66.1976C35.1949 66.122 35.2058 66.0367 35.1907 65.9542L35.1147 65.5806C34.8518 64.2822 34.5523 62.8103 36.751 61.7341C39.7325 60.2748 42.4905 61.3934 42.8082 64.8615C43.0522 67.5305 43.363 67.5446 43.6389 68.0627C43.7746 68.7888 43.6752 69.5407 43.3562 70.2027C43.1974 70.0243 43.061 69.826 42.9503 69.6123C42.7467 69.2198 43.1023 68.3964 43.3113 68.0604C43.3381 68.0169 43.3564 67.9684 43.365 67.9176C43.3736 67.8668 43.3725 67.8148 43.3617 67.7644C43.3509 67.7141 43.3305 67.6664 43.3019 67.6242C43.2732 67.582 43.2368 67.546 43.1947 67.5183C43.1526 67.4907 43.1056 67.4718 43.0564 67.4629C43.0072 67.454 42.9568 67.4551 42.9081 67.4663C42.8594 67.4775 42.8133 67.4985 42.7724 67.5281C42.7315 67.5577 42.6967 67.5953 42.6699 67.6388C42.5802 67.7841 41.8134 69.077 42.2793 69.9821C42.5151 70.4449 42.8442 70.8501 43.2445 71.1706C43.7917 71.7813 44.43 72.8112 44.2332 73.2037L44.237 73.2021Z" fill="black"/>
<path d="M46.6426 67.4535C46.486 67.2903 46.6213 67.3381 42.9809 67.3381C42.8801 67.3381 42.7835 67.3795 42.7122 67.4531C42.6409 67.5267 42.6009 67.6266 42.6009 67.7306V68.7865C42.3238 68.6814 42.0225 68.6647 41.736 68.7386V67.7275C41.7362 67.6733 41.7255 67.6196 41.7046 67.5699C41.6836 67.5202 41.653 67.4754 41.6145 67.4386C41.576 67.4017 41.5305 67.3734 41.4809 67.3556C41.4313 67.3378 41.3787 67.3308 41.3264 67.335L36.3932 67.7275C36.2962 67.7351 36.2057 67.7809 36.1404 67.8554C36.0751 67.9299 36.0399 68.0274 36.0421 68.1279V68.2644L29.0395 70.7231C28.944 70.7566 28.8654 70.8279 28.8209 70.9213C28.7763 71.0147 28.7695 71.1226 28.802 71.2212C28.8344 71.3197 28.9035 71.401 28.9939 71.447C29.0843 71.493 29.1888 71.5 29.2842 71.4665L36.0702 69.0934C36.1592 72.6259 36.1105 72.5144 36.2747 72.6707C36.4388 72.8269 36.1896 72.79 41.3781 72.5325C41.4757 72.5276 41.5677 72.4842 41.6351 72.4111C41.7024 72.338 41.7399 72.2409 41.7398 72.14V69.5628C41.8785 69.4887 42.0359 69.4604 42.1906 69.4819C42.3454 69.5034 42.49 69.5736 42.6047 69.6829V70.3682C42.6047 70.4723 42.6447 70.5722 42.716 70.6458C42.7873 70.7194 42.8839 70.7607 42.9847 70.7607C43.0855 70.7607 43.1821 70.7194 43.2534 70.6458C43.3247 70.5722 43.3647 70.4723 43.3647 70.3682V68.12H45.9875V71.1321L44.0936 71.198C43.9928 71.1998 43.8968 71.2428 43.8267 71.3177C43.7567 71.3925 43.7183 71.4931 43.72 71.5972C43.7217 71.7013 43.7634 71.8004 43.8359 71.8728C43.9084 71.9451 44.0057 71.9848 44.1065 71.983L46.3705 71.9045C46.4706 71.9023 46.566 71.8602 46.6369 71.7871C46.7077 71.714 46.7484 71.6154 46.7505 71.512C46.7543 67.4426 46.7862 67.6035 46.6426 67.4535ZM40.976 71.7663L36.8994 71.9712L36.812 68.4882L40.976 68.1546V71.7663Z" fill="black"/>
<path d="M29.8738 71.3173C29.8693 71.3695 29.8547 71.4203 29.8309 71.4666C29.8071 71.5129 29.7746 71.5539 29.7352 71.587C29.6959 71.6201 29.6505 71.6447 29.6018 71.6594C29.553 71.6741 29.5019 71.6786 29.4515 71.6725C29.4011 71.6665 29.3523 71.6501 29.3082 71.6243C29.264 71.5985 29.2252 71.5638 29.1943 71.5223C29.1633 71.4807 29.1406 71.4332 29.1277 71.3825C29.1148 71.3318 29.1119 71.2789 29.1191 71.227C29.1594 70.8683 30.1436 62.4201 33.2421 60.2135C36.3269 58.0155 38.6381 58.7785 38.7338 58.8138C38.7811 58.8302 38.8248 58.8562 38.8625 58.89C38.9001 58.9239 38.9309 58.9651 38.9531 59.0113C38.9753 59.0575 38.9884 59.1077 38.9918 59.1592C38.9952 59.2106 38.9888 59.2622 38.9729 59.3111C38.9569 59.36 38.9319 59.4051 38.899 59.444C38.8662 59.4828 38.8263 59.5146 38.7816 59.5375C38.7369 59.5605 38.6883 59.5741 38.6385 59.5776C38.5887 59.5811 38.5387 59.5744 38.4914 59.558C38.4108 59.5297 36.425 58.9002 33.673 60.8595C30.8572 62.8652 29.8829 71.2333 29.8738 71.3173Z" fill="black"/>
<path d="M40.4592 87.6296C37.854 87.6296 37.8448 84.2085 38.5228 81.6636C38.5497 81.5632 38.6141 81.478 38.7018 81.4267C38.7895 81.3754 38.8934 81.3622 38.9905 81.39C39.0877 81.4178 39.1702 81.4843 39.2199 81.5749C39.2695 81.6655 39.2823 81.7728 39.2554 81.8732C39.0183 82.7555 38.576 85.2777 39.3595 86.3414C39.4891 86.5117 39.6571 86.6467 39.8488 86.7345C40.0405 86.8223 40.25 86.8604 40.4592 86.8454C42.4178 86.8454 44.3451 86.1027 45.2556 84.9975C45.4341 84.8071 45.5689 84.5778 45.6501 84.3265C45.7312 84.0751 45.7567 83.8081 45.7245 83.5452C45.5999 83.0821 42.8145 82.7469 43.0052 80.753C43.0153 80.6494 43.0648 80.5542 43.1429 80.4883C43.2209 80.4224 43.3211 80.3913 43.4213 80.4017C43.5216 80.4121 43.6138 80.4632 43.6776 80.5438C43.7414 80.6244 43.7715 80.7279 43.7614 80.8315C43.6231 82.2751 46.29 82.2492 46.4754 83.422C46.5252 83.7971 46.4935 84.1789 46.3827 84.5398C46.2719 84.9007 46.0847 85.2316 45.8347 85.5085C44.7882 86.7755 42.6283 87.6296 40.4592 87.6296Z" fill="black"/>
<path d="M34.4815 90.4375C33.091 90.4468 31.7208 90.0917 30.4993 89.4052C29.2778 88.7188 28.2449 87.7235 27.4971 86.5125C27.4481 86.4216 27.4362 86.3142 27.4638 86.2141C27.4915 86.114 27.5565 86.0293 27.6446 85.9787C27.7326 85.9281 27.8366 85.9158 27.9335 85.9443C28.0304 85.9729 28.1124 86.04 28.1614 86.131C28.8926 87.3298 29.9346 88.2929 31.169 88.9109C32.4035 89.5289 33.7809 89.7771 35.145 89.6274C39.3014 89.3056 40.069 87.2002 40.0994 87.1107C40.1318 87.012 40.2008 86.9306 40.2912 86.8845C40.3816 86.8383 40.4861 86.8312 40.5817 86.8646C40.6772 86.898 40.756 86.9693 40.8007 87.0627C40.8453 87.1561 40.8523 87.264 40.8199 87.3627C40.785 87.471 39.9026 90.045 35.202 90.4108C34.9558 90.4297 34.7156 90.4375 34.4815 90.4375Z" fill="black"/>
<path d="M22.8887 87.5496C22.8502 87.4534 22.7763 87.3769 22.6832 87.337C22.5902 87.2972 22.4856 87.2971 22.3925 87.3368C22.0444 87.4868 13.8333 91.0263 11.4735 93.9999C9.0841 97.0119 7.77158 109.866 7.62946 115.756C7.61806 116.269 9.19886 117.606 9.57658 117.606C9.66035 117.607 9.74189 117.579 9.80851 117.526C9.87513 117.474 9.92309 117.4 9.94494 117.316C9.96678 117.233 9.96129 117.144 9.92931 117.064C9.89732 116.984 9.84065 116.917 9.7681 116.874C9.22975 116.576 8.76041 116.161 8.3925 115.658C8.55514 109.457 9.90566 97.2106 12.0618 94.4968C12.259 94.2541 12.4731 94.0266 12.7025 93.8162C12.8035 93.8727 19.1328 97.5497 20.9447 112.706C20.9508 112.757 20.9666 112.806 20.9913 112.851C21.0159 112.896 21.0488 112.935 21.0882 112.967C21.1276 112.999 21.1726 113.022 21.2208 113.036C21.2689 113.05 21.3192 113.053 21.3687 113.047C21.4183 113.041 21.4661 113.024 21.5096 112.999C21.553 112.974 21.5912 112.94 21.6219 112.899C21.6526 112.858 21.6752 112.812 21.6885 112.762C21.7018 112.712 21.7055 112.66 21.6993 112.609C20.0152 98.5254 14.5933 94.1333 13.3173 93.2824C16.4607 90.7453 22.6113 88.0936 22.6835 88.0622C22.7765 88.0222 22.8503 87.9458 22.8888 87.8497C22.9273 87.7536 22.9273 87.6456 22.8887 87.5496Z" fill="black"/>
<path d="M60.3694 110.917C59.3079 105.826 57.8044 100.843 55.8771 96.0299C53.0058 89.3197 44.5288 86.1648 44.1731 86.0337C44.078 85.999 43.9736 86.0048 43.8826 86.0497C43.7917 86.0946 43.7218 86.175 43.6882 86.2731C43.6546 86.3713 43.6602 86.4792 43.7037 86.5731C43.7471 86.667 43.825 86.7393 43.92 86.7739C47.2553 88.0915 50.2849 90.1191 52.812 92.725C52.774 93.0916 52.7398 102.508 51.7275 105.575C51.0338 107.783 50.4953 110.039 50.1163 112.326C50.1018 112.428 50.1267 112.532 50.1857 112.615C50.2447 112.698 50.3329 112.754 50.4314 112.771C50.5299 112.787 50.6308 112.763 50.7121 112.704C50.7935 112.644 50.8489 112.554 50.8664 112.452C51.239 110.209 51.7671 107.996 52.4464 105.831C53.3288 103.156 53.5158 96.0746 53.5545 93.6144C54.2084 94.4498 54.7553 95.3688 55.1817 96.3486C57.0882 101.11 58.5752 106.04 59.6246 111.078C59.6448 111.18 59.7034 111.269 59.7874 111.327C59.8715 111.384 59.9743 111.405 60.073 111.384C60.1718 111.363 60.2585 111.302 60.3141 111.216C60.3697 111.129 60.3896 111.023 60.3694 110.921V110.917Z" fill="black"/>
<path fill-rule="evenodd" clip-rule="evenodd" d="M57.3271 117.207C59.1238 113.292 62.7991 105.014 63.132 102.008C63.5781 98.0128 62.6297 97.8542 64.0585 95.4977C65.1093 93.9531 65.8047 92.1811 66.0915 90.3167C66.2123 89.1337 66.6151 88.9461 67.0475 89.0151C67.48 89.0842 67.8661 89.8362 67.7027 91.2406C67.6018 92.4332 67.434 93.6187 67.2003 94.7912C68.0388 94.8262 68.8712 94.6289 69.611 94.2197C69.9927 93.8953 70.4495 93.6789 70.9365 93.5917C70.9365 93.5917 68.9422 93.766 69.0213 93.0029C69.1003 92.2399 69.9203 91.8867 71.5961 91.8192C71.5961 91.8192 69.6391 90.863 69.9165 90.0466C70.1939 89.2302 71.5771 89.87 72.3485 90.2821C72.3485 90.2821 74.2736 86.8485 75.2669 87.234C76.2603 87.6194 73.9749 91.3584 73.9749 91.3584C74.1649 91.6997 74.2242 92.1021 74.1414 92.4864C74.2722 92.6788 74.3519 92.9033 74.3726 93.1374C74.3932 93.3716 74.3541 93.6072 74.2592 93.8209C74.4828 94.1295 74.6315 94.4891 74.6928 94.8694C74.754 95.2497 74.726 95.6396 74.6111 96.0063C73.2325 98.79 71.0979 101.098 68.4688 102.647C68.4688 102.647 66.7344 113.017 66.0489 117.204L57.3271 117.207Z" fill="#FFD997"/>
<path d="M74.5326 92.404C74.5731 92.0585 74.5305 91.708 74.4087 91.3835C75.1285 90.1762 76.6743 87.3682 75.4028 86.8729C74.3388 86.4513 72.9184 88.5551 72.204 89.7727C71.2327 89.2923 69.9141 88.8676 69.5584 89.9179C69.3471 90.5388 69.8563 91.1221 70.4058 91.5444C69.5045 91.7061 68.7338 92.079 68.6426 92.9637C68.6046 93.3381 68.8037 93.7055 69.4148 93.8837L69.4026 93.8971C68.8728 94.204 68.2792 94.3747 67.6721 94.3948C67.8492 93.4771 67.913 92.7565 68.0802 91.2924C68.274 89.5921 67.7321 88.7318 67.1059 88.6328C66.1681 88.4806 65.8139 89.3064 65.7136 90.2813C65.4245 92.0828 64.7494 93.7947 63.7376 95.292C62.2373 97.7687 63.1957 98.0269 62.7557 101.965C62.4213 104.957 58.6083 113.504 56.985 117.036C56.9513 117.129 56.9523 117.23 56.988 117.322C57.0236 117.413 57.0911 117.487 57.1772 117.53C57.2634 117.572 57.3617 117.579 57.4528 117.55C57.5439 117.521 57.6211 117.458 57.669 117.372C59.7065 112.937 63.1737 105.048 63.5088 102.051C63.9572 98.0324 63.0262 97.9359 64.3798 95.7033C67.2093 91.0381 66.108 89.2758 66.9896 89.4037C67.1462 89.4281 67.4631 89.9783 67.3248 91.1943C66.8756 95.1303 66.7084 94.7723 66.8961 95.0282C66.9297 95.0741 66.9725 95.1118 67.0216 95.1389C67.0707 95.166 67.1248 95.1818 67.1804 95.1852C67.8251 95.2015 68.4677 95.1035 69.0804 94.8956C69.2757 95.7928 71.3748 95.6641 72.3484 95.6021C72.1932 95.9341 72.0703 96.2812 71.9813 96.6383C71.9681 96.6888 71.9649 96.7415 71.9717 96.7933C71.9785 96.8451 71.9953 96.895 72.0211 96.94C72.0468 96.985 72.081 97.0243 72.1217 97.0555C72.1623 97.0866 72.2086 97.1091 72.2578 97.1216C72.3069 97.134 72.358 97.1362 72.408 97.128C72.458 97.1197 72.5059 97.1013 72.5489 97.0736C72.5919 97.046 72.6291 97.0098 72.6584 96.9671C72.6876 96.9245 72.7083 96.8762 72.7193 96.8251C72.856 96.3107 73.0641 95.8194 73.3371 95.3666C73.3764 95.3043 73.3978 95.2318 73.3987 95.1575C73.3997 95.0832 73.3802 95.0102 73.3425 94.9469C73.3049 94.8836 73.2506 94.8326 73.186 94.7999C73.1214 94.7672 73.0492 94.7541 72.9777 94.7621C72.0412 94.8666 71.0968 94.8705 70.1596 94.7739C70.0344 94.7606 69.913 94.722 69.8024 94.6601C69.8161 94.5992 69.8434 94.5425 69.8822 94.4944C70.7121 93.7283 72.8553 93.7094 74.0113 94.153C74.1753 94.4004 74.2822 94.6834 74.3238 94.9802C74.3655 95.277 74.3407 95.5797 74.2514 95.8651C72.8999 98.5633 70.8231 100.801 68.2702 102.31C68.2228 102.339 68.182 102.379 68.1507 102.426C68.1194 102.473 68.0982 102.526 68.0886 102.582C68.0886 102.582 66.3535 112.951 65.668 117.139C65.653 117.241 65.6773 117.345 65.7358 117.429C65.7943 117.512 65.8822 117.568 65.9806 117.585C66.0789 117.603 66.1799 117.579 66.2616 117.52C66.3433 117.461 66.3992 117.371 66.4173 117.27C67.0497 113.407 68.575 104.281 68.8075 102.895C71.4464 101.309 73.5832 98.966 74.959 96.1508C75.0914 95.7608 75.1356 95.3446 75.0882 94.9342C75.0407 94.5238 74.903 94.1301 74.6854 93.7832C74.7537 93.5549 74.7754 93.3145 74.7491 93.0771C74.7228 92.8396 74.6491 92.6105 74.5326 92.404ZM72.1766 90.633H72.188C72.7231 90.8918 73.2237 91.2205 73.6776 91.6111C73.7135 91.6856 73.739 91.7649 73.7536 91.8466C73.0914 91.6037 72.3982 91.4622 71.6963 91.4267C69.6907 90.414 69.7598 89.3393 72.1751 90.633H72.1766ZM70.8884 93.2015C70.3874 93.2766 69.8763 93.2226 69.4003 93.0445C69.4193 92.8601 69.4763 92.3004 71.6043 92.2117C72.3902 92.2271 73.1632 92.42 73.8691 92.7769C73.9636 92.9435 74.0127 93.1333 74.0113 93.3264C72.9917 93.0458 71.9244 93.0032 70.8869 93.2015H70.8884ZM73.8775 90.768C73.5652 90.5266 73.2348 90.3111 72.8895 90.1236C73.762 88.665 74.8039 87.471 75.1186 87.5911C75.2858 87.8761 74.7074 89.3299 73.876 90.768H73.8775Z" fill="black"/>
<path d="M64.8491 99.8089C65.0923 99.1134 65.0315 97.8974 67.4331 97.2867C68.8127 96.9183 70.1474 96.3894 71.4117 95.7104C71.4556 95.6857 71.5037 95.6702 71.5534 95.6648C71.6031 95.6593 71.6533 95.664 71.7012 95.6785C71.7491 95.6931 71.7938 95.7173 71.8327 95.7497C71.8715 95.7821 71.9038 95.8221 71.9277 95.8674C71.9516 95.9127 71.9667 95.9625 71.972 96.0138C71.9773 96.0651 71.9727 96.117 71.9586 96.1665C71.9445 96.216 71.9211 96.2621 71.8897 96.3022C71.8583 96.3424 71.8196 96.3758 71.7757 96.4005C70.4545 97.1135 69.058 97.6667 67.614 98.049C65.6805 98.5396 65.8287 99.3089 65.562 100.074C65.5227 100.164 65.4519 100.236 65.3638 100.275C65.2757 100.313 65.1767 100.316 65.0866 100.282C64.9966 100.249 64.9221 100.182 64.878 100.094C64.834 100.006 64.8237 99.9042 64.8491 99.8089Z" fill="black"/>
<path fill-rule="evenodd" clip-rule="evenodd" d="M91.812 117.307C91.812 117.307 93.6026 101.314 94.8178 96.4805C96.0331 91.6473 96.5164 91.7894 96.5164 91.7894C100.082 87.5142 106.877 84.6097 111.118 82.951L124.404 78.672C124.404 78.672 125.782 79.2262 126 82.2571C128.476 83.4725 131.024 84.5252 133.629 85.4089C136.597 86.2802 140.373 87.6657 141.713 91.9801C143.053 96.2945 146.08 112.974 146.696 117.307H91.812Z" fill="#81F8F8"/>
<path fill-rule="evenodd" clip-rule="evenodd" d="M112.592 84.9763C112.044 84.6871 111.589 84.2409 111.28 83.6913C110.42 82.1142 109.177 80.6039 107.843 78.3085C106.508 76.0132 108.583 73.3685 108.583 73.3685C107.51 65.9895 110.169 63.3354 110.169 63.3354C120.111 60.1954 125.619 63.5301 127.233 72.5498C127.233 72.5498 128.118 73.5499 127.073 75.6898C126.471 76.9894 125.481 78.0543 124.247 78.7269L124.309 78.9868C124.309 78.9868 123.52 88.5873 117.985 89.2758C111.829 90.0411 112.528 85.0305 112.528 85.0305L112.592 84.9763Z" fill="#FFD997"/>
<path d="M108.36 71.574C108.282 71.5739 108.206 71.5492 108.143 71.5033C108.079 71.4573 108.031 71.3924 108.004 71.3171C107.977 71.2419 107.973 71.16 107.993 71.0824C108.012 71.0049 108.055 70.9353 108.113 70.8832C108.587 70.473 109.18 70.237 109.798 70.2121C110.416 70.1872 111.024 70.375 111.527 70.7459C111.571 70.7746 111.608 70.8121 111.637 70.856C111.665 70.9 111.685 70.9495 111.695 71.0017C111.705 71.0538 111.704 71.1074 111.693 71.1593C111.682 71.2111 111.661 71.2602 111.631 71.3034C111.602 71.3467 111.564 71.3833 111.52 71.4109C111.476 71.4386 111.427 71.4568 111.376 71.4644C111.325 71.472 111.274 71.4689 111.224 71.4552C111.174 71.4415 111.128 71.4176 111.087 71.3848C110.722 71.1151 110.28 70.9781 109.831 70.9953C109.383 71.0124 108.952 71.1829 108.607 71.4798C108.538 71.5406 108.45 71.574 108.36 71.574Z" fill="black"/>
<path d="M116.872 71.888C114.949 70.858 113.787 71.4955 113.738 71.5222C113.65 71.5737 113.547 71.5872 113.449 71.5596C113.352 71.5321 113.27 71.4658 113.22 71.3754C113.17 71.2849 113.157 71.1777 113.183 71.0773C113.21 70.9769 113.274 70.8915 113.362 70.84C113.424 70.8031 114.907 69.9521 117.222 71.1901C117.311 71.238 117.379 71.3207 117.41 71.42C117.44 71.5193 117.431 71.627 117.385 71.7196C117.362 71.7654 117.33 71.8061 117.292 71.8394C117.254 71.8726 117.21 71.8978 117.162 71.9134C117.066 71.945 116.962 71.9358 116.872 71.888Z" fill="black"/>
<path fill-rule="evenodd" clip-rule="evenodd" d="M110.563 73.5514C109.712 74.1951 109.464 73.9596 109.464 73.9596L109.152 72.64C109.434 72.6879 109.704 72.7932 109.946 72.9496C110.188 73.1061 110.398 73.3106 110.563 73.5514Z" fill="white"/>
<path fill-rule="evenodd" clip-rule="evenodd" d="M116.867 73.7909C116.575 73.9808 116.249 74.1083 115.909 74.1657C115.569 74.2232 115.221 74.2094 114.886 74.1253L114.755 72.819C115.547 72.8784 116.294 73.2222 116.867 73.7909Z" fill="white"/>
<path d="M110.864 73.3127C110.667 73.0283 110.416 72.7876 110.127 72.6049C109.838 72.4222 109.517 72.3012 109.182 72.2491C109.129 72.2442 109.075 72.2512 109.025 72.2697C108.975 72.2882 108.929 72.3177 108.891 72.3562C108.853 72.3947 108.823 72.4413 108.804 72.4927C108.785 72.5442 108.777 72.5992 108.781 72.6541C108.656 72.8289 108.591 73.0414 108.595 73.2586C108.595 74.3058 109.755 74.4447 109.876 73.3865C110.287 73.717 110.268 73.9439 110.56 73.9439C110.631 73.9443 110.701 73.9242 110.762 73.8857C110.822 73.8472 110.871 73.792 110.903 73.7262C110.934 73.6605 110.948 73.5869 110.941 73.5138C110.934 73.4407 110.907 73.371 110.864 73.3127Z" fill="black"/>
<path d="M117.258 73.469C115.617 72.2805 114.576 72.4061 114.465 72.4242C114.381 72.4387 114.304 72.4825 114.248 72.5484C114.191 72.6143 114.158 72.6982 114.155 72.7861C113.74 73.323 114.06 74.2595 114.646 74.2595C114.987 74.2595 115.33 73.8961 115.254 73.3034C115.817 73.4791 116.346 73.7526 116.819 74.1119C116.902 74.1717 117.004 74.1951 117.103 74.1771C117.202 74.1591 117.291 74.101 117.349 74.0158C117.406 73.9305 117.429 73.825 117.412 73.7225C117.394 73.6199 117.338 73.5288 117.255 73.469H117.258Z" fill="black"/>
<path d="M110.543 77.8328C110.414 77.8734 110.277 77.8732 110.148 77.8322C110.02 77.7912 109.906 77.7113 109.822 77.6028C109.281 77.0038 109.804 76.2526 110.491 75.824C110.578 75.7702 110.681 75.754 110.779 75.779C110.877 75.804 110.961 75.8682 111.013 75.9574C111.066 76.0466 111.081 76.1536 111.057 76.2547C111.033 76.3559 110.971 76.4429 110.884 76.4967C110.602 76.6741 110.352 76.9512 110.36 77.0462C110.365 77.053 110.368 77.0608 110.37 77.069C110.546 77.0269 110.728 77.0316 110.901 77.0825C111.074 77.1335 111.231 77.229 111.358 77.3602C112.217 78.0667 112.277 77.2268 113.595 76.9787L113.588 76.9575C113.567 76.9099 113.555 76.8582 113.553 76.8057C113.551 76.7531 113.56 76.7007 113.578 76.6516C113.596 76.6025 113.624 76.5577 113.659 76.5198C113.694 76.4819 113.737 76.4517 113.783 76.431C113.83 76.4104 113.881 76.3996 113.932 76.3994C113.982 76.3992 114.033 76.4096 114.08 76.4299C114.127 76.4503 114.169 76.4802 114.205 76.5178C114.24 76.5554 114.268 76.6 114.287 76.649C114.351 76.7629 114.389 76.8902 114.398 77.0215C114.407 77.1527 114.387 77.2844 114.34 77.4065C114.107 77.8524 113.585 77.635 113.021 78.0102C111.462 79.0496 110.93 77.7307 110.543 77.8328Z" fill="black"/>
<path fill-rule="evenodd" clip-rule="evenodd" d="M109.995 78.9333C112.076 79.7695 114.369 79.8525 116.501 79.1689C116.501 79.1689 114.174 81.8135 112.258 81.1109C110.835 80.7341 109.995 78.9333 109.995 78.9333Z" fill="white"/>
<path d="M111.936 81.4108C110.384 81.0058 109.671 79.154 109.641 79.0762C109.614 79.0029 109.608 78.9227 109.625 78.8461C109.642 78.7694 109.681 78.6997 109.737 78.6461C109.792 78.5926 109.862 78.5576 109.938 78.5457C110.013 78.5338 110.09 78.5455 110.159 78.5793C112.158 79.366 114.355 79.4397 116.399 78.7889C116.478 78.7661 116.562 78.7703 116.639 78.8009C116.715 78.8315 116.78 78.8868 116.824 78.9586C116.867 79.0305 116.887 79.1149 116.88 79.1993C116.873 79.2838 116.84 79.3637 116.786 79.4271C115.612 80.7883 113.618 82.0765 111.936 81.4108ZM110.829 79.6469C111.756 80.9288 113.261 81.3245 115.174 79.8652C113.727 80.105 112.247 80.0307 110.829 79.6469Z" fill="black"/>
<path d="M112.781 83.1386C112.535 83.1453 112.289 83.0988 112.061 83.002C111.833 82.9052 111.627 82.7603 111.456 82.5766C111.391 82.4974 111.358 82.3945 111.366 82.2906C111.374 82.1868 111.422 82.0904 111.499 82.0227C111.575 81.9551 111.675 81.9217 111.775 81.9298C111.876 81.938 111.969 81.9871 112.035 82.0663C112.068 82.104 112.708 82.7893 114.087 81.8646C114.129 81.8358 114.176 81.8159 114.225 81.806C114.274 81.7961 114.325 81.7964 114.374 81.807C114.424 81.8175 114.47 81.838 114.512 81.8674C114.553 81.8967 114.589 81.9342 114.616 81.9778C114.643 82.0214 114.662 82.0701 114.671 82.1212C114.68 82.1723 114.679 82.2248 114.668 82.2755C114.658 82.3262 114.637 82.3742 114.608 82.4168C114.579 82.4593 114.543 82.4955 114.5 82.5232C113.997 82.8965 113.4 83.1104 112.781 83.1386Z" fill="black"/>
<path d="M142.073 91.86C140.757 87.6249 137.285 86.0753 133.73 85.0305C131.213 84.1811 128.751 83.1678 126.358 81.9964C126.337 80.7664 125.878 79.5874 125.071 78.683C126.875 77.4105 128.782 74.287 127.615 72.4249C127.628 71.5834 127.672 66.9378 127.042 64.9557C126.354 62.7938 124.296 59.1891 118.273 59.3947C112.507 59.5847 110.102 62.7702 109.88 63.0787C109.621 63.3511 107.19 66.1269 108.184 73.261C107.754 73.8693 106.231 76.295 107.517 78.5095C108.575 80.3275 109.391 81.3849 110.329 82.849C108.201 83.7125 98.9924 87.6013 96.251 91.4902C93.2156 95.7983 91.463 116.375 91.387 117.248C91.3688 117.464 92.1265 117.519 92.147 117.315C92.1676 117.111 93.9558 96.0848 96.8682 91.9518C99.5122 88.2003 108.964 84.2463 110.74 83.5272C111.058 84.1873 111.542 84.7465 112.141 85.1459C112.088 85.7624 112.16 86.3836 112.351 86.9702C112.542 87.5567 112.85 88.0959 113.253 88.5536C113.807 89.0417 114.457 89.4009 115.158 89.6068C115.858 89.8127 116.594 89.8604 117.314 89.7467C117.719 90.3214 120.471 93.1686 121.925 93.8978C122.008 93.9399 122.104 93.9486 122.194 93.9224C122.284 93.8962 122.361 93.8369 122.411 93.7557C122.563 93.51 125.983 87.9232 126.334 82.8521C128.667 83.9888 131.069 84.969 133.524 85.7864C136.875 86.7708 140.144 88.2199 141.352 92.0994C142.644 96.2654 145.684 112.77 146.321 117.227C146.326 117.28 146.342 117.33 146.367 117.376C146.392 117.422 146.426 117.462 146.466 117.494C146.506 117.527 146.553 117.55 146.602 117.564C146.651 117.577 146.703 117.58 146.753 117.572C146.803 117.565 146.852 117.547 146.896 117.519C146.939 117.492 146.977 117.456 147.007 117.413C147.036 117.37 147.058 117.322 147.069 117.271C147.08 117.219 147.081 117.166 147.072 117.114C146.415 112.511 143.405 96.1492 142.073 91.86ZM111.614 83.4981C110.767 81.9517 109.445 80.2993 108.171 78.1068C106.992 76.0783 108.861 73.6386 108.881 73.615C108.913 73.5723 108.937 73.5231 108.95 73.4705C108.963 73.418 108.965 73.3632 108.957 73.3096C108.235 68.3461 109.248 65.586 109.92 64.374C110.927 66.6568 116.785 65.5295 119.152 64.9816C118.392 66.5516 118.742 68.4207 120.168 70.2583C121.156 71.5355 120.884 71.1124 121.334 73.2343C121.52 73.9828 121.847 74.6862 122.296 75.304C122.745 75.9219 123.308 76.4422 123.952 76.8351C124.001 76.863 124.056 76.8793 124.112 76.8828C124.168 76.8864 124.224 76.8771 124.276 76.8556C124.328 76.8342 124.375 76.8011 124.413 76.7587C124.451 76.7163 124.48 76.6657 124.497 76.6106C124.784 75.6811 124.702 74.0742 125.674 73.2154C126.394 72.5819 126.853 72.7743 126.966 72.8402C127.069 72.9862 127.558 73.8167 126.73 75.5147C126.16 76.7569 125.209 77.7708 124.026 78.4004C123.282 78.7214 124.873 80.4594 118.864 83.7808C115.098 85.861 112.507 85.1396 111.614 83.4981ZM113.792 88.004C113.196 87.3312 112.874 86.4474 112.893 85.536C114.919 86.3053 117.339 85.5164 119.229 84.4723C120.888 83.6692 122.374 82.529 123.597 81.1196C123.019 83.9268 121.524 88.4429 117.935 88.8911C116.022 89.1266 114.629 88.866 113.79 88.004H113.792ZM121.957 93.021C120.6 92.0374 119.354 90.9013 118.241 89.6337C123.304 88.8872 124.458 81.1377 124.656 79.3659C127.206 82.2421 123.901 89.6643 121.954 93.021H121.957Z" fill="black"/>
<path d="M104.787 117.625C104.735 117.625 104.683 117.614 104.635 117.593C104.587 117.572 104.544 117.541 104.509 117.501C104.473 117.462 104.446 117.416 104.428 117.365C104.411 117.314 104.403 117.261 104.407 117.207C105.471 100.614 100.854 91.3686 100.807 91.2767C100.76 91.1847 100.75 91.0771 100.78 90.9776C100.81 90.8781 100.876 90.7948 100.965 90.7461C101.055 90.6973 101.159 90.6872 101.255 90.7178C101.351 90.7484 101.432 90.8173 101.479 90.9093C101.527 91.0028 106.244 100.424 105.165 117.259C105.159 117.358 105.116 117.451 105.046 117.519C104.976 117.587 104.883 117.625 104.787 117.625Z" fill="black"/>
<path d="M134.728 117.629C134.633 117.63 134.542 117.594 134.472 117.528C134.401 117.463 134.357 117.373 134.348 117.276C132.459 97.7169 138.238 91.5185 138.485 91.2642C138.557 91.1906 138.653 91.1493 138.754 91.1494C138.855 91.1494 138.952 91.1909 139.023 91.2646C139.094 91.3383 139.134 91.4382 139.134 91.5424C139.134 91.6465 139.094 91.7464 139.023 91.82C138.965 91.8796 133.257 98.0709 135.104 117.197C135.109 117.252 135.104 117.307 135.087 117.359C135.071 117.411 135.044 117.459 135.008 117.499C134.973 117.54 134.93 117.572 134.881 117.595C134.833 117.617 134.781 117.629 134.728 117.629Z" fill="black"/>
<path d="M148.357 117.661H6.38036C5.93804 117.661 5.8172 116.876 6.38036 116.876H148.357C148.8 116.876 148.921 117.661 148.357 117.661Z" fill="black"/>
<path fill-rule="evenodd" clip-rule="evenodd" d="M148.127 130.424L148.474 122.433L116.163 110.698L115.691 99.0019L113.003 100.033V115.565L148.127 130.424Z" fill="white"/>
<path fill-rule="evenodd" clip-rule="evenodd" d="M116.742 97.5991C116.541 98.4242 116.323 99.2123 116.092 99.9149C115.494 101.735 112.776 101.781 112.201 100.253C111.927 99.2201 111.778 98.1559 111.757 97.0849C109.739 96.5912 110.145 92.6992 110.145 92.6992L111.661 92.7211C111.661 92.2886 111.671 91.8788 111.68 91.5052C111.68 91.5052 112.801 89.0677 114.581 88.8495C116.361 88.6313 117.784 91.2924 117.784 91.2924C117.744 91.8231 117.681 92.4001 117.601 93.0084L119.137 93.0234C119.137 93.0234 119.343 96.9813 116.742 97.5991Z" fill="white"/>
<path d="M114.426 101.701L114.636 111.059C114.655 111.138 114.569 111.47 114.888 111.592C149.529 124.83 148.063 124.264 148.168 124.264C148.246 124.264 148.322 124.239 148.385 124.193C148.449 124.148 148.498 124.083 148.525 124.007C148.551 123.479 148.538 122.949 148.485 122.423C148.479 122.206 148.451 121.995 148.253 121.922L116.374 110.316L116.051 100.775C116.555 99.8903 116.895 98.9167 117.055 97.9037C119.687 97.0559 119.525 93.1701 119.515 92.9998C119.511 92.8989 119.469 92.8036 119.398 92.7338C119.327 92.6641 119.233 92.6252 119.135 92.6253H118.022C118.136 91.7415 118.201 90.8517 118.217 89.9603C118.226 87.6461 118.258 84.4763 115.09 84.2525C111.563 84.0225 111.333 88.6744 111.29 92.3215L110.15 92.3043C110.056 92.3072 109.967 92.3439 109.897 92.408C109.827 92.4721 109.78 92.5596 109.766 92.6552C109.749 92.8208 109.392 96.555 111.399 97.3652C111.448 98.1156 111.514 98.808 111.605 99.3708C111.624 99.7647 111.724 100.15 111.899 100.501C112.074 100.851 112.319 101.16 112.618 101.405V115.559C112.606 115.632 112.618 115.707 112.65 115.773C112.683 115.839 112.735 115.892 112.799 115.926L147.987 130.784C148.08 130.824 148.185 130.823 148.277 130.783C148.37 130.742 148.444 130.665 148.482 130.569C148.52 130.473 148.52 130.365 148.481 130.269C148.442 130.173 148.367 130.097 148.274 130.057L113.382 115.299V101.702C113.728 101.755 114.08 101.754 114.426 101.701ZM110.503 93.0971L111.285 93.1089C111.285 94.1671 111.3 95.3344 111.349 96.4397C110.507 95.719 110.474 93.8766 110.502 93.0971H110.503ZM118.759 93.4111C118.736 94.2299 118.544 96.1908 117.278 96.9625C117.539 95.785 117.761 94.5651 117.924 93.4111H118.759ZM112.147 97.1995C112.042 95.4906 112.025 93.4417 112.054 91.889C112.154 91.5271 112.86 89.2381 114.566 89.3064C115.189 89.3438 115.788 89.5685 116.289 89.9527C116.789 90.337 117.171 90.864 117.385 91.469C117.177 93.6394 116.805 95.7895 116.272 97.8998C116.193 97.4052 115.96 96.9509 115.608 96.6058C115.256 96.2607 114.805 96.0439 114.322 95.9883C113.884 95.9422 113.442 96.033 113.054 96.249C112.666 96.4649 112.35 96.796 112.146 97.1995H112.147ZM112.555 100.112C112.479 99.8872 112.422 99.6564 112.384 99.4219C112.349 98.6832 112.553 97.9536 112.963 97.3471C113.086 97.1758 113.243 97.0345 113.425 96.9333C113.607 96.8321 113.808 96.7735 114.014 96.7616C114.22 96.7497 114.426 96.7848 114.617 96.8644C114.809 96.944 114.981 97.0662 115.121 97.2223C115.584 98.01 115.789 98.9307 115.706 99.8481C115.186 101.252 112.997 101.29 112.555 100.112Z" fill="black"/>
<path fill-rule="evenodd" clip-rule="evenodd" d="M85.987 126.232L85.9573 127.331C85.3713 128.08 84.6214 128.675 83.7693 129.067C82.9172 129.458 81.9873 129.635 81.0561 129.583C78.7655 129.494 76.5347 128.803 74.574 127.577L74.2222 114.875C74.2222 114.875 75.5856 116.482 80.1023 116.366C85.5173 116.223 86.2955 114.847 86.2955 114.847L86.2606 116.131L86.5114 116.144C86.5114 116.144 90.686 117.145 90.4337 121.325C90.1814 125.505 86.1017 126.219 86.1017 126.219L85.987 126.232ZM86.1975 118.368C87.4538 118.662 88.8164 120.256 88.1598 121.822C87.5222 123.343 87.2288 123.733 86.0478 123.96L86.1975 118.368Z" fill="#FFD997"/>
<path fill-rule="evenodd" clip-rule="evenodd" d="M74.3174 114.79C76.1475 117.218 83.3386 116.941 86.371 114.79C86.371 114.79 85.9249 112.108 80.1777 112.286C74.5256 112.461 74.3174 114.79 74.3174 114.79Z" fill="white"/>
<path d="M90.8889 121.292C91.145 117.058 87.1649 115.839 86.7203 115.719L86.7423 114.871C86.764 114.809 86.7696 114.741 86.7585 114.675C86.7475 114.61 86.7202 114.548 86.6792 114.496C86.4284 113.798 85.2565 111.749 80.1675 111.896C74.2441 112.078 73.931 114.674 73.9203 114.784C73.9127 114.862 73.9013 114.361 74.2745 127.533C74.2762 127.597 74.2931 127.659 74.3235 127.715C74.354 127.771 74.3972 127.818 74.4493 127.852C76.4644 129.136 78.7709 129.849 81.1373 129.92C84.7579 129.92 86.2916 127.591 86.3555 127.492C86.436 127.365 86.4178 127.314 86.4391 126.508C87.2834 126.289 90.654 125.19 90.8889 121.292ZM86.6374 118.889C87.0052 119.047 87.3192 119.315 87.5395 119.658C87.7598 120 87.8765 120.403 87.8747 120.815C87.8473 122.589 87.2348 123.184 86.5173 123.468L86.6374 118.889ZM80.1896 112.679C84.4418 112.554 85.6061 114.026 85.9025 114.619C83.716 116.081 76.7065 116.786 74.7472 114.665C74.9821 114.15 75.9982 112.808 80.1896 112.679ZM81.1358 129.133C78.985 129.046 76.8878 128.415 75.0284 127.295L74.7016 115.635C76.2535 116.721 78.5913 116.884 80.47 116.759C82.37 116.731 84.2438 116.296 85.9732 115.483L85.6616 127.14C85.1047 127.807 84.4075 128.333 83.6235 128.678C82.8394 129.024 81.9893 129.179 81.1381 129.133H81.1358ZM86.4558 125.692L86.4923 124.302C87.9363 123.853 88.6005 122.78 88.6309 120.827C88.629 120.206 88.4367 119.603 88.0816 119.102C87.7266 118.602 87.227 118.231 86.6549 118.043L86.6944 116.526C87.4841 116.775 90.328 117.905 90.1258 121.243C90.0595 122.294 89.6668 123.294 89.006 124.096C88.3452 124.897 87.4516 125.457 86.4581 125.692H86.4558Z" fill="black"/>
<path fill-rule="evenodd" clip-rule="evenodd" d="M33.441 100.325L32.4385 112.117L4.09814 117.678V125.842L35.6138 116.998L36.0387 101.523L33.441 100.325Z" fill="white"/>
<path fill-rule="evenodd" clip-rule="evenodd" d="M38.5018 91.8765C38.3498 94.6145 37.8885 99.2735 37.2615 100.647C36.5638 102.176 33.8582 102.111 33.4129 100.281C32.7794 97.44 32.4521 94.5356 32.437 91.6206C32.437 91.6206 34.0748 88.9618 35.8304 89.1925C37.586 89.4233 38.5018 91.8765 38.5018 91.8765Z" fill="white"/>
<path d="M40.4219 93.076C40.4187 92.9741 40.3773 92.8774 40.3064 92.8065C40.2354 92.7356 40.1406 92.696 40.0419 92.6961H38.8259C39.0759 89.056 39.2127 84.3688 35.6673 84.5823C33.5036 84.7189 32.72 86.1963 32.3818 87.8981C32.1002 89.5673 32.0011 91.2639 32.0862 92.9559H30.8953C30.8036 92.9559 30.715 92.9902 30.6459 93.0524C30.5768 93.1146 30.5317 93.2004 30.5191 93.2942C30.4963 93.4661 30.0083 97.4029 32.6121 98.2648C33.1395 101.719 33.2269 98.0882 32.0847 111.786L4.00342 117.292C3.95429 117.302 3.90745 117.321 3.86557 117.349C3.82369 117.378 3.7876 117.414 3.75936 117.457C3.73112 117.499 3.71129 117.547 3.70101 117.598C3.69072 117.648 3.69018 117.7 3.69942 117.751C3.73362 117.94 3.68422 119.146 3.7283 119.357C3.74579 119.446 3.79232 119.525 3.86002 119.582C3.92773 119.64 4.01247 119.671 4.09994 119.671C4.17594 119.671 2.6643 119.944 33.5013 113.131C33.5813 113.113 33.6535 113.069 33.7073 113.006C33.7612 112.942 33.7936 112.862 33.8 112.778L34.6003 102.01C34.9135 102.101 35.239 102.139 35.5639 102.122L35.1269 116.783L3.9753 125.425C3.88684 125.45 3.81019 125.508 3.75952 125.587C3.70884 125.666 3.68756 125.761 3.69961 125.855C3.71165 125.949 3.7562 126.035 3.82504 126.098C3.89387 126.161 3.98234 126.195 4.0741 126.196C4.1501 126.196 2.62174 126.567 35.5981 117.459C35.677 117.437 35.7471 117.39 35.7978 117.324C35.8486 117.258 35.8775 117.177 35.8801 117.092L36.3308 101.957C36.735 101.803 37.0918 101.539 37.3642 101.194C37.6365 100.849 37.8145 100.435 37.8797 99.995C38.0582 99.2736 38.1988 98.5427 38.3007 97.8056C40.4781 97.125 40.4257 93.2448 40.4219 93.076ZM31.2433 93.7409H32.1303C32.2063 94.9757 32.3355 96.249 32.4821 97.3582C31.2167 96.6085 31.1962 94.5557 31.2433 93.7409ZM37.1181 99.9071C37.0867 100.132 37.0115 100.349 36.897 100.544C36.7825 100.738 36.631 100.907 36.4518 101.04C36.2725 101.172 36.0691 101.266 35.8538 101.315C35.6386 101.364 35.4159 101.368 35.1991 101.326C34.8863 101.316 34.5842 101.206 34.3345 101.011C34.0848 100.816 33.8997 100.546 33.8045 100.238C33.8197 99.7807 33.9717 97.2608 35.529 97.1384C35.758 97.1065 35.9911 97.1403 36.2028 97.2361C36.4145 97.3319 36.5965 97.486 36.729 97.6816C37.1273 98.3456 37.2664 99.1411 37.1181 99.9071ZM37.5627 97.596C37.3856 97.1876 37.0879 96.8475 36.7122 96.6245C36.3365 96.4016 35.9021 96.3072 35.4712 96.3549C34.9795 96.4143 34.517 96.6272 34.1456 96.9653C33.7742 97.3033 33.5115 97.7504 33.3926 98.2468C33.0392 96.1273 32.8476 93.9823 32.8196 91.8318C33.085 91.2118 33.5113 90.6797 34.0513 90.2944C34.5913 89.9091 35.224 89.6856 35.8793 89.6487C37.5057 89.6487 38.0271 91.8773 38.0993 92.2305C37.999 93.8005 37.8113 95.8761 37.5627 97.596ZM38.4269 96.895C38.5713 95.7654 38.686 94.5636 38.7711 93.4834H39.6573C39.6155 94.507 39.3442 96.2678 38.4261 96.895H38.4269Z" fill="black"/>
<path fill-rule="evenodd" clip-rule="evenodd" d="M42.9097 112.007C42.9097 112.007 43.2273 109.405 48.2958 109.773C52.684 110.092 52.7258 111.717 52.7258 111.717C52.2919 112.659 52.2698 113.407 47.9067 113.568C45.7977 113.646 43.6537 112.925 42.9097 112.007Z" fill="white"/>
<path fill-rule="evenodd" clip-rule="evenodd" d="M42.4868 122.385L42.5545 124.408C42.5545 124.408 43.8168 125.908 47.6115 125.879C51.4062 125.85 52.4041 124.435 52.4041 124.435L52.8198 111.709C52.8198 111.709 52.2794 113.53 47.9178 113.467C43.9111 113.409 42.8668 112.003 42.8668 112.003L42.8395 113.095C42.3573 113.06 41.8734 113.128 41.4182 113.296C40.9631 113.464 40.5466 113.728 40.1953 114.071C39.8439 114.414 39.5653 114.828 39.3771 115.288C39.1889 115.748 39.0951 116.243 39.1018 116.742C38.8556 119.93 39.9462 122.464 42.4868 122.385ZM42.5628 115.231L42.5165 120.374C42.5165 120.374 40.8399 119.961 40.9076 117.543C40.9752 115.124 42.5598 115.231 42.5598 115.231H42.5628Z" fill="#81F8F8"/>
<path d="M42.4259 120.757C41.7419 120.589 40.4636 119.698 40.5259 117.531C40.5068 117.128 40.5674 116.726 40.7039 116.348C40.8405 115.97 41.0501 115.625 41.3201 115.333C41.664 115.004 42.1178 114.826 42.5863 114.835C42.6826 114.842 42.773 114.886 42.8389 114.959C42.9048 115.032 42.9414 115.128 42.9412 115.228L42.8956 120.372C42.8961 120.432 42.8833 120.491 42.8584 120.545C42.8335 120.598 42.797 120.646 42.7517 120.683C42.7064 120.72 42.6535 120.746 42.597 120.759C42.5406 120.771 42.4821 120.771 42.4259 120.757ZM42.1759 115.696C41.4964 115.966 41.3057 116.807 41.2844 117.554C41.2338 117.965 41.2858 118.383 41.4355 118.768C41.5851 119.152 41.8274 119.491 42.1394 119.752L42.1759 115.696Z" fill="black"/>
<path d="M53.1799 111.583C53.148 111.486 52.3538 109.228 47.5559 109.385C42.7033 109.551 42.4928 111.88 42.4852 111.995L42.4677 112.706C40.4666 112.813 38.9193 114.144 38.7209 116.71C38.4929 119.619 39.3737 122.586 42.1181 122.771C42.1789 124.589 42.1477 124.529 42.2701 124.667C42.3256 124.733 43.6662 126.272 47.5073 126.272H47.6167C51.5573 126.242 52.6684 124.731 52.7133 124.667C52.8181 124.519 52.7072 125.39 53.2019 111.723C53.2031 111.675 53.1956 111.628 53.1799 111.583ZM47.5833 110.17C50.8133 110.069 51.9578 111.112 52.315 111.596C52.2238 111.881 51.5801 113.308 47.8348 113.189C43.8296 113.082 43.3181 111.949 43.2923 111.883C43.461 111.452 44.2279 110.282 47.5833 110.167V110.17ZM42.929 124.24L42.8659 122.374C42.859 122.272 42.815 122.176 42.7425 122.106C42.6701 122.036 42.5746 121.997 42.4753 121.996C40.0007 122.101 39.2833 119.347 39.4801 116.776C39.7492 113.285 42.6851 113.479 42.8089 113.489C42.8605 113.493 42.9123 113.487 42.9612 113.47C43.0102 113.453 43.0553 113.425 43.0937 113.39C43.1321 113.354 43.163 113.31 43.1846 113.262C43.2063 113.213 43.2181 113.161 43.2193 113.108L43.2239 112.932C43.8889 113.408 45.2052 113.904 47.8151 113.974C49.3351 114.01 51.2776 113.839 52.4047 112.783L52.03 124.277C50.4203 125.858 44.8511 125.934 42.929 124.236V124.24Z" fill="black"/>
<path d="M32.4009 26.9326H16.1407C14.4274 26.9326 12.7842 27.6356 11.5728 28.8869C10.3613 30.1383 9.68066 31.8355 9.68066 33.6051V39.597C9.68066 41.3667 10.3613 43.0639 11.5728 44.3152C12.7842 45.5665 14.4274 46.2695 16.1407 46.2695H24.8176C25.2994 47.4376 27.4776 52.1688 31.3536 52.7481C31.4286 52.7598 31.5052 52.7479 31.5737 52.7142C31.6421 52.6805 31.6992 52.6263 31.7376 52.5588C31.776 52.4913 31.794 52.4134 31.7892 52.3352C31.7845 52.257 31.7571 52.1821 31.7108 52.1201C31.688 52.0895 29.5212 49.0924 29.4163 46.2672H32.3978C34.1111 46.2672 35.7543 45.5642 36.9657 44.3128C38.1772 43.0615 38.8578 41.3643 38.8578 39.5947V33.6075C38.8584 31.8379 38.1785 30.1406 36.9676 28.8889C35.7567 27.6371 34.114 26.9334 32.4009 26.9326Z" fill="black"/>
<path d="M135.12 29.7021H118.856C117.143 29.7021 115.5 30.4051 114.288 31.6564C113.077 32.9078 112.396 34.6049 112.396 36.3746V42.372C112.396 44.1416 113.077 45.8388 114.288 47.0902C115.5 48.3415 117.143 49.0445 118.856 49.0445H121.838C121.733 51.8658 119.566 54.8668 119.543 54.8982C119.497 54.9602 119.469 55.0351 119.465 55.1133C119.46 55.1915 119.478 55.2694 119.516 55.3369C119.555 55.4044 119.612 55.4586 119.68 55.4923C119.749 55.526 119.825 55.5379 119.9 55.5262C123.776 54.9477 125.957 50.2157 126.436 49.0476H135.113C136.826 49.0476 138.47 48.3446 139.681 47.0933C140.893 45.842 141.573 44.1448 141.573 42.3751V36.3769C141.574 34.6081 140.894 32.9114 139.684 31.6597C138.474 30.4081 136.833 29.704 135.12 29.7021Z" fill="black"/>
<path d="M17.1304 36.7255C17.1304 36.8931 17.1623 37.0591 17.2244 37.214C17.2865 37.3688 17.3776 37.5095 17.4923 37.6281C17.6071 37.7466 17.7433 37.8406 17.8932 37.9048C18.0432 37.9689 18.2038 38.0019 18.3661 38.0019C18.5284 38.0019 18.6891 37.9689 18.839 37.9048C18.989 37.8406 19.1252 37.7466 19.2399 37.6281C19.3547 37.5095 19.4457 37.3688 19.5078 37.214C19.5699 37.0591 19.6019 36.8931 19.6019 36.7255C19.6019 36.5579 19.5699 36.3919 19.5078 36.237C19.4457 36.0822 19.3547 35.9415 19.2399 35.8229C19.1252 35.7044 18.989 35.6104 18.839 35.5463C18.6891 35.4821 18.5284 35.4491 18.3661 35.4491C18.2038 35.4491 18.0432 35.4821 17.8932 35.5463C17.7433 35.6104 17.6071 35.7044 17.4923 35.8229C17.3776 35.9415 17.2865 36.0822 17.2244 36.237C17.1623 36.3919 17.1304 36.5579 17.1304 36.7255Z" fill="white"/>
<path d="M131.659 39.4958C131.659 39.8343 131.789 40.159 132.021 40.3983C132.253 40.6377 132.567 40.7722 132.895 40.7722C133.223 40.7722 133.537 40.6377 133.769 40.3983C134.001 40.159 134.131 39.8343 134.131 39.4958C134.131 39.1572 134.001 38.8326 133.769 38.5932C133.537 38.3538 133.223 38.2194 132.895 38.2194C132.567 38.2194 132.253 38.3538 132.021 38.5932C131.789 38.8326 131.659 39.1572 131.659 39.4958Z" fill="white"/>
<path d="M23.0352 36.7255C23.0352 37.064 23.1654 37.3887 23.3971 37.6281C23.6289 37.8674 23.9432 38.0019 24.2709 38.0019C24.5987 38.0019 24.913 37.8674 25.1447 37.6281C25.3765 37.3887 25.5067 37.064 25.5067 36.7255C25.5067 36.387 25.3765 36.0623 25.1447 35.8229C24.913 35.5836 24.5987 35.4491 24.2709 35.4491C23.9432 35.4491 23.6289 35.5836 23.3971 35.8229C23.1654 36.0623 23.0352 36.387 23.0352 36.7255Z" fill="white"/>
<path d="M125.754 39.4958C125.754 39.8343 125.884 40.159 126.116 40.3983C126.348 40.6377 126.662 40.7722 126.99 40.7722C127.317 40.7722 127.632 40.6377 127.863 40.3983C128.095 40.159 128.225 39.8343 128.225 39.4958C128.225 39.1572 128.095 38.8326 127.863 38.5932C127.632 38.3538 127.317 38.2194 126.99 38.2194C126.662 38.2194 126.348 38.3538 126.116 38.5932C125.884 38.8326 125.754 39.1572 125.754 39.4958Z" fill="white"/>
<path d="M28.9399 36.7255C28.9399 37.064 29.0701 37.3887 29.3019 37.6281C29.5336 37.8674 29.848 38.0019 30.1757 38.0019C30.5034 38.0019 30.8178 37.8674 31.0495 37.6281C31.2813 37.3887 31.4115 37.064 31.4115 36.7255C31.4115 36.387 31.2813 36.0623 31.0495 35.8229C30.8178 35.5836 30.5034 35.4491 30.1757 35.4491C29.848 35.4491 29.5336 35.5836 29.3019 35.8229C29.0701 36.0623 28.9399 36.387 28.9399 36.7255Z" fill="white"/>
<path d="M119.849 39.4958C119.849 39.8343 119.979 40.159 120.211 40.3983C120.443 40.6377 120.757 40.7722 121.085 40.7722C121.413 40.7722 121.727 40.6377 121.959 40.3983C122.19 40.159 122.321 39.8343 122.321 39.4958C122.321 39.1572 122.19 38.8326 121.959 38.5932C121.727 38.3538 121.413 38.2194 121.085 38.2194C120.757 38.2194 120.443 38.3538 120.211 38.5932C119.979 38.8326 119.849 39.1572 119.849 39.4958Z" fill="white"/>
</svg>
