<svg width="153" height="158" viewBox="0 0 153 158" fill="none" xmlns="http://www.w3.org/2000/svg">
<path d="M74.15 30.421L62.8944 14.9086C62.7044 14.6519 62.3069 14.7296 62.2248 15.046C62.199 15.1449 59.5276 24.9566 47.7658 26.6702C33.9862 28.6775 24.848 35.3037 24.7576 35.3704C24.6071 35.4811 24.5554 35.686 24.6344 35.8579L33.5196 55.1846C33.6465 55.4617 34.0227 55.4892 34.1846 55.2262C34.2287 55.1532 38.7226 47.932 46.4176 46.8699C58.1664 45.2449 70.1235 43.5674 74.2092 30.7813C74.248 30.6588 74.2267 30.5238 74.1507 30.4202L74.15 30.421Z" fill="#81F8F8"/>
<path d="M33.2788 55.3023L24.3936 35.9764C24.2598 35.6836 24.348 35.3342 24.6034 35.1466C24.6946 35.0799 33.9005 28.4129 47.7295 26.3986C59.2663 24.7179 61.9429 15.0726 61.9688 14.9745C62.1086 14.4399 62.7813 14.3025 63.1066 14.7421L74.3636 30.2553C74.4913 30.4303 74.5293 30.6596 74.4624 30.8676C70.3174 43.8413 58.1862 45.5196 46.4534 47.143C38.8784 48.1886 34.4552 55.3007 34.4104 55.3722C34.1292 55.8298 33.4908 55.7647 33.2795 55.3015L33.2788 55.3023ZM62.6316 15.0357C62.5753 15.0161 62.5023 15.0428 62.4825 15.1181C62.4559 15.2186 59.7108 25.2085 47.8031 26.9434C34.1018 28.9389 25.0024 35.5289 24.9119 35.5949C24.8671 35.6278 24.8511 35.6898 24.8747 35.7409L33.7606 55.0668C33.7994 55.1555 33.9149 55.1547 33.9612 55.0786C34.0053 55.0063 38.5136 47.6839 46.3834 46.5974C57.9529 44.9968 69.9169 43.342 73.9578 30.6957C73.9867 30.6015 73.9942 30.6619 62.6322 15.0349L62.6316 15.0357Z" fill="black"/>
<path fill-rule="evenodd" clip-rule="evenodd" d="M26.8706 36.5038L34.0138 51.4941C34.0138 51.4941 39.1773 45.1961 46.4497 44.2698C53.7222 43.3435 67.4698 42.6487 71.5518 30.8824L63.0436 18.3608C63.0436 18.3608 59.261 26.9487 48.1597 28.4418C35.5262 30.1405 26.8706 36.5038 26.8706 36.5038Z" fill="white"/>
<path d="M39.9382 43.4646L39.3986 42.4637C39.8455 42.2149 40.1814 41.8295 40.341 41.3765C40.9254 39.7115 38.9867 38.2302 37.2303 38.9257C35.8646 39.4698 34.3955 38.3637 34.812 37.176C35.2604 35.898 37.3793 35.7685 38.0542 37.0182C38.2229 37.3369 38.691 37.0677 38.5185 36.7505C38.023 35.8305 36.8184 35.3854 35.7514 35.6939L35.1798 34.6326C35.0066 34.3162 34.5437 34.5816 34.714 34.8995L35.2528 35.9011C34.8067 36.15 34.4708 36.5346 34.3112 36.9892C33.7298 38.6471 35.6586 40.1425 37.4211 39.4391C38.7929 38.8959 40.2566 40.0036 39.8402 41.1897C39.3948 42.459 37.2774 42.6066 36.598 41.3475C36.43 41.0311 35.9604 41.2964 36.1336 41.6152C36.6406 42.5587 37.8596 42.9732 38.9008 42.6718L39.4731 43.7339C39.638 44.0455 40.1115 43.7865 39.9374 43.4662L39.9382 43.4646Z" fill="black"/>
<path d="M64.2883 35.601L63.5944 34.4157C64.2647 33.7618 64.3954 32.5929 63.8604 31.68C63.2813 30.6893 62.1071 30.3329 61.2399 30.9593C60.6775 31.3652 59.837 31.187 59.3802 30.4059C58.697 29.2394 59.4524 27.8076 60.5916 28.0556C60.977 28.1333 61.3228 28.4097 61.5485 28.7943C61.7294 29.1059 62.1861 28.8218 62.0037 28.5109C61.4839 27.6207 60.4761 27.2306 59.6295 27.6435L58.9516 26.4856C58.7707 26.174 58.3139 26.4581 58.4963 26.769L59.1902 27.9544C58.5199 28.6075 58.3899 29.7771 58.9242 30.6901C59.5117 31.6949 60.6874 32.0285 61.5439 31.4099C62.1679 30.9609 62.991 31.2576 63.4036 31.9641C64.0869 33.1314 63.3284 34.564 62.193 34.3136C61.8114 34.2343 61.4603 33.9612 61.2354 33.5757C61.0522 33.2657 60.5977 33.5483 60.7801 33.8591C61.306 34.7579 62.3161 35.1363 63.1544 34.7265L63.8323 35.8844C64.0109 36.1914 64.4714 35.9135 64.2883 35.601Z" fill="black"/>
<path d="M53.2234 39.269C54.023 38.6994 53.4943 36.4751 52.0425 34.3009C50.5907 32.1268 48.7657 30.826 47.9661 31.3956C47.1665 31.9652 47.6953 34.1894 49.1471 36.3636C50.5989 38.5378 52.4239 39.8386 53.2234 39.269Z" fill="#FFD997"/>
<path d="M48.7127 36.1862C47.8007 34.7261 46.5285 31.6905 47.9922 31.0703C49.2029 30.5577 51.2055 32.4417 52.477 34.478C53.3518 35.8792 54.6833 38.9635 53.1967 39.5946C51.7717 40.1983 49.6057 37.6164 48.7127 36.1862ZM48.1952 31.5782C47.2034 31.9974 48.5068 34.8422 49.1604 35.8879C50.5626 38.1369 52.309 39.3788 52.9946 39.0852C53.9871 38.666 52.683 35.8211 52.0294 34.7747C50.6264 32.5273 48.8837 31.287 48.1952 31.5782Z" fill="black"/>
<path d="M71.7697 30.7249L63.2615 18.2033C63.1414 18.0298 62.8861 18.055 62.8017 18.2473C62.7645 18.3313 58.9402 26.7151 48.1246 28.1697C35.5709 29.8582 26.8036 36.2159 26.7162 36.2795C26.6105 36.3572 26.5741 36.504 26.6318 36.6249L33.7751 51.6161C33.8549 51.7872 34.0882 51.828 34.2159 51.6726C34.2668 51.6098 39.3998 45.4444 46.4807 44.5432C47.0257 44.4741 47.6063 44.4058 48.2181 44.3344C55.606 43.4693 67.9705 42.021 71.8016 30.9753C71.8313 30.8921 71.8184 30.7987 71.7697 30.7249ZM70.0742 33.5242C68.0609 31.502 68.5253 30.1291 70.2292 29.4147L71.2544 30.9243C70.9208 31.8623 70.5226 32.7243 70.0742 33.5242ZM63.0776 18.8886L65.0749 21.8285C64.8135 22.1966 64.0132 23.1473 62.8975 22.7642C62.3153 22.564 61.9254 21.414 61.7947 20.877C62.4301 20.0237 62.8519 19.3102 63.0776 18.8894V18.8886ZM29.6209 35.0934C30.5261 36.9429 29.9766 38.2993 28.3631 39.0129L27.2117 36.5959C27.559 36.3557 28.3912 35.8022 29.6209 35.0934ZM34.0806 51.01L32.9596 48.6582C33.3791 47.8347 33.867 47.3818 34.4165 47.3355C35.3323 47.2585 36.2215 48.2374 36.5589 48.6566C35.349 49.6638 34.4872 50.5595 34.0806 51.01ZM46.4169 43.9976C42.5318 44.4922 39.2281 46.5191 36.9769 48.3151C35.5618 46.5403 33.8739 46.1046 32.6814 48.0726L28.5995 39.5074C30.4067 38.6989 31.1781 37.0096 30.0959 34.8241C33.6755 32.8161 40.1385 29.797 48.1945 28.7137C55.1151 27.7835 59.2419 24.0838 61.3889 21.3975C61.5857 22.0271 62.0015 23.0327 62.7265 23.2823C63.9091 23.6889 64.8872 22.94 65.3956 22.2979L69.9169 28.9523C67.9599 29.8425 67.4134 31.6669 69.7915 34.0022C64.8264 42.1662 54.4623 42.9662 46.4169 43.9976Z" fill="black"/>
<path d="M58.0813 20.5227L42.6313 9.51699C42.3714 9.33566 42.0195 9.54054 42.0393 9.8671C42.0453 9.96915 42.5355 20.1498 31.9138 25.6401C19.4688 32.0724 12.8477 41.3582 12.7823 41.4516C12.6736 41.6054 12.6881 41.8174 12.8157 41.9548L27.1942 57.3557C27.4001 57.577 27.7649 57.4789 27.8379 57.1759C27.8569 57.0927 29.8922 48.7693 36.8599 45.2329C47.4968 39.8298 58.3154 34.3096 58.2493 20.8453C58.2493 20.7166 58.1862 20.5957 58.0821 20.5227H58.0813Z" fill="#81F8F8"/>
<path d="M27.0015 57.5465L12.6239 42.1464C12.4065 41.9125 12.3829 41.5529 12.5669 41.2908C12.633 41.1973 19.3058 31.8511 31.7949 25.3953C42.2137 20.0102 41.7797 9.98575 41.7737 9.88448C41.7417 9.33184 42.3368 8.98095 42.7807 9.29024L58.2322 20.2967C58.407 20.4207 58.5134 20.6256 58.5142 20.8446C58.5826 34.506 47.5991 40.0858 36.9765 45.4811C30.1175 48.9626 28.1157 57.1587 28.0952 57.2412C27.969 57.7679 27.3443 57.9155 27.0015 57.5465ZM42.4204 9.72434C42.3611 9.72434 42.3003 9.77301 42.3049 9.85151C42.311 9.95592 42.7867 20.3289 32.032 25.8875C19.6584 32.2829 13.0624 41.5215 12.997 41.6142C12.9643 41.6605 12.9689 41.7241 13.0069 41.7649L27.3853 57.165C27.4499 57.2365 27.5586 57.198 27.5791 57.1109C27.5981 57.0284 29.6167 48.6038 36.7425 44.9873C47.2168 39.6674 58.0491 34.1653 57.9829 20.8478C57.9807 20.7489 58.0065 20.8038 42.4204 9.72434Z" fill="black"/>
<path fill-rule="evenodd" clip-rule="evenodd" d="M15.1348 41.8315L26.5256 53.6945C26.5256 53.6945 29.4798 46.0266 36.0887 42.7578C42.6977 39.4891 55.5166 34.3112 55.7606 21.814L43.8362 12.7402C43.8362 12.7402 42.896 22.1249 32.8321 27.1897C21.3789 32.9532 15.1348 41.8315 15.1348 41.8315Z" fill="white"/>
<path d="M29.6675 44.1348L28.8475 43.3631C29.1941 42.9801 29.3939 42.5051 29.4061 42.0224C29.4471 40.2514 27.1527 39.4852 25.7019 40.7216C24.5748 41.6864 22.8412 41.1204 22.8701 39.8573C22.9013 38.4977 24.8704 37.6789 25.8949 38.6421C26.1533 38.8886 26.5135 38.4796 26.2529 38.2355C25.4997 37.5259 24.2206 37.5 23.3041 38.1429L22.4354 37.3241C22.1732 37.0816 21.8167 37.4851 22.0759 37.7308L22.8952 38.5032C22.5494 38.8863 22.3487 39.3612 22.3381 39.844C22.2978 41.6071 24.5869 42.3905 26.0408 41.1439C27.174 40.1776 28.903 40.7475 28.8741 42.0082C28.8429 43.3576 26.8814 44.1937 25.8493 43.2234C25.5924 42.9785 25.2291 43.3843 25.4913 43.63C26.2627 44.3577 27.5464 44.3499 28.4401 43.7227L29.3103 44.5406C29.5627 44.7824 29.932 44.3805 29.6683 44.134L29.6675 44.1348Z" fill="black"/>
<path d="M50.3286 28.675L49.3056 27.7793C49.7396 26.9394 49.5032 25.7878 48.7151 25.0985C47.8609 24.3497 46.638 24.3983 46.0088 25.2767C45.6006 25.8459 44.7494 25.9534 44.0753 25.3631C43.0683 24.4823 43.3434 22.8762 44.5002 22.7365C44.89 22.6839 45.3027 22.8315 45.6348 23.1219C45.9024 23.3574 46.2474 22.9382 45.9791 22.7035C45.2115 22.03 44.1361 21.9915 43.4612 22.6619L42.4618 21.7866C42.1943 21.5503 41.8493 21.9703 42.1176 22.205L43.1405 23.1007C42.7058 23.9407 42.9437 25.0915 43.731 25.7815C44.5974 26.5406 45.815 26.4707 46.4366 25.6025C46.8896 24.9714 47.7613 24.9824 48.3708 25.517C49.3778 26.3993 49.1012 28.0062 47.9468 28.1428C47.5607 28.1922 47.1434 28.0494 46.8113 27.7581C46.5423 27.5242 46.1988 27.9418 46.467 28.1765C47.2422 28.8563 48.3169 28.8823 48.9849 28.2181L49.9843 29.0934C50.248 29.3258 50.5984 28.9113 50.3286 28.675Z" fill="black"/>
<path d="M40.9688 35.7894C41.5513 34.9866 40.3647 33.0518 38.3185 31.4679C36.2722 29.884 34.1413 29.2508 33.5588 30.0536C32.9764 30.8564 34.1629 32.7912 36.2092 34.3751C38.2554 35.9589 40.3864 36.5921 40.9688 35.7894Z" fill="#FFD997"/>
<path d="M35.7428 34.3505C34.4288 33.2657 32.2864 30.8063 33.4834 29.7371C34.4729 28.8532 36.952 29.9812 38.7851 31.4931C40.046 32.5341 42.2591 35.0202 41.0446 36.1074C39.8795 37.1483 37.0303 35.4127 35.7428 34.3505ZM33.8322 30.1524C33.0213 30.8761 35.1333 33.144 36.075 33.9212C38.0973 35.5924 40.1356 36.1953 40.695 35.6921C41.5067 34.9683 39.3939 32.7005 38.4522 31.9225C36.4299 30.2528 34.3954 29.65 33.8322 30.1524Z" fill="black"/>
<path d="M55.9184 21.5935L43.9947 12.5197C43.8275 12.3949 43.5935 12.5024 43.5722 12.7128C43.5623 12.8046 42.5203 22.0095 32.7156 26.9441C21.3346 32.6714 14.9825 41.5812 14.9194 41.6699C14.8427 41.779 14.8541 41.9297 14.946 42.0247L26.3369 53.8876C26.4653 54.0242 26.6987 53.9857 26.7724 53.7965C26.8013 53.7204 29.7675 46.1883 36.2025 43.0059C36.6972 42.761 37.2277 42.5051 37.7848 42.2374C44.5214 38.9883 55.7968 33.5514 56.0255 21.8204C56.0278 21.7317 55.9868 21.6469 55.9176 21.5935H55.9184ZM55.1736 24.8049C52.6413 23.5497 52.6587 22.0959 54.0541 20.8579L55.4913 21.9515C55.4639 22.9508 55.3522 23.899 55.1736 24.8049ZM44.0312 13.2309L46.8303 15.3614C46.6958 15.7963 46.2299 16.9604 45.0549 16.9636C44.4416 16.9651 43.7173 16.0035 43.4278 15.5364C43.7667 14.5183 43.9469 13.7035 44.0312 13.2309ZM17.3066 39.5904C18.7346 41.0458 18.6313 42.513 17.3218 43.7195L15.4849 41.8065C15.7402 41.465 16.3596 40.6659 17.3066 39.5904ZM26.4387 53.2141L24.6512 51.3528C24.7956 50.4344 25.1186 49.8449 25.6248 49.6196C26.4691 49.2451 27.6137 49.881 28.0629 50.1683C27.2261 51.5208 26.685 52.6544 26.4387 53.2149V53.2141ZM35.9729 42.5106C32.442 44.2564 29.9347 47.2638 28.3539 49.7075C26.4661 48.4899 24.731 48.632 24.2066 50.8897L17.698 44.1112C19.1617 42.7508 19.373 40.8959 17.6737 39.1798C20.4484 36.1003 25.6453 31.1132 32.9481 27.4378C39.2219 24.2806 41.9944 19.4175 43.2021 16.1652C43.5828 16.6974 44.2866 17.5138 45.0511 17.5123C46.2975 17.5091 46.9937 16.4776 47.2779 15.7021L53.6148 20.5243C52.0333 22.0111 52.0781 23.9202 55.052 25.3529C52.8601 34.725 43.2819 38.8894 35.9729 42.5114V42.5106Z" fill="black"/>
<path fill-rule="evenodd" clip-rule="evenodd" d="M26.8176 69.2429L25.841 69.5891C22.5897 70.7415 21.0917 75.1116 22.497 79.3428C23.9022 83.5739 27.6832 86.0733 30.9345 84.921L32.2934 84.4209C35.2779 83.0723 36.6041 78.8827 35.2551 74.8212C33.8499 70.59 30.0689 68.0906 26.8176 69.2429Z" fill="#FFD997"/>
<path d="M35.5068 74.7325C34.0559 70.3632 30.1176 67.7829 26.7356 68.9816L25.7552 69.3294C20.3204 71.2542 20.3904 80.7527 25.8806 84.3818C28.0876 85.8411 30.069 85.7257 32.409 84.6699C35.2088 83.4068 37.0321 79.3217 35.506 74.7325H35.5068ZM32.1666 84.1785C28.7374 85.7053 25.0157 82.7921 23.726 78.908C22.3694 74.8236 23.7952 70.6042 26.9043 69.5029C30.0158 68.4062 33.6478 70.828 35.0036 74.9107C36.453 79.2714 34.7103 83.0457 32.1666 84.1785Z" fill="black"/>
<path fill-rule="evenodd" clip-rule="evenodd" d="M30.7198 80.2126C30.0153 80.4748 29.2461 79.9889 28.9748 79.1536C28.9102 78.9542 28.7005 78.8474 28.5082 78.9142C28.3159 78.9809 28.211 79.1976 28.2764 79.3962C28.6473 80.5345 29.6588 81.1852 30.6369 81.018L31.0086 82.1013C31.0732 82.3007 31.2829 82.4082 31.4752 82.3407C31.6675 82.2732 31.7716 82.0574 31.707 81.8587L31.327 80.7503C32.1805 80.2055 32.5894 78.9974 32.22 77.8646C31.8013 76.578 30.5693 75.9115 29.4871 76.3472C28.7742 76.6345 27.9944 76.1439 27.7185 75.2976C27.4259 74.3996 27.7991 73.4105 28.5887 73.1703C29.2735 72.9615 30.0023 73.4443 30.2653 74.252C30.3299 74.4514 30.5397 74.5582 30.7319 74.4914C30.9242 74.4247 31.0291 74.2081 30.9637 74.0095C30.5929 72.8712 29.5813 72.2204 28.6032 72.3876L28.2239 71.3507C28.1593 71.1513 27.9496 71.0437 27.7573 71.1112C27.565 71.1787 27.4609 71.3946 27.5255 71.5932L27.9131 72.6553C27.0596 73.2001 26.6507 74.4082 27.0201 75.541C27.4305 76.8017 28.6283 77.465 29.6945 77.0819C30.4196 76.7491 31.2389 77.2413 31.5208 78.1079C31.8043 78.9794 31.4615 79.9355 30.719 80.2126H30.7198Z" fill="black"/>
<path fill-rule="evenodd" clip-rule="evenodd" d="M21.7399 91.946L20.8241 91.7066C17.7743 90.909 14.5344 93.4312 13.5935 97.3366C12.6526 101.242 14.3657 105.06 17.4155 105.858L18.6992 106.177C21.6373 106.691 24.6591 104.216 25.562 100.467C26.5028 96.5618 24.7898 92.7436 21.7399 91.946Z" fill="#FFD997"/>
<path d="M21.8054 91.6798L20.8888 91.4396C17.9818 90.6758 14.403 92.8432 13.3352 97.269C12.3989 101.158 13.7159 105.172 18.282 106.367C21.1655 107.122 24.7557 104.957 25.8205 100.534C26.7948 96.4848 24.9936 92.5127 21.8054 91.6798ZM25.3037 100.4C24.2883 104.619 20.9017 106.536 18.3694 105.826C15.6752 105.07 13.8087 101.623 14.7685 97.6419C15.7672 93.4924 19.0671 91.5338 21.6754 92.2113C24.5801 92.9711 26.2088 96.6442 25.3037 100.4Z" fill="black"/>
<path fill-rule="evenodd" clip-rule="evenodd" d="M19.3334 102.386C18.6654 102.225 18.3052 101.463 18.4952 100.695C18.6038 100.255 17.9502 100.08 17.8416 100.52C17.5824 101.567 18.0498 102.575 18.8812 102.95L18.6335 103.876C18.5248 104.315 19.1784 104.491 19.2871 104.051L19.5402 103.102C20.4567 103.129 21.3474 102.43 21.6051 101.388C21.8962 100.21 21.2692 99.0761 20.2363 98.8469C19.5516 98.6954 19.1784 97.9285 19.3707 97.149C19.5675 96.353 20.2804 95.8105 20.9788 95.9722C21.6545 96.1285 22.02 96.8938 21.8285 97.6663C21.7198 98.1051 22.3734 98.2809 22.4821 97.8413C22.7413 96.7941 22.2739 95.7862 21.4424 95.411L21.7069 94.4556C21.8156 94.0168 21.162 93.841 21.0533 94.2806L20.7828 95.2587C19.8662 95.232 18.9755 95.9314 18.7178 96.9731C18.4252 98.1561 19.053 99.2889 20.0927 99.5149C20.7782 99.6641 21.1445 100.433 20.9522 101.211C20.7546 102.012 20.0349 102.556 19.3327 102.386L19.3334 102.386Z" fill="black"/>
<path d="M110.785 39.4761H41.8081V136.633H110.785V39.4761Z" fill="white"/>
<path d="M110.785 136.907H41.809C41.6623 136.907 41.543 136.785 41.543 136.632V39.4759C41.543 39.3244 41.6615 39.2012 41.809 39.2012H110.786C110.932 39.2012 111.052 39.3236 111.052 39.4759V136.633C111.052 136.785 110.933 136.908 110.786 136.908L110.785 136.907ZM42.0742 136.358H110.52V39.7507H42.0742V136.358Z" fill="black"/>
<path d="M103.409 46.3579H49.1846V53.2102H103.409V46.3579Z" fill="#81F8F8"/>
<path d="M103.542 67.509H49.3173C49.1706 67.509 49.0513 67.3866 49.0513 67.2343V64.2481C49.0513 64.0966 49.1698 63.9734 49.3173 63.9734H103.542C103.689 63.9734 103.808 64.0958 103.808 64.2481V67.2343C103.808 67.3858 103.69 67.509 103.542 67.509ZM49.5833 66.9603H103.276V64.5237H49.5833V66.9603Z" fill="black"/>
<path d="M103.542 73.4807H49.3173C49.1706 73.4807 49.0513 73.3582 49.0513 73.206V70.2198C49.0513 70.0683 49.1698 69.9451 49.3173 69.9451H103.542C103.689 69.9451 103.808 70.0675 103.808 70.2198V73.206C103.808 73.3575 103.69 73.4807 103.542 73.4807ZM49.5833 72.932H103.276V70.4954H49.5833V72.932Z" fill="black"/>
<path d="M103.409 79.4522H49.1835C49.0368 79.4522 48.9175 79.3298 48.9175 79.1775V76.1913C48.9175 76.0397 49.036 75.9165 49.1835 75.9165H103.409C103.555 75.9165 103.675 76.039 103.675 76.1913V79.1775C103.675 79.329 103.556 79.4522 103.409 79.4522ZM49.4495 78.9035H103.143V76.4668H49.4495V78.9035Z" fill="black"/>
<path d="M103.277 85.4238H49.0516C48.905 85.4238 48.7856 85.3014 48.7856 85.1491V82.1629C48.7856 82.0114 48.9042 81.8882 49.0516 81.8882H103.277C103.423 81.8882 103.543 82.0106 103.543 82.1629V85.1491C103.543 85.3006 103.424 85.4238 103.277 85.4238ZM49.3176 84.8751H103.011V82.4385H49.3176V84.8751Z" fill="black"/>
<path d="M103.276 90.3486H49.0516C48.9047 90.3486 48.7856 90.4719 48.7856 90.6234V93.6087C48.7856 93.7602 48.9047 93.8835 49.0516 93.8835H103.276C103.423 93.8835 103.542 93.7602 103.542 93.6087V90.6234C103.542 90.4719 103.423 90.3486 103.276 90.3486Z" fill="black"/>
<path d="M103.277 99.1086H49.0516C48.905 99.1086 48.7856 98.9862 48.7856 98.8339V95.8477C48.7856 95.6962 48.9042 95.573 49.0516 95.573H103.277C103.423 95.573 103.543 95.6955 103.543 95.8477V98.8339C103.543 98.9854 103.424 99.1086 103.277 99.1086ZM49.3176 98.5599H103.011V96.1233H49.3176V98.5599Z" fill="black"/>
<path d="M103.277 104.333H49.0516C48.905 104.333 48.7856 104.211 48.7856 104.059V101.073C48.7856 100.921 48.9042 100.798 49.0516 100.798H103.277C103.423 100.798 103.543 100.92 103.543 101.073V104.059C103.543 104.21 103.424 104.333 103.277 104.333ZM49.3176 103.785H103.011V101.348H49.3176V103.785Z" fill="black"/>
<path d="M103.277 109.558H49.0516C48.905 109.558 48.7856 109.435 48.7856 109.283V106.297C48.7856 106.146 48.9042 106.023 49.0516 106.023H103.277C103.423 106.023 103.543 106.145 103.543 106.297V109.283C103.543 109.434 103.424 109.558 103.277 109.558ZM49.3176 109.009H103.011V106.572H49.3176V109.009Z" fill="black"/>
<path d="M103.277 114.783H49.0516C48.905 114.783 48.7856 114.661 48.7856 114.509V111.523C48.7856 111.371 48.9042 111.248 49.0516 111.248H103.277C103.423 111.248 103.543 111.37 103.543 111.523V114.509C103.543 114.66 103.424 114.783 103.277 114.783ZM49.3176 114.235H103.011V111.798H49.3176V114.235Z" fill="black"/>
<path d="M103.277 120.008H49.0516C48.905 120.008 48.7856 119.886 48.7856 119.734V116.747C48.7856 116.596 48.9042 116.473 49.0516 116.473H103.277C103.423 116.473 103.543 116.595 103.543 116.747V119.734C103.543 119.885 103.424 120.008 103.277 120.008ZM49.3176 119.46H103.011V117.023H49.3176V119.46Z" fill="black"/>
<path d="M103.277 125.233H49.0516C48.905 125.233 48.7856 125.111 48.7856 124.959V121.972C48.7856 121.821 48.9042 121.698 49.0516 121.698H103.277C103.423 121.698 103.543 121.82 103.543 121.972V124.959C103.543 125.11 103.424 125.233 103.277 125.233ZM49.3176 124.685H103.011V122.248H49.3176V124.685Z" fill="black"/>
<path d="M103.409 53.4853H49.1835C49.0368 53.4853 48.9175 53.3628 48.9175 53.2105V46.3582C48.9175 46.2067 49.036 46.0835 49.1835 46.0835H103.409C103.555 46.0835 103.675 46.206 103.675 46.3582V53.2105C103.675 53.362 103.556 53.4853 103.409 53.4853ZM49.4495 52.9365H103.143V46.633H49.4495V52.9365Z" fill="black"/>
<path d="M103.276 59.0499H49.3176C48.9657 59.0499 48.9657 58.5012 49.3176 58.5012H103.276C103.628 58.5012 103.628 59.0499 103.276 59.0499Z" fill="black"/>
<path fill-rule="evenodd" clip-rule="evenodd" d="M146.483 73.5724C146.873 71.4349 145.509 69.3939 143.436 69.0124C138.132 68.0382 129.292 67.2438 123.989 66.2696C121.916 65.8889 119.919 67.3129 119.528 69.4496C118.334 75.9965 115.139 88.2072 113.944 94.7533C113.554 96.8901 114.918 98.9319 116.992 99.3126L137.227 103.03C139.3 103.411 141.296 101.987 141.687 99.8503L146.483 73.5717L146.483 73.5724Z" fill="#81F8F8"/>
<path fill-rule="evenodd" clip-rule="evenodd" d="M134.973 83.8936C134.846 84.5397 135.253 85.1457 135.883 85.2516L138.523 85.6975C139.163 85.8121 139.783 85.3615 139.911 84.7069L140.439 82.001C140.565 81.3549 140.158 80.7489 139.528 80.6429L136.889 80.1962C136.251 80.0887 135.628 80.5322 135.5 81.1869L134.973 83.8936Z" fill="#FFD997"/>
<path d="M139.571 80.3714L136.932 79.9247C136.148 79.7983 135.395 80.3345 135.239 81.132L134.712 83.8387C134.554 84.6418 135.064 85.3914 135.839 85.5233L138.477 85.9684C139.25 86.1066 140.013 85.5704 140.171 84.7619L140.698 82.056C140.855 81.2529 140.346 80.5032 139.57 80.3714H139.571ZM140.178 81.9469L139.651 84.6528C139.551 85.1685 139.061 85.5202 138.566 85.426L135.925 84.9801C135.442 84.8985 135.138 84.44 135.233 83.9478L135.76 81.2411C135.859 80.7348 136.343 80.3824 136.846 80.4679L139.485 80.9146C139.971 80.9962 140.273 81.4562 140.178 81.9469Z" fill="black"/>
<path fill-rule="evenodd" clip-rule="evenodd" d="M132.256 97.1758C132.13 97.8219 132.537 98.4279 133.167 98.5339L135.806 98.9798C136.447 99.0944 137.067 98.6438 137.195 97.9891L137.722 95.2832C137.848 94.6371 137.442 94.0311 136.812 93.9251L134.172 93.4785C133.535 93.3709 132.911 93.8145 132.784 94.4691L132.256 97.1758Z" fill="#FFD997"/>
<path d="M136.855 93.6543L134.215 93.2077C133.432 93.0813 132.679 93.6174 132.523 94.415L131.995 97.1217C131.838 97.9247 132.347 98.6744 133.123 98.8063L135.76 99.2514C136.533 99.3895 137.297 98.8534 137.454 98.0448L137.982 95.3389C138.139 94.5359 137.631 93.7862 136.855 93.6543ZM137.462 95.2298L136.935 97.9357C136.834 98.4515 136.345 98.8031 135.849 98.7089L133.209 98.2631C132.726 98.1814 132.422 97.723 132.517 97.2308L133.044 94.5241C133.143 94.0178 133.627 93.6653 134.129 93.7509L136.769 94.1975C137.255 94.2792 137.557 94.7392 137.462 95.2298Z" fill="black"/>
<path fill-rule="evenodd" clip-rule="evenodd" d="M118.33 94.8201C118.203 95.4662 118.61 96.0722 119.24 96.1782L121.88 96.624C122.52 96.7387 123.14 96.2881 123.268 95.6334L123.796 92.9275C123.922 92.2814 123.515 91.6754 122.885 91.5694L120.246 91.1228C119.608 91.0152 118.985 91.4587 118.857 92.1134L118.33 94.8201Z" fill="#FFD997"/>
<path d="M122.928 91.2986L120.288 90.8519C119.504 90.7256 118.751 91.2617 118.596 92.0593L118.068 94.766C117.911 95.569 118.42 96.3187 119.196 96.4506L121.833 96.8957C122.606 97.0338 123.37 96.4977 123.527 95.6891L124.055 92.9832C124.212 92.1802 123.703 91.4305 122.927 91.2986H122.928ZM123.535 92.8741L123.007 95.58C122.907 96.0957 122.418 96.4474 121.922 96.3532L119.282 95.9073C118.798 95.8257 118.494 95.3673 118.589 94.8751L119.117 92.1684C119.216 91.6621 119.7 91.3096 120.202 91.3952L122.842 91.8418C123.327 91.9235 123.63 92.3835 123.535 92.8741Z" fill="black"/>
<path d="M147.359 71.519C146.689 70.365 144.73 68.9717 143.482 68.7425C138.179 67.7683 129.305 66.9683 124.035 65.9997C121.821 65.5915 119.683 67.1175 119.268 69.3995C118.075 75.9307 114.872 88.1813 113.683 94.7031C113.135 97.7081 114.327 100.083 117.815 100.649L138.271 104.403C140.469 104.808 142.62 103.296 143.038 101.004L147.835 74.7241C147.994 73.8489 147.953 72.5473 147.359 71.519ZM114.206 94.8044C115.393 88.2999 118.601 76.0202 119.791 69.5008C120.151 67.5257 122.002 66.1857 123.943 66.5405C129.246 67.5147 138.12 68.3146 143.389 69.2833C145.314 69.6366 146.585 71.5284 146.223 73.5215L141.427 99.8001C141.064 101.785 139.208 103.114 137.274 102.76L117.039 99.0426C115.115 98.6893 113.844 96.7975 114.206 94.8044Z" fill="black"/>
<path fill-rule="evenodd" clip-rule="evenodd" d="M142.41 73.2971C142.537 72.648 142.141 72.0372 141.529 71.9344L124.36 69.0307C123.748 68.927 123.149 69.3698 123.022 70.019L122.313 73.6527C122.186 74.3019 122.58 74.9119 123.191 75.0155L140.361 77.9192C140.973 78.0228 141.572 77.5801 141.699 76.9309L142.41 73.2971Z" fill="white"/>
<path d="M140.538 78.2086L123.149 75.2861C122.392 75.1573 121.895 74.4061 122.053 73.5975L122.762 69.9638C122.915 69.1717 123.657 68.6316 124.403 68.7588L141.573 71.6625C142.328 71.7912 142.827 72.5425 142.669 73.351L141.959 76.9848C141.82 77.6984 141.208 78.2086 140.538 78.2086ZM124.181 69.2902C123.758 69.2902 123.372 69.616 123.282 70.0729L122.573 73.7066C122.478 74.1988 122.767 74.6643 123.235 74.7436L140.405 77.6473C140.871 77.7274 141.339 77.3812 141.438 76.8765L142.147 73.2427C142.246 72.727 141.932 72.2811 141.486 72.2057L124.18 69.2902H124.181Z" fill="black"/>
<path fill-rule="evenodd" clip-rule="evenodd" d="M121.045 81.5396C120.919 82.1856 121.326 82.7917 121.956 82.8976L124.595 83.3435C125.236 83.4581 125.856 83.0075 125.984 82.3529L126.511 79.647C126.637 79.0009 126.231 78.3949 125.601 78.2889L122.961 77.8422C122.324 77.7347 121.701 78.1782 121.573 78.8329L121.045 81.5396Z" fill="#FFD997"/>
<path d="M125.644 78.0181L123.005 77.5714C122.221 77.445 121.468 77.9813 121.312 78.7788L120.785 81.4853C120.628 82.2884 121.137 83.0381 121.913 83.17L124.55 83.6151C125.323 83.7532 126.087 83.2171 126.244 82.4085L126.771 79.7026C126.929 78.8996 126.42 78.15 125.644 78.0181ZM126.252 79.5935L125.724 82.2994C125.624 82.8151 125.134 83.1668 124.639 83.0726L121.999 82.6267C121.515 82.5451 121.211 82.0867 121.306 81.5945L121.834 78.8878C121.932 78.3816 122.417 78.0291 122.919 78.1146L125.558 78.5613C126.044 78.6429 126.347 79.1029 126.252 79.5935Z" fill="black"/>
<path fill-rule="evenodd" clip-rule="evenodd" d="M128.01 82.7161C127.884 83.3622 128.29 83.9682 128.92 84.0742L131.56 84.52C132.2 84.6347 132.821 84.1841 132.948 83.5294L133.476 80.8235C133.602 80.1774 133.195 79.5714 132.565 79.4654L129.926 79.0188C129.288 78.9112 128.665 79.3547 128.537 80.0094L128.01 82.7161Z" fill="#FFD997"/>
<path d="M132.608 79.1947L129.968 78.7479C129.185 78.6216 128.432 79.1578 128.276 79.9553L127.748 82.662C127.591 83.4651 128.1 84.2148 128.876 84.3466L131.513 84.7917C132.286 84.9299 133.05 84.3937 133.207 83.5852L133.735 80.8793C133.892 80.0762 133.383 79.3266 132.607 79.1947H132.608ZM133.215 80.7702L132.688 83.4761C132.587 83.9918 132.098 84.3435 131.602 84.2493L128.962 83.8034C128.479 83.7218 128.175 83.2633 128.27 82.7711L128.797 80.0645C128.896 79.5581 129.38 79.2057 129.882 79.2912L132.522 79.7379C133.007 79.8195 133.31 80.2796 133.215 80.7702Z" fill="black"/>
<path fill-rule="evenodd" clip-rule="evenodd" d="M126.651 89.3572C126.525 90.0033 126.932 90.6093 127.562 90.7153L130.201 91.1612C130.842 91.2758 131.462 90.8252 131.59 90.1705L132.117 87.4646C132.243 86.8185 131.837 86.2125 131.207 86.1065L128.567 85.6599C127.93 85.5523 127.306 85.9959 127.179 86.6505L126.651 89.3572Z" fill="#FFD997"/>
<path d="M131.25 85.8357L128.61 85.3891C127.827 85.2627 127.074 85.7988 126.918 86.5964L126.39 89.3031C126.233 90.1061 126.742 90.8558 127.518 90.9877L130.155 91.4328C130.928 91.5709 131.692 91.0348 131.849 90.2262L132.377 87.5203C132.534 86.7173 132.026 85.9676 131.25 85.8357ZM131.857 87.4112L131.33 90.1171C131.229 90.6328 130.74 90.9845 130.244 90.8903L127.604 90.4444C127.121 90.3628 126.817 89.9044 126.912 89.4122L127.439 86.7055C127.538 86.1992 128.022 85.8467 128.524 85.9323L131.164 86.3789C131.65 86.4606 131.952 86.9206 131.857 87.4112Z" fill="black"/>
<path fill-rule="evenodd" clip-rule="evenodd" d="M133.614 90.5347C133.488 91.1808 133.894 91.7868 134.524 91.8928L137.164 92.3386C137.804 92.4533 138.425 92.0027 138.552 91.348L139.08 88.6421C139.206 87.996 138.799 87.39 138.169 87.284L135.53 86.8374C134.892 86.7298 134.269 87.1733 134.141 87.828L133.614 90.5347Z" fill="#FFD997"/>
<path d="M138.213 87.0132L135.573 86.5665C134.79 86.4402 134.036 86.9763 133.881 87.7739L133.353 90.4806C133.196 91.2836 133.705 92.0333 134.481 92.1652L137.118 92.6103C137.891 92.7484 138.655 92.2123 138.812 91.4037L139.34 88.6978C139.497 87.8948 138.988 87.1451 138.212 87.0132H138.213ZM138.82 88.5887L138.292 91.2946C138.192 91.8103 137.703 92.162 137.207 92.0678L134.567 91.6219C134.084 91.5403 133.78 91.0819 133.875 90.5897L134.402 87.883C134.501 87.3767 134.985 87.0242 135.487 87.1098L138.127 87.5564C138.612 87.6381 138.915 88.0981 138.82 88.5887Z" fill="black"/>
<path fill-rule="evenodd" clip-rule="evenodd" d="M119.687 88.1797C119.561 88.8258 119.968 89.4318 120.598 89.5378L123.237 89.9837C123.878 90.0983 124.498 89.6477 124.626 88.993L125.153 86.2871C125.28 85.641 124.873 85.035 124.243 84.929L121.603 84.4824C120.966 84.3748 120.343 84.8184 120.215 85.4731L119.687 88.1797Z" fill="#FFD997"/>
<path d="M124.286 84.6582L121.647 84.2116C120.863 84.0852 120.11 84.6213 119.954 85.4189L119.427 88.1256C119.27 88.9286 119.779 89.6783 120.555 89.8102L123.192 90.2553C123.965 90.3934 124.729 89.8573 124.886 89.0487L125.414 86.3428C125.571 85.5398 125.062 84.7901 124.286 84.6582ZM124.894 86.2337L124.366 88.9396C124.266 89.4554 123.776 89.807 123.281 89.7128L120.641 89.267C120.157 89.1853 119.853 88.7269 119.948 88.2347L120.476 85.528C120.575 85.0217 121.059 84.6692 121.561 84.7548L124.201 85.2014C124.686 85.2831 124.989 85.7431 124.894 86.2337Z" fill="black"/>
<path fill-rule="evenodd" clip-rule="evenodd" d="M125.292 95.9983C125.166 96.6444 125.573 97.2504 126.203 97.3564L128.842 97.8023C129.483 97.9169 130.103 97.4663 130.231 96.8116L130.758 94.1057C130.885 93.4596 130.478 92.8536 129.848 92.7476L127.208 92.301C126.571 92.1934 125.948 92.637 125.82 93.2917L125.292 95.9983Z" fill="#FFD997"/>
<path d="M129.891 92.4761L127.252 92.0294C126.468 91.903 125.715 92.4392 125.559 93.2368L125.032 95.9434C124.875 96.7465 125.384 97.4962 126.16 97.628L128.797 98.0731C129.57 98.2113 130.334 97.6751 130.491 96.8666L131.018 94.1607C131.176 93.3576 130.667 92.608 129.891 92.4761ZM130.499 94.0516L129.971 96.7575C129.871 97.2732 129.381 97.6249 128.886 97.5307L126.246 97.0848C125.762 97.0032 125.458 96.5448 125.553 96.0526L126.081 93.3459C126.18 92.8395 126.664 92.4871 127.166 92.5726L129.806 93.0193C130.291 93.101 130.594 93.561 130.499 94.0516Z" fill="black"/>
<path fill-rule="evenodd" clip-rule="evenodd" d="M94.4276 103.826C94.4276 103.826 92.9122 101.268 92.1712 99.9906C91.8041 99.3579 91.9888 99.1836 92.5945 99.3963C93.1668 99.5973 94.4276 100.14 94.4276 100.14C94.1943 101.007 94.3965 101.815 95.2348 102.537C94.7666 102.868 94.4489 103.273 94.4276 103.826Z" fill="white"/>
<path d="M94.2062 103.978C93.6248 103.079 91.7271 100.098 91.6967 99.5345C91.6465 98.5838 93.6894 99.4968 94.5353 99.8885C94.8568 100.037 94.6402 100.538 94.3187 100.39C93.5671 100.043 92.6589 99.7056 92.2766 99.6561C92.519 100.248 93.6104 102.065 94.6478 103.673C94.8454 103.978 94.3977 104.274 94.2062 103.978Z" fill="black"/>
<path fill-rule="evenodd" clip-rule="evenodd" d="M120.988 151.07C120.988 151.07 119.606 147.202 119.245 146.069C118.883 144.937 116.584 141.443 115.684 140.717C114.784 139.99 113.238 139.238 111.79 138.468C110.341 137.699 107.565 135.309 106.36 133.94C105.154 132.57 103.596 130.804 102.622 130.104C101.648 129.405 100.698 128.987 99.9627 128.193C99.227 127.4 97.6713 124.035 97.137 123.355C96.6027 122.676 94.6898 121.636 94.0468 120.555C93.4039 119.474 91.4849 117.271 91.3488 116.025C91.2128 114.779 92.0815 112.942 92.3969 112.23C92.7123 111.518 92.9691 110.532 93.0717 109.956C93.1743 109.38 93.0071 107.02 93.0619 106.474C93.1166 105.928 92.9365 104.489 94.4283 104.03C94.4283 104.03 94.4633 103.034 94.9543 102.697L95.2347 102.536C95.2347 102.536 94.0263 101.662 94.42 99.9342C94.42 99.9342 94.8942 98.8462 95.2925 98.6507C95.6907 98.4552 97.6751 97.996 97.9783 98.0368C97.9783 98.0368 98.4465 97.5949 98.8865 97.4183C99.3265 97.2416 100.505 96.2431 101.056 95.9707C101.607 95.6983 102.817 95.5099 103.786 94.6197C104.755 93.7295 105.884 93.202 106.397 92.8213C106.91 92.4406 108.732 91.0205 109.687 90.7913C110.642 90.5621 112.28 90.1853 113.208 91.0158C114.136 91.8463 114.302 92.3063 115.121 92.7287C115.939 93.151 117.03 94.5145 117.363 94.9863C117.696 95.4581 120.922 99.3878 121.772 101.239C122.621 103.09 124.063 103.529 124.546 103.848C125.028 104.167 126.707 105.594 126.972 106.375C127.238 107.156 127.39 109.677 127.431 110.535C127.477 111.499 127.846 113.875 129.046 122.183C129.245 123.562 130.778 130.645 130.399 131.549C131.111 133.365 136.063 144.586 136.536 146.376C136.907 147.782 120.988 151.068 120.988 151.068V151.07ZM98.7824 107.037C98.7824 107.037 99.8236 108.872 99.8479 109.82C99.8722 110.767 99.5925 112.36 99.9231 112.736C100.254 113.112 101.938 114.707 102.272 115.411C102.607 116.115 103.503 117.544 104.182 117.984C106.237 119.313 105.53 117.887 107.577 117.269C108.501 116.989 108.852 114.767 112.044 114.331C112.044 114.331 111.693 113.449 111.642 112.821C111.51 111.179 106.838 107.515 106.415 105.209C106.415 105.209 102.421 106.634 101.268 106.863C100.243 107.065 98.7816 107.038 98.7816 107.038L98.7824 107.037Z" fill="#FFD997"/>
<path d="M92.7297 117.363C93.2329 116.283 93.5285 116.163 94.0635 115.669C94.9831 114.819 95.8594 114.057 96.4765 114.057C96.8284 114.057 96.8292 114.606 96.4765 114.606C95.8632 114.606 94.2733 116.261 93.9237 116.513C93.6896 116.682 93.3621 117.269 93.2108 117.599C93.0596 117.925 92.5785 117.692 92.7297 117.363Z" fill="black"/>
<path d="M93.9717 118.291C93.9869 118.262 94.351 117.582 94.8389 117.251C95.2493 116.97 96.2799 115.929 96.2905 115.919C96.5451 115.665 96.9137 116.059 96.6629 116.312C95.0487 117.951 94.9065 117.677 94.4376 118.555C94.2697 118.871 93.803 118.608 93.9717 118.291Z" fill="black"/>
<path d="M136.792 146.306C136.315 144.495 131.432 133.441 130.681 131.537C130.974 130.219 129.519 123.591 129.309 122.144C128.061 113.563 127.739 111.417 127.697 110.522C127.681 110.184 127.53 107.192 127.223 106.285C126.922 105.402 125.177 103.941 124.689 103.619C124.178 103.281 122.818 102.879 122.013 101.123C121.139 99.2205 117.91 95.2979 117.579 94.8269C117.253 94.3645 116.124 92.9413 115.241 92.4852C114.774 92.2435 114.546 91.9993 114.203 91.6288C113.063 90.3948 112.481 89.8398 109.628 90.5259C108.675 90.7543 107.049 91.997 106.243 92.6006C105.735 92.9806 104.612 93.4979 103.61 94.4163C102.665 95.2846 101.55 95.4219 100.941 95.7249C100.437 95.9738 99.1442 97.0233 98.7908 97.1646C98.4169 97.313 98.0369 97.6246 97.8773 97.7652C97.2936 97.8013 95.5563 98.2197 95.1778 98.4049C94.7157 98.6326 94.2628 99.6272 94.1602 99.8737C93.8577 101.202 94.411 102.073 94.7834 102.485C94.3433 102.807 94.2141 103.488 94.1761 103.828C92.8735 104.329 92.8302 105.584 92.8089 106.2C92.7519 107.651 92.8993 109.396 92.8089 109.908C92.701 110.514 92.4426 111.469 92.1545 112.117C91.6689 113.207 90.9499 114.837 91.0837 116.058C91.2319 117.409 93.1608 119.595 93.8204 120.701C94.5029 121.848 96.4189 122.88 96.9311 123.53C97.4548 124.198 98.9938 127.547 99.7705 128.386C100.536 129.211 101.509 129.64 102.47 130.332C103.433 131.024 105.011 132.817 106.163 134.127C107.402 135.535 110.184 137.932 111.668 138.716C113.121 139.483 114.659 140.239 115.52 140.935C116.36 141.614 118.631 145.031 118.992 146.158C119.351 147.283 120.724 151.129 120.739 151.168C120.86 151.509 121.36 151.319 121.237 150.978C121.224 150.939 119.853 147.102 119.497 145.987C119.109 144.772 116.756 141.235 115.848 140.504C114.954 139.781 113.443 139.036 111.911 138.228C110.498 137.482 107.741 135.104 106.555 133.759C105.386 132.43 103.784 130.609 102.772 129.883C102.433 129.638 102.095 129.428 101.77 129.225C100.087 128.174 100.032 128.099 98.4648 125.151C97.3468 123.047 97.4441 123.139 96.14 122.157C94.2787 120.752 94.6504 120.885 93.4245 119.186C92.6554 118.123 91.6985 116.801 91.6104 116C91.4918 114.91 92.2214 113.281 92.571 112.497C92.799 111.986 93.0065 111.43 93.2079 110.592C94.0583 109.794 95.4947 108.555 95.918 108.454C96.5891 108.297 96.5481 107.381 96.3892 106.69C97.1941 106.979 97.7892 107.296 98.6259 107.316C98.9428 107.899 99.5638 109.172 99.5805 109.834C99.6025 110.715 99.3373 112.25 99.6436 112.809C99.1587 112.761 98.6335 112.772 98.3303 112.786C98.1836 112.792 98.0689 112.921 98.0757 113.072C98.0818 113.223 98.2178 113.343 98.3523 113.335C99.2476 113.294 100.154 113.383 100.295 113.518C100.585 113.796 101.8 115.052 102.031 115.537C102.362 116.235 103.29 117.738 104.039 118.221C104.532 118.54 105.033 118.816 105.455 118.816C105.791 118.816 105.933 118.665 106.165 118.458C107.652 117.112 107.531 118.056 108.637 116.664C109.232 115.914 110.048 114.885 112.076 114.608C112.25 114.585 112.355 114.394 112.288 114.232C112.284 114.223 111.953 113.382 111.905 112.803C111.888 112.588 111.82 112.368 111.711 112.139C112.324 112.102 113.307 111.964 113.593 111.474C113.774 111.161 113.317 110.879 113.137 111.19C112.998 111.427 112.155 111.588 111.398 111.603C110.338 110.024 107.754 107.583 106.873 105.791C106.674 105.388 106.246 104.055 106.459 103.386C106.568 103.039 106.063 102.87 105.953 103.214C105.746 103.865 105.936 104.64 106.067 105.047C101.631 106.611 101.038 106.769 98.9588 106.769C97.6113 106.764 97.1804 106.296 95.7706 105.922C95.0349 105.726 94.7993 104.998 94.7241 104.508C95.2264 104.39 96.9592 103.964 97.3658 103.652C97.7952 103.322 97.8933 102.382 97.9153 102.019C98.363 101.77 98.9117 101.22 99.5835 100.839C105.067 97.7345 104.434 98.1576 105.635 97.2478C106.345 96.7101 107.228 96.0413 107.652 95.9659C108.175 95.8694 109.099 96.4479 109.714 96.9684C108.902 97.8272 108.774 97.9002 107.685 99.4144C107.473 99.7088 107.909 100.028 108.112 99.741C109.211 98.2275 109.172 98.3288 110.117 97.3279C110.225 97.4213 110.754 97.8656 110.896 97.9865C110.8 98.2715 110.398 98.8767 110.018 99.3485C109.792 99.628 110.204 99.9788 110.426 99.6994C110.605 99.478 111.082 98.8649 111.316 98.3539C111.715 98.7119 112.111 99.0981 112.394 99.4655C113.121 100.404 114.881 101.65 115.922 102.575C118.336 104.718 118.254 103.836 120.762 106.138C121.022 106.379 121.38 105.971 121.116 105.727C121.061 105.677 119.763 104.488 119.033 104.089C117.292 103.139 116.608 102.404 115.056 101.152C111.599 98.3625 113.9 99.7991 110.826 97.218C110.1 96.6088 108.669 95.221 107.561 95.4251C107.014 95.5224 106.153 96.174 105.321 96.8051C104.146 97.6937 104.897 97.2125 99.3282 100.358C98.515 100.817 97.8978 101.498 97.4266 101.639C96.9547 101.78 95.703 102.128 95.2933 102.241C95.0699 102.035 94.5151 101.415 94.6032 100.407C94.9992 100.375 96.0229 100.261 96.8718 99.9066C97.6296 99.5903 98.1844 98.8767 98.236 98.1718C98.3804 98.047 98.6928 97.795 98.9793 97.6804C99.2362 97.5775 99.6428 97.28 100.114 96.9354C101.16 96.1716 101.153 96.2077 101.736 96.0099C104.051 95.2288 103.311 95.0208 105.852 93.494C106.946 92.8369 108.716 91.3109 109.744 91.0644C110.495 90.8838 111.816 90.5683 112.694 91.0032C112.133 91.4278 111.526 92.2128 111.443 92.3227C111.226 92.6085 111.644 92.9468 111.862 92.6619C112.184 92.2388 112.779 91.5621 113.156 91.3431C113.379 91.5495 113.554 91.7316 113.708 91.8965C113.293 92.245 112.948 92.9735 112.793 93.3393C112.651 93.6714 113.138 93.8927 113.28 93.5599C113.525 92.9853 113.877 92.4319 114.076 92.2874C114.329 92.5457 114.589 92.7678 115.001 92.9806C115.942 93.4665 117.08 95.0789 117.653 95.8105C118.613 97.0367 120.862 99.9082 121.529 101.361C122.418 103.298 123.955 103.79 124.4 104.085C124.899 104.415 126.491 105.801 126.719 106.47C126.949 107.147 127.106 109.356 127.163 110.554C127.22 111.747 128.723 122.006 129.135 124.178C129.547 126.343 130.404 130.847 130.153 131.446C130.125 131.513 130.124 131.59 130.151 131.658C130.838 133.409 135.824 144.734 136.277 146.454C136.368 146.801 136.884 146.663 136.791 146.31L136.792 146.306ZM106.231 105.566C106.649 106.884 108.198 108.622 109.249 109.802C111.911 112.785 111.104 112.418 111.679 114.113C108.727 114.659 108.227 116.786 107.502 117.006C106.54 117.297 106.016 117.889 105.624 118.21C105.362 118.425 104.58 117.918 104.322 117.752C103.703 117.352 102.827 115.959 102.51 115.291C102.149 114.53 100.45 112.928 100.119 112.552C99.9035 112.306 100.135 110.612 100.113 109.814C100.095 109.086 99.5501 107.929 99.2332 107.312C101.335 107.282 102.008 107.059 106.231 105.566ZM95.6414 106.449C95.8968 106.516 95.7767 106.469 95.823 106.62C95.915 106.928 96.0852 107.847 95.8002 107.914C95.2865 108.036 94.1009 109.046 93.3614 109.712C93.4032 108.883 93.2915 107.662 93.3409 106.219C93.3606 105.657 93.3895 104.839 94.1792 104.427C94.2597 105.162 94.6238 106.178 95.6414 106.449ZM95.082 102.938C95.494 102.703 95.0121 102.905 97.3643 102.223C97.3164 102.627 97.2093 103.084 97.0504 103.205C96.8171 103.385 95.5882 103.732 94.699 103.945C94.7248 103.666 94.8259 103.115 95.0813 102.939L95.082 102.938ZM94.7613 99.8352C94.9506 99.4505 95.2295 98.9874 95.4066 98.9003C95.7288 98.7417 97.071 98.4285 97.6721 98.3358C97.3598 99.4403 95.8785 99.7159 94.7613 99.8352Z" fill="black"/>
<path d="M123.645 112.753L123.141 112.573L123.786 110.637C123.885 110.338 123.515 109.261 123.297 108.905C123.145 108.656 122.643 108.153 122.462 107.981C122.204 107.736 122.563 107.327 122.823 107.577C122.895 107.645 123.531 108.255 123.748 108.612C123.94 108.927 124.484 110.23 124.289 110.814L123.645 112.753Z" fill="black"/>
<path fill-rule="evenodd" clip-rule="evenodd" d="M122.056 126.925L120.43 125.151C119.594 125.231 119.084 125.794 118.71 126.557L120.53 128.398C120.943 128.816 122.129 127.681 122.056 126.925Z" fill="white"/>
<path fill-rule="evenodd" clip-rule="evenodd" d="M118.769 121.626C118.098 121.11 102.46 106.539 102.46 106.539C101.489 106.836 100.7 107.074 98.7822 107.038C98.7822 107.038 99.3332 108.01 99.6425 108.904C99.6425 108.904 114.257 123.959 115.273 124.947C116.507 126.148 117.288 126.688 118.711 126.558C118.711 126.558 119.164 125.293 120.431 125.151C120.49 124.27 120.599 123.032 118.769 121.626Z" fill="#81F8F8"/>
<path d="M122.321 126.897C122.309 126.769 122.383 126.882 120.705 125.05C120.763 124.153 120.791 122.836 118.929 121.405C118.274 120.901 103.266 106.917 102.639 106.334C102.431 106.14 102.222 106.396 101.218 106.592C100.224 106.789 98.7059 106.764 98.7819 106.763C98.582 106.763 98.4482 106.984 98.5523 107.176C98.5577 107.187 99.095 108.138 99.3921 108.996C99.437 109.133 114.572 124.643 115.09 125.147C116.235 126.261 117.096 126.942 118.61 126.842L120.343 128.595C120.99 129.25 122.412 127.851 122.321 126.898L122.321 126.897ZM99.8732 108.752C99.6832 108.217 99.4187 107.672 99.2333 107.312C100.805 107.289 101.402 107.144 102.393 106.844L109.249 113.223C107.933 113.314 106.899 114.162 106.662 115.739L99.8732 108.752ZM107.152 116.242C107.174 114.513 108.402 113.562 109.866 113.796C113.965 117.601 118.258 121.574 118.611 121.845C119.174 122.278 119.541 122.687 119.778 123.074C118.156 123.092 117.02 124.202 116.741 125.829C115.937 125.315 115.526 124.853 107.151 116.242L107.152 116.242ZM117.241 126.093C117.423 124.471 118.602 123.503 120.044 123.633C120.2 124.093 120.202 124.518 120.179 124.91C119.456 125.056 118.86 125.613 118.533 126.295C118.039 126.319 117.63 126.254 117.24 126.093H117.241ZM120.717 128.202L119.04 126.506C119.344 125.945 119.721 125.559 120.333 125.443L121.792 127.036C121.745 127.646 120.861 128.333 120.717 128.202Z" fill="black"/>
<path d="M117.225 124.563C117.032 124.351 110.427 117.671 110.35 117.629C110.177 117.534 109.767 117.45 109.438 117.797C109.14 118.108 108.724 118.798 108.682 118.88C108.622 119.053 108.607 119.44 108.93 119.798C109.172 120.065 114.81 125.874 115.805 126.312C116.263 126.466 116.646 126.347 116.909 126.039C116.991 125.943 117.692 125.074 117.225 124.563Z" fill="black"/>
<path d="M112.144 58.6927C111.794 58.6959 111.786 58.1495 112.136 58.144C112.899 58.1283 113.658 58.0828 114.392 58.0066C114.742 57.9721 114.795 58.5169 114.445 58.5538C113.696 58.6307 112.921 58.6849 112.144 58.6927ZM109.104 58.5844C108.987 58.5844 107.832 58.4666 106.795 58.2484C106.446 58.1762 106.561 57.6322 106.901 57.7099C107.579 57.8528 108.328 57.9619 109.128 58.0357C109.464 58.0671 109.44 58.5836 109.105 58.5836L109.104 58.5844ZM117.421 58.0686C117.104 58.0686 117.056 57.5953 117.364 57.5262C118.12 57.3551 118.851 57.1494 119.537 56.9123C119.861 56.793 120.045 57.3158 119.705 57.4336C119.177 57.6157 117.632 58.0686 117.421 58.0686ZM122.286 55.6972C122.959 55.3211 123.589 54.8972 124.158 54.4388C124.435 54.2151 124.762 54.6484 124.485 54.8729C123.893 55.3494 123.238 55.789 122.54 56.1799C122.231 56.3534 121.977 55.8691 122.286 55.6972ZM126.238 52.2659C126.681 51.656 127.063 50.9942 127.371 50.2987C127.52 49.969 128.001 50.1982 127.855 50.5287C127.53 51.2588 127.129 51.9535 126.664 52.5956C126.458 52.879 126.025 52.5603 126.238 52.2659ZM128.24 47.3793C128.338 46.7968 128.402 46.1822 128.43 45.5534C128.447 45.1797 128.977 45.2221 128.961 45.5777C128.932 46.2301 128.865 46.8683 128.763 47.4727C128.704 47.8307 128.179 47.7373 128.24 47.3793Z" fill="black"/>
<path d="M129.292 45.5755C139.887 45.5755 148.475 36.7047 148.475 25.7622C148.475 14.8195 139.887 5.94873 129.292 5.94873C118.698 5.94873 110.11 14.8195 110.11 25.7622C110.11 36.7047 118.698 45.5755 129.292 45.5755Z" fill="white"/>
<path d="M129.293 45.8494C118.569 45.8494 109.845 36.8383 109.845 25.762C109.845 14.6856 118.569 5.67383 129.293 5.67383C140.016 5.67383 148.741 14.6849 148.741 25.762C148.741 36.8391 140.017 45.8494 129.293 45.8494ZM129.293 6.22333C118.863 6.22333 110.376 14.9887 110.376 25.7628C110.376 36.5369 118.863 45.3014 129.293 45.3014C139.723 45.3014 148.21 36.5361 148.21 25.7628C148.21 14.9894 139.724 6.22333 129.293 6.22333Z" fill="black"/>
<path d="M141.148 36.0086H120.109C119.963 36.0086 119.844 35.8869 119.843 35.7354L119.727 14.3881C119.723 14.0254 120.256 14.0223 120.258 14.3849L120.373 35.4598H141.147C141.499 35.4598 141.5 36.0086 141.148 36.0086Z" fill="black"/>
<path d="M127.062 20.3228H122.7V35.7347H127.062V20.3228Z" fill="#FFD997"/>
<path d="M127.061 36.0085H122.7C122.553 36.0085 122.434 35.886 122.434 35.7337V20.3226C122.434 20.1711 122.552 20.0479 122.7 20.0479H127.061C127.208 20.0479 127.327 20.1703 127.327 20.3226V35.7337C127.327 35.8852 127.209 36.0085 127.061 36.0085ZM122.965 35.4598H126.795V20.5974H122.965V35.4598Z" fill="black"/>
<path d="M131.424 25.0601H127.062V35.7337H131.424V25.0601Z" fill="#81F8F8"/>
<path d="M131.424 36.0086H127.062C126.915 36.0086 126.796 35.8861 126.796 35.7338V25.0594C126.796 24.9079 126.914 24.7847 127.062 24.7847H131.424C131.57 24.7847 131.69 24.9071 131.69 25.0594V35.7338C131.69 35.8854 131.571 36.0086 131.424 36.0086ZM127.327 35.4599H131.158V25.335H127.327V35.4599Z" fill="black"/>
<path d="M135.785 20.9319H131.424C131.277 20.9319 131.158 21.0549 131.158 21.2066V35.7338C131.158 35.8856 131.277 36.0086 131.424 36.0086H135.785C135.931 36.0086 136.051 35.8856 136.051 35.7338V21.2066C136.051 21.0549 135.931 20.9319 135.785 20.9319Z" fill="black"/>
<path d="M25.9533 123.195C26.0339 122.399 26.1532 121.609 26.3052 120.846C26.3759 120.49 26.8973 120.601 26.8266 120.956C26.6784 121.702 26.5621 122.475 26.4823 123.254C26.4466 123.613 25.9161 123.56 25.9541 123.196L25.9533 123.195ZM27.3844 118.156C27.1997 118.156 27.0721 117.966 27.1344 117.788C27.3958 117.038 27.7006 116.3 28.0403 115.596C28.1976 115.271 28.6734 115.516 28.5168 115.841C27.56 117.821 27.7348 118.156 27.3844 118.156ZM29.8461 113.311C29.6302 113.311 29.5033 113.057 29.6302 112.876C30.0779 112.234 30.5703 111.613 31.0932 111.029C31.3288 110.762 31.724 111.133 31.4839 111.401C30.0627 112.987 30.1394 113.311 29.8461 113.311ZM33.358 108.875C33.9569 108.389 34.5938 107.93 35.2512 107.512C35.5468 107.32 35.8318 107.787 35.5301 107.98C34.8902 108.388 34.27 108.834 33.6856 109.308C33.4127 109.529 33.0791 109.101 33.358 108.875ZM38.0867 106.571C37.7987 106.571 37.7166 106.162 37.9811 106.045C38.6849 105.731 39.4129 105.453 40.1463 105.217C40.4823 105.11 40.6396 105.635 40.3037 105.742C38.6666 106.268 38.2593 106.571 38.0867 106.571ZM43.1841 105.044C42.8565 105.044 42.8215 104.549 43.143 104.498C43.9258 104.373 44.7018 104.3 45.4481 104.281C45.8076 104.285 45.8053 104.822 45.4618 104.83C44.0109 104.867 43.3414 105.044 43.1841 105.044Z" fill="black"/>
<path fill-rule="evenodd" clip-rule="evenodd" d="M53.5917 134.797C52.8043 128.033 46.8573 123.209 40.3084 124.022L14.5938 127.214C8.04487 128.028 3.37392 134.17 4.16128 140.935C4.94864 147.699 10.8956 152.524 17.4445 151.71L43.1591 148.518C49.7081 147.704 54.379 141.562 53.5917 134.797Z" fill="white"/>
<path d="M15.9936 152.075C9.93104 152.075 4.64598 147.395 3.89662 140.968C3.0933 134.064 7.87828 127.771 14.5617 126.941L40.2763 123.75C46.9582 122.927 53.0527 127.862 53.8552 134.765C54.6601 141.686 49.8903 147.959 43.1909 148.791C16.0528 152.163 17.0674 152.075 15.9936 152.075V152.075ZM41.756 124.206C40.6768 124.206 41.7287 124.122 14.6256 127.487C8.2332 128.281 3.65646 134.298 4.42482 140.901C5.19926 147.549 11.0422 152.238 17.4117 151.437L43.1271 148.245C49.5202 147.451 54.0954 141.434 53.327 134.831C52.6111 128.677 47.551 124.206 41.756 124.206Z" fill="black"/>
<path d="M12.5425 144.274C12.3708 143.838 12.6049 143.348 13.0525 143.227C13.149 143.201 13.2463 143.174 13.3413 143.15C13.697 143.057 14.0671 143.242 14.2138 143.59C14.8704 145.142 15.9101 145.641 17.0623 145.503C19.7853 145.177 20.4367 141.677 18.6134 140.194C18.1985 139.857 17.0759 139.797 16.3023 139.862C15.9101 139.895 15.5651 139.611 15.4982 139.212C15.4921 139.175 15.486 139.139 15.4799 139.102C15.4191 138.713 15.6517 138.339 16.0195 138.232C16.5424 138.08 17.2386 137.828 17.5684 137.545C18.5959 136.663 18.4508 134.878 17.4202 134.06C16.4801 133.315 14.9054 133.463 14.0853 134.469C13.7958 134.825 13.605 135.285 13.5085 135.85C13.4424 136.238 13.1034 136.51 12.7234 136.488C12.4232 136.47 12.158 136.475 11.9323 136.165C11.8 135.983 11.7514 135.751 11.7993 135.528C12.8192 130.768 19.5475 131.203 20.0225 135.435C20.1182 136.288 19.8986 137.095 19.3628 137.781C19.077 138.146 19.1811 138.715 19.6189 138.942C22.6262 140.503 22.0821 146.397 17.2188 146.979C14.9289 147.253 13.2357 146.032 12.5425 144.274Z" fill="#81F8F8"/>
<path d="M16.5628 147.294C14.5481 147.294 12.9635 146.088 12.2969 144.378C12.0606 143.783 12.3912 143.116 12.9878 142.961L13.2758 142.883C13.7637 142.758 14.257 143.007 14.4576 143.479C14.9554 144.666 15.7534 145.379 17.0325 145.228C19.5253 144.931 20.0854 141.737 18.4491 140.409C18.1353 140.153 17.1199 140.066 16.3242 140.135C15.0861 140.236 14.7685 138.308 15.948 137.966C16.635 137.764 17.1647 137.532 17.3988 137.331C17.8731 136.924 18.0631 136.37 17.981 135.637C17.756 133.633 15.3354 133.36 14.2897 134.645C14.032 134.96 13.8587 135.381 13.7713 135.896C13.6801 136.422 13.2211 136.776 12.7081 136.761L12.4733 136.747C11.8455 136.706 11.4017 136.097 11.5407 135.465C12.2042 132.303 15.3643 131.233 17.756 132.151C20.2967 133.126 21.0172 136.15 19.5679 137.954C19.3847 138.194 19.466 138.558 19.7366 138.693C23.2561 140.567 22.0971 147.291 16.5636 147.291L16.5628 147.294ZM13.5266 143.401C13.4415 143.401 13.3921 143.421 13.1208 143.493C12.832 143.569 12.6769 143.885 12.7894 144.17C14.5678 148.682 21.7339 146.846 21.1806 141.898C21.0461 140.701 20.53 139.737 19.4979 139.186C18.9325 138.902 18.7539 138.135 19.1544 137.611C20.3795 136.078 19.7586 133.507 17.5706 132.668C15.4821 131.866 12.6625 132.726 12.0598 135.586C12.0279 135.732 12.0598 135.882 12.1449 135.999C12.2977 136.21 12.4816 136.196 12.7362 136.213C12.9802 136.228 13.2036 136.052 13.2469 135.801C13.3495 135.192 13.5631 134.684 13.8823 134.293C14.7958 133.169 16.5377 133.011 17.582 133.843C18.7341 134.755 18.912 136.748 17.7385 137.756C17.3418 138.096 16.537 138.365 16.0924 138.496C15.8545 138.565 15.704 138.806 15.7428 139.058L15.7595 139.16C15.7998 139.425 16.0278 139.595 16.2801 139.588C16.9595 139.532 18.2523 139.549 18.7782 139.978C20.774 141.599 20.0626 145.42 17.0925 145.775C15.8081 145.926 14.659 145.344 13.9697 143.698C13.8907 143.514 13.7159 143.401 13.5266 143.401Z" fill="black"/>
<path d="M30.3973 144.757C29.9755 144.807 29.5932 144.495 29.5438 144.059C29.2991 141.881 29.3538 141.812 29.0354 141.551C28.875 141.42 28.6713 141.36 28.4684 141.384L23.7595 141.948C23.3377 141.999 22.9554 141.686 22.906 141.25L22.8353 140.618C22.792 140.229 22.7114 140.55 28.0983 130.32C28.3255 129.889 28.7443 129.903 28.9662 129.876C29.3888 129.826 29.7703 130.139 29.8197 130.574L30.7226 138.62C30.7461 138.829 30.8495 139.02 31.0091 139.151C31.3192 139.405 31.6285 139.311 31.9887 139.268C32.7427 139.178 33.0869 140.128 32.691 140.643C32.4455 140.964 32.1233 140.946 31.763 140.989C31.3412 141.039 31.038 141.434 31.0874 141.87C31.326 143.997 31.4051 144.097 31.1482 144.433C31.0213 144.598 30.8366 144.704 30.6337 144.729L30.3973 144.757ZM28.3635 139.745C28.7352 139.701 29.0012 139.354 28.9579 138.971L28.3749 133.774L25.0758 140.139L28.3635 139.746V139.745Z" fill="#81F8F8"/>
<path d="M29.2795 144.091C29.0378 141.945 29.0872 141.943 28.8706 141.766C28.6365 141.575 28.8509 141.621 23.79 142.221C23.2299 142.288 22.7085 141.876 22.6417 141.282C22.5725 140.672 22.495 140.387 22.6895 140.016L27.8644 130.189C28.1623 129.622 28.7194 129.63 28.9352 129.604C29.4976 129.536 30.0175 129.957 30.0836 130.543C31.0283 138.938 30.9234 138.731 31.1742 138.936C31.3672 139.095 31.5185 139.046 31.957 138.995C33.3569 138.833 33.5454 141.052 32.207 141.213L31.7936 141.261C31.5192 141.295 31.3201 141.553 31.3513 141.839L31.5732 143.816C31.7335 145.236 29.4414 145.532 29.2787 144.09L29.2795 144.091ZM29.5858 142.052C29.8229 144.199 29.7773 144.196 29.9954 144.375C30.1816 144.531 30.3648 144.484 30.6027 144.456C30.8763 144.423 31.0777 144.169 31.045 143.881L30.8231 141.903C30.7585 141.321 31.162 140.785 31.732 140.716L32.1455 140.668C32.6531 140.607 32.7193 139.918 32.3902 139.652C32.1926 139.49 32.0474 139.538 31.6059 139.591C31.0275 139.661 30.5206 139.225 30.4583 138.651L29.5554 130.606C29.5235 130.322 29.2757 130.12 28.9968 130.15L28.7171 130.184C28.5537 130.203 28.4108 130.303 28.3325 130.452C23.0217 140.536 23.0718 140.333 23.0999 140.587L23.1706 141.22C23.1866 141.355 23.2542 141.483 23.3576 141.567C23.5871 141.755 23.3675 141.712 28.4389 141.112C29.0226 141.043 29.5235 141.483 29.5865 142.052L29.5858 142.052ZM25.0744 140.413C24.8715 140.413 24.7461 140.189 24.8396 140.009L28.1395 133.644C28.2619 133.407 28.6084 133.476 28.6381 133.742L29.2217 138.939C29.2818 139.474 28.9101 139.957 28.3926 140.019L25.0744 140.413ZM28.2079 134.677L25.5487 139.805L28.3318 139.472C28.5583 139.445 28.7194 139.235 28.6935 139.001L28.2079 134.677Z" fill="black"/>
<path fill-rule="evenodd" clip-rule="evenodd" d="M42.0841 130.026L43.7599 129.871L38.5698 142.896L36.894 143.052L42.0841 130.026Z" fill="#81F8F8"/>
<path fill-rule="evenodd" clip-rule="evenodd" d="M35.1796 130.667C36.5803 130.537 37.8168 131.606 37.9422 133.052C38.0676 134.499 37.0333 135.779 35.6326 135.908C34.2319 136.038 32.9931 134.969 32.8677 133.522C32.7423 132.077 33.7789 130.796 35.1796 130.667ZM35.3012 132.096C35.9381 132.037 36.5013 132.523 36.5583 133.181C36.6153 133.839 36.1448 134.421 35.5079 134.479C34.8711 134.538 34.3079 134.052 34.2509 133.395C34.1939 132.737 34.6643 132.155 35.3012 132.096Z" fill="#81F8F8"/>
<path d="M35.3992 136.194C33.9757 136.194 32.7346 135.071 32.6024 133.548C32.4618 131.939 33.62 130.53 35.1529 130.393C36.7178 130.253 38.0691 131.442 38.2066 133.027C38.3548 134.721 37.0636 136.194 35.3992 136.194ZM35.2008 130.941C33.959 131.05 33.0181 132.195 33.1321 133.499C33.2446 134.801 34.3656 135.756 35.6082 135.635C36.8622 135.52 37.7901 134.373 37.6769 133.077C37.5659 131.792 36.4715 130.829 35.2008 130.941ZM35.4022 134.759C34.6779 134.759 34.0532 134.187 33.9863 133.419C33.9157 132.61 34.494 131.895 35.2776 131.822C36.0513 131.751 36.752 132.337 36.8234 133.156C36.8987 134.015 36.2435 134.759 35.4022 134.759ZM35.4053 132.365C34.8816 132.365 34.4697 132.831 34.5161 133.369C34.5586 133.856 34.9637 134.244 35.4843 134.205C35.9829 134.158 36.337 133.703 36.2929 133.205C36.2511 132.727 35.862 132.365 35.4053 132.365Z" fill="black"/>
<path fill-rule="evenodd" clip-rule="evenodd" d="M45.4054 136.978C46.8061 136.849 48.0449 137.917 48.1703 139.364C48.2957 140.811 47.2613 142.09 45.8606 142.22C44.4599 142.349 43.2211 141.281 43.0957 139.834C42.9703 138.388 44.0047 137.108 45.4054 136.978ZM45.5293 138.408C46.1661 138.349 46.7293 138.835 46.7863 139.493C46.8433 140.15 46.3729 140.732 45.736 140.791C45.0991 140.85 44.5359 140.364 44.4789 139.706C44.4219 139.048 44.8924 138.467 45.5293 138.408Z" fill="#81F8F8"/>
<path d="M45.6271 142.505C44.2089 142.505 42.9625 141.388 42.8303 139.859C42.6912 138.264 43.835 136.845 45.3801 136.704C46.9252 136.564 48.297 137.744 48.4345 139.339C48.5812 141.031 47.29 142.505 45.6271 142.505V142.505ZM45.428 137.252C43.3973 137.443 42.6243 140.073 44.1702 141.408C45.7175 142.74 48.0865 141.486 47.9048 139.389C47.7923 138.095 46.6683 137.136 45.428 137.252ZM45.6301 141.07C44.9059 141.07 44.2811 140.498 44.2143 139.73C44.1436 138.922 44.7219 138.207 45.5055 138.134C46.2959 138.065 46.9814 138.661 47.0513 139.467C47.1266 140.326 46.4715 141.07 45.6301 141.07ZM45.6347 138.678C44.8048 138.678 44.4195 139.753 45.0609 140.306C45.6636 140.827 46.5923 140.338 46.5216 139.516C46.4791 139.03 46.0831 138.678 45.6347 138.678Z" fill="black"/>
<path d="M36.8946 143.326C36.7016 143.326 36.577 143.125 36.6492 142.947L41.8392 129.922C41.8764 129.827 41.9623 129.762 42.0611 129.752C43.9148 129.58 43.8578 129.543 43.9756 129.708C44.0303 129.785 44.0424 129.887 44.0067 129.975L38.8167 143.001C38.7354 143.21 38.724 143.159 36.8954 143.326H36.8946ZM42.2694 130.285L37.3073 142.737L38.3858 142.637L43.3478 130.186L42.2694 130.285Z" fill="black"/>
</svg>
