<svg width="1720" height="280" viewBox="0 0 1720 280" fill="none" xmlns="http://www.w3.org/2000/svg">
<path d="M84.5562 73.886C84.5562 73.886 114.58 96.67 160.224 54.068C200.76 16.2343 233.859 75.9275 234.09 104.514C234.39 141.544 193.554 171.173 213.372 195.495C233.189 219.817 174.07 259.981 142.208 225.222C102.572 181.983 91.8345 217.115 69.2424 217.115C53.0278 217.115 19.7376 176.825 42.2181 146.851C61.1352 121.629 50.8181 113.258 45.822 104.514C38.6149 91.9022 55.7303 57.6715 84.5562 73.886Z" fill="#DEE9FF"/>
<path d="M205.092 124.235C206.706 124.835 208.469 124.875 210.147 124.489C217.177 122.876 241.35 118.603 237.15 137.335C236.235 141.051 222.078 161.865 242.239 169.462C243.717 170.026 245.279 170.334 246.86 170.372C253.068 170.5 265.369 169.034 270.517 163.794C276.737 157.463 269.942 160.465 269.942 160.465C269.942 160.465 246.298 170.783 237.946 159.836C237.017 158.618 236.425 156.849 236.256 155.326C235.962 152.686 237.134 149.197 238.674 146.159C240.759 142.048 250.766 123.555 229.038 118.168C224.033 116.976 216.763 115.906 207.39 119.852C201.922 122.154 203.133 123.507 205.092 124.235Z" fill="#BDD6F9"/>
<path d="M209.93 117.331L203.637 119.687C201.465 120.5 200.363 122.92 201.176 125.092L201.488 125.926C202.301 128.098 204.721 129.2 206.893 128.387L213.187 126.032C215.359 125.219 216.461 122.799 215.648 120.626L215.336 119.793C214.523 117.62 212.103 116.518 209.93 117.331Z" fill="#0E84E5"/>
<path d="M171.3 124.147L150.546 131.915C149.459 132.321 148.908 133.531 149.315 134.617L149.397 134.836C149.803 135.922 151.013 136.473 152.1 136.067L172.854 128.299C173.941 127.892 174.492 126.682 174.085 125.596L174.003 125.377C173.597 124.291 172.387 123.74 171.3 124.147Z" fill="white"/>
<path d="M177.093 139.624L156.338 147.391C155.252 147.798 154.701 149.008 155.108 150.094L155.189 150.313C155.596 151.399 156.806 151.95 157.892 151.543L178.647 143.776C179.733 143.369 180.284 142.159 179.878 141.073L179.796 140.854C179.39 139.768 178.179 139.217 177.093 139.624Z" fill="white"/>
<path d="M196.255 113.585L179.434 119.88C177.261 120.693 176.159 123.114 176.972 125.286L182.716 140.631C183.529 142.803 185.949 143.905 188.121 143.092L204.943 136.797C207.115 135.984 208.217 133.564 207.404 131.391L201.661 116.046C200.848 113.874 198.428 112.772 196.255 113.585Z" fill="#5895F9"/>
<path d="M181.172 117.61L164.35 123.906C162.178 124.719 161.076 127.139 161.889 129.312L168.741 147.619C169.554 149.791 171.974 150.893 174.146 150.08L190.968 143.785C193.14 142.972 194.242 140.552 193.429 138.379L186.577 120.072C185.764 117.899 183.344 116.797 181.172 117.61Z" fill="#699CFF"/>
<path d="M183.805 113.895L183.673 113.944C182.225 114.486 181.49 116.1 182.032 117.548L191.631 143.195C192.173 144.643 193.786 145.378 195.234 144.836L195.366 144.786C196.815 144.244 197.549 142.631 197.007 141.183L187.409 115.536C186.867 114.088 185.253 113.353 183.805 113.895Z" fill="#208AF2"/>
<path d="M12.2816 130.292C12.2816 130.292 46.0647 120.798 41.16 142.672C40.3082 146.133 28.0471 163.953 42.6519 172.509C45.7879 174.346 49.4069 175.16 53.0412 175.141C59.5572 175.107 69.8871 173.853 74.5277 169.13C80.747 162.799 73.9526 165.801 73.9526 165.801C73.9526 165.801 54.5504 173.782 44.5687 167.42C41.1604 165.248 39.6155 161.042 40.541 157.107C41.0141 155.153 41.7344 153.267 42.6847 151.495C44.8555 147.429 54.7768 128.891 33.0488 123.504C28.0435 122.312 20.7737 121.242 11.4 125.188C2.02631 129.135 12.2816 130.292 12.2816 130.292Z" fill="#BDD6F9"/>
<path d="M79.0704 160.906L72.7772 163.262C70.6047 164.075 69.5027 166.495 70.3158 168.668L70.6278 169.501C71.4408 171.674 73.861 172.776 76.0335 171.962L82.3267 169.607C84.4992 168.794 85.6011 166.374 84.7881 164.201L84.4761 163.368C83.6631 161.195 81.2428 160.093 79.0704 160.906Z" fill="#0E84E5"/>
<path d="M89.7031 150.552L80.3762 154.043C78.2037 154.856 77.1017 157.276 77.9148 159.449L82.4122 171.465C83.2253 173.638 85.6455 174.74 87.8179 173.927L97.1448 170.436C99.3173 169.623 100.419 167.203 99.6062 165.03L95.1088 153.014C94.2957 150.841 91.8755 149.739 89.7031 150.552Z" fill="#5895F9"/>
<path d="M105.23 141.3L91.3212 146.506C89.1488 147.319 88.0468 149.739 88.8599 151.912L95.7116 170.219C96.5247 172.392 98.9449 173.494 101.117 172.681L115.026 167.475C117.199 166.662 118.301 164.242 117.488 162.069L110.636 143.762C109.823 141.589 107.403 140.487 105.23 141.3Z" fill="#699CFF"/>
<path d="M108.177 137.509L108.045 137.558C106.596 138.1 105.862 139.714 106.404 141.162L116.002 166.809C116.544 168.257 118.158 168.992 119.606 168.45L119.738 168.4C121.186 167.858 121.921 166.245 121.379 164.796L111.78 139.15C111.238 137.702 109.625 136.967 108.177 137.509Z" fill="#208AF2"/>
<path d="M143.694 121.17C143.193 121.114 142.733 120.867 142.411 120.479C142.09 120.091 141.931 119.594 141.968 119.091L143.006 100.135C143.068 99.0027 144.024 98.1424 145.109 98.2425L146.621 98.3825C147.706 98.4826 148.483 99.5025 148.331 100.627L145.781 119.443C145.723 119.944 145.473 120.403 145.084 120.725C144.695 121.047 144.197 121.206 143.694 121.17Z" fill="#418DF9"/>
<path d="M134.733 122.804C134.577 122.85 134.414 122.865 134.252 122.848C134.091 122.83 133.934 122.781 133.792 122.703C133.649 122.626 133.524 122.521 133.422 122.394C133.32 122.268 133.244 122.122 133.198 121.967L129.492 110.175C129.384 109.84 129.414 109.475 129.574 109.162C129.735 108.848 130.013 108.611 130.349 108.503L131.308 108.213C131.473 108.165 131.646 108.152 131.816 108.174C131.986 108.196 132.149 108.253 132.296 108.342C132.443 108.43 132.57 108.548 132.669 108.688C132.768 108.828 132.837 108.987 132.871 109.155L135.618 121.237C135.695 121.561 135.646 121.903 135.482 122.194C135.318 122.484 135.051 122.702 134.733 122.804Z" fill="#418DF9"/>
<path d="M129.732 129.604C129.068 130.427 127.732 130.417 126.704 129.582L108.453 114.753C107.362 113.867 107.041 112.401 107.745 111.529L108.727 110.313C109.432 109.44 110.878 109.512 111.91 110.47L129.18 126.516C130.153 127.419 130.396 128.782 129.732 129.604Z" fill="#418DF9"/>
<path d="M138.169 167.906C138.639 168.088 139.02 168.445 139.232 168.902C139.445 169.359 139.471 169.881 139.307 170.357L133.462 188.419C133.113 189.498 131.969 190.085 130.945 189.711L129.518 189.19C128.495 188.816 128.004 187.631 128.438 186.584L135.709 169.043C135.894 168.573 136.252 168.193 136.711 167.981C137.169 167.769 137.691 167.742 138.169 167.906Z" fill="#418DF9"/>
<path d="M147.25 168.615C147.412 168.61 147.574 168.638 147.726 168.696C147.877 168.754 148.016 168.841 148.134 168.953C148.252 169.064 148.347 169.198 148.413 169.346C148.479 169.494 148.516 169.654 148.52 169.817L149.092 182.164C149.11 182.516 148.989 182.86 148.753 183.122C148.518 183.385 148.188 183.543 147.837 183.562L146.835 183.597C146.663 183.601 146.493 183.57 146.334 183.505C146.175 183.44 146.032 183.343 145.912 183.22C145.793 183.097 145.7 182.951 145.64 182.79C145.581 182.629 145.555 182.458 145.564 182.287L145.994 169.905C146.003 169.571 146.138 169.253 146.37 169.014C146.603 168.775 146.917 168.633 147.25 168.615Z" fill="#418DF9"/>
<path d="M153.822 163.317C154.674 162.691 155.963 163.042 156.743 164.112L170.603 183.11C171.43 184.245 171.367 185.744 170.463 186.408L169.203 187.333C168.299 187.997 166.918 187.558 166.165 186.368L153.565 166.444C152.857 165.323 152.97 163.943 153.822 163.317Z" fill="#418DF9"/>
<path d="M545.124 44.1076C545.124 44.1076 511.514 86.6805 457.738 61.2856C403.962 35.8907 350.186 104.606 396.493 146.432C442.799 188.258 397.485 211.241 428.945 236.874C464.701 266.008 495.83 206.93 524.211 220.374C586.851 250.046 633.257 238.299 622.801 203.942C604.446 143.633 580.975 139.71 598.901 108.34C616.826 76.9702 577.264 11.746 545.124 44.1076Z" fill="#DEE9FF"/>
<path d="M541.728 121.939C541.728 121.939 575.934 119.717 578.599 85.9555C575.49 83.7343 571.047 70.4073 578.599 69.0746C586.151 67.7419 591.482 69.0746 591.482 69.0746C591.482 69.0746 605.253 79.7361 587.928 87.7324C587.484 92.1749 587.04 131.712 551.501 149.037C515.962 166.362 541.728 121.939 541.728 121.939Z" fill="#699CFF"/>
<path d="M598.214 47.3906L584.5 44.8917C583.74 44.7531 583.011 45.2574 582.872 46.0181L577.931 73.136C577.792 73.8967 578.296 74.6257 579.057 74.7643L592.771 77.2632C593.531 77.4018 594.26 76.8975 594.399 76.1369L599.34 49.0189C599.479 48.2582 598.975 47.5292 598.214 47.3906Z" fill="#0E84E5"/>
<path d="M558.928 146.443C558.928 165.261 550.595 182.142 537.41 193.603C526.06 203.454 511.532 208.868 496.504 208.849C474.31 208.849 454.835 197.281 443.765 179.831C437.792 170.39 434.462 159.519 434.123 148.353C433.783 137.186 436.445 126.133 441.833 116.346C447.22 106.559 455.134 98.3973 464.75 92.7111C474.367 87.0249 485.333 84.0231 496.504 84.0187C525.451 84.0187 549.813 103.725 556.849 130.468C558.24 135.679 558.939 141.05 558.928 146.443Z" fill="#A2BDFF"/>
<path d="M537.41 193.603C526.06 203.453 511.532 208.868 496.504 208.849C474.31 208.849 454.835 197.281 443.765 179.831C453.502 171.853 458.993 172.705 462.653 174.074C466.652 175.585 468.873 182.355 480.423 175.691C491.973 169.028 501.302 185.02 505.744 187.686C523.514 186.406 532.772 190.191 537.41 193.603Z" fill="#0E84E5"/>
<path d="M556.85 130.468C530.462 136.723 532.328 121.708 529.733 112.61C527.068 103.281 525.291 106.39 508.854 119.274C492.417 132.157 490.64 111.277 490.338 107.724C490.019 104.17 489.308 102.838 480.867 103.885C472.427 104.933 470.206 98.3946 463.098 102.837C460.148 104.685 456.132 103.85 452.454 102.233C458.236 96.4464 465.103 91.8587 472.663 88.733C480.222 85.6074 488.324 84.0054 496.504 84.0189C525.451 84.0186 549.813 103.725 556.85 130.468Z" fill="#0E84E5"/>
<path d="M443.498 79.3276C443.213 80.2925 443.22 81.3203 443.518 82.2813C443.816 83.2423 444.393 84.0931 445.175 84.7263C445.957 85.3595 446.909 85.7466 447.912 85.8386C448.914 85.9307 449.92 85.7235 450.805 85.2433C451.689 84.7631 452.411 84.0315 452.879 83.141C453.348 82.2505 453.542 81.241 453.437 80.2403C453.331 79.2396 452.932 78.2925 452.288 77.5189C451.645 76.7453 450.787 76.1798 449.822 75.894C448.528 75.511 447.135 75.6576 445.949 76.3015C444.763 76.9454 443.882 78.0339 443.498 79.3276Z" fill="#699CFF"/>
<path d="M440.886 66.9784C439.072 67.9573 437.469 69.2866 436.172 70.8892C434.875 72.4918 433.908 74.3359 433.329 76.3147C433.216 76.6901 433.179 77.084 433.219 77.4739C433.258 77.8638 433.375 78.242 433.561 78.5868C433.748 78.9316 434 79.2361 434.305 79.483C434.609 79.73 434.959 79.9143 435.335 80.0256C435.711 80.1369 436.105 80.1729 436.495 80.1316C436.885 80.0902 437.262 79.9723 437.606 79.7846C437.951 79.597 438.254 79.3432 438.5 79.0379C438.746 78.7326 438.929 78.3818 439.039 78.0056C439.402 76.7792 440.003 75.6364 440.807 74.6424C441.612 73.6484 442.605 72.8226 443.729 72.2123C444.853 71.6019 446.086 71.219 447.358 71.0853C448.63 70.9516 449.915 71.0698 451.142 71.4332C451.517 71.5458 451.911 71.5832 452.301 71.5433C452.691 71.5034 453.069 71.3868 453.414 71.2004C453.758 71.014 454.063 70.7614 454.31 70.457C454.557 70.1526 454.741 69.8024 454.853 69.4266C454.964 69.0508 455 68.6567 454.958 68.2669C454.917 67.8772 454.799 67.4994 454.612 67.1553C454.424 66.8113 454.17 66.5076 453.865 66.2618C453.559 66.016 453.209 65.8329 452.832 65.723C450.857 65.1316 448.784 64.9381 446.734 65.1536C444.683 65.3691 442.695 65.9893 440.886 66.9784Z" fill="#699CFF"/>
<path d="M436.207 58.3613C433.258 59.9521 430.654 62.1119 428.546 64.7158C426.438 67.3197 424.867 70.3159 423.925 73.531C423.701 74.2882 423.786 75.1035 424.163 75.7975C424.54 76.4915 425.177 77.0074 425.935 77.2316C426.692 77.4559 427.507 77.3701 428.201 76.9932C428.895 76.6164 429.411 75.9793 429.635 75.222C430.364 72.7609 431.57 70.4674 433.185 68.4724C434.8 66.4775 436.792 64.8202 439.048 63.5953C441.303 62.3704 443.778 61.6018 446.331 61.3334C448.884 61.065 451.464 61.3021 453.925 62.0311C454.301 62.1438 454.694 62.1812 455.084 62.1413C455.474 62.1013 455.852 61.9848 456.197 61.7984C456.542 61.612 456.847 61.3593 457.094 61.0549C457.34 60.7505 457.525 60.4004 457.636 60.0246C457.747 59.6487 457.783 59.2547 457.742 58.8649C457.701 58.4752 457.583 58.0974 457.395 57.7533C457.207 57.4092 456.954 57.1056 456.648 56.8598C456.343 56.614 455.992 56.4308 455.616 56.3209C452.407 55.3605 449.039 55.0464 445.707 55.3966C442.375 55.7468 439.146 56.7545 436.207 58.3613Z" fill="#699CFF"/>
<path d="M458.408 46.8977C453.96 45.58 449.295 45.1515 444.681 45.6367C440.067 46.1218 435.594 47.5111 431.517 49.7252C427.44 51.9393 423.839 54.9348 420.919 58.5408C418 62.1467 415.82 66.2923 414.503 70.741C414.39 71.1164 414.353 71.5104 414.393 71.9003C414.433 72.2902 414.549 72.6684 414.736 73.0131C414.922 73.3579 415.175 73.6625 415.479 73.9094C415.783 74.1563 416.134 74.3407 416.509 74.452C416.885 74.5632 417.279 74.5993 417.669 74.5579C418.059 74.5165 418.437 74.3986 418.781 74.211C419.125 74.0233 419.428 73.7695 419.674 73.4642C419.92 73.1589 420.103 72.8081 420.213 72.4319C421.308 68.7333 423.121 65.2865 425.548 62.2885C427.975 59.2905 430.968 56.8 434.358 54.9592C437.748 53.1184 441.467 51.9634 445.303 51.5601C449.139 51.1569 453.017 51.5132 456.716 52.6089C457.472 52.8292 458.284 52.7411 458.976 52.3638C459.667 51.9865 460.181 51.3508 460.404 50.5957C460.628 49.8406 460.544 49.0276 460.17 48.3346C459.796 47.6416 459.162 47.125 458.408 46.8977Z" fill="#699CFF"/>
<path d="M766.326 209.322C773.732 227.395 785.807 231.158 794.298 227.395C810.718 220.12 853.372 211.992 897.179 231.099C955.199 256.406 967.544 218.225 949.027 179.604C930.51 140.983 924.233 101.926 945.58 80.4084C966.927 58.8906 938.992 25.2294 889.384 60.2685C857.325 82.9121 833.798 77.8698 821.164 71.4685C809.257 65.4354 796.014 59.1283 783.608 64.0528C768.553 70.0286 762.622 82.9846 785.526 111.928C817.984 152.943 749.723 168.812 766.326 209.322Z" fill="#DEE9FF"/>
<path d="M934.055 84.5613C933.857 84.811 933.636 85.0407 933.394 85.2473L916.089 100.224L903.172 139.456L867.163 165.769C867.163 165.769 861.028 170.909 855.427 171.386C854.173 171.824 850.375 173.302 848.271 175.586C847.593 176.322 842.274 192.031 834.024 214.246C833.611 215.358 832.798 216.275 831.743 216.818C830.689 217.36 829.469 217.489 828.325 217.179C818.015 214.381 794.924 208.22 783.938 204.058C783.261 203.802 782.657 203.384 782.179 202.841C781.7 202.298 781.362 201.645 781.195 200.941C781.027 200.237 781.034 199.503 781.215 198.802C781.397 198.102 781.747 197.456 782.235 196.922C794.86 183.123 821.402 151.538 821.402 151.538L823.202 147.798C823.202 147.798 834.541 112.371 838.25 110.068C839.652 108.545 847.72 96.7353 850.894 88.4966C851.616 87.2976 854.962 82.3075 857.765 77.999C859.751 74.919 861.475 72.179 861.769 71.3964C861.832 71.2171 861.938 71.0558 862.077 70.9266C862.077 70.9266 862.069 70.9241 862.08 70.9176C863.417 69.5206 867.855 69.8361 868.07 75.1399C868.311 80.9905 863.05 93.1274 861.991 93.458C861.455 94.7488 859.933 101.701 856.955 107.587C856.698 108.477 856.315 110.775 858.827 110.218C861.341 109.651 919.496 82.2543 919.496 82.2543L926.709 77.7233C927.771 77.0358 929.035 76.7277 930.295 76.849C931.787 77.0206 933.154 77.7636 934.11 78.922C936.168 81.3068 934.824 83.5979 934.055 84.5613Z" fill="#699CFF"/>
<path d="M860.705 78.9615C859.666 79.057 858.605 78.5586 857.765 77.9983C859.751 74.9183 861.475 72.1783 861.769 71.3957C861.832 71.2164 861.938 71.0551 862.078 70.9259C864.471 73.784 860.992 78.6683 860.705 78.9615Z" fill="#D4E5FF"/>
<path d="M920.134 72.6463L877.517 60.3628C874.546 59.5062 871.442 61.2209 870.586 64.1927L844.798 153.659C843.941 156.63 845.656 159.734 848.628 160.591L891.244 172.874C894.216 173.731 897.319 172.016 898.176 169.044L923.963 79.5782C924.82 76.6064 923.105 73.5029 920.134 72.6463Z" fill="#0E84E5"/>
<path d="M917.893 74.887L878.221 63.4519C875.992 62.8095 873.665 64.0955 873.022 66.3244L847.995 153.151C847.353 155.38 848.639 157.708 850.868 158.35L890.54 169.785C892.769 170.427 895.097 169.141 895.739 166.913L920.766 80.0859C921.408 77.857 920.122 75.5294 917.893 74.887Z" fill="#D4E5FF"/>
<path d="M919.924 104.157L912.771 104.1C909.233 104.073 906.343 106.918 906.315 110.456C906.287 113.994 909.132 116.884 912.67 116.912L919.823 116.969C923.36 116.997 926.251 114.151 926.279 110.613C926.307 107.075 923.461 104.185 919.924 104.157Z" fill="#699CFF"/>
<path d="M917.444 117.398L908.388 117.327C905.519 117.304 903.175 119.611 903.152 122.48C903.129 125.349 905.437 127.693 908.306 127.716L917.362 127.787C920.231 127.81 922.575 125.503 922.597 122.634C922.62 119.765 920.312 117.421 917.444 117.398Z" fill="#699CFF"/>
<path d="M911.405 128.765L906.054 128.723C903.885 128.706 902.114 130.45 902.097 132.619C902.079 134.787 903.824 136.559 905.992 136.576L911.343 136.618C913.511 136.635 915.283 134.891 915.3 132.723C915.317 130.554 913.573 128.783 911.405 128.765Z" fill="#699CFF"/>
<path d="M908.256 130.186L905.13 130.162C904.589 130.158 904.147 130.593 904.142 131.134L904.12 133.931C904.116 134.472 904.551 134.914 905.092 134.919L908.219 134.943C908.76 134.947 909.202 134.512 909.206 133.971L909.228 131.174C909.233 130.633 908.797 130.191 908.256 130.186Z" fill="#D4E5FF"/>
<path d="M911.426 119.792L907.924 119.764C906.764 119.755 905.816 120.688 905.807 121.848L905.794 123.542C905.785 124.701 906.718 125.649 907.877 125.658L911.38 125.686C912.539 125.695 913.487 124.762 913.496 123.602L913.51 121.908C913.519 120.749 912.586 119.801 911.426 119.792Z" fill="#D4E5FF"/>
<path d="M915.913 106.356L913.085 106.333C911.538 106.321 910.275 107.565 910.263 109.111L910.245 111.335C910.233 112.881 911.477 114.145 913.023 114.157L915.851 114.179C917.397 114.192 918.661 112.948 918.673 111.402L918.691 109.178C918.703 107.631 917.459 106.368 915.913 106.356Z" fill="#D4E5FF"/>
<path d="M810.289 133.069C810.087 133.692 810.075 134.36 810.253 134.99C810.431 135.62 810.793 136.183 811.291 136.608C811.789 137.032 812.402 137.3 813.052 137.376C813.703 137.453 814.361 137.334 814.944 137.037C815.527 136.739 816.009 136.275 816.328 135.703C816.647 135.132 816.79 134.478 816.738 133.826C816.686 133.173 816.442 132.55 816.036 132.037C815.63 131.523 815.081 131.141 814.458 130.939C813.623 130.669 812.715 130.741 811.933 131.141C811.151 131.54 810.56 132.233 810.289 133.069Z" fill="#699CFF"/>
<path d="M808.793 124.993C807.597 125.6 806.533 126.438 805.662 127.459C804.792 128.48 804.133 129.664 803.724 130.941C803.565 131.43 803.608 131.962 803.841 132.419C804.075 132.877 804.481 133.223 804.97 133.381C805.459 133.54 805.99 133.497 806.448 133.264C806.906 133.03 807.252 132.624 807.41 132.135C807.666 131.344 808.076 130.61 808.616 129.977C809.155 129.344 809.815 128.823 810.556 128.444C811.297 128.066 812.105 127.837 812.935 127.771C813.764 127.705 814.598 127.803 815.39 128.06C815.879 128.218 816.41 128.176 816.868 127.942C817.326 127.708 817.672 127.302 817.83 126.814C817.988 126.325 817.946 125.793 817.712 125.335C817.479 124.878 817.073 124.532 816.584 124.373C815.309 123.956 813.964 123.796 812.626 123.903C811.289 124.009 809.986 124.38 808.793 124.993Z" fill="#699CFF"/>
<path d="M805.891 119.311C803.947 120.297 802.218 121.659 800.804 123.318C799.39 124.977 798.319 126.9 797.653 128.976C797.573 129.218 797.542 129.474 797.562 129.728C797.581 129.983 797.65 130.231 797.766 130.459C797.881 130.686 798.041 130.889 798.235 131.055C798.429 131.22 798.654 131.346 798.896 131.425C799.139 131.503 799.395 131.533 799.649 131.513C799.904 131.492 800.152 131.422 800.379 131.305C800.606 131.188 800.807 131.028 800.972 130.833C801.137 130.638 801.262 130.413 801.339 130.17C801.854 128.581 802.676 127.109 803.759 125.838C804.843 124.567 806.166 123.522 807.653 122.763C809.14 122.003 810.763 121.544 812.427 121.411C814.092 121.279 815.767 121.475 817.355 121.99C817.844 122.148 818.376 122.106 818.833 121.872C819.291 121.639 819.637 121.233 819.795 120.744C819.954 120.255 819.911 119.723 819.677 119.266C819.444 118.808 819.038 118.462 818.549 118.304C816.477 117.626 814.292 117.367 812.119 117.54C809.947 117.713 807.83 118.315 805.891 119.311Z" fill="#699CFF"/>
<path d="M820.52 112.221C817.649 111.291 814.622 110.935 811.613 111.175C808.604 111.414 805.671 112.244 802.983 113.617C800.295 114.99 797.903 116.879 795.945 119.176C793.987 121.474 792.501 124.134 791.571 127.006C791.492 127.248 791.462 127.503 791.483 127.757C791.503 128.01 791.573 128.257 791.688 128.484C791.804 128.711 791.963 128.912 792.157 129.077C792.351 129.242 792.575 129.368 792.817 129.446C793.059 129.524 793.314 129.554 793.568 129.534C793.821 129.514 794.068 129.444 794.295 129.328C794.522 129.213 794.723 129.053 794.888 128.86C795.053 128.666 795.179 128.442 795.257 128.2C796.03 125.812 797.266 123.6 798.894 121.69C800.522 119.78 802.51 118.21 804.745 117.068C806.98 115.927 809.418 115.237 811.92 115.038C814.422 114.839 816.938 115.134 819.326 115.908C819.815 116.066 820.347 116.024 820.804 115.79C821.262 115.556 821.608 115.15 821.766 114.662C821.925 114.173 821.882 113.641 821.649 113.183C821.415 112.725 821.009 112.379 820.52 112.221Z" fill="#699CFF"/>
<path d="M944.38 41.8482C939.835 39.0726 936.103 40.4918 934.992 42.3102C934.19 43.6236 934.931 44.9081 935.84 45.4633C937.658 46.5735 938.501 43.5284 941.935 45.6256C943.619 46.6536 944.513 48.217 943.567 49.7658C942.456 51.5841 939.934 51.4766 938.247 51.7409C936.756 51.9866 934.634 52.5859 932.866 55.4817C931.796 57.2327 931.959 58.0255 933.339 58.8686C934.989 59.8759 935.778 59.3408 936.169 58.7006C937.238 56.9496 937.889 55.9599 940.625 55.6428C941.966 55.4909 946.226 54.9486 948.159 51.7835C950.092 48.6183 948.69 44.4799 944.38 41.8482Z" fill="#0E84E5"/>
<path d="M931.954 61.2122C931.614 61.0043 931.235 60.8654 930.841 60.8036C930.447 60.7418 930.045 60.7583 929.657 60.852C929.269 60.9458 928.903 61.115 928.581 61.35C928.259 61.585 927.986 61.8812 927.778 62.2217C927.57 62.5622 927.431 62.9403 927.369 63.3345C927.307 63.7286 927.324 64.1311 927.417 64.5189C927.511 64.9067 927.68 65.2722 927.915 65.5946C928.15 65.917 928.447 66.19 928.787 66.3979C929.475 66.8179 930.301 66.9475 931.084 66.7581C931.868 66.5688 932.544 66.0761 932.964 65.3885C933.383 64.7008 933.513 63.8745 933.324 63.0913C933.134 62.3081 932.642 61.6322 931.954 61.2122Z" fill="#0E84E5"/>
<path d="M1168.37 71.0584C1168.37 71.0584 1200.21 95.2209 1248.62 50.0411C1291.61 9.91705 1326.71 73.2235 1326.96 103.54C1327.28 142.812 1283.97 174.235 1304.99 200.029C1326 225.823 1263.3 268.418 1229.51 231.555C1187.48 185.699 1176.09 222.957 1152.13 222.957C1134.94 222.957 1099.63 180.229 1123.47 148.441C1143.53 121.691 1132.59 112.814 1127.29 103.54C1119.65 90.1652 1137.8 53.8624 1168.37 71.0584Z" fill="#DEE9FF"/>
<path d="M1310.37 54.5875C1310.37 55.182 1310.34 55.7676 1310.29 56.3476C1309.83 61.5877 1307.33 66.4385 1303.34 69.8609C1299.34 73.2833 1294.16 75.0052 1288.92 74.6578C1283.67 74.3104 1278.76 71.9212 1275.25 68.0022C1271.74 64.0831 1269.91 58.9457 1270.14 53.6903C1270.37 48.435 1272.66 43.4796 1276.5 39.8856C1280.34 36.2916 1285.43 34.3447 1290.69 34.462C1295.95 34.5793 1300.96 36.7515 1304.63 40.5132C1308.31 44.2749 1310.37 49.3271 1310.37 54.5875Z" fill="#A2BDFF"/>
<path d="M1292.78 56.1282C1291.49 57.138 1289.67 59.1491 1290.22 63.6241C1289.61 65.361 1287.45 68.679 1287.45 70.2658C1287.45 71.8526 1284.85 72.1418 1284.56 71.7078C1284.27 71.2738 1284.13 65.7931 1282.54 64.7833C1280.95 63.7734 1281.24 59.1571 1281.24 59.1571C1281.24 59.1571 1281.82 57.4258 1279.94 56.2718C1278.07 55.1178 1276.76 52.3767 1278.43 50.7898C1280.09 49.2029 1275.62 48.1931 1275.04 47.0391C1274.79 46.5491 1273.85 45.4522 1272.86 44.3587C1275.01 40.7032 1278.27 37.8201 1282.16 36.1184C1283.63 37.6584 1284.91 39.6297 1284.56 41.7013C1284.62 42.7111 1289 44.298 1286.86 46.4613C1284.71 48.6253 1281.79 51.6553 1286.86 52.6646C1291.92 53.6759 1294.08 55.1179 1292.78 56.1282Z" fill="#0E84E5"/>
<path d="M1304.31 40.1874C1303.23 42.4638 1300.52 44.2987 1298.99 44.2987C1297.26 42.4227 1293.51 45.0202 1293.15 41.9906C1292.95 40.2249 1294.96 37.4838 1296.68 35.4989C1299.54 36.47 1302.15 38.0723 1304.31 40.1874Z" fill="#0E84E5"/>
<path d="M1310.29 56.3476C1309.86 61.3289 1307.59 65.9704 1303.91 69.3628C1303.25 68.7251 1302.68 67.9779 1302.88 67.3807C1303.32 66.0823 1305.08 63.3413 1304.77 61.6102C1304.49 59.9944 1305.98 55.1069 1310.29 56.3476Z" fill="#0E84E5"/>
<path d="M1277.53 156.356C1276.88 160.33 1275.82 164.225 1274.35 167.973C1264.77 192.519 1239.06 207.896 1212.01 203.477C1197.07 201.032 1183.72 192.757 1174.88 180.47C1166.05 168.183 1162.45 152.891 1164.89 137.954C1165.01 137.196 1165.15 136.432 1165.3 135.689C1171.41 105.828 1200.06 85.8754 1230.41 90.8326C1239.46 92.2967 1248.03 95.9351 1255.37 101.436C1257.78 103.237 1260.05 105.23 1262.14 107.394C1268.35 113.785 1272.98 121.543 1275.65 130.046C1278.33 138.548 1278.97 147.559 1277.53 156.355V156.356Z" fill="#699CFF"/>
<path d="M1274.35 167.973C1263.48 174.969 1250.65 181.441 1236.5 186.792C1222.09 192.238 1207.94 195.918 1194.97 197.845C1164.5 202.388 1140.57 197.312 1135.18 183.049C1130.13 169.728 1142.55 151.684 1165.3 135.689C1165.15 136.432 1165.01 137.197 1164.89 137.954C1164.43 140.728 1164.18 143.532 1164.15 146.343C1151.04 156.465 1144.22 166.378 1146.91 173.489C1149.52 180.403 1160.62 183.345 1176.42 182.511C1191.86 181.698 1211.78 177.25 1232.63 169.366C1250.67 162.539 1266.49 154.241 1278.26 145.905C1294.03 134.758 1302.58 123.542 1299.63 115.718C1296.6 107.685 1282.12 105.008 1262.14 107.395C1260.05 105.23 1257.78 103.238 1255.37 101.437C1283.33 98.2051 1304.89 103.486 1309.97 116.92C1315.41 131.288 1300.57 151.124 1274.35 167.973Z" fill="#0E84E5"/>
<path d="M1666.02 106.097C1666.02 106.097 1637.09 130.481 1667.89 184.955C1695.25 233.333 1629.88 252.421 1602.15 246.207C1566.23 238.157 1546.88 191.333 1518.8 205.336C1490.72 219.339 1465.36 152.166 1506.3 128.674C1557.24 99.4508 1525.68 80.9774 1530.85 58.7663C1534.56 42.8253 1581.19 19.1755 1605.06 48.0315C1625.15 72.3132 1635.62 64.0566 1645.23 61.1146C1659.09 56.8712 1688.31 81.4117 1666.02 106.097Z" fill="#DEE9FF"/>
<path d="M1636.76 70.3357L1574.34 60.1072C1569.76 59.3571 1565.44 62.4602 1564.69 67.0383L1543.1 198.796C1542.35 203.374 1545.45 207.694 1550.03 208.444L1612.45 218.672C1617.03 219.422 1621.35 216.319 1622.1 211.741L1643.69 79.9834C1644.44 75.4053 1641.33 71.0858 1636.76 70.3357Z" fill="#0E84E5"/>
<path d="M1634.7 74.0491L1575.1 64.2815C1572.04 63.7814 1569.16 65.8502 1568.66 68.9023L1547.46 198.298C1546.96 201.351 1549.03 204.23 1552.08 204.73L1611.69 214.498C1614.74 214.998 1617.62 212.929 1618.12 209.877L1639.32 80.4809C1639.82 77.4288 1637.76 74.5492 1634.7 74.0491Z" fill="#699CFF"/>
<path d="M1516.96 170.342C1516.71 171.19 1516.72 172.09 1516.99 172.93C1517.26 173.77 1517.77 174.512 1518.46 175.062C1519.15 175.611 1519.99 175.944 1520.87 176.018C1521.74 176.092 1522.63 175.904 1523.4 175.477C1524.17 175.05 1524.8 174.405 1525.2 173.621C1525.61 172.838 1525.77 171.952 1525.67 171.076C1525.57 170.2 1525.21 169.372 1524.65 168.699C1524.08 168.025 1523.32 167.535 1522.47 167.291C1521.34 166.964 1520.12 167.102 1519.08 167.674C1518.05 168.246 1517.28 169.206 1516.96 170.342Z" fill="#699CFF"/>
<path d="M1526.93 161.043C1526.92 161.227 1526.89 161.41 1526.83 161.587C1526.74 161.917 1526.58 162.225 1526.36 162.493C1526.15 162.761 1525.89 162.984 1525.58 163.149C1525.28 163.316 1524.96 163.421 1524.62 163.459C1524.27 163.497 1523.93 163.467 1523.6 163.37C1522.52 163.059 1521.4 162.964 1520.28 163.09C1519.17 163.215 1518.09 163.56 1517.11 164.102C1516.13 164.645 1515.26 165.376 1514.57 166.254C1513.87 167.131 1513.35 168.137 1513.04 169.215C1512.95 169.545 1512.79 169.852 1512.57 170.12C1512.36 170.387 1512.09 170.61 1511.79 170.776C1511.19 171.11 1510.47 171.19 1509.81 170.998C1509.14 170.806 1508.58 170.358 1508.25 169.752C1507.91 169.146 1507.83 168.432 1508.03 167.767C1508.52 166.03 1509.36 164.408 1510.48 162.996C1511.61 161.584 1513 160.41 1514.59 159.542C1515.78 158.883 1517.05 158.401 1518.38 158.11L1526.93 161.043Z" fill="#699CFF"/>
<path d="M1507.12 154.259L1513.34 156.392C1513.21 156.45 1513.08 156.517 1512.95 156.59C1510.98 157.672 1509.24 159.135 1507.84 160.894C1506.44 162.652 1505.4 164.672 1504.78 166.835C1504.69 167.166 1504.53 167.475 1504.32 167.745C1504.1 168.015 1503.84 168.24 1503.54 168.407C1503.24 168.575 1502.91 168.681 1502.57 168.72C1502.23 168.759 1501.88 168.731 1501.55 168.636C1501.22 168.541 1500.91 168.381 1500.64 168.167C1500.38 167.952 1500.15 167.687 1499.99 167.385C1499.82 167.084 1499.72 166.753 1499.68 166.411C1499.64 166.07 1499.67 165.724 1499.77 165.394C1501.01 161.014 1503.58 157.125 1507.12 154.259Z" fill="#699CFF"/>
<path d="M1529.21 153.331C1529.01 153.995 1528.57 154.556 1527.96 154.891C1527.36 155.227 1526.64 155.309 1525.98 155.122C1524.77 154.771 1523.53 154.554 1522.28 154.475L1512.34 151.077C1517.1 148.992 1522.44 148.646 1527.42 150.1C1528.09 150.293 1528.65 150.741 1528.98 151.347C1529.32 151.953 1529.4 152.666 1529.21 153.331Z" fill="#699CFF"/>
<path d="M1497.97 151.133L1503.42 152.993C1500.14 156.13 1497.75 160.085 1496.51 164.452C1496.41 164.782 1496.26 165.09 1496.04 165.358C1495.83 165.626 1495.56 165.849 1495.26 166.014C1494.96 166.182 1494.63 166.289 1494.29 166.328C1493.95 166.367 1493.61 166.338 1493.28 166.242C1492.95 166.148 1492.64 165.99 1492.38 165.777C1492.11 165.564 1491.88 165.3 1491.72 165C1491.55 164.701 1491.45 164.371 1491.41 164.031C1491.37 163.69 1491.4 163.345 1491.49 163.016C1492.74 158.623 1494.96 154.564 1497.97 151.133Z" fill="#699CFF"/>
<path d="M1531.59 145.06C1531.4 145.724 1530.95 146.284 1530.34 146.619C1529.74 146.953 1529.02 147.033 1528.36 146.843C1525.11 145.899 1521.71 145.609 1518.35 145.989C1514.99 146.368 1511.74 147.41 1508.78 149.055C1508.49 149.222 1508.2 149.385 1507.92 149.57L1501.81 147.474C1505.68 144.358 1510.24 142.219 1515.12 141.236C1519.99 140.254 1525.03 140.457 1529.81 141.828C1530.47 142.021 1531.03 142.47 1531.37 143.075C1531.7 143.681 1531.78 144.395 1531.59 145.06Z" fill="#699CFF"/>
<path d="M1491.98 151.492L1491.98 151.492C1491.56 152.719 1492.22 154.055 1493.44 154.475L1527.15 166.011C1528.38 166.431 1529.71 165.777 1530.13 164.549L1530.13 164.549C1530.55 163.322 1529.9 161.986 1528.67 161.566L1494.96 150.03C1493.74 149.61 1492.4 150.264 1491.98 151.492Z" fill="#699CFF"/>
<path d="M1670.23 60.0536C1665.69 58.1592 1662.49 59.9765 1661.73 61.7903C1661.18 63.1005 1662.04 64.1681 1662.95 64.5471C1664.76 65.3048 1665.1 62.4096 1668.53 63.8409C1670.21 64.5425 1671.24 65.8429 1670.59 67.3881C1669.84 69.2021 1667.52 69.4576 1666.02 69.935C1664.69 70.3679 1662.84 71.2119 1661.64 74.1007C1660.91 75.8473 1661.17 76.5476 1662.54 77.123C1664.19 77.8105 1664.83 77.2119 1665.1 76.5736C1665.83 74.8269 1666.28 73.8331 1668.74 73.1606C1669.94 72.8341 1673.75 71.7425 1675.07 68.5851C1676.38 65.4277 1674.53 61.8498 1670.23 60.0536Z" fill="#0E84E5"/>
<path d="M1661.61 79.4548C1660.92 79.1781 1660.16 79.1823 1659.48 79.4665C1658.8 79.7507 1658.25 80.292 1657.97 80.9729C1657.69 81.6538 1657.68 82.4194 1657.96 83.1037C1658.23 83.7879 1658.77 84.3356 1659.45 84.6278C1660.13 84.9097 1660.9 84.9089 1661.59 84.6256C1662.27 84.3423 1662.81 83.7996 1663.1 83.1161C1663.39 82.4325 1663.39 81.6637 1663.11 80.9777C1662.83 80.2916 1662.29 79.7441 1661.61 79.4548Z" fill="#0E84E5"/>
<path d="M1584.94 120.276C1585.35 117.757 1584.63 115.543 1583.32 115.331C1582.01 115.119 1580.62 116.989 1580.21 119.508C1579.8 122.027 1580.53 124.241 1581.84 124.453C1583.14 124.665 1584.53 122.795 1584.94 120.276Z" fill="white"/>
<path d="M1612.18 124.747C1612.59 122.203 1611.87 119.969 1610.56 119.756C1609.26 119.544 1607.86 121.435 1607.45 123.978C1607.04 126.522 1607.76 128.757 1609.07 128.969C1610.37 129.181 1611.77 127.291 1612.18 124.747Z" fill="white"/>
<path d="M1601.06 146.677C1600.97 146.677 1600.87 146.657 1600.79 146.62C1600.7 146.583 1600.62 146.528 1600.55 146.459L1599.57 145.422C1597.99 143.763 1595.91 142.669 1593.64 142.308C1591.38 141.948 1589.06 142.34 1587.05 143.426L1585.79 144.106C1585.71 144.149 1585.62 144.177 1585.53 144.186C1585.43 144.196 1585.34 144.187 1585.25 144.161C1585.17 144.134 1585.08 144.091 1585.01 144.033C1584.94 143.975 1584.88 143.903 1584.84 143.822C1584.79 143.742 1584.77 143.653 1584.76 143.561C1584.75 143.47 1584.76 143.377 1584.78 143.289C1584.81 143.201 1584.85 143.119 1584.91 143.048C1584.97 142.977 1585.04 142.917 1585.12 142.874L1586.38 142.194C1588.67 140.963 1591.3 140.517 1593.86 140.926C1596.43 141.335 1598.79 142.576 1600.58 144.457L1601.57 145.494C1601.66 145.594 1601.73 145.718 1601.75 145.853C1601.77 145.988 1601.76 146.127 1601.7 146.253C1601.65 146.378 1601.56 146.486 1601.45 146.561C1601.33 146.636 1601.2 146.676 1601.06 146.676V146.677Z" fill="white"/>
</svg>
