<svg width="94" height="84" viewBox="0 0 94 84" fill="none" xmlns="http://www.w3.org/2000/svg">
<path d="M92.7666 46L84.9443 83H1.2334L9.05566 46H92.7666Z" fill="white" stroke="#FF8743" stroke-width="2"/>
<path d="M81.8824 70.9567C81.8824 71.7098 81.2635 72.3203 80.5 72.3203C79.7366 72.3203 79.1176 71.7098 79.1176 70.9567C79.1176 70.2036 79.7366 69.5931 80.5 69.5931C81.2635 69.5931 81.8824 70.2036 81.8824 70.9567Z" fill="#FFB68C"/>
<path d="M76.2648 74.6364C76.2648 75.3895 75.6459 76 74.8824 76C74.1189 76 73.5 75.3895 73.5 74.6364C73.5 73.8832 74.1189 73.2727 74.8824 73.2727C75.6459 73.2727 76.2648 73.8832 76.2648 74.6364Z" fill="#FFB68C"/>
<path d="M66.0604 78C66.0604 78.7531 65.4415 79.3636 64.678 79.3636C63.9146 79.3636 63.2957 78.7531 63.2957 78C63.2957 77.2469 63.9146 76.6364 64.678 76.6364C65.4415 76.6364 66.0604 77.2469 66.0604 78Z" fill="#FFB68C"/>
<path d="M56.5 78C56.5 78.7531 55.8811 79.3636 55.1176 79.3636C54.3542 79.3636 53.7352 78.7531 53.7352 78C53.7352 77.2469 54.3542 76.6364 55.1176 76.6364C55.8811 76.6364 56.5 77.2469 56.5 78Z" fill="#FFB68C"/>
<path d="M46.2648 78.5C46.2648 79.2531 45.6459 79.8636 44.8824 79.8636C44.1189 79.8636 43.5 79.2531 43.5 78.5C43.5 77.7469 44.1189 77.1364 44.8824 77.1364C45.6459 77.1364 46.2648 77.7469 46.2648 78.5Z" fill="#FFB68C"/>
<path d="M34.7648 78.5C34.7648 79.2531 34.1459 79.8636 33.3824 79.8636C32.6189 79.8636 32 79.2531 32 78.5C32 77.7469 32.6189 77.1364 33.3824 77.1364C34.1459 77.1364 34.7648 77.7469 34.7648 78.5Z" fill="#FFB68C"/>
<path d="M26.0208 76.3636C26.0208 77.1167 25.4019 77.7273 24.6384 77.7273C23.8749 77.7273 23.256 77.1167 23.256 76.3636C23.256 75.6105 23.8749 75 24.6384 75C25.4019 75 26.0208 75.6105 26.0208 76.3636Z" fill="#FFB68C"/>
<path d="M18.2648 77.1364C18.2648 77.8895 17.6459 78.5 16.8824 78.5C16.1189 78.5 15.5 77.8895 15.5 77.1364C15.5 76.3832 16.1189 75.7727 16.8824 75.7727C17.6459 75.7727 18.2648 76.3832 18.2648 77.1364Z" fill="#FFB68C"/>
<path d="M9.3824 76.6364C9.3824 77.3895 8.76348 78 8.00001 78C7.23653 78 6.61761 77.3895 6.61761 76.6364C6.61761 75.8832 7.23653 75.2727 8.00001 75.2727C8.76348 75.2727 9.3824 75.8832 9.3824 76.6364Z" fill="#FFB68C"/>
<path d="M83.2648 62.8636C83.2648 63.6168 82.6459 64.2273 81.8824 64.2273C81.1189 64.2273 80.5 63.6168 80.5 62.8636C80.5 62.1105 81.1189 61.5 81.8824 61.5C82.6459 61.5 83.2648 62.1105 83.2648 62.8636Z" fill="#FFB68C"/>
<path d="M81.8824 78C81.8824 78.7531 81.2635 79.3636 80.5 79.3636C79.7365 79.3636 79.1176 78.7531 79.1176 78C79.1176 77.2469 79.7365 76.6364 80.5 76.6364C81.2635 76.6364 81.8824 77.2469 81.8824 78Z" fill="#FFB68C"/>
<path d="M11.6864 63.38C11.6864 64.1332 11.0675 64.7437 10.304 64.7437C9.54054 64.7437 8.92162 64.1332 8.92162 63.38C8.92162 62.6269 9.54054 62.0164 10.304 62.0164C11.0675 62.0164 11.6864 62.6269 11.6864 63.38Z" fill="#FFB68C"/>
<path d="M13.0688 70.864C13.0688 71.6171 12.4499 72.2277 11.6864 72.2277C10.9229 72.2277 10.304 71.6171 10.304 70.864C10.304 70.1109 10.9229 69.5004 11.6864 69.5004C12.4499 69.5004 13.0688 70.1109 13.0688 70.864Z" fill="#FFB68C"/>
<path d="M78 50.8268C78 51.5799 77.3811 52.1905 76.6176 52.1905C75.8542 52.1905 75.2353 51.5799 75.2353 50.8268C75.2353 50.0737 75.8542 49.4632 76.6176 49.4632C77.3811 49.4632 78 50.0737 78 50.8268Z" fill="#FFB68C"/>
<path d="M86.3824 51.8658C86.3824 52.6189 85.7635 53.2294 85 53.2294C84.2365 53.2294 83.6176 52.6189 83.6176 51.8658C83.6176 51.1127 84.2365 50.5022 85 50.5022C85.7635 50.5022 86.3824 51.1127 86.3824 51.8658Z" fill="#FFB68C"/>
<path d="M81.3824 56.8636C81.3824 57.6168 80.7635 58.2273 80 58.2273C79.2365 58.2273 78.6176 57.6168 78.6176 56.8636C78.6176 56.1105 79.2365 55.5 80 55.5C80.7635 55.5 81.3824 56.1105 81.3824 56.8636Z" fill="#FFB68C"/>
<path d="M15.8336 56.9091C15.8336 57.6622 15.2147 58.2727 14.4512 58.2727C13.6877 58.2727 13.0688 57.6622 13.0688 56.9091C13.0688 56.156 13.6877 55.5454 14.4512 55.5454C15.2147 55.5454 15.8336 56.156 15.8336 56.9091Z" fill="#FFB68C"/>
<path d="M14.4512 51C14.4512 51.7531 13.8323 52.3636 13.0688 52.3636C12.3053 52.3636 11.6864 51.7531 11.6864 51C11.6864 50.2469 12.3053 49.6364 13.0688 49.6364C13.8323 49.6364 14.4512 50.2469 14.4512 51Z" fill="#FFB68C"/>
<path d="M92.7666 46L84.9443 83H1.2334L9.05566 46H92.7666Z" stroke="#FF8743" stroke-width="2"/>
<path d="M40.7784 0L16 67C28 78 66 78 77 67L51.9993 0H40.7784Z" fill="#FF8743"/>
<path d="M39.0241 4.74363L40.7784 0H51.9993L56.0549 10.8687C50.6374 7.16577 45.3821 5.35271 39.0241 4.74363Z" fill="#C7642C" fill-opacity="0.4"/>
<path d="M32.3416 22.8127L35.16 15.1919C46.2342 17.653 54.939 20.4495 61.1192 24.4406L71.5383 52.3631C70.5701 58.1991 68.5259 64.9941 65.3676 72.9583C65.0862 73.0367 64.8022 73.1131 64.5156 73.1875C61.4819 73.975 58.1663 74.537 54.7244 74.8735C66.4973 39.5552 60.5209 27.8295 32.3416 22.8127Z" fill="#C7642C" fill-opacity="0.4"/>
<path d="M16 67L25.6429 40.9258C33.0242 39.7866 43.7525 39.5056 46 44.5C49.9636 53.3081 44.6174 64.8315 36.7948 74.6286C36.3403 74.5712 35.8882 74.5097 35.439 74.4443C27.3223 73.2627 20.125 70.7812 16 67Z" fill="#C7642C" fill-opacity="0.4"/>
<path d="M53.8842 11H38.9725L32.8013 28H60.1107L53.8842 11Z" fill="white"/>
<path d="M63.7734 38H29.1712L23 55H70L63.7734 38Z" fill="white"/>
</svg>
