<svg width="153" height="158" viewBox="0 0 153 158" fill="none" xmlns="http://www.w3.org/2000/svg">
<path d="M20.11 7.86179C28.9153 4.25079 38.1509 6.78869 40.7417 13.5287C43.3325 20.2687 38.2953 28.6596 29.4899 32.2698C20.6845 35.88 11.446 33.3445 8.85513 26.6029C6.26429 19.8613 11.3061 11.472 20.11 7.86179Z" fill="white"/>
<path d="M4.0896 125.205C4.18995 127.053 4.76483 128.855 5.78144 130.509C6.79805 132.163 8.23647 133.636 10.0146 134.844C11.7927 136.051 13.8756 136.971 16.1445 137.549C18.4134 138.127 20.8238 138.352 23.2381 138.212C25.6524 138.072 28.0232 137.57 30.2153 136.733C32.4074 135.897 34.3778 134.743 36.014 133.337C37.6502 131.932 38.9202 130.302 39.7514 128.541C40.5826 126.78 40.9587 124.923 40.8584 123.075C40.758 121.227 40.1832 119.424 39.1665 117.77C38.1499 116.117 36.7115 114.644 34.9334 113.436C33.1553 112.228 31.0724 111.309 28.8035 110.731C26.5346 110.153 24.1242 109.927 21.7099 110.067C19.2956 110.207 16.9247 110.709 14.7326 111.546C12.5405 112.382 10.5702 113.536 8.93396 114.942C7.29776 116.348 6.02781 117.977 5.19662 119.738C4.36542 121.499 3.98926 123.357 4.0896 125.205Z" fill="white"/>
<path d="M121.883 93.6278C129.997 92.4919 137.235 96.6053 138.047 102.812C138.859 109.019 132.946 114.98 124.833 116.115C116.72 117.25 109.481 113.137 108.666 106.93C107.852 100.723 113.77 94.7637 121.883 93.6278Z" fill="white"/>
<path d="M124.694 24.0664C134.519 20.0378 144.826 22.8693 147.714 30.3912C150.602 37.913 144.983 47.2749 135.157 51.3036C125.332 55.3322 115.024 52.4999 112.134 44.9788C109.244 37.4577 114.868 28.0943 124.694 24.0664Z" fill="white"/>
<path d="M53.4527 27.1782H90.714C92.1969 27.1784 93.6192 27.7863 94.6687 28.8684C95.7183 29.9506 96.3093 31.4186 96.3121 32.9503V109.018C96.3121 110.552 95.7223 112.023 94.6724 113.107C93.6226 114.191 92.1987 114.801 90.714 114.801H53.8152C52.3172 114.807 50.8759 114.21 49.7973 113.137C48.7188 112.063 48.088 110.597 48.0392 109.051V32.9904C48.0148 32.2388 48.1366 31.4899 48.3973 30.7878C48.658 30.0858 49.0524 29.4448 49.5571 28.903C50.0618 28.3611 50.6666 27.9292 51.3357 27.633C52.0048 27.3367 52.7247 27.1821 53.4527 27.1782Z" fill="#81F8F8"/>
<path d="M119.926 38.348C123.094 39.0875 126.342 39.3871 129.587 39.239L130.319 37.8817C131.12 37.8448 131.269 37.8527 132.005 37.8527C134.43 35.6654 136.268 32.8689 137.341 29.7334C139.431 32.7251 140.912 36.1232 141.696 39.7225C134.262 44.3344 132.301 44.5919 125.332 48.9957C123.935 45.2425 122.121 41.6694 119.926 38.348Z" fill="#81F8F8"/>
<path d="M34.7167 18.8902C34.0197 16.8768 33.1854 14.917 32.2201 13.0255C31.9689 12.5311 31.5522 12.1479 31.0478 11.9471C30.5433 11.7464 29.9855 11.7419 29.478 11.9343C25.0143 13.6316 20.6545 15.6074 16.4227 17.8509C15.983 18.0842 15.6307 18.4617 15.4211 18.9241C15.2114 19.3866 15.1564 19.9078 15.2645 20.4061C15.7898 22.8367 16.7128 25.157 17.9937 27.267C18.2655 27.7114 18.6765 28.0464 19.1583 28.2159C19.64 28.3854 20.1635 28.3794 20.6415 28.1988C23.6486 27.0673 26.5798 25.7312 29.4157 24.1992L33.1944 25.5337L32.062 22.6951C32.6508 22.3434 33.2266 21.9884 33.7895 21.6299C34.2252 21.3527 34.5552 20.929 34.7241 20.4301C34.8929 19.9312 34.8903 19.3874 34.7167 18.8902Z" fill="#81F8F8"/>
<path d="M28.1891 124.768C27.9193 121.894 27.7415 120.412 27.531 118.789C27.4434 118.113 27.1104 117.496 26.5994 117.064C26.0884 116.631 25.4375 116.415 24.7783 116.46C24.7783 116.46 15.5739 117.106 12.4191 117.361C12.078 117.389 11.7454 117.486 11.4404 117.646C11.1354 117.806 10.8639 118.027 10.6416 118.296C10.4193 118.565 10.2504 118.876 10.1446 119.212C10.0388 119.548 9.99825 119.903 10.0251 120.255C10.2163 122.636 10.6718 124.987 11.3825 127.261C11.5612 127.839 11.924 128.338 12.4119 128.676C12.8998 129.015 13.4841 129.173 14.0699 129.125C14.6368 129.079 15.2086 129.028 15.7852 128.974L16.1986 131.486L17.8319 128.766C20.5899 128.476 23.6983 128.059 26.0026 127.685C26.6584 127.578 27.25 127.217 27.6564 126.675C28.0629 126.133 28.2534 125.45 28.1891 124.768Z" fill="#81F8F8"/>
<path d="M114.717 102.503C114.66 101.752 114.885 101.007 115.345 100.423C115.804 99.8385 116.464 99.4589 117.187 99.3627L128.016 97.8932C128.734 97.7964 129.461 97.9853 130.049 98.4216C130.637 98.858 131.042 99.5091 131.182 100.243C131.535 102.098 131.851 104.141 132.079 106.246C132.157 106.959 131.979 107.678 131.579 108.266C131.18 108.854 130.585 109.27 129.909 109.437C126.157 110.358 122.706 111.018 118.978 111.556C118.282 111.657 117.574 111.489 116.991 111.083C116.408 110.677 115.991 110.063 115.821 109.358C115.272 107.108 114.903 104.815 114.717 102.503Z" fill="#81F8F8"/>
<path d="M122.917 106.488C124.124 106.066 125.168 105.256 125.896 104.176C125.814 103.995 125.709 103.826 125.583 103.673C125.427 103.481 125.343 103.236 125.349 102.985C125.355 102.733 125.449 102.493 125.615 102.308C125.683 102.232 125.756 102.16 125.834 102.093C126.011 101.934 126.243 101.854 126.477 101.871C126.712 101.888 126.93 102 127.084 102.183C127.252 102.386 127.381 102.62 127.464 102.872C127.986 104.455 126.384 106.094 125.936 106.554C124.835 107.688 122.732 108.98 121.43 108.165C121.319 108.095 121.224 108 121.153 107.888C121.081 107.775 121.034 107.648 121.015 107.515C120.997 107.382 121.007 107.246 121.045 107.117C121.083 106.989 121.148 106.87 121.235 106.77C121.358 106.63 121.494 106.502 121.641 106.389C121.832 106.246 122.066 106.177 122.302 106.197C122.538 106.216 122.759 106.323 122.925 106.496L122.917 106.488Z" fill="#FFD997"/>
<path d="M67.7002 28.9319H76.9084C77.1674 28.9319 77.4158 29.0382 77.599 29.2273C77.7821 29.4165 77.885 29.6731 77.885 29.9406C77.885 30.2081 77.7821 30.4647 77.599 30.6539C77.4158 30.8431 77.1674 30.9493 76.9084 30.9493H67.7002C67.4412 30.9493 67.1928 30.8431 67.0097 30.6539C66.8265 30.4647 66.7236 30.2081 66.7236 29.9406C66.7236 29.6731 66.8265 29.4165 67.0097 29.2273C67.1928 29.0382 67.4412 28.9319 67.7002 28.9319Z" fill="black"/>
<path d="M70.7119 110.42C70.7119 110.74 70.773 111.057 70.8917 111.353C71.0104 111.649 71.1844 111.918 71.4038 112.145C71.6231 112.371 71.8835 112.551 72.1701 112.674C72.4566 112.796 72.7638 112.859 73.074 112.859C73.3842 112.859 73.6913 112.796 73.9779 112.674C74.2645 112.551 74.5249 112.371 74.7442 112.145C74.9636 111.918 75.1376 111.649 75.2563 111.353C75.375 111.057 75.4361 110.74 75.4361 110.42C75.4361 110.099 75.375 109.782 75.2563 109.486C75.1376 109.19 74.9636 108.921 74.7442 108.694C74.5249 108.468 74.2645 108.288 73.9779 108.165C73.6913 108.043 73.3842 107.98 73.074 107.98C72.7638 107.98 72.4566 108.043 72.1701 108.165C71.8835 108.288 71.6231 108.468 71.4038 108.694C71.1844 108.921 71.0104 109.19 70.8917 109.486C70.773 109.782 70.7119 110.099 70.7119 110.42Z" fill="black"/>
<path d="M56.585 44.7818C56.585 46.6624 57.3082 48.466 58.5957 49.7959C59.8831 51.1257 61.6293 51.8727 63.45 51.8727C65.2708 51.8727 67.0169 51.1257 68.3044 49.7959C69.5918 48.466 70.3151 46.6624 70.3151 44.7818C70.3151 42.9012 69.5918 41.0976 68.3044 39.7678C67.0169 38.438 65.2708 37.6909 63.45 37.6909C61.6293 37.6909 59.8831 38.438 58.5957 39.7678C57.3082 41.0976 56.585 42.9012 56.585 44.7818Z" fill="white"/>
<path d="M56.585 68.7054C56.585 70.586 57.3082 72.3896 58.5957 73.7194C59.8831 75.0492 61.6293 75.7963 63.45 75.7963C65.2708 75.7963 67.0169 75.0492 68.3044 73.7194C69.5918 72.3896 70.3151 70.586 70.3151 68.7054C70.3151 66.8248 69.5918 65.0212 68.3044 63.6914C67.0169 62.3616 65.2708 61.6145 63.45 61.6145C61.6293 61.6145 59.8831 62.3616 58.5957 63.6914C57.3082 65.0212 56.585 66.8248 56.585 68.7054Z" fill="white"/>
<path d="M56.6138 94.451C56.4616 92.7265 56.9261 91.004 57.9197 89.6092C58.9133 88.2143 60.3671 87.2437 62.0064 86.8806C63.6457 86.5175 65.357 86.7872 66.8169 87.6387C68.2768 88.4901 69.3843 89.8644 69.93 91.5018C70.4757 93.1392 70.4218 94.9264 69.7787 96.5256C69.1355 98.1248 67.9475 99.4254 66.4392 100.181C64.9309 100.938 63.2067 101.097 61.5924 100.629C59.9781 100.162 58.5855 99.0996 57.6778 97.6436L56.6138 94.451Z" fill="white"/>
<path d="M71.7328 150.753C83.3764 152.594 95.2849 150.534 105.712 144.875C104.116 137.235 102.39 125.95 102.951 118.118C103.249 114.611 103.864 111.14 104.788 107.751C105.889 103.267 106.054 103.857 106.784 100.621C107.608 96.9733 108.403 93.4589 107.979 88.9443C107.707 86.1627 107.038 83.4379 105.993 80.8588C105.466 79.3435 104.646 77.9547 103.584 76.7768C102.683 75.8244 101.619 75.0525 100.446 74.5003C96.106 73.6054 94.3344 70.5172 90.9182 67.0232C89.8034 65.7546 88.4311 64.7559 86.8994 64.0983C86.3221 63.797 85.6623 63.7089 85.0298 63.8487C83.5561 64.2828 83.0279 66.3206 82.9018 66.7979C82.6265 68.1375 82.7087 69.5291 83.1396 70.8242C83.7045 72.716 84.5659 74.4994 85.6894 76.1033C86.7496 77.8259 87.9619 79.4433 89.3108 80.935C90.1363 81.9542 91.1181 82.8267 92.2171 83.5176C93.3897 84.1682 94.6933 84.5268 96.0239 84.5648L96.4799 85.5712C89.8877 97.4639 89.0608 98.4931 88.2522 101.786C87.7936 103.59 87.6199 105.457 87.7376 107.318C87.9322 109.952 88.7343 112.5 90.0769 114.749H56.7661C57.1105 116.957 57.961 119.049 59.2467 120.849C60.5323 122.649 62.2159 124.106 64.1571 125.098L71.7328 150.753Z" fill="#FFD997"/>
<path d="M47.9749 68.0515C45.0781 64.1778 42.4238 60.1168 40.0284 55.8934C37.0872 50.6928 36.5483 48.7782 36.7269 46.8337C36.7984 46.0487 36.939 44.7032 37.9194 43.9771C39.1916 43.0351 41.027 43.773 41.4009 43.9206C42.5181 44.361 43.0821 45.0581 44.4941 46.7168C45.1622 47.5018 46.3531 48.8951 47.9749 50.7674V68.0515Z" fill="#FFD997"/>
<path d="M47.9754 68.7078C47.5201 68.8376 47.0951 69.0614 46.7259 69.3656C46.1164 69.9211 45.6769 70.6481 45.4613 71.4576C44.9041 72.7799 44.5572 74.1864 44.4338 75.6228C44.35 78.1907 45.0772 80.717 46.5055 82.8205C45.4694 84.1418 44.8156 85.7384 44.6195 87.4266C44.4233 89.1148 44.6927 90.8259 45.3967 92.363C44.5086 93.6594 43.9864 95.185 43.8881 96.7699C43.7064 99.789 45.2667 101.939 46.2912 103.364C47.834 105.505 51.3292 109.149 53.5028 108.121C54.0049 107.801 54.4207 107.355 54.7118 106.824C55.0028 106.294 55.1597 105.697 55.168 105.087C55.2049 104.218 54.9681 103.36 54.4931 102.641C55.1664 102.534 55.7994 102.242 56.3255 101.796C56.7668 101.372 57.1188 100.859 57.3596 100.289C57.6003 99.7188 57.7246 99.1034 57.7246 98.4812C57.7595 97.5167 57.5934 96.5556 57.2375 95.6631C56.756 94.3489 56.0857 93.1171 55.2493 92.0089C54.6109 91.0622 54.0158 90.3015 53.5598 89.7481C53.7369 89.7921 55.6666 90.2576 56.8734 89.0134C57.4757 88.3061 57.7834 87.382 57.73 86.4417C57.7497 85.5217 57.5324 84.5514 55.906 81.6603C55.228 80.4537 55.1954 80.4914 54.2469 78.8821C53.1973 77.101 51.346 73.8581 50.4074 71.9741C50.342 71.8431 50.1414 71.4867 49.7446 70.7762C49.3811 69.9111 48.7618 69.187 47.9754 68.7078Z" fill="#FFD997"/>
<path d="M60.9316 42.1529C60.9316 42.8416 61.1965 43.5021 61.668 43.9891C62.1395 44.4761 62.7789 44.7497 63.4457 44.7497C64.1125 44.7497 64.752 44.4761 65.2234 43.9891C65.6949 43.5021 65.9598 42.8416 65.9598 42.1529C65.9598 41.4642 65.6949 40.8037 65.2234 40.3167C64.752 39.8297 64.1125 39.5562 63.4457 39.5562C62.7789 39.5562 62.1395 39.8297 61.668 40.3167C61.1965 40.8037 60.9316 41.4642 60.9316 42.1529Z" fill="black"/>
<path d="M61.019 66.499C61.019 67.2027 61.2897 67.8776 61.7714 68.3752C62.2532 68.8728 62.9066 69.1523 63.5878 69.1523C64.2691 69.1523 64.9225 68.8728 65.4043 68.3752C65.886 67.8776 66.1566 67.2027 66.1566 66.499C66.1566 65.7953 65.886 65.1204 65.4043 64.6228C64.9225 64.1252 64.2691 63.8457 63.5878 63.8457C62.9066 63.8457 62.2532 64.1252 61.7714 64.6228C61.2897 65.1204 61.019 65.7953 61.019 66.499Z" fill="black"/>
<path d="M61.124 91.2318C61.124 91.9205 61.3889 92.581 61.8604 93.068C62.3319 93.555 62.9713 93.8286 63.6381 93.8286C64.3049 93.8286 64.9443 93.555 65.4158 93.068C65.8873 92.581 66.1522 91.9205 66.1522 91.2318C66.1522 90.5431 65.8873 89.8826 65.4158 89.3956C64.9443 88.9086 64.3049 88.635 63.6381 88.635C62.9713 88.635 62.3319 88.9086 61.8604 89.3956C61.3889 89.8826 61.124 90.5431 61.124 91.2318Z" fill="black"/>
<path d="M19.645 21.9681C19.645 22.3029 19.7738 22.6239 20.003 22.8607C20.2321 23.0974 20.543 23.2304 20.8671 23.2304C21.1912 23.2304 21.5021 23.0974 21.7312 22.8607C21.9604 22.6239 22.0892 22.3029 22.0892 21.9681C22.0892 21.6333 21.9604 21.3122 21.7312 21.0755C21.5021 20.8388 21.1912 20.7058 20.8671 20.7058C20.543 20.7058 20.2321 20.8388 20.003 21.0755C19.7738 21.3122 19.645 21.6333 19.645 21.9681Z" fill="#FFD997"/>
<path d="M23.5762 20.0677C23.5762 20.4025 23.7049 20.7235 23.9341 20.9603C24.1633 21.197 24.4741 21.33 24.7983 21.33C25.1224 21.33 25.4332 21.197 25.6624 20.9603C25.8916 20.7235 26.0203 20.4025 26.0203 20.0677C26.0203 19.7329 25.8916 19.4119 25.6624 19.1751C25.4332 18.9384 25.1224 18.8054 24.7983 18.8054C24.4741 18.8054 24.1633 18.9384 23.9341 19.1751C23.7049 19.4119 23.5762 19.7329 23.5762 20.0677Z" fill="#FFD997"/>
<path d="M27.8892 18.1671C27.8892 18.5018 28.0179 18.8229 28.2471 19.0596C28.4763 19.2964 28.7871 19.4293 29.1112 19.4293C29.4354 19.4293 29.7462 19.2964 29.9754 19.0596C30.2046 18.8229 30.3333 18.5018 30.3333 18.1671C30.3333 17.8323 30.2046 17.5112 29.9754 17.2745C29.7462 17.0378 29.4354 16.9048 29.1112 16.9048C28.7871 16.9048 28.4763 17.0378 28.2471 17.2745C28.0179 17.5112 27.8892 17.8323 27.8892 18.1671Z" fill="#FFD997"/>
<path d="M13.2705 122.854C13.2705 123.195 13.4017 123.522 13.6353 123.764C13.869 124.005 14.1858 124.141 14.5161 124.141C14.8465 124.141 15.1633 124.005 15.3969 123.764C15.6306 123.522 15.7618 123.195 15.7618 122.854C15.7618 122.513 15.6306 122.186 15.3969 121.944C15.1633 121.703 14.8465 121.567 14.5161 121.567C14.1858 121.567 13.869 121.703 13.6353 121.944C13.4017 122.186 13.2705 122.513 13.2705 122.854Z" fill="#FFD997"/>
<path d="M17.8647 122.585C17.8647 122.754 17.897 122.922 17.9596 123.078C18.0222 123.234 18.1139 123.376 18.2296 123.495C18.3453 123.615 18.4826 123.709 18.6337 123.774C18.7848 123.839 18.9468 123.872 19.1104 123.872C19.274 123.872 19.4359 123.839 19.5871 123.774C19.7382 123.709 19.8755 123.615 19.9912 123.495C20.1069 123.376 20.1986 123.234 20.2612 123.078C20.3238 122.922 20.356 122.754 20.356 122.585C20.356 122.416 20.3238 122.249 20.2612 122.093C20.1986 121.937 20.1069 121.795 19.9912 121.676C19.8755 121.556 19.7382 121.461 19.5871 121.397C19.4359 121.332 19.274 121.299 19.1104 121.299C18.9468 121.299 18.7848 121.332 18.6337 121.397C18.4826 121.461 18.3453 121.556 18.2296 121.676C18.1139 121.795 18.0222 121.937 17.9596 122.093C17.897 122.249 17.8647 122.416 17.8647 122.585Z" fill="#FFD997"/>
<path d="M22.4575 122.181C22.4575 122.522 22.5888 122.85 22.8224 123.091C23.056 123.332 23.3728 123.468 23.7032 123.468C24.0335 123.468 24.3504 123.332 24.584 123.091C24.8176 122.85 24.9488 122.522 24.9488 122.181C24.9488 121.84 24.8176 121.513 24.584 121.271C24.3504 121.03 24.0335 120.895 23.7032 120.895C23.3728 120.895 23.056 121.03 22.8224 121.271C22.5888 121.513 22.4575 121.84 22.4575 122.181Z" fill="#FFD997"/>
<path d="M119.926 38.3479C122.628 34.9072 124.969 31.1807 126.911 27.2307C130.25 28.5887 133.764 29.4319 137.341 29.7333C136.269 32.8704 134.431 35.6685 132.005 37.8565L130.319 37.8855L129.587 39.2428C126.342 39.382 123.095 39.0811 119.926 38.3479Z" fill="#FFD997"/>
<path d="M142.066 39.6361C141.282 36.0067 139.795 32.5791 137.692 29.5606C137.653 29.4894 137.597 29.4305 137.528 29.3903C137.459 29.35 137.381 29.3299 137.302 29.3322C133.777 29.0217 130.315 28.1807 127.025 26.8359C126.936 26.7994 126.837 26.7992 126.748 26.8351C126.658 26.8711 126.585 26.9406 126.543 27.0298C124.692 30.9594 122.396 34.6485 119.703 38.0198C119.593 38.1595 119.453 38.3251 119.613 38.5693C123.617 44.6295 124.776 49.0019 125.08 49.2869C125.15 49.3465 125.237 49.3807 125.327 49.384C125.417 49.3872 125.506 49.3594 125.579 49.3049C132.943 44.6954 134.301 44.7684 141.849 40.0851C141.933 40.0512 142.001 39.9866 142.041 39.9036C142.081 39.8207 142.09 39.7254 142.066 39.6361ZM125.326 47.9453C124.083 44.7893 122.545 41.7659 120.734 38.9178C123.44 39.491 126.2 39.7381 128.961 39.6542C127.563 42.3265 126.348 45.0971 125.326 47.9453ZM129.381 38.8566C126.623 38.9655 123.862 38.7461 121.153 38.2027C124.092 36.8125 134.494 31.6464 136.625 30.5403C135.563 33.192 133.93 35.5595 131.852 37.464C131.337 37.4609 130.821 37.4719 130.304 37.497C130.24 37.5001 130.178 37.5198 130.124 37.5543C130.069 37.5887 130.024 37.6368 129.992 37.694C129.778 38.0724 129.587 38.468 129.381 38.8542V38.8566ZM137.437 30.5639C139.157 33.1654 140.418 36.0606 141.161 39.1156C138.511 38.1644 135.741 37.6183 132.938 37.4946C134.898 35.5413 136.431 33.1773 137.434 30.5615L137.437 30.5639ZM127.077 27.701C129.959 28.8398 132.967 29.602 136.031 29.9696C133.984 31.0309 124.045 35.9662 121.233 37.2992C123.489 34.311 125.446 31.0944 127.074 27.6986L127.077 27.701ZM126.095 48.0631C127.325 44.6811 128.814 41.4059 130.549 38.2686C134.028 38.1226 137.504 38.6468 140.798 39.8143C133.928 44.0203 132.636 44.0447 126.095 48.0631Z" fill="black"/>
<path d="M17.6725 27.4756C16.3689 25.3267 15.4292 22.9641 14.894 20.4891C14.7672 19.906 14.8316 19.2959 15.077 18.7547C15.3224 18.2135 15.735 17.7718 16.2498 17.4991C20.4952 15.2484 24.8689 13.266 29.3469 11.5629C29.9412 11.3402 30.5935 11.3469 31.1834 11.5818C31.7734 11.8166 32.2612 12.2638 32.5571 12.8409C33.5302 14.7483 34.3716 16.7244 35.075 18.7543C35.2743 19.336 35.2754 19.9705 35.078 20.5529C34.8807 21.1354 34.4967 21.6307 33.9897 21.9571C33.5155 22.2596 33.0324 22.5592 32.5404 22.8559L33.5467 25.3773C33.5748 25.4471 33.5828 25.5239 33.5697 25.5983C33.5566 25.6727 33.523 25.7416 33.4729 25.7967C33.4228 25.8519 33.3584 25.8909 33.2873 25.9091C33.2163 25.9273 33.1417 25.9239 33.0724 25.8994L29.4472 24.6222C26.6432 26.1314 23.7462 27.4486 20.7749 28.5652C20.2148 28.7747 19.6025 28.7809 19.0386 28.5828C18.4747 28.3848 17.9929 27.9943 17.6725 27.4756ZM29.6099 12.3063C25.1609 13.9981 20.8155 15.9676 16.5979 18.204C16.2327 18.3971 15.9401 18.7101 15.766 19.0938C15.592 19.4775 15.5464 19.9101 15.6365 20.3235C16.153 22.7106 17.0595 24.9893 18.317 27.0619C18.5435 27.43 18.8847 27.7071 19.2844 27.8476C19.6841 27.9881 20.1182 27.9834 20.5149 27.8344C23.5061 26.71 26.4211 25.3804 29.2405 23.8544C29.2861 23.8298 29.3362 23.815 29.3875 23.811C29.4388 23.8069 29.4905 23.8137 29.5392 23.8309L32.5252 24.8828L31.712 22.8418C31.6774 22.7542 31.6745 22.6567 31.704 22.5671C31.7335 22.4775 31.7933 22.402 31.8724 22.3543C32.4586 22.0042 33.0311 21.6509 33.59 21.2946C33.9489 21.0632 34.2208 20.7124 34.3608 20.2999C34.5007 19.8875 34.5004 19.4381 34.3599 19.0259C33.6679 17.0304 32.8407 15.0877 31.8845 13.2122C31.6751 12.803 31.3295 12.4859 30.9114 12.3194C30.4933 12.1529 30.031 12.1482 29.6099 12.3063Z" fill="black"/>
<path d="M32.9767 120.057C32.9113 119.727 32.7312 119.434 32.4704 119.232C32.2096 119.03 31.8863 118.934 31.5616 118.962L27.9729 119.267C27.9508 119.092 27.9303 118.911 27.9075 118.737C27.8081 117.962 27.4269 117.254 26.8414 116.759C26.2558 116.263 25.5097 116.016 24.7543 116.068C24.7543 116.068 15.5507 116.712 12.3898 116.971C11.9983 117.002 11.6167 117.113 11.2668 117.297C10.9168 117.481 10.6055 117.734 10.3507 118.043C10.0959 118.351 9.90252 118.709 9.78177 119.095C9.66101 119.481 9.61521 119.888 9.647 120.292C9.84175 122.701 10.3025 125.079 11.0203 127.38C11.2231 128.044 11.6386 128.617 12.1984 129.005C12.7583 129.394 13.4293 129.574 14.1014 129.516C14.5543 129.479 15.0103 129.439 15.4694 129.397L15.8228 131.554C15.8356 131.633 15.8714 131.706 15.9253 131.763C15.9791 131.82 16.0486 131.859 16.1243 131.874C16.2001 131.889 16.2786 131.88 16.3493 131.849C16.4201 131.817 16.4798 131.763 16.5204 131.696L18.0556 129.14C18.5192 129.09 18.9988 129.026 19.4677 128.971L19.8059 130.998C19.8649 131.345 20.0501 131.655 20.3234 131.865C20.5967 132.075 20.9374 132.169 21.2758 132.128C24.0809 131.769 26.6968 131.331 29.597 130.696L31.1641 132.023C31.2177 132.068 31.283 132.096 31.3518 132.103C31.4206 132.11 31.4898 132.095 31.5509 132.062C31.6119 132.028 31.662 131.977 31.6948 131.914C31.7277 131.851 31.7419 131.78 31.7356 131.709L31.6125 130.233L32.9805 129.983C33.3027 129.925 33.5926 129.745 33.795 129.48C33.9974 129.214 34.0981 128.881 34.078 128.544C33.9023 125.692 33.5344 122.856 32.9767 120.057ZM17.7934 128.378C17.7356 128.384 17.6799 128.404 17.6306 128.436C17.5814 128.468 17.5398 128.511 17.5092 128.562L16.4057 130.4L16.1602 128.909C16.1451 128.818 16.0994 128.735 16.031 128.675C15.9625 128.615 15.8759 128.582 15.7863 128.582C15.6867 128.582 15.898 128.582 14.0383 128.735C13.5372 128.778 13.0369 128.644 12.6196 128.354C12.2023 128.064 11.893 127.636 11.7423 127.141C11.0408 124.895 10.5912 122.574 10.4024 120.222C10.3796 119.921 10.4144 119.619 10.5048 119.332C10.5953 119.045 10.7396 118.779 10.9296 118.55C11.1195 118.32 11.3513 118.132 11.6118 117.995C11.8723 117.859 12.1563 117.776 12.4476 117.753C15.6046 117.496 24.8014 116.852 24.8014 116.852C25.3632 116.82 25.9164 117.006 26.3516 117.374C26.7869 117.743 27.0725 118.267 27.1521 118.842C27.3634 120.465 27.5541 122.095 27.8095 124.808C27.8638 125.391 27.7009 125.973 27.3541 126.436C27.0074 126.899 26.5027 127.209 25.9429 127.301C23.343 127.712 20.458 128.098 17.7934 128.378Z" fill="black"/>
<path d="M115.452 109.455C114.896 107.185 114.524 104.871 114.338 102.537C114.273 101.686 114.527 100.841 115.049 100.178C115.57 99.5149 116.318 99.0842 117.138 98.975L127.966 97.5055C128.779 97.4009 129.601 97.6172 130.266 98.111C130.931 98.6048 131.391 99.3398 131.554 100.169C131.928 102.143 132.244 104.216 132.456 106.205C132.544 107.014 132.342 107.828 131.889 108.494C131.436 109.16 130.763 109.632 129.996 109.821C126.247 110.741 122.668 111.426 119.03 111.941C118.241 112.056 117.44 111.865 116.779 111.406C116.118 110.947 115.646 110.252 115.452 109.455ZM115.096 102.474C115.279 104.765 115.644 107.037 116.189 109.266C116.338 109.876 116.7 110.407 117.205 110.758C117.71 111.109 118.323 111.255 118.925 111.167C122.649 110.636 126.175 109.952 129.822 109.058C130.408 108.913 130.922 108.552 131.268 108.043C131.614 107.534 131.768 106.911 131.701 106.293C131.493 104.338 131.182 102.289 130.809 100.32C130.687 99.6844 130.335 99.1208 129.826 98.743C129.316 98.3652 128.687 98.2015 128.065 98.285L117.238 99.7553C116.611 99.8378 116.039 100.166 115.64 100.672C115.242 101.178 115.047 101.823 115.096 102.474Z" fill="black"/>
<path d="M121.687 105.147C121.633 105.147 121.579 105.136 121.529 105.113C121.48 105.09 121.435 105.057 121.399 105.015C121.363 104.973 121.336 104.923 121.321 104.87C121.305 104.816 121.3 104.76 121.307 104.704C121.384 104.079 121.623 103.486 121.999 102.989C122.374 102.492 122.872 102.108 123.44 101.878C123.487 101.859 123.536 101.85 123.586 101.85C123.636 101.851 123.686 101.862 123.732 101.883C123.778 101.903 123.819 101.933 123.854 101.97C123.888 102.008 123.916 102.051 123.934 102.1C123.952 102.148 123.961 102.199 123.96 102.251C123.959 102.302 123.948 102.353 123.928 102.401C123.908 102.448 123.879 102.491 123.843 102.526C123.807 102.562 123.764 102.59 123.718 102.609C123.276 102.788 122.889 103.087 122.598 103.473C122.306 103.86 122.121 104.321 122.062 104.807C122.049 104.901 122.005 104.987 121.936 105.049C121.867 105.112 121.778 105.146 121.687 105.147Z" fill="black"/>
<path d="M119.528 105.743H119.509C119.459 105.741 119.41 105.728 119.365 105.706C119.32 105.684 119.279 105.653 119.246 105.615C119.212 105.577 119.186 105.532 119.17 105.483C119.153 105.435 119.145 105.383 119.148 105.332C119.201 104.126 119.598 102.963 120.289 101.989C120.98 101.015 121.934 100.273 123.032 99.8573C123.078 99.8396 123.128 99.8315 123.178 99.8336C123.228 99.8357 123.277 99.8479 123.322 99.8695C123.368 99.8912 123.408 99.9218 123.442 99.9598C123.476 99.9977 123.502 100.042 123.519 100.09C123.537 100.139 123.544 100.19 123.542 100.242C123.54 100.293 123.529 100.344 123.508 100.391C123.487 100.438 123.457 100.48 123.42 100.515C123.384 100.55 123.341 100.577 123.294 100.594C122.336 100.957 121.503 101.603 120.901 102.453C120.298 103.303 119.952 104.318 119.907 105.37C119.902 105.471 119.86 105.566 119.79 105.635C119.719 105.704 119.625 105.743 119.528 105.743Z" fill="black"/>
<path d="M23.5296 63.6038C23.4358 63.6044 23.345 63.5691 23.2749 63.5048C23.2047 63.4404 23.1601 63.3515 23.1496 63.2552L22.8182 60.1725C22.8071 60.069 22.8363 59.9653 22.8993 59.884C22.9623 59.8027 23.054 59.7507 23.1541 59.7392C23.2543 59.7277 23.3548 59.7579 23.4335 59.8229C23.5122 59.888 23.5626 59.9827 23.5737 60.0862L23.905 63.1673C23.911 63.222 23.9058 63.2774 23.8896 63.3299C23.8735 63.3824 23.8469 63.4308 23.8115 63.472C23.7761 63.5131 23.7327 63.5461 23.6841 63.5688C23.6355 63.5915 23.5829 63.6034 23.5296 63.6038Z" fill="black"/>
<path d="M24.5179 70.6821C24.4288 70.6818 24.3426 70.6492 24.2744 70.5899C24.2061 70.5307 24.1603 70.4485 24.1448 70.3579L23.4547 66.3316C23.4437 66.2799 23.4429 66.2264 23.4524 66.1744C23.4619 66.1223 23.4815 66.0728 23.5101 66.0288C23.5386 65.9848 23.5754 65.9473 23.6184 65.9184C23.6613 65.8895 23.7095 65.8698 23.76 65.8607C23.8105 65.8515 23.8623 65.853 23.9122 65.865C23.9621 65.877 24.0092 65.8994 24.0505 65.9307C24.0918 65.962 24.1266 66.0016 24.1527 66.0472C24.1789 66.0928 24.1958 66.1433 24.2025 66.1958L24.8926 70.2221C24.9021 70.2785 24.8996 70.3364 24.8852 70.3917C24.8707 70.447 24.8448 70.4984 24.809 70.5423C24.7733 70.5861 24.7288 70.6213 24.6785 70.6455C24.6282 70.6696 24.5734 70.6821 24.5179 70.6821Z" fill="black"/>
<path d="M19.9352 66.4846C19.8451 66.485 19.7578 66.4523 19.6889 66.3923C19.62 66.3324 19.574 66.2491 19.559 66.1574C19.544 66.0656 19.5611 65.9713 19.6072 65.8914C19.6532 65.8114 19.7253 65.751 19.8105 65.7208L22.3444 64.8094C22.4396 64.7752 22.5441 64.7814 22.6349 64.8268C22.7257 64.8721 22.7953 64.9528 22.8285 65.0512C22.8617 65.1496 22.8556 65.2575 22.8117 65.3513C22.7678 65.4451 22.6897 65.517 22.5944 65.5513C21.7287 65.9222 20.8404 66.234 19.9352 66.4846Z" fill="black"/>
<path d="M25.1294 64.7154C25.0376 64.7155 24.949 64.6813 24.8797 64.6191C24.8105 64.5569 24.7654 64.471 24.7527 64.3772C24.74 64.2833 24.7606 64.1879 24.8107 64.1085C24.8608 64.0291 24.937 63.9712 25.0253 63.9453L28.8921 62.8055C28.9407 62.7891 28.992 62.783 29.0429 62.7876C29.0938 62.7922 29.1433 62.8073 29.1884 62.8321C29.2335 62.8569 29.2734 62.8908 29.3055 62.9319C29.3376 62.9729 29.3614 63.0203 29.3754 63.071C29.3894 63.1218 29.3934 63.1749 29.387 63.2273C29.3807 63.2797 29.3642 63.3302 29.3385 63.3758C29.3128 63.4215 29.2785 63.4613 29.2376 63.4929C29.1967 63.5245 29.15 63.5473 29.1004 63.5599C24.9037 64.7923 25.2107 64.7154 25.1294 64.7154Z" fill="black"/>
<path d="M28.2829 59.4566C27.5881 59.4251 26.9339 59.1103 26.4634 58.5814C26.197 58.2774 25.9941 57.92 25.8674 57.5314C25.7407 57.1428 25.6929 56.7314 25.727 56.3229C25.9421 53.7717 29.1364 54.6108 29.8226 56.5215C30.303 57.8733 29.6858 59.4566 28.2829 59.4566ZM26.8024 55.6423C26.357 55.983 26.3152 57.2806 27.0167 58.0429C27.3906 58.4558 28.1978 58.8969 28.7503 58.5405C28.9778 58.3236 29.1345 58.0391 29.1989 57.7263C29.2633 57.4135 29.2321 57.0877 29.1098 56.7939C28.7351 55.7514 27.3177 55.2459 26.8024 55.6423Z" fill="black"/>
<path d="M116.428 17.0555C115.963 17.0587 115.516 16.8724 115.183 16.5371C114.85 16.2018 114.658 15.7444 114.65 15.2642C114.615 14.8865 114.655 14.5056 114.766 14.1442C114.878 13.7828 115.059 13.4484 115.299 13.1611C116.195 12.1336 118.003 11.9279 118.824 12.95C119.09 13.3674 119.224 13.8598 119.209 14.3594C119.193 14.859 119.028 15.3413 118.736 15.7399C118.475 16.1281 118.132 16.4489 117.731 16.6772C117.331 16.9054 116.885 17.0349 116.428 17.0555ZM115.829 16.0813C116.477 16.5806 117.636 16.0217 118.109 15.3026C118.305 15.0415 118.422 14.7267 118.446 14.3975C118.469 14.0682 118.399 13.7391 118.243 13.4508C117.779 12.8762 116.529 12.9311 115.867 13.6863C115.288 14.3473 115.211 15.6033 115.829 16.0813Z" fill="black"/>
<path d="M137.107 127.64C135.539 127.64 134.94 125.618 135.716 124.247C136.34 123.148 137.896 122.56 138.868 123.301C139.257 123.678 139.505 124.185 139.569 124.732C139.633 125.28 139.509 125.833 139.219 126.295C139.003 126.683 138.697 127.009 138.328 127.244C137.959 127.479 137.54 127.615 137.107 127.64ZM136.694 126.753C137.294 127.085 138.192 126.568 138.561 125.904C138.749 125.604 138.837 125.249 138.811 124.893C138.785 124.536 138.647 124.199 138.418 123.932C137.833 123.488 136.775 123.932 136.372 124.644C135.998 125.303 136.067 126.407 136.694 126.753Z" fill="black"/>
<path d="M129.17 138.819C129.111 138.819 129.052 138.804 128.999 138.777C128.947 138.749 128.901 138.709 128.865 138.66C128.83 138.611 128.806 138.554 128.796 138.494C128.786 138.434 128.79 138.372 128.807 138.313L130.962 130.925C130.984 130.851 131.026 130.786 131.083 130.737C131.14 130.688 131.21 130.658 131.284 130.65C131.358 130.641 131.432 130.655 131.498 130.69C131.565 130.725 131.619 130.779 131.656 130.846L135.412 137.637C135.443 137.694 135.461 137.758 135.462 137.824C135.463 137.889 135.449 137.954 135.419 138.012C135.39 138.071 135.347 138.12 135.295 138.157C135.242 138.194 135.182 138.217 135.118 138.223C128.35 138.906 129.252 138.819 129.17 138.819ZM131.435 132.025L129.698 137.979L134.461 137.497L131.435 132.025Z" fill="black"/>
<path d="M45.6193 75.8342C45.5676 75.8343 45.5165 75.8235 45.469 75.8024C45.4215 75.7814 45.3787 75.7506 45.3431 75.7118C45.3075 75.6731 45.28 75.6273 45.2621 75.5772C45.2443 75.5271 45.2365 75.4738 45.2393 75.4205C45.2659 74.6887 45.5274 73.9868 45.9825 73.4254C46.4377 72.8639 47.0606 72.4747 47.7534 72.319C47.8523 72.2981 47.9551 72.3187 48.0393 72.3762C48.1234 72.4337 48.182 72.5234 48.2022 72.6255C48.2223 72.7276 48.2024 72.8338 48.1467 72.9208C48.0911 73.0077 48.0043 73.0682 47.9054 73.089C47.3776 73.2101 46.9038 73.5091 46.5586 73.9389C46.2134 74.3686 46.0164 74.9048 45.9986 75.4629C45.9933 75.5631 45.9511 75.6575 45.8805 75.7265C45.81 75.7956 45.7165 75.8341 45.6193 75.8342Z" fill="black"/>
<path d="M45.202 89.3048C45.1776 88.646 45.2908 87.9895 45.5339 87.3799C45.777 86.7704 46.1444 86.2221 46.611 85.7723C46.6849 85.7013 46.7831 85.6635 46.8839 85.6672C46.9847 85.671 47.08 85.716 47.1487 85.7923C47.2175 85.8686 47.254 85.97 47.2504 86.0741C47.2468 86.1783 47.2032 86.2767 47.1293 86.3477C46.7419 86.7208 46.437 87.1759 46.2354 87.6819C46.0338 88.1879 45.9403 88.7329 45.9612 89.2796C45.963 89.3312 45.9549 89.3826 45.9374 89.4309C45.9199 89.4792 45.8934 89.5235 45.8593 89.5612C45.8253 89.5989 45.7844 89.6294 45.7389 89.6507C45.6935 89.6721 45.6444 89.6841 45.5945 89.6859C45.5446 89.6877 45.4949 89.6793 45.4481 89.6613C45.4013 89.6432 45.3585 89.6158 45.3219 89.5806C45.2854 89.5455 45.256 89.5032 45.2352 89.4563C45.2145 89.4093 45.203 89.3587 45.2012 89.3071L45.202 89.3048Z" fill="black"/>
<path d="M88.2286 102.238H56.3717C56.2709 102.238 56.1743 102.197 56.103 102.123C56.0317 102.05 55.9917 101.95 55.9917 101.846C55.9917 101.742 56.0317 101.642 56.103 101.568C56.1743 101.495 56.2709 101.453 56.3717 101.453H88.2286C88.3294 101.453 88.4261 101.495 88.4973 101.568C88.5686 101.642 88.6086 101.742 88.6086 101.846C88.6086 101.95 88.5686 102.05 88.4973 102.123C88.4261 102.197 88.3294 102.238 88.2286 102.238Z" fill="black"/>
<path d="M86.6204 53.2833H58.2511C57.2863 53.2818 56.3615 52.8851 55.6796 52.1801C54.9977 51.4752 54.6144 50.5196 54.6138 49.5231V40.0403C54.615 39.0439 54.9987 38.0886 55.6809 37.384C56.3631 36.6794 57.2879 36.283 58.2527 36.2817H86.6219C87.5861 36.2838 88.5102 36.6806 89.1917 37.3851C89.8732 38.0896 90.2566 39.0444 90.2578 40.0403V49.5231C90.2572 50.5196 89.8738 51.4752 89.1919 52.1801C88.51 52.8851 87.5852 53.2818 86.6204 53.2833ZM58.2511 37.0667C57.4881 37.068 56.7567 37.3817 56.2173 37.9392C55.6779 38.4966 55.3746 39.2522 55.3738 40.0403V49.5231C55.3742 50.3115 55.6774 51.0675 56.2168 51.6253C56.7562 52.1831 57.4879 52.497 58.2511 52.4983H86.6204C87.3837 52.497 88.1153 52.1831 88.6547 51.6253C89.1942 51.0675 89.4974 50.3115 89.4978 49.5231V40.0403C89.497 39.2519 89.1934 38.4961 88.6537 37.9386C88.114 37.3811 87.3822 37.0676 86.6189 37.0667H58.2511Z" fill="black"/>
<path d="M86.188 77.2071H58.2535C57.2885 77.2052 56.3635 76.8085 55.681 76.1038C54.9986 75.399 54.6143 74.4437 54.6123 73.4469V63.9665C54.6141 62.9696 54.9983 62.0141 55.6808 61.3092C56.3632 60.6043 57.2883 60.2074 58.2535 60.2056H86.6182C87.5833 60.2074 88.5084 60.6043 89.1909 61.3092C89.8733 62.0141 90.2575 62.9696 90.2593 63.9665V66.0499C90.2593 66.154 90.2193 66.2538 90.148 66.3274C90.0768 66.401 89.9801 66.4424 89.8793 66.4424C89.7786 66.4424 89.6819 66.401 89.6106 66.3274C89.5394 66.2538 89.4993 66.154 89.4993 66.0499V63.9665C89.4987 63.1774 89.195 62.4208 88.6548 61.8629C88.1146 61.3049 87.3821 60.9912 86.6182 60.9906H58.2535C57.4898 60.9916 56.7577 61.3055 56.2178 61.8634C55.678 62.4214 55.3744 63.1777 55.3738 63.9665V73.4469C55.3746 74.2359 55.6785 74.9923 56.2186 75.5501C56.7588 76.1078 57.4912 76.4215 58.255 76.4221H86.1895C86.2903 76.4221 86.387 76.4634 86.4582 76.5371C86.5295 76.6107 86.5695 76.7105 86.5695 76.8146C86.5695 76.9187 86.5295 77.0185 86.4582 77.0921C86.387 77.1657 86.2903 77.2071 86.1895 77.2071H86.188Z" fill="black"/>
<path d="M63.4487 37.2993C62.0157 37.2993 60.6149 37.7382 59.4235 38.5606C58.232 39.3829 57.3034 40.5517 56.755 41.9191C56.2067 43.2866 56.0633 44.7913 56.3429 46.243C56.6225 47.6946 57.3126 49.028 58.3259 50.0746C59.3392 51.1211 60.6303 51.8338 62.0357 52.1224C63.4412 52.4111 64.8979 52.2628 66.2218 51.6963C67.5456 51.1297 68.6771 50.1705 69.4731 48.9397C70.2691 47.709 70.6939 46.262 70.6938 44.7819C70.6916 42.798 69.9275 40.896 68.5693 39.4932C67.211 38.0904 65.3695 37.3014 63.4487 37.2993ZM68.3537 49.1528C68.0266 48.0734 67.3744 47.1299 66.4922 46.4598C65.6099 45.7897 64.5436 45.428 63.4485 45.4272C62.3534 45.4264 61.2867 45.7866 60.4035 46.4554C59.5204 47.1243 58.867 48.0668 58.5383 49.1458C57.7269 48.1741 57.2027 46.9821 57.0282 45.7116C56.8537 44.4411 57.0362 43.1455 57.5539 41.979C58.0717 40.8126 58.903 39.8243 59.9488 39.1317C60.9947 38.4391 62.2112 38.0714 63.4535 38.0722C64.6959 38.0731 65.9118 38.4426 66.9568 39.1367C68.0017 39.8308 68.8316 40.8203 69.3478 41.9875C69.864 43.1548 70.0447 44.4506 69.8685 45.7208C69.6923 46.9911 69.1665 48.1823 68.3537 49.1528Z" fill="black"/>
<path d="M63.4487 61.2229C62.0157 61.2229 60.6149 61.6618 59.4235 62.4841C58.232 63.3065 57.3034 64.4753 56.755 65.8427C56.2067 67.2102 56.0633 68.7149 56.3429 70.1665C56.6225 71.6182 57.3126 72.9516 58.3259 73.9981C59.3392 75.0447 60.6303 75.7574 62.0357 76.046C63.4412 76.3347 64.8979 76.1864 66.2218 75.6198C67.5456 75.0533 68.6771 74.094 69.4731 72.8633C70.2691 71.6325 70.6939 70.1856 70.6938 68.7055C70.6916 66.7216 69.9275 64.8195 68.5693 63.4168C67.211 62.014 65.3695 61.225 63.4487 61.2229ZM68.3408 73.0897C67.9538 72.0801 67.2803 71.215 66.4087 70.6078C65.5371 70.0007 64.5082 69.6799 63.4569 69.6876C62.4057 69.6953 61.3813 70.0312 60.5181 70.6511C59.655 71.271 58.9935 72.146 58.6204 73.1612C57.7878 72.2009 57.2411 71.0128 57.0461 69.7396C56.8512 68.4663 57.0161 67.162 57.5212 65.9831C58.0263 64.8043 58.85 63.8011 59.8935 63.094C60.937 62.3868 62.1559 62.0058 63.404 61.9966C64.652 61.9875 65.876 62.3505 66.9292 63.0423C67.9823 63.734 68.8198 64.725 69.3411 65.8963C69.8623 67.0675 70.0452 68.3693 69.8678 69.6453C69.6904 70.9213 69.1602 72.1173 68.3408 73.0897Z" fill="black"/>
<path d="M63.4488 86.3271C62.4422 86.3281 61.4468 86.5456 60.526 86.9658C59.6053 87.386 58.7793 87.9996 58.1007 88.7676C57.4222 89.5356 56.9059 90.4411 56.5848 91.4266C56.2637 92.412 56.1448 93.4557 56.2356 94.4911C56.2403 94.5427 56.2548 94.5928 56.2782 94.6385C56.3017 94.6843 56.3336 94.7249 56.3722 94.7579C56.4108 94.7909 56.4553 94.8157 56.5032 94.831C56.5511 94.8462 56.6015 94.8516 56.6514 94.8468C56.7013 94.8419 56.7498 94.827 56.7941 94.8028C56.8384 94.7786 56.8776 94.7456 56.9096 94.7057C56.9416 94.6658 56.9656 94.6198 56.9804 94.5704C56.9951 94.5209 57.0003 94.4689 56.9956 94.4174C56.8985 93.336 57.0576 92.2464 57.4591 91.2427C57.8607 90.239 58.4927 89.3513 59.3005 88.6561C60.1084 87.961 61.0678 87.4793 62.0961 87.2527C63.1244 87.0261 64.1907 87.0613 65.2029 87.3553C66.2151 87.6493 67.1428 88.1933 67.906 88.9403C68.6692 89.6873 69.245 90.6149 69.5836 91.6431C69.9223 92.6712 70.0137 93.7691 69.8499 94.8418C69.686 95.9146 69.272 96.9301 68.6434 97.8007C68.1374 96.8328 67.3878 96.024 66.4737 95.4596C65.5595 94.8953 64.5148 94.5965 63.4498 94.5946C62.3849 94.5928 61.3392 94.888 60.4232 95.4491C59.5072 96.0103 58.755 96.8165 58.2458 97.7826C58.1622 97.6657 58.0726 97.555 57.9958 97.4318C57.969 97.3881 57.934 97.3503 57.893 97.3206C57.852 97.2909 57.8056 97.2699 57.7567 97.2588C57.7078 97.2476 57.6572 97.2466 57.6079 97.2557C57.5586 97.2649 57.5115 97.284 57.4694 97.312C57.4272 97.34 57.3909 97.3763 57.3624 97.4188C57.3339 97.4614 57.3138 97.5094 57.3034 97.56C57.2929 97.6106 57.2922 97.6628 57.3013 97.7137C57.3105 97.7646 57.3293 97.8131 57.3566 97.8564C58.0366 98.9479 58.9797 99.8378 60.0934 100.439C61.2071 101.04 62.453 101.331 63.7087 101.284C64.9644 101.238 66.1867 100.854 67.2556 100.172C68.3244 99.4893 69.2029 98.5314 69.8049 97.3922C70.4069 96.253 70.7116 94.9716 70.689 93.6739C70.6665 92.3763 70.3175 91.107 69.6763 89.9908C69.0351 88.8747 68.1239 87.95 67.032 87.3076C65.9402 86.6653 64.7053 86.3274 63.4488 86.3271Z" fill="black"/>
<path d="M89.8777 98.2639C89.777 98.2639 89.6803 98.2225 89.609 98.1489C89.5378 98.0753 89.4977 97.9755 89.4977 97.8714V88.6728C89.4971 88.0211 89.2462 87.3963 88.8001 86.9355C88.354 86.4747 87.7491 86.2156 87.1182 86.2149H57.6857C57.5849 86.2149 57.4882 86.1736 57.417 86.1C57.3457 86.0264 57.3057 85.9265 57.3057 85.8224C57.3057 85.7183 57.3457 85.6185 57.417 85.5449C57.4882 85.4713 57.5849 85.4299 57.6857 85.4299H87.1174C87.9498 85.4308 88.7479 85.7727 89.3365 86.3807C89.9251 86.9886 90.2562 87.813 90.257 88.6728V97.8714C90.257 97.9754 90.2171 98.0751 90.146 98.1487C90.0749 98.2222 89.9784 98.2637 89.8777 98.2639Z" fill="black"/>
<path d="M85.8043 91.1667H75.2692C74.8754 91.1667 74.4976 91.0051 74.2191 90.7174C73.9406 90.4297 73.7842 90.0396 73.7842 89.6328C73.7842 89.226 73.9406 88.8358 74.2191 88.5481C74.4976 88.2605 74.8754 88.0989 75.2692 88.0989H85.8043C86.1982 88.0989 86.5759 88.2605 86.8544 88.5481C87.1329 88.8358 87.2894 89.226 87.2894 89.6328C87.2894 90.0396 87.1329 90.4297 86.8544 90.7174C86.5759 91.0051 86.1982 91.1667 85.8043 91.1667ZM75.2692 88.8839C75.0769 88.8839 74.8925 88.9628 74.7565 89.1032C74.6206 89.2437 74.5442 89.4342 74.5442 89.6328C74.5442 89.8314 74.6206 90.0219 74.7565 90.1623C74.8925 90.3028 75.0769 90.3817 75.2692 90.3817H85.8043C85.9966 90.3817 86.181 90.3028 86.317 90.1623C86.453 90.0219 86.5294 89.8314 86.5294 89.6328C86.5294 89.4342 86.453 89.2437 86.317 89.1032C86.181 88.9628 85.9966 88.8839 85.8043 88.8839H75.2692Z" fill="black"/>
<path d="M85.8042 95.039H75.2691C74.881 95.03 74.5117 94.8643 74.2403 94.5776C73.9689 94.2908 73.8169 93.9058 73.8169 93.5047C73.8169 93.1037 73.9689 92.7187 74.2403 92.4319C74.5117 92.1452 74.881 91.9795 75.2691 91.9705H85.8042C86.1924 91.9795 86.5616 92.1452 86.833 92.4319C87.1044 92.7187 87.2564 93.1037 87.2564 93.5047C87.2564 93.9058 87.1044 94.2908 86.833 94.5776C86.5616 94.8643 86.1924 95.03 85.8042 95.039ZM75.2691 92.7555C75.0808 92.7618 74.9022 92.8435 74.7711 92.9833C74.6401 93.1231 74.5668 93.3101 74.5668 93.5047C74.5668 93.6994 74.6401 93.8864 74.7711 94.0262C74.9022 94.166 75.0808 94.2477 75.2691 94.254H85.8042C85.9925 94.2477 86.1711 94.166 86.3022 94.0262C86.4333 93.8864 86.5065 93.6994 86.5065 93.5047C86.5065 93.3101 86.4333 93.1231 86.3022 92.9833C86.1711 92.8435 85.9925 92.7618 85.8042 92.7555H75.2691Z" fill="black"/>
<path d="M85.8043 98.9098H75.2692C75.0742 98.9098 74.8811 98.8701 74.7009 98.7931C74.5207 98.716 74.357 98.603 74.2191 98.4606C74.0812 98.3181 73.9719 98.149 73.8972 97.9629C73.8226 97.7768 73.7842 97.5774 73.7842 97.3759C73.7842 97.1745 73.8226 96.975 73.8972 96.7889C73.9719 96.6028 74.0812 96.4337 74.2191 96.2913C74.357 96.1489 74.5207 96.0359 74.7009 95.9588C74.8811 95.8817 75.0742 95.842 75.2692 95.842H85.8043C86.1982 95.842 86.5759 96.0037 86.8544 96.2913C87.1329 96.579 87.2894 96.9691 87.2894 97.3759C87.2894 97.7827 87.1329 98.1729 86.8544 98.4606C86.5759 98.7482 86.1982 98.9098 85.8043 98.9098ZM75.2692 96.627C75.0769 96.627 74.8925 96.7059 74.7565 96.8464C74.6206 96.9868 74.5442 97.1773 74.5442 97.3759C74.5442 97.5746 74.6206 97.765 74.7565 97.9055C74.8925 98.0459 75.0769 98.1248 75.2692 98.1248H85.8043C85.9966 98.1248 86.181 98.0459 86.317 97.9055C86.453 97.765 86.5294 97.5746 86.5294 97.3759C86.5294 97.1773 86.453 96.9868 86.317 96.8464C86.181 96.7059 85.9966 96.627 85.8043 96.627H75.2692Z" fill="black"/>
<path d="M83.1899 66.37H75.2692C74.8755 66.3696 74.498 66.2078 74.2196 65.9203C73.9412 65.6327 73.7846 65.2428 73.7842 64.8361C73.7847 64.6362 73.8236 64.4383 73.8987 64.2541C73.9739 64.0698 74.0838 63.9028 74.2219 63.7628C74.3601 63.6228 74.5238 63.5125 74.7036 63.4385C74.8834 63.3644 75.0757 63.3279 75.2692 63.3313H85.7967C85.9009 63.3389 85.9983 63.3873 86.0689 63.4667C86.1396 63.5462 86.1782 63.6505 86.1767 63.7583C86.1757 63.808 86.165 63.8569 86.1451 63.9022C86.1252 63.9474 86.0966 63.988 86.0611 64.0215C86.0255 64.0549 85.9838 64.0806 85.9383 64.0969C85.8929 64.1132 85.8447 64.1198 85.7967 64.1163H75.2669C75.1736 64.113 75.0806 64.1291 74.9934 64.1636C74.9061 64.1981 74.8265 64.2503 74.7591 64.3171C74.6918 64.3839 74.638 64.464 74.6011 64.5526C74.5642 64.6412 74.5448 64.7365 74.5442 64.833C74.5442 65.0316 74.6206 65.2221 74.7565 65.3625C74.8925 65.503 75.0769 65.5819 75.2692 65.5819H83.1899C83.2907 65.5819 83.3874 65.6232 83.4586 65.6968C83.5299 65.7704 83.5699 65.8703 83.5699 65.9744C83.5699 66.0785 83.5299 66.1783 83.4586 66.2519C83.3874 66.3255 83.2907 66.3669 83.1899 66.3669V66.37Z" fill="black"/>
<path d="M82.8982 70.2394H75.2693C75.0716 70.244 74.875 70.2078 74.6911 70.1328C74.5071 70.0579 74.3395 69.9457 74.1981 69.803C74.0567 69.6602 73.9444 69.4896 73.8677 69.3014C73.791 69.1131 73.7515 68.9109 73.7515 68.7067C73.7515 68.5024 73.791 68.3002 73.8677 68.112C73.9444 67.9237 74.0567 67.7532 74.1981 67.6104C74.3395 67.4676 74.5071 67.3555 74.6911 67.2805C74.875 67.2056 75.0716 67.1694 75.2693 67.174H82.7264C82.8272 67.174 82.9239 67.2153 82.9951 67.2889C83.0664 67.3625 83.1064 67.4624 83.1064 67.5665C83.1064 67.6706 83.0664 67.7704 82.9951 67.844C82.9239 67.9176 82.8272 67.959 82.7264 67.959H75.2693C75.1723 67.9557 75.0756 67.9727 74.985 68.0088C74.8945 68.0449 74.8118 68.0994 74.7421 68.1692C74.6723 68.239 74.6169 68.3225 74.579 68.4148C74.5411 68.5071 74.5216 68.6064 74.5216 68.7067C74.5216 68.807 74.5411 68.9062 74.579 68.9986C74.6169 69.0909 74.6723 69.1744 74.7421 69.2442C74.8118 69.3139 74.8945 69.3685 74.985 69.4046C75.0756 69.4407 75.1723 69.4576 75.2693 69.4544H82.8982C82.999 69.4544 83.0956 69.4958 83.1669 69.5694C83.2382 69.643 83.2782 69.7428 83.2782 69.8469C83.2782 69.951 83.2382 70.0508 83.1669 70.1244C83.0956 70.198 82.999 70.2394 82.8982 70.2394Z" fill="black"/>
<path d="M84.2312 74.111H75.2632C74.8751 74.102 74.5058 73.9363 74.2344 73.6496C73.963 73.3629 73.811 72.9778 73.811 72.5768C73.811 72.1758 73.963 71.7907 74.2344 71.5039C74.5058 71.2172 74.8751 71.0515 75.2632 71.0425H83.323C83.4238 71.0425 83.5205 71.0838 83.5917 71.1574C83.663 71.231 83.703 71.3309 83.703 71.435C83.703 71.5391 83.663 71.6389 83.5917 71.7125C83.5205 71.7861 83.4238 71.8275 83.323 71.8275H75.2647C75.0764 71.8338 74.8978 71.9155 74.7668 72.0553C74.6357 72.1951 74.5624 72.3821 74.5624 72.5768C74.5624 72.7714 74.6357 72.9584 74.7668 73.0982C74.8978 73.238 75.0764 73.3197 75.2647 73.326H84.2327C84.3335 73.326 84.4302 73.3674 84.5015 73.441C84.5727 73.5146 84.6127 73.6144 84.6127 73.7185C84.6127 73.8226 84.5727 73.9225 84.5015 73.9961C84.4302 74.0697 84.3335 74.111 84.2327 74.111H84.2312Z" fill="black"/>
<path d="M85.8043 42.4447H75.2692C74.8754 42.4447 74.4976 42.2831 74.2191 41.9955C73.9406 41.7078 73.7842 41.3177 73.7842 40.9108C73.7842 40.504 73.9406 40.1139 74.2191 39.8262C74.4976 39.5386 74.8754 39.377 75.2692 39.377H85.8043C86.1982 39.377 86.5759 39.5386 86.8544 39.8262C87.1329 40.1139 87.2894 40.504 87.2894 40.9108C87.2894 41.3177 87.1329 41.7078 86.8544 41.9955C86.5759 42.2831 86.1982 42.4447 85.8043 42.4447ZM75.2692 40.162C75.0769 40.162 74.8925 40.2409 74.7565 40.3813C74.6206 40.5217 74.5442 40.7122 74.5442 40.9108C74.5442 41.1095 74.6206 41.2999 74.7565 41.4404C74.8925 41.5808 75.0769 41.6597 75.2692 41.6597H85.8043C85.9966 41.6597 86.181 41.5808 86.317 41.4404C86.453 41.2999 86.5294 41.1095 86.5294 40.9108C86.5294 40.7122 86.453 40.5217 86.317 40.3813C86.181 40.2409 85.9966 40.162 85.8043 40.162H75.2692Z" fill="black"/>
<path d="M85.8043 46.3156H75.2692C74.8754 46.3156 74.4976 46.154 74.2191 45.8663C73.9406 45.5787 73.7842 45.1885 73.7842 44.7817C73.7842 44.3749 73.9406 43.9847 74.2191 43.6971C74.4976 43.4094 74.8754 43.2478 75.2692 43.2478H85.8043C86.1982 43.2478 86.5759 43.4094 86.8544 43.6971C87.1329 43.9847 87.2894 44.3749 87.2894 44.7817C87.2894 45.1885 87.1329 45.5787 86.8544 45.8663C86.5759 46.154 86.1982 46.3156 85.8043 46.3156ZM75.2692 44.0328C75.0769 44.0328 74.8925 44.1117 74.7565 44.2521C74.6206 44.3926 74.5442 44.5831 74.5442 44.7817C74.5442 44.9803 74.6206 45.1708 74.7565 45.3112C74.8925 45.4517 75.0769 45.5306 75.2692 45.5306H85.8043C85.9966 45.5306 86.181 45.4517 86.317 45.3112C86.453 45.1708 86.5294 44.9803 86.5294 44.7817C86.5294 44.5831 86.453 44.3926 86.317 44.2521C86.181 44.1117 85.9966 44.0328 85.8043 44.0328H75.2692Z" fill="black"/>
<path d="M85.8043 50.1872H75.2692C74.8754 50.1872 74.4976 50.0256 74.2191 49.7379C73.9406 49.4502 73.7842 49.0601 73.7842 48.6533C73.7842 48.2465 73.9406 47.8563 74.2191 47.5686C74.4976 47.281 74.8754 47.1194 75.2692 47.1194H85.8043C86.1982 47.1194 86.5759 47.281 86.8544 47.5686C87.1329 47.8563 87.2894 48.2465 87.2894 48.6533C87.2894 49.0601 87.1329 49.4502 86.8544 49.7379C86.5759 50.0256 86.1982 50.1872 85.8043 50.1872ZM75.2692 47.9044C75.0769 47.9044 74.8925 47.9833 74.7565 48.1237C74.6206 48.2642 74.5442 48.4547 74.5442 48.6533C74.5442 48.8519 74.6206 49.0424 74.7565 49.1828C74.8925 49.3233 75.0769 49.4022 75.2692 49.4022H85.8043C85.9966 49.4022 86.181 49.3233 86.317 49.1828C86.453 49.0424 86.5294 48.8519 86.5294 48.6533C86.5294 48.4547 86.453 48.2642 86.317 48.1237C86.181 47.9833 85.9966 47.9044 85.8043 47.9044H75.2692Z" fill="black"/>
<path d="M58.4766 123.134C58.4175 123.134 58.3592 123.119 58.3064 123.092C50.9314 119.299 44.7312 113.45 40.4071 106.207C36.083 98.9636 33.8076 90.615 33.8382 82.1055C33.917 77.4904 34.5874 72.9065 35.8317 68.4732C36.7612 65.3925 38.0041 62.4222 39.5397 59.6121C39.5643 59.5672 39.5971 59.5278 39.6365 59.496C39.6758 59.4642 39.7208 59.4408 39.7689 59.4269C39.817 59.4131 39.8672 59.4092 39.9168 59.4155C39.9663 59.4217 40.0142 59.438 40.0577 59.4634C40.1011 59.4887 40.1393 59.5227 40.1701 59.5633C40.2008 59.6039 40.2236 59.6504 40.2369 59.7001C40.2503 59.7497 40.2541 59.8016 40.248 59.8528C40.242 59.904 40.2262 59.9535 40.2017 59.9983C38.6913 62.7601 37.4685 65.6793 36.5537 68.7071C35.331 73.0644 34.6721 77.5696 34.5944 82.1055C34.5644 90.4694 36.8009 98.675 41.051 105.794C45.3011 112.913 51.3951 118.662 58.6438 122.39C58.7201 122.43 58.7813 122.494 58.8176 122.574C58.8538 122.654 58.863 122.744 58.8437 122.83C58.8244 122.916 58.7777 122.992 58.7111 123.047C58.6445 123.102 58.5619 123.133 58.4766 123.134Z" fill="black"/>
<path d="M104.791 118.704C104.711 118.704 104.633 118.678 104.568 118.629C104.504 118.581 104.455 118.513 104.43 118.435C104.405 118.357 104.404 118.273 104.428 118.194C104.452 118.115 104.499 118.046 104.563 117.997C106.231 116.692 107.805 115.264 109.275 113.725C109.346 113.658 109.441 113.621 109.538 113.623C109.635 113.625 109.728 113.665 109.797 113.735C109.866 113.806 109.907 113.901 109.91 114.001C109.914 114.101 109.88 114.199 109.816 114.275C108.319 115.84 106.716 117.292 105.019 118.62C104.954 118.672 104.873 118.702 104.791 118.704Z" fill="black"/>
<path d="M121.409 91.2051C121.353 91.2051 121.297 91.1923 121.247 91.1677C121.196 91.143 121.151 91.107 121.116 91.0624C121.08 91.0178 121.054 90.9655 121.04 90.9095C121.027 90.8534 121.025 90.7948 121.036 90.738C121.567 87.8946 121.834 85.0052 121.834 82.1093C121.756 77.575 121.097 73.0713 119.874 68.7156C116.909 58.9499 110.83 50.5085 102.628 44.7653C102.585 44.7371 102.548 44.7004 102.52 44.6572C102.491 44.614 102.47 44.5653 102.46 44.5139C102.45 44.4625 102.449 44.4095 102.459 44.358C102.469 44.3065 102.489 44.2576 102.517 44.2141C102.546 44.1706 102.582 44.1335 102.625 44.1049C102.668 44.0763 102.715 44.0568 102.765 44.0476C102.815 44.0384 102.867 44.0396 102.916 44.0513C102.966 44.0629 103.013 44.0847 103.054 44.1153C111.398 49.9584 117.582 58.5464 120.6 68.4817C121.844 72.9136 122.515 77.4963 122.594 82.1101C122.594 85.0558 122.322 87.9949 121.781 90.8872C121.764 90.9765 121.718 91.0571 121.65 91.1151C121.582 91.1731 121.497 91.2049 121.409 91.2051Z" fill="black"/>
<path d="M141.362 60.0101C141.284 60.0101 141.208 59.9855 141.145 59.9396C141.081 59.8937 141.032 59.8287 141.005 59.7534L139.323 55.0301C139.306 54.9817 139.298 54.9302 139.3 54.8787C139.302 54.8271 139.313 54.7765 139.334 54.7297C139.355 54.6828 139.385 54.6407 139.422 54.6057C139.458 54.5707 139.501 54.5435 139.548 54.5257C139.595 54.5079 139.645 54.4997 139.695 54.5018C139.745 54.5038 139.794 54.516 139.839 54.5376C139.884 54.5592 139.925 54.5898 139.959 54.6277C139.993 54.6656 140.019 54.71 140.036 54.7584L141.718 59.4818C141.739 59.5411 141.746 59.6048 141.739 59.6676C141.731 59.7303 141.709 59.7901 141.674 59.842C141.639 59.8939 141.592 59.9363 141.538 59.9655C141.483 59.9948 141.423 60.0101 141.362 60.0101Z" fill="black"/>
<path d="M70.3927 151.434C70.2928 151.422 70.2018 151.369 70.1396 151.287C70.0775 151.205 70.0494 151.101 70.0614 150.998C70.0673 150.947 70.0829 150.897 70.1074 150.852C70.1318 150.807 70.1646 150.768 70.2039 150.736C70.2431 150.704 70.288 150.681 70.3361 150.667C70.3841 150.653 70.4344 150.649 70.4839 150.655C73.6616 151.067 76.8661 151.216 80.0668 151.099C80.1664 151.099 80.2622 151.139 80.3349 151.209C80.4076 151.279 80.4516 151.376 80.4582 151.478C80.4599 151.53 80.4518 151.581 80.4343 151.63C80.4167 151.678 80.3902 151.722 80.3561 151.76C80.322 151.798 80.281 151.828 80.2356 151.849C80.1901 151.871 80.141 151.883 80.0911 151.884C76.8519 152.002 73.6087 151.852 70.3927 151.434ZM89.297 150.524C89.2882 150.473 89.2892 150.421 89.3 150.371C89.3107 150.32 89.3309 150.273 89.3595 150.23C89.3881 150.188 89.4245 150.152 89.4666 150.124C89.5086 150.096 89.5556 150.078 89.6048 150.069C92.7557 149.489 95.862 148.676 98.8996 147.635C98.9469 147.619 98.9969 147.612 99.0467 147.616C99.0965 147.62 99.1451 147.633 99.1897 147.656C99.2344 147.679 99.2742 147.711 99.3069 147.75C99.3396 147.789 99.3645 147.835 99.3803 147.883C99.396 147.932 99.4023 147.984 99.3988 148.035C99.3952 148.087 99.3819 148.137 99.3596 148.183C99.3372 148.229 99.3063 148.27 99.2686 148.304C99.2309 148.338 99.1871 148.364 99.1397 148.38C96.0668 149.433 92.9245 150.256 89.737 150.842C89.6379 150.86 89.5358 150.836 89.4533 150.777C89.3708 150.717 89.3146 150.626 89.297 150.524ZM60.9361 149.653C60.724 149.653 58.2958 148.962 57.7387 148.79C57.6627 148.771 58.0199 148.947 51.8867 145.798C51.796 145.752 51.7269 145.67 51.6944 145.571C51.662 145.472 51.669 145.364 51.7138 145.27C51.7587 145.177 51.8377 145.105 51.9336 145.072C52.0294 145.038 52.1342 145.045 52.2249 145.092L57.969 148.039C58.2859 148.137 59.3895 148.469 61.0265 148.878C61.1169 148.9 61.1961 148.956 61.2492 149.035C61.3022 149.114 61.3255 149.21 61.3146 149.305C61.3036 149.401 61.2592 149.489 61.1897 149.553C61.1202 149.616 61.0305 149.652 60.9376 149.652L60.9361 149.653ZM107.93 144.584C107.844 144.584 107.761 144.554 107.694 144.499C107.627 144.444 107.58 144.368 107.56 144.282C107.54 144.196 107.549 144.105 107.586 144.025C107.622 143.945 107.683 143.88 107.76 143.84C110.619 142.358 113.371 140.665 115.996 138.776C116.037 138.746 116.083 138.724 116.132 138.712C116.181 138.7 116.232 138.698 116.282 138.706C116.332 138.715 116.38 138.734 116.423 138.762C116.465 138.79 116.502 138.826 116.531 138.869C116.56 138.912 116.58 138.96 116.591 139.011C116.602 139.062 116.602 139.115 116.593 139.166C116.584 139.218 116.564 139.267 116.536 139.31C116.509 139.354 116.473 139.391 116.43 139.42C113.776 141.331 110.992 143.043 108.1 144.542C108.047 144.569 107.989 144.584 107.93 144.584ZM123.711 133.226C123.634 133.225 123.56 133.202 123.497 133.157C123.434 133.113 123.385 133.05 123.358 132.977C123.33 132.904 123.324 132.824 123.34 132.747C123.357 132.67 123.396 132.6 123.451 132.547C125.789 130.288 127.969 127.86 129.973 125.282C130.036 125.201 130.128 125.149 130.228 125.137C130.328 125.126 130.429 125.156 130.507 125.221C130.586 125.286 130.636 125.381 130.648 125.484C130.659 125.588 130.629 125.691 130.566 125.773C128.539 128.381 126.335 130.836 123.97 133.12C123.899 133.188 123.807 133.226 123.711 133.226ZM135.755 117.721C135.688 117.721 135.622 117.703 135.564 117.668C135.506 117.633 135.458 117.583 135.425 117.523C135.392 117.463 135.374 117.395 135.375 117.326C135.375 117.257 135.393 117.189 135.427 117.129C137.054 114.28 138.48 111.314 139.695 108.254C139.714 108.206 139.742 108.163 139.777 108.126C139.812 108.09 139.854 108.06 139.9 108.041C139.946 108.021 139.995 108.01 140.045 108.01C140.095 108.01 140.145 108.02 140.191 108.039C140.237 108.059 140.279 108.088 140.314 108.124C140.35 108.16 140.378 108.203 140.397 108.251C140.417 108.298 140.427 108.349 140.427 108.401C140.427 108.453 140.418 108.504 140.399 108.551C139.171 111.647 137.73 114.646 136.086 117.528C136.052 117.587 136.003 117.636 135.945 117.67C135.887 117.704 135.822 117.722 135.755 117.721ZM143.051 99.3222C142.993 99.3223 142.936 99.3088 142.884 99.2827C142.832 99.2566 142.787 99.2186 142.751 99.1716C142.715 99.1246 142.691 99.0698 142.679 99.0115C142.667 98.9531 142.668 98.8926 142.682 98.8347C143.454 95.6262 144.002 92.3645 144.321 89.0748C144.331 88.9707 144.381 88.875 144.459 88.8088C144.538 88.7425 144.638 88.7112 144.739 88.7216C144.84 88.732 144.932 88.7833 144.997 88.8643C145.061 88.9453 145.091 89.0492 145.081 89.1533C144.758 92.4805 144.204 95.7795 143.423 99.0247C143.403 99.1106 143.354 99.1867 143.287 99.2407C143.219 99.2947 143.135 99.3234 143.05 99.3222H143.051ZM144.584 79.1752C144.41 75.8719 144.024 72.5841 143.428 69.3336C143.409 69.2313 143.431 69.1256 143.488 69.0397C143.545 68.9538 143.633 68.8948 143.732 68.8756C143.831 68.8564 143.933 68.8787 144.016 68.9375C144.099 68.9964 144.157 69.0869 144.175 69.1892C144.777 72.4743 145.167 75.7968 145.343 79.1352C145.348 79.2393 145.313 79.3412 145.246 79.4186C145.178 79.4959 145.083 79.5424 144.983 79.5477C144.882 79.553 144.783 79.5167 144.708 79.4469C144.633 79.377 144.588 79.2793 144.583 79.1752H144.584Z" fill="black"/>
<path d="M43.3922 141.407C43.2668 141.407 43.6514 141.579 38.8596 139.125C38.8133 139.103 38.7718 139.072 38.7375 139.033C38.7032 138.994 38.6768 138.949 38.6599 138.899C38.6429 138.85 38.6358 138.797 38.6389 138.745C38.642 138.692 38.6553 138.641 38.6779 138.594C38.7006 138.547 38.7322 138.505 38.7708 138.471C38.8094 138.437 38.8543 138.411 38.9028 138.395C38.9513 138.379 39.0024 138.373 39.053 138.378C39.1037 138.383 39.1529 138.398 39.1978 138.423L43.5617 140.664C43.6381 140.704 43.6994 140.769 43.7356 140.849C43.7719 140.929 43.7809 141.019 43.7613 141.105C43.7417 141.191 43.6946 141.267 43.6276 141.322C43.5607 141.377 43.4777 141.407 43.3922 141.407Z" fill="black"/>
<path d="M43.8889 22.2295C43.8043 22.23 43.7219 22.2013 43.6549 22.1479C43.5878 22.0946 43.54 22.0196 43.5189 21.935C43.4977 21.8504 43.5046 21.7609 43.5383 21.6807C43.572 21.6005 43.6307 21.5343 43.705 21.4924C45.1155 20.6917 46.5854 19.9224 48.0727 19.2065C48.1182 19.1821 48.1681 19.1674 48.2192 19.1635C48.2704 19.1595 48.3218 19.1662 48.3704 19.1833C48.4189 19.2004 48.4636 19.2275 48.5018 19.2629C48.5399 19.2984 48.5708 19.3414 48.5924 19.3895C48.614 19.4375 48.626 19.4896 48.6276 19.5426C48.6292 19.5955 48.6204 19.6483 48.6017 19.6976C48.5831 19.747 48.5549 19.792 48.519 19.8298C48.483 19.8676 48.4401 19.8975 48.3926 19.9177C46.9213 20.6242 45.4674 21.388 44.0713 22.1809C44.0154 22.2126 43.9527 22.2294 43.8889 22.2295Z" fill="black"/>
<path d="M102.972 18.124C100.08 16.9094 97.1083 15.9065 94.0798 15.1229C94.0313 15.1104 93.9857 15.0881 93.9456 15.0574C93.9055 15.0267 93.8716 14.9881 93.8459 14.9438C93.8202 14.8996 93.8032 14.8506 93.7959 14.7995C93.7885 14.7485 93.791 14.6965 93.8031 14.6464C93.8276 14.5453 93.89 14.4584 93.9765 14.4049C94.0193 14.3783 94.0668 14.3608 94.1162 14.3532C94.1656 14.3456 94.216 14.3481 94.2645 14.3607C97.3274 15.154 100.332 16.1689 103.258 17.3978C103.306 17.4155 103.351 17.4432 103.388 17.4792C103.426 17.5151 103.457 17.5587 103.478 17.6071C103.499 17.6556 103.51 17.7079 103.511 17.761C103.512 17.8141 103.502 17.8669 103.483 17.9161C103.463 17.9652 103.435 18.0098 103.398 18.0472C103.361 18.0845 103.318 18.1138 103.27 18.1332C103.222 18.1526 103.171 18.1618 103.12 18.1602C103.068 18.1587 103.018 18.1463 102.971 18.124H102.972ZM56.6437 16.1677C56.629 16.1184 56.6239 16.0666 56.6287 16.0152C56.6334 15.9639 56.6479 15.914 56.6714 15.8684C56.6948 15.8228 56.7267 15.7825 56.7653 15.7496C56.8038 15.7168 56.8482 15.6922 56.896 15.6771C59.9057 14.697 62.975 13.9242 66.0837 13.3637C66.1329 13.3539 66.1834 13.3545 66.2324 13.3653C66.2814 13.3761 66.3278 13.397 66.3688 13.4268C66.4098 13.4565 66.4446 13.4945 66.471 13.5384C66.4975 13.5823 66.5152 13.6313 66.5229 13.6824C66.5402 13.7848 66.5173 13.8901 66.4595 13.9752C66.4017 14.0603 66.3135 14.1182 66.2144 14.1362C63.1388 14.6969 60.1016 15.4625 57.1217 16.4284C57.0738 16.444 57.0233 16.4496 56.9732 16.445C56.9232 16.4403 56.8745 16.4254 56.83 16.4012C56.7856 16.3769 56.7462 16.3438 56.7142 16.3037C56.6822 16.2637 56.6583 16.2174 56.6437 16.1677ZM84.9081 13.4422C81.7904 13.0993 78.6527 12.991 75.5198 13.118C75.4205 13.1172 75.3249 13.0782 75.252 13.0085C75.179 12.9388 75.1339 12.8435 75.1254 12.7412C75.1233 12.6896 75.1312 12.6381 75.1485 12.5896C75.1658 12.5411 75.1921 12.4966 75.2261 12.4587C75.2601 12.4208 75.3009 12.3902 75.3464 12.3686C75.3918 12.347 75.441 12.3349 75.4909 12.333C78.6467 12.2076 81.807 12.3168 84.9476 12.6596C84.9975 12.6623 85.0464 12.6751 85.0915 12.6973C85.1366 12.7195 85.1771 12.7506 85.2105 12.789C85.244 12.8273 85.2698 12.8721 85.2865 12.9207C85.3032 12.9694 85.3105 13.0209 85.3079 13.0725C85.3053 13.124 85.2929 13.1745 85.2714 13.2211C85.2499 13.2677 85.2197 13.3095 85.1826 13.344C85.1455 13.3786 85.1021 13.4053 85.055 13.4225C85.0079 13.4398 84.958 13.4473 84.9081 13.4446V13.4422Z" fill="black"/>
<path d="M115.682 25.1285C115.605 25.1285 115.53 25.1044 115.467 25.0594C114.151 24.1284 112.773 23.2288 111.372 22.3904C111.327 22.3659 111.287 22.3321 111.254 22.2912C111.222 22.2502 111.198 22.2028 111.184 22.152C111.169 22.1012 111.165 22.0479 111.171 21.9953C111.177 21.9428 111.194 21.8921 111.219 21.8462C111.245 21.8004 111.279 21.7604 111.32 21.7286C111.361 21.6969 111.408 21.674 111.458 21.6614C111.508 21.6488 111.56 21.6468 111.61 21.6554C111.661 21.6639 111.709 21.683 111.752 21.7114C113.169 22.5631 114.564 23.4722 115.895 24.4149C115.961 24.4626 116.01 24.5306 116.036 24.609C116.062 24.6874 116.063 24.7724 116.04 24.8516C116.016 24.9308 115.969 25.0003 115.905 25.0501C115.84 25.0998 115.763 25.1273 115.682 25.1285Z" fill="black"/>
<path d="M15.6531 108.968C15.5779 108.968 15.5044 108.945 15.4419 108.902C15.3794 108.859 15.3307 108.797 15.3019 108.726C14.7076 107.247 14.1179 105.606 13.598 103.982C13.5696 103.884 13.5793 103.778 13.625 103.688C13.6707 103.597 13.7488 103.529 13.8427 103.496C13.9366 103.464 14.0389 103.471 14.1279 103.516C14.2169 103.561 14.2855 103.639 14.3193 103.735C14.9691 105.764 15.5945 107.405 16.0042 108.426C16.028 108.485 16.0373 108.55 16.0312 108.614C16.025 108.678 16.0036 108.74 15.9689 108.794C15.9342 108.847 15.8872 108.891 15.8321 108.922C15.777 108.952 15.7155 108.968 15.6531 108.968Z" fill="black"/>
<path d="M11.6487 94.8099C11.5597 94.8097 11.4736 94.7772 11.4054 94.7181C11.3372 94.659 11.2912 94.577 11.2756 94.4865C10.7195 91.2682 10.381 88.0138 10.2625 84.747C10.2606 84.6954 10.2685 84.644 10.2859 84.5957C10.3032 84.5473 10.3296 84.5029 10.3636 84.4651C10.3975 84.4272 10.4383 84.3967 10.4837 84.3752C10.5291 84.3536 10.5781 84.3415 10.628 84.3396C10.6779 84.3376 10.7277 84.3458 10.7746 84.3637C10.8214 84.3817 10.8643 84.4089 10.901 84.444C10.9376 84.479 10.9672 84.5212 10.988 84.5681C11.0089 84.615 11.0206 84.6656 11.0225 84.7172C11.1402 87.9476 11.4749 91.1657 12.0242 94.3483C12.034 94.4049 12.0316 94.4631 12.0172 94.5187C12.0029 94.5742 11.9769 94.6258 11.941 94.6699C11.9052 94.7139 11.8605 94.7493 11.81 94.7735C11.7594 94.7977 11.7044 94.8101 11.6487 94.8099ZM10.9465 75.3906C10.8931 75.3909 10.8403 75.3795 10.7915 75.3574C10.7427 75.3352 10.6989 75.3026 10.6631 75.2618C10.6272 75.221 10.6001 75.1729 10.5835 75.1206C10.5668 75.0682 10.561 75.0128 10.5665 74.958C10.89 71.7063 11.4314 68.4816 12.1868 65.3073C12.2126 65.2082 12.2749 65.1236 12.3604 65.0714C12.4459 65.0192 12.5478 65.0037 12.6442 65.0281C12.7406 65.0525 12.824 65.1149 12.8764 65.202C12.9289 65.2891 12.9462 65.3939 12.9248 65.4941C12.1774 68.633 11.6423 71.8217 11.3234 75.0373C11.3135 75.1335 11.2695 75.2225 11.2 75.2873C11.1304 75.3521 11.0401 75.388 10.9465 75.3882V75.3906ZM15.4738 56.5278C15.4116 56.5278 15.3503 56.5119 15.2954 56.4817C15.2404 56.4515 15.1935 56.4078 15.1588 56.3545C15.124 56.3011 15.1025 56.2398 15.0961 56.1758C15.0896 56.1119 15.0985 56.0473 15.1219 55.9877C16.3161 52.9599 17.7173 50.0237 19.3148 47.2012C19.3689 47.1192 19.4509 47.0614 19.5446 47.0394C19.6382 47.0173 19.7364 47.0327 19.8195 47.0824C19.9026 47.1321 19.9644 47.2125 19.9924 47.3074C20.0205 47.4022 20.0127 47.5045 19.9707 47.5937C18.3915 50.3842 17.0064 53.2872 15.8257 56.2805C15.7976 56.3533 15.7491 56.4158 15.6864 56.4598C15.6237 56.5039 15.5496 56.5276 15.4738 56.5278Z" fill="black"/>
<path d="M24.9553 39.7445C24.8841 39.7443 24.8144 39.7235 24.754 39.6844C24.6937 39.6452 24.6453 39.5894 24.6142 39.5232C24.5831 39.4569 24.5707 39.383 24.5784 39.3099C24.586 39.2367 24.6134 39.1673 24.6574 39.1094C25.6652 37.7906 26.7299 36.4922 27.8228 35.2496C27.8914 35.176 27.985 35.1328 28.0839 35.1294C28.1827 35.1259 28.279 35.1624 28.3522 35.2311C28.4254 35.2998 28.4698 35.3952 28.476 35.4972C28.4822 35.5991 28.4496 35.6996 28.3852 35.7771C27.3037 37.0064 26.2504 38.2891 25.254 39.5953C25.2184 39.6419 25.173 39.6795 25.1213 39.7054C25.0695 39.7312 25.0128 39.7446 24.9553 39.7445Z" fill="black"/>
<path d="M103.664 114.645C104.67 106.685 106.492 105.192 107.652 98.2991C108.311 94.3921 109.058 89.964 107.607 84.582C106.477 80.3815 104.707 75.8999 100.826 74.2357V36.1232C100.823 33.6535 99.8718 31.2858 98.181 29.5395C96.4902 27.7933 94.1978 26.8111 91.8068 26.8083H53.3903C51.8538 26.81 50.3806 27.4413 49.2942 28.5636C48.2077 29.6859 47.5967 31.2076 47.5953 32.7948V49.7406C43.2899 44.7558 42.9996 44.1427 41.5389 43.5571C39.9946 42.9338 38.6304 42.9699 37.6979 43.6607C36.5579 44.5085 36.4172 46.055 36.3488 46.8007C36.1687 48.7632 36.6255 50.6551 39.7004 56.0943C42.0808 60.2931 44.7178 64.331 47.5953 68.1833V68.3662C45.9552 68.7925 44.3144 72.2551 44.0689 75.2122C43.9271 77.8997 44.6234 80.5633 46.0556 82.8118C45.2338 83.9511 44.6563 85.258 44.3615 86.6458C44.0007 88.5551 44.2128 90.5328 44.9695 92.3143C44.3378 93.1969 43.8928 94.2067 43.6631 95.2784C42.9076 99.0205 45.1352 103.128 47.8651 105.832V110.117C47.8667 111.463 48.3849 112.753 49.306 113.704C50.2271 114.655 51.4759 115.191 52.7785 115.192H56.3923C56.7764 117.343 57.6458 119.369 58.9299 121.107C60.2141 122.846 61.8768 124.247 63.7833 125.197L71.3696 150.867C71.3827 150.918 71.4056 150.965 71.4369 151.007C71.4682 151.049 71.5074 151.084 71.552 151.109C71.5967 151.135 71.6458 151.151 71.6966 151.157C71.7474 151.162 71.7988 151.157 71.8477 151.142C71.8966 151.126 71.942 151.101 71.9811 151.067C72.0203 151.033 72.0524 150.992 72.0756 150.945C72.0988 150.898 72.1126 150.846 72.1161 150.794C72.1197 150.741 72.1129 150.688 72.0962 150.638L64.6953 125.597C67.0638 126.516 69.6139 126.823 72.1236 126.491C72.2232 126.476 72.313 126.42 72.3731 126.337C72.4333 126.253 72.4589 126.149 72.4443 126.046C72.4287 125.943 72.3749 125.851 72.2943 125.789C72.2138 125.727 72.113 125.7 72.0134 125.714C70.9494 125.871 65.4211 126.469 61.1089 122.417C59.0983 120.493 57.7213 117.968 57.1713 115.195H89.9114C90.1067 115.535 90.3104 115.879 90.5338 116.227C90.561 116.271 90.5963 116.309 90.6378 116.338C90.6793 116.368 90.7261 116.389 90.7755 116.4C90.8249 116.41 90.8758 116.411 90.9254 116.401C90.975 116.391 91.0221 116.371 91.0642 116.343C91.1062 116.314 91.1423 116.277 91.1702 116.233C91.1982 116.19 91.2175 116.141 91.2271 116.09C91.2367 116.039 91.2363 115.986 91.2259 115.935C91.2156 115.884 91.1955 115.836 91.1669 115.793C89.0992 112.725 88.0155 109.064 88.0684 105.326C88.1938 102.132 89.5762 99.3635 92.3297 93.8473C93.6088 91.2851 94.9897 88.7849 96.4337 86.3953L96.8068 87.2149C96.8498 87.3091 96.9272 87.3818 97.022 87.4171C97.1169 87.4523 97.2214 87.4472 97.3126 87.4029C97.4038 87.3586 97.4742 87.2786 97.5084 87.1806C97.5425 87.0826 97.5376 86.9747 97.4946 86.8805L96.3546 84.3685C96.325 84.3034 96.2787 84.2479 96.2207 84.2082C96.1626 84.1685 96.0951 84.146 96.0256 84.1432C94.787 84.0952 93.5711 83.7847 92.4536 83.231C91.6221 82.8126 90.5133 82.0653 87.8753 78.4755C85.6941 75.5074 84.599 74.0167 83.8792 71.8909C83.3533 70.3256 82.6336 68.1841 83.5372 66.1274C83.7748 65.403 84.2352 64.7786 84.8482 64.3494C85.8207 66.5601 87.2099 68.5485 88.9348 70.1984C90.3256 71.5761 90.948 71.8587 93.0555 71.7684C93.5723 71.742 94.0863 71.6743 94.593 71.5659C95.3146 72.3922 96.1661 73.0867 97.1116 73.6203C98.7562 74.567 99.4828 74.4838 100.643 75.0058C101.325 75.319 101.956 75.7372 102.516 76.2461C101.6 76.5428 100.784 77.1 100.16 77.8538C100.094 77.9329 100.062 78.0357 100.07 78.1395C100.077 78.2434 100.125 78.3398 100.201 78.4076C100.278 78.4754 100.377 78.5089 100.478 78.5009C100.579 78.4929 100.672 78.4439 100.738 78.3648C101.364 77.6051 102.218 77.0835 103.164 76.8827C103.809 77.6035 104.366 78.4027 104.823 79.2628C104.252 79.9963 103.521 80.5797 102.69 80.9655C102.611 81.0019 102.546 81.0654 102.506 81.1453C102.466 81.2252 102.454 81.3167 102.472 81.4045C102.49 81.4924 102.536 81.5713 102.604 81.6282C102.671 81.685 102.755 81.7162 102.842 81.7168C102.894 81.7168 102.946 81.7053 102.994 81.683C103.835 81.2926 104.586 80.7224 105.198 80.0102C105.9 81.5483 106.46 83.1516 106.87 84.7987C108.275 90.0103 107.543 94.3458 106.898 98.1711C105.747 105.011 103.924 106.486 102.907 114.55C102.631 116.71 102.475 118.883 102.438 121.061C102.394 124.269 102.633 126.791 103.654 133.907C104.182 137.591 104.747 141.305 105.331 144.945C105.338 144.997 105.355 145.048 105.381 145.093C105.407 145.138 105.441 145.177 105.482 145.209C105.523 145.24 105.569 145.262 105.619 145.274C105.668 145.287 105.72 145.288 105.77 145.28C105.82 145.271 105.868 145.252 105.911 145.224C105.954 145.196 105.991 145.159 106.02 145.116C106.049 145.073 106.069 145.024 106.08 144.973C106.09 144.921 106.09 144.868 106.08 144.817C105.497 141.181 104.933 137.471 104.408 133.791C103.393 126.726 103.155 124.23 103.198 121.074C103.236 118.924 103.391 116.777 103.664 114.645ZM40.3563 55.6979C37.3855 50.4431 36.9409 48.6659 37.1043 46.873C37.1666 46.1963 37.2829 44.9371 38.1402 44.2974C39.1061 43.5846 40.5106 43.9834 41.263 44.2879C42.555 44.8053 42.7397 45.3139 47.5946 50.9188V66.8543C44.9641 63.2914 42.5471 59.5657 40.3571 55.6979H40.3563ZM44.8251 75.2782C45.0835 72.1649 46.8247 69.0979 47.9145 69.0979H47.951C48.233 69.1159 48.9329 70.1356 50.155 72.3085C52.435 76.3473 50.763 74.0355 55.399 81.5762C55.2299 81.4259 55.024 81.3265 54.8039 81.2889C53.9725 81.1319 53.3212 81.7599 52.622 82.413C51.8954 83.0905 50.9006 84.0184 50.874 85.396C50.8603 86.2595 51.2274 86.8514 51.8369 87.8295C52.0696 88.1956 52.3234 88.5469 52.5969 88.8814C52.0546 88.472 51.5429 88.0209 51.0662 87.532C49.2042 85.7116 48.0749 84.6895 46.8277 82.6179C45.4057 80.4612 44.7029 77.8845 44.8259 75.2782H44.8251ZM55.9439 83.6455C56.4683 84.5482 56.922 85.4165 57.3347 86.2941C57.4449 88.602 56.1187 89.6625 54.1822 89.4576C53.5293 88.8541 52.9572 88.1632 52.4814 87.4033C51.9152 86.495 51.6309 86.039 51.6408 85.4102C51.6575 84.374 52.4768 83.6102 53.138 82.9939C53.7179 82.4499 54.2187 81.9734 54.6785 82.0637C54.8761 82.0983 55.1208 82.2498 55.9447 83.6455H55.9439ZM45.1048 86.8067C45.3565 85.6285 45.8299 84.5128 46.4979 83.523C47.7276 85.4008 48.4252 86.0272 50.5502 88.1035C51.1773 88.786 51.8966 89.3714 52.6858 89.8415C53.9336 90.9298 54.9834 92.2393 55.7858 93.7084C56.1592 94.3708 56.4952 95.0548 56.7921 95.7573C56.6697 95.6003 56.5489 95.4535 56.4356 95.3341C56.0403 94.8077 55.467 94.455 54.8305 94.3466C53.8691 94.2799 53.1897 95.061 52.5916 95.7486C51.8202 96.62 51.0237 97.5219 51.1111 98.7803C51.166 99.3903 51.4053 99.967 51.7951 100.429C51.2851 99.9075 50.7873 99.3345 50.3207 98.7976C47.7154 95.7887 44.1419 91.6635 45.1056 86.8067H45.1048ZM53.0734 100.728C52.4038 99.9986 51.9205 99.4719 51.8688 98.7246C51.805 97.8022 52.4593 97.0619 53.1547 96.2761C53.7627 95.5806 54.2286 95.0759 54.7796 95.13C55.2282 95.2368 55.625 95.5057 55.8983 95.8884C56.5147 96.5725 56.9991 97.3718 57.3256 98.2434C57.3331 98.6907 57.2762 99.1368 57.1569 99.5669C56.843 100.666 56.1134 102.018 55.0122 102.204C54.2885 101.831 53.6328 101.332 53.0742 100.728H53.0734ZM54.4581 103.412C54.3674 103.996 54.1745 104.559 53.8889 105.072C53.5545 105.667 53.1372 106.407 52.5034 106.509C52.216 106.502 51.9331 106.434 51.6727 106.308C51.4123 106.182 51.1802 106.001 50.991 105.778C50.607 105.475 50.2963 105.084 50.0831 104.636C49.8698 104.188 49.76 103.695 49.7621 103.196C49.8076 102.727 49.9615 102.276 50.2106 101.881C50.4597 101.486 50.7969 101.159 51.1939 100.926C51.9897 101.883 53.03 102.589 54.1959 102.964C54.2956 103.106 54.3845 103.256 54.4619 103.412H54.4581ZM44.4079 95.4378C44.5826 94.6213 44.8969 93.8435 45.3358 93.1409C46.5486 95.4113 48.0489 97.5047 49.7971 99.3659C50.0767 99.6885 50.3625 100.018 50.6543 100.341C50.1939 100.646 49.8065 101.055 49.521 101.537C49.2355 102.019 49.0594 102.562 49.0059 103.124C48.993 103.745 49.1197 104.36 49.376 104.921C49.6322 105.482 50.011 105.974 50.4826 106.358C50.9731 106.896 51.6371 107.231 52.3499 107.3C53.4329 107.3 54.0295 106.379 54.547 105.461C54.6367 105.304 54.718 105.137 54.7925 104.971C54.7706 105.4 54.6802 105.823 54.525 106.221C54.3241 106.872 53.8906 107.419 53.3128 107.75C52.4304 108.106 50.7683 107.378 49.0773 105.902C46.301 103.481 43.6555 99.1689 44.4079 95.4378ZM89.4827 114.405H52.78C51.6789 114.404 50.6231 113.951 49.8445 113.147C49.0658 112.343 48.6279 111.252 48.6266 110.115V106.537C49.8799 107.624 52.0687 109.095 53.5887 108.485C54.2894 108.13 54.8366 107.518 55.1231 106.768H87.3266C87.4907 109.448 88.227 112.057 89.4827 114.408V114.405ZM94.2707 84.6864C94.7616 84.8013 95.2604 84.8769 95.7626 84.9125L96.0491 85.5405C95.4411 86.5311 94.8521 87.5485 94.2707 88.5769V84.6864ZM82.8418 65.8071C81.8158 68.1449 82.6245 70.554 83.161 72.1492C83.921 74.3927 85.0398 75.9172 87.2688 78.9512C90.0086 82.6784 91.2094 83.4783 92.123 83.9375C92.5709 84.1567 93.0343 84.3403 93.5092 84.487V89.9428C92.8731 91.1077 92.2514 92.2876 91.6548 93.4823C88.9872 98.825 87.2825 102.022 87.3008 105.983H55.3914C55.539 105.487 55.5889 104.965 55.5383 104.449C55.4876 103.932 55.3374 103.431 55.0965 102.975C55.1725 102.963 55.2485 102.965 55.3245 102.946C56.9866 102.506 57.7041 100.419 57.885 99.7898C58.6024 97.299 57.3575 95.0013 56.4463 93.3183C55.8332 92.1991 55.0827 91.1664 54.2134 90.2458C57.0079 90.4813 58.8448 88.4065 57.8067 84.4729C57.5818 83.7281 57.2434 83.025 56.8043 82.3903C51.7601 74.209 53.0939 76.1189 51.4485 73.0653V35.3649C51.4485 34.7412 51.688 34.143 52.1144 33.7016C52.5409 33.2601 53.1194 33.0113 53.7232 33.0099H91.236C91.8395 33.0117 92.4177 33.2607 92.8438 33.7021C93.2699 34.1436 93.5092 34.7415 93.5092 35.3649V69.1458C93.2645 68.8734 93.003 68.5884 92.7044 68.2823C88.9302 64.3753 85.0565 60.7777 82.8418 65.8071ZM91.0096 70.8021C90.4114 70.537 89.8798 70.1343 89.4554 69.6246C87.8371 68.0803 86.5285 66.2226 85.6037 64.1571C87.5934 64.1061 90.4122 67.0168 92.1663 68.8318C92.889 69.5799 93.3724 70.1498 93.9903 70.8728C93.003 71.0669 91.9872 71.0429 91.0096 70.8021ZM94.2692 70.0171V35.3601C94.2674 34.5298 93.9473 33.734 93.3788 33.1469C92.8104 32.5597 92.0399 32.2291 91.236 32.2272H53.7141C52.9103 32.2311 52.1408 32.5637 51.5738 33.1521C51.0068 33.7406 50.6885 34.537 50.6885 35.3672V71.6978C49.3676 69.3663 48.7976 68.6316 48.3553 68.4102V32.7948C48.3569 31.4161 48.888 30.0943 49.8319 29.1195C50.7758 28.1447 52.0555 27.5964 53.3903 27.5949H90.85C92.1873 27.5955 93.4699 28.1429 94.4177 29.1174C95.3654 30.0919 95.9011 31.4143 95.9078 32.7955V71.8155C95.3252 71.2514 94.778 70.6497 94.2692 70.014V70.0171Z" fill="black"/>
<path d="M20.8699 23.6229C20.5526 23.6243 20.242 23.5284 19.9775 23.3473C19.713 23.1662 19.5065 22.908 19.3842 22.6056C19.2618 22.3032 19.2291 21.97 19.2903 21.6484C19.3514 21.3268 19.5036 21.0311 19.7276 20.7989C19.9515 20.5667 20.2372 20.4084 20.5483 20.344C20.8595 20.2796 21.1821 20.3121 21.4754 20.4373C21.7687 20.5626 22.0194 20.7749 22.1957 21.0474C22.372 21.3199 22.4661 21.6403 22.4659 21.9681C22.4653 22.4057 22.2972 22.8253 21.9982 23.1353C21.6992 23.4453 21.2936 23.6206 20.8699 23.6229ZM20.8699 21.0975C20.703 21.0961 20.5393 21.146 20.3998 21.2408C20.2603 21.3356 20.1512 21.4711 20.0864 21.63C20.0215 21.789 20.0039 21.9642 20.0356 22.1336C20.0674 22.3029 20.1471 22.4587 20.2647 22.5811C20.3823 22.7036 20.5325 22.7872 20.6961 22.8214C20.8598 22.8556 21.0296 22.8387 21.184 22.7731C21.3384 22.7074 21.4705 22.5958 21.5634 22.4525C21.6563 22.3092 21.7059 22.1406 21.7059 21.9681C21.7057 21.7386 21.6178 21.5184 21.4612 21.3555C21.3047 21.1926 21.0922 21.1002 20.8699 21.0983V21.0975Z" fill="black"/>
<path d="M24.7984 21.7263C24.4815 21.7263 24.1718 21.6293 23.9083 21.4474C23.6448 21.2656 23.4395 21.0072 23.3182 20.7048C23.197 20.4024 23.1653 20.0697 23.2271 19.7487C23.2889 19.4277 23.4415 19.1328 23.6655 18.9014C23.8896 18.67 24.175 18.5124 24.4858 18.4485C24.7966 18.3847 25.1187 18.4175 25.4115 18.5427C25.7042 18.668 25.9544 18.8801 26.1304 19.1522C26.3065 19.4243 26.4004 19.7442 26.4004 20.0715C26.3998 20.5102 26.2309 20.9308 25.9305 21.2409C25.6302 21.5511 25.2231 21.7257 24.7984 21.7263ZM24.7984 19.2017C24.6318 19.2017 24.469 19.2528 24.3305 19.3483C24.1921 19.4439 24.0841 19.5797 24.0204 19.7387C23.9567 19.8976 23.94 20.0725 23.9725 20.2412C24.005 20.4099 24.0852 20.5649 24.2029 20.6866C24.3207 20.8082 24.4707 20.891 24.6341 20.9246C24.7974 20.9582 24.9667 20.9409 25.1206 20.8751C25.2745 20.8093 25.406 20.6978 25.4985 20.5548C25.5911 20.4117 25.6404 20.2436 25.6404 20.0715C25.6408 19.957 25.6194 19.8435 25.5772 19.7376C25.5351 19.6317 25.4732 19.5354 25.3949 19.4542C25.3167 19.373 25.2238 19.3086 25.1214 19.2646C25.019 19.2206 24.9092 19.1979 24.7984 19.1978V19.2017Z" fill="black"/>
<path d="M29.1111 19.821C28.7942 19.8209 28.4845 19.7237 28.2211 19.5417C27.9578 19.3598 27.7525 19.1012 27.6314 18.7988C27.5103 18.4964 27.4787 18.1636 27.5407 17.8427C27.6027 17.5217 27.7554 17.2269 27.9795 16.9956C28.2037 16.7643 28.4892 16.6068 28.8 16.5431C29.1108 16.4794 29.433 16.5123 29.7256 16.6377C30.0183 16.7631 30.2684 16.9753 30.4443 17.2476C30.6203 17.5198 30.7141 17.8398 30.7139 18.167C30.7133 18.6058 30.5442 19.0264 30.2437 19.3365C29.9432 19.6466 29.5359 19.8208 29.1111 19.821ZM29.1111 17.2973C28.9446 17.2974 28.7818 17.3486 28.6435 17.4442C28.5051 17.5399 28.3973 17.6758 28.3336 17.8347C28.27 17.9937 28.2535 18.1685 28.286 18.3372C28.3186 18.5059 28.3989 18.6608 28.5167 18.7823C28.6345 18.9039 28.7845 18.9867 28.9478 19.0202C29.1112 19.0537 29.2804 19.0364 29.4343 18.9705C29.5881 18.9047 29.7196 18.7932 29.8121 18.6502C29.9046 18.5072 29.9539 18.339 29.9539 18.167C29.9537 17.9363 29.8648 17.7151 29.7068 17.552C29.5488 17.3889 29.3345 17.2973 29.1111 17.2973Z" fill="black"/>
<path d="M14.5163 124.532C14.1947 124.532 13.8804 124.434 13.6131 124.249C13.3458 124.065 13.1374 123.803 13.0144 123.496C12.8913 123.189 12.8591 122.851 12.9219 122.526C12.9846 122.2 13.1394 121.901 13.3668 121.666C13.5941 121.431 13.8838 121.271 14.1991 121.206C14.5145 121.142 14.8413 121.175 15.1384 121.302C15.4354 121.429 15.6893 121.644 15.8679 121.92C16.0466 122.196 16.1419 122.521 16.1419 122.853C16.1415 123.298 15.9701 123.725 15.6653 124.04C15.3605 124.355 14.9473 124.532 14.5163 124.532ZM14.5163 121.96C14.345 121.96 14.1776 122.012 14.0353 122.111C13.8929 122.209 13.7819 122.349 13.7164 122.512C13.651 122.675 13.6339 122.855 13.6673 123.029C13.7008 123.202 13.7833 123.361 13.9044 123.486C14.0256 123.611 14.1799 123.697 14.3479 123.731C14.5158 123.765 14.6899 123.748 14.8481 123.68C15.0062 123.612 15.1414 123.497 15.2364 123.35C15.3314 123.203 15.3821 123.03 15.3819 122.853C15.3817 122.616 15.2904 122.389 15.1281 122.221C14.9658 122.054 14.7457 121.96 14.5163 121.96Z" fill="black"/>
<path d="M19.11 124.264C18.7885 124.264 18.4741 124.166 18.2068 123.981C17.9394 123.797 17.7311 123.535 17.608 123.228C17.485 122.921 17.4529 122.583 17.5157 122.258C17.5785 121.932 17.7334 121.633 17.9608 121.398C18.1882 121.163 18.4779 121.003 18.7933 120.938C19.1087 120.874 19.4356 120.907 19.7326 121.034C20.0297 121.162 20.2835 121.377 20.4621 121.653C20.6406 121.929 20.7358 122.254 20.7357 122.586C20.7351 123.031 20.5636 123.458 20.2588 123.772C19.954 124.087 19.5409 124.264 19.11 124.264ZM19.11 121.692C18.9388 121.692 18.7714 121.744 18.6291 121.843C18.4867 121.941 18.3758 122.081 18.3103 122.244C18.2447 122.407 18.2276 122.587 18.261 122.761C18.2944 122.934 18.3769 123.093 18.4979 123.218C18.619 123.343 18.7732 123.429 18.9411 123.463C19.1091 123.498 19.2831 123.48 19.4413 123.412C19.5995 123.345 19.7347 123.23 19.8298 123.083C19.9249 122.936 19.9757 122.763 19.9757 122.586C19.9755 122.349 19.8842 122.122 19.7219 121.954C19.5596 121.787 19.3395 121.692 19.11 121.692Z" fill="black"/>
<path d="M23.7031 123.86C23.3815 123.861 23.0671 123.762 22.7997 123.578C22.5323 123.393 22.3238 123.131 22.2006 122.824C22.0775 122.518 22.0452 122.18 22.1078 121.854C22.1704 121.528 22.3252 121.229 22.5525 120.994C22.7798 120.759 23.0695 120.599 23.3849 120.535C23.7002 120.47 24.0271 120.503 24.3242 120.63C24.6213 120.757 24.8753 120.972 25.0539 121.248C25.2326 121.525 25.3279 121.849 25.3279 122.181C25.3275 122.626 25.1562 123.053 24.8516 123.368C24.547 123.683 24.134 123.86 23.7031 123.86ZM23.7031 121.287C23.5318 121.287 23.3644 121.339 23.2219 121.438C23.0795 121.536 22.9684 121.675 22.9028 121.839C22.8371 122.002 22.8199 122.182 22.8532 122.355C22.8865 122.529 22.9689 122.688 23.0899 122.813C23.211 122.938 23.3652 123.024 23.5331 123.058C23.7011 123.093 23.8752 123.075 24.0334 123.007C24.1916 122.94 24.3268 122.825 24.422 122.678C24.5172 122.531 24.5679 122.358 24.5679 122.181C24.5677 121.944 24.4766 121.717 24.3144 121.55C24.1523 121.382 23.9324 121.288 23.7031 121.287Z" fill="black"/>
<path d="M122.371 108.809C122.004 108.852 121.634 108.764 121.323 108.56C121.011 108.356 120.777 108.047 120.658 107.686C120.611 107.48 120.612 107.266 120.663 107.061C120.713 106.855 120.811 106.666 120.948 106.509C121.076 106.36 121.218 106.224 121.373 106.104C121.602 105.922 121.881 105.818 122.17 105.807C122.46 105.797 122.745 105.88 122.987 106.045C123.963 105.662 124.816 105.004 125.448 104.145C125.408 104.08 125.365 104.017 125.318 103.957C125.089 103.692 124.965 103.349 124.969 102.994C124.972 102.639 125.104 102.299 125.338 102.04C125.417 101.951 125.501 101.869 125.59 101.792C125.843 101.566 126.173 101.453 126.507 101.478C126.841 101.503 127.152 101.664 127.371 101.926C128.637 103.512 127.624 105.364 126.209 106.823C125.308 107.747 123.743 108.809 122.371 108.809ZM121.86 106.707C121.708 106.819 121.573 106.954 121.46 107.108C121.425 107.166 121.401 107.232 121.391 107.3C121.38 107.368 121.382 107.437 121.398 107.505C121.413 107.572 121.441 107.635 121.48 107.691C121.519 107.747 121.569 107.794 121.626 107.831C122.712 108.5 124.642 107.324 125.665 106.276C126.74 105.167 127.764 103.65 126.805 102.445C126.761 102.392 126.708 102.349 126.647 102.317C126.587 102.286 126.521 102.267 126.454 102.263C126.239 102.229 126.079 102.381 125.922 102.543C125.809 102.656 125.741 102.808 125.732 102.971C125.723 103.133 125.773 103.293 125.873 103.418C126.02 103.599 126.143 103.798 126.24 104.011C126.269 104.073 126.281 104.143 126.275 104.211C126.27 104.28 126.247 104.347 126.208 104.403C125.449 105.526 124.369 106.376 123.119 106.833C123.046 106.878 122.961 106.897 122.876 106.887C122.792 106.876 122.713 106.837 122.653 106.775C122.551 106.667 122.414 106.601 122.269 106.588C122.123 106.576 121.978 106.618 121.86 106.707Z" fill="black"/>
<path d="M21.424 34.3092C10.2718 34.3092 4.35973 25.054 9.88569 15.8522C14.3697 8.38219 24.6297 4.17537 32.8552 6.43225C41.1673 8.71503 44.246 16.7283 39.7134 24.2777C35.9841 30.4894 28.3879 34.3084 21.424 34.3092ZM28.1736 6.60652C21.4483 6.60652 14.1082 10.3094 10.5324 16.262C6.27037 23.36 9.11961 30.7884 16.9392 32.9346C24.8356 35.1083 34.7567 31.0412 39.0666 23.8632C44.2597 15.2195 38.7771 6.60652 28.1736 6.60652Z" fill="black"/>
<path d="M9.80595 135.172C2.10943 129.943 1.60859 120.728 8.69179 114.641C12.4041 111.603 16.9555 109.864 21.6878 109.675C32.0276 109.085 40.8041 115.077 41.2365 123.053C41.4478 126.939 39.6793 130.699 36.2562 133.64C29.3228 139.596 17.5093 140.404 9.80595 135.172ZM23.1151 110.42C18.1895 110.42 13.0215 111.942 9.17743 115.244C2.48943 120.99 2.95303 129.577 10.224 134.516C17.5314 139.48 28.9868 138.865 35.7721 133.035C39.0052 130.258 40.6772 126.729 40.4796 123.097C40.0897 115.907 32.4296 110.42 23.1151 110.42Z" fill="black"/>
<path d="M122.164 116.699C115.008 116.699 109.039 112.688 108.29 106.984C107.448 100.569 113.524 94.4047 121.83 93.239C125.615 92.6387 129.487 93.2985 132.885 95.123C139.427 98.8415 140.402 106.27 135.054 111.653C131.688 115.04 126.771 116.698 122.164 116.699ZM121.933 94.0161C114.039 95.1191 108.257 100.891 109.043 106.878C109.829 112.864 116.891 116.833 124.782 115.73C128.424 115.29 131.835 113.665 134.523 111.089C139.504 106.077 138.613 99.2741 132.518 95.8106C129.263 94.0685 125.556 93.44 121.933 94.0161Z" fill="black"/>
<path d="M126.161 53.5338C113.733 53.5338 107.182 43.2314 113.322 33.0052C116.014 28.7516 119.947 25.4932 124.551 23.7014C134.555 19.599 145.105 22.5349 148.069 30.2459C151.033 37.957 145.303 47.5662 135.301 51.6686C132.395 52.8785 129.294 53.5113 126.161 53.5338ZM133.69 22.6283C126.175 22.6283 117.977 26.7425 113.968 33.4189C109.196 41.3663 112.391 49.688 121.144 52.0933C125.772 53.2384 130.632 52.834 135.022 50.9385C144.637 46.9971 150.174 37.8432 147.366 30.5356C145.425 25.4943 140.014 22.6283 133.69 22.6283Z" fill="black"/>
</svg>
