<svg width="153" height="158" viewBox="0 0 153 158" fill="none" xmlns="http://www.w3.org/2000/svg">
<path d="M121.095 144.487L139.796 23.4875C140.524 18.7782 137.418 14.351 132.859 13.5992L78.2062 4.58776C73.6469 3.83597 69.3607 7.04421 68.6329 11.7536L49.9319 132.754C49.2041 137.463 52.3102 141.891 56.8696 142.642L111.522 151.654C116.081 152.406 120.367 149.197 121.095 144.487Z" fill="#81F8F8"/>
<path d="M140.033 18.0308C138.209 15.2935 135.182 13.7039 132.899 13.3271L78.2477 4.31523C73.5539 3.5373 69.1186 6.85628 68.3692 11.7092L49.6679 132.709C48.7612 138.572 53.8623 143.59 58.927 144.424L112.959 153.334C117.8 154.132 122.366 150.714 123.14 145.714L141.743 25.3533C142.123 22.8978 141.499 20.2288 140.034 18.0308H140.033ZM50.193 132.796L68.8944 11.7955C69.5996 7.23151 73.7447 4.12997 78.1633 4.85767L132.814 13.8687C137.222 14.5956 140.235 18.8903 139.531 23.4418L120.83 144.443C120.124 149.007 115.979 152.108 111.561 151.38L56.9099 142.369C52.5019 141.642 49.4893 137.348 50.193 132.796Z" fill="black"/>
<path d="M114.698 20.0593C115.498 20.0593 116.146 19.3897 116.146 18.5638C116.146 17.7379 115.498 17.0684 114.698 17.0684C113.899 17.0684 113.25 17.7379 113.25 18.5638C113.25 19.3897 113.899 20.0593 114.698 20.0593Z" fill="black"/>
<path d="M97.065 11.5891C97.024 11.856 97.1996 12.1072 97.4587 12.1496L112.282 14.5941C112.54 14.6365 112.783 14.4551 112.824 14.1875C112.865 13.9198 112.69 13.6694 112.431 13.627L97.6077 11.1825C97.3493 11.1401 97.1061 11.3214 97.065 11.5891Z" fill="black"/>
<path d="M88.892 12.181C89.4901 12.2799 89.8975 12.86 89.8017 13.4778L89.6664 14.3531C89.3518 16.387 90.6939 18.3 92.6631 18.6242L114.887 22.2886C116.856 22.6136 118.708 21.2273 119.022 19.1934L119.157 18.3181C119.253 17.7003 119.815 17.2795 120.413 17.3784L130.162 18.9861C132.683 19.4022 134.401 21.8498 133.999 24.4536L115.704 142.819C115.397 144.807 113.588 146.161 111.665 145.844L59.5628 137.253C57.0419 136.837 55.3243 134.389 55.7263 131.785L73.8493 14.5352C74.2521 11.9313 76.6218 10.1572 79.1427 10.5725L88.892 12.1802V12.181Z" fill="white"/>
<path d="M66.0083 129.141L64.2581 126.812C64.0194 126.493 63.5748 126.417 63.2495 126.642L60.8738 128.274C60.5903 128.469 60.3965 128.779 60.3425 129.124L59.9321 131.717C59.866 132.138 60.1419 132.538 60.5523 132.608L64.9793 133.354C65.4201 133.42 65.7765 133.115 65.8404 132.714L66.25 130.122C66.304 129.776 66.2166 129.418 66.0083 129.141ZM65.3038 132.624C65.2841 132.746 65.1685 132.82 65.0659 132.8L64.0278 132.625L64.3956 130.295C64.4192 130.143 64.3227 129.999 64.1714 129.973C62.2927 129.637 62.2897 129.62 62.1567 129.717C62.0305 129.811 62.0753 129.724 61.6786 132.229C60.5561 132.04 60.5736 132.065 60.5052 131.969C60.4337 131.864 60.4368 132.02 60.8791 129.217C60.9095 129.024 61.0174 128.85 61.1747 128.743L63.5497 127.11C63.6409 127.05 63.7625 127.069 63.8294 127.158L65.5797 129.486C65.6952 129.64 65.7454 129.839 65.7142 130.032L65.3046 132.625L65.3038 132.624ZM62.2152 132.319L62.5397 130.266L63.8165 130.481L63.4912 132.534L62.2152 132.319Z" fill="black"/>
<path d="M73.403 132.496C74.882 131.62 74.7718 129.33 73.1667 128.64C72.1126 128.186 70.8859 128.692 70.4383 129.801C69.7809 131.426 71.2097 133.175 72.8999 132.711L73.669 134.64C73.8073 134.984 74.3097 134.766 74.1706 134.427L73.4023 132.497L73.403 132.496ZM70.9414 130.016C71.4688 128.707 73.2662 128.712 73.7914 130.022C74.3105 131.327 73.0428 132.642 71.7713 132.099C70.9847 131.76 70.6131 130.828 70.9414 130.017V130.016Z" fill="black"/>
<path d="M87.7492 129.63L82.0226 128.664C81.2519 128.533 80.5246 129.075 80.3985 129.871L79.4637 135.785C79.339 136.58 79.8627 137.332 80.6318 137.462C86.5773 138.468 86.407 138.447 86.5871 138.447C87.2825 138.447 87.8693 137.932 87.9825 137.222L88.9165 131.307C89.0419 130.514 88.5229 129.762 87.7492 129.63ZM88.38 131.216L87.4452 137.13C87.3684 137.619 86.9208 137.954 86.4465 137.873L80.7199 136.907C80.2457 136.827 79.9227 136.365 80.001 135.876L80.9358 129.961C81.0065 129.509 81.3857 129.206 81.7953 129.206C81.9002 129.206 82.4246 129.302 87.6618 130.184C88.136 130.264 88.4583 130.726 88.38 131.216Z" fill="black"/>
<path d="M86.7585 133.778C86.6658 133.643 86.7175 133.688 84.5021 133.314C84.8722 130.977 84.8851 131.086 84.7939 130.957C84.7103 130.838 84.5469 130.798 84.4177 130.89C84.284 130.987 84.3273 130.938 83.9655 133.224C81.7273 132.846 81.8132 132.829 81.6863 132.919C81.5624 133.011 81.5335 133.188 81.6224 133.314C81.7235 133.459 81.687 133.408 83.8789 133.777C83.5095 136.114 83.4958 136.005 83.5863 136.134C83.7276 136.337 84.0362 136.263 84.0757 136.016L84.4147 133.868C85.351 134.026 86.4598 134.223 86.5381 134.223C86.7654 134.223 86.8839 133.958 86.7585 133.779V133.778Z" fill="black"/>
<path d="M96.0014 138.733C95.8927 138.649 93.3444 136.644 93.7024 134.379C93.9654 132.724 96.0797 132.31 96.9187 133.721C98.153 132.653 100.025 133.754 99.7657 135.402C99.4062 137.668 96.373 138.73 96.2446 138.774C96.1625 138.802 96.0721 138.788 96.0014 138.733ZM94.2276 134.468C93.9585 136.164 95.7415 137.804 96.2096 138.202C96.7766 137.978 98.9722 137.007 99.2398 135.312C99.4427 134.038 97.8224 133.286 97.0563 134.366C96.9278 134.547 96.6542 134.501 96.5889 134.287C96.1967 133.025 94.4312 133.172 94.2276 134.467V134.468Z" fill="black"/>
<path d="M111.729 135.734C110.7 134.256 108.684 133.87 107.202 134.971C104.864 136.709 105.729 140.517 108.572 140.998C111.435 141.482 113.401 138.139 111.729 135.734ZM107.091 139.56C107.396 138.937 107.868 138.506 108.382 138.359C108.727 138.597 109.158 138.672 109.564 138.56C110.006 138.867 110.321 139.428 110.419 140.116C109.31 140.765 107.932 140.524 107.092 139.559L107.091 139.56ZM108.29 136.961C108.418 136.136 109.454 135.888 109.924 136.563C110.392 137.235 109.84 138.175 109.04 138.038C108.542 137.954 108.208 137.47 108.29 136.961ZM110.904 139.756C110.768 139.15 110.484 138.637 110.099 138.281C110.681 137.796 110.827 136.9 110.366 136.236C109.886 135.552 108.978 135.42 108.339 135.894C107.713 136.361 107.548 137.246 107.963 137.918C107.486 138.128 107.057 138.523 106.741 139.057C105.659 137.079 107.235 134.555 109.53 134.938C111.774 135.314 112.569 138.206 110.904 139.756Z" fill="black"/>
<path d="M84.126 19.6699C81.8977 16.6893 77.2435 17.9602 76.7723 21.729C76.4827 24.0565 78.0742 26.1964 80.3359 26.4971C83.9596 26.9822 86.3665 22.6694 84.126 19.6699ZM79.9848 23.0854C80.4188 23.3728 80.9834 23.4685 81.5177 23.2872C82.1516 23.6797 82.6174 24.4458 82.771 25.4035C81.352 26.3298 79.4422 26.1203 78.252 24.8022C78.6343 23.916 79.275 23.2997 79.9848 23.0854ZM79.7097 21.3529C79.8541 20.1982 81.2776 19.8159 81.9532 20.7242C82.3727 21.2854 82.2846 22.1026 81.7237 22.5485C80.8406 23.2519 79.5691 22.4951 79.7097 21.3529ZM82.0581 22.9897C82.8378 22.3656 82.9982 21.203 82.3841 20.3811C81.7754 19.5671 80.6468 19.4171 79.8571 20.0444C79.0781 20.6653 78.9185 21.8287 79.5296 22.6506C78.8646 22.9434 78.2778 23.525 77.8788 24.3116C76.2076 21.7117 78.2505 18.209 81.3209 18.6031C84.3761 19.0082 85.5138 22.9434 83.2536 25.0275C83.059 24.1617 82.6311 23.4473 82.0581 22.9897Z" fill="black"/>
<path d="M104.944 26.2192C104.843 26.0724 104.953 26.0669 93.2867 24.2135C92.9303 24.157 92.8489 24.7104 93.2016 24.7677L104.724 26.6643C104.944 26.6643 105.074 26.4052 104.944 26.2192Z" fill="black"/>
<path d="M101.836 27.7107C92.7348 26.2247 92.8632 26.1846 92.7249 26.2914C92.5995 26.3848 92.5782 26.5606 92.6641 26.6831C92.7675 26.8299 92.6634 26.7663 101.758 28.2664C102.135 28.2916 102.166 27.7648 101.836 27.7107Z" fill="black"/>
<path d="M121.638 29.2147L110.159 27.3221C110.014 27.3001 109.873 27.4037 109.848 27.556C109.825 27.7075 109.926 27.852 110.074 27.8771L121.56 29.7705C121.931 29.7941 121.976 29.272 121.639 29.2147H121.638Z" fill="black"/>
<path d="M118.707 30.8184C109.617 29.2908 109.736 29.2932 109.596 29.3992C109.469 29.4957 109.45 29.6716 109.535 29.7909C109.639 29.9392 109.523 29.8733 118.664 31.3766C118.997 31.3766 119.036 30.8734 118.708 30.8184H118.707Z" fill="black"/>
<path d="M128.464 39.7981L122.523 38.7682C122.356 38.7415 122.192 38.7823 122.058 38.8836C121.777 39.0932 121.876 38.8357 121.174 43.4876C121.121 43.8385 121.353 44.1682 121.691 44.2231L127.633 45.2538C127.804 45.2805 127.964 45.2389 128.099 45.1384C128.384 44.9218 128.293 45.096 128.982 40.5344C129.035 40.1843 128.802 39.8546 128.464 39.7981ZM128.444 40.4465L127.811 44.6298C127.791 44.782 127.878 44.6792 121.778 43.6697C121.656 43.6493 121.73 43.7772 122.344 39.3915C122.351 39.3483 122.387 39.3208 122.424 39.3208C128.825 40.4284 128.462 40.3272 128.444 40.4465Z" fill="black"/>
<path d="M126.779 41.343L124.973 42.599L123.684 40.8107C123.472 40.514 123.033 40.8484 123.248 41.1467C124.788 43.2788 124.72 43.2615 124.911 43.2615C125.028 43.2615 124.895 43.3275 127.083 41.8085C127.381 41.602 127.078 41.1373 126.78 41.343H126.779Z" fill="black"/>
<path d="M120.288 22.9504C120.003 22.9041 119.81 22.6278 119.855 22.3334L119.97 21.5869C120.015 21.2925 120.282 21.0923 120.567 21.1394C120.852 21.1865 121.046 21.4621 121.001 21.7564L120.886 22.503C120.841 22.7974 120.573 22.9975 120.288 22.9504Z" fill="black"/>
<path d="M122.064 23.2259C121.779 23.1796 121.586 22.9033 121.631 22.6089L121.857 21.141C121.902 20.8466 122.169 20.6464 122.454 20.6935C122.739 20.7406 122.933 21.0161 122.887 21.3105L122.662 22.7785C122.617 23.0728 122.349 23.273 122.064 23.2259Z" fill="black"/>
<path d="M124.452 23.2118C124.407 23.5062 124.14 23.7064 123.855 23.6593C123.57 23.6122 123.376 23.3366 123.422 23.0422L123.729 21.046C123.774 20.7516 124.041 20.5514 124.326 20.5985C124.611 20.6456 124.805 20.9212 124.759 21.2156L124.452 23.2118Z" fill="black"/>
<path d="M131.282 22.1568C131.173 22.0006 131.011 21.8985 130.827 21.8687L127.322 21.2933C126.943 21.2329 126.584 21.5005 126.523 21.8923L126.32 23.2111C126.26 23.6051 126.52 23.9741 126.9 24.0361C129.303 24.4294 130.43 24.6201 130.515 24.6201C130.852 24.6201 131.149 24.3666 131.204 24.0125C131.433 22.5258 131.49 22.4528 131.282 22.1568ZM126.795 23.485C126.709 23.3626 126.728 23.4128 126.951 21.9629C126.974 21.8138 127.11 21.7125 127.253 21.7353L128.8 21.9888L128.514 23.8477C126.791 23.5651 126.88 23.6059 126.795 23.485Z" fill="black"/>
<path d="M52.6216 115.861L58.0829 116.747L57.8679 117.965L52.4263 117.106L52.6216 115.861Z" fill="black"/>
<path d="M130.204 18.7154L120.455 17.1077C119.708 16.9836 119.014 17.5088 118.894 18.275L118.759 19.1495C118.467 21.0303 116.746 22.3185 114.928 22.0171L92.7038 18.3519C90.8874 18.0536 89.6357 16.2889 89.929 14.3955L90.0643 13.5202C90.1821 12.7541 89.6744 12.0319 88.9342 11.9086L79.1842 10.3009C76.5219 9.8637 74.0131 11.7296 73.5868 14.4921L55.4646 131.74C55.039 134.49 56.8592 137.085 59.5215 137.524L111.623 146.115C113.671 146.455 115.635 145.019 115.967 142.862L134.261 24.4961C134.688 21.74 132.873 19.1526 130.204 18.7138L130.204 18.7154ZM115.441 142.777C115.156 144.621 113.477 145.87 111.706 145.573L59.6043 136.982C57.2316 136.59 55.6097 134.278 55.989 131.828L57.4892 122.121L117.11 131.974L115.44 142.776L115.441 142.777ZM57.5736 121.579L70.5589 37.564L130.175 47.444L117.194 131.432L57.5736 121.579ZM133.735 24.4097L130.259 46.9008L70.6433 37.0208L74.1119 14.5784C74.4532 12.3678 76.3091 10.7876 78.4112 10.7876C78.9486 10.7876 78.4652 10.7413 88.8491 12.4518C89.3013 12.5264 89.6106 12.9668 89.5384 13.4347L89.4031 14.3092C89.0649 16.4946 90.5036 18.5458 92.6194 18.8951L114.844 22.5603C116.957 22.9041 118.947 21.4165 119.284 19.2366L119.419 18.3621C119.492 17.8942 119.927 17.5724 120.37 17.6509L130.12 19.2586C132.497 19.6503 134.115 21.9558 133.735 24.4105L133.735 24.4097Z" fill="black"/>
<path d="M50.8202 32.5541L41.1081 20.0373C40.9447 19.8308 40.624 19.9258 40.5898 20.1848L38.4299 36.0685L22.1317 30.152C21.8687 30.0554 21.6324 30.3671 21.7935 30.6081L32.2093 46.3552L10.8495 51.3627C10.5804 51.4255 10.5379 51.8023 10.7849 51.9295L31.1179 62.2444L16.0228 71.0191C15.7697 71.1643 15.8579 71.5631 16.1436 71.5843L32.7854 72.8583L28.4534 86.2222C28.3781 86.4538 28.5871 86.6743 28.8075 86.61L42.9344 82.6897C43.3068 82.5853 43.1578 82.002 42.7816 82.1049L29.1822 85.8807L33.4602 72.6833C33.5226 72.491 33.3911 72.2986 33.2049 72.2853L17.1544 71.056L31.8901 62.4908C32.0938 62.3723 32.0884 62.0646 31.8749 61.9555L11.7858 51.7654L32.7588 46.8489C32.9602 46.7995 33.0514 46.5601 32.9351 46.3826L22.7807 31.0296C38.7833 36.8386 38.6389 36.8527 38.8236 36.7358C39.006 36.618 38.9292 36.7444 41.0754 20.9636C50.4926 33.1004 50.3687 33.0204 50.5595 33.0447C50.8202 33.0777 50.9813 32.7598 50.8202 32.5557V32.5541Z" fill="black"/>
<path d="M120.066 34.0652L57.9456 23.8642C57.5314 23.7959 57.1415 24.0879 57.0754 24.5165L43.387 113.451C43.3209 113.879 43.6036 114.282 44.0186 114.35L106.139 124.551C106.553 124.62 106.943 124.328 107.009 123.899L120.697 34.9641C120.763 34.5362 120.481 34.1335 120.066 34.0652Z" fill="white"/>
<path d="M120.146 33.7724L57.9572 23.5603C57.4062 23.4669 56.8818 23.8563 56.7929 24.4325L43.0931 113.44C43.0057 114.012 43.3849 114.551 43.9382 114.642L106.127 124.854C106.666 124.949 107.204 124.555 107.292 123.981L120.992 34.975C121.079 34.4028 120.7 33.8635 120.146 33.7724ZM120.414 34.88C106.723 124.182 106.773 124.003 106.541 124.178C106.309 124.352 106.525 124.24 44.0302 114.046C43.7946 114.007 43.6335 113.778 43.6707 113.535C57.3256 24.226 57.3112 24.4121 57.5437 24.237C57.7755 24.0635 57.5795 24.0486 120.054 34.369C120.29 34.4083 120.451 34.6375 120.414 34.88Z" fill="black"/>
<path d="M107.059 93.8854L115.55 38.7101C115.616 38.282 115.333 37.8797 114.919 37.8116L61.9052 29.1065C61.4906 29.0385 61.1011 29.3304 61.0353 29.7585L52.5432 84.9332C52.4773 85.3618 52.7599 85.7637 53.1745 85.832L106.188 94.5369C106.602 94.6052 106.992 94.3132 107.059 93.8854Z" fill="black"/>
<path d="M109.412 61.3981C109.217 60.8392 108.942 60.2395 109.132 59.679C109.207 59.4592 109.349 59.2661 109.398 59.0392C109.526 58.4528 109.052 57.9284 108.678 57.4676C108.051 56.6944 108.855 56.4762 108.808 55.9487C108.762 55.4211 107.826 55.3301 107.556 54.823C107.286 54.3159 107.358 53.5662 107.853 53.2938C107.992 53.2169 108.177 53.1556 108.203 52.9947C108.251 52.7082 107.868 52.6061 106.168 51.7552C106.81 51.46 106.667 50.434 106.201 49.8916C105.735 49.3492 105.054 48.9786 104.774 48.3138C104.628 47.966 104.612 47.5759 104.512 47.2108C104.207 46.0953 102.83 47.7258 101.886 47.0978C102.288 46.5703 102.279 45.7546 101.868 45.2358C101.323 44.5489 98.8235 43.5983 98.483 43.1547C98.1562 42.7293 98.9086 42.0071 98.6837 41.642C98.4587 41.2762 97.8431 41.4568 97.4228 41.3634C98.2657 40.1827 96.6606 40.3962 96.6378 39.8946C96.6142 39.393 97.7056 38.8168 97.457 38.4541C97.2078 38.0907 95.2492 38.3246 94.1662 38.5366C94.4072 37.8937 95.2409 37.0121 94.8898 36.6086C94.5386 36.2051 92.3878 36.5254 91.1939 36.8904C91.1939 36.5804 91.621 36.0999 91.1939 35.961C90.7675 35.822 89.0195 36.0709 87.9358 35.9359C83.6509 35.4013 83.3385 35.3181 82.7009 35.4421C82.2586 35.5285 81.8436 35.7396 81.3967 35.7969C80.9498 35.855 80.6702 35.1344 80.2438 35.2765C79.8167 35.4186 79.7323 36.1423 79.4762 36.5756C78.8986 36.4343 78.1964 35.6148 77.884 35.7828C77.5716 35.9508 77.751 36.3197 77.6841 36.5882C77.143 36.3904 76.0342 35.9288 75.5082 36.2561C74.9823 36.5835 75.6511 37.6613 75.2992 38.4384C75.2992 38.4384 73.8887 37.6691 73.3073 37.7728C72.7259 37.8764 72.2767 38.6802 72.6894 39.1151C72.0411 38.962 71.3138 39.375 71.0919 40.0218C70.0613 40.1238 68.9669 39.908 68.3984 41.2849C67.83 42.6618 66.7485 42.7685 65.9672 43.7207C65.1859 44.6729 65.3417 46.7273 64.8014 47.8443C63.9296 49.6475 62.95 49.7424 62.0775 51.5464C60.8159 54.1565 61.3912 54.1416 61.0378 55.1181C60.8881 55.531 60.5818 55.867 60.4344 56.2807C60.1205 57.1631 60.5879 58.2189 60.179 59.058C60.0164 59.3925 59.7261 59.6586 59.6174 60.0157C59.508 60.3729 59.7382 60.8785 60.0947 60.8062C59.53 62.7326 59.4601 62.8527 59.5437 63.1267C59.6068 63.3347 59.8522 63.4956 60.0339 63.3857C59.7899 64.2178 59.644 65.0806 59.6014 65.9488C59.5847 66.284 59.8165 66.7667 60.0848 66.5783C59.8363 67.0509 59.5802 67.5533 59.6007 68.091C59.6212 68.6288 60.0362 69.1893 60.5552 69.1453C60.8805 69.7081 61.522 69.7945 61.7021 70.4233C61.8495 70.9375 62.9827 71.0003 63.5314 70.596L63.58 70.625C63.4949 70.9068 63.5192 71.1502 63.3923 71.3613C63.2434 71.6086 62.9432 71.6965 62.7038 71.8504C62.3808 72.0584 62.1535 72.418 62.0973 72.8065C62.0182 73.3537 61.8366 73.1755 61.6215 73.2092C61.3221 73.2563 61.3084 73.7007 61.1184 73.944C60.8934 74.2313 60.4694 74.1858 60.1167 74.2494C59.1979 74.415 58.3809 77.2779 57.9849 78.15C57.6596 78.0307 57.2872 78.2034 57.0623 78.4742C56.8373 78.7451 56.7271 79.0952 56.6222 79.4351C56.5212 79.1179 56.0097 79.2749 55.8106 79.5991C55.0414 80.8536 55.0901 81.6527 54.4091 81.2892C53.8186 80.9737 53.0898 82.0986 52.8298 83.0814C52.69 83.7604 52.5486 84.5172 52.4422 85.1216C52.2925 85.9741 53.4356 85.8972 53.4356 85.8972L103.083 93.7762C103.532 92.8711 102.25 91.9181 102.4 90.9133C102.427 90.7367 102.497 90.5577 102.458 90.385C102.413 90.1896 102.245 90.0561 102.145 89.8826C101.896 89.4415 102.166 88.8566 102.002 88.3739C101.812 87.8173 101.092 87.5182 101.071 86.9287C101.052 86.4286 101.57 85.9451 101.349 85.5016C101.264 85.3257 101.084 85.2244 100.926 85.1138C100.025 84.463 100.664 83.7337 101.037 83.948C101.096 83.386 100.551 82.9809 100.09 82.674C99.6306 82.3647 99.1328 81.8513 99.3243 81.3214C99.3844 81.1597 99.506 81.0208 99.5326 80.8496C99.5866 80.4972 99.2271 80.2279 98.8934 80.1345C98.5621 80.0419 98.2976 79.5842 98.3257 79.2286C98.3341 79.1234 99.2719 77.4953 98.3531 76.6962C98.1015 76.4772 98.6593 74.9409 98.6593 74.9409C104.179 74.8632 102.689 73.7218 105.158 72.3756C105.504 72.1872 106.819 70.4916 107.132 70.4625C107.371 70.4405 107.582 70.2851 107.678 70.0575C108.096 69.0778 108.693 67.7975 109.617 67.1192C109.807 66.9795 109.939 66.7722 109.988 66.5367C110.227 65.3875 109.795 62.5065 109.41 61.4005L109.412 61.3981Z" fill="#FFD997"/>
<path d="M72.1744 63.4485C69.908 65.6544 65.1086 74.2776 70.2819 76.3265C72.3051 77.1279 74.1701 76.8085 75.4925 75.9544C78.2224 74.1913 79.4293 69.9287 80.5686 67.0862C76.4076 67.6522 74.1557 64.0169 72.1751 63.4478L72.1744 63.4485Z" fill="white"/>
<path d="M71.0372 86.073C70.9399 86.0558 70.8388 86.0934 70.7811 86.1759C70.1183 87.1351 69.1683 86.8761 68.6751 86.4051C68.1727 85.9247 68.0116 84.8476 69.2268 84.3492C69.3933 84.2809 69.4465 84.0658 69.3332 83.9229C67.887 82.0962 70.6063 80.5537 71.3085 82.6253C71.3777 82.8286 71.3533 82.7729 74.1638 83.2243C74.2619 83.24 74.3576 83.196 74.4177 83.1152C76.0448 80.9352 78.3484 83.9284 76.0235 85.197C75.8814 85.2747 75.8404 85.4576 75.93 85.5957C76.9948 87.2301 74.8098 89.1306 73.457 86.6186C73.3711 86.4585 73.4692 86.515 71.0372 86.073Z" fill="white"/>
<path d="M115.319 37.5718L61.5968 28.7508C61.2001 28.6888 60.8596 28.9674 60.8019 29.345L52.1971 85.2527C52.1371 85.6429 52.3955 86.011 52.7732 86.0731L106.606 94.9035C106.942 94.9035 107.236 94.6515 107.29 94.2999L115.894 38.3914C115.954 38.0012 115.697 37.6338 115.318 37.5718H115.319ZM115.317 38.2972L106.669 94.2771L52.8652 85.4757C52.7506 85.4568 55.6035 66.754 61.4235 29.367C97.3579 35.2456 115.322 38.2224 115.317 38.2972Z" fill="black"/>
<path d="M62.2254 88.5497C60.8939 88.3323 59.6345 89.2248 59.4309 90.5444C59.1801 92.1693 60.6218 93.5926 62.2641 93.339C63.6428 94.2559 63.5691 94.2268 63.677 94.2268C63.8556 94.2268 63.984 94.0494 63.9316 93.8728L63.5835 92.689C65.0039 91.3184 64.2234 88.8778 62.2254 88.5497ZM63.1131 92.3829C63.0287 92.4535 62.993 92.5697 63.0249 92.6772L63.2126 93.3155C62.4093 92.7817 62.4268 92.7754 62.3211 92.7754C62.2246 92.7754 61.9989 92.8633 61.5725 92.7926C60.5245 92.6207 59.7995 91.6505 59.9568 90.63C60.1141 89.6102 61.0907 88.9218 62.1425 89.0921C63.7758 89.3614 64.342 91.371 63.1131 92.3829Z" fill="black"/>
<path d="M54.2107 92.3287C54.3543 92.4198 54.5291 92.4488 54.6971 92.408C56.591 91.9362 58.5716 90.0358 57.4893 88.4972C56.9102 87.6729 55.7466 87.5991 55.0725 88.3472C54.6576 87.4209 53.529 87.1171 52.7287 87.7161C51.2429 88.8339 52.5387 91.2658 54.2107 92.3287ZM52.6269 88.8575C52.7082 88.3245 53.1566 87.9555 53.6475 87.9555C54.2092 87.9555 54.6697 88.4171 54.6849 88.9964C54.6887 89.1291 54.7959 89.3041 54.922 89.3238C55.0459 89.3465 55.201 89.2131 55.2443 89.089C55.5225 88.275 56.572 88.1274 57.0584 88.8198C57.2211 89.0506 57.2872 89.3332 57.2431 89.6158C57.12 90.4126 56.059 91.4864 54.5694 91.8742C54.5413 91.8813 54.5139 91.8766 54.4896 91.8609C53.1816 91.0288 52.5045 89.6535 52.6269 88.8575Z" fill="black"/>
<path d="M68.7711 95.2144C69.0303 95.3062 69.139 95.0495 71.3574 90.794C71.4577 90.6017 71.3088 90.3623 71.0861 90.3913C70.6278 90.4581 66.612 91.0421 66.5481 91.0531C66.3004 91.0955 66.2426 91.4369 66.4615 91.5641L68.3752 92.6717C68.4633 93.5368 68.5895 94.8109 68.5933 94.9098C68.5735 95.0425 68.648 95.172 68.7711 95.2144ZM67.4077 91.4825L70.6392 91.0115C70.0989 92.0461 69.4559 93.2731 69.0463 94.0439C68.8874 92.3578 68.9057 92.3491 68.7544 92.2612L67.4077 91.4825Z" fill="black"/>
<path d="M99.7675 99.9001L101.573 98.7194L102.935 100.42C103.079 100.6 103.367 100.523 103.403 100.288L104.109 95.7042C104.132 95.5512 104.029 95.413 103.887 95.3902C100.082 94.7646 100.301 94.7669 100.173 94.8619C100.046 94.9585 100.128 94.6343 99.3624 99.6245C99.3267 99.8553 99.5714 100.026 99.7675 99.9001ZM100.551 95.3989L103.542 95.8903L102.97 99.6018C101.769 98.1016 101.802 98.0836 101.629 98.0836C101.519 98.0836 101.603 98.049 99.9795 99.1111L100.551 95.3989Z" fill="black"/>
<path d="M105.272 102.987L51.5081 94.1593C51.1547 94.1036 50.8241 94.3493 50.7686 94.7135L48.3032 110.732C48.2485 111.096 48.4879 111.438 48.8398 111.497L102.604 120.325C102.97 120.382 103.289 120.122 103.343 119.771L105.809 103.752C105.865 103.389 105.625 103.047 105.272 102.987ZM105.283 103.665L102.818 119.684C102.81 119.739 102.687 119.782 102.687 119.782L48.8291 110.818C48.8291 110.818 51.2642 94.7802 51.3402 94.7222C109.025 104.157 105.313 103.484 105.284 103.665H105.283Z" fill="black"/>
<path d="M54.2874 98.016C54.2069 98.0027 54.1309 98.0584 54.1164 98.1408L54.0009 98.7955C53.9584 99.0389 51.0468 98.4611 97.7123 106.134C97.7929 106.147 97.8689 106.091 97.8833 106.009L97.9988 105.354C98.0414 105.111 100.957 105.666 54.2874 98.016Z" fill="black"/>
<path d="M89.9604 108.225C90.041 108.238 90.1169 108.183 90.1314 108.1L90.2469 107.445C90.2895 107.204 92.6265 107.646 53.8034 101.221C53.7228 101.208 53.6468 101.264 53.6324 101.346L53.5169 102.001C53.4743 102.242 51.132 101.818 89.9604 108.225Z" fill="black"/>
<path d="M53.3182 104.425C53.2377 104.411 53.1617 104.467 53.1472 104.55L53.0325 105.204C52.9907 105.44 50.3261 104.883 93.5747 111.96C93.6552 111.973 93.7312 111.918 93.7457 111.835L93.8604 111.18C93.9022 110.945 96.5668 111.502 53.3182 104.425Z" fill="black"/>
<path d="M52.8333 107.629C52.7527 107.616 52.6767 107.672 52.6623 107.754L52.5467 108.409C52.5042 108.65 50.25 108.227 88.193 114.513C88.2736 114.526 88.3496 114.47 88.364 114.388L88.4788 113.733C88.5221 113.492 90.7763 113.915 52.8333 107.629Z" fill="black"/>
<path d="M84.3169 44.5803C84.6657 44.4092 84.4172 43.8629 84.0676 44.0324C83.7613 44.1816 82.2193 44.9736 82.0392 45.9203C81.9214 46.5374 82.328 47.7565 83.3988 48.4418C83.5288 48.5265 83.7119 48.492 83.8016 48.3444C83.8875 48.2016 83.8427 48.0147 83.7066 47.9284C82.8433 47.3749 82.54 46.418 82.613 46.0381C82.6996 45.5851 83.5554 44.9485 84.3169 44.5803Z" fill="black"/>
<path d="M85.7636 45.691C85.2301 46.0043 84.8068 46.5153 85.3168 47.0051C85.8632 47.5303 88.6098 47.9817 88.375 47.1143C88.1265 46.1927 87.1734 44.8644 85.7636 45.691Z" fill="black"/>
<path d="M109.687 61.2969C109.52 60.8117 109.253 60.2363 109.408 59.7787C109.469 59.5965 109.622 59.3846 109.683 59.1059C109.834 58.4128 109.359 57.835 108.979 57.3687C108.705 57.0327 108.645 56.9644 108.87 56.6167C109.706 55.3246 108.054 55.1362 107.812 54.677C107.622 54.3213 107.647 53.7483 107.988 53.5607C108.196 53.4453 108.44 53.3487 108.491 53.0457C108.523 52.8503 108.469 52.5716 108.03 52.3518L106.694 51.683C107.075 51.113 106.86 50.2064 106.418 49.6906C105.967 49.167 105.28 48.7635 105.041 48.1929C104.813 47.6536 104.925 46.8591 104.402 46.586C103.794 46.2633 102.981 47.0138 102.316 46.9392C102.585 46.3206 102.498 45.556 102.092 45.0434C101.752 44.6156 100.863 44.1595 100.004 43.7183C99.9611 43.8086 99.9649 43.818 99.9855 43.7089C99.4664 43.442 98.8219 43.1108 98.7102 42.9655C98.5627 42.774 99.2399 41.9804 98.9275 41.478C98.6935 41.0996 98.2557 41.0933 97.9008 41.0925C98.2245 40.1749 97.1089 39.9731 96.9295 39.8546C97.0131 39.4707 98.1128 38.893 97.6925 38.2775C97.3756 37.8159 95.9278 37.936 94.7027 38.1323C95.0348 37.5796 95.5205 36.8826 95.1032 36.4045C94.5811 35.8055 92.2692 36.3064 91.627 36.4587C91.7569 36.0426 91.5905 35.7702 91.2789 35.669C90.7666 35.5018 89.0627 35.7687 87.9683 35.6321C83.3422 35.0559 83.1226 34.9397 82.0236 35.3181C81.2811 35.5732 81.3024 35.5355 81.0174 35.2874C80.8106 35.1069 80.5226 34.8596 80.151 34.986C79.6554 35.1509 79.5156 35.7435 79.3302 36.1941C78.7609 35.9013 78.2206 35.2576 77.7463 35.5112C77.44 35.6768 77.3967 35.961 77.396 36.1588C76.6261 35.8801 75.8562 35.6823 75.3546 35.9932C74.7003 36.4021 75.1676 37.301 75.1068 37.9996C74.5862 37.7453 73.7297 37.3905 73.2555 37.4713C72.6718 37.5757 72.1847 38.2014 72.2386 38.7862C71.6633 38.8474 71.1366 39.2242 70.8858 39.7431C69.3065 39.9629 68.7533 39.6442 68.1263 41.1632C67.8154 41.9168 67.329 42.252 66.8122 42.6076C65.5476 43.4797 65.2846 43.8683 64.9517 45.9878C64.726 47.4141 64.6227 48.0531 63.2311 49.4779C62.7591 49.9615 62.2705 50.4623 61.8137 51.4082C60.5468 54.0262 61.0773 54.1384 60.7619 55.009C60.6311 55.3717 60.3127 55.7398 60.1577 56.1732C59.8217 57.1175 60.2724 58.1835 59.9167 58.9191C59.7564 59.2449 59.4661 59.4984 59.3361 59.9208C59.2175 60.307 59.3642 60.8243 59.7207 61.03C59.2647 62.5835 59.1461 62.8347 59.2616 63.2138C59.3209 63.4093 59.4676 63.5781 59.65 63.6621C59.46 64.4015 59.3452 65.1638 59.3072 65.9299C59.292 66.2149 59.4045 66.6003 59.6393 66.7966C59.4676 67.1498 59.2875 67.6067 59.3065 68.0997C59.33 68.7308 59.7792 69.3745 60.3963 69.4412C60.755 69.924 61.2901 70.0543 61.4208 70.5057C61.6039 71.1462 62.5456 71.2624 63.1893 71.0795C63.1779 71.1243 63.1635 71.1651 63.1429 71.1981C62.9849 71.4603 61.9809 71.6337 61.8069 72.7579C61.7696 72.9989 61.8388 72.8646 61.5766 72.9062C61.0849 72.9839 61.0362 73.5656 60.8895 73.7501C60.7611 73.9149 60.3978 73.8883 60.0657 73.9471C59.026 74.134 58.3071 76.5525 57.8085 77.8054C57.3137 77.7881 56.7802 78.0959 56.4641 78.9664C56.1084 78.8981 55.7238 79.1705 55.5612 79.4343C55.3035 79.8558 55.1363 80.2216 54.9973 80.5286C54.9099 80.7225 54.7617 81.0475 54.6978 81.071C54.6454 81.1087 54.3361 80.7868 53.8519 81.0074C53.2698 81.2712 52.7553 82.2085 52.5455 82.9982C52.4459 83.3844 53.0061 83.543 53.1109 83.1575C53.3017 82.4346 53.7395 81.7186 54.0868 81.5616C54.1841 81.5177 54.2342 81.5334 54.273 81.5546C55.2633 82.0789 55.3613 80.8865 56.0567 79.7577C56.1183 79.6572 56.2741 79.5567 56.3561 79.5615C56.4033 79.6659 56.5059 79.7342 56.6229 79.7342C57.0204 79.7318 56.8775 79.1548 57.2833 78.6689C57.4239 78.4993 57.6694 78.3525 57.8853 78.4326C58.0297 78.4829 58.1847 78.4161 58.2493 78.2756C58.5829 77.5346 59.4691 74.6693 60.1653 74.5437C60.2451 74.5288 60.3294 74.5218 60.4138 74.5131C61.1631 74.4393 61.3463 74.2462 61.5485 73.7368C61.5758 73.6661 61.6343 73.5201 61.664 73.5052C61.6761 73.5052 61.6898 73.506 61.7065 73.5067C62.6892 73.5499 62.0546 72.6221 62.8572 72.104C63.0799 71.9611 63.4431 71.8433 63.6385 71.5183C63.7844 71.2773 63.7889 71.0049 63.8315 70.8111C63.9911 70.0512 64.8773 69.4836 64.9449 68.5C64.9639 68.2103 64.9122 67.9144 65.011 67.7935C65.0422 67.7551 65.1007 67.7189 65.1691 67.6773C65.7171 67.3461 65.6737 67.1341 66.0948 65.2815C66.5926 65.4589 67.5631 65.7282 68.2114 65.7282C68.8559 65.7282 69.2792 65.5413 69.5961 65.2077C69.5672 65.5782 69.4882 66.2486 69.2815 66.598C69.0983 66.908 68.7495 67.8241 68.5716 68.668C66.9809 72.1754 66.8061 75.3986 70.3143 76.7684C71.6701 77.2959 73.5937 77.2857 74.9009 76.7355C75.7354 76.3853 76.9658 75.4849 77.4689 74.7047C77.9348 73.9817 77.3724 74.5555 79.1865 73.4047C80.2369 72.7382 80.3805 72.3889 80.6526 71.5019C80.9247 70.614 82.111 70.5292 83.4927 69.172C84.0741 68.6005 84.0087 67.8555 84.2474 67.1985C84.4594 66.616 84.7475 66.094 84.9306 65.7674C88.2883 64.0483 88.7868 64.7516 89.0817 64.4172C89.2801 64.1919 89.062 63.874 88.8545 63.9109C86.0075 64.031 84.2732 65.7376 81.9309 66.4465C75.9565 68.2512 73.789 62.1376 69.0375 62.1125C67.7052 61.9712 66.1601 63.9886 66.9437 64.2131C67.1041 64.2563 67.2614 64.159 67.3039 64.0012C67.4582 63.4179 68.2524 62.713 69.0162 62.713C69.4327 62.7161 69.8294 62.7711 70.2117 62.8669C69.2989 63.9588 69.8667 65.6756 67.0547 64.9377C65.3827 64.4989 64.894 64.1009 64.4015 62.3888C63.7859 60.2465 63.3284 57.2117 64.5125 54.6518C64.9966 56.1637 64.6538 57.7667 65.806 58.4355C66.1905 58.6585 66.6101 58.6632 66.9718 58.8021C67.7706 59.1059 68.5959 60.38 71.0234 58.6373C71.6253 58.2047 73.6401 56.5978 74.1629 55.9172C75.2269 54.5302 75.0605 52.238 73.7928 50.8069C72.2751 49.094 69.9381 48.8774 68.0799 49.2707C69.9221 48.2502 71.8001 47.1841 72.3944 45.4705C72.7972 44.3071 72.3176 43.2615 72.0144 43.2002C71.8556 43.1688 71.7028 43.2748 71.6717 43.4412C71.6352 43.6351 71.7492 43.6477 71.8632 43.9656C71.3107 43.873 70.3113 44.1713 70.1099 45.0411C69.8575 46.1322 70.8547 46.2508 71.5151 45.9305C70.8486 46.9596 69.5756 47.7462 68.2555 48.4864C68.2479 48.0884 68.4044 47.6952 68.5678 47.2823C68.7312 46.8701 68.8445 46.5687 68.9182 46.1495C69.0633 45.3205 68.4606 45.3716 68.542 44.9516C68.5868 44.7192 68.8087 44.439 69.0823 44.2686C69.5573 43.975 69.5756 43.6807 69.3886 43.1767C69.2283 42.745 69.4122 42.5047 69.8264 42.0926C70.0795 41.8406 69.9829 41.9011 70.445 41.5839C70.9801 41.2158 71.126 41.1435 71.2879 40.4166C71.3122 40.3067 71.3357 40.2078 71.3661 40.1199C71.5409 39.6136 72.1147 39.2855 72.6232 39.4071C72.9143 39.4684 73.0974 39.1112 72.896 38.9C72.6642 38.6559 72.9918 38.1331 73.355 38.0671C73.6887 38.0138 74.6128 38.4039 75.16 38.7022C75.306 38.7831 75.4891 38.7226 75.5621 38.5633C75.7658 38.1158 75.6966 37.6307 75.635 37.1966C75.5841 36.8355 75.5553 36.5748 75.6571 36.512C76.0196 36.2875 76.9749 36.6439 77.434 36.8151C77.5715 36.8661 77.6779 36.9281 77.8193 36.8527C78.1043 36.6965 77.9325 36.1337 77.9964 36.0599C78.0815 36.0756 78.3445 36.2616 78.46 36.3441C79.6714 37.2099 79.701 36.8943 79.9632 36.1847C80.271 35.3667 80.3607 35.5072 80.6397 35.7498C81.1907 36.2271 81.411 36.1541 82.209 35.8919C82.8079 35.6941 83.0451 35.6274 84.1691 35.7679C88.5672 36.3174 88.1234 36.3244 89.8896 36.2428C90.3388 36.2232 90.8928 36.198 91.0782 36.2397C91.0106 36.4901 90.7461 36.9202 91.0136 37.1298C91.0874 37.1856 91.1847 37.2052 91.2721 37.1777C92.8468 36.6957 94.5142 36.6337 94.6677 36.808C94.7985 36.9587 94.0689 37.9462 93.8895 38.4251C93.8105 38.6315 93.9708 38.871 94.2163 38.8325C95.7409 38.535 96.9135 38.5193 97.1772 38.6072C97.1202 38.6967 96.9614 38.8647 96.8877 38.9424C95.449 40.4598 97.2867 40.4747 97.3688 40.766C97.3802 40.8084 97.3543 40.9442 97.1841 41.1828C97.0587 41.3571 97.1476 41.6122 97.3581 41.6577C97.7472 41.7433 98.3294 41.6334 98.4313 41.7982C98.4807 41.9992 97.824 42.785 98.2511 43.3415C98.6403 43.8487 101.157 44.8197 101.639 45.4265C101.967 45.8386 101.972 46.491 101.654 46.9102C101.546 47.0515 101.583 47.2579 101.726 47.3513C102.753 48.0374 104.056 46.6692 104.229 47.2932C104.328 47.6543 104.335 48.0296 104.504 48.4346C104.821 49.1859 105.525 49.5635 105.98 50.0925C106.309 50.4756 106.483 51.2771 106.046 51.4796C105.821 51.5833 105.813 51.9145 106.038 52.0276C107.662 52.8471 107.792 52.9013 107.864 52.9484C107.804 52.9813 107.78 52.9892 107.714 53.0277C107.073 53.377 106.946 54.308 107.297 54.9682C107.595 55.531 108.491 55.7061 108.515 55.9761C108.541 56.2862 107.702 56.7399 108.452 57.6615C109.486 58.9324 109.083 58.9089 108.853 59.5785C108.627 60.2504 108.939 60.9467 109.134 61.5002C109.516 62.5803 109.925 65.3914 109.701 66.4708C109.555 67.1789 108.807 66.6451 107.41 69.9326C107.356 70.0598 107.239 70.1462 107.106 70.1587C106.6 70.2043 105.366 71.9524 105.031 72.1346C103.469 72.9871 103.199 73.7925 102.162 74.2596C101.648 74.4919 99.9642 74.4856 98.5414 74.6929C95.4604 75.1364 94.0879 77.2661 93.7869 77.1884C93.7436 77.1782 93.644 77.0856 93.5323 76.7935C93.1827 75.8712 93.1424 75.7652 92.9463 75.7401C92.5792 75.1309 92.4493 73.1307 92.6013 72.4062C92.6568 72.1424 92.3718 71.9407 92.1544 72.0898L91.8618 72.2884C91.6475 71.1596 91.8048 69.9366 92.3163 68.9247C92.8688 67.832 92.7875 67.8037 92.6249 66.7769C92.4364 65.5092 93.2845 63.1683 93.7139 61.9421C94.6244 59.3469 94.8615 58.5996 95.1899 54.9807C95.275 54.0387 95.4034 52.8204 95.5607 51.8894C95.6268 51.4946 95.0523 51.3909 94.9839 51.785C94.8015 52.8675 94.7035 53.8982 94.6085 54.8952C94.2725 58.4465 94.0575 59.1781 93.1629 61.738C92.8764 62.5583 92.5587 63.4564 92.3421 64.3113C92.064 65.4071 91.9006 66.1113 92.0974 67.1522C92.2107 67.7417 92.1977 67.8634 91.8823 68.478C91.1626 69.88 91.025 71.3174 91.3412 72.655C91.4081 72.9353 91.7106 73.075 91.9591 72.9431C91.9302 73.7014 92.0298 75.9991 92.7054 76.2966C92.9623 76.8775 93.1021 77.6421 93.6516 77.7771C94.0734 77.8745 94.366 77.5495 94.6518 77.3046C95.9309 76.2119 97.023 75.5917 98.3013 75.346C98.1197 75.9434 97.843 76.6475 98.1645 76.9254C98.8941 77.5597 98.0528 78.9923 98.0345 79.2019C97.9927 79.7145 98.3666 80.2978 98.8166 80.4242C99.0111 80.4783 99.268 80.6393 99.2437 80.8002C99.2141 80.9972 98.3895 81.889 99.9315 82.9267C100.258 83.1434 100.573 83.3797 100.695 83.6395C100.087 83.8523 99.8821 84.7417 100.762 85.3626C100.87 85.4387 101.042 85.5408 101.089 85.6389C101.211 85.8807 100.758 86.4027 100.78 86.9389C100.805 87.6705 101.57 88.0135 101.726 88.4728C101.898 88.976 101.489 89.5396 102.047 90.2524C102.249 90.5067 102.173 90.4588 102.111 90.8655C101.945 91.9747 103.169 92.9379 102.823 93.6357C102.646 93.9921 103.166 94.2676 103.344 93.9128C103.919 92.7526 102.482 91.8695 102.716 90.8293C102.816 90.3874 102.761 90.1998 102.502 89.8693C102.315 89.633 102.311 89.5396 102.339 89.0906C102.389 88.3166 102.283 88.0787 101.752 87.5221C101.285 87.0339 101.287 86.9405 101.513 86.4153C101.803 85.7433 101.802 85.3461 101.158 84.9073C100.888 84.7228 100.76 84.5509 100.757 84.3868C100.757 84.3327 100.801 84.2605 100.855 84.2267C100.884 84.2094 100.898 84.211 100.898 84.211C101.076 84.3131 101.308 84.1984 101.331 83.9786C101.412 83.1921 100.658 82.6889 100.252 82.4189C100.116 82.3278 99.4474 81.8505 99.6001 81.4274C99.6503 81.2947 99.7886 81.1314 99.8243 80.8944C99.9072 80.3567 99.4413 79.9712 98.9731 79.8401C98.8014 79.7915 98.6205 79.5041 98.619 79.2836C99.0446 78.3306 99.3432 77.2245 98.5984 76.5117C98.6068 76.2911 98.8447 75.609 98.945 75.2487C99.5393 75.1741 100.068 75.138 100.543 75.1058C100.536 75.0061 100.526 74.9982 100.567 75.1034C101.346 75.0516 101.962 75.01 102.398 74.8138C103.579 74.2815 103.799 73.4926 105.308 72.6699C105.654 72.48 106.926 70.8943 107.174 70.7592C107.515 70.7239 107.811 70.5018 107.949 70.176C108.397 69.1241 108.966 67.9686 109.789 67.3625C110.04 67.1789 110.214 66.9073 110.277 66.5972C110.528 65.3914 110.087 62.4398 109.689 61.2961L109.687 61.2969ZM72.2645 63.7798C73.0868 64.2838 73.8802 64.8976 74.7284 65.4872C73.3497 67.3665 72.399 69.5739 71.9741 71.8865C71.9042 72.2821 72.4765 72.3905 72.5502 71.9995C72.9614 69.7631 73.8825 67.631 75.2201 65.82C76.8161 66.868 78.3627 67.5133 80.2825 67.3735C79.0741 69.1712 78.3444 72.2586 76.984 74.3702C76.5478 75.0469 75.42 75.8649 74.682 76.1757C73.5238 76.664 71.7347 76.6774 70.5225 76.2024C68.1415 75.273 67.5601 73.4918 68.5762 70.2443C69.0094 68.8627 70.8341 65.2635 72.2645 63.7798ZM70.5225 40.7919C70.4047 40.9112 69.7679 41.2966 69.6014 41.4756C69.5193 41.5635 69.4973 41.5824 69.4221 41.6585C69.0717 42.0125 68.5336 42.5377 68.8414 43.3894L68.8589 43.4381C68.8809 43.4962 68.9265 43.6179 68.9167 43.6508C68.9037 43.6752 68.8171 43.7286 68.7647 43.7607C68.1407 44.1477 67.6862 44.9665 68.1217 45.5733C68.3223 45.8575 68.3968 45.7421 68.3429 46.0427C68.165 47.0358 67.5228 47.7854 67.6969 48.7989C65.888 49.799 63.5701 51.0275 63.9759 53.2066C64.0458 53.5819 64.1226 53.7985 64.2009 53.965C62.6717 56.7862 63.1612 60.1963 63.8414 62.5615C64.1644 63.6872 64.5368 64.5209 65.5476 65.046C65.236 66.419 65.1516 66.9253 65.0163 67.0556C64.9152 67.153 64.7253 67.2063 64.5657 67.4018C64.2913 67.7346 64.3832 68.1695 64.362 68.4568C64.3171 69.0935 63.6514 69.6367 63.3618 70.3456C62.9043 70.6823 62.047 70.5583 61.9817 70.3353C61.7628 69.57 61.094 69.4868 60.8052 68.9883C60.6615 68.7339 60.4449 68.953 60.1759 68.7025C59.6135 68.1899 59.9996 67.3704 60.3408 66.7212C60.4731 66.4724 60.2375 66.1945 59.9836 66.3004C59.9449 66.2408 59.8856 66.0971 59.8924 65.9621C59.9342 65.1182 60.0756 64.2791 60.3135 63.4713C60.3879 63.2185 60.1288 62.9901 59.8977 63.1149C59.7381 63.056 59.8331 62.7389 59.8818 62.5725C60.4085 60.767 60.4594 60.7725 60.3112 60.6013C60.242 60.5228 60.1394 60.4867 60.0376 60.5079C60.0247 60.5079 60.0049 60.5126 59.9699 60.4726C59.7488 60.2143 59.9745 59.9019 60.1713 59.6232C60.657 58.9364 60.6843 58.5431 60.6304 57.5838C60.5726 56.5641 60.6577 56.393 60.9861 55.8537C61.9338 54.2931 60.8895 54.673 62.3396 51.6798C63.1726 49.9544 64.1682 49.828 65.0635 47.9778C65.6008 46.8615 65.502 44.7546 66.1898 43.9138C66.9331 43.0079 68.0571 42.8792 68.6666 41.401C69.112 40.324 69.2944 40.5399 70.6981 40.3774C70.6586 40.5454 70.613 40.6985 70.5225 40.7919Z" fill="black"/>
<path d="M66.2549 67.5212C66.0968 67.6342 66.128 67.752 66.0535 68.5519C65.7662 68.6084 65.6385 68.9059 65.542 71.9243C65.3216 72.0208 65.1613 72.272 65.1179 72.4769C64.9416 73.3074 64.9044 74.156 65.0077 74.9991C65.0351 75.2189 65.162 75.4465 65.3231 75.5706C65.2935 76.1232 65.8787 76.6523 67.1243 77.7764C67.287 77.9232 67.5127 77.9962 67.7217 77.9766C68.0386 78.7749 68.7454 79.0277 69.9181 79.7633C71.3317 80.6464 73.0896 80.6927 74.7403 80.6872C75.4471 80.6848 75.6561 80.2884 75.7815 80.0498C75.8689 79.881 75.8681 79.8802 76.0908 79.9681C77.1221 80.3677 78.3039 80.0427 79.6795 79.797C81.2087 79.5238 82.5516 79.2153 83.5153 78.2011C84.922 76.7198 85.3241 76.5989 85.5171 76.5408C85.9009 76.4262 85.967 76.3124 86.7179 74.8452C87.3175 73.6724 88.8201 72.8882 88.8315 71.3889C88.8353 70.9932 88.2485 70.9846 88.2463 71.3842C88.2364 72.5664 86.8243 73.3459 86.1996 74.5626C85.5087 75.9152 85.4791 75.923 85.3552 75.9607C85.0778 76.0424 84.6135 76.1813 83.0973 77.7772C82.0933 78.8346 80.4988 79.0238 79.0161 79.3048C77.851 79.5215 77.0089 79.6777 76.2968 79.4014C75.6804 79.1619 75.438 79.4336 75.2662 79.7633C75.1651 79.9564 75.0983 80.0843 74.7411 80.0843C71.3925 80.0883 70.9213 79.6549 69.5024 78.8111C68.6269 78.2922 68.3312 78.1171 68.1845 77.486C68.126 77.2324 67.8068 77.1759 67.6624 77.3753C67.6145 77.3831 67.5499 77.3565 67.5097 77.3211C66.2275 76.1633 65.7928 75.7496 65.9585 75.4772C66.1029 75.2393 65.8779 74.9473 65.6279 75.0274C65.6104 74.9952 65.5937 74.9567 65.5899 74.923C65.4934 74.1489 65.5268 73.3694 65.6895 72.608C65.694 72.5868 65.7054 72.5625 65.7199 72.5413C65.9045 72.6127 66.1082 72.4761 66.1158 72.2704C66.1401 71.5694 66.1812 70.1894 66.2686 69.4491C66.4107 69.4696 66.5665 69.3526 66.5832 69.1768L66.6851 68.0817C66.9191 68.0448 67.1487 67.9168 67.119 67.6735L66.9678 66.4371C66.948 66.2723 66.8013 66.1616 66.6402 66.1741C66.4791 66.1961 66.3659 66.3484 66.3864 66.5132L66.5019 67.4812C66.4191 67.4545 66.3263 67.4694 66.2541 67.5204L66.2549 67.5212Z" fill="black"/>
<path d="M74.1924 82.922L71.5772 82.5028C71.3325 81.7995 70.9069 81.5208 70.5915 81.4101C69.2501 80.9462 67.8966 82.5468 69.0837 84.083C68.4962 84.3342 68.1215 84.755 68.028 85.27C67.7575 86.7685 69.8756 87.9657 71.0042 86.3737L73.2052 86.7732C74.7434 89.6165 77.4482 87.435 76.1874 85.4482C78.8748 83.948 76.1152 80.3661 74.1924 82.922ZM75.8864 84.9301C75.5976 85.0871 75.4965 85.4733 75.6865 85.7637C76.5339 87.0653 74.8612 88.6109 73.7128 86.471C73.6292 86.3164 73.4864 86.2104 73.3207 86.1806C71.163 85.7951 71.0688 85.7669 70.9897 85.7669C70.4425 85.7669 70.4935 86.4428 69.7707 86.5197C69.1794 86.5864 68.481 86.0503 68.6026 85.3814C68.6596 85.0627 68.9127 84.8037 69.3345 84.6302C69.6924 84.4834 69.792 84.0234 69.5587 83.7314C68.4073 82.276 70.476 81.0859 71.0315 82.725C71.0984 82.9212 71.2672 83.0641 71.4716 83.0979L74.1179 83.5226C74.3239 83.5579 74.5222 83.47 74.6484 83.3004C75.9921 81.5035 77.7902 83.8915 75.8864 84.9301Z" fill="black"/>
<path d="M90.4086 40.1144C90.404 40.2086 90.2627 40.4064 90.0795 40.5313C89.8561 40.6828 89.9298 41.0454 90.2019 41.0847C91.0508 41.2001 92.1414 41.4898 92.2455 41.624C92.266 41.6538 92.2698 41.686 92.2561 41.7205C92.206 41.8485 91.9651 41.971 91.6428 42.0314C91.3943 42.0769 91.3183 42.4066 91.5129 42.566C91.9347 42.913 92.4644 42.9585 92.985 43.026C94.5346 43.2262 94.0338 44.1132 93.8347 44.0771C93.7161 44.0653 93.5953 44.1352 93.5428 44.2506C93.3597 44.6564 94.1485 44.9877 94.5491 45.1573C95.4595 45.5403 95.4793 45.7358 95.287 46.425C95.1578 46.8772 95.094 47.338 95.3661 47.7321C94.9982 47.995 94.5749 48.1717 94.1371 48.2431C93.7898 48.2981 93.8202 48.8436 94.1835 48.8436C94.5384 48.8436 95.4132 48.5288 96.0349 47.9574C96.2074 47.7972 96.142 47.5076 95.9231 47.4424C95.7749 47.3961 95.7293 47.0962 95.7818 46.8544C95.8555 46.5122 96.0501 46.0702 95.9338 45.6228C95.74 44.8684 94.945 44.7082 94.3933 44.4272C94.7003 44.0763 94.7322 43.5119 94.4951 43.1469C94.0361 42.442 93.0724 42.4608 92.4803 42.343C92.8854 42.0502 92.9462 41.5949 92.7228 41.2739C92.5047 40.9567 91.6056 40.7244 90.8441 40.5807C91.0865 40.1882 91.0128 39.8428 90.7719 39.645C90.5104 39.4291 90.4048 39.4754 88.9463 39.6222C89.3583 39.0154 89.1614 38.6606 88.8179 38.5986C88.3482 38.517 87.2584 39.0131 86.8077 39.236C86.9232 38.8388 87.0106 38.4965 86.8457 38.2446C86.7895 38.1598 86.6808 38.0538 86.4847 38.0358C85.9489 37.9871 84.7185 38.5656 84.1979 39.4268C83.9942 39.7651 84.4927 40.0854 84.6949 39.7463C85.0688 39.1269 85.9459 38.6849 86.3479 38.6418C86.3076 38.9558 86.1001 39.4323 86.0796 39.7894C86.0637 40.0242 86.3114 40.1937 86.5166 40.0705C87.1368 39.7031 88.0397 39.32 88.4987 39.218C88.1483 39.762 87.8337 39.8138 87.9644 40.1184C88.0161 40.2385 88.1278 40.317 88.2608 40.2965C89.8051 40.1474 90.3508 40.0728 90.4071 40.1152L90.4086 40.1144Z" fill="black"/>
<path d="M83.0435 43.0896C83.3528 42.8494 83.0017 42.3651 82.6924 42.6061C81.7948 43.3008 81.2506 44.2914 81.1898 44.4053C81.0067 44.7577 81.5273 45.0403 81.7051 44.6926C81.7104 44.6824 82.2143 43.7317 83.0435 43.0896Z" fill="black"/>
<path d="M98.183 60.1845C98.2308 59.7857 97.6494 59.7112 97.6016 60.1068C97.4526 61.3581 96.8332 64.732 97.8706 65.1677C98.1678 65.2917 98.4968 65.1826 98.8989 64.8184C98.506 66.3664 98.4923 67.288 98.8571 67.5596C99.2645 67.861 99.7486 67.3633 100.128 67.0117C100.183 67.2346 100.303 67.3932 100.475 67.4662C100.965 67.6695 101.573 67.1388 102.347 65.8428C102.434 66.0328 102.67 66.0814 102.814 65.9401C103.187 65.5783 103.495 65.1355 103.706 64.6559C104.426 64.8584 105.578 63.5145 105.184 61.9924C105.085 61.6062 104.52 61.7616 104.619 62.1478C104.885 63.1762 104.231 63.9666 103.906 64.0632C103.888 64.0687 103.872 64.0734 103.872 64.0734C103.819 63.9038 103.7 63.8418 103.59 63.841C103.201 63.8403 103.384 64.334 102.695 65.1897L102.64 65.068C102.535 64.8388 102.231 64.8435 102.121 65.0492C101.235 66.6623 100.782 66.8743 100.707 66.9018C100.684 66.8429 100.652 66.6647 100.734 66.3436C100.768 66.2094 100.71 66.0689 100.593 66.0029C100.282 65.824 100.264 66.1568 99.2964 66.9442C99.2493 66.9834 99.2128 67.007 99.1854 67.0227C99.0858 66.6545 99.3686 65.0397 99.8474 63.6566C99.9606 63.3324 99.5358 63.0945 99.3359 63.3755C98.4094 64.6779 98.091 64.6072 98.091 64.6072C97.581 64.3937 98.1108 60.7207 98.1822 60.1837L98.183 60.1845Z" fill="black"/>
<path d="M88.877 81.5051C88.7896 81.6574 88.5228 81.6998 88.3039 81.5954C87.8844 81.3944 87.7917 80.8096 88.0562 80.0316C88.2165 79.5497 88.5008 78.9931 88.5456 78.3777C88.5722 77.9781 87.9901 77.9404 87.9612 78.3345C87.9255 78.8345 87.6777 79.3157 87.5021 79.8315C86.9337 81.5153 87.8639 82.3827 88.7174 82.2469C88.4848 83.5971 88.3594 85.2205 89.0145 85.5549C89.2197 85.6609 89.4485 85.6287 89.6947 85.4591C89.7289 86.1178 89.7905 86.986 90.3939 87.3078C90.7329 87.4884 91.16 87.4515 91.6958 87.1885C91.6905 87.8605 91.822 88.4594 92.0773 88.9273C92.2666 89.2711 92.7788 88.9783 92.5865 88.6298C92.3236 88.1493 92.2263 87.4601 92.3129 86.6892C92.3403 86.4412 92.0781 86.263 91.8653 86.3988C91.3151 86.7599 90.8895 86.8933 90.663 86.7709C90.3415 86.5997 90.3005 85.8328 90.2761 85.3696C90.2571 84.9936 90.2693 84.5776 89.9714 84.5258C89.8703 84.5069 89.7647 84.5462 89.6978 84.6286C89.4029 84.9905 89.2737 85.0133 89.2737 85.0133C89.1285 84.9348 88.9583 83.8483 89.4166 81.7249C89.488 81.3889 89.0465 81.2091 88.8785 81.5059L88.877 81.5051Z" fill="black"/>
<path d="M87.0943 46.0867C86.8093 45.6809 86.1884 45.8355 86.1124 46.3293C86.0599 46.6684 86.3123 46.9824 86.6527 46.9824C87.0973 46.9824 87.355 46.4596 87.0943 46.0867Z" fill="white"/>
<path d="M71.1622 44.4751C70.7746 44.4084 70.5276 44.8629 70.7465 45.1745C70.8294 45.2915 70.9586 45.3574 71.0938 45.3574C71.6205 45.3574 71.6821 44.5607 71.1622 44.4751Z" fill="white"/>
<path d="M71.0541 54.1824C70.9941 54.0952 70.934 53.8762 70.6916 53.8762C70.6148 53.8825 70.5267 53.9006 70.4613 54.0018C70.3534 54.1698 70.4613 54.3669 70.5753 54.5309C70.8413 54.9187 70.4552 56.1064 69.6086 55.6127C69.088 55.3081 68.8638 53.9273 69.0226 53.2671C69.2863 52.1744 70.649 52.0802 70.6543 52.6116C70.6543 52.7796 70.7911 52.9123 70.9462 52.9123C71.3338 52.9115 71.3627 52.2803 70.8763 51.8886C70.2888 51.4113 68.7802 51.7669 68.4541 53.1195C68.2451 53.9861 68.5233 55.6723 69.3205 56.1386C69.5501 56.2721 69.7803 56.3396 70.0053 56.3396C71.0336 56.3396 71.5511 54.9069 71.0541 54.1824Z" fill="white"/>
<path d="M64.7852 51.9624C64.3999 52.0197 64.4896 52.6218 64.8681 52.5606C65.239 52.5119 65.8424 52.676 66.0385 53.355C66.2057 53.9375 66.0613 55.1762 65.6121 55.4659C65.3651 55.6291 65.4753 56.0248 65.7687 56.0248C66.2703 56.0248 66.9733 54.4901 66.5994 53.1831C66.3318 52.2552 65.4654 51.8643 64.7852 51.9624Z" fill="white"/>
</svg>
