<svg width="140" height="140" viewBox="0 0 140 140" fill="none" xmlns="http://www.w3.org/2000/svg">
<rect opacity="0.01" width="140" height="140" fill="white"/>
<path d="M51.9216 109C51.9216 106.791 53.7125 105 55.9216 105H83.9216C86.1308 105 87.9216 106.791 87.9216 109V121H51.9216V109Z" fill="#336DFF"/>
<path fill-rule="evenodd" clip-rule="evenodd" d="M59.9216 88H79.9216L82.9216 105H56.9216L59.9216 88Z" fill="#131523"/>
<path fill-rule="evenodd" clip-rule="evenodd" d="M104.834 27H99.7678C96.5438 27 93.8961 29.5478 93.7722 32.7694L92.9221 54.9315L92.9216 55C92.9216 58.3137 95.6079 61 98.9216 61H103.834C113.247 61 120.978 53.5606 121.34 44.1537C121.348 43.9422 121.352 43.7305 121.352 43.5189C121.352 34.3957 113.957 27 104.834 27ZM100.999 53L101.692 35H104.834C109.538 35 113.352 38.814 113.352 43.5189C113.352 43.628 113.35 43.7372 113.346 43.8463C113.15 48.9577 108.949 53 103.834 53H100.999Z" fill="#131523"/>
<path fill-rule="evenodd" clip-rule="evenodd" d="M35.4405 27H40.5063C43.7303 27 46.378 29.5478 46.5019 32.7694L47.352 54.9315L47.3525 55C47.3525 58.3137 44.6662 61 41.3525 61H36.4405C27.0267 61 19.2956 53.5606 18.9338 44.1537C18.9257 43.9422 18.9216 43.7305 18.9216 43.5189C18.9216 34.3957 26.3174 27 35.4405 27ZM39.2749 53L38.5819 35H35.4405C30.7357 35 26.9216 38.814 26.9216 43.5189L26.9279 43.8463V43.8463C27.1245 48.9577 31.3253 53 36.4405 53H39.2749Z" fill="#131523"/>
<path fill-rule="evenodd" clip-rule="evenodd" d="M37.9216 19H101.922V70.949C101.922 72.2366 101.302 73.4455 100.256 74.197L72.2562 94.322C70.8613 95.3246 68.982 95.3246 67.5871 94.322L39.5871 74.197C38.5415 73.4455 37.9216 72.2366 37.9216 70.949V19Z" fill="#336DFF"/>
<path fill-rule="evenodd" clip-rule="evenodd" d="M70 59.2L61.1832 64.1353L63.1524 54.2249L55.7341 47.3647L65.7679 46.1751L70 37L74.232 46.1751L84.2658 47.3647L76.8476 54.2249L78.8168 64.1353L70 59.2Z" fill="white"/>
</svg>
