<svg width="152" height="158" viewBox="0 0 152 158" fill="none" xmlns="http://www.w3.org/2000/svg">
<path d="M124.581 104.049L122.2 106.572L120.696 105.967L121.333 104.412L119.871 103.908L120.463 102.252L123.931 102.265C123.931 102.265 123.415 103.644 124.581 104.049Z" fill="#FFD997"/>
<path d="M86.0649 46.5208C88.111 43.5464 93.3454 38.9345 96.8433 38.5671C97.7886 38.4659 102.303 40.5202 105.828 42.1601C105.828 42.1601 114.041 41.8547 115.172 43.1806C119.859 48.6662 123.967 63.6691 124.769 65.3396C125.571 67.01 143.884 76.0556 147.714 78.1147V102.385L118.385 85.8461C116.953 86.0283 115.505 86.0283 114.072 85.8461C101.951 83.3969 85.7055 70.6407 82.5587 69.1256C80.2484 68.0117 79.698 65.6881 79.4073 64.1275C79.3447 63.6874 79.2493 63.2531 79.1219 62.8283C78.9233 62.4101 78.6595 62.029 78.3413 61.7003C77.9638 61.267 77.5055 60.818 77.0993 60.398C76.7783 60.0823 76.4815 59.7411 76.2114 59.3775C75.8925 58.9171 75.7115 58.369 75.6909 57.8021C75.6704 57.2351 75.8113 56.6745 76.0959 56.1904C76.31 55.786 76.579 55.4159 76.8947 55.0914C78.0136 53.9257 80.6991 54.9226 80.8063 54.9611C80.9109 54.1113 81.2199 53.3027 81.7048 52.61C83.997 48.9142 83.9003 47.484 85.1234 46.947C85.3477 46.8465 85.6723 46.7005 86.0649 46.5208ZM89.365 53.0692V53.1069C89.2072 53.4241 89.0278 53.7292 88.8282 54.0199C88.0568 55.2202 86.9532 56.149 85.6633 56.6834C85.5009 56.7438 85.3303 56.7956 85.1551 56.8404C85.8469 57.5818 86.4424 58.4142 86.9264 59.3163C87.0519 59.5525 87.1621 59.7972 87.2563 60.0487C87.2563 60.0487 93.4858 64.0522 94.4892 64.6307C94.4892 64.6307 100.889 61.0982 102.839 60.117C102.839 60.117 100.751 57.8891 100.297 57.3004L110.046 55.8921L112.595 55.4996L113.725 55.3245C114.342 55.2302 114.898 54.885 115.27 54.3647C115.642 53.8444 115.8 53.1918 115.709 52.5503C115.619 51.9089 115.286 51.3312 114.786 50.9443C114.286 50.5574 113.658 50.3931 113.041 50.4874L111.902 50.6616C111.898 50.661 111.893 50.661 111.889 50.6616L109.353 51.0541L96.8199 52.8596C95.9966 52.1366 95.2627 51.3102 94.6349 50.3994C94.0223 51.5551 93.0241 52.4378 91.8286 52.8808C91.0243 53.093 90.1905 53.1568 89.365 53.0692Z" fill="#FFD997"/>
<path d="M115.708 52.5519C115.798 53.193 115.64 53.8451 115.268 54.365C114.896 54.8849 114.341 55.23 113.725 55.3245L112.588 55.4988C112.096 55.4387 111.64 55.2038 111.296 54.834C110.952 54.4642 110.741 53.9822 110.7 53.4695C110.37 51.193 111.737 50.7134 111.892 50.664C111.897 50.6634 111.901 50.6634 111.905 50.664L113.044 50.4897C113.66 50.3969 114.287 50.5619 114.786 50.9484C115.285 51.335 115.617 51.9116 115.708 52.5519Z" fill="black"/>
<path d="M112.587 55.5012L110.038 55.8937C109.478 55.8946 108.937 55.676 108.525 55.2814C108.112 54.8868 107.857 54.345 107.811 53.764V53.7365C107.715 53.1715 107.819 52.5895 108.102 52.0972C108.386 51.605 108.83 51.2355 109.354 51.0565L111.89 50.664C111.736 50.7135 110.368 51.1899 110.698 53.4696C110.739 53.9829 110.95 54.4657 111.294 54.836C111.638 55.2063 112.095 55.4413 112.587 55.5012Z" fill="#81F8F8"/>
<path d="M126.261 102.268L124.862 103.752L124.584 104.049C123.421 103.643 123.935 102.264 123.935 102.264H124.268L126.261 102.268Z" fill="black"/>
<path d="M92.596 119.38L90.3197 120.371L88.5854 116.048L90.8618 115.06L91.7315 117.219L92.596 119.38Z" fill="black"/>
<path d="M90.3193 120.371L89.3023 120.812C88.751 121.052 88.1307 121.054 87.578 120.818C87.0253 120.582 86.5855 120.127 86.3552 119.554C86.1249 118.98 86.1231 118.335 86.3501 117.761C86.5772 117.186 87.0145 116.729 87.5658 116.489L88.5828 116.048L90.3193 120.371Z" fill="#81F8F8"/>
<path d="M84.3906 81.9015C85.5417 86.382 85.8327 91.0543 85.247 95.6517C84.6614 100.249 83.2105 104.681 80.9772 108.696C78.744 112.71 75.7721 116.228 72.2313 119.048C68.6905 121.868 64.6501 123.936 60.3408 125.132L57.6372 114.602C60.7652 113.488 63.2997 112.529 64.0479 111.962C66.1385 110.385 72.1483 109.68 71.8863 107.779C71.6243 105.878 68.9599 103.325 65.5647 103.595C62.1695 103.865 60.4722 105.51 58.8006 105.619C57.7346 105.687 56.6965 105.973 55.3662 106.043L55.3578 105.729L51.6146 91.152L51.5942 91.141C53.0687 87.7113 54.6851 84.2903 55.3797 83.0076C56.0522 81.7461 56.6529 80.4447 57.1789 79.1101C57.1789 79.1101 60.0268 75.4386 60.0683 73.608C60.0724 73.3852 60.0488 73.1628 59.9981 72.9462C59.61 71.1564 57.6161 68.9859 55.1329 70.6501C53.8915 71.3831 52.8835 72.4776 52.2329 73.7987V73.8042C50.8475 75.2667 49.4824 77.9883 48.6542 79.6305L47.0249 73.2869L46.9622 73.2649C47.1374 72.8646 48.4654 69.8219 49.3956 67.2644C49.7783 66.2962 50.0765 65.2942 50.2865 64.2704C50.3631 63.8002 50.3674 63.3204 50.2993 62.8488C50.2978 62.8222 50.2935 62.7959 50.2865 62.7703C50.2268 62.4046 50.0812 62.06 49.8628 61.7668C49.6443 61.4736 49.3596 61.241 49.034 61.0896C46.5032 59.763 45.0468 61.5684 44.3628 62.7208L44.3001 62.68L42.812 56.8946C47.1213 55.6977 51.6152 55.3951 56.037 56.0041C60.4588 56.6131 64.7219 58.1217 68.5829 60.4439C72.4439 62.766 75.8272 65.8562 78.5395 69.5379C81.2518 73.2197 83.24 77.4208 84.3906 81.9015Z" fill="#81F8F8"/>
<path d="M73.3746 57.904L74.119 57.433C73.8796 57.7537 73.7451 58.1455 73.7352 58.5513C73.7253 58.9571 73.8405 59.3555 74.0639 59.6884L73.6109 59.5659L71.5913 59.0242L73.3731 57.8986L73.3746 57.904Z" fill="black"/>
<path d="M33.0635 65.101C33.6091 64.4031 34.2407 63.7828 34.9419 63.2562C36.587 62.1572 41.2424 63.7139 36.0502 71.4422L32.1416 78.3824C32.1416 78.3824 31.7716 84.0477 33.0612 86.2897C34.3915 83.8954 36.4768 79.3872 36.849 78.3659C37.3368 77.0369 38.7365 73.2453 39.9513 71.6023C40.9049 70.3142 42.6444 65.8334 43.9649 63.4446C44.0404 63.3025 44.1718 63.0388 44.3598 62.7224C45.0438 61.57 46.5002 59.7645 49.031 61.0912C49.3566 61.2426 49.6413 61.4752 49.8597 61.7684C50.0782 62.0615 50.2238 62.4062 50.2835 62.7719C50.2888 62.7962 50.291 62.8205 50.2963 62.8504C50.3644 63.322 50.3601 63.8018 50.2835 64.272C50.0735 65.2958 49.7753 66.2978 49.3926 67.266C48.4624 69.8235 47.1344 72.8662 46.9592 73.2665C46.9537 73.2813 46.9474 73.2957 46.9404 73.3097C46.9404 73.3097 46.4874 75.2824 46.0026 76.799C45.5179 78.3157 45.117 78.8722 44.3862 80.6455C43.912 81.7948 42.513 85.1318 41.5753 87.727C40.6376 90.3222 41.8116 89.5388 43.2363 88.6941C44.9993 86.1036 47.5723 81.6339 48.1197 80.6502C48.2533 80.4108 48.4315 80.0591 48.6482 79.6345C49.4787 77.9922 50.8414 75.2706 52.2269 73.8082V73.8027C52.8775 72.4815 53.8855 71.3871 55.1268 70.6541C57.61 68.9899 59.604 71.1604 59.992 72.9502C60.0427 73.1667 60.0663 73.3891 60.0623 73.6119C60.0207 75.4426 57.1729 79.114 57.1729 79.114C56.6459 80.4489 56.0442 81.7506 55.3707 83.0123C54.6761 84.295 53.0596 87.716 51.5851 91.1457C50.06 94.6947 48.6821 98.2578 48.6293 99.473C48.5251 101.862 49.9883 105.392 52.7561 105.883C53.6156 106.037 54.4889 106.093 55.3601 106.048C56.6904 105.977 57.7286 105.692 58.7946 105.623C60.4662 105.514 62.1612 103.872 65.5587 103.6C68.9562 103.327 71.6183 105.882 71.8803 107.784C72.1423 109.685 66.1325 110.39 64.0419 111.967C63.2929 112.534 60.7591 113.493 57.6312 114.607C52.0593 116.59 44.59 119.066 41.897 120.692C37.6863 123.231 35.077 124.366 33.0574 124.454L4.26172 146.564V117.271L14.7456 109.023C14.6014 108.571 14.4436 108.076 14.2821 107.544C13.475 104.941 17.2319 92.5736 17.2319 92.5736C17.2319 92.5736 14.3372 85.4372 13.9914 83.8954C13.6456 82.3537 13.9914 81.5287 14.6362 80.2428C15.2809 78.957 16.0979 75.6113 17.5807 74.8931C18.0114 74.6495 18.5174 74.593 18.988 74.7361L19.0137 74.6576C19.2189 74.4593 19.4369 74.2757 19.666 74.1081C22.1288 72.3073 24.2821 73.8569 24.0699 75.7204C23.8434 77.7277 21.7883 79.7899 21.1465 79.9367C20.7246 80.7962 20.4698 81.7339 20.3968 82.696L20.3764 82.7156C21.2772 83.7502 22.9434 86.4498 23.6539 87.3651C24.2247 84.2597 24.5493 78.7466 24.9215 76.9678C25.6237 73.6206 31.037 67.8563 31.037 67.8563C31.665 66.9012 32.3415 65.9814 33.0635 65.101Z" fill="#FFD997"/>
<path d="M4.26172 117.271L14.7456 109.023" stroke="black" stroke-width="0.980065" stroke-linecap="round" stroke-linejoin="round"/>
<path d="M58.0411 76.2715C57.8772 77.2535 57.5872 78.2082 57.1789 79.11C56.652 80.445 56.0502 81.7466 55.3767 83.0084C54.6821 84.291 53.0657 87.7121 51.5912 91.1417C50.0661 94.6907 48.6882 98.2538 48.6353 99.469C48.5312 101.858 49.9943 105.388 52.7622 105.879C53.6216 106.033 54.495 106.089 55.3662 106.044C56.6965 105.974 57.7346 105.688 58.8007 105.619C60.4722 105.51 62.1672 103.868 65.5647 103.596C68.9622 103.323 71.6243 105.879 71.8863 107.78C72.1483 109.681 66.1385 110.386 64.0479 111.963C63.299 112.53 60.7652 113.489 57.6372 114.603C52.0653 116.586 44.5961 119.062 41.903 120.688C37.6924 123.227 35.0831 124.362 33.0635 124.45L4.26172 146.564" stroke="black" stroke-width="0.980065" stroke-linecap="round" stroke-linejoin="round"/>
<path d="M64.0958 110.62C63.6738 109.688 66.0943 108.157 67.9886 107.337C69.8829 106.517 70.459 107.887 70.459 107.887" stroke="black" stroke-width="0.980065" stroke-linecap="round" stroke-linejoin="round"/>
<path d="M52.2329 73.7979C52.5441 73.4469 52.9143 73.158 53.3254 72.9454" stroke="black" stroke-width="0.980065" stroke-linecap="round" stroke-linejoin="round"/>
<path d="M43.2417 88.687C45.0046 86.0965 47.5777 81.6267 48.125 80.6431C48.2587 80.4037 48.4369 80.052 48.6535 79.6274C49.484 77.9851 50.8468 75.2635 52.2322 73.8011" stroke="black" stroke-width="0.980065" stroke-linecap="round" stroke-linejoin="round"/>
<path d="M41.6484 90.5663C41.881 90.5663 42.4888 89.801 43.2407 88.6894" stroke="black" stroke-width="0.980065" stroke-linecap="round" stroke-linejoin="round"/>
<path d="M57.1789 79.11C57.1789 79.11 60.0268 75.4386 60.0683 73.608C60.0724 73.3852 60.0488 73.1627 59.9981 72.9462C59.61 71.1564 57.6161 68.9859 55.1329 70.6501C53.8915 71.3831 52.8835 72.4776 52.2329 73.7987V73.8042" stroke="black" stroke-width="0.980065" stroke-linecap="round" stroke-linejoin="round"/>
<path d="M55.1436 72.9454C55.8012 73.0106 57.2394 73.7595 57.3648 74.7674" stroke="black" stroke-width="0.980065" stroke-linecap="round" stroke-linejoin="round"/>
<path d="M56.1494 71.2601C56.7296 71.3431 57.2858 71.5551 57.7801 71.8817C58.2744 72.2083 58.6952 72.6418 59.0139 73.1527C59.6353 74.3043 60.0022 72.9455 60.0022 72.9455" stroke="black" stroke-width="0.980065" stroke-linecap="round" stroke-linejoin="round"/>
<path d="M40.6791 90.8066C40.8686 89.7467 41.1691 88.7117 41.5753 87.7199C42.513 85.1247 43.9121 81.7877 44.3862 80.6385C45.117 78.8675 45.5187 78.3117 46.0026 76.792C46.4866 75.2722 46.9404 73.3026 46.9404 73.3026C46.9474 73.2886 46.9537 73.2742 46.9592 73.2595C47.1344 72.8591 48.4624 69.8164 49.3926 67.2589C49.7753 66.2907 50.0735 65.2887 50.2835 64.2649C50.3601 63.7947 50.3644 63.3149 50.2963 62.8433C50.291 62.8158 50.2888 62.7915 50.2835 62.7648C50.2238 62.3991 50.0782 62.0545 49.8597 61.7613C49.6413 61.4681 49.3566 61.2355 49.031 61.0841C46.5002 59.7575 45.0438 61.563 44.3598 62.7153C44.1718 63.0293 44.0434 63.2955 43.9649 63.4375C42.6444 65.8263 40.9049 70.3071 39.9513 71.5953C38.7358 73.2383 37.3368 77.0298 36.849 78.3588C36.4768 79.3793 34.3915 83.8884 33.0612 86.2826C32.808 86.7949 32.4995 87.2756 32.1416 87.7152" stroke="black" stroke-width="0.980065" stroke-linecap="round" stroke-linejoin="round"/>
<path d="M44.6431 64.4471C45.5002 64.3275 46.3726 64.4458 47.1716 64.7901" stroke="black" stroke-width="0.980065" stroke-linecap="round" stroke-linejoin="round"/>
<path d="M46.2148 62.1124C47.0891 61.9953 47.9733 62.2313 48.6852 62.7718C49.4636 63.5207 50.3258 63.2891 50.2964 62.8503C50.2948 62.8238 50.2905 62.7974 50.2835 62.7718" stroke="black" stroke-width="0.980065" stroke-linecap="round" stroke-linejoin="round"/>
<path d="M48.0879 65.1771C48.4892 65.3374 48.8314 65.6255 49.0658 66.0003C49.3001 66.375 49.4145 66.8172 49.3925 67.2636" stroke="black" stroke-width="0.980065" stroke-linecap="round" stroke-linejoin="round"/>
<path d="M41.5776 87.7223C41.5776 87.7223 41.8139 89.5341 43.2386 88.6894" stroke="black" stroke-width="0.980065" stroke-linecap="round" stroke-linejoin="round"/>
<path d="M50.2964 81.3269C51.1807 81.6113 52.0418 81.9682 52.8717 82.3945" stroke="black" stroke-width="0.980065" stroke-linecap="round" stroke-linejoin="round"/>
<path d="M39.668 76.2715C40.5272 77.3854 42.6548 77.701 43.4641 77.6499" stroke="black" stroke-width="0.980065" stroke-linecap="round" stroke-linejoin="round"/>
<path d="M31.0383 67.8516C31.0383 67.8516 25.6257 73.6158 24.9228 76.9631C24.5506 78.7419 24.2259 84.2549 23.6552 87.3604C23.5671 87.8889 23.4373 88.4091 23.2671 88.9155" stroke="black" stroke-width="0.980065" stroke-linecap="round" stroke-linejoin="round"/>
<path d="M36.0506 71.4421L32.1419 78.3823C32.1419 78.3823 31.772 84.0477 33.0615 86.2896" stroke="black" stroke-width="0.980065" stroke-linecap="round" stroke-linejoin="round"/>
<path d="M15.6994 111.916C15.6994 111.916 15.312 110.797 14.7458 109.023C14.6016 108.571 14.4438 108.076 14.2822 107.544C13.4751 104.941 17.232 92.5736 17.232 92.5736C17.232 92.5736 14.3373 85.4372 13.9916 83.8954C13.6458 82.3537 13.9916 81.5287 14.6363 80.2428C15.2811 78.957 16.098 75.6113 17.5808 74.8931C18.0116 74.6495 18.5175 74.593 18.9881 74.7361C19.5142 74.9969 20.0055 75.3275 20.4498 75.7197" stroke="black" stroke-width="0.980065" stroke-linecap="round" stroke-linejoin="round"/>
<path d="M31.0386 67.8516C31.6663 66.8992 32.3422 65.982 33.0635 65.1041C33.6091 64.4062 34.2407 63.786 34.9419 63.2594C36.5871 62.1604 41.2424 63.717 36.0503 71.4453" stroke="black" stroke-width="0.980065" stroke-linecap="round" stroke-linejoin="round"/>
<path d="M33.0635 65.1009C33.8883 64.8775 34.7574 64.9047 35.5678 65.1794C36.7494 65.6504 37.1088 64.1935 37.1088 64.1935" stroke="black" stroke-width="0.980065" stroke-linecap="round" stroke-linejoin="round"/>
<path d="M26.6455 76.2712C27.4382 76.2114 28.2341 76.2114 29.0268 76.2712" stroke="black" stroke-width="0.980065" stroke-linecap="round" stroke-linejoin="round"/>
<path d="M20.064 82.3945C20.1769 82.4901 20.2822 82.5951 20.3788 82.7085C21.2795 83.7431 22.9458 86.4427 23.6563 87.358" stroke="black" stroke-width="0.980065" stroke-linecap="round" stroke-linejoin="round"/>
<path d="M20.3994 82.6913C20.4724 81.7292 20.7272 80.7915 21.1491 79.932C21.2042 79.815 21.2669 79.6965 21.3349 79.5724" stroke="black" stroke-width="0.980065" stroke-linecap="round" stroke-linejoin="round"/>
<path d="M21.1278 79.9374C21.1352 79.937 21.1423 79.9351 21.149 79.9319C21.7907 79.7851 23.8443 77.7229 24.0723 75.7157C24.2845 73.8521 22.1312 72.3025 19.6684 74.1033C19.4393 74.271 19.2214 74.4546 19.0161 74.6528" stroke="black" stroke-width="0.980065" stroke-linecap="round" stroke-linejoin="round"/>
<path d="M19.6685 74.1033C20.4317 74.3295 21.1667 74.6485 21.858 75.0539C22.613 75.5736 22.9557 74.6536 22.9557 74.6536" stroke="black" stroke-width="0.980065" stroke-linecap="round" stroke-linejoin="round"/>
<path d="M147.712 78.1155C143.881 76.0564 125.569 67.0046 124.767 65.3404C123.965 63.6762 119.86 48.667 115.17 43.1814C114.038 41.8548 105.826 42.1609 105.826 42.1609" stroke="black" stroke-width="0.980065" stroke-linecap="round" stroke-linejoin="round"/>
<path d="M80.8068 54.9618C80.6996 54.9234 78.0133 53.9264 76.8952 55.0921C76.5795 55.4167 76.3105 55.7868 76.0964 56.1911C75.8117 56.6752 75.6709 57.2359 75.6914 57.8028C75.712 58.3698 75.893 58.9178 76.2119 59.3782C76.482 59.7418 76.7788 60.083 77.0998 60.3987C77.506 60.8187 77.9612 61.2677 78.3418 61.7011C78.66 62.0297 78.9238 62.4109 79.1224 62.8291C79.2498 63.2538 79.3452 63.6882 79.4078 64.1283C79.6985 65.6889 80.2489 68.0125 82.5592 69.1264C85.706 70.6406 101.951 83.3969 114.073 85.8469C115.505 86.029 116.953 86.029 118.385 85.8469L147.714 102.386" stroke="black" stroke-width="0.980065" stroke-linecap="round" stroke-linejoin="round"/>
<path d="M85.146 56.8388C85.8377 57.5802 86.4332 58.4126 86.9172 59.3147C87.0427 59.5509 87.153 59.7956 87.2472 60.0471C87.2472 60.0471 93.4767 64.0506 94.4801 64.6291C94.4801 64.6291 100.88 61.0966 102.83 60.1154C102.83 60.1154 100.742 57.8876 100.288 57.2988L100.283 57.2933" stroke="black" stroke-width="0.980065" stroke-linecap="round" stroke-linejoin="round"/>
<path d="M78.3414 61.7011C78.3414 61.7011 79.0013 59.2252 79.5494 58.5768C80.0975 57.9284 78.6902 56.4275 77.791 55.7579" stroke="black" stroke-width="0.980065" stroke-linecap="round" stroke-linejoin="round"/>
<path d="M80.4556 62.154C80.1204 62.6933 79.2763 63.505 79.4024 64.1314" stroke="black" stroke-width="0.980065" stroke-linecap="round" stroke-linejoin="round"/>
<path d="M96.8428 52.8863L96.8194 52.8652C95.9961 52.1421 95.2621 51.3158 94.6344 50.405C94.0218 51.5607 93.0235 52.4433 91.8281 52.8863C91.0223 53.0971 90.1871 53.1591 89.3607 53.0693C89.0042 53.0377 88.6508 52.9766 88.3037 52.8863" stroke="black" stroke-width="0.980065" stroke-linecap="round" stroke-linejoin="round"/>
<path d="M89.3579 53.1069C89.2001 53.4241 89.0207 53.7292 88.8211 54.0199C88.0496 55.2202 86.946 56.149 85.6561 56.6834C85.4938 56.7438 85.3231 56.7956 85.148 56.8404C85.0536 56.8616 84.957 56.8812 84.8573 56.9C82.6384 57.3004 80.7048 56.7744 80.8045 54.9579C80.909 54.1082 81.218 53.2995 81.7029 52.6069C83.9951 48.9111 83.8985 47.4808 85.1216 46.9439C85.3481 46.8458 85.672 46.699 86.0646 46.5192C87.7965 45.7208 90.8852 44.2427 92.9418 43.128C95.4651 41.7582 96.2638 42.0549 97.7572 42.7112C99.2506 43.3674 106.874 47.8372 106.874 47.8372" stroke="black" stroke-width="0.980065" stroke-linecap="round" stroke-linejoin="round"/>
<path d="M109.759 43.9688C109.041 43.6665 107.553 42.9632 105.826 42.1633C102.302 40.5234 97.7881 38.469 96.8414 38.5703C93.3435 38.9377 88.109 43.5496 86.063 46.5239" stroke="black" stroke-width="0.980065" stroke-linecap="round" stroke-linejoin="round"/>
<path d="M88.8213 54.0199L96.8198 52.8652L109.353 51.0565" stroke="black" stroke-width="0.980065" stroke-linecap="round" stroke-linejoin="round"/>
<path d="M110.039 55.8937L100.29 57.302L87.123 59.2032" stroke="black" stroke-width="0.980065" stroke-linecap="round" stroke-linejoin="round"/>
<path d="M73.3721 57.9009L71.5903 59.0266L73.61 59.5682L74.0637 59.6907L77.0158 60.4835" stroke="black" stroke-width="0.980065" stroke-linecap="round" stroke-linejoin="round"/>
<path d="M74.1189 57.4354L73.3745 57.9041" stroke="black" stroke-width="0.980065" stroke-linecap="round" stroke-linejoin="round"/>
<path d="M76.0911 56.188L74.1235 57.4299" stroke="black" stroke-width="0.980065" stroke-linecap="round" stroke-linejoin="round"/>
<path d="M107.042 53.8535L85.688 56.9204L85.6616 56.9236" stroke="black" stroke-width="0.980065" stroke-linecap="round" stroke-linejoin="round"/>
<path d="M112.587 55.5012L110.038 55.8937C109.478 55.8946 108.937 55.676 108.525 55.2814C108.112 54.8868 107.857 54.345 107.811 53.764V53.7365C107.715 53.1715 107.819 52.5895 108.102 52.0972C108.386 51.605 108.83 51.2355 109.354 51.0565L111.89 50.664" stroke="black" stroke-width="0.980065" stroke-linecap="round" stroke-linejoin="round"/>
<path d="M112.588 55.5012L113.725 55.3245C114.342 55.2302 114.898 54.885 115.27 54.3647C115.642 53.8444 115.8 53.1918 115.709 52.5504C115.618 51.9089 115.286 51.3312 114.786 50.9443C114.286 50.5574 113.658 50.3931 113.041 50.4874L111.902 50.6616C111.897 50.6611 111.893 50.6611 111.889 50.6616C111.734 50.7111 110.367 51.1876 110.697 53.4672C110.737 53.9813 110.948 54.4649 111.293 54.8358C111.637 55.2066 112.095 55.4417 112.588 55.5012Z" stroke="black" stroke-width="0.980065" stroke-linecap="round" stroke-linejoin="round"/>
<path d="M74.1234 57.4299L74.1188 57.4354C73.8794 57.756 73.7449 58.1479 73.735 58.5537C73.725 58.9595 73.8402 59.3579 74.0637 59.6907" stroke="black" stroke-width="0.980065" stroke-linecap="round" stroke-linejoin="round"/>
<path d="M51.6113 91.1519L55.3576 105.733" stroke="black" stroke-width="0.980065" stroke-linecap="round" stroke-linejoin="round"/>
<path d="M47.022 73.2861L48.6513 79.6297" stroke="black" stroke-width="0.980065" stroke-linecap="round" stroke-linejoin="round"/>
<path d="M57.6372 114.602L60.3408 125.132C69.0439 122.715 76.4671 116.803 80.9775 108.695C85.4878 100.588 86.7158 90.9496 84.3914 81.9007C82.0669 72.8518 76.3804 65.1337 68.5827 60.4441C60.7851 55.7545 51.5151 54.4777 42.812 56.8946L44.2971 62.68" stroke="black" stroke-width="0.980065" stroke-linecap="round" stroke-linejoin="round"/>
<path d="M84.2551 82.6096L78.1011 84.3201" stroke="black" stroke-width="0.980065" stroke-linecap="round" stroke-linejoin="round"/>
<path d="M80.2982 109.549L74.7837 106.234" stroke="black" stroke-width="0.980065" stroke-linecap="round" stroke-linejoin="round"/>
<path d="M69.8112 61.2623L66.6206 66.9968" stroke="black" stroke-width="0.980065" stroke-linecap="round" stroke-linejoin="round"/>
<path d="M42.812 54.3001C42.812 54.3001 59.1072 49.5901 71.5903 59.0266" stroke="black" stroke-width="0.980065" stroke-linecap="round" stroke-linejoin="round" stroke-dasharray="4.08 4.08"/>
<path d="M90.8618 115.06L120.463 102.252L119.868 103.908L121.333 104.412L120.696 105.967L122.197 106.572L92.596 119.38" stroke="black" stroke-width="0.980065" stroke-linecap="round" stroke-linejoin="round"/>
<path d="M124.862 103.753L126.261 102.268L124.262 102.265L123.929 102.263L120.463 102.252" stroke="black" stroke-width="0.980065" stroke-linecap="round" stroke-linejoin="round"/>
<path d="M122.197 106.572L124.581 104.049L124.859 103.753" stroke="black" stroke-width="0.980065" stroke-linecap="round" stroke-linejoin="round"/>
<path d="M91.7314 117.219L118.951 105.444" stroke="black" stroke-width="0.980065" stroke-linecap="round" stroke-linejoin="round"/>
<path d="M88.5854 116.048L90.8618 115.06L91.7315 117.219L92.596 119.38L90.3197 120.371" stroke="black" stroke-width="0.980065" stroke-linecap="round" stroke-linejoin="round"/>
<path d="M88.5853 116.048L87.5683 116.489C87.0169 116.729 86.5796 117.186 86.3526 117.761C86.1255 118.335 86.1273 118.98 86.3576 119.554C86.5879 120.127 87.0278 120.582 87.5805 120.818C88.1332 121.054 88.7534 121.052 89.3048 120.812L90.3217 120.371L88.5853 116.048Z" stroke="black" stroke-width="0.980065" stroke-linecap="round" stroke-linejoin="round"/>
<path d="M123.928 102.263C123.928 102.263 123.415 103.641 124.578 104.047" stroke="black" stroke-width="0.980065" stroke-linecap="round" stroke-linejoin="round"/>
<path d="M33.1475 49.5964L25.6632 52.3612L21.1543 39.1661L95.9839 11.5074L100.495 24.7025L92.9472 27.4916L85.4652 30.2564L77.9831 33.0243L70.4981 35.7883L63.0787 38.5319L55.5966 41.2966L48.1116 44.0637L40.6295 46.8285L33.1475 49.5933" stroke="black" stroke-width="0.980065" stroke-linecap="round" stroke-linejoin="round"/>
<path d="M63.0786 38.5318L62.0254 35.4539" stroke="black" stroke-width="0.980065" stroke-linecap="round" stroke-linejoin="round"/>
<path d="M55.5962 41.2966L54.543 38.2209" stroke="black" stroke-width="0.980065" stroke-linecap="round" stroke-linejoin="round"/>
<path d="M48.1112 44.0638L47.061 40.9858" stroke="black" stroke-width="0.980065" stroke-linecap="round" stroke-linejoin="round"/>
<path d="M40.6294 46.8285L39.5762 43.7505" stroke="black" stroke-width="0.980065" stroke-linecap="round" stroke-linejoin="round"/>
<path d="M33.147 49.5964V49.5933L32.0938 46.5184" stroke="black" stroke-width="0.980065" stroke-linecap="round" stroke-linejoin="round"/>
<path d="M92.9472 27.4916L91.897 24.4136" stroke="black" stroke-width="0.980065" stroke-linecap="round" stroke-linejoin="round"/>
<path d="M85.4648 30.2564L84.4116 27.1807" stroke="black" stroke-width="0.980065" stroke-linecap="round" stroke-linejoin="round"/>
<path d="M77.9829 33.0243L76.9297 29.9455" stroke="black" stroke-width="0.980065" stroke-linecap="round" stroke-linejoin="round"/>
<path d="M70.498 35.7882L69.4478 32.7103" stroke="black" stroke-width="0.980065" stroke-linecap="round" stroke-linejoin="round"/>
</svg>
