<svg width="51" height="12" viewBox="0 0 51 12" fill="none" xmlns="http://www.w3.org/2000/svg">
<path d="M3.375 11H0.232955V0.818182H3.5142C4.50189 0.818182 5.34706 1.02202 6.04972 1.42969C6.75237 1.83404 7.29096 2.41572 7.66548 3.17472C8.04001 3.9304 8.22727 4.83523 8.22727 5.8892C8.22727 6.94981 8.03835 7.86293 7.66051 8.62855C7.28267 9.39086 6.73248 9.97751 6.00994 10.3885C5.28741 10.7962 4.40909 11 3.375 11ZM1.46591 9.90625H3.29545C4.13731 9.90625 4.83499 9.74384 5.38849 9.41903C5.942 9.09422 6.35464 8.63187 6.62642 8.03196C6.8982 7.43205 7.03409 6.7178 7.03409 5.8892C7.03409 5.06723 6.89986 4.35961 6.63139 3.76633C6.36293 3.16974 5.96188 2.71236 5.42827 2.39418C4.89465 2.07268 4.23011 1.91193 3.43466 1.91193H1.46591V9.90625ZM13.3381 11.1591C12.6023 11.1591 11.9676 10.9967 11.4339 10.6719C10.9036 10.3438 10.4943 9.88636 10.206 9.29972C9.92093 8.70975 9.77841 8.02367 9.77841 7.24148C9.77841 6.45928 9.92093 5.76989 10.206 5.1733C10.4943 4.57339 10.8954 4.10606 11.4091 3.77131C11.9261 3.43324 12.5294 3.2642 13.2188 3.2642C13.6165 3.2642 14.0092 3.33049 14.397 3.46307C14.7848 3.59564 15.1378 3.81108 15.456 4.10938C15.7741 4.40436 16.0277 4.79545 16.2166 5.28267C16.4055 5.76989 16.5 6.36979 16.5 7.08239V7.57955H10.6136V6.56534H15.3068C15.3068 6.13447 15.2206 5.75 15.0483 5.41193C14.8793 5.07386 14.6373 4.80705 14.3224 4.61151C14.0109 4.41596 13.643 4.31818 13.2188 4.31818C12.7514 4.31818 12.3471 4.43419 12.0057 4.66619C11.6676 4.89489 11.4074 5.19318 11.2251 5.56108C11.0429 5.92898 10.9517 6.32339 10.9517 6.74432V7.42045C10.9517 7.99716 11.0511 8.48603 11.25 8.88707C11.4522 9.2848 11.7322 9.58807 12.0902 9.79688C12.4482 10.0024 12.8641 10.1051 13.3381 10.1051C13.6463 10.1051 13.9247 10.062 14.1733 9.97585C14.4252 9.88636 14.6423 9.75379 14.8246 9.57812C15.0069 9.39915 15.1477 9.17708 15.2472 8.91193L16.3807 9.23011C16.2614 9.61458 16.0608 9.95265 15.7791 10.2443C15.4974 10.5327 15.1494 10.758 14.7351 10.9205C14.3208 11.0795 13.8551 11.1591 13.3381 11.1591ZM24.2967 3.36364L21.4728 11H20.2797L17.4558 3.36364H18.7285L20.8365 9.44886H20.916L23.024 3.36364H24.2967ZM25.8453 11V3.36364H27.0186V11H25.8453ZM26.4419 2.09091C26.2132 2.09091 26.016 2.01302 25.8503 1.85724C25.6879 1.70147 25.6067 1.5142 25.6067 1.29545C25.6067 1.0767 25.6879 0.889441 25.8503 0.733664C26.016 0.577888 26.2132 0.5 26.4419 0.5C26.6706 0.5 26.8662 0.577888 27.0286 0.733664C27.1943 0.889441 27.2772 1.0767 27.2772 1.29545C27.2772 1.5142 27.1943 1.70147 27.0286 1.85724C26.8662 2.01302 26.6706 2.09091 26.4419 2.09091ZM32.2699 11.1591C31.554 11.1591 30.9375 10.9901 30.4205 10.652C29.9034 10.3139 29.5057 9.84825 29.2273 9.25497C28.9489 8.66169 28.8097 7.9839 28.8097 7.22159C28.8097 6.44602 28.9522 5.7616 29.2372 5.16832C29.5256 4.57173 29.9266 4.10606 30.4403 3.77131C30.9574 3.43324 31.5606 3.2642 32.25 3.2642C32.7869 3.2642 33.2708 3.36364 33.7017 3.5625C34.1326 3.76136 34.4856 4.03977 34.7607 4.39773C35.0357 4.75568 35.2064 5.1733 35.2727 5.65057H34.0994C34.0099 5.30256 33.8111 4.99432 33.5028 4.72585C33.1979 4.45407 32.7869 4.31818 32.2699 4.31818C31.8125 4.31818 31.4115 4.4375 31.0668 4.67614C30.7254 4.91146 30.4586 5.24455 30.2663 5.67543C30.0774 6.10298 29.983 6.60511 29.983 7.18182C29.983 7.77178 30.0758 8.28551 30.2614 8.72301C30.4503 9.16051 30.7154 9.50024 31.0568 9.74219C31.4015 9.98414 31.8059 10.1051 32.2699 10.1051C32.5748 10.1051 32.8516 10.0521 33.1001 9.94602C33.3487 9.83996 33.5592 9.6875 33.7315 9.48864C33.9039 9.28977 34.0265 9.05114 34.0994 8.77273H35.2727C35.2064 9.22348 35.0424 9.6295 34.7805 9.99077C34.522 10.3487 34.179 10.6338 33.7514 10.8459C33.3272 11.0547 32.8333 11.1591 32.2699 11.1591ZM40.1896 11.1591C39.4538 11.1591 38.8191 10.9967 38.2855 10.6719C37.7552 10.3438 37.3459 9.88636 37.0575 9.29972C36.7725 8.70975 36.63 8.02367 36.63 7.24148C36.63 6.45928 36.7725 5.76989 37.0575 5.1733C37.3459 4.57339 37.7469 4.10606 38.2607 3.77131C38.7777 3.43324 39.3809 3.2642 40.0703 3.2642C40.468 3.2642 40.8608 3.33049 41.2486 3.46307C41.6364 3.59564 41.9893 3.81108 42.3075 4.10938C42.6257 4.40436 42.8793 4.79545 43.0682 5.28267C43.2571 5.76989 43.3516 6.36979 43.3516 7.08239V7.57955H37.4652V6.56534H42.1584C42.1584 6.13447 42.0722 5.75 41.8999 5.41193C41.7308 5.07386 41.4889 4.80705 41.174 4.61151C40.8625 4.41596 40.4946 4.31818 40.0703 4.31818C39.603 4.31818 39.1986 4.43419 38.8572 4.66619C38.5192 4.89489 38.259 5.19318 38.0767 5.56108C37.8944 5.92898 37.8033 6.32339 37.8033 6.74432V7.42045C37.8033 7.99716 37.9027 8.48603 38.1016 8.88707C38.3037 9.2848 38.5838 9.58807 38.9418 9.79688C39.2997 10.0024 39.7157 10.1051 40.1896 10.1051C40.4979 10.1051 40.7763 10.062 41.0249 9.97585C41.2768 9.88636 41.4938 9.75379 41.6761 9.57812C41.8584 9.39915 41.9993 9.17708 42.0987 8.91193L43.2322 9.23011C43.1129 9.61458 42.9124 9.95265 42.6307 10.2443C42.349 10.5327 42.0009 10.758 41.5866 10.9205C41.1723 11.0795 40.7067 11.1591 40.1896 11.1591ZM50.5455 5.07386L49.4915 5.37216C49.4252 5.1965 49.3274 5.0258 49.1982 4.86009C49.0722 4.69105 48.8999 4.55185 48.6811 4.44247C48.4624 4.3331 48.1823 4.27841 47.8409 4.27841C47.3736 4.27841 46.9841 4.38613 46.6726 4.60156C46.3643 4.81368 46.2102 5.08381 46.2102 5.41193C46.2102 5.7036 46.3163 5.93395 46.5284 6.10298C46.7405 6.27202 47.072 6.41288 47.5227 6.52557L48.6562 6.80398C49.339 6.9697 49.8478 7.22325 50.1825 7.56463C50.5173 7.9027 50.6847 8.33854 50.6847 8.87216C50.6847 9.30966 50.5587 9.70076 50.3068 10.0455C50.0582 10.3902 49.7102 10.6619 49.2628 10.8608C48.8153 11.0597 48.295 11.1591 47.7017 11.1591C46.9228 11.1591 46.2782 10.9901 45.7678 10.652C45.2573 10.3139 44.9342 9.82008 44.7983 9.17045L45.9119 8.89205C46.018 9.30303 46.2185 9.61127 46.5135 9.81676C46.8118 10.0223 47.2012 10.125 47.6818 10.125C48.2287 10.125 48.6629 10.009 48.9844 9.77699C49.3092 9.54167 49.4716 9.25994 49.4716 8.93182C49.4716 8.66667 49.3788 8.4446 49.1932 8.26562C49.0076 8.08333 48.7225 7.94744 48.3381 7.85795L47.0653 7.55966C46.366 7.39394 45.8523 7.13707 45.5241 6.78906C45.1993 6.43774 45.0369 5.99858 45.0369 5.47159C45.0369 5.04072 45.1579 4.65956 45.3999 4.32812C45.6451 3.99669 45.9782 3.73651 46.3991 3.54758C46.8234 3.35866 47.304 3.2642 47.8409 3.2642C48.5966 3.2642 49.1899 3.42992 49.6207 3.76136C50.0549 4.0928 50.3632 4.5303 50.5455 5.07386Z" fill="#A1A7C4"/>
</svg>
