<svg width="152" height="158" viewBox="0 0 152 158" fill="none" xmlns="http://www.w3.org/2000/svg">
<path d="M73.4343 37.9446C73.1474 37.1596 73.3965 36.8613 73.2833 36.0449C73.17 35.2285 72.8982 34.8831 71.5845 33.1482C70.7389 32.0335 70.0066 31.0994 69.4252 30.3693L62.1395 27.8495L55.5936 37.6541C54.6725 44.3947 53.754 51.1431 52.8379 57.8993C54.6822 58.1323 56.4606 58.7576 58.0625 59.7362C59.7008 60.741 60.6748 61.9185 67.0772 69.1012C67.9625 68.2439 68.5382 67.0968 68.708 65.8513C68.7497 64.8287 68.5949 63.8078 68.2526 62.8481C67.9104 61.8884 67.3876 61.0093 66.7148 60.2621C67.4161 58.3454 68.402 56.5548 69.6366 54.9555C70.3966 55.2252 71.1971 55.3501 71.9998 55.3245C73.0115 55.2774 74.1968 55.2303 74.7253 54.3511C75.2538 53.4719 74.7253 52.1374 74.6423 51.9411C74.8763 51.5486 75.1255 51.0384 74.9594 50.8421C74.7933 50.6459 74.5139 50.8421 74.3705 50.8421C73.6155 50.8421 73.1474 50.0571 72.5585 49.6018C71.9696 49.1465 71.4109 48.4793 71.3958 48.2595C71.3203 47.2233 73.5626 46.7366 74.2572 45.9045C74.3991 45.7297 74.576 45.5893 74.7755 45.493C74.9751 45.3967 75.1924 45.347 75.4124 45.3471C75.6389 45.2215 75.7672 44.7191 75.4124 43.1491C75.4879 43.0942 75.6087 43.0078 75.737 42.8979C76.945 41.8853 76.945 41.9716 74.68 39.6009C73.7816 38.5726 73.5853 38.3606 73.4343 37.9446ZM71.1693 39.3419C70.7993 39.86 70.1878 39.8992 68.3833 39.5224C68.4895 39.2619 68.6442 39.0258 68.8386 38.8277C69.033 38.6296 69.2631 38.4736 69.5158 38.3685C70.1418 38.1937 70.7414 37.9295 71.2976 37.5835C71.358 37.505 71.4411 37.3558 71.5543 37.5835C71.5357 38.1882 71.4103 38.7843 71.1844 39.3419H71.1693Z" fill="#FFD997"/>
<path d="M25.9446 52.5691C25.8691 53.4326 25.786 54.304 25.703 55.1675C22.1869 55.1437 18.6781 54.834 15.2085 54.2412C15.6313 50.0885 15.518 49.4762 15.6917 47.5765C15.8955 45.3942 16.2126 44.4365 16.5071 40.5115C19.3356 41.0486 22.2093 41.2853 25.0839 41.218L27.1299 43.102C27.0695 43.7143 26.7977 46.5639 26.7222 47.3646C26.196 47.7328 25.6917 48.1339 25.2122 48.5656C24.4346 49.1924 23.785 49.9741 23.3014 50.8651C22.8179 51.7561 22.5101 52.7383 22.3961 53.7545C23.6294 53.5467 24.8257 53.1471 25.9446 52.5691Z" fill="#81F8F8"/>
<path d="M31.9171 29.0505C32.1132 29.6897 32.445 30.2749 32.8881 30.7627C33.3311 31.2505 33.874 31.6285 34.4765 31.8687C34.2397 30.8407 34.1306 29.7855 34.1519 28.7287C35.0514 28.8033 35.9552 28.8033 36.8548 28.7287C37.6853 28.6502 37.9646 27.6846 37.9722 26.8133C38.0152 24.3679 37.6995 21.9299 37.036 19.5834C36.666 18.2332 35.8959 18.4295 34.4388 18.3431C30.8655 18.097 27.2766 18.3371 23.7631 19.0575C22.8873 19.45 23.1591 20.5725 23.1893 21.6323C23.2346 23.4692 23.3176 25.1177 23.5139 27.2215C23.7555 28.7915 24.654 29.0191 25.6128 29.1761C27.7107 29.5232 29.8516 29.4727 31.9322 29.027L31.9171 29.0505Z" fill="#FFD997"/>
<path d="M46.0656 13.4212C46.0128 11.6393 47.787 10.1792 49.5311 10.187C51.2751 10.1949 52.9965 11.6314 52.9437 13.4212C52.8833 15.0697 51.3204 16.2551 49.8859 16.4042C48.1343 16.5848 46.126 15.2895 46.0656 13.4212Z" fill="black"/>
<path d="M53.3592 11.1997C53.1438 10.9338 53.034 10.5925 53.0522 10.2453C53.0705 9.89818 53.2154 9.57133 53.4573 9.33139C53.6856 9.07963 53.999 8.92991 54.3314 8.9138C54.6639 8.89769 54.9893 9.01645 55.2391 9.24504C55.4182 9.48833 55.5108 9.78858 55.5012 10.0948C55.4916 10.401 55.3803 10.6943 55.1863 10.9249C54.9753 11.208 54.6669 11.3948 54.3261 11.4461C53.9853 11.4973 53.6386 11.409 53.3592 11.1997Z" fill="black"/>
<path d="M70.0365 13.6567C71.1539 13.8608 76.2954 14.4417 77.5865 14.7871C76.7711 11.4901 77.0127 7.07841 76.7409 4.42511C75.5706 5.08451 69.9081 7.77706 68.7681 8.02826L70.0365 13.6567Z" fill="#FFD997"/>
<path d="M123.038 28.7209C123.942 27.2299 124.643 25.6158 125.121 23.9245L126.473 26.5072C129.297 23.6812 132.233 21.0122 134.944 18.8299C132.15 22.3388 129.281 26.201 126.639 30.0711C126.103 29.184 125.567 28.297 125.046 27.4178L123.038 28.7209Z" fill="#FFD997"/>
<path d="M125.008 39.8914C126.245 38.1816 127.26 36.3104 128.028 34.3257L131.433 36.6807C134.24 34.5042 137.281 32.6734 140.493 31.225C137.126 34.1923 133.608 37.5835 130.354 41.1003C129.803 39.905 129.149 38.7646 128.398 37.6934C127.196 38.2987 126.06 39.0355 125.008 39.8914Z" fill="#FFD997"/>
<path d="M126.964 47.0977C127.797 48.412 128.529 49.7926 129.153 51.2268C129.953 50.5831 130.848 50.0793 131.803 49.7353C132.585 51.9136 133.622 53.9834 134.891 55.8976C134.091 52.9224 133.381 49.7746 132.755 46.7288C131.75 47.5463 130.649 48.227 129.478 48.7541C128.565 48.3358 127.718 47.7775 126.964 47.0977Z" fill="#FFD997"/>
<path d="M68.7304 26.9153C68.1494 26.1793 67.3876 25.6205 66.5258 25.2982C60.433 22.6606 53.6078 27.4805 50.9577 34.0431C50.2727 33.3745 49.4446 32.8848 48.5417 32.6144C46.7524 32.2219 45.2877 33.266 44.2835 33.9646C40.5085 36.6258 38.6286 42.2228 39.6856 46.7915C40.0404 48.2909 40.3198 48.1339 41.1956 50.5438C42.3205 53.6838 43.0378 55.6777 42.4262 57.7423C41.8147 59.8068 40.735 59.3123 40.1612 61.4396C39.5874 63.567 40.5765 64.5796 39.7762 67.123C39.5119 67.963 39.1722 68.9599 38.3719 69.1719C37.3224 69.4545 36.2805 68.1671 36.205 68.0807C35.45 72.2255 38.3417 75.9307 42.0789 73.7013C42.4247 70.7445 43.2897 67.8789 44.6308 65.2469C45.6425 63.2608 46.8052 61.0393 49.2741 59.3437C50.1802 58.7241 51.1631 58.2355 52.1959 57.8914C52.7861 57.9065 53.3688 57.7517 53.8796 57.444C54.3648 57.1029 54.7636 56.6451 55.0423 56.1095C56.6819 53.3046 57.7365 50.1728 58.1378 46.9171C57.8514 46.5305 57.5987 46.118 57.3828 45.6847C56.889 44.9159 56.6479 44.0016 56.6957 43.0785C56.6957 42.9921 56.9222 41.6184 57.7452 41.375C58.8928 41.0296 60.6519 43.0549 61.7089 43.0628C61.9641 43.0506 62.2142 42.9844 62.444 42.8683C62.6737 42.7522 62.8783 42.5887 63.0453 42.3877C61.5202 40.5429 61.4296 39.4675 61.6712 38.8395C62.1393 37.5128 64.1098 37.5992 64.4118 36.2882C64.7138 34.9773 63.1887 34.4121 63.4756 33.0619C63.6341 32.6007 63.8942 32.1844 64.235 31.8464C64.5759 31.5084 64.9881 31.2579 65.4386 31.1151C66.0955 30.8796 66.405 31.0287 68.3152 30.7147C69.1457 30.5734 69.2967 30.5106 69.425 30.3693C70.0441 29.6785 69.5232 27.9751 68.7304 26.9153Z" fill="#81F8F8"/>
<path d="M95.8807 36.2568C95.6456 36.1175 95.3848 36.0315 95.1154 36.0044C94.8461 35.9773 94.5743 36.0099 94.3178 36.0998C94.1009 35.8667 93.8159 35.7149 93.5072 35.668C93.1985 35.6211 92.8835 35.6819 92.6115 35.8408C92.0733 35.7345 91.5164 35.8144 91.026 36.0684C90.7054 35.9195 90.3582 35.8423 90.0071 35.8418C89.6559 35.8413 89.3085 35.9175 88.9875 36.0655C88.6664 36.2135 88.3789 36.4301 88.1435 36.701C87.9081 36.972 87.7301 37.2914 87.621 37.6384C87.4398 38.1094 87.621 38.2036 87.3341 38.9023C87.0472 39.6009 86.8886 39.7501 86.9037 40.2368C86.893 40.4 86.9188 40.5637 86.979 40.7148C87.0393 40.866 87.1324 41.0006 87.251 41.1081C87.4902 41.2052 87.7531 41.2194 88.0007 41.1487C88.2482 41.0779 88.4672 40.9261 88.6251 40.7156C88.654 40.923 88.7273 41.121 88.8397 41.2949C88.9521 41.4689 89.1007 41.6143 89.2744 41.7204C89.9011 41.9402 90.8524 41.4928 91.1921 40.2368C91.4297 40.3532 91.6947 40.3952 91.9549 40.3576C92.215 40.3199 92.4589 40.2043 92.6568 40.0248C93.14 39.648 93.0419 39.2398 93.4118 38.3371C93.3969 38.5301 93.4342 38.7236 93.5196 38.8956C93.605 39.0676 93.7351 39.2114 93.895 39.3105C94.2272 39.4518 94.65 39.1456 94.7935 39.0122C95.3446 38.5804 95.2163 38.2272 95.7448 37.7169C96.2733 37.2067 96.5375 37.3637 96.5753 37.0968C96.6508 36.7043 95.926 36.2804 95.8807 36.2568Z" fill="#FFD997"/>
<path d="M101.135 55.8348C101.203 55.4655 101.186 55.0849 101.086 54.7236C100.987 54.3623 100.807 54.0304 100.561 53.7545C100.687 53.5726 100.766 53.3607 100.792 53.1385C100.819 52.9163 100.79 52.6908 100.711 52.4828C100.631 52.2748 100.502 52.091 100.336 51.9484C100.17 51.8057 99.9726 51.7087 99.7612 51.6664C99.8475 51.096 99.8035 50.5124 99.6328 49.963C99.5196 49.594 99.361 49.0681 98.9533 48.9268C98.7565 48.8779 98.5497 48.8972 98.3644 48.9817C97.7772 49.1752 97.2001 49.4005 96.6355 49.6568C95.3218 50.2299 95.5332 49.806 94.4913 51.062C93.6082 52.1859 92.6413 53.2358 91.5996 54.202C91.38 54.296 91.1912 54.4541 91.056 54.6573C90.9765 54.8689 90.9402 55.0954 90.9493 55.3224C90.9584 55.5494 91.0127 55.772 91.1089 55.9761C91.2976 56.5648 90.671 62.1619 90.5955 62.8134C86.0655 71.9901 84.9481 74.1253 83.5287 76.1584C81.1202 79.6517 81.0372 79.4162 79.497 81.8575L76.2656 79.7851L70.2256 87.5174V89.1423C73.392 92.1912 77.441 94.0629 81.7393 94.4646C83.1512 94.4646 83.6948 94.394 84.0043 94.1271C84.3443 93.8138 84.573 93.3908 84.6536 92.926C87.7665 87.6737 90.3281 82.0892 92.2942 76.2683C93.4631 76.4479 94.6541 76.3973 95.805 76.1192C96.6664 75.963 97.4588 75.5291 98.07 74.8789C99.4818 73.0655 97.6321 70.7576 98.9156 64.4384L98.1606 63.7397C99.6568 62.4403 100.645 60.6174 100.939 58.6137C101.332 58.2966 101.59 57.8313 101.656 57.3184C101.732 56.8396 101.618 56.0467 101.135 55.8348Z" fill="#FFD997"/>
<path d="M87.5377 49.6568C85.8608 49.9611 84.157 50.0743 82.4565 49.9944C79.9499 47.8435 79.6026 44.3267 81.1579 41.3594C82.6898 40.9805 84.2018 40.5193 85.6879 39.9778C85.3688 41.6383 85.368 43.348 85.6854 45.0089C86.0028 46.6698 86.6322 48.2493 87.5377 49.6568Z" fill="#81F8F8"/>
<path d="M69.3347 142.868C68.5797 129.703 66.9338 126.343 66.2619 112.794C64.319 113.812 62.1851 114.375 60.0105 114.443C57.3076 114.529 55.1936 113.776 52.5813 112.873C49.6687 111.792 46.8827 110.372 44.2763 108.642C41.966 107.189 40.7882 106.459 39.9048 105.541C38.9086 104.514 38.0867 103.32 37.4737 102.008C37.3605 102.409 36.9075 103.955 36.8018 104.363C45.6403 117.818 54.4763 131.302 63.3098 144.815L69.3347 142.868Z" fill="#81F8F8"/>
<path d="M109.297 56.8945C108.628 56.8961 107.975 57.1035 107.42 57.4905C106.865 57.8775 106.433 58.4269 106.178 59.0691C105.923 59.7114 105.856 60.4179 105.987 61.0993C106.118 61.7808 106.44 62.4067 106.913 62.8981C107.385 63.3894 107.987 63.7242 108.643 63.8602C109.298 63.9961 109.977 63.9271 110.595 63.6619C111.213 63.3967 111.741 62.9472 112.113 62.3701C112.486 61.7929 112.685 61.1141 112.687 60.4192C112.688 59.956 112.601 59.4972 112.431 59.0691C112.261 58.641 112.011 58.2521 111.696 57.9246C111.381 57.5971 111.007 57.3375 110.595 57.1607C110.183 56.984 109.742 56.8935 109.297 56.8945ZM109.297 62.6721C108.868 62.6737 108.449 62.5431 108.092 62.2968C107.734 62.0505 107.456 61.6997 107.29 61.2886C107.125 60.8775 107.08 60.4247 107.163 59.9874C107.245 59.55 107.45 59.1479 107.752 58.8317C108.054 58.5155 108.439 58.2995 108.859 58.2111C109.279 58.1226 109.715 58.1657 110.111 58.3348C110.508 58.5038 110.847 58.7914 111.087 59.161C111.326 59.5306 111.455 59.9658 111.456 60.4113C111.458 61.0096 111.232 61.5843 110.827 62.0095C110.422 62.4347 109.872 62.6758 109.297 62.68V62.6721Z" fill="black"/>
<path d="M110.648 64.1871C111.078 64.037 111.469 63.7843 111.788 63.4492C112.386 64.0978 112.894 64.8296 113.298 65.6237C113.592 66.0319 113.826 66.2909 113.298 66.5971L112.498 67.0759C112.241 67.2251 112.03 67.0759 111.856 66.8718C111.343 66.0351 110.937 65.1326 110.648 64.1871Z" fill="black"/>
<path d="M67.3033 37.2224C67.5079 36.7767 67.805 36.3836 68.1731 36.0714C68.5412 35.7592 68.9713 35.5357 69.4324 35.4169C70.0968 35.3149 71.3275 35.5504 71.1765 36.2019C71.1584 36.2438 71.1324 36.2814 71.1 36.3124C71.0675 36.3434 71.0293 36.3673 70.9877 36.3825C70.5725 36.5866 69.9458 36.0449 69.1984 36.0999C68.6548 36.147 67.7941 37.1047 67.5223 37.403C67.0089 37.9603 67.0542 37.6777 67.3033 37.2224Z" fill="black"/>
<path d="M32.7398 45.5356C31.713 44.1932 31.4639 43.7458 31.1015 43.7458C30.7391 43.7458 30.7089 44.0205 30.5579 44.1775C29.4707 45.3001 29.6368 45.1666 29.5311 45.2137C28.6002 45.6694 27.7339 46.2558 26.9565 46.9564L27.3114 43.1492C27.3195 43.1065 27.3168 43.0623 27.3035 43.0211C27.2903 42.9798 27.267 42.9428 27.2359 42.9137C25.59 41.3986 25.2276 41.0532 25.1521 41.0061C22.2527 41.0332 19.3569 40.7888 16.4998 40.2761C16.4667 40.2693 16.4326 40.2699 16.3998 40.2781C16.3671 40.2862 16.3364 40.3016 16.3098 40.3232C16.2833 40.3449 16.2616 40.3722 16.2462 40.4033C16.2307 40.4345 16.2219 40.4687 16.2204 40.5037C15.9033 44.8369 15.4654 45.826 15.2993 49.1387C15.2163 50.7715 15.1106 52.3415 14.9218 54.202C14.9152 54.2642 14.932 54.3266 14.9685 54.3763C15.0051 54.426 15.0587 54.4592 15.1181 54.4689C17.4148 54.8854 19.735 55.1477 22.0641 55.2539C23.2797 55.3245 24.4877 55.3795 25.6504 55.3952C25.7102 55.3937 25.7676 55.37 25.8119 55.3281C25.8563 55.2863 25.8847 55.2293 25.892 55.1675C25.892 55.1675 26.1336 52.5849 26.1336 52.5456C28.3188 51.4058 30.2147 49.7465 31.6677 47.7022C31.7265 47.6082 31.7699 47.5048 31.7961 47.396C32.7549 46.6581 32.9965 46.5404 33.0343 46.1714C33.0292 46.0502 33.0005 45.9314 32.9499 45.822C32.8992 45.7127 32.8278 45.6153 32.7398 45.5356ZM25.1068 41.6106L26.6168 42.9922L24.7217 43.5888C24.7036 42.9083 24.8407 42.2331 25.1219 41.6184L25.1068 41.6106ZM25.439 54.9163C22.0829 54.8832 18.734 54.5893 15.4201 54.0371C15.8731 49.4449 15.6542 48.809 16.1751 45.5356C16.3941 44.0205 16.5602 42.741 16.7112 40.8256C19.3436 41.3001 22.0125 41.5209 24.684 41.485C24.3459 42.2616 24.213 43.1178 24.2989 43.9656C24.3063 44.0266 24.335 44.0827 24.3795 44.1232C24.424 44.1637 24.4813 44.1859 24.5405 44.1854C24.616 44.1854 24.616 44.1854 26.8055 43.4632C26.4884 46.8151 26.428 47.3175 26.4356 47.3882C25.8467 47.8984 25.2125 48.4715 24.6462 49.0131C24.1486 49.4197 23.7265 49.9171 23.4005 50.4811C22.9047 51.5353 22.4931 52.6302 22.1698 53.7545C22.1643 53.7896 22.1662 53.8255 22.1755 53.8597C22.1848 53.894 22.2011 53.9256 22.2234 53.9526C22.2457 53.9795 22.2735 54.0011 22.3046 54.0157C22.3358 54.0303 22.3697 54.0376 22.4039 54.0371C23.5186 53.7495 24.6054 53.3553 25.6504 52.8596C25.5824 53.5504 25.5145 54.2334 25.4541 54.9242L25.439 54.9163ZM23.5666 53.1658C23.3216 53.078 23.1187 52.8952 23.0003 52.6555C23.1513 52.263 23.325 51.8705 23.4835 51.4702C23.8612 51.9165 24.2646 52.3386 24.6915 52.734L23.5666 53.1658ZM31.2827 47.4745C29.9161 49.6804 26.3525 52.2552 25.2427 52.3886H25.0313C24.0498 51.3681 23.6119 51.1954 23.9214 50.6459C24.2332 50.1921 24.5984 49.7807 25.0086 49.4213C26.0656 48.4401 28.4212 46.2813 29.75 45.7161C30.052 45.5905 30.1955 45.7161 30.3767 46.0301C30.6409 46.4305 31.5771 46.9878 31.2827 47.4745Z" fill="black"/>
<path d="M22.9248 21.6716C22.9248 23.3593 23.0607 25.2904 23.257 27.3C23.5137 28.9642 24.4876 29.2704 25.522 29.4509C27.5736 29.7874 29.666 29.7502 31.7054 29.341C31.93 29.968 32.2805 30.538 32.7336 31.0131C33.1866 31.4882 33.7318 31.8575 34.3328 32.0964C34.3751 32.143 34.4329 32.1711 34.4944 32.1749C34.5559 32.1787 34.6165 32.158 34.6638 32.1168C34.711 32.0757 34.7414 32.0174 34.7486 31.9537C34.7559 31.8901 34.7395 31.826 34.7028 31.7745C34.4988 30.8632 34.3925 29.9312 34.3857 28.9956C35.2151 29.0576 36.0477 29.0576 36.8772 28.9956C37.8662 28.8936 38.2135 27.8181 38.206 26.8447C38.2539 24.3784 37.9382 21.919 37.2698 19.5521C36.8545 17.9428 35.8051 18.2019 34.4612 18.1312C30.8521 17.881 27.2271 18.1265 23.6798 18.8613C22.6303 19.3323 22.9248 20.604 22.9248 21.6716ZM23.7855 19.3166C27.2814 18.5985 30.8529 18.361 34.4083 18.6101C35.7598 18.6964 36.5148 18.4295 36.8017 19.6855C37.4614 22.0085 37.7746 24.423 37.7303 26.8447C37.7303 27.1116 37.7303 28.4147 36.8319 28.5089C35.9452 28.5914 35.0533 28.5914 34.1667 28.5089C34.1344 28.5068 34.1019 28.5115 34.0714 28.5226C34.0408 28.5338 34.0127 28.5513 33.9887 28.574C33.9648 28.5967 33.9455 28.6242 33.9319 28.6548C33.9184 28.6854 33.911 28.7186 33.91 28.7523C33.8941 29.653 33.97 30.5529 34.1365 31.437C33.2126 30.945 32.5067 30.1015 32.166 29.082C32.1646 29.0218 32.1425 28.9641 32.1037 28.9195C32.0649 28.8748 32.012 28.8461 31.9546 28.8386C29.877 29.2631 27.745 29.3162 25.6503 28.9956C24.6688 28.8229 23.9591 28.6031 23.7477 27.2608C23.559 25.2276 23.4608 23.2965 23.4231 21.6873C23.3929 20.5883 23.1664 19.6306 23.8081 19.3323L23.7855 19.3166Z" fill="black"/>
<path d="M45.4086 18.9163C48.6226 19.3717 51.8812 19.3717 55.0952 18.9163C56.6052 18.7357 57.3149 18.4139 57.2923 16.6633C57.0997 14.3571 57.0997 12.0379 57.2923 9.73175C57.4131 8.2167 56.9374 7.37675 55.0801 7.28255C51.7106 7.08103 48.3327 7.08103 44.9631 7.28255C44.7255 7.27257 44.4886 7.31752 44.2697 7.41416C44.0508 7.51081 43.8552 7.65674 43.6971 7.84144C43.5389 8.02615 43.4221 8.24503 43.3551 8.48231C43.2882 8.7196 43.2726 8.96937 43.3097 9.21365V16.4592C43.272 16.768 43.2982 17.0816 43.3867 17.3789C43.4752 17.6763 43.6238 17.9505 43.8226 18.1832C44.0214 18.4159 44.2657 18.6017 44.5393 18.7282C44.8128 18.8546 45.1092 18.9187 45.4086 18.9163ZM44.9858 7.7771C48.3402 7.57671 51.703 7.57671 55.0575 7.7771C56.6203 7.8713 56.9148 8.42865 56.8166 9.6925C56.1824 17.3463 58.0246 18.0685 55.0348 18.4217C51.8584 18.8732 48.6378 18.8732 45.4614 18.4217C45.2182 18.4355 44.9751 18.3924 44.75 18.2957C44.5249 18.199 44.3235 18.0511 44.1606 17.8629C43.9976 17.6747 43.8773 17.4509 43.8085 17.208C43.7396 16.9651 43.724 16.7092 43.7627 16.4592V9.21365C43.7627 8.22455 44.1024 7.8085 44.9858 7.7771Z" fill="black"/>
<path d="M77.4282 11.7021C77.9637 11.6927 78.4757 11.4716 78.86 11.0837C79.2443 10.6958 79.472 10.1703 79.4969 9.61398C79.4969 7.89483 78.4626 7.21188 77.1489 7.54158C77.1489 6.56033 77.096 5.38283 76.9979 4.40158C76.9934 4.36155 76.9798 4.32321 76.9581 4.28981C76.9364 4.25641 76.9073 4.22893 76.8732 4.20969C76.8392 4.19044 76.8012 4.18 76.7624 4.17924C76.7237 4.17849 76.6853 4.18743 76.6506 4.20533C75.4803 4.81763 69.8556 7.53373 68.7155 7.78493C67.3954 7.99117 66.1047 8.36555 64.8726 8.89963C64.8208 8.92211 64.7782 8.9626 64.7521 9.01416C64.7259 9.06572 64.7178 9.12514 64.7291 9.18223C65.1112 11.1359 65.6724 13.0469 66.4052 14.8892C66.4233 14.9339 66.4538 14.972 66.4928 14.9986C66.5318 15.0251 66.5775 15.039 66.6242 15.0383C66.7072 15.0383 66.7525 15.0383 68.5796 14.481C68.8741 15.8233 69.3346 16.9223 69.6064 18.2961C69.6232 18.4219 69.6692 18.5417 69.7403 18.645C69.8114 18.7483 69.9056 18.8321 70.0148 18.8893C70.1239 18.9464 70.2448 18.9751 70.367 18.973C70.4892 18.9709 70.609 18.9379 70.7163 18.877L72.2263 18.3353C72.3099 18.2888 72.3827 18.2238 72.4395 18.1448C72.4964 18.0659 72.5359 17.975 72.5554 17.8784C72.5748 17.7819 72.5737 17.6821 72.552 17.5861C72.5304 17.4901 72.4888 17.4002 72.4301 17.3227C72.1659 16.2237 71.6751 15.2738 71.3958 14.1042C72.9737 14.3083 76.5449 14.7636 77.5641 15.0305C77.6056 15.0422 77.6494 15.0418 77.6907 15.0293C77.732 15.0169 77.7692 14.9928 77.7982 14.9598C78.0322 14.7165 77.617 14.583 77.3829 11.7021H77.4282ZM71.9998 17.4954C72.1508 17.8172 72.1206 17.8408 72.0526 17.8879L70.5577 18.4295C70.301 18.5237 70.1878 18.5473 70.0594 18.1862C69.8027 16.8438 69.3044 15.6899 69.0402 14.3711C70.0745 14.0414 70.1349 14.0963 70.218 13.9629L70.8748 14.0571C71.1919 15.3837 71.6449 16.2237 71.9998 17.4954ZM70.1878 13.4369L69.0477 8.22453C70.4898 7.75353 75.0198 5.60263 76.5298 4.80978C76.643 6.28558 76.5298 5.27293 76.7638 10.1321C76.8031 11.6035 76.9776 13.0676 77.2848 14.5045C75.6162 14.1199 71.3882 13.6175 70.1878 13.4369ZM77.3678 11.2075C77.3678 10.8464 77.1942 8.16958 77.1942 8.06753C78.1304 7.71428 79.0213 8.19313 79.0213 9.63753C79.0213 10.8857 77.7529 11.1526 77.3678 11.2075Z" fill="black"/>
<path d="M97.8359 17.4876C97.4811 17.3698 97.1715 17.2913 96.8922 17.5975L90.0972 14.0964L90.2331 13.8452C90.4898 13.4056 90.4973 13.1779 90.0141 12.911L88.8741 12.3301C88.4513 12.181 88.1191 12.0946 87.7718 12.6677C86.3373 15.5826 84.9078 18.495 83.4834 21.4047C83.0077 22.5822 83.4834 22.5979 84.6536 23.0925C84.758 23.135 84.8671 23.164 84.9783 23.1788C87.3147 24.8289 89.7737 26.2831 92.332 27.5277C92.4115 27.6662 92.5301 27.7758 92.6717 27.8417L93.623 28.2578C94.227 28.4776 94.3101 28.2578 94.4384 28.0301C96.0239 25.0262 97.6145 22.0196 99.21 19.0105C99.6253 18.2412 99.2402 18.2098 97.8359 17.4876ZM92.2942 26.9704C89.9072 25.7952 87.6081 24.436 85.4162 22.9041L89.848 14.5046L96.643 17.99C92.1281 27.1745 92.3848 26.6093 92.2942 26.9704Z" fill="black"/>
<path d="M87.7492 22.6293L93.5401 22.1033C93.5807 22.0998 93.6199 22.0856 93.6538 22.0622C93.6878 22.0387 93.7155 22.0066 93.7343 21.969C93.7532 21.9314 93.7626 21.8894 93.7616 21.847C93.7606 21.8046 93.7494 21.7632 93.7288 21.7265L90.9882 16.8595C90.9668 16.8221 90.9364 16.7911 90.9 16.7696C90.8636 16.7481 90.8224 16.7368 90.7805 16.7368C90.7387 16.7368 90.6975 16.7481 90.6611 16.7696C90.6247 16.7911 90.5943 16.8221 90.5729 16.8595L87.5529 22.2839C87.5387 22.3198 87.5326 22.3587 87.5353 22.3975C87.5379 22.4363 87.5492 22.4739 87.5683 22.5074C87.5873 22.5409 87.6135 22.5693 87.6449 22.5905C87.6764 22.6116 87.712 22.6249 87.7492 22.6293ZM90.7692 17.4483L93.1399 21.6402L88.2022 22.0876L90.7692 17.4483Z" fill="black"/>
<path d="M20.4106 57.3969C20.3788 57.3989 20.3478 57.4074 20.3192 57.4219C20.2906 57.4364 20.2651 57.4566 20.244 57.4814C20.223 57.5062 20.2069 57.5351 20.1966 57.5664C20.1863 57.5977 20.182 57.6308 20.1841 57.6638C20.3119 59.5267 20.6359 61.3694 21.1505 63.1588C21.1594 63.1897 21.1741 63.2185 21.1937 63.2435C21.2134 63.2686 21.2375 63.2893 21.2649 63.3046C21.2922 63.3199 21.3222 63.3295 21.3531 63.3327C21.384 63.336 21.4152 63.3329 21.4449 63.3236C21.4747 63.3144 21.5024 63.2991 21.5264 63.2787C21.5505 63.2583 21.5705 63.2331 21.5852 63.2047C21.5999 63.1763 21.6091 63.1451 21.6123 63.113C21.6154 63.0809 21.6124 63.0484 21.6035 63.0175C21.1037 61.2603 20.7873 59.4522 20.6597 57.6245C20.654 57.5607 20.625 57.5016 20.5787 57.4592C20.5324 57.4169 20.4722 57.3946 20.4106 57.3969Z" fill="black"/>
<path d="M27.0773 32.2691C25.9325 33.958 24.9537 35.762 24.1554 37.6542C24.1387 37.6918 24.1315 37.7332 24.1344 37.7745C24.1374 37.8158 24.1505 37.8556 24.1724 37.8902C24.1943 37.9248 24.2244 37.953 24.2597 37.9721C24.2951 37.9913 24.3345 38.0007 24.3744 37.9995C24.42 37.9999 24.4647 37.9868 24.5035 37.9618C24.5422 37.9368 24.5734 37.9009 24.5933 37.8582C25.3717 35.9956 26.3305 34.2202 27.4548 32.5595C27.4908 32.5061 27.5055 32.4401 27.4956 32.3757C27.4858 32.3112 27.4522 32.2532 27.4019 32.2141C27.3511 32.1789 27.2894 32.1651 27.2292 32.1753C27.169 32.1855 27.1147 32.219 27.0773 32.2691Z" fill="black"/>
<path d="M38.6817 19.9995C38.7466 19.9952 38.8081 19.9674 38.8554 19.921C39.7023 19.0272 40.7005 18.3033 41.7999 17.7858C41.8281 17.7724 41.8536 17.7534 41.8748 17.7298C41.8959 17.7061 41.9124 17.6784 41.9233 17.6482C41.9342 17.6179 41.9392 17.5857 41.9381 17.5535C41.937 17.5212 41.9298 17.4895 41.9169 17.4601C41.904 17.4307 41.8857 17.4042 41.863 17.3822C41.8402 17.3602 41.8136 17.3431 41.7845 17.3318C41.7554 17.3205 41.7244 17.3152 41.6934 17.3164C41.6624 17.3175 41.6318 17.325 41.6036 17.3384C40.4557 17.8709 39.4135 18.6217 38.5307 19.5521C38.4916 19.5846 38.4631 19.629 38.4493 19.679C38.4355 19.7291 38.437 19.7824 38.4536 19.8315C38.4702 19.8807 38.501 19.9232 38.5419 19.9533C38.5828 19.9834 38.6316 19.9996 38.6817 19.9995Z" fill="black"/>
<path d="M58.4095 11.8199C59.7616 11.5254 61.1478 11.4382 62.5242 11.5608C62.582 11.5575 62.6367 11.5328 62.6784 11.4911C62.7201 11.4495 62.746 11.3937 62.7515 11.3338C62.757 11.2739 62.7417 11.214 62.7083 11.1649C62.6749 11.1158 62.6256 11.0808 62.5695 11.0663C61.1512 10.9534 59.7247 11.0539 58.334 11.3646C58.2942 11.3913 58.2629 11.4296 58.2439 11.4747C58.2249 11.5197 58.2191 11.5696 58.2271 11.6181C58.2352 11.6666 58.2568 11.7116 58.2892 11.7475C58.3216 11.7833 58.3634 11.8085 58.4095 11.8199Z" fill="black"/>
<path d="M80.5992 14.8028C80.5803 14.8663 80.5864 14.935 80.6161 14.9939C80.6458 15.0527 80.6967 15.0969 80.7577 15.1168C81.9385 15.4843 83.037 16.0928 83.9891 16.9066C84.0353 16.9513 84.096 16.9762 84.159 16.9762C84.2221 16.9762 84.2828 16.9513 84.3289 16.9066C84.3736 16.8596 84.3987 16.7961 84.3987 16.73C84.3987 16.6638 84.3736 16.6004 84.3289 16.5534C83.3271 15.6983 82.1724 15.058 80.9314 14.6694C80.9014 14.6539 80.8686 14.6451 80.8352 14.6435C80.8017 14.6419 80.7683 14.6476 80.7371 14.6601C80.7058 14.6727 80.6774 14.6918 80.6537 14.7164C80.63 14.741 80.6114 14.7704 80.5992 14.8028Z" fill="black"/>
<path d="M82.3508 11.757L80.4784 11.0112C80.4494 10.9974 80.4179 10.9902 80.386 10.9899C80.354 10.9897 80.3224 10.9965 80.2932 11.0098C80.264 11.0231 80.2378 11.0428 80.2164 11.0674C80.1949 11.092 80.1788 11.121 80.1689 11.1525C80.1485 11.2141 80.1511 11.2815 80.1763 11.3411C80.2015 11.4008 80.2474 11.4483 80.3048 11.4744L82.1847 12.2201C82.214 12.2315 82.2451 12.2367 82.2763 12.2356C82.3075 12.2344 82.3381 12.2269 82.3665 12.2134C82.3949 12.1999 82.4205 12.1807 82.4418 12.157C82.463 12.1332 82.4796 12.1053 82.4905 12.0749C82.5014 12.0445 82.5064 12.0122 82.5053 11.9797C82.5042 11.9473 82.497 11.9154 82.484 11.8859C82.471 11.8564 82.4526 11.8298 82.4297 11.8077C82.4069 11.7856 82.3801 11.7683 82.3508 11.757Z" fill="black"/>
<path d="M80.2214 9.00947L82.2448 8.56202C82.2756 8.55653 82.305 8.54446 82.3311 8.52656C82.3573 8.50867 82.3795 8.48535 82.3965 8.45806C82.4136 8.43077 82.425 8.40011 82.43 8.36802C82.4351 8.33592 82.4337 8.30308 82.426 8.27157C82.4132 8.20746 82.3768 8.15107 82.3247 8.11441C82.2725 8.07775 82.2086 8.06373 82.1466 8.07532L80.1232 8.52277C80.0686 8.54346 80.023 8.58393 79.9948 8.63674C79.9665 8.68956 79.9576 8.75119 79.9695 8.81033C79.9814 8.86947 80.0135 8.92216 80.0597 8.95874C80.106 8.99531 80.1634 9.01333 80.2214 9.00947Z" fill="black"/>
<path d="M79.3609 7.24324C79.3867 7.26083 79.4155 7.27296 79.4458 7.27893C79.4761 7.2849 79.5072 7.2846 79.5374 7.27803C79.5675 7.27147 79.5962 7.25877 79.6216 7.24068C79.647 7.22258 79.6688 7.19945 79.6856 7.17259C80.1008 6.52889 80.5085 5.87734 80.9162 5.22579C80.9489 5.16993 80.9601 5.10328 80.9475 5.03922C80.9349 4.97516 80.8995 4.91842 80.8483 4.88039C80.8223 4.86155 80.7928 4.8484 80.7618 4.84174C80.7307 4.83509 80.6987 4.83506 80.6676 4.84167C80.6366 4.84827 80.6071 4.86138 80.5811 4.88018C80.555 4.89898 80.5329 4.92309 80.5161 4.95104L79.293 6.90569C79.275 6.93212 79.2625 6.96211 79.2562 6.99379C79.2499 7.02548 79.2499 7.05818 79.2563 7.08985C79.2626 7.12152 79.2752 7.15149 79.2932 7.17788C79.3112 7.20427 79.3343 7.22652 79.3609 7.24324Z" fill="black"/>
<path d="M97.0055 26.8133C96.9838 26.7905 96.9579 26.7724 96.9294 26.7601C96.9009 26.7477 96.8703 26.7414 96.8394 26.7414C96.8085 26.7414 96.778 26.7477 96.7495 26.7601C96.721 26.7724 96.6951 26.7905 96.6733 26.8133C96.6286 26.8603 96.6035 26.9238 96.6035 26.9899C96.6035 27.0561 96.6286 27.1195 96.6733 27.1665C97.8331 28.3191 98.825 29.6414 99.6178 31.0915C99.6298 31.1258 99.6488 31.157 99.6736 31.1828C99.6983 31.2087 99.7281 31.2287 99.761 31.2413C99.7939 31.254 99.8291 31.259 99.864 31.2561C99.899 31.2533 99.933 31.2425 99.9635 31.2246C99.9941 31.2067 100.021 31.182 100.041 31.1524C100.061 31.1228 100.076 31.089 100.082 31.0531C100.089 31.0173 100.088 30.9804 100.079 30.945C100.071 30.9097 100.055 30.8766 100.033 30.8482C99.2156 29.359 98.1959 28 97.0055 26.8133Z" fill="black"/>
<path d="M115.911 56.6041C115.903 56.3922 115.854 56.1841 115.768 55.9924C115.681 55.8006 115.557 55.6292 115.405 55.4883C115.252 55.3475 115.074 55.2402 114.881 55.1729C114.688 55.1056 114.483 55.0798 114.28 55.0969C111.343 54.9948 108.527 54.9948 105.424 55.0969C103.914 55.1675 103.808 55.7563 103.8 56.5727C103.486 59.9021 103.545 63.2581 103.974 66.5736C104.148 67.4528 104.329 68.3869 105.741 68.4968C108.489 68.7009 112.211 68.5753 114.559 68.4968C115.039 68.5327 115.513 68.3721 115.88 68.0494C116.007 67.8724 116.099 67.6708 116.149 67.4563C116.2 67.2419 116.209 67.0192 116.175 66.8012C116.175 66.1026 116.333 62.4445 115.911 56.6041ZM115.722 66.8091C115.783 67.1149 115.726 67.4334 115.563 67.6961C115.276 67.9102 114.927 68.013 114.574 67.9866C111.654 68.1396 108.729 68.1396 105.809 67.9866C104.805 67.9081 104.661 67.4214 104.472 66.4715C104.051 63.1869 103.995 59.8627 104.306 56.5648C104.306 55.9054 104.306 55.6307 105.469 55.5757C108.489 55.4737 111.335 55.4737 114.287 55.5757C114.429 55.5629 114.572 55.58 114.708 55.626C114.843 55.672 114.968 55.746 115.075 55.8435C115.182 55.941 115.269 56.06 115.331 56.1934C115.393 56.3268 115.428 56.4718 115.435 56.6198C115.85 62.4523 115.699 66.1261 115.722 66.8248V66.8091Z" fill="black"/>
<path d="M106.48 74.1174C106.527 74.1191 106.573 74.1057 106.613 74.079C106.652 74.0523 106.682 74.0136 106.699 73.9682C107.204 72.6522 107.571 71.2837 107.794 69.8862C107.803 69.8207 107.786 69.7543 107.748 69.7014C107.71 69.6485 107.653 69.6134 107.59 69.6036C107.528 69.5945 107.465 69.6106 107.415 69.6487C107.364 69.6868 107.33 69.7438 107.318 69.8077C107.103 71.1672 106.749 72.4988 106.261 73.7798C106.246 73.8171 106.24 73.8576 106.244 73.8978C106.248 73.938 106.261 73.9766 106.283 74.0101C106.305 74.0436 106.334 74.071 106.369 74.0897C106.403 74.1084 106.442 74.1179 106.48 74.1174Z" fill="black"/>
<path d="M107.991 53.0637C107.893 52.0542 107.638 51.068 107.236 50.1435C107.209 50.0834 107.161 50.0365 107.102 50.013C107.043 49.9895 106.977 49.9913 106.919 50.0179C106.89 50.0306 106.865 50.0491 106.843 50.0723C106.822 50.0954 106.805 50.1227 106.794 50.1526C106.783 50.1825 106.777 50.2145 106.778 50.2466C106.779 50.2787 106.785 50.3104 106.798 50.3397C107.169 51.2189 107.401 52.1546 107.485 53.1108C107.491 53.1805 107.523 53.2449 107.575 53.2898C107.627 53.3347 107.693 53.3564 107.761 53.3502C107.828 53.3439 107.89 53.3102 107.933 53.2565C107.976 53.2028 107.997 53.1334 107.991 53.0637Z" fill="black"/>
<path d="M111.962 80.7506C111.101 77.3359 111.479 76.9434 111.101 76.8256C110.17 76.6126 109.214 76.536 108.262 76.598C104.404 76.8335 102.894 79.1963 99.2779 79.4789C98.1388 79.5641 96.9942 79.4419 95.8955 79.1178C95.8597 79.1065 95.8218 79.1042 95.785 79.1113C95.7482 79.1183 95.7135 79.1344 95.6839 79.1583C95.6544 79.1821 95.6307 79.213 95.615 79.2483C95.5992 79.2836 95.5919 79.3223 95.5935 79.3612C95.6397 81.937 95.8694 84.5057 96.2805 87.0463C96.2901 87.0967 96.3139 87.1431 96.3488 87.1794C96.3838 87.2158 96.4283 87.2405 96.4768 87.2504C98.1502 87.5562 99.862 87.5562 101.535 87.2504C104.601 86.6381 105.997 85.2016 109.048 84.9975C110.139 84.9267 111.234 85.0139 112.302 85.2565C112.337 85.2651 112.374 85.265 112.409 85.2562C112.445 85.2474 112.478 85.2301 112.506 85.2057C112.533 85.1813 112.555 85.1505 112.57 85.1157C112.584 85.0809 112.591 85.0431 112.589 85.0053C112.541 83.5664 112.331 82.1383 111.962 80.7506ZM109.017 84.4951C105.831 84.7149 104.487 86.1436 101.467 86.7559C99.9042 87.0553 98.3035 87.0766 96.7335 86.8187C96.3681 84.468 96.1537 82.0947 96.0918 79.7144C97.1469 79.9911 98.238 80.0892 99.3232 80.0049C103.098 79.7144 104.608 77.3516 108.308 77.1239C109.16 77.07 110.015 77.1307 110.852 77.3045C111.237 80.7428 111.962 81.5513 112.113 84.6992C111.086 84.4911 110.038 84.4225 108.995 84.4951H109.017Z" fill="black"/>
<path d="M103.619 81.5357L103.4 80.0441C103.648 80.0403 103.894 80.0967 104.117 80.209C104.175 80.2361 104.24 80.239 104.299 80.217C104.358 80.195 104.407 80.1499 104.435 80.0913C104.46 80.0308 104.462 79.9623 104.439 79.9006C104.417 79.8389 104.372 79.789 104.314 79.7615C104.008 79.6107 103.671 79.5406 103.332 79.5575V79.4397C103.321 79.3757 103.287 79.3187 103.236 79.2806C103.185 79.2426 103.122 79.2264 103.061 79.2356C102.998 79.2453 102.941 79.2804 102.903 79.3334C102.865 79.3863 102.848 79.4527 102.857 79.5182V79.6674C102.612 79.7829 102.419 79.9908 102.317 80.2488C102.215 80.5069 102.21 80.7957 102.306 81.0568C102.384 81.2547 102.503 81.4324 102.654 81.5775C102.805 81.7226 102.985 81.8316 103.181 81.8967L103.385 83.3333C103.161 83.3482 102.937 83.3075 102.731 83.2147C102.525 83.1219 102.343 82.9796 102.2 82.7995C102.18 82.772 102.155 82.749 102.127 82.7318C102.098 82.7147 102.067 82.7037 102.034 82.6997C102.001 82.6957 101.968 82.6986 101.937 82.7084C101.905 82.7182 101.876 82.7345 101.851 82.7565C101.825 82.7785 101.805 82.8056 101.79 82.8361C101.775 82.8667 101.767 82.9001 101.765 82.9342C101.763 82.9684 101.767 83.0026 101.779 83.0348C101.79 83.067 101.807 83.0964 101.83 83.1214C102.028 83.3655 102.279 83.5565 102.563 83.6781C102.847 83.7997 103.155 83.8484 103.461 83.82L103.604 84.7934C103.609 84.8254 103.619 84.8561 103.635 84.8838C103.651 84.9116 103.672 84.9358 103.697 84.9551C103.722 84.9744 103.75 84.9885 103.78 84.9964C103.81 85.0044 103.841 85.0061 103.872 85.0014C103.903 84.9968 103.932 84.9859 103.959 84.9694C103.986 84.9529 104.009 84.931 104.028 84.9052C104.046 84.8793 104.06 84.8499 104.067 84.8186C104.075 84.7873 104.077 84.7547 104.072 84.7227L103.929 83.7101C104.54 83.4746 105.099 82.9251 105.008 82.407C104.918 81.8889 104.216 81.7476 103.619 81.5357ZM102.94 80.1854L103.098 81.3001C103.003 81.25 102.922 81.1766 102.86 81.0864C102.799 80.9961 102.759 80.8916 102.745 80.782C102.731 80.6723 102.743 80.5607 102.779 80.4568C102.816 80.3529 102.876 80.2598 102.955 80.1854H102.94ZM103.853 83.2155L103.695 82.0851C103.951 82.1636 104.51 82.3128 104.54 82.5012C104.571 82.6896 104.253 83.035 103.853 83.2155Z" fill="black"/>
<path d="M100.04 81.7555C99.8419 81.6552 99.6197 81.6169 99.4007 81.6454C99.1818 81.6738 98.9755 81.7676 98.8068 81.9156C98.6381 82.0635 98.5144 82.2591 98.4506 82.4788C98.3868 82.6984 98.3856 82.9325 98.4473 83.1528C98.4901 83.3712 98.6031 83.5679 98.7678 83.7106C98.9325 83.8532 99.139 83.9334 99.3533 83.9378C99.5972 83.9274 99.833 83.843 100.031 83.6952C100.23 83.5474 100.383 83.3425 100.471 83.1057C100.553 82.8629 100.555 82.5985 100.477 82.3541C100.4 82.1097 100.246 81.8992 100.04 81.7555ZM100.04 82.9723C99.9817 83.1445 99.8631 83.2876 99.708 83.3733C99.5528 83.4591 99.3724 83.4812 99.2023 83.4354C99.0539 83.3104 98.9566 83.1315 98.9299 82.9349C98.9033 82.7382 98.9494 82.5384 99.0588 82.3757C99.1483 82.2639 99.2702 82.1851 99.4063 82.1512C99.5423 82.1172 99.6852 82.1299 99.8138 82.1873C99.9273 82.2756 100.009 82.4009 100.046 82.5432C100.083 82.6855 100.073 82.8366 100.018 82.9723H100.04Z" fill="black"/>
<path d="M108.708 79.9029C108.509 79.8025 108.287 79.7643 108.068 79.7927C107.849 79.8211 107.643 79.915 107.474 80.0629C107.306 80.2108 107.182 80.4065 107.118 80.6261C107.054 80.8457 107.053 81.0799 107.115 81.3001C107.156 81.5192 107.269 81.7167 107.434 81.8596C107.599 82.0025 107.806 82.0822 108.021 82.0851C108.259 82.0791 108.49 82.0018 108.687 81.8626C108.884 81.7234 109.038 81.5281 109.131 81.3001C109.227 81.0524 109.237 80.7776 109.16 80.5228C109.083 80.268 108.923 80.0489 108.708 79.9029ZM108.708 81.1196C108.649 81.2918 108.531 81.4349 108.375 81.5207C108.22 81.6064 108.04 81.6286 107.87 81.5828C107.721 81.4577 107.624 81.2789 107.597 81.0822C107.571 80.8856 107.617 80.6858 107.726 80.523C107.802 80.3877 107.927 80.2893 108.073 80.2496C108.219 80.2098 108.374 80.2319 108.504 80.3111C108.634 80.3902 108.729 80.5198 108.767 80.6714C108.805 80.8231 108.784 80.9843 108.708 81.1196Z" fill="black"/>
<path d="M97.2244 90.7123C93.3755 95.8392 88.1767 99.6928 82.2603 101.804C82.2301 101.814 82.2022 101.83 82.1782 101.851C82.1542 101.873 82.1345 101.899 82.1204 101.928C82.1063 101.957 82.0981 101.989 82.0961 102.022C82.0942 102.055 82.0987 102.087 82.1093 102.118C82.1315 102.179 82.1748 102.229 82.2308 102.258C82.2867 102.287 82.3512 102.293 82.4113 102.275C88.4202 100.135 93.6989 96.2207 97.6019 91.0106C97.6443 90.9639 97.668 90.9021 97.668 90.8379C97.668 90.7736 97.6443 90.7118 97.6019 90.6652C97.5754 90.6396 97.5438 90.6203 97.5094 90.6087C97.475 90.597 97.4385 90.5933 97.4026 90.5978C97.3667 90.6023 97.3321 90.6148 97.3013 90.6346C97.2706 90.6544 97.2443 90.6809 97.2244 90.7123Z" fill="black"/>
<path d="M123.166 28.9328L124.993 27.7475C125.476 28.5325 125.96 29.3724 126.458 30.1888C126.479 30.2228 126.508 30.2508 126.543 30.2701C126.577 30.2895 126.615 30.2996 126.654 30.2996C126.693 30.2996 126.732 30.2895 126.766 30.2701C126.8 30.2508 126.829 30.2228 126.851 30.1888C129.463 26.3266 132.324 22.4801 135.156 18.9555C135.188 18.9075 135.203 18.8491 135.199 18.7906C135.194 18.7321 135.17 18.6771 135.131 18.6351C135.091 18.5931 135.039 18.5668 134.983 18.5608C134.927 18.5548 134.87 18.5695 134.823 18.6022C132.196 20.7531 129.342 23.3122 126.564 26.0754L125.363 23.7754C125.34 23.7318 125.304 23.6965 125.261 23.6742C125.218 23.6518 125.169 23.6433 125.122 23.6498C124.835 23.6498 125.001 23.8931 124.306 25.6594C123.908 26.6717 123.425 27.6461 122.864 28.5717C122.838 28.6172 122.826 28.6703 122.83 28.7234C122.834 28.7765 122.855 28.8267 122.888 28.8669C122.922 28.9071 122.967 28.9351 123.017 28.9469C123.067 28.9588 123.119 28.9538 123.166 28.9328ZM125.182 24.5447L126.262 26.6092C126.279 26.6429 126.304 26.6719 126.334 26.6941C126.365 26.7162 126.399 26.7309 126.436 26.7369C126.472 26.743 126.509 26.7403 126.545 26.7291C126.58 26.7178 126.612 26.6983 126.639 26.672C128.715 24.5996 130.897 22.5586 133.313 20.4941C131.048 23.4221 128.783 26.4679 126.669 29.6079C125.159 27.0881 125.265 27.198 125.159 27.1587C125.054 27.1195 125.061 27.1587 123.778 27.9437C124.352 26.8611 124.822 25.7227 125.182 24.5447Z" fill="black"/>
<path d="M140.471 31.0287C137.282 32.4575 134.262 34.2645 131.471 36.4138L128.202 34.1295C128.172 34.1106 128.139 34.0984 128.104 34.0937C128.07 34.089 128.035 34.092 128.001 34.1023C127.968 34.1127 127.937 34.1302 127.91 34.1538C127.884 34.1775 127.862 34.2066 127.847 34.2394C127.074 36.1997 126.059 38.047 124.827 39.7344C124.796 39.7831 124.782 39.8418 124.787 39.9002C124.793 39.9586 124.818 40.013 124.859 40.0541C124.899 40.0951 124.952 40.1202 125.008 40.1249C125.065 40.1296 125.121 40.1136 125.167 40.0798C126.173 39.2929 127.253 38.6143 128.391 38.0545C129.083 39.0626 129.689 40.1316 130.203 41.2494C130.218 41.2864 130.242 41.3189 130.273 41.3439C130.303 41.3689 130.339 41.3856 130.377 41.3926C130.415 41.3997 130.454 41.3967 130.491 41.384C130.528 41.3714 130.561 41.3494 130.588 41.3201C133.774 37.8818 137.3 34.4749 140.72 31.4605C140.747 31.4435 140.771 31.421 140.79 31.3945C140.809 31.3679 140.823 31.3377 140.83 31.3057C140.838 31.2736 140.84 31.2403 140.835 31.2076C140.83 31.1749 140.819 31.1434 140.803 31.1151C140.787 31.0867 140.765 31.062 140.74 31.0423C140.714 31.0227 140.685 31.0084 140.654 31.0004C140.592 30.9842 140.526 30.9944 140.471 31.0287ZM130.482 40.6999C129.962 39.6015 129.354 38.5511 128.663 37.5599C128.641 37.527 128.611 37.5004 128.577 37.4825C128.543 37.4647 128.505 37.4562 128.466 37.4579C128.076 37.6195 127.695 37.8056 127.326 38.0152C126.881 38.2664 126.45 38.5412 126.02 38.8002C126.861 37.4868 127.582 36.0938 128.172 34.6397L131.343 36.8691C131.645 37.0811 131.667 36.5865 135.057 34.4435C136.376 33.6042 137.737 32.839 139.134 32.1513C135.986 35.0479 133.079 37.9132 130.482 40.6999Z" fill="black"/>
<path d="M133.985 51.3131C132.868 46.5089 133.079 46.6031 132.837 46.4932C132.803 46.4726 132.764 46.4617 132.724 46.4617C132.684 46.4617 132.645 46.4726 132.611 46.4932C131.651 47.2753 130.601 47.9293 129.485 48.44C128.627 48.0377 127.828 47.5089 127.115 46.87C127.073 46.8211 127.015 46.7911 126.953 46.7867C126.891 46.7823 126.829 46.8038 126.782 46.8465C126.735 46.8892 126.706 46.9495 126.702 47.0143C126.698 47.0791 126.719 47.1429 126.76 47.1919C127.588 48.4958 128.315 49.866 128.934 51.2896C128.949 51.3231 128.972 51.3528 128.999 51.3763C129.027 51.3999 129.059 51.4168 129.094 51.4258C129.129 51.4348 129.165 51.4357 129.2 51.4284C129.235 51.4212 129.268 51.4059 129.296 51.3838C130.011 50.822 130.802 50.3748 131.645 50.0571C132.423 52.1668 133.437 54.1744 134.665 56.0388C134.694 56.0913 134.741 56.1305 134.797 56.1487C134.852 56.167 134.913 56.1629 134.966 56.1374C135.018 56.1118 135.06 56.0666 135.083 56.0106C135.105 55.9546 135.107 55.8919 135.087 55.8347C134.732 54.3825 134.347 52.8596 133.985 51.3131ZM133.155 52.3022C131.947 49.7824 132.135 49.3663 131.75 49.4998C130.863 49.8174 130.026 50.2698 129.266 50.8421C128.847 49.9068 128.381 48.9949 127.87 48.1103C128.349 48.4431 128.854 48.7345 129.38 48.9817C129.409 48.9953 129.441 49.0023 129.474 49.0023C129.506 49.0023 129.539 48.9953 129.568 48.9817C130.641 48.5014 131.655 47.8901 132.588 47.1605C133.049 49.4605 133.6 51.8705 134.249 54.4296C133.849 53.7545 133.479 53.0244 133.155 52.3022Z" fill="black"/>
<path d="M124.782 46.038C124.712 43.2666 124.432 40.5053 123.944 37.7798C123.39 35.1237 122.651 32.5132 121.731 29.9691C120.35 26.3895 119.315 24.8587 118.409 25.0236C118.197 25.0642 118.006 25.1843 117.873 25.3611C115.206 29.4202 111.448 32.5734 107.069 34.4279C103.733 35.5914 100.297 36.422 96.8089 36.9085C96.7259 36.5317 96.288 36.2177 96.0011 36.0371C95.5088 35.7531 94.9301 35.6772 94.3854 35.8252C94.1462 35.6162 93.8573 35.4783 93.549 35.4258C93.2408 35.3733 92.9246 35.4082 92.6338 35.5269C92.1211 35.4865 91.6061 35.5615 91.1238 35.7467C89.6666 35.048 87.8848 36.1627 87.3488 37.5443C87.1751 38.0153 87.2808 38.1645 87.1072 38.7061L85.6878 39.2399C85.6504 39.2526 85.6168 39.2752 85.5903 39.3054C85.5638 39.3357 85.5454 39.3727 85.5368 39.4126C85.5368 39.5382 85.4764 39.656 85.4537 39.7816C84.8497 40.0014 84.2155 40.2133 83.5587 40.4174C81.0974 41.2024 81.0068 41.0376 80.9011 41.2024C79.3005 44.2718 79.6478 47.922 82.2601 50.1514C82.3009 50.1854 82.3513 50.2047 82.4035 50.2064C84.0678 50.2855 85.7354 50.1829 87.379 49.9002C87.5526 50.1671 87.7414 50.4262 87.9301 50.6852C87.958 50.7224 87.9957 50.7504 88.0386 50.7657C88.0815 50.781 88.1278 50.7831 88.1717 50.7716L89.274 50.5125C89.274 50.6774 89.274 50.7637 89.3344 50.8422C90.0585 51.8805 90.8641 52.8546 91.7429 53.7546C91.6701 53.8217 91.5918 53.8821 91.5088 53.9351C91.2438 54.0656 91.0227 54.2763 90.8746 54.5396C90.7643 54.777 90.707 55.0373 90.707 55.301C90.707 55.5647 90.7643 55.825 90.8746 56.0625C91.0332 56.5649 90.4216 62.1619 90.3537 62.7507C89.795 63.8811 89.0551 65.3804 88.1868 67.1074C86.322 66.189 78.9758 62.5152 77.1865 61.4162C75.1857 60.1916 74.544 59.5008 72.4828 58.4489C71.1994 57.6632 69.7033 57.3378 68.2246 57.5226C68.6848 56.7287 69.189 55.9633 69.7346 55.2304C70.5326 55.4574 71.3539 55.584 72.1808 55.6072C73.2454 55.6072 74.5289 55.2539 75.0423 54.3041C75.1893 53.9226 75.2474 53.5104 75.212 53.1011C75.1766 52.6919 75.0486 52.2971 74.8384 51.9491C75.0115 51.7837 75.1323 51.5676 75.1849 51.3293C75.2375 51.0911 75.2193 50.8419 75.1329 50.6146C75.1707 50.5321 75.1986 50.4451 75.2159 50.3555C75.601 49.0917 74.4609 48.4637 74.4609 46.3049C75.1027 45.9203 75.6236 45.7162 75.6236 45.3786C75.6236 45.2923 75.6236 45.3786 75.6689 43.2748L75.9181 43.0707C76.4466 42.6311 76.7108 42.4035 76.7863 42.0973C76.9147 41.5321 76.5523 41.1789 74.8762 39.4205C73.9173 38.4235 73.7739 38.2587 73.638 37.8976C73.3813 37.2068 73.638 36.8849 73.5096 36.045C73.3813 35.205 73.0793 34.7733 71.7505 33.0306C70.9955 31.9944 70.2405 31.1073 69.712 30.4008C70.2556 29.4902 69.6289 27.7789 68.9041 26.7977C68.2779 26.0458 67.485 25.4638 66.5938 25.1021C60.433 22.4488 53.4946 27.198 50.8596 33.635C50.2285 33.0085 49.4457 32.5717 48.5946 32.3712C46.7147 31.9787 45.182 33.0463 44.1628 33.7606C40.2141 36.5238 38.4021 42.27 39.4667 46.8466C39.8064 48.3381 40.1386 48.3067 40.9767 50.6303C41.9808 53.4484 42.8566 55.6857 42.1469 57.8287C42.1209 57.8683 42.1053 57.9143 42.1016 57.9622C41.5203 59.5322 40.4935 59.3124 39.965 61.3691C39.747 62.4808 39.724 63.6243 39.897 64.7446C28.7155 67.3115 16.0315 70.585 15.9258 70.6085C14.5366 70.8362 12.5434 71.6055 11.6223 72.7045C10.3917 74.1803 10.4747 76.8728 11.7356 79.3691L60.2896 151.095C61.2099 152.291 62.4972 153.122 63.9362 153.45C65.6717 153.65 67.4275 153.379 69.0325 152.665C69.8932 152.453 67.9906 153.191 98.4775 142.758C102.524 141.376 102.856 138.754 100.871 134.845L70.8294 90.0216C73.9172 92.7146 77.7249 94.3585 81.7391 94.7316C83.2491 94.7316 83.8003 94.6452 84.1476 94.3312C84.5258 93.9943 84.7903 93.5404 84.9026 93.036C87.2204 89.213 89.5534 84.6208 92.4526 76.551C93.5902 76.7385 94.7531 76.6744 95.8652 76.3626C96.7748 76.197 97.6103 75.7352 98.251 75.0438C99.761 73.1441 97.9339 70.9225 99.089 64.8388C99.2618 64.9578 99.4709 65.006 99.6759 64.9741C99.8808 64.9422 100.067 64.8324 100.199 64.6661C101.393 63.8304 102.287 62.6078 102.743 61.1885C102.855 60.994 102.901 60.7661 102.874 60.5412C102.846 60.3164 102.747 60.1076 102.592 59.9482L101.399 58.5431C102.222 57.5461 101.958 56.1253 101.362 55.7249C101.362 55.1519 101.407 54.202 100.863 53.7075C101.041 53.3431 101.079 52.9222 100.969 52.53C100.891 52.3012 100.765 52.0932 100.601 51.9209C100.436 51.7486 100.237 51.6161 100.018 51.533C100.074 50.9832 100.02 50.4272 99.8591 49.9002C99.7383 49.4999 99.542 48.8954 99.006 48.7149C98.7733 48.6504 98.5267 48.6669 98.3038 48.762C98.2941 48.7115 98.2815 48.6617 98.2661 48.6128C103.833 47.6455 109.506 47.5397 115.103 48.2988C117.361 48.5372 119.457 49.6294 120.992 51.3682C121.52 52.0825 122.207 52.8204 122.894 52.8204C124.661 52.7969 124.85 47.8671 124.782 46.038ZM94.6874 36.2648C95.0079 36.2096 95.337 36.2548 95.6327 36.3946C95.9285 36.5344 96.1776 36.7624 96.3484 37.0498C96.0837 37.1829 95.831 37.3406 95.5934 37.5208C95.3714 37.7193 95.1936 37.9657 95.0724 38.243C94.9867 38.4784 94.8405 38.6847 94.6496 38.8396C94.5213 38.9338 94.1966 39.2007 93.9852 39.1065C93.7738 39.0123 93.6757 38.7375 93.7134 38.3215C94.2872 37.0812 94.8837 36.8849 94.6874 36.2648ZM92.8376 35.9743C93.0519 35.8945 93.2829 35.8764 93.5062 35.922C93.7295 35.9676 93.9368 36.0752 94.106 36.2334C94.1268 36.2589 94.1495 36.2825 94.174 36.304C94.4231 36.6494 93.9626 36.7279 93.3661 37.874C92.7697 39.0201 92.9584 39.444 92.513 39.7894C92.0675 40.1348 91.5541 40.1898 91.3503 40.0014C91.1464 39.813 91.4333 38.6433 91.6372 38.0546C91.7885 37.6274 91.9807 37.2171 92.211 36.83C92.5054 36.3433 92.664 36.0685 92.8376 35.9743ZM91.3276 36.2177C91.5966 36.1111 91.8788 36.045 92.1657 36.0214C92.065 36.1784 91.9518 36.3747 91.8259 36.6102C91.5762 37.0235 91.3687 37.4629 91.2068 37.9211C90.9199 38.7454 90.5802 39.7502 90.9501 40.2761C90.6179 41.3123 89.8478 41.642 89.3873 41.485C89.2549 41.3998 89.1423 41.2853 89.0575 41.1496C88.9727 41.0139 88.9177 40.8604 88.8965 40.7C88.9079 40.659 88.9079 40.6155 88.8965 40.5744C88.7845 39.6441 89.0225 38.7047 89.5609 37.9525C89.9336 37.1833 90.5494 36.5707 91.305 36.2177H91.3276ZM87.3563 39.5304C87.5768 39.1066 87.7177 38.643 87.7716 38.1645C87.8952 37.5402 88.2296 36.9826 88.7143 36.5924C89.1989 36.2023 89.8019 36.0053 90.4141 36.0371C90.8746 36.0999 90.2027 35.8801 89.123 37.7092C88.5327 38.552 88.2637 39.5924 88.368 40.6294C88.2475 40.7689 88.0903 40.8685 87.9158 40.916C87.7413 40.9634 87.5573 40.9566 87.3865 40.8963C87.2884 40.8256 87.16 40.6608 87.1449 40.229C87.1497 39.9832 87.2146 39.7428 87.3337 39.5304H87.3563ZM82.5696 49.7511C80.1838 47.6473 79.9649 44.3424 81.339 41.5714C82.7131 41.226 84.0192 40.8335 85.416 40.3468C84.9171 43.5091 85.5367 46.7523 87.16 49.4763C85.6419 49.7207 84.1047 49.8127 82.5696 49.7511ZM89.8025 50.6146L89.7044 49.0446C89.6976 48.9892 89.6742 48.9375 89.6377 48.8967C89.6011 48.8558 89.5531 48.8279 89.5005 48.8169C89.1952 48.7764 88.8926 48.7161 88.5945 48.6364C89.8705 48.1889 95.6387 47.5609 97.4356 47.4118C97.6998 48.3145 97.8206 48.7541 97.8659 48.8326C96.9146 49.1702 96.7183 49.3429 95.8048 49.6176C94.6119 50.018 94.8006 50.5047 92.0902 53.3542C91.2627 52.5019 90.498 51.5861 89.8025 50.6146ZM72.279 58.8649C73.2307 59.3576 74.1467 59.9216 75.0196 60.5527C76.5753 61.6515 78.214 62.6175 79.9196 63.4415C82.3733 64.7289 85.0838 66.1026 87.9679 67.5313C86.322 70.8126 85.1366 73.1676 84.0872 74.8554C78.7267 73.5837 77.2922 74.0704 73.6531 72.4297C73.5568 69.4414 73.2566 66.464 72.7546 63.52C72.7446 63.4554 72.7104 63.3977 72.6594 63.3594C72.6084 63.3211 72.5449 63.3055 72.4828 63.3159C72.4208 63.3263 72.3652 63.3619 72.3284 63.4149C72.2916 63.4679 72.2765 63.5339 72.2865 63.5985C72.977 67.3796 73.2606 71.2288 73.1321 75.0752C70.6708 72.7202 69.0778 70.9853 67.4017 69.1249C69.8932 66.7149 69.1533 62.9234 66.9109 60.1523C67.2054 59.4458 67.5376 58.7472 67.9 58.0721C69.4039 57.782 70.9579 58.0634 72.279 58.8649ZM76.8996 78.6391C75.7369 77.5715 74.6346 76.5274 73.5927 75.4991C73.638 74.6513 73.6682 73.8035 73.6606 72.9478C77.2469 74.5178 78.5606 74.0468 83.8154 75.3028C83.234 76.1977 81.9128 78.0503 81.6108 78.4428C80.798 79.4057 80.0608 80.4347 79.4062 81.52L76.5749 79.7067C76.7108 79.4476 76.8316 79.1886 76.9524 78.9217C76.9726 78.8746 76.9783 78.8223 76.9688 78.7717C76.9594 78.7212 76.9352 78.6749 76.8996 78.6391ZM50.1952 75.7346C53.8796 78.7254 55.4802 79.165 57.33 81.1589C59.4213 83.4119 60.7577 83.6631 63.5738 86.2771C65.0344 87.6148 66.6911 88.7013 68.4813 89.4956C68.5273 89.5156 68.5782 89.5203 68.6268 89.509C68.6755 89.4978 68.7196 89.4712 68.7531 89.4328L69.9838 88.0198C69.9382 92.1902 69.4315 96.3414 68.4738 100.391C67.4564 104.079 67.1586 107.941 67.598 111.75C65.5053 113.117 63.1345 113.955 60.6746 114.2C57.3753 114.466 54.9442 113.524 51.2522 112.088C48.7456 111.099 46.8053 109.913 43.2794 107.755C41.5578 106.85 40.0457 105.567 38.8476 103.995C38.2981 103.211 37.8394 102.362 37.481 101.467C39.1428 98.6318 40.2128 95.4652 40.6218 92.1725C40.7826 90.766 40.823 89.3474 40.7426 87.9335C40.5423 83.1931 41.0699 78.4497 42.3055 73.882C42.6702 70.9195 43.534 68.0469 44.8574 65.3961C45.786 63.5671 46.9487 61.2827 49.3874 59.5871C50.2492 58.9892 51.1868 58.5189 52.1733 58.1898C55.0042 58.4849 57.6935 59.6213 59.9196 61.4633C61.1201 62.4445 61.0144 62.6565 65.1367 67.288C68.6834 71.3867 72.4653 75.2586 76.4617 78.8824C75.7226 80.4498 74.7995 81.9158 73.7135 83.247C73.3209 83.718 73.0114 84.032 72.498 84.5972C71.1994 85.971 69.9158 87.384 68.5266 88.9854C66.8395 88.2249 65.2758 87.1975 63.8909 85.9396C61.1126 83.3569 59.6856 83.0194 57.6773 80.8449C55.8728 78.906 54.0155 78.2387 50.4897 75.3499C50.4392 75.3194 50.3798 75.3089 50.3224 75.3204C50.2651 75.332 50.2137 75.3647 50.1777 75.4126C50.1418 75.4605 50.1238 75.5203 50.127 75.5809C50.1302 75.6416 50.1545 75.6989 50.1952 75.7424V75.7346ZM40.2217 86.2536C40.3459 88.1914 40.3232 90.1363 40.1537 92.0704C39.7455 95.3339 38.6749 98.4698 37.0129 101.271C36.9964 101.305 36.9877 101.342 36.9877 101.381C36.9877 101.419 36.9964 101.456 37.0129 101.49C37.0809 101.663 37.1488 101.836 37.2243 102.001L36.726 103.743L19.0364 76.7708L36.4542 72.1236C37.4357 74.298 39.4214 75.2636 41.7392 74.196C40.7178 78.1267 40.2074 82.1819 40.2217 86.2536ZM37.5112 102.66C38.908 105.423 40.6822 106.719 43.0076 108.155C46.5561 110.33 48.5116 111.523 51.0559 112.528C54.3628 113.815 56.6807 114.718 59.5271 114.718C61.7773 114.695 63.9976 114.179 66.0427 113.203C66.7448 126.453 68.3077 129.962 69.0627 142.703L63.3775 144.54L37.0431 104.269L37.5112 102.66ZM66.5108 112.951C67.0051 112.698 67.4865 112.417 67.9528 112.111C67.9921 112.086 68.0236 112.05 68.0436 112.007C68.0637 111.964 68.0715 111.916 68.0661 111.868C67.6127 108.074 67.9003 104.224 68.9117 100.548C69.389 98.6704 69.7447 96.7611 69.9762 94.8336L96.6504 133.825L69.5534 142.538C68.806 129.774 67.1979 126.328 66.5108 112.951ZM74.7554 50.1907C74.7314 50.3171 74.6739 50.434 74.5893 50.5282C74.3779 50.6695 73.7059 50.4183 71.675 48.3459C72.3546 47.6202 73.1424 47.0132 74.008 46.5483C74.091 48.6207 75.0574 49.1859 74.7554 50.1907ZM71.3956 33.2975C72.9056 35.2678 73.1397 35.6054 73.0642 36.8535C73.0146 37.26 73.0639 37.673 73.2076 38.0546C73.4115 38.6119 73.7588 38.9259 74.7554 39.97C75.9483 41.2181 76.4013 41.6891 76.3333 41.956C76.2654 42.2229 75.5028 42.7803 75.3367 42.9059C75.1515 43.0452 74.9573 43.1711 74.7554 43.2827C74.7118 43.3114 74.6783 43.3539 74.6596 43.4039C74.6409 43.4539 74.6382 43.5088 74.6517 43.5605C74.6652 43.6123 74.6942 43.6582 74.7346 43.6915C74.775 43.7249 74.8246 43.7439 74.8762 43.7458C74.9592 43.7458 75.0196 43.6987 75.2008 43.5888V44.8684C74.5515 44.7271 73.5625 45.5749 72.9962 46.0616C72.3378 46.6304 71.7495 47.2817 71.2446 48.0005C71.003 48.3616 70.9502 48.2753 71.3655 48.707C72.1205 49.492 73.872 51.3132 74.7554 50.9914C74.8309 51.847 73.8343 51.8627 73.3058 51.2583C73.2606 51.2118 73.1995 51.1857 73.1359 51.1857C73.0723 51.1857 73.0113 51.2118 72.966 51.2583C72.9246 51.307 72.9018 51.3698 72.9018 51.4349C72.9018 51.4999 72.9246 51.5627 72.966 51.6115C73.1433 51.8209 73.368 51.9808 73.6199 52.0768C73.8718 52.1728 74.1427 52.2017 74.4081 52.161C74.9366 53.1187 74.9819 54.1392 74.0457 54.673C72.6867 55.458 70.8596 55.0184 69.7422 54.7358H69.6893C68.0963 54.3355 67.0393 54.0607 66.1333 53.0167C65.6814 52.483 65.3465 51.8535 65.1518 51.1719C65.1441 51.1402 65.1302 51.1105 65.1108 51.0847C65.0915 51.0589 65.0672 51.0375 65.0395 51.022C65.0118 51.0065 64.9813 50.9972 64.9499 50.9946C64.9186 50.992 64.887 50.9963 64.8573 51.0071C64.8274 51.016 64.7995 51.0312 64.7753 51.0515C64.7511 51.0718 64.731 51.097 64.7162 51.1255C64.7014 51.154 64.6923 51.1853 64.6893 51.2175C64.6863 51.2498 64.6895 51.2823 64.6988 51.3132C64.9108 52.0651 65.2794 52.7593 65.7784 53.3464C66.7071 54.4218 67.7943 54.7594 69.2439 55.1362C67.7918 57.1495 66.6483 59.3844 65.8539 61.7616C65.8433 61.793 65.8387 61.8263 65.8405 61.8596C65.8424 61.8929 65.8506 61.9254 65.8646 61.9554C65.8787 61.9853 65.8983 62.0121 65.9224 62.0341C65.9465 62.056 65.9746 62.0728 66.0049 62.0834C66.065 62.1014 66.1295 62.0953 66.1854 62.0662C66.2414 62.0371 66.2848 61.9872 66.3069 61.9264C66.4428 61.5182 66.5939 61.1414 66.7524 60.7018C68.7154 63.2452 69.3647 66.6364 67.1299 68.7873C61.3391 62.3346 61.6411 62.2483 60.2292 61.11C58.3006 59.5161 56.0413 58.4115 53.6305 57.8837C54.4333 57.4635 55.0594 56.751 55.3896 55.8819C56.2126 54.4375 56.6958 53.2993 56.6656 53.3778C57.4073 51.5167 57.9393 49.5727 58.2511 47.5845C58.5357 47.9147 58.8852 48.1774 59.276 48.3548C59.6668 48.5322 60.0897 48.6202 60.5161 48.6128C60.8748 48.6947 61.2469 48.6892 61.6032 48.5966C61.9595 48.504 62.2903 48.3268 62.5697 48.079C62.734 47.8683 62.8522 47.6229 62.9161 47.36C62.98 47.097 62.988 46.8227 62.9396 46.5561C62.9359 46.5241 62.9261 46.4931 62.9108 46.465C62.8954 46.4369 62.8748 46.4123 62.8502 46.3926C62.8256 46.3728 62.7975 46.3584 62.7675 46.3501C62.7375 46.3418 62.7062 46.3398 62.6754 46.3442C62.6439 46.3471 62.6133 46.3566 62.5854 46.3721C62.5575 46.3876 62.533 46.4089 62.5132 46.4346C62.4935 46.4602 62.4789 46.4898 62.4704 46.5215C62.462 46.5532 62.4598 46.5863 62.464 46.6189C62.5022 46.8149 62.4998 47.0172 62.4568 47.2121C62.4139 47.407 62.3314 47.5902 62.2148 47.7493C61.8449 48.1889 61.1805 48.134 60.5085 48.1104C60.0637 48.1215 59.6243 48.0079 59.2363 47.7813C58.8484 47.5548 58.5263 47.2237 58.3039 46.823C58.0196 46.4376 57.767 46.028 57.5489 45.5984C57.0823 44.8738 56.852 44.0124 56.8921 43.1414C56.8921 43.0079 57.1186 41.8304 57.7603 41.6342C58.4021 41.4379 59.3534 42.1601 59.8366 42.4898C60.3568 42.9454 60.9901 43.2393 61.6637 43.3376C61.9535 43.3203 62.2368 43.2417 62.4964 43.1068C62.756 42.9718 62.9865 42.7832 63.1737 42.5526C63.2157 42.5073 63.2391 42.4468 63.2391 42.3838C63.2391 42.3209 63.2157 42.2604 63.1737 42.2151C61.9959 40.7942 61.5354 39.6795 61.8147 38.8945C62.2375 37.6856 64.2231 37.772 64.5629 36.3119C64.6072 36.0085 64.5869 35.6986 64.5034 35.4043C64.4199 35.11 64.2753 34.8383 64.0797 34.6084C63.9185 34.4003 63.8009 34.1593 63.7346 33.9011C63.6683 33.6429 63.6547 33.3731 63.6946 33.1091C63.8444 32.691 64.0853 32.3147 64.3983 32.0096C64.7114 31.7045 65.0882 31.479 65.4991 31.3507C66.088 31.1387 66.473 31.2722 68.3379 30.9582C68.692 30.9235 69.04 30.839 69.3722 30.707C69.946 31.4135 70.6255 32.2848 71.3956 33.2975ZM52.7471 57.6325C53.6003 56.4797 54.1424 55.1113 54.3175 53.6682C54.8369 53.9223 55.4278 53.9698 55.9785 53.8017C55.6765 54.4375 55.3443 55.0655 55.0046 55.6621C54.7407 56.2267 54.3559 56.7208 53.8796 57.1065C53.5387 57.3503 53.1532 57.5186 52.7471 57.6011V57.6325ZM54.461 28.9878C56.8166 26.5465 59.6403 24.8587 63.0076 24.8587C64.88 24.8587 67.3941 25.5652 68.5417 27.096C69.1155 27.881 69.8101 29.451 69.2363 30.236C68.8546 30.4032 68.4491 30.504 68.0359 30.5343C68.1098 29.3242 67.7583 28.1274 67.0468 27.1666C67.0318 27.1369 67.0112 27.1106 66.9862 27.0893C66.9613 27.068 66.9324 27.0522 66.9015 27.0426C66.8705 27.0331 66.838 27.0302 66.8059 27.0339C66.7738 27.0377 66.7428 27.0481 66.7146 27.0646C66.6722 27.1112 66.6485 27.173 66.6485 27.2373C66.6485 27.3015 66.6722 27.3633 66.7146 27.41C67.3791 28.3035 67.6946 29.425 67.598 30.55C66.8883 30.6442 66.4579 30.6599 66.1484 30.6913C65.7204 30.0356 65.1166 29.5251 64.4119 29.2233C64.3537 29.1996 64.289 29.2003 64.2313 29.2252C64.1735 29.2501 64.1273 29.2972 64.1023 29.3568C64.0899 29.3872 64.0834 29.4198 64.0831 29.4529C64.0828 29.4859 64.0888 29.5187 64.1007 29.5493C64.1127 29.5799 64.1303 29.6078 64.1526 29.6313C64.1749 29.6549 64.2014 29.6736 64.2307 29.6865C64.7781 29.9166 65.2573 30.293 65.6199 30.7776C65.1522 30.9054 64.7137 31.1287 64.33 31.4347C63.9463 31.7407 63.6251 32.1231 63.3851 32.5596C62.483 31.539 61.3777 30.7353 60.1462 30.2046C60.1181 30.1904 60.0875 30.1825 60.0563 30.1812C60.0251 30.1799 59.9941 30.1853 59.965 30.1971C59.9359 30.2089 59.9095 30.2268 59.8874 30.2497C59.8653 30.2726 59.848 30.3 59.8366 30.3302C59.8242 30.3606 59.8176 30.3932 59.8173 30.4263C59.8171 30.4593 59.8231 30.4921 59.835 30.5227C59.8469 30.5533 59.8645 30.5812 59.8868 30.6047C59.9091 30.6283 59.9357 30.647 59.9649 30.6599C61.2233 31.2108 62.3383 32.0635 63.219 33.1483C63.0227 34.5299 64.4119 35.2443 64.1778 36.2883C63.9211 37.4266 61.9128 37.3795 61.4447 38.8082C61.1125 39.7502 61.5429 40.9434 62.7433 42.4427C62.4741 42.7169 62.1159 42.8766 61.7392 42.8902C60.7653 42.8902 59.0136 40.8256 57.7075 41.2103C56.8166 41.485 56.5523 42.7332 56.4919 43.1178C56.4375 44.0942 56.6863 45.0629 57.2016 45.881C57.397 46.2937 57.6269 46.6877 57.8887 47.0585C57.5948 49.1541 57.0573 51.2049 56.2881 53.1658C55.9089 53.3768 55.4775 53.4643 55.0499 53.417C54.6394 53.3312 54.2598 53.1288 53.9532 52.8323C53.6467 52.5357 53.4252 52.1567 53.3134 51.7371C53.0416 50.6617 53.9853 50.2221 53.8645 48.8169C53.7856 48.1589 53.483 47.5519 53.0114 47.1056C51.7945 45.6806 50.8674 44.0144 50.2858 42.2072C49.3496 38.714 50.7388 32.85 54.461 28.9564V28.9878ZM40.0329 67.2016C40.8634 64.5876 39.8819 63.5749 40.418 61.5025C40.8332 59.9325 41.5807 59.8776 42.2149 58.8335C42.2753 59.4929 42.3432 61.0001 42.0035 61.5496C41.7772 61.9153 41.4396 62.1916 41.0446 62.3346C41.0145 62.3444 40.9866 62.3603 40.9626 62.3815C40.9386 62.4028 40.9189 62.4288 40.9048 62.4582C40.8907 62.4875 40.8824 62.5195 40.8805 62.5522C40.8786 62.5849 40.8831 62.6177 40.8936 62.6486C40.9143 62.7106 40.9575 62.7617 41.0139 62.7911C41.0703 62.8204 41.1356 62.8256 41.1956 62.8056C41.6874 62.6348 42.1117 62.3012 42.4036 61.8558C42.9095 61.0708 42.7434 59.0141 42.5848 58.0564C43.3927 55.6543 42.3659 53.1423 41.4146 50.489C40.5765 48.134 40.2594 48.2046 39.9046 46.7681C38.8702 42.2936 40.6596 36.7986 44.4346 34.2081C45.4387 33.5094 46.8128 32.5439 48.4965 32.8971C49.3118 33.0811 50.0572 33.5096 50.6407 34.1296C47.8396 35.0559 46.6543 40.4096 49.8857 42.5369C50.5062 44.3245 51.4435 45.9754 52.649 47.4039C53.0562 47.7715 53.3239 48.2781 53.404 48.8326C53.5097 50.12 52.5282 50.5047 52.8679 51.8392C53.0331 52.4624 53.3881 53.0133 53.8796 53.4092C53.7192 54.9929 53.0885 56.4854 52.0752 57.6796C51.0445 58.0264 50.0641 58.5176 49.1609 59.1397C46.5788 60.9059 45.3859 63.2531 44.4346 65.1292C43.1089 67.7595 42.2447 70.6145 41.8827 73.5601C38.4776 75.5226 36.0012 72.2413 36.4014 68.6225C36.659 68.9158 36.9809 69.1404 37.3397 69.277C37.6984 69.4136 38.0836 69.4584 38.4625 69.4075C39.4063 69.1641 39.7687 68.0259 40.0329 67.2016ZM37.0129 68.5204L39.1798 68.0573C38.6815 69.1406 37.9265 69.2112 37.0356 68.5204H37.0129ZM22.5924 92.1175C22.3357 92.3138 20.6446 90.4847 19.2856 88.5301C17.9266 86.5754 16.7639 84.1812 17.0206 83.9849C17.2773 83.7887 19.0515 85.8375 20.3274 87.7137C21.6034 89.5898 22.8718 91.9134 22.5924 92.1175ZM27.5452 99.2846C27.3489 99.4416 26.0352 98.2091 24.948 96.6784C23.8608 95.1476 23.0983 93.3892 23.3097 93.2401C23.7702 92.9339 27.9454 98.9941 27.5452 99.2846ZM100.486 135.104C102.343 138.754 102.064 141.015 98.3567 142.295L70.1574 151.88C67.1903 152.853 65.9672 152.822 63.2416 149.43L14.3781 75.2322C13.2154 73.2854 13.774 71.629 16.3637 70.9853C19.4365 70.2003 28.1039 67.9474 39.897 65.2313C39.8666 66.0097 39.7083 66.777 39.4289 67.4999L36.5826 68.1122C36.4089 67.9238 36.3561 67.7982 36.1824 67.8375C36.0088 67.8767 35.9937 68.073 35.9635 68.2692L27.7793 70.3966C27.7428 70.4054 27.7088 70.4233 27.6803 70.4487C27.6518 70.474 27.6296 70.5062 27.6155 70.5423C27.6014 70.5785 27.5959 70.6177 27.5995 70.6565C27.603 70.6953 27.6155 70.7327 27.6358 70.7655L28.338 71.9666C28.3639 72.011 28.4028 72.0456 28.449 72.0654C28.4952 72.0851 28.5462 72.089 28.5947 72.0765L35.9484 70.2867C36.0047 70.7562 36.1137 71.2172 36.273 71.6604L18.591 76.3704C18.2965 76.4489 18.4702 76.7237 18.5457 76.8414C19.4517 78.4114 25.5747 87.7294 63.0906 144.948C63.1191 144.991 63.1602 145.024 63.2078 145.041C63.2554 145.058 63.307 145.058 63.3549 145.042C127.862 124.153 76.0012 140.992 97.0958 134.154C97.1317 134.143 97.1643 134.123 97.1911 134.096C97.218 134.069 97.2381 134.035 97.25 133.998C97.2618 133.961 97.2649 133.922 97.2591 133.884C97.2533 133.845 97.2388 133.809 97.2166 133.777L70.0366 94.0957C70.1725 92.8554 70.2782 91.5471 70.3537 90.1707L100.486 135.104ZM35.8955 69.7843L28.6551 71.5505L28.2096 70.7655L35.9031 68.7638C35.8806 69.1035 35.878 69.4443 35.8955 69.7843ZM97.881 74.7298C97.2986 75.3405 96.5456 75.7444 95.7293 75.8837C94.7163 76.1707 93.6569 76.2349 92.6187 76.0721C93.9022 72.4925 95.0649 68.7795 96.0917 65.0193C96.8385 64.8564 97.5452 64.5358 98.1679 64.0773L98.6587 64.5248C97.4356 70.7263 99.1796 73.0499 97.881 74.7298ZM102.313 60.9687C101.887 62.3035 101.051 63.4562 99.9346 64.25C99.61 64.5483 99.5571 64.5248 99.1041 64.25L98.5756 63.7555C99.9124 62.4837 100.816 60.795 101.15 58.9434C102.411 60.4663 102.554 60.4977 102.313 60.9687ZM98.4624 49.1937C98.5923 49.132 98.738 49.1155 98.8776 49.1466C99.1645 49.2487 99.308 49.6961 99.4061 50.018C99.5355 50.4357 99.5868 50.8754 99.5571 51.3132C99.1905 51.2162 98.8064 51.2162 98.4397 51.3132C97.6168 51.5173 97.5564 52.0982 96.8542 52.2081C96.4918 52.2866 96.3182 52.1453 95.986 52.318C95.7531 52.4748 95.5618 52.69 95.4299 52.9438C95.2979 53.1975 95.2295 53.4818 95.231 53.7703C95.2268 53.8033 95.2289 53.8369 95.2373 53.869C95.2457 53.9012 95.2601 53.9313 95.2798 53.9576C95.2995 53.9839 95.324 54.0059 95.3519 54.0222C95.3798 54.0386 95.4106 54.049 95.4424 54.0529C95.5054 54.0595 95.5683 54.0402 95.6177 53.9991C95.6671 53.958 95.6991 53.8984 95.7066 53.8331C95.7746 53.2522 95.9407 52.8911 96.1974 52.7576C96.4541 52.6242 96.9524 52.9931 97.881 52.1924C98.0656 52.0017 98.2945 51.8638 98.5454 51.7921C98.9233 51.7129 99.3153 51.7539 99.6704 51.9098C99.8597 51.9646 100.034 52.0639 100.181 52.2C100.328 52.3361 100.442 52.5054 100.516 52.6948C100.578 52.9585 100.549 53.2365 100.433 53.4798C99.9981 53.4375 99.5611 53.5333 99.1796 53.7546C98.4246 54.1314 97.9414 53.7546 97.3752 54.2099C97.0534 54.4645 96.833 54.8333 96.7561 55.2461C96.7449 55.3105 96.7584 55.3769 96.7937 55.4312C96.8289 55.4854 96.8832 55.5232 96.9448 55.5365C96.9756 55.5433 97.0074 55.5436 97.0383 55.5374C97.0692 55.5311 97.0986 55.5185 97.1247 55.5001C97.1507 55.4818 97.173 55.4582 97.1901 55.4308C97.2072 55.4033 97.2188 55.3725 97.2242 55.3403C97.2819 55.0483 97.437 54.787 97.6621 54.6024C97.8393 54.4775 98.0532 54.4219 98.2661 54.4454C98.6548 54.464 99.0418 54.3803 99.391 54.202C99.7166 54.0037 100.102 53.9393 100.471 54.0215C100.856 54.2177 100.878 54.9949 100.878 55.4423C100.878 55.772 100.977 55.356 100.071 55.8348C99.6405 56.066 99.278 56.413 99.0211 56.8396C98.8481 57.0854 98.6989 57.3483 98.5756 57.6246C98.5581 57.6551 98.547 57.689 98.5431 57.7242C98.5391 57.7595 98.5424 57.7952 98.5526 57.829C98.5629 57.8628 98.5799 57.894 98.6026 57.9205C98.6253 57.947 98.6531 57.9682 98.6842 57.9827C98.7153 57.9972 98.7491 58.0047 98.7832 58.0047C98.8173 58.0046 98.851 57.9971 98.8821 57.9826C98.9132 57.968 98.941 57.9468 98.9637 57.9203C98.9863 57.8938 99.0033 57.8626 99.0135 57.8287C99.1226 57.5816 99.2567 57.3474 99.4137 57.1301C99.6295 56.7729 99.9314 56.4806 100.289 56.2823C100.509 56.1231 100.781 56.0609 101.044 56.1096C101.467 56.298 101.709 57.5069 100.977 58.3076C100.857 58.3822 100.764 58.4952 100.712 58.6294C100.535 59.8226 100.105 60.9596 99.4514 61.9578C98.9209 62.8692 98.1613 63.6129 97.2544 64.1087C96.1294 64.6975 95.7444 64.462 95.6764 64.7681C93.2076 73.8741 89.3495 84.7935 84.4496 92.8554C84.366 93.2905 84.155 93.6881 83.8456 93.9937C83.604 94.2056 83.0906 94.2763 81.7693 94.2763C77.5472 93.8634 73.5705 92.0275 70.4443 89.0482C70.4443 88.5458 70.4443 88.0434 70.4896 87.5253C73.2982 84.3853 74.6572 83.3412 76.3635 80.1698L79.1948 81.991C78.9199 82.5326 78.6828 83.094 78.4851 83.6709C78.4732 83.7084 78.47 83.7483 78.4757 83.7873C78.4815 83.8263 78.4959 83.8633 78.518 83.8954C78.54 83.9275 78.5691 83.9538 78.6027 83.9721C78.6363 83.9903 78.6736 84.0001 78.7116 84.0006C78.761 84.0005 78.8093 83.9847 78.8498 83.9552C78.8903 83.9257 78.9211 83.884 78.9381 83.8358C79.761 81.4101 80.8558 80.2954 82.0034 78.7804C83.9047 76.3092 85.5449 73.6327 86.8958 70.7969C87.7942 69.0307 90.8293 62.9469 90.8444 62.8606C90.9199 62.209 91.5994 56.5806 91.3276 55.7956C91.1796 55.4768 91.1579 55.1103 91.2672 54.7751C91.3816 54.605 91.5419 54.4739 91.7278 54.3983C92.3846 54.0136 94.4307 51.533 94.8761 50.9914C95.1434 50.6067 95.53 50.3294 95.9709 50.2064C96.9826 49.8296 97.2695 49.5941 98.4624 49.2094V49.1937ZM115.163 47.7729C109.499 47.0007 103.756 47.1092 98.1227 48.0947L97.8357 47.1213C97.8171 47.0682 97.7832 47.0224 97.7386 46.9901C97.694 46.9578 97.6409 46.9406 97.5866 46.9408C95.8576 47.0821 94.0985 47.2705 92.3544 47.506C88.67 48.0162 87.9226 48.2125 87.9226 48.6913C87.9226 48.9896 88.2699 49.1545 89.2363 49.3193L89.2891 50.018L88.2548 50.2613C87.1461 48.7748 86.368 47.0514 85.9764 45.215C85.5848 43.3785 85.5893 41.4747 85.9898 39.6403L86.8731 39.3106C86.7216 39.594 86.6411 39.9126 86.6391 40.2369C86.6844 41.485 87.6281 41.7362 88.4813 41.1318C89.0324 42.6076 90.7463 42.113 91.3125 40.5666C91.5673 40.6206 91.8302 40.6163 92.0832 40.554C92.3361 40.4916 92.573 40.3727 92.7772 40.2055C93.0996 39.9348 93.3124 39.5482 93.3737 39.1222C93.4338 39.2611 93.5314 39.3789 93.6548 39.4611C93.7781 39.5434 93.9218 39.5865 94.0683 39.5853C94.3854 39.5514 94.684 39.414 94.9214 39.1928C95.6764 38.6041 95.314 38.0938 96.3635 37.6228C96.4605 37.5803 96.5519 37.5249 96.6353 37.458C99.5269 37.0341 104.495 36.0371 107.205 34.9146C111.099 33.2528 114.522 30.5862 117.149 27.1666C116.898 28.5849 116.744 30.0198 116.688 31.4606C116.604 34.1606 116.809 36.8619 117.3 39.5147C117.534 41.2024 118.092 43.369 119.195 47.6787C119.368 48.3774 119.622 49.0521 119.95 49.6883C118.542 48.6289 116.891 47.9737 115.163 47.7886V47.7729ZM122.992 52.2709C122.509 52.3887 121.875 51.7057 121.392 51.0542C120.581 50.031 119.989 48.8402 119.655 47.5609C118.553 43.267 118.002 41.1082 117.768 39.4519C117.305 36.8222 117.125 34.1472 117.232 31.4763C117.383 28.6267 117.662 26.7663 118.055 25.9813C119.104 24.4113 120.637 28.4148 121.316 30.1575C122.22 32.6782 122.952 35.262 123.506 37.8897C123.988 40.5841 124.263 43.314 124.329 46.0537C124.397 48.9033 123.891 52.0904 122.992 52.2866V52.2709Z" fill="black"/>
<path d="M60.0706 45.1195C60.1349 45.2471 60.2237 45.3597 60.3315 45.4501C60.4393 45.5406 60.5638 45.6071 60.6973 45.6455C60.8198 45.6657 60.9447 45.6657 61.0672 45.6455C61.281 45.5959 61.504 45.6123 61.709 45.6926C61.7382 45.7052 61.7695 45.7115 61.8011 45.7112C61.8327 45.7108 61.8638 45.7038 61.8928 45.6906C61.9217 45.6774 61.9477 45.6583 61.9694 45.6343C61.991 45.6104 62.0077 45.5821 62.0185 45.5513C62.0409 45.4898 62.0392 45.4217 62.0137 45.3615C61.9883 45.3014 61.9413 45.2539 61.8826 45.2294C61.1276 44.9233 60.9087 45.3786 60.5765 45.0175C60.7035 44.857 60.7973 44.671 60.8518 44.471C60.9064 44.2711 60.9206 44.0616 60.8936 43.8557C60.7199 42.9294 59.5346 42.584 58.8173 42.584C58.4037 42.5918 57.9986 42.7079 57.6395 42.9215C57.6066 42.934 57.5766 42.9538 57.5517 42.9795C57.5269 43.0052 57.5077 43.0362 57.4955 43.0704C57.4833 43.1046 57.4784 43.1412 57.4812 43.1775C57.484 43.2139 57.4944 43.2492 57.5116 43.281C57.5288 43.3127 57.5525 43.3402 57.581 43.3615C57.6094 43.3828 57.642 43.3974 57.6765 43.4043C57.7109 43.4112 57.7464 43.4102 57.7804 43.4014C57.8145 43.3926 57.8463 43.3762 57.8736 43.3533C58.1613 43.1815 58.4857 43.087 58.8173 43.0785C59.4062 43.0785 60.3273 43.3611 60.4255 43.9499C60.4351 44.1144 60.4111 44.2792 60.3552 44.4334C60.2992 44.5876 60.2125 44.7278 60.1008 44.8448C60.0705 44.8825 60.0515 44.9286 60.0461 44.9774C60.0407 45.0263 60.0493 45.0757 60.0706 45.1195Z" fill="black"/>
<path d="M63.6947 43.5495C63.7217 43.5333 63.7454 43.5116 63.7643 43.4858C63.7832 43.4599 63.7969 43.4304 63.8046 43.3989C63.8124 43.3675 63.814 43.3347 63.8094 43.3026C63.8047 43.2705 63.794 43.2397 63.7777 43.212C63.7614 43.1836 63.7399 43.1588 63.7143 43.1391C63.6888 43.1193 63.6598 43.1051 63.6289 43.097C63.598 43.089 63.5659 43.0874 63.5345 43.0923C63.503 43.0972 63.4728 43.1085 63.4455 43.1256L62.313 43.84C62.2675 43.8666 62.2319 43.9084 62.2118 43.9585C62.1917 44.0087 62.1884 44.0643 62.2023 44.1167C62.2162 44.1691 62.2465 44.2151 62.2885 44.2475C62.3304 44.2798 62.3816 44.2966 62.4338 44.2953C62.5018 44.2874 62.4414 44.3345 63.6947 43.5495Z" fill="black"/>
<path d="M47.8397 53.4013C47.9796 54.0204 47.8792 54.6719 47.5603 55.2146C47.281 55.6071 46.9412 55.6542 46.5637 55.9996C45.8993 56.5962 45.6351 57.6403 45.7559 59.1867C45.7659 59.2447 45.7952 59.2973 45.8386 59.3351C45.8821 59.3729 45.937 59.3937 45.9937 59.3937C46.0504 59.3937 46.1053 59.3729 46.1488 59.3351C46.1922 59.2973 46.2215 59.2447 46.2315 59.1867C46.1258 57.8287 46.3448 56.8945 46.8808 56.4157C47.4169 55.9368 48.6249 55.772 48.3153 53.3777C48.0209 51.1954 46.8733 50.8186 46.2693 48.9111C45.5822 46.6817 46.0654 43.6202 48.0209 42.427C48.0482 42.41 48.072 42.3876 48.091 42.361C48.11 42.3345 48.1237 42.3043 48.1314 42.2722C48.1391 42.2401 48.1407 42.2067 48.136 42.174C48.1312 42.1413 48.1204 42.1099 48.1039 42.0816C48.0697 42.0258 48.0161 41.9857 47.9544 41.9696C47.8926 41.9536 47.8272 41.9627 47.7717 41.9952C45.6049 43.3297 45.0613 46.6267 45.8163 49.0602C46.4656 50.9913 47.5981 51.3995 47.8397 53.4013Z" fill="black"/>
<path d="M71.562 37.3166C71.5402 37.2938 71.5143 37.2757 71.4858 37.2634C71.4573 37.251 71.4268 37.2447 71.3959 37.2447C71.365 37.2447 71.3344 37.251 71.3059 37.2634C71.2774 37.2757 71.2515 37.2938 71.2298 37.3166C70.4748 38.1487 69.6669 37.5364 68.2098 39.1064C68.1768 39.1404 68.1543 39.1839 68.1452 39.2313C68.1361 39.2786 68.1407 39.3278 68.1585 39.3724C68.1763 39.417 68.2065 39.4551 68.2452 39.4818C68.2839 39.5086 68.3294 39.5227 68.3759 39.5224C68.4086 39.5237 68.4412 39.5173 68.4713 39.5037C68.5013 39.4901 68.5281 39.4697 68.5495 39.4439C68.8445 39.1033 69.1946 38.819 69.5839 38.604C69.5159 39.0514 69.7802 39.5931 70.1954 39.5852C70.6107 39.5774 71.0184 38.8473 70.6711 38.2193C71.0017 38.1183 71.3011 37.9288 71.5393 37.6698C71.5639 37.6487 71.5841 37.6227 71.5987 37.5932C71.6132 37.5637 71.6218 37.5314 71.6239 37.4983C71.6261 37.4652 71.6217 37.432 71.611 37.4008C71.6004 37.3695 71.5837 37.3409 71.562 37.3166Z" fill="black"/>
<path d="M86.2466 140.364C85.8087 139.641 85.4916 139.476 84.5177 139.853L82.0488 140.874C81.241 141.235 81.2108 141.659 81.4599 142.342C81.8758 143.345 82.4165 144.287 83.0681 145.144C83.1964 145.339 83.3675 145.498 83.567 145.61C83.7666 145.722 83.989 145.783 84.2157 145.788C85.25 145.788 87.4471 144.744 87.5528 144.705C87.817 144.595 88.0511 144.5 88.1568 144.241C88.2625 143.982 88.1568 143.692 87.9454 143.237L86.2466 140.364ZM87.3263 144.289C86.4776 144.703 85.5894 145.024 84.6762 145.246C84.4563 145.341 84.2113 145.353 83.9837 145.28C83.7562 145.207 83.5604 145.053 83.4305 144.846C82.8174 144.028 82.3098 143.131 81.9205 142.177C81.7468 141.682 81.7544 141.572 82.2602 141.353C85.5822 139.932 85.4161 139.893 85.8691 140.654C88.0737 144.359 87.968 144.029 87.3263 144.265V144.289Z" fill="black"/>
<path d="M27.8168 23.4378H26.8957L26.5106 22.4252C26.4954 22.3762 26.4656 22.3335 26.4256 22.3032C26.3856 22.2729 26.3374 22.2566 26.2879 22.2566C26.2384 22.2566 26.1902 22.2729 26.1501 22.3032C26.1101 22.3335 26.0804 22.3762 26.0652 22.4252L25.7481 23.4535H25.0535C25.0012 23.4521 24.9501 23.469 24.9081 23.5013C24.8661 23.5337 24.8358 23.5797 24.8219 23.6321C24.808 23.6844 24.8114 23.7401 24.8314 23.7903C24.8515 23.8404 24.8871 23.8822 24.9327 23.9088L25.4838 24.2856L25.1894 25.2276C25.1721 25.2763 25.1704 25.3295 25.1843 25.3794C25.1982 25.4292 25.2271 25.4732 25.2667 25.5047C25.3064 25.5363 25.3547 25.5539 25.4046 25.5548C25.4545 25.5558 25.5034 25.5402 25.5442 25.5102L26.3596 24.9607C27.2052 25.5338 27.2052 25.5495 27.3034 25.5495C27.3422 25.55 27.3806 25.5405 27.415 25.5218C27.4494 25.503 27.4788 25.4757 27.5006 25.4422C27.5223 25.4087 27.5357 25.3701 27.5394 25.3299C27.5432 25.2897 27.5374 25.2492 27.5223 25.2119L27.2128 24.3798L27.9225 23.901C27.9653 23.8731 27.9987 23.832 28.0179 23.7834C28.0371 23.7347 28.0412 23.6811 28.0295 23.6299C28.0178 23.5788 27.991 23.5328 27.9529 23.4983C27.9147 23.4638 27.8671 23.4427 27.8168 23.4378Z" fill="black"/>
<path d="M31.781 22.9511H30.8523L30.4748 21.962C30.4623 21.912 30.4319 21.8687 30.3899 21.841C30.3478 21.8133 30.2972 21.8033 30.2483 21.8129C30.1999 21.8134 30.1528 21.8296 30.1136 21.8591C30.0744 21.8887 30.045 21.9301 30.0294 21.9777L29.7198 23.0061H29.0328C28.9827 23.0087 28.9346 23.0274 28.8952 23.0597C28.8558 23.092 28.8271 23.1363 28.813 23.1863C28.7989 23.2364 28.8001 23.2897 28.8165 23.339C28.8329 23.3883 28.8636 23.4311 28.9044 23.4614L29.4631 23.8382L29.1762 24.7095C29.1622 24.7587 29.163 24.8112 29.1785 24.8598C29.194 24.9085 29.2234 24.9511 29.2629 24.9819C29.3023 25.0126 29.3499 25.0301 29.3992 25.0319C29.4485 25.0338 29.4971 25.0199 29.5386 24.9921L30.3465 24.4348L31.1619 24.9921C31.2045 25.0197 31.2542 25.0327 31.3043 25.0295C31.3544 25.0262 31.4022 25.0069 31.4412 24.9741C31.4802 24.9413 31.5084 24.8967 31.522 24.8465C31.5355 24.7963 31.5337 24.7429 31.5167 24.6938L31.2298 23.9245L31.9395 23.4378C32.0016 23.416 32.0528 23.3694 32.0818 23.3083C32.1108 23.2472 32.1153 23.1766 32.0943 23.1121C32.0733 23.0475 32.0284 22.9943 31.9697 22.9641C31.9109 22.934 31.843 22.9293 31.781 22.9511Z" fill="black"/>
<path d="M35.7596 22.9511H34.8385L34.4535 21.9384C34.4393 21.8877 34.4075 21.8444 34.3642 21.8168C34.3209 21.7892 34.2693 21.7794 34.2194 21.7893C34.171 21.7898 34.124 21.806 34.0848 21.8355C34.0455 21.8651 34.0161 21.9065 34.0005 21.9541L33.6909 22.9825H32.9963C32.9441 22.9811 32.8929 22.9979 32.851 23.0303C32.809 23.0627 32.7787 23.1087 32.7648 23.161C32.7509 23.2134 32.7542 23.2691 32.7743 23.3193C32.7944 23.3694 32.83 23.4111 32.8755 23.4378L33.4267 23.8146L33.1322 24.7095C33.115 24.7582 33.1132 24.8114 33.1271 24.8613C33.1411 24.9111 33.17 24.955 33.2096 24.9866C33.2492 25.0182 33.2976 25.0357 33.3475 25.0367C33.3974 25.0377 33.4463 25.0221 33.4871 24.9921L34.3025 24.4347C35.1481 25.0078 35.1481 25.0313 35.2462 25.0313C35.2844 25.03 35.3218 25.0193 35.3552 25.0001C35.3887 24.9809 35.4173 24.9537 35.4387 24.9207C35.46 24.8878 35.4736 24.85 35.4782 24.8106C35.4828 24.7711 35.4783 24.7311 35.4652 24.6938L35.1481 23.9245L35.9031 23.4378C35.9652 23.418 36.0171 23.3734 36.0476 23.3138C36.078 23.2542 36.0844 23.1844 36.0654 23.1199C36.0464 23.0553 36.0035 23.0013 35.9461 22.9696C35.8888 22.938 35.8217 22.9313 35.7596 22.9511Z" fill="black"/>
<path d="M121.339 32.01C121.007 31.0994 119.829 28.085 118.953 28.2656C117.828 28.454 117.745 33.8783 117.783 35.0558L118.273 35.1971C118.091 37.9305 118.555 40.6687 119.625 43.1727L119.172 43.6045C119.716 45.7318 119.867 46.6738 120.682 47.8749C121.067 48.4558 121.882 49.6647 122.547 49.5155C123.528 49.3114 123.709 46.2107 123.709 44.4758C123.499 40.2238 122.701 36.0254 121.339 32.01ZM119.995 42.8116C119.016 40.453 118.589 37.8864 118.749 35.3227L119.655 35.5739C119.296 37.8144 119.674 40.1153 120.727 42.1051L119.995 42.8116ZM121.558 41.3044L121.09 41.7597C120.145 39.9188 119.8 37.8086 120.108 35.7466C120.431 36.0012 120.71 36.3119 120.931 36.6651C121.352 37.4075 121.576 38.2526 121.58 39.1143C121.648 39.8431 121.641 40.5773 121.558 41.3044Z" fill="black"/>
</svg>
