<svg width="600" height="600" viewBox="0 0 600 600" fill="none" xmlns="http://www.w3.org/2000/svg">
<path d="M324.401 369.383C424.219 369.383 485.263 347.695 485.263 321.343C485.263 319.809 485.02 318.276 484.544 316.749C506.936 326.108 520.069 337.147 520.069 348.245C520.069 376.875 445.804 400.438 324.368 400.438C202.932 400.438 129.036 376.875 129.036 348.245C129.036 337.124 142.169 326.062 164.577 316.691C164.091 318.237 163.842 319.789 163.842 321.343C163.842 347.695 224.583 369.383 324.401 369.383Z" fill="#FFE790"/>
<path d="M480.514 310.525C480.514 336.876 421.274 358.565 324.405 358.565C227.537 358.565 168.59 336.876 168.59 310.525C168.59 284.173 219.129 212.74 324.405 212.74C429.682 212.74 480.514 284.173 480.514 310.525Z" fill="#FFE790"/>
<path d="M300.233 203.324C300.233 192.494 309.012 183.715 319.842 183.715H329.346C340.176 183.715 348.955 192.494 348.955 203.324V204.172C348.955 211.044 345.519 216.883 338.657 217.258C335.143 217.449 330.468 217.59 324.256 217.635C318.209 217.679 313.65 217.596 310.218 217.437C303.361 217.119 300.233 211.05 300.233 204.187V203.324Z" fill="#FFE790"/>
<path d="M136.79 327.767C136.79 335.41 141.209 342.354 148.789 348.351C156.374 354.351 167.403 359.647 181.386 364.053C209.377 372.872 249.793 378.307 299.849 378.307C349.904 378.307 390.395 372.873 418.461 364.054C432.481 359.648 443.547 354.353 451.16 348.354C458.767 342.359 463.211 335.415 463.211 327.767C463.211 327.609 463.206 327.451 463.201 327.293C472.275 331.394 479.455 335.737 484.506 340.151C490.34 345.251 493.017 350.158 493.017 354.669C493.017 360.639 489.149 366.824 480.576 372.857C472.043 378.862 459.269 384.397 442.529 389.095C409.082 398.481 360.404 404.361 299.815 404.361C239.227 404.361 190.643 398.48 157.288 389.095C140.595 384.398 127.868 378.864 119.37 372.86C110.834 366.83 106.983 360.645 106.983 354.669C106.983 350.144 109.662 345.226 115.497 340.117C120.547 335.696 127.725 331.348 136.8 327.242C136.794 327.417 136.79 327.592 136.79 327.767ZM277.42 222.802C279.43 224.874 282.155 226.201 285.549 226.358C289.039 226.52 293.646 226.603 299.722 226.559C305.959 226.513 310.676 226.372 314.24 226.178C317.535 225.998 320.253 224.761 322.311 222.804C363.118 227.019 394.173 242.423 415.803 260.109C428.532 270.518 437.989 281.711 444.246 291.864C450.548 302.091 453.462 311.026 453.462 316.948C453.462 322.507 450.353 328.16 443.616 333.631C436.879 339.102 426.766 344.164 413.463 348.472C386.879 357.079 348.135 362.488 299.853 362.488C251.57 362.488 212.9 357.079 186.392 348.473C173.126 344.166 163.05 339.103 156.341 333.634C149.633 328.165 146.538 322.512 146.538 316.948C146.538 311.023 149.436 302.085 155.71 291.859C161.94 281.706 171.359 270.516 184.052 260.107C205.621 242.42 236.62 227.014 277.42 222.802ZM295.289 192.639H304.793C314.242 192.639 321.902 200.299 321.902 209.748V210.596C321.902 213.363 321.268 215.776 320.157 217.571C313.625 216.979 306.857 216.664 299.853 216.664C292.91 216.664 286.201 216.973 279.724 217.556C278.727 215.734 278.18 213.324 278.18 210.61V209.748C278.18 200.299 285.84 192.639 295.289 192.639Z" stroke="#1E1E1E" stroke-width="5"/>
</svg>
