<svg width="600" height="600" viewBox="0 0 600 600" fill="none" xmlns="http://www.w3.org/2000/svg">
<path d="M437.182 83.5V516.079H163.5V83.5H437.182Z" stroke="#1E1E1E" stroke-width="5"/>
<path d="M232.351 83.4446C232.321 83.5248 232.29 83.605 232.26 83.685H164.147C164.116 83.605 164.086 83.5248 164.056 83.4446H232.351ZM232.351 83.4446C232.381 83.5248 232.412 83.605 232.442 83.685H300.555C300.586 83.605 300.616 83.5248 300.646 83.4446M232.351 83.4446H300.646M300.646 83.4446C300.677 83.5248 300.707 83.605 300.737 83.685H368.851C368.881 83.605 368.911 83.5248 368.942 83.4446M300.646 83.4446H368.942M368.942 83.4446C368.972 83.5248 369.002 83.605 369.033 83.685H437.146C437.176 83.605 437.207 83.5248 437.237 83.4446H368.942ZM232.054 84.2284C209.487 125.306 186.92 125.306 164.353 84.2283C186.92 143.483 209.487 143.483 232.054 84.2284ZM436.94 84.2283C414.373 125.306 391.806 125.306 369.239 84.2283C391.806 143.483 414.373 143.483 436.94 84.2283ZM368.644 84.2283C346.077 125.306 323.51 125.306 300.943 84.2283C323.51 143.483 346.077 143.483 368.644 84.2283ZM300.349 84.2283C277.782 125.306 255.215 125.306 232.648 84.2283C255.215 143.483 277.782 143.483 300.349 84.2283Z" stroke="#1E1E1E" stroke-width="4"/>
<path d="M353.454 188.617V217.841H246.615V188.617H353.454Z" stroke="#1E1E1E" stroke-width="5"/>
</svg>
