<svg width="600" height="600" viewBox="0 0 600 600" fill="none" xmlns="http://www.w3.org/2000/svg">
<path fill-rule="evenodd" clip-rule="evenodd" d="M174.195 69.2712H452.876V506.85H174.195V69.2712ZM257.31 174.388H369.15V208.612H257.31V174.388ZM245.546 71.7158L245.455 71.9562H177.341L177.25 71.7158H245.546ZM245.637 71.9562L245.546 71.7158H313.841L313.75 71.9562H245.637ZM382.136 71.7158L382.046 71.9562H313.932L313.841 71.7158H382.136ZM382.136 71.7158H450.432L450.341 71.9562H382.227L382.136 71.7158ZM245.249 72.4996C222.682 113.577 200.115 113.577 177.548 72.4995C200.115 131.754 222.682 131.754 245.249 72.4996ZM450.135 72.4996C427.568 113.577 405.001 113.577 382.434 72.4996C405.001 131.754 427.568 131.754 450.135 72.4996ZM381.839 72.4996C359.272 113.577 336.705 113.577 314.138 72.4996C336.705 131.754 359.272 131.754 381.839 72.4996ZM313.544 72.4996C290.977 113.577 268.41 113.577 245.843 72.4995C268.41 131.754 290.977 131.754 313.544 72.4996Z" fill="#FFB46E"/>
<path d="M437.182 83.5V516.079H163.5V83.5H437.182Z" stroke="#1E1E1E" stroke-width="5"/>
<path d="M232.351 83.4446C232.321 83.5248 232.29 83.605 232.26 83.685H164.147C164.116 83.605 164.086 83.5248 164.056 83.4446H232.351ZM232.351 83.4446C232.381 83.5248 232.412 83.605 232.442 83.685H300.555C300.586 83.605 300.616 83.5248 300.646 83.4446M232.351 83.4446H300.646M300.646 83.4446C300.677 83.5248 300.707 83.605 300.737 83.685H368.851C368.881 83.605 368.911 83.5248 368.942 83.4446M300.646 83.4446H368.942M368.942 83.4446C368.972 83.5248 369.002 83.605 369.033 83.685H437.146C437.176 83.605 437.207 83.5248 437.237 83.4446H368.942ZM232.054 84.2284C209.487 125.306 186.92 125.306 164.353 84.2283C186.92 143.483 209.487 143.483 232.054 84.2284ZM436.94 84.2283C414.373 125.306 391.806 125.306 369.239 84.2283C391.806 143.483 414.373 143.483 436.94 84.2283ZM368.644 84.2283C346.077 125.306 323.51 125.306 300.943 84.2283C323.51 143.483 346.077 143.483 368.644 84.2283ZM300.349 84.2283C277.782 125.306 255.215 125.306 232.648 84.2283C255.215 143.483 277.782 143.483 300.349 84.2283Z" stroke="#1E1E1E" stroke-width="4"/>
<path d="M353.454 188.617V217.841H246.615V188.617H353.454Z" stroke="#1E1E1E" stroke-width="5"/>
</svg>
