<svg width="153" height="157" viewBox="0 0 153 157" fill="none" xmlns="http://www.w3.org/2000/svg">
<path d="M72.7316 152.34H9.69797L9.60449 152.32C10.9068 145.688 12.9439 139.231 15.6761 133.074L15.6997 132.943C20.5052 133.837 29.1198 130.065 39.322 126.361C50.4287 122.332 52.5741 121.317 52.5741 121.317C52.9931 120.889 53.2859 120.349 53.4193 119.757L53.6472 119.788H60.0039C60.0039 119.788 61.4829 122.094 63.4763 125.929C66.603 131.944 71.0003 141.728 72.949 152.293L72.7316 152.34Z" fill="black"/>
<path d="M142.693 75.3567V78.8254H120.264V75.3567H127.047H142.693Z" fill="black"/>
<path d="M99.6138 32.9435L106.522 41.536H99.6138V32.9435Z" fill="black"/>
<path d="M137.242 33.2969V35.7422H134.198V33.2969H137.063H137.242Z" fill="#81F8F8"/>
<path d="M137.242 30.6237V33.2967H137.063H134.198V30.6237H137.063H137.242Z" fill="#81F8F8"/>
<path d="M137.242 27.9546V30.6237H137.063H134.198V27.9546H137.063H137.242Z" fill="#81F8F8"/>
<path d="M137.242 25.2815V27.9546H137.063H134.198V25.2815H137.063H137.242Z" fill="#81F8F8"/>
<path d="M137.242 22.6124V25.2816H137.063H134.198V22.6124H137.063H137.242Z" fill="#81F8F8"/>
<path d="M137.242 19.9392V22.6123H137.063H134.198V19.9392H135.505H137.063H137.242Z" fill="#81F8F8"/>
<path d="M137.242 17.267V19.9392H137.063H135.505H134.198V17.267H137.063H137.242Z" fill="#81F8F8"/>
<path d="M137.242 14.5972V17.2671H137.063H134.198V14.5972H137.063H137.242Z" fill="#81F8F8"/>
<path d="M137.242 11.9248V14.5971H137.063H134.198V11.9248H137.063H137.242Z" fill="#81F8F8"/>
<path d="M137.242 9.25793V11.9248H137.063H134.198V9.25793H137.063H137.242Z" fill="#81F8F8"/>
<path d="M137.242 6.58496V9.25802H137.063H134.198V6.58496H137.063H137.242Z" fill="#81F8F8"/>
<path d="M137.242 4.1427V6.58488H137.063H134.198V4.1427H137.242Z" fill="#81F8F8"/>
<path d="M111.813 17.267H114.684V19.9392H111.813V17.267Z" fill="#81F8F8"/>
<path d="M111.813 14.5972H114.684V17.2671H111.813V14.5972Z" fill="#81F8F8"/>
<path d="M111.813 11.9248H114.684V14.5971H111.813V11.9248Z" fill="#81F8F8"/>
<path d="M111.813 9.25793H114.684V11.9279H111.813V9.25793Z" fill="#81F8F8"/>
<path d="M111.813 6.58496H114.684V9.25724H111.813V6.58496Z" fill="#81F8F8"/>
<path d="M111.813 4.1427H114.684V6.58566H111.813V4.1427Z" fill="#81F8F8"/>
<path d="M111.813 33.2969H114.684V35.7422H111.813V33.2969Z" fill="#81F8F8"/>
<path d="M111.813 30.6237H114.684V33.2959H111.813V30.6237Z" fill="#81F8F8"/>
<path d="M111.813 27.9546H114.684V30.6245H111.813V27.9546Z" fill="#81F8F8"/>
<path d="M111.813 25.2815H114.684V27.9538H111.813V25.2815Z" fill="#81F8F8"/>
<path d="M111.813 22.6124H114.684V25.2824H111.813V22.6124Z" fill="#81F8F8"/>
<path d="M111.813 19.9392H114.684V22.6115H111.813V19.9392Z" fill="#81F8F8"/>
<path d="M128.807 61.1241C128.807 61.4075 128.862 61.6882 128.967 61.95C129.073 62.2119 129.228 62.4498 129.423 62.6502C129.618 62.8506 129.85 63.0096 130.105 63.1181C130.36 63.2265 130.634 63.2823 130.91 63.2823C131.186 63.2823 131.46 63.2265 131.715 63.1181C131.97 63.0096 132.202 62.8506 132.397 62.6502C132.592 62.4498 132.747 62.2119 132.853 61.95C132.959 61.6882 133.013 61.4075 133.013 61.1241C133.013 60.8407 132.959 60.56 132.853 60.2981C132.747 60.0363 132.592 59.7984 132.397 59.598C132.202 59.3976 131.97 59.2386 131.715 59.1301C131.46 59.0216 131.186 58.9658 130.91 58.9658C130.634 58.9658 130.36 59.0216 130.105 59.1301C129.85 59.2386 129.618 59.3976 129.423 59.598C129.228 59.7984 129.073 60.0363 128.967 60.2981C128.862 60.56 128.807 60.8407 128.807 61.1241Z" fill="#FFD997"/>
<path d="M142.693 69.9505V75.3559H127.047C127.739 73.6723 128.526 72.0315 129.403 70.4419C130.792 67.9389 132.666 65.1762 134.665 64.0132C138.732 61.6412 142.693 69.9505 142.693 69.9505Z" fill="#81F8F8"/>
<path d="M129.403 70.4436C128.525 72.0332 127.739 73.674 127.047 75.3576H120.264V69.4725C120.264 69.4725 122.141 65.8564 124.774 65.7745C127.407 65.6926 129.403 70.4436 129.403 70.4436Z" fill="#81F8F8"/>
<path d="M99.6138 32.9192V32.9433H81.6467V57.2177H74.7383V25.8531H99.6138V32.9192Z" fill="#81F8F8"/>
<path d="M134.198 17.267V19.9393H114.683V17.267V14.597V11.9248V9.25794V6.58488V4.1427H134.198V6.58488V9.25794V11.9248V14.597V17.267Z" fill="white"/>
<path d="M134.198 33.2967V35.742H114.683V33.2967V30.6236V27.9545V25.2814V22.6123V19.9392H134.198V22.6123V25.2814V27.9545V30.6236V33.2967Z" fill="white"/>
<path d="M105.904 91.6486C106.183 91.6488 106.456 91.7289 106.693 91.8799C106.93 92.0309 107.121 92.2467 107.245 92.5031C107.368 92.7595 107.42 93.0463 107.394 93.3312C107.367 93.6161 107.264 93.8878 107.095 94.1157L94.3366 111.262C92.6045 111.631 89.9286 112.501 89.1177 113.127C88.9754 113.233 88.8624 113.376 88.7899 113.54C88.7173 113.704 88.6877 113.885 88.7039 114.065C88.72 114.244 88.7815 114.417 88.8821 114.564C88.9828 114.712 89.1192 114.831 89.278 114.908L89.2697 114.927C88.2447 115.13 87.2446 115.449 86.2874 115.876C86.0697 116.006 85.9035 116.211 85.8179 116.454C85.7322 116.697 85.7327 116.964 85.8191 117.207C85.9055 117.449 86.0724 117.653 86.2906 117.783C86.5087 117.912 86.7643 117.959 87.0125 117.914C87.036 117.914 87.0603 117.914 87.0885 117.909C86.8699 117.956 86.6571 118.028 86.4539 118.123C86.235 118.207 86.0537 118.371 85.9442 118.583C85.8347 118.795 85.8044 119.041 85.8591 119.275C85.9138 119.508 86.0497 119.713 86.2412 119.851C86.4327 119.989 86.6667 120.05 86.8992 120.023C87.2329 120.042 87.7869 120.04 88.4504 120.023C88.2436 120.047 88.0399 120.093 87.8424 120.161C87.6602 120.216 87.5013 120.333 87.3912 120.492C87.281 120.651 87.2258 120.843 87.2344 121.038L87.0581 121.044L86.7009 121.528C86.5944 121.67 86.4576 121.785 86.3009 121.865C86.1442 121.944 85.9719 121.985 85.7972 121.985H68.2116C67.9325 121.985 67.6589 121.906 67.4217 121.755C67.1844 121.604 66.993 121.388 66.8691 121.131C66.7451 120.875 66.6936 120.588 66.7202 120.303C66.7469 120.018 66.8507 119.746 67.0199 119.518L73.5369 110.759L77.6895 105.182L79.1472 103.22L86.7807 92.9652C87.0852 92.555 87.478 92.2226 87.9283 91.9938C88.3786 91.765 88.8743 91.6461 89.3768 91.6462L105.904 91.6486ZM90.7251 108.239C92.1691 106.464 92.5612 104.36 91.6044 103.542C90.6475 102.724 88.7019 103.498 87.2633 105.274C85.8246 107.049 85.4263 109.156 86.3809 109.973C87.3355 110.791 89.2803 110.017 90.7251 108.239Z" fill="#81F8F8"/>
<path d="M105.051 73.1025L93.7981 87.4553L82.5479 73.1025H88.9927V64.308V54.5892H98.6059V55.8942V58.9549V64.308V73.1025H105.051Z" fill="#FFD997"/>
<path d="M95.8644 113.538C97.8495 113.866 97.1564 116.453 96.0536 116.626C95.8256 116.658 94.9896 116.787 93.9074 116.952C91.6099 117.296 88.196 117.802 87.0902 117.906H87.0848C87.0582 117.906 87.0339 117.906 87.0088 117.911C86.7606 117.956 86.5049 117.91 86.2866 117.78C86.0684 117.651 85.9014 117.447 85.815 117.204C85.7286 116.961 85.7283 116.694 85.8142 116.451C85.9 116.208 86.0666 116.004 86.2846 115.874C87.2421 115.447 88.2421 115.129 89.2668 114.925L89.2744 114.905C89.5365 115.035 89.8354 115.066 90.1172 114.99C91.5567 114.648 95.1735 113.801 95.8644 113.538Z" fill="#FFD997"/>
<path d="M94.8942 111.152C96.5434 110.879 96.554 113.275 95.8639 113.538C95.1738 113.801 91.557 114.648 90.1176 114.993C89.8358 115.067 89.5378 115.037 89.2755 114.908C89.1165 114.831 88.9799 114.713 88.8791 114.565C88.7783 114.417 88.7168 114.244 88.7006 114.065C88.6844 113.885 88.7141 113.704 88.7868 113.54C88.8595 113.375 88.9726 113.233 89.1151 113.127C89.926 112.503 92.602 111.634 94.334 111.262C94.5339 111.218 94.7254 111.18 94.8942 111.152Z" fill="#FFD997"/>
<path d="M93.3179 119.835C93.1287 119.84 92.9235 119.853 92.7 119.862C91.5008 119.917 89.8721 119.991 88.596 120.018C88.5898 120.017 88.5833 120.017 88.577 120.018C88.5487 120.016 88.5202 120.016 88.4919 120.018C88.4768 120.015 88.4614 120.015 88.4463 120.018C87.7851 120.029 87.2303 120.034 86.8952 120.018C86.6633 120.043 86.4305 119.981 86.2401 119.843C86.0497 119.705 85.9146 119.501 85.8601 119.268C85.8056 119.035 85.8354 118.79 85.9439 118.579C86.0524 118.367 86.2322 118.203 86.4498 118.117C86.6533 118.023 86.866 117.951 87.0844 117.903H87.0897C88.1955 117.8 91.6125 117.293 93.9077 116.949C94.2098 116.935 94.5088 117.019 94.762 117.188C95.0153 117.358 95.21 117.605 95.3185 117.895C95.427 118.185 95.4438 118.502 95.3666 118.803C95.2893 119.103 95.1219 119.37 94.8881 119.567C94.7047 119.701 94.4868 119.776 94.2618 119.783C94.1205 119.793 93.7792 119.81 93.3179 119.835Z" fill="#FFD997"/>
<path d="M93.3178 119.835C94.853 120.056 94.872 121.293 94.0534 121.821C93.8815 121.935 93.6797 121.992 93.4751 121.984C93.2912 121.984 92.7554 121.984 92.0577 121.977C90.3568 121.96 89.0458 122.004 88.1444 121.902C87.9154 121.898 87.6959 121.807 87.5272 121.648C87.3585 121.489 87.2521 121.272 87.2279 121.038C87.2195 120.843 87.2748 120.651 87.3849 120.492C87.495 120.333 87.6537 120.216 87.8359 120.16C88.0329 120.091 88.2369 120.045 88.4439 120.023C88.4587 120.021 88.4739 120.021 88.4887 120.023H88.5738H88.5928C89.8719 119.994 91.5006 119.92 92.6968 119.867C92.9233 119.853 93.1285 119.84 93.3178 119.835Z" fill="#FFD997"/>
<path d="M70.9355 104.448C71.9615 105.785 73.5392 107.963 73.8136 108.991C73.8672 109.281 73.855 109.579 73.7779 109.863C73.7008 110.148 73.5609 110.41 73.369 110.629C72.6226 111.506 71.7231 112.233 70.7166 112.771L70.709 112.776C69.7321 113.54 68.5243 113.927 67.2974 113.868C66.5653 114.305 65.7837 114.646 64.9702 114.886C64.0134 115.198 62.4942 115.778 62.3665 114.708C62.2388 113.639 64.3151 113.251 64.3151 113.251L64.4451 113.075L62.1081 111.213C62.1081 111.213 61.418 112.071 60.4581 113.054C59.3493 114.184 57.8741 115.472 56.6733 115.759C55.773 115.977 54.8313 115.936 53.9525 115.639C53.707 115.561 53.4701 115.456 53.2457 115.327L51.2697 115.833C51.2431 115.554 51.2218 115.264 51.2006 114.957C51.0789 112.599 51.4148 110.239 52.1886 108.015C52.1886 108.015 56.6665 106.32 60.4726 104.517C64.2786 102.714 65.2302 101.062 67.7169 100.761C68.8933 100.588 70.0807 100.505 71.2691 100.512C72.0341 100.537 72.7963 100.62 73.5491 100.761C75.6771 101.136 78.8402 102.991 78.8402 102.991L79.1359 103.225L77.6782 105.186L77.4943 105.041C76.3961 104.615 74.1503 103.676 74.1503 103.676C73.0566 103.912 70.9355 104.448 70.9355 104.448Z" fill="#FFD997"/>
<path d="M63.9739 22.5266V24.2145C63.7025 24.3675 63.3981 24.448 63.0885 24.4485C62.5995 24.4384 62.1338 24.2319 61.7914 23.8734C61.4491 23.5149 61.2573 23.0329 61.2573 22.5309C61.2573 22.0289 61.4491 21.5469 61.7914 21.1884C62.1338 20.8299 62.5995 20.6234 63.0885 20.6133C63.3981 20.6136 63.7026 20.6941 63.9739 20.8473V22.5266Z" fill="black"/>
<path d="M42.4646 58.6483C43.1136 59.3811 43.809 60.0692 44.5462 60.7082C45.4468 61.4219 46.542 61.9367 47.5102 61.638C48.4784 61.3393 50.3579 59.6006 50.3579 59.6006C50.1818 59.7023 49.9962 59.7857 49.8039 59.8495C49.8039 59.8495 48.0977 59.2372 47.4692 59.0999C46.9622 58.9883 44.0385 58.7637 42.9092 58.6841C42.6318 58.6623 42.4638 58.6514 42.4638 58.6514L42.4646 58.6483ZM41.9326 66.2533C42.362 66.4826 45.5707 68.1783 47.0398 68.8546H47.0664L47.0474 69.1447L55.6673 72.1758C55.6673 72.1758 52.0877 78.2013 41.0988 78.2972C34.6799 78.4231 28.418 76.2553 23.3848 72.1649L33.4707 68.0067L33.59 64.0895C33.6197 64.0895 34.5682 55.3145 32.2334 56.0337C31.6731 56.2126 31.1781 56.5605 30.813 57.0321L30.661 56.9471C29.2778 55.8722 26.9218 52.9691 28.726 50.0215C28.8568 49.7988 29.0195 49.5976 29.2086 49.4248C30.6663 48.1417 32.4599 50.555 32.4599 50.555C38.6228 53.0003 40.9202 44.3563 41.602 41.4867C41.602 41.4867 48.0711 43.0623 50.0615 44.4078C50.2538 44.5365 50.4415 44.6761 50.627 44.8212C52.5538 46.3409 53.8437 48.5574 54.2339 51.0191L54.1648 51.1642C54.0669 51.376 53.9583 51.5825 53.8395 51.7827C54.2977 53.2404 54.3431 54.8017 53.9702 56.2849C53.6435 57.3748 53.1716 58.4131 52.568 59.3705C51.9927 60.2948 51.4219 61.0085 51.0548 61.6817C50.2523 63.1559 49.5029 65.0521 48.2748 66.1948C47.9469 66.5068 47.568 66.7568 47.1553 66.9334C46.7654 67.0995 46.3485 67.1887 45.9264 67.1963C44.7734 67.184 43.6324 66.9543 42.5603 66.5185C42.3498 66.4334 42.1393 66.3461 41.931 66.2533H41.9326Z" fill="#FFD997"/>
<path d="M55.2473 22.5265V24.3103C55.0304 24.3959 54.8002 24.4403 54.5679 24.4414C54.2924 24.4427 54.02 24.3816 53.7702 24.2623C53.5204 24.143 53.2994 23.9684 53.1231 23.7512C52.9467 23.534 52.8193 23.2794 52.75 23.0058C52.6807 22.7321 52.6712 22.4461 52.7223 22.1682C52.7733 21.8904 52.8835 21.6275 53.0451 21.3985C53.2067 21.1695 53.4156 20.98 53.6569 20.8435C53.8982 20.707 54.1659 20.627 54.4408 20.6092C54.7158 20.5913 54.9912 20.6361 55.2473 20.7403V22.5265Z" fill="black"/>
<path d="M41.6004 41.4642V41.4868C40.9164 44.3556 38.6212 52.9996 32.4584 50.5543C32.4584 50.5543 30.6648 48.1417 29.2071 49.4248C29.1402 49.2493 28.2047 46.6168 29.8866 40.7068C30.5077 38.4785 31.8986 36.5588 33.799 35.3068C36.0189 33.8977 38.5234 33.0285 41.1209 32.7656C41.4196 32.725 41.7046 32.6946 41.982 32.6673C45.9986 32.2843 52.5019 34.6945 54.6337 41.0515C57.169 48.6066 54.2339 51.0168 54.2339 51.0168C53.8425 48.5556 52.5518 46.3401 50.6247 44.8213C49.007 43.0584 46.9999 41.7207 44.7727 40.9213C41.7076 39.9931 41.6004 41.2785 41.6004 41.4642Z" fill="#81F8F8"/>
<path d="M53.9522 115.644L53.9119 115.765C53.9039 117.111 53.7375 118.452 53.4164 119.758C53.2825 120.349 52.9897 120.89 52.5713 121.318C52.5713 121.318 51.673 120.55 51.2656 115.836L53.2416 115.33C53.4676 115.459 53.7057 115.564 53.9522 115.644Z" fill="#81F8F8"/>
<path d="M53.9866 59.6467C54.4662 61.0445 53.5253 62.858 52.1474 62.858C51.6578 62.8681 51.177 62.7241 50.7695 62.4454C51.2538 61.5477 51.7887 60.6799 52.3716 59.8464C52.5852 59.4564 52.9127 59.0477 53.2433 58.5142C53.5898 58.8126 53.8473 59.2051 53.9866 59.6467Z" fill="black"/>
<path d="M50.6229 44.8213C50.439 44.6762 50.2497 44.5366 50.0582 44.4079C48.07 43.0647 41.5986 41.4868 41.5986 41.4868V41.4649C41.5986 41.2785 41.705 39.9931 44.7701 40.9189C46.9978 41.719 49.0053 43.0574 50.6229 44.8213Z" fill="black"/>
<path d="M49.8049 59.8441C49.0639 60.0575 48.2896 60.1216 47.5249 60.0329C45.9422 59.7581 44.3944 59.3028 42.9102 58.6757C44.0372 58.7537 46.961 58.9799 47.4702 59.0914C48.0987 59.2341 49.8049 59.8441 49.8049 59.8441Z" fill="black"/>
<path d="M47.1558 66.9311L47.1953 67.0193L47.0676 68.8585H47.041C45.5727 68.183 42.3632 66.4873 41.9346 66.2572C42.1421 66.3531 42.3526 66.4382 42.5608 66.5169C43.6325 66.9547 44.7735 67.1866 45.9268 67.201C46.3494 67.1912 46.7663 67.0996 47.1558 66.9311Z" fill="black"/>
<path d="M41.1189 28.2743C42.7681 30.9029 41.2891 32.5877 41.1189 32.7655C38.5214 33.0284 36.0169 33.8977 33.7971 35.3068L33.7864 35.2881C29.1732 37.7365 26.2389 35.0229 26.2389 35.0229C25.7069 30.5145 29.1489 28.1588 32.2862 26.8679C35.4234 25.577 39.0745 25.0225 41.1189 28.2743Z" fill="#81F8F8"/>
<path d="M32.6501 60.6888C32.0826 60.6855 31.5346 60.476 31.1033 60.0975C30.672 59.719 30.3853 59.1959 30.2941 58.6211C30.2202 58.2753 30.2224 57.9169 30.3003 57.572C30.3783 57.2272 30.5301 56.9045 30.7448 56.6274C30.955 56.3555 31.2403 56.1552 31.5633 56.0525C31.8488 55.9271 32.1569 55.8649 32.4675 55.87C32.7781 55.8752 33.0841 55.9475 33.3655 56.0823C33.647 56.2171 33.8976 56.4113 34.1009 56.6523C34.3042 56.8932 34.4557 57.1755 34.5455 57.4807C35.0251 58.8785 34.0842 60.692 32.7063 60.692C32.6875 60.6926 32.6687 60.6916 32.6501 60.6888Z" fill="black"/>
<path d="M33.7902 35.2881L33.8009 35.3069C32.547 36.1422 31.502 37.2684 30.7502 38.5946L30.6993 38.5649C30.6993 38.5649 26.7716 39.5306 26.2358 35.0229C26.2381 35.0229 29.1725 37.7366 33.7902 35.2881Z" fill="black"/>
<path d="M52.2225 52.863C51.7888 52.5988 51.3159 52.4094 50.8226 52.3022C50.3634 52.1403 49.8704 52.1072 49.3945 52.2063" stroke="black" stroke-width="0.980065" stroke-linecap="round" stroke-linejoin="round"/>
<path d="M41.6011 50.9591C42.187 50.8893 42.7768 50.8601 43.3666 50.8717C43.8514 50.84 44.3359 50.9401 44.771 51.1619" stroke="black" stroke-width="0.980065" stroke-linecap="round" stroke-linejoin="round"/>
<path d="M48.9279 50.4177C48.3199 51.1696 48.4506 52.0557 48.6239 53.1259C48.7971 54.196 49.6263 55.4238 49.336 56.3754C49.0457 57.327 47.249 57.4915 46.2603 57.0727" stroke="black" stroke-width="0.980065" stroke-linecap="round" stroke-linejoin="round"/>
<path d="M41.8834 66.2284C40.4042 65.5199 39.0324 64.596 37.8105 63.4851" stroke="black" stroke-width="0.980065" stroke-linecap="round" stroke-linejoin="round"/>
<path d="M52.5685 59.3706C51.9932 60.2949 51.4232 61.0086 51.0553 61.6817C50.2528 63.1567 49.5034 65.0521 48.2752 66.1956C47.9472 66.5074 47.5683 66.7574 47.1558 66.9343C46.7657 67.0997 46.3489 67.1886 45.9268 67.1963C44.7735 67.1827 43.6324 66.9511 42.5608 66.5131C42.3526 66.4351 42.1421 66.3485 41.9346 66.2533" stroke="black" stroke-width="0.980065" stroke-linecap="round" stroke-linejoin="round"/>
<path d="M54.1627 51.1619C53.9864 51.5363 53.8374 51.7796 53.8374 51.7796C54.2952 53.2377 54.3406 54.7991 53.9681 56.2826C53.6406 57.3722 53.1688 58.4104 52.5659 59.3682" stroke="black" stroke-width="0.980065" stroke-linecap="round" stroke-linejoin="round"/>
<path d="M40.5483 48.9241C40.5483 48.9241 42.9097 47.7642 44.9677 48.4046C46.5797 48.9077 46.601 49.5036 46.601 49.5341" stroke="black" stroke-width="0.980065" stroke-linecap="round" stroke-linejoin="round"/>
<path d="M53.7947 49.7064C53.3181 49.5975 52.8279 49.5651 52.3416 49.6104C51.6187 49.6556 50.9005 49.7599 50.1938 49.9224" stroke="black" stroke-width="0.980065" stroke-linecap="round" stroke-linejoin="round"/>
<path d="M42.2705 58.4246C42.2705 58.4246 42.3465 58.5065 42.4673 58.6484C43.1166 59.3811 43.812 60.0692 44.549 60.7084C45.4496 61.4221 46.5455 61.9369 47.513 61.6382C48.4805 61.3394 50.3653 59.6008 50.3653 59.6008C50.1889 59.7025 50.003 59.7858 49.8105 59.8496C49.0694 60.0626 48.2952 60.1267 47.5305 60.0384C45.9491 59.7622 44.4026 59.3062 42.9195 58.6788C42.5996 58.5525 42.3761 58.4628 42.3017 58.4324" stroke="black" stroke-width="0.980065" stroke-linecap="round" stroke-linejoin="round"/>
<path d="M47.193 67.0217L47.0653 68.8571L47.0463 69.1472L46.9209 70.9443" stroke="black" stroke-width="0.980065" stroke-linecap="round" stroke-linejoin="round"/>
<path d="M34.0446 59.8004L33.4693 68.0123L23.3833 72.1697C28.4174 76.2584 34.6787 78.4263 41.0974 78.3028C52.0862 78.2069 55.6658 72.1806 55.6658 72.1806L47.0459 69.1495L47.0056 69.1386" stroke="black" stroke-width="0.980065" stroke-linecap="round" stroke-linejoin="round"/>
<path d="M32.4585 50.5543C32.4585 50.5543 30.6649 48.1417 29.2073 49.4248C29.0178 49.5971 28.855 49.798 28.7247 50.0207C26.9204 52.9699 29.2764 55.8707 30.6596 56.9471" stroke="black" stroke-width="0.980065" stroke-linecap="round" stroke-linejoin="round"/>
<path d="M32.4588 50.5543C38.6216 52.9996 40.9191 44.3556 41.6008 41.4868C41.6008 41.4868 48.0699 43.0624 50.0604 44.4079C50.2527 44.5366 50.4404 44.6762 50.6258 44.8213C52.553 46.3399 53.8435 48.5556 54.2343 51.0168C54.2343 51.0168 57.1717 48.6066 54.6371 41.0516C52.5045 34.6946 46.0012 32.2844 41.9846 32.6666C41.708 32.6939 41.4199 32.7243 41.1243 32.7648C38.5268 33.0276 36.0223 33.8969 33.8025 35.3061C31.902 36.558 30.5111 38.4777 29.89 40.706C28.2081 46.6176 29.1437 49.2486 29.2105 49.4241V49.4319" stroke="black" stroke-width="0.980065" stroke-linecap="round" stroke-linejoin="round"/>
<path d="M41.1053 32.7821L41.1213 32.7657C41.2892 32.5878 42.7682 30.9062 41.1213 28.2744C39.0769 25.0164 35.4281 25.5772 32.2885 26.8658C29.149 28.1543 25.7024 30.5123 26.2405 35.0199C26.7785 39.5275 30.7047 38.565 30.7047 38.565" stroke="black" stroke-width="0.980065" stroke-linecap="round" stroke-linejoin="round"/>
<path d="M31.5584 56.0501C31.2361 56.1536 30.9514 56.3535 30.7406 56.6242C30.5258 56.9014 30.3738 57.2242 30.2958 57.5692C30.2179 57.9142 30.2159 58.2727 30.2899 58.6187C30.381 59.1936 30.6677 59.7168 31.099 60.0953C31.5303 60.4739 32.0784 60.6833 32.6459 60.6864C32.6647 60.6877 32.6834 60.6877 32.7022 60.6864C34.0801 60.6864 35.0209 58.8729 34.5406 57.4752C34.451 57.1699 34.2996 56.8876 34.0962 56.6466C33.8929 56.4057 33.6422 56.2115 33.3606 56.077C33.079 55.9424 32.7728 55.8705 32.4623 55.8658C32.1517 55.8612 31.8437 55.924 31.5584 56.0501Z" stroke="black" stroke-width="0.980065" stroke-linecap="round" stroke-linejoin="round"/>
<path d="M50.7695 62.4454C51.177 62.7241 51.6578 62.8681 52.1474 62.858C53.526 62.858 54.4692 61.0445 53.9866 59.6468C53.8482 59.2056 53.5904 58.8139 53.2433 58.5173" stroke="black" stroke-width="0.980065" stroke-linecap="round" stroke-linejoin="round"/>
<path d="M42.4702 58.646C42.4702 58.646 42.6382 58.6569 42.9148 58.6788C44.0427 58.7568 46.9664 58.9822 47.4748 59.0945C48.1041 59.231 49.8095 59.8441 49.8095 59.8441" stroke="black" stroke-width="0.980065" stroke-linecap="round" stroke-linejoin="round"/>
<path d="M31.6782 51.5255C30.9455 51.1074 29.9401 50.8523 29.6847 52.5106C29.4742 53.8974 30.9129 55.5737 32.2322 56.0362" stroke="black" stroke-width="0.980065" stroke-linecap="round" stroke-linejoin="round"/>
<path d="M41.8838 66.2284C41.8838 66.2284 41.9028 66.237 41.9317 66.2534C42.3611 66.4827 45.5698 68.1784 47.0389 68.8547" stroke="black" stroke-width="0.980065" stroke-linecap="round" stroke-linejoin="round"/>
<path d="M26.2383 35.0229C26.2383 35.0229 29.1726 37.7389 33.7866 35.2881" stroke="black" stroke-width="0.980065" stroke-linecap="round" stroke-linejoin="round"/>
<path d="M23.3865 72.1697C23.3865 72.1697 13.4221 76.9706 11.63 81.4759C8.81802 88.5388 9.39333 110.739 9.17521 116.342C8.95709 121.945 10.0409 130.694 14.5165 132.599C14.8973 132.758 15.2942 132.874 15.6998 132.943C20.5053 133.838 29.1191 130.066 39.3221 126.362C50.428 122.333 52.5743 121.318 52.5743 121.318C52.5743 121.318 51.6759 120.549 51.2678 115.836C51.2412 115.557 51.2199 115.267 51.1986 114.96C51.078 112.602 51.4152 110.242 52.1904 108.018C52.1904 108.018 31.6431 113.821 26.982 115.226C22.3209 116.632 21.5769 116.824 21.5769 116.824" stroke="black" stroke-width="0.980065" stroke-linecap="round" stroke-linejoin="round"/>
<path d="M55.666 72.1782C55.666 72.1782 65.391 73.8739 67.9142 79.8152C70.4374 85.7565 71.2909 100.03 71.2909 100.03" stroke="black" stroke-width="0.980065" stroke-linecap="round" stroke-linejoin="round"/>
<path d="M53.9119 115.765C53.9039 117.111 53.7375 118.452 53.4164 119.758C53.2825 120.349 52.9897 120.89 52.5713 121.318" stroke="black" stroke-width="0.980065" stroke-linecap="round" stroke-linejoin="round"/>
<path d="M52.1909 108.014C52.1909 108.014 56.6681 106.319 60.4749 104.516C64.2818 102.714 65.2325 101.062 67.7192 100.76C68.8956 100.587 70.083 100.504 71.2715 100.512C72.0365 100.536 72.7986 100.619 73.5515 100.76C75.6795 101.135 78.8426 102.99 78.8426 102.99" stroke="black" stroke-width="0.980065" stroke-linecap="round" stroke-linejoin="round"/>
<path d="M51.2656 115.836L53.2416 115.329C53.466 115.458 53.7029 115.563 53.9484 115.641C54.8274 115.937 55.7688 115.979 56.6692 115.761C57.8662 115.474 59.3452 114.186 60.454 113.056C61.4139 112.077 62.104 111.215 62.104 111.215L64.4417 113.075L65.1713 113.658" stroke="black" stroke-width="0.980065" stroke-linecap="round" stroke-linejoin="round"/>
<path d="M65.8342 109.323C66.6613 110.368 67.3748 111.502 67.9622 112.706C68.1066 113.144 67.7889 113.538 67.2956 113.872C66.5638 114.307 65.7824 114.647 64.9693 114.886C64.0124 115.198 62.4932 115.778 62.3655 114.708C62.2378 113.638 64.3134 113.25 64.3134 113.25" stroke="black" stroke-width="0.980065" stroke-linecap="round" stroke-linejoin="round"/>
<path d="M70.7085 112.783C69.7314 113.546 68.5237 113.933 67.2969 113.875" stroke="black" stroke-width="0.980065" stroke-linecap="round" stroke-linejoin="round"/>
<path d="M68.9023 107.263C68.9023 107.263 70.8958 109.922 71.2583 111.218C71.3257 111.503 71.3113 111.802 71.217 112.079C71.1226 112.355 70.9522 112.598 70.7263 112.778" stroke="black" stroke-width="0.980065" stroke-linecap="round" stroke-linejoin="round"/>
<path d="M70.0508 103.315C70.0508 103.315 70.4239 103.778 70.9354 104.448C71.9614 105.785 73.5392 107.963 73.8135 108.991C73.8672 109.281 73.855 109.579 73.7778 109.863C73.7007 110.148 73.5608 110.41 73.3689 110.629C72.6226 111.506 71.723 112.233 70.7165 112.771L70.7089 112.776" stroke="black" stroke-width="0.980065" stroke-linecap="round" stroke-linejoin="round"/>
<path d="M41.6011 41.4641C41.6011 41.2785 41.7082 39.993 44.7733 40.9181C47.0005 41.7176 49.0077 43.0552 50.6253 44.8181C50.63 44.8249 50.6354 44.8311 50.6413 44.8368" stroke="black" stroke-width="0.980065" stroke-linecap="round" stroke-linejoin="round"/>
<path d="M36.0039 36.1578C36.0039 36.1578 41.4675 36.5377 41.5983 41.4618V41.4845" stroke="black" stroke-width="0.980065" stroke-linecap="round" stroke-linejoin="round"/>
<path d="M70.9351 104.448C70.9351 104.448 73.0562 103.909 74.1521 103.674C74.1521 103.674 76.3987 104.615 77.4961 105.039" stroke="black" stroke-width="0.980065" stroke-linecap="round" stroke-linejoin="round"/>
<path d="M60.4575 89.7391C60.4575 89.7391 63.968 93.4652 64.0105 97.0212C64.1048 99.3063 63.5301 101.568 62.3606 103.515" stroke="black" stroke-width="0.980065" stroke-linecap="round" stroke-linejoin="round"/>
<path d="M47.2419 95.4153C47.8591 96.9665 48.1152 98.6441 47.9899 100.315C47.8646 101.985 47.3612 103.603 46.5199 105.039C45.6813 106.645 44.3619 107.932 42.7563 108.71" stroke="black" stroke-width="0.980065" stroke-linecap="round" stroke-linejoin="round"/>
<path d="M22.4214 114.306C22.4214 114.306 25.3778 113.505 26.9814 115.226L27.3173 101.669L31.1074 99.5243" stroke="black" stroke-width="0.980065" stroke-linecap="round" stroke-linejoin="round"/>
<path d="M27.8582 96.8839L27.3179 101.666" stroke="black" stroke-width="0.980065" stroke-linecap="round" stroke-linejoin="round"/>
<path d="M60.4582 113.057C60.4582 113.057 61.583 117.659 60.0075 119.788H53.6509" stroke="black" stroke-width="0.980065" stroke-linecap="round" stroke-linejoin="round"/>
<path d="M60.0103 119.788C60.0103 119.788 61.49 122.094 63.4835 125.929C66.6101 131.944 71.0075 141.729 72.9561 152.293L72.9637 152.34" stroke="black" stroke-width="0.980065" stroke-linecap="round" stroke-linejoin="round"/>
<path d="M15.6756 133.077C12.9414 139.233 10.9042 145.691 9.604 152.323V152.343" stroke="black" stroke-width="0.980065" stroke-linecap="round" stroke-linejoin="round"/>
<path d="M9.69531 152.34H72.732" stroke="black" stroke-width="0.980065" stroke-linecap="round" stroke-linejoin="round"/>
<path d="M89.2748 114.905C89.5369 115.035 89.8357 115.066 90.1176 114.99C91.5616 114.648 95.1731 113.801 95.864 113.535C96.5548 113.269 96.5434 110.879 94.8934 111.149C94.7232 111.177 94.534 111.215 94.3341 111.256C92.6013 111.625 89.9261 112.496 89.1152 113.122C88.9727 113.228 88.8596 113.37 88.7869 113.535C88.7142 113.699 88.6844 113.88 88.7005 114.06C88.7166 114.24 88.778 114.412 88.8787 114.561C88.9794 114.709 89.1159 114.827 89.2748 114.905Z" stroke="black" stroke-width="0.980065" stroke-linecap="round" stroke-linejoin="round"/>
<path d="M87.0898 117.906C88.1956 117.802 91.6126 117.296 93.907 116.952C94.9893 116.79 95.8207 116.662 96.0533 116.626C97.156 116.453 97.8522 113.866 95.864 113.538" stroke="black" stroke-width="0.980065" stroke-linecap="round" stroke-linejoin="round"/>
<path d="M89.2702 114.925C88.2451 115.127 87.245 115.446 86.288 115.874C86.07 116.004 85.9035 116.208 85.8176 116.451C85.7317 116.694 85.732 116.961 85.8184 117.204C85.9048 117.447 86.0718 117.651 86.2901 117.78C86.5084 117.91 86.764 117.956 87.0123 117.911C87.0366 117.911 87.0609 117.911 87.0883 117.906" stroke="black" stroke-width="0.980065" stroke-linecap="round" stroke-linejoin="round"/>
<path d="M88.5933 120.02C89.8723 119.991 91.501 119.916 92.6973 119.864C92.9207 119.856 93.1259 119.842 93.3151 119.837C93.7765 119.812 94.1177 119.793 94.2613 119.788C94.4861 119.779 94.7036 119.704 94.8876 119.572C95.1214 119.375 95.2888 119.107 95.3661 118.807C95.4434 118.507 95.4265 118.189 95.318 117.9C95.2095 117.61 95.0148 117.363 94.7615 117.193C94.5082 117.023 94.2093 116.94 93.9072 116.954" stroke="black" stroke-width="0.980065" stroke-linecap="round" stroke-linejoin="round"/>
<path d="M88.4888 120.02H88.5744" stroke="black" stroke-width="0.980065" stroke-linecap="round" stroke-linejoin="round"/>
<path d="M87.0899 117.906H87.0846C86.8661 117.953 86.6533 118.025 86.45 118.119C86.2311 118.204 86.0498 118.368 85.9403 118.58C85.8308 118.792 85.8005 119.038 85.8552 119.272C85.9099 119.505 86.0458 119.71 86.2373 119.848C86.4289 119.986 86.6628 120.047 86.8953 120.02C87.2282 120.04 87.7822 120.037 88.4465 120.02" stroke="black" stroke-width="0.980065" stroke-linecap="round" stroke-linejoin="round"/>
<path d="M88.5931 120.02C88.5868 120.019 88.5804 120.019 88.5741 120.02C88.5458 120.018 88.5173 120.018 88.489 120.02C88.4739 120.018 88.4585 120.018 88.4434 120.02C88.2366 120.044 88.0328 120.089 87.8354 120.157C87.6533 120.213 87.4946 120.33 87.3844 120.489C87.2743 120.648 87.219 120.84 87.2274 121.035C87.2513 121.269 87.3577 121.486 87.5266 121.645C87.6956 121.805 87.9154 121.895 88.1447 121.899C89.0453 122.001 90.3571 121.957 92.0572 121.973C92.7556 121.979 93.2884 121.981 93.4753 121.981C93.6798 121.987 93.8813 121.93 94.0537 121.817C94.8715 121.287 94.8532 120.05 93.318 119.831C93.3128 119.83 93.3073 119.83 93.3021 119.831" stroke="black" stroke-width="0.980065" stroke-linecap="round" stroke-linejoin="round"/>
<path d="M87.055 121.046L86.6978 121.53C86.5913 121.673 86.4545 121.788 86.2978 121.867C86.1411 121.946 85.9688 121.987 85.7941 121.987H68.2062C67.9271 121.988 67.6535 121.908 67.4163 121.757C67.1791 121.606 66.9877 121.39 66.8637 121.134C66.7398 120.877 66.6882 120.59 66.7148 120.305C66.7415 120.02 66.8453 119.748 67.0145 119.52L73.5315 110.761L77.6842 105.184L79.1419 103.222L86.7753 92.9675C87.0799 92.5574 87.4726 92.2249 87.9229 91.9961C88.3733 91.7673 88.869 91.6484 89.3715 91.6486H105.907C106.186 91.6487 106.459 91.7287 106.696 91.8797C106.933 92.0307 107.124 92.2465 107.248 92.503C107.372 92.7595 107.423 93.0464 107.397 93.3313C107.37 93.6163 107.267 93.8879 107.098 94.1157L94.3396 111.262" stroke="black" stroke-width="0.980065" stroke-linecap="round" stroke-linejoin="round"/>
<path d="M88.6944 93.5884L68.689 120.472" stroke="black" stroke-width="0.980065" stroke-linecap="round" stroke-linejoin="round"/>
<path d="M90.7248 108.239C89.2808 110.017 87.3375 110.791 86.3807 109.976C85.4238 109.161 85.8205 107.054 87.263 105.277C88.7055 103.499 90.6503 102.727 91.6041 103.545C92.5579 104.363 92.1665 106.464 90.7248 108.239Z" stroke="black" stroke-width="0.980065" stroke-linecap="round" stroke-linejoin="round"/>
<path d="M88.9927 64.308V73.1025H82.5479L93.7981 87.4553L105.051 73.1025H98.6059V64.308V58.9549V55.8942V54.5892H88.9927V64.308Z" stroke="black" stroke-width="0.980065" stroke-linecap="round" stroke-linejoin="round"/>
<path d="M142.693 75.3567V78.8254H120.264V75.3567V69.4724V55.806H142.693V69.9482V75.3567Z" stroke="black" stroke-width="0.980065" stroke-linecap="round" stroke-linejoin="round"/>
<path d="M49.7275 10.0184H68.4243V29.2072H49.7275V10.0184Z" stroke="black" stroke-width="0.980065" stroke-linecap="round" stroke-linejoin="round"/>
<path d="M120.264 75.3567H127.047H142.693" stroke="black" stroke-width="0.980065" stroke-linecap="round" stroke-linejoin="round"/>
<path d="M127.047 75.3567C127.739 73.6731 128.526 72.0323 129.403 70.4427C130.792 67.9397 132.666 65.1769 134.665 64.0147C138.729 61.6427 142.69 69.9505 142.69 69.9505" stroke="black" stroke-width="0.980065" stroke-linecap="round" stroke-linejoin="round"/>
<path d="M120.264 69.4725C120.264 69.4725 122.141 65.8564 124.774 65.7745C127.407 65.6926 129.403 70.4436 129.403 70.4436" stroke="black" stroke-width="0.980065" stroke-linecap="round" stroke-linejoin="round"/>
<path d="M128.807 61.1241C128.807 61.4075 128.862 61.6882 128.967 61.95C129.073 62.2119 129.228 62.4498 129.423 62.6502C129.618 62.8506 129.85 63.0096 130.105 63.1181C130.36 63.2265 130.634 63.2823 130.91 63.2823C131.186 63.2823 131.46 63.2265 131.715 63.1181C131.97 63.0096 132.202 62.8506 132.397 62.6502C132.592 62.4498 132.747 62.2119 132.853 61.95C132.959 61.6882 133.013 61.4075 133.013 61.1241C133.013 60.8407 132.959 60.56 132.853 60.2981C132.747 60.0363 132.592 59.7984 132.397 59.598C132.202 59.3976 131.97 59.2386 131.715 59.1301C131.46 59.0216 131.186 58.9658 130.91 58.9658C130.634 58.9658 130.36 59.0216 130.105 59.1301C129.85 59.2386 129.618 59.3976 129.423 59.598C129.228 59.7984 129.073 60.0363 128.967 60.2981C128.862 60.56 128.807 60.8407 128.807 61.1241Z" stroke="black" stroke-width="0.980065" stroke-linecap="round" stroke-linejoin="round"/>
<path d="M137.243 33.2968V35.7421H134.199H114.684H111.813V33.2968V30.6237V27.9545V25.2815V22.6123V19.9393V17.267V14.597V11.9248V9.25794V6.58488V4.1427H114.684H134.199H137.243V6.58488V9.25794V11.9248V14.597V17.267V19.9393V22.6123V25.2815V27.9545V30.6237V33.2968Z" stroke="black" stroke-width="0.980065" stroke-linecap="round" stroke-linejoin="round"/>
<path d="M114.683 4.1427V6.58488V9.25794V11.9248V14.597V17.267V19.9393V22.6123V25.2815V27.9545V30.6237V33.2968V35.7421" stroke="black" stroke-width="0.980065" stroke-linecap="round" stroke-linejoin="round"/>
<path d="M111.813 19.9392H114.684H134.199" stroke="black" stroke-width="0.980065" stroke-linecap="round" stroke-linejoin="round"/>
<path d="M111.813 22.6124H114.684" stroke="black" stroke-width="0.980065" stroke-linecap="round" stroke-linejoin="round"/>
<path d="M111.813 17.267H114.684" stroke="black" stroke-width="0.980065" stroke-linecap="round" stroke-linejoin="round"/>
<path d="M111.813 14.5972H114.684" stroke="black" stroke-width="0.980065" stroke-linecap="round" stroke-linejoin="round"/>
<path d="M111.813 11.9248H114.684" stroke="black" stroke-width="0.980065" stroke-linecap="round" stroke-linejoin="round"/>
<path d="M111.813 9.25793H114.684" stroke="black" stroke-width="0.980065" stroke-linecap="round" stroke-linejoin="round"/>
<path d="M111.813 33.2969H114.684" stroke="black" stroke-width="0.980065" stroke-linecap="round" stroke-linejoin="round"/>
<path d="M111.813 30.6237H114.684" stroke="black" stroke-width="0.980065" stroke-linecap="round" stroke-linejoin="round"/>
<path d="M111.813 27.9546H114.684" stroke="black" stroke-width="0.980065" stroke-linecap="round" stroke-linejoin="round"/>
<path d="M111.813 25.2815H114.684" stroke="black" stroke-width="0.980065" stroke-linecap="round" stroke-linejoin="round"/>
<path d="M111.813 6.58496H114.684" stroke="black" stroke-width="0.980065" stroke-linecap="round" stroke-linejoin="round"/>
<path d="M134.198 35.7421V33.2968V30.6237V27.9545V25.2815V22.6123V19.9393V17.267V14.597V11.9248V9.25794V6.58488V4.1427" stroke="black" stroke-width="0.980065" stroke-linecap="round" stroke-linejoin="round"/>
<path d="M137.063 19.9392H135.505H134.198" stroke="black" stroke-width="0.980065" stroke-linecap="round" stroke-linejoin="round"/>
<path d="M137.063 17.267H134.198" stroke="black" stroke-width="0.980065" stroke-linecap="round" stroke-linejoin="round"/>
<path d="M137.063 22.6124H134.198" stroke="black" stroke-width="0.980065" stroke-linecap="round" stroke-linejoin="round"/>
<path d="M137.063 25.2815H134.198" stroke="black" stroke-width="0.980065" stroke-linecap="round" stroke-linejoin="round"/>
<path d="M137.063 27.9546H134.198" stroke="black" stroke-width="0.980065" stroke-linecap="round" stroke-linejoin="round"/>
<path d="M137.063 30.6237H134.198" stroke="black" stroke-width="0.980065" stroke-linecap="round" stroke-linejoin="round"/>
<path d="M137.063 6.58496H134.198" stroke="black" stroke-width="0.980065" stroke-linecap="round" stroke-linejoin="round"/>
<path d="M137.063 9.25793H134.198" stroke="black" stroke-width="0.980065" stroke-linecap="round" stroke-linejoin="round"/>
<path d="M137.063 11.9248H134.198" stroke="black" stroke-width="0.980065" stroke-linecap="round" stroke-linejoin="round"/>
<path d="M137.063 14.5972H134.198" stroke="black" stroke-width="0.980065" stroke-linecap="round" stroke-linejoin="round"/>
<path d="M137.063 33.2969H134.198" stroke="black" stroke-width="0.980065" stroke-linecap="round" stroke-linejoin="round"/>
<path d="M88.9926 64.3081H81.6465V57.2179V32.9435H99.6136L106.522 41.536V64.3081H98.8483" stroke="black" stroke-width="0.980065" stroke-linecap="round" stroke-linejoin="round"/>
<path d="M99.6138 32.9192V25.8531H74.7383V57.2177H81.6467" stroke="black" stroke-width="0.980065" stroke-linecap="round" stroke-linejoin="round"/>
<path d="M99.6138 32.9192V32.9434V41.5358H106.522" stroke="black" stroke-width="0.980065" stroke-linecap="round" stroke-linejoin="round"/>
<path d="M55.2471 20.7412V14.764H63.9734V20.8395" stroke="black" stroke-width="0.980065" stroke-linecap="round" stroke-linejoin="round"/>
<path d="M63.9739 20.8393C63.7025 20.6864 63.3981 20.606 63.0885 20.6053C62.5995 20.6155 62.1338 20.822 61.7914 21.1805C61.4491 21.539 61.2573 22.021 61.2573 22.523C61.2573 23.025 61.4491 23.507 61.7914 23.8655C62.1338 24.224 62.5995 24.4305 63.0885 24.4406C63.3981 24.4404 63.7027 24.3599 63.9739 24.2066V20.8393Z" stroke="black" stroke-width="0.980065" stroke-linecap="round" stroke-linejoin="round"/>
<path d="M55.2471 20.7411C54.9914 20.6384 54.7167 20.5948 54.4427 20.6135C54.1687 20.6322 53.9021 20.7126 53.6619 20.8492C53.4217 20.9857 53.2137 21.175 53.0529 21.4034C52.8921 21.6319 52.7823 21.8939 52.7315 22.1709C52.6807 22.4478 52.69 22.7329 52.7587 23.0058C52.8275 23.2786 52.9541 23.5325 53.1295 23.7494C53.3048 23.9663 53.5246 24.1409 53.7732 24.2606C54.0218 24.3803 54.2931 24.4423 54.5677 24.4422C54.8001 24.4415 55.0305 24.3968 55.2471 24.3104V20.7411Z" stroke="black" stroke-width="0.980065" stroke-linecap="round" stroke-linejoin="round"/>
<path d="M85.5088 46.7081H102.654" stroke="black" stroke-width="0.980065" stroke-linecap="round" stroke-linejoin="round"/>
<path d="M85.5088 49.772H102.654" stroke="black" stroke-width="0.980065" stroke-linecap="round" stroke-linejoin="round"/>
<path d="M85.5088 52.8326H102.654" stroke="black" stroke-width="0.980065" stroke-linecap="round" stroke-linejoin="round"/>
<path d="M98.606 55.8942H102.654" stroke="black" stroke-width="0.980065" stroke-linecap="round" stroke-linejoin="round"/>
<path d="M85.5088 55.8942H88.7874" stroke="black" stroke-width="0.980065" stroke-linecap="round" stroke-linejoin="round"/>
<path d="M98.606 58.955H102.654" stroke="black" stroke-width="0.980065" stroke-linecap="round" stroke-linejoin="round"/>
<path d="M85.5088 58.955H88.7874" stroke="black" stroke-width="0.980065" stroke-linecap="round" stroke-linejoin="round"/>
<path d="M85.5088 43.6473H102.654" stroke="black" stroke-width="0.980065" stroke-linecap="round" stroke-linejoin="round"/>
<path d="M85.5088 40.5867H99.3735" stroke="black" stroke-width="0.980065" stroke-linecap="round" stroke-linejoin="round"/>
<path d="M63.4771 125.929C63.4771 125.929 72.9603 124.824 85.7914 121.988" stroke="black" stroke-width="0.980065" stroke-linecap="round" stroke-linejoin="round"/>
<path d="M121.443 46.0411L119.089 49.2547" stroke="black" stroke-width="0.980065" stroke-linecap="round" stroke-linejoin="round"/>
<path d="M121.832 48.8554L118.7 46.4406" stroke="black" stroke-width="0.980065" stroke-linecap="round" stroke-linejoin="round"/>
<path d="M88.6806 12.9918L86.3276 16.2054" stroke="black" stroke-width="0.980065" stroke-linecap="round" stroke-linejoin="round"/>
<path d="M89.0692 15.806L85.938 13.3911" stroke="black" stroke-width="0.980065" stroke-linecap="round" stroke-linejoin="round"/>
<path d="M66.6949 63.2496L64.3389 66.4664" stroke="black" stroke-width="0.980065" stroke-linecap="round" stroke-linejoin="round"/>
<path d="M67.0835 66.0669L63.9492 63.6489" stroke="black" stroke-width="0.980065" stroke-linecap="round" stroke-linejoin="round"/>
</svg>
