<svg width="153" height="158" viewBox="0 0 153 158" fill="none" xmlns="http://www.w3.org/2000/svg">
<path d="M120.385 114.937L96.2573 26.4067C96.2011 26.2034 96.0027 26.0817 95.8005 26.132L27.7601 43.4271C27.6598 43.4522 27.5747 43.5182 27.523 43.6092C27.4713 43.7011 27.4576 43.8102 27.485 43.913L51.7579 134.548C51.8141 134.759 52.0261 134.879 52.2253 134.821L120.121 115.422C120.219 115.394 120.301 115.329 120.351 115.238C120.4 115.148 120.413 115.038 120.386 114.937H120.385Z" fill="black"/>
<path d="M120.786 115.565L51.2274 127.075L36.8262 34.2206L94.2638 24.7166L96.0354 36.1399L108.157 34.1343L120.786 115.565Z" fill="white"/>
<path d="M46.9788 56.7807C46.3594 56.7807 45.838 56.3207 45.7392 55.6872L45.7142 55.5224C45.6815 55.3089 45.8228 55.1079 46.0303 55.0734C46.2302 55.042 46.4324 55.1856 46.465 55.3999L46.4901 55.564C46.5334 55.8419 46.785 56.0326 47.0609 55.9887L48.5459 55.743C48.7458 55.7116 48.948 55.8544 48.9814 56.0687C49.0141 56.2822 48.8727 56.484 48.666 56.5185C47.2699 56.7501 47.1376 56.7807 46.9788 56.7807ZM51.6133 56.0263C51.1482 56.0263 51.095 55.3222 51.554 55.2461L54.5613 54.7491C55.0606 54.6691 55.1762 55.4431 54.6814 55.5247C52.1324 55.9478 51.6642 56.0263 51.6133 56.0263ZM57.6272 55.0325C57.162 55.0325 57.1088 54.3284 57.5679 54.2522L60.5752 53.7546C60.7743 53.7232 60.9772 53.866 61.0107 54.0803C61.0434 54.2938 60.902 54.4956 60.6953 54.5301C58.1409 54.954 57.6788 55.0325 57.6272 55.0325ZM63.6418 54.0379C63.1767 54.0379 63.1235 53.3338 63.5825 53.2576L66.5898 52.7607C66.7996 52.727 66.9911 52.873 67.0253 53.0865C67.058 53.3 66.9166 53.5018 66.7099 53.5363C64.1609 53.9594 63.6927 54.0379 63.6418 54.0379ZM46.5486 53.1109C46.079 53.1109 46.0318 52.3996 46.4924 52.3306L49.4952 51.8337C49.7019 51.8007 49.8972 51.9451 49.9306 52.1594C49.9633 52.373 49.822 52.5755 49.6152 52.6092C49.5719 52.6163 46.5927 53.1109 46.5486 53.1109ZM69.6557 53.0441C69.1906 53.0441 69.1374 52.34 69.5964 52.2638L72.6037 51.7661C72.8028 51.7347 73.005 51.8776 73.0392 52.0919C73.0719 52.3054 72.9305 52.5072 72.7238 52.5417C70.1694 52.9656 69.7074 53.0441 69.6557 53.0441ZM52.5618 52.1163C52.0966 52.1163 52.0434 51.4121 52.5025 51.336L55.5098 50.8391C56.0144 50.7653 56.1208 51.5338 55.6299 51.6146C53.0808 52.0378 52.6127 52.1163 52.5618 52.1163ZM75.6703 52.0495C75.2052 52.0495 75.152 51.3454 75.611 51.2692L78.6184 50.7723C78.8274 50.7386 79.0196 50.8846 79.0538 51.0981C79.0865 51.3116 78.9452 51.5134 78.7384 51.5479C76.1894 51.971 75.7212 52.0495 75.6703 52.0495ZM58.5764 51.1224C58.1113 51.1224 58.0581 50.4183 58.5171 50.3422L61.5237 49.8453C61.7304 49.8123 61.9257 49.9567 61.9592 50.171C61.9918 50.3845 61.8505 50.5863 61.6438 50.6208C59.0848 51.0455 58.6273 51.1224 58.5764 51.1224ZM81.6842 51.0549C81.2191 51.0549 81.1659 50.3508 81.6249 50.2746L84.6322 49.7777C84.8382 49.7463 85.0335 49.8892 85.0677 50.1035C85.1004 50.317 84.959 50.5188 84.7523 50.5533C82.2033 50.9764 81.7351 51.0549 81.6842 51.0549ZM64.5903 50.1279C64.1252 50.1279 64.072 49.4237 64.531 49.3476L67.5383 48.8507C68.0422 48.7769 68.1494 49.5454 67.6584 49.6262C65.1094 50.0494 64.6412 50.1279 64.5903 50.1279ZM87.6988 50.0611C87.2337 50.0611 87.1805 49.357 87.6396 49.2808L90.6469 48.7839C90.8559 48.7502 91.0482 48.8962 91.0824 49.1097C91.115 49.3232 90.9737 49.525 90.767 49.5595C88.2179 49.9826 87.7498 50.0611 87.6988 50.0611ZM70.6049 49.134C70.1398 49.134 70.0866 48.4299 70.5456 48.3538L73.5522 47.8561C73.7513 47.8247 73.9542 47.9675 73.9877 48.1818C74.0204 48.3954 73.879 48.5971 73.6723 48.6316C71.1187 49.0555 70.6566 49.134 70.6049 49.134ZM93.7127 49.0665C93.2476 49.0665 93.1944 48.3624 93.6534 48.2862L96.8766 47.7548C97.0788 47.725 97.2779 47.8686 97.309 48.0829C97.341 48.2964 97.1988 48.4966 96.9921 48.5304C94.4423 48.9488 93.7636 49.0665 93.7127 49.0665ZM76.6188 48.1394C76.1537 48.1394 76.1005 47.4353 76.5595 47.3592L79.5668 46.8623C79.7766 46.8285 79.9681 46.9745 80.0023 47.188C80.035 47.4015 79.8936 47.6033 79.6869 47.6378C77.1379 48.0609 76.6697 48.1394 76.6188 48.1394ZM82.6334 47.1456C82.1683 47.1456 82.1151 46.4415 82.5742 46.3653L85.5807 45.8677C85.7798 45.8363 85.9828 45.9791 86.0162 46.1934C86.0489 46.407 85.9075 46.6087 85.7008 46.6432C83.1472 47.0671 82.6851 47.1456 82.6334 47.1456ZM88.6473 46.151C88.1822 46.151 88.129 45.4469 88.588 45.3708L91.5954 44.8738C92.0947 44.7938 92.2102 45.5678 91.7154 45.6494C89.1664 46.0725 88.6982 46.151 88.6473 46.151ZM97.1821 45.8213C96.999 45.8213 96.8371 45.6832 96.8074 45.4901L96.7831 45.3307C96.7406 45.056 96.4799 44.8597 96.2116 44.906L94.722 45.1517C94.2136 45.2232 94.114 44.457 94.6019 44.3762L96.093 44.1305C96.8059 44.0174 97.4246 44.5065 97.534 45.2075L97.5583 45.3676C97.5948 45.6039 97.4185 45.8213 97.1821 45.8213Z" fill="black"/>
<path d="M48.659 67.609C48.0389 67.609 47.5167 67.149 47.4179 66.5155L47.3982 66.3844C47.364 66.1709 47.5053 65.9692 47.712 65.9346C47.9134 65.8954 48.1141 66.0437 48.1475 66.2588L48.1681 66.3907C48.2121 66.6694 48.4606 66.8648 48.7396 66.8177L50.2877 66.5626C50.7878 66.4833 50.9025 67.2566 50.4078 67.3382C48.6864 67.6232 48.8118 67.609 48.6582 67.609H48.659ZM53.3862 66.8413C52.9211 66.8413 52.8679 66.1371 53.3269 66.061L56.3654 65.5602C56.5714 65.5288 56.7674 65.6716 56.8009 65.8859C56.8336 66.1003 56.6922 66.302 56.4855 66.3357C53.9326 66.7589 53.4371 66.8413 53.3862 66.8413ZM59.4632 65.8404C58.998 65.8404 58.9449 65.1363 59.4039 65.0601L62.4424 64.5585C62.6491 64.5255 62.8444 64.67 62.8779 64.8843C62.9105 65.0978 62.7692 65.3003 62.5624 65.3341C60.0149 65.7564 59.5141 65.8404 59.4632 65.8404ZM65.5401 64.8388C65.075 64.8388 65.0218 64.1346 65.4808 64.0585L68.5193 63.5568C69.0217 63.4807 69.1319 64.2508 68.6394 64.3324C66.0919 64.7548 65.591 64.8388 65.5401 64.8388ZM48.2919 63.9352C47.7432 63.9352 47.7675 63.1549 48.2273 63.1549L51.2058 62.6596C51.4117 62.6274 51.607 62.7711 51.6412 62.9854C51.6739 63.1997 51.5326 63.4006 51.3258 63.4352L48.2919 63.9352ZM71.6171 63.8371C71.152 63.8371 71.0988 63.1329 71.5578 63.0568L74.5963 62.5552C74.8053 62.5222 74.9976 62.6667 75.0318 62.881C75.0644 63.0945 74.9231 63.297 74.7164 63.3308C72.1688 63.7531 71.668 63.8371 71.6171 63.8371ZM54.3028 62.9383C53.8376 62.9383 53.7844 62.2341 54.2435 62.158L57.282 61.6572C57.4902 61.6234 57.684 61.7694 57.7174 61.9829C57.7501 62.1972 57.6088 62.399 57.402 62.4327C54.8492 62.8558 54.3537 62.9383 54.3028 62.9383ZM77.694 62.8347C77.2289 62.8347 77.1757 62.1305 77.6348 62.0544L80.6725 61.5535C81.1756 61.479 81.2843 62.2475 80.7926 62.3291C78.245 62.7514 77.745 62.8347 77.694 62.8347ZM60.3797 61.9358C59.9146 61.9358 59.8614 61.2317 60.3205 61.1555L63.3589 60.6547C63.8605 60.5793 63.9723 61.3486 63.479 61.4303C60.9262 61.8534 60.4306 61.9358 60.3797 61.9358ZM83.7702 61.8322C83.3051 61.8322 83.2519 61.1281 83.711 61.0519L86.7494 60.5511C87.2495 60.4734 87.3635 61.245 86.8695 61.3267C84.3167 61.7498 83.8212 61.8322 83.7702 61.8322ZM66.4567 60.9334C65.9916 60.9334 65.9384 60.2292 66.3974 60.1531L69.4359 59.6523C69.936 59.5738 70.0507 60.3462 69.556 60.4278C67.0031 60.851 66.5076 60.9334 66.4567 60.9334ZM89.8472 60.8298C89.3821 60.8298 89.3289 60.1256 89.7879 60.0495L92.8264 59.5486C93.0324 59.518 93.2284 59.6601 93.2619 59.8744C93.2946 60.0887 93.1532 60.2905 92.9465 60.3242C90.3936 60.7473 89.8981 60.8298 89.8472 60.8298ZM72.5337 59.9317C72.0685 59.9317 72.0153 59.2276 72.4744 59.1514L75.5128 58.6498C76.0182 58.5768 76.1231 59.3445 75.6329 59.4254C73.0854 59.8477 72.5846 59.9317 72.5337 59.9317ZM95.9242 59.8273C95.4591 59.8273 95.4058 59.1232 95.8649 59.047L99.1192 58.5117C99.3237 58.4826 99.5197 58.6263 99.5517 58.8398C99.5836 59.0533 99.4414 59.2535 99.2347 59.2872C96.6918 59.7033 95.9751 59.8273 95.9242 59.8273ZM78.6106 58.9293C78.1455 58.9293 78.0923 58.2251 78.5513 58.149L81.5898 57.6474C82.0929 57.5712 82.2016 58.3413 81.7099 58.4229C79.1624 58.8453 78.6615 58.9293 78.6106 58.9293ZM84.6876 57.9276C84.2224 57.9276 84.1692 57.2235 84.6283 57.1473L87.6668 56.6457C87.8727 56.612 88.0688 56.7572 88.1023 56.9715C88.1349 57.185 87.9936 57.3875 87.7868 57.4213C85.2393 57.8436 84.7385 57.9276 84.6876 57.9276ZM90.7645 56.926C90.2994 56.926 90.2462 56.2218 90.7052 56.1457L93.743 55.6448C94.2438 55.5679 94.357 56.3388 93.863 56.4204C91.3155 56.8427 90.8154 56.926 90.7645 56.926ZM99.4209 56.5468C99.2385 56.5468 99.0774 56.4094 99.047 56.2171L99.0273 56.0899C98.9832 55.812 98.7293 55.6166 98.4557 55.6637L96.9023 55.9196C96.3999 55.9949 96.2897 55.2256 96.7822 55.144L98.3364 54.8881C98.8053 54.8119 99.6284 55.0106 99.7971 56.0915C99.8344 56.3309 99.6558 56.5468 99.4217 56.5468H99.4209Z" fill="black"/>
<path d="M51.9732 78.1798C51.5081 78.1798 51.4549 77.4757 51.9139 77.3995L54.9251 76.901C55.1257 76.8681 55.3271 77.0125 55.3605 77.2268C55.3932 77.4403 55.2519 77.6421 55.0451 77.6766C52.4931 78.1005 52.0249 78.1798 51.9732 78.1798ZM49.4485 77.5157C49.2653 77.5157 49.1042 77.3783 49.0738 77.1852L48.8078 75.4755C48.6171 74.2108 50.1591 73.5577 50.2815 74.3113C50.3157 74.5248 50.1758 74.7274 49.9691 74.7627C49.697 74.809 49.5146 75.0728 49.5587 75.3522L49.8247 77.0612C49.8604 77.2951 49.6879 77.5157 49.4485 77.5157ZM57.9962 77.1836C57.5311 77.1836 57.4779 76.4795 57.9369 76.4034L60.9481 75.9057C61.4466 75.8256 61.5629 76.5996 61.0681 76.6812C58.5161 77.1044 58.0479 77.1836 57.9962 77.1836ZM64.0192 76.1875C63.5541 76.1875 63.5009 75.4833 63.9599 75.4072L66.9711 74.9095C67.4727 74.8302 67.5844 75.6034 67.0911 75.6851C64.5391 76.1082 64.0709 76.1875 64.0192 76.1875ZM70.0415 75.1913C69.5763 75.1913 69.5231 74.4872 69.9822 74.411L72.9941 73.9133C73.2023 73.8796 73.3961 74.0256 73.4295 74.2391C73.4622 74.4526 73.3209 74.6544 73.1141 74.6889C70.5613 75.1128 70.0931 75.1913 70.0415 75.1913ZM52.9179 74.2705C52.4528 74.2705 52.3996 73.5664 52.8586 73.4902L55.8697 72.9917C56.0757 72.9611 56.271 73.1032 56.3052 73.3175C56.3379 73.531 56.1965 73.7328 55.9898 73.7673C53.4377 74.1912 52.9696 74.2705 52.9179 74.2705ZM76.0645 74.1959C75.5993 74.1959 75.5461 73.4918 76.0052 73.4156L79.0171 72.9172C79.2207 72.8834 79.4183 73.0294 79.4525 73.2429C79.4852 73.4565 79.3439 73.6582 79.1371 73.6927C76.5843 74.1166 76.1161 74.1959 76.0645 74.1959ZM58.9409 73.2743C58.4758 73.2743 58.4226 72.5702 58.8816 72.4941L61.8927 71.9956C62.0934 71.965 62.2948 72.107 62.3282 72.3214C62.3609 72.5349 62.2195 72.7366 62.0128 72.7712C59.4607 73.1951 58.9926 73.2743 58.9409 73.2743ZM82.0875 73.1998C81.6223 73.1998 81.5691 72.4956 82.0282 72.4195L85.0393 71.9218C85.246 71.8912 85.4413 72.0333 85.4748 72.2476C85.5075 72.4611 85.3661 72.6628 85.1594 72.6974C82.6073 73.1205 82.1391 73.1998 82.0875 73.1998ZM64.9639 72.2782C64.4988 72.2782 64.4456 71.574 64.9046 71.4979L67.9157 70.9994C68.1194 70.9688 68.317 71.1109 68.3512 71.3252C68.3839 71.5387 68.2425 71.7405 68.0358 71.775C65.4837 72.1989 65.0156 72.2782 64.9639 72.2782ZM88.1105 72.2036C87.6453 72.2036 87.5921 71.4995 88.0512 71.4233L91.0623 70.9256C91.5662 70.8518 91.6733 71.6203 91.1824 71.7012C88.6303 72.1243 88.1621 72.2036 88.1105 72.2036ZM70.9861 71.282C70.521 71.282 70.4678 70.5779 70.9269 70.5017L73.9387 70.0032C74.1447 69.9726 74.34 70.1147 74.3742 70.329C74.4069 70.5425 74.2655 70.7443 74.0588 70.7788C71.506 71.2027 71.0378 71.282 70.9861 71.282ZM94.1335 71.2074C93.6683 71.2074 93.6151 70.5033 94.0742 70.4271L97.3011 69.8949C97.805 69.8227 97.9069 70.5904 97.4167 70.6705C94.8585 71.0897 94.1844 71.2074 94.1335 71.2074ZM77.0091 70.2858C76.544 70.2858 76.4908 69.5817 76.9499 69.5056L79.9617 69.0079C80.4641 68.9317 80.5743 69.7018 80.0818 69.7834C77.529 70.2073 77.0608 70.2858 77.0091 70.2858ZM83.0321 69.2897C82.567 69.2897 82.5138 68.5855 82.9729 68.5094L85.984 68.0117C86.4886 67.9363 86.595 68.7064 86.1041 68.7873C83.552 69.2104 83.0838 69.2897 83.0321 69.2897ZM89.0551 68.2935C88.59 68.2935 88.5368 67.5894 88.9959 67.5132L92.007 67.0155C92.2137 66.9841 92.409 67.127 92.4425 67.3413C92.4751 67.5548 92.3338 67.7566 92.1271 67.7911C89.575 68.2142 89.1068 68.2935 89.0551 68.2935ZM97.6067 67.9568C97.4235 67.9568 97.2616 67.8186 97.232 67.6255L97.2084 67.4708C97.1659 67.1977 96.9158 66.9991 96.6377 67.0454L95.1382 67.2926C94.6305 67.3641 94.5302 66.5979 95.0181 66.5171L96.5183 66.2698C97.2077 66.1607 97.8521 66.6458 97.9593 67.3484L97.9829 67.503C98.0186 67.7385 97.843 67.9568 97.6067 67.9568Z" fill="black"/>
<path d="M53.653 89.0073C53.1879 89.0073 53.1347 88.3031 53.5937 88.227L56.6049 87.7293C56.8124 87.6963 57.0069 87.8408 57.0403 88.0551C57.073 88.2686 56.9316 88.4703 56.7249 88.5049C54.1728 88.928 53.7047 89.0073 53.653 89.0073ZM51.1283 88.3424C50.9452 88.3424 50.784 88.205 50.7536 88.0119L50.4883 86.3029C50.3014 85.0203 51.8458 84.3962 51.9613 85.1411C51.9955 85.3547 51.8541 85.5564 51.6473 85.591C51.3783 85.6365 51.1944 85.8955 51.2392 86.1805L51.5045 87.8879C51.5402 88.1218 51.3677 88.3424 51.1283 88.3424ZM59.6761 88.0119C59.2109 88.0119 59.1577 87.3077 59.6167 87.2316L62.6278 86.7331C62.8315 86.7002 63.0291 86.8446 63.0633 87.0589C63.096 87.2724 62.9547 87.4742 62.748 87.5087C60.1959 87.9326 59.7277 88.0119 59.6761 88.0119ZM65.699 87.0157C65.2339 87.0157 65.1807 86.3116 65.6398 86.2354L68.6508 85.737C68.8568 85.704 69.0521 85.8484 69.0863 86.0627C69.119 86.2763 68.9776 86.478 68.7709 86.5125C66.2188 86.9364 65.7507 87.0157 65.699 87.0157ZM71.7213 86.0196C71.2562 86.0196 71.2029 85.3154 71.6619 85.2393L74.6738 84.7408C74.8752 84.7078 75.0759 84.8523 75.1094 85.0666C75.142 85.2801 75.0007 85.4818 74.794 85.5164C72.2411 85.9403 71.773 86.0196 71.7213 86.0196ZM54.5977 85.098C54.1325 85.098 54.0793 84.3938 54.5384 84.3177L57.5503 83.8192C57.7555 83.7855 57.9515 83.9315 57.9857 84.145C58.0184 84.3585 57.8771 84.5602 57.6704 84.5948C55.1176 85.0187 54.6493 85.098 54.5977 85.098ZM77.7442 85.0234C77.2791 85.0234 77.2259 84.3192 77.6849 84.2431L80.6968 83.7454C81.1954 83.6653 81.3116 84.4394 80.8169 84.521C78.264 84.9449 77.7959 85.0234 77.7442 85.0234ZM60.6207 84.1018C60.1555 84.1018 60.1023 83.3977 60.5614 83.3215L63.5733 82.823C63.7731 82.7893 63.9753 82.9353 64.0087 83.1488C64.0414 83.3623 63.9001 83.5641 63.6933 83.5986C61.1405 84.0225 60.6723 84.1018 60.6207 84.1018ZM83.7672 84.0272C83.3021 84.0272 83.2489 83.3231 83.7079 83.2469L86.719 82.7492C86.9258 82.7155 87.1211 82.8615 87.1545 83.075C87.1872 83.2885 87.0459 83.4903 86.8391 83.5248C84.2871 83.9479 83.8189 84.0272 83.7672 84.0272ZM66.6437 83.1056C66.1786 83.1056 66.1253 82.4015 66.5844 82.3254L69.5955 81.8277C70.1001 81.7539 70.2066 82.5224 69.7157 82.6032C67.1636 83.0264 66.6954 83.1056 66.6437 83.1056ZM89.7902 83.0311C89.3251 83.0311 89.2719 82.3269 89.7309 82.2508L92.742 81.7531C92.951 81.7193 93.1433 81.8653 93.1775 82.0789C93.2102 82.2924 93.0688 82.4941 92.8621 82.5287C90.31 82.9518 89.8419 83.0311 89.7902 83.0311ZM72.6667 82.1095C72.2015 82.1095 72.1484 81.4053 72.6075 81.3292L75.6186 80.8315C76.1262 80.7601 76.2272 81.5262 75.7386 81.6071C73.1865 82.0302 72.7183 82.1095 72.6667 82.1095ZM95.8132 82.0349C95.3481 82.0349 95.2949 81.3308 95.7539 81.2546L98.9809 80.7224C99.1846 80.6902 99.3822 80.837 99.4133 81.0505C99.4452 81.264 99.3031 81.4642 99.0964 81.498C96.5383 81.9172 95.8641 82.0349 95.8132 82.0349ZM78.6897 81.1141C78.2245 81.1141 78.1713 80.41 78.6304 80.3338L81.6415 79.8353C81.8429 79.8055 82.0435 79.9468 82.077 80.1611C82.1097 80.3746 81.9683 80.5764 81.7616 80.6109C79.2095 81.0348 78.7413 81.1141 78.6897 81.1141ZM84.7119 80.1179C84.2468 80.1179 84.1936 79.4138 84.6526 79.3376L87.6645 78.84C88.1691 78.7662 88.2755 79.5347 87.7846 79.6155C85.2317 80.0394 84.7636 80.1179 84.7119 80.1179ZM90.7349 79.1218C90.2698 79.1218 90.2166 78.4176 90.6756 78.3415L93.6875 77.8438C93.8935 77.8132 94.0888 77.9553 94.123 78.1696C94.1556 78.3831 94.0143 78.5848 93.8076 78.6194C91.2547 79.0433 90.7866 79.1218 90.7349 79.1218ZM99.2864 78.7842C99.1033 78.7842 98.9414 78.6461 98.9117 78.4529L98.8882 78.2983C98.8456 78.0236 98.5819 77.8281 98.3174 77.8736L96.8187 78.1209C96.3102 78.1923 96.2114 77.4262 96.6986 77.3453L98.1989 77.098C98.9155 76.9866 99.5319 77.4741 99.6398 78.1758L99.6634 78.3305C99.6991 78.566 99.5228 78.7842 99.2864 78.7842Z" fill="black"/>
<path d="M53.697 100.095C53.0761 100.095 52.5539 99.6347 52.4567 99.0004L52.4407 98.8928C52.3594 98.3826 53.1118 98.2507 53.1901 98.7672L53.2068 98.8763C53.2501 99.155 53.5077 99.3521 53.7775 99.3034L55.3713 99.0396C55.5772 99.0082 55.7725 99.1511 55.8067 99.3654C55.8394 99.5789 55.6981 99.7807 55.4913 99.8152C53.7593 100.103 53.8505 100.095 53.697 100.095ZM58.4918 99.3136C58.0267 99.3136 57.9735 98.6094 58.4325 98.5333L61.4931 98.0262C61.6929 97.9932 61.8951 98.1377 61.9285 98.352C61.9612 98.5655 61.8199 98.7672 61.6131 98.8018C59.0573 99.2265 58.5427 99.3136 58.4918 99.3136ZM64.6136 98.3002C64.1485 98.3002 64.0953 97.596 64.5543 97.5199L67.6149 97.0135C67.817 96.9821 68.0161 97.125 68.0503 97.3393C68.083 97.5528 67.9417 97.7546 67.7349 97.7891C65.1806 98.213 64.6645 98.3002 64.6136 98.3002ZM70.7354 97.2875C70.2703 97.2875 70.2171 96.5834 70.6761 96.5072L73.7367 96.0001C73.9403 95.9664 74.1379 96.1124 74.1721 96.3259C74.2048 96.5394 74.0635 96.7411 73.8567 96.7757C71.3009 97.2004 70.7863 97.2875 70.7354 97.2875ZM53.2676 96.4264C52.845 96.4264 52.7394 95.8164 53.1361 95.6649C53.2121 95.6359 53.0525 95.6586 56.2673 95.1382C56.4664 95.106 56.6693 95.2496 56.7028 95.464C56.7355 95.6775 56.5941 95.8792 56.3874 95.9138C54.0823 96.2961 53.3056 96.4264 53.2676 96.4264ZM76.8572 96.2741C76.3921 96.2741 76.3389 95.5699 76.798 95.4938L79.8585 94.9867C80.0644 94.9553 80.2597 95.0981 80.2939 95.3124C80.3266 95.526 80.1853 95.7277 79.9785 95.7623C77.4227 96.1869 76.9081 96.2741 76.8572 96.2741ZM59.3879 95.4121C58.9227 95.4121 58.8695 94.708 59.3286 94.6319L62.3891 94.1255C62.5905 94.0918 62.7911 94.2378 62.8246 94.4513C62.8573 94.6648 62.7159 94.8666 62.5092 94.9011C59.9548 95.325 59.4388 95.4121 59.3879 95.4121ZM82.979 95.2614C82.5139 95.2614 82.4607 94.5573 82.9198 94.4811L85.9803 93.974C86.1802 93.9403 86.3823 94.0855 86.4157 94.2998C86.4484 94.5133 86.3071 94.7151 86.1003 94.7496C83.5445 95.1743 83.0299 95.2614 82.979 95.2614ZM65.5097 94.3995C65.0445 94.3995 64.9913 93.6953 65.4504 93.6192L68.5109 93.1121C68.7138 93.0799 68.9122 93.2236 68.9464 93.4379C68.9791 93.6514 68.8377 93.8531 68.631 93.8877C66.0751 94.3124 65.5606 94.3995 65.5097 94.3995ZM89.1008 94.248C88.6357 94.248 88.5825 93.5438 89.0416 93.4677L92.1021 92.9606C92.3035 92.9284 92.5033 93.0721 92.5375 93.2864C92.5702 93.4999 92.4289 93.7016 92.2221 93.7362C89.6663 94.1609 89.1517 94.248 89.1008 94.248ZM71.6315 93.3861C71.1663 93.3861 71.1131 92.6819 71.5722 92.6058L74.6327 92.0987C74.8379 92.0649 75.034 92.2109 75.0682 92.4244C75.1009 92.638 74.9595 92.8397 74.7528 92.8742C72.1969 93.2989 71.6824 93.3861 71.6315 93.3861ZM95.2226 93.2346C94.7575 93.2346 94.7043 92.5304 95.1633 92.4543L98.2239 91.9479C98.4275 91.9173 98.6251 92.0594 98.6593 92.2737C98.692 92.4872 98.5507 92.689 98.3439 92.7235C95.7896 93.1474 95.2735 93.2346 95.2226 93.2346ZM77.7533 92.3726C77.2881 92.3726 77.2349 91.6685 77.694 91.5923L80.7545 91.086C80.9536 91.0538 81.1565 91.1975 81.19 91.4118C81.2227 91.6253 81.0813 91.827 80.8746 91.8616C78.3202 92.2855 77.8042 92.3726 77.7533 92.3726ZM101.344 92.2219C100.879 92.2219 100.826 91.5178 101.285 91.4416L104.558 90.9C104.762 90.8623 104.96 91.0099 104.994 91.2234C105.028 91.4361 104.888 91.6394 104.682 91.674C102.121 92.1042 101.396 92.2219 101.344 92.2219ZM83.8751 91.36C83.4099 91.36 83.3567 90.6558 83.8158 90.5797L86.8763 90.0726C87.0777 90.042 87.2783 90.1848 87.3118 90.3983C87.3445 90.6119 87.2031 90.8136 86.9964 90.8482C84.4405 91.2728 83.926 91.36 83.8751 91.36ZM89.9969 90.3465C89.5317 90.3465 89.4785 89.6424 89.9376 89.5662L92.9981 89.0591C93.201 89.027 93.3994 89.1706 93.4336 89.3849C93.4663 89.5984 93.3249 89.8002 93.1182 89.8347C90.5623 90.2594 90.0478 90.3465 89.9969 90.3465ZM96.1187 89.3339C95.6535 89.3339 95.6003 88.6297 96.0594 88.5536L99.1199 88.0465C99.3243 88.0159 99.5212 88.158 99.5554 88.3723C99.5881 88.5858 99.4467 88.7875 99.24 88.8221C96.6841 89.2467 96.1696 89.3339 96.1187 89.3339ZM104.86 88.9123C104.677 88.9123 104.516 88.775 104.486 88.5819L104.47 88.4767C104.427 88.2027 104.164 88.0041 103.899 88.0512L102.301 88.3157C102.096 88.3464 101.9 88.2043 101.866 87.99C101.833 87.7764 101.974 87.5747 102.181 87.5402L103.779 87.2756C104.231 87.2058 105.07 87.3785 105.237 88.4578C105.274 88.6918 105.1 88.9123 104.86 88.9123Z" fill="black"/>
<path d="M57.3621 117.182C56.3923 117.182 55.611 116.582 55.3245 115.617C55.263 115.41 55.3747 115.19 55.5761 115.127C55.776 115.063 55.9895 115.18 56.0503 115.387C56.2624 116.098 56.8415 116.481 57.6091 116.379L58.132 116.292C58.3341 116.26 58.5332 116.404 58.5674 116.618C58.6001 116.832 58.4588 117.033 58.252 117.068C57.8568 117.134 57.6463 117.183 57.3613 117.183L57.3621 117.182ZM61.2366 116.569C60.7714 116.569 60.7182 115.865 61.1773 115.788L64.2211 115.284C64.421 115.252 64.6231 115.396 64.6566 115.61C64.6892 115.824 64.5479 116.025 64.3412 116.06C61.7891 116.484 61.2882 116.568 61.2366 116.568V116.569ZM67.3249 115.561C66.8598 115.561 66.8066 114.857 67.2656 114.781L70.3102 114.276C70.5146 114.244 70.7115 114.388 70.7457 114.602C70.7784 114.816 70.637 115.017 70.4303 115.052C67.8721 115.477 67.3766 115.561 67.3249 115.561V115.561ZM73.4133 114.554C72.9482 114.554 72.895 113.849 73.354 113.773C73.354 113.773 76.41 113.266 76.4206 113.265C76.907 113.2 77.0392 113.955 76.5186 114.046C73.9688 114.489 73.465 114.554 73.4133 114.554ZM57.0398 113.517C56.653 113.517 56.5154 112.895 56.9661 112.739C57.0421 112.713 56.9638 112.724 60.0707 112.219C60.2706 112.187 60.4728 112.33 60.5062 112.545C60.5389 112.758 60.3975 112.96 60.1908 112.995C57.0672 113.513 57.1158 113.517 57.0398 113.517ZM63.1738 112.495C62.7087 112.495 62.6555 111.791 63.1145 111.715L66.1591 111.211C66.3643 111.18 66.5604 111.322 66.5946 111.537C66.6272 111.75 66.4859 111.952 66.2792 111.987C63.7263 112.411 63.2255 112.495 63.1738 112.495ZM77.8623 111.65C77.7004 111.65 77.5507 111.542 77.499 111.374C77.2855 110.667 76.7026 110.286 75.9418 110.388L75.4113 110.475C74.9052 110.548 74.8018 109.782 75.2912 109.7L75.8308 109.611C76.9944 109.446 77.9087 110.093 78.2248 111.14C78.3008 111.392 78.1192 111.649 77.8616 111.649L77.8623 111.65ZM69.2629 111.488C68.7978 111.488 68.7446 110.784 69.2036 110.708L72.2474 110.204C72.4504 110.172 72.6487 110.315 72.6829 110.53C72.7156 110.743 72.5742 110.945 72.3675 110.979C69.8154 111.403 69.3146 111.487 69.2629 111.487V111.488Z" fill="black"/>
<path d="M108.156 34.1343L94.2637 24.7166L96.0352 36.1399L108.156 34.1343Z" fill="#FFD997"/>
<path d="M121.162 115.503L108.543 34.1468C108.524 34.0197 108.506 33.9011 108.365 33.8061L94.4721 24.3885C94.3733 24.321 94.2836 24.3155 94.1612 24.3359L36.7661 33.8328C36.6666 33.8493 36.5776 33.9066 36.5184 33.9906C36.4598 34.0746 36.4355 34.1798 36.4507 34.2826L50.852 127.137C50.8854 127.348 51.0746 127.496 51.2874 127.463L120.846 115.953C120.945 115.937 121.034 115.879 121.093 115.795C121.152 115.711 121.176 115.606 121.161 115.503L121.162 115.503ZM107.128 33.9066L96.35 35.6893L94.7746 25.533L107.128 33.9066ZM51.5428 126.625L37.2616 34.5456L93.9477 25.1664L95.6592 36.202C95.6919 36.4084 95.8788 36.5607 96.0947 36.5277L107.84 34.5841L120.35 115.237L51.5428 126.625Z" fill="black"/>
<path d="M138.117 40.4167C117.557 5.14426 73.2104 -6.25002 39.0415 14.9984C4.87876 36.2444 -6.13516 82.0468 14.4335 117.333C35.0105 152.635 79.3671 163.984 113.509 142.751C147.658 121.514 158.69 75.7095 138.117 40.4167ZM108.585 138.451C77.5599 156.426 38.1143 145.796 19.6372 114.098C1.15704 82.3945 10.5157 41.4199 40.4179 21.506L108.585 138.451ZM114.098 134.877L45.9203 18.2161C76.6296 1.7821 114.823 12.6159 132.914 43.6524C150.979 74.6442 142.43 114.507 114.098 134.878L114.098 134.877Z" fill="#81F8F8"/>
<path d="M14.1071 117.536C-6.53142 82.1292 4.5661 35.9806 38.8451 14.6616C73.1249 -6.6535 117.804 4.8075 138.443 40.2141C159.133 75.7103 148.069 121.716 113.704 143.088C79.3304 164.466 34.8042 153.041 14.1071 117.536ZM39.2373 15.3351C5.31698 36.4297 -5.6635 82.0955 14.7592 117.132C35.2321 152.254 79.3091 163.562 113.313 142.415C147.318 121.269 158.265 75.7432 137.792 40.6192C117.368 5.57915 73.1606 -5.76252 39.2373 15.3351ZM19.3108 114.3C0.749382 82.4566 10.0685 41.2503 40.2116 21.1763C40.3963 21.0531 40.6341 21.1182 40.7428 21.3035L108.952 138.55C108.926 138.653 108.86 138.74 108.77 138.793C77.4372 156.946 37.8411 146.09 19.3108 114.3ZM40.2944 22.0563C10.5351 42.1264 1.59374 82.3828 19.9629 113.896C38.3306 145.409 76.9607 156.079 108.057 138.305L40.2944 22.0563ZM113.774 135.08L45.5536 18.1093C45.5825 18.0049 45.6517 17.9178 45.7444 17.8668C76.7677 1.2648 115.199 12.5013 133.239 43.4499C151.238 74.3271 142.925 114.628 114.315 135.199C114.132 135.33 113.885 135.272 113.773 135.081L113.774 135.08ZM46.4557 18.3731L114.213 134.314C142.229 113.907 150.311 74.2596 132.588 43.855C114.825 13.382 77.0595 2.23898 46.4557 18.3731Z" fill="black"/>
</svg>
