<svg width="153" height="158" viewBox="0 0 153 158" fill="none" xmlns="http://www.w3.org/2000/svg">
<path fill-rule="evenodd" clip-rule="evenodd" d="M112.26 114.057C112.26 114.057 116.876 130.995 116.896 142.199L90.0242 138.279C90.0242 138.279 89.3668 122.658 90.8207 117.573C92.2746 112.489 92.821 113.17 92.821 113.17L112.26 114.057Z" fill="#FFD997"/>
<path fill-rule="evenodd" clip-rule="evenodd" d="M55.7925 93.2141L57.634 111.034C102.042 113.733 83.8327 112.839 138.334 114.86C138.334 114.86 146.379 115.843 147.395 108.898C148.41 101.954 148.332 20.1934 148.332 20.1934C148.332 20.1934 149.647 11.5043 144.253 10.3244C138.86 9.14456 69.7902 27.0214 62.3658 29.3214C54.9413 31.6215 53.9222 36.8825 53.8948 40.9528C53.8675 45.023 55.7925 93.2141 55.7925 93.2141Z" fill="#FFD997"/>
<path d="M144.332 9.94211C138.755 8.72143 68.155 27.1179 62.2574 28.9485C54.4788 31.3585 53.5432 36.9555 53.5174 40.9535C53.4893 44.9869 55.3954 92.7517 55.4174 93.2345C55.4194 93.2861 55.4313 93.3367 55.4523 93.3835C55.4733 93.4303 55.503 93.4724 55.5397 93.5073C55.5764 93.5423 55.6195 93.5694 55.6664 93.5872C55.7133 93.605 55.7631 93.613 55.813 93.6109C55.8629 93.6088 55.9119 93.5966 55.9572 93.5749C56.0025 93.5532 56.0433 93.5225 56.0771 93.4846C56.111 93.4466 56.1372 93.4022 56.1544 93.3538C56.1716 93.3053 56.1794 93.2539 56.1774 93.2023C56.1584 92.7203 54.2531 44.9743 54.2812 40.9598C54.3063 37.2091 55.1848 31.9614 62.4808 29.7013C70.7048 27.1532 138.912 9.55824 144.181 10.7145C149.158 11.8026 147.976 20.056 147.959 20.1989C147.959 21.0161 148.023 102.007 147.025 108.842C146.077 115.324 138.696 114.509 138.354 114.47C90.1699 112.687 93.0488 112.767 92.7668 112.83C92.5715 112.929 91.3988 113.669 90.5233 117.348C90.4965 117.384 90.4762 117.424 90.4633 117.467C89.2298 121.784 89.4662 133.465 89.6379 137.976L85.274 137.355C85.176 137.345 85.0778 137.374 85.0002 137.437C84.9226 137.5 84.8717 137.591 84.8582 137.692C84.8447 137.793 84.8696 137.895 84.9278 137.977C84.9859 138.06 85.0727 138.115 85.1699 138.133C127.334 144.126 126.964 144.085 127.041 144.085C127.142 144.092 127.241 144.058 127.317 143.989C127.394 143.92 127.44 143.823 127.447 143.719C127.454 143.615 127.42 143.512 127.353 143.434C127.287 143.355 127.193 143.307 127.092 143.3L117.278 141.905C117.208 133.814 114.728 121.907 112.725 114.302L138.296 115.248C138.625 115.281 138.954 115.296 139.284 115.293C141.54 115.293 146.94 114.683 147.778 108.956C148.785 102.062 148.723 23.5336 148.717 20.2554C148.764 19.8849 150.012 11.1848 144.332 9.94211ZM116.511 141.796L90.3972 138.082C90.3599 137.108 90.1844 132.083 90.2946 127.08C92.32 126.168 106.676 119.649 112.296 115.711C113.399 120.07 116.407 132.753 116.511 141.796Z" fill="black"/>
<path fill-rule="evenodd" clip-rule="evenodd" d="M59.2409 97.1148L58.2529 37.0929L142.495 17.6665V106.868L69.4796 105.973L59.2409 97.1148Z" fill="white"/>
<path d="M97.0107 110.023C97.0107 110.616 97.1888 111.184 97.5058 111.603C97.8228 112.021 98.2527 112.257 98.701 112.257C99.1493 112.257 99.5792 112.021 99.8962 111.603C100.213 111.184 100.391 110.616 100.391 110.023C100.391 109.431 100.213 108.863 99.8962 108.444C99.5792 108.025 99.1493 107.79 98.701 107.79C98.2527 107.79 97.8228 108.025 97.5058 108.444C97.1888 108.863 97.0107 109.431 97.0107 110.023Z" fill="white"/>
<path d="M98.7011 112.649C97.5611 112.649 96.6309 111.472 96.6309 110.023C96.6309 108.575 97.5596 107.397 98.7011 107.397C99.8426 107.397 100.771 108.574 100.771 110.023C100.771 111.472 99.8426 112.649 98.7011 112.649ZM98.7011 108.182C97.9791 108.182 97.3909 109.008 97.3909 110.023C97.3909 111.038 97.9791 111.864 98.7011 111.864C99.4231 111.864 100.011 111.038 100.011 110.023C100.011 109.008 99.4239 108.182 98.7011 108.182Z" fill="black"/>
<path d="M120.473 40.7039C101.866 41.3374 103.039 41.2683 102.906 41.3531L98.01 44.4743C97.9352 44.5219 97.8787 44.5949 97.8502 44.6808C97.8216 44.7667 97.8228 44.8602 97.8535 44.9453L111.264 81.7037C111.291 81.7783 111.339 81.8426 111.403 81.888C111.466 81.9334 111.541 81.9579 111.619 81.958C111.695 81.958 111.475 81.9855 116.493 80.9925C116.701 80.9516 116.562 81.0749 118.794 77.8525C118.848 77.7677 118.868 77.6646 118.85 77.5648C118.832 77.465 118.777 77.3763 118.697 77.3173C118.617 77.2583 118.518 77.2336 118.421 77.2483C118.324 77.2631 118.236 77.3161 118.176 77.3964L116.536 79.7686L103.634 42.062L120.495 41.4889C120.545 41.4872 120.594 41.4753 120.64 41.454C120.685 41.4326 120.726 41.4023 120.76 41.3646C120.794 41.3269 120.821 41.2826 120.839 41.2343C120.856 41.186 120.864 41.1346 120.862 41.0831C120.863 41.0312 120.853 40.9797 120.833 40.932C120.813 40.8843 120.784 40.8413 120.748 40.8057C120.711 40.7702 120.668 40.7428 120.62 40.7252C120.573 40.7077 120.523 40.7004 120.473 40.7039ZM98.6712 44.9727L102.904 42.277L115.912 80.3103L111.858 81.1188L98.6712 44.9727Z" fill="black"/>
<path d="M142.288 17.3643C139.94 17.8494 126.993 20.9211 58.1718 36.7106C58.0859 36.7304 58.0094 36.7803 57.9552 36.8519C57.901 36.9235 57.8725 37.0123 57.8746 37.1031L58.8626 97.125C58.8643 97.2291 58.906 97.3282 58.9785 97.4006C59.051 97.4729 59.1483 97.5126 59.2491 97.5108C59.3499 97.509 59.4458 97.466 59.5159 97.3911C59.5859 97.3163 59.6243 97.2157 59.6226 97.1116L59.5086 90.1613L142.09 84.3954V106.471L69.4836 105.58C69.3828 105.579 69.2857 105.619 69.2137 105.692C69.1417 105.765 69.1006 105.864 69.0994 105.968C69.0983 106.073 69.1373 106.173 69.2078 106.247C69.2783 106.322 69.3745 106.364 69.4753 106.365C129.194 107.113 140.337 107.279 142.333 107.237C142.797 107.227 142.821 107.271 142.84 106.778C142.924 104.672 142.875 91.8631 142.875 17.6665C142.875 17.1735 142.504 17.3195 142.288 17.3643ZM59.4364 85.8398L58.9303 55.089L63.8938 53.9076L64.6949 85.4096L59.4364 85.8398ZM90.7423 47.513L91.5692 83.1983L86.2705 83.634L85.4391 48.7753L90.7423 47.513ZM84.6829 48.9558L85.512 83.696L80.2125 84.1317L79.3872 50.2197L84.6829 48.9558ZM78.6302 50.3963L79.4525 84.1945L72.4104 84.773L71.5858 52.0738L78.6302 50.3963ZM70.8296 52.2536L71.6527 84.8358L65.4533 85.3453L64.6462 53.7255L70.8296 52.2536ZM118.986 80.9446L118.165 41.9481L123.621 40.5916L124.545 80.4877L118.986 80.9446ZM125.303 80.4249L124.378 40.4032L129.774 39.0609L130.722 79.9798L125.303 80.4249ZM131.482 79.917L130.531 38.8725L135.956 37.5239L136.902 79.4719L131.482 79.917ZM142.122 79.0441L137.663 79.4091L136.715 37.3331L142.122 35.9837V79.0441ZM142.145 35.1791L117.692 41.2597C117.607 41.2807 117.532 41.3312 117.479 41.4026C117.426 41.4741 117.398 41.5622 117.401 41.6522L118.231 81.0089L92.3307 83.1379L91.4985 47.3332L96.6171 46.1149L97.2707 74.3678C97.2731 74.4719 97.3153 74.5708 97.3882 74.6427C97.4611 74.7147 97.5587 74.7537 97.6595 74.7513C97.7603 74.7489 97.856 74.7053 97.9256 74.63C97.9952 74.5547 98.0331 74.4539 98.0307 74.3498L97.3779 46.1228L98.6053 46.454C98.7029 46.4804 98.8065 46.4656 98.8936 46.413C98.9806 46.3603 99.0438 46.2742 99.0693 46.1734C99.0948 46.0726 99.0805 45.9655 99.0295 45.8756C98.9786 45.7858 98.8951 45.7205 98.7976 45.6941C96.9667 45.2004 97.0496 45.2059 96.9249 45.2357L58.9173 54.2844L58.6399 37.4069L142.142 18.1564L142.145 35.1791Z" fill="black"/>
<path fill-rule="evenodd" clip-rule="evenodd" d="M41.1102 86.1538L43.5216 88.4256C43.5216 88.4256 46.9416 95.6319 38.8636 99.2155C31.9377 102.288 27.9956 99.48 27.9956 99.48C27.9956 99.48 24.3658 88.1815 23.6872 67.306C23.0085 46.4305 40.5538 48.4236 40.5538 48.4236C40.5538 48.4236 45.7332 55.3654 45.9985 56.8694C46.1481 58.0014 46.1512 59.149 46.0076 60.2818C47.1931 60.6434 48.3083 61.2162 49.303 61.9743C51.1718 63.3245 52.951 64.5797 52.5565 65.63C52.1621 66.6803 49.6928 66.9802 49.7521 68.1632C49.8114 69.3462 50.5418 69.5315 50.6489 70.1767C50.7561 70.822 49.8129 71.2804 49.8129 71.2804C50.3885 71.6952 50.7963 72.3141 50.959 73.0192C51.0806 74.0287 49.9322 75.3208 49.9322 75.3208C50.4915 76.1672 50.8021 77.1625 50.8268 78.1869C50.7804 79.6956 49.0385 81.947 41.532 81.0663L41.1102 86.1538Z" fill="#FFD997"/>
<path d="M41.9655 60.3846C41.9058 60.3846 41.847 60.3701 41.7938 60.3423C41.7405 60.3144 41.6944 60.274 41.6591 60.2243C41.6238 60.1747 41.6003 60.1171 41.5906 60.0563C41.5808 59.9955 41.5851 59.9332 41.603 59.8744C41.6341 59.7731 42.3759 57.3836 43.9096 56.6559C44.2031 56.5153 44.5227 56.4424 44.8463 56.4424C45.1698 56.4424 45.4894 56.5153 45.783 56.6559C45.8757 56.6967 45.9489 56.7739 45.9865 56.8704C46.0242 56.967 46.0231 57.0751 45.9836 57.1708C45.9441 57.2666 45.8694 57.3423 45.7759 57.3811C45.6824 57.42 45.5778 57.4189 45.485 57.3781C45.2892 57.2808 45.075 57.2294 44.8577 57.2275C44.6404 57.2256 44.4254 57.2733 44.228 57.3671C43.0014 57.9488 42.3348 60.0887 42.328 60.1107C42.3036 60.1902 42.2553 60.2596 42.1901 60.3089C42.1249 60.3582 42.0462 60.3847 41.9655 60.3846Z" fill="black"/>
<path fill-rule="evenodd" clip-rule="evenodd" d="M42.9199 62.3621C42.9199 62.3621 43.6602 60.3941 45.0038 59.7716L44.9278 61.9413C44.5874 62.1697 44.297 62.2969 42.9199 62.3621Z" fill="white"/>
<path d="M45.3334 59.956C45.3978 59.8938 45.4393 59.8104 45.4508 59.7201C45.4622 59.6297 45.4429 59.5381 45.396 59.4609C45.3492 59.3836 45.2779 59.3256 45.1942 59.2968C45.1105 59.268 45.0197 59.2702 44.9374 59.3029C43.4721 59.9804 42.6042 62.1203 42.5677 62.2074C42.5293 62.3037 42.5295 62.4118 42.5683 62.5079C42.6071 62.6041 42.6812 62.6803 42.7744 62.72C42.8677 62.7597 42.9723 62.7595 43.0654 62.7194C43.1585 62.6794 43.2323 62.6028 43.2707 62.5065C43.4674 62.0475 43.708 61.6099 43.9889 61.2002C44.0459 61.8282 44.3127 62.2412 44.701 62.2467C45.5089 62.2631 45.6754 60.6774 45.3334 59.956Z" fill="black"/>
<path fill-rule="evenodd" clip-rule="evenodd" d="M28.2806 99.6346C29.9546 100.343 31.7656 100.639 33.5697 100.499C35.3738 100.358 37.1213 99.7854 38.6736 98.8253C43.8727 95.5126 43.9259 92.2313 43.5216 88.2828L51.2569 94.5745L64.357 124.313C64.357 124.313 67.1188 139.574 66.9608 147.257H49.8927L31.3084 109.063C31.3084 109.063 27.4499 105.59 26.1533 100.917L28.2806 99.6346Z" fill="white"/>
<path fill-rule="evenodd" clip-rule="evenodd" d="M52.8574 104.754C49.7467 101.557 49.961 97.6831 48.669 94.529C47.6293 91.9911 43.2069 87.8439 41.145 86.1044C41.4072 83.4354 41.3517 83.6929 41.4277 83.7172C45.3949 84.9575 49.0505 89.1109 49.0505 89.1109C53.872 90.3669 54.7452 92.1669 58.6075 96.5229C62.4699 100.879 71.8171 107.848 71.8171 107.848C70.7858 115.817 64.2878 124.502 64.2878 124.502C62.2358 117.76 56.5274 108.525 52.8574 104.754Z" fill="#81F8F8"/>
<path fill-rule="evenodd" clip-rule="evenodd" d="M26.6657 100.595C28.2116 104.652 31.3336 106.124 37.2571 113.141C43.1805 120.157 49.8404 147.4 49.8404 147.4H6.96197C6.96197 147.4 3.55717 132.118 7.29029 120.042C9.41629 113.014 12.3586 106.277 16.0531 99.9793L26.6657 100.595Z" fill="#81F8F8"/>
<path fill-rule="evenodd" clip-rule="evenodd" d="M64.2886 124.502C64.2886 124.502 76.9046 133.233 80.741 132.621C84.5775 132.009 95.3064 109.782 96.6159 102.093C97.9254 94.405 100.14 85.5219 101.877 82.8144C103.613 80.107 108.465 79.2819 109.997 76.5242C111.529 73.7665 111.09 72.0262 112.297 69.4412C113.504 66.8562 114.093 65.3529 113.013 64.8552C111.933 64.3575 109.708 69.5126 107.797 70.4114L104.564 71.9336L105.845 65.9362L104.255 61.4828C104.255 61.4828 100.987 64.7155 100.032 66.7847C99.0776 68.854 97.5416 75.6136 96.2542 78.1869C94.9667 80.7601 90.3885 91.2712 87.2786 96.121L77.7238 111.022L71.8772 107.905C70.4932 114.187 68.4458 118.274 64.2886 124.502Z" fill="#FFD997"/>
<path d="M32.786 100.945C31.1841 100.954 29.5969 100.63 28.1196 99.9902C28.0736 99.9689 28.0322 99.9384 27.9977 99.9004C27.9632 99.8624 27.9365 99.8178 27.9189 99.769C27.9013 99.7202 27.8933 99.6683 27.8953 99.6163C27.8974 99.5643 27.9094 99.5132 27.9307 99.466C27.952 99.4189 27.9822 99.3766 28.0195 99.3416C28.0568 99.3066 28.1005 99.2796 28.148 99.2622C28.1955 99.2448 28.2458 99.2373 28.2961 99.2402C28.3465 99.2431 28.3957 99.2563 28.441 99.279C30.0591 99.9535 31.806 100.234 33.5458 100.097C35.2857 99.9612 36.9718 99.4126 38.473 98.494C43.4503 95.3234 43.5476 92.28 43.1432 88.3275C43.1354 88.2255 43.1664 88.1245 43.2296 88.0458C43.2928 87.9671 43.3833 87.917 43.4817 87.9061C43.5802 87.8953 43.6789 87.9246 43.7567 87.9877C43.8346 88.0509 43.8855 88.1429 43.8987 88.2443C44.3197 92.3483 44.2156 95.7575 38.8728 99.1621C37.0462 100.335 34.9367 100.953 32.786 100.945Z" fill="black"/>
<path d="M27.2144 102.388C27.1136 102.381 27.02 102.332 26.954 102.253C26.8881 102.174 26.8553 102.071 26.8629 101.966C26.8704 101.862 26.9177 101.766 26.9943 101.698C27.0709 101.629 27.1706 101.596 27.2714 101.603C27.3542 101.61 35.6314 102.225 40.0455 100.181C44.2255 98.2452 46.2341 94.259 45.0455 90.2625C45.0159 90.163 45.0257 90.0554 45.0729 89.9634C45.1201 89.8714 45.2007 89.8025 45.2971 89.7719C45.3934 89.7413 45.4976 89.7515 45.5867 89.8002C45.6757 89.8489 45.7424 89.9322 45.7721 90.0317C47.0785 94.4277 44.9019 98.7915 40.3563 100.897C36.9241 102.489 30.908 102.673 27.2144 102.388Z" fill="black"/>
<path d="M113.168 64.4973C111.634 63.7868 109.557 69.1531 107.64 70.0543L105.099 71.2506C106.315 65.5515 106.256 65.9542 106.201 65.8004L104.612 61.3471C104.59 61.2859 104.554 61.2314 104.507 61.1883C104.459 61.1453 104.402 61.1151 104.341 61.1004C104.279 61.0858 104.215 61.0872 104.155 61.1045C104.094 61.1218 104.038 61.1544 103.993 61.1995C103.857 61.3337 100.663 64.5059 99.6894 66.616C98.709 68.741 97.1883 75.4653 95.9161 78.0063C94.5481 80.7381 90.0481 91.0923 86.961 95.9043L77.5947 110.51L72.0665 107.562C71.6781 107.196 62.8963 100.778 58.8881 96.2584C55.0987 91.9825 54.1122 90.049 49.2536 88.7593C48.682 88.1313 45.256 84.4834 41.4902 83.3263C41.3935 83.2966 41.2894 83.3078 41.2008 83.3574C41.1121 83.407 41.0462 83.491 41.0174 83.5908C40.9887 83.6906 40.9996 83.7982 41.0476 83.8897C41.0956 83.9813 41.1769 84.0494 41.2736 84.0791C45.0781 85.2472 48.6737 89.264 48.7641 89.3684C49.3987 90.1016 51.7137 93.2298 52.859 94.7723C51.6626 94.6341 50.4562 94.9212 49.439 95.5864C49.3151 95.1766 49.1821 94.7724 49.0202 94.3767C47.7062 91.1692 41.6482 86.0188 41.3876 85.8006C41.3096 85.7346 41.2094 85.7033 41.109 85.7136C41.0087 85.7239 40.9164 85.775 40.8525 85.8555C40.7886 85.9361 40.7583 86.0396 40.7683 86.1432C40.7783 86.2469 40.8277 86.3422 40.9057 86.4082C40.9673 86.46 47.0792 91.6528 48.3203 94.6821C49.6062 97.8221 49.379 101.732 52.5907 105.032C55.8587 108.389 61.8954 117.415 63.9246 124.613C65.7281 131.013 66.3726 144.378 66.5086 146.881H50.1298C49.3539 143.767 43.1933 119.576 37.5412 112.882C31.6208 105.87 28.5208 104.397 27.0167 100.451C26.9991 100.402 26.9723 100.357 26.9377 100.319C26.9031 100.281 26.8615 100.251 26.8153 100.229C26.7692 100.208 26.7194 100.196 26.6688 100.195C26.6183 100.194 26.568 100.203 26.521 100.223C26.474 100.242 26.4311 100.27 26.395 100.307C26.3588 100.343 26.3301 100.387 26.3104 100.435C26.2908 100.483 26.2806 100.535 26.2805 100.587C26.2804 100.639 26.2904 100.691 26.3099 100.739C27.7539 104.539 30.4565 106.05 35.4694 111.673C33.3202 112.021 32.5738 114.911 32.358 117.137C27.1429 111.25 22.6156 102.161 22.5684 102.065C22.5467 102.018 22.5159 101.975 22.4779 101.94C22.4399 101.905 22.3955 101.879 22.3474 101.862C22.2993 101.845 22.2483 101.838 22.1976 101.842C22.1469 101.846 22.0974 101.86 22.0522 101.884C22.0069 101.908 21.9667 101.941 21.934 101.981C21.9013 102.021 21.8768 102.068 21.8619 102.118C21.847 102.168 21.8419 102.221 21.8471 102.273C21.8523 102.325 21.8676 102.376 21.892 102.422C21.9414 102.522 26.8662 112.411 32.4059 118.336C32.4581 118.392 32.5252 118.43 32.5987 118.447C32.6723 118.463 32.7489 118.457 32.8189 118.429C32.8889 118.4 32.9491 118.351 32.992 118.287C33.0348 118.223 33.0583 118.147 33.0595 118.07C33.0595 118.031 33.1416 114.202 34.7018 112.855C34.8991 112.683 35.1294 112.557 35.3774 112.484C35.6253 112.412 35.8854 112.394 36.1405 112.432C36.4111 112.746 36.6862 113.06 36.9682 113.397C42.3315 119.749 48.416 143.268 49.3478 146.957H34.1805C32.225 128.381 26.617 116.503 19.1553 115.118C13.5662 114.081 9.62565 117.635 7.73173 119.915C9.84809 113.012 12.749 106.391 16.3737 100.193C16.4025 100.15 16.4227 100.101 16.433 100.05C16.4433 99.9982 16.4435 99.9453 16.4336 99.8938C16.4238 99.8424 16.4041 99.7935 16.3756 99.7501C16.3472 99.7066 16.3106 99.6695 16.268 99.6409C16.2255 99.6123 16.1778 99.5929 16.1278 99.5836C16.0778 99.5744 16.0266 99.5756 15.9771 99.5871C15.9276 99.5987 15.8808 99.6204 15.8395 99.6509C15.7982 99.6815 15.7633 99.7202 15.7368 99.7649C12.0311 106.096 9.07462 112.864 6.93069 119.924C4.39609 128.122 4.91669 140.035 6.59401 147.566C6.63353 147.744 6.78705 147.728 6.96413 147.728H66.9084C67.0172 147.699 67.1134 147.633 67.1822 147.541C67.2509 147.449 67.2882 147.336 67.2884 147.22C67.2815 147.071 66.5861 132.886 64.8936 125.382C67.8029 127.333 77.4078 133.553 80.8019 133.009C84.947 132.346 95.6979 109.784 96.9899 102.158C98.2607 94.7009 100.456 85.7378 102.194 83.0288C102.989 81.7885 104.563 80.9257 106.085 80.0913C109.628 78.1484 110.754 77.2708 111.703 72.7013C111.886 71.6342 112.201 70.5957 112.64 69.6115C113.468 67.8374 114.832 65.2642 113.168 64.4973ZM7.27117 147.037C6.85013 144.942 4.56633 132.582 7.14273 122.028C7.53641 121.376 11.8486 114.561 19.0208 115.892C26.0128 117.19 31.5174 129.142 33.4159 147.037H7.27117ZM53.1258 104.476C50.7424 102.027 50.4035 99.2115 49.6594 96.369C50.2369 95.9496 50.9022 95.6772 51.6011 95.5742C52.3 95.4712 53.0126 95.5405 53.6806 95.7764C53.7577 95.8043 53.8415 95.8058 53.9195 95.7806C53.9976 95.7554 54.0657 95.705 54.1137 95.6366C54.1617 95.5683 54.1872 95.4858 54.1862 95.4014C54.1853 95.317 54.158 95.2351 54.1085 95.168C53.98 94.9937 51.5054 91.6457 50.1086 89.83C53.8926 91.0656 54.9483 92.9786 58.328 96.789C61.8696 100.784 70.0707 107.019 71.4098 108.028C70.5153 114.296 66.2107 121.048 64.5987 123.399C63.7171 115.435 58.1988 105.662 57.9571 105.237C57.9318 105.193 57.8983 105.154 57.8584 105.123C57.8186 105.092 57.7732 105.069 57.7249 105.056C57.6766 105.043 57.6263 105.04 57.5769 105.047C57.5275 105.055 57.4799 105.072 57.4369 105.098C57.3939 105.124 57.3562 105.159 57.3262 105.2C57.2961 105.241 57.2742 105.288 57.2617 105.338C57.2492 105.388 57.2463 105.44 57.2532 105.491C57.2601 105.542 57.2767 105.591 57.302 105.635C57.3544 105.727 61.903 113.783 63.4489 121.086C60.7357 114.535 55.9628 107.39 53.1258 104.476ZM111.955 69.2708C110.676 72.0105 111.203 73.5671 109.668 76.328C108.212 78.9483 103.365 79.7859 101.56 82.5978C99.7647 85.3963 97.5257 94.489 96.2398 102.025C94.9227 109.762 84.1657 131.677 80.6811 132.233C77.3789 132.769 66.8491 125.769 64.8328 124.405C65.9964 122.786 70.9759 115.513 72.0992 108.465L77.0392 111.099C76.0383 112.089 73.9711 115.014 75.6917 121.291C75.7196 121.391 75.7846 121.475 75.8724 121.525C75.9603 121.576 76.0638 121.588 76.1605 121.56C76.2571 121.531 76.3389 121.465 76.3881 121.374C76.4372 121.284 76.4497 121.177 76.4228 121.077C74.4263 113.792 77.7817 111.451 77.9269 111.352C77.967 111.318 78.0041 111.28 78.0378 111.239C89.5138 93.5407 88.769 95.208 95.0854 81.5663C97.1784 77.0463 97.0545 77.8171 98.839 71.6965C99.2638 70.0875 99.7761 68.5045 100.373 66.9551C101.089 65.4071 103.2 63.1274 104.101 62.1917L105.448 65.966L104.191 71.8535C104.175 71.9252 104.179 71.9999 104.203 72.0693C104.226 72.1387 104.268 72.1999 104.323 72.2459C104.379 72.292 104.446 72.321 104.516 72.3298C104.587 72.3385 104.659 72.3267 104.723 72.2954L107.957 70.7733C108.98 70.2921 109.984 68.8454 110.956 67.4473C111.547 66.5963 112.552 65.1802 112.86 65.2187C112.928 65.2435 112.99 65.2834 113.042 65.3354C113.093 65.3875 113.133 65.4505 113.159 65.5201C113.378 66.1371 112.743 67.5839 111.955 69.2708Z" fill="black"/>
<path d="M41.2325 125.142C41.0463 123.886 40.1746 123.218 39.4344 123.336C38.5984 123.469 38.0717 124.47 38.2412 125.613C38.2613 126.063 38.4341 126.492 38.7292 126.825C39.0244 127.157 39.4232 127.372 39.8562 127.432C40.7119 127.435 41.4309 126.478 41.2325 125.142Z" fill="black"/>
<path d="M45.3259 140.594C44.4899 140.727 43.9633 141.728 44.1335 142.87C44.4155 144.78 46.2349 145.314 46.9349 143.851C47.5999 142.46 46.6833 140.377 45.3259 140.594Z" fill="black"/>
<path d="M49.6438 61.7403C48.6591 60.9993 47.5741 60.4121 46.4237 59.9976C46.5398 58.9335 46.523 57.8584 46.3735 56.7987C46.0984 55.2366 40.922 48.1975 40.7495 48.09C40.7535 47.7842 40.6897 47.4815 40.5631 47.2051C40.4366 46.9286 40.2505 46.6857 40.0192 46.4948C32.353 40.5893 27.9785 42.7143 19.2636 46.9462C11.8771 50.536 11.8262 56.9055 11.7859 61.5566C11.7335 67.9826 10.7516 69.0008 6.92648 73.1315C4.57732 75.6686 4.36832 78.1555 5.26892 79.961C4.74058 80.5378 4.32956 81.2182 4.06013 81.9619C3.7907 82.7057 3.66834 83.4976 3.70028 84.291C3.85228 87.6916 6.69316 90.6001 7.38248 91.2579C7.08608 96.2034 13.2976 98.3551 14.4596 98.7154C14.7636 99.3261 15.9796 101.14 20.1771 102.397C23.7491 103.466 27.6372 100.906 30.1331 98.1078C33.9004 99.279 37.6738 95.0651 38.6094 91.1935C39.5639 87.2481 36.4601 85.0211 33.4201 81.7602C31.9215 80.0493 30.9233 77.9346 30.5412 75.6615C31.456 75.4293 32.2568 74.8591 32.7923 74.0585C32.8334 73.9973 32.8568 73.9252 32.8597 73.8508C32.8626 73.7763 32.8449 73.7025 32.8088 73.638C32.7726 73.5736 32.7194 73.5211 32.6553 73.4867C32.5913 73.4523 32.5192 73.4375 32.4473 73.4439C31.6331 73.5294 30.8121 73.5197 30.0001 73.4148C27.4921 72.9705 23.626 69.0133 25.5047 66.6945C26.0549 66.0073 26.8079 65.5251 27.6486 65.3217C28.4892 65.1182 29.3712 65.2048 30.1597 65.568C31.1477 66.0515 31.4099 66.7855 31.9312 67.8696C31.9577 67.9244 31.9963 67.9721 32.0438 68.0087C32.0913 68.0454 32.1464 68.0701 32.2048 68.0808C34.8945 68.573 35.8954 64.436 36.0535 63.6848C38.8655 60.4435 38.8738 58.5124 38.5554 55.6244C38.2256 52.6414 40.0328 51.9349 40.6462 49.1984C42.6875 51.9686 45.4516 55.9714 45.6226 56.9416C45.7642 58.033 45.7665 59.1388 45.6295 60.2308C45.6166 60.3276 45.6391 60.4259 45.6926 60.5065C45.7462 60.5871 45.8269 60.6441 45.919 60.6664C47.0973 61.0524 48.2072 61.6332 49.2053 62.3864C53.7501 65.6677 52.3213 65.5758 50.4213 66.7204C50.0413 66.1073 49.0335 67.0124 48.5213 67.5007C47.7332 68.255 47.2133 67.4002 47.7856 66.5586C47.8434 66.4734 47.8661 66.3679 47.8487 66.2654C47.8312 66.1628 47.775 66.0717 47.6925 66.0119C47.61 65.9521 47.5078 65.9287 47.4085 65.9467C47.3093 65.9648 47.221 66.0228 47.1632 66.1081C46.331 67.3327 46.9724 68.5808 47.9574 68.5808C48.6262 68.5808 49.0122 68.0729 49.4561 67.7008C49.3943 67.8546 49.3657 68.0204 49.3725 68.1867C49.4371 69.4655 50.1986 69.796 50.2746 70.2458C50.4334 71.2004 47.6427 71.3691 46.7338 70.9609C46.6413 70.9193 46.5367 70.9173 46.4428 70.9553C46.349 70.9934 46.2736 71.0684 46.2333 71.1639C46.193 71.2593 46.191 71.3674 46.2279 71.4643C46.2647 71.5613 46.3373 71.6391 46.4298 71.6808C46.9505 71.9326 47.5166 72.069 48.0915 72.0812C48.6664 72.0934 49.2374 71.981 49.7677 71.7514C50.1779 72.0789 50.4654 72.5434 50.5809 73.0655C50.6622 73.7422 49.9372 74.7297 49.6506 75.0531C49.5919 75.1195 49.557 75.2046 49.5517 75.2943C49.5465 75.3841 49.5712 75.473 49.6218 75.5461C50.1316 76.3232 50.4175 77.2337 50.4464 78.1719C50.4307 78.447 50.3582 78.7154 50.2338 78.9591C50.1094 79.2028 49.936 79.4162 49.7251 79.5849C48.8025 80.4108 46.6372 81.2688 41.5741 80.6753C40.4293 80.4143 39.2986 80.091 38.1868 79.7066C38.1146 79.6857 38.0381 79.6874 37.9668 79.7114C37.8955 79.7353 37.8327 79.7805 37.7862 79.8413C37.7398 79.902 37.7117 79.9756 37.7056 80.0528C37.6996 80.1299 37.7157 80.2072 37.7521 80.275C38.5013 81.6343 39.6109 82.7444 40.9502 83.4746L40.3262 91.0656C40.3176 91.1697 40.3494 91.273 40.4147 91.3529C40.4799 91.4327 40.5731 91.4826 40.6739 91.4914C40.7747 91.5003 40.8747 91.4674 40.9521 91.4001C41.0294 91.3327 41.0776 91.2364 41.0862 91.1323C41.185 89.9336 41.793 82.7014 41.891 81.5003C46.9511 82.0318 49.2159 81.0835 50.2282 80.18C50.5167 79.9386 50.7531 79.6377 50.9225 79.2965C51.0918 78.9554 51.1903 78.5814 51.2117 78.1986C51.2011 77.1924 50.9235 76.2084 50.4091 75.3538C51.5491 73.8921 51.7444 72.6243 50.457 71.3267C50.6515 71.1977 50.8079 71.0158 50.9091 70.8011C51.0103 70.5863 51.0524 70.347 51.0308 70.1092C50.8917 69.274 50.1948 69.2135 50.1393 68.1428C50.0983 67.3405 52.4702 66.9653 52.9186 65.7713C53.4058 64.4572 51.6624 63.1973 49.6438 61.7403Z" fill="black"/>
</svg>
