<svg width="1720" height="280" viewBox="0 0 1720 280" fill="none" xmlns="http://www.w3.org/2000/svg">
<path d="M96.124 49.1406C97.8443 50.8444 99.6569 52.448 101.673 53.7886C111.956 60.6284 142.553 77.086 191.08 70.36C251.712 61.9561 242.817 122.919 234.092 139.166C225.368 155.414 193.281 185.198 190.586 200.121C187.891 215.044 199.423 255.804 172.402 243.573C145.381 231.342 129.771 202.695 94.3037 206.025C58.8364 209.354 33.7743 193.638 49.4743 165.558C65.1743 137.478 83.9449 119.358 59.9865 88.0801C36.6931 57.6723 75.9284 29.1396 96.124 49.1406Z" fill="#DEE9FF"/>
<path d="M157.647 80.6429C157.197 80.1902 156.94 79.5812 156.929 78.9432C156.918 78.3053 157.154 77.6877 157.588 77.2197L173.586 59.9521C173.813 59.7075 174.086 59.5112 174.391 59.3752C174.695 59.2391 175.024 59.1659 175.357 59.1602C175.691 59.1544 176.022 59.2161 176.331 59.3415C176.64 59.467 176.92 59.6536 177.155 59.8902L178.536 61.2809C178.771 61.5175 178.956 61.7992 179.079 62.109C179.202 62.4188 179.261 62.7504 179.253 63.0837C179.245 63.417 179.17 63.7453 179.032 64.0487C178.893 64.3522 178.695 64.6245 178.449 64.8494L161.07 80.7262C160.599 81.1567 159.98 81.3884 159.342 81.3729C158.704 81.3573 158.097 81.0958 157.647 80.6429Z" fill="#418DF9"/>
<path d="M147.521 74.757C147.138 74.5875 146.836 74.2767 146.677 73.8896C146.519 73.5025 146.516 73.0691 146.669 72.6799L152.331 58.3208C152.411 58.1174 152.532 57.9323 152.685 57.7767C152.839 57.6211 153.022 57.4981 153.225 57.4152C153.427 57.3323 153.644 57.2911 153.862 57.2942C154.081 57.2973 154.297 57.3446 154.497 57.4332L155.671 57.954C155.871 58.0426 156.051 58.1706 156.2 58.3305C156.349 58.4904 156.465 58.6788 156.539 58.8844C156.614 59.09 156.646 59.3085 156.633 59.5268C156.621 59.745 156.565 59.9586 156.468 60.1546L149.632 73.9929C149.447 74.3681 149.123 74.6572 148.73 74.7996C148.336 74.942 147.903 74.9267 147.521 74.757Z" fill="#418DF9"/>
<path d="M137.218 77.104C135.913 77.3389 134.604 76.2193 134.25 74.5661L127.971 45.2103C127.596 43.456 128.436 41.7874 129.82 41.538L131.749 41.1908C133.133 40.9416 134.503 42.2128 134.763 43.9873L139.114 73.6901C139.359 75.3635 138.523 76.869 137.218 77.104Z" fill="#418DF9"/>
<path d="M238.712 104.731L211.018 101.161C210.552 101.111 210.081 101.204 209.67 101.429C209.258 101.653 208.924 101.998 208.714 102.417L201.35 116.957L170.524 178.608C170.196 179.259 169.647 179.772 168.976 180.055C168.304 180.338 167.553 180.373 166.858 180.152L83.188 153.445C82.9572 153.372 82.7122 153.354 82.4732 153.393C82.2342 153.433 82.008 153.528 81.8132 153.672C81.6183 153.816 81.4605 154.005 81.3526 154.221C81.2447 154.438 81.1898 154.678 81.1925 154.92L81.2309 158.394C81.2356 158.878 81.3926 159.347 81.6795 159.735C81.9665 160.124 82.3687 160.412 82.829 160.559L171.354 188.815C172.341 189.13 173.227 189.7 173.923 190.468C174.618 191.236 175.098 192.174 175.315 193.187L175.344 193.325C176.114 197.555 171.946 201.027 167.838 199.78L70.7673 168.756C70.2694 168.598 69.8404 168.274 69.5515 167.839C69.2626 167.404 69.131 166.883 69.1784 166.362L76.7754 83.4028C76.8136 82.9751 76.9413 82.5601 77.1503 82.185C77.3592 81.8098 77.6447 81.4828 77.9883 81.2251C78.3318 80.9674 78.7257 80.7849 79.1444 80.6893C79.5631 80.5938 79.9972 80.5873 80.4185 80.6704L196.708 103.419L204.198 88.5341C204.414 88.1134 204.754 87.7692 205.172 87.5479C205.59 87.3267 206.066 87.239 206.536 87.2968L240.449 91.6396C240.75 91.6774 241.04 91.7745 241.303 91.9252C241.566 92.076 241.797 92.2774 241.981 92.5179C242.166 92.7583 242.301 93.033 242.379 93.3261C242.457 93.6191 242.476 93.9247 242.434 94.2251L241.278 102.755C241.198 103.356 240.883 103.902 240.402 104.272C239.921 104.642 239.314 104.807 238.712 104.731Z" fill="#699CFF"/>
<path d="M81.4647 139.242L90.9405 142.266L100.03 96.1744L85.4829 93.9407L81.4647 139.242Z" fill="#DEE9FF"/>
<path d="M155.813 162.972L165.289 165.997L189.794 114.384L179.357 111.856L155.813 162.972Z" fill="#DEE9FF"/>
<path d="M119.368 151.34L128.114 154.131L146.851 105.497L132.536 102.534L119.368 151.34Z" fill="#DEE9FF"/>
<path d="M108.281 98.0046L122.595 100.967L109.892 148.315L100.416 145.29L108.281 98.0046Z" fill="#DEE9FF"/>
<path d="M170.377 109.793L156.063 106.83L138.319 157.388L147.066 160.18L170.377 109.793Z" fill="#DEE9FF"/>
<path d="M83.2932 198.708C89.4205 198.708 94.3876 193.741 94.3876 187.613C94.3876 181.486 89.4205 176.519 83.2932 176.519C77.1659 176.519 72.1987 181.486 72.1987 187.613C72.1987 193.741 77.1659 198.708 83.2932 198.708Z" fill="#A2BDFF"/>
<path d="M152.539 220.81C158.666 220.81 163.633 215.843 163.633 209.716C163.633 203.588 158.666 198.621 152.539 198.621C146.412 198.621 141.445 203.588 141.445 209.716C141.445 215.843 146.412 220.81 152.539 220.81Z" fill="#A2BDFF"/>
<path d="M243.694 91.1807L214.466 87.5216C214.304 87.5013 214.156 87.6162 214.136 87.7783L212.365 101.929C212.344 102.091 212.459 102.239 212.621 102.259L241.849 105.918C242.011 105.938 242.159 105.823 242.179 105.661L243.95 91.5108C243.971 91.3488 243.856 91.201 243.694 91.1807Z" fill="#A2BDFF"/>
<path d="M401.5 212.398C409.116 230.983 421.534 234.851 430.265 230.983C447.15 223.501 491.012 215.143 536.059 234.791C595.722 260.814 608.416 221.552 589.375 181.837C570.334 142.123 563.88 101.96 585.831 79.8331C607.782 57.706 579.057 23.0912 528.044 59.1228C495.078 82.4077 470.884 77.2229 457.892 70.6403C445.648 64.4365 432.03 57.9507 419.272 63.0148C403.792 69.1598 397.692 82.4825 421.245 112.246C454.621 154.422 384.428 170.74 401.5 212.398Z" fill="#DEE9FF"/>
<path d="M432.51 121.864H551.038V213.02C551.038 213.205 550.965 213.383 550.833 213.514C550.702 213.646 550.524 213.72 550.338 213.72H433.21C433.025 213.72 432.847 213.646 432.715 213.514C432.584 213.383 432.51 213.205 432.51 213.02V121.864Z" fill="#A2BDFF"/>
<path d="M521.304 86.1428H466.19L432.51 121.864H551.038L521.304 86.1428Z" fill="#418DF9"/>
<path d="M443.737 71.8541L466.19 86.1428L432.51 121.864L406.995 102.473L443.737 71.8541Z" fill="#699CFF"/>
<path d="M543.757 71.8541L521.303 86.1428L551.038 121.864L580.499 102.473L543.757 71.8541Z" fill="#699CFF"/>
<path d="M480.67 72.5847C481.304 72.2842 481.797 71.7505 482.046 71.0951C482.295 70.4397 482.282 69.7133 482.008 69.0677L471.907 45.2498C471.764 44.9124 471.554 44.6075 471.29 44.3533C471.026 44.0991 470.714 43.9009 470.371 43.7706C470.029 43.6403 469.663 43.5806 469.297 43.5952C468.931 43.6097 468.571 43.6981 468.24 43.8551L466.294 44.7779C465.963 44.9349 465.667 45.1572 465.424 45.4315C465.181 45.7058 464.996 46.0264 464.88 46.374C464.764 46.7216 464.72 47.0891 464.75 47.4544C464.78 47.8196 464.883 48.175 465.053 48.4993L477.1 71.3944C477.427 72.015 477.981 72.4853 478.646 72.7072C479.311 72.929 480.036 72.8851 480.67 72.5847Z" fill="#418DF9"/>
<path d="M493.334 70.2757C493.792 70.243 494.22 70.0344 494.529 69.6934C494.837 69.3525 495.002 68.9055 494.989 68.446L494.49 51.4897C494.483 51.2496 494.427 51.0133 494.326 50.7951C494.226 50.577 494.082 50.3814 493.904 50.2203C493.725 50.0591 493.516 49.9356 493.289 49.8573C493.062 49.7789 492.821 49.7473 492.582 49.7644L491.173 49.8648C490.933 49.8818 490.7 49.9471 490.486 50.0568C490.272 50.1664 490.083 50.3182 489.929 50.5029C489.776 50.6875 489.661 50.9014 489.592 51.1315C489.523 51.3616 489.502 51.6033 489.529 51.842L491.436 68.698C491.488 69.155 491.714 69.5743 492.068 69.8683C492.421 70.1623 492.875 70.3083 493.334 70.2757Z" fill="#418DF9"/>
<path d="M503.11 76.5438C504.372 77.2731 506.142 76.6039 507.124 75.0265L524.563 47.0191C525.605 45.3459 525.358 43.3067 524.021 42.5332L522.156 41.4552C520.818 40.6816 518.927 41.4849 517.997 43.2224L502.423 72.3077C501.546 73.9458 501.849 75.8144 503.11 76.5438Z" fill="#418DF9"/>
<path d="M807.955 69.2084C807.955 69.2084 840.114 93.6121 889.004 47.9812C932.423 7.45662 967.875 71.3952 968.124 102.014C968.446 141.678 924.704 173.414 945.931 199.466C967.159 225.518 903.835 268.538 869.706 231.307C827.252 184.993 815.75 222.623 791.552 222.623C774.184 222.623 738.526 179.469 762.606 147.363C782.868 120.347 771.818 111.38 766.465 102.014C758.746 88.5059 777.079 51.8407 807.955 69.2084Z" fill="#DEE9FF"/>
<path d="M859.987 124.697V215.258L789.674 184.887L790.01 94.6547L859.987 124.697Z" fill="#418DF9"/>
<path d="M859.988 124.751V215.312L929.958 185.991V94.9438L859.988 124.751Z" fill="#A2BDFF"/>
<path d="M859.987 124.697L930.299 95.247L860.539 64.3242L789.674 94.5108L859.987 124.697Z" fill="#699CFF"/>
<path d="M816.18 83.2202L886.224 113.708L886.86 135.925L906.458 127.839L905.865 105.481L833.749 75.7362L816.18 83.2202Z" fill="#418DF9"/>
<path d="M882.235 157.243C883.345 157.243 884.245 155.6 884.245 153.574C884.245 151.548 883.345 149.905 882.235 149.905C881.125 149.905 880.225 151.548 880.225 153.574C880.225 155.6 881.125 157.243 882.235 157.243Z" fill="white"/>
<path d="M914.618 144.049C915.728 144.049 916.628 142.407 916.628 140.381C916.628 138.354 915.728 136.712 914.618 136.712C913.508 136.712 912.608 138.354 912.608 140.381C912.608 142.407 913.508 144.049 914.618 144.049Z" fill="white"/>
<path d="M893.883 176.612L892.578 176.105C895.47 168.659 899.096 164.558 903.357 163.914C907.433 163.298 910.866 166.106 912.111 167.676L911.014 168.546C910.153 167.46 907.136 164.759 903.566 165.298C899.89 165.854 896.542 169.766 893.883 176.612Z" fill="white"/>
<path d="M1263.03 48.7481C1263.03 48.7481 1231.07 89.2336 1179.93 65.0847C1128.79 40.9358 1077.65 106.28 1121.69 146.054C1165.72 185.829 1122.63 207.685 1152.55 232.061C1186.55 259.767 1216.15 203.585 1243.14 216.37C1302.71 244.587 1346.84 233.417 1336.9 200.745C1319.44 143.393 1297.12 139.663 1314.17 109.831C1331.21 79.9996 1293.59 17.9741 1263.03 48.7481Z" fill="#DEE9FF"/>
<path d="M1221.11 135.285V220.223L1155.16 191.739L1155.48 107.108L1221.11 135.285Z" fill="#418DF9"/>
<path d="M1221.11 135.336V220.274L1286.74 192.773V107.379L1221.11 135.336Z" fill="#A2BDFF"/>
<path d="M1221.11 135.285L1287.06 107.663L1221.63 78.6604L1155.16 106.973L1221.11 135.285Z" fill="#0E84E5"/>
<path d="M1137.15 122.125L1203.52 154.339C1203.7 154.425 1203.9 154.451 1204.1 154.412C1204.29 154.372 1204.47 154.27 1204.6 154.121L1221.11 135.285L1155.16 106.973L1137.01 120.587C1136.88 120.68 1136.78 120.803 1136.72 120.945C1136.66 121.087 1136.63 121.243 1136.65 121.397C1136.66 121.552 1136.72 121.7 1136.81 121.827C1136.9 121.954 1137.01 122.057 1137.15 122.125Z" fill="#699CFF"/>
<path d="M1287.06 107.663L1305.37 124.222C1305.48 124.323 1305.57 124.45 1305.62 124.592C1305.67 124.735 1305.68 124.887 1305.66 125.036C1305.64 125.184 1305.58 125.325 1305.48 125.444C1305.39 125.564 1305.27 125.659 1305.14 125.72L1239.59 154.975C1239.41 155.053 1239.22 155.073 1239.03 155.033C1238.84 154.993 1238.67 154.895 1238.54 154.752L1221.11 135.285L1287.06 107.663Z" fill="#699CFF"/>
<path d="M1221.63 78.6603L1287.24 107.663L1296.68 105.476C1296.86 105.433 1297.03 105.333 1297.16 105.189C1297.28 105.046 1297.36 104.866 1297.37 104.676C1297.39 104.487 1297.35 104.297 1297.25 104.133C1297.15 103.969 1297.01 103.84 1296.83 103.764L1236.92 77.8042C1236.79 77.7474 1236.65 77.7224 1236.5 77.7314L1221.63 78.6603Z" fill="#699CFF"/>
<path d="M1221.63 78.6603L1156.38 107.108L1148.14 105.722C1147.94 105.686 1147.77 105.59 1147.64 105.448C1147.51 105.305 1147.42 105.124 1147.4 104.931C1147.38 104.738 1147.42 104.543 1147.52 104.375C1147.62 104.208 1147.77 104.076 1147.95 104L1209.34 77.5417C1209.48 77.484 1209.62 77.4603 1209.77 77.4727L1221.63 78.6603Z" fill="#699CFF"/>
<path d="M1289.63 207.03C1298.63 207.03 1305.92 199.737 1305.92 190.741C1305.92 181.745 1298.63 174.452 1289.63 174.452C1280.63 174.452 1273.34 181.745 1273.34 190.741C1273.34 199.737 1280.63 207.03 1289.63 207.03Z" fill="#418DF9" stroke="white" stroke-width="15" stroke-miterlimit="10"/>
<path d="M1294.81 185.913C1294.54 184.978 1294.16 184.218 1293.68 183.639C1293.21 183.074 1292.6 182.64 1291.91 182.381C1290.43 181.869 1288.82 181.869 1287.34 182.381C1286.65 182.638 1286.05 183.072 1285.58 183.639C1285.09 184.218 1284.71 184.978 1284.45 185.913C1284.19 186.849 1284.06 187.992 1284.06 189.338V192.083C1284.06 193.429 1284.19 194.573 1284.46 195.515C1284.67 196.352 1285.06 197.134 1285.6 197.809C1286.06 198.38 1286.67 198.821 1287.36 199.088C1288.83 199.617 1290.45 199.617 1291.92 199.088C1292.61 198.821 1293.21 198.38 1293.67 197.809C1294.2 197.131 1294.58 196.349 1294.79 195.515C1295.06 194.573 1295.19 193.429 1295.19 192.083H1295.21V189.338C1295.2 187.992 1295.07 186.849 1294.81 185.913ZM1292.35 192.493C1292.36 193.226 1292.3 193.958 1292.18 194.68C1292.09 195.194 1291.92 195.688 1291.66 196.14C1291.46 196.489 1291.17 196.774 1290.81 196.961C1290.45 197.137 1290.05 197.224 1289.64 197.217C1289.24 197.223 1288.83 197.135 1288.47 196.961C1288.11 196.773 1287.81 196.489 1287.6 196.14C1287.34 195.689 1287.16 195.195 1287.06 194.68C1286.93 193.96 1286.86 193.227 1286.87 192.493V188.9C1286.86 188.17 1286.92 187.439 1287.06 186.72C1287.15 186.216 1287.33 185.733 1287.59 185.294C1287.8 184.958 1288.1 184.688 1288.45 184.513C1288.82 184.354 1289.21 184.271 1289.61 184.271C1290.01 184.271 1290.41 184.354 1290.78 184.513C1291.14 184.684 1291.43 184.955 1291.64 185.294C1291.9 185.733 1292.08 186.216 1292.17 186.72C1292.3 187.439 1292.37 188.169 1292.35 188.9V192.493H1292.35Z" fill="white"/>
<path d="M1670.5 109.425C1670.5 109.425 1638.69 132.318 1667.12 190.68C1692.36 242.511 1622.93 257.203 1594.45 248.714C1557.55 237.717 1540.55 188.09 1510.33 200.37C1480.11 212.649 1458.22 141.637 1502.49 120.569C1557.56 94.3614 1525.91 72.973 1532.81 50.5173C1537.75 34.4007 1587.95 13.5993 1610.89 45.0873C1630.19 71.5832 1641.65 63.8818 1651.87 61.5823C1666.6 58.266 1695.41 85.7188 1670.5 109.425Z" fill="#DEE9FF"/>
<path d="M1670.88 129.868L1670.66 131.224C1670.48 132.354 1669.86 133.365 1668.93 134.036C1668 134.706 1666.85 134.981 1665.72 134.799L1665.62 134.784C1664.67 134.631 1663.69 134.801 1662.85 135.267C1662 135.733 1661.34 136.468 1660.96 137.355L1630.37 209.307C1629.49 211.386 1627.93 213.11 1625.96 214.204C1623.98 215.297 1621.69 215.696 1619.46 215.338L1534.14 201.63C1531.86 201.269 1529.77 200.136 1528.23 198.42C1526.69 196.705 1525.78 194.51 1525.65 192.205L1521.42 115.056C1521.36 114.072 1520.98 113.137 1520.32 112.405C1519.66 111.673 1518.77 111.189 1517.79 111.033C1517.24 110.943 1516.7 110.744 1516.22 110.447C1515.73 110.15 1515.32 109.76 1514.98 109.301C1514.65 108.842 1514.41 108.322 1514.28 107.771C1514.15 107.22 1514.13 106.648 1514.22 106.089L1514.44 104.733C1514.53 104.174 1514.73 103.637 1515.02 103.155C1515.32 102.673 1515.71 102.253 1516.17 101.921C1516.63 101.589 1517.15 101.351 1517.7 101.22C1518.25 101.089 1518.82 101.068 1519.38 101.158L1555.52 106.965C1556.08 107.054 1556.65 106.981 1557.16 106.754C1557.68 106.527 1558.11 106.157 1558.42 105.687L1583.67 67.2771C1584 66.7661 1584.48 66.3628 1585.03 66.1157C1585.59 65.8686 1586.21 65.7883 1586.81 65.8845C1587.25 65.9522 1587.67 66.1139 1588.04 66.3585C1588.39 66.5866 1588.69 66.8811 1588.92 67.2253C1589.15 67.5694 1589.32 67.9565 1589.4 68.3643C1589.49 68.7721 1589.49 69.1926 1589.42 69.6019C1589.34 70.0112 1589.18 70.4011 1588.95 70.7495L1566.7 104.597C1566.44 105.004 1566.27 105.471 1566.23 105.956C1566.19 106.441 1566.27 106.929 1566.47 107.374C1566.67 107.82 1566.97 108.209 1567.36 108.507C1567.74 108.804 1568.2 109.001 1568.68 109.078L1616.78 116.806C1617.26 116.883 1617.75 116.839 1618.21 116.677C1618.67 116.515 1619.08 116.241 1619.41 115.879C1619.73 115.517 1619.96 115.079 1620.08 114.606C1620.19 114.132 1620.18 113.638 1620.06 113.168L1609.51 74.0531C1609.3 73.2406 1609.42 72.3769 1609.84 71.6498C1610.26 70.9226 1610.95 70.3907 1611.76 70.1697C1612.18 70.053 1612.63 70.0303 1613.07 70.1032C1613.67 70.2007 1614.23 70.4704 1614.69 70.8799C1615.14 71.2894 1615.46 71.8212 1615.62 72.411L1627.56 116.795C1627.71 117.338 1628.01 117.827 1628.42 118.204C1628.84 118.58 1629.36 118.828 1629.91 118.917L1667.3 124.924C1667.86 125.014 1668.4 125.213 1668.88 125.51C1669.36 125.807 1669.78 126.197 1670.12 126.656C1670.45 127.115 1670.69 127.635 1670.82 128.186C1670.95 128.737 1670.97 129.309 1670.88 129.868Z" fill="#418DF9"/>
<path d="M1557.63 119.3L1548.21 117.786C1548.13 117.773 1548.06 117.825 1548.05 117.902L1536.82 187.79C1536.8 187.866 1536.86 187.938 1536.93 187.95L1546.35 189.464C1546.43 189.476 1546.5 189.425 1546.51 189.348L1557.74 119.46C1557.76 119.384 1557.7 119.312 1557.63 119.3Z" fill="#DEE9FF"/>
<path d="M1635.62 131.609L1626.2 130.095C1626.13 130.082 1626.05 130.134 1626.04 130.211L1614.81 200.099C1614.8 200.175 1614.85 200.247 1614.93 200.259L1624.35 201.773C1624.43 201.786 1624.5 201.734 1624.51 201.657L1635.74 131.769C1635.75 131.693 1635.7 131.621 1635.62 131.609Z" fill="#DEE9FF"/>
<path d="M1577.03 122.438L1567.61 120.92C1567.54 120.908 1567.46 120.96 1567.45 121.036L1556.2 190.901C1556.18 190.977 1556.24 191.049 1556.31 191.061L1565.73 192.579C1565.81 192.591 1565.88 192.539 1565.89 192.463L1577.15 122.598C1577.16 122.522 1577.11 122.45 1577.03 122.438Z" fill="#DEE9FF"/>
<path d="M1596.64 125.345L1587.22 123.831C1587.15 123.819 1587.07 123.871 1587.06 123.947L1575.83 193.835C1575.82 193.912 1575.87 193.984 1575.95 193.996L1585.37 195.51C1585.45 195.522 1585.52 195.47 1585.53 195.394L1596.76 125.506C1596.77 125.429 1596.72 125.357 1596.64 125.345Z" fill="#DEE9FF"/>
<path d="M1616.13 128.477L1606.71 126.963C1606.64 126.951 1606.56 127.003 1606.55 127.079L1595.32 196.967C1595.31 197.043 1595.36 197.115 1595.44 197.128L1604.86 198.641C1604.94 198.654 1605.01 198.602 1605.02 198.525L1616.25 128.637C1616.26 128.561 1616.21 128.489 1616.13 128.477Z" fill="#DEE9FF"/>
</svg>
