<svg width="600" height="600" viewBox="0 0 600 600" fill="none" xmlns="http://www.w3.org/2000/svg">
<path fill-rule="evenodd" clip-rule="evenodd" d="M101.5 171.5H417.997C459.259 171.5 462.542 186.504 462.542 186.504L305.934 186.504V316.854H391.271C391.271 316.854 391.271 374.058 344.356 374.058L180.597 374.058C175.678 360.572 162.738 350.943 147.55 350.943C132.362 350.943 119.422 360.572 114.503 374.058H101.5L101.5 171.5ZM116.504 186.504L290.929 186.504V316.854H237.477V354.365H181.68L162.924 316.854H116.504V186.504Z" fill="#FFE790"/>
<path d="M101.5 384.996H112.401C112.39 385.366 112.384 385.737 112.384 386.11C112.384 391.043 113.399 395.739 115.233 400H101.5V384.996Z" fill="#FFE790"/>
<path d="M182.716 386.11C182.716 391.043 181.701 395.739 179.867 400H399.444C438.273 400 453.041 362.088 458.658 332.925L466.44 355.074C470.302 351.834 474.87 349.409 479.88 348.063L455.825 279.602C458.835 287.62 465.192 292.661 470.547 291.021C476.242 289.277 478.646 280.637 475.916 271.723C473.187 262.809 466.357 256.997 460.662 258.741C454.967 260.485 452.563 269.125 455.293 278.039C455.322 278.134 455.351 278.228 455.381 278.322C455.405 278.396 455.429 278.47 455.453 278.543L450.351 264.023L449.568 264.298L449.458 263.996L405.816 279.938L410.964 294.032L441.121 283.016L447.519 301.225C446.328 322.721 439.427 384.996 399.444 384.996H182.699C182.711 385.366 182.716 385.737 182.716 386.11Z" fill="#FFE790"/>
<path d="M178.636 386.79C178.636 403.583 165.023 417.196 148.231 417.196C131.438 417.196 117.826 403.583 117.826 386.79C117.826 369.998 131.438 356.385 148.231 356.385C165.023 356.385 178.636 369.998 178.636 386.79Z" fill="#FFE790"/>
<path d="M518.755 381.35C518.755 398.143 505.141 411.756 488.348 411.756C471.555 411.756 457.942 398.143 457.942 381.35C457.942 364.557 471.555 350.943 488.348 350.943C505.141 350.943 518.755 364.557 518.755 381.35Z" fill="#FFE790"/>
<mask id="path-2-inside-1_6_2747" fill="white">
<path d="M90.9014 175.901L90.9015 383.459H105.598C106.083 381.735 106.697 380.065 107.428 378.459H95.9015L95.9014 180.901H409.899C430.264 180.901 440.879 184.61 446.315 188.021C447.937 189.038 449.105 190.033 449.942 190.905L295.335 190.905V326.255H380.574C380.482 327.755 380.305 329.853 379.962 332.355C379.248 337.585 377.822 344.515 374.995 351.409C372.166 358.307 367.98 365.061 361.803 370.081C355.668 375.069 347.433 378.459 336.257 378.459L171.475 378.459C172.206 380.065 172.82 381.735 173.305 383.459L336.257 383.459C348.539 383.459 357.897 379.7 364.957 373.961C371.975 368.256 376.585 360.709 379.621 353.306C382.658 345.899 384.165 338.528 384.916 333.032C385.293 330.278 385.482 327.978 385.577 326.36C385.624 325.55 385.648 324.909 385.66 324.466C385.666 324.245 385.669 324.072 385.671 323.953C385.672 323.893 385.672 323.846 385.672 323.813L385.672 323.774L385.673 323.762V323.758C385.673 323.757 385.673 323.755 383.173 323.755H385.673V321.255H300.335V195.905L457.549 195.905L456.885 192.871L454.443 193.405C456.885 192.871 456.884 192.868 456.884 192.865L456.882 192.858L456.879 192.843L456.871 192.81L456.861 192.768L456.85 192.726C456.833 192.663 456.812 192.586 456.784 192.496C456.727 192.315 456.646 192.081 456.53 191.802C456.298 191.244 455.93 190.508 455.355 189.659C454.201 187.954 452.244 185.838 448.973 183.786C442.453 179.695 430.795 175.901 409.899 175.901H90.9014Z"/>
<path d="M104.469 389.397C104.347 390.585 104.285 391.791 104.285 393.011C104.285 393.475 104.294 393.937 104.312 394.397H95.9014V404.401H106.171C106.763 406.133 107.487 407.803 108.33 409.401H90.9014V389.397H104.469Z"/>
<path d="M391.345 404.401H172.732C172.14 406.133 171.416 407.803 170.573 409.401H391.345C411.737 409.401 425.838 399.381 435.45 385.74C443.172 374.782 448.039 361.451 451.118 348.96L456.331 363.796C457.605 362.55 458.972 361.4 460.423 360.357L449.852 330.274L448.104 339.353C445.324 353.789 440.315 370.157 431.363 382.86C422.48 395.466 409.782 404.401 391.345 404.401Z"/>
<path d="M469.39 355.7L445.368 287.332L450.067 285.625C451.438 289.278 453.533 292.136 455.747 293.864C457.974 295.603 460.067 296.037 461.717 295.532C463.468 294.995 465.049 293.291 465.884 290.292C466.709 287.325 466.674 283.427 465.427 279.356C464.181 275.286 462.027 272.036 459.682 270.04C457.311 268.022 455.047 267.496 453.295 268.033C451.544 268.569 449.963 270.273 449.128 273.272C448.303 276.239 448.338 280.137 449.585 284.208C449.632 284.361 449.68 284.514 449.73 284.665L444.996 286.273L440.722 274.112L439.969 274.377L439.869 274.103L400.923 288.33L404.356 297.727L434.542 286.7L441.944 307.767L441.917 308.265C441.317 319.085 439.278 340.334 432.27 358.953C425.304 377.458 412.982 394.397 391.345 394.397H174.591C174.609 393.937 174.618 393.475 174.618 393.011C174.618 391.791 174.556 390.585 174.434 389.397H391.345C409.692 389.397 420.812 375.198 427.59 357.192C434.223 339.572 436.27 319.292 436.896 308.484L431.503 293.134L401.375 304.139L394.511 285.349L442.85 267.691L442.97 268.022L443.782 267.737L444.765 270.534C446.028 267.149 448.357 264.316 451.831 263.252C455.775 262.044 459.773 263.552 462.923 266.233C466.098 268.935 468.725 273.049 470.208 277.892C471.691 282.735 471.819 287.615 470.701 291.632C469.592 295.617 467.124 299.105 463.181 300.313C460.319 301.189 457.423 300.633 454.852 299.24L474.233 354.4C472.574 354.719 470.957 355.156 469.39 355.7Z"/>
<path fill-rule="evenodd" clip-rule="evenodd" d="M105.906 190.905V326.255H153.28L172.036 363.766H231.878V326.255H285.331V190.905L105.906 190.905ZM110.906 321.255V195.905L280.331 195.905V321.255H226.878V358.766H175.126L156.371 321.255H110.906Z"/>
<path d="M170.537 393.692C170.537 410.484 156.924 424.097 140.132 424.097C123.34 424.097 109.727 410.484 109.727 393.692C109.727 376.899 123.34 363.286 140.132 363.286C156.924 363.286 170.537 376.899 170.537 393.692Z"/>
<path d="M510.656 388.251C510.656 405.044 497.043 418.657 480.25 418.657C463.457 418.657 449.843 405.044 449.843 388.251C449.843 371.458 463.457 357.845 480.25 357.845C497.043 357.845 510.656 371.458 510.656 388.251Z"/>
</mask>
<path d="M448.852 281.818L448.838 281.822L450.304 286.602L450.317 286.598L448.852 281.818ZM90.9014 175.901V170.901H85.9014L85.9014 175.901L90.9014 175.901ZM90.9015 383.459H85.9015L85.9015 388.459H90.9015V383.459ZM105.598 383.459V388.459H109.384L110.411 384.815L105.598 383.459ZM107.428 378.459L111.978 380.531L115.197 373.459H107.428V378.459ZM95.9015 378.459H90.9015L90.9015 383.459H95.9015V378.459ZM95.9014 180.901V175.901H90.9014L90.9014 180.901L95.9014 180.901ZM409.899 180.901V185.901V180.901ZM446.315 188.021L443.658 192.256L443.658 192.256L446.315 188.021ZM449.942 190.905V195.905L461.67 195.905L453.549 187.443L449.942 190.905ZM295.335 190.905V185.905L290.335 185.905V190.905H295.335ZM295.335 326.255H290.335V331.255H295.335V326.255ZM380.574 326.255L385.565 326.562L385.89 321.255H380.574V326.255ZM379.962 332.355L375.009 331.678L375.009 331.678L379.962 332.355ZM374.995 351.409L379.621 353.306L379.621 353.306L374.995 351.409ZM361.803 370.081L364.957 373.961H364.957L361.803 370.081ZM336.257 378.459V383.459V378.459ZM171.475 378.459V373.459H163.706L166.925 380.531L171.475 378.459ZM173.305 383.459L168.492 384.815L169.519 388.459H173.305V383.459ZM336.257 383.459V388.459V383.459ZM364.957 373.961L361.803 370.081H361.803L364.957 373.961ZM379.621 353.306L384.247 355.203L379.621 353.306ZM384.916 333.032L379.962 332.355L379.962 332.355L384.916 333.032ZM385.577 326.36L380.585 326.067L380.585 326.067L385.577 326.36ZM385.66 324.466L380.662 324.329V324.33L385.66 324.466ZM385.671 323.953L390.67 324.019V324.019L385.671 323.953ZM385.672 323.813L390.672 323.846L390.672 323.84L385.672 323.813ZM385.672 323.774L390.672 323.801L390.672 323.794V323.787L385.672 323.774ZM385.673 323.762L390.673 323.775V323.762H385.673ZM385.673 323.755V328.755H390.673V323.755H385.673ZM385.673 321.255H390.673V316.255H385.673V321.255ZM300.335 321.255H295.335V326.255H300.335V321.255ZM300.335 195.905V190.905L295.335 190.905V195.905H300.335ZM457.549 195.905V200.905H463.761L462.433 194.837L457.549 195.905ZM456.885 192.871L461.77 191.803L460.701 186.918L455.817 187.987L456.885 192.871ZM456.884 192.865L452.001 193.94L452.003 193.952L452.006 193.965L456.884 192.865ZM456.882 192.858L461.765 191.783L461.762 191.767L461.758 191.751L456.882 192.858ZM456.879 192.843L461.755 191.736L461.75 191.716L461.745 191.695L456.879 192.843ZM456.871 192.81L461.737 191.662L461.732 191.638L461.726 191.614L456.871 192.81ZM456.861 192.768L461.715 191.572L461.709 191.545L461.702 191.518L456.861 192.768ZM456.85 192.726L461.691 191.477L461.688 191.466L461.686 191.455L456.85 192.726ZM456.784 192.496L452.008 193.978L452.008 193.978L456.784 192.496ZM456.53 191.802L451.912 193.719V193.719L456.53 191.802ZM455.355 189.659L451.215 192.463V192.463L455.355 189.659ZM448.973 183.786L451.63 179.55L451.63 179.55L448.973 183.786ZM409.899 175.901V180.901V175.901ZM104.469 389.397L109.443 389.904L110.005 384.397H104.469V389.397ZM104.312 394.397V399.397H109.509L109.308 394.203L104.312 394.397ZM95.9014 394.397V389.397H90.9014V394.397H95.9014ZM95.9014 404.401H90.9014V409.401H95.9014V404.401ZM106.171 404.401L110.901 402.782L109.744 399.401H106.171V404.401ZM108.33 409.401V414.401H116.622L112.752 407.067L108.33 409.401ZM90.9014 409.401H85.9014V414.401H90.9014V409.401ZM90.9014 389.397V384.397H85.9014V389.397H90.9014ZM172.732 404.401V399.401H169.159L168.002 402.782L172.732 404.401ZM170.573 409.401L166.151 407.067L162.281 414.401H170.573V409.401ZM435.45 385.74L431.363 382.86L431.363 382.86L435.45 385.74ZM451.118 348.96L455.836 347.303L450.277 331.483L446.264 347.763L451.118 348.96ZM456.331 363.796L451.614 365.454L454.217 372.862L459.829 367.37L456.331 363.796ZM460.423 360.357L463.341 364.417L466.381 362.232L465.14 358.7L460.423 360.357ZM449.852 330.274L454.57 328.617L448.44 311.171L444.943 329.329L449.852 330.274ZM448.104 339.353L443.194 338.408L448.104 339.353ZM431.363 382.86L435.45 385.74L435.45 385.74L431.363 382.86ZM469.39 355.7L464.673 357.357L466.324 362.057L471.03 360.423L469.39 355.7ZM445.368 287.332L443.66 282.633L439.01 284.322L440.65 288.989L445.368 287.332ZM450.067 285.625L454.748 283.868L453.009 279.236L448.359 280.925L450.067 285.625ZM455.747 293.864L458.824 289.923L458.824 289.923L455.747 293.864ZM461.717 295.532L463.181 300.313L461.717 295.532ZM465.884 290.292L470.701 291.632V291.632L465.884 290.292ZM465.427 279.356L460.646 280.82V280.82L465.427 279.356ZM459.682 270.04L462.923 266.233L459.682 270.04ZM449.128 273.272L453.945 274.613V274.613L449.128 273.272ZM449.585 284.208L454.366 282.744L454.366 282.744L449.585 284.208ZM449.73 284.665L451.337 289.4L456.023 287.809L454.481 283.107L449.73 284.665ZM444.996 286.273L440.278 287.931L441.918 292.598L446.603 291.007L444.996 286.273ZM440.722 274.112L445.44 272.454L443.782 267.737L439.065 269.394L440.722 274.112ZM439.969 274.377L435.272 276.092L436.967 280.731L441.626 279.094L439.969 274.377ZM439.869 274.103L444.565 272.388L442.85 267.691L438.153 269.407L439.869 274.103ZM400.923 288.33L399.208 283.633L394.511 285.349L396.227 290.045L400.923 288.33ZM404.356 297.727L399.659 299.442L401.375 304.139L406.071 302.423L404.356 297.727ZM434.542 286.7L439.259 285.043L437.581 280.267L432.826 282.004L434.542 286.7ZM441.944 307.767L446.936 308.044L446.992 307.049L446.661 306.11L441.944 307.767ZM441.917 308.265L436.924 307.988V307.988L441.917 308.265ZM432.27 358.953L436.949 360.715L432.27 358.953ZM174.591 394.397L169.595 394.203L169.394 399.397H174.591V394.397ZM174.434 389.397V384.397H168.898L169.46 389.904L174.434 389.397ZM427.59 357.192L432.27 358.953V358.953L427.59 357.192ZM436.896 308.484L441.888 308.773L441.946 307.772L441.613 306.826L436.896 308.484ZM431.503 293.134L436.22 291.476L434.542 286.7L429.787 288.437L431.503 293.134ZM401.375 304.139L396.678 305.855L398.394 310.551L403.09 308.835L401.375 304.139ZM394.511 285.349L392.795 280.653L388.099 282.368L389.815 287.065L394.511 285.349ZM442.85 267.691L447.546 265.976L445.83 261.279L441.134 262.995L442.85 267.691ZM442.97 268.022L438.274 269.738L439.969 274.377L444.628 272.739L442.97 268.022ZM443.782 267.737L448.499 266.079L446.842 261.362L442.125 263.02L443.782 267.737ZM444.765 270.534L440.048 272.191L444.623 285.212L449.449 272.282L444.765 270.534ZM451.831 263.252L450.367 258.471L450.367 258.471L451.831 263.252ZM462.923 266.233L466.163 262.425V262.425L462.923 266.233ZM470.208 277.892L465.427 279.356V279.356L470.208 277.892ZM470.701 291.632L475.518 292.972V292.972L470.701 291.632ZM463.181 300.313L461.717 295.532L463.181 300.313ZM454.852 299.24L457.232 294.844L445.839 288.675L450.134 300.898L454.852 299.24ZM474.233 354.4L475.179 359.309L480.872 358.212L478.95 352.742L474.233 354.4ZM105.906 190.905L105.906 185.905L100.906 185.905V190.905H105.906ZM105.906 326.255H100.906V331.255H105.906V326.255ZM153.28 326.255L157.753 324.019L156.371 321.255H153.28V326.255ZM172.036 363.766L167.564 366.002L168.946 368.766H172.036V363.766ZM231.878 363.766V368.766H236.878V363.766H231.878ZM231.878 326.255V321.255H226.878V326.255H231.878ZM285.331 326.255V331.255H290.331V326.255H285.331ZM285.331 190.905H290.331V185.905L285.331 185.905V190.905ZM110.906 195.905V190.905L105.906 190.905V195.905H110.906ZM110.906 321.255H105.906V326.255H110.906V321.255ZM280.331 195.905H285.331V190.905L280.331 190.905V195.905ZM280.331 321.255V326.255H285.331V321.255H280.331ZM226.878 321.255V316.255H221.878V321.255H226.878ZM226.878 358.766V363.766H231.878V358.766H226.878ZM175.126 358.766L170.654 361.002L172.036 363.766H175.126V358.766ZM156.371 321.255L160.843 319.019L159.461 316.255H156.371V321.255ZM102.877 376.388C102.041 378.224 101.34 380.133 100.785 382.104L110.411 384.815C110.826 383.338 111.352 381.907 111.978 380.531L102.877 376.388ZM95.9015 383.459H107.428V373.459H95.9015V383.459ZM409.899 175.901H95.9014V185.901H409.899V175.901ZM448.973 183.786C442.453 179.695 430.796 175.901 409.899 175.901V185.901C429.733 185.901 439.304 189.525 443.658 192.256L448.973 183.786ZM453.549 187.443C452.415 186.261 450.925 185.01 448.973 183.786L443.658 192.256C444.949 193.066 445.794 193.805 446.334 194.367L453.549 187.443ZM384.916 333.032C385.278 330.39 385.466 328.167 385.565 326.562L375.583 325.949C375.498 327.343 375.331 329.316 375.009 331.678L384.916 333.032ZM379.621 353.306C382.658 345.899 384.165 338.528 384.916 333.032L375.009 331.678C374.33 336.642 372.986 343.13 370.369 349.512L379.621 353.306ZM364.957 373.961C371.975 368.256 376.585 360.709 379.621 353.306L370.369 349.512C367.747 355.904 363.984 361.865 358.649 366.202L364.957 373.961ZM336.257 383.459C348.539 383.459 357.897 379.7 364.957 373.961L358.649 366.202C353.438 370.438 346.327 373.459 336.257 373.459V383.459ZM178.118 382.104C177.563 380.133 176.862 378.224 176.026 376.388L166.925 380.531C167.551 381.907 168.077 383.338 168.492 384.815L178.118 382.104ZM361.803 370.081C355.668 375.069 347.433 378.459 336.257 378.459V388.459C349.644 388.459 360.127 384.331 368.111 377.841L361.803 370.081ZM374.995 351.409C372.166 358.307 367.98 365.061 361.803 370.081L368.111 377.841C375.971 371.452 381.004 363.111 384.247 355.203L374.995 351.409ZM379.962 332.355C379.248 337.585 377.822 344.515 374.995 351.409L384.247 355.203C387.495 347.284 389.083 339.471 389.87 333.709L379.962 332.355ZM380.585 326.067C380.497 327.577 380.319 329.746 379.962 332.355L389.87 333.709C390.267 330.809 390.467 328.38 390.568 326.652L380.585 326.067ZM380.662 324.33C380.651 324.724 380.629 325.313 380.585 326.067L390.568 326.652C390.619 325.787 390.645 325.094 390.658 324.603L380.662 324.33ZM380.671 323.886C380.67 323.984 380.667 324.132 380.662 324.329L390.658 324.603C390.665 324.357 390.669 324.161 390.67 324.019L380.671 323.886ZM380.672 323.781C380.672 323.804 380.672 323.839 380.671 323.886L390.67 324.019C390.671 323.947 390.672 323.889 390.672 323.846L380.672 323.781ZM380.673 323.747L380.672 323.786L390.672 323.84L390.672 323.801L380.673 323.747ZM380.673 323.749L380.673 323.761L390.672 323.787L390.672 323.775L380.673 323.749ZM380.673 323.758V323.762H390.673V323.758H380.673ZM383.173 328.755C384.423 328.755 385.044 328.756 385.352 328.756C385.511 328.757 385.573 328.757 385.593 328.757C385.622 328.757 385.566 328.757 385.493 328.755C385.47 328.754 385.42 328.752 385.356 328.748C385.313 328.745 385.158 328.735 384.961 328.707C384.862 328.693 384.667 328.662 384.427 328.601C384.229 328.55 383.728 328.411 383.159 328.08C382.509 327.702 381.61 326.974 381.075 325.724C380.613 324.644 380.673 323.631 380.673 323.758H390.673C390.673 323.758 390.672 323.742 390.672 323.725C390.672 323.708 390.672 323.658 390.671 323.625C390.668 323.54 390.663 323.4 390.644 323.228C390.606 322.872 390.513 322.362 390.27 321.792C389.735 320.542 388.836 319.814 388.186 319.436C387.617 319.105 387.115 318.966 386.917 318.915C386.677 318.854 386.483 318.823 386.383 318.809C386.185 318.78 386.029 318.77 385.985 318.768C385.92 318.764 385.868 318.762 385.842 318.761C385.76 318.758 385.684 318.757 385.674 318.757C385.616 318.757 385.522 318.757 385.368 318.756C385.051 318.756 384.422 318.755 383.173 318.755V328.755ZM385.673 318.755H383.173V328.755H385.673V318.755ZM380.673 321.255V323.755H390.673V321.255H380.673ZM295.335 195.905V321.255H305.335V195.905H295.335ZM452.001 193.94L452.664 196.974L462.433 194.837L461.77 191.803L452.001 193.94ZM455.511 198.29L457.954 197.756L455.817 187.987L453.374 188.521L455.511 198.29ZM452.006 193.965C452.006 193.965 452.005 193.958 452.003 193.951C452.001 193.944 451.997 193.922 451.994 193.908C451.986 193.873 451.974 193.813 451.961 193.74C451.935 193.594 451.899 193.358 451.888 193.065C451.862 192.419 451.958 191.646 452.307 190.852C452.938 189.418 454.029 188.748 454.301 188.584C454.678 188.356 455 188.233 455.101 188.194C455.241 188.141 455.353 188.105 455.408 188.089C455.518 188.055 455.604 188.033 455.623 188.028C455.654 188.02 455.676 188.014 455.681 188.013C455.688 188.012 455.649 188.021 455.492 188.056C455.198 188.121 454.597 188.254 453.374 188.521L455.511 198.29C456.731 198.023 457.351 197.887 457.667 197.816C457.815 197.783 457.929 197.758 458.011 197.738C458.035 197.732 458.071 197.723 458.113 197.713C458.143 197.705 458.236 197.681 458.351 197.646C458.408 197.628 458.522 197.592 458.662 197.538C458.765 197.499 459.088 197.375 459.465 197.147C459.738 196.982 460.83 196.313 461.461 194.878C461.81 194.084 461.906 193.311 461.88 192.665C461.868 192.372 461.833 192.136 461.807 191.99C461.793 191.916 461.781 191.857 461.774 191.821C461.771 191.807 461.766 191.786 461.764 191.779C461.763 191.772 461.761 191.765 461.761 191.765L452.006 193.965ZM451.999 193.933L452.001 193.94L461.767 191.79L461.765 191.783L451.999 193.933ZM452.003 193.95L452.006 193.965L461.758 191.751L461.755 191.736L452.003 193.95ZM452.005 193.958L452.012 193.991L461.745 191.695L461.737 191.662L452.005 193.958ZM452.006 193.963L452.016 194.006L461.726 191.614L461.715 191.572L452.006 193.963ZM452.009 193.976L452.019 194.017L461.702 191.518L461.691 191.477L452.009 193.976ZM452.008 193.978C452.015 193.998 452.016 194.005 452.014 193.998L461.686 191.455C461.651 191.322 461.609 191.174 461.559 191.013L452.008 193.978ZM451.912 193.719C451.967 193.851 451.996 193.939 452.008 193.978L461.559 191.014C461.459 190.69 461.325 190.311 461.148 189.885L451.912 193.719ZM451.215 192.463C451.593 193.02 451.803 193.457 451.912 193.719L461.148 189.885C460.793 189.03 460.268 187.996 459.496 186.856L451.215 192.463ZM446.315 188.021C449.022 189.719 450.465 191.355 451.215 192.463L459.496 186.856C457.936 184.553 455.467 181.958 451.63 179.55L446.315 188.021ZM409.899 180.901C430.264 180.901 440.879 184.61 446.315 188.021L451.63 179.55C444.027 174.78 431.327 170.901 409.899 170.901V180.901ZM109.285 393.011C109.285 391.961 109.339 390.924 109.443 389.904L99.4944 388.889C99.3559 390.245 99.2851 391.621 99.2851 393.011H109.285ZM109.308 394.203C109.293 393.808 109.285 393.41 109.285 393.011H99.2851C99.2851 393.54 99.2953 394.066 99.3156 394.59L109.308 394.203ZM95.9014 399.397H104.312V389.397H95.9014V399.397ZM100.901 404.401V394.397H90.9014V404.401H100.901ZM106.171 399.401H95.9014V409.401H106.171V399.401ZM112.752 407.067C112.029 405.697 111.409 404.266 110.901 402.782L101.44 406.02C102.117 407.999 102.945 409.909 103.908 411.735L112.752 407.067ZM172.732 409.401H391.345V399.401H172.732V409.401ZM174.995 411.735C175.958 409.909 176.786 407.999 177.463 406.02L168.002 402.782C167.494 404.266 166.874 405.697 166.151 407.067L174.995 411.735ZM391.345 404.401H170.573V414.401H391.345V404.401ZM431.363 382.86C422.479 395.467 409.781 404.401 391.345 404.401V414.401C413.694 414.401 429.197 403.294 439.537 388.62L431.363 382.86ZM446.264 347.763C443.264 359.933 438.59 372.604 431.363 382.86L439.537 388.62C447.754 376.961 452.814 362.97 455.973 350.157L446.264 347.763ZM461.049 362.139L455.836 347.303L446.401 350.618L451.614 365.454L461.049 362.139ZM459.829 367.37C460.922 366.299 462.097 365.312 463.341 364.417L457.504 356.297C455.848 357.488 454.287 358.801 452.834 360.223L459.829 367.37ZM453.014 340.299L454.762 331.22L444.943 329.329L443.194 338.408L453.014 340.299ZM435.45 385.74C444.994 372.196 450.177 355.027 453.014 340.299L443.194 338.408C440.47 352.551 435.635 368.117 427.276 379.98L435.45 385.74ZM391.345 409.401C411.736 409.401 425.837 399.382 435.45 385.74L427.276 379.98C419.123 391.549 407.828 399.401 391.345 399.401V409.401ZM474.107 354.042L450.085 285.674L440.65 288.989L464.673 357.357L474.107 354.042ZM447.075 292.031L451.774 290.324L448.359 280.925L443.66 282.633L447.075 292.031ZM445.386 287.382C447.024 291.747 449.613 295.419 452.669 297.805L458.824 289.923C457.453 288.852 455.852 286.81 454.748 283.868L445.386 287.382ZM452.669 297.805C455.727 300.192 459.489 301.443 463.181 300.313L460.253 290.751C460.405 290.704 460.418 290.756 460.209 290.701C459.982 290.642 459.507 290.457 458.824 289.923L452.669 297.805ZM463.181 300.313C467.108 299.11 469.586 295.639 470.701 291.632L461.067 288.952C460.513 290.944 459.828 290.881 460.253 290.751L463.181 300.313ZM470.701 291.632C471.818 287.615 471.691 282.736 470.208 277.892L460.646 280.82C461.656 284.118 461.6 287.035 461.067 288.952L470.701 291.632ZM470.208 277.892C468.725 273.049 466.098 268.935 462.923 266.233L456.442 273.848C457.957 275.138 459.636 277.523 460.646 280.82L470.208 277.892ZM462.923 266.233C459.755 263.537 455.759 262.049 451.831 263.252L454.759 272.813C454.335 272.943 454.867 272.508 456.442 273.848L462.923 266.233ZM451.831 263.252C447.904 264.454 445.426 267.925 444.311 271.932L453.945 274.613C454.499 272.621 455.184 272.683 454.759 272.813L451.831 263.252ZM444.311 271.932C443.193 275.949 443.321 280.828 444.804 285.672L454.366 282.744C453.356 279.446 453.412 276.53 453.945 274.613L444.311 271.932ZM444.804 285.671C444.86 285.857 444.919 286.041 444.979 286.224L454.481 283.107C454.441 282.987 454.403 282.866 454.366 282.744L444.804 285.671ZM448.122 279.931L443.388 281.539L446.603 291.007L451.337 289.4L448.122 279.931ZM449.713 284.616L445.44 272.454L436.005 275.769L440.278 287.931L449.713 284.616ZM439.065 269.394L438.311 269.659L441.626 279.094L442.38 278.829L439.065 269.394ZM444.665 272.661L444.565 272.388L435.172 275.819L435.272 276.092L444.665 272.661ZM438.153 269.407L399.208 283.633L402.639 293.026L441.584 278.8L438.153 269.407ZM396.227 290.045L399.659 299.442L409.052 296.011L405.62 286.614L396.227 290.045ZM436.952 307.491L436.924 307.988L446.909 308.541L446.936 308.044L436.952 307.491ZM436.924 307.988C436.333 318.663 434.326 339.299 427.59 357.192L436.949 360.715C444.231 341.37 446.301 319.508 446.909 308.541L436.924 307.988ZM427.59 357.192C420.809 375.207 409.686 389.397 391.345 389.397V399.397C416.278 399.397 429.799 379.709 436.949 360.715L427.59 357.192ZM391.345 389.397H174.591V399.397H391.345V389.397ZM179.587 394.59C179.608 394.066 179.618 393.54 179.618 393.011H169.618C169.618 393.41 169.61 393.808 169.595 394.203L179.587 394.59ZM179.618 393.011C179.618 391.621 179.547 390.245 179.409 388.889L169.46 389.904C169.564 390.924 169.618 391.961 169.618 393.011H179.618ZM174.434 394.397H391.345V384.397H174.434V394.397ZM391.345 394.397C412.975 394.397 425.3 377.468 432.27 358.953L422.911 355.43C416.324 372.927 406.409 384.397 391.345 384.397V394.397ZM432.27 358.953C439.172 340.616 441.253 319.73 441.888 308.773L431.904 308.195C431.287 318.854 429.273 338.528 422.911 355.43L432.27 358.953ZM441.613 306.826L436.22 291.476L426.785 294.791L432.179 310.141L441.613 306.826ZM438.153 269.407L438.274 269.738L447.667 266.306L447.546 265.976L438.153 269.407ZM444.628 272.739L445.44 272.454L442.125 263.02L441.313 263.305L444.628 272.739ZM449.449 272.282C450.354 269.857 451.751 268.506 453.295 268.033L450.367 258.471C444.963 260.126 441.702 264.442 440.081 268.785L449.449 272.282ZM453.295 268.033C455.037 267.499 457.301 268.014 459.682 270.04L466.163 262.425C462.245 259.09 456.513 256.589 450.367 258.471L453.295 268.033ZM459.682 270.04C462.027 272.036 464.18 275.285 465.427 279.356L474.989 276.428C473.269 270.813 470.17 265.834 466.163 262.425L459.682 270.04ZM465.427 279.356C466.674 283.428 466.709 287.325 465.884 290.292L475.518 292.972C476.928 287.904 476.708 282.043 474.989 276.428L465.427 279.356ZM465.884 290.292C465.046 293.304 463.458 294.998 461.717 295.532L464.645 305.093C470.79 303.211 474.139 297.929 475.518 292.972L465.884 290.292ZM461.717 295.532C460.428 295.926 458.923 295.759 457.232 294.844L452.471 303.637C455.923 305.507 460.211 306.451 464.645 305.093L461.717 295.532ZM450.134 300.898L469.516 356.057L478.95 352.742L459.569 297.583L450.134 300.898ZM471.03 360.423C472.372 359.957 473.758 359.583 475.179 359.309L473.287 349.49C471.391 349.856 469.542 350.354 467.75 350.976L471.03 360.423ZM105.906 195.905V321.255H115.906V195.905H105.906ZM280.331 190.905L110.906 190.905V200.905L280.331 200.905V190.905ZM285.331 321.255V195.905H275.331V321.255H285.331ZM175.126 363.766H226.878V353.766H175.126V363.766ZM165.537 393.692C165.537 407.723 154.163 419.097 140.132 419.097V429.097C159.686 429.097 175.537 413.245 175.537 393.692H165.537ZM140.132 419.097C126.101 419.097 114.727 407.723 114.727 393.692H104.727C104.727 413.245 120.578 429.097 140.132 429.097V419.097ZM114.727 393.692C114.727 379.661 126.101 368.286 140.132 368.286V358.286C120.578 358.286 104.727 374.138 104.727 393.692H114.727ZM140.132 368.286C154.163 368.286 165.537 379.661 165.537 393.692H175.537C175.537 374.138 159.686 358.286 140.132 358.286V368.286ZM505.656 388.251C505.656 402.283 494.281 413.657 480.25 413.657V423.657C499.804 423.657 515.656 407.805 515.656 388.251H505.656ZM480.25 413.657C466.218 413.657 454.843 402.283 454.843 388.251H444.843C444.843 407.805 460.695 423.657 480.25 423.657V413.657ZM454.843 388.251C454.843 374.219 466.218 362.845 480.25 362.845V352.845C460.695 352.845 444.843 368.697 444.843 388.251H454.843ZM480.25 362.845C494.281 362.845 505.656 374.219 505.656 388.251H515.656C515.656 368.697 499.804 352.845 480.25 352.845V362.845ZM90.9014 180.901H409.899V170.901H90.9014V180.901ZM95.9015 383.459L95.9014 175.901L85.9014 175.901L85.9015 383.459H95.9015ZM105.598 378.459H90.9015V388.459H105.598V378.459ZM90.9014 180.901L90.9015 378.459H100.902L100.901 180.901L90.9014 180.901ZM295.335 195.905L449.942 195.905V185.905L295.335 185.905V195.905ZM300.335 326.255V190.905H290.335V326.255H300.335ZM380.574 321.255H295.335V331.255H380.574V321.255ZM171.475 383.459L336.257 383.459V373.459L171.475 373.459V383.459ZM336.257 378.459L173.305 378.459V388.459L336.257 388.459V378.459ZM300.335 326.255H385.673V316.255H300.335V326.255ZM457.549 190.905L300.335 190.905V200.905L457.549 200.905V190.905ZM104.469 384.397H90.9014V394.397H104.469V384.397ZM90.9014 414.401H108.33V404.401H90.9014V414.401ZM85.9014 389.397V409.401H95.9014V389.397H85.9014ZM445.135 331.932L455.705 362.015L465.14 358.7L454.57 328.617L445.135 331.932ZM406.071 302.423L436.257 291.397L432.826 282.004L402.64 293.03L406.071 302.423ZM429.824 288.358L437.227 309.425L446.661 306.11L439.259 285.043L429.824 288.358ZM429.787 288.437L399.659 299.442L403.09 308.835L433.218 297.83L429.787 288.437ZM406.071 302.423L399.208 283.633L389.815 287.065L396.678 305.855L406.071 302.423ZM396.227 290.045L444.565 272.388L441.134 262.995L392.795 280.653L396.227 290.045ZM439.065 269.394L440.048 272.191L449.482 268.876L448.499 266.079L439.065 269.394ZM105.906 195.905L285.331 195.905V185.905L105.906 185.905L105.906 195.905ZM110.906 326.255V190.905H100.906V326.255H110.906ZM153.28 321.255H105.906V331.255H153.28V321.255ZM176.508 361.53L157.753 324.019L148.808 328.492L167.564 366.002L176.508 361.53ZM231.878 358.766H172.036V368.766H231.878V358.766ZM226.878 326.255V363.766H236.878V326.255H226.878ZM285.331 321.255H231.878V331.255H285.331V321.255ZM280.331 190.905V326.255H290.331V190.905H280.331ZM226.878 326.255H280.331V316.255H226.878V326.255ZM231.878 358.766V321.255H221.878V358.766H231.878ZM151.898 323.492L170.654 361.002L179.598 356.53L160.843 319.019L151.898 323.492ZM110.906 326.255H156.371V316.255H110.906V326.255Z" fill="#1E1E1E" mask="url(#path-2-inside-1_6_2747)"/>
</svg>
