<svg width="153" height="158" viewBox="0 0 153 158" fill="none" xmlns="http://www.w3.org/2000/svg">
<path fill-rule="evenodd" clip-rule="evenodd" d="M27.3716 66.1144C27.1208 63.6683 27.5814 57.8562 28.1088 54.7201C28.6408 51.5715 31.7758 48.2611 31.7758 48.2611C31.7758 48.2611 37.7433 49.4135 37.8687 53.3848C37.8687 53.3848 38.0793 53.7899 37.4424 55.0035C36.8055 56.2171 37.3664 56.1535 37.1285 57.4919C36.8906 58.8304 34.3712 61.3494 33.4987 62.3589C32.8717 63.0827 32.2516 63.6879 31.4756 63.6707C31.1246 64.5767 30.7077 65.4539 30.2285 66.2949C29.4122 66.5822 27.3716 66.1144 27.3716 66.1144Z" fill="#FFD997"/>
<path fill-rule="evenodd" clip-rule="evenodd" d="M22.4665 64.9118C22.4665 64.9118 17.9255 62.3684 14.6385 63.6259C11.3515 64.8835 8.62535 69.0205 8.76595 75.2753C8.90655 81.5302 9.30327 85.8179 9.52595 92.6238L20.7466 95.5166C20.7466 95.5166 24.4979 97.976 38.732 94.6531L39.5285 86.3807L34.7891 87.4436L33.6894 87.2623L35.3865 77.8965L33.3801 75.9065C32.7134 72.3572 31.8151 68.8586 30.6912 65.4346V66.3342C29.609 66.4697 28.5122 66.4067 27.4513 66.1481C26.0575 65.7148 22.4665 64.9118 22.4665 64.9118Z" fill="white"/>
<path fill-rule="evenodd" clip-rule="evenodd" d="M34.7194 61.0071C35.6597 63.7527 36.3185 66.5927 36.6848 69.4804C36.7387 69.8391 35.7895 73.9164 35.7895 73.9164C35.7895 73.9164 33.8895 75.5052 33.3803 75.9064C32.7701 72.344 31.8707 68.841 30.6914 65.4345L31.4347 63.6847C31.4347 63.6847 32.0427 63.9273 32.9159 62.9782C33.7892 62.0292 34.7194 61.0071 34.7194 61.0071Z" fill="#81F8F8"/>
<path fill-rule="evenodd" clip-rule="evenodd" d="M16.4888 63.2405C17.619 60.9319 18.6186 58.5574 19.4824 56.1292C20.4172 53.2247 21.8384 44.4633 27.1744 41.9513C28.4803 41.4724 29.8799 41.3309 31.251 41.5392C33.7826 41.8351 38.6443 46.0325 38.9369 49.6867C39.2264 53.3063 38.113 55.0859 37.1326 56.1739C37.146 55.7836 37.2425 55.4011 37.4154 55.0537C37.7133 54.4147 38.3274 53.1768 37.5628 52.0063C36.8903 51.0132 36.0315 50.1698 35.0373 49.5262C34.0431 48.8826 32.9339 48.4518 31.7754 48.2595C31.7754 48.2595 28.8243 51.4396 28.2794 54.045C27.7345 56.6504 26.9669 64.7045 27.5278 67.1356C28.0886 69.5668 30.2638 77.9553 30.2638 77.9553C28.7766 77.3261 27.442 76.366 26.355 75.1434C25.268 73.9208 24.4553 72.4657 23.9748 70.8817C22.4662 65.5696 22.4662 64.9117 22.4662 64.9117C20.602 63.9473 18.5694 63.379 16.4888 63.2405Z" fill="#81F8F8"/>
<path d="M33.6657 54.3268C33.5713 54.327 33.4803 54.2909 33.4103 54.2256C32.9315 53.7789 31.2382 53.6941 30.2882 53.7436C30.2382 53.7477 30.1879 53.7412 30.1403 53.7245C30.0928 53.7079 30.0491 53.6814 30.0117 53.6468C29.9744 53.6121 29.9443 53.57 29.9232 53.5229C29.9022 53.4759 29.8906 53.4249 29.8892 53.3731C29.8838 53.2692 29.9186 53.1674 29.9858 53.0899C30.0531 53.0125 30.1474 52.9658 30.2479 52.9602C30.5337 52.9445 33.0516 52.8346 33.9195 53.6423C33.9767 53.6954 34.017 53.7651 34.035 53.8423C34.053 53.9195 34.048 54.0006 34.0204 54.0747C33.9929 54.1489 33.9443 54.2127 33.881 54.2577C33.8176 54.3027 33.7425 54.3268 33.6657 54.3268Z" fill="black"/>
<path d="M37.3627 54.8379C37.27 54.838 37.1806 54.8031 37.1111 54.7398C36.8177 54.4729 36.2265 54.6165 36.022 54.6935C35.9287 54.7261 35.8267 54.7201 35.7377 54.6766C35.6486 54.6331 35.5793 54.5556 35.5445 54.4604C35.5097 54.3652 35.5121 54.2597 35.5511 54.1663C35.5901 54.0728 35.6628 53.9987 35.7537 53.9595C36.0558 53.8338 36.3828 53.7855 36.7068 53.8189C37.0308 53.8522 37.3422 53.9662 37.6142 54.151C37.6721 54.2038 37.7131 54.2735 37.7317 54.3509C37.7503 54.4283 37.7456 54.5097 37.7183 54.5843C37.691 54.6589 37.6423 54.7231 37.5788 54.7684C37.5152 54.8137 37.4399 54.838 37.3627 54.8379Z" fill="black"/>
<path d="M33.1257 58.9873C33.0762 58.9801 33.0286 58.9628 32.9856 58.9366C32.9425 58.9103 32.905 58.8756 32.875 58.8343C32.845 58.793 32.8231 58.7461 32.8107 58.6961C32.7983 58.6461 32.7956 58.5941 32.8027 58.543C32.8086 58.4916 32.8245 58.442 32.8494 58.3971C32.8742 58.3522 32.9076 58.313 32.9474 58.2816C32.9872 58.2503 33.0327 58.2275 33.0813 58.2147C33.1298 58.2019 33.1803 58.1993 33.2298 58.207C33.6789 58.2674 34.0027 58.2219 34.1357 58.0704C34.2687 57.9189 34.2307 57.5719 34.1882 57.3867C34.081 56.5697 34.1434 55.7386 34.3713 54.9485C34.3999 54.8486 34.4658 54.7646 34.5544 54.7149C34.6429 54.6653 34.747 54.654 34.8437 54.6835C34.9403 54.7131 35.0216 54.7811 35.0697 54.8726C35.1178 54.9641 35.1288 55.0716 35.1002 55.1714C34.9107 55.8316 34.853 56.5246 34.9307 57.2085C35.1982 58.4119 34.5765 59.1953 33.1257 58.9873Z" fill="black"/>
<path fill-rule="evenodd" clip-rule="evenodd" d="M32.5828 54.9138C31.3075 56.6612 30.1265 54.8872 30.1265 54.8872C30.1265 54.8872 31.6624 54.3926 32.5828 54.9138Z" fill="white"/>
<path fill-rule="evenodd" clip-rule="evenodd" d="M36.7925 55.9525C35.5005 57.5186 34.916 55.9729 34.916 55.9729C35.5165 55.7213 36.187 55.7141 36.7925 55.9525Z" fill="white"/>
<path d="M32.9705 60.2825C31.9683 60.2548 31.0129 59.8384 30.2946 59.116C30.2252 59.0421 30.1868 58.943 30.1875 58.8401C30.1882 58.7372 30.2281 58.6387 30.2984 58.5658C30.3688 58.4929 30.464 58.4515 30.5637 58.4505C30.6633 58.4494 30.7594 58.4889 30.8311 58.5603C30.9026 58.6325 32.6179 60.3453 34.5034 58.9645C34.5857 58.9053 34.6873 58.8821 34.7861 58.8999C34.8849 58.9177 34.9728 58.9752 35.0308 59.0597C35.0887 59.1442 35.112 59.249 35.0955 59.3511C35.079 59.4533 35.0241 59.5446 34.9427 59.6051C34.371 60.0402 33.6807 60.2774 32.9705 60.2825Z" fill="black"/>
<path d="M31.5901 61.1194C31.5033 61.0662 31.4406 60.9795 31.4156 60.8785C31.3907 60.7776 31.4056 60.6705 31.4571 60.5808C31.5086 60.4912 31.5925 60.4264 31.6902 60.4006C31.788 60.3749 31.8917 60.3903 31.9785 60.4435C32.2232 60.6013 32.5129 60.6675 32.7993 60.6311C32.8464 60.6142 32.8963 60.607 32.9462 60.61C32.996 60.6131 33.0448 60.6262 33.0897 60.6487C33.1346 60.6712 33.1748 60.7026 33.208 60.7411C33.2411 60.7796 33.2666 60.8245 33.283 60.8733C33.2994 60.922 33.3063 60.9735 33.3034 61.025C33.3004 61.0765 33.2877 61.1268 33.2659 61.1732C33.2442 61.2196 33.2138 61.2611 33.1765 61.2954C33.1392 61.3297 33.0957 61.356 33.0485 61.3729C32.8015 61.4351 32.5448 61.4447 32.2941 61.4011C32.0433 61.3575 31.8038 61.2616 31.5901 61.1194Z" fill="black"/>
<path d="M32.6326 54.3707C31.8398 54.1448 31.0068 54.1142 30.2006 54.2812C30.1052 54.3032 30.0217 54.3623 29.9674 54.4462C29.9131 54.5301 29.8922 54.6325 29.909 54.7319C29.9258 54.8313 29.9791 54.9202 30.0577 54.9802C30.1364 55.0401 30.2343 55.0664 30.3313 55.0537C30.4597 55.0309 30.6163 55.0089 30.7873 54.9916C30.7803 55.0675 30.7898 55.144 30.8152 55.2155C30.8406 55.2871 30.8812 55.3518 30.9339 55.405C30.9867 55.4583 31.0503 55.4986 31.1202 55.5231C31.19 55.5476 31.2643 55.5557 31.3375 55.5466C31.5006 55.5527 31.6611 55.5033 31.7945 55.4062C31.9279 55.3091 32.0269 55.1696 32.0762 55.0089C32.1603 55.0258 32.2424 55.0522 32.321 55.0874C32.3667 55.1115 32.4168 55.1258 32.4681 55.1294C32.5193 55.1329 32.5708 55.1257 32.6193 55.1082C32.6678 55.0906 32.7123 55.0631 32.7502 55.0273C32.7881 54.9914 32.8186 54.948 32.8398 54.8997C32.861 54.8513 32.8724 54.799 32.8735 54.7459C32.8746 54.6929 32.8652 54.6401 32.846 54.5909C32.8268 54.5417 32.7981 54.497 32.7617 54.4596C32.7252 54.4221 32.6818 54.3927 32.6341 54.3731L32.6326 54.3707Z" fill="black"/>
<path d="M36.8883 55.4179C36.522 55.0552 35.5925 55.1698 34.8758 55.3276C34.7772 55.3494 34.6911 55.4107 34.6363 55.4981C34.5815 55.5854 34.5625 55.6917 34.5836 55.7935C34.6047 55.8953 34.664 55.9843 34.7486 56.0409C34.8332 56.0975 34.9361 56.1171 35.0346 56.0954L35.1479 56.0718C35.268 56.6441 36.1944 56.5546 36.4049 56.0208C36.4831 56.078 36.5794 56.1026 36.6744 56.0896C36.7694 56.0766 36.8561 56.0271 36.9172 55.9508C36.9783 55.8746 37.0093 55.7773 37.004 55.6785C36.9986 55.5797 36.9573 55.4866 36.8883 55.4179Z" fill="black"/>
<path fill-rule="evenodd" clip-rule="evenodd" d="M36.5788 73.5631L38.1748 65.2751L50.8713 64.7546L49.571 73.4171C48.0788 73.0136 48.0122 73.4585 49.3711 74.7516C47.4589 73.8748 47.123 74.3002 49.0891 76.6309C47.2157 74.6841 46.9361 75.254 48.7221 79.0832L47.9218 84.4165L34.6567 87.4506L35.7435 81.6416L36.5788 73.5631Z" fill="white"/>
<path fill-rule="evenodd" clip-rule="evenodd" d="M13.8443 88.216C12.8402 88.5974 11.9318 89.2068 11.1862 89.9994C10.4406 90.7919 9.87688 91.7473 9.53662 92.7949C9.75778 99.6032 11.6487 100.95 18.6156 96.8416C25.5825 92.7337 28.7639 88.8613 31.3585 86.9804C33.9531 85.0996 34.34 82.7925 35.4921 81.7759C36.6443 80.7593 36.6154 83.9912 37.2895 84.0422C37.9637 84.0932 38.0906 81.465 37.6901 80.4312C37.6901 80.4312 38.6074 83.0052 39.4153 83.0609C39.7573 83.0853 40.0324 82.7783 40.0339 81.936C40.4033 82.3992 41.0667 81.9918 40.9459 81.3206C40.9459 81.3206 40.9611 78.6422 39.8713 77.5448C38.9366 76.7894 37.8733 76.2215 36.7363 75.8703C37.5763 74.8498 38.7362 74.1659 40.0141 73.9377C41.7431 73.6629 40.8919 72.8104 39.3841 72.83C37.7685 72.9432 36.2235 73.5571 34.951 74.5916C33.4934 75.5023 32.3667 76.8837 31.7453 78.5221C30.6342 81.0231 30.0133 82.6418 28.3649 83.1858C26.7164 83.7298 16.4427 87.0833 13.8443 88.216Z" fill="#FFD997"/>
<path fill-rule="evenodd" clip-rule="evenodd" d="M49.549 73.4101L49.8409 71.6211C49.8409 71.6211 53.6203 74.3254 53.7283 75.6293C53.8362 76.9332 52.8489 82.9377 51.7029 84.6121C50.5568 86.2865 39.0747 92.0837 39.0747 92.0837L39.5307 86.3807L47.9348 84.3978L48.7244 79.0841C48.0229 77.6044 47.3663 75.9441 47.5084 75.6136C47.5753 75.4566 47.7691 75.5147 47.9986 75.6607L48.0822 75.4778C47.7851 75.0602 47.5814 74.6378 47.7569 74.4157C47.9454 74.1802 48.2889 74.2085 48.6135 74.3152L48.7161 74.0883C48.4166 73.7681 48.1841 73.414 48.4584 73.2822C48.8259 73.274 49.1927 73.3171 49.549 73.4101Z" fill="#FFD997"/>
<path d="M51.1428 64.3984L50.5401 63.8536C50.5047 63.8197 50.463 63.7935 50.4176 63.7768C50.3721 63.7601 50.3238 63.7531 50.2756 63.7562L37.6475 64.2484C37.5624 64.2518 37.4808 64.2845 37.4159 64.3415C37.351 64.3984 37.3065 64.4762 37.2895 64.5624L35.3964 73.9416C35.3851 73.9986 35.3862 74.0576 35.3997 74.1141C35.4132 74.1706 35.4387 74.2233 35.4743 74.2684C35.51 74.3135 35.5549 74.3498 35.6058 74.3747C35.6567 74.3997 35.7124 74.4126 35.7687 74.4126C36.0556 74.2934 36.3279 74.1396 36.5797 73.9542C36.6671 73.954 36.7519 73.9227 36.8196 73.8655C36.8873 73.8083 36.9338 73.7287 36.9513 73.6402L38.4873 65.6567L50.4238 65.1669L49.1957 73.3576C49.1833 73.459 49.2097 73.5614 49.2694 73.643C49.329 73.7246 49.4171 73.779 49.5149 73.7945C49.6127 73.8101 49.7126 73.7856 49.7932 73.7263C49.8738 73.6669 49.9288 73.5775 49.9465 73.4769L51.2385 64.8513C51.2712 64.7751 51.2795 64.6901 51.2623 64.6087C51.2451 64.5272 51.2032 64.4536 51.1428 64.3984Z" fill="black"/>
<path d="M48.7792 78.6955C48.68 78.682 48.5795 78.7085 48.4988 78.7697C48.4181 78.8308 48.3634 78.9218 48.346 79.0236L47.586 84.0915L35.1387 86.938L36.1161 81.7177C36.1255 81.6671 36.1252 81.615 36.1152 81.5646C36.1051 81.5141 36.0856 81.4661 36.0576 81.4234C36.0296 81.3808 35.9938 81.3442 35.9521 81.3158C35.9104 81.2874 35.8638 81.2678 35.8148 81.2581C35.7658 81.2483 35.7154 81.2487 35.6665 81.259C35.6176 81.2694 35.5712 81.2896 35.5299 81.3185C35.4885 81.3474 35.4531 81.3844 35.4257 81.4275C35.3982 81.4705 35.3792 81.5187 35.3698 81.5693C35.1528 81.9581 34.9003 82.3245 34.6159 82.6636C34.5168 82.6446 34.4145 82.667 34.3314 82.7259C34.2483 82.7847 34.1912 82.8753 34.1728 82.9776L33.4196 87.1381C33.402 87.2352 33.4204 87.3356 33.4713 87.4193C33.5221 87.503 33.6016 87.5637 33.694 87.5895C34.0082 87.6974 34.3295 87.7822 34.6554 87.8431C34.7314 87.8431 34.1545 87.9804 48.004 84.7996C48.0786 84.7824 48.1465 84.7423 48.1987 84.6846C48.2509 84.6269 48.285 84.5542 48.2966 84.4762L49.0961 79.1429C49.1114 79.0402 49.0867 78.9354 49.0272 78.8515C48.9678 78.7676 48.8786 78.7115 48.7792 78.6955Z" fill="black"/>
<path d="M42.8433 67.0524C42.3113 66.2509 39.6893 66.4149 39.3473 67.3224C39.3124 67.4145 39.3002 67.5141 39.3119 67.6122C39.3236 67.7103 39.3587 67.8039 39.4141 67.8845C39.7181 68.3468 40.5739 68.4002 40.9265 68.4002C41.5535 68.4002 42.6745 68.2354 42.9071 67.6152C42.9421 67.5232 42.9546 67.4237 42.9435 67.3255C42.9324 67.2273 42.8979 67.1335 42.8433 67.0524Z" fill="black"/>
<path d="M39.0753 92.4762C38.9895 92.4762 38.9061 92.4462 38.8389 92.391C38.7717 92.3358 38.7245 92.2588 38.7051 92.1724C38.6857 92.086 38.6952 91.9953 38.7321 91.9152C38.769 91.8351 38.831 91.7703 38.9081 91.7313C43.4879 89.4194 50.5924 85.5549 51.3926 84.386C52.4848 82.7893 53.453 76.901 53.3496 75.6623C53.285 74.8914 51.1327 73.0231 49.6256 71.9438C49.5428 71.8844 49.4862 71.7935 49.4682 71.6911C49.4502 71.5886 49.4724 71.483 49.5299 71.3974C49.5873 71.3118 49.6753 71.2533 49.7745 71.2348C49.8737 71.2162 49.976 71.2392 50.0588 71.2985C50.714 71.7695 53.9911 74.1802 54.1081 75.5948C54.2229 76.9756 53.2394 83.0476 52.0143 84.839C50.8454 86.5463 40.4274 91.8388 39.2463 92.4362C39.1932 92.4634 39.1346 92.4771 39.0753 92.4762Z" fill="black"/>
<path d="M52.7145 74.6049C51.617 73.7885 49.1037 72.5349 48.2943 72.9266C48.2141 72.9643 48.1431 73.0199 48.0863 73.0895C48.0295 73.159 47.9883 73.2407 47.9659 73.3287C47.9434 73.4167 47.9401 73.5087 47.9563 73.5981C47.9725 73.6876 48.0077 73.7722 48.0595 73.8458C47.9437 73.8542 47.8308 73.887 47.7278 73.9423C47.6248 73.9975 47.5339 74.0739 47.4606 74.1669C47.3657 74.3143 47.3141 74.4871 47.3122 74.6641C47.3103 74.8412 47.3582 75.0151 47.45 75.1646C47.3198 75.2173 47.215 75.3208 47.1581 75.4527C46.9734 75.8766 47.3861 77.157 48.3794 79.256C48.4013 79.3024 48.4319 79.3439 48.4693 79.3781C48.5067 79.4123 48.5503 79.4386 48.5976 79.4554C48.6448 79.4722 48.6948 79.4792 48.7447 79.476C48.7946 79.4729 48.8433 79.4596 48.8883 79.437C48.9332 79.4144 48.9733 79.3828 49.0064 79.3442C49.0396 79.3055 49.065 79.2605 49.0812 79.2117C49.0975 79.1629 49.1043 79.1112 49.1012 79.0597C49.0982 79.0082 49.0853 78.9578 49.0634 78.9114C48.6182 77.9913 48.2325 77.0418 47.909 76.0689C48.6447 76.6106 50.1844 78.3556 50.3068 79.1516C50.3228 79.2545 50.3777 79.3465 50.4595 79.4076C50.5412 79.4686 50.6431 79.4936 50.7427 79.477C50.8422 79.4605 50.9314 79.4037 50.9904 79.3193C51.0495 79.2349 51.0737 79.1297 51.0577 79.0268C50.9315 78.2104 49.9587 77.0337 49.4168 76.4316C49.2722 76.2564 49.1168 76.091 48.9517 75.9363C48.5724 75.578 48.2658 75.1455 48.0496 74.6638C48.1476 74.5398 48.7108 74.7195 49.1546 75.0116C50.1128 75.7896 50.9554 76.7084 51.6558 77.7386C51.7033 77.8249 51.7807 77.8894 51.8724 77.9191C51.964 77.9488 52.0632 77.9415 52.1499 77.8987C52.2366 77.8559 52.3044 77.7808 52.3396 77.6885C52.3749 77.5962 52.3749 77.4935 52.3398 77.4011C51.823 76.2785 49.7117 74.4668 49.6205 74.3922C49.3329 74.166 49.0671 73.9115 48.8271 73.6323C50.0643 73.935 51.2334 74.4817 52.2699 75.2423C52.3104 75.2725 52.3563 75.2941 52.4049 75.3059C52.4535 75.3178 52.5039 75.3196 52.5532 75.3114C52.6025 75.3031 52.6497 75.2849 52.6922 75.2577C52.7347 75.2306 52.7715 75.1951 52.8007 75.1532C52.8299 75.1114 52.8509 75.064 52.8623 75.0138C52.8738 74.9636 52.8756 74.9115 52.8676 74.8606C52.8595 74.8097 52.8419 74.7609 52.8156 74.7171C52.7894 74.6732 52.755 74.6351 52.7145 74.6049Z" fill="black"/>
<path d="M40.1333 77.2599C39.3298 76.567 38.4084 76.0346 37.4163 75.6899C38.1504 74.9729 39.0731 74.4958 40.0687 74.3185C41.1753 74.1426 41.3759 73.7101 41.3493 73.3765C41.2969 72.7084 40.3043 72.4282 39.3771 72.4282C37.6815 72.5448 36.0592 73.186 34.7214 74.2682C34.2783 74.6081 33.9507 74.8523 33.6726 75.0846C32.9874 71.7699 32.1345 68.4946 31.1174 65.2721L31.6601 64.046C32.5172 63.861 33.2751 63.3485 33.782 62.611C33.9743 62.3888 34.2015 62.14 34.5732 61.7365C35.3636 64.2801 35.9443 66.8883 36.309 69.5331C36.3153 69.5851 36.3317 69.6353 36.3572 69.6807C36.3826 69.7261 36.4166 69.7658 36.4571 69.7974C36.4977 69.829 36.5439 69.8519 36.5931 69.8647C36.6424 69.8775 36.6936 69.88 36.7438 69.872C36.794 69.864 36.8421 69.8458 36.8854 69.8182C36.9286 69.7907 36.966 69.7545 36.9955 69.7118C37.025 69.6691 37.0458 69.6207 37.0569 69.5695C37.068 69.5183 37.069 69.4654 37.0599 69.4138C36.685 66.5818 36.0487 63.7934 35.1599 61.0865C36.1988 59.9169 37.3327 58.5164 37.503 57.554C37.5843 57.1404 37.5941 56.7151 37.5318 56.298C38.4765 55.2069 39.6127 53.3378 39.3171 49.6467C39.007 45.7821 34.0168 41.4592 31.2953 41.1412C29.856 40.9228 28.3867 41.0759 27.0188 41.5871C22.3714 43.7741 20.6469 50.3179 19.6156 54.2256C19.4302 54.9321 19.2706 55.5366 19.1231 55.9958C18.2905 58.352 17.3259 60.6562 16.2344 62.8967C15.6463 62.9295 15.0661 63.0511 14.5122 63.2578C10.6598 64.7313 8.25436 69.4546 8.38812 75.2848C8.52872 81.5648 8.92544 85.8093 9.14812 92.6388C9.33964 98.5475 10.8627 100.983 16.1857 98.5655C15.0812 104.559 14.5376 110.648 14.5624 116.749C14.5624 116.853 14.6024 116.953 14.6737 117.027C14.7449 117.1 14.8416 117.142 14.9424 117.142C15.0431 117.142 15.1398 117.1 15.2111 117.027C15.2823 116.953 15.3224 116.853 15.3224 116.749V116.736L39.0792 115.839L40.5186 100.519H40.5278C40.5766 100.507 40.6227 100.486 40.6636 100.456C40.7044 100.426 40.7391 100.388 40.7657 100.345C40.7924 100.301 40.8104 100.252 40.8187 100.201C40.827 100.15 40.8255 100.098 40.8143 100.048C40.3756 98.1541 39.8387 96.2862 39.2061 94.4521C39.406 92.9952 39.7009 88.1101 39.789 86.6335C39.7951 86.5298 39.761 86.4278 39.6943 86.3499C39.6276 86.2721 39.5338 86.2247 39.4334 86.2183C39.3831 86.2128 39.3323 86.2182 39.2842 86.2341C39.2361 86.25 39.1917 86.276 39.1538 86.3106C39.116 86.3451 39.0854 86.3874 39.0642 86.4348C39.043 86.4821 39.0315 86.5335 39.0306 86.5857C39.0306 86.6155 38.9508 87.9516 38.8466 89.5318C35.552 90.6786 29.1612 91.4833 26.3826 91.7933C28.4498 90.0459 30.2138 88.2922 31.5772 87.3024C34.2372 85.372 34.6712 83.0178 35.7398 82.0751C35.7845 82.0316 35.8359 81.9961 35.8918 81.9699C36.0438 82.0484 36.2376 82.7133 36.3318 83.0327C36.5378 83.733 36.7323 84.3939 37.2643 84.4348C38.0243 84.496 38.2295 83.3303 38.2827 82.5461C38.3956 82.7693 38.553 82.9653 38.7445 83.1211C38.936 83.277 39.1573 83.3892 39.3938 83.4504C39.8126 83.4857 40.2253 83.2149 40.3628 82.5233C40.5075 82.5239 40.6505 82.4914 40.7816 82.4281C40.9127 82.3648 41.0285 82.2723 41.1208 82.1572C41.2131 82.0422 41.2796 81.9074 41.3154 81.7626C41.3513 81.6178 41.3556 81.4666 41.328 81.3199C41.325 81.2029 41.3258 78.4609 40.1333 77.2599ZM30.5984 77.7348C30.4365 77.1319 29.6826 74.3122 28.994 71.6118C30.5064 71.5922 31.6867 71.5545 32.11 71.5396C32.509 72.9148 32.8013 74.3208 32.984 75.744C32.51 76.2773 32.11 76.876 31.7954 77.5228C31.4344 77.5911 31.0316 77.6618 30.5984 77.7348ZM31.3789 78.395L31.195 78.811C30.2199 81.0184 29.6316 82.3514 28.2462 82.809C27.379 83.0948 22.5462 84.7111 18.5607 86.0942C18.7241 84.5839 18.9567 82.2791 19.1687 80.133C20.6971 79.9422 27.629 79.0622 31.3796 78.395H31.3789ZM31.9002 70.7608C31.3622 70.7781 30.2108 70.8103 28.7949 70.8268C28.5737 69.9484 27.9505 67.4686 27.8137 66.5721C28.6441 66.8045 29.5159 66.8314 30.3582 66.6506C30.4195 66.634 30.4758 66.6018 30.522 66.557C30.5682 66.5121 30.6028 66.4561 30.6227 66.3939C30.6302 66.3802 30.6368 66.3661 30.6424 66.3515C30.9487 67.3712 31.4442 69.0621 31.901 70.7608H31.9002ZM27.7202 65.7368C27.6446 64.431 27.6629 63.1212 27.775 61.8181C28.5797 62.4786 29.4168 63.0959 30.283 63.6676C30.4662 63.7851 30.6621 63.8802 30.8666 63.951L29.9904 65.9292C29.2289 66.0307 28.4553 65.9649 27.7202 65.7361V65.7368ZM37.1078 54.8175C36.8467 55.2372 36.7238 55.7328 36.7574 56.2305C36.8308 56.623 36.8308 57.0264 36.7574 57.419C36.5461 58.6098 33.994 61.1988 33.2188 62.0929C32.2704 63.1872 31.6487 63.6024 30.6858 62.9941C29.705 62.3402 28.7587 61.6327 27.851 60.8746C27.9148 60.0896 28.215 56.9001 28.2849 56.0955C28.6186 52.2294 31.2649 49.3288 31.898 48.6859C35.1751 49.4191 38.6726 51.8368 37.1078 54.8167V54.8175ZM19.8428 56.254C19.9948 55.783 20.1575 55.1645 20.3475 54.443C21.3438 50.6656 23.0075 44.344 27.3281 42.3124C28.573 41.8644 29.9042 41.7335 31.2086 41.9309C33.5821 42.2073 38.2858 46.3191 38.5586 49.7197C38.6859 50.9509 38.5861 52.1959 38.2645 53.3888C38.2595 53.3623 38.2531 53.3361 38.2455 53.3103C38.0699 49.5125 33.1535 48.1748 32.053 47.9236C31.2733 46.2803 30.2207 44.7908 28.9431 43.5229C28.8695 43.4552 28.7734 43.4197 28.6749 43.4238C28.5765 43.4279 28.4834 43.4714 28.4154 43.545C28.3474 43.6186 28.3097 43.7166 28.3103 43.8184C28.3109 43.9202 28.3498 44.0177 28.4187 44.0905C29.5999 45.2721 30.5825 46.6484 31.3264 48.1631C29.2407 50.2705 27.9022 53.0416 27.5264 56.0303C27.1905 59.9326 26.7429 63.3936 26.9823 65.9998C26.9778 66.05 26.9827 66.1007 26.9967 66.149C27.0317 66.4897 27.0798 66.8152 27.1411 67.1255C27.5736 69.3007 29.1422 75.2275 29.7038 77.3305C28.1284 76.5848 23.9955 73.86 22.8471 64.8757C22.8456 64.8622 22.8433 64.8489 22.8403 64.8357C22.0134 60.9209 22.8616 54.5592 22.8707 54.4956C22.8776 54.4446 22.8748 54.3926 22.8623 54.3426C22.8498 54.2927 22.8279 54.2458 22.7978 54.2046C22.7677 54.1634 22.7301 54.1287 22.6871 54.1025C22.644 54.0764 22.5964 54.0592 22.5469 54.0521C22.4474 54.0397 22.347 54.0675 22.2669 54.1299C22.1869 54.1923 22.1333 54.2842 22.1175 54.3865C22.0833 54.6362 21.3423 60.1916 21.9579 64.2241C20.4249 63.4803 18.7736 63.0307 17.0848 62.8975C18.1286 60.7401 19.0496 58.5216 19.8428 56.2533V56.254ZM14.7721 63.9949C17.5172 62.9422 21.2914 64.7438 22.1206 65.1724C22.3886 67.0876 22.8575 68.9669 23.519 70.7773C21.956 70.7802 20.3978 70.599 18.8746 70.2373C16.5232 69.4193 11.6341 69.0943 10.1642 69.0126C10.5607 67.896 11.174 66.8748 11.9664 66.0119C12.7588 65.1489 13.7135 64.4622 14.7721 63.9941V63.9949ZM9.8838 69.7827C10.9068 69.8361 16.2503 70.1509 18.6306 70.9791C20.3385 71.3836 22.086 71.583 23.8382 71.5733C25.5649 75.6412 27.9026 77.3117 29.206 77.9609C25.558 78.5308 20.7564 79.1439 19.25 79.333C19.4986 76.8148 19.706 74.7015 19.706 74.6592C19.716 74.5557 19.6858 74.4524 19.6222 74.3719C19.5585 74.2914 19.4665 74.2403 19.3663 74.2298C19.2664 74.2207 19.167 74.2523 19.0894 74.3179C19.0117 74.3834 18.9619 74.4777 18.9506 74.5807C18.9506 74.6238 18.7446 76.7049 18.4984 79.1957C15.4873 77.5527 10.3976 77.0071 9.18992 76.8972C9.11848 74.5037 9.03944 72.3591 9.8838 69.7819V69.7827ZM9.21728 77.6893C10.5708 77.8203 15.6932 78.4115 18.4133 80.0443C18.1982 82.2101 17.9626 84.5376 17.7992 86.0456C15.5458 85.5126 11.0002 86.4381 9.65352 86.7395C9.45136 82.8616 9.31304 80.4532 9.21728 77.6885V77.6893ZM9.69532 87.5347C10.6993 87.3102 14.5456 86.5001 16.8591 86.6908C15.5055 87.1681 14.3708 87.581 13.7074 87.8472C12.0805 88.3961 10.7076 89.5469 9.85264 91.0782C9.80476 89.8246 9.7508 88.6549 9.69836 87.5339L9.69532 87.5347ZM38.7858 90.3764C38.684 91.8577 38.567 93.3869 38.472 94.1703C36.6852 94.5942 25.8955 97.0371 21.5764 95.4342C22.9809 94.4922 24.2045 93.5682 25.2822 92.7C26.603 92.5689 34.6134 91.7353 38.7858 90.3756V90.3764ZM40.3818 81.7336C40.0391 79.8496 39.751 79.2373 38.9014 78.5198C38.2812 77.9962 36.8349 76.6758 36.8205 76.6625C36.7449 76.5936 36.6459 76.5585 36.5453 76.565C36.4446 76.5714 36.3506 76.6189 36.2839 76.697C36.2172 76.7751 36.1832 76.8773 36.1895 76.9813C36.1958 77.0852 36.2418 77.1823 36.3174 77.2512C36.3766 77.3054 37.7887 78.5944 38.4203 79.1266C39.0974 79.6989 39.3163 80.0976 39.6507 81.9699C39.6439 82.4809 39.5223 82.6238 39.4394 82.6669C39.1506 82.6457 38.478 81.5679 38.0714 80.3653C37.876 79.9513 37.5959 79.586 37.2504 79.2947C36.9049 79.0035 36.5023 78.7932 36.0704 78.6784C35.9754 78.6495 35.8733 78.6601 35.7857 78.7078C35.6982 78.7555 35.6321 78.8367 35.6016 78.934C35.5711 79.0312 35.5786 79.137 35.6224 79.2287C35.6662 79.3204 35.743 79.3908 35.8363 79.4249C36.1584 79.5102 36.4601 79.6628 36.7229 79.8733C36.9856 80.0838 37.2038 80.3477 37.3639 80.6487C37.6114 81.6074 37.5951 82.6185 37.3168 83.5681C36.9983 82.9213 36.8767 81.4486 36.1008 81.2131C35.261 80.9556 34.4645 82.4126 34.0153 83.1992C33.3252 84.5646 32.3401 85.7478 31.1364 86.6571C29.5214 87.8283 27.7582 89.6888 24.9804 91.9425C24.929 91.9559 24.8809 91.9803 24.8391 92.0141C24.7973 92.0479 24.7629 92.0904 24.738 92.1388C22.7386 93.7442 20.6305 95.1999 18.43 96.4947C15.01 98.5129 12.8501 99.1315 11.644 98.4337C10.6142 97.8394 10.0791 96.2043 9.93092 93.16C10.4971 91.2894 10.9432 89.7932 13.984 88.5749C16.6721 87.4986 27.1632 83.9889 28.4802 83.5548C30.3438 82.9393 31.0262 81.0828 32.0895 78.6799C33.0273 76.5604 33.5973 76.1161 35.1781 74.9001C36.3867 73.9162 37.8535 73.3298 39.3885 73.2171C39.7598 73.2031 40.1299 73.27 40.4746 73.4134C40.3068 73.4767 40.1327 73.5207 39.9555 73.5445C38.6744 73.769 37.5009 74.4238 36.6168 75.4073L36.0491 75.2102C35.9551 75.1825 35.8543 75.1932 35.7677 75.2402C35.6812 75.2872 35.6155 75.3669 35.5844 75.4627C35.5533 75.5584 35.5591 75.6629 35.6006 75.7543C35.6421 75.8458 35.7162 75.9171 35.8074 75.9536C36.9755 76.3595 38.7205 76.9286 39.6074 77.8203C40.4046 78.6234 40.5718 80.6134 40.5749 81.3866C40.6144 81.6331 40.4647 81.7673 40.3834 81.7328L40.3818 81.7336Z" fill="black"/>
<path fill-rule="evenodd" clip-rule="evenodd" d="M126.016 97.9595L80.6392 97.1038L86.3065 16.018L134.376 14.269L126.016 97.9595Z" fill="white"/>
<path d="M120.845 93.8948L84.1518 93.1255C84.1004 93.1244 84.0497 93.1126 84.0028 93.0907C83.9559 93.0688 83.9138 93.0373 83.879 92.9981C83.8443 92.9589 83.8176 92.9129 83.8006 92.8627C83.7836 92.8125 83.7767 92.7593 83.7802 92.7063L88.6769 19.1981C88.6834 19.1008 88.7248 19.0096 88.793 18.9421C88.8611 18.8746 88.9511 18.8358 89.0455 18.8331L131.073 17.5841C131.128 17.5826 131.182 17.593 131.232 17.6149C131.282 17.6367 131.327 17.6693 131.364 17.7106C131.401 17.7519 131.428 17.8009 131.445 17.8542C131.462 17.9076 131.468 17.964 131.462 18.0198L129.535 36.0411C129.522 36.1437 129.471 36.2372 129.393 36.3018C129.315 36.3665 129.215 36.3974 129.116 36.388C129.066 36.3824 129.018 36.3667 128.974 36.3418C128.931 36.317 128.892 36.2835 128.861 36.2432C128.83 36.203 128.806 36.1568 128.793 36.1073C128.779 36.0578 128.774 36.0059 128.78 35.9547L130.656 18.3817L89.4118 19.6071L84.566 92.3491L120.853 93.1098C120.954 93.1108 121.05 93.1532 121.121 93.2275C121.191 93.3019 121.23 93.4021 121.229 93.5062C121.228 93.6103 121.187 93.7097 121.115 93.7826C121.043 93.8555 120.946 93.8958 120.845 93.8948Z" fill="black"/>
<path d="M136.645 16.4819L134.653 14.0037C134.615 13.9642 134.571 13.9329 134.521 13.9116C134.472 13.8902 134.419 13.8794 134.365 13.8796L86.2904 15.6255C86.1965 15.6287 86.1072 15.6677 86.0395 15.735C85.9719 15.8023 85.9308 15.893 85.9241 15.9897L80.2598 97.0755C80.2561 97.1287 80.2628 97.182 80.2797 97.2324C80.2966 97.2827 80.3233 97.329 80.3581 97.3684C80.3928 97.4077 80.435 97.4394 80.482 97.4614C80.529 97.4834 80.5798 97.4952 80.6314 97.4963L122.016 98.3519C122.116 98.3529 122.213 98.3124 122.285 98.2395C122.357 98.1665 122.398 98.067 122.399 97.9629C122.4 97.8589 122.361 97.7587 122.29 97.6844C122.22 97.6101 122.123 97.5679 122.023 97.5669L81.0464 96.7191L86.6582 16.3979L133.953 14.6803L131.63 37.9391C131.62 38.0424 131.65 38.1457 131.714 38.2264C131.777 38.307 131.869 38.3584 131.969 38.3693L131.608 41.9795C131.608 41.9795 132.318 42.361 132.77 42.5439C132.764 42.59 132.764 42.6368 132.77 42.6829C132.79 42.789 132.848 42.8835 132.933 42.9469C133.018 43.0104 133.123 43.0381 133.226 43.0243C133.274 43.0183 133.32 43.0022 133.361 42.977C133.402 42.9518 133.437 42.9181 133.465 42.8779C133.493 42.8378 133.513 42.7922 133.523 42.7438C133.532 42.6955 133.533 42.6456 133.523 42.5973C133.546 41.9646 135.847 23.7502 136.732 16.7865C136.739 16.7323 136.734 16.6772 136.719 16.6248C136.704 16.5724 136.679 16.5238 136.645 16.4819Z" fill="black"/>
<path d="M128.672 29.2798C128.671 29.2278 128.66 29.1764 128.639 29.129C128.618 29.0817 128.588 29.0393 128.55 29.0047C128.512 28.97 128.468 28.9438 128.42 28.9276C128.372 28.9115 128.322 28.9058 128.271 28.9109L125.626 29.0679L126.037 24.0745C126.045 23.9708 126.014 23.868 125.949 23.7885C125.884 23.709 125.791 23.6594 125.69 23.6506C125.591 23.6468 125.494 23.6813 125.418 23.7475C125.342 23.8137 125.292 23.9068 125.279 24.0086L124.86 29.1111L119.214 29.447L119.67 24.058C119.674 24.0065 119.669 23.9545 119.654 23.9052C119.639 23.8558 119.614 23.81 119.582 23.7704C119.55 23.7307 119.51 23.698 119.466 23.6741C119.422 23.6502 119.373 23.6355 119.323 23.631C119.273 23.6264 119.223 23.6321 119.175 23.6476C119.127 23.6632 119.083 23.6883 119.045 23.7215C119.006 23.7548 118.975 23.7955 118.951 23.8414C118.928 23.8872 118.914 23.9374 118.91 23.9889L118.447 29.4981L113.355 29.8011L113.774 24.0431C113.782 23.939 113.749 23.8361 113.683 23.7571C113.617 23.678 113.523 23.6293 113.422 23.6216C113.322 23.6139 113.222 23.6478 113.146 23.716C113.069 23.7841 113.022 23.8809 113.014 23.985L112.587 29.8466L106.887 30.1857L107.103 25.4561C107.108 25.352 107.072 25.2502 107.004 25.1732C106.937 25.0961 106.842 25.05 106.741 25.0452C106.64 25.0403 106.542 25.0769 106.467 25.1471C106.392 25.2172 106.348 25.3151 106.343 25.4192L106.123 30.2313L100.052 30.5924L100.265 25.438C100.267 25.3865 100.259 25.335 100.242 25.2866C100.225 25.2381 100.199 25.1936 100.165 25.1556C100.131 25.1176 100.09 25.0868 100.045 25.065C99.9998 25.0432 99.9508 25.0309 99.9009 25.0287C99.851 25.0265 99.8012 25.0344 99.7543 25.0521C99.7074 25.0698 99.6643 25.0968 99.6275 25.1317C99.5907 25.1666 99.5609 25.2086 99.5398 25.2554C99.5187 25.3021 99.5068 25.3527 99.5046 25.4043L99.288 30.6371L93.9498 30.955L94.3298 25.4333C94.3333 25.3819 94.327 25.3302 94.3111 25.2813C94.2953 25.2324 94.2703 25.1872 94.2376 25.1483C94.2048 25.1093 94.1649 25.0774 94.1203 25.0544C94.0756 25.0314 94.0269 25.0177 93.9771 25.0141C93.8772 25.0098 93.7795 25.0452 93.7041 25.1129C93.6286 25.1806 93.5811 25.2756 93.5713 25.3784L93.1867 31.0006L90.4553 31.1631C90.4054 31.1645 90.3563 31.1761 90.3107 31.1971C90.2651 31.2182 90.224 31.2483 90.1897 31.2858C90.1554 31.3233 90.1286 31.3673 90.1108 31.4155C90.093 31.4637 90.0845 31.515 90.0859 31.5665C90.0873 31.6181 90.0985 31.6688 90.1189 31.7159C90.1393 31.763 90.1685 31.8054 90.2048 31.8409C90.241 31.8763 90.2837 31.904 90.3303 31.9224C90.377 31.9408 90.4267 31.9495 90.4766 31.9481L93.1366 31.7911L92.7946 36.8048L90.4454 36.9438C90.3446 36.9467 90.2491 36.9909 90.1798 37.0665C90.1106 37.1422 90.0732 37.2432 90.0761 37.3473C90.0789 37.4514 90.1216 37.5501 90.1949 37.6216C90.2681 37.6931 90.3659 37.7317 90.4667 37.7288L92.7406 37.5946L92.3842 42.8054L89.6657 42.9804C89.5649 42.987 89.4707 43.0346 89.404 43.1129C89.3372 43.1911 89.3032 43.2936 89.3096 43.3977C89.3159 43.5018 89.3621 43.599 89.4378 43.668C89.5136 43.7369 89.6127 43.772 89.7135 43.7654L92.3302 43.5967L91.9654 48.9347L89.6497 49.0917C89.5489 49.0985 89.4549 49.1465 89.3883 49.2249C89.3218 49.3034 89.2881 49.406 89.2948 49.5101C89.3014 49.6142 89.3478 49.7113 89.4238 49.78C89.4998 49.8488 89.5991 49.8835 89.6999 49.8767L91.9114 49.7259L91.5793 54.5929C91.5758 54.6445 91.5822 54.6962 91.5981 54.7452C91.6139 54.7942 91.639 54.8395 91.6718 54.8785C91.7381 54.9573 91.8319 55.0056 91.9327 55.0129C92.0335 55.0202 92.133 54.9858 92.2092 54.9174C92.2855 54.8489 92.3323 54.752 92.3393 54.6479L92.679 49.6757L98.5242 49.2777L98.3031 54.6204C98.2987 54.7245 98.3346 54.8261 98.4028 54.9029C98.471 54.9797 98.5659 55.0253 98.6667 55.0298C98.7675 55.0343 98.8659 54.9972 98.9402 54.9268C99.0145 54.8563 99.0587 54.7583 99.0631 54.6542L99.2872 49.2259L105.283 48.8177L104.97 55.6715C104.965 55.7754 105.001 55.8769 105.069 55.9537C105.136 56.0305 105.231 56.0764 105.332 56.0813H105.349C105.447 56.0814 105.541 56.0425 105.612 55.9728C105.683 55.9031 105.725 55.8078 105.729 55.7069L106.046 48.7651L111.244 48.4119L110.712 55.6747C110.705 55.7788 110.738 55.8817 110.804 55.9607C110.87 56.0398 110.963 56.0885 111.064 56.0962C111.165 56.1039 111.265 56.07 111.341 56.0018C111.418 55.9336 111.465 55.8369 111.472 55.7328L112.009 48.3593L113.216 48.2808C113.266 48.2773 113.314 48.2637 113.359 48.2408C113.404 48.2178 113.444 48.186 113.476 48.1472C113.509 48.1083 113.534 48.0632 113.55 48.0143C113.566 47.9654 113.573 47.9138 113.569 47.8624C113.567 47.8107 113.554 47.76 113.532 47.7134C113.51 47.6668 113.48 47.6252 113.442 47.5912C113.404 47.5571 113.36 47.5312 113.313 47.5151C113.265 47.499 113.215 47.4929 113.165 47.4973L112.067 47.5719L112.447 42.3038L113.378 42.2433C113.479 42.2369 113.573 42.1894 113.64 42.1114C113.706 42.0334 113.74 41.9312 113.734 41.8273C113.732 41.7754 113.72 41.7244 113.699 41.6774C113.677 41.6304 113.647 41.5885 113.609 41.5541C113.571 41.5197 113.527 41.4936 113.48 41.4774C113.432 41.4612 113.381 41.4553 113.331 41.4599L112.504 41.5133L112.876 36.4108L117.892 36.114L117.796 37.2539C117.791 37.3054 117.797 37.3573 117.812 37.4067C117.827 37.4561 117.851 37.5019 117.883 37.5415C117.915 37.5812 117.955 37.6139 117.999 37.6378C118.044 37.6617 118.092 37.6764 118.142 37.6809C118.192 37.6854 118.242 37.6798 118.29 37.6642C118.338 37.6487 118.382 37.6236 118.421 37.5904C118.459 37.5571 118.491 37.5164 118.514 37.4705C118.537 37.4246 118.551 37.3745 118.556 37.3229L118.661 36.0669L121.321 35.9099C121.422 35.9039 121.516 35.8569 121.583 35.7794C121.65 35.7018 121.684 35.6 121.678 35.4963C121.678 35.4439 121.667 35.3922 121.647 35.3445C121.626 35.2967 121.596 35.254 121.558 35.2191C121.52 35.1843 121.476 35.158 121.427 35.142C121.379 35.1261 121.328 35.1208 121.278 35.1265L118.725 35.2772L119.15 30.2493L124.798 29.9133L124.418 34.5236C124.41 34.6277 124.442 34.731 124.507 34.8108C124.572 34.8906 124.665 34.9404 124.766 34.9491C124.867 34.9579 124.967 34.9249 125.044 34.8575C125.122 34.79 125.17 34.6937 125.178 34.5896L125.567 29.8678L128.32 29.7045C128.37 29.7009 128.419 29.6869 128.464 29.6635C128.509 29.6401 128.549 29.6077 128.582 29.5682C128.615 29.5287 128.64 29.4828 128.655 29.4333C128.67 29.3838 128.676 29.3317 128.672 29.2798ZM112.533 30.6324L112.168 35.6564L106.624 35.9837L106.852 30.9723L112.533 30.6324ZM106.091 31.0155L105.863 36.0277L99.8155 36.3849L100.023 31.3766L106.091 31.0155ZM105.826 36.8158L105.591 41.9489L99.5677 42.3367L99.782 37.173L105.826 36.8158ZM93.8989 31.7408L99.2584 31.4221L99.0509 36.4304L93.5568 36.7546L93.8989 31.7408ZM93.5029 37.5443L99.0182 37.2178L98.8047 42.3862L93.1472 42.7504L93.5029 37.5443ZM92.7285 48.8781L93.0932 43.5401L98.772 43.1743L98.5516 48.4817L92.7285 48.8781ZM99.3154 48.4299L99.535 43.1257L105.556 42.7379L105.314 48.0241L99.3154 48.4299ZM111.297 47.6143L106.077 47.9699L106.318 42.6884L111.681 42.3438L111.297 47.6143ZM111.738 41.5533L106.354 41.8995L106.588 36.7703L112.11 36.4437L111.738 41.5533ZM117.956 35.3126L112.934 35.6093L113.299 30.5853L118.378 30.2831L117.956 35.3126Z" fill="black"/>
<path d="M98.9333 36.1054L96.9064 34.2818L98.2888 32.9662C98.3618 32.8953 98.4047 32.7976 98.4083 32.6942C98.4118 32.5908 98.3757 32.4901 98.3078 32.4141C98.2399 32.3381 98.1457 32.2928 98.0456 32.2881C97.9456 32.2835 97.8478 32.3198 97.7735 32.3892L96.3295 33.7637L94.7829 32.3727C94.7453 32.3388 94.7016 32.313 94.6543 32.2966C94.607 32.2801 94.557 32.2735 94.5072 32.277C94.4574 32.2806 94.4088 32.2942 94.3641 32.3172C94.3194 32.3401 94.2795 32.3719 94.2467 32.4108C94.214 32.4496 94.1889 32.4948 94.173 32.5437C94.1571 32.5925 94.1507 32.6441 94.1541 32.6956C94.1575 32.747 94.1707 32.7972 94.193 32.8434C94.2152 32.8895 94.246 32.9307 94.2836 32.9646L95.7679 34.2991L94.2676 35.727C94.1947 35.7979 94.1517 35.8956 94.1482 35.999C94.1446 36.1024 94.1807 36.2031 94.2486 36.2791C94.3165 36.3551 94.4108 36.4004 94.5108 36.4051C94.6109 36.4097 94.7087 36.3734 94.7829 36.304L96.344 34.8172L98.4347 36.7012C98.472 36.7371 98.516 36.7649 98.5639 36.7829C98.6118 36.8009 98.6627 36.8087 98.7136 36.8059C98.7646 36.8032 98.8144 36.7899 98.8602 36.7668C98.9061 36.7437 98.9469 36.7113 98.9804 36.6716C99.0139 36.6319 99.0392 36.5856 99.055 36.5355C99.0708 36.4854 99.0767 36.4326 99.0723 36.3801C99.0679 36.3277 99.0533 36.2767 99.0295 36.2301C99.0056 36.1836 98.9729 36.1425 98.9333 36.1093V36.1054Z" fill="black"/>
<path d="M111.626 40.9542L110.018 39.6362L111.664 37.9492C111.7 37.9131 111.729 37.8699 111.749 37.8221C111.769 37.7742 111.78 37.7228 111.78 37.6707C111.781 37.6186 111.771 37.5668 111.752 37.5186C111.733 37.4703 111.705 37.4264 111.67 37.3894C111.634 37.3525 111.592 37.3232 111.545 37.3033C111.499 37.2835 111.449 37.2734 111.398 37.2737C111.348 37.274 111.298 37.2847 111.251 37.3051C111.205 37.3255 111.163 37.3553 111.128 37.3926L109.419 39.144L107.588 37.6415C107.549 37.6094 107.505 37.5855 107.457 37.5713C107.409 37.5571 107.358 37.5528 107.309 37.5586C107.259 37.5644 107.211 37.5803 107.167 37.6053C107.124 37.6303 107.085 37.6639 107.054 37.7043C107.023 37.7446 107 37.7909 106.986 37.8405C106.972 37.8901 106.968 37.942 106.974 37.9932C106.98 38.0445 106.995 38.0941 107.019 38.1392C107.043 38.1843 107.076 38.224 107.115 38.2561L108.878 39.7029L107.076 41.55C107.04 41.5861 107.011 41.6293 106.991 41.6772C106.971 41.725 106.96 41.7764 106.959 41.8286C106.959 41.8807 106.968 41.9324 106.987 41.9807C107.006 42.0289 107.034 42.0728 107.07 42.1098C107.106 42.1467 107.148 42.176 107.195 42.1959C107.241 42.2157 107.291 42.2258 107.342 42.2255C107.392 42.2252 107.442 42.2146 107.488 42.1941C107.535 42.1737 107.577 42.1439 107.612 42.1066L109.477 40.1951L111.154 41.5712C111.233 41.6361 111.333 41.6658 111.434 41.654C111.534 41.6421 111.625 41.5896 111.688 41.508C111.751 41.4264 111.78 41.3224 111.768 41.2188C111.757 41.1152 111.706 41.0206 111.627 40.9558L111.626 40.9542Z" fill="black"/>
<path d="M105.252 66.6497C105.37 66.3953 105.399 66.1067 105.334 65.833C105.268 65.5592 105.113 65.3172 104.895 65.148C104.07 64.5789 102.819 65.5115 101.537 65.7635C100.525 65.9636 100.23 65.9205 99.9133 65.2681C99.8434 65.1177 99.7637 64.9724 99.6747 64.8332C99.5044 64.5711 99.3334 64.5797 98.5248 64.8984C98.1871 65.0408 97.8402 65.1589 97.4866 65.2517C96.6132 65.4448 95.7177 65.5101 94.8266 65.4455C94.7264 65.4366 94.6337 65.3869 94.5689 65.3074C94.5041 65.228 94.4724 65.1252 94.4808 65.0216C94.4912 64.9187 94.5397 64.8239 94.6162 64.7571C94.6927 64.6902 94.7912 64.6565 94.8912 64.6629C95.7015 64.7191 96.5154 64.6605 97.3103 64.4886C98.4723 64.2021 99.585 63.2923 100.305 64.3944C100.413 64.5619 100.51 64.7371 100.594 64.9188C100.621 64.9804 100.653 65.0397 100.689 65.0962C100.926 65.08 101.163 65.0451 101.395 64.9918C102.669 64.7422 104.083 63.6455 105.317 64.4949C105.573 64.6658 105.781 64.9024 105.922 65.1814C106.063 65.4604 106.132 65.7724 106.121 66.0869C107.278 65.4309 108.544 65.0031 109.853 64.8254C111.406 64.8254 112.159 65.8302 113.156 65.4149C114.487 64.9863 115.849 64.6692 117.229 64.4667C117.279 64.459 117.329 64.4615 117.377 64.474C117.426 64.4864 117.471 64.5086 117.511 64.5393C117.551 64.5699 117.585 64.6084 117.611 64.6526C117.637 64.6968 117.654 64.7458 117.661 64.7967C117.669 64.8477 117.666 64.8997 117.654 64.9497C117.642 64.9997 117.621 65.0468 117.591 65.0882C117.561 65.1297 117.524 65.1647 117.481 65.1912C117.438 65.2178 117.391 65.2354 117.342 65.243C116.021 65.4386 114.717 65.7394 113.441 66.1426C113.099 66.2615 112.737 66.3076 112.378 66.2784C112.018 66.2491 111.668 66.145 111.348 65.9723C110.875 65.7563 110.367 65.6335 109.85 65.6104C108.735 65.6104 106.541 66.7196 105.784 67.1498C105.714 67.189 105.635 67.2049 105.556 67.1952C105.477 67.1855 105.404 67.1506 105.345 67.0956C105.287 67.0405 105.246 66.9679 105.23 66.888C105.213 66.8081 105.221 66.7248 105.252 66.6497Z" fill="black"/>
<path d="M94.4384 74.1166C94.3535 74.1165 94.2711 74.0869 94.2043 74.0327C94.1375 73.9785 94.0902 73.9027 94.07 73.8175C94.0498 73.7323 94.0578 73.6425 94.0928 73.5626C94.1277 73.4826 94.1876 73.417 94.2629 73.3764C95.168 72.8865 97.3576 71.7969 98.1146 72.1989C98.3786 72.3584 98.5875 72.5994 98.7119 72.8881C98.8981 73.2421 98.9992 73.4376 99.8215 73.2539C101.427 72.892 102.583 71.2412 103.824 71.9869C104.964 72.673 104.3 73.2759 105.966 72.859C107.983 72.3496 110.29 72.7413 111.898 72.7413C113.46 72.7413 113.764 72.0348 114.266 71.8566C114.361 71.8234 114.465 71.8303 114.555 71.8759C114.645 71.9215 114.714 72.0021 114.747 72.1C114.78 72.198 114.774 72.3053 114.73 72.3987C114.687 72.4921 114.609 72.5639 114.515 72.5984C113.761 73.2383 112.805 73.5686 111.83 73.5263C110.074 73.5059 107.985 73.1581 106.146 73.6213C104.03 74.1574 104.287 73.1738 103.441 72.6644C102.742 72.2428 101.621 73.6511 99.9826 74.0201C98.1115 74.4424 98.1837 73.122 97.7642 72.8959C97.4663 72.7766 95.9995 73.3269 94.6148 74.0734C94.5602 74.1023 94.4997 74.1171 94.4384 74.1166Z" fill="black"/>
<path d="M91.4519 74.933C91.2126 74.917 90.9827 74.831 90.7889 74.6852C90.5951 74.5394 90.4453 74.3396 90.3572 74.1093C90.269 73.879 90.246 73.6275 90.2909 73.3842C90.3358 73.1409 90.4466 72.9158 90.6106 72.735C90.7141 72.6157 90.8401 72.5197 90.981 72.4528C91.1219 72.386 91.2747 72.3498 91.4297 72.3464C91.5847 72.3431 91.7387 72.3728 91.8822 72.4336C92.0257 72.4943 92.1555 72.5849 92.2636 72.6997C92.4368 72.8772 92.5566 73.1027 92.6086 73.3489C92.6607 73.5951 92.6427 73.8516 92.557 74.0875C92.4712 74.3234 92.3213 74.5287 92.1253 74.6787C91.9292 74.8287 91.6954 74.917 91.4519 74.933Z" fill="black"/>
<path d="M91.6444 66.429C91.4007 66.4124 91.1667 66.3234 90.9708 66.1726C90.775 66.0217 90.6255 65.8156 90.5405 65.579C90.4555 65.3424 90.4386 65.0855 90.4918 64.8392C90.545 64.5929 90.6661 64.3678 90.8404 64.191C91.0107 64.0222 91.2264 63.9103 91.4592 63.87C91.692 63.8296 91.9312 63.8628 92.1456 63.965C92.3599 64.0672 92.5394 64.2338 92.6607 64.443C92.782 64.6522 92.8394 64.8943 92.8255 65.1377C92.8333 65.4703 92.7135 65.7926 92.4923 66.0345C92.2711 66.2763 91.9664 66.4181 91.6444 66.429Z" fill="black"/>
<path fill-rule="evenodd" clip-rule="evenodd" d="M55.3994 126.07L39.4196 143.465L8.64648 139.806L33.6573 125.101L55.3994 126.07Z" fill="white"/>
<path d="M39.3768 143.873C39.3008 143.873 40.0053 144 8.55881 140.211C8.4791 140.202 8.40434 140.167 8.34523 140.111C8.28612 140.055 8.24569 139.981 8.22975 139.899C8.2138 139.818 8.22315 139.734 8.25646 139.658C8.28977 139.583 8.34532 139.52 8.41517 139.48C28.977 127.382 32.7086 125.169 33.4268 124.788C33.6373 124.677 33.5894 124.722 33.6304 124.722L55.374 125.69C55.4468 125.693 55.517 125.718 55.5765 125.761C55.6359 125.805 55.682 125.865 55.7093 125.935C55.7366 126.004 55.744 126.081 55.7305 126.154C55.717 126.228 55.6832 126.297 55.6332 126.351L39.6519 143.747C39.6168 143.786 39.5742 143.817 39.5269 143.839C39.4796 143.861 39.4285 143.872 39.3768 143.873ZM9.80065 139.568L39.2324 143.068L54.5084 126.44L33.7064 125.509L9.80065 139.568Z" fill="black"/>
<path fill-rule="evenodd" clip-rule="evenodd" d="M85.3633 124.19L106.066 134.296L140.95 129.047L148.474 101.929L114.365 104.271L109.115 122.326L85.3633 124.19Z" fill="white"/>
<path d="M148.449 101.535L114.34 103.878C114.263 103.883 114.189 103.913 114.128 103.962C114.068 104.012 114.024 104.08 114.002 104.156L108.826 121.954L85.3343 123.799C85.2506 123.806 85.1713 123.841 85.1088 123.898C85.0462 123.956 85.004 124.034 84.9888 124.119C84.9735 124.205 84.986 124.293 85.0243 124.37C85.0626 124.447 85.1246 124.509 85.2006 124.546C101.195 132.342 104.669 134.087 105.553 134.498C105.723 134.593 105.907 134.656 106.098 134.686L141.003 129.434C141.075 129.423 141.143 129.391 141.198 129.341C141.253 129.291 141.293 129.226 141.313 129.154L148.837 102.035C148.854 101.975 148.856 101.911 148.844 101.85C148.832 101.788 148.806 101.731 148.768 101.682C148.73 101.633 148.682 101.594 148.626 101.568C148.571 101.543 148.51 101.531 148.449 101.535ZM108.612 122.756L108.083 124.828L96.1514 125.837C96.0665 125.844 95.9864 125.881 95.9239 125.941C95.8615 126.001 95.8204 126.08 95.8071 126.167C95.7939 126.254 95.8093 126.343 95.851 126.42C95.8926 126.497 95.958 126.557 96.0366 126.591L106.489 131.095L105.816 133.736L86.8262 124.467L108.612 122.756ZM140.65 128.691L106.579 133.825C110.239 119.459 108.447 125.989 114.653 104.646L147.96 102.359L140.65 128.691Z" fill="black"/>
<path d="M4.07429 117.783C3.9735 117.786 3.87569 117.748 3.80236 117.676C3.72903 117.605 3.68619 117.506 3.68327 117.402C3.68034 117.298 3.71758 117.197 3.78677 117.121C3.85597 117.045 3.95146 117.001 4.05225 116.998L112.377 110.538C112.477 110.531 112.576 110.567 112.652 110.636C112.727 110.706 112.773 110.803 112.779 110.907C112.784 111.011 112.75 111.114 112.683 111.191C112.616 111.269 112.521 111.316 112.421 111.323L4.07429 117.783Z" fill="black"/>
<path d="M66.6223 68.1985C61.3243 67.5179 56.9422 71.4743 56.9422 71.4743C55.597 71.6807 56.2179 74.104 56.7727 75.3993C56.923 75.7676 57.1642 76.0888 57.4723 76.3306C57.7803 76.5725 58.1445 76.7267 58.5283 76.7777C58.5007 77.1789 58.5237 77.5821 58.5967 77.9772C58.6136 78.1379 58.6535 78.295 58.7152 78.4435L58.7008 78.4576C58.7008 78.4576 57.4088 82.4007 62.874 88.7105C62.874 88.7105 63.6081 89.5819 64.3073 90.5655C65.062 89.1525 67.608 84.9763 67.7524 83.5986C68.1339 82.8914 68.558 82.2098 69.0224 81.5576C69.9678 80.3675 71.0873 78.9027 71.3024 77.2825C71.5174 75.6622 71.7454 76.0194 72.3808 74.911C73.0162 73.8026 73.1302 70.8973 73.1302 70.8973C73.1302 70.8973 71.9225 68.8783 66.6223 68.1985Z" fill="#FFD997"/>
<path fill-rule="evenodd" clip-rule="evenodd" d="M58.3635 77.2096C58.3749 77.3776 58.5269 78.3777 58.5269 78.3777C58.5269 78.3777 57.2668 82.2933 62.7001 88.6298C63.5644 89.6301 64.3376 90.7106 65.0097 91.8577C64.6276 91.1135 64.5067 90.2555 64.6677 89.4297C64.7741 88.9469 67.4121 85.1122 67.5785 83.5179C68.0147 82.668 68.5329 81.8659 69.1251 81.1236C69.3736 81.2366 72.2875 82.55 75.9765 83.7769C79.8343 85.0604 81.8354 89.1706 82.9685 90.8176L88.2885 98.5891L80.9165 106.314L77.4015 102.172L75.2104 113.964L54.4472 114.906L48.9144 109.034L47.7744 105.937L45.4876 109.794C45.4876 109.794 43.2296 104.721 41.4672 102.634C40.9412 102.023 40.2862 101.545 39.5528 101.238C38.8194 100.93 38.0273 100.801 37.2378 100.86C37.3138 99.586 40.7642 93.1671 41.4786 90.8592C42.193 88.5513 45.0202 85.1452 49.2876 83.9512C51.8173 83.255 54.1873 82.045 56.2591 80.392C56.7447 79.1949 57.4606 78.1123 58.3635 77.2096Z" fill="#81F8F8"/>
<path fill-rule="evenodd" clip-rule="evenodd" d="M56.9806 69.2833C56.8664 69.9818 56.7956 70.6871 56.7686 71.395C57.1045 71.5921 57.3961 71.8607 57.6238 72.1831C57.8515 72.5055 58.0103 72.8742 58.0894 73.2648C58.5036 74.3437 59.1851 75.2912 60.0654 76.0123C60.0654 76.0123 60.2273 71.6948 61.1758 70.8612L60.2539 69.9553C59.1279 69.9864 58.0095 69.7568 56.9806 69.2833Z" fill="#81F8F8"/>
<path d="M65.9474 79.942C65.3693 79.706 64.8845 79.2768 64.5703 78.7229C64.5477 78.6759 64.5345 78.6247 64.5314 78.5723C64.5284 78.5199 64.5355 78.4674 64.5525 78.4179C64.5694 78.3684 64.5958 78.3229 64.63 78.2842C64.6643 78.2454 64.7057 78.2141 64.7519 78.1922C64.798 78.1702 64.848 78.158 64.8988 78.1564C64.9495 78.1547 65.0001 78.1636 65.0475 78.1825C65.095 78.2014 65.1382 78.2299 65.1748 78.2664C65.2113 78.3028 65.2404 78.3465 65.2603 78.3948C65.5103 78.7734 65.8646 79.0657 66.2772 79.2339C67.1892 79.6814 67.2842 79.6217 67.6452 79.2277C67.8299 79.0236 67.9636 78.1663 67.7288 76.4205C67.7186 76.3192 67.7469 76.2178 67.8077 76.1377C67.8685 76.0576 67.957 76.005 68.0547 75.991C68.1523 75.9771 68.2514 76.0028 68.331 76.0629C68.4106 76.123 68.4644 76.2126 68.4812 76.313C68.8491 79.0479 68.3604 79.5872 68.2 79.767C67.4651 80.5677 66.9209 80.4209 65.9474 79.942Z" fill="black"/>
<path d="M63.4447 72.9431C63.9976 72.4575 64.6929 72.1788 65.4183 72.152C66.1436 72.1252 66.8564 72.352 67.4415 72.7955C67.5105 72.8508 67.5591 72.9289 67.5789 73.0167C67.5987 73.1046 67.5887 73.1968 67.5504 73.2779C67.5121 73.359 67.448 73.4239 67.3688 73.4619C67.2896 73.4999 67.2001 73.5085 67.1155 73.4863C66.0294 73.2022 64.8873 73.2461 63.8247 73.6127C63.7402 73.6476 63.6465 73.65 63.5605 73.6195C63.4744 73.589 63.4019 73.5277 63.3559 73.4467C63.3099 73.3657 63.2936 73.2703 63.3099 73.1779C63.3261 73.0855 63.374 73.0022 63.4447 72.9431Z" fill="black"/>
<path d="M71.9674 74.9087C71.8939 74.9089 71.822 74.8868 71.7607 74.8451C71.2074 74.5554 70.5722 74.4791 69.9694 74.63C69.8859 74.6472 69.7994 74.6349 69.7235 74.5953C69.6476 74.5556 69.5868 74.4908 69.5508 74.4112C69.5148 74.3316 69.5057 74.2418 69.525 74.1563C69.5442 74.0707 69.5907 73.9943 69.657 73.9392C70.0463 73.6656 70.5169 73.5435 70.9851 73.5945C71.4534 73.6455 71.889 73.8664 72.2144 74.2179C72.2734 74.2701 72.3156 74.3396 72.3352 74.4173C72.3547 74.4949 72.3508 74.5769 72.3239 74.6522C72.297 74.7275 72.2484 74.7924 72.1846 74.8383C72.1209 74.8841 72.0451 74.9087 71.9674 74.9087Z" fill="black"/>
<path fill-rule="evenodd" clip-rule="evenodd" d="M63.2456 75.1559C63.2456 75.1559 65.2809 73.8575 66.0994 75.6795C63.805 77.1333 63.2456 75.1559 63.2456 75.1559Z" fill="white"/>
<path fill-rule="evenodd" clip-rule="evenodd" d="M68.645 76.1765C68.645 76.1765 69.4134 75.2816 70.7251 76.6436C68.9148 78.0385 68.645 76.1765 68.645 76.1765Z" fill="white"/>
<path fill-rule="evenodd" clip-rule="evenodd" d="M51.7051 117.12L63.2867 124.255L97.7907 121.162L79.2976 115.503L51.7051 117.12Z" fill="white"/>
<path d="M63.287 124.649C63.2406 124.649 63.2665 124.682 63.0339 124.551C62.4571 124.223 60.2926 122.875 51.5108 117.458C51.4411 117.415 51.3867 117.35 51.3554 117.272C51.3242 117.195 51.3178 117.109 51.3371 117.028C51.3565 116.946 51.4007 116.873 51.4631 116.82C51.5255 116.766 51.603 116.734 51.6841 116.73C74.1915 115.395 78.3373 115.16 79.1254 115.129C79.2555 115.118 79.3864 115.131 79.5122 115.167L97.8989 120.786C97.9835 120.812 98.0567 120.868 98.1057 120.944C98.1548 121.02 98.1767 121.111 98.1677 121.202C98.1587 121.292 98.1194 121.377 98.0565 121.441C97.9935 121.505 97.9109 121.545 97.8229 121.553C97.8229 121.553 63.2984 124.649 63.287 124.649ZM52.9654 117.44L63.3774 123.854L95.7625 120.95L79.2553 115.898L52.9654 117.44Z" fill="black"/>
<path fill-rule="evenodd" clip-rule="evenodd" d="M58.4689 114.575C60.9442 114.777 60.2519 112.787 59.1597 112.411C58.2515 112.097 55.7466 109.868 55.7466 109.868L58.4689 114.575Z" fill="#FFD997"/>
<path fill-rule="evenodd" clip-rule="evenodd" d="M52.9067 110.012L52.0973 108.547C51.3151 108.389 50.5053 108.465 49.7634 108.766C47.5913 109.681 46.9856 110.764 46.9856 110.764C45.9165 111.044 44.8089 111.133 43.7107 111.027L45.1274 108.807C45.1274 108.807 42.1231 101.515 38.751 101.048C38.2221 100.963 37.6839 100.963 37.155 101.048C37.155 101.048 34.7313 105.248 33.4492 106.448C32.1671 107.647 28.5282 112.688 29.8438 116.766C31.1593 120.843 40.1197 118.08 41.7173 117.829C43.0225 117.668 44.3367 117.597 45.651 117.617C45.651 117.617 46.5341 118.906 49.5863 118.099C50.5006 117.928 51.3758 117.582 52.1665 117.078C52.1665 117.078 53.859 116.915 54.3796 116.13C54.3796 116.13 56.3792 117.551 57.4356 117.138C58.492 116.725 57.2783 115.112 56.7812 114.584C56.2842 114.056 52.9067 110.012 52.9067 110.012Z" fill="#FFD997"/>
<path d="M66.3944 75.4535C66.3099 75.2263 66.1805 75.0198 66.0145 74.847C65.8484 74.6743 65.6494 74.5392 65.43 74.4503C64.6798 74.2389 63.8816 74.3058 63.1743 74.6395C63.1289 74.6608 63.0879 74.6911 63.0538 74.7288C63.0197 74.7664 62.9931 74.8106 62.9755 74.8589C62.9579 74.9071 62.9497 74.9585 62.9514 75.01C62.953 75.0615 62.9645 75.1122 62.9851 75.1592C63.0057 75.2061 63.0351 75.2484 63.0715 75.2837C63.1079 75.3189 63.1507 75.3464 63.1975 75.3645C63.2442 75.3827 63.2939 75.3911 63.3438 75.3894C63.3937 75.3878 63.4427 75.3759 63.4882 75.3546C63.6533 75.2814 63.8241 75.2231 63.9989 75.1804C63.9963 75.3256 64.0428 75.4672 64.1304 75.5807C64.2096 75.6927 64.3184 75.7786 64.4438 75.8281C64.5692 75.8777 64.7058 75.8887 64.8371 75.8599C64.9684 75.8311 65.0888 75.7638 65.1839 75.6659C65.279 75.568 65.3447 75.4438 65.373 75.3083C65.5166 75.425 65.6273 75.5792 65.6937 75.755C65.7111 75.805 65.7382 75.8509 65.7733 75.8898C65.8084 75.9287 65.8508 75.9599 65.8979 75.9813C65.945 76.0028 65.9959 76.0142 66.0474 76.0147C66.0988 76.0153 66.1499 76.005 66.1974 75.9846C66.245 75.9641 66.288 75.9339 66.3239 75.8958C66.3597 75.8576 66.3877 75.8124 66.4062 75.7627C66.4246 75.713 66.4331 75.66 66.431 75.6069C66.429 75.5537 66.4166 75.5016 66.3944 75.4535Z" fill="black"/>
<path d="M71.1207 76.083C70.7735 75.7868 70.3482 75.6052 69.9 75.5617C69.4517 75.5182 69.0011 75.6147 68.6066 75.8389C68.5624 75.8629 68.5233 75.8957 68.4914 75.9354C68.4595 75.9751 68.4355 76.0209 68.4208 76.0702C68.406 76.1195 68.4008 76.1713 68.4054 76.2226C68.4101 76.274 68.4245 76.3239 68.4478 76.3695C68.4711 76.4151 68.5028 76.4556 68.5413 76.4885C68.5797 76.5214 68.624 76.5462 68.6717 76.5614C68.7194 76.5767 68.7696 76.5821 68.8193 76.5773C68.869 76.5725 68.9174 76.5576 68.9615 76.5336L69.0086 76.51C69.0384 76.6121 69.0931 76.7045 69.1677 76.7782C69.2423 76.8519 69.334 76.9043 69.4341 76.9305C69.5341 76.9567 69.639 76.9556 69.7385 76.9275C69.838 76.8993 69.9288 76.845 70.002 76.7699C70.1024 76.6671 70.1632 76.5301 70.173 76.3844C70.3294 76.4366 70.4719 76.5256 70.5894 76.6443C70.6615 76.7171 70.7586 76.7574 70.8595 76.7563C70.9603 76.7552 71.0566 76.7128 71.1271 76.6384C71.1977 76.5639 71.2367 76.4636 71.2357 76.3595C71.2346 76.2553 71.1935 76.1559 71.1214 76.083H71.1207Z" fill="black"/>
<path d="M72.9823 76.1788L69.1063 75.0335C69.0585 75.0186 69.0082 75.0136 68.9585 75.0191C68.9088 75.0245 68.8606 75.0401 68.8169 75.0651C68.7731 75.09 68.7346 75.1238 68.7036 75.1643C68.6727 75.2049 68.6499 75.2514 68.6366 75.3012L68.4178 76.0752C67.9887 75.8949 67.5198 75.8405 67.0627 75.9182L67.3272 74.9919C67.3557 74.8923 67.3449 74.785 67.297 74.6936C67.2492 74.6023 67.1682 74.5342 67.0718 74.5044L62.9678 73.2437C62.9147 73.2271 62.8586 73.2228 62.8037 73.231C62.7487 73.2392 62.6962 73.2597 62.6498 73.2912C62.6033 73.3226 62.5641 73.3641 62.5349 73.4129C62.5057 73.4617 62.4872 73.5164 62.4806 73.5734L57.964 71.9147C57.8703 71.8845 57.7689 71.8929 57.6811 71.9381C57.5933 71.9833 57.5258 72.0619 57.4928 72.1574C57.4598 72.2528 57.4639 72.3578 57.5041 72.4502C57.5443 72.5427 57.6176 72.6155 57.7086 72.6534L62.3165 74.3466L61.7586 76.9858C61.7375 77.0854 61.7547 77.1896 61.8066 77.2763C61.8585 77.3631 61.9411 77.4255 62.0368 77.4505L65.9554 78.4765C66.0503 78.5009 66.1507 78.4865 66.2357 78.4364C66.3206 78.3862 66.3835 78.3041 66.4114 78.2072L66.8248 76.7621C67.2786 76.6121 67.7699 76.6401 68.205 76.8406L67.882 77.9843C67.8538 78.0843 67.8654 78.1918 67.914 78.2831C67.9626 78.3744 68.0443 78.442 68.1411 78.471C68.238 78.5001 68.342 78.4882 68.4304 78.438C68.5188 78.3878 68.5842 78.3034 68.6123 78.2033L69.2644 75.8931L72.407 76.8233L71.6728 79.4656L68.3858 78.5315C68.2886 78.5038 68.1847 78.5171 68.0969 78.5686C68.0092 78.62 67.9449 78.7054 67.9181 78.8058C67.8913 78.9063 67.9042 79.0136 67.954 79.1042C68.0038 79.1948 68.0864 79.2613 68.1837 79.289L71.8317 80.326C71.9283 80.3535 72.0316 80.3405 72.119 80.2898C72.2064 80.2391 72.2709 80.1547 72.2983 80.0551L73.2415 76.6624C73.2688 76.5628 73.2568 76.4561 73.2083 76.3655C73.1597 76.2749 73.0785 76.2078 72.9823 76.1788ZM65.7866 77.6232L62.5794 76.7833L63.1456 74.1143L66.4957 75.1418L65.7866 77.6232Z" fill="black"/>
<path d="M59.1951 115.082C59.0943 115.084 58.9968 115.045 58.9239 114.973C58.8511 114.901 58.8089 114.802 58.8067 114.698C58.8045 114.594 58.8424 114.493 58.9121 114.418C58.9818 114.343 59.0776 114.299 59.1784 114.297L74.7386 113.59L77.0391 102.012C77.0593 101.91 77.1179 101.821 77.202 101.763C77.286 101.706 77.3888 101.685 77.4875 101.706C77.5863 101.727 77.673 101.788 77.7286 101.874C77.7842 101.961 77.8041 102.067 77.7839 102.169L75.4241 114.047C75.4073 114.133 75.3631 114.211 75.2986 114.268C75.2342 114.324 75.1532 114.357 75.0685 114.361L59.1951 115.082Z" fill="black"/>
<path fill-rule="evenodd" clip-rule="evenodd" d="M87.0318 112.896C89.6378 113.112 95.961 113.57 96.8791 112.306C98.2927 110.358 95.2907 106.879 95.2907 106.879C94.3179 105.017 88.2835 98.5906 88.2835 98.5906L82.0827 105.113L84.9638 107.782C84.9638 107.782 83.1011 109.595 81.4929 109.058C79.8848 108.521 77.3312 107.183 75.8879 108.188C74.4447 109.193 69.8505 114.848 70.8012 115.322C71.752 115.796 73.7204 113.477 73.7204 113.477C73.7783 113.618 73.8651 113.744 73.9747 113.847C74.0844 113.95 74.2144 114.027 74.3557 114.073C74.497 114.119 74.6463 114.133 74.7933 114.114C74.9402 114.094 75.0814 114.042 75.207 113.961C75.4831 114.145 75.7947 114.264 76.1201 114.311C76.4455 114.358 76.7769 114.33 77.091 114.231C77.5304 114.439 78.011 114.537 78.494 114.518C78.977 114.498 79.4488 114.362 79.8711 114.119C81.0709 114.263 82.2849 114.216 83.4712 113.981C84.6735 113.58 87.0318 112.896 87.0318 112.896Z" fill="#FFD997"/>
<path fill-rule="evenodd" clip-rule="evenodd" d="M57.6088 117.159C58.2966 116.743 57.1262 114.951 56.0455 113.759C54.9456 112.56 53.9109 111.299 52.9462 109.982L48.811 103.594L50.369 102.359L59.2086 115.879L59.7778 117.37L58.8111 117.998L57.6088 117.159Z" fill="white"/>
<path d="M95.0884 105.879C94.9524 105.722 93.6566 103.721 88.5669 98.3268C85.6667 94.6836 82.5188 88.6839 79.2447 85.266C77.1798 83.1088 73.3266 82.4894 72.233 82.0726C71.3894 81.7515 70.2494 81.2177 69.725 80.9681C70.6202 79.9099 71.2319 78.6282 71.4996 77.2503C71.6972 75.7408 71.8552 76.2008 72.5294 75.0272C72.6242 74.8562 72.7033 74.6765 72.7657 74.4903C73.3122 73.9981 76.3096 71.1548 75.7951 68.3461C75.311 65.7061 73.0682 63.8394 72.5134 63.4124C72.2999 62.6447 71.9057 61.9436 71.3662 61.3714C70.8266 60.7993 70.1583 60.374 69.421 60.1334C66.8073 59.2213 61.9988 61.5056 60.529 61.504C59.0591 61.5025 58.3386 60.5872 57.1325 61.9052C56.8911 62.1645 56.7193 62.4843 56.6339 62.8331C56.5485 63.1819 56.5524 63.5476 56.6454 63.8944C56.7073 64.106 56.7238 64.3291 56.6938 64.5481C56.6637 64.767 56.5878 64.9766 56.4713 65.1621C55.627 66.4142 55.4544 68.3484 56.5709 69.4357C56.4683 70.1006 56.4189 70.7364 56.4022 71.092C55.044 71.658 55.6627 74.0978 56.2502 75.4762C56.3997 75.8414 56.6261 76.1676 56.9127 76.4313C57.1994 76.6949 57.5393 76.8895 57.9077 77.0007C57.068 77.9165 56.3998 78.9852 55.937 80.1525C53.9198 81.7275 51.6284 82.8876 49.1875 83.5696C44.4861 84.8853 41.7843 88.5779 41.1155 90.7382C40.4133 93.0084 36.9849 99.3662 36.8595 100.8C36.7486 100.943 34.4275 105.001 33.1933 106.156C31.782 107.478 28.1271 112.688 29.483 116.889C30.0986 118.798 32.143 119.362 34.4085 119.362C37.4219 119.362 40.8488 118.363 41.7729 118.216C43.0045 118.064 44.2444 117.994 45.4848 118.008C45.8648 118.376 47.0435 119.176 49.6549 118.484C50.5921 118.307 51.4912 117.959 52.3103 117.456C53.0786 117.384 53.8145 117.102 54.4429 116.64C55.0577 117.033 56.4873 117.839 57.4722 117.539L58.6236 118.344C59.9704 119.101 59.9308 119.099 60.0676 119.099C60.1245 119.099 60.1806 119.086 60.2319 119.061C60.2832 119.035 60.3282 118.998 60.3638 118.953C60.3994 118.907 60.4246 118.853 60.4375 118.796C60.4505 118.739 60.4508 118.68 60.4385 118.622C60.362 118.145 60.2571 117.673 60.1246 117.209C59.5926 115.815 59.5752 115.737 59.5235 115.657L59.0675 114.96C61.0822 114.795 60.9492 112.919 59.3342 112.06C58.5568 111.646 56.0662 109.806 55.3511 109.276C50.3351 101.604 50.6695 102.074 50.5403 102.007C51.2243 100.855 51.925 99.6888 52.4403 98.8504C52.4944 98.7625 52.5125 98.6561 52.4906 98.5544C52.4688 98.4528 52.4087 98.3643 52.3236 98.3084C52.2386 98.2525 52.1355 98.2338 52.0371 98.2564C51.9387 98.279 51.853 98.341 51.7988 98.4289C51.0951 99.571 50.0554 101.316 49.1685 102.814L48.5787 103.285C48.502 103.345 48.4505 103.434 48.4347 103.532C48.4189 103.631 48.4399 103.732 48.4936 103.815L48.5384 103.883L47.7131 105.284C46.7912 103.696 43.0246 97.4405 40.8442 97.2364C40.1901 97.1796 39.5325 97.2905 38.9298 97.5591C39.9938 95.2535 41.4028 92.3922 41.8398 90.9816C42.5854 88.5732 45.4832 85.4238 49.3866 84.331C51.6133 83.7055 53.7241 82.7028 55.633 81.3637C55.6018 81.5904 55.5881 81.8193 55.592 82.0483C55.6414 84.6074 57.6341 90.8254 57.964 93.2691C57.9744 93.3488 58.0084 93.4234 58.0613 93.4825C58.1142 93.5417 58.1834 93.5826 58.2596 93.5997C58.3358 93.6169 58.4152 93.6094 58.4871 93.5783C58.559 93.5473 58.62 93.4941 58.6616 93.4261C58.6753 93.4049 59.984 91.2924 61.8597 91.0247C62.3692 90.9752 62.8831 91.0419 63.3648 91.2203C63.8466 91.3987 64.2844 91.6844 64.6474 92.057C64.7728 93.156 65.5518 100.008 65.814 102.117C65.8254 102.212 65.8704 102.3 65.9404 102.364C66.0105 102.427 66.1008 102.462 66.194 102.461H68.0514C68.1522 102.461 68.2489 102.42 68.3201 102.346C68.3914 102.273 68.4314 102.173 68.4314 102.069C68.4314 101.965 68.3914 101.865 68.3201 101.791C68.2489 101.718 68.1522 101.676 68.0514 101.676H66.5276C66.2168 99.1197 65.4408 92.287 65.3876 91.8388C65.3683 91.4047 65.4838 90.9756 65.7175 90.6142C65.7415 90.5943 65.7701 90.5813 65.8006 90.5765C65.831 90.5717 65.8621 90.5752 65.8908 90.5867C67.1836 91.1736 68.4149 91.8957 69.5654 92.7415C69.6249 92.7831 69.6947 92.8064 69.7665 92.8087C69.8383 92.811 69.9093 92.7921 69.9713 92.7544C70.0332 92.7167 70.0834 92.6616 70.1163 92.5955C70.1491 92.5295 70.1631 92.4552 70.1566 92.3812C70.0162 90.8199 70.0083 89.2489 70.1331 87.6861C70.3611 86.0455 69.4286 82.5216 69.1914 81.6628L69.237 81.6055C69.6436 81.8018 70.9782 82.4384 71.9677 82.8144C73.1146 83.2509 76.8051 83.842 78.7021 85.8233C81.2595 88.4923 84.0646 93.2581 85.9722 96.0582C83.1397 97.8166 80.102 102.315 79.2174 103.686L77.7658 101.921C77.5317 100.485 77.2186 96.9923 77.2155 96.9562C77.2062 96.8521 77.1573 96.7561 77.0795 96.6892C77.0017 96.6224 76.9013 96.5902 76.8006 96.5998C76.6998 96.6094 76.6068 96.6599 76.5421 96.7403C76.4774 96.8207 76.4462 96.9243 76.4555 97.0284C76.4859 97.3715 76.9161 101.981 77.0704 102.278C77.1122 102.356 76.9784 102.19 80.618 106.605C80.6522 106.646 80.6945 106.68 80.742 106.704C80.7895 106.727 80.8414 106.741 80.8941 106.743C80.9469 106.745 80.9995 106.735 81.0485 106.715C81.0975 106.695 81.142 106.664 81.1789 106.625L82.0909 105.659L84.3709 107.775C83.81 108.223 82.6115 109.023 81.5984 108.688C79.8915 108.118 77.287 106.739 75.6636 107.866C74.4005 108.746 70.1817 113.682 70.2828 115.135C70.2868 115.249 70.3205 115.36 70.3804 115.456C70.4404 115.552 70.5243 115.629 70.6233 115.68C71.5573 116.146 72.958 114.864 73.6754 114.097C73.8604 114.312 74.1081 114.459 74.3811 114.515C74.6541 114.572 74.9376 114.535 75.1886 114.411C75.7622 114.737 76.4345 114.825 77.0688 114.657C77.5289 114.853 78.0249 114.943 78.522 114.92C79.0192 114.897 79.5055 114.763 79.947 114.525C81.1575 114.671 82.3828 114.615 83.576 114.358C84.4788 114.057 86.16 113.558 87.0507 113.299C88.8785 113.509 97.0143 114.298 97.5668 111.895C98.1193 109.491 95.2131 106.028 95.0884 105.879ZM45.2043 117.222C43.65 117.159 42.0946 117.31 40.579 117.672C38.0223 118.257 31.231 119.811 30.2072 116.64C28.97 112.806 32.3892 107.971 33.707 106.737C35.0249 105.503 37.3839 101.422 37.4842 101.248L37.4911 101.235C38.1856 101.218 38.8755 101.357 39.5128 101.643C40.1501 101.929 40.7196 102.354 41.1816 102.89C42.5122 104.723 43.655 106.694 44.5918 108.771L43.5574 110.63C42.322 110.465 41.1281 110.059 40.0394 109.434C38.9488 108.813 37.7488 108.424 36.5103 108.29C35.2718 108.156 34.0199 108.28 32.8285 108.654C32.7381 108.693 32.6657 108.766 32.6262 108.859C32.5868 108.951 32.5835 109.056 32.6169 109.151C32.6502 109.246 32.7178 109.324 32.8055 109.369C32.8932 109.413 32.9943 109.422 33.0876 109.391C35.292 108.73 37.6598 108.994 39.6776 110.124C41.6241 111.285 43.8998 111.716 46.1186 111.342C45.2106 113.15 44.89 115.212 45.2043 117.223V117.222ZM57.3035 116.77C56.7145 117.001 55.5016 116.408 54.7613 115.919L50.9856 112.745C50.9469 112.712 50.9024 112.688 50.8545 112.673C50.8067 112.659 50.7565 112.654 50.7069 112.659C50.6573 112.664 50.6091 112.68 50.5652 112.704C50.5213 112.729 50.4825 112.762 50.451 112.802C50.4195 112.842 50.3959 112.888 50.3817 112.937C50.3674 112.987 50.3627 113.038 50.3678 113.09C50.3729 113.141 50.3878 113.191 50.4115 113.236C50.4352 113.281 50.4674 113.322 50.5061 113.354L53.828 116.146C53.3255 116.442 52.7674 116.625 52.191 116.681C50.8942 116.202 49.6559 115.568 48.5012 114.793C48.4161 114.737 48.3131 114.718 48.2147 114.741C48.1162 114.764 48.0305 114.826 47.9764 114.913C47.9223 115.001 47.9042 115.108 47.9261 115.209C47.9479 115.311 48.008 115.4 48.0931 115.456C49.0946 116.113 50.1435 116.69 51.2304 117.183C50.6715 117.421 50.091 117.601 49.4976 117.719C49.0119 117.845 47.875 117.174 47.2252 116.66C47.1857 116.627 47.1403 116.603 47.0918 116.589C47.0433 116.575 46.9925 116.571 46.9424 116.577C46.8924 116.584 46.8441 116.6 46.8003 116.626C46.7565 116.652 46.7181 116.687 46.6874 116.728C46.6567 116.769 46.6342 116.816 46.6214 116.867C46.6085 116.917 46.6055 116.97 46.6124 117.021C46.6194 117.073 46.6363 117.123 46.662 117.167C46.6877 117.212 46.7218 117.251 46.7623 117.282C47.0846 117.536 47.4236 117.766 47.7769 117.971C47.1432 118.032 46.511 117.841 46.0076 117.439C45.8959 116.787 45.3654 113.023 47.4851 110.785C49.4694 108.69 51.2851 108.807 51.7798 108.888L52.6386 110.216C53.6128 111.546 54.6579 112.818 55.7691 114.028C56.5314 114.757 57.1061 115.67 57.4411 116.685C57.4035 116.726 57.356 116.756 57.3035 116.772V116.77ZM58.9854 112.757C59.5531 113.06 59.8617 113.547 59.794 113.813C59.7462 114.003 59.4087 114.222 58.5887 114.184H58.5606L56.5595 111.122C57.4266 111.75 58.5005 112.501 58.9854 112.759V112.757ZM58.8706 116.061L59.3092 117.212L58.8182 117.531L58.1456 117.06C58.1634 117.007 58.1762 116.951 58.1836 116.895V116.886C58.4443 116.073 57.6227 114.913 57.0542 114.311C56.5891 113.816 53.4906 110.039 53.2497 109.745L49.325 103.681L50.2804 102.923L58.8706 116.061ZM49.0051 104.6L51.2501 108.068C50.5244 108.087 49.8103 108.262 49.1533 108.58L48.1964 105.974L49.0051 104.6ZM48.4731 108.953C47.884 109.331 47.345 109.787 46.8695 110.308C46.0748 110.593 45.2362 110.723 44.3957 110.694L44.9892 109.626C45.0827 109.83 45.1367 109.95 45.1412 109.957C45.1701 110.022 45.2154 110.077 45.2723 110.117C45.3292 110.157 45.3956 110.181 45.4644 110.185C45.5332 110.189 45.6017 110.174 45.6627 110.141C45.7238 110.108 45.7749 110.058 45.8108 109.997L47.6986 106.821L48.4731 108.953ZM40.7773 98.016C42.2586 98.1549 45.5182 102.961 47.2252 105.966C47.2388 105.989 47.2548 106.011 47.273 106.031L45.5319 108.97C44.8532 107.514 43.1675 104.049 41.7547 102.376C41.2492 101.781 40.6286 101.303 39.933 100.971C39.2373 100.639 38.4821 100.462 37.716 100.45C37.9191 99.856 38.1517 99.273 38.413 98.7036C38.4833 98.6963 38.5504 98.6692 38.6068 98.6251C39.2439 98.177 40.0082 97.9625 40.7773 98.016ZM57.2746 69.9177C58.1595 70.276 59.1101 70.4283 60.0585 70.3635C60.2184 70.589 60.4082 70.7901 60.6224 70.9609C60.0486 71.9532 59.8214 73.9675 59.734 75.167C59.1598 74.615 58.7231 73.9281 58.461 73.1644C58.277 72.3607 57.8155 71.654 57.1629 71.1768C57.1728 70.9091 57.2047 70.4365 57.2746 69.9177ZM58.5666 92.2635C58.0111 89.4995 56.3991 84.1646 56.3581 82.031C56.3284 80.4555 57.3955 78.8604 58.0605 78.0236C58.0775 78.141 58.1047 78.2566 58.1418 78.369C57.0892 82.7775 62.087 88.6525 63.059 89.5599C63.3972 89.8783 63.6977 90.2369 63.9543 90.6283C61.9593 89.6243 60.0167 90.5145 58.5621 92.2635H58.5666ZM64.5121 88.7938C64.319 89.0243 64.197 89.3091 64.1618 89.6117C63.9778 89.3869 63.7795 89.175 63.5682 88.9775C62.3644 87.8557 58.6191 83.1292 58.7612 79.4468C59.4406 80.3307 60.3944 81.2413 61.6196 82.9118C63.5127 85.496 64.997 85.5494 65.8839 85.5847C66.0637 85.61 66.2467 85.5879 66.4159 85.5203C65.9155 86.69 65.2744 87.7898 64.5076 88.7938H64.5121ZM69.3875 87.5715C69.2588 88.9255 69.2458 90.2886 69.3488 91.6449C68.3279 90.9056 67.2268 90.2922 66.0678 89.8174C65.8438 89.761 65.6076 89.7881 65.401 89.8939C65.1944 89.9998 65.0306 90.1776 64.9385 90.396C64.8859 90.2163 64.8711 90.0271 64.8952 89.841C64.9193 89.655 64.9818 89.4764 65.0783 89.3174C66.2914 87.7454 67.195 85.9435 67.7383 84.0131C67.8774 83.7831 68.4763 82.7438 68.6328 82.4871C68.9581 83.787 69.5509 86.3501 69.383 87.5715H69.3875ZM68.4102 81.4226C67.4928 82.0122 65.8436 82.1943 64.1504 80.7946C64.1113 80.7624 64.0665 80.7385 64.0186 80.7241C63.9706 80.7098 63.9203 80.7053 63.8707 80.7111C63.821 80.7168 63.773 80.7325 63.7292 80.7575C63.6855 80.7824 63.6469 80.8159 63.6157 80.8562C63.5845 80.8966 63.5613 80.9428 63.5474 80.9924C63.5336 81.0419 63.5293 81.0939 63.5348 81.1451C63.5403 81.1964 63.5556 81.2461 63.5797 81.2913C63.6038 81.3364 63.6363 81.3763 63.6754 81.4085C64.2197 81.9007 64.8649 82.2591 65.5625 82.4568C66.2602 82.6545 66.9921 82.6863 67.7034 82.5499C67.4488 82.9879 66.4615 84.8075 66.0929 84.8075L65.9151 84.7997C65.1148 84.7699 63.9049 84.7212 62.2291 82.4376C60.3762 79.9115 58.9056 78.8266 58.8091 77.8572C58.7634 77.4982 58.738 77.1367 58.7331 76.7746C58.744 76.72 58.7436 76.6636 58.7318 76.6091C58.7199 76.5547 58.697 76.5034 58.6645 76.4589C58.632 76.4143 58.5906 76.3774 58.5432 76.3506C58.4958 76.3238 58.4434 76.3078 58.3896 76.3036C58.0742 76.2588 57.7757 76.1295 57.5237 75.9286C57.2717 75.7276 57.075 75.4621 56.9532 75.1583C56.4766 74.0468 56.1582 72.6149 56.4713 72.0277C56.5214 71.9259 56.6073 71.8478 56.7115 71.8095C57.2259 72.178 57.5868 72.7333 57.7223 73.3646C58.155 74.5266 58.8818 75.5473 59.8267 76.3201C59.8817 76.3655 59.9478 76.3943 60.0176 76.4032C60.0875 76.4121 60.1584 76.4007 60.2224 76.3705C60.2864 76.3402 60.341 76.2921 60.3801 76.2317C60.4192 76.1712 60.4412 76.1008 60.4438 76.0281C60.5024 74.4707 60.7912 72.1533 61.2654 71.3589C62.5204 71.8406 63.9082 71.7947 65.1308 71.231C65.6226 71.5527 66.1729 71.7674 66.7479 71.8619C67.3229 71.9563 67.9105 71.9286 68.4748 71.7805C68.9741 71.9202 70.9934 72.4038 72.5187 71.5968C72.4585 72.4594 72.3113 73.3131 72.0794 74.1441C71.9342 74.576 71.7051 74.9727 71.4061 75.3098C70.9859 75.8235 70.7531 76.4728 70.7479 77.1452C70.5123 78.9593 68.9824 80.6227 68.4056 81.4226H68.4102ZM80.9372 105.764L79.7326 104.309C80.39 103.28 83.5965 98.4132 86.4206 96.6995C87.0575 97.6132 87.5249 98.2373 87.7788 98.5678L80.9372 105.764ZM82.6366 105.094L88.2857 99.1526C89.2098 100.142 92.2802 103.456 93.8823 105.538C92.7443 105.082 91.518 104.91 90.3035 105.037C88.3862 105.338 86.5658 106.106 84.9926 107.277L82.6366 105.094ZM96.8486 111.709C96.5796 112.872 91.5712 113.029 87.0818 112.506C86.9739 112.496 86.9701 112.506 86.4495 112.663C86.5091 112.615 86.5535 112.55 86.5772 112.477C86.6009 112.403 86.6027 112.323 86.5825 112.248C86.5554 112.148 86.4908 112.063 86.403 112.012C86.3153 111.961 86.2114 111.948 86.1144 111.976C85.3413 112.344 84.6244 112.827 83.9864 113.409C83.7584 113.48 83.5478 113.549 83.3632 113.61C82.2279 113.828 81.0673 113.868 79.9204 113.73C79.8354 113.72 79.7497 113.741 79.6779 113.789C79.163 114.107 78.5521 114.215 77.9641 114.093L79.3321 113.115C79.415 113.056 79.4716 112.965 79.4896 112.863C79.5075 112.76 79.4853 112.655 79.4279 112.569C79.3704 112.484 79.2824 112.425 79.1832 112.406C79.084 112.388 78.9818 112.411 78.8989 112.47L76.9229 113.883C76.6196 113.988 76.2914 113.988 75.9881 113.883L77.9839 112.35C78.0282 112.321 78.0663 112.283 78.0957 112.238C78.1251 112.194 78.1453 112.143 78.1549 112.09C78.1645 112.037 78.1634 111.982 78.1516 111.929C78.1398 111.877 78.1175 111.827 78.0863 111.784C78.055 111.74 78.0154 111.704 77.9699 111.677C77.9245 111.65 77.8741 111.633 77.822 111.628C77.7699 111.622 77.7173 111.627 77.6673 111.644C77.6173 111.66 77.5712 111.687 77.5317 111.722C74.5373 114.036 75.2258 113.499 75.0237 113.625C74.9665 113.673 74.9006 113.709 74.83 113.73C74.7593 113.752 74.6851 113.759 74.6119 113.75C74.5386 113.742 74.4677 113.719 74.4032 113.682C74.3388 113.645 74.282 113.595 74.2363 113.535L77.0757 110.875C77.1127 110.84 77.1427 110.799 77.164 110.752C77.1853 110.705 77.1976 110.655 77.2 110.603C77.2024 110.552 77.195 110.5 77.1782 110.452C77.1614 110.403 77.1354 110.359 77.1019 110.32C77.0684 110.282 77.0279 110.251 76.9827 110.229C76.9376 110.207 76.8887 110.195 76.8389 110.192C76.789 110.19 76.7391 110.197 76.6922 110.215C76.6452 110.232 76.6019 110.259 76.565 110.293C74.4727 112.256 73.5158 113.137 73.449 113.218C72.6434 114.167 71.5429 115.068 71.0679 114.995C71.1796 114.013 74.6399 109.54 76.115 108.514C77.3744 107.634 79.8634 108.921 81.391 109.431C83.1344 110.017 85.0283 108.268 85.2244 108.081C86.7478 106.912 88.5197 106.136 90.3924 105.817C91.9611 105.663 93.5349 106.053 94.8642 106.927C94.9059 106.959 94.9531 106.982 95.0033 106.996C95.8728 108.197 97.1579 110.326 96.8402 111.709H96.8486Z" fill="black"/>
<path d="M59.1951 115.082C59.0943 115.084 58.9968 115.045 58.9239 114.973C58.8511 114.901 58.8089 114.802 58.8067 114.698C58.8045 114.594 58.8424 114.493 58.9121 114.418C58.9818 114.343 59.0776 114.299 59.1784 114.297L70.9721 113.759C71.0224 113.755 71.0731 113.761 71.1209 113.778C71.1687 113.795 71.2126 113.822 71.2498 113.857C71.2871 113.892 71.3169 113.935 71.3374 113.983C71.3578 114.031 71.3685 114.082 71.3688 114.134C71.371 114.186 71.3634 114.237 71.3464 114.286C71.3294 114.334 71.3033 114.379 71.2697 114.417C71.236 114.455 71.1954 114.486 71.1502 114.508C71.105 114.529 71.0561 114.542 71.0063 114.544L59.1951 115.082Z" fill="black"/>
<path fill-rule="evenodd" clip-rule="evenodd" d="M122.311 100.038L123.027 103.66L114.395 104.24L112.4 110.93L97.4024 111.771C97.4024 111.771 95.4067 105.123 96.1545 102.702C96.5345 101.482 99.1687 100.161 102.317 99.9941C109.042 99.6393 122.311 100.038 122.311 100.038Z" fill="white"/>
<path d="M97.4229 112.162C97.3421 112.162 97.2633 112.136 97.1981 112.086C97.1329 112.037 97.0847 111.967 97.0604 111.888C96.9768 111.611 95.0183 105.093 95.7943 102.582C96.2503 101.105 99.1679 99.7672 102.299 99.5993C108.961 99.2476 122.189 99.6385 122.323 99.6424C122.408 99.6451 122.491 99.6775 122.556 99.7345C122.622 99.7915 122.667 99.8697 122.684 99.9564L123.4 103.578C123.411 103.633 123.411 103.69 123.399 103.745C123.387 103.8 123.363 103.851 123.33 103.896C123.297 103.941 123.256 103.977 123.208 104.004C123.16 104.03 123.107 104.046 123.052 104.049L114.68 104.613L112.763 111.044C112.74 111.12 112.695 111.188 112.634 111.237C112.573 111.287 112.498 111.316 112.421 111.32L97.4229 112.162ZM102.338 100.387C99.2979 100.544 96.8339 101.8 96.5185 102.821C95.9007 104.82 97.3295 110.066 97.7003 111.362L112.115 110.552L114.031 104.125C114.054 104.049 114.098 103.982 114.159 103.932C114.219 103.883 114.293 103.854 114.369 103.848L122.568 103.299L122 100.424C116.893 100.278 107.468 100.116 102.338 100.383V100.387Z" fill="black"/>
<path fill-rule="evenodd" clip-rule="evenodd" d="M114.773 49.2988C115.254 49.9218 115.531 50.6861 115.565 51.4819C115.45 52.4592 116.716 54.7444 117.626 55.4956C118.164 55.9553 118.63 56.4984 119.007 57.1056C119.27 57.7289 119.825 59.7848 122.475 58.0476L123.88 60.4631C125.676 58.5312 127.788 56.9421 130.119 55.7688C129.346 55.0151 128.763 54.079 128.418 53.0409C128.073 52.0028 127.977 50.8938 128.139 49.8091C130.742 47.5553 130.079 44.829 128.975 44.6814C127.871 44.5339 126.832 46.6714 126.832 46.6714C121.792 47.0741 120.764 41.9159 120.764 41.9159C119.983 43.6986 121.528 47.0804 121.528 47.0804C120.743 47.8364 116.638 49.0508 114.773 49.2988Z" fill="#FFD997"/>
<path d="M121.534 53.4507C120.373 54.6847 118.424 55.0992 117.354 55.2421C118.023 55.7928 118.595 56.4583 119.045 57.2093C121.374 56.9377 121.534 53.4507 121.534 53.4507Z" fill="white"/>
<path fill-rule="evenodd" clip-rule="evenodd" d="M119.037 49.6725C119.302 49.4462 119.61 49.2797 119.941 49.1835C120.273 49.0874 120.62 49.0639 120.96 49.1144C120.96 49.1144 120.912 49.9779 119.744 50.1349C119.295 50.2291 119.037 49.6725 119.037 49.6725Z" fill="white"/>
<path d="M120.664 48.6128C118.952 48.5429 118.694 49.3287 118.659 49.5736C118.644 49.6468 118.65 49.7227 118.674 49.7929C118.699 49.8632 118.742 49.925 118.799 49.9715C118.855 50.018 118.923 50.0474 118.995 50.0564C119.067 50.0655 119.14 50.0538 119.205 50.0226C119.305 50.113 119.43 50.1685 119.562 50.1814C119.694 50.1942 119.826 50.1636 119.94 50.0939C120.055 50.0243 120.145 49.9192 120.198 49.7936C120.25 49.668 120.264 49.5284 120.235 49.3946C120.351 49.3891 120.483 49.3884 120.631 49.3946C120.731 49.3967 120.828 49.3589 120.902 49.289C120.976 49.2191 121.021 49.1226 121.028 49.0194C121.032 48.9157 120.995 48.8147 120.927 48.7385C120.859 48.6623 120.764 48.6171 120.664 48.6128Z" fill="black"/>
<path d="M118.778 52.92C118.743 52.8826 118.702 52.8526 118.656 52.8317C118.611 52.8108 118.562 52.7993 118.512 52.798C118.462 52.7967 118.412 52.8055 118.366 52.824C118.319 52.8426 118.276 52.8704 118.24 52.9059C118.013 53.1483 117.717 53.3099 117.394 53.3675C117.367 53.3653 117.34 53.3563 117.316 53.3411C117.293 53.3259 117.273 53.3051 117.259 53.2803C117.009 52.9349 117.091 51.5141 117.31 50.3978C117.33 50.2962 117.31 50.1906 117.255 50.104C117.2 50.0174 117.114 49.9568 117.016 49.9354C115.992 49.6505 115.668 50.3036 115.596 50.5124C115.572 50.579 115.567 50.6508 115.58 50.7203C115.593 50.7898 115.623 50.8543 115.669 50.9072C115.715 50.96 115.773 50.9992 115.838 51.0205C115.904 51.0418 115.973 51.0444 116.04 51.0282C116.136 51.1393 116.27 51.2093 116.413 51.2244C116.314 52.0809 116.271 53.2262 116.649 53.7498C116.736 53.8757 116.851 53.978 116.985 54.0483C117.119 54.1185 117.267 54.1545 117.416 54.1533C117.926 54.0862 118.399 53.8479 118.764 53.475C118.8 53.4395 118.829 53.397 118.849 53.3499C118.87 53.3028 118.881 53.252 118.882 53.2004C118.883 53.1489 118.875 53.0976 118.857 53.0495C118.839 53.0014 118.812 52.9574 118.778 52.92Z" fill="black"/>
<path fill-rule="evenodd" clip-rule="evenodd" d="M113.88 49.28C114.364 49.6898 120.547 48.024 121.525 47.082C121.525 47.082 119.979 43.7003 120.761 41.9175C120.761 41.9175 121.79 47.0758 126.829 46.6731C126.829 46.6731 127.865 44.5347 128.972 44.6831C130.078 44.8314 130.743 47.557 128.136 49.8107C128.136 49.8107 127.218 53.0292 130.582 56.2477C133.947 59.4662 136.046 59.7802 135.728 62.5442C135.41 65.3082 135.746 67.2314 137.507 67.7801C139.267 68.3289 140.51 71.3911 137.459 71.994C137.459 71.994 140.333 73.3081 143.349 70.3557C146.366 67.4033 146.02 65.3851 145.198 63.6346C144.377 61.884 142.462 61.6493 143.336 59.9882C143.6 59.5917 143.753 59.1276 143.778 58.6471C143.803 58.1666 143.699 57.6883 143.477 57.2651C143.477 57.2651 141.782 59.9623 140.996 57.8734C140.211 55.7846 140.54 53.6023 138.412 51.4725C136.284 49.3428 136.388 47.7579 136.388 47.7579L137.32 47.3764C136.654 47.2521 136.031 46.9515 135.511 46.5039C134.992 46.0563 134.593 45.477 134.356 44.8228C134.166 44.2086 133.86 43.6394 133.456 43.1485C133.051 42.6575 132.556 42.2545 132 41.9631C132 41.9631 134.415 40.6474 134.416 39.5861C134.416 39.5861 133.466 39.78 131.976 38.0946C130.486 36.4092 124.541 32.2707 120.22 36.4995C120.22 36.4995 112.549 38.462 112.905 44.6737C113.102 48.024 113.156 48.667 113.88 49.28Z" fill="#81F8F8"/>
<path fill-rule="evenodd" clip-rule="evenodd" d="M96.8527 117.559C96.06 118.181 95.0933 118.521 94.0977 118.527C93.039 119.201 91.5046 118.464 91.5046 118.464C90.7524 118.395 90.0307 118.125 89.4108 117.679C89.4108 117.679 86.9826 121.369 86.0866 120.713C85.1905 120.056 88.457 114.738 89.426 113.117C90.395 111.496 94.4481 109.051 96.6194 107.737C98.7907 106.424 100.688 103.235 102.113 99.6613C103.538 96.0872 109.799 88.9327 111.35 87.3211C112.902 85.7095 115.129 81.6165 115.129 81.6165C115.129 81.6165 119.233 80.7844 123.641 85.6922L121.196 89.2867C117.307 94.9772 114.081 96.7748 109.671 101.163C105.261 105.551 102.175 110.165 100.983 111.079C99.7916 111.993 97.9464 116.569 96.8527 117.559Z" fill="#FFD997"/>
<path d="M115.634 48.2924C115.571 48.2924 115.509 48.2762 115.454 48.2452C115.398 48.2142 115.351 48.1695 115.317 48.115C114.465 46.7146 114.107 45.0534 114.304 43.4121C114.311 43.3611 114.328 43.3121 114.354 43.2681C114.38 43.2241 114.415 43.1859 114.455 43.1557C114.496 43.1255 114.541 43.1039 114.59 43.0923C114.639 43.0806 114.689 43.0791 114.738 43.0879C114.838 43.1043 114.927 43.1608 114.986 43.245C115.045 43.3292 115.069 43.4341 115.054 43.5369C114.895 44.9844 115.211 46.445 115.952 47.6848C115.99 47.744 116.011 47.8126 116.014 47.8833C116.017 47.954 116.001 48.0242 115.969 48.0864C115.936 48.1487 115.888 48.2007 115.829 48.237C115.77 48.2732 115.703 48.2924 115.634 48.2924Z" fill="black"/>
<path d="M118.547 47.5003C116.79 47.0042 116.069 44.9554 116.039 44.869C116.005 44.7708 116.011 44.6628 116.054 44.5688C116.097 44.4747 116.175 44.4023 116.27 44.3674C116.365 44.3325 116.47 44.3381 116.561 44.3828C116.652 44.4276 116.722 44.5079 116.756 44.606C116.762 44.6233 117.377 46.3566 118.747 46.7428C118.844 46.7703 118.927 46.8365 118.977 46.927C119.027 47.0175 119.04 47.1247 119.013 47.2252C118.987 47.3256 118.923 47.4111 118.835 47.4627C118.747 47.5143 118.644 47.5278 118.546 47.5003H118.547Z" fill="black"/>
<path d="M140.22 91.3772C142.299 83.8036 144.552 70.6666 144.78 69.3305C146.676 66.8617 146.259 64.991 145.54 63.4579C145.215 62.8274 144.772 62.27 144.237 61.8181C143.523 61.15 143.295 60.8823 143.67 60.1696C143.971 59.7091 144.141 59.1713 144.161 58.6165C144.181 58.0618 144.051 57.5122 143.786 57.0296C143.75 56.9775 143.702 56.9353 143.647 56.9066C143.592 56.8779 143.531 56.8636 143.469 56.8649C143.407 56.8662 143.346 56.8831 143.292 56.9141C143.238 56.9452 143.192 56.9894 143.158 57.0429C142.841 57.5461 142.204 58.2667 141.812 58.2667C141.589 58.2667 141.432 57.9394 141.35 57.7235C140.575 55.666 140.906 53.4154 138.68 51.1837C137.735 50.3628 137.072 49.2496 136.789 48.0091L137.462 47.7336C137.541 47.7015 137.607 47.643 137.65 47.5675C137.693 47.4921 137.711 47.4039 137.699 47.317C137.688 47.2302 137.649 47.1497 137.589 47.0883C137.528 47.027 137.45 46.9883 137.365 46.9784C136.768 46.862 136.21 46.5882 135.745 46.1836C135.28 45.779 134.924 45.2573 134.712 44.6689C134.329 43.5901 133.653 42.6481 132.764 41.956C133.562 41.4465 134.798 40.5084 134.798 39.5782C134.797 39.5219 134.784 39.4666 134.76 39.4159C134.736 39.3651 134.703 39.3201 134.661 39.2836C134.619 39.2471 134.571 39.2201 134.519 39.2042C134.466 39.1882 134.411 39.1838 134.357 39.1912C134.357 39.1912 133.55 39.2807 132.259 37.823C130.298 35.7734 127.696 34.5109 124.917 34.2614C124.022 34.2135 123.126 34.3554 122.286 34.6783C121.446 35.0012 120.679 35.4984 120.032 36.1391C119.12 36.4053 112.239 38.6221 112.528 44.6956L112.548 45.0096C112.758 48.141 112.807 48.8844 113.635 49.587C113.93 49.7231 114.259 49.7613 114.576 49.6961C114.947 50.1979 115.159 50.8056 115.184 51.4364C115.05 52.5833 116.324 54.7727 117.136 55.5726C117.762 56.082 118.295 56.702 118.711 57.404C118.811 57.7658 118.988 58.1001 119.229 58.3823C119.47 58.6645 119.769 58.8876 120.104 59.0352C120.486 59.1233 120.883 59.1288 121.268 59.0514C121.653 58.974 122.018 58.8153 122.341 58.5854L123.45 60.493L123.422 60.5291C123.372 60.5944 123.344 60.6743 123.341 60.7572C123.338 60.8401 123.361 60.9219 123.406 60.9907L124.768 63.0827C122.221 64.6086 120.169 66.8807 118.872 69.6115C117.201 73.4429 115.831 77.4068 114.774 81.465C114.535 81.9015 112.494 85.5745 111.081 87.0425C109.445 88.7428 103.205 95.8926 101.763 99.5098C100.184 103.469 98.2893 106.27 96.3886 107.42C93.3539 109.256 90.0373 111.345 89.1025 112.909L88.9193 113.215C85.8269 118.368 85.0281 120.413 85.8664 121.031C85.9593 121.097 86.0643 121.144 86.1751 121.167C86.286 121.19 86.4002 121.19 86.5109 121.166C87.5087 120.98 88.9322 119.056 89.5167 118.208C90.089 118.597 90.7508 118.822 91.4349 118.861C91.868 119.065 92.337 119.176 92.813 119.186C93.2891 119.196 93.7621 119.105 94.2028 118.919C95.2555 118.896 96.2729 118.523 97.1037 117.854C98.2483 116.815 100.126 112.224 101.208 111.392C102.483 110.416 105.464 105.888 109.932 101.444C113.328 98.0686 117.33 94.8689 120.918 90.3308C121.222 93.2934 122.157 102.152 122.666 103.779C122.694 103.87 122.754 103.948 122.833 103.997C122.913 104.045 123.007 104.063 123.098 104.045C123.189 104.027 123.27 103.976 123.327 103.9C123.384 103.825 123.412 103.73 123.407 103.635L144.266 102.217C144.298 102.28 144.327 102.335 144.352 102.38C144.376 102.426 144.409 102.467 144.448 102.5C144.487 102.533 144.533 102.558 144.582 102.572C144.631 102.587 144.682 102.592 144.732 102.585C144.783 102.579 144.831 102.563 144.876 102.537C144.92 102.511 144.958 102.476 144.989 102.434C145.02 102.393 145.043 102.345 145.055 102.294C145.068 102.244 145.071 102.191 145.064 102.139C145.056 102.087 145.039 102.037 145.013 101.992C144.354 100.798 140.722 92.5233 140.22 91.3772ZM112.643 97.8064C109.18 100.898 106.002 104.314 103.149 108.011C102.423 108.991 101.623 109.909 100.758 110.759C99.4582 111.753 97.6418 116.317 96.6029 117.261C95.8783 117.815 95.0037 118.119 94.1025 118.132C94.0305 118.132 93.9598 118.152 93.8981 118.19C93.0317 118.74 91.6789 118.112 91.6644 118.105C91.6053 118.075 91.5391 118.063 91.4737 118.07C90.8066 117.999 90.1688 117.751 89.6223 117.35C89.5391 117.292 89.437 117.27 89.3385 117.29C89.24 117.31 89.1529 117.369 89.0964 117.454C88.3364 118.604 86.995 120.275 86.3285 120.41C86.181 120.113 86.4311 118.855 89.7485 113.319C90.6605 111.791 94.788 109.294 96.8104 108.071C99.3799 106.517 101.304 102.718 102.464 99.8058C103.843 96.3463 110.07 89.202 111.619 87.5927C113.047 85.8486 114.304 83.9627 115.373 81.9627C116.045 81.8599 119.037 81.6927 123.163 85.7441C120.208 90.6904 116.659 94.0753 112.643 97.8064ZM119.265 56.7697C118.963 56.3005 118.604 55.8733 118.197 55.4988C119.192 55.3143 120.146 54.94 121.009 54.3951C120.81 55.2759 120.339 56.484 119.265 56.7697ZM122.254 57.7266C121.99 57.9521 121.684 58.1182 121.354 58.2143C121.025 58.3104 120.679 58.3344 120.34 58.2848C120.168 58.2132 120.012 58.1063 119.881 57.9705C119.751 57.8348 119.648 57.673 119.58 57.4951C121.731 56.82 121.905 53.6156 121.912 53.4696C121.915 53.39 121.895 53.3111 121.855 53.2435C121.814 53.1759 121.754 53.1227 121.683 53.091C121.612 53.0593 121.534 53.0506 121.458 53.0661C121.383 53.0815 121.313 53.1204 121.26 53.1776C120.198 54.112 118.885 54.6874 117.497 54.8261C116.699 53.9084 115.861 52.2018 115.94 51.5291C115.962 50.8388 115.776 50.1584 115.408 49.5823C117.615 49.196 121.102 48.0225 121.781 47.3646C121.84 47.3078 121.879 47.2333 121.894 47.1518C121.909 47.0703 121.899 46.986 121.865 46.9109C121.383 45.8403 121.068 44.6975 120.933 43.5252C121.427 44.6886 122.268 45.6586 123.333 46.294C124.398 46.9293 125.632 47.1969 126.855 47.0577C126.92 47.0525 126.983 47.0299 127.038 46.9921C127.092 46.9542 127.136 46.9025 127.166 46.8418C127.463 46.2256 128.266 44.9727 128.919 45.0662C129.654 45.1627 130.229 47.4808 127.89 49.503C127.868 49.5217 127.849 49.5428 127.832 49.5658C127.837 49.0249 127.826 48.6238 127.822 48.5013C127.82 48.4498 127.809 48.3991 127.788 48.3521C127.767 48.3052 127.738 48.263 127.701 48.2278C127.665 48.1927 127.622 48.1653 127.575 48.1473C127.528 48.1293 127.478 48.1211 127.428 48.1229C127.379 48.1248 127.33 48.1367 127.284 48.1582C127.239 48.1796 127.198 48.2101 127.164 48.2478C127.13 48.2856 127.103 48.3299 127.086 48.3783C127.068 48.4266 127.06 48.478 127.062 48.5296C127.099 49.6137 127.062 52.6414 126.485 53.6038C125.79 54.775 122.507 57.5147 122.254 57.7266ZM123.979 59.8665L122.973 58.1395C123.819 57.4244 126.459 55.1511 127.137 54.0246C127.465 53.3377 127.66 52.5909 127.71 51.8266C127.944 53.2545 128.566 54.584 129.506 55.6589C127.488 56.7984 125.629 58.2137 123.977 59.8665H123.979ZM138.782 71.888C140.592 70.6532 139.442 67.9717 137.619 67.4033C136.241 66.9724 135.774 65.4879 136.108 62.5897C136.457 59.5596 134.208 59.1765 130.843 55.958C128.002 53.2435 128.36 50.5926 128.477 50.0281C131.233 47.5585 130.474 44.49 129.021 44.2976C127.881 44.1548 126.914 45.7044 126.593 46.2994C122.149 46.527 121.172 42.0361 121.132 41.8422C121.115 41.7615 121.074 41.6885 121.014 41.6334C120.955 41.5783 120.88 41.544 120.801 41.5353C120.721 41.5266 120.641 41.544 120.572 41.585C120.502 41.626 120.447 41.6885 120.414 41.7637C119.703 43.3855 120.687 46.0717 121.055 46.9643C119.072 47.901 116.976 48.5589 114.823 48.9205C114.76 48.912 114.695 48.9207 114.635 48.9456C114.455 48.975 114.271 48.9792 114.09 48.9582C113.531 48.4628 113.477 47.8356 113.293 44.6603C112.957 38.8513 120.249 36.9045 120.322 36.8888C120.385 36.8725 120.444 36.8395 120.491 36.793C121.071 36.207 121.762 35.7507 122.521 35.4527C123.279 35.1548 124.089 35.0215 124.899 35.0613C127.472 35.3135 129.879 36.4828 131.708 38.3685C132.28 39.1075 133.052 39.654 133.926 39.9385C133.346 40.6399 132.635 41.2125 131.835 41.6216C131.77 41.6568 131.716 41.7108 131.68 41.7768C131.645 41.8429 131.628 41.9183 131.633 41.9939C131.637 42.0695 131.663 42.1421 131.707 42.2029C131.75 42.2638 131.81 42.3102 131.879 42.3367C132.386 42.61 132.835 42.9838 133.202 43.4366C133.569 43.8894 133.845 44.4125 134.016 44.9759C134.413 46.0541 135.199 46.9317 136.209 47.4251C136.155 47.4574 136.109 47.503 136.077 47.5577C136.044 47.6125 136.024 47.6748 136.02 47.7391C136.016 47.8113 135.935 49.5304 138.16 51.7598C140.196 53.8008 139.841 55.8732 140.652 58.0226C141.207 59.4945 142.346 59.3061 143.37 58.0799C143.44 58.6807 143.314 59.2884 143.012 59.8069C142.334 61.0974 143.079 61.7961 143.736 62.4123C144.198 62.7974 144.582 63.2731 144.865 63.812C145.697 65.5845 145.835 67.3963 143.097 70.0763C142.546 70.6799 141.875 71.154 141.13 71.4666C140.386 71.7792 139.585 71.9229 138.782 71.888Z" fill="black"/>
<path d="M124.369 85.0297C124.3 85.0296 124.232 85.0099 124.172 84.9726C124.113 84.9353 124.065 84.8819 124.033 84.8182C124.001 84.7545 123.986 84.6829 123.991 84.6113C123.995 84.5396 124.019 84.4707 124.059 84.4119C125.753 81.9219 129.857 75.6984 131.367 71.6611C131.403 71.5639 131.475 71.4856 131.568 71.4434C131.66 71.4012 131.765 71.3986 131.859 71.4362C131.953 71.4738 132.029 71.5485 132.07 71.6438C132.11 71.7391 132.113 71.8473 132.077 71.9445C130.536 76.0595 126.391 82.3497 124.68 84.8625C124.645 84.9141 124.599 84.9562 124.545 84.9853C124.491 85.0144 124.43 85.0296 124.369 85.0297Z" fill="white"/>
<path d="M89.4099 118.071C89.34 118.071 89.2715 118.05 89.2121 118.012C89.1528 117.974 89.1047 117.92 89.0733 117.855C89.0418 117.791 89.0282 117.718 89.034 117.646C89.0398 117.574 89.0646 117.505 89.1059 117.447L90.54 115.421C90.5684 115.377 90.6052 115.339 90.6481 115.31C90.6911 115.28 90.7393 115.261 90.79 115.251C90.8406 115.242 90.8925 115.243 90.9426 115.255C90.9927 115.267 91.0399 115.289 91.0814 115.321C91.1229 115.352 91.1578 115.392 91.184 115.438C91.2102 115.483 91.2271 115.534 91.2338 115.587C91.2404 115.639 91.2367 115.693 91.2227 115.744C91.2088 115.795 91.1849 115.843 91.1526 115.884L89.7192 117.91C89.6837 117.96 89.6371 118.001 89.5834 118.029C89.5296 118.057 89.4701 118.072 89.4099 118.071Z" fill="black"/>
<path d="M91.5044 118.857C91.4283 118.857 91.3539 118.834 91.2908 118.79C91.2278 118.746 91.1789 118.683 91.1507 118.61C91.1224 118.537 91.1161 118.457 91.1324 118.38C91.1487 118.303 91.187 118.234 91.2422 118.179L93.0662 116.389C93.1393 116.317 93.2369 116.278 93.3377 116.281C93.4385 116.284 93.5341 116.328 93.6035 116.403C93.673 116.478 93.7105 116.579 93.708 116.683C93.7054 116.788 93.6629 116.886 93.5898 116.958L91.7697 118.749C91.6982 118.819 91.6031 118.858 91.5044 118.857Z" fill="black"/>
<path d="M94.1111 118.904C94.0288 118.904 93.9486 118.877 93.8827 118.826C93.8168 118.775 93.7687 118.703 93.7457 118.621C93.7226 118.54 93.7259 118.453 93.7549 118.373C93.7839 118.294 93.8372 118.226 93.9067 118.18L95.3294 117.245C95.3715 117.218 95.4185 117.199 95.4676 117.19C95.5168 117.181 95.5672 117.182 95.6159 117.193C95.6647 117.205 95.7108 117.225 95.7517 117.255C95.7925 117.285 95.8274 117.322 95.8542 117.366C95.881 117.409 95.8992 117.458 95.9078 117.509C95.9165 117.559 95.9153 117.611 95.9045 117.662C95.8937 117.712 95.8734 117.76 95.8447 117.802C95.816 117.844 95.7796 117.88 95.7375 117.908L94.3148 118.843C94.254 118.883 94.1833 118.904 94.1111 118.904Z" fill="black"/>
<path d="M60.6659 69.4295C60.5748 69.4295 60.4868 69.3958 60.4178 69.3345C60.3488 69.2732 60.3034 69.1883 60.2899 69.0953C60.2763 69.0023 60.2956 68.9074 60.3441 68.8278C60.3926 68.7483 60.4671 68.6893 60.5542 68.6617L62.6328 68.0023C62.7274 67.9772 62.8278 67.9907 62.9131 68.0401C62.9984 68.0894 63.062 68.1708 63.0906 68.2674C63.1193 68.3639 63.1109 68.4681 63.0671 68.5584C63.0233 68.6486 62.9475 68.718 62.8554 68.752C62.1393 69.0226 61.4081 69.2489 60.6659 69.4295Z" fill="white"/>
<path d="M65.8623 70.428C65.7789 70.4279 65.6978 70.3994 65.6315 70.3469C65.5653 70.2944 65.5177 70.2208 65.496 70.1376C65.4743 70.0543 65.4797 69.966 65.5115 69.8863C65.5432 69.8065 65.5995 69.7398 65.6716 69.6964L67.0449 68.8729C67.0882 68.8445 67.1365 68.8254 67.1871 68.8168C67.2377 68.8083 67.2894 68.8103 67.3392 68.8229C67.3889 68.8355 67.4357 68.8584 67.4767 68.8901C67.5177 68.9219 67.5521 68.9619 67.5778 69.0077C67.6034 69.0536 67.6198 69.1043 67.626 69.1568C67.6322 69.2094 67.628 69.2627 67.6137 69.3135C67.5994 69.3643 67.5753 69.4117 67.5429 69.4526C67.5105 69.4936 67.4703 69.5274 67.4249 69.5519C65.9604 70.4311 66.0067 70.428 65.8623 70.428Z" fill="white"/>
<path d="M69.6261 71.0496C69.5424 71.0494 69.4611 71.0206 69.3949 70.9678C69.3286 70.915 69.2811 70.8411 69.2597 70.7575C69.2383 70.6739 69.2442 70.5854 69.2765 70.5056C69.3088 70.4259 69.3657 70.3594 69.4384 70.3164L71.1104 69.336C71.1538 69.3087 71.2021 69.2908 71.2524 69.2832C71.3026 69.2756 71.3539 69.2785 71.4031 69.2917C71.4522 69.3049 71.4983 69.3281 71.5387 69.3601C71.579 69.392 71.6127 69.432 71.6378 69.4776C71.6629 69.5232 71.6789 69.5736 71.6849 69.6257C71.6908 69.6778 71.6865 69.7306 71.6724 69.781C71.6582 69.8314 71.6344 69.8784 71.6023 69.9191C71.5703 69.9598 71.5307 69.9935 71.4858 70.0181C69.6854 71.074 69.7652 71.0496 69.6261 71.0496Z" fill="white"/>
</svg>
