<svg width="152" height="158" viewBox="0 0 152 158" fill="none" xmlns="http://www.w3.org/2000/svg">
<path d="M12.7709 87.9939C12.6667 87.5794 12.795 87.0315 12.558 86.9012L10.8819 85.982C10.8262 85.9513 10.764 85.9356 10.701 85.9363C10.638 85.937 10.5762 85.9541 10.5212 85.986C10.4662 86.0179 10.4197 86.0637 10.3861 86.119C10.3524 86.1744 10.3326 86.2377 10.3285 86.303L10.1835 88.574C10.18 88.6278 10.1871 88.6817 10.2045 88.7324C10.2219 88.7832 10.2491 88.8297 10.2846 88.869C10.32 88.9083 10.3628 88.9396 10.4103 88.961C10.4579 88.9824 10.5092 88.9933 10.561 88.9932C11.2162 88.8543 11.8644 88.6811 12.5029 88.4743C12.5508 88.4611 12.5958 88.4382 12.6352 88.4069C12.6746 88.3756 12.7077 88.3365 12.7326 88.2919C12.7575 88.2473 12.7737 88.198 12.7803 88.1468C12.7868 88.0957 12.7836 88.0437 12.7709 87.9939Z" fill="white"/>
<path d="M24.6652 79.4436L22.598 78.7253C22.5458 78.7072 22.4903 78.7011 22.4356 78.7076C22.3809 78.7141 22.3281 78.733 22.2812 78.7629C22.2342 78.7928 22.1941 78.8331 22.1636 78.8808C22.1332 78.9286 22.1132 78.9827 22.105 79.0393C21.7056 81.8795 21.652 80.6509 22.9854 81.7868C23.0625 81.8521 23.1612 81.8831 23.2602 81.8731C23.3591 81.8631 23.4503 81.8129 23.5139 81.7335L24.8343 80.0653C24.8733 80.0164 24.9003 79.9583 24.9129 79.8961C24.9255 79.8339 24.9234 79.7695 24.9067 79.7083C24.8901 79.6472 24.8594 79.5911 24.8174 79.545C24.7753 79.4989 24.7231 79.4641 24.6652 79.4436Z" fill="white"/>
<path fill-rule="evenodd" clip-rule="evenodd" d="M62.5703 86.6413C62.5703 86.6413 64.9221 99.6362 64.9221 108.386H75.7783C75.283 108.234 76.112 91.6803 76.2962 88.8064L73.9444 84.5054C73.9444 84.5054 71.9414 86.5864 69.6492 86.6139C67.357 86.6413 64.3347 84.8633 64.3347 84.8633L63.9882 83.8075L62.5703 86.6413Z" fill="white"/>
<path fill-rule="evenodd" clip-rule="evenodd" d="M76.2964 88.8048C76.2964 88.8048 75.3708 102.239 75.4916 108.41C78.3855 108.248 83.7211 108.321 86.4391 108.373C87.82 110.564 89.9484 112.798 93.4417 113.103C97.8962 113.491 97.413 108.471 97.2922 104.283C97.1714 100.094 94.2722 93.616 92.0608 90.6754C89.8494 87.7348 90.3243 86.4097 89.5535 82.648C88.7826 78.8863 85.6758 74.8263 83.8676 74.013C83.0912 73.6419 82.286 73.3397 81.4606 73.1095C82.276 69.5636 81.7445 67.996 78.0171 65.4863L77.5588 68.4905L79.4463 73.3473L77.9272 81.8975C77.4614 84.2525 74.0903 84.7604 74.0903 84.7604C74.0903 84.7604 75.3217 86.8485 76.2964 88.8048Z" fill="#81F8F8"/>
<path fill-rule="evenodd" clip-rule="evenodd" d="M51.0571 108.594C49.674 110.713 47.5728 112.809 44.1965 113.103C39.742 113.491 40.2252 108.471 40.346 104.283C40.4668 100.094 43.3592 93.6161 45.5743 90.6755C47.7895 87.7349 47.3108 86.4098 48.0824 82.6481C48.854 78.8864 51.9601 74.8263 53.7683 74.0131C54.6219 73.6289 55.5061 73.3229 56.4108 73.0985C56.1624 71.315 59.2134 65.8051 60.7143 64.7964L60.5716 67.6067L58.1942 73.3474L59.7125 81.8976C60.179 84.2526 63.5494 84.7605 63.5494 84.7605C63.5494 84.7605 63.1454 85.4466 62.6169 86.4004C63.8651 93.666 64.6367 101.011 64.9265 108.386L51.0571 108.594Z" fill="#81F8F8"/>
<path d="M23.2379 109.318C23.1377 109.318 23.0417 109.277 22.9709 109.203C22.9001 109.13 22.8604 109.03 22.8604 108.926C22.8604 108.822 22.9001 108.722 22.9709 108.648C23.0417 108.575 23.1377 108.533 23.2379 108.533L40.3462 108.349C40.4463 108.348 40.5425 108.389 40.6136 108.462C40.6848 108.536 40.725 108.635 40.7255 108.739C40.726 108.844 40.6867 108.944 40.6163 109.018C40.5459 109.092 40.45 109.133 40.3499 109.134L23.2379 109.318Z" fill="black"/>
<path d="M51.1137 109.069C51.0641 109.07 51.0149 109.06 50.969 109.041C50.9231 109.021 50.8813 108.992 50.8461 108.956C50.8108 108.92 50.7827 108.877 50.7635 108.829C50.7442 108.782 50.7342 108.731 50.7339 108.679C50.7336 108.628 50.7431 108.577 50.7618 108.529C50.7805 108.481 50.808 108.438 50.8429 108.401C50.8777 108.364 50.9192 108.335 50.9648 108.315C51.0105 108.295 51.0596 108.285 51.1091 108.284L86.3525 107.866C86.4516 107.869 86.546 107.91 86.6169 107.982C86.6878 108.054 86.7298 108.151 86.7346 108.254C86.7352 108.306 86.7258 108.357 86.7071 108.406C86.6884 108.454 86.6607 108.498 86.6256 108.534C86.5905 108.571 86.5487 108.601 86.5026 108.621C86.4565 108.641 86.407 108.651 86.3571 108.651L51.1137 109.069Z" fill="black"/>
<path d="M97.3678 108.506C97.319 108.507 97.2705 108.499 97.225 108.48C97.1795 108.462 97.1379 108.435 97.1028 108.399C97.0676 108.364 97.0396 108.322 97.0203 108.276C97.0009 108.229 96.9907 108.179 96.9903 108.128C96.9892 108.022 97.0282 107.92 97.0988 107.844C97.1694 107.768 97.266 107.724 97.3678 107.721H104.372C104.421 107.719 104.469 107.728 104.515 107.746C104.56 107.765 104.602 107.792 104.637 107.828C104.672 107.863 104.7 107.905 104.72 107.952C104.739 107.998 104.749 108.048 104.749 108.099C104.75 108.205 104.711 108.307 104.641 108.383C104.57 108.459 104.473 108.503 104.372 108.506H97.3678Z" fill="black"/>
<path fill-rule="evenodd" clip-rule="evenodd" d="M63.2894 78.5605C63.0878 77.0983 62.7765 75.6548 62.3585 74.243L75.0992 65.4918C75.7152 76.9764 75.6631 75.835 75.6427 76.0187C76.0001 75.3055 76.261 74.5445 76.4181 73.7571C76.6167 72.0175 77.0772 67.4983 77.0772 67.4983C77.0772 67.4983 78.6167 70.5747 79.1822 72.1627C79.7477 73.7508 79.5876 73.6904 78.8553 76.7699C78.4433 78.4068 78.1615 80.0761 78.0127 81.7609C77.682 83.9848 74.1524 84.7589 74.1524 84.7589C74.0603 84.6693 73.9632 84.5855 73.8617 84.5077C73.038 85.5729 70.5231 86.522 69.1263 86.6115C67.3999 86.4429 65.7436 85.8181 64.3147 84.7965C64.2128 84.397 64.1335 83.9966 64.0724 83.6041C63.9188 83.9998 63.7423 84.3854 63.5439 84.7589C60.9769 84.0932 59.8738 83.0452 59.6836 81.7609C59.5347 80.0761 59.2529 78.4068 58.841 76.7699C58.1086 73.6904 57.9486 73.7508 58.5141 72.1627C59.0796 70.5747 60.619 67.4983 60.619 67.4983C60.619 67.4983 61.0788 72.0175 61.2781 73.7571C61.4004 74.8153 62.4272 76.8421 63.2894 78.5605Z" fill="#FFD997"/>
<path d="M70.4508 71.9845C70.3976 71.8963 70.3802 71.7896 70.4026 71.688C70.425 71.5865 70.4852 71.4983 70.5701 71.4429C70.655 71.3875 70.7576 71.3695 70.8553 71.3927C70.953 71.416 71.0378 71.4787 71.0911 71.5669C71.1772 71.7074 71.9692 72.8826 73.6007 71.9775C73.6445 71.9532 73.6924 71.9381 73.7418 71.9331C73.7912 71.9281 73.841 71.9333 73.8885 71.9483C73.936 71.9633 73.9801 71.9879 74.0184 72.0206C74.0568 72.0534 74.0885 72.0937 74.1118 72.1392C74.1352 72.1847 74.1497 72.2346 74.1545 72.2859C74.1593 72.3372 74.1544 72.3891 74.1399 72.4384C74.1255 72.4878 74.1018 72.5337 74.0703 72.5735C74.0388 72.6134 74.0001 72.6464 73.9563 72.6706C72.4206 73.5216 71.0541 72.987 70.4508 71.9845Z" fill="black"/>
<path fill-rule="evenodd" clip-rule="evenodd" d="M73.352 74.3632C73.3663 74.6772 73.3301 75.7346 71.882 75.6231C71.6981 75.6213 71.5168 75.5774 71.3511 75.4945C71.1853 75.4115 71.0392 75.2916 70.9232 75.1433C70.8071 74.9949 70.7239 74.8218 70.6795 74.6362C70.6352 74.4506 70.6307 74.2572 70.6664 74.0696C70.6664 74.0696 72.2867 75.076 73.352 74.3632Z" fill="white"/>
<path fill-rule="evenodd" clip-rule="evenodd" d="M67.9403 74.1237C67.9395 74.3207 67.8965 74.5151 67.8144 74.6926C67.7323 74.8702 67.6131 75.0265 67.4656 75.1502C67.3181 75.2739 67.1459 75.3618 66.9616 75.4076C66.7773 75.4534 66.5855 75.4559 66.4001 75.415C65.0646 75.3161 65.1597 74.1927 65.1597 74.1927C65.1597 74.1927 66.875 74.8364 67.9403 74.1237Z" fill="white"/>
<path d="M67.9111 73.7571C67.8769 73.7198 67.836 73.6898 67.7906 73.6689C67.7453 73.6481 67.6964 73.6367 67.6469 73.6354C67.5973 73.6342 67.548 73.6431 67.5017 73.6617C67.4555 73.6803 67.4132 73.7082 67.3773 73.7437C66.947 74.1708 65.9307 73.8175 65.6084 73.6582C65.5196 73.6227 65.4213 73.6232 65.333 73.6598C65.2446 73.6964 65.1729 73.7663 65.1319 73.8556C65.091 73.9448 65.084 74.0468 65.1123 74.1412C65.1406 74.2356 65.2021 74.3154 65.2845 74.3647C65.4395 74.4378 65.5989 74.5005 65.7616 74.5523C65.7255 74.6606 65.7163 74.7766 65.7349 74.8896C65.7536 75.0026 65.7995 75.1088 65.8683 75.1983C65.9372 75.2878 66.0267 75.3578 66.1286 75.4016C66.2305 75.4454 66.3414 75.4616 66.4509 75.4488C66.5419 75.4558 66.6334 75.444 66.7199 75.414C66.8065 75.384 66.8865 75.3365 66.9552 75.2741C67.024 75.2118 67.0801 75.1358 67.1205 75.0507C67.1608 74.9656 67.1844 74.873 67.1901 74.7784C67.1857 74.7456 67.1787 74.7133 67.1689 74.6818C67.4415 74.6338 67.6947 74.5042 67.8975 74.3089C67.9692 74.2373 68.0108 74.1392 68.0134 74.0359C68.0159 73.9326 67.9792 73.8324 67.9111 73.7571Z" fill="black"/>
<path d="M73.3376 74.0333C73.2834 73.9458 73.1981 73.8842 73.1002 73.8621C73.0024 73.84 72.9001 73.8593 72.8159 73.9156C72.5707 74.0637 72.2859 74.1253 72.0042 74.0912C71.7225 74.0571 71.459 73.9291 71.2531 73.7264C71.2169 73.691 71.1744 73.6634 71.128 73.6451C71.0816 73.6268 71.0322 73.6182 70.9826 73.6198C70.933 73.6214 70.8842 73.6331 70.8389 73.6543C70.7937 73.6755 70.7529 73.7057 70.7189 73.7433C70.6849 73.7809 70.6583 73.825 70.6407 73.8733C70.6232 73.9215 70.6149 73.9729 70.6164 74.0245C70.6179 74.076 70.6292 74.1268 70.6495 74.1738C70.6699 74.2209 70.699 74.2633 70.7351 74.2987C70.9024 74.4565 71.0921 74.5866 71.2976 74.6841C71.2581 74.7931 71.2462 74.9107 71.263 75.0259C71.2798 75.141 71.3247 75.2497 71.3935 75.3416C71.4623 75.4335 71.5527 75.5055 71.6559 75.5506C71.7592 75.5957 71.8719 75.6125 71.9831 75.5994C72.074 75.6064 72.1654 75.5947 72.2518 75.5647C72.3383 75.5348 72.4182 75.4873 72.4869 75.425C72.5556 75.3627 72.6117 75.2869 72.652 75.2019C72.6922 75.1169 72.7159 75.0244 72.7215 74.9298C72.717 74.8949 72.7097 74.8605 72.6996 74.827C72.8854 74.7703 73.0622 74.6857 73.2244 74.5758C73.3086 74.5195 73.3678 74.4307 73.389 74.3289C73.4103 74.2272 73.3918 74.1209 73.3376 74.0333Z" fill="black"/>
<path d="M69.398 79.3172C68.6498 79.3172 67.5173 78.4341 67.1745 78.1523C67.1001 78.0863 67.0532 77.9929 67.0438 77.8917C67.0343 77.7905 67.063 77.6894 67.1237 77.6097C67.1845 77.5301 67.2726 77.478 67.3695 77.4646C67.4665 77.4511 67.5646 77.4773 67.6434 77.5376C68.1499 78.009 68.7562 78.3495 69.4131 78.5314C69.6938 78.4299 69.9429 78.2514 70.1341 78.0149C70.3529 77.7447 70.6429 77.5469 70.9684 77.4458C71.0172 77.4362 71.0674 77.4369 71.116 77.4478C71.1646 77.4588 71.2106 77.4797 71.2513 77.5094C71.2919 77.5391 71.3265 77.577 71.3528 77.6208C71.3792 77.6646 71.3969 77.7135 71.4048 77.7645C71.4219 77.8669 71.3992 77.9722 71.3418 78.0573C71.2843 78.1423 71.1967 78.2002 71.0983 78.2182C70.8197 78.27 70.2006 79.3172 69.398 79.3172Z" fill="black"/>
<path d="M68.8776 80.8222C68.1199 80.6377 67.3481 80.5224 66.5711 80.4776C66.4712 80.4713 66.3777 80.424 66.3113 80.3462C66.2449 80.2683 66.211 80.1662 66.217 80.0623C66.2186 80.0104 66.2305 79.9594 66.2517 79.9124C66.2729 79.8654 66.3032 79.8234 66.3405 79.7889C66.3779 79.7545 66.4217 79.7283 66.4691 79.712C66.5165 79.6957 66.5666 79.6896 66.6164 79.6941C69.8055 79.91 68.6549 80.4791 70.6503 79.6675C71.3668 79.3747 72.7847 78.7757 72.7847 79.5576C72.7847 79.6617 72.745 79.7615 72.6742 79.8351C72.6034 79.9087 72.5073 79.9501 72.4072 79.9501C71.4839 79.9501 69.8493 81.1425 68.8776 80.8222Z" fill="black"/>
<path d="M68.7426 82.7923C68.664 82.7922 68.5875 82.7666 68.5236 82.7191C68.4597 82.6716 68.4117 82.6045 68.3862 82.5273C68.3607 82.4501 68.359 82.3665 68.3813 82.2882C68.4036 82.2099 68.4489 82.1408 68.5108 82.0905C69.0203 81.6846 69.6425 81.461 70.2843 81.4531C70.3844 81.4593 70.4781 81.5065 70.5447 81.5845C70.6113 81.6624 70.6454 81.7647 70.6395 81.8688C70.6336 81.9729 70.5882 82.0703 70.5132 82.1395C70.4382 82.2088 70.3399 82.2443 70.2398 82.2381C69.7783 82.2485 69.3329 82.4156 68.9714 82.7138C68.9054 82.7653 68.825 82.7928 68.7426 82.7923Z" fill="black"/>
<path d="M97.6698 104.271C97.5384 99.9023 94.4928 93.2667 92.3591 90.4329C90.2134 87.5857 90.6981 86.3619 89.9227 82.5664C89.1677 78.858 86.0428 74.5649 84.0179 73.6511C83.3336 73.3399 82.6301 73.0764 81.9122 72.8622C82.1712 71.9729 82.2632 71.0401 82.1832 70.1147C81.7091 67.0297 78.8824 65.4777 78.2852 65.1818C76.9632 58.3358 70.64 54.3166 64.5155 58.3099C63.4304 58.9831 62.499 59.8933 61.7855 60.9776C61.0721 62.0619 60.5937 63.2944 60.3834 64.5899C58.3337 66.5833 56.8731 69.143 56.1727 71.9689C55.8375 73.3968 56.7767 72.2334 53.6223 73.6574C51.5974 74.5711 48.474 78.8643 47.7175 82.5727C46.9466 86.3516 47.423 87.5967 45.2811 90.4391C43.1392 93.2816 40.101 99.9094 39.9697 104.277C39.8889 106.992 39.5386 110.897 41.2728 112.614C41.6759 112.974 42.149 113.239 42.6597 113.392C43.1704 113.545 43.7068 113.582 44.2324 113.5C48.8379 113.099 51.1701 109.485 52.5223 106.802C54.0925 103.904 55.8533 101.123 57.7922 98.4768C59.2214 96.5441 60.0927 92.5233 61.05 90.3245C61.4041 89.5113 61.8934 88.5465 62.366 87.6618C62.8945 90.8081 64.5487 101.157 64.5487 108.416C64.5487 108.521 64.5885 108.62 64.6593 108.694C64.7301 108.768 64.8261 108.809 64.9262 108.809C65.0263 108.809 65.1223 108.768 65.1931 108.694C65.2639 108.62 65.3037 108.521 65.3037 108.416C65.3037 99.8364 63.0259 87.0252 62.9481 86.5934C63.8541 84.9598 63.6789 85.3264 63.9039 84.9096C64.2105 85.6946 66.4211 96.5041 66.2331 108.473C66.2323 108.525 66.2413 108.576 66.2596 108.624C66.2779 108.672 66.3051 108.716 66.3397 108.753C66.3742 108.79 66.4155 108.819 66.4611 108.84C66.5067 108.86 66.5557 108.871 66.6053 108.872C66.705 108.872 66.8009 108.832 66.8725 108.76C66.944 108.688 66.9855 108.589 66.9881 108.486C67.0912 101.529 66.5113 94.5793 65.2576 87.745C66.3664 88.2711 67.564 88.5645 68.782 88.6085C70.6098 88.4385 72.3907 87.9134 74.0323 87.0605C73.6344 90.7005 72.7314 100.395 73.3996 108.397C73.4082 108.501 73.4562 108.597 73.5331 108.664C73.61 108.732 73.7094 108.765 73.8095 108.756C73.9097 108.747 74.0022 108.697 74.067 108.617C74.1317 108.537 74.1632 108.433 74.1546 108.329C73.4698 100.141 74.4475 90.1471 74.8205 86.825C75.1693 87.4585 75.5551 88.1846 75.913 88.8974C75.8322 90.1581 75.0772 102.169 75.1912 107.991C75.1932 108.094 75.2338 108.192 75.3044 108.263C75.375 108.335 75.4699 108.376 75.5687 108.376C75.6697 108.374 75.766 108.331 75.8367 108.256C75.9075 108.181 75.9468 108.08 75.9462 107.975C75.8503 103.108 76.3667 93.8814 76.5826 90.3057C77.4758 92.2454 78.3803 96.4899 79.8465 98.4697C81.7853 101.116 83.5461 103.897 85.1164 106.795C86.4686 109.478 88.7985 113.092 93.4063 113.493C98.0631 113.893 97.8095 109.054 97.6698 104.271ZM83.7174 74.3718C85.3467 75.1057 88.4278 79.026 89.1844 82.7289C89.9492 86.4843 89.4803 87.884 91.7649 90.9172C93.2093 92.9875 94.396 95.2395 95.2968 97.6195C93.4614 95.2323 89.2772 90.4415 87.3233 89.231C85.5513 88.132 84.7072 85.4104 82.9556 84.6262C82.7199 84.47 82.442 84.397 82.1632 84.4179C81.8844 84.4388 81.6195 84.5526 81.4078 84.7424C80.9835 84.1521 80.2285 82.1849 78.3554 81.5914C78.3607 81.5325 78.366 81.4729 78.3735 81.4022C79.7118 78.9188 80.8281 76.3129 81.7083 73.6174C82.392 73.8226 83.0619 74.0747 83.7136 74.3718H83.7174ZM78.3728 66.1175C79.272 66.6583 81.0968 68.0125 81.4373 70.2356C81.489 71.1852 81.3718 72.1366 81.0915 73.042V73.0522C80.4638 75.1202 79.6664 77.1283 78.708 79.0543C79.7695 73.0545 80.822 74.5798 78.0345 68.7198C78.2328 67.8668 78.3449 66.9947 78.369 66.1175H78.3728ZM70.0504 70.9782C71.7417 69.9099 73.2964 68.6239 74.6778 67.1505C75.1451 70.0615 75.3144 73.0157 75.1829 75.9637C74.3478 77.7991 73.0402 80.1494 72.8061 81.0568C72.7496 81.2949 72.7277 81.5405 72.7412 81.7853C72.7347 81.7936 72.7287 81.8023 72.7231 81.8112C71.9024 83.6834 70.3071 84.6608 68.6559 84.3083C66.9738 83.9464 64.4241 79.9586 64.0504 79.019C63.7484 78.263 63.0447 75.4519 62.8039 74.484C65.2956 73.4939 67.7171 72.3224 70.0504 70.9782ZM56.8998 72.1486C57.4769 69.7985 58.6202 67.64 60.2218 65.8765C60.1864 66.3915 60.1907 66.9086 60.2346 67.4229C59.9621 67.9724 58.6786 70.5755 58.1622 72.0262C57.6457 73.4769 57.7039 73.7312 58.1795 75.649C58.624 77.3281 58.9652 79.035 59.201 80.7593C58.2369 78.9177 56.292 74.7501 56.8998 72.1486ZM45.8723 90.9172C48.1569 87.884 47.6843 86.4843 48.4529 82.7289C49.2079 79.026 52.2898 75.1057 53.9198 74.3718C54.6101 74.0577 55.3211 73.7954 56.0474 73.5868C56.1924 76.7268 58.2158 80.5897 58.8688 81.7594C57.2373 82.5365 56.6574 84.1552 56.2263 84.7424C56.0148 84.5526 55.75 84.4387 55.4714 84.4178C55.1927 84.3969 54.9149 84.47 54.6793 84.6262C52.8953 85.4246 52.132 88.1053 50.3117 89.231C48.7262 90.2146 44.8757 94.372 42.4967 97.2231C43.3709 94.9862 44.5045 92.8685 45.8723 90.9172ZM60.3584 89.9948C59.4411 92.0994 58.4974 96.2238 57.1874 97.9924C55.2231 100.674 53.4389 103.494 51.8473 106.431C50.5782 108.95 48.4008 112.343 44.1629 112.711C40.4476 113.025 40.5563 109.257 40.6899 105.139C40.7014 103.191 41.0395 101.26 41.6888 99.4321C41.7229 99.4077 41.7534 99.3784 41.7794 99.345C43.5914 96.9334 48.8606 91.042 50.696 89.9061C52.6733 88.6823 53.463 86.0243 54.9761 85.3468C55.5408 85.0933 55.6359 85.2519 55.8368 85.4363C55.7972 86.5993 56.0999 87.7472 56.7046 88.7265C57.3093 89.7058 58.1871 90.4698 59.2207 90.9164C59.3098 90.9544 59.4095 90.9556 59.4994 90.9197C59.5893 90.8837 59.6626 90.8134 59.7043 90.7231C59.746 90.6329 59.7529 90.5294 59.7236 90.434C59.6943 90.3386 59.6311 90.2584 59.5468 90.2099C59.1055 89.9938 58.6895 89.7257 58.3071 89.4108L60.7782 85.9034C60.8076 85.8618 60.8288 85.8146 60.8406 85.7645C60.8524 85.7144 60.8546 85.6624 60.847 85.6114C60.8395 85.5604 60.8224 85.5114 60.7966 85.4673C60.7709 85.4232 60.7371 85.3848 60.6971 85.3543C60.6571 85.3238 60.6117 85.3018 60.5635 85.2895C60.5153 85.2772 60.4652 85.2749 60.4162 85.2828C60.3672 85.2906 60.3201 85.3084 60.2777 85.3352C60.2352 85.3619 60.1983 85.3971 60.1689 85.4387L57.7529 88.8731C57.4717 88.5486 57.2388 88.1821 57.0621 87.7858L59.4781 84.3884C59.5377 84.3046 59.5628 84.1996 59.5479 84.0965C59.5331 83.9935 59.4794 83.9008 59.3988 83.8389C59.3182 83.7769 59.2173 83.7508 59.1182 83.7663C59.0191 83.7817 58.9299 83.8375 58.8703 83.9213L56.7563 86.887C56.6493 86.4242 56.5935 85.9501 56.5902 85.474C57.2222 84.9559 57.6774 82.9848 59.4139 82.3662C59.9976 84.0885 61.9681 84.7879 62.9398 85.0352C62.3811 86.018 61.0991 88.2945 60.3584 89.9948ZM63.3437 84.3193C62.5925 84.1536 60.3932 83.5264 60.0557 81.8167V81.8088C60.061 81.7852 60.0641 81.761 60.0648 81.7366C59.916 80.0277 59.6307 78.3346 59.2116 76.6749C58.4755 73.5852 58.3562 73.7508 58.8719 72.2994C59.2041 71.3676 59.8888 69.891 60.3819 68.8579C60.5329 70.3329 60.776 72.6636 60.9104 73.8034C61.1255 75.6874 63.768 79.9672 64.1033 81.2609C64.3147 82.0977 63.7107 83.5782 63.3437 84.3193ZM64.4136 83.7776C64.6675 83.1673 64.828 82.5194 64.8892 81.8575C65.9281 83.298 67.309 84.8201 68.5026 85.076C69.3607 85.2458 70.2482 85.1362 71.0441 84.7621C71.84 84.3879 72.5054 83.7675 72.9496 82.9856C73.0966 83.4858 73.2819 83.973 73.5038 84.4425C72.3193 85.5227 70.8177 86.1537 69.244 86.2323C67.5728 86.1235 65.9632 85.5352 64.594 84.5328C64.5225 84.223 64.4624 83.9713 64.4136 83.7776ZM74.1372 86.1326C72.6103 86.9262 70.9802 87.4839 69.2984 87.7882C67.83 87.8518 66.3718 87.5063 65.0749 86.7873C64.9911 86.3619 64.9103 85.9701 64.8356 85.6185C67.9402 87.5025 71.0538 87.581 73.873 85.1475C73.9485 85.2746 74.0557 85.4615 74.1901 85.697C74.178 85.7917 74.1604 85.9379 74.1372 86.1358V86.1326ZM73.5332 81.2578C73.8669 79.9704 76.5139 75.6505 76.7261 73.8003C76.8567 72.6589 77.0991 70.3282 77.2508 68.8548C77.7453 69.8871 78.4294 71.3668 78.7608 72.2962C79.2742 73.7375 79.1632 73.5632 78.4218 76.6718C78.0045 78.3634 77.7202 80.0874 77.5717 81.8269C77.2244 83.5264 75.0364 84.1513 74.2867 84.3161C73.922 83.5782 73.3188 82.0977 73.5347 81.2609L73.5332 81.2578ZM93.4652 112.708C89.2274 112.34 87.0477 108.947 85.7808 106.428C84.1899 103.491 82.4056 100.671 80.4407 97.9893C79.5989 96.851 78.9141 94.7519 78.3093 92.9009C77.5868 90.6864 77.2523 89.4909 74.6853 85.0297C75.657 84.784 77.6298 84.0877 78.2104 82.3607C79.9039 82.962 80.3614 84.8099 80.9715 85.4112C80.8349 85.9059 80.6549 86.3865 80.4339 86.847L78.6936 84.4025C78.6639 84.361 78.6266 84.326 78.5838 84.2995C78.5411 84.273 78.4937 84.2555 78.4445 84.248C78.3952 84.2406 78.345 84.2433 78.2968 84.256C78.2485 84.2686 78.2031 84.2911 78.1632 84.322C78.1233 84.353 78.0897 84.3918 78.0642 84.4362C78.0387 84.4807 78.0219 84.5299 78.0147 84.5811C78.0075 84.6323 78.0101 84.6845 78.0223 84.7346C78.0345 84.7848 78.0561 84.832 78.0858 84.8735L80.0254 87.5982C79.7678 88.0181 79.4637 88.4051 79.1194 88.7514C78.2134 87.3988 77.2138 85.8948 77.0809 85.6459C77.0577 85.5991 77.0256 85.5576 76.9865 85.524C76.9475 85.4903 76.9024 85.4652 76.8538 85.4501C76.8052 85.435 76.7542 85.4302 76.7038 85.436C76.6534 85.4419 76.6047 85.4582 76.5605 85.484C76.5163 85.5099 76.4776 85.5447 76.4466 85.5865C76.4157 85.6282 76.3931 85.676 76.3803 85.727C76.3675 85.778 76.3647 85.8312 76.3721 85.8834C76.3795 85.9355 76.3969 85.9856 76.4233 86.0306C76.6023 86.3611 77.9009 88.3032 78.5373 89.253C78.3302 89.4064 78.111 89.5414 77.882 89.6565C77.8048 89.6949 77.7424 89.7595 77.7051 89.8396C77.6679 89.9197 77.6579 90.0107 77.6769 90.0975C77.6958 90.1843 77.7426 90.2618 77.8095 90.3173C77.8764 90.3728 77.9595 90.4031 78.0451 90.403C78.493 90.2393 78.9072 89.9893 79.2659 89.6659C80.489 88.5713 81.3529 87.1069 81.737 85.4772C81.9681 85.2935 82.027 85.0635 82.6506 85.3445C84.1274 86.0055 84.9911 88.7035 86.9314 89.9038C88.8016 91.0616 93.1519 96.0401 94.8967 98.3653C94.9369 98.4192 94.99 98.4612 95.0507 98.4872C95.1113 98.5133 95.1775 98.5224 95.2425 98.5138C95.3076 98.5051 95.3694 98.479 95.4219 98.438C95.4743 98.3969 95.5155 98.3424 95.5414 98.2797C96.3009 100.197 96.7644 102.226 96.9148 104.294C97.0454 108.738 97.4365 113.04 93.4675 112.708H93.4652Z" fill="black"/>
<path fill-rule="evenodd" clip-rule="evenodd" d="M4.0498 128.737L4.09812 132.919L19.9124 139.615L42.246 122.277C41.7938 121.439 41.566 120.49 41.5861 119.53L19.3325 135.442L4.0498 128.737Z" fill="white"/>
<path fill-rule="evenodd" clip-rule="evenodd" d="M4.06348 128.709L19.3326 135.442L41.5862 119.529L23.7554 117.449L4.06348 128.709Z" fill="#FFD997"/>
<path d="M20.6513 137.344C20.5715 137.344 20.4938 137.318 20.4293 137.269C20.3648 137.22 20.3168 137.152 20.2923 137.073C20.2677 136.994 20.2678 136.909 20.2926 136.83C20.3173 136.751 20.3654 136.683 20.43 136.634L38.8626 122.744C38.9027 122.713 38.9484 122.69 38.9971 122.677C39.0459 122.664 39.0966 122.661 39.1463 122.669C39.1961 122.676 39.2438 122.694 39.2868 122.722C39.3298 122.749 39.3671 122.785 39.3966 122.827C39.426 122.869 39.4471 122.917 39.4584 122.968C39.4698 123.019 39.4713 123.072 39.4627 123.123C39.4542 123.175 39.4359 123.224 39.4088 123.268C39.3817 123.312 39.3464 123.35 39.305 123.38C19.5777 138.248 20.8423 137.344 20.6513 137.344Z" fill="black"/>
<path d="M42.409 121.746C42.224 121.667 42.0277 120.706 42.0624 119.64C42.0459 119.521 41.9958 119.41 41.9185 119.321C41.8412 119.231 41.7402 119.168 41.6283 119.139C22.5525 116.912 23.7348 117.014 23.5762 117.105C8.33582 125.721 4.8296 127.758 4.03383 128.258C3.75448 128.434 3.70616 128.515 3.68577 128.74C3.65104 129.122 3.68577 130.093 3.7205 132.924C3.72144 133.001 3.7443 133.077 3.7862 133.14C3.82811 133.204 3.88719 133.254 3.95606 133.283L19.7695 139.979C19.8298 140.004 19.8955 140.013 19.96 140.005C20.0246 139.996 20.0859 139.97 20.138 139.929L42.6513 122.452C42.7159 122.402 42.7634 122.332 42.7867 122.251C42.81 122.171 42.808 122.085 42.7809 122.006C42.7538 121.927 42.703 121.859 42.6361 121.812C42.5692 121.765 42.4896 121.742 42.409 121.746ZM23.836 117.853L40.5396 119.802L19.2894 134.996L4.92624 128.663L23.836 117.853ZM4.45889 131.428C18.0157 137.217 17.1686 136.874 17.2863 136.874C17.374 136.875 17.4591 136.843 17.5269 136.786C17.5948 136.728 17.6413 136.647 17.6583 136.558C17.6754 136.469 17.662 136.376 17.6204 136.296C17.5789 136.215 17.5117 136.153 17.4305 136.118L4.44832 130.574L4.43398 129.298L18.8107 135.637C18.5431 136.704 18.637 137.835 19.0764 138.838L4.47324 132.654L4.45889 131.428ZM20.0217 139.042C19.7367 138.554 19.5496 138.011 19.4718 137.446C19.3939 136.88 19.4269 136.304 19.5687 135.752L41.3127 120.204C41.296 120.887 41.4497 121.563 41.7589 122.166L20.0217 139.042Z" fill="black"/>
<path d="M21.8302 137.72C23.9751 137.472 24.7702 135.957 24.0733 133.981C23.3938 132.061 21.1801 132.871 21.0865 132.905C20.9935 132.937 20.8925 132.929 20.8046 132.885C20.7168 132.84 20.649 132.762 20.6156 132.666C20.5821 132.571 20.5856 132.465 20.6253 132.373C20.6649 132.28 20.7377 132.206 20.8283 132.168C21.335 131.988 21.8697 131.908 22.4047 131.933C22.9314 131.93 23.4453 132.1 23.8726 132.42C24.2999 132.741 24.6184 133.193 24.7822 133.714C25.6407 136.147 24.5671 138.198 21.9132 138.502C21.8134 138.514 21.7133 138.484 21.6349 138.418C21.5566 138.353 21.5064 138.258 21.4953 138.154C21.4843 138.05 21.5134 137.946 21.5762 137.865C21.639 137.783 21.7304 137.731 21.8302 137.72Z" fill="black"/>
<path d="M25.3646 135.237C27.5058 134.991 28.3091 133.478 27.6085 131.498C27.4958 131.122 27.2683 130.795 26.9606 130.567C26.6529 130.338 26.2818 130.22 25.9037 130.231C25.4686 130.221 25.0349 130.286 24.6202 130.423C24.5736 130.441 24.5242 130.449 24.4746 130.447C24.4251 130.445 24.3765 130.432 24.3315 130.411C24.2865 130.389 24.2461 130.358 24.2125 130.32C24.1789 130.282 24.1529 130.238 24.1358 130.19C24.1188 130.141 24.1111 130.09 24.1131 130.038C24.1152 129.987 24.127 129.936 24.1478 129.889C24.1687 129.843 24.1982 129.801 24.2347 129.766C24.2712 129.731 24.3139 129.704 24.3604 129.686C24.8695 129.516 25.4023 129.435 25.9369 129.447C26.4636 129.444 26.9776 129.615 27.405 129.935C27.8324 130.255 28.1513 130.707 28.3159 131.228C29.1736 133.661 28.1 135.712 25.4469 136.016C25.351 136.021 25.2571 135.987 25.1842 135.922C25.1113 135.857 25.0649 135.766 25.0544 135.667C25.0439 135.568 25.0702 135.468 25.1278 135.388C25.1854 135.309 25.2701 135.255 25.3646 135.237Z" fill="black"/>
<path d="M28.5114 132.732C30.6571 132.486 31.4521 130.969 30.7545 128.994C30.0803 127.075 27.8628 127.884 27.7684 127.918C27.7218 127.936 27.6724 127.944 27.6228 127.942C27.5732 127.939 27.5246 127.927 27.4796 127.905C27.4346 127.883 27.3942 127.853 27.3607 127.815C27.3271 127.777 27.3011 127.732 27.2841 127.684C27.2671 127.635 27.2595 127.584 27.2616 127.532C27.2637 127.481 27.2756 127.43 27.2965 127.383C27.3174 127.337 27.347 127.295 27.3835 127.26C27.4201 127.225 27.4629 127.198 27.5095 127.18C28.5506 126.788 30.7145 126.597 31.4642 128.724C32.3219 131.157 31.2482 133.207 28.5952 133.512C28.4979 133.519 28.4018 133.487 28.3269 133.422C28.252 133.357 28.2041 133.265 28.1933 133.164C28.1824 133.063 28.2095 132.962 28.2688 132.882C28.3281 132.801 28.415 132.748 28.5114 132.732Z" fill="black"/>
<path d="M31.6524 130.228C33.7589 129.985 34.6075 128.505 33.8955 126.489C33.216 124.568 31.0023 125.378 30.9087 125.413C30.8154 125.446 30.7135 125.439 30.6247 125.395C30.5359 125.351 30.4673 125.272 30.4336 125.176C30.3998 125.08 30.4035 124.974 30.4439 124.88C30.4842 124.787 30.5581 124.714 30.6498 124.676C31.6902 124.284 33.8562 124.093 34.6052 126.219C35.4606 128.647 34.3946 130.702 31.7362 131.008C31.6869 131.014 31.6371 131.009 31.5894 130.995C31.5418 130.981 31.4973 130.957 31.4586 130.924C31.4199 130.892 31.3876 130.852 31.3637 130.807C31.3397 130.762 31.3246 130.713 31.3191 130.661C31.3136 130.61 31.3178 130.558 31.3316 130.509C31.3454 130.459 31.3684 130.413 31.3993 130.373C31.4303 130.332 31.4686 130.299 31.512 130.274C31.5554 130.249 31.6031 130.233 31.6524 130.228Z" fill="black"/>
<path d="M34.7966 127.723C36.9476 127.475 37.735 125.954 37.0397 123.984C36.9271 123.608 36.6997 123.282 36.3921 123.053C36.0846 122.824 35.7136 122.706 35.3357 122.717C34.9003 122.703 34.4661 122.768 34.0522 122.909C34.0056 122.927 33.9561 122.935 33.9065 122.933C33.8569 122.93 33.8082 122.918 33.7632 122.896C33.7182 122.875 33.6777 122.844 33.6442 122.806C33.6106 122.768 33.5845 122.724 33.5674 122.675C33.5504 122.627 33.5427 122.575 33.5448 122.524C33.5468 122.472 33.5587 122.421 33.5796 122.375C33.6004 122.328 33.63 122.286 33.6665 122.251C33.7031 122.216 33.7458 122.189 33.7924 122.171C34.3018 122.003 34.8345 121.923 35.3689 121.936C35.8956 121.933 36.4096 122.104 36.837 122.424C37.2644 122.744 37.5833 123.197 37.7479 123.717C38.6056 126.15 37.5312 128.201 34.8789 128.505C34.7792 128.517 34.6792 128.486 34.601 128.421C34.5227 128.356 34.4727 128.261 34.4617 128.157C34.4508 128.053 34.48 127.95 34.5428 127.868C34.6056 127.787 34.6969 127.735 34.7966 127.723Z" fill="black"/>
<path d="M37.9398 125.219C40.0538 124.976 40.8933 123.492 40.1829 121.479C40.0702 121.104 39.8429 120.777 39.5353 120.548C39.2278 120.319 38.8568 120.201 38.4788 120.212C38.0437 120.201 37.6099 120.266 37.1953 120.404C37.102 120.437 37.0001 120.43 36.9113 120.386C36.8226 120.342 36.754 120.263 36.7202 120.167C36.6864 120.071 36.6901 119.965 36.7305 119.871C36.7709 119.778 36.8448 119.705 36.9364 119.667C37.4455 119.498 37.9778 119.417 38.5121 119.428C39.0389 119.425 39.5529 119.596 39.9804 119.916C40.4078 120.236 40.7267 120.689 40.8911 121.21C41.7488 123.643 40.6751 125.693 38.0221 125.998C37.9251 126.005 37.8295 125.972 37.7551 125.907C37.6808 125.842 37.6334 125.75 37.6228 125.649C37.6122 125.549 37.6392 125.448 37.6982 125.368C37.7573 125.288 37.8438 125.234 37.9398 125.219Z" fill="black"/>
<path fill-rule="evenodd" clip-rule="evenodd" d="M104.284 105.549L104.794 119.129L123.986 130.947L147.5 128.791L146.947 112.428L123.907 114.592L104.284 105.549Z" fill="white"/>
<path fill-rule="evenodd" clip-rule="evenodd" d="M109.562 105.054L123.964 111.852L140.885 110.382L146.947 112.428L123.907 114.592L104.277 105.556L109.562 105.054Z" fill="#FFD997"/>
<path d="M147.323 112.406C147.336 112.314 147.318 112.221 147.271 112.142C147.225 112.063 147.153 112.004 147.069 111.975L137.508 108.855C137.413 108.824 137.309 108.834 137.22 108.882C137.131 108.93 137.065 109.013 137.035 109.112C137.005 109.212 137.014 109.319 137.06 109.412C137.106 109.504 137.186 109.574 137.282 109.605L145.221 112.195L123.97 114.191L105.789 105.813L113.064 105.16C113.113 105.156 113.162 105.141 113.206 105.117C113.25 105.094 113.289 105.061 113.321 105.021C113.353 104.982 113.377 104.936 113.392 104.887C113.407 104.837 113.413 104.786 113.409 104.734C113.404 104.682 113.39 104.632 113.368 104.586C113.345 104.54 113.313 104.5 113.275 104.466C113.237 104.433 113.193 104.408 113.146 104.392C113.098 104.377 113.048 104.371 112.999 104.375C106.709 105.03 104.876 105.152 104.316 105.193C104.132 105.207 103.869 105.229 103.899 105.586C103.92 105.664 103.882 105.233 104.413 119.142C104.415 119.207 104.434 119.271 104.466 119.328C104.498 119.384 104.544 119.431 104.598 119.464C119.642 128.768 122.96 130.812 123.723 131.239C123.933 131.357 123.849 131.35 124.303 131.31C125.409 131.212 130.003 130.789 147.529 129.179C147.626 129.17 147.715 129.123 147.779 129.048C147.843 128.972 147.877 128.874 147.874 128.774C147.329 112.06 147.341 112.484 147.323 112.406ZM146.925 122.944L124.413 125.429V120.685L146.775 118.526L146.925 122.944ZM104.876 111.26L123.657 120.503V122.651L110.534 115.959C110.444 115.914 110.34 115.907 110.245 115.941C110.15 115.975 110.072 116.047 110.028 116.14C109.984 116.234 109.978 116.342 110.011 116.441C110.043 116.539 110.112 116.62 110.202 116.666L123.659 123.526V125.028L105.01 114.78L104.876 111.26ZM146.583 112.856L146.749 117.741L124.411 119.897V114.939L146.583 112.856ZM123.654 114.904V115.846L113.948 111.23C113.903 111.208 113.854 111.196 113.804 111.195C113.755 111.193 113.705 111.201 113.659 111.219C113.612 111.237 113.57 111.264 113.533 111.299C113.497 111.335 113.468 111.377 113.447 111.424C113.427 111.471 113.415 111.521 113.413 111.573C113.412 111.624 113.42 111.676 113.437 111.724C113.454 111.772 113.48 111.817 113.514 111.855C113.548 111.892 113.589 111.923 113.634 111.944L123.656 116.711V119.636L104.843 110.376L104.806 109.402C117.742 115.682 116.917 115.304 117.047 115.304C117.133 115.304 117.216 115.274 117.283 115.218C117.35 115.162 117.397 115.084 117.416 114.997C117.435 114.91 117.424 114.818 117.386 114.738C117.348 114.658 117.285 114.594 117.207 114.556L104.772 108.518L104.684 106.163L123.654 114.904ZM105.163 118.9L105.126 117.912L114.251 123.268C114.338 123.319 114.441 123.332 114.537 123.304C114.634 123.276 114.716 123.21 114.765 123.119C114.814 123.028 114.827 122.921 114.8 122.821C114.773 122.72 114.709 122.635 114.622 122.584L105.092 116.989L105.043 115.686L123.659 125.916V126.931L117.192 123.503C117.103 123.46 117.002 123.453 116.909 123.486C116.816 123.519 116.739 123.588 116.694 123.679C116.649 123.77 116.641 123.876 116.669 123.973C116.698 124.071 116.762 124.153 116.849 124.202L123.661 127.813V130.292L105.163 118.9ZM124.416 130.513V127.923L143.165 126.208C143.265 126.199 143.357 126.149 143.422 126.069C143.487 125.989 143.518 125.885 143.509 125.781C143.5 125.677 143.452 125.581 143.375 125.514C143.298 125.447 143.198 125.414 143.098 125.423L124.414 127.132V126.213L146.951 123.726L147.053 126.738L130.399 128.342C130.298 128.352 130.206 128.402 130.142 128.482C130.077 128.563 130.046 128.666 130.055 128.77C130.064 128.874 130.113 128.97 130.19 129.037C130.267 129.104 130.367 129.137 130.467 129.127L147.077 127.526L147.107 128.431L124.416 130.513Z" fill="black"/>
<path fill-rule="evenodd" clip-rule="evenodd" d="M143.658 105.364V110.735L123.548 112.267L107.133 104.557L106.889 99.3944L123.514 105.831L143.658 105.364Z" fill="white"/>
<path d="M144.799 104.893C144.798 104.81 144.772 104.73 144.725 104.664C144.677 104.598 144.611 104.549 144.536 104.524L125.37 98.1942C125.275 98.162 126.352 98.1227 106.924 98.8559C106.652 98.8661 106.518 99.1464 106.52 99.4258C106.52 99.7241 106.58 100.741 106.756 104.576C106.76 104.648 106.782 104.718 106.821 104.778C106.86 104.838 106.914 104.885 106.978 104.915C124.542 113.158 123.43 112.67 123.575 112.659C146.835 110.764 143.325 111.179 143.698 111.118C144.065 111.127 144.29 111.137 144.435 111.137C144.881 111.137 144.88 110.891 144.888 110.603C144.9 110.055 144.862 108.657 144.799 104.893ZM123.824 106.076L143.261 105.78V110.372L123.916 111.845L123.824 106.076ZM107.289 99.8042L123.069 105.97L123.16 111.653L107.502 104.298L107.289 99.8042Z" fill="black"/>
<path d="M125.791 108.453C125.691 108.455 125.594 108.415 125.522 108.343C125.45 108.271 125.409 108.172 125.407 108.067C125.406 107.963 125.444 107.863 125.513 107.788C125.583 107.713 125.678 107.67 125.778 107.668L141.528 107.127C141.577 107.126 141.626 107.135 141.673 107.154C141.719 107.173 141.761 107.201 141.796 107.237C141.832 107.273 141.86 107.316 141.88 107.363C141.9 107.41 141.91 107.461 141.911 107.513C141.912 107.564 141.903 107.616 141.885 107.664C141.867 107.711 141.839 107.755 141.805 107.792C141.77 107.829 141.729 107.859 141.684 107.879C141.638 107.9 141.589 107.911 141.54 107.912L125.791 108.453Z" fill="black"/>
<path d="M128.822 110.348C128.772 110.35 128.723 110.341 128.677 110.322C128.63 110.303 128.588 110.276 128.552 110.24C128.516 110.204 128.487 110.162 128.467 110.115C128.447 110.068 128.436 110.017 128.435 109.965C128.434 109.914 128.443 109.862 128.46 109.814C128.478 109.766 128.505 109.722 128.539 109.685C128.574 109.648 128.614 109.618 128.66 109.597C128.705 109.576 128.754 109.565 128.804 109.563L140.934 108.971C141.034 108.966 141.132 109.002 141.206 109.073C141.28 109.143 141.325 109.241 141.329 109.345C141.334 109.449 141.299 109.551 141.231 109.628C141.164 109.705 141.07 109.751 140.97 109.756L128.822 110.348Z" fill="black"/>
<path d="M122.126 110.001C122.003 110.001 122.654 110.278 108.576 103.837C108.53 103.817 108.487 103.788 108.451 103.751C108.415 103.714 108.387 103.67 108.368 103.621C108.348 103.573 108.339 103.52 108.339 103.468C108.34 103.415 108.351 103.363 108.371 103.315C108.391 103.267 108.42 103.224 108.457 103.187C108.494 103.151 108.537 103.123 108.584 103.105C108.632 103.086 108.682 103.078 108.733 103.08C108.783 103.082 108.833 103.095 108.878 103.118L122.275 109.249C122.354 109.285 122.419 109.349 122.459 109.429C122.499 109.508 122.511 109.6 122.493 109.688C122.476 109.776 122.43 109.856 122.363 109.912C122.296 109.969 122.212 110.001 122.126 110.001Z" fill="black"/>
<path d="M122.329 107.894C122.215 107.894 122.95 108.175 111.257 103.243C111.166 103.203 111.094 103.127 111.057 103.032C111.02 102.936 111.019 102.83 111.057 102.735C111.094 102.64 111.166 102.563 111.256 102.523C111.347 102.482 111.449 102.479 111.542 102.516L122.472 107.138C122.553 107.173 122.62 107.235 122.661 107.315C122.703 107.396 122.717 107.488 122.7 107.577C122.683 107.667 122.637 107.747 122.569 107.805C122.501 107.863 122.417 107.894 122.329 107.894Z" fill="black"/>
<path fill-rule="evenodd" clip-rule="evenodd" d="M136.039 102.628L118.877 103.383L122.48 104.817L139.69 103.91L136.039 102.628Z" fill="white"/>
<path d="M127.161 116.935C127.061 116.941 126.962 116.905 126.888 116.835C126.813 116.766 126.768 116.668 126.763 116.564C126.757 116.46 126.792 116.358 126.859 116.28C126.926 116.203 127.02 116.156 127.12 116.15L142.078 114.452C142.177 114.441 142.277 114.472 142.355 114.537C142.432 114.602 142.483 114.696 142.495 114.799C142.506 114.903 142.476 115.006 142.414 115.087C142.351 115.168 142.26 115.22 142.161 115.232C127.011 116.964 127.236 116.935 127.161 116.935Z" fill="black"/>
<path d="M131.932 118.138C131.832 118.143 131.733 118.107 131.659 118.038C131.584 117.968 131.54 117.87 131.534 117.766C131.529 117.662 131.564 117.56 131.631 117.483C131.698 117.405 131.792 117.358 131.892 117.353L144.66 115.92C144.709 115.915 144.759 115.919 144.806 115.934C144.854 115.948 144.898 115.972 144.937 116.005C144.976 116.037 145.008 116.077 145.032 116.122C145.055 116.168 145.07 116.217 145.076 116.269C145.086 116.372 145.057 116.476 144.994 116.557C144.931 116.637 144.84 116.689 144.741 116.701C132.083 118.116 132.009 118.138 131.932 118.138Z" fill="black"/>
<path d="M125.894 122.701C125.844 122.704 125.794 122.697 125.748 122.68C125.701 122.663 125.657 122.636 125.62 122.602C125.583 122.568 125.553 122.526 125.531 122.48C125.51 122.433 125.497 122.383 125.494 122.331C125.491 122.28 125.498 122.228 125.515 122.179C125.531 122.131 125.556 122.086 125.589 122.047C125.622 122.008 125.662 121.977 125.707 121.955C125.752 121.932 125.8 121.919 125.85 121.916C131.714 121.193 140.597 120.08 141.037 119.973C141.134 119.945 141.237 119.958 141.324 120.01C141.412 120.061 141.476 120.146 141.503 120.246C141.529 120.347 141.517 120.454 141.467 120.545C141.418 120.635 141.336 120.702 141.24 120.73C140.817 120.86 125.975 122.701 125.894 122.701Z" fill="black"/>
<path d="M131.43 124.047C131.38 124.05 131.33 124.043 131.283 124.026C131.237 124.01 131.193 123.983 131.156 123.949C131.119 123.915 131.089 123.873 131.067 123.827C131.045 123.78 131.032 123.73 131.029 123.678C131.027 123.627 131.033 123.575 131.05 123.526C131.066 123.478 131.091 123.433 131.124 123.394C131.157 123.355 131.197 123.324 131.242 123.301C131.286 123.279 131.335 123.265 131.384 123.262L145.74 121.441C145.789 121.435 145.839 121.439 145.887 121.453C145.935 121.466 145.979 121.49 146.018 121.522C146.057 121.553 146.09 121.593 146.114 121.638C146.139 121.683 146.154 121.732 146.16 121.783C146.166 121.835 146.163 121.886 146.149 121.936C146.136 121.986 146.114 122.032 146.083 122.073C146.052 122.114 146.014 122.147 145.971 122.173C145.928 122.198 145.88 122.214 145.831 122.221C131.412 124.045 131.506 124.047 131.43 124.047Z" fill="black"/>
<path fill-rule="evenodd" clip-rule="evenodd" d="M125.466 98.735L125.486 100.168C123.783 101.136 121.854 101.595 119.914 101.492C116.429 101.413 115.257 99.9832 115.257 99.9832L115.461 87.9852C117.796 89.0528 121.115 88.9892 125.316 88.0472L125.341 89.8127C125.933 89.8614 128.775 90.2892 128.757 94.0211C128.735 98.5286 126.248 98.768 125.466 98.735ZM125.372 92.068C125.655 92.1231 125.924 92.2359 126.164 92.3999C126.404 92.564 126.61 92.7759 126.771 93.0236C126.932 93.2712 127.044 93.5496 127.1 93.8425C127.156 94.1354 127.156 94.4371 127.1 94.7299C127.042 95.2223 126.856 95.6892 126.564 96.0812C126.272 96.4732 125.883 96.7758 125.439 96.957L125.372 92.068Z" fill="white"/>
<path d="M125.642 89.4335C125.675 88.8991 125.658 88.3625 125.593 87.8313C125.366 86.8226 121.904 86.7025 120.374 86.7025C119.096 86.7025 115.164 86.7441 115.138 87.9726C114.868 101.004 114.83 100.062 114.969 100.234C115.021 100.297 116.292 101.797 119.906 101.882C121.919 101.971 123.918 101.492 125.691 100.495C125.929 100.334 125.863 100.146 125.842 99.1699C126.504 99.1619 127.143 98.918 127.654 98.4791C128.626 97.6399 129.124 96.1398 129.135 94.0203C129.153 90.2342 126.511 89.5552 125.642 89.4335ZM115.639 99.8167L115.879 88.6305C117.641 89.3103 123.103 89.3134 124.871 88.6305L125.105 99.9392C122 101.68 117.295 101.315 115.639 99.8167ZM125.707 92.5515C126.166 92.7478 126.847 93.273 126.724 94.6907C126.705 95.0289 126.61 95.3579 126.448 95.6515C126.285 95.945 126.059 96.195 125.787 96.3816L125.707 92.5515ZM125.881 98.3849L125.899 97.2184C126.347 96.9898 126.729 96.6422 127.006 96.2106C127.283 95.7791 127.445 95.2791 127.476 94.7613C127.662 92.6151 126.369 91.9353 125.734 91.732V90.2366C126.555 90.3936 128.393 91.0679 128.377 94.0148C128.369 96.033 127.818 98.3095 125.88 98.3849H125.881Z" fill="black"/>
<path d="M116.676 66.5499C115.046 66.5648 108.87 66.7163 107.985 68.0767C107.394 68.9858 108.192 69.6169 108.621 69.956C108.649 69.9777 108.67 70.0067 108.683 70.0399C108.696 70.0731 108.7 70.1093 108.695 70.1447C108.69 70.1801 108.675 70.2135 108.653 70.2412C108.632 70.2689 108.603 70.29 108.571 70.3022C107.751 70.6162 101.549 72.3471 101.272 72.4735C101.184 72.5144 101.113 72.5879 101.075 72.6797C101.036 72.7716 101.031 72.8752 101.061 72.9704C101.332 73.7719 109.702 73.4037 110.544 73.169C113.005 72.4814 113.708 70.2433 111.701 68.9873C111.675 68.9715 111.649 68.9539 111.625 68.9347C112.055 68.3452 115.587 67.4432 116.614 67.3349C117.542 67.3255 117.3 66.4714 116.676 66.5499Z" fill="white"/>
<path d="M116.86 66.1576C116.352 66.1984 108.813 66.1081 107.672 67.8626C107.559 68.0352 107.48 68.2298 107.442 68.4347C107.403 68.6396 107.404 68.8506 107.446 69.0549C107.488 69.2592 107.569 69.4525 107.685 69.6232C107.801 69.7939 107.949 69.9384 108.12 70.048C105.538 70.8503 101.458 71.9682 101.119 72.1197C100.944 72.2006 100.805 72.3468 100.728 72.5294C100.651 72.7121 100.643 72.9179 100.706 73.1064C100.806 73.4055 100.959 73.8584 105.085 73.8584C106.941 73.8869 108.797 73.7851 110.64 73.5539C113.191 72.8411 114.123 70.4837 112.288 68.9443C113.692 68.3773 115.152 67.9711 116.641 67.7331C116.791 67.752 116.943 67.7326 117.084 67.6765C117.225 67.6204 117.351 67.5294 117.45 67.4112C117.53 67.2949 117.578 67.1581 117.59 67.0155C117.601 66.8729 117.575 66.7297 117.515 66.6012C117.454 66.4726 117.361 66.3635 117.246 66.2854C117.131 66.2073 116.997 66.1632 116.86 66.1576ZM111.325 68.7033C111.289 68.7545 111.265 68.8137 111.254 68.8763C111.244 68.9389 111.248 69.0032 111.265 69.0641C111.283 69.1249 111.313 69.1808 111.355 69.2271C111.397 69.2735 111.449 69.3092 111.506 69.3313C113.26 70.4303 112.528 72.2162 110.449 72.7971C109.624 73.0279 102.887 73.2681 101.495 72.8144C101.84 72.6974 108.094 70.9115 108.704 70.6776C108.8 70.641 108.885 70.5783 108.949 70.4961C109.014 70.4139 109.056 70.3152 109.071 70.2102C109.087 70.1053 109.075 69.9979 109.037 69.8994C108.999 69.8009 108.936 69.7148 108.855 69.6501C108.229 69.1563 107.972 68.8125 108.302 68.3038C108.801 67.5376 112.162 66.9928 116.666 66.9497C116.084 66.9591 111.929 67.8705 111.325 68.6994V68.7033Z" fill="black"/>
<path d="M111.647 54.4979C108.894 55.5922 102.54 58.3255 103.04 60.0588C103.493 61.6163 103.606 61.8463 101.929 62.7467C99.9076 63.8315 97.2228 66.9496 97.1096 67.0814C97.0545 67.1469 97.0219 67.2294 97.0168 67.3162C97.0117 67.403 97.0345 67.4891 97.0816 67.561C97.1287 67.6328 97.1974 67.6864 97.2769 67.7133C97.3565 67.7401 97.4423 67.7388 97.5211 67.7094C98.2655 67.4268 104.82 64.8921 105.87 62.8872C106.993 60.7379 105.039 61.1013 107.775 59.4991C109.588 58.4551 111.09 56.9118 112.115 55.0388C112.148 54.9685 112.16 54.8896 112.15 54.8122C112.139 54.7348 112.107 54.6624 112.056 54.6043C112.006 54.5462 111.94 54.5051 111.867 54.4861C111.794 54.4671 111.718 54.4712 111.647 54.4979Z" fill="white"/>
<path d="M97.3957 68.1278C97.25 68.1278 97.1074 68.084 96.9851 68.0016C96.8628 67.9193 96.7661 67.8019 96.7066 67.6636C96.647 67.5254 96.6272 67.3722 96.6496 67.2225C96.6719 67.0728 96.7354 66.933 96.8324 66.82C102.372 60.3532 103.536 63.1187 102.683 60.1726C102.246 58.6646 105.217 56.6323 111.516 54.1281C111.659 54.0716 111.814 54.0611 111.962 54.0981C112.11 54.1351 112.244 54.2177 112.346 54.3353C112.448 54.4528 112.514 54.5996 112.534 54.7566C112.554 54.9135 112.529 55.0731 112.46 55.2146C111.399 57.1558 109.845 58.756 107.968 59.8398C106.576 60.6546 106.592 60.8281 106.615 61.0919C106.697 61.7811 106.554 62.4792 106.21 63.074C105.049 65.2838 97.7452 68.1278 97.3957 68.1278ZM111.782 54.8613C105.682 57.2862 103.175 59.16 103.405 59.9426C103.911 61.6853 103.927 62.1139 102.106 63.092C100.137 64.1494 97.4251 67.3075 97.3964 67.3389C100.045 66.3349 104.742 64.2271 105.542 62.698C106.546 60.7794 104.678 60.8626 107.594 59.156C109.343 58.1523 110.791 56.6675 111.782 54.8644V54.8613Z" fill="black"/>
<path fill-rule="evenodd" clip-rule="evenodd" d="M94.396 39.3144L97.1517 26.3549L113.737 30.3584L110.868 43.3014L94.396 39.3144Z" fill="white"/>
<path d="M113.822 29.9776C101.428 26.9813 98.2173 26.1774 97.3377 26.0102C97.0901 25.9631 96.9036 25.9137 96.8092 26.2269C96.6393 26.7889 96.1659 29.1259 94.0278 39.2288C94.0166 39.2791 94.0151 39.3312 94.0232 39.382C94.0314 39.4329 94.0492 39.4816 94.0754 39.5254C94.1017 39.5691 94.1361 39.607 94.1765 39.637C94.2169 39.6669 94.2626 39.6883 94.3109 39.6998C95.8488 40.0735 109.25 43.3108 110.786 43.6892C110.975 43.7355 111.15 43.6562 111.231 43.3752C111.42 42.719 111.945 40.2305 114.105 30.4518C114.116 30.4013 114.118 30.349 114.11 30.2978C114.102 30.2466 114.085 30.1976 114.059 30.1535C114.032 30.1094 113.998 30.0712 113.957 30.041C113.917 30.0108 113.871 29.9893 113.822 29.9776ZM112.157 35.7434L110.335 35.2819L112.635 33.587L112.157 35.7434ZM111.317 39.5373L109.097 38.9753L109.776 35.9483L111.985 36.508L111.317 39.5373ZM105.371 41.5681L105.953 38.9863L108.192 39.553L107.615 42.1121L105.371 41.5681ZM102.183 40.7965L102.774 38.1809L105.22 38.8002L104.636 41.3907L102.183 40.7965ZM98.5759 39.9228L99.1369 37.2601L102.041 37.9956L101.449 40.6191L98.5759 39.9228ZM96.9753 29.0113L99.4864 29.6471L96.4785 31.3474L96.9753 29.0113ZM104.333 33.7637L106.73 32.0955L106.244 34.2464L104.333 33.7637ZM102.521 34.1122L99.3988 36.0135L99.9349 33.456L102.521 34.1122ZM100.639 32.8287L103.552 31.2948L103.067 33.4434L100.639 32.8287ZM102.742 34.8878L102.213 37.2342L99.873 36.6399L102.742 34.8878ZM103.628 34.3925L106.075 35.0126L105.395 38.0396L102.949 37.4194L103.628 34.3925ZM107.328 34.522L109.693 32.9143L109.222 35.0016L107.328 34.522ZM110.574 32.4535L112.287 32.8876L110.115 34.4882L110.574 32.4535ZM107.151 33.7056L107.604 31.7015L109.423 32.1615L107.151 33.7056ZM103.925 33.1074L104.423 30.8961L106.392 31.3945L103.925 33.1074ZM100.216 32.1748L100.685 29.9494L103.222 30.5915L100.216 32.1748ZM99.3732 32.5061L97.0546 31.9189L99.8269 30.3489L99.3732 32.5061ZM96.2354 32.5187L98.6446 33.1286L95.7054 35.0126L96.2354 32.5187ZM99.1104 33.7527L98.5714 36.3102L96.0957 35.6822L99.1104 33.7527ZM106.132 38.2272L106.811 35.2002L109.05 35.767L108.371 38.794L106.132 38.2272ZM97.4381 26.829L113.284 30.6551L112.932 32.2447L97.1376 28.2412L97.4381 26.829ZM95.42 36.3188L98.4023 37.074L97.8398 39.743L94.8455 39.0177L95.42 36.3188ZM110.588 42.8343L108.349 42.2919L108.925 39.7414L111.148 40.3043L110.588 42.8343Z" fill="black"/>
<path d="M119.664 42.7707C118.104 40.8216 115.123 39.5915 114.997 39.5405C114.942 39.5178 114.882 39.5091 114.823 39.5149C114.764 39.5208 114.707 39.5411 114.657 39.5741C114.606 39.6071 114.565 39.652 114.534 39.7051C114.504 39.7582 114.486 39.818 114.482 39.8796C114.347 42.0046 114.214 44.4687 114.214 44.4687C114.209 44.5585 114.234 44.6472 114.285 44.7201C114.335 44.793 114.409 44.8456 114.492 44.8691C114.576 44.8927 114.664 44.8857 114.743 44.8494C114.822 44.8131 114.887 44.7496 114.927 44.6696L115.702 43.0926C116.222 44.6937 116.209 46.4301 115.664 48.0224C115.641 48.0812 115.631 48.1451 115.637 48.2085C115.642 48.272 115.663 48.3331 115.696 48.3865C115.729 48.44 115.775 48.4843 115.828 48.5155C115.881 48.5467 115.941 48.5639 116.003 48.5656L116.924 48.5923C117.006 48.5923 117.086 48.5647 117.151 48.5138C117.216 48.4628 117.264 48.3912 117.287 48.3097C117.787 46.463 117.761 44.5049 117.211 42.6734L119.25 43.3932C119.328 43.4218 119.413 43.4229 119.491 43.3963C119.57 43.3698 119.638 43.3171 119.685 43.2464C119.733 43.1757 119.756 43.0908 119.752 43.0048C119.748 42.9189 119.717 42.8366 119.664 42.7707Z" fill="#81F8F8"/>
<path d="M116.922 48.9848C115.959 48.9707 115.642 49.0248 115.377 48.5993C115.311 48.4927 115.27 48.371 115.259 48.2445C115.248 48.118 115.266 47.9906 115.313 47.8732C115.71 46.6856 115.806 45.4117 115.592 44.1743L115.261 44.8478C115.182 45.0083 115.053 45.1356 114.894 45.2086C114.736 45.2816 114.558 45.2957 114.391 45.2486C114.224 45.2014 114.077 45.0959 113.976 44.9498C113.875 44.8037 113.825 44.6257 113.835 44.4459C113.835 44.4459 113.968 41.9802 114.104 39.8537C114.111 39.731 114.147 39.612 114.207 39.5062C114.267 39.4004 114.351 39.3108 114.45 39.2446C114.55 39.1784 114.663 39.1374 114.781 39.125C114.898 39.1126 115.017 39.129 115.127 39.1731C115.262 39.2272 118.333 40.4927 119.953 42.5195C120.058 42.6509 120.118 42.8143 120.126 42.985C120.134 43.1557 120.088 43.3243 119.995 43.4652C119.902 43.6061 119.767 43.7117 119.611 43.7658C119.455 43.82 119.287 43.8198 119.131 43.7653L117.76 43.281C118.143 44.9757 118.104 46.744 117.647 48.4188C117.602 48.5821 117.506 48.7256 117.376 48.8277C117.245 48.9298 117.086 48.9849 116.922 48.9848ZM116.054 42.9599C116.602 44.6534 116.587 46.489 116.011 48.1723L116.922 48.1998C117.401 46.4271 117.377 44.548 116.851 42.7896C116.83 42.7204 116.828 42.6465 116.845 42.5763C116.863 42.506 116.898 42.442 116.948 42.3915C116.998 42.3409 117.06 42.3057 117.128 42.2898C117.196 42.2739 117.267 42.2779 117.333 42.3013L119.372 43.0211C117.874 41.1489 114.98 39.9557 114.858 39.9055C114.722 42.025 114.589 44.4907 114.589 44.4907L115.364 42.9136C115.397 42.8449 115.449 42.7879 115.513 42.7497C115.577 42.7115 115.651 42.6937 115.725 42.6987C115.799 42.7036 115.87 42.731 115.929 42.7774C115.988 42.8239 116.032 42.8873 116.057 42.9599H116.054Z" fill="black"/>
<path d="M125.152 37.4932C122.86 34.1327 120.139 33.434 118.741 33.3139L119.553 32.4347C119.612 32.371 119.649 32.2885 119.657 32.2006C119.665 32.1126 119.645 32.0244 119.599 31.9501C119.553 31.8758 119.484 31.8198 119.403 31.7912C119.323 31.7627 119.236 31.7631 119.156 31.7926C117.896 32.3509 116.71 33.0725 115.625 33.9403C115.577 33.9789 115.538 34.0292 115.512 34.0867C115.487 34.1443 115.475 34.2074 115.478 34.2708C115.481 34.3341 115.499 34.3958 115.53 34.4505C115.56 34.5052 115.604 34.5513 115.655 34.5848L118.751 36.5834C118.824 36.6304 118.909 36.6504 118.994 36.64C119.079 36.6297 119.158 36.5896 119.219 36.5263C119.279 36.4631 119.317 36.3805 119.326 36.292C119.335 36.2035 119.315 36.1145 119.269 36.0394L118.466 34.7261C121.704 35.2042 123.837 38.4156 123.86 38.4502C123.895 38.5033 123.941 38.5468 123.996 38.577C124.05 38.6071 124.111 38.6228 124.173 38.6229C124.332 38.6229 124.336 38.5915 125.066 38.0365C125.146 37.9758 125.2 37.8848 125.216 37.7832C125.232 37.6816 125.209 37.5774 125.152 37.4932Z" fill="#81F8F8"/>
<path d="M124.175 39.0154C124.051 39.0153 123.93 38.9838 123.821 38.9236C123.712 38.8633 123.619 38.7763 123.55 38.67C122.474 37.1388 120.987 35.9719 119.276 35.3157L119.59 35.8283C119.682 35.9786 119.722 36.1569 119.703 36.3341C119.685 36.5112 119.609 36.6765 119.488 36.8029C119.367 36.9293 119.209 37.0092 119.039 37.0295C118.868 37.0499 118.697 37.0094 118.551 36.9147L115.456 34.9184C115.352 34.8514 115.265 34.7592 115.203 34.6497C115.141 34.5401 115.106 34.4166 115.1 34.2897C115.094 34.1627 115.118 34.0362 115.169 33.9209C115.221 33.8056 115.298 33.7051 115.396 33.6279C116.51 32.734 117.732 31.9931 119.029 31.4236C119.189 31.3651 119.363 31.3643 119.523 31.4214C119.684 31.4785 119.821 31.5902 119.913 31.7384C120.005 31.8865 120.047 32.0626 120.031 32.2383C120.015 32.4139 119.942 32.5787 119.825 32.7063L119.523 33.0289C120.733 33.2947 121.88 33.806 122.899 34.5337C123.918 35.2614 124.789 36.1911 125.461 37.2695C125.576 37.4379 125.623 37.6465 125.591 37.8503C125.559 38.0541 125.451 38.2366 125.291 38.3583C124.561 38.9086 124.484 39.0154 124.175 39.0154ZM118.521 34.3375C121.891 34.8344 124.081 38.0891 124.173 38.228L124.845 37.7201C122.647 34.4969 120.058 33.8202 118.711 33.7048C118.64 33.6987 118.572 33.6717 118.515 33.627C118.458 33.5823 118.415 33.5217 118.389 33.4523C118.364 33.3829 118.358 33.3074 118.373 33.2347C118.387 33.162 118.421 33.095 118.471 33.0415L119.283 32.1623C118.062 32.7075 116.911 33.4092 115.858 34.2512L118.953 36.2498L118.151 34.9365C118.112 34.8733 118.092 34.7999 118.092 34.725C118.092 34.6501 118.113 34.5769 118.152 34.5139C118.191 34.451 118.246 34.4009 118.312 34.3696C118.377 34.3384 118.45 34.3273 118.521 34.3375Z" fill="black"/>
<path d="M92.425 28.085C92.17 28.0323 91.9056 28.0627 91.6679 28.1723C91.4303 28.2818 91.231 28.465 91.0973 28.6968C90.9637 28.9287 90.9022 29.1978 90.9214 29.4674C90.9406 29.7369 91.0394 29.9937 91.2043 30.2026C91.3693 30.4115 91.5923 30.5623 91.8429 30.6343C92.0934 30.7063 92.3593 30.6961 92.604 30.6049C92.8487 30.5138 93.0604 30.3462 93.21 30.1251C93.3596 29.9041 93.4398 29.6404 93.4397 29.3701C93.4685 29.0599 93.3779 28.7504 93.1877 28.5095C92.9975 28.2687 92.7232 28.116 92.425 28.085Z" fill="#FFD997"/>
<path d="M92.4246 31.05C92.0953 31.1007 91.759 31.0456 91.4607 30.8919C91.1625 30.7382 90.9166 30.4933 90.756 30.1901C90.5955 29.8869 90.528 29.5399 90.5625 29.1957C90.5971 28.8514 90.7322 28.5264 90.9495 28.2643C91.1669 28.0021 91.4561 27.8154 91.7785 27.7291C92.1009 27.6428 92.4409 27.6611 92.753 27.7816C93.0651 27.902 93.3343 28.1188 93.5244 28.4029C93.7146 28.687 93.8166 29.0247 93.8168 29.3708C93.8325 29.5764 93.8088 29.783 93.7471 29.979C93.6854 30.1749 93.587 30.3562 93.4576 30.5123C93.3281 30.6685 93.1701 30.7964 92.9928 30.8887C92.8155 30.9809 92.6224 31.0358 92.4246 31.05ZM92.4246 28.4783C92.066 28.4783 91.7859 28.8708 91.7859 29.3708C91.7859 29.8709 92.066 30.265 92.4246 30.265C92.7832 30.265 93.0618 29.8725 93.0618 29.3708C93.0618 28.8692 92.7817 28.4775 92.4246 28.4775V28.4783Z" fill="black"/>
<path d="M91.7251 22.707C91.1294 20.0937 90.499 19.2122 90.0105 19.22C89.0041 19.2349 89.5484 21.9055 89.784 22.9229C90.4703 25.9341 91.143 26.4153 91.4979 26.4098C92.5012 26.3949 91.9576 23.7236 91.7251 22.707Z" fill="#FFD997"/>
<path d="M91.5029 26.8023C91.176 26.8078 90.2715 26.7779 89.4131 23.0131C89.0846 21.5749 88.5826 18.8526 90.0027 18.8274C90.3296 18.822 91.2326 18.8526 92.0918 22.6166C92.4202 24.0548 92.9231 26.7795 91.5029 26.8023ZM89.9174 19.6729C89.373 20.4131 90.7358 26.0173 91.481 26.0173C92.3606 26.0173 90.5878 18.7662 89.9197 19.6729H89.9174Z" fill="black"/>
<path d="M27.2772 34.5425C27.3265 34.5049 27.3663 34.4554 27.3932 34.3983C27.42 34.3411 27.4331 34.2781 27.4313 34.2145C27.4295 34.1509 27.4129 34.0888 27.3829 34.0334C27.3529 33.978 27.3104 33.931 27.2591 33.8964L26.1975 33.1876C26.1274 33.1405 26.0442 33.119 25.961 33.1264C25.8778 33.1338 25.7993 33.1697 25.7378 33.2284C23.8179 35.0907 22.4822 37.511 21.9046 40.1741L19.7997 37.5679C19.7466 37.502 19.6743 37.4561 19.5937 37.4371C19.5131 37.4182 19.4288 37.4272 19.3537 37.4628C19.2785 37.4985 19.2167 37.5588 19.1776 37.6344C19.1386 37.7101 19.1245 37.7971 19.1375 37.8819C19.6336 41.3202 22.2965 44.9743 22.409 45.1282C22.445 45.1773 22.4917 45.2168 22.5452 45.2435C22.5987 45.2703 22.6575 45.2836 22.7169 45.2823C22.7762 45.281 22.8344 45.2652 22.8868 45.2361C22.9392 45.207 22.9842 45.1654 23.0182 45.1149C24.646 42.6978 26.5063 39.8773 26.5063 39.8773C26.5556 39.8031 26.5788 39.7135 26.572 39.6236C26.5653 39.5337 26.5289 39.449 26.4691 39.3837C26.4093 39.3184 26.3297 39.2765 26.2437 39.265C26.1576 39.2535 26.0704 39.2732 25.9967 39.3208L23.7098 40.7879C24.1502 38.3326 25.4143 36.1194 27.2772 34.5425Z" fill="#81F8F8"/>
<path d="M22.1092 45.3636C21.8186 44.9672 19.2621 41.3947 18.7646 37.9375C18.7403 37.7683 18.77 37.5955 18.8489 37.4454C18.9279 37.2952 19.0518 37.1761 19.2019 37.1059C19.352 37.0358 19.52 37.0186 19.6804 37.0569C19.8408 37.0952 19.9847 37.187 20.0904 37.3182L21.7204 39.3364C22.3845 36.8837 23.6863 34.6689 25.4826 32.9355C25.6054 32.8178 25.7625 32.7461 25.929 32.7319C26.0955 32.7176 26.2618 32.7617 26.4014 32.857L27.4644 33.5698C27.567 33.6389 27.6519 33.7328 27.7119 33.8435C27.7719 33.9542 27.8051 34.0784 27.8088 34.2054C27.8124 34.3324 27.7863 34.4584 27.7328 34.5726C27.6793 34.6868 27.5999 34.7858 27.5014 34.8611C25.9533 36.1872 24.8262 37.9684 24.2678 39.9715L25.7989 38.9879C25.9459 38.8955 26.1187 38.858 26.2889 38.8815C26.4591 38.9051 26.6165 38.9882 26.7352 39.1172C26.8538 39.2463 26.9266 39.4135 26.9416 39.5913C26.9565 39.7692 26.9127 39.947 26.8174 40.0955C26.8174 40.0955 24.9563 42.9176 23.327 45.3362C23.259 45.4372 23.169 45.5202 23.0644 45.5784C22.9598 45.6365 22.8434 45.6682 22.7248 45.6709C22.6062 45.6736 22.4887 45.6472 22.3817 45.5938C22.2748 45.5404 22.1814 45.4616 22.1092 45.3636ZM19.5113 37.819C19.9892 41.1396 22.5985 44.7341 22.7095 44.884C24.3357 42.4678 26.1953 39.6488 26.1953 39.6488L23.9061 41.1215C23.8445 41.161 23.7733 41.1813 23.7009 41.1799C23.6286 41.1785 23.5581 41.1555 23.498 41.1136C23.4378 41.0718 23.3905 41.0128 23.3617 40.9438C23.3328 40.8748 23.3237 40.7986 23.3353 40.7243C23.798 38.1707 25.114 35.8693 27.0507 34.2269L25.9899 33.5133C24.1231 35.3199 22.8267 37.6723 22.2716 40.2604C22.2562 40.3318 22.2219 40.3973 22.1726 40.4495C22.1232 40.5018 22.0609 40.5386 21.9925 40.5559C21.9241 40.5732 21.8524 40.5703 21.7855 40.5475C21.7186 40.5247 21.6592 40.4829 21.6139 40.4268L19.5113 37.819Z" fill="black"/>
<path d="M18.5618 49.5705L17.0676 44.5535C17.0424 44.4686 16.9901 44.3952 16.9195 44.3452C16.8489 44.2952 16.764 44.2716 16.6788 44.2782C16.5935 44.2849 16.513 44.3214 16.4503 44.3818C16.3877 44.4422 16.3466 44.523 16.3338 44.6108L15.9789 47.0608C12.7279 43.4537 13.3364 37.7696 13.3455 37.7099C13.3519 37.6577 13.3479 37.6046 13.3339 37.554C13.3199 37.5034 13.2961 37.4562 13.264 37.4155C13.1341 37.2499 13.1069 37.253 11.8559 37.1722C11.7574 37.1652 11.6601 37.198 11.5842 37.2636C11.5083 37.3292 11.4596 37.4227 11.4482 37.5246C10.8842 43.4749 13.387 46.7767 14.6826 48.0609L12.7521 48.243C12.6672 48.2509 12.5875 48.2883 12.5257 48.3493C12.4639 48.4102 12.4238 48.4911 12.4118 48.5788C12.3998 48.6664 12.4167 48.7557 12.4597 48.8322C12.5027 48.9086 12.5693 48.9677 12.6486 48.9998C14.4398 49.5998 16.2967 49.9619 18.1752 50.0776C18.2363 50.0819 18.2976 50.0707 18.3536 50.045C18.4096 50.0193 18.4588 49.9797 18.4969 49.9298C18.5349 49.8799 18.5607 49.8211 18.572 49.7585C18.5833 49.6959 18.5798 49.6313 18.5618 49.5705Z" fill="#81F8F8"/>
<path d="M18.2008 50.4709C16.2671 50.3584 14.3555 49.9869 12.5133 49.3656C12.3546 49.3014 12.2214 49.1832 12.1354 49.0304C12.0494 48.8775 12.0157 48.6989 12.0396 48.5236C12.0636 48.3482 12.1439 48.1865 12.2674 48.0646C12.391 47.9427 12.5506 47.8678 12.7202 47.8521L13.8716 47.7438C12.5488 46.1809 10.5647 42.8768 11.0781 37.4862C11.1073 37.2883 11.2041 37.1079 11.3508 36.9781C11.4975 36.8484 11.6843 36.7779 11.8769 36.7797C13.1423 36.8904 13.3114 36.8441 13.5628 37.1722C13.627 37.254 13.6746 37.3485 13.7027 37.4499C13.7307 37.5514 13.7386 37.6578 13.7259 37.7625C13.7213 37.812 13.2178 42.6962 15.7349 46.1487L15.9614 44.5567C15.9869 44.3809 16.069 44.2194 16.1943 44.0984C16.3196 43.9775 16.4806 43.9043 16.6511 43.8909C16.8215 43.8775 16.9913 43.9247 17.1327 44.0247C17.274 44.1246 17.3785 44.2715 17.4291 44.4413L18.9233 49.4543C18.9582 49.5718 18.966 49.6963 18.9462 49.8175C18.9264 49.9388 18.8794 50.0535 18.8091 50.1524C18.7388 50.2513 18.6471 50.3317 18.5414 50.387C18.4357 50.4423 18.3191 50.4711 18.2008 50.4709ZM11.8263 37.5631C11.2683 43.4389 13.8218 46.6636 14.9452 47.7768C14.9977 47.8288 15.0347 47.8955 15.0518 47.9688C15.0688 48.0421 15.0651 48.119 15.0412 48.1902C15.0173 48.2615 14.9742 48.324 14.917 48.3704C14.8598 48.4168 14.791 48.4451 14.7187 48.4519L12.7882 48.6348C14.5434 49.2175 16.3616 49.5705 18.2008 49.6859L16.7066 44.6697L16.3563 47.1197C16.3458 47.1927 16.3157 47.2611 16.2694 47.3171C16.2232 47.3731 16.1627 47.4145 16.0949 47.4364C16.0271 47.4582 15.9547 47.4598 15.8861 47.4409C15.8175 47.4219 15.7554 47.3833 15.707 47.3293C12.3586 43.6131 12.9482 37.9093 12.9746 37.6652L11.8263 37.5631Z" fill="black"/>
<path d="M44.4179 41.2432C43.3511 40.652 42.2601 44.1845 41.9166 45.3887C41.6968 46.1604 40.6474 50.0406 41.5995 50.5697C42.6512 51.1624 43.7572 47.6268 44.1 46.4242C44.3197 45.6549 45.3699 41.7754 44.4179 41.2432Z" fill="#FFD997"/>
<path d="M41.8414 51.0313C40.0815 51.0313 41.0509 47.0482 41.5552 45.2772C42.0241 43.6287 43.1407 40.0852 44.5964 40.8969C45.6458 41.4818 45.1022 44.2881 44.462 46.5379C44.0965 47.8199 43.1241 51.0313 41.8414 51.0313ZM44.1637 41.5697C43.1211 41.5697 40.8561 49.7117 41.7787 50.2267C42.7813 50.7872 45.3347 41.5697 44.1637 41.5697Z" fill="black"/>
<path d="M41.2058 52.5928C40.2115 52.0346 38.9831 53.293 39.1537 54.5247C39.1768 54.8067 39.3003 55.0696 39.5 55.2619C39.6996 55.4543 39.9611 55.5623 40.2333 55.5648C41.6165 55.5648 42.413 53.271 41.2058 52.5928Z" fill="#FFD997"/>
<path d="M40.2334 55.9573C39.8701 55.9552 39.5205 55.8132 39.2521 55.5588C38.9837 55.3043 38.8155 54.9554 38.78 54.5796C38.5686 53.0457 40.0967 51.5236 41.384 52.2466C42.9431 53.1226 41.997 55.9573 40.2334 55.9573ZM40.6909 52.8526C40.333 52.9118 40.0114 53.1135 39.7942 53.4151C39.577 53.7167 39.4813 54.0944 39.5274 54.4681C39.5346 54.5966 39.5732 54.721 39.6396 54.8296C39.706 54.9382 39.7979 55.0274 39.9068 55.0886C40.0156 55.1499 40.1377 55.1812 40.2615 55.1797C40.3852 55.1781 40.5065 55.1436 40.6139 55.0796C41.6316 54.5851 41.7064 52.8526 40.6909 52.8526Z" fill="black"/>
<path d="M44.8116 55.5184C43.9056 56.5436 44.3669 57.8844 45.4382 57.8844C45.8587 57.8547 46.2563 57.6747 46.5638 57.375C46.8712 57.0752 47.0694 56.6742 47.1249 56.2398C47.2563 54.9453 45.8014 54.4021 44.8116 55.5184Z" fill="#FFD997"/>
<path d="M45.4375 58.2777C44.0483 58.2777 43.3929 56.5405 44.5315 55.2523C45.7765 53.8455 47.6655 54.6243 47.4979 56.2814C47.4326 56.8119 47.1908 57.3019 46.8145 57.6665C46.4382 58.0311 45.951 58.2473 45.4375 58.2777ZM45.0879 55.7845C44.419 56.5381 44.6817 57.4927 45.4375 57.4927C45.7647 57.4628 46.0725 57.3186 46.3108 57.0835C46.5491 56.8485 46.7038 56.5364 46.7496 56.1982C46.8448 55.2593 45.8112 54.9705 45.0879 55.7845Z" fill="black"/>
<path d="M52.2264 45.2459C51.3355 44.3981 49.4382 47.5459 48.8221 48.6214C48.4258 49.3145 46.4922 52.807 47.2895 53.5669C48.1743 54.4131 50.0724 51.2715 50.693 50.1914C51.0864 49.4974 53.0229 46.0058 52.2264 45.2459Z" fill="#FFD997"/>
<path d="M47.0335 53.8573C46.1554 53.0213 47.3453 50.441 48.4974 48.4244C49.3385 46.9525 51.26 43.7929 52.4808 44.9562C53.3619 45.793 52.1705 48.3741 51.0176 50.3908C50.1758 51.8595 48.2468 55.0152 47.0335 53.8573ZM51.8542 45.4916C50.7277 45.4916 46.7896 52.5605 47.5439 53.2788C48.394 54.0991 53.2003 45.4916 51.8542 45.4916Z" fill="black"/>
<path d="M51.6251 21.013C51.0853 19.578 49.3155 17.0794 46.4609 17.9067C42.9879 18.9155 43.2982 23.1231 40.3454 24.5007C40.2923 24.5264 40.2458 24.5647 40.2097 24.6126C40.1737 24.6605 40.149 24.7166 40.1378 24.7763C39.9344 24.7286 39.7215 24.7531 39.5331 24.8458C39.3446 24.9386 39.1915 25.0943 39.0981 25.2881C38.7132 25.1083 38.2943 25.0208 37.8725 25.032C37.4507 25.0431 37.0366 25.1526 36.661 25.3525C36.0955 25.5778 34.6512 26.1908 34.7795 26.8047C35.1419 28.589 36.3514 29.7336 38.3718 30.2046C38.4437 30.2213 38.5188 30.2159 38.5878 30.1888C38.6567 30.1617 38.7166 30.1143 38.7599 30.0523C39.3118 29.2586 40.2578 27.4429 40.0804 26.5543C40.2293 26.537 40.3719 26.4825 40.4962 26.3954C40.6204 26.3083 40.7225 26.1913 40.7938 26.0543C40.8507 26.0791 40.9129 26.0874 40.9739 26.0785C41.0349 26.0695 41.0924 26.0435 41.1404 26.0032C41.9864 25.3489 42.7417 24.5765 43.385 23.7079C44.4111 22.2643 44.784 19.7491 46.8671 19.4548C48.9192 19.1745 50.3733 21.4958 50.3876 21.5177C50.4305 21.5872 50.4934 21.6408 50.5672 21.6709C50.6411 21.7011 50.7222 21.7063 50.7991 21.6857C51.3427 21.5382 51.5065 21.5436 51.6085 21.3356C51.6331 21.2861 51.6473 21.2318 51.6502 21.1762C51.653 21.1205 51.6445 21.0649 51.6251 21.013Z" fill="#FFD997"/>
<path fill-rule="evenodd" clip-rule="evenodd" d="M23.8881 57.4188L19.0742 61.7042L27.2924 74.922L34.7601 68.5635L32.5706 65.1048L38.6906 58.8852L30.588 44.413L21.3392 53.132L23.8881 57.4188Z" fill="white"/>
<path d="M39.019 58.6906C32.8635 47.6873 31.364 44.9398 30.9141 44.2561C30.7872 44.0629 30.6604 43.8824 30.3486 44.1344C29.8269 44.5559 28.0541 46.2719 21.0847 52.8479C21.0196 52.9096 20.9773 52.9931 20.9652 53.0839C20.953 53.1746 20.9718 53.2669 21.0183 53.3448L23.3973 57.3483L18.8303 61.4154C18.7603 61.4766 18.7141 61.5621 18.7002 61.6561C18.6863 61.7501 18.7057 61.8462 18.7548 61.9264C24.8944 71.8017 26.4784 74.4079 26.9518 75.0869C27.1904 75.4292 27.3097 75.3884 27.5838 75.1764C28.1183 74.7643 29.7144 73.3709 34.9956 68.8799C35.0676 68.8184 35.1151 68.7313 35.129 68.6355C35.143 68.5397 35.1223 68.442 35.0711 68.361L33.0545 65.1716L38.951 59.1781C39.0142 59.1171 39.0554 59.0355 39.0677 58.9468C39.0801 58.8582 39.0629 58.7677 39.019 58.6906ZM34.2625 68.4874L27.3792 74.3412L19.5717 61.7812L23.8057 58.0132L29.7287 67.8406C29.7627 67.8969 29.81 67.9433 29.866 67.9754C29.922 68.0076 29.9849 68.0244 30.0488 68.0243C30.258 68.0243 30.1334 68.0894 32.5147 65.736L34.2625 68.4874ZM30.1274 67.0116C24.4241 57.5312 26.3599 60.7976 21.8292 53.2035L30.4965 45.0269L38.2187 58.8217C32.2112 64.9118 34.1613 62.9767 30.1236 67.0116H30.1274Z" fill="black"/>
<path d="M24.3771 55.005C24.2991 55.0052 24.223 54.9804 24.1592 54.9338C24.0954 54.8872 24.047 54.8213 24.0207 54.745C23.9944 54.6687 23.9914 54.5858 24.0123 54.5076C24.0331 54.4295 24.0767 54.36 24.137 54.3087L30.4186 48.944C30.4961 48.8779 30.5957 48.8465 30.6954 48.8568C30.7952 48.867 30.8869 48.918 30.9505 48.9986C31.0141 49.0791 31.0443 49.1827 31.0344 49.2864C31.0246 49.3901 30.9755 49.4855 30.898 49.5516C24.057 55.4108 24.5711 55.005 24.3771 55.005Z" fill="black"/>
<path d="M25.9729 57.8193C25.8928 57.8195 25.8147 57.7933 25.7499 57.7444C25.6851 57.6954 25.6369 57.6263 25.6124 57.5471C25.5879 57.4678 25.5882 57.3825 25.6134 57.3034C25.6386 57.2243 25.6873 57.1557 25.7525 57.1073L32.2455 52.2599C32.3268 52.1991 32.428 52.1744 32.5268 52.1912C32.6256 52.208 32.714 52.2649 32.7725 52.3494C32.8309 52.4339 32.8547 52.5391 32.8386 52.6419C32.8224 52.7447 32.7677 52.8365 32.6864 52.8973C25.7683 58.072 26.1534 57.8193 25.9729 57.8193Z" fill="black"/>
<path d="M28.2271 60.2449C28.1479 60.2449 28.0707 60.219 28.0064 60.1708C27.9421 60.1226 27.894 60.0546 27.869 59.9765C27.8439 59.8983 27.8432 59.814 27.8668 59.7353C27.8904 59.6567 27.9372 59.5878 28.0006 59.5384L33.8753 54.9069C33.9149 54.8759 33.9601 54.8534 34.0081 54.8407C34.0561 54.8279 34.1061 54.825 34.1552 54.8323C34.2042 54.8396 34.2514 54.8569 34.2941 54.8831C34.3368 54.9094 34.374 54.9441 34.4038 54.9854C34.4335 55.0266 34.4552 55.0735 34.4675 55.1235C34.4798 55.1734 34.4825 55.2254 34.4755 55.2764C34.4685 55.3274 34.4519 55.3765 34.4266 55.4208C34.4013 55.4652 34.3679 55.5039 34.3283 55.5349C27.8889 60.6052 28.4083 60.2449 28.2271 60.2449Z" fill="black"/>
<path d="M22.4599 64.1219C22.3811 64.1209 22.3045 64.0943 22.241 64.0458C22.1774 63.9973 22.1301 63.9293 22.1056 63.8513C22.0811 63.7734 22.0807 63.6894 22.1044 63.6113C22.1282 63.5331 22.1749 63.4646 22.238 63.4154L25.7562 60.7535C25.8372 60.6923 25.9383 60.667 26.0372 60.6833C26.1361 60.6996 26.2247 60.756 26.2836 60.8402C26.3425 60.9244 26.3668 61.0295 26.3511 61.1324C26.3355 61.2352 26.2812 61.3273 26.2002 61.3885C22.3648 64.2813 22.6336 64.1219 22.4599 64.1219Z" fill="black"/>
<path d="M23.8682 66.5657C23.789 66.5657 23.7118 66.5398 23.6475 66.4917C23.5832 66.4435 23.5351 66.3755 23.5101 66.2974C23.485 66.2192 23.4843 66.1348 23.5079 66.0562C23.5315 65.9776 23.5783 65.9087 23.6417 65.8592L27.1087 63.1055C27.1883 63.0422 27.2888 63.0143 27.3881 63.0281C27.4874 63.0419 27.5774 63.0961 27.6383 63.1789C27.6992 63.2616 27.7259 63.3661 27.7127 63.4694C27.6995 63.5727 27.6473 63.6662 27.5677 63.7295C23.798 66.7243 24.0509 66.5657 23.8682 66.5657Z" fill="black"/>
<path d="M25.3888 69.5032C25.3113 69.5034 25.2357 69.4789 25.1721 69.4329C25.1085 69.3869 25.0601 69.3216 25.0334 69.246C25.0067 69.1704 25.003 69.0881 25.0228 69.0103C25.0426 68.9324 25.085 68.8628 25.1442 68.8108L28.6927 65.6928C28.7692 65.6256 28.8682 65.5927 28.968 65.6013C29.0679 65.61 29.1603 65.6596 29.225 65.7391C29.2896 65.8186 29.3213 65.9216 29.3129 66.0254C29.3046 66.1292 29.2569 66.2253 29.1804 66.2925C25.3314 69.6782 25.5866 69.5032 25.3888 69.5032Z" fill="black"/>
<path fill-rule="evenodd" clip-rule="evenodd" d="M16.8799 80.8943C16.0013 81.2321 15.2031 81.7627 14.5394 82.4501C14.4494 82.2308 14.2914 82.0489 14.0906 81.9336C13.8898 81.8183 13.6577 81.776 13.4311 81.8135C12.6459 81.9705 10.8399 81.3543 11.6116 79.9358C12.3832 78.5173 15.5376 76.7958 16.4436 77.8163C17.3496 78.8368 16.4609 79.7333 16.5191 80.1509C16.571 80.4286 16.6959 80.6859 16.8799 80.8943Z" fill="white"/>
<path d="M26.5431 86.1154C24.9908 81.929 20.7296 79.5128 16.8949 81.0498C13.0278 82.6017 11.4801 87.3965 13.018 91.5405C14.5892 95.774 18.8919 98.1188 22.6661 96.6061C26.3974 95.1091 28.1339 90.4031 26.5431 86.1154Z" fill="#FFD997"/>
<path d="M14.837 90.811C15.1156 91.5619 15.5194 92.2541 16.0252 92.8481C16.5311 93.4422 17.1291 93.9264 17.7852 94.2732C18.4412 94.62 19.1425 94.8225 19.8488 94.8693C20.5552 94.916 21.2529 94.806 21.9021 94.5456C22.5513 94.2852 23.1392 93.8794 23.6324 93.3515C24.1255 92.8236 24.5142 92.1838 24.7762 91.4687C25.0382 90.7536 25.1684 89.9772 25.1594 89.1839C25.1504 88.3905 25.0024 87.5957 24.7238 86.8449C24.1611 85.3284 23.1006 84.083 21.7756 83.3827C20.4506 82.6823 18.9697 82.5843 17.6586 83.1103C16.3476 83.6362 15.3137 84.743 14.7846 86.1872C14.2554 87.6314 14.2743 89.2946 14.837 90.811Z" fill="white"/>
<path d="M20.1721 95.2724C15.9351 95.2724 12.872 90.3057 14.4341 86.0471C16.3163 80.9108 23.054 81.2491 25.0796 86.7033C26.6334 90.8976 24.0996 95.2724 20.1721 95.2724ZM17.7946 83.4762C15.3484 84.459 14.0559 87.6147 15.1906 90.6691C16.2846 93.6192 19.2337 95.1939 21.7674 94.1789C24.3012 93.1639 25.4669 89.9399 24.3722 86.9851C23.2774 84.0304 20.3269 82.4596 17.7946 83.4762Z" fill="black"/>
<path d="M20.6154 88.2945C20.5578 88.2846 20.4994 88.2801 20.441 88.2812L19.1364 85.0415C19.0947 84.9501 19.0208 84.879 18.9301 84.8429C18.8393 84.8068 18.7386 84.8085 18.649 84.8477C18.5594 84.8868 18.4877 84.9604 18.449 85.0531C18.4102 85.1458 18.4074 85.2504 18.441 85.3453L19.7245 88.5371C19.6264 88.639 19.5522 88.7631 19.5078 88.8998L18.1224 88.9327C18.0223 88.9339 17.9267 88.9763 17.8567 89.0507C17.7867 89.1252 17.7479 89.2254 17.749 89.3295C17.7501 89.4336 17.791 89.533 17.8625 89.6058C17.9341 89.6786 18.0306 89.7189 18.1307 89.7177L19.5493 89.684C19.5691 89.7495 19.5944 89.813 19.6248 89.8739C19.7618 90.1131 19.984 90.2864 20.2432 90.356C20.5023 90.4257 20.7775 90.3862 21.0088 90.246C21.1629 90.1164 21.2797 89.945 21.3462 89.7508C21.4127 89.5566 21.4264 89.3471 21.3857 89.1453C21.345 88.9435 21.2516 88.7573 21.1157 88.6072C20.9798 88.4571 20.8067 88.3489 20.6154 88.2945Z" fill="black"/>
<path d="M23.9117 81.8505L25.128 80.3143C25.2058 80.216 25.2595 80.0994 25.2844 79.9748C25.3093 79.8501 25.3046 79.721 25.2708 79.5986C25.237 79.4762 25.175 79.3642 25.0903 79.2723C25.0056 79.1803 24.9006 79.1112 24.7845 79.0708L22.7135 78.351C22.6089 78.3155 22.4981 78.3042 22.3888 78.3179C22.2796 78.3316 22.1745 78.3699 22.081 78.4303C21.9875 78.4906 21.9078 78.5715 21.8475 78.6672C21.7873 78.763 21.7478 78.8712 21.732 78.9845L21.5108 80.5655C20.0794 80.0823 18.5376 80.0823 17.1061 80.5655C17.0026 80.4339 16.9314 80.2782 16.8985 80.1117C16.9106 79.844 17.7502 78.694 16.7264 77.5495C15.5607 76.2417 12.133 78.1893 11.2866 79.7475C11.1297 79.9862 11.0463 80.2687 11.0474 80.5578C11.0485 80.8469 11.134 81.1288 11.2926 81.3662C11.5658 81.6855 11.9111 81.9293 12.2974 82.0755C12.6836 82.2217 13.0988 82.2658 13.5055 82.2038C13.6325 82.1766 13.7645 82.1933 13.8815 82.2515C13.9984 82.3096 14.0939 82.4058 14.1533 82.5256C13.2065 83.5833 12.5541 84.8887 12.2658 86.3022L11.0578 85.6381C10.9465 85.5773 10.8222 85.5463 10.6964 85.5481C10.5706 85.5499 10.4473 85.5843 10.3375 85.6483C10.2278 85.7122 10.1351 85.8037 10.068 85.9143C10.0009 86.025 9.96147 86.1513 9.95327 86.2818L9.80831 88.5528C9.80035 88.6772 9.82099 88.8017 9.86851 88.9162C9.91603 89.0306 9.98908 89.1316 10.0816 89.2108C10.1741 89.2901 10.2835 89.3453 10.4006 89.3719C10.5177 89.3985 10.6392 89.3957 10.7551 89.3637L12.0824 89.0003C12.5354 94.9035 17.9902 98.9038 22.8034 96.9775C28.5557 94.6633 29.1363 85.8972 23.9117 81.8505ZM10.5603 88.6015L10.7052 86.3297L12.1284 87.11C12.0821 87.4686 12.0569 87.8299 12.0529 88.1917L10.5603 88.6015ZM22.4787 79.0983L24.5452 79.8166L23.2843 81.4086C22.9513 81.1877 22.5998 80.9985 22.2341 80.8434L22.4787 79.0983ZM13.3636 81.429C13.0981 81.464 12.8283 81.435 12.5753 81.344C12.3224 81.2531 12.0929 81.1027 11.9049 80.9046C11.1137 79.7585 15.3598 77.1703 16.173 78.0786C16.928 78.9217 16.0627 79.5591 16.148 80.1981C16.1828 80.4322 16.2635 80.6564 16.3851 80.8567C15.776 81.1424 15.2093 81.5172 14.7022 81.9698C14.5525 81.7556 14.3468 81.5906 14.1094 81.4946C13.8721 81.3986 13.6132 81.3755 13.3636 81.4282V81.429ZM22.5316 96.2403C18.9529 97.6745 14.8706 95.4396 13.3712 91.4C11.8921 87.4138 13.3961 82.8749 17.0306 81.4172C20.706 79.9398 24.7399 82.3435 26.1911 86.2567C27.7078 90.3426 26.0657 94.8211 22.5316 96.2396V96.2403Z" fill="black"/>
<path d="M74.3479 50.3578C75.3488 49.9654 76.2342 49.3087 76.9169 48.4524C77.5996 47.5961 78.0561 46.5697 78.2414 45.4743C78.2863 45.1608 78.2235 44.8409 78.064 44.5708C76.9687 45.6602 75.6482 46.4746 74.2037 46.9517C72.8364 47.3442 72.0949 46.1981 73.0953 45.1006C73.9662 44.148 75.1186 43.5256 76.369 43.3328C76.9321 43.2172 77.516 43.2891 78.0376 43.5385C78.7628 42.8864 79.398 42.1333 79.9251 41.3004C80.3244 40.6151 80.5358 39.6519 80.0557 39.166C79.7887 38.9395 79.4564 38.8126 79.1119 38.8057C77.8364 40.4907 76.1957 41.8381 74.3237 42.7378C72.7488 43.3776 69.9039 43.2567 69.3362 42.2982C68.6959 41.2227 70.9262 40.185 72.0542 39.6967C74.1491 38.6485 76.4331 38.0713 78.7571 38.0027C79.5035 37.0929 79.8881 35.9213 79.8322 34.7269C79.8107 34.5122 79.745 34.3048 79.6396 34.1188C79.5342 33.9329 79.3916 33.7727 79.2214 33.6491C78.5933 34.9336 77.5138 35.9174 76.2067 36.3966C74.1229 37.3386 69.6208 38.2319 68.8077 36.8032C68.209 35.7434 69.8941 34.4066 70.4468 33.9685C72.2686 32.5241 76.3894 31.6245 78.7971 32.5406C78.8588 32.2789 78.8955 32.0115 78.9066 31.7423C78.9526 30.6661 78.5962 30.1801 77.497 29.8175C74.2505 28.7467 67.9462 30.0483 65.2282 32.346C64.4347 33.0179 64.9504 33.423 65.953 33.5384C66.0023 33.5441 66.05 33.5598 66.0934 33.5847C66.1368 33.6096 66.1751 33.6432 66.2061 33.6834C66.237 33.7237 66.2601 33.7699 66.2738 33.8195C66.2876 33.869 66.2919 33.9208 66.2864 33.9721C66.2809 34.0233 66.2657 34.0729 66.2418 34.1181C66.2178 34.1632 66.1856 34.203 66.1468 34.2352C66.1081 34.2674 66.0636 34.2913 66.016 34.3056C65.9684 34.32 65.9185 34.3244 65.8692 34.3187C63.8722 34.0879 63.6223 32.6929 64.7518 31.7376C67.6774 29.2625 74.2248 27.9131 77.7257 29.0686C79.1429 29.5349 79.7212 30.3458 79.6616 31.776C79.6453 32.1522 79.5873 32.5252 79.4887 32.8876C81.1942 34.0094 80.7223 36.3534 79.614 38.0898C81.2705 38.4705 81.4388 40.2093 80.5691 41.7008C80.0275 42.569 79.3727 43.355 78.6234 44.0362C78.9313 44.4729 79.0624 45.0176 78.9889 45.5536C78.783 46.7926 78.2706 47.9546 77.5018 48.9252C76.7331 49.8958 75.7346 50.6417 74.6046 51.0894C74.5149 51.1106 74.421 51.0971 74.3402 51.0514C74.2595 51.0057 74.1976 50.931 74.1661 50.8412C74.1346 50.7514 74.1357 50.6528 74.1692 50.5638C74.2026 50.4748 74.2662 50.4015 74.3479 50.3578ZM76.9285 44.0731C74.9353 44.0731 73.229 45.8566 73.3988 46.1604C73.4313 46.2169 73.6253 46.2993 74.0074 46.1941C75.2732 45.7755 76.4337 45.0695 77.4049 44.1272C77.2487 44.0895 77.0888 44.0713 76.9285 44.0731ZM78.1297 38.7963C76.1254 38.9874 74.1681 39.5374 72.3441 40.422C71.5353 40.7232 70.7809 41.1634 70.1123 41.7243C69.9908 41.8374 69.9772 41.8994 69.9772 41.8994C70.1282 42.2534 72.4354 42.6601 74.0489 42.0062C75.6186 41.2595 77.0117 40.1638 78.1297 38.7963ZM70.9088 34.595C69.5619 35.6626 69.3656 36.2372 69.4623 36.4075C69.9779 37.3181 75.8941 36.5575 77.8813 34.3359C78.1576 34.0251 78.3842 33.6702 78.5525 33.2848C76.4286 32.4629 72.5774 33.2715 70.9088 34.595Z" fill="black"/>
<path d="M58.129 17.924L50.9286 19.0913C50.4054 18.3845 49.69 17.8577 48.8751 17.5791C48.0603 17.3005 47.1838 17.2831 46.3593 17.5291C42.7021 18.5896 42.9761 22.8428 40.1902 24.1404C40.0847 24.189 39.9918 24.263 39.9191 24.3563C39.5589 24.3657 39.217 24.5235 38.9686 24.7951C38.1582 24.5512 37.2904 24.6186 36.5239 24.985C35.6859 25.3187 34.2136 25.9679 34.4099 26.8847C34.8078 28.8339 36.1147 30.0805 38.2944 30.5892C38.438 30.6221 38.5877 30.6108 38.7252 30.5566C38.8626 30.5023 38.9819 30.4075 39.0683 30.2838C39.7868 29.2747 40.2666 28.1038 40.4688 26.8659C40.6563 26.784 40.8228 26.6576 40.955 26.497C41.0033 26.4412 41.1475 26.4969 41.3703 26.3188C42.7419 25.341 43.8305 23.9923 44.5186 22.4181C45.1015 21.1864 45.6511 20.0231 46.9187 19.8441C47.4706 19.7782 48.0279 19.9035 48.5042 20.2005L44.6379 24.2102C44.5808 24.2695 44.5436 24.3463 44.5315 24.4292C44.5194 24.5121 44.5333 24.5969 44.5709 24.6711C44.6086 24.7452 44.6681 24.8049 44.7407 24.8414C44.8134 24.8778 44.8954 24.8891 44.9746 24.8736L46.9897 24.4811L48.8772 27.5748C48.9108 27.6296 48.9569 27.6749 49.0115 27.7066C49.066 27.7383 49.1273 27.7554 49.1898 27.7564C49.2523 27.7574 49.314 27.7423 49.3695 27.7124C49.425 27.6824 49.4725 27.6387 49.5076 27.585C50.4055 26.3896 51.5611 25.4304 52.8811 24.7849C54.2011 24.1394 55.6486 23.8256 57.1067 23.8688C57.1729 23.8696 57.238 23.8524 57.2957 23.8187C57.3534 23.7851 57.4017 23.7364 57.4355 23.6773C57.4694 23.6182 57.4877 23.551 57.4887 23.4822C57.4897 23.4134 57.4733 23.3456 57.4412 23.2855L56.0905 20.7594L58.437 18.6093C58.4997 18.5535 58.5431 18.4779 58.5606 18.394C58.578 18.3101 58.5686 18.2226 58.5336 18.1448C58.4987 18.0671 58.4402 18.0034 58.3671 17.9635C58.294 17.9236 58.2104 17.9097 58.129 17.924ZM38.4544 29.823C36.5911 29.3873 35.4775 28.3441 35.146 26.7222C35.2449 26.3627 37.4042 25.1334 38.6439 25.5157C38.6085 25.8494 38.698 26.1844 38.8938 26.4513C39.0897 26.7182 39.3768 26.8965 39.6957 26.9491C39.4861 27.9889 39.0627 28.9693 38.4544 29.823ZM40.4469 25.8917C40.397 25.972 40.3304 26.0396 40.252 26.0895C40.1736 26.1394 40.0854 26.1702 39.9939 26.1798C39.9053 26.1969 39.8139 26.1891 39.7291 26.1574C39.6443 26.1256 39.5692 26.071 39.5114 25.9991C39.4536 25.9272 39.4153 25.8406 39.4003 25.7482C39.3853 25.6558 39.3942 25.5609 39.4261 25.4733L39.4344 25.4615C39.7274 24.8304 40.7776 25.259 40.4469 25.8917ZM46.8168 19.0661C44.5005 19.3927 44.0694 22.0876 43.0811 23.4747C42.5476 24.2021 41.9279 24.8565 41.2366 25.4223C41.1797 25.1329 41.0288 24.8727 40.8093 24.6852C43.6232 23.0814 43.3869 19.2051 46.5624 18.2843C49.143 17.5377 50.7617 19.815 51.266 21.1385L50.7073 21.3073C50.6915 21.2822 49.112 18.7521 46.8168 19.0661Z" fill="black"/>
<path d="M62.3356 72.7044C63.1948 71.0496 65.6954 67.0296 70.365 65.44C70.4602 65.4076 70.5639 65.4159 70.6533 65.463C70.7426 65.5101 70.8103 65.5922 70.8414 65.6912C70.8726 65.7902 70.8646 65.898 70.8193 65.9909C70.774 66.0838 70.6951 66.1541 70.5998 66.1865C66.1891 67.6882 63.8162 71.5049 63.0008 73.0765C62.9773 73.1219 62.9454 73.162 62.907 73.1946C62.8685 73.2272 62.8243 73.2517 62.7768 73.2665C62.7293 73.2813 62.6795 73.2863 62.6301 73.2811C62.5808 73.2759 62.5329 73.2606 62.4893 73.2362C62.4456 73.2118 62.407 73.1786 62.3756 73.1387C62.3442 73.0987 62.3208 73.0528 62.3065 73.0034C62.2922 72.954 62.2875 72.9022 62.2924 72.8509C62.2974 72.7996 62.3121 72.7498 62.3356 72.7044Z" fill="white"/>
<path d="M62.3233 70.4751C62.2662 70.4751 62.2099 70.4618 62.1585 70.4359C62.1071 70.4101 62.0621 70.3725 62.0267 70.326C61.9913 70.2794 61.9665 70.2252 61.9542 70.1672C61.9419 70.1093 61.9424 70.0492 61.9556 69.9915C62.6563 66.9394 64.3006 61.5528 67.4384 59.77C67.482 59.7439 67.5301 59.7272 67.58 59.7207C67.6299 59.7142 67.6805 59.7181 67.7289 59.7323C67.7773 59.7464 67.8225 59.7704 67.8618 59.803C67.9011 59.8355 67.9338 59.8759 67.958 59.9217C67.9821 59.9675 67.9972 60.0179 68.0023 60.0699C68.0075 60.1219 68.0026 60.1744 67.988 60.2244C67.9733 60.2744 67.9492 60.3209 67.9171 60.3611C67.885 60.4013 67.8454 60.4344 67.8008 60.4585C64.8118 62.1572 63.2308 67.8186 62.6902 70.1736C62.6705 70.2594 62.6236 70.3358 62.5571 70.3905C62.4905 70.4452 62.4081 70.475 62.3233 70.4751Z" fill="white"/>
<path fill-rule="evenodd" clip-rule="evenodd" d="M40.4686 132.149L39.0107 129.26L48.8182 111.911C48.8182 111.911 65.6547 108.643 69.974 112.884C69.974 112.884 72.9276 109.373 89.7875 111.471L103.101 130.057L102.855 132.86L70.0125 134.173L40.4686 132.149Z" fill="white"/>
<path fill-rule="evenodd" clip-rule="evenodd" d="M66.2237 128.04L66.8073 123.289H56.7122L55.6484 127.478L66.2237 128.04Z" fill="#FFD997"/>
<path d="M66.2238 128.432C54.9743 128.134 55.5028 127.931 55.3443 127.709C55.1857 127.488 55.2091 127.683 56.3477 123.176C56.3693 123.093 56.417 123.021 56.4832 122.97C56.5494 122.919 56.6302 122.893 56.7124 122.896H66.8082C66.8623 122.899 66.9154 122.913 66.9641 122.938C67.0128 122.962 67.0562 122.997 67.0915 123.04C67.1269 123.083 67.1535 123.132 67.1697 123.186C67.1859 123.24 67.1913 123.297 67.1857 123.353L66.6021 128.089C66.5904 128.185 66.5455 128.272 66.4757 128.336C66.406 128.399 66.3164 128.433 66.2238 128.432ZM56.1318 127.11L65.8932 127.628L66.3786 123.681H57.003L56.1318 127.11Z" fill="black"/>
<path d="M53.9954 126.707H43.1695C43.0694 126.707 42.9734 126.666 42.9026 126.592C42.8318 126.518 42.792 126.418 42.792 126.314C42.792 126.21 42.8318 126.11 42.9026 126.037C42.9734 125.963 43.0694 125.922 43.1695 125.922H53.9954C54.0956 125.922 54.1916 125.963 54.2624 126.037C54.3332 126.11 54.3729 126.21 54.3729 126.314C54.3729 126.418 54.3332 126.518 54.2624 126.592C54.1916 126.666 54.0956 126.707 53.9954 126.707Z" fill="black"/>
<path d="M54.907 124.285H44.3121C44.2112 124.283 44.1151 124.24 44.0445 124.166C43.9738 124.091 43.9344 123.99 43.9346 123.885C43.9348 123.834 43.9447 123.783 43.9639 123.736C43.983 123.689 44.0109 123.646 44.046 123.611C44.0811 123.575 44.1227 123.547 44.1684 123.528C44.2141 123.509 44.2629 123.499 44.3121 123.5H54.9077C55.0086 123.502 55.1048 123.545 55.1755 123.619C55.2462 123.694 55.2856 123.795 55.2852 123.9C55.285 123.951 55.2751 124.002 55.2559 124.049C55.2367 124.096 55.2087 124.139 55.1736 124.175C55.1384 124.211 55.0967 124.239 55.0509 124.258C55.0052 124.277 54.9562 124.286 54.907 124.285Z" fill="black"/>
<path d="M45.4241 122.152C45.324 122.154 45.2273 122.114 45.1554 122.042C45.0835 121.969 45.0422 121.87 45.0406 121.766C45.039 121.662 45.0772 121.562 45.1469 121.487C45.2165 121.412 45.3119 121.369 45.412 121.367L67.3954 120.661C67.4955 120.659 67.5921 120.699 67.6641 120.771C67.736 120.844 67.7773 120.943 67.7789 121.047C67.7805 121.151 67.7423 121.252 67.6726 121.327C67.603 121.401 67.5076 121.444 67.4075 121.446L45.4241 122.152Z" fill="black"/>
<path d="M46.8401 119.785C46.74 119.786 46.6434 119.747 46.5714 119.674C46.4995 119.602 46.4582 119.503 46.4566 119.399C46.455 119.294 46.4932 119.194 46.5629 119.119C46.6325 119.044 46.7279 119.001 46.8281 119L67.3799 118.317C67.48 118.314 67.5773 118.352 67.6503 118.423C67.7233 118.495 67.766 118.593 67.7691 118.697C67.7722 118.801 67.7354 118.902 67.6668 118.978C67.5982 119.054 67.5034 119.099 67.4033 119.102L46.8401 119.785Z" fill="black"/>
<path d="M55.9023 112.771C55.7294 112.57 56.076 112.607 50.199 112.99C50.1247 112.995 50.0534 113.022 49.9942 113.069C49.9349 113.116 49.8904 113.18 49.8661 113.254L48.7555 116.599C48.7359 116.658 48.7301 116.722 48.7388 116.783C48.7474 116.845 48.7701 116.904 48.8051 116.955C48.84 117.006 48.8861 117.048 48.9396 117.076C48.9931 117.105 49.0524 117.12 49.1126 117.12L55.0235 116.976C55.1106 116.974 55.1943 116.94 55.2603 116.881C55.3264 116.822 55.3708 116.741 55.3859 116.652C56.0322 112.84 56.0692 112.967 55.9023 112.771Z" fill="black"/>
<path d="M57.357 116.947C57.2569 116.948 57.1605 116.907 57.0891 116.835C57.0176 116.762 56.977 116.662 56.9761 116.558C56.9752 116.454 57.0141 116.354 57.0843 116.279C57.1544 116.205 57.2501 116.163 57.3502 116.162L66.6608 115.97C66.7603 115.971 66.8558 116.011 66.9274 116.082C66.9991 116.154 67.0412 116.252 67.0451 116.355C67.0461 116.407 67.0374 116.458 67.0193 116.506C67.0013 116.554 66.9743 116.598 66.9399 116.635C66.9056 116.672 66.8645 116.702 66.8191 116.723C66.7737 116.743 66.7248 116.754 66.6752 116.755L57.357 116.947Z" fill="black"/>
<path d="M57.6324 114.845C57.5828 114.846 57.5336 114.837 57.4874 114.818C57.4413 114.799 57.3992 114.771 57.3635 114.736C57.3278 114.7 57.2992 114.657 57.2794 114.61C57.2596 114.562 57.249 114.512 57.2481 114.46C57.2472 114.409 57.2561 114.357 57.2742 114.309C57.2924 114.261 57.3194 114.218 57.3539 114.18C57.3883 114.143 57.4294 114.114 57.4749 114.093C57.5203 114.072 57.5692 114.061 57.6188 114.06L66.8208 113.715C66.8703 113.713 66.9198 113.722 66.9662 113.74C67.0127 113.758 67.0553 113.785 67.0916 113.82C67.1278 113.856 67.1571 113.898 67.1777 113.945C67.1982 113.992 67.2097 114.042 67.2115 114.094C67.2132 114.145 67.2052 114.197 67.1878 114.245C67.1704 114.293 67.1441 114.338 67.1102 114.375C67.0764 114.413 67.0358 114.444 66.9906 114.465C66.9455 114.486 66.8968 114.498 66.8472 114.5L57.6324 114.845Z" fill="black"/>
<path d="M73.2077 114.633C73.1076 114.634 73.0111 114.594 72.9395 114.521C72.8678 114.448 72.8269 114.349 72.8257 114.245C72.8245 114.141 72.8631 114.041 72.9331 113.966C73.003 113.892 73.0986 113.849 73.1987 113.848L85.6667 113.54C85.7669 113.539 85.8633 113.579 85.9349 113.652C86.0065 113.725 86.0473 113.824 86.0484 113.928C86.0495 114.032 86.0108 114.133 85.9408 114.207C85.8708 114.281 85.7752 114.324 85.6751 114.325L73.2077 114.633Z" fill="black"/>
<path d="M72.9483 116.842C72.8482 116.842 72.7522 116.8 72.6814 116.727C72.6106 116.653 72.5708 116.553 72.5708 116.449C72.5708 116.345 72.6106 116.245 72.6814 116.172C72.7522 116.098 72.8482 116.057 72.9483 116.057L88.8033 115.894C88.9034 115.894 88.9994 115.936 89.0702 116.009C89.141 116.083 89.1808 116.183 89.1808 116.287C89.1808 116.391 89.141 116.491 89.0702 116.564C88.9994 116.638 88.9034 116.679 88.8033 116.679L72.9483 116.842Z" fill="black"/>
<path d="M73.3243 118.801C73.2242 118.803 73.1277 118.762 73.056 118.69C72.9843 118.617 72.9432 118.518 72.9419 118.414C72.9406 118.31 72.9792 118.209 73.049 118.135C73.1189 118.06 73.2144 118.018 73.3145 118.016L90.0582 117.582C90.1583 117.581 90.2548 117.621 90.3265 117.693C90.3982 117.766 90.4393 117.865 90.4406 117.969C90.4419 118.074 90.4033 118.174 90.3335 118.248C90.2636 118.323 90.1681 118.366 90.068 118.367L73.3243 118.801Z" fill="black"/>
<path d="M73.3541 122.102C73.3065 122.106 73.2586 122.099 73.2135 122.083C73.1683 122.067 73.1268 122.041 73.0915 122.007C73.0562 121.974 73.0278 121.933 73.0081 121.888C72.9883 121.843 72.9776 121.794 72.9766 121.744C72.9748 121.636 73.013 121.532 73.0833 121.452C73.1536 121.373 73.2505 121.324 73.3541 121.317H80.9577C81.0053 121.314 81.0531 121.32 81.0982 121.337C81.1433 121.353 81.1847 121.378 81.22 121.412C81.2553 121.445 81.2837 121.486 81.3035 121.531C81.3233 121.576 81.3341 121.625 81.3352 121.674C81.3372 121.782 81.2991 121.887 81.2288 121.967C81.1585 122.046 81.0615 122.095 80.9577 122.102H73.3541Z" fill="black"/>
<path d="M73.3736 125.174C73.2744 125.174 73.1792 125.133 73.1085 125.061C73.0379 124.988 72.9975 124.89 72.9961 124.787C72.9959 124.682 73.0354 124.582 73.1061 124.507C73.1768 124.433 73.2729 124.39 73.3736 124.389H80.7907C80.8899 124.389 80.9852 124.429 81.0558 124.502C81.1264 124.574 81.1668 124.673 81.1682 124.776C81.1684 124.88 81.1289 124.981 81.0582 125.056C80.9875 125.13 80.8914 125.173 80.7907 125.174H73.3736Z" fill="black"/>
<path d="M98.7808 127.008C93.0376 120.462 93.4702 120.896 93.2361 120.893C82.1708 120.794 82.8307 120.709 82.6608 120.938C82.491 121.167 82.4766 120.86 83.9904 126.54C84.0114 126.619 84.0558 126.689 84.1173 126.741C84.1788 126.792 84.2543 126.822 84.3332 126.827L98.5022 127.666C98.5756 127.666 98.6473 127.644 98.7087 127.603C98.7702 127.561 98.8186 127.502 98.8482 127.432C98.8777 127.362 98.8871 127.285 98.8751 127.21C98.8632 127.135 98.8304 127.065 98.7808 127.008Z" fill="black"/>
<path d="M67.0083 132.735C63.0687 131.58 50.7894 131.923 50.6656 131.927C50.5669 131.925 50.4725 131.885 50.4008 131.814C50.3291 131.744 50.2852 131.648 50.2775 131.546C50.2761 131.494 50.2845 131.443 50.3022 131.394C50.32 131.346 50.3467 131.302 50.3808 131.265C50.415 131.227 50.4559 131.197 50.5013 131.176C50.5466 131.155 50.5955 131.144 50.6452 131.142C51.1541 131.127 63.1623 130.793 67.2129 131.979C67.3093 132.007 67.391 132.074 67.44 132.165C67.489 132.256 67.5013 132.363 67.4741 132.463C67.447 132.564 67.3827 132.649 67.2953 132.699C67.208 132.75 67.1047 132.763 67.0083 132.735Z" fill="black"/>
<path fill-rule="evenodd" clip-rule="evenodd" d="M103.408 129.821C92.8524 115.09 90.6734 111.985 90.1283 111.32C89.9366 111.085 89.9018 111.094 89.8361 111.085C75.4662 109.294 71.0517 111.566 69.9796 112.371C65.2284 108.386 49.4308 111.395 48.749 111.528C48.6592 111.545 48.6902 111.425 48.2787 112.123C47.5456 113.367 45.4097 117.211 38.6864 129.063C38.6162 129.187 38.6034 129.263 38.7619 129.612C38.9416 130.005 39.344 130.757 40.1368 132.338C40.2878 132.64 38.4003 132.407 70.0348 134.567L102.877 133.254C102.969 133.25 103.056 133.212 103.122 133.146C103.189 133.081 103.23 132.992 103.238 132.897C103.408 130.988 103.474 130.345 103.479 130.091C103.488 129.995 103.463 129.899 103.408 129.821ZM89.5825 111.845L102.493 129.861C96.8199 131.724 77.8249 127.977 74.222 128.755C72.7411 129.013 71.3318 129.602 70.0914 130.482L70.3511 113.068C70.9695 112.562 74.9075 110.039 89.5825 111.845ZM49.0556 112.268C50.8019 111.949 65.5146 109.391 69.5916 113.068L69.3273 130.782C65.8053 129.322 51.6905 129.212 48.2387 129.626C45.3445 129.84 42.4357 129.626 39.5992 128.991L49.0556 112.268ZM39.7185 129.816C42.5464 130.433 45.4441 130.631 48.3255 130.404C52.4025 129.909 65.8868 130.27 68.9461 131.454C68.6782 131.743 68.4738 132.09 68.347 132.469C68.2202 132.849 68.174 133.252 68.2114 133.652L40.7023 131.768L39.7185 129.816ZM71.1182 133.734C71.1225 133.382 71.0749 133.031 70.977 132.693C71.7146 132.451 75.2435 131.359 77.9902 131.76C81.1612 132.224 90.2839 132.342 90.6742 132.344C90.7743 132.345 90.8708 132.305 90.9425 132.232C91.0141 132.16 91.055 132.06 91.0562 131.956C91.0574 131.852 91.0188 131.752 90.9489 131.677C90.8789 131.603 90.7834 131.56 90.6833 131.559C90.5889 131.559 81.2239 131.439 78.0982 130.983C75.0616 130.535 71.2752 131.768 70.669 131.972C70.5415 131.758 70.3894 131.56 70.216 131.384C71.4204 130.393 72.8556 129.75 74.376 129.521C77.8264 128.779 96.6855 132.525 102.673 130.626L102.511 132.477L71.1182 133.734Z" fill="black"/>
</svg>
