<svg width="152" height="158" viewBox="0 0 152 158" fill="none" xmlns="http://www.w3.org/2000/svg">
<path d="M138.881 107.553L147.102 120.925L133.747 113.022C129.426 116.68 124.266 119.109 118.772 120.072C113.277 121.034 107.636 120.497 102.401 118.514C97.1661 116.53 92.5158 113.168 88.9052 108.755C85.2947 104.343 82.8475 99.0312 81.8032 93.3405C83.7904 89.6296 84.9681 85.5097 85.2528 81.2727L85.323 81.279C89.5514 78.4699 93.1682 74.7728 95.9417 70.425C98.7151 66.0772 100.584 61.1746 101.428 56.0318C107.985 53.2979 115.224 52.8824 122.03 54.8494C128.837 56.8164 134.832 61.0567 139.091 66.9165C143.35 72.7763 145.637 79.9301 145.599 87.275C145.562 94.6199 143.201 101.748 138.882 107.56L138.881 107.553ZM121.981 68.8414C122.129 68.1818 122.147 67.4979 122.035 66.8308C121.922 66.1636 121.681 65.527 121.326 64.9592C120.97 64.3914 120.508 63.9042 119.967 63.5268C119.426 63.1494 118.818 62.8897 118.178 62.7632L116.461 62.4256C115.821 62.2985 115.163 62.3074 114.527 62.4516C113.89 62.5959 113.288 62.8726 112.757 63.265C112.227 63.6575 111.778 64.1576 111.438 64.7352C111.097 65.3129 110.873 65.9561 110.779 66.6262L107.347 90.2547C107.312 90.4983 107.294 90.7445 107.295 90.991C107.296 92.223 107.733 93.4116 108.522 94.3307C109.311 95.2499 110.397 95.8356 111.574 95.9765C112.752 96.1174 113.938 95.8037 114.907 95.0949C115.876 94.3862 116.561 93.3319 116.831 92.1324L121.981 68.8414ZM116.141 105.849C116.773 102.388 114.691 99.206 110.922 98.4595C107.094 97.7043 104.03 99.8725 103.398 103.326C102.79 106.655 104.875 109.842 108.702 110.596C112.468 111.346 115.535 109.176 116.144 105.849H116.141Z" fill="#FFD997"/>
<path d="M72.5093 59.5635C76.3891 62.8108 79.2131 67.2216 80.5973 72.1962C81.9814 77.1708 81.8587 82.4679 80.2458 87.3674L80.0268 87.2889C75.0035 89.8932 69.4823 91.2929 63.8698 91.3851C51.0605 91.3851 39.2568 84.8264 33.6698 74.9589L33.4116 74.9118C34.2037 70.1343 36.3044 65.6958 39.4619 62.1285C42.6193 58.5612 46.6995 56.0167 51.213 54.8001L51.6419 56.0993C51.9333 56.9903 54.3108 64.1715 54.8763 64.8356C55.7563 65.8714 56.9136 66.6106 58.2 66.9588C59.4864 67.3069 60.8434 67.2481 62.0975 66.7899C63.3516 66.3317 64.4456 65.4949 65.2398 64.3866C66.0339 63.2783 66.492 61.9488 66.5554 60.5683C66.2409 58.8174 65.8226 57.0884 65.3028 55.3912C67.9167 56.3435 70.3542 57.7547 72.5093 59.5635ZM67.4085 85.0509C72.2722 83.4675 74.5584 78.9279 73.2605 74.6237C71.9136 70.1547 67.5452 67.7809 62.6815 69.3642C57.7324 70.9766 55.4501 75.5155 56.7925 79.9845C58.0911 84.291 62.4595 86.6609 67.4085 85.0493V85.0509Z" fill="#FFD997"/>
<path d="M101.427 56.0247C100.583 61.1676 98.7144 66.0701 95.941 70.4179C93.1676 74.7657 89.5507 78.4628 85.3224 81.2719L85.2522 81.2656C85.6664 75.1874 84.2382 69.1271 81.1684 63.9365C78.0986 58.7458 73.5416 54.6859 68.1378 52.3274C74.6588 48.9645 77.9143 42.8705 75.7105 35.2372C74.5747 31.4747 72.1158 28.2962 68.8247 26.3364C65.5336 24.3765 61.6525 23.7796 57.9566 24.6648C50.0171 26.4891 45.3844 30.8851 43.8457 36.1321C43.6011 36.9899 43.5524 37.8953 43.7033 38.7762C43.8542 39.657 44.2006 40.4892 44.7149 41.2065C45.2293 41.9239 45.8975 42.5066 46.6664 42.9084C47.4353 43.3102 48.2837 43.5201 49.1443 43.5213C49.7137 43.5193 50.2796 43.4277 50.8227 43.2497C51.7668 42.9552 52.616 42.3989 53.279 41.6404C53.942 40.8819 54.3937 39.95 54.5856 38.9447C54.8989 37.1557 56.1424 35.7529 58.2972 35.0511C61.219 34.0997 63.6629 35.4271 64.5991 38.5342C64.8218 39.2088 64.9398 39.9161 64.9487 40.6293C64.9487 44.3188 61.2885 46.4383 55.9748 48.1708C55.4506 48.3412 54.965 48.6203 54.5476 48.9914C54.1301 49.3624 53.7894 49.8177 53.5459 50.3296C48.9664 50.9763 44.6116 52.7901 40.8691 55.6095C37.1266 58.4289 34.1125 62.1664 32.0949 66.4896L31.9182 66.4017C28.9225 61.1899 27.4108 55.2013 27.5588 49.1317C27.5554 44.3582 28.4906 39.6344 30.307 35.2505L17.6396 21.9911L34.8763 27.2568C38.4495 22.5822 42.9992 18.8144 48.1805 16.239C53.3619 13.6636 59.039 12.3481 64.7818 12.3921C85.3375 12.3921 102.003 28.8433 102.003 49.1348C102.006 51.4446 101.813 53.7501 101.427 56.0247Z" fill="#FFD997"/>
<path d="M26.2524 112.612L27.7061 110.737L33.9945 116.007L32.5409 117.883L26.2524 112.612Z" fill="#81F8F8"/>
<path d="M118.179 62.7632C118.819 62.8897 119.428 63.1494 119.969 63.5268C120.51 63.9042 120.972 64.3914 121.327 64.9592C121.683 65.527 121.924 66.1636 122.036 66.8308C122.149 67.4979 122.131 68.1818 121.982 68.8414L116.833 92.1324C116.563 93.3319 115.878 94.3862 114.909 95.0949C113.939 95.8037 112.753 96.1174 111.576 95.9765C110.399 95.8356 109.313 95.2499 108.524 94.3308C107.735 93.4116 107.298 92.223 107.297 90.991C107.296 90.7445 107.313 90.4983 107.349 90.2547L110.78 66.6262C110.875 65.9561 111.099 65.3129 111.439 64.7352C111.779 64.1576 112.228 63.6575 112.759 63.265C113.29 62.8726 113.892 62.5959 114.528 62.4516C115.165 62.3074 115.823 62.2985 116.463 62.4256L118.179 62.7632Z" fill="white"/>
<path d="M110.924 98.4595C114.693 99.206 116.775 102.388 116.143 105.849C115.535 109.178 112.471 111.344 108.704 110.6C104.877 109.844 102.792 106.659 103.4 103.33C104.032 99.8693 107.096 97.7043 110.924 98.4595Z" fill="white"/>
<path d="M51.2154 54.8017C45.6138 56.325 40.7246 59.8892 37.438 64.8455C34.1515 69.8017 32.6861 75.8203 33.3087 81.8055C33.9314 87.7907 36.6006 93.3443 40.8304 97.4553C45.0602 101.566 50.5693 103.961 56.3546 104.204C62.1399 104.447 67.8166 102.521 72.3513 98.7777C76.8859 95.0344 79.9768 89.7224 81.0611 83.8089C82.1455 77.8953 81.1513 71.7735 78.2595 66.558C75.3676 61.3426 70.7705 57.3804 65.3052 55.3928C60.7705 53.7386 55.8635 53.5328 51.2154 54.8017ZM74.8748 56.502C80.0186 60.8075 83.5345 66.8636 84.802 73.6018C86.0696 80.34 85.0073 87.3271 81.8027 93.3303C79.9013 96.8813 77.3068 99.9797 74.1859 102.427C71.0649 104.874 67.4864 106.615 63.68 107.54C59.8736 108.464 55.9233 108.551 52.0827 107.795C48.2421 107.038 44.5961 105.455 41.3785 103.148C40.8223 102.749 40.2762 102.325 39.7401 101.877C39.2041 101.428 38.6882 100.962 38.1924 100.479C32.8745 95.3386 29.6844 88.2516 29.2948 80.7128C28.9052 73.1739 31.3465 65.7723 36.104 60.0687C40.8615 54.3651 47.5633 50.8053 54.7962 50.1399C62.0292 49.4746 69.2281 51.7556 74.8748 56.502Z" fill="#81F8F8"/>
<path d="M75.7099 35.2372C77.9138 42.8705 74.6582 48.9644 68.1373 52.3274C63.5313 50.3191 58.4919 49.6303 53.5431 50.3327C53.7866 49.8208 54.1273 49.3656 54.5448 48.9945C54.9623 48.6235 55.4478 48.3443 55.972 48.174C61.2857 46.4422 64.9459 44.318 64.9459 40.6325C64.937 39.9192 64.819 39.212 64.5963 38.5373C63.6601 35.4303 61.2162 34.1028 58.2944 35.0542C56.1396 35.756 54.8969 37.1588 54.5828 38.9478C54.3909 39.9531 53.9392 40.8851 53.2762 41.6435C52.6132 42.402 51.764 42.9583 50.8199 43.2528C50.2768 43.4308 49.7109 43.5224 49.1415 43.5244C48.2809 43.5232 47.4325 43.3134 46.6636 42.9115C45.8947 42.5097 45.2265 41.927 44.7121 41.2097C44.1978 40.4923 43.8514 39.6602 43.7005 38.7793C43.5496 37.8984 43.5984 36.9931 43.8429 36.1352C45.3816 30.8883 50.0143 26.4923 57.9539 24.6679C61.6497 23.7819 65.5309 24.3781 68.8225 26.3374C72.114 28.2967 74.5736 31.4748 75.7099 35.2372Z" fill="white"/>
<path d="M73.2602 74.6222C74.5581 78.924 72.2719 83.466 67.4082 85.0493C62.4592 86.6609 58.0908 84.2879 56.796 79.9861C55.4498 75.5171 57.7322 70.9782 62.685 69.3658C67.5449 67.7793 71.9133 70.1532 73.2602 74.6222Z" fill="white"/>
<path d="M65.3049 55.3928C65.8247 57.09 66.243 58.819 66.5574 60.5699C66.492 61.9906 66.0086 63.3561 65.1724 64.4818C64.3363 65.6075 63.1879 66.439 61.8825 66.864C60.6514 67.266 59.3346 67.2882 58.0917 66.928C56.8487 66.5679 55.7328 65.8408 54.8791 64.8348C54.3136 64.1707 51.9346 56.9895 51.6447 56.0985L51.2158 54.7994C55.8651 53.5424 60.7686 53.749 65.3049 55.3928Z" fill="white"/>
<path d="M41.3784 103.154L41.3361 103.22L32.4505 114.696L29.2554 112.019L38.141 100.541L38.1923 100.483C38.6881 100.967 39.204 101.433 39.7401 101.881C40.2761 102.328 40.8222 102.753 41.3784 103.154Z" fill="#81F8F8"/>
<path d="M4.53857 140.635L26.238 112.612L32.5293 117.878L10.8299 145.901L4.53857 140.635Z" fill="black"/>
<path d="M4.544 140.638L10.8339 145.904C10.1608 146.767 9.18646 147.317 8.12415 147.434C7.06184 147.551 5.99818 147.226 5.16611 146.529C4.33404 145.832 3.80138 144.821 3.68478 143.717C3.56818 142.613 3.87714 141.506 4.544 140.638Z" fill="#81F8F8"/>
<path d="M81.8024 93.3366C79.901 96.8875 77.3066 99.9859 74.1856 102.433C71.0647 104.88 67.4862 106.622 63.6797 107.546C59.8733 108.47 55.923 108.557 52.0824 107.801C48.2418 107.044 44.5958 105.462 41.3782 103.154C40.822 102.755 40.2759 102.331 39.7398 101.883C39.2038 101.434 38.6879 100.969 38.1921 100.486C34.3563 96.7608 31.6042 91.9905 30.2494 86.7183C28.8947 81.4461 28.9919 75.8843 30.5299 70.6668C32.068 65.4493 34.9849 60.786 38.9483 57.2086C42.9118 53.6312 47.7621 51.2835 52.9466 50.4333C58.131 49.583 63.4409 50.2644 68.2709 52.3997C73.101 54.5349 77.2569 58.0382 80.2648 62.5102C83.2728 66.9822 85.0118 72.2429 85.2837 77.6926C85.5555 83.1424 84.3493 88.5619 81.8024 93.3334" stroke="black" stroke-width="0.980065" stroke-linecap="round" stroke-linejoin="round"/>
<path d="M80.2454 87.3659C78.5773 92.4462 75.3948 96.8413 71.1602 99.9125C66.9256 102.984 61.8594 104.571 56.6978 104.444C51.5362 104.317 46.548 102.482 42.4579 99.206C38.3678 95.9299 35.3889 91.3832 33.9539 86.2265C32.519 81.0697 32.7028 75.5716 34.4785 70.5309C36.2543 65.4902 39.5297 61.1695 43.8286 58.1965C48.1276 55.2235 53.2263 53.7531 58.384 53.999C63.5416 54.2448 68.4895 56.194 72.5089 59.5635C76.3918 62.8079 79.2181 67.2183 80.6026 72.1936C81.987 77.1689 81.8623 82.467 80.2454 87.3659Z" stroke="black" stroke-width="0.980065" stroke-linecap="round" stroke-linejoin="round"/>
<path d="M41.3361 103.22L32.4505 114.696L29.2554 112.019L38.141 100.543" stroke="black" stroke-width="0.980065" stroke-linecap="round" stroke-linejoin="round"/>
<path d="M10.8339 145.904C10.1608 146.767 9.18646 147.317 8.12415 147.434C7.06184 147.551 5.99818 147.226 5.16611 146.529C4.33404 145.832 3.80138 144.821 3.68478 143.717C3.56818 142.613 3.87714 141.506 4.544 140.638L26.2427 112.614L27.6961 110.74L33.9882 116.005L32.5349 117.88L10.8339 145.904Z" stroke="black" stroke-width="0.980065" stroke-linecap="round" stroke-linejoin="round"/>
<path d="M4.54395 140.638L10.8338 145.904" stroke="black" stroke-width="0.980065" stroke-linecap="round" stroke-linejoin="round"/>
<path d="M26.2427 112.613L32.5348 117.879" stroke="black" stroke-width="0.980065" stroke-linecap="round" stroke-linejoin="round"/>
<path d="M34.876 27.2537C38.4495 22.5796 42.9993 18.8125 48.1806 16.2376C53.3619 13.6627 59.0389 12.3477 64.7815 12.3921C85.3372 12.3921 102.003 28.8433 102.003 49.1348C102.005 51.4446 101.812 53.7501 101.425 56.0247C100.581 61.1676 98.7126 66.0701 95.9392 70.4179C93.1658 74.7658 89.5489 78.4628 85.3205 81.2719" stroke="black" stroke-width="0.980065" stroke-linecap="round" stroke-linejoin="round"/>
<path d="M31.9181 66.4016C28.9224 61.1899 27.4107 55.2012 27.5587 49.1316C27.5553 44.3582 28.4905 39.6344 30.3069 35.2505" stroke="black" stroke-width="0.980065" stroke-linecap="round" stroke-linejoin="round"/>
<path d="M80.0269 87.2905C75.0036 89.8948 69.4824 91.2945 63.8699 91.3866C51.0606 91.3866 39.2569 84.828 33.6699 74.9605" stroke="black" stroke-width="0.980065" stroke-linecap="round" stroke-linejoin="round"/>
<path d="M34.8765 27.2568L17.6406 21.9911L30.3103 35.2536" stroke="black" stroke-width="0.980065" stroke-linecap="round" stroke-linejoin="round"/>
<path d="M133.747 113.018L147.102 120.925L138.881 107.553" stroke="black" stroke-width="0.980065" stroke-linecap="round" stroke-linejoin="round"/>
<path d="M133.747 113.022C129.426 116.68 124.266 119.109 118.772 120.072C113.277 121.034 107.636 120.497 102.401 118.514C97.1661 116.53 92.5158 113.168 88.9052 108.755C85.2947 104.343 82.8475 99.0312 81.8032 93.3405" stroke="black" stroke-width="0.980065" stroke-linecap="round" stroke-linejoin="round"/>
<path d="M101.424 56.0247C107.981 53.2903 115.221 52.8743 122.028 54.8411C128.834 56.8078 134.83 61.048 139.089 66.9079C143.349 72.7677 145.636 79.9218 145.599 87.267C145.561 94.6121 143.201 101.74 138.881 107.553" stroke="black" stroke-width="0.980065" stroke-linecap="round" stroke-linejoin="round"/>
<path d="M65.3049 55.3928C65.8247 57.09 66.243 58.819 66.5574 60.5699C66.492 61.9906 66.0086 63.3561 65.1724 64.4818C64.3363 65.6075 63.1879 66.439 61.8825 66.864C60.6514 67.266 59.3346 67.2882 58.0917 66.928C56.8487 66.5679 55.7328 65.8408 54.8791 64.8348C54.3136 64.1707 51.9346 56.9895 51.6447 56.0985L51.2158 54.7994V54.7931" stroke="black" stroke-width="0.980065" stroke-linecap="round" stroke-linejoin="round"/>
<path d="M67.4082 85.0493C62.4592 86.6609 58.0908 84.2879 56.796 79.9861C55.4498 75.5171 57.7322 70.9782 62.685 69.3658C67.5487 67.7793 71.9171 70.1508 73.264 74.6253C74.5581 78.924 72.2719 83.466 67.4082 85.0493Z" stroke="black" stroke-width="0.980065" stroke-linecap="round" stroke-linejoin="round"/>
<path d="M53.5431 50.3296C53.7866 49.8177 54.1273 49.3624 54.5448 48.9914C54.9623 48.6203 55.4478 48.3412 55.972 48.1708C61.2857 46.4391 64.9459 44.3149 64.9459 40.6293C64.937 39.9161 64.819 39.2088 64.5963 38.5342C63.6601 35.4271 61.2162 34.0997 58.2944 35.0511C56.1396 35.7529 54.8969 37.1557 54.5828 38.9447C54.3909 39.95 53.9392 40.8819 53.2762 41.6404C52.6132 42.3989 51.764 42.9552 50.8199 43.2496C50.2768 43.4277 49.7109 43.5193 49.1415 43.5213C48.2809 43.5201 47.4325 43.3102 46.6636 42.9084C45.8947 42.5066 45.2265 41.9239 44.7121 41.2065C44.1978 40.4892 43.8514 39.657 43.7005 38.7762C43.5496 37.8953 43.5984 36.9899 43.8429 36.1321C45.3816 30.8851 50.0143 26.4891 57.9539 24.6648C61.6501 23.7789 65.5316 24.3756 68.8233 26.3355C72.1149 28.2954 74.5742 31.4742 75.7099 35.2372C77.9138 42.8705 74.6582 48.9644 68.1373 52.3274" stroke="black" stroke-width="0.980065" stroke-linecap="round" stroke-linejoin="round"/>
<path d="M108.704 110.6C104.877 109.844 102.792 106.659 103.4 103.33C104.032 99.8693 107.099 97.7043 110.924 98.4634C114.693 99.2099 116.775 102.392 116.143 105.853C115.535 109.176 112.467 111.346 108.704 110.6Z" stroke="black" stroke-width="0.980065" stroke-linecap="round" stroke-linejoin="round"/>
<path d="M116.463 62.4256L118.179 62.7632C118.819 62.8897 119.428 63.1494 119.969 63.5268C120.51 63.9042 120.972 64.3914 121.327 64.9592C121.683 65.527 121.924 66.1636 122.036 66.8308C122.149 67.4979 122.131 68.1818 121.982 68.8414L116.833 92.1324C116.563 93.3319 115.878 94.3862 114.909 95.0949C113.939 95.8037 112.753 96.1174 111.576 95.9765C110.399 95.8356 109.313 95.2499 108.524 94.3308C107.735 93.4116 107.298 92.223 107.297 90.991C107.296 90.7445 107.313 90.4983 107.349 90.2547L110.78 66.6262C110.875 65.9561 111.099 65.3129 111.439 64.7352C111.779 64.1576 112.228 63.6575 112.759 63.265C113.29 62.8726 113.892 62.5959 114.528 62.4516C115.165 62.3074 115.823 62.2985 116.463 62.4256Z" stroke="black" stroke-width="0.980065" stroke-linecap="round" stroke-linejoin="round"/>
<path d="M84.2305 11.5804C97.1981 11.5821 109.794 16.0854 120.02 24.3761C130.246 32.6668 137.518 44.2702 140.68 57.3459" stroke="black" stroke-width="0.980065" stroke-linecap="round" stroke-linejoin="round"/>
<path d="M107.3 127.645C96.7085 132.39 85.0002 133.759 73.6594 131.578C62.3186 129.397 51.8558 123.765 43.5972 115.394" stroke="black" stroke-width="0.980065" stroke-linecap="round" stroke-linejoin="round"/>
<path d="M135.006 52.482L140.924 58.032L142.588 49.9284" stroke="black" stroke-width="0.980065" stroke-linecap="round" stroke-linejoin="round"/>
<path d="M50.9108 116.548L43.0776 115.018L45.7186 122.835" stroke="black" stroke-width="0.980065" stroke-linecap="round" stroke-linejoin="round"/>
</svg>
