<svg width="153" height="158" viewBox="0 0 153 158" fill="none" xmlns="http://www.w3.org/2000/svg">
<path d="M67.0958 71.147C67.0958 71.147 70.8449 72.2193 71.8017 72.2978C72.6356 72.4071 73.4607 72.5779 74.271 72.8088H74.2482C74.2091 72.8143 74.1704 72.8229 74.1327 72.8347C73.1654 73.0904 72.1741 73.2362 71.1763 73.2696L71.0303 73.2225H71.0053C70.1237 72.885 67.2265 71.2255 67.0928 71.154L67.0958 71.147Z" fill="black"/>
<path d="M138.158 67.6725L135.856 69.916H130.422H127.388H123.285H120.22H111.865H95.5588L93.2583 67.6725H103.123H114.546H125.313H136.404H138.158Z" fill="black"/>
<path d="M134.432 52.285L134.45 52.3062L133.148 53.4876L133.137 53.4727V49.2824V48.2847H134.432V52.285Z" fill="#FFD997"/>
<path d="M133.137 53.4727L133.148 53.4876L132.412 54.1549C132.342 54.2169 132.273 54.2766 132.2 54.3307L132.143 54.1863V49.28H133.137V53.4727Z" fill="#FFD997"/>
<path d="M132.142 54.1863L132.199 54.3307C131.802 54.6304 131.336 54.8196 130.847 54.8802V46.8583H132.139L132.142 54.1863Z" fill="#FFD997"/>
<path d="M130.419 70.2842C131.066 70.2842 131.339 70.7073 131.06 71.0519C129.686 72.258 128.154 73.2575 126.509 74.0208C125.359 74.418 121.815 77.4269 121.815 77.4269C122.48 76.0844 123.31 74.8364 124.284 73.7138C124.284 73.7138 127.317 71.8455 128.946 70.8093C129.382 70.5 129.891 70.3185 130.419 70.2842Z" fill="#FFD997"/>
<path d="M130.847 47.129V54.8801C130.208 54.9633 129.561 54.8253 129.006 54.4876L129.556 54.424V48.0467H129.082V47.129H130.847Z" fill="#FFD997"/>
<path d="M129.567 48.0468V54.4241L129.018 54.4877C128.864 54.3942 128.719 54.2862 128.585 54.165L128.272 53.8864V48.0468H129.567Z" fill="#FFD997"/>
<path d="M128.272 48.2847V53.8864L127.001 52.76L127.082 52.665V48.2847H128.272Z" fill="#FFD997"/>
<path d="M108.631 101.416C108.74 98.9391 107.978 85.0941 107.978 85.0941C107.978 85.0941 107.446 81.9282 107.955 80.1533C108.464 78.3784 109.982 77.2794 110.256 76.2338C110.53 75.1882 110.99 73.7783 110.788 72.8897C110.422 71.2922 111.099 69.9467 111.865 69.9467C112.209 69.9467 112.57 70.2152 112.861 70.8526C114.242 73.8568 112.861 75.7746 112.861 75.7746L112.926 75.9481C113.181 75.846 113.492 75.7125 113.861 75.5281C115.108 74.9118 116.24 74.2391 116.311 74.1991C116.737 73.1079 118.135 70.9923 118.552 69.9491H120.224C120.284 70.3628 118.704 73.177 118.552 73.8568C118.456 74.2964 118.131 75.6819 117.918 76.6043L118.005 76.6255C119.426 75.5248 120.768 74.3207 122.022 73.0224C123.008 71.825 124.192 70.8181 125.518 70.0488C126.14 69.9587 126.767 69.9246 127.394 69.9467H127.893C127.893 69.9467 125.666 72.4501 124.283 73.7147C123.308 74.8371 122.478 76.0852 121.814 77.4278C121.356 78.3402 120.829 79.2143 120.238 80.0418C119.412 80.9218 115.711 83.9668 114.353 85.0737L114.565 85.1004C114.565 85.1004 116.157 94.1012 117.248 99.9549C118.115 104.42 118.115 109.019 117.248 113.484C116.988 114.74 115.939 117.566 114.85 117.566C113.761 117.566 113.979 117.705 109.558 116.599C105.137 115.494 96.0342 107.698 96.0342 107.698L98.1447 104.565C99.2953 102.859 101.185 99.7312 102.668 97.2333L108.631 101.416Z" fill="#FFD997"/>
<path d="M127.388 69.916V69.9443C126.761 69.922 126.134 69.9561 125.512 70.0463C124.184 70.8125 122.999 71.8198 122.016 73.0199C120.765 74.3218 119.422 75.5262 117.999 76.6231L117.912 76.6019C118.125 75.6795 118.45 74.294 118.546 73.8544C118.546 73.8544 121.98 71.0166 123.282 69.9466V69.916H127.388Z" fill="#FFD997"/>
<path d="M126.003 49.152L125.899 51.9592L125.876 52.5699C125.15 52.3413 124.385 52.2766 123.633 52.3803C122.88 52.484 122.158 52.7537 121.516 53.171C120.873 53.5882 120.325 54.1434 119.908 54.7988C119.492 55.4542 119.217 56.1945 119.101 56.9694C118.986 57.7443 119.034 58.5358 119.241 59.2901C119.448 60.0443 119.81 60.7438 120.301 61.341C120.793 61.9382 121.404 62.4191 122.091 62.7512C122.779 63.0833 123.527 63.2587 124.286 63.2656C124.689 63.2656 125.091 63.2177 125.483 63.1227L125.312 67.6678H114.541L113.85 49.1473L126.003 49.152Z" fill="#81F8F8"/>
<path d="M125.876 52.5698L125.483 63.1273C124.76 63.2905 124.011 63.2951 123.286 63.1411C122.562 62.987 121.876 62.6776 121.274 62.2328C120.672 61.788 120.167 61.2177 119.792 60.5588C119.416 59.8999 119.179 59.167 119.095 58.4075C119.011 57.6479 119.082 56.8786 119.303 56.1492C119.525 55.4198 119.893 54.7465 120.382 54.1729C120.871 53.5992 121.471 53.1379 122.144 52.8188C122.816 52.4997 123.546 52.3298 124.286 52.3202C124.826 52.3202 125.362 52.4043 125.876 52.5698Z" fill="#FFD997"/>
<path d="M124.372 42.3831V44.1752H122.393H120.595L120.793 42.3831H122.431H124.372Z" fill="#FFD997"/>
<path d="M120.793 42.3829L120.595 44.1751H118.945L118.833 44.1602L119.035 42.3468L120.793 42.3829Z" fill="#FFD997"/>
<path d="M120.595 44.1751L120.209 47.6738H118.444L118.833 44.1602L118.945 44.1751H120.595Z" fill="#FFD997"/>
<path d="M112.976 61.8014C112.976 61.8014 114.322 61.9937 113.128 62.8541C112.903 63.0336 112.628 63.1322 112.343 63.1351C112.116 63.1015 111.9 63.0109 111.715 62.8712C111.529 62.7314 111.38 62.5469 111.279 62.3336V61.8014H112.976Z" fill="#81F8F8"/>
<path d="M107.718 55.4383C109.184 55.6797 110.518 56.4529 111.482 57.6191C112.446 58.7854 112.976 60.2682 112.976 61.8015H106.421V57.8843L106.45 57.9008C106.611 57.9699 106.82 57.8223 106.911 57.5805C107.001 57.3388 106.952 57.0836 106.791 57.0146C106.72 56.9963 106.646 57.0017 106.579 57.0299C106.511 57.0581 106.454 57.1077 106.416 57.1716V55.3574H106.735C107.064 55.358 107.393 55.385 107.718 55.4383ZM111.027 60.0698C111.179 59.9795 111.197 59.7205 111.069 59.492C110.94 59.2636 110.717 59.1521 110.565 59.2565C110.489 59.3292 110.442 59.4289 110.434 59.5357C110.427 59.6425 110.458 59.7483 110.523 59.8319C110.652 60.0604 110.878 60.1624 111.027 60.0721V60.0698ZM109.186 57.4243C109.345 57.3505 109.386 57.0938 109.283 56.8536C109.179 56.6134 108.963 56.4808 108.804 56.5545C108.645 56.6283 108.602 56.8819 108.707 57.1221C108.813 57.3623 109.039 57.4981 109.198 57.4243H109.186ZM108.94 59.8531C108.94 59.5894 108.799 59.3782 108.625 59.3782C108.45 59.3782 108.309 59.5917 108.309 59.8531C108.309 60.1145 108.452 60.3288 108.625 60.3288C108.797 60.3288 108.951 60.1169 108.951 59.8531H108.94Z" fill="#FFD997"/>
<path d="M112.672 65.5664V66.707C112.672 66.9434 112.581 67.1701 112.42 67.3373C112.258 67.5045 112.038 67.5986 111.81 67.5988H106.42V65.5664H112.672Z" fill="#FFD997"/>
<path d="M112.336 63.2255V65.5663H106.42V64.8724H106.623L112.336 63.2255Z" fill="black"/>
<path d="M111.282 61.8014V62.3336C111.192 62.6567 110.989 62.9334 110.712 63.1093C110.435 63.2852 110.104 63.3477 109.784 63.2843C109.427 63.2843 109.075 63.1984 108.755 63.0334C108.436 62.8684 108.158 62.6288 107.943 62.3336V61.8014H111.282Z" fill="#81F8F8"/>
<path d="M111.069 59.4936C111.197 59.7291 111.179 59.9811 111.027 60.0714C110.875 60.1616 110.647 60.0494 110.523 59.8194C110.399 59.5894 110.415 59.3437 110.565 59.244C110.715 59.1443 110.942 59.2652 111.069 59.4936Z" fill="black"/>
<path d="M109.294 56.8552C109.398 57.0907 109.356 57.3521 109.197 57.4259C109.038 57.4997 108.825 57.3639 108.719 57.1237C108.612 56.8834 108.657 56.6291 108.816 56.5561C108.975 56.4831 109.188 56.615 109.294 56.8552Z" fill="black"/>
<path d="M108.32 59.8547C108.32 59.9814 108.354 60.103 108.413 60.1927C108.472 60.2823 108.552 60.3327 108.636 60.3327C108.719 60.3327 108.8 60.2823 108.859 60.1927C108.918 60.103 108.951 59.9814 108.951 59.8547C108.951 59.7279 108.918 59.6063 108.859 59.5166C108.8 59.427 108.719 59.3766 108.636 59.3766C108.552 59.3766 108.472 59.427 108.413 59.5166C108.354 59.6063 108.32 59.7279 108.32 59.8547Z" fill="black"/>
<path d="M107.939 61.8014V62.3336C107.885 62.7211 107.705 63.0783 107.429 63.3464C107.153 63.6145 106.797 63.7778 106.419 63.8094V61.8014H107.939Z" fill="#81F8F8"/>
<path d="M106.434 49.152C106.676 49.9692 107.766 52.5275 107.726 54.143C107.701 54.5712 107.701 55.0006 107.726 55.4288C107.403 55.3764 107.076 55.3502 106.749 55.3503H106.429C105.367 55.21 104.294 55.179 103.225 55.2577V55.2177C103.225 55.2177 103.697 53.2355 103.854 52.3132C104.01 51.3908 102.363 50.174 102.363 48.7932V39.9628H106.446C106.446 39.9628 105.778 46.932 106.434 49.152Z" fill="black"/>
<path d="M106.795 57.0169C106.956 57.086 107.012 57.338 106.915 57.5829C106.818 57.8278 106.611 57.9754 106.454 57.9032L106.425 57.8867V57.1739C106.463 57.1109 106.519 57.0619 106.585 57.0337C106.652 57.0055 106.725 56.9996 106.795 57.0169Z" fill="black"/>
<path d="M106.421 65.5664V67.5964C104.856 64.107 97.9087 57.3757 97.9087 57.3757C99.2706 55.8975 101.427 55.3959 103.229 55.2624C104.297 55.1837 105.37 55.2148 106.432 55.3551V57.1716C106.395 57.2216 106.365 57.2768 106.342 57.3356C106.294 57.4239 106.276 57.5268 106.293 57.6269C106.309 57.727 106.358 57.8182 106.432 57.8851V65.5648L106.421 65.5664Z" fill="#81F8F8"/>
<path d="M106.421 57.1715V57.8843C106.347 57.8175 106.297 57.7263 106.28 57.6261C106.264 57.5259 106.282 57.423 106.331 57.3348C106.353 57.2763 106.384 57.2214 106.421 57.1715Z" fill="black"/>
<path d="M106.421 67.5964C106.421 67.5964 104.959 67.6458 103.123 67.6458C101.44 67.6458 99.4408 67.6034 97.9657 67.4441C94.8732 67.1089 95.8514 59.6004 97.8973 57.3804C97.8973 57.3804 104.856 64.107 106.421 67.5964Z" fill="#81F8F8"/>
<path d="M96.7185 120.297C98.0105 123.93 106.867 132.348 109.545 145.355C109.545 145.355 93.7158 146.386 86.2131 149.015C78.7103 151.644 74.3624 150.139 74.3624 150.139C74.3624 150.139 74.8229 135.252 73.0947 131.519C71.3665 127.786 71.3687 126.427 71.3687 126.427L68.0179 128.39C67.6092 127.858 67.151 127.368 66.6499 126.928C68.1098 125.657 69.6631 124.505 71.2958 123.482C73.4542 122.056 76.8901 120.867 78.968 120.199C80.032 119.862 80.7395 119.672 80.7395 119.672L80.8915 119.589C81.6303 121.05 82.8128 124.58 83.8624 129.911C85.2061 136.741 86.0481 143.865 86.0481 143.865C86.0481 143.865 95.6903 140.97 97.2042 139.112C98.7181 137.254 100.175 137.897 100.175 137.897C100.175 137.897 95.8559 126.436 94.567 122.148C93.4787 118.537 93.0531 115.62 92.2961 114.691L92.6761 114.663C92.8447 114.495 92.9974 114.311 93.1321 114.113C94.6705 115.941 95.8846 118.034 96.7185 120.297Z" fill="#81F8F8"/>
<path d="M59.2906 90.8629L58.0229 91.1267L59.2678 97.497L60.5355 97.2332L69.7216 95.317L68.4767 88.9452L59.2906 90.8629ZM54.6744 107.934L54.6075 107.883C51.876 111.808 46.5515 119.618 46.5515 119.618C46.2589 119.527 45.9435 119.42 45.6174 119.295C42.053 117.931 36.5301 114.591 33.6672 112.79C32.5166 112.057 31.7778 111.577 31.7778 111.577C33.2925 108.672 42.4878 89.6752 45.4077 87.2166C47.6466 85.3326 54.6379 81.7499 58.2296 79.2591C58.2296 79.2591 65.784 84.5429 70.3334 83.3214C74.8828 82.1 74.2687 78.8885 74.2687 78.8885C76.6596 78.8885 83.6433 78.9239 86.2713 79.3635C88.4921 79.7513 104.874 93.4895 104.874 93.4895C104.874 93.4895 103.914 95.1381 102.67 97.2332C101.186 99.7311 99.297 102.859 98.1464 104.565L96.0343 107.698L92.7602 105.744C92.4904 106.436 92.2997 106.873 92.2997 106.873C92.2997 106.873 94.1959 111.269 93.8782 112.578C93.73 113.136 93.4784 113.66 93.1372 114.12C93.0025 114.318 92.8498 114.502 92.6812 114.67L92.3012 114.698C92.188 114.543 92.0244 114.436 91.8406 114.396C90.7941 114.227 80.5926 118.574 79.9672 118.843L79.9808 118.872C79.5545 119.187 79.1976 119.592 78.9336 120.06L78.9708 120.191C76.2976 120.97 73.7226 122.072 71.2986 123.473C69.6652 124.495 68.1118 125.647 66.6527 126.92C66.4643 126.754 66.2653 126.603 66.0569 126.466L66.0842 126.42C64.4882 125.321 65.1244 121.983 65.1244 121.983C61.8016 121.063 59.5718 112.575 58.2213 111.128C57.1031 109.989 55.9185 108.923 54.6744 107.934Z" fill="black"/>
<path d="M100.182 137.906C100.182 137.906 98.7255 137.27 97.2109 139.122C95.6962 140.973 86.0548 143.875 86.0548 143.875C86.0548 143.875 85.2127 136.745 83.8691 129.921C82.8195 124.592 81.6369 121.06 80.8982 119.598C80.7863 119.318 80.6158 119.068 80.3989 118.864C80.3343 118.828 80.2617 118.811 80.1885 118.814C80.1154 118.817 80.0443 118.84 79.9824 118.88L79.9688 118.851C80.5942 118.583 90.7957 114.236 91.8422 114.404C92.026 114.444 92.1896 114.552 92.3028 114.707C93.0628 115.634 93.4854 118.553 94.5737 122.164C95.8626 126.445 100.182 137.906 100.182 137.906Z" fill="white"/>
<path d="M65.1837 60.832C64.6845 61.0294 64.1381 61.0601 63.6211 60.9199C63.235 62.4954 62.3291 62.267 62.2752 62.2505C62.1282 61.8301 61.8684 61.4615 61.5261 61.188C61.1839 60.9144 60.7734 60.7471 60.3425 60.7056C60.1133 60.6768 59.881 60.7199 59.6758 60.8293C59.4706 60.9386 59.302 61.1091 59.1918 61.3187L59.0398 61.2763C58.6053 59.8156 58.4758 58.2764 58.6598 56.7602C58.9718 54.1107 60.1014 51.6354 61.8815 49.7007C62.0755 49.4824 62.2726 49.2749 62.4728 49.0782C71.443 40.1739 87.454 49.8812 84.5584 59.8853C83.7832 62.5715 82.8742 63.3157 82.1628 63.2772C81.8672 63.2345 81.5921 63.0967 81.3766 62.8834C81.161 62.67 81.016 62.392 80.962 62.0888C80.8564 61.1907 81.0517 57.9863 79.5583 57.7713C79.4469 57.7556 79.3339 57.7556 79.2224 57.7713C78.6904 57.8323 78.1533 57.7204 77.6858 57.451C77.2184 57.1817 76.844 56.7684 76.6148 56.2688C76.6148 56.2688 72.9836 52.449 71.8702 53.4734C70.7568 54.4978 71.8702 56.7374 70.816 59.2329C69.9664 61.2496 66.9651 61.7536 65.1837 60.832Z" fill="#81F8F8"/>
<path d="M78.1303 66.2792L77.7411 66.0751L77.6005 66.0916L76.8345 66.1889H76.7858C76.6011 66.1819 76.4167 66.2084 76.2409 66.2674L75.6998 66.3342C75.6998 66.3342 75.7461 67.7605 76.7858 67.8414C78.7284 67.9858 78.8781 66.6788 78.8781 66.6788L78.1303 66.2792ZM70.9642 64.25L70.9756 64.2021L70.702 64.1283C70.1768 63.8493 69.5915 63.7126 69.0011 63.7311C68.9161 63.7091 68.8288 63.698 68.7412 63.6981C68.5566 63.6956 68.3752 63.7485 68.2191 63.8504H67.3398C67.3398 63.8504 67.7015 65.4071 68.7412 65.4856C70.4717 65.6214 70.8928 64.4965 70.9642 64.25ZM62.2751 62.2506C62.3283 62.2671 63.235 62.4861 63.6211 60.92C64.138 61.0602 64.6845 61.0295 65.1837 60.8321C66.9651 61.7537 69.9656 61.2497 70.8236 59.2181C71.8777 56.7218 70.762 54.483 71.8777 53.4586C72.9934 52.4342 76.6224 56.254 76.6224 56.254C76.8514 56.7538 77.2257 57.1672 77.6932 57.4366C78.1607 57.7059 78.698 57.8178 79.23 57.7565C79.3414 57.7408 79.4544 57.7408 79.5659 57.7565C81.0593 57.97 80.864 61.1743 80.9696 62.074C81.0224 62.3779 81.1672 62.6567 81.3831 62.8702C81.599 63.0838 81.8749 63.2211 82.1712 63.2624V63.2766C81.6506 64.3128 80.2104 66.583 79.8699 68.843C79.5294 71.103 78.1417 73.542 75.5987 75.8028C74.9474 76.3829 74.255 77.1742 73.4608 77.8658V78.8863H74.271C74.271 78.8863 74.8851 82.0922 70.3357 83.3145C65.7863 84.5367 58.2319 79.2521 58.2319 79.2521C59.0474 78.7728 59.7637 78.1327 60.3402 77.3681C61.3365 75.3428 60.9109 68.909 60.9109 68.909L60.9474 68.8564C61.1966 69.0459 61.4982 69.1477 61.8077 69.1468C62.0986 69.1474 62.3832 69.0589 62.6253 68.8925C62.8675 68.7261 63.0565 68.4892 63.1683 68.2118C63.2802 67.9345 63.3099 67.6291 63.2536 67.3343C63.1974 67.0395 63.0578 66.7685 62.8525 66.5557C62.6472 66.3429 62.3854 66.1977 62.1002 66.1386C61.815 66.0794 61.5192 66.109 61.2503 66.2235C60.9813 66.338 60.7513 66.5323 60.5893 66.7819C60.4273 67.0315 60.3406 67.325 60.3402 67.6255C60.0773 67.3797 59.8452 67.101 59.6493 66.7957C58.5245 65.0444 58.4531 62.4869 59.1895 61.3172C59.2996 61.1076 59.4682 60.937 59.6734 60.8277C59.8787 60.7183 60.111 60.6753 60.3402 60.7041C60.771 60.7456 61.1816 60.913 61.5238 61.1865C61.8661 61.4601 62.1259 61.8286 62.2729 62.249L62.2751 62.2506ZM71.9857 74.4534C72.7639 74.2179 74.8258 72.7264 74.271 72.8088C73.4607 72.5779 72.6356 72.4071 71.8017 72.2978C70.8449 72.2193 67.0958 71.147 67.0958 71.147C67.2045 71.2663 68.9373 73.1629 69.6038 73.6975C69.9168 74.0058 70.2949 74.2346 70.7084 74.3658C71.1218 74.497 71.5591 74.527 71.9857 74.4534Z" fill="#FFD997"/>
<path d="M78.1299 66.2791L78.8731 66.6787C78.8731 66.6787 78.7211 67.9857 76.7809 67.8412C75.7412 67.7627 75.6948 66.334 75.6948 66.334L76.2359 66.2673C76.1319 66.2982 76.0418 66.3664 75.982 66.4596C75.9221 66.5528 75.8963 66.6649 75.9091 66.776C75.904 67.0104 75.9876 67.2377 76.1421 67.4095C76.2966 67.5813 76.5098 67.6842 76.7365 67.6962C76.9633 67.7083 77.1856 67.6286 77.3564 67.4741C77.5271 67.3195 77.6328 67.1024 77.6511 66.8686C77.6526 66.8378 77.6526 66.8069 77.6511 66.776C77.6511 66.305 77.2878 66.1982 76.8295 66.1935L77.5956 66.0962C77.7521 66.137 77.9269 66.203 78.1299 66.2791Z" fill="white"/>
<path d="M77.741 66.079L78.1301 66.2831C77.9272 66.2046 77.7501 66.141 77.5981 66.0955L77.741 66.079Z" fill="white"/>
<path d="M77.6558 66.7713C77.6652 66.8915 77.6511 67.0123 77.6145 67.1268C77.5778 67.2412 77.5193 67.3469 77.4424 67.4376C77.3655 67.5282 77.2717 67.6021 77.1667 67.6546C77.0617 67.7072 76.9475 67.7375 76.831 67.7437C76.7144 67.7499 76.5979 67.7319 76.4882 67.6907C76.3785 67.6496 76.2779 67.5861 76.1924 67.504C76.1069 67.422 76.0382 67.3231 75.9903 67.2132C75.9425 67.1032 75.9165 66.9845 75.9139 66.8639C75.9124 66.8331 75.9124 66.8022 75.9139 66.7713C75.901 66.6603 75.9268 66.5481 75.9867 66.4549C76.0466 66.3617 76.1366 66.2935 76.2407 66.2626L76.8342 66.1888C77.2925 66.203 77.6558 66.2909 77.6558 66.7713Z" fill="black"/>
<path d="M76.8343 66.189L76.2407 66.2632C76.4165 66.2039 76.6009 66.1771 76.7856 66.1842L76.8343 66.189Z" fill="black"/>
<path d="M74.2491 72.8135L74.1328 72.8385C74.1708 72.8271 74.2097 72.8188 74.2491 72.8135Z" fill="black"/>
<path d="M42.8076 123.333C49.1794 124.015 64.8985 125.755 65.9822 126.423L66.0582 126.473C66.2666 126.61 66.4657 126.762 66.6541 126.927C67.1552 127.367 67.6134 127.856 68.0221 128.388C68.9144 129.511 69.5856 130.803 69.9981 132.192C70.6889 134.699 72.7896 138.098 73.0958 138.847C73.5974 140.071 71.9703 141.197 70.6061 139.161C69.5884 137.644 69.2046 136.561 68.6362 136.043C68.0677 135.525 66.9474 144.884 66.1418 150.109C64.8574 149.541 64.5838 143.901 64.6325 142.266C64.6811 140.63 64.2912 140.813 63.3709 139.361C62.4505 137.909 61.7749 134.156 61.0035 133.16C60.2321 132.163 42.863 134.286 36.8758 133.523C35.3109 133.324 29.3996 132.774 28.2399 130.804C25.9986 127.001 33.6701 112.768 33.6701 112.768C36.5421 114.574 42.0491 117.915 45.6249 119.279L42.8076 123.333Z" fill="#FFD997"/>
<path d="M71.0303 73.2295L71.1741 73.2739C71.1251 73.2627 71.0771 73.2478 71.0303 73.2295Z" fill="black"/>
<path d="M70.7017 64.1282L70.9753 64.2024L70.9639 64.2506C70.8719 64.2048 70.7868 64.1645 70.7017 64.1282Z" fill="white"/>
<path d="M68.1986 63.8668C68.0957 63.939 68.0119 64.0367 67.9548 64.1509C67.8977 64.2651 67.8692 64.3922 67.8718 64.5207C67.8785 64.7544 67.9731 64.9762 68.1355 65.139C68.2979 65.3019 68.5153 65.393 68.7417 65.393C68.968 65.393 69.1854 65.3019 69.3478 65.139C69.5102 64.9762 69.6048 64.7544 69.6115 64.5207C69.6141 64.3852 69.5823 64.2513 69.5192 64.1325C69.4561 64.0136 69.364 63.9139 69.252 63.8433H69.6548L70.7021 64.1306C70.7872 64.1667 70.8723 64.2091 70.9643 64.2522C70.8928 64.4877 70.4718 65.6236 68.7413 65.4949C67.7016 65.4164 67.3398 63.8597 67.3398 63.8597H68.2184L68.1986 63.8668Z" fill="white"/>
<path d="M68.4766 88.9452L69.7215 95.317L60.5354 97.2332L59.2905 90.8629L68.4766 88.9452Z" fill="#81F8F8"/>
<path d="M69.6114 64.5206C69.6047 64.7543 69.5101 64.9761 69.3477 65.1389C69.1853 65.3018 68.9679 65.3929 68.7416 65.3929C68.5152 65.3929 68.2978 65.3018 68.1354 65.1389C67.973 64.9761 67.8784 64.7543 67.8717 64.5206C67.8691 64.3921 67.8977 64.265 67.9547 64.1508C68.0118 64.0366 68.0956 63.9389 68.1985 63.8667L68.2745 63.8502H69.2519C69.363 63.9202 69.4545 64.0188 69.5175 64.1363C69.5805 64.2538 69.6129 64.3863 69.6114 64.5206Z" fill="black"/>
<path d="M69.2518 63.8441H68.2744C68.5139 63.7883 68.7566 63.7482 69.001 63.724C69.0902 63.7498 69.1749 63.7903 69.2518 63.8441Z" fill="black"/>
<path d="M68.75 63.698C68.8376 63.6979 68.9249 63.709 69.0099 63.7312C68.7655 63.7554 68.5229 63.7955 68.2833 63.8513H68.2256C68.3823 63.7482 68.5646 63.695 68.75 63.698Z" fill="black"/>
<path d="M68.2186 63.8502H68.275L68.1978 63.8664L68.2186 63.8502Z" fill="black"/>
<path d="M59.04 61.2764L59.192 61.3187C58.4555 62.4884 58.527 65.0459 59.6518 66.7973C59.0787 72.4328 53.4388 70.1249 56.1839 72.1353C58.929 74.1456 55.4338 78.6829 55.7013 76.2706C55.9688 73.8583 52.8984 76.3397 50.6017 72.7554C48.305 69.1711 51.7637 68.3437 52.6978 66.112C53.6318 63.8802 51.5981 63.4838 50.7628 58.6254C48.8575 47.5569 57.4706 49.9637 57.8225 50.0689C57.1438 50.0187 56.4279 50.3044 56.212 51.6091C55.9453 53.2011 57.9745 53.9547 57.9745 53.9547C57.9745 53.9547 55.9544 54.9579 56.4651 56.0938C56.545 56.3067 56.6711 56.4978 56.8338 56.6525C56.9965 56.8071 57.1914 56.9211 57.4034 56.9856C57.6155 57.0501 57.8391 57.0635 58.0569 57.0247C58.2748 56.9859 58.4811 56.896 58.66 56.7618C58.4765 58.2775 58.606 59.8161 59.04 61.2764Z" fill="#81F8F8"/>
<path d="M76.6221 56.254C76.6221 56.254 72.9915 52.4342 71.8774 53.4586C70.7632 54.483 71.8774 56.7218 70.8233 59.2181C69.9652 61.2497 66.9647 61.7537 65.1833 60.8321C64.791 60.6392 64.4514 60.3484 64.1953 59.9859" stroke="black" stroke-width="0.980065" stroke-linecap="round" stroke-linejoin="round"/>
<path d="M61.6562 58.0006C61.6562 58.0006 62.0036 60.4255 63.6208 60.92C64.1378 61.0602 64.6843 61.0295 65.1834 60.8321" stroke="black" stroke-width="0.980065" stroke-linecap="round" stroke-linejoin="round"/>
<path d="M62.2727 62.2505C62.1257 61.8301 61.8659 61.4616 61.5237 61.188C61.1815 60.9145 60.7709 60.7471 60.34 60.7056C60.1108 60.6768 59.8785 60.7198 59.6733 60.8292C59.4681 60.9385 59.2995 61.1091 59.1894 61.3187C58.453 62.4884 58.5244 65.0459 59.6492 66.7972C59.8451 67.1025 60.0772 67.3812 60.34 67.627" stroke="black" stroke-width="0.980065" stroke-linecap="round" stroke-linejoin="round"/>
<path d="M62.4634 63.059C62.4397 62.7814 62.3762 62.5089 62.2749 62.2505" stroke="black" stroke-width="0.980065" stroke-linecap="round" stroke-linejoin="round"/>
<path d="M60.3403 67.6293C60.3421 68.029 60.4974 68.4117 60.772 68.6934C61.0466 68.9751 61.4182 69.1327 61.8052 69.1318C62.1922 69.1308 62.5631 68.9714 62.8364 68.6884C63.1098 68.4054 63.2633 68.022 63.2633 67.6222C63.2633 67.2225 63.1098 66.8391 62.8364 66.5561C62.5631 66.2731 62.1922 66.1136 61.8052 66.1127C61.4182 66.1117 61.0466 66.2694 60.772 66.5511C60.4974 66.8327 60.3421 67.2154 60.3403 67.6152V67.6293Z" stroke="black" stroke-width="0.980065" stroke-linecap="round" stroke-linejoin="round"/>
<path d="M61.8079 70.6932C61.7505 71.6906 61.9812 72.6832 62.4706 73.5451C67.9936 81.0183 71.1552 79.8746 73.4564 77.8689C74.2506 77.1773 74.943 76.386 75.5943 75.8059C78.1373 73.5451 79.5197 71.1069 79.8655 68.8461C80.2113 66.5853 81.6508 64.3159 82.166 63.2797" stroke="black" stroke-width="0.980065" stroke-linecap="round" stroke-linejoin="round"/>
<path d="M60.9111 68.905C60.9111 68.905 61.3367 75.342 60.3403 77.3642C59.7685 78.1333 59.0512 78.7743 58.2321 79.2482C54.6403 81.7319 47.6468 85.3209 45.4101 87.2057C42.4902 89.6659 33.295 108.661 31.7803 111.566C31.7803 111.566 32.5099 112.042 33.6696 112.779C36.5417 114.584 42.0486 117.924 45.6244 119.289C45.9535 119.414 46.2666 119.524 46.5585 119.611C46.5585 119.611 51.8785 111.806 54.6145 107.877C55.1024 107.178 55.5052 106.601 55.7841 106.214" stroke="black" stroke-width="0.980065" stroke-linecap="round" stroke-linejoin="round"/>
<path d="M54.6743 107.934C55.9221 108.926 57.1101 109.996 58.2319 111.138C59.5733 112.586 61.8039 121.074 65.1357 121.993C65.1357 121.993 64.5004 125.321 66.0948 126.431C66.2696 126.548 66.4615 126.637 66.6633 126.692" stroke="black" stroke-width="0.980065" stroke-linecap="round" stroke-linejoin="round"/>
<path d="M79.5341 100.996C79.5341 100.996 76.7723 108.276 73.0908 110.503" stroke="#81F8F8" stroke-width="0.980065" stroke-linecap="round" stroke-linejoin="round"/>
<path d="M73.4561 78.891H74.2708C76.6617 78.891 83.6454 78.9263 86.2735 79.3659C88.4942 79.7513 104.876 93.4896 104.876 93.4896C104.876 93.4896 103.916 95.1381 102.672 97.2333C101.188 99.7312 99.2991 102.859 98.1485 104.565L96.0341 107.698L92.7601 105.744" stroke="black" stroke-width="0.980065" stroke-linecap="round" stroke-linejoin="round"/>
<path d="M73.4561 77.8712V78.8909V79.7372" stroke="black" stroke-width="0.980065" stroke-linecap="round" stroke-linejoin="round"/>
<path d="M58.2319 79.2544C58.2319 79.2544 65.7863 84.5382 70.3357 83.3167C74.885 82.0953 74.271 78.8885 74.271 78.8885" stroke="black" stroke-width="0.980065" stroke-linecap="round" stroke-linejoin="round"/>
<path d="M74.2707 51.6193C74.2707 51.6193 76.5469 53.1477 76.6222 54.1792C76.6662 54.87 76.6662 55.5631 76.6222 56.2539C76.6222 56.2539 79.7496 56.7909 79.4896 54.4241C79.2297 52.0573 79.1765 48.8765 76.1114 48.0703C74.0735 47.5916 71.9682 47.4999 69.8984 47.7995" stroke="black" stroke-width="0.980065" stroke-linecap="round" stroke-linejoin="round"/>
<path d="M77.3292 51.9663C77.6908 52.6852 77.881 53.4829 77.884 54.293C77.6401 55.0516 77.2046 55.7291 76.6224 56.2555C76.8513 56.7553 77.2257 57.1688 77.6932 57.4381C78.1607 57.7075 78.6979 57.8193 79.2299 57.758C79.3414 57.7423 79.4544 57.7423 79.5658 57.758C81.0592 57.9715 80.8639 61.1759 80.9696 62.0755C81.0224 62.3794 81.1671 62.6582 81.383 62.8718C81.5989 63.0854 81.8749 63.2227 82.1711 63.264C82.8817 63.3017 83.7816 62.5512 84.5659 59.872C87.4584 49.868 71.4498 40.1591 62.475 49.0649C62.2748 49.2622 62.0777 49.4697 61.8837 49.6874C60.1027 51.6215 58.973 54.0971 58.662 56.7469C58.4784 58.2631 58.6079 59.8023 59.042 61.263" stroke="black" stroke-width="0.980065" stroke-linecap="round" stroke-linejoin="round"/>
<path d="M79.5249 57.7635H79.5659C79.8563 57.7109 81.586 57.4353 82.4121 57.999" stroke="black" stroke-width="0.980065" stroke-linecap="round" stroke-linejoin="round"/>
<path d="M57.8245 50.0649C57.1459 50.0147 56.43 50.3004 56.2141 51.6051C55.9474 53.1971 57.9766 53.9507 57.9766 53.9507C57.9766 53.9507 55.9565 54.9539 56.4672 56.0898C56.5471 56.3027 56.6732 56.4939 56.8359 56.6485C56.9986 56.8031 57.1934 56.9171 57.4055 56.9816C57.6176 57.0462 57.8411 57.0596 58.059 57.0208C58.2769 56.982 58.4832 56.892 58.6621 56.7579L58.6948 56.7367" stroke="black" stroke-width="0.980065" stroke-linecap="round" stroke-linejoin="round"/>
<path d="M62.4729 49.0688C62.4729 49.0688 61.1223 46.454 59.8387 47.6237C59.4726 47.9977 59.2201 48.474 59.1121 48.9941C59.0041 49.5141 59.0453 50.0555 59.2307 50.5517C58.8013 50.2947 58.3248 50.133 57.8315 50.0768" stroke="black" stroke-width="0.980065" stroke-linecap="round" stroke-linejoin="round"/>
<path d="M57.8355 50.0696H57.8241C57.4722 49.9645 48.85 47.5576 50.7644 58.6261C51.6004 63.4845 53.6342 63.8809 52.6994 66.1127C51.7646 68.3444 48.3089 69.1742 50.6033 72.7561C52.8977 76.3381 55.9697 73.8591 55.7029 76.2714C55.4361 78.6837 58.9382 74.1322 56.1855 72.136C53.4328 70.1397 59.0803 72.4351 59.6534 66.798" stroke="black" stroke-width="0.980065" stroke-linecap="round" stroke-linejoin="round"/>
<path d="M59.2906 90.8629L68.4767 88.9452L69.7216 95.317L60.5355 97.2332L59.2678 97.497L58.0229 91.1267L59.2906 90.8629Z" stroke="black" stroke-width="0.980065" stroke-linecap="round" stroke-linejoin="round"/>
<path d="M59.2905 90.8606V90.863L60.5354 97.2332" stroke="black" stroke-width="0.980065" stroke-linecap="round" stroke-linejoin="round"/>
<path d="M67.5562 62.782C67.9913 62.4443 68.4935 62.2103 69.0265 62.0965C69.5596 61.9828 70.1104 61.9922 70.6395 62.1242C71.9649 62.5379 71.7187 63.2718 71.7187 63.2718" stroke="black" stroke-width="0.980065" stroke-linecap="round" stroke-linejoin="round"/>
<path d="M75.5088 65.2523C76.0075 64.6697 76.6232 64.2065 77.313 63.895C77.7191 63.7572 78.1582 63.7649 78.5595 63.9167C78.9608 64.0686 79.3008 64.3557 79.5246 64.7318" stroke="black" stroke-width="0.980065" stroke-linecap="round" stroke-linejoin="round"/>
<path d="M73.8101 67.1544C73.8101 67.1544 74.0199 68.6703 74.2707 69.8046C74.5215 70.9389 73.9393 71.9767 71.9854 71.3275" stroke="black" stroke-width="0.980065" stroke-linecap="round" stroke-linejoin="round"/>
<path d="M71.5094 70.5817C71.3191 70.4353 71.0829 70.3673 70.8467 70.391" stroke="black" stroke-width="0.980065" stroke-linecap="round" stroke-linejoin="round"/>
<path d="M71.0082 73.2224C69.647 72.6546 68.3376 71.9624 67.0957 71.1539" stroke="black" stroke-width="0.980065" stroke-linecap="round" stroke-linejoin="round"/>
<path d="M74.1327 72.8394C73.3997 73.2208 72.5882 73.4134 71.7675 73.4006C71.5666 73.3811 71.3683 73.3387 71.1763 73.2742" stroke="black" stroke-width="0.980065" stroke-linecap="round" stroke-linejoin="round"/>
<path d="M67.1001 71.1516C67.2088 71.2709 68.9416 73.1675 69.6081 73.7021C69.9214 74.0072 70.2986 74.2336 70.7103 74.3639C71.1221 74.4942 71.5573 74.5248 71.9823 74.4533C72.7583 74.2131 74.8225 72.7263 74.2677 72.8087" stroke="black" stroke-width="0.980065" stroke-linecap="round" stroke-linejoin="round"/>
<path d="M74.248 72.8135H74.2721" stroke="black" stroke-width="0.980065" stroke-linecap="round" stroke-linejoin="round"/>
<path d="M68.4951 74.1919C69.0745 74.8213 69.8063 75.279 70.6148 75.5178C71.1509 75.6213 71.7047 75.5621 72.209 75.3474C72.7133 75.1328 73.1465 74.7717 73.4564 74.3081" stroke="black" stroke-width="0.980065" stroke-linecap="round" stroke-linejoin="round"/>
<path d="M62.2729 62.2505C62.3261 62.267 63.2328 62.486 63.6189 60.9199" stroke="black" stroke-width="0.980065" stroke-linecap="round" stroke-linejoin="round"/>
<path d="M78.9346 120.072C79.1961 119.602 79.5534 119.197 79.9818 118.884C80.0437 118.843 80.1148 118.82 80.1879 118.817C80.2611 118.815 80.3337 118.832 80.3983 118.867C80.6152 119.071 80.7857 119.321 80.8977 119.601C81.6364 121.063 82.8189 124.593 83.8685 129.924C85.2122 136.753 86.0542 143.878 86.0542 143.878C86.0542 143.878 95.6964 140.984 97.2103 139.125C98.7242 137.266 100.181 137.91 100.181 137.91C100.181 137.91 95.8621 126.449 94.5731 122.161C93.4848 118.55 93.0592 115.632 92.3022 114.703C92.189 114.549 92.0254 114.441 91.8417 114.401C90.7951 114.233 80.5937 118.58 79.9682 118.849H79.9385" stroke="black" stroke-width="0.980065" stroke-linecap="round" stroke-linejoin="round"/>
<path d="M80.7434 119.682C80.7434 119.682 80.0351 119.872 78.9719 120.209C76.2987 120.989 73.7237 122.091 71.2997 123.492C69.6663 124.514 68.1129 125.666 66.6538 126.938" stroke="black" stroke-width="0.980065" stroke-linecap="round" stroke-linejoin="round"/>
<path d="M93.1404 114.121C94.6734 115.948 95.8826 118.04 96.7124 120.3C98.0044 123.933 106.861 132.351 109.539 145.358C109.539 145.358 93.7096 146.389 86.2069 149.018C78.7042 151.647 74.3562 150.142 74.3562 150.142C74.3562 150.142 74.8168 135.255 73.0885 131.522C71.3603 127.788 71.3626 126.43 71.3626 126.43L68.0117 128.393" stroke="black" stroke-width="0.980065" stroke-linecap="round" stroke-linejoin="round"/>
<path d="M97.2178 29.7523H111.071V37.4437" stroke="black" stroke-width="0.980065" stroke-linecap="round" stroke-linejoin="round"/>
<path d="M70.1797 29.7523H76.3532" stroke="black" stroke-width="0.980065" stroke-linecap="round" stroke-linejoin="round"/>
<path d="M22.0898 83.3168V29.7523H33.1608" stroke="black" stroke-width="0.980065" stroke-linecap="round" stroke-linejoin="round"/>
<path d="M92.6274 38.6511L91.6174 41.5391L73.8843 35.1335L79.4209 32.4166" stroke="black" stroke-width="0.980065" stroke-linecap="round" stroke-linejoin="round"/>
<path d="M92.3765 26.0565L98.0073 23.2917L93.1448 37.1729" stroke="black" stroke-width="0.980065" stroke-linecap="round" stroke-linejoin="round"/>
<path d="M48.1542 39.6017C44.2425 30.1817 48.0926 25.1224 52.1541 22.3458C59.0572 17.6303 75.6138 24.0956 79.4244 32.4166" stroke="black" stroke-width="0.980065" stroke-linecap="round" stroke-linejoin="round"/>
<path d="M60.004 4.7124C44.8344 8.27787 32.6341 25.8925 48.7279 41.5391C59.0981 51.6169 75.948 36.6187 65.4942 23.2918" stroke="black" stroke-width="0.980065" stroke-linecap="round" stroke-linejoin="round"/>
<path d="M92.3764 26.0564C92.3764 26.0564 88.7938 16.0524 77.6491 7.94724C73.1525 4.74519 67.6419 3.43754 62.2432 4.2915" stroke="black" stroke-width="0.980065" stroke-linecap="round" stroke-linejoin="round"/>
<path d="M48.4985 25.8807C48.4985 28.3857 52.2187 31.6371 55.7717 31.1787C59.3247 30.7203 60.1676 27.3495 58.393 26.5103" stroke="black" stroke-width="0.980065" stroke-linecap="round" stroke-linejoin="round"/>
<path d="M36.3018 68.0831L47.5984 60.0023C47.5984 60.0023 43.898 52.5817 44.6207 47.1605C44.8368 45.3781 45.2664 43.6304 45.8998 41.9575" stroke="black" stroke-width="0.980065" stroke-linecap="round" stroke-linejoin="round"/>
<path d="M39.7997 24.1003C36.5947 28.286 30.0154 38.3614 29.9698 50.5902C29.9098 67.6035 34.5503 69.3383 34.5503 69.3383" stroke="black" stroke-width="0.980065" stroke-linecap="round" stroke-linejoin="round"/>
<path d="M40.1523 123.053C40.1523 123.053 41.1715 123.157 42.8078 123.333C49.1796 124.015 64.8987 125.755 65.9825 126.423L66.0585 126.473C66.2669 126.61 66.4659 126.761 66.6543 126.927C67.1554 127.366 67.6136 127.856 68.0223 128.388C68.9146 129.511 69.5858 130.803 69.9983 132.192C70.6891 134.699 72.7898 138.098 73.0961 138.847C73.5977 140.071 71.9705 141.197 70.6063 139.161C69.5887 137.644 69.2049 136.561 68.6364 136.043C68.4438 135.864 68.2032 135.749 67.9463 135.715" stroke="black" stroke-width="0.980065" stroke-linecap="round" stroke-linejoin="round"/>
<path d="M66.1663 150.139H66.1389C64.8545 149.571 64.5809 143.93 64.6296 142.295C64.6782 140.66 64.2883 140.843 63.3679 139.391C62.4476 137.939 61.772 134.185 61.0006 133.189C60.2292 132.193 42.8601 134.316 36.8728 133.554C35.308 133.353 29.3967 132.805 28.237 130.834C25.9957 127.031 33.6672 112.799 33.6672 112.799" stroke="black" stroke-width="0.980065" stroke-linecap="round" stroke-linejoin="round"/>
<path d="M45.6242 119.295L42.8076 123.333" stroke="black" stroke-width="0.980065" stroke-linecap="round" stroke-linejoin="round"/>
<path d="M136.404 67.6725H138.158L135.856 69.916H130.422H127.388H123.285H120.22H111.865H95.5588L93.2583 67.6725H103.123H114.546H125.313H136.404Z" stroke="black" stroke-width="0.980065" stroke-linecap="round" stroke-linejoin="round"/>
<path d="M96.0342 107.698C96.0342 107.698 105.126 115.496 109.548 116.592C113.971 117.688 113.755 117.559 114.841 117.559C115.927 117.559 116.979 114.733 117.239 113.477C118.105 109.012 118.105 104.413 117.239 99.9477C116.151 94.094 114.565 85.0876 114.565 85.0876" stroke="black" stroke-width="0.980065" stroke-linecap="round" stroke-linejoin="round"/>
<path d="M107.759 109.186C107.54 106.933 108.519 103.892 108.631 101.414C108.743 98.9359 107.977 85.0924 107.977 85.0924C107.977 85.0924 107.445 81.9265 107.955 80.1516C108.464 78.3768 109.982 77.2778 110.256 76.2321C110.53 75.1865 110.99 73.7767 110.788 72.888C110.422 71.2906 111.099 69.9451 111.865 69.9451C112.208 69.9451 112.569 70.2135 112.861 70.851C114.242 73.8552 112.861 75.7729 112.861 75.7729" stroke="black" stroke-width="0.980065" stroke-linecap="round" stroke-linejoin="round"/>
<path d="M108.631 101.416L102.669 97.2333" stroke="black" stroke-width="0.980065" stroke-linecap="round" stroke-linejoin="round"/>
<path d="M113.85 85.4771L114.352 85.0681C115.71 83.9581 119.415 80.9163 120.236 80.0363C120.831 79.2114 121.358 78.337 121.813 77.4222C122.477 76.0798 123.307 74.8317 124.282 73.7092C125.662 72.4445 127.892 69.9412 127.892 69.9412H127.383C126.757 69.9189 126.129 69.953 125.508 70.0432C124.179 70.8094 122.995 71.8167 122.012 73.0168C120.761 74.3187 119.418 75.5231 117.994 76.62" stroke="black" stroke-width="0.980065" stroke-linecap="round" stroke-linejoin="round"/>
<path d="M116.306 74.199C116.247 74.3354 116.206 74.4793 116.184 74.6268C116.016 75.5893 115.796 76.5414 115.526 77.4787C115.526 77.4787 110.628 79.8816 110.258 81.6737" stroke="black" stroke-width="0.980065" stroke-linecap="round" stroke-linejoin="round"/>
<path d="M117.71 77.4693C117.71 77.4693 117.795 77.1035 117.915 76.6058C118.128 75.6834 118.453 74.2979 118.549 73.8583C118.701 73.1785 120.28 70.3643 120.221 69.9506H118.549C118.133 70.9938 116.734 73.1094 116.308 74.2005" stroke="black" stroke-width="0.980065" stroke-linecap="round" stroke-linejoin="round"/>
<path d="M121.817 77.4269C121.817 77.4269 125.357 74.4156 126.507 74.0208C128.152 73.2584 129.685 72.2588 131.058 71.0519C131.33 70.7073 131.058 70.2842 130.417 70.2842C129.889 70.3178 129.38 70.4984 128.944 70.807C127.314 71.8455 124.282 73.7115 124.282 73.7115" stroke="black" stroke-width="0.980065" stroke-linecap="round" stroke-linejoin="round"/>
<path d="M111.984 76.2431C112.309 76.1792 112.626 76.0803 112.93 75.948C113.185 75.8459 113.496 75.7125 113.865 75.528C115.112 74.9118 116.243 74.239 116.315 74.199" stroke="black" stroke-width="0.980065" stroke-linecap="round" stroke-linejoin="round"/>
<path d="M118.549 73.8544C118.549 73.8544 121.983 71.0166 123.285 69.9467" stroke="black" stroke-width="0.980065" stroke-linecap="round" stroke-linejoin="round"/>
<path d="M113.855 49.152L114.546 67.6725" stroke="black" stroke-width="0.980065" stroke-linecap="round" stroke-linejoin="round"/>
<path d="M125.876 52.5699L125.899 51.9591L126.003 49.152" stroke="black" stroke-width="0.980065" stroke-linecap="round" stroke-linejoin="round"/>
<path d="M125.312 67.6725L125.483 63.1273" stroke="black" stroke-width="0.980065" stroke-linecap="round" stroke-linejoin="round"/>
<path d="M126.516 48.2847V49.1521H126.002H113.855H113.178V47.674H118.443H120.208H122.431H124.701H126.516V48.2847Z" stroke="black" stroke-width="0.980065" stroke-linecap="round" stroke-linejoin="round"/>
<path d="M125.876 52.5698C125.15 52.3412 124.385 52.2765 123.633 52.3802C122.88 52.4839 122.158 52.7535 121.516 53.1708C120.873 53.5881 120.325 54.1433 119.908 54.7987C119.492 55.4541 119.217 56.1943 119.101 56.9692C118.986 57.7442 119.034 58.5356 119.241 59.2899C119.448 60.0442 119.809 60.7437 120.301 61.3409C120.793 61.9381 121.403 62.419 122.091 62.7511C122.779 63.0831 123.527 63.2586 124.286 63.2654C124.689 63.2655 125.09 63.2175 125.483 63.1226L125.876 52.5698Z" stroke="black" stroke-width="0.980065" stroke-linecap="round" stroke-linejoin="round"/>
<path d="M124.701 47.6637C125.323 46.3786 126.348 45.3483 127.608 44.7395C128.869 44.1306 130.291 43.979 131.645 44.309C132.999 44.6391 134.206 45.4315 135.07 46.5581C135.933 47.6846 136.404 49.0793 136.405 50.5164V67.6294" stroke="black" stroke-width="0.980065" stroke-linecap="round" stroke-linejoin="round"/>
<path d="M118.444 47.6738L118.833 44.1602L119.035 42.3468L120.793 42.3829L120.595 44.1751L120.209 47.6738" stroke="black" stroke-width="0.980065" stroke-linecap="round" stroke-linejoin="round"/>
<path d="M119.157 42.3831H120.793H122.431H124.372V44.1752H122.393H120.595H118.945" stroke="black" stroke-width="0.980065" stroke-linecap="round" stroke-linejoin="round"/>
<path d="M103.215 55.2271C103.215 55.2271 103.687 53.245 103.843 52.3226C103.998 51.4002 102.352 50.1835 102.352 48.8027V39.9628H106.434C106.434 39.9628 105.778 46.932 106.434 49.152C106.676 49.9692 107.767 52.5275 107.726 54.143C107.701 54.5712 107.701 55.0006 107.726 55.4288" stroke="black" stroke-width="0.980065" stroke-linecap="round" stroke-linejoin="round"/>
<path d="M106.434 39.9628H121.658C122.042 40.7053 122.303 41.5086 122.431 42.3397" stroke="black" stroke-width="0.980065" stroke-linecap="round" stroke-linejoin="round"/>
<path d="M122.393 44.1775C122.312 45.3429 122.325 46.513 122.432 47.6762" stroke="black" stroke-width="0.980065" stroke-linecap="round" stroke-linejoin="round"/>
<path d="M106.623 64.8724L112.336 63.2255V65.5663" stroke="black" stroke-width="0.980065" stroke-linecap="round" stroke-linejoin="round"/>
<path d="M106.42 65.5664V64.8725V63.8096" stroke="black" stroke-width="0.980065" stroke-linecap="round" stroke-linejoin="round"/>
<path d="M106.42 61.8014V63.8094C106.798 63.7778 107.154 63.6145 107.431 63.3464C107.707 63.0783 107.887 62.7211 107.94 62.3336C108.155 62.6281 108.433 62.8672 108.753 63.0322C109.072 63.1971 109.424 63.2834 109.781 63.2843C110.101 63.3477 110.432 63.2852 110.709 63.1093C110.986 62.9334 111.189 62.6567 111.279 62.3336C111.38 62.5469 111.529 62.7314 111.715 62.8712C111.9 63.0109 112.116 63.1015 112.343 63.1351C112.627 63.1322 112.903 63.0336 113.128 62.8541C114.322 61.9906 112.976 61.8014 112.976 61.8014" stroke="black" stroke-width="0.980065" stroke-linecap="round" stroke-linejoin="round"/>
<path d="M106.42 61.8015H112.976C112.978 60.0964 112.324 58.4604 111.158 57.2533C109.992 56.0462 108.409 55.3668 106.759 55.3645H106.42V61.8015Z" stroke="black" stroke-width="0.980065" stroke-linecap="round" stroke-linejoin="round"/>
<path d="M106.42 65.5664V67.5964H111.81C112.038 67.5962 112.258 67.5022 112.42 67.335C112.581 67.1677 112.672 66.941 112.672 66.7047V65.5664H106.42Z" stroke="black" stroke-width="0.980065" stroke-linecap="round" stroke-linejoin="round"/>
<path d="M97.897 57.3803C97.897 57.3803 104.856 64.107 106.409 67.601C106.409 67.601 104.947 67.6505 103.111 67.6505C101.429 67.6505 99.4291 67.6081 97.954 67.4488C94.8615 67.1136 95.8396 59.605 97.8856 57.3851C99.2475 55.9069 101.404 55.4053 103.206 55.2718C104.274 55.193 105.347 55.2243 106.409 55.3653" stroke="black" stroke-width="0.980065" stroke-linecap="round" stroke-linejoin="round"/>
<path d="M95.6812 114.006H102.092" stroke="black" stroke-width="0.980065" stroke-linecap="round" stroke-linejoin="round"/>
<path d="M52.6953 114.006H57.3534" stroke="black" stroke-width="0.980065" stroke-linecap="round" stroke-linejoin="round"/>
<path d="M22.0898 90.6134V114.006H30.6756" stroke="black" stroke-width="0.980065" stroke-linecap="round" stroke-linejoin="round"/>
<path d="M65.7383 153.214C65.7862 152.56 65.9336 151.46 66.1411 150.123C66.9467 144.895 68.6354 136.058 68.6354 136.058" stroke="black" stroke-width="0.980065" stroke-linecap="round" stroke-linejoin="round"/>
<path d="M109.547 145.352C110.114 146.717 110.47 148.166 110.601 149.645" stroke="black" stroke-width="0.980065" stroke-linecap="round" stroke-linejoin="round"/>
<path d="M126.106 51.9663L127.001 52.7599L128.272 53.8864L128.585 54.1651C128.719 54.2862 128.864 54.3942 129.017 54.4877C129.572 54.8253 130.219 54.9633 130.858 54.8802C131.347 54.8199 131.813 54.6307 132.211 54.3307C132.287 54.2765 132.354 54.2169 132.423 54.1549L133.159 53.4876L134.462 52.2991L136.415 50.5234" stroke="black" stroke-width="0.980065" stroke-linecap="round" stroke-linejoin="round"/>
<path d="M128.272 53.9484V53.8864V48.2846V48.0468H129.094H129.567V54.4241" stroke="black" stroke-width="0.980065" stroke-linecap="round" stroke-linejoin="round"/>
<path d="M130.847 54.899V54.8802V47.1291V46.8583H132.142V49.2824V54.1863" stroke="black" stroke-width="0.980065" stroke-linecap="round" stroke-linejoin="round"/>
<path d="M133.137 53.4727V49.2824V48.2847H134.432V52.285" stroke="black" stroke-width="0.980065" stroke-linecap="round" stroke-linejoin="round"/>
<path d="M127.082 52.665V48.2847H128.272" stroke="black" stroke-width="0.980065" stroke-linecap="round" stroke-linejoin="round"/>
<path d="M129.094 48.0467V47.129H130.722" stroke="black" stroke-width="0.980065" stroke-linecap="round" stroke-linejoin="round"/>
<path d="M132.143 49.2823H133.137" stroke="black" stroke-width="0.980065" stroke-linecap="round" stroke-linejoin="round"/>
<path d="M67.5698 63.9359C67.7807 63.9298 67.9909 63.9067 68.1983 63.8668L68.2743 63.8503C68.5139 63.7949 68.7565 63.7551 69.0009 63.731C69.5913 63.7125 70.1765 63.8492 70.7018 64.1282C70.7869 64.1643 70.872 64.2067 70.964 64.2499L71.1319 64.3331" stroke="black" stroke-width="0.980065" stroke-linecap="round" stroke-linejoin="round"/>
<path d="M75.7344 66.2745C76.5582 66.1842 76.6464 65.8137 77.6002 66.0916C77.7522 66.1371 77.927 66.1984 78.1322 66.2792C78.3374 66.3601 78.5737 66.4645 78.8451 66.5932" stroke="black" stroke-width="0.980065" stroke-linecap="round" stroke-linejoin="round"/>
<path d="M92.7578 105.744C92.4887 106.436 92.3018 106.873 92.3018 106.873C92.3018 106.873 94.198 111.269 93.8803 112.578C93.7337 113.136 93.4836 113.66 93.1438 114.12C93.0092 114.318 92.8565 114.502 92.6878 114.67" stroke="black" stroke-width="0.980065" stroke-linecap="round" stroke-linejoin="round"/>
<path d="M89.3408 90.447C89.3408 90.447 94.8637 94.3807 94.3044 100.066C94.0223 102.019 93.5027 103.926 92.7578 105.744" stroke="#81F8F8" stroke-width="0.980065" stroke-linecap="round" stroke-linejoin="round"/>
<path d="M54.6743 107.934C55.8376 107.504 57.0258 107.15 58.2319 106.873" stroke="#81F8F8" stroke-width="0.980065" stroke-linecap="round" stroke-linejoin="round"/>
</svg>
