<svg width="140" height="140" viewBox="0 0 140 140" fill="none" xmlns="http://www.w3.org/2000/svg">
<rect opacity="0.01" width="140" height="140" fill="white"/>
<path fill-rule="evenodd" clip-rule="evenodd" d="M32 33C32 30.7909 33.7909 29 36 29H105C107.209 29 109 30.7909 109 33V90C109 92.2091 107.209 94 105 94H89.957H80.4355L70.5 104L60.9785 94H51.457H36C33.7909 94 32 92.2091 32 90V33Z" fill="#D7DBEC"/>
<path fill-rule="evenodd" clip-rule="evenodd" d="M24 41C24 38.7909 25.7909 37 28 37H113C115.209 37 117 38.7909 117 41V98C117 100.209 115.209 102 113 102H94H82.5L70.5 112L59 102H47.5H28C25.7909 102 24 100.209 24 98V41Z" fill="#336DFF"/>
<path fill-rule="evenodd" clip-rule="evenodd" d="M69.5959 58.7805L70.8253 60.6209L72.0546 58.7805C75.8136 55.0288 81.0148 55.1415 84.8711 58.7335L85.1194 58.9729C88.8785 62.7246 88.9584 68.7576 85.3594 72.6063L85.1194 72.8541L70.8253 87L56.8806 72.8541C53.0398 69.0209 53.0398 62.8061 56.8806 58.9729C60.7213 55.1397 65.7552 54.9473 69.5959 58.7805Z" fill="white"/>
</svg>
