<svg width="29" height="12" viewBox="0 0 29 12" fill="none" xmlns="http://www.w3.org/2000/svg">
<path d="M0.232955 11V0.818182H6.33807V1.91193H1.46591V5.35227H5.88068V6.44602H1.46591V11H0.232955ZM8.29066 11V3.36364H9.46396V11H8.29066ZM8.88725 2.09091C8.65856 2.09091 8.46135 2.01302 8.29563 1.85724C8.13323 1.70147 8.05202 1.5142 8.05202 1.29545C8.05202 1.0767 8.13323 0.889441 8.29563 0.733664C8.46135 0.577888 8.65856 0.5 8.88725 0.5C9.11594 0.5 9.31149 0.577888 9.4739 0.733664C9.63962 0.889441 9.72248 1.0767 9.72248 1.29545C9.72248 1.5142 9.63962 1.70147 9.4739 1.85724C9.31149 2.01302 9.11594 2.09091 8.88725 2.09091ZM12.7862 0.818182V11H11.6129V0.818182H12.7862ZM18.1369 11.1591C17.4011 11.1591 16.7664 10.9967 16.2328 10.6719C15.7025 10.3438 15.2931 9.88636 15.0048 9.29972C14.7198 8.70975 14.5772 8.02367 14.5772 7.24148C14.5772 6.45928 14.7198 5.76989 15.0048 5.1733C15.2931 4.57339 15.6942 4.10606 16.2079 3.77131C16.725 3.43324 17.3282 3.2642 18.0176 3.2642C18.4153 3.2642 18.8081 3.33049 19.1958 3.46307C19.5836 3.59564 19.9366 3.81108 20.2548 4.10938C20.573 4.40436 20.8265 4.79545 21.0154 5.28267C21.2044 5.76989 21.2988 6.36979 21.2988 7.08239V7.57955H15.4125V6.56534H20.1056C20.1056 6.13447 20.0195 5.75 19.8471 5.41193C19.6781 5.07386 19.4361 4.80705 19.1213 4.61151C18.8097 4.41596 18.4418 4.31818 18.0176 4.31818C17.5502 4.31818 17.1459 4.43419 16.8045 4.66619C16.4664 4.89489 16.2063 5.19318 16.024 5.56108C15.8417 5.92898 15.7505 6.32339 15.7505 6.74432V7.42045C15.7505 7.99716 15.85 8.48603 16.0488 8.88707C16.251 9.2848 16.5311 9.58807 16.889 9.79688C17.247 10.0024 17.6629 10.1051 18.1369 10.1051C18.4451 10.1051 18.7235 10.062 18.9721 9.97585C19.224 9.88636 19.4411 9.75379 19.6234 9.57812C19.8057 9.39915 19.9466 9.17708 20.046 8.91193L21.1795 9.23011C21.0602 9.61458 20.8597 9.95265 20.5779 10.2443C20.2962 10.5327 19.9482 10.758 19.5339 10.9205C19.1196 11.0795 18.6539 11.1591 18.1369 11.1591ZM28.4927 5.07386L27.4387 5.37216C27.3725 5.1965 27.2747 5.0258 27.1454 4.86009C27.0195 4.69105 26.8471 4.55185 26.6284 4.44247C26.4096 4.3331 26.1296 4.27841 25.7882 4.27841C25.3208 4.27841 24.9314 4.38613 24.6199 4.60156C24.3116 4.81368 24.1575 5.08381 24.1575 5.41193C24.1575 5.7036 24.2636 5.93395 24.4757 6.10298C24.6878 6.27202 25.0192 6.41288 25.47 6.52557L26.6035 6.80398C27.2863 6.9697 27.795 7.22325 28.1298 7.56463C28.4645 7.9027 28.6319 8.33854 28.6319 8.87216C28.6319 9.30966 28.506 9.70076 28.2541 10.0455C28.0055 10.3902 27.6575 10.6619 27.21 10.8608C26.7626 11.0597 26.2422 11.1591 25.649 11.1591C24.8701 11.1591 24.2254 10.9901 23.715 10.652C23.2046 10.3139 22.8815 9.82008 22.7456 9.17045L23.8592 8.89205C23.9653 9.30303 24.1658 9.61127 24.4608 9.81676C24.7591 10.0223 25.1485 10.125 25.6291 10.125C26.176 10.125 26.6101 10.009 26.9316 9.77699C27.2565 9.54167 27.4189 9.25994 27.4189 8.93182C27.4189 8.66667 27.3261 8.4446 27.1404 8.26562C26.9548 8.08333 26.6698 7.94744 26.2853 7.85795L25.0126 7.55966C24.3133 7.39394 23.7995 7.13707 23.4714 6.78906C23.1466 6.43774 22.9842 5.99858 22.9842 5.47159C22.9842 5.04072 23.1052 4.65956 23.3471 4.32812C23.5924 3.99669 23.9255 3.73651 24.3464 3.54758C24.7707 3.35866 25.2512 3.2642 25.7882 3.2642C26.5439 3.2642 27.1371 3.42992 27.568 3.76136C28.0022 4.0928 28.3104 4.5303 28.4927 5.07386Z" fill="#A1A7C4"/>
</svg>
