<svg width="51" height="12" viewBox="0 0 51 12" fill="none" xmlns="http://www.w3.org/2000/svg">
<path d="M0.232955 11V0.818182H6.33807V1.91193H1.46591V5.35227H5.88068V6.44602H1.46591V11H0.232955ZM8.29066 11V3.36364H9.46396V11H8.29066ZM8.88725 2.09091C8.65856 2.09091 8.46135 2.01302 8.29563 1.85724C8.13323 1.70147 8.05202 1.5142 8.05202 1.29545C8.05202 1.0767 8.13323 0.889441 8.29563 0.733664C8.46135 0.577888 8.65856 0.5 8.88725 0.5C9.11594 0.5 9.31149 0.577888 9.4739 0.733664C9.63962 0.889441 9.72248 1.0767 9.72248 1.29545C9.72248 1.5142 9.63962 1.70147 9.4739 1.85724C9.31149 2.01302 9.11594 2.09091 8.88725 2.09091ZM12.7862 6.40625V11H11.6129V3.36364H12.7464V4.55682H12.8459C13.0249 4.16903 13.2966 3.85748 13.6612 3.62216C14.0258 3.38352 14.4964 3.2642 15.0732 3.2642C15.5902 3.2642 16.0426 3.37027 16.4304 3.58239C16.8182 3.79119 17.1198 4.10938 17.3352 4.53693C17.5507 4.96117 17.6584 5.49811 17.6584 6.14773V11H16.4851V6.22727C16.4851 5.62737 16.3293 5.16004 16.0178 4.82528C15.7062 4.48722 15.2786 4.31818 14.7351 4.31818C14.3606 4.31818 14.0258 4.39938 13.7308 4.56179C13.4392 4.72419 13.2088 4.96117 13.0398 5.27273C12.8707 5.58428 12.7862 5.96212 12.7862 6.40625ZM22.0495 11.179C21.5656 11.179 21.1265 11.0878 20.7321 10.9055C20.3377 10.7199 20.0244 10.4531 19.7924 10.1051C19.5604 9.75379 19.4444 9.32955 19.4444 8.83239C19.4444 8.39489 19.5306 8.04025 19.7029 7.76847C19.8753 7.49337 20.1056 7.27794 20.394 7.12216C20.6824 6.96638 21.0005 6.85038 21.3485 6.77415C21.6999 6.6946 22.0529 6.63163 22.4075 6.58523C22.8715 6.52557 23.2477 6.48082 23.536 6.45099C23.8277 6.41785 24.0398 6.36316 24.1724 6.28693C24.3083 6.2107 24.3762 6.07812 24.3762 5.8892V5.84943C24.3762 5.3589 24.242 4.97775 23.9735 4.70597C23.7084 4.43419 23.3057 4.2983 22.7654 4.2983C22.2053 4.2983 21.7662 4.42093 21.448 4.66619C21.1298 4.91146 20.9061 5.1733 20.7768 5.4517L19.6632 5.05398C19.862 4.58996 20.1272 4.22869 20.4586 3.97017C20.7934 3.70833 21.158 3.52604 21.5524 3.4233C21.9501 3.31723 22.3412 3.2642 22.7257 3.2642C22.9709 3.2642 23.2527 3.29403 23.5708 3.35369C23.8923 3.41004 24.2022 3.5277 24.5005 3.70668C24.8021 3.88565 25.0524 4.15578 25.2512 4.51705C25.4501 4.87831 25.5495 5.36222 25.5495 5.96875V11H24.3762V9.96591H24.3166C24.237 10.1316 24.1045 10.3089 23.9189 10.4979C23.7333 10.6868 23.4863 10.8475 23.1781 10.9801C22.8699 11.1127 22.4937 11.179 22.0495 11.179ZM22.2285 10.125C22.6925 10.125 23.0836 10.0339 23.4018 9.85156C23.7233 9.66927 23.9653 9.43395 24.1277 9.1456C24.2934 8.85724 24.3762 8.55398 24.3762 8.2358V7.16193C24.3265 7.22159 24.2172 7.27628 24.0481 7.32599C23.8824 7.3724 23.6902 7.41383 23.4714 7.45028C23.256 7.48343 23.0455 7.51326 22.84 7.53977C22.6378 7.56297 22.4738 7.58286 22.3478 7.59943C22.0429 7.6392 21.7579 7.70384 21.4927 7.79332C21.2309 7.8795 21.0188 8.01042 20.8564 8.18608C20.6973 8.35843 20.6177 8.59375 20.6177 8.89205C20.6177 9.29972 20.7685 9.60795 21.0701 9.81676C21.3751 10.0223 21.7612 10.125 22.2285 10.125ZM28.8643 6.40625V11H27.6911V3.36364H28.8246V4.55682H28.924C29.103 4.16903 29.3748 3.85748 29.7393 3.62216C30.1039 3.38352 30.5746 3.2642 31.1513 3.2642C31.6683 3.2642 32.1207 3.37027 32.5085 3.58239C32.8963 3.79119 33.1979 4.10938 33.4134 4.53693C33.6288 4.96117 33.7365 5.49811 33.7365 6.14773V11H32.5632V6.22727C32.5632 5.62737 32.4074 5.16004 32.0959 4.82528C31.7843 4.48722 31.3568 4.31818 30.8132 4.31818C30.4387 4.31818 30.1039 4.39938 29.8089 4.56179C29.5173 4.72419 29.2869 4.96117 29.1179 5.27273C28.9489 5.58428 28.8643 5.96212 28.8643 6.40625ZM38.9828 11.1591C38.2669 11.1591 37.6504 10.9901 37.1333 10.652C36.6163 10.3139 36.2186 9.84825 35.9402 9.25497C35.6618 8.66169 35.5225 7.9839 35.5225 7.22159C35.5225 6.44602 35.6651 5.7616 35.9501 5.16832C36.2385 4.57173 36.6395 4.10606 37.1532 3.77131C37.6703 3.43324 38.2735 3.2642 38.9629 3.2642C39.4998 3.2642 39.9837 3.36364 40.4146 3.5625C40.8455 3.76136 41.1984 4.03977 41.4735 4.39773C41.7486 4.75568 41.9193 5.1733 41.9856 5.65057H40.8123C40.7228 5.30256 40.524 4.99432 40.2157 4.72585C39.9108 4.45407 39.4998 4.31818 38.9828 4.31818C38.5254 4.31818 38.1243 4.4375 37.7797 4.67614C37.4383 4.91146 37.1715 5.24455 36.9792 5.67543C36.7903 6.10298 36.6958 6.60511 36.6958 7.18182C36.6958 7.77178 36.7886 8.28551 36.9743 8.72301C37.1632 9.16051 37.4283 9.50024 37.7697 9.74219C38.1144 9.98414 38.5188 10.1051 38.9828 10.1051C39.2877 10.1051 39.5645 10.0521 39.813 9.94602C40.0616 9.83996 40.2721 9.6875 40.4444 9.48864C40.6168 9.28977 40.7394 9.05114 40.8123 8.77273H41.9856C41.9193 9.22348 41.7553 9.6295 41.4934 9.99077C41.2349 10.3487 40.8919 10.6338 40.4643 10.8459C40.0401 11.0547 39.5462 11.1591 38.9828 11.1591ZM46.9025 11.1591C46.1667 11.1591 45.532 10.9967 44.9984 10.6719C44.4681 10.3438 44.0588 9.88636 43.7704 9.29972C43.4854 8.70975 43.3429 8.02367 43.3429 7.24148C43.3429 6.45928 43.4854 5.76989 43.7704 5.1733C44.0588 4.57339 44.4598 4.10606 44.9735 3.77131C45.4906 3.43324 46.0938 3.2642 46.7832 3.2642C47.1809 3.2642 47.5737 3.33049 47.9615 3.46307C48.3493 3.59564 48.7022 3.81108 49.0204 4.10938C49.3386 4.40436 49.5922 4.79545 49.7811 5.28267C49.97 5.76989 50.0645 6.36979 50.0645 7.08239V7.57955H44.1781V6.56534H48.8713C48.8713 6.13447 48.7851 5.75 48.6127 5.41193C48.4437 5.07386 48.2018 4.80705 47.8869 4.61151C47.5753 4.41596 47.2074 4.31818 46.7832 4.31818C46.3159 4.31818 45.9115 4.43419 45.5701 4.66619C45.2321 4.89489 44.9719 5.19318 44.7896 5.56108C44.6073 5.92898 44.5162 6.32339 44.5162 6.74432V7.42045C44.5162 7.99716 44.6156 8.48603 44.8145 8.88707C45.0166 9.2848 45.2967 9.58807 45.6547 9.79688C46.0126 10.0024 46.4286 10.1051 46.9025 10.1051C47.2108 10.1051 47.4892 10.062 47.7377 9.97585C47.9896 9.88636 48.2067 9.75379 48.389 9.57812C48.5713 9.39915 48.7122 9.17708 48.8116 8.91193L49.9451 9.23011C49.8258 9.61458 49.6253 9.95265 49.3436 10.2443C49.0618 10.5327 48.7138 10.758 48.2995 10.9205C47.8852 11.0795 47.4196 11.1591 46.9025 11.1591Z" fill="#A1A7C4"/>
</svg>
