<svg width="152" height="158" viewBox="0 0 152 158" fill="none" xmlns="http://www.w3.org/2000/svg">
<path d="M58.5166 147.028C58.5166 147.316 58.5711 147.601 58.6771 147.867C58.7831 148.133 58.9384 148.375 59.1342 148.579C59.33 148.782 59.5625 148.944 59.8183 149.054C60.0742 149.164 60.3484 149.221 60.6253 149.221C60.9022 149.221 61.1764 149.164 61.4323 149.054C61.6881 148.944 61.9206 148.782 62.1164 148.579C62.3122 148.375 62.4675 148.133 62.5735 147.867C62.6795 147.601 62.734 147.316 62.734 147.028C62.734 146.74 62.6795 146.455 62.5735 146.189C62.4675 145.923 62.3122 145.682 62.1164 145.478C61.9206 145.274 61.6881 145.113 61.4323 145.003C61.1764 144.893 60.9022 144.836 60.6253 144.836C60.3484 144.836 60.0742 144.893 59.8183 145.003C59.5625 145.113 59.33 145.274 59.1342 145.478C58.9384 145.682 58.7831 145.923 58.6771 146.189C58.5711 146.455 58.5166 146.74 58.5166 147.028Z" fill="#FFD997"/>
<path d="M47.6543 139.409C47.6543 139.878 47.8337 140.329 48.153 140.661C48.4722 140.993 48.9053 141.179 49.3568 141.179C49.8084 141.179 50.2414 140.993 50.5607 140.661C50.88 140.329 51.0593 139.878 51.0593 139.409C51.0593 138.939 50.88 138.489 50.5607 138.157C50.2414 137.825 49.8084 137.639 49.3568 137.639C48.9053 137.639 48.4722 137.825 48.153 138.157C47.8337 138.489 47.6543 138.939 47.6543 139.409Z" fill="#FFD997"/>
<path d="M93.4561 140.255C93.4561 140.783 93.6578 141.29 94.0168 141.663C94.3759 142.036 94.8629 142.246 95.3707 142.246C95.8785 142.246 96.3655 142.036 96.7246 141.663C97.0837 141.29 97.2854 140.783 97.2854 140.255C97.2854 139.727 97.0837 139.221 96.7246 138.848C96.3655 138.474 95.8785 138.265 95.3707 138.265C94.8629 138.265 94.3759 138.474 94.0168 138.848C93.6578 139.221 93.4561 139.727 93.4561 140.255Z" fill="#FFD997"/>
<path d="M53.3633 102.801C53.3633 103.146 53.4954 103.478 53.7306 103.723C53.9658 103.967 54.2847 104.104 54.6173 104.104C54.9499 104.104 55.2689 103.967 55.5041 103.723C55.7393 103.478 55.8714 103.146 55.8714 102.801C55.8714 102.455 55.7393 102.123 55.5041 101.879C55.2689 101.634 54.9499 101.497 54.6173 101.497C54.2847 101.497 53.9658 101.634 53.7306 101.879C53.4954 102.123 53.3633 102.455 53.3633 102.801Z" fill="#FFD997"/>
<path d="M10.2725 127.833C10.2725 128.08 10.3194 128.325 10.4105 128.554C10.5016 128.783 10.6352 128.991 10.8036 129.166C10.972 129.341 11.1719 129.48 11.392 129.575C11.612 129.669 11.8478 129.718 12.086 129.718C12.3241 129.718 12.5599 129.669 12.78 129.575C13 129.48 13.1999 129.341 13.3683 129.166C13.5367 128.991 13.6703 128.783 13.7614 128.554C13.8526 128.325 13.8995 128.08 13.8995 127.833C13.8995 127.333 13.7084 126.853 13.3683 126.499C13.0282 126.146 12.5669 125.947 12.086 125.947C11.605 125.947 11.1437 126.146 10.8036 126.499C10.4635 126.853 10.2725 127.333 10.2725 127.833Z" fill="#FFD997"/>
<path d="M4.04932 117.341C4.04932 117.972 4.2905 118.578 4.7198 119.024C5.1491 119.471 5.73135 119.721 6.33848 119.721C6.9456 119.721 7.52786 119.471 7.95716 119.024C8.38646 118.578 8.62764 117.972 8.62764 117.341C8.62764 116.71 8.38646 116.105 7.95716 115.658C7.52786 115.212 6.9456 114.961 6.33848 114.961C5.73135 114.961 5.1491 115.212 4.7198 115.658C4.2905 116.105 4.04932 116.71 4.04932 117.341Z" fill="#FFD997"/>
<path d="M49.4131 97.8056C49.4131 98.1514 49.5452 98.4831 49.7804 98.7276C50.0156 98.9721 50.3345 99.1095 50.6671 99.1095C50.9997 99.1095 51.3187 98.9721 51.5539 98.7276C51.7891 98.4831 51.9212 98.1514 51.9212 97.8056C51.9212 97.4598 51.7891 97.1281 51.5539 96.8836C51.3187 96.6391 50.9997 96.5017 50.6671 96.5017C50.3345 96.5017 50.0156 96.6391 49.7804 96.8836C49.5452 97.1281 49.4131 97.4598 49.4131 97.8056Z" fill="#FFD997"/>
<path d="M42.5576 87.5582C42.5576 87.863 42.6153 88.1647 42.7275 88.4463C42.8397 88.7278 43.004 88.9836 43.2113 89.1991C43.4185 89.4145 43.6646 89.5855 43.9353 89.7021C44.2061 89.8187 44.4963 89.8787 44.7894 89.8787C45.0825 89.8787 45.3727 89.8187 45.6435 89.7021C45.9142 89.5855 46.1603 89.4145 46.3675 89.1991C46.5747 88.9836 46.7391 88.7278 46.8513 88.4463C46.9634 88.1647 47.0212 87.863 47.0212 87.5582C47.0212 87.2535 46.9634 86.9518 46.8513 86.6702C46.7391 86.3887 46.5747 86.1329 46.3675 85.9174C46.1603 85.702 45.9142 85.531 45.6435 85.4144C45.3727 85.2978 45.0825 85.2378 44.7894 85.2378C44.4963 85.2378 44.2061 85.2978 43.9353 85.4144C43.6646 85.531 43.4185 85.702 43.2113 85.9174C43.004 86.1329 42.8397 86.3887 42.7275 86.6702C42.6153 86.9518 42.5576 87.2535 42.5576 87.5582Z" fill="#FFD997"/>
<path d="M86.2036 129.637C86.2036 130.368 86.4831 131.069 86.9805 131.587C87.4779 132.104 88.1525 132.394 88.8559 132.394C89.5594 132.394 90.234 132.104 90.7314 131.587C91.2288 131.069 91.5082 130.368 91.5082 129.637C91.5082 128.905 91.2288 128.204 90.7314 127.687C90.234 127.169 89.5594 126.879 88.8559 126.879C88.1525 126.879 87.4779 127.169 86.9805 127.687C86.4831 128.204 86.2036 128.905 86.2036 129.637Z" fill="#FFD997"/>
<path d="M100.362 110.825C100.362 111.353 100.564 111.859 100.923 112.233C101.282 112.606 101.769 112.816 102.277 112.816C102.785 112.816 103.272 112.606 103.631 112.233C103.99 111.859 104.192 111.353 104.192 110.825C104.192 110.297 103.99 109.791 103.631 109.417C103.272 109.044 102.785 108.834 102.277 108.834C101.769 108.834 101.282 109.044 100.923 109.417C100.564 109.791 100.362 110.297 100.362 110.825Z" fill="#FFD997"/>
<path d="M119.089 116.462C119.089 116.99 119.291 117.496 119.65 117.87C120.009 118.243 120.496 118.453 121.004 118.453C121.511 118.453 121.998 118.243 122.357 117.87C122.717 117.496 122.918 116.99 122.918 116.462C122.918 115.934 122.717 115.428 122.357 115.054C121.998 114.681 121.511 114.471 121.004 114.471C120.496 114.471 120.009 114.681 119.65 115.054C119.291 115.428 119.089 115.934 119.089 116.462Z" fill="#FFD997"/>
<path d="M110.678 107.637C110.678 108.058 110.839 108.462 111.125 108.759C111.412 109.057 111.8 109.224 112.205 109.224C112.61 109.224 112.998 109.057 113.284 108.759C113.571 108.462 113.731 108.058 113.731 107.637C113.731 107.216 113.571 106.812 113.284 106.515C112.998 106.217 112.61 106.05 112.205 106.05C111.8 106.05 111.412 106.217 111.125 106.515C110.839 106.812 110.678 107.216 110.678 107.637Z" fill="#FFD997"/>
<path d="M102.637 101.902C102.637 102.323 102.798 102.726 103.084 103.024C103.371 103.322 103.759 103.489 104.164 103.489C104.569 103.489 104.957 103.322 105.243 103.024C105.53 102.726 105.69 102.323 105.69 101.902C105.69 101.481 105.53 101.077 105.243 100.779C104.957 100.482 104.569 100.314 104.164 100.314C103.759 100.314 103.371 100.482 103.084 100.779C102.798 101.077 102.637 101.481 102.637 101.902Z" fill="#FFD997"/>
<path d="M141.52 114.961C141.52 115.489 141.722 115.995 142.081 116.369C142.44 116.742 142.927 116.952 143.435 116.952C143.943 116.952 144.43 116.742 144.789 116.369C145.148 115.995 145.349 115.489 145.349 114.961C145.349 114.433 145.148 113.927 144.789 113.553C144.43 113.18 143.943 112.97 143.435 112.97C142.927 112.97 142.44 113.18 142.081 113.553C141.722 113.927 141.52 114.433 141.52 114.961Z" fill="#FFD997"/>
<path d="M119.084 96.037C119.084 96.565 119.286 97.0714 119.645 97.4447C120.004 97.818 120.491 98.0278 120.999 98.0278C121.507 98.0278 121.994 97.818 122.353 97.4447C122.712 97.0714 122.914 96.565 122.914 96.037C122.914 95.509 122.712 95.0027 122.353 94.6293C121.994 94.256 121.507 94.0463 120.999 94.0463C120.491 94.0463 120.004 94.256 119.645 94.6293C119.286 95.0027 119.084 95.509 119.084 96.037Z" fill="#FFD997"/>
<path d="M111.21 71.2758C111.21 71.8038 111.412 72.3101 111.771 72.6835C112.13 73.0568 112.617 73.2666 113.125 73.2666C113.632 73.2666 114.119 73.0568 114.479 72.6835C114.838 72.3101 115.039 71.8038 115.039 71.2758C115.039 70.7478 114.838 70.2415 114.479 69.8681C114.119 69.4948 113.632 69.285 113.125 69.285C112.617 69.285 112.13 69.4948 111.771 69.8681C111.412 70.2415 111.21 70.7478 111.21 71.2758Z" fill="#FFD997"/>
<path d="M95.2515 50.7951C95.2515 51.22 95.4138 51.6275 95.7028 51.928C95.9918 52.2284 96.3837 52.3972 96.7924 52.3972C97.2011 52.3972 97.5931 52.2284 97.882 51.928C98.171 51.6275 98.3334 51.22 98.3334 50.7951C98.3334 50.3701 98.171 49.9626 97.882 49.6621C97.5931 49.3617 97.2011 49.1929 96.7924 49.1929C96.3837 49.1929 95.9918 49.3617 95.7028 49.6621C95.4138 49.9626 95.2515 50.3701 95.2515 50.7951Z" fill="#FFD997"/>
<path d="M75.8501 61.2026C75.8501 61.4131 75.89 61.6214 75.9674 61.8158C76.0448 62.0102 76.1583 62.1868 76.3014 62.3356C76.4445 62.4843 76.6144 62.6024 76.8014 62.6829C76.9883 62.7634 77.1887 62.8048 77.3911 62.8048C77.5934 62.8048 77.7938 62.7634 77.9808 62.6829C78.1677 62.6024 78.3376 62.4843 78.4807 62.3356C78.6238 62.1868 78.7373 62.0102 78.8147 61.8158C78.8922 61.6214 78.932 61.4131 78.932 61.2026C78.932 60.9922 78.8922 60.7839 78.8147 60.5895C78.7373 60.3951 78.6238 60.2185 78.4807 60.0697C78.3376 59.921 78.1677 59.8029 77.9808 59.7224C77.7938 59.6419 77.5934 59.6005 77.3911 59.6005C77.1887 59.6005 76.9883 59.6419 76.8014 59.7224C76.6144 59.8029 76.4445 59.921 76.3014 60.0697C76.1583 60.2185 76.0448 60.3951 75.9674 60.5895C75.89 60.7839 75.8501 60.9922 75.8501 61.2026Z" fill="#FFD997"/>
<path d="M54.5322 58.7872C54.5322 59.4182 54.7733 60.0234 55.2025 60.4696C55.6316 60.9158 56.2137 61.1665 56.8206 61.1665C57.4276 61.1665 58.0096 60.9158 58.4388 60.4696C58.8679 60.0234 59.109 59.4182 59.109 58.7872C59.109 58.1561 58.8679 57.5509 58.4388 57.1047C58.0096 56.6585 57.4276 56.4078 56.8206 56.4078C56.2137 56.4078 55.6316 56.6585 55.2025 57.1047C54.7733 57.5509 54.5322 58.1561 54.5322 58.7872Z" fill="#FFD997"/>
<path d="M142.961 16.4882C142.961 17.1193 143.203 17.7245 143.632 18.1707C144.061 18.6169 144.643 18.8676 145.25 18.8676C145.857 18.8676 146.439 18.6169 146.868 18.1707C147.297 17.7245 147.538 17.1193 147.538 16.4882C147.538 15.8572 147.297 15.252 146.868 14.8058C146.439 14.3596 145.857 14.1089 145.25 14.1089C144.643 14.1089 144.061 14.3596 143.632 14.8058C143.203 15.252 142.961 15.8572 142.961 16.4882Z" fill="#FFD997"/>
<path d="M136.812 33.0871C136.812 33.5676 136.996 34.0284 137.322 34.3682C137.649 34.7079 138.092 34.8988 138.555 34.8988C139.017 34.8988 139.46 34.7079 139.787 34.3682C140.114 34.0284 140.297 33.5676 140.297 33.0871C140.297 32.6065 140.114 32.1457 139.787 31.8059C139.46 31.4662 139.017 31.2753 138.555 31.2753C138.092 31.2753 137.649 31.4662 137.322 31.8059C136.996 32.1457 136.812 32.6065 136.812 33.0871Z" fill="#FFD997"/>
<path d="M143.741 53.5653C143.741 53.9347 143.882 54.2889 144.134 54.55C144.385 54.8112 144.725 54.9579 145.081 54.9579C145.436 54.9579 145.776 54.8112 146.028 54.55C146.279 54.2889 146.42 53.9347 146.42 53.5653C146.42 53.196 146.279 52.8418 146.028 52.5806C145.776 52.3194 145.436 52.1727 145.081 52.1727C144.725 52.1727 144.385 52.3194 144.134 52.5806C143.882 52.8418 143.741 53.196 143.741 53.5653Z" fill="#FFD997"/>
<path d="M6.04932 28.0647C6.04932 28.272 6.08859 28.4773 6.16489 28.6688C6.24119 28.8604 6.35303 29.0344 6.49402 29.181C6.63501 29.3276 6.80238 29.4439 6.98659 29.5232C7.1708 29.6025 7.36823 29.6434 7.56762 29.6434C7.76701 29.6434 7.96444 29.6025 8.14865 29.5232C8.33286 29.4439 8.50024 29.3276 8.64123 29.181C8.78221 29.0344 8.89405 28.8604 8.97035 28.6688C9.04665 28.4773 9.08593 28.272 9.08593 28.0647C9.08593 27.646 8.92596 27.2445 8.64123 26.9485C8.35649 26.6524 7.9703 26.4861 7.56762 26.4861C7.16494 26.4861 6.77876 26.6524 6.49402 26.9485C6.20928 27.2445 6.04932 27.646 6.04932 28.0647Z" fill="#FFD997"/>
<path d="M7.75293 17.7285C7.75293 17.9358 7.7922 18.1411 7.8685 18.3327C7.94481 18.5242 8.05664 18.6982 8.19763 18.8448C8.33862 18.9914 8.506 19.1077 8.6902 19.187C8.87441 19.2663 9.07185 19.3072 9.27124 19.3072C9.47062 19.3072 9.66806 19.2663 9.85227 19.187C10.0365 19.1077 10.2039 18.9914 10.3448 18.8448C10.4858 18.6982 10.5977 18.5242 10.674 18.3327C10.7503 18.1411 10.7895 17.9358 10.7895 17.7285C10.7895 17.5212 10.7503 17.3159 10.674 17.1244C10.5977 16.9329 10.4858 16.7589 10.3448 16.6123C10.2039 16.4657 10.0365 16.3494 9.85227 16.2701C9.66806 16.1907 9.47062 16.1499 9.27124 16.1499C9.07185 16.1499 8.87441 16.1907 8.6902 16.2701C8.506 16.3494 8.33862 16.4657 8.19763 16.6123C8.05664 16.7589 7.94481 16.9329 7.8685 17.1244C7.7922 17.3159 7.75293 17.5212 7.75293 17.7285Z" fill="#FFD997"/>
<path d="M14.0835 8.32351C14.0835 8.53082 14.1228 8.7361 14.1991 8.92763C14.2754 9.11915 14.3872 9.29318 14.5282 9.43977C14.6692 9.58636 14.8366 9.70264 15.0208 9.78198C15.205 9.86131 15.4024 9.90214 15.6018 9.90214C15.8012 9.90214 15.9986 9.86131 16.1828 9.78198C16.367 9.70264 16.5344 9.58636 16.6754 9.43977C16.8164 9.29318 16.9282 9.11915 17.0045 8.92763C17.0808 8.7361 17.1201 8.53082 17.1201 8.32351C17.1201 8.1162 17.0808 7.91092 17.0045 7.71939C16.9282 7.52786 16.8164 7.35383 16.6754 7.20724C16.5344 7.06065 16.367 6.94437 16.1828 6.86504C15.9986 6.78571 15.8012 6.74487 15.6018 6.74487C15.4024 6.74487 15.205 6.78571 15.0208 6.86504C14.8366 6.94437 14.6692 7.06065 14.5282 7.20724C14.3872 7.35383 14.2754 7.52786 14.1991 7.71939C14.1228 7.91092 14.0835 8.1162 14.0835 8.32351Z" fill="#FFD997"/>
<path d="M5.11035 77.8203C5.11035 78.0276 5.14962 78.2329 5.22593 78.4244C5.30223 78.616 5.41406 78.79 5.55505 78.9366C5.69604 79.0832 5.86342 79.1995 6.04763 79.2788C6.23184 79.3581 6.42927 79.399 6.62866 79.399C6.82804 79.399 7.02548 79.3581 7.20969 79.2788C7.3939 79.1995 7.56127 79.0832 7.70226 78.9366C7.84325 78.79 7.95509 78.616 8.03139 78.4244C8.10769 78.2329 8.14696 78.0276 8.14696 77.8203C8.14696 77.4016 7.987 77.0001 7.70226 76.7041C7.41752 76.408 7.03134 76.2417 6.62866 76.2417C6.22598 76.2417 5.83979 76.408 5.55505 76.7041C5.27032 77.0001 5.11035 77.4016 5.11035 77.8203Z" fill="#FFD997"/>
<path d="M51.4336 26.5747C51.4336 26.9934 51.5936 27.3949 51.8783 27.691C52.163 27.987 52.5492 28.1534 52.9519 28.1534C53.3546 28.1534 53.7408 27.987 54.0255 27.691C54.3102 27.3949 54.4702 26.9934 54.4702 26.5747C54.4702 26.156 54.3102 25.7545 54.0255 25.4585C53.7408 25.1624 53.3546 24.9961 52.9519 24.9961C52.5492 24.9961 52.163 25.1624 51.8783 25.4585C51.5936 25.7545 51.4336 26.156 51.4336 26.5747Z" fill="#FFD997"/>
<path d="M65.7222 18.9696C65.7222 19.3883 65.8821 19.7898 66.1669 20.0859C66.4516 20.3819 66.8378 20.5483 67.2405 20.5483C67.6432 20.5483 68.0293 20.3819 68.3141 20.0859C68.5988 19.7898 68.7588 19.3883 68.7588 18.9696C68.7588 18.5509 68.5988 18.1494 68.3141 17.8534C68.0293 17.5573 67.6432 17.391 67.2405 17.391C66.8378 17.391 66.4516 17.5573 66.1669 17.8534C65.8821 18.1494 65.7222 18.5509 65.7222 18.9696Z" fill="#FFD997"/>
<path d="M61.0239 33.4545C61.0239 33.8732 61.1839 34.2747 61.4686 34.5708C61.7534 34.8668 62.1396 35.0331 62.5422 35.0331C62.9449 35.0331 63.3311 34.8668 63.6158 34.5708C63.9006 34.2747 64.0605 33.8732 64.0605 33.4545C64.0605 33.0358 63.9006 32.6343 63.6158 32.3382C63.3311 32.0422 62.9449 31.8759 62.5422 31.8759C62.1396 31.8759 61.7534 32.0422 61.4686 32.3382C61.1839 32.6343 61.0239 33.0358 61.0239 33.4545Z" fill="#FFD997"/>
<path d="M73.3911 39.5524C73.3911 39.9711 73.5511 40.3726 73.8358 40.6687C74.1205 40.9647 74.5067 41.131 74.9094 41.131C75.3121 41.131 75.6983 40.9647 75.983 40.6687C76.2678 40.3726 76.4277 39.9711 76.4277 39.5524C76.4277 39.1337 76.2678 38.7322 75.983 38.4361C75.6983 38.1401 75.3121 37.9738 74.9094 37.9738C74.5067 37.9738 74.1205 38.1401 73.8358 38.4361C73.5511 38.7322 73.3911 39.1337 73.3911 39.5524Z" fill="#FFD997"/>
<path d="M82.1089 30.8231C82.1089 31.2418 82.2689 31.6434 82.5536 31.9394C82.8383 32.2355 83.2245 32.4018 83.6272 32.4018C84.0299 32.4018 84.4161 32.2355 84.7008 31.9394C84.9855 31.6434 85.1455 31.2418 85.1455 30.8231C85.1455 30.4045 84.9855 30.0029 84.7008 29.7069C84.4161 29.4108 84.0299 29.2445 83.6272 29.2445C83.2245 29.2445 82.8383 29.4108 82.5536 29.7069C82.2689 30.0029 82.1089 30.4045 82.1089 30.8231Z" fill="#FFD997"/>
<path d="M81.7783 17.424C81.7783 17.8427 81.9383 18.2442 82.223 18.5402C82.5078 18.8363 82.8939 19.0026 83.2966 19.0026C83.6993 19.0026 84.0855 18.8363 84.3702 18.5402C84.655 18.2442 84.8149 17.8427 84.8149 17.424C84.8149 17.0053 84.655 16.6038 84.3702 16.3077C84.0855 16.0117 83.6993 15.8453 83.2966 15.8453C82.8939 15.8453 82.5078 16.0117 82.223 16.3077C81.9383 16.6038 81.7783 17.0053 81.7783 17.424Z" fill="#FFD997"/>
<path d="M73.3105 12.8145C73.3105 13.2332 73.4705 13.6347 73.7552 13.9307C74.04 14.2268 74.4262 14.3931 74.8289 14.3931C75.2315 14.3931 75.6177 14.2268 75.9025 13.9307C76.1872 13.6347 76.3472 13.2332 76.3472 12.8145C76.3472 12.3958 76.1872 11.9943 75.9025 11.6982C75.6177 11.4022 75.2315 11.2358 74.8289 11.2358C74.4262 11.2358 74.04 11.4022 73.7552 11.6982C73.4705 11.9943 73.3105 12.3958 73.3105 12.8145Z" fill="#FFD997"/>
<path d="M60.4741 84.8272C60.4741 87.3203 60.9524 89.7889 61.8818 92.0922C62.8111 94.3955 64.1732 96.4884 65.8904 98.2512C67.6075 100.014 69.6461 101.412 71.8897 102.367C74.1332 103.321 76.5379 103.812 78.9663 103.812C81.3948 103.812 83.7994 103.321 86.043 102.367C88.2866 101.412 90.3251 100.014 92.0423 98.2512C93.7595 96.4884 95.1216 94.3955 96.0509 92.0922C96.9802 89.7889 97.4585 87.3203 97.4585 84.8272C97.4585 82.3341 96.9802 79.8655 96.0509 77.5622C95.1216 75.2589 93.7595 73.1661 92.0423 71.4032C90.3251 69.6403 88.2866 68.2419 86.043 67.2879C83.7994 66.3338 81.3948 65.8428 78.9663 65.8428C76.5379 65.8428 74.1332 66.3338 71.8897 67.2879C69.6461 68.2419 67.6075 69.6403 65.8904 71.4032C64.1732 73.1661 62.8111 75.2589 61.8818 77.5622C60.9524 79.8655 60.4741 82.3341 60.4741 84.8272Z" fill="white"/>
<path d="M78.9674 101.452C75.8134 101.411 72.7413 100.402 70.1377 98.5504C67.5342 96.699 65.5154 94.0882 64.3354 91.0467C63.1554 88.0052 62.8669 84.6688 63.5062 81.4573C64.1455 78.2457 65.684 75.3025 67.9282 72.9978C70.1724 70.6932 73.022 69.1301 76.1185 68.5053C79.215 67.8804 82.4201 68.2217 85.3305 69.4861C88.241 70.7506 90.7267 72.8818 92.475 75.6115C94.2234 78.3413 95.1562 81.5477 95.1561 84.8273C95.1248 89.2623 93.4028 93.5034 90.3679 96.62C87.333 99.7366 83.233 101.474 78.9674 101.452ZM78.9674 68.9876C75.9627 69.0281 73.0366 69.9916 70.5572 71.7568C68.0778 73.522 66.1558 76.0101 65.033 78.9082C63.9101 81.8062 63.6366 84.9848 64.2467 88.0441C64.8569 91.1034 66.3235 93.9067 68.4621 96.1016C70.6007 98.2964 73.3157 99.7848 76.2658 100.379C79.2158 100.974 82.2691 100.648 85.0416 99.4432C87.814 98.2381 90.1819 96.2076 91.8472 93.6069C93.5126 91.0063 94.4012 87.9517 94.4011 84.8273C94.3698 80.6005 92.7273 76.5591 89.834 73.5897C86.9407 70.6202 83.0328 68.9652 78.9674 68.9876Z" fill="black"/>
<path fill-rule="evenodd" clip-rule="evenodd" d="M74.0737 78.7003L73.9371 91.1904L69.9575 91.236L69.9106 94.1342L73.4501 94.0879L73.4984 97.5309L75.6705 97.4948V94.1138L77.9899 94.0926V97.6478L80.0661 97.5882V93.9466C80.0661 93.9466 86.3477 93.3186 86.6777 89.9117C87.2258 84.2597 80.3138 84.7809 80.3138 84.7809C80.3138 84.7809 85.6743 84.4214 85.5074 80.0709C85.3459 75.8759 80.0661 75.6019 80.0661 75.6019V72.0066L77.9899 72.0655L78.1152 75.6561L76.0231 75.6867L75.931 72.0757H73.8374L73.9718 75.6474L70.0337 75.8225L70.0669 78.8746L74.0737 78.7003ZM77.9899 78.3973L78.082 82.5193C78.082 82.5193 82.1734 82.0224 82.1416 80.527C82.0948 78.2968 77.9899 78.3973 77.9899 78.3973ZM78.1175 87.3306L78.193 91.4911C78.193 91.4911 82.6301 91.1127 82.5992 89.6165C82.5539 87.3847 78.1152 87.3306 78.1152 87.3306H78.1175Z" fill="#81F8F8"/>
<path d="M77.9903 98.0403C77.8902 98.0403 77.7941 97.9989 77.7233 97.9253C77.6525 97.8517 77.6128 97.7519 77.6128 97.6478V94.496H76.0469V97.4955C76.0469 97.5984 76.0081 97.6972 75.9387 97.7706C75.8694 97.844 75.7751 97.8862 75.6762 97.888L73.4973 97.9249C73.3979 97.9249 73.3026 97.8842 73.2319 97.8116C73.1613 97.739 73.121 97.6404 73.1198 97.5371L73.0775 94.4858L69.9148 94.5266C69.8643 94.5273 69.8143 94.5174 69.7675 94.4976C69.7208 94.4777 69.6784 94.4483 69.6428 94.4112C69.6071 94.374 69.5791 94.3298 69.5602 94.2811C69.5413 94.2324 69.532 94.1803 69.5328 94.1279L69.5796 91.2296C69.5813 91.1276 69.6213 91.0303 69.6909 90.9583C69.7605 90.8863 69.8544 90.8454 69.9525 90.8442L73.563 90.8026L73.6913 79.11L70.0824 79.267C70.0319 79.2692 69.9815 79.2609 69.9341 79.2424C69.8868 79.224 69.8435 79.1959 69.8068 79.1597C69.7701 79.1235 69.7408 79.0801 69.7205 79.0319C69.7003 78.9837 69.6896 78.9318 69.689 78.8792L69.6588 75.8311C69.6576 75.7291 69.6945 75.6306 69.7619 75.5565C69.8293 75.4823 69.9217 75.4384 70.0197 75.4339L73.5826 75.2769L73.4633 72.0961C73.4614 72.0433 73.4697 71.9906 73.4878 71.9413C73.5059 71.8919 73.5334 71.8469 73.5687 71.8088C73.6039 71.7708 73.6462 71.7405 73.6929 71.7199C73.7397 71.6992 73.79 71.6886 73.8408 71.6886H75.9359C76.0344 71.6886 76.1289 71.7286 76.1994 71.8C76.27 71.8714 76.3109 71.9686 76.3134 72.0709L76.395 75.2934L77.7283 75.273L77.6158 72.0819C77.6139 72.0301 77.6219 71.9783 77.6393 71.9297C77.6568 71.881 77.6833 71.8365 77.7175 71.7986C77.7516 71.7607 77.7926 71.7302 77.8381 71.7089C77.8837 71.6876 77.9328 71.6759 77.9827 71.6745L80.0582 71.6156C80.1087 71.6142 80.1589 71.6232 80.2059 71.6423C80.253 71.6614 80.2958 71.69 80.332 71.7266C80.3682 71.7632 80.3969 71.807 80.4166 71.8553C80.4362 71.9037 80.4463 71.9557 80.4463 72.0081V75.2431C81.689 75.4001 85.7403 76.2228 85.8876 80.052C85.9804 82.4949 84.435 83.8718 82.7989 84.5721C85.6724 85.1592 87.3477 86.949 87.0556 89.9485C86.7415 93.189 81.8144 94.1012 80.4463 94.2927V97.5897C80.4463 97.6921 80.4079 97.7904 80.3392 97.8637C80.2705 97.937 80.177 97.9796 80.0786 97.9822L77.9903 98.0403ZM77.9903 93.7C78.0904 93.7 78.1864 93.7414 78.2572 93.815C78.328 93.8886 78.3678 93.9884 78.3678 94.0925V97.2435L79.6883 97.2058V93.941C79.6878 93.8431 79.7226 93.7486 79.7857 93.676C79.8489 93.6034 79.9358 93.5579 80.0295 93.5485C80.0892 93.543 86.0069 92.9135 86.3021 89.8669C86.3916 89.3056 86.3578 88.7306 86.2031 88.1849C86.0484 87.6391 85.7769 87.1369 85.4089 86.7159C83.7834 84.9755 80.5233 85.1561 80.3504 85.1663H80.3164C80.2163 85.1701 80.1189 85.1323 80.0455 85.0613C79.9722 84.9904 79.9289 84.892 79.9253 84.7879C79.9217 84.6838 79.9581 84.5825 80.0263 84.5063C80.0945 84.43 80.1891 84.3851 80.2892 84.3813H80.3021C80.6222 84.357 85.2806 83.9401 85.1341 80.0771C84.9891 76.2934 80.2523 75.9951 80.0507 75.9842C79.954 75.9789 79.8629 75.9353 79.7963 75.8622C79.7297 75.7892 79.6927 75.6923 79.6928 75.5917V72.4101L78.3859 72.4469L78.4991 75.6443C78.501 75.6966 78.4927 75.7488 78.4748 75.7977C78.4569 75.8467 78.4298 75.8914 78.3951 75.9293C78.3603 75.9672 78.3186 75.9975 78.2724 76.0183C78.2263 76.0392 78.1765 76.0503 78.1262 76.0509L76.0295 76.0815C75.9312 76.0815 75.8368 76.0417 75.7663 75.9705C75.6958 75.8992 75.6548 75.8022 75.652 75.7L75.5697 72.4721H74.2296L74.3489 75.6356C74.353 75.7395 74.3173 75.8408 74.2496 75.9173C74.182 75.9938 74.0879 76.0393 73.988 76.0438L70.4146 76.2008L70.4403 78.464L74.0582 78.307C74.1094 78.3048 74.1605 78.3136 74.2084 78.3326C74.2563 78.3517 74.2999 78.3807 74.3366 78.4179C74.3734 78.455 74.4024 78.4996 74.4221 78.5488C74.4417 78.598 74.4515 78.6509 74.4508 78.7042L74.3134 91.1943C74.3122 91.2968 74.2726 91.3947 74.2029 91.4672C74.1332 91.5396 74.039 91.5809 73.9405 91.5821L70.3285 91.6237L70.2946 93.7361L73.4452 93.6953C73.5438 93.6987 73.6377 93.7402 73.7083 93.8118C73.779 93.8834 73.8214 93.9799 73.8272 94.0823L73.8702 97.1328L75.2927 97.1085V94.1137C75.2926 94.0104 75.3318 93.9113 75.4016 93.8378C75.4714 93.7644 75.5663 93.7225 75.6656 93.7212L77.9903 93.7ZM77.8166 91.4965L77.7411 87.336C77.7401 87.2835 77.7493 87.2312 77.7681 87.1824C77.7869 87.1336 77.815 87.0892 77.8506 87.0519C77.8858 87.0141 77.928 86.9843 77.9748 86.9643C78.0216 86.9443 78.0718 86.9345 78.1224 86.9357C78.3187 86.9357 82.925 87.0252 82.9793 89.6047C83.0163 91.3804 79.0269 91.8098 78.2228 91.8812C78.1715 91.8853 78.1199 91.8784 78.0713 91.861C78.0226 91.8436 77.9779 91.816 77.9399 91.78C77.9018 91.744 77.8713 91.7003 77.8501 91.6515C77.8289 91.6028 77.8175 91.55 77.8166 91.4965ZM78.5014 87.7395L78.5633 91.0569C80.2205 90.8599 82.2371 90.301 82.2228 89.6227C82.1918 88.26 79.8053 87.8235 78.5014 87.7395ZM77.7041 82.5279L77.6128 78.4059C77.6105 78.3019 77.6481 78.2013 77.7172 78.1261C77.7863 78.0509 77.8812 78.0072 77.9812 78.0047C79.8793 77.9796 82.4757 78.5323 82.5195 80.5168C82.555 82.2806 78.8653 82.8176 78.1247 82.9079C78.0726 82.9141 78.0199 82.909 77.9698 82.8929C77.9197 82.8767 77.8735 82.8499 77.8339 82.8142C77.7943 82.7785 77.7624 82.7346 77.74 82.6853C77.7177 82.636 77.7055 82.5824 77.7041 82.5279ZM78.3761 78.7937L78.4516 82.0703C79.9253 81.8348 81.7811 81.2437 81.7668 80.5348C81.7388 79.2027 79.6354 78.8431 78.3761 78.796V78.7937Z" fill="black"/>
<path d="M65.9063 82.9275H69.3536C69.3536 82.9275 69.7311 82.9275 69.7311 83.32V86.9043C69.7311 86.9043 69.7311 87.2968 69.3536 87.2968H65.9063C65.9063 87.2968 65.5288 87.2968 65.5288 86.9043V83.32C65.5288 83.32 65.5288 82.9275 65.9063 82.9275Z" fill="black"/>
<path d="M88.4127 82.9275H91.8607C91.8607 82.9275 92.2382 82.9275 92.2382 83.32V86.9043C92.2382 86.9043 92.2382 87.2968 91.8607 87.2968H88.4127C88.4127 87.2968 88.0352 87.2968 88.0352 86.9043V83.32C88.0352 83.32 88.0352 82.9275 88.4127 82.9275Z" fill="black"/>
<path d="M109.839 30.7862C109.839 32.1178 110.091 33.4363 110.581 34.6666C111.071 35.8968 111.79 37.0146 112.695 37.9562C113.601 38.8977 114.676 39.6446 115.859 40.1542C117.042 40.6638 118.311 40.9261 119.591 40.9261C120.872 40.9261 122.14 40.6638 123.323 40.1542C124.506 39.6446 125.582 38.8977 126.487 37.9562C127.393 37.0146 128.111 35.8968 128.601 34.6666C129.091 33.4363 129.344 32.1178 129.344 30.7862C129.344 29.4546 129.091 28.1361 128.601 26.9059C128.111 25.6756 127.393 24.5578 126.487 23.6163C125.582 22.6747 124.506 21.9278 123.323 21.4182C122.14 20.9086 120.872 20.6464 119.591 20.6464C118.311 20.6464 117.042 20.9086 115.859 21.4182C114.676 21.9278 113.601 22.6747 112.695 23.6163C111.79 24.5578 111.071 25.6756 110.581 26.9059C110.091 28.1361 109.839 29.4546 109.839 30.7862Z" fill="#FFD997"/>
<path fill-rule="evenodd" clip-rule="evenodd" d="M117.992 31.5587C117.804 33.3344 116.987 34.6728 116.008 34.6728C114.891 34.6728 113.985 32.9317 113.985 30.7863C113.985 28.6409 114.891 26.9005 116.008 26.9005C116.979 26.9005 117.792 28.235 117.987 29.9903H124.519C124.722 29.9948 124.914 30.0816 125.055 30.2321C125.196 30.3826 125.275 30.5847 125.274 30.7949V32.5745C125.276 32.8172 125.185 33.0507 125.021 33.2236C124.857 33.3964 124.634 33.4944 124.4 33.4961C124.167 33.4977 123.942 33.4029 123.776 33.2324C123.61 33.062 123.515 32.8298 123.514 32.5871L123.5 31.5587H122.146V32.5745C122.142 32.8127 122.048 33.0396 121.884 33.2069C121.721 33.3742 121.502 33.4688 121.273 33.4705C121.044 33.4722 120.823 33.381 120.657 33.2162C120.492 33.0514 120.395 32.8259 120.387 32.5878L120.372 31.5587H117.992Z" fill="white"/>
<path d="M116.008 35.0652C114.662 35.0652 113.607 33.1859 113.607 30.7862C113.607 28.3864 114.664 26.5079 116.008 26.5079C117.101 26.5079 118.024 27.7726 118.316 29.5993H124.522C124.823 29.606 125.109 29.7349 125.32 29.9584C125.53 30.1818 125.648 30.482 125.648 30.7948V32.5744C125.651 32.9213 125.52 33.2549 125.286 33.5018C125.052 33.7488 124.733 33.8889 124.399 33.8913C124.066 33.8936 123.745 33.7582 123.507 33.5146C123.27 33.271 123.135 32.9393 123.133 32.5925L123.124 31.9511H122.52V32.5791C122.515 32.9206 122.382 33.2464 122.148 33.4868C121.915 33.7273 121.6 33.8632 121.272 33.8657C120.943 33.8682 120.627 33.7369 120.39 33.5C120.154 33.2631 120.016 32.9394 120.006 32.598L119.997 31.955H118.318C118.039 33.8022 117.114 35.0652 116.008 35.0652ZM116.008 27.2937C115.229 27.2937 114.362 28.7279 114.362 30.787C114.362 32.846 115.229 34.281 116.008 34.281C116.758 34.281 117.451 33.0925 117.617 31.5162C117.627 31.4198 117.671 31.3307 117.741 31.2662C117.811 31.2017 117.901 31.1663 117.994 31.1669H120.375C120.474 31.1669 120.569 31.2075 120.64 31.2799C120.71 31.3523 120.751 31.4508 120.752 31.5539L120.767 32.583C120.772 32.7181 120.828 32.8456 120.923 32.9387C121.017 33.0318 121.142 33.0833 121.272 33.0824C121.402 33.0815 121.527 33.0282 121.62 32.9338C121.713 32.8394 121.767 32.7111 121.772 32.576V31.5555C121.772 31.4514 121.811 31.3516 121.882 31.2779C121.953 31.2043 122.049 31.163 122.149 31.163H123.499C123.598 31.163 123.693 31.2036 123.764 31.276C123.835 31.3484 123.875 31.4468 123.876 31.55L123.89 32.5783C123.891 32.717 123.945 32.8496 124.04 32.947C124.135 33.0444 124.263 33.0986 124.396 33.0976C124.53 33.0967 124.657 33.0407 124.751 32.942C124.844 32.8433 124.897 32.7099 124.896 32.5713V30.7948C124.896 30.6888 124.857 30.5869 124.786 30.5101C124.716 30.4334 124.62 30.3877 124.518 30.3827H117.986C117.892 30.378 117.803 30.3384 117.734 30.2712C117.666 30.2039 117.623 30.1134 117.613 30.0161C117.439 28.4634 116.749 27.2929 116.008 27.2929V27.2937Z" fill="black"/>
<path d="M22.125 134.851C22.125 136.183 22.3773 137.502 22.8674 138.732C23.3575 139.962 24.0758 141.08 24.9814 142.021C25.887 142.963 26.9621 143.71 28.1453 144.219C29.3285 144.729 30.5966 144.991 31.8773 144.991C33.158 144.991 34.4262 144.729 35.6094 144.219C36.7926 143.71 37.8677 142.963 38.7733 142.021C39.6789 141.08 40.3972 139.962 40.8873 138.732C41.3774 137.502 41.6297 136.183 41.6297 134.851C41.6297 133.52 41.3774 132.201 40.8873 130.971C40.3972 129.741 39.6789 128.623 38.7733 127.681C37.8677 126.74 36.7926 125.993 35.6094 125.483C34.4262 124.974 33.158 124.712 31.8773 124.712C30.5966 124.712 29.3285 124.974 28.1453 125.483C26.9621 125.993 25.887 126.74 24.9814 127.681C24.0758 128.623 23.3575 129.741 22.8674 130.971C22.3773 132.201 22.125 133.52 22.125 134.851Z" fill="#81F8F8"/>
<path d="M28.1401 134.125H35.7717V140.211H28.1401V134.125Z" fill="#FFD997"/>
<path d="M35.7725 133.732H34.8612C34.8416 132.798 34.68 130.5 33.5913 129.327C33.3812 129.094 33.1265 128.908 32.8435 128.783C32.5604 128.657 32.2553 128.595 31.9477 128.599C31.6428 128.596 31.3405 128.657 31.0593 128.78C30.7781 128.902 30.5239 129.083 30.3123 129.312C29.1874 130.482 28.9662 132.803 28.9231 133.732H28.1402C28.0401 133.732 27.9441 133.773 27.8733 133.847C27.8025 133.921 27.7627 134.02 27.7627 134.124V140.211C27.7627 140.315 27.8025 140.415 27.8733 140.489C27.9441 140.562 28.0401 140.604 28.1402 140.604H35.7725C35.8726 140.604 35.9686 140.562 36.0394 140.489C36.1102 140.415 36.15 140.315 36.15 140.211V134.124C36.15 134.02 36.1102 133.921 36.0394 133.847C35.9686 133.773 35.8726 133.732 35.7725 133.732ZM33.213 133.732H30.5705C30.6264 132.476 30.9563 130.341 31.9295 130.342C32.9027 130.344 33.1851 132.485 33.213 133.732ZM35.395 139.819H28.5177V134.517H35.395V139.819Z" fill="black"/>
<path d="M33.0349 138.283L32.6408 137.341C32.8182 137.203 32.9492 137.01 33.0153 136.79C33.0813 136.57 33.0791 136.333 33.0089 136.115C32.9387 135.896 32.8041 135.706 32.6242 135.571C32.4442 135.436 32.228 135.363 32.0062 135.363C31.7844 135.363 31.5682 135.436 31.3883 135.571C31.2083 135.706 31.0737 135.896 31.0035 136.115C30.9334 136.333 30.9311 136.57 30.9972 136.79C31.0633 137.01 31.1943 137.203 31.3716 137.341L30.9783 138.283C30.9532 138.343 30.9428 138.408 30.9481 138.473C30.9534 138.538 30.9742 138.601 31.0086 138.656C31.043 138.71 31.0899 138.755 31.1451 138.786C31.2003 138.817 31.2621 138.833 31.3248 138.833H32.6884C32.7511 138.833 32.8129 138.817 32.8681 138.786C32.9233 138.755 32.9702 138.71 33.0046 138.656C33.039 138.601 33.0598 138.538 33.0651 138.473C33.0704 138.408 33.06 138.343 33.0349 138.283Z" fill="black"/>
<path d="M116.008 28.9736C115.404 28.9736 115.19 29.9101 115.19 30.7862C115.19 31.6623 115.405 32.5995 116.008 32.5995C116.611 32.5995 116.827 31.6623 116.827 30.7862C116.827 29.9101 116.611 28.9736 116.008 28.9736Z" fill="black"/>
<path d="M85.4414 62.3926C85.4414 62.5778 85.4765 62.7611 85.5446 62.9322C85.6128 63.1032 85.7127 63.2587 85.8386 63.3896C85.9645 63.5205 86.114 63.6243 86.2785 63.6952C86.443 63.766 86.6193 63.8025 86.7974 63.8025C86.9755 63.8025 87.1518 63.766 87.3163 63.6952C87.4808 63.6243 87.6303 63.5205 87.7562 63.3896C87.8821 63.2587 87.982 63.1032 88.0501 62.9322C88.1183 62.7611 88.1534 62.5778 88.1534 62.3926C88.1534 62.2075 88.1183 62.0242 88.0501 61.8531C87.982 61.6821 87.8821 61.5266 87.7562 61.3957C87.6303 61.2648 87.4808 61.161 87.3163 61.0901C87.1518 61.0193 86.9755 60.9828 86.7974 60.9828C86.6193 60.9828 86.443 61.0193 86.2785 61.0901C86.114 61.161 85.9645 61.2648 85.8386 61.3957C85.7127 61.5266 85.6128 61.6821 85.5446 61.8531C85.4765 62.0242 85.4414 62.2075 85.4414 62.3926Z" fill="#FFD997"/>
<path d="M134.91 48.9519L137.175 40.729L144.554 40.0571C144.646 40.0487 144.732 40.0057 144.795 39.9361C144.859 39.8666 144.895 39.7753 144.898 39.6795L145.6 19.2373C146.269 19.1464 146.879 18.7953 147.309 18.2548C147.739 17.7143 147.956 17.0246 147.916 16.3245C147.876 15.6245 147.583 14.9661 147.095 14.482C146.607 13.9979 145.96 13.7241 145.286 13.7157C144.612 13.7073 143.959 13.9649 143.46 14.4367C142.961 14.9084 142.652 15.5593 142.597 16.2582C142.541 16.957 142.741 17.652 143.159 18.203C143.576 18.7541 144.178 19.1203 144.845 19.2279L144.155 39.305L137.398 39.9213L138.672 35.2898C139.2 35.2605 139.699 35.0268 140.07 34.6346C140.442 34.2425 140.658 33.7201 140.678 33.1703C140.697 32.6204 140.519 32.0828 140.176 31.6632C139.834 31.2435 139.353 30.972 138.828 30.9022C138.303 30.8323 137.772 30.9691 137.34 31.2856C136.907 31.6022 136.603 32.0756 136.489 32.6128C136.375 33.1501 136.458 33.7123 136.722 34.1891C136.986 34.6658 137.413 35.0226 137.917 35.1893L134.259 48.4636L125.508 48.8483L123.49 40.5077C125.17 39.7798 126.63 38.5951 127.717 37.0779C128.804 35.5608 129.478 33.7673 129.668 31.8858C129.857 30.0043 129.557 28.1044 128.796 26.3856C128.036 24.6668 126.845 23.1927 125.347 22.118C123.85 21.0434 122.102 20.4079 120.286 20.2784C118.471 20.1489 116.656 20.5301 115.031 21.3821C113.407 22.234 112.033 23.5251 111.054 25.1198C110.075 26.7145 109.527 28.5539 109.469 30.4447H108.239L95.9238 17.1194C95.8885 17.0813 95.8462 17.051 95.7994 17.0304C95.7525 17.0097 95.7022 16.9992 95.6513 16.9993H85.1477C85.0463 16.5226 84.7783 16.102 84.3955 15.8192C84.0128 15.5364 83.5427 15.4114 83.0764 15.4686C82.6101 15.5257 82.1808 15.7609 81.8718 16.1285C81.5628 16.4961 81.3961 16.9699 81.4041 17.4581C81.4121 17.9462 81.5941 18.4138 81.915 18.7703C82.2358 19.1268 82.6725 19.3467 83.1404 19.3873C83.6084 19.4279 84.0741 19.2864 84.4474 18.9902C84.8206 18.694 85.0748 18.2643 85.1606 17.7843H95.4905L107.193 30.4447H101.564C93.0692 23.7542 93.5486 24.1051 93.4648 24.1043H75.3901V14.7024C75.7256 14.5947 76.0259 14.3925 76.2575 14.118C76.489 13.8436 76.6428 13.5077 76.7018 13.1478C76.7607 12.7879 76.7225 12.4181 76.5913 12.0794C76.4602 11.7407 76.2412 11.4466 75.9589 11.2295C75.6765 11.0125 75.3418 10.8812 74.9919 10.8502C74.642 10.8192 74.2908 10.8897 73.9771 11.0538C73.6635 11.218 73.3998 11.4694 73.2154 11.7801C73.031 12.0908 72.9331 12.4486 72.9326 12.8136C72.9344 13.2997 73.108 13.7681 73.4202 14.1299C73.7324 14.4917 74.1615 14.7217 74.626 14.7761V24.4395C74.6266 24.5506 74.666 24.6577 74.7368 24.7408C74.8077 24.824 74.9051 24.8776 75.0111 24.8917H93.3364L100.316 30.4479H85.4875C85.3971 29.9686 85.1388 29.5413 84.7625 29.2488C84.3863 28.9563 83.919 28.8196 83.4513 28.8651C82.9836 28.9106 82.5488 29.1351 82.2313 29.495C81.9137 29.8549 81.7361 30.3247 81.7328 30.8131C81.7295 31.3015 81.9008 31.7738 82.2135 32.1383C82.5261 32.5028 82.9578 32.7336 83.4249 32.7859C83.892 32.8382 84.361 32.7083 84.7412 32.4213C85.1213 32.1343 85.3854 31.7108 85.4822 31.2329H109.47C109.507 32.1498 109.659 33.0576 109.923 33.9333L85.2919 45.9579C84.5505 44.4105 83.3142 43.1796 81.7953 42.4764C80.2764 41.7731 78.5694 41.6413 76.9672 42.1036C75.365 42.5659 73.9675 43.5935 73.0144 45.01C72.0612 46.4266 71.6119 48.1438 71.7435 49.8672L47.0489 50.905C46.4501 50.0393 45.7089 49.2904 44.8594 48.6929L51.0021 34.2575L55.4966 34.0722L57.7239 39.9385C57.7517 40.0117 57.8001 40.0745 57.8627 40.1187C57.9253 40.163 57.9992 40.1866 58.0749 40.1866L73.0564 39.9715C73.1564 40.4491 73.4235 40.8711 73.8059 41.1556C74.1882 41.4401 74.6586 41.5667 75.1256 41.511C75.5927 41.4553 76.0233 41.2212 76.3337 40.8541C76.6442 40.487 76.8125 40.0131 76.8059 39.5243C76.7993 39.0356 76.6184 38.5667 76.2981 38.2088C75.9779 37.8509 75.5412 37.6294 75.0728 37.5874C74.6044 37.5453 74.1377 37.6856 73.7631 37.9811C73.3886 38.2765 73.133 38.7061 73.0458 39.1865L58.3339 39.3937L56.2954 34.0393L60.6872 33.8587C60.7836 34.337 61.0473 34.761 61.4273 35.0485C61.8073 35.336 62.2765 35.4665 62.7438 35.4146C63.2111 35.3628 63.6432 35.1324 63.9564 34.7681C64.2695 34.4037 64.4414 33.9314 64.4385 33.4428C64.4357 32.9542 64.2585 32.4841 63.9411 32.1236C63.6238 31.7632 63.189 31.5382 62.7212 31.4922C62.2533 31.4463 61.7857 31.5826 61.409 31.8748C61.0324 32.167 60.7735 32.5943 60.6827 33.0737L50.7378 33.4835C50.667 33.4865 50.5984 33.5102 50.54 33.5518C50.4815 33.5935 50.4354 33.6514 50.4072 33.719L44.2101 48.2792C42.6091 47.3575 40.7674 46.99 38.9519 47.23C37.1365 47.4699 35.4418 48.3048 34.1135 49.6137L32.2056 44.8464C32.2811 44.7679 31.85 45.5372 41.8915 26.968H51.0934C51.187 27.4468 51.4483 27.8725 51.8267 28.1623C52.205 28.4522 52.6734 28.5856 53.141 28.5367C53.6086 28.4878 54.0421 28.2601 54.3573 27.8977C54.6725 27.5353 54.8471 27.0641 54.8471 26.5755C54.8471 26.0869 54.6725 25.6156 54.3573 25.2533C54.0421 24.8909 53.6086 24.6631 53.141 24.6142C52.6734 24.5653 52.205 24.6988 51.8267 24.9886C51.4483 25.2785 51.187 25.7041 51.0934 26.183H45.8553L50.1044 19.6424L65.3886 19.381C65.4868 19.8584 65.752 20.2809 66.1328 20.5665C66.5136 20.8521 66.9829 20.9805 67.4496 20.9268C67.9163 20.873 68.3472 20.6409 68.6586 20.2756C68.9701 19.9103 69.1399 19.4377 69.1352 18.9495C69.1305 18.4613 68.9516 17.9923 68.6332 17.6335C68.3148 17.2747 67.8795 17.0517 67.4119 17.0076C66.9443 16.9636 66.4776 17.1017 66.1023 17.3952C65.7271 17.6887 65.47 18.1166 65.3811 18.596L49.896 18.8605C49.8351 18.8615 49.7754 18.8778 49.7219 18.908C49.6684 18.9382 49.6227 18.9814 49.5887 19.034L44.9477 26.1822H41.6703C41.6034 26.1823 41.5377 26.2009 41.48 26.2361C41.4223 26.2713 41.3746 26.3217 41.3419 26.3824L31.8455 43.942L28.4653 35.5009C30.1627 35.3056 31.7226 34.4388 32.8219 33.08C33.9212 31.7213 34.4755 29.9749 34.3699 28.2027C34.2643 26.4306 33.5069 24.7687 32.2548 23.5614C31.0026 22.3541 29.3516 21.6941 27.6441 21.7181C25.9366 21.7421 24.3034 22.4483 23.0831 23.6904C21.8629 24.9325 21.149 26.6151 21.0896 28.3896C21.0301 30.164 21.6297 31.8942 22.7639 33.2215C23.8981 34.5489 25.4801 35.3715 27.1818 35.519L26.9478 38.2021L14.4646 38.531L11.4484 25.3006L15.8206 22.068C15.8696 22.0317 15.9095 21.9838 15.9371 21.9282C15.9647 21.8727 15.9791 21.8111 15.9792 21.7485V10.2553C16.4399 10.158 16.8495 9.88626 17.1284 9.49275C17.4073 9.09923 17.5357 8.61202 17.4887 8.12563C17.4417 7.63925 17.2226 7.18836 16.8739 6.86044C16.5252 6.53252 16.0718 6.35095 15.6017 6.35095C15.1315 6.35095 14.6781 6.53252 14.3294 6.86044C13.9807 7.18836 13.7616 7.63925 13.7146 8.12563C13.6676 8.61202 13.796 9.09923 14.0749 9.49275C14.3538 9.88626 14.7634 10.158 15.2242 10.2553V21.546L11.2612 24.474L10.1287 19.4854C10.5482 19.2651 10.874 18.8907 11.0431 18.4348C11.2121 17.9789 11.2122 17.474 11.0435 17.018C10.8747 16.5619 10.5491 16.1873 10.1297 15.9668C9.71035 15.7463 9.22716 15.6956 8.77387 15.8246C8.32059 15.9535 7.92952 16.2529 7.67652 16.6646C7.42352 17.0764 7.32663 17.5712 7.40463 18.053C7.48264 18.5348 7.72998 18.9694 8.09869 19.2723C8.4674 19.5753 8.93118 19.7251 9.40008 19.6926L13.5163 37.7578L9.27098 33.6436L8.25475 29.9007C8.69318 29.7248 9.05316 29.3858 9.26492 28.9496C9.47667 28.5134 9.52512 28.011 9.40086 27.5397C9.27661 27.0685 8.9885 26.662 8.59239 26.3991C8.19628 26.1361 7.72038 26.0354 7.25695 26.1166C6.79351 26.1977 6.37554 26.4548 6.08407 26.8381C5.7926 27.2214 5.64838 27.7036 5.67936 28.1911C5.71035 28.6787 5.91434 29.1369 6.25179 29.477C6.58924 29.8171 7.03612 30.0148 7.50579 30.0318L8.5726 33.9623C8.61639 34.1193 8.18453 33.7111 13.9142 39.2163C13.9542 39.2556 14.002 39.2852 14.0541 39.3032C14.1063 39.3213 14.1616 39.3272 14.2162 39.3207L26.8806 38.9863L22.4638 89.5199C21.3936 89.6347 20.3583 89.9806 19.4242 90.5357L17.3895 84.1937C17.365 84.1177 17.3188 84.0513 17.257 84.0035C17.1951 83.9556 17.1207 83.9286 17.0437 83.926L9.13055 83.6473L7.1902 79.7035C7.63726 79.5601 8.01763 79.2501 8.25833 78.833C8.49903 78.4159 8.58308 77.921 8.49437 77.4434C8.40565 76.9658 8.15041 76.5391 7.77764 76.2452C7.40486 75.9513 6.94082 75.8109 6.47456 75.8509C6.00831 75.8909 5.5727 76.1086 5.25133 76.4621C4.92997 76.8156 4.74549 77.28 4.73331 77.7663C4.72113 78.2526 4.8821 78.7264 5.18533 79.0968C5.48857 79.4672 5.91269 79.7081 6.37631 79.7734L8.56052 84.2102C8.59118 84.2725 8.63731 84.3251 8.69413 84.3627C8.75094 84.4002 8.81638 84.4213 8.88366 84.4237L16.756 84.7016L18.7674 90.9714C17.2394 92.0972 16.1533 93.7583 15.7084 95.6497C15.2636 97.5412 15.4898 99.5359 16.3455 101.268C17.2012 103 18.6291 104.353 20.367 105.078C22.1049 105.804 24.0361 105.853 25.8062 105.218L28.6639 121.938L18.5937 122.041L15.0709 116.781C15.0346 116.726 14.9851 116.682 14.9273 116.652C14.8694 116.623 14.8052 116.61 14.741 116.614L8.97577 116.928C8.87495 116.235 8.52507 115.606 7.99661 115.17C7.46815 114.734 6.80038 114.523 6.1278 114.578C5.45522 114.633 4.8278 114.952 4.37193 115.469C3.91605 115.986 3.66559 116.663 3.67098 117.365C3.67638 118.066 3.93724 118.74 4.40101 119.249C4.86479 119.759 5.49702 120.066 6.17037 120.111C6.84372 120.155 7.50815 119.932 8.02983 119.487C8.5515 119.042 8.89167 118.408 8.98181 117.713L14.5688 117.411L18.0856 122.661C18.1204 122.713 18.1667 122.755 18.2206 122.784C18.2745 122.814 18.3344 122.829 18.3952 122.829L24.3725 122.768L19.6613 127.217L14.2442 127.46C14.154 126.898 13.8645 126.392 13.4329 126.041C13.0012 125.69 12.4587 125.52 11.9125 125.565C11.3663 125.61 10.8561 125.866 10.4826 126.282C10.1091 126.699 9.89946 127.246 9.89507 127.816C9.89069 128.386 10.0919 128.936 10.4589 129.359C10.8259 129.782 11.3322 130.047 11.8776 130.101C12.423 130.154 12.9681 129.994 13.4051 129.65C13.8421 129.307 14.1393 128.805 14.2381 128.245L19.8297 127.994C19.918 127.99 20.0021 127.953 20.0675 127.891L25.5035 122.754L28.7923 122.721L29.132 124.711C26.5752 125.455 24.4015 127.213 23.0784 129.607C21.7553 132.001 21.3885 134.838 22.0568 137.51C22.7251 140.182 24.3752 142.475 26.6522 143.895C28.9293 145.315 31.6514 145.749 34.2332 145.104C36.8149 144.459 39.0502 142.787 40.4583 140.446C41.8664 138.106 42.3348 135.284 41.7628 132.588C41.1908 129.892 39.6241 127.537 37.3996 126.03C35.1751 124.522 32.4705 123.983 29.8674 124.527L26.5235 104.962L61.1266 122.437C60.6618 123.75 60.5145 125.162 60.6978 126.549C60.8812 127.935 61.3894 129.253 62.1779 130.388C62.9664 131.522 64.0109 132.437 65.2196 133.053C66.4282 133.669 67.764 133.967 69.1093 133.92C70.4546 133.873 71.7681 133.483 72.9344 132.785C74.1007 132.086 75.084 131.1 75.7977 129.913C76.5113 128.727 76.9336 127.376 77.0272 125.98C77.1208 124.583 76.883 123.185 76.3346 121.907L124.084 78.3329C125.045 79.3873 126.282 80.1259 127.642 80.4577C129.002 80.7894 130.426 80.6997 131.738 80.1996L139.023 102.616L123.878 102.856L122.238 98.0403C122.72 97.7148 123.067 97.2129 123.21 96.6339C123.352 96.055 123.281 95.4415 123.009 94.915C122.737 94.3884 122.284 93.9874 121.741 93.7914C121.198 93.5954 120.604 93.6188 120.077 93.8569C119.55 94.0949 119.128 94.5303 118.895 95.0767C118.662 95.6231 118.635 96.2405 118.82 96.8066C119.004 97.3726 119.386 97.8459 119.891 98.1326C120.395 98.4193 120.985 98.4984 121.542 98.3543L123.256 103.388C123.282 103.464 123.331 103.53 123.394 103.577C123.458 103.624 123.534 103.649 123.612 103.649L130.935 103.533L126.089 107.027L120.567 107.126L115.991 101.509C115.956 101.463 115.911 101.427 115.859 101.403C115.808 101.379 115.752 101.368 115.696 101.37L106.032 101.541C105.945 101.059 105.689 100.627 105.313 100.33C104.938 100.032 104.469 99.8906 103.999 99.9321C103.528 99.9737 103.089 100.196 102.767 100.555C102.445 100.914 102.263 101.384 102.256 101.875C102.249 102.366 102.418 102.842 102.729 103.211C103.041 103.58 103.473 103.815 103.942 103.872C104.411 103.928 104.883 103.801 105.267 103.515C105.652 103.23 105.92 102.806 106.02 102.326L115.529 102.158L119.591 107.143L114.067 107.241C113.974 106.76 113.712 106.333 113.332 106.041C112.952 105.75 112.482 105.616 112.012 105.665C111.542 105.714 111.107 105.942 110.79 106.306C110.474 106.67 110.298 107.143 110.298 107.634C110.298 108.125 110.474 108.598 110.79 108.962C111.107 109.325 111.542 109.554 112.012 109.603C112.482 109.652 112.952 109.518 113.332 109.226C113.712 108.935 113.974 108.507 114.067 108.026L126.213 107.808C126.288 107.806 126.36 107.782 126.422 107.739L132.265 103.51L139.272 103.399L142.348 112.863C142.06 113.022 141.809 113.244 141.61 113.513C141.412 113.782 141.271 114.093 141.197 114.423C141.123 114.753 141.118 115.096 141.182 115.429C141.245 115.761 141.377 116.076 141.567 116.351L128.355 130.504C126.871 130.291 125.36 130.424 123.932 130.895C122.504 131.366 121.194 132.161 120.099 133.224C119.004 134.287 118.151 135.59 117.601 137.039C117.051 138.489 116.819 140.047 116.922 141.601H106.336L103.967 134.677L110.089 134.433C110.184 134.429 110.275 134.388 110.342 134.318C110.409 134.248 110.449 134.154 110.452 134.055L111.056 117.013L118.744 116.861C118.838 117.451 119.143 117.983 119.597 118.35C120.051 118.717 120.621 118.893 121.194 118.844C121.767 118.795 122.302 118.523 122.691 118.083C123.081 117.643 123.297 117.067 123.297 116.469C123.297 115.871 123.081 115.295 122.691 114.855C122.302 114.415 121.767 114.143 121.194 114.094C120.621 114.044 120.051 114.221 119.597 114.588C119.143 114.955 118.838 115.487 118.744 116.076L110.687 116.233C110.591 116.235 110.499 116.276 110.43 116.346C110.361 116.416 110.321 116.511 110.317 116.611L110.142 121.549L102.674 121.396V113.172C103.24 113.068 103.748 112.747 104.097 112.272C104.446 111.797 104.61 111.203 104.557 110.608C104.505 110.013 104.239 109.46 103.813 109.06C103.386 108.659 102.831 108.439 102.256 108.445C101.681 108.45 101.129 108.68 100.71 109.089C100.291 109.497 100.034 110.055 99.992 110.651C99.9497 111.247 100.124 111.838 100.481 112.306C100.838 112.774 101.352 113.086 101.919 113.179V121.782C101.919 121.885 101.958 121.983 102.027 122.057C102.096 122.13 102.19 122.172 102.289 122.174L110.114 122.335L109.712 133.663L103.702 133.898L102.192 129.507C102.166 129.431 102.118 129.365 102.054 129.318C101.991 129.272 101.915 129.247 101.837 129.246H91.8634C91.7674 128.452 91.3837 127.725 90.7905 127.214C90.1973 126.704 89.4391 126.447 88.6704 126.497C87.9017 126.547 87.1802 126.9 86.6529 127.484C86.1255 128.067 85.832 128.838 85.832 129.639C85.832 130.44 86.1255 131.21 86.6529 131.794C87.1802 132.378 87.9017 132.731 88.6704 132.781C89.4391 132.831 90.1973 132.574 90.7905 132.063C91.3837 131.553 91.7674 130.826 91.8634 130.031H101.571L105.715 142.087C105.74 142.167 105.786 142.237 105.849 142.29C105.912 142.342 105.988 142.374 106.069 142.382H117.009C117.174 143.554 117.528 144.688 118.054 145.738L80.7997 146.344L80.9144 140.627H93.1099C93.1996 141.218 93.4996 141.753 93.9506 142.125C94.4016 142.496 94.9705 142.678 95.5445 142.634C96.1185 142.59 96.6555 142.324 97.0491 141.887C97.4427 141.45 97.6641 140.876 97.6693 140.277C97.6744 139.679 97.4631 139.101 97.0771 138.657C96.6911 138.213 96.1588 137.936 95.5856 137.881C95.0125 137.826 94.4405 137.998 93.9832 138.361C93.5258 138.724 93.2166 139.253 93.1167 139.842H80.5415C80.4428 139.842 80.348 139.882 80.2774 139.954C80.2069 140.026 80.1661 140.124 80.164 140.226L80.0409 146.356L74.697 146.443L67.7993 138.889C67.7635 138.849 67.7199 138.818 67.6715 138.797C67.6231 138.776 67.5709 138.766 67.5185 138.768L51.4098 139.06C51.3263 138.528 51.0544 138.047 50.6475 137.712C50.2405 137.377 49.7278 137.212 49.21 137.25C48.6923 137.288 48.2068 137.526 47.849 137.917C47.4911 138.308 47.2867 138.823 47.2758 139.363C47.2649 139.902 47.4483 140.427 47.7901 140.833C48.1318 141.239 48.6073 141.498 49.123 141.558C49.6388 141.619 50.1577 141.476 50.5778 141.16C50.998 140.843 51.2891 140.374 51.3939 139.845L67.366 139.555L73.671 146.463L63.0821 146.635C62.9869 145.991 62.6613 145.407 62.1703 145.002C61.6792 144.596 61.0591 144.399 60.4339 144.448C59.8087 144.498 59.2246 144.791 58.7984 145.269C58.3722 145.748 58.1354 146.376 58.1354 147.027C58.1354 147.679 58.3722 148.307 58.7984 148.785C59.2246 149.264 59.8087 149.557 60.4339 149.607C61.0591 149.656 61.6792 149.458 62.1703 149.053C62.6613 148.648 62.9869 148.064 63.0821 147.42L118.487 146.52C119.377 147.965 120.595 149.161 122.034 150.002C123.473 150.843 125.088 151.303 126.739 151.342C128.389 151.381 130.023 150.998 131.497 150.226C132.971 149.454 134.24 148.317 135.193 146.915C136.145 145.513 136.751 143.889 136.958 142.186C137.165 140.484 136.966 138.754 136.378 137.15C135.791 135.547 134.834 134.117 133.59 132.989C132.347 131.86 130.856 131.066 129.248 130.677L142.107 116.906C142.414 117.133 142.769 117.277 143.142 117.327C143.516 117.377 143.895 117.33 144.246 117.192C144.598 117.053 144.912 116.827 145.159 116.532C145.407 116.238 145.581 115.885 145.666 115.504C145.751 115.123 145.745 114.726 145.648 114.348C145.551 113.97 145.365 113.623 145.109 113.337C144.852 113.052 144.531 112.836 144.175 112.71C143.819 112.583 143.439 112.55 143.068 112.612L132.433 79.8919C133.862 79.165 135.018 77.9639 135.718 76.4781C136.417 74.9923 136.621 73.3065 136.297 71.6868C135.973 70.067 135.139 68.6057 133.928 67.5334C132.716 66.4611 131.195 65.8389 129.606 65.765L125.697 49.6231L129.541 49.4535L133.054 54.0466C133.089 54.0927 133.134 54.13 133.186 54.1555C133.237 54.1811 133.293 54.1943 133.35 54.1941L143.414 53.9908C143.516 54.417 143.765 54.7892 144.114 55.0364C144.463 55.2836 144.887 55.3883 145.306 55.3306C145.724 55.2728 146.108 55.0567 146.382 54.7234C146.657 54.3902 146.804 53.9632 146.796 53.5243C146.787 53.0854 146.623 52.6653 146.334 52.3443C146.046 52.0234 145.654 51.8241 145.234 51.7847C144.813 51.7453 144.394 51.8684 144.055 52.1306C143.716 52.3928 143.482 52.7756 143.398 53.2058L133.532 53.4091L130.478 49.4158L134.567 49.2361C134.645 49.2317 134.721 49.202 134.782 49.151C134.844 49.1001 134.888 49.0305 134.91 48.9519ZM143.339 16.4874C143.339 16.0944 143.451 15.7102 143.661 15.3834C143.871 15.0566 144.17 14.802 144.519 14.6517C144.869 14.5014 145.253 14.4621 145.624 14.5389C145.994 14.6157 146.335 14.805 146.602 15.0831C146.87 15.3611 147.052 15.7152 147.125 16.1008C147.199 16.4863 147.161 16.8859 147.016 17.249C146.872 17.6122 146.627 17.9226 146.312 18.1409C145.998 18.3593 145.628 18.4759 145.25 18.4759C144.743 18.4752 144.257 18.2655 143.899 17.8927C143.54 17.5199 143.339 17.0145 143.339 16.4874ZM137.189 33.0878C137.189 32.8069 137.269 32.5321 137.419 32.2984C137.569 32.0646 137.782 31.8824 138.031 31.7747C138.281 31.667 138.556 31.6387 138.821 31.6934C139.086 31.748 139.329 31.8832 139.52 32.0819C139.712 32.2805 139.842 32.5336 139.894 32.8091C139.947 33.0847 139.92 33.3703 139.817 33.6299C139.713 33.8895 139.538 34.1113 139.313 34.2673C139.089 34.4233 138.824 34.5065 138.554 34.5063C138.192 34.5057 137.846 34.3561 137.59 34.0902C137.334 33.8244 137.19 33.4639 137.189 33.0878ZM83.2972 18.6093C83.0715 18.6093 82.851 18.5397 82.6633 18.4093C82.4757 18.279 82.3295 18.0937 82.2432 17.8769C82.1569 17.6601 82.1343 17.4216 82.1784 17.1915C82.2225 16.9614 82.3312 16.75 82.4908 16.5842C82.6504 16.4183 82.8538 16.3054 83.0751 16.2597C83.2965 16.2141 83.5259 16.2377 83.7343 16.3275C83.9427 16.4174 84.1209 16.5696 84.2461 16.7648C84.3714 16.9599 84.4382 17.1893 84.438 17.424C84.4376 17.7383 84.3173 18.0397 84.1034 18.2619C83.8895 18.4842 83.5996 18.6091 83.2972 18.6093ZM74.8284 14.0006C74.6026 14.0007 74.3818 13.9312 74.194 13.8009C74.0061 13.6706 73.8597 13.4853 73.7732 13.2684C73.6867 13.0515 73.6639 12.8129 73.7079 12.5826C73.7519 12.3523 73.8605 12.1407 74.0202 11.9746C74.1798 11.8086 74.3832 11.6955 74.6046 11.6496C74.8261 11.6037 75.0557 11.6272 75.2643 11.717C75.4729 11.8068 75.6513 11.9589 75.7767 12.1541C75.9022 12.3494 75.9692 12.5789 75.9692 12.8136C75.969 13.1282 75.8488 13.4299 75.6349 13.6524C75.421 13.8749 75.1309 14.0002 74.8284 14.0006ZM83.6264 32.01C83.4006 32.01 83.1798 31.9404 82.9921 31.8099C82.8044 31.6795 82.658 31.4941 82.5717 31.2772C82.4853 31.0602 82.4627 30.8215 82.5068 30.5913C82.5509 30.361 82.6597 30.1495 82.8195 29.9836C82.9792 29.8176 83.1827 29.7046 83.4041 29.6589C83.6256 29.6132 83.8552 29.6368 84.0638 29.7268C84.2724 29.8167 84.4506 29.969 84.5759 30.1643C84.7013 30.3596 84.7681 30.5891 84.768 30.8239C84.7678 31.1386 84.6474 31.4403 84.4333 31.6627C84.2193 31.8851 83.929 32.01 83.6264 32.01ZM74.9092 38.3685C75.135 38.3684 75.3558 38.4379 75.5436 38.5682C75.7314 38.6985 75.8778 38.8838 75.9644 39.1007C76.0509 39.3176 76.0736 39.5562 76.0296 39.7865C75.9857 40.0168 75.877 40.2284 75.7174 40.3945C75.5578 40.5605 75.3544 40.6736 75.1329 40.7195C74.9114 40.7654 74.6819 40.7419 74.4732 40.6521C74.2646 40.5623 74.0863 40.4102 73.9608 40.215C73.8353 40.0198 73.7684 39.7902 73.7684 39.5555C73.7684 39.2408 73.8885 38.939 74.1024 38.7165C74.3164 38.4939 74.6065 38.3687 74.9092 38.3685ZM62.543 32.2683C62.7686 32.2685 62.9891 32.3382 63.1766 32.4686C63.3641 32.599 63.5102 32.7843 63.5964 33.0011C63.6827 33.2178 63.7052 33.4563 63.6611 33.6863C63.617 33.9164 63.5082 34.1276 63.3487 34.2934C63.1891 34.4592 62.9858 34.5721 62.7646 34.6178C62.5433 34.6635 62.3139 34.64 62.1055 34.5502C61.8971 34.4604 61.719 34.3084 61.5937 34.1133C61.4684 33.9183 61.4015 33.689 61.4015 33.4544C61.4017 33.1398 61.522 32.8381 61.7361 32.6157C61.9501 32.3932 62.2404 32.2683 62.543 32.2683ZM52.9545 25.3886C53.1802 25.3886 53.4007 25.4581 53.5883 25.5885C53.7759 25.7188 53.9221 25.904 54.0085 26.1208C54.0948 26.3375 54.1174 26.576 54.0734 26.8061C54.0294 27.0362 53.9207 27.2475 53.7612 27.4134C53.6016 27.5793 53.3984 27.6923 53.1771 27.738C52.9558 27.7838 52.7264 27.7603 52.518 27.6705C52.3095 27.5808 52.1313 27.4287 52.006 27.2337C51.8806 27.0386 51.8137 26.8093 51.8137 26.5747C51.8141 26.2608 51.934 25.9598 52.1472 25.7375C52.3604 25.5153 52.6496 25.3898 52.9515 25.3886H52.9545ZM67.2429 17.7843C67.4686 17.7843 67.6892 17.8539 67.8768 17.9842C68.0644 18.1146 68.2106 18.2999 68.2969 18.5167C68.3833 18.7335 68.4058 18.972 68.3617 19.2021C68.3176 19.4322 68.2089 19.6436 68.0493 19.8094C67.8897 19.9753 67.6863 20.0882 67.465 20.1338C67.2437 20.1795 67.0142 20.1559 66.8058 20.066C66.5974 19.9761 66.4192 19.824 66.294 19.6288C66.1687 19.4337 66.1019 19.2042 66.1021 18.9696C66.1025 18.6552 66.2228 18.3539 66.4367 18.1316C66.6506 17.9094 66.9405 17.7845 67.2429 17.7843ZM14.4608 8.32345C14.4608 8.08882 14.5278 7.85946 14.6532 7.66439C14.7785 7.46931 14.9568 7.31728 15.1653 7.22753C15.3738 7.13778 15.6032 7.11433 15.8245 7.16016C16.0458 7.20599 16.2491 7.31904 16.4086 7.485C16.5681 7.65097 16.6767 7.86239 16.7206 8.09253C16.7646 8.32267 16.7419 8.56118 16.6554 8.77791C16.5689 8.99463 16.4226 9.17983 16.2349 9.31007C16.0472 9.44031 15.8266 9.50974 15.6009 9.50958C15.2986 9.50896 15.0088 9.38377 14.7952 9.16144C14.5815 8.93911 14.4612 8.63777 14.4608 8.32345ZM9.27098 18.9155C9.04514 18.9156 8.82432 18.8461 8.63648 18.7157C8.44863 18.5854 8.3022 18.4 8.2157 18.1831C8.12921 17.9662 8.10654 17.7275 8.15056 17.4972C8.19459 17.2669 8.30332 17.0553 8.46302 16.8893C8.62272 16.7232 8.82619 16.6102 9.0477 16.5644C9.26921 16.5186 9.49881 16.5422 9.70743 16.6321C9.91605 16.722 10.0943 16.8743 10.2197 17.0696C10.3451 17.2649 10.4119 17.4945 10.4118 17.7293C10.4114 18.0438 10.2911 18.3452 10.0772 18.5676C9.86335 18.7899 9.57342 18.915 9.27098 18.9155ZM6.42689 28.0638C6.42704 27.8293 6.49406 27.6001 6.61947 27.4052C6.74488 27.2102 6.92306 27.0583 7.13148 26.9686C7.3399 26.879 7.56922 26.8555 7.79044 26.9013C8.01167 26.9471 8.21487 27.0601 8.37437 27.2259C8.53387 27.3917 8.6425 27.603 8.68655 27.833C8.73059 28.063 8.70806 28.3015 8.62181 28.5182C8.53556 28.7349 8.38946 28.9201 8.20197 29.0505C8.01448 29.1809 7.79402 29.2506 7.56845 29.2508C7.26569 29.2508 6.97533 29.1257 6.76125 28.9031C6.54717 28.6805 6.42689 28.3786 6.42689 28.0638ZM5.48767 77.8203C5.48753 77.5855 5.55437 77.3559 5.67975 77.1606C5.80513 76.9653 5.98341 76.813 6.19203 76.7231C6.40065 76.6331 6.63024 76.6096 6.85176 76.6553C7.07327 76.7011 7.27674 76.8142 7.43644 76.9802C7.59613 77.1463 7.70487 77.3578 7.7489 77.5881C7.79292 77.8184 7.77025 78.0572 7.68375 78.2741C7.59726 78.491 7.45082 78.6763 7.26298 78.8067C7.07514 78.9371 6.85432 79.0066 6.62848 79.0064C6.32598 79.0062 6.03593 78.8812 5.82203 78.6588C5.60813 78.4364 5.48787 78.1348 5.48767 77.8203ZM6.33856 119.329C5.96053 119.329 5.59099 119.212 5.27666 118.994C4.96232 118.776 4.71729 118.465 4.57256 118.102C4.42783 117.739 4.38988 117.339 4.46352 116.954C4.53716 116.568 4.71908 116.214 4.98628 115.936C5.25348 115.658 5.59396 115.469 5.96469 115.392C6.33541 115.315 6.71974 115.354 7.06907 115.504C7.41841 115.655 7.71708 115.909 7.92731 116.236C8.13755 116.562 8.24992 116.946 8.25022 117.34C8.25002 117.867 8.0486 118.372 7.69018 118.745C7.33176 119.118 6.84564 119.328 6.33856 119.329ZM12.0856 129.326C11.8019 129.326 11.5246 129.239 11.2887 129.075C11.0528 128.911 10.8689 128.678 10.7603 128.406C10.6517 128.133 10.6233 127.833 10.6787 127.544C10.734 127.255 10.8707 126.989 11.0713 126.78C11.2719 126.572 11.5275 126.43 11.8058 126.372C12.084 126.315 12.3725 126.344 12.6346 126.457C12.8967 126.57 13.1207 126.761 13.2784 127.006C13.436 127.252 13.5201 127.54 13.5201 127.835C13.5201 128.231 13.369 128.61 13.1 128.89C12.8309 129.169 12.4661 129.326 12.0856 129.326ZM31.8772 125.105C33.7314 125.105 35.5439 125.676 37.0856 126.748C38.6273 127.819 39.8289 129.341 40.5385 131.122C41.248 132.903 41.4336 134.863 41.0718 136.754C40.71 138.645 39.8171 140.382 38.5059 141.745C37.1948 143.108 35.5243 144.036 33.7057 144.412C31.8871 144.788 30.0021 144.595 28.2891 143.857C26.5761 143.119 25.112 141.87 24.0819 140.267C23.0519 138.664 22.5022 136.779 22.5024 134.851C22.5052 132.267 23.4938 129.79 25.2513 127.962C27.0089 126.135 29.3918 125.107 31.8772 125.105ZM120.999 97.636C120.695 97.6359 120.398 97.542 120.145 97.3663C119.892 97.1906 119.695 96.9409 119.579 96.6488C119.463 96.3568 119.433 96.0355 119.492 95.7255C119.551 95.4155 119.698 95.1308 119.913 94.9074C120.128 94.6839 120.402 94.5318 120.7 94.4702C120.998 94.4086 121.307 94.4403 121.588 94.5612C121.869 94.6822 122.109 94.8871 122.278 95.1499C122.447 95.4127 122.537 95.7217 122.537 96.0378C122.536 96.4616 122.374 96.8679 122.086 97.1675C121.797 97.4671 121.407 97.6356 120.999 97.636ZM104.162 103.098C103.935 103.098 103.713 103.028 103.524 102.897C103.335 102.765 103.188 102.579 103.101 102.361C103.014 102.142 102.991 101.902 103.035 101.67C103.08 101.438 103.189 101.226 103.35 101.058C103.511 100.891 103.715 100.778 103.938 100.731C104.161 100.685 104.392 100.709 104.602 100.799C104.812 100.89 104.992 101.043 105.118 101.24C105.244 101.436 105.311 101.667 105.311 101.903C105.311 102.22 105.19 102.523 104.974 102.747C104.759 102.971 104.467 103.096 104.162 103.096V103.098ZM112.203 108.833C111.976 108.833 111.754 108.763 111.565 108.632C111.376 108.501 111.228 108.314 111.141 108.096C111.054 107.877 111.032 107.637 111.076 107.405C111.121 107.173 111.23 106.96 111.391 106.793C111.552 106.626 111.756 106.513 111.979 106.467C112.202 106.421 112.433 106.444 112.643 106.535C112.853 106.625 113.033 106.779 113.159 106.975C113.285 107.172 113.352 107.403 113.352 107.639C113.351 107.955 113.23 108.258 113.015 108.482C112.8 108.705 112.509 108.831 112.205 108.832L112.203 108.833ZM121.002 114.865C121.306 114.865 121.603 114.959 121.856 115.135C122.109 115.31 122.306 115.56 122.422 115.852C122.538 116.144 122.569 116.465 122.51 116.775C122.45 117.085 122.304 117.37 122.089 117.594C121.874 117.817 121.6 117.969 121.302 118.031C121.004 118.093 120.695 118.061 120.414 117.94C120.133 117.819 119.893 117.614 119.724 117.351C119.555 117.089 119.465 116.78 119.465 116.463C119.465 116.039 119.627 115.632 119.915 115.332C120.204 115.032 120.595 114.864 121.003 114.864L121.002 114.865ZM102.278 112.425C101.974 112.425 101.677 112.331 101.424 112.155C101.171 111.98 100.974 111.73 100.858 111.438C100.741 111.146 100.711 110.825 100.77 110.515C100.83 110.205 100.976 109.92 101.191 109.696C101.406 109.473 101.68 109.32 101.978 109.259C102.276 109.197 102.585 109.229 102.866 109.35C103.147 109.471 103.387 109.676 103.556 109.938C103.725 110.201 103.815 110.51 103.815 110.826C103.814 111.25 103.652 111.657 103.363 111.956C103.074 112.256 102.683 112.423 102.275 112.423L102.278 112.425ZM88.8563 132.003C88.4062 132.003 87.9661 131.865 87.5918 131.605C87.2174 131.345 86.9256 130.975 86.7533 130.543C86.581 130.111 86.5359 129.635 86.6236 129.176C86.7114 128.717 86.9282 128.295 87.2465 127.964C87.5647 127.633 87.9703 127.408 88.4118 127.317C88.8533 127.226 89.3109 127.272 89.7267 127.452C90.1425 127.631 90.4979 127.934 90.7479 128.323C90.9979 128.713 91.1312 129.17 91.1311 129.638C91.1299 130.265 90.8897 130.866 90.4631 131.309C90.0366 131.752 89.4585 132.001 88.8555 132.002L88.8563 132.003ZM95.3712 138.658C95.6754 138.658 95.9729 138.751 96.2259 138.927C96.4789 139.103 96.6762 139.352 96.7927 139.645C96.9091 139.937 96.9397 140.258 96.8804 140.569C96.821 140.879 96.6745 141.164 96.4594 141.388C96.2443 141.611 95.9702 141.763 95.6718 141.825C95.3734 141.887 95.0641 141.855 94.783 141.734C94.502 141.613 94.2618 141.408 94.0929 141.145C93.9239 140.882 93.8338 140.572 93.834 140.256C93.8342 139.832 93.9961 139.426 94.2841 139.126C94.5721 138.826 94.9628 138.657 95.3704 138.656L95.3712 138.658ZM49.3562 140.787C49.094 140.787 48.8376 140.707 48.6196 140.555C48.4016 140.404 48.2317 140.188 48.1313 139.937C48.031 139.685 48.0047 139.407 48.0559 139.14C48.107 138.873 48.2333 138.627 48.4187 138.434C48.6041 138.242 48.8404 138.11 49.0975 138.057C49.3547 138.004 49.6213 138.031 49.8635 138.135C50.1058 138.24 50.3129 138.416 50.4585 138.643C50.6042 138.87 50.682 139.136 50.682 139.409C50.6818 139.775 50.542 140.125 50.2934 140.384C50.0449 140.642 49.7078 140.787 49.3562 140.787ZM60.6261 148.828C60.2836 148.828 59.9489 148.723 59.6641 148.525C59.3793 148.328 59.1573 148.046 59.0261 147.718C58.895 147.389 58.8606 147.027 58.9273 146.678C58.994 146.328 59.1588 146.008 59.4009 145.756C59.643 145.504 59.9515 145.332 60.2873 145.263C60.6231 145.193 60.9713 145.229 61.2877 145.365C61.604 145.501 61.8745 145.732 62.0647 146.028C62.255 146.324 62.3565 146.672 62.3565 147.028C62.3561 147.505 62.1737 147.963 61.8493 148.3C61.5249 148.638 61.085 148.828 60.6261 148.828ZM143.434 113.363C143.738 113.363 144.036 113.457 144.288 113.633C144.541 113.808 144.738 114.058 144.855 114.35C144.971 114.642 145.001 114.964 144.942 115.274C144.883 115.584 144.736 115.868 144.521 116.092C144.306 116.315 144.033 116.468 143.734 116.529C143.436 116.591 143.127 116.559 142.846 116.438C142.565 116.317 142.325 116.113 142.156 115.85C141.987 115.587 141.897 115.278 141.897 114.962C141.898 114.538 142.06 114.132 142.348 113.832C142.636 113.532 143.027 113.364 143.434 113.363ZM119.591 21.0389C121.445 21.0389 123.258 21.6105 124.799 22.6816C126.341 23.7527 127.542 25.275 128.252 27.0561C128.962 28.8372 129.147 30.797 128.786 32.6878C128.424 34.5786 127.531 36.3154 126.22 37.6786C124.909 39.0418 123.238 39.9702 121.42 40.3463C119.601 40.7224 117.716 40.5293 116.003 39.7916C114.29 39.0538 112.826 37.8045 111.796 36.2016C110.766 34.5986 110.216 32.7141 110.216 30.7862C110.219 28.202 111.207 25.7244 112.965 23.897C114.722 22.0697 117.105 21.0418 119.591 21.0389ZM27.8885 36.1038L33.542 50.2299C32.5973 51.3551 31.9376 52.7076 31.6227 54.1648C31.3078 55.622 31.3475 57.1379 31.7384 58.5752C32.1292 60.0124 32.8588 61.3255 33.861 62.3955C34.8632 63.4655 36.1063 64.2586 37.4778 64.7029L23.3185 88.406L27.8885 36.1038ZM61.4294 121.712L27.3079 104.482C28.5864 103.675 29.6141 102.502 30.2679 101.103C30.9217 99.7047 31.174 98.1398 30.9946 96.5959L31.3608 96.5826L36.5182 102.77C36.5527 102.811 36.5951 102.845 36.6429 102.868C36.6906 102.892 36.7425 102.904 36.7953 102.906L53.0504 103.274C53.1616 103.673 53.4099 104.017 53.7483 104.238C54.0867 104.46 54.4916 104.545 54.8862 104.476C55.2807 104.408 55.6375 104.192 55.8887 103.868C56.1399 103.544 56.268 103.136 56.2488 102.721C56.2297 102.305 56.0645 101.912 55.7846 101.615C55.5048 101.318 55.1298 101.138 54.7307 101.109C54.3317 101.08 53.9365 101.205 53.62 101.46C53.3036 101.714 53.088 102.08 53.0142 102.489L41.1954 102.22L44.0372 98.1714L49.0836 98.2248C49.182 98.6281 49.4194 98.9799 49.7507 99.2133C50.082 99.4466 50.4842 99.5454 50.881 99.4908C51.2777 99.4361 51.6414 99.2319 51.9029 98.917C52.1644 98.602 52.3055 98.1981 52.2995 97.782C52.2935 97.366 52.1408 96.9667 51.8703 96.66C51.5998 96.3533 51.2305 96.1605 50.8323 96.1183C50.4342 96.0761 50.035 96.1873 49.7106 96.4309C49.3861 96.6745 49.159 97.0335 49.0723 97.4398L43.8507 97.384C43.7334 97.4002 43.6246 97.4569 43.5419 97.545L40.2751 102.199L36.9772 102.125L32.3294 96.5512L33.964 96.4931C34.0437 96.4904 34.1205 96.4615 34.1835 96.4106C34.2464 96.3597 34.2922 96.2893 34.3143 96.2097L36.5144 88.2898L42.2192 88.0355C42.3348 88.7107 42.6919 89.3154 43.2189 89.7281C43.7458 90.1407 44.4034 90.3306 45.0595 90.2597C45.7156 90.1888 46.3216 89.8623 46.7556 89.3458C47.1896 88.8293 47.4195 88.1612 47.3991 87.4756C47.3787 86.7901 47.1094 86.138 46.6454 85.6505C46.1815 85.163 45.5572 84.8761 44.8981 84.8476C44.239 84.8191 43.594 85.051 43.0927 85.4968C42.5914 85.9425 42.2709 86.5691 42.1958 87.2505L36.2109 87.5174C36.1318 87.5209 36.0559 87.5502 35.9937 87.601C35.9315 87.6519 35.8863 87.7217 35.8643 87.8008L33.6658 95.7159L30.8662 95.8148C30.4908 94.0698 29.5711 92.5028 28.2503 91.3577C26.9294 90.2125 25.2816 89.5534 23.5631 89.483L38.2418 64.9125C39.2654 65.138 40.3198 65.1689 41.3539 65.0036L63.4754 118.929C62.6167 119.701 61.9202 120.648 61.4294 121.712ZM53.7405 102.801C53.7405 102.62 53.7919 102.444 53.8882 102.294C53.9845 102.144 54.1214 102.028 54.2816 101.959C54.4418 101.89 54.618 101.871 54.788 101.907C54.9581 101.942 55.1143 102.029 55.2368 102.156C55.3594 102.284 55.4429 102.446 55.4767 102.623C55.5106 102.8 55.4932 102.983 55.4269 103.149C55.3605 103.316 55.2482 103.458 55.104 103.558C54.9599 103.658 54.7904 103.712 54.617 103.712C54.3847 103.712 54.162 103.615 53.9977 103.445C53.8334 103.274 53.7409 103.042 53.7405 102.801ZM49.7896 97.8056C49.7894 97.6251 49.8407 97.4487 49.937 97.2986C50.0334 97.1485 50.1703 97.0315 50.3306 96.9623C50.4909 96.8931 50.6673 96.875 50.8376 96.9101C51.0078 96.9452 51.1642 97.032 51.287 97.1595C51.4097 97.2871 51.4934 97.4496 51.5273 97.6266C51.5612 97.8035 51.5439 97.987 51.4775 98.1537C51.4111 98.3204 51.2986 98.4629 51.1544 98.5632C51.0101 98.6635 50.8404 98.717 50.6669 98.717C50.4344 98.7168 50.2115 98.6207 50.047 98.4499C49.8825 98.279 49.79 98.0473 49.7896 97.8056ZM42.9319 87.5582C42.9319 87.1769 43.0406 86.8041 43.2444 86.4871C43.4482 86.17 43.7377 85.9229 44.0766 85.777C44.4154 85.6311 44.7882 85.5929 45.1479 85.6673C45.5076 85.7417 45.838 85.9253 46.0974 86.1949C46.3567 86.4646 46.5333 86.8081 46.6048 87.1821C46.6764 87.5561 46.6397 87.9437 46.4993 88.296C46.359 88.6483 46.1213 88.9494 45.8164 89.1612C45.5114 89.3731 45.1529 89.4862 44.7862 89.4862C44.2945 89.4857 43.8231 89.2825 43.4754 88.921C43.1278 88.5595 42.9323 88.0694 42.9319 87.5582ZM128.827 65.7752C127.531 65.8584 126.281 66.3067 125.211 67.0721C124.142 67.8375 123.292 68.8912 122.754 70.1202C122.216 71.3493 122.01 72.7073 122.158 74.0488C122.306 75.3903 122.802 76.6647 123.593 77.7355L75.9881 121.186C75.4223 120.146 74.6529 119.241 73.7296 118.53C72.8063 117.818 71.7497 117.316 70.6281 117.056C69.5064 116.796 68.3448 116.784 67.2183 117.02C66.0918 117.256 65.0256 117.736 64.0885 118.428L42.1112 64.8434C43.4064 64.5082 44.6092 63.8654 45.6253 62.9655C46.6414 62.0656 47.4431 60.9332 47.9675 59.657C48.4919 58.3809 48.7248 56.9957 48.6478 55.6103C48.5708 54.2248 48.1861 52.8768 47.5238 51.6719L71.8431 50.6514C72.026 51.6653 72.4094 52.6286 72.9691 53.4803C73.5289 54.332 74.2527 55.0535 75.0947 55.599C75.9368 56.1445 76.8786 56.5022 77.8606 56.6494C78.8426 56.7966 79.8432 56.73 80.7991 56.4539C81.7551 56.1779 82.6454 55.6983 83.4137 55.0456C84.182 54.393 84.8115 53.5815 85.2623 52.6626C85.7131 51.7437 85.9753 50.7374 86.0324 49.7076C86.0895 48.6777 85.9402 47.6468 85.5939 46.6801L110.176 34.6751C111.101 37.0816 112.843 39.0517 115.072 40.2125L104.804 59.0635L104.209 56.7713C104.188 56.688 104.14 56.6145 104.075 56.562C104.009 56.5095 103.928 56.481 103.845 56.4808L97.2504 56.5766V52.734C97.7121 52.6149 98.1147 52.3215 98.3801 51.911C98.6454 51.5004 98.7545 51.002 98.6862 50.5125C98.6178 50.0229 98.3769 49.5773 98.0103 49.2621C97.6436 48.947 97.1774 48.7847 96.7021 48.807C96.2269 48.8292 95.7766 49.0343 95.4386 49.3825C95.1007 49.7306 94.8992 50.1969 94.8735 50.6908C94.8477 51.1847 94.9994 51.671 95.2991 52.0551C95.5989 52.4392 96.0252 52.6938 96.4954 52.7694V56.973C96.4954 57.025 96.5053 57.0765 96.5246 57.1245C96.5439 57.1725 96.5722 57.216 96.6078 57.2525C96.6434 57.2891 96.6857 57.3178 96.7321 57.3372C96.7785 57.3566 96.8281 57.3663 96.8782 57.3655L101.203 57.3019L98.3376 61.9743H88.4886C88.4006 61.5778 88.185 61.2244 87.8774 60.9729C87.5698 60.7213 87.1887 60.5866 86.7974 60.5911C86.3553 60.6182 85.94 60.82 85.6362 61.155C85.3324 61.49 85.1633 61.933 85.1633 62.3935C85.1633 62.8539 85.3324 63.2969 85.6362 63.6319C85.94 63.967 86.3553 64.1687 86.7974 64.1958C87.1939 64.1897 87.5767 64.0444 87.8838 63.7837C88.1909 63.5229 88.4043 63.1619 88.4894 62.7593H98.549C98.6138 62.7539 98.6764 62.7323 98.7315 62.6963C98.7865 62.6604 98.8325 62.6112 98.8653 62.5528L102.112 57.2886L103.561 57.2682L104.278 60.0345L95.6762 75.8295C93.3101 71.2631 89.3111 67.8479 84.5431 66.3219C79.7752 64.7959 74.6213 65.2816 70.1949 67.6742L70.0651 65.0962C70.0598 64.9931 70.0156 64.8962 69.9421 64.8267C69.8686 64.7572 69.7718 64.7206 69.6725 64.7249L63.9277 64.9785L65.3969 61.8966L75.5056 61.57C75.5937 62.0559 75.8523 62.4904 76.2313 62.7892C76.6102 63.0879 77.0824 63.2295 77.5562 63.1865C78.03 63.1435 78.4714 62.9189 78.7948 62.5564C79.1182 62.1939 79.3005 61.7193 79.3062 61.2249C79.3119 60.7304 79.1407 60.2515 78.8257 59.881C78.5108 59.5105 78.0746 59.2749 77.602 59.2201C77.1294 59.1653 76.654 59.2951 76.2682 59.5843C75.8825 59.8735 75.6139 60.3014 75.5147 60.785L65.1478 61.121C65.0794 61.1231 65.0128 61.1446 64.9552 61.183C64.8977 61.2214 64.8512 61.2754 64.8209 61.3392L63.067 65.0177L57.1138 65.2807L57.175 61.537C57.8435 61.444 58.4533 61.091 58.8815 60.5492C59.3097 60.0074 59.5246 59.317 59.4828 58.617C59.441 57.9171 59.1456 57.2597 58.6562 56.7771C58.1668 56.2945 57.5197 56.0227 56.8452 56.0164C56.1708 56.0101 55.5191 56.2697 55.0214 56.7431C54.5237 57.2164 54.217 57.8682 54.1631 58.5673C54.1092 59.2663 54.312 59.9606 54.7308 60.5104C55.1496 61.0601 55.7532 61.4244 56.42 61.53L56.3528 65.6834C56.3518 65.737 56.3614 65.7903 56.381 65.8399C56.4006 65.8895 56.4297 65.9344 56.4667 65.9719C56.5036 66.0093 56.5475 66.0385 56.5957 66.0576C56.6439 66.0767 56.6954 66.0853 56.7469 66.083L69.3312 65.5295L69.4603 68.0973C66.6687 69.8483 64.3655 72.3274 62.779 75.2888C61.1925 78.2503 60.3778 81.5914 60.4156 84.981C60.4534 88.3707 61.3424 91.6912 62.9945 94.6136C64.6466 97.5361 67.0044 99.9589 69.8344 101.642C72.6643 103.325 75.8682 104.211 79.1285 104.21C82.3888 104.21 85.5924 103.323 88.4219 101.639C91.2513 99.9549 93.6084 97.5312 95.2596 94.6082C96.9108 91.6853 97.7987 88.3644 97.8355 84.9748L107.526 84.6003C107.593 84.5977 107.659 84.5763 107.716 84.5383C107.773 84.5003 107.819 84.4472 107.849 84.3844L113.03 73.6629C113.603 73.6875 114.165 73.4875 114.603 73.1024C115.042 72.7172 115.326 72.1751 115.398 71.5831C115.471 70.991 115.327 70.3922 114.995 69.9051C114.664 69.4179 114.169 69.0778 113.607 68.952C113.046 68.8262 112.46 68.9238 111.965 69.2257C111.47 69.5275 111.102 70.0115 110.933 70.582C110.765 71.1525 110.808 71.768 111.055 72.3068C111.302 72.8456 111.734 73.2685 112.267 73.4918L107.275 83.82L97.8264 84.1843C97.7443 81.5843 97.1513 79.0293 96.0839 76.6765L115.763 40.5391C117.997 41.4881 120.484 41.5761 122.775 40.7871L128.827 65.7752ZM96.7921 52.0048C96.5618 52.0048 96.3367 51.9338 96.1453 51.8008C95.9538 51.6678 95.8046 51.4787 95.7165 51.2575C95.6284 51.0363 95.6053 50.793 95.6502 50.5581C95.6952 50.3233 95.806 50.1077 95.9689 49.9384C96.1317 49.7691 96.3391 49.6538 96.565 49.6071C96.7908 49.5604 97.0249 49.5844 97.2376 49.676C97.4503 49.7676 97.6322 49.9227 97.7601 50.1218C97.888 50.3209 97.9563 50.5549 97.9563 50.7943C97.9561 51.1153 97.8334 51.423 97.6151 51.65C97.3968 51.877 97.1008 52.0046 96.7921 52.0048ZM87.7789 62.3895C87.7789 62.5914 87.7213 62.7887 87.6135 62.9565C87.5056 63.1243 87.3523 63.2551 87.173 63.3323C86.9937 63.4096 86.7963 63.4298 86.6059 63.3904C86.4155 63.351 86.2406 63.2539 86.1034 63.1111C85.9661 62.9684 85.8726 62.7866 85.8348 62.5886C85.7969 62.3907 85.8163 62.1855 85.8906 61.999C85.9649 61.8125 86.0907 61.6532 86.2521 61.541C86.4135 61.4289 86.6033 61.369 86.7974 61.369C87.0577 61.369 87.3074 61.4766 87.4914 61.6679C87.6755 61.8593 87.7789 62.1189 87.7789 62.3895ZM97.085 84.824C97.1331 88.5606 96.1113 92.2277 94.1497 95.3589C92.188 98.4901 89.375 100.944 86.0685 102.409C82.7619 103.873 79.1111 104.282 75.5803 103.584C72.0495 102.886 68.7983 101.111 66.2399 98.4868C63.6815 95.8621 61.9316 92.5057 61.2128 88.8442C60.4939 85.1828 60.8385 81.3818 62.2028 77.9246C63.5671 74.4674 65.8894 71.5101 68.8745 69.4287C71.8595 67.3474 75.3724 66.2361 78.9665 66.236C83.7382 66.2097 88.3251 68.1522 91.7211 71.6374C95.1172 75.1226 97.0451 79.866 97.082 84.8272L97.085 84.824ZM76.2274 61.2018C76.2275 60.9626 76.2959 60.7288 76.4238 60.53C76.5518 60.3311 76.7335 60.1762 76.9461 60.0848C77.1587 59.9933 77.3927 59.9695 77.6183 60.0163C77.8439 60.063 78.0512 60.1783 78.2138 60.3475C78.3764 60.5167 78.4872 60.7323 78.532 60.9669C78.5768 61.2015 78.5538 61.4447 78.4657 61.6657C78.3776 61.8867 78.2285 62.0756 78.0372 62.2085C77.8458 62.3414 77.6209 62.4123 77.3908 62.4123C77.0823 62.4119 76.7865 62.2842 76.5683 62.0573C76.3502 61.8303 76.2276 61.5227 76.2274 61.2018ZM56.8239 60.7748C56.4458 60.7749 56.0761 60.6585 55.7616 60.4402C55.4472 60.2219 55.202 59.9115 55.0572 59.5483C54.9124 59.1852 54.8744 58.7855 54.9481 58.3999C55.0218 58.0143 55.2038 57.66 55.4711 57.382C55.7384 57.1039 56.0791 56.9146 56.4499 56.8378C56.8208 56.761 57.2052 56.8004 57.5545 56.9508C57.9039 57.1012 58.2025 57.3559 58.4126 57.6828C58.6227 58.0097 58.7348 58.394 58.7348 58.7872C58.7342 59.314 58.5327 59.8191 58.1745 60.1917C57.8163 60.5643 57.3306 60.774 56.8239 60.7748ZM111.587 71.2757C111.587 70.9594 111.677 70.6502 111.846 70.3871C112.015 70.1241 112.255 69.919 112.536 69.7978C112.817 69.6767 113.126 69.6449 113.425 69.7065C113.723 69.7681 113.997 69.9204 114.212 70.144C114.427 70.3676 114.574 70.6525 114.633 70.9627C114.693 71.2729 114.662 71.5945 114.546 71.8867C114.43 72.1789 114.232 72.4287 113.98 72.6044C113.727 72.7802 113.429 72.874 113.125 72.874C112.717 72.8736 112.327 72.7051 112.038 72.4055C111.75 72.1058 111.588 71.6996 111.587 71.2757ZM145.083 52.5653C145.274 52.5654 145.459 52.6242 145.617 52.7341C145.776 52.8441 145.899 53.0003 145.971 53.183C146.044 53.3657 146.063 53.5667 146.026 53.7606C145.989 53.9546 145.897 54.1327 145.763 54.2725C145.628 54.4123 145.457 54.5076 145.27 54.5462C145.084 54.5848 144.891 54.5651 144.715 54.4895C144.539 54.4139 144.389 54.2858 144.283 54.1215C144.177 53.9571 144.121 53.7639 144.121 53.5661C144.121 53.3007 144.222 53.0461 144.403 52.8584C144.583 52.6707 144.828 52.5653 145.083 52.5653Z" fill="black"/>
<path fill-rule="evenodd" clip-rule="evenodd" d="M82.1792 51.2842C81.7284 50.5922 81.114 50.0323 80.3951 49.6584C80.2277 49.9208 80.001 50.1365 79.7348 50.2867C79.4687 50.437 79.1712 50.5171 78.8684 50.5201C78.5655 50.5231 78.2666 50.449 77.9978 50.3041C77.7289 50.1592 77.4982 49.948 77.326 49.6891C76.5482 50.092 75.903 50.7262 75.4725 51.511C75.4034 51.632 75.3669 51.7701 75.3667 51.9107C75.3665 52.0514 75.4027 52.1895 75.4715 52.3107C75.5402 52.4319 75.639 52.5316 75.7576 52.5994C75.8761 52.6673 76.01 52.7008 76.1452 52.6964L81.5865 52.5213C81.7227 52.5168 81.8552 52.474 81.9699 52.3975C82.0846 52.321 82.1773 52.2136 82.2381 52.0867C82.2988 51.9599 82.3254 51.8183 82.3151 51.677C82.3047 51.5357 82.2577 51.4 82.1792 51.2842Z" fill="#FFD997"/>
<path d="M78.8467 45.2412C78.0502 45.2412 77.4009 46.2484 77.4009 47.4879C77.4009 48.7439 78.0358 49.7346 78.8467 49.7346C79.6576 49.7346 80.2925 48.7478 80.2925 47.4879C80.2925 46.2484 79.644 45.2412 78.8467 45.2412Z" fill="#FFD997"/>
<path fill-rule="evenodd" clip-rule="evenodd" d="M131.953 144.24C131.275 143.198 130.351 142.356 129.269 141.793C129.016 142.187 128.675 142.511 128.274 142.737C127.874 142.963 127.426 143.083 126.971 143.088C126.515 143.092 126.065 142.981 125.661 142.763C125.256 142.546 124.909 142.229 124.649 141.84C123.477 142.445 122.504 143.399 121.855 144.582C121.75 144.763 121.694 144.971 121.693 145.184C121.693 145.396 121.747 145.604 121.851 145.787C121.954 145.97 122.104 146.12 122.283 146.222C122.462 146.323 122.664 146.373 122.868 146.365L131.057 146.103C131.262 146.097 131.462 146.033 131.635 145.918C131.808 145.803 131.948 145.641 132.04 145.45C132.132 145.259 132.173 145.046 132.157 144.832C132.142 144.619 132.071 144.415 131.953 144.24Z" fill="#FFD997"/>
<path d="M126.938 135.146C125.738 135.146 124.762 136.661 124.762 138.526C124.762 140.423 125.718 141.908 126.938 141.908C128.158 141.908 129.114 140.423 129.114 138.526C129.114 136.661 128.138 135.146 126.938 135.146Z" fill="#FFD997"/>
<path fill-rule="evenodd" clip-rule="evenodd" d="M72.167 127.516C71.7164 126.824 71.102 126.264 70.3829 125.891C70.2156 126.153 69.9889 126.369 69.7228 126.519C69.4566 126.67 69.1591 126.75 68.8562 126.753C68.5533 126.756 68.2543 126.682 67.9854 126.537C67.7165 126.392 67.4859 126.18 67.3138 125.921C66.5359 126.324 65.8907 126.959 65.4603 127.744C65.3914 127.865 65.3551 128.003 65.355 128.143C65.3549 128.284 65.3911 128.422 65.4599 128.543C65.5286 128.664 65.6273 128.764 65.7457 128.831C65.8641 128.899 65.9979 128.933 66.133 128.928L71.5735 128.754C71.71 128.75 71.8427 128.707 71.9576 128.631C72.0726 128.554 72.1654 128.447 72.2263 128.32C72.2872 128.193 72.3138 128.051 72.3034 127.909C72.2929 127.768 72.2458 127.632 72.167 127.516Z" fill="#FFD997"/>
<path d="M68.8355 121.474C68.0382 121.474 67.3896 122.481 67.3896 123.72C67.3896 124.981 68.0246 125.967 68.8355 125.967C69.6463 125.967 70.2813 124.981 70.2813 123.72C70.2813 122.481 69.632 121.474 68.8355 121.474Z" fill="#FFD997"/>
<path fill-rule="evenodd" clip-rule="evenodd" d="M26.5857 99.5153C26.1346 98.8238 25.5203 98.2642 24.8016 97.8904C24.6342 98.1528 24.4075 98.3685 24.1413 98.5187C23.8752 98.6689 23.5777 98.749 23.2749 98.752C22.9721 98.7551 22.6731 98.6809 22.4043 98.536C22.1354 98.3911 21.9048 98.18 21.7325 97.921C20.9544 98.3238 20.309 98.958 19.8782 99.743C19.8092 99.8639 19.7726 100.002 19.7725 100.143C19.7723 100.283 19.8085 100.421 19.8772 100.543C19.946 100.664 20.0448 100.764 20.1633 100.831C20.2818 100.899 20.4157 100.933 20.551 100.928L25.9922 100.753C26.1286 100.749 26.2614 100.706 26.3763 100.63C26.4913 100.553 26.5841 100.446 26.645 100.319C26.7059 100.192 26.7325 100.05 26.7221 99.9086C26.7116 99.7671 26.6645 99.6312 26.5857 99.5153Z" fill="#FFD997"/>
<path d="M23.253 93.4756C22.4564 93.4756 21.8071 94.4827 21.8071 95.7223C21.8071 96.9783 22.4421 97.9689 23.253 97.9689C24.0638 97.9689 24.6988 96.9822 24.6988 95.7223C24.6988 94.4804 24.0502 93.4756 23.253 93.4756Z" fill="#FFD997"/>
<path fill-rule="evenodd" clip-rule="evenodd" d="M45.3384 58.6671C44.66 57.6259 43.7354 56.7835 42.6536 56.2211C42.4017 56.6161 42.0606 56.9409 41.66 57.1671C41.2594 57.3933 40.8117 57.514 40.3559 57.5186C39.9 57.5231 39.4501 57.4115 39.0454 57.1933C38.6407 56.9752 38.2936 56.6573 38.0345 56.2674C36.8622 56.8729 35.8898 57.8274 35.241 59.0094C35.1371 59.1914 35.0822 59.3991 35.082 59.6108C35.0818 59.8225 35.1363 60.0303 35.2398 60.2126C35.3432 60.3948 35.4919 60.5449 35.6702 60.647C35.8485 60.749 36.05 60.7995 36.2534 60.7929L44.4422 60.5307C44.6476 60.5243 44.8475 60.4602 45.0207 60.3451C45.1939 60.2301 45.3338 60.0684 45.4258 59.8773C45.5177 59.6862 45.5581 59.4728 45.5427 59.2597C45.5273 59.0466 45.4567 58.8418 45.3384 58.6671Z" fill="#FFD997"/>
<path d="M40.3236 49.5736C39.1239 49.5736 38.147 51.0894 38.147 52.9538C38.147 54.8504 39.1028 56.3356 40.3236 56.3356C41.5445 56.3356 42.4995 54.8504 42.4995 52.9538C42.4995 51.0894 41.5226 49.5736 40.3236 49.5736Z" fill="#FFD997"/>
<path fill-rule="evenodd" clip-rule="evenodd" d="M31.1103 30.5845C30.6599 29.8921 30.0455 29.3322 29.3262 28.9587C29.1588 29.2211 28.9321 29.4368 28.666 29.587C28.3998 29.7373 28.1023 29.8174 27.7995 29.8204C27.4967 29.8234 27.1978 29.7492 26.9289 29.6044C26.66 29.4595 26.4294 29.2483 26.2572 28.9894C25.4791 29.392 24.8339 30.0262 24.4036 30.8113C24.3346 30.9323 24.298 31.0703 24.2979 31.211C24.2977 31.3517 24.3339 31.4898 24.4026 31.611C24.4714 31.7322 24.5702 31.8319 24.6887 31.8997C24.8072 31.9676 24.9411 32.0011 25.0763 31.9967L30.5169 31.8216C30.6532 31.8172 30.7858 31.7745 30.9006 31.6981C31.0154 31.6216 31.1082 31.5142 31.169 31.3874C31.2299 31.2605 31.2566 31.1189 31.2462 30.9775C31.2359 30.8361 31.1889 30.7003 31.1103 30.5845Z" fill="#FFD997"/>
<path d="M27.7783 24.5416C26.9811 24.5416 26.3325 25.5496 26.3325 26.7883C26.3325 28.0443 26.9667 29.035 27.7783 29.035C28.59 29.035 29.2242 28.0482 29.2242 26.7883C29.2242 25.5496 28.5749 24.5416 27.7783 24.5416Z" fill="#FFD997"/>
<path fill-rule="evenodd" clip-rule="evenodd" d="M132.679 75.4432C132.228 74.7512 131.614 74.1914 130.895 73.8175C130.727 74.0799 130.501 74.2956 130.235 74.4458C129.968 74.596 129.671 74.6761 129.368 74.6792C129.065 74.6822 128.766 74.608 128.498 74.4631C128.229 74.3183 127.998 74.1071 127.826 73.8481C127.048 74.2509 126.402 74.8851 125.972 75.6701C125.902 75.7911 125.866 75.9291 125.866 76.0698C125.866 76.2105 125.902 76.3486 125.97 76.4698C126.039 76.5909 126.138 76.6906 126.257 76.7585C126.375 76.8263 126.509 76.8598 126.644 76.8555L132.085 76.6812C132.222 76.6769 132.355 76.6342 132.47 76.5577C132.585 76.4812 132.677 76.3737 132.738 76.2467C132.799 76.1197 132.826 75.9779 132.815 75.8365C132.805 75.695 132.758 75.5591 132.679 75.4432Z" fill="#FFD997"/>
<path d="M129.346 69.4004C128.55 69.4004 127.9 70.4083 127.9 71.6471C127.9 72.9031 128.535 73.8937 129.346 73.8937C130.157 73.8937 130.792 72.907 130.792 71.6471C130.792 70.4083 130.143 69.4004 129.346 69.4004Z" fill="#FFD997"/>
</svg>
