<svg width="153" height="158" viewBox="0 0 153 158" fill="none" xmlns="http://www.w3.org/2000/svg">
<path fill-rule="evenodd" clip-rule="evenodd" d="M125.916 10.9485C125.916 9.25827 125.266 7.63713 124.11 6.44156C122.953 5.24599 121.384 4.5738 119.747 4.57275H17.7333C16.0962 4.57275 14.5261 5.24449 13.3685 6.44017C12.2109 7.63586 11.5605 9.25756 11.5605 10.9485V83.1199C11.5605 84.8107 12.2109 86.4326 13.3685 87.6281C14.5261 88.8237 16.0962 89.4956 17.7333 89.4956H119.747C121.384 89.4956 122.954 88.8237 124.112 87.6281C125.269 86.4326 125.92 84.8107 125.92 83.1199L125.916 10.9485Z" fill="#81F8F8"/>
<path fill-rule="evenodd" clip-rule="evenodd" d="M120.325 10.0961H17.2871V79.3621H120.325V10.0961Z" fill="white"/>
<path d="M120.324 79.6321H17.2866C17.2523 79.6321 17.2181 79.6251 17.1864 79.6117C17.1545 79.5984 17.1256 79.5787 17.1012 79.5536C17.0769 79.5285 17.0576 79.4987 17.0444 79.4657C17.0313 79.4327 17.0244 79.3974 17.0244 79.3621V10.096C17.0244 10.0605 17.0313 10.0253 17.0444 9.99249C17.0576 9.95967 17.0769 9.92992 17.1012 9.9048C17.1256 9.87976 17.1545 9.85982 17.1864 9.84632C17.2181 9.83282 17.2523 9.82591 17.2866 9.82599H120.324C120.358 9.82591 120.392 9.83282 120.424 9.84632C120.456 9.85982 120.485 9.87976 120.509 9.9048C120.533 9.92992 120.552 9.95967 120.566 9.99249C120.579 10.0253 120.586 10.0605 120.586 10.096V79.3621C120.586 79.3974 120.579 79.4327 120.566 79.4657C120.552 79.4987 120.533 79.5285 120.509 79.5536C120.485 79.5787 120.456 79.5984 120.424 79.6117C120.392 79.6251 120.358 79.6321 120.324 79.6321ZM17.5488 79.092H120.061V10.3669H17.5488V79.092Z" fill="black"/>
<path fill-rule="evenodd" clip-rule="evenodd" d="M78.6397 89.6345L55.478 89.516L50.2446 113.521L86.7246 113.488L78.6397 89.6345Z" fill="white"/>
<path d="M119.747 4.29956H17.7329C16.0258 4.3006 14.389 5.00142 13.1819 6.2481C11.9748 7.49477 11.2961 9.18532 11.2949 10.9485V83.1198C11.2969 84.8822 11.9756 86.5715 13.1819 87.8173C14.3883 89.0631 16.0239 89.7641 17.7298 89.7656H55.156L49.988 113.462C49.9795 113.501 49.9797 113.543 49.9885 113.582C49.9974 113.621 50.0147 113.658 50.0393 113.689C50.0637 113.721 50.0948 113.747 50.1302 113.764C50.1655 113.781 50.2042 113.791 50.2434 113.791C88.7351 113.774 87.149 113.93 86.9681 113.398L78.9608 89.7649H119.747C121.453 89.7633 123.089 89.0623 124.295 87.8165C125.501 86.5707 126.18 84.8814 126.182 83.119V10.9485C126.18 9.18587 125.502 7.49578 124.296 6.2492C123.089 5.00262 121.453 4.30143 119.747 4.29956ZM50.5725 113.25L55.6554 89.936L84.3005 107.159L86.3525 113.219L50.5725 113.25ZM125.654 83.1198C125.653 84.7385 125.029 86.2904 123.921 87.435C122.813 88.5795 121.31 89.224 119.743 89.2256H17.7329C16.1657 89.224 14.6632 88.5795 13.555 87.435C12.4468 86.2904 11.8234 84.7385 11.8216 83.1198V10.9485C11.8234 9.32976 12.4468 7.77782 13.555 6.63317C14.6632 5.48853 16.1657 4.84465 17.7329 4.84278H119.747C121.314 4.84444 122.817 5.48825 123.925 6.63294C125.033 7.77763 125.657 9.32968 125.658 10.9485L125.654 83.1198Z" fill="black"/>
<path fill-rule="evenodd" clip-rule="evenodd" d="M67.8921 81.2406C68.4591 81.2406 69.0134 81.4141 69.4848 81.7399C69.9563 82.0649 70.3237 82.5272 70.5407 83.0689C70.7576 83.6097 70.8144 84.2055 70.7037 84.7794C70.593 85.354 70.3199 85.8815 69.919 86.296C69.5179 86.7097 69.007 86.9915 68.4509 87.1061C67.8948 87.2199 67.3184 87.1611 66.7945 86.9373C66.2707 86.7128 65.8231 86.3329 65.5081 85.8462C65.1933 85.3587 65.0252 84.7864 65.0254 84.2008C65.0258 83.4158 65.3279 82.663 65.8655 82.108C66.403 81.553 67.132 81.2406 67.8921 81.2406Z" fill="white"/>
<path d="M67.8918 87.4311C67.2731 87.4311 66.6683 87.2419 66.1538 86.8863C65.6394 86.5314 65.2384 86.0267 65.0017 85.4364C64.7649 84.846 64.7031 84.1961 64.8238 83.5696C64.9446 82.9424 65.2426 82.367 65.6801 81.9149C66.1177 81.4635 66.6751 81.1558 67.282 81.0309C67.8889 80.9061 68.5178 80.9705 69.0894 81.2154C69.661 81.4596 70.1495 81.874 70.4931 82.4055C70.8368 82.9369 71.0201 83.5618 71.02 84.2008C71.019 85.0572 70.6891 85.8783 70.1026 86.4843C69.5162 87.0896 68.7211 87.4303 67.8918 87.4311ZM67.8918 81.5098C67.3768 81.5098 66.8732 81.6676 66.4449 81.9627C66.0166 82.2587 65.6828 82.6787 65.4857 83.1701C65.2885 83.6615 65.2368 84.2023 65.3373 84.7244C65.4377 85.2464 65.6857 85.726 66.0499 86.102C66.4141 86.4781 66.8781 86.7348 67.3832 86.8384C67.8884 86.942 68.4121 86.8894 68.888 86.6853C69.3639 86.482 69.7708 86.1374 70.0571 85.6954C70.3433 85.2527 70.4962 84.733 70.4963 84.2008C70.4956 83.4872 70.2208 82.8035 69.7326 82.2995C69.2443 81.7947 68.5824 81.5114 67.8918 81.5106V81.5098Z" fill="black"/>
<path d="M86.7422 24.6311H25.2742C24.8925 24.6375 24.5133 24.5654 24.1588 24.4189C23.8044 24.2724 23.4816 24.0546 23.2094 23.778C22.9373 23.5014 22.7211 23.1717 22.5736 22.8079C22.4261 22.4442 22.3501 22.0538 22.3501 21.6595C22.3501 21.2651 22.4261 20.8747 22.5736 20.511C22.7211 20.1472 22.9373 19.8174 23.2094 19.5409C23.4816 19.2643 23.8044 19.0465 24.1588 18.9C24.5133 18.7535 24.8925 18.6814 25.2742 18.6878H86.7422C87.1238 18.6814 87.503 18.7535 87.8579 18.9C88.2121 19.0465 88.5351 19.2643 88.8071 19.5409C89.0792 19.8174 89.2951 20.1472 89.4425 20.511C89.5907 20.8747 89.6667 21.2651 89.6667 21.6595C89.6667 22.0538 89.5907 22.4442 89.4425 22.8079C89.2951 23.1717 89.0792 23.5014 88.8071 23.778C88.5351 24.0546 88.2121 24.2724 87.8579 24.4189C87.503 24.5654 87.1238 24.6375 86.7422 24.6311ZM25.2742 19.2263C24.9564 19.2119 24.6391 19.264 24.3413 19.3797C24.0435 19.4954 23.7715 19.6721 23.5417 19.8993C23.3119 20.1265 23.1289 20.3994 23.004 20.7015C22.8791 21.0037 22.8146 21.3289 22.8146 21.6575C22.8146 21.9861 22.8791 22.3112 23.004 22.6134C23.1289 22.9156 23.3119 23.1885 23.5417 23.4157C23.7715 23.6428 24.0435 23.8196 24.3413 23.9352C24.6391 24.0509 24.9564 24.1031 25.2742 24.0886H86.7422C87.3487 24.0611 87.921 23.7928 88.3405 23.34C88.7608 22.887 88.9949 22.2844 88.9949 21.6575C88.9949 21.0306 88.7608 20.4279 88.3405 19.975C87.921 19.5221 87.3487 19.2539 86.7422 19.2263H25.2742Z" fill="black"/>
<path d="M44.623 35.8644H25.2742C24.8925 35.8708 24.5133 35.7987 24.1588 35.6522C23.8044 35.5057 23.4816 35.2879 23.2094 35.0113C22.9373 34.7347 22.7211 34.405 22.5736 34.0412C22.4261 33.6776 22.3501 33.2872 22.3501 32.8928C22.3501 32.4984 22.4261 32.108 22.5736 31.7443C22.7211 31.3806 22.9373 31.0508 23.2094 30.7742C23.4816 30.4977 23.8044 30.2798 24.1588 30.1334C24.5133 29.9869 24.8925 29.9147 25.2742 29.9212H44.623C45.0048 29.9147 45.384 29.9869 45.7385 30.1334C46.093 30.2798 46.4156 30.4977 46.6878 30.7742C46.96 31.0508 47.1761 31.3806 47.3237 31.7443C47.4712 32.108 47.5472 32.4984 47.5472 32.8928C47.5472 33.2872 47.4712 33.6776 47.3237 34.0412C47.1761 34.405 46.96 34.7347 46.6878 35.0113C46.4156 35.2879 46.093 35.5057 45.7385 35.6522C45.384 35.7987 45.0048 35.8708 44.623 35.8644ZM25.2742 30.462C24.9564 30.4476 24.6391 30.4997 24.3413 30.6154C24.0435 30.7311 23.7715 30.9078 23.5417 31.135C23.3119 31.3622 23.1289 31.6351 23.004 31.9372C22.8791 32.2394 22.8146 32.5646 22.8146 32.8932C22.8146 33.2218 22.8791 33.5469 23.004 33.8491C23.1289 34.1513 23.3119 34.4242 23.5417 34.6513C23.7715 34.8785 24.0435 35.0553 24.3413 35.1709C24.6391 35.2866 24.9564 35.3388 25.2742 35.3243H44.623C45.2294 35.2968 45.802 35.0285 46.2216 34.5757C46.6412 34.1227 46.8755 33.5201 46.8755 32.8932C46.8755 32.2663 46.6412 31.6636 46.2216 31.2107C45.802 30.7578 45.2294 30.4896 44.623 30.462H25.2742Z" fill="black"/>
<path d="M66.1902 35.8644H53.3895C53.0078 35.8708 52.6286 35.7987 52.2741 35.6522C51.9196 35.5057 51.5969 35.2879 51.3247 35.0113C51.0526 34.7347 50.8364 34.405 50.6889 34.0412C50.5413 33.6776 50.4653 33.2872 50.4653 32.8928C50.4653 32.4984 50.5413 32.108 50.6889 31.7443C50.8364 31.3806 51.0526 31.0508 51.3247 30.7742C51.5969 30.4977 51.9196 30.2798 52.2741 30.1334C52.6286 29.9869 53.0078 29.9147 53.3895 29.9212H66.1902C66.5719 29.9147 66.951 29.9869 67.3056 30.1334C67.66 30.2798 67.9827 30.4977 68.2549 30.7742C68.527 31.0508 68.7432 31.3806 68.8908 31.7443C69.0383 32.108 69.1143 32.4984 69.1143 32.8928C69.1143 33.2872 69.0383 33.6776 68.8908 34.0412C68.7432 34.405 68.527 34.7347 68.2549 35.0113C67.9827 35.2879 67.66 35.5057 67.3056 35.6522C66.951 35.7987 66.5719 35.8708 66.1902 35.8644ZM53.3895 30.462C52.7832 30.4896 52.2105 30.7578 51.7909 31.2107C51.3713 31.6636 51.1371 32.2663 51.1371 32.8932C51.1371 33.5201 51.3713 34.1227 51.7909 34.5757C52.2105 35.0285 52.7832 35.2968 53.3895 35.3243H66.1902C66.7964 35.2968 67.3691 35.0285 67.7887 34.5757C68.2083 34.1227 68.4425 33.5201 68.4425 32.8932C68.4425 32.2663 68.2083 31.6636 67.7887 31.2107C67.3691 30.7578 66.7964 30.4896 66.1902 30.462H53.3895Z" fill="black"/>
<path d="M112.337 35.8644H74.9561C74.2012 35.8517 73.4813 35.5331 72.9518 34.9772C72.4223 34.4213 72.1255 33.6726 72.1255 32.8928C72.1255 32.1129 72.4223 31.3643 72.9518 30.8084C73.4813 30.2525 74.2012 29.9338 74.9561 29.9212H112.337C112.718 29.9147 113.097 29.9869 113.452 30.1334C113.807 30.2798 114.13 30.4977 114.402 30.7742C114.674 31.0508 114.89 31.3806 115.037 31.7443C115.185 32.108 115.261 32.4984 115.261 32.8928C115.261 33.2872 115.185 33.6776 115.037 34.0412C114.89 34.405 114.674 34.7347 114.402 35.0113C114.13 35.2879 113.807 35.5057 113.452 35.6522C113.097 35.7987 112.718 35.8708 112.337 35.8644ZM74.9561 30.462C74.6383 30.4476 74.321 30.4997 74.0232 30.6154C73.7254 30.7311 73.4534 30.9078 73.2236 31.135C72.9937 31.3622 72.8109 31.6351 72.6858 31.9372C72.5609 32.2394 72.4964 32.5646 72.4964 32.8932C72.4964 33.2218 72.5609 33.5469 72.6858 33.8491C72.8109 34.1513 72.9937 34.4242 73.2236 34.6513C73.4534 34.8785 73.7254 35.0553 74.0232 35.1709C74.321 35.2866 74.6383 35.3388 74.9561 35.3243H112.337C112.654 35.3388 112.972 35.2866 113.27 35.1709C113.567 35.0553 113.839 34.8785 114.07 34.6513C114.299 34.4242 114.482 34.1513 114.607 33.8491C114.732 33.5469 114.796 33.2218 114.796 32.8932C114.796 32.5646 114.732 32.2394 114.607 31.9372C114.482 31.6351 114.299 31.3622 114.07 31.135C113.839 30.9078 113.567 30.7311 113.27 30.6154C112.972 30.4997 112.654 30.4476 112.337 30.462H74.9561Z" fill="black"/>
<path d="M62.654 47.1001H25.2742C24.8925 47.1065 24.5133 47.0344 24.1588 46.8879C23.8044 46.7415 23.4816 46.5236 23.2094 46.247C22.9373 45.9704 22.7211 45.6407 22.5736 45.277C22.4261 44.9133 22.3501 44.5228 22.3501 44.1285C22.3501 43.7341 22.4261 43.3437 22.5736 42.98C22.7211 42.6163 22.9373 42.2865 23.2094 42.0099C23.4816 41.7334 23.8044 41.5155 24.1588 41.3691C24.5133 41.2226 24.8925 41.1505 25.2742 41.1569H62.654C63.0358 41.1505 63.4149 41.2226 63.7695 41.3691C64.1239 41.5155 64.4466 41.7334 64.7188 42.0099C64.991 42.2865 65.2071 42.6163 65.3547 42.98C65.5022 43.3437 65.5782 43.7341 65.5782 44.1285C65.5782 44.5228 65.5022 44.9133 65.3547 45.277C65.2071 45.6407 64.991 45.9704 64.7188 46.247C64.4466 46.5236 64.1239 46.7415 63.7695 46.8879C63.4149 47.0344 63.0358 47.1065 62.654 47.1001ZM25.2742 41.697C24.9564 41.6825 24.6391 41.7346 24.3413 41.8504C24.0435 41.966 23.7715 42.1428 23.5417 42.3699C23.3119 42.5971 23.1289 42.87 23.004 43.1721C22.8791 43.4744 22.8146 43.7995 22.8146 44.1281C22.8146 44.4567 22.8791 44.7819 23.004 45.084C23.1289 45.3862 23.3119 45.6591 23.5417 45.8863C23.7715 46.1135 24.0435 46.2902 24.3413 46.4059C24.6391 46.5215 24.9564 46.5737 25.2742 46.5593H62.654C62.9719 46.5737 63.2892 46.5215 63.587 46.4059C63.8848 46.2902 64.1567 46.1135 64.3866 45.8863C64.6164 45.6591 64.7994 45.3862 64.9243 45.084C65.0492 44.7819 65.1137 44.4567 65.1137 44.1281C65.1137 43.7995 65.0492 43.4744 64.9243 43.1721C64.7994 42.87 64.6164 42.5971 64.3866 42.3699C64.1567 42.1428 63.8848 41.966 63.587 41.8504C63.2892 41.7346 62.9719 41.6825 62.654 41.697H25.2742Z" fill="black"/>
<path d="M112.337 47.1001H71.4205C70.6656 47.0874 69.9457 46.7688 69.4162 46.2128C68.8866 45.657 68.5898 44.9083 68.5898 44.1285C68.5898 43.3486 68.8866 42.6 69.4162 42.0441C69.9457 41.4882 70.6656 41.1695 71.4205 41.1569H112.337C112.718 41.1505 113.097 41.2226 113.452 41.3691C113.806 41.5155 114.129 41.7334 114.402 42.0099C114.674 42.2865 114.889 42.6163 115.037 42.98C115.185 43.3437 115.261 43.7341 115.261 44.1285C115.261 44.5228 115.185 44.9133 115.037 45.277C114.889 45.6407 114.674 45.9704 114.402 46.247C114.129 46.5236 113.806 46.7415 113.452 46.8879C113.097 47.0344 112.718 47.1065 112.337 47.1001ZM71.4205 41.697C70.8141 41.7245 70.2416 41.9927 69.822 42.4456C69.4023 42.8986 69.1681 43.5012 69.1681 44.1281C69.1681 44.7549 69.4023 45.3577 69.822 45.8106C70.2416 46.2635 70.8141 46.5317 71.4205 46.5593H112.337C112.654 46.5737 112.972 46.5215 113.27 46.4059C113.567 46.2902 113.839 46.1135 114.069 45.8863C114.299 45.6591 114.482 45.3862 114.607 45.084C114.732 44.7819 114.796 44.4567 114.796 44.1281C114.796 43.7995 114.732 43.4744 114.607 43.1721C114.482 42.87 114.299 42.5971 114.069 42.3699C113.839 42.1428 113.567 41.966 113.27 41.8504C112.972 41.7346 112.654 41.6825 112.337 41.697H71.4205Z" fill="black"/>
<path d="M51.3756 58.335H25.2742C24.8925 58.3415 24.5133 58.2693 24.1588 58.1229C23.8044 57.9764 23.4816 57.7585 23.2094 57.482C22.9373 57.2054 22.7211 56.8757 22.5736 56.5119C22.4261 56.1482 22.3501 55.7578 22.3501 55.3634C22.3501 54.969 22.4261 54.5787 22.5736 54.215C22.7211 53.8512 22.9373 53.5214 23.2094 53.2449C23.4816 52.9683 23.8044 52.7505 24.1588 52.604C24.5133 52.4575 24.8925 52.3854 25.2742 52.3918H51.3756C51.7574 52.3854 52.1366 52.4575 52.4911 52.604C52.8456 52.7505 53.1683 52.9683 53.4404 53.2449C53.7126 53.5214 53.9287 53.8512 54.0763 54.215C54.2238 54.5787 54.2998 54.969 54.2998 55.3634C54.2998 55.7578 54.2238 56.1482 54.0763 56.5119C53.9287 56.8757 53.7126 57.2054 53.4404 57.482C53.1683 57.7585 52.8456 57.9764 52.4911 58.1229C52.1366 58.2693 51.7574 58.3415 51.3756 58.335ZM25.2742 52.9327C24.9564 52.9182 24.6391 52.9704 24.3413 53.0861C24.0435 53.2017 23.7715 53.3785 23.5417 53.6057C23.3119 53.8328 23.1289 54.1057 23.004 54.4079C22.8791 54.7101 22.8146 55.0352 22.8146 55.3638C22.8146 55.6924 22.8791 56.0176 23.004 56.3197C23.1289 56.6219 23.3119 56.8948 23.5417 57.122C23.7715 57.3492 24.0435 57.5259 24.3413 57.6416C24.6391 57.7572 24.9564 57.8094 25.2742 57.795H51.3756C51.6935 57.8094 52.0108 57.7572 52.3086 57.6416C52.6064 57.5259 52.8784 57.3492 53.1082 57.122C53.338 56.8948 53.521 56.6219 53.6459 56.3197C53.7708 56.0176 53.8353 55.6924 53.8353 55.3638C53.8353 55.0352 53.7708 54.7101 53.6459 54.4079C53.521 54.1057 53.338 53.8328 53.1082 53.6057C52.8784 53.3785 52.6064 53.2017 52.3086 53.0861C52.0108 52.9704 51.6935 52.9182 51.3756 52.9327H25.2742Z" fill="black"/>
<path d="M66.1905 70.7726H25.2743C24.5112 70.7726 23.7793 70.4594 23.2397 69.9021C22.7001 69.3447 22.397 68.5888 22.397 67.8006C22.397 67.0123 22.7001 66.2564 23.2397 65.699C23.7793 65.1417 24.5112 64.8286 25.2743 64.8286H66.1905C66.9536 64.8286 67.6854 65.1417 68.225 65.699C68.7646 66.2564 69.0678 67.0123 69.0678 67.8006C69.0678 68.5888 68.7646 69.3447 68.225 69.9021C67.6854 70.4594 66.9536 70.7726 66.1905 70.7726ZM25.2743 65.3726C24.668 65.4001 24.0954 65.6683 23.6758 66.1212C23.2562 66.5742 23.022 67.1768 23.022 67.8037C23.022 68.4306 23.2562 69.0332 23.6758 69.4862C24.0954 69.9391 24.668 70.2073 25.2743 70.2348H66.1905C66.5083 70.2493 66.8257 70.1971 67.1234 70.0815C67.4212 69.9658 67.6931 69.789 67.923 69.5619C68.1528 69.3347 68.3358 69.0618 68.4607 68.7596C68.5857 68.4574 68.6501 68.1323 68.6501 67.8037C68.6501 67.4751 68.5857 67.15 68.4607 66.8477C68.3358 66.5456 68.1528 66.2727 67.923 66.0455C67.6931 65.8184 67.4212 65.6416 67.1234 65.5259C66.8257 65.4102 66.5083 65.3581 66.1905 65.3726H25.2743Z" fill="black"/>
<path d="M112.337 70.7726H74.9565C74.1933 70.7726 73.4615 70.4594 72.9219 69.9021C72.3823 69.3447 72.0791 68.5888 72.0791 67.8006C72.0791 67.0123 72.3823 66.2564 72.9219 65.699C73.4615 65.1417 74.1933 64.8286 74.9565 64.8286H112.337C113.1 64.8286 113.832 65.1417 114.372 65.699C114.911 66.2564 115.214 67.0123 115.214 67.8006C115.214 68.5888 114.911 69.3447 114.372 69.9021C113.832 70.4594 113.1 70.7726 112.337 70.7726ZM74.9565 65.3726C74.6386 65.3581 74.3213 65.4102 74.0236 65.5259C73.7258 65.6416 73.4538 65.8184 73.224 66.0455C72.9941 66.2727 72.8112 66.5456 72.6863 66.8477C72.5612 67.15 72.4969 67.4751 72.4969 67.8037C72.4969 68.1323 72.5612 68.4574 72.6863 68.7596C72.8112 69.0618 72.9941 69.3347 73.224 69.5619C73.4538 69.789 73.7258 69.9658 74.0236 70.0815C74.3213 70.1971 74.6386 70.2493 74.9565 70.2348H112.337C112.655 70.2493 112.972 70.1971 113.27 70.0815C113.567 69.9658 113.84 69.789 114.07 69.5619C114.299 69.3347 114.483 69.0618 114.607 68.7596C114.733 68.4574 114.796 68.1323 114.796 67.8037C114.796 67.4751 114.733 67.15 114.607 66.8477C114.483 66.5456 114.299 66.2727 114.07 66.0455C113.84 65.8184 113.567 65.6416 113.27 65.5259C112.972 65.4102 112.655 65.3581 112.337 65.3726H74.9565Z" fill="black"/>
<path d="M112.337 58.335H60.783C60.4012 58.3415 60.0221 58.2693 59.6676 58.1229C59.3131 57.9764 58.9904 57.7585 58.7182 57.482C58.4461 57.2054 58.2299 56.8757 58.0824 56.5119C57.9348 56.1482 57.8589 55.7578 57.8589 55.3634C57.8589 54.969 57.9348 54.5787 58.0824 54.215C58.2299 53.8512 58.4461 53.5214 58.7182 53.2449C58.9904 52.9683 59.3131 52.7505 59.6676 52.604C60.0221 52.4575 60.4012 52.3854 60.783 52.3918H112.337C112.718 52.3854 113.098 52.4575 113.452 52.604C113.807 52.7505 114.13 52.9683 114.402 53.2449C114.674 53.5214 114.89 53.8512 115.038 54.215C115.185 54.5787 115.261 54.969 115.261 55.3634C115.261 55.7578 115.185 56.1482 115.038 56.5119C114.89 56.8757 114.674 57.2054 114.402 57.482C114.13 57.7585 113.807 57.9764 113.452 58.1229C113.098 58.2693 112.718 58.3415 112.337 58.335ZM60.783 52.9327C60.1767 52.9602 59.604 53.2284 59.1844 53.6813C58.7648 54.1343 58.5306 54.7369 58.5306 55.3638C58.5306 55.9907 58.7648 56.5934 59.1844 57.0463C59.604 57.4992 60.1767 57.7674 60.783 57.795H112.337C112.654 57.8094 112.972 57.7572 113.27 57.6416C113.567 57.5259 113.839 57.3492 114.07 57.122C114.299 56.8948 114.482 56.6219 114.607 56.3197C114.732 56.0176 114.796 55.6924 114.796 55.3638C114.796 55.0352 114.732 54.7101 114.607 54.4079C114.482 54.1057 114.299 53.8328 114.07 53.6057C113.839 53.3785 113.567 53.2017 113.27 53.0861C112.972 52.9704 112.654 52.9182 112.337 52.9327H60.783Z" fill="black"/>
<path d="M111.498 24.6311H94.4948C94.1133 24.6375 93.734 24.5654 93.3791 24.4189C93.025 24.2724 92.702 24.0546 92.4299 23.778C92.1578 23.5014 91.942 23.1717 91.7945 22.8079C91.6463 22.4442 91.5703 22.0538 91.5703 21.6595C91.5703 21.2651 91.6463 20.8747 91.7945 20.511C91.942 20.1472 92.1578 19.8174 92.4299 19.5409C92.702 19.2643 93.025 19.0465 93.3791 18.9C93.734 18.7535 94.1133 18.6814 94.4948 18.6878H111.498C111.879 18.6814 112.258 18.7535 112.613 18.9C112.967 19.0465 113.29 19.2643 113.562 19.5409C113.835 19.8174 114.05 20.1472 114.198 20.511C114.346 20.8747 114.422 21.2651 114.422 21.6595C114.422 22.0538 114.346 22.4442 114.198 22.8079C114.05 23.1717 113.835 23.5014 113.562 23.778C113.29 24.0546 112.967 24.2724 112.613 24.4189C112.258 24.5654 111.879 24.6375 111.498 24.6311ZM94.4948 19.2279C93.8883 19.2555 93.316 19.5237 92.8965 19.9766C92.477 20.4295 92.2422 21.0322 92.2422 21.6591C92.2422 22.286 92.477 22.8886 92.8965 23.3415C93.316 23.7944 93.8883 24.0627 94.4948 24.0902H111.498C112.104 24.0627 112.676 23.7944 113.096 23.3415C113.515 22.8886 113.75 22.286 113.75 21.6591C113.75 21.0322 113.515 20.4295 113.096 19.9766C112.676 19.5237 112.104 19.2555 111.498 19.2279H94.4948Z" fill="black"/>
<path fill-rule="evenodd" clip-rule="evenodd" d="M133.536 149.458L4.07471 149.058C4.07471 149.058 14.7907 129.577 19.3256 124.04L115.795 123.003C115.795 123.003 129.551 141.849 133.536 149.458Z" fill="white"/>
<path fill-rule="evenodd" clip-rule="evenodd" d="M133.536 149.458L132.586 152.96C132.586 152.96 13.6393 153.498 6.02259 152.881C5.0031 151.848 4.32201 150.511 4.07471 149.058L133.536 149.458Z" fill="#FFD997"/>
<path d="M133.766 149.329C130 141.69 116.144 123.032 116.006 122.84L19.1224 123.866C15.2632 128.576 3.74915 148.742 3.81375 149.107C4.07061 150.613 4.77721 152 5.83459 153.07C6.03143 153.271 132.552 153.227 132.584 153.227C132.641 153.227 132.697 153.208 132.742 153.172C132.787 153.136 132.82 153.086 132.835 153.03C133.889 149.171 133.835 149.47 133.766 149.329ZM19.4485 124.31L115.664 123.275C116.776 124.801 129.073 141.753 133.09 149.186L4.52207 148.794C6.07551 145.992 15.3027 129.436 19.4485 124.31ZM132.384 152.69C130.097 152.701 11.0011 152.68 6.13631 152.616C5.26531 151.714 4.6611 150.574 4.39439 149.33L133.189 149.727L132.384 152.69Z" fill="black"/>
<path d="M125.269 143.711H115.343L112.607 138.358H119.266C119.333 138.354 119.396 138.324 119.443 138.274C119.489 138.224 119.514 138.157 119.514 138.087C119.514 138.018 119.489 137.951 119.443 137.901C119.396 137.851 119.333 137.821 119.266 137.817H112.33L110.121 133.5L116.297 133.461C116.331 133.461 116.366 133.454 116.398 133.44C116.429 133.426 116.458 133.406 116.482 133.381C116.506 133.355 116.525 133.325 116.538 133.292C116.552 133.259 116.558 133.224 116.558 133.189C116.558 133.04 116.433 132.886 116.294 132.92L109.845 132.961L108.118 129.586L112.222 129.553C112.289 129.549 112.352 129.517 112.398 129.467C112.443 129.416 112.468 129.349 112.468 129.28C112.468 129.21 112.441 129.144 112.395 129.094C112.348 129.045 112.284 129.015 112.218 129.012L107.846 129.047L106.066 125.567C106.033 125.504 105.978 125.456 105.912 125.435C105.846 125.414 105.773 125.421 105.712 125.454C105.651 125.488 105.605 125.545 105.584 125.614C105.564 125.683 105.571 125.756 105.603 125.82L107.256 129.052L101.344 129.1L100.626 127.203C100.601 127.136 100.551 127.082 100.488 127.054C100.424 127.025 100.352 127.023 100.287 127.049C100.222 127.075 100.17 127.127 100.143 127.192C100.115 127.258 100.113 127.333 100.138 127.399L100.783 129.104L35.9317 129.631L36.9622 127.418C36.9925 127.354 36.9966 127.279 36.9737 127.212C36.9508 127.143 36.9029 127.088 36.8402 127.056C36.7777 127.026 36.7057 127.021 36.64 127.045C36.5744 127.068 36.5205 127.118 36.4903 127.183L35.3503 129.634L28.3765 129.691L29.6822 127.439C29.7158 127.377 29.7247 127.304 29.7072 127.236C29.6896 127.168 29.647 127.11 29.5883 127.074C29.5297 127.037 29.4596 127.026 29.3931 127.042C29.3266 127.059 29.2689 127.101 29.2323 127.161L27.7624 129.695L22.9478 129.735C22.8809 129.739 22.8178 129.768 22.7717 129.819C22.7255 129.869 22.6998 129.936 22.6998 130.006C22.6998 130.075 22.7255 130.141 22.7717 130.192C22.8178 130.242 22.8809 130.272 22.9478 130.276L27.4455 130.239L25.5569 133.496L18.5148 133.54C18.4454 133.54 18.3789 133.568 18.3299 133.619C18.2809 133.669 18.2533 133.738 18.2533 133.81C18.2533 133.881 18.2809 133.95 18.3299 134C18.3789 134.051 18.4454 134.08 18.5148 134.08L25.2339 134.037L23.0413 137.819H15.1533C15.0863 137.823 15.0232 137.853 14.9771 137.903C14.9309 137.954 14.9052 138.02 14.9052 138.089C14.9052 138.159 14.9309 138.226 14.9771 138.276C15.0232 138.327 15.0863 138.356 15.1533 138.36H22.7305L19.6145 143.737H12.3428C12.2758 143.741 12.2128 143.771 12.1666 143.821C12.1204 143.871 12.0947 143.938 12.0947 144.007C12.0947 144.077 12.1204 144.143 12.1666 144.194C12.2128 144.244 12.2758 144.274 12.3428 144.278H19.3014L18.2936 146.015C18.2618 146.076 18.2541 146.148 18.2722 146.215C18.2902 146.283 18.3326 146.34 18.3905 146.375C18.4484 146.41 18.5174 146.422 18.5831 146.407C18.6489 146.391 18.7063 146.35 18.7435 146.292L19.9116 144.277H28.5255L27.7054 146.038C27.6778 146.102 27.6753 146.175 27.6987 146.241C27.7221 146.307 27.7696 146.361 27.8309 146.392C27.8922 146.422 27.9628 146.427 28.0274 146.405C28.0921 146.383 28.1459 146.335 28.1774 146.273L29.1069 144.277L45.4552 144.273L44.9232 146.078C44.9056 146.147 44.9143 146.219 44.9473 146.28C44.9804 146.341 45.0353 146.388 45.1005 146.407C45.1656 146.428 45.2359 146.421 45.2964 146.389C45.357 146.357 45.403 146.302 45.4248 146.235L45.9994 144.273H52.5042L52.1881 146.11C52.178 146.18 52.1945 146.25 52.2343 146.308C52.274 146.364 52.3336 146.403 52.4006 146.416C52.4677 146.428 52.5367 146.413 52.5931 146.374C52.6495 146.334 52.6888 146.274 52.7026 146.205L53.0362 144.273L106.511 144.26L107.267 146.256C107.292 146.323 107.342 146.377 107.406 146.406C107.47 146.434 107.542 146.436 107.607 146.41C107.671 146.384 107.724 146.332 107.752 146.266C107.779 146.2 107.781 146.126 107.756 146.059L107.072 144.26H115.02L116.057 146.286C116.091 146.347 116.147 146.391 116.211 146.41C116.277 146.429 116.347 146.421 116.406 146.388C116.466 146.356 116.511 146.301 116.532 146.235C116.553 146.168 116.549 146.096 116.52 146.033L115.613 144.26H125.265C125.336 144.26 125.404 144.231 125.454 144.18C125.504 144.129 125.532 144.06 125.533 143.987C125.533 143.914 125.505 143.844 125.456 143.792C125.407 143.741 125.34 143.712 125.269 143.711ZM111.736 137.823H104.641L103.022 133.548L109.529 133.507L111.736 137.823ZM49.0432 133.89L54.3031 133.857L53.6192 137.823H47.891L49.0432 133.89ZM47.3438 137.823H32.1119L33.8987 133.986L48.4945 133.894L47.3438 137.823ZM54.8352 133.854L102.461 133.552L104.078 137.823H54.1504L54.8352 133.854ZM107.526 129.592L109.253 132.967L102.819 133.008L101.543 129.64L107.526 129.592ZM35.674 130.175L100.982 129.645L102.257 133.012L54.9279 133.313L55.4097 130.518C55.4219 130.447 55.4064 130.374 55.3668 130.316C55.3271 130.258 55.2664 130.217 55.1981 130.205C55.1297 130.192 55.0594 130.208 55.0024 130.249C54.9455 130.29 54.9067 130.353 54.8944 130.423L54.3959 133.316L49.202 133.349L50.0213 130.549C50.0389 130.48 50.0303 130.408 49.9972 130.347C49.9642 130.286 49.9092 130.24 49.8441 130.22C49.7789 130.199 49.7087 130.206 49.6481 130.238C49.5877 130.27 49.5416 130.325 49.5197 130.392L48.6533 133.351L34.1518 133.443L35.674 130.175ZM28.0535 130.237L35.0903 130.18L33.5703 133.448L26.1672 133.495L28.0535 130.237ZM25.8495 134.037L33.315 133.99L31.5298 137.823H23.6546L25.8495 134.037ZM28.7755 143.738H20.2232L23.3392 138.362H31.2828L28.7755 143.738ZM45.6118 143.738H29.3569L31.8596 138.364H47.1858L45.6118 143.738ZM52.6 143.738H46.1598L47.7322 138.368H53.5249L52.6 143.738ZM53.132 143.738L54.0577 138.37H104.282L106.31 143.725L53.132 143.738ZM106.872 143.725L104.846 138.37H112.012L114.748 143.723L106.872 143.725Z" fill="black"/>
<path fill-rule="evenodd" clip-rule="evenodd" d="M87.6932 66.51C86.3252 64.7657 84.5521 62.4657 83.4471 61.2874C82.0175 59.7645 79.0391 56.8475 79.7231 54.3794C80.4071 51.9114 82.4021 51.7402 84.9116 53.6792C87.4211 55.6181 92.6811 60.365 92.6811 60.365L95.7302 63.5309L100.893 65.63C98.4145 62.388 97.8111 61.7168 95.7302 60.5684C95.7302 60.5684 90.9597 55.8544 92.4987 53.3252C94.0377 50.7959 95.1215 51.3917 96.3527 52.5362C97.5839 53.6808 100.97 56.8694 102.198 57.3585C103.426 57.8475 103.685 57.8342 105.73 60.0408C107.774 62.2475 109.843 66.3208 111.969 67.9324C112.024 66.1306 111.554 64.3533 110.621 62.8299C109.106 60.6115 106.75 56.9731 106.826 54.9321C106.902 52.8911 107.755 51.3595 110.433 53.1477C113.111 54.936 114.409 57.7007 116.191 60.6304C117.973 63.56 117.611 67.8147 118.9 70.574C120.026 73.1149 120.814 75.8014 121.243 78.5605C121.889 81.7139 124.253 84.7754 125.908 89.779C127.061 92.9684 129.011 95.785 131.56 97.943C126.435 103.616 122.405 110.247 119.685 117.48C119.685 117.48 115.539 112.421 113.769 112.015C111.999 111.609 102.684 108.084 99.0522 105.389C95.4201 102.695 94.3645 101.753 92.9463 99.7893C91.5282 97.826 87.7586 95.2732 85.7172 93.233C83.6759 91.1928 84.1661 89.7005 83.6531 87.9468C83.1401 86.1931 80.1213 82.809 83.2199 81.2382C86.3184 79.6674 89.0073 83.7981 91.212 86.8611C93.4168 89.9242 94.7665 89.0591 94.7665 89.0591C94.7665 89.0591 96.4431 85.7669 95.3647 82.8938C94.2862 80.0207 94.1631 80.421 93.0847 76.8194C92.5253 74.9886 91.8162 73.2104 90.9643 71.5042C90.9643 71.5113 90.4695 72.8913 87.0883 74.1881C83.707 75.4849 81.7097 72.133 82.1657 70.5842C82.6217 69.0354 87.6932 66.51 87.6932 66.51Z" fill="#FFD997"/>
<path d="M81.865 79.9225C79.433 77.6578 78.3515 75.6608 78.6487 73.9879C78.7771 73.4421 79.0294 72.9357 79.3851 72.5104C79.74 72.0852 80.1884 71.7532 80.6923 71.5419C80.7569 71.5158 80.8291 71.5175 80.8929 71.5463C80.956 71.5752 81.0062 71.6289 81.0313 71.6957C81.0563 71.7625 81.0548 71.837 81.0267 71.9027C80.9993 71.9683 80.9469 72.0198 80.8823 72.0459C80.4628 72.2269 80.0889 72.5057 79.7909 72.8604C79.493 73.2151 79.2779 73.6362 79.1632 74.0908C78.9071 75.5446 79.9627 77.4223 82.2153 79.5214C82.267 79.5693 82.2982 79.6368 82.3012 79.7082C82.305 79.7797 82.2807 79.8495 82.2343 79.9029C82.188 79.9563 82.1226 79.9877 82.0535 79.9916C81.9843 79.9955 81.9167 79.9704 81.865 79.9225Z" fill="black"/>
<path d="M85.246 79.9335C80.4656 75.9913 81.75 73.3733 81.8086 73.261C81.842 73.1993 81.8975 73.1536 81.9636 73.1337C82.029 73.1138 82.0996 73.1212 82.1604 73.1545C82.2205 73.1877 82.2661 73.2441 82.2874 73.3115C82.3079 73.379 82.3026 73.4521 82.2714 73.5154C82.2547 73.5491 81.1793 75.8845 85.5728 79.5081C85.6276 79.5528 85.6625 79.618 85.6709 79.6894C85.6785 79.7616 85.6587 79.833 85.6154 79.8896C85.5721 79.9461 85.509 79.9822 85.4398 79.9908C85.3699 79.9987 85.3008 79.9783 85.246 79.9335Z" fill="black"/>
<path d="M147.719 107.536C147.718 107.485 147.704 107.435 147.676 107.392C147.65 107.35 147.612 107.315 147.567 107.294C147.514 107.27 142.191 104.788 139.739 102.26C137.241 99.6888 136.052 99.0789 135.142 97.5379C134.278 96.0739 132.888 96.4068 131.586 97.4814C129.136 95.431 127.263 92.74 126.161 89.6887C124.479 84.6043 122.156 81.6919 121.478 78.3675C119.568 69.0189 119.122 72.5891 118.086 66.2055C117.368 61.7631 116.982 61.4711 115.565 59.0557C114.176 56.6865 112.864 54.4493 110.578 52.9225C108.07 51.2496 106.664 52.2081 106.566 54.9234C106.495 56.9833 108.726 60.5126 110.409 62.9885C111.221 64.2965 111.671 65.8098 111.707 67.3633C109.822 65.6473 107.758 61.8401 105.914 59.854C103.84 57.6144 103.534 57.6003 102.288 57.1065C101.018 56.6041 97.3521 53.0708 97.2761 53.0316C97.0063 52.9107 95.6855 51.1107 94.3714 51.2975C93.6593 51.4004 92.9928 51.9985 92.2723 53.1815C90.8283 55.5522 94.3334 59.4953 95.3085 60.5197C95.9499 61.194 97.6402 61.7631 98.5058 63.1714C98.8661 63.7395 99.2704 64.2763 99.715 64.7768C98.4769 64.1596 97.1872 63.6603 95.8618 63.2853C94.9103 62.191 93.9048 61.1479 92.8491 60.1602C92.7959 60.1123 87.5527 55.3842 85.0637 53.461C83.0968 51.9404 80.8252 51.3203 79.7483 53.545C79.7384 53.5617 79.73 53.5793 79.7232 53.5976C78.4608 56.3097 80.9217 59.0046 82.9577 61.1571C84.3865 62.6667 85.8526 64.5852 87.2814 66.4166C86.1117 67.0179 82.3414 69.0526 81.9173 70.4986C81.4454 72.1024 83.0831 74.7486 85.5965 74.7486C87.6272 74.5126 89.5165 73.5572 90.9423 72.0451C93.0665 76.4591 92.6234 77.1177 94.2194 80.7672C95.345 83.3381 95.8253 84.3609 95.1755 87.1469C94.5257 89.9329 93.0741 88.9948 91.4249 86.6979C89.2163 83.623 86.4089 79.3189 83.1075 80.9941C82.7814 81.1346 82.4873 81.3426 82.2433 81.6056C81.9994 81.8686 81.8101 82.181 81.6885 82.5232C81.2933 83.7997 82.0594 85.2707 82.7343 86.5629C83.2724 87.4209 83.5946 88.4045 83.6714 89.4242C84.0795 92.4072 85.0211 93.1506 88.6038 96.0896C90.1139 97.2177 91.5001 98.5121 92.7397 99.9495C94.1449 101.895 95.1808 102.846 98.9025 105.607C102.57 108.329 111.953 111.873 113.715 112.279C115.072 112.593 118.237 116.139 119.426 117.58C119.008 118.758 118.698 119.975 118.501 121.213C118.495 121.257 118.498 121.301 118.513 121.343C118.527 121.385 118.551 121.423 118.583 121.453C129.977 132.251 130.019 133.463 142.722 145.742C142.768 145.787 142.828 145.813 142.891 145.815C142.954 145.818 143.017 145.796 143.065 145.755C143.115 145.713 143.147 145.655 143.158 145.591C143.169 145.527 143.157 145.461 143.124 145.405C151.228 140.014 147.719 107.536 147.719 107.536ZM107.919 52.7506C108.783 52.285 110.252 53.2938 111.019 53.9163C111.027 53.9342 111.037 53.9511 111.048 53.9665C111.274 54.2764 111.376 54.6638 111.333 55.049C111.28 55.212 111.192 55.3603 111.075 55.4827C110.958 55.6051 110.816 55.6985 110.659 55.7555C109.291 56.4149 107.291 53.9642 107.212 53.8998C107.244 53.6675 107.325 53.4451 107.446 53.2471C107.568 53.049 107.729 52.8798 107.919 52.7506ZM94.4451 51.8329C95.2424 51.7238 96.086 52.6579 96.8262 53.3432C95.8002 55.2272 94.3463 54.6777 92.9783 53.0653C93.2899 52.4699 93.8174 52.0265 94.4451 51.8329ZM81.2971 52.7286C82.6568 52.2576 84.3371 53.5513 85.4255 54.4297C85.294 55.5224 84.9482 56.2548 83.7618 56.5311C82.523 56.8192 80.9901 54.8237 80.2734 53.6753C80.4839 53.2353 80.8503 52.8962 81.2971 52.7286ZM82.4189 70.654C82.6636 69.8235 84.5621 68.5628 86.1429 67.6514L86.3078 67.8869C87.0298 69.183 83.7573 70.4633 82.3748 70.8982C82.3817 70.8155 82.3961 70.7337 82.4189 70.654ZM86.9994 73.9259C86.4081 74.1973 85.753 74.2825 85.1154 74.1708C84.4778 74.0591 83.8865 73.7554 83.4153 73.2979C82.903 72.8071 82.5504 72.1647 82.4052 71.4587C84.3516 70.8676 87.7731 69.4373 86.7616 67.6216L86.6354 67.3743C87.007 67.1686 87.3452 66.9889 87.6234 66.8492C88.8363 68.2512 89.8623 69.8143 90.674 71.4971C90.4863 71.8174 89.6875 72.8944 86.9994 73.9291V73.9259ZM119.629 116.993C118.685 115.872 115.418 112.111 113.825 111.746C112.086 111.346 102.823 107.848 99.205 105.164C95.5388 102.443 94.5211 101.512 93.1569 99.6221C91.7228 97.6361 87.9076 95.0401 85.8989 93.0328C83.9039 91.0374 84.4276 89.5553 83.8986 87.844C85.4695 87.687 86.2645 86.7183 85.7462 85.1444C84.9216 82.6433 83.9055 81.9376 83.8629 81.9094C83.834 81.8897 83.8021 81.8764 83.7687 81.8701C83.7345 81.8631 83.7003 81.8631 83.6661 81.8709C83.6326 81.878 83.6007 81.8913 83.5726 81.9117C83.5437 81.9314 83.5194 81.9573 83.5004 81.9863C83.4822 82.0161 83.4692 82.0499 83.4624 82.0844C83.4563 82.119 83.4563 82.1551 83.4631 82.1896C83.47 82.2242 83.4837 82.2571 83.5027 82.287C83.5224 82.316 83.5467 82.3411 83.5756 82.3607C83.584 82.3678 84.4937 83.0217 85.2476 85.3178C85.6778 86.6241 85.0067 87.2395 83.6942 87.3165C82.7244 85.1318 80.8396 82.7399 83.3317 81.4761C86.2812 79.9846 88.9298 84.1341 90.9985 87.0174C92.5315 89.1534 93.7193 89.4697 94.3631 89.4289C95.5981 89.9949 98.1213 90.9384 98.0065 89.5529C97.9138 88.4202 96.2988 85.8509 95.9803 85.354C96.1004 82.6112 94.8578 81.8285 93.3333 76.7315C92.4775 73.8694 90.6664 69.7992 88.9572 67.6844C87.3612 65.7133 85.2218 62.7805 83.3332 60.7764C81.6863 59.0353 79.3128 56.5154 80.0249 54.2719C80.8206 55.5216 82.4425 57.3891 83.8758 57.0539C84.4055 56.9632 84.8912 56.6941 85.2567 56.2885C85.6231 55.883 85.8488 55.3639 85.8989 54.812C88.5589 57.0029 92.4608 60.5244 92.5109 60.5692C93.9983 61.8424 98.6495 67.0847 99.6709 68.9263C100.553 70.4159 101.538 71.8371 102.62 73.1786C102.665 73.2335 102.728 73.2678 102.798 73.2739C102.867 73.2801 102.935 73.2577 102.988 73.2116C103.041 73.1655 103.075 73.0994 103.08 73.028C103.086 72.9566 103.065 72.8857 103.02 72.8309C101.959 71.5139 100.991 70.1189 100.125 68.657C99.0553 67.0242 97.8575 65.4844 96.5443 64.053C99.4459 65.0209 100.823 66.0076 110.645 71.4249C110.706 71.458 110.778 71.465 110.844 71.4442C110.91 71.4234 110.965 71.3766 110.998 71.3139C111.031 71.2512 111.038 71.1776 111.019 71.1093C110.999 71.0408 110.955 70.983 110.895 70.9484L101.119 65.4966C100.315 64.6997 99.5881 63.8228 98.9497 62.8786C98.0551 61.424 96.1263 60.6115 95.6057 60.0487C94.6101 58.9811 91.5982 55.4957 92.6835 53.5332C94.2635 55.3293 96.0503 55.7524 97.2283 53.7098C104.419 60.3258 101.503 55.8678 105.54 60.2253C106.465 61.2992 107.32 62.4361 108.098 63.6283C110.021 66.4245 111.119 68.0361 114.667 70.1783C114.727 70.2144 114.799 70.2245 114.866 70.2062C114.933 70.188 114.99 70.1429 115.025 70.081C115.06 70.0191 115.07 69.9453 115.053 69.876C115.034 69.8066 114.991 69.7474 114.931 69.7113C113.999 69.1253 113.099 68.4874 112.235 67.8006C112.272 65.9866 111.785 64.2024 110.836 62.6753C109.195 60.263 107.021 56.838 107.088 54.9407C107.092 54.823 107.099 54.7005 107.11 54.5757C107.649 55.1589 108.941 56.4016 110.17 56.4016C110.392 56.4109 110.614 56.3733 110.822 56.2913C111.03 56.2092 111.219 56.0843 111.379 55.9242C111.538 55.7641 111.664 55.5722 111.75 55.36C111.835 55.1479 111.878 54.9201 111.876 54.6903C113.137 56.0942 114.223 57.6547 115.11 59.3359C116.498 61.7058 116.855 61.9194 117.562 66.2942C118.618 72.8261 119.042 69.1021 120.959 78.4797C121.646 81.8442 124.008 84.8727 125.658 89.8622C126.768 92.9857 128.673 95.7411 131.174 97.8386C129.011 99.8772 122.223 109.888 119.629 116.993Z" fill="black"/>
<path fill-rule="evenodd" clip-rule="evenodd" d="M81.2583 66.2133C81.2583 66.2133 79.5612 61.4908 78.1582 58.456C76.7553 55.4212 78.7602 65.1795 78.7602 65.1795L73.3861 61.6203L77.5799 67.1938L72.0098 68.303L78.941 69.0095L81.2583 66.2133Z" fill="white"/>
<path fill-rule="evenodd" clip-rule="evenodd" d="M32.4219 107.822C32.4219 107.822 33.8097 80.9202 47.9297 69.0432C57.8606 60.6884 70.5283 65.2124 70.5283 65.2124V61.4232C70.5283 61.4232 50.6619 52.1845 35.2993 70.6218C23.5102 84.7754 21.0303 96.0857 21.0303 96.0857L32.4219 107.822Z" fill="white"/>
<path fill-rule="evenodd" clip-rule="evenodd" d="M16.6729 26.2278L31.3887 16.4271C31.3887 16.4271 38.5935 31.0854 32.9946 35.0394C27.3957 38.9935 16.6729 26.2278 16.6729 26.2278Z" fill="#FFD997"/>
<path fill-rule="evenodd" clip-rule="evenodd" d="M99.9941 28.6275L113.322 37.3481C113.322 37.3481 104.445 48.9794 99.1961 45.7476C93.9475 42.5157 99.9941 28.6275 99.9941 28.6275Z" fill="#FFD997"/>
<path fill-rule="evenodd" clip-rule="evenodd" d="M29.6205 103.922L21.4224 119.362C21.4224 119.362 8.67189 110.264 11.6944 104.196C14.7169 98.129 29.6205 103.922 29.6205 103.922Z" fill="#FFD997"/>
<path d="M78.3946 58.3397C78.1902 57.8962 77.9789 57.5084 77.6635 57.6175C77.4355 57.696 77.0137 57.8452 78.3756 64.604L73.5268 61.3926C73.4749 61.3593 73.4133 61.3458 73.3528 61.3545C73.2923 61.3631 73.2365 61.3932 73.1952 61.4398C73.1539 61.4863 73.1297 61.5463 73.1267 61.6094C73.1237 61.6725 73.1421 61.7346 73.1787 61.7851L77.1117 67.014L71.9597 68.0416C71.8984 68.0545 71.8436 68.0897 71.8052 68.1406C71.7669 68.1916 71.7473 68.2551 71.7503 68.3196C71.7533 68.3841 71.7784 68.4454 71.8213 68.4925C71.8641 68.5396 71.9218 68.5692 71.984 68.5761L78.9152 69.2826C78.9844 69.2897 79.0535 69.2682 79.1067 69.2227C79.1607 69.1774 79.1941 69.1117 79.201 69.0405C79.2086 68.9692 79.1873 68.898 79.1432 68.8426C79.0991 68.7871 79.036 68.752 78.9669 68.7449L73.8255 68.219C77.9181 67.4041 77.7516 67.4921 77.8246 67.2919C77.8976 67.0917 78.0526 67.3822 74.527 62.6965L78.6188 65.4063C78.6621 65.4349 78.713 65.4496 78.7647 65.4485C78.8156 65.4476 78.8658 65.4309 78.9084 65.4007C78.9509 65.3704 78.9836 65.328 79.0026 65.2786C79.0224 65.2292 79.0269 65.1751 79.0163 65.1229C78.5466 62.9651 78.1841 60.7839 77.9302 58.5878C79.3096 61.5771 80.9961 66.2596 81.0128 66.3059C81.0371 66.3732 81.0858 66.4278 81.1488 66.4577C81.2119 66.4877 81.2841 66.4905 81.3487 66.4657C81.4141 66.4408 81.4673 66.3902 81.4962 66.3251C81.525 66.2599 81.5281 66.1856 81.5038 66.1183C81.487 66.0712 79.7862 61.3502 78.3946 58.3397Z" fill="black"/>
<path d="M70.6373 61.1767C70.4374 61.0833 50.4115 52.066 35.1013 70.4452C23.4056 84.4873 20.8011 95.9091 20.776 96.026C20.7642 96.0943 20.7784 96.165 20.8157 96.2231C20.8529 96.2811 20.9103 96.322 20.976 96.3377C21.0416 96.3526 21.1106 96.3416 21.1684 96.3063C21.2262 96.2702 21.2686 96.2129 21.2867 96.1461C21.3111 96.0331 23.8943 84.7291 35.4987 70.7977C50.549 52.7341 70.2262 61.5779 70.4223 61.6697C70.4536 61.6843 70.4874 61.6924 70.5217 61.6935C70.5561 61.6945 70.5904 61.6886 70.6225 61.6761C70.6547 61.6635 70.6841 61.6445 70.7091 61.6202C70.7342 61.5958 70.7543 61.5666 70.7684 61.5343C70.7826 61.502 70.7904 61.467 70.7915 61.4315C70.7924 61.3961 70.7867 61.3607 70.7746 61.3275C70.7624 61.2942 70.744 61.2639 70.7205 61.238C70.6969 61.2121 70.6686 61.1913 70.6373 61.1767Z" fill="black"/>
<path d="M70.6156 64.9557C70.4871 64.9094 57.6956 60.4773 47.7662 68.8321C33.7191 80.6494 32.177 107.537 32.1626 107.807C32.1626 107.876 32.1884 107.943 32.2345 107.993C32.2807 108.044 32.3437 108.074 32.4107 108.077C32.4777 108.081 32.5435 108.058 32.5947 108.014C32.6457 107.969 32.6783 107.905 32.6855 107.836C32.6992 107.569 34.2306 80.9171 48.0975 69.2512C57.7982 61.0872 70.3192 65.422 70.4415 65.4668C70.5071 65.4906 70.5792 65.4865 70.6419 65.4555C70.7046 65.4244 70.7528 65.3689 70.7759 65.3011C70.799 65.2334 70.7951 65.1589 70.765 65.0941C70.735 65.0294 70.6811 64.9796 70.6156 64.9557Z" fill="black"/>
<path d="M14.5374 32.2526C14.9045 31.3394 15.5218 30.5566 16.3134 30.0005C17.1051 29.4444 18.0367 29.1391 18.994 29.122C19.8764 30.0052 20.9404 31.006 22.1024 31.9653C19.3102 32.7024 18.6976 35.9052 18.6915 35.939C18.6852 35.9738 18.6856 36.0097 18.6927 36.0445C18.6998 36.0792 18.7134 36.1122 18.7327 36.1415C18.7522 36.1708 18.777 36.1958 18.8058 36.2152C18.8346 36.2346 18.8667 36.248 18.9005 36.2546C18.9343 36.2611 18.969 36.2607 19.0027 36.2534C19.0363 36.2461 19.0682 36.232 19.0965 36.212C19.125 36.1919 19.1492 36.1663 19.168 36.1366C19.1868 36.1068 19.1998 36.0735 19.2061 36.0387C19.2304 35.9076 19.827 32.8296 22.6443 32.4041C23.9757 33.4906 25.4225 34.4174 26.9565 35.1665C25.4548 36.443 26.2839 38.5656 26.9429 39.5217C26.9831 39.5801 27.0443 39.6196 27.1128 39.6315C27.1813 39.6433 27.2515 39.6265 27.308 39.5849C27.3646 39.5433 27.4028 39.4801 27.4143 39.4094C27.4258 39.3387 27.4095 39.2661 27.3692 39.2077C27.3031 39.1104 25.7527 36.8103 27.3403 35.541C27.391 35.5003 27.4256 35.442 27.4376 35.3769C29.3619 36.1776 31.4375 36.4657 33.1422 35.2615C35.5187 33.584 35.2595 30.5264 35.4146 30.3576C35.4313 30.3388 37.1155 28.5459 39.7025 30.3043C39.7312 30.3238 39.7633 30.3373 39.797 30.344C39.8308 30.3507 39.8655 30.3505 39.8992 30.3433C39.9329 30.3362 39.9648 30.3222 39.9933 30.3024C40.0217 30.2824 40.0461 30.257 40.065 30.2273C40.0839 30.1977 40.097 30.1645 40.1035 30.1296C40.11 30.0947 40.1098 30.0589 40.1029 30.0242C40.096 29.9894 40.0824 29.9563 40.0632 29.927C40.0439 29.8976 40.0192 29.8724 39.9905 29.8529C37.7713 28.3449 36.0978 29.1684 35.3956 29.6786C35.3704 28.3093 35.2053 26.9466 34.9031 25.6131C35.2109 24.9647 37.079 21.4432 40.7011 22.9362C40.7655 22.9629 40.8376 22.962 40.9013 22.9338C40.9651 22.9056 41.0154 22.8524 41.0412 22.7859C41.067 22.7194 41.0662 22.645 41.0389 22.5792C41.0116 22.5133 40.9601 22.4612 40.8957 22.4346C37.5251 21.0413 35.4906 23.5854 34.7268 24.8438C34.3754 23.4221 33.9471 22.0218 33.4439 20.6495C33.4553 20.6056 34.7131 16.3093 38.1559 16.3093H38.2965C38.3658 16.3115 38.4331 16.2851 38.4837 16.236C38.5342 16.1869 38.5638 16.1191 38.5659 16.0475C38.568 15.9759 38.5425 15.9063 38.495 15.8541C38.4474 15.8019 38.3818 15.7714 38.3125 15.7692C35.2383 15.6593 33.6939 18.5952 33.1635 19.8904C32.4035 17.8942 31.7149 16.4835 31.6252 16.3014C31.6083 16.2677 31.5849 16.238 31.5564 16.2141C31.5279 16.1902 31.495 16.1726 31.4595 16.1625C31.3167 16.124 31.4763 16.0455 29.1469 17.5967C28.4439 16.8274 25.4502 13.835 22.2119 14.6835C21.5035 13.663 19.4113 10.3025 20.2252 9.36752C20.304 9.25715 20.4072 9.16774 20.5262 9.10667C20.6451 9.04567 20.7765 9.01482 20.9092 9.01663C21.3956 9.05588 21.8699 9.64463 22.012 9.87228C22.0497 9.93241 22.109 9.97472 22.1768 9.98971C22.2446 10.0047 22.3155 9.99128 22.3737 9.95235C22.432 9.91341 22.4728 9.85218 22.4874 9.78208C22.502 9.71206 22.489 9.63882 22.4513 9.57869C22.2837 9.30252 22.065 9.06326 21.8077 8.8747C21.5504 8.68606 21.2595 8.55183 20.9518 8.47969C20.7378 8.46862 20.5244 8.51109 20.3296 8.60332C20.1349 8.69556 19.9646 8.8349 19.8331 9.00956C18.6414 10.3778 21.3401 14.3625 21.6517 14.8123C21.7407 14.9402 21.6935 14.7401 20.7937 15.3155C20.5637 15.4619 20.3455 15.627 20.1409 15.8092C19.2874 14.6977 16.6654 11.4635 15.4167 11.9871C15.2288 12.0535 15.0571 12.1613 14.9134 12.3029C14.7698 12.4445 14.6575 12.6166 14.5845 12.8074C14.4563 13.2709 14.5027 13.7673 14.7145 14.1968C14.7478 14.2584 14.8031 14.304 14.8685 14.3241C14.934 14.3442 15.0044 14.3371 15.0648 14.3044C15.1253 14.2717 15.1711 14.2159 15.1924 14.1489C15.2136 14.0819 15.2088 14.009 15.1788 13.9456C15.1015 13.8238 15.0513 13.6858 15.0315 13.5416C15.0118 13.3974 15.023 13.2504 15.0646 13.1113C15.1061 12.9721 15.1768 12.8441 15.2717 12.7363C15.3665 12.6286 15.4833 12.5437 15.6135 12.4879C16.3089 12.1943 18.4096 14.4166 19.7631 16.186C17.3897 18.8307 18.7751 23.251 19.1361 24.266C16.3333 26.132 16.4374 26.0158 16.4138 26.1893C16.4086 26.2278 16.4115 26.267 16.4222 26.3042C16.433 26.3415 16.4514 26.3759 16.4761 26.4052C16.5879 26.5386 17.3433 27.4296 18.5015 28.6212C17.5297 28.7376 16.6052 29.1182 15.8222 29.7242C15.0393 30.3302 14.426 31.1398 14.0449 32.0705C14.027 32.1364 14.034 32.207 14.0644 32.2679C14.0949 32.3288 14.1465 32.3755 14.209 32.3986C14.2715 32.4216 14.3401 32.4194 14.401 32.3924C14.4619 32.3653 14.5106 32.3153 14.5374 32.2526ZM26.6632 34.4114C26.7156 34.387 26.7586 34.3453 26.7855 34.2928C27.8631 32.0725 28.3212 29.5864 28.1087 27.1124L33.0206 34.6861C31.1723 36.1462 28.7319 35.4821 26.6632 34.4114ZM33.4181 34.3274L28.4401 26.6517C30.3832 27.6136 32.5734 27.9082 34.6903 27.4924C35.0749 30.2258 34.8864 32.8084 33.4181 34.3274ZM31.2825 16.8187C32.7957 20.042 33.9127 23.4481 34.6075 26.9578C32.2556 27.4211 29.8211 26.9549 27.7865 25.6516L24.8422 21.1111L31.2825 16.8187ZM17.0705 26.2835L24.4029 21.4L27.3555 25.953C28.4028 29.933 26.3432 33.9977 26.3219 34.0385C26.2941 34.0932 26.285 34.156 26.2961 34.2167C22.148 31.9316 18.0189 27.3668 17.0705 26.2835Z" fill="black"/>
<path d="M116.484 42.9333C115.407 40.3114 112.579 40.0854 111.312 40.1238C112.58 38.7461 113.419 37.6566 113.528 37.5145C113.55 37.4848 113.566 37.4507 113.574 37.4145C113.584 37.3781 113.585 37.3403 113.579 37.3035C113.572 37.2666 113.559 37.2314 113.539 37.2002C113.519 37.1689 113.493 37.1423 113.463 37.122L111.576 35.888C111.931 34.9648 113.132 31.342 111.257 28.9368C111.789 27.9642 113.639 24.9474 114.677 25.2748C114.791 25.2984 114.898 25.3499 114.988 25.4249C115.078 25.4999 115.151 25.5961 115.198 25.7057C115.268 26.135 115.175 26.5755 114.94 26.9366C114.907 26.9972 114.897 27.069 114.913 27.1368C114.929 27.2047 114.97 27.2634 115.028 27.3008C115.085 27.3381 115.154 27.3511 115.22 27.337C115.286 27.3231 115.344 27.283 115.383 27.2255C115.54 26.9756 115.648 26.6963 115.699 26.4035C115.752 26.1106 115.748 25.81 115.687 25.5189C115.613 25.3305 115.497 25.1631 115.347 25.0308C115.199 24.8984 115.021 24.805 114.829 24.7582C113.461 24.3194 111.587 27.2404 110.886 28.5176C110.506 28.1423 110.069 27.8336 109.594 27.6039C110.162 26.435 111.705 23.0257 110.813 22.1614C110.686 22.0247 110.533 21.9181 110.362 21.8491C110.192 21.7801 110.008 21.7503 109.825 21.7619C109.403 21.8299 109.02 22.0603 108.755 22.4072C108.716 22.4642 108.7 22.5347 108.71 22.604C108.72 22.6732 108.755 22.7357 108.809 22.7784C108.862 22.8212 108.93 22.8408 108.998 22.8332C109.065 22.8256 109.127 22.7913 109.17 22.7376C109.235 22.6287 109.322 22.5358 109.426 22.4659C109.529 22.396 109.647 22.3506 109.769 22.3332C109.891 22.3158 110.017 22.3267 110.135 22.3652C110.252 22.4036 110.361 22.4686 110.452 22.5555C110.889 22.9802 110.103 25.3588 109.1 27.4076C106.122 26.4248 103.172 29.2131 102.474 29.9345L100.138 28.3991C100.106 28.3782 100.071 28.3647 100.033 28.3593C99.9962 28.354 99.9582 28.357 99.9225 28.3682C99.886 28.3794 99.8526 28.3984 99.8245 28.424C99.7964 28.4497 99.7736 28.4813 99.7584 28.5168C99.6953 28.6605 99.2849 29.6158 98.7886 31.0162C98.322 30.2489 97.6691 29.6213 96.8954 29.1959C96.121 28.7706 95.2516 28.5624 94.3753 28.5922C94.3061 28.5985 94.2423 28.633 94.1974 28.6879C94.1534 28.743 94.1313 28.8139 94.1374 28.8854C94.1442 28.9568 94.1769 29.0227 94.2301 29.0687C94.2841 29.1147 94.3525 29.137 94.4216 29.1307C95.2766 29.0961 96.1225 29.3191 96.8567 29.7726C97.5916 30.2262 98.1821 30.8907 98.5568 31.6851C98.1973 32.7495 97.8143 34.004 97.4981 35.3275C95.8436 33.2865 93.0962 33.9741 93.0673 33.982C93.0035 34.0025 92.9488 34.0477 92.9161 34.1081C92.8834 34.1686 92.8743 34.2398 92.891 34.3071C92.907 34.3743 92.948 34.4325 93.005 34.4695C93.0612 34.5067 93.1296 34.5198 93.1958 34.5064C93.3082 34.4773 95.9462 33.8242 97.3416 36.0143C96.9904 37.5349 96.8042 39.0913 96.7883 40.6545C95.2113 39.9001 93.8463 41.4002 93.3379 42.3195C93.3037 42.3819 93.2946 42.4559 93.3128 42.5252C93.3318 42.5944 93.3759 42.6533 93.4359 42.6888C93.4967 42.7243 93.5682 42.7335 93.6358 42.7145C93.7027 42.6954 93.7597 42.6496 93.7939 42.5871C93.8448 42.4953 95.06 40.3366 96.6515 41.1859C96.6978 41.2113 96.751 41.2209 96.8035 41.2134C97.0444 45.8684 100.062 47.5586 103.778 46.0302C103.789 46.0357 103.799 46.0404 103.811 46.0443C103.831 46.0521 105.869 46.7885 105.458 49.6168C105.448 49.6877 105.466 49.7598 105.507 49.8173C105.549 49.8749 105.61 49.9129 105.679 49.9234C105.748 49.9338 105.818 49.9156 105.873 49.8728C105.929 49.8301 105.966 49.7662 105.976 49.6953C106.151 48.95 106.094 48.1664 105.811 47.457C105.528 46.7476 105.036 46.1489 104.403 45.7468C105.459 45.2117 106.459 44.5657 107.386 43.8188C108.022 43.84 111.484 44.0732 111.669 47.6763C111.676 47.7452 111.709 47.8087 111.76 47.8535C111.811 47.8984 111.877 47.9214 111.943 47.9176C112.011 47.9139 112.074 47.8838 112.12 47.8335C112.166 47.7832 112.192 47.7166 112.192 47.6473C112.019 44.3047 109.3 43.5174 107.985 43.3298C108.958 42.5072 109.887 41.6301 110.768 40.7024C110.905 40.682 114.779 40.1599 116.003 43.1406C116.034 43.1998 116.085 43.2452 116.146 43.2678C116.208 43.2904 116.275 43.2885 116.335 43.2626C116.395 43.2367 116.443 43.1886 116.471 43.1277C116.498 43.0669 116.503 42.9975 116.484 42.9333ZM100.113 29.0271L106.707 33.3446L104.236 37.5341C101.489 39.9158 97.5034 39.7148 97.4654 39.7133C97.4221 39.7108 97.378 39.7195 97.3385 39.7384C97.587 35.4146 99.5965 30.2831 100.113 29.0271ZM97.3188 40.211C97.3545 40.2323 97.3948 40.2447 97.4358 40.2471C99.5699 40.3149 101.682 39.7805 103.544 38.7014L99.4764 45.5992C97.6608 44.5944 97.2625 42.3312 97.3188 40.211ZM99.9582 45.8206L104.085 38.8231C104.08 40.7922 104.672 42.7135 105.777 44.3181C103.786 45.6565 101.696 46.4619 99.9582 45.8206ZM106.212 44.0151C104.97 42.2141 104.426 39.9986 104.685 37.8041L107.149 33.6264L112.933 37.4109C110.967 39.8938 108.709 42.1141 106.212 44.0206V44.0151Z" fill="black"/>
<path d="M36.7045 113.278C36.6469 113.242 36.578 113.23 36.5122 113.245C36.4463 113.259 36.3885 113.3 36.3508 113.357C36.3131 113.415 36.2982 113.486 36.3095 113.554C36.3207 113.623 36.3571 113.685 36.4111 113.726C36.5312 113.793 36.6355 113.886 36.7167 113.999C36.7979 114.113 36.8539 114.244 36.8807 114.382C36.9076 114.52 36.9046 114.662 36.872 114.799C36.8394 114.936 36.7781 115.063 36.6923 115.173C36.2249 115.757 33.4426 114.859 31.4924 113.995C32.3284 110.599 29.1797 107.485 28.4022 106.779C29.9602 103.844 29.9222 103.993 29.8668 103.828C29.8534 103.793 29.833 103.76 29.8068 103.733C29.7806 103.706 29.7493 103.685 29.7148 103.671C29.5628 103.611 28.5178 103.212 26.9985 102.748C27.7755 102.181 28.3936 101.412 28.7901 100.519C29.1867 99.6261 29.3475 98.6401 29.2565 97.662C29.2436 97.5937 29.2058 97.5325 29.1508 97.4924C29.0957 97.4524 29.0277 97.4351 28.961 97.4453C28.8942 97.4555 28.8338 97.4916 28.7923 97.5466C28.7508 97.6015 28.7314 97.6714 28.7382 97.7405C28.8338 98.6966 28.6573 99.6606 28.2302 100.515C27.803 101.368 27.1438 102.074 26.3335 102.547C25.1852 102.215 23.8324 101.87 22.4119 101.605C24.4639 99.6331 23.5519 96.6038 23.5398 96.5716C23.5159 96.5065 23.4688 96.4539 23.4083 96.4233C23.3477 96.3934 23.2782 96.3887 23.2142 96.4099C23.1503 96.4311 23.0966 96.4766 23.0644 96.5379C23.0322 96.5991 23.0239 96.6705 23.0412 96.7373C23.0511 96.7671 23.9532 99.7697 21.7348 101.487C20.1109 101.194 18.4603 101.094 16.8145 101.187C17.519 99.3741 15.8569 97.9556 14.8628 97.4524C14.8013 97.4273 14.7331 97.4273 14.6717 97.4524C14.6103 97.4775 14.5601 97.5254 14.5314 97.5866C14.5026 97.6479 14.4973 97.7185 14.5164 97.7837C14.5356 97.8488 14.5779 97.9038 14.6348 97.9383C14.7359 97.9893 17.0889 99.2131 16.3023 101.054C16.2779 101.112 16.2736 101.176 16.2901 101.238C14.1439 101.493 12.3381 102.307 11.4611 104.072C10.179 106.649 11.7734 109.144 11.7172 109.361C11.7111 109.385 11.0834 111.721 8.07755 111.455C8.00839 111.449 7.93969 111.472 7.88664 111.518C7.83353 111.564 7.80036 111.63 7.79442 111.702C7.78847 111.772 7.81024 111.844 7.85492 111.899C7.89964 111.954 7.96355 111.987 8.03271 111.994C8.82433 112.132 9.63783 112.009 10.358 111.642C11.0782 111.276 11.6686 110.685 12.0455 109.953C12.6799 111.106 13.4292 112.187 14.2814 113.179C14.3096 113.882 14.2906 117.785 10.5248 118.239C10.4573 118.249 10.3965 118.286 10.3551 118.343C10.3138 118.399 10.295 118.468 10.3029 118.538C10.3108 118.608 10.3447 118.673 10.3975 118.716C10.4502 118.761 10.5177 118.783 10.5856 118.777C14.0884 118.355 14.6972 115.219 14.7899 113.767C15.7258 114.811 16.7176 115.8 17.7607 116.73C17.7698 116.774 18.6499 121.16 15.5567 122.758C15.4945 122.79 15.4472 122.846 15.4253 122.915C15.4033 122.982 15.4085 123.057 15.4397 123.121C15.4708 123.185 15.5253 123.234 15.5914 123.257C15.6573 123.28 15.7293 123.274 15.7916 123.242C18.4804 121.851 18.4888 118.632 18.3573 117.258C19.9001 118.592 21.1131 119.468 21.2712 119.581C21.3012 119.603 21.3355 119.618 21.3717 119.625C21.4079 119.633 21.4452 119.632 21.4811 119.623C21.5169 119.614 21.5506 119.598 21.5799 119.574C21.6093 119.552 21.6335 119.523 21.6512 119.489L22.8193 117.291C25.1973 118.094 28.2153 118.22 30.0636 116.463C31.1238 116.996 34.4191 118.868 34.144 120.053C34.1262 120.184 34.0781 120.309 34.0037 120.418C33.9294 120.526 33.8311 120.615 33.7169 120.676C33.2675 120.785 32.7947 120.712 32.396 120.472C32.3366 120.447 32.2706 120.446 32.2104 120.469C32.1502 120.491 32.0999 120.535 32.0691 120.593C32.0383 120.651 32.029 120.718 32.043 120.783C32.0571 120.847 32.0934 120.904 32.1452 120.943C32.5212 121.148 32.9365 121.263 33.3612 121.281C33.6707 121.294 33.9737 121.188 34.2122 120.984C34.4507 120.779 34.6077 120.491 34.6532 120.175C35.0142 118.626 31.8276 116.746 30.4466 116.05C30.8244 115.591 31.1242 115.071 31.3336 114.509C32.5496 115.045 36.2553 116.562 37.0959 115.513C37.2344 115.348 37.3354 115.154 37.3914 114.944C37.4474 114.733 37.457 114.513 37.4195 114.298C37.3819 114.084 37.2981 113.881 37.1744 113.704C37.0506 113.528 36.89 113.382 36.7045 113.278ZM29.2436 104.073L25.1654 111.754L20.6008 109.274C17.9196 106.369 17.858 101.906 17.858 101.862C17.8571 101.805 17.8387 101.75 17.8056 101.705C21.3654 101.678 25.9702 102.875 29.2436 104.073ZM17.38 101.711C17.3492 101.757 17.333 101.812 17.3336 101.868C17.409 104.276 18.1276 106.616 19.4099 108.63L11.8358 104.515C12.7637 102.389 15.1197 101.784 17.38 101.707V101.711ZM11.6526 105.023L19.3286 109.192C17.243 109.304 15.2463 110.1 13.6286 111.464C12.0774 109.311 11.0826 107.018 11.6526 105.019V105.023ZM21.3342 118.965C18.5963 116.934 16.1147 114.557 13.947 111.89C15.7497 110.371 18.0391 109.607 20.3614 109.75L24.9138 112.224L21.3342 118.965Z" fill="black"/>
</svg>
