<svg width="448" height="219" viewBox="0 0 448 219" fill="none" xmlns="http://www.w3.org/2000/svg">
<g filter="url(#filter0_di_1_137)">
<rect x="58" y="24" width="324" height="95" rx="47.5" fill="#4C43CD"/>
<rect x="58" y="24" width="324" height="95" rx="47.5" fill="url(#paint0_radial_1_137)" fill-opacity="0.7"/>
<rect x="58" y="24" width="324" height="95" rx="47.5" fill="url(#paint1_radial_1_137)"/>
<g filter="url(#filter1_d_1_137)">
<path d="M138.969 84V58.6348H132.816L125.609 76.6172H125.469L118.262 58.6348H112.109V84H116.838V66.8789H116.979L123.869 83.7539H127.209L134.1 66.8789H134.24V84H138.969ZM149.604 80.5898C147.863 80.5898 146.703 79.7109 146.703 78.3047C146.703 76.9688 147.793 76.1074 149.709 75.9668L153.682 75.7207V77.0918C153.682 79.1309 151.836 80.5898 149.604 80.5898ZM147.916 84.2988C150.271 84.2988 152.609 83.1211 153.664 81.1172H153.77V84H158.727V71.0449C158.727 67.248 155.58 64.752 150.746 64.752C145.754 64.752 142.643 67.2656 142.449 70.9219H147.143C147.389 69.5332 148.602 68.584 150.518 68.584C152.451 68.584 153.682 69.6035 153.682 71.3613V72.6094L148.936 72.8906C144.242 73.1719 141.605 75.1582 141.605 78.5859C141.605 81.9785 144.33 84.2988 147.916 84.2988ZM163.42 60.8145V65.1562H160.766V69.0234H163.42V78.9199C163.42 82.5938 165.143 84.0703 169.572 84.0703C170.609 84.0703 171.488 83.9824 172.016 83.8594V80.0801C171.699 80.1328 171.225 80.168 170.768 80.168C169.256 80.168 168.553 79.4824 168.553 78.041V69.0234H172.033V65.1562H168.553V60.8145H163.42ZM174.969 84H180.102V73.2422C180.102 70.7637 181.525 69.0586 183.951 69.0586C186.289 69.0586 187.484 70.5352 187.484 72.9609V84H192.617V71.8711C192.617 67.5117 190.227 64.8047 186.043 64.8047C183.178 64.8047 181.121 66.1406 180.119 68.5137H180.014V58.6348H174.969V84ZM204.359 68.5488C206.645 68.5488 208.209 70.2012 208.314 72.6094H200.316C200.492 70.2539 202.109 68.5488 204.359 68.5488ZM208.385 78.2344C207.91 79.6758 206.469 80.6074 204.588 80.6074C201.969 80.6074 200.264 78.7617 200.264 76.0723V75.7559H213.254V74.1914C213.254 68.4609 209.791 64.752 204.307 64.752C198.734 64.752 195.219 68.6543 195.219 74.666C195.219 80.6953 198.699 84.4043 204.5 84.4043C209.158 84.4043 212.533 81.9258 213.096 78.2344H208.385ZM242.24 65.1562H237.178L234.312 79.1309H234.207L230.85 65.1562H225.928L222.588 79.1309H222.482L219.635 65.1562H214.467L219.477 84H224.873L228.266 70.6758H228.371L231.781 84H237.248L242.24 65.1562ZM274.496 73.3477V70.4824H263.809V74.3496H269.328L269.311 74.7539C269.205 77.9004 266.797 80.0273 263.334 80.0273C259.115 80.0273 256.443 76.6699 256.443 71.168C256.443 65.7715 258.957 62.5898 263.141 62.5898C266.006 62.5898 268.168 64.1719 268.941 66.8262H274.268C273.512 61.6934 269.047 58.1953 263.123 58.1953C255.67 58.1953 251.029 63.1172 251.029 71.2383C251.029 79.4824 255.67 84.4395 263.246 84.4395C270.312 84.4395 274.496 80.2559 274.496 73.3477ZM286.221 84.4043C291.916 84.4043 295.555 80.7656 295.555 74.5605C295.555 68.4434 291.863 64.752 286.221 64.752C280.578 64.752 276.887 68.4609 276.887 74.5605C276.887 80.748 280.525 84.4043 286.221 84.4043ZM286.221 80.4844C283.689 80.4844 282.09 78.3574 282.09 74.5781C282.09 70.834 283.725 68.6719 286.221 68.6719C288.717 68.6719 290.334 70.834 290.334 74.5781C290.334 78.3574 288.734 80.4844 286.221 80.4844ZM298.209 84H303.342V73.4707C303.342 70.8164 304.818 69.2695 307.35 69.2695C308.088 69.2695 308.791 69.3926 309.213 69.5684V65.0508C308.861 64.9453 308.352 64.8574 307.754 64.8574C305.539 64.8574 303.939 66.1582 303.271 68.5488H303.166V65.1562H298.209V84ZM319.145 68.5488C321.43 68.5488 322.994 70.2012 323.1 72.6094H315.102C315.277 70.2539 316.895 68.5488 319.145 68.5488ZM323.17 78.2344C322.695 79.6758 321.254 80.6074 319.373 80.6074C316.754 80.6074 315.049 78.7617 315.049 76.0723V75.7559H328.039V74.1914C328.039 68.4609 324.576 64.752 319.092 64.752C313.52 64.752 310.004 68.6543 310.004 74.666C310.004 80.6953 313.484 84.4043 319.285 84.4043C323.943 84.4043 327.318 81.9258 327.881 78.2344H323.17Z" fill="white" fill-opacity="0.9"/>
<path d="M138.969 84V58.6348H132.816L125.609 76.6172H125.469L118.262 58.6348H112.109V84H116.838V66.8789H116.979L123.869 83.7539H127.209L134.1 66.8789H134.24V84H138.969ZM149.604 80.5898C147.863 80.5898 146.703 79.7109 146.703 78.3047C146.703 76.9688 147.793 76.1074 149.709 75.9668L153.682 75.7207V77.0918C153.682 79.1309 151.836 80.5898 149.604 80.5898ZM147.916 84.2988C150.271 84.2988 152.609 83.1211 153.664 81.1172H153.77V84H158.727V71.0449C158.727 67.248 155.58 64.752 150.746 64.752C145.754 64.752 142.643 67.2656 142.449 70.9219H147.143C147.389 69.5332 148.602 68.584 150.518 68.584C152.451 68.584 153.682 69.6035 153.682 71.3613V72.6094L148.936 72.8906C144.242 73.1719 141.605 75.1582 141.605 78.5859C141.605 81.9785 144.33 84.2988 147.916 84.2988ZM163.42 60.8145V65.1562H160.766V69.0234H163.42V78.9199C163.42 82.5938 165.143 84.0703 169.572 84.0703C170.609 84.0703 171.488 83.9824 172.016 83.8594V80.0801C171.699 80.1328 171.225 80.168 170.768 80.168C169.256 80.168 168.553 79.4824 168.553 78.041V69.0234H172.033V65.1562H168.553V60.8145H163.42ZM174.969 84H180.102V73.2422C180.102 70.7637 181.525 69.0586 183.951 69.0586C186.289 69.0586 187.484 70.5352 187.484 72.9609V84H192.617V71.8711C192.617 67.5117 190.227 64.8047 186.043 64.8047C183.178 64.8047 181.121 66.1406 180.119 68.5137H180.014V58.6348H174.969V84ZM204.359 68.5488C206.645 68.5488 208.209 70.2012 208.314 72.6094H200.316C200.492 70.2539 202.109 68.5488 204.359 68.5488ZM208.385 78.2344C207.91 79.6758 206.469 80.6074 204.588 80.6074C201.969 80.6074 200.264 78.7617 200.264 76.0723V75.7559H213.254V74.1914C213.254 68.4609 209.791 64.752 204.307 64.752C198.734 64.752 195.219 68.6543 195.219 74.666C195.219 80.6953 198.699 84.4043 204.5 84.4043C209.158 84.4043 212.533 81.9258 213.096 78.2344H208.385ZM242.24 65.1562H237.178L234.312 79.1309H234.207L230.85 65.1562H225.928L222.588 79.1309H222.482L219.635 65.1562H214.467L219.477 84H224.873L228.266 70.6758H228.371L231.781 84H237.248L242.24 65.1562ZM274.496 73.3477V70.4824H263.809V74.3496H269.328L269.311 74.7539C269.205 77.9004 266.797 80.0273 263.334 80.0273C259.115 80.0273 256.443 76.6699 256.443 71.168C256.443 65.7715 258.957 62.5898 263.141 62.5898C266.006 62.5898 268.168 64.1719 268.941 66.8262H274.268C273.512 61.6934 269.047 58.1953 263.123 58.1953C255.67 58.1953 251.029 63.1172 251.029 71.2383C251.029 79.4824 255.67 84.4395 263.246 84.4395C270.312 84.4395 274.496 80.2559 274.496 73.3477ZM286.221 84.4043C291.916 84.4043 295.555 80.7656 295.555 74.5605C295.555 68.4434 291.863 64.752 286.221 64.752C280.578 64.752 276.887 68.4609 276.887 74.5605C276.887 80.748 280.525 84.4043 286.221 84.4043ZM286.221 80.4844C283.689 80.4844 282.09 78.3574 282.09 74.5781C282.09 70.834 283.725 68.6719 286.221 68.6719C288.717 68.6719 290.334 70.834 290.334 74.5781C290.334 78.3574 288.734 80.4844 286.221 80.4844ZM298.209 84H303.342V73.4707C303.342 70.8164 304.818 69.2695 307.35 69.2695C308.088 69.2695 308.791 69.3926 309.213 69.5684V65.0508C308.861 64.9453 308.352 64.8574 307.754 64.8574C305.539 64.8574 303.939 66.1582 303.271 68.5488H303.166V65.1562H298.209V84ZM319.145 68.5488C321.43 68.5488 322.994 70.2012 323.1 72.6094H315.102C315.277 70.2539 316.895 68.5488 319.145 68.5488ZM323.17 78.2344C322.695 79.6758 321.254 80.6074 319.373 80.6074C316.754 80.6074 315.049 78.7617 315.049 76.0723V75.7559H328.039V74.1914C328.039 68.4609 324.576 64.752 319.092 64.752C313.52 64.752 310.004 68.6543 310.004 74.666C310.004 80.6953 313.484 84.4043 319.285 84.4043C323.943 84.4043 327.318 81.9258 327.881 78.2344H323.17Z" fill="url(#paint2_radial_1_137)" fill-opacity="0.7"/>
</g>
</g>
<defs>
<filter id="filter0_di_1_137" x="0" y="0" width="448" height="219" filterUnits="userSpaceOnUse" color-interpolation-filters="sRGB">
<feFlood flood-opacity="0" result="BackgroundImageFix"/>
<feColorMatrix in="SourceAlpha" type="matrix" values="0 0 0 0 0 0 0 0 0 0 0 0 0 0 0 0 0 0 127 0" result="hardAlpha"/>
<feOffset dx="4" dy="38"/>
<feGaussianBlur stdDeviation="31"/>
<feColorMatrix type="matrix" values="0 0 0 0 0 0 0 0 0 0 0 0 0 0 0 0 0 0 0.5 0"/>
<feBlend mode="normal" in2="BackgroundImageFix" result="effect1_dropShadow_1_137"/>
<feBlend mode="normal" in="SourceGraphic" in2="effect1_dropShadow_1_137" result="shape"/>
<feColorMatrix in="SourceAlpha" type="matrix" values="0 0 0 0 0 0 0 0 0 0 0 0 0 0 0 0 0 0 127 0" result="hardAlpha"/>
<feOffset dx="-3" dy="-4"/>
<feGaussianBlur stdDeviation="3.5"/>
<feComposite in2="hardAlpha" operator="arithmetic" k2="-1" k3="1"/>
<feColorMatrix type="matrix" values="0 0 0 0 1 0 0 0 0 1 0 0 0 0 1 0 0 0 0.15 0"/>
<feBlend mode="normal" in2="shape" result="effect2_innerShadow_1_137"/>
</filter>
<filter id="filter1_d_1_137" x="112.109" y="58.1953" width="217.93" height="28.2441" filterUnits="userSpaceOnUse" color-interpolation-filters="sRGB">
<feFlood flood-opacity="0" result="BackgroundImageFix"/>
<feColorMatrix in="SourceAlpha" type="matrix" values="0 0 0 0 0 0 0 0 0 0 0 0 0 0 0 0 0 0 127 0" result="hardAlpha"/>
<feOffset dx="1" dy="1"/>
<feGaussianBlur stdDeviation="0.5"/>
<feColorMatrix type="matrix" values="0 0 0 0 0 0 0 0 0 0 0 0 0 0 0 0 0 0 0.25 0"/>
<feBlend mode="normal" in2="BackgroundImageFix" result="effect1_dropShadow_1_137"/>
<feBlend mode="normal" in="SourceGraphic" in2="effect1_dropShadow_1_137" result="shape"/>
</filter>
<radialGradient id="paint0_radial_1_137" cx="0" cy="0" r="1" gradientTransform="matrix(171 62.0139 -211.5 50.1389 143.5 43.7917)" gradientUnits="userSpaceOnUse">
<stop stop-color="white" stop-opacity="0.59"/>
<stop offset="0.697917" stop-color="white" stop-opacity="0"/>
<stop offset="1" stop-color="white" stop-opacity="0"/>
</radialGradient>
<radialGradient id="paint1_radial_1_137" cx="0" cy="0" r="1" gradientTransform="matrix(-17.7534 -81.1458 -298.359 51.9202 337.616 107.125)" gradientUnits="userSpaceOnUse">
<stop stop-opacity="0.23"/>
<stop offset="0.861815" stop-opacity="0"/>
</radialGradient>
<radialGradient id="paint2_radial_1_137" cx="0" cy="0" r="1" gradientTransform="matrix(93.7705 27.1393 -138.852 18.3279 180.328 58.459)" gradientUnits="userSpaceOnUse">
<stop stop-color="white"/>
<stop offset="0.697917" stop-color="white" stop-opacity="0"/>
<stop offset="1" stop-color="white" stop-opacity="0"/>
</radialGradient>
</defs>
</svg>
