<svg width="600" height="600" viewBox="0 0 600 600" fill="none" xmlns="http://www.w3.org/2000/svg">
<path d="M384.033 463.531C383.952 463.649 383.793 463.852 383.495 464.125C382.516 465.02 380.195 466.549 374.968 468.228C364.516 471.583 343.204 475.306 300.064 476.349C256.951 477.391 235.675 473.651 225.27 469.827C220.088 467.923 217.768 466.057 216.759 464.908C216.26 464.34 216.074 463.94 216.011 463.773C216.004 463.756 216 463.739 215.995 463.726V443.983C218 445.539 220.142 446.929 222.4 448.132L222.685 448.283L222.998 448.357C223.262 448.42 223.534 448.481 223.812 448.544C229.029 451.089 234.823 452.655 240.969 452.996C262.161 454.171 286.384 455.343 298.831 455.343C311.488 455.343 336.929 454.132 358.972 452.937C365.282 452.594 371.223 450.958 376.553 448.301C376.798 448.248 377.038 448.197 377.272 448.144L377.609 448.067L377.912 447.903C380.066 446.735 382.112 445.395 384.033 443.904V463.531ZM396.528 408.138C396.528 417.731 393.172 426.58 387.543 433.518L384.765 436.301C384.693 436.373 384.62 436.444 384.548 436.516L384.388 436.674L384.258 436.858C384.279 436.828 384.201 436.95 383.876 437.188L383.758 437.274L383.65 437.374C381.03 439.804 378.081 441.884 374.875 443.546C364.161 445.779 342.769 448.08 300.299 448.261C257.618 448.442 236.187 446.122 225.491 443.796C222.152 442.108 219.088 439.965 216.374 437.449L216.294 437.376L216.208 437.309C215.969 437.123 215.859 436.999 215.822 436.954L215.73 436.84L215.625 436.737L215.264 436.38L212.473 433.586C206.85 426.651 203.5 417.806 203.5 408.22V340.143C204.798 340.231 206.547 340.347 208.704 340.48C213.773 340.795 221.098 341.213 230.13 341.629C248.192 342.46 273.092 343.283 300.44 343.247C327.785 343.211 352.471 342.389 370.32 341.575C379.246 341.168 386.464 340.764 391.452 340.461C393.552 340.333 395.257 340.222 396.528 340.138V408.138ZM259.2 201.753H280.5V206.5H320.5V201.753H340.827C348.901 201.753 356.574 203.471 363.5 206.562V206.566L364.753 207.288L369.753 210.167L373.404 212.269C387.412 222.385 396.528 238.854 396.528 257.453V332.061C395.184 332.143 393.283 332.256 390.889 332.39C385.769 332.675 378.393 333.056 369.373 333.438C351.331 334.2 326.719 334.962 300.438 334.962C274.155 334.962 249.332 334.2 231.077 333.438C221.951 333.056 214.469 332.675 209.27 332.39C206.815 332.255 204.869 332.141 203.5 332.059V257.453C203.5 238.807 212.663 222.3 226.731 212.19L230.247 210.167L235.247 207.288L236.436 206.603C243.386 203.486 251.09 201.753 259.2 201.753ZM285.5 138.142L283.016 138.126C256.359 137.961 241.865 137.183 234.218 136.514L231.5 136.276V136.375L230.379 135.634C229.147 134.819 228.304 133.327 228.304 131.472C228.304 128.396 230.552 125.878 233.525 125.574C244.368 124.468 266.939 122.659 299.675 122.509C332.809 122.356 355.862 124.329 366.737 125.53C369.585 125.845 371.724 128.266 371.724 131.236C371.724 133.089 370.869 134.615 369.602 135.471L368.5 136.214V136.163L365.803 136.376C358.192 136.978 343.907 137.713 317.971 138.018L315.5 138.047V196.753H285.5V138.142Z" stroke="#1E1E1E" stroke-width="5"/>
</svg>
