<svg width="700" height="550" viewBox="0 0 700 550" fill="none" xmlns="http://www.w3.org/2000/svg">
<path d="M401.382 225.552C399.529 230.521 397.108 235.26 394.168 239.674C392.691 241.894 391.032 243.988 389.209 245.933C388.29 246.903 387.33 247.834 386.328 248.725C385.321 249.639 384.226 250.451 383.059 251.15C379.53 253.315 375.344 254.151 371.254 253.506C367.165 252.862 363.439 250.78 360.747 247.634C359.002 245.613 357.505 243.39 356.289 241.013C355.077 238.66 353.992 236.243 353.039 233.774C352.498 232.559 352.052 231.304 351.706 230.02C351.371 228.734 351.107 227.438 350.854 226.14C349.852 220.949 349.094 215.723 348.371 210.494C346.984 200.026 345.934 189.527 345.04 179.008L345.395 179.618C344.634 179.027 343.974 178.317 343.439 177.516C342.92 176.754 342.487 175.936 342.148 175.078C341.493 173.383 341.133 171.588 341.085 169.771C341.028 167.987 341.179 166.204 341.535 164.455C341.906 162.748 342.377 161.063 342.946 159.41C343.439 157.777 343.912 156.124 344.234 154.481C344.313 154.081 344.372 153.678 344.409 153.273C344.426 153.098 344.428 152.922 344.415 152.746C344.384 152.493 344.376 152.237 344.393 151.982C344.487 151.004 344.858 150.073 345.464 149.299C345.774 148.893 346.166 148.558 346.615 148.315C347.095 148.058 347.645 147.962 348.184 148.041C348.688 148.123 349.166 148.325 349.577 148.628C349.988 148.905 350.338 149.263 350.606 149.68C351.086 150.54 351.206 151.554 350.94 152.502C350.703 153.308 350.52 154.128 350.39 154.957L350.381 154.879C350.644 156.403 350.799 157.945 350.846 159.491C350.9 161.027 350.858 162.566 350.719 164.097L350.564 164.087C350.611 162.563 350.561 161.037 350.416 159.519C350.279 158.01 350.038 156.512 349.694 155.036L349.684 154.996L349.685 154.957C349.774 154.079 349.926 153.209 350.142 152.353C350.236 151.988 350.257 151.609 350.204 151.236C350.152 150.863 350.026 150.504 349.835 150.18C349.411 149.587 348.771 149.185 348.054 149.059C347.715 149.047 347.38 149.127 347.083 149.291C346.785 149.454 346.538 149.694 346.365 149.986C345.928 150.596 345.664 151.314 345.6 152.062C345.593 152.237 345.604 152.413 345.631 152.586C345.66 152.839 345.667 153.095 345.65 153.349C345.62 153.803 345.567 154.255 345.491 154.703C345.193 156.45 344.756 158.127 344.297 159.804C343.784 161.424 343.367 163.073 343.047 164.741C342.731 166.376 342.601 168.042 342.659 169.706C342.71 171.342 343.04 172.957 343.637 174.481C343.935 175.225 344.315 175.935 344.77 176.596C345.198 177.227 345.718 177.791 346.313 178.269L346.638 178.512L346.667 178.88C347.497 189.38 348.4 199.884 349.453 210.366C349.977 215.607 350.529 220.851 351.409 226.038C351.645 227.33 351.892 228.622 352.207 229.892C352.532 231.158 352.956 232.397 353.474 233.598C354.449 236.037 355.561 238.42 356.805 240.733C358.04 243.033 359.578 245.156 361.377 247.047C363.131 248.927 365.295 250.377 367.701 251.286C370.093 252.166 372.65 252.504 375.188 252.276C377.72 252.025 380.172 251.248 382.387 249.995C384.577 248.632 386.576 246.984 388.332 245.094C390.135 243.209 391.812 241.207 393.355 239.103C396.398 234.82 399.038 230.263 401.239 225.491L401.382 225.552Z" fill="black"/>
<path d="M365.936 149.163V135.713L350.646 133.203V176.853L365.906 172.403L365.936 172.393V172.363L365.796 166.163L363.496 166.603C363.225 166.559 362.982 166.412 362.816 166.193V169.303L353.806 172.993V136.923L362.816 138.993V150.553C363.677 149.762 364.772 149.273 365.936 149.163ZM363.046 162.053C362.966 161.983 362.886 161.903 362.816 161.833V162.973C362.888 162.894 362.965 162.821 363.046 162.753C363.243 162.583 363.475 162.46 363.726 162.393L363.046 162.053ZM362.816 156.553V157.823C362.938 157.66 363.071 157.506 363.216 157.363C363.055 157.108 362.921 156.836 362.816 156.553L362.816 156.553ZM362.816 153.963V154.513C362.888 154.364 362.99 154.231 363.116 154.123C363.011 154.079 362.911 154.025 362.816 153.963L362.816 153.963Z" fill="black"/>
<path d="M362.306 164.653C362.327 164.969 362.388 165.282 362.486 165.583L353.806 169.493C353.806 169.493 354.086 149.503 358.456 148.153C353.956 148.153 353.966 141.183 358.456 141.183C362.856 141.183 362.926 147.863 358.706 148.133C359.446 148.163 361.606 149.093 362.466 158.363C362.124 158.865 361.961 159.467 362.003 160.073C362.044 160.679 362.289 161.253 362.696 161.703C362.726 162.133 362.736 162.583 362.756 163.053C362.409 163.51 362.249 164.082 362.306 164.653Z" fill="black"/>
<path d="M365.084 172.638C367.034 179.056 368.689 185.515 370.371 191.969L372.847 201.662C373.685 204.89 374.496 208.133 375.279 211.39C372.626 205.231 370.484 198.865 368.872 192.356C367.168 185.876 365.903 179.288 365.084 172.638Z" fill="black"/>
<path d="M368.957 220.501C369.258 219.468 369.682 218.474 370.221 217.542C370.735 216.608 371.33 215.72 371.999 214.89C372.667 214.039 373.432 213.27 374.28 212.598C374.714 212.25 375.185 211.952 375.686 211.71C376.188 211.443 376.759 211.331 377.324 211.39C376.465 211.938 375.717 212.643 375.119 213.468L373.206 215.861C372.556 216.657 371.908 217.465 371.204 218.238C370.508 219.044 369.757 219.8 368.957 220.501Z" fill="black"/>
<path d="M418.67 197.483C416.265 202.234 413.841 206.968 411.586 211.774C410.429 214.163 409.352 216.586 408.312 219.015C407.257 221.414 406.381 223.888 405.694 226.418L405.535 227.056L404.92 226.939C402.048 226.361 399.225 225.56 396.478 224.541C393.741 223.541 391.071 222.363 388.487 221.015C385.916 219.647 383.455 218.083 381.125 216.336C378.831 214.519 376.767 212.43 374.977 210.114L374.854 209.954L374.945 209.748C377.819 203.235 380.804 196.774 384.091 190.451C385.732 187.289 387.399 184.137 389.225 181.06C390.141 179.524 391.087 178 392.121 176.518C392.638 175.778 393.189 175.053 393.771 174.341C394.375 173.581 395.077 172.906 395.861 172.334L395.783 172.391C397.734 170.859 399.777 169.448 401.901 168.167C404 166.871 406.166 165.687 408.389 164.619C410.608 163.549 412.885 162.603 415.209 161.787C417.529 160.977 419.898 160.317 422.303 159.81L422.34 159.96C420.006 160.67 417.711 161.502 415.465 162.452C413.216 163.379 411.021 164.43 408.89 165.601C406.754 166.756 404.653 167.976 402.633 169.318C400.614 170.642 398.667 172.069 396.797 173.595L396.719 173.653C395.455 174.754 394.362 176.037 393.478 177.461C392.489 178.902 391.545 180.39 390.641 181.906C388.827 184.936 387.08 188.015 385.401 191.143C383.726 194.268 382.074 197.408 380.445 200.563C378.823 203.721 377.172 206.869 375.613 210.057L375.581 209.691C377.228 212.041 379.2 214.145 381.437 215.94C383.707 217.713 386.157 219.241 388.748 220.499C391.353 221.721 394.043 222.754 396.796 223.59C399.533 224.428 402.319 225.097 405.138 225.592L404.364 226.113C405.032 223.492 405.939 220.939 407.075 218.485C408.144 216.029 409.32 213.628 410.544 211.257C413.029 206.534 415.657 201.894 418.536 197.406L418.67 197.483Z" fill="black"/>
<path d="M406.517 169.492C408.047 169.017 409.656 168.843 411.253 168.98C412.895 169.089 414.496 169.533 415.96 170.285C417.45 171.079 418.673 172.296 419.474 173.782C420.239 175.223 420.581 176.851 420.462 178.479C419.997 177.036 419.319 175.67 418.451 174.426C417.597 173.27 416.494 172.32 415.223 171.647C413.914 170.972 412.52 170.476 411.08 170.172C409.574 169.85 408.05 169.623 406.517 169.492Z" fill="black"/>
<path d="M413.489 122.883C412.973 123.959 412.597 125.097 412.37 126.269C412.15 127.429 412.017 128.605 411.972 129.785C411.936 130.961 411.971 132.139 412.077 133.311C412.187 134.482 412.377 135.643 412.586 136.8L412.637 137.082L412.463 137.329C411.884 138.151 411.321 138.998 410.767 139.838C410.215 140.676 409.66 141.528 409.204 142.379C409.086 142.593 408.988 142.801 408.897 143.004L408.796 143.275C408.784 143.313 408.797 143.306 408.788 143.321L408.777 143.335C408.785 143.312 408.787 143.287 408.782 143.262C408.71 143.067 408.716 143.199 408.902 143.266C409.085 143.357 409.276 143.43 409.473 143.483C410.405 143.723 411.358 143.87 412.318 143.924L412.868 143.964L413.004 144.485C413.365 145.88 413.802 147.255 414.314 148.602C414.813 149.957 415.408 151.274 416.094 152.545C416.756 153.818 417.589 154.995 418.571 156.041C419.56 157.109 420.883 157.808 422.321 158.026C420.795 158.044 419.314 157.502 418.159 156.503C416.992 155.53 415.986 154.378 415.181 153.089C414.374 151.819 413.671 150.486 413.077 149.103C412.48 147.72 411.973 146.301 411.558 144.853L412.243 145.414C411.166 145.368 410.097 145.215 409.051 144.956C408.755 144.878 408.468 144.771 408.193 144.635C408.021 144.552 407.86 144.447 407.714 144.323C407.616 144.238 407.53 144.141 407.459 144.032C407.363 143.905 407.298 143.756 407.272 143.599C407.253 143.514 407.239 143.428 407.231 143.341L407.251 143.166C407.266 143.056 407.287 142.946 407.317 142.838C407.371 142.69 407.426 142.528 407.486 142.394C407.605 142.133 407.73 141.883 407.861 141.652C408.381 140.713 408.955 139.863 409.534 139.007C410.12 138.157 410.731 137.337 411.355 136.513L411.231 137.042L410.996 135.218C410.963 134.605 410.902 133.995 410.892 133.381C410.851 132.154 410.909 130.927 411.064 129.709C411.214 128.493 411.485 127.296 411.875 126.135C412.237 124.972 412.782 123.874 413.489 122.883Z" fill="black"/>
<path d="M410.793 121.581C410.793 121.581 418.603 131.994 425.855 133.203C425.855 133.203 429.387 126.044 432.548 130.878C435.709 135.713 432.548 140.454 430.596 140.919C430.596 140.919 421.113 149.565 421.671 163.325C421.671 163.325 439.614 165.091 451.514 159.885C463.414 154.679 468.992 149.844 468.992 149.844C468.992 149.844 455.977 137.386 452.444 128.461C448.911 119.536 447.609 109.681 436.081 110.983C424.553 112.284 418.975 113.958 410.793 121.581Z" fill="black"/>
<path d="M413.788 149.076C414.675 148.866 415.544 148.584 416.385 148.234C416.769 148.053 417.126 147.822 417.448 147.546C417.781 147.233 418.076 146.881 418.324 146.497C418.344 147.011 418.198 147.518 417.906 147.941C417.599 148.367 417.19 148.709 416.716 148.934C415.795 149.359 414.746 149.41 413.788 149.076Z" fill="black"/>
<path d="M416.186 137.061C416.487 137.05 416.772 136.923 416.982 136.707C417.191 136.49 417.308 136.2 417.308 135.899C417.308 135.597 417.191 135.308 416.982 135.091C416.772 134.874 416.487 134.747 416.186 134.737C415.884 134.747 415.599 134.874 415.389 135.091C415.18 135.308 415.063 135.597 415.063 135.899C415.063 136.2 415.18 136.49 415.389 136.707C415.599 136.923 415.884 137.05 416.186 137.061Z" fill="black"/>
<path d="M413.788 133.481C414.025 133.015 414.403 132.637 414.87 132.4C415.312 132.151 415.784 131.959 416.276 131.831C417.247 131.569 418.265 131.53 419.253 131.715C418.349 132.071 417.419 132.36 416.472 132.58C416.014 132.693 415.564 132.822 415.114 132.951C414.651 133.072 414.206 133.25 413.788 133.481Z" fill="black"/>
<path d="M430.968 138.444C431.194 138.436 431.408 138.341 431.565 138.178C431.722 138.015 431.81 137.798 431.81 137.572C431.81 137.346 431.722 137.129 431.565 136.966C431.408 136.804 431.194 136.708 430.968 136.701C430.742 136.708 430.528 136.804 430.371 136.966C430.214 137.129 430.126 137.346 430.126 137.572C430.126 137.798 430.214 138.015 430.371 138.178C430.528 138.341 430.742 138.436 430.968 138.444Z" fill="black"/>
<path d="M463 153.984C465.641 154.542 468.194 155.455 470.59 156.697C473.016 157.924 475.285 159.44 477.347 161.212C479.408 163.014 481.172 165.129 482.572 167.481C483.943 169.831 484.826 172.433 485.169 175.132C484.256 172.659 483.042 170.308 481.553 168.132C480.04 166.017 478.286 164.085 476.326 162.376C474.345 160.667 472.23 159.12 470.002 157.748C467.743 156.359 465.405 155.102 463 153.984Z" fill="black"/>
<path d="M352.526 232.124C346.745 228.496 340.474 225.712 333.905 223.858C327.397 221.968 320.617 221.188 313.85 221.55C307.117 221.947 300.54 223.74 294.537 226.815C288.548 229.825 283.204 234.114 278.061 238.555C267.88 247.697 258.482 257.674 249.965 268.382C241.407 279.071 233.376 290.202 225.884 301.639L225.948 301.525C225.594 302.612 225.397 303.744 225.361 304.887C225.369 305.478 225.324 306.066 225.364 306.657L225.52 308.431C225.612 309.018 225.744 309.603 225.853 310.188C225.913 310.48 225.96 310.775 226.031 311.065L226.296 311.924L226.825 313.642C227.027 314.206 227.288 314.753 227.516 315.309L228.225 316.968L229.097 318.559L229.967 320.149C230.269 320.672 230.635 321.16 230.963 321.67L231.974 323.183C232.297 323.698 232.652 324.191 233.038 324.66L235.322 327.511C236.066 328.474 236.971 329.311 237.786 330.217C238.64 331.091 239.421 332.032 240.332 332.852L243.034 335.341C243.934 336.17 244.817 337.017 245.795 337.764L248.658 340.077C249.619 340.84 250.542 341.647 251.563 342.337L257.536 346.661L257.929 346.945L258.038 347.383C258.634 349.778 259.221 352.167 259.777 354.576C260.046 355.788 260.316 356.978 260.545 358.249L260.624 358.758L260.654 359.111L260.66 359.199C260.667 359.132 260.664 359.065 260.652 358.998C260.637 358.913 260.608 358.831 260.568 358.754C260.524 358.673 260.469 358.61 260.49 358.631C260.497 358.624 260.482 358.614 260.489 358.625L260.604 358.718C260.667 358.779 260.802 358.859 260.897 358.93C261.371 359.239 261.862 359.521 262.369 359.774C264.513 360.831 266.743 361.704 269.034 362.384C271.343 363.095 273.689 363.675 276.063 364.12C280.833 365.011 285.682 365.411 290.534 365.314C295.402 365.211 300.25 364.676 305.023 363.717L304.489 364.618L301.014 351.718L297.63 338.791L297.854 338.726L301.907 351.459L305.87 364.218L306.095 364.942L305.335 365.12C302.92 365.685 300.481 366.164 298.021 366.527C295.558 366.871 293.077 367.083 290.589 367.191C285.601 367.399 280.605 367.096 275.679 366.286C270.696 365.524 265.847 364.056 261.278 361.929C260.682 361.637 260.103 361.311 259.544 360.953C259.391 360.843 259.258 360.769 259.088 360.628L258.846 360.429C258.734 360.321 258.628 360.207 258.529 360.088C258.475 360.02 258.429 359.945 258.393 359.867C258.337 359.755 258.294 359.638 258.264 359.516C258.24 359.415 258.223 359.312 258.216 359.208L258.211 359.182L258.198 359.075L258.13 358.674C257.912 357.527 257.628 356.32 257.352 355.135C256.8 352.752 256.222 350.363 255.632 347.985L256.134 348.707L250.073 344.303C249.048 343.59 248.112 342.754 247.142 341.965L244.252 339.571C243.269 338.799 242.371 337.92 241.46 337.06L238.727 334.478C237.806 333.628 237.007 332.647 236.142 331.738C235.313 330.794 234.4 329.927 233.64 328.919C230.351 325.061 227.675 320.72 225.706 316.048C223.882 311.343 222.672 306.075 224.503 300.873L224.52 300.825L224.567 300.758C228.519 295.129 232.595 289.617 236.747 284.153C240.91 278.701 245.079 273.255 249.419 267.943C258.053 257.295 266.799 246.675 276.862 237.227C279.363 234.852 282.025 232.64 284.763 230.515C287.541 228.403 290.5 226.54 293.604 224.947C299.886 221.833 306.747 220.06 313.751 219.738C320.711 219.468 327.662 220.455 334.271 222.654C335.92 223.174 337.541 223.778 339.143 224.421C340.734 225.093 342.307 225.801 343.847 226.576C346.94 228.096 349.89 229.889 352.662 231.935L352.526 232.124Z" fill="black"/>
<path d="M539.466 188.893C536.116 173.273 509.346 175.133 509.346 175.133C444.636 173.273 428.646 192.013 428.646 192.013C414.516 203.693 397.036 253.013 397.036 253.013L309.306 254.953C303.974 255.034 298.808 256.821 294.566 260.053C282.766 269.183 285.096 281.113 285.096 281.113C288.066 302.973 298.396 341.013 298.396 341.013C314.296 351.823 439.896 348.423 439.896 348.423C483.126 340.243 501.906 330.953 503.016 323.883C504.136 316.813 520.496 262.153 529.796 235.373C539.096 208.603 542.806 204.513 539.466 188.893ZM408.656 281.903C408.236 287.133 407.879 292.37 407.586 297.613L406.666 313.343C406.386 318.593 406.036 323.833 405.676 329.093C405.446 323.833 405.376 318.57 405.466 313.303C405.516 308.033 405.736 302.773 406.036 297.523C406.196 294.893 406.406 292.263 406.616 289.643C406.886 287.023 407.096 284.393 407.456 281.783C408.041 276.541 409 271.348 410.326 266.243C409.526 271.443 409.106 276.683 408.656 281.903ZM438.016 205.013C434.62 209.47 431.58 214.188 428.926 219.123C426.265 224.064 423.871 229.145 421.756 234.343C420.676 236.943 419.676 239.573 418.736 242.233C417.766 244.873 416.886 247.553 416.056 250.253C416.546 247.463 417.286 244.733 418.016 241.993C418.816 239.283 419.693 236.593 420.646 233.923C422.563 228.578 424.876 223.383 427.566 218.383C428.946 215.893 430.396 213.453 431.966 211.083C433.549 208.717 435.262 206.44 437.096 204.263C438.948 202.106 440.925 200.059 443.016 198.133C445.15 196.266 447.431 194.574 449.836 193.073C445.416 196.547 441.446 200.558 438.016 205.013V205.013ZM447.606 323.713L447.586 323.443L451.296 322.983L451.356 323.393L447.606 323.713ZM455.086 322.833L454.976 322.283L458.626 321.443L458.776 322.123L455.086 322.833ZM462.446 321.313L462.246 320.493L465.856 319.503L466.096 320.403L462.446 321.313ZM469.726 319.443L469.446 318.453L473.026 317.363L473.346 318.423L469.726 319.443ZM476.946 317.363L476.596 316.223L480.146 315.053L480.546 316.273L476.946 317.363ZM484.126 315.153L483.696 313.853L487.226 312.613L487.696 313.993L484.126 315.153ZM493.406 311.543L493.366 312.043L492.906 312.203L491.256 312.783L490.756 311.373L491.926 310.953L492.016 309.693L493.536 309.823L493.406 311.543ZM493.916 306.453L492.376 306.253L492.846 302.863L494.406 303.113L493.916 306.453ZM494.986 299.783L493.406 299.503L494.036 296.153L495.626 296.463L494.986 299.783ZM496.336 293.163L494.716 292.813L495.446 289.483L497.086 289.863L496.336 293.163ZM497.876 286.573L496.216 286.163L497.026 282.863L498.706 283.283L497.876 286.573ZM499.556 280.003L497.866 279.563L498.766 276.273L500.416 276.723L499.556 280.003ZM501.306 273.453L499.676 272.993L500.616 269.723L502.216 270.183L501.306 273.453ZM503.146 266.923L501.576 266.463L502.546 263.203L504.096 263.663L503.146 266.923ZM505.066 260.413L503.546 259.953L504.556 256.713L506.046 257.173L505.066 260.413ZM507.046 253.933L505.576 253.473L506.616 250.233L508.056 250.693L507.046 253.933ZM509.076 247.463L507.666 247.003L508.746 243.783L510.106 244.233L509.076 247.463ZM511.126 240.993L509.846 240.573L510.956 237.363L512.166 237.763L511.126 240.993ZM513.206 234.543L512.076 234.153L513.206 230.953L514.266 231.313L513.206 234.543ZM515.336 228.103L514.356 227.763L515.506 224.563L516.416 224.883L515.336 228.103ZM517.506 221.673L516.666 221.383L517.856 218.203L518.576 218.453L517.506 221.673ZM519.666 215.243L519.056 215.023L520.276 211.863L520.756 212.033L519.666 215.243ZM521.856 208.823L521.496 208.693L522.726 205.533L522.976 205.623L521.856 208.823Z" fill="black"/>
<path d="M256.835 347.684C260.088 340.81 263.748 334.17 267.507 327.588C271.306 321.029 275.208 314.529 279.52 308.265C276.271 315.14 272.611 321.78 268.849 328.36C265.046 334.918 261.144 341.418 256.835 347.684Z" fill="black"/>
<path d="M353.039 348.274C353.013 353.022 352.698 357.737 352.314 362.464C352.095 364.822 351.847 367.182 351.569 369.542C351.252 371.894 350.898 374.247 350.505 376.602C350.11 378.955 349.813 381.353 349.423 383.753C349.015 386.17 348.255 388.513 347.166 390.708C346.048 393.01 344.623 395.15 342.93 397.07C342.494 397.562 341.991 398.041 341.511 398.496C340.993 398.955 340.45 399.384 339.884 399.782C338.71 400.636 337.323 401.149 335.875 401.265L335.473 400.46C335.997 399.452 336.386 398.379 336.63 397.269L336.996 395.668L337.33 394.055C337.772 391.906 338.211 389.74 338.729 387.572C339.25 385.388 339.972 383.256 340.886 381.204C341.819 379.116 342.781 377.007 343.528 374.822C344.29 372.643 345.024 370.445 345.729 368.23C346.477 366.025 347.202 363.808 347.903 361.577C349.356 357.128 350.723 352.636 352.15 348.139L353.039 348.274Z" fill="black"/>
<path d="M406.118 348.811L420.83 393.694C422.069 397.416 423.474 401.088 424.878 404.743C426.256 408.389 427.421 412.111 428.367 415.892C429.321 419.662 430.161 423.459 430.968 427.258C431.372 429.154 431.756 431.068 432.179 432.946C432.514 434.833 433.049 436.68 433.773 438.454L433.183 439.134C432.688 438.871 432.216 438.569 431.771 438.231C431.371 437.88 430.946 437.514 430.555 437.135C429.821 436.37 429.127 435.569 428.477 434.733C427.22 433.091 426.073 431.367 425.044 429.573C423.04 426.07 421.29 422.428 419.808 418.674C418.333 414.976 417.171 411.16 416.334 407.268C415.496 403.38 414.77 399.477 413.892 395.619L411.383 384.029L409.13 372.394C407.724 364.619 406.356 356.844 405.242 349.016L406.118 348.811Z" fill="black"/>
<path d="M493.093 333.209C495.194 341.332 497.585 349.355 500.266 357.28C501.599 361.237 502.964 365.177 504.456 369.064L505.525 371.994L506.665 374.895C507.441 376.822 508.145 378.775 508.989 380.67C509.812 382.574 510.642 384.473 511.51 386.353L514.283 391.905C515.147 393.779 516.113 395.597 516.965 397.465C517.845 399.318 518.557 401.258 519.394 403.129C522.452 410.795 525.715 418.275 528.305 426.638L527.565 427.15C525.861 425.769 524.328 424.24 522.773 422.705C522.023 421.922 521.227 421.157 520.547 420.322C519.857 419.494 519.179 418.654 518.514 417.803C517.849 416.953 517.187 416.097 516.546 415.227C515.89 414.364 515.254 413.488 514.685 412.578C513.521 410.771 512.404 408.931 511.306 407.077C510.242 405.213 509.278 403.293 508.419 401.326C507.978 400.349 507.558 399.362 507.151 398.371C506.741 397.379 506.429 396.352 506.064 395.346L504.079 389.238C503.486 387.183 502.855 385.147 502.217 383.115C501.543 381.095 501.015 379.031 500.415 376.992L499.541 373.928L498.742 370.844C497.697 366.728 496.788 362.584 495.918 358.44C494.22 350.151 492.98 341.773 492.204 333.347L493.093 333.209Z" fill="black"/>
<path d="M309.139 344.58C306.174 352.062 302.992 359.439 299.778 366.81L294.837 377.811L289.679 388.717C287.931 392.341 286.307 396.038 284.603 399.703C282.891 403.369 280.888 406.891 278.613 410.236C276.322 413.631 273.802 416.867 271.072 419.921C269.671 421.484 268.174 422.958 266.591 424.337C265.762 425.041 264.892 425.696 263.986 426.3C263.501 426.612 262.994 426.888 262.469 427.127L262.045 427.291L261.565 427.417C261.385 427.453 261.203 427.47 261.02 427.469C260.813 427.455 260.61 427.406 260.42 427.323L260.688 426.464C260.956 426.231 261.185 425.956 261.366 425.651C261.623 425.267 261.857 424.868 262.066 424.456C262.504 423.603 262.939 422.732 263.333 421.829L265.764 416.417C267.394 412.803 269.075 409.207 270.862 405.662C272.646 402.109 274.639 398.665 276.83 395.348C279.042 392.024 281.278 388.7 283.351 385.283L295.787 364.732L308.334 344.177L309.139 344.58Z" fill="black"/>
<path d="M181.333 320.825C181.333 320.825 185.254 330.226 180.599 334.282C173.687 331.365 167.799 326.457 163.683 320.184C163.683 320.184 147.901 320.052 176.416 342.557C176.416 342.557 212.582 373.954 215.34 374.504C222.268 375.887 220.485 365.748 220.485 365.748C220.485 365.748 196.965 349.383 192.955 344.782C192.955 344.782 195.78 332.09 192.128 327.083L181.333 320.825Z" fill="black"/>
<path d="M163.683 320.184C164.876 319.362 166.284 318.909 167.733 318.883C169.175 318.796 170.622 318.885 172.042 319.15C174.867 319.708 177.623 320.573 180.26 321.728L184.143 323.521C185.429 324.107 186.739 324.639 188.062 325.125C190.704 326.101 193.428 326.837 196.201 327.323C198.966 327.818 201.783 327.959 204.583 327.745C205.983 327.642 207.373 327.438 208.743 327.136C210.118 326.85 211.475 326.476 212.804 326.018C215.471 325.085 218.025 323.853 220.416 322.347C222.832 320.848 225.127 319.162 227.279 317.303C223.263 321.424 218.428 324.656 213.085 326.792C207.643 328.844 201.751 329.401 196.021 328.404C190.298 327.5 184.933 325.106 179.874 322.592C177.335 321.358 174.67 320.4 171.926 319.736C170.556 319.411 169.154 319.237 167.746 319.216C167.042 319.216 166.339 319.287 165.649 319.426C164.949 319.541 164.279 319.799 163.683 320.184Z" fill="black"/>
<path d="M242.857 336.819C240.591 338.924 238.395 341.089 236.268 343.316C235.212 344.434 234.189 345.581 233.235 346.774C232.262 347.927 231.409 349.176 230.69 350.502C230.365 351.167 230.113 351.865 229.936 352.584C229.713 353.344 229.449 354.092 229.145 354.824C228.508 356.265 227.744 357.647 226.863 358.953C225.109 361.54 222.956 363.834 220.485 365.748C222.559 363.484 224.414 361.028 226.025 358.414C226.814 357.121 227.514 355.775 228.12 354.387C228.386 353.683 228.694 352.993 228.894 352.268C229.097 351.489 229.386 350.734 229.754 350.017C231.4 347.34 233.427 344.916 235.77 342.822C238.008 340.678 240.375 338.674 242.857 336.819Z" fill="black"/>
<path d="M238.433 400.721C238.433 400.721 248.106 403.915 248.123 410.088C241.391 413.402 233.826 414.638 226.39 413.639C226.39 413.639 215.955 425.48 251.637 418.669C251.637 418.669 299.049 411.899 301.271 410.175C306.853 405.846 298.023 400.553 298.023 400.553C298.023 400.553 270.252 407.61 264.15 407.627C264.15 407.627 256.408 397.181 250.232 396.661L238.433 400.721Z" fill="black"/>
<path d="M226.391 413.639C226.551 412.199 227.131 410.839 228.06 409.727C228.938 408.58 229.953 407.545 231.083 406.645C233.355 404.876 235.814 403.359 238.414 402.123L242.312 400.363C243.597 399.775 244.856 399.133 246.091 398.451C248.558 397.094 250.898 395.517 253.082 393.74C255.266 391.975 257.218 389.939 258.89 387.682C259.728 386.557 260.485 385.373 261.154 384.14C261.838 382.912 262.444 381.643 262.969 380.339C264.01 377.712 264.752 374.975 265.179 372.181C265.629 369.374 265.858 366.536 265.863 363.692C266.346 369.426 265.622 375.197 263.737 380.633C261.724 386.089 258.286 390.907 253.78 394.584C249.349 398.317 244.027 400.804 238.813 402.98C236.218 404.091 233.749 405.478 231.451 407.116C230.307 407.939 229.258 408.884 228.32 409.935C227.859 410.467 227.452 411.044 227.105 411.657C226.733 412.262 226.49 412.936 226.391 413.639Z" fill="black"/>
<path d="M290.813 364.7C290.919 367.791 291.117 370.869 291.407 373.935C291.56 375.465 291.757 376.989 292.034 378.491C292.268 379.982 292.653 381.444 293.185 382.856C293.475 383.537 293.837 384.185 294.264 384.789C294.693 385.456 295.085 386.145 295.439 386.854C296.111 388.279 296.655 389.761 297.065 391.283C297.871 394.303 298.195 397.432 298.023 400.553C297.67 397.502 297.029 394.492 296.109 391.563C295.648 390.12 295.09 388.71 294.438 387.342C294.08 386.681 293.76 385.996 293.343 385.371C292.887 384.706 292.506 383.994 292.206 383.246C291.26 380.249 290.756 377.13 290.707 373.987C290.553 370.892 290.588 367.791 290.813 364.7Z" fill="black"/>
<path d="M365.936 172.393L365.659 166.166L365.822 166.297L363.531 166.787C363.513 166.791 363.494 166.792 363.475 166.79L363.464 166.788C363.144 166.74 362.855 166.57 362.657 166.314L362.666 166.325C362.306 165.836 362.103 165.248 362.085 164.641C362.023 164.022 362.195 163.402 362.567 162.903L362.556 162.919L362.615 162.839L362.628 162.82L362.634 162.813C362.772 162.662 362.927 162.527 363.095 162.41C363.272 162.288 363.469 162.197 363.677 162.142L363.612 162.621L362.928 162.29C362.909 162.281 362.892 162.27 362.876 162.256L362.872 162.252C362.502 161.938 362.197 161.554 361.976 161.122C361.759 160.671 361.668 160.169 361.713 159.67C361.763 159.184 361.911 158.713 362.15 158.285C362.266 158.078 362.398 157.884 362.523 157.683C362.664 157.49 362.835 157.311 362.992 157.126L362.939 157.534C362.607 156.994 362.38 156.396 362.271 155.771C362.225 155.434 362.249 155.092 362.342 154.765C362.443 154.413 362.64 154.096 362.912 153.851L362.994 154.44C362.63 154.28 362.301 154.053 362.022 153.77C361.727 153.469 361.538 153.079 361.485 152.661C361.472 152.266 361.543 151.873 361.694 151.509C361.845 151.144 362.072 150.816 362.36 150.546C363.371 149.455 364.774 148.809 366.261 148.752C366.972 148.691 367.687 148.697 368.397 148.77C368.75 148.805 369.101 148.858 369.45 148.924L369.975 149.036C370.182 149.092 370.379 149.182 370.556 149.302C370.912 149.526 371.193 149.85 371.366 150.233C371.522 150.62 371.567 151.043 371.496 151.454C371.325 152.183 370.997 152.866 370.534 153.455L370.396 152.917C370.846 153.141 371.264 153.424 371.638 153.759C372.031 154.098 372.346 154.519 372.561 154.991C372.779 155.493 372.814 156.056 372.659 156.582C372.51 157.076 372.259 157.535 371.924 157.927L371.893 157.466C372.346 157.908 372.744 158.403 373.078 158.941C373.434 159.484 373.669 160.099 373.765 160.742C373.852 161.42 373.676 162.105 373.275 162.658C372.88 163.173 372.373 163.591 371.793 163.881L371.917 163.543C372.206 164.368 372.37 165.232 372.401 166.105C372.449 166.988 372.279 167.869 371.905 168.67C371.517 169.474 370.858 170.116 370.043 170.482C369.654 170.673 369.246 170.822 368.826 170.926C368.406 171.017 367.978 171.061 367.557 171.13L367.592 171.12C366.976 171.436 366.429 171.871 365.984 172.401L365.979 172.406C365.979 172.406 365.977 172.404 365.966 172.403L365.953 172.44C365.37 173.134 364.981 173.97 364.826 174.863C364.944 173.954 365.301 173.092 365.859 172.365L365.846 172.403C365.856 172.372 365.872 172.344 365.893 172.32L365.889 172.324C366.326 171.755 366.875 171.279 367.5 170.926L367.515 170.92L367.535 170.916C367.943 170.83 368.357 170.769 368.756 170.664C369.15 170.548 369.531 170.39 369.891 170.193C370.615 169.827 371.194 169.226 371.532 168.489C371.855 167.746 371.99 166.934 371.925 166.127C371.874 165.311 371.703 164.507 371.415 163.743C371.393 163.683 371.391 163.618 371.412 163.558C371.432 163.498 371.472 163.447 371.525 163.413L371.539 163.404C372.033 163.144 372.463 162.775 372.795 162.325C373.099 161.888 373.223 161.351 373.141 160.824C372.878 159.718 372.284 158.719 371.439 157.959C371.38 157.901 371.343 157.822 371.337 157.739C371.33 157.656 371.354 157.573 371.403 157.506L371.409 157.498C371.678 157.179 371.88 156.807 372 156.406C372.113 156.028 372.085 155.622 371.923 155.263C371.517 154.513 370.875 153.917 370.097 153.568L370.092 153.566C370.049 153.544 370.011 153.515 369.98 153.478C369.948 153.442 369.924 153.4 369.909 153.355C369.894 153.31 369.888 153.262 369.892 153.214C369.895 153.166 369.908 153.12 369.93 153.077L369.958 153.03C370.347 152.53 370.624 151.952 370.773 151.336C370.827 151.067 370.797 150.787 370.686 150.536C370.574 150.284 370.387 150.074 370.151 149.934C370.043 149.861 369.924 149.805 369.798 149.77L369.311 149.67C368.983 149.61 368.651 149.566 368.319 149.53C367.657 149.457 366.991 149.445 366.327 149.496C365.682 149.511 365.047 149.654 364.457 149.915C363.868 150.177 363.336 150.553 362.893 151.021C362.671 151.217 362.493 151.457 362.37 151.726C362.247 151.994 362.181 152.286 362.177 152.582C362.238 152.858 362.366 153.115 362.552 153.329C362.737 153.543 362.973 153.706 363.238 153.806L363.25 153.811C363.291 153.831 363.328 153.858 363.359 153.891C363.39 153.925 363.413 153.964 363.429 154.006C363.444 154.049 363.451 154.094 363.449 154.14C363.447 154.185 363.437 154.23 363.417 154.271C363.395 154.319 363.361 154.361 363.32 154.395C363.166 154.554 363.052 154.748 362.986 154.96C362.918 155.198 362.899 155.447 362.932 155.692C362.965 155.955 363.034 156.213 363.135 156.459L363.493 157.191C363.524 157.256 363.536 157.328 363.528 157.399C363.519 157.471 363.491 157.538 363.445 157.593L363.439 157.6C363.31 157.756 363.169 157.899 363.044 158.063C362.931 158.239 362.806 158.411 362.7 158.589C362.493 158.939 362.358 159.326 362.305 159.729C362.272 160.131 362.338 160.535 362.498 160.905C362.657 161.276 362.906 161.601 363.22 161.854L363.165 161.816L363.84 162.164C363.901 162.196 363.946 162.249 363.967 162.314C363.988 162.379 363.982 162.449 363.951 162.51C363.933 162.544 363.908 162.573 363.877 162.596C363.847 162.619 363.812 162.635 363.775 162.644C363.63 162.683 363.492 162.745 363.366 162.827C363.233 162.916 363.11 163.018 362.998 163.132L363.017 163.107L362.956 163.186L362.944 163.203C362.634 163.603 362.484 164.106 362.524 164.611C362.526 165.127 362.679 165.631 362.966 166.061L362.975 166.072C363.109 166.253 363.306 166.377 363.528 166.418L363.461 166.418L365.77 166.029L365.776 166.028C365.811 166.022 365.847 166.03 365.876 166.051C365.905 166.071 365.925 166.103 365.931 166.138L365.933 166.16L365.936 172.393Z" fill="black"/>
<path d="M369.038 167.938C368.87 167.32 368.502 166.775 367.991 166.389C367.747 166.239 367.459 166.173 367.173 166.204C366.864 166.247 366.56 166.319 366.265 166.42C365.612 166.625 364.946 166.786 364.271 166.902C363.904 166.959 363.53 166.956 363.165 166.891C362.944 166.857 362.738 166.761 362.569 166.615C362.401 166.468 362.278 166.277 362.214 166.063L362.226 166.094C362.1 165.741 362.024 165.371 361.999 164.997C361.971 164.627 362.005 164.256 362.098 163.897C362.185 163.538 362.35 163.202 362.579 162.912C362.809 162.628 363.083 162.384 363.391 162.189L363.404 162.409C362.935 162.184 362.524 161.855 362.202 161.447C361.872 161.018 361.691 160.493 361.688 159.952C361.699 159.416 361.834 158.889 362.081 158.412C362.213 158.189 362.336 157.957 362.478 157.741L362.944 157.125L362.981 157.632C362.576 157.28 362.27 156.829 362.091 156.323C361.909 155.786 361.942 155.199 362.183 154.685C362.409 154.181 362.796 153.766 363.283 153.505C363.731 153.287 364.204 153.128 364.693 153.032C365.612 152.802 366.553 152.667 367.501 152.629C368.458 152.555 369.416 152.758 370.261 153.213C370.266 153.216 370.269 153.22 370.272 153.224C370.275 153.228 370.277 153.232 370.278 153.237C370.279 153.242 370.28 153.247 370.279 153.252C370.278 153.257 370.276 153.262 370.273 153.266C370.268 153.274 370.261 153.279 370.252 153.282C370.244 153.285 370.234 153.284 370.226 153.281C369.356 153.018 368.435 152.967 367.541 153.133C366.642 153.267 365.755 153.473 364.889 153.749C364.473 153.857 364.069 154.009 363.685 154.202C363.353 154.391 363.087 154.679 362.925 155.024C362.779 155.379 362.751 155.77 362.844 156.142C362.937 156.513 363.148 156.845 363.443 157.088L363.458 157.102C363.524 157.166 363.563 157.252 363.567 157.344C363.571 157.436 363.54 157.526 363.481 157.595C363.169 157.945 362.884 158.317 362.628 158.709C362.394 159.096 362.238 159.526 362.169 159.973C362.121 160.423 362.227 160.876 362.471 161.258C362.728 161.652 363.085 161.971 363.505 162.182L363.511 162.185C363.54 162.201 363.562 162.228 363.571 162.26C363.581 162.292 363.577 162.326 363.562 162.356C363.551 162.375 363.536 162.391 363.518 162.402C363.226 162.565 362.972 162.789 362.773 163.058C362.575 163.323 362.446 163.633 362.397 163.961C362.323 164.614 362.44 165.274 362.733 165.863L362.737 165.871L362.746 165.894C362.903 166.317 363.558 166.301 364.181 166.221C364.831 166.127 365.474 165.999 366.11 165.837C366.452 165.73 366.808 165.673 367.166 165.668C367.555 165.674 367.931 165.807 368.237 166.046C368.501 166.286 368.714 166.575 368.865 166.898C369.015 167.22 369.1 167.57 369.114 167.926C369.115 167.936 369.112 167.946 369.106 167.954C369.099 167.962 369.09 167.967 369.08 167.968C369.071 167.968 369.062 167.965 369.054 167.96C369.047 167.954 369.041 167.947 369.038 167.938Z" fill="black"/>
<path d="M363.364 162.006C364.102 161.741 364.857 161.524 365.624 161.356C366.009 161.277 366.404 161.238 366.792 161.183C367.186 161.155 367.581 161.155 367.976 161.183C368.769 161.216 369.541 161.45 370.219 161.864C370.884 162.28 371.392 162.904 371.665 163.64C371.343 162.948 370.8 162.383 370.122 162.032C369.453 161.696 368.709 161.537 367.962 161.571C367.59 161.576 367.219 161.607 366.851 161.664C366.486 161.748 366.119 161.815 365.761 161.921C365.045 162.143 364.344 162.41 363.661 162.721L363.645 162.728C363.551 162.768 363.445 162.769 363.35 162.732C363.255 162.694 363.179 162.621 363.138 162.527C363.097 162.433 363.094 162.327 363.131 162.232C363.168 162.136 363.24 162.059 363.334 162.017L363.364 162.006Z" fill="black"/>
<path d="M371.662 157.713C371.154 157.16 370.497 156.766 369.769 156.578C369.054 156.388 368.309 156.333 367.574 156.416C366.84 156.488 366.116 156.64 365.416 156.87C365.069 157 364.719 157.116 364.377 157.256L363.366 157.711L363.343 157.721C363.25 157.762 363.145 157.765 363.05 157.729C362.955 157.693 362.879 157.621 362.837 157.528C362.795 157.436 362.792 157.33 362.828 157.235C362.864 157.14 362.936 157.064 363.028 157.022L363.058 157.01L364.148 156.626C364.516 156.511 364.893 156.42 365.263 156.317C366.015 156.139 366.784 156.044 367.557 156.034C368.33 156.012 369.101 156.135 369.829 156.396C370.554 156.649 371.191 157.106 371.662 157.713Z" fill="black"/>
<path d="M368.183 129.081C369.448 128.205 370.77 127.415 372.141 126.715C373.491 125.997 374.876 125.363 376.269 124.744C377.673 124.152 379.085 123.578 380.533 123.087C381.982 122.569 383.464 122.148 384.969 121.829C383.705 122.707 382.383 123.498 381.012 124.197C379.662 124.915 378.277 125.549 376.883 126.166C375.478 126.756 374.066 127.33 372.618 127.821C371.17 128.339 369.688 128.76 368.183 129.081Z" fill="black"/>
<path d="M373.494 135.496C374.74 135.195 376.009 134.993 377.287 134.894C378.552 134.77 379.816 134.737 381.08 134.722C382.345 134.735 383.609 134.768 384.873 134.891C386.152 134.991 387.42 135.193 388.666 135.496C387.42 135.799 386.152 136.001 384.873 136.1C383.609 136.224 382.345 136.257 381.08 136.27C379.816 136.255 378.552 136.222 377.287 136.098C376.009 135.998 374.74 135.797 373.494 135.496Z" fill="black"/>
<path d="M373.494 143.77C374.501 143.714 375.512 143.76 376.51 143.906C377.49 144.032 378.462 144.217 379.42 144.46C380.38 144.697 381.324 144.992 382.247 145.345C383.197 145.687 384.108 146.125 384.969 146.652C383.962 146.71 382.951 146.665 381.953 146.518C380.972 146.393 380 146.207 379.043 145.962C378.083 145.724 377.139 145.428 376.216 145.075C375.267 144.732 374.355 144.295 373.494 143.77Z" fill="black"/>
<path d="M228.956 303.623C229.345 303.609 229.713 303.445 229.983 303.166C230.254 302.886 230.405 302.512 230.405 302.123C230.405 301.734 230.254 301.36 229.983 301.08C229.713 300.8 229.345 300.636 228.956 300.623C228.567 300.636 228.199 300.8 227.928 301.08C227.658 301.36 227.507 301.734 227.507 302.123C227.507 302.512 227.658 302.886 227.928 303.166C228.199 303.445 228.567 303.609 228.956 303.623Z" fill="black"/>
<path d="M230.636 312.743C231.025 312.729 231.393 312.565 231.663 312.286C231.934 312.006 232.085 311.632 232.085 311.243C232.085 310.854 231.934 310.48 231.663 310.2C231.393 309.92 231.025 309.756 230.636 309.743C230.247 309.756 229.879 309.92 229.608 310.2C229.338 310.48 229.187 310.854 229.187 311.243C229.187 311.632 229.338 312.006 229.608 312.286C229.879 312.565 230.247 312.729 230.636 312.743Z" fill="black"/>
<path d="M235.916 321.863C236.305 321.849 236.673 321.685 236.944 321.406C237.214 321.126 237.365 320.752 237.365 320.363C237.365 319.974 237.214 319.6 236.944 319.32C236.673 319.04 236.305 318.876 235.916 318.863C235.527 318.876 235.159 319.04 234.889 319.32C234.618 319.6 234.467 319.974 234.467 320.363C234.467 320.752 234.618 321.126 234.889 321.406C235.159 321.685 235.527 321.849 235.916 321.863Z" fill="black"/>
<path d="M243.356 330.743C243.745 330.729 244.113 330.565 244.384 330.286C244.654 330.006 244.805 329.632 244.805 329.243C244.805 328.854 244.654 328.48 244.384 328.2C244.113 327.92 243.745 327.756 243.356 327.743C242.967 327.756 242.599 327.92 242.329 328.2C242.058 328.48 241.907 328.854 241.907 329.243C241.907 329.632 242.058 330.006 242.329 330.286C242.599 330.565 242.967 330.729 243.356 330.743Z" fill="black"/>
<path d="M250.316 336.743C250.705 336.729 251.073 336.565 251.344 336.286C251.614 336.006 251.765 335.632 251.765 335.243C251.765 334.854 251.614 334.48 251.344 334.2C251.073 333.92 250.705 333.756 250.316 333.743C249.927 333.756 249.559 333.92 249.289 334.2C249.018 334.48 248.867 334.854 248.867 335.243C248.867 335.632 249.018 336.006 249.289 336.286C249.559 336.565 249.927 336.729 250.316 336.743Z" fill="black"/>
<path d="M257.516 342.263C257.905 342.249 258.273 342.085 258.543 341.806C258.814 341.526 258.965 341.152 258.965 340.763C258.965 340.374 258.814 340 258.543 339.72C258.273 339.44 257.905 339.276 257.516 339.263C257.127 339.276 256.759 339.44 256.488 339.72C256.218 340 256.067 340.374 256.067 340.763C256.067 341.152 256.218 341.526 256.488 341.806C256.759 342.085 257.127 342.249 257.516 342.263Z" fill="black"/>
<path d="M262.316 351.623C262.705 351.609 263.073 351.445 263.344 351.166C263.614 350.886 263.765 350.512 263.765 350.123C263.765 349.734 263.614 349.36 263.344 349.08C263.073 348.8 262.705 348.636 262.316 348.623C261.927 348.636 261.559 348.8 261.289 349.08C261.018 349.36 260.867 349.734 260.867 350.123C260.867 350.512 261.018 350.886 261.289 351.166C261.559 351.445 261.927 351.609 262.316 351.623Z" fill="black"/>
<path d="M265.916 357.863C266.305 357.849 266.673 357.685 266.944 357.406C267.214 357.126 267.365 356.752 267.365 356.363C267.365 355.974 267.214 355.6 266.944 355.32C266.673 355.04 266.305 354.876 265.916 354.863C265.527 354.876 265.159 355.04 264.889 355.32C264.618 355.6 264.467 355.974 264.467 356.363C264.467 356.752 264.618 357.126 264.889 357.406C265.159 357.685 265.527 357.849 265.916 357.863Z" fill="black"/>
<path d="M273.836 361.223C274.225 361.209 274.593 361.045 274.864 360.766C275.134 360.486 275.285 360.112 275.285 359.723C275.285 359.334 275.134 358.96 274.864 358.68C274.593 358.4 274.225 358.236 273.836 358.223C273.447 358.236 273.079 358.4 272.809 358.68C272.538 358.96 272.387 359.334 272.387 359.723C272.387 360.112 272.538 360.486 272.809 360.766C273.079 361.045 273.447 361.209 273.836 361.223Z" fill="black"/>
<path d="M281.996 362.423C282.385 362.409 282.753 362.245 283.023 361.966C283.294 361.686 283.445 361.312 283.445 360.923C283.445 360.534 283.294 360.16 283.023 359.88C282.753 359.6 282.385 359.436 281.996 359.423C281.607 359.436 281.239 359.6 280.968 359.88C280.698 360.16 280.547 360.534 280.547 360.923C280.547 361.312 280.698 361.686 280.968 361.966C281.239 362.245 281.607 362.409 281.996 362.423Z" fill="black"/>
<path d="M290.876 362.903C291.265 362.889 291.633 362.725 291.904 362.446C292.174 362.166 292.325 361.792 292.325 361.403C292.325 361.014 292.174 360.64 291.904 360.36C291.633 360.08 291.265 359.916 290.876 359.903C290.487 359.916 290.119 360.08 289.849 360.36C289.578 360.64 289.427 361.014 289.427 361.403C289.427 361.792 289.578 362.166 289.849 362.446C290.119 362.725 290.487 362.889 290.876 362.903Z" fill="black"/>
<path d="M298.316 362.903C298.705 362.889 299.073 362.725 299.344 362.446C299.614 362.166 299.765 361.792 299.765 361.403C299.765 361.014 299.614 360.64 299.344 360.36C299.073 360.08 298.705 359.916 298.316 359.903C297.927 359.916 297.559 360.08 297.289 360.36C297.018 360.64 296.867 361.014 296.867 361.403C296.867 361.792 297.018 362.166 297.289 362.446C297.559 362.725 297.927 362.889 298.316 362.903Z" fill="black"/>
</svg>
