<svg width="700" height="550" viewBox="0 0 700 550" fill="none" xmlns="http://www.w3.org/2000/svg">
<path d="M340.491 146.665C341.47 145.959 342.378 145.157 343.2 144.272C344.01 143.385 344.744 142.432 345.394 141.422C346.044 140.414 346.618 139.36 347.111 138.267C347.601 137.183 348.016 136.066 348.353 134.925L348.462 134.543L348.862 134.599C349.163 134.64 349.469 134.617 349.761 134.532C350.053 134.447 350.324 134.302 350.556 134.105C351.066 133.672 351.484 133.14 351.785 132.541C352.417 131.278 352.873 129.934 353.142 128.547L353.136 128.676C353.067 127.661 352.915 126.653 352.679 125.663C352.505 124.725 352.065 123.856 351.412 123.159C351.05 122.893 350.615 122.745 350.166 122.735C349.717 122.724 349.276 122.852 348.902 123.101C348.01 123.57 347.205 124.188 346.522 124.929L346.485 124.968L346.459 124.984C344.242 126.252 341.631 126.648 339.137 126.095C336.696 125.564 334.359 124.638 332.216 123.354C330.057 122.115 328.003 120.703 326.073 119.132C324.129 117.569 322.295 115.875 320.583 114.062L321.43 113.919C320.125 117.378 319.146 120.951 318.505 124.592C317.787 128.202 317.597 131.897 317.94 135.562C318.213 139.21 319.642 142.677 322.019 145.459C324.632 148.087 327.996 149.841 331.647 150.479L331.628 150.593C329.759 150.352 327.929 149.869 326.183 149.158C324.421 148.413 322.815 147.344 321.446 146.007C318.818 143.167 317.187 139.549 316.799 135.699C316.412 131.92 316.585 128.104 317.313 124.375C318.026 120.667 319.091 117.036 320.494 113.53L320.798 112.775L321.341 113.388C322.98 115.209 324.723 116.932 326.564 118.549C328.396 120.184 330.364 121.661 332.447 122.961C334.518 124.279 336.805 125.22 339.203 125.741C341.593 126.253 344.087 125.809 346.153 124.504L346.091 124.559C346.789 123.721 347.628 123.011 348.571 122.461C349.075 122.172 349.635 121.995 350.213 121.94C350.84 121.9 351.461 122.093 351.954 122.482C352.807 123.257 353.389 124.285 353.614 125.415C353.879 126.458 354.057 127.521 354.147 128.594L354.153 128.657L354.14 128.723C353.871 130.224 353.364 131.672 352.639 133.014C352.264 133.721 351.75 134.344 351.127 134.846C350.791 135.114 350.402 135.309 349.986 135.418C349.57 135.527 349.135 135.549 348.711 135.481L349.218 135.155C348.856 136.345 348.388 137.5 347.819 138.605C347.261 139.707 346.622 140.765 345.907 141.771C345.199 142.781 344.388 143.714 343.487 144.557C342.597 145.402 341.612 146.142 340.552 146.762L340.491 146.665Z" fill="black"/>
<path d="M320.893 129.496C321.116 129.488 321.328 129.394 321.483 129.234C321.638 129.073 321.725 128.858 321.725 128.635C321.725 128.412 321.638 128.197 321.483 128.037C321.328 127.876 321.116 127.782 320.893 127.774C320.67 127.782 320.459 127.876 320.304 128.037C320.148 128.197 320.062 128.412 320.062 128.635C320.062 128.858 320.148 129.073 320.304 129.234C320.459 129.394 320.67 129.488 320.893 129.496Z" fill="black"/>
<path d="M331.844 128.463C332.067 128.455 332.278 128.361 332.434 128.201C332.589 128.04 332.675 127.825 332.675 127.602C332.675 127.379 332.589 127.164 332.434 127.004C332.278 126.843 332.067 126.749 331.844 126.741C331.621 126.749 331.409 126.843 331.254 127.004C331.099 127.164 331.012 127.379 331.012 127.602C331.012 127.825 331.099 128.04 331.254 128.201C331.409 128.361 331.621 128.455 331.844 128.463Z" fill="black"/>
<path d="M322.753 136.796C323.805 137.937 325.183 138.725 326.701 139.052C327.453 139.197 328.219 139.256 328.985 139.229C329.77 139.185 330.552 139.097 331.327 138.966C330.964 139.13 330.587 139.268 330.209 139.41C329.817 139.496 329.428 139.618 329.025 139.669C328.213 139.79 327.386 139.771 326.58 139.613C325.773 139.435 325.01 139.095 324.337 138.614C323.665 138.15 323.121 137.525 322.753 136.796Z" fill="black"/>
<path d="M318.094 123.51C318.444 123.304 318.825 123.155 319.222 123.068C319.615 122.973 320.018 122.923 320.422 122.922C321.238 122.9 322.045 123.104 322.753 123.51C322.341 123.526 321.958 123.493 321.571 123.497L320.426 123.496L319.277 123.504C318.89 123.508 318.502 123.521 318.094 123.51Z" fill="black"/>
<path d="M328.331 123.51C328.67 123.285 329.042 123.116 329.433 123.007C329.823 122.889 330.225 122.82 330.632 122.802C331.043 122.787 331.455 122.832 331.853 122.936C332.254 123.042 332.624 123.238 332.936 123.51C332.554 123.445 332.168 123.399 331.781 123.372C331.403 123.368 331.031 123.357 330.654 123.375C330.276 123.385 329.899 123.422 329.513 123.439C329.127 123.465 328.74 123.499 328.331 123.51Z" fill="black"/>
<path d="M323.992 130.908C323.899 131.271 323.879 131.65 323.935 132.021C323.991 132.392 324.121 132.748 324.318 133.068C324.566 133.326 324.869 133.526 325.203 133.653C325.566 133.79 325.958 133.877 326.368 134.007C326.163 134.061 325.952 134.078 325.738 134.114C325.525 134.114 325.308 134.098 325.089 134.079C324.624 134.009 324.197 133.783 323.878 133.437C323.728 133.252 323.617 133.038 323.553 132.808C323.49 132.578 323.474 132.338 323.507 132.102C323.554 131.666 323.722 131.253 323.992 130.908Z" fill="black"/>
<path d="M353.641 128.635C360.563 111.28 349.199 104.875 349.199 104.875C324.096 97.1268 320.962 113.725 320.962 113.725C320.962 113.725 335.976 130.873 346.307 124.744C346.307 124.744 350.998 118.676 353.043 125.154L353.641 128.635Z" fill="black"/>
<path d="M304.514 248.15C305.353 243.163 306.142 238.168 306.882 233.166C307.604 228.163 308.317 223.152 308.781 218.131C308.903 216.884 308.963 215.632 308.96 214.379C308.957 214.079 308.934 213.779 308.889 213.482C308.873 213.354 308.836 213.229 308.781 213.113C308.72 212.981 308.651 212.853 308.573 212.73C308.236 212.21 307.872 211.709 307.483 211.227C305.822 209.251 304.559 206.973 303.762 204.517C303.036 202.035 302.785 199.437 303.022 196.861C303.259 194.308 303.774 191.789 304.559 189.348L304.878 189.915C294.61 187.908 284.232 186.505 273.799 185.715C263.367 184.791 252.904 184.22 242.435 183.833C231.96 183.452 221.475 183.051 211.009 182.402C200.543 181.729 190.075 181.059 179.675 179.509L179.84 179.462C178.469 180.363 176.938 180.994 175.329 181.319C173.758 181.694 172.163 181.956 170.554 182.103C167.347 182.4 164.122 182.458 160.907 182.278C159.316 182.231 157.711 182.262 156.119 182.346C154.536 182.399 152.961 182.609 151.419 182.971C151.042 183.078 150.675 183.215 150.32 183.38C150.097 183.476 149.855 183.522 149.612 183.515C149.369 183.508 149.131 183.447 148.914 183.337C148.532 183.092 148.216 182.756 147.995 182.36C147.774 181.964 147.655 181.519 147.648 181.065C147.578 180.191 147.796 179.317 148.269 178.579C148.751 177.852 149.439 177.286 150.246 176.954L150.331 177.577L135.653 175.788L135.4 175.758L135.328 175.527C135.153 174.987 135.104 174.415 135.186 173.854C135.27 173.27 135.543 172.729 135.964 172.314C136.818 171.61 137.895 171.232 139.002 171.25C140.96 171.116 142.952 170.89 144.928 170.684L156.808 169.365L168.697 168.083C172.669 167.683 176.616 167.244 180.638 167.008C184.611 166.893 188.576 166.562 192.551 166.285L204.47 165.393L228.307 163.555C244.185 162.16 260.129 161.378 276.03 160.403C291.945 159.49 307.85 158.46 323.779 157.724L323.768 157.725C324.621 157.599 325.43 157.267 326.124 156.757C326.819 156.247 327.378 155.575 327.754 154.799C328.39 153.165 328.494 151.371 328.05 149.674L328.162 149.649C328.642 151.374 328.565 153.206 327.939 154.884C327.573 155.71 326.998 156.426 326.27 156.961C325.54 157.498 324.696 157.859 323.804 158.016L323.802 158.017L323.793 158.017L276.083 161.232L252.229 162.867C248.245 163.139 244.288 163.398 240.317 163.757L228.4 164.722L204.562 166.601L192.635 167.471C188.66 167.73 184.677 168.044 180.682 168.142C176.746 168.355 172.765 168.778 168.807 169.159L156.917 170.384L145.021 171.588C143.032 171.776 141.061 171.982 139.041 172.1C138.138 172.069 137.252 172.353 136.536 172.905C136.252 173.219 136.059 173.604 135.978 174.02C135.897 174.435 135.931 174.865 136.077 175.263L135.753 175.001L150.413 176.931L151.596 177.087L150.498 177.554C149.807 177.829 149.214 178.305 148.796 178.92C148.392 179.542 148.203 180.279 148.258 181.019C148.257 181.37 148.342 181.715 148.503 182.027C148.665 182.338 148.9 182.606 149.187 182.808C149.328 182.881 149.484 182.921 149.644 182.925C149.803 182.93 149.961 182.898 150.106 182.833C150.48 182.664 150.867 182.523 151.263 182.413C152.848 182.049 154.465 181.844 156.091 181.8C157.703 181.726 159.31 181.706 160.926 181.764C164.119 181.965 167.323 181.929 170.511 181.656C172.1 181.522 173.677 181.274 175.231 180.914C176.776 180.611 178.252 180.022 179.582 179.179L179.666 179.118L179.747 179.132C184.896 180.003 190.134 180.448 195.35 180.888C200.573 181.304 205.802 181.643 211.036 181.905C221.506 182.421 231.98 182.685 242.463 182.946C252.951 183.223 263.426 183.805 273.89 184.691C284.366 185.53 294.784 186.986 305.09 189.05L305.554 189.15L305.409 189.617C304.633 191.992 304.119 194.445 303.877 196.932C303.621 199.403 303.835 201.901 304.506 204.293C305.251 206.671 306.45 208.882 308.036 210.805C308.435 211.311 308.808 211.838 309.153 212.383C309.242 212.529 309.322 212.681 309.392 212.836C309.469 213.007 309.521 213.188 309.546 213.374C309.592 213.703 309.615 214.035 309.615 214.367C309.605 215.643 309.531 216.918 309.393 218.187C308.886 223.236 308.083 228.232 307.266 233.226C306.438 238.217 305.559 243.199 304.628 248.171L304.514 248.15Z" fill="black"/>
<path d="M226.551 395.82C223.862 404.365 223.548 413.482 225.644 422.192L226.561 425.414C226.828 426.517 227.009 427.64 227.103 428.771C227.362 431.058 227.091 433.373 226.309 435.537C225.881 436.634 225.227 437.627 224.388 438.453C223.534 439.268 222.513 439.888 221.396 440.27C219.187 440.954 216.852 441.13 214.565 440.786L214.627 440.79L181.431 440.952C170.366 441.029 159.301 440.982 148.236 441.002L147.862 441.003L147.754 440.679C147.326 439.403 147.411 438.011 147.991 436.796C148.564 435.645 149.437 434.669 150.519 433.973C151.031 433.623 151.57 433.312 152.131 433.046C152.693 432.806 153.264 432.544 153.813 432.345L157.125 431.04C161.529 429.272 165.888 427.386 170.151 425.303C174.428 423.255 178.56 420.915 182.517 418.301C184.485 416.989 186.354 415.533 188.108 413.947C189.889 412.397 191.362 410.525 192.45 408.43L192.437 408.483C192.571 406.375 192.662 404.263 192.71 402.147C192.73 401.09 192.735 400.033 192.713 398.976C192.708 397.919 192.617 396.863 192.443 395.82C192.642 396.86 192.758 397.915 192.788 398.974C192.835 400.031 192.855 401.09 192.86 402.149C192.864 404.266 192.823 406.383 192.737 408.5L192.736 408.527L192.724 408.553C191.666 410.717 190.21 412.663 188.431 414.288C186.7 415.941 184.838 417.451 182.863 418.804C178.914 421.489 174.786 423.9 170.507 426.019C166.248 428.165 161.909 430.14 157.492 431.944L154.171 433.269C153.086 433.653 152.052 434.168 151.091 434.802C150.163 435.399 149.413 436.236 148.92 437.223C148.469 438.182 148.396 439.276 148.715 440.287L148.233 439.964C159.298 439.927 170.363 439.821 181.429 439.841L214.624 439.83H214.655L214.686 439.833C216.829 440.187 219.023 440.055 221.108 439.447C222.118 439.121 223.044 438.574 223.818 437.847C224.592 437.119 225.195 436.229 225.584 435.241C226.348 433.194 226.631 430.999 226.41 428.825C226.334 427.729 226.173 426.64 225.929 425.567L225.055 422.334C224.071 417.946 223.711 413.441 223.987 408.953C224.241 404.479 225.104 400.061 226.551 395.82Z" fill="black"/>
<path d="M521.101 392.789L530.515 403.076C532.076 404.794 533.669 406.497 535.165 408.286C536.666 410.069 538.118 411.891 539.522 413.752C542.333 417.468 544.999 421.287 547.522 425.207C548.781 427.18 550.021 429.108 551.217 431.165C551.665 432.006 551.921 432.935 551.967 433.887C552.012 434.838 551.845 435.788 551.478 436.667C551.111 437.546 550.553 438.333 549.845 438.97C549.137 439.607 548.296 440.079 547.383 440.351C547.075 440.423 546.763 440.491 546.451 440.546L545.509 440.607L543.767 440.621L536.797 440.671L522.858 440.703L515.888 440.719L514.145 440.723C513.482 440.766 512.818 440.638 512.218 440.351C511.611 440.038 511.112 439.549 510.786 438.948C510.46 438.347 510.322 437.662 510.39 436.982C510.432 436.651 510.517 436.326 510.645 436.017C510.758 435.743 510.871 435.468 510.996 435.199C511.237 434.657 511.509 434.129 511.791 433.607C512.365 432.569 513.025 431.58 513.762 430.65C515.241 428.792 517.031 427.205 519.054 425.961L519.074 425.949L519.104 425.936C519.969 425.6 520.669 424.94 521.056 424.096C521.166 423.674 521.135 423.227 520.966 422.824C520.853 422.624 520.749 422.417 520.619 422.222L520.161 421.667C519.434 420.985 518.648 420.368 517.812 419.825C516.972 419.244 516.152 418.638 515.339 418.024C512.097 415.555 508.994 412.916 506.018 410.144C509.115 412.778 512.284 415.33 515.586 417.688C516.414 418.274 517.247 418.852 518.097 419.402C518.984 419.938 519.818 420.558 520.585 421.255L521.109 421.867C521.265 422.089 521.398 422.337 521.534 422.577C521.771 423.114 521.821 423.715 521.676 424.284C521.466 424.801 521.154 425.271 520.76 425.666C520.365 426.061 519.895 426.374 519.379 426.585L519.428 426.559C517.504 427.791 515.809 429.349 514.42 431.163C513.73 432.068 513.115 433.029 512.582 434.035C512.321 434.54 512.069 435.051 511.849 435.575C511.733 435.835 511.631 436.1 511.526 436.365C511.436 436.595 511.376 436.836 511.349 437.082C511.306 437.566 511.408 438.052 511.643 438.478C511.878 438.903 512.234 439.249 512.667 439.47C513.123 439.682 513.627 439.769 514.127 439.724L515.871 439.709L522.845 439.65L536.793 439.532L543.768 439.507L545.511 439.503L546.309 439.456L547.083 439.3C547.845 439.075 548.547 438.684 549.14 438.155C549.732 437.626 550.199 436.971 550.508 436.24C550.817 435.508 550.959 434.716 550.925 433.923C550.89 433.129 550.68 432.353 550.309 431.65C549.182 429.685 547.921 427.691 546.69 425.739C544.192 421.832 541.65 417.949 538.907 414.209C537.54 412.337 536.129 410.498 534.674 408.693C533.214 406.894 531.673 405.163 530.167 403.387L521.101 392.789Z" fill="black"/>
<path d="M348.843 135.046C348.592 138.214 348.594 141.397 348.849 144.565C348.977 146.143 349.211 147.711 349.549 149.259C349.863 150.8 350.389 152.29 351.113 153.686C351.469 154.373 351.922 155.004 352.46 155.56C352.977 156.117 353.61 156.554 354.314 156.84C354.662 156.984 355.024 157.091 355.395 157.159C355.776 157.211 356.169 157.24 356.555 157.283C356.944 157.322 357.335 157.337 357.726 157.327C358.118 157.324 358.509 157.349 358.902 157.312C362.048 157.148 365.187 156.583 368.343 156.153C374.667 155.162 381.082 154.893 387.467 155.351C390.657 155.596 393.832 156.018 396.977 156.612C400.092 157.212 403.224 157.696 406.374 158.024C409.524 158.355 412.689 158.526 415.856 158.537L425.402 158.681L444.493 158.991L482.673 159.717L482.658 159.717C488.328 159.434 493.999 159.347 499.671 159.422C505.341 159.498 511.015 159.688 516.668 160.218C522.342 160.645 527.955 161.668 533.416 163.268C534.794 163.667 536.131 164.196 537.409 164.847C538.066 165.173 538.682 165.575 539.245 166.044C539.56 166.301 539.807 166.631 539.967 167.004C540.056 167.234 540.061 167.488 539.982 167.721C539.899 167.938 539.761 168.129 539.58 168.276C538.948 168.7 538.23 168.978 537.477 169.092C536.771 169.233 536.057 169.333 535.339 169.393C533.912 169.522 532.487 169.562 531.064 169.574L531.099 169.572L522.116 170.544L522.283 169.843C522.826 170.199 523.336 170.602 523.808 171.048C524.318 171.499 524.731 172.05 525.022 172.665C525.182 173.025 525.231 173.425 525.162 173.812C525.078 174.206 524.861 174.559 524.547 174.811C524.007 175.237 523.38 175.539 522.71 175.695C521.469 176.008 520.199 176.19 518.92 176.239C517.645 176.318 516.409 176.28 515.155 176.298L515.421 176.212C514.81 176.551 514.137 176.763 513.442 176.837C512.8 176.925 512.151 176.958 511.504 176.937C510.23 176.891 508.963 176.737 507.716 176.477C506.478 176.217 505.257 175.893 504.056 175.517C502.854 175.142 501.675 174.709 500.501 174.263L500.743 174.297L442.566 180.158L413.471 183.015L384.365 185.765L384.415 185.757C382.266 186.284 380.213 187.144 378.331 188.307C376.431 189.4 374.939 191.083 374.082 193.101C373.76 194.145 373.601 195.233 373.61 196.325C373.575 197.47 373.442 198.597 373.306 199.72C373.028 201.965 372.696 204.191 372.449 206.426C371.893 210.887 371.898 215.4 372.465 219.859C373.08 224.323 374.403 228.661 376.386 232.708L376.283 232.759C374.216 228.726 372.806 224.39 372.106 219.912C371.439 215.427 371.365 210.872 371.884 206.367C372.11 204.117 372.422 201.879 372.676 199.646C372.8 198.53 372.92 197.413 372.943 196.303C372.925 195.139 373.087 193.979 373.422 192.864C374.313 190.686 375.892 188.859 377.917 187.661C379.866 186.429 381.997 185.512 384.232 184.944L384.25 184.939L384.282 184.935L413.36 181.9L442.449 178.972L500.64 173.263L500.763 173.251L500.883 173.297C502.036 173.738 503.189 174.178 504.362 174.554C505.533 174.934 506.719 175.259 507.914 175.523C509.103 175.783 510.312 175.941 511.528 175.998C512.124 176.023 512.722 175.999 513.315 175.924C513.861 175.868 514.394 175.718 514.889 175.48L515.036 175.394L515.155 175.394C516.395 175.388 517.657 175.436 518.875 175.371C520.092 175.336 521.303 175.176 522.487 174.892C523.038 174.772 523.556 174.535 524.008 174.198C524.194 174.061 524.325 173.861 524.375 173.635C524.426 173.409 524.393 173.172 524.283 172.968C523.702 171.95 522.872 171.095 521.87 170.486L521.009 169.886L522.037 169.784L531.029 168.897L531.047 168.895H531.064C532.474 168.897 533.885 168.87 535.282 168.757C535.977 168.706 536.669 168.615 537.353 168.483C538.006 168.389 538.632 168.16 539.191 167.81C539.291 167.749 539.367 167.654 539.405 167.543C539.443 167.432 539.441 167.311 539.399 167.201C539.273 166.924 539.085 166.68 538.849 166.487C538.325 166.047 537.751 165.668 537.139 165.361C535.894 164.716 534.591 164.191 533.247 163.794C527.832 162.169 522.26 161.117 516.625 160.656C510.993 160.104 505.33 159.833 499.667 159.779C494.004 159.732 488.335 159.847 482.684 160.157L482.676 160.157L482.668 160.157L444.481 159.873L425.389 159.678C419.038 159.545 412.645 159.752 406.269 159.006C403.09 158.659 399.929 158.155 396.798 157.537C393.69 156.934 390.552 156.503 387.397 156.245C381.074 155.77 374.718 155.983 368.441 156.879C365.289 157.27 362.142 157.802 358.925 157.934C358.525 157.966 358.119 157.937 357.716 157.936C357.311 157.941 356.907 157.92 356.505 157.875C356.101 157.826 355.699 157.791 355.295 157.731C354.883 157.651 354.481 157.528 354.096 157.363C353.324 157.041 352.633 156.551 352.074 155.929C351.515 155.329 351.046 154.65 350.683 153.915C349.967 152.469 349.455 150.929 349.163 149.342C348.852 147.773 348.647 146.184 348.549 144.588C348.354 141.403 348.414 138.209 348.729 135.034L348.843 135.046Z" fill="black"/>
<path d="M323.786 157.871C323.964 160.099 324.311 162.311 324.826 164.486C325.293 166.648 326.03 168.743 327.022 170.721C327.947 172.666 329.42 174.298 331.26 175.418C333.157 176.383 335.347 176.6 337.397 176.027C339.51 175.531 341.512 174.647 343.301 173.418C345.057 172.11 346.623 170.565 347.955 168.826C349.278 167.049 350.406 165.134 351.321 163.115C352.28 161.096 353.056 158.996 353.641 156.839C352.898 161.315 351.203 165.58 348.67 169.344C347.354 171.229 345.757 172.9 343.935 174.301C342.038 175.64 339.904 176.605 337.647 177.146C335.326 177.766 332.857 177.487 330.733 176.365C328.731 175.116 327.16 173.282 326.234 171.112C324.459 166.93 323.623 162.41 323.786 157.871Z" fill="black"/>
<path d="M364.084 157.113C363.685 158.791 363.335 160.473 363.085 162.171C362.801 163.861 362.584 165.56 362.458 167.263C362.152 170.65 362.24 174.061 362.719 177.428C363.171 180.774 364.313 183.991 366.075 186.872C367.959 189.72 370.527 192.052 373.543 193.654C371.924 193.02 370.395 192.175 368.997 191.141C367.614 190.054 366.386 188.785 365.344 187.368C363.345 184.451 362.057 181.107 361.585 177.602C361.09 174.142 361.09 170.63 361.584 167.17C362.02 163.731 362.859 160.356 364.084 157.113Z" fill="black"/>
<path d="M304.984 189.482C306.368 183.967 308.094 178.542 310.15 173.241C311.195 170.596 312.262 167.957 313.523 165.398C314.673 162.778 316.214 160.348 318.094 158.191C317.285 159.35 316.595 160.588 316.035 161.886C315.419 163.153 314.893 164.468 314.339 165.765C313.256 168.374 312.241 171.015 311.221 173.654L308.16 181.58C307.141 184.225 306.082 186.859 304.984 189.482Z" fill="black"/>
<path d="M427.286 335.641C427.305 335.65 427.325 335.67 427.344 335.679C427.363 335.708 427.392 335.737 427.411 335.766L427.286 335.641Z" fill="black"/>
<path d="M490.936 353.941C478.539 341.554 440.109 321.714 440.109 321.714C441.071 322.808 441.894 324.017 442.557 325.314C443.256 326.59 443.79 327.949 444.144 329.36C442.244 327.145 440.865 324.533 440.109 321.714L381.017 247.748L376.333 232.737C367.899 235.609 359.206 237.651 350.377 238.834C357.045 246.702 363.548 254.687 370.023 262.709C376.478 270.751 382.933 278.813 389.156 287.059C395.407 295.275 401.562 303.559 407.959 311.669C414.346 319.73 420.808 327.734 427.344 335.679C434.631 340.992 441.886 346.347 449.109 351.744C456.367 357.125 463.616 362.525 470.806 368.013C478.007 373.471 485.129 379.045 492.291 384.561C499.404 390.136 506.527 395.701 513.562 401.391C513.572 401.399 513.58 401.409 513.586 401.42C513.592 401.432 513.596 401.444 513.596 401.457C513.597 401.469 513.596 401.482 513.591 401.494C513.587 401.506 513.581 401.517 513.572 401.526C513.558 401.545 513.537 401.558 513.513 401.562C513.49 401.565 513.466 401.56 513.446 401.546C506.043 396.349 498.727 391.036 491.41 385.732C484.133 380.361 476.816 375.048 469.587 369.629C462.329 364.238 455.148 358.751 447.967 353.254C440.776 347.776 433.615 342.263 426.482 336.715L426.463 336.695C426.423 336.665 426.387 336.629 426.357 336.589C420.134 328.353 413.85 320.166 407.504 312.027C401.127 303.907 394.507 295.972 387.984 287.968C381.442 279.994 375.123 271.826 368.813 263.658C362.522 255.47 356.271 247.254 350.183 238.912C350.176 238.906 350.171 238.899 350.167 238.89C350.164 238.882 350.163 238.873 350.164 238.864C321.508 242.502 307.059 233.318 307.059 233.318L304.572 248.164L227.296 271.71C204.989 280.391 205.918 285.278 198.785 295.885C191.391 306.898 192.398 395.817 192.398 395.817H192.446C192.446 395.817 216.157 403.54 226.541 395.817C226.492 396.001 226.434 396.184 226.367 396.368L226.55 395.817C239.373 356.022 236.654 334.024 235.841 324.473C235.202 317.05 237.99 314.195 239.315 313.275C238.674 313.565 238.002 313.783 237.312 313.924C236.374 314.134 235.405 314.161 234.457 314.001C235.27 313.491 236.174 313.143 237.119 312.975C238.057 312.77 239.025 312.744 239.973 312.898C239.973 312.898 278.123 304.566 309.74 300.849C341.348 297.123 359.938 313.866 359.938 313.866L506.014 410.14C506.014 410.14 521.102 399.397 521.102 392.788C521.101 392.788 503.333 366.338 490.936 353.941ZM219.36 295.459C219.207 295.941 219.016 296.41 218.789 296.862L218.073 298.217C217.816 298.657 217.532 299.08 217.221 299.485C216.627 300.32 215.963 301.103 215.237 301.827C214.48 302.524 213.675 303.168 212.828 303.752C211.127 304.898 209.255 305.767 207.282 306.327C205.33 306.901 203.295 307.143 201.263 307.043C203.237 306.77 205.176 306.289 207.05 305.611C208.902 304.951 210.661 304.057 212.286 302.949C213.103 302.411 213.879 301.812 214.608 301.159C215.326 300.491 215.998 299.777 216.621 299.02C217.884 297.481 218.971 295.806 219.863 294.026C219.708 294.501 219.534 294.985 219.36 295.459Z" fill="black"/>
<path d="M492.852 401.467H224.962" stroke="black" stroke-width="0.57392" stroke-miterlimit="10"/>
<path d="M534.439 401.467L590.779 452.706H109.221L192.495 401.467" stroke="black" stroke-width="0.57392" stroke-miterlimit="10"/>
<path d="M346.229 104.047C346.229 104.047 351.885 90.9284 363.042 101.259C374.199 111.59 356.579 119.287 355.717 115.725" fill="black"/>
<path d="M150.372 176.967L158.017 177.254L150.372 177.541V176.967Z" fill="black"/>
<path d="M522.076 170.738L513.502 170.164L522.076 169.59V170.738Z" fill="black"/>
<path d="M309.116 213.036C309.367 213.352 309.678 213.615 310.031 213.811C310.364 214.017 310.729 214.166 311.111 214.253C311.875 214.427 312.665 214.456 313.44 214.34C314.232 214.232 315.013 214.059 315.775 213.821C316.551 213.591 317.305 213.291 318.094 213.036C317.755 213.271 317.396 213.474 317.044 213.696C316.684 213.898 316.299 214.054 315.925 214.236C315.54 214.398 315.147 214.54 314.748 214.661C314.34 214.767 313.926 214.85 313.509 214.909C312.659 215.036 311.791 214.954 310.979 214.672C310.574 214.541 310.199 214.328 309.879 214.047C309.558 213.766 309.299 213.422 309.116 213.036Z" fill="black"/>
<path d="M341.279 213.036C341.53 213.352 341.841 213.615 342.194 213.811C342.527 214.017 342.892 214.166 343.274 214.253C344.038 214.427 344.828 214.456 345.604 214.34C346.395 214.232 347.176 214.059 347.938 213.821C348.714 213.591 349.468 213.291 350.257 213.036C349.918 213.271 349.559 213.474 349.208 213.696C348.847 213.898 348.462 214.054 348.088 214.236C347.703 214.398 347.31 214.54 346.91 214.661C346.503 214.767 346.09 214.85 345.672 214.909C344.822 215.036 343.954 214.954 343.142 214.672C342.737 214.541 342.362 214.329 342.042 214.047C341.721 213.766 341.462 213.422 341.279 213.036Z" fill="black"/>
<path d="M239.954 312.908C239.76 313.038 239.556 313.155 239.344 313.256C239.535 313.119 239.739 313.002 239.954 312.908Z" fill="white"/>
<path d="M350.329 238.786C350.338 238.805 350.358 238.815 350.377 238.834C350.307 238.849 350.236 238.859 350.164 238.863C350.16 238.847 350.162 238.829 350.169 238.813C350.176 238.798 350.188 238.785 350.203 238.776C350.221 238.761 350.244 238.754 350.268 238.756C350.291 238.757 350.313 238.768 350.329 238.786Z" fill="white"/>
<path d="M427.411 335.766L427.286 335.641C427.305 335.65 427.325 335.67 427.344 335.679C427.363 335.708 427.392 335.737 427.411 335.766Z" fill="white"/>
</svg>
