<svg width="700" height="550" viewBox="0 0 700 550" fill="none" xmlns="http://www.w3.org/2000/svg">
<path d="M464.399 289.589C466.737 286.492 467.21 284.466 468.61 280.875C470.015 277.281 471.076 273.561 471.781 269.767C472.476 265.975 472.882 262.136 472.995 258.283C473.073 254.444 472.922 250.537 473.04 246.653C473.172 242.767 473.399 238.881 473.843 235.015C474.234 231.141 474.86 227.294 475.715 223.495C476.553 219.689 477.714 215.962 479.187 212.353C480.633 208.73 482.739 205.406 485.396 202.549C482.904 205.513 480.957 208.896 479.647 212.54C478.278 216.15 477.218 219.87 476.477 223.659C474.991 231.247 474.179 238.95 474.051 246.681C473.903 250.549 474.024 254.398 473.914 258.312C473.79 262.213 473.331 266.096 472.541 269.918C471.741 273.735 470.578 277.467 469.067 281.063C468.299 282.852 467.426 284.594 466.452 286.279C465.929 287.475 465.238 288.589 464.399 289.589Z" fill="#020202"/>
<path d="M466.57 285.519C465.379 284.815 464.271 283.977 463.268 283.022C462.774 282.544 462.295 282.045 461.821 281.532C461.39 280.997 460.951 280.455 460.546 279.886C460.139 279.32 459.632 278.78 459.174 278.203C458.733 277.632 458.493 276.931 458.491 276.21C458.483 275.432 458.634 274.66 458.935 273.943C459.304 273.053 459.872 272.26 460.595 271.624L461.266 271.528C462.101 271.896 462.889 272.363 463.612 272.92C464.132 273.319 464.597 273.786 464.993 274.308C465.334 274.768 465.504 275.333 465.474 275.905C465.43 276.511 465.444 277.119 465.514 277.722C465.597 278.313 465.719 278.899 465.839 279.494C465.942 280.099 466.057 280.71 466.196 281.319C466.437 282.558 466.763 283.802 467.093 285.089L466.57 285.519Z" fill="#020202"/>
<path d="M469.824 275.79C468.632 275.085 467.524 274.248 466.522 273.293C466.028 272.814 465.549 272.316 465.075 271.802C464.643 271.267 464.205 270.726 463.8 270.157C463.393 269.591 462.886 269.05 462.427 268.474C461.987 267.902 461.747 267.202 461.745 266.481C461.737 265.702 461.888 264.931 462.189 264.213C462.558 263.323 463.126 262.53 463.849 261.894L464.519 261.799C465.355 262.166 466.143 262.633 466.866 263.191C467.386 263.59 467.851 264.057 468.247 264.579C468.588 265.039 468.758 265.603 468.728 266.175C468.684 266.781 468.698 267.389 468.768 267.992C468.851 268.584 468.972 269.169 469.093 269.765C469.196 270.37 469.311 270.98 469.45 271.59C469.691 272.829 470.017 274.072 470.347 275.359L469.824 275.79Z" fill="#020202"/>
<path d="M472.996 265.338C471.805 264.634 470.697 263.796 469.694 262.841C469.2 262.363 468.721 261.864 468.247 261.351C467.816 260.815 467.377 260.274 466.972 259.705C466.565 259.139 466.059 258.598 465.6 258.022C465.159 257.451 464.919 256.75 464.917 256.029C464.909 255.251 465.061 254.479 465.361 253.761C465.73 252.872 466.298 252.078 467.021 251.442L467.692 251.347C468.528 251.714 469.316 252.181 470.038 252.739C470.559 253.138 471.023 253.605 471.419 254.127C471.76 254.587 471.93 255.152 471.9 255.724C471.856 256.329 471.87 256.937 471.941 257.54C472.023 258.132 472.145 258.718 472.265 259.313C472.368 259.918 472.483 260.528 472.622 261.138C472.864 262.377 473.189 263.62 473.519 264.907L472.996 265.338Z" fill="#020202"/>
<path d="M473.62 251.584C472.428 250.88 471.32 250.042 470.318 249.087C469.824 248.609 469.345 248.11 468.871 247.597C468.439 247.062 468.001 246.52 467.596 245.951C467.189 245.385 466.682 244.844 466.223 244.268C465.783 243.697 465.543 242.996 465.541 242.275C465.533 241.497 465.684 240.725 465.985 240.007C466.354 239.118 466.921 238.324 467.645 237.688L468.316 237.593C469.151 237.96 469.939 238.428 470.662 238.985C471.182 239.384 471.647 239.851 472.043 240.373C472.384 240.833 472.554 241.398 472.524 241.97C472.48 242.575 472.493 243.184 472.564 243.787C472.646 244.378 472.768 244.964 472.889 245.559C472.992 246.164 473.107 246.774 473.246 247.384C473.487 248.623 473.813 249.867 474.143 251.153L473.62 251.584Z" fill="#020202"/>
<path d="M474.21 237.531C473.018 236.826 471.91 235.988 470.908 235.033C470.414 234.555 469.935 234.056 469.461 233.543C469.029 233.008 468.591 232.467 468.186 231.897C467.779 231.332 467.272 230.791 466.813 230.214C466.373 229.643 466.133 228.943 466.131 228.221C466.123 227.443 466.274 226.672 466.575 225.954C466.944 225.064 467.511 224.271 468.235 223.635L468.905 223.54C469.741 223.907 470.529 224.374 471.252 224.931C471.772 225.331 472.236 225.797 472.633 226.319C472.974 226.78 473.144 227.344 473.114 227.916C473.07 228.522 473.083 229.13 473.154 229.733C473.236 230.324 473.358 230.91 473.478 231.505C473.582 232.11 473.697 232.721 473.836 233.33C474.077 234.569 474.403 235.813 474.733 237.1L474.21 237.531Z" fill="#020202"/>
<path d="M476.446 224.407C475.255 223.702 474.147 222.865 473.144 221.91C472.65 221.431 472.171 220.933 471.697 220.42C471.266 219.884 470.827 219.343 470.422 218.774C470.015 218.208 469.509 217.667 469.05 217.091C468.609 216.519 468.369 215.819 468.367 215.098C468.359 214.319 468.51 213.548 468.811 212.83C469.18 211.94 469.748 211.147 470.471 210.511L471.142 210.416C471.977 210.783 472.765 211.25 473.488 211.808C474.009 212.207 474.473 212.674 474.869 213.196C475.21 213.656 475.38 214.221 475.35 214.792C475.306 215.398 475.32 216.006 475.391 216.609C475.473 217.201 475.595 217.786 475.715 218.382C475.818 218.987 475.933 219.597 476.072 220.207C476.314 221.446 476.639 222.689 476.969 223.976L476.446 224.407Z" fill="#020202"/>
<path d="M479.462 212.57C478.271 211.866 477.163 211.028 476.16 210.073C475.666 209.595 475.188 209.096 474.713 208.583C474.282 208.048 473.843 207.506 473.438 206.937C473.031 206.371 472.525 205.83 472.066 205.254C471.625 204.683 471.385 203.982 471.383 203.261C471.375 202.483 471.527 201.711 471.827 200.993C472.196 200.104 472.764 199.311 473.487 198.675L474.158 198.579C474.994 198.946 475.782 199.414 476.505 199.971C477.025 200.37 477.489 200.837 477.885 201.359C478.226 201.819 478.396 202.384 478.366 202.956C478.322 203.561 478.336 204.17 478.407 204.773C478.489 205.364 478.611 205.95 478.731 206.545C478.834 207.15 478.949 207.761 479.088 208.37C479.329 209.609 479.655 210.853 479.985 212.139L479.462 212.57Z" fill="#020202"/>
<path d="M466.153 284.36C467.241 283.598 468.298 282.866 469.288 282.083C469.79 281.711 470.275 281.323 470.747 280.93C471.226 280.557 471.7 280.192 472.148 279.796C472.594 279.385 473 278.932 473.361 278.443C473.71 277.99 474.207 277.672 474.766 277.545C475.406 277.406 476.063 277.354 476.717 277.39C477.629 277.438 478.531 277.596 479.405 277.861L479.852 278.37C479.987 279.324 479.901 280.296 479.602 281.211C479.363 281.952 478.975 282.636 478.463 283.221C477.991 283.768 477.353 284.143 476.647 284.29C475.924 284.429 475.187 284.509 474.51 284.674C473.832 284.842 473.146 284.968 472.47 285.093C471.776 285.174 471.088 285.24 470.402 285.282C469.019 285.354 467.633 285.269 466.27 285.028L466.153 284.36Z" fill="#020202"/>
<path d="M470.545 275.241C471.334 274.172 472.102 273.141 472.79 272.083C473.148 271.57 473.483 271.048 473.806 270.525C474.14 270.019 474.473 269.521 474.771 269.004C475.063 268.471 475.303 267.913 475.49 267.335C475.676 266.793 476.046 266.334 476.534 266.035C477.098 265.699 477.703 265.441 478.335 265.266C479.214 265.02 480.12 264.882 481.032 264.855L481.618 265.195C482.05 266.056 482.279 267.004 482.287 267.967C482.297 268.745 482.148 269.517 481.849 270.236C481.576 270.904 481.091 271.463 480.469 271.828C479.827 272.19 479.155 272.501 478.566 272.873C477.977 273.249 477.367 273.587 476.766 273.921C476.134 274.219 475.503 274.502 474.866 274.76C473.579 275.269 472.238 275.63 470.869 275.837L470.545 275.241Z" fill="#020202"/>
<path d="M472.431 264.863C473.06 263.694 473.676 262.565 474.208 261.42C474.49 260.862 474.748 260.297 474.994 259.735C475.254 259.186 475.513 258.647 475.735 258.092C475.949 257.524 476.108 256.937 476.211 256.339C476.32 255.776 476.621 255.269 477.062 254.904C477.573 254.493 478.136 254.152 478.736 253.889C479.572 253.522 480.449 253.258 481.349 253.103L481.977 253.357C482.526 254.148 482.886 255.055 483.03 256.007C483.149 256.776 483.11 257.561 482.916 258.314C482.74 259.014 482.339 259.636 481.774 260.085C481.19 260.534 480.568 260.937 480.037 261.388C479.507 261.843 478.951 262.264 478.403 262.679C477.819 263.063 477.235 263.432 476.64 263.778C475.438 264.463 474.161 265.01 472.834 265.407L472.431 264.863Z" fill="#020202"/>
<path d="M473.6 250.395C474.23 249.226 474.845 248.097 475.378 246.952C475.659 246.394 475.918 245.829 476.163 245.267C476.423 244.718 476.683 244.179 476.905 243.624C477.118 243.056 477.278 242.469 477.381 241.871C477.489 241.308 477.79 240.801 478.232 240.436C478.742 240.025 479.305 239.684 479.906 239.421C480.742 239.054 481.619 238.79 482.518 238.635L483.146 238.889C483.696 239.68 484.056 240.586 484.2 241.539C484.319 242.308 484.28 243.093 484.086 243.846C483.91 244.546 483.509 245.168 482.944 245.617C482.36 246.066 481.738 246.469 481.207 246.92C480.677 247.375 480.121 247.795 479.573 248.211C478.989 248.595 478.404 248.964 477.81 249.309C476.607 249.995 475.331 250.542 474.004 250.939L473.6 250.395Z" fill="#020202"/>
<path d="M474.42 236.533C475.05 235.363 475.665 234.234 476.197 233.09C476.479 232.532 476.738 231.967 476.983 231.404C477.243 230.855 477.502 230.316 477.724 229.762C477.938 229.194 478.098 228.606 478.201 228.008C478.309 227.446 478.61 226.939 479.052 226.574C479.562 226.163 480.125 225.821 480.726 225.559C481.562 225.192 482.439 224.928 483.338 224.772L483.966 225.026C484.515 225.817 484.876 226.724 485.02 227.676C485.139 228.445 485.1 229.231 484.905 229.984C484.73 230.684 484.328 231.306 483.763 231.755C483.179 232.203 482.558 232.607 482.027 233.058C481.496 233.513 480.941 233.933 480.393 234.349C479.809 234.733 479.224 235.101 478.63 235.447C477.427 236.133 476.15 236.679 474.824 237.076L474.42 236.533Z" fill="#020202"/>
<path d="M475.833 223.41C476.771 222.47 477.684 221.565 478.522 220.621C478.952 220.166 479.361 219.699 479.758 219.231C480.164 218.779 480.567 218.337 480.938 217.87C481.306 217.386 481.627 216.869 481.897 216.326C482.162 215.818 482.596 215.418 483.123 215.195C483.73 214.947 484.367 214.781 485.018 214.702C485.924 214.59 486.84 214.588 487.746 214.697L488.275 215.12C488.575 216.036 488.66 217.007 488.525 217.961C488.419 218.732 488.157 219.473 487.755 220.139C487.386 220.759 486.823 221.24 486.153 221.508C485.465 221.771 484.754 221.979 484.116 222.26C483.478 222.544 482.825 222.787 482.181 223.028C481.512 223.229 480.846 223.415 480.177 223.576C478.829 223.888 477.449 224.046 476.064 224.047L475.833 223.41Z" fill="#020202"/>
<path d="M478.848 212.089C479.477 210.92 480.093 209.791 480.625 208.646C480.907 208.088 481.165 207.523 481.411 206.961C481.671 206.412 481.93 205.873 482.152 205.319C482.366 204.751 482.525 204.163 482.628 203.565C482.737 203.003 483.038 202.495 483.479 202.131C483.989 201.719 484.552 201.378 485.153 201.116C485.989 200.749 486.866 200.484 487.766 200.329L488.394 200.583C488.943 201.374 489.303 202.281 489.447 203.233C489.566 204.002 489.527 204.787 489.333 205.541C489.157 206.24 488.756 206.863 488.191 207.311C487.607 207.76 486.985 208.163 486.454 208.615C485.924 209.07 485.368 209.49 484.82 209.905C484.236 210.29 483.652 210.658 483.057 211.004C481.855 211.69 480.578 212.236 479.251 212.633L478.848 212.089Z" fill="#020202"/>
<path d="M502.934 263.125C500.292 265.618 498.096 268.544 496.44 271.777C496.353 271.923 496.276 272.077 496.198 272.232C496.169 272.279 496.143 272.327 496.121 272.377C496.111 272.387 496.111 272.397 496.101 272.406C494.503 275.496 493.151 278.706 492.056 282.007V282.016C492.035 282.086 492.009 282.154 491.979 282.22V282.239C491.882 282.529 491.795 282.81 491.698 283.1C491.659 283.226 491.621 283.352 491.582 283.478C491.543 283.575 491.514 283.675 491.495 283.778C490.972 285.423 490.488 287.088 490.043 288.752H489.134C489.627 286.904 490.189 285.055 490.827 283.245C490.876 283.12 490.914 282.984 490.963 282.858C491.224 282.113 491.495 281.378 491.785 280.642V280.633C492.85 277.762 494.124 274.974 495.598 272.29C495.618 272.261 495.627 272.242 495.647 272.213C495.656 272.203 495.656 272.184 495.666 272.174C495.879 271.797 496.101 271.429 496.343 271.052V271.042C498.065 268.041 500.295 265.362 502.934 263.125Z" fill="#020202"/>
<path d="M491.587 283.842C490.481 283.009 489.475 282.052 488.586 280.991C488.149 280.46 487.729 279.911 487.315 279.348C486.946 278.767 486.571 278.18 486.232 277.569C485.891 276.961 485.449 276.367 485.057 275.743C484.684 275.126 484.524 274.403 484.603 273.686C484.682 272.912 484.919 272.162 485.298 271.482C485.765 270.64 486.418 269.915 487.208 269.364L487.885 269.345C488.674 269.803 489.405 270.356 490.061 270.991C490.533 271.446 490.942 271.962 491.277 272.525C491.564 273.021 491.67 273.601 491.576 274.166C491.464 274.763 491.41 275.369 491.412 275.976C491.428 276.573 491.483 277.168 491.536 277.773C491.57 278.386 491.616 279.006 491.686 279.627C491.787 280.885 491.971 282.157 492.155 283.473L491.587 283.842Z" fill="#020202"/>
<path d="M495.911 272.419C494.806 271.585 493.799 270.628 492.91 269.567C492.473 269.036 492.053 268.487 491.639 267.924C491.27 267.344 490.895 266.756 490.557 266.145C490.216 265.538 489.773 264.943 489.382 264.319C489.008 263.702 488.848 262.979 488.927 262.262C489.007 261.488 489.243 260.738 489.623 260.059C490.089 259.216 490.742 258.491 491.532 257.941L492.209 257.921C492.999 258.379 493.729 258.932 494.385 259.567C494.857 260.022 495.266 260.538 495.601 261.101C495.888 261.597 495.994 262.177 495.9 262.742C495.789 263.339 495.734 263.945 495.737 264.552C495.752 265.149 495.808 265.744 495.86 266.35C495.895 266.962 495.941 267.582 496.011 268.203C496.111 269.461 496.295 270.734 496.479 272.049L495.911 272.419Z" fill="#020202"/>
<path d="M491.089 282.783C492.127 281.954 493.136 281.157 494.074 280.313C494.552 279.91 495.011 279.491 495.458 279.07C495.912 278.667 496.362 278.273 496.784 277.85C497.203 277.411 497.58 276.933 497.909 276.423C498.23 275.949 498.705 275.6 499.254 275.438C499.885 275.259 500.537 275.166 501.192 275.16C502.105 275.15 503.016 275.251 503.904 275.461L504.382 275.941C504.577 276.884 504.553 277.859 504.312 278.792C504.121 279.546 503.777 280.253 503.302 280.87C502.866 281.444 502.253 281.86 501.558 282.051C500.844 282.235 500.114 282.362 499.449 282.569C498.783 282.779 498.107 282.948 497.44 283.116C496.752 283.24 496.07 283.35 495.387 283.435C494.012 283.594 492.623 283.596 491.247 283.442L491.089 282.783Z" fill="#020202"/>
<path d="M495.354 271.872C496.111 270.78 496.849 269.728 497.506 268.65C497.849 268.127 498.169 267.595 498.476 267.064C498.796 266.547 499.114 266.04 499.397 265.515C499.673 264.974 499.897 264.408 500.067 263.825C500.238 263.279 500.594 262.808 501.073 262.496C501.627 262.144 502.224 261.868 502.851 261.675C503.722 261.404 504.624 261.24 505.535 261.186L506.131 261.509C506.587 262.357 506.844 263.298 506.88 264.26C506.912 265.038 506.786 265.814 506.508 266.541C506.255 267.216 505.786 267.79 505.174 268.172C504.544 268.552 503.881 268.883 503.302 269.272C502.724 269.665 502.125 270.02 501.534 270.372C500.911 270.688 500.289 270.989 499.659 271.265C498.387 271.812 497.057 272.212 495.694 272.458L495.354 271.872Z" fill="#020202"/>
<path d="M449.997 289.197C450.036 289.323 450.074 289.449 450.123 289.575L449.485 289.042C449.243 288.994 449.043 288.787 448.81 288.729C448.326 287.287 448.216 286.904 447.79 285.452C447.771 285.394 447.761 285.336 447.742 285.278C446.881 282.297 446.077 279.297 445.4 276.268C445.235 275.561 445.081 274.845 444.935 274.139C444.868 273.79 444.79 273.452 444.722 273.103V273.094C444.022 269.766 443.505 266.403 443.174 263.019C443.155 262.884 443.145 262.748 443.135 262.613C443.068 261.819 443 261.026 442.951 260.232V260.222C442.742 257.177 442.745 254.121 442.961 251.077C442.96 251.047 442.963 251.018 442.971 250.99V250.941C443.01 250.496 443.058 250.07 443.116 249.625V249.615C443.439 246.177 444.356 242.821 445.826 239.696C444.464 243.056 443.682 246.623 443.513 250.245C443.493 250.428 443.484 250.603 443.474 250.786V250.796C443.474 250.845 443.464 250.893 443.464 250.941V250.98C443.298 254.445 443.408 257.917 443.793 261.364C443.794 261.458 443.803 261.553 443.822 261.645C443.842 261.945 443.88 262.235 443.91 262.535C443.929 262.661 443.939 262.787 443.958 262.913C443.966 263.016 443.978 263.12 443.997 263.222C444.478 267.146 445.163 271.041 446.048 274.894V274.913C446.087 275.107 446.126 275.271 446.184 275.465C446.184 275.505 446.194 275.545 446.213 275.581C446.236 275.734 446.268 275.886 446.31 276.036C447.026 279.103 447.848 282.142 448.758 285.162C449.039 286.129 449.329 287.078 449.629 288.036V288.046C449.706 288.307 449.794 288.549 449.871 288.81V288.82C449.91 288.946 449.958 289.072 449.997 289.197Z" fill="#020202"/>
<path d="M450.239 289.391L450.394 288.694L449.485 289.228C449.243 289.18 448.884 288.868 448.652 288.81C447.539 288.52 447.006 289.091 445.961 288.616C445.342 288.316 444.732 287.987 444.122 287.649C443.542 287.271 442.961 286.894 442.4 286.478C441.839 286.071 441.18 285.713 440.571 285.307C439.974 284.9 439.528 284.308 439.303 283.623C439.054 282.885 438.958 282.105 439.022 281.329C439.09 280.368 439.381 279.437 439.874 278.61L440.484 278.31C441.391 278.402 442.284 278.6 443.145 278.9C443.761 279.121 444.347 279.421 444.887 279.79C445.355 280.124 445.694 280.61 445.845 281.165C445.99 281.753 446.191 282.327 446.445 282.877C446.706 283.41 447.006 283.932 447.306 284.465C447.451 284.736 447.587 285.007 447.742 285.278C447.897 285.549 448.052 285.819 448.216 286.081C448.632 286.836 449.097 287.581 449.571 288.345C449.668 288.5 449.765 288.655 449.871 288.81V288.82C449.948 288.936 450.026 289.052 450.103 289.178C450.152 289.245 450.19 289.323 450.239 289.391Z" fill="#020202"/>
<path d="M446.067 276.419C444.715 276.12 443.402 275.668 442.152 275.072C441.534 274.771 440.924 274.446 440.313 274.105C439.737 273.731 439.152 273.352 438.59 272.937C438.028 272.526 437.378 272.169 436.763 271.764C436.166 271.358 435.721 270.767 435.494 270.082C435.245 269.345 435.149 268.564 435.212 267.789C435.286 266.828 435.579 265.898 436.069 265.069L436.677 264.77C437.585 264.859 438.48 265.058 439.34 265.363C439.958 265.581 440.545 265.88 441.083 266.254C441.551 266.585 441.888 267.069 442.037 267.622C442.184 268.211 442.385 268.785 442.64 269.336C442.902 269.873 443.2 270.392 443.499 270.92C443.785 271.463 444.084 272.007 444.406 272.543C445.02 273.646 445.716 274.727 446.43 275.848L446.067 276.419Z" fill="#020202"/>
<path d="M444.114 263.25C442.762 262.951 441.449 262.499 440.2 261.903C439.581 261.602 438.971 261.277 438.361 260.936C437.785 260.562 437.199 260.183 436.638 259.768C436.075 259.357 435.425 259 434.81 258.595C434.214 258.189 433.768 257.598 433.542 256.913C433.293 256.176 433.197 255.395 433.26 254.62C433.334 253.659 433.627 252.729 434.117 251.9L434.724 251.601C435.633 251.69 436.527 251.889 437.387 252.194C438.006 252.412 438.592 252.711 439.131 253.085C439.598 253.416 439.935 253.9 440.085 254.453C440.231 255.042 440.433 255.616 440.687 256.167C440.949 256.704 441.247 257.223 441.547 257.751C441.833 258.294 442.132 258.839 442.453 259.375C443.068 260.477 443.764 261.558 444.477 262.679L444.114 263.25Z" fill="#020202"/>
<path d="M443.302 251.063C441.951 250.763 440.638 250.311 439.388 249.715C438.77 249.414 438.16 249.089 437.549 248.748C436.973 248.374 436.388 247.995 435.826 247.58C435.263 247.169 434.614 246.812 433.999 246.407C433.402 246.001 432.957 245.41 432.731 244.725C432.481 243.988 432.385 243.207 432.448 242.432C432.522 241.471 432.815 240.541 433.305 239.712L433.913 239.413C434.821 239.502 435.715 239.701 436.576 240.006C437.194 240.224 437.781 240.524 438.319 240.897C438.787 241.228 439.124 241.712 439.273 242.265C439.419 242.854 439.621 243.428 439.876 243.979C440.138 244.516 440.436 245.035 440.735 245.563C441.021 246.106 441.32 246.651 441.642 247.187C442.256 248.289 442.952 249.37 443.666 250.491L443.302 251.063Z" fill="#020202"/>
<path d="M449.485 288.837C449.72 287.529 449.954 286.265 450.105 285.012C450.199 284.394 450.269 283.777 450.328 283.166C450.404 282.563 450.483 281.97 450.522 281.374C450.548 280.768 450.517 280.16 450.429 279.559C450.358 278.991 450.486 278.416 450.793 277.932C451.15 277.382 451.579 276.883 452.068 276.447C452.749 275.838 453.5 275.314 454.307 274.887L454.983 274.934C455.751 275.515 456.375 276.265 456.808 277.125C457.16 277.819 457.367 278.577 457.416 279.354C457.467 280.074 457.278 280.79 456.881 281.392C456.465 282 456 282.576 455.635 283.17C455.273 283.767 454.875 284.34 454.483 284.905C454.048 285.451 453.607 285.984 453.149 286.497C452.219 287.522 451.175 288.439 450.038 289.228L449.485 288.837Z" fill="#020202"/>
<path d="M445.957 275.406C446.192 274.098 446.426 272.834 446.576 271.581C446.67 270.963 446.74 270.345 446.799 269.735C446.876 269.132 446.955 268.539 446.993 267.943C447.02 267.337 446.989 266.729 446.901 266.128C446.829 265.56 446.958 264.985 447.264 264.501C447.621 263.951 448.05 263.452 448.54 263.016C449.22 262.407 449.972 261.883 450.779 261.456L451.454 261.502C452.222 262.084 452.846 262.833 453.279 263.694C453.632 264.388 453.839 265.146 453.887 265.923C453.938 266.642 453.75 267.359 453.352 267.961C452.937 268.569 452.471 269.145 452.107 269.739C451.744 270.336 451.346 270.908 450.955 271.474C450.519 272.02 450.078 272.552 449.62 273.066C448.69 274.091 447.647 275.007 446.509 275.797L445.957 275.406Z" fill="#020202"/>
<path d="M443.222 262.494C443.821 261.308 444.408 260.164 444.911 259.006C445.178 258.441 445.422 257.87 445.653 257.302C445.899 256.746 446.145 256.201 446.353 255.641C446.552 255.067 446.696 254.476 446.784 253.876C446.878 253.311 447.166 252.796 447.598 252.42C448.098 251.996 448.652 251.64 449.245 251.363C450.072 250.975 450.942 250.688 451.837 250.51L452.471 250.748C453.041 251.525 453.424 252.422 453.592 253.37C453.731 254.136 453.712 254.922 453.537 255.68C453.379 256.384 452.993 257.016 452.44 257.479C451.868 257.943 451.256 258.362 450.737 258.826C450.219 259.295 449.674 259.729 449.137 260.158C448.563 260.557 447.988 260.941 447.402 261.301C446.218 262.017 444.955 262.596 443.639 263.027L443.222 262.494Z" fill="#020202"/>
<path d="M442.569 250.797C442.804 249.489 443.038 248.225 443.188 246.972C443.283 246.354 443.353 245.737 443.412 245.126C443.488 244.523 443.567 243.93 443.606 243.334C443.632 242.728 443.601 242.12 443.513 241.519C443.442 240.951 443.57 240.376 443.877 239.892C444.234 239.342 444.663 238.843 445.152 238.407C445.833 237.798 446.584 237.274 447.391 236.847L448.067 236.893C448.835 237.475 449.459 238.225 449.891 239.085C450.244 239.779 450.451 240.537 450.5 241.314C450.551 242.034 450.362 242.75 449.965 243.352C449.549 243.96 449.084 244.536 448.719 245.13C448.357 245.727 447.959 246.299 447.567 246.865C447.132 247.411 446.691 247.943 446.233 248.457C445.303 249.482 444.259 250.398 443.122 251.188L442.569 250.797Z" fill="#020202"/>
<path d="M423.664 288.568C423.684 288.635 423.701 288.703 423.712 288.771V288.781C423.567 288.888 423.422 288.994 423.277 289.091L422.967 288.878C422.924 288.87 422.882 288.857 422.841 288.839C422.843 288.819 422.839 288.799 422.831 288.781C422.812 288.675 422.793 288.588 422.764 288.481V288.471C422.58 287.581 422.377 286.71 422.164 285.829V285.82C421.873 284.629 421.554 283.449 421.215 282.268C420.528 280.032 419.764 277.797 419.018 275.542C418.535 274.1 418.07 272.658 417.644 271.206C417.625 271.129 417.596 271.052 417.576 270.974V270.964C416.715 268.003 415.922 265.022 415.254 262.013C415.089 261.306 414.934 260.6 414.789 259.893C414.721 259.545 414.644 259.206 414.576 258.858V258.848C413.881 255.52 413.364 252.157 413.028 248.773C413.009 248.638 412.999 248.493 412.989 248.357C412.921 247.564 412.854 246.78 412.805 245.986V245.977C412.596 242.928 412.599 239.869 412.815 236.821C412.813 236.792 412.817 236.763 412.825 236.734V236.686C412.863 236.25 412.912 235.825 412.97 235.379V235.37C413.292 231.928 414.209 228.568 415.68 225.44C414.319 228.807 413.54 232.381 413.376 236.008C413.357 236.183 413.347 236.347 413.338 236.521V236.531C413.339 236.58 413.336 236.628 413.328 236.676V236.725C413.158 240.189 413.265 243.661 413.647 247.109C413.647 247.203 413.657 247.297 413.676 247.389V247.399C413.696 247.699 413.734 247.98 413.763 248.28C413.783 248.406 413.792 248.541 413.812 248.667C413.821 248.764 413.831 248.87 413.85 248.967C414.336 252.893 415.02 256.792 415.902 260.648V260.658C415.941 260.842 415.98 261.006 416.028 261.19C416.036 261.236 416.049 261.282 416.067 261.325V261.335C416.09 261.485 416.122 261.634 416.164 261.78V261.79C416.88 264.858 417.712 267.897 418.612 270.916C418.893 271.884 419.183 272.842 419.473 273.8C419.483 273.81 419.483 273.819 419.473 273.819C419.56 274.061 419.647 274.313 419.725 274.555V274.565C419.764 274.7 419.812 274.826 419.851 274.952C419.889 275.078 419.928 275.203 419.967 275.32V275.329C420.683 277.545 421.428 279.752 422.096 282.016C422.473 283.4 422.831 284.784 423.161 286.178C423.306 286.807 423.441 287.436 423.567 288.075V288.084C423.609 288.243 423.642 288.405 423.664 288.568Z" fill="#020202"/>
<path d="M423.77 288.404L423.664 288.568L423.412 288.975C423.257 288.946 423.112 288.907 422.967 288.878C422.924 288.869 422.881 288.856 422.841 288.839C421.689 288.543 420.568 288.138 419.493 287.629C418.873 287.329 418.263 287 417.654 286.662C417.083 286.284 416.492 285.907 415.931 285.491C415.37 285.084 414.721 284.726 414.102 284.32C413.509 283.91 413.064 283.319 412.834 282.636C412.585 281.898 412.489 281.118 412.554 280.342C412.631 279.382 412.925 278.452 413.415 277.622L414.025 277.323C414.933 277.414 415.826 277.615 416.686 277.922C417.305 278.136 417.892 278.436 418.428 278.813C418.893 279.143 419.229 279.626 419.376 280.177C419.529 280.765 419.733 281.339 419.986 281.89C420.247 282.432 420.547 282.945 420.838 283.477C421.128 284.019 421.428 284.561 421.747 285.103C421.883 285.345 422.018 285.578 422.164 285.82V285.829C422.435 286.274 422.705 286.72 422.996 287.174C423.18 287.474 423.373 287.765 423.567 288.074V288.084C423.635 288.191 423.702 288.297 423.77 288.404Z" fill="#020202"/>
<path d="M419.729 275.709C418.377 275.41 417.064 274.958 415.814 274.361C415.196 274.06 414.586 273.735 413.976 273.395C413.399 273.02 412.814 272.642 412.252 272.227C411.69 271.815 411.04 271.459 410.425 271.054C409.829 270.647 409.383 270.056 409.157 269.371C408.907 268.634 408.811 267.854 408.874 267.078C408.948 266.118 409.242 265.187 409.731 264.358L410.339 264.059C411.247 264.148 412.142 264.348 413.002 264.653C413.62 264.87 414.207 265.17 414.746 265.543C415.213 265.874 415.55 266.358 415.699 266.911C415.846 267.5 416.047 268.074 416.302 268.626C416.564 269.162 416.862 269.681 417.161 270.209C417.447 270.752 417.746 271.297 418.068 271.833C418.682 272.935 419.378 274.016 420.092 275.137L419.729 275.709Z" fill="#020202"/>
<path d="M415.922 262.168C414.57 261.869 413.257 261.417 412.008 260.821C411.389 260.519 410.779 260.194 410.169 259.854C409.593 259.479 409.007 259.101 408.446 258.686C407.883 258.275 407.233 257.918 406.618 257.513C406.022 257.107 405.576 256.515 405.35 255.83C405.101 255.093 405.005 254.313 405.068 253.537C405.142 252.577 405.435 251.646 405.925 250.817L406.532 250.518C407.441 250.607 408.335 250.807 409.195 251.112C409.814 251.33 410.4 251.629 410.939 252.002C411.406 252.334 411.743 252.817 411.892 253.37C412.039 253.959 412.241 254.533 412.495 255.085C412.757 255.621 413.055 256.14 413.355 256.668C413.641 257.211 413.94 257.756 414.261 258.292C414.876 259.395 415.572 260.476 416.285 261.596L415.922 262.168Z" fill="#020202"/>
<path d="M413.97 248.999C412.618 248.7 411.305 248.248 410.055 247.651C409.437 247.35 408.827 247.025 408.217 246.685C407.64 246.31 407.055 245.932 406.493 245.517C405.931 245.105 405.281 244.749 404.666 244.343C404.07 243.937 403.624 243.346 403.398 242.661C403.149 241.924 403.053 241.143 403.115 240.368C403.189 239.408 403.482 238.477 403.972 237.648L404.58 237.349C405.489 237.438 406.383 237.638 407.243 237.943C407.862 238.16 408.448 238.46 408.987 238.833C409.454 239.164 409.791 239.648 409.94 240.201C410.087 240.79 410.289 241.364 410.543 241.915C410.805 242.452 411.103 242.971 411.402 243.499C411.689 244.042 411.987 244.587 412.309 245.123C412.923 246.225 413.62 247.306 414.333 248.427L413.97 248.999Z" fill="#020202"/>
<path d="M413.158 236.811C411.806 236.512 410.493 236.06 409.243 235.464C408.625 235.163 408.015 234.837 407.405 234.497C406.829 234.122 406.243 233.744 405.681 233.329C405.119 232.918 404.469 232.561 403.854 232.156C403.258 231.75 402.812 231.158 402.586 230.473C402.337 229.736 402.241 228.956 402.304 228.18C402.378 227.22 402.671 226.289 403.161 225.46L403.768 225.161C404.677 225.25 405.571 225.45 406.431 225.755C407.05 225.973 407.636 226.272 408.175 226.645C408.642 226.977 408.979 227.46 409.129 228.013C409.275 228.603 409.477 229.177 409.731 229.728C409.993 230.264 410.291 230.783 410.591 231.312C410.877 231.855 411.176 232.399 411.497 232.935C412.112 234.038 412.808 235.119 413.521 236.239L413.158 236.811Z" fill="#020202"/>
<path d="M430.661 279.22C430.707 279.938 430.517 280.652 430.119 281.252C429.703 281.862 429.238 282.442 428.87 283.032C428.512 283.632 428.115 284.203 427.719 284.765C427.283 285.316 426.848 285.849 426.393 286.362C425.582 287.252 424.684 288.059 423.712 288.771V288.781C423.567 288.888 423.422 288.994 423.276 289.091L422.967 288.878L422.831 288.781L422.725 288.704C422.735 288.626 422.754 288.558 422.763 288.481V288.471C422.841 288.036 422.918 287.6 422.996 287.175C423.054 286.845 423.112 286.507 423.16 286.178C423.228 285.742 423.286 285.307 423.344 284.871C423.441 284.262 423.509 283.642 423.567 283.032C423.644 282.423 423.722 281.832 423.76 281.242C423.789 280.634 423.76 280.025 423.673 279.423C423.599 278.856 423.725 278.28 424.031 277.797C424.388 277.245 424.818 276.743 425.309 276.307C425.99 275.701 426.74 275.178 427.544 274.748L428.222 274.797C428.988 275.379 429.613 276.127 430.051 276.984C430.402 277.681 430.609 278.441 430.661 279.22Z" fill="#020202"/>
<path d="M419.341 274.585C419.576 273.278 419.81 272.013 419.96 270.76C420.054 270.142 420.125 269.525 420.183 268.914C420.26 268.311 420.339 267.718 420.377 267.123C420.404 266.516 420.373 265.908 420.285 265.308C420.213 264.739 420.342 264.164 420.648 263.68C421.005 263.13 421.434 262.631 421.924 262.195C422.604 261.586 423.356 261.063 424.163 260.635L424.838 260.682C425.606 261.263 426.23 262.013 426.663 262.873C427.016 263.567 427.223 264.326 427.272 265.102C427.322 265.822 427.134 266.538 426.736 267.14C426.321 267.748 425.855 268.325 425.491 268.918C425.128 269.516 424.73 270.088 424.339 270.653C423.903 271.199 423.462 271.732 423.004 272.245C422.074 273.27 421.031 274.187 419.893 274.976L419.341 274.585Z" fill="#020202"/>
<path d="M415.812 261.154C416.047 259.847 416.281 258.583 416.431 257.329C416.526 256.711 416.596 256.094 416.655 255.483C416.731 254.881 416.81 254.288 416.849 253.692C416.875 253.085 416.844 252.477 416.756 251.877C416.685 251.308 416.813 250.733 417.12 250.249C417.477 249.699 417.906 249.2 418.395 248.764C419.076 248.156 419.827 247.632 420.634 247.205L421.31 247.251C422.078 247.832 422.702 248.582 423.134 249.442C423.487 250.136 423.694 250.895 423.743 251.671C423.793 252.391 423.605 253.107 423.208 253.709C422.792 254.317 422.326 254.894 421.962 255.488C421.6 256.085 421.202 256.657 420.81 257.222C420.375 257.769 419.934 258.301 419.476 258.814C418.546 259.84 417.502 260.756 416.365 261.546L415.812 261.154Z" fill="#020202"/>
<path d="M413.077 248.242C413.677 247.057 414.263 245.913 414.766 244.755C415.033 244.19 415.277 243.619 415.509 243.05C415.754 242.495 416 241.949 416.208 241.389C416.407 240.816 416.551 240.225 416.639 239.624C416.733 239.059 417.021 238.544 417.453 238.169C417.953 237.744 418.507 237.389 419.101 237.111C419.927 236.723 420.797 236.437 421.693 236.258L422.327 236.496C422.896 237.273 423.279 238.17 423.447 239.118C423.586 239.884 423.567 240.67 423.392 241.428C423.234 242.132 422.849 242.765 422.296 243.227C421.723 243.691 421.112 244.11 420.593 244.575C420.074 245.043 419.529 245.477 418.992 245.907C418.418 246.305 417.843 246.689 417.258 247.05C416.073 247.766 414.81 248.345 413.495 248.776L413.077 248.242Z" fill="#020202"/>
<path d="M412.424 236.545C412.659 235.238 412.894 233.974 413.044 232.72C413.138 232.102 413.208 231.485 413.267 230.874C413.343 230.272 413.422 229.679 413.461 229.083C413.488 228.476 413.457 227.869 413.369 227.268C413.297 226.7 413.425 226.124 413.732 225.64C414.089 225.091 414.518 224.591 415.007 224.155C415.688 223.547 416.44 223.023 417.246 222.596L417.922 222.642C418.69 223.223 419.314 223.973 419.747 224.833C420.099 225.527 420.306 226.286 420.355 227.062C420.406 227.782 420.218 228.498 419.82 229.1C419.404 229.708 418.939 230.285 418.574 230.879C418.212 231.476 417.814 232.048 417.423 232.613C416.987 233.16 416.546 233.692 416.088 234.205C415.158 235.231 414.114 236.147 412.977 236.937L412.424 236.545Z" fill="#020202"/>
<path d="M410.845 307.717C410.065 304.599 409.306 301.476 408.57 298.349L406.4 288.962C406.364 288.805 406.363 288.642 406.397 288.485C406.431 288.327 406.499 288.179 406.597 288.051C406.695 287.923 406.82 287.819 406.963 287.745C407.106 287.671 407.264 287.629 407.425 287.623L407.512 287.621L419.609 287.246L431.706 286.965C439.771 286.839 447.836 286.68 455.9 286.65C463.965 286.575 472.03 286.548 480.094 286.647C488.159 286.722 496.224 287.017 504.289 287.222L504.371 287.225C504.767 287.235 505.143 287.402 505.415 287.689C505.688 287.976 505.836 288.359 505.826 288.755C505.823 288.845 505.812 288.935 505.794 289.023C503.726 298.9 501.581 308.763 499.704 318.675C497.82 328.585 496.105 338.526 494.488 348.484L492.167 363.44L489.977 378.418C488.516 388.403 486.907 398.362 485.254 408.312C485.166 408.836 484.898 409.313 484.495 409.659C484.092 410.005 483.58 410.198 483.048 410.204L482.998 410.205L469.449 410.361C464.933 410.4 460.416 410.496 455.9 410.489L442.351 410.499L428.803 410.371L428.762 410.37C428.191 410.365 427.639 410.158 427.205 409.787C426.77 409.417 426.479 408.905 426.383 408.341C425.383 402.439 424.491 396.518 423.539 390.608L420.852 372.847C419.981 366.922 419.14 360.992 418.329 355.057C417.57 349.112 416.739 343.181 416.061 337.222C416.054 337.16 416.07 337.099 416.107 337.049C416.144 337 416.199 336.966 416.259 336.956C416.32 336.945 416.383 336.958 416.434 336.991C416.486 337.025 416.523 337.077 416.537 337.137C417.945 342.967 419.2 348.824 420.526 354.668C421.802 360.522 423.046 366.38 424.257 372.245L427.818 389.852C428.949 395.731 430.14 401.599 431.222 407.486L428.803 405.457L442.351 405.329L455.9 405.339C460.416 405.332 464.933 405.427 469.449 405.466L482.998 405.623L480.742 407.515C482.6 397.599 484.502 387.69 486.553 377.809L492.672 348.159C494.624 338.261 496.48 328.345 498.164 318.399C499.857 308.454 501.282 298.461 502.783 288.482L504.289 290.282C496.224 290.488 488.159 290.782 480.094 290.857C472.03 290.956 463.965 290.929 455.9 290.854C447.836 290.824 439.771 290.665 431.706 290.539L419.609 290.259L407.512 289.884L408.623 288.542L410.025 298.075C410.481 301.254 410.913 304.438 411.32 307.627C411.328 307.688 411.313 307.75 411.276 307.801C411.24 307.851 411.186 307.885 411.125 307.896C411.064 307.908 411.002 307.896 410.95 307.862C410.897 307.829 410.86 307.777 410.845 307.717H410.845Z" fill="#020202"/>
<path d="M405.896 214.93C404.783 212.84 401.957 211.185 401.26 211.272C400.563 211.359 396.644 211.621 395.337 210.13C395.061 209.823 394.73 209.57 394.36 209.385C393.783 209.118 393.151 208.991 392.516 209.013C391.88 209.035 391.259 209.205 390.702 209.511C388.495 210.653 384.034 210.062 382.359 208.911C380.443 207.585 375.904 208.911 375.904 208.911C375.324 202.253 375.991 198.711 376.882 196.843C379.127 198.594 383.521 201.662 387.15 201.256C391.069 200.82 399.344 191.065 399.344 191.065C401.434 191.414 403.176 190.281 402.479 186.623C401.782 182.965 402.828 177.303 402.828 177.303C403.646 175.861 404.292 174.328 404.754 172.736C406.254 178.62 406.225 195.159 404.918 197.946C403.612 200.733 404.134 205.824 404.134 205.824C406.573 208.988 405.896 214.93 405.896 214.93Z" fill="#020202"/>
<path d="M284.614 328.479C284.285 328.663 283.947 328.837 283.608 329.011C283.72 328.848 283.871 328.715 284.046 328.622C284.221 328.529 284.416 328.48 284.614 328.479Z" fill="#020202"/>
<path d="M308.257 309.733C305.843 312.587 303.206 315.244 300.37 317.679C297.537 320.084 294.56 322.314 291.456 324.356C289.211 325.808 286.947 327.202 284.614 328.479C284.649 328.471 284.685 328.468 284.721 328.469C285.051 328.465 285.372 328.574 285.632 328.776C285.892 328.979 286.076 329.265 286.152 329.586C286.228 329.907 286.192 330.244 286.051 330.543C285.91 330.841 285.671 331.082 285.375 331.226C285.078 331.371 284.741 331.41 284.419 331.337C284.098 331.265 283.81 331.084 283.604 330.827C283.399 330.569 283.287 330.248 283.287 329.918C283.288 329.588 283.401 329.269 283.608 329.011C283.027 329.321 282.437 329.611 281.846 329.902L289.163 356.032C289.163 356.032 297.176 356.032 301.357 352.548C302.065 351.668 302.609 350.668 302.963 349.596C303.38 348.549 303.739 347.479 304.037 346.393C304.676 344.234 305.179 342.028 305.673 339.821C306.641 335.408 307.473 330.966 308.247 326.505C309.041 322.053 309.747 317.582 310.473 313.121C310.909 310.392 311.315 307.653 311.721 304.924C310.663 306.594 309.506 308.2 308.257 309.733ZM287.276 335.205C287.652 335.218 288.008 335.377 288.269 335.648C288.531 335.919 288.677 336.28 288.677 336.657C288.677 337.033 288.531 337.395 288.269 337.665C288.008 337.936 287.652 338.095 287.276 338.108C286.899 338.095 286.543 337.936 286.282 337.665C286.021 337.395 285.875 337.033 285.875 336.657C285.875 336.28 286.021 335.919 286.282 335.648C286.543 335.377 286.899 335.218 287.276 335.205ZM289.366 346.935C288.989 346.922 288.632 346.764 288.37 346.493C288.108 346.222 287.962 345.86 287.962 345.483C287.962 345.106 288.108 344.744 288.37 344.473C288.632 344.202 288.989 344.044 289.366 344.031C289.743 344.044 290.1 344.202 290.362 344.473C290.624 344.744 290.771 345.106 290.771 345.483C290.771 345.86 290.624 346.222 290.362 346.493C290.1 346.764 289.743 346.922 289.366 346.935ZM291.921 354.367C291.544 354.355 291.187 354.196 290.925 353.925C290.663 353.654 290.517 353.292 290.517 352.915C290.517 352.538 290.663 352.176 290.925 351.905C291.187 351.635 291.544 351.476 291.921 351.464C292.298 351.476 292.655 351.635 292.917 351.905C293.179 352.176 293.325 352.538 293.325 352.915C293.325 353.292 293.179 353.654 292.917 353.925C292.655 354.196 292.298 354.355 291.921 354.367Z" fill="#020202"/>
<path d="M315.06 291.23C301.821 279.616 304.889 248.861 304.889 248.861C297.37 248.648 277.666 256.738 277.666 256.738C277.491 256.661 277.308 256.583 277.133 256.496C273.7 257.926 270.116 258.962 266.449 259.584C264.63 259.98 262.762 260.087 260.913 260.309C259.984 260.377 259.046 260.387 258.117 260.435C257.188 260.483 256.259 260.484 255.32 260.464C253.462 260.445 251.604 260.29 249.745 260.135C247.897 259.903 246.049 259.68 244.229 259.293C240.574 258.619 237.013 257.508 233.622 255.983C237.232 256.777 240.842 257.367 244.461 257.803C248.078 258.242 251.716 258.485 255.358 258.529C258.993 258.611 262.629 258.465 266.246 258.093C269.894 257.803 273.475 257.116 277.133 256.496C260.913 249.161 243.726 237.093 243.726 237.093C243.726 237.093 214.954 264.055 242.826 314.921C242.826 314.921 263.033 333.037 281.846 329.902C288.108 326.032 293.994 321.586 299.431 316.624C302.099 314.134 304.595 311.467 306.902 308.64C309.127 305.797 311.026 302.713 312.564 299.446L312.573 299.436C312.666 299.228 312.832 299.06 313.039 298.964C313.246 298.868 313.481 298.85 313.701 298.914C313.92 298.977 314.109 299.118 314.233 299.31C314.356 299.503 314.406 299.733 314.373 299.959C313.773 304.459 313.067 308.94 312.322 313.421C311.576 317.901 310.725 322.353 309.825 326.805C308.886 331.257 307.879 335.689 306.66 340.073C306.041 342.26 305.354 344.428 304.57 346.567C304.185 347.643 303.746 348.7 303.253 349.731C302.799 350.778 302.156 351.733 301.357 352.548V359.516C301.357 359.516 348.39 372.058 365.462 365.09L367.552 331.644L368.346 318.027C344.964 310.159 328.299 302.843 315.06 291.23ZM306.089 355.993C305.712 355.98 305.355 355.822 305.093 355.551C304.831 355.28 304.685 354.918 304.685 354.541C304.685 354.164 304.831 353.802 305.093 353.531C305.355 353.261 305.712 353.102 306.089 353.09C306.466 353.102 306.823 353.261 307.085 353.531C307.347 353.802 307.493 354.164 307.493 354.541C307.493 354.918 307.347 355.28 307.085 355.551C306.823 355.822 306.466 355.98 306.089 355.993ZM314.683 357.851C314.306 357.839 313.949 357.68 313.687 357.409C313.425 357.138 313.278 356.776 313.278 356.399C313.278 356.023 313.425 355.66 313.687 355.39C313.949 355.119 314.306 354.96 314.683 354.948C315.06 354.96 315.417 355.119 315.679 355.389C315.941 355.66 316.087 356.023 316.087 356.399C316.087 356.776 315.941 357.139 315.679 357.409C315.417 357.68 315.06 357.839 314.683 357.851V357.851ZM324.903 360.174C324.526 360.161 324.169 360.003 323.907 359.732C323.645 359.461 323.498 359.099 323.498 358.722C323.498 358.345 323.645 357.983 323.907 357.712C324.169 357.441 324.526 357.283 324.903 357.27C325.279 357.283 325.636 357.441 325.898 357.712C326.161 357.983 326.307 358.345 326.307 358.722C326.307 359.099 326.161 359.461 325.898 359.732C325.636 360.003 325.279 360.161 324.903 360.174ZM335.819 361.567C335.442 361.555 335.085 361.396 334.823 361.126C334.561 360.855 334.415 360.492 334.415 360.116C334.415 359.739 334.561 359.376 334.823 359.106C335.085 358.835 335.442 358.676 335.819 358.664C336.196 358.676 336.553 358.835 336.815 359.106C337.077 359.376 337.224 359.739 337.224 360.116C337.224 360.492 337.077 360.855 336.815 361.126C336.553 361.396 336.196 361.555 335.819 361.567ZM346.968 362.264C346.591 362.252 346.234 362.093 345.972 361.822C345.71 361.552 345.563 361.189 345.563 360.812C345.563 360.435 345.71 360.073 345.972 359.802C346.234 359.532 346.591 359.373 346.968 359.361C347.345 359.373 347.702 359.531 347.964 359.802C348.226 360.073 348.373 360.435 348.373 360.812C348.373 361.189 348.226 361.552 347.964 361.823C347.702 362.094 347.345 362.252 346.968 362.264V362.264ZM358.813 362.264C358.437 362.252 358.08 362.093 357.818 361.822C357.555 361.551 357.409 361.189 357.409 360.812C357.409 360.436 357.555 360.073 357.818 359.803C358.08 359.532 358.437 359.373 358.813 359.361C359.19 359.373 359.547 359.531 359.809 359.802C360.072 360.073 360.218 360.435 360.218 360.812C360.218 361.189 360.072 361.552 359.809 361.822C359.547 362.093 359.19 362.252 358.813 362.264V362.264Z" fill="#020202"/>
<path d="M294.411 248.158C290.464 246.954 286.616 245.448 282.901 243.652C281.06 242.724 279.194 241.834 277.395 240.825C275.581 239.839 273.822 238.764 272.045 237.715C268.529 235.562 265.068 233.314 261.735 230.888C258.399 228.462 255.193 225.88 252.049 223.198L252.027 223.18C251.918 223.086 251.85 222.954 251.839 222.811C251.828 222.668 251.874 222.526 251.967 222.417C251.994 222.386 252.024 222.358 252.057 222.333C255.772 219.586 259.541 216.95 263.269 214.246C266.987 211.53 270.754 208.884 274.505 206.208C281.998 200.821 289.778 195.846 297.81 191.302C305.813 186.618 314.301 182.817 323.126 179.966C327.564 178.519 332.17 177.649 336.831 177.376C339.173 177.25 341.521 177.429 343.816 177.909C346.107 178.397 348.274 179.349 350.183 180.706C350.203 180.722 350.217 180.744 350.221 180.77C350.225 180.795 350.218 180.821 350.203 180.842C350.189 180.861 350.167 180.874 350.144 180.879C350.12 180.883 350.096 180.879 350.075 180.867C346.098 178.514 341.384 178.135 336.911 178.572C332.396 179.096 327.955 180.133 323.674 181.662C315.084 184.794 306.746 188.577 298.732 192.978C290.679 197.353 282.784 202.052 275.021 206.975C267.25 211.892 259.811 217.314 252.75 223.204L252.758 222.339C255.993 224.829 259.371 227.161 262.72 229.503C266.081 231.834 269.446 234.156 272.884 236.37C274.621 237.446 276.343 238.55 278.117 239.563C279.855 240.641 281.643 241.627 283.42 242.64C287.026 244.564 290.684 246.39 294.475 247.975C294.499 247.984 294.518 248.003 294.528 248.026C294.538 248.05 294.539 248.077 294.529 248.1C294.52 248.123 294.503 248.141 294.481 248.151C294.459 248.162 294.435 248.164 294.411 248.158Z" fill="#020202"/>
<path d="M366.767 317.485C354.745 314.982 343.168 310.686 332.425 304.74C327.069 301.706 321.984 298.216 317.228 294.308C316.63 293.825 316.052 293.317 315.464 292.823C314.881 292.329 314.287 291.842 313.696 291.255C312.572 290.106 311.595 288.823 310.787 287.434C309.235 284.706 308.043 281.788 307.243 278.754C305.672 272.784 304.722 266.668 304.408 260.503C304.027 254.381 303.984 248.243 304.278 242.116C304.346 240.586 304.435 239.056 304.543 237.527C304.642 235.993 304.861 234.455 305.029 232.949C305.396 229.916 305.754 226.884 306.177 223.858C306.593 220.832 307.027 217.808 307.506 214.791C307.922 211.762 308.543 208.765 309.365 205.821C309.004 207.302 308.732 208.804 308.55 210.318C308.348 211.829 308.152 213.341 307.978 214.856C307.632 217.886 307.33 220.921 307.047 223.958L306.213 233.071C305.91 236.115 305.776 239.107 305.712 242.164C305.593 248.244 305.707 254.329 306.167 260.378C306.559 266.409 307.533 272.388 309.076 278.232C309.854 281.101 310.985 283.863 312.442 286.454C313.164 287.71 314.038 288.871 315.045 289.913C315.534 290.405 316.116 290.892 316.695 291.388C317.272 291.878 317.838 292.381 318.424 292.86C323.078 296.738 328.031 300.243 333.237 303.341C338.453 306.449 343.895 309.162 349.517 311.455C355.154 313.776 360.912 315.789 366.767 317.485Z" fill="#020202"/>
<path d="M245.137 237.979C245.633 236.666 246.246 235.4 246.97 234.197C247.666 233.004 248.422 231.848 249.237 230.733C250.051 229.617 250.923 228.544 251.849 227.52C252.775 226.465 253.796 225.497 254.899 224.628C254.406 225.943 253.793 227.209 253.068 228.412C252.373 229.605 251.616 230.761 250.799 231.875C249.984 232.989 249.111 234.061 248.185 235.085C247.259 236.14 246.238 237.109 245.137 237.979Z" fill="#020202"/>
<path d="M312.327 196.99C313.109 195.696 314.083 194.529 315.218 193.53C316.334 192.498 317.581 191.617 318.927 190.911C320.291 190.162 321.786 189.68 323.331 189.492C324.887 189.267 326.473 189.576 327.831 190.371C326.408 190.334 324.989 190.537 323.634 190.972C322.316 191.405 321.041 191.959 319.824 192.625C318.581 193.272 317.35 193.983 316.12 194.733C314.889 195.484 313.649 196.247 312.327 196.99Z" fill="#020202"/>
<path d="M336.563 190.973C340.081 192.174 343.112 194.487 345.2 197.562C347.326 200.585 348.91 203.954 349.881 207.52C350.853 211.072 351.45 214.717 351.66 218.394C351.869 222.035 352.034 225.679 352.156 229.324C352.288 232.97 352.323 236.62 352.3 240.274C352.271 243.92 352.159 247.605 351.812 251.244C351.545 254.815 351.703 258.404 352.283 261.937C352.839 265.476 353.705 268.959 354.873 272.346L354.798 272.196C355.364 272.936 356.02 273.602 356.75 274.18C357.505 274.82 358.299 275.436 359.104 276.038C360.717 277.243 362.382 278.396 364.061 279.53C367.431 281.782 370.836 283.994 374.274 286.167C381.149 290.505 388.113 294.713 395.109 298.868C398.603 300.952 402.118 302.999 405.655 305.01L408.305 306.523C408.722 306.78 409.154 307.009 409.601 307.209C410.033 307.364 410.495 307.415 410.951 307.359C411.406 307.302 411.842 307.14 412.223 306.884C412.581 306.638 412.986 306.248 413.367 305.934L415.686 303.946C416.474 303.283 417.304 302.67 418.169 302.111C419.033 301.538 419.94 301.067 420.787 300.53C421.649 299.993 422.479 299.434 423.328 298.851C423.79 298.534 424.32 298.33 424.876 298.257C425.432 298.183 425.997 298.242 426.526 298.427C426.81 298.521 427.071 298.672 427.293 298.872C427.516 299.072 427.694 299.316 427.816 299.589C428.015 300.141 428.024 300.743 427.842 301.301C427.684 301.835 427.415 302.33 427.052 302.753C426.683 303.183 426.293 303.487 425.926 303.843L421.444 307.987L421.511 307.905C421.242 308.258 421.113 308.699 421.149 309.142C421.185 309.585 421.384 309.999 421.707 310.304C422.452 310.937 423.332 311.392 424.279 311.634C425.231 311.931 426.214 312.117 427.208 312.189C428.215 312.135 429.214 311.993 430.196 311.764C434.219 310.893 438.196 309.684 442.151 308.459L445.113 307.516C445.626 307.355 446.051 307.195 446.636 307.031C447.23 306.873 447.853 306.849 448.458 306.962C448.784 307.025 449.098 307.139 449.388 307.301C449.734 307.496 450.009 307.796 450.174 308.158C450.418 308.815 450.393 309.542 450.106 310.181C449.677 311.291 448.914 312.24 447.922 312.898C447.44 313.22 446.918 313.479 446.37 313.667L444.902 314.186L441.966 315.225L436.095 317.301L436.235 317.237C436.009 317.367 435.798 317.522 435.607 317.699C435.511 317.774 435.442 317.877 435.407 317.993C435.402 317.978 435.416 318.07 435.574 318.213C435.747 318.362 435.941 318.485 436.15 318.577L435.786 318.515L445.543 317.883L450.422 317.577C451.411 317.504 452.401 317.713 453.276 318.18C453.745 318.433 454.16 318.777 454.496 319.191C454.701 319.448 454.851 319.745 454.936 320.062C455.021 320.379 455.041 320.711 454.993 321.036C454.886 321.597 454.635 322.12 454.264 322.554C453.951 322.94 453.584 323.28 453.174 323.561C452.37 324.106 451.445 324.446 450.479 324.551L445.584 324.988L440.714 325.42L439.497 325.528L438.888 325.582C438.726 325.594 438.565 325.617 438.406 325.652C438.117 325.712 437.84 325.82 437.587 325.973C437.375 326.102 437.192 326.273 437.051 326.477C437.016 326.531 436.995 326.592 436.989 326.656C436.983 326.72 436.993 326.784 437.017 326.843C437.086 327.038 437.213 327.206 437.38 327.327C437.476 327.398 437.58 327.457 437.69 327.502C437.827 327.556 437.969 327.596 438.115 327.622L439.306 327.896L444.07 328.995L446.449 329.555C446.868 329.661 447.185 329.713 447.712 329.87C448.213 330.027 448.683 330.267 449.103 330.581C449.552 330.919 449.922 331.352 450.186 331.848C450.349 332.154 450.445 332.49 450.468 332.835C450.491 333.18 450.44 333.526 450.319 333.85C450.089 334.392 449.72 334.865 449.251 335.221C448.781 335.576 448.227 335.803 447.642 335.878C447.171 335.931 446.695 335.94 446.221 335.905C445.793 335.886 445.377 335.852 444.96 335.818C444.133 335.742 443.312 335.654 442.499 335.556L437.643 334.945L435.239 334.669C434.507 334.572 433.768 334.541 433.031 334.577C432.789 334.6 432.556 334.678 432.35 334.807C432.211 334.933 432.249 334.907 432.245 334.942C432.231 335.189 432.75 335.75 433.068 335.784C433.117 335.79 433.165 335.803 433.21 335.824L433.275 335.854L439.854 338.952L439.65 338.882C440.23 338.99 440.778 339.23 441.25 339.583C441.723 339.936 442.109 340.392 442.377 340.918C442.529 341.247 442.605 341.607 442.598 341.971C442.592 342.334 442.503 342.691 442.338 343.014C442.057 343.544 441.65 343.996 441.154 344.331C440.22 344.967 439.078 345.219 437.963 345.035C437.376 344.93 437.015 344.79 436.582 344.676L435.317 344.313L425.2 341.411L423.935 341.048L423.303 340.867L423.144 340.822L423.105 340.81L423.085 340.805C423.117 340.812 422.985 340.781 423.152 340.819L423.064 340.803L422.711 340.732C421.802 340.516 420.922 340.193 420.088 339.77L415.301 337.557C412.12 336.063 408.963 334.525 405.814 332.981C399.59 329.783 393.16 327.003 386.568 324.657L366.736 317.577C366.724 317.573 366.713 317.566 366.703 317.557C366.694 317.549 366.686 317.539 366.681 317.527C366.675 317.516 366.672 317.503 366.672 317.49C366.671 317.478 366.673 317.465 366.677 317.453C366.686 317.429 366.703 317.41 366.726 317.399C366.749 317.388 366.775 317.386 366.799 317.394L386.841 323.824C393.526 326.035 400.058 328.687 406.392 331.763L415.944 336.166L420.741 338.304C421.476 338.67 422.253 338.947 423.055 339.128L423.348 339.183L423.421 339.195L423.588 339.235L423.746 339.278L424.381 339.451L425.651 339.796L435.807 342.559L437.077 342.905C437.492 343.012 437.964 343.16 438.242 343.199C438.88 343.299 439.532 343.15 440.064 342.783C440.296 342.623 440.488 342.412 440.626 342.166C440.664 342.099 440.684 342.023 440.683 341.945C440.683 341.868 440.663 341.792 440.624 341.725C440.477 341.475 440.275 341.26 440.035 341.096C439.795 340.933 439.521 340.825 439.234 340.779C439.17 340.766 439.107 340.746 439.047 340.718L439.03 340.71L432.441 337.633L432.647 337.703C432.059 337.562 431.526 337.253 431.112 336.812C430.67 336.372 430.381 335.801 430.288 335.184C430.237 334.788 430.304 334.385 430.483 334.027C430.646 333.707 430.883 333.43 431.174 333.22C431.645 332.889 432.192 332.682 432.763 332.615C433.653 332.55 434.547 332.576 435.432 332.691L437.886 332.965L442.733 333.559C443.537 333.654 444.337 333.737 445.133 333.807C445.529 333.838 445.925 333.869 446.311 333.885C446.65 333.909 446.991 333.906 447.33 333.877C447.558 333.853 447.777 333.772 447.967 333.643C448.156 333.513 448.311 333.338 448.416 333.134C448.439 333.075 448.447 333.012 448.44 332.949C448.432 332.886 448.409 332.827 448.373 332.775C448.246 332.554 448.075 332.361 447.871 332.207C447.635 332.035 447.372 331.903 447.092 331.818C446.839 331.739 446.353 331.639 445.982 331.549L443.601 330.996L438.845 329.867L437.656 329.583C437.401 329.53 437.152 329.454 436.912 329.355C436.645 329.243 436.394 329.097 436.164 328.922C435.674 328.551 435.309 328.039 435.117 327.455C435.011 327.127 434.976 326.78 435.014 326.437C435.052 326.094 435.163 325.764 435.339 325.467C435.645 324.986 436.059 324.583 436.549 324.291C436.995 324.022 437.485 323.831 437.995 323.727C438.235 323.677 438.478 323.643 438.722 323.625L439.332 323.576L440.55 323.478L445.423 323.083L450.27 322.689C450.933 322.624 451.57 322.398 452.125 322.031C452.612 321.734 452.983 321.281 453.179 320.746C453.191 320.667 453.185 320.586 453.162 320.51C453.14 320.433 453.1 320.363 453.046 320.303C452.863 320.086 452.642 319.905 452.393 319.769C451.821 319.464 451.174 319.327 450.528 319.373L445.646 319.641L435.882 320.157L435.85 320.159C435.736 320.165 435.622 320.143 435.517 320.095C435.129 319.925 434.772 319.693 434.46 319.406C434.248 319.223 434.079 318.997 433.963 318.742C433.847 318.488 433.788 318.211 433.789 317.932C433.835 317.397 434.085 316.901 434.488 316.547C434.775 316.283 435.092 316.052 435.433 315.861C435.477 315.835 435.525 315.813 435.573 315.796L441.473 313.799L444.422 312.8L445.897 312.3C446.335 312.161 446.753 311.966 447.141 311.719C447.904 311.237 448.499 310.531 448.844 309.697C449.005 309.388 449.048 309.031 448.968 308.692C448.913 308.499 448.612 308.316 448.195 308.223C447.777 308.138 447.345 308.148 446.931 308.252C446.514 308.358 445.958 308.544 445.478 308.684L442.487 309.571C438.486 310.716 434.487 311.858 430.377 312.674C429.331 312.898 428.268 313.027 427.199 313.061C426.122 312.972 425.06 312.755 424.034 312.413C422.968 312.118 421.986 311.579 421.164 310.838C420.722 310.41 420.455 309.833 420.416 309.218C420.406 308.625 420.572 308.041 420.892 307.541C420.91 307.511 420.933 307.483 420.959 307.459L425.468 303.344C425.834 302.996 426.248 302.665 426.542 302.321C426.847 301.972 427.075 301.562 427.21 301.118C427.353 300.703 427.355 300.251 427.217 299.835C427.129 299.643 427.001 299.471 426.843 299.331C426.684 299.192 426.498 299.087 426.297 299.023C425.862 298.87 425.397 298.822 424.94 298.882C424.482 298.942 424.046 299.109 423.665 299.369C422.834 299.933 421.972 300.505 421.102 301.039C420.228 301.587 419.319 302.044 418.488 302.6C417.648 303.152 416.844 303.757 416.081 304.411L413.783 306.416C413.381 306.751 413.061 307.083 412.587 307.423C412.122 307.74 411.589 307.944 411.031 308.017C410.473 308.091 409.906 308.032 409.375 307.846C408.889 307.639 408.418 307.398 407.967 307.124L405.302 305.634L394.658 299.646C387.567 295.644 380.507 291.586 373.524 287.382C370.035 285.277 366.557 283.147 363.159 280.879C361.458 279.747 359.768 278.594 358.112 277.374C357.284 276.764 356.465 276.137 355.663 275.467C354.791 274.787 354.015 273.993 353.355 273.105C353.327 273.065 353.304 273.021 353.287 272.975L353.28 272.956C352.027 269.467 351.132 265.86 350.607 262.191C350.036 258.524 349.904 254.802 350.214 251.103C350.797 243.87 350.983 236.61 350.771 229.356C350.561 222.088 350.857 214.749 348.976 207.765C348.13 204.259 346.688 200.925 344.713 197.907C343.701 196.417 342.499 195.065 341.139 193.885C339.793 192.682 338.223 191.757 336.519 191.162L336.506 191.158C336.482 191.15 336.462 191.133 336.45 191.111C336.439 191.088 336.436 191.062 336.444 191.038C336.451 191.014 336.468 190.993 336.49 190.981C336.512 190.969 336.538 190.966 336.563 190.973L336.563 190.973Z" fill="#020202"/>
<path d="M304.887 251.689C308.816 251.735 312.719 251.85 316.618 251.942C320.517 252.02 324.408 252.11 328.293 252.075C332.176 252.068 336.053 251.944 339.903 251.607C341.823 251.435 343.731 251.15 345.618 250.756C347.523 250.402 349.35 249.715 351.017 248.727C349.538 250.068 347.785 251.072 345.88 251.669C343.996 252.306 342.063 252.786 340.1 253.104C336.197 253.712 332.252 254.015 328.302 254.01C324.365 254.006 320.437 253.832 316.529 253.444C312.616 253.092 308.729 252.506 304.887 251.689Z" fill="#020202"/>
<path d="M363.435 156.518C363.435 156.518 351.057 181.138 345.715 183.228C340.373 185.319 341.534 191.917 344.322 193.496C347.109 195.074 357.096 200.648 358.025 202.042C358.954 203.436 375.798 212.262 375.854 209.707C375.901 207.551 377.52 197.252 375.409 191.051C374.063 187.348 373.478 183.412 373.689 179.478C373.817 177.74 374.108 176.435 374.69 176.435C374.69 176.435 369.464 170.86 374.69 163.892C374.69 163.892 380.874 157.795 382.268 168.944C382.268 168.944 401.43 167.376 406.481 162.15C406.481 162.15 400.994 139.243 381.92 142.379C381.919 142.379 368.294 144.527 363.435 156.518Z" fill="#020202"/>
<path d="M405.818 162.758C406.06 166.117 405.699 169.493 404.754 172.726V172.736C404.292 174.328 403.646 175.861 402.828 177.303C402.828 177.303 401.783 182.965 402.479 186.623C403.176 190.281 401.434 191.414 399.344 191.065C399.344 191.065 391.069 200.82 387.15 201.256C383.521 201.662 379.127 198.594 376.882 196.843C376.698 196.707 376.533 196.572 376.388 196.456" stroke="#020202" stroke-width="0.96777" stroke-linecap="round" stroke-linejoin="round"/>
<path d="M395.855 179.977C396.232 179.964 396.588 179.805 396.85 179.534C397.111 179.264 397.258 178.902 397.258 178.525C397.258 178.149 397.111 177.787 396.85 177.516C396.588 177.245 396.232 177.086 395.855 177.073C395.479 177.086 395.122 177.245 394.861 177.516C394.599 177.787 394.453 178.149 394.453 178.525C394.453 178.902 394.599 179.264 394.861 179.534C395.122 179.805 395.479 179.964 395.855 179.977Z" fill="#020202"/>
<path d="M375.127 173.183C375.503 173.17 375.86 173.011 376.121 172.741C376.383 172.47 376.529 172.108 376.529 171.731C376.529 171.355 376.383 170.993 376.121 170.722C375.86 170.451 375.503 170.293 375.127 170.28C374.75 170.293 374.394 170.451 374.132 170.722C373.871 170.993 373.724 171.355 373.724 171.731C373.724 172.108 373.871 172.47 374.132 172.741C374.394 173.011 374.75 173.17 375.127 173.183Z" fill="#020202"/>
<path d="M390.94 171.732C391.881 171.704 392.82 171.818 393.727 172.068C394.639 172.309 395.522 172.65 396.358 173.086C397.199 173.526 397.978 174.075 398.675 174.719C399.375 175.356 399.955 176.114 400.385 176.957C399.638 176.378 398.958 175.799 398.203 175.309C397.465 174.809 396.698 174.353 395.907 173.942C394.293 173.116 392.635 172.378 390.94 171.732Z" fill="#020202"/>
<path d="M389.933 191.067C390.642 191.557 391.278 192.146 391.82 192.816C392.082 193.136 392.345 193.445 392.59 193.772C392.838 194.112 393.115 194.431 393.417 194.726C392.941 194.76 392.468 194.622 392.087 194.335C391.713 194.086 391.375 193.785 391.084 193.443C390.493 192.769 390.095 191.948 389.933 191.067Z" fill="#020202"/>
<path d="M396.204 185.754C396.244 186.153 396.219 186.556 396.132 186.947C396.066 187.261 395.966 187.462 395.855 188.019C395.723 187.987 395.601 187.924 395.498 187.835C395.395 187.747 395.314 187.635 395.262 187.51C395.158 187.266 395.133 186.996 395.188 186.737C395.238 186.49 395.362 186.264 395.543 186.088C395.725 185.913 395.955 185.796 396.204 185.754Z" fill="#020202"/>
<path d="M375.854 209.707C375.634 214.254 375.204 218.764 374.814 223.27C374.585 225.519 374.412 227.772 374.215 230.012C374.119 231.132 374.048 232.252 374.001 233.362C373.99 233.91 373.933 234.478 373.953 235.005L373.962 235.802L374.038 236.479L374.065 236.675C374.102 237.747 374.201 238.859 374.295 239.949C374.4 241.043 374.546 242.13 374.739 243.204C374.914 244.27 375.169 245.321 375.501 246.348C375.776 247.334 376.272 248.244 376.953 249.008L377.006 249.06C377.075 249.127 377.124 249.211 377.148 249.304C377.172 249.397 377.17 249.495 377.142 249.587C377.114 249.679 377.062 249.761 376.99 249.825C376.919 249.889 376.831 249.932 376.737 249.949C375.526 250.17 374.298 250.273 373.068 250.259C372.453 250.252 371.84 250.191 371.236 250.077C370.631 249.974 370.053 249.752 369.535 249.424C370.09 249.637 370.68 249.742 371.275 249.735C371.864 249.749 372.452 249.713 373.035 249.628C374.199 249.474 375.349 249.23 376.476 248.899L376.26 249.84C375.328 249.036 374.617 248.008 374.191 246.853C373.745 245.78 373.388 244.672 373.125 243.54C372.613 241.305 372.297 239.03 372.179 236.74L372.207 236.936L372.066 235.928L372.041 235.027C372.014 234.42 372.055 233.858 372.071 233.274C372.137 232.121 372.227 230.981 372.342 229.846C372.543 227.572 372.879 225.323 373.198 223.074C373.904 218.585 374.727 214.12 375.854 209.707Z" fill="#020202"/>
<path d="M352.548 198.245C352.291 199.439 351.748 200.553 350.965 201.491C350.23 202.453 349.319 203.266 348.28 203.887C348.803 202.818 349.448 201.813 350.204 200.894C350.931 199.964 351.714 199.08 352.548 198.245Z" fill="#020202"/>
<path d="M305.137 238.969L304.909 239.179L304.916 239.173C303.26 241.418 301.379 243.487 299.302 245.348C297.229 247.227 294.996 248.923 292.63 250.415C290.259 251.904 287.76 253.176 285.161 254.218C282.577 255.272 279.883 256.036 277.13 256.495C279.643 255.294 282.118 254.121 284.534 252.853C286.944 251.575 289.312 250.243 291.6 248.779C293.906 247.344 296.133 245.784 298.331 244.166C300.524 242.54 302.663 240.829 304.854 239.114L304.862 239.108L305.137 238.969Z" fill="#020202"/>
<path d="M262.595 327.155C261.128 328.969 260.217 331.17 259.972 333.491C259.854 334.63 259.863 335.778 259.997 336.915C260.035 337.484 260.191 338.043 260.28 338.605L260.722 340.265L260.706 340.216C262.322 344.371 263.832 348.557 265.123 352.828C265.767 354.963 266.311 357.131 266.808 359.314C267.052 360.408 267.276 361.507 267.451 362.622C267.539 363.18 267.616 363.741 267.656 364.315C267.724 364.917 267.697 365.525 267.576 366.119L267.54 365.835C268.901 368.283 270.474 370.606 272.243 372.778C273.994 374.959 275.95 376.968 278.083 378.777C280.176 380.577 282.496 382.096 284.983 383.293C287.399 384.473 290.055 385.08 292.743 385.067L292.839 385.071C293.092 385.038 293.368 384.843 293.41 384.137C293.426 383.775 293.405 383.412 293.346 383.054C293.258 382.665 293.178 382.272 293.061 381.878C292.524 380.255 291.853 378.678 291.058 377.164C290.252 375.616 289.384 374.105 288.508 372.565L287.184 370.203L286.001 367.761C284.428 364.47 283.422 360.938 283.025 357.313C282.851 355.479 283.008 353.628 283.49 351.849C283.75 350.96 284.15 350.119 284.677 349.357C285.221 348.609 285.946 348.012 286.784 347.62C286.796 347.615 286.809 347.613 286.821 347.612C286.834 347.612 286.847 347.614 286.858 347.619C286.87 347.624 286.881 347.631 286.89 347.639C286.899 347.648 286.907 347.659 286.912 347.671C286.921 347.693 286.921 347.717 286.913 347.74C286.906 347.763 286.89 347.782 286.87 347.794C286.148 348.264 285.545 348.896 285.11 349.639C284.702 350.392 284.418 351.205 284.267 352.047C283.972 353.741 283.968 355.474 284.256 357.169C284.889 360.588 286.035 363.892 287.654 366.969L288.895 369.274L290.227 371.533L291.607 373.842C292.072 374.612 292.466 375.432 292.899 376.225C293.764 377.854 294.464 379.567 294.987 381.336C295.279 382.306 295.395 383.32 295.329 384.331C295.285 384.966 295.05 385.573 294.656 386.073C294.419 386.354 294.121 386.577 293.784 386.725C293.436 386.876 293.057 386.943 292.679 386.921L292.774 386.924C291.284 386.911 289.802 386.709 288.363 386.324C286.951 385.926 285.586 385.374 284.293 384.679C283.009 384.011 281.79 383.225 280.653 382.331C279.517 381.459 278.433 380.522 277.408 379.524C275.384 377.533 273.499 375.405 271.766 373.156C270.019 370.925 268.388 368.606 266.879 366.207C266.833 366.134 266.817 366.046 266.835 365.962L266.843 365.923C266.903 365.419 266.882 364.908 266.783 364.411C266.705 363.88 266.59 363.346 266.464 362.814C266.211 361.75 265.907 360.69 265.59 359.635C264.951 357.523 264.212 355.436 263.52 353.335L259.313 340.729L259.298 340.683L259.297 340.678C259.163 340.074 259.015 339.475 258.912 338.867C258.851 338.249 258.725 337.644 258.72 337.022C258.648 335.785 258.733 334.544 258.971 333.329C259.221 332.122 259.646 330.958 260.232 329.874C260.791 328.788 261.549 327.817 262.466 327.011C262.484 326.995 262.508 326.987 262.532 326.988C262.557 326.989 262.579 326.999 262.597 327.016C262.614 327.033 262.624 327.056 262.625 327.08C262.626 327.104 262.618 327.128 262.602 327.147L262.595 327.155Z" fill="#020202"/>
<path d="M247.268 343.481C248.62 340.178 251.813 336.996 259.29 338.614C259.29 338.614 268.138 359.982 267.209 366.021C270.504 365.902 273.719 364.976 276.571 363.322C279.424 361.669 281.826 359.34 283.566 356.54C283.566 356.54 292.526 364.627 289.507 372.292C289.507 372.292 283.925 378.532 276.845 378.315C276.845 378.315 286.023 386.228 292.759 385.996C292.759 385.996 299.959 391.57 291.83 392.499C286.465 392.958 281.075 393.043 275.699 392.755C274.16 392.693 272.654 392.292 271.288 391.582C269.922 390.871 268.73 389.868 267.796 388.644C263.712 383.278 256.135 371.911 247.5 352.081C246.891 350.735 246.557 349.281 246.517 347.805C246.477 346.328 246.732 344.858 247.268 343.481Z" fill="#020202"/>
<path d="M304.983 360.401C305.235 362.688 305.319 364.99 305.235 367.289C305.202 368.449 305.095 369.605 304.913 370.751C304.749 371.923 304.456 373.074 304.04 374.182C303.822 374.758 303.549 375.311 303.225 375.835C303.031 376.09 302.82 376.339 302.614 376.59C302.408 376.854 302.269 376.951 302.123 377.182C301.552 378.062 301.147 379.038 300.927 380.064C300.451 382.208 300.363 384.42 300.667 386.595C300.857 388.714 301.634 390.739 302.911 392.441C303.216 392.805 303.584 393.111 303.996 393.346C304.193 393.458 304.401 393.551 304.617 393.622C304.722 393.662 304.837 393.674 304.945 393.703L305.345 393.794C306.519 394.066 307.654 394.482 308.726 395.032C310.771 395.907 312.926 396.496 315.132 396.782L316.807 397.029L318.5 397.197C319.629 397.312 320.761 397.419 321.9 397.462C326.457 397.719 331.024 397.727 335.582 397.488C337.864 397.398 340.143 397.224 342.422 397.092C344.701 396.939 346.974 396.699 349.249 396.495C358.343 395.607 367.424 394.6 376.507 393.628L375.651 394.437C375.64 394.493 375.647 394.342 375.628 394.265C375.614 394.162 375.592 394.061 375.563 393.962C375.502 393.739 375.418 393.523 375.312 393.316C375.207 393.091 375.081 392.876 374.937 392.674C374.802 392.454 374.647 392.247 374.473 392.055C374.129 391.646 373.759 391.26 373.365 390.899C372.929 390.56 372.536 390.185 372.072 389.871C370.222 388.557 368.233 387.452 366.139 386.578C365.109 386.079 364.013 385.7 362.952 385.254L359.679 384.1C357.444 383.37 355.229 382.574 353.022 381.753C348.565 380.177 344.246 378.233 340.111 375.942C338.02 374.793 336.082 373.386 334.341 371.756C332.543 370.139 331.361 367.949 330.995 365.559C330.993 365.546 330.995 365.533 330.998 365.521C331.002 365.509 331.008 365.498 331.016 365.488C331.024 365.478 331.034 365.47 331.045 365.464C331.056 365.458 331.069 365.454 331.081 365.453C331.106 365.451 331.13 365.458 331.149 365.473C331.168 365.488 331.182 365.509 331.187 365.533C331.742 367.777 333.035 369.77 334.858 371.193C336.649 372.648 338.601 373.893 340.676 374.903C344.865 376.925 349.186 378.659 353.611 380.091C355.82 380.839 358.055 381.517 360.279 382.228L363.653 383.359C364.759 383.803 365.889 384.174 366.977 384.681C369.209 385.621 371.329 386.808 373.298 388.218C373.806 388.561 374.258 389.005 374.737 389.397C375.2 389.836 375.632 390.305 376.032 390.801C376.245 391.05 376.437 391.317 376.605 391.598C376.793 391.879 376.956 392.175 377.094 392.483C377.247 392.802 377.367 393.136 377.454 393.48C377.502 393.664 377.536 393.85 377.557 394.039C377.589 394.272 377.591 394.509 377.561 394.742C377.538 394.951 377.444 395.145 377.294 395.292C377.144 395.439 376.948 395.53 376.739 395.549L376.705 395.552C367.592 396.381 358.471 397.154 349.322 397.522C347.036 397.627 344.753 397.767 342.464 397.82C340.177 397.909 337.894 398.052 335.606 398.104C331.031 398.218 326.46 398.414 321.868 398.376C320.72 398.395 319.571 398.349 318.421 398.295L316.693 398.218L314.965 398.055C312.616 397.881 310.305 397.367 308.104 396.528C307.128 396.058 306.1 395.707 305.04 395.481L304.603 395.386C304.435 395.346 304.263 395.32 304.1 395.263C303.772 395.158 303.455 395.021 303.154 394.852C302.569 394.524 302.046 394.097 301.609 393.588C300.798 392.626 300.187 391.512 299.812 390.311C299.438 389.168 299.184 387.989 299.056 386.794C298.775 384.423 298.922 382.021 299.49 379.702C299.768 378.489 300.298 377.349 301.046 376.355C301.215 376.105 301.537 375.844 301.684 375.659L302.182 375.108C302.48 374.672 302.736 374.209 302.947 373.726C303.755 371.643 304.26 369.456 304.447 367.23C304.691 364.966 304.805 362.691 304.79 360.414C304.789 360.389 304.799 360.364 304.817 360.345C304.834 360.326 304.859 360.315 304.884 360.315C304.908 360.315 304.932 360.323 304.95 360.339C304.968 360.355 304.98 360.377 304.983 360.401Z" fill="#020202"/>
<path d="M311.572 372.989C311.507 374.514 311.796 376.032 312.417 377.426C312.733 378.087 313.168 378.685 313.699 379.19C314.267 379.725 314.876 380.215 315.521 380.654C314.694 380.549 313.905 380.247 313.22 379.774C312.502 379.294 311.925 378.631 311.549 377.854C311.175 377.084 310.986 376.237 310.999 375.381C310.997 374.55 311.194 373.73 311.572 372.989Z" fill="#020202"/>
<path d="M302.168 392.912C302.168 392.912 296.668 394.822 299.707 404.81C299.707 404.81 299.262 408.526 312.501 407.829L379.161 407.916C379.161 407.916 384.096 397.01 373.848 394.871L357.113 396.42C357.113 396.42 361.277 386.461 360.115 383.209C358.332 380.3 355.634 378.064 352.444 376.852C349.255 375.64 345.753 375.52 342.488 376.511C342.488 376.511 343.176 392.491 330.858 397.954C330.858 397.954 312.739 397.042 302.168 392.912Z" fill="#020202"/>
<path d="M284.614 328.479C284.285 328.663 283.947 328.837 283.608 329.011C283.72 328.848 283.871 328.715 284.046 328.622C284.221 328.529 284.416 328.48 284.614 328.479Z" fill="white"/>
<path d="M368.346 207.858C368.268 210.755 367.989 213.643 367.511 216.501C367.066 219.361 366.438 222.19 365.708 224.997C364.951 227.809 363.988 230.561 362.827 233.232L361.872 235.208C361.513 235.85 361.128 236.48 360.756 237.108C360.367 237.729 359.881 238.302 359.441 238.881C358.951 239.424 358.422 239.931 357.86 240.399L358.447 239.484C358.659 239.198 358.844 238.894 359 238.575C359.298 237.92 359.664 237.323 359.919 236.657L360.715 234.688L361.421 232.68C362.295 229.976 363.102 227.247 363.841 224.491L366.039 216.192C366.766 213.415 367.5 210.636 368.346 207.858Z" fill="#020202"/>
<path d="M374.226 249.837C374.948 251.85 375.602 253.882 376.275 255.908C376.958 257.931 377.59 259.969 378.231 262.004C379.5 266.078 380.714 270.167 381.901 274.263L381.678 273.872C383.786 275.997 385.976 278.076 388.156 280.143C390.346 282.205 392.568 284.228 394.823 286.214C397.086 288.188 399.389 290.113 401.787 291.909C404.114 293.808 406.752 295.29 409.584 296.289C408.065 296.096 406.588 295.657 405.21 294.988C403.814 294.362 402.462 293.641 401.165 292.83C398.58 291.214 396.098 289.439 393.734 287.514C391.358 285.613 389.074 283.607 386.849 281.542C384.616 279.48 382.472 277.343 380.362 275.139L380.352 275.129C380.25 275.022 380.177 274.891 380.139 274.748C379.061 270.622 378.01 266.488 377.015 262.339C376.524 260.262 376.024 258.188 375.574 256.101C375.115 254.016 374.637 251.936 374.226 249.837Z" fill="#020202"/>
<path d="M232.157 259.522C229.64 265.301 227.051 271.048 224.388 276.762C221.727 282.476 218.964 288.144 216.1 293.766C213.206 299.373 210.273 304.966 206.949 310.367C205.321 313.113 203.515 315.749 201.543 318.259C201.042 318.902 200.505 319.515 199.934 320.095L199.063 320.975C198.757 321.258 198.402 321.511 198.073 321.779L197.566 322.171L196.978 322.498L196.387 322.818C196.173 322.907 195.953 322.983 195.73 323.045C195.506 323.11 195.284 323.19 195.057 323.237L194.36 323.308C193.915 323.34 193.468 323.332 193.024 323.286C192.901 323.284 192.78 323.258 192.667 323.21C192.555 323.161 192.453 323.091 192.367 323.003C192.194 322.826 192.099 322.587 192.103 322.339C192.106 322.092 192.208 321.856 192.385 321.683C192.563 321.51 192.801 321.415 193.049 321.418L193.056 321.418L193.157 321.421C197.464 321.556 201.775 321.389 206.059 320.921C208.204 320.698 210.32 320.327 212.425 319.909C214.512 319.463 216.553 318.825 218.522 318.004C219.017 317.818 219.497 317.594 219.956 317.332C220.416 317.078 220.893 316.846 221.341 316.575L223.948 314.666C225.775 313.331 227.9 312.463 230.139 312.138C232.343 311.839 234.584 311.96 236.742 312.495C238.88 312.993 240.929 313.812 242.822 314.923C240.868 313.974 238.793 313.3 236.655 312.92C234.547 312.516 232.382 312.515 230.274 312.916C228.207 313.341 226.266 314.241 224.606 315.544L222.016 317.598C221.546 317.908 221.052 318.176 220.569 318.467C220.325 318.606 220.086 318.759 219.837 318.888L219.073 319.231C214.995 320.985 210.677 322.118 206.263 322.592C204.079 322.887 201.886 323.069 199.69 323.189C197.49 323.311 195.306 323.356 193.077 323.29L193.21 321.425C195.952 321.849 198.13 319.361 200.051 317.044C200.548 316.466 201.002 315.839 201.45 315.204C201.898 314.571 202.371 313.96 202.8 313.31C203.643 311.995 204.538 310.722 205.337 309.373C208.623 304.047 211.656 298.533 214.635 292.997C217.625 287.463 220.534 281.88 223.434 276.291L227.795 267.909C229.232 265.106 230.678 262.307 232.157 259.522Z" fill="#020202"/>
<path d="M374.949 287.42C367.74 282.863 360.773 277.933 354.077 272.651C349.575 262.296 351.557 239.149 351.557 239.149C351.557 239.149 381.422 238.085 374.949 287.42Z" fill="#020202"/>
<path d="M489.53 370.029H422.057L424.312 381.711H487.275L489.53 370.029Z" fill="black"/>
<path d="M430.699 406.13L435.774 395.194C435.783 395.174 435.796 395.156 435.813 395.141C435.829 395.126 435.848 395.115 435.868 395.107C435.889 395.1 435.911 395.096 435.933 395.097C435.955 395.098 435.976 395.103 435.996 395.113C436.034 395.131 436.064 395.163 436.081 395.202L440.781 406.018L440.247 406.035L443.952 395.144C443.967 395.098 443.992 395.055 444.024 395.018C444.057 394.982 444.096 394.952 444.14 394.93C444.184 394.909 444.231 394.896 444.28 394.893C444.329 394.889 444.378 394.896 444.424 394.912C444.476 394.93 444.524 394.96 444.564 394.999C444.603 395.038 444.634 395.085 444.654 395.137L448.759 405.98L447.962 405.979L452.037 395.106C452.058 395.051 452.089 394.999 452.13 394.956C452.171 394.912 452.22 394.877 452.274 394.852C452.328 394.828 452.387 394.814 452.447 394.812C452.506 394.81 452.566 394.819 452.622 394.84C452.73 394.882 452.819 394.962 452.87 395.066L458.249 405.916L457.353 405.994L460.554 395.14C460.587 395.024 460.665 394.927 460.771 394.868C460.876 394.81 461 394.796 461.116 394.83C461.181 394.849 461.242 394.883 461.292 394.929C461.343 394.974 461.383 395.03 461.41 395.093L465.881 405.967L465.085 405.996L468.739 395.15C468.754 395.104 468.778 395.061 468.81 395.024C468.841 394.988 468.88 394.957 468.923 394.935C468.966 394.913 469.013 394.9 469.061 394.896C469.11 394.892 469.159 394.898 469.205 394.912C469.255 394.929 469.3 394.956 469.339 394.992C469.378 395.027 469.409 395.07 469.431 395.118L474.107 406.017L473.588 406.03L477.815 395.21C477.822 395.191 477.833 395.173 477.847 395.157C477.861 395.142 477.878 395.129 477.897 395.12C477.916 395.112 477.937 395.106 477.958 395.105C477.979 395.105 477.999 395.108 478.019 395.115C478.043 395.124 478.064 395.139 478.081 395.157C478.098 395.176 478.111 395.198 478.118 395.223L481.096 406.13L477.811 395.311L478.114 395.324L474.112 406.229C474.093 406.281 474.059 406.326 474.014 406.359C473.969 406.391 473.916 406.41 473.86 406.412C473.805 406.414 473.75 406.399 473.703 406.37C473.656 406.341 473.618 406.298 473.596 406.247L473.593 406.242L468.752 395.416L469.443 395.384L465.891 406.263C465.856 406.37 465.78 406.459 465.68 406.509C465.58 406.56 465.464 406.569 465.357 406.535C465.299 406.515 465.245 406.483 465.2 406.441C465.155 406.399 465.12 406.348 465.096 406.292L460.57 395.441L461.426 395.394L458.28 406.265C458.253 406.358 458.198 406.441 458.123 406.503C458.048 406.565 457.955 406.603 457.858 406.611C457.761 406.62 457.664 406.598 457.579 406.551C457.494 406.503 457.426 406.43 457.383 406.343L452.054 395.468L452.887 395.428L448.759 406.28C448.739 406.332 448.709 406.38 448.671 406.421C448.633 406.462 448.588 406.495 448.537 406.518C448.486 406.541 448.431 406.554 448.376 406.556C448.32 406.558 448.264 406.549 448.212 406.53C448.155 406.508 448.103 406.474 448.06 406.431C448.017 406.387 447.983 406.335 447.961 406.278L443.955 395.398L444.656 395.39L440.788 406.223L440.786 406.228C440.767 406.283 440.731 406.33 440.685 406.363C440.638 406.397 440.582 406.416 440.524 406.417C440.467 406.419 440.41 406.403 440.362 406.371C440.313 406.339 440.276 406.294 440.254 406.241L435.771 395.333L436.078 395.34L430.699 406.13Z" fill="black"/>
<path d="M421.181 364.82L427.316 349.262C427.331 349.223 427.358 349.189 427.393 349.165C427.427 349.141 427.468 349.127 427.51 349.127C427.552 349.126 427.594 349.137 427.63 349.16C427.665 349.183 427.693 349.215 427.71 349.254L427.713 349.26C429.967 354.387 432.198 359.525 434.406 364.672L433.698 364.695L438.985 349.181C439.018 349.085 439.079 349.001 439.161 348.941C439.243 348.881 439.341 348.848 439.442 348.846C439.544 348.844 439.643 348.874 439.727 348.93C439.811 348.987 439.876 349.068 439.912 349.163L439.915 349.17L445.759 364.622L444.703 364.62L450.511 349.13C450.539 349.056 450.581 348.988 450.635 348.931C450.689 348.873 450.754 348.826 450.826 348.794C450.898 348.761 450.976 348.743 451.055 348.74C451.134 348.737 451.212 348.75 451.286 348.778C451.43 348.833 451.547 348.939 451.615 349.077L459.277 364.537L458.09 364.64L462.647 349.174C462.692 349.021 462.795 348.892 462.935 348.815C463.074 348.738 463.239 348.72 463.392 348.764C463.479 348.79 463.558 348.835 463.626 348.895C463.693 348.955 463.746 349.03 463.781 349.113L470.154 364.604L469.1 364.642L474.301 349.189L474.303 349.183C474.335 349.089 474.394 349.007 474.473 348.948C474.553 348.888 474.648 348.854 474.747 348.85C474.846 348.846 474.944 348.872 475.028 348.925C475.112 348.978 475.178 349.055 475.217 349.146L481.887 364.67L481.2 364.688C483.18 359.539 485.187 354.4 487.22 349.271L487.222 349.266C487.242 349.217 487.281 349.177 487.33 349.155C487.379 349.134 487.435 349.133 487.484 349.153C487.516 349.165 487.544 349.186 487.565 349.212C487.587 349.238 487.602 349.269 487.609 349.302L490.613 364.82L487.212 349.384L487.6 349.415C485.715 354.6 483.813 359.779 481.895 364.951C481.86 365.043 481.791 365.118 481.701 365.159C481.612 365.2 481.51 365.203 481.418 365.169C481.324 365.132 481.248 365.06 481.207 364.969L474.318 349.54L475.234 349.498L470.168 364.997C470.122 365.138 470.021 365.256 469.889 365.323C469.756 365.39 469.601 365.402 469.46 365.356C469.383 365.33 469.312 365.288 469.253 365.233C469.193 365.177 469.146 365.11 469.114 365.035L462.669 349.573L463.803 349.512L459.318 364.999C459.282 365.123 459.209 365.233 459.109 365.315C459.01 365.397 458.888 365.447 458.759 365.458C458.631 365.469 458.502 365.441 458.389 365.378C458.277 365.314 458.187 365.218 458.13 365.102L450.535 349.61L451.639 349.556L445.759 365.019C445.733 365.088 445.693 365.152 445.643 365.206C445.593 365.26 445.532 365.304 445.465 365.334C445.398 365.365 445.325 365.382 445.251 365.385C445.177 365.388 445.103 365.376 445.034 365.35C444.959 365.321 444.89 365.276 444.833 365.219C444.776 365.161 444.731 365.093 444.703 365.017L438.989 349.516L439.919 349.506L434.415 364.944C434.399 364.991 434.373 365.035 434.341 365.072C434.308 365.109 434.268 365.14 434.223 365.162C434.178 365.184 434.13 365.196 434.08 365.199C434.031 365.203 433.981 365.196 433.934 365.18C433.884 365.162 433.837 365.133 433.799 365.097C433.76 365.06 433.728 365.016 433.707 364.967C431.553 359.797 429.423 354.617 427.317 349.427L427.714 349.425L421.181 364.82Z" fill="black"/>
<path d="M430.87 388.802C431.247 388.789 431.603 388.631 431.865 388.36C432.127 388.089 432.273 387.727 432.273 387.351C432.273 386.974 432.127 386.612 431.865 386.341C431.603 386.071 431.247 385.912 430.87 385.899C430.494 385.912 430.138 386.071 429.876 386.341C429.614 386.612 429.468 386.974 429.468 387.351C429.468 387.727 429.614 388.089 429.876 388.36C430.138 388.631 430.494 388.789 430.87 388.802Z" fill="black"/>
<path d="M440.548 388.802C440.924 388.789 441.281 388.631 441.543 388.36C441.804 388.089 441.951 387.727 441.951 387.351C441.951 386.974 441.804 386.612 441.543 386.341C441.281 386.071 440.924 385.912 440.548 385.899C440.172 385.912 439.815 386.071 439.554 386.341C439.292 386.612 439.146 386.974 439.146 387.351C439.146 387.727 439.292 388.089 439.554 388.36C439.815 388.631 440.172 388.789 440.548 388.802Z" fill="black"/>
<path d="M450.226 388.802C450.602 388.789 450.959 388.631 451.22 388.36C451.482 388.089 451.628 387.727 451.628 387.351C451.628 386.974 451.482 386.612 451.22 386.341C450.959 386.071 450.602 385.912 450.226 385.899C449.85 385.912 449.493 386.071 449.231 386.341C448.97 386.612 448.823 386.974 448.823 387.351C448.823 387.727 448.97 388.089 449.231 388.36C449.493 388.631 449.85 388.789 450.226 388.802Z" fill="black"/>
<path d="M459.904 388.802C460.28 388.789 460.637 388.631 460.898 388.36C461.16 388.089 461.306 387.727 461.306 387.351C461.306 386.974 461.16 386.612 460.898 386.341C460.637 386.071 460.28 385.912 459.904 385.899C459.527 385.912 459.171 386.071 458.909 386.341C458.647 386.612 458.501 386.974 458.501 387.351C458.501 387.727 458.647 388.089 458.909 388.36C459.171 388.631 459.527 388.789 459.904 388.802Z" fill="black"/>
<path d="M469.581 388.802C469.958 388.789 470.314 388.631 470.576 388.36C470.838 388.089 470.984 387.727 470.984 387.351C470.984 386.974 470.838 386.612 470.576 386.341C470.314 386.071 469.958 385.912 469.581 385.899C469.205 385.912 468.848 386.071 468.587 386.341C468.325 386.612 468.179 386.974 468.179 387.351C468.179 387.727 468.325 388.089 468.587 388.36C468.848 388.631 469.205 388.789 469.581 388.802Z" fill="black"/>
<path d="M479.259 388.802C479.635 388.789 479.992 388.631 480.254 388.36C480.515 388.089 480.661 387.727 480.661 387.351C480.661 386.974 480.515 386.612 480.254 386.341C479.992 386.071 479.635 385.912 479.259 385.899C478.883 385.912 478.526 386.071 478.265 386.341C478.003 386.612 477.857 386.974 477.857 387.351C477.857 387.727 478.003 388.089 478.265 388.36C478.526 388.631 478.883 388.789 479.259 388.802Z" fill="black"/>
<path d="M284.614 328.479C284.285 328.663 283.947 328.837 283.608 329.011C283.72 328.848 283.871 328.715 284.046 328.622C284.221 328.529 284.416 328.48 284.614 328.479Z" fill="white"/>
<path d="M309.57 249.153C309.946 249.14 310.303 248.981 310.564 248.71C310.826 248.44 310.972 248.078 310.972 247.701C310.972 247.325 310.826 246.963 310.564 246.692C310.303 246.421 309.946 246.263 309.57 246.25C309.194 246.263 308.837 246.421 308.575 246.692C308.314 246.963 308.167 247.325 308.167 247.701C308.167 248.078 308.314 248.44 308.575 248.71C308.837 248.981 309.194 249.14 309.57 249.153Z" fill="#020202"/>
<path d="M316.77 249.385C317.146 249.372 317.503 249.213 317.765 248.943C318.026 248.672 318.172 248.31 318.172 247.933C318.172 247.557 318.026 247.195 317.765 246.924C317.503 246.653 317.146 246.495 316.77 246.482C316.394 246.495 316.037 246.653 315.776 246.924C315.514 247.195 315.368 247.557 315.368 247.933C315.368 248.31 315.514 248.672 315.776 248.943C316.037 249.213 316.394 249.372 316.77 249.385Z" fill="#020202"/>
<path d="M323.506 250.082C323.882 250.069 324.239 249.91 324.5 249.639C324.762 249.369 324.908 249.007 324.908 248.63C324.908 248.254 324.762 247.892 324.5 247.621C324.239 247.35 323.882 247.191 323.506 247.178C323.13 247.191 322.773 247.35 322.511 247.621C322.25 247.892 322.104 248.254 322.104 248.63C322.104 249.007 322.25 249.369 322.511 249.639C322.773 249.91 323.13 250.069 323.506 250.082Z" fill="#020202"/>
<path d="M330.242 250.314C330.618 250.301 330.974 250.143 331.236 249.872C331.498 249.601 331.644 249.239 331.644 248.863C331.644 248.486 331.498 248.124 331.236 247.853C330.974 247.583 330.618 247.424 330.242 247.411C329.865 247.424 329.509 247.583 329.247 247.853C328.986 248.124 328.839 248.486 328.839 248.863C328.839 249.239 328.986 249.601 329.247 249.872C329.509 250.143 329.865 250.301 330.242 250.314Z" fill="#020202"/>
<path d="M337.674 249.617C338.05 249.604 338.407 249.446 338.669 249.175C338.93 248.904 339.077 248.542 339.077 248.166C339.077 247.789 338.93 247.427 338.669 247.157C338.407 246.886 338.05 246.727 337.674 246.714C337.298 246.727 336.941 246.886 336.68 247.157C336.418 247.427 336.272 247.789 336.272 248.166C336.272 248.542 336.418 248.904 336.68 249.175C336.941 249.446 337.298 249.604 337.674 249.617Z" fill="#020202"/>
<path d="M345.107 248.456C345.483 248.443 345.839 248.284 346.101 248.014C346.363 247.743 346.509 247.381 346.509 247.004C346.509 246.628 346.363 246.266 346.101 245.995C345.839 245.724 345.483 245.566 345.107 245.553C344.73 245.566 344.374 245.724 344.112 245.995C343.85 246.266 343.704 246.628 343.704 247.004C343.704 247.381 343.85 247.743 344.112 248.014C344.374 248.284 344.73 248.443 345.107 248.456Z" fill="#020202"/>
<path d="M371.12 247.759C371.497 247.746 371.853 247.588 372.115 247.317C372.376 247.046 372.523 246.684 372.523 246.308C372.523 245.931 372.376 245.569 372.115 245.298C371.853 245.028 371.497 244.869 371.12 244.856C370.744 244.869 370.387 245.028 370.126 245.298C369.864 245.569 369.718 245.931 369.718 246.308C369.718 246.684 369.864 247.046 370.126 247.317C370.387 247.588 370.744 247.746 371.12 247.759Z" fill="#020202"/>
<path d="M308.641 240.596C310.245 240.761 311.843 240.941 313.447 241.067C315.046 241.225 316.647 241.37 318.249 241.474C321.451 241.698 324.653 241.936 327.859 241.956C331.06 242.066 334.264 242.013 337.46 241.799C338.262 241.778 339.054 241.672 339.851 241.598C340.649 241.522 341.447 241.445 342.233 241.299C343.022 241.169 343.827 241.098 344.608 240.918C345.387 240.736 346.173 240.563 346.965 240.399C343.919 241.501 340.749 242.221 337.526 242.54C336.722 242.627 335.916 242.709 335.109 242.772L332.685 242.879C331.07 242.935 329.453 242.949 327.836 242.922C324.605 242.821 321.382 242.596 318.177 242.211C314.972 241.844 311.788 241.304 308.641 240.596Z" fill="#020202"/>
<path d="M259.459 224.358C259.835 224.345 260.192 224.187 260.453 223.916C260.715 223.645 260.861 223.283 260.861 222.907C260.861 222.53 260.715 222.168 260.453 221.898C260.192 221.627 259.835 221.468 259.459 221.455C259.082 221.468 258.726 221.627 258.464 221.898C258.203 222.168 258.056 222.53 258.056 222.907C258.056 223.283 258.203 223.645 258.464 223.916C258.726 224.187 259.082 224.345 259.459 224.358Z" fill="#020202"/>
<path d="M265.904 228.713C266.28 228.7 266.637 228.542 266.899 228.271C267.16 228 267.306 227.638 267.306 227.262C267.306 226.885 267.16 226.523 266.899 226.253C266.637 225.982 266.28 225.823 265.904 225.81C265.528 225.823 265.171 225.982 264.91 226.253C264.648 226.523 264.502 226.885 264.502 227.262C264.502 227.638 264.648 228 264.91 228.271C265.171 228.542 265.528 228.7 265.904 228.713Z" fill="#020202"/>
<path d="M272.698 233.591C273.074 233.578 273.431 233.419 273.692 233.149C273.954 232.878 274.1 232.516 274.1 232.139C274.1 231.763 273.954 231.401 273.692 231.13C273.431 230.859 273.074 230.701 272.698 230.688C272.321 230.701 271.965 230.859 271.703 231.13C271.442 231.401 271.295 231.763 271.295 232.139C271.295 232.516 271.442 232.878 271.703 233.149C271.965 233.419 272.321 233.578 272.698 233.591Z" fill="#020202"/>
<path d="M278.969 237.946C279.345 237.933 279.702 237.774 279.964 237.504C280.225 237.233 280.371 236.871 280.371 236.494C280.371 236.118 280.225 235.756 279.964 235.485C279.702 235.214 279.345 235.056 278.969 235.043C278.593 235.056 278.236 235.214 277.975 235.485C277.713 235.756 277.567 236.118 277.567 236.494C277.567 236.871 277.713 237.233 277.975 237.504C278.236 237.774 278.593 237.933 278.969 237.946Z" fill="#020202"/>
<path d="M286.111 241.953C286.488 241.94 286.844 241.781 287.106 241.51C287.367 241.239 287.514 240.878 287.514 240.501C287.514 240.124 287.367 239.763 287.106 239.492C286.844 239.221 286.488 239.062 286.111 239.049C285.735 239.062 285.378 239.221 285.117 239.492C284.855 239.763 284.709 240.124 284.709 240.501C284.709 240.878 284.855 241.239 285.117 241.51C285.378 241.781 285.735 241.94 286.111 241.953Z" fill="#020202"/>
<path d="M293.428 245.959C293.804 245.946 294.16 245.788 294.422 245.517C294.684 245.246 294.83 244.884 294.83 244.508C294.83 244.131 294.684 243.769 294.422 243.498C294.16 243.228 293.804 243.069 293.428 243.056C293.051 243.069 292.695 243.228 292.433 243.498C292.171 243.769 292.025 244.131 292.025 244.508C292.025 244.884 292.171 245.246 292.433 245.517C292.695 245.788 293.051 245.946 293.428 245.959Z" fill="#020202"/>
<path d="M204.354 320.226C204.73 320.213 205.087 320.054 205.348 319.784C205.61 319.513 205.756 319.151 205.756 318.774C205.756 318.398 205.61 318.036 205.348 317.765C205.087 317.494 204.73 317.336 204.354 317.323C203.978 317.336 203.621 317.494 203.359 317.765C203.098 318.036 202.952 318.398 202.952 318.774C202.952 319.151 203.098 319.513 203.359 319.784C203.621 320.054 203.978 320.213 204.354 320.226Z" fill="#020202"/>
<path d="M211.554 318.368C211.93 318.355 212.287 318.196 212.549 317.925C212.81 317.655 212.956 317.293 212.956 316.916C212.956 316.54 212.81 316.178 212.549 315.907C212.287 315.636 211.93 315.478 211.554 315.465C211.178 315.478 210.821 315.636 210.56 315.907C210.298 316.178 210.152 316.54 210.152 316.916C210.152 317.293 210.298 317.655 210.56 317.925C210.821 318.196 211.178 318.355 211.554 318.368Z" fill="#020202"/>
<path d="M218.754 315.581C219.131 315.568 219.487 315.409 219.749 315.138C220.011 314.867 220.157 314.505 220.157 314.129C220.157 313.752 220.011 313.391 219.749 313.12C219.487 312.849 219.131 312.69 218.754 312.677C218.378 312.69 218.022 312.849 217.76 313.12C217.498 313.391 217.352 313.752 217.352 314.129C217.352 314.505 217.498 314.867 217.76 315.138C218.022 315.409 218.378 315.568 218.754 315.581Z" fill="#020202"/>
<path d="M225.026 311.168C225.402 311.155 225.758 310.996 226.02 310.725C226.282 310.454 226.428 310.093 226.428 309.716C226.428 309.34 226.282 308.978 226.02 308.707C225.758 308.436 225.402 308.277 225.026 308.264C224.649 308.277 224.293 308.436 224.031 308.707C223.769 308.978 223.623 309.34 223.623 309.716C223.623 310.093 223.769 310.454 224.031 310.725C224.293 310.996 224.649 311.155 225.026 311.168Z" fill="#020202"/>
<path d="M232.69 310.471C233.067 310.458 233.423 310.299 233.685 310.028C233.946 309.757 234.093 309.396 234.093 309.019C234.093 308.642 233.946 308.281 233.685 308.01C233.423 307.739 233.067 307.58 232.69 307.567C232.314 307.58 231.957 307.739 231.696 308.01C231.434 308.281 231.288 308.642 231.288 309.019C231.288 309.396 231.434 309.757 231.696 310.028C231.957 310.299 232.314 310.458 232.69 310.471Z" fill="#020202"/>
</svg>
