<svg width="700" height="550" viewBox="0 0 700 550" fill="none" xmlns="http://www.w3.org/2000/svg">
<path d="M394.847 279.516L382.457 277.506L390.457 280.056H375.267C376.047 280.196 376.827 280.346 377.607 280.506C379.937 280.956 382.277 281.446 384.607 281.936C386.447 282.336 388.307 282.686 390.157 283.046C391.937 283.406 393.737 283.706 395.527 284.036L394.847 279.516ZM401.817 302.686C401.777 302.696 401.747 302.696 401.707 302.706L401.907 302.716L401.817 302.686ZM407.357 292.726C407.327 292.726 407.297 292.736 407.267 292.736L407.437 292.746C407.407 292.736 407.387 292.736 407.357 292.726V292.726ZM407.357 292.726C407.327 292.726 407.297 292.736 407.267 292.736L407.437 292.746C407.407 292.736 407.387 292.736 407.357 292.726V292.726ZM407.357 292.726C407.327 292.726 407.297 292.736 407.267 292.736L407.437 292.746C407.407 292.736 407.387 292.736 407.357 292.726V292.726ZM354.197 272.966V272.936L354.137 272.926H354.127L353.697 272.856C353.857 272.996 354.027 273.136 354.197 273.266C355.347 274.196 356.647 275.136 357.967 276.006C358.567 276.396 359.177 276.786 359.777 277.146C360.227 277.426 360.667 277.686 361.087 277.926C361.287 278.036 361.477 278.146 361.667 278.246C362.581 278.767 363.523 279.237 364.487 279.656C364.657 279.726 364.817 279.786 364.957 279.836C365.12 279.901 365.287 279.954 365.457 279.996C365.552 280.023 365.649 280.043 365.747 280.056L354.197 272.966ZM405.447 281.226L405.767 285.176L406.167 290.446L405.467 285.206L404.957 281.146L395.297 279.586L395.837 284.196C395.84 284.232 395.829 284.267 395.807 284.295C395.784 284.323 395.752 284.341 395.717 284.346H395.667C393.817 283.996 391.967 283.616 390.107 283.286C388.257 282.956 386.397 282.626 384.527 282.326C380.807 281.716 377.087 281.096 373.377 280.366C373.356 280.366 373.335 280.359 373.317 280.346C373.097 280.256 372.877 280.156 372.657 280.056H365.747C364.589 280.871 363.31 281.498 361.957 281.916C365.307 282.666 368.657 283.446 372.007 284.206L383.837 286.986L395.647 289.846C399.547 290.806 403.467 291.736 407.357 292.726C414.357 291.956 421.357 291.136 428.367 290.426C435.407 289.686 442.447 288.976 449.497 288.356L405.447 281.226ZM449.497 288.356C442.487 289.356 435.477 290.266 428.457 291.156C421.437 292.066 414.407 292.846 407.377 293.706C407.324 293.708 407.27 293.704 407.217 293.696H407.207C403.267 292.746 399.347 291.726 395.417 290.746L383.647 287.766L371.887 284.696C368.517 283.796 365.147 282.906 361.787 281.976C357.297 283.406 349.297 283.886 339.407 275.546C339.407 275.546 334.707 272.986 328.007 268.756L298.987 272.196L324.767 279.666L350.507 287.266L376.217 294.946L401.817 302.686C412.207 300.926 422.611 299.206 433.027 297.526C443.467 295.806 453.927 294.186 464.377 292.526L449.497 288.356ZM407.357 292.726C407.327 292.726 407.297 292.736 407.267 292.736L407.437 292.746C407.407 292.736 407.387 292.736 407.357 292.726V292.726ZM407.357 292.726C407.327 292.726 407.297 292.736 407.267 292.736L407.437 292.746C407.407 292.736 407.387 292.736 407.357 292.726V292.726ZM401.777 303.156L401.787 303.606H401.797L401.777 303.156ZM401.817 302.686C401.777 302.696 401.747 302.696 401.707 302.706L401.907 302.716L401.817 302.686ZM401.777 303.156L401.787 303.606H401.797L401.777 303.156ZM401.817 302.686C401.777 302.696 401.747 302.696 401.707 302.706L401.907 302.716L401.817 302.686ZM401.777 303.156L401.787 303.606H401.797L401.777 303.156ZM401.817 302.686C401.777 302.696 401.747 302.696 401.707 302.706L401.907 302.716L401.817 302.686ZM464.377 292.526C453.967 294.406 443.557 296.336 433.137 298.146C422.717 299.996 412.291 301.813 401.857 303.596C401.838 303.604 401.818 303.608 401.797 303.606L402.577 320.476L403.257 337.796L404.477 372.456L405.457 407.116C405.737 418.676 406.007 430.226 406.167 441.786L467.377 430.236L464.377 292.526ZM401.817 302.686C401.777 302.696 401.747 302.696 401.707 302.706L401.907 302.716L401.817 302.686ZM401.787 303.606H401.797L401.777 303.156L401.787 303.606ZM401.817 302.686C401.777 302.696 401.747 302.696 401.707 302.706L401.907 302.716L401.817 302.686ZM401.777 303.156L401.787 303.606H401.797L401.777 303.156ZM401.817 302.686C401.777 302.696 401.747 302.696 401.707 302.706L401.907 302.716L401.817 302.686ZM401.777 303.156L401.787 303.606H401.797L401.777 303.156ZM404.687 407.146L403.477 372.486L402.487 337.826L402.087 320.486L401.787 303.606C401.74 303.605 401.693 303.598 401.647 303.586L375.937 295.886L350.257 288.086L324.597 280.206L298.987 272.196V393.276L406.167 441.786C405.597 430.246 405.137 418.696 404.687 407.146L404.687 407.146ZM309.947 287.116L389.487 309.036V332.036L309.947 306.056V287.116ZM308.917 387.506L308.837 311.066L389.727 337.146L393.347 423.716L308.917 387.506ZM401.817 302.686C401.777 302.696 401.747 302.696 401.707 302.706L401.907 302.716L401.817 302.686ZM401.777 303.156L401.787 303.606H401.797L401.777 303.156ZM407.357 292.726C407.327 292.726 407.297 292.736 407.267 292.736L407.437 292.746C407.407 292.736 407.387 292.736 407.357 292.726V292.726Z" fill="black"/>
<path d="M401.797 303.606H401.787L401.777 303.156L401.797 303.606Z" fill="white"/>
<path d="M401.907 302.716L401.707 302.706C401.747 302.697 401.777 302.697 401.817 302.686L401.907 302.716Z" fill="white"/>
<path d="M401.797 303.606H401.787L401.777 303.156L401.797 303.606Z" fill="white"/>
<path d="M394.847 279.516L394.377 276.346C391.667 275.736 388.967 275.116 386.267 274.466C383.507 273.826 380.751 273.16 377.997 272.466C375.237 271.796 372.487 271.096 369.747 270.366L361.637 268.166L361.597 272.196H365.747L382.457 277.506L390.457 280.056H375.267C376.047 280.196 376.827 280.346 377.607 280.506C379.937 280.956 382.277 281.446 384.607 281.936C386.447 282.336 388.307 282.686 390.157 283.046C391.937 283.406 393.737 283.706 395.527 284.036L394.847 279.516ZM394.847 279.516L394.377 276.346C391.667 275.736 388.967 275.116 386.267 274.466C383.507 273.826 380.751 273.16 377.997 272.466C375.237 271.796 372.487 271.096 369.747 270.366L361.637 268.166L361.597 272.196H365.747L382.457 277.506L390.457 280.056H375.267C376.047 280.196 376.827 280.346 377.607 280.506C379.937 280.956 382.277 281.446 384.607 281.936C386.447 282.336 388.307 282.686 390.157 283.046C391.937 283.406 393.737 283.706 395.527 284.036L394.847 279.516ZM394.847 279.516L394.377 276.346C391.667 275.736 388.967 275.116 386.267 274.466C383.507 273.826 380.751 273.16 377.997 272.466C375.237 271.796 372.487 271.096 369.747 270.366L361.637 268.166L361.597 272.196H365.747L382.457 277.506L390.457 280.056H375.267C376.047 280.196 376.827 280.346 377.607 280.506C379.937 280.956 382.277 281.446 384.607 281.936C386.447 282.336 388.307 282.686 390.157 283.046C391.937 283.406 393.737 283.706 395.527 284.036L394.847 279.516ZM394.847 279.516L394.377 276.346C391.667 275.736 388.967 275.116 386.267 274.466C383.507 273.826 380.751 273.16 377.997 272.466C375.237 271.796 372.487 271.096 369.747 270.366L361.637 268.166L361.597 272.196H365.747L382.457 277.506L390.457 280.056H375.267C376.047 280.196 376.827 280.346 377.607 280.506C379.937 280.956 382.277 281.446 384.607 281.936C386.447 282.336 388.307 282.686 390.157 283.046C391.937 283.406 393.737 283.706 395.527 284.036L394.847 279.516ZM394.847 279.516L394.377 276.346C391.667 275.736 388.967 275.116 386.267 274.466C383.507 273.826 380.751 273.16 377.997 272.466C375.237 271.796 372.487 271.096 369.747 270.366L361.637 268.166L361.597 272.196H365.747L382.457 277.506L390.457 280.056H375.267C376.047 280.196 376.827 280.346 377.607 280.506C379.937 280.956 382.277 281.446 384.607 281.936C386.447 282.336 388.307 282.686 390.157 283.046C391.937 283.406 393.737 283.706 395.527 284.036L394.847 279.516ZM394.847 279.516L394.377 276.346C391.667 275.736 388.967 275.116 386.267 274.466C383.507 273.826 380.751 273.16 377.997 272.466C375.237 271.796 372.487 271.096 369.747 270.366L361.637 268.166L361.597 272.196H365.747L382.457 277.506L390.457 280.056H375.267C376.047 280.196 376.827 280.346 377.607 280.506C379.937 280.956 382.277 281.446 384.607 281.936C386.447 282.336 388.307 282.686 390.157 283.046C391.937 283.406 393.737 283.706 395.527 284.036L394.847 279.516ZM394.847 279.516L394.377 276.346C391.667 275.736 388.967 275.116 386.267 274.466C383.507 273.826 380.751 273.16 377.997 272.466C375.237 271.796 372.487 271.096 369.747 270.366L361.637 268.166L361.597 272.196H365.747L382.457 277.506L390.457 280.056H375.267C376.047 280.196 376.827 280.346 377.607 280.506C379.937 280.956 382.277 281.446 384.607 281.936C386.447 282.336 388.307 282.686 390.157 283.046C391.937 283.406 393.737 283.706 395.527 284.036L394.847 279.516ZM361.477 268.076C361.227 268.146 360.957 268.206 360.657 268.266C358.566 267.538 356.399 267.051 354.197 266.816V272.196H361.517L361.477 268.076ZM354.197 272.966V273.266C355.347 274.196 356.647 275.136 357.967 276.006C358.577 276.406 359.187 276.796 359.777 277.146C360.227 277.426 360.667 277.686 361.087 277.926C361.287 278.036 361.477 278.146 361.667 278.246C362.581 278.766 363.523 279.237 364.487 279.656C364.657 279.726 364.817 279.786 364.957 279.836C365.12 279.901 365.287 279.954 365.457 279.996C365.552 280.023 365.649 280.043 365.747 280.056L354.197 272.966ZM447.057 249.326C444.937 249.756 442.827 250.216 440.727 250.726C439.677 250.976 438.637 251.256 437.597 251.536C436.564 251.746 435.571 252.12 434.657 252.646C432.983 253.926 431.705 255.652 430.967 257.626C430.107 259.576 429.457 261.626 428.687 263.676C428.509 264.237 428.246 264.766 427.907 265.246C427.51 265.695 427.031 266.064 426.497 266.336C425.502 266.844 424.456 267.246 423.377 267.536C421.271 268.116 419.125 268.544 416.957 268.816C412.797 269.366 408.627 269.676 404.437 269.826L405.337 279.906L405.447 281.226L405.767 285.176L406.167 290.446L405.467 285.206L404.957 281.146L404.807 279.966L403.557 269.466C403.55 269.412 403.554 269.357 403.568 269.305C403.582 269.252 403.607 269.203 403.64 269.16C403.674 269.117 403.716 269.082 403.763 269.055C403.811 269.029 403.863 269.012 403.917 269.006H403.957C408.257 268.806 412.567 268.456 416.827 267.846C418.945 267.554 421.045 267.143 423.117 266.616C424.131 266.351 425.116 265.986 426.057 265.526C426.488 265.309 426.877 265.018 427.207 264.666C427.483 264.258 427.702 263.814 427.857 263.346C428.637 261.356 429.277 259.276 430.237 257.296C431.084 255.22 432.506 253.43 434.337 252.136C435.315 251.605 436.372 251.237 437.467 251.046C438.527 250.796 439.587 250.576 440.647 250.376C442.777 249.966 444.907 249.606 447.057 249.326L392.997 239.166L380.067 242.156L377.987 253.486L354.197 256.256V260.676C356.99 262.222 359.981 263.379 363.087 264.116C363.837 264.116 365.357 266.856 361.707 268.006L369.897 269.786C372.667 270.396 375.427 271.039 378.177 271.716C380.937 272.376 383.687 273.046 386.437 273.756C389.187 274.436 391.937 275.139 394.687 275.866C394.739 275.879 394.785 275.906 394.821 275.946C394.857 275.985 394.88 276.034 394.887 276.086L395.297 279.586L395.837 284.196C395.84 284.232 395.829 284.267 395.806 284.295C395.784 284.322 395.752 284.341 395.717 284.346H395.667C393.817 283.996 391.967 283.616 390.107 283.286C388.257 282.956 386.397 282.626 384.527 282.326C380.807 281.716 377.087 281.096 373.377 280.366C373.356 280.366 373.335 280.359 373.317 280.346C373.097 280.256 372.877 280.156 372.657 280.056H365.747C364.589 280.871 363.31 281.498 361.957 281.916C365.307 282.666 368.657 283.446 372.007 284.206L383.837 286.986L395.647 289.846C399.547 290.806 403.467 291.736 407.357 292.726C414.357 291.956 421.357 291.136 428.367 290.426C435.407 289.686 442.447 288.976 449.497 288.356L447.057 249.326ZM382.487 253.946L383.997 246.786L425.517 254.646V261.576L403.977 266.196L368.287 257.646L382.487 253.946ZM390.367 266.856C386.567 265.946 382.797 264.966 379.017 264.016C375.257 262.996 371.477 262.026 367.727 260.956C363.977 259.906 360.227 258.826 356.507 257.646C360.327 258.426 364.127 259.316 367.917 260.216C371.717 261.126 375.487 262.106 379.267 263.056C383.027 264.076 386.807 265.046 390.557 266.106L396.177 267.716C398.047 268.286 399.917 268.826 401.777 269.426C399.867 269.046 397.967 268.596 396.057 268.186L390.367 266.856ZM394.847 279.516L394.377 276.346C391.667 275.736 388.967 275.116 386.267 274.466C383.507 273.826 380.751 273.16 377.997 272.466C375.237 271.796 372.487 271.096 369.747 270.366L361.637 268.166L361.597 272.196H365.747L382.457 277.506L390.457 280.056H375.267C376.047 280.196 376.827 280.346 377.607 280.506C379.937 280.956 382.277 281.446 384.607 281.936C386.447 282.336 388.307 282.686 390.157 283.046C391.937 283.406 393.737 283.706 395.527 284.036L394.847 279.516ZM407.357 292.726C407.327 292.726 407.297 292.736 407.267 292.736L407.437 292.746C407.407 292.736 407.387 292.736 407.357 292.726V292.726ZM394.847 279.516L394.377 276.346C391.667 275.736 388.967 275.116 386.267 274.466C383.507 273.826 380.751 273.16 377.997 272.466C375.237 271.796 372.487 271.096 369.747 270.366L361.637 268.166L361.597 272.196H365.747L382.457 277.506L390.457 280.056H375.267C376.047 280.196 376.827 280.346 377.607 280.506C379.937 280.956 382.277 281.446 384.607 281.936C386.447 282.336 388.307 282.686 390.157 283.046C391.937 283.406 393.737 283.706 395.527 284.036L394.847 279.516ZM394.847 279.516L394.377 276.346C391.667 275.736 388.967 275.116 386.267 274.466C383.507 273.826 380.751 273.16 377.997 272.466C375.237 271.796 372.487 271.096 369.747 270.366L361.637 268.166L361.597 272.196H365.747L382.457 277.506L390.457 280.056H375.267C376.047 280.196 376.827 280.346 377.607 280.506C379.937 280.956 382.277 281.446 384.607 281.936C386.447 282.336 388.307 282.686 390.157 283.046C391.937 283.406 393.737 283.706 395.527 284.036L394.847 279.516ZM394.847 279.516L394.377 276.346C391.667 275.736 388.967 275.116 386.267 274.466C383.507 273.826 380.751 273.16 377.997 272.466C375.237 271.796 372.487 271.096 369.747 270.366L361.637 268.166L361.597 272.196H365.747L382.457 277.506L390.457 280.056H375.267C376.047 280.196 376.827 280.346 377.607 280.506C379.937 280.956 382.277 281.446 384.607 281.936C386.447 282.336 388.307 282.686 390.157 283.046C391.937 283.406 393.737 283.706 395.527 284.036L394.847 279.516ZM394.847 279.516L394.377 276.346C391.667 275.736 388.967 275.116 386.267 274.466C383.507 273.826 380.751 273.16 377.997 272.466C375.237 271.796 372.487 271.096 369.747 270.366L361.637 268.166L361.597 272.196H365.747L382.457 277.506L390.457 280.056H375.267C376.047 280.196 376.827 280.346 377.607 280.506C379.937 280.956 382.277 281.446 384.607 281.936C386.447 282.336 388.307 282.686 390.157 283.046C391.937 283.406 393.737 283.706 395.527 284.036L394.847 279.516ZM394.847 279.516L394.377 276.346C391.667 275.736 388.967 275.116 386.267 274.466C383.507 273.826 380.751 273.16 377.997 272.466C375.237 271.796 372.487 271.096 369.747 270.366L361.637 268.166L361.597 272.196H365.747L382.457 277.506L390.457 280.056H375.267C376.047 280.196 376.827 280.346 377.607 280.506C379.937 280.956 382.277 281.446 384.607 281.936C386.447 282.336 388.307 282.686 390.157 283.046C391.937 283.406 393.737 283.706 395.527 284.036L394.847 279.516Z" fill="black"/>
<path d="M407.438 292.746L407.268 292.736C407.298 292.736 407.328 292.726 407.358 292.726C407.388 292.736 407.408 292.736 407.438 292.746Z" fill="white"/>
<path d="M382.491 253.949C386.111 254.389 389.712 254.933 393.311 255.492C396.91 256.049 400.494 256.692 404.087 257.287C407.665 257.96 411.251 258.591 414.823 259.302C418.395 260.014 421.964 260.74 425.515 261.572C421.895 261.134 418.293 260.59 414.694 260.031C411.095 259.471 407.511 258.832 403.919 258.234C400.341 257.559 396.754 256.931 393.182 256.218C389.611 255.507 386.042 254.78 382.491 253.949Z" fill="black"/>
<path d="M407.171 449.342C406.022 449.342 404.9 449.001 403.944 448.363C402.989 447.725 402.245 446.818 401.805 445.757C401.366 444.696 401.251 443.528 401.475 442.402C401.699 441.275 402.252 440.24 403.064 439.428C403.876 438.616 404.911 438.063 406.038 437.839C407.164 437.615 408.332 437.73 409.393 438.169C410.454 438.609 411.361 439.353 411.999 440.308C412.637 441.264 412.978 442.386 412.978 443.535C412.976 445.074 412.364 446.55 411.275 447.639C410.186 448.728 408.71 449.34 407.171 449.342ZM407.171 438.69C406.213 438.69 405.276 438.974 404.48 439.506C403.683 440.039 403.062 440.795 402.695 441.68C402.328 442.565 402.232 443.539 402.419 444.479C402.606 445.419 403.067 446.282 403.745 446.959C404.422 447.637 405.285 448.098 406.225 448.285C407.165 448.472 408.139 448.377 409.024 448.01C409.909 447.644 410.666 447.023 411.198 446.226C411.73 445.43 412.015 444.493 412.015 443.535C412.013 442.251 411.503 441.019 410.595 440.111C409.687 439.203 408.455 438.692 407.171 438.69Z" fill="black"/>
<path d="M306.595 407.869C305.446 407.869 304.324 407.528 303.369 406.89C302.414 406.252 301.67 405.345 301.23 404.284C300.791 403.223 300.676 402.056 300.9 400.929C301.124 399.803 301.677 398.768 302.489 397.956C303.301 397.144 304.336 396.591 305.462 396.367C306.588 396.143 307.756 396.258 308.817 396.698C309.878 397.137 310.785 397.881 311.423 398.836C312.061 399.791 312.401 400.914 312.401 402.062C312.4 403.602 311.787 405.078 310.699 406.166C309.61 407.255 308.134 407.867 306.595 407.869ZM306.595 397.219C305.637 397.219 304.7 397.503 303.904 398.035C303.107 398.567 302.486 399.324 302.12 400.209C301.753 401.094 301.657 402.068 301.844 403.007C302.031 403.947 302.492 404.81 303.17 405.487C303.847 406.165 304.71 406.626 305.65 406.813C306.589 407 307.563 406.904 308.448 406.537C309.333 406.171 310.09 405.55 310.622 404.753C311.154 403.957 311.438 403.02 311.438 402.062C311.437 400.778 310.926 399.547 310.018 398.639C309.11 397.731 307.879 397.22 306.595 397.219Z" fill="black"/>
<path d="M462.896 441.402C461.747 441.402 460.624 441.061 459.67 440.423C458.715 439.785 457.971 438.878 457.531 437.817C457.092 436.756 456.977 435.589 457.201 434.462C457.425 433.336 457.978 432.301 458.79 431.489C459.602 430.677 460.637 430.124 461.763 429.9C462.89 429.676 464.057 429.791 465.118 430.231C466.179 430.67 467.086 431.415 467.724 432.37C468.362 433.324 468.703 434.447 468.703 435.595C468.701 437.135 468.089 438.611 467 439.7C465.911 440.788 464.435 441.401 462.896 441.402ZM462.896 430.752C461.938 430.752 461.001 431.036 460.205 431.568C459.408 432.101 458.787 432.857 458.421 433.742C458.054 434.627 457.958 435.601 458.145 436.541C458.332 437.48 458.794 438.343 459.471 439.021C460.149 439.698 461.012 440.159 461.951 440.346C462.891 440.533 463.865 440.437 464.75 440.07C465.635 439.704 466.391 439.083 466.923 438.286C467.456 437.49 467.74 436.553 467.74 435.595C467.738 434.311 467.227 433.08 466.319 432.172C465.411 431.264 464.18 430.753 462.896 430.752Z" fill="black"/>
<path d="M306.595 352.21C313.889 354.446 321.149 356.786 328.404 359.141L350.13 366.32L371.783 373.717L382.584 377.492L393.351 381.366L382.43 377.951L371.541 374.437L349.816 367.255L328.163 359.857C320.959 357.353 313.76 354.833 306.595 352.21Z" fill="black"/>
<path d="M391.455 371.647C391.787 367.964 392.227 364.296 392.683 360.63C393.127 356.963 393.649 353.307 394.17 349.651C394.715 345.999 395.262 342.347 395.885 338.705L396.822 333.244C397.17 331.429 397.485 329.609 397.863 327.798C397.707 329.641 397.487 331.475 397.301 333.314L396.637 338.815C396.191 342.482 395.67 346.138 395.147 349.794C394.601 353.446 394.054 357.099 393.431 360.74C392.819 364.382 392.19 368.023 391.455 371.647Z" fill="black"/>
<path d="M317.653 379.871L309.041 381.949L309.072 381.634C316.349 384.699 323.626 387.763 330.878 390.885C338.126 394.017 345.396 397.097 352.626 400.272C359.857 403.442 367.109 406.563 374.32 409.781C381.546 412.963 388.746 416.206 395.942 419.458C388.648 416.432 381.358 413.397 374.095 410.299C366.817 407.239 359.58 404.082 352.322 400.973C345.061 397.87 337.843 394.671 330.601 391.524C323.364 388.368 316.152 385.153 308.939 381.939C308.899 381.922 308.867 381.89 308.85 381.85C308.833 381.809 308.833 381.764 308.849 381.723C308.86 381.699 308.877 381.677 308.898 381.66C308.919 381.643 308.943 381.631 308.97 381.624L317.653 379.871Z" fill="black"/>
<path d="M328.968 365.86C330.146 365.01 331.408 364.283 332.735 363.691C334.048 363.068 335.421 362.583 336.834 362.244C335.657 363.096 334.395 363.823 333.067 364.413C331.754 365.035 330.38 365.52 328.968 365.86Z" fill="black"/>
<path d="M324.117 363.896C325.263 363.047 326.494 362.321 327.791 361.729C329.074 361.106 330.419 360.62 331.804 360.281C330.659 361.131 329.428 361.858 328.13 362.448C326.846 363.07 325.502 363.555 324.117 363.896Z" fill="black"/>
<path d="M319.27 361.456C320.167 360.688 321.157 360.037 322.218 359.518C323.264 358.969 324.375 358.556 325.525 358.289C324.629 359.058 323.638 359.71 322.577 360.227C321.531 360.775 320.419 361.188 319.27 361.456Z" fill="black"/>
<path d="M333.768 368.395C335.094 367.476 336.502 366.683 337.974 366.025C339.432 365.334 340.951 364.782 342.512 364.376C341.188 365.296 339.779 366.09 338.306 366.746C336.848 367.435 335.328 367.987 333.768 368.395Z" fill="black"/>
<path d="M338.619 370.36C339.978 369.426 341.418 368.618 342.923 367.945C344.413 367.24 345.965 366.673 347.559 366.251C346.201 367.186 344.76 367.995 343.255 368.667C341.764 369.37 340.212 369.937 338.619 370.36Z" fill="black"/>
<path d="M343.44 372.661C344.998 371.584 346.651 370.652 348.377 369.875C350.087 369.06 351.867 368.405 353.697 367.917C352.14 368.995 350.488 369.928 348.76 370.703C347.05 371.515 345.269 372.171 343.44 372.661Z" fill="black"/>
<path d="M348.291 374.638C349.944 373.463 351.692 372.426 353.516 371.539C355.322 370.617 357.202 369.846 359.137 369.237C357.485 370.413 355.737 371.45 353.912 372.335C352.105 373.256 350.225 374.026 348.291 374.638Z" fill="black"/>
<path d="M324.117 363.896C323.469 367.13 323.008 370.399 322.737 373.686C322.422 376.966 322.292 380.262 322.347 383.556C322.347 383.556 317.867 383.876 317.527 381.256L319.307 361.456C319.803 362.27 320.515 362.93 321.365 363.361C322.215 363.792 323.168 363.977 324.117 363.896Z" fill="black"/>
<path d="M333.767 368.396C333.119 371.63 332.658 374.899 332.387 378.186C332.072 381.466 331.942 384.762 331.997 388.056C331.997 388.056 327.597 388.366 327.197 385.826V385.816C327.82 382.626 328.271 379.405 328.547 376.166C328.864 372.883 328.991 369.584 328.927 366.286C328.279 369.52 327.818 372.789 327.547 376.076C327.247 379.217 327.117 382.372 327.157 385.526C326.717 385.556 322.787 385.686 322.397 383.306C323.612 376.909 324.188 370.407 324.117 363.896C324.69 364.611 325.437 365.167 326.286 365.51C327.136 365.853 328.059 365.973 328.967 365.856L328.957 365.956C329.453 366.77 330.165 367.43 331.015 367.861C331.865 368.292 332.818 368.477 333.767 368.396Z" fill="black"/>
<path d="M353.027 377.836L351.267 397.496C351.267 397.496 346.787 397.816 346.447 395.196L346.457 395.066V395.056C347.1 391.825 347.561 388.56 347.837 385.276C348.154 381.993 348.281 378.694 348.217 375.396C346.974 381.827 346.385 388.367 346.457 394.916C346.187 394.936 342.127 395.136 341.677 392.736C342.283 389.615 342.721 386.464 342.987 383.296C343.304 380.016 343.431 376.721 343.367 373.426C342.724 376.661 342.263 379.93 341.987 383.216C341.697 386.244 341.567 389.285 341.597 392.326C340.997 392.356 337.297 392.436 336.877 390.156C338.077 383.788 338.646 377.317 338.577 370.836C337.929 374.07 337.468 377.339 337.197 380.626C336.894 383.75 336.76 386.888 336.797 390.026C336.317 390.056 332.437 390.176 332.047 387.806C332.669 384.657 333.113 381.475 333.377 378.276C333.703 374.993 333.833 371.694 333.767 368.396C334.34 369.111 335.087 369.667 335.936 370.01C336.786 370.353 337.709 370.473 338.617 370.356C339.133 371.144 339.855 371.775 340.705 372.181C341.555 372.587 342.5 372.751 343.437 372.656C343.887 373.525 344.578 374.246 345.428 374.73C346.278 375.215 347.251 375.443 348.227 375.386C348.72 376.201 349.43 376.862 350.278 377.295C351.126 377.728 352.078 377.916 353.027 377.836Z" fill="black"/>
<path d="M353.697 377.477C355.58 376.187 357.556 375.037 359.607 374.037C361.641 373.001 363.749 372.117 365.914 371.393C364.031 372.684 362.056 373.834 360.003 374.833C357.969 375.867 355.861 376.751 353.697 377.477Z" fill="black"/>
<path d="M322.397 383.306C322.385 383.391 322.369 383.474 322.347 383.556L322.377 383.226C322.378 383.254 322.385 383.282 322.397 383.306Z" fill="white"/>
<path d="M332.047 387.806C332.035 387.891 332.019 387.974 331.997 388.056L332.027 387.726C332.028 387.754 332.035 387.782 332.047 387.806Z" fill="white"/>
<path d="M336.877 390.157C336.857 390.276 336.827 390.387 336.807 390.506C336.797 390.346 336.797 390.186 336.797 390.026H336.847C336.853 390.071 336.863 390.114 336.877 390.157Z" fill="white"/>
<path d="M341.647 392.606C341.651 392.651 341.662 392.695 341.677 392.736C341.657 392.856 341.627 392.966 341.607 393.086C341.597 392.836 341.587 392.576 341.597 392.326H341.677L341.647 392.606Z" fill="white"/>
<path d="M346.467 394.916L346.457 395.056V394.916H346.467Z" fill="white"/>
<path d="M327.177 385.756C327.179 385.778 327.186 385.798 327.197 385.816V385.826C327.187 385.866 327.177 385.916 327.167 385.956C327.167 385.816 327.157 385.666 327.157 385.526H327.197L327.177 385.756Z" fill="white"/>
<path d="M351.265 397.498C351.77 396.973 352.377 396.558 353.049 396.277C353.709 395.969 354.426 395.801 355.154 395.784C354.649 396.309 354.042 396.725 353.369 397.004C352.709 397.31 351.992 397.478 351.265 397.498Z" fill="black"/>
<path d="M363.106 382.954C366.001 381.681 368.967 380.577 371.99 379.648C375 378.677 378.064 377.883 381.167 377.271C378.272 378.546 375.306 379.65 372.282 380.577C369.272 381.546 366.208 382.34 363.106 382.954Z" fill="black"/>
<path d="M356.792 379.876C359.23 378.713 361.738 377.703 364.301 376.85C366.851 375.96 369.455 375.23 372.097 374.666C369.659 375.83 367.151 376.841 364.587 377.691C362.036 378.58 359.433 379.31 356.792 379.876Z" fill="black"/>
<path d="M363.252 380.457C365.348 379.498 367.512 378.694 369.725 378.049C371.927 377.366 374.176 376.846 376.454 376.492C374.358 377.453 372.194 378.257 369.981 378.9C367.778 379.581 365.53 380.102 363.252 380.457Z" fill="black"/>
<path d="M365.647 392.766C366.492 395.99 367.513 399.165 368.707 402.276L362.937 403.276L362.447 401.586L356.767 402.296L349.967 378.836L356.387 379.466L356.497 379.836C357.113 383.523 357.921 387.174 358.917 390.776C359.865 394.388 360.997 397.95 362.307 401.447C361.007 394.087 359.063 386.856 356.497 379.836L362.737 380.126L363.567 382.996C364.074 386.29 364.768 389.552 365.647 392.766Z" fill="black"/>
<path d="M375.437 405.566L369.907 406.416L368.707 402.276C368.194 398.983 367.496 395.721 366.617 392.506C365.784 389.281 364.765 386.105 363.567 382.996L369.087 383.496L375.437 405.566Z" fill="black"/>
<path d="M350.139 378.783C353.027 377.466 355.982 376.304 358.992 375.299C361.99 374.256 365.041 373.374 368.132 372.656C365.245 373.975 362.29 375.137 359.279 376.14C356.281 377.181 353.23 378.063 350.139 378.783Z" fill="black"/>
<path d="M375.439 405.569C379.201 404.035 382.995 402.592 386.791 401.156L386.595 401.529C386.092 399.762 385.64 397.983 385.161 396.211L383.741 390.889L381.037 380.209L381.436 380.44C377.33 381.491 373.225 382.543 369.091 383.492C373.13 382.198 377.197 381.007 381.265 379.815C381.305 379.804 381.347 379.8 381.388 379.804C381.43 379.809 381.47 379.822 381.507 379.842C381.544 379.862 381.576 379.889 381.603 379.922C381.629 379.954 381.648 379.992 381.66 380.032L381.662 380.038L381.664 380.046L384.506 390.689L385.86 396.029C386.305 397.81 386.778 399.584 387.2 401.371L387.203 401.383C387.22 401.458 387.209 401.536 387.172 401.602C387.135 401.669 387.075 401.72 387.003 401.744C383.161 403.054 379.316 404.357 375.439 405.569Z" fill="black"/>
<path d="M317.879 342.216L308.268 345.412L308.272 345.051C316.857 347.841 325.443 350.631 334.005 353.49C342.563 356.359 351.142 359.168 359.684 362.089C368.227 365.003 376.79 367.861 385.314 370.833C393.852 373.761 402.366 376.763 410.877 379.775C402.277 377.029 393.68 374.274 385.108 371.445C376.521 368.659 367.973 365.76 359.405 362.917C350.835 360.08 342.304 357.132 333.751 354.244C325.202 351.345 316.677 348.378 308.151 345.411L308.146 345.409C308.108 345.396 308.075 345.371 308.053 345.338C308.03 345.305 308.018 345.266 308.019 345.226C308.02 345.186 308.034 345.147 308.058 345.115C308.083 345.084 308.117 345.061 308.155 345.049L317.879 342.216Z" fill="black"/>
<path d="M329.419 325.165C330.679 324.083 332.047 323.133 333.502 322.331C334.937 321.495 336.455 320.81 338.032 320.288C336.774 321.372 335.405 322.322 333.949 323.122C332.513 323.957 330.995 324.641 329.419 325.165Z" fill="black"/>
<path d="M323.704 323.395C324.927 322.317 326.26 321.371 327.681 320.572C329.082 319.738 330.567 319.056 332.113 318.536C330.891 319.615 329.557 320.561 328.135 321.358C326.734 322.191 325.248 322.873 323.704 323.395Z" fill="black"/>
<path d="M317.947 321.082C318.895 320.121 319.961 319.284 321.119 318.59C322.257 317.864 323.484 317.286 324.768 316.872C323.822 317.834 322.756 318.672 321.596 319.363C320.457 320.088 319.231 320.666 317.947 321.082Z" fill="black"/>
<path d="M335.131 327.591C336.553 326.416 338.081 325.377 339.695 324.485C341.289 323.558 342.967 322.783 344.706 322.17C343.285 323.346 341.757 324.385 340.142 325.275C338.547 326.201 336.87 326.976 335.131 327.591Z" fill="black"/>
<path d="M340.847 329.362C342.305 328.167 343.868 327.108 345.518 326.196C347.147 325.249 348.86 324.454 350.635 323.82C349.179 325.017 347.616 326.076 345.965 326.986C344.335 327.932 342.622 328.727 340.847 329.362Z" fill="black"/>
<path d="M346.561 331.519C348.232 330.142 350.025 328.921 351.917 327.869C353.786 326.777 355.751 325.859 357.789 325.127C356.119 326.505 354.326 327.726 352.433 328.776C350.563 329.866 348.597 330.784 346.561 331.519Z" fill="black"/>
<path d="M352.277 333.304C354.047 331.806 355.938 330.457 357.931 329.271C359.9 328.046 361.968 326.987 364.113 326.106C362.344 327.606 360.453 328.955 358.459 330.139C356.489 331.362 354.421 332.421 352.277 333.304Z" fill="black"/>
<path d="M323.704 323.395C323.277 327.141 323.067 330.91 323.075 334.68C323.032 338.448 323.201 342.214 323.581 345.962C323.581 345.962 318.508 346.758 317.869 343.806L317.99 321.078C318.632 321.958 319.508 322.641 320.517 323.05C321.527 323.459 322.631 323.579 323.704 323.395Z" fill="black"/>
<path d="M335.131 327.592C334.703 331.338 334.493 335.107 334.501 338.878C334.458 342.645 334.627 346.411 335.008 350.159C335.008 350.159 330.025 350.936 329.325 348.081L329.324 348.07C329.726 344.375 329.929 340.662 329.932 336.946C329.977 333.175 329.804 329.405 329.414 325.654C328.986 329.401 328.776 333.169 328.784 336.94C328.745 340.547 328.9 344.153 329.25 347.743C328.752 347.82 324.287 348.346 323.614 345.672C324.381 338.268 324.411 330.805 323.704 323.395C324.425 324.154 325.33 324.715 326.33 325.024C327.331 325.334 328.394 325.381 329.418 325.161L329.416 325.276C330.059 326.155 330.934 326.838 331.944 327.247C332.953 327.656 334.057 327.776 335.131 327.592Z" fill="black"/>
<path d="M357.981 336.492L357.869 359.058C357.869 359.058 352.796 359.854 352.157 356.902L352.156 356.753L352.155 356.741C352.576 352.998 352.786 349.234 352.785 345.467C352.83 341.696 352.657 337.926 352.266 334.175C351.47 341.621 351.428 349.128 352.141 356.582C351.835 356.63 347.23 357.25 346.486 354.559C346.875 350.945 347.07 347.313 347.069 343.678C347.114 339.911 346.942 336.145 346.552 332.398C346.13 336.145 345.92 339.913 345.922 343.684C345.883 347.161 346.028 350.637 346.355 354.099C345.675 354.191 341.467 354.639 340.769 352.082C341.523 344.711 341.548 337.284 340.845 329.909C340.418 333.655 340.208 337.423 340.216 341.194C340.171 344.782 340.321 348.37 340.666 351.941C340.122 352.022 335.713 352.532 335.041 349.87C335.445 346.222 335.645 342.555 335.638 338.885C335.692 335.114 335.523 331.343 335.131 327.592C335.852 328.351 336.756 328.912 337.757 329.222C338.758 329.531 339.821 329.578 340.845 329.358C341.508 330.206 342.392 330.855 343.399 331.236C344.406 331.616 345.499 331.712 346.557 331.514C347.153 332.461 348.01 333.215 349.025 333.685C350.04 334.155 351.169 334.321 352.277 334.163C352.916 335.044 353.789 335.729 354.797 336.14C355.805 336.552 356.908 336.673 357.981 336.492Z" fill="black"/>
<path d="M358.709 336.017C360.731 334.367 362.871 332.867 365.111 331.53C367.329 330.153 369.645 328.944 372.041 327.91C370.021 329.563 367.881 331.062 365.639 332.398C363.421 333.772 361.105 334.982 358.709 336.017Z" fill="black"/>
<path d="M323.614 345.672C323.609 345.77 323.598 345.866 323.581 345.962L323.583 345.583C323.587 345.615 323.597 345.645 323.614 345.672Z" fill="white"/>
<path d="M335.041 349.87C335.035 349.967 335.024 350.063 335.008 350.159L335.01 349.78C335.014 349.812 335.024 349.842 335.041 349.87Z" fill="white"/>
<path d="M340.769 352.082C340.758 352.22 340.734 352.349 340.723 352.487C340.696 352.306 340.681 352.123 340.666 351.941L340.722 351.936C340.733 351.986 340.748 352.035 340.769 352.082Z" fill="white"/>
<path d="M346.439 354.413C346.448 354.464 346.464 354.513 346.486 354.559C346.475 354.697 346.451 354.825 346.44 354.964C346.405 354.68 346.368 354.385 346.355 354.099L346.447 354.092L346.439 354.413Z" fill="white"/>
<path d="M352.153 356.581L352.155 356.741L352.141 356.582L352.153 356.581Z" fill="white"/>
<path d="M329.295 348.003C329.3 348.027 329.31 348.05 329.324 348.07L329.325 348.081C329.317 348.128 329.311 348.185 329.303 348.232C329.29 348.073 329.264 347.902 329.25 347.743L329.296 347.739L329.295 348.003Z" fill="white"/>
<path d="M357.866 359.059C358.391 358.413 359.043 357.882 359.781 357.497C360.504 357.083 361.304 356.822 362.132 356.732C361.608 357.38 360.956 357.912 360.216 358.294C359.493 358.707 358.694 358.967 357.866 359.059Z" fill="black"/>
<path d="M369.955 341.351C373.13 339.622 376.403 338.079 379.758 336.729C383.093 335.333 386.507 334.134 389.983 333.138C386.808 334.869 383.535 336.412 380.18 337.76C376.844 339.154 373.43 340.353 369.955 341.351Z" fill="black"/>
<path d="M362.466 338.453C365.131 336.893 367.891 335.501 370.729 334.283C373.549 333.022 376.444 331.94 379.4 331.043C376.735 332.604 373.975 333.997 371.136 335.213C368.316 336.471 365.42 337.553 362.466 338.453Z" fill="black"/>
<path d="M369.881 338.492C372.177 337.199 374.564 336.073 377.024 335.126C379.466 334.136 381.978 333.326 384.539 332.705C382.244 334 379.857 335.125 377.397 336.071C374.953 337.059 372.442 337.868 369.881 338.492Z" fill="black"/>
<path d="M373.795 352.284C375.068 355.876 376.537 359.394 378.197 362.824L371.72 364.518L370.999 362.64L364.597 363.996L354.591 337.925L361.966 338.025L362.127 338.436C363.183 342.576 364.455 346.658 365.937 350.666C367.365 354.689 368.997 358.637 370.826 362.495C368.636 354.236 365.725 346.185 362.127 338.436L369.263 338.165L370.485 341.355C371.379 345.058 372.485 348.707 373.795 352.284Z" fill="black"/>
<path d="M386.181 365.924L379.963 367.424L378.197 362.824C377.294 359.122 376.186 355.473 374.875 351.895C373.615 348.3 372.149 344.781 370.485 341.355L376.821 341.393L386.181 365.924Z" fill="black"/>
<path d="M354.782 337.848C357.945 336.07 361.2 334.461 364.532 333.027C367.847 331.55 371.237 330.251 374.69 329.136C371.528 330.916 368.273 332.525 364.94 333.957C361.624 335.432 358.234 336.731 354.782 337.848Z" fill="black"/>
<path d="M386.183 365.926C388.248 364.864 390.339 363.857 392.416 362.821L398.691 359.806L398.503 360.249C397.76 358.286 397.074 356.302 396.357 354.329L394.227 348.403L390.118 336.498L390.595 336.722C386.019 338.315 381.443 339.908 376.825 341.388C381.302 339.525 385.821 337.776 390.34 336.027C390.43 335.992 390.53 335.994 390.618 336.033C390.707 336.072 390.776 336.145 390.811 336.235L390.813 336.242L390.817 336.252L395.08 348.102L397.136 354.054C397.815 356.041 398.524 358.017 399.177 360.012L399.181 360.026C399.208 360.109 399.203 360.199 399.167 360.278C399.132 360.357 399.068 360.421 398.988 360.456L392.606 363.236C390.465 364.132 388.337 365.057 386.183 365.926Z" fill="black"/>
<path d="M354.197 272.197V272.966L354.137 272.926H354.127L352.947 272.197H354.197Z" fill="white"/>
<path d="M343.361 309.361C347.222 309.361 347.228 303.361 343.361 303.361C339.5 303.361 339.494 309.361 343.361 309.361Z" fill="black"/>
<path d="M278.656 149.883C278.219 149.522 277.846 149.09 277.552 148.605C277.251 148.128 277.011 147.614 276.839 147.077C276.658 146.525 276.579 145.944 276.608 145.363C276.611 144.763 276.848 144.188 277.27 143.762C277.211 144.282 277.241 144.809 277.358 145.32C277.463 145.817 277.596 146.308 277.758 146.79C278.055 147.781 278.427 148.762 278.656 149.883Z" fill="black"/>
<path d="M287.78 132.558C288.308 132.3 288.875 132.132 289.458 132.061C290.038 131.977 290.626 131.967 291.208 132.031C291.804 132.092 292.385 132.255 292.926 132.512C293.485 132.757 293.95 133.179 294.248 133.713C293.243 133.307 292.18 133.062 291.098 132.987C290.028 132.849 288.94 132.796 287.78 132.558Z" fill="black"/>
<path d="M289.859 138.737C290.234 138.724 290.588 138.567 290.849 138.297C291.109 138.028 291.254 137.668 291.254 137.294C291.254 136.919 291.109 136.559 290.849 136.29C290.588 136.021 290.234 135.863 289.859 135.85C289.485 135.863 289.131 136.021 288.87 136.29C288.61 136.559 288.465 136.919 288.465 137.294C288.465 137.668 288.61 138.028 288.87 138.297C289.131 138.567 289.485 138.724 289.859 138.737Z" fill="black"/>
<path d="M291.014 150.332C290.585 150.431 290.137 150.417 289.714 150.291C289.284 150.173 288.883 149.967 288.536 149.686C288.181 149.385 287.911 148.996 287.755 148.558C287.601 148.126 287.61 147.653 287.78 147.227C287.97 147.57 288.185 147.9 288.422 148.213C288.644 148.48 288.889 148.726 289.155 148.949C289.695 149.406 290.318 149.789 291.014 150.332Z" fill="black"/>
<path d="M260.06 140.643C260.06 140.643 269.762 140.874 274.036 133.713C274.036 133.713 275.537 127.707 280.619 131.403C280.619 131.403 296.79 125.051 295.519 119.275C295.519 119.275 287.434 102.643 268.03 109.804C248.626 116.966 260.06 140.643 260.06 140.643Z" fill="black"/>
<path d="M274.036 133.713C274.053 134.515 274.072 135.282 274.136 136.031C274.181 136.756 274.328 137.471 274.574 138.155C274.803 138.798 275.215 139.361 275.76 139.773C276.387 140.184 277.082 140.478 277.813 140.644C276.999 140.851 276.14 140.772 275.378 140.42C274.586 140.018 273.977 139.33 273.675 138.495C273.392 137.706 273.294 136.861 273.388 136.028C273.453 135.222 273.673 134.436 274.036 133.713Z" fill="black"/>
<path d="M259.32 116.395C259.32 116.395 240.887 109.111 258.443 100.333C275.999 91.5553 273.758 108.293 273.758 108.293" fill="black"/>
<path d="M260.151 140.676C259.778 141.97 259.287 143.228 258.684 144.432C258.384 145.052 258.032 145.644 257.631 146.204C257.213 146.818 256.669 147.336 256.035 147.722L256.183 146.839L262.315 152.498C264.361 154.38 266.441 156.221 268.514 158.063C270.6 159.889 272.65 161.759 274.815 163.473C275.886 164.335 277.006 165.134 278.169 165.866C278.739 166.228 279.342 166.536 279.969 166.785C280.527 167.059 281.16 167.144 281.771 167.026L281.576 167.388C281.243 166.277 280.727 165.23 280.049 164.289C279.363 163.328 278.585 162.435 277.727 161.624C276.87 160.807 275.953 160.056 274.983 159.377L273.505 158.394L271.977 157.489C271.918 157.455 271.867 157.41 271.827 157.356C271.786 157.302 271.756 157.24 271.739 157.175C271.722 157.109 271.718 157.041 271.728 156.974C271.737 156.907 271.759 156.843 271.794 156.784C271.809 156.758 271.827 156.734 271.846 156.71C272.606 155.831 273.524 155.102 274.552 154.561C275.582 154.002 276.715 153.66 277.882 153.554C279.052 153.445 280.232 153.555 281.362 153.877C281.92 154.034 282.469 154.222 283.005 154.441C283.418 154.621 283.855 154.74 284.302 154.794C286.043 155.022 287.649 153.73 288.788 152.104C289.931 150.411 290.826 148.561 291.444 146.614L292.63 145.901L292.53 145.886C292.524 145.886 292.523 145.886 292.53 145.886L292.565 145.885L292.676 145.881L292.94 145.858L293.511 145.788L294.69 145.605L295.285 145.505L295.434 145.479C295.456 145.472 295.476 145.463 295.497 145.454C295.534 145.44 295.573 145.431 295.613 145.428C295.674 145.37 295.705 145.386 295.765 145.196C295.795 144.551 295.683 143.908 295.436 143.311C295.176 142.596 294.864 141.9 294.503 141.23L294.538 141.283C294.008 140.368 293.787 139.306 293.906 138.255C293.979 137.337 294.155 136.43 294.433 135.551C294.589 135.043 294.743 134.721 294.891 134.319C295.039 133.937 295.164 133.546 295.267 133.149C295.502 132.359 295.676 131.553 295.787 130.736C296.011 129.075 296.063 127.395 295.942 125.723C295.837 124.028 295.588 122.345 295.197 120.693C295.19 120.668 295.193 120.642 295.205 120.619C295.217 120.597 295.238 120.58 295.263 120.573C295.286 120.568 295.31 120.571 295.331 120.581C295.352 120.591 295.369 120.609 295.379 120.63C296.001 122.247 296.457 123.922 296.74 125.631C297.028 127.358 297.122 129.113 297.021 130.861C296.973 131.749 296.856 132.631 296.67 133.5C296.58 133.936 296.465 134.367 296.326 134.791C296.197 135.198 296.019 135.667 295.947 135.984C295.746 136.75 295.632 137.537 295.607 138.328C295.555 138.992 295.705 139.657 296.038 140.234L296.062 140.269L296.073 140.288C296.536 141.034 296.931 141.82 297.253 142.638C297.652 143.554 297.815 144.555 297.728 145.55C297.666 145.907 297.524 146.244 297.313 146.537C297.101 146.83 296.825 147.072 296.506 147.242C296.354 147.303 296.197 147.359 296.039 147.41L295.809 147.477L295.656 147.507L295.042 147.625C294.631 147.703 294.218 147.771 293.794 147.828L293.144 147.906L292.797 147.934L292.6 147.942L292.482 147.942L292.406 147.939C292.346 147.936 292.287 147.929 292.229 147.917L293.414 147.205C292.74 149.381 291.708 151.431 290.36 153.268C289.653 154.236 288.776 155.067 287.772 155.722C286.679 156.425 285.373 156.72 284.084 156.555C283.461 156.466 282.854 156.283 282.285 156.012C281.833 155.803 281.369 155.618 280.896 155.459C279.961 155.139 278.975 154.998 277.988 155.041C275.98 155.135 274.077 155.967 272.645 157.378L272.515 156.599L274.02 157.626L275.47 158.731C276.416 159.493 277.319 160.307 278.176 161.169C279.038 162.028 279.825 162.962 280.525 163.958C281.261 164.959 281.828 166.075 282.204 167.259C282.224 167.331 282.217 167.407 282.183 167.473C282.15 167.539 282.093 167.59 282.024 167.616L282.009 167.621C281.255 167.839 280.449 167.791 279.726 167.486C279.042 167.257 278.377 166.976 277.737 166.646C276.48 165.992 275.264 165.263 274.093 164.465C271.758 162.897 269.52 161.191 267.39 159.355C265.258 157.532 263.228 155.602 261.221 153.653C259.226 151.69 257.277 149.689 255.391 147.615L255.357 147.577C255.262 147.473 255.212 147.335 255.219 147.194C255.226 147.053 255.288 146.92 255.393 146.825C255.436 146.786 255.485 146.754 255.539 146.731C256.066 146.458 256.53 146.078 256.902 145.616C257.329 145.134 257.719 144.62 258.068 144.078C258.777 142.965 259.412 141.807 259.97 140.61C259.98 140.587 259.999 140.569 260.023 140.559C260.047 140.55 260.073 140.551 260.097 140.561C260.118 140.571 260.135 140.588 260.144 140.609C260.154 140.63 260.156 140.653 260.151 140.676Z" fill="black"/>
<path d="M255.833 147.311C253.91 148.686 252.23 150.372 250.861 152.298C249.462 154.2 248.242 156.226 247.215 158.352C245.152 162.603 243.603 167.085 242.599 171.702L242.184 173.423L241.877 175.168L241.27 178.659C240.984 181.005 240.681 183.35 240.448 185.701C240.315 188.063 240.121 190.421 240.038 192.785L239.974 199.886V199.895L239.97 199.972C239.157 209.792 238.361 219.628 237.655 229.464C236.915 239.3 236.227 249.143 235.77 258.999C235.577 263.927 235.379 268.857 235.277 273.788C235.223 276.254 235.198 278.721 235.178 281.186L235.193 288.585C235.298 298.446 235.692 308.308 236.569 318.114L235.635 317.583C238.037 316.43 240.524 315.468 243.076 314.705C245.635 313.914 248.268 313.388 250.935 313.137C253.668 312.833 256.435 313.113 259.053 313.957C260.389 314.424 261.634 315.117 262.735 316.006L263.53 316.717L264.248 317.505L265.536 318.876C269.127 322.357 274.095 324.272 279.108 325.032C281.623 325.433 284.176 325.54 286.716 325.353L288.593 325.134C289.201 325.007 289.829 324.924 290.421 324.764C291.558 324.506 292.638 324.041 293.607 323.392L293.245 324.298C292.312 316.606 291.419 308.912 290.566 301.217C289.718 293.518 288.987 285.806 288.255 278.096C287.53 270.383 286.914 262.661 286.405 254.929L286.057 249.127C285.947 247.193 285.895 245.255 285.811 243.32C285.669 239.447 285.62 235.568 285.721 231.694C285.721 231.681 285.724 231.669 285.729 231.657C285.734 231.646 285.742 231.635 285.751 231.626C285.76 231.618 285.771 231.611 285.782 231.606C285.794 231.602 285.807 231.6 285.819 231.6C285.845 231.601 285.868 231.612 285.886 231.631C285.903 231.649 285.913 231.673 285.913 231.698C286.004 239.434 286.783 247.141 287.445 254.846C288.176 262.549 289.017 270.241 289.837 277.935L292.491 300.999C293.373 308.687 294.294 316.37 295.252 324.048L295.264 324.145C295.283 324.301 295.258 324.46 295.192 324.603C295.126 324.747 295.021 324.868 294.89 324.955L293.925 325.588C293.608 325.772 293.277 325.93 292.935 326.061C292.285 326.338 291.613 326.564 290.927 326.736C290.254 326.919 289.578 327.013 288.903 327.153C288.227 327.245 287.549 327.305 286.872 327.379C284.174 327.554 281.465 327.415 278.799 326.966C276.125 326.547 273.515 325.787 271.033 324.705C268.523 323.604 266.229 322.065 264.26 320.159L262.869 318.648L262.27 317.976L261.604 317.371C260.667 316.601 259.605 315.999 258.464 315.59C256.082 314.789 253.558 314.5 251.057 314.74C245.918 315.241 240.898 316.597 236.206 318.752L236.171 318.767C236.077 318.808 235.973 318.826 235.871 318.819C235.768 318.812 235.668 318.781 235.58 318.727C235.492 318.673 235.418 318.599 235.364 318.511C235.311 318.423 235.279 318.323 235.272 318.22C234.626 308.343 234.518 298.461 234.508 288.587L234.553 281.181L234.685 273.777C234.734 268.84 234.879 263.905 235.018 258.971C235.26 249.1 235.634 239.232 236.143 229.368C236.706 219.507 237.359 209.655 238.339 199.818L238.336 199.903L238.475 192.728C238.583 190.338 238.803 187.951 238.963 185.564C239.232 183.185 239.533 180.806 239.9 178.44L240.605 174.913L240.962 173.152L241.427 171.414C242.55 166.742 244.253 162.229 246.497 157.98C247.626 155.86 248.947 153.85 250.445 151.973C251.913 150.064 253.706 148.429 255.741 147.142C255.763 147.129 255.788 147.126 255.812 147.131C255.836 147.137 255.857 147.152 255.871 147.173C255.884 147.194 255.889 147.219 255.884 147.244C255.879 147.268 255.865 147.29 255.844 147.304L255.833 147.311Z" fill="black"/>
<path d="M254.598 411.856C253.999 409.124 253.707 406.333 253.728 403.536C253.728 403.523 253.733 403.51 253.742 403.501C253.752 403.492 253.764 403.486 253.778 403.486C253.791 403.486 253.804 403.492 253.813 403.501C253.822 403.51 253.828 403.523 253.828 403.536C254.048 406.297 254.507 409.034 255.198 411.716C255.871 414.386 256.791 416.987 257.948 419.486C258.532 420.728 259.197 421.931 259.938 423.086C260.517 424.032 261.155 424.94 261.848 425.806C261.798 426.236 261.748 426.656 261.698 427.046C261.678 427.026 261.668 427.006 261.648 426.986C259.811 424.842 258.304 422.436 257.178 419.846C256.018 417.289 255.152 414.609 254.598 411.856Z" fill="black"/>
<path d="M275.188 436.886C275.215 438.027 274.924 439.152 274.348 440.136C273.755 441.113 272.865 441.874 271.807 442.306C269.678 443.016 267.392 443.117 265.207 442.596C263.035 442.176 260.909 441.546 258.858 440.716C256.797 439.916 254.787 439.006 252.808 438.016L252.777 437.996L252.758 437.986C251.452 437.084 250.093 436.263 248.688 435.526C247.289 434.778 245.843 434.123 244.358 433.566C241.47 432.352 238.307 431.948 235.208 432.396C235.137 432.411 235.064 432.411 234.992 432.398C234.921 432.384 234.853 432.356 234.793 432.316C234.733 432.276 234.681 432.225 234.64 432.165C234.6 432.105 234.572 432.037 234.558 431.966C234.545 431.91 234.541 431.853 234.548 431.796C234.788 429.526 234.988 427.246 235.178 424.976L235.748 418.136C236.088 413.576 236.418 409.016 236.678 404.446C236.678 404.433 236.684 404.421 236.693 404.412C236.702 404.403 236.715 404.397 236.728 404.396C236.734 404.396 236.741 404.397 236.747 404.399C236.754 404.402 236.759 404.405 236.764 404.41C236.769 404.415 236.772 404.42 236.775 404.427C236.777 404.433 236.778 404.44 236.778 404.446C236.828 406.736 236.888 409.026 236.838 411.326C236.808 413.616 236.748 415.906 236.638 418.196C236.528 420.486 236.428 422.776 236.238 425.056C236.078 427.106 235.908 429.156 235.708 431.206C237.129 431.032 238.567 431.07 239.978 431.316C241.596 431.592 243.181 432.035 244.708 432.636C246.227 433.222 247.704 433.914 249.128 434.706C250.553 435.491 251.929 436.362 253.248 437.316C257.034 439.456 261.085 441.086 265.298 442.166C267.397 442.723 269.613 442.661 271.678 441.986C272.68 441.603 273.523 440.891 274.068 439.966C274.585 439.063 274.848 438.037 274.828 436.996C272.678 435.466 270.498 433.976 268.318 432.476C268.908 432.646 269.488 432.836 270.058 433.046C271.738 434.296 273.418 435.536 275.118 436.746V436.756C275.14 436.77 275.158 436.789 275.17 436.812C275.183 436.835 275.189 436.86 275.188 436.886Z" fill="black"/>
<path d="M261.217 424.874C259.165 425.769 257.024 426.447 254.831 426.897C252.632 427.38 250.389 427.634 248.137 427.656C245.87 427.681 243.611 427.381 241.429 426.765C239.26 426.115 237.265 424.984 235.593 423.457C237.456 424.624 239.498 425.476 241.638 425.979C243.773 426.427 245.951 426.64 248.132 426.613C250.327 426.596 252.518 426.424 254.689 426.099C256.867 425.775 259.051 425.398 261.217 424.874Z" fill="black"/>
<path d="M258.695 404.954C260.764 409.091 262.009 413.591 262.363 418.203C262.543 420.509 262.543 422.826 262.361 425.133C262.19 427.449 261.794 429.743 261.179 431.983L260.671 431.425C262.305 431.136 263.979 431.152 265.607 431.474C267.205 431.787 268.771 432.248 270.284 432.852C273.273 434.084 276.114 435.649 278.754 437.516L278.732 437.503C280.72 438.421 282.655 439.463 284.72 440.192L286.248 440.785L287.814 441.256C288.336 441.409 288.854 441.581 289.38 441.713L290.976 442.023C293.076 442.361 295.331 442.564 297.221 441.726C298.15 441.338 298.93 440.662 299.445 439.798C299.944 438.926 300.194 437.935 300.168 436.931L300.376 437.304L293.627 432.545L293.663 432.568C291.257 431.058 289.097 429.187 287.258 427.022C285.454 424.847 283.964 422.43 282.831 419.841C281.7 417.273 280.845 414.593 280.278 411.845C279.697 409.114 279.397 406.329 279.385 403.537C279.385 403.523 279.391 403.51 279.401 403.5C279.41 403.49 279.423 403.484 279.437 403.484C279.451 403.485 279.464 403.491 279.473 403.5C279.483 403.51 279.489 403.523 279.49 403.536C279.692 406.297 280.145 409.035 280.841 411.715C281.527 414.381 282.46 416.979 283.627 419.473C284.806 421.942 286.297 424.25 288.063 426.34C289.838 428.406 291.918 430.188 294.232 431.625L294.268 431.648L300.959 436.489L300.985 436.508C301.041 436.549 301.086 436.602 301.118 436.663C301.15 436.725 301.167 436.793 301.167 436.862C301.194 438.066 300.881 439.252 300.264 440.286C299.634 441.31 298.685 442.1 297.563 442.535C295.39 443.249 293.053 443.3 290.849 442.683L289.226 442.3C288.694 442.144 288.175 441.949 287.65 441.778L286.079 441.246L284.558 440.595C282.507 439.781 280.562 438.749 278.583 437.79L278.566 437.78L278.561 437.777C277.257 436.853 275.891 436.019 274.473 435.28C273.066 434.524 271.604 433.877 270.098 433.345C268.602 432.821 267.06 432.435 265.493 432.193C263.949 431.966 262.378 431.998 260.844 432.288C260.771 432.302 260.695 432.298 260.624 432.275C260.553 432.252 260.489 432.212 260.438 432.157C260.386 432.103 260.35 432.036 260.332 431.964C260.313 431.891 260.314 431.816 260.333 431.743L260.336 431.73C260.883 429.537 261.259 427.305 261.463 425.054C261.678 422.795 261.715 420.523 261.574 418.258C261.34 413.702 260.334 409.218 258.6 404.998C258.595 404.986 258.595 404.972 258.6 404.959C258.605 404.947 258.614 404.937 258.626 404.931C258.639 404.925 258.653 404.925 258.665 404.929C258.678 404.933 258.689 404.942 258.695 404.954H258.695Z" fill="black"/>
<path d="M286.876 424.874C284.824 425.769 282.683 426.447 280.49 426.897C278.291 427.38 276.048 427.634 273.796 427.656C271.529 427.681 269.27 427.381 267.088 426.765C264.919 426.115 262.924 424.984 261.252 423.457C263.115 424.624 265.157 425.476 267.297 425.979C269.432 426.427 271.61 426.64 273.791 426.613C275.986 426.596 278.177 426.424 280.348 426.099C282.526 425.775 284.71 425.398 286.876 424.874Z" fill="black"/>
<path d="M307.497 452.106C301.847 451.836 297.357 451.736 293.637 451.566H293.617C285.417 451.197 280.947 450.496 275.987 446.936L275.967 450.046L257.857 450.427L256.947 450.447L256.997 450.197C254.599 449.519 252.343 448.415 250.337 446.936L250.307 450.046L231.297 449.907L235.097 431.856C243.027 430.266 253.007 437.657 253.007 437.657C255.197 438.786 257.177 439.716 258.957 440.416C258.284 441.901 257.784 443.458 257.467 445.056C257.106 446.647 256.935 448.275 256.957 449.907C257.632 448.423 258.132 446.865 258.447 445.266C258.799 443.674 258.97 442.047 258.957 440.416C258.967 440.427 258.987 440.427 258.997 440.436L260.757 431.856C263.608 431.418 266.525 431.732 269.217 432.766C272.575 433.952 275.752 435.598 278.657 437.656C279.637 438.166 280.577 438.626 281.477 439.046C283.667 439.836 286.177 440.776 288.527 441.806C301.267 445.526 300.667 436.906 300.667 436.906C300.667 436.906 322.997 443.636 323.357 448.216C323.357 448.216 325.637 452.976 307.497 452.106Z" fill="black"/>
<path d="M290.197 414.956C282.587 427.146 245.627 416.576 245.627 416.576C243.677 416.196 245.627 409.876 245.627 409.876C246.815 402.02 247.47 394.091 247.587 386.146C247.817 378.206 247.807 370.266 247.757 362.326C247.607 354.386 247.447 346.456 247.127 338.516C246.817 330.586 246.427 322.656 245.867 314.746L246.367 338.546C246.517 346.476 246.697 354.406 246.757 362.336C246.887 370.266 246.887 378.196 246.817 386.126L246.727 392.076C246.687 394.056 246.577 396.036 246.517 398.016C246.487 399.996 246.297 401.976 246.197 403.956C246.157 404.946 246.037 405.926 245.927 406.916L245.627 409.876C240.077 410.566 234.537 405.946 234.837 402.256C235.137 398.556 235.917 318.166 235.917 318.166C235.917 318.166 254.867 308.006 263.637 318.166C272.417 328.336 291.047 325.656 291.047 325.656C292.447 367.446 290.197 414.956 290.197 414.956Z" fill="black"/>
<path d="M281.89 167.324C283.172 169.175 284.191 171.196 284.919 173.327C285.704 175.442 286.152 177.668 286.247 179.922C285.832 178.867 285.488 177.816 285.115 176.773L284.012 173.647C283.288 171.558 282.527 169.488 281.89 167.324Z" fill="black"/>
<path d="M274.18 211.857C278.348 218.382 282.418 224.973 286.465 231.565L288.039 233.954L289.772 236.236C290.977 237.72 292.187 239.203 293.512 240.592C296.127 243.405 298.901 246.067 301.82 248.565C303.262 249.837 304.76 251.047 306.25 252.265C307.738 253.485 309.246 254.683 310.774 255.857C313.829 258.206 316.958 260.459 320.099 262.702C326.418 267.125 332.875 271.406 339.581 275.227C339.602 275.239 339.623 275.253 339.642 275.269C341.182 276.582 342.82 277.777 344.54 278.843C346.258 279.908 348.091 280.773 350.005 281.422C351.917 282.057 353.912 282.406 355.926 282.456C357.931 282.511 359.931 282.213 361.834 281.576C361.871 281.565 361.909 281.558 361.948 281.558H361.957L361.846 281.576C362.499 281.353 363.137 281.086 363.755 280.779C364.364 280.481 364.945 280.129 365.492 279.729L365.705 280.469C365.029 280.333 364.372 280.113 363.75 279.814C363.153 279.543 362.566 279.26 361.99 278.958C360.837 278.358 359.711 277.713 358.605 277.035C356.36 275.698 354.24 274.162 352.27 272.446C351.767 271.994 351.299 271.507 350.867 270.987C350.364 270.421 350 269.746 349.803 269.015C349.713 268.553 349.768 268.075 349.962 267.647C350.156 267.219 350.478 266.861 350.884 266.624C351.56 266.254 352.316 266.055 353.087 266.046C354.439 266.021 355.79 266.158 357.11 266.454C358.404 266.723 359.682 267.066 360.936 267.481L360.494 267.449L360.988 267.329L361.234 267.269L361.375 267.23L361.454 267.201C361.934 267.052 362.381 266.81 362.767 266.488C362.906 266.378 363.015 266.234 363.083 266.069C363.152 265.905 363.178 265.727 363.158 265.55C363.137 265.212 362.813 264.81 362.835 264.983C362.161 264.861 361.497 264.691 360.848 264.474C359.619 264.087 358.422 263.65 357.234 263.167C356.025 262.687 354.85 262.126 353.716 261.489L353.775 261.521L353.128 261.155C352.953 261.046 352.756 260.979 352.572 260.887C352.185 260.727 351.785 260.6 351.377 260.506C350.52 260.321 349.645 260.226 348.768 260.222C347.866 260.205 346.941 260.248 346.001 260.294C345.002 260.38 343.998 260.39 342.998 260.323C341.985 260.18 340.993 259.917 340.042 259.538C339.127 259.194 338.229 258.803 337.353 258.368C335.617 257.523 333.937 256.566 332.324 255.505C331.914 255.206 331.467 254.923 331.091 254.607L329.991 253.645C329.242 253.012 328.598 252.321 327.897 251.662C326.543 250.314 325.222 248.944 323.932 247.553C321.329 244.786 318.841 241.929 316.384 239.046C313.918 236.171 311.502 233.256 309.102 230.329C306.7 227.399 304.346 224.445 302.084 221.378L290.925 201.566C290.919 201.555 290.915 201.543 290.913 201.531C290.911 201.518 290.912 201.505 290.916 201.493C290.919 201.481 290.924 201.47 290.932 201.46C290.94 201.45 290.949 201.441 290.96 201.435C290.982 201.423 291.007 201.419 291.031 201.425C291.055 201.431 291.076 201.446 291.09 201.467L297.163 211.05C298.173 212.65 299.155 214.266 300.13 215.89C300.614 216.706 301.099 217.516 301.566 218.356C301.683 218.58 301.797 218.754 301.916 219.018C301.975 219.135 302.033 219.291 302.089 219.375L302.247 219.595C302.362 219.772 302.486 219.941 302.619 220.105L303.045 220.657C307.775 226.5 312.718 232.238 317.728 237.873C320.243 240.685 322.78 243.476 325.353 246.221C326.635 247.598 327.949 248.94 329.279 250.254C329.958 250.885 330.61 251.576 331.31 252.159L332.347 253.059C332.695 253.349 333.057 253.565 333.408 253.824C334.958 254.834 336.571 255.743 338.238 256.546C339.82 257.367 341.509 257.962 343.256 258.313C344.142 258.373 345.03 258.37 345.915 258.304C346.863 258.27 347.827 258.235 348.815 258.265C349.829 258.283 350.839 258.408 351.827 258.636C352.339 258.76 352.839 258.927 353.323 259.134C353.562 259.253 353.812 259.348 354.039 259.49L354.62 259.831L354.679 259.864C356.818 261.047 359.067 262.018 361.395 262.761C361.935 262.946 362.486 263.099 363.045 263.22L363.364 263.269C363.555 263.312 363.736 263.394 363.895 263.509C364.105 263.666 364.287 263.857 364.435 264.073C364.69 264.453 364.849 264.889 364.899 265.344C364.946 265.794 364.883 266.248 364.716 266.669C364.55 267.089 364.284 267.463 363.941 267.758C363.361 268.243 362.687 268.602 361.961 268.812L362.04 268.783C361.917 268.824 361.768 268.872 361.662 268.898L361.382 268.96L360.821 269.084C360.684 269.114 360.54 269.107 360.407 269.061L360.379 269.052C358.065 268.167 355.624 267.659 353.15 267.548C352.629 267.538 352.113 267.65 351.643 267.875C351.484 267.953 351.355 268.08 351.274 268.238C351.192 268.395 351.164 268.574 351.192 268.749C351.332 269.264 351.583 269.742 351.928 270.149C352.304 270.632 352.715 271.086 353.156 271.509C355.016 273.233 357.026 274.787 359.163 276.152C360.231 276.848 361.321 277.514 362.433 278.132C362.988 278.444 363.552 278.735 364.119 279.011C364.651 279.284 365.211 279.496 365.79 279.644L365.844 279.654C365.922 279.669 365.994 279.707 366.05 279.763C366.107 279.818 366.147 279.889 366.163 279.967C366.18 280.044 366.174 280.125 366.146 280.199C366.117 280.273 366.067 280.337 366.003 280.384C365.399 280.804 364.759 281.169 364.089 281.473C363.433 281.775 362.758 282.037 362.07 282.257C362.033 282.268 361.996 282.275 361.958 282.275H361.948L362.061 282.257C360.076 282.899 357.994 283.188 355.909 283.11C353.835 283.038 351.783 282.658 349.82 281.984C347.867 281.313 345.987 280.445 344.21 279.394C342.443 278.333 340.76 277.14 339.173 275.824L339.234 275.866C332.422 272.145 325.77 268.158 319.278 263.904C316.023 261.789 312.875 259.511 309.764 257.184C306.642 254.87 303.628 252.413 300.723 249.813C297.794 247.238 295.014 244.499 292.397 241.608C289.726 238.739 287.38 235.582 285.404 232.196C281.54 225.484 277.744 218.737 274.015 211.955C274.003 211.933 274 211.908 274.006 211.884C274.013 211.86 274.029 211.839 274.05 211.826C274.072 211.813 274.097 211.81 274.122 211.815C274.146 211.821 274.167 211.836 274.18 211.857L274.18 211.857Z" fill="black"/>
<path d="M253.858 174.201C255.128 172.127 256.686 170.244 258.485 168.608C260.303 166.924 262.417 165.592 264.719 164.678C267.086 163.754 269.653 163.464 272.167 163.835C274.66 164.243 277.034 165.19 279.125 166.609L279.137 166.617C279.225 166.675 279.3 166.75 279.358 166.837C280.963 169.236 282.382 171.705 283.751 174.216C285.129 176.719 286.399 179.276 287.66 181.832C288.921 184.389 290.157 186.956 291.337 189.551C292.532 192.139 293.637 194.77 294.705 197.422C294.732 197.489 294.743 197.562 294.736 197.633C294.729 197.705 294.705 197.774 294.665 197.834L294.655 197.85C293.207 200.013 291.536 202.019 289.67 203.834C287.807 205.652 285.77 207.284 283.589 208.706C279.199 211.577 274.288 213.558 269.134 214.536C268.92 214.579 268.698 214.552 268.501 214.456C268.305 214.361 268.145 214.204 268.047 214.009L268.035 213.983C265.397 208.727 262.903 203.403 260.469 198.048C259.227 195.382 258.076 192.673 256.92 189.966C256.338 188.615 255.782 187.251 255.252 185.875C254.68 184.507 254.21 183.099 253.844 181.662C253.839 181.638 253.843 181.614 253.855 181.593C253.867 181.573 253.887 181.558 253.91 181.551C253.933 181.544 253.957 181.546 253.979 181.557C254 181.567 254.017 181.586 254.025 181.608L254.034 181.63C255.074 184.329 256.564 186.905 257.851 189.532L261.884 197.364C264.565 202.588 267.269 207.804 269.873 213.064L268.774 212.512C271.218 212.054 273.619 211.387 275.949 210.52C278.288 209.651 280.533 208.546 282.648 207.224C284.794 205.93 286.816 204.44 288.686 202.773C290.593 201.143 292.322 199.315 293.842 197.32L293.791 197.747C292.894 195.064 291.942 192.388 290.782 189.798C289.641 187.202 288.41 184.641 287.025 182.164C285.656 179.678 284.172 177.257 282.654 174.864C281.128 172.481 279.54 170.119 277.953 167.811L278.187 168.039C276.284 166.776 274.149 165.905 271.907 165.474C269.659 165.097 267.353 165.284 265.196 166.019C262.99 166.773 260.929 167.898 259.101 169.344C257.216 170.79 255.51 172.456 254.019 174.307L254.016 174.311C254 174.33 253.978 174.342 253.954 174.346C253.93 174.349 253.906 174.343 253.886 174.329C253.866 174.315 253.852 174.294 253.847 174.271C253.842 174.247 253.846 174.222 253.858 174.201L253.858 174.201Z" fill="black"/>
<path d="M456.796 300.959C456.666 300.959 456.541 300.908 456.448 300.818C456.355 300.727 456.301 300.604 456.297 300.474L456.253 298.974C456.249 298.842 456.298 298.713 456.389 298.616C456.48 298.52 456.606 298.463 456.738 298.459C456.87 298.459 456.997 298.509 457.093 298.599C457.189 298.689 457.246 298.813 457.253 298.945L457.297 300.445C457.3 300.577 457.252 300.706 457.16 300.803C457.069 300.899 456.944 300.956 456.811 300.959H456.796Z" fill="white"/>
<path d="M460.269 420.059C460.139 420.059 460.014 420.008 459.921 419.918C459.827 419.827 459.773 419.704 459.769 419.574L459.682 416.596C459.678 416.464 459.727 416.335 459.818 416.238C459.909 416.142 460.035 416.085 460.168 416.082C460.297 416.087 460.421 416.139 460.515 416.228C460.61 416.318 460.669 416.438 460.682 416.567L460.769 419.544C460.773 419.677 460.724 419.806 460.633 419.902C460.542 419.999 460.417 420.055 460.284 420.059H460.269ZM460.095 414.104C459.965 414.104 459.841 414.053 459.747 413.963C459.654 413.872 459.6 413.749 459.596 413.619L459.509 410.641C459.505 410.509 459.554 410.38 459.645 410.283C459.736 410.187 459.862 410.13 459.994 410.126C460.126 410.127 460.252 410.177 460.348 410.267C460.444 410.357 460.501 410.481 460.509 410.612L460.596 413.589C460.6 413.722 460.551 413.851 460.46 413.947C460.369 414.044 460.243 414.1 460.111 414.104H460.095ZM459.922 408.149C459.792 408.149 459.667 408.098 459.573 408.008C459.48 407.917 459.426 407.794 459.422 407.664L459.335 404.686C459.331 404.553 459.38 404.425 459.471 404.328C459.562 404.232 459.688 404.175 459.821 404.171C459.951 404.175 460.076 404.226 460.17 404.316C460.265 404.405 460.324 404.527 460.335 404.657L460.422 407.634C460.426 407.767 460.377 407.896 460.286 407.992C460.195 408.089 460.069 408.145 459.937 408.149H459.922ZM459.748 402.194C459.618 402.194 459.493 402.143 459.4 402.052C459.307 401.962 459.252 401.838 459.248 401.708L459.162 398.731C459.158 398.598 459.207 398.47 459.298 398.373C459.389 398.277 459.515 398.22 459.647 398.216C459.778 398.217 459.904 398.268 460 398.358C460.095 398.448 460.153 398.571 460.162 398.702L460.248 401.679C460.252 401.812 460.203 401.941 460.112 402.037C460.021 402.134 459.896 402.19 459.763 402.194H459.748ZM459.574 396.239C459.444 396.238 459.32 396.188 459.227 396.097C459.133 396.007 459.079 395.883 459.075 395.753L458.988 392.776C458.984 392.643 459.033 392.515 459.124 392.418C459.215 392.322 459.341 392.265 459.473 392.261C459.605 392.262 459.73 392.313 459.826 392.403C459.921 392.493 459.979 392.616 459.988 392.747L460.075 395.724C460.079 395.857 460.03 395.985 459.939 396.082C459.848 396.178 459.722 396.235 459.59 396.239H459.574ZM459.401 390.284C459.271 390.283 459.146 390.233 459.053 390.142C458.959 390.052 458.905 389.928 458.901 389.798L458.814 386.822C458.81 386.689 458.859 386.56 458.95 386.464C459.041 386.367 459.167 386.311 459.3 386.307C459.43 386.312 459.554 386.364 459.648 386.453C459.743 386.542 459.802 386.663 459.814 386.792L459.901 389.769C459.905 389.902 459.856 390.03 459.765 390.127C459.674 390.223 459.548 390.28 459.416 390.284H459.401ZM459.227 384.33C459.097 384.329 458.972 384.279 458.879 384.188C458.786 384.098 458.732 383.974 458.728 383.844L458.641 380.867C458.637 380.734 458.686 380.605 458.777 380.509C458.868 380.412 458.994 380.356 459.126 380.352C459.255 380.36 459.377 380.413 459.472 380.501C459.566 380.59 459.626 380.709 459.641 380.837L459.728 383.815C459.732 383.948 459.683 384.076 459.592 384.173C459.501 384.269 459.375 384.326 459.242 384.33H459.227ZM459.053 378.375C458.923 378.374 458.799 378.324 458.705 378.233C458.612 378.142 458.558 378.019 458.554 377.889L458.467 374.912C458.463 374.779 458.512 374.65 458.603 374.554C458.694 374.457 458.82 374.401 458.952 374.397C459.083 374.399 459.209 374.45 459.304 374.54C459.399 374.63 459.457 374.752 459.467 374.882L459.554 377.86C459.558 377.992 459.509 378.121 459.418 378.218C459.327 378.314 459.201 378.371 459.069 378.375H459.053ZM458.88 372.419C458.75 372.419 458.625 372.368 458.532 372.278C458.438 372.187 458.384 372.064 458.38 371.934L458.294 368.957C458.29 368.824 458.339 368.695 458.43 368.599C458.521 368.502 458.646 368.446 458.779 368.442C458.911 368.439 459.039 368.489 459.135 368.58C459.232 368.67 459.288 368.795 459.294 368.927L459.38 371.905C459.384 372.037 459.335 372.166 459.244 372.263C459.153 372.359 459.027 372.416 458.895 372.419H458.88ZM458.706 366.464C458.576 366.464 458.452 366.413 458.358 366.323C458.265 366.232 458.211 366.109 458.207 365.979L458.12 363.001C458.116 362.869 458.165 362.74 458.256 362.644C458.347 362.547 458.473 362.491 458.605 362.487C458.737 362.487 458.863 362.537 458.959 362.627C459.055 362.718 459.112 362.841 459.12 362.972L459.207 365.95C459.211 366.082 459.162 366.211 459.071 366.308C458.98 366.404 458.854 366.46 458.721 366.464H458.706ZM458.532 360.509C458.402 360.509 458.278 360.458 458.185 360.368C458.091 360.277 458.037 360.154 458.033 360.024L457.946 357.046C457.942 356.914 457.991 356.785 458.082 356.689C458.173 356.592 458.299 356.536 458.431 356.532C458.562 356.535 458.687 356.586 458.782 356.676C458.877 356.765 458.935 356.887 458.946 357.017L459.033 359.995C459.037 360.127 458.988 360.256 458.897 360.352C458.806 360.449 458.68 360.505 458.548 360.509H458.532ZM458.359 354.554C458.229 354.554 458.104 354.503 458.011 354.413C457.918 354.322 457.864 354.199 457.86 354.069L457.773 351.091C457.769 350.959 457.818 350.83 457.909 350.733C458 350.637 458.125 350.581 458.258 350.577C458.387 350.583 458.51 350.636 458.605 350.725C458.699 350.814 458.758 350.933 458.773 351.062L458.86 354.04C458.863 354.172 458.814 354.301 458.723 354.397C458.632 354.494 458.507 354.55 458.374 354.554H458.359ZM458.185 348.599C458.055 348.599 457.931 348.548 457.837 348.457C457.744 348.367 457.69 348.244 457.686 348.114L457.599 345.136C457.595 345.004 457.644 344.875 457.735 344.778C457.826 344.682 457.952 344.625 458.084 344.622C458.215 344.623 458.341 344.673 458.437 344.763C458.532 344.853 458.59 344.976 458.599 345.107L458.686 348.084C458.69 348.217 458.641 348.346 458.55 348.442C458.459 348.539 458.333 348.595 458.2 348.599H458.185ZM458.011 342.644C457.881 342.644 457.757 342.593 457.664 342.502C457.57 342.412 457.516 342.289 457.512 342.159L457.426 339.181C457.422 339.049 457.471 338.92 457.562 338.823C457.653 338.727 457.778 338.67 457.911 338.667C458.043 338.665 458.17 338.715 458.266 338.806C458.362 338.896 458.419 339.02 458.426 339.152L458.512 342.129C458.516 342.262 458.467 342.391 458.376 342.487C458.285 342.584 458.159 342.64 458.027 342.644H458.011ZM457.838 336.689C457.708 336.689 457.583 336.638 457.49 336.548C457.397 336.457 457.342 336.334 457.339 336.204L457.252 333.226C457.248 333.093 457.297 332.965 457.388 332.868C457.479 332.772 457.604 332.715 457.737 332.711C457.866 332.719 457.988 332.772 458.082 332.861C458.176 332.95 458.236 333.068 458.252 333.197L458.339 336.174C458.342 336.307 458.294 336.436 458.202 336.532C458.111 336.629 457.986 336.685 457.853 336.689H457.838ZM457.664 330.735C457.534 330.735 457.41 330.684 457.316 330.593C457.223 330.503 457.169 330.379 457.165 330.25L457.078 327.272C457.074 327.139 457.123 327.011 457.214 326.914C457.305 326.818 457.431 326.761 457.563 326.757C457.695 326.755 457.823 326.805 457.919 326.895C458.015 326.986 458.072 327.111 458.078 327.243L458.165 330.22C458.169 330.353 458.12 330.482 458.029 330.578C457.938 330.675 457.812 330.731 457.679 330.735H457.664ZM457.491 324.78C457.361 324.78 457.236 324.729 457.143 324.638C457.05 324.548 456.995 324.424 456.991 324.294L456.905 321.317C456.901 321.184 456.95 321.056 457.041 320.959C457.132 320.863 457.257 320.806 457.39 320.802C457.521 320.803 457.647 320.854 457.742 320.944C457.838 321.034 457.896 321.157 457.905 321.288L457.991 324.265C457.995 324.398 457.946 324.526 457.855 324.623C457.764 324.719 457.639 324.776 457.506 324.78H457.491ZM457.317 318.825C457.187 318.824 457.062 318.774 456.969 318.683C456.876 318.593 456.822 318.469 456.818 318.339L456.731 315.362C456.727 315.229 456.776 315.101 456.867 315.004C456.958 314.907 457.083 314.851 457.216 314.847C457.346 314.852 457.47 314.903 457.565 314.993C457.66 315.082 457.719 315.203 457.731 315.333L457.818 318.31C457.821 318.443 457.773 318.571 457.681 318.668C457.59 318.764 457.465 318.821 457.332 318.825H457.317ZM457.143 312.87C457.013 312.869 456.889 312.819 456.795 312.728C456.702 312.637 456.648 312.514 456.644 312.384L456.557 309.407C456.553 309.274 456.602 309.145 456.693 309.049C456.784 308.952 456.91 308.896 457.043 308.892C457.175 308.888 457.304 308.937 457.401 309.028C457.497 309.119 457.553 309.245 457.557 309.377L457.644 312.355C457.648 312.488 457.599 312.616 457.508 312.713C457.417 312.809 457.291 312.866 457.158 312.87H457.143ZM456.97 306.915C456.84 306.914 456.715 306.864 456.622 306.773C456.529 306.683 456.474 306.559 456.47 306.429L456.384 303.452C456.38 303.319 456.429 303.19 456.52 303.094C456.611 302.997 456.736 302.941 456.869 302.937C457 302.939 457.125 302.99 457.22 303.08C457.315 303.17 457.374 303.292 457.384 303.422L457.47 306.4C457.474 306.533 457.425 306.661 457.334 306.758C457.243 306.854 457.118 306.911 456.985 306.915H456.97Z" fill="white"/>
<path d="M458.923 424.801C458.798 424.801 458.678 424.754 458.586 424.67C458.494 424.586 458.436 424.47 458.425 424.345C458.414 424.221 458.45 424.097 458.526 423.998C458.602 423.898 458.712 423.831 458.835 423.809L459.888 423.62L459.856 422.551C459.853 422.419 459.902 422.29 459.993 422.194C460.084 422.097 460.209 422.041 460.342 422.037C460.472 422.039 460.598 422.09 460.693 422.18C460.788 422.27 460.846 422.392 460.856 422.522L460.9 424.021C460.904 424.141 460.864 424.258 460.788 424.351C460.713 424.444 460.606 424.506 460.489 424.528L459.012 424.793C458.983 424.798 458.953 424.801 458.923 424.801Z" fill="white"/>
<path d="M417.662 432.24C417.537 432.24 417.417 432.193 417.325 432.109C417.233 432.024 417.176 431.908 417.165 431.784C417.153 431.66 417.189 431.536 417.265 431.436C417.341 431.337 417.451 431.27 417.574 431.248L420.521 430.716C420.652 430.693 420.786 430.722 420.895 430.798C421.004 430.873 421.079 430.989 421.102 431.12C421.126 431.25 421.096 431.385 421.021 431.494C420.945 431.603 420.829 431.677 420.699 431.701L417.752 432.232C417.722 432.237 417.692 432.24 417.662 432.24ZM423.557 431.177C423.432 431.177 423.312 431.13 423.219 431.046C423.127 430.962 423.07 430.846 423.059 430.722C423.048 430.597 423.084 430.473 423.16 430.374C423.235 430.275 423.345 430.207 423.468 430.185L426.416 429.654C426.546 429.63 426.681 429.66 426.79 429.735C426.899 429.811 426.973 429.927 426.997 430.057C427.02 430.188 426.991 430.322 426.915 430.431C426.84 430.54 426.724 430.615 426.593 430.638L423.646 431.169C423.617 431.174 423.587 431.177 423.557 431.177ZM429.451 430.115C429.326 430.115 429.206 430.068 429.114 429.984C429.022 429.899 428.965 429.783 428.954 429.659C428.943 429.535 428.978 429.411 429.054 429.311C429.13 429.212 429.24 429.145 429.363 429.123L432.31 428.591C432.44 428.568 432.575 428.597 432.684 428.673C432.793 428.748 432.867 428.864 432.891 428.995C432.914 429.125 432.885 429.26 432.809 429.369C432.734 429.478 432.618 429.552 432.487 429.576L429.541 430.107C429.511 430.112 429.481 430.115 429.451 430.115ZM435.345 429.052C435.22 429.052 435.1 429.005 435.008 428.921C434.916 428.837 434.859 428.721 434.848 428.597C434.837 428.472 434.872 428.348 434.948 428.249C435.024 428.15 435.134 428.082 435.257 428.06L438.204 427.529C438.335 427.505 438.469 427.535 438.578 427.61C438.687 427.686 438.762 427.802 438.785 427.932C438.809 428.063 438.78 428.197 438.704 428.306C438.628 428.415 438.512 428.49 438.382 428.513L435.435 429.044C435.405 429.049 435.375 429.052 435.345 429.052H435.345ZM441.24 427.99C441.115 427.99 440.995 427.943 440.903 427.859C440.81 427.774 440.753 427.658 440.742 427.534C440.731 427.41 440.767 427.286 440.843 427.186C440.918 427.087 441.029 427.02 441.151 426.998L444.099 426.466C444.229 426.443 444.364 426.472 444.473 426.548C444.582 426.623 444.656 426.739 444.68 426.87C444.703 427 444.674 427.135 444.598 427.244C444.523 427.353 444.407 427.427 444.276 427.451L441.329 427.982C441.3 427.987 441.27 427.99 441.24 427.99H441.24ZM447.134 426.927C447.009 426.927 446.889 426.88 446.797 426.796C446.705 426.712 446.648 426.596 446.637 426.472C446.626 426.347 446.661 426.223 446.737 426.124C446.813 426.025 446.923 425.957 447.046 425.935L449.993 425.404C450.057 425.392 450.124 425.393 450.188 425.407C450.252 425.421 450.313 425.448 450.367 425.485C450.421 425.523 450.467 425.57 450.502 425.626C450.538 425.681 450.562 425.743 450.574 425.807C450.585 425.872 450.584 425.938 450.57 426.002C450.556 426.066 450.53 426.127 450.492 426.181C450.455 426.235 450.407 426.281 450.352 426.317C450.297 426.352 450.235 426.377 450.17 426.388L447.224 426.919C447.194 426.924 447.164 426.927 447.134 426.927H447.134ZM453.028 425.865C452.903 425.865 452.783 425.818 452.691 425.734C452.599 425.649 452.542 425.533 452.531 425.409C452.52 425.285 452.555 425.161 452.631 425.061C452.707 424.962 452.817 424.895 452.94 424.873L455.887 424.341C455.952 424.33 456.018 424.331 456.082 424.345C456.147 424.359 456.207 424.385 456.261 424.423C456.315 424.46 456.361 424.508 456.397 424.563C456.432 424.618 456.457 424.68 456.468 424.745C456.48 424.809 456.479 424.876 456.465 424.94C456.451 425.004 456.424 425.065 456.387 425.119C456.349 425.173 456.302 425.219 456.247 425.254C456.191 425.29 456.13 425.314 456.065 425.326L453.118 425.857C453.088 425.862 453.058 425.865 453.028 425.865H453.028Z" fill="white"/>
<path d="M413.239 433.038C413.115 433.037 412.994 432.991 412.902 432.906C412.81 432.822 412.753 432.706 412.742 432.582C412.731 432.457 412.767 432.333 412.842 432.234C412.918 432.135 413.028 432.067 413.151 432.045L414.627 431.779C414.758 431.755 414.892 431.784 415.001 431.86C415.11 431.936 415.185 432.051 415.208 432.182C415.232 432.313 415.202 432.447 415.127 432.556C415.051 432.665 414.935 432.74 414.805 432.763L413.329 433.03C413.299 433.035 413.269 433.037 413.239 433.038Z" fill="white"/>
</svg>
