<svg width="700" height="550" viewBox="0 0 700 550" fill="none" xmlns="http://www.w3.org/2000/svg">
<path d="M457.834 122.471C459.229 121.562 460.499 117.932 459.078 115.199C457.212 111.611 455.059 115.343 455.059 115.343C455.059 115.343 448.935 118.596 447.978 108.453C447.022 98.3106 441.28 98.6934 441.28 98.6934C441.28 98.6934 434.965 97.4016 434.535 106.013C433.556 108.852 432.882 111.787 432.525 114.769L433.053 104.578C435.303 92.9522 440.993 95.9663 440.993 95.9663C440.993 95.9663 445.821 92.9746 453.51 93.6833C457.606 94.0559 461.421 95.928 464.221 98.9404C467.022 101.953 468.611 105.893 468.685 110.006C468.788 115.689 467.246 121.28 464.245 126.108C464.245 126.108 476.013 133.297 463.957 138.895C463.957 138.895 460.333 136.374 457.834 122.471" fill="black"/>
<path d="M459.69 119.51C459.491 120.616 458.936 121.628 458.11 122.39C458.09 122.4 458.07 122.41 458.05 122.39C458.031 122.389 458.014 122.382 458 122.37C457.987 122.354 457.981 122.333 457.983 122.313C457.985 122.292 457.994 122.273 458.01 122.26H458.02C458.779 121.501 459.276 120.52 459.44 119.46C459.646 118.412 459.605 117.33 459.32 116.3C459.164 115.798 458.939 115.319 458.65 114.88C458.407 114.445 458.022 114.106 457.56 113.92C456.65 113.69 455.8 114.65 455.3 115.48V115.5C455.271 115.538 455.233 115.569 455.19 115.59C454.191 116.1 453.051 116.262 451.95 116.05C451.399 115.924 450.879 115.691 450.419 115.363C449.959 115.035 449.568 114.619 449.27 114.14C448.224 112.266 447.612 110.182 447.48 108.04C447.301 106.03 446.716 104.077 445.76 102.3C445.29 101.451 444.642 100.714 443.86 100.14C443.119 99.6024 442.235 99.2963 441.32 99.2599H441.18L441.17 99.2499C440.326 99.1388 439.468 99.2349 438.67 99.5299C437.882 99.8337 437.193 100.349 436.68 101.02C436.17 101.726 435.794 102.519 435.57 103.36C435.48 103.8 435.39 104.24 435.31 104.68L435.19 106.05V106.06C435.181 106.121 435.168 106.181 435.15 106.24C434.234 108.982 433.601 111.81 433.26 114.68C433.016 117.546 433.126 120.431 433.59 123.27C433.942 126.081 434.849 128.793 436.26 131.25C436.946 132.379 437.947 133.283 439.14 133.85C440.327 134.321 441.632 134.405 442.87 134.09L443.83 133.68C443.934 133.633 444.046 133.609 444.16 133.61C444.317 133.612 444.471 133.659 444.602 133.746C444.734 133.833 444.837 133.956 444.9 134.1C444.918 134.135 444.931 134.172 444.94 134.21C445.53 136.36 446.05 138.5 446.43 140.71C446.632 141.842 446.736 142.99 446.74 144.14C446.738 144.459 446.708 144.777 446.65 145.09C446.589 145.511 446.416 145.908 446.15 146.24C445.843 146.541 445.459 146.752 445.04 146.85C444.751 146.935 444.457 147.006 444.16 147.06C442.046 147.363 439.977 147.923 438 148.73C436.067 149.555 434.296 150.716 432.77 152.16C432.381 152.511 432.013 152.885 431.67 153.28C431.303 153.66 430.962 154.064 430.65 154.49C429.977 155.308 429.377 156.185 428.86 157.11C427.805 158.958 427.002 160.939 426.47 163L423.48 175.79L423.46 175.84L423.45 175.87C422.59 178.74 421.882 181.654 421.33 184.6C420.75 187.56 420.23 190.54 419.79 193.54C419.33 196.53 418.95 199.53 418.58 202.54C418.23 205.55 417.92 208.56 417.62 211.58V211.59C417.617 211.617 417.61 211.644 417.6 211.67L413.93 223.35C412.61 229.33 411.46 235.34 410.39 241.37C409.31 247.39 408.38 253.44 407.74 259.52L406.81 268.66C406.618 270.165 406.534 271.682 406.56 273.2C406.604 274.705 406.795 276.202 407.13 277.67C407.387 278.749 407.7 279.814 408.07 280.86C408.2 281.24 408.33 281.63 408.46 282.01C408.49 282.11 408.53 282.2 408.57 282.3C409.03 283.64 409.53 284.97 410.07 286.28C410.636 287.675 411.301 289.029 412.06 290.33C412.418 290.958 412.844 291.544 413.33 292.08C413.79 292.59 414.38 292.95 414.77 292.86C414.786 292.853 414.803 292.849 414.82 292.85H414.86C415.01 292.84 415.3 292.49 415.27 291.9C415.237 291.282 415.116 290.673 414.91 290.09C414.53 288.84 413.87 287.69 413.36 286.33C412.841 284.989 412.514 283.582 412.39 282.15C412.348 281.691 412.332 281.23 412.34 280.77C412.35 280.51 412.36 280.25 412.38 279.99C412.39 279.88 412.4 279.76 412.42 279.65C412.477 278.97 412.675 278.31 413 277.71C413.248 277.275 413.636 276.937 414.1 276.75C414.567 276.584 415.073 276.567 415.55 276.7C415.997 276.828 416.403 277.069 416.73 277.4C416.889 277.56 417.03 277.738 417.15 277.93L417.29 278.16L417.43 278.4C417.52 278.56 417.6 278.71 417.69 278.87C418.27 279.988 418.71 281.174 419 282.4C419.161 283.11 419.259 283.833 419.29 284.56C419.31 284.94 419.34 285.19 419.37 285.51C419.423 285.811 419.497 286.109 419.59 286.4C419.767 287 420.033 287.57 420.38 288.09C420.686 288.599 421.094 289.038 421.58 289.38C421.766 289.517 421.982 289.609 422.21 289.65C422.31 289.67 422.36 289.62 422.45 289.64C422.51 289.57 422.58 289.59 422.65 289.51C422.71 289.41 422.8 289.38 422.85 289.26L423.03 288.91C423.13 288.626 423.21 288.335 423.27 288.04C423.545 286.805 423.497 285.52 423.13 284.31C423.08 284.17 423.02 284.03 422.96 283.89L422.76 283.39C422.63 283.06 422.5 282.73 422.39 282.38C422.173 281.691 422.013 280.985 421.91 280.27C421.813 279.551 421.797 278.823 421.86 278.1C421.87 277.86 421.88 277.63 421.9 277.41C421.92 277.17 421.94 276.94 421.96 276.72C421.98 276.49 422 276.26 422.02 276.04C422.531 270.658 421.259 265.258 418.4 260.67L418.39 260.66C418.321 260.546 418.3 260.41 418.33 260.28C419.62 255.75 420.87 251.21 422.19 246.7L426.11 233.13C426.118 233.111 426.133 233.096 426.151 233.087C426.169 233.078 426.19 233.075 426.21 233.08C426.23 233.084 426.247 233.096 426.258 233.113C426.269 233.13 426.274 233.15 426.27 233.17L422.79 246.86C421.67 251.36 420.48 255.82 419.31 260.31C422.328 265.006 423.713 270.567 423.25 276.13C423.248 276.197 423.242 276.264 423.23 276.33C423.22 276.54 423.2 276.75 423.17 276.97C423.168 277.04 423.162 277.111 423.15 277.18C423.12 277.53 423.12 277.84 423.1 278.17C423.045 278.813 423.065 279.461 423.16 280.1C423.255 280.742 423.406 281.374 423.61 281.99C423.71 282.3 423.82 282.61 423.95 282.91L424.14 283.37C424.22 283.542 424.29 283.719 424.35 283.9C424.806 285.319 424.882 286.832 424.57 288.29C424.473 289.123 424.108 289.902 423.53 290.51C423.335 290.683 423.112 290.822 422.87 290.92C422.615 290.982 422.352 291.006 422.09 290.99C421.637 290.941 421.204 290.78 420.83 290.52C420.187 290.076 419.642 289.504 419.23 288.84C418.813 288.217 418.489 287.537 418.27 286.82C418.151 286.464 418.058 286.099 417.99 285.73C417.94 285.37 417.91 284.93 417.89 284.63C417.856 283.986 417.763 283.346 417.61 282.72C417.323 281.547 416.89 280.415 416.32 279.35C416.283 279.26 416.239 279.173 416.19 279.09L415.95 278.68L415.89 278.59C415.845 278.52 415.792 278.456 415.73 278.4C415.577 278.237 415.384 278.116 415.17 278.05C414.983 277.998 414.785 278.001 414.6 278.06C414.423 278.134 414.278 278.269 414.19 278.44C414.058 278.682 413.96 278.941 413.9 279.21C413.81 279.55 413.754 279.899 413.73 280.25C413.702 280.846 413.708 281.444 413.75 282.04C413.863 283.346 414.152 284.631 414.61 285.86C415.05 287.07 415.75 288.32 416.16 289.7C416.408 290.414 416.536 291.164 416.54 291.92C416.543 292.369 416.436 292.811 416.23 293.21C416.103 293.441 415.924 293.639 415.707 293.788C415.49 293.937 415.241 294.034 414.98 294.07L414.88 294.08C414.386 294.124 413.89 294.004 413.47 293.74C413.095 293.505 412.756 293.219 412.46 292.89C411.933 292.277 411.467 291.614 411.07 290.91C410.321 289.542 409.662 288.125 409.1 286.67C408.58 285.35 408.11 284.01 407.68 282.67C407.64 282.55 407.6 282.44 407.56 282.32C407.43 281.92 407.31 281.52 407.18 281.12C406.85 280.05 406.52 278.97 406.29 277.85C405.977 276.323 405.813 274.769 405.8 273.21C405.811 271.664 405.928 270.12 406.15 268.59L407.17 259.46C407.87 253.37 408.86 247.32 409.87 241.28C410.91 235.24 412.05 229.22 413.23 223.2L413.24 223.18V223.17L416.71 211.45C416.96 208.44 417.233 205.43 417.53 202.42C417.85 199.4 418.19 196.38 418.6 193.37C419 190.35 419.47 187.35 420.01 184.35C420.513 181.349 421.194 178.38 422.05 175.46L424.96 162.6C425.516 160.407 426.357 158.295 427.46 156.32C428.015 155.326 428.65 154.38 429.36 153.49C429.698 153.033 430.062 152.596 430.45 152.18C430.823 151.748 431.221 151.337 431.64 150.95C433.297 149.361 435.224 148.081 437.33 147.17C439.421 146.324 441.607 145.736 443.84 145.42C444.08 145.36 444.37 145.32 444.56 145.25C444.676 145.219 444.79 145.179 444.9 145.13C444.953 145.018 444.993 144.901 445.02 144.78C445.057 144.552 445.077 144.321 445.08 144.09C445.075 143.047 444.977 142.006 444.79 140.98C444.49 139.17 444.07 137.35 443.6 135.56L443.47 135.61C443.426 135.632 443.379 135.649 443.33 135.66C441.727 136.074 440.034 135.962 438.5 135.34C437.018 134.645 435.772 133.528 434.92 132.13C433.372 129.485 432.398 126.545 432.06 123.5C431.616 120.52 431.542 117.498 431.84 114.5C432.228 111.564 432.915 108.676 433.89 105.88L434.03 104.5C434.12 104.01 434.23 103.51 434.34 103.02C434.618 102.018 435.083 101.079 435.71 100.25C436.369 99.408 437.253 98.77 438.26 98.4098C439.262 98.0516 440.34 97.9553 441.39 98.1298C442.504 98.2386 443.571 98.6325 444.489 99.2736C445.407 99.9147 446.144 100.781 446.63 101.79C447.619 103.7 448.205 105.794 448.35 107.94C448.423 109.958 448.949 111.933 449.89 113.72C450.129 114.133 450.447 114.495 450.826 114.785C451.206 115.075 451.638 115.287 452.1 115.41C453.034 115.621 454.012 115.516 454.88 115.11C455.171 114.653 455.536 114.248 455.96 113.91C456.193 113.703 456.474 113.555 456.777 113.48C457.08 113.405 457.397 113.405 457.7 113.48C458.256 113.707 458.714 114.126 458.99 114.66C459.291 115.137 459.52 115.656 459.67 116.2C459.941 117.286 459.948 118.421 459.69 119.51Z" fill="black"/>
<path d="M434.678 116.97C434.988 116.959 435.282 116.828 435.497 116.605C435.713 116.382 435.833 116.084 435.833 115.773C435.833 115.463 435.713 115.165 435.497 114.942C435.282 114.719 434.988 114.588 434.678 114.577C434.368 114.588 434.074 114.719 433.859 114.942C433.643 115.165 433.523 115.463 433.523 115.773C433.523 116.084 433.643 116.382 433.859 116.605C434.074 116.828 434.368 116.959 434.678 116.97Z" fill="black"/>
<path d="M444.151 116.826C444.461 116.815 444.755 116.685 444.97 116.461C445.186 116.238 445.306 115.94 445.306 115.63C445.306 115.32 445.186 115.022 444.97 114.798C444.755 114.575 444.461 114.445 444.151 114.434C443.841 114.445 443.547 114.575 443.332 114.798C443.116 115.022 442.996 115.32 442.996 115.63C442.996 115.94 443.116 116.238 443.332 116.461C443.547 116.685 443.841 116.815 444.151 116.826Z" fill="black"/>
<path d="M480.007 145.557C482.382 145.836 484.724 146.346 487 147.081C489.269 147.884 491.418 148.989 493.391 150.367C494.411 151.028 495.365 151.785 496.241 152.628C496.656 153.081 497.018 153.578 497.405 154.054L498.37 155.605C499.498 157.739 500.396 159.986 501.051 162.31C501.731 164.609 502.287 166.943 502.718 169.301C503.167 171.652 503.527 174.016 503.798 176.393C504.39 181.15 504.555 185.907 505.179 190.594C505.743 195.305 506.609 199.947 507.515 204.624C507.967 206.953 508.375 209.319 508.862 211.618L509.229 213.341C509.368 213.939 509.488 214.538 509.595 215.131C509.803 216.319 509.972 217.505 510.128 218.691C511.246 228.189 511.615 237.715 511.833 247.235L511.831 247.208C512.269 251.427 512.965 255.636 513.792 259.805C514.595 263.98 515.651 268.102 516.955 272.148C517.646 274.149 518.517 276.084 519.556 277.928C520.57 279.787 521.852 281.488 522.812 283.448C523.756 285.444 524.074 287.678 523.724 289.858C523.585 290.977 523.171 292.045 522.519 292.964C522.165 293.455 521.682 293.836 521.123 294.066C520.811 294.189 520.471 294.224 520.141 294.168C519.81 294.112 519.501 293.967 519.247 293.749L519.878 293.55C519.738 294.131 519.544 294.699 519.301 295.245C519.058 295.81 518.73 296.335 518.327 296.801C517.889 297.33 517.261 297.667 516.577 297.739C515.904 297.737 515.248 297.523 514.703 297.127L515.358 296.957C514.801 298.17 514.073 299.298 513.198 300.305C512.935 300.592 512.617 300.822 512.263 300.983C512.023 301.087 511.756 301.11 511.502 301.05C511.248 300.99 511.02 300.849 510.853 300.648C510.43 300.043 510.171 299.338 510.101 298.603C509.979 297.925 509.956 297.234 510.031 296.549L510.288 294.642C510.359 294.015 510.416 293.387 510.442 292.767C510.484 292.186 510.451 291.602 510.343 291.03L511.424 291.084C510.933 292.361 510.398 293.598 509.793 294.824C509.211 296.108 508.445 297.301 507.519 298.365C507.215 298.694 506.832 298.939 506.406 299.079C506.11 299.166 505.793 299.15 505.508 299.034C505.252 298.926 505.029 298.755 504.858 298.536C504.351 297.863 504.108 297.026 504.176 296.186C504.207 295.817 504.269 295.452 504.36 295.093L504.555 294.125C504.676 293.476 504.781 292.825 504.875 292.172C505.266 289.578 505.351 286.946 505.131 284.332C504.995 283.054 504.73 281.794 504.339 280.57C503.928 279.392 503.324 278.29 502.552 277.31L503.829 277.164L502.131 280.525L501.283 282.205C501.128 282.504 501.029 282.724 500.829 283.086C500.565 283.539 500.135 283.871 499.63 284.012C499.128 284.15 498.593 284.094 498.131 283.853C497.898 283.734 497.691 283.568 497.524 283.366C497.381 283.192 497.263 282.999 497.174 282.792C496.884 282.188 496.641 281.562 496.448 280.921C496.063 279.633 495.884 278.292 495.918 276.947C496.081 274.389 496.433 271.847 496.972 269.341C497.242 268.068 497.611 266.819 498.077 265.604C498.521 264.217 499.4 263.011 500.584 262.163L500.166 263.016C499.33 257.636 498.4 252.253 497.32 246.916C496.777 244.248 496.205 241.585 495.532 238.959C495.199 237.647 494.855 236.336 494.446 235.058C494.055 233.783 493.555 232.562 493.057 231.239C491.256 226.051 489.721 220.774 488.458 215.43C487.813 212.766 487.224 210.088 486.731 207.387C486.182 204.677 485.849 201.927 485.737 199.164L485.746 199.257L483.215 185.856C482.819 183.617 482.344 181.394 481.893 179.167L480.53 172.485C480.526 172.465 480.53 172.443 480.541 172.426C480.552 172.408 480.57 172.396 480.591 172.391C480.611 172.387 480.633 172.39 480.65 172.402C480.668 172.413 480.681 172.43 480.685 172.451L482.262 179.087C482.784 181.3 483.331 183.509 483.799 185.734L486.664 199.072C486.668 199.092 486.671 199.113 486.672 199.134L486.673 199.164C486.847 201.86 487.232 204.538 487.827 207.173C488.384 209.835 489.001 212.486 489.679 215.126C491.002 220.402 492.592 225.607 494.443 230.722L495.192 232.609C495.437 233.266 495.71 233.922 495.907 234.584C496.348 235.904 496.716 237.232 497.073 238.563C497.77 241.227 498.349 243.908 498.905 246.592C500.008 251.964 500.955 257.35 501.812 262.766C501.837 262.926 501.815 263.091 501.747 263.238C501.68 263.386 501.57 263.51 501.432 263.596L501.393 263.619C500.562 264.294 499.949 265.201 499.634 266.224C499.206 267.356 498.867 268.52 498.619 269.704C498.111 272.11 497.762 274.546 497.573 276.997C497.535 278.167 497.682 279.335 498.009 280.46C498.174 281.021 498.382 281.57 498.631 282.099C498.661 282.183 498.704 282.261 498.758 282.332C498.789 282.374 498.83 282.408 498.878 282.432C498.978 282.484 499.095 282.498 499.206 282.47C499.259 282.456 499.309 282.432 499.352 282.398C499.396 282.365 499.432 282.323 499.459 282.276L499.871 281.485L500.732 279.811L502.455 276.464L502.465 276.444C502.557 276.265 502.716 276.13 502.908 276.069C503.099 276.008 503.308 276.025 503.486 276.117C503.581 276.166 503.665 276.235 503.732 276.318C504.619 277.45 505.308 278.723 505.771 280.084C506.189 281.418 506.468 282.792 506.604 284.184C506.825 286.919 506.71 289.671 506.263 292.379C506.155 293.051 506.035 293.722 505.899 294.389L505.681 295.388C505.601 295.677 505.543 295.973 505.51 296.272C505.457 296.78 505.585 297.291 505.871 297.714C506.02 297.873 505.978 297.838 506.079 297.834C506.288 297.751 506.476 297.623 506.628 297.459C507.47 296.502 508.173 295.432 508.718 294.28C509.319 293.112 509.869 291.893 510.361 290.676L510.373 290.644C510.418 290.533 510.497 290.439 510.599 290.376C510.701 290.313 510.82 290.285 510.939 290.294C511.059 290.304 511.172 290.351 511.262 290.43C511.353 290.508 511.416 290.613 511.442 290.73C511.574 291.418 511.61 292.122 511.548 292.82C511.509 293.48 511.44 294.129 511.356 294.774C511.275 295.408 511.16 296.082 511.068 296.674C510.993 297.265 511.004 297.864 511.103 298.451C511.144 298.998 511.311 299.528 511.589 300C511.727 300.121 511.719 300.138 511.914 300.082C512.143 299.973 512.35 299.822 512.523 299.637C513.341 298.714 514.026 297.683 514.56 296.572C514.615 296.465 514.711 296.384 514.826 296.348C514.941 296.311 515.066 296.322 515.173 296.378L515.201 296.393L515.215 296.402C515.595 296.69 516.052 296.857 516.529 296.882C516.994 296.832 517.421 296.601 517.719 296.24C518.402 295.406 518.885 294.427 519.13 293.377L519.134 293.361C519.147 293.313 519.17 293.267 519.201 293.227C519.232 293.188 519.27 293.154 519.314 293.129C519.357 293.104 519.405 293.088 519.455 293.082C519.505 293.075 519.556 293.079 519.604 293.092C519.663 293.108 519.716 293.137 519.761 293.178C519.911 293.31 520.094 293.398 520.291 293.431C520.487 293.465 520.689 293.444 520.874 293.369C521.305 293.193 521.68 292.902 521.956 292.527C522.552 291.708 522.937 290.755 523.077 289.752C523.451 287.7 523.176 285.583 522.29 283.695C521.388 281.815 520.104 280.077 519.087 278.189C518.045 276.312 517.175 274.344 516.486 272.31C515.183 268.241 514.098 264.104 513.238 259.918C512.368 255.736 511.656 251.526 511.102 247.286L511.1 247.27L511.1 247.258C510.682 237.763 510.086 228.254 508.818 218.865C508.656 217.694 508.481 216.525 508.272 215.371C508.163 214.794 508.046 214.228 507.912 213.667L507.523 211.903C507.008 209.55 506.593 207.229 506.123 204.89C505.176 200.234 504.393 195.496 503.847 190.754C503.256 185.998 503.129 181.225 502.582 176.532C502.119 171.825 501.292 167.161 500.109 162.581C498.839 158.111 497.139 153.398 493.014 150.902C491.124 149.491 489.052 148.341 486.854 147.484C484.621 146.688 482.32 146.095 479.981 145.714C479.96 145.71 479.942 145.699 479.93 145.682C479.918 145.664 479.913 145.643 479.917 145.623C479.92 145.602 479.931 145.584 479.948 145.572C479.965 145.559 479.986 145.554 480.007 145.557L480.007 145.557Z" fill="black"/>
<path d="M452.619 129.552C453.895 128.754 454.993 127.703 455.846 126.463C456.705 125.257 457.28 123.873 457.528 122.413C457.541 122.341 457.578 122.276 457.635 122.229C457.691 122.182 457.762 122.156 457.836 122.156C457.909 122.157 457.98 122.183 458.036 122.231C458.092 122.278 458.129 122.344 458.141 122.417L458.144 122.434C458.488 124.569 458.972 126.68 459.591 128.752C460.2 130.824 460.965 132.847 461.88 134.803C462.797 136.75 463.98 138.561 465.393 140.184C466.827 141.813 468.656 143.045 470.704 143.762C468.542 143.253 466.572 142.131 465.032 140.53C463.476 138.95 462.192 137.123 461.232 135.123C460.243 133.153 459.448 131.09 458.858 128.966C458.248 126.851 457.802 124.693 457.525 122.509L458.14 122.53C457.811 124.042 457.142 125.459 456.186 126.675C455.23 127.892 454.01 128.875 452.619 129.552Z" fill="black"/>
<path d="M500.643 272.767L505.11 278.19C505.185 278.281 505.242 278.385 505.276 278.498C505.311 278.611 505.323 278.729 505.312 278.847C505.301 278.964 505.266 279.078 505.211 279.182C505.156 279.286 505.08 279.378 504.99 279.453C504.899 279.528 504.794 279.584 504.681 279.619C504.568 279.653 504.45 279.665 504.332 279.653C504.215 279.642 504.101 279.607 503.997 279.552C503.893 279.496 503.801 279.421 503.727 279.33C503.679 279.271 503.638 279.206 503.606 279.138L500.643 272.767Z" fill="black"/>
<path d="M510.499 290.812C510.761 289.615 510.98 288.391 511.141 287.167C511.324 285.942 511.385 284.701 511.323 283.464C511.518 284.698 511.59 285.949 511.538 287.198C511.508 288.45 511.421 289.693 511.285 290.947C511.274 291.052 511.221 291.149 511.139 291.215C511.056 291.282 510.951 291.313 510.845 291.301C510.74 291.29 510.643 291.237 510.577 291.154C510.511 291.072 510.48 290.966 510.491 290.861C510.493 290.847 510.495 290.833 510.498 290.819L510.499 290.812Z" fill="black"/>
<path d="M514.569 296.681C515.087 294.51 515.554 292.315 515.937 290.112C516.124 289.009 516.3 287.903 516.406 286.79C516.581 285.684 516.545 284.556 516.299 283.464C516.611 284.548 516.715 285.681 516.605 286.803C516.564 287.929 516.454 289.049 516.332 290.168C516.078 292.405 515.742 294.626 515.349 296.848C515.33 296.952 515.271 297.044 515.185 297.105C515.098 297.166 514.991 297.189 514.887 297.171C514.782 297.153 514.69 297.094 514.629 297.007C514.569 296.92 514.545 296.813 514.563 296.709L514.569 296.681Z" fill="black"/>
<path d="M519.12 293.355C519.361 292.526 519.544 291.682 519.669 290.828C519.802 289.966 519.885 289.096 519.917 288.224C519.993 286.467 519.854 284.708 519.504 282.985C519.986 284.692 520.259 286.452 520.316 288.225C520.35 289.115 520.333 290.007 520.263 290.896C520.2 291.795 520.075 292.689 519.888 293.571C519.865 293.675 519.802 293.765 519.713 293.822C519.624 293.879 519.516 293.898 519.412 293.876C519.309 293.853 519.219 293.79 519.162 293.701C519.105 293.612 519.085 293.504 519.108 293.4L519.115 293.372L519.12 293.355Z" fill="black"/>
<path d="M413.801 277.797C415.191 280.189 416.3 282.702 417.443 285.163C417.584 285.469 417.725 285.778 417.875 286.059C417.906 286.122 417.941 286.183 417.98 286.243L418.126 286.485C418.23 286.666 418.309 286.861 418.362 287.064C418.552 287.771 418.627 288.505 418.585 289.237C418.585 289.989 418.357 290.723 417.933 291.344C417.689 291.655 417.335 291.86 416.944 291.917C416.761 291.924 416.578 291.914 416.397 291.887L415.902 291.706L416.413 291.737C416.573 291.723 416.731 291.697 416.887 291.658C417.169 291.552 417.398 291.341 417.527 291.069C417.777 290.492 417.873 289.859 417.805 289.233C417.772 288.593 417.656 287.961 417.46 287.351C417.419 287.224 417.365 287.101 417.3 286.985C417.294 286.95 417.079 286.66 417.02 286.532C416.841 286.212 416.689 285.901 416.538 285.586C415.391 283.079 414.475 280.471 413.801 277.797Z" fill="black"/>
<path d="M440.645 147.011C439.86 149.197 439.076 151.38 438.357 153.583C437.601 155.77 436.89 157.97 436.244 160.183C435.579 162.392 435.167 164.663 434.416 166.814C433.68 168.982 432.92 171.105 432.07 173.338C432.065 173.353 432.056 173.367 432.045 173.379C432.034 173.391 432.021 173.401 432.006 173.408C431.992 173.415 431.976 173.419 431.959 173.42C431.943 173.421 431.927 173.418 431.912 173.413C431.892 173.405 431.874 173.393 431.86 173.376C431.846 173.36 431.836 173.341 431.832 173.32C431.467 170.949 431.56 168.53 432.106 166.195C432.662 163.908 433.443 161.682 434.438 159.55C435.322 157.383 436.264 155.247 437.248 153.135C438.271 151.038 439.291 148.946 440.428 146.91C440.443 146.882 440.469 146.862 440.5 146.853C440.531 146.845 440.563 146.849 440.591 146.864C440.616 146.878 440.635 146.901 440.645 146.927C440.655 146.954 440.655 146.984 440.645 147.011Z" fill="black"/>
<path d="M428.004 197.737C423.467 189.308 422.526 180.609 430.803 173.329C432.637 173.469 434.438 173.888 436.145 174.573C424.719 189.189 427.494 196.644 428.004 197.737Z" fill="black"/>
<path d="M482.788 214.439C480.012 214.827 475.077 215.483 469.237 216.109C471.972 204.068 474.284 191.972 476.078 181.279C478.184 183.599 480.687 185.329 483.375 185.122L480.148 202.359C480.096 202.567 480.088 202.784 480.125 202.995C480.161 203.206 480.242 203.408 480.361 203.586L483.848 212.063C483.993 212.279 484.081 212.528 484.103 212.787C484.126 213.046 484.082 213.307 483.976 213.544C483.87 213.782 483.705 213.988 483.498 214.145C483.29 214.301 483.046 214.402 482.788 214.439Z" fill="black"/>
<path d="M485.201 225.398C485.182 225.398 485.162 225.396 485.144 225.394C482.988 225.086 482.124 217.007 481.911 214.538C481.902 214.433 481.935 214.328 482.003 214.247C482.071 214.167 482.168 214.116 482.273 214.107C482.378 214.099 482.482 214.133 482.562 214.201C482.643 214.269 482.694 214.365 482.705 214.47C483.117 219.228 484.209 224.455 485.257 224.605C485.357 224.619 485.447 224.67 485.511 224.749C485.574 224.827 485.605 224.927 485.598 225.027C485.591 225.128 485.546 225.222 485.472 225.291C485.398 225.359 485.301 225.398 485.201 225.398V225.398Z" fill="black"/>
<path d="M482.72 288.17C481.66 290.13 480.54 292.06 479.41 293.97C477.92 296.43 476.41 298.87 474.8 301.26C473.2 303.65 471.54 306 469.7 308.25C470.82 305.57 472.11 303 473.46 300.46C474.8 297.91 476.23 295.42 477.69 292.95C479.19 290.49 480.7 288.05 482.31 285.66C482.318 285.642 482.328 285.625 482.34 285.61C485.592 280.865 488.101 275.652 489.78 270.15C497.39 244.69 488.08 225 488.08 225C481.013 226.061 473.877 226.599 466.73 226.61C456.97 265.54 442.99 299.34 428.37 276.82L418.2 310.26C408.9 334.37 407.99 404.99 407.99 404.99C427.26 405.09 447.89 415.04 478.31 414.46C487.31 414.29 495.62 409.88 502.87 403.76C499.66 399.99 496.523 396.177 493.46 392.32C488.52 386.15 483.697 379.89 478.99 373.54C474.31 367.17 469.71 360.74 465.38 354.12C463.2 350.81 461.11 347.45 459.14 344.01C458.16 342.29 457.23 340.54 456.35 338.76C455.438 336.999 454.717 335.145 454.2 333.23C455.761 336.844 457.695 340.286 459.97 343.5C462.13 346.79 464.39 350.02 466.67 353.24C471.24 359.65 475.883 366.02 480.6 372.35L494.69 391.37C497.63 395.32 500.547 399.29 503.44 403.28C520.41 388.63 531.42 364.8 531.42 364.8C511.18 353.36 486.24 296.37 482.72 288.17ZM413.24 401.74C412.852 401.726 412.484 401.561 412.214 401.282C411.945 401.002 411.794 400.629 411.794 400.24C411.794 399.851 411.945 399.478 412.214 399.198C412.484 398.918 412.852 398.754 413.24 398.74C413.628 398.754 413.996 398.918 414.266 399.198C414.536 399.478 414.686 399.851 414.686 400.24C414.686 400.629 414.536 401.002 414.266 401.282C413.996 401.561 413.628 401.726 413.24 401.74ZM421.4 402.7C421.012 402.686 420.644 402.521 420.374 402.242C420.104 401.962 419.954 401.589 419.954 401.2C419.954 400.811 420.104 400.438 420.374 400.158C420.644 399.878 421.012 399.714 421.4 399.7C421.788 399.714 422.156 399.878 422.426 400.158C422.696 400.438 422.846 400.811 422.846 401.2C422.846 401.589 422.696 401.962 422.426 402.242C422.156 402.521 421.788 402.686 421.4 402.7ZM431.48 404.86C431.092 404.846 430.724 404.682 430.454 404.402C430.184 404.122 430.034 403.749 430.034 403.36C430.034 402.971 430.184 402.598 430.454 402.318C430.724 402.038 431.092 401.874 431.48 401.86C431.868 401.874 432.236 402.039 432.506 402.318C432.775 402.598 432.926 402.971 432.926 403.36C432.926 403.749 432.775 404.122 432.506 404.402C432.236 404.682 431.868 404.846 431.48 404.86V404.86ZM496.52 401.86C496.908 401.874 497.276 402.038 497.546 402.318C497.815 402.598 497.966 402.971 497.966 403.36C497.966 403.749 497.815 404.122 497.546 404.402C497.276 404.682 496.908 404.846 496.52 404.86C496.132 404.846 495.764 404.682 495.494 404.402C495.224 404.122 495.074 403.749 495.074 403.36C495.074 402.971 495.224 402.598 495.494 402.318C495.764 402.038 496.132 401.874 496.52 401.86V401.86ZM487.88 405.94C488.268 405.954 488.636 406.118 488.906 406.398C489.176 406.678 489.326 407.051 489.326 407.44C489.326 407.829 489.176 408.202 488.906 408.482C488.636 408.761 488.268 408.926 487.88 408.94C487.492 408.926 487.124 408.761 486.854 408.482C486.584 408.202 486.434 407.829 486.434 407.44C486.434 407.051 486.584 406.678 486.854 406.398C487.124 406.118 487.492 405.954 487.88 405.94ZM478.76 408.1C479.148 408.114 479.516 408.278 479.786 408.558C480.055 408.838 480.206 409.211 480.206 409.6C480.206 409.988 480.055 410.362 479.786 410.642C479.516 410.921 479.148 411.086 478.76 411.1C478.372 411.086 478.004 410.922 477.734 410.642C477.464 410.362 477.313 409.988 477.313 409.6C477.313 409.211 477.464 408.838 477.734 408.558C478.004 408.278 478.372 408.114 478.76 408.1V408.1ZM467.24 408.1C467.628 408.114 467.996 408.278 468.266 408.558C468.536 408.838 468.686 409.211 468.686 409.6C468.686 409.988 468.536 410.362 468.266 410.642C467.996 410.921 467.628 411.086 467.24 411.1C466.852 411.086 466.484 410.922 466.214 410.642C465.944 410.362 465.793 409.988 465.793 409.6C465.793 409.211 465.944 408.838 466.214 408.558C466.484 408.278 466.852 408.114 467.24 408.1V408.1ZM443.72 407.26C443.332 407.246 442.964 407.081 442.694 406.802C442.424 406.522 442.274 406.149 442.274 405.76C442.274 405.371 442.424 404.998 442.694 404.718C442.964 404.438 443.332 404.274 443.72 404.26C444.108 404.274 444.476 404.438 444.746 404.718C445.016 404.998 445.166 405.371 445.166 405.76C445.166 406.149 445.016 406.522 444.746 406.802C444.476 407.081 444.108 407.246 443.72 407.26ZM455.24 406.66C455.628 406.674 455.996 406.838 456.266 407.118C456.536 407.398 456.686 407.771 456.686 408.16C456.686 408.548 456.536 408.922 456.266 409.202C455.996 409.481 455.628 409.646 455.24 409.66C454.852 409.646 454.484 409.481 454.215 409.201C453.945 408.922 453.794 408.548 453.794 408.16C453.794 407.771 453.945 407.398 454.215 407.118C454.484 406.838 454.852 406.674 455.24 406.66V406.66ZM505.4 396.7C505.012 396.686 504.644 396.521 504.374 396.242C504.104 395.962 503.954 395.588 503.954 395.2C503.954 394.811 504.104 394.438 504.374 394.158C504.644 393.878 505.012 393.714 505.4 393.7C505.789 393.714 506.157 393.878 506.427 394.158C506.697 394.437 506.848 394.811 506.848 395.2C506.848 395.589 506.697 395.962 506.427 396.242C506.157 396.522 505.789 396.686 505.4 396.7V396.7ZM512.84 388.54C512.452 388.526 512.084 388.361 511.814 388.082C511.544 387.802 511.394 387.428 511.394 387.04C511.394 386.651 511.544 386.278 511.814 385.998C512.084 385.718 512.452 385.554 512.84 385.54C513.229 385.554 513.596 385.718 513.866 385.998C514.136 386.277 514.287 386.651 514.287 387.04C514.287 387.429 514.136 387.802 513.867 388.082C513.597 388.362 513.229 388.526 512.84 388.54L512.84 388.54ZM517.64 380.86C517.252 380.846 516.884 380.682 516.614 380.402C516.344 380.122 516.194 379.749 516.194 379.36C516.194 378.971 516.344 378.598 516.614 378.318C516.884 378.038 517.252 377.874 517.64 377.86C518.029 377.874 518.396 378.038 518.666 378.318C518.936 378.598 519.087 378.971 519.087 379.36C519.087 379.749 518.936 380.122 518.667 380.402C518.397 380.682 518.029 380.846 517.64 380.86L517.64 380.86ZM523.4 370.54C523.012 370.526 522.644 370.361 522.374 370.082C522.104 369.802 521.954 369.428 521.954 369.04C521.954 368.651 522.104 368.278 522.374 367.998C522.644 367.718 523.012 367.554 523.4 367.54C523.789 367.554 524.156 367.718 524.426 367.998C524.696 368.277 524.847 368.651 524.847 369.04C524.847 369.429 524.696 369.802 524.427 370.082C524.157 370.362 523.789 370.526 523.4 370.54L523.4 370.54Z" fill="black"/>
<path d="M436.687 118.931C436.584 119.337 436.494 119.716 436.424 120.065C436.348 120.357 436.355 120.665 436.445 120.954C436.573 121.205 436.788 121.401 437.05 121.506L438.123 121.945C437.924 122.013 437.721 122.067 437.516 122.108C437.302 122.128 437.087 122.126 436.873 122.103C436.622 122.072 436.384 121.978 436.179 121.829C435.975 121.681 435.813 121.482 435.707 121.253C435.627 121.024 435.598 120.781 435.621 120.539C435.645 120.298 435.719 120.065 435.841 119.855C436.036 119.477 436.328 119.158 436.687 118.931Z" fill="black"/>
<path d="M433.053 111.487C433.592 110.977 434.31 110.7 435.052 110.716C435.421 110.702 435.788 110.764 436.133 110.896C436.477 111.028 436.791 111.229 437.055 111.487C436.306 111.534 435.699 111.495 435.058 111.513C434.419 111.507 433.795 111.536 433.053 111.487Z" fill="black"/>
<path d="M442.142 111.487C442.386 111.209 442.687 110.986 443.023 110.831C443.36 110.677 443.725 110.595 444.095 110.591C444.472 110.578 444.847 110.647 445.195 110.793C445.545 110.934 445.845 111.176 446.058 111.487C445.415 111.405 444.767 111.372 444.119 111.388C443.499 111.399 442.884 111.473 442.142 111.487Z" fill="black"/>
<path d="M436.244 125.103C436.549 125.789 436.996 126.402 437.556 126.902C437.811 127.112 438.112 127.259 438.435 127.33C438.757 127.401 439.092 127.394 439.412 127.309C440.113 127.128 440.776 126.824 441.371 126.41C442.01 126.006 442.621 125.539 443.29 125.103C442.859 125.773 442.338 126.381 441.742 126.91C441.436 127.178 441.106 127.42 440.757 127.63C440.573 127.731 440.382 127.819 440.186 127.895C439.993 127.991 439.787 128.057 439.574 128.09C439.136 128.194 438.679 128.183 438.246 128.059C438.026 128.002 437.818 127.906 437.632 127.775C437.442 127.662 437.272 127.518 437.128 127.35C436.584 126.725 436.271 125.931 436.244 125.103Z" fill="black"/>
<path d="M437.07 199.355C436.306 199.879 435.436 200.227 434.522 200.375C434.056 200.452 433.584 200.479 433.113 200.456C432.643 200.408 432.177 200.319 431.722 200.188C429.927 199.635 428.415 198.41 427.501 196.769C428.163 197.359 428.873 197.892 429.624 198.362C430.35 198.817 431.133 199.174 431.952 199.425C432.762 199.685 433.613 199.798 434.462 199.758C435.344 199.719 436.218 199.584 437.07 199.355Z" fill="black"/>
<path d="M452.347 198.094C453.14 198.489 453.966 198.815 454.815 199.07C455.636 199.317 456.485 199.454 457.342 199.478C458.192 199.514 459.041 199.398 459.85 199.135C460.69 198.863 461.497 198.502 462.259 198.057C461.661 198.765 460.914 199.332 460.072 199.716C459.643 199.913 459.195 200.064 458.734 200.166C458.268 200.244 457.795 200.281 457.322 200.275C455.445 200.215 453.663 199.434 452.347 198.094Z" fill="black"/>
<path d="M528.547 420.583C528.547 420.583 533.331 448.523 546.344 399.914C546.344 399.914 550.172 385.753 548.449 380.586C552.125 380.765 555.706 381.812 558.9 383.641C562.093 385.471 564.808 388.031 566.821 391.111C566.821 391.111 560.314 409.866 558.209 406.804C556.104 403.742 554.19 400.25 552.085 404.58C552.085 404.58 542.708 455.221 526.25 443.165C526.25 443.165 524.831 442.739 526.514 435.289C527.317 431.684 527.881 428.03 528.204 424.35L528.547 420.583Z" fill="black"/>
<path d="M519.249 385.371C521.452 387.654 523.351 390.213 524.9 392.982C526.46 395.76 527.697 398.707 528.585 401.767C529.007 403.304 529.342 404.864 529.589 406.439C529.697 407.228 529.751 408.025 529.834 408.817C529.868 409.214 529.92 409.61 529.938 410.007L529.919 411.203C529.928 414.38 529.465 417.541 528.546 420.582C528.646 419.797 528.755 419.016 528.873 418.24L529.045 417.077C529.102 416.689 529.089 416.293 529.115 415.903L529.254 413.561C529.266 412.781 529.203 411.999 529.182 411.22L529.136 410.053C529.104 409.665 529.05 409.279 529.009 408.892C528.913 408.119 528.847 407.342 528.727 406.573C528.457 405.04 528.102 403.522 527.664 402.028C526.827 399.02 525.685 396.106 524.254 393.331L523.145 391.262C522.739 390.593 522.362 389.904 521.931 389.249C521.11 387.907 520.215 386.612 519.249 385.371Z" fill="black"/>
<path d="M530.745 366.184C531.123 367.069 531.642 367.887 532.281 368.606C532.894 369.34 533.553 370.033 534.256 370.681C535.667 371.976 537.157 373.182 538.718 374.293C540.277 375.415 541.888 376.469 543.516 377.506C545.151 378.533 546.806 379.536 548.449 380.586C547.54 380.237 546.656 379.831 545.756 379.454C544.869 379.052 544.007 378.597 543.139 378.152C542.269 377.711 541.447 377.181 540.599 376.697C539.774 376.174 538.961 375.629 538.158 375.07C536.559 373.927 535.075 372.633 533.726 371.204C532.31 369.82 531.283 368.089 530.745 366.184Z" fill="black"/>
<path d="M384.392 436.712C384.392 436.712 363.832 456.228 411.467 440.009C411.467 440.009 425.365 435.314 428.702 431.009C430.597 434.163 431.719 437.722 431.974 441.393C432.23 445.064 431.612 448.744 430.172 452.131C430.172 452.131 410.967 457.154 412.341 453.701C413.714 450.249 415.552 446.717 410.783 447.375C410.783 447.375 363.481 467.746 364.347 447.363C364.347 447.363 363.912 445.947 371.04 443.202C374.482 441.864 377.833 440.301 381.07 438.523L384.392 436.712Z" fill="black"/>
<path d="M410.59 405.062C409.707 408.509 408.472 411.856 406.903 415.05C405.339 418.258 403.481 421.315 401.353 424.181C399.166 427.016 396.638 429.571 393.826 431.787C390.979 433.944 387.79 435.609 384.392 436.712C385.188 436.313 385.983 435.924 386.778 435.546C387.171 435.346 387.583 435.186 387.957 434.954L389.073 434.244C389.808 433.76 390.598 433.368 391.287 432.82L393.368 431.209C396.053 428.951 398.476 426.399 400.592 423.6C402.715 420.798 404.607 417.827 406.249 414.717C407.087 413.169 407.863 411.586 408.575 409.969C409.327 408.37 409.978 406.726 410.59 405.062Z" fill="black"/>
<path d="M430.824 408.286C430.299 409.092 429.908 409.978 429.666 410.909C429.397 411.826 429.188 412.76 429.04 413.704C428.748 415.597 428.574 417.507 428.519 419.422C428.454 421.341 428.474 423.266 428.518 425.196C428.574 427.126 428.66 429.059 428.702 431.009C428.486 430.059 428.332 429.099 428.144 428.141C427.986 427.18 427.883 426.211 427.771 425.242C427.654 424.273 427.638 423.296 427.567 422.322C427.543 421.345 427.544 420.366 427.562 419.388C427.623 417.424 427.873 415.47 428.31 413.554C428.673 411.609 429.54 409.792 430.824 408.286Z" fill="black"/>
<path d="M469.237 216.109C469.096 217.911 468.805 219.698 468.368 221.452C467.966 223.215 467.417 224.94 466.725 226.61C466.864 224.808 467.155 223.02 467.594 221.267C467.998 219.505 468.547 217.78 469.237 216.109Z" fill="black"/>
<path d="M436.145 174.573C438.423 171.443 440.901 168.465 443.565 165.656C446.236 162.852 449.041 160.176 451.921 157.588C454.793 154.987 457.799 152.542 460.831 150.135C462.346 148.931 463.898 147.775 465.445 146.611L467.784 144.892C468.574 144.263 469.422 143.709 470.317 143.239C472.213 142.285 474.371 141.985 476.456 142.386C477.532 142.604 478.537 143.087 479.379 143.791C479.795 144.146 480.164 144.551 480.478 144.998C480.589 145.138 480.681 145.292 480.751 145.455C480.816 145.621 480.862 145.793 480.888 145.968C480.928 146.237 480.953 146.507 480.964 146.778C480.979 148.742 480.88 150.706 480.667 152.659C480.492 154.591 480.259 156.513 479.997 158.43C479.481 162.265 478.902 166.087 478.26 169.896C477.572 173.699 476.891 177.501 476.078 181.279C476.534 177.442 477.061 173.619 477.486 169.783C477.964 165.956 478.412 162.125 478.779 158.291L479.274 152.542C479.443 150.654 479.504 148.757 479.456 146.861C479.444 146.65 479.421 146.44 479.386 146.231C479.375 146.169 479.36 146.107 479.342 146.046C479.385 146.104 479.296 145.969 479.236 145.891C478.993 145.548 478.707 145.238 478.386 144.968C477.736 144.434 476.963 144.071 476.136 143.911C474.394 143.595 472.596 143.862 471.02 144.67C470.204 145.095 469.43 145.597 468.708 146.168L466.37 147.862C464.822 149.005 463.282 150.16 461.752 151.326C458.682 153.647 455.689 156.064 452.72 158.511C449.761 160.971 446.894 163.535 444.117 166.204C441.315 168.852 438.654 171.645 436.145 174.573Z" fill="black"/>
<path d="M428.363 276.814C427.935 273.54 427.647 270.254 427.306 266.972L426.526 257.106C426.046 250.525 425.764 243.931 425.564 237.334C425.426 230.734 425.388 224.127 425.661 217.524C425.99 210.939 426.385 204.274 428.076 197.872L427.741 200.324C427.602 201.134 427.505 201.951 427.451 202.771C427.352 204.416 427.15 206.044 427.136 207.692C427.08 209.337 426.972 210.975 426.947 212.62L426.888 217.553C426.904 224.132 426.994 230.712 427.157 237.294L428.363 276.814Z" fill="black"/>
<path d="M192.018 401.149C187.066 398.488 181.862 396.323 176.484 394.686C171.118 393.01 165.67 391.61 160.161 390.491C154.659 389.339 149.096 388.503 143.521 387.805L139.333 387.321C138.985 387.299 138.602 387.187 138.411 387.29C138.297 387.342 138.202 387.426 138.138 387.533C138.074 387.64 138.044 387.764 138.052 387.889C138.075 388.155 138.226 388.278 138.56 388.492L139.429 389.089C139.77 389.28 140.066 389.542 140.296 389.857C140.423 390.053 140.487 390.282 140.48 390.515C140.472 390.748 140.392 390.973 140.252 391.159C140.1 391.348 139.885 391.477 139.646 391.522C139.454 391.545 139.26 391.554 139.066 391.548L138.012 391.554L135.902 391.566C135.502 391.56 135.304 391.561 135.159 391.742C135.088 391.828 135.043 391.934 135.032 392.045C135.021 392.157 135.043 392.269 135.095 392.368C135.15 392.463 135.236 392.535 135.339 392.573C135.456 392.624 135.658 392.685 135.813 392.74L136.811 393.082L138.806 393.765L142.798 395.131L150.781 397.863L151.791 398.212C152.04 398.308 152.252 398.481 152.397 398.706C152.541 398.93 152.61 399.195 152.594 399.461C152.579 399.728 152.479 399.982 152.309 400.188C152.139 400.394 151.908 400.541 151.65 400.607C151.214 400.691 150.937 400.718 150.575 400.785C149.215 400.998 147.881 401.347 146.591 401.826C146.286 401.945 145.987 402.081 145.697 402.233C145.63 402.268 145.576 402.325 145.546 402.395C145.516 402.464 145.512 402.542 145.533 402.615C145.547 402.688 145.584 402.755 145.637 402.807C145.691 402.859 145.76 402.893 145.833 402.904C146.124 402.845 146.411 402.769 146.692 402.678C148.096 402.276 149.552 402.086 151.011 402.114C151.759 402.139 152.501 402.259 153.219 402.471C153.457 402.527 153.68 402.631 153.877 402.776C154.104 402.961 154.266 403.215 154.336 403.5C154.408 403.782 154.389 404.079 154.282 404.349C154.174 404.62 153.984 404.849 153.739 405.005C153.522 405.129 153.282 405.205 153.033 405.229L152.528 405.314C152.192 405.375 151.859 405.446 151.529 405.527C151.2 405.609 150.875 405.7 150.556 405.805L150.083 405.973C149.963 406.026 149.938 406.038 149.907 406.084C149.877 406.134 149.863 406.191 149.865 406.249C149.866 406.307 149.885 406.364 149.917 406.412C149.942 406.454 149.982 406.484 150.029 406.496C150.055 406.505 150.083 406.508 150.11 406.506L150.166 406.505L150.299 406.492L151.369 406.385L151.904 406.332L152.171 406.305C152.308 406.295 152.446 406.303 152.581 406.327C152.878 406.391 153.147 406.548 153.35 406.775C153.552 407.001 153.677 407.286 153.707 407.589C153.737 407.891 153.67 408.195 153.517 408.457C153.363 408.719 153.13 408.925 152.851 409.046C152.109 409.316 151.53 409.523 150.888 409.807L150.425 410.018L150.198 410.129L150.091 410.184C150.08 410.194 150.067 410.202 150.053 410.209C150.015 410.236 149.988 410.276 149.976 410.321C149.963 410.366 149.967 410.413 149.985 410.456C150.035 410.573 150.088 410.603 150.182 410.604L151.147 410.456C152.56 410.23 153.985 410.084 155.414 410.018C156.159 409.981 156.905 410.015 157.642 410.12C158.079 410.178 158.501 410.314 158.889 410.523C159.154 410.699 159.354 410.958 159.457 411.26C159.561 411.561 159.563 411.888 159.462 412.19C159.416 412.332 159.349 412.466 159.265 412.588L159.117 412.806L158.821 413.243L158.229 414.116L157.046 415.862L147.58 429.832L142.839 436.811L140.458 440.293L140.16 440.728C140.086 440.845 139.998 440.954 139.898 441.05C139.775 441.167 139.632 441.261 139.476 441.329L138.955 441.518C138.807 441.575 138.659 441.64 138.513 441.707C137.928 441.984 137.378 442.328 136.873 442.734C135.858 443.548 135.058 444.599 134.542 445.794C134.275 446.393 134.074 447.02 133.942 447.663L133.886 447.904C133.863 447.999 133.876 447.959 133.872 447.992C133.874 448.023 133.886 448.053 133.905 448.078C133.998 448.132 133.848 448.131 134.336 448.13L138.555 448.136L139.609 448.138L140.137 448.139L140.268 448.139C140.347 448.141 140.426 448.148 140.504 448.159C140.68 448.185 140.698 448.198 140.802 448.218C141.479 448.366 142.165 448.501 142.851 448.631C148.346 449.666 153.913 450.271 159.503 450.44C165.07 450.707 170.645 450.141 176.045 448.761C178.712 448.061 181.242 446.914 183.526 445.369L184.361 444.774L185.138 444.107C185.65 443.659 186.134 443.179 186.589 442.671C186.743 442.517 186.723 442.519 186.759 442.435C186.777 442.367 186.774 442.295 186.75 442.229C186.727 442.165 186.684 442.11 186.626 442.073L186.201 441.848L185.733 441.604C185.548 441.516 185.371 441.413 185.202 441.296C184.982 441.135 184.814 440.913 184.718 440.658C184.622 440.402 184.603 440.125 184.662 439.858C184.73 439.577 184.892 439.327 185.121 439.15C185.327 439.002 185.565 438.908 185.816 438.876L186.836 438.667C187.513 438.519 188.185 438.35 188.845 438.154L189.338 438.001C189.474 437.961 189.607 437.912 189.737 437.857C189.803 437.816 189.853 437.755 189.88 437.683C189.907 437.611 189.91 437.532 189.888 437.459C189.875 437.38 189.835 437.309 189.774 437.257C189.714 437.205 189.638 437.176 189.559 437.174L188.536 437.171L187.477 437.172C187.284 437.178 187.09 437.174 186.897 437.159C186.624 437.128 186.369 437.009 186.171 436.819C185.983 436.628 185.857 436.385 185.81 436.121C185.763 435.858 185.797 435.586 185.907 435.342C186.02 435.09 186.218 434.886 186.466 434.765C186.576 434.711 186.692 434.67 186.812 434.641L187.066 434.579L188.082 434.329C188.233 434.29 188.462 434.242 188.549 434.209C188.629 434.182 188.697 434.129 188.742 434.058C188.788 433.983 188.81 433.895 188.805 433.807C188.801 433.719 188.769 433.634 188.716 433.564C188.655 433.492 188.574 433.441 188.483 433.418C188.251 433.362 188.036 433.25 187.856 433.092C187.661 432.914 187.527 432.679 187.474 432.42C187.421 432.161 187.451 431.892 187.56 431.651C187.668 431.433 187.832 431.247 188.035 431.112L188.441 430.797C188.977 430.368 189.485 429.905 189.963 429.412C190.92 428.425 191.745 427.318 192.417 426.12C192.747 425.517 193.039 424.895 193.293 424.257C193.557 423.594 193.843 422.94 194.164 422.298C194.794 420.986 195.67 419.807 196.745 418.826C197.88 417.839 199.351 417.327 200.853 417.397C201.59 417.416 202.319 417.555 203.012 417.808C203.696 418.078 204.337 418.449 204.912 418.907C207.069 420.77 208.94 422.939 210.464 425.347C213.409 430.13 216.69 434.697 220.283 439.016C222.073 441.171 224.012 443.197 226.085 445.081L227.691 446.425C228.267 446.853 228.785 447.211 229.408 447.696C229.566 447.852 229.677 448.048 229.73 448.263C229.783 448.479 229.774 448.704 229.706 448.915C229.637 449.126 229.511 449.314 229.341 449.457C229.17 449.599 228.963 449.691 228.743 449.72C228.06 449.821 227.387 449.976 226.729 450.184C226.083 450.377 225.476 450.682 224.934 451.083C224.689 451.269 224.483 451.503 224.33 451.77C224.284 451.884 224.275 452.01 224.303 452.129C224.331 452.249 224.396 452.357 224.488 452.438C224.579 452.517 224.694 452.564 224.814 452.572C224.947 452.58 225.154 452.573 225.32 452.575L226.375 452.572L228.484 452.567L232.703 452.556L234.812 452.551L235.867 452.548L236.394 452.547C236.518 452.56 236.643 452.534 236.752 452.472C236.855 452.409 236.935 452.313 236.98 452.2C237.025 452.088 237.032 451.964 237.001 451.846L236.894 450.797L236.681 448.698L236.256 444.501C236.179 443.808 236.128 443.087 236.026 442.424C235.917 441.751 235.739 441.092 235.495 440.456C234.989 439.18 234.241 438.014 233.292 437.022C232.788 436.496 232.346 435.915 231.973 435.29C231.432 434.292 231.214 433.151 231.348 432.024C231.482 430.897 231.961 429.839 232.72 428.995C233.004 428.679 233.375 428.453 233.787 428.348C234.198 428.242 234.632 428.261 235.033 428.403C235.232 428.474 235.421 428.574 235.591 428.7L236.015 429.018L236.858 429.648C237.985 430.484 239.119 431.31 240.268 432.113C241.398 432.9 242.62 433.731 243.73 434.372C243.795 434.397 243.865 434.406 243.935 434.399C244.005 434.392 244.071 434.369 244.131 434.331C244.19 434.294 244.239 434.243 244.275 434.183C244.311 434.123 244.332 434.055 244.338 433.986C244.338 433.87 244.307 433.756 244.249 433.656L243.844 432.668C243.742 432.454 243.697 432.216 243.713 431.979C243.737 431.718 243.845 431.471 244.02 431.276C244.194 431.079 244.425 430.942 244.681 430.886C244.937 430.83 245.204 430.856 245.444 430.962C245.559 431.016 245.666 431.085 245.763 431.167L245.965 431.333L246.369 431.664L247.984 432.988C248.114 433.092 248.265 433.223 248.376 433.304C248.448 433.355 248.534 433.38 248.622 433.375C248.712 433.368 248.797 433.335 248.867 433.278C248.937 433.222 248.988 433.146 249.013 433.06C249.036 432.956 249.028 432.849 248.989 432.75L248.86 432.239C248.782 432.006 248.766 431.757 248.813 431.515C248.86 431.274 248.969 431.05 249.129 430.863C249.31 430.663 249.551 430.529 249.816 430.48C250.081 430.431 250.355 430.472 250.595 430.594C250.766 430.699 250.929 430.816 251.084 430.943C251.154 431.007 251.243 431.046 251.337 431.056C251.424 431.06 251.51 431.037 251.584 430.991C251.658 430.945 251.716 430.878 251.751 430.799C251.784 430.719 251.789 430.631 251.765 430.548C251.692 430.314 251.681 430.065 251.731 429.826C251.797 429.566 251.942 429.333 252.146 429.159C252.35 428.986 252.603 428.88 252.87 428.858C253.141 428.837 253.411 428.905 253.639 429.053L254.087 429.371C254.648 429.772 255.228 430.145 255.826 430.49C259.401 432.617 263.535 433.614 267.687 433.351C268.373 433.308 269.056 433.23 269.734 433.117L270.244 433.039C270.504 432.981 270.775 432.997 271.027 433.085C271.184 433.148 271.24 433.187 271.321 433.225L271.556 433.343L272.025 433.58L275.776 435.476L277.651 436.423C277.826 436.518 277.913 436.54 278.201 436.716C278.438 436.883 278.616 437.121 278.708 437.396C278.799 437.672 278.801 437.969 278.711 438.245L278.551 438.747L277.27 442.767C277.167 443.126 277.042 443.479 276.896 443.823C276.729 444.188 276.515 444.529 276.259 444.838C275.737 445.459 275.056 445.926 274.288 446.187C273.902 446.315 273.499 446.386 273.092 446.397C272.701 446.408 272.416 446.408 272.077 446.443C271.433 446.502 270.802 446.659 270.206 446.907C269.023 447.417 268.051 448.316 267.451 449.455C267.145 450.039 266.903 450.654 266.728 451.289C266.631 451.609 266.554 451.935 266.498 452.265L266.404 452.761C266.383 452.821 266.386 452.887 266.411 452.946C266.477 453.044 266.497 453.097 266.692 453.088L267.746 453.084L269.856 453.077L274.074 453.062L276.184 453.055L277.238 453.051L277.766 453.049C277.813 453.052 277.86 453.051 277.906 453.044C277.925 453.04 277.944 453.033 277.96 453.024C277.994 453.005 278.021 452.976 278.036 452.941L278.211 452.488L278.596 451.502L279.379 449.537C279.906 448.229 280.446 446.926 280.999 445.628C282.115 443.034 283.255 440.45 284.58 437.928C285.227 436.627 285.989 435.387 286.857 434.222C287.107 433.907 287.381 433.612 287.679 433.342C287.944 433.132 288.272 433.018 288.611 433.018L289.138 433.005L291.246 432.953L293.355 432.9C293.582 432.884 293.809 432.891 294.035 432.918C294.362 432.98 294.661 433.144 294.889 433.387C295.116 433.63 295.261 433.939 295.302 434.269L295.346 434.833L295.649 439.041L295.725 440.093L295.763 440.619C295.777 440.821 295.781 441.025 295.773 441.228C295.742 442.059 295.505 442.869 295.084 443.585C294.655 444.299 294.047 444.888 293.32 445.293C292.785 445.61 292.306 446.011 291.901 446.482C291.107 447.468 290.622 448.666 290.505 449.927C290.437 450.58 290.428 451.238 290.478 451.893C290.489 452.224 290.542 452.556 290.582 452.887L290.614 453.136C290.621 453.174 290.618 453.161 290.623 453.172C290.63 453.186 290.641 453.197 290.655 453.204C290.668 453.211 290.683 453.214 290.697 453.212C290.702 453.209 290.707 453.212 290.715 453.206L290.922 453.098L291.854 452.606L293.72 451.621L297.451 449.652L299.316 448.668L300.249 448.176L300.453 448.067L300.464 448.058C300.471 448.051 300.474 448.042 300.475 448.032L300.469 443.893L300.462 439.674L300.458 437.565L300.456 436.51C300.452 436.366 300.464 436.222 300.491 436.081C300.563 435.737 300.744 435.425 301.006 435.192L301.202 435.018C302.244 434.086 303.276 433.14 304.279 432.177C304.779 431.695 305.272 431.206 305.73 430.714C305.94 430.494 306.136 430.26 306.316 430.014C306.339 429.994 306.39 429.865 306.323 430.056C306.314 430.14 306.333 430.186 306.326 430.103L306.326 429.971L306.325 429.444L307.199 430.269L304.777 430.353L304.475 430.364L304.399 430.367L304.257 430.359C304.159 430.355 304.063 430.34 303.969 430.314C303.573 430.215 303.228 429.974 303.001 429.636C302.778 429.303 302.681 428.901 302.727 428.503C302.774 428.105 302.961 427.737 303.255 427.465C303.328 427.403 303.405 427.346 303.483 427.291L303.613 427.208L303.86 427.051C303.884 427.032 303.865 427.047 303.863 427.056C303.867 427.07 303.838 427.017 303.867 427.046L301.9 427.2L301.297 427.246C301.239 427.249 301.216 427.255 301.128 427.256C301.034 427.256 300.939 427.252 300.845 427.245C300.643 427.216 300.447 427.153 300.266 427.058C299.914 426.861 299.644 426.546 299.503 426.168C299.363 425.79 299.361 425.375 299.499 424.996C299.64 424.611 299.918 424.292 300.281 424.101C300.485 423.998 300.547 423.979 300.634 423.94L300.893 423.828L301.414 423.607C301.45 423.582 301.421 423.598 301.415 423.618C301.417 423.668 301.394 423.574 301.407 423.605C301.42 423.616 301.459 423.618 301.434 423.62C301.358 423.632 301.282 423.648 301.208 423.669L300.905 423.736C300.498 423.822 300.088 423.901 299.646 423.952C299.41 423.982 299.171 423.995 298.932 423.99C298.78 423.988 298.628 423.971 298.478 423.94C298.189 423.888 297.928 423.736 297.738 423.512C297.652 423.416 297.59 423.301 297.557 423.177C297.524 423.052 297.522 422.922 297.55 422.796C297.577 422.671 297.635 422.553 297.717 422.454C297.799 422.355 297.904 422.277 298.023 422.227L298.077 422.204C300.265 421.306 302.401 420.285 304.474 419.146C304.978 418.855 305.48 418.558 305.944 418.236L306.118 418.116C306.161 418.09 306.202 418.06 306.241 418.028C306.251 418.02 306.245 418.03 306.241 418.035C306.238 418.053 306.238 418.026 306.238 418.031L306.254 418.043C306.254 418.043 306.25 418.045 306.244 418.04L306.023 418.037L305.095 418.025C304.478 417.994 303.861 417.972 303.247 417.903C298.263 417.526 293.503 415.678 289.571 412.592C287.62 411.035 285.953 409.154 284.64 407.031L284.132 406.25L283.707 405.424L282.864 403.768L282.189 402.044L281.853 401.181L281.811 401.073L281.769 400.861C281.745 400.722 281.73 400.582 281.726 400.441L281.747 399.991C281.781 399.383 281.789 398.817 281.859 398.138C281.936 397.486 282.08 396.844 282.288 396.221C282.922 394.353 284.092 392.712 285.651 391.503C286.196 391.086 286.655 390.801 287.1 390.44C288.002 389.735 288.825 388.934 289.553 388.05C292.419 384.359 294.093 379.883 294.354 375.217C294.58 372.874 294.582 370.515 294.361 368.172C294.234 365.856 293.688 363.583 292.749 361.463C292.515 360.951 292.239 360.459 291.923 359.993C291.603 359.539 291.255 359.106 290.88 358.696C290.089 357.928 289.149 357.33 288.118 356.939C285.946 356.241 283.616 356.205 281.424 356.836L281.005 356.946L280.8 357.001C280.782 357.007 280.765 357.015 280.749 357.024C280.721 357.04 280.699 357.065 280.685 357.094C280.671 357.123 280.666 357.156 280.67 357.188C280.672 357.224 280.684 357.26 280.705 357.29C280.726 357.321 280.755 357.344 280.789 357.359C281.026 357.472 281.351 357.605 281.618 357.748C282.75 358.307 283.795 359.028 284.718 359.89C286.575 361.635 287.815 363.937 288.249 366.449C288.439 367.66 288.542 368.884 288.559 370.11L288.75 373.705C288.802 374.911 288.866 376.116 288.841 377.34C288.858 378.585 288.715 379.827 288.416 381.036C288.112 382.324 287.366 383.464 286.307 384.258C285.235 384.965 284.007 385.4 282.729 385.525L275.568 386.372L246.952 389.699L218.34 393.068L204.038 394.779C201.644 394.884 199.301 395.51 197.174 396.613C196.123 397.175 195.189 397.933 194.424 398.847C194.056 399.313 193.74 399.818 193.481 400.352C193.34 400.593 193.254 400.937 192.957 401.121C192.819 401.213 192.657 401.265 192.491 401.269C192.325 401.274 192.161 401.232 192.018 401.149ZM192.099 401.011C192.216 401.079 192.351 401.113 192.486 401.108C192.622 401.103 192.754 401.061 192.867 400.985C193.104 400.843 193.178 400.55 193.33 400.279C193.591 399.732 193.912 399.214 194.287 398.736C195.062 397.8 196.011 397.022 197.08 396.444C199.225 395.318 201.59 394.672 204.01 394.553L218.305 392.774L246.888 389.162L275.466 385.509L282.601 384.591C283.72 384.475 284.793 384.089 285.729 383.467C286.599 382.798 287.203 381.844 287.436 380.772C287.699 379.644 287.818 378.487 287.789 377.329C287.802 376.152 287.727 374.958 287.663 373.766L287.435 370.171C287.409 368.996 287.299 367.825 287.108 366.666C286.699 364.41 285.565 362.349 283.879 360.795C283.036 360.025 282.084 359.382 281.055 358.887C280.79 358.751 280.557 358.661 280.25 358.521C280.01 358.411 279.803 358.238 279.651 358.022C279.498 357.805 279.407 357.552 279.385 357.289C279.361 357.02 279.412 356.75 279.532 356.509C279.652 356.268 279.836 356.064 280.064 355.92C280.176 355.851 280.295 355.796 280.42 355.756L280.65 355.692L281.1 355.569C283.548 354.846 286.156 354.871 288.59 355.641C289.815 356.09 290.934 356.787 291.877 357.689C292.32 358.157 292.73 358.655 293.105 359.178C293.468 359.702 293.787 360.255 294.059 360.831C295.097 363.099 295.714 365.537 295.881 368.026C296.138 370.463 296.159 372.92 295.942 375.361C295.66 380.353 293.863 385.14 290.791 389.084C289.992 390.056 289.089 390.937 288.099 391.713C287.611 392.108 287.052 392.466 286.646 392.781C285.341 393.795 284.363 395.17 283.833 396.735C283.508 397.815 283.354 398.94 283.377 400.067L283.356 400.517C283.364 400.551 283.375 400.532 283.37 400.542C283.365 400.545 283.362 400.549 283.359 400.553L283.399 400.655L283.719 401.469L284.357 403.098L285.151 404.649L285.549 405.424L286.025 406.151C287.244 408.12 288.793 409.865 290.605 411.307C294.288 414.184 298.742 415.901 303.402 416.242C303.982 416.307 304.564 416.326 305.146 416.356L306.019 416.366L306.248 416.368C306.395 416.369 306.541 416.389 306.683 416.426C306.981 416.505 307.25 416.666 307.462 416.89C307.666 417.111 307.808 417.382 307.873 417.676C307.938 417.97 307.923 418.276 307.829 418.562C307.735 418.851 307.561 419.107 307.328 419.301C307.252 419.366 307.172 419.426 307.089 419.481L306.893 419.617C306.37 419.979 305.838 420.295 305.303 420.604C303.169 421.782 300.97 422.837 298.716 423.765L299.055 422.458C298.867 422.259 298.833 422.303 298.839 422.293C298.885 422.3 298.931 422.303 298.978 422.304C299.137 422.305 299.297 422.296 299.455 422.275C299.804 422.235 300.177 422.163 300.549 422.084L300.829 422.022C300.947 421.991 301.066 421.966 301.186 421.948C301.593 421.883 302.009 421.974 302.352 422.202C302.682 422.427 302.923 422.76 303.035 423.144C303.146 423.527 303.12 423.938 302.962 424.304C302.794 424.672 302.501 424.967 302.135 425.138L301.558 425.387L301.269 425.51C301.173 425.55 301.05 425.606 301.078 425.595C301.064 425.605 301.089 425.583 301.089 425.572C301.082 425.557 301.109 425.618 301.072 425.576C301.071 425.574 301.068 425.573 301.066 425.572C301.064 425.571 301.061 425.571 301.059 425.571C301.061 425.569 301.064 425.568 301.066 425.568C301.069 425.568 301.072 425.569 301.074 425.57C301.086 425.573 301.162 425.565 301.203 425.562L301.791 425.519L302.969 425.433L303.558 425.391L303.705 425.38C303.788 425.376 303.892 425.374 303.985 425.377C304.187 425.392 304.384 425.442 304.569 425.524C304.931 425.697 305.22 425.993 305.385 426.359C305.55 426.725 305.579 427.138 305.468 427.524C305.354 427.91 305.103 428.242 304.762 428.457L304.373 428.703C304.383 428.69 304.379 428.683 304.384 428.711C304.434 428.697 304.175 428.709 304.752 428.693L307.104 428.618L307.127 428.618C307.235 428.614 307.343 428.632 307.445 428.671C307.546 428.709 307.639 428.767 307.718 428.841C307.797 428.915 307.86 429.004 307.905 429.103C307.949 429.201 307.974 429.308 307.978 429.416L307.978 429.444L307.977 429.971L307.977 430.103C307.977 430.206 307.963 430.308 307.935 430.407C307.891 430.589 307.811 430.761 307.699 430.912C307.469 431.237 307.215 431.544 306.938 431.831C306.437 432.368 305.928 432.866 305.414 433.359C304.385 434.341 303.34 435.291 302.283 436.231L302.081 436.41L302.079 436.415C302.079 436.427 302.077 436.386 302.078 436.51L302.076 437.565L302.073 439.674L302.066 443.893L302.05 448.191C302.024 448.447 301.937 448.694 301.798 448.91C301.658 449.126 301.469 449.306 301.245 449.435L300.984 449.574L300.05 450.063L298.181 451.042L294.444 452.998L292.575 453.977L291.64 454.466L291.379 454.6C291.226 454.673 291.062 454.722 290.894 454.743C290.557 454.785 290.216 454.72 289.918 454.558C289.62 454.395 289.381 454.143 289.234 453.838C289.164 453.69 289.116 453.533 289.092 453.371L289.058 453.097C289.014 452.731 288.959 452.367 288.946 451.994C288.892 451.246 288.906 450.494 288.988 449.748C289.144 448.19 289.756 446.712 290.748 445.5C291.263 444.903 291.873 444.395 292.552 443.996C293.066 443.722 293.495 443.315 293.795 442.816C294.091 442.315 294.257 441.749 294.281 441.168C294.287 441.02 294.285 440.871 294.274 440.723L294.238 440.197L294.166 439.145L293.877 434.936L293.842 434.449C293.84 434.427 293.831 434.407 293.817 434.392C293.751 434.357 293.878 434.353 293.389 434.365L291.28 434.411L289.171 434.456L288.644 434.468C288.563 434.469 288.572 434.483 288.592 434.466C288.373 434.672 288.169 434.893 287.982 435.129C287.171 436.222 286.454 437.381 285.839 438.596C284.531 441.045 283.378 443.604 282.254 446.168C281.694 447.452 281.149 448.743 280.616 450.041L279.824 451.99L279.435 452.966L279.223 453.494C279.123 453.708 278.973 453.895 278.787 454.039C278.6 454.184 278.382 454.282 278.149 454.325C278.023 454.347 277.894 454.356 277.765 454.351L277.238 454.349L276.183 454.346L274.074 454.338L269.856 454.323L267.746 454.315L266.692 454.312C266.402 454.32 266.115 454.245 265.867 454.096C265.614 453.939 265.415 453.709 265.297 453.436C265.179 453.163 265.148 452.86 265.206 452.569L265.313 452.029C265.377 451.666 265.465 451.308 265.574 450.956C265.778 450.236 266.06 449.54 266.413 448.881C266.791 448.215 267.264 447.607 267.817 447.076C268.389 446.556 269.046 446.138 269.76 445.841C270.465 445.552 271.21 445.372 271.969 445.307C272.33 445.27 272.749 445.271 273.061 445.264C273.358 445.258 273.653 445.209 273.936 445.117C274.508 444.925 275.017 444.582 275.409 444.122C275.803 443.625 276.082 443.048 276.227 442.43L277.536 438.42L277.7 437.919C277.72 437.857 277.721 437.791 277.703 437.729C277.657 437.593 277.608 437.579 277.21 437.377L275.327 436.409L271.561 434.473L270.675 434.019C270.593 433.991 270.503 433.99 270.42 434.018L269.887 434.096C269.177 434.209 268.461 434.285 267.743 434.326C263.407 434.569 259.097 433.499 255.379 431.254C254.761 430.892 254.161 430.5 253.579 430.079L253.169 429.784C253.102 429.738 253.02 429.715 252.938 429.721C252.852 429.729 252.771 429.763 252.705 429.818C252.639 429.872 252.591 429.946 252.568 430.028C252.547 430.135 252.558 430.245 252.599 430.345C252.665 430.606 252.645 430.881 252.541 431.129C252.436 431.374 252.257 431.581 252.029 431.719C251.802 431.858 251.536 431.923 251.27 431.904C251.013 431.879 250.768 431.779 250.567 431.616C250.438 431.516 250.253 431.367 250.205 431.344C250.13 431.305 250.044 431.292 249.961 431.308C249.878 431.324 249.802 431.367 249.747 431.431C249.679 431.515 249.636 431.616 249.622 431.723C249.609 431.83 249.625 431.938 249.67 432.036L249.796 432.548C249.867 432.785 249.873 433.037 249.813 433.277C249.741 433.531 249.592 433.757 249.386 433.922C249.18 434.087 248.928 434.183 248.664 434.198C248.398 434.211 248.135 434.136 247.916 433.985C247.743 433.859 247.633 433.755 247.488 433.639L245.847 432.281L245.437 431.941L245.232 431.772C245.194 431.741 245.153 431.714 245.109 431.692C245.025 431.656 244.932 431.648 244.843 431.669C244.753 431.69 244.673 431.739 244.614 431.808C244.493 431.975 244.45 432.087 244.582 432.382L244.973 433.348C245.077 433.562 245.128 433.797 245.12 434.035C245.107 434.229 245.047 434.417 244.947 434.583C244.847 434.75 244.708 434.89 244.543 434.993C244.379 435.096 244.192 435.158 243.998 435.175C243.804 435.191 243.609 435.162 243.429 435.089C242.102 434.327 241.01 433.551 239.834 432.731C238.681 431.917 237.546 431.082 236.418 430.236L235.575 429.599L235.157 429.282C235.044 429.199 234.921 429.132 234.789 429.084C234.523 428.989 234.234 428.975 233.96 429.044C233.686 429.114 233.439 429.263 233.25 429.473C232.584 430.207 232.161 431.129 232.04 432.113C231.919 433.096 232.105 434.094 232.573 434.967C232.92 435.551 233.332 436.093 233.801 436.584C234.793 437.639 235.575 438.874 236.102 440.223C236.359 440.902 236.545 441.606 236.657 442.323C236.765 443.051 236.806 443.735 236.881 444.439L237.286 448.639L237.489 450.738L237.59 451.788C237.629 452.018 237.599 452.254 237.503 452.466C237.407 452.678 237.249 452.856 237.05 452.978C236.85 453.09 236.623 453.143 236.394 453.131L235.866 453.13L234.812 453.127L232.703 453.122L228.484 453.111L226.375 453.106L225.32 453.103C225.135 453.1 224.99 453.108 224.772 453.096C224.539 453.078 224.318 452.985 224.142 452.832C223.97 452.678 223.849 452.475 223.797 452.25C223.744 452.025 223.763 451.789 223.85 451.575C224.035 451.224 224.296 450.919 224.614 450.681C225.206 450.244 225.869 449.914 226.574 449.706C227.259 449.493 227.959 449.335 228.669 449.234C228.799 449.216 228.921 449.162 229.022 449.079C229.123 448.995 229.198 448.885 229.24 448.761C229.281 448.637 229.288 448.503 229.258 448.376C229.228 448.249 229.163 448.132 229.07 448.039C228.586 447.66 227.947 447.215 227.393 446.807L225.759 445.449C223.661 443.557 221.697 441.521 219.883 439.354C216.262 435.034 212.952 430.463 209.977 425.675C208.48 423.327 206.646 421.212 204.535 419.397C203.511 418.524 202.213 418.04 200.868 418.029C199.523 418.017 198.217 418.48 197.179 419.335C196.183 420.266 195.374 421.381 194.797 422.617C194.495 423.237 194.223 423.873 193.973 424.519C193.713 425.191 193.413 425.846 193.073 426.48C192.379 427.744 191.525 428.913 190.532 429.958C190.036 430.48 189.507 430.97 188.949 431.425L188.526 431.761C188.355 431.889 188.355 431.899 188.303 431.993C188.268 432.076 188.26 432.168 188.28 432.255C188.3 432.343 188.347 432.422 188.414 432.481C188.502 432.554 188.609 432.603 188.722 432.62C188.972 432.691 189.195 432.834 189.363 433.032C189.531 433.237 189.63 433.49 189.647 433.754C189.665 434.019 189.6 434.282 189.461 434.508C189.318 434.737 189.103 434.912 188.85 435.006C188.606 435.092 188.487 435.106 188.299 435.159L187.269 435.422C186.846 435.524 186.789 435.547 186.705 435.707C186.672 435.787 186.663 435.873 186.678 435.957C186.693 436.042 186.732 436.12 186.79 436.183C186.85 436.236 186.925 436.268 187.005 436.273C187.077 436.287 187.327 436.274 187.478 436.275L188.529 436.264C188.895 436.263 189.194 436.25 189.615 436.259C189.89 436.273 190.152 436.376 190.364 436.552C190.575 436.728 190.723 436.967 190.787 437.235C190.858 437.502 190.841 437.786 190.738 438.043C190.635 438.3 190.452 438.517 190.216 438.662C190.029 438.757 189.834 438.835 189.633 438.895L189.12 439.06C188.434 439.271 187.743 439.451 187.048 439.611L186.003 439.834C185.78 439.875 185.797 439.882 185.722 439.926C185.671 439.967 185.635 440.024 185.622 440.088C185.608 440.168 185.618 440.25 185.651 440.324C185.684 440.398 185.738 440.461 185.806 440.504C185.93 440.582 186.059 440.653 186.192 440.715L186.662 440.954C186.835 441.046 186.938 441.087 187.169 441.221C187.411 441.374 187.597 441.601 187.699 441.868C187.801 442.133 187.817 442.423 187.745 442.698C187.677 442.943 187.544 443.166 187.362 443.343C186.884 443.888 186.373 444.404 185.833 444.886L185.014 445.601L184.138 446.239C181.769 447.875 179.139 449.098 176.362 449.856C170.857 451.32 165.165 451.952 159.473 451.733C153.811 451.593 148.169 451.001 142.602 449.963C141.905 449.833 141.211 449.699 140.514 449.549C140.442 449.53 140.369 449.516 140.296 449.505C140.284 449.508 140.312 449.502 140.269 449.501L140.137 449.501L139.609 449.502L138.555 449.504L134.336 449.51L134.073 449.51C133.928 449.513 133.785 449.498 133.644 449.465C133.33 449.386 133.049 449.21 132.842 448.961C132.634 448.712 132.512 448.403 132.491 448.08C132.482 447.934 132.494 447.787 132.525 447.644L132.587 447.372C132.737 446.636 132.966 445.919 133.269 445.232C133.871 443.831 134.806 442.599 135.992 441.641C136.583 441.163 137.228 440.757 137.915 440.43C138.088 440.35 138.262 440.273 138.441 440.203L138.712 440.101L138.912 440.033C138.918 440.03 138.923 440.027 138.928 440.022C138.937 440.011 138.924 440.032 138.991 439.932L139.288 439.495L141.659 436.006L146.421 429.042L155.963 415.124L158.238 411.791C158.251 411.757 158.254 411.721 158.245 411.686C158.237 411.651 158.217 411.62 158.19 411.597C157.949 411.49 157.694 411.417 157.433 411.379C156.777 411.285 156.114 411.252 155.453 411.282C154.072 411.339 152.696 411.473 151.33 411.684L150.814 411.762L150.556 411.803L150.426 411.823L150.208 411.84C149.9 411.843 149.6 411.747 149.35 411.568C149.1 411.389 148.913 411.134 148.817 410.842C148.72 410.55 148.719 410.235 148.813 409.942C148.908 409.649 149.093 409.393 149.342 409.212L149.527 409.098L149.655 409.033L149.903 408.914L150.4 408.689C151.045 408.406 151.793 408.141 152.374 407.937C152.59 407.906 152.531 407.487 152.354 407.491C152.317 407.483 152.278 407.481 152.24 407.485L151.982 407.508L151.467 407.553L150.437 407.643L150.308 407.655L150.1 407.663C149.873 407.662 149.65 407.605 149.451 407.497C149.251 407.388 149.082 407.232 148.958 407.042C148.797 406.795 148.715 406.504 148.724 406.209C148.732 405.914 148.832 405.628 149.008 405.392C149.185 405.171 149.422 405.006 149.689 404.916L150.213 404.738C150.563 404.627 150.916 404.532 151.271 404.449C151.625 404.366 151.981 404.295 152.338 404.235C152.619 404.205 152.897 404.154 153.17 404.083C153.223 404.049 153.264 403.999 153.286 403.94C153.309 403.881 153.313 403.817 153.297 403.756C153.284 403.696 153.252 403.642 153.206 403.602C153.114 403.543 153.013 403.502 152.907 403.481C152.277 403.287 151.625 403.175 150.966 403.145C149.609 403.105 148.254 403.267 146.944 403.625L146.448 403.761C146.226 403.839 145.992 403.876 145.756 403.869C145.479 403.839 145.218 403.722 145.011 403.535C144.803 403.349 144.66 403.101 144.602 402.828C144.54 402.557 144.567 402.273 144.68 402.019C144.793 401.764 144.985 401.553 145.227 401.417C145.56 401.243 145.903 401.091 146.255 400.96C147.609 400.473 149.008 400.124 150.432 399.918L151.44 399.767C151.523 399.746 151.598 399.698 151.652 399.632C151.707 399.566 151.739 399.484 151.744 399.398C151.749 399.312 151.727 399.227 151.681 399.155C151.635 399.082 151.567 399.026 151.487 398.995L150.508 398.644L142.559 395.817L138.583 394.404L136.596 393.698L135.602 393.345C135.427 393.279 135.291 393.242 135.085 393.154C134.858 393.06 134.669 392.892 134.549 392.678C134.434 392.466 134.386 392.224 134.412 391.984C134.439 391.745 134.538 391.518 134.696 391.336C134.858 391.153 135.077 391.028 135.318 390.982C135.512 390.961 135.707 390.955 135.902 390.963L138.012 390.975L139.066 390.981C139.462 390.99 139.677 390.998 139.822 390.81C139.893 390.712 139.931 390.595 139.933 390.474C139.935 390.353 139.899 390.234 139.83 390.135C139.64 389.885 139.401 389.677 139.127 389.524L138.264 388.917C138.098 388.812 137.944 388.689 137.805 388.55C137.651 388.374 137.561 388.152 137.548 387.919C137.535 387.691 137.593 387.463 137.714 387.269C137.836 387.075 138.014 386.923 138.225 386.834C138.429 386.756 138.649 386.737 138.863 386.777L139.387 386.844L143.576 387.376C149.15 388.155 154.714 389.032 160.222 390.197C165.736 391.341 171.187 392.766 176.554 394.467C181.939 396.13 187.146 398.322 192.099 401.011V401.011Z" fill="black"/>
<path d="M179.886 420.065C180.396 417.555 182.496 417.315 182.566 415.475C182.636 413.875 181.126 412.325 179.886 411.645C178.306 410.775 177.296 411.395 176.056 410.305C175.096 409.455 175.466 408.855 174.526 408.005C173.87 407.464 173.08 407.108 172.24 406.974C171.399 406.84 170.538 406.934 169.746 407.245C168.356 407.825 168.576 408.696 166.876 409.926C165.226 411.115 164.656 410.555 162.666 411.645C160.891 412.619 159.43 414.08 158.456 415.855C157.817 417.176 157.427 418.603 157.306 420.065C156.896 422.735 156.666 424.255 157.496 425.615C157.866 426.215 158.886 426.845 160.946 428.105C161.766 428.615 162.646 429.085 164.386 430.015C165.122 430.458 165.891 430.843 166.686 431.165C168.367 431.397 170.074 430.986 171.466 430.015C172.452 429.524 173.306 428.804 173.956 427.915C175.026 426.355 174.406 425.605 175.296 424.656C176.656 423.225 178.766 424.285 179.696 422.935C180.256 422.125 179.576 421.615 179.886 420.065ZM164.196 420.595C161.296 420.595 161.296 416.095 164.196 416.095C167.096 416.095 167.096 420.595 164.196 420.595V420.595Z" fill="black"/>
<path d="M252.611 408.919C253.092 410.136 253.588 411.344 254.134 412.529C254.656 413.724 255.202 414.907 255.793 416.067C256.923 418.407 258.206 420.669 259.635 422.839C261.01 425.034 262.616 427.074 264.426 428.927C266.237 430.79 268.358 432.325 270.695 433.462C268.198 432.587 265.916 431.191 263.999 429.367C263.522 428.911 263.048 428.449 262.584 427.977L261.304 426.465C260.861 425.973 260.499 425.42 260.1 424.895C259.707 424.365 259.313 423.835 258.968 423.274C257.545 421.059 256.299 418.736 255.24 416.326C254.166 413.931 253.287 411.454 252.611 408.919Z" fill="black"/>
<path d="M261.653 423.702C262.6 424.48 263.56 425.233 264.572 425.914C265.562 426.624 266.586 427.28 267.627 427.906C269.701 429.163 271.878 430.241 274.134 431.13C276.371 432.058 278.702 432.741 281.085 433.168L282.877 433.48L284.691 433.632C284.994 433.661 285.297 433.7 285.601 433.72L286.514 433.724C287.123 433.724 287.734 433.733 288.349 433.749C285.909 434.107 283.43 434.115 280.988 433.773C278.537 433.43 276.136 432.791 273.839 431.87C271.552 430.937 269.362 429.782 267.3 428.422C265.243 427.071 263.348 425.487 261.653 423.702Z" fill="black"/>
<path d="M215.889 433.874C215.014 435.872 214.052 437.824 213.135 439.801L211.705 442.736C211.464 443.228 211.234 443.708 210.973 444.204C210.708 444.712 210.407 445.2 210.071 445.664C208.713 447.576 206.753 448.979 204.505 449.649C204.235 449.734 203.91 449.798 203.673 449.86C203.453 449.91 203.239 449.977 203.031 450.062C202.647 450.221 202.309 450.475 202.05 450.8C201.556 451.563 201.343 452.474 201.446 453.377L200.653 452.619L206.681 452.646L212.709 452.742L212.245 452.929C214.098 451.243 215.951 449.557 217.833 447.901L220.675 445.437C221.622 444.615 222.575 443.8 223.547 443.004C222.713 443.943 221.86 444.863 221 445.775L218.424 448.516C216.693 450.329 214.933 452.113 213.174 453.897C213.059 454.013 212.903 454.08 212.739 454.083L212.709 454.084L206.681 454.18L200.653 454.207H200.645C200.441 454.208 200.245 454.129 200.098 453.987C199.952 453.846 199.866 453.653 199.86 453.449C199.746 452.168 200.091 450.888 200.832 449.837C201.259 449.311 201.812 448.902 202.439 448.647C202.735 448.527 203.041 448.435 203.355 448.373C203.645 448.309 203.858 448.278 204.109 448.209C206.081 447.672 207.829 446.519 209.098 444.918C209.734 444.074 210.303 443.182 210.802 442.25L212.462 439.439C213.605 437.584 214.704 435.706 215.889 433.874Z" fill="black"/>
<path d="M139.366 440.639L140.37 448.82L140.448 448.837C140.396 448.825 140.343 448.82 140.29 448.82C139.687 448.82 135.838 448.82 134.011 448.82C133.888 448.819 133.767 448.791 133.656 448.739C133.546 448.686 133.448 448.61 133.37 448.515C133.292 448.42 133.236 448.309 133.205 448.19C133.175 448.072 133.171 447.947 133.194 447.827C133.432 446.211 134.111 444.691 135.156 443.435C136.202 442.18 137.573 441.237 139.119 440.709C139.285 440.656 139.429 440.549 139.526 440.404" fill="black"/>
<path d="M194.625 394.614C194.625 394.614 201.323 400.355 199.792 423.702L207.996 422.49C207.996 422.49 208.595 399.398 202.854 394.614H194.625Z" fill="black"/>
<path d="M215.676 404.948C218.15 406.23 220.957 404.123 222.374 405.713C223.219 406.663 222.602 407.844 223.713 408.775C224.734 409.631 225.65 408.966 226.584 409.732C228.018 410.909 226.911 413.345 227.923 413.942C229.293 414.751 232.272 410.854 233.665 411.646C234.495 412.118 233.732 413.671 234.622 416.047C234.818 416.571 235.729 419.007 237.683 419.875C239.099 420.504 240.109 419.885 246.104 417.579C250.916 415.727 251.476 415.659 252.228 414.708C254.043 412.411 252.594 410.502 254.333 408.201C255.689 406.408 257.435 406.425 261.031 405.139C264.075 404.04 266.969 402.561 269.643 400.738C267.54 400.072 267.04 399.352 266.963 398.824C266.766 397.457 269.334 396.888 270.791 394.04C271.576 392.438 271.843 390.633 271.556 388.873C271.384 388.051 271.097 387.257 270.704 386.516C254.934 388.435 227.98 391.733 213.52 393.503C215.56 394.707 218.212 395.666 217.972 396.336C217.713 397.058 214.667 395.854 213.379 397.293C211.924 398.919 213.025 403.575 215.676 404.948Z" fill="black"/>
<path d="M417.43 278.4C417.52 278.56 417.6 278.71 417.69 278.87L417.01 279.11L416.32 279.35L413.73 280.25L413.03 280.49L412.99 280.51C412.77 280.6 412.56 280.69 412.34 280.77C411.08 281.28 409.83 281.79 408.57 282.3C408.42 282.36 408.27 282.42 408.12 282.49C407.97 282.541 407.823 282.601 407.68 282.67C404.46 283.97 401.24 285.3 398.06 286.68C388.17 290.93 378.43 295.45 368.93 300.43C364.19 302.93 359.42 305.39 354.74 308.01C350.05 310.63 345.51 313.47 340.85 316.28C331.63 321.94 322.33 327.47 312.72 332.5C307.88 334.95 303.01 337.35 298.01 339.49C295.53 340.59 293.01 341.59 290.49 342.6C287.96 343.56 285.43 344.54 282.88 345.45L267.66 350.96L260.1 353.78C257.57 354.7 255.06 355.66 252.56 356.64C242.547 360.202 233.077 365.135 224.42 371.3C220.112 374.412 216.104 377.921 212.45 381.78C208.745 385.639 205.58 389.982 203.04 394.69L203.03 394.7C203.008 394.745 202.969 394.781 202.922 394.799C202.875 394.817 202.822 394.816 202.775 394.797C202.729 394.778 202.691 394.742 202.669 394.696C202.648 394.65 202.645 394.598 202.66 394.55C203.585 391.976 204.771 389.503 206.2 387.17C207.595 384.813 209.159 382.561 210.88 380.43C214.305 376.132 218.18 372.213 222.44 368.74C226.707 365.264 231.275 362.175 236.09 359.51C240.896 356.87 245.886 354.577 251.02 352.65C261.12 348.67 271.47 345.43 281.68 342.01C291.9 338.6 302.09 335.24 311.93 330.86C321.761 326.454 331.147 321.116 339.96 314.92C344.34 311.81 348.72 308.57 353.26 305.59C357.783 302.57 362.462 299.793 367.28 297.27C376.904 292.236 386.884 287.914 397.14 284.34C400.46 283.18 403.807 282.107 407.18 281.12C407.32 281.07 407.47 281.03 407.62 280.99C407.77 280.94 407.92 280.9 408.07 280.86C409.51 280.44 410.96 280.04 412.42 279.65C412.51 279.63 412.6 279.6 412.69 279.58L413.14 279.44L413.9 279.21L415.89 278.59L416.6 278.37L417.29 278.16L417.43 278.4Z" fill="black"/>
<path d="M428.42 274.94C428.435 274.99 428.43 275.045 428.406 275.091C428.381 275.138 428.34 275.173 428.29 275.19L423.17 276.97L422.53 277.19L421.9 277.41C421.92 277.17 421.94 276.94 421.96 276.72L422.6 276.53L423.23 276.33L428.17 274.81C428.22 274.796 428.274 274.802 428.321 274.826C428.367 274.85 428.402 274.891 428.42 274.94Z" fill="black"/>
<path d="M431.48 277.42C431.869 277.406 432.237 277.243 432.507 276.963C432.778 276.683 432.929 276.309 432.929 275.92C432.929 275.531 432.778 275.157 432.507 274.877C432.237 274.597 431.869 274.433 431.48 274.42C431.091 274.433 430.723 274.597 430.452 274.877C430.182 275.157 430.031 275.531 430.031 275.92C430.031 276.309 430.182 276.683 430.452 276.963C430.723 277.243 431.091 277.406 431.48 277.42Z" fill="black"/>
<path d="M437.72 281.74C438.109 281.727 438.477 281.563 438.747 281.283C439.018 281.003 439.169 280.629 439.169 280.24C439.169 279.851 439.018 279.477 438.747 279.197C438.477 278.917 438.109 278.753 437.72 278.74C437.331 278.753 436.963 278.917 436.692 279.197C436.422 279.477 436.271 279.851 436.271 280.24C436.271 280.629 436.422 281.003 436.692 281.283C436.963 281.563 437.331 281.727 437.72 281.74Z" fill="black"/>
<path d="M444.44 276.94C444.829 276.926 445.197 276.763 445.467 276.483C445.738 276.203 445.889 275.829 445.889 275.44C445.889 275.051 445.738 274.677 445.467 274.397C445.197 274.117 444.829 273.953 444.44 273.94C444.051 273.953 443.683 274.117 443.412 274.397C443.142 274.677 442.991 275.051 442.991 275.44C442.991 275.829 443.142 276.203 443.412 276.483C443.683 276.763 444.051 276.926 444.44 276.94Z" fill="black"/>
<path d="M449.24 268.06C449.629 268.047 449.997 267.883 450.267 267.603C450.538 267.323 450.689 266.949 450.689 266.56C450.689 266.171 450.538 265.797 450.267 265.517C449.997 265.237 449.629 265.074 449.24 265.06C448.851 265.074 448.483 265.237 448.212 265.517C447.942 265.797 447.791 266.171 447.791 266.56C447.791 266.949 447.942 267.323 448.212 267.603C448.483 267.883 448.851 268.047 449.24 268.06Z" fill="black"/>
<path d="M453.56 257.5C453.949 257.487 454.317 257.323 454.588 257.043C454.858 256.763 455.009 256.389 455.009 256C455.009 255.611 454.858 255.237 454.588 254.957C454.317 254.677 453.949 254.513 453.56 254.5C453.171 254.513 452.803 254.677 452.532 254.957C452.262 255.237 452.111 255.611 452.111 256C452.111 256.389 452.262 256.763 452.532 257.043C452.803 257.323 453.171 257.487 453.56 257.5Z" fill="black"/>
<path d="M458.12 246.94C458.509 246.926 458.877 246.763 459.148 246.483C459.418 246.203 459.569 245.829 459.569 245.44C459.569 245.051 459.418 244.677 459.148 244.397C458.877 244.117 458.509 243.953 458.12 243.94C457.731 243.953 457.363 244.117 457.093 244.397C456.822 244.677 456.671 245.051 456.671 245.44C456.671 245.829 456.822 246.203 457.093 246.483C457.363 246.763 457.731 246.926 458.12 246.94Z" fill="black"/>
<path d="M460.28 236.86C460.669 236.847 461.037 236.683 461.308 236.403C461.578 236.123 461.729 235.749 461.729 235.36C461.729 234.971 461.578 234.597 461.308 234.317C461.037 234.038 460.669 233.874 460.28 233.86C459.891 233.874 459.523 234.038 459.252 234.317C458.982 234.597 458.831 234.971 458.831 235.36C458.831 235.749 458.982 236.123 459.252 236.403C459.523 236.683 459.891 236.847 460.28 236.86Z" fill="black"/>
<path d="M463.64 226.06C464.029 226.047 464.397 225.883 464.668 225.603C464.938 225.323 465.089 224.949 465.089 224.56C465.089 224.171 464.938 223.797 464.668 223.517C464.397 223.237 464.029 223.074 463.64 223.06C463.251 223.074 462.883 223.237 462.613 223.517C462.342 223.797 462.191 224.171 462.191 224.56C462.191 224.949 462.342 225.323 462.613 225.603C462.883 225.883 463.251 226.047 463.64 226.06Z" fill="black"/>
<path d="M467 213.82C467.389 213.807 467.757 213.643 468.028 213.363C468.298 213.083 468.449 212.709 468.449 212.32C468.449 211.931 468.298 211.557 468.028 211.277C467.757 210.997 467.389 210.834 467 210.82C466.611 210.834 466.243 210.997 465.972 211.277C465.702 211.557 465.551 211.931 465.551 212.32C465.551 212.709 465.702 213.083 465.972 213.363C466.243 213.643 466.611 213.807 467 213.82Z" fill="black"/>
<path d="M468.92 204.46C469.309 204.446 469.677 204.283 469.948 204.003C470.218 203.723 470.369 203.349 470.369 202.96C470.369 202.571 470.218 202.197 469.948 201.917C469.677 201.637 469.309 201.473 468.92 201.46C468.531 201.473 468.163 201.637 467.893 201.917C467.622 202.197 467.471 202.571 467.471 202.96C467.471 203.349 467.622 203.723 467.893 204.003C468.163 204.283 468.531 204.446 468.92 204.46Z" fill="black"/>
<path d="M471.08 193.42C471.469 193.406 471.837 193.243 472.108 192.963C472.378 192.683 472.529 192.309 472.529 191.92C472.529 191.531 472.378 191.157 472.108 190.877C471.837 190.597 471.469 190.433 471.08 190.42C470.691 190.433 470.323 190.597 470.052 190.877C469.782 191.157 469.631 191.531 469.631 191.92C469.631 192.309 469.782 192.683 470.052 192.963C470.323 193.243 470.691 193.406 471.08 193.42Z" fill="black"/>
<path d="M474.2 148.3C474.589 148.287 474.957 148.123 475.227 147.843C475.498 147.563 475.649 147.189 475.649 146.8C475.649 146.411 475.498 146.037 475.227 145.757C474.957 145.477 474.589 145.314 474.2 145.3C473.811 145.314 473.443 145.477 473.172 145.757C472.902 146.037 472.751 146.411 472.751 146.8C472.751 147.189 472.902 147.563 473.172 147.843C473.443 148.123 473.811 148.287 474.2 148.3Z" fill="black"/>
<path d="M475.16 156.7C475.549 156.686 475.917 156.523 476.187 156.243C476.458 155.963 476.609 155.589 476.609 155.2C476.609 154.811 476.458 154.437 476.187 154.157C475.917 153.877 475.549 153.713 475.16 153.7C474.771 153.713 474.403 153.877 474.132 154.157C473.862 154.437 473.711 154.811 473.711 155.2C473.711 155.589 473.862 155.963 474.132 156.243C474.403 156.523 474.771 156.686 475.16 156.7Z" fill="black"/>
<path d="M474.2 167.02C474.589 167.007 474.957 166.843 475.227 166.563C475.498 166.283 475.649 165.909 475.649 165.52C475.649 165.131 475.498 164.757 475.227 164.477C474.957 164.197 474.589 164.033 474.2 164.02C473.811 164.033 473.443 164.197 473.172 164.477C472.902 164.757 472.751 165.131 472.751 165.52C472.751 165.909 472.902 166.283 473.172 166.563C473.443 166.843 473.811 167.007 474.2 167.02Z" fill="black"/>
<path d="M474.2 167.02C474.589 167.007 474.957 166.843 475.227 166.563C475.498 166.283 475.649 165.909 475.649 165.52C475.649 165.131 475.498 164.757 475.227 164.477C474.957 164.197 474.589 164.033 474.2 164.02C473.811 164.033 473.443 164.197 473.172 164.477C472.902 164.757 472.751 165.131 472.751 165.52C472.751 165.909 472.902 166.283 473.172 166.563C473.443 166.843 473.811 167.007 474.2 167.02Z" fill="black"/>
<path d="M473.24 175.66C473.629 175.646 473.997 175.483 474.267 175.203C474.538 174.923 474.689 174.549 474.689 174.16C474.689 173.771 474.538 173.397 474.267 173.117C473.997 172.837 473.629 172.673 473.24 172.66C472.851 172.673 472.483 172.837 472.212 173.117C471.942 173.397 471.791 173.771 471.791 174.16C471.791 174.549 471.942 174.923 472.212 175.203C472.483 175.483 472.851 175.646 473.24 175.66Z" fill="black"/>
<path d="M473.24 175.66C473.629 175.646 473.997 175.483 474.267 175.203C474.538 174.923 474.689 174.549 474.689 174.16C474.689 173.771 474.538 173.397 474.267 173.117C473.997 172.837 473.629 172.673 473.24 172.66C472.851 172.673 472.483 172.837 472.212 173.117C471.942 173.397 471.791 173.771 471.791 174.16C471.791 174.549 471.942 174.923 472.212 175.203C472.483 175.483 472.851 175.646 473.24 175.66Z" fill="black"/>
<path d="M472.52 184.06C472.909 184.047 473.277 183.883 473.548 183.603C473.818 183.323 473.969 182.949 473.969 182.56C473.969 182.171 473.818 181.797 473.548 181.517C473.277 181.237 472.909 181.074 472.52 181.06C472.131 181.074 471.763 181.237 471.492 181.517C471.222 181.797 471.071 182.171 471.071 182.56C471.071 182.949 471.222 183.323 471.492 183.603C471.763 183.883 472.131 184.047 472.52 184.06Z" fill="black"/>
</svg>
