<svg width="700" height="550" viewBox="0 0 700 550" fill="none" xmlns="http://www.w3.org/2000/svg">
<path d="M280.323 120.257C280.323 120.257 330.243 123.027 346.053 132.247C346.053 132.247 343.813 156.527 342.673 179.127L342.213 182.747C347.211 185.002 352.026 187.643 356.613 190.647C356.613 190.647 360.623 194.527 362.133 203.167C364.782 209.531 367.938 215.67 371.573 221.527C375.903 220.757 380.396 219.89 385.053 218.927L385.533 204.497C373.283 201.447 377.983 198.937 377.983 198.937L379.323 198.587C381.416 198.036 383.583 197.82 385.743 197.947L385.753 197.547L387.783 135.477C387.783 135.477 311.493 102.767 280.323 120.257ZM373.393 145.427L370.073 145.337C367.853 145.267 365.643 145.127 363.423 144.987C361.213 144.817 359.003 144.647 356.803 144.407C354.593 144.167 352.383 143.917 350.193 143.557C352.413 143.507 354.633 143.567 356.853 143.637C359.073 143.707 361.283 143.847 363.493 143.987C365.703 144.157 367.923 144.327 370.123 144.567L373.433 144.937C374.533 145.097 375.633 145.227 376.733 145.417C375.623 145.457 374.513 145.427 373.393 145.427ZM377.423 151.227C376.303 151.257 375.193 151.227 374.083 151.237L370.753 151.137C368.533 151.077 366.323 150.937 364.113 150.787C361.903 150.627 359.693 150.457 357.483 150.207C355.283 149.977 353.073 149.717 350.873 149.357C353.103 149.307 355.323 149.367 357.543 149.447C359.753 149.507 361.973 149.647 364.183 149.797C366.393 149.957 368.603 150.127 370.813 150.377L374.113 150.747C375.213 150.907 376.323 151.027 377.423 151.227L377.423 151.227ZM356.233 158.537C358.893 158.727 361.543 158.997 364.193 159.267C366.843 159.557 369.493 159.857 372.133 160.227L376.083 160.797C377.403 161.017 378.723 161.207 380.033 161.467C378.693 161.437 377.363 161.347 376.033 161.287L372.043 160.997C369.383 160.807 366.733 160.537 364.083 160.257C361.443 159.967 358.793 159.667 356.153 159.297C353.513 158.927 350.873 158.547 348.243 158.067C350.913 158.137 353.573 158.327 356.233 158.537L356.233 158.537ZM376.933 189.227C376.713 191.697 376.783 194.187 376.733 196.657C376.663 199.127 376.533 201.587 376.523 204.017C376.513 204.627 376.513 205.227 376.523 205.807C376.543 206.097 376.543 206.327 376.573 206.637L376.663 207.587C376.782 208.37 376.692 209.17 376.403 209.907C376.191 210.351 375.854 210.722 375.433 210.977C375.084 211.181 374.701 211.324 374.303 211.397C373.004 211.593 371.684 211.6 370.383 211.417C369.143 211.267 367.903 211.077 366.673 210.857C366.648 210.852 366.626 210.838 366.611 210.818C366.596 210.797 366.59 210.772 366.593 210.747C366.598 210.725 366.609 210.705 366.625 210.689C366.641 210.673 366.661 210.662 366.683 210.657C367.923 210.497 369.163 210.377 370.403 210.287C371.569 210.231 372.726 210.05 373.853 209.747C374.353 209.557 374.623 209.367 374.653 209.147C374.727 208.699 374.72 208.242 374.633 207.797L374.493 206.907C374.443 206.607 374.413 206.217 374.383 205.887C374.373 205.237 374.373 204.597 374.393 203.967C374.533 201.447 374.783 198.987 375.113 196.517C375.473 194.147 375.973 191.797 376.283 189.427C374.885 189.061 373.434 188.932 371.993 189.047C371.245 189.096 370.503 189.206 369.773 189.377C369.403 189.457 369.063 189.567 368.693 189.667C368.277 189.777 367.852 189.854 367.423 189.897C365.785 190.005 364.141 189.829 362.563 189.377C361.015 188.974 359.514 188.411 358.083 187.697L358.013 187.667C357.87 187.563 357.711 187.483 357.543 187.427C357.403 187.38 357.251 187.383 357.113 187.437C356.951 187.52 356.823 187.658 356.753 187.827C356.653 188.027 356.579 188.238 356.533 188.457L356.523 188.467C356.521 188.48 356.516 188.492 356.508 188.503C356.501 188.514 356.491 188.523 356.479 188.53C356.468 188.536 356.455 188.541 356.442 188.542C356.429 188.543 356.415 188.541 356.403 188.537C356.384 188.534 356.367 188.524 356.354 188.509C356.341 188.495 356.334 188.476 356.333 188.457C356.299 188.202 356.296 187.943 356.323 187.687C356.372 187.392 356.511 187.119 356.723 186.907C356.977 186.695 357.303 186.588 357.633 186.607C357.912 186.609 358.187 186.666 358.443 186.777C359.923 187.147 361.423 187.497 362.913 187.757C364.363 188.037 365.836 188.177 367.313 188.177C367.673 188.187 368.003 188.127 368.353 188.107C368.753 188.067 369.173 187.997 369.583 187.997C370.394 187.966 371.206 187.997 372.013 188.087C373.594 188.266 375.163 188.536 376.713 188.897C376.781 188.914 376.842 188.954 376.884 189.01C376.926 189.067 376.947 189.137 376.943 189.207L376.933 189.227ZM375.653 179.707L371.663 179.877C369.013 179.997 366.353 180.027 363.693 180.057C361.033 180.067 358.383 180.077 355.723 180.007C353.063 179.947 350.403 179.877 347.743 179.687C350.403 179.457 353.053 179.347 355.713 179.237C358.373 179.127 361.033 179.097 363.683 179.057C366.343 179.047 369.003 179.037 371.663 179.107L375.653 179.217C376.983 179.287 378.313 179.327 379.643 179.427C378.313 179.557 376.983 179.617 375.653 179.707V179.707ZM377.143 176.547L373.813 176.457C371.593 176.387 369.383 176.247 367.173 176.107C364.963 175.937 362.743 175.767 360.543 175.527C358.333 175.287 356.133 175.037 353.933 174.677C356.163 174.627 358.383 174.687 360.593 174.757C362.813 174.827 365.023 174.967 367.243 175.107C369.453 175.277 371.663 175.447 373.863 175.687L377.173 176.057C378.273 176.217 379.373 176.347 380.473 176.537C379.363 176.577 378.253 176.547 377.143 176.547V176.547ZM353.243 168.867C355.473 168.817 357.693 168.877 359.913 168.957C362.133 169.017 364.343 169.157 366.553 169.307C368.763 169.467 370.973 169.637 373.183 169.887L376.493 170.257C377.593 170.417 378.693 170.547 379.793 170.737C378.673 170.767 377.563 170.737 376.453 170.747L373.123 170.647C370.913 170.587 368.693 170.447 366.483 170.297C364.273 170.137 362.063 169.967 359.853 169.717C357.653 169.487 355.443 169.237 353.243 168.867L353.243 168.867ZM377.603 165.967L374.273 165.877C372.053 165.817 369.843 165.667 367.623 165.527C365.413 165.357 363.203 165.187 361.003 164.947C358.793 164.707 356.593 164.457 354.393 164.097C356.613 164.047 358.833 164.107 361.053 164.177C363.273 164.247 365.483 164.387 367.693 164.527C369.913 164.697 372.123 164.867 374.323 165.107L377.633 165.487C378.733 165.647 379.833 165.767 380.933 165.957C379.823 165.997 378.713 165.967 377.603 165.967L377.603 165.967ZM379.043 156.407L375.713 156.317C373.493 156.257 371.283 156.107 369.073 155.967C366.863 155.797 364.653 155.627 362.443 155.387C360.233 155.147 358.033 154.897 355.833 154.537C358.063 154.487 360.283 154.547 362.493 154.617C364.713 154.687 366.923 154.827 369.143 154.967C371.353 155.137 373.563 155.307 375.763 155.547L379.073 155.927C380.173 156.087 381.283 156.207 382.373 156.397C381.263 156.437 380.153 156.407 379.043 156.407H379.043ZM379.803 140.987L375.813 140.697C373.153 140.507 370.503 140.237 367.853 139.957C365.213 139.667 362.563 139.367 359.923 138.997C357.283 138.627 354.643 138.247 352.013 137.767C354.683 137.837 357.343 138.027 360.003 138.237C362.663 138.427 365.313 138.697 367.963 138.967C370.613 139.267 373.263 139.557 375.893 139.937L379.853 140.497C381.173 140.717 382.493 140.907 383.803 141.167C382.463 141.137 381.133 141.047 379.803 140.987L379.803 140.987ZM340.513 220.367C340.028 218.791 339.146 217.366 337.953 216.227L337.613 218.927C311.713 225.477 297.153 226.387 289.453 225.977C299.333 227.257 318.863 228.527 348.513 224.977C345.713 224.927 340.973 223.007 340.513 220.367ZM343.443 192.037C343.443 192.037 342.513 191.487 341.213 190.637L341.033 192.067C341.833 191.975 342.641 191.965 343.443 192.037V192.037Z" fill="black"/>
<path d="M281.813 224.647C283.114 224.534 284.421 224.514 285.724 224.588C287.005 224.632 288.269 224.756 289.531 224.917C289.803 224.952 290.051 225.091 290.223 225.305C290.394 225.52 290.476 225.792 290.45 226.065C290.425 226.338 290.295 226.591 290.086 226.77C289.878 226.949 289.609 227.04 289.335 227.024C288.013 226.962 286.702 226.754 285.426 226.403C284.778 226.23 284.146 226.006 283.533 225.733C282.907 225.462 282.327 225.095 281.813 224.647ZM281.813 224.647C283.158 224.728 284.408 224.723 285.675 224.767C286.938 224.789 288.191 224.84 289.451 224.91L289.255 227.016C287.967 226.851 286.694 226.581 285.45 226.209C284.171 225.859 282.947 225.333 281.813 224.647Z" fill="black"/>
<path d="M419.744 147.988C420.056 150.73 420.323 153.458 420.703 156.146C420.9 157.487 421.101 158.827 421.413 160.113C421.553 160.747 421.732 161.372 421.949 161.983C422.049 162.272 422.169 162.555 422.308 162.827L422.529 163.347C422.622 163.544 422.692 163.75 422.741 163.962C422.942 164.774 422.924 165.625 422.691 166.428C422.497 167.164 422.193 167.867 421.789 168.513C421.029 169.728 420.124 170.846 419.093 171.842C418.842 172.088 418.591 172.332 418.33 172.567L417.939 172.918L417.742 173.09C417.696 173.13 417.652 173.172 417.612 173.218C417.456 173.413 417.378 173.66 417.394 173.91C417.431 174.193 417.546 174.461 417.727 174.682C418.407 175.803 419.498 176.615 420.766 176.946C420.813 176.956 420.857 176.976 420.895 177.005C420.932 177.034 420.963 177.071 420.984 177.114L420.992 177.131C422.094 179.359 423.393 181.485 424.874 183.481C426.289 185.457 427.917 187.273 429.727 188.894C430.579 189.639 431.561 190.221 432.623 190.611C433.105 190.779 433.613 190.861 434.123 190.852C434.366 190.849 434.609 190.825 434.848 190.781C435.109 190.738 435.43 190.652 435.718 190.59C436.877 190.326 438.016 189.979 439.126 189.553C439.639 189.355 440.129 189.103 440.589 188.802C440.782 188.675 440.959 188.527 441.118 188.358C441.177 188.301 441.229 188.237 441.274 188.167L441.311 188.11C441.318 188.132 441.311 188.043 441.315 188.253L442.87 187.377C443.887 188.179 444.804 189.102 445.599 190.126C446.393 191.111 447.072 192.183 447.626 193.321C448.759 195.547 449.381 197.999 449.445 200.497C449.446 200.522 449.437 200.546 449.421 200.566C449.405 200.585 449.383 200.598 449.358 200.602C449.333 200.606 449.307 200.6 449.286 200.587C449.265 200.573 449.25 200.552 449.243 200.528L449.241 200.522C448.963 199.354 448.587 198.211 448.118 197.107C447.671 196.015 447.117 194.97 446.462 193.989C445.82 193.016 445.094 192.1 444.294 191.252C443.522 190.421 442.668 189.671 441.744 189.014L443.298 188.137C443.306 188.342 443.277 188.545 443.212 188.739C443.172 188.867 443.12 188.992 443.058 189.111C442.954 189.317 442.826 189.51 442.677 189.687C442.421 189.989 442.129 190.259 441.807 190.49C441.235 190.901 440.62 191.248 439.973 191.527C438.762 192.049 437.503 192.448 436.212 192.717C435.888 192.786 435.602 192.863 435.246 192.923C434.869 192.991 434.485 193.017 434.102 193.001C433.357 192.98 432.621 192.831 431.928 192.559C430.649 192.036 429.479 191.281 428.475 190.332C426.598 188.545 425.011 186.476 423.773 184.198C422.531 181.991 421.404 179.72 420.397 177.396L420.622 177.581C419.213 177.176 417.993 176.285 417.177 175.067C416.908 174.764 416.726 174.393 416.651 173.995C416.59 173.555 416.692 173.107 416.938 172.737C416.999 172.644 417.067 172.556 417.142 172.474L417.311 172.284L417.644 171.902C417.866 171.647 418.077 171.383 418.286 171.12C419.118 170.093 419.825 168.97 420.393 167.776C420.944 166.75 421.146 165.572 420.967 164.421C420.94 164.298 420.896 164.18 420.838 164.069L420.768 163.894L420.655 163.641C420.492 163.297 420.353 162.942 420.238 162.579C420.016 161.889 419.837 161.186 419.702 160.473C419.456 159.09 419.3 157.692 419.237 156.288C419.089 153.517 419.19 150.738 419.539 147.985C419.54 147.971 419.545 147.958 419.551 147.946C419.558 147.935 419.567 147.924 419.578 147.916C419.589 147.908 419.601 147.902 419.614 147.898C419.627 147.895 419.64 147.894 419.654 147.895C419.677 147.899 419.698 147.91 419.715 147.927C419.731 147.943 419.741 147.965 419.744 147.988Z" fill="#020202"/>
<path d="M449.343 174.876C449.543 175.876 449.56 176.904 449.394 177.91C449.24 178.93 448.93 179.92 448.474 180.846C448.014 181.781 447.377 182.619 446.6 183.314C445.839 184.006 444.929 184.515 443.94 184.802C444.696 184.186 445.394 183.501 446.026 182.757C446.629 182.031 447.144 181.235 447.558 180.387C448.389 178.635 448.989 176.782 449.343 174.876Z" fill="#020202"/>
<path d="M452.063 170.447C459.801 188.649 480.612 193.852 482.763 163.065C484.132 143.471 467.052 127.016 454.14 127.882C450.873 127.573 447.578 127.742 444.359 128.385C439.937 129.323 435.732 131.085 431.961 133.578C427.282 136.469 423.144 140.155 419.731 144.468C419.335 148.173 420.159 151.906 422.077 155.101C425.561 160.736 431.5 162.446 434.805 162.965C435.928 163.161 437.082 163.065 438.157 162.687C439.233 162.309 440.193 161.66 440.945 160.804C441.477 160.174 441.878 159.444 442.123 158.656C442.426 157.503 442.96 156.423 443.692 155.482C444.424 154.541 445.34 153.758 446.383 153.181C448.962 151.904 452.118 152.29 453.615 160.049C454.862 166.507 453.707 169.313 452.063 170.447Z" fill="#020202"/>
<path d="M334.959 283.688C338.462 283.098 341.996 282.709 345.543 282.524C349.07 282.289 352.597 282.208 356.123 282.213C359.65 282.225 363.176 282.327 366.701 282.58C370.248 282.786 373.779 283.196 377.278 283.811C373.776 284.405 370.242 284.795 366.695 284.98C363.168 285.213 359.641 285.295 356.114 285.286C352.587 285.27 349.061 285.169 345.535 284.914C341.989 284.708 338.458 284.299 334.959 283.688Z" fill="#020202"/>
<path d="M371.704 274.904C366.06 275.165 360.414 275.36 354.768 275.552L346.299 275.848L342.065 275.983C340.712 275.992 339.363 276.127 338.036 276.388C335.407 276.911 332.904 277.939 330.667 279.416L328.961 280.6C328.425 280.968 327.912 281.371 327.428 281.805C326.485 282.67 325.675 283.668 325.023 284.769C324.38 285.867 323.904 287.055 323.61 288.294C323.466 288.91 323.368 289.537 323.319 290.168C323.281 290.482 323.291 290.8 323.276 291.115L323.274 292.163L323.248 300.633L323.167 317.572L323.007 334.511C322.908 345.803 322.716 357.094 322.43 368.384L321.924 385.318L321.793 389.551C321.777 390.248 321.739 390.983 321.739 391.648C321.729 392.289 321.768 392.93 321.856 393.565C322.196 396.141 323.308 398.553 325.047 400.485C325.927 401.445 326.936 402.279 328.047 402.961C329.181 403.615 330.4 404.11 331.669 404.433C332.99 404.707 334.336 404.844 335.685 404.844L339.914 404.998C345.555 405.153 351.197 405.286 356.841 405.332C379.414 405.534 401.968 404.825 424.504 403.205C435.757 402.404 446.988 401.377 458.195 400.21C460.998 399.928 463.792 399.573 466.591 399.259C469.394 398.952 472.177 398.587 474.955 398.209L479.126 397.658L480.169 397.525L480.69 397.458C480.731 397.456 480.771 397.448 480.809 397.434L480.989 397.386C481.538 397.223 482.068 397.003 482.571 396.729C483.594 396.173 484.501 395.425 485.24 394.525C485.974 393.599 486.538 392.55 486.905 391.426C487.275 390.241 487.488 389.013 487.537 387.772C487.586 387.133 487.588 386.49 487.541 385.85L487.483 384.877L487.454 384.389L487.407 383.834C487.165 380.891 487.121 378.066 487.084 375.208C487.044 369.511 487.181 363.835 487.432 358.163C487.932 346.821 488.988 335.515 490.422 324.259C493.26 301.712 498.285 279.496 505.425 257.923C509.03 247.145 513.472 236.666 518.71 226.58C519.981 224.042 521.409 221.584 522.822 219.124C524.292 216.763 525.537 214.269 526.539 211.674C527.499 209.065 528.149 206.352 528.478 203.592C528.648 202.232 528.596 200.854 528.323 199.512C528.212 198.856 527.933 198.239 527.514 197.723C527.094 197.206 526.549 196.806 525.93 196.561L525.915 196.556C525.864 196.538 525.822 196.5 525.799 196.451C525.776 196.402 525.773 196.346 525.791 196.294C525.81 196.243 525.848 196.201 525.897 196.178C525.946 196.155 526.002 196.152 526.053 196.17C526.777 196.388 527.425 196.803 527.925 197.368C528.409 197.941 528.763 198.611 528.966 199.332C529.351 200.74 529.492 202.204 529.382 203.659C529.185 206.527 528.651 209.361 527.79 212.103C526.889 214.829 525.734 217.463 524.339 219.973C523.077 222.485 521.724 224.944 520.565 227.506C518.101 232.553 515.995 237.767 513.942 242.989C511.986 248.253 510.137 253.554 508.473 258.916C505.126 269.64 502.357 280.535 500.176 291.555C499.057 297.059 498.07 302.59 497.141 308.129C496.246 313.676 495.452 319.237 494.759 324.814C494.079 330.391 493.427 335.973 492.932 341.57C492.433 347.167 492.022 352.77 491.699 358.378C491.382 363.985 491.178 369.599 491.149 375.196C491.148 377.982 491.164 380.809 491.353 383.496C491.717 386.574 491.447 389.695 490.557 392.664C490.024 394.223 489.217 395.674 488.173 396.948C487.101 398.223 485.792 399.277 484.316 400.05C483.573 400.441 482.79 400.753 481.981 400.978L481.648 401.061C481.516 401.094 481.382 401.118 481.247 401.135L480.718 401.197L479.659 401.32L475.422 401.795C472.597 402.118 469.775 402.426 466.958 402.674C464.139 402.929 461.324 403.226 458.503 403.448L450.042 404.116L441.572 404.637C438.75 404.82 435.925 404.944 433.1 405.078C430.276 405.212 427.453 405.356 424.627 405.447C413.331 405.945 402.028 406.126 390.731 406.34C379.433 406.521 368.135 406.628 356.837 406.661L339.887 406.683L335.648 406.678C334.173 406.726 332.697 406.623 331.242 406.371C328.242 405.764 325.498 404.254 323.38 402.043C320.696 399.241 319.164 395.532 319.088 391.652C319.064 390.907 319.078 390.229 319.071 389.515L319.057 385.28L319.018 368.338C319.052 357.045 319.171 345.753 319.377 334.462L319.685 317.525L320.071 300.59L320.279 292.122L320.312 291.052C320.338 290.664 320.343 290.273 320.398 289.887C320.481 289.112 320.623 288.345 320.823 287.592C321.623 284.574 323.318 281.868 325.685 279.831C326.266 279.339 326.878 278.885 327.517 278.471C328.113 278.083 328.676 277.696 329.33 277.298C331.88 275.749 334.707 274.711 337.654 274.24C339.109 274.011 340.583 273.918 342.055 273.962L346.29 274.019L354.759 274.159C360.406 274.247 366.052 274.338 371.7 274.494C371.753 274.496 371.804 274.518 371.841 274.556C371.878 274.594 371.899 274.644 371.9 274.697C371.9 274.751 371.88 274.802 371.844 274.84C371.807 274.879 371.757 274.902 371.704 274.904H371.704Z" fill="#020202"/>
<path d="M424.936 274.218C427.167 273.605 429.446 273.182 431.748 272.952C434.021 272.706 436.294 272.58 438.569 272.558C440.843 272.535 443.118 272.62 445.395 272.824C447.701 273.012 449.988 273.395 452.229 273.972C449.998 274.588 447.719 275.013 445.417 275.242C443.144 275.488 440.871 275.613 438.596 275.631C436.322 275.65 434.046 275.566 431.77 275.361C429.464 275.172 427.178 274.79 424.936 274.218Z" fill="#020202"/>
<path d="M483.939 398.18C484.33 401.384 484.502 404.587 484.63 407.79C484.744 410.994 484.809 414.197 484.689 417.4C484.542 420.603 484.244 423.807 484.169 427.01C484.163 427.811 484.137 428.612 484.148 429.413C484.152 429.812 484.162 430.207 484.134 430.645C484.092 431.072 484.002 431.493 483.867 431.9C483.584 432.734 483.098 433.484 482.454 434.084C481.809 434.685 481.026 435.115 480.174 435.338C478.808 435.69 477.359 435.493 476.136 434.79C474.913 434.087 474.014 432.934 473.63 431.577C473.496 431.117 473.422 430.642 473.411 430.163L473.384 428.959C473.313 425.755 473.227 422.552 473.255 419.349C473.341 412.942 473.599 406.536 474.245 400.129C474.248 400.103 474.26 400.08 474.279 400.063C474.298 400.045 474.322 400.036 474.348 400.036C474.374 400.036 474.398 400.045 474.417 400.063C474.436 400.08 474.448 400.103 474.45 400.129C475.097 406.536 475.354 412.942 475.441 419.349C475.469 422.552 475.383 425.755 475.312 428.959L475.287 430.157C475.283 430.48 475.317 430.802 475.386 431.117C475.53 431.759 475.83 432.355 476.261 432.852C476.705 433.362 477.264 433.758 477.892 434.008C478.548 434.25 479.253 434.33 479.946 434.239C480.668 434.13 481.349 433.835 481.922 433.383C482.495 432.93 482.94 432.336 483.214 431.66C483.479 430.942 483.585 430.175 483.524 429.413C483.535 428.612 483.509 427.811 483.504 427.01C483.429 423.807 483.13 420.603 482.983 417.4C482.864 414.197 482.929 410.994 483.042 407.79C483.17 404.587 483.343 401.384 483.734 398.18C483.737 398.155 483.749 398.132 483.768 398.116C483.787 398.099 483.811 398.09 483.836 398.09C483.862 398.09 483.886 398.099 483.905 398.116C483.924 398.132 483.936 398.155 483.939 398.18H483.939Z" fill="#020202"/>
<path d="M337.679 405.355C338.071 408.09 338.243 410.825 338.371 413.559C338.484 416.294 338.549 419.029 338.43 421.764C338.283 424.499 337.985 427.234 337.909 429.969C337.916 430.699 337.775 431.423 337.494 432.098C337.213 432.772 336.797 433.382 336.273 433.891C335.723 434.428 335.063 434.841 334.339 435.101C333.615 435.362 332.843 435.463 332.076 435.398C331.31 435.334 330.566 435.106 329.895 434.728C329.224 434.351 328.643 433.834 328.189 433.212C327.714 432.553 327.393 431.795 327.251 430.994C327.161 430.27 327.119 429.54 327.124 428.81C327.054 426.076 326.968 423.341 326.995 420.606C327.044 415.123 327.375 409.646 327.986 404.196C327.989 404.171 328.001 404.148 328.02 404.132C328.039 404.115 328.063 404.105 328.089 404.105C328.114 404.105 328.138 404.115 328.157 404.132C328.176 404.148 328.188 404.171 328.191 404.196C328.803 409.646 329.133 415.123 329.182 420.606C329.21 423.341 329.124 426.076 329.053 428.81C329.043 429.485 328.994 430.229 329.045 430.723C329.171 431.789 329.708 432.764 330.543 433.44C331.377 434.116 332.443 434.44 333.512 434.341C334.582 434.243 335.57 433.731 336.268 432.914C336.965 432.097 337.315 431.04 337.245 429.969C337.169 427.234 336.871 424.499 336.724 421.764C336.605 419.029 336.669 416.294 336.783 413.559C336.911 410.825 337.083 408.09 337.474 405.355C337.478 405.33 337.49 405.307 337.509 405.291C337.528 405.275 337.552 405.266 337.577 405.266C337.602 405.266 337.626 405.275 337.645 405.291C337.664 405.307 337.676 405.33 337.679 405.355L337.679 405.355Z" fill="#020202"/>
<path d="M385.767 197.92C387.801 198.127 389.838 198.451 391.796 198.514L391.743 198.512L392.973 198.446C393.161 198.435 393.345 198.499 393.485 198.623C393.626 198.748 393.711 198.923 393.723 199.11C393.734 199.298 393.671 199.482 393.547 199.623C393.423 199.764 393.249 199.85 393.061 199.863C392.607 199.892 392.145 199.914 391.682 199.921C391.641 199.922 391.6 199.916 391.56 199.904L391.501 199.884C390.424 199.546 389.325 199.284 388.212 199.101C387.104 198.934 385.988 198.835 384.868 198.803C383.748 198.771 382.627 198.801 381.51 198.894C380.369 199.013 379.235 199.195 378.114 199.439L378.228 199.395C378.063 199.462 377.915 199.564 377.794 199.695C377.673 199.825 377.582 199.981 377.527 200.15C377.451 200.457 377.727 200.838 378.031 201.166C378.786 201.799 379.646 202.296 380.573 202.633C381.048 202.801 381.513 202.991 381.996 203.141L383.456 203.554C384.446 203.773 385.437 203.996 386.427 204.173C386.504 204.187 386.575 204.22 386.634 204.271L386.684 204.314C387.811 205.257 389.002 206.12 390.249 206.896C391.465 207.677 392.745 208.354 394.074 208.921C395.336 209.472 396.693 209.769 398.069 209.796C399.344 209.814 400.591 209.412 401.615 208.651L401.646 208.627C401.818 208.499 402.026 208.428 402.241 208.424C402.456 208.42 402.666 208.482 402.844 208.603C404.054 209.43 405.28 210.234 406.478 211.08C407.682 211.917 408.878 212.766 410.067 213.627C411.258 214.484 412.422 215.382 413.601 216.258C414.773 217.144 415.928 218.056 417.068 218.993C417.087 219.009 417.099 219.031 417.103 219.055C417.107 219.08 417.102 219.105 417.088 219.126C417.075 219.146 417.054 219.161 417.03 219.168C417.006 219.174 416.981 219.172 416.959 219.161C415.639 218.502 414.336 217.817 413.05 217.106C411.771 216.385 410.477 215.687 409.209 214.947C407.938 214.214 406.676 213.466 405.423 212.704C404.163 211.953 402.93 211.161 401.682 210.391L402.911 210.343C401.517 211.414 399.79 211.957 398.034 211.876C396.398 211.777 394.798 211.356 393.326 210.637C391.91 209.973 390.574 209.151 389.343 208.186C388.129 207.236 386.991 206.191 385.942 205.06L386.199 205.201C385.201 204.915 384.23 204.571 383.249 204.261C382.274 203.923 381.301 203.588 380.342 203.198C379.351 202.823 378.416 202.314 377.564 201.685C377.311 201.5 377.102 201.26 376.951 200.985C376.801 200.709 376.713 200.404 376.693 200.091C376.706 199.744 376.827 199.409 377.038 199.133C377.229 198.874 377.467 198.652 377.738 198.479C377.752 198.47 377.767 198.463 377.783 198.458L377.852 198.435C378.974 198.029 380.118 197.69 381.28 197.419C382.467 197.151 383.682 197.019 384.899 197.025C387.329 197.042 389.733 197.519 391.986 198.43L391.804 198.393C392.162 198.4 392.52 198.422 392.885 198.451L392.973 199.868L391.743 199.802L391.69 199.8C390.659 199.64 389.64 199.408 388.641 199.105C387.651 198.817 386.678 198.486 385.719 198.114C385.697 198.105 385.678 198.088 385.667 198.067C385.655 198.045 385.652 198.02 385.658 197.996C385.664 197.973 385.678 197.952 385.698 197.938C385.718 197.924 385.742 197.917 385.767 197.92L385.767 197.92Z" fill="#020202"/>
<path d="M385.98 190.67C389.924 190.96 393.812 191.772 397.542 193.083C401.289 194.314 404.956 195.775 408.521 197.459C412.076 199.152 415.566 200.971 418.947 202.977C422.348 204.952 425.625 207.134 428.76 209.51C425.207 207.818 421.706 206.08 418.205 204.35C414.696 202.637 411.202 200.911 407.673 199.269C404.163 197.584 400.596 196.039 397.009 194.544C393.42 193.016 389.736 191.722 385.98 190.67Z" fill="#020202"/>
<path d="M235.703 311.517C236.883 312.787 238.073 314.067 239.273 315.317C239.713 313.657 240.203 312.007 240.663 310.337C239.013 310.757 237.36 311.15 235.703 311.517ZM240.033 316.117C241.303 317.457 242.583 318.807 243.883 320.127L244.263 320.507C244.603 318.707 244.973 316.907 245.353 315.107C243.573 315.447 241.813 315.777 240.033 316.117V316.117ZM244.963 321.217C246.703 322.967 248.453 324.697 250.243 326.387L250.733 322.787L251.153 319.317C249.083 319.937 247.033 320.597 244.963 321.217ZM250.573 326.707C251.283 327.367 252.003 328.037 252.743 328.687C253.913 329.767 255.123 330.817 256.343 331.837C256.463 329.307 256.603 326.784 256.763 324.267C254.693 325.077 252.633 325.877 250.573 326.707ZM263.363 329.417C261.293 330.457 259.213 331.467 257.143 332.507C258.799 333.872 260.525 335.151 262.313 336.337C262.673 336.587 263.033 336.817 263.403 337.037L263.363 329.417ZM270.643 332.097C268.533 333.917 266.383 335.687 264.253 337.487C264.236 337.5 264.215 337.506 264.193 337.507C265.311 338.165 266.486 338.72 267.703 339.167C268.718 339.574 269.8 339.791 270.893 339.807C271.623 339.808 272.347 339.683 273.033 339.437C272.213 336.987 271.423 334.547 270.643 332.097H270.643ZM235.703 311.517C236.883 312.787 238.073 314.067 239.273 315.317C239.713 313.657 240.203 312.007 240.663 310.337C239.013 310.757 237.36 311.15 235.703 311.517L235.703 311.517ZM240.033 316.117C241.303 317.457 242.583 318.807 243.883 320.127L244.263 320.507C244.603 318.707 244.973 316.907 245.353 315.107C243.573 315.447 241.813 315.777 240.033 316.117H240.033ZM244.963 321.217C246.703 322.967 248.453 324.697 250.243 326.387L250.733 322.787L251.153 319.317C249.083 319.937 247.033 320.597 244.963 321.217L244.963 321.217ZM250.573 326.707C251.283 327.367 252.003 328.037 252.743 328.687C253.913 329.767 255.123 330.817 256.343 331.837C256.463 329.307 256.603 326.784 256.763 324.267C254.693 325.077 252.633 325.877 250.573 326.707L250.573 326.707ZM263.363 329.417C261.293 330.457 259.213 331.467 257.143 332.507C258.799 333.872 260.525 335.151 262.313 336.337C262.673 336.587 263.033 336.817 263.403 337.037L263.363 329.417ZM270.643 332.097C268.533 333.917 266.383 335.687 264.253 337.487C264.236 337.5 264.215 337.507 264.193 337.507C265.311 338.165 266.486 338.72 267.703 339.167C268.718 339.574 269.8 339.791 270.893 339.807C271.622 339.809 272.347 339.683 273.033 339.437C272.213 336.987 271.423 334.547 270.643 332.097L270.643 332.097ZM235.703 311.517C236.883 312.787 238.073 314.067 239.273 315.317C239.713 313.657 240.203 312.007 240.663 310.337C239.013 310.757 237.36 311.15 235.703 311.517L235.703 311.517ZM240.033 316.117C241.303 317.457 242.583 318.807 243.883 320.127L244.263 320.507C244.603 318.707 244.973 316.907 245.353 315.107C243.573 315.447 241.813 315.777 240.033 316.117L240.033 316.117ZM244.963 321.217C246.703 322.967 248.453 324.697 250.243 326.387L250.733 322.787L251.153 319.317C249.083 319.937 247.033 320.597 244.963 321.217L244.963 321.217ZM250.573 326.707C251.283 327.367 252.003 328.037 252.743 328.687C253.913 329.767 255.123 330.817 256.343 331.837C256.463 329.307 256.603 326.784 256.763 324.267C254.693 325.077 252.633 325.877 250.573 326.707L250.573 326.707ZM263.363 329.417C261.293 330.457 259.213 331.467 257.143 332.507C258.799 333.872 260.525 335.151 262.313 336.337C262.673 336.587 263.033 336.817 263.403 337.037L263.363 329.417ZM270.643 332.097C268.533 333.917 266.383 335.687 264.253 337.487C264.235 337.5 264.215 337.507 264.193 337.507C265.311 338.165 266.486 338.72 267.703 339.167C268.718 339.574 269.799 339.791 270.893 339.807C271.622 339.809 272.346 339.683 273.033 339.437C272.213 336.987 271.423 334.547 270.643 332.097L270.643 332.097ZM235.703 311.517C236.883 312.787 238.073 314.067 239.273 315.317C239.713 313.657 240.203 312.007 240.663 310.337C239.013 310.757 237.36 311.15 235.703 311.517L235.703 311.517ZM240.033 316.117C241.303 317.457 242.583 318.807 243.883 320.127L244.263 320.507C244.603 318.707 244.973 316.907 245.353 315.107C243.573 315.447 241.813 315.777 240.033 316.117L240.033 316.117ZM244.963 321.217C246.703 322.967 248.453 324.697 250.243 326.387L250.733 322.787L251.153 319.317C249.083 319.937 247.033 320.597 244.963 321.217L244.963 321.217ZM250.573 326.707C251.283 327.367 252.003 328.037 252.743 328.687C253.913 329.767 255.123 330.817 256.343 331.837C256.463 329.307 256.603 326.784 256.763 324.267C254.693 325.077 252.633 325.877 250.573 326.707L250.573 326.707ZM263.363 329.417C261.293 330.457 259.213 331.467 257.143 332.507C258.799 333.872 260.525 335.151 262.313 336.337C262.673 336.587 263.033 336.817 263.403 337.037L263.363 329.417ZM270.643 332.097C268.533 333.917 266.383 335.687 264.253 337.487C264.235 337.5 264.215 337.507 264.193 337.507C265.311 338.165 266.485 338.72 267.703 339.167C268.718 339.574 269.799 339.791 270.893 339.807C271.622 339.809 272.346 339.683 273.033 339.437C272.213 336.987 271.423 334.547 270.643 332.097L270.643 332.097ZM235.703 311.517C236.883 312.787 238.073 314.067 239.273 315.317C239.713 313.657 240.203 312.007 240.663 310.337C239.013 310.757 237.36 311.15 235.703 311.517L235.703 311.517ZM240.033 316.117C241.303 317.457 242.583 318.807 243.883 320.127L244.263 320.507C244.603 318.707 244.973 316.907 245.353 315.107C243.573 315.447 241.813 315.777 240.033 316.117L240.033 316.117ZM244.963 321.217C246.703 322.967 248.453 324.697 250.243 326.387L250.733 322.787L251.153 319.317C249.083 319.937 247.033 320.597 244.963 321.217L244.963 321.217ZM250.573 326.707C251.283 327.367 252.003 328.037 252.743 328.687C253.913 329.767 255.123 330.817 256.343 331.837C256.463 329.307 256.603 326.784 256.763 324.267C254.693 325.077 252.633 325.877 250.573 326.707L250.573 326.707ZM263.363 329.417C261.293 330.457 259.213 331.467 257.143 332.507C258.799 333.872 260.525 335.151 262.313 336.337C262.673 336.587 263.033 336.817 263.403 337.037L263.363 329.417ZM270.643 332.097C268.533 333.917 266.383 335.687 264.253 337.487C264.235 337.5 264.214 337.507 264.193 337.507C265.311 338.165 266.485 338.72 267.703 339.167C268.718 339.574 269.799 339.791 270.893 339.807C271.622 339.809 272.346 339.683 273.033 339.437C272.213 336.987 271.423 334.547 270.643 332.097L270.643 332.097ZM235.703 311.517C236.883 312.787 238.073 314.067 239.273 315.317C239.713 313.657 240.203 312.007 240.663 310.337C239.013 310.757 237.36 311.15 235.703 311.517L235.703 311.517ZM240.033 316.117C241.303 317.457 242.583 318.807 243.883 320.127L244.263 320.507C244.603 318.707 244.973 316.907 245.353 315.107C243.573 315.447 241.813 315.777 240.033 316.117L240.033 316.117ZM244.963 321.217C246.703 322.967 248.453 324.697 250.243 326.387L250.733 322.787L251.153 319.317C249.083 319.937 247.033 320.597 244.963 321.217L244.963 321.217ZM250.573 326.707C251.283 327.367 252.003 328.037 252.743 328.687C253.913 329.767 255.123 330.817 256.343 331.837C256.463 329.307 256.603 326.784 256.763 324.267C254.693 325.077 252.633 325.877 250.573 326.707L250.573 326.707ZM263.363 329.417C261.293 330.457 259.213 331.467 257.143 332.507C258.799 333.872 260.524 335.151 262.313 336.337C262.673 336.587 263.033 336.817 263.403 337.037L263.363 329.417ZM270.643 332.097C268.533 333.917 266.383 335.687 264.253 337.487C264.235 337.5 264.214 337.507 264.193 337.507C265.311 338.165 266.485 338.72 267.703 339.167C268.718 339.574 269.799 339.791 270.893 339.807C271.622 339.809 272.346 339.683 273.033 339.437C272.213 336.987 271.423 334.547 270.643 332.097L270.643 332.097ZM235.703 311.517C236.883 312.787 238.073 314.067 239.273 315.317C239.713 313.657 240.203 312.007 240.663 310.337C239.013 310.757 237.36 311.15 235.703 311.517L235.703 311.517ZM240.033 316.117C241.303 317.457 242.583 318.807 243.883 320.127L244.263 320.507C244.603 318.707 244.973 316.907 245.353 315.107C243.573 315.447 241.813 315.777 240.033 316.117L240.033 316.117ZM244.963 321.217C246.703 322.967 248.453 324.697 250.243 326.387L250.733 322.787L251.153 319.317C249.083 319.937 247.033 320.597 244.963 321.217L244.963 321.217ZM250.573 326.707C251.283 327.367 252.003 328.037 252.743 328.687C253.913 329.767 255.123 330.817 256.343 331.837C256.463 329.307 256.603 326.784 256.763 324.267C254.693 325.077 252.633 325.877 250.573 326.707L250.573 326.707ZM263.363 329.417C261.293 330.457 259.213 331.467 257.143 332.507C258.799 333.872 260.524 335.151 262.313 336.337C262.673 336.587 263.033 336.817 263.403 337.037L263.363 329.417ZM270.643 332.097C268.533 333.917 266.383 335.687 264.253 337.487C264.235 337.5 264.214 337.507 264.193 337.507C265.311 338.165 266.485 338.72 267.703 339.167C268.718 339.574 269.799 339.791 270.893 339.807C271.622 339.809 272.346 339.683 273.033 339.437C272.213 336.987 271.423 334.547 270.643 332.097L270.643 332.097ZM235.703 311.517C236.883 312.787 238.073 314.067 239.273 315.317C239.713 313.657 240.203 312.007 240.663 310.337C239.013 310.757 237.36 311.15 235.703 311.517L235.703 311.517ZM240.033 316.117C241.303 317.457 242.583 318.807 243.883 320.127L244.263 320.507C244.603 318.707 244.973 316.907 245.353 315.107C243.573 315.447 241.813 315.777 240.033 316.117L240.033 316.117ZM244.963 321.217C246.703 322.967 248.453 324.697 250.243 326.387L250.733 322.787L251.153 319.317C249.083 319.937 247.033 320.597 244.963 321.217L244.963 321.217ZM250.573 326.707C251.283 327.367 252.003 328.037 252.743 328.687C253.913 329.767 255.123 330.817 256.343 331.837C256.463 329.307 256.603 326.784 256.763 324.267C254.693 325.077 252.633 325.877 250.573 326.707L250.573 326.707ZM263.363 329.417C261.293 330.457 259.213 331.467 257.143 332.507C258.799 333.872 260.524 335.151 262.313 336.337C262.673 336.587 263.033 336.817 263.403 337.037L263.363 329.417ZM270.643 332.097C268.533 333.917 266.383 335.687 264.253 337.487C264.235 337.5 264.214 337.507 264.193 337.507C265.31 338.165 266.485 338.72 267.703 339.167C268.718 339.574 269.799 339.791 270.893 339.807C271.622 339.809 272.346 339.684 273.033 339.437C272.213 336.987 271.423 334.547 270.643 332.097L270.643 332.097ZM274.463 360.187C273.273 361.627 272.093 363.057 270.893 364.477C272.733 364.957 274.573 365.397 276.443 365.767C275.763 363.917 275.113 362.057 274.463 360.187L274.463 360.187ZM282.593 363.697L281.413 360.637C280.123 362.427 278.823 364.207 277.523 365.997C279.483 366.407 281.443 366.767 283.423 367.067C283.603 367.087 283.783 367.107 283.973 367.137C283.503 365.997 283.033 364.847 282.593 363.697L282.593 363.697ZM288.283 360.457C287.133 362.707 286.043 364.997 284.933 367.277C287.303 367.617 289.693 367.897 292.073 368.087C290.833 365.537 289.583 362.977 288.283 360.457L288.283 360.457ZM297.183 361.537L292.773 368.157C294.043 368.247 295.313 368.327 296.583 368.357C297.893 368.407 299.203 368.407 300.513 368.397L297.183 361.537ZM305.673 361.287C304.383 363.657 303.073 366.007 301.763 368.357C304.438 368.279 307.109 368.066 309.763 367.717C309.837 367.708 309.91 367.695 309.983 367.677C308.513 365.557 307.113 363.417 305.673 361.287L305.673 361.287ZM314.483 359.457C313.343 362.147 312.173 364.807 311.013 367.487C312.768 367.213 314.503 366.815 316.203 366.297C317.765 365.909 319.294 365.394 320.773 364.757L320.783 363.697C318.673 362.297 316.573 360.884 314.483 359.457L314.483 359.457ZM366.523 256.857L325.943 227.917C321.448 224.906 316.327 222.959 310.967 222.225C305.608 221.49 300.151 221.987 295.013 223.677C287.493 226.247 279.583 231.767 273.553 242.917C273.553 242.917 247.023 293.227 235.383 311.167C235.463 311.247 235.552 311.347 235.623 311.427C235.624 311.427 235.625 311.427 235.626 311.427C235.628 311.426 235.629 311.425 235.63 311.424C235.631 311.424 235.631 311.422 235.632 311.421C235.632 311.42 235.633 311.419 235.633 311.417C237.413 310.817 239.196 310.244 240.983 309.697C241.017 309.684 241.054 309.679 241.091 309.681C241.128 309.683 241.165 309.693 241.197 309.71C241.23 309.727 241.26 309.75 241.283 309.779C241.306 309.808 241.323 309.842 241.333 309.877C241.343 309.923 241.343 309.971 241.333 310.017V310.037C240.933 311.767 240.553 313.507 240.123 315.247C242.042 314.837 243.956 314.437 245.863 314.047C245.986 314.023 246.114 314.048 246.218 314.118C246.323 314.187 246.396 314.294 246.423 314.417C246.433 314.484 246.433 314.551 246.423 314.617C245.983 316.557 245.563 318.497 245.083 320.437C247.153 319.907 249.253 319.407 251.333 318.857C251.357 318.85 251.384 318.849 251.409 318.852C251.435 318.855 251.46 318.864 251.482 318.877C251.504 318.89 251.524 318.907 251.539 318.928C251.555 318.949 251.566 318.972 251.573 318.997C251.581 319.02 251.584 319.044 251.583 319.067L251.053 322.827L250.633 326.257C252.773 325.327 254.896 324.381 257.003 323.417C257.086 323.379 257.182 323.376 257.268 323.408C257.354 323.439 257.424 323.504 257.463 323.587C257.482 323.631 257.492 323.679 257.493 323.727V323.747C257.463 326.267 257.409 328.781 257.333 331.287C259.443 330.197 261.553 329.087 263.663 328.017C263.796 327.95 263.95 327.937 264.092 327.982C264.234 328.027 264.352 328.126 264.423 328.257C264.462 328.338 264.483 328.427 264.483 328.517L264.443 336.017C266.493 334.417 268.533 332.807 270.593 331.237L270.613 331.227C270.648 331.199 270.688 331.178 270.732 331.166C270.775 331.154 270.821 331.151 270.865 331.156C270.91 331.162 270.953 331.176 270.992 331.199C271.031 331.221 271.065 331.251 271.093 331.287C271.115 331.325 271.132 331.365 271.143 331.407C271.833 334.057 272.496 336.717 273.133 339.387C273.293 339.329 273.45 339.262 273.603 339.187C271.843 340.367 269.513 340.247 267.543 339.667C265.554 339.026 263.652 338.139 261.883 337.027C258.379 334.808 255.082 332.278 252.033 329.467C249.003 326.647 246.063 323.737 243.293 320.677C240.623 317.727 238.053 314.697 235.643 311.517C235.623 311.507 235.603 311.507 235.603 311.487C235.603 311.477 235.613 311.477 235.613 311.467C235.543 311.367 235.453 311.277 235.383 311.167C233.113 314.678 231.413 316.948 230.583 317.367C230.583 317.367 253.193 347.767 272.803 351.287C273.443 343.567 274.243 335.847 275.383 328.167C276.483 320.487 277.823 312.827 279.483 305.237C281.071 297.613 283.186 290.109 285.813 282.777C287.132 279.089 288.782 275.528 290.743 272.137C291.757 270.445 292.991 268.895 294.413 267.527C295.139 266.843 295.987 266.301 296.913 265.928C297.367 265.729 297.863 265.64 298.358 265.67C298.854 265.699 299.335 265.846 299.763 266.097C299.33 265.898 298.857 265.804 298.381 265.821C297.905 265.838 297.44 265.967 297.023 266.198C296.184 266.636 295.43 267.218 294.793 267.917C293.528 269.344 292.462 270.935 291.623 272.647C289.901 276.079 288.46 279.644 287.313 283.307C286.123 286.957 285.073 290.678 284.133 294.407C283.163 298.147 282.263 301.897 281.483 305.678C279.803 313.217 278.373 320.817 276.963 328.417L272.803 351.287L270.413 364.367C270.533 364.397 270.653 364.417 270.773 364.447C271.943 362.787 273.133 361.137 274.343 359.477C274.386 359.422 274.449 359.386 274.518 359.376C274.587 359.367 274.657 359.385 274.713 359.427C274.757 359.458 274.791 359.499 274.813 359.547V359.557C275.563 361.427 276.333 363.307 277.073 365.187C278.433 363.247 279.783 361.297 281.163 359.377C281.235 359.274 281.345 359.204 281.469 359.182C281.592 359.159 281.719 359.186 281.823 359.257C281.894 359.319 281.951 359.393 281.993 359.477L283.423 363.387C283.803 364.437 284.163 365.497 284.533 366.567C285.733 364.367 286.953 362.167 288.113 359.947C288.135 359.902 288.173 359.868 288.22 359.851C288.267 359.834 288.318 359.836 288.363 359.857C288.393 359.887 288.423 359.917 288.453 359.947C289.733 362.617 291.073 365.237 292.433 367.867L296.903 360.517C296.958 360.426 297.047 360.36 297.15 360.334C297.253 360.308 297.362 360.323 297.453 360.377C297.508 360.423 297.555 360.477 297.593 360.537L297.603 360.547L301.123 367.377C302.453 364.907 303.773 362.417 305.143 359.957L305.153 359.947C305.187 359.884 305.233 359.828 305.289 359.783C305.345 359.738 305.409 359.704 305.478 359.685C305.548 359.665 305.62 359.659 305.691 359.668C305.762 359.677 305.831 359.701 305.893 359.737C305.974 359.775 306.041 359.838 306.083 359.917C307.523 362.097 308.973 364.267 310.393 366.457C311.603 363.907 312.783 361.347 314.023 358.817V358.787C314.068 358.71 314.14 358.652 314.226 358.626C314.311 358.6 314.403 358.608 314.483 358.647C314.498 358.659 314.515 358.669 314.533 358.677C316.633 360.247 318.713 361.837 320.793 363.437L320.903 355.337C320.714 355.42 320.509 355.461 320.303 355.457C319.892 355.441 319.503 355.267 319.218 354.97C318.932 354.674 318.773 354.278 318.773 353.867C318.773 353.456 318.932 353.06 319.218 352.764C319.503 352.467 319.892 352.293 320.303 352.277C320.524 352.27 320.743 352.314 320.943 352.407L321.783 291.187C321.783 291.187 321.223 279.847 335.243 275.937L379.133 276.307C379.133 276.307 371.683 265.667 366.523 256.857L366.523 256.857ZM241.263 306.907C240.851 306.895 240.46 306.722 240.173 306.426C239.886 306.131 239.725 305.735 239.725 305.322C239.725 304.91 239.886 304.514 240.173 304.218C240.46 303.922 240.851 303.75 241.263 303.737C241.674 303.751 242.063 303.924 242.349 304.22C242.635 304.515 242.795 304.911 242.795 305.322C242.795 305.733 242.636 306.129 242.35 306.424C242.064 306.72 241.674 306.893 241.263 306.907L241.263 306.907ZM245.323 312.247C244.911 312.231 244.522 312.057 244.237 311.761C243.952 311.464 243.793 311.069 243.793 310.657C243.793 310.246 243.952 309.85 244.237 309.554C244.522 309.258 244.911 309.083 245.323 309.067C245.733 309.084 246.121 309.259 246.405 309.555C246.69 309.851 246.849 310.246 246.849 310.657C246.849 311.068 246.69 311.462 246.406 311.759C246.121 312.055 245.734 312.23 245.323 312.247L245.323 312.247ZM251.553 316.947C251.142 316.933 250.753 316.76 250.467 316.464C250.182 316.168 250.023 315.773 250.023 315.362C250.023 314.951 250.182 314.557 250.467 314.261C250.753 313.965 251.142 313.792 251.553 313.777C251.962 313.793 252.35 313.967 252.635 314.262C252.919 314.558 253.078 314.952 253.078 315.362C253.078 315.772 252.92 316.166 252.635 316.462C252.351 316.758 251.963 316.931 251.553 316.947L251.553 316.947ZM257.403 321.527C256.99 321.513 256.599 321.34 256.312 321.043C256.025 320.747 255.865 320.35 255.865 319.937C255.865 319.525 256.025 319.128 256.312 318.831C256.599 318.535 256.99 318.361 257.403 318.347C257.814 318.362 258.204 318.536 258.49 318.833C258.776 319.129 258.936 319.525 258.936 319.937C258.936 320.349 258.776 320.745 258.49 321.041C258.205 321.338 257.815 321.512 257.403 321.527L257.403 321.527ZM263.753 325.587C263.342 325.573 262.953 325.399 262.667 325.104C262.382 324.808 262.223 324.413 262.223 324.002C262.223 323.591 262.382 323.196 262.667 322.901C262.953 322.605 263.342 322.432 263.753 322.417C264.163 322.433 264.55 322.606 264.835 322.902C265.12 323.197 265.279 323.592 265.279 324.002C265.279 324.412 265.12 324.806 264.835 325.102C264.551 325.397 264.163 325.571 263.753 325.587L263.753 325.587ZM271.253 328.897C270.84 328.883 270.449 328.71 270.162 328.413C269.876 328.116 269.715 327.72 269.715 327.307C269.715 326.895 269.876 326.498 270.162 326.201C270.449 325.905 270.84 325.731 271.253 325.717C271.664 325.732 272.054 325.906 272.34 326.203C272.626 326.499 272.786 326.895 272.786 327.307C272.786 327.719 272.626 328.115 272.34 328.411C272.054 328.708 271.665 328.882 271.253 328.897L271.253 328.897ZM234.163 317.587C233.765 317.573 233.388 317.405 233.112 317.119C232.836 316.833 232.681 316.45 232.681 316.052C232.681 315.654 232.836 315.272 233.112 314.986C233.388 314.699 233.765 314.531 234.163 314.517C234.56 314.532 234.935 314.701 235.211 314.987C235.486 315.273 235.64 315.655 235.64 316.052C235.64 316.449 235.486 316.831 235.211 317.117C234.936 317.403 234.56 317.572 234.163 317.587L234.163 317.587ZM239.573 323.737C239.174 323.724 238.797 323.557 238.519 323.27C238.242 322.984 238.087 322.601 238.087 322.202C238.087 321.804 238.242 321.421 238.519 321.134C238.797 320.848 239.174 320.68 239.573 320.667C239.97 320.681 240.346 320.849 240.623 321.136C240.899 321.422 241.053 321.804 241.053 322.202C241.053 322.6 240.899 322.982 240.623 323.268C240.347 323.554 239.971 323.723 239.573 323.737L239.573 323.737ZM245.233 329.637C244.835 329.623 244.458 329.455 244.182 329.169C243.905 328.883 243.751 328.5 243.751 328.102C243.751 327.704 243.905 327.322 244.182 327.036C244.458 326.749 244.835 326.581 245.233 326.567C245.629 326.582 246.005 326.751 246.281 327.037C246.556 327.323 246.71 327.705 246.71 328.102C246.71 328.499 246.556 328.881 246.281 329.167C246.006 329.453 245.63 329.622 245.233 329.637L245.233 329.637ZM251.383 336.287C250.983 336.274 250.605 336.106 250.327 335.818C250.049 335.531 249.894 335.147 249.894 334.747C249.894 334.348 250.049 333.964 250.327 333.676C250.605 333.389 250.983 333.221 251.383 333.207C251.781 333.222 252.159 333.39 252.435 333.678C252.712 333.965 252.867 334.348 252.867 334.747C252.867 335.146 252.713 335.529 252.436 335.816C252.159 336.104 251.782 336.272 251.383 336.287L251.383 336.287ZM257.533 341.697C257.133 341.684 256.755 341.516 256.477 341.228C256.199 340.941 256.044 340.557 256.044 340.157C256.044 339.758 256.199 339.374 256.477 339.086C256.755 338.799 257.133 338.631 257.533 338.617C257.931 338.632 258.309 338.801 258.585 339.088C258.862 339.375 259.017 339.758 259.017 340.157C259.017 340.556 258.863 340.939 258.586 341.226C258.309 341.514 257.932 341.682 257.533 341.697L257.533 341.697ZM264.173 345.627C263.774 345.615 263.395 345.448 263.117 345.162C262.839 344.875 262.684 344.492 262.684 344.092C262.684 343.693 262.839 343.31 263.117 343.023C263.395 342.737 263.774 342.57 264.173 342.557C264.571 342.571 264.948 342.738 265.225 343.024C265.502 343.311 265.657 343.693 265.657 344.092C265.657 344.49 265.502 344.873 265.226 345.16C264.949 345.446 264.571 345.614 264.173 345.627L264.173 345.627ZM270.812 348.587C270.413 348.574 270.034 348.406 269.757 348.118C269.479 347.831 269.324 347.447 269.324 347.047C269.324 346.648 269.479 346.264 269.757 345.976C270.034 345.689 270.413 345.521 270.812 345.507C271.211 345.522 271.588 345.691 271.865 345.978C272.142 346.265 272.296 346.648 272.297 347.047C272.297 347.446 272.142 347.829 271.865 348.116C271.589 348.403 271.212 348.572 270.813 348.587L270.812 348.587ZM275.062 355.457C274.651 355.441 274.262 355.267 273.977 354.971C273.692 354.674 273.532 354.279 273.532 353.867C273.532 353.456 273.692 353.06 273.977 352.764C274.262 352.468 274.651 352.293 275.062 352.277C275.473 352.294 275.861 352.469 276.145 352.765C276.429 353.061 276.588 353.456 276.588 353.867C276.588 354.277 276.43 354.672 276.145 354.969C275.861 355.265 275.473 355.44 275.063 355.457L275.062 355.457ZM283.193 356.977C282.782 356.962 282.393 356.789 282.108 356.493C281.823 356.198 281.664 355.803 281.664 355.392C281.664 354.982 281.823 354.587 282.108 354.291C282.393 353.996 282.782 353.822 283.193 353.807C283.602 353.823 283.99 353.997 284.275 354.292C284.559 354.588 284.718 354.982 284.718 355.392C284.718 355.802 284.56 356.196 284.275 356.492C283.991 356.787 283.603 356.961 283.193 356.977L283.193 356.977ZM292.602 357.997C292.19 357.983 291.799 357.81 291.512 357.513C291.225 357.217 291.065 356.82 291.065 356.407C291.065 355.995 291.225 355.598 291.512 355.301C291.799 355.005 292.19 354.831 292.602 354.817C293.014 354.832 293.404 355.006 293.69 355.303C293.976 355.599 294.136 355.995 294.136 356.407C294.136 356.819 293.976 357.215 293.69 357.511C293.404 357.808 293.015 357.982 292.603 357.997L292.602 357.997ZM303.022 357.867C302.61 357.855 302.219 357.682 301.932 357.387C301.645 357.091 301.485 356.695 301.485 356.282C301.485 355.87 301.645 355.474 301.932 355.178C302.219 354.882 302.61 354.71 303.022 354.697C303.434 354.711 303.824 354.884 304.11 355.18C304.396 355.475 304.556 355.87 304.556 356.282C304.556 356.693 304.396 357.089 304.11 357.385C303.824 357.68 303.434 357.853 303.023 357.867L303.022 357.867ZM312.422 356.727C312.011 356.711 311.622 356.537 311.337 356.241C311.052 355.944 310.892 355.549 310.892 355.137C310.892 354.726 311.052 354.33 311.337 354.034C311.622 353.738 312.011 353.563 312.422 353.547C312.833 353.564 313.221 353.739 313.505 354.035C313.79 354.331 313.949 354.726 313.949 355.137C313.949 355.547 313.79 355.942 313.506 356.239C313.222 356.535 312.834 356.71 312.423 356.727L312.422 356.727ZM311.012 367.487C312.768 367.213 314.503 366.815 316.203 366.297C317.765 365.909 319.294 365.394 320.772 364.757L320.782 363.697C318.672 362.297 316.572 360.884 314.482 359.457C313.343 362.147 312.173 364.807 311.013 367.487L311.012 367.487ZM301.762 368.357C304.438 368.279 307.108 368.066 309.762 367.717C309.836 367.708 309.91 367.695 309.982 367.677C308.512 365.557 307.112 363.417 305.673 361.287C304.383 363.657 303.073 366.007 301.763 368.357L301.762 368.357ZM292.772 368.157C294.042 368.247 295.312 368.327 296.582 368.357C297.892 368.407 299.203 368.407 300.512 368.397L297.182 361.537L292.772 368.157ZM284.932 367.277C287.302 367.617 289.692 367.897 292.072 368.087C290.832 365.537 289.582 362.977 288.282 360.457C287.133 362.707 286.043 364.997 284.933 367.277L284.932 367.277ZM281.412 360.637C280.122 362.427 278.822 364.207 277.522 365.997C279.482 366.407 281.443 366.767 283.422 367.067C283.602 367.087 283.782 367.107 283.972 367.137C283.502 365.997 283.032 364.847 282.592 363.697L281.412 360.637ZM270.892 364.477C272.732 364.957 274.572 365.397 276.442 365.767C275.762 363.917 275.112 362.057 274.462 360.187C273.273 361.627 272.093 363.057 270.893 364.477L270.892 364.477ZM270.892 339.807C271.622 339.809 272.346 339.683 273.032 339.437C272.213 336.987 271.422 334.547 270.642 332.097C268.532 333.917 266.382 335.687 264.252 337.487C264.235 337.5 264.214 337.507 264.193 337.507C265.31 338.165 266.485 338.72 267.703 339.167C268.718 339.574 269.799 339.791 270.893 339.807L270.892 339.807ZM263.402 337.037L263.362 329.417C261.292 330.457 259.213 331.467 257.142 332.507C258.798 333.872 260.524 335.151 262.312 336.337C262.673 336.587 263.033 336.817 263.403 337.037L263.402 337.037ZM252.742 328.687C253.913 329.767 255.122 330.817 256.342 331.837C256.463 329.307 256.603 326.784 256.762 324.267C254.693 325.077 252.632 325.877 250.572 326.707C251.283 327.367 252.003 328.037 252.743 328.687L252.742 328.687ZM250.242 326.387L250.732 322.787L251.153 319.317C249.082 319.937 247.033 320.597 244.963 321.217C246.703 322.967 248.453 324.697 250.243 326.387L250.242 326.387ZM243.882 320.127L244.262 320.507C244.602 318.707 244.972 316.907 245.352 315.107C243.572 315.447 241.812 315.777 240.032 316.117C241.303 317.457 242.583 318.807 243.883 320.127L243.882 320.127ZM240.662 310.337C239.012 310.757 237.359 311.151 235.702 311.517C236.882 312.787 238.072 314.067 239.272 315.317C239.713 313.657 240.203 312.007 240.663 310.337L240.662 310.337ZM314.482 359.457C313.342 362.147 312.172 364.807 311.012 367.487C312.768 367.213 314.502 366.815 316.202 366.297C317.765 365.909 319.294 365.394 320.772 364.757L320.782 363.697C318.673 362.297 316.573 360.884 314.483 359.457L314.482 359.457ZM316.362 366.787C314.248 367.514 312.086 368.096 309.892 368.527C305.484 369.243 301.017 369.541 296.552 369.417C292.097 369.224 287.661 368.703 283.282 367.857C281.192 367.457 279.122 366.977 277.062 366.437C277.007 366.451 276.949 366.454 276.892 366.445C276.836 366.437 276.781 366.417 276.732 366.387C276.722 366.377 276.722 366.367 276.712 366.357C274.732 365.827 272.782 365.211 270.862 364.507C270.832 364.547 270.802 364.547 270.782 364.517C270.779 364.513 270.776 364.509 270.774 364.503C270.772 364.498 270.772 364.493 270.772 364.487C270.652 364.448 270.532 364.408 270.412 364.367L268.532 374.667C268.532 374.667 297.352 385.967 320.632 374.667L320.772 364.957C319.353 365.682 317.879 366.294 316.363 366.787L316.362 366.787ZM276.502 373.537C276.45 373.589 276.393 373.636 276.332 373.677C276.252 373.732 276.165 373.776 276.072 373.807C276.02 373.838 275.962 373.858 275.902 373.867C275.852 373.877 275.802 373.887 275.742 373.897C275.66 373.909 275.576 373.916 275.492 373.917C275.094 373.905 274.715 373.738 274.437 373.451C274.159 373.165 274.004 372.781 274.004 372.382C274.004 371.983 274.159 371.6 274.437 371.313C274.715 371.027 275.094 370.86 275.492 370.847C275.716 370.846 275.937 370.89 276.142 370.977C276.209 371.008 276.273 371.045 276.332 371.087C276.393 371.128 276.45 371.175 276.502 371.227C276.762 371.5 276.923 371.853 276.959 372.228C276.995 372.603 276.905 372.979 276.702 373.297C276.647 373.386 276.58 373.466 276.503 373.537L276.502 373.537ZM283.612 376.367C283.213 376.355 282.835 376.188 282.557 375.902C282.279 375.615 282.124 375.232 282.124 374.832C282.124 374.433 282.279 374.05 282.557 373.763C282.835 373.477 283.213 373.31 283.612 373.297C284.011 373.311 284.388 373.478 284.665 373.764C284.942 374.051 285.097 374.433 285.097 374.832C285.097 375.23 284.942 375.613 284.666 375.9C284.389 376.186 284.011 376.354 283.613 376.367L283.612 376.367ZM291.472 377.357C291.073 377.345 290.695 377.178 290.417 376.892C290.139 376.605 289.984 376.222 289.984 375.822C289.984 375.423 290.139 375.04 290.417 374.753C290.695 374.467 291.073 374.3 291.472 374.287C291.871 374.301 292.248 374.468 292.525 374.754C292.802 375.041 292.957 375.423 292.957 375.822C292.957 376.22 292.802 376.603 292.526 376.89C292.249 377.176 291.871 377.344 291.473 377.357L291.472 377.357ZM300.082 377.117C299.683 377.105 299.305 376.938 299.027 376.652C298.749 376.365 298.594 375.982 298.594 375.582C298.594 375.183 298.749 374.8 299.027 374.513C299.305 374.227 299.683 374.06 300.082 374.047C300.481 374.061 300.858 374.228 301.135 374.514C301.412 374.801 301.567 375.183 301.567 375.582C301.567 375.98 301.412 376.363 301.136 376.65C300.859 376.936 300.481 377.104 300.083 377.117L300.082 377.117ZM308.693 375.887C308.294 375.875 307.915 375.708 307.637 375.422C307.359 375.135 307.204 374.752 307.204 374.352C307.204 373.953 307.359 373.57 307.637 373.283C307.915 372.997 308.294 372.83 308.693 372.817C309.091 372.831 309.468 372.998 309.745 373.284C310.022 373.571 310.177 373.953 310.177 374.352C310.177 374.75 310.022 375.133 309.746 375.42C309.469 375.706 309.091 375.874 308.693 375.887L308.693 375.887ZM316.082 373.917C315.683 373.905 315.305 373.738 315.027 373.451C314.749 373.165 314.594 372.781 314.594 372.382C314.594 371.983 314.749 371.6 315.027 371.313C315.305 371.027 315.683 370.86 316.082 370.847C316.481 370.861 316.858 371.028 317.135 371.314C317.412 371.601 317.567 371.983 317.567 372.382C317.567 372.78 317.412 373.163 317.135 373.449C316.859 373.736 316.481 373.903 316.083 373.917L316.082 373.917ZM305.673 361.287C304.382 363.657 303.072 366.007 301.762 368.357C304.438 368.279 307.108 368.066 309.762 367.717C309.836 367.708 309.91 367.695 309.982 367.677C308.513 365.557 307.113 363.417 305.673 361.287L305.673 361.287ZM297.183 361.537L292.773 368.157C294.042 368.247 295.312 368.327 296.582 368.357C297.893 368.407 299.203 368.407 300.512 368.397L297.183 361.537ZM288.282 360.457C287.132 362.707 286.042 364.997 284.933 367.277C287.302 367.617 289.692 367.897 292.072 368.087C290.833 365.537 289.583 362.977 288.283 360.457L288.282 360.457ZM282.592 363.697L281.412 360.637C280.122 362.427 278.822 364.207 277.523 365.997C279.483 366.407 281.443 366.767 283.423 367.067C283.602 367.087 283.783 367.107 283.972 367.137C283.503 365.997 283.033 364.847 282.593 363.697L282.592 363.697ZM274.463 360.187C273.272 361.627 272.092 363.057 270.892 364.477C272.732 364.957 274.572 365.397 276.442 365.767C275.763 363.917 275.113 362.057 274.463 360.187L274.463 360.187ZM270.643 332.097C268.533 333.917 266.383 335.687 264.253 337.487C264.236 337.5 264.215 337.507 264.193 337.507C265.311 338.165 266.486 338.72 267.703 339.167C268.718 339.574 269.8 339.791 270.893 339.807C271.623 339.808 272.347 339.683 273.033 339.437C272.213 336.987 271.423 334.547 270.643 332.097ZM263.363 329.417C261.293 330.457 259.213 331.467 257.143 332.507C258.799 333.872 260.525 335.151 262.313 336.337C262.673 336.587 263.033 336.817 263.403 337.037L263.363 329.417ZM250.573 326.707C251.283 327.367 252.003 328.037 252.743 328.687C253.913 329.767 255.123 330.817 256.343 331.837C256.463 329.307 256.603 326.784 256.763 324.267C254.693 325.077 252.633 325.877 250.573 326.707H250.573ZM244.963 321.217C246.703 322.967 248.453 324.697 250.243 326.387L250.733 322.787L251.153 319.317C249.083 319.937 247.033 320.597 244.963 321.217H244.963ZM240.033 316.117C241.303 317.457 242.583 318.807 243.883 320.127L244.263 320.507C244.603 318.707 244.973 316.907 245.353 315.107C243.573 315.447 241.813 315.777 240.033 316.117ZM235.703 311.517C236.883 312.787 238.073 314.067 239.273 315.317C239.713 313.657 240.203 312.007 240.663 310.337C239.013 310.757 237.36 311.15 235.703 311.517V311.517ZM270.643 332.097C268.533 333.917 266.383 335.687 264.253 337.487C264.236 337.5 264.215 337.507 264.193 337.507C265.311 338.165 266.486 338.72 267.703 339.167C268.718 339.574 269.8 339.791 270.893 339.807C271.623 339.808 272.347 339.683 273.033 339.437C272.213 336.987 271.423 334.547 270.643 332.097ZM263.363 329.417C261.293 330.457 259.213 331.467 257.143 332.507C258.799 333.872 260.525 335.151 262.313 336.337C262.673 336.587 263.033 336.817 263.403 337.037L263.363 329.417ZM250.573 326.707C251.283 327.367 252.003 328.037 252.743 328.687C253.913 329.767 255.123 330.817 256.343 331.837C256.463 329.307 256.603 326.784 256.763 324.267C254.693 325.077 252.633 325.877 250.573 326.707H250.573ZM244.963 321.217C246.703 322.967 248.453 324.697 250.243 326.387L250.733 322.787L251.153 319.317C249.083 319.937 247.033 320.597 244.963 321.217H244.963ZM240.033 316.117C241.303 317.457 242.583 318.807 243.883 320.127L244.263 320.507C244.603 318.707 244.973 316.907 245.353 315.107C243.573 315.447 241.813 315.777 240.033 316.117ZM235.703 311.517C236.883 312.787 238.073 314.067 239.273 315.317C239.713 313.657 240.203 312.007 240.663 310.337C239.013 310.757 237.36 311.15 235.703 311.517V311.517ZM270.643 332.097C268.533 333.917 266.383 335.687 264.253 337.487C264.236 337.5 264.215 337.507 264.193 337.507C265.311 338.165 266.486 338.72 267.703 339.167C268.718 339.574 269.8 339.791 270.893 339.807C271.623 339.808 272.347 339.683 273.033 339.437C272.213 336.987 271.423 334.547 270.643 332.097ZM263.363 329.417C261.293 330.457 259.213 331.467 257.143 332.507C258.799 333.872 260.525 335.151 262.313 336.337C262.673 336.587 263.033 336.817 263.403 337.037L263.363 329.417ZM250.573 326.707C251.283 327.367 252.003 328.037 252.743 328.687C253.913 329.767 255.123 330.817 256.343 331.837C256.463 329.307 256.603 326.784 256.763 324.267C254.693 325.077 252.633 325.877 250.573 326.707H250.573ZM244.963 321.217C246.703 322.967 248.453 324.697 250.243 326.387L250.733 322.787L251.153 319.317C249.083 319.937 247.033 320.597 244.963 321.217H244.963ZM240.033 316.117C241.303 317.457 242.583 318.807 243.883 320.127L244.263 320.507C244.603 318.707 244.973 316.907 245.353 315.107C243.573 315.447 241.813 315.777 240.033 316.117ZM235.703 311.517C236.883 312.787 238.073 314.067 239.273 315.317C239.713 313.657 240.203 312.007 240.663 310.337C239.013 310.757 237.36 311.15 235.703 311.517V311.517ZM270.643 332.097C268.533 333.917 266.383 335.687 264.253 337.487C264.236 337.5 264.215 337.507 264.193 337.507C265.311 338.165 266.486 338.72 267.703 339.167C268.718 339.574 269.8 339.791 270.893 339.807C271.623 339.808 272.347 339.683 273.033 339.437C272.213 336.987 271.423 334.547 270.643 332.097ZM263.363 329.417C261.293 330.457 259.213 331.467 257.143 332.507C258.799 333.872 260.525 335.151 262.313 336.337C262.673 336.587 263.033 336.817 263.403 337.037L263.363 329.417ZM250.573 326.707C251.283 327.367 252.003 328.037 252.743 328.687C253.913 329.767 255.123 330.817 256.343 331.837C256.463 329.307 256.603 326.784 256.763 324.267C254.693 325.077 252.633 325.877 250.573 326.707H250.573ZM244.963 321.217C246.703 322.967 248.453 324.697 250.243 326.387L250.733 322.787L251.153 319.317C249.083 319.937 247.033 320.597 244.963 321.217H244.963ZM240.033 316.117C241.303 317.457 242.583 318.807 243.883 320.127L244.263 320.507C244.603 318.707 244.973 316.907 245.353 315.107C243.573 315.447 241.813 315.777 240.033 316.117ZM235.703 311.517C236.883 312.787 238.073 314.067 239.273 315.317C239.713 313.657 240.203 312.007 240.663 310.337C239.013 310.757 237.36 311.15 235.703 311.517V311.517ZM270.643 332.097C268.533 333.917 266.383 335.687 264.253 337.487C264.236 337.5 264.215 337.507 264.193 337.507C265.311 338.165 266.486 338.72 267.703 339.167C268.718 339.574 269.8 339.791 270.893 339.807C271.623 339.808 272.347 339.683 273.033 339.437C272.213 336.987 271.423 334.547 270.643 332.097ZM263.363 329.417C261.293 330.457 259.213 331.467 257.143 332.507C258.799 333.872 260.525 335.151 262.313 336.337C262.673 336.587 263.033 336.817 263.403 337.037L263.363 329.417ZM250.573 326.707C251.283 327.367 252.003 328.037 252.743 328.687C253.913 329.767 255.123 330.817 256.343 331.837C256.463 329.307 256.603 326.784 256.763 324.267C254.693 325.077 252.633 325.877 250.573 326.707H250.573ZM244.963 321.217C246.703 322.967 248.453 324.697 250.243 326.387L250.733 322.787L251.153 319.317C249.083 319.937 247.033 320.597 244.963 321.217H244.963ZM240.033 316.117C241.303 317.457 242.583 318.807 243.883 320.127L244.263 320.507C244.603 318.707 244.973 316.907 245.353 315.107C243.573 315.447 241.813 315.777 240.033 316.117ZM235.703 311.517C236.883 312.787 238.073 314.067 239.273 315.317C239.713 313.657 240.203 312.007 240.663 310.337C239.013 310.757 237.36 311.15 235.703 311.517V311.517ZM270.643 332.097C268.533 333.917 266.383 335.687 264.253 337.487C264.236 337.5 264.215 337.507 264.193 337.507C265.311 338.165 266.486 338.72 267.703 339.167C268.718 339.574 269.8 339.791 270.893 339.807C271.623 339.808 272.347 339.683 273.033 339.437C272.213 336.987 271.423 334.547 270.643 332.097ZM263.363 329.417C261.293 330.457 259.213 331.467 257.143 332.507C258.799 333.872 260.525 335.151 262.313 336.337C262.673 336.587 263.033 336.817 263.403 337.037L263.363 329.417ZM250.573 326.707C251.283 327.367 252.003 328.037 252.743 328.687C253.913 329.767 255.123 330.817 256.343 331.837C256.463 329.307 256.603 326.784 256.763 324.267C254.693 325.077 252.633 325.877 250.573 326.707H250.573ZM244.963 321.217C246.703 322.967 248.453 324.697 250.243 326.387L250.733 322.787L251.153 319.317C249.083 319.937 247.033 320.597 244.963 321.217H244.963ZM240.033 316.117C241.303 317.457 242.583 318.807 243.883 320.127L244.263 320.507C244.603 318.707 244.973 316.907 245.353 315.107C243.573 315.447 241.813 315.777 240.033 316.117ZM235.703 311.517C236.883 312.787 238.073 314.067 239.273 315.317C239.713 313.657 240.203 312.007 240.663 310.337C239.013 310.757 237.36 311.15 235.703 311.517V311.517ZM270.643 332.097C268.533 333.917 266.383 335.687 264.253 337.487C264.236 337.5 264.215 337.507 264.193 337.507C265.311 338.165 266.486 338.72 267.703 339.167C268.718 339.574 269.8 339.791 270.893 339.807C271.623 339.808 272.347 339.683 273.033 339.437C272.213 336.987 271.423 334.547 270.643 332.097ZM263.363 329.417C261.293 330.457 259.213 331.467 257.143 332.507C258.799 333.872 260.525 335.151 262.313 336.337C262.673 336.587 263.033 336.817 263.403 337.037L263.363 329.417ZM250.573 326.707C251.283 327.367 252.003 328.037 252.743 328.687C253.913 329.767 255.123 330.817 256.343 331.837C256.463 329.307 256.603 326.784 256.763 324.267C254.693 325.077 252.633 325.877 250.573 326.707H250.573ZM244.963 321.217C246.703 322.967 248.453 324.697 250.243 326.387L250.733 322.787L251.153 319.317C249.083 319.937 247.033 320.597 244.963 321.217H244.963ZM240.033 316.117C241.303 317.457 242.583 318.807 243.883 320.127L244.263 320.507C244.603 318.707 244.973 316.907 245.353 315.107C243.573 315.447 241.813 315.777 240.033 316.117ZM235.703 311.517C236.883 312.787 238.073 314.067 239.273 315.317C239.713 313.657 240.203 312.007 240.663 310.337C239.013 310.757 237.36 311.15 235.703 311.517V311.517Z" fill="#020202"/>
<path d="M426.097 166.989C426.496 166.975 426.874 166.807 427.151 166.521C427.428 166.234 427.582 165.851 427.582 165.452C427.582 165.053 427.428 164.67 427.151 164.383C426.874 164.096 426.496 163.928 426.097 163.915C425.699 163.928 425.321 164.096 425.044 164.383C424.767 164.67 424.612 165.053 424.612 165.452C424.612 165.851 424.767 166.234 425.044 166.521C425.321 166.807 425.699 166.975 426.097 166.989Z" fill="#020202"/>
<path d="M450.482 168.898C450.881 168.885 451.258 168.717 451.535 168.43C451.812 168.143 451.967 167.76 451.967 167.361C451.967 166.962 451.812 166.579 451.535 166.292C451.258 166.006 450.881 165.838 450.482 165.824C450.083 165.838 449.706 166.006 449.429 166.292C449.152 166.579 448.997 166.962 448.997 167.361C448.997 167.76 449.152 168.143 449.429 168.43C449.706 168.717 450.083 168.885 450.482 168.898Z" fill="#020202"/>
<path d="M430.476 178.017C430.503 178.587 430.393 179.155 430.157 179.674C429.929 180.201 429.609 180.682 429.21 181.095C428.807 181.513 428.32 181.842 427.781 182.06C427.25 182.287 426.669 182.366 426.097 182.289C426.564 181.942 427 181.689 427.386 181.364C427.774 181.064 428.139 180.734 428.477 180.379C429.173 179.683 429.763 178.894 430.476 178.017Z" fill="#020202"/>
<path d="M423.287 160.677C423.552 160.19 423.976 159.809 424.488 159.596C424.992 159.365 425.561 159.315 426.097 159.455C425.833 159.943 425.409 160.325 424.896 160.536C424.391 160.765 423.824 160.814 423.287 160.677Z" fill="#020202"/>
<path d="M452.063 170.447C451.904 170.723 451.673 170.951 451.395 171.105C451.116 171.26 450.801 171.336 450.483 171.325C450.163 171.325 449.847 171.245 449.566 171.093C449.286 170.947 449.055 170.723 448.901 170.447C449.539 170.49 450.001 170.565 450.484 170.557C451.012 170.552 451.539 170.515 452.063 170.447Z" fill="#020202"/>
<path d="M403.604 270.223C403.907 266.88 403.519 263.51 402.464 260.323C401.448 257.148 399.857 254.187 397.769 251.589C396.733 250.299 395.582 249.106 394.332 248.023L390.583 244.608C388.093 242.311 385.558 240.098 383.103 237.728C378.353 232.842 374.172 227.433 370.641 221.605C367.035 215.836 363.917 209.776 361.321 203.487C361.301 203.439 361.287 203.389 361.277 203.338L361.273 203.317C361.069 202.21 360.84 201.108 360.53 200.028C360.228 198.949 359.863 197.887 359.439 196.85C359.01 195.82 358.512 194.821 357.949 193.858C357.405 192.921 356.769 192.04 356.049 191.23L356.18 191.333C353.373 189.517 350.527 187.76 347.611 186.142C344.748 184.473 341.723 183.1 338.582 182.044C337.819 181.812 337.033 181.663 336.238 181.601C335.896 181.546 335.547 181.563 335.212 181.652C334.878 181.74 334.566 181.899 334.297 182.116C334.09 182.336 333.963 182.62 333.936 182.921C333.952 183.261 334.048 183.593 334.216 183.888C334.609 184.579 335.095 185.213 335.659 185.772C338.078 188.056 340.752 190.053 343.628 191.723C343.699 191.767 343.752 191.833 343.78 191.911C343.808 191.988 343.808 192.073 343.782 192.151C343.756 192.23 343.703 192.297 343.634 192.342C343.565 192.386 343.482 192.406 343.4 192.398C342.216 192.301 341.024 192.365 339.857 192.59C338.69 192.797 337.572 193.22 336.561 193.839C335.557 194.454 334.729 195.317 334.157 196.346C333.593 197.39 333.246 198.538 333.138 199.719C333.131 199.787 333.102 199.85 333.055 199.899L333.045 199.909C332.054 200.875 331.377 202.119 331.106 203.477C331.018 204.132 331.137 204.799 331.446 205.384C331.774 205.971 332.228 206.48 332.775 206.874L332.783 206.881C332.84 206.929 332.88 206.993 332.899 207.065C332.917 207.136 332.912 207.212 332.885 207.281C332.519 208.199 332.247 209.151 332.071 210.123C331.882 211.074 331.872 212.053 332.042 213.008C332.117 213.457 332.288 213.885 332.543 214.262C332.799 214.638 333.132 214.956 333.522 215.192C334.368 215.613 335.31 215.803 336.253 215.745L335.908 216.336L334.287 213.362C334.239 213.273 334.223 213.17 334.242 213.071C334.261 212.972 334.314 212.882 334.392 212.818C334.47 212.753 334.567 212.717 334.669 212.717C334.77 212.717 334.868 212.752 334.946 212.816C336.751 214.222 338.372 215.849 339.773 217.659C340.125 218.137 340.43 218.649 340.684 219.187C340.815 219.473 340.918 219.77 340.993 220.075C341.019 220.205 341.053 220.334 341.094 220.461C341.118 220.571 341.157 220.678 341.21 220.778C341.709 221.657 342.456 222.371 343.357 222.831C344.29 223.35 345.285 223.748 346.319 224.015C347.314 224.3 348.356 224.382 349.383 224.256C349.754 224.224 350.127 224.269 350.479 224.387C350.832 224.505 351.157 224.694 351.434 224.942C351.909 225.328 352.341 225.763 352.722 226.242C353.445 227.151 354.092 228.117 354.657 229.131C355.768 231.124 356.722 233.202 357.508 235.345C357.91 236.409 358.24 237.536 358.609 238.506C359.02 239.529 359.446 240.549 359.904 241.565C361.714 245.63 363.715 249.628 365.81 253.564C369.91 261.468 374.737 268.971 380.231 275.978C381.611 277.71 383.11 279.323 384.627 280.909L387.019 283.142C387.819 283.813 388.687 284.398 389.609 284.887C391.46 285.857 393.511 286.381 395.6 286.416C397.689 286.452 399.757 285.999 401.64 285.093L401.359 285.293L401.399 285.263L401.604 285.11C401.628 285.092 401.653 285.077 401.679 285.064C403.766 284.049 405.696 282.738 407.408 281.172C408.262 280.402 409.076 279.528 409.931 278.66L412.463 276.068L422.649 265.76L422.654 265.756C422.687 265.722 422.723 265.691 422.762 265.662C426.714 262.769 430.58 259.691 434.332 256.511C438.086 253.328 441.759 250.044 445.233 246.561C448.735 243.112 451.945 239.379 454.832 235.4C456.254 233.405 457.464 231.266 458.441 229.018C459.466 226.788 459.888 224.328 459.665 221.884C459.66 221.857 459.667 221.831 459.682 221.809C459.697 221.787 459.721 221.773 459.747 221.768C459.773 221.765 459.799 221.771 459.821 221.787C459.842 221.802 459.857 221.825 459.862 221.85C460.184 224.341 459.846 226.872 458.884 229.192C457.976 231.515 456.826 233.736 455.455 235.819C452.682 239.947 449.544 243.817 446.078 247.383C442.657 250.979 439.064 254.406 435.335 257.675C431.6 260.942 427.779 264.085 423.805 267.091L423.917 266.994L413.895 277.46L411.374 280.062C410.537 280.916 409.708 281.815 408.771 282.669C406.918 284.373 404.829 285.802 402.568 286.91L402.847 286.711L402.808 286.741L402.61 286.889C402.584 286.909 402.556 286.926 402.527 286.94C400.356 287.986 397.973 288.517 395.564 288.491C393.151 288.46 390.78 287.862 388.641 286.744C387.58 286.187 386.582 285.519 385.662 284.751L383.133 282.407C381.533 280.785 380.023 279.077 378.608 277.292C373.095 270.137 368.262 262.482 364.172 254.428C362.083 250.44 360.128 246.388 358.359 242.235C357.913 241.201 357.491 240.148 357.083 239.085C356.676 237.952 356.397 236.921 356.022 235.882C355.292 233.806 354.407 231.787 353.374 229.844C352.87 228.887 352.29 227.973 351.639 227.111C351.331 226.705 350.981 226.332 350.595 226C350.326 225.729 349.965 225.568 349.584 225.551C348.378 225.68 347.158 225.562 345.999 225.205C344.868 224.885 343.782 224.421 342.769 223.824C341.679 223.226 340.793 222.317 340.223 221.212C340.151 221.061 340.097 220.903 340.061 220.739C340.016 220.57 339.975 220.407 339.959 220.31C339.904 220.07 339.827 219.835 339.729 219.609C339.513 219.129 339.252 218.671 338.947 218.241C337.634 216.478 336.107 214.884 334.4 213.498L335.059 212.952L336.618 215.958L336.634 215.989C336.658 216.033 336.672 216.082 336.676 216.133C336.681 216.183 336.675 216.233 336.66 216.282C336.644 216.33 336.62 216.374 336.587 216.413C336.555 216.451 336.515 216.483 336.47 216.506C336.41 216.538 336.341 216.553 336.273 216.549C335.184 216.592 334.103 216.345 333.141 215.833C332.666 215.542 332.259 215.152 331.947 214.69C331.635 214.228 331.426 213.704 331.333 213.155C331.152 212.109 331.168 211.039 331.381 209.999C331.573 208.977 331.868 207.976 332.261 207.013L332.372 207.42C331.745 206.96 331.228 206.368 330.857 205.686C330.492 204.98 330.355 204.178 330.466 203.392C330.589 202.635 330.856 201.909 331.25 201.251C331.629 200.6 332.09 200 332.621 199.465L332.528 199.654C332.661 198.393 333.03 197.169 333.617 196.045C334.23 194.918 335.123 193.968 336.21 193.286C337.285 192.613 338.476 192.146 339.723 191.911C340.961 191.66 342.227 191.58 343.486 191.675L343.258 192.35C340.314 190.661 337.559 188.662 335.039 186.389C334.395 185.781 333.839 185.086 333.386 184.325C333.132 183.893 332.988 183.405 332.966 182.905C332.984 182.362 333.193 181.842 333.558 181.439C333.919 181.101 334.349 180.845 334.818 180.69C335.288 180.534 335.785 180.481 336.277 180.536C337.158 180.58 338.031 180.72 338.882 180.955C342.138 181.954 345.282 183.286 348.265 184.929C351.259 186.497 354.173 188.199 357.046 189.96L357.054 189.965C357.099 189.993 357.14 190.026 357.177 190.064C358.022 190.955 358.76 191.941 359.378 193.003C359.99 194.029 360.531 195.095 360.999 196.195C361.458 197.291 361.854 198.414 362.183 199.556C362.519 200.695 362.77 201.854 362.993 203.016L362.945 202.847C365.555 209.017 368.603 214.993 372.066 220.728C375.489 226.483 379.538 231.841 384.14 236.705C386.485 239.078 388.983 241.366 391.398 243.702L395.052 247.191C396.327 248.348 397.496 249.618 398.543 250.985C400.611 253.727 402.145 256.834 403.065 260.143C404.032 263.421 404.284 266.867 403.802 270.25C403.798 270.277 403.785 270.3 403.763 270.316C403.742 270.332 403.716 270.339 403.69 270.335C403.663 270.332 403.64 270.318 403.624 270.297C403.608 270.276 403.601 270.249 403.604 270.223L403.604 270.223Z" fill="black"/>
<path d="M332.584 206.617L334.889 207.23L332.546 207.675C332.405 207.701 332.259 207.67 332.141 207.589C332.023 207.508 331.941 207.383 331.915 207.242C331.888 207.101 331.918 206.956 331.998 206.837C332.078 206.718 332.202 206.636 332.343 206.608C332.423 206.593 332.505 206.596 332.584 206.617Z" fill="black"/>
<path d="M332.782 199.157L337.294 199.238L332.887 200.211C332.819 200.226 332.748 200.227 332.679 200.215C332.61 200.203 332.544 200.177 332.485 200.14C332.426 200.102 332.375 200.053 332.335 199.996C332.295 199.938 332.267 199.873 332.252 199.805C332.237 199.737 332.235 199.666 332.247 199.597C332.26 199.528 332.285 199.462 332.323 199.403C332.361 199.344 332.41 199.293 332.467 199.253C332.524 199.213 332.589 199.185 332.657 199.169C332.698 199.161 332.74 199.157 332.782 199.157Z" fill="black"/>
<path d="M337.636 219.027C329.754 221.682 321.7 223.794 313.529 225.349C309.433 226.124 305.293 226.647 301.132 226.915C299.051 227.056 296.965 227.141 294.878 227.14C293.835 227.156 292.792 227.145 291.749 227.106C290.703 227.087 289.66 227.015 288.623 226.913L288.65 226.914L288.64 226.914H288.635L288.61 226.912C287.399 226.806 286.198 226.614 285.015 226.336C283.801 226.071 282.639 225.606 281.577 224.961C281.497 224.909 281.438 224.83 281.412 224.739C281.385 224.647 281.393 224.549 281.434 224.462C281.474 224.376 281.544 224.307 281.631 224.269C281.719 224.23 281.817 224.225 281.908 224.253L281.93 224.26C287.345 225.96 293.055 226.451 298.705 226.792C304.374 227.124 310.067 227.03 315.755 226.85C318.609 226.735 321.423 226.654 324.314 226.487C327.137 226.361 329.986 226.175 332.837 226.005L349.954 224.814C349.981 224.812 350.008 224.821 350.029 224.838C350.05 224.855 350.063 224.879 350.067 224.906C350.071 224.932 350.064 224.959 350.048 224.981C350.033 225.003 350.009 225.019 349.983 225.024C344.362 226.164 338.693 227.048 332.998 227.749C330.151 228.102 327.297 228.378 324.41 228.617C321.592 228.827 318.692 229.04 315.827 229.11C310.069 229.294 304.306 229.135 298.568 228.633C292.799 228.17 287.117 226.951 281.667 225.006L282.02 224.306C282.987 224.943 284.056 225.409 285.181 225.685C286.326 225.973 287.493 226.17 288.67 226.272L288.64 226.271L288.65 226.271L288.678 226.272C292.795 226.529 296.928 226.301 300.991 225.592C305.071 224.986 309.119 224.187 313.185 223.479C321.317 222.034 329.406 220.305 337.583 218.822C337.609 218.817 337.637 218.823 337.659 218.837C337.682 218.852 337.698 218.874 337.705 218.9C337.712 218.926 337.708 218.954 337.696 218.977C337.683 219.001 337.662 219.019 337.636 219.027V219.027Z" fill="black"/>
<path d="M371.573 221.53C372.658 221.099 373.755 220.743 374.852 220.394C375.952 220.061 377.052 219.729 378.16 219.446C379.263 219.141 380.375 218.88 381.487 218.621C382.594 218.343 383.718 218.141 384.833 217.901L384.007 218.891C384.021 217.614 384.113 216.341 384.161 215.066C384.244 213.792 384.329 212.518 384.45 211.245C384.568 209.973 384.713 208.701 384.887 207.43C385.077 206.16 385.263 204.889 385.552 203.622C385.759 204.905 385.861 206.185 385.968 207.465C386.059 208.745 386.121 210.023 386.156 211.301C386.195 212.579 386.197 213.855 386.197 215.132C386.162 216.408 386.171 217.684 386.102 218.959L386.098 219.026C386.086 219.25 385.997 219.464 385.848 219.631C385.699 219.799 385.497 219.911 385.276 219.949C384.144 220.143 383.021 220.375 381.882 220.532C380.746 220.707 379.611 220.879 378.468 221.009C377.329 221.16 376.181 221.262 375.035 221.364C373.885 221.449 372.735 221.527 371.573 221.53Z" fill="black"/>
<path d="M336.423 132.921C332.883 131.988 329.181 131.844 325.579 132.497C320.379 133.673 311.706 130.294 311.706 130.294C311.706 130.294 308.708 128.526 309.312 133.418C309.312 133.418 311.335 146.264 309.937 154.345C308.529 162.436 309.566 162.817 311.187 162.065C312.796 161.303 320.305 161.981 328.047 162.076C335.778 162.171 335.492 160.614 334.941 156.378C334.38 152.142 336.423 132.921 336.423 132.921ZM333.056 154.79C333.522 158.359 333.765 159.683 327.231 159.598C320.697 159.513 314.353 158.941 312.998 159.587C311.632 160.222 310.753 159.894 311.939 153.074C313.125 146.243 311.42 135.399 311.42 135.399C310.901 131.269 313.443 132.762 313.443 132.762C313.443 132.762 320.761 135.611 325.145 134.615C328.188 134.067 331.314 134.19 334.305 134.975C334.305 134.975 332.579 151.21 333.056 154.79L333.056 154.79Z" fill="black"/>
<path d="M329.52 151.805C329.825 154.14 329.984 155.006 325.709 154.951C321.433 154.895 317.283 154.521 316.396 154.944C315.502 155.359 314.927 155.145 315.703 150.682C316.479 146.213 315.364 139.118 315.364 139.118C315.024 136.415 316.687 137.392 316.687 137.392C316.687 137.392 321.475 139.256 324.344 138.605C326.335 138.246 328.38 138.327 330.337 138.84C330.337 138.84 329.208 149.463 329.52 151.805Z" fill="black"/>
<path d="M285.828 132.247C288.399 131.972 290.987 131.896 293.57 132.019C296.154 132.095 298.729 132.373 301.27 132.849C298.699 133.126 296.111 133.203 293.528 133.077C290.944 132.999 288.37 132.721 285.828 132.247Z" fill="black"/>
<path d="M289.919 162.463C292.49 162.188 295.078 162.112 297.661 162.236C300.245 162.311 302.82 162.589 305.361 163.065C302.79 163.343 300.202 163.419 297.619 163.293C295.035 163.215 292.461 162.938 289.919 162.463Z" fill="black"/>
<path d="M287.253 152.794C289.824 152.519 292.412 152.443 294.995 152.566C297.579 152.642 300.154 152.919 302.695 153.396C300.124 153.673 297.536 153.749 294.953 153.623C292.369 153.545 289.795 153.268 287.253 152.794Z" fill="black"/>
<path d="M291.773 172.698C297.108 172.382 302.437 172.387 307.765 172.47C313.092 172.586 318.417 172.781 323.736 173.3C318.401 173.619 313.072 173.614 307.745 173.528C302.418 173.411 297.093 173.215 291.773 172.698Z" fill="black"/>
<path d="M291.193 214.838C296.445 213.914 301.727 213.31 307.017 212.784C312.31 212.29 317.611 211.876 322.942 211.784C317.691 212.71 312.408 213.314 307.118 213.837C301.825 214.329 296.524 214.743 291.193 214.838Z" fill="black"/>
<path d="M287.574 138.173C289.681 137.721 291.826 137.465 293.981 137.408C296.134 137.304 298.292 137.402 300.427 137.7C298.319 138.155 296.174 138.411 294.02 138.466C291.867 138.567 289.709 138.469 287.574 138.173Z" fill="black"/>
<path d="M288.15 143.896C290.257 143.443 292.402 143.187 294.556 143.13C296.709 143.026 298.867 143.124 301.002 143.423C298.895 143.877 296.75 144.134 294.595 144.188C292.442 144.29 290.285 144.192 288.15 143.896Z" fill="black"/>
<path d="M290.466 158.268C292.573 157.815 294.718 157.559 296.873 157.502C299.026 157.398 301.184 157.496 303.318 157.795C301.211 158.249 299.066 158.506 296.912 158.56C294.759 158.662 292.601 158.564 290.466 158.268Z" fill="black"/>
<path d="M290.755 148.617C292.863 148.165 295.008 147.909 297.162 147.852C299.315 147.748 301.473 147.846 303.608 148.145C301.501 148.599 299.356 148.856 297.201 148.91C295.048 149.012 292.89 148.914 290.755 148.617Z" fill="black"/>
<path d="M289.798 193.25C295.133 192.934 300.462 192.939 305.789 193.022C311.116 193.137 316.442 193.333 321.761 193.852C316.426 194.17 311.097 194.165 305.77 194.08C300.443 193.963 295.117 193.767 289.798 193.25Z" fill="black"/>
<path d="M290.462 178.629C294.888 178.134 299.321 177.96 303.754 177.864C308.188 177.8 312.624 177.816 317.065 178.156C312.639 178.654 308.207 178.828 303.773 178.922C299.339 178.984 294.903 178.967 290.462 178.629Z" fill="black"/>
<path d="M291.654 184.352C296.08 183.856 300.512 183.682 304.946 183.586C309.38 183.522 313.816 183.539 318.257 183.879C313.83 184.377 309.398 184.551 304.965 184.644C300.531 184.706 296.095 184.689 291.654 184.352Z" fill="black"/>
<path d="M295.728 203.579C300.154 203.083 304.586 202.909 309.02 202.813C313.454 202.749 317.889 202.766 322.331 203.106C317.904 203.603 313.472 203.778 309.039 203.871C304.604 203.933 300.169 203.916 295.728 203.579Z" fill="black"/>
<path d="M296.919 209.301C301.346 208.806 305.778 208.632 310.211 208.536C314.645 208.472 319.081 208.488 323.522 208.828C319.096 209.326 314.664 209.5 310.23 209.594C305.796 209.656 301.36 209.639 296.919 209.301Z" fill="black"/>
<path d="M296.448 198.724C300.874 198.229 305.306 198.054 309.74 197.958C314.174 197.894 318.61 197.911 323.051 198.251C318.625 198.749 314.192 198.923 309.759 199.016C305.325 199.078 300.889 199.061 296.448 198.724Z" fill="black"/>
<path d="M297.047 189.074C301.474 188.578 305.906 188.404 310.339 188.308C314.774 188.244 319.209 188.261 323.65 188.601C319.224 189.098 314.792 189.273 310.358 189.366C305.924 189.428 301.488 189.411 297.047 189.074Z" fill="black"/>
<path d="M337.229 218.64C337.132 218.64 337.038 218.605 336.965 218.542C336.892 218.479 336.844 218.391 336.83 218.296C336.816 218.2 336.837 218.103 336.889 218.021C336.94 217.939 337.02 217.879 337.112 217.851C337.163 217.831 337.217 217.822 337.271 217.823C337.326 217.825 337.379 217.838 337.429 217.86C337.478 217.883 337.522 217.916 337.559 217.956C337.595 217.996 337.623 218.043 337.641 218.095C337.659 218.146 337.666 218.201 337.662 218.255C337.658 218.309 337.644 218.362 337.619 218.41C337.594 218.459 337.56 218.502 337.518 218.536C337.476 218.571 337.428 218.597 337.376 218.613C337.328 218.63 337.279 218.639 337.229 218.64Z" fill="black"/>
<path d="M313.807 373.79C314.031 376.192 314.293 378.59 314.683 380.96C315.026 383.317 315.56 385.643 316.279 387.914C316.465 388.46 316.685 388.994 316.937 389.513C317.06 389.774 317.198 390.003 317.341 390.254C317.496 390.53 317.667 390.801 317.805 391.085C318.384 392.204 318.839 393.383 319.161 394.602C319.833 397.028 320.079 399.552 319.887 402.063C319.793 403.343 319.538 404.606 319.127 405.823C318.718 407.114 318.006 408.288 317.049 409.247C316.543 409.747 315.949 410.15 315.297 410.436C314.972 410.582 314.634 410.698 314.287 410.78L313.365 410.961C312.247 411.239 311.161 411.628 310.121 412.121C307.786 412.983 305.342 413.513 302.861 413.697C300.424 413.939 297.994 414.01 295.569 414.019C290.72 414.026 285.89 413.862 281.058 413.718C278.643 413.642 276.228 413.543 273.815 413.421C271.399 413.342 268.985 413.223 266.57 413.112C256.909 412.688 247.268 411.923 237.646 411.012L237.608 411.008C237.387 410.987 237.18 410.891 237.022 410.735C236.864 410.58 236.764 410.375 236.74 410.154C236.708 409.9 236.711 409.642 236.747 409.388C236.771 409.182 236.81 408.978 236.863 408.777C236.961 408.403 237.097 408.04 237.268 407.693C237.421 407.357 237.603 407.035 237.813 406.732C238.003 406.428 238.216 406.14 238.45 405.868C239.33 404.81 240.349 403.874 241.478 403.086C243.656 401.574 245.989 400.298 248.438 399.282C249.65 398.791 250.867 398.314 252.096 397.883C253.327 397.48 254.572 397.038 255.791 396.668C258.236 395.898 260.688 395.154 263.115 394.347C267.978 392.829 272.706 390.913 277.254 388.618C279.49 387.461 281.524 385.949 283.277 384.142C285.024 382.301 286.054 379.896 286.18 377.361C286.181 377.347 286.184 377.334 286.189 377.322C286.195 377.31 286.203 377.299 286.213 377.289C286.223 377.28 286.234 377.273 286.247 377.269C286.26 377.264 286.273 377.262 286.287 377.262C286.312 377.264 286.336 377.275 286.354 377.293C286.373 377.311 286.383 377.335 286.385 377.361C286.477 380.018 285.587 382.615 283.886 384.658C282.186 386.668 280.153 388.369 277.874 389.688C273.375 392.275 268.636 394.419 263.724 396.092C261.299 396.973 258.87 397.834 256.425 398.638C255.191 399.033 254.022 399.472 252.818 399.887C251.63 400.324 250.461 400.804 249.301 401.294C247.003 402.25 244.809 403.442 242.757 404.852C241.772 405.527 240.874 406.322 240.086 407.219C239.895 407.429 239.721 407.655 239.566 407.893C239.404 408.113 239.264 408.349 239.147 408.596C239.028 408.822 238.932 409.059 238.861 409.305C238.83 409.414 238.806 409.525 238.789 409.638C238.768 409.723 238.774 409.89 238.763 409.831L237.856 408.974C247.449 410.038 257.046 411.054 266.648 412.021C269.051 412.237 271.454 412.461 273.86 412.645C276.266 412.816 278.675 412.947 281.084 413.064C285.899 413.319 290.724 413.317 295.539 413.06C297.94 412.922 300.336 412.715 302.693 412.357C305.022 412.056 307.301 411.444 309.469 410.54C310.597 409.968 311.78 409.514 313.001 409.184L313.488 409.091L313.854 409.012C314.094 408.954 314.328 408.872 314.552 408.769C315.008 408.566 315.422 408.281 315.773 407.926C317.213 406.241 318.043 404.119 318.128 401.904C318.337 399.59 318.166 397.258 317.622 395C317.351 393.876 316.977 392.779 316.504 391.723C316.392 391.457 316.251 391.21 316.124 390.952C315.982 390.672 315.825 390.374 315.705 390.081C315.458 389.5 315.248 388.905 315.076 388.298C314.433 385.932 314.021 383.509 313.846 381.063C313.64 378.646 313.559 376.22 313.602 373.795C313.603 373.768 313.615 373.742 313.634 373.723C313.654 373.704 313.68 373.694 313.708 373.695C313.733 373.696 313.757 373.706 313.775 373.724C313.794 373.741 313.805 373.765 313.807 373.79Z" fill="#020202"/>
<path d="M306.625 387.117C307.026 387.901 307.234 388.77 307.232 389.65C307.245 390.557 307.046 391.454 306.649 392.269C306.251 393.092 305.64 393.794 304.88 394.302C304.154 394.803 303.318 395.123 302.443 395.234C303.126 394.769 303.771 394.251 304.372 393.684C304.935 393.149 305.395 392.516 305.73 391.816C306.387 390.34 306.693 388.732 306.625 387.117Z" fill="#020202"/>
<path d="M316.584 408.217C316.584 408.217 322.409 410.239 319.19 420.816C319.19 420.816 319.661 424.752 305.641 424.014L235.045 424.106C235.045 424.106 229.82 412.556 240.673 410.29L258.395 411.931C258.395 411.931 253.986 401.384 255.215 397.94C257.104 394.859 259.961 392.492 263.339 391.208C266.717 389.925 270.426 389.798 273.884 390.847C273.884 390.847 273.155 407.771 286.2 413.555C286.2 413.555 305.388 412.589 316.584 408.217Z" fill="#020202"/>
<path d="M264.013 338.522C263.176 340.789 262.357 343.063 261.658 345.367C260.92 347.64 260.34 349.962 259.923 352.316C259.831 352.89 259.771 353.469 259.742 354.049C259.716 354.599 259.732 355.209 259.731 355.837C259.728 357.083 259.629 358.326 259.434 359.556C259.097 362.096 258.16 364.52 256.7 366.626C255.143 368.749 252.932 370.302 250.407 371.047C249.792 371.23 249.166 371.378 248.534 371.492L246.746 371.757C245.513 372.046 244.253 372.201 242.987 372.22C240.477 371.973 238.03 371.279 235.764 370.171C233.525 369.177 231.364 368.059 229.235 366.894C220.749 362.192 212.437 357.256 204.053 352.41C195.67 347.564 187.433 342.478 179.251 337.31L179.218 337.29C179.031 337.171 178.89 336.992 178.819 336.782C178.748 336.572 178.752 336.344 178.829 336.136C178.919 335.889 179.041 335.654 179.192 335.439C179.312 335.263 179.443 335.096 179.584 334.937C179.85 334.643 180.145 334.376 180.464 334.14C181.061 333.692 181.712 333.32 182.402 333.035C183.706 332.49 185.077 332.121 186.478 331.938C189.179 331.592 191.91 331.53 194.624 331.752C197.293 331.985 199.979 332.389 202.561 332.815C205.154 333.238 207.752 333.624 210.358 333.922C212.964 334.222 215.578 334.45 218.192 334.543C220.801 334.665 223.415 334.627 226.019 334.428C228.611 334.24 231.164 333.698 233.609 332.819C236.082 331.974 238.167 330.266 239.483 328.008C239.496 327.985 239.517 327.968 239.542 327.959C239.567 327.951 239.594 327.953 239.618 327.964C239.642 327.976 239.66 327.996 239.669 328.02C239.679 328.045 239.678 328.072 239.668 328.097C238.49 330.559 236.443 332.5 233.921 333.544C231.45 334.623 228.834 335.33 226.157 335.644C220.85 336.261 215.491 336.295 210.177 335.746C207.526 335.518 204.882 335.229 202.252 334.854C199.615 334.456 197.067 334.119 194.468 333.929C191.913 333.731 189.344 333.786 186.8 334.095C185.578 334.246 184.38 334.547 183.231 334.99C182.694 335.197 182.186 335.472 181.718 335.807C181.502 335.958 181.301 336.131 181.119 336.322C181.039 336.408 180.965 336.499 180.896 336.594C180.837 336.663 180.763 336.818 180.78 336.762L180.359 335.587L204.63 351.472L210.739 355.379C212.79 356.658 214.863 357.901 216.936 359.143C221.082 361.624 225.319 363.962 229.664 366.057C231.838 367.099 234.037 368.086 236.267 368.94C238.407 369.852 240.688 370.387 243.009 370.522C244.162 370.464 245.305 370.285 246.419 369.986C246.726 369.919 247.049 369.874 247.367 369.827L248.215 369.697C248.773 369.593 249.324 369.458 249.867 369.294C252.02 368.659 253.916 367.356 255.279 365.572C256.605 363.699 257.489 361.549 257.864 359.284C258.072 358.129 258.211 356.962 258.279 355.79C258.311 355.209 258.323 354.61 258.386 353.953C258.449 353.328 258.546 352.707 258.677 352.093C259.206 349.7 259.936 347.357 260.859 345.087C261.761 342.828 262.724 340.601 263.826 338.438C263.838 338.414 263.86 338.395 263.886 338.387C263.911 338.379 263.94 338.381 263.964 338.393C263.986 338.405 264.004 338.425 264.013 338.448C264.022 338.472 264.022 338.498 264.013 338.522Z" fill="#020202"/>
<path d="M251.582 347.167C251.585 348.047 251.379 348.916 250.979 349.701C250.581 350.515 249.998 351.225 249.276 351.773C248.549 352.328 247.686 352.678 246.779 352.787C245.904 352.906 245.015 352.814 244.184 352.518C245.003 352.412 245.813 352.241 246.605 352.007C247.348 351.784 248.045 351.427 248.66 350.954C249.914 349.934 250.914 348.638 251.582 347.167Z" fill="#020202"/>
<path d="M250.931 370.489C250.931 370.489 255.213 374.926 247.563 382.907C247.563 382.907 246.204 386.63 234.031 379.636L171.013 347.816C171.013 347.816 171.571 335.151 182.277 338.035L197.345 347.507C197.345 347.507 198.177 336.105 200.831 333.589C203.908 331.694 207.527 330.874 211.12 331.255C214.714 331.637 218.079 333.199 220.69 335.698C220.69 335.698 212.392 350.466 221.415 361.521C221.415 361.521 238.968 369.331 250.931 370.489Z" fill="#020202"/>
<path d="M465.988 174.876L467.092 182.136C467.474 184.548 467.877 186.952 468.347 189.339C468.788 191.734 469.358 194.096 470.019 196.428C470.616 198.788 471.575 201.041 472.863 203.106C471.216 201.244 469.98 199.057 469.234 196.686C468.408 194.359 467.764 191.97 467.309 189.543C466.367 184.712 465.925 179.797 465.988 174.876Z" fill="#020202"/>
<path d="M467.513 139.464C467.513 139.464 482.382 125.796 500.682 156.399C518.982 187.003 518.752 199.719 525.996 198.487C525.996 198.487 507.866 212.573 485.372 189.074C462.878 165.574 467.513 139.464 467.513 139.464Z" fill="#020202"/>
<path d="M467.407 189.082C467.289 187.982 467.337 186.87 467.547 185.784C467.799 184.694 468.23 183.652 468.824 182.703C470.054 180.827 471.693 179.255 473.619 178.104C475.517 176.959 477.537 176.029 479.641 175.33C481.738 174.613 483.892 174.071 486.079 173.71L485.929 173.744C487.73 173.189 489.612 172.941 491.495 173.011C493.389 173.049 495.259 173.441 497.009 174.167C497.436 174.374 497.876 174.56 498.292 174.789C498.698 175.037 499.112 175.275 499.509 175.535L500.644 176.399C500.99 176.675 501.306 176.944 501.658 177.206C503.034 178.26 504.516 179.233 505.999 180.197L515 185.957C518.048 187.878 520.964 190.004 523.726 192.319C524.43 192.933 525.079 193.608 525.666 194.335C525.987 194.732 526.248 195.174 526.438 195.648C526.491 195.783 526.53 195.922 526.554 196.065L526.599 196.281C526.608 196.39 526.606 196.5 526.594 196.609C526.52 196.982 526.307 197.312 525.997 197.533C525.156 198.043 524.218 198.374 523.243 198.503C522.342 198.672 521.444 198.784 520.548 198.872C516.963 199.199 513.392 199.277 509.821 199.327C506.25 199.365 502.681 199.359 499.113 199.342L493.761 199.267L491.085 199.216C490.197 199.213 489.284 199.163 488.452 199.223C486.759 199.352 485.134 199.941 483.752 200.926C482.369 201.911 481.282 203.255 480.608 204.813C479.107 208.044 477.673 211.305 476.207 214.55C473.313 221.058 470.499 227.598 467.764 234.171C462.406 247.356 457.314 260.655 453.168 274.243L453.155 274.285C453.145 274.319 453.131 274.352 453.115 274.383C452.295 275.988 451.301 277.498 450.152 278.886C449.014 280.299 447.671 281.535 446.169 282.552C444.628 283.607 442.84 284.245 440.978 284.402C439.189 284.473 437.506 284.376 435.765 284.372L425.406 284.198L415.056 283.937C415.028 283.937 415.001 283.925 414.982 283.904C414.962 283.884 414.952 283.857 414.953 283.829C414.954 283.802 414.965 283.776 414.984 283.757C415.003 283.738 415.029 283.726 415.056 283.725L425.39 283.348L435.716 283.058C437.42 282.992 439.193 283.01 440.839 282.876C442.423 282.677 443.931 282.084 445.226 281.152C447.855 279.159 449.955 276.553 451.343 273.56L451.29 273.701C455.222 259.941 460.089 246.466 465.857 233.37C468.664 226.799 471.614 220.295 474.709 213.857C476.239 210.631 477.846 207.441 479.459 204.257C480.285 202.552 481.549 201.097 483.122 200.041C484.69 198.995 486.515 198.4 488.398 198.32C492.041 198.42 495.542 198.582 499.123 198.639C502.685 198.722 506.248 198.741 509.808 198.647C513.36 198.592 516.907 198.344 520.433 197.906C521.306 197.784 522.175 197.638 523.019 197.443C523.811 197.304 524.569 197.018 525.255 196.597C525.369 196.502 525.394 196.422 525.384 196.437C525.378 196.433 525.378 196.444 525.379 196.431L525.345 196.323C525.331 196.246 525.306 196.171 525.273 196.1C525.111 195.754 524.899 195.433 524.645 195.148C524.084 194.51 523.469 193.922 522.807 193.391C519.999 191.25 517.07 189.274 514.035 187.471C511.009 185.604 507.967 183.744 504.958 181.791C503.463 180.796 501.97 179.796 500.526 178.667C500.165 178.394 499.805 178.082 499.456 177.798L498.471 177.032C498.126 176.802 497.766 176.593 497.416 176.37C497.054 176.166 496.671 176.003 496.3 175.814C493.167 174.513 489.689 174.298 486.419 175.204L486.343 175.224C486.319 175.23 486.294 175.235 486.268 175.238C484.158 175.507 482.073 175.948 480.034 176.558C477.988 177.15 476.015 177.968 474.15 178.996C472.279 179.986 470.649 181.377 469.377 183.069C468.764 183.929 468.299 184.886 468 185.899C467.718 186.93 467.59 187.997 467.618 189.065C467.619 189.079 467.617 189.093 467.613 189.106C467.608 189.12 467.601 189.132 467.592 189.142C467.583 189.152 467.571 189.161 467.559 189.167C467.546 189.173 467.533 189.177 467.519 189.177C467.492 189.178 467.465 189.169 467.445 189.151C467.424 189.133 467.411 189.109 467.407 189.082Z" fill="#020202"/>
<path d="M394.713 247.625L405.438 234.957C406.324 233.899 407.204 232.835 408.065 231.762L409.337 230.15C409.738 229.652 410.103 229.126 410.43 228.575C411.533 225.998 412.853 223.519 414.374 221.164C417.428 216.33 421.618 212.317 426.578 209.473C429.073 208.063 431.755 207.012 434.543 206.349C437.352 205.652 440.256 205.408 443.142 205.627L442.32 205.901L448.713 199.857L448.731 199.84C448.86 199.717 449.025 199.638 449.201 199.614C454.48 198.759 459.868 198.83 465.123 199.823C467.744 200.359 470.268 201.295 472.606 202.597C474.962 203.846 476.961 205.673 478.415 207.907C476.78 205.87 474.687 204.247 472.306 203.17C469.957 202.092 467.467 201.351 464.909 200.97C459.778 200.283 454.57 200.429 449.485 201.405L449.973 201.161L443.718 207.347C443.619 207.445 443.5 207.52 443.37 207.569C443.24 207.617 443.101 207.637 442.962 207.627L442.895 207.622C440.251 207.469 437.599 207.723 435.032 208.375C429.812 209.678 425.025 212.325 421.144 216.051C419.183 217.905 417.428 219.964 415.907 222.193C414.374 224.454 413.013 226.827 411.836 229.292C411.444 229.925 411.001 230.524 410.513 231.085C410.064 231.627 409.612 232.157 409.148 232.676C408.223 233.716 407.285 234.738 406.342 235.754C404.463 237.793 402.524 239.772 400.588 241.752C398.652 243.732 396.705 245.7 394.713 247.625Z" fill="#020202"/>
<path d="M474.776 215.674L461.226 247.625C461.226 247.625 465.988 209.624 444.861 207.964L443.019 206.624L448.65 201.179C448.65 201.179 476.448 202.408 474.776 215.674Z" fill="#020202"/>
<path d="M280.323 120.257C280.832 128.949 281.215 137.644 281.469 146.34C281.752 155.036 281.917 163.733 282.06 172.431C282.166 181.129 282.246 189.828 282.21 198.528C282.202 207.228 282.065 215.93 281.799 224.633C281.287 215.941 280.904 207.246 280.649 198.55C280.368 189.854 280.202 181.157 280.062 172.459C279.959 163.761 279.878 155.062 279.915 146.362C279.923 137.662 280.059 128.96 280.323 120.257Z" fill="black"/>
</svg>
