<svg width="700" height="550" viewBox="0 0 700 550" fill="none" xmlns="http://www.w3.org/2000/svg">
<path d="M431.681 365.524C431.202 362.759 430.305 360.083 429.019 357.589C426.346 352.657 422.702 348.318 418.306 344.833C416.143 343.061 413.853 341.45 411.454 340.014C410.874 339.653 410.269 339.333 409.645 339.056L407.699 338.233L403.789 336.588C401.215 335.465 398.564 334.459 395.922 333.433L391.973 331.904L387.967 330.491C377.306 326.687 366.452 323.451 355.449 320.794C349.952 319.487 344.417 318.268 338.833 317.3C333.258 316.274 327.645 315.442 321.993 314.91C268.05 302.493 246.043 328.846 246.043 328.846C246.043 328.846 251.733 356.079 275.192 362.814C275.192 362.814 301.061 370.683 308.058 371.176L286.263 371.186C286.263 371.186 278.347 384.415 285.363 392.08C285.363 392.08 376.46 407.409 399.222 403.693C421.984 399.977 427.79 385.112 431.739 373.963C432.165 371.165 432.145 368.317 431.681 365.524ZM383.592 372.56C382.876 372.21 382.131 371.922 381.366 371.699C379.832 371.253 378.266 370.926 376.682 370.721C373.501 370.284 370.3 370.006 367.092 369.889C360.675 369.628 354.24 369.657 347.794 369.802C341.359 369.908 334.913 370.17 328.468 370.412L309.103 371.176C315.5 370.179 321.926 369.444 328.371 368.911C334.816 368.36 341.278 368.011 347.756 367.866C354.241 367.697 360.731 367.871 367.198 368.389C370.442 368.644 373.665 369.113 376.847 369.792C378.447 370.14 380.017 370.615 381.54 371.215C383.105 371.725 384.488 372.68 385.518 373.963C384.981 373.366 384.325 372.888 383.592 372.56ZM467.508 348.879C465.882 325.42 421.519 312.645 421.519 312.645C421.519 312.645 366.356 294.645 326.348 289.128L321.993 314.91C324.839 314.949 327.674 315.142 330.5 315.413C331.923 315.529 333.336 315.674 334.749 315.848C336.162 316.003 337.575 316.168 338.978 316.361C341.804 316.729 344.601 317.213 347.407 317.678C348.81 317.91 350.204 318.2 351.607 318.471C353.001 318.742 354.404 319.003 355.788 319.323C366.921 321.726 377.886 324.848 388.615 328.671L392.641 330.113L396.609 331.672C399.26 332.717 401.922 333.723 404.525 334.914L408.435 336.636L410.399 337.498C411.065 337.808 411.709 338.163 412.325 338.562C414.78 340.076 417.107 341.789 419.283 343.682C421.469 345.558 423.481 347.627 425.293 349.866C427.094 352.121 428.63 354.576 429.871 357.182C432.32 362.419 432.976 368.316 431.739 373.963C431.739 373.963 469.133 372.337 467.508 348.879V348.879Z" fill="#020202"/>
<path d="M295.136 185.046C294.117 184.628 293.27 183.876 292.735 182.913C292.161 182.007 291.676 181.049 291.285 180.05C290.513 178.067 289.924 176.018 289.525 173.928L290.866 174.33C290.348 174.916 289.699 175.37 288.97 175.653C288.523 175.812 288.041 175.842 287.578 175.742C287.103 175.636 286.673 175.385 286.347 175.025C285.834 174.438 285.468 173.738 285.277 172.982C285.093 172.317 284.965 171.638 284.893 170.952L284.816 169.927L284.859 168.867C284.912 168.077 285.183 167.316 285.642 166.671C285.912 166.328 286.263 166.059 286.663 165.885C287.064 165.712 287.501 165.641 287.935 165.678C288.677 165.738 289.396 165.96 290.043 166.328L289.938 166.285C290.685 166.414 291.453 166.292 292.123 165.938C292.916 165.6 293.673 165.184 294.384 164.697C295.836 163.713 297.207 162.616 298.486 161.415C301.042 158.999 303.432 156.413 305.641 153.675C305.705 153.598 305.785 153.537 305.876 153.496C305.967 153.455 306.067 153.436 306.166 153.439C306.266 153.442 306.364 153.468 306.452 153.515C306.54 153.562 306.617 153.629 306.675 153.71L306.715 153.766C307.363 154.675 308.033 155.6 308.729 156.484C309.423 157.372 310.161 158.221 310.907 159.043C311.627 159.85 312.428 160.58 313.297 161.224C313.674 161.506 314.094 161.726 314.54 161.876C314.669 161.928 314.808 161.951 314.947 161.942C315.087 161.933 315.222 161.892 315.343 161.823L315.35 161.818C315.503 161.719 315.681 161.663 315.863 161.657C316.045 161.651 316.226 161.694 316.385 161.783C316.544 161.871 316.677 162.002 316.768 162.16C316.859 162.317 316.905 162.497 316.902 162.68C316.856 165.137 316.656 167.59 316.304 170.022C315.971 172.461 315.468 174.872 314.798 177.24C314.149 179.643 313.163 181.942 311.869 184.069C311.219 185.153 310.387 186.116 309.41 186.918C308.438 187.73 307.246 188.232 305.986 188.36C305.962 188.362 305.937 188.355 305.918 188.34C305.899 188.325 305.887 188.303 305.883 188.279C305.879 188.256 305.884 188.231 305.897 188.211C305.91 188.19 305.93 188.176 305.954 188.169C308.318 187.556 309.851 185.565 310.888 183.507C311.89 181.368 312.638 179.119 313.118 176.807C313.628 174.479 314.019 172.127 314.29 169.76C314.562 167.394 314.779 164.991 314.897 162.636L316.455 163.492C316.082 163.717 315.664 163.855 315.231 163.896C314.797 163.938 314.36 163.881 313.951 163.732C313.313 163.503 312.717 163.171 312.186 162.75C311.234 161.999 310.362 161.151 309.585 160.221C308.827 159.326 308.115 158.394 307.453 157.426C306.791 156.464 306.153 155.505 305.573 154.478L306.647 154.569C304.144 157.11 301.54 159.505 298.892 161.866C297.561 163.038 296.212 164.19 294.781 165.263C294.057 165.808 293.299 166.305 292.509 166.749C291.648 167.304 290.616 167.532 289.601 167.392L289.589 167.388L289.496 167.349C288.998 167.13 288.459 167.018 287.915 167.019C287.707 167.01 287.5 167.057 287.316 167.154C287.131 167.252 286.977 167.397 286.867 167.575C286.464 168.585 286.373 169.693 286.604 170.755C286.674 171.343 286.788 171.925 286.947 172.495C287.052 172.99 287.266 173.455 287.573 173.857C287.674 173.988 287.814 174.081 287.973 174.123C288.133 174.165 288.301 174.154 288.453 174.091C288.927 173.914 289.358 173.638 289.718 173.283L289.755 173.246C289.857 173.146 289.985 173.077 290.123 173.045C290.262 173.013 290.407 173.021 290.542 173.066C290.677 173.111 290.797 173.193 290.888 173.303C290.979 173.412 291.039 173.544 291.059 173.685C291.351 175.714 291.769 177.722 292.311 179.698C292.592 180.677 292.936 181.637 293.341 182.572C293.712 183.509 294.362 184.309 295.203 184.864L295.212 184.869C295.233 184.881 295.248 184.9 295.256 184.922C295.264 184.945 295.263 184.97 295.254 184.992C295.244 185.014 295.227 185.031 295.205 185.041C295.184 185.051 295.159 185.053 295.136 185.046L295.136 185.046Z" fill="#020202"/>
<path d="M297.26 186.349C298.394 186.58 299.511 186.886 300.605 187.262C301.685 187.615 302.71 187.938 303.88 188.265C302.714 188.637 301.457 188.608 300.309 188.183C299.742 187.997 299.196 187.752 298.679 187.452C298.152 187.159 297.674 186.787 297.26 186.349Z" fill="#020202"/>
<path d="M292.174 180.619C292.41 181.484 292.531 182.377 292.533 183.273C292.553 184.173 292.456 185.071 292.245 185.946C291.823 187.714 290.985 189.355 289.802 190.735C288.623 192.116 287.198 193.266 285.6 194.129C284.028 195.03 282.424 195.723 280.828 196.499C277.634 198.009 274.415 199.453 271.392 201.19C269.881 202.039 268.431 202.993 267.053 204.044C265.677 205.069 264.414 206.239 263.286 207.533C262.157 208.816 261.178 210.223 260.366 211.727C259.967 212.478 259.615 213.253 259.31 214.048L258.855 215.247L258.486 216.483C257.568 219.826 257.036 223.264 256.902 226.729C256.521 233.7 257.256 240.688 259.081 247.427C259.543 249.077 260.119 250.819 260.538 252.542C260.974 254.28 261.297 256.045 261.506 257.825C261.94 261.395 261.746 265.013 260.933 268.517C260.096 271.982 258.85 275.336 257.221 278.509C255.587 281.663 253.926 284.741 252.531 287.987C249.67 294.422 247.498 301.141 246.052 308.033C245.345 311.461 244.979 314.951 244.958 318.452C244.88 321.91 245.467 325.351 246.687 328.589L245.503 328.417C247.772 325.834 250.39 323.579 253.282 321.718C256.117 319.829 259.115 318.196 262.24 316.838C268.513 314.204 275.116 312.438 281.867 311.589C283.551 311.396 285.234 311.159 286.922 311.005L292.002 310.791C292.848 310.76 293.696 310.716 294.542 310.713L297.08 310.815L302.154 311.021C305.523 311.304 308.878 311.748 312.237 312.123L322.201 313.958L321.047 314.7C321.971 310.458 322.876 306.195 323.669 301.922C324.458 297.651 325.199 293.357 325.603 289.069L325.603 289.181C325.211 282.777 324.479 276.399 323.408 270.074C323.129 268.497 322.771 266.94 322.37 265.399C322.148 264.627 321.919 263.904 321.656 263.105C321.415 262.316 321.245 261.507 321.148 260.687C320.951 259.052 321.067 257.395 321.488 255.804C321.698 255.013 321.99 254.246 322.359 253.516C322.684 252.737 323.29 252.109 324.056 251.756C324.08 251.747 324.106 251.749 324.129 251.76C324.152 251.77 324.17 251.79 324.179 251.814C324.187 251.837 324.186 251.864 324.176 251.887C324.166 251.91 324.147 251.928 324.123 251.937L324.117 251.939C323.425 252.303 322.892 252.912 322.624 253.647C322.297 254.369 322.046 255.124 321.875 255.899C321.534 257.445 321.49 259.042 321.745 260.604C322.072 262.165 322.54 263.693 323.143 265.17C323.628 266.724 324.027 268.299 324.358 269.883C325.037 273.05 325.556 276.242 325.999 279.441C326.435 282.643 326.827 285.843 327.099 289.071C327.102 289.105 327.103 289.138 327.1 289.172L327.099 289.184C326.764 293.587 326.094 297.91 325.376 302.225C325.016 304.382 324.631 306.534 324.224 308.681C323.815 310.829 323.412 312.972 322.945 315.115C322.892 315.36 322.745 315.575 322.537 315.715C322.328 315.854 322.074 315.907 321.827 315.863L321.791 315.857L311.947 314.083C308.637 313.728 305.33 313.303 302.015 313.036L297.03 312.854L294.537 312.762C293.707 312.765 292.878 312.823 292.048 312.842L287.068 313C285.415 313.135 283.769 313.352 282.119 313.523C275.527 314.284 269.071 315.94 262.927 318.447C259.873 319.717 256.937 321.252 254.151 323.036C251.367 324.772 248.824 326.868 246.588 329.269L246.548 329.314C246.488 329.38 246.416 329.434 246.335 329.473C246.254 329.511 246.167 329.534 246.077 329.538C245.988 329.543 245.899 329.53 245.814 329.5C245.73 329.47 245.652 329.424 245.586 329.364C245.505 329.291 245.443 329.2 245.404 329.098C244.21 325.678 243.686 322.06 243.859 318.441C243.967 314.878 244.423 311.335 245.22 307.86C246.009 304.403 246.974 300.989 248.113 297.632C249.266 294.283 250.558 290.989 251.99 287.749C252.725 286.139 253.439 284.52 254.221 282.932L256.605 278.204C258.188 275.079 259.36 271.762 260.091 268.336C260.775 264.923 260.863 261.417 260.351 257.974C260.099 256.253 259.737 254.549 259.269 252.874C258.804 251.178 258.224 249.581 257.683 247.847C256.625 244.426 255.904 240.909 255.532 237.347C255.127 233.793 255.005 230.212 255.168 226.639C255.334 223.042 255.922 219.478 256.921 216.019L257.323 214.722L257.821 213.451C258.158 212.601 258.546 211.773 258.985 210.97C259.868 209.374 260.93 207.884 262.15 206.527C263.358 205.171 264.707 203.947 266.175 202.877C267.621 201.807 269.148 200.852 270.742 200.02C273.892 198.322 277.165 196.96 280.391 195.539C281.989 194.816 283.648 194.141 285.164 193.33C286.714 192.577 288.111 191.543 289.284 190.28C290.464 189.008 291.325 187.474 291.795 185.803C292.265 184.133 292.332 182.375 291.989 180.674L291.987 180.665C291.982 180.641 291.986 180.615 292 180.594C292.013 180.573 292.034 180.558 292.058 180.552C292.083 180.546 292.108 180.55 292.13 180.562C292.152 180.575 292.167 180.595 292.174 180.619V180.619Z" fill="#020202"/>
<path d="M307.401 187.825C307.29 188.301 307.284 188.795 307.383 189.273C307.482 189.752 307.683 190.203 307.973 190.596C308.277 190.963 308.648 191.27 309.066 191.498C309.272 191.618 309.501 191.699 309.715 191.802L310.399 192.027L310.352 192.017C313.373 192.274 316.395 192.573 319.392 193.048C322.39 193.512 325.387 194.009 328.345 194.691C331.305 195.354 334.259 196.056 337.164 196.935C340.076 197.782 342.956 198.739 345.785 199.828C342.854 199.057 339.926 198.299 336.991 197.582C334.047 196.898 331.113 196.186 328.153 195.59C325.191 195.005 322.234 194.4 319.255 193.903C316.274 193.426 313.295 192.919 310.297 192.526L310.277 192.523L310.25 192.516L309.531 192.231C309.304 192.101 309.068 191.993 308.855 191.844C308.418 191.557 308.041 191.19 307.743 190.761C307.466 190.33 307.291 189.841 307.232 189.332C307.173 188.823 307.231 188.308 307.401 187.825Z" fill="#020202"/>
<path d="M284.543 194.188C284.886 195.526 285.118 196.89 285.237 198.266C285.371 199.621 285.451 200.972 285.476 202.319C285.503 203.668 285.472 205.014 285.419 206.358L285.325 208.375C285.313 208.704 285.283 209.054 285.287 209.381V209.89C285.302 210.047 285.331 210.212 285.364 210.396C285.255 210.273 285.125 210.136 285.01 209.981L284.765 209.501C284.619 209.174 284.492 208.84 284.383 208.5C284.183 207.83 284.026 207.149 283.912 206.46C283.683 205.103 283.559 203.731 283.541 202.355C283.516 200.987 283.58 199.619 283.733 198.259C283.864 196.878 284.136 195.514 284.543 194.188Z" fill="#020202"/>
<path d="M267.646 206.382C267.841 205.414 268.371 204.546 269.143 203.93C269.922 203.296 270.86 202.888 271.855 202.748C272.824 202.614 273.809 202.658 274.762 202.879C275.224 203.01 275.683 203.143 276.127 203.31C276.561 203.51 276.992 203.707 277.401 203.943C276.922 203.91 276.463 203.838 276.008 203.77L274.647 203.625C273.765 203.556 272.879 203.582 272.004 203.704C271.128 203.814 270.287 204.109 269.535 204.571C268.783 205.033 268.139 205.65 267.646 206.382Z" fill="#020202"/>
<path d="M257.311 243.428C258.5 242.731 259.741 242.13 261.024 241.627C262.28 241.114 263.549 240.659 264.825 240.244C266.098 239.822 267.392 239.468 268.677 239.106C269.985 238.79 271.27 238.389 272.524 237.903C272.136 238.506 271.627 239.023 271.029 239.419C270.46 239.828 269.859 240.193 269.234 240.51C268.01 241.141 266.734 241.668 265.421 242.085C264.118 242.505 262.789 242.835 261.441 243.073C260.081 243.336 258.697 243.455 257.311 243.428Z" fill="#020202"/>
<path d="M280.679 196.041C280.553 197.764 280.493 199.495 280.51 201.219C280.516 202.08 280.543 202.942 280.618 203.795C280.675 204.641 280.808 205.48 281.013 206.303L280.937 206.166C284.289 209.216 287.942 211.919 291.839 214.234C295.718 216.58 299.776 218.615 303.977 220.32C308.167 222.036 312.473 223.454 316.863 224.563C319.053 225.134 321.274 225.575 323.497 225.991C325.721 226.376 327.975 226.695 330.234 227.014L357.341 230.798C366.356 232.174 375.465 233.872 384 237.314L383.807 237.284C386.334 237.276 388.85 237.597 391.294 238.24C393.728 238.857 396.08 239.765 398.297 240.945C402.725 243.333 406.533 246.724 409.417 250.846C410.863 252.887 412.106 255.065 413.128 257.348C414.175 259.604 415.155 261.891 416.042 264.219C416.977 266.544 417.716 268.942 418.252 271.389C418.548 272.657 418.614 273.968 418.446 275.26C418.395 275.631 418.271 275.989 418.081 276.312C417.891 276.635 417.638 276.917 417.337 277.141C416.689 277.525 415.921 277.653 415.184 277.5C415.114 277.489 415.048 277.464 414.989 277.425C412.512 275.789 410.16 273.971 407.953 271.986C405.716 270.013 403.689 267.815 401.904 265.425C401.008 264.212 400.218 262.924 399.542 261.575C399.382 261.23 399.218 260.887 399.069 260.537L398.857 260.005L398.751 259.739L398.712 259.62C398.701 259.582 398.692 259.543 398.687 259.504L398.678 259.423C398.671 259.35 398.676 259.277 398.695 259.206C398.727 259.071 398.794 258.946 398.89 258.846C398.974 258.766 399.075 258.707 399.185 258.672C399.295 258.637 399.412 258.627 399.526 258.644C399.591 258.653 399.653 258.672 399.712 258.701C399.753 258.719 399.792 258.741 399.83 258.764C399.883 258.8 399.934 258.84 399.981 258.884C400.265 259.183 400.527 259.502 400.765 259.838L401.418 260.75C403.124 263.184 404.678 265.721 406.073 268.346C406.447 269.044 406.751 269.778 406.981 270.536C407.063 270.813 407.088 271.105 407.055 271.393C407.036 271.526 406.994 271.656 406.933 271.776C406.835 271.956 406.687 272.104 406.507 272.201C406.286 272.307 406.039 272.345 405.797 272.309C405.383 272.275 404.974 272.204 404.573 272.097C403.778 271.88 403.023 271.535 402.339 271.076C401.695 270.624 401.099 270.107 400.562 269.532C398.463 267.473 396.38 265.4 394.312 263.313L388.126 257.026L385.067 253.838C384.051 252.756 383.055 251.71 382.063 250.494L381.937 250.278C382.008 250.428 381.966 250.338 381.956 250.339C381.946 250.321 381.899 250.287 381.875 250.26C381.794 250.191 381.707 250.129 381.615 250.075C381.396 249.939 381.162 249.827 380.919 249.741C380.378 249.541 379.819 249.393 379.251 249.299C378.043 249.101 376.82 249.007 375.596 249.019C373.08 249.045 370.567 249.225 368.073 249.557C363.018 250.147 357.936 250.87 352.84 251.446C342.655 252.601 332.346 253.425 322.035 252.645C316.905 252.195 311.803 251.476 306.749 250.491C301.691 249.547 296.697 248.288 291.796 246.722C281.958 243.677 272.711 238.976 264.453 232.822C264.433 232.807 264.42 232.784 264.416 232.759C264.413 232.734 264.419 232.708 264.434 232.688C264.449 232.668 264.471 232.654 264.496 232.65C264.521 232.645 264.547 232.651 264.568 232.665C273 238.436 282.312 242.801 292.142 245.589C297.035 247 302.003 248.135 307.023 248.99C312.03 249.885 317.081 250.518 322.155 250.884C332.328 251.281 342.517 250.804 352.609 249.458C357.681 248.868 362.729 248.131 367.837 247.518C370.417 247.183 373.017 247.017 375.619 247.02C376.955 247.02 378.288 247.135 379.604 247.365C380.297 247.487 380.976 247.675 381.633 247.927C381.991 248.06 382.334 248.231 382.656 248.437C382.837 248.549 383.008 248.677 383.168 248.818C383.259 248.9 383.344 248.987 383.425 249.08C383.546 249.214 383.645 249.366 383.719 249.531L383.594 249.315C385.37 251.473 387.466 253.625 389.463 255.739L395.58 262.064L401.744 268.347C402.2 268.855 402.708 269.315 403.259 269.718C403.79 270.087 404.378 270.368 404.999 270.548C405.307 270.635 405.622 270.695 405.94 270.726C406.076 270.751 405.984 270.694 405.77 270.796C405.67 270.846 405.588 270.927 405.536 271.027C405.513 271.065 405.498 271.106 405.49 271.148C405.483 271.07 405.47 270.993 405.45 270.917C405.254 270.269 404.997 269.641 404.684 269.041C403.348 266.464 401.857 263.972 400.218 261.577L399.599 260.69C399.415 260.425 399.218 260.171 399.007 259.927C399.021 259.939 399.036 259.95 399.053 259.959C399.08 259.978 399.11 259.993 399.14 260.006C399.19 260.027 399.242 260.042 399.296 260.05C399.404 260.067 399.516 260.059 399.62 260.024C399.725 259.99 399.82 259.931 399.898 259.853C399.99 259.764 400.054 259.651 400.083 259.526C400.111 259.361 400.1 259.343 400.1 259.343L400.096 259.296C400.089 259.259 400.082 259.236 400.085 259.246C400.089 259.251 400.08 259.233 400.09 259.258L400.184 259.505L400.371 260L400.794 260.973C401.414 262.261 402.144 263.494 402.974 264.657C404.669 267.005 406.602 269.171 408.743 271.122C410.871 273.102 413.145 274.92 415.546 276.56L415.351 276.485C415.836 276.605 416.348 276.544 416.791 276.314C416.987 276.164 417.151 275.978 417.275 275.764C417.398 275.551 417.478 275.315 417.51 275.071C417.677 273.899 417.635 272.707 417.387 271.55C416.908 269.139 416.229 266.773 415.358 264.475C414.504 262.159 413.54 259.88 412.518 257.629C411.529 255.374 410.322 253.221 408.913 251.202C406.114 247.137 402.36 243.822 397.981 241.546C393.635 239.254 388.779 238.1 383.867 238.19L383.856 238.191C383.794 238.193 383.732 238.182 383.674 238.161C375.156 234.975 366.145 233.517 357.119 232.359C348.094 231.115 339.014 230.094 329.992 228.67C320.856 227.556 311.921 225.169 303.446 221.579C299.228 219.753 295.162 217.594 291.285 215.125C287.38 212.692 283.758 209.832 280.486 206.598C280.448 206.559 280.421 206.512 280.409 206.46C280.224 205.594 280.117 204.714 280.088 203.83C280.044 202.955 280.049 202.084 280.074 201.214C280.128 199.474 280.28 197.745 280.487 196.021C280.488 196.008 280.492 195.996 280.498 195.985C280.505 195.974 280.513 195.964 280.523 195.956C280.533 195.949 280.545 195.943 280.557 195.939C280.569 195.936 280.582 195.935 280.594 195.936C280.619 195.94 280.642 195.953 280.657 195.972C280.673 195.992 280.681 196.016 280.679 196.041Z" fill="#020202"/>
<path d="M309.514 191.966C311.401 195.003 313.064 198.174 314.489 201.453C315.194 203.097 315.883 204.75 316.44 206.472C316.744 207.334 316.999 208.212 317.205 209.103C317.322 209.563 317.409 210.03 317.466 210.502C317.545 211.026 317.563 211.559 317.519 212.088C317.513 212.205 317.481 212.319 317.424 212.421C317.368 212.523 317.288 212.611 317.192 212.678L317.128 212.721C315.201 214.036 313.35 215.457 311.581 216.978C310.695 217.731 309.858 218.542 309.076 219.403C308.255 220.24 307.636 221.253 307.268 222.366C307.331 221.136 307.736 219.948 308.438 218.936C309.086 217.902 309.826 216.929 310.65 216.029C311.479 215.144 312.331 214.281 313.238 213.482C314.155 212.689 315.064 211.915 316.064 211.191L315.673 211.824C315.68 211.467 315.653 211.109 315.591 210.757C315.533 210.348 315.449 209.943 315.337 209.544C315.133 208.727 314.896 207.885 314.634 207.056C314.106 205.395 313.529 203.727 312.941 202.063C311.784 198.723 310.559 195.393 309.514 191.966Z" fill="#020202"/>
<path d="M313.285 192.333C314.912 195.193 316.382 198.114 317.807 201.053C319.245 203.986 320.587 206.96 321.943 209.925C323.268 212.903 324.574 215.888 325.861 218.882C327.178 221.864 328.37 224.886 329.861 227.808C327.783 225.252 325.986 222.48 324.501 219.539C322.931 216.657 321.54 213.693 320.178 210.717C318.853 207.725 317.583 204.711 316.426 201.65C315.26 198.592 314.173 195.502 313.285 192.333Z" fill="#020202"/>
<path d="M404.861 253.351C406.443 256.902 407.989 260.471 409.471 264.069C410.214 265.867 410.937 267.674 411.621 269.501C411.966 270.413 412.293 271.335 412.6 272.266C412.739 272.741 412.909 273.195 413.023 273.689L413.204 274.422L413.297 275.252C413.304 275.315 413.298 275.379 413.28 275.439C413.263 275.5 413.234 275.556 413.194 275.605C413.155 275.655 413.106 275.696 413.051 275.726C412.996 275.757 412.935 275.776 412.872 275.783C412.81 275.79 412.746 275.784 412.686 275.767C412.625 275.749 412.569 275.72 412.519 275.68C412.47 275.641 412.429 275.592 412.399 275.537C412.368 275.482 412.349 275.421 412.342 275.358L412.341 275.345L412.33 275.206L412.281 274.586L412.14 273.898C412.056 273.439 411.904 272.973 411.789 272.511C411.525 271.585 411.24 270.662 410.936 269.741C410.333 267.9 409.686 266.068 409.02 264.244C407.691 260.593 406.294 256.965 404.861 253.351Z" fill="#020202"/>
<path d="M408.838 254.934C410.42 258.486 411.966 262.054 413.448 265.652C414.191 267.45 414.914 269.257 415.598 271.084C415.943 271.996 416.269 272.918 416.577 273.849C416.716 274.324 416.886 274.779 417 275.272L417.181 276.005L417.273 276.836C417.28 276.898 417.275 276.962 417.257 277.022C417.24 277.083 417.21 277.139 417.171 277.189C417.132 277.238 417.083 277.279 417.028 277.309C416.973 277.34 416.912 277.359 416.849 277.366C416.787 277.373 416.723 277.367 416.663 277.35C416.602 277.332 416.545 277.303 416.496 277.264C416.447 277.224 416.406 277.176 416.376 277.12C416.345 277.065 416.326 277.004 416.319 276.942L416.318 276.928L416.307 276.79L416.258 276.169L416.117 275.481C416.033 275.022 415.881 274.557 415.766 274.094C415.502 273.169 415.217 272.245 414.912 271.324C414.31 269.483 413.663 267.651 412.997 265.827C411.668 262.177 410.271 258.548 408.838 254.934Z" fill="#020202"/>
<path d="M297.26 163.952C297.525 163.662 297.854 163.438 298.221 163.297C298.576 163.15 298.954 163.063 299.338 163.04C299.734 163.019 300.13 163.077 300.504 163.209C300.893 163.341 301.224 163.604 301.441 163.952C300.756 163.936 300.071 163.954 299.389 164.006C298.679 164.062 297.966 164.044 297.26 163.952Z" fill="#020202"/>
<path d="M309.104 163.514C309.369 163.224 309.698 163 310.065 162.859C310.42 162.712 310.798 162.625 311.182 162.602C311.578 162.581 311.974 162.638 312.348 162.771C312.736 162.903 313.067 163.165 313.285 163.514C312.6 163.498 311.915 163.516 311.233 163.568C310.523 163.624 309.809 163.606 309.104 163.514Z" fill="#020202"/>
<path d="M308.321 171.193C308.695 171.381 309.01 171.668 309.232 172.022C309.499 172.407 309.619 172.876 309.569 173.342C309.535 173.476 309.492 173.609 309.44 173.738C309.367 173.86 309.284 173.976 309.19 174.083C309.082 174.165 308.97 174.241 308.86 174.311C308.749 174.359 308.634 174.396 308.516 174.421C308.092 174.509 307.65 174.445 307.268 174.242C307.439 174.139 307.617 174.049 307.801 173.972C307.955 173.874 308.124 173.811 308.24 173.718C308.341 173.669 308.427 173.595 308.492 173.504C308.557 173.412 308.599 173.306 308.613 173.195C308.638 172.901 308.614 172.604 308.54 172.318C308.47 171.976 308.38 171.614 308.321 171.193Z" fill="#020202"/>
<path d="M308.583 176.855C308.815 177.121 308.989 177.432 309.094 177.769C309.199 178.106 309.232 178.461 309.192 178.812C309.138 179.195 308.989 179.559 308.759 179.87C308.528 180.181 308.224 180.429 307.874 180.593C307.551 180.75 307.209 180.865 306.858 180.937C306.52 180.994 306.178 181.02 305.836 181.013C305.168 181.002 304.506 180.879 303.88 180.647C304.534 180.469 305.161 180.394 305.766 180.261C306.341 180.161 306.9 179.984 307.428 179.735C307.664 179.633 307.877 179.484 308.054 179.297C308.23 179.111 308.368 178.89 308.457 178.649C308.633 178.068 308.676 177.455 308.583 176.855Z" fill="#020202"/>
<path d="M300.163 170.09C300.54 170.077 300.896 169.919 301.158 169.648C301.419 169.377 301.565 169.015 301.565 168.639C301.565 168.262 301.419 167.9 301.158 167.63C300.896 167.359 300.54 167.2 300.163 167.187C299.787 167.2 299.43 167.359 299.169 167.63C298.907 167.9 298.761 168.262 298.761 168.639C298.761 169.015 298.907 169.377 299.169 169.648C299.43 169.919 299.787 170.077 300.163 170.09Z" fill="#020202"/>
<path d="M311.893 169.51C312.269 169.497 312.626 169.338 312.887 169.067C313.149 168.796 313.295 168.434 313.295 168.058C313.295 167.681 313.149 167.319 312.887 167.049C312.626 166.778 312.269 166.619 311.893 166.606C311.516 166.619 311.16 166.778 310.898 167.049C310.636 167.319 310.49 167.681 310.49 168.058C310.49 168.434 310.636 168.796 310.898 169.067C311.16 169.338 311.516 169.497 311.893 169.51Z" fill="#020202"/>
<path d="M311.855 192.298C313.139 187.962 313.939 183.497 314.24 178.985L315.354 165.416C315.542 163.157 315.823 160.867 315.915 158.683L315.97 157.855L315.938 157.034L315.877 155.385C315.753 154.307 315.516 153.245 315.169 152.217C314.844 151.188 314.318 150.235 313.622 149.412C312.925 148.589 312.071 147.913 311.111 147.423C309.076 146.537 306.818 146.299 304.644 146.742C304.589 146.752 304.532 146.749 304.478 146.733C301.309 145.774 297.918 145.842 294.789 146.926C291.729 148.064 289.124 150.17 287.371 152.924C286.458 154.27 285.698 155.713 285.103 157.226C284.769 157.968 284.547 158.763 284.257 159.525C284.03 160.313 283.776 161.092 283.585 161.891C283.172 163.494 282.919 165.087 282.601 166.757L282.13 169.262C281.979 170.099 281.821 170.934 281.597 171.754C280.007 178.369 277.592 184.757 274.408 190.768C272.828 193.767 271.057 196.66 269.105 199.431C267.184 202.215 265.024 204.826 262.647 207.233C262.63 207.25 262.606 207.26 262.582 207.261C262.557 207.262 262.533 207.253 262.515 207.237C262.496 207.22 262.485 207.197 262.483 207.173C262.481 207.148 262.488 207.124 262.503 207.104L262.507 207.1C266.587 201.801 270.082 196.078 272.934 190.029C275.754 184.005 277.986 177.723 279.598 171.269C280.054 169.671 280.318 168.029 280.688 166.409C281.037 164.786 281.352 163.065 281.818 161.422C282.038 160.593 282.323 159.777 282.581 158.958C282.901 158.155 283.165 157.335 283.555 156.558C284.257 154.968 285.132 153.461 286.165 152.064C288.224 149.215 291.152 147.112 294.51 146.07C297.838 145.128 301.367 145.167 304.674 146.182L304.508 146.173C306.818 145.699 309.214 145.9 311.412 146.752C312.511 147.226 313.502 147.918 314.325 148.786L314.941 149.447L315.426 150.203L315.91 150.965L316.254 151.789C316.708 152.887 317.043 154.031 317.252 155.2L317.433 156.952L317.522 157.832C317.527 158.123 317.523 158.414 317.516 158.706C317.518 161.07 317.275 163.299 317.087 165.569C316.658 170.094 316.234 174.624 315.583 179.145C315.065 183.705 313.869 188.162 312.035 192.369C312.025 192.391 312.006 192.409 311.983 192.418C311.96 192.427 311.935 192.428 311.911 192.419C311.888 192.41 311.87 192.392 311.859 192.37C311.849 192.347 311.847 192.322 311.855 192.298L311.855 192.298Z" fill="#020202"/>
<path d="M360.935 229.202C360.794 229.46 360.591 229.679 360.345 229.84C360.099 230.001 359.817 230.099 359.524 230.125C358.959 230.237 358.385 230.296 357.809 230.303C356.659 230.315 355.51 230.243 354.371 230.086C352.093 229.786 349.857 229.227 347.706 228.418C345.557 227.606 343.497 226.578 341.556 225.35C340.573 224.753 339.649 224.064 338.796 223.293C338.363 222.895 337.986 222.44 337.677 221.939C337.492 221.675 337.375 221.369 337.336 221.048C337.298 220.727 337.338 220.402 337.455 220.101C337.774 219.532 338.304 219.11 338.931 218.927C339.5 218.738 340.09 218.622 340.688 218.583C341.853 218.501 343.024 218.55 344.178 218.728C346.47 219.057 348.714 219.658 350.863 220.518C353.008 221.38 355.029 222.522 356.873 223.915C357.796 224.605 358.66 225.37 359.456 226.203C359.855 226.619 360.215 227.07 360.533 227.55C360.716 227.78 360.846 228.046 360.916 228.332C360.985 228.617 360.992 228.914 360.935 229.202ZM360.844 229.169C360.889 228.896 360.874 228.617 360.8 228.351C360.726 228.085 360.594 227.839 360.414 227.629C360.081 227.175 359.696 226.761 359.269 226.395C358.412 225.663 357.491 225.01 356.516 224.443C354.583 223.301 352.566 222.309 350.481 221.477C348.4 220.651 346.243 220.031 344.04 219.628C342.949 219.429 341.842 219.336 340.733 219.35C340.194 219.362 339.657 219.431 339.132 219.557C338.647 219.653 338.217 219.931 337.931 220.335C337.833 220.561 337.792 220.807 337.811 221.053C337.831 221.298 337.911 221.535 338.044 221.742C338.297 222.232 338.632 222.674 339.035 223.05C339.841 223.837 340.743 224.519 341.72 225.082C343.695 226.179 345.791 227.043 347.966 227.656C350.122 228.326 352.288 228.947 354.48 229.489C355.576 229.761 356.691 229.948 357.815 230.05C358.376 230.098 358.941 230.08 359.498 229.995C359.773 229.98 360.041 229.897 360.276 229.753C360.511 229.608 360.706 229.408 360.844 229.169V229.169Z" fill="#020202"/>
<path d="M315.747 234.45C323.801 233.386 331.796 236.233 339.809 235.008C341.868 234.808 343.843 234.088 345.547 232.914C347.782 231.178 347.994 227.723 350.271 226.327C351.862 225.352 350.405 222.84 348.806 223.821C347.243 224.779 346.776 225.805 345.885 227.393C343.455 231.725 340.341 232.386 335.525 232.363C328.871 232.332 322.418 230.666 315.747 231.547C313.921 231.788 313.897 234.694 315.747 234.45V234.45Z" fill="black"/>
<path d="M286.19 371.254C285.796 371.278 285.488 371.325 285.1 371.316C284.713 371.311 284.324 371.318 283.937 371.282C283.16 371.233 282.386 371.141 281.619 371.007C280.074 370.74 278.563 370.3 277.116 369.695C275.659 369.091 274.272 368.33 272.98 367.425C271.667 366.487 270.548 365.563 269.265 364.766C268.036 363.961 266.71 363.314 265.319 362.842C264.034 362.349 262.628 362.266 261.294 362.603C260.029 363.025 258.953 363.88 258.256 365.017C257.547 366.231 257.162 367.608 257.139 369.014C256.87 372.158 256.07 375.233 254.772 378.109C253.489 380.984 251.571 383.53 249.162 385.557C248.566 386.061 247.941 386.53 247.29 386.962L245.336 388.196C244.026 389.007 242.702 389.794 241.352 390.543C240.003 391.293 238.63 392.005 237.221 392.655C235.793 393.344 234.291 393.87 232.745 394.22L233.064 393.342C233.57 393.74 234.129 394.067 234.724 394.314C235.343 394.588 235.981 394.818 236.632 395.001C237.29 395.189 237.957 395.34 238.632 395.454C239.302 395.593 239.986 395.671 240.671 395.749C243.428 396.012 246.204 396.021 248.963 395.777C250.348 395.657 251.732 395.493 253.112 395.311C254.487 395.071 255.869 394.892 257.236 394.603C258.602 394.302 259.975 394.049 261.332 393.711L265.407 392.705L265.42 392.702C265.475 392.689 265.531 392.679 265.587 392.674C268.867 392.384 272.154 392.165 275.437 391.916L285.298 391.279L284.563 392.043C284.675 390.351 284.764 388.661 284.908 386.958L285.319 381.818L286.19 371.254ZM286.33 371.12L286.305 381.446L286.268 386.752C286.262 388.531 286.203 390.322 286.165 392.112C286.161 392.303 286.087 392.486 285.958 392.626C285.828 392.767 285.652 392.855 285.462 392.874L285.43 392.877L275.598 393.865C272.318 394.159 269.04 394.481 265.757 394.733L265.937 394.702L261.787 395.707C260.398 396.022 258.988 396.252 257.591 396.528C256.191 396.793 254.766 396.948 253.357 397.163C251.936 397.319 250.511 397.458 249.083 397.551C246.21 397.728 243.326 397.62 240.475 397.227C239.756 397.133 239.044 396.996 238.341 396.818C237.632 396.656 236.931 396.455 236.244 396.216C235.549 395.976 234.872 395.688 234.218 395.353C233.525 395.018 232.884 394.584 232.317 394.065C232.247 394 232.198 393.916 232.173 393.824C232.149 393.732 232.152 393.635 232.18 393.544C232.209 393.453 232.262 393.372 232.334 393.31C232.407 393.248 232.495 393.208 232.589 393.194L232.636 393.187C234.099 392.915 235.529 392.486 236.901 391.907C238.315 391.336 239.698 390.691 241.044 389.973C242.405 389.277 243.715 388.484 245.028 387.698C245.68 387.297 246.319 386.874 246.961 386.458C247.584 386.032 248.182 385.571 248.752 385.077C251.005 383.062 252.727 380.522 253.765 377.683C254.826 374.873 255.42 371.909 255.525 368.907C255.504 367.224 255.94 365.568 256.787 364.113C257.246 363.379 257.821 362.724 258.488 362.173C258.826 361.889 259.196 361.646 259.59 361.449C259.789 361.352 259.983 361.242 260.188 361.159L260.822 360.958C262.488 360.547 264.242 360.661 265.841 361.285C267.347 361.844 268.775 362.593 270.089 363.516C271.399 364.374 272.6 365.479 273.745 366.379C276.129 368.221 278.852 369.576 281.76 370.367C282.493 370.563 283.236 370.718 283.986 370.833C284.361 370.897 284.739 370.94 285.118 370.989L286.33 371.12Z" fill="#020202"/>
<path d="M272.408 381.626C272.774 382.231 273.235 382.774 273.773 383.234C274.024 383.436 274.301 383.604 274.596 383.733C274.909 383.886 275.26 383.996 275.659 384.181C275.287 384.402 274.856 384.503 274.424 384.469C273.968 384.442 273.532 384.276 273.174 383.994C272.821 383.723 272.558 383.352 272.421 382.929C272.285 382.506 272.28 382.052 272.408 381.626Z" fill="#020202"/>
<path d="M232.69 393.704C232.69 393.704 231.064 388.42 236.116 388.594C237.61 387.591 239.009 386.454 240.297 385.197C241.081 384.152 246.217 383.226 248.309 385.866" stroke="#020202" stroke-width="0.96777" stroke-linecap="round" stroke-linejoin="round"/>
<path d="M240.375 390.7C240.068 390.453 239.723 390.258 239.353 390.124L238.294 389.703C237.936 389.558 237.573 389.414 237.209 389.237C236.822 389.064 236.455 388.848 236.116 388.594C236.963 388.404 237.848 388.477 238.652 388.805C239.062 388.97 239.441 389.205 239.772 389.498C239.955 389.641 240.104 389.823 240.209 390.031C240.313 390.239 240.37 390.467 240.375 390.7Z" fill="#020202"/>
<path d="M239.261 386.213C239.477 386.036 239.74 385.927 240.018 385.9C240.296 385.873 240.575 385.928 240.822 386.059C241.089 386.176 241.306 386.384 241.433 386.646C241.561 386.909 241.59 387.208 241.516 387.49C240.982 387.202 240.718 387.086 240.387 386.923C239.987 386.727 239.61 386.489 239.261 386.213Z" fill="#020202"/>
<path d="M242.015 384.374C242.256 384.243 242.526 384.177 242.8 384.182C243.074 384.186 243.342 384.261 243.578 384.399C243.842 384.542 244.053 384.767 244.179 385.04C244.253 385.181 244.282 385.34 244.262 385.498C244.243 385.656 244.176 385.804 244.071 385.923C243.942 385.742 243.771 385.594 243.573 385.491C243.422 385.414 243.276 385.327 243.102 385.241C242.691 385.019 242.323 384.725 242.015 384.374Z" fill="#020202"/>
<path d="M366.564 213.072C366.776 213.67 367.055 214.242 367.397 214.776C365.384 219.324 363.316 223.853 361.193 228.363C361.019 228.721 360.855 229.089 360.68 229.447L360.506 229.37C362.422 223.892 364.435 218.453 366.497 213.034L366.564 213.072Z" fill="#020202"/>
<path d="M368.8 207.082C368.853 207.178 368.885 207.285 368.893 207.394C368.9 207.504 368.884 207.614 368.844 207.717C368.804 207.819 368.743 207.912 368.663 207.988C368.583 208.064 368.488 208.121 368.384 208.156C368.519 207.798 368.655 207.44 368.8 207.082Z" fill="#020202"/>
<path d="M371.452 200.346C371.545 200.498 371.601 200.671 371.614 200.85C371.628 201.028 371.599 201.207 371.529 201.372C371.464 201.529 371.364 201.669 371.236 201.781C371.109 201.894 370.957 201.975 370.794 202.02C371.006 201.459 371.229 200.907 371.452 200.346Z" fill="#020202"/>
<path d="M373.977 194.114C374.112 194.215 374.209 194.358 374.254 194.521C374.299 194.684 374.288 194.857 374.224 195.013C374.16 195.169 374.046 195.299 373.899 195.383C373.753 195.467 373.583 195.501 373.416 195.478C373.6 195.023 373.784 194.568 373.977 194.114Z" fill="#020202"/>
<path d="M381.971 179.713L381.168 181.726C380.336 183.826 379.503 185.917 378.661 188.016C378.414 187.896 378.158 187.793 377.897 187.707L376.794 189.807L376.484 189.671L375.913 189.468C377.094 186.652 378.294 183.836 379.484 181.029L380.326 179.036C380.535 178.565 380.562 178.035 380.403 177.545C380.326 177.301 380.201 177.074 380.036 176.877C379.842 176.655 379.571 176.374 379.339 176.123C378.865 175.6 378.352 175.126 377.839 174.642C375.757 172.727 373.43 171.097 370.919 169.794C368.388 168.477 365.679 167.535 362.877 166.997C362.236 166.801 361.551 166.804 360.912 167.006C360.296 167.231 359.788 167.68 359.49 168.264C358.89 169.552 358.309 170.887 357.738 172.203C355.493 177.516 353.519 182.945 351.419 188.317C349.309 193.688 347.054 198.991 344.77 204.294C342.486 209.588 340.125 214.862 337.638 220.079L337.463 220.011C339.302 214.524 341.296 209.104 343.376 203.723C345.467 198.343 347.606 192.981 349.928 187.697C352.29 182.423 354.777 177.207 357.167 171.952L358.967 168.003C359.324 167.279 359.943 166.718 360.7 166.435C361.44 166.185 362.236 166.155 362.993 166.348C365.883 166.808 368.701 167.644 371.374 168.835C372.72 169.428 374.023 170.114 375.274 170.887C375.913 171.264 376.503 171.7 377.113 172.116C377.694 172.571 378.294 173.006 378.855 173.49C379.406 173.974 379.968 174.458 380.49 174.99C380.761 175.252 381.003 175.474 381.294 175.784C381.606 176.131 381.849 176.535 382.01 176.974C382.341 177.86 382.327 178.837 381.971 179.713Z" fill="#020202"/>
<path d="M373.929 218.502C372.29 218.459 370.699 217.933 369.358 216.99C368.009 216.03 366.986 214.68 366.425 213.122L366.491 213.2L361.081 210.614L358.374 209.322L357.021 208.676L356.344 208.353C356.013 208.201 355.724 207.969 355.504 207.678C355.284 207.386 355.14 207.045 355.085 206.684C355.029 206.323 355.064 205.954 355.187 205.61C355.309 205.266 355.515 204.958 355.786 204.713C356.227 204.312 356.81 204.102 357.406 204.129C357.69 204.148 357.97 204.212 358.234 204.319L358.943 204.564L364.606 206.543L367.437 207.532L367.791 207.655C367.883 207.695 367.98 207.723 368.08 207.738C368.131 207.753 368.186 207.753 368.237 207.738C368.288 207.722 368.334 207.693 368.369 207.652C368.402 207.61 368.425 207.56 368.436 207.507C368.446 207.454 368.443 207.4 368.427 207.348C368.412 207.296 368.384 207.249 368.346 207.211C368.308 207.172 368.261 207.144 368.21 207.127L362.786 204.548L357.345 201.956C356.84 201.687 356.443 201.252 356.223 200.723C356.004 200.194 355.975 199.606 356.141 199.058C356.308 198.51 356.659 198.037 357.136 197.72C357.612 197.403 358.184 197.261 358.754 197.319C359.05 197.357 359.339 197.433 359.615 197.546L365.266 199.581L368.088 200.605L369.499 201.118L370.205 201.374C370.352 201.438 370.351 201.391 370.42 201.418C370.47 201.448 370.532 201.413 370.59 201.41C370.705 201.381 370.807 201.314 370.877 201.218C370.948 201.123 370.983 201.006 370.977 200.887C370.971 200.769 370.924 200.656 370.844 200.569C370.764 200.481 370.656 200.424 370.539 200.407L367.83 199.111L362.412 196.52L359.702 195.224L359.532 195.142L359.309 195.02C359.165 194.931 359.029 194.828 358.904 194.713C358.53 194.364 358.266 193.913 358.148 193.415C358.029 192.917 358.061 192.396 358.238 191.916C358.356 191.594 358.54 191.299 358.777 191.051C359.014 190.802 359.299 190.605 359.616 190.472C360.237 190.211 360.932 190.188 361.569 190.406L364.404 191.44L370.036 193.499L372.851 194.529C373.062 194.603 373.375 194.726 373.501 194.761C373.503 194.771 373.553 194.757 373.55 194.751C373.556 194.739 373.559 194.725 373.557 194.711C373.567 194.697 373.518 194.69 373.583 194.708L373.534 194.686L367.008 191.486L363.746 189.884L363.314 189.667C363.132 189.57 362.962 189.451 362.808 189.313C362.501 189.034 362.263 188.687 362.113 188.299C361.966 187.911 361.915 187.494 361.962 187.081C362.01 186.669 362.155 186.274 362.387 185.93C362.618 185.585 362.929 185.301 363.292 185.101C363.656 184.901 364.062 184.792 364.477 184.781C364.868 184.78 365.254 184.858 365.615 185.009L366.468 185.32L369.88 186.566L376.704 189.054L376.729 189.063L376.747 189.071L377.056 189.207L376.214 189.502L377.322 187.405L377.586 186.906L378.084 187.085C379.533 187.61 380.869 188.407 382.018 189.434C382.587 189.941 383.109 190.498 383.576 191.1C383.821 191.406 384.042 191.731 384.236 192.072C384.422 192.408 384.59 192.754 384.738 193.109C385.338 194.518 385.649 196.033 385.654 197.564C385.66 199.098 385.339 200.615 384.713 202.015L384.734 201.957L384.021 204.158L383.898 203.598C387.076 207.058 389.579 211.082 391.277 215.462C392.142 217.681 392.517 220.061 392.376 222.439C392.295 223.656 391.926 224.837 391.302 225.886C390.664 226.933 389.755 227.788 388.67 228.361C386.537 229.38 384.217 229.951 381.855 230.037C379.535 230.218 377.219 230.217 374.91 230.217C370.274 230.234 365.658 229.611 361.193 228.366H361.193L361.038 228.325L361.193 228.361L361.194 228.361C365.681 229.443 370.291 229.932 374.905 229.814C377.213 229.758 379.52 229.702 381.802 229.467C384.066 229.328 386.279 228.734 388.308 227.719C389.263 227.182 390.063 226.407 390.63 225.468C391.196 224.53 391.509 223.46 391.539 222.365C391.633 220.115 391.241 217.871 390.389 215.786C388.673 211.557 386.182 207.686 383.044 204.372L382.824 204.129L382.922 203.811L383.602 201.6L383.61 201.573L383.624 201.542C384.155 200.284 384.426 198.932 384.419 197.567C384.412 196.202 384.127 194.853 383.583 193.601C383.452 193.29 383.303 192.986 383.138 192.691C382.973 192.406 382.785 192.134 382.577 191.878C382.155 191.341 381.685 190.843 381.173 190.391C380.157 189.495 378.982 188.795 377.71 188.329L378.471 188.009L377.374 190.112L377.092 190.651L376.531 190.407L376.221 190.273L376.264 190.29L369.417 187.832L365.995 186.602L365.139 186.295C364.942 186.204 364.728 186.156 364.511 186.156C364.317 186.162 364.128 186.214 363.959 186.308C363.79 186.403 363.646 186.536 363.539 186.697C363.432 186.858 363.364 187.042 363.343 187.235C363.321 187.427 363.346 187.622 363.415 187.802C363.486 187.982 363.598 188.142 363.741 188.272C363.813 188.336 363.893 188.391 363.979 188.435L364.359 188.623L367.63 190.21L374.169 193.386L374.12 193.365C374.462 193.515 374.734 193.789 374.882 194.132C375.03 194.474 375.044 194.86 374.92 195.212C374.796 195.564 374.543 195.856 374.213 196.03C373.883 196.204 373.499 196.247 373.139 196.15C372.786 196.045 372.637 195.971 372.376 195.88L369.559 194.834L363.926 192.743L361.127 191.706C360.974 191.642 360.809 191.61 360.643 191.611C360.477 191.613 360.313 191.648 360.161 191.715C360.009 191.782 359.872 191.878 359.758 191.999C359.645 192.12 359.557 192.263 359.5 192.419C359.443 192.575 359.418 192.741 359.427 192.907C359.436 193.073 359.478 193.235 359.552 193.384C359.625 193.533 359.728 193.666 359.854 193.774C359.98 193.882 360.126 193.964 360.284 194.014L362.984 195.321L368.383 197.936L371.083 199.244L371.258 199.329C371.348 199.372 371.434 199.423 371.515 199.482C371.676 199.598 371.816 199.741 371.929 199.905C372.153 200.224 372.267 200.607 372.254 200.997C372.24 201.392 372.094 201.769 371.838 202.07C371.583 202.37 371.234 202.576 370.847 202.653C370.66 202.698 370.466 202.706 370.276 202.677C370.101 202.655 369.928 202.616 369.761 202.559L369.057 202.299L367.65 201.781L364.835 200.743L359.211 198.654C359.026 198.571 358.831 198.513 358.631 198.481C358.37 198.45 358.105 198.498 357.871 198.619C357.637 198.739 357.445 198.927 357.318 199.158C357.147 199.472 357.107 199.842 357.207 200.186C357.307 200.529 357.54 200.819 357.853 200.992L363.212 203.643L368.591 206.3C368.77 206.376 368.928 206.493 369.053 206.641C369.172 206.792 369.259 206.966 369.306 207.152C369.379 207.444 369.34 207.752 369.195 208.016C369.05 208.279 368.811 208.478 368.525 208.573C368.334 208.631 368.132 208.641 367.936 208.603C367.789 208.579 367.644 208.537 367.506 208.479L367.154 208.35L364.333 207.317L358.693 205.252C358.266 205.065 357.821 204.923 357.365 204.826C356.95 204.798 356.541 204.935 356.226 205.207C355.909 205.487 355.717 205.881 355.691 206.303C355.665 206.725 355.807 207.14 356.086 207.457C356.229 207.617 356.401 207.747 356.593 207.841L357.263 208.181L358.603 208.86L361.281 210.22L366.638 212.944L366.685 212.968L366.703 213.023C367.216 214.548 368.173 215.885 369.453 216.861C370.75 217.837 372.308 218.408 373.929 218.502Z" fill="#020202"/>
<path d="M374.695 215.41C376.386 214.054 377.926 212.522 379.291 210.839C380.619 209.128 381.75 207.273 382.662 205.309C382.381 207.557 381.476 209.681 380.049 211.44C378.659 213.225 376.808 214.598 374.695 215.41Z" fill="#020202"/>
<path d="M326.565 217.54C325.885 217.477 325.205 217.429 324.525 217.378L324.812 218.072C325.368 218.139 325.925 218.201 326.479 218.276C330.23 218.769 333.953 219.449 337.635 220.315C337.857 220.368 338.525 219.537 338.525 219.537C334.585 218.617 330.59 217.95 326.565 217.54Z" fill="#020202"/>
</svg>
