<svg width="153" height="158" viewBox="0 0 153 158" fill="none" xmlns="http://www.w3.org/2000/svg">
<path d="M131.888 93.1192L131.997 93.0885C131.628 91.2752 132.797 86.6515 132.732 82.4267C132.667 78.2018 132.791 68.4019 132.791 68.4019C130.2 68.847 126.986 68.0761 125.794 67.7472L125.814 67.6585C125.584 67.5818 125.37 67.4585 125.186 67.2958L125.133 67.4387C125.133 67.4387 124.073 68.2237 123.309 67.8508C122.56 67.3222 121.952 66.6083 121.539 65.7745L121.533 65.769C121.492 65.7289 121.258 65.5005 120.954 65.1771C120.317 64.4973 119.373 63.3975 119.293 62.7695C119.172 61.8181 125.301 56.411 126.068 56.4322C126.836 56.4534 130.577 60.0715 132.082 60.8156C133.587 61.5598 138.339 64.0828 138.899 66.2384C138.899 66.2384 144.979 88.9492 145.305 92.9543C145.631 96.9594 144.925 101.526 145.077 103.391C145.229 105.256 136.257 104.583 130.257 105.393C124.785 106.131 119.56 106.546 113.829 104.309C113.486 104.227 113.133 104.194 112.781 104.211C114.939 100.267 115.496 89.7931 115.496 89.7931L117.781 90.7351C119.954 90.1711 122.197 89.9493 124.435 90.0773C127.166 90.262 129.772 91.3258 131.888 93.1192Z" fill="#FFD997"/>
<path d="M136.691 3.56934L130.285 28.3808L125.982 24.6623L118.749 43.7252L113.789 39.5035L106.639 53.3752L112.52 32.3192L117.02 35.8941L125.148 14.4055L128.886 18.9286L136.691 3.56934Z" fill="white"/>
<path d="M123.311 67.8507C123.311 67.8507 121.379 68.6357 120.62 67.4998C119.874 66.3812 120.957 65.177 120.957 65.177C121.261 65.5004 121.494 65.7265 121.535 65.7689L121.541 65.7744C121.954 66.6083 122.563 67.3221 123.311 67.8507Z" fill="#FFD997"/>
<path d="M104.897 80.5056C105.623 82.9532 103.567 83.5843 101.687 83.633C101.498 83.633 101.307 83.6267 101.117 83.633C100.471 83.6219 99.828 83.5393 99.199 83.3865L98.7802 83.4289C98.6122 81.6234 98.4382 80.347 98.4382 80.347L97.8066 80.2803C98.1102 80.1194 98.368 79.8797 98.5548 79.5848C98.7416 79.2899 98.8509 78.9499 98.8719 78.5982C98.893 78.2465 98.8252 77.8951 98.675 77.5787C98.5249 77.2623 98.2977 76.9916 98.0156 76.7933C98.869 75.8843 99.495 74.7742 99.8396 73.5591L100.103 73.6376C100.103 73.6376 103.88 77.0767 104.897 80.5056Z" fill="#81F8F8"/>
<path d="M102.596 114.535C103.85 115.608 104.236 117.275 102.026 118.631C99.8163 119.986 95.3133 119.46 94.0084 117.303C93.0082 115.647 90.8749 114.382 89.6619 113.596C89.4847 113.482 89.3443 113.316 89.2587 113.12C89.173 112.923 89.1459 112.705 89.1809 112.492L89.8238 110.343C89.8238 110.343 91.2845 111.255 91.7573 110.965C92.23 110.676 92.3501 107.503 95.4813 106.399C95.6291 106.337 95.7894 106.312 95.9483 106.328C96.1072 106.344 96.2599 106.4 96.3933 106.491C97.3433 107.143 97.4261 109.545 97.4261 109.545L98.8982 111.665C99.5001 112.937 101.345 113.462 102.596 114.535Z" fill="#81F8F8"/>
<path d="M74.8595 75.7753L74.4909 75.8609C74.3659 75.6093 74.1915 75.3875 73.9787 75.2096C73.766 75.0317 73.5197 74.9017 73.2555 74.8278C72.9913 74.7539 72.715 74.7378 72.4445 74.7805C72.1739 74.8232 71.9149 74.9238 71.6842 75.0759L71.6462 74.9354C70.1178 72.7837 70.0023 69.1413 72.3302 68.3641C72.6681 68.256 73.0208 68.2056 73.3744 68.215C73.86 69.8805 74.6483 71.4353 75.697 72.7962C73.1441 62.5912 76.6204 58.4088 81.1621 54.6023C84.0957 64.8497 94.0061 63.8653 95.0375 64.2342L95.153 64.2068C95.8774 67.4536 95.5846 70.8541 94.317 73.918C95.5315 72.771 96.5397 71.4108 97.2947 69.9004L97.3273 69.9184C97.7616 69.8983 98.1959 69.9562 98.611 70.0896C100.022 70.577 100.252 72.0309 99.8353 73.5608C99.4909 74.776 98.8648 75.8861 98.0113 76.795C97.7904 76.6394 97.5411 76.532 97.2786 76.4793C97.0161 76.4266 96.746 76.4298 96.4848 76.4885C96.2235 76.5473 95.9766 76.6605 95.7591 76.8212C95.5416 76.9819 95.3581 77.1866 95.2199 77.423L94.8923 77.2488C93.5811 79.3408 91.8701 81.1343 89.8641 82.5192C88.2602 83.638 86.3536 84.2015 84.4195 84.1285C81.1469 83.8726 78.5295 81.5137 76.7085 78.9475C76.0029 77.9484 75.3842 76.8869 74.8595 75.7753ZM90.2016 66.2132C91.3791 66.2059 92.5559 66.2722 93.7257 66.4118C92.4535 65.3631 88.3548 64.7351 88.0447 65.4549C87.6579 66.3443 88.9742 66.3145 90.2016 66.2132ZM87.4808 77.4945C88.1351 76.9718 88.7425 76.3893 89.2957 75.7541C87.8849 75.4298 86.4543 75.2058 85.0138 75.0837C83.572 74.9256 82.1168 74.9541 80.6818 75.1685C81.1962 75.8503 81.7616 76.4895 82.3728 77.08C83.0405 77.8509 83.9687 78.3284 84.9667 78.4145C85.4241 78.4438 85.8826 78.3775 86.3146 78.2194C86.7466 78.0613 87.1433 77.8147 87.4808 77.4945ZM80.8855 65.6465C82.1015 65.8294 83.4117 65.9455 83.0842 65.031C82.8212 64.2931 78.6899 64.6472 77.353 65.6103C78.5302 65.5496 79.7098 65.5617 80.8855 65.6465Z" fill="#FFD997"/>
<path d="M73.3749 68.2135C72.5666 65.6955 72.1038 63.073 72 60.4224C71.6839 54.235 78.3741 46.7579 86.0197 48.3035L86.038 48.2054C87.6661 47.9687 89.3251 48.1231 90.886 48.6566C92.447 49.19 93.8677 50.0881 95.0379 51.281C98.1395 54.264 99.8867 58.7951 99.5059 62.4155C99.4497 62.9461 99.379 63.4548 99.2939 63.9462C98.9412 66.0283 98.2666 68.0382 97.2959 69.8989C96.5413 71.4093 95.5331 72.7694 94.3182 73.9157C95.5858 70.8521 95.8786 67.4518 95.1542 64.2053L95.0387 64.2328C94.0058 63.8669 84.0947 64.8482 81.1633 54.6008C76.6216 58.4073 73.1453 62.5929 75.6982 72.7948C74.6492 71.4338 73.8607 69.8791 73.3749 68.2135Z" fill="black"/>
<path d="M98.7802 83.4276C98.9919 85.5783 99.0845 87.7398 99.0576 89.9015C98.9451 94.1138 96.7677 104.031 96.7677 104.031L96.3877 106.489C96.2544 106.398 96.1016 106.342 95.9427 106.326C95.7838 106.31 95.6235 106.334 95.4757 106.397C92.3476 107.5 92.2237 110.673 91.7517 110.963C91.2798 111.253 89.8183 110.341 89.8183 110.341C89.7772 110.037 90.4149 107.751 90.3708 107.248C90.0311 103.486 89.6108 95.8172 88.8858 93.2236C88.848 93.0881 88.8175 92.9505 88.7946 92.8115C88.645 91.6538 88.6361 90.4813 88.768 89.3213C89.002 87.042 89.3746 84.7801 89.8836 82.5491L89.8662 82.5185C91.8721 81.1336 93.5831 79.3401 94.8943 77.248L95.2219 77.4223C95.0594 77.6996 94.9642 78.0134 94.9445 78.3368C94.9214 78.6955 94.9909 79.054 95.1458 79.3759C95.3008 79.6977 95.5357 79.9713 95.8265 80.1687C96.1173 80.3661 96.4536 80.4803 96.8011 80.4995C97.1486 80.5187 97.4948 80.4423 97.8044 80.2781L98.4359 80.3449C98.4359 80.3449 98.6122 81.6276 98.7802 83.4276Z" fill="#FFD997"/>
<path d="M99.2943 63.946C99.2851 65.9666 99.1727 69.0635 98.6103 70.0847C98.1952 69.9514 97.7609 69.8935 97.3266 69.9136L97.2939 69.8956C98.2651 68.0359 98.9405 66.0271 99.2943 63.946Z" fill="#81F8F8"/>
<path d="M97.281 32.776L95.4874 34.1207L93.218 30.5662L94.1566 34.7817L91.2321 36.4553L90.0868 32.8098L89.7532 32.7792C90.9069 31.2492 91.4062 28.9751 89.7061 28.4664L89.7859 28.1861C90.0511 27.4268 90.2736 26.6523 90.4524 25.8665L90.6447 25.912C90.6447 25.912 96.0832 30.3315 97.281 32.776Z" fill="#81F8F8"/>
<path d="M93.7254 66.4117C92.5556 66.2721 91.3788 66.2057 90.2013 66.2131C88.9739 66.3167 87.6575 66.3442 88.0444 65.4547C88.3583 64.7349 92.4531 65.3629 93.7254 66.4117Z" fill="#81F8F8"/>
<path d="M80.7442 22.6417C77.613 22.3881 73.8001 22.3426 73.8001 22.3426C73.8001 22.3426 73.2635 22.2908 72.6403 22.2052C72.5848 22.3277 71.3954 24.9527 70.4097 26.6067L70.244 26.5031C70.1055 25.7128 70.0101 24.915 69.9583 24.1136C69.8017 21.5898 70.0198 17.6515 72.4929 15.0547C73.6177 13.8195 74.9881 12.8506 76.51 12.2145C78.0318 11.5784 79.6689 11.2903 81.3088 11.3699C82.9416 11.5579 84.514 12.116 85.9138 13.0043C87.3136 13.8926 88.5063 15.0891 89.4066 16.5085C91.4222 19.4915 91.0118 23.4031 90.4539 25.8665C90.2756 26.6524 90.053 27.427 89.7874 28.1862L89.7076 28.4664C89.7002 28.4628 89.6922 28.4607 89.684 28.4601C88.3829 27.1523 88.1055 20.7122 88.1055 20.7122C88.1055 20.7122 85.8628 23.2697 82.6784 22.8427C82.0985 22.7634 81.4373 22.6959 80.7442 22.6417Z" fill="#81F8F8"/>
<path d="M89.8686 82.5207L89.8861 82.5514C89.377 84.7826 89.0043 87.0447 88.7704 89.3243C87.6698 90.5696 86.2448 91.4606 84.6664 91.8905C84.0911 91.9148 83.6784 91.9635 83.6784 91.9635C83.6597 91.9651 83.6409 91.9651 83.6221 91.9635C81.8133 91.8536 78.5203 87.916 77.077 86.9583L76.6051 86.8885C77.0377 85.7251 77.1138 84.4525 76.8232 83.2429C76.6703 82.829 76.4911 82.4259 76.2866 82.0364L76.3687 81.9901L76.6195 79.0126L76.7115 78.9451C78.5355 81.5152 81.1499 83.8741 84.4224 84.1261C86.3566 84.2002 88.2636 83.6381 89.8686 82.5207Z" fill="#FFD997"/>
<path d="M70.3033 26.7927V26.7865C70.339 26.7291 70.374 26.6679 70.4097 26.6067C71.3977 24.9582 72.5848 22.3277 72.6403 22.2052C73.2635 22.2908 73.8 22.3426 73.8 22.3426C73.8 22.3426 77.613 22.3881 80.7442 22.6417C81.4373 22.6958 82.0985 22.7633 82.6768 22.8395C85.8612 23.2665 88.104 20.709 88.104 20.709C88.104 20.709 88.3814 27.146 89.6825 28.4569C89.6907 28.4575 89.6987 28.4597 89.7061 28.4632C91.4062 28.9719 90.9069 31.246 89.7532 32.776C88.9932 33.7847 87.9353 34.4708 87.0385 34.105L86.891 33.992C86.0039 35.2921 84.8239 36.3498 83.4528 37.0739L83.506 37.0888L83.4946 37.1532C83.4946 37.1532 83.3821 39.8928 79.041 39.5427C75.5062 39.2562 74.6505 37.0527 74.4498 36.1868C74.4217 36.0715 74.4019 35.9543 74.3906 35.8359L74.5646 35.6993C73.6097 34.8839 72.8195 33.8823 72.239 32.7517L72.0064 32.8098C71.0352 33.0233 70.076 32.1088 69.4886 30.9258C68.6389 29.2309 68.556 26.9858 70.3033 26.7927ZM83.1473 25.1984C83.8115 25.5038 86.2724 25.1835 86.2724 25.1835C85.4136 24.3451 83.1473 23.9212 82.8995 24.4338C82.6518 24.9464 82.4884 24.8938 83.1488 25.1984H83.1473ZM82.4952 32.1574L76.8446 31.6699C76.8446 31.6699 77.467 34.1749 79.5943 34.3578C81.6083 34.532 82.4967 32.1574 82.4967 32.1574H82.4952ZM77.3135 24.6999C78.0158 24.5139 77.8417 24.5351 77.6791 23.9864C77.5164 23.4376 75.2152 23.4714 74.2325 24.1512C74.234 24.1473 76.6128 24.8844 77.315 24.696L77.3135 24.6999Z" fill="#FFD997"/>
<path d="M86.2736 25.1804C86.2736 25.1804 83.8127 25.5007 83.1484 25.1953C82.4842 24.8899 82.656 24.9394 82.9007 24.4307C83.1454 23.922 85.4148 24.3452 86.2736 25.1804Z" fill="#81F8F8"/>
<path d="M83.0842 65.0311C83.4117 65.9456 82.1015 65.8294 80.8855 65.6465C79.7098 65.5618 78.5302 65.5497 77.353 65.6104C78.6899 64.6472 82.8212 64.2932 83.0842 65.0311Z" fill="#81F8F8"/>
<path d="M59.0926 109.423C60.5419 108.027 61.495 107.161 61.495 107.161L63.097 102.3C62.8789 99.651 62.5483 96.0267 62.5073 94.9473C62.4662 93.8679 63.1092 93.2038 63.1092 92.1676C63.1092 91.1314 62.4685 88.9703 63.5135 88.931C63.5539 88.9285 63.5944 88.9303 63.6344 88.9365C64.6018 89.0433 65.3991 90.899 65.3193 92.3324C65.2619 93.0231 65.2639 93.7177 65.3254 94.408L66.042 95.8563L66.1013 95.9081C67.0688 94.722 68.0994 93.6246 68.0994 93.6246C68.0994 93.6246 70.9494 85.0963 71.4517 84.1425C71.9541 83.1888 74.2432 82.9839 73.6466 85.258C73.05 87.5322 71.5992 92.3356 71.5992 92.3356L72.6996 92.7469C72.6996 92.7469 74.5502 90.0096 75.2023 89.3392C75.2711 89.2698 75.3529 89.2156 75.4427 89.1799C75.5325 89.1443 75.6283 89.128 75.7244 89.132C76.5004 89.1414 77.48 90.2169 76.7512 91.8355C77.0917 91.9828 77.3832 92.2293 77.5903 92.5449C77.7973 92.8605 77.9108 93.2316 77.917 93.6128C77.8914 93.9174 77.8071 94.2136 77.6693 94.4841C77.6693 94.4841 78.7903 95.7401 77.7696 98.5842C76.5408 101.708 74.7765 104.577 72.5613 107.054C72.0856 107.581 71.5001 107.988 70.849 108.246C70.849 108.246 70.6431 108.728 70.2768 109.566C69.554 111.224 68.208 114.282 66.6386 117.726C64.8207 121.716 62.6958 126.227 60.8778 129.711C60.0739 131.315 59.1762 132.867 58.1897 134.359C54.5417 139.54 51.1164 139.748 49.7469 141.751C48.3774 143.753 43.5856 143.284 42.4433 140.102C41.301 136.92 40.2856 124.813 43.0779 120.57C44.7658 118 46.8627 111.923 48.3827 106.491C48.5689 106.564 56.0496 109.487 58.9824 109.301L59.0926 109.423Z" fill="#FFD997"/>
<path d="M77.6805 23.9826C77.8431 24.5321 78.0172 24.5102 77.3149 24.6962C76.6127 24.8822 74.2339 24.1467 74.2339 24.1467C75.2166 23.4677 77.5216 23.4371 77.6805 23.9826Z" fill="#81F8F8"/>
<path d="M71.9971 109.523C72.8764 110.276 72.7137 112.675 72.7137 112.675L73.9624 114.943C74.4344 116.272 76.2143 116.997 77.3497 118.198C78.4852 119.399 78.7018 121.103 76.3617 122.21C74.0217 123.316 69.6038 122.307 68.5269 120.021C68.087 119.172 67.5067 118.409 66.8123 117.766L66.6353 117.726C68.2047 114.282 69.5506 111.224 70.2734 109.566L70.3152 109.584C70.5695 109.481 70.8309 109.398 71.0972 109.335C71.2508 109.289 71.4129 109.282 71.5696 109.315C71.7263 109.347 71.873 109.419 71.9971 109.523Z" fill="#81F8F8"/>
<path d="M64.7081 86.9601L60.9985 83.6058C61.6176 81.8225 62.3644 80.0894 63.2329 78.4209C65.8413 74.5806 70.7516 75.7519 70.7516 75.7519L70.9849 75.8767C70.8648 76.1182 70.7945 76.3828 70.7782 76.6538C70.7555 77.0124 70.8252 77.3708 70.9802 77.6924C71.1352 78.0141 71.37 78.2876 71.6607 78.4849C71.9514 78.6823 72.2875 78.7966 72.6349 78.8161C72.9823 78.8356 73.3284 78.7596 73.6381 78.5959L74.1397 78.6171C74.9308 79.704 75.6486 80.8457 76.2882 82.0342C76.4927 82.4237 76.6719 82.8268 76.8248 83.2408C77.1154 84.4503 77.0393 85.7229 76.6067 86.8863C76.3734 87.6582 76.0783 88.4086 75.7243 89.1298C75.6282 89.1258 75.5323 89.1421 75.4425 89.1778C75.3527 89.2134 75.2709 89.2676 75.2022 89.3371C74.5501 90.0075 72.6995 92.7448 72.6995 92.7448L71.599 92.3334C71.599 92.3334 73.0506 87.5261 73.6465 85.2559C74.2423 82.9856 71.9501 83.189 71.4516 84.1404C70.953 85.0918 68.0992 93.6224 68.0992 93.6224C68.0992 93.6224 67.0694 94.7214 66.1012 95.9052L66.0419 95.8534L65.3252 94.4058C65.2638 93.7155 65.2617 93.0209 65.3191 92.3303C65.3989 90.8976 64.6017 89.0411 63.6342 88.9344L64.2863 88.9289C64.3831 88.2634 64.524 87.6056 64.7081 86.9601Z" fill="#FFD997"/>
<path d="M76.7127 78.9452L76.6207 79.0127L76.3699 81.9902L76.2878 82.0365C75.6482 80.8481 74.9304 79.7063 74.1393 78.6194L73.6377 78.5983C74.1021 78.3519 74.4528 77.9252 74.6127 77.4119C74.7726 76.8986 74.7286 76.3408 74.4904 75.861L74.859 75.7754C75.3853 76.8863 76.0056 77.9471 76.7127 78.9452Z" fill="#81F8F8"/>
<path d="M74.4902 75.8609C74.6286 76.1393 74.7028 76.447 74.707 76.76C74.7113 77.0729 74.6455 77.3826 74.5147 77.665C74.384 77.9473 74.1919 78.1946 73.9534 78.3877C73.7148 78.5807 73.4364 78.7142 73.1397 78.7777C72.843 78.8413 72.5361 78.8332 72.243 78.754C71.9498 78.6749 71.6783 78.5268 71.4497 78.3215C71.221 78.1161 71.0414 77.8589 70.9248 77.5701C70.8083 77.2812 70.7579 76.9684 70.7776 76.6561C70.7995 76.3379 70.8927 76.0294 71.0499 75.7548C71.2072 75.4803 71.4241 75.2473 71.6835 75.0743C71.9143 74.9223 72.1733 74.8217 72.4438 74.7789C72.7144 74.7362 72.9906 74.7523 73.2548 74.8262C73.519 74.9001 73.7654 75.0302 73.9781 75.2081C74.1908 75.386 74.3653 75.6078 74.4902 75.8593V75.8609Z" fill="white"/>
<path d="M73.3752 68.2135C73.0215 68.2042 72.6688 68.2545 72.3309 68.3626L72.3013 68.2739C71.9619 66.7984 71.8288 65.2802 71.9061 63.7657C71.9114 61.9955 72.0003 60.4224 72.0003 60.4224C72.1041 63.073 72.5669 65.6955 73.3752 68.2135Z" fill="#81F8F8"/>
<path d="M72.5609 107.056L72.6225 107.123L71.997 109.525C71.8733 109.421 71.7272 109.35 71.571 109.317C71.4148 109.284 71.2533 109.291 71.1002 109.336C70.8339 109.399 70.5725 109.483 70.3182 109.586L70.2764 109.568C70.6427 108.73 70.8486 108.248 70.8486 108.248C71.4997 107.99 72.0852 107.582 72.5609 107.056Z" fill="#FFD997"/>
<path d="M72.3012 68.2769L72.3308 68.3656C70.0022 69.1428 70.1177 72.7852 71.6468 74.9369L71.6848 75.0774C71.3842 75.2737 71.1422 75.5522 70.9856 75.882L70.7523 75.7572C70.7523 75.7572 65.8419 74.5797 63.2336 78.4262C62.3651 80.0948 61.6182 81.8279 60.9992 83.6111C60.9992 83.6111 58.4319 86.2016 56.9773 86.5737C56.8925 86.5796 56.8085 86.594 56.7265 86.6169C56.5732 86.6347 56.4188 86.5969 56.2895 86.5101C56.0766 86.3557 55.8824 86.1755 55.7111 85.9732C55.0271 85.1686 54.7467 83.9926 55.534 82.3677C56.5167 80.3345 53.1879 81.3652 52.5799 77.4607C51.9719 73.5561 63.2328 62.0754 63.2328 62.0754C63.7365 62.5014 64.3143 62.8241 64.9352 63.0261L71.6605 63.7703H71.906C71.8288 65.2843 71.9619 66.8019 72.3012 68.2769Z" fill="#81F8F8"/>
<path d="M70.2438 26.5031L70.4094 26.6067C70.3737 26.6679 70.3388 26.7291 70.303 26.7865V26.7927C68.555 26.9819 68.6386 29.2309 69.4883 30.932L69.2907 31.0207L67.5792 34.419L64.9618 32.2673L66.5646 28.2709L63.7526 31.3889L62.2007 29.7553C63.7731 27.5518 69.8432 24.1198 69.8432 24.1198L69.9557 24.1135C70.0083 24.915 70.1044 25.7128 70.2438 26.5031Z" fill="#81F8F8"/>
<path d="M64.7375 47.8763C64.7375 47.8763 62.5335 58.8922 62.5069 60.587C62.5122 60.8755 62.5801 61.1589 62.7058 61.4166C62.8314 61.6742 63.0115 61.8993 63.2327 62.0754C63.2327 62.0754 51.9748 73.5545 52.5798 77.4614C53.1847 81.3683 56.5158 80.3353 55.5331 82.3684C54.7458 83.9934 55.0232 85.1693 55.7102 85.9739C51.6048 88.3649 47.8075 91.2809 44.4083 94.6529C36.7034 96.3932 20.7441 89.3149 20.7441 89.3149C20.7441 89.3149 32.9079 91.0097 34.2539 72.4225C35.6911 52.562 54.0139 43.9474 58.2699 42.8044C61.5181 45.4593 64.7375 47.8763 64.7375 47.8763Z" fill="black"/>
<path d="M48.3825 106.491C46.8625 111.925 44.7649 118 43.0769 120.57C40.2847 124.813 41.3 136.92 42.4423 140.102C43.5846 143.284 48.3764 143.756 49.7459 141.751C51.1154 139.745 54.5385 139.544 58.1888 134.359C59.1753 132.867 60.073 131.315 60.8769 129.711L62.5185 141.47L60.4292 152.407C60.4292 152.407 40.1707 153.113 28.5852 152.407C11.1592 151.346 7.55908 122.67 7.55908 122.67C7.55908 122.67 22.1784 130.476 31.4033 112.229C34.7513 105.658 39.1468 99.7161 44.4054 94.653C47.8044 91.279 51.6016 88.3612 55.7074 85.9685C55.8786 86.1708 56.0728 86.351 56.2857 86.5054C56.415 86.5922 56.5695 86.63 56.7227 86.6122C54.3591 87.1821 50.8768 93.3145 50.3342 97.8228C49.8711 100.754 49.2191 103.65 48.3825 106.491Z" fill="#81F8F8"/>
<path d="M46.0104 13.4941C46.173 13.3904 46.2764 13.3324 46.2764 13.3324C46.1993 12.3783 46.0432 11.4329 45.8098 10.5064C45.4146 8.92144 46.4801 8.64983 46.781 9.39087C47.082 10.1319 47.693 13.1126 47.693 13.1126C47.693 13.1126 48.4804 15.5202 49.4099 15.9103C50.3394 16.3004 51.2696 15.17 52.361 14.6119C53.4523 14.0538 54.185 15.4377 53.3854 15.8891C52.5859 16.3405 51.3783 17.0839 51.2574 17.9403C51.1366 18.7967 49.8621 19.9915 49.8621 19.9915L49.8856 20.0834L46.3136 21.0952C45.0905 20.2635 44.0485 19.1778 43.2539 17.9073C43.2539 17.9073 40.0619 16.8036 39.7009 16.1913C39.3399 15.579 39.5208 15.0845 40.8409 15.6976C41.6293 16.0666 42.4738 16.2913 43.3367 16.3617C43.3367 16.3617 43.3816 16.273 43.4401 16.145C43.5617 15.9048 43.7502 15.517 43.8444 15.3647C43.9451 15.2087 44.0599 15.0628 44.1872 14.929C44.3678 14.7389 44.5599 14.5609 44.7625 14.396C45.1611 14.0705 45.5778 13.7693 46.0104 13.4941Z" fill="#FFD997"/>
<path d="M46.0106 13.4942C45.5771 13.7676 45.1594 14.067 44.7597 14.3907L44.6031 14.2745C44.6031 14.2745 43.2131 11.3269 42.6818 10.3495C42.1506 9.37221 42.9326 8.66728 43.4874 9.22149C44.4123 10.5911 45.255 12.018 46.0106 13.4942Z" fill="#FFD997"/>
<path d="M44.1842 14.9236C44.0569 15.0573 43.9422 15.2032 43.8415 15.3592C43.7472 15.5162 43.5587 15.8993 43.4371 16.1395C43.4371 16.1395 41.6078 13.8568 40.6457 12.9579C39.6835 12.0591 40.6046 11.4664 41.186 11.9547C41.5189 12.2349 44.1842 14.9236 44.1842 14.9236Z" fill="#FFD997"/>
<path d="M71.3062 29.7681C71.3992 30.8227 71.7177 31.8429 72.2387 32.755C72.8195 33.8845 73.6097 34.885 74.5643 35.6995C75.8783 36.8034 77.4902 37.4614 79.1798 37.5835" stroke="black" stroke-width="0.980065" stroke-linecap="round" stroke-linejoin="round"/>
<path d="M72.0064 32.813C71.0352 33.0265 70.076 32.112 69.4886 30.929C68.6389 29.2279 68.556 26.9789 70.3033 26.7897C70.5721 26.7606 70.8436 26.7731 71.1089 26.8266" stroke="black" stroke-width="0.980065" stroke-linecap="round" stroke-linejoin="round"/>
<path d="M83.4409 37.0771C82.6589 37.4216 81.8311 37.6426 80.9854 37.7326" stroke="black" stroke-width="0.980065" stroke-linecap="round" stroke-linejoin="round"/>
<path d="M88.2156 31.2249C87.9634 32.2326 87.5124 33.1758 86.8909 33.9951C86.0037 35.2952 84.8237 36.3529 83.4526 37.077" stroke="black" stroke-width="0.980065" stroke-linecap="round" stroke-linejoin="round"/>
<path d="M87.0386 34.1082C87.9354 34.474 88.9895 33.7879 89.7533 32.7792C90.907 31.2492 91.4063 28.975 89.7062 28.4664C89.6987 28.4628 89.6908 28.4607 89.6826 28.4601C89.4221 28.3872 89.1529 28.3534 88.8831 28.3596" stroke="black" stroke-width="0.980065" stroke-linecap="round" stroke-linejoin="round"/>
<path d="M89.7859 28.1862C90.0512 27.4268 90.2737 26.6523 90.4525 25.8665C91.0103 23.4031 91.4207 19.4899 89.4052 16.5085C88.5048 15.0891 87.3122 13.8926 85.9124 13.0043C84.5125 12.116 82.9401 11.5579 81.3074 11.3699C79.6675 11.2903 78.0303 11.5784 76.5085 12.2145C74.9866 12.8506 73.6162 13.8195 72.4914 15.0547C70.0184 17.6515 69.8002 21.5898 69.9568 24.1136C70.0086 24.915 70.104 25.7128 70.2426 26.5031" stroke="black" stroke-width="0.980065" stroke-linecap="round" stroke-linejoin="round"/>
<path d="M80.1059 27.512C81.4283 29.9321 79.7168 30.4997 79.7168 30.4997" stroke="black" stroke-width="0.980065" stroke-linecap="round" stroke-linejoin="round"/>
<path d="M74.3965 27.1036C74.8319 26.8476 75.3321 26.7337 75.8314 26.7767C76.3307 26.8197 76.8057 27.0177 77.194 27.3446" stroke="black" stroke-width="0.980065" stroke-linecap="round" stroke-linejoin="round"/>
<path d="M85.6423 28.07C85.2536 27.7438 84.7787 27.5463 84.2795 27.5033C83.7804 27.4603 83.2804 27.5738 82.8447 27.829" stroke="black" stroke-width="0.980065" stroke-linecap="round" stroke-linejoin="round"/>
<path d="M74.2339 24.1473C75.2166 23.4675 77.5216 23.4408 77.6805 23.9824C77.8393 24.5241 78.0172 24.51 77.3149 24.696C76.6127 24.8821 74.2339 24.1473 74.2339 24.1473Z" stroke="black" stroke-width="0.980065" stroke-linecap="round" stroke-linejoin="round"/>
<path d="M86.2739 25.1805C85.4151 24.3421 83.1488 23.9182 82.901 24.4308C82.6532 24.9434 82.4883 24.8908 83.1488 25.1954C83.8092 25.5 86.2739 25.1805 86.2739 25.1805Z" stroke="black" stroke-width="0.980065" stroke-linecap="round" stroke-linejoin="round"/>
<path d="M74.3872 35.8423C74.3985 35.9606 74.4183 36.0779 74.4465 36.1932C74.6471 37.0567 75.5029 39.2625 79.0377 39.5491C83.3788 39.8992 83.4913 37.1595 83.4913 37.1595" stroke="black" stroke-width="0.980065" stroke-linecap="round" stroke-linejoin="round"/>
<path d="M76.8462 31.6699L82.4968 32.1574C82.4968 32.1574 81.6084 34.532 79.5959 34.3554C77.4686 34.1749 76.8462 31.6699 76.8462 31.6699Z" stroke="black" stroke-width="0.980065" stroke-linecap="round" stroke-linejoin="round"/>
<path d="M89.6823 28.4569C88.3812 27.1491 88.1038 20.709 88.1038 20.709C88.1038 20.709 85.861 23.2665 82.6766 22.8395C82.0982 22.761 81.437 22.6958 80.7439 22.6417C77.6127 22.3881 73.7998 22.3426 73.7998 22.3426C73.7998 22.3426 77.7336 19.4711 79.1092 17.5266" stroke="black" stroke-width="0.980065" stroke-linecap="round" stroke-linejoin="round"/>
<path d="M73.8 22.3428C73.8 22.3428 73.2635 22.291 72.6403 22.2054C72.1592 22.1355 71.6287 22.0484 71.251 21.9495C72.6182 20.9485 73.9004 19.8289 75.0837 18.603" stroke="black" stroke-width="0.980065" stroke-linecap="round" stroke-linejoin="round"/>
<path d="M72.6402 22.2021C72.5847 22.3277 71.3953 24.9551 70.4096 26.6068C70.3739 26.668 70.3389 26.7292 70.3032 26.7865" stroke="black" stroke-width="0.980065" stroke-linecap="round" stroke-linejoin="round"/>
<path d="M80.7437 22.6418C82.3006 21.5158 83.6818 20.1506 84.8393 18.5935" stroke="black" stroke-width="0.980065" stroke-linecap="round" stroke-linejoin="round"/>
<path d="M73.7383 72.2944C73.9037 73.5155 74.2836 74.6951 74.8593 75.7751C75.3856 76.8861 76.0059 77.9468 76.7129 78.945C78.5369 81.515 81.1513 83.874 84.4239 84.126" stroke="black" stroke-width="0.980065" stroke-linecap="round" stroke-linejoin="round"/>
<path d="M71.6462 74.9336C70.1178 72.782 70.0023 69.1396 72.3302 68.3624C72.6681 68.2543 73.0208 68.2039 73.3744 68.2133C73.5911 68.2184 73.8072 68.2386 74.0212 68.2737" stroke="black" stroke-width="0.980065" stroke-linecap="round" stroke-linejoin="round"/>
<path d="M96.4812 73.8796C96.1576 75.0941 95.6204 76.2367 94.8966 77.2504C93.5854 79.3425 91.8744 81.136 89.8685 82.5209C88.2645 83.6397 86.3579 84.2032 84.4238 84.1302" stroke="black" stroke-width="0.980065" stroke-linecap="round" stroke-linejoin="round"/>
<path d="M98.0155 76.7936C98.8689 75.8846 99.4949 74.7745 99.8395 73.5594C100.256 72.0294 100.026 70.5764 98.6152 70.0881C98.2001 69.9548 97.7658 69.8969 97.3315 69.917" stroke="black" stroke-width="0.980065" stroke-linecap="round" stroke-linejoin="round"/>
<path d="M86.9941 68.3594C86.9262 69.0979 86.9469 69.8422 87.0557 70.5754C87.9031 73.3551 85.9316 73.3951 85.9316 73.3951" stroke="black" stroke-width="0.980065" stroke-linecap="round" stroke-linejoin="round"/>
<path d="M78.6187 68.3555C79.1329 68.0092 79.7427 67.8462 80.355 67.8914C80.9673 67.9366 81.5485 68.1876 82.0098 68.6059" stroke="black" stroke-width="0.980065" stroke-linecap="round" stroke-linejoin="round"/>
<path d="M92.1791 69.3468C91.7195 68.9262 91.1385 68.6738 90.526 68.6287C89.9135 68.5835 89.3037 68.7482 88.791 69.0972" stroke="black" stroke-width="0.980065" stroke-linecap="round" stroke-linejoin="round"/>
<path d="M77.353 65.608C78.6899 64.6448 82.825 64.2907 83.0842 65.0286C83.4117 65.9431 82.1015 65.827 80.8855 65.6441C79.7098 65.5593 78.5302 65.5472 77.353 65.608Z" stroke="black" stroke-width="0.980065" stroke-linecap="round" stroke-linejoin="round"/>
<path d="M93.7254 66.4117C92.4531 65.3629 88.3545 64.7349 88.0444 65.4547C87.6575 66.3442 88.9739 66.3182 90.2013 66.2131C91.3788 66.2057 92.5556 66.2721 93.7254 66.4117Z" stroke="black" stroke-width="0.980065" stroke-linecap="round" stroke-linejoin="round"/>
<path d="M80.6821 75.1685L89.2929 75.7541C88.7397 76.3893 88.1323 76.9717 87.478 77.4944C87.1411 77.8135 86.7453 78.0592 86.3144 78.2168C85.8835 78.3745 85.4263 78.4409 84.97 78.4121C83.9721 78.326 83.0439 77.8485 82.3762 77.0776C81.7643 76.4877 81.1979 75.8494 80.6821 75.1685Z" stroke="black" stroke-width="0.980065" stroke-linecap="round" stroke-linejoin="round"/>
<path d="M90.6443 25.9121C90.6443 25.9121 96.0828 30.3317 97.2806 32.7761L95.487 34.1209L93.2176 30.5664L94.1562 34.7818L91.2317 36.4554L90.0864 32.8099" stroke="black" stroke-width="0.980065" stroke-linecap="round" stroke-linejoin="round"/>
<path d="M69.8452 24.1199C69.8452 24.1199 63.7751 27.5519 62.2026 29.7554L63.7546 31.389L66.5666 28.271L64.9637 32.2674L67.5812 34.4191L69.2927 31.0208" stroke="black" stroke-width="0.980065" stroke-linecap="round" stroke-linejoin="round"/>
<path d="M83.4409 37.0771H83.4523L83.5055 37.0921C84.1728 37.275 89.8591 38.8787 91.9073 41.1403C95.1708 44.7372 95.0378 51.2778 95.0378 51.2778" stroke="black" stroke-width="0.980065" stroke-linecap="round" stroke-linejoin="round"/>
<path d="M46.0167 13.5035L46.0106 13.4941C45.255 12.0176 44.4124 10.5904 43.4874 9.22056C42.9326 8.66635 42.1506 9.36735 42.6818 10.3486C43.2131 11.3299 44.6031 14.2736 44.6031 14.2736" stroke="black" stroke-width="0.980065" stroke-linecap="round" stroke-linejoin="round"/>
<path d="M46.3083 21.0897C45.0851 20.258 44.0431 19.1724 43.2485 17.9018C43.2485 17.9018 40.0565 16.7981 39.6955 16.1858C39.3345 15.5735 39.5154 15.079 40.8355 15.6921C41.6239 16.0611 42.4684 16.2858 43.3314 16.3562C43.3314 16.3562 43.3762 16.2675 43.4347 16.1395C43.5563 15.8993 43.7448 15.5115 43.839 15.3592C43.9395 15.203 44.0543 15.0571 44.1818 14.9236C44.3624 14.7334 44.5545 14.5554 44.7571 14.3905C45.1568 14.0668 45.5745 13.7674 46.0081 13.4941C46.1707 13.3904 46.2741 13.3324 46.2741 13.3324C46.1969 12.3783 46.0408 11.4329 45.8074 10.5064C45.4122 8.92144 46.4778 8.64983 46.7787 9.39087C47.0797 10.1319 47.6907 13.1126 47.6907 13.1126C47.6907 13.1126 48.4781 15.5202 49.4076 15.9103C50.337 16.3004 51.2673 15.17 52.3586 14.6119C53.45 14.0538 54.1826 15.4377 53.3831 15.8891C52.5836 16.3405 51.376 17.0839 51.2551 17.9403C51.1343 18.7967 49.8598 19.9915 49.8598 19.9915" stroke="black" stroke-width="0.980065" stroke-linecap="round" stroke-linejoin="round"/>
<path d="M44.1842 14.9237C44.1842 14.9237 41.5189 12.2351 41.186 11.9548C40.6046 11.4705 39.6835 12.0553 40.6457 12.958C41.6078 13.8608 43.4371 16.1396 43.4371 16.1396" stroke="black" stroke-width="0.980065" stroke-linecap="round" stroke-linejoin="round"/>
<path d="M74.3964 36.2081C74.3964 36.2081 70.1464 35.3917 67.7388 35.1656C67.6577 35.1602 67.5771 35.1503 67.4971 35.1358C64.3127 34.7088 57.8451 31.5201 57.8451 31.5201L51.3091 19.676L49.881 20.0811L46.309 21.093L44.5474 21.593C44.5474 21.593 49.59 34.2762 52.2279 37.3668C54.1122 39.3271 56.1301 41.1454 58.2661 42.8076C61.5182 45.4594 64.7375 47.8764 64.7375 47.8764C64.7375 47.8764 62.5335 58.8923 62.5069 60.5871C62.5122 60.8755 62.5802 61.159 62.7058 61.4166C62.8314 61.6742 63.0115 61.8994 63.2327 62.0754C63.7364 62.5014 64.3142 62.8241 64.9351 63.0261L71.6604 63.7703" stroke="black" stroke-width="0.980065" stroke-linecap="round" stroke-linejoin="round"/>
<path d="M80.6821 75.1685C82.1171 74.9541 83.5723 74.9256 85.0141 75.0837C86.4546 75.2058 87.8852 75.4298 89.296 75.7541" stroke="black" stroke-width="0.980065" stroke-linecap="round" stroke-linejoin="round"/>
<path d="M94.3154 73.9187C95.5299 72.7717 96.5381 71.4115 97.293 69.9011C98.2637 68.0403 98.9383 66.0305 99.2911 63.9484C99.3762 63.457 99.4469 62.9483 99.5031 62.4177C99.8831 58.7973 98.1351 54.2702 95.0351 51.2832C93.8649 50.0903 92.4441 49.1922 90.8832 48.6588C89.3223 48.1253 87.6633 47.9709 86.0352 48.2076" stroke="black" stroke-width="0.980065" stroke-linecap="round" stroke-linejoin="round"/>
<path d="M88.1089 53.8535C91.5703 56.333 94.0668 60.0016 95.1533 64.2053C95.8777 67.4521 95.5849 70.8527 94.3173 73.9165" stroke="black" stroke-width="0.980065" stroke-linecap="round" stroke-linejoin="round"/>
<path d="M81.1626 54.6008C76.6208 58.4072 73.1446 62.5928 75.6974 72.7947C74.6487 71.4337 73.8605 69.879 73.3749 68.2134C72.5666 65.6955 72.1038 63.0729 72 60.4223C71.6839 54.235 78.3741 46.7578 86.0197 48.3035C86.3329 48.3639 86.646 48.4432 86.9583 48.539" stroke="black" stroke-width="0.980065" stroke-linecap="round" stroke-linejoin="round"/>
<path d="M95.0379 64.2325C94.0051 63.8667 84.0939 64.848 81.1626 54.6006" stroke="black" stroke-width="0.980065" stroke-linecap="round" stroke-linejoin="round"/>
<path d="M72.0003 60.4224C72.0003 60.4224 71.9114 61.9924 71.9061 63.7665C71.8288 65.2807 71.9619 66.7986 72.3013 68.2739" stroke="black" stroke-width="0.980065" stroke-linecap="round" stroke-linejoin="round"/>
<path d="M99.2726 62.1138C99.2726 62.1138 99.2969 62.8791 99.2939 63.946C99.2847 65.9665 99.1723 69.0634 98.6099 70.0847" stroke="black" stroke-width="0.980065" stroke-linecap="round" stroke-linejoin="round"/>
<path d="M70.9843 75.879C70.8642 76.1205 70.7938 76.3851 70.7776 76.6562C70.7489 77.1121 70.8697 77.5647 71.1205 77.9409C71.3714 78.3172 71.7377 78.5952 72.1603 78.7301C72.5829 78.8649 73.0372 78.8487 73.4499 78.6842C73.8625 78.5196 74.2094 78.2162 74.4346 77.823C74.6598 77.4298 74.7502 76.9697 74.6911 76.5169C74.6321 76.0641 74.427 75.6451 74.1091 75.3274C73.7912 75.0098 73.3789 74.8121 72.9388 74.7662C72.4987 74.7202 72.0565 74.8288 71.6835 75.0744C71.3829 75.2707 71.1409 75.5492 70.9843 75.879Z" stroke="black" stroke-width="0.980065" stroke-linecap="round" stroke-linejoin="round"/>
<path d="M95.2245 77.4244C95.062 77.7017 94.9668 78.0155 94.9471 78.339C94.9156 78.8347 95.0612 79.3252 95.3563 79.7175C95.6514 80.1099 96.0754 80.3769 96.5483 80.468C97.0211 80.5592 97.5099 80.4682 97.9221 80.2122C98.3343 79.9562 98.6414 79.553 98.7852 79.0789C98.929 78.6048 98.8996 78.0927 98.7024 77.6395C98.5053 77.1863 98.1542 76.8235 97.7156 76.6197C97.2769 76.4159 96.7812 76.3852 96.3221 76.5335C95.863 76.6818 95.4725 76.9988 95.2245 77.4244Z" stroke="black" stroke-width="0.980065" stroke-linecap="round" stroke-linejoin="round"/>
<path d="M63.2326 62.0754C63.2326 62.0754 51.9747 73.5545 52.5797 77.4614C53.1846 81.3684 56.5157 80.3353 55.533 82.3685C54.7457 83.9934 55.0231 85.1694 55.7101 85.974C55.8814 86.1762 56.0756 86.3565 56.2885 86.5109C56.4178 86.5977 56.5722 86.6354 56.7255 86.6177C56.8104 86.613 56.8945 86.5985 56.9763 86.5745C58.4309 86.2063 60.9982 83.6119 60.9982 83.6119" stroke="black" stroke-width="0.980065" stroke-linecap="round" stroke-linejoin="round"/>
<path d="M55.71 81.5692C55.71 81.5692 57.4336 80.6006 58.446 77.1952C59.4583 73.7899 61.9572 71.1083 63.7135 70.825" stroke="black" stroke-width="0.980065" stroke-linecap="round" stroke-linejoin="round"/>
<path d="M78.5861 39.915C78.5861 39.915 73.2927 40.3075 74.343 42.3077C75.3637 44.2522 78.4242 40.1341 78.5808 39.9245" stroke="black" stroke-width="0.980065" stroke-linecap="round" stroke-linejoin="round"/>
<path d="M78.5865 39.915L78.5812 39.9245C78.4923 40.1772 76.5125 45.5969 74.4468 46.334" stroke="black" stroke-width="0.980065" stroke-linecap="round" stroke-linejoin="round"/>
<path d="M78.6304 39.915C78.6304 39.915 83.9245 40.3075 82.8735 42.3077C81.8224 44.3079 78.6304 39.915 78.6304 39.915Z" stroke="black" stroke-width="0.980065" stroke-linecap="round" stroke-linejoin="round"/>
<path d="M78.6304 39.915C78.6304 39.915 79.6685 44.6392 83.4944 45.2766" stroke="black" stroke-width="0.980065" stroke-linecap="round" stroke-linejoin="round"/>
<path d="M83.6235 91.9635C83.6235 91.9635 78.8788 91.9148 78.7367 93.7007C78.7273 93.9763 78.7952 94.2489 78.932 94.4857C80.2628 97.0189 83.492 92.1692 83.6212 91.9682" stroke="black" stroke-width="0.980065" stroke-linecap="round" stroke-linejoin="round"/>
<path d="M83.6236 91.9636V91.9699C83.5583 92.2352 81.431 100.683 78.7368 101.644" stroke="black" stroke-width="0.980065" stroke-linecap="round" stroke-linejoin="round"/>
<path d="M83.6797 91.9634C83.6797 91.9634 84.0931 91.9147 84.6677 91.8904C85.9308 91.8354 87.979 91.9147 88.2002 92.9423C88.2421 93.258 88.174 93.5788 88.0079 93.8474C86.6513 96.4316 83.6797 91.9634 83.6797 91.9634Z" stroke="black" stroke-width="0.980065" stroke-linecap="round" stroke-linejoin="round"/>
<path d="M83.6797 91.9636C83.6797 91.9636 84.6776 99.7351 87.4098 100.718" stroke="black" stroke-width="0.980065" stroke-linecap="round" stroke-linejoin="round"/>
<path d="M58.3278 42.7888L58.2662 42.8077C54.0102 43.9506 35.6881 52.5613 34.2502 72.4257C32.905 91.0129 20.7412 89.315 20.7412 89.315C20.7412 89.315 36.7012 96.3894 44.4053 94.653" stroke="black" stroke-width="0.980065" stroke-linecap="round" stroke-linejoin="round"/>
<path d="M64.4992 98.2247C64.9392 97.3875 65.4773 96.6094 66.1013 95.9081C67.0688 94.722 68.0994 93.6246 68.0994 93.6246C68.0994 93.6246 70.9494 85.0963 71.4517 84.1425C71.9541 83.1888 74.2432 82.9839 73.6466 85.258C73.05 87.5322 71.5992 92.3356 71.5992 92.3356L72.6996 92.7469C72.6996 92.7469 74.5502 90.0096 75.2023 89.3392C75.2711 89.2698 75.3529 89.2156 75.4427 89.1799C75.5325 89.1443 75.6283 89.128 75.7244 89.132C76.5004 89.1414 77.48 90.2169 76.7512 91.8355C77.0917 91.9828 77.3832 92.2293 77.5903 92.5449C77.7973 92.8605 77.9108 93.2316 77.917 93.6128C77.8914 93.9174 77.8071 94.2136 77.6693 94.4841C77.6693 94.4841 78.7903 95.7401 77.7696 98.5842C76.5408 101.708 74.7765 104.577 72.5613 107.054C72.0856 107.581 71.5001 107.988 70.849 108.246C70.849 108.246 70.6431 108.728 70.2768 109.566C69.554 111.224 68.208 114.282 66.6386 117.726C64.8207 121.716 62.6958 126.227 60.8778 129.711C60.0739 131.315 59.1762 132.867 58.1897 134.359C54.5417 139.54 51.1164 139.748 49.7469 141.751C48.3774 143.753 43.5856 143.284 42.4433 140.102C41.301 136.92 40.2856 124.813 43.0779 120.57C44.7658 118 46.8627 111.923 48.3827 106.491C49.2201 103.649 49.8728 100.753 50.3366 97.822C50.8793 93.3137 54.3646 87.1813 56.7252 86.6114C56.8072 86.5885 56.8912 86.574 56.976 86.5682C56.9985 86.5666 57.0211 86.5666 57.0436 86.5682" stroke="black" stroke-width="0.980065" stroke-linecap="round" stroke-linejoin="round"/>
<path d="M66.0417 95.8563L65.325 94.408C65.2636 93.7177 65.2615 93.0231 65.319 92.3324C65.3988 90.8998 64.6015 89.0433 63.634 88.9365C63.5941 88.9303 63.5536 88.9285 63.5132 88.931C62.4682 88.9703 63.1089 91.129 63.1089 92.1676C63.1089 93.2061 62.4682 93.8687 62.507 94.9473C62.5457 96.0259 62.8786 99.651 63.0967 102.3L61.4946 107.161C61.4946 107.161 60.5416 108.025 59.0923 109.423C54.7367 113.623 45.8835 122.637 44.9365 127.376" stroke="black" stroke-width="0.980065" stroke-linecap="round" stroke-linejoin="round"/>
<path d="M60.4323 152.407C60.4323 152.407 40.1737 153.113 28.5883 152.407C11.1592 151.346 7.55908 122.67 7.55908 122.67C7.55908 122.67 22.1784 130.476 31.4033 112.229C34.7513 105.658 39.1468 99.7161 44.4054 94.653C47.8044 91.279 51.6016 88.3612 55.7074 85.9685" stroke="black" stroke-width="0.980065" stroke-linecap="round" stroke-linejoin="round"/>
<path d="M60.8776 129.711L62.5184 141.47L60.4292 152.407H108.938C108.938 152.407 103.351 136.904 103.351 133.299C103.291 130.599 103.053 127.908 102.637 125.242" stroke="black" stroke-width="0.980065" stroke-linecap="round" stroke-linejoin="round"/>
<path d="M98.8952 111.663C99.5032 112.937 101.345 113.462 102.596 114.535C103.848 115.608 104.236 117.275 102.026 118.631C99.8163 119.986 95.3133 119.46 94.0084 117.303C93.0082 115.647 90.8749 114.382 89.6619 113.596C89.4847 113.482 89.3443 113.316 89.2587 113.12C89.173 112.923 89.1459 112.705 89.1809 112.492L89.8238 110.343C89.8238 110.343 91.2845 111.255 91.7573 110.965C92.23 110.676 92.3501 107.503 95.4813 106.399C95.6291 106.337 95.7894 106.312 95.9483 106.328C96.1072 106.344 96.2599 106.4 96.3933 106.491C97.3433 107.143 97.4261 109.545 97.4261 109.545L98.8982 111.665" stroke="black" stroke-width="0.980065" stroke-linecap="round" stroke-linejoin="round"/>
<path d="M89.8861 82.5513C89.377 84.7825 89.0044 87.0446 88.7704 89.3242C88.6385 90.484 88.6474 91.6562 88.797 92.8136C88.82 92.9526 88.8504 93.0902 88.8882 93.2257C89.6117 95.8162 90.0335 103.488 90.3732 107.25C90.4173 107.75 89.7797 110.039 89.8207 110.343" stroke="black" stroke-width="0.980065" stroke-linecap="round" stroke-linejoin="round"/>
<path d="M98.4382 80.3472C98.4382 80.3472 98.6122 81.6275 98.7802 83.4291C98.9919 85.5798 99.0845 87.7413 99.0576 89.903C98.9451 94.1153 96.7677 104.033 96.7677 104.033L96.3877 106.49" stroke="black" stroke-width="0.980065" stroke-linecap="round" stroke-linejoin="round"/>
<path d="M128.936 59.5046C128.454 59.3563 127.94 59.3576 127.458 59.5083C126.977 59.659 126.549 59.9525 126.227 60.3524C125.182 61.7481 123.063 64.2507 123.14 65.1833C123.743 65.9642 124.429 66.6728 125.185 67.2957C125.37 67.4584 125.583 67.5817 125.814 67.6584C125.841 67.6649 125.869 67.6671 125.897 67.6647C126.499 67.6097 128.057 66.9935 127.949 65.6464" stroke="black" stroke-width="0.980065" stroke-linecap="round" stroke-linejoin="round"/>
<path d="M126.325 66.3929L125.54 65.4728L127.012 64.3511C127.012 64.3511 128.998 66.5428 131.164 67.0821" stroke="black" stroke-width="0.980065" stroke-linecap="round" stroke-linejoin="round"/>
<path d="M121.542 65.7744C121.954 66.6083 122.563 67.3221 123.312 67.8507C124.072 68.222 125.136 67.4386 125.136 67.4386" stroke="black" stroke-width="0.980065" stroke-linecap="round" stroke-linejoin="round"/>
<path d="M125.982 58.4565C125.112 58.7062 121.506 63.3235 121.205 64.3119C121.14 64.8229 121.258 65.3408 121.536 65.7688" stroke="black" stroke-width="0.980065" stroke-linecap="round" stroke-linejoin="round"/>
<path d="M121.542 65.7745L121.535 65.769C121.494 65.7289 121.261 65.5005 120.957 65.1771C120.319 64.4973 119.376 63.3975 119.296 62.7695C119.175 61.8181 125.304 56.411 126.071 56.4322C126.839 56.4534 130.58 60.0715 132.085 60.8156C133.59 61.5598 138.341 64.0828 138.902 66.2384C138.902 66.2384 144.982 88.9492 145.308 92.9543C145.634 96.9594 144.928 101.526 145.08 103.391C145.232 105.256 136.26 104.583 130.26 105.393C124.788 106.131 119.562 106.546 113.832 104.309C113.489 104.227 113.136 104.194 112.784 104.211C111.778 104.211 110.414 104.305 110.004 104.309C108.297 104.393 106.587 104.307 104.896 104.053" stroke="black" stroke-width="0.980065" stroke-linecap="round" stroke-linejoin="round"/>
<path d="M120.957 65.177C120.957 65.177 119.874 66.3812 120.62 67.4998C121.38 68.6334 123.311 67.8507 123.311 67.8507" stroke="black" stroke-width="0.980065" stroke-linecap="round" stroke-linejoin="round"/>
<path d="M125.322 67.6096C125.322 67.6096 125.493 67.6646 125.794 67.747C126.986 68.0759 130.202 68.846 132.79 68.4017C132.79 68.4017 132.666 78.1985 132.732 82.4265C132.797 86.6545 131.628 91.275 131.997 93.0884" stroke="black" stroke-width="0.980065" stroke-linecap="round" stroke-linejoin="round"/>
<path d="M133.168 95.7339L131.97 93.1921C131.97 93.1921 131.941 93.1646 131.888 93.1191C129.774 91.3255 127.169 90.2606 124.44 90.0741C122.202 89.9461 119.959 90.1679 117.785 90.7319L115.5 89.7899C115.5 89.7899 108.982 83.8309 101.687 83.63C101.498 83.63 101.307 83.6237 101.117 83.63C100.566 83.635 100.015 83.6777 99.4683 83.7579" stroke="black" stroke-width="0.980065" stroke-linecap="round" stroke-linejoin="round"/>
<path d="M76.3701 81.9902L76.6209 79.0127" stroke="black" stroke-width="0.980065" stroke-linecap="round" stroke-linejoin="round"/>
<path d="M88.7705 89.3242C87.6699 90.5695 86.245 91.4605 84.6665 91.8904C84.3411 91.9546 84.0095 91.9791 83.6785 91.9634C83.6598 91.965 83.641 91.965 83.6223 91.9634C81.8135 91.8535 78.5204 87.916 77.0771 86.9583" stroke="black" stroke-width="0.980065" stroke-linecap="round" stroke-linejoin="round"/>
<path d="M103.482 94.4873C103.482 94.4873 101.582 97.8157 102.84 100.266C103.479 101.516 104.141 102.818 104.766 104.119C106.57 107.856 108.092 111.59 108.054 114.071C107.971 119.11 102.639 125.242 102.639 125.242" stroke="black" stroke-width="0.980065" stroke-linecap="round" stroke-linejoin="round"/>
<path d="M72.0063 125.983C75.3435 125.711 83.6503 120.252 83.6799 114.745" stroke="black" stroke-width="0.980065" stroke-linecap="round" stroke-linejoin="round"/>
<path d="M115.5 89.793C115.5 89.793 114.943 100.266 112.785 104.211" stroke="black" stroke-width="0.980065" stroke-linecap="round" stroke-linejoin="round"/>
<path d="M119.442 96.8979C119.442 96.8979 124.125 98.7396 127.245 98.6509" stroke="black" stroke-width="0.980065" stroke-linecap="round" stroke-linejoin="round"/>
<path d="M100.1 73.6353C100.1 73.6353 103.88 77.0767 104.898 80.5056C105.623 82.9532 103.567 83.5843 101.687 83.633C101.492 83.6393 101.301 83.6393 101.117 83.633C100.471 83.6219 99.8283 83.5393 99.1992 83.3865" stroke="black" stroke-width="0.980065" stroke-linecap="round" stroke-linejoin="round"/>
<path d="M94.1738 112.38C95.0645 111.09 96.3163 109.804 97.4464 110.017" stroke="black" stroke-width="0.980065" stroke-linecap="round" stroke-linejoin="round"/>
<path d="M95.354 113.903C96.2455 112.615 97.4964 111.328 98.6266 111.541" stroke="black" stroke-width="0.980065" stroke-linecap="round" stroke-linejoin="round"/>
<path d="M96.5342 115.122C97.4257 113.834 98.6766 112.547 99.8067 112.76" stroke="black" stroke-width="0.980065" stroke-linecap="round" stroke-linejoin="round"/>
<path d="M70.3179 109.585C70.5722 109.481 70.8336 109.398 71.0999 109.335C71.253 109.289 71.4145 109.283 71.5707 109.315C71.7269 109.348 71.873 109.42 71.9967 109.523C72.876 110.276 72.7134 112.675 72.7134 112.675L73.9621 114.943" stroke="black" stroke-width="0.980065" stroke-linecap="round" stroke-linejoin="round"/>
<path d="M73.9626 114.943C74.4345 116.272 76.2145 116.997 77.3499 118.198C78.4853 119.399 78.7019 121.103 76.3619 122.21C74.0219 123.316 69.604 122.307 68.5271 120.021C68.0871 119.172 67.5069 118.409 66.8125 117.766" stroke="black" stroke-width="0.980065" stroke-linecap="round" stroke-linejoin="round"/>
<path d="M72.6225 107.122L71.9971 109.523V109.526" stroke="black" stroke-width="0.980065" stroke-linecap="round" stroke-linejoin="round"/>
<path d="M69.1934 115.142C70.2118 113.955 71.5866 112.812 72.6894 113.148" stroke="black" stroke-width="0.980065" stroke-linecap="round" stroke-linejoin="round"/>
<path d="M70.2119 116.79C71.2326 115.602 72.6052 114.462 73.7079 114.794" stroke="black" stroke-width="0.980065" stroke-linecap="round" stroke-linejoin="round"/>
<path d="M71.2622 118.128C72.2806 116.939 73.6554 115.799 74.7582 116.132" stroke="black" stroke-width="0.980065" stroke-linecap="round" stroke-linejoin="round"/>
<path d="M75.7238 89.1321C76.0778 88.4109 76.3729 87.6605 76.6061 86.8886C77.0387 85.7252 77.1149 84.4526 76.8242 83.243C76.6714 82.8291 76.4921 82.426 76.2877 82.0365C75.6481 80.848 74.9302 79.7063 74.1392 78.6194" stroke="black" stroke-width="0.980065" stroke-linecap="round" stroke-linejoin="round"/>
<path d="M70.7516 75.754C70.7516 75.754 65.8413 74.5765 63.2329 78.423C62.3644 80.0916 61.6176 81.8247 60.9985 83.608L64.7081 86.9607C64.5238 87.6075 64.3829 88.2666 64.2863 88.9334" stroke="black" stroke-width="0.980065" stroke-linecap="round" stroke-linejoin="round"/>
<path d="M64.708 86.9583L66.0418 85.7031" stroke="black" stroke-width="0.980065" stroke-linecap="round" stroke-linejoin="round"/>
<path d="M48.3823 106.491C48.5685 106.564 56.0492 109.487 58.982 109.301" stroke="black" stroke-width="0.980065" stroke-linecap="round" stroke-linejoin="round"/>
<path d="M136.691 3.56934L128.886 18.9286L125.148 14.4055L117.02 35.8941L112.52 32.3192L106.639 53.3752L113.789 39.5035L118.749 43.7252L125.982 24.6623L130.285 28.3808L136.691 3.56934Z" stroke="black" stroke-width="0.980065" stroke-linecap="round" stroke-linejoin="round"/>
<path d="M84.6808 73.0993C84.4101 73.1233 84.1393 73.0546 83.9102 72.9038" stroke="black" stroke-width="0.980065" stroke-linecap="round" stroke-linejoin="round"/>
</svg>
