<svg width="700" height="550" viewBox="0 0 700 550" fill="none" xmlns="http://www.w3.org/2000/svg">
<path d="M335.92 195.212L345.75 169.352C331.98 158.472 315.78 154.442 298.38 157.342C284.13 159.722 282.04 162.092 281.75 162.872C281.95 162.822 282.07 162.782 282.07 162.782C282.07 167.852 290.05 179.452 290.05 179.452C290.05 179.452 294.4 186.702 291.5 191.772C288.6 196.852 281.35 191.772 281.35 191.772L264.68 175.832C263.95 176.552 255.98 175.832 255.98 175.832C255.323 175.655 254.708 175.349 254.17 174.932L250.55 177.642C250.55 177.642 233.15 196.482 226.63 218.952L246.56 230.912C246.56 230.912 261.05 211.342 269.75 211.342C269.75 211.342 279.73 228.452 301.12 220.962C301.082 220.855 301.08 220.739 301.117 220.632C301.153 220.525 301.225 220.433 301.32 220.372C301.351 220.351 301.385 220.334 301.42 220.322H301.43C302.151 220.06 302.855 219.757 303.54 219.412C303.884 219.247 304.215 219.057 304.53 218.842C304.866 218.656 305.138 218.374 305.31 218.032C305.206 218.416 304.994 218.763 304.7 219.032C304.423 219.319 304.125 219.587 303.81 219.832C303.302 220.244 302.771 220.628 302.22 220.982C306.14 222.422 329.09 230.662 335.71 228.012C335.71 228.012 355.28 220.042 359.63 201.922L335.92 195.212ZM301.92 174.592C301.439 173.901 301.005 173.18 300.62 172.432C299.825 170.938 299.214 169.353 298.8 167.712C298.374 166.072 298.146 164.386 298.12 162.692C298.068 161.009 298.28 159.329 298.75 157.712C298.604 160.994 298.948 164.28 299.77 167.462C300.167 169.043 300.686 170.59 301.32 172.092C301.94 173.612 302.7 175.072 303.48 176.552C302.94 175.922 302.4 175.272 301.92 174.592V174.592ZM322.95 197.552C322.673 199.145 322.129 200.68 321.34 202.092C320.51 203.493 319.4 204.708 318.08 205.662C316.78 206.613 315.259 207.219 313.66 207.422C316.524 206.3 318.927 204.247 320.48 201.592C320.853 200.933 321.178 200.248 321.45 199.542C321.744 198.839 321.992 198.117 322.19 197.382C322.4 196.652 322.51 195.882 322.7 195.132C322.83 194.362 322.9 193.592 323.06 192.802C323.13 193.592 323.15 194.382 323.19 195.172C323.11 195.962 323.1 196.772 322.95 197.552L322.95 197.552ZM327.48 194.182C325.114 193.431 322.805 192.512 320.57 191.432C318.322 190.355 316.182 189.066 314.18 187.582C313.67 187.232 313.2 186.822 312.72 186.432C312.227 186.049 311.756 185.638 311.31 185.202C310.408 184.352 309.563 183.443 308.78 182.482C309.26 182.882 309.73 183.282 310.18 183.692C310.63 184.112 311.15 184.452 311.63 184.832C312.1 185.222 312.59 185.582 313.1 185.932C313.6 186.272 314.09 186.642 314.62 186.952C316.672 188.279 318.807 189.474 321.01 190.532C323.2 191.612 325.45 192.562 327.74 193.462C328.87 193.912 330.03 194.332 331.19 194.722C332.35 195.152 333.52 195.522 334.7 195.902C332.251 195.524 329.836 194.949 327.48 194.182L327.48 194.182Z" fill="black"/>
<path d="M274.874 158.377C275.217 158.662 275.606 158.887 276.025 159.042C276.217 159.119 276.425 159.148 276.631 159.127C276.838 159.106 277.036 159.035 277.208 158.92C277.845 158.327 278.258 157.533 278.378 156.672C278.715 154.898 278.864 153.093 278.823 151.288C278.833 150.851 278.816 150.414 278.771 149.979C278.71 149.579 278.573 149.194 278.367 148.845C278.177 148.509 277.913 148.221 277.595 148.002C277.277 147.784 276.913 147.64 276.532 147.583C276.17 147.564 275.809 147.643 275.489 147.813C275.144 148.016 274.831 148.27 274.562 148.566C273.991 149.198 273.519 149.913 273.163 150.686L273.15 150.715C273.108 150.804 273.041 150.88 272.958 150.934C272.875 150.987 272.779 151.016 272.68 151.018C270.392 151.128 268.1 150.901 265.879 150.343C263.653 149.793 261.527 148.897 259.578 147.689C257.642 146.484 255.857 145.053 254.261 143.425C252.661 141.801 251.266 139.986 250.108 138.022L250.986 138.015C250.343 139.211 249.774 140.444 249.281 141.709C248.781 142.98 248.354 144.278 248.001 145.596C247.64 146.913 247.385 148.258 247.239 149.615C247.095 150.972 247.071 152.338 247.166 153.698L247.154 153.643C247.694 155.785 247.306 157.866 247.751 159.891C248.113 161.93 248.618 163.941 249.262 165.909C249.903 167.868 250.756 169.751 251.806 171.524C252.324 172.391 252.942 173.194 253.648 173.917C254.008 174.248 254.393 174.551 254.797 174.826C255.198 175.076 255.636 175.26 256.096 175.37L256.024 175.358C257.469 175.456 258.925 175.526 260.37 175.563C261.093 175.584 261.815 175.589 262.527 175.57C262.884 175.562 263.233 175.539 263.576 175.509C263.733 175.483 263.915 175.47 264.05 175.436L264.245 175.388C264.278 175.369 264.233 175.379 264.254 175.403L265.094 175.394L273.5 183.294C276.292 185.937 279.103 188.561 281.879 191.22L281.789 191.146C283.184 192.1 284.747 192.782 286.395 193.155C287.128 193.373 287.909 193.37 288.641 193.146C289.372 192.922 290.021 192.488 290.507 191.897C291.438 190.55 291.878 188.925 291.755 187.292C291.676 185.574 291.311 183.882 290.675 182.285C290.367 181.474 290.007 180.683 289.599 179.917L288.178 177.673C287.23 176.139 286.311 174.587 285.466 172.991C284.604 171.401 283.825 169.766 283.133 168.094C282.369 166.419 281.916 164.619 281.797 162.781L282.167 163.043C281.57 163.235 280.933 163.271 280.317 163.146C279.702 163.021 279.129 162.741 278.654 162.331C277.795 161.485 277.201 160.407 276.945 159.229L276.949 159.241L276.936 159.189L276.93 159.164C276.925 159.146 276.928 159.127 276.937 159.11C276.946 159.094 276.961 159.083 276.979 159.077C276.997 159.072 277.016 159.074 277.032 159.083C277.048 159.092 277.06 159.107 277.066 159.125L277.082 159.175L277.087 159.187C277.394 160.297 278.016 161.295 278.877 162.06C279.312 162.396 279.826 162.615 280.37 162.695C280.914 162.776 281.469 162.715 281.982 162.519C282.05 162.494 282.125 162.497 282.191 162.526C282.257 162.556 282.308 162.611 282.334 162.679C282.342 162.702 282.348 162.727 282.35 162.752L282.352 162.781C282.575 164.52 283.088 166.209 283.869 167.778C284.614 169.393 285.443 170.968 286.353 172.496C287.26 174.03 288.192 175.55 289.169 177.042L290.68 179.308C291.136 180.114 291.54 180.948 291.891 181.805C292.625 183.53 293.065 185.366 293.192 187.237C293.351 189.211 292.814 191.179 291.675 192.8C291.048 193.659 290.147 194.279 289.121 194.557C288.139 194.809 287.113 194.835 286.119 194.633C284.256 194.232 282.487 193.474 280.911 192.402C280.885 192.385 280.86 192.365 280.837 192.344L280.82 192.328C278.04 189.672 275.294 186.98 272.53 184.308L264.264 176.262L265.104 176.253C264.959 176.364 264.799 176.454 264.628 176.519L264.292 176.6C264.071 176.645 263.888 176.652 263.684 176.679C263.299 176.704 262.919 176.72 262.547 176.719C261.8 176.72 261.062 176.698 260.328 176.658C258.857 176.581 257.401 176.449 255.939 176.298L255.926 176.297L255.867 176.286C255.316 176.134 254.793 175.893 254.319 175.574C253.872 175.25 253.451 174.892 253.058 174.502C252.335 173.708 251.705 172.833 251.181 171.895C250.166 170.047 249.351 168.096 248.751 166.075C248.122 164.075 247.634 162.034 247.292 159.966C247.215 159.446 247.142 158.926 247.097 158.399C247.053 157.859 247.072 157.338 247.049 156.825C247.035 155.806 246.914 154.792 246.688 153.799L246.682 153.775L246.676 153.743C246.557 152.352 246.56 150.952 246.685 149.562C246.815 148.173 247.032 146.795 247.337 145.434C247.645 144.074 248.029 142.732 248.488 141.415C248.946 140.089 249.486 138.793 250.104 137.534C250.143 137.457 250.202 137.39 250.274 137.343C250.347 137.295 250.431 137.267 250.518 137.263C250.605 137.258 250.691 137.277 250.768 137.316C250.846 137.356 250.911 137.416 250.958 137.489L250.982 137.527C252.179 139.35 253.566 141.04 255.121 142.569C256.665 144.107 258.388 145.455 260.252 146.584C260.727 146.845 261.176 147.154 261.663 147.391L263.124 148.101C263.615 148.33 264.135 148.487 264.639 148.684L265.401 148.966L266.187 149.165C268.285 149.724 270.454 149.972 272.624 149.901L272.141 150.232C272.558 149.344 273.116 148.53 273.794 147.822C274.156 147.455 274.572 147.146 275.027 146.906C275.528 146.663 276.086 146.564 276.639 146.621C277.164 146.708 277.661 146.916 278.092 147.227C278.523 147.539 278.876 147.947 279.122 148.418C279.366 148.868 279.522 149.36 279.582 149.869C279.616 150.345 279.619 150.823 279.591 151.3C279.569 153.156 279.324 155.002 278.86 156.799C278.668 157.752 278.146 158.607 277.386 159.213C277.168 159.34 276.922 159.413 276.67 159.423C276.418 159.434 276.167 159.383 275.939 159.275C275.51 159.081 275.118 158.814 274.78 158.487C274.773 158.481 274.767 158.473 274.763 158.465C274.759 158.456 274.756 158.447 274.756 158.437C274.755 158.428 274.757 158.418 274.76 158.409C274.763 158.4 274.768 158.392 274.774 158.385C274.787 158.371 274.804 158.363 274.823 158.362C274.841 158.36 274.859 158.366 274.874 158.377Z" fill="black"/>
<path d="M270.478 171.482C270.98 170.722 271.431 169.928 271.827 169.107C272.224 168.301 272.569 167.471 272.86 166.621C273.156 165.773 273.401 164.907 273.594 164.029C273.799 163.148 273.941 162.252 274.102 161.335C274.237 162.257 274.254 163.194 274.152 164.121C274.055 165.054 273.852 165.973 273.544 166.859C272.961 168.65 271.901 170.248 270.478 171.482Z" fill="black"/>
<path d="M246.84 150.926C247.721 150.374 248.77 150.153 249.799 150.301C250.322 150.371 250.825 150.546 251.277 150.817C251.726 151.082 252.098 151.46 252.357 151.912C251.932 151.684 251.49 151.489 251.035 151.328C250.601 151.181 250.154 151.077 249.699 151.019C248.75 150.913 247.794 150.882 246.84 150.926Z" fill="black"/>
<path d="M255.981 151.187C256.328 150.547 256.88 150.041 257.548 149.753C258.191 149.439 258.871 149.211 259.573 149.074C260.266 148.942 260.969 148.874 261.675 148.869C262.378 148.863 263.08 148.927 263.77 149.059C262.391 149.364 261.038 149.514 259.715 149.784C259.056 149.91 258.406 150.073 257.766 150.273C257.115 150.451 256.507 150.762 255.981 151.187Z" fill="black"/>
<path d="M249.777 156.71C250.059 156.701 250.326 156.582 250.522 156.379C250.718 156.176 250.827 155.905 250.827 155.623C250.827 155.341 250.718 155.07 250.522 154.867C250.326 154.665 250.059 154.546 249.777 154.536C249.495 154.546 249.228 154.665 249.032 154.867C248.837 155.07 248.727 155.341 248.727 155.623C248.727 155.905 248.837 156.176 249.032 156.379C249.228 156.582 249.495 156.701 249.777 156.71Z" fill="black"/>
<path d="M259.693 155.275C259.974 155.265 260.242 155.147 260.437 154.944C260.633 154.741 260.743 154.47 260.743 154.188C260.743 153.906 260.633 153.635 260.437 153.432C260.242 153.229 259.974 153.11 259.693 153.101C259.411 153.11 259.144 153.229 258.948 153.432C258.752 153.635 258.642 153.906 258.642 154.188C258.642 154.47 258.752 154.741 258.948 154.944C259.144 155.147 259.411 155.265 259.693 155.275Z" fill="black"/>
<path d="M250.908 158.435L250.673 159.695C250.599 160.063 250.594 160.441 250.657 160.811C250.688 160.972 250.755 161.123 250.852 161.255C250.949 161.387 251.074 161.496 251.218 161.573C251.58 161.775 251.962 161.938 252.357 162.06C252.138 162.119 251.914 162.162 251.688 162.188C251.449 162.195 251.211 162.161 250.983 162.088C250.725 162.011 250.493 161.867 250.311 161.669C250.129 161.472 250.004 161.229 249.949 160.966C249.863 160.483 249.926 159.984 250.131 159.538C250.305 159.118 250.571 158.741 250.908 158.435Z" fill="black"/>
<path d="M252.357 164.959C252.974 165.186 253.583 165.381 254.18 165.576C254.771 165.768 255.373 165.92 255.984 166.03C256.581 166.139 257.189 166.178 257.795 166.147C258.419 166.083 259.029 165.927 259.606 165.684C259.145 166.184 258.548 166.539 257.888 166.705C257.221 166.851 256.53 166.864 255.858 166.743C254.542 166.502 253.325 165.882 252.357 164.959Z" fill="black"/>
<path d="M278.4 157.452C284.127 147.992 281.791 139.905 279.108 135.045C278.189 133.388 276.907 131.961 275.359 130.869C273.811 129.777 272.036 129.049 270.167 128.739C255.98 126.401 250.183 137.416 250.183 137.416L250.545 137.775C250.545 137.775 258.156 151.184 272.652 150.459C272.652 150.459 274.805 145.625 277.711 147.524C278.18 147.843 278.562 148.274 278.824 148.777C279.086 149.281 279.219 149.841 279.212 150.408" fill="black"/>
<path d="M276.502 131.78C276.502 131.78 275.189 123.281 280.988 121.107C284.469 119.802 286.905 119.802 289.236 120.795C290.579 121.404 291.752 122.332 292.653 123.497C293.555 124.663 294.159 126.031 294.411 127.484C295.238 131.708 297.886 137.687 306.357 132.704C306.357 132.704 307.082 150.825 292.585 149.375C292.585 149.375 284.612 150.1 283.887 137.778C283.887 137.778 283.825 134.556 279.507 135.805" fill="black"/>
<path d="M344.932 171.535C349.221 173.219 353.531 174.854 357.806 176.58C362.032 178.44 366.17 180.48 370.218 182.7C374.268 184.912 378.215 187.309 382.092 189.809C384.028 191.064 385.949 192.341 387.855 193.642L393.498 197.634L393.524 197.654C397.392 201.068 401.459 204.249 405.704 207.18C406.77 207.914 407.866 208.553 408.976 209.248L409.806 209.791C410.05 209.969 410.318 210.109 410.604 210.208C411.204 210.418 411.818 210.583 412.443 210.703C414.979 211.16 417.541 211.459 420.114 211.6L420.098 211.599C421.22 211.564 422.344 211.639 423.452 211.824C424.014 211.914 424.562 212.079 425.08 212.315C425.343 212.442 425.586 212.609 425.799 212.81C425.994 212.999 426.201 213.182 426.409 213.365C428.09 214.812 429.835 216.193 431.595 217.548C433.358 218.898 435.125 220.253 436.956 221.499C437.451 221.807 437.862 222.235 438.15 222.743C438.437 223.25 438.593 223.822 438.602 224.406C438.606 225.003 438.403 225.584 438.029 226.049C437.645 226.493 437.156 226.833 436.607 227.038L436.701 226.819C436.867 227.279 436.959 227.762 436.974 228.251C436.994 228.743 436.913 229.235 436.735 229.695C436.557 230.16 436.266 230.574 435.888 230.898C435.517 231.219 435.096 231.477 434.642 231.661L434.749 231.417C435.159 232.485 435.193 233.661 434.845 234.752C434.62 235.289 434.259 235.759 433.798 236.114C433.337 236.47 432.791 236.699 432.214 236.78C431.641 236.835 431.062 236.767 430.518 236.58C429.973 236.394 429.475 236.094 429.055 235.699C428.257 234.979 427.419 234.303 426.546 233.675L426.897 233.322L428.864 236.433L429.356 237.211C429.551 237.525 429.635 237.895 429.595 238.263C429.567 238.613 429.46 238.953 429.281 239.256C429.101 239.559 428.855 239.816 428.561 240.009C427.973 240.363 427.28 240.502 426.601 240.402C425.961 240.326 425.335 240.159 424.742 239.906C423.559 239.435 422.476 238.745 421.547 237.874C420.701 236.918 420.077 235.787 419.722 234.561C419.145 233.547 418.343 232.679 417.378 232.024C416.438 231.303 415.371 230.767 414.232 230.444C413.711 230.261 413.15 230.222 412.61 230.334C412.069 230.446 411.569 230.703 411.164 231.077L411.136 231.104C410.52 231.757 410.165 232.612 410.139 233.509C410.117 234.44 410.316 235.364 410.718 236.204C411.185 237.103 411.556 238.048 411.824 239.025C411.957 239.559 411.976 240.114 411.879 240.656C411.752 241.228 411.429 241.736 410.965 242.094C410.539 242.417 410.064 242.671 409.559 242.846L409.196 242.972C409.128 242.993 409.092 243.013 408.998 243.035C408.901 243.06 408.8 243.07 408.7 243.064C408.376 243.03 408.069 242.9 407.82 242.691C407.041 241.981 406.436 241.1 406.053 240.117C405.742 239.198 405.347 238.309 404.873 237.462C404.381 236.649 403.766 235.917 403.051 235.292L402.777 235.062C402.659 234.961 402.554 234.846 402.464 234.718C402.308 234.497 402.173 234.261 402.062 234.014C401.847 233.54 401.684 233.044 401.575 232.535C401.437 231.574 401.204 230.629 400.879 229.714C400.541 228.813 400.101 227.954 399.568 227.154C399.046 226.327 398.492 225.522 397.905 224.74C395.658 221.534 392.622 218.963 389.091 217.275C389.076 217.269 389.062 217.262 389.049 217.254C384.366 214.299 379.594 211.468 374.728 208.82C372.294 207.495 369.833 206.222 367.332 205.031C364.849 203.801 362.271 202.774 359.622 201.96C359.613 201.957 359.605 201.951 359.6 201.943C359.595 201.935 359.594 201.925 359.597 201.915C359.599 201.906 359.605 201.898 359.613 201.894C359.622 201.889 359.631 201.888 359.641 201.89C362.313 202.651 364.92 203.627 367.435 204.809C369.969 205.943 372.456 207.182 374.905 208.49C379.811 211.09 384.616 213.869 389.347 216.782L389.306 216.76C392.956 218.45 396.107 221.056 398.454 224.323C399.06 225.114 399.635 225.928 400.176 226.765C400.741 227.607 401.207 228.511 401.563 229.46C401.902 230.406 402.146 231.383 402.293 232.377C402.391 232.833 402.538 233.278 402.731 233.703C402.823 233.906 402.934 234.1 403.062 234.282C403.114 234.357 403.175 234.426 403.243 234.487L403.537 234.732C404.312 235.407 404.978 236.197 405.512 237.075C406.005 237.949 406.417 238.867 406.742 239.816C407.079 240.68 407.605 241.456 408.281 242.09C408.41 242.201 408.566 242.276 408.734 242.305C408.765 242.314 408.78 242.3 408.801 242.301C408.854 242.287 408.905 242.271 408.955 242.252L409.292 242.134C409.721 241.987 410.124 241.773 410.486 241.5C410.808 241.221 411.036 240.85 411.141 240.437C411.246 240.025 411.222 239.59 411.073 239.191C410.814 238.264 410.462 237.366 410.024 236.51C409.577 235.56 409.362 234.518 409.396 233.468C409.433 232.37 409.885 231.327 410.661 230.549L410.633 230.576C411.121 230.08 411.751 229.75 412.436 229.631C413.094 229.528 413.766 229.57 414.406 229.753C415.633 230.104 416.783 230.685 417.792 231.466C418.3 231.844 418.776 232.262 419.216 232.716C419.692 233.174 420.078 233.717 420.353 234.317C420.672 235.46 421.24 236.517 422.018 237.412C422.882 238.225 423.888 238.874 424.985 239.328C425.519 239.562 426.084 239.72 426.662 239.797C427.205 239.889 427.764 239.789 428.241 239.515C428.463 239.372 428.649 239.181 428.785 238.956C428.922 238.731 429.005 238.477 429.028 238.215C429.062 237.969 429.011 237.719 428.882 237.507L428.398 236.724L426.464 233.592L426.461 233.587C426.43 233.538 426.418 233.481 426.425 233.423C426.432 233.366 426.458 233.313 426.499 233.272C426.54 233.232 426.593 233.207 426.651 233.201C426.708 233.195 426.766 233.209 426.814 233.24C427.699 233.887 428.546 234.584 429.352 235.327C429.718 235.686 430.157 235.962 430.639 236.137C431.12 236.312 431.634 236.383 432.145 236.343C432.65 236.279 433.129 236.085 433.535 235.781C433.942 235.476 434.263 235.07 434.465 234.604C434.787 233.608 434.762 232.532 434.394 231.552C434.378 231.505 434.381 231.455 434.401 231.41C434.42 231.365 434.456 231.328 434.501 231.308C434.916 231.143 435.302 230.911 435.642 230.622C435.98 230.338 436.241 229.973 436.401 229.562C436.705 228.715 436.7 227.788 436.387 226.944L436.384 226.936C436.37 226.895 436.373 226.85 436.391 226.811C436.409 226.771 436.441 226.74 436.481 226.724C436.98 226.543 437.425 226.24 437.777 225.842C438.109 225.435 438.29 224.926 438.289 224.401C438.282 223.868 438.142 223.344 437.881 222.879C437.62 222.414 437.246 222.022 436.794 221.739C434.958 220.469 433.205 219.103 431.448 217.737C429.704 216.356 427.952 214.989 426.244 213.556C426.033 213.374 425.822 213.191 425.616 212.995C425.422 212.816 425.202 212.668 424.963 212.556C424.465 212.336 423.94 212.184 423.402 212.104C422.314 211.933 421.212 211.87 420.112 211.914L420.094 211.914C417.504 211.798 414.923 211.52 412.366 211.084C411.72 210.966 411.083 210.801 410.462 210.589C410.135 210.478 409.826 210.319 409.546 210.116L408.748 209.607C407.662 208.941 406.518 208.288 405.449 207.563C401.159 204.655 397.047 201.495 393.132 198.1L393.158 198.119C389.369 195.495 385.612 192.835 381.768 190.306C377.922 187.779 374.007 185.356 369.988 183.116C365.976 180.865 361.858 178.796 357.665 176.907L344.905 171.602C344.9 171.601 344.896 171.598 344.893 171.595C344.889 171.591 344.887 171.587 344.885 171.583C344.883 171.579 344.882 171.574 344.882 171.569C344.882 171.564 344.883 171.56 344.884 171.555C344.886 171.551 344.889 171.547 344.892 171.543C344.896 171.54 344.9 171.537 344.904 171.535C344.908 171.534 344.913 171.533 344.918 171.533C344.922 171.533 344.927 171.533 344.932 171.535L344.932 171.535Z" fill="black"/>
<path d="M424.05 216.36C425.179 217.156 426.271 217.988 427.369 218.807C428.475 219.615 429.561 220.45 430.689 221.191C430.971 221.37 431.252 221.556 431.539 221.707C431.82 221.865 432.09 221.952 432.472 222.132C433.095 222.496 433.656 222.957 434.135 223.496C435.077 224.519 435.886 225.656 436.544 226.881C435.67 225.831 434.735 224.834 433.744 223.894C433.267 223.445 432.735 223.058 432.161 222.744L431.721 222.565C431.546 222.499 431.376 222.422 431.212 222.335C430.887 222.171 430.592 221.983 430.292 221.797C429.146 221.018 428.052 220.163 427.02 219.238C425.98 218.332 424.988 217.371 424.05 216.36Z" fill="black"/>
<path d="M421.235 219.786C422.314 220.843 423.388 221.892 424.507 222.881C425.598 223.88 426.779 224.777 428.034 225.56C428.342 225.747 428.662 225.913 428.991 226.058L430.04 226.459C430.763 226.769 431.43 227.195 432.015 227.721C433.161 228.748 434.039 230.04 434.571 231.484C434.186 230.842 433.744 230.236 433.25 229.673C432.781 229.106 432.247 228.596 431.66 228.151C431.087 227.715 430.456 227.36 429.785 227.096L428.718 226.712C428.356 226.56 428.005 226.384 427.667 226.185C426.365 225.376 425.174 224.4 424.125 223.282C423.062 222.203 422.095 221.033 421.235 219.786Z" fill="black"/>
<path d="M417.921 225.053C418.876 225.444 419.774 225.961 420.591 226.591C421.414 227.208 422.192 227.883 422.918 228.611C423.643 229.337 424.324 230.106 424.957 230.913C425.591 231.719 426.167 232.569 426.68 233.457C425.208 232.025 423.84 230.544 422.407 229.124C421.698 228.409 420.973 227.709 420.233 227.026C419.483 226.354 418.741 225.667 417.921 225.053Z" fill="black"/>
<path d="M335.712 228.019L337.366 230.175C337.374 230.186 337.378 230.201 337.376 230.215C337.374 230.229 337.366 230.242 337.355 230.251L325.675 239.662L325.557 239.136C328.432 239.951 331.126 241.305 333.495 243.125C335.874 244.917 337.974 247.051 339.727 249.457C341.498 251.846 342.973 254.441 344.118 257.185C344.709 258.543 345.228 259.931 345.673 261.343C346.124 262.7 346.698 264.013 347.388 265.264C350.106 270.36 354.162 274.617 359.119 277.58C361.621 278.99 364.294 280.07 367.074 280.791C375.487 283.126 384.478 282.101 392.149 277.931C394.739 276.628 397.237 275.148 399.623 273.502C400.814 272.676 402.006 271.796 403.263 270.999C404.517 270.2 405.804 269.463 407.121 268.788C409.756 267.444 412.49 266.302 415.299 265.374C416.679 264.94 418.03 264.421 419.346 263.819C420.644 263.198 421.885 262.464 423.055 261.625C425.402 259.924 427.52 257.927 429.355 255.683C431.224 253.446 432.903 251.056 434.373 248.539L434.366 248.742L429.171 237.443L434.761 248.552C434.776 248.583 434.784 248.616 434.783 248.651C434.783 248.685 434.774 248.719 434.758 248.749L434.754 248.756C431.918 253.878 428.377 258.78 423.57 262.337C422.373 263.228 421.101 264.013 419.767 264.682C418.429 265.325 417.053 265.884 415.646 266.357C412.906 267.319 410.244 268.489 407.682 269.856C406.406 270.546 405.145 271.26 403.936 272.046C402.723 272.825 401.561 273.694 400.35 274.545C397.923 276.243 395.381 277.77 392.743 279.117C390.092 280.476 387.308 281.557 384.435 282.343C381.538 283.117 378.549 283.489 375.551 283.448C369.544 283.31 363.664 281.695 358.429 278.747C353.284 275.633 349.086 271.175 346.287 265.852C345.569 264.533 344.976 263.149 344.515 261.719C344.106 260.33 343.623 258.963 343.07 257.624C342.007 254.935 340.621 252.386 338.942 250.032C335.669 245.224 330.928 241.606 325.427 239.718L325.397 239.708C325.345 239.692 325.299 239.662 325.264 239.621C325.228 239.58 325.205 239.53 325.196 239.477C325.187 239.424 325.192 239.369 325.212 239.319C325.232 239.269 325.266 239.225 325.309 239.192L337.287 230.164L337.276 230.24L335.712 228.019Z" fill="black"/>
<path d="M337.321 230.207C339.317 228.672 341.357 227.203 343.404 225.744C345.45 224.283 347.533 222.877 349.596 221.44C351.691 220.053 353.769 218.639 355.881 217.275C357.993 215.912 360.112 214.559 362.276 213.272C360.281 214.808 358.241 216.277 356.194 217.737C354.147 219.196 352.066 220.605 350.002 222.039C347.906 223.426 345.829 224.841 343.716 226.203C341.604 227.567 339.485 228.92 337.321 230.207Z" fill="black"/>
<path d="M325.492 239.427C319.696 243.311 314.222 247.653 309.121 252.413C303.956 257.063 299.441 262.388 295.699 268.244C293.873 271.162 292.446 274.31 291.456 277.606C290.973 279.241 290.651 280.92 290.493 282.618C290.385 284.341 290.313 286.079 290.23 287.81C290.076 294.768 290.217 301.746 290.383 308.718C290.671 322.67 291.307 336.619 291.892 350.568L293.745 392.423C293.129 385.465 292.64 378.499 292.114 371.534L290.778 350.625C289.963 336.68 289.349 322.723 288.935 308.753C288.813 301.764 288.715 294.775 288.914 287.77C289.009 286.015 289.092 284.263 289.214 282.504C289.39 280.725 289.739 278.967 290.255 277.255C291.289 273.857 292.805 270.625 294.756 267.658C298.651 261.798 303.323 256.494 308.645 251.891C311.273 249.575 313.994 247.376 316.808 245.294C319.613 243.207 322.499 241.228 325.492 239.427Z" fill="black"/>
<path d="M356.024 276.335C350.889 278.434 345.918 280.913 341.151 283.751C338.772 285.149 336.487 286.703 334.313 288.403C332.139 290.061 330.201 292.006 328.552 294.186C327.767 295.266 327.131 296.446 326.662 297.696C326.23 298.928 326.05 300.235 326.134 301.539C326.326 304.285 326.673 307.037 326.99 309.796C327.651 315.309 328.233 320.869 328.373 326.458C328.479 332.053 328.111 337.648 327.273 343.181C327.085 344.567 326.78 345.934 326.539 347.311C326.275 348.684 325.921 350.038 325.616 351.402C324.956 354.102 324.277 356.779 323.674 359.485C322.463 364.889 321.485 370.348 320.781 375.845C320.413 378.592 320.122 381.35 319.885 384.115C319.768 385.498 319.663 386.881 319.592 388.266C319.485 389.65 319.48 391.039 319.578 392.423C319.326 389.652 319.3 386.865 319.502 384.09C319.631 381.314 319.813 378.536 320.076 375.765C320.638 370.226 321.499 364.717 322.583 359.254C323.114 356.521 323.746 353.8 324.399 351.104C324.689 349.756 325.027 348.417 325.277 347.062C325.504 345.702 325.794 344.352 325.969 342.985C326.75 337.523 327.07 332.005 326.925 326.489C326.83 320.969 326.299 315.461 325.681 309.944C325.387 307.182 325.06 304.418 324.886 301.622C324.798 300.146 325.016 298.669 325.526 297.282C326.064 295.94 326.781 294.677 327.658 293.528C329.415 291.311 331.467 289.344 333.756 287.682C335.997 286.009 338.35 284.492 340.797 283.14C343.238 281.789 345.739 280.56 348.28 279.425C350.817 278.286 353.397 277.241 356.024 276.335Z" fill="black"/>
<path d="M376.472 282.739C380.717 288.405 385.342 293.777 390.315 298.816C395.221 303.894 400.593 308.499 406.362 312.57C412.151 316.529 418.465 319.895 425.289 321.354C428.679 322.102 432.174 322.245 435.614 321.778L438.155 321.286C439 321.068 439.843 320.838 440.679 320.582C442.351 320.069 444.003 319.479 445.635 318.835C452.165 316.18 458.462 312.984 464.461 309.283C470.518 305.649 476.358 301.654 482.148 297.591C487.928 293.51 493.588 289.256 499.198 284.932L507.623 278.454L511.854 275.234C512.567 274.709 513.284 274.186 514.014 273.682C514.38 273.432 514.746 273.182 515.125 272.951C515.488 272.694 515.894 272.505 516.324 272.392C515.901 272.522 515.505 272.726 515.155 272.997C514.787 273.242 514.432 273.507 514.078 273.771C513.371 274.303 512.678 274.854 511.987 275.408L507.862 278.755L499.637 285.491C494.112 289.931 488.518 294.292 482.8 298.496C477.094 302.715 471.209 306.687 465.145 310.411C459.102 314.193 452.753 317.462 446.164 320.183C444.496 320.829 442.806 321.421 441.088 321.937C440.229 322.195 439.361 322.425 438.489 322.645L435.81 323.146C432.21 323.615 428.556 323.444 425.015 322.642C421.506 321.846 418.106 320.63 414.888 319.022C411.679 317.442 408.613 315.587 405.724 313.478C394.183 305.067 384.564 294.351 376.472 282.739Z" fill="black"/>
<path d="M420.025 264.017C421.979 267.509 424.478 270.666 427.427 273.37C430.344 276.017 433.945 278.055 437.821 278.32C438.781 278.381 439.746 278.338 440.697 278.192C441.639 278.077 442.558 277.824 443.425 277.439C444.304 277.046 445.138 276.559 445.912 275.986C446.742 275.408 447.582 274.849 448.427 274.297C451.812 272.085 455.328 270.082 458.957 268.299C462.612 266.528 466.437 265.134 470.374 264.138C474.248 263.164 478.057 261.953 481.852 260.693C489.416 258.041 496.83 254.978 504.06 251.517C500.547 253.463 496.985 255.323 493.355 257.06C489.708 258.757 485.999 260.319 482.227 261.744C478.451 263.16 474.607 264.386 470.708 265.415C466.868 266.432 463.141 267.836 459.584 269.605C455.987 271.323 452.499 273.26 449.139 275.405C448.299 275.941 447.462 276.484 446.639 277.045C445.79 277.655 444.878 278.173 443.919 278.589C441.955 279.375 439.828 279.662 437.726 279.426C433.613 278.84 429.816 276.888 426.944 273.885C424.099 271.009 421.759 267.673 420.025 264.017V264.017Z" fill="black"/>
<path d="M210.848 380.039C209.957 385.653 208.227 391.102 205.715 396.201C203.201 401.417 199.844 406.184 195.78 410.309C193.689 412.398 191.37 414.248 188.868 415.822C188.235 416.214 187.602 416.61 186.938 416.955C186.284 417.32 185.622 417.672 184.936 417.981C184.258 418.306 183.562 418.595 182.853 418.858C182.152 419.142 181.436 419.389 180.71 419.601C177.789 420.501 174.749 420.957 171.693 420.955C168.664 420.926 165.657 420.437 162.775 419.504C157.109 417.932 151.794 415.295 147.115 411.733C146.544 411.272 145.934 410.87 145.402 410.364L143.799 408.864C142.74 407.862 141.749 406.791 140.833 405.657C140.355 405.11 139.912 404.533 139.506 403.931L138.239 402.164C137.5 400.92 136.777 399.664 136.108 398.391C133.603 393.209 132.067 387.613 131.576 381.879L131.372 379.739C131.337 379.025 131.339 378.31 131.321 377.594L131.256 375.445C131.25 374.729 131.303 374.016 131.324 373.301C131.349 370.391 131.687 367.492 132.33 364.655C133.691 358.928 136.145 353.518 139.559 348.723C142.967 343.946 147.052 339.691 151.685 336.09C156.31 332.448 161.402 329.444 166.825 327.156C169.569 326.004 172.409 325.097 175.312 324.444C178.256 323.759 181.264 323.385 184.287 323.327C187.495 323.254 190.685 323.821 193.671 324.995C196.638 326.201 199.326 328.002 201.571 330.285C202.144 330.824 202.625 331.435 203.151 332.008C203.645 332.604 204.103 333.223 204.571 333.832C204.984 334.476 205.414 335.109 205.8 335.761C206.164 336.425 206.563 337.071 206.891 337.746C208.222 340.392 209.265 343.175 210 346.045C211.377 351.636 212.064 357.375 212.046 363.134C212.082 368.791 211.682 374.443 210.848 380.039ZM210.275 379.955C211.884 368.905 210.529 357.625 206.347 347.271C204.46 342.376 201.515 337.958 197.723 334.332C195.905 332.713 193.806 331.441 191.53 330.579C189.238 329.775 186.815 329.416 184.389 329.519C179.136 329.726 173.958 330.829 169.076 332.78C164.075 334.734 159.342 337.315 154.991 340.462C150.627 343.629 146.691 347.345 143.279 351.52C139.824 355.663 137.151 360.4 135.39 365.5C134.538 368.083 133.997 370.758 133.778 373.469C133.708 374.155 133.607 374.841 133.563 375.528L133.482 377.594C133.468 378.283 133.434 378.974 133.436 379.663L133.539 381.727C133.769 387.239 135.212 392.632 137.766 397.523C140.409 402.3 144.265 406.296 148.945 409.108C153.591 411.85 158.669 413.783 163.962 414.826C174.216 417.555 184.773 414.099 193.344 407.531C197.723 404.204 201.472 400.122 204.416 395.477C207.434 390.77 209.43 385.482 210.275 379.955Z" fill="black"/>
<path d="M204.16 319.742C204.14 320.222 204.12 320.692 204.1 321.172C204 323.782 203.95 326.422 203.9 329.082C203.84 331.742 203.8 334.432 203.68 337.172C203.103 335.93 202.593 334.658 202.15 333.362C201.68 332.082 201.28 330.782 200.92 329.462C200.181 326.831 199.613 324.156 199.22 321.452C198.896 319.272 198.692 317.075 198.61 314.872C196.17 316.811 193.6 318.582 190.92 320.172C188.233 321.793 185.458 323.265 182.61 324.582C179.763 325.929 176.822 327.069 173.81 327.992C176.09 325.782 178.44 323.752 180.79 321.732C183.14 319.732 185.5 317.762 187.84 315.822C190.17 313.872 192.49 311.932 194.66 309.962C195.74 308.972 196.78 307.962 197.71 306.962C198.12 306.512 198.51 306.042 198.85 305.602C199.398 305.341 199.981 305.159 200.58 305.062C201.112 304.991 201.653 305.037 202.167 305.195C202.68 305.353 203.152 305.62 203.552 305.979C203.952 306.337 204.27 306.777 204.484 307.27C204.697 307.762 204.802 308.295 204.79 308.832C204.779 311.72 204.538 314.602 204.07 317.452C203.92 318.212 203.951 318.996 204.16 319.742Z" fill="black"/>
<path d="M144.688 408.221C144.64 408.221 144.593 408.211 144.549 408.193C144.505 408.175 144.465 408.148 144.431 408.115C144.398 408.081 144.371 408.041 144.353 407.997C144.335 407.953 144.325 407.906 144.325 407.858V346.159C144.326 346.063 144.364 345.972 144.432 345.904C144.5 345.837 144.592 345.799 144.688 345.799C144.783 345.799 144.875 345.837 144.943 345.904C145.011 345.972 145.049 346.063 145.05 346.159V407.858C145.05 407.906 145.04 407.953 145.022 407.997C145.004 408.041 144.977 408.081 144.944 408.115C144.91 408.148 144.87 408.175 144.826 408.193C144.782 408.211 144.735 408.221 144.688 408.221Z" fill="black"/>
<path d="M163.147 417.614C163.099 417.614 163.052 417.605 163.008 417.587C162.964 417.568 162.924 417.542 162.891 417.508C162.857 417.474 162.83 417.435 162.812 417.391C162.794 417.347 162.785 417.299 162.785 417.252V332.145C162.784 332.098 162.794 332.05 162.812 332.006C162.83 331.962 162.856 331.922 162.89 331.888C162.924 331.854 162.964 331.827 163.008 331.809C163.052 331.791 163.099 331.781 163.147 331.781C163.195 331.781 163.242 331.791 163.286 331.809C163.33 331.827 163.37 331.854 163.404 331.888C163.438 331.922 163.464 331.962 163.482 332.006C163.5 332.05 163.51 332.098 163.509 332.145V417.252C163.509 417.3 163.5 417.347 163.482 417.391C163.464 417.435 163.437 417.475 163.403 417.508C163.37 417.542 163.33 417.568 163.286 417.587C163.242 417.605 163.195 417.614 163.147 417.614Z" fill="black"/>
<path d="M180.99 417.614C180.943 417.614 180.896 417.605 180.852 417.587C180.808 417.569 180.768 417.542 180.734 417.508C180.7 417.475 180.674 417.435 180.655 417.391C180.637 417.347 180.628 417.3 180.628 417.252V326.621C180.628 326.525 180.667 326.434 180.735 326.366C180.803 326.299 180.894 326.261 180.99 326.261C181.086 326.261 181.178 326.299 181.246 326.366C181.314 326.434 181.352 326.525 181.353 326.621V417.252C181.353 417.3 181.343 417.347 181.325 417.391C181.307 417.435 181.28 417.475 181.246 417.508C181.213 417.542 181.173 417.569 181.129 417.587C181.085 417.605 181.038 417.614 180.99 417.614Z" fill="black"/>
<path d="M199.488 404.268C199.44 404.268 199.393 404.258 199.349 404.24C199.305 404.222 199.265 404.195 199.232 404.161C199.198 404.128 199.171 404.088 199.153 404.044C199.135 404 199.125 403.953 199.125 403.905V332.145C199.125 332.098 199.134 332.05 199.153 332.006C199.171 331.962 199.197 331.922 199.231 331.888C199.265 331.854 199.305 331.827 199.349 331.809C199.393 331.791 199.44 331.781 199.488 331.781C199.536 331.781 199.583 331.791 199.627 331.809C199.671 331.827 199.711 331.854 199.745 331.888C199.778 331.922 199.805 331.962 199.823 332.006C199.841 332.05 199.85 332.098 199.85 332.145V403.905C199.85 403.953 199.841 404 199.823 404.044C199.804 404.088 199.778 404.128 199.744 404.161C199.71 404.195 199.67 404.222 199.626 404.24C199.583 404.258 199.535 404.268 199.488 404.268Z" fill="black"/>
<path d="M208.594 348.306H143.137C143.089 348.306 143.042 348.297 142.998 348.279C142.954 348.261 142.914 348.234 142.88 348.2C142.846 348.167 142.819 348.127 142.801 348.082C142.782 348.038 142.773 347.991 142.773 347.943C142.773 347.896 142.782 347.848 142.801 347.804C142.819 347.76 142.846 347.72 142.88 347.686C142.914 347.653 142.954 347.626 142.998 347.608C143.042 347.59 143.089 347.581 143.137 347.581H208.594C208.689 347.582 208.781 347.62 208.849 347.688C208.916 347.756 208.954 347.848 208.954 347.943C208.954 348.039 208.916 348.131 208.849 348.199C208.781 348.267 208.689 348.305 208.594 348.306Z" fill="black"/>
<path d="M211.393 366.507H133.567C133.471 366.506 133.38 366.468 133.312 366.4C133.244 366.332 133.207 366.24 133.207 366.145C133.207 366.049 133.244 365.957 133.312 365.889C133.38 365.821 133.471 365.783 133.567 365.782H211.393C211.488 365.783 211.58 365.821 211.648 365.889C211.715 365.957 211.753 366.049 211.753 366.145C211.753 366.24 211.715 366.332 211.648 366.4C211.58 366.468 211.488 366.506 211.393 366.507Z" fill="black"/>
<path d="M208.86 385.753H132.923C132.827 385.752 132.735 385.714 132.668 385.646C132.6 385.578 132.562 385.486 132.562 385.391C132.562 385.295 132.6 385.203 132.668 385.135C132.735 385.067 132.827 385.029 132.923 385.028H208.86C208.908 385.028 208.955 385.037 209 385.055C209.044 385.073 209.084 385.1 209.118 385.134C209.152 385.167 209.179 385.207 209.197 385.252C209.215 385.296 209.225 385.343 209.225 385.391C209.225 385.438 209.215 385.486 209.197 385.53C209.179 385.574 209.152 385.614 209.118 385.647C209.084 385.681 209.044 385.708 209 385.726C208.955 385.744 208.908 385.753 208.86 385.753Z" fill="black"/>
<path d="M200.405 403.152H139.977C139.93 403.153 139.882 403.143 139.838 403.125C139.794 403.107 139.754 403.081 139.72 403.047C139.686 403.013 139.659 402.973 139.641 402.929C139.623 402.885 139.613 402.838 139.613 402.79C139.613 402.742 139.623 402.695 139.641 402.651C139.659 402.607 139.686 402.567 139.72 402.533C139.754 402.5 139.794 402.473 139.838 402.455C139.882 402.437 139.93 402.427 139.977 402.428H200.405C200.452 402.427 200.5 402.437 200.544 402.455C200.588 402.473 200.628 402.5 200.662 402.533C200.696 402.567 200.723 402.607 200.741 402.651C200.76 402.695 200.769 402.742 200.769 402.79C200.769 402.838 200.76 402.885 200.741 402.929C200.723 402.973 200.696 403.013 200.662 403.047C200.628 403.081 200.588 403.107 200.544 403.125C200.5 403.143 200.452 403.153 200.405 403.152Z" fill="black"/>
<path d="M285.454 397.532C285.698 396.294 286.079 395.087 286.589 393.933C287.069 392.739 287.854 391.692 288.866 390.896L289.271 390.622L289.729 390.44C290.035 390.318 290.361 390.25 290.69 390.238C291.347 390.214 292.001 390.347 292.595 390.629C293.796 391.158 294.78 392.083 295.384 393.249C296.379 395.546 297.964 397.539 299.978 399.025C302.01 400.461 304.518 401.056 306.979 400.685C309.439 400.315 311.661 399.007 313.18 397.036C314.642 395.058 316.349 392.864 318.951 392.063C319.601 391.868 320.287 391.825 320.956 391.938C321.625 392.051 322.259 392.317 322.808 392.714C323.854 393.567 324.522 394.797 324.668 396.138C324.935 398.698 324.641 401.285 323.804 403.718L323.814 403.676C323.54 405.859 323.625 408.073 324.068 410.229C324.299 411.298 324.698 412.324 325.251 413.269C325.816 414.246 326.247 415.295 326.531 416.387C327.13 418.581 327 420.91 326.16 423.023C325.771 424.085 325.166 425.055 324.384 425.872C323.601 426.689 322.658 427.335 321.613 427.769C320.552 428.154 319.435 428.36 318.307 428.377C317.185 428.373 316.066 428.25 314.97 428.011C314.42 427.907 313.876 427.772 313.342 427.605C312.801 427.461 312.268 427.289 311.745 427.09C311.21 426.911 310.695 426.697 310.183 426.528C309.658 426.367 309.125 426.233 308.586 426.128C304.208 425.436 299.749 425.436 295.371 426.128C294.275 426.287 293.177 426.432 292.089 426.645C290.997 426.83 289.911 427.048 288.83 427.293C286.667 427.757 284.488 428.278 282.297 428.675C277.912 429.511 273.473 430.033 269.013 430.236C264.522 430.54 260.012 430.05 255.69 428.789C254.611 428.424 253.571 427.953 252.586 427.383C251.601 426.784 250.709 426.043 249.94 425.184C249.192 424.296 248.616 423.275 248.243 422.175C247.896 421.076 247.719 419.93 247.716 418.778L247.751 418.934C247.589 418.44 247.527 417.918 247.567 417.4C247.608 416.881 247.751 416.376 247.988 415.913C248.432 415.04 249.035 414.258 249.766 413.607C251.204 412.365 252.816 411.341 254.552 410.567C257.993 409.061 261.393 407.658 264.822 406.198C271.66 403.294 278.538 400.406 285.454 397.532ZM285.51 397.577C278.741 400.594 271.926 403.602 265.065 406.603C261.656 408.11 258.184 409.597 254.815 411.121C253.151 411.887 251.608 412.892 250.235 414.105C249.578 414.704 249.037 415.419 248.641 416.215C248.266 416.96 248.184 417.818 248.411 418.621L248.419 418.643C248.435 418.686 248.444 418.732 248.446 418.778C248.451 419.851 248.618 420.918 248.942 421.941C249.287 422.95 249.816 423.885 250.504 424.7C251.223 425.496 252.055 426.183 252.972 426.739C253.913 427.279 254.905 427.725 255.934 428.071C258.025 428.739 260.186 429.164 262.374 429.337C264.573 429.534 266.782 429.591 268.988 429.51C273.415 429.332 277.824 428.839 282.181 428.033C284.37 427.662 286.523 427.175 288.712 426.733C289.802 426.499 290.897 426.293 291.999 426.121C293.096 425.919 294.204 425.786 295.31 425.639C299.739 425 304.242 425.048 308.656 425.784C309.207 425.897 309.751 426.038 310.287 426.208C310.829 426.392 311.34 426.61 311.858 426.788C312.372 426.988 312.896 427.162 313.428 427.309C313.954 427.478 314.489 427.616 315.03 427.723C316.105 427.967 317.202 428.097 318.304 428.111C319.402 428.103 320.491 427.913 321.527 427.547C322.546 427.135 323.465 426.509 324.222 425.711C324.979 424.914 325.557 423.964 325.916 422.924C326.711 420.862 326.813 418.598 326.207 416.473C325.92 415.414 325.49 414.399 324.93 413.455C324.348 412.483 323.923 411.425 323.672 410.321C323.193 408.118 323.082 405.85 323.343 403.611L323.348 403.586L323.353 403.568C324.138 401.206 324.402 398.703 324.127 396.23C323.992 395.037 323.395 393.945 322.464 393.188C321.985 392.849 321.434 392.625 320.855 392.534C320.275 392.442 319.682 392.486 319.123 392.662C317.974 393.057 316.933 393.714 316.081 394.58C315.192 395.456 314.379 396.406 313.651 397.42C312.031 399.483 309.677 400.841 307.08 401.21C304.484 401.579 301.845 400.931 299.714 399.402C297.659 397.858 296.049 395.799 295.045 393.434C294.491 392.333 293.576 391.456 292.453 390.948C291.909 390.681 291.31 390.544 290.704 390.547C290.404 390.55 290.106 390.605 289.824 390.71L289.397 390.865L289.013 391.112C288.017 391.862 287.234 392.859 286.741 394.004C286.204 395.148 285.791 396.346 285.51 397.577Z" fill="black"/>
<path d="M296.441 405.209C295.055 403.422 293.406 401.854 291.551 400.56C290.639 399.931 289.676 399.378 288.672 398.908C287.663 398.404 286.592 398.033 285.482 397.555C286.682 397.423 287.897 397.522 289.061 397.845C291.447 398.476 293.54 399.917 294.98 401.922C295.711 402.892 296.211 404.016 296.441 405.209Z" fill="black"/>
<path d="M277.844 400.899C279.002 401.15 280.122 401.55 281.177 402.089C282.243 402.608 283.252 403.238 284.188 403.967C285.153 404.705 285.99 405.597 286.664 406.609C287.01 407.13 287.267 407.706 287.423 408.312C287.584 408.917 287.551 409.557 287.328 410.142C287.124 409.051 286.577 408.055 285.766 407.297C284.993 406.509 284.166 405.776 283.29 405.104C281.535 403.706 279.656 402.434 277.844 400.899Z" fill="black"/>
<path d="M269.82 404.381C271.025 404.509 272.202 404.83 273.305 405.332C274.429 405.811 275.481 406.442 276.431 407.209C277.401 407.988 278.223 408.936 278.858 410.006C279.482 411.083 279.789 412.315 279.741 413.559C279.256 412.518 278.646 411.54 277.926 410.646C277.191 409.808 276.385 409.034 275.517 408.334C273.774 406.905 271.824 405.719 269.82 404.381Z" fill="black"/>
<path d="M248.081 418.778C248.161 418.158 248.364 417.561 248.677 417.021C248.988 416.447 249.508 416.015 250.13 415.815C250.764 415.649 251.434 415.683 252.048 415.913C252.668 416.098 253.247 416.401 253.751 416.807C254.259 417.211 254.699 417.693 255.055 418.236C255.382 418.772 255.67 419.33 255.917 419.907C256.46 420.961 257.193 421.907 258.078 422.696C259.909 424.226 262.123 425.226 264.482 425.588C266.863 425.958 269.283 426.017 271.68 425.763L271.613 425.773C275.96 424.923 280.329 424.223 284.718 423.674C286.918 423.416 289.125 423.2 291.349 423.073L293.023 423.008L294.708 423.02C295.272 423.035 295.845 423.094 296.412 423.13C296.973 423.214 297.611 423.33 298.113 423.43C300.236 423.812 302.391 423.985 304.548 423.945C306.736 423.939 308.923 423.817 311.098 423.581C313.277 423.349 315.441 422.996 317.58 422.526C318.648 422.287 319.698 421.973 320.723 421.586C321.761 421.229 322.728 420.69 323.579 419.995C321.885 421.443 319.871 422.468 317.704 422.986C315.575 423.617 313.402 424.091 311.203 424.403C309.005 424.728 306.791 424.937 304.571 425.03C302.32 425.172 300.06 425.056 297.836 424.684C295.719 424.329 293.564 424.256 291.428 424.467C289.251 424.606 287.07 424.834 284.893 425.104C280.54 425.648 276.187 426.328 271.865 427.091L271.845 427.094L271.799 427.1C269.28 427.328 266.742 427.206 264.256 426.736C261.728 426.246 259.383 425.073 257.475 423.344C256.548 422.452 255.793 421.397 255.247 420.231C255.033 419.665 254.787 419.111 254.511 418.572C254.22 418.062 253.85 417.601 253.415 417.208C252.979 416.809 252.47 416.5 251.915 416.298C251.38 416.054 250.783 415.984 250.206 416.096C249.643 416.31 249.149 416.672 248.775 417.144C248.401 417.616 248.161 418.181 248.081 418.778Z" fill="black"/>
<path d="M315.366 410.269C314.83 408.161 311.149 407.278 307.146 408.297C303.142 409.316 300.332 411.851 300.868 413.96C301.405 416.068 305.908 418.568 309.089 415.932C312.793 412.863 315.903 412.378 315.366 410.269Z" fill="black"/>
<path d="M525.644 277.391C524.453 277.805 523.219 278.087 521.965 278.229C520.692 278.418 519.391 278.27 518.193 277.8L517.752 277.589L517.364 277.285C517.104 277.082 516.881 276.836 516.704 276.557C516.351 276.003 516.136 275.372 516.078 274.717C515.928 273.412 516.229 272.096 516.93 270.986C518.409 268.967 519.328 266.592 519.593 264.103C519.805 261.623 519.051 259.158 517.488 257.222C515.925 255.287 513.674 254.03 511.206 253.716C508.76 253.453 506.004 253.089 503.997 251.249C503.501 250.786 503.117 250.216 502.877 249.582C502.636 248.947 502.545 248.266 502.61 247.591C502.818 246.258 503.542 245.06 504.625 244.256C506.699 242.732 509.08 241.679 511.603 241.171L511.561 241.184C513.584 240.317 515.451 239.125 517.087 237.653C517.894 236.914 518.578 236.05 519.113 235.096C519.671 234.115 520.358 233.213 521.157 232.416C522.747 230.79 524.823 229.726 527.071 229.383C528.184 229.182 529.327 229.213 530.427 229.476C531.528 229.738 532.562 230.226 533.465 230.908C534.333 231.629 535.075 232.489 535.659 233.454C536.223 234.424 536.683 235.452 537.03 236.519C537.219 237.046 537.376 237.583 537.502 238.128C537.651 238.668 537.772 239.215 537.865 239.767C537.98 240.319 538.056 240.871 538.169 241.398C538.295 241.933 538.449 242.461 538.631 242.979C540.246 247.106 542.499 250.954 545.309 254.382C546 255.248 546.68 256.122 547.414 256.953C548.125 257.802 548.86 258.631 549.62 259.438C551.113 261.07 552.664 262.687 554.113 264.377C557.051 267.739 559.744 271.306 562.173 275.051C564.705 278.774 566.561 282.913 567.657 287.28C567.887 288.395 568.007 289.53 568.013 290.669C567.993 291.822 567.804 292.965 567.452 294.063C567.064 295.158 566.474 296.17 565.713 297.048C564.94 297.902 564.041 298.635 563.048 299.219L563.165 299.11C562.82 299.5 562.402 299.817 561.934 300.044C561.466 300.271 560.957 300.403 560.438 300.432C559.461 300.49 558.481 300.365 557.55 300.063C555.751 299.45 554.053 298.577 552.508 297.47C549.47 295.261 546.541 293.036 543.548 290.815C537.587 286.381 531.619 281.906 525.644 277.391ZM525.655 277.319C531.678 281.636 537.718 285.997 543.775 290.4C546.798 292.581 549.836 294.825 552.853 296.963C554.355 298.011 556.002 298.835 557.743 299.407C558.591 299.672 559.482 299.776 560.369 299.716C561.201 299.663 561.983 299.3 562.561 298.699L562.576 298.681C562.606 298.645 562.64 298.614 562.679 298.589C563.603 298.043 564.439 297.359 565.158 296.563C565.854 295.756 566.394 294.826 566.749 293.821C567.072 292.798 567.245 291.734 567.262 290.661C567.252 289.576 567.136 288.494 566.914 287.431C566.434 285.29 565.709 283.21 564.753 281.235C563.811 279.238 562.745 277.303 561.56 275.44C559.169 271.71 556.515 268.155 553.618 264.802C552.192 263.1 550.684 261.488 549.196 259.823C548.444 259 547.714 258.158 547.006 257.295C546.278 256.451 545.604 255.562 544.919 254.682C542.128 251.183 539.895 247.273 538.299 243.092C538.117 242.56 537.964 242.018 537.84 241.47C537.725 240.909 537.656 240.359 537.547 239.822C537.46 239.277 537.346 238.737 537.203 238.204C537.083 237.665 536.933 237.133 536.751 236.612C536.419 235.561 535.976 234.548 535.431 233.591C534.87 232.647 534.155 231.803 533.317 231.094C532.446 230.424 531.441 229.947 530.37 229.696C529.299 229.446 528.188 229.428 527.109 229.643C524.928 229.999 522.923 231.055 521.395 232.652C520.626 233.435 519.967 234.319 519.436 235.279C518.892 236.272 518.193 237.173 517.367 237.949C515.708 239.475 513.808 240.717 511.743 241.623L511.719 241.631L511.701 241.636C509.267 242.152 506.973 243.189 504.978 244.677C504.017 245.395 503.376 246.463 503.193 247.649C503.143 248.233 503.228 248.822 503.442 249.368C503.656 249.914 503.993 250.404 504.428 250.798C505.349 251.589 506.442 252.156 507.62 252.453C508.825 252.778 510.056 252.999 511.299 253.115C513.898 253.47 516.259 254.815 517.89 256.87C519.521 258.924 520.295 261.529 520.052 264.14C519.758 266.693 518.795 269.123 517.261 271.185C516.591 272.219 516.297 273.452 516.426 274.678C516.47 275.282 516.655 275.868 516.964 276.389C517.118 276.647 517.316 276.877 517.549 277.067L517.898 277.357L518.306 277.563C519.456 278.044 520.712 278.216 521.95 278.063C523.208 277.948 524.45 277.699 525.655 277.319Z" fill="black"/>
<path d="M526.717 264.03C525.875 266.129 525.356 268.344 525.176 270.598C525.095 271.704 525.104 272.814 525.205 273.918C525.28 275.043 525.502 276.155 525.65 277.355C524.929 276.385 524.401 275.287 524.092 274.12C523.43 271.742 523.616 269.208 524.618 266.952C525.086 265.831 525.804 264.831 526.717 264.03Z" fill="black"/>
<path d="M532.394 282.255C532.027 281.129 531.806 279.961 531.737 278.778C531.647 277.596 531.681 276.407 531.836 275.231C531.985 274.025 532.333 272.852 532.865 271.76C533.14 271.197 533.507 270.684 533.952 270.243C534.392 269.799 534.961 269.504 535.578 269.4C534.741 270.128 534.157 271.104 533.913 272.187C533.623 273.252 533.409 274.336 533.272 275.431C532.952 277.652 532.803 279.916 532.394 282.255Z" fill="black"/>
<path d="M539.455 287.42C538.956 286.315 538.639 285.138 538.514 283.933C538.359 282.721 538.373 281.494 538.554 280.286C538.736 279.055 539.138 277.867 539.741 276.778C540.355 275.695 541.264 274.809 542.361 274.221C541.708 275.166 541.172 276.186 540.765 277.259C540.413 278.317 540.152 279.404 539.986 280.506C539.635 282.733 539.596 285.015 539.455 287.42Z" fill="black"/>
<path d="M562.863 298.904C562.288 299.148 561.671 299.275 561.046 299.278C560.394 299.3 559.758 299.068 559.272 298.633C558.807 298.17 558.498 297.574 558.387 296.928C558.233 296.3 558.202 295.648 558.297 295.008C558.39 294.365 558.583 293.742 558.871 293.16C559.169 292.607 559.506 292.077 559.879 291.572C560.513 290.57 560.959 289.46 561.193 288.298C561.588 285.945 561.332 283.528 560.452 281.31C559.568 279.068 558.397 276.95 556.966 275.01L557.008 275.063C554.078 271.741 551.267 268.325 548.575 264.815C547.241 263.047 545.939 261.251 544.705 259.396L543.803 257.985L542.962 256.525C542.69 256.031 542.452 255.507 542.197 254.999C541.985 254.473 541.763 253.863 541.596 253.38C540.852 251.355 539.912 249.408 538.788 247.566C537.677 245.681 536.467 243.856 535.164 242.098C533.863 240.335 532.465 238.646 530.978 237.038C530.232 236.237 529.43 235.489 528.579 234.801C527.746 234.085 526.792 233.523 525.763 233.14C527.868 233.87 529.77 235.09 531.312 236.698C532.933 238.217 534.439 239.852 535.82 241.592C537.212 243.325 538.511 245.129 539.712 246.999C540.972 248.869 542.014 250.877 542.817 252.985C543.581 254.991 544.607 256.887 545.869 258.624C547.089 260.433 548.387 262.199 549.72 263.941C552.389 267.423 555.176 270.836 558.018 274.179L558.032 274.195L558.06 274.232C559.529 276.291 560.706 278.543 561.557 280.924C562.412 283.353 562.585 285.97 562.057 288.49C561.756 289.741 561.227 290.926 560.497 291.986C560.116 292.457 559.763 292.949 559.437 293.459C559.144 293.968 558.933 294.52 558.813 295.095C558.69 295.672 558.68 296.268 558.786 296.849C558.846 297.433 559.087 297.984 559.475 298.426C559.944 298.803 560.507 299.046 561.103 299.131C561.7 299.215 562.308 299.137 562.863 298.904Z" fill="black"/>
<path d="M521.52 245.141C519.972 246.67 521.069 250.292 523.972 253.232C526.874 256.172 530.482 257.316 532.031 255.787C533.579 254.259 533.46 249.11 529.578 247.697C525.058 246.051 523.068 243.613 521.52 245.141Z" fill="black"/>
<path d="M246.63 230.94C245.839 233.726 244.824 236.444 243.595 239.066C242.425 241.715 241.092 244.281 239.765 246.85C237.057 251.958 234.183 256.973 231.203 261.923C228.204 266.86 225.201 271.796 222.036 276.627L217.279 283.867L212.376 291.011L212.346 290.433C213.213 291.638 213.823 293.009 214.136 294.461C214.478 295.859 214.684 297.287 214.753 298.725C214.83 300.16 214.764 301.599 214.554 303.021C214.447 303.738 214.277 304.445 214.048 305.133C213.921 305.481 213.767 305.819 213.587 306.142C213.394 306.449 213.186 306.746 212.963 307.032C212.15 308.136 211.68 309.457 211.613 310.827C211.597 311.166 211.61 311.506 211.652 311.842C211.691 312.142 211.803 312.53 211.855 312.871C211.981 313.574 212.069 314.284 212.122 314.997C212.242 316.429 212.168 317.87 211.901 319.282C211.77 320.006 211.521 320.704 211.163 321.348C210.746 321.994 210.117 322.476 209.384 322.711C208.662 322.929 207.896 322.96 207.159 322.801C206.421 322.642 205.736 322.298 205.169 321.801C204.61 321.292 204.186 320.654 203.933 319.942C203.68 319.23 203.607 318.467 203.719 317.72C204.159 314.94 204.38 312.129 204.378 309.315C204.429 308.669 204.323 308.019 204.068 307.423C203.803 306.854 203.386 306.371 202.862 306.025C202.323 305.7 201.707 305.525 201.078 305.516C200.448 305.507 199.828 305.666 199.28 305.976C196.85 307.233 194.777 309.082 193.252 311.352L193.243 311.364C193.181 311.449 193.097 311.517 193 311.559C192.903 311.602 192.796 311.618 192.691 311.606C192.586 311.594 192.486 311.554 192.401 311.49C192.317 311.427 192.25 311.342 192.209 311.245C190.403 307.321 189.19 303.15 188.611 298.87C188.345 296.661 188.533 294.421 189.166 292.289C189.496 291.207 189.986 290.181 190.622 289.246C190.931 288.775 191.273 288.327 191.645 287.905L192.215 287.288C192.386 287.099 192.555 286.934 192.719 286.734C194.033 285.11 195.262 283.418 196.4 281.665C197.574 279.911 198.712 278.127 199.835 276.332C202.101 272.788 204.05 269.051 205.66 265.164C206.476 263.215 207.147 261.261 207.877 259.234C208.612 257.226 209.41 255.24 210.297 253.29C211.175 251.33 212.171 249.425 213.279 247.585C213.839 246.66 214.446 245.765 215.097 244.902C215.712 244.033 216.347 243.238 216.882 242.328C219.048 238.706 220.885 234.898 222.371 230.949C223.926 227.011 225.34 223.006 226.56 218.943C226.563 218.934 226.567 218.925 226.573 218.918C226.579 218.91 226.586 218.904 226.594 218.899C226.603 218.895 226.612 218.892 226.621 218.891C226.631 218.89 226.64 218.89 226.649 218.893C226.667 218.898 226.683 218.91 226.692 218.927C226.702 218.943 226.704 218.962 226.7 218.981C225.646 223.098 224.412 227.166 222.999 231.185C221.607 235.228 219.856 239.139 217.766 242.869C217.22 243.798 216.626 244.699 215.988 245.568C215.375 246.411 214.805 247.284 214.281 248.185C213.231 250.002 212.291 251.88 211.467 253.81C210.63 255.74 209.879 257.71 209.189 259.701C208.525 261.682 207.839 263.754 207.011 265.721C205.385 269.69 203.413 273.507 201.117 277.13C199.996 278.939 198.856 280.738 197.676 282.517C196.505 284.327 195.225 286.065 193.842 287.719C193.667 287.928 193.456 288.135 193.267 288.336L192.752 288.884C192.419 289.255 192.112 289.649 191.834 290.062C191.266 290.88 190.826 291.778 190.528 292.728C189.934 294.674 189.745 296.721 189.974 298.743C190.181 300.813 190.596 302.856 191.211 304.843C191.807 306.857 192.508 308.838 193.311 310.779L192.268 310.671C193.133 309.497 194.113 308.414 195.195 307.436C196.274 306.428 197.519 305.612 198.875 305.026C199.587 304.715 200.352 304.549 201.128 304.536C201.935 304.544 202.72 304.798 203.379 305.262C204.031 305.717 204.543 306.343 204.86 307.072C205.146 307.787 205.258 308.561 205.188 309.329C205.123 312.169 204.836 315 204.33 317.796C204.201 318.449 204.243 319.124 204.452 319.756C204.661 320.388 205.03 320.955 205.523 321.403C206.017 321.85 206.617 322.161 207.267 322.308C207.916 322.454 208.592 322.429 209.23 322.237C209.858 322.043 210.4 321.635 210.761 321.086C211.09 320.493 211.322 319.851 211.449 319.185C211.726 317.819 211.803 316.42 211.678 315.032C211.619 314.336 211.524 313.643 211.394 312.957C211.334 312.6 211.238 312.309 211.176 311.908C211.126 311.544 211.107 311.176 211.121 310.809C211.176 309.337 211.664 307.913 212.524 306.717C213.363 305.624 213.862 304.309 213.959 302.935C214.123 301.553 214.148 300.158 214.034 298.772C213.928 297.387 213.691 296.015 213.324 294.676C213.003 293.365 212.422 292.132 211.614 291.051C211.548 290.971 211.51 290.873 211.504 290.77C211.498 290.667 211.524 290.564 211.58 290.478L211.584 290.473L220.97 275.941C224.046 271.064 227.194 266.232 230.209 261.318C233.206 256.394 236.2 251.468 239.042 246.456C241.796 241.407 244.653 236.367 246.49 230.903L246.492 230.898C246.498 230.88 246.51 230.865 246.527 230.857C246.544 230.848 246.563 230.846 246.581 230.852C246.599 230.857 246.615 230.87 246.624 230.886C246.633 230.903 246.635 230.922 246.63 230.94L246.63 230.94Z" fill="black"/>
<path d="M361.233 272.392C363.551 269.881 365.806 267.319 367.998 264.707C370.186 262.091 372.334 259.444 374.363 256.707C376.435 254.002 378.348 251.183 380.204 248.327C382.033 245.452 383.697 242.48 385.239 239.427C383.956 242.603 382.431 245.676 380.678 248.619C378.91 251.554 376.979 254.388 374.942 257.142C372.854 259.856 370.704 262.523 368.418 265.07C366.147 267.63 363.749 270.073 361.233 272.392Z" fill="black"/>
<path d="M405.331 262.85C405.105 260.547 404.702 258.265 404.126 256.023C403.575 253.786 402.841 251.598 401.933 249.481C401.528 248.403 400.993 247.384 400.504 246.343C399.934 245.344 399.406 244.319 398.771 243.358C397.536 241.402 396.153 239.544 394.633 237.8C396.366 239.366 397.911 241.128 399.237 243.051C400.573 244.976 401.701 247.038 402.601 249.202C403.499 251.364 404.191 253.607 404.667 255.9C405.157 258.183 405.38 260.515 405.331 262.85Z" fill="black"/>
</svg>
