<svg width="700" height="550" viewBox="0 0 700 550" fill="none" xmlns="http://www.w3.org/2000/svg">
<path d="M489.949 330.279C489.949 330.279 467.797 332.631 441.105 308.572C441.105 308.572 437.215 324.84 434.612 328.982C432.687 332.904 429.763 336.248 426.134 338.679C410.282 348.928 387.259 335.815 380.01 332.011C376.662 330.26 376.158 330.153 363.761 323.485C360.297 321.618 341.87 311.04 341.87 311.04C337.302 309.027 329.483 309.365 329.483 309.365L323.744 318.83C321.526 322.487 318.537 325.614 314.985 327.995C318.827 327.676 322.641 327.434 326.463 327.192C330.276 326.921 334.089 326.689 337.883 326.34C339.789 326.195 341.686 326.001 343.573 325.779C345.461 325.585 347.338 325.305 349.216 325.005C351.083 324.709 352.931 324.306 354.751 323.795C356.594 323.345 358.32 322.507 359.813 321.337C358.546 322.838 356.917 323.99 355.08 324.685C353.28 325.442 351.418 326.044 349.516 326.485C345.747 327.371 341.917 327.967 338.057 328.266C334.205 328.585 330.354 328.74 326.502 328.692C322.653 328.682 318.808 328.45 314.985 327.995H314.976C311.547 330.299 307.668 331.85 303.595 332.544L260.161 340.005C260.161 340.005 270.439 353.215 259.823 380.855C259.823 380.855 281.355 378.677 294.827 382.732C308.288 386.778 328.95 386.778 350.822 378.88C372.694 370.983 384.23 373.006 398.814 375.842C413.398 378.677 466.451 404.401 485.081 357.009C485.081 357.009 491.362 341.621 489.949 330.279ZM268.01 352.819C267.634 352.805 267.278 352.646 267.016 352.376C266.755 352.105 266.609 351.743 266.609 351.367C266.609 350.991 266.755 350.629 267.016 350.358C267.278 350.087 267.634 349.929 268.01 349.915C268.386 349.929 268.742 350.087 269.003 350.358C269.265 350.629 269.411 350.991 269.411 351.367C269.411 351.743 269.265 352.105 269.003 352.376C268.742 352.646 268.386 352.805 268.01 352.819ZM267.081 342.018C267.458 342.031 267.815 342.189 268.077 342.46C268.339 342.731 268.485 343.093 268.485 343.47C268.485 343.847 268.339 344.209 268.077 344.48C267.815 344.751 267.458 344.909 267.081 344.922C266.704 344.909 266.347 344.751 266.085 344.48C265.823 344.209 265.676 343.847 265.676 343.47C265.676 343.093 265.823 342.731 266.085 342.46C266.347 342.189 266.704 342.031 267.081 342.018H267.081ZM264.294 379.297C263.918 379.283 263.561 379.124 263.3 378.854C263.039 378.583 262.893 378.221 262.893 377.845C262.893 377.469 263.039 377.107 263.3 376.836C263.561 376.566 263.918 376.407 264.294 376.393C264.67 376.407 265.026 376.566 265.287 376.836C265.548 377.107 265.694 377.469 265.694 377.845C265.694 378.221 265.548 378.583 265.287 378.854C265.026 379.124 264.67 379.283 264.294 379.297H264.294ZM266.616 371.4C266.24 371.386 265.884 371.227 265.623 370.957C265.362 370.686 265.216 370.324 265.216 369.948C265.216 369.572 265.362 369.21 265.623 368.939C265.884 368.669 266.24 368.51 266.616 368.496C266.992 368.51 267.349 368.669 267.61 368.939C267.871 369.21 268.017 369.572 268.017 369.948C268.017 370.324 267.871 370.686 267.61 370.957C267.348 371.228 266.992 371.386 266.616 371.4ZM268.242 361.645C267.866 361.631 267.51 361.472 267.249 361.202C266.987 360.931 266.841 360.569 266.841 360.193C266.841 359.817 266.987 359.455 267.249 359.184C267.51 358.913 267.866 358.755 268.242 358.741C268.618 358.755 268.974 358.913 269.236 359.184C269.497 359.455 269.643 359.817 269.643 360.193C269.643 360.569 269.497 360.931 269.236 361.202C268.974 361.472 268.618 361.631 268.242 361.645H268.242Z" fill="#020202"/>
<path d="M407.456 284.039C408.1 284.978 408.879 285.816 409.769 286.526C409.44 286.439 406.779 285.684 406.895 284.726V284.668C406.997 284.396 407.197 284.171 407.456 284.039Z" fill="#020202"/>
<path d="M489.213 286.778C488.539 275.969 486.483 265.292 483.097 255.006C477.02 236.705 471.184 229.689 471.184 229.689C471.184 229.689 468.803 232.795 465.697 230.589C462.59 228.382 453.89 225.402 453.89 225.402C438.744 221.376 433.237 227.811 433.237 227.811C430.502 231.548 427.552 235.121 424.402 238.515C425.701 237.592 427.1 236.819 428.573 236.212C430.589 235.351 432.735 234.834 434.921 234.683C436.038 234.618 437.158 234.68 438.26 234.866C439.372 235.07 440.451 235.428 441.464 235.931C443.442 236.939 445.037 238.567 446.002 240.567C444.582 239.133 442.86 238.035 440.962 237.35C439.063 236.665 437.036 236.412 435.028 236.608C433.007 236.743 431.006 237.086 429.057 237.634C427.247 238.128 425.428 238.718 423.599 239.376L423.589 239.386C412.914 250.583 405.085 253.815 405.085 253.815C401.678 267.964 403.527 276.5 405.84 281.29C405.84 280.932 405.869 280.574 405.888 280.216C406.046 278.593 406.318 276.982 406.701 275.397C407.468 272.25 408.418 269.151 409.546 266.116C410.679 263.096 411.898 260.106 413.253 257.183C414.584 254.243 416.073 251.378 417.714 248.599C415.827 254.783 413.543 260.774 411.366 266.783C410.253 269.784 409.169 272.784 408.163 275.803C407.669 277.313 407.185 278.832 406.827 280.371C406.649 281.057 406.523 281.756 406.45 282.461C406.755 283.006 407.091 283.532 407.456 284.039C408.517 283.501 409.657 283.135 410.834 282.955C419.069 281.271 466.887 290.949 444.425 296.097L443.186 300.917C474.387 311.659 491.362 297.675 491.362 297.675C490.133 296.059 489.513 291.336 489.213 286.778ZM411.143 279.655C410.767 279.642 410.411 279.483 410.15 279.212C409.888 278.941 409.742 278.58 409.742 278.203C409.742 277.827 409.888 277.465 410.15 277.195C410.411 276.924 410.767 276.765 411.143 276.752C411.519 276.765 411.876 276.924 412.137 277.195C412.398 277.465 412.544 277.827 412.544 278.203C412.544 278.58 412.398 278.941 412.137 279.212C411.876 279.483 411.519 279.642 411.143 279.655ZM418.982 280.178C418.606 280.164 418.25 280.005 417.989 279.735C417.727 279.464 417.581 279.102 417.581 278.726C417.581 278.35 417.727 277.988 417.989 277.717C418.25 277.447 418.606 277.288 418.982 277.274C419.358 277.288 419.714 277.447 419.976 277.717C420.237 277.988 420.383 278.35 420.383 278.726C420.383 279.102 420.237 279.464 419.976 279.735C419.714 280.005 419.358 280.164 418.982 280.178V280.178ZM427.17 281.571C426.794 281.558 426.437 281.399 426.176 281.128C425.915 280.857 425.769 280.496 425.769 280.12C425.769 279.743 425.915 279.382 426.176 279.111C426.437 278.84 426.794 278.681 427.17 278.668C427.546 278.681 427.902 278.84 428.163 279.111C428.424 279.382 428.57 279.743 428.57 280.12C428.57 280.496 428.424 280.857 428.163 281.128C427.902 281.399 427.546 281.558 427.17 281.571ZM435.705 283.139C435.329 283.126 434.973 282.967 434.712 282.696C434.45 282.425 434.304 282.064 434.304 281.687C434.304 281.311 434.45 280.949 434.712 280.679C434.973 280.408 435.329 280.249 435.705 280.236C436.081 280.249 436.438 280.408 436.699 280.679C436.96 280.949 437.106 281.311 437.106 281.687C437.106 282.064 436.96 282.425 436.699 282.696C436.438 282.967 436.081 283.126 435.705 283.139ZM454.258 267.355C454.132 269.387 454.035 271.429 453.832 273.452L453.464 276.49C453.348 277.497 453.212 278.503 453.019 279.51C452.661 281.503 452.332 283.516 451.877 285.491C451.403 287.475 450.928 289.449 450.367 291.394C450.503 289.362 450.725 287.349 450.938 285.346C451.17 283.333 451.296 281.32 451.519 279.316C451.886 275.3 452.177 271.293 452.322 267.287C452.472 263.292 452.385 259.291 452.061 255.306C451.935 254.319 451.877 253.312 451.693 252.335L451.461 250.854C451.364 250.37 451.248 249.886 451.141 249.403C450.769 247.431 450.058 245.538 449.041 243.809C449.762 244.54 450.361 245.383 450.812 246.306C451.064 246.756 451.287 247.221 451.48 247.699C451.696 248.166 451.887 248.644 452.051 249.132C452.729 251.073 453.231 253.071 453.551 255.103C454.163 259.156 454.399 263.258 454.258 267.355V267.355Z" fill="#020202"/>
<path d="M405.085 253.815C404.876 254.298 404.696 254.793 404.543 255.296C404.582 254.88 404.611 254.464 404.63 254.038C404.921 253.903 405.085 253.815 405.085 253.815Z" fill="#020202"/>
<path d="M409.924 285.955L406.372 302.785L404.572 312.666L402.453 312.153C384.413 308.349 354.664 295.372 354.664 295.372L347.822 286.536C352.09 287.542 353.396 282.762 353.396 282.762C358.361 284.01 358.545 278.92 358.545 278.92C362.91 279.365 362.145 273.142 362.145 273.142C366.8 273.655 365.3 268.206 365.3 268.206C360.814 263.791 358.234 257.796 358.109 251.503C357.839 251.478 357.567 251.478 357.296 251.503C357.296 251.503 371.058 227.928 383.581 232.467L396.114 237.005C394.661 239.942 393.878 243.165 393.82 246.441C394.962 257.038 401.872 255.18 404.272 254.193C403.582 256.114 403.038 258.084 402.646 260.087C402.16 262.474 401.853 264.893 401.727 267.326C401.698 268.545 401.698 269.764 401.756 270.994C401.837 272.227 402.005 273.452 402.259 274.661C402.506 275.891 402.916 277.082 403.478 278.203C403.914 279.076 404.516 279.855 405.249 280.497C405.339 280.58 405.432 280.657 405.53 280.729L405.54 280.739C406.45 281.581 409.924 285.955 409.924 285.955Z" fill="#020202"/>
<path d="M373.997 179.565C374.144 181.445 374.39 183.317 374.734 185.172C375.063 187.002 375.538 188.804 376.152 190.559C376.453 191.42 376.812 192.26 377.226 193.073C377.729 194.005 378.025 195.034 378.095 196.091C378.252 198.127 377.943 200.172 377.192 202.072L377.169 202.118L377.142 202.167C376.877 202.647 376.69 203.166 376.588 203.705C376.536 203.901 376.524 204.105 376.552 204.306C376.58 204.507 376.648 204.7 376.752 204.875C377.043 205.182 377.427 205.384 377.844 205.451C378.126 205.475 378.394 205.528 378.685 205.542L379.583 205.538L379.639 205.537C379.814 205.537 379.984 205.585 380.133 205.675C380.282 205.766 380.403 205.896 380.482 206.05C380.849 206.768 381.284 207.505 381.726 208.199C382.15 208.891 382.633 209.544 383.17 210.152C383.423 210.437 383.703 210.697 384.007 210.927C384.379 211.208 384.732 211.515 385.063 211.844C385.738 212.511 386.312 213.274 386.765 214.108L386.718 214.031C387.277 214.828 387.928 215.558 388.657 216.203C389.388 216.857 390.219 217.39 391.118 217.781C392.026 218.169 393.015 218.332 393.999 218.257C395.019 218.166 396.012 217.88 396.924 217.413C396.081 218.061 395.108 218.519 394.071 218.755C392.996 218.989 391.879 218.945 390.825 218.628C389.774 218.304 388.786 217.802 387.905 217.144C387.009 216.496 386.209 215.726 385.528 214.856L385.481 214.778C385.054 214.125 384.537 213.534 383.947 213.024C383.652 212.758 383.341 212.511 383.015 212.284C382.62 212.008 382.251 211.694 381.914 211.348C381.279 210.688 380.702 209.974 380.191 209.214C379.687 208.47 379.224 207.699 378.804 206.905L379.702 207.417L378.613 207.437C378.244 207.425 377.856 207.365 377.478 207.326C376.579 207.182 375.764 206.713 375.186 206.01C374.933 205.625 374.761 205.194 374.679 204.741C374.597 204.288 374.608 203.823 374.71 203.375C374.859 202.61 375.135 201.876 375.528 201.203L375.478 201.298C376.129 199.669 376.44 197.924 376.392 196.17C376.363 195.331 376.168 194.507 375.818 193.744C375.432 192.843 375.108 191.916 374.847 190.971C374.349 189.108 374.036 187.2 373.915 185.276C373.776 183.373 373.803 181.462 373.997 179.565Z" fill="#020202"/>
<path d="M374.333 179.944C377.057 181.342 379.871 182.731 382.684 184.009C385.45 185.347 388.344 186.401 391.323 187.154C391.672 187.222 392.026 187.257 392.382 187.259C392.704 187.249 393.002 187.156 393.027 187.071C393.033 187.018 393.04 187.086 393.083 186.953L393.196 186.646C393.269 186.438 393.363 186.238 393.476 186.049C393.698 185.659 393.982 185.308 394.318 185.011C395 184.448 395.823 184.083 396.697 183.955C397.124 183.885 397.557 183.862 397.989 183.885C398.464 183.948 398.921 184.108 399.332 184.353C400.054 184.834 400.665 185.463 401.125 186.199C401.585 186.935 401.883 187.76 401.998 188.619C402.265 190.224 402.296 191.86 402.088 193.473L402.094 193.348C402.148 194.407 402.109 195.468 401.976 196.52C401.913 197.09 401.774 197.648 401.563 198.181C401.504 198.339 401.426 198.49 401.331 198.628C401.281 198.704 401.239 198.778 401.18 198.854C401.106 198.932 401.027 199.009 400.946 199.082C400.765 199.244 400.547 199.361 400.31 199.421C400.07 199.466 399.824 199.468 399.584 199.426L400.427 199.04C398.21 203.744 397.32 208.965 397.852 214.139C398.002 215.379 398.282 216.768 398.426 218.096C398.589 219.439 398.704 220.793 398.742 222.151C398.779 223.512 398.748 224.873 398.648 226.231C398.546 227.6 398.356 228.926 398.177 230.252C397.843 232.938 397.319 235.597 396.608 238.209C396.411 238.898 396.15 239.567 395.828 240.206L395.305 241.077C395.157 241.338 395.026 241.608 394.914 241.885C394.465 243.023 394.289 244.25 394.397 245.468C394.717 247.918 395.481 250.587 397.167 252.352C398 253.241 399.113 253.817 400.319 253.985C401.57 254.135 402.838 254.016 404.038 253.636C406.526 252.816 408.868 251.606 410.976 250.051C413.129 248.508 415.18 246.827 417.116 245.018C421.019 241.408 424.689 237.554 428.105 233.479C429.845 231.449 431.486 229.412 433.204 227.319C434.152 226.312 435.289 225.5 436.549 224.931C437.168 224.64 437.801 224.384 438.448 224.163C439.108 224 439.76 223.777 440.431 223.666C441.104 223.575 441.775 223.435 442.451 223.385L444.487 223.296C445.841 223.322 447.191 223.438 448.529 223.646C449.195 223.758 449.87 223.836 450.529 223.978L452.493 224.465C453.8 224.794 455.089 225.19 456.356 225.651C457.652 226.036 458.859 226.632 460.11 227.128C461.368 227.614 462.562 228.228 463.764 228.827L465.569 229.723L466.021 229.947C466.157 230.009 466.275 230.073 466.407 230.127C466.666 230.234 466.937 230.312 467.213 230.359C467.757 230.462 468.316 230.439 468.849 230.292C469.383 230.145 469.875 229.877 470.288 229.51C470.692 229.111 471.017 228.638 471.244 228.118C471.377 227.86 471.478 227.587 471.548 227.305L471.664 226.889L471.712 226.459C471.799 225.273 471.576 224.084 471.066 223.01C469.856 220.764 468.229 218.771 466.272 217.136C462.24 213.755 457.846 210.83 453.172 208.413C448.423 205.824 443.99 202.691 439.964 199.079C437.954 197.271 436.056 195.342 434.28 193.303C432.492 191.276 430.831 189.14 429.305 186.908C427.771 184.683 426.369 182.369 425.109 179.978C424.494 178.775 423.874 177.574 423.334 176.335C423.053 175.721 422.769 175.104 422.51 174.492L421.662 172.736L420.824 170.975L419.81 169.32C419.459 168.777 419.16 168.195 418.768 167.683L417.575 166.16L416.98 165.397L416.301 164.713L414.942 163.343L413.435 162.147C412.941 161.739 412.41 161.376 411.85 161.064C407.454 158.314 402.196 157.289 397.09 158.187L397.241 158.129C394.76 159.439 392.307 160.858 389.906 162.335C387.505 163.818 385.151 165.377 382.887 167.056C380.596 168.689 378.468 170.54 376.532 172.582C375.578 173.601 374.788 174.762 374.191 176.024C373.884 176.637 373.736 177.317 373.761 178.002C373.786 178.687 373.983 179.355 374.333 179.944ZM374.204 180.088C373.792 179.476 373.544 178.769 373.483 178.034C373.422 177.3 373.549 176.561 373.854 175.89C374.417 174.56 375.184 173.326 376.129 172.234C378.01 170.081 380.096 168.114 382.357 166.363C384.598 164.6 386.931 162.963 389.311 161.4C391.696 159.841 394.112 158.352 396.607 156.945L396.613 156.942C396.659 156.916 396.707 156.898 396.758 156.886C399.472 156.312 402.272 156.269 405.002 156.758C407.731 157.226 410.346 158.208 412.709 159.65C413.317 159.979 413.895 160.359 414.437 160.788L416.079 162.05L417.561 163.49L418.299 164.213L418.948 165.013L420.245 166.615C420.67 167.154 420.998 167.757 421.378 168.326L422.478 170.06L423.391 171.89L424.293 173.727C424.555 174.34 424.831 174.931 425.106 175.528C425.635 176.73 426.242 177.894 426.844 179.06C428.076 181.378 429.445 183.621 430.944 185.777C432.433 187.939 434.054 190.007 435.798 191.969C437.529 193.942 439.378 195.809 441.336 197.557C445.234 201.082 449.516 204.159 454.101 206.728C458.876 209.256 463.355 212.305 467.459 215.818C469.583 217.627 471.326 219.841 472.586 222.33C473.198 223.683 473.444 225.172 473.299 226.65L473.222 227.21C473.177 227.393 473.118 227.573 473.065 227.754C472.966 228.117 472.828 228.468 472.653 228.801C472.33 229.497 471.876 230.124 471.316 230.647C470.724 231.162 470.023 231.533 469.265 231.734C468.507 231.934 467.713 231.957 466.945 231.802C466.566 231.729 466.196 231.616 465.841 231.463C465.666 231.389 465.491 231.292 465.328 231.21L464.89 230.979L463.139 230.055C461.972 229.436 460.811 228.801 459.593 228.296C458.382 227.781 457.206 227.161 455.953 226.757C454.728 226.275 453.479 225.857 452.211 225.504L450.309 224.986C449.67 224.833 449.02 224.745 448.376 224.621C447.087 224.392 445.783 224.25 444.475 224.197L442.517 224.24C441.866 224.273 441.225 224.395 440.577 224.467C437.996 224.808 435.593 225.97 433.721 227.779C432.045 229.791 430.325 231.889 428.582 233.889C425.112 237.949 421.441 241.832 417.583 245.523C415.644 247.373 413.588 249.096 411.427 250.681C409.282 252.352 406.885 253.669 404.326 254.585C402.991 255.044 401.573 255.21 400.168 255.073C398.708 254.905 397.349 254.246 396.313 253.205C395.318 252.187 394.547 250.972 394.05 249.638C393.535 248.341 393.178 246.987 392.988 245.605C392.823 244.161 392.997 242.7 393.497 241.336C393.625 240.992 393.776 240.658 393.949 240.335L394.433 239.481C394.691 238.921 394.905 238.342 395.073 237.749C395.737 235.213 396.221 232.632 396.523 230.028C397.271 224.815 397.161 219.515 396.197 214.337C395.9 211.603 396.019 208.839 396.55 206.14C397.06 203.446 397.914 200.829 399.091 198.352L399.934 197.965C399.98 197.931 399.931 197.999 399.98 197.941C399.992 197.927 400.007 197.916 400.024 197.909L400.08 197.817C400.131 197.749 400.171 197.673 400.198 197.592C400.36 197.181 400.468 196.751 400.519 196.313C400.645 195.352 400.693 194.383 400.665 193.415L400.664 193.386C400.664 193.354 400.666 193.322 400.67 193.29C400.897 191.823 400.909 190.331 400.708 188.861C400.642 188.174 400.431 187.509 400.089 186.909C399.747 186.31 399.282 185.789 398.724 185.383C398.47 185.224 398.191 185.111 397.898 185.047C397.554 185.022 397.208 185.032 396.867 185.079C396.193 185.158 395.553 185.418 395.015 185.833C394.764 186.045 394.549 186.298 394.38 186.58C394.29 186.722 394.214 186.872 394.155 187.03L394.06 187.267C394.003 187.406 393.934 187.541 393.853 187.668C393.671 187.87 393.444 188.027 393.192 188.128C392.939 188.229 392.666 188.27 392.395 188.248C391.973 188.238 391.554 188.188 391.142 188.097C389.602 187.725 388.101 187.207 386.659 186.55C385.222 185.931 383.813 185.262 382.42 184.565C379.625 183.166 376.919 181.693 374.204 180.088V180.088Z" fill="#020202"/>
<path d="M383.423 211.54C384.009 213.325 384.272 215.2 384.198 217.078C384.186 219.043 383.685 220.975 382.741 222.699C382.219 223.379 381.756 224.102 381.358 224.861C381.048 225.608 380.863 226.4 380.812 227.207C380.738 228.98 380.936 230.754 381.398 232.467C380.198 230.962 379.468 229.137 379.302 227.219C379.209 226.202 379.326 225.176 379.647 224.205C380.016 223.313 380.499 222.472 381.082 221.702C381.885 220.208 382.432 218.59 382.702 216.916C383.028 215.182 383.226 213.39 383.423 211.54Z" fill="#020202"/>
<path d="M341.429 278.904C341.069 278.342 340.763 277.746 340.515 277.127C340.257 276.5 340.076 275.844 339.976 275.173C339.837 274.427 339.972 273.655 340.357 273.001C340.826 272.348 341.533 271.907 342.326 271.772L342.187 271.811C342.494 271.662 342.749 271.426 342.921 271.132C342.973 271.027 342.993 270.909 342.979 270.793C342.969 270.73 342.952 270.669 342.927 270.61L342.805 270.307C342.581 269.747 342.499 269.141 342.566 268.542C342.633 267.942 342.847 267.369 343.19 266.872C343.542 266.38 344.007 265.978 344.545 265.701C345.012 265.481 345.498 265.305 345.997 265.176C346.254 265.113 346.479 264.96 346.632 264.745C346.66 264.677 346.667 264.602 346.654 264.53C346.636 264.423 346.6 264.32 346.547 264.226C346.493 264.151 346.455 264.066 346.436 263.976L346.431 263.954C346.224 263.019 346.235 262.048 346.463 261.118C346.596 260.615 346.824 260.143 347.136 259.728C347.469 259.309 347.895 258.972 348.38 258.745C348.795 258.56 349.232 258.425 349.679 258.343C350.001 258.275 350.31 258.157 350.595 257.993C350.826 257.87 351.012 257.677 351.125 257.44C351.218 257.21 351.232 256.957 351.167 256.718L351.123 256.556C351.111 256.51 351.108 256.461 351.115 256.414C351.244 255.581 351.503 254.773 351.884 254.021C352.255 253.262 352.79 252.594 353.45 252.065C354.108 251.534 354.903 251.199 355.744 251.101C356.15 251.046 356.561 251.029 356.97 251.049C357.375 251.073 357.77 251.156 358.17 251.209C358.239 251.218 358.302 251.253 358.347 251.307C358.391 251.361 358.414 251.43 358.41 251.5L358.408 251.529C358.337 253.063 358.479 254.599 358.832 256.093C359.164 257.594 359.676 259.049 360.355 260.428C361.012 261.804 361.822 263.102 362.769 264.297C363.702 265.488 364.735 266.598 365.856 267.615C365.955 267.708 366.029 267.824 366.072 267.952C366.311 268.653 366.461 269.381 366.517 270.119C366.596 270.942 366.453 271.77 366.102 272.518C365.981 272.722 365.848 272.918 365.704 273.105C365.53 273.274 365.349 273.441 365.16 273.592C364.955 273.705 364.744 273.814 364.53 273.914C364.322 273.986 364.109 274.043 363.892 274.083C363.489 274.155 363.078 274.182 362.669 274.164C362.292 274.124 361.922 274.067 361.548 274.015L362.706 272.9C362.837 273.655 362.896 274.422 362.882 275.188C362.878 276.001 362.735 276.807 362.459 277.571C362.133 278.488 361.458 279.238 360.581 279.659C359.727 279.994 358.792 280.063 357.898 279.857L359.146 278.86C359.108 279.617 358.949 280.364 358.674 281.07C358.391 281.842 357.903 282.523 357.263 283.04C356.583 283.568 355.738 283.838 354.878 283.802C354.492 283.791 354.107 283.744 353.73 283.661C353.377 283.563 353.036 283.446 352.692 283.335L353.896 282.593C353.763 283.4 353.51 284.182 353.144 284.913C352.77 285.715 352.165 286.388 351.408 286.846C351.007 287.066 350.567 287.203 350.113 287.248C349.658 287.293 349.2 287.246 348.764 287.11C348.373 286.989 347.992 286.837 347.625 286.655L346.637 286.035C346.522 285.963 346.436 285.852 346.394 285.723C346.167 285.081 345.875 284.463 345.525 283.878C345.172 283.269 344.763 282.69 344.345 282.111C343.916 281.536 343.458 280.985 342.971 280.458C342.489 279.935 341.962 279.414 341.429 278.904ZM341.577 278.78C342.184 279.183 342.767 279.62 343.324 280.088C343.891 280.564 344.433 281.069 344.947 281.601C345.465 282.141 345.942 282.717 346.377 283.325C346.836 283.95 347.228 284.62 347.547 285.327L347.304 285.015L348.196 285.465C348.487 285.573 348.786 285.661 349.09 285.727C349.347 285.795 349.615 285.811 349.878 285.773C350.141 285.734 350.393 285.643 350.62 285.504C351.076 285.173 351.426 284.717 351.628 284.19C351.873 283.613 352.034 283.004 352.105 282.382C352.118 282.256 352.159 282.134 352.224 282.025C352.288 281.915 352.375 281.821 352.479 281.749C352.583 281.676 352.702 281.626 352.826 281.603C352.951 281.579 353.079 281.583 353.203 281.613L353.308 281.64L354.111 281.842C354.36 281.88 354.612 281.896 354.864 281.889C355.292 281.901 355.709 281.758 356.041 281.488C356.385 281.182 356.64 280.789 356.781 280.351C356.953 279.86 357.051 279.345 357.072 278.825C357.076 278.688 357.107 278.553 357.163 278.427C357.219 278.302 357.3 278.189 357.399 278.095C357.499 278.001 357.616 277.927 357.745 277.878C357.873 277.83 358.009 277.806 358.147 277.81L358.241 277.817L358.32 277.827C358.79 277.941 359.281 277.922 359.74 277.772C359.931 277.674 360.1 277.539 360.238 277.375C360.376 277.211 360.48 277.022 360.544 276.817C360.746 276.271 360.861 275.697 360.883 275.115C360.914 274.489 360.887 273.862 360.803 273.241C360.782 273.087 360.797 272.93 360.848 272.783C360.899 272.636 360.983 272.502 361.095 272.394C361.206 272.285 361.341 272.204 361.49 272.157C361.638 272.111 361.795 272.099 361.949 272.124L361.96 272.126L362.803 272.268C363.054 272.285 363.307 272.277 363.556 272.244C363.752 272.239 363.942 272.183 364.109 272.081C364.276 271.98 364.414 271.837 364.509 271.666C364.867 270.631 364.872 269.507 364.524 268.468L364.74 268.806C363.596 267.669 362.572 266.416 361.685 265.068C360.805 263.728 360.067 262.3 359.485 260.806C358.904 259.324 358.47 257.79 358.189 256.224C357.886 254.66 357.759 253.068 357.81 251.477L358.048 251.797C357.325 251.648 356.581 251.634 355.853 251.757C355.147 251.869 354.492 252.192 353.972 252.683C353.461 253.178 353.066 253.779 352.815 254.444C352.554 255.107 352.396 255.805 352.345 256.515L352.293 256.212C352.527 256.736 352.564 257.328 352.394 257.877C352.219 258.406 351.877 258.865 351.42 259.185C350.693 259.612 349.92 259.954 349.115 260.203C348.863 260.344 348.644 260.537 348.474 260.77C348.304 261.002 348.186 261.269 348.129 261.552C347.989 262.212 347.985 262.894 348.118 263.555L348.002 263.285C348.195 263.602 348.317 263.958 348.358 264.328C348.406 264.733 348.334 265.143 348.152 265.507C347.799 266.116 347.221 266.563 346.542 266.751C346.113 266.852 345.692 266.986 345.284 267.154C344.957 267.297 344.671 267.517 344.448 267.795C344.235 268.084 344.095 268.419 344.039 268.774C343.984 269.128 344.014 269.49 344.127 269.83L344.246 270.204C344.295 270.373 344.323 270.547 344.33 270.723C344.339 271.087 344.245 271.447 344.058 271.761C343.722 272.287 343.225 272.691 342.641 272.913C342.601 272.93 342.559 272.943 342.515 272.949L342.503 272.951C341.998 272.981 341.524 273.203 341.177 273.571C340.862 274.025 340.709 274.572 340.742 275.124C340.753 275.747 340.839 276.366 340.997 276.969C341.156 277.583 341.349 278.188 341.577 278.78Z" fill="#020202"/>
<path d="M349.806 264.869C350.407 266.146 350.923 267.461 351.352 268.806C351.577 269.475 351.76 270.158 351.935 270.849C352.026 271.179 352.075 271.599 352.172 271.82C352.281 272.111 352.427 272.388 352.605 272.642C353.389 273.761 354.263 274.813 355.221 275.788L358.109 278.842C356.902 278.104 355.761 277.264 354.696 276.332C353.591 275.409 352.613 274.342 351.789 273.161C351.574 272.836 351.401 272.485 351.275 272.116C351.173 271.763 351.095 271.403 351.042 271.04C350.923 270.361 350.762 269.684 350.626 269C350.326 267.637 350.048 266.261 349.806 264.869Z" fill="#020202"/>
<path d="M345.426 270.85C345.975 271.927 346.406 273.059 346.711 274.228C346.792 274.519 346.867 274.813 346.928 275.109C346.996 275.355 347.097 275.59 347.228 275.809C347.509 276.297 347.837 276.756 348.207 277.18C348.938 278.076 349.757 278.925 350.564 279.79C351.379 280.649 352.203 281.507 353 282.415C351.957 281.813 350.969 281.119 350.048 280.341C349.11 279.572 348.243 278.719 347.459 277.793C347.055 277.31 346.705 276.785 346.415 276.225C346.264 275.918 346.156 275.592 346.095 275.256L345.975 274.381L345.426 270.85Z" fill="#020202"/>
<path d="M354.666 261.021C355.83 263.101 356.833 265.208 357.941 267.256C358.477 268.288 359.05 269.296 359.661 270.278C360.26 271.279 360.961 272.215 361.754 273.071C360.695 272.488 359.771 271.685 359.047 270.717C358.298 269.781 357.642 268.774 357.087 267.711C356.529 266.659 356.044 265.571 355.634 264.453C355.211 263.339 354.887 262.191 354.666 261.021Z" fill="#020202"/>
<path d="M446.094 289.596C445.388 293.13 444.573 296.637 443.727 300.139C442.879 303.639 442.005 307.134 441.053 310.609C440.108 314.084 439.131 317.552 438.122 321.011C437.59 322.744 437.149 324.454 436.536 326.205C435.95 327.96 435.169 329.644 434.207 331.224C432.298 334.44 429.626 337.136 426.427 339.074C423.231 340.97 419.695 342.223 416.018 342.76C412.381 343.316 408.686 343.377 405.033 342.94C404.122 342.839 403.214 342.712 402.309 342.552C401.387 342.363 400.475 342.127 399.576 341.845L397.007 340.878L394.503 339.813C381.334 333.816 368.821 326.692 356.213 319.73C353.069 317.973 349.958 316.161 346.851 314.334C346.078 313.869 345.296 313.427 344.535 312.931C343.797 312.437 343.034 311.982 342.25 311.565C340.642 310.827 338.933 310.332 337.18 310.097C333.618 309.703 330.029 309.606 326.451 309.809C325.996 309.81 325.54 309.807 325.074 309.776C324.575 309.764 324.08 309.673 323.61 309.507C323.456 309.446 323.315 309.359 323.193 309.248L322.935 309.009L322.446 308.547L321.466 307.623L317.551 303.928L317.518 303.894C317.221 303.56 316.954 303.201 316.718 302.822C316.479 302.429 316.288 302.009 316.151 301.571C316.014 301.117 315.949 300.646 315.957 300.172C315.961 299.668 316.074 299.17 316.287 298.712L316.374 299.391C315.944 298.912 315.601 298.362 315.36 297.766C315.125 297.208 314.938 296.632 314.802 296.042C314.53 294.888 314.365 293.711 314.31 292.526L314.421 292.88C313.871 292.02 313.534 291.04 313.439 290.024C313.387 289.537 313.37 289.048 313.389 288.559C313.406 288.065 313.462 287.572 313.556 287.086L314.247 287.973C312.758 287.915 311.295 287.561 309.944 286.932C309.28 286.632 308.637 286.286 308.02 285.898C307.395 285.507 306.799 285.071 306.238 284.592C306.211 284.569 306.187 284.544 306.164 284.517L306.154 284.504C305.588 283.853 305.167 283.091 304.918 282.265C304.781 281.765 304.781 281.238 304.918 280.738C305.073 280.22 305.381 279.762 305.8 279.421C306.196 279.112 306.66 278.901 307.153 278.805C307.646 278.709 308.155 278.731 308.639 278.869L310.802 279.397L319.448 281.536L318.363 282.692C317.982 281.5 317.819 280.248 317.883 278.997C317.931 278.354 318.051 277.719 318.241 277.102C318.434 276.393 318.816 275.749 319.345 275.239C319.964 274.695 320.773 274.419 321.595 274.471C322.276 274.523 322.943 274.695 323.564 274.979C324.661 275.49 325.698 276.121 326.656 276.861C327.594 277.56 328.483 278.306 329.348 279.017L329.984 279.522C330.166 279.652 330.358 279.767 330.558 279.867C331.008 280.082 331.478 280.249 331.963 280.366C334.086 280.832 336.26 281.03 338.434 280.954L338.477 280.954C338.538 280.953 338.599 280.96 338.659 280.972C340.961 281.53 343.121 282.561 345.002 284C346.825 285.36 348.526 286.876 350.085 288.532C351.633 290.166 353.088 291.887 354.442 293.685C355.003 294.456 355.747 295.076 356.606 295.491L359.601 296.857C363.626 298.664 367.677 300.405 371.754 302.078C375.757 303.814 379.907 305.189 384.154 306.187L384.207 306.197L384.25 306.208C390.988 308.143 397.718 310.104 404.441 312.092L403.703 312.539L406.949 298.205L410.263 283.885C410.268 283.86 410.283 283.839 410.305 283.825C410.326 283.811 410.352 283.807 410.377 283.812C410.402 283.817 410.423 283.832 410.438 283.853C410.452 283.874 410.457 283.9 410.452 283.925L407.69 298.362L404.861 312.784C404.831 312.936 404.742 313.07 404.614 313.156C404.485 313.242 404.328 313.274 404.176 313.244L404.141 313.236L404.122 313.231C397.343 311.443 390.573 309.624 383.811 307.775L383.907 307.796C381.683 307.386 379.493 306.808 377.356 306.066C375.24 305.358 373.152 304.589 371.077 303.793C366.928 302.198 362.847 300.457 358.798 298.647L355.751 297.27C354.607 296.721 353.613 295.901 352.857 294.882C351.544 293.15 350.134 291.493 348.633 289.92C347.153 288.358 345.54 286.928 343.812 285.646C342.167 284.39 340.281 283.486 338.271 282.99L338.497 283.008C336.127 283.079 333.758 282.84 331.45 282.299C330.833 282.142 330.233 281.92 329.662 281.638C329.356 281.481 329.063 281.299 328.787 281.095C328.54 280.906 328.319 280.721 328.095 280.536C327.213 279.797 326.369 279.076 325.492 278.411C324.659 277.754 323.756 277.189 322.801 276.727C322.39 276.531 321.949 276.407 321.497 276.36C321.337 276.343 321.176 276.359 321.022 276.405C320.869 276.452 320.726 276.529 320.603 276.632C320.05 277.342 319.742 278.213 319.725 279.113C319.666 280.135 319.79 281.16 320.09 282.138L320.094 282.15C320.142 282.304 320.148 282.468 320.111 282.625C320.074 282.782 319.997 282.926 319.885 283.043C319.774 283.159 319.634 283.244 319.479 283.289C319.324 283.333 319.16 283.335 319.004 283.295L310.379 281.072L308.224 280.51C307.995 280.431 307.75 280.407 307.509 280.442C307.269 280.477 307.04 280.568 306.842 280.709C306.669 280.842 306.542 281.027 306.479 281.237C306.416 281.446 306.421 281.67 306.492 281.877C306.677 282.476 306.982 283.032 307.39 283.509L307.306 283.42C307.795 283.847 308.314 284.238 308.858 284.59C309.409 284.949 309.983 285.27 310.577 285.55C311.736 286.115 312.996 286.444 314.283 286.52L314.288 286.52C314.483 286.529 314.667 286.615 314.798 286.759C314.929 286.903 314.998 287.093 314.989 287.288C314.987 287.328 314.982 287.367 314.974 287.407C314.892 287.811 314.839 288.22 314.813 288.631C314.787 289.048 314.791 289.466 314.825 289.883C314.877 290.681 315.117 291.456 315.526 292.144L315.533 292.155C315.597 292.258 315.633 292.376 315.637 292.497C315.663 293.595 315.79 294.688 316.016 295.763C316.184 296.789 316.597 297.76 317.219 298.593L317.223 298.598C317.302 298.689 317.352 298.802 317.367 298.922C317.382 299.043 317.36 299.164 317.306 299.272C317.174 299.569 317.101 299.889 317.089 300.213C317.075 300.567 317.116 300.922 317.21 301.264C317.312 301.617 317.457 301.957 317.641 302.275C317.835 302.603 318.056 302.914 318.302 303.203L318.27 303.169L322.128 306.966L323.092 307.915L323.574 308.389C323.651 308.463 323.744 308.56 323.807 308.614C323.853 308.653 323.905 308.684 323.962 308.705C324.775 308.924 325.616 309.019 326.457 308.99C330.072 308.87 333.69 309.017 337.283 309.429C339.1 309.687 340.869 310.216 342.53 310.996C343.332 311.429 344.112 311.902 344.865 312.414C345.609 312.907 346.39 313.357 347.155 313.825C350.242 315.664 353.39 317.407 356.541 319.139C362.837 322.619 369.207 325.96 375.651 329.162C382.083 332.369 388.549 335.547 395.137 338.338L397.608 339.366L400.098 340.281L401.331 340.617C401.744 340.744 402.165 340.841 402.592 340.906C403.46 341.052 404.337 341.167 405.215 341.257C408.723 341.628 412.264 341.57 415.758 341.084C419.229 340.614 422.575 339.468 425.606 337.713C428.611 335.933 431.13 333.439 432.94 330.452C434.839 327.507 435.779 324.073 436.903 320.639C437.992 317.213 439.05 313.777 440.079 310.332C442.127 303.439 444.115 296.523 445.905 289.554C445.908 289.542 445.913 289.53 445.921 289.52C445.928 289.51 445.938 289.501 445.949 289.495C445.96 289.488 445.972 289.484 445.984 289.482C445.997 289.48 446.01 289.48 446.022 289.483C446.046 289.49 446.067 289.505 446.08 289.526C446.094 289.547 446.098 289.572 446.094 289.596Z" fill="#020202"/>
<path d="M409.823 314.324L404.143 313.125C404.017 313.099 403.906 313.023 403.836 312.915C403.766 312.807 403.741 312.676 403.768 312.55C403.795 312.424 403.87 312.314 403.978 312.243C404.086 312.173 404.217 312.148 404.343 312.175C404.37 312.181 404.396 312.189 404.421 312.198L409.823 314.324Z" fill="#020202"/>
<path d="M319.227 282.415C320.987 282.467 322.739 282.68 324.461 283.052C325.316 283.234 326.168 283.42 327.012 283.645C327.863 283.849 328.686 284.137 329.555 284.31C328.675 284.484 327.772 284.51 326.883 284.389C326.006 284.305 325.133 284.175 324.27 284C322.533 283.667 320.841 283.135 319.227 282.415Z" fill="#020202"/>
<path d="M314.265 287.246C315.621 287.351 316.939 287.742 318.133 288.395C318.74 288.714 319.305 289.109 319.813 289.57C320.356 290.019 320.752 290.62 320.948 291.297C320.462 290.864 319.929 290.487 319.359 290.174C318.806 289.858 318.252 289.541 317.676 289.248C316.5 288.649 315.361 287.981 314.265 287.246Z" fill="#020202"/>
<path d="M314.974 292.512C315.948 292.848 316.854 293.354 317.652 294.005C318.474 294.626 319.179 295.389 319.733 296.258C318.758 295.924 317.851 295.418 317.054 294.765C316.234 294.142 315.529 293.379 314.974 292.512Z" fill="#020202"/>
<path d="M316.796 298.992C317.658 299.222 318.463 299.625 319.164 300.176C319.886 300.698 320.494 301.364 320.948 302.131C320.086 301.903 319.28 301.5 318.58 300.947C317.859 300.423 317.252 299.758 316.796 298.992Z" fill="#020202"/>
<path d="M324.897 306.08C324.597 305.934 324.341 305.71 324.155 305.432C323.969 305.154 323.861 304.832 323.841 304.499C323.771 303.835 323.851 303.165 324.074 302.536L324.061 302.574C324.13 302.252 324.166 301.924 324.168 301.595C324.199 301.352 324.153 301.106 324.039 300.89C323.768 300.564 323.566 300.186 323.448 299.779C323.317 299.394 323.249 298.989 323.248 298.582C323.24 298.158 323.329 297.738 323.508 297.353C323.703 297.061 323.882 296.758 324.043 296.446C324.267 295.783 324.343 295.08 324.266 294.385C324.622 295.069 324.747 295.849 324.624 296.61C324.527 296.97 324.393 297.32 324.226 297.654C324.139 297.943 324.109 298.247 324.137 298.548C324.187 299.168 324.405 299.762 324.767 300.268C325.042 300.668 325.158 301.155 325.094 301.636C325.057 302.03 324.979 302.419 324.862 302.796L324.857 302.814L324.849 302.835C324.738 303.102 324.622 303.368 324.539 303.644C324.457 303.915 324.403 304.195 324.376 304.477C324.338 304.766 324.364 305.061 324.455 305.338C324.545 305.615 324.696 305.869 324.897 306.08Z" fill="#020202"/>
<path d="M316.164 281.642C314.768 280.461 313.416 279.238 312.072 278.006C310.737 276.767 309.401 275.529 308.099 274.257C305.472 271.737 302.911 269.153 300.38 266.54C300.294 266.451 300.225 266.345 300.18 266.23C300.134 266.114 300.111 265.99 300.113 265.866C300.115 265.741 300.142 265.619 300.191 265.504C300.241 265.39 300.312 265.287 300.402 265.2L300.449 265.157L300.465 265.144C301.689 264.115 302.934 263.112 304.181 262.111L304.191 262.103C304.378 261.954 304.615 261.881 304.854 261.9C305.093 261.918 305.316 262.027 305.478 262.204C307.825 264.777 310.111 267.407 312.363 270.067C313.491 271.396 314.601 272.74 315.694 274.101C316.788 275.46 317.87 276.832 318.912 278.239C317.6 277.08 316.326 275.885 315.065 274.679C313.806 273.47 312.562 272.249 311.33 271.015C308.872 268.544 306.447 266.042 304.083 263.484L305.38 263.576C304.152 264.6 302.922 265.623 301.671 266.618L301.756 265.223C304.257 267.863 306.728 270.533 309.133 273.267C310.348 274.622 311.527 276.01 312.708 277.397C313.881 278.793 315.045 280.196 316.164 281.642Z" fill="#020202"/>
<path d="M309.708 257.443C308.842 255.536 308.144 253.556 307.621 251.527C307.057 249.509 306.671 247.446 306.468 245.36C307.336 247.267 308.035 249.247 308.555 251.276C309.118 253.295 309.504 255.358 309.708 257.443Z" fill="#020202"/>
<path d="M318.551 261.426C319.27 260.225 320.142 259.123 321.146 258.148C322.12 257.143 323.222 256.27 324.424 255.553C323.707 256.755 322.835 257.857 321.83 258.832C320.854 259.835 319.752 260.707 318.551 261.426Z" fill="#020202"/>
<path d="M325.639 270.539C326.893 270.199 328.188 270.036 329.487 270.055C330.786 270.034 332.082 270.197 333.335 270.539C332.082 270.881 330.786 271.044 329.487 271.023C328.188 271.042 326.893 270.879 325.639 270.539Z" fill="#020202"/>
<path d="M258.54 343.376C258.646 342.746 258.805 342.127 259.017 341.525C259.131 341.216 259.277 340.921 259.452 340.643C259.637 340.313 259.938 340.064 260.297 339.945C260.499 339.91 260.707 339.927 260.9 339.997C261.093 340.066 261.264 340.185 261.397 340.341C261.64 340.588 261.851 340.864 262.026 341.163C262.354 341.73 262.637 342.323 262.872 342.936C263.757 345.351 264.395 347.851 264.777 350.395C265.377 355.48 265.403 360.615 264.856 365.706C264.589 368.244 264.24 370.775 263.718 373.288C263.446 374.542 263.141 375.793 262.75 377.034C262.392 378.345 261.819 379.588 261.055 380.712C260.793 381.062 260.455 381.348 260.066 381.548C259.803 381.668 259.513 381.716 259.226 381.686C258.955 381.65 258.696 381.549 258.472 381.393C257.887 380.904 257.448 380.265 257.2 379.545C256.742 378.326 256.395 377.069 256.166 375.787C255.73 373.283 255.44 370.756 255.3 368.218C255.867 370.687 256.356 373.169 257.089 375.565C257.409 376.751 257.833 377.906 258.354 379.018C258.555 379.484 258.859 379.898 259.245 380.229C259.392 380.291 259.351 380.274 259.443 380.235C259.6 380.118 259.736 379.974 259.843 379.811C260.419 378.79 260.85 377.694 261.123 376.554C261.449 375.373 261.701 374.156 261.92 372.933C262.372 370.488 262.7 368.006 262.931 365.517C263.193 363.03 263.346 360.53 263.42 358.033C263.512 355.543 263.466 353.05 263.282 350.565C263.195 349.326 262.984 348.126 262.774 346.881C262.558 345.649 262.306 344.425 261.977 343.234C261.825 342.643 261.627 342.065 261.385 341.506C261.153 340.993 260.781 340.391 260.394 340.446C259.959 340.513 259.56 341.128 259.282 341.645C258.985 342.199 258.737 342.779 258.54 343.376Z" fill="#020202"/>
<path d="M441.195 308.543L446.596 312.641L449.386 314.593C450.321 315.235 451.218 315.928 452.194 316.505C454.121 317.695 455.989 318.972 457.991 320.025C458.986 320.558 459.941 321.166 460.954 321.661L463.986 323.163C468.061 325.09 472.271 326.718 476.582 328.034C480.892 329.393 485.393 330.049 489.912 329.976L489.639 330.28C489.664 327.646 489.649 325.012 489.614 322.378C489.59 319.744 489.496 317.11 489.437 314.476L489.213 306.574L489.066 298.672L490.507 299.346C488.825 300.616 486.997 301.682 485.063 302.521L483.635 303.143L482.176 303.678C481.211 304.065 480.203 304.305 479.213 304.608C475.215 305.655 471.097 306.172 466.964 306.146L463.88 306.076C462.855 306.019 461.836 305.873 460.816 305.775C458.766 305.624 456.767 305.15 454.751 304.814C452.748 304.414 450.783 303.842 448.813 303.326L443.034 301.354L443.625 301.041C442.847 303.486 442.04 305.966 441.195 308.543ZM441.009 308.598C441.552 306.075 442.132 303.455 442.742 300.801L442.844 300.356L443.332 300.488L449.152 302.066L452.099 302.666C453.083 302.851 454.047 303.136 455.044 303.24C457.027 303.489 458.993 303.878 460.988 303.944C461.982 304.004 462.975 304.09 463.968 304.131L466.948 304.145C470.908 304.087 474.85 303.586 478.699 302.651C479.646 302.382 480.617 302.176 481.539 301.828L482.938 301.351L484.303 300.791C486.097 300.058 487.802 299.121 489.382 297.998L490.856 296.905L490.823 298.672L490.676 306.574L490.452 314.476C490.393 317.11 490.299 319.744 490.275 322.378C490.24 325.012 490.226 327.646 490.251 330.28L490.253 330.565L489.977 330.585C487.674 330.716 485.364 330.656 483.071 330.405L481.354 330.22L479.649 329.953C478.505 329.802 477.389 329.524 476.259 329.293C471.758 328.274 467.39 326.739 463.241 324.716L460.17 323.135C459.142 322.616 458.179 321.981 457.188 321.397C455.189 320.257 453.326 318.905 451.448 317.587C450.492 316.951 449.611 316.212 448.718 315.493L446.05 313.327C444.308 311.758 442.603 310.128 441.009 308.598Z" fill="#020202"/>
<path d="M472.621 226.513C474.616 227.877 476.48 229.423 478.191 231.13C479.917 232.821 481.552 234.603 483.087 236.47C486.137 240.224 488.879 244.218 491.287 248.413C496.076 256.821 499.812 265.786 502.412 275.107C504.934 284.41 506.742 293.891 507.821 303.469C509.014 313.012 509.733 322.599 509.979 332.23C510.26 341.854 510.051 351.486 509.35 361.089C509.287 362.312 509.176 363.447 509.225 364.596C509.254 365.745 509.375 366.889 509.586 368.019C510.029 370.272 510.833 372.438 511.968 374.434C513.117 376.41 514.587 378.182 516.318 379.675C516.755 380.039 517.208 380.386 517.666 380.723L518.378 381.194L518.735 381.432C518.84 381.495 518.941 381.564 519.037 381.639C519.159 381.783 519.021 381.537 519.344 382.012C520.18 382.438 518.255 384.007 518.465 383.538C518.374 383.544 518.284 383.54 518.195 383.525L518.077 383.505L514.554 382.527C509.989 381.297 505.296 380.605 500.57 380.464C495.848 380.304 491.13 380.878 486.585 382.166C484.318 382.808 482.151 383.73 479.845 384.561C478.719 385.007 477.529 385.295 476.376 385.668C475.205 385.987 474.015 386.26 472.822 386.492C470.419 386.972 467.953 387.045 465.526 386.708C464.92 386.612 464.321 386.475 463.733 386.298C463.148 386.108 462.581 385.866 462.038 385.576C460.928 385.023 460.005 384.156 459.384 383.083C459.372 383.061 459.37 383.035 459.377 383.011C459.384 382.987 459.4 382.967 459.421 382.954C459.443 382.942 459.468 382.939 459.493 382.945C459.517 382.951 459.538 382.966 459.551 382.987L459.559 383.001C460.223 383.972 461.15 384.733 462.232 385.194C462.762 385.441 463.314 385.641 463.879 385.792C464.45 385.931 465.029 386.03 465.613 386.089C467.967 386.274 470.335 386.086 472.63 385.532C473.78 385.259 474.926 384.949 476.055 384.592C477.17 384.18 478.311 383.859 479.401 383.375C481.579 382.495 483.797 381.43 486.145 380.718C490.824 379.268 495.699 378.553 500.597 378.599C505.484 378.647 510.346 379.295 515.075 380.529C515.665 380.678 516.253 380.839 516.836 381.007C517.396 381.164 518.053 381.37 518.491 381.478L518.484 381.476C518.432 381.471 518.379 381.47 518.326 381.473C518.571 381.014 516.698 382.551 517.496 382.943C517.801 383.386 517.628 383.12 517.724 383.238C517.765 383.27 517.696 383.22 517.652 383.195L517.26 382.934L516.472 382.409C515.964 382.036 515.462 381.651 514.98 381.246C513.062 379.601 511.449 377.632 510.213 375.429C508.999 373.227 508.149 370.842 507.699 368.367C507.485 367.133 507.37 365.884 507.356 364.631C507.32 363.379 507.459 362.118 507.535 360.946C508.356 351.402 508.817 341.834 508.919 332.243C509.033 322.65 508.458 313.061 507.199 303.55C506.846 301.179 506.45 298.814 506.067 296.45C505.578 294.103 505.131 291.749 504.608 289.413C503.513 284.753 502.336 280.112 500.867 275.565C499.489 270.991 497.855 266.503 496.096 262.071C494.339 257.635 492.3 253.317 489.993 249.141C487.716 244.948 485.142 240.924 482.29 237.099C479.464 233.242 476.181 229.742 472.514 226.674L472.507 226.67C472.488 226.654 472.475 226.632 472.472 226.607C472.468 226.582 472.475 226.557 472.489 226.537C472.504 226.517 472.526 226.503 472.55 226.499C472.575 226.494 472.6 226.5 472.621 226.513L472.621 226.513Z" fill="#020202"/>
<path d="M262.662 343.839C259.538 344.005 256.407 343.953 253.291 343.682C250.166 343.436 247.059 342.994 243.989 342.36C240.905 341.741 237.872 340.894 234.913 339.825C231.951 338.728 229.094 337.365 226.377 335.754C225.707 335.336 224.993 334.975 224.359 334.508L222.441 333.123C221.164 332.184 219.88 331.329 218.6 330.427L210.928 325.067L195.645 314.272L195.783 314.353C195.403 314.185 195.008 314.054 194.604 313.961C194.275 313.874 193.932 313.856 193.596 313.91C193.383 313.993 193.411 313.956 193.342 314.199C193.291 314.279 193.34 314.499 193.321 314.645L193.417 315.22L193.419 315.227C193.46 315.477 193.411 315.733 193.28 315.95C193.19 316.12 193.122 316.3 193.076 316.487C193.021 316.707 192.991 316.932 192.988 317.158C192.989 317.634 193.082 318.105 193.262 318.546L192.944 319.643C193.062 319.547 193.004 319.593 193.021 319.577L193.008 319.604C192.99 319.643 192.977 319.685 192.969 319.728C192.944 319.87 192.942 320.015 192.964 320.158C193.024 320.549 193.142 320.928 193.315 321.284L193.339 322.005C193.371 321.904 193.329 322.073 193.34 322.143C193.341 322.247 193.349 322.351 193.366 322.453C193.406 322.692 193.472 322.926 193.564 323.15C193.767 323.652 194.032 324.127 194.351 324.564L194.41 325.575C194.43 325.541 194.446 325.505 194.459 325.467C194.461 325.456 194.462 325.458 194.462 325.458C194.462 325.469 194.461 325.48 194.459 325.491C194.46 325.543 194.464 325.596 194.471 325.648C194.5 325.801 194.544 325.95 194.603 326.094C194.754 326.445 194.94 326.78 195.159 327.092C195.394 327.433 195.648 327.759 195.922 328.068C196.196 328.384 196.545 328.717 196.852 329.041L200.659 332.954L208.272 340.78L223.492 356.443L223.515 356.467C223.532 356.485 223.548 356.504 223.563 356.523C224.855 358.262 226.066 360.024 227.219 361.847C228.4 363.67 229.432 365.584 230.307 367.572C230.728 368.459 231.302 369.264 232.003 369.951C234.254 372.072 237.142 373.391 240.218 373.704C242.262 373.889 244.312 373.445 246.096 372.431L246.761 372.044L247.358 371.558C247.754 371.24 248.16 370.906 248.579 370.542C248.98 370.175 249.41 369.84 249.864 369.541C250.301 369.218 250.763 368.93 251.244 368.678C255.076 366.635 259.508 366.014 263.754 366.926C259.542 366.248 255.224 367.037 251.523 369.161C251.069 369.42 250.635 369.714 250.226 370.04C249.801 370.343 249.401 370.68 249.03 371.047C248.657 371.396 248.254 371.755 247.832 372.122L247.209 372.667L246.509 373.113C244.609 374.3 242.384 374.859 240.148 374.711C237.931 374.558 235.778 373.9 233.853 372.788C231.825 371.744 230.167 370.1 229.107 368.08C228.218 366.185 227.179 364.364 226 362.634C224.835 360.88 223.589 359.154 222.301 357.501L222.371 357.581L206.99 342.025L199.302 334.241L195.458 330.349C195.136 330.015 194.821 329.722 194.494 329.354C194.161 328.984 193.851 328.594 193.566 328.186C193.26 327.754 193.005 327.288 192.807 326.797C192.696 326.518 192.616 326.227 192.568 325.931C192.544 325.757 192.535 325.582 192.54 325.407C192.545 325.304 192.557 325.202 192.576 325.101C192.586 325.042 192.6 324.983 192.618 324.925C192.643 324.832 192.679 324.743 192.725 324.658L192.783 325.669C192.376 325.1 192.041 324.482 191.785 323.831C191.647 323.479 191.548 323.112 191.49 322.738C191.459 322.535 191.444 322.329 191.446 322.123C191.443 321.858 191.484 321.594 191.568 321.342L191.592 322.063C191.342 321.528 191.175 320.957 191.097 320.371C191.053 320.025 191.067 319.674 191.138 319.333C191.18 319.134 191.247 318.942 191.338 318.761C191.389 318.66 191.448 318.563 191.514 318.471C191.606 318.344 191.716 318.23 191.842 318.135L191.524 319.232C191.259 318.561 191.126 317.844 191.133 317.122C191.142 316.751 191.194 316.381 191.287 316.022C191.385 315.628 191.545 315.252 191.762 314.909L191.625 315.638C191.577 315.357 191.527 315.08 191.491 314.792C191.467 314.463 191.488 314.131 191.554 313.807C191.626 313.402 191.817 313.027 192.103 312.731C192.388 312.435 192.756 312.23 193.158 312.144C193.769 312.022 194.4 312.04 195.003 312.197C195.534 312.322 196.052 312.499 196.549 312.726C196.593 312.746 196.635 312.769 196.674 312.797L196.688 312.807L211.915 323.737L219.5 329.239C220.751 330.163 222.045 331.07 223.261 332.008L225.107 333.408C225.719 333.881 226.4 334.242 227.043 334.665C229.662 336.299 232.423 337.693 235.292 338.831C241.098 341.051 247.159 342.538 253.333 343.258C256.428 343.642 259.543 343.836 262.662 343.839Z" fill="#020202"/>
<path d="M192.521 315.429C192.861 315.148 193.298 315.011 193.738 315.05C194.176 315.071 194.604 315.193 194.987 315.407C195.363 315.607 195.705 315.866 196.001 316.174C196.138 316.334 196.282 316.486 196.41 316.649C196.521 316.83 196.645 316.996 196.74 317.185C196.025 316.742 195.41 316.249 194.725 315.904C194.396 315.719 194.045 315.576 193.68 315.477C193.302 315.374 192.906 315.357 192.521 315.429Z" fill="#020202"/>
<path d="M192.393 318.889C192.426 318.663 192.669 318.52 192.883 318.456C193.104 318.413 193.33 318.406 193.553 318.436C193.979 318.496 194.392 318.628 194.774 318.826C195.525 319.2 196.194 319.721 196.74 320.357C196.352 320.215 195.973 320.05 195.604 319.864L194.527 319.331C194.181 319.152 193.825 318.993 193.46 318.856C193.285 318.787 193.101 318.744 192.914 318.728C192.821 318.711 192.724 318.717 192.634 318.745C192.543 318.773 192.46 318.822 192.393 318.889Z" fill="#020202"/>
<path d="M192.454 321.674C192.657 321.446 192.923 321.284 193.218 321.209C193.514 321.133 193.825 321.148 194.112 321.25C194.688 321.394 195.232 321.644 195.717 321.987C196.196 322.311 196.64 322.687 197.038 323.107C197.442 323.516 197.806 323.963 198.124 324.441C197.636 324.127 197.207 323.762 196.752 323.432C196.303 323.096 195.863 322.756 195.404 322.455C194.962 322.14 194.488 321.875 193.989 321.663C193.747 321.558 193.488 321.497 193.224 321.484C192.953 321.451 192.679 321.519 192.454 321.674Z" fill="#020202"/>
<path d="M193.567 325.116C193.57 324.984 193.606 324.854 193.671 324.738C193.736 324.623 193.828 324.525 193.94 324.454C194.185 324.322 194.468 324.277 194.742 324.326C195.246 324.417 195.721 324.623 196.132 324.928C196.93 325.493 197.607 326.211 198.124 327.04C197.697 326.792 197.335 326.484 196.946 326.214C196.565 325.936 196.197 325.647 195.816 325.393C195.459 325.127 195.068 324.91 194.653 324.748C194.46 324.653 194.237 324.639 194.034 324.708C193.831 324.777 193.663 324.924 193.567 325.116Z" fill="#020202"/>
<path d="M254.848 367.411C252.291 367.967 249.978 369.326 248.246 371.289C241.765 377.668 231.64 372.403 229.716 367.846C227.792 363.29 222.932 357.012 222.932 357.012C221.772 355.869 220.215 354.307 218.436 352.509C225.448 346.588 223.079 332.785 223.079 332.785C218.264 323.477 206.861 321.154 206.861 321.154C208.307 332.751 202.4 336.129 202.399 336.129C198.323 331.941 195.339 328.863 195.339 328.863C192.96 326.23 193.567 325.116 193.567 325.116C191.998 322.889 192.454 321.674 192.454 321.674C191.492 319.547 192.393 318.889 192.393 318.889C192.141 318.343 192.021 317.745 192.044 317.144C192.066 316.543 192.229 315.955 192.521 315.429L192.454 314.754L184.102 322.63C183.03 323.64 182.255 324.925 181.862 326.345C181.47 327.765 181.474 329.265 181.874 330.682C184.012 338.254 189.887 352.325 204.604 356.405C204.604 356.405 224.046 366.328 209.262 372.606L229.513 392.857C229.513 392.857 230.357 388.638 234.154 387.7C237.674 386.775 240.796 384.728 243.047 381.869C243.846 380.881 244.713 379.728 245.642 378.382C247.052 376.316 248.718 374.438 250.602 372.792C252.268 371.352 254.124 370.099 255.3 370.378L254.848 367.411Z" fill="#020202"/>
<path d="M250.719 343.175C250.719 343.175 250.627 343.574 250.493 344.273" stroke="#020202" stroke-width="1.68761" stroke-linecap="round" stroke-linejoin="round"/>
<path d="M250.131 346.385C249.357 351.458 248.521 361.253 252.513 366.147" stroke="#020202" stroke-width="1.68761" stroke-linecap="round" stroke-linejoin="round" stroke-dasharray="2.15 2.15"/>
<path d="M253.247 366.937C253.52 367.195 253.812 367.432 254.12 367.647" stroke="#020202" stroke-width="1.68761" stroke-linecap="round" stroke-linejoin="round"/>
<path d="M253.005 359.307C253.557 359.891 254.209 360.371 254.931 360.724C255.274 360.865 255.647 360.922 256.017 360.891C256.42 360.842 256.815 360.738 257.19 360.581C256.91 360.932 256.529 361.188 256.099 361.316C255.645 361.451 255.158 361.426 254.72 361.245C254.302 361.066 253.932 360.791 253.641 360.441C253.35 360.112 253.134 359.726 253.005 359.307Z" fill="#020202"/>
<path d="M378.765 192.673C379.088 192.077 379.508 191.539 380.006 191.08C380.497 190.612 381.043 190.206 381.632 189.871C382.234 189.539 382.881 189.296 383.553 189.151C384.23 189.01 384.932 189.038 385.596 189.23C384.978 189.413 384.37 189.628 383.773 189.873C383.205 190.137 382.648 190.407 382.103 190.715C381.003 191.324 379.953 192.019 378.765 192.673Z" fill="#020202"/>
<path d="M382.816 197.702C383.253 197.687 383.667 197.502 383.972 197.188C384.276 196.873 384.446 196.452 384.446 196.014C384.446 195.577 384.276 195.156 383.972 194.841C383.667 194.526 383.253 194.342 382.816 194.327C382.378 194.342 381.964 194.526 381.659 194.841C381.355 195.156 381.185 195.577 381.185 196.014C381.185 196.452 381.355 196.873 381.659 197.188C381.964 197.502 382.378 197.687 382.816 197.702Z" fill="#020202"/>
<path d="M396.924 194.597C397.297 194.889 397.721 195.11 398.175 195.248C398.345 195.235 398.331 195.245 398.407 195.108C398.455 195.04 398.493 194.966 398.519 194.887C398.564 194.793 398.595 194.692 398.612 194.589C398.683 194.366 398.737 194.139 398.772 193.908C398.843 193.677 398.856 193.425 398.918 193.18C399.011 192.663 399.146 192.155 399.32 191.66C399.52 192.16 399.638 192.689 399.672 193.226C399.727 193.775 399.682 194.33 399.539 194.864C399.502 195.012 399.447 195.155 399.374 195.289C399.264 195.54 399.086 195.755 398.861 195.911C398.76 195.962 398.655 196.005 398.547 196.039C398.343 196.08 398.132 196.054 397.945 195.964C397.662 195.831 397.424 195.619 397.26 195.353C397.104 195.123 396.99 194.867 396.924 194.597Z" fill="#020202"/>
<path d="M395.371 190.243C395.122 189.765 394.989 189.235 394.983 188.695C394.943 188.09 395.13 187.491 395.508 187.017C395.756 186.759 396.084 186.591 396.438 186.539C396.753 186.511 397.07 186.561 397.361 186.685C397.614 186.801 397.851 186.945 398.07 187.117C398.267 187.299 398.448 187.498 398.611 187.711C398.355 187.671 398.102 187.613 397.853 187.539C397.613 187.495 397.378 187.442 397.164 187.414C396.999 187.373 396.827 187.375 396.663 187.419C396.499 187.463 396.349 187.547 396.226 187.665C395.98 187.994 395.81 188.375 395.731 188.779L395.371 190.243Z" fill="#020202"/>
<path d="M380.048 205.128C380.507 204.835 380.996 204.593 381.506 204.406C381.724 204.324 381.924 204.239 382.131 204.147C382.373 204.024 382.602 203.878 382.815 203.71C382.867 203.875 382.88 204.049 382.852 204.22C382.824 204.39 382.756 204.552 382.654 204.691C382.456 204.967 382.182 205.18 381.865 205.304C381.571 205.419 381.254 205.466 380.939 205.44C380.618 205.424 380.308 205.315 380.048 205.128Z" fill="#020202"/>
<path d="M383.585 208.165C385.189 207.245 386.879 206.483 388.63 205.887C388.718 205.855 388.813 205.85 388.905 205.871C388.996 205.893 389.079 205.94 389.143 206.008C389.207 206.076 389.25 206.162 389.267 206.254C389.283 206.346 389.272 206.441 389.235 206.527C388.864 207.42 388.408 208.275 387.874 209.081C387.603 209.493 387.292 209.876 386.943 210.224C386.761 210.405 386.552 210.557 386.325 210.677C386.203 210.737 386.069 210.77 385.933 210.773C385.868 210.768 385.805 210.749 385.747 210.719C385.689 210.688 385.637 210.646 385.596 210.595C385.694 210.642 385.806 210.653 385.911 210.626C386.016 210.6 386.109 210.538 386.174 210.45C386.328 210.291 386.462 210.112 386.571 209.919C386.807 209.525 387.021 209.119 387.213 208.702C387.603 207.865 387.987 207.007 388.344 206.158L388.949 206.798C387.209 207.425 385.413 207.883 383.585 208.165Z" fill="#020202"/>
<path d="M466.792 385.442C467.169 385.429 467.525 385.271 467.787 385C468.048 384.729 468.194 384.367 468.194 383.991C468.194 383.614 468.048 383.252 467.787 382.982C467.525 382.711 467.169 382.552 466.792 382.539C466.416 382.552 466.059 382.711 465.798 382.982C465.536 383.252 465.39 383.614 465.39 383.991C465.39 384.367 465.536 384.729 465.798 385C466.059 385.271 466.416 385.429 466.792 385.442Z" fill="#020202"/>
<path d="M474.623 382.178C475 382.165 475.356 382.007 475.618 381.736C475.879 381.465 476.026 381.103 476.026 380.727C476.026 380.35 475.879 379.988 475.618 379.718C475.356 379.447 475 379.288 474.623 379.275C474.247 379.288 473.89 379.447 473.629 379.718C473.367 379.988 473.221 380.35 473.221 380.727C473.221 381.103 473.367 381.465 473.629 381.736C473.89 382.007 474.247 382.165 474.623 382.178Z" fill="#020202"/>
<path d="M482.423 378.393C482.799 378.38 483.156 378.221 483.417 377.95C483.679 377.68 483.825 377.318 483.825 376.941C483.825 376.565 483.679 376.203 483.417 375.932C483.156 375.661 482.799 375.502 482.423 375.49C482.047 375.502 481.69 375.661 481.428 375.932C481.167 376.203 481.02 376.565 481.02 376.941C481.02 377.318 481.167 377.68 481.428 377.95C481.69 378.221 482.047 378.38 482.423 378.393Z" fill="#020202"/>
<path d="M492.066 376.241C492.442 376.228 492.799 376.07 493.061 375.799C493.322 375.528 493.468 375.166 493.468 374.789C493.468 374.413 493.322 374.051 493.061 373.78C492.799 373.509 492.442 373.351 492.066 373.338C491.69 373.351 491.333 373.509 491.071 373.78C490.81 374.051 490.664 374.413 490.664 374.789C490.664 375.166 490.81 375.528 491.071 375.799C491.333 376.07 491.69 376.228 492.066 376.241Z" fill="#020202"/>
<path d="M500.792 376.239C501.168 376.226 501.525 376.067 501.786 375.797C502.048 375.526 502.194 375.164 502.194 374.787C502.194 374.411 502.048 374.049 501.786 373.778C501.525 373.507 501.168 373.349 500.792 373.336C500.415 373.349 500.059 373.507 499.797 373.778C499.536 374.049 499.389 374.411 499.389 374.787C499.389 375.164 499.536 375.526 499.797 375.797C500.059 376.067 500.415 376.226 500.792 376.239Z" fill="#020202"/>
<path d="M508.721 377.506C509.097 377.493 509.454 377.335 509.716 377.064C509.977 376.793 510.123 376.431 510.123 376.055C510.123 375.678 509.977 375.316 509.716 375.046C509.454 374.775 509.097 374.616 508.721 374.603C508.345 374.616 507.988 374.775 507.727 375.046C507.465 375.316 507.319 375.678 507.319 376.055C507.319 376.431 507.465 376.793 507.727 377.064C507.988 377.335 508.345 377.493 508.721 377.506Z" fill="#020202"/>
</svg>
