<svg width="700" height="550" viewBox="0 0 700 550" fill="none" xmlns="http://www.w3.org/2000/svg">
<path d="M401.487 229.186C389.206 254.086 373.334 271.458 353.882 263.629H359.147L354.821 241.631C355.74 235.457 356.921 228.547 358.411 220.621C361.522 222.485 364.801 224.054 368.205 225.305C375.161 228.098 382.547 229.67 390.038 229.95C393.871 230.16 397.716 229.903 401.487 229.186Z" fill="#020202"/>
<path d="M466.792 287.717C470.866 306.443 474.805 321.008 478.947 329.186C477.251 331.126 475.458 332.98 473.576 334.741C471.746 336.474 469.746 338.018 467.605 339.347C465.513 340.672 463.198 341.603 460.772 342.096C459.546 342.314 458.3 342.402 457.056 342.357C455.801 342.287 454.554 342.109 453.33 341.825C451.298 334.015 450.678 332.399 450.243 322.943C449.827 314.166 451.385 286.178 451.385 286.178C449.498 228.789 430.297 209.975 430.297 209.975C447.097 201.033 449.527 188.336 449.527 188.336C449.527 188.336 460.685 259.671 466.792 287.717Z" fill="#020202"/>
<path d="M478.947 329.185C477.847 331.583 476.403 333.807 474.66 335.786C472.921 337.822 470.881 339.581 468.611 341.002C467.449 341.7 466.225 342.286 464.953 342.754C463.665 343.203 462.325 343.486 460.966 343.596C459.613 343.696 458.253 343.595 456.93 343.296C455.669 342.997 454.46 342.514 453.34 341.863C453.959 344.254 454.714 347.225 455.633 351.173C469.937 361.016 488.721 336.289 489.205 335.641C485.547 338.07 482.179 335.573 478.947 329.185ZM458.788 349.654C458.412 349.64 458.056 349.482 457.795 349.211C457.533 348.94 457.387 348.579 457.387 348.202C457.387 347.826 457.533 347.464 457.795 347.194C458.056 346.923 458.412 346.764 458.788 346.751C459.164 346.764 459.52 346.923 459.782 347.194C460.043 347.464 460.189 347.826 460.189 348.202C460.189 348.579 460.043 348.94 459.782 349.211C459.52 349.482 459.164 349.64 458.788 349.654ZM465.524 349.189C465.148 349.176 464.792 349.017 464.53 348.746C464.269 348.476 464.123 348.114 464.123 347.738C464.123 347.361 464.269 347 464.53 346.729C464.792 346.458 465.148 346.299 465.524 346.286C465.9 346.299 466.256 346.458 466.517 346.729C466.779 347 466.925 347.361 466.925 347.738C466.925 348.114 466.779 348.476 466.517 348.746C466.256 349.017 465.9 349.176 465.524 349.189ZM472.956 345.705C472.58 345.692 472.224 345.533 471.963 345.262C471.701 344.992 471.555 344.63 471.555 344.254C471.555 343.877 471.701 343.516 471.963 343.245C472.224 342.974 472.58 342.815 472.956 342.802C473.332 342.815 473.689 342.974 473.95 343.245C474.211 343.516 474.357 343.877 474.357 344.254C474.357 344.63 474.211 344.992 473.95 345.262C473.689 345.533 473.332 345.692 472.956 345.705V345.705ZM478.531 340.363C478.155 340.35 477.798 340.191 477.537 339.92C477.276 339.65 477.13 339.288 477.13 338.912C477.13 338.535 477.276 338.174 477.537 337.903C477.798 337.632 478.155 337.473 478.531 337.46C478.907 337.473 479.263 337.632 479.524 337.903C479.785 338.174 479.931 338.535 479.931 338.912C479.931 339.288 479.785 339.65 479.524 339.92C479.263 340.191 478.907 340.35 478.531 340.363Z" fill="#020202"/>
<path d="M453.34 341.863C453.311 341.844 453.272 341.825 453.243 341.805C453.272 341.815 453.301 341.815 453.33 341.825C453.337 341.836 453.34 341.85 453.34 341.863Z" fill="white"/>
<path d="M380.095 76.397C378.749 77.3265 377.686 78.6084 377.02 80.1022C376.697 80.838 376.439 81.6009 376.25 82.3819L376.014 83.5912C375.938 84.0258 375.83 84.454 375.69 84.8722C375.166 86.5861 374.231 88.1458 372.966 89.4155C372.314 90.0863 371.545 90.6316 370.696 91.0243C370.221 91.2327 369.713 91.3545 369.196 91.384C368.594 91.4177 367.997 91.2593 367.492 90.9316C367.341 90.8373 367.23 90.6903 367.181 90.519L367.179 90.5107C367.072 90.1376 367.022 89.7505 367.032 89.3625C367.035 89.0142 367.072 88.6669 367.142 88.3255C367.28 87.667 367.519 87.0335 367.85 86.4474C368.169 85.8841 368.546 85.3553 368.975 84.8694C369.394 84.3999 369.847 83.9625 370.332 83.5609L370.175 83.7367C370.859 82.6842 371.387 81.5387 371.744 80.3354C371.836 80.0162 371.876 79.7741 371.969 79.3861C372.057 79.0127 372.182 78.649 372.343 78.3009C372.646 77.6469 373.021 77.0282 373.46 76.456C374.308 75.3063 375.4 74.359 376.658 73.6822C377.293 73.3245 377.997 73.1088 378.724 73.05C379.45 72.9912 380.18 73.0908 380.864 73.3417L380.684 73.328C383.705 72.7783 386.759 72.4264 389.826 72.2748C392.92 72.0639 396.027 72.2364 399.078 72.7882C400.637 73.082 402.152 73.578 403.584 74.2637C405.067 74.957 406.398 75.9377 407.5 77.1491C407.757 77.4736 408.036 77.7825 408.271 78.1245C408.489 78.4722 408.741 78.8216 408.927 79.1722C409.301 79.8719 409.677 80.5721 409.982 81.3006C410.62 82.7395 411.144 84.2261 411.549 85.7468C413.012 91.7718 413.462 97.9982 412.882 104.171C412.839 107.152 413.228 110.124 414.036 112.994C414.463 114.43 414.999 115.83 415.639 117.184C415.941 117.845 416.377 118.435 416.921 118.918C417.504 119.377 418.168 119.723 418.879 119.936C418.891 119.94 418.903 119.946 418.912 119.954C418.922 119.962 418.93 119.972 418.936 119.984C418.942 119.995 418.946 120.007 418.947 120.02C418.948 120.033 418.946 120.045 418.943 120.058C418.935 120.08 418.92 120.099 418.899 120.111C418.879 120.123 418.855 120.128 418.831 120.124C418.05 120.003 417.302 119.724 416.634 119.302C415.977 118.835 415.424 118.237 415.01 117.545C414.197 116.216 413.513 114.813 412.969 113.353C411.863 110.42 411.261 107.321 411.188 104.187C411.147 102.596 411.214 101.109 411.164 99.6031C411.135 98.0987 411.089 96.595 410.963 95.0996C410.753 92.1197 410.299 89.1622 409.604 86.2569C409.262 84.8187 408.808 83.4096 408.246 82.0426C407.981 81.3543 407.65 80.702 407.324 80.0462C406.997 79.4287 406.609 78.8454 406.167 78.3047C404.192 76.1713 401.615 74.6883 398.779 74.0522C392.877 72.6587 386.735 72.6233 380.818 73.9487C380.762 73.9601 380.703 73.9567 380.648 73.9387L380.637 73.9349C380.045 73.7422 379.416 73.6869 378.799 73.7731C378.182 73.8593 377.592 74.0848 377.075 74.4324C375.482 75.4925 374.257 77.0197 373.567 78.8043C373.464 79.0762 373.39 79.3578 373.344 79.6448C373.296 79.9153 373.252 80.3429 373.178 80.6774C372.881 82.092 372.342 83.4447 371.584 84.6758C371.557 84.7204 371.525 84.7611 371.487 84.7967L371.427 84.852C371.023 85.215 370.638 85.5993 370.274 86.003C369.93 86.4 369.628 86.8312 369.372 87.2898C369.122 87.7245 368.936 88.1925 368.819 88.6796C368.766 88.9118 368.736 89.1485 368.729 89.3864C368.722 89.5852 368.736 89.7841 368.773 89.9796L368.461 89.559C368.714 89.6763 368.991 89.7344 369.27 89.7286C369.549 89.7228 369.823 89.6534 370.071 89.5256C370.755 89.2374 371.381 88.8269 371.918 88.314C373.067 87.2449 373.955 85.9268 374.515 84.4607C374.816 83.7303 374.977 82.9663 375.237 82.1026C375.504 81.2722 375.861 80.4737 376.302 79.7212C377.162 78.2107 378.455 76.9919 380.013 76.2216C380.035 76.2117 380.06 76.2105 380.083 76.2182C380.106 76.2258 380.125 76.2419 380.137 76.263C380.149 76.2842 380.152 76.309 380.146 76.3325C380.14 76.356 380.126 76.3764 380.106 76.3898L380.095 76.397Z" fill="#020202"/>
<path d="M372.482 88.8271C372.316 91.5706 372.399 94.3237 372.732 97.0521C372.896 98.3902 373.157 99.7146 373.512 101.015C373.65 101.671 373.899 102.29 374.094 102.924C374.332 103.54 374.585 104.152 374.868 104.742C375.431 105.921 376.139 107.026 376.974 108.03C377.78 109.052 378.715 109.965 379.754 110.747C380.77 111.512 381.913 112.091 383.131 112.456C383.734 112.633 384.356 112.738 384.984 112.771C385.589 112.82 386.197 112.783 386.791 112.663L386.901 112.639C386.991 112.619 387.084 112.617 387.174 112.633C387.265 112.649 387.351 112.683 387.429 112.733C387.507 112.783 387.574 112.847 387.626 112.923C387.679 112.998 387.716 113.083 387.736 113.173C387.747 113.226 387.752 113.279 387.752 113.332C387.732 115.072 387.596 116.809 387.347 118.532C387.222 119.401 387.025 120.258 386.757 121.094C386.621 121.526 386.415 121.933 386.147 122.298C385.997 122.488 385.783 122.617 385.544 122.661C385.316 122.66 385.096 122.572 384.931 122.414C385.106 122.524 385.316 122.563 385.519 122.525C385.695 122.449 385.837 122.312 385.92 122.14C386.094 121.769 386.209 121.374 386.263 120.968C386.38 120.135 386.44 119.295 386.443 118.454C386.474 116.766 386.392 115.055 386.292 113.379L387.253 114.049C385.773 114.491 384.2 114.523 382.704 114.141C381.24 113.801 379.86 113.166 378.65 112.274C377.451 111.424 376.384 110.401 375.485 109.238C375.263 108.95 375.03 108.674 374.82 108.376L374.226 107.447C373.838 106.827 373.493 106.181 373.195 105.514C372.091 102.86 371.501 100.021 371.456 97.148C371.385 94.3389 371.731 91.5348 372.482 88.8271Z" fill="#020202"/>
<path d="M428.778 122.3C430.693 122.756 432.583 123.315 434.47 123.88C436.351 124.47 438.225 125.061 440.081 125.765L440.02 125.748C442.315 126.277 444.432 127.395 446.164 128.99C447.89 130.565 449.348 132.411 450.48 134.456C452.653 138.561 454.059 143.028 454.631 147.638C455.234 152.199 455.415 156.806 455.172 161.4C454.95 165.974 454.473 170.533 453.744 175.054L453.743 175.06C453.707 175.284 453.593 175.488 453.42 175.634C453.247 175.781 453.028 175.861 452.801 175.86L440.932 175.804L429.062 175.671L429.04 175.671C428.852 175.668 428.671 175.595 428.534 175.465C428.397 175.336 428.313 175.16 428.299 174.971C427.962 170.047 427.752 165.121 427.672 160.196C427.644 157.731 427.668 155.266 427.744 152.8C427.78 150.334 427.994 147.873 428.384 145.437C428.21 147.888 428.17 150.347 428.266 152.802C428.34 155.256 428.464 157.709 428.639 160.159C428.945 165.059 429.358 169.96 429.824 174.84L429.062 174.141L440.932 174.008L452.801 173.952L451.859 174.757C452.516 170.29 453.066 165.807 453.297 161.309C453.568 156.824 453.46 152.324 452.975 147.857C452.702 145.64 452.288 143.441 451.736 141.276C451.168 139.125 450.379 137.038 449.382 135.049C448.39 133.065 447.086 131.253 445.519 129.684C443.98 128.09 442.058 126.918 439.937 126.28L439.89 126.268L439.875 126.263C438.079 125.5 436.223 124.833 434.373 124.173C432.521 123.513 430.666 122.855 428.778 122.3Z" fill="#020202"/>
<path d="M381.349 75.6334C382.398 75.8601 383.384 76.3179 384.235 76.9737C385.085 77.6295 385.779 78.4666 386.265 79.4242C386.776 80.3633 387.167 81.3634 387.429 82.4005C387.69 83.3477 388.019 84.2752 388.412 85.1761C389.174 86.9503 390.276 88.5584 391.656 89.9097C392.251 90.5864 392.987 91.1244 393.812 91.4857C394.637 91.8469 395.532 92.0226 396.433 92.0005L396.011 92.2421C396.702 91.5006 397.471 90.8363 398.305 90.2609C399.156 89.592 400.211 89.2347 401.293 89.2482C401.581 89.2873 401.859 89.383 402.11 89.5298C402.361 89.6767 402.58 89.8717 402.755 90.1037C403.061 90.5301 403.29 91.0065 403.432 91.5117C403.69 92.4669 403.832 93.4498 403.855 94.439C404.069 96.4428 403.679 98.4649 402.736 100.245C402.166 101.177 401.328 101.915 400.332 102.362C399.336 102.81 398.228 102.947 397.153 102.755L398.022 102.294C397.586 104.037 397.185 105.818 396.857 107.595C396.503 109.37 396.214 111.154 396.017 112.937C395.817 114.697 395.745 116.469 395.801 118.239C395.766 119.852 396.201 121.441 397.052 122.812L396.069 122.507C397.65 122.144 399.189 121.923 400.754 121.705C402.315 121.512 403.878 121.348 405.445 121.263C408.573 121.066 411.712 121.095 414.835 121.349C414.861 121.352 414.885 121.364 414.901 121.384C414.918 121.403 414.926 121.429 414.924 121.455C414.922 121.477 414.911 121.498 414.895 121.515C414.879 121.531 414.858 121.541 414.835 121.543C413.282 121.703 411.734 121.818 410.194 122.022C408.652 122.179 407.118 122.394 405.591 122.632C404.063 122.868 402.542 123.126 401.03 123.422C399.524 123.702 398.001 124.046 396.555 124.411L396.55 124.413C396.375 124.457 396.191 124.451 396.018 124.397C395.846 124.343 395.691 124.243 395.573 124.106C394.887 123.277 394.401 122.302 394.151 121.256C393.905 120.302 393.766 119.324 393.737 118.34C393.672 116.45 393.79 114.558 394.089 112.692C394.634 109.02 395.506 105.405 396.693 101.888L396.706 101.85C396.763 101.681 396.884 101.541 397.044 101.461C397.203 101.382 397.388 101.369 397.557 101.425L397.562 101.427C398.358 101.63 399.198 101.586 399.969 101.302C400.787 100.997 401.498 100.46 402.015 99.7563C403.017 98.1851 403.457 96.3204 403.263 94.4669C403.252 93.5293 403.108 92.5979 402.835 91.7008C402.557 90.8405 401.992 90.0495 401.225 90.0468C400.372 90.1538 399.577 90.5374 398.963 91.1388C398.267 91.7337 397.635 92.3996 397.078 93.1257C396.986 93.2451 396.854 93.3274 396.706 93.3574L396.656 93.3675C395.504 93.6031 394.308 93.484 393.225 93.026C392.191 92.5857 391.25 91.9519 390.453 91.1584C388.908 89.6408 387.716 87.8013 386.963 85.7708C386.583 84.7809 386.291 83.7595 386.09 82.7183C385.924 81.7569 385.653 80.8165 385.282 79.9139C384.901 79.0225 384.378 78.1986 383.733 77.4741C383.062 76.7474 382.235 76.1831 381.314 75.8238L381.3 75.8188C381.278 75.8106 381.259 75.7942 381.248 75.773C381.237 75.7518 381.234 75.7273 381.24 75.7041C381.246 75.681 381.261 75.6609 381.281 75.6478C381.301 75.6348 381.325 75.6296 381.349 75.6334H381.349Z" fill="#020202"/>
<path d="M428.459 138.736C428.676 137.199 429.083 135.695 429.67 134.259C430.238 132.798 430.998 131.419 431.932 130.16C432.863 128.868 434.053 127.783 435.424 126.973C436.811 126.202 438.398 125.868 439.978 126.014C438.492 126.236 437.073 126.782 435.823 127.615C434.622 128.481 433.569 129.536 432.706 130.739C431.809 131.943 431.022 133.226 430.355 134.571C429.676 135.921 429.027 137.302 428.459 138.736Z" fill="#020202"/>
<path d="M396.312 123.459C396.628 125.061 396.626 126.709 396.307 128.31C396.036 129.913 395.499 131.46 394.716 132.885C394.832 131.292 395.046 129.706 395.355 128.139C395.649 126.585 395.913 125.049 396.312 123.459Z" fill="#020202"/>
<path d="M352.182 160.041C352.348 158.362 352.62 156.694 352.946 155.037C353.268 153.379 353.626 151.725 354.053 150.087C354.905 146.798 356.004 143.578 357.341 140.454C358.011 138.882 358.767 137.348 359.605 135.858C360.428 134.347 361.359 132.897 362.392 131.52C364.433 128.669 367.045 126.274 370.061 124.487L369.978 124.54C370.302 124.331 370.641 124.15 370.994 123.997C371.316 123.849 371.638 123.726 371.96 123.602C372.607 123.372 373.255 123.166 373.907 123C375.2 122.661 376.515 122.411 377.843 122.253C379.159 122.076 380.477 121.98 381.794 121.903C383.111 121.837 384.427 121.832 385.74 121.848L385.764 121.848C385.862 121.85 385.959 121.87 386.05 121.909C386.14 121.948 386.222 122.004 386.291 122.074C386.36 122.145 386.414 122.228 386.451 122.32C386.487 122.411 386.506 122.509 386.504 122.607L386.502 122.657C386.257 125.765 386.091 128.909 386.014 132.043C385.898 135.182 385.956 138.32 386.151 141.469C385.573 138.36 385.207 135.215 385.057 132.056C384.908 128.893 384.868 125.737 384.986 122.558L385.749 123.367C384.462 123.415 383.18 123.486 381.902 123.578C380.627 123.69 379.354 123.82 378.099 124.027C376.851 124.221 375.613 124.481 374.393 124.806C373.787 124.966 373.198 125.161 372.621 125.371C372.338 125.484 372.055 125.595 371.787 125.722C371.545 125.831 371.31 125.955 371.084 126.095C371.059 126.112 371.026 126.132 371 126.148C368.226 127.829 365.806 130.037 363.878 132.646C361.887 135.282 360.176 138.119 358.773 141.11C357.334 144.12 356.077 147.214 355.009 150.375C353.906 153.548 352.963 156.774 352.182 160.041Z" fill="#020202"/>
<path d="M339.64 115.911C340.658 116.576 341.535 117.435 342.221 118.44C342.897 119.459 343.437 120.561 343.828 121.719C344.222 122.876 344.516 124.064 344.705 125.271C344.904 126.485 345.006 127.712 345.008 128.942L344.996 128.805L352.911 159.324C353.574 161.864 354.253 164.398 354.95 166.926L355.474 168.819L355.76 169.653C355.886 169.93 355.998 170.209 356.133 170.485C356.705 171.611 357.367 172.69 358.113 173.71C359.62 175.802 361.279 177.78 363.077 179.628L368.712 185.127L367.309 185.342L373.532 173.897L374.011 175.119L362.836 171.264L362.787 171.247C362.706 171.219 362.633 171.173 362.571 171.114C361.569 170.103 360.802 168.884 360.323 167.543C359.848 166.264 359.57 164.92 359.5 163.558C359.406 160.891 359.849 158.233 360.801 155.74C361.243 154.493 361.787 153.323 362.292 152.142L363.79 148.581C364.277 147.389 364.754 146.193 365.207 144.988C365.695 143.797 366.097 142.572 366.408 141.322C365.914 143.86 365.217 146.354 364.323 148.78C363.522 151.222 362.568 153.674 361.784 156.067C361.003 158.447 360.692 160.957 360.869 163.456C360.97 164.67 361.257 165.862 361.718 166.99C362.146 168.073 362.796 169.054 363.625 169.872L363.361 169.722L374.565 173.492C374.683 173.532 374.79 173.597 374.881 173.682C374.971 173.768 375.041 173.872 375.087 173.987C375.133 174.103 375.154 174.227 375.147 174.351C375.14 174.475 375.107 174.596 375.049 174.706L375.044 174.715L368.875 186.189C368.82 186.292 368.745 186.383 368.654 186.456C368.564 186.53 368.46 186.586 368.348 186.619C368.236 186.653 368.119 186.664 368.003 186.652C367.887 186.641 367.774 186.606 367.671 186.551C367.599 186.511 367.531 186.462 367.472 186.404L361.794 180.914C359.895 179.022 358.15 176.981 356.576 174.811C355.763 173.712 355.041 172.55 354.415 171.335C354.26 171.022 354.122 170.693 353.976 170.371C353.847 170.037 353.73 169.68 353.617 169.343L353.09 167.436C352.402 164.891 351.736 162.343 351.094 159.792C349.79 154.692 348.6 149.568 347.409 144.445C346.241 139.316 345.118 134.177 344.038 129.029L344.035 129.013C344.027 128.973 344.024 128.933 344.026 128.893C344.089 127.718 344.064 126.54 343.95 125.369C343.84 124.189 343.629 123.021 343.318 121.878C342.769 119.544 341.478 117.45 339.64 115.911Z" fill="#020202"/>
<path d="M329.885 112.659C330.403 112.109 331.051 111.698 331.77 111.465C332.489 111.233 333.255 111.185 333.998 111.327C334.744 111.466 335.451 111.769 336.068 112.212C336.367 112.428 336.646 112.672 336.901 112.938C337.139 113.216 337.356 113.51 337.549 113.82C337.209 113.666 336.915 113.478 336.609 113.313C336.29 113.171 336.004 112.987 335.691 112.866C335.097 112.596 334.472 112.399 333.831 112.279C333.193 112.164 332.541 112.142 331.897 112.214C331.212 112.291 330.538 112.44 329.885 112.659Z" fill="#020202"/>
<path d="M337.549 120.556C337.782 121.193 337.802 121.888 337.607 122.537C337.402 123.234 336.956 123.836 336.348 124.233C335.739 124.586 335.045 124.764 334.341 124.748C334.011 124.727 333.682 124.683 333.358 124.616C333.044 124.522 332.738 124.407 332.44 124.272C332.753 124.211 333.069 124.167 333.387 124.141L334.279 123.995C334.823 123.886 335.346 123.691 335.829 123.417C336.751 122.722 337.368 121.696 337.549 120.556Z" fill="#020202"/>
<path d="M333.717 130.485C334.504 130.518 335.288 130.606 336.062 130.749L337.193 130.957C337.558 131.027 337.949 131.089 338.246 131.114L338.307 131.119C338.363 131.124 338.417 131.141 338.466 131.168C339.05 131.492 339.574 131.913 340.016 132.414C340.245 132.666 340.431 132.954 340.568 133.266C340.718 133.575 340.759 133.925 340.685 134.26C340.45 133.707 340.048 133.243 339.535 132.931C339.052 132.591 338.548 132.283 338.026 132.009L338.246 132.063C337.822 132.049 337.402 131.985 336.993 131.872C336.604 131.781 336.23 131.649 335.856 131.524C335.106 131.259 334.389 130.91 333.717 130.485Z" fill="#020202"/>
<path d="M353.882 263.774C343.753 264.027 333.624 264.159 323.494 264.335L293.106 264.674L262.718 264.836C252.589 264.862 242.46 264.98 232.33 264.903L232.316 264.903C232.017 264.901 231.728 264.793 231.501 264.599C231.273 264.404 231.122 264.136 231.073 263.84L227.608 242.807L224.306 221.747L221.014 200.685L219.364 190.154L217.643 179.636L214.183 158.602L210.566 137.595C208.145 123.592 205.61 109.608 203.103 95.6188C203.062 95.3851 203.114 95.1444 203.25 94.9496C203.385 94.7548 203.593 94.6218 203.827 94.5799C203.87 94.5722 203.913 94.5676 203.957 94.5662L203.98 94.5658L234.403 93.8168L264.827 93.1741L295.251 92.5825L325.677 92.059C326.041 92.0528 326.395 92.1749 326.678 92.4039C326.961 92.6328 327.154 92.954 327.223 93.3111L334.406 130.335L341.41 167.395C343.772 179.743 346.002 192.116 348.291 204.479C350.594 216.838 352.734 229.229 354.964 241.603C354.97 241.641 354.962 241.679 354.941 241.711C354.919 241.742 354.886 241.764 354.849 241.771C354.811 241.779 354.773 241.771 354.741 241.75C354.709 241.729 354.687 241.696 354.679 241.659C352.055 229.363 349.342 217.084 346.792 204.773C344.227 192.466 341.603 180.169 339.112 167.847L331.556 130.896L324.178 93.9101L325.724 95.162L295.297 95.5675L264.868 95.9049L234.439 96.1914L204.008 96.3715L204.884 95.3186C207.101 109.356 209.288 123.399 211.59 137.422L215.057 158.455L218.681 179.461L220.502 189.963L222.394 200.452L226.186 221.43L229.968 242.41L233.587 263.417L232.33 262.354C242.46 262.277 252.589 262.395 262.718 262.421L293.106 262.583L323.494 262.922C333.624 263.099 343.753 263.23 353.882 263.483C353.92 263.484 353.956 263.5 353.982 263.527C354.009 263.554 354.024 263.591 354.024 263.629C354.024 263.666 354.009 263.703 353.982 263.73C353.956 263.757 353.92 263.773 353.882 263.774L353.882 263.774Z" fill="#020202"/>
<path d="M213.575 105.738L266.66 104.39L293.409 103.729L320.24 103.139C320.466 103.134 320.686 103.209 320.862 103.349C321.038 103.49 321.159 103.688 321.205 103.909L321.207 103.922L328.764 141.134L336.183 178.372L350.992 252.855C351.029 253.042 351.029 253.233 350.992 253.419C350.955 253.606 350.882 253.783 350.776 253.941C350.671 254.098 350.535 254.234 350.377 254.339C350.219 254.445 350.042 254.518 349.856 254.555C349.762 254.573 349.667 254.583 349.571 254.583L238.413 254.364H238.402C238.113 254.363 237.833 254.26 237.613 254.072C237.393 253.885 237.247 253.625 237.201 253.339L225.243 179.234L213.575 105.738ZM213.575 105.738L226.745 179.639L239.625 252.931L238.413 251.906L349.571 251.687L348.151 253.414L333.643 178.872L326.404 141.598L319.303 104.296L320.27 105.079L293.761 105.304L267.17 105.457L213.575 105.738Z" fill="#020202"/>
<path d="M417.347 187.912C419.097 187.38 420.844 186.997 422.57 186.603C424.259 186.251 425.928 185.804 427.567 185.265L426.941 186.072C427.032 185.132 427.145 184.195 427.269 183.259C427.419 182.326 427.536 181.39 427.718 180.46C427.881 179.528 428.078 178.599 428.288 177.672C428.521 176.748 428.744 175.822 429.062 174.906C429.186 175.867 429.215 176.819 429.255 177.772C429.271 178.722 429.275 179.671 429.245 180.617C429.233 181.564 429.156 182.505 429.113 183.449C429.043 184.391 428.962 185.331 428.86 186.27L428.858 186.289C428.839 186.466 428.77 186.633 428.66 186.773C428.549 186.912 428.402 187.017 428.234 187.076C427.346 187.385 426.431 187.614 425.502 187.76C424.602 187.911 423.694 188.014 422.782 188.068C420.97 188.196 419.149 188.144 417.347 187.912Z" fill="#020202"/>
<path d="M410.91 199.818C412.079 198.405 413.346 197.078 414.704 195.847C416.032 194.596 417.393 193.385 418.785 192.215C420.162 191.026 421.594 189.905 423.016 188.773C424.454 187.662 425.898 186.56 427.381 185.504L427.439 185.462C427.544 185.388 427.666 185.343 427.794 185.332C429.431 185.192 431.066 185.091 432.712 185.06C433.534 185.033 434.358 185.043 435.184 185.061C436.013 185.07 436.84 185.15 437.656 185.3C436.836 185.379 436.039 185.559 435.234 185.706L432.826 186.159C431.222 186.466 429.611 186.742 428.008 187.009L428.42 186.838C427.038 188.016 425.622 189.153 424.204 190.286C422.77 191.399 421.349 192.527 419.88 193.596C418.425 194.681 416.948 195.739 415.45 196.77C413.963 197.818 412.422 198.785 410.91 199.818Z" fill="#020202"/>
<path d="M414.077 219.447L427.146 211.058C429.303 209.636 431.47 208.238 433.594 206.777L436.778 204.592C437.802 203.864 438.785 203.08 439.722 202.244C443.498 198.892 446.413 194.682 448.22 189.967C450.041 185.169 450.641 179.993 449.966 174.906C451.413 180.008 451.301 185.426 449.646 190.464C447.996 195.563 445.014 200.13 441.007 203.69C440.002 204.566 438.95 205.385 437.854 206.145C436.774 206.872 435.701 207.611 434.6 208.303C432.399 209.689 430.193 211.064 427.931 212.341C423.43 214.934 418.811 217.314 414.077 219.447Z" fill="#020202"/>
<path d="M391.303 429.152C391.023 429.698 390.721 430.229 390.465 430.778C390.222 431.331 390.008 431.897 389.825 432.472C389.461 433.609 389.284 434.796 389.3 435.989C389.328 437.163 389.551 438.323 389.961 439.423C390.355 440.502 390.942 441.499 391.693 442.367L391.702 442.377C391.73 442.409 391.756 442.444 391.778 442.481C393.446 445.28 394.663 448.325 395.382 451.503C395.752 453.126 395.899 454.792 395.819 456.454C395.735 458.178 395.276 459.862 394.475 461.391C393.625 462.918 392.401 464.204 390.918 465.128C389.487 466.048 387.893 466.686 386.222 467.009C384.574 467.336 382.882 467.38 381.219 467.14C380.412 467.019 379.612 466.854 378.822 466.645C378.066 466.466 377.304 466.308 376.536 466.177C370.347 465.009 363.96 465.469 358.002 467.513C357.276 467.81 356.539 468.081 355.822 468.397C355.118 468.741 354.398 469.054 353.707 469.423L351.649 470.573C350.95 470.977 350.232 471.345 349.496 471.676C346.542 472.983 343.397 473.806 340.182 474.113C336.961 474.465 333.707 474.374 330.511 473.843C328.891 473.574 327.299 473.154 325.757 472.589C324.102 472.027 322.608 471.072 321.401 469.808C320.718 469.057 320.297 468.105 320.202 467.095C320.177 466.576 320.249 466.056 320.415 465.563C320.557 465.095 320.768 464.652 321.039 464.246C322.066 462.838 323.378 461.662 324.89 460.795C327.7 459.196 330.646 457.851 333.695 456.775C339.568 454.421 345.552 452.276 351.185 449.618C353.987 448.384 356.513 446.598 358.61 444.367C360.581 441.968 362.212 439.308 363.458 436.464L363.419 436.593C363.769 434.785 364.155 432.982 364.531 431.179L365.683 425.771C365.689 425.744 365.705 425.72 365.728 425.705C365.75 425.689 365.778 425.683 365.805 425.688C365.832 425.692 365.857 425.707 365.873 425.729C365.889 425.751 365.897 425.779 365.893 425.806L365.205 431.292C364.968 433.12 364.74 434.949 364.477 436.772C364.472 436.807 364.462 436.842 364.449 436.875L364.437 436.901C363.307 439.938 361.758 442.801 359.833 445.407C357.669 447.886 355.027 449.904 352.067 451.341C349.215 452.849 346.29 454.124 343.354 455.342C340.419 456.557 337.477 457.739 334.526 458.888C331.601 459.924 328.757 461.176 326.018 462.636C324.76 463.319 323.654 464.252 322.769 465.377C322.593 465.624 322.455 465.897 322.362 466.186C322.265 466.44 322.216 466.711 322.22 466.983C322.276 467.559 322.517 468.101 322.906 468.529C323.895 469.565 325.107 470.364 326.449 470.865C327.865 471.437 329.33 471.876 330.827 472.177C333.871 472.788 336.979 473.016 340.079 472.857C343.195 472.714 346.265 472.06 349.169 470.922C349.889 470.632 350.59 470.294 351.266 469.91L353.373 468.777C354.085 468.412 354.825 468.104 355.549 467.766C356.285 467.455 357.04 467.191 357.785 466.902C360.805 465.841 363.939 465.14 367.123 464.813C370.316 464.457 373.54 464.47 376.73 464.851C377.53 464.943 378.327 465.064 379.121 465.208C379.873 465.365 380.633 465.481 381.397 465.554C382.887 465.676 384.386 465.571 385.844 465.242C387.27 464.964 388.625 464.398 389.824 463.579C391.024 462.759 392.044 461.703 392.822 460.476C394.229 457.971 394.252 454.816 393.706 451.838C393.415 450.327 393.005 448.841 392.482 447.394C391.974 445.933 391.362 444.511 390.651 443.139L390.735 443.253C389.914 442.222 389.295 441.045 388.909 439.786C388.508 438.556 388.346 437.262 388.429 435.972C388.514 434.703 388.803 433.457 389.286 432.281C389.519 431.699 389.791 431.135 390.1 430.59C390.423 430.057 390.787 429.55 391.126 429.034C391.14 429.012 391.163 428.995 391.19 428.989C391.216 428.983 391.244 428.987 391.268 429C391.291 429.014 391.309 429.036 391.316 429.062C391.324 429.088 391.321 429.116 391.309 429.14L391.303 429.152Z" fill="#020202"/>
<path d="M426.274 430.425C427.424 433.757 427.594 437.349 426.762 440.774C426.541 441.648 426.217 442.492 425.796 443.29C425.416 444.03 425.068 444.802 424.746 445.577C424.107 447.127 423.58 448.72 423.17 450.345C422.382 453.547 422.15 456.995 423.423 459.848C424.697 462.687 427.619 464.512 430.731 465.243C432.312 465.599 433.941 465.693 435.552 465.522C435.957 465.479 436.361 465.415 436.763 465.341L438.052 465.111C438.914 464.972 439.779 464.86 440.646 464.774C444.107 464.443 447.596 464.527 451.037 465.024C454.47 465.508 457.828 466.427 461.03 467.757C461.812 468.128 462.622 468.446 463.382 468.862C464.14 469.264 464.921 469.703 465.66 470.077C467.154 470.853 468.733 471.451 470.366 471.859C471.994 472.292 473.658 472.576 475.337 472.709C477.013 472.859 478.697 472.886 480.377 472.789C483.707 472.682 486.996 472.019 490.108 470.826C491.553 470.311 492.837 469.426 493.831 468.258C494.015 468.025 494.15 467.757 494.229 467.471C494.308 467.184 494.329 466.885 494.29 466.59C494.145 465.945 493.823 465.352 493.359 464.88C492.253 463.748 490.964 462.811 489.547 462.107C488.815 461.73 488.071 461.36 487.315 461.015C486.537 460.694 485.787 460.36 484.988 460.047C478.616 457.501 472.208 455.061 465.971 451.998C464.4 451.226 462.874 450.366 461.4 449.421C459.915 448.437 458.564 447.266 457.38 445.935C455.193 443.202 453.485 440.118 452.328 436.814L452.318 436.79C452.311 436.773 452.307 436.755 452.304 436.736L451.723 432.001C451.719 431.973 451.727 431.946 451.743 431.924C451.759 431.902 451.784 431.887 451.811 431.883C451.838 431.878 451.865 431.884 451.888 431.899C451.911 431.915 451.927 431.938 451.932 431.965L452.939 436.629L452.915 436.552C454.465 439.592 456.038 442.666 458.364 445.022C460.815 447.294 463.658 449.103 466.755 450.36C469.838 451.764 473.041 452.965 476.231 454.209C479.418 455.461 482.635 456.656 485.821 457.932C489.031 459.248 492.374 460.605 495.002 463.492C495.713 464.278 496.187 465.251 496.367 466.296C496.502 467.422 496.188 468.556 495.493 469.451C494.256 470.913 492.644 472.01 490.831 472.626C489.162 473.251 487.431 473.696 485.668 473.953C480.455 474.778 475.123 474.408 470.074 472.871C468.396 472.366 466.784 471.666 465.269 470.786L463.031 469.533C462.294 469.112 461.507 468.788 460.746 468.41C457.636 467.023 454.329 466.129 450.944 465.758C447.567 465.397 444.158 465.49 440.806 466.035C439.972 466.168 439.142 466.323 438.319 466.504L437.088 466.796C436.652 466.903 436.212 466.998 435.767 467.071C433.974 467.379 432.139 467.359 430.353 467.01C428.54 466.663 426.818 465.944 425.297 464.898C423.725 463.835 422.484 462.35 421.716 460.614C420.999 458.903 420.665 457.056 420.737 455.202C420.805 453.415 421.093 451.643 421.594 449.926C422.083 448.238 422.716 446.595 423.486 445.014C423.865 444.225 424.265 443.452 424.712 442.689C425.132 441.989 425.467 441.241 425.708 440.461C426.216 438.868 426.498 437.211 426.547 435.54C426.574 433.841 426.413 432.144 426.069 430.481C426.063 430.454 426.068 430.426 426.082 430.403C426.097 430.38 426.119 430.363 426.145 430.356C426.172 430.349 426.2 430.352 426.224 430.365C426.248 430.378 426.266 430.4 426.274 430.425L426.274 430.425Z" fill="#020202"/>
<path d="M423.365 461.647C428.32 470.526 442.664 462.724 451.989 465.525C453.327 465.927 453.586 465.805 453.586 465.805C453.586 465.805 459.515 449.181 467.43 449.698C467.43 449.698 480.451 452.257 482.238 456.086C482.238 456.086 471.868 465.555 472.695 472.972C492.608 475.046 495.373 467.703 495.373 467.703C499.312 475.362 483.993 479.479 473.557 476.32C464.781 473.663 447.707 467.703 447.707 467.703V472.682L441.388 475.362H423.313L426.069 469.363C420.835 465.15 423.365 461.647 423.365 461.647Z" fill="#020202"/>
<path d="M321.196 467.703C321.196 467.703 323.961 475.046 343.874 472.972C344.702 465.554 334.332 456.086 334.332 456.086C336.119 452.257 349.14 449.698 349.14 449.698C357.054 449.181 362.984 465.805 362.984 465.805C362.984 465.805 363.243 465.927 364.58 465.525C373.905 462.724 388.25 470.526 393.205 461.646C393.205 461.646 395.734 465.15 390.5 469.362L393.257 475.362H375.181L368.862 472.681V467.703C368.862 467.703 351.788 473.663 343.012 476.32C332.576 479.479 317.258 475.362 321.196 467.703Z" fill="#020202"/>
<path d="M369.397 126.013C369.654 123.028 369.819 120.078 369.942 117.127C370.039 114.177 370.129 111.234 370.087 108.289C370.082 106.817 370.07 105.343 370.012 103.871L369.954 101.66L369.853 99.448C369.74 96.4926 369.501 93.5447 369.397 90.542C370.298 93.4027 370.954 96.335 371.357 99.3071C371.78 102.279 372.002 105.276 372.021 108.279C372.035 111.282 371.841 114.283 371.441 117.26C371.078 120.243 370.393 123.178 369.397 126.013Z" fill="#020202"/>
<path d="M389.577 111.717C390.252 111.365 390.888 110.943 391.476 110.459C392.058 109.992 392.616 109.494 393.146 108.968C393.697 108.461 394.201 107.9 394.744 107.364C395.269 106.811 395.795 106.25 396.391 105.716C396.128 106.463 395.773 107.175 395.334 107.835C394.894 108.497 394.386 109.11 393.816 109.665C393.243 110.227 392.593 110.707 391.886 111.089C391.186 111.5 390.389 111.716 389.577 111.717Z" fill="#020202"/>
<path d="M377.654 97.639C377.578 98.1502 377.468 98.6096 377.381 99.0561C377.289 99.4607 377.251 99.8756 377.266 100.29C377.267 100.454 377.308 100.615 377.383 100.76C377.459 100.905 377.568 101.029 377.702 101.124C378.087 101.365 378.5 101.56 378.931 101.704C378.439 101.932 377.879 101.966 377.363 101.798C377.213 101.763 377.074 101.692 376.957 101.591C376.822 101.501 376.705 101.386 376.614 101.252C376.432 100.992 376.324 100.686 376.302 100.369C376.279 99.8215 376.407 99.2779 376.674 98.7989C376.908 98.3427 377.243 97.946 377.654 97.639Z" fill="#020202"/>
<path d="M377.851 105.304C378.883 105.345 379.912 105.439 380.935 105.587C381.396 105.651 381.862 105.665 382.326 105.628C382.553 105.608 382.77 105.523 382.951 105.383C383.131 105.243 383.268 105.055 383.344 104.839C383.373 104.98 383.391 105.123 383.398 105.267C383.377 105.422 383.335 105.573 383.274 105.717C383.182 105.853 383.078 105.981 382.964 106.098C382.837 106.19 382.695 106.266 382.553 106.349C382.005 106.557 381.414 106.626 380.833 106.549C380.289 106.487 379.756 106.348 379.251 106.139C378.74 105.941 378.267 105.659 377.851 105.304Z" fill="#020202"/>
<path d="M451.533 286.188C451.39 292.234 451.219 298.277 451.127 304.319C451.058 310.352 450.878 316.422 451.138 322.393C451.645 334.374 455.821 345.794 458.597 357.621C460.053 363.525 461.298 369.46 462.393 375.43C463.485 381.4 464.481 387.392 465.236 393.423C465.981 399.454 466.56 405.517 466.8 411.613C467.107 417.737 466.907 423.876 466.203 429.967L466.195 430.029C466.164 430.264 466.071 430.486 465.925 430.673C465.778 430.86 465.585 431.004 465.364 431.09C464.218 431.522 463.039 431.862 461.839 432.107C460.689 432.365 459.539 432.557 458.387 432.724C456.084 433.045 453.78 433.242 451.477 433.341C446.889 433.519 442.293 433.402 437.719 432.99C428.636 432.07 419.682 431.15 410.627 430.566C406.109 430.269 401.586 430.052 397.059 429.913C394.795 429.851 392.531 429.797 390.266 429.775C388.01 429.763 385.702 429.713 383.43 429.551C378.87 429.245 374.346 428.534 369.912 427.429C365.487 426.297 361.166 424.79 356.997 422.925C356.913 422.888 356.843 422.826 356.795 422.748C356.747 422.67 356.725 422.579 356.73 422.488L356.731 422.479C357.528 409.232 357.726 395.944 357.726 382.679C357.678 369.411 357.41 356.15 356.643 342.941L356.334 337.989C356.222 336.34 356.038 334.699 355.894 333.054C355.641 329.756 355.17 326.496 354.749 323.226C354.579 321.581 354.205 319.986 353.923 318.367C353.618 316.75 353.342 315.15 352.968 313.496C352.293 310.209 351.792 306.888 351.467 303.548C350.908 296.895 350.738 290.214 350.957 283.541C351.108 276.889 351.407 270.23 352.144 263.62C352.148 263.583 352.166 263.548 352.195 263.524C352.224 263.5 352.261 263.489 352.299 263.491C352.337 263.494 352.371 263.512 352.397 263.54C352.422 263.568 352.435 263.604 352.433 263.642C352.161 270.278 352.084 276.908 352.277 283.538C352.361 286.85 352.436 290.175 352.563 293.48C352.702 296.774 352.971 300.061 353.404 303.324C353.829 306.588 354.423 309.824 355.136 313.028C355.523 314.608 355.844 316.275 356.183 317.916C356.5 319.563 356.911 321.202 357.111 322.86L357.838 327.826C358.098 329.482 358.201 331.146 358.39 332.806C358.549 334.467 358.749 336.127 358.875 337.789L359.227 342.778C360.096 356.087 360.086 369.413 359.653 382.706C359.244 396.003 358.483 409.272 357.64 422.541L357.374 422.096C365.606 425.838 374.466 428.003 383.496 428.476C385.753 428.608 387.984 428.576 390.264 428.535C392.536 428.497 394.809 428.491 397.082 428.494C401.628 428.513 406.173 428.603 410.718 428.762C415.262 428.923 419.805 429.146 424.342 429.457C428.866 429.751 433.438 430.206 437.903 430.522C442.378 430.823 446.866 430.868 451.345 430.655C453.574 430.534 455.792 430.317 457.979 429.987C459.071 429.817 460.158 429.622 461.218 429.371C462.239 429.15 463.242 428.854 464.22 428.486L463.381 429.608C463.995 423.674 464.119 417.699 463.752 411.744C463.45 405.762 462.917 399.784 462.154 393.81C460.646 381.881 458.541 369.991 455.973 358.238C454.668 352.355 453.144 346.527 451.757 340.607C451.078 337.645 450.445 334.649 450.032 331.611C449.624 328.577 449.388 325.523 449.323 322.462C449.278 316.344 449.608 310.322 449.953 304.274C450.334 298.235 450.73 292.2 451.243 286.172C451.247 286.135 451.264 286.1 451.293 286.075C451.321 286.05 451.358 286.037 451.396 286.039C451.434 286.042 451.469 286.058 451.495 286.086C451.52 286.114 451.534 286.151 451.533 286.188L451.533 286.188Z" fill="#020202"/>
<path d="M331.581 123.491L349.572 98.5487" stroke="#020202" stroke-width="2.90331" stroke-linecap="round" stroke-linejoin="round"/>
<path d="M414.832 121.444C396.193 121.879 363.095 170.49 363.095 170.49L363.037 171.042L362.05 179.897C362.05 179.897 361.516 183.88 363.579 194.317L363.569 194.394C364.663 193.988 365.747 193.61 366.811 193.252C371.539 191.749 376.484 191.043 381.444 191.162C387.105 191.075 388.628 191.846 393.796 192.804C399.864 193.936 410.91 199.818 410.91 199.818C412.044 198.73 413.243 197.713 414.502 196.772C422.745 172.936 428.834 148.409 432.697 123.486C425.652 115.86 414.832 121.444 414.832 121.444ZM393.144 174.207C392.504 174.084 391.892 173.848 391.334 173.51C390.776 173.185 390.305 172.73 389.96 172.184C391.038 172.669 392.168 173.029 393.328 173.258C393.893 173.369 394.466 173.44 395.041 173.471C395.622 173.529 396.212 173.5 396.86 173.549C395.753 174.238 394.422 174.474 393.144 174.207H393.144Z" fill="#020202"/>
<path d="M203.997 95.4712C205.047 96.0527 206.035 96.7393 206.946 97.5205C207.843 98.2769 208.693 99.0863 209.493 99.9445C210.296 100.801 211.045 101.705 211.737 102.652C212.454 103.615 213.07 104.649 213.575 105.738C212.524 105.158 211.535 104.472 210.624 103.69C209.727 102.934 208.877 102.124 208.079 101.265C207.278 100.407 206.529 99.5023 205.837 98.5552C205.121 97.5921 204.504 96.5588 203.997 95.4712Z" fill="#020202"/>
<path d="M349.572 253.135C350.625 253.739 351.615 254.446 352.526 255.248C353.424 256.024 354.276 256.854 355.075 257.731C355.878 258.606 356.626 259.529 357.317 260.494C358.033 261.475 358.647 262.526 359.15 263.631C358.095 263.03 357.105 262.322 356.193 261.52C355.295 260.744 354.444 259.914 353.646 259.035C352.845 258.159 352.097 257.235 351.406 256.27C350.691 255.289 350.076 254.239 349.572 253.135Z" fill="#020202"/>
<path d="M320.255 104.109C320.366 103.094 320.598 102.096 320.944 101.136C321.271 100.202 321.665 99.2931 322.121 98.4153C322.574 97.5362 323.091 96.691 323.666 95.8865C324.252 95.0499 324.936 94.2866 325.704 93.613C325.595 94.6285 325.364 95.6272 325.017 96.5877C324.69 97.5214 324.296 98.4301 323.838 99.3069C323.383 100.185 322.865 101.03 322.29 101.835C321.704 102.67 321.021 103.434 320.255 104.109Z" fill="#020202"/>
<path d="M375.961 96.1525C376.379 96.138 376.775 95.9617 377.066 95.6607C377.357 95.3597 377.519 94.9577 377.519 94.5392C377.519 94.1208 377.357 93.7187 377.066 93.4177C376.775 93.1168 376.379 92.9405 375.961 92.926C375.543 92.9405 375.147 93.1168 374.856 93.4177C374.565 93.7187 374.403 94.1208 374.403 94.5392C374.403 94.9577 374.565 95.3597 374.856 95.6607C375.147 95.9617 375.543 96.138 375.961 96.1525Z" fill="#020202"/>
<path d="M384.754 96.7119C385.172 96.6975 385.568 96.5211 385.859 96.2202C386.15 95.9192 386.312 95.5171 386.312 95.0987C386.312 94.6802 386.15 94.2781 385.859 93.9771C385.568 93.6762 385.172 93.4999 384.754 93.4854C384.336 93.4999 383.939 93.6762 383.649 93.9771C383.358 94.2781 383.195 94.6802 383.195 95.0987C383.195 95.5171 383.358 95.9192 383.649 96.2202C383.939 96.5211 384.336 96.6975 384.754 96.7119Z" fill="#020202"/>
<path d="M372.527 90.9087C373.425 90.5447 374.39 90.3772 375.357 90.4175C376.325 90.4577 377.273 90.7048 378.137 91.142" stroke="#020202" stroke-width="1.0755" stroke-linecap="round" stroke-linejoin="round"/>
<path d="M383.649 91.3713C385.193 90.8063 386.897 90.8772 388.388 91.5684" stroke="#020202" stroke-width="1.0755" stroke-linecap="round" stroke-linejoin="round"/>
<path d="M380.649 90.3638C381.026 90.3508 381.382 90.1921 381.644 89.9213C381.905 89.6505 382.052 89.2887 382.052 88.9122C382.052 88.5356 381.905 88.1738 381.644 87.903C381.382 87.6322 381.026 87.4735 380.649 87.4605C380.273 87.4735 379.916 87.6322 379.655 87.903C379.393 88.1738 379.247 88.5356 379.247 88.9122C379.247 89.2887 379.393 89.6505 379.655 89.9213C379.916 90.1921 380.273 90.3508 380.649 90.3638Z" fill="#B21919"/>
<path d="M380.892 78.0278L381.089 74.9102" stroke="#B21919" stroke-width="1.93554" stroke-linecap="round" stroke-linejoin="round"/>
<path d="M411.484 210.7C412.373 210.318 413.142 209.701 413.709 208.916C414.275 208.131 414.617 207.207 414.699 206.242C414.687 205.281 414.467 204.334 414.054 203.466C413.641 202.597 413.045 201.829 412.307 201.212C411.583 200.579 410.775 200.048 409.905 199.635C409.041 199.18 408.165 198.74 407.281 198.323C405.513 197.486 403.712 196.731 401.88 196.057C394.584 193.349 386.863 191.967 379.081 191.975C375.2 191.959 371.335 192.47 367.592 193.495C365.718 194.032 363.883 194.693 362.097 195.473C360.296 196.203 358.583 197.137 356.994 198.256C355.427 199.383 354.158 200.875 353.297 202.602C352.481 204.351 352.022 206.245 351.946 208.173C351.844 210.091 352.201 212.004 352.986 213.756C353.821 215.467 355.057 216.952 356.589 218.084C359.732 220.36 363.15 222.23 366.761 223.652C370.349 225.152 374.054 226.353 377.84 227.243C381.611 228.147 385.458 228.704 389.331 228.906C393.209 229.09 397.095 229.001 400.961 228.639C404.772 228.247 408.689 227.572 411.863 225.758C412.621 225.315 413.295 224.743 413.856 224.068C414.395 223.414 414.777 222.646 414.974 221.822C415.061 221.467 415.049 221.095 414.938 220.746C414.828 220.397 414.624 220.085 414.348 219.844C413.68 219.256 412.898 218.811 412.051 218.537C410.221 217.929 408.333 217.51 406.417 217.287C405.452 217.146 404.479 217.112 403.45 216.866C402.898 216.75 402.397 216.461 402.019 216.042C401.668 215.612 401.456 215.086 401.411 214.532C401.359 214 401.438 213.462 401.642 212.968C401.832 212.453 402.216 212.033 402.713 211.799C403.642 211.413 404.626 211.174 405.629 211.09C406.62 210.985 407.605 210.963 408.589 210.939C409.559 210.963 410.53 210.883 411.484 210.7ZM411.561 210.877C410.587 211.086 409.592 211.186 408.596 211.173C407.617 211.191 406.639 211.258 405.666 211.374C404.708 211.489 403.774 211.749 402.895 212.146C402.628 212.339 402.405 212.586 402.239 212.87C402.072 213.154 401.967 213.469 401.928 213.796C401.89 214.123 401.92 214.454 402.016 214.769C402.112 215.083 402.272 215.375 402.486 215.625C402.793 215.922 403.188 216.113 403.611 216.17C404.511 216.332 405.519 216.318 406.507 216.4C408.515 216.509 410.507 216.82 412.453 217.328C413.503 217.599 414.484 218.086 415.335 218.757C415.815 219.152 416.187 219.662 416.414 220.24C416.624 220.83 416.682 221.464 416.584 222.082C416.392 223.195 415.939 224.245 415.263 225.149C414.594 226.014 413.778 226.755 412.851 227.338C411.077 228.411 409.143 229.193 407.122 229.656C405.165 230.137 403.178 230.483 401.173 230.692C397.202 231.086 393.205 231.162 389.221 230.92C381.243 230.349 373.429 228.365 366.146 225.059C364.329 224.244 362.557 223.333 360.837 222.33C359.094 221.339 357.445 220.191 355.911 218.899C354.313 217.614 353.048 215.964 352.222 214.088C351.474 212.199 351.148 210.169 351.266 208.14C351.373 206.126 351.882 204.153 352.761 202.338C353.674 200.533 354.993 198.965 356.615 197.756C358.222 196.573 359.95 195.565 361.77 194.748C363.553 193.866 365.392 193.103 367.275 192.465C371.081 191.221 375.041 190.514 379.041 190.365C387.051 190.096 395.017 191.658 402.333 194.93C404.151 195.732 405.93 196.609 407.669 197.562C408.539 198.037 409.394 198.531 410.243 199.045C411.126 199.532 411.938 200.139 412.657 200.846C413.397 201.538 413.984 202.377 414.381 203.308C414.778 204.24 414.977 205.244 414.964 206.257C414.864 207.262 414.496 208.221 413.897 209.034C413.298 209.847 412.491 210.484 411.561 210.877H411.561Z" fill="#020202"/>
<path d="M388.412 212.995C387.531 213.701 386.418 213.479 384.579 213.111C382.59 212.905 380.738 212 379.354 210.556C378.792 209.888 377.873 208.795 378.192 207.537C378.365 207.007 378.687 206.539 379.119 206.189C379.552 205.838 380.077 205.621 380.631 205.562C381.695 205.466 382.141 206.143 383.65 206.956C386.689 208.601 388.267 207.701 389.109 209.046C389.448 209.688 389.563 210.425 389.437 211.14C389.311 211.855 388.95 212.508 388.412 212.995Z" fill="#020202"/>
<path d="M359.44 208.236C363.177 208.236 363.183 202.429 359.44 202.429C355.704 202.429 355.698 208.236 359.44 208.236Z" fill="#020202"/>
<path d="M362.053 217.12C365.79 217.12 365.796 211.313 362.053 211.313C358.317 211.313 358.311 217.12 362.053 217.12Z" fill="#020202"/>
<path d="M372.157 222.52C375.893 222.52 375.899 216.714 372.157 216.714C368.421 216.714 368.414 222.52 372.157 222.52Z" fill="#020202"/>
<path d="M384.002 225.656C387.739 225.656 387.745 219.849 384.002 219.849C380.266 219.849 380.26 225.656 384.002 225.656Z" fill="#020202"/>
<path d="M396.196 226.178C399.933 226.178 399.939 220.372 396.196 220.372C392.46 220.372 392.454 226.178 396.196 226.178Z" fill="#020202"/>
<path d="M368.15 201.791C371.887 201.791 371.893 195.984 368.15 195.984C364.414 195.984 364.408 201.791 368.15 201.791Z" fill="#020202"/>
<path d="M380.693 200.397C384.429 200.397 384.435 194.59 380.693 194.59C376.956 194.59 376.95 200.397 380.693 200.397Z" fill="#020202"/>
<path d="M393.409 202.313C397.145 202.313 397.152 196.507 393.409 196.507C389.673 196.507 389.667 202.313 393.409 202.313Z" fill="#020202"/>
<path d="M407.171 208.759C410.907 208.759 410.913 202.952 407.171 202.952C403.434 202.952 403.428 208.759 407.171 208.759Z" fill="#020202"/>
<path d="M313.324 473.607C308.418 441.516 303.985 409.37 299.524 377.228L293.049 328.989C290.886 312.909 288.876 296.813 286.782 280.725L283.67 256.591L280.667 232.445L274.688 184.148L263.186 87.5018L273.788 87.1612L268.542 183.826L265.688 232.147L264.248 256.306L262.698 280.46C261.646 296.562 260.676 312.668 259.555 328.766L256.203 377.061C253.822 409.25 251.471 441.441 248.641 473.607C249.117 441.32 250.071 409.058 250.995 376.794L252.601 328.409C253.133 312.281 253.816 296.16 254.416 280.036L255.345 255.85L256.384 231.67L258.488 183.311L263.157 86.6161L273.76 86.2755L284.684 182.989L289.918 231.372L292.52 255.565L295.015 279.77C296.659 295.91 298.386 312.04 299.961 328.187L304.699 376.627C307.713 408.938 310.756 441.245 313.324 473.607Z" fill="#020202"/>
<path d="M274.388 81.7947H262.62C260.482 81.7947 258.749 83.5279 258.749 85.6658V90.6117C258.749 92.7496 260.482 94.4827 262.62 94.4827H274.388C276.526 94.4827 278.26 92.7496 278.26 90.6117V85.6658C278.26 83.5279 276.526 81.7947 274.388 81.7947Z" fill="#020202"/>
<path d="M358.161 408.403C367.02 410.079 375.92 411.562 384.842 412.761C389.298 413.386 393.769 413.905 398.231 414.228C399.347 414.309 400.463 414.389 401.572 414.403C402.684 414.444 403.794 414.475 404.883 414.413C405.424 414.382 405.99 414.407 406.509 414.331L408.066 414.117C409.234 413.893 410.417 413.759 411.606 413.717C413.906 413.65 416.208 413.708 418.502 413.891C420.775 414.044 423.033 414.247 425.286 414.465C429.787 414.937 434.262 415.482 438.709 416.098C443.16 416.706 447.606 417.269 452.054 417.623C454.272 417.81 456.498 417.884 458.723 417.844C460.942 417.862 463.148 417.499 465.244 416.77L465.252 416.767C465.286 416.754 465.323 416.754 465.357 416.768C465.39 416.781 465.418 416.806 465.434 416.838C465.45 416.871 465.453 416.908 465.443 416.943C465.434 416.977 465.411 417.007 465.38 417.026C463.359 418.153 461.139 418.879 458.843 419.164C456.573 419.487 454.285 419.654 451.993 419.664C447.446 419.677 442.901 419.45 438.378 418.983C433.869 418.566 429.4 417.918 424.945 417.319C420.552 416.599 416.115 416.171 411.665 416.039C410.598 416.041 409.533 416.125 408.479 416.292L406.679 416.484C406.079 416.548 405.512 416.503 404.927 416.517C403.761 416.545 402.618 416.476 401.478 416.397C400.333 416.345 399.202 416.227 398.071 416.108C393.55 415.634 389.074 414.967 384.62 414.196C375.72 412.609 366.888 410.744 358.1 408.687C358.062 408.679 358.03 408.656 358.01 408.623C357.99 408.591 357.983 408.552 357.991 408.515C357.999 408.478 358.021 408.445 358.053 408.425C358.085 408.404 358.124 408.396 358.161 408.403H358.161Z" fill="#020202"/>
<path d="M363.094 420.089C366.831 420.089 366.837 414.282 363.094 414.282C359.358 414.282 359.352 420.089 363.094 420.089Z" fill="#020202"/>
<path d="M372.849 422.179C376.586 422.179 376.592 416.373 372.849 416.373C369.113 416.373 369.107 422.179 372.849 422.179Z" fill="#020202"/>
<path d="M383.766 424.27C387.502 424.27 387.508 418.463 383.766 418.463C380.03 418.463 380.023 424.27 383.766 424.27Z" fill="#020202"/>
<path d="M395.612 425.199C399.348 425.199 399.354 419.392 395.612 419.392C391.875 419.392 391.869 425.199 395.612 425.199Z" fill="#020202"/>
<path d="M408.618 424.734C412.355 424.734 412.361 418.928 408.618 418.928C404.882 418.928 404.876 424.734 408.618 424.734Z" fill="#020202"/>
<path d="M421.625 426.592C425.362 426.592 425.368 420.786 421.625 420.786C417.889 420.786 417.883 426.592 421.625 426.592Z" fill="#020202"/>
<path d="M434.864 428.451C438.601 428.451 438.607 422.644 434.864 422.644C431.128 422.644 431.122 428.451 434.864 428.451Z" fill="#020202"/>
<path d="M447.174 427.986C450.911 427.986 450.917 422.179 447.174 422.179C443.438 422.179 443.432 427.986 447.174 427.986Z" fill="#020202"/>
<path d="M459.717 426.592C463.453 426.592 463.459 420.786 459.717 420.786C455.98 420.786 455.974 426.592 459.717 426.592Z" fill="#020202"/>
<path d="M431.458 172.785C431.834 172.772 432.191 172.613 432.452 172.342C432.714 172.071 432.86 171.71 432.86 171.333C432.86 170.956 432.714 170.595 432.452 170.324C432.191 170.053 431.834 169.894 431.458 169.881C431.081 169.894 430.725 170.053 430.463 170.324C430.202 170.595 430.055 170.956 430.055 171.333C430.055 171.71 430.202 172.071 430.463 172.342C430.725 172.613 431.081 172.772 431.458 172.785Z" fill="#020202"/>
<path d="M437.497 172.669C437.873 172.656 438.23 172.497 438.491 172.226C438.753 171.955 438.899 171.593 438.899 171.217C438.899 170.84 438.753 170.478 438.491 170.208C438.23 169.937 437.873 169.778 437.497 169.765C437.12 169.778 436.764 169.937 436.502 170.208C436.24 170.478 436.094 170.84 436.094 171.217C436.094 171.593 436.24 171.955 436.502 172.226C436.764 172.497 437.12 172.656 437.497 172.669Z" fill="#020202"/>
<path d="M444.116 172.669C444.493 172.656 444.849 172.497 445.111 172.226C445.372 171.955 445.519 171.593 445.519 171.217C445.519 170.84 445.372 170.478 445.111 170.208C444.849 169.937 444.493 169.778 444.116 169.765C443.74 169.778 443.383 169.937 443.122 170.208C442.86 170.478 442.714 170.84 442.714 171.217C442.714 171.593 442.86 171.955 443.122 172.226C443.383 172.497 443.74 172.656 444.116 172.669Z" fill="#020202"/>
<path d="M450.078 172.669C450.454 172.656 450.811 172.497 451.072 172.226C451.334 171.955 451.48 171.593 451.48 171.217C451.48 170.84 451.334 170.478 451.072 170.208C450.811 169.937 450.454 169.778 450.078 169.765C449.701 169.778 449.345 169.937 449.083 170.208C448.822 170.478 448.675 170.84 448.675 171.217C448.675 171.593 448.822 171.955 449.083 172.226C449.345 172.497 449.701 172.656 450.078 172.669Z" fill="#020202"/>
<path d="M369.312 266.728H220.562" stroke="#020202" stroke-width="7.74217" stroke-linecap="round" stroke-linejoin="round"/>
<path d="M260.525 263.872L261.854 262.996C261.29 263.042 260.725 263.048 260.161 263.016C258.556 262.885 256.975 262.556 255.451 262.037C253.515 261.331 251.643 260.457 249.857 259.427L250.238 261.364C251.628 262.429 253.173 263.273 254.819 263.866C256.455 264.423 258.184 264.651 259.908 264.537L260.525 263.872Z" fill="#020202"/>
</svg>
