<svg width="700" height="550" viewBox="0 0 700 550" fill="none" xmlns="http://www.w3.org/2000/svg">
<path d="M364.423 347.399C364.458 347.473 364.482 347.552 364.496 347.633L364.545 347.942L364.642 348.561L364.823 349.801L365.146 352.284C365.342 353.942 365.516 355.602 365.679 357.264C365.995 360.588 366.282 363.915 366.477 367.248C366.885 373.913 367.155 380.584 367.285 387.262C367.412 393.938 367.388 400.614 367.339 407.29C367.294 410.627 367.243 413.965 367.143 417.301L366.778 427.306L366.125 426.478L408.91 435.097L430.322 439.303L441.04 441.327L446.405 442.284L449.089 442.722L450.428 442.913L451.089 442.988L451.405 443.012L451.546 443.015C451.581 443.02 451.632 442.999 451.547 443.03L451.45 443.082C454.119 441.331 456.834 439.696 459.58 438.096C462.333 436.513 465.137 435.016 468.009 433.656C470.86 432.237 473.809 431.023 476.833 430.024C478.357 429.533 479.911 429.14 481.485 428.848C483.08 428.533 484.711 428.443 486.33 428.578L485.837 429.043C485.343 421.594 484.806 414.148 484.225 406.704L482.471 384.378C481.853 376.941 481.229 369.504 480.476 362.086C480.099 358.377 479.696 354.672 479.216 350.985C478.974 349.142 478.714 347.303 478.402 345.486C478.245 344.579 478.073 343.676 477.872 342.798C477.771 342.362 477.663 341.927 477.536 341.528C477.479 341.344 477.412 341.162 477.336 340.985C477.301 340.91 477.269 340.851 477.247 340.814C477.254 340.802 477.191 340.812 477.457 340.952L477.829 341.033C467.67 340.788 457.484 340.739 447.325 340.982C442.246 341.126 437.167 341.291 432.115 341.673C429.59 341.867 427.07 342.112 424.586 342.49C423.346 342.682 422.112 342.905 420.919 343.209C419.792 343.434 418.721 343.878 417.766 344.516L417.734 344.542C417.608 344.648 417.45 344.71 417.286 344.72C408.568 345.236 399.825 345.647 391.029 346.093L364.423 347.399ZM364.272 347.277L390.555 345.18C399.387 344.491 408.273 343.768 417.185 343.149L416.705 343.353C417.834 342.516 419.128 341.93 420.502 341.634C421.773 341.291 423.045 341.044 424.318 340.828C426.865 340.403 429.414 340.119 431.965 339.886C437.065 339.428 442.169 339.167 447.272 339.031C457.481 338.754 467.675 338.772 477.884 338.986L477.933 338.987C478.045 338.99 478.155 339.017 478.256 339.067C478.547 339.201 478.791 339.418 478.959 339.69C479.05 339.833 479.131 339.982 479.201 340.136C479.311 340.387 479.408 340.643 479.49 340.903C479.647 341.394 479.765 341.866 479.875 342.339C480.088 343.281 480.254 344.215 480.409 345.148C480.713 347.013 480.961 348.874 481.19 350.735C481.643 354.457 482.017 358.179 482.366 361.902C483.052 369.348 483.651 376.797 484.163 384.25C484.669 391.703 485.162 399.157 485.565 406.615L486.721 428.993C486.728 429.109 486.688 429.224 486.611 429.312C486.534 429.399 486.425 429.453 486.308 429.46C486.281 429.461 486.254 429.46 486.227 429.457C483.112 429.225 479.983 429.64 477.037 430.675C474.032 431.634 471.1 432.805 468.262 434.181C465.423 435.565 462.657 437.099 459.94 438.711C457.222 440.318 454.56 442.042 452 443.87L451.983 443.883C451.959 443.9 451.932 443.914 451.904 443.923C451.795 443.96 451.682 443.979 451.568 443.978L451.367 443.975L451.003 443.952L450.308 443.879L448.944 443.696L446.24 443.279L440.854 442.367L430.109 440.434L408.655 436.409C394.362 433.676 380.072 430.936 365.804 428.074C365.616 428.036 365.447 427.933 365.327 427.783C365.208 427.633 365.145 427.445 365.15 427.254L365.151 427.245L365.432 417.254L365.663 407.263C365.781 400.602 365.873 393.94 365.816 387.279C365.797 380.617 365.735 373.954 365.482 367.297C365.349 363.969 365.232 360.64 365.038 357.314C364.941 355.651 364.832 353.989 364.703 352.328L364.272 347.277Z" fill="#020202"/>
<path d="M365.579 347.285C363.781 344.907 362.07 342.472 360.317 340.063C360.265 339.99 360.237 339.903 360.24 339.813C360.242 339.723 360.274 339.637 360.331 339.568L360.35 339.544C362.429 337.033 364.734 334.718 367.237 332.629C369.73 330.511 372.411 328.625 375.245 326.992C378.107 325.355 381.153 324.063 384.319 323.144C387.515 322.228 390.837 321.834 394.158 321.98L394.182 321.981C394.33 321.989 394.474 322.035 394.599 322.115C394.724 322.194 394.826 322.305 394.896 322.436C396.765 325.975 398.597 329.534 400.391 333.113C401.295 334.899 402.179 336.697 403.042 338.505C403.913 340.308 404.793 342.108 405.622 343.935C404.535 342.248 403.498 340.535 402.454 338.825C401.401 337.12 400.369 335.405 399.356 333.678C397.319 330.231 395.318 326.764 393.355 323.277L394.092 323.734C390.963 323.694 387.846 324.118 384.842 324.991C381.818 325.873 378.901 327.087 376.145 328.612C373.358 330.131 370.695 331.866 368.18 333.802C365.644 335.732 363.247 337.839 361.008 340.106L361.04 339.588C362.555 342.153 364.111 344.69 365.579 347.285Z" fill="#020202"/>
<path d="M407.364 343.935C407.964 341.592 408.815 339.32 409.903 337.16C410.971 334.968 412.271 332.897 413.78 330.983L414.947 329.562C415.358 329.108 415.801 328.682 416.229 328.24C417.101 327.368 418.023 326.548 418.991 325.784C419.473 325.399 420.008 325.082 420.518 324.731C421.021 324.369 421.548 324.042 422.096 323.752C423.178 323.142 424.306 322.616 425.469 322.179L427.223 321.539C427.814 321.348 428.432 321.252 429.035 321.106L430.878 320.707C431.709 320.595 432.553 320.793 433.248 321.261C433.597 321.496 433.898 321.793 434.136 322.139C434.335 322.447 434.486 322.693 434.651 322.981C434.971 323.544 435.248 324.131 435.479 324.736C435.972 325.981 436.197 327.316 436.138 328.654C436.041 330.021 435.599 331.341 434.853 332.491C434.483 333.044 434.052 333.553 433.568 334.01C433.327 334.232 433.099 334.473 432.846 334.675L432.062 335.238C429.963 336.598 427.658 337.611 425.237 338.238L425.445 338.141C424.034 339.045 422.635 340.048 421.3 341.094C419.946 342.136 418.65 343.25 417.417 344.432C416.706 345.019 415.873 345.44 414.978 345.662C414.083 345.885 413.15 345.905 412.247 345.721C410.518 345.449 408.86 344.842 407.364 343.935ZM407.364 343.935C408.151 344.28 408.965 344.559 409.798 344.769C410.614 344.998 411.453 345.138 412.3 345.186C413.101 345.284 413.914 345.204 414.68 344.95C415.446 344.697 416.147 344.277 416.731 343.72C417.907 342.438 419.152 341.221 420.46 340.074C421.785 338.932 423.142 337.86 424.587 336.837C424.632 336.806 424.68 336.781 424.732 336.763L424.796 336.741C427.005 336.072 429.102 335.076 431.016 333.785L431.683 333.28C431.894 333.102 432.071 332.896 432.267 332.707C432.649 332.332 432.992 331.918 433.29 331.473C433.846 330.595 434.173 329.591 434.241 328.553C434.275 327.482 434.081 326.415 433.674 325.424C433.474 324.908 433.241 324.406 432.975 323.921C432.845 323.687 432.681 323.42 432.558 323.222C432.457 323.071 432.327 322.94 432.177 322.837C431.868 322.624 431.491 322.533 431.119 322.58L429.439 322.934C428.876 323.066 428.298 323.146 427.747 323.319L426.103 323.877C425.006 324.253 423.941 324.714 422.915 325.256C422.394 325.512 421.891 325.805 421.411 326.132C420.925 326.45 420.413 326.732 419.939 327.071C418.035 328.442 416.289 330.022 414.736 331.781C411.583 335.368 409.088 339.482 407.364 343.935Z" fill="#020202"/>
<path d="M351.727 458.808C358.456 458.808 363.911 453.354 363.911 446.625C363.911 439.896 358.456 434.442 351.727 434.442C344.999 434.442 339.544 439.896 339.544 446.625C339.544 453.354 344.999 458.808 351.727 458.808Z" fill="#020202"/>
<path d="M277.865 428.396C278.079 430.114 278.294 431.842 278.451 433.575C278.565 435.31 278.65 437.051 278.63 438.791C278.613 442.27 278.399 445.759 278.177 449.187C277.988 452.575 277.867 456.121 279.68 458.741C280.573 460.059 281.775 461.139 283.181 461.887C284.621 462.607 286.194 463.019 287.801 463.096C288.616 463.14 289.432 463.108 290.241 463.002C291.023 462.894 291.926 462.689 292.792 462.573C294.534 462.315 296.293 462.187 298.054 462.188C301.563 462.193 305.054 462.699 308.421 463.689C310.094 464.196 311.727 464.827 313.305 465.579C314.112 465.917 314.854 466.386 315.632 466.785C316.37 467.208 317.134 467.585 317.92 467.911C321.108 469.148 324.511 469.734 327.928 469.634C331.309 469.627 334.658 468.984 337.801 467.741C338.544 467.432 339.246 467.035 339.893 466.559C340.482 466.161 340.942 465.601 341.218 464.947C341.276 464.81 341.31 464.663 341.32 464.515C341.337 464.458 341.34 464.398 341.327 464.34C341.33 464.289 341.321 464.239 341.301 464.193C341.206 463.909 341.049 463.65 340.84 463.435C340.299 462.854 339.693 462.337 339.035 461.895C337.669 460.932 336.19 460.05 334.709 459.172C333.216 458.295 331.747 457.435 330.228 456.647C327.209 455.039 324.096 453.64 320.909 452.286C317.606 450.994 314.486 449.275 311.63 447.172C308.851 444.923 306.501 442.191 304.695 439.106C301.319 433.017 298.029 426.957 294.822 420.805C294.81 420.783 294.808 420.757 294.815 420.733C294.822 420.709 294.837 420.689 294.859 420.676C294.881 420.664 294.906 420.66 294.93 420.666C294.955 420.672 294.976 420.687 294.989 420.708C298.74 426.524 302.384 432.449 305.986 438.317C307.784 441.164 310.081 443.663 312.767 445.693C315.55 447.618 318.558 449.195 321.724 450.389C324.956 451.712 328.115 453.208 331.186 454.871C332.724 455.707 334.227 456.626 335.701 457.529C337.18 458.445 338.661 459.364 340.106 460.422C340.874 460.963 341.575 461.591 342.196 462.296C342.575 462.72 342.849 463.227 342.997 463.776C343.08 464.09 343.093 464.418 343.034 464.737C343 465.02 342.926 465.295 342.813 465.557C342.399 466.502 341.717 467.305 340.851 467.867C340.086 468.395 339.261 468.828 338.392 469.158C335.037 470.36 331.476 470.882 327.917 470.694C324.393 470.611 320.915 469.88 317.655 468.538C316.848 468.187 316.064 467.786 315.308 467.335C314.552 466.934 313.833 466.461 313.046 466.117C311.503 465.369 309.897 464.759 308.247 464.292C306.593 463.849 304.906 463.537 303.202 463.359C301.5 463.207 299.79 463.176 298.084 463.266C296.383 463.357 294.692 463.571 293.022 463.907C292.178 464.065 291.403 464.291 290.478 464.472C289.578 464.646 288.662 464.725 287.745 464.706C285.879 464.683 284.043 464.24 282.373 463.41C280.695 462.547 279.275 461.257 278.257 459.669C277.27 458.078 276.697 456.265 276.59 454.395C276.487 452.625 276.522 450.85 276.695 449.085C276.987 445.611 277.449 442.206 277.615 438.762C277.701 437.043 277.772 435.321 277.794 433.596L277.673 428.417L277.672 428.41C277.672 428.385 277.681 428.361 277.697 428.343C277.714 428.324 277.737 428.313 277.762 428.311C277.787 428.31 277.811 428.317 277.83 428.333C277.849 428.349 277.862 428.371 277.865 428.396V428.396Z" fill="#020202"/>
<path d="M342.209 465.009C342.209 465.009 339.799 471.426 322.399 469.616C321.683 463.132 330.741 454.867 330.741 454.867C329.967 453.222 326.821 451.838 323.821 450.861C324.066 451.043 324.248 451.297 324.342 451.587C324.436 451.878 324.439 452.19 324.349 452.481C324.259 452.773 324.08 453.029 323.839 453.216C323.597 453.402 323.304 453.509 322.999 453.522C322.622 453.51 322.265 453.351 322.003 453.08C321.741 452.809 321.594 452.447 321.594 452.07C321.594 451.693 321.741 451.331 322.003 451.06C322.265 450.789 322.622 450.631 322.999 450.619H323.028C320.25 449.767 317.802 449.283 317.802 449.283C310.892 448.838 305.714 463.354 305.714 463.354C305.714 463.354 305.492 463.461 304.321 463.112C296.172 460.664 283.649 467.477 279.323 459.725C279.323 459.725 277.107 462.784 281.685 466.461L279.275 471.697H295.059L300.575 469.355V465.009C300.575 465.009 315.489 470.216 323.154 472.539C332.27 475.297 345.645 471.697 342.209 465.009ZM314.289 466.413C313.912 466.4 313.555 466.242 313.293 465.971C313.031 465.7 312.884 465.338 312.884 464.961C312.884 464.584 313.031 464.222 313.293 463.951C313.555 463.68 313.912 463.522 314.289 463.509C314.665 463.522 315.023 463.68 315.285 463.951C315.547 464.222 315.693 464.584 315.693 464.961C315.693 465.338 315.547 465.7 315.285 465.971C315.023 466.242 314.665 466.4 314.289 466.413ZM318.121 459.445C317.744 459.432 317.387 459.274 317.125 459.003C316.863 458.732 316.717 458.37 316.717 457.993C316.717 457.616 316.863 457.254 317.125 456.983C317.387 456.712 317.744 456.554 318.121 456.541C318.498 456.554 318.855 456.712 319.117 456.983C319.379 457.254 319.525 457.616 319.525 457.993C319.525 458.37 319.379 458.732 319.117 459.003C318.855 459.274 318.498 459.432 318.121 459.445V459.445Z" fill="#020202"/>
<path d="M210.321 445.238C208.993 442.487 208.245 439.493 208.124 436.441V436.383C208.153 435.696 208.231 435.008 208.289 434.321C208.347 433.625 208.415 432.937 208.492 432.25C208.496 432.225 208.509 432.203 208.529 432.187C208.548 432.171 208.573 432.162 208.599 432.163C208.647 432.173 208.686 432.202 208.686 432.25C208.773 432.937 208.84 433.625 208.908 434.312C208.976 434.989 209.053 435.657 209.092 436.325C209.375 439.19 210.227 441.97 211.599 444.502C212.934 446.524 214.595 448.309 216.515 449.786C216.854 450.067 217.202 450.348 217.55 450.628C218.896 451.683 220.26 452.738 221.625 453.783C221.268 453.876 220.96 454.103 220.765 454.416C220.571 454.73 220.504 455.106 220.58 455.467C219.167 454.345 217.773 453.203 216.399 452.012C215.721 451.432 215.044 450.832 214.386 450.203C212.781 448.769 211.41 447.094 210.321 445.238Z" fill="#020202"/>
<path d="M237.903 471.213C237.792 471.733 237.567 472.222 237.245 472.645C237.001 472.984 236.711 473.286 236.383 473.545C235.04 474.488 233.477 475.071 231.844 475.239C228.817 475.604 225.749 475.467 222.767 474.832C219.816 474.244 216.949 473.295 214.231 472.006C213.679 471.735 213.128 471.445 212.595 471.135C211.718 470.65 210.874 470.107 210.069 469.51C208.943 468.698 207.911 467.763 206.992 466.722C205.049 464.525 202.8 462.618 200.314 461.061C199.064 460.312 197.753 459.671 196.395 459.145C195.034 458.642 193.632 458.256 192.204 457.993C190.775 457.737 189.329 457.579 187.878 457.519C186.316 457.437 184.779 457.094 183.33 456.503C181.862 455.897 180.527 455.009 179.401 453.89C178.381 452.908 177.588 451.716 177.078 450.396C177.007 450.199 176.945 449.999 176.894 449.796C176.458 448.23 176.422 446.58 176.788 444.996C177.133 443.474 177.703 442.013 178.481 440.66C179.997 438.042 181.929 435.689 184.201 433.692C186.327 431.721 187.592 428.992 187.724 426.095C187.723 426.082 187.725 426.069 187.729 426.057C187.734 426.045 187.741 426.034 187.75 426.025C187.759 426.016 187.77 426.009 187.782 426.004C187.795 426 187.807 425.998 187.82 425.999C187.832 425.997 187.843 425.998 187.855 426.001C187.866 426.004 187.876 426.01 187.885 426.017C187.894 426.024 187.902 426.033 187.907 426.043C187.913 426.053 187.916 426.064 187.917 426.076C188.144 427.589 187.967 429.134 187.404 430.557C186.861 431.995 186.061 433.324 185.043 434.476C182.987 436.523 181.24 438.857 179.856 441.405C178.578 443.902 177.736 446.757 178.549 449.302C178.943 450.585 179.656 451.747 180.62 452.68C181.586 453.663 182.724 454.46 183.978 455.032C185.244 455.62 186.597 455.999 187.985 456.154C189.484 456.301 190.971 456.55 192.437 456.899C193.9 457.264 195.331 457.749 196.714 458.351C197.043 458.496 197.362 458.651 197.682 458.816C197.699 458.819 197.715 458.826 197.73 458.835C198.746 459.348 199.724 459.899 200.672 460.5C203.154 462.158 205.434 464.101 207.466 466.287C209.457 468.42 211.896 470.086 214.608 471.164C217.294 472.293 220.114 473.07 222.999 473.477C223.879 473.603 224.76 473.71 225.641 473.768C227.62 473.942 229.613 473.867 231.573 473.545C232.892 473.376 234.15 472.891 235.241 472.132C235.676 471.795 235.977 471.313 236.089 470.774C236.201 470.234 236.116 469.673 235.851 469.19C235.276 467.969 234.478 466.867 233.499 465.938C232.471 464.934 231.385 463.991 230.247 463.112L226.947 460.5L223.308 457.625C222.892 457.296 222.486 456.977 222.07 456.648C222.257 456.638 222.44 456.59 222.608 456.506C222.775 456.423 222.924 456.306 223.045 456.162C223.165 456.019 223.255 455.852 223.309 455.673C223.363 455.493 223.379 455.305 223.357 455.119C225.225 456.541 227.092 457.974 228.941 459.425C229.812 460.122 230.673 460.809 231.535 461.506C232.739 462.435 233.875 463.451 234.931 464.545C236.077 465.681 236.996 467.024 237.641 468.503C237.993 469.361 238.084 470.303 237.903 471.213Z" fill="#020202"/>
<path d="M237.244 472.645C237.235 472.548 237.225 472.452 237.206 472.355C237.206 472.355 234.593 475.703 225.641 473.768C222.648 473.089 219.728 472.123 216.921 470.884C217.802 466.345 223.628 462.406 226.947 460.5C227.847 459.987 228.554 459.619 228.941 459.425C229.144 459.319 229.26 459.27 229.26 459.27C228.757 455.612 218.557 450.106 218.557 450.106C217.905 449.86 217.21 449.752 216.515 449.786C215.788 449.814 215.07 449.955 214.386 450.203C208.724 452.119 202.84 459.958 202.84 459.958C202.84 459.958 201.63 460.964 200.614 460.277C199.712 459.686 198.745 459.202 197.73 458.835C197.715 458.826 197.699 458.819 197.682 458.816C190.249 456.048 179.343 457.238 177.746 449.631C177.486 449.851 177.261 450.109 177.078 450.396C176.43 451.422 175.81 453.522 177.998 456.774L174.146 461.061L189.224 465.735L195.185 465.135L196.482 460.983C196.482 460.983 203.614 465.387 210.069 469.51C210.931 470.061 211.773 470.603 212.595 471.135C214.134 472.132 215.576 473.081 216.776 473.894C224.557 479.168 238.145 479.749 237.244 472.645ZM216.389 461.187C216.012 461.174 215.655 461.016 215.393 460.745C215.131 460.474 214.985 460.112 214.985 459.735C214.985 459.358 215.131 458.996 215.393 458.725C215.655 458.454 216.012 458.296 216.389 458.283C216.766 458.296 217.123 458.454 217.385 458.725C217.647 458.996 217.793 459.358 217.793 459.735C217.793 460.112 217.647 460.474 217.385 460.745C217.123 461.016 216.766 461.174 216.389 461.187ZM221.634 453.783C221.743 453.764 221.853 453.754 221.963 453.754C222.146 453.748 222.327 453.779 222.497 453.846C222.666 453.912 222.821 454.012 222.951 454.139C223.082 454.267 223.185 454.419 223.254 454.587C223.324 454.756 223.359 454.936 223.357 455.119C223.379 455.305 223.363 455.493 223.309 455.673C223.255 455.852 223.166 456.019 223.045 456.162C222.924 456.306 222.775 456.423 222.608 456.506C222.44 456.59 222.257 456.638 222.07 456.648C222.035 456.656 221.999 456.659 221.963 456.658C221.625 456.67 221.295 456.554 221.038 456.333C220.782 456.113 220.618 455.803 220.579 455.467C220.504 455.106 220.571 454.73 220.765 454.416C220.96 454.103 221.268 453.876 221.625 453.783H221.634ZM211.163 463.161C211.539 463.174 211.895 463.333 212.156 463.604C212.418 463.875 212.564 464.236 212.564 464.613C212.564 464.989 212.418 465.35 212.156 465.621C211.895 465.892 211.539 466.051 211.163 466.064C210.787 466.051 210.431 465.892 210.17 465.621C209.908 465.35 209.762 464.989 209.762 464.613C209.762 464.236 209.908 463.875 210.17 463.604C210.431 463.333 210.787 463.174 211.163 463.161H211.163Z" fill="#020202"/>
<path d="M230.268 111.662L229.699 111.994C229.492 112.07 229.273 112.126 229.056 112.189C228.83 112.205 228.602 112.207 228.375 112.195C228.149 112.161 227.928 112.102 227.715 112.02C226.891 111.642 226.201 111.025 225.734 110.249C224.787 108.715 224.405 106.899 224.651 105.113L224.763 104.445L224.951 103.792C225.078 103.325 225.289 102.886 225.575 102.495C225.904 102.028 226.403 101.708 226.966 101.604C227.501 101.534 228.045 101.617 228.535 101.842C229.369 102.239 230.129 102.777 230.781 103.431C231.425 104.041 232.016 104.703 232.55 105.411L232.142 105.129C233.065 105.283 234.013 105.16 234.868 104.778C235.814 104.386 236.713 103.891 237.55 103.3C239.274 102.071 240.886 100.692 242.367 99.1792C245.381 96.1301 248.218 92.9121 250.866 89.5407L250.901 89.4976C250.96 89.4227 251.034 89.3603 251.118 89.3139C251.201 89.2675 251.293 89.2381 251.388 89.2273C251.483 89.2164 251.58 89.2245 251.672 89.2508C251.764 89.2772 251.849 89.3215 251.924 89.3811C252.014 89.4526 252.085 89.544 252.133 89.6479C252.592 90.6507 252.982 91.6398 253.351 92.6563C253.716 93.6693 254.046 94.6965 254.315 95.7442C254.599 96.7933 254.803 97.8625 254.926 98.9425C255.067 100.044 255.038 101.161 254.842 102.254L254.809 101.996C255.232 102.887 255.767 103.72 256.403 104.475C257.025 105.24 257.766 105.901 258.597 106.434L258.613 106.444C258.646 106.465 258.674 106.492 258.697 106.524C258.719 106.557 258.734 106.593 258.742 106.632C258.825 107.057 258.828 107.494 258.751 107.92C258.677 108.362 258.479 108.773 258.181 109.107C257.876 109.432 257.49 109.667 257.062 109.789C256.858 109.845 256.65 109.89 256.441 109.921L255.822 109.956L256.112 109.645C256.175 110.943 256.12 112.244 255.946 113.531C255.785 114.824 255.486 116.096 255.055 117.325C254.605 118.566 253.98 119.737 253.198 120.801C252.351 121.85 251.3 122.715 250.108 123.346C250.073 123.365 250.034 123.378 249.994 123.383L249.937 123.391C248.78 123.499 247.66 123.856 246.655 124.438C245.649 125.02 244.782 125.814 244.113 126.764C243.832 127.244 243.623 127.762 243.492 128.302C243.369 128.867 243.3 129.442 243.286 130.02L243.121 133.753L242.956 133.215C244.873 135.64 246.685 138.118 248.398 140.695C249.247 141.989 250.085 143.292 250.844 144.669C251.217 145.364 251.592 146.055 251.908 146.809C252.281 147.609 252.527 148.462 252.637 149.337C252.656 149.499 252.633 149.664 252.571 149.815C252.508 149.965 252.408 150.098 252.279 150.198C252.151 150.299 251.998 150.365 251.837 150.39C251.676 150.415 251.511 150.398 251.358 150.341L251.319 150.326C248.407 149.158 245.56 147.832 242.792 146.357C240.028 144.946 237.33 143.425 234.629 141.915C231.93 140.401 229.278 138.806 226.624 137.221C223.975 135.626 221.331 134.025 218.71 132.386L218.7 132.38C218.622 132.331 218.555 132.268 218.502 132.193C218.448 132.119 218.411 132.034 218.39 131.945C218.369 131.856 218.367 131.763 218.382 131.673C218.397 131.583 218.43 131.496 218.478 131.419C218.521 131.35 218.575 131.29 218.638 131.24C219.807 130.3 220.856 129.219 221.76 128.022C222.68 126.818 223.433 125.495 224 124.09C224.588 122.685 224.93 121.19 225.01 119.669C225.087 118.13 224.931 116.588 224.548 115.095L224.546 115.086C224.541 115.061 224.545 115.036 224.558 115.015C224.571 114.994 224.592 114.978 224.616 114.972C224.64 114.966 224.665 114.969 224.687 114.981C224.709 114.993 224.725 115.013 224.733 115.036C225.268 116.528 225.554 118.097 225.579 119.681C225.613 121.285 225.364 122.882 224.843 124.399C224.321 125.92 223.597 127.363 222.69 128.69C221.781 130.035 220.708 131.26 219.494 132.337L219.422 131.191L227.482 135.738L235.585 140.192C238.287 141.67 241.018 143.093 243.74 144.518C245.105 145.221 246.474 145.918 247.854 146.58C249.22 147.228 250.644 147.926 251.963 148.44L250.646 149.428C250.554 148.784 250.373 148.157 250.108 147.564C249.846 146.9 249.502 146.237 249.164 145.579C248.469 144.26 247.673 142.971 246.867 141.692C245.227 139.147 243.481 136.639 241.688 134.194L241.668 134.168C241.56 134.021 241.508 133.839 241.522 133.657L241.806 129.914C241.843 129.244 241.951 128.581 242.127 127.934C242.323 127.269 242.615 126.636 242.995 126.055C243.771 124.932 244.832 124.035 246.069 123.456C247.262 122.89 248.546 122.538 249.862 122.418L249.69 122.463C250.784 121.937 251.762 121.196 252.564 120.285C253.345 119.324 253.964 118.243 254.399 117.083C254.831 115.906 255.137 114.685 255.311 113.443C255.498 112.2 255.572 110.942 255.532 109.686C255.528 109.606 255.557 109.529 255.611 109.471C255.664 109.412 255.739 109.378 255.819 109.374L255.822 109.374C256.182 109.374 256.54 109.323 256.886 109.223C257.209 109.13 257.501 108.95 257.731 108.703C257.937 108.432 258.08 108.119 258.149 107.785C258.218 107.452 258.211 107.107 258.128 106.776L258.273 106.974C257.369 106.425 256.554 105.741 255.858 104.944C255.158 104.153 254.55 103.284 254.048 102.354C254.011 102.287 253.998 102.21 254.009 102.134L254.015 102.095C254.139 101.09 254.109 100.072 253.928 99.0759C253.758 98.056 253.511 97.0505 253.189 96.068C252.88 95.0768 252.513 94.0997 252.11 93.138C251.708 92.1807 251.27 91.2166 250.801 90.3142L252.068 90.4213C250.804 92.2244 249.446 93.9207 248.045 95.602C246.632 97.2768 245.136 98.8795 243.563 100.404C241.981 101.957 240.264 103.366 238.433 104.615C237.485 105.255 236.469 105.787 235.403 106.2C234.254 106.676 232.988 106.793 231.772 106.537C231.612 106.497 231.471 106.403 231.375 106.27L231.363 106.255C230.504 104.928 229.368 103.804 228.033 102.959C227.37 102.646 226.856 102.655 226.44 103.177C226.213 103.462 226.042 103.786 225.934 104.134L225.743 104.691L225.618 105.269C225.316 106.852 225.547 108.491 226.276 109.928C226.633 110.641 227.196 111.229 227.891 111.618C228.246 111.801 228.643 111.887 229.042 111.866C229.441 111.846 229.827 111.72 230.161 111.501L230.168 111.497C230.19 111.483 230.216 111.479 230.241 111.485C230.266 111.491 230.288 111.506 230.301 111.528C230.315 111.549 230.319 111.576 230.314 111.6C230.308 111.625 230.293 111.647 230.271 111.661L230.268 111.662Z" fill="#020202"/>
<path d="M231.434 114.02C233.024 115.682 234.376 117.221 235.91 118.55C236.668 119.215 237.479 119.817 238.334 120.352C239.255 120.91 240.209 121.413 241.189 121.859C240.043 122.142 238.841 122.102 237.717 121.743C236.581 121.389 235.533 120.799 234.641 120.011C233.764 119.239 233.027 118.322 232.462 117.299C231.888 116.293 231.537 115.174 231.434 114.02Z" fill="#020202"/>
<path d="M228.287 111.986C227.6 113.301 226.59 114.419 225.351 115.237C225.011 115.456 224.628 115.601 224.227 115.662C223.827 115.723 223.418 115.698 223.028 115.589C222.633 115.456 222.267 115.249 221.95 114.98C221.668 114.705 221.406 114.411 221.167 114.099C219.433 111.683 218.138 108.981 217.342 106.116C216.499 103.21 216.302 100.154 216.766 97.1636C217.29 94.143 218.583 91.308 220.52 88.9313C222.427 86.5509 224.854 84.6394 227.615 83.344C230.401 82.1213 233.447 81.6073 236.48 81.8479C239.454 82.07 242.357 82.8717 245.024 84.2079C245.683 84.539 246.324 84.9059 246.944 85.3072L247.867 85.9111L248.735 86.5964C249.929 87.4632 250.871 88.631 251.467 89.9809C250.705 88.7629 249.663 87.744 248.429 87.0084L247.53 86.4335L246.581 85.9416C245.949 85.6169 245.299 85.3271 244.636 85.0738C242.018 84.0156 239.232 83.4342 236.409 83.3568C233.639 83.2704 230.888 83.8371 228.377 85.011C225.905 86.2235 223.737 87.9753 222.032 90.1373C220.272 92.256 219.079 94.787 218.564 97.493C218.075 100.231 218.156 103.04 218.801 105.745C218.922 106.437 219.167 107.1 219.343 107.782C219.585 108.443 219.787 109.122 220.066 109.772C220.58 111.091 221.209 112.361 221.948 113.569C222.122 113.85 222.315 114.119 222.525 114.374C222.74 114.595 222.994 114.775 223.273 114.905C223.572 115.017 223.89 115.064 224.208 115.043C224.526 115.022 224.836 114.934 225.117 114.784C226.369 114.099 227.452 113.143 228.287 111.986Z" fill="#020202"/>
<path d="M219.05 131.884C217.616 131.856 216.192 132.116 214.86 132.648C214.205 132.909 213.57 133.217 212.959 133.569C212.37 133.949 211.804 134.364 211.264 134.812C210.208 135.735 209.278 136.792 208.496 137.957C208.131 138.56 207.741 139.144 207.387 139.751L206.495 141.677C206.2 142.323 205.947 142.987 205.74 143.666C205.524 144.344 205.244 144.999 205.078 145.695L204.578 147.782C204.383 148.472 204.233 149.174 204.128 149.883C203.912 151.305 203.596 152.711 203.43 154.147L202.939 158.466L202.938 158.407C203.001 161.68 203.031 164.953 203.19 168.219C203.33 171.486 203.532 174.75 203.795 178.012L204.557 187.802C204.762 191.071 204.961 194.335 205.011 197.636L205.008 197.715L205.006 197.735C204.858 199.17 204.653 200.562 204.393 201.971C204.142 203.4 203.78 204.807 203.309 206.179L203.28 206.248L203.248 206.313C203.174 206.499 203.132 206.696 203.124 206.895C203.118 207.105 203.157 207.314 203.237 207.508C203.46 207.961 203.818 208.333 204.26 208.576C205.4 209.197 206.643 209.603 207.93 209.773C210.7 210.161 213.5 210.295 216.295 210.173C219.123 210.07 221.964 209.863 224.804 209.605C227.644 209.334 230.484 209.002 233.333 208.689C233.358 208.686 233.384 208.693 233.404 208.709C233.425 208.725 233.438 208.748 233.441 208.774C233.444 208.797 233.438 208.821 233.424 208.841C233.411 208.86 233.391 208.874 233.368 208.88C230.582 209.555 227.782 210.199 224.949 210.674C222.115 211.196 219.256 211.574 216.384 211.806C213.469 212.098 210.532 212.075 207.622 211.736C206.061 211.563 204.548 211.087 203.168 210.337C202.358 209.867 201.715 209.155 201.329 208.301C201.135 207.828 201.044 207.318 201.063 206.806C201.082 206.294 201.209 205.792 201.437 205.334L201.377 205.467C201.827 204.198 202.191 202.901 202.467 201.583C202.751 200.25 202.99 198.879 203.164 197.537L203.159 197.636C203.172 194.397 203.129 191.125 203.085 187.86L202.974 178.051C202.916 174.781 202.785 171.515 202.579 168.252C202.39 164.988 202.061 161.731 201.748 158.476L201.746 158.436L201.747 158.416L201.919 153.991C201.944 153.251 202.017 152.513 202.137 151.782L202.438 149.575C202.542 148.838 202.692 148.108 202.887 147.389L203.432 145.219C203.619 144.497 203.927 143.803 204.169 143.095C204.399 142.38 204.683 141.683 205.02 141.011C206.234 138.213 208.138 135.768 210.554 133.906C211.177 133.47 211.827 133.073 212.499 132.717C213.186 132.396 213.9 132.137 214.633 131.944C216.079 131.528 217.599 131.442 219.082 131.693C219.106 131.698 219.127 131.711 219.142 131.731C219.156 131.75 219.163 131.774 219.16 131.798C219.157 131.822 219.146 131.845 219.128 131.861C219.11 131.876 219.086 131.885 219.062 131.884L219.05 131.884Z" fill="#020202"/>
<path d="M210.689 164.279C210.698 166.633 211.016 168.975 211.635 171.245C212.205 173.529 212.847 175.796 213.631 178.012C214.379 180.215 215.295 182.356 216.372 184.417C216.6 184.86 216.893 185.266 217.241 185.622C217.279 185.664 217.287 185.655 217.287 185.655C217.296 185.659 217.272 185.655 217.306 185.672L217.443 185.734C217.628 185.809 217.804 185.906 217.966 186.023C218.283 186.24 218.559 186.511 218.781 186.824C219.181 187.39 219.471 188.027 219.635 188.7C219.804 189.337 219.903 189.99 219.93 190.649L219.929 190.708L219.922 190.769C219.753 192.5 219.81 194.245 220.092 195.96C220.309 197.616 220.966 199.184 221.995 200.501C222.251 200.802 222.543 201.07 222.865 201.299L223.345 201.644L223.887 201.891C224.669 202.237 225.484 202.5 226.321 202.675C227.122 202.862 227.95 202.899 228.764 202.785C229.122 202.72 229.464 202.583 229.769 202.384C230.023 202.203 230.221 201.953 230.338 201.664L231.052 202.339C230.531 202.45 230 202.512 229.467 202.526C228.932 202.54 228.397 202.493 227.872 202.385C227.347 202.277 226.838 202.105 226.355 201.873C225.859 201.642 225.401 201.337 224.997 200.967L224.985 200.957C224.961 200.935 224.942 200.908 224.927 200.879C224.375 199.812 224.118 198.617 224.182 197.417C224.297 196.258 224.618 195.129 225.129 194.083C225.375 193.566 225.65 193.062 225.953 192.575C226.292 192.116 226.583 191.62 226.962 191.194C227.667 190.297 228.455 189.469 229.316 188.721C230.182 187.964 231.139 187.318 232.165 186.8C232.426 186.667 232.695 186.553 232.972 186.46C233.247 186.344 233.534 186.262 233.827 186.214C234.366 186.129 234.898 186.007 235.42 185.848C236.4 185.466 237.283 184.869 238.003 184.102C238.723 183.335 239.263 182.416 239.582 181.413C239.603 181.357 239.631 181.303 239.666 181.255C240.317 180.383 240.986 179.52 241.723 178.698C242.467 177.833 243.328 177.077 244.283 176.452C244.838 176.085 245.481 175.873 246.146 175.837C246.53 175.836 246.909 175.926 247.251 176.101C247.593 176.276 247.888 176.531 248.112 176.843C248.485 177.364 248.753 177.954 248.9 178.578C249.048 179.157 249.137 179.75 249.165 180.346L247.925 179.676C248.37 179.395 248.754 179.029 249.056 178.598C249.357 178.167 249.569 177.681 249.68 177.166C249.888 176.109 249.741 175.012 249.261 174.047C249.072 173.613 248.78 173.232 248.411 172.936C248.335 172.867 248.31 172.906 248.269 172.856C248.272 172.872 248.286 172.88 248.296 172.872C248.283 172.872 248.347 172.854 248.268 172.859L248.039 172.867C247.734 172.872 247.433 172.808 247.157 172.679C246.927 172.558 246.717 172.404 246.533 172.221C246.004 171.644 245.611 170.956 245.384 170.206C245.157 169.551 244.985 168.879 244.87 168.195L244.885 168.274C244.615 167.318 244.379 166.353 244.083 165.407C243.755 164.472 243.484 163.516 243.104 162.601C242.409 160.749 241.584 158.949 240.633 157.213C239.685 155.483 238.608 153.826 237.413 152.255C236.241 150.704 234.911 149.279 233.446 148.001L233.647 148.115L228.96 146.09L229.145 146.142L227.613 145.967C227.106 145.884 226.593 145.844 226.079 145.849C225.057 145.823 224.034 145.899 223.027 146.076C222.015 146.231 221.021 146.483 220.059 146.829C219.106 147.216 218.192 147.693 217.33 148.253C215.59 149.411 214.064 150.861 212.819 152.539C211.547 154.237 210.521 156.106 209.771 158.09L209.769 158.097C209.76 158.12 209.743 158.139 209.72 158.15C209.698 158.16 209.672 158.162 209.649 158.155C209.625 158.147 209.605 158.131 209.593 158.109C209.581 158.087 209.578 158.062 209.585 158.038C210.16 155.945 211.052 153.952 212.23 152.129C213.408 150.268 214.922 148.643 216.696 147.337C217.595 146.68 218.554 146.111 219.562 145.637C220.59 145.197 221.661 144.862 222.757 144.639C223.852 144.409 224.966 144.288 226.085 144.279C226.641 144.256 227.198 144.279 227.75 144.348L229.415 144.485C229.457 144.488 229.499 144.498 229.539 144.513L229.6 144.537L234.352 146.403C234.424 146.431 234.492 146.47 234.553 146.517C236.204 147.838 237.691 149.352 238.981 151.028C240.273 152.661 241.432 154.395 242.448 156.213C243.442 158.037 244.305 159.929 245.031 161.876C245.433 162.834 245.686 163.842 246.013 164.825C246.303 165.819 246.531 166.829 246.792 167.83L246.803 167.884L246.807 167.909C246.893 168.478 247.026 169.038 247.203 169.586C247.331 170.057 247.554 170.497 247.859 170.879C247.985 171.011 248.012 171.008 248.025 170.999L248.034 171.008C248.034 171.014 248.177 171.005 248.243 171.009C248.411 171.012 248.579 171.029 248.745 171.058C248.994 171.141 249.23 171.257 249.448 171.403C250.085 171.888 250.585 172.53 250.899 173.266C251.531 174.603 251.7 176.112 251.379 177.555C251.198 178.278 250.877 178.959 250.433 179.557C249.988 180.155 249.43 180.66 248.79 181.041L248.772 181.052C248.68 181.106 248.579 181.141 248.473 181.156C248.367 181.171 248.26 181.165 248.157 181.138C248.054 181.111 247.957 181.064 247.871 181C247.786 180.936 247.715 180.856 247.661 180.764C247.591 180.644 247.552 180.509 247.549 180.371C247.568 179.454 247.344 178.548 246.901 177.745C246.823 177.611 246.712 177.498 246.578 177.419C246.445 177.34 246.293 177.297 246.138 177.294C245.725 177.314 245.323 177.436 244.97 177.651C244.099 178.167 243.304 178.802 242.608 179.537C241.872 180.28 241.18 181.083 240.504 181.901L240.587 181.743C240.15 182.857 239.496 183.872 238.662 184.729C237.838 185.599 236.8 186.236 235.651 186.577C235.108 186.77 234.433 186.789 233.962 186.913C233.702 186.95 233.447 187.019 233.204 187.119C232.949 187.2 232.7 187.3 232.46 187.418C231.477 187.897 230.558 188.496 229.724 189.202C228.016 190.597 226.639 192.353 225.692 194.344C225.227 195.32 224.954 196.376 224.888 197.454C224.859 198.504 225.124 199.54 225.654 200.447L225.584 200.359C225.934 200.636 226.322 200.862 226.736 201.028C227.158 201.203 227.6 201.326 228.052 201.394C228.504 201.461 228.962 201.476 229.418 201.439C229.876 201.402 230.329 201.323 230.773 201.204L230.804 201.196C230.949 201.16 231.102 201.183 231.23 201.26C231.358 201.337 231.451 201.462 231.487 201.607C231.508 201.696 231.508 201.79 231.486 201.879C231.324 202.433 231.01 202.932 230.58 203.318C230.15 203.704 229.621 203.963 229.053 204.065C228.068 204.267 227.054 204.282 226.064 204.107C225.107 203.961 224.168 203.71 223.265 203.36L222.557 203.054C222.338 202.92 222.125 202.771 221.91 202.627C221.483 202.338 221.091 201.998 220.745 201.616C220.408 201.234 220.1 200.828 219.825 200.4C219.574 199.969 219.354 199.52 219.167 199.058C218.802 198.154 218.537 197.213 218.378 196.251C218.084 194.362 218.056 192.442 218.295 190.546L218.287 190.666C218.295 189.64 218.026 188.63 217.509 187.743C217.394 187.568 217.247 187.415 217.076 187.293C217.001 187.233 216.917 187.184 216.828 187.148C216.629 187.056 216.442 186.942 216.27 186.808C215.776 186.326 215.369 185.764 215.065 185.145C213.985 182.981 213.119 180.716 212.481 178.383C211.793 176.093 211.246 173.763 210.842 171.406C210.376 169.053 210.26 166.644 210.496 164.257C210.5 164.232 210.513 164.209 210.534 164.194C210.555 164.178 210.58 164.172 210.606 164.175C210.63 164.18 210.651 164.193 210.666 164.212C210.682 164.231 210.689 164.255 210.689 164.279Z" fill="#020202"/>
<path d="M242.322 133.701C242.814 133.516 243.336 133.424 243.862 133.43C244.376 133.424 244.889 133.474 245.393 133.578C246.414 133.774 247.368 134.226 248.167 134.891C247.656 134.899 247.144 134.862 246.639 134.781C246.149 134.712 245.67 134.621 245.193 134.524C244.216 134.327 243.255 134.052 242.322 133.701Z" fill="#020202"/>
<path d="M255.425 139.537C258.192 141.879 260.424 144.788 261.971 148.067C263.567 151.245 265.169 154.418 266.867 157.52C267.703 159.076 268.568 160.616 269.502 162.087C269.972 162.812 270.452 163.556 270.95 164.176C271.098 164.385 271.529 164.738 271.828 165.056C272.152 165.379 272.47 165.708 272.782 166.043C274.079 167.382 275.19 168.89 276.084 170.526C276.608 171.435 276.873 172.47 276.85 173.519C276.805 174.139 276.554 174.726 276.138 175.187C275.736 175.585 275.252 175.889 274.719 176.076C274.632 176.11 274.54 176.127 274.448 176.126C274.355 176.125 274.263 176.105 274.178 176.069C274.093 176.032 274.016 175.979 273.951 175.912C273.886 175.846 273.835 175.767 273.801 175.681C273.788 175.649 273.778 175.617 273.77 175.583C273.545 174.62 273.224 173.681 272.81 172.782C272.466 171.915 271.851 171.182 271.058 170.692C270.622 170.545 270.153 170.526 269.707 170.637C269.26 170.747 268.854 170.982 268.537 171.315C267.757 171.993 267.056 172.757 266.448 173.592C266.906 172.635 267.503 171.75 268.219 170.966C268.604 170.558 269.061 170.225 269.568 169.984C270.133 169.728 270.773 169.691 271.364 169.881C272.442 170.344 273.321 171.173 273.847 172.221C274.406 173.169 274.845 174.184 275.153 175.24L274.204 174.747C274.507 174.618 274.779 174.427 275.004 174.186C275.171 173.965 275.259 173.694 275.253 173.416C275.201 172.676 274.965 171.961 274.567 171.335C273.672 169.884 272.615 168.541 271.415 167.331C271.115 167.018 270.809 166.71 270.498 166.408C270.185 166.078 269.896 165.89 269.483 165.404C268.895 164.678 268.357 163.912 267.875 163.111C266.919 161.56 266.059 159.979 265.228 158.385C263.608 155.177 262.142 151.913 260.794 148.6C259.547 145.289 257.73 142.221 255.425 139.537Z" fill="#020202"/>
<path d="M274.458 175.407C275.739 176.61 276.954 177.863 278.15 179.132C279.338 180.406 280.519 181.686 281.655 183.001C282.801 184.307 283.934 185.624 285.031 186.969C286.15 188.296 287.232 189.653 288.301 191.019L287.989 190.721L295.935 196.171L303.86 201.66L309.562 205.846L310.985 208.467C310.985 208.467 305.321 205.337 302.55 203.678C299.799 201.986 297.05 200.293 294.366 198.503C291.674 196.721 288.992 194.937 286.362 193.055L286.339 193.039C286.229 192.96 286.131 192.865 286.048 192.757C284.998 191.376 283.96 189.986 282.961 188.566C281.938 187.164 280.952 185.734 279.978 184.294C278.995 182.862 278.056 181.395 277.125 179.922C276.202 178.444 275.297 176.951 274.458 175.407Z" fill="#020202"/>
<path d="M263.352 194.358C265.143 196.718 267.122 198.929 269.27 200.97C271.373 202.999 273.654 204.836 276.085 206.459C278.493 208.11 281.049 209.534 283.719 210.715C285.039 211.364 286.427 211.842 287.809 212.378C288.499 212.65 289.202 212.888 289.916 213.089C290.626 213.313 291.337 213.553 292.05 213.807C291.303 213.756 290.553 213.693 289.802 213.614C289.048 213.555 288.299 213.448 287.558 213.294C286.067 213.013 284.599 212.62 283.166 212.12C281.719 211.64 280.308 211.058 278.943 210.379C278.243 210.071 277.611 209.636 276.941 209.27C276.271 208.904 275.623 208.5 274.999 208.06C274.382 207.609 273.738 207.197 273.146 206.715L271.378 205.263C270.249 204.241 269.181 203.153 268.179 202.006C266.156 199.743 264.525 197.158 263.352 194.358Z" fill="#020202"/>
<path d="M206.4 210.489C206.858 211.023 207.224 211.63 207.483 212.284C207.73 212.893 207.912 213.526 208.025 214.174C208.14 214.821 208.184 215.478 208.157 216.135C208.135 216.839 207.995 217.534 207.743 218.191C207.283 217.658 206.916 217.051 206.658 216.396C206.41 215.788 206.229 215.154 206.119 214.506C206.006 213.859 205.962 213.201 205.989 212.545C206.011 211.841 206.15 211.146 206.4 210.489Z" fill="#020202"/>
<path d="M205.216 218.235C202.726 223.76 200.822 229.531 199.538 235.454C198.217 241.352 197.524 247.374 197.471 253.418C197.441 256.431 197.616 259.442 197.995 262.431C199.079 271.406 202.164 280.023 207.024 287.646L207.028 287.651C207.083 287.74 207.119 287.84 207.134 287.943C207.148 288.047 207.14 288.153 207.111 288.254C203.992 298.926 200.784 309.569 197.488 320.182C194.223 330.808 190.769 341.375 187.228 351.913C183.702 362.457 179.942 372.922 175.948 383.308C173.933 388.493 171.857 393.656 169.574 398.738C168.43 401.277 167.236 403.797 165.908 406.256C165.249 407.488 164.544 408.699 163.765 409.872C163.017 411.11 162.049 412.201 160.909 413.091L160.93 412.466C163.85 414.446 166.884 416.254 170.016 417.879C173.137 419.54 176.343 421.041 179.583 422.458C186.079 425.271 192.756 427.649 199.568 429.575C213.203 433.411 227.229 435.687 241.377 436.359C255.51 437.026 269.673 436.293 283.661 434.17C297.638 432.046 311.419 428.786 324.866 424.423L324.275 425.639L309.216 385.254L294.277 344.824L279.466 304.347L264.761 263.831L264.758 263.824C264.737 263.763 264.727 263.699 264.73 263.635L265.717 244.711L266.179 235.248C266.318 232.094 266.468 228.938 266.529 225.783C266.529 225.771 266.531 225.758 266.536 225.746C266.541 225.735 266.548 225.724 266.557 225.715C266.566 225.706 266.577 225.699 266.589 225.694C266.6 225.689 266.613 225.687 266.626 225.687C266.651 225.687 266.675 225.698 266.693 225.716C266.711 225.734 266.722 225.758 266.722 225.783C266.733 228.946 266.655 232.103 266.588 235.262L266.34 244.736C266.163 251.051 265.959 257.366 265.728 263.68L265.697 263.484L280.954 303.795L296.105 344.147L311.128 384.545L326.031 424.988C326.074 425.103 326.094 425.225 326.09 425.348C326.085 425.47 326.057 425.591 326.006 425.702C325.955 425.814 325.883 425.914 325.794 425.998C325.704 426.082 325.599 426.147 325.484 426.19L325.44 426.205C311.884 430.555 297.979 433.727 283.877 435.685C269.783 437.658 255.527 438.229 241.319 437.392C227.125 436.504 213.067 434.091 199.39 430.195C192.569 428.206 185.873 425.814 179.336 423.032C176.073 421.629 172.844 420.14 169.696 418.489C166.523 416.868 163.449 415.061 160.489 413.077C160.439 413.044 160.399 412.999 160.371 412.946C160.343 412.894 160.328 412.835 160.327 412.776C160.327 412.716 160.34 412.658 160.367 412.604C160.394 412.551 160.434 412.506 160.482 412.471L160.51 412.452C161.551 411.613 162.43 410.592 163.105 409.438C163.845 408.285 164.522 407.083 165.154 405.856C166.428 403.406 167.576 400.884 168.675 398.341C170.869 393.252 172.858 388.07 174.791 382.87C178.648 372.463 182.152 361.924 185.675 351.395C189.174 340.855 192.514 330.263 195.888 319.681C199.233 309.091 202.5 298.476 205.689 287.837L205.776 288.444C202.488 283.243 200.036 277.558 198.51 271.596C197.734 268.631 197.183 265.612 196.861 262.564C196.52 259.524 196.386 256.464 196.459 253.406C196.598 247.3 197.423 241.23 198.921 235.309C200.355 229.39 202.407 223.637 205.044 218.147C205.055 218.124 205.075 218.107 205.099 218.098C205.123 218.09 205.149 218.091 205.172 218.102C205.195 218.113 205.213 218.133 205.222 218.157C205.23 218.181 205.229 218.207 205.219 218.23L205.216 218.235Z" fill="#020202"/>
<path d="M227.126 216.674L205.13 218.191C205.13 218.191 198.211 232.92 198.675 237.888C198.675 237.888 225.149 220.978 227.126 216.674Z" fill="#020202"/>
<path d="M265.232 263.655C264.235 262.577 263.338 261.411 262.552 260.171C261.768 258.961 261.032 257.722 260.365 256.445C259.697 255.168 259.097 253.851 258.555 252.506C257.988 251.154 257.541 249.755 257.219 248.325C258.203 249.41 259.093 250.575 259.881 251.809C260.674 253.019 261.407 254.264 262.078 255.545C262.752 256.822 263.36 258.133 263.897 259.474C264.463 260.826 264.91 262.225 265.232 263.655C265.232 263.655 266.626 232.502 266.626 225.786L264.381 225.67C261.681 226.589 251.103 223.173 251.103 223.173C231.244 293.085 201.543 278.684 201.543 278.684L206.402 288.043C208.386 290.133 210.215 292.34 211.995 294.575C213.776 296.811 215.47 299.104 217.144 301.417C218.799 303.75 220.425 306.101 221.954 308.511C223.502 310.911 224.993 313.36 226.328 315.915C224.334 313.824 222.505 311.627 220.725 309.392C218.944 307.156 217.25 304.853 215.576 302.54C213.931 300.208 212.305 297.866 210.766 295.446C209.228 293.046 207.737 290.598 206.402 288.043C206.402 288.043 171.862 405.801 160.713 412.769C160.713 412.769 223.425 458.061 325.157 425.311L265.232 263.655ZM167.613 414.153C167.237 414.141 166.88 413.982 166.617 413.711C166.355 413.44 166.209 413.078 166.209 412.701C166.209 412.325 166.355 411.962 166.617 411.691C166.88 411.421 167.237 411.262 167.613 411.25C167.99 411.262 168.347 411.421 168.609 411.691C168.871 411.962 169.018 412.325 169.018 412.701C169.018 413.078 168.871 413.44 168.609 413.711C168.347 413.982 167.99 414.141 167.613 414.153ZM175.278 417.985C174.901 417.973 174.544 417.815 174.282 417.544C174.02 417.273 173.874 416.911 173.874 416.534C173.874 416.157 174.02 415.795 174.282 415.524C174.544 415.253 174.901 415.095 175.278 415.082C175.655 415.095 176.012 415.253 176.274 415.524C176.536 415.795 176.682 416.157 176.682 416.534C176.682 416.911 176.536 417.273 176.274 417.544C176.012 417.815 175.655 417.973 175.278 417.985H175.278ZM182.943 421.469C182.566 421.457 182.209 421.299 181.947 421.028C181.685 420.757 181.538 420.395 181.538 420.018C181.538 419.641 181.685 419.279 181.947 419.008C182.209 418.737 182.566 418.579 182.943 418.566C183.319 418.579 183.676 418.737 183.938 419.008C184.2 419.279 184.347 419.641 184.347 420.018C184.347 420.395 184.2 420.757 183.938 421.027C183.676 421.298 183.319 421.457 182.943 421.469V421.469ZM192.35 424.953C191.973 424.941 191.616 424.782 191.354 424.512C191.092 424.241 190.945 423.879 190.945 423.502C190.945 423.125 191.092 422.763 191.354 422.492C191.616 422.221 191.973 422.063 192.35 422.05C192.726 422.063 193.083 422.221 193.345 422.492C193.607 422.763 193.753 423.125 193.753 423.502C193.753 423.878 193.607 424.241 193.345 424.511C193.083 424.782 192.726 424.941 192.35 424.953V424.953ZM202.802 427.741C202.425 427.728 202.068 427.57 201.806 427.299C201.543 427.028 201.397 426.666 201.397 426.289C201.397 425.912 201.543 425.55 201.806 425.279C202.068 425.008 202.425 424.85 202.802 424.837C203.178 424.85 203.535 425.008 203.797 425.279C204.059 425.55 204.205 425.912 204.205 426.289C204.205 426.666 204.059 427.028 203.797 427.299C203.535 427.569 203.178 427.728 202.802 427.741V427.741ZM213.602 430.179C213.225 430.167 212.868 430.008 212.606 429.738C212.344 429.467 212.197 429.105 212.197 428.728C212.197 428.351 212.344 427.989 212.606 427.718C212.868 427.447 213.225 427.289 213.602 427.276C213.978 427.289 214.335 427.447 214.597 427.718C214.859 427.989 215.006 428.351 215.006 428.728C215.006 429.104 214.859 429.467 214.597 429.737C214.335 430.008 213.978 430.167 213.602 430.179V430.179ZM224.054 431.921C223.677 431.909 223.32 431.75 223.058 431.48C222.796 431.209 222.649 430.847 222.649 430.47C222.649 430.093 222.796 429.731 223.058 429.46C223.32 429.189 223.677 429.03 224.054 429.018C224.43 429.031 224.787 429.189 225.049 429.46C225.311 429.731 225.458 430.093 225.458 430.47C225.458 430.846 225.311 431.208 225.049 431.479C224.787 431.75 224.43 431.909 224.054 431.921V431.921ZM234.157 432.967C233.781 432.954 233.424 432.796 233.161 432.525C232.899 432.254 232.753 431.892 232.753 431.515C232.753 431.138 232.899 430.776 233.161 430.505C233.424 430.234 233.781 430.076 234.157 430.063C234.534 430.076 234.891 430.234 235.153 430.505C235.415 430.776 235.561 431.138 235.561 431.515C235.561 431.892 235.415 432.254 235.153 432.525C234.891 432.795 234.534 432.954 234.157 432.967V432.967ZM243.564 433.663C243.187 433.651 242.83 433.492 242.568 433.222C242.306 432.951 242.16 432.589 242.16 432.212C242.16 431.835 242.306 431.473 242.568 431.202C242.83 430.931 243.187 430.772 243.564 430.76C243.941 430.773 244.298 430.931 244.56 431.202C244.822 431.473 244.968 431.835 244.968 432.212C244.968 432.588 244.822 432.951 244.56 433.221C244.298 433.492 243.941 433.651 243.564 433.663V433.663ZM253.668 433.663C253.291 433.651 252.934 433.492 252.672 433.222C252.41 432.951 252.263 432.589 252.263 432.212C252.263 431.835 252.41 431.473 252.672 431.202C252.934 430.931 253.291 430.772 253.668 430.76C254.044 430.773 254.401 430.931 254.663 431.202C254.925 431.473 255.072 431.835 255.072 432.212C255.072 432.588 254.925 432.951 254.663 433.221C254.401 433.492 254.044 433.651 253.668 433.663V433.663ZM263.423 433.315C263.046 433.302 262.689 433.144 262.427 432.873C262.165 432.602 262.018 432.24 262.018 431.863C262.018 431.486 262.165 431.124 262.427 430.853C262.689 430.583 263.046 430.424 263.423 430.412C263.799 430.424 264.156 430.583 264.418 430.854C264.68 431.124 264.827 431.486 264.827 431.863C264.827 432.24 264.68 432.602 264.418 432.873C264.156 433.144 263.799 433.302 263.423 433.315V433.315ZM273.178 432.618C272.801 432.606 272.444 432.447 272.182 432.176C271.92 431.905 271.773 431.543 271.773 431.166C271.773 430.789 271.92 430.427 272.182 430.156C272.444 429.886 272.801 429.727 273.178 429.715C273.555 429.727 273.912 429.886 274.174 430.157C274.436 430.427 274.582 430.79 274.582 431.166C274.582 431.543 274.436 431.905 274.174 432.176C273.912 432.447 273.555 432.605 273.178 432.618V432.618ZM282.585 431.921C282.208 431.909 281.851 431.75 281.589 431.48C281.327 431.209 281.18 430.847 281.18 430.47C281.18 430.093 281.327 429.731 281.589 429.46C281.851 429.189 282.208 429.03 282.585 429.018C282.961 429.031 283.318 429.189 283.58 429.46C283.842 429.731 283.989 430.093 283.989 430.47C283.989 430.846 283.842 431.208 283.58 431.479C283.318 431.75 282.961 431.909 282.585 431.921V431.921ZM291.991 430.179C291.615 430.167 291.258 430.008 290.996 429.738C290.733 429.467 290.587 429.105 290.587 428.728C290.587 428.351 290.733 427.989 290.996 427.718C291.258 427.447 291.615 427.289 291.991 427.276C292.368 427.289 292.725 427.447 292.987 427.718C293.249 427.989 293.395 428.351 293.395 428.728C293.395 429.104 293.249 429.467 292.987 429.737C292.725 430.008 292.368 430.167 291.991 430.179V430.179ZM301.747 428.089C301.37 428.076 301.013 427.918 300.751 427.647C300.489 427.376 300.342 427.014 300.342 426.637C300.342 426.26 300.489 425.898 300.751 425.627C301.013 425.356 301.37 425.198 301.747 425.186C302.123 425.198 302.48 425.357 302.742 425.628C303.004 425.898 303.15 426.26 303.15 426.637C303.15 427.014 303.004 427.376 302.742 427.647C302.48 427.918 302.123 428.076 301.747 428.089V428.089ZM310.456 425.65C310.08 425.638 309.723 425.479 309.461 425.208C309.198 424.938 309.052 424.575 309.052 424.198C309.052 423.822 309.198 423.459 309.461 423.189C309.723 422.918 310.08 422.759 310.456 422.747C310.833 422.759 311.19 422.918 311.452 423.189C311.714 423.46 311.86 423.822 311.86 424.198C311.86 424.575 311.714 424.937 311.452 425.208C311.19 425.479 310.833 425.638 310.456 425.65V425.65ZM319.515 422.515C319.138 422.502 318.781 422.344 318.519 422.073C318.257 421.802 318.11 421.44 318.11 421.063C318.11 420.686 318.257 420.324 318.519 420.053C318.781 419.782 319.138 419.624 319.515 419.611C319.891 419.624 320.248 419.782 320.51 420.053C320.772 420.324 320.919 420.686 320.919 421.063C320.919 421.44 320.772 421.802 320.51 422.073C320.248 422.343 319.891 422.502 319.515 422.515V422.515Z" fill="#020202"/>
<path d="M248.738 105.877C249.02 105.867 249.288 105.748 249.484 105.545C249.68 105.342 249.79 105.07 249.79 104.788C249.79 104.505 249.68 104.234 249.484 104.031C249.288 103.828 249.02 103.709 248.738 103.699C248.456 103.709 248.188 103.828 247.992 104.031C247.796 104.234 247.686 104.505 247.686 104.788C247.686 105.07 247.796 105.342 247.992 105.545C248.188 105.748 248.456 105.867 248.738 105.877Z" fill="#020202"/>
<path d="M245.719 100.084C246.107 99.6471 246.606 99.3208 247.162 99.1389C247.686 98.9588 248.241 98.8882 248.793 98.9314C249.378 98.9662 249.944 99.1469 250.441 99.4568C250.715 99.6116 250.95 99.8272 251.128 100.087C251.306 100.347 251.422 100.644 251.467 100.955C250.964 100.896 250.456 100.877 249.95 100.897C249.518 100.894 249.088 100.896 248.645 100.861C248.18 100.824 247.719 100.754 247.264 100.652C246.727 100.531 246.207 100.34 245.719 100.084Z" fill="#020202"/>
<path d="M250.248 113.149C250.248 113.149 253.104 115.916 255.421 114.707" stroke="#020202" stroke-width="0.96777" stroke-linecap="round" stroke-linejoin="round"/>
<path d="M198.732 237.608C201.758 235.3 204.81 233.068 207.859 230.837C210.894 228.589 213.934 226.361 216.919 224.069C218.419 222.934 219.905 221.781 221.359 220.593C222.107 220.022 222.827 219.422 223.54 218.813C224.244 218.195 225 217.629 225.684 216.992C228.596 214.612 231.175 211.852 233.35 208.785C232.952 209.636 232.593 210.541 232.107 211.369C231.586 212.167 231.07 212.986 230.507 213.765L228.69 215.998C228.053 216.713 227.378 217.39 226.722 218.089C224.02 220.788 221.137 223.299 218.094 225.606C215.05 227.895 211.932 230.077 208.703 232.083C205.489 234.116 202.159 235.96 198.732 237.608Z" fill="#020202"/>
<path d="M257.216 149.785C258.712 152.448 260.134 155.158 261.417 157.936C262.706 160.711 263.911 163.53 264.93 166.429C266.017 169.33 266.748 172.352 267.109 175.429C267.299 177.025 267.183 178.643 266.768 180.196C266.515 181.015 266.093 181.772 265.53 182.418C264.92 183.047 264.169 183.523 263.339 183.806L263.802 183.142C263.969 185.777 264.181 188.42 264.46 191.042C264.601 192.353 264.76 193.661 264.964 194.95C265.069 195.593 265.172 196.235 265.311 196.851C265.381 197.157 265.457 197.459 265.546 197.733C265.586 197.855 265.632 197.975 265.687 198.092C265.723 198.201 265.806 198.231 265.669 198.147L265.56 199.613L260.962 201.635C260.818 201.699 260.659 201.721 260.503 201.699C260.347 201.678 260.201 201.613 260.079 201.513C259.958 201.413 259.867 201.281 259.816 201.132C259.765 200.983 259.756 200.823 259.791 200.669L259.795 200.654C260.44 197.734 260.88 194.772 261.111 191.791C261.314 188.797 261.38 185.794 261.31 182.781C261.216 179.772 261.06 176.762 260.756 173.761C260.477 170.758 260.15 167.756 259.717 164.767C258.881 158.784 257.754 152.837 256.414 146.941C255.739 144.011 255.012 141.019 254.182 138.204C253.86 136.91 253.103 135.765 252.039 134.961C251.483 134.704 250.864 134.615 250.257 134.702C249.651 134.79 249.083 135.051 248.621 135.454L248.678 135.403L248.669 135.412L248.752 134.489C250.656 137.463 251.951 140.786 252.56 144.265C253.197 147.68 253.459 151.153 253.342 154.624C253.231 158.072 252.893 161.508 252.33 164.911C251.794 168.308 251.04 171.667 250.074 174.967C250.841 171.625 251.431 168.246 251.839 164.842C252.26 161.45 252.457 158.035 252.428 154.617C252.436 151.221 252.09 147.832 251.394 144.508C250.738 141.22 249.436 138.094 247.563 135.313C247.468 135.175 247.423 135.009 247.436 134.842C247.45 134.675 247.521 134.518 247.638 134.398L247.646 134.39L247.656 134.38C247.674 134.362 247.693 134.344 247.713 134.328C248.402 133.776 249.211 133.393 250.075 133.211C250.999 133.015 251.961 133.152 252.794 133.596C254.239 134.548 255.286 135.996 255.738 137.666C256.651 140.664 257.375 143.572 258.09 146.55C259.489 152.481 260.674 158.464 261.568 164.499C262.509 170.538 263.041 176.633 263.162 182.744C263.209 185.805 263.116 188.867 262.883 191.933C262.619 195.003 262.141 198.051 261.45 201.054L260.283 200.074L264.897 198.089L264.788 199.556C264.526 199.367 264.321 199.11 264.194 198.813C264.108 198.629 264.035 198.439 263.974 198.246C263.86 197.887 263.778 197.545 263.704 197.204C263.559 196.523 263.448 195.855 263.359 195.185C263.181 193.847 263.053 192.517 262.943 191.186C262.726 188.524 262.579 185.871 262.476 183.205C262.47 183.062 262.51 182.921 262.591 182.802C262.671 182.684 262.787 182.594 262.922 182.546L262.938 182.54C263.563 182.342 264.133 182.001 264.605 181.546C265.056 181.046 265.4 180.458 265.613 179.819C266.015 178.422 266.15 176.962 266.011 175.515C265.714 172.513 265.092 169.552 264.155 166.685C262.271 160.885 259.952 155.236 257.216 149.785Z" fill="#020202"/>
<path d="M201.539 278.681C204.767 279.864 208.256 280.151 211.634 279.513C213.3 279.231 214.928 278.759 216.487 278.106C217.275 277.811 218.015 277.394 218.779 277.047C219.503 276.612 220.257 276.235 220.953 275.756C226.612 272.04 231.02 266.667 234.684 260.938C238.295 255.104 241.402 248.973 243.971 242.611C246.592 236.247 248.902 229.738 251.108 223.171C249.662 229.959 247.747 236.639 245.378 243.162C243.025 249.735 239.987 256.043 236.314 261.98C234.424 264.943 232.283 267.738 229.915 270.334C227.517 272.939 224.766 275.194 221.743 277.036C218.704 278.888 215.296 280.053 211.759 280.448C210.005 280.624 208.235 280.57 206.494 280.289C204.765 280.031 203.09 279.487 201.539 278.681Z" fill="#020202"/>
<path d="M305.313 197.068C305.413 196.981 305.446 197.215 305.537 197.322L305.759 197.72L306.195 198.518L307.042 200.128C307.592 201.208 308.129 202.294 308.652 203.388C309.699 205.574 310.681 207.79 311.625 210.023C313.509 214.489 315.226 219.021 316.775 223.62C319.865 232.816 322.372 242.197 324.282 251.708C326.198 261.223 327.549 270.842 328.328 280.516C329.101 290.194 329.336 299.908 329.033 309.613L328.342 308.882L408.566 310.233L408.007 310.427C410.267 308.63 412.638 306.978 415.107 305.481C417.569 303.973 420.129 302.631 422.771 301.465C425.433 300.281 428.205 299.363 431.046 298.722C433.939 298.065 436.918 297.872 439.871 298.151L438.625 299.162C440.207 280.616 441.611 262.053 442.839 243.475C443.44 234.189 443.992 224.9 444.422 215.615C444.629 210.973 444.803 206.33 444.874 201.7C444.901 199.386 444.931 197.073 444.875 194.782C444.848 193.638 444.803 192.495 444.708 191.387C444.66 190.836 444.6 190.289 444.513 189.788C444.475 189.565 444.424 189.345 444.361 189.128C444.334 189.044 444.306 188.98 444.301 188.967C444.337 188.979 444.264 189.062 444.751 189.323L445.292 189.441C439.029 189.278 432.742 189.199 426.466 189.179C420.188 189.147 413.91 189.155 407.638 189.284C401.368 189.415 395.098 189.636 388.864 190.11C385.749 190.351 382.639 190.655 379.577 191.123C378.049 191.36 376.528 191.635 375.061 192.011C373.687 192.286 372.378 192.822 371.206 193.589L371.151 193.635C370.982 193.775 370.772 193.856 370.553 193.867L305.313 197.068ZM305.056 196.932L337.457 194.314L370.415 191.728L369.762 192.006C371.163 190.953 372.776 190.217 374.489 189.849C376.063 189.424 377.637 189.12 379.212 188.853C382.36 188.329 385.511 187.98 388.661 187.694C394.963 187.131 401.266 186.826 407.567 186.611C420.173 186.185 432.762 186.188 445.372 186.462L445.452 186.464C445.613 186.468 445.77 186.507 445.914 186.58C446.361 186.781 446.723 187.133 446.938 187.574C447.044 187.782 447.132 187.999 447.203 188.222C447.307 188.563 447.39 188.909 447.452 189.26C447.566 189.906 447.634 190.517 447.69 191.124C447.797 192.336 447.847 193.521 447.88 194.704C447.941 197.068 447.938 199.411 447.887 201.753C447.791 206.433 447.59 211.096 447.357 215.755C446.889 225.073 446.251 234.372 445.56 243.665C444.174 262.25 442.564 280.808 440.855 299.364C440.842 299.51 440.801 299.652 440.733 299.782C440.665 299.912 440.573 300.027 440.46 300.121C440.348 300.216 440.218 300.287 440.078 300.331C439.938 300.375 439.791 300.391 439.645 300.378L439.609 300.374C436.894 300.08 434.149 300.219 431.477 300.785C428.759 301.356 426.103 302.192 423.548 303.282C420.969 304.374 418.466 305.637 416.055 307.064C413.638 308.479 411.313 310.046 409.092 311.754L409.074 311.768C408.92 311.888 408.729 311.951 408.534 311.947L328.315 310.292C328.223 310.29 328.132 310.271 328.047 310.234C327.962 310.197 327.886 310.145 327.821 310.078C327.757 310.012 327.707 309.934 327.673 309.848C327.638 309.762 327.622 309.671 327.623 309.578L327.624 309.56C328.019 299.907 327.877 290.239 327.201 280.602C326.518 270.96 325.264 261.367 323.448 251.873C321.635 242.373 319.226 232.997 316.234 223.8C314.73 219.205 313.061 214.668 311.228 210.188C310.308 207.952 309.349 205.732 308.326 203.542C307.816 202.445 307.292 201.357 306.752 200.275L305.923 198.663L305.497 197.864L305.28 197.467C305.223 197.311 305.109 197.28 305.056 196.932H305.056Z" fill="#020202"/>
<path d="M393.995 200.855C396.33 209.639 398.4 218.488 400.205 227.401C402.044 236.303 403.657 245.25 405.043 254.242C406.392 263.236 407.545 272.269 408.178 281.356C408.511 285.896 408.684 290.454 408.641 295.012C408.648 299.57 408.22 304.119 407.364 308.597C407.846 304.09 407.956 299.551 407.692 295.026C407.509 290.504 407.134 285.99 406.673 281.485C405.738 272.476 404.509 263.494 403.131 254.534C401.781 245.568 400.259 236.625 398.727 227.681L393.995 200.855Z" fill="#020202"/>
<path d="M322.106 195.911C320.694 194.808 319.588 193.36 318.896 191.708C318.203 190.055 317.946 188.252 318.15 186.472C318.367 184.58 319.037 182.769 320.103 181.191C320.378 180.798 320.68 180.418 320.988 180.044C321.321 179.708 321.677 179.335 322.004 179.03C322.637 178.456 323.271 177.88 323.931 177.333C326.561 175.103 329.379 173.106 332.354 171.363C333.849 170.485 335.398 169.692 336.983 168.961C337.779 168.602 338.585 168.264 339.402 167.948C339.788 167.782 340.271 167.639 340.716 167.489C341.164 167.329 341.623 167.198 342.088 167.098C345.815 166.209 349.723 166.475 353.295 167.86C356.818 169.232 359.838 171.648 361.95 174.784C362.466 175.549 362.926 176.349 363.327 177.18L364.377 179.46L366.426 184.049C367.733 187.14 369.054 190.224 370.181 193.414C368.11 190.739 366.232 187.959 364.341 185.186L361.592 180.979L360.244 178.861C359.829 178.235 359.381 177.633 358.899 177.057C357.003 174.798 354.519 173.108 351.723 172.172C350.352 171.715 348.924 171.454 347.48 171.398C346.045 171.312 344.606 171.448 343.213 171.803C342.861 171.871 342.514 171.966 342.176 172.086C341.828 172.201 341.504 172.28 341.121 172.439C340.376 172.714 339.643 173.024 338.906 173.328C337.432 173.938 335.993 174.644 334.561 175.375C331.687 176.871 328.903 178.534 326.223 180.354L324.207 181.747L323.356 182.403C323.108 182.65 322.835 182.88 322.589 183.136C321.598 184.209 320.873 185.5 320.473 186.904C320.042 188.431 319.966 190.035 320.249 191.596C320.532 193.157 321.167 194.633 322.106 195.911Z" fill="#020202"/>
<path d="M369.671 192.662C370.185 189.797 371.042 187.004 372.223 184.344C373.389 181.634 374.839 179.055 376.548 176.65C378.299 174.209 380.337 171.987 382.618 170.031C384.95 168.053 387.549 166.414 390.34 165.163L391.402 164.719C391.773 164.558 392.152 164.415 392.537 164.292C393.412 164 394.322 163.829 395.244 163.784C397.132 163.683 399.009 164.134 400.646 165.081C402.261 166.006 403.603 167.34 404.54 168.948C405.476 170.556 405.974 172.382 405.983 174.243C405.963 176.148 405.377 178.004 404.3 179.575C403.288 180.977 402.011 182.167 400.542 183.079C397.912 184.705 395.027 185.877 392.008 186.547L392.304 186.433L386.989 188.68L381.629 190.833L381.468 190.898C381.446 190.907 381.423 190.914 381.399 190.918C379.284 191.287 377.176 191.607 375.195 191.867C373.214 192.121 371.373 192.37 369.671 192.662ZM369.671 192.662C371.776 191.978 373.743 191.25 375.57 190.527C377.397 189.81 379.097 189.152 380.79 188.545L380.56 188.629L385.572 185.756L390.628 182.976C390.655 182.961 390.683 182.948 390.713 182.937L390.924 182.862C393.437 182.04 395.823 180.87 398.012 179.388C398.95 178.74 399.764 177.928 400.415 176.992C400.942 176.171 401.213 175.212 401.195 174.236C401.159 173.223 400.87 172.235 400.354 171.362C399.839 170.489 399.112 169.76 398.242 169.24C397.596 168.861 396.879 168.621 396.136 168.534C395.393 168.447 394.64 168.515 393.925 168.733C393.698 168.781 393.343 168.934 393.042 169.033L392.106 169.369C387.086 171.417 382.598 174.581 378.984 178.622C375.197 182.812 372.058 187.544 369.671 192.662Z" fill="#020202"/>
<path d="M219.066 109.034C216.759 111.056 214.777 113.422 213.19 116.048C211.612 118.636 210.306 121.381 209.295 124.239L208.539 126.387L207.932 128.587C207.442 130.035 207.252 131.559 206.857 133.042C206.557 134.544 206.333 136.065 206.036 137.585C205.832 139.115 205.644 140.652 205.361 142.201C205.214 140.647 205.148 139.082 205.089 137.512C205.165 135.95 205.187 134.372 205.365 132.808C205.708 129.661 206.416 126.564 207.476 123.58C208.548 120.58 210.055 117.754 211.951 115.194C213.804 112.608 216.242 110.497 219.066 109.034Z" fill="#020202"/>
<path d="M384.276 357.386C387.31 371.619 389.765 385.943 392.079 400.29C393.203 407.469 394.304 414.651 395.293 421.851C396.31 429.047 397.202 436.262 397.971 443.497C396.458 436.381 395.069 429.244 393.802 422.088C392.508 414.937 391.326 407.767 390.168 400.594C387.917 386.237 385.807 371.858 384.276 357.386Z" fill="#020202"/>
<path d="M328.486 392.205C333.23 391.321 337.98 390.535 342.736 389.848L349.871 388.837L357.013 387.944C366.537 386.786 376.073 385.812 385.619 385.022C390.388 384.566 395.166 384.251 399.944 383.927C404.722 383.617 409.495 383.216 414.28 383.018L428.627 382.298L442.99 381.841L442.026 382.026C445.973 380.823 449.972 379.773 453.942 378.638C457.909 377.493 461.921 376.481 465.92 375.433C469.909 374.356 473.952 373.438 477.97 372.448L484.037 371.081C486.062 370.635 488.106 370.246 490.14 369.825L490.167 369.82C490.227 369.807 490.29 369.818 490.342 369.85C490.395 369.883 490.433 369.934 490.449 369.993C490.465 370.052 490.457 370.116 490.428 370.17C490.399 370.224 490.351 370.265 490.292 370.285L443.337 385.986C443.305 385.996 443.272 386.003 443.238 386.005L414.564 387.796L385.882 389.444L328.515 392.688C328.454 392.692 328.394 392.672 328.347 392.633C328.3 392.593 328.269 392.538 328.262 392.477C328.255 392.416 328.271 392.355 328.307 392.305C328.343 392.256 328.397 392.222 328.457 392.211L328.486 392.205Z" fill="#020202"/>
<path d="M332.382 416.329C337.233 415.895 342.08 415.552 346.924 415.33L354.188 415.003L361.449 414.791C371.128 414.547 380.801 414.491 390.467 414.622C395.303 414.619 400.132 414.794 404.963 414.914C409.793 415.044 414.625 415.141 419.451 415.399L433.933 416.074L448.405 417.005L446.89 417.266L458.215 413.35C461.979 412.018 465.809 410.851 469.606 409.6C473.398 408.338 477.256 407.241 481.078 406.053L486.861 404.4L492.686 402.849L492.712 402.842C492.772 402.826 492.835 402.834 492.889 402.863C492.943 402.892 492.984 402.941 493.003 402.999C493.023 403.057 493.019 403.121 492.993 403.177C492.967 403.232 492.921 403.276 492.864 403.299L448.412 421.101C448.363 421.12 448.31 421.129 448.257 421.128L419.279 420.169C409.62 419.856 399.964 419.434 390.307 419.071L332.364 416.813C332.303 416.811 332.244 416.785 332.201 416.741C332.158 416.698 332.133 416.639 332.131 416.578C332.13 416.516 332.152 416.457 332.193 416.411C332.234 416.365 332.291 416.337 332.352 416.332L332.382 416.329Z" fill="#020202"/>
<path d="M319.17 284.06C326.419 283.279 333.651 282.883 340.877 282.639L346.297 282.457L351.712 282.38C355.321 282.34 358.932 282.265 362.537 282.334L373.354 282.458L384.162 282.805C387.767 282.889 391.365 283.1 394.964 283.299C398.563 283.509 402.164 283.659 405.76 283.918L404.375 284.094L416.976 280.713C421.208 279.687 425.42 278.6 429.667 277.626C433.922 276.677 438.167 275.696 442.459 274.869C444.595 274.422 446.746 274.024 448.902 273.644C451.052 273.244 453.219 272.898 455.394 272.581L455.429 272.576C455.489 272.568 455.55 272.582 455.6 272.616C455.65 272.65 455.685 272.702 455.699 272.761C455.712 272.82 455.703 272.882 455.673 272.935C455.642 272.987 455.593 273.026 455.536 273.044L430.635 280.794L405.711 288.469C405.663 288.483 405.613 288.49 405.562 288.488L383.956 287.583L362.352 286.596L340.749 285.609L319.149 284.543C319.088 284.54 319.031 284.514 318.989 284.471C318.946 284.428 318.922 284.37 318.92 284.31C318.918 284.249 318.939 284.19 318.979 284.144C319.019 284.099 319.075 284.07 319.135 284.063L319.17 284.06Z" fill="#020202"/>
<path d="M452.233 474.437C458.962 474.437 464.417 468.982 464.417 462.253C464.417 455.525 458.962 450.07 452.233 450.07C445.505 450.07 440.05 455.525 440.05 462.253C440.05 468.982 445.505 474.437 452.233 474.437Z" fill="#020202"/>
<path d="M323.792 450.851C323.541 450.773 323.299 450.696 323.057 450.619C323.319 450.622 323.575 450.702 323.792 450.851Z" fill="white"/>
<path d="M204.54 276.883C204.916 276.87 205.273 276.711 205.534 276.44C205.796 276.169 205.942 275.808 205.942 275.431C205.942 275.054 205.796 274.693 205.534 274.422C205.273 274.151 204.916 273.992 204.54 273.979C204.164 273.992 203.807 274.151 203.546 274.422C203.284 274.693 203.138 275.054 203.138 275.431C203.138 275.808 203.284 276.169 203.546 276.44C203.807 276.711 204.164 276.87 204.54 276.883Z" fill="black"/>
<path d="M212.901 276.186C213.278 276.173 213.634 276.014 213.896 275.743C214.158 275.473 214.304 275.111 214.304 274.734C214.304 274.358 214.158 273.996 213.896 273.725C213.634 273.454 213.278 273.296 212.901 273.283C212.525 273.296 212.169 273.454 211.907 273.725C211.645 273.996 211.499 274.358 211.499 274.734C211.499 275.111 211.645 275.473 211.907 275.743C212.169 276.014 212.525 276.173 212.901 276.186Z" fill="black"/>
<path d="M221.263 270.96C221.639 270.947 221.996 270.788 222.258 270.517C222.519 270.247 222.665 269.885 222.665 269.508C222.665 269.132 222.519 268.77 222.258 268.499C221.996 268.228 221.639 268.07 221.263 268.057C220.887 268.07 220.53 268.228 220.268 268.499C220.007 268.77 219.861 269.132 219.861 269.508C219.861 269.885 220.007 270.247 220.268 270.517C220.53 270.788 220.887 270.947 221.263 270.96Z" fill="black"/>
<path d="M229.625 262.25C230.001 262.237 230.358 262.078 230.619 261.807C230.881 261.537 231.027 261.175 231.027 260.798C231.027 260.422 230.881 260.06 230.619 259.789C230.358 259.518 230.001 259.36 229.625 259.347C229.248 259.36 228.892 259.518 228.63 259.789C228.369 260.06 228.222 260.422 228.222 260.798C228.222 261.175 228.369 261.537 228.63 261.807C228.892 262.078 229.248 262.237 229.625 262.25Z" fill="black"/>
<path d="M236.244 252.843C236.62 252.83 236.977 252.672 237.239 252.401C237.5 252.13 237.646 251.768 237.646 251.392C237.646 251.015 237.5 250.653 237.239 250.382C236.977 250.112 236.62 249.953 236.244 249.94C235.868 249.953 235.511 250.112 235.25 250.382C234.988 250.653 234.842 251.015 234.842 251.392C234.842 251.768 234.988 252.13 235.25 252.401C235.511 252.672 235.868 252.83 236.244 252.843Z" fill="black"/>
<path d="M240.773 243.785C241.15 243.772 241.506 243.613 241.768 243.342C242.029 243.072 242.176 242.71 242.176 242.333C242.176 241.957 242.029 241.595 241.768 241.324C241.506 241.053 241.15 240.895 240.773 240.882C240.397 240.895 240.041 241.053 239.779 241.324C239.517 241.595 239.371 241.957 239.371 242.333C239.371 242.71 239.517 243.072 239.779 243.342C240.041 243.613 240.397 243.772 240.773 243.785Z" fill="black"/>
<path d="M244.606 235.075C244.982 235.062 245.339 234.903 245.6 234.632C245.862 234.362 246.008 234 246.008 233.623C246.008 233.247 245.862 232.885 245.6 232.614C245.339 232.343 244.982 232.185 244.606 232.172C244.229 232.185 243.873 232.343 243.611 232.614C243.35 232.885 243.203 233.247 243.203 233.623C243.203 234 243.35 234.362 243.611 234.632C243.873 234.903 244.229 235.062 244.606 235.075Z" fill="black"/>
<path d="M247.741 225.668C248.118 225.655 248.474 225.497 248.736 225.226C248.997 224.955 249.144 224.593 249.144 224.217C249.144 223.84 248.997 223.478 248.736 223.207C248.474 222.937 248.118 222.778 247.741 222.765C247.365 222.778 247.008 222.937 246.747 223.207C246.485 223.478 246.339 223.84 246.339 224.217C246.339 224.593 246.485 224.955 246.747 225.226C247.008 225.497 247.365 225.655 247.741 225.668Z" fill="black"/>
<path d="M258.496 197.796C258.872 197.783 259.229 197.625 259.49 197.354C259.752 197.083 259.898 196.721 259.898 196.345C259.898 195.968 259.752 195.606 259.49 195.336C259.229 195.065 258.872 194.906 258.496 194.893C258.12 194.906 257.763 195.065 257.502 195.336C257.24 195.606 257.094 195.968 257.094 196.345C257.094 196.721 257.24 197.083 257.502 197.354C257.763 197.625 258.12 197.783 258.496 197.796Z" fill="black"/>
<path d="M259.238 188.738C259.615 188.725 259.971 188.566 260.233 188.296C260.495 188.025 260.641 187.663 260.641 187.286C260.641 186.91 260.495 186.548 260.233 186.277C259.971 186.006 259.615 185.848 259.238 185.835C258.862 185.848 258.506 186.006 258.244 186.277C257.982 186.548 257.836 186.91 257.836 187.286C257.836 187.663 257.982 188.025 258.244 188.296C258.506 188.566 258.862 188.725 259.238 188.738Z" fill="black"/>
<path d="M258.89 179.68C259.266 179.667 259.623 179.508 259.884 179.237C260.146 178.966 260.292 178.605 260.292 178.228C260.292 177.851 260.146 177.49 259.884 177.219C259.623 176.948 259.266 176.789 258.89 176.776C258.514 176.789 258.157 176.948 257.895 177.219C257.634 177.49 257.488 177.851 257.488 178.228C257.488 178.605 257.634 178.966 257.895 179.237C258.157 179.508 258.514 179.667 258.89 179.68Z" fill="black"/>
<path d="M258.193 170.273C258.57 170.26 258.926 170.101 259.188 169.831C259.449 169.56 259.596 169.198 259.596 168.821C259.596 168.445 259.449 168.083 259.188 167.812C258.926 167.541 258.57 167.383 258.193 167.37C257.817 167.383 257.46 167.541 257.199 167.812C256.937 168.083 256.791 168.445 256.791 168.821C256.791 169.198 256.937 169.56 257.199 169.831C257.46 170.101 257.817 170.26 258.193 170.273Z" fill="black"/>
<path d="M256.451 158.427C256.828 158.414 257.184 158.256 257.446 157.985C257.707 157.714 257.854 157.352 257.854 156.976C257.854 156.599 257.707 156.237 257.446 155.967C257.184 155.696 256.828 155.537 256.451 155.524C256.075 155.537 255.718 155.696 255.457 155.967C255.195 156.237 255.049 156.599 255.049 156.976C255.049 157.352 255.195 157.714 255.457 157.985C255.718 158.256 256.075 158.414 256.451 158.427Z" fill="black"/>
<path d="M255.406 147.279C255.782 147.266 256.139 147.107 256.401 146.836C256.662 146.565 256.808 146.204 256.808 145.827C256.808 145.45 256.662 145.089 256.401 144.818C256.139 144.547 255.782 144.388 255.406 144.375C255.03 144.388 254.673 144.547 254.412 144.818C254.15 145.089 254.004 145.45 254.004 145.827C254.004 146.204 254.15 146.565 254.412 146.836C254.673 147.107 255.03 147.266 255.406 147.279Z" fill="black"/>
<path d="M252.619 136.827C252.995 136.814 253.352 136.655 253.613 136.384C253.875 136.113 254.021 135.752 254.021 135.375C254.021 134.999 253.875 134.637 253.613 134.366C253.352 134.095 252.995 133.936 252.619 133.923C252.242 133.936 251.886 134.095 251.624 134.366C251.363 134.637 251.217 134.999 251.217 135.375C251.217 135.752 251.363 136.113 251.624 136.384C251.886 136.655 252.242 136.814 252.619 136.827Z" fill="black"/>
<path d="M222.18 195.81C222.556 195.797 222.913 195.638 223.174 195.368C223.436 195.097 223.582 194.735 223.582 194.358C223.582 193.982 223.436 193.62 223.174 193.349C222.913 193.078 222.556 192.92 222.18 192.907C221.803 192.92 221.447 193.078 221.185 193.349C220.924 193.62 220.777 193.982 220.777 194.358C220.777 194.735 220.924 195.097 221.185 195.368C221.447 195.638 221.803 195.797 222.18 195.81Z" fill="black"/>
<path d="M225.746 188.945C226.122 188.932 226.479 188.774 226.74 188.503C227.002 188.232 227.148 187.87 227.148 187.494C227.148 187.117 227.002 186.755 226.74 186.484C226.479 186.214 226.122 186.055 225.746 186.042C225.369 186.055 225.013 186.214 224.751 186.484C224.49 186.755 224.344 187.117 224.344 187.494C224.344 187.87 224.49 188.232 224.751 188.503C225.013 188.774 225.369 188.932 225.746 188.945Z" fill="black"/>
<path d="M233.318 185.364C233.694 185.351 234.05 185.192 234.312 184.921C234.574 184.651 234.72 184.289 234.72 183.912C234.72 183.536 234.574 183.174 234.312 182.903C234.05 182.632 233.694 182.474 233.318 182.461C232.941 182.474 232.585 182.632 232.323 182.903C232.062 183.174 231.915 183.536 231.915 183.912C231.915 184.289 232.062 184.651 232.323 184.921C232.585 185.192 232.941 185.351 233.318 185.364Z" fill="black"/>
<path d="M238.465 179.675C238.842 179.662 239.198 179.503 239.46 179.232C239.722 178.961 239.868 178.599 239.868 178.223C239.868 177.846 239.722 177.485 239.46 177.214C239.198 176.943 238.842 176.784 238.465 176.771C238.089 176.784 237.733 176.943 237.471 177.214C237.209 177.485 237.063 177.846 237.063 178.223C237.063 178.599 237.209 178.961 237.471 179.232C237.733 179.503 238.089 179.662 238.465 179.675Z" fill="black"/>
<path d="M243.867 175.709C244.244 175.696 244.6 175.537 244.862 175.266C245.124 174.995 245.27 174.634 245.27 174.257C245.27 173.88 245.124 173.519 244.862 173.248C244.6 172.977 244.244 172.818 243.867 172.805C243.491 172.818 243.135 172.977 242.873 173.248C242.611 173.519 242.465 173.88 242.465 174.257C242.465 174.634 242.611 174.995 242.873 175.266C243.135 175.537 243.491 175.696 243.867 175.709Z" fill="black"/>
<path d="M267.948 168.879C268.325 168.866 268.681 168.708 268.943 168.437C269.204 168.166 269.351 167.804 269.351 167.428C269.351 167.051 269.204 166.689 268.943 166.419C268.681 166.148 268.325 165.989 267.948 165.976C267.572 165.989 267.215 166.148 266.954 166.419C266.692 166.689 266.546 167.051 266.546 167.428C266.546 167.804 266.692 168.166 266.954 168.437C267.215 168.708 267.572 168.866 267.948 168.879Z" fill="black"/>
<path d="M484.576 468.046C488.185 466.629 491.724 465.127 495.189 463.496C496.911 462.66 498.628 461.824 500.293 460.897C501.967 459.99 503.615 459.04 505.184 457.98C508.377 455.985 511.247 453.514 513.695 450.653C516.145 447.745 517.583 444.119 517.792 440.322C518.1 442.274 517.989 444.268 517.468 446.174C516.93 448.102 516.062 449.924 514.904 451.557C512.549 454.758 509.611 457.486 506.244 459.598C502.949 461.716 499.443 463.485 495.782 464.878C492.161 466.304 488.407 467.365 484.576 468.046Z" fill="black"/>
<path d="M507.791 473.266C511.612 470.773 515.301 468.136 518.857 465.354C522.409 462.595 525.758 459.582 528.876 456.34C531.996 453.148 534.651 449.533 536.761 445.6C538.883 441.63 539.951 437.181 539.862 432.68C540.716 437.273 540.108 442.017 538.126 446.247C536.182 450.475 533.529 454.339 530.28 457.67C527.082 460.986 523.553 463.966 519.75 466.565C515.996 469.191 511.99 471.436 507.791 473.266Z" fill="black"/>
<path d="M473.217 184.903C470.634 182.011 467.996 179.215 465.262 176.532C463.88 175.208 462.499 173.888 461.051 172.65C459.62 171.394 458.156 170.179 456.617 169.076C453.636 166.776 450.322 164.943 446.788 163.643C443.211 162.355 439.311 162.267 435.678 163.39C437.401 162.424 439.31 161.834 441.278 161.661C443.273 161.495 445.282 161.676 447.216 162.194C451.036 163.291 454.615 165.098 457.766 167.52C460.896 169.874 463.774 172.547 466.352 175.495C468.947 178.395 471.246 181.547 473.217 184.903Z" fill="black"/>
<path d="M467.815 153.311C464.15 150.595 460.395 148.052 456.551 145.685C452.729 143.312 448.741 141.219 444.617 139.422C440.54 137.605 436.228 136.373 431.807 135.761C427.346 135.151 422.804 135.695 418.615 137.342C422.624 134.946 427.284 133.867 431.939 134.256C436.579 134.609 441.124 135.755 445.377 137.643C449.597 139.49 453.618 141.763 457.377 144.427C461.143 147.034 464.64 150.01 467.815 153.311Z" fill="black"/>
<path d="M202.896 72.0856C200.443 75.0882 198.094 78.1312 195.871 81.2501C194.779 82.8223 193.691 84.3923 192.694 86.0159C191.678 87.626 190.706 89.2619 189.857 90.9542C188.051 94.2577 186.759 97.8175 186.026 101.511C185.313 105.246 185.835 109.111 187.512 112.524C186.289 110.973 185.408 109.18 184.93 107.264C184.454 105.319 184.319 103.306 184.528 101.315C185.015 97.3703 186.24 93.5531 188.141 90.0628C189.977 86.6029 192.167 83.3429 194.676 80.3354C197.136 77.3194 199.889 74.5559 202.896 72.0856Z" fill="black"/>
<path d="M172.536 82.3561C170.426 86.4011 168.501 90.5069 166.763 94.6736C165.017 98.8193 163.573 103.086 162.442 107.44C161.285 111.75 160.741 116.202 160.827 120.665C160.921 125.166 162.169 129.567 164.45 133.448C161.457 129.862 159.663 125.428 159.32 120.77C158.944 116.131 159.366 111.463 160.566 106.967C161.731 102.51 163.348 98.1838 165.391 94.0552C167.378 89.9274 169.771 86.0083 172.536 82.3561Z" fill="black"/>
<path d="M364.139 345.151C357.845 348.111 351.527 351.013 345.207 353.913L335.731 358.27L326.237 362.578L325.77 360.634L326.302 360.598C326.557 360.581 326.81 360.661 327.008 360.823C327.207 360.986 327.336 361.217 327.37 361.471L327.374 361.5L332.052 397.405L336.504 433.338L335.095 431.875L363.206 436.217C372.574 437.676 381.93 439.221 391.284 440.772L447.375 450.298L447.243 450.289C451.795 450.198 456.335 449.787 460.83 449.059C465.333 448.37 469.764 447.273 474.069 445.782C478.375 444.362 482.408 442.221 485.997 439.45C489.558 436.709 492.137 432.889 493.347 428.561L493.326 428.751C492.969 421.055 492.67 413.357 492.264 405.663L491.073 382.579L489.85 359.497L488.674 336.414L490.802 337.785L466.405 347.902L442.012 357.928L441.993 357.936C441.791 358.018 441.577 358.066 441.359 358.078L412.637 359.571L383.912 360.98L355.18 362.266L326.444 363.458L326.362 363.461C325.916 363.478 325.48 363.326 325.142 363.035C324.803 362.744 324.587 362.336 324.537 361.892L321.522 334.388C320.526 325.229 319.497 316.074 318.566 306.908L315.708 279.418L312.965 251.917L312.963 251.901C312.953 251.798 312.981 251.694 313.042 251.609C314.172 250.019 315.585 248.651 317.211 247.573C318.837 246.534 320.613 245.751 322.478 245.253C322.526 245.24 322.578 245.245 322.623 245.27C322.667 245.294 322.701 245.334 322.716 245.382C322.73 245.431 322.726 245.483 322.703 245.528C322.68 245.573 322.64 245.607 322.592 245.623C320.804 246.19 319.114 247.029 317.581 248.11C316.086 249.212 314.798 250.569 313.776 252.12L313.853 251.812L317.581 279.189L321.194 306.577C322.42 315.703 323.548 324.841 324.709 333.974L328.178 361.346L326.271 359.781L354.992 358.263L383.717 356.848L412.447 355.543L441.182 354.321L440.53 354.471L465.086 344.648L489.639 334.916L489.665 334.906C490.044 334.756 490.467 334.762 490.841 334.924C491.215 335.086 491.51 335.39 491.66 335.768C491.725 335.934 491.761 336.11 491.767 336.288L492.469 359.391L493.123 382.496L493.81 405.6C494.029 413.301 494.357 420.998 494.625 428.698L494.625 428.708C494.627 428.769 494.62 428.83 494.604 428.888C493.292 433.466 490.534 437.496 486.742 440.377C484.9 441.811 482.933 443.078 480.867 444.164C478.798 445.22 476.664 446.144 474.479 446.93C470.108 448.455 465.618 449.613 461.055 450.394C456.495 451.2 451.886 451.7 447.26 451.891C447.227 451.892 447.194 451.891 447.162 451.886L447.128 451.881L390.803 443.853C381.421 442.479 372.04 441.097 362.673 439.63L334.576 435.194L334.563 435.192C334.203 435.135 333.871 434.961 333.619 434.697C333.367 434.433 333.208 434.094 333.167 433.731L329.141 397.748L325.341 361.739L326.413 362.641L325.881 362.663L325.849 362.665C325.612 362.674 325.379 362.601 325.19 362.456C325.002 362.312 324.87 362.105 324.819 361.874C324.767 361.642 324.798 361.399 324.907 361.188C325.016 360.977 325.195 360.811 325.414 360.719C328.624 359.368 331.817 358.003 335.036 356.686L344.679 352.706C351.105 350.049 357.532 347.394 363.984 344.796C364.031 344.777 364.084 344.777 364.13 344.797C364.177 344.816 364.214 344.852 364.234 344.898C364.255 344.945 364.256 344.997 364.238 345.044C364.22 345.091 364.185 345.13 364.139 345.151L364.139 345.151Z" fill="black"/>
<path d="M493.977 428.726C491.842 436.931 484.767 442.127 476.747 445.417C477.744 446.89 479.051 448.127 480.577 449.04C482.103 449.953 483.81 450.522 485.579 450.705C487.348 450.888 489.136 450.681 490.816 450.099C492.497 449.518 494.03 448.575 495.307 447.338C496.584 446.1 497.575 444.598 498.21 442.937C498.845 441.276 499.108 439.496 498.981 437.722C498.854 435.948 498.34 434.223 497.476 432.669C496.611 431.115 495.417 429.769 493.977 428.726Z" fill="#020202"/>
<path d="M351.727 458.808C358.456 458.808 363.911 453.354 363.911 446.625C363.911 439.896 358.456 434.442 351.727 434.442C344.999 434.442 339.544 439.896 339.544 446.625C339.544 453.354 344.999 458.808 351.727 458.808Z" fill="#020202"/>
<path d="M313.3 251.767L335.485 253.1L357.991 254.523C365.537 255.038 373.105 255.534 380.69 256.111C388.272 256.673 395.862 257.246 403.437 257.894L402.984 257.938L415.561 254.508L428.167 251.182L453.379 244.529L453.392 244.525C453.534 244.488 453.686 244.508 453.813 244.582C453.94 244.657 454.033 244.778 454.07 244.921C454.077 244.945 454.081 244.97 454.085 244.996L455.68 258.169C456.218 262.559 456.786 266.945 457.387 271.328L459.148 284.48L461.006 297.619C461.027 297.773 460.997 297.929 460.918 298.063C460.839 298.197 460.718 298.301 460.573 298.357L460.555 298.363L434.492 308.423L408.373 318.335C408.24 318.386 408.098 318.414 407.955 318.419L407.93 318.419L386.278 318.957C379.061 319.149 371.844 319.31 364.626 319.44L342.971 319.791L321.313 320.022L321.287 320.023C320.966 320.025 320.656 319.908 320.416 319.695C320.176 319.481 320.024 319.186 319.989 318.867L318.189 301.898C317.58 296.244 317.072 290.618 316.516 285.011L313.3 251.767ZM313.509 251.968L318.176 285.57C318.934 291.105 319.741 296.619 320.446 302.107L322.588 318.561L321.263 317.406L342.914 316.813L364.567 316.34C371.785 316.196 379.003 316.082 386.222 315.998L407.878 315.712L407.435 315.795L433.726 306.35L460.071 297.053L459.621 297.797L458.087 284.616L456.456 271.448C455.924 267.057 455.362 262.669 454.772 258.286L452.976 245.138L453.681 245.605L428.696 253.065L416.204 256.795L403.682 260.421C403.541 260.462 403.394 260.478 403.248 260.467L403.228 260.465C395.816 259.894 388.417 259.248 381.011 258.592C373.608 257.951 366.188 257.227 358.746 256.523L313.509 251.968Z" fill="black"/>
<path d="M375.21 440.009L373.749 439.796L373.275 436.724L370.188 399.572L367.246 361.925L366.897 357.483L368.417 357.386C368.639 358.877 368.852 360.377 369.056 361.867C369.501 365.061 369.898 368.255 370.285 371.458C370.885 376.093 371.311 380.739 371.823 385.384L373.072 399.339L374.069 413.304C374.311 417.969 374.64 422.634 374.785 427.298C374.92 430.54 375.037 433.782 375.114 437.024C375.162 438.892 375.191 438.141 375.21 440.009Z" fill="#020202"/>
<path d="M416.302 446.266L414.725 446.034L414.27 443.489L410.66 404.004L406.876 360.377L406.711 356.78L408.017 356.713C408.288 358.406 408.27 358.615 408.521 360.309C409.179 364.751 409.769 369.203 410.331 373.655C410.999 378.658 411.492 383.681 412.073 388.694L413.544 403.752L414.754 418.83C415.063 423.872 415.46 428.895 415.683 433.937C415.857 437.228 416.012 440.508 416.137 443.799C416.196 445.434 416.254 444.631 416.302 446.266Z" fill="#020202"/>
<path d="M441.339 354.705L441.851 358.683L446.216 397.423L452.293 448.986L452.564 451.251C452.569 451.286 452.587 451.317 452.614 451.341C452.64 451.364 452.674 451.376 452.71 451.376C452.748 451.375 452.784 451.36 452.811 451.333C452.838 451.306 452.854 451.269 452.855 451.231V451.212C452.855 450.457 452.845 449.702 452.835 448.947C452.748 440.624 452.274 432.35 451.655 424.076C451.364 419.566 450.9 415.075 450.513 410.565C450.077 406.075 449.564 401.585 449.09 397.094L447.416 383.652C446.758 379.181 446.197 374.7 445.451 370.238C444.822 366.183 444.145 362.119 443.419 358.074C443.109 356.38 442.868 355.924 442.529 354.23L441.339 354.705Z" fill="#020202"/>
<path d="M478.791 446.005C478.327 446.218 477.862 446.431 477.388 446.625L477.068 443.789L471.542 395.091L466.433 348.357L466.156 345.275L467.539 344.743C467.791 346.185 467.816 346.218 468.049 347.66C468.804 352.296 469.513 356.932 470.178 361.567C471.029 367.093 471.688 372.629 472.443 378.155L474.417 394.771L476.139 411.417C476.623 416.972 477.194 422.527 477.581 428.092C477.969 433.095 478.336 438.108 478.627 443.121C478.685 444.079 478.743 445.047 478.791 446.005Z" fill="#020202"/>
<path d="M434.496 446.934C434.496 448.376 434.506 447.942 434.496 449.384C433.964 449.307 433.432 449.239 432.899 449.162L432.657 446.615L430.47 404.236L428.361 359.419L428.109 356.234C428.573 356.215 429.048 356.195 429.512 356.166C429.715 357.889 429.899 357.609 430.064 359.332C430.509 363.629 430.896 367.916 431.254 372.213C431.748 377.516 432.057 382.839 432.454 388.152L433.373 404.101L434.022 420.059C434.157 425.382 434.37 430.705 434.399 436.037C434.458 439.666 434.496 443.305 434.496 446.934Z" fill="#020202"/>
<path d="M352.942 433.405C352.952 435.369 352.952 437.344 352.932 439.318L351.5 439.105L351.094 433.105L348.771 398.73L346.535 362.593L346.303 358.751C346.787 358.722 347.281 358.693 347.765 358.664C347.948 359.961 348.123 361.248 348.287 362.545C348.704 365.864 349.081 369.193 349.439 372.522C349.952 376.848 350.281 381.194 350.697 385.519L351.674 398.536C351.906 402.881 352.178 407.227 352.381 411.572C352.526 415.917 352.758 420.263 352.807 424.618C352.874 427.54 352.919 430.469 352.942 433.405Z" fill="#020202"/>
<path d="M398.118 446.034L396.569 445.812L395.921 440.44L391.314 402.291L386.562 361.219L386.364 357.968L387.748 357.89C388.058 359.497 387.995 359.535 388.285 361.151C388.972 365.07 389.611 369 390.23 372.929C391.024 377.748 391.643 382.587 392.35 387.426L394.198 401.952L395.785 416.507C396.221 421.375 396.743 426.224 397.092 431.102C397.353 434.315 397.595 437.528 397.798 440.75C397.914 442.512 398.021 444.273 398.118 446.034Z" fill="#020202"/>
<path d="M379.391 325.95C378.929 325.359 378.562 324.699 378.304 323.994C378.055 323.332 377.872 322.647 377.759 321.949C377.643 321.252 377.598 320.544 377.624 319.838C377.644 319.087 377.783 318.344 378.036 317.637C378.501 318.227 378.869 318.887 379.126 319.593C379.375 320.255 379.557 320.94 379.669 321.638C379.783 322.336 379.827 323.043 379.801 323.75C379.78 324.5 379.642 325.243 379.391 325.95Z" fill="#020202"/>
<path d="M380.158 440.616C380.897 442.67 382.175 444.487 383.858 445.876C385.542 447.266 387.568 448.177 389.724 448.513C391.881 448.85 394.088 448.6 396.115 447.79C398.142 446.98 399.913 445.639 401.243 443.908L380.158 440.616Z" fill="#020202"/>
<path d="M285.481 232.375C285.046 232.233 284.677 231.939 284.442 231.546C284.208 231.153 284.123 230.689 284.204 230.239C284.285 229.789 284.527 229.383 284.883 229.097C285.24 228.811 285.689 228.664 286.146 228.682L286.25 228.687C287.988 228.779 289.729 228.844 291.451 229.019L294.042 229.244L295.337 229.357C295.77 229.4 296.289 229.475 296.76 229.555C300.682 230.215 304.365 231.886 307.446 234.401C310.548 236.925 312.95 240.203 314.423 243.921C315.147 245.761 315.632 247.687 315.866 249.651L316.144 252.344L316.424 254.919L317.516 265.221L319.654 285.831C320.387 292.699 321.028 299.578 321.703 306.453C322.371 313.329 323.055 320.203 323.662 327.087C324.927 340.849 326.133 354.618 327.158 368.411C324.88 354.783 322.782 341.131 320.744 327.471C319.701 320.645 318.732 313.809 317.749 306.974C316.772 300.139 315.762 293.308 314.843 286.465L312.026 265.944L310.642 255.68L310.302 253.113C310.22 252.293 310.088 251.478 309.908 250.673C309.553 249.233 309.055 247.833 308.421 246.494C307.15 243.828 305.341 241.455 303.108 239.523C300.876 237.591 298.267 236.142 295.447 235.267L290.573 233.911C288.898 233.475 287.242 232.927 285.581 232.408L285.481 232.375Z" fill="#020202"/>
<path d="M245.829 176.56C246.812 178.332 247.769 180.115 248.724 181.901C249.677 183.687 250.649 185.464 251.574 187.264L254.38 192.649C255.308 194.447 256.267 196.23 257.17 198.041L256.957 197.783C259.742 199.874 262.668 201.771 265.713 203.46C267.24 204.292 268.781 205.099 270.363 205.819C271.931 206.569 273.525 207.259 275.146 207.89C278.381 209.174 281.695 210.249 285.067 211.107C288.456 211.952 291.9 212.551 295.375 212.898L295.34 212.897C297.925 212.964 300.509 212.99 303.093 213.025L303.034 213.03C304.198 212.91 305.371 213.134 306.407 213.676C307.418 214.16 308.376 214.747 309.267 215.426C311.058 216.758 312.651 218.336 314 220.114C314.716 221.01 315.263 222.029 315.613 223.122C315.7 223.43 315.732 223.751 315.705 224.07C315.655 224.39 315.541 224.698 315.369 224.974C315.093 225.473 314.795 225.939 314.488 226.406C314.179 226.871 313.867 227.325 313.502 227.78C313.39 227.927 313.259 228.058 313.111 228.169C312.939 228.275 312.858 228.311 312.727 228.387L312.005 228.787C311.522 229.053 311.036 229.318 310.535 229.571C310.283 229.696 310.03 229.82 309.764 229.936C309.457 230.084 309.128 230.183 308.79 230.227L309.266 229.918C309.031 230.447 308.672 230.911 308.22 231.272C307.746 231.624 307.188 231.847 306.602 231.919C306.052 231.977 305.497 231.947 304.956 231.828C304.426 231.72 303.91 231.549 303.42 231.319L304.353 230.942C304.232 231.327 304.061 231.694 303.844 232.034C303.609 232.401 303.3 232.716 302.938 232.96C302.566 233.207 302.143 233.367 301.7 233.429C301.258 233.493 300.807 233.468 300.374 233.355C300.224 233.318 300.093 233.228 300.006 233.1L299.957 233.028C299.436 232.208 298.802 231.466 298.075 230.823C297.341 230.177 296.525 229.63 295.65 229.194C294.766 228.752 293.841 228.398 292.888 228.138C291.946 227.873 290.982 227.699 290.007 227.618L289.981 227.616L289.924 227.609C283.499 226.621 277.202 225.346 270.885 224.027C264.579 222.679 258.301 221.234 252.055 219.554C248.842 218.793 245.758 217.565 242.901 215.91C240.051 214.229 237.513 212.068 235.398 209.523C234.35 208.257 233.409 206.907 232.583 205.486C231.786 204.07 231.062 202.614 230.413 201.124L226.42 192.326C226.41 192.303 226.409 192.277 226.417 192.254C226.425 192.23 226.443 192.21 226.465 192.199C226.488 192.188 226.514 192.186 226.538 192.194C226.562 192.202 226.582 192.218 226.594 192.24L231.164 200.753C231.932 202.177 232.623 203.616 233.495 204.928C234.35 206.255 235.312 207.509 236.372 208.677C238.492 210.999 240.969 212.965 243.712 214.503C245.075 215.268 246.503 215.913 247.978 216.43C249.473 216.94 250.994 217.371 252.535 217.721C258.754 219.265 265.044 220.628 271.319 222.013C277.595 223.366 283.894 224.786 290.183 225.841L290.101 225.833C291.209 225.935 292.303 226.149 293.368 226.472C294.423 226.791 295.444 227.214 296.416 227.734C297.399 228.258 298.309 228.908 299.125 229.666C299.944 230.431 300.651 231.308 301.225 232.271L300.808 231.944C301.038 232.002 301.276 232.018 301.512 231.993C301.749 231.971 301.979 231.896 302.183 231.773C302.394 231.643 302.575 231.471 302.717 231.267C302.875 231.037 303.004 230.787 303.1 230.525L303.115 230.486C303.18 230.324 303.307 230.194 303.467 230.126C303.628 230.057 303.809 230.055 303.971 230.12L304.033 230.148C304.415 230.344 304.818 230.495 305.234 230.599C305.639 230.707 306.057 230.75 306.475 230.725C306.857 230.696 307.224 230.569 307.542 230.356C307.859 230.12 308.115 229.813 308.29 229.459L308.329 229.394C308.375 229.319 308.439 229.257 308.516 229.214C308.592 229.171 308.679 229.149 308.767 229.149C308.972 229.111 309.172 229.051 309.364 228.969C309.605 228.875 309.85 228.766 310.094 228.655C310.583 228.43 311.07 228.187 311.558 227.941L312.292 227.568L312.631 227.394C312.612 227.413 312.751 227.278 312.819 227.199C313.156 226.809 313.485 226.369 313.799 225.931C314.112 225.491 314.422 225.041 314.694 224.588C314.823 224.404 314.915 224.195 314.964 223.975C314.989 223.746 314.972 223.515 314.912 223.292C314.595 222.287 314.101 221.346 313.453 220.514C312.164 218.77 310.636 217.216 308.913 215.898C308.061 215.238 307.136 214.677 306.157 214.226C305.232 213.748 304.187 213.55 303.152 213.659L303.093 213.664C300.509 213.701 297.925 213.73 295.341 213.799L295.326 213.799L295.306 213.797C291.763 213.605 288.24 213.153 284.764 212.444C277.774 211.035 271.063 208.486 264.901 204.899C261.822 203.122 258.869 201.135 256.063 198.952L256.056 198.947C255.97 198.879 255.899 198.793 255.85 198.694C254.958 196.878 254.123 195.034 253.256 193.205L250.678 187.707C249.809 185.879 248.987 184.029 248.145 182.187C247.304 180.346 246.467 178.502 245.656 176.646C245.646 176.623 245.645 176.597 245.653 176.574C245.662 176.551 245.679 176.531 245.701 176.52C245.724 176.509 245.749 176.507 245.773 176.515C245.797 176.522 245.817 176.538 245.829 176.56H245.829Z" fill="black"/>
<path d="M297.281 223.475C298.82 224.163 300.222 225.122 301.422 226.305C302.031 226.9 302.572 227.561 303.035 228.276C303.55 228.987 303.795 229.858 303.727 230.734C303.435 229.983 302.992 229.299 302.427 228.725C301.886 228.136 301.325 227.56 300.745 226.996C299.589 225.859 298.391 224.753 297.281 223.475Z" fill="#020202"/>
<path d="M302.047 221.847C303.718 222.57 305.232 223.614 306.502 224.918C307.152 225.578 307.706 226.326 308.147 227.139C308.398 227.541 308.56 227.991 308.625 228.46C308.689 228.929 308.654 229.406 308.521 229.86C308.412 229.003 308.059 228.195 307.503 227.533C306.979 226.851 306.414 226.203 305.809 225.593C304.595 224.345 303.295 223.169 302.047 221.847Z" fill="#020202"/>
<path d="M312.847 227.799C311.916 226.469 311.173 225.1 310.381 223.769C309.998 223.096 309.586 222.45 309.164 221.814C308.756 221.157 308.233 220.578 307.621 220.105C308.446 220.263 309.194 220.694 309.743 221.329C310.311 221.917 310.805 222.572 311.215 223.279C312.041 224.668 312.596 226.202 312.847 227.799Z" fill="#020202"/>
<path d="M292.375 227.104L296.156 228.524L289.103 231.121L285.587 230.488L292.375 227.104Z" fill="#020202"/>
<path d="M309.965 216.357L313.144 214.691L314.69 218.483L313.131 219.544L309.965 216.357Z" fill="#020202"/>
<path d="M409.815 313.066C409.713 308.98 409.435 304.907 409.24 300.828C408.992 296.753 408.671 292.684 408.391 288.612L407.276 276.418C406.811 272.36 406.438 268.296 405.881 264.246C405.648 262.386 405.403 260.527 405.146 258.67L403.333 259.179L403.166 258.842L405.499 288.846L407.861 317.069L409.923 316.32C409.891 315.235 409.855 314.151 409.815 313.066Z" fill="#020202"/>
<path d="M426.948 307.088C426.846 303.001 426.568 298.928 426.373 294.849C426.125 290.775 425.804 286.706 425.523 282.633L424.409 270.439C423.943 266.382 423.571 262.317 423.014 258.267C422.78 256.407 422.536 254.549 422.279 252.691L420.466 253.201L420.298 252.864L422.632 282.867L424.994 311.09L427.056 310.341C427.023 309.256 426.987 308.172 426.948 307.088Z" fill="#020202"/>
<path d="M387.351 313.066C387.249 308.98 386.971 304.907 386.776 300.828C386.528 296.753 386.207 292.684 385.926 288.612L384.812 276.418C384.346 272.36 383.974 268.296 383.417 264.246C383.183 262.386 382.938 260.527 382.682 258.67L380.869 259.179L380.701 258.842L383.034 288.846L385.397 317.069L387.459 316.32C387.426 315.235 387.39 314.151 387.351 313.066Z" fill="#020202"/>
<path d="M362.741 315.312C362.639 310.83 362.361 306.363 362.166 301.889C361.918 297.419 361.597 292.956 361.316 288.49L360.202 275.115C359.736 270.664 359.364 266.206 358.807 261.764C358.573 259.724 358.329 257.686 358.072 255.648L356.259 256.207L356.091 255.838L358.424 288.746L360.787 319.702L362.849 318.881C362.816 317.691 362.78 316.501 362.741 315.312Z" fill="#020202"/>
<path d="M339.204 313.814C339.102 309.255 338.824 304.711 338.629 300.16C338.381 295.614 338.06 291.075 337.779 286.532L336.665 272.927C336.199 268.4 335.827 263.865 335.27 259.347C335.036 257.272 334.791 255.199 334.535 253.126L332.722 253.695L332.554 253.319L334.887 286.792L337.25 318.28L339.312 317.444C339.279 316.234 339.243 315.024 339.204 313.814Z" fill="#020202"/>
<path d="M446.7 301.415C446.598 297.328 446.32 293.256 446.125 289.177C445.877 285.102 445.556 281.033 445.275 276.961L444.16 264.766C443.695 260.709 443.323 256.644 442.766 252.594C442.532 250.735 442.286 250.098 442.031 248.24L440.218 248.75L440.05 248.413L442.383 277.194L444.746 304.01L446.807 303.261C446.807 303.261 446.739 302.499 446.7 301.415Z" fill="#020202"/>
<path d="M411.417 335.28C408.193 335.54 404.97 335.833 401.746 336.209L401.73 336.211C401.693 336.215 401.659 336.233 401.636 336.261C401.612 336.29 401.6 336.326 401.602 336.363C401.604 336.399 401.62 336.434 401.647 336.459C401.674 336.485 401.709 336.499 401.746 336.499L410.665 336.524C410.901 336.116 411.153 335.701 411.417 335.28Z" fill="black"/>
<path d="M490.217 334.749C486.959 334.554 483.7 334.393 480.441 334.264C476.069 334.04 471.697 334.004 467.325 333.865L454.209 333.743C449.837 333.791 445.465 333.797 441.093 333.88C438.09 333.971 435.086 334.027 432.082 334.125C430.744 335.151 429.262 335.975 427.684 336.57L454.209 336.644L491.903 336.541C491.903 336.084 491.729 335.644 491.415 335.311C491.102 334.978 490.674 334.777 490.217 334.749Z" fill="black"/>
<path d="M448.955 418.457L448.568 418.495L444.106 381.401L441.339 356.171L443.564 355.271C444.126 357.671 444.639 360.074 445.103 362.481C445.761 365.539 446.177 368.626 446.71 371.704C447.165 374.781 447.542 377.868 447.948 380.955C448.239 384.062 448.587 387.159 448.839 390.256C449.013 393.372 449.303 396.478 449.361 399.604C449.66 405.89 449.524 412.189 448.955 418.457Z" fill="black"/>
</svg>
