<svg width="700" height="550" viewBox="0 0 700 550" fill="none" xmlns="http://www.w3.org/2000/svg">
<path d="M230.722 316.662C230.73 316.7 230.733 316.739 230.731 316.778L230.741 316.604L230.722 316.662ZM230.722 316.662C230.73 316.7 230.733 316.739 230.731 316.778L230.741 316.604L230.722 316.662ZM230.722 316.662C230.73 316.7 230.733 316.739 230.731 316.778L230.741 316.604L230.722 316.662ZM230.722 316.662C230.73 316.7 230.733 316.739 230.731 316.778L230.741 316.604L230.722 316.662ZM291.024 302.948C291.024 302.948 239.838 303.926 233.77 303.055C232.159 302.728 230.485 302.932 228.999 303.635C227.513 304.337 226.294 305.502 225.525 306.955C225.525 306.955 198.853 389.38 199.279 401.738C199.279 401.738 215.111 416.923 220.541 416.923C220.541 416.923 274.755 412.152 276.062 411.068L300.13 307.39C300.13 307.39 300.759 301.922 291.024 302.948ZM245.79 324.878C243.961 331.894 242.054 338.901 240.167 345.898C238.29 352.924 236.37 359.937 234.409 366.937C232.483 373.944 230.525 380.944 228.534 387.938C226.57 394.935 224.554 401.919 222.486 408.89C224.257 401.845 226.073 394.806 227.934 387.773C229.764 380.738 231.638 373.715 233.557 366.705C235.435 359.679 237.348 352.666 239.296 345.666C241.232 338.659 243.148 331.643 245.151 324.655C245.161 324.62 245.178 324.588 245.2 324.559L245.229 324.52C245.441 324.135 245.564 323.707 245.588 323.268C245.611 322.828 245.535 322.39 245.364 321.984C245.037 321.081 244.559 320.24 243.951 319.497C242.704 317.978 241.274 316.619 239.693 315.452L238.522 314.552L237.293 313.71L236.219 312.974H236.209C235.753 313.03 235.301 313.111 234.854 313.216C233.987 313.422 233.185 313.841 232.522 314.436C232.218 314.719 231.979 315.065 231.82 315.449C231.662 315.833 231.588 316.246 231.602 316.662V316.7C231.601 316.746 231.595 316.792 231.583 316.836L225.709 338.049L219.747 359.234L213.699 380.389L207.524 401.525L213.166 380.244L218.944 359.011L224.799 337.788L230.722 316.662C230.71 316.131 230.811 315.604 231.018 315.115C231.224 314.626 231.533 314.187 231.922 313.826C232.691 313.126 233.627 312.636 234.641 312.403C234.8 312.362 234.962 312.329 235.125 312.307L234.796 312.103C233.122 311.039 231.37 310.11 229.647 309.132C231.409 310.032 233.209 310.894 234.912 311.91L235.483 312.229C236.184 312.115 236.892 312.054 237.603 312.045C238.562 312.045 239.522 312.094 240.477 312.19H240.535L260.171 311.465L279.865 310.845L260.19 311.978L240.506 313.003H240.448C239.505 312.913 238.559 312.871 237.612 312.878C237.292 312.878 236.972 312.897 236.654 312.936L237.467 313.449L238.725 314.252L239.945 315.123C241.599 316.264 243.093 317.621 244.387 319.158C245.056 319.938 245.584 320.829 245.945 321.791C246.156 322.283 246.251 322.817 246.225 323.352C246.198 323.887 246.049 324.409 245.79 324.878ZM282.352 319.691L277.697 319.962C274.591 320.146 271.484 320.242 268.378 320.349C265.261 320.426 262.155 320.504 259.048 320.504C255.932 320.523 252.826 320.513 249.709 320.407C252.816 320.116 255.922 319.933 259.019 319.768C262.126 319.584 265.242 319.487 268.349 319.381C271.455 319.304 274.562 319.226 277.678 319.216H282.343C283.901 319.255 285.459 319.255 287.007 319.323C285.459 319.478 283.91 319.565 282.352 319.691ZM230.741 316.603L230.722 316.662C230.73 316.7 230.733 316.739 230.731 316.778L230.741 316.603ZM230.722 316.662C230.73 316.7 230.733 316.739 230.731 316.778L230.741 316.603L230.722 316.662ZM230.722 316.662C230.73 316.7 230.733 316.739 230.731 316.778L230.741 316.603L230.722 316.662ZM230.722 316.662C230.73 316.7 230.733 316.739 230.731 316.778L230.741 316.603L230.722 316.662ZM230.722 316.662C230.73 316.7 230.733 316.739 230.731 316.778L230.741 316.603L230.722 316.662Z" fill="#020202"/>
<path d="M460.848 422.991C460.848 422.991 445.877 471.795 294.924 406.074C294.924 406.074 285.684 408.332 314.253 261.28L315.005 261.518C318.377 262.161 321.801 262.492 325.234 262.505C343.15 262.971 358.382 251.035 367.081 236.066C373.464 225.523 377.744 213.827 380.978 201.961C381.752 199.116 382.468 196.242 383.126 193.358C387.373 193.066 391.598 192.506 395.775 191.684C395.775 191.684 450.59 391.238 459.667 419.681L454.074 417.484C454.062 417.476 454.048 417.473 454.035 417.474C454.007 417.475 453.98 417.486 453.96 417.506C453.94 417.526 453.929 417.553 453.928 417.581L453.812 429.968L443.457 422.207C443.428 422.185 443.395 422.169 443.36 422.158C443.325 422.147 443.287 422.143 443.25 422.147C443.213 422.151 443.177 422.162 443.144 422.18C443.112 422.198 443.083 422.223 443.06 422.252C443.038 422.282 443.021 422.316 443.012 422.352L438.686 436.53L429.918 425.575C429.87 425.514 429.808 425.468 429.736 425.44C429.665 425.412 429.587 425.403 429.512 425.415C429.436 425.427 429.364 425.459 429.305 425.507C429.245 425.556 429.2 425.619 429.173 425.691L424.373 437.952L416.766 425.352C416.722 425.278 416.659 425.217 416.582 425.178C416.525 425.146 416.462 425.125 416.397 425.117C416.332 425.11 416.266 425.115 416.203 425.133C416.14 425.151 416.081 425.181 416.03 425.222C415.979 425.263 415.936 425.314 415.905 425.371L408.927 437.894L402.84 424.258C402.808 424.18 402.754 424.113 402.685 424.065C402.634 424.027 402.576 424.001 402.514 423.986C402.453 423.972 402.389 423.97 402.326 423.981C402.264 423.991 402.204 424.015 402.151 424.049C402.098 424.084 402.053 424.128 402.017 424.181L393.53 436.23L387.433 422.284C387.398 422.213 387.344 422.153 387.278 422.11C387.236 422.083 387.189 422.065 387.14 422.056C387.091 422.047 387.041 422.048 386.992 422.059C386.944 422.07 386.898 422.09 386.857 422.119C386.816 422.147 386.782 422.184 386.755 422.226L379.478 433.694L373.139 419.245C373.114 419.198 373.077 419.158 373.032 419.129C373.004 419.112 372.973 419.102 372.94 419.097C372.907 419.093 372.874 419.096 372.842 419.105C372.81 419.114 372.781 419.129 372.755 419.15C372.73 419.171 372.709 419.197 372.694 419.226L366.268 430.617L359.571 415.887C359.556 415.858 359.532 415.834 359.503 415.819C359.486 415.81 359.467 415.805 359.448 415.804C359.429 415.802 359.41 415.805 359.391 415.811C359.373 415.817 359.357 415.828 359.342 415.841C359.328 415.854 359.317 415.87 359.309 415.887L353.483 426.862L347.135 412.297C347.113 412.245 347.076 412.201 347.028 412.171C346.965 412.139 346.892 412.132 346.823 412.151C346.755 412.171 346.697 412.216 346.661 412.277L340.806 422.41L335.396 408.871C335.368 408.812 335.329 408.759 335.28 408.716C335.241 408.686 335.197 408.664 335.149 408.651C335.102 408.638 335.053 408.635 335.004 408.641C334.956 408.647 334.909 408.663 334.866 408.688C334.824 408.712 334.787 408.745 334.757 408.784L327.76 417.552C326.25 413.294 324.663 409.055 323.115 404.806C323.088 404.741 323.046 404.684 322.991 404.641C322.936 404.597 322.871 404.569 322.801 404.558C322.732 404.547 322.661 404.555 322.596 404.58C322.53 404.605 322.472 404.646 322.428 404.7L315.953 412.965L312.808 399.077C312.799 399.02 312.773 398.967 312.734 398.925C312.695 398.883 312.645 398.853 312.589 398.84C312.533 398.826 312.474 398.83 312.42 398.85C312.366 398.869 312.319 398.905 312.285 398.951L304.408 408.503C303.062 404.351 301.669 400.209 300.275 396.077C300.269 396.046 300.252 396.019 300.227 396C300.196 395.978 300.157 395.969 300.12 395.974C300.082 395.979 300.048 395.999 300.024 396.029L294.178 403.974C294.159 403.993 294.169 404.022 294.188 404.042C294.199 404.047 294.211 404.049 294.223 404.048C294.236 404.046 294.247 404.04 294.256 404.032L300.082 396.425C301.417 400.645 302.724 404.874 304.088 409.084C304.099 409.131 304.126 409.172 304.166 409.2C304.191 409.221 304.219 409.237 304.25 409.247C304.281 409.257 304.314 409.261 304.346 409.258C304.378 409.255 304.41 409.246 304.439 409.231C304.468 409.216 304.493 409.196 304.514 409.171L312.353 399.803L315.421 413.845C315.441 413.924 315.485 413.995 315.547 414.048C315.584 414.078 315.626 414.1 315.671 414.113C315.716 414.126 315.764 414.13 315.81 414.125C315.857 414.119 315.903 414.105 315.944 414.081C315.985 414.058 316.021 414.028 316.05 413.99L322.602 405.755C324.15 410.023 325.66 414.29 327.228 418.539C327.258 418.61 327.305 418.673 327.363 418.723C327.406 418.758 327.456 418.783 327.509 418.799C327.562 418.814 327.618 418.819 327.673 418.812C327.727 418.806 327.781 418.789 327.829 418.762C327.877 418.735 327.919 418.699 327.954 418.655L334.941 409.742L340.467 423.242C340.495 423.309 340.542 423.366 340.602 423.407C340.677 423.446 340.764 423.455 340.845 423.431C340.926 423.408 340.995 423.354 341.038 423.281L346.864 412.994L353.28 427.384C353.299 427.428 353.334 427.462 353.377 427.481C353.423 427.504 353.476 427.507 353.525 427.491C353.574 427.475 353.615 427.44 353.638 427.394L359.425 416.294L366.064 431.139C366.083 431.18 366.113 431.214 366.151 431.236C366.174 431.25 366.199 431.258 366.226 431.262C366.252 431.265 366.278 431.263 366.304 431.256C366.329 431.249 366.353 431.236 366.373 431.22C366.394 431.203 366.41 431.182 366.422 431.159L372.878 419.894L379.139 434.488C379.161 434.548 379.201 434.599 379.255 434.633C379.29 434.656 379.329 434.671 379.37 434.679C379.411 434.686 379.453 434.686 379.493 434.677C379.534 434.668 379.572 434.651 379.606 434.626C379.64 434.602 379.669 434.572 379.691 434.536L387.007 423.242L393.026 437.314C393.064 437.386 393.117 437.448 393.181 437.498C393.229 437.532 393.282 437.557 393.34 437.57C393.397 437.584 393.456 437.586 393.514 437.576C393.571 437.566 393.626 437.544 393.676 437.513C393.725 437.481 393.768 437.44 393.801 437.391L402.307 425.42L408.404 439.249C408.446 439.355 408.525 439.441 408.627 439.491C408.685 439.525 408.75 439.547 408.816 439.555C408.883 439.563 408.951 439.559 409.016 439.541C409.081 439.523 409.141 439.492 409.194 439.45C409.247 439.408 409.291 439.357 409.324 439.298L416.359 426.61L424.053 439.298C424.11 439.39 424.195 439.461 424.295 439.501C424.355 439.524 424.419 439.535 424.482 439.533C424.546 439.532 424.609 439.517 424.668 439.491C424.726 439.465 424.779 439.428 424.823 439.381C424.867 439.335 424.901 439.28 424.924 439.22L429.715 426.707L438.55 437.517C438.593 437.577 438.654 437.622 438.725 437.643C438.818 437.669 438.919 437.658 439.004 437.611C439.089 437.564 439.152 437.485 439.18 437.391L443.447 422.913L453.899 430.588C453.938 430.618 453.986 430.635 454.035 430.636C454.094 430.636 454.15 430.612 454.191 430.57C454.233 430.529 454.257 430.472 454.257 430.414L454.141 417.736L459.706 419.807C460.009 420.894 460.391 421.958 460.848 422.991Z" fill="#020202"/>
<path d="M396.61 169.366L405.321 169.184L405.049 169.461C404.804 163.346 404.635 157.227 404.54 151.106L404.415 141.925L404.38 137.355C404.357 136.606 404.311 135.85 404.256 135.093C404.203 134.36 404.103 133.632 403.957 132.911C403.23 129.295 401.292 126.034 398.464 123.666C395.635 121.298 392.083 119.965 388.395 119.887L383.816 119.778C380.771 119.731 377.696 119.665 374.705 119.819L374.689 119.82C374.609 119.824 374.529 119.815 374.451 119.794C373.594 119.56 372.792 119.157 372.095 118.607C371.397 118.057 370.817 117.372 370.39 116.592C369.976 115.809 369.727 114.948 369.659 114.065C369.586 113.194 369.671 112.316 369.91 111.475L369.914 111.462C369.95 111.336 370.022 111.225 370.121 111.14C370.22 111.056 370.342 111.002 370.471 110.987C371.385 110.842 372.256 110.501 373.025 109.987C373.794 109.473 374.443 108.799 374.927 108.01C375.984 106.358 376.75 104.536 377.19 102.625C377.671 100.684 377.997 98.7087 378.165 96.7166C378.348 94.7183 378.411 92.7109 378.355 90.705L378.749 91.0723C377.414 91.0878 376.103 90.7137 374.977 89.9958C373.898 89.2396 373.025 88.2241 372.441 87.0426C371.861 85.8961 371.439 84.6766 371.185 83.4169C370.918 82.1687 370.771 80.8978 370.746 79.6216L371.315 79.7488C370.509 81.3007 369.537 82.7605 368.417 84.1028C367.317 85.46 366.068 86.6884 364.693 87.7646C363.313 88.8492 361.781 89.7244 360.145 90.3618C358.503 90.9973 356.768 91.362 355.008 91.4419C354.936 91.446 354.865 91.4248 354.807 91.382L354.794 91.3728C353.961 90.7616 352.721 90.3177 352.008 90.9877C351.343 91.8406 351.003 92.9011 351.046 93.9813C350.917 95.0684 351.058 96.1705 351.459 97.1895C351.548 97.3887 351.693 97.5573 351.878 97.6743C352.062 97.7912 352.277 97.8513 352.495 97.8471C352.99 97.8138 353.468 97.6473 353.877 97.3652L353.882 97.3615C353.979 97.2987 354.096 97.2756 354.21 97.297C354.323 97.3183 354.424 97.3825 354.491 97.4762C355.543 98.9453 356.363 100.568 356.92 102.287C357.493 104.019 357.763 105.837 357.718 107.661C357.55 109.469 357.12 111.244 356.443 112.93C355.811 114.604 355.062 116.232 354.203 117.801C354.148 117.901 354.068 117.985 353.97 118.045C353.872 118.104 353.76 118.136 353.646 118.138L353.616 118.138C346.605 118.2 339.604 118.687 332.651 119.595C330.922 119.835 329.202 120.124 327.513 120.5C326.658 120.661 325.842 120.92 325.005 121.125C324.205 121.36 323.425 121.657 322.671 122.015C319.659 123.575 317.074 125.849 315.142 128.638C313.146 131.456 311.478 134.492 310.168 137.687C308.807 140.894 307.648 144.183 306.697 147.535C304.808 154.282 303.35 161.142 302.331 168.074L301.665 167.061L326.431 173.733L325.592 174.107C326.37 172.444 326.88 170.668 327.105 168.845C327.378 166.933 327.761 165.039 328.251 163.171C329.334 159.539 330.073 155.813 330.456 152.043C330.839 148.266 330.896 144.462 330.627 140.675C330.354 136.876 329.764 133.105 328.864 129.403C328.859 129.38 328.862 129.356 328.875 129.336C328.887 129.315 328.906 129.301 328.929 129.295C328.952 129.289 328.977 129.292 328.997 129.304C329.018 129.315 329.033 129.335 329.039 129.358C331.16 136.75 331.961 144.458 331.406 152.129C331.112 155.969 330.457 159.774 329.45 163.492C329.027 165.331 328.698 167.191 328.465 169.064C328.249 171.041 327.72 172.971 326.898 174.781C326.823 174.929 326.7 175.047 326.55 175.115C326.399 175.184 326.23 175.199 326.07 175.158L326.058 175.155L301.204 168.815C300.989 168.76 300.801 168.627 300.677 168.441C300.554 168.256 300.504 168.031 300.536 167.811L300.538 167.802C301.546 160.787 302.999 153.843 304.887 147.012C306.86 140.213 309.368 133.409 313.669 127.546C315.799 124.538 318.634 122.098 321.925 120.44C322.767 120.049 323.639 119.725 324.531 119.472C325.406 119.263 326.275 118.999 327.154 118.842C328.906 118.468 330.665 118.187 332.427 117.958C339.459 117.125 346.537 116.733 353.619 116.786L353.033 117.123C353.892 115.631 354.648 114.081 355.294 112.484C355.964 110.923 356.406 109.274 356.608 107.587C356.683 105.895 356.468 104.203 355.973 102.583C355.478 100.946 354.733 99.3959 353.765 97.9864L354.379 98.0973C353.818 98.4726 353.163 98.6815 352.488 98.6999C352.114 98.6996 351.748 98.5893 351.435 98.3829C351.138 98.1776 350.898 97.8997 350.738 97.5756C350.281 96.4181 350.13 95.1626 350.299 93.9299C350.336 93.3231 350.437 92.7219 350.599 92.1359C350.756 91.5015 351.091 90.925 351.563 90.4735C351.829 90.2543 352.143 90.1014 352.479 90.0277C352.815 89.9539 353.164 89.9614 353.497 90.0494C354.114 90.198 354.693 90.474 355.196 90.8596L354.982 90.7905C356.674 90.7259 358.343 90.3874 359.926 89.7881C361.512 89.183 363 88.3472 364.342 87.3076C365.693 86.2701 366.919 85.0782 367.994 83.7561C369.071 82.4395 370.003 81.0106 370.775 79.4943C370.805 79.4342 370.854 79.3859 370.914 79.357C370.975 79.3282 371.043 79.3205 371.109 79.3351C371.174 79.3498 371.233 79.3859 371.276 79.4378C371.318 79.4897 371.342 79.5544 371.344 79.6215C371.381 80.8532 371.535 82.0786 371.805 83.2811C372.058 84.4804 372.471 85.6401 373.034 86.7289C373.575 87.8017 374.377 88.7215 375.366 89.4039C376.375 90.0332 377.55 90.343 378.738 90.2926C378.839 90.291 378.936 90.3284 379.01 90.3969C379.083 90.4654 379.128 90.5597 379.133 90.6601C379.242 92.7022 379.228 94.7489 379.091 96.7893C378.97 98.839 378.685 100.876 378.239 102.88C377.815 104.935 377.039 106.901 375.945 108.692C375.362 109.616 374.613 110.424 373.737 111.075C372.828 111.735 371.776 112.17 370.666 112.343L371.227 111.855C371.055 112.533 371.005 113.237 371.08 113.933C371.148 114.618 371.356 115.282 371.692 115.884C372.029 116.482 372.483 117.006 373.026 117.425C373.569 117.845 374.191 118.151 374.855 118.326L374.601 118.301C377.721 118.118 380.769 118.164 383.84 118.186L388.436 118.261C392.466 118.386 396.335 119.876 399.406 122.488C402.478 125.1 404.571 128.678 405.342 132.636C405.759 135.714 405.881 138.826 405.706 141.927L405.62 151.1L405.594 169.45L405.593 169.462C405.593 169.497 405.586 169.532 405.573 169.564C405.56 169.596 405.54 169.626 405.515 169.65C405.49 169.675 405.461 169.695 405.429 169.708C405.396 169.721 405.362 169.728 405.326 169.728L405.321 169.728L396.61 169.546C396.586 169.546 396.564 169.536 396.547 169.519C396.531 169.502 396.521 169.48 396.521 169.456C396.521 169.432 396.531 169.41 396.547 169.393C396.564 169.376 396.586 169.366 396.61 169.366V169.366Z" fill="#020202"/>
<path d="M337.12 261.032C337.236 261.2 337.331 261.381 337.404 261.572C337.43 261.661 337.437 261.739 337.365 261.645C337.291 261.549 337.161 261.287 337.132 261.239C337.097 261.183 337.123 261.277 337.155 261.445C337.186 261.563 337.195 261.687 337.183 261.809C337.172 261.879 337.154 261.957 337.121 261.934C337.055 261.858 336.97 261.656 336.954 261.076L336.953 261.021L336.954 260.895C336.986 260.6 336.949 260.302 336.845 260.023C336.821 259.997 336.813 260.073 336.812 260.141C336.815 260.262 336.834 260.382 336.869 260.498C336.91 260.663 336.946 260.755 336.921 260.696C336.862 260.554 336.794 260.417 336.717 260.283C336.655 260.186 336.671 260.262 336.708 260.349C336.795 260.535 336.9 260.714 337.02 260.881L337.082 260.974L337.12 261.032Z" fill="#020202"/>
<path d="M345.835 257.551C345.924 257.74 345.987 257.94 346.021 258.145C346.026 258.246 346.021 258.332 345.924 258.253C345.826 258.172 345.646 257.938 345.581 257.91C345.51 257.874 345.518 257.981 345.557 258.152C345.598 258.275 345.613 258.404 345.603 258.533C345.593 258.613 345.584 258.7 345.53 258.696C345.409 258.663 345.232 258.521 344.9 258.038C344.866 257.988 344.84 257.933 344.821 257.875C344.694 257.593 344.637 257.284 344.656 256.975C344.679 256.931 344.748 256.977 344.815 257.017C344.921 257.088 345.015 257.176 345.093 257.278C345.21 257.408 345.295 257.475 345.302 257.398C345.275 257.242 345.238 257.087 345.191 256.935C345.172 256.815 345.244 256.861 345.326 256.921C345.482 257.064 345.622 257.222 345.744 257.395C345.781 257.443 345.811 257.495 345.835 257.551Z" fill="#020202"/>
<path d="M346.957 256.932C347.048 257.119 347.119 257.315 347.167 257.518C347.181 257.615 347.185 257.697 347.096 257.616C347.005 257.532 346.83 257.297 346.772 257.267C346.709 257.229 346.725 257.332 346.776 257.498C346.822 257.616 346.848 257.741 346.854 257.867C346.854 257.944 346.856 258.026 346.81 258.019C346.704 257.981 346.539 257.836 346.2 257.359C346.166 257.309 346.137 257.256 346.115 257.2C345.973 256.929 345.894 256.631 345.882 256.326C345.899 256.284 345.965 256.331 346.027 256.372C346.129 256.445 346.219 256.534 346.294 256.634C346.407 256.765 346.487 256.833 346.486 256.759C346.491 256.694 346.379 256.424 346.352 256.304C346.326 256.187 346.392 256.234 346.469 256.296C346.617 256.442 346.75 256.603 346.867 256.775C346.902 256.824 346.933 256.877 346.957 256.932Z" fill="#020202"/>
<path d="M351.516 253.934C351.627 254.115 351.708 254.312 351.756 254.518C351.767 254.624 351.765 254.716 351.65 254.657C351.518 254.558 351.381 254.467 351.238 254.384C351.156 254.365 351.17 254.476 351.224 254.646C351.277 254.769 351.302 254.902 351.297 255.036C351.29 255.124 351.286 255.217 351.223 255.227C351.082 255.223 350.871 255.12 350.457 254.702C350.414 254.659 350.38 254.608 350.355 254.553C350.117 254.007 350.081 253.777 350.116 253.646C350.141 253.592 350.225 253.622 350.306 253.645C350.43 253.689 350.545 253.757 350.643 253.845C350.785 253.951 350.887 253.999 350.892 253.915C350.854 253.757 350.805 253.602 350.744 253.452C350.717 253.329 350.803 253.357 350.901 253.399C351.086 253.507 351.256 253.639 351.405 253.792C351.449 253.833 351.487 253.882 351.516 253.934Z" fill="#020202"/>
<path d="M372.534 225.971C372.716 226.086 372.876 226.232 373.008 226.403C373.063 226.501 373.102 226.591 372.97 226.601C372.803 226.583 372.636 226.576 372.468 226.58C372.382 226.611 372.444 226.712 372.569 226.844C372.674 226.934 372.756 227.048 372.809 227.176C372.841 227.264 372.879 227.356 372.825 227.403C372.692 227.483 372.45 227.511 371.875 227.367C371.816 227.352 371.76 227.324 371.713 227.286C371.247 226.91 371.114 226.705 371.091 226.554C371.093 226.485 371.185 226.46 371.272 226.432C371.404 226.396 371.542 226.39 371.677 226.416C371.856 226.432 371.973 226.416 371.941 226.331C371.92 226.25 371.684 226.068 371.605 225.962C371.527 225.856 371.621 225.83 371.731 225.811C371.947 225.804 372.163 225.833 372.37 225.895C372.428 225.91 372.484 225.936 372.534 225.971Z" fill="#020202"/>
<path d="M391.004 134.537C391.127 135.115 391.304 135.68 391.532 136.224L392.171 137.878C392.608 138.976 393.063 140.068 393.525 141.157C394.008 142.225 394.414 143.381 394.929 144.365C395.196 144.868 395.497 145.36 395.811 145.854C395.978 146.115 396.131 146.384 396.268 146.662C396.428 146.937 396.564 147.225 396.676 147.523C397.125 148.696 397.401 149.928 397.493 151.18C397.571 152.408 397.543 153.64 397.408 154.862C397.14 157.289 396.579 159.675 395.736 161.966L395.788 161.522C396.328 165.132 396.799 168.751 397.287 172.368L397.962 177.801C398.195 179.611 398.38 181.428 398.591 183.241L398.596 183.281C398.607 183.38 398.593 183.48 398.557 183.572C398.521 183.664 398.463 183.746 398.388 183.811C397.406 184.609 396.278 185.206 395.066 185.571C393.921 185.951 392.748 186.238 391.557 186.431C389.21 186.816 386.839 187.032 384.462 187.077C386.792 186.721 389.104 186.249 391.387 185.661C392.508 185.363 393.609 184.996 394.685 184.562C395.716 184.163 396.669 183.584 397.498 182.852L397.295 183.422C397.001 181.621 396.681 179.823 396.409 178.018L395.57 172.608C395.047 168.996 394.509 165.386 394.039 161.766C394.02 161.62 394.037 161.471 394.087 161.333L394.092 161.321C394.89 159.167 395.463 156.937 395.804 154.666C396.19 152.44 396.07 150.155 395.454 147.982C395.373 147.72 395.269 147.467 395.142 147.224C395.024 146.976 394.928 146.732 394.772 146.462C394.488 145.935 394.209 145.395 393.961 144.832C393.467 143.673 393.157 142.566 392.789 141.427C392.436 140.294 392.092 139.158 391.765 138.016C391.4 136.883 391.145 135.718 391.004 134.537Z" fill="#020202"/>
<path d="M302.783 168.318C301.089 175.63 299.297 182.916 297.467 190.191C295.684 197.479 293.732 204.722 291.868 211.989C290.942 215.624 289.962 219.244 288.971 222.862C287.987 226.481 287.015 230.104 285.974 233.708C283.943 240.93 281.836 248.132 279.855 255.367C279.832 255.449 279.78 255.519 279.709 255.564C279.637 255.61 279.551 255.626 279.468 255.612L279.46 255.61C278.537 255.447 277.594 255.429 276.666 255.556C275.738 255.671 274.844 255.974 274.038 256.447C273.244 256.931 272.578 257.601 272.099 258.398C271.625 259.214 271.294 260.104 271.121 261.031C271.118 261.047 271.113 261.062 271.108 261.078C270.848 261.783 270.663 262.515 270.557 263.259C270.504 263.615 270.5 263.976 270.546 264.333C270.552 264.479 270.595 264.622 270.67 264.747C270.746 264.872 270.851 264.977 270.977 265.052C271.029 265.074 271.073 265.111 271.104 265.159C271.134 265.206 271.149 265.262 271.148 265.319L271.147 265.338C271.076 266.597 271.214 267.859 271.554 269.074C271.711 269.649 272.01 270.175 272.423 270.604C272.628 270.792 272.872 270.93 273.138 271.009C273.404 271.088 273.685 271.106 273.959 271.061C274.041 271.051 274.123 271.072 274.19 271.12C274.258 271.168 274.305 271.238 274.323 271.319L274.326 271.333C274.41 271.861 274.604 272.365 274.896 272.813C275.188 273.261 275.571 273.642 276.021 273.932C276.514 274.111 277.043 274.168 277.563 274.096C278.083 274.024 278.577 273.826 279.003 273.52C279.061 273.486 279.126 273.468 279.193 273.465C279.259 273.462 279.326 273.476 279.386 273.505C279.446 273.534 279.498 273.577 279.538 273.631C279.578 273.684 279.604 273.747 279.614 273.813L279.619 273.844C279.723 274.898 280.157 275.892 280.861 276.683C281.237 276.989 281.702 277.165 282.187 277.183C282.671 277.201 283.149 277.061 283.547 276.784C284.499 276.306 285.303 275.577 285.874 274.677C286.162 274.228 286.397 273.748 286.574 273.244L287.14 271.61L289.425 265.061C289.814 263.799 290.612 262.702 291.693 261.944C292.25 261.561 292.873 261.286 293.532 261.135C293.879 261.053 294.234 261.015 294.591 261.023C295.049 261.029 295.492 261.182 295.856 261.46C295.952 261.537 296.029 261.635 296.078 261.748C296.128 261.86 296.15 261.983 296.142 262.106L296.141 262.126L295.753 267.66L294.549 266.86C294.782 266.7 294.987 266.503 295.156 266.277C295.351 266.021 295.51 265.739 295.629 265.44C295.868 264.794 295.966 264.105 295.916 263.418C295.879 262.685 295.755 261.96 295.545 261.257C295.423 260.9 295.321 260.539 295.185 260.184L294.747 259.125L294.738 259.105C294.659 258.913 294.649 258.7 294.711 258.502C296.913 251.416 299.091 244.322 301.373 237.261C303.649 230.199 305.846 223.111 308.188 216.069C310.517 209.023 312.79 201.96 315.176 194.932C317.518 187.89 319.935 180.872 322.36 173.857C322.368 173.835 322.384 173.817 322.405 173.806C322.426 173.795 322.45 173.794 322.473 173.801C322.495 173.808 322.514 173.823 322.525 173.844C322.536 173.865 322.539 173.889 322.533 173.912C320.475 181.043 318.408 188.172 316.267 195.278C314.169 202.397 311.959 209.48 309.804 216.581C307.662 223.687 305.376 230.746 303.169 237.83C300.968 244.917 298.662 251.97 296.381 259.031L296.345 258.407L296.815 259.577C296.963 259.972 297.077 260.385 297.208 260.788C297.448 261.627 297.586 262.491 297.618 263.363C297.669 264.283 297.522 265.203 297.189 266.062C297.007 266.508 296.765 266.926 296.468 267.305C296.153 267.721 295.758 268.069 295.307 268.331C295.18 268.405 295.034 268.443 294.887 268.441C294.739 268.438 294.596 268.395 294.471 268.316C294.346 268.237 294.246 268.126 294.18 267.994C294.115 267.861 294.087 267.714 294.1 267.567L294.103 267.531L294.583 262.004L294.867 262.67C294.546 262.53 294.186 262.515 293.855 262.627C293.381 262.727 292.931 262.914 292.527 263.181C291.688 263.747 291.065 264.581 290.761 265.547L288.307 272.034L287.687 273.658C287.462 274.24 287.17 274.794 286.815 275.308C286.108 276.35 285.13 277.181 283.987 277.711C283.398 278.002 282.749 278.154 282.092 278.155C281.388 278.14 280.717 277.853 280.22 277.354C279.381 276.398 278.879 275.194 278.789 273.926L279.405 274.25C278.851 274.559 278.25 274.772 277.625 274.88C276.962 274.999 276.277 274.896 275.678 274.587C275.108 274.26 274.64 273.781 274.327 273.203C274.017 272.657 273.796 272.065 273.672 271.449L274.039 271.72C273.669 271.773 273.293 271.742 272.937 271.631C272.581 271.519 272.255 271.329 271.982 271.075C271.492 270.566 271.139 269.942 270.956 269.26C270.606 267.971 270.472 266.632 270.561 265.299L270.731 265.584C270.518 265.469 270.338 265.302 270.206 265.099C270.075 264.896 269.996 264.663 269.977 264.422C269.926 264.011 269.933 263.595 269.997 263.185C270.118 262.399 270.32 261.628 270.6 260.883L270.587 260.929C270.762 259.936 271.106 258.979 271.605 258.102C272.124 257.217 272.85 256.471 273.72 255.928C274.593 255.402 275.565 255.059 276.575 254.921C277.578 254.772 278.598 254.782 279.598 254.951L279.204 255.194C281.084 247.931 282.838 240.636 284.668 233.36C285.557 229.715 286.516 226.089 287.463 222.46C288.402 218.829 289.353 215.2 290.357 211.586C292.354 204.355 294.264 197.101 296.341 189.891C298.372 182.669 300.442 175.457 302.609 168.271C302.615 168.249 302.631 168.23 302.651 168.218C302.672 168.207 302.696 168.204 302.719 168.21C302.741 168.216 302.761 168.231 302.773 168.251C302.785 168.271 302.789 168.295 302.783 168.318L302.783 168.318Z" fill="#020202"/>
<path d="M272.614 257.185L268.228 256.256C267.033 256.002 265.786 256.191 264.72 256.788C263.654 257.385 262.841 258.348 262.432 259.499C258.022 271.912 246.694 302.273 246.873 305.322C247.09 309.009 255.71 309.132 255.71 309.132L269.119 265.318H270.854" fill="#020202"/>
<path d="M294.928 267.595L286.469 312.165C283.867 317.804 279.095 314.551 279.095 314.551L288.311 270.207C288.311 270.207 290.825 260.242 295.362 262.065L294.928 267.595Z" fill="#020202"/>
<path d="M230.722 316.662L230.741 316.604L230.731 316.778C230.733 316.739 230.73 316.7 230.722 316.662Z" fill="white"/>
<path d="M201.859 402.191C202.267 399.527 201.589 397.213 200.346 397.022C199.103 396.832 197.765 398.837 197.357 401.502C196.949 404.166 197.626 406.479 198.869 406.67C200.113 406.86 201.451 404.855 201.859 402.191Z" fill="#020202"/>
<path d="M222.681 417.641C223.088 414.977 222.411 412.663 221.168 412.473C219.925 412.283 218.586 414.288 218.179 416.952C217.771 419.616 218.448 421.93 219.691 422.12C220.934 422.311 222.273 420.305 222.681 417.641Z" fill="#020202"/>
<path d="M271.722 413.718C272.13 411.054 271.453 408.741 270.21 408.55C268.966 408.36 267.628 410.365 267.22 413.029C266.812 415.693 267.49 418.007 268.733 418.198C269.976 418.388 271.314 416.383 271.722 413.718Z" fill="#020202"/>
<path d="M390.743 124.124C390.688 132.115 390.413 140.091 390.024 148.075C389.626 156.066 388.975 164.038 388.028 171.991C387.098 179.959 385.727 187.87 383.923 195.687C382.984 199.592 381.952 203.472 380.766 207.314C380.171 209.234 379.529 211.142 378.864 213.043C378.542 213.998 378.193 214.938 377.829 215.869L377.285 217.261L377.012 217.957L376.876 218.305L376.808 218.479L376.772 218.571C376.729 218.684 376.675 218.793 376.612 218.896L376.726 218.673C375.876 220.761 374.969 222.841 374.028 224.866C373.078 226.895 372.054 228.921 370.991 230.89L371.042 230.768C370.999 230.894 370.935 231.013 370.853 231.119L370.928 230.999C369.926 232.842 368.854 234.654 367.746 236.42L367.705 236.486C367.686 236.516 367.662 236.543 367.634 236.565C367.649 236.549 367.663 236.533 367.676 236.516C367.778 236.39 367.833 236.233 367.831 236.071L367.718 236.462L366.483 238.342L366.525 238.268L366.484 238.327L366.443 238.399C364.604 241.109 362.601 243.703 360.445 246.168C358.281 248.631 355.912 250.905 353.362 252.966C350.807 255.023 348.052 256.818 345.137 258.323C342.213 259.832 339.12 260.989 335.923 261.77L335.961 261.76L335.522 261.866L335.563 261.858C333.873 262.269 332.157 262.569 330.428 262.755C328.705 262.964 326.972 263.083 325.237 263.111C321.761 263.148 318.289 262.865 314.866 262.266L315.005 262.279L314.995 262.279C314.796 262.282 314.604 262.206 314.461 262.067C314.318 261.929 314.236 261.739 314.233 261.54L314.235 261.47L314.237 261.448C314.91 253.048 315.57 244.651 316.423 236.269L317.711 223.697L319.172 211.141C320.198 202.774 321.29 194.413 322.6 186.07C323.28 181.903 324.005 177.739 324.838 173.584C325.644 169.387 326.694 165.241 327.982 161.167C328.068 160.909 328.222 160.68 328.429 160.504C332.814 156.787 337.233 153.119 341.687 149.5C346.146 145.883 350.651 142.32 355.199 138.811C359.75 135.304 364.335 131.843 368.957 128.427C371.274 126.728 373.609 125.052 375.986 123.432C377.179 122.629 378.37 121.821 379.589 121.053C380.799 120.236 382.096 119.559 383.458 119.034L383.375 119.078C383.666 118.909 383.988 118.8 384.322 118.758C384.624 118.707 384.928 118.673 385.234 118.656C385.836 118.628 386.439 118.63 387.041 118.663C388.235 118.74 389.425 118.878 390.605 119.076C390.644 119.083 390.681 119.103 390.707 119.133C390.734 119.163 390.749 119.202 390.75 119.242L390.743 124.124ZM390.452 124.123L390.407 119.25L390.551 119.415C389.382 119.232 388.204 119.109 387.022 119.046C386.436 119.019 385.848 119.025 385.263 119.064C384.714 119.087 384.174 119.212 383.671 119.433L383.621 119.462L383.588 119.477C382.289 120.028 381.054 120.721 379.906 121.542C378.72 122.336 377.556 123.166 376.414 124.03C374.127 125.752 371.881 127.531 369.653 129.332C365.195 132.932 360.818 136.636 356.464 140.366L330.382 162.784L330.829 162.121C329.638 166.093 328.655 170.125 327.884 174.199C327.055 178.297 326.329 182.427 325.647 186.566C324.271 194.845 323.048 203.162 321.923 211.494C320.815 219.828 319.749 228.171 318.725 236.522C317.735 244.876 316.664 253.226 315.753 261.588L314.995 260.757L315.005 260.757L315.028 260.757C315.067 260.758 315.106 260.762 315.145 260.77C318.467 261.455 321.845 261.833 325.237 261.9C326.933 261.932 328.63 261.861 330.318 261.685C332.003 261.523 333.675 261.25 335.325 260.869L335.367 260.86L335.663 260.792L335.701 260.782C338.827 260.053 341.856 258.957 344.725 257.517C347.601 256.07 350.304 254.303 352.782 252.248C355.271 250.207 357.56 247.932 359.618 245.455C361.681 242.981 363.566 240.364 365.26 237.623L365.219 237.694L365.255 237.638L365.298 237.564L366.443 235.669L366.33 236.061C366.33 235.887 366.389 235.718 366.499 235.583L366.565 235.509L366.454 235.653C367.491 233.854 368.471 232.045 369.388 230.197L369.463 230.076C369.431 230.118 369.406 230.165 369.39 230.215L369.442 230.092C370.425 228.095 371.345 226.103 372.215 224.057C373.08 222 373.883 219.959 374.642 217.883L374.757 217.66C374.719 217.706 374.69 217.758 374.672 217.814L374.701 217.73L374.763 217.553L374.887 217.2L375.135 216.492L375.629 215.077L376.575 212.254C377.191 210.374 377.785 208.486 378.334 206.583C379.441 202.778 380.477 198.944 381.384 195.083C383.251 187.365 384.743 179.552 386.085 171.716C387.414 163.866 388.439 155.951 389.2 148.019C389.575 144.05 389.889 140.069 390.096 136.084C390.22 134.093 390.261 132.099 390.323 130.105C390.39 128.111 390.436 126.117 390.452 124.123V124.123Z" fill="#020202"/>
<path d="M390.7 186.041C391.285 187.108 391.768 188.227 392.143 189.385C392.52 190.517 392.834 191.669 393.085 192.836C393.338 194.002 393.525 195.182 393.647 196.369C393.781 197.578 393.799 198.798 393.702 200.011C393.116 198.945 392.632 197.825 392.257 196.667C391.88 195.535 391.566 194.383 391.318 193.216C391.067 192.049 390.88 190.869 390.759 189.682C390.625 188.473 390.606 187.254 390.7 186.041Z" fill="#020202"/>
<path d="M399.98 212.028C402.967 215.931 405.934 219.847 408.838 223.808L413.21 229.738C414.675 231.71 416.089 233.718 417.53 235.705C417.566 235.755 417.595 235.808 417.616 235.865L417.621 235.879C419.119 239.987 420.68 244.074 422.127 248.201L423.212 251.296L423.745 252.849L424.216 254.434C424.438 255.404 424.86 256.317 425.454 257.114C425.745 257.449 426.118 257.702 426.536 257.848C426.965 258.026 427.423 258.123 427.887 258.133C428.049 258.141 428.208 258.091 428.338 257.993C428.467 257.895 428.558 257.754 428.594 257.596C428.711 257.135 428.738 256.656 428.676 256.185C428.547 255.129 428.327 254.086 428.017 253.068C427.721 252.028 427.386 250.992 427.034 249.961C426.862 249.442 426.659 248.947 426.505 248.38C426.406 248.069 426.376 247.739 426.419 247.414C426.447 247.279 426.518 247.157 426.621 247.065C426.733 246.971 426.876 246.922 427.023 246.929C427.206 246.941 427.384 246.992 427.546 247.078C428.497 247.681 429.372 248.397 430.15 249.211C430.938 249.979 431.696 250.772 432.442 251.574C433.936 253.176 435.403 254.802 436.842 256.45C438.185 258.147 439.736 259.668 441.46 260.976C442.327 261.605 443.245 262.159 444.204 262.634C444.673 262.865 445.161 263.055 445.661 263.204C446.103 263.355 446.572 263.405 447.035 263.351C447.216 263.3 447.379 263.201 447.507 263.065C447.635 262.928 447.724 262.759 447.763 262.576C447.802 262.399 447.788 262.214 447.725 262.044C447.693 261.959 447.651 261.878 447.599 261.803L447.353 261.475L445.389 258.85L441.469 253.594C436.263 246.574 431.122 239.511 425.971 232.456C425.951 232.429 425.933 232.4 425.916 232.371C424.55 229.913 423.173 227.46 421.846 224.98C420.579 222.469 419.237 219.994 418.043 217.447C415.612 212.372 413.316 207.229 411.305 201.972C409.275 196.724 407.413 191.407 405.91 185.983C405.17 183.269 404.44 180.551 403.887 177.792C403.281 175.045 402.838 172.264 402.56 169.465C402.559 169.453 402.56 169.441 402.563 169.43C402.567 169.419 402.573 169.408 402.58 169.399C402.588 169.39 402.597 169.382 402.608 169.377C402.618 169.371 402.63 169.368 402.642 169.367C402.665 169.366 402.688 169.374 402.706 169.388C402.724 169.403 402.736 169.424 402.739 169.447C403.207 172.205 403.814 174.937 404.556 177.633C405.278 180.335 406.076 183.014 406.931 185.674C408.676 190.984 410.654 196.213 412.79 201.373L414.434 205.227L416.17 209.039C417.287 211.599 418.548 214.093 419.756 216.611C420.985 219.118 422.292 221.588 423.55 224.082L427.533 231.457L427.479 231.372C432.538 238.509 437.607 245.637 442.611 252.808L446.349 258.197L448.213 260.893L448.446 261.23C448.545 261.383 448.623 261.549 448.68 261.722C448.763 261.981 448.791 262.255 448.764 262.525C448.736 262.796 448.653 263.058 448.519 263.295C448.386 263.532 448.205 263.74 447.988 263.904C447.771 264.068 447.522 264.185 447.258 264.249C446.634 264.333 445.998 264.261 445.409 264.038C444.867 263.859 444.341 263.634 443.837 263.366C442.853 262.839 441.915 262.231 441.033 261.546C439.303 260.169 437.741 258.592 436.379 256.849C434.96 255.191 433.533 253.539 432.041 251.95C431.292 251.158 430.533 250.377 429.75 249.626C429.013 248.862 428.182 248.196 427.276 247.644C427.195 247.603 427.108 247.577 427.019 247.567C426.979 247.592 427.096 247.501 427.051 247.556C427.044 247.776 427.078 247.996 427.15 248.204C427.292 248.691 427.517 249.205 427.704 249.717C428.096 250.74 428.491 251.764 428.842 252.812C429.219 253.87 429.503 254.959 429.689 256.067C429.796 256.678 429.782 257.305 429.647 257.91C429.551 258.285 429.343 258.622 429.051 258.876C428.747 259.12 428.377 259.269 427.988 259.303C427.357 259.335 426.726 259.242 426.131 259.03C425.505 258.838 424.938 258.49 424.483 258.018C423.706 257.106 423.134 256.037 422.806 254.885C422.181 252.817 421.309 250.793 420.605 248.73C419.104 244.627 417.716 240.485 416.266 236.365L416.356 236.538C414.958 234.519 413.532 232.52 412.158 230.484L408.012 224.394C405.236 220.342 402.524 216.244 399.832 212.133C399.82 212.113 399.815 212.09 399.819 212.067C399.824 212.044 399.837 212.023 399.856 212.01C399.875 211.996 399.899 211.991 399.922 211.994C399.945 211.998 399.966 212.01 399.98 212.029L399.98 212.028Z" fill="#020202"/>
<path d="M273.999 271.391C273.744 270.524 273.618 269.624 273.625 268.721C273.621 267.839 273.706 266.96 273.88 266.096C274.048 265.216 274.327 264.36 274.711 263.551C274.912 263.129 275.159 262.731 275.449 262.366C275.731 261.967 276.136 261.671 276.601 261.523C276.413 261.908 276.294 262.323 276.249 262.749C276.164 263.144 276.131 263.572 276.067 263.979C275.943 264.798 275.822 265.63 275.651 266.453C275.484 267.288 275.275 268.114 275.026 268.928C274.769 269.782 274.425 270.607 273.999 271.391Z" fill="#020202"/>
<path d="M279.204 273.885C279.011 272.877 278.944 271.849 279.004 270.825C279.054 269.822 279.185 268.825 279.397 267.843C279.605 266.851 279.911 265.882 280.309 264.95C280.518 264.472 280.764 264.012 281.046 263.573C281.197 263.349 281.365 263.137 281.549 262.939C281.726 262.722 281.968 262.567 282.24 262.499C282.022 262.935 281.896 263.411 281.872 263.898L281.674 265.345C281.534 266.308 281.372 267.27 281.162 268.226C280.955 269.189 280.7 270.142 280.397 271.08C280.092 272.051 279.692 272.991 279.204 273.885Z" fill="#020202"/>
<path d="M270.848 265.433C270.848 265.433 272.806 258.988 273.619 258.297" stroke="#020202" stroke-width="0.90368" stroke-linecap="round" stroke-linejoin="round"/>
<path d="M294.978 406.151C295.091 408.316 295.304 410.261 295.4 412.148L295.315 411.878L301.859 420.161L308.488 428.356C310.659 431.118 313.032 433.716 315.588 436.126C316.872 437.311 318.28 438.356 319.785 439.243C320.525 439.672 321.319 439.999 322.145 440.217C322.908 440.439 323.726 440.374 324.444 440.034L324.359 440.091C324.809 439.564 325.134 438.942 325.309 438.272C325.497 437.576 325.584 436.856 325.566 436.135C325.514 434.664 325.233 433.21 324.731 431.827C324.212 430.421 323.583 429.059 322.851 427.752C322.46 427.105 322.11 426.438 321.688 425.808L320.421 423.92L320.5 424.019C319.983 423.443 319.508 422.831 319.08 422.186C318.65 421.549 318.271 420.879 317.947 420.183C317.249 418.748 316.884 417.175 316.88 415.58L317.471 416.485C315.634 415.685 313.796 414.918 311.971 414.071L306.452 411.536L294.978 406.151ZM294.878 406L306.315 410.137L312.253 412.364C314.246 413.104 316.227 413.924 318.208 414.711C318.377 414.779 318.523 414.893 318.628 415.042C318.732 415.191 318.792 415.367 318.798 415.548L318.8 415.616C318.81 416.255 318.889 416.891 319.035 417.512C319.198 418.153 319.418 418.777 319.694 419.378C319.982 419.99 320.304 420.584 320.661 421.158C321.016 421.727 321.41 422.27 321.841 422.784L321.887 422.838L321.921 422.883L323.181 424.885C323.599 425.552 323.951 426.267 324.338 426.955C324.722 427.646 325.019 428.392 325.356 429.11C325.647 429.852 325.922 430.605 326.154 431.372C326.643 432.924 326.853 434.55 326.775 436.175C326.745 437.877 326.086 439.507 324.923 440.749C324.901 440.771 324.874 440.79 324.846 440.803L324.838 440.806C323.924 441.184 322.903 441.212 321.97 440.883C321.099 440.613 320.267 440.231 319.494 439.747C317.98 438.805 316.545 437.741 315.204 436.566C312.504 434.261 309.925 431.818 307.479 429.245C305.038 426.674 302.752 423.96 300.633 421.118C298.493 418.295 296.446 415.411 294.541 412.418L294.519 412.384C294.474 412.314 294.452 412.231 294.456 412.148C294.551 409.986 294.765 407.883 294.878 406Z" fill="#020202"/>
<path d="M293.744 409.979C292.538 410.564 291.522 411.477 290.811 412.613C290.1 413.748 289.723 415.061 289.723 416.401V431.234H296.88L297.747 423.401C297.747 423.401 319.219 460.296 337.871 462.248C356.523 464.2 323.533 427.225 323.533 427.225C323.533 427.225 328.545 434.858 324.641 440.42C324.641 440.42 320.505 443.438 310.559 431.63C310.559 431.63 318.568 422.943 321.171 423.401C321.171 423.401 320.898 420.663 319.191 420.526C319.191 420.526 308.471 425.293 307.989 428.806C307.989 428.806 296.68 414.751 293.744 409.979Z" fill="#020202"/>
<path d="M432.386 439.502C433.001 441.025 433.553 442.568 434.134 444.102C434.7 445.64 435.251 447.183 435.788 448.731C436.867 451.824 437.904 454.931 438.899 458.051L438.528 457.594C441.623 459.235 444.747 460.865 447.836 462.549C450.949 464.19 454.07 465.835 457.303 467.233C460.52 468.654 463.853 469.796 467.266 470.646C468.947 471.072 470.667 471.332 472.399 471.425C473.226 471.467 474.056 471.401 474.866 471.226C475.575 471.108 476.218 470.738 476.678 470.184L476.591 470.333C476.748 469.711 476.768 469.063 476.65 468.433C476.526 467.748 476.308 467.083 476.004 466.456C475.357 465.157 474.497 463.976 473.461 462.96C472.937 462.441 472.381 461.946 471.815 461.465C471.213 461.018 470.652 460.527 470.02 460.116C469.385 459.71 468.789 459.253 468.138 458.865L466.189 457.702L466.156 457.683C466.119 457.661 466.085 457.636 466.051 457.609C464.16 456.041 462.4 454.387 460.658 452.688C458.941 450.969 457.295 449.18 455.722 447.32C454.133 445.468 452.703 443.485 451.445 441.394C450.807 440.35 450.249 439.259 449.777 438.131L449.166 436.399L448.819 434.599C448.814 434.576 448.819 434.552 448.832 434.532C448.845 434.513 448.865 434.499 448.888 434.494C448.911 434.489 448.935 434.493 448.955 434.505C448.975 434.518 448.989 434.537 448.995 434.56L448.997 434.569C449.678 436.854 450.776 438.994 452.236 440.879C453.639 442.803 455.167 444.634 456.808 446.36C458.435 448.103 460.133 449.78 461.902 451.391C463.643 453.019 465.455 454.602 467.272 456.11L467.135 456.017L469.164 457.236C469.839 457.645 470.481 458.121 471.131 458.573C471.782 459.024 472.378 459.568 473.003 460.061C473.6 460.595 474.187 461.147 474.743 461.731C475.886 462.916 476.822 464.285 477.512 465.78C477.863 466.555 478.095 467.38 478.199 468.225C478.326 469.128 478.233 470.049 477.927 470.908C477.909 470.958 477.883 471.004 477.85 471.045L477.84 471.057C477.149 471.866 476.181 472.388 475.125 472.52C474.196 472.654 473.253 472.665 472.321 472.552C470.537 472.33 468.777 471.945 467.062 471.404C463.659 470.364 460.363 469.083 457.077 467.778C453.792 466.469 450.498 465.168 447.265 463.723C444.015 462.31 440.842 460.726 437.759 458.979L437.749 458.973C437.575 458.875 437.446 458.713 437.387 458.522C436.436 455.388 435.525 452.242 434.655 449.084C434.215 447.506 433.793 445.923 433.387 444.334C432.994 442.742 432.572 441.159 432.213 439.555C432.208 439.533 432.212 439.51 432.223 439.49C432.235 439.471 432.253 439.456 432.275 439.449C432.296 439.442 432.32 439.444 432.34 439.454C432.361 439.463 432.377 439.481 432.386 439.502L432.386 439.502Z" fill="#020202"/>
<path d="M436.126 456.859C435.301 457.914 434.789 459.18 434.65 460.513C434.51 461.845 434.748 463.19 435.337 464.394L434.611 477.864H446.095L445.622 467.155C445.622 467.155 481.125 490.857 498.737 484.412C516.348 477.967 470.464 459.256 470.464 459.256C470.464 459.256 478.321 463.909 477.259 470.621C477.259 470.621 474.871 475.149 460.747 468.915C460.747 468.915 464.123 457.592 466.662 456.859C466.662 456.859 465.213 454.519 463.62 455.147C463.62 455.147 456.086 464.14 457.197 467.507C457.197 467.507 440.861 459.854 436.126 456.859Z" fill="#020202"/>
<path d="M378.744 90.6826C386.915 91.4655 377.973 60.6903 353.26 76.3683C342.187 83.3934 350.752 96.3053 350.752 96.3053C350.752 96.3053 349.322 87.8638 354.995 91.1163C354.995 91.1163 364.233 91.3525 371.045 79.6215C371.045 79.6215 370.216 89.8654 378.744 90.6826Z" fill="#020202"/>
<path d="M349.841 79.6215C349.841 79.6215 340.404 74.1452 349.841 66.6627C359.279 59.1802 360.711 73.3104 360.711 73.3104" fill="#020202"/>
<path d="M373.105 98.2192C373.457 98.2846 373.783 98.4508 374.043 98.6976C374.338 98.955 374.538 99.3023 374.615 99.6856C374.655 99.9061 374.634 100.133 374.554 100.343C374.474 100.552 374.338 100.736 374.161 100.874C374.013 100.989 373.843 101.072 373.661 101.119C373.48 101.166 373.29 101.176 373.105 101.147C373.302 100.912 373.481 100.662 373.64 100.399C373.736 100.228 373.767 100.028 373.725 99.8372C373.555 99.2846 373.348 98.7441 373.105 98.2192Z" fill="#020202"/>
<path d="M365.623 96.6468C365.974 96.6345 366.307 96.4863 366.551 96.2334C366.795 95.9806 366.931 95.6428 366.931 95.2913C366.931 94.9398 366.795 94.602 366.551 94.3491C366.307 94.0963 365.974 93.9481 365.623 93.9358C365.271 93.9481 364.939 94.0963 364.694 94.3491C364.45 94.602 364.314 94.9398 364.314 95.2913C364.314 95.6428 364.45 95.9806 364.694 96.2334C364.939 96.4863 365.271 96.6345 365.623 96.6468Z" fill="#020202"/>
<path d="M352.772 97.0311C352.96 97.0246 353.138 96.9453 353.269 96.8099C353.4 96.6745 353.473 96.4936 353.473 96.3053C353.473 96.117 353.4 95.9361 353.269 95.8007C353.138 95.6653 352.96 95.586 352.772 95.5795C352.584 95.586 352.406 95.6653 352.275 95.8007C352.144 95.9361 352.071 96.117 352.071 96.3053C352.071 96.4936 352.144 96.6745 352.275 96.8099C352.406 96.9453 352.584 97.0246 352.772 97.0311Z" fill="#020202"/>
<path d="M370.568 91.5435C370.92 91.5312 371.253 91.383 371.497 91.1302C371.741 90.8773 371.877 90.5395 371.877 90.188C371.877 89.8365 371.741 89.4987 371.497 89.2459C371.253 88.993 370.92 88.8448 370.568 88.8325C370.217 88.8448 369.884 88.993 369.64 89.2459C369.396 89.4987 369.26 89.8365 369.26 90.188C369.26 90.5395 369.396 90.8773 369.64 91.1302C369.884 91.383 370.217 91.5312 370.568 91.5435Z" fill="#B21919"/>
<path d="M375.87 96.4841C376.222 96.4718 376.554 96.3236 376.799 96.0707C377.043 95.8179 377.179 95.4801 377.179 95.1286C377.179 94.7771 377.043 94.4393 376.799 94.1864C376.554 93.9336 376.222 93.7854 375.87 93.7731C375.519 93.7854 375.186 93.9336 374.942 94.1864C374.698 94.4393 374.561 94.7771 374.561 95.1286C374.561 95.4801 374.698 95.8179 374.942 96.0707C375.186 96.3236 375.519 96.4718 375.87 96.4841Z" fill="#020202"/>
<path d="M361.312 92.9327C361.736 92.4695 362.275 92.1268 362.875 91.9395C363.764 91.6388 364.716 91.5722 365.639 91.7462C366.562 91.9201 367.425 92.3287 368.144 92.9327C367.522 92.873 366.954 92.7622 366.384 92.6942C365.817 92.6191 365.26 92.5751 364.704 92.5552C363.562 92.5266 362.42 92.6536 361.312 92.9327Z" fill="#020202"/>
<path d="M373.105 92.517C373.459 92.1361 373.909 91.8576 374.408 91.7107C374.899 91.553 375.413 91.477 375.929 91.4856C376.959 91.5007 377.953 91.8642 378.749 92.517C378.227 92.5306 377.754 92.4832 377.285 92.456C376.817 92.4265 376.362 92.3998 375.908 92.3885C374.972 92.365 374.035 92.4079 373.105 92.517Z" fill="#020202"/>
<path d="M395.521 159.831C395.431 160.958 395.16 162.064 394.719 163.106C394.293 164.156 393.728 165.145 393.039 166.045C392.331 166.999 391.418 167.782 390.368 168.337C389.812 168.618 389.201 168.775 388.578 168.796C387.97 168.811 387.375 168.622 386.886 168.26C387.901 168.234 388.87 167.834 389.607 167.137C390.346 166.47 391.017 165.733 391.612 164.936C392.88 163.315 394.022 161.543 395.521 159.831Z" fill="#020202"/>
<path d="M359.842 136.337C358.612 135.146 357.632 133.722 356.962 132.147C356.257 130.61 355.647 129.032 355.135 127.421C354.647 125.811 354.19 124.192 353.834 122.552C353.454 120.916 353.161 119.268 352.932 117.595L352.921 117.515C352.905 117.398 352.926 117.279 352.982 117.175C353.986 115.233 355.094 113.348 356.301 111.526C355.731 113.635 355.047 115.713 354.253 117.75L354.303 117.33C354.726 118.926 355.152 120.535 355.55 122.141L356.779 126.948C357.191 128.547 357.615 130.14 358.068 131.724C358.482 133.324 359.077 134.872 359.842 136.337Z" fill="#020202"/>
<path d="M384.462 187.077C384.213 187.096 384.028 186.882 383.907 186.59C383.792 186.267 383.769 185.919 383.837 185.584C383.884 185.351 384.021 185.146 384.218 185.013C384.415 184.88 384.656 184.83 384.89 184.874C385.123 184.918 385.33 185.052 385.465 185.247C385.601 185.443 385.653 185.684 385.612 185.918L385.609 185.935C385.566 186.165 385.458 186.378 385.3 186.55C385.077 186.791 384.798 186.973 384.487 187.08L384.471 187.093C384.466 187.089 384.463 187.083 384.462 187.077ZM384.462 187.077C384.465 187.076 384.468 187.074 384.469 187.071C384.471 187.068 384.472 187.065 384.472 187.062L384.456 187.074C384.204 186.865 384.01 186.594 383.895 186.288C383.812 186.064 383.792 185.822 383.837 185.587L385.609 185.938C385.588 186.045 385.48 186.105 385.278 186.248C384.961 186.476 384.685 186.756 384.462 187.077Z" fill="#020202"/>
<path d="M361.039 161.646C360.946 162.625 360.674 163.579 360.237 164.459C359.809 165.346 359.249 166.163 358.576 166.883C357.882 167.653 357.009 168.242 356.035 168.597C355.545 168.794 355.014 168.87 354.488 168.817C353.962 168.764 353.456 168.585 353.015 168.295C353.885 168.185 354.711 167.849 355.41 167.321C356.083 166.822 356.705 166.259 357.266 165.638L359.057 163.676C359.683 162.966 360.345 162.289 361.039 161.646Z" fill="#020202"/>
<path d="M368.144 103.476C368.734 104.202 369.46 104.806 370.28 105.256C370.668 105.447 371.087 105.567 371.517 105.611C371.97 105.68 372.448 105.654 372.993 105.683C372.584 106.046 372.079 106.283 371.539 106.365C370.969 106.464 370.383 106.381 369.863 106.128C369.35 105.878 368.918 105.49 368.614 105.008C368.313 104.553 368.149 104.021 368.144 103.476Z" fill="#020202"/>
<path d="M320.183 258.017C320.56 258.004 320.916 257.845 321.178 257.575C321.439 257.304 321.586 256.942 321.586 256.565C321.586 256.189 321.439 255.827 321.178 255.556C320.916 255.285 320.56 255.127 320.183 255.114C319.807 255.127 319.45 255.285 319.189 255.556C318.927 255.827 318.781 256.189 318.781 256.565C318.781 256.942 318.927 257.304 319.189 257.575C319.45 257.845 319.807 258.004 320.183 258.017Z" fill="#020202"/>
<path d="M329.009 257.785C329.386 257.772 329.742 257.613 330.004 257.342C330.266 257.072 330.412 256.71 330.412 256.333C330.412 255.957 330.266 255.595 330.004 255.324C329.742 255.053 329.386 254.895 329.009 254.882C328.633 254.895 328.277 255.053 328.015 255.324C327.753 255.595 327.607 255.957 327.607 256.333C327.607 256.71 327.753 257.072 328.015 257.342C328.277 257.613 328.633 257.772 329.009 257.785Z" fill="#020202"/>
<path d="M338.532 255.462C338.909 255.449 339.265 255.29 339.527 255.02C339.788 254.749 339.935 254.387 339.935 254.01C339.935 253.634 339.788 253.272 339.527 253.001C339.265 252.731 338.909 252.572 338.532 252.559C338.156 252.572 337.799 252.731 337.538 253.001C337.276 253.272 337.13 253.634 337.13 254.01C337.13 254.387 337.276 254.749 337.538 255.02C337.799 255.29 338.156 255.449 338.532 255.462Z" fill="#020202"/>
<path d="M346.894 251.049C347.27 251.036 347.627 250.878 347.888 250.607C348.15 250.336 348.296 249.974 348.296 249.598C348.296 249.221 348.15 248.859 347.888 248.588C347.627 248.317 347.27 248.159 346.894 248.146C346.517 248.159 346.161 248.317 345.899 248.588C345.638 248.859 345.491 249.221 345.491 249.598C345.491 249.974 345.638 250.336 345.899 250.607C346.161 250.878 346.517 251.036 346.894 251.049Z" fill="#020202"/>
<path d="M354.791 244.313C355.167 244.3 355.524 244.142 355.785 243.871C356.047 243.6 356.193 243.238 356.193 242.862C356.193 242.485 356.047 242.123 355.785 241.853C355.524 241.582 355.167 241.423 354.791 241.41C354.415 241.423 354.058 241.582 353.796 241.853C353.535 242.123 353.389 242.485 353.389 242.862C353.389 243.238 353.535 243.6 353.796 243.871C354.058 244.142 354.415 244.3 354.791 244.313Z" fill="#020202"/>
<path d="M361.527 236.184C361.903 236.171 362.259 236.013 362.521 235.742C362.783 235.471 362.929 235.109 362.929 234.733C362.929 234.356 362.783 233.994 362.521 233.723C362.259 233.453 361.903 233.294 361.527 233.281C361.15 233.294 360.794 233.453 360.532 233.723C360.27 233.994 360.124 234.356 360.124 234.733C360.124 235.109 360.27 235.471 360.532 235.742C360.794 236.013 361.15 236.171 361.527 236.184Z" fill="#020202"/>
<path d="M366.404 227.358C366.78 227.345 367.137 227.187 367.399 226.916C367.66 226.645 367.807 226.283 367.807 225.906C367.807 225.53 367.66 225.168 367.399 224.897C367.137 224.626 366.78 224.468 366.404 224.455C366.028 224.468 365.671 224.626 365.41 224.897C365.148 225.168 365.002 225.53 365.002 225.906C365.002 226.283 365.148 226.645 365.41 226.916C365.671 227.187 366.028 227.345 366.404 227.358Z" fill="#020202"/>
<path d="M371.049 218.3C371.426 218.287 371.782 218.128 372.044 217.857C372.306 217.586 372.452 217.225 372.452 216.848C372.452 216.472 372.306 216.11 372.044 215.839C371.782 215.568 371.426 215.41 371.049 215.396C370.673 215.41 370.317 215.568 370.055 215.839C369.793 216.11 369.647 216.472 369.647 216.848C369.647 217.225 369.793 217.586 370.055 217.857C370.317 218.128 370.673 218.287 371.049 218.3Z" fill="#020202"/>
<path d="M374.766 208.312C375.142 208.299 375.499 208.141 375.76 207.87C376.022 207.599 376.168 207.237 376.168 206.861C376.168 206.484 376.022 206.122 375.76 205.852C375.499 205.581 375.142 205.422 374.766 205.409C374.389 205.422 374.033 205.581 373.771 205.852C373.51 206.122 373.363 206.484 373.363 206.861C373.363 207.237 373.51 207.599 373.771 207.87C374.033 208.141 374.389 208.299 374.766 208.312Z" fill="#020202"/>
<path d="M377.553 198.79C377.929 198.777 378.286 198.618 378.547 198.347C378.809 198.076 378.955 197.714 378.955 197.338C378.955 196.961 378.809 196.599 378.547 196.329C378.286 196.058 377.929 195.899 377.553 195.886C377.176 195.899 376.82 196.058 376.558 196.329C376.297 196.599 376.15 196.961 376.15 197.338C376.15 197.714 376.297 198.076 376.558 198.347C376.82 198.618 377.176 198.777 377.553 198.79Z" fill="#020202"/>
<path d="M379.876 188.802C380.252 188.789 380.608 188.63 380.87 188.36C381.132 188.089 381.278 187.727 381.278 187.35C381.278 186.974 381.132 186.612 380.87 186.341C380.608 186.07 380.252 185.912 379.876 185.899C379.499 185.912 379.143 186.07 378.881 186.341C378.619 186.612 378.473 186.974 378.473 187.35C378.473 187.727 378.619 188.089 378.881 188.36C379.143 188.63 379.499 188.789 379.876 188.802Z" fill="#020202"/>
<path d="M381.966 177.886C382.342 177.873 382.699 177.714 382.96 177.443C383.222 177.172 383.368 176.81 383.368 176.434C383.368 176.057 383.222 175.696 382.96 175.425C382.699 175.154 382.342 174.995 381.966 174.982C381.59 174.995 381.233 175.154 380.971 175.425C380.71 175.696 380.564 176.057 380.564 176.434C380.564 176.81 380.71 177.172 380.971 177.443C381.233 177.714 381.59 177.873 381.966 177.886Z" fill="#020202"/>
<path d="M384.056 166.969C384.433 166.956 384.789 166.798 385.051 166.527C385.312 166.256 385.459 165.894 385.459 165.518C385.459 165.141 385.312 164.779 385.051 164.508C384.789 164.238 384.433 164.079 384.056 164.066C383.68 164.079 383.323 164.238 383.062 164.508C382.8 164.779 382.654 165.141 382.654 165.518C382.654 165.894 382.8 166.256 383.062 166.527C383.323 166.798 383.68 166.956 384.056 166.969Z" fill="#020202"/>
<path d="M385.45 156.749C385.826 156.737 386.183 156.578 386.444 156.307C386.706 156.036 386.852 155.674 386.852 155.298C386.852 154.921 386.706 154.559 386.444 154.289C386.183 154.018 385.826 153.859 385.45 153.846C385.074 153.859 384.717 154.018 384.455 154.289C384.194 154.559 384.047 154.921 384.047 155.298C384.047 155.674 384.194 156.036 384.455 156.307C384.717 156.578 385.074 156.737 385.45 156.749Z" fill="#020202"/>
<path d="M386.379 146.762C386.755 146.749 387.112 146.59 387.373 146.32C387.635 146.049 387.781 145.687 387.781 145.31C387.781 144.934 387.635 144.572 387.373 144.301C387.112 144.03 386.755 143.872 386.379 143.859C386.003 143.872 385.646 144.03 385.384 144.301C385.123 144.572 384.977 144.934 384.977 145.31C384.977 145.687 385.123 146.049 385.384 146.32C385.646 146.59 386.003 146.749 386.379 146.762Z" fill="#020202"/>
<path d="M387.076 136.31C387.452 136.297 387.809 136.139 388.07 135.868C388.332 135.597 388.478 135.235 388.478 134.859C388.478 134.482 388.332 134.12 388.07 133.849C387.809 133.579 387.452 133.42 387.076 133.407C386.699 133.42 386.343 133.579 386.081 133.849C385.82 134.12 385.673 134.482 385.673 134.859C385.673 135.235 385.82 135.597 386.081 135.868C386.343 136.139 386.699 136.297 387.076 136.31Z" fill="#020202"/>
<path d="M387.54 125.626C387.916 125.613 388.273 125.454 388.535 125.183C388.796 124.913 388.942 124.551 388.942 124.174C388.942 123.798 388.796 123.436 388.535 123.165C388.273 122.894 387.916 122.736 387.54 122.723C387.164 122.736 386.807 122.894 386.546 123.165C386.284 123.436 386.138 123.798 386.138 124.174C386.138 124.551 386.284 124.913 386.546 125.183C386.807 125.454 387.164 125.613 387.54 125.626Z" fill="#020202"/>
<path d="M306.131 166.33C306.508 166.317 306.864 166.159 307.126 165.888C307.387 165.617 307.534 165.255 307.534 164.879C307.534 164.502 307.387 164.14 307.126 163.87C306.864 163.599 306.508 163.44 306.131 163.427C305.755 163.44 305.398 163.599 305.137 163.87C304.875 164.14 304.729 164.502 304.729 164.879C304.729 165.255 304.875 165.617 305.137 165.888C305.398 166.159 305.755 166.317 306.131 166.33Z" fill="#020202"/>
<path d="M311.938 168.072C312.314 168.06 312.671 167.901 312.932 167.63C313.194 167.359 313.34 166.997 313.34 166.621C313.34 166.244 313.194 165.882 312.932 165.612C312.671 165.341 312.314 165.182 311.938 165.169C311.562 165.182 311.205 165.341 310.943 165.612C310.682 165.882 310.536 166.244 310.536 166.621C310.536 166.997 310.682 167.359 310.943 167.63C311.205 167.901 311.562 168.06 311.938 168.072Z" fill="#020202"/>
<path d="M317.861 169.698C318.237 169.685 318.594 169.527 318.855 169.256C319.117 168.985 319.263 168.623 319.263 168.247C319.263 167.87 319.117 167.508 318.855 167.237C318.594 166.967 318.237 166.808 317.861 166.795C317.484 166.808 317.128 166.967 316.866 167.237C316.605 167.508 316.458 167.87 316.458 168.247C316.458 168.623 316.605 168.985 316.866 169.256C317.128 169.527 317.484 169.685 317.861 169.698Z" fill="#020202"/>
<path d="M323.319 170.918C323.695 170.905 324.052 170.746 324.313 170.475C324.575 170.204 324.721 169.843 324.721 169.466C324.721 169.09 324.575 168.728 324.313 168.457C324.052 168.186 323.695 168.027 323.319 168.014C322.943 168.027 322.586 168.186 322.324 168.457C322.063 168.728 321.917 169.09 321.917 169.466C321.917 169.843 322.063 170.204 322.324 170.475C322.586 170.746 322.943 170.905 323.319 170.918Z" fill="#020202"/>
<path d="M309.731 158.724C313.067 159.347 316.367 160.15 319.617 161.127C322.879 162.063 326.088 163.175 329.229 164.459C325.893 163.837 322.593 163.035 319.344 162.055C316.082 161.118 312.874 160.006 309.731 158.724Z" fill="#020202"/>
<path d="M402.231 167.492C402.607 167.479 402.964 167.32 403.225 167.049C403.487 166.779 403.633 166.417 403.633 166.04C403.633 165.664 403.487 165.302 403.225 165.031C402.964 164.76 402.607 164.602 402.231 164.589C401.855 164.602 401.498 164.76 401.237 165.031C400.975 165.302 400.829 165.664 400.829 166.04C400.829 166.417 400.975 166.779 401.237 167.049C401.498 167.32 401.855 167.479 402.231 167.492Z" fill="#020202"/>
<path d="M397.353 167.666C397.73 167.653 398.086 167.494 398.348 167.224C398.61 166.953 398.756 166.591 398.756 166.214C398.756 165.838 398.61 165.476 398.348 165.205C398.086 164.934 397.73 164.776 397.353 164.763C396.977 164.776 396.621 164.934 396.359 165.205C396.097 165.476 395.951 165.838 395.951 166.214C395.951 166.591 396.097 166.953 396.359 167.224C396.621 167.494 396.977 167.653 397.353 167.666Z" fill="#020202"/>
<path d="M397.353 161.646C398.658 161.306 400.003 161.143 401.352 161.163C402.7 161.141 404.045 161.304 405.35 161.646C404.045 161.989 402.7 162.152 401.352 162.13C400.003 162.15 398.658 161.987 397.353 161.646Z" fill="#020202"/>
<path d="M427.286 247.307L439.605 269.925C443.699 277.468 447.85 284.98 452.056 292.459C456.287 299.922 460.469 307.412 464.888 314.754C467.091 318.428 469.341 322.073 471.695 325.635C472.874 327.414 474.082 329.172 475.347 330.87C475.986 331.711 476.63 332.551 477.311 333.334C477.936 334.102 478.643 334.8 479.421 335.413L479.431 335.421C479.612 335.552 479.741 335.743 479.796 335.959C479.851 336.176 479.829 336.404 479.733 336.606C479.638 336.808 479.475 336.97 479.272 337.065C479.07 337.159 478.841 337.18 478.625 337.123C476.496 336.567 474.307 336.273 472.107 336.246C469.955 336.163 467.814 336.58 465.851 337.464C464.928 337.915 464.11 338.556 463.452 339.345C462.808 340.154 462.328 341.08 462.039 342.073C461.881 342.58 461.763 343.099 461.685 343.625C461.626 344.16 461.562 344.683 461.521 345.295C461.406 346.465 461.204 347.626 460.918 348.766C459.702 353.248 457.697 357.477 454.995 361.255C453.686 363.143 452.256 364.945 450.712 366.647C449.945 367.5 449.133 368.313 448.281 369.081C447.853 369.464 447.406 369.825 446.941 370.162C446.708 370.332 446.464 370.484 446.209 370.617C446.081 370.684 445.945 370.736 445.804 370.771C445.67 370.812 445.478 370.773 445.447 370.617C445.461 370.649 445.481 370.678 445.507 370.702C445.532 370.725 445.562 370.743 445.595 370.755C445.628 370.767 445.663 370.771 445.698 370.769C445.732 370.767 445.766 370.757 445.797 370.741C445.931 370.697 446.059 370.637 446.179 370.563C446.42 370.414 446.649 370.247 446.866 370.064C447.3 369.698 447.716 369.31 448.11 368.901C448.901 368.085 449.655 367.237 450.374 366.355C451.806 364.593 453.122 362.74 454.312 360.807C456.762 357.021 458.558 352.85 459.625 348.468C459.859 347.386 460.013 346.287 460.085 345.182C460.105 344.654 460.147 344.041 460.189 343.439C460.252 342.832 460.361 342.231 460.517 341.641C460.818 340.422 461.378 339.282 462.157 338.297C462.951 337.315 463.943 336.512 465.069 335.939C467.265 334.896 469.674 334.381 472.104 334.433C474.475 334.426 476.836 334.711 479.137 335.281L478.341 336.991C476.604 335.554 475.079 333.877 473.811 332.012C472.524 330.259 471.313 328.469 470.134 326.662C467.78 323.046 465.546 319.367 463.36 315.664C459.007 308.246 454.794 300.756 450.723 293.192C446.662 285.622 442.669 278.018 438.745 270.38C434.878 262.712 430.993 255.054 427.286 247.307Z" fill="#020202"/>
<path d="M446.478 366.601C446.854 366.588 447.211 366.429 447.472 366.159C447.734 365.888 447.88 365.526 447.88 365.149C447.88 364.773 447.734 364.411 447.472 364.14C447.211 363.869 446.854 363.711 446.478 363.698C446.101 363.711 445.745 363.869 445.483 364.14C445.221 364.411 445.075 364.773 445.075 365.149C445.075 365.526 445.221 365.888 445.483 366.159C445.745 366.429 446.101 366.588 446.478 366.601Z" fill="#020202"/>
<path d="M450.484 361.375C450.86 361.362 451.217 361.203 451.479 360.933C451.74 360.662 451.887 360.3 451.887 359.923C451.887 359.547 451.74 359.185 451.479 358.914C451.217 358.643 450.86 358.485 450.484 358.472C450.108 358.485 449.751 358.643 449.49 358.914C449.228 359.185 449.082 359.547 449.082 359.923C449.082 360.3 449.228 360.662 449.49 360.933C449.751 361.203 450.108 361.362 450.484 361.375Z" fill="#020202"/>
<path d="M454.316 355.627C454.693 355.614 455.049 355.455 455.311 355.184C455.573 354.913 455.719 354.551 455.719 354.175C455.719 353.798 455.573 353.437 455.311 353.166C455.049 352.895 454.693 352.736 454.316 352.723C453.94 352.736 453.584 352.895 453.322 353.166C453.06 353.437 452.914 353.798 452.914 354.175C452.914 354.551 453.06 354.913 453.322 355.184C453.584 355.455 453.94 355.614 454.316 355.627Z" fill="#020202"/>
<path d="M456.755 347.439C457.132 347.426 457.488 347.268 457.75 346.997C458.011 346.726 458.158 346.364 458.158 345.988C458.158 345.611 458.011 345.249 457.75 344.978C457.488 344.708 457.132 344.549 456.755 344.536C456.379 344.549 456.022 344.708 455.761 344.978C455.499 345.249 455.353 345.611 455.353 345.988C455.353 346.364 455.499 346.726 455.761 346.997C456.022 347.268 456.379 347.426 456.755 347.439Z" fill="#020202"/>
<path d="M459.02 338.729C459.396 338.716 459.753 338.558 460.014 338.287C460.276 338.016 460.422 337.654 460.422 337.278C460.422 336.901 460.276 336.539 460.014 336.268C459.753 335.998 459.396 335.839 459.02 335.826C458.644 335.839 458.287 335.998 458.025 336.268C457.764 336.539 457.618 336.901 457.618 337.278C457.618 337.654 457.764 338.016 458.025 338.287C458.287 338.558 458.644 338.716 459.02 338.729Z" fill="#020202"/>
<path d="M464.42 334.026C464.796 334.013 465.153 333.854 465.414 333.583C465.676 333.313 465.822 332.951 465.822 332.574C465.822 332.198 465.676 331.836 465.414 331.565C465.153 331.294 464.796 331.136 464.42 331.123C464.044 331.136 463.687 331.294 463.426 331.565C463.164 331.836 463.018 332.198 463.018 332.574C463.018 332.951 463.164 333.313 463.426 333.583C463.687 333.854 464.044 334.013 464.42 334.026Z" fill="#020202"/>
<path d="M469.732 333.007C470.109 332.994 470.465 332.836 470.727 332.565C470.988 332.294 471.135 331.932 471.135 331.556C471.135 331.179 470.988 330.817 470.727 330.546C470.465 330.276 470.109 330.117 469.732 330.104C469.356 330.117 468.999 330.276 468.738 330.546C468.476 330.817 468.33 331.179 468.33 331.556C468.33 331.932 468.476 332.294 468.738 332.565C468.999 332.836 469.356 332.994 469.732 333.007Z" fill="#020202"/>
<path d="M375.272 124.414C375.294 124.217 375.32 124.02 375.341 123.823C375.475 122.241 375.573 120.654 375.6 119.06H374.653L374.138 118.863C373.897 120.455 373.711 122.052 373.543 123.652C373.48 124.37 373.426 125.089 373.374 125.808L375.272 124.414Z" fill="#020202"/>
</svg>
