<svg width="700" height="550" viewBox="0 0 700 550" fill="none" xmlns="http://www.w3.org/2000/svg">
<path d="M369.361 183.378L357.721 190.088L357.701 190.058L355.761 186.688C355.477 184.586 355.015 182.512 354.381 180.488C355.311 176.168 355.081 173.508 354.661 171.958C354.497 171.303 354.145 170.711 353.647 170.256C353.149 169.8 352.528 169.502 351.861 169.398C351.352 169.334 350.836 169.419 350.374 169.643C349.913 169.866 349.526 170.219 349.261 170.658C348.341 168.028 349.701 164.488 353.331 164.488C357.471 164.488 358.631 169.048 356.871 171.678C358.296 171.296 359.807 171.395 361.17 171.959C362.533 172.523 363.672 173.521 364.411 174.798L369.271 183.218L369.361 183.378Z" fill="black"/>
<path d="M342.221 212.478C344.611 220.338 362.191 262.318 363.931 266.458L363.281 279.908C328.411 282.448 281.081 251.508 278.741 249.968C281.531 249.595 284.277 248.949 286.941 248.038C289.636 247.121 292.255 245.991 294.771 244.658C296.051 244.028 297.241 243.228 298.461 242.498C299.621 241.668 300.821 240.888 301.921 239.968C304.112 238.269 306.138 236.368 307.971 234.288C309.441 234.518 310.891 234.728 312.351 234.908L316.991 235.558C320.081 235.998 323.151 236.558 326.261 236.958C329.37 237.331 332.5 237.505 335.631 237.478C338.766 237.453 341.895 237.192 344.991 236.698C345.006 236.693 345.02 236.684 345.031 236.672C345.042 236.659 345.049 236.644 345.051 236.628C345.05 236.61 345.042 236.592 345.029 236.58C345.016 236.567 344.999 236.559 344.981 236.558C341.851 236.548 338.751 236.508 335.651 236.378L326.351 235.868C323.251 235.718 320.131 235.568 317.051 235.138C313.971 234.698 310.901 234.098 307.891 233.358C307.807 233.338 307.718 233.348 307.641 233.388C307.374 233.253 307.138 233.065 306.945 232.837C306.753 232.608 306.609 232.343 306.521 232.058C306.252 231.332 306.074 230.577 305.991 229.808C305.814 228.244 305.777 226.668 305.881 225.098C305.656 226.667 305.576 228.254 305.641 229.838C305.674 230.646 305.801 231.449 306.021 232.228C306.145 232.64 306.338 233.029 306.591 233.378C306.728 233.559 306.889 233.721 307.071 233.858C305.193 235.666 303.199 237.349 301.101 238.898C298.857 240.538 296.509 242.031 294.071 243.368C289.192 246.108 284.015 248.279 278.641 249.838C278.624 249.843 278.608 249.853 278.598 249.868C278.587 249.882 278.581 249.9 278.581 249.918C278.582 249.925 278.586 249.932 278.591 249.938C277.241 250.408 253.181 259.158 250.911 272.638C249.251 282.478 247.931 293.998 248.381 302.188L248.291 302.548C225.571 279.968 226.851 262.438 226.851 262.438C226.851 262.438 266.791 210.308 287.341 198.028C287.341 198.028 293.601 190.508 313.401 192.268C317.521 192.628 322.421 193.328 327.601 194.208C327.624 194.534 327.628 194.861 327.611 195.188C327.555 197.453 328.068 199.695 329.104 201.71C330.14 203.724 331.666 205.446 333.541 206.718C335.031 207.728 342.221 212.478 342.221 212.478Z" fill="black"/>
<path d="M371.131 203.548C367.011 209.368 366.231 219.168 366.231 219.168L366.181 220.258C361.955 213.94 358.526 207.125 355.971 199.968C364.811 201.958 371.131 203.548 371.131 203.548Z" fill="black"/>
<path d="M357.701 190.058L356.081 191.018C356.107 192.999 355.845 194.973 355.301 196.878L393.231 175.348L375.681 137.538L330.701 160.938L329.571 163.438L338.941 180.608C339.913 181.081 340.957 181.389 342.031 181.518C340.011 178.568 338.241 175.478 336.521 172.358C334.744 169.136 333.136 165.825 331.701 162.438C333.76 165.485 335.663 168.636 337.401 171.878C339.091 175.028 340.721 178.218 342.111 181.528C343.086 181.674 344.082 181.491 344.941 181.008L344.931 180.998L336.841 163.438L373.931 143.018L387.661 172.338L369.271 183.218L357.701 190.058Z" fill="black"/>
<path d="M168.038 304.214C168.038 304.214 169.709 323.93 209.643 295.859C209.643 295.859 219.668 289.51 227.855 290.011C227.855 290.011 231.03 298.366 231.03 305.383L215.157 310.942C215.157 310.942 216.828 300.037 206.802 305.216C206.802 305.216 182.909 330.446 151.998 318.75C151.998 318.75 143.811 314.907 168.038 304.214Z" fill="black"/>
<path d="M168.038 304.214C172.732 300.769 177.494 297.431 182.325 294.201C187.14 290.948 192.019 287.793 196.909 284.657C201.82 281.553 206.744 278.47 211.73 275.485C216.702 272.476 221.743 269.577 226.853 266.786C222.16 270.233 217.399 273.572 212.568 276.802C207.752 280.055 202.874 283.21 197.982 286.343C193.07 289.445 188.146 292.528 183.159 295.513C178.188 298.521 173.147 301.421 168.038 304.214Z" fill="black"/>
<path d="M227.855 290.011C229.027 287.874 230.315 285.803 231.712 283.806C233.077 281.798 234.534 279.862 236.009 277.94C237.513 276.041 239.037 274.158 240.651 272.349C242.245 270.512 243.939 268.764 245.726 267.115C244.554 269.255 243.265 271.33 241.865 273.329C240.501 275.336 239.046 277.269 237.572 279.186C236.069 281.08 234.547 282.96 232.934 284.768C231.337 286.607 229.642 288.357 227.855 290.011Z" fill="black"/>
<path d="M257.764 266.786C257.496 266.916 257.272 267.121 257.12 267.377C256.969 267.633 256.896 267.928 256.912 268.226C256.978 268.812 257.215 269.366 257.595 269.818C258.327 270.761 259.191 271.596 260.16 272.295C262.098 273.721 264.14 275.001 266.269 276.122C270.49 278.449 274.894 280.448 279.306 282.411C288.15 286.302 297.202 289.727 306.191 293.38L319.637 298.901C324.109 300.759 328.591 302.586 333.094 304.325C335.346 305.195 337.616 306.006 339.903 306.739C342.169 307.502 344.497 308.063 346.861 308.417C348.03 308.579 349.212 308.616 350.389 308.528C351.559 308.423 352.699 308.096 353.747 307.565C355.824 306.35 357.553 304.62 358.768 302.543C358.193 303.617 357.529 304.641 356.784 305.604C356.002 306.565 355.062 307.385 354.004 308.029C352.92 308.664 351.727 309.087 350.486 309.277C349.252 309.448 348.004 309.486 346.762 309.392C344.315 309.145 341.895 308.678 339.532 307.997C337.172 307.356 334.858 306.588 332.56 305.792C323.378 302.569 314.432 298.839 305.439 295.232L291.981 289.732C287.506 287.847 283.041 285.931 278.659 283.824C274.247 281.766 269.947 279.476 265.778 276.963C263.69 275.694 261.7 274.27 259.825 272.702C258.871 271.921 258.036 271.005 257.345 269.984C256.982 269.468 256.779 268.857 256.761 268.227C256.769 267.915 256.867 267.612 257.046 267.355C257.224 267.099 257.474 266.901 257.764 266.786Z" fill="black"/>
<path d="M363.28 318.834C363.798 322.037 364.119 325.246 364.37 328.458C364.634 331.669 364.781 334.884 364.905 338.1C364.992 341.317 365.054 344.535 365 347.756C364.958 350.978 364.845 354.201 364.533 357.431C364.012 354.228 363.69 351.019 363.44 347.807C363.176 344.596 363.029 341.381 362.907 338.165C362.823 334.948 362.761 331.73 362.816 328.508C362.859 325.287 362.971 322.064 363.28 318.834Z" fill="black"/>
<path d="M391.35 232.366C392.393 229.991 393.783 227.783 395.475 225.815C397.137 223.811 398.978 221.964 400.977 220.296C405.036 217.011 409.544 214.323 414.365 212.314C424.043 208.4 434.333 206.214 444.767 205.856C449.864 205.66 454.934 205.023 459.921 203.953C464.882 202.877 469.661 201.085 474.107 198.634C478.553 196.171 482.426 192.792 485.469 188.721C487.003 186.681 488.281 184.461 489.275 182.11C490.3 179.753 490.999 177.267 491.352 174.721C491.213 177.314 490.679 179.871 489.768 182.303C488.892 184.764 487.718 187.108 486.272 189.283C483.318 193.646 479.433 197.299 474.897 199.98C472.655 201.347 470.293 202.505 467.839 203.44C465.397 204.388 462.896 205.175 460.352 205.797C455.261 206.94 450.08 207.628 444.868 207.852C434.644 208.192 424.543 210.184 414.956 213.751C410.193 215.583 405.695 218.041 401.581 221.061C399.527 222.583 397.616 224.29 395.872 226.161C394.098 228.021 392.577 230.107 391.35 232.366Z" fill="black"/>
<path d="M377.639 195.164C378.105 192.994 378.879 190.902 379.939 188.952C380.976 186.986 382.188 185.118 383.56 183.369C386.335 179.895 389.592 176.834 393.232 174.28C394.151 173.661 395.059 173.026 396 172.447L398.899 170.842L400.347 170.045L401.846 169.35C402.842 168.881 403.847 168.435 404.831 167.949C406.841 167.069 408.881 166.266 410.881 165.366C412.942 164.621 414.991 163.84 417.029 163.022C417.087 162.998 417.15 162.992 417.212 163.002L417.264 163.011C420.141 163.489 423.057 163.699 425.974 163.638C428.856 163.635 431.728 163.291 434.529 162.611C437.257 161.97 439.796 160.696 441.943 158.894C442.959 157.985 443.835 156.93 444.544 155.765C445.238 154.574 445.772 153.297 446.134 151.966L446.159 151.88C446.216 151.686 446.334 151.516 446.494 151.394C446.655 151.272 446.851 151.204 447.052 151.201C449.071 151.208 451.082 151.441 453.048 151.898C454.974 152.333 456.865 152.912 458.705 153.63C460.523 154.366 462.294 155.213 464.007 156.167C465.698 157.135 467.327 158.208 468.885 159.38C468.895 159.388 468.904 159.398 468.911 159.409C468.918 159.421 468.922 159.433 468.924 159.446C468.926 159.459 468.925 159.473 468.922 159.485C468.918 159.498 468.913 159.51 468.905 159.521C468.89 159.539 468.868 159.553 468.845 159.557C468.821 159.562 468.796 159.559 468.775 159.548L466.213 158.198C465.336 157.795 464.492 157.337 463.597 156.984C461.854 156.2 460.065 155.524 458.239 154.96C456.424 154.409 454.577 153.972 452.708 153.652C450.884 153.322 449.032 153.178 447.179 153.221L448.097 152.456C447.722 153.989 447.144 155.465 446.379 156.846C445.564 158.214 444.539 159.447 443.343 160.499C440.918 162.48 438.046 163.84 434.977 164.461C432.013 165.1 428.975 165.336 425.947 165.164C422.954 165.002 419.982 164.571 417.067 163.875L417.301 163.864C415.229 164.522 413.164 165.214 411.108 165.941C410.103 166.36 409.107 166.801 408.113 167.244C407.122 167.693 406.113 168.107 405.158 168.629C404.2 169.145 403.263 169.7 402.317 170.233L400.903 171.039L399.547 171.939L396.844 173.736L394.255 175.679C390.79 178.23 387.598 181.131 384.728 184.336C383.309 185.953 382.006 187.669 380.829 189.47C379.616 191.263 378.611 193.188 377.834 195.208L377.831 195.217C377.822 195.241 377.805 195.26 377.783 195.272C377.76 195.283 377.735 195.285 377.71 195.279C377.686 195.272 377.666 195.257 377.652 195.235C377.639 195.214 377.635 195.189 377.639 195.164L377.639 195.164Z" fill="black"/>
<path d="M419.715 163.974C418.488 162.936 417.112 161.807 415.58 162.233C414.804 162.418 414.043 162.665 413.306 162.972L410.992 163.821C409.417 164.426 407.779 164.853 406.109 165.095C405.241 165.204 404.364 165.216 403.493 165.133C402.608 165.022 401.743 164.789 400.921 164.441C399.305 163.727 397.873 162.654 396.733 161.304C395.619 160.015 394.651 158.605 393.849 157.101C393.04 155.643 392.329 154.21 391.495 152.822C391.095 152.126 390.682 151.436 390.238 150.798C390.03 150.488 389.802 150.192 389.556 149.913C389.463 149.802 389.36 149.699 389.25 149.607C389.202 149.563 389.197 149.575 389.26 149.58C389.401 149.601 389.545 149.57 389.664 149.493C389.784 149.416 389.872 149.299 389.912 149.162L389.337 149.677C388.395 149.826 387.432 149.613 386.639 149.083C386.224 148.813 385.887 148.439 385.659 147.999C385.427 147.547 385.344 147.032 385.421 146.53C385.749 144.617 387.327 143.663 388.13 142.655C389.029 141.549 389.654 140.247 389.955 138.855C390.277 137.444 390.346 135.986 390.158 134.551L390.271 134.743C389.282 133.852 388.541 132.719 388.123 131.455C387.698 130.225 387.46 128.938 387.417 127.637C387.351 126.351 387.39 125.061 387.533 123.78C387.649 122.494 387.85 121.217 388.135 119.958C388.152 119.882 388.189 119.811 388.241 119.753C388.294 119.695 388.36 119.651 388.434 119.625C388.508 119.599 388.587 119.593 388.664 119.606C388.742 119.619 388.814 119.652 388.875 119.7L388.902 119.722C391.905 122.144 395.025 124.441 398.164 126.665C399.737 127.773 401.331 128.848 402.962 129.826C403.777 130.314 404.597 130.784 405.427 131.182C406.131 131.573 406.905 131.821 407.705 131.911L406.81 132.83C406.858 131.848 407.028 130.875 407.316 129.935C407.608 128.896 408.179 127.956 408.966 127.216C409.186 127.011 409.437 126.84 409.708 126.708L410.121 126.503L410.563 126.386C410.712 126.351 410.862 126.312 411.01 126.287L411.449 126.276C411.734 126.257 412.02 126.278 412.298 126.341C413.389 126.511 414.401 127.015 415.194 127.783C415.94 128.489 416.541 129.335 416.964 130.271C417.379 131.15 417.695 132.072 417.906 133.021C418.115 133.957 418.234 134.911 418.263 135.87C418.277 136.364 418.26 136.859 418.212 137.351C418.177 137.624 418.127 137.896 418.061 138.164L417.916 138.618C417.808 138.838 417.674 139.044 417.518 139.234L417.277 137.597C419.354 138.713 421.47 139.809 423.593 140.844C424.658 141.35 425.729 141.851 426.81 142.287C427.811 142.734 428.865 143.051 429.947 143.229L430.041 143.238C430.16 143.25 430.274 143.289 430.374 143.354C433.033 145.096 435.713 146.855 438.469 148.456C439.851 149.25 441.235 150.044 442.658 150.754C443.366 151.111 444.091 151.431 444.832 151.713C445.533 152.042 446.308 152.181 447.08 152.117L447.1 152.113C447.125 152.108 447.151 152.112 447.173 152.125C447.195 152.139 447.21 152.16 447.217 152.185C447.223 152.209 447.22 152.235 447.208 152.258C447.196 152.28 447.175 152.297 447.151 152.305C446.333 152.479 445.483 152.422 444.696 152.139C443.915 151.916 443.147 151.654 442.393 151.352C440.888 150.758 439.42 150.084 437.982 149.357C435.107 147.895 432.278 146.368 429.521 144.684L429.947 144.809C428.659 144.686 427.395 144.377 426.195 143.891C425.044 143.477 423.931 143.008 422.821 142.532C420.604 141.57 418.444 140.534 416.302 139.413L416.061 137.777C416.024 137.771 415.999 137.813 416.009 137.821C416.022 137.759 416.038 137.697 416.057 137.635C416.096 137.51 416.108 137.297 416.139 137.133C416.169 136.736 416.174 136.339 416.156 135.942C416.11 135.118 415.997 134.299 415.817 133.494C415.539 131.939 414.819 130.497 413.744 129.34C413.255 128.852 412.629 128.523 411.95 128.399C411.664 128.324 411.364 128.318 411.075 128.38C410.786 128.443 410.516 128.572 410.286 128.758C409.328 129.542 408.846 131.366 408.723 132.901L408.717 132.979C408.698 133.204 408.597 133.414 408.433 133.569C408.269 133.725 408.054 133.814 407.828 133.821C407.214 133.819 406.606 133.703 406.036 133.478C405.548 133.293 405.071 133.081 404.608 132.843C403.719 132.386 402.856 131.883 402.02 131.337C400.368 130.259 398.791 129.106 397.24 127.923C394.144 125.552 391.206 123.013 388.285 120.446L389.052 120.21C388.355 122.611 388.034 125.106 388.099 127.606C388.117 128.845 388.32 130.075 388.702 131.254C389.074 132.413 389.757 133.448 390.675 134.247L390.688 134.258C390.742 134.304 390.778 134.369 390.788 134.439C391.015 135.957 390.99 137.501 390.716 139.011C390.461 140.553 389.858 142.017 388.952 143.291C388.719 143.611 388.466 143.916 388.195 144.204C387.95 144.491 387.718 144.73 387.501 145.003C387.095 145.477 386.827 146.053 386.726 146.668C386.706 146.914 386.762 147.16 386.885 147.373C387.009 147.586 387.194 147.757 387.416 147.864C387.893 148.138 388.451 148.234 388.993 148.136L388.418 148.651C388.504 148.421 388.671 148.231 388.886 148.115C389.102 147.999 389.352 147.964 389.591 148.018C389.79 148.064 389.979 148.148 390.148 148.264C390.368 148.411 390.572 148.584 390.753 148.778C391.06 149.102 391.346 149.447 391.608 149.809C392.123 150.501 392.575 151.206 393.016 151.916C393.878 153.337 394.653 154.829 395.421 156.245C396.913 159.026 398.831 161.713 401.555 162.996C402.944 163.619 404.469 163.877 405.985 163.744C407.574 163.604 409.143 163.287 410.662 162.8C412.236 162.269 413.846 161.848 415.479 161.542C416.368 161.421 417.27 161.635 418.009 162.142C418.686 162.633 419.305 163.2 419.854 163.831C419.872 163.85 419.882 163.876 419.881 163.903C419.881 163.929 419.869 163.954 419.85 163.972C419.832 163.989 419.808 163.998 419.783 163.999C419.758 163.999 419.734 163.99 419.715 163.974Z" fill="black"/>
<path d="M413.656 141.262C414.132 140.751 414.637 140.268 415.17 139.816L415.92 139.178C416.197 138.938 416.487 138.713 416.789 138.505C416.796 138.9 416.712 139.291 416.545 139.649C416.378 140.007 416.131 140.322 415.824 140.571C415.53 140.825 415.19 141.022 414.824 141.152C414.452 141.294 414.048 141.333 413.656 141.262Z" fill="black"/>
<path d="M436.155 147.755C436.155 147.755 441.978 151.663 447.742 141.262C453.507 130.861 439.471 130.234 439.471 130.234C439.471 130.234 445.236 102.54 423.283 99.156C401.331 95.7725 388.593 120.084 388.593 120.084C388.593 120.084 403.627 132.951 407.767 132.866C407.767 132.866 408.006 124.816 413.924 128.099C413.924 128.099 418.059 130.653 416.789 138.505C416.789 138.505 428.837 144.25 429.947 144.019C431.058 143.788 436.155 147.755 436.155 147.755Z" fill="black"/>
<path d="M393.227 154.065C394.099 153.919 394.962 153.723 395.812 153.476C396.199 153.353 396.571 153.187 396.921 152.981C397.307 152.743 397.679 152.483 398.034 152.2C397.988 152.713 397.774 153.196 397.426 153.576C397.076 153.969 396.628 154.262 396.128 154.424C395.641 154.58 395.127 154.63 394.619 154.572C394.119 154.526 393.639 154.351 393.227 154.065Z" fill="black"/>
<path d="M390.473 134.495C390.864 133.906 391.376 133.407 391.975 133.031C392.573 132.643 393.231 132.358 393.923 132.186C394.62 132.009 395.344 131.968 396.056 132.065C396.762 132.148 397.439 132.394 398.034 132.782C397.323 132.807 396.677 132.771 396.034 132.845C395.402 132.893 394.775 132.998 394.161 133.157C392.893 133.489 391.659 133.937 390.473 134.495Z" fill="black"/>
<path d="M393.773 145.23C394.096 145.347 394.365 145.577 394.53 145.877C394.714 146.191 394.788 146.556 394.741 146.916C394.691 147.293 394.495 147.635 394.194 147.867C394.06 147.977 393.905 148.058 393.739 148.107C393.573 148.157 393.399 148.173 393.227 148.154C393.37 147.823 393.513 147.592 393.595 147.368C393.677 147.179 393.73 146.979 393.752 146.775C393.796 146.261 393.803 145.745 393.773 145.23Z" fill="black"/>
<path d="M415.223 159.433C416.401 157.458 417.428 155.397 418.295 153.267C418.729 152.213 419.109 151.138 419.434 150.046C419.785 148.954 420.027 147.835 420.34 146.692C420.452 147.871 420.403 149.059 420.194 150.225C419.998 151.396 419.672 152.543 419.222 153.642C418.779 154.743 418.221 155.794 417.557 156.778C416.911 157.771 416.125 158.665 415.223 159.433Z" fill="black"/>
<path d="M394.692 139.946C395.098 139.932 395.483 139.761 395.765 139.469C396.047 139.177 396.205 138.786 396.205 138.38C396.205 137.973 396.047 137.583 395.765 137.291C395.483 136.999 395.098 136.827 394.692 136.813C394.286 136.827 393.901 136.999 393.619 137.291C393.336 137.583 393.179 137.973 393.179 138.38C393.179 138.786 393.336 139.177 393.619 139.469C393.901 139.761 394.286 139.932 394.692 139.946Z" fill="black"/>
<path d="M413.656 138.582C413.927 138.573 414.184 138.459 414.372 138.264C414.56 138.069 414.665 137.809 414.665 137.538C414.665 137.267 414.56 137.007 414.372 136.812C414.184 136.617 413.927 136.503 413.656 136.494C413.386 136.503 413.129 136.617 412.941 136.812C412.753 137.007 412.648 137.267 412.648 137.538C412.648 137.809 412.753 138.069 412.941 138.264C413.129 138.459 413.386 138.573 413.656 138.582Z" fill="black"/>
<path d="M278.741 249.968C278.711 249.968 278.691 249.978 278.661 249.978C278.653 249.98 278.646 249.98 278.639 249.979C278.631 249.978 278.624 249.976 278.617 249.972C278.611 249.968 278.605 249.964 278.601 249.958C278.596 249.952 278.593 249.945 278.591 249.938L278.651 249.908L278.741 249.968Z" fill="white"/>
<path d="M366.158 220.403C364.893 218.683 363.703 216.909 362.587 215.079C361.473 213.253 360.395 211.399 359.428 209.487C358.455 207.577 357.546 205.636 356.701 203.661C355.845 201.693 355.107 199.672 354.411 197.615C354.366 197.483 354.365 197.339 354.408 197.207L354.424 197.158C355.207 194.505 355.456 191.724 355.159 188.974C355.041 187.579 354.845 186.192 354.572 184.819C354.306 183.451 353.96 182.1 353.537 180.772C353.488 180.62 353.479 180.457 353.51 180.3C353.869 178.663 354.077 176.996 354.132 175.321C354.152 174.51 354.095 173.699 353.961 172.898C353.906 172.535 353.815 172.178 353.69 171.832C353.563 171.524 353.384 171.24 353.162 170.991C352.952 170.751 352.695 170.558 352.407 170.423C352.118 170.288 351.805 170.215 351.487 170.208C351.177 170.214 350.873 170.297 350.602 170.448C350.331 170.599 350.101 170.814 349.932 171.075C349.055 172.461 348.421 173.988 348.06 175.589L347.355 178.097C347.225 178.529 347.127 178.912 346.949 179.391C346.771 179.859 346.515 180.294 346.192 180.678C345.521 181.435 344.592 181.916 343.586 182.027C342.655 182.128 341.714 182.044 340.816 181.779C339.092 181.268 337.483 180.431 336.076 179.313C335.37 178.761 334.735 178.123 334.186 177.415C333.655 176.737 333.097 176.076 332.533 175.422C330.278 172.798 327.879 170.294 325.434 167.84L323.597 166.015C322.991 165.442 322.304 164.963 321.558 164.592C320.818 164.221 320.019 163.984 319.197 163.89C318.454 163.731 317.679 163.864 317.032 164.262C316.798 164.531 316.637 164.855 316.563 165.203C316.488 165.551 316.503 165.913 316.606 166.254C316.685 166.65 316.786 167.041 316.907 167.426C317.053 167.811 317.223 168.192 317.382 168.574C318.151 170.087 319.072 171.518 320.131 172.844C322.259 175.533 324.579 178.064 327.073 180.418C327.195 180.535 327.278 180.689 327.308 180.856C327.338 181.023 327.314 181.196 327.24 181.349L327.234 181.362C326.666 182.712 326.451 184.184 326.608 185.639C326.664 186.384 326.792 187.121 326.99 187.84C327.175 188.565 327.465 189.246 327.734 190.077C328.285 191.702 328.563 193.407 328.557 195.123C328.51 196.61 328.741 198.093 329.239 199.496C329.726 200.903 330.454 202.216 331.391 203.373C331.863 203.943 332.385 204.471 332.949 204.95C333.531 205.44 334.148 205.886 334.795 206.286L342.811 211.585C343.011 211.717 343.161 211.913 343.236 212.141L343.244 212.167C344.743 216.695 346.552 221.274 348.301 225.807L353.604 239.441L358.918 253.079C360.694 257.622 362.431 262.188 364.162 266.746L364.164 266.752C364.173 266.776 364.173 266.803 364.162 266.826C364.152 266.85 364.133 266.869 364.109 266.879C364.085 266.889 364.059 266.89 364.034 266.88C364.01 266.871 363.991 266.853 363.98 266.829C361.929 262.392 359.921 257.941 357.956 253.478C356.002 249.005 354.011 244.548 352.122 240.047L346.459 226.539C344.637 221.993 342.773 217.523 341.197 212.789L341.631 213.37L333.615 208.031C332.906 207.575 332.231 207.069 331.594 206.517C329.632 204.81 328.173 202.6 327.376 200.125C326.824 198.488 326.582 196.763 326.663 195.037C326.68 193.539 326.453 192.048 325.991 190.623C325.783 189.924 325.45 189.122 325.261 188.284C325.055 187.45 324.93 186.599 324.887 185.742C324.75 183.988 325.067 182.229 325.808 180.633L325.969 181.577C323.471 179.107 321.181 176.435 319.123 173.588C318.072 172.157 317.166 170.625 316.42 169.014C316.258 168.59 316.089 168.171 315.943 167.741C315.818 167.295 315.718 166.842 315.645 166.385C315.573 165.904 315.583 165.414 315.675 164.936C315.77 164.401 316.055 163.919 316.476 163.576C316.892 163.314 317.356 163.137 317.841 163.055C318.326 162.974 318.823 162.99 319.302 163.102C320.202 163.241 321.075 163.523 321.887 163.936C322.692 164.348 323.431 164.878 324.08 165.507L325.912 167.371C328.32 169.874 330.706 172.398 333.017 175L334.717 176.985C335.248 177.637 335.859 178.22 336.534 178.72C337.876 179.736 339.411 180.468 341.044 180.873C342.624 181.262 344.41 181.109 345.305 179.943C345.739 179.289 346.024 178.547 346.138 177.77L346.74 175.241C347.075 173.437 347.729 171.707 348.671 170.132C348.979 169.688 349.371 169.31 349.826 169.019C350.322 168.713 350.893 168.548 351.476 168.543C352.028 168.541 352.574 168.652 353.081 168.871C353.587 169.09 354.043 169.411 354.42 169.815C354.787 170.205 355.085 170.655 355.3 171.145C355.49 171.608 355.626 172.091 355.707 172.585C355.864 173.496 355.934 174.42 355.917 175.344C355.877 177.139 355.654 178.925 355.252 180.675L355.225 180.203C355.66 181.611 356.011 183.042 356.277 184.491C356.549 185.932 356.739 187.388 356.844 188.85C357.096 191.824 356.754 194.817 355.838 197.657L355.851 197.201C356.451 199.204 357.092 201.218 357.862 203.192C358.616 205.171 359.438 207.122 360.331 209.048C361.225 210.97 362.14 212.887 363.147 214.758C364.15 216.631 365.215 218.471 366.324 220.292C366.338 220.314 366.342 220.341 366.337 220.366C366.331 220.391 366.316 220.413 366.294 220.428C366.273 220.442 366.247 220.448 366.221 220.443C366.196 220.438 366.173 220.424 366.158 220.403H366.158Z" fill="black"/>
<path d="M342.221 181.797C342.161 181.708 342.091 181.608 342.031 181.518C342.055 181.53 342.084 181.534 342.111 181.528C342.141 181.618 342.181 181.708 342.221 181.797Z" fill="white"/>
<path d="M276.934 328.348C277.585 329.544 277.997 330.856 278.148 332.209C278.343 333.606 278.241 335.029 277.847 336.383C277.642 337.125 277.279 337.815 276.783 338.405C276.288 338.994 275.671 339.471 274.976 339.801C274.307 340.073 273.589 340.198 272.868 340.17C272.148 340.141 271.442 339.96 270.797 339.636C272.015 339.5 273.186 339.089 274.223 338.434C275.061 337.752 275.662 336.823 275.941 335.78C276.271 334.621 276.49 333.434 276.593 332.235L276.934 328.348Z" fill="black"/>
<path d="M297.113 338.132C297.474 339.05 297.742 340.001 297.913 340.971C298.088 341.908 298.207 342.837 298.292 343.761C298.38 344.684 298.427 345.602 298.479 346.51C298.508 346.963 298.52 347.419 298.581 347.86C298.595 348.322 298.734 348.772 298.985 349.16C298.715 349.106 298.459 348.996 298.234 348.838C298.008 348.679 297.818 348.476 297.676 348.241C297.376 347.811 297.13 347.346 296.945 346.856C296.599 345.919 296.382 344.939 296.301 343.944C296.214 342.97 296.229 341.989 296.347 341.018C296.456 340.023 296.714 339.05 297.113 338.132Z" fill="black"/>
<path d="M255.908 336.218L250.074 353.637C238.057 349.216 235.544 337.13 235.544 337.13C235.544 337.13 238.141 331.401 255.908 336.218Z" fill="black"/>
<path d="M300.207 371.383L288.678 375.226L278.486 371.383L282.161 365.702C282.161 365.702 277.817 358.942 265.112 356.192L269.498 344.259C272.658 346.452 283.491 353.839 286.339 353.839C286.339 353.839 293.022 345.652 300.207 349.996C300.207 349.996 304.217 365.702 300.207 371.383Z" fill="black"/>
<path d="M275.61 327.641C274.302 331.994 272.927 336.322 271.52 340.637C270.118 344.955 268.685 349.262 267.221 353.557C265.748 357.848 264.293 362.147 262.769 366.42C261.266 370.7 259.759 374.98 258.198 379.239C258.096 379.518 257.911 379.759 257.667 379.93C257.424 380.101 257.135 380.194 256.838 380.196L256.827 380.196L249.412 380.229C249.205 380.229 249.001 380.186 248.812 380.103C248.622 380.02 248.452 379.898 248.312 379.746L242.65 373.547L242.645 373.541C242.468 373.348 242.347 373.111 242.293 372.855C242.24 372.599 242.255 372.334 242.339 372.086C243.829 367.673 245.349 363.269 246.896 358.874C248.422 354.473 249.996 350.087 251.58 345.705C253.156 341.321 254.77 336.949 256.423 332.589C258.072 328.229 259.745 323.877 261.498 319.551C260.288 324.059 258.999 328.54 257.685 333.013C256.363 337.482 255.032 341.949 253.648 346.398C252.274 350.851 250.889 355.3 249.452 359.731C248.045 364.172 246.602 368.602 245.124 373.02L244.813 371.559L250.512 377.724L249.412 377.241L256.827 377.274L255.456 378.231C257.024 373.975 258.647 369.738 260.273 365.502C261.879 361.259 263.554 357.042 265.211 352.818C266.884 348.599 268.581 344.39 270.304 340.19C272.029 335.991 273.786 331.804 275.61 327.641Z" fill="black"/>
<path d="M269.665 324.364C268.365 329.039 266.88 333.646 265.33 338.228C263.791 342.815 262.143 347.36 260.474 351.898C258.77 356.423 257.042 360.939 255.205 365.414C253.38 369.894 251.488 374.349 249.41 378.735C250.708 374.058 252.192 369.452 253.742 364.87C255.281 360.283 256.929 355.737 258.601 351.2C260.308 346.676 262.035 342.16 263.873 337.685C265.699 333.206 267.589 328.751 269.665 324.364Z" fill="black"/>
<path d="M370.302 369.926C370.923 376.096 371.4 382.273 371.937 388.448C372.466 394.622 372.914 400.801 373.369 406.98C373.797 413.16 374.253 419.339 374.629 425.522C375.024 431.704 375.427 437.885 375.764 444.071L375.219 443.01L384.013 450L382.575 449.76L392.357 446.273L391.384 447.72C391.126 441.242 390.877 434.763 390.684 428.282C390.46 421.802 390.273 415.321 390.123 408.838C389.951 402.356 389.823 395.872 389.738 389.387C389.683 382.9 389.555 376.416 389.585 369.926C390.16 376.391 390.577 382.862 391.066 389.331C391.519 395.801 391.936 402.273 392.316 408.746C392.703 415.219 393.061 421.693 393.389 428.168C393.741 434.642 394.037 441.119 394.324 447.596C394.338 447.908 394.252 448.217 394.078 448.476C393.905 448.736 393.653 448.934 393.359 449.041L393.351 449.043L383.585 452.574C383.344 452.66 383.086 452.684 382.834 452.642C382.582 452.6 382.345 452.494 382.146 452.334L373.396 445.288L373.392 445.285C373.233 445.156 373.103 444.996 373.01 444.814C372.916 444.632 372.862 444.432 372.851 444.228C372.521 438.042 372.256 431.853 371.983 425.665C371.692 419.477 371.48 413.285 371.241 407.095C371.029 400.903 370.809 394.712 370.671 388.516C370.54 382.32 370.349 376.127 370.302 369.926Z" fill="black"/>
<path d="M381.578 370.532C382.09 377.244 382.474 383.959 382.731 390.676C383.015 397.393 383.183 404.112 383.328 410.831C383.436 417.551 383.518 424.271 383.484 430.994C383.479 437.716 383.344 444.44 383.08 451.167C382.566 444.455 382.181 437.74 381.924 431.023C381.64 424.306 381.472 417.587 381.33 410.868C381.225 404.148 381.142 397.428 381.176 390.705C381.183 383.983 381.317 377.259 381.578 370.532Z" fill="black"/>
<path d="M470.811 322.349C473.197 327.407 475.469 332.513 477.741 337.617C479.987 342.733 482.226 347.851 484.405 352.993C486.617 358.123 488.745 363.285 490.901 368.437L497.248 383.941C497.388 384.289 497.393 384.677 497.26 385.028C497.127 385.379 496.867 385.667 496.531 385.835L488.501 389.824L488.492 389.828C488.318 389.915 488.128 389.965 487.934 389.977C487.74 389.989 487.546 389.962 487.362 389.898L480.855 387.616L480.838 387.61C480.658 387.546 480.492 387.446 480.35 387.317C480.209 387.187 480.096 387.03 480.017 386.855C476.326 378.637 472.693 370.391 469.12 362.118C467.364 357.968 465.575 353.832 463.859 349.664C462.117 345.507 460.421 341.329 458.77 337.13C460.874 341.121 462.937 345.13 464.96 349.158C467.003 353.177 468.974 357.229 470.977 361.265C474.926 369.366 478.813 377.494 482.637 385.652L481.798 384.891L488.324 387.12L487.186 387.194L495.196 383.164L494.478 385.057L488.299 369.486C486.28 364.279 484.233 359.084 482.269 353.854C480.273 348.638 478.336 343.398 476.407 338.155C474.504 332.902 472.6 327.648 470.811 322.349Z" fill="black"/>
<path d="M463.449 332.823C465.861 337.298 468.092 341.852 470.26 346.433C472.439 351.009 474.511 355.633 476.562 360.265C478.578 364.913 480.572 369.57 482.459 374.275C484.358 378.974 486.192 383.702 487.843 388.509C485.429 384.036 483.197 379.483 481.03 374.901C478.851 370.324 476.78 365.701 474.731 361.067C472.716 356.419 470.723 351.761 468.836 347.057C466.938 342.357 465.103 337.63 463.449 332.823Z" fill="black"/>
<path d="M507.359 259.176C507.688 262.455 507.984 265.722 508.246 268.979C508.511 272.24 508.801 275.493 508.987 278.758C509.142 282.024 509.235 285.311 509.637 288.563C510.049 291.814 510.692 295.031 511.561 298.19C512.44 301.343 513.34 304.479 514.339 307.572C515.355 310.66 516.5 313.689 517.776 316.659C520.353 322.554 523.483 328.286 528.338 332.743C528.356 332.76 528.368 332.783 528.37 332.808C528.373 332.832 528.366 332.857 528.351 332.877C528.336 332.897 528.314 332.911 528.29 332.916C528.266 332.921 528.24 332.917 528.219 332.904C525.385 331.122 522.907 328.828 520.913 326.139C518.905 323.462 517.198 320.571 515.824 317.519C514.502 314.468 513.403 311.325 512.537 308.115C511.644 304.93 510.96 301.69 510.49 298.416C509.968 295.158 509.549 291.897 508.995 288.656C508.719 287.035 508.426 285.415 508.118 283.795C507.839 282.171 507.558 280.545 507.329 278.912C506.932 275.64 506.721 272.348 506.698 269.052C506.636 265.752 506.79 262.452 507.159 259.173C507.16 259.16 507.164 259.147 507.171 259.136C507.177 259.124 507.186 259.114 507.196 259.106C507.207 259.098 507.218 259.092 507.231 259.088C507.244 259.084 507.257 259.083 507.27 259.085C507.293 259.088 507.314 259.099 507.33 259.115C507.346 259.132 507.356 259.154 507.359 259.176Z" fill="black"/>
<path d="M493.561 259.17C494.009 262.35 494.241 265.557 494.255 268.768C494.309 271.975 494.173 275.182 493.848 278.373C493.472 281.561 492.88 284.72 492.397 287.881C491.912 291.043 491.556 294.22 491.112 297.4C490.304 303.811 488.65 310.086 486.193 316.062C484.902 319.051 483.283 321.887 481.367 324.519C479.469 327.16 477.129 329.454 474.451 331.3C474.44 331.307 474.428 331.312 474.415 331.315C474.402 331.317 474.388 331.317 474.376 331.315C474.363 331.312 474.35 331.307 474.339 331.3C474.328 331.292 474.319 331.283 474.312 331.272C474.299 331.252 474.294 331.229 474.296 331.206C474.298 331.183 474.308 331.161 474.325 331.145C478.823 326.584 481.822 321.013 484.229 315.228C485.416 312.322 486.515 309.368 487.464 306.352C488.368 303.324 489.226 300.271 490.037 297.192C490.833 294.106 491.406 290.967 491.754 287.8C492.089 284.63 492.099 281.431 492.187 278.252C492.301 275.074 492.517 271.907 492.706 268.73C492.892 265.554 493.111 262.371 493.361 259.179C493.362 259.153 493.374 259.128 493.394 259.11C493.414 259.092 493.44 259.083 493.467 259.085C493.49 259.086 493.512 259.096 493.529 259.111C493.546 259.127 493.557 259.148 493.561 259.17Z" fill="black"/>
<path d="M531.639 332.725C533.133 332.81 534.571 333.324 535.781 334.205C536.462 334.717 536.937 335.455 537.122 336.287C537.278 337.128 537.17 337.996 536.814 338.774C536.16 340.156 535.226 341.388 534.072 342.391C533.003 343.383 531.842 344.27 530.603 345.039C528.034 346.355 525.344 347.419 522.569 348.214C521.904 348.468 521.208 348.626 520.538 348.861C519.865 349.091 519.186 349.299 518.501 349.492C517.818 349.686 517.136 349.892 516.457 350.114C515.772 350.307 515.078 350.472 514.387 350.653C511.618 351.402 508.781 351.877 505.919 352.072C504.49 352.225 503.051 352.174 501.614 352.233C500.895 352.263 500.176 352.242 499.46 352.17L497.31 352.014C491.605 351.412 486.042 349.861 480.848 347.426C480.824 347.415 480.805 347.395 480.796 347.369C480.787 347.344 480.788 347.317 480.8 347.293C480.81 347.272 480.827 347.255 480.848 347.245C480.869 347.235 480.892 347.233 480.915 347.238C486.373 348.51 491.915 349.396 497.498 349.889C500.267 350.133 503.047 350.234 505.826 350.194C508.605 350.082 511.396 349.945 514.178 349.578C516.972 349.252 519.717 348.589 522.352 347.603C523.003 347.338 523.651 347.068 524.292 346.783L526.164 345.825C527.378 345.178 528.55 344.454 529.672 343.658C530.768 342.83 531.855 341.972 532.876 341.085C533.383 340.65 533.858 340.178 534.296 339.674C534.732 339.211 535.104 338.692 535.403 338.131C535.683 337.637 535.819 337.074 535.797 336.507C535.726 335.933 535.468 335.399 535.061 334.989C534.073 334.055 532.892 333.349 531.601 332.922L531.594 332.919C531.571 332.91 531.553 332.894 531.541 332.873C531.53 332.851 531.526 332.826 531.532 332.803C531.537 332.779 531.551 332.758 531.571 332.744C531.59 332.73 531.615 332.723 531.639 332.725V332.725Z" fill="black"/>
<path d="M278.684 250.009C275.699 251.146 272.784 252.461 269.955 253.945C267.121 255.406 264.398 257.074 261.808 258.935C259.214 260.761 256.88 262.93 254.868 265.383C252.851 267.795 251.582 270.744 251.218 273.868C250.195 280.167 249.488 286.515 249.103 292.885C248.908 296.054 248.899 299.231 249.076 302.401C249.166 303.966 249.363 305.523 249.666 307.061C249.825 307.806 250.04 308.539 250.31 309.252C250.535 309.933 250.902 310.558 251.388 311.086C252.449 312.216 253.618 313.24 254.877 314.145C256.13 315.099 257.449 315.983 258.765 316.869C261.418 318.617 264.152 320.259 266.914 321.854C272.441 325.039 278.081 328.047 283.765 330.966C295.135 336.809 306.695 342.289 318.28 347.711C329.867 353.14 341.526 358.387 353.227 363.598C364.472 369.775 377.62 370.806 390.193 369.239C402.831 367.667 415.043 363.363 426.447 357.672C437.826 351.838 448.586 344.867 458.562 336.868L458.589 336.849C460.503 335.416 462.239 333.762 463.762 331.919C464.577 331.037 465.265 330.045 466.02 329.111C466.722 328.136 467.402 327.143 468.082 326.151C470.684 322.095 472.895 317.8 474.684 313.324C476.484 308.851 477.989 304.265 479.189 299.595C479.76 297.253 480.267 294.894 480.8 292.544L482.042 285.417L482.043 285.411C482.048 285.383 482.055 285.355 482.064 285.328C485.935 273.311 489.603 261.228 493.069 249.078C496.533 236.936 499.815 224.738 502.644 212.446C503.31 209.366 504.076 206.304 504.674 203.212L505.62 198.583C505.931 197.039 506.173 195.486 506.453 193.938C507.048 190.845 507.42 187.73 507.847 184.622C508.468 180.063 508.045 175.423 506.612 171.051C505.178 166.679 502.77 162.69 499.571 159.384C498.501 158.314 497.339 157.34 496.1 156.472C494.859 155.639 493.53 154.944 492.138 154.4C490.743 153.888 489.292 153.55 487.815 153.391C486.33 153.265 484.835 153.316 483.361 153.542C480.367 154.026 477.484 155.04 474.846 156.538C473.516 157.284 472.244 158.13 471.041 159.067C469.851 159.986 468.673 161.073 467.426 162.08C462.492 166.119 457.262 169.781 451.779 173.035C446.303 176.306 440.578 179.14 434.657 181.512C428.712 183.86 422.55 185.618 416.262 186.762C414.68 186.997 413.115 187.34 411.521 187.483L406.743 187.915C405.148 188.027 403.544 187.979 401.946 188.018L399.557 188.04C398.789 188.022 398.022 188.035 397.255 188.066C391.082 188.298 385.135 190.453 380.246 194.23C375.363 198.051 371.652 203.167 369.535 208.995C368.475 211.912 367.72 214.93 367.282 218.003C366.867 221.095 366.686 224.215 366.74 227.334L366.74 227.363L366.739 227.384C366.117 239.461 365.439 251.534 364.704 263.602C364.313 269.635 363.893 275.667 363.442 281.697C363.21 284.711 362.965 287.725 362.685 290.736C362.547 292.242 362.393 293.746 362.222 295.25C362.093 296.768 361.835 298.272 361.452 299.747C361.444 299.773 361.427 299.795 361.403 299.808C361.378 299.821 361.35 299.824 361.324 299.816C361.298 299.809 361.276 299.791 361.263 299.767C361.25 299.743 361.247 299.714 361.255 299.688L361.264 299.658C361.605 298.198 361.827 296.714 361.927 295.218C362.07 293.716 362.195 292.211 362.302 290.704C362.523 287.691 362.71 284.676 362.883 281.659C363.226 275.626 363.529 269.59 363.793 263.552C364.363 251.478 364.877 239.402 365.334 227.323L365.333 227.373C365.235 224.174 365.378 220.972 365.762 217.794C366.177 214.603 366.931 211.464 368.012 208.432C370.191 202.291 374.05 196.885 379.149 192.828C384.309 188.777 390.603 186.437 397.156 186.135C397.967 186.095 398.779 186.074 399.592 186.086L401.941 186.045C403.499 185.993 405.061 186.029 406.615 185.907L411.272 185.447C412.824 185.296 414.351 184.945 415.892 184.706C422.041 183.576 428.065 181.845 433.876 179.538C439.686 177.199 445.303 174.405 450.674 171.184C456.057 167.977 461.191 164.369 466.033 160.391C467.243 159.413 468.385 158.35 469.692 157.332C470.981 156.325 472.343 155.416 473.768 154.613C474.483 154.212 475.214 153.841 475.962 153.499C476.711 153.164 477.481 152.882 478.24 152.573C479.017 152.305 479.808 152.069 480.599 151.837C481.412 151.677 482.207 151.441 483.037 151.355C484.69 151.11 486.366 151.062 488.03 151.213C489.697 151.397 491.335 151.787 492.906 152.373C494.456 152.985 495.934 153.766 497.312 154.702C498.659 155.652 499.919 156.718 501.079 157.888C505.687 162.594 508.705 168.625 509.711 175.134C510.228 178.35 510.267 181.626 509.827 184.854C509.381 188.003 508.987 191.163 508.374 194.274C508.085 195.833 507.833 197.401 507.513 198.953L506.54 203.605C505.923 206.715 505.146 209.783 504.439 212.869C501.477 225.179 498.068 237.363 494.478 249.488C490.876 261.61 487.082 273.671 483.096 285.671L483.117 285.584L481.79 292.747C481.229 295.11 480.693 297.48 480.092 299.832C478.834 304.527 477.268 309.133 475.406 313.623C473.582 318.135 471.332 322.463 468.688 326.548C467.997 327.55 467.304 328.551 466.589 329.537C465.82 330.482 465.12 331.481 464.288 332.376C462.717 334.262 460.925 335.952 458.951 337.411L458.977 337.392L455.156 340.309L453.246 341.767L451.291 343.166L447.385 345.968L443.393 348.648C438.042 352.188 432.501 355.43 426.794 358.36C415.344 364.095 403.142 368.657 390.347 370.407C387.154 370.864 383.936 371.125 380.711 371.189C377.479 371.271 374.245 371.122 371.035 370.74C367.809 370.369 364.622 369.713 361.512 368.778C359.947 368.3 358.417 367.71 356.936 367.014L352.543 365.121C340.809 360.026 329.126 354.784 317.496 349.396C305.881 343.996 294.375 338.36 282.978 332.49C277.291 329.533 271.647 326.487 266.1 323.253C263.327 321.634 260.58 319.965 257.897 318.179C256.56 317.275 255.23 316.36 253.949 315.358C252.62 314.377 251.39 313.268 250.277 312.047C249.69 311.382 249.244 310.605 248.964 309.763C248.677 308.976 248.45 308.168 248.286 307.347C247.988 305.74 247.802 304.115 247.728 302.483C247.587 299.259 247.635 296.03 247.872 292.812C248.338 286.408 249.126 280.031 250.233 273.706L250.439 272.521L250.721 271.308C250.952 270.515 251.244 269.741 251.594 268.993C252.306 267.519 253.196 266.137 254.242 264.878C256.345 262.417 258.772 260.251 261.457 258.442C264.105 256.62 266.884 254.996 269.77 253.582C272.641 252.15 275.595 250.892 278.616 249.812C278.628 249.807 278.642 249.805 278.656 249.806C278.67 249.807 278.683 249.81 278.695 249.816C278.708 249.822 278.719 249.83 278.728 249.84C278.737 249.85 278.744 249.862 278.749 249.875C278.757 249.902 278.755 249.93 278.743 249.955C278.731 249.98 278.71 249.999 278.684 250.009Z" fill="black"/>
<path d="M278.699 250.052C275.726 251.212 272.824 252.547 270.01 254.051C267.186 255.52 264.475 257.194 261.897 259.06C259.322 260.885 257.006 263.051 255.013 265.499C254.051 266.714 253.24 268.041 252.599 269.452C252.293 270.151 252.04 270.872 251.843 271.609L251.613 272.722L251.433 273.903C250.428 280.197 249.74 286.538 249.371 292.901C249.186 296.059 249.186 299.225 249.37 302.383C249.463 303.933 249.663 305.475 249.967 306.998C250.125 307.727 250.337 308.443 250.603 309.14C250.817 309.786 251.167 310.378 251.63 310.877C252.681 311.986 253.836 312.992 255.08 313.88C256.326 314.824 257.643 315.701 258.955 316.583C261.601 318.322 264.332 319.959 267.091 321.548C272.614 324.723 278.253 327.722 283.937 330.634C295.305 336.465 306.873 341.917 318.451 347.344C330.03 352.785 341.683 358.03 353.376 363.266C364.565 369.452 377.602 370.505 390.159 368.984C402.764 367.451 414.977 363.204 426.371 357.522C437.752 351.712 448.508 344.753 458.472 336.754L458.51 336.726C460.411 335.299 462.135 333.652 463.647 331.82C464.458 330.94 465.144 329.95 465.896 329.019C466.595 328.045 467.273 327.054 467.95 326.065C470.543 322.015 472.745 317.727 474.527 313.259C476.314 308.79 477.805 304.208 478.991 299.543C479.557 297.203 480.057 294.847 480.584 292.499L481.808 285.38C481.815 285.337 481.826 285.295 481.839 285.253C485.678 273.231 489.302 261.138 492.711 248.973C496.156 236.831 499.433 224.638 502.247 212.353C502.911 209.275 503.673 206.215 504.267 203.126L505.207 198.502C505.516 196.961 505.756 195.41 506.034 193.865C506.625 190.775 506.993 187.671 507.415 184.572C508.023 180.079 507.604 175.507 506.188 171.201C504.772 166.894 502.397 162.965 499.242 159.71C498.191 158.662 497.052 157.708 495.836 156.859C494.624 156.048 493.328 155.372 491.97 154.842C490.614 154.347 489.203 154.02 487.769 153.867C486.322 153.746 484.866 153.797 483.432 154.019C480.496 154.496 477.669 155.491 475.081 156.958C473.772 157.692 472.52 158.524 471.335 159.445C470.73 159.911 470.181 160.38 469.572 160.901C468.957 161.416 468.357 161.952 467.73 162.449C462.776 166.501 457.525 170.175 452.021 173.439C446.522 176.72 440.773 179.564 434.827 181.943C428.853 184.3 422.661 186.064 416.342 187.211C414.752 187.445 413.178 187.786 411.576 187.927L406.77 188.353C405.167 188.462 403.554 188.412 401.947 188.448L399.549 188.466C398.792 188.447 398.034 188.459 397.277 188.488C391.186 188.704 385.315 190.819 380.485 194.535C375.65 198.306 371.971 203.358 369.868 209.117C368.812 212.009 368.057 215.002 367.613 218.048C367.192 221.122 367.003 224.223 367.047 227.326V227.376L367.046 227.398C366.388 239.475 365.694 251.545 364.903 263.613C364.487 269.645 364.04 275.676 363.564 281.705C363.32 284.719 363.061 287.732 362.769 290.743C362.624 292.249 362.464 293.753 362.287 295.257C362.151 296.78 361.885 298.289 361.494 299.767C361.482 299.804 361.456 299.835 361.422 299.853C361.387 299.871 361.347 299.875 361.31 299.864C361.273 299.853 361.242 299.828 361.223 299.794C361.204 299.76 361.2 299.72 361.21 299.682L361.223 299.638C361.555 298.182 361.769 296.702 361.863 295.211C361.999 293.709 362.117 292.204 362.218 290.697C362.426 287.684 362.601 284.668 362.761 281.651C363.078 275.617 363.356 269.58 363.595 263.541C364.125 251.467 364.602 239.389 365.027 227.31L365.027 227.381C364.919 224.165 365.054 220.945 365.431 217.749C365.841 214.531 366.594 211.367 367.68 208.31C369.872 202.1 373.763 196.63 378.91 192.523C384.129 188.412 390.499 186.031 397.134 185.713C397.955 185.671 398.777 185.649 399.599 185.66L401.94 185.614C403.49 185.56 405.042 185.593 406.588 185.469L411.218 185.003C412.761 184.851 414.28 184.498 415.812 184.258C421.931 183.131 427.924 181.406 433.706 179.108C439.492 176.775 445.085 173.991 450.433 170.78C455.794 167.583 460.907 163.987 465.729 160.023C466.339 159.537 466.916 159.019 467.511 158.519C468.101 158.011 468.752 157.452 469.398 156.953C470.706 155.931 472.088 155.009 473.533 154.193C474.259 153.786 475.002 153.408 475.762 153.06C476.524 152.719 477.305 152.433 478.077 152.119C478.866 151.845 479.672 151.605 480.477 151.369C481.307 151.203 482.118 150.966 482.966 150.878C484.658 150.628 486.374 150.581 488.077 150.738C489.786 150.928 491.464 151.329 493.074 151.931C494.658 152.558 496.168 153.358 497.577 154.316C498.947 155.283 500.229 156.37 501.408 157.562C506.078 162.34 509.135 168.459 510.15 175.063C510.67 178.32 510.707 181.636 510.259 184.904C509.809 188.062 509.41 191.232 508.794 194.347C508.502 195.909 508.248 197.48 507.926 199.034L506.947 203.691C506.327 206.804 505.546 209.874 504.836 212.963C498.838 237.587 491.343 261.755 483.321 285.746L483.352 285.62L482.006 292.791C481.439 295.157 480.897 297.529 480.29 299.884C479.018 304.584 477.439 309.195 475.564 313.688C473.732 318.208 471.474 322.543 468.82 326.635C468.126 327.639 467.431 328.642 466.714 329.629C465.942 330.577 465.238 331.578 464.403 332.475C462.821 334.371 461.017 336.069 459.03 337.534L459.068 337.506L455.242 340.422L453.329 341.879L451.372 343.278L447.465 346.084L443.473 348.77C438.122 352.32 432.579 355.571 426.87 358.51C415.41 364.255 403.209 368.874 390.38 370.662C387.178 371.129 383.95 371.4 380.715 371.473C377.469 371.565 374.221 371.423 370.996 371.049C367.749 370.684 364.541 370.032 361.41 369.1C359.828 368.621 358.283 368.03 356.785 367.331L352.394 365.453C340.652 360.383 328.957 355.124 317.325 349.763C305.703 344.368 294.197 338.721 282.806 332.822C277.119 329.857 271.474 326.803 265.922 323.559C263.147 321.934 260.397 320.26 257.707 318.464C256.366 317.556 255.034 316.635 253.747 315.623C252.403 314.624 251.16 313.497 250.035 312.257C249.426 311.562 248.962 310.751 248.671 309.874C248.38 309.071 248.15 308.247 247.985 307.409C247.688 305.788 247.504 304.148 247.434 302.501C247.3 299.266 247.357 296.025 247.603 292.796C248.087 286.384 248.893 280.001 250.018 273.671L250.228 272.484L250.518 271.254C250.755 270.45 251.054 269.667 251.411 268.909C252.134 267.423 253.037 266.03 254.098 264.762C256.219 262.295 258.665 260.127 261.368 258.317C266.714 254.727 272.508 251.853 278.601 249.769C278.638 249.756 278.678 249.758 278.714 249.775C278.749 249.792 278.777 249.822 278.79 249.858C278.804 249.895 278.803 249.936 278.787 249.972C278.771 250.007 278.741 250.035 278.705 250.05L278.699 250.052Z" fill="black"/>
<path d="M491.027 258.592L502.236 218.095C502.452 218.088 502.668 218.088 502.884 218.088C528.531 218.088 549.334 227.305 549.334 238.681C549.334 250.05 528.531 259.268 502.884 259.268C498.922 259.271 494.963 259.045 491.027 258.592Z" fill="black"/>
<path d="M379.775 165.677C379.036 164.399 377.897 163.4 376.533 162.834C375.169 162.269 373.657 162.168 372.231 162.548C373.993 159.922 372.827 155.358 368.691 155.358C362.9 155.358 362.89 164.358 368.691 164.358C368.858 164.35 369.025 164.333 369.19 164.308C368.151 165.354 367.486 166.712 367.295 168.174C367.105 169.635 367.401 171.119 368.137 172.396L373.085 180.966L384.723 174.247L379.775 165.677Z" fill="black"/>
</svg>
