<svg width="700" height="550" viewBox="0 0 700 550" fill="none" xmlns="http://www.w3.org/2000/svg">
<path d="M406.121 188.336L406.837 186.265L406.76 186.207C406.519 186.025 406.244 185.892 405.951 185.817C405.658 185.742 405.353 185.726 405.054 185.771C404.755 185.815 404.467 185.918 404.209 186.074C403.95 186.231 403.725 186.437 403.547 186.681L402.608 187.949C402.705 187.504 402.047 188.873 402.163 188.457L402.066 187.03C402.066 187.03 401.331 184.842 399.666 185.975C398.768 186.619 398.087 187.52 397.711 188.559L397.295 189.643C397.295 189.643 395.959 183.071 392.592 188.694L390.859 192.923C390.869 192.299 390.787 191.676 390.617 191.075C389.108 185.733 387.598 191.075 387.598 191.075C386.955 193.031 386.06 194.895 384.936 196.62H384.927L380.688 187.591L405.724 178.049L413.089 185.684L406.121 188.336Z" fill="#020202"/>
<path d="M359.23 96.3079C360.68 98.0842 361.932 100.013 362.963 102.061C363.976 104.129 364.781 106.293 365.367 108.52C365.964 110.759 366.267 113.067 366.269 115.384C366.255 117.703 365.984 120.013 365.461 122.272C365.193 123.425 364.773 124.536 364.211 125.577C363.634 126.616 362.899 127.559 362.032 128.373C360.327 130.062 358.075 131.088 355.682 131.265C353.343 131.297 351.044 130.665 349.05 129.441C347.057 128.218 345.452 126.454 344.423 124.354C345.609 126.291 347.27 127.894 349.248 129.01C351.17 130.148 353.393 130.676 355.622 130.523C357.815 130.283 359.861 129.301 361.42 127.739C363.002 126.196 364.082 124.212 364.521 122.045C365.055 119.863 365.347 117.628 365.39 115.382C365.398 113.132 365.148 110.889 364.647 108.696C363.648 104.259 361.809 100.054 359.23 96.3079Z" fill="#020202"/>
<path d="M357.836 96.3079C356.73 96.5221 355.741 97.1335 355.054 98.0268C354.379 98.8973 353.916 99.9131 353.701 100.994C353.498 102.096 353.363 103.21 353.296 104.329C353.177 105.512 352.907 106.676 352.493 107.792C351.692 110.127 350.128 112.124 348.053 113.463C346.937 114.153 345.64 114.493 344.329 114.44C343.021 114.352 341.76 113.92 340.673 113.188C340.471 113.056 340.33 112.849 340.28 112.613C340.231 112.377 340.277 112.131 340.409 111.929L340.442 111.883L340.476 111.837C340.908 111.249 341.224 110.583 341.408 109.877C341.582 109.235 341.539 108.554 341.285 107.94C341.189 107.685 341.044 107.452 340.857 107.253C340.671 107.055 340.447 106.895 340.199 106.784C339.991 106.768 339.782 106.815 339.601 106.919C339.335 107.087 339.099 107.301 338.907 107.55C338.458 108.121 338.139 108.783 337.972 109.49C337.892 109.843 337.847 110.203 337.837 110.565C337.85 110.747 337.844 110.902 337.864 111.106L337.93 111.73C337.991 112.503 338.158 113.264 338.427 113.991C338.553 114.286 338.743 114.548 338.984 114.759C339.226 114.969 339.512 115.122 339.821 115.206L339.858 115.219C340.05 115.291 340.208 115.433 340.3 115.617C340.391 115.801 340.409 116.012 340.35 116.209C340.215 116.663 340.052 117.107 339.862 117.54C339.671 117.983 339.444 118.409 339.182 118.814C338.892 119.284 338.503 119.687 338.044 119.994C337.743 120.179 337.399 120.28 337.046 120.286C336.695 120.274 336.353 120.175 336.051 119.997L337.11 119.299C337.201 120.628 337.13 121.962 336.897 123.273C336.684 124.571 336.309 125.836 335.779 127.04C335.256 128.239 334.555 129.351 333.698 130.338C332.855 131.315 331.859 132.147 330.749 132.802C331.731 132.008 332.6 131.083 333.331 130.052C334.048 129.036 334.605 127.915 334.984 126.73C335.366 125.558 335.621 124.347 335.742 123.119C335.858 121.908 335.847 120.688 335.71 119.479C335.696 119.359 335.712 119.238 335.758 119.126C335.805 119.015 335.879 118.917 335.974 118.843C336.068 118.768 336.181 118.719 336.3 118.701C336.42 118.683 336.542 118.695 336.655 118.738L336.769 118.782C336.844 118.829 336.932 118.85 337.021 118.842C337.109 118.835 337.192 118.799 337.258 118.74C337.507 118.532 337.714 118.279 337.868 117.993C338.247 117.291 338.54 116.547 338.741 115.776L339.27 116.779C338.762 116.621 338.287 116.373 337.866 116.048C337.429 115.692 337.08 115.241 336.842 114.731C336.468 113.851 336.223 112.923 336.114 111.973L336.023 111.311C335.997 111.086 335.991 110.807 335.978 110.558C335.984 110.055 336.041 109.554 336.148 109.063C336.37 108.079 336.806 107.157 337.425 106.36C337.761 105.923 338.173 105.552 338.642 105.263C339.196 104.913 339.857 104.777 340.504 104.88C341.15 104.983 341.737 105.317 342.155 105.821C342.532 106.219 342.834 106.681 343.047 107.186C343.454 108.184 343.522 109.289 343.241 110.33C342.985 111.3 342.538 112.21 341.925 113.005L341.728 111.655C342.53 112.211 343.458 112.561 344.427 112.672C345.408 112.743 346.387 112.514 347.235 112.016C349.059 110.925 350.476 109.266 351.27 107.293C351.723 106.3 352.047 105.252 352.235 104.176L352.519 102.491C352.626 101.911 352.775 101.34 352.963 100.782C353.313 99.6453 353.921 98.6056 354.74 97.7442C355.547 96.8825 356.657 96.3675 357.836 96.3079Z" fill="#020202"/>
<path d="M364.679 107.368C364.679 107.368 368.027 106.934 366.895 101.882C365.762 96.8305 364.195 91.2561 359.84 93.2594C359.84 93.2594 348.255 83.6784 339.458 90.6464C330.661 97.6143 327.439 109.634 336.41 119.389C338.326 120.521 339.545 115.992 339.545 115.992C337.803 115.383 337.281 114.337 336.932 111.115C336.584 107.892 339.545 104.06 341.636 106.673C343.726 109.286 341.2 112.421 341.2 112.421C346.513 116.079 352.262 110.505 352.872 103.45C353.25 99.0777 355.066 97.3816 356.393 96.724C356.773 96.5371 357.197 96.4558 357.62 96.4886C358.043 96.5214 358.449 96.6671 358.797 96.9105C360.194 97.8323 361.351 99.0737 362.173 100.532C363.352 102.669 364.197 104.975 364.679 107.368Z" fill="#020202"/>
<path d="M316.277 184.206C314.678 184.693 313.029 185.002 311.362 185.126C309.682 185.254 307.994 185.213 306.323 185.004C304.645 184.801 302.993 184.422 301.395 183.872C299.79 183.308 298.262 182.547 296.844 181.606L296.806 181.581C296.691 181.505 296.61 181.387 296.582 181.251C296.554 181.116 296.581 180.975 296.657 180.86L296.677 180.832L298.095 178.956C298.533 178.308 298.957 177.649 299.358 176.976C300.137 175.624 300.766 174.191 301.233 172.702C301.443 171.958 301.616 171.203 301.75 170.442C301.884 169.677 301.959 168.895 302.176 168.051C302.403 167.16 302.876 166.352 303.543 165.719C303.855 165.419 304.185 165.136 304.53 164.874L305.563 164.176L305.141 164.782C305.496 162.69 305.938 160.664 306.479 158.637C307.04 156.619 307.72 154.636 308.514 152.698C309.327 150.762 310.272 148.884 311.342 147.077C312.429 145.28 313.715 143.613 315.178 142.106L315.157 142.167L315.158 142.157C315.161 142.134 315.172 142.112 315.19 142.096C315.208 142.081 315.231 142.072 315.254 142.072C315.278 142.072 315.301 142.081 315.319 142.096C315.337 142.112 315.348 142.134 315.351 142.157L315.352 142.167C315.354 142.181 315.351 142.195 315.344 142.207L315.331 142.228C314.288 143.993 313.346 145.815 312.508 147.686C311.707 149.562 310.972 151.459 310.303 153.379C309.641 155.304 309.042 157.249 308.459 159.202C307.873 161.148 307.31 163.132 306.884 165.095L306.877 165.126C306.851 165.246 306.8 165.358 306.729 165.457C306.657 165.556 306.566 165.64 306.461 165.702L305.498 166.271C305.201 166.466 304.916 166.676 304.642 166.902C304.108 167.308 303.697 167.854 303.455 168.479C302.948 169.822 302.607 171.504 301.959 172.958C301.361 174.452 300.606 175.852 299.89 177.271L297.58 181.447L297.412 180.673C298.871 181.314 300.376 181.846 301.914 182.262C303.443 182.726 304.998 183.099 306.571 183.38C308.15 183.673 309.747 183.863 311.351 183.948C312.966 184.078 314.587 184.024 316.245 184.015C316.27 184.014 316.296 184.023 316.315 184.04C316.334 184.057 316.346 184.081 316.347 184.107C316.347 184.129 316.341 184.15 316.328 184.168C316.316 184.185 316.298 184.199 316.277 184.206Z" fill="#020202"/>
<path d="M337.436 198.898C340.282 198.597 343.105 198.537 345.917 198.372C347.323 198.305 348.724 198.207 350.119 198.079C351.523 197.974 352.912 197.726 354.266 197.34C353.027 198.084 351.658 198.588 350.232 198.826C348.825 199.097 347.4 199.269 345.968 199.338C343.116 199.489 340.257 199.342 337.436 198.898Z" fill="#020202"/>
<path d="M328.756 133.8C335.225 131.339 342.46 131.174 349.274 132.385L350.563 132.637C351.009 132.713 351.448 132.821 351.879 132.961C352.72 133.217 353.547 133.515 354.358 133.854C355.981 134.514 357.548 135.305 359.043 136.218C362.041 138.039 364.682 140.391 366.838 143.159C368.974 145.924 370.436 149.149 371.107 152.578C371.268 153.432 371.387 154.293 371.463 155.159L371.587 157.742C371.642 158.59 371.651 159.44 371.743 160.282L372.041 162.804C372.54 166.128 373.484 169.369 374.846 172.441C375.522 173.954 376.333 175.403 377.269 176.77C378.164 178.103 379.24 179.306 380.465 180.345L380.47 180.349C380.573 180.432 380.659 180.534 380.723 180.651C380.787 180.767 380.827 180.895 380.842 181.026C380.856 181.158 380.844 181.292 380.807 181.419C380.77 181.546 380.708 181.665 380.625 181.768C380.54 181.874 380.435 181.961 380.316 182.026C377.434 183.574 374.53 185.073 371.616 186.556C370.861 186.926 370.21 187.286 369.37 187.665C368.568 188.032 367.73 188.319 366.871 188.521C365.203 188.892 363.498 189.073 361.79 189.061C360.109 189.071 358.43 188.956 356.766 188.718C355.206 188.517 353.626 188.534 352.071 188.767C348.867 189.187 345.881 190.62 343.547 192.855C343.53 192.873 343.506 192.883 343.482 192.884C343.457 192.884 343.433 192.876 343.415 192.859C343.396 192.843 343.385 192.82 343.382 192.796C343.38 192.771 343.387 192.747 343.402 192.727C345.547 190.102 348.537 188.303 351.861 187.638C353.528 187.246 355.244 187.111 356.951 187.236C358.543 187.389 360.144 187.424 361.741 187.341C363.312 187.278 364.872 187.043 366.392 186.639C367.125 186.451 367.838 186.191 368.519 185.862C369.17 185.559 369.949 185.115 370.658 184.749C373.568 183.224 376.487 181.714 379.429 180.253L379.28 181.934C378.568 181.339 377.915 180.677 377.329 179.957C376.756 179.272 376.224 178.553 375.737 177.805C374.767 176.325 373.946 174.753 373.287 173.111C371.986 169.86 371.191 166.429 370.929 162.937L370.786 160.342C370.744 159.478 370.786 158.613 370.782 157.751C370.793 156.879 370.792 156.042 370.781 155.199C370.742 154.357 370.65 153.519 370.505 152.688C369.925 149.347 368.429 146.233 366.182 143.693C363.924 141.202 361.235 139.137 358.246 137.598C356.776 136.798 355.261 136.083 353.708 135.458C352.932 135.149 352.146 134.862 351.361 134.601C350.98 134.468 350.588 134.365 350.191 134.292L348.965 134.029C342.325 132.599 335.458 132.584 328.812 133.985C328.788 133.991 328.763 133.987 328.742 133.975C328.72 133.963 328.704 133.943 328.697 133.919C328.69 133.896 328.692 133.87 328.703 133.848C328.714 133.826 328.732 133.809 328.756 133.8L328.756 133.8Z" fill="#020202"/>
<path d="M343.465 192.811L343.472 192.791V192.79L344.256 184.829C344.38 183.552 344.413 182.267 344.357 180.985C344.299 180.446 344.181 179.746 344.077 179.085C343.975 178.416 343.882 177.742 343.805 177.064C343.676 175.702 343.62 174.335 343.639 172.968C343.679 171.603 343.8 170.242 344.002 168.892C344.406 166.209 345.163 163.591 346.252 161.106C345.929 163.787 345.635 166.418 345.504 169.042C345.382 171.652 345.458 174.267 345.729 176.866C345.789 177.516 345.863 178.166 345.948 178.82C346.026 179.481 346.15 180.096 346.183 180.891C346.176 182.282 346.03 183.668 345.749 185.031C345.244 187.685 344.483 190.284 343.478 192.792V192.791L343.465 192.811Z" fill="#020202"/>
<path d="M316.261 184.11C316.182 183.019 316.138 181.932 316.038 180.846C315.973 179.76 315.892 178.676 315.796 177.594C315.599 175.431 315.404 173.271 315.139 171.121C314.897 168.967 314.547 166.832 314.197 164.693C313.999 163.628 313.809 162.559 313.55 161.506C313.363 160.431 313.035 159.397 312.806 158.323C313.695 160.327 314.404 162.407 314.925 164.537C315.446 166.668 315.839 168.828 316.099 171.005C316.356 173.181 316.502 175.367 316.536 177.557C316.587 179.745 316.495 181.934 316.261 184.11Z" fill="#020202"/>
<path d="M338.21 206.65C341.224 206.318 344.215 206.185 347.201 205.982C350.192 205.805 353.16 205.569 356.182 205.353C353.289 206.264 350.291 206.8 347.262 206.948C344.243 207.15 341.21 207.05 338.21 206.65Z" fill="#020202"/>
<path d="M384.373 304.636C385.374 314.095 385.807 323.604 386.086 333.104C386.398 342.605 386.518 352.11 386.505 361.612C386.487 371.115 386.427 380.617 386.126 390.114C385.831 399.611 385.402 409.101 384.954 418.594L384.952 418.627C384.944 418.802 384.868 418.966 384.742 419.086C382.923 420.741 380.794 422.019 378.479 422.847C376.225 423.68 373.887 424.266 371.506 424.595C366.787 425.234 362.014 425.369 357.267 424.997C352.519 424.707 347.808 423.97 343.198 422.796C342.035 422.489 340.89 422.12 339.767 421.692C339.182 421.476 338.617 421.209 338.079 420.894C337.601 420.596 337.104 420.329 336.591 420.097C335.647 419.634 334.578 419.488 333.545 419.682C332.575 419.927 331.736 420.532 331.195 421.373L331.186 421.388C331.134 421.47 331.066 421.542 330.988 421.599C329.283 422.788 327.384 423.672 325.376 424.209C323.408 424.753 321.395 425.112 319.36 425.284C315.333 425.597 311.285 425.508 307.276 425.018C303.29 424.556 299.331 423.882 295.417 423.002C291.497 422.134 287.652 421.104 283.796 419.856C283.537 419.772 283.309 419.61 283.146 419.391C282.982 419.173 282.889 418.909 282.881 418.637L282.881 418.619C282.67 407.426 283.768 396.246 286.153 385.308C287.249 379.841 288.614 374.438 290.146 369.086C291.677 363.733 293.385 358.432 295.313 353.206C296.274 350.592 297.289 347.997 298.381 345.424C298.924 344.138 299.483 342.855 300.096 341.585C300.383 340.947 300.695 340.311 301.042 339.679L301.543 338.73C301.717 338.406 301.813 338.167 301.955 337.882C302.474 336.668 302.911 335.419 303.26 334.145C303.622 332.833 303.978 331.514 304.29 330.176C304.934 327.509 305.535 324.821 306.093 322.114C307.215 316.71 308.202 311.269 309.176 305.824C310.177 300.383 311.084 294.924 312.043 289.471C312.05 289.434 312.07 289.401 312.101 289.378C312.131 289.356 312.169 289.347 312.206 289.352C312.244 289.357 312.278 289.376 312.301 289.406C312.324 289.436 312.335 289.473 312.331 289.511C311.168 300.526 309.791 311.516 307.971 322.466C307.509 325.203 307.041 327.942 306.448 330.669C306.164 332.033 305.832 333.395 305.49 334.759C305.141 336.162 304.693 337.539 304.151 338.88C303.996 339.22 303.823 339.619 303.677 339.909L303.231 340.806C302.925 341.395 302.643 342.008 302.376 342.639C301.815 343.876 301.299 345.142 300.797 346.418C299.787 348.964 298.847 351.549 297.961 354.151C294.379 364.553 291.448 375.168 289.183 385.935C286.774 396.63 285.571 407.562 285.594 418.526L284.679 417.288C288.36 418.537 292.181 419.603 295.988 420.556C299.8 421.508 303.66 422.258 307.551 422.803C311.414 423.381 315.323 423.598 319.227 423.45C323.067 423.216 327.015 422.533 330.161 420.423L329.954 420.649C330.716 419.488 331.906 418.675 333.264 418.385C334.572 418.166 335.916 418.378 337.094 418.988C337.648 419.26 338.184 419.568 338.698 419.91C339.171 420.205 339.669 420.458 340.186 420.666C341.259 421.105 342.358 421.477 343.477 421.781C348.011 422.989 352.65 423.768 357.33 424.107C362.006 424.493 366.711 424.323 371.347 423.601C373.641 423.235 375.887 422.614 378.045 421.75C380.159 420.905 382.086 419.65 383.714 418.059L383.502 418.55L383.663 390.068L384.019 361.596L384.329 333.127C384.346 323.637 384.394 314.148 384.083 304.657C384.082 304.619 384.095 304.582 384.12 304.554C384.145 304.526 384.18 304.509 384.218 304.506C384.255 304.504 384.293 304.515 384.322 304.54C384.351 304.564 384.369 304.598 384.373 304.636L384.373 304.636Z" fill="#020202"/>
<path d="M301.652 183.074C301.11 186.104 300.768 189.166 300.627 192.24C300.452 195.233 300.736 198.234 301.468 201.141C302.141 203.985 303.742 206.523 306.018 208.355C307.184 209.275 308.49 210 309.888 210.502C311.328 211.04 312.81 211.457 314.32 211.749C312.744 211.85 311.161 211.737 309.616 211.412C308.83 211.241 308.058 211.011 307.305 210.726C306.551 210.412 305.827 210.03 305.142 209.585C303.747 208.684 302.546 207.513 301.61 206.14C300.715 204.757 300.038 203.244 299.603 201.655C298.819 198.537 298.657 195.295 299.128 192.115C299.516 188.993 300.367 185.946 301.652 183.074Z" fill="#020202"/>
<path d="M310.871 197.411C311.346 197.262 311.788 197.156 312.22 197.056C312.649 196.946 313.072 196.867 313.469 196.738C313.867 196.627 314.255 196.487 314.633 196.321C315.03 196.12 315.407 195.883 315.761 195.612C315.694 196.123 315.448 196.594 315.066 196.94C314.683 197.278 314.228 197.527 313.736 197.667C313.26 197.8 312.765 197.847 312.273 197.807C311.782 197.78 311.303 197.645 310.871 197.411Z" fill="#020202"/>
<path d="M373.488 184.397C376.829 190.733 379.465 197.417 381.347 204.328C383.247 211.236 384.751 218.246 385.854 225.325C386.423 228.861 386.908 232.411 387.26 235.977C387.451 237.758 387.608 239.543 387.747 241.332L387.843 242.677C387.883 243.132 387.888 243.638 387.89 244.057L387.954 246.719C388.071 250.267 388.279 253.816 388.671 257.326C388.776 258.202 388.884 259.077 389.02 259.944C389.147 260.829 389.318 261.627 389.47 262.584C389.716 264.4 389.834 266.23 389.822 268.062C389.8 271.684 389.525 275.269 389.164 278.84C388.979 280.626 388.768 282.407 388.53 284.186L388.339 285.545L388.096 286.857C387.949 287.717 387.836 288.582 387.748 289.449C387.592 291.202 387.532 292.962 387.568 294.721C387.562 296.54 387.449 298.358 387.229 300.164C387.119 301.094 386.934 302.014 386.676 302.915C386.541 303.397 386.358 303.863 386.128 304.308C385.873 304.846 385.475 305.303 384.977 305.629C384.822 305.712 384.661 305.79 384.501 305.857C384.345 305.9 384.185 305.933 384.025 305.956C383.656 306 383.282 305.941 382.944 305.786C382.375 305.482 381.939 304.976 381.723 304.368C381.391 303.445 381.209 302.476 381.184 301.496C381.14 300.576 381.148 299.656 381.206 298.737C381.233 298.281 381.269 297.828 381.316 297.373L381.353 297.03L381.364 296.943C381.364 296.943 381.367 296.917 381.365 296.942L381.368 296.901L381.378 296.736L381.415 296.072C381.505 294.302 381.576 292.521 381.536 290.772C381.522 290.338 381.502 289.901 381.454 289.493C381.436 289.313 381.402 289.135 381.353 288.961C381.343 288.936 381.336 288.922 381.344 288.932C381.382 288.984 381.431 289.027 381.489 289.055C381.547 289.084 381.61 289.099 381.675 289.097C381.937 289.08 381.943 289.009 381.968 288.999C381.957 289.01 381.948 289.023 381.94 289.037C381.752 289.385 381.602 289.751 381.491 290.13L381.083 291.407C380.522 293.13 379.822 294.805 378.991 296.415C378.17 298.039 377.168 299.565 376.004 300.964C375.415 301.669 374.75 302.305 374.021 302.863C373.638 303.161 373.201 303.383 372.735 303.517C372.476 303.592 372.202 303.598 371.94 303.536C371.678 303.473 371.437 303.344 371.24 303.16C370.906 302.798 370.679 302.35 370.583 301.867C370.488 301.384 370.528 300.884 370.699 300.422C370.86 299.983 371.095 299.576 371.395 299.218C371.658 298.864 371.903 298.496 372.129 298.117C373.051 296.593 373.722 294.931 374.117 293.194C373.814 294.965 373.229 296.677 372.383 298.262C372.17 298.66 371.936 299.046 371.681 299.419C371.418 299.756 371.216 300.137 371.084 300.543C370.956 300.927 370.935 301.339 371.024 301.734C371.113 302.129 371.309 302.492 371.589 302.784C372.144 303.306 373.01 302.891 373.647 302.365C374.315 301.809 374.918 301.18 375.446 300.491C376.511 299.097 377.415 297.588 378.142 295.992C378.903 294.406 379.539 292.763 380.044 291.077L380.42 289.794C380.547 289.313 380.732 288.848 380.969 288.41C381.019 288.329 381.078 288.252 381.143 288.183C381.219 288.096 381.314 288.029 381.421 287.986C381.527 287.943 381.643 287.926 381.757 287.936C381.872 287.946 381.982 287.983 382.08 288.044C382.177 288.105 382.259 288.188 382.318 288.286C382.373 288.372 382.418 288.463 382.454 288.558C382.539 288.81 382.599 289.07 382.632 289.334C382.701 289.81 382.731 290.266 382.757 290.722C382.844 292.541 382.816 294.331 382.77 296.127L382.749 296.801L382.742 296.97L382.726 297.174L382.699 297.498C382.666 297.932 382.641 298.368 382.627 298.804C382.593 299.668 382.607 300.534 382.669 301.397C382.708 302.204 382.871 302.999 383.153 303.756C383.506 304.449 383.678 304.47 384.132 304.244C384.624 303.755 384.959 303.129 385.092 302.448C385.318 301.629 385.477 300.794 385.569 299.951C385.766 298.211 385.86 296.46 385.85 294.709C385.858 293.838 385.825 292.942 385.845 292.018C385.861 291.105 385.914 290.193 385.995 289.283C386.079 288.375 386.19 287.468 386.336 286.567L386.569 285.245L386.739 283.951C386.962 282.191 387.156 280.427 387.323 278.658C387.653 275.126 387.888 271.581 387.889 268.063C387.915 266.324 387.819 264.586 387.601 262.86C387.481 262.055 387.291 261.103 387.173 260.22C387.039 259.322 386.936 258.425 386.836 257.528C386.465 253.939 386.285 250.354 386.196 246.767L386.154 244.075C386.154 243.602 386.155 243.216 386.121 242.781L386.037 241.454C385.913 239.684 385.773 237.911 385.598 236.142C385.255 232.603 384.852 229.069 384.387 225.54C383.462 218.482 382.142 211.482 380.436 204.571C378.81 197.628 376.482 190.869 373.488 184.397Z" fill="#020202"/>
<path d="M374.126 293.155C373.659 294.466 372.883 295.646 371.864 296.594C370.851 297.555 369.717 298.381 368.49 299.05C368.477 299.058 368.463 299.063 368.448 299.066L368.438 299.069C367.854 299.229 367.253 299.317 366.647 299.33C365.977 299.374 365.317 299.15 364.812 298.707C364.579 298.458 364.4 298.165 364.285 297.844C364.17 297.524 364.122 297.183 364.144 296.843C364.154 296.211 364.269 295.585 364.482 294.989L364.753 295.581C364.235 295.428 363.739 295.207 363.279 294.923C362.765 294.618 362.357 294.164 362.107 293.621C361.868 293.053 361.821 292.423 361.975 291.827C362.114 291.265 362.363 290.736 362.707 290.271L362.738 290.236L362.773 290.203C364.082 288.876 365.242 287.41 366.231 285.83C367.266 284.258 368.229 282.61 369.104 280.954L369.033 281.471C368.644 279.746 368.409 277.99 368.331 276.223C368.251 274.455 368.334 272.684 368.579 270.932C368.806 269.177 369.184 267.445 369.708 265.756C370.219 264.039 370.904 262.38 371.753 260.803L371.624 261.247C371.67 258.12 371.455 254.995 370.981 251.904C370.529 248.791 369.914 245.704 369.138 242.656C368.749 241.135 368.328 239.612 367.831 238.147C367.701 237.791 367.578 237.412 367.439 237.095C367.408 237.024 367.364 236.902 367.345 236.874C367.325 236.843 367.312 236.809 367.304 236.773C367.179 236.535 367.059 236.289 366.948 236.04C366.611 235.196 366.364 234.502 366.088 233.731C365.017 230.724 363.995 227.714 362.965 224.702C360.936 218.67 358.947 212.626 356.997 206.571C355.07 200.507 353.143 194.443 351.316 188.346C353.597 194.288 355.794 200.259 358.005 206.224L364.528 224.155C365.607 227.143 366.681 230.139 367.794 233.105L368.627 235.256C368.678 235.372 368.72 235.491 368.755 235.613C368.843 235.749 368.926 235.89 369.003 236.034C369.081 236.179 369.098 236.248 369.148 236.359C369.329 236.77 369.452 237.148 369.596 237.538C370.13 239.082 370.564 240.625 370.972 242.183C372.688 248.411 373.536 254.847 373.493 261.307C373.49 261.45 373.453 261.59 373.384 261.716L373.365 261.751C372.586 263.207 371.943 264.731 371.443 266.304C370.921 267.892 370.536 269.522 370.294 271.176C370.035 272.828 369.929 274.499 369.977 276.17C370.013 277.842 370.191 279.507 370.51 281.148L370.519 281.198C370.547 281.359 370.518 281.524 370.438 281.666C369.478 283.366 368.462 284.996 367.349 286.59C366.253 288.221 364.972 289.719 363.531 291.056L363.596 290.988C363.338 291.318 363.145 291.693 363.026 292.095C362.911 292.464 362.92 292.86 363.053 293.222C363.267 293.593 363.552 293.918 363.892 294.178C364.232 294.438 364.62 294.628 365.034 294.737L365.043 294.74C365.155 294.782 365.246 294.867 365.296 294.976C365.346 295.086 365.35 295.21 365.308 295.323L365.305 295.328C364.94 296.262 364.69 297.541 365.313 298.213C365.68 298.554 366.165 298.736 366.665 298.72C367.22 298.736 367.775 298.684 368.318 298.565L368.266 298.584C369.488 297.996 370.631 297.254 371.664 296.376C372.732 295.516 373.576 294.411 374.126 293.155Z" fill="#020202"/>
<path d="M382.253 163.2C383.451 165.1 384.493 167.094 385.368 169.163C386.283 171.214 387.028 173.337 387.595 175.51C386.396 173.611 385.354 171.617 384.481 169.548C383.568 167.496 382.823 165.373 382.253 163.2Z" fill="#020202"/>
<path d="M395.376 169.936C395.679 167.236 396.162 164.56 396.822 161.925C397.441 159.28 398.238 156.679 399.209 154.142C398.909 156.842 398.425 159.518 397.762 162.153C397.142 164.798 396.345 167.398 395.376 169.936Z" fill="#020202"/>
<path d="M404.551 173.071C406.191 171.178 407.967 169.407 409.865 167.772C411.733 166.104 413.722 164.576 415.816 163.2C414.177 165.095 412.401 166.866 410.502 168.5C408.632 170.166 406.643 171.694 404.551 173.071Z" fill="#020202"/>
<path d="M375.944 189.646C376.728 187.593 377.984 185.753 379.611 184.276C380.462 183.528 381.458 182.963 382.537 182.617C383.624 182.307 384.76 182.209 385.884 182.328C387.964 182.378 390.018 181.862 391.827 180.836L393.267 180.105C393.77 179.816 394.332 179.643 394.911 179.601C395.218 179.614 395.513 179.719 395.759 179.902C396.005 180.085 396.19 180.338 396.291 180.627C396.485 181.144 396.569 181.695 396.537 182.246C396.465 181.721 396.304 181.212 396.062 180.741C395.962 180.528 395.8 180.349 395.596 180.23C395.392 180.111 395.157 180.057 394.922 180.075C394.432 180.166 393.967 180.36 393.557 180.643L392.184 181.489C390.305 182.725 388.091 183.355 385.843 183.294C384.825 183.168 383.792 183.235 382.799 183.492C381.815 183.778 380.892 184.24 380.073 184.855C379.233 185.486 378.477 186.221 377.823 187.043C377.141 187.869 376.513 188.738 375.944 189.646Z" fill="#020202"/>
<path d="M380.688 203.629C381.897 203.732 383.114 203.679 384.31 203.472C385.487 203.315 386.584 202.785 387.441 201.961C387.47 201.929 387.509 201.907 387.552 201.898C387.595 201.889 387.639 201.894 387.679 201.911L387.707 201.924C388.226 202.123 388.795 202.155 389.333 202.014C389.894 201.876 390.424 201.632 390.893 201.294C391.377 200.959 391.823 200.573 392.224 200.142C392.627 199.705 393.006 199.245 393.36 198.766C393.4 198.713 393.455 198.672 393.518 198.649C393.581 198.627 393.649 198.622 393.714 198.637L393.732 198.641C394.447 198.813 395.193 198.809 395.906 198.63C396.237 198.54 396.546 198.38 396.812 198.162C397.078 197.944 397.295 197.672 397.448 197.364L397.459 197.345C397.512 197.256 397.596 197.189 397.695 197.158C397.793 197.127 397.9 197.134 397.994 197.177C398.679 197.525 399.438 197.702 400.206 197.692C400.561 197.676 400.908 197.583 401.224 197.42C401.524 197.248 401.773 197 401.946 196.702C402.689 195.24 403.345 193.736 403.913 192.198C404.527 190.652 405.224 189.099 405.868 187.601C406.02 187.251 406.136 186.886 406.216 186.513C406.241 186.398 406.238 186.278 406.207 186.164C406.191 186.126 406.164 186.084 406.021 186.042C405.694 185.97 405.355 185.979 405.032 186.069C404.696 186.171 404.39 186.355 404.142 186.604L404.049 186.667C404.083 186.65 404.114 186.629 404.142 186.604L404.136 186.609L404.125 186.62L404.098 186.647L404.041 186.705L403.927 186.833L403.704 187.108C403.558 187.298 403.419 187.497 403.285 187.701C403.016 188.109 402.768 188.536 402.535 188.972C402.489 189.058 402.416 189.125 402.327 189.164C402.238 189.202 402.139 189.21 402.045 189.184C401.951 189.159 401.869 189.103 401.811 189.025C401.754 188.947 401.724 188.852 401.728 188.755L401.728 188.736C401.74 188.403 401.775 188.054 401.771 187.733C401.754 187.422 401.688 187.116 401.575 186.826C401.475 186.553 401.313 186.308 401.1 186.109C401.011 186.027 400.905 185.967 400.789 185.932C400.673 185.897 400.551 185.889 400.432 185.908C399.826 186.041 399.289 186.39 398.923 186.891C398.507 187.411 398.201 188.011 398.024 188.653L398.018 188.67L398.013 188.685L397.584 189.755C397.554 189.832 397.494 189.893 397.418 189.926C397.342 189.959 397.257 189.96 397.18 189.929C397.135 189.911 397.095 189.883 397.063 189.847C397.031 189.811 397.007 189.769 396.994 189.722C396.776 188.759 396.359 187.851 395.771 187.057C395.653 186.879 395.485 186.739 395.288 186.655C395.091 186.571 394.874 186.546 394.663 186.583C394.222 186.75 393.841 187.047 393.57 187.434C392.968 188.255 392.467 189.145 392.078 190.086L390.859 192.925C391.216 191.958 391.516 190.973 391.888 190.008C392.235 189.022 392.7 188.082 393.273 187.208C393.574 186.731 394.016 186.36 394.538 186.144C394.838 186.045 395.165 186.062 395.454 186.19C395.721 186.313 395.959 186.49 396.154 186.709C396.831 187.549 397.322 188.523 397.595 189.566L397.005 189.534L397.398 188.45L397.388 188.483C397.567 187.743 397.895 187.047 398.352 186.438C398.82 185.767 399.522 185.296 400.319 185.117C400.552 185.077 400.79 185.088 401.018 185.152C401.245 185.215 401.455 185.328 401.633 185.483C401.95 185.765 402.195 186.118 402.349 186.513C402.499 186.885 402.589 187.279 402.615 187.68C402.626 188.069 402.593 188.431 402.583 188.808L401.776 188.572C402.015 188.115 402.27 187.664 402.552 187.224C402.693 187.004 402.841 186.787 403.002 186.575L403.252 186.258L403.389 186.102L403.463 186.023L403.504 185.982L403.526 185.961L403.538 185.95C403.571 185.919 403.608 185.893 403.648 185.871L403.556 185.933C403.903 185.593 404.326 185.34 404.791 185.197C405.274 185.056 405.785 185.043 406.275 185.159C406.441 185.199 406.596 185.274 406.729 185.38C406.862 185.487 406.97 185.621 407.045 185.773C407.16 186.051 407.191 186.356 407.137 186.652C407.052 187.097 406.922 187.531 406.747 187.949C406.104 189.528 405.416 191.01 404.777 192.556L403.813 194.865C403.5 195.668 403.123 196.444 402.683 197.186C402.425 197.605 402.063 197.949 401.631 198.187C401.202 198.405 400.731 198.528 400.25 198.546C399.343 198.554 398.447 198.341 397.64 197.925L398.186 197.738C397.975 198.146 397.681 198.504 397.322 198.791C396.959 199.065 396.546 199.263 396.105 199.374C395.682 199.474 395.247 199.516 394.812 199.498C394.382 199.483 393.956 199.419 393.541 199.306L393.913 199.181C393.526 199.671 393.113 200.14 392.675 200.585C392.229 201.032 391.737 201.43 391.206 201.772C390.669 202.13 390.069 202.382 389.438 202.515C388.782 202.667 388.094 202.589 387.488 202.295L387.754 202.257C386.803 203.093 385.608 203.6 384.346 203.704C383.129 203.853 381.897 203.827 380.688 203.629Z" fill="#020202"/>
<path d="M395.148 195.796L396.041 192.833C396.33 191.854 396.545 190.845 396.802 189.849C397.052 188.835 397.389 187.844 397.811 186.888C398.231 185.932 398.749 185.021 399.355 184.17C398.628 186.091 398.009 188.051 397.502 190.041C397.259 191.052 396.949 192.046 396.574 193.016C396.191 193.987 395.714 194.918 395.148 195.796Z" fill="#020202"/>
<path d="M402.608 187.949C402.55 188.268 402.473 188.597 402.386 188.917C402.182 189.677 401.93 190.424 401.631 191.152C401.036 192.603 400.234 193.959 399.25 195.178C399.99 193.828 400.611 192.416 401.108 190.959C401.348 190.234 401.552 189.498 401.718 188.752C401.853 188.191 401.95 187.61 402.066 187.03C402.124 187.301 402.163 187.581 402.202 187.823L402.105 188.636L402.608 187.949Z" fill="#020202"/>
<path d="M362.104 114.555C362.498 114.823 362.827 115.175 363.068 115.585C363.309 115.995 363.457 116.453 363.5 116.927C363.514 117.207 363.465 117.486 363.358 117.744C363.239 118.018 363.034 118.245 362.773 118.39C362.55 118.506 362.303 118.57 362.051 118.577C361.8 118.584 361.55 118.534 361.32 118.431C361.689 118.275 362.027 118.056 362.321 117.785C362.409 117.67 362.473 117.538 362.51 117.398C362.546 117.258 362.555 117.112 362.534 116.968C362.503 116.274 362.23 115.475 362.104 114.555Z" fill="#020202"/>
<path d="M339.459 90.6464C339.459 90.6464 332.897 76.4492 321.516 86.9011C310.135 97.353 328.4 109.388 331.068 103.276" fill="#020202"/>
<path d="M374.126 285.026C372.764 287.946 370.836 290.568 368.455 292.739C367.304 293.796 366.064 294.751 364.749 295.594C364.79 295.447 364.838 295.301 364.894 295.159C364.691 295.091 364.497 295.023 364.323 294.946C365.531 294.032 366.69 293.057 367.797 292.023C370.098 289.871 372.215 287.53 374.126 285.026Z" fill="#020202"/>
<path d="M370.138 297.678C371.618 296.078 372.947 294.346 374.11 292.503C375.243 290.642 376.206 288.683 376.989 286.649C376.676 288.863 375.905 290.987 374.726 292.886C373.546 294.785 371.984 296.417 370.138 297.678Z" fill="#020202"/>
<path d="M385.312 281.772C385.196 282.145 384.989 282.485 384.71 282.759C384.431 283.033 384.088 283.233 383.712 283.342C383.312 283.424 382.9 283.424 382.5 283.343C382.1 283.262 381.721 283.102 381.384 282.871C380.884 282.507 380.279 282.315 379.661 282.322C379.384 282.368 379.122 282.477 378.895 282.642C378.669 282.807 378.484 283.023 378.356 283.272L378.31 283.35C378.279 283.403 378.232 283.446 378.176 283.473C377.793 283.656 377.376 283.756 376.953 283.767C376.554 283.785 376.155 283.739 375.771 283.63C375.401 283.521 375.047 283.36 374.722 283.151C374.407 282.948 374.119 282.707 373.863 282.434C374.189 282.591 374.525 282.727 374.869 282.841C375.199 282.946 375.538 283.018 375.882 283.056C376.213 283.083 376.545 283.068 376.873 283.013C377.175 282.961 377.466 282.862 377.737 282.718L377.557 282.919C377.726 282.508 378 282.148 378.35 281.875C378.701 281.601 379.117 281.424 379.557 281.361C380.395 281.332 381.215 281.611 381.861 282.146C382.353 282.55 382.97 282.771 383.607 282.773C383.944 282.729 384.269 282.618 384.561 282.446C384.854 282.274 385.109 282.044 385.312 281.772Z" fill="#020202"/>
<path d="M350.955 133.586C350.676 133.382 350.467 133.097 350.356 132.77C350.244 132.443 350.236 132.089 350.332 131.757C350.407 131.427 350.57 131.122 350.804 130.877C351.038 130.632 351.335 130.455 351.662 130.365C351.615 130.666 351.549 130.963 351.462 131.255C351.392 131.515 351.329 131.752 351.272 131.987C351.154 132.461 351.064 132.907 350.955 133.586Z" fill="#020202"/>
<path d="M380.233 457.824C380.131 458.016 380.068 458.226 380.049 458.443C379.975 458.413 379.904 458.378 379.836 458.336C374.465 455.847 368.501 454.924 362.629 455.675C361.17 455.835 359.723 456.081 358.293 456.411C356.752 456.727 355.169 456.782 353.609 456.575C352.031 456.366 350.508 455.85 349.128 455.056C347.869 454.369 346.773 453.418 345.915 452.269C345.809 452.114 345.693 451.949 345.596 451.775C344.745 450.384 344.247 448.806 344.144 447.178C344.05 445.615 344.187 444.046 344.551 442.523C345.277 439.554 346.483 436.723 348.122 434.142C348.507 433.352 348.84 432.537 349.119 431.703C349.408 430.848 349.644 429.975 349.825 429.09C350.205 427.312 350.161 425.469 349.699 423.71C349.693 423.684 349.696 423.657 349.709 423.634C349.721 423.61 349.742 423.593 349.767 423.584C349.79 423.58 349.814 423.584 349.834 423.594C349.855 423.604 349.872 423.621 349.883 423.642C350.237 424.515 350.469 425.434 350.57 426.371C350.648 427.312 350.638 428.258 350.541 429.197C350.44 430.138 350.265 431.07 350.019 431.984C349.772 432.903 349.459 433.802 349.08 434.674L349.051 434.723C347.656 437.263 346.645 439.996 346.051 442.833C345.509 445.62 345.567 448.601 347.038 450.856C347.845 451.959 348.864 452.891 350.035 453.596C351.207 454.3 352.508 454.764 353.861 454.959C355.246 455.201 356.66 455.22 358.051 455.017C359.537 454.764 361.036 454.599 362.542 454.523C366.252 454.337 369.97 454.679 373.584 455.54C375.822 456.077 378.006 456.822 380.107 457.765C380.145 457.785 380.194 457.804 380.233 457.824Z" fill="#020202"/>
<path d="M411.744 459.091C411.66 459.279 411.563 459.46 411.453 459.633C411.089 460.225 410.62 460.747 410.069 461.172C408.775 462.124 407.31 462.817 405.753 463.214C402.796 464.005 399.732 464.325 396.675 464.162C393.646 464.031 390.652 463.453 387.791 462.449C386.36 461.943 384.988 461.284 383.698 460.485L382.391 459.711C382.559 459.554 382.685 459.358 382.759 459.14L384.065 459.875C385.33 460.603 386.674 461.181 388.072 461.598C388.865 461.84 389.669 462.043 390.481 462.208C392.53 462.616 394.615 462.814 396.704 462.798C399.601 462.815 402.483 462.404 405.259 461.578C406.583 461.202 407.827 460.585 408.927 459.759C409.392 459.398 409.766 458.934 410.021 458.404C410.172 457.921 410.148 457.4 409.953 456.933C409.315 455.796 408.391 454.845 407.272 454.175C406.069 453.403 404.811 452.721 403.508 452.133C401.591 451.262 399.588 450.439 397.604 449.588C396.85 449.268 396.104 448.939 395.359 448.61C392.63 447.42 389.901 446.22 387.22 444.884C385.74 444.149 384.249 443.384 382.807 442.523C381.631 441.826 380.506 441.046 379.439 440.191C377.115 438.161 375.318 435.597 374.204 432.72C373.135 429.903 372.527 426.933 372.404 423.922C372.394 423.874 372.442 423.826 372.491 423.816C372.514 423.817 372.537 423.824 372.556 423.838C372.575 423.852 372.589 423.871 372.597 423.893C372.887 425.355 373.12 426.826 373.526 428.239C373.92 429.648 374.435 431.021 375.065 432.342C376.264 434.971 378.08 437.272 380.359 439.049C381.752 440.075 383.232 440.978 384.781 441.749C385.827 442.281 386.901 442.784 387.985 443.268C388.991 443.713 390.008 444.159 391.033 444.584C391.527 444.807 392.03 445.02 392.533 445.223C393.733 445.736 394.943 446.249 396.153 446.752C397.179 447.178 398.204 447.604 399.22 448.03C400.933 448.746 402.646 449.481 404.379 450.265C405.787 450.9 407.134 451.661 408.405 452.54L409.353 453.256C409.663 453.507 409.953 453.807 410.253 454.088C410.547 454.387 410.818 454.708 411.066 455.046C411.319 455.416 411.54 455.808 411.724 456.217C412.084 457.14 412.091 458.163 411.744 459.091Z" fill="#020202"/>
<path d="M411.453 459.633C411.366 459.258 411.236 458.895 411.066 458.549C411.066 458.549 408.395 465.091 390.501 462.749C390.485 462.569 390.478 462.388 390.481 462.208C390.453 457.562 394.943 452.298 397.604 449.588C398.32 448.862 398.901 448.32 399.22 448.03C399.404 447.855 399.511 447.768 399.511 447.768C398.862 446.268 396.317 444.923 393.637 443.878C393.634 444.245 393.485 444.596 393.224 444.853C392.963 445.111 392.61 445.254 392.243 445.252C391.999 445.263 391.757 445.207 391.544 445.089C391.33 444.971 391.154 444.796 391.033 444.584C390.899 444.337 390.832 444.058 390.838 443.776C390.845 443.494 390.926 443.219 391.072 442.978C388.478 442.136 386.32 441.652 386.32 441.652C385.805 441.606 385.286 441.639 384.781 441.749C384.086 441.898 383.419 442.159 382.807 442.523C377.959 445.33 374.281 453.856 373.584 455.54C373.507 455.723 373.468 455.83 373.468 455.83C373.468 455.83 373.226 455.936 372.036 455.54C363.703 452.791 350.59 459.469 346.342 451.349C346.149 451.63 346.005 451.94 345.916 452.269C345.548 453.469 345.49 455.733 348.596 458.366L346.632 462.353C346.561 462.498 346.527 462.659 346.534 462.821C346.541 462.983 346.589 463.14 346.672 463.279C346.756 463.418 346.873 463.533 347.013 463.615C347.153 463.697 347.312 463.742 347.474 463.746L362.048 464.133C362.177 464.139 362.305 464.12 362.426 464.075L367.41 462.111C367.586 462.042 367.738 461.923 367.847 461.768C367.955 461.613 368.015 461.429 368.019 461.24L368.126 457.398C368.126 457.398 383.359 463.175 391.198 465.779C400.033 468.711 412.963 465.875 411.453 459.633ZM384.752 451.233C385.128 451.246 385.485 451.405 385.746 451.676C386.007 451.947 386.153 452.308 386.153 452.685C386.153 453.061 386.007 453.422 385.746 453.693C385.485 453.964 385.128 454.123 384.752 454.136C384.376 454.123 384.02 453.964 383.759 453.693C383.497 453.422 383.351 453.061 383.351 452.685C383.351 452.308 383.497 451.947 383.759 451.676C384.02 451.405 384.376 451.246 384.752 451.233ZM388.062 449.084C387.685 449.072 387.328 448.914 387.066 448.643C386.804 448.372 386.657 448.01 386.657 447.633C386.657 447.256 386.804 446.894 387.066 446.623C387.328 446.352 387.685 446.194 388.062 446.181C388.439 446.194 388.796 446.352 389.058 446.623C389.32 446.894 389.467 447.256 389.467 447.633C389.467 448.01 389.32 448.372 389.058 448.643C388.796 448.914 388.439 449.072 388.062 449.084H388.062ZM381.443 460.059C381.239 460.062 381.038 460.02 380.852 459.937C380.666 459.854 380.501 459.73 380.369 459.576C380.236 459.422 380.138 459.241 380.083 459.045C380.028 458.849 380.016 458.644 380.049 458.443C380.069 458.226 380.131 458.016 380.233 457.824C380.355 457.613 380.532 457.44 380.745 457.322C380.958 457.205 381.199 457.147 381.443 457.156C381.678 457.157 381.909 457.217 382.116 457.329C382.323 457.44 382.499 457.602 382.629 457.797C382.759 457.993 382.838 458.218 382.861 458.452C382.884 458.686 382.849 458.922 382.759 459.14C382.685 459.358 382.559 459.554 382.391 459.711C382.133 459.946 381.792 460.072 381.443 460.059H381.443Z" fill="#020202"/>
<path d="M357.866 440.641C357.789 442.129 358.072 443.614 358.689 444.97C359.001 445.619 359.412 446.217 359.906 446.742C360.134 447.034 360.434 447.258 360.699 447.534C360.979 447.794 361.292 448.017 361.582 448.306C360.788 448.137 360.042 447.793 359.398 447.301C358.726 446.801 358.184 446.146 357.819 445.393C357.451 444.641 357.266 443.813 357.278 442.976C357.275 442.161 357.477 441.358 357.866 440.641Z" fill="#020202"/>
<path d="M291.802 420.811C292.084 423.68 291.976 426.574 291.482 429.414C291.234 430.858 290.796 432.262 290.179 433.591C289.602 434.863 289.168 436.196 288.885 437.564C288.258 440.287 288.134 443.101 288.518 445.868C288.695 447.19 289.153 448.459 289.862 449.589C290.194 450.112 290.629 450.561 291.141 450.911C291.652 451.26 292.229 451.502 292.837 451.621C293.428 451.747 294.244 451.842 294.927 451.979L297.048 452.39C298.416 452.687 299.8 452.909 301.192 453.056C302.531 453.188 303.882 453.124 305.202 452.864C306.516 452.57 307.786 452.105 308.979 451.479C311.413 450.232 313.498 448.354 315.913 446.647C317.114 445.783 318.378 445.01 319.695 444.335C320.39 443.985 321.116 443.699 321.863 443.482C322.278 443.364 322.704 443.292 323.134 443.267C323.39 443.258 323.645 443.277 323.896 443.326C324.046 443.354 324.192 443.398 324.333 443.456C324.558 443.546 324.759 443.688 324.919 443.869L324.11 443.527C325.698 443.353 327.269 443.04 328.802 442.59C330.34 442.147 331.833 441.562 333.261 440.842C334.657 440.113 335.946 439.197 337.093 438.118C338.182 437.015 339.06 435.721 339.682 434.301L339.632 434.491C339.688 433.97 339.616 433.444 339.421 432.958C339.231 432.513 338.874 432.16 338.427 431.975C337.903 431.774 337.341 431.692 336.781 431.734C336.476 431.772 336.172 431.781 335.863 431.838L334.934 432.032L334.912 432.036C334.747 432.07 334.575 432.047 334.426 431.97C334.277 431.892 334.158 431.766 334.091 431.611C333.903 431.232 333.634 430.899 333.304 430.635C332.945 430.347 332.536 430.128 332.098 429.987C331.637 429.843 331.158 429.761 330.675 429.745C330.428 429.738 330.177 429.754 329.927 429.756L329.169 429.843L329.124 429.848C329.016 429.861 328.906 429.842 328.808 429.794C328.447 429.622 328.075 429.473 327.695 429.349C327.312 429.222 326.921 429.121 326.525 429.046C325.77 428.882 324.987 428.912 324.248 429.134L324.286 429.117L320.598 430.759L318.755 431.579L317.835 431.989C317.656 432.083 317.459 432.14 317.257 432.157C317.056 432.173 316.853 432.149 316.661 432.085C316.467 432.018 316.29 431.908 316.143 431.765C315.996 431.622 315.883 431.448 315.81 431.256C315.698 430.893 315.633 430.588 315.559 430.247C315.416 429.581 315.324 428.905 315.286 428.225C315.193 427.549 315.256 426.861 315.47 426.213C315.685 425.565 316.045 424.974 316.523 424.487C316.092 424.993 315.784 425.591 315.622 426.236C315.459 426.88 315.448 427.553 315.587 428.202C315.662 428.86 315.788 429.512 315.963 430.15C316.048 430.461 316.148 430.808 316.249 431.081C316.302 431.202 316.381 431.309 316.48 431.396C316.579 431.483 316.697 431.546 316.824 431.582C316.953 431.618 317.089 431.625 317.222 431.603C317.354 431.581 317.481 431.531 317.593 431.456L318.488 430.996L320.278 430.077L323.855 428.241L323.886 428.228L323.894 428.224C324.791 427.903 325.755 427.819 326.694 427.98C327.144 428.045 327.589 428.141 328.026 428.267C328.468 428.391 328.9 428.544 329.32 428.726L328.96 428.677L329.816 428.544C330.108 428.527 330.399 428.498 330.694 428.495C331.298 428.491 331.899 428.57 332.482 428.729C333.086 428.901 333.652 429.185 334.152 429.565C334.686 429.965 335.116 430.488 335.404 431.089L334.562 430.669L335.604 430.419C335.955 430.344 336.328 430.317 336.69 430.266C337.477 430.188 338.271 430.289 339.014 430.561C339.83 430.881 340.492 431.502 340.865 432.296C341.211 433.052 341.347 433.887 341.259 434.713C341.254 434.771 341.24 434.829 341.218 434.883L341.209 434.904C340.529 436.548 339.55 438.052 338.32 439.338C337.067 440.564 335.652 441.61 334.113 442.447C332.588 443.255 330.985 443.903 329.328 444.384C327.674 444.88 325.98 445.227 324.264 445.42L323.454 445.077C323.634 445.267 323.572 445.182 323.59 445.206C323.568 445.205 323.562 445.191 323.512 445.189C323.411 445.173 323.308 445.167 323.206 445.171C322.922 445.194 322.64 445.245 322.367 445.326C321.741 445.515 321.133 445.76 320.551 446.058C319.326 446.702 318.144 447.425 317.013 448.222C315.843 449.025 314.787 449.883 313.587 450.759L312.7 451.416L311.768 452.021C311.143 452.428 310.498 452.802 309.835 453.144C308.487 453.845 307.049 454.358 305.561 454.666C304.063 454.935 302.535 454.984 301.023 454.81C299.57 454.633 298.128 454.376 296.704 454.041L294.617 453.599C293.898 453.446 293.29 453.369 292.484 453.18C291.683 452.995 290.928 452.653 290.26 452.174C289.612 451.687 289.059 451.084 288.629 450.396C287.841 449.073 287.348 447.596 287.183 446.065C286.877 443.133 287.12 440.169 287.899 437.326C288.256 435.9 288.785 434.523 289.475 433.225C290.133 431.986 290.626 430.665 290.939 429.297C291.564 426.513 291.854 423.664 291.802 420.811Z" fill="#020202"/>
<path d="M324.187 444.473C324.187 444.473 329.819 444.808 333.961 441.501" stroke="#020202" stroke-width="0.96777" stroke-linecap="round" stroke-linejoin="round"/>
<path d="M307.348 437.418C308.168 437.279 308.967 437.038 309.727 436.701C310.075 436.538 310.398 436.329 310.688 436.078C311.007 435.831 311.28 435.514 311.645 435.183C311.662 435.672 311.529 436.155 311.264 436.567C310.998 437.001 310.613 437.349 310.153 437.569C309.703 437.787 309.205 437.887 308.705 437.862C308.219 437.849 307.747 437.695 307.348 437.418Z" fill="#020202"/>
<path d="M333.318 432.279C333.317 432.109 333.358 431.94 333.436 431.789C333.515 431.637 333.629 431.507 333.77 431.409C333.813 431.32 333.88 431.244 333.963 431.189C334.046 431.133 334.142 431.101 334.241 431.095C334.341 431.089 334.44 431.11 334.529 431.154C334.618 431.199 334.693 431.267 334.748 431.35C334.802 431.434 334.833 431.53 334.838 431.63C334.843 431.729 334.821 431.828 334.775 431.917C334.73 432.005 334.661 432.08 334.577 432.133C334.493 432.187 334.396 432.217 334.297 432.22C334.151 432.309 333.985 432.361 333.815 432.371C333.644 432.381 333.474 432.35 333.318 432.279Z" fill="#020202"/>
<path d="M340.448 434.607C339.046 437.815 336.505 440.391 333.315 441.836C330.025 430.145 322.999 429.206 322.999 429.206C321.719 429.01 320.41 429.198 319.237 429.746C318.064 430.294 317.079 431.177 316.408 432.284C319.002 436.349 321.596 440.413 324.189 444.478C321.354 444.652 319.428 445.562 313.737 449.472C308.898 452.791 307.805 453.41 304.824 453.865C300.914 454.475 297.537 453.188 293.066 452.491C291.903 452.213 290.827 451.655 289.93 450.865C289.93 450.865 290.133 459.923 288.72 463.427C288.661 463.573 288.639 463.732 288.657 463.889C288.674 464.045 288.729 464.196 288.818 464.326C288.907 464.456 289.027 464.562 289.167 464.635C289.307 464.708 289.463 464.745 289.62 464.743H313.002C313.135 464.743 313.267 464.715 313.389 464.661C313.51 464.607 313.62 464.529 313.71 464.43C313.8 464.332 313.869 464.216 313.912 464.09C313.955 463.964 313.971 463.831 313.96 463.698C313.718 460.562 313.505 451.34 319.428 450.865C326.57 450.285 334.757 448.775 337.893 444.478C341.028 440.181 344.745 435.478 340.448 434.607ZM320.821 432.884C320.445 432.872 320.087 432.713 319.825 432.442C319.563 432.171 319.417 431.809 319.417 431.432C319.417 431.055 319.563 430.693 319.825 430.422C320.087 430.152 320.445 429.993 320.821 429.981C321.198 429.993 321.555 430.152 321.817 430.422C322.079 430.693 322.226 431.055 322.226 431.432C322.226 431.809 322.079 432.171 321.817 432.442C321.555 432.713 321.198 432.872 320.821 432.884ZM324.654 437.239C324.277 437.227 323.92 437.068 323.658 436.797C323.396 436.526 323.249 436.164 323.249 435.787C323.249 435.41 323.396 435.048 323.658 434.777C323.92 434.507 324.277 434.348 324.654 434.336C325.03 434.348 325.387 434.507 325.649 434.777C325.911 435.048 326.058 435.41 326.058 435.787C326.058 436.164 325.911 436.526 325.649 436.797C325.387 437.068 325.03 437.227 324.654 437.239ZM327.964 442.465C327.587 442.453 327.23 442.294 326.968 442.023C326.706 441.752 326.559 441.39 326.559 441.013C326.559 440.636 326.706 440.274 326.968 440.003C327.23 439.733 327.587 439.574 327.964 439.562C328.34 439.574 328.697 439.733 328.959 440.003C329.221 440.274 329.368 440.636 329.368 441.013C329.368 441.39 329.221 441.752 328.959 442.023C328.697 442.294 328.34 442.453 327.964 442.465Z" fill="#020202"/>
<path d="M328.786 133.891C316.544 130.02 315.247 142.165 315.247 142.165C321.528 200.222 303.401 281.66 304.098 285.028C304.795 288.396 312.082 290.264 321.17 290.089C330.257 289.915 334.748 295.16 334.748 295.16C351.809 272.776 328.786 133.891 328.786 133.891ZM306.827 285.512C306.451 285.499 306.093 285.341 305.831 285.07C305.569 284.799 305.423 284.437 305.423 284.06C305.423 283.683 305.569 283.321 305.831 283.05C306.093 282.779 306.451 282.621 306.827 282.608C307.204 282.621 307.561 282.779 307.823 283.05C308.085 283.321 308.232 283.683 308.232 284.06C308.232 284.437 308.085 284.799 307.823 285.07C307.561 285.341 307.204 285.499 306.827 285.512ZM313.098 288.067C312.722 288.054 312.365 287.896 312.103 287.625C311.84 287.354 311.694 286.992 311.694 286.615C311.694 286.238 311.84 285.876 312.103 285.605C312.365 285.334 312.722 285.176 313.098 285.163C313.475 285.176 313.832 285.334 314.094 285.605C314.356 285.876 314.503 286.238 314.503 286.615C314.503 286.992 314.356 287.354 314.094 287.625C313.832 287.896 313.475 288.054 313.098 288.067ZM320.531 288.763C320.154 288.751 319.797 288.593 319.535 288.322C319.273 288.051 319.126 287.689 319.126 287.312C319.126 286.935 319.273 286.573 319.535 286.302C319.797 286.031 320.154 285.873 320.531 285.86C320.908 285.873 321.265 286.031 321.527 286.302C321.789 286.573 321.936 286.935 321.936 287.312C321.936 287.689 321.789 288.051 321.527 288.322C321.265 288.593 320.908 288.751 320.531 288.763ZM328.079 289.576C327.703 289.564 327.346 289.406 327.084 289.135C326.822 288.864 326.675 288.502 326.675 288.125C326.675 287.748 326.822 287.386 327.084 287.115C327.346 286.844 327.703 286.686 328.079 286.673C328.456 286.686 328.813 286.844 329.075 287.115C329.337 287.386 329.484 287.748 329.484 288.125C329.484 288.502 329.337 288.864 329.075 289.135C328.813 289.406 328.456 289.564 328.079 289.576ZM334.235 292.944C333.858 292.932 333.501 292.773 333.239 292.503C332.977 292.232 332.83 291.87 332.83 291.493C332.83 291.116 332.977 290.754 333.239 290.483C333.501 290.212 333.858 290.053 334.235 290.041C334.611 290.053 334.968 290.212 335.23 290.483C335.493 290.754 335.639 291.116 335.639 291.493C335.639 291.87 335.493 292.232 335.23 292.503C334.968 292.773 334.611 292.932 334.235 292.944Z" fill="#020202"/>
<path d="M351.403 107.152C351.924 106.718 352.513 106.374 353.146 106.132C353.775 105.88 354.433 105.705 355.104 105.611C355.786 105.526 356.477 105.54 357.155 105.654C357.836 105.774 358.478 106.06 359.024 106.485C358.382 106.425 357.737 106.399 357.092 106.406C356.467 106.441 355.85 106.486 355.229 106.57C353.982 106.728 352.749 106.985 351.403 107.152Z" fill="#020202"/>
<path d="M355.849 113.333C356.225 113.32 356.581 113.161 356.843 112.891C357.105 112.62 357.251 112.258 357.251 111.881C357.251 111.505 357.105 111.143 356.843 110.872C356.581 110.601 356.225 110.443 355.849 110.43C355.472 110.443 355.116 110.601 354.854 110.872C354.593 111.143 354.446 111.505 354.446 111.881C354.446 112.258 354.593 112.62 354.854 112.891C355.116 113.161 355.472 113.32 355.849 113.333Z" fill="#020202"/>
<path d="M368.716 107.842C367.362 107.773 366.114 107.606 364.858 107.54C364.233 107.501 363.615 107.501 362.988 107.512C362.344 107.552 361.703 107.625 361.067 107.73C361.581 107.267 362.2 106.936 362.871 106.766C363.538 106.603 364.226 106.538 364.913 106.574C365.589 106.619 366.258 106.746 366.904 106.951C367.553 107.146 368.165 107.447 368.716 107.842Z" fill="#020202"/>
<path d="M364.257 113.333C364.633 113.32 364.99 113.161 365.251 112.891C365.513 112.62 365.659 112.258 365.659 111.881C365.659 111.505 365.513 111.143 365.251 110.872C364.99 110.601 364.633 110.443 364.257 110.43C363.88 110.443 363.524 110.601 363.262 110.872C363.001 111.143 362.854 111.505 362.854 111.881C362.854 112.258 363.001 112.62 363.262 112.891C363.524 113.161 363.88 113.32 364.257 113.333Z" fill="#020202"/>
<path d="M361.701 123.053C361.701 123.811 361.432 124.545 360.941 125.123C360.451 125.702 359.772 126.087 359.024 126.212C358.586 126.281 358.138 126.256 357.71 126.139C357.282 126.023 356.884 125.817 356.541 125.535C356.178 125.232 355.885 124.852 355.684 124.423C355.483 123.994 355.379 123.526 355.378 123.052C355.378 122.578 355.482 122.11 355.682 121.681C355.882 121.252 356.175 120.871 356.538 120.567C356.881 120.285 357.28 120.079 357.708 119.962C358.137 119.845 358.585 119.82 359.024 119.889C359.772 120.015 360.452 120.401 360.942 120.981C361.432 121.56 361.701 122.294 361.701 123.053ZM361.701 123.053C361.701 122.706 361.622 122.364 361.47 122.052C361.318 121.74 361.096 121.467 360.823 121.254C360.57 121.061 360.278 120.926 359.967 120.858C359.656 120.79 359.334 120.791 359.024 120.862C358.535 120.984 358.101 121.267 357.791 121.664C357.481 122.062 357.313 122.552 357.313 123.055C357.313 123.559 357.481 124.049 357.791 124.447C358.101 124.844 358.535 125.127 359.024 125.249C359.334 125.319 359.657 125.32 359.968 125.251C360.279 125.183 360.571 125.047 360.824 124.853C361.097 124.639 361.318 124.366 361.47 124.054C361.622 123.742 361.701 123.4 361.701 123.053Z" fill="#020202"/>
<path d="M381.791 199.903C382.377 199.424 382.901 198.874 383.352 198.266C383.809 197.675 384.232 197.057 384.615 196.415C384.644 196.367 384.684 196.327 384.732 196.298C384.78 196.27 384.834 196.253 384.89 196.25L384.926 196.248L384.936 196.248L384.625 196.414C385.204 195.435 385.723 194.422 386.181 193.38C386.413 192.86 386.617 192.328 386.829 191.798L387.124 191.006C387.211 190.743 387.312 190.432 387.429 190.158C387.66 189.541 388.03 188.986 388.512 188.537C388.702 188.402 388.93 188.329 389.163 188.331C389.283 188.324 389.402 188.353 389.505 188.413C389.607 188.45 389.701 188.508 389.779 188.583C390.022 188.823 390.215 189.109 390.348 189.424C390.813 190.528 390.989 191.733 390.859 192.925C390.711 191.793 390.345 190.701 389.78 189.709C389.659 189.502 389.507 189.315 389.329 189.155C389.165 189.076 389.153 189.08 389.009 189.181C388.68 189.565 388.433 190.012 388.283 190.495C388.105 190.99 387.936 191.587 387.724 192.137C387.526 192.692 387.288 193.233 387.041 193.77C386.548 194.848 385.947 195.873 385.247 196.83L385.226 196.858C385.193 196.903 385.149 196.939 385.098 196.963C385.047 196.987 384.992 196.998 384.936 196.996L384.926 196.995L385.237 196.829C384.778 197.46 384.262 198.046 383.695 198.582C383.135 199.122 382.492 199.568 381.791 199.903Z" fill="#020202"/>
<path d="M385.908 201.645C387.058 199.949 388.117 198.193 389.081 196.385C389.546 195.485 389.964 194.56 390.333 193.616C390.689 192.655 390.983 191.672 391.212 190.674C391.26 191.723 391.146 192.774 390.872 193.789C390.591 194.802 390.206 195.784 389.725 196.718C388.768 198.582 387.474 200.253 385.908 201.645Z" fill="#020202"/>
<path d="M347.733 187.613C348.109 187.6 348.466 187.441 348.728 187.17C348.989 186.899 349.135 186.537 349.135 186.161C349.135 185.784 348.989 185.422 348.728 185.152C348.466 184.881 348.109 184.722 347.733 184.709C347.357 184.722 347 184.881 346.738 185.152C346.477 185.422 346.331 185.784 346.331 186.161C346.331 186.537 346.477 186.899 346.738 187.17C347 187.441 347.357 187.6 347.733 187.613Z" fill="black"/>
<path d="M353.83 185.871C354.206 185.858 354.563 185.699 354.824 185.428C355.086 185.157 355.232 184.795 355.232 184.419C355.232 184.042 355.086 183.681 354.824 183.41C354.563 183.139 354.206 182.98 353.83 182.967C353.454 182.98 353.097 183.139 352.836 183.41C352.574 183.681 352.428 184.042 352.428 184.419C352.428 184.795 352.574 185.157 352.836 185.428C353.097 185.699 353.454 185.858 353.83 185.871Z" fill="black"/>
<path d="M361.407 186.132C361.784 186.119 362.14 185.96 362.402 185.689C362.663 185.419 362.81 185.057 362.81 184.68C362.81 184.304 362.663 183.942 362.402 183.671C362.14 183.4 361.784 183.242 361.407 183.229C361.031 183.242 360.674 183.4 360.413 183.671C360.151 183.942 360.005 184.304 360.005 184.68C360.005 185.057 360.151 185.419 360.413 185.689C360.674 185.96 361.031 186.119 361.407 186.132Z" fill="black"/>
<path d="M368.288 184.216C368.665 184.203 369.021 184.044 369.283 183.773C369.545 183.502 369.691 183.141 369.691 182.764C369.691 182.387 369.545 182.026 369.283 181.755C369.021 181.484 368.665 181.325 368.288 181.312C367.912 181.325 367.556 181.484 367.294 181.755C367.032 182.026 366.886 182.387 366.886 182.764C366.886 183.141 367.032 183.502 367.294 183.773C367.556 184.044 367.912 184.203 368.288 184.216Z" fill="black"/>
<path d="M373.95 180.383C374.326 180.37 374.683 180.212 374.944 179.941C375.206 179.67 375.352 179.308 375.352 178.932C375.352 178.555 375.206 178.193 374.944 177.922C374.683 177.652 374.326 177.493 373.95 177.48C373.573 177.493 373.217 177.652 372.955 177.922C372.694 178.193 372.547 178.555 372.547 178.932C372.547 179.308 372.694 179.67 372.955 179.941C373.217 180.212 373.573 180.37 373.95 180.383Z" fill="black"/>
<path d="M301.831 180.993C302.208 180.98 302.564 180.821 302.826 180.551C303.087 180.28 303.234 179.918 303.234 179.541C303.234 179.165 303.087 178.803 302.826 178.532C302.564 178.261 302.208 178.103 301.831 178.09C301.455 178.103 301.099 178.261 300.837 178.532C300.575 178.803 300.429 179.165 300.429 179.541C300.429 179.918 300.575 180.28 300.837 180.551C301.099 180.821 301.455 180.98 301.831 180.993Z" fill="black"/>
<path d="M307.667 182.299C308.043 182.286 308.4 182.128 308.661 181.857C308.923 181.586 309.069 181.224 309.069 180.848C309.069 180.471 308.923 180.109 308.661 179.839C308.4 179.568 308.043 179.409 307.667 179.396C307.291 179.409 306.934 179.568 306.672 179.839C306.411 180.109 306.265 180.471 306.265 180.848C306.265 181.224 306.411 181.586 306.672 181.857C306.934 182.128 307.291 182.286 307.667 182.299Z" fill="black"/>
<path d="M313.851 182.735C314.227 182.722 314.584 182.563 314.845 182.293C315.107 182.022 315.253 181.66 315.253 181.283C315.253 180.907 315.107 180.545 314.845 180.274C314.584 180.003 314.227 179.845 313.851 179.832C313.475 179.845 313.118 180.003 312.857 180.274C312.595 180.545 312.449 180.907 312.449 181.283C312.449 181.66 312.595 182.022 312.857 182.293C313.118 182.563 313.475 182.722 313.851 182.735Z" fill="black"/>
<path d="M289.115 415.813C289.491 415.8 289.848 415.641 290.109 415.371C290.371 415.1 290.517 414.738 290.517 414.361C290.517 413.985 290.371 413.623 290.109 413.352C289.848 413.081 289.491 412.923 289.115 412.91C288.738 412.923 288.382 413.081 288.12 413.352C287.859 413.623 287.712 413.985 287.712 414.361C287.712 414.738 287.859 415.1 288.12 415.371C288.382 415.641 288.738 415.8 289.115 415.813Z" fill="black"/>
<path d="M296.257 418.078C296.634 418.065 296.99 417.906 297.252 417.635C297.513 417.364 297.66 417.003 297.66 416.626C297.66 416.249 297.513 415.888 297.252 415.617C296.99 415.346 296.634 415.187 296.257 415.174C295.881 415.187 295.524 415.346 295.263 415.617C295.001 415.888 294.855 416.249 294.855 416.626C294.855 417.003 295.001 417.364 295.263 417.635C295.524 417.906 295.881 418.065 296.257 418.078Z" fill="black"/>
<path d="M304.27 419.994C304.646 419.981 305.003 419.822 305.265 419.551C305.526 419.281 305.672 418.919 305.672 418.542C305.672 418.166 305.526 417.804 305.265 417.533C305.003 417.262 304.646 417.104 304.27 417.091C303.894 417.104 303.537 417.262 303.276 417.533C303.014 417.804 302.868 418.166 302.868 418.542C302.868 418.919 303.014 419.281 303.276 419.551C303.537 419.822 303.894 419.981 304.27 419.994Z" fill="black"/>
<path d="M313.329 420.865C313.705 420.852 314.061 420.693 314.323 420.422C314.585 420.152 314.731 419.79 314.731 419.413C314.731 419.037 314.585 418.675 314.323 418.404C314.061 418.133 313.705 417.975 313.329 417.962C312.952 417.975 312.596 418.133 312.334 418.404C312.072 418.675 311.926 419.037 311.926 419.413C311.926 419.79 312.072 420.152 312.334 420.422C312.596 420.693 312.952 420.852 313.329 420.865Z" fill="black"/>
<path d="M322.387 419.994C322.763 419.981 323.12 419.822 323.381 419.551C323.643 419.281 323.789 418.919 323.789 418.542C323.789 418.166 323.643 417.804 323.381 417.533C323.12 417.262 322.763 417.104 322.387 417.091C322.01 417.104 321.654 417.262 321.392 417.533C321.131 417.804 320.984 418.166 320.984 418.542C320.984 418.919 321.131 419.281 321.392 419.551C321.654 419.822 322.01 419.981 322.387 419.994Z" fill="black"/>
<path d="M331.271 416.684C331.647 416.671 332.004 416.512 332.265 416.242C332.527 415.971 332.673 415.609 332.673 415.232C332.673 414.856 332.527 414.494 332.265 414.223C332.004 413.952 331.647 413.794 331.271 413.781C330.895 413.794 330.538 413.952 330.276 414.223C330.015 414.494 329.869 414.856 329.869 415.232C329.869 415.609 330.015 415.971 330.276 416.242C330.538 416.512 330.895 416.671 331.271 416.684Z" fill="black"/>
<path d="M340.33 417.381C340.706 417.368 341.063 417.209 341.324 416.938C341.586 416.668 341.732 416.306 341.732 415.929C341.732 415.553 341.586 415.191 341.324 414.92C341.063 414.649 340.706 414.491 340.33 414.478C339.953 414.491 339.597 414.649 339.335 414.92C339.073 415.191 338.927 415.553 338.927 415.929C338.927 416.306 339.073 416.668 339.335 416.938C339.597 417.209 339.953 417.368 340.33 417.381Z" fill="black"/>
<path d="M348.691 420.865C349.067 420.852 349.424 420.693 349.685 420.422C349.947 420.152 350.093 419.79 350.093 419.413C350.093 419.037 349.947 418.675 349.685 418.404C349.424 418.133 349.067 417.975 348.691 417.962C348.315 417.975 347.958 418.133 347.696 418.404C347.435 418.675 347.289 419.037 347.289 419.413C347.289 419.79 347.435 420.152 347.696 420.422C347.958 420.693 348.315 420.852 348.691 420.865Z" fill="black"/>
<path d="M357.401 422.084C357.777 422.071 358.134 421.913 358.395 421.642C358.657 421.371 358.803 421.009 358.803 420.633C358.803 420.256 358.657 419.894 358.395 419.623C358.134 419.353 357.777 419.194 357.401 419.181C357.025 419.194 356.668 419.353 356.406 419.623C356.145 419.894 355.999 420.256 355.999 420.633C355.999 421.009 356.145 421.371 356.406 421.642C356.668 421.913 357.025 422.071 357.401 422.084Z" fill="black"/>
<path d="M367.156 422.084C367.533 422.071 367.889 421.913 368.151 421.642C368.412 421.371 368.559 421.009 368.559 420.633C368.559 420.256 368.412 419.894 368.151 419.623C367.889 419.353 367.533 419.194 367.156 419.181C366.78 419.194 366.423 419.353 366.162 419.623C365.9 419.894 365.754 420.256 365.754 420.633C365.754 421.009 365.9 421.371 366.162 421.642C366.423 421.913 366.78 422.071 367.156 422.084Z" fill="black"/>
<path d="M375.866 420.168C376.242 420.155 376.599 419.996 376.86 419.726C377.122 419.455 377.268 419.093 377.268 418.716C377.268 418.34 377.122 417.978 376.86 417.707C376.599 417.436 376.242 417.278 375.866 417.265C375.489 417.278 375.133 417.436 374.871 417.707C374.61 417.978 374.463 418.34 374.463 418.716C374.463 419.093 374.61 419.455 374.871 419.726C375.133 419.996 375.489 420.155 375.866 420.168Z" fill="black"/>
<path d="M382.66 416.684C383.036 416.671 383.392 416.512 383.654 416.242C383.916 415.971 384.062 415.609 384.062 415.232C384.062 414.856 383.916 414.494 383.654 414.223C383.392 413.952 383.036 413.794 382.66 413.781C382.283 413.794 381.927 413.952 381.665 414.223C381.404 414.494 381.257 414.856 381.257 415.232C381.257 415.609 381.404 415.971 381.665 416.242C381.927 416.512 382.283 416.671 382.66 416.684Z" fill="black"/>
<path d="M360.567 105.291C360.944 105.278 361.3 105.119 361.562 104.848C361.823 104.577 361.97 104.215 361.97 103.839C361.97 103.462 361.823 103.101 361.562 102.83C361.3 102.559 360.944 102.4 360.567 102.387C360.191 102.4 359.834 102.559 359.573 102.83C359.311 103.101 359.165 103.462 359.165 103.839C359.165 104.215 359.311 104.577 359.573 104.848C359.834 105.119 360.191 105.278 360.567 105.291Z" fill="#B21919"/>
<path d="M298.974 101.522C299.522 101.522 299.967 101.077 299.967 100.529C299.967 99.9801 299.522 99.5354 298.974 99.5354C298.425 99.5354 297.98 99.9801 297.98 100.529C297.98 101.077 298.425 101.522 298.974 101.522Z" fill="white"/>
</svg>
