<svg width="338" height="458" viewBox="0 0 338 458" fill="none" xmlns="http://www.w3.org/2000/svg">
<g filter="url(#filter0_ddddd_6_1873)">
<path d="M220.931 31.5552C229.556 25.3562 241.176 25.3562 249.801 31.5552L313.876 77.6051C320.342 82.2522 324.175 89.728 324.175 97.6907V199.977C324.175 207.94 320.342 215.416 313.876 220.063L249.801 266.113C241.176 272.312 229.556 272.312 220.931 266.113L156.856 220.063C150.39 215.416 146.557 207.94 146.557 199.977V97.6907C146.557 89.728 150.39 82.2522 156.856 77.6051L220.931 31.5552Z" fill="#0C3855"/>
<g style="mix-blend-mode:color">
<path d="M220.931 31.5552C229.556 25.3562 241.176 25.3562 249.801 31.5552L313.876 77.6051C320.342 82.2522 324.175 89.728 324.175 97.6907V199.977C324.175 207.94 320.342 215.416 313.876 220.063L249.801 266.113C241.176 272.312 229.556 272.312 220.931 266.113L156.856 220.063C150.39 215.416 146.557 207.94 146.557 199.977V97.6907C146.557 89.728 150.39 82.2522 156.856 77.6051L220.931 31.5552Z" fill="#FFCB6B"/>
</g>
<path d="M220.931 13.8873C229.556 7.68834 241.176 7.68835 249.801 13.8873L313.876 59.9372C320.342 64.5843 324.175 72.0601 324.175 80.0229V182.309C324.175 190.272 320.342 197.748 313.876 202.395L249.801 248.445C241.176 254.644 229.556 254.644 220.931 248.445L156.856 202.395C150.39 197.748 146.557 190.272 146.557 182.309V80.0229C146.557 72.0601 150.39 64.5843 156.856 59.9372L220.931 13.8873Z" fill="url(#paint0_radial_6_1873)"/>
<path d="M220.931 13.8873C229.556 7.68834 241.176 7.68835 249.801 13.8873L313.876 59.9372C320.342 64.5843 324.175 72.0601 324.175 80.0229V182.309C324.175 190.272 320.342 197.748 313.876 202.395L249.801 248.445C241.176 254.644 229.556 254.644 220.931 248.445L156.856 202.395C150.39 197.748 146.557 190.272 146.557 182.309V80.0229C146.557 72.0601 150.39 64.5843 156.856 59.9372L220.931 13.8873Z" fill="white" fill-opacity="0.1" style="mix-blend-mode:color-dodge"/>
<path d="M220.929 41.7241C229.555 35.5251 241.175 35.5251 249.8 41.7241L294.508 73.8557C300.975 78.5028 304.808 85.9786 304.808 93.9414V168.391C304.808 176.354 300.975 183.83 294.508 188.477L249.8 220.608C241.175 226.807 229.555 226.807 220.929 220.608L176.221 188.477C169.755 183.83 165.921 176.354 165.921 168.391V93.9414C165.921 85.9786 169.755 78.5028 176.221 73.8557L220.929 41.7241Z" fill="white" fill-opacity="0.2" style="mix-blend-mode:screen"/>
<path d="M230.862 91.0697C232.671 87.2802 238.065 87.2802 239.873 91.0697L247.808 107.698C248.535 109.223 249.985 110.276 251.661 110.497L269.927 112.905C274.09 113.454 275.757 118.584 272.711 121.475L259.349 134.159C258.123 135.323 257.569 137.027 257.877 138.689L261.232 156.805C261.996 160.934 257.632 164.104 253.942 162.101L237.749 153.313C236.264 152.507 234.472 152.507 232.986 153.313L216.793 162.101C213.103 164.104 208.739 160.934 209.504 156.805L212.858 138.689C213.166 137.027 212.612 135.323 211.387 134.159L198.024 121.475C194.979 118.584 196.646 113.454 200.809 112.905L219.075 110.497C220.75 110.276 222.2 109.223 222.928 107.698L230.862 91.0697Z" fill="#124344"/>
<g style="mix-blend-mode:soft-light">
<path d="M235.367 9.23816C240.429 9.23788 245.49 10.7879 249.803 13.8876L313.878 59.9374C318.593 63.3265 321.907 68.2209 323.356 73.7108L301.427 80.5028C300.067 78.4346 298.328 76.6018 296.263 75.118L247.339 39.9559C243.763 37.3852 239.565 36.0989 235.367 36.0985V9.23816Z" fill="white"/>
</g>
<g style="mix-blend-mode:multiply" opacity="0.3">
<path d="M165.992 172.234C166.482 178.199 169.56 183.689 174.466 187.214L223.39 222.376C226.968 224.948 231.169 226.232 235.369 226.231V270.759C230.307 270.76 225.246 269.211 220.933 266.112L156.858 220.062C150.392 215.415 146.559 207.939 146.559 199.976V182.538L165.992 172.234Z" fill="#124344"/>
</g>
<g style="mix-blend-mode:color">
<path d="M220.931 13.8873C229.556 7.68834 241.176 7.68835 249.801 13.8873L313.876 59.9372C320.342 64.5843 324.175 72.0601 324.175 80.0229V182.309C324.175 190.272 320.342 197.748 313.876 202.395L249.801 248.445C241.176 254.644 229.556 254.644 220.931 248.445L156.856 202.395C150.39 197.748 146.557 190.272 146.557 182.309V80.0229C146.557 72.0601 150.39 64.5843 156.856 59.9372L220.931 13.8873Z" fill="#FFCB6B"/>
</g>
<path d="M181.428 28.1924C182.256 25.9538 185.423 25.9538 186.251 28.1924L189.176 36.0964C189.436 36.8002 189.991 37.3552 190.695 37.6156L198.599 40.5403C200.838 41.3687 200.838 44.5351 198.599 45.3635L190.695 48.2882C189.991 48.5486 189.436 49.1036 189.176 49.8074L186.251 57.7113C185.423 59.95 182.256 59.95 181.428 57.7113L178.503 49.8074C178.243 49.1036 177.688 48.5486 176.984 48.2882L169.08 45.3635C166.841 44.5351 166.841 41.3687 169.08 40.5403L176.984 37.6156C177.688 37.3552 178.243 36.8002 178.503 36.0964L181.428 28.1924Z" fill="white"/>
<path d="M277.593 190.789C278.13 189.339 280.181 189.339 280.718 190.789L282.612 195.91C282.781 196.366 283.14 196.725 283.596 196.894L288.717 198.788C290.167 199.325 290.167 201.376 288.717 201.913L283.596 203.808C283.14 203.976 282.781 204.336 282.612 204.792L280.718 209.912C280.181 211.362 278.13 211.362 277.593 209.912L275.698 204.792C275.53 204.336 275.17 203.976 274.714 203.808L269.594 201.913C268.144 201.376 268.144 199.325 269.594 198.788L274.714 196.894C275.17 196.725 275.53 196.366 275.698 195.91L277.593 190.789Z" fill="white"/>
</g>
<defs>
<filter id="filter0_ddddd_6_1873" x="0.556641" y="0.238037" width="334.619" height="457.524" filterUnits="userSpaceOnUse" color-interpolation-filters="sRGB">
<feFlood flood-opacity="0" result="BackgroundImageFix"/>
<feColorMatrix in="SourceAlpha" type="matrix" values="0 0 0 0 0 0 0 0 0 0 0 0 0 0 0 0 0 0 127 0" result="hardAlpha"/>
<feOffset dx="-4" dy="6"/>
<feGaussianBlur stdDeviation="7.5"/>
<feColorMatrix type="matrix" values="0 0 0 0 0.101961 0 0 0 0 0.0313726 0 0 0 0 0.168627 0 0 0 0.98 0"/>
<feBlend mode="normal" in2="BackgroundImageFix" result="effect1_dropShadow_6_1873"/>
<feColorMatrix in="SourceAlpha" type="matrix" values="0 0 0 0 0 0 0 0 0 0 0 0 0 0 0 0 0 0 127 0" result="hardAlpha"/>
<feOffset dx="-16" dy="22"/>
<feGaussianBlur stdDeviation="13.5"/>
<feColorMatrix type="matrix" values="0 0 0 0 0.101961 0 0 0 0 0.0313726 0 0 0 0 0.168627 0 0 0 0.85 0"/>
<feBlend mode="normal" in2="effect1_dropShadow_6_1873" result="effect2_dropShadow_6_1873"/>
<feColorMatrix in="SourceAlpha" type="matrix" values="0 0 0 0 0 0 0 0 0 0 0 0 0 0 0 0 0 0 127 0" result="hardAlpha"/>
<feOffset dx="-35" dy="50"/>
<feGaussianBlur stdDeviation="18.5"/>
<feColorMatrix type="matrix" values="0 0 0 0 0.101961 0 0 0 0 0.0313726 0 0 0 0 0.168627 0 0 0 0.5 0"/>
<feBlend mode="normal" in2="effect2_dropShadow_6_1873" result="effect3_dropShadow_6_1873"/>
<feColorMatrix in="SourceAlpha" type="matrix" values="0 0 0 0 0 0 0 0 0 0 0 0 0 0 0 0 0 0 127 0" result="hardAlpha"/>
<feOffset dx="-63" dy="89"/>
<feGaussianBlur stdDeviation="22"/>
<feColorMatrix type="matrix" values="0 0 0 0 0.101961 0 0 0 0 0.0313726 0 0 0 0 0.168627 0 0 0 0.15 0"/>
<feBlend mode="normal" in2="effect3_dropShadow_6_1873" result="effect4_dropShadow_6_1873"/>
<feColorMatrix in="SourceAlpha" type="matrix" values="0 0 0 0 0 0 0 0 0 0 0 0 0 0 0 0 0 0 127 0" result="hardAlpha"/>
<feOffset dx="-98" dy="139"/>
<feGaussianBlur stdDeviation="24"/>
<feColorMatrix type="matrix" values="0 0 0 0 0.101961 0 0 0 0 0.0313726 0 0 0 0 0.168627 0 0 0 0.02 0"/>
<feBlend mode="normal" in2="effect4_dropShadow_6_1873" result="effect5_dropShadow_6_1873"/>
<feBlend mode="normal" in="SourceGraphic" in2="effect5_dropShadow_6_1873" result="shape"/>
</filter>
<radialGradient id="paint0_radial_6_1873" cx="0" cy="0" r="1" gradientUnits="userSpaceOnUse" gradientTransform="translate(235.366 3.5127) rotate(90) scale(255.307 205.096)">
<stop stop-color="#95CCEA"/>
<stop offset="1" stop-color="#104D7D"/>
</radialGradient>
</defs>
</svg>
