<svg width="366" height="418" viewBox="0 0 366 418" fill="none" xmlns="http://www.w3.org/2000/svg">
<g filter="url(#filter0_ddddd_6_1861)">
<path d="M239.252 30.084C246.148 26.6844 254.232 26.6844 261.128 30.084L323.667 60.9171C329.672 63.8776 334.221 69.1459 336.273 75.5184L352.338 125.391C353.128 127.841 353.529 130.4 353.529 132.975V148.857C353.529 154.364 351.692 159.713 348.308 164.057L303.608 221.442C298.921 227.458 291.721 230.976 284.094 230.976H216.286C208.659 230.976 201.459 227.458 196.773 221.442L152.072 164.057C148.688 159.713 146.851 154.364 146.851 148.857V132.975C146.851 130.4 147.253 127.841 148.042 125.391L164.107 75.5184C166.16 69.1459 170.708 63.8776 176.713 60.9171L239.252 30.084Z" fill="#0C3855"/>
<g style="mix-blend-mode:color">
<path d="M239.252 30.084C246.148 26.6844 254.232 26.6844 261.128 30.084L323.667 60.9171C329.672 63.8776 334.221 69.1459 336.273 75.5184L352.338 125.391C353.128 127.841 353.529 130.4 353.529 132.975V148.857C353.529 154.364 351.692 159.713 348.308 164.057L303.608 221.442C298.921 227.458 291.721 230.976 284.094 230.976H216.286C208.659 230.976 201.459 227.458 196.773 221.442L152.072 164.057C148.688 159.713 146.851 154.364 146.851 148.857V132.975C146.851 130.4 147.253 127.841 148.042 125.391L164.107 75.5184C166.16 69.1459 170.708 63.8776 176.713 60.9171L239.252 30.084Z" fill="#FFCB6B"/>
</g>
<path d="M239.57 12.1921C246.352 8.92607 254.252 8.92606 261.034 12.1921L324.411 42.7127C331.193 45.9788 336.119 52.1554 337.794 59.4941L353.446 128.073C355.121 135.412 353.363 143.114 348.67 148.999L304.812 203.996C300.119 209.881 293.001 213.309 285.473 213.309H215.131C207.603 213.309 200.485 209.881 195.792 203.996L151.934 148.999C147.241 143.114 145.483 135.412 147.158 128.073L162.811 59.4941C164.486 52.1554 169.411 45.9788 176.193 42.7127L239.57 12.1921Z" fill="url(#paint0_radial_6_1861)"/>
<path d="M239.57 12.1921C246.352 8.92607 254.252 8.92606 261.034 12.1921L324.411 42.7127C331.193 45.9788 336.119 52.1554 337.794 59.4941L353.446 128.073C355.121 135.412 353.363 143.114 348.67 148.999L304.812 203.996C300.119 209.881 293.001 213.309 285.473 213.309H215.131C207.603 213.309 200.485 209.881 195.792 203.996L151.934 148.999C147.241 143.114 145.483 135.412 147.158 128.073L162.811 59.4941C164.486 52.1554 169.411 45.9788 176.193 42.7127L239.57 12.1921Z" fill="white" fill-opacity="0.1" style="mix-blend-mode:color-dodge"/>
<path d="M239.565 34.63C246.347 31.3639 254.247 31.3639 261.029 34.63L306.863 56.7024C313.645 59.9685 318.571 66.1451 320.246 73.4838L331.566 123.08C333.241 130.419 331.483 138.121 326.79 144.006L295.072 183.779C290.378 189.665 283.261 193.092 275.733 193.092H224.861C217.334 193.092 210.216 189.665 205.523 183.779L173.805 144.006C169.112 138.121 167.354 130.419 169.029 123.08L180.349 73.4838C182.024 66.1451 186.949 59.9685 193.731 56.7024L239.565 34.63Z" fill="white" fill-opacity="0.2" style="mix-blend-mode:screen"/>
<path d="M245.794 78.1665C247.602 74.377 252.996 74.377 254.805 78.1665L262.739 94.7947C263.467 96.3198 264.917 97.3732 266.592 97.594L284.859 100.002C289.021 100.551 290.688 105.681 287.643 108.572L274.281 121.256C273.055 122.42 272.501 124.124 272.809 125.786L276.163 143.902C276.928 148.031 272.564 151.201 268.874 149.198L252.681 140.41C251.195 139.603 249.403 139.603 247.918 140.41L231.725 149.198C228.035 151.201 223.671 148.031 224.435 143.902L227.79 125.786C228.098 124.124 227.544 122.42 226.318 121.256L212.956 108.572C209.911 105.681 211.577 100.551 215.74 100.002L234.007 97.594C235.682 97.3732 237.132 96.3198 237.859 94.7947L245.794 78.1665Z" fill="#124344"/>
<g style="mix-blend-mode:soft-light">
<path d="M335.62 53.7596C333.198 48.9029 329.209 44.9252 324.219 42.5226L260.842 12.0021C256.84 10.074 252.443 9.28425 248.123 9.63256V31.7141L248.792 32.0257C252.899 31.8064 257.047 32.6113 260.842 34.4402L306.682 56.5126C308.904 57.5834 310.927 58.9672 312.7 60.6024L335.62 53.7596Z" fill="white"/>
</g>
<g style="mix-blend-mode:multiply" opacity="0.3">
<path d="M214.748 230.923C207.722 230.463 201.207 227.03 196.852 221.441L152.151 164.057C148.769 159.713 146.934 154.364 146.934 148.857V137.509C146.906 137.33 146.878 137.15 146.851 136.97L168.666 131.48C169.198 136.008 170.978 140.356 173.891 144.006L205.61 183.779C208.081 186.879 211.228 189.297 214.748 190.891V230.923Z" fill="#124344"/>
</g>
<g style="mix-blend-mode:color">
<path d="M239.569 12.192C246.351 8.92594 254.251 8.92594 261.033 12.192L324.41 42.7126C331.192 45.9786 336.117 52.1552 337.792 59.4939L353.445 128.073C355.12 135.412 353.362 143.114 348.669 148.999L304.811 203.995C300.117 209.881 293 213.308 285.472 213.308H215.129C207.602 213.308 200.484 209.881 195.791 203.995L151.933 148.999C147.239 143.114 145.481 135.412 147.156 128.073L162.809 59.494C164.484 52.1552 169.41 45.9786 176.192 42.7126L239.569 12.192Z" fill="#FFCB6B"/>
</g>
<path d="M199.188 14.6878C200.016 12.4491 203.183 12.4491 204.011 14.6878L206.936 22.5918C207.196 23.2956 207.751 23.8505 208.455 24.111L216.359 27.0357C218.598 27.8641 218.598 31.0304 216.359 31.8588L208.455 34.7835C207.751 35.044 207.196 35.5989 206.936 36.3028L204.011 44.2067C203.183 46.4454 200.016 46.4454 199.188 44.2067L196.263 36.3028C196.003 35.5989 195.448 35.044 194.744 34.7835L186.84 31.8588C184.601 31.0304 184.601 27.8641 186.84 27.0357L194.744 24.111C195.448 23.8505 196.003 23.2956 196.263 22.5918L199.188 14.6878Z" fill="white"/>
<path d="M287.639 182.275C288.175 180.825 290.226 180.825 290.763 182.275L292.658 187.395C292.826 187.851 293.186 188.211 293.642 188.379L298.762 190.274C300.212 190.811 300.212 192.862 298.762 193.399L293.642 195.293C293.186 195.462 292.826 195.821 292.658 196.277L290.763 201.398C290.226 202.848 288.175 202.848 287.639 201.398L285.744 196.277C285.575 195.821 285.216 195.462 284.76 195.293L279.639 193.399C278.189 192.862 278.189 190.811 279.639 190.274L284.76 188.379C285.216 188.211 285.575 187.851 285.744 187.395L287.639 182.275Z" fill="white"/>
</g>
<defs>
<filter id="filter0_ddddd_6_1861" x="0.536072" y="0.552612" width="364.531" height="417.424" filterUnits="userSpaceOnUse" color-interpolation-filters="sRGB">
<feFlood flood-opacity="0" result="BackgroundImageFix"/>
<feColorMatrix in="SourceAlpha" type="matrix" values="0 0 0 0 0 0 0 0 0 0 0 0 0 0 0 0 0 0 127 0" result="hardAlpha"/>
<feOffset dx="-4" dy="6"/>
<feGaussianBlur stdDeviation="7.5"/>
<feColorMatrix type="matrix" values="0 0 0 0 0.101961 0 0 0 0 0.0313726 0 0 0 0 0.168627 0 0 0 0.98 0"/>
<feBlend mode="normal" in2="BackgroundImageFix" result="effect1_dropShadow_6_1861"/>
<feColorMatrix in="SourceAlpha" type="matrix" values="0 0 0 0 0 0 0 0 0 0 0 0 0 0 0 0 0 0 127 0" result="hardAlpha"/>
<feOffset dx="-16" dy="22"/>
<feGaussianBlur stdDeviation="13.5"/>
<feColorMatrix type="matrix" values="0 0 0 0 0.101961 0 0 0 0 0.0313726 0 0 0 0 0.168627 0 0 0 0.85 0"/>
<feBlend mode="normal" in2="effect1_dropShadow_6_1861" result="effect2_dropShadow_6_1861"/>
<feColorMatrix in="SourceAlpha" type="matrix" values="0 0 0 0 0 0 0 0 0 0 0 0 0 0 0 0 0 0 127 0" result="hardAlpha"/>
<feOffset dx="-35" dy="50"/>
<feGaussianBlur stdDeviation="18.5"/>
<feColorMatrix type="matrix" values="0 0 0 0 0.101961 0 0 0 0 0.0313726 0 0 0 0 0.168627 0 0 0 0.5 0"/>
<feBlend mode="normal" in2="effect2_dropShadow_6_1861" result="effect3_dropShadow_6_1861"/>
<feColorMatrix in="SourceAlpha" type="matrix" values="0 0 0 0 0 0 0 0 0 0 0 0 0 0 0 0 0 0 127 0" result="hardAlpha"/>
<feOffset dx="-63" dy="89"/>
<feGaussianBlur stdDeviation="22"/>
<feColorMatrix type="matrix" values="0 0 0 0 0.101961 0 0 0 0 0.0313726 0 0 0 0 0.168627 0 0 0 0.15 0"/>
<feBlend mode="normal" in2="effect3_dropShadow_6_1861" result="effect4_dropShadow_6_1861"/>
<feColorMatrix in="SourceAlpha" type="matrix" values="0 0 0 0 0 0 0 0 0 0 0 0 0 0 0 0 0 0 127 0" result="hardAlpha"/>
<feOffset dx="-98" dy="139"/>
<feGaussianBlur stdDeviation="24"/>
<feColorMatrix type="matrix" values="0 0 0 0 0.101961 0 0 0 0 0.0313726 0 0 0 0 0.168627 0 0 0 0.02 0"/>
<feBlend mode="normal" in2="effect4_dropShadow_6_1861" result="effect5_dropShadow_6_1861"/>
<feBlend mode="normal" in="SourceGraphic" in2="effect5_dropShadow_6_1861" result="shape"/>
</filter>
<radialGradient id="paint0_radial_6_1861" cx="0" cy="0" r="1" gradientUnits="userSpaceOnUse" gradientTransform="translate(250.302 7.0238) rotate(90) scale(217.031)">
<stop stop-color="#95CCEA"/>
<stop offset="1" stop-color="#104D7D"/>
</radialGradient>
</defs>
</svg>
