<svg width="153" height="157" viewBox="0 0 153 157" fill="none" xmlns="http://www.w3.org/2000/svg">
<path fill-rule="evenodd" clip-rule="evenodd" d="M16.1245 19.1919C16.2963 20.2059 16.3875 21.0701 16.5357 22.3493C17.6909 32.3333 21.6983 62.5927 21.4521 65.1963C21.1565 68.3163 17.5761 66.8 17.5761 66.8L17.548 66.8171C17.472 78.9851 17.2675 88.5534 17.2903 88.5791C14.9283 89.0967 12.5142 89.3211 10.1 89.2476C9.30807 89.2148 9.23283 85.2376 9.57939 79.1934L9.47071 79.1801C9.47071 79.1801 5.42371 82.1176 4.15983 79.0982C2.89595 76.0788 16.1245 19.1919 16.1245 19.1919Z" fill="white"/>
<path d="M16.8932 22.1474C16.835 21.1256 16.6972 20.1102 16.4813 19.1109C16.4696 19.0515 16.4442 18.9959 16.4072 18.9487C16.3702 18.9015 16.3228 18.8641 16.2688 18.8396C16.2149 18.8151 16.156 18.8042 16.0971 18.8078C16.0382 18.8115 15.981 18.8295 15.9303 18.8605C15.5237 19.1078 2.54289 76.2287 3.81133 79.2575C4.75525 81.5195 7.13025 81.0367 9.18377 79.7504C8.91473 84.9983 8.98313 88.63 9.59341 89.378C9.65182 89.4559 9.72592 89.5199 9.81066 89.5656C9.89539 89.6114 9.98876 89.6379 10.0844 89.6432C11.897 89.7212 17.3507 89.3374 17.6312 88.761C17.7117 88.5941 17.9169 67.7868 17.92 67.3313C19.9454 67.9334 21.628 67.3921 21.8317 65.2362C22.0863 62.5577 18.1738 32.0238 16.8932 22.1474ZM9.23317 78.7856C9.21265 78.802 7.04361 80.4017 5.57225 79.986C5.32743 79.9119 5.10328 79.7791 4.91828 79.5986C4.73329 79.4181 4.59275 79.195 4.50825 78.9478C3.71329 77.0485 9.66333 49.1682 14.7242 26.9725C13.0636 39.9205 10.0388 64.6044 9.23317 78.7856ZM16.9183 88.2883C14.6987 88.7143 12.4434 88.9139 10.1855 88.8842C8.30065 87.2104 12.6874 48.2096 16.1233 22.1092C17.9101 35.8598 16.9046 86.8149 16.9183 88.2883ZM21.0763 65.159C21.0776 65.4294 21.0146 65.6961 20.8927 65.9358C20.7709 66.1756 20.5939 66.3812 20.3771 66.5349C19.6011 67.0154 18.3935 66.6745 17.9261 66.5138C18.0165 51.6073 17.8691 41.0858 17.6015 33.6758C19.2067 46.4242 21.2503 63.2839 21.074 65.159H21.0763Z" fill="black"/>
<path d="M15.7454 29.7508C15.7172 30.1603 12.9235 70.9239 13.3324 85.5419C13.3352 85.6453 13.3779 85.7434 13.4512 85.8145C13.5244 85.8855 13.6222 85.9239 13.723 85.921C13.8238 85.9181 13.9193 85.8742 13.9886 85.799C14.0579 85.7238 14.0952 85.6235 14.0924 85.52C13.6842 70.9395 16.4757 30.218 16.5038 29.8054C16.511 29.7023 16.4779 29.6005 16.4119 29.5224C16.3459 29.4443 16.2524 29.3963 16.152 29.3889C16.0517 29.3832 15.9532 29.4178 15.8773 29.4854C15.8014 29.5529 15.7541 29.6481 15.7454 29.7508Z" fill="black"/>
<path fill-rule="evenodd" clip-rule="evenodd" d="M16.3596 15.5338C16.6134 12.0027 14.4041 10.4123 11.6582 10.4638C11.035 10.4413 10.4141 10.5513 9.83431 10.7868C9.25453 11.0223 8.72846 11.3783 8.28912 11.8324C7.84979 12.2865 7.50668 12.829 7.28133 13.4257C7.05598 14.0224 6.95327 14.6604 6.97963 15.2998C6.94695 18.1764 9.35843 22.3198 11.5351 22.7784C11.0726 23.569 10.7179 24.4209 10.481 25.3103C10.481 25.3103 12.5596 26.0607 13.2656 24.9117L12.2943 22.7784C14.9566 22.1685 16.1582 18.3722 16.3596 15.5338Z" fill="#FFD997"/>
<path d="M15.5612 11.5425C13.1064 8.88193 6.66385 9.63151 6.59849 15.2943C6.56733 18.0579 8.67633 22.0554 10.9768 23.0046C10.585 23.7053 10.2913 24.4592 10.1044 25.244C10.0895 25.3347 10.1063 25.428 10.1519 25.5072C10.1976 25.5864 10.269 25.6465 10.3536 25.6769C12.5576 26.4678 13.8664 25.3072 13.6102 24.7456L12.8236 23.0202C15.2161 22.1201 16.5119 18.706 16.7376 15.5626C16.829 14.8453 16.7713 14.1162 16.5686 13.4234C16.3658 12.7305 16.0225 12.0895 15.5612 11.5425ZM10.9335 25.0365C11.1452 24.3961 11.4165 23.7781 11.7437 23.191C11.8037 23.1957 11.8653 23.2105 11.9246 23.2105C11.9717 23.2105 12.0165 23.1981 12.0636 23.1949L12.8236 24.8587C12.3638 25.3041 11.4306 25.1559 10.9335 25.035V25.0365ZM12.2096 22.3986C11.8785 22.43 11.5448 22.3876 11.2311 22.2744C10.9175 22.1612 10.6314 21.9798 10.3924 21.7426C8.59718 20.0879 7.50754 17.7754 7.35849 15.3037C7.41473 10.399 12.987 9.88735 15.0094 12.0792C15.3999 12.5464 15.6885 13.094 15.8557 13.6851C16.023 14.2762 16.0651 14.8973 15.9792 15.5065C15.7162 19.167 14.2015 21.9368 12.2096 22.397V22.3986Z" fill="black"/>
<path fill-rule="evenodd" clip-rule="evenodd" d="M8.9891 12.8171C8.9891 12.8171 9.51426 11.9591 10.177 12.172C10.8397 12.385 9.85778 14.3295 9.25738 14.179C8.65698 14.0284 8.68586 13.2562 8.9891 12.8171Z" fill="white"/>
<path d="M9.32453 14.5775C9.26158 14.5858 9.19759 14.5785 9.13799 14.5561C9.0784 14.5336 9.02496 14.4968 8.98221 14.4486C8.93946 14.4005 8.90867 14.3424 8.89245 14.2794C8.87623 14.2165 8.87506 14.1504 8.88905 14.0868C8.91284 13.987 8.9741 13.9008 9.0595 13.847C9.14489 13.7933 9.24752 13.7763 9.34505 13.7998C9.53963 13.6503 9.69607 13.4546 9.80104 13.2296C9.94245 13.0135 10.0145 12.7574 10.007 12.4972C9.69692 12.4286 9.3078 13.0237 9.3078 13.0237C9.28244 13.0694 9.24835 13.1093 9.20757 13.1411C9.16679 13.1729 9.12017 13.1959 9.0705 13.2088C9.02084 13.2216 8.96916 13.224 8.91856 13.2158C8.86797 13.2077 8.8195 13.1891 8.77609 13.1612C8.73267 13.1333 8.69519 13.0967 8.6659 13.0536C8.63662 13.0105 8.61613 12.9617 8.60567 12.9103C8.59521 12.8588 8.59499 12.8057 8.60503 12.7542C8.61507 12.7026 8.63515 12.6537 8.66408 12.6103C9.45752 11.31 11.1196 11.5035 10.7085 13.0097C10.5253 13.6922 9.94393 14.5775 9.32453 14.5775Z" fill="black"/>
<path fill-rule="evenodd" clip-rule="evenodd" d="M136.939 15.7732C136.684 12.2429 138.894 10.6525 141.64 10.7032C142.263 10.6806 142.884 10.7905 143.464 11.026C144.043 11.2614 144.57 11.6174 145.009 12.0716C145.448 12.5257 145.791 13.0682 146.017 13.6649C146.242 14.2617 146.345 14.8998 146.318 15.5392C146.351 18.4159 143.939 22.5592 141.763 23.0186C142.226 23.8088 142.581 24.6604 142.818 25.5497C142.818 25.5497 140.738 26.3001 140.032 25.1512L141.003 23.0186C138.341 22.4079 137.143 18.6116 136.939 15.7732Z" fill="#FFD997"/>
<path d="M141.646 10.314C138.445 10.2539 136.304 12.2585 136.559 15.8021C136.787 18.9455 138.079 22.3595 140.473 23.2597L139.687 24.985C139.43 25.5497 140.751 26.701 142.943 25.921C143.028 25.8905 143.099 25.8302 143.145 25.7508C143.19 25.6714 143.207 25.5781 143.192 25.4873C143.005 24.7012 142.711 23.946 142.318 23.2441C144.637 22.2901 146.726 18.2739 146.696 15.5338C146.721 14.8444 146.608 14.1571 146.364 13.5145C146.119 12.8719 145.749 12.2877 145.275 11.7982C144.802 11.3087 144.235 10.9244 143.611 10.6691C142.986 10.4137 142.318 10.2929 141.646 10.314ZM142.362 25.2744C141.866 25.3953 140.934 25.5443 140.475 25.0966L141.235 23.4336C141.282 23.4336 141.495 23.4336 141.555 23.4289C141.882 24.0159 142.152 24.634 142.362 25.2744ZM141.087 22.6372C139.095 22.1762 137.581 19.4065 137.318 15.7451C137.099 12.7156 138.814 11.0932 141.51 11.0932C142.094 11.0517 142.68 11.1375 143.229 11.3449C143.778 11.5523 144.278 11.8766 144.696 12.2966C145.114 12.7166 145.441 13.2226 145.655 13.7815C145.869 14.3404 145.965 14.9394 145.937 15.5392C145.973 18.5836 143.082 23.1021 141.087 22.6372Z" fill="black"/>
<path fill-rule="evenodd" clip-rule="evenodd" d="M136.402 19.0883C136.25 19.9798 136.151 21.1475 136.012 22.3494C134.86 32.3334 130.85 62.5928 131.096 65.1964C131.391 68.3164 134.972 66.8001 134.972 66.8001L135 66.8172C135.076 78.9852 135.28 88.5535 135.257 88.5792C137.619 89.0963 140.033 89.3207 142.447 89.2477C143.24 89.2149 143.315 85.2377 142.969 79.1935L143.077 79.1802C143.077 79.1802 147.123 82.1177 148.387 79.0983C149.651 76.0789 136.402 19.0883 136.402 19.0883Z" fill="white"/>
<path fill-rule="evenodd" clip-rule="evenodd" d="M16.1245 19.1919C16.1245 19.1919 47.0193 37.0149 78.9811 37.7068C111.751 38.4166 136.465 19.0391 136.465 19.0391C136.465 19.0391 125.079 59.8549 79.7479 59.202C33.3294 58.5344 16.1245 19.1919 16.1245 19.1919Z" fill="white"/>
<path d="M136.726 18.9571C136.688 18.9076 136.639 18.8681 136.583 18.8421C136.526 18.816 136.465 18.8041 136.404 18.8074C136.342 18.8107 136.282 18.8291 136.229 18.8609C136.176 18.8928 136.131 18.9373 136.098 18.9907C135.992 19.1732 130.429 62.1816 130.717 65.2337C130.921 67.3889 132.603 67.931 134.629 67.3288C134.638 68.6221 134.841 88.6002 134.918 88.7585C135.179 89.296 140.336 89.7296 142.465 89.6407C142.56 89.6354 142.654 89.6089 142.738 89.5632C142.823 89.5174 142.897 89.4534 142.956 89.3755C143.564 88.6275 143.634 84.9958 143.365 79.748C145.417 81.0334 147.795 81.5123 148.738 79.255C150.015 76.2044 136.998 19.3448 136.726 18.9571ZM132.174 66.5371C131.957 66.3834 131.78 66.1778 131.658 65.938C131.536 65.6983 131.473 65.4316 131.474 65.1612C131.297 63.2892 133.342 46.4264 134.949 33.6757C134.682 41.0857 134.534 51.6095 134.625 66.5137C134.157 66.6744 132.95 67.0153 132.174 66.5348V66.5371ZM142.434 88.8638C140.153 88.9116 137.874 88.7195 135.632 88.2905C135.649 86.2056 134.863 50.6212 135.86 29.9957C136.088 32.5205 138.648 61.5311 138.255 75.5368C138.252 75.6402 138.29 75.7405 138.359 75.8157C138.428 75.8909 138.524 75.9348 138.624 75.9377C138.725 75.9406 138.823 75.9023 138.896 75.8312C138.97 75.7601 139.012 75.662 139.015 75.5586C139.425 60.9359 136.629 30.0542 136.601 29.7437C136.592 29.6592 136.555 29.5802 136.497 29.5189C136.44 29.4577 136.364 29.4175 136.282 29.4045C136.2 29.3915 136.116 29.4064 136.043 29.4469C135.97 29.4875 135.912 29.5515 135.878 29.6291C135.97 27.7961 136.211 23.7565 136.426 22.1114C139.863 48.2095 144.252 87.2095 142.434 88.8615V88.8638ZM148.04 78.95C147.956 79.1972 147.815 79.4203 147.63 79.6008C147.445 79.7813 147.221 79.9141 146.976 79.9882C145.505 80.4047 143.336 78.8042 143.315 78.7878C142.51 64.6066 139.485 39.9188 137.824 26.9763C142.885 49.1681 148.835 77.0484 148.04 78.9477V78.95Z" fill="black"/>
<path d="M136.238 18.7294C135.991 18.9229 111.248 38.0173 78.9925 37.3168C47.4935 36.6351 16.6193 19.0297 16.31 18.8519C16.2309 18.8116 16.1412 18.799 16.0546 18.816C15.9999 18.8271 15.9482 18.8505 15.9032 18.8845C15.8583 18.9184 15.8212 18.9621 15.7946 19.0125C15.768 19.0628 15.7525 19.1185 15.7492 19.1757C15.7459 19.2329 15.755 19.2901 15.7757 19.3433V19.3519C15.819 19.4509 20.224 29.371 30.2643 39.2278C39.5318 48.3265 55.6384 59.2457 79.7403 59.592C99.0869 59.8611 114.594 52.4589 125.392 39.6202C130.468 33.6258 134.354 26.6709 136.831 19.1467C136.852 19.0684 136.849 18.9853 136.822 18.9089C136.794 18.8326 136.745 18.7668 136.68 18.7208C136.614 18.6749 136.537 18.651 136.457 18.6525C136.378 18.6541 136.302 18.6809 136.238 18.7294ZM124.798 39.135C114.212 51.7078 98.9463 59.0827 79.7525 58.812C55.9128 58.4688 39.9817 47.6783 30.8153 38.6881C25.5376 33.5297 21.0443 27.5875 17.4857 21.0601C22.4257 25.6839 38.3256 39.0781 60.8817 43.5631C60.9785 43.5777 61.0772 43.5535 61.157 43.4953C61.2369 43.4372 61.2918 43.3497 61.3103 43.251C61.3288 43.1523 61.3095 43.0502 61.2564 42.9657C61.2033 42.8813 61.1205 42.8212 61.0253 42.7979C39.2384 38.465 23.7177 25.7494 18.4091 20.8658C26.3754 25.0256 52.4419 37.5227 78.9735 38.0968C107.918 38.7161 130.865 23.5405 135.739 20.0539C133.24 27.0379 129.533 33.5018 124.798 39.135Z" fill="black"/>
<path d="M67.677 50.2064C41.2457 48.1105 23.2306 28.6994 23.0513 28.5037C23.0156 28.4666 22.9875 28.4226 22.9686 28.3743C22.9498 28.3259 22.9405 28.2742 22.9415 28.2221C22.9424 28.17 22.9535 28.1187 22.9741 28.0711C22.9947 28.0235 23.0244 27.9806 23.0614 27.9449C23.0984 27.9093 23.142 27.8816 23.1896 27.8636C23.2372 27.8455 23.2878 27.8374 23.3385 27.8398C23.3892 27.8421 23.439 27.8548 23.4848 27.8772C23.5306 27.8996 23.5716 27.9312 23.6053 27.9701C23.7832 28.1636 41.6067 47.3563 67.7355 49.4287C67.8354 49.4374 67.9279 49.4863 67.9928 49.5648C68.0577 49.6432 68.0898 49.7447 68.0821 49.8473C68.0744 49.9499 68.0275 50.0452 67.9516 50.1125C67.8757 50.1797 67.777 50.2135 67.677 50.2064Z" fill="black"/>
<path d="M90.7202 52.0385C115.932 49.4981 127.839 32.1813 131.51 25.5544C119.33 37.99 94.3971 43.5084 94.1341 43.5623C94.0355 43.5837 93.9325 43.564 93.848 43.5075C93.7635 43.4511 93.7043 43.3625 93.6834 43.2612C93.6626 43.1599 93.6818 43.0543 93.7368 42.9676C93.7918 42.8808 93.8781 42.8201 93.9768 42.7986C94.2542 42.7386 121.806 36.6429 132.858 22.8876C132.916 22.8151 132.997 22.7665 133.087 22.7506C133.177 22.7348 133.27 22.7527 133.348 22.8012C133.426 22.8497 133.485 22.9255 133.513 23.0148C133.541 23.104 133.537 23.2006 133.501 23.287C133.393 23.549 122.367 49.6338 90.7954 52.8146C90.6959 52.8234 90.597 52.7917 90.5201 52.7262C90.4432 52.6607 90.3946 52.5667 90.3847 52.4647C90.3748 52.3626 90.4045 52.2607 90.4672 52.181C90.53 52.1012 90.6209 52.05 90.7202 52.0385Z" fill="black"/>
<path fill-rule="evenodd" clip-rule="evenodd" d="M131.082 22.0483C130.828 18.5181 133.037 16.9276 135.783 16.9783C136.406 16.9558 137.027 17.0658 137.607 17.3013C138.187 17.5368 138.713 17.8928 139.152 18.3469C139.592 18.8011 139.935 19.3435 140.16 19.9402C140.385 20.5369 140.488 21.175 140.462 21.8143C140.494 24.6902 138.083 28.8343 135.906 29.293C136.37 30.0829 136.724 30.9346 136.961 31.8241C136.961 31.8241 134.882 32.5744 134.176 31.4263L135.147 29.293C132.473 28.6596 131.286 24.8875 131.082 22.0483Z" fill="#FFD997"/>
<path fill-rule="evenodd" clip-rule="evenodd" d="M22.2116 22.0484C22.4655 18.5181 20.2554 16.9277 17.5103 16.9784C16.8871 16.9557 16.2661 17.0656 15.6863 17.3011C15.1064 17.5366 14.5803 17.8926 14.141 18.3467C13.7016 18.8009 13.3585 19.3433 13.1332 19.9401C12.9079 20.5368 12.8052 21.175 12.8317 21.8144C12.799 24.6902 15.2105 28.8344 17.3872 29.293C16.9239 30.083 16.569 30.9347 16.3323 31.8241C16.3323 31.8241 18.4116 32.5745 19.1177 31.4263L18.1464 29.293C20.8208 28.6596 22.0102 24.8876 22.2116 22.0484Z" fill="#FFD997"/>
<path d="M135.791 16.5898C132.495 16.5461 130.455 18.6108 130.704 22.0771C130.932 25.2213 132.224 28.6346 134.618 29.5347L133.831 31.2624C133.566 31.8435 134.914 32.9784 137.089 32.1937C137.173 32.1632 137.245 32.1029 137.29 32.0235C137.336 31.9441 137.352 31.8508 137.337 31.76C137.15 30.9755 136.857 30.2219 136.465 29.5214C138.793 28.5605 140.873 24.5404 140.843 21.8104C140.869 21.1208 140.755 20.4332 140.511 19.7904C140.266 19.1476 139.896 18.5632 139.422 18.0737C138.948 17.5841 138.381 17.1997 137.757 16.9444C137.132 16.6892 136.463 16.5685 135.791 16.5898ZM136.508 31.5494C136.012 31.6703 135.078 31.8193 134.62 31.3716L135.38 29.7086C135.427 29.7086 135.471 29.7242 135.519 29.7242C135.578 29.7242 135.639 29.7086 135.699 29.704C136.026 30.291 136.297 30.909 136.508 31.5494ZM135.232 28.9123C133.24 28.4513 131.725 25.6815 131.462 22.0194C131.244 18.993 132.956 17.3683 135.655 17.3683C136.239 17.3267 136.825 17.4125 137.375 17.6202C137.924 17.8278 138.425 18.1525 138.843 18.5729C139.261 18.9933 139.588 19.4998 139.802 20.0592C140.015 20.6185 140.111 21.218 140.083 21.8182C140.118 24.9163 137.194 29.3662 135.232 28.9123Z" fill="black"/>
<path d="M21.4127 18.0578C18.967 15.4058 12.5162 16.1219 12.45 21.8089C12.4189 24.5716 14.5264 28.5707 16.8284 29.5199C16.437 30.2205 16.1435 30.9741 15.9567 31.7585C15.9416 31.8493 15.9582 31.9426 16.0037 32.022C16.0492 32.1014 16.1206 32.1617 16.2052 32.1922C18.4092 32.9831 19.7179 31.8217 19.4618 31.2609L18.6752 29.5347C21.0684 28.6346 22.3635 25.2214 22.5892 22.0772C22.6807 21.3599 22.6232 20.631 22.4204 19.9382C22.2176 19.2454 21.8742 18.6046 21.4127 18.0578ZM16.7858 31.5518C16.997 30.9099 17.2683 30.2906 17.596 29.7024C17.656 29.7071 17.7168 29.7227 17.7761 29.7227C17.8232 29.7227 17.8681 29.7103 17.9152 29.7071L18.6752 31.3701C18.2154 31.8194 17.2829 31.6712 16.7858 31.5495V31.5518ZM18.0581 28.9123C17.7269 28.9435 17.393 28.901 17.0793 28.7876C16.7655 28.6743 16.4793 28.4928 16.2402 28.2556C14.445 26.6016 13.3555 24.2894 13.207 21.8182C13.264 16.9144 18.831 16.4027 20.8579 18.5937C21.2482 19.0609 21.5367 19.6083 21.7039 20.1993C21.8712 20.7903 21.9134 21.4111 21.8277 22.0202C21.5685 25.6816 20.0531 28.4545 18.0581 28.9123Z" fill="black"/>
<path fill-rule="evenodd" clip-rule="evenodd" d="M144.308 13.0565C144.308 13.0565 143.783 12.1985 143.12 12.4114C142.457 12.6243 143.44 14.5689 144.039 14.4183C144.639 14.2678 144.611 13.4956 144.308 13.0565Z" fill="white"/>
<path d="M143.973 14.817C142.985 14.817 141.861 12.4114 143.005 12.0394C143.325 11.9772 143.656 12.0224 143.949 12.1684C144.241 12.3144 144.48 12.5533 144.63 12.8498C144.684 12.9374 144.701 13.0433 144.679 13.1442C144.657 13.245 144.596 13.3326 144.511 13.3876C144.425 13.4426 144.322 13.4606 144.224 13.4376C144.126 13.4145 144.04 13.3524 143.987 13.2648C143.981 13.2554 143.59 12.6696 143.236 12.7827C143.298 13.0209 143.384 13.2515 143.494 13.4707C143.594 13.707 143.764 13.9053 143.979 14.0377C144.5 13.9075 144.659 14.817 143.973 14.817Z" fill="black"/>
<path fill-rule="evenodd" clip-rule="evenodd" d="M138.453 19.3323C138.453 19.3323 137.928 18.4743 137.265 18.6864C136.602 18.8986 137.584 20.8439 138.185 20.6942C138.785 20.5444 138.453 19.3323 138.453 19.3323Z" fill="white"/>
<path fill-rule="evenodd" clip-rule="evenodd" d="M14.8411 19.3323C14.8411 19.3323 15.3662 18.4743 16.0282 18.6864C16.6901 18.8986 15.709 20.8439 15.1086 20.6942C14.5082 20.5444 14.8411 19.3323 14.8411 19.3323Z" fill="white"/>
<path d="M138.118 21.0928C137.13 21.0928 136.012 18.685 137.15 18.3145C137.47 18.2536 137.8 18.2996 138.092 18.4456C138.385 18.5916 138.624 18.83 138.774 19.1257C138.824 19.2131 138.838 19.3167 138.815 19.4148C138.791 19.5129 138.731 19.5978 138.648 19.6516C138.565 19.7054 138.464 19.7239 138.368 19.7032C138.271 19.6825 138.187 19.6242 138.131 19.5406C138.131 19.5406 137.739 18.9439 137.379 19.0586C137.443 19.2953 137.53 19.5249 137.637 19.7442C137.738 19.9811 137.908 20.1799 138.124 20.3128C138.643 20.1865 138.808 21.0928 138.118 21.0928Z" fill="black"/>
<path d="M15.1756 21.0928C15.1202 21.1004 15.0638 21.0955 15.0104 21.0785C14.9571 21.0615 14.9079 21.0327 14.8664 20.9943C14.8249 20.9558 14.7921 20.9086 14.7702 20.8558C14.7483 20.803 14.7378 20.7459 14.7396 20.6886C14.7413 20.6312 14.7552 20.5749 14.7802 20.5236C14.8053 20.4724 14.8409 20.4273 14.8846 20.3915C14.9284 20.3558 14.9791 20.3302 15.0335 20.3166C15.0878 20.303 15.1443 20.3017 15.1992 20.3128C15.3938 20.163 15.5503 19.9671 15.6552 19.7419C15.7967 19.5261 15.869 19.2703 15.8619 19.0102C15.5579 18.9416 15.1627 19.5367 15.1627 19.5367C15.1093 19.6244 15.0241 19.6868 14.9259 19.71C14.8277 19.7333 14.7245 19.7156 14.6391 19.6607C14.5536 19.6059 14.4928 19.5185 14.4702 19.4177C14.4475 19.3169 14.4648 19.211 14.5182 19.1233C15.3101 17.8246 16.9745 18.0142 16.5634 19.5219C16.3772 20.2075 15.7958 21.092 15.1756 21.0928Z" fill="black"/>
<path fill-rule="evenodd" clip-rule="evenodd" d="M33.0423 73.7381L34.5965 69.3491C34.5965 69.3491 38.7575 71.3443 40.2205 69.9434C41.6835 68.5426 40.8566 67.5122 41.8499 66.7602C42.8432 66.0083 42.5187 65.5357 42.0353 64.8399C42.0353 64.8399 42.9975 64.3906 42.9207 63.8087C42.8096 63.3928 42.551 63.0345 42.1957 62.8041C42.503 62.5549 42.8297 62.3319 43.1723 62.1372C43.3085 62.0854 43.4326 62.0049 43.5366 61.9009C43.6407 61.7969 43.7223 61.6717 43.7764 61.5333C43.8304 61.395 43.8556 61.2466 43.8504 61.0976C43.8452 60.9486 43.8097 60.8025 43.7461 60.6685C43.3919 60.0694 41.4615 58.0094 41.7602 57.3144C42.2957 56.4822 42.6132 55.5224 42.6821 54.5275C42.6821 53.1851 41.9981 50.0683 40.8908 48.6884C40.8908 48.6884 34.5972 46.8453 29.449 51.4964C24.3007 56.1476 25.022 63.5864 25.022 63.5864L23.4678 66.0824L33.0423 73.7381Z" fill="#FFD997"/>
<path d="M38.6701 56.1654C39.1045 55.731 39.643 55.4221 40.2312 55.2701C40.8194 55.118 41.4363 55.1282 42.0194 55.2996C42.0673 55.3141 42.112 55.3381 42.1508 55.3702C42.1897 55.4024 42.222 55.4421 42.246 55.4871C42.2699 55.532 42.2849 55.5814 42.2903 55.6324C42.2956 55.6833 42.2911 55.7349 42.277 55.784C42.263 55.8332 42.2396 55.879 42.2082 55.9189C42.1769 55.9588 42.1382 55.992 42.0944 56.0165C42.0506 56.0411 42.0025 56.0566 41.9528 56.062C41.9032 56.0675 41.853 56.0629 41.8051 56.0484C41.3559 55.9168 40.881 55.9082 40.4276 56.0235C39.9743 56.1389 39.5582 56.3742 39.2211 56.706C39.1512 56.781 39.0552 56.8244 38.9542 56.8268C38.8531 56.8291 38.7553 56.7901 38.6822 56.7185C38.6092 56.6468 38.5668 56.5482 38.5646 56.4445C38.5623 56.3408 38.6002 56.2404 38.6701 56.1654Z" fill="black"/>
<path fill-rule="evenodd" clip-rule="evenodd" d="M40.8937 57.9548C41.0457 58.3027 40.475 59.0991 40.475 59.0991C38.974 58.8456 38.9443 58.5141 38.9443 58.5141C39.5178 58.1155 40.202 57.9192 40.8937 57.9548Z" fill="white"/>
<path d="M41.2383 58.1023C41.254 58.0725 41.265 58.0404 41.2709 58.0071C41.2777 57.9564 41.2746 57.9048 41.2619 57.8552C41.2492 57.8057 41.2271 57.7592 41.1969 57.7184C41.1667 57.6776 41.129 57.6434 41.0859 57.6176C41.0428 57.5917 40.9951 57.5749 40.9457 57.568C40.1594 57.5171 39.379 57.7367 38.728 58.192C38.6452 58.2511 38.5887 58.3414 38.5709 58.4433C38.5531 58.5451 38.5754 58.65 38.633 58.7349C38.6905 58.8198 38.7786 58.8778 38.8778 58.8961C38.977 58.9144 39.0792 58.8914 39.1619 58.8324C39.3875 58.6844 39.6287 58.5633 39.8809 58.4712C39.8589 58.9673 40.1378 59.3472 40.5163 59.3472C41.0574 59.3495 41.3758 58.6467 41.2383 58.1023Z" fill="black"/>
<path fill-rule="evenodd" clip-rule="evenodd" d="M33.5037 76.802C33.3613 75.8677 33.2912 74.9233 33.294 73.9776C33.294 73.9776 25.4394 67.4108 23.4702 66.1035C21.5011 64.7963 33.5037 76.802 33.5037 76.802Z" fill="white"/>
<path fill-rule="evenodd" clip-rule="evenodd" d="M66.1038 110.533C65.9685 110.492 65.8317 110.455 65.6949 110.416C64.9972 110.133 62.7188 118.163 62.7188 118.163C63.4254 119.011 64.2893 119.706 65.2602 120.208C66.3407 120.739 67.3478 121.415 68.2553 122.217C69.01 122.806 70.4054 123.256 70.815 122.347C70.815 122.347 72.2947 122.565 72.943 121.654C73.3165 121.685 73.692 121.632 74.0429 121.497C74.3938 121.362 74.7113 121.15 74.973 120.874L75.1622 121.16C75.9709 121.577 77.994 120.53 77.994 120.53L76.5454 113.401C76.5454 113.401 75.9762 111.217 73.0814 110.331C70.7512 109.62 67.278 109.709 66.1038 110.533ZM68.8398 111.591C68.8026 111.598 68.8261 111.591 68.7691 111.605C68.9241 111.68 68.9021 111.687 68.8405 111.591H68.8398Z" fill="#FFD997"/>
<path fill-rule="evenodd" clip-rule="evenodd" d="M37.5191 142.117L13.8428 141.42C14.0926 142.937 14.4515 144.433 14.9167 145.896H37.0585L37.5191 142.117Z" fill="white"/>
<path fill-rule="evenodd" clip-rule="evenodd" d="M32.8155 76.3691C32.8155 76.3691 25.6 67.7665 23.4705 66.1035C23.4705 66.1035 22.1641 66.5887 19.8985 70.4622C17.633 74.3356 13.947 80.3682 14.7396 89.2742C15.5323 98.1802 17.2476 104.182 16.423 108.185C15.5984 112.187 12.148 132.35 12.0758 137.42C12.0036 142.49 15.394 141.71 17.6482 141.795C19.9023 141.879 40.7788 144.057 41.7037 140.135C42.6286 136.213 42.2501 119.635 41.7037 116.452C41.7037 116.452 54.7172 120.148 61.6225 121.001C61.6225 121.001 64.6443 112.296 65.5684 109.946C65.5684 109.946 44.6593 100.295 41.4042 98.812C41.4042 98.8152 39.204 81.3385 32.8155 76.3691Z" fill="#81F8F8"/>
<path d="M21.544 133.91C22.0692 129.304 23.0853 123.224 23.0944 123.161C23.1111 123.062 23.1647 122.972 23.2441 122.913C23.3235 122.853 23.4224 122.827 23.52 122.841C23.596 122.85 30.9422 123.834 36.57 122.64C36.6268 122.628 36.6855 122.63 36.7417 122.645C36.7979 122.66 36.8499 122.687 36.894 122.726C36.938 122.765 36.9728 122.814 36.9956 122.868C37.0185 122.923 37.0289 122.982 37.026 123.042C37.0047 123.48 36.4674 133.806 33.7451 136.113C30.8715 138.545 20.9634 139.017 21.544 133.91ZM23.7837 123.659C23.5557 125.04 22.7471 130.064 22.2995 134.001C21.8328 138.077 30.7355 137.651 33.2609 135.512C35.1997 133.868 36.0357 126.709 36.2394 123.5C31.2963 124.427 25.3068 123.832 23.7837 123.655V123.659Z" fill="black"/>
<path d="M65.9203 110.095C65.9572 110.001 65.9574 109.897 65.9206 109.803C65.8839 109.709 65.8132 109.634 65.7235 109.592C65.5183 109.498 45.5295 100.272 41.7515 98.5468C41.4779 96.5188 39.3788 82.2604 33.8764 76.802C33.8776 76.7836 33.8776 76.7651 33.8764 76.7466C33.4683 73.8739 33.8247 73.9215 33.5306 73.6758C33.4789 73.6329 34.337 71.2141 34.8112 69.8748C35.9512 70.3678 39.0953 71.5495 40.4732 70.2282C41.9849 68.7766 41.291 67.6627 42.0692 67.0738C43.1499 66.2564 42.9508 65.5739 42.5754 64.9678C42.7697 64.8791 42.9379 64.7396 43.0633 64.5633C43.1887 64.387 43.2668 64.18 43.2899 63.963C43.313 63.746 43.2802 63.5266 43.1948 63.3267C43.1094 63.1267 42.9745 62.9533 42.8034 62.8236C43.3399 62.4453 44.008 62.2121 44.2117 61.4454C44.4039 60.7262 43.9479 60.2652 43.4836 59.6724C43.0853 59.1654 42.0267 57.8176 42.1065 57.4674C42.6687 56.5897 42.998 55.5766 43.0618 54.5283C43.0618 53.0533 42.3329 49.9263 41.2195 48.4935C40.246 46.9237 38.8623 45.6664 37.2261 44.8648C35.5899 44.0633 33.7672 43.7498 31.9658 43.9601C24.8157 44.6574 21.0575 48.4513 21.8023 55.6375C22.4658 61.9945 23.8338 63.3361 24.5117 63.7682L23.1908 65.8095C22.7645 66.0435 21.5013 66.9623 19.5702 70.2617C16.0833 76.2178 13.6635 81.5023 14.3581 89.3101C15.1424 98.1241 16.8547 104.208 16.0483 108.103C15.1652 112.372 11.768 132.311 11.6951 137.418C11.6707 139.151 12.0051 140.857 13.5008 141.673C13.744 143.153 14.1026 144.611 14.5732 146.032C14.6023 146.102 14.6496 146.163 14.71 146.208C14.7704 146.253 14.8416 146.28 14.9159 146.286H37.0578C37.1479 146.293 37.2373 146.265 37.3079 146.207C37.3785 146.149 37.4249 146.066 37.4378 145.974L37.8649 142.448C40.23 142.058 41.807 141.368 42.0768 140.227C42.1095 140.087 42.1407 139.927 42.1703 139.759C47.732 139.936 44.4731 122.833 43.2541 117.287C46.9857 118.301 56.1832 120.725 61.5807 121.391C61.6661 121.402 61.7525 121.382 61.8257 121.336C61.8989 121.289 61.9545 121.219 61.9835 121.136C62.0101 121.048 65.0098 112.411 65.9203 110.095ZM41.6938 66.3859C41.599 65.9459 41.4056 65.5347 41.1291 65.1847C41.3729 65.2408 41.6212 65.2739 41.8709 65.2837C42.1999 65.7736 42.2258 65.967 41.6938 66.3859ZM25.2018 64.113C25.4767 64.1729 25.76 64.1809 26.0378 64.1364C28.0085 63.8641 29.1082 62.1427 29.8735 60.2785C30.2672 62.4859 31.4809 64.0607 33.6568 64.1621C33.7576 64.168 33.8565 64.1326 33.9318 64.0636C34.0071 63.9946 34.0527 63.8978 34.0584 63.7943C34.0642 63.6909 34.0297 63.5894 33.9625 63.5121C33.8952 63.4347 33.8009 63.388 33.7001 63.3821C33.3008 63.3743 32.9073 63.2828 32.5437 63.1133C32.1801 62.9437 31.8541 62.6997 31.5858 62.3962C30.4747 61.1123 30.4891 58.9751 30.5013 58.6007C30.7361 58.0102 30.9291 57.7318 31.3327 57.6273C32.1201 57.419 32.6764 60.0811 33.5131 60.4875C33.8545 60.6021 34.2154 60.6428 34.5728 60.6071C34.9303 60.5713 35.2767 60.46 35.5902 60.28C35.6403 60.2529 35.6839 60.2145 35.7177 60.1678C35.7515 60.1211 35.7747 60.0673 35.7855 60.0102C36.0234 58.7497 36.8815 55.2522 37.9675 54.2155C38.0202 54.1649 38.0577 54.1 38.0757 54.0283C38.0938 53.9566 38.0915 53.8812 38.0693 53.8107C37.6308 52.4067 37.1938 50.1853 37.6133 49.6767C37.6209 49.6674 38.4577 48.7883 40.6845 49.0605C41.6558 50.7173 42.2115 52.5954 42.3018 54.5268C42.2837 55.2644 42.07 55.9831 41.6839 56.6055C41.177 57.5571 41.0235 57.7817 42.8923 60.1615C43.3635 60.7613 43.555 60.9571 43.4798 61.2402C43.3513 61.7191 42.8908 61.7558 42.032 62.4352C41.9844 62.453 41.9336 62.4597 41.8832 62.4547C41.8329 62.4497 41.7842 62.4332 41.7409 62.4063C41.5585 62.23 41.5669 61.6053 41.6429 61.2215C41.6528 61.1713 41.6531 61.1195 41.6436 61.0692C41.634 61.0188 41.615 60.9709 41.5874 60.9281C41.5599 60.8854 41.5244 60.8486 41.4829 60.8199C41.4415 60.7912 41.395 60.7712 41.3461 60.7609C41.2971 60.7507 41.2467 60.7504 41.1976 60.7602C41.1486 60.77 41.1019 60.7895 41.0602 60.8178C41.0185 60.8461 40.9827 60.8825 40.9548 60.925C40.9268 60.9675 40.9073 61.0153 40.8973 61.0655C40.6951 62.0795 40.8973 63.237 41.8975 63.237C42.1209 63.237 42.0183 63.1395 42.2068 63.3213C41.5836 63.7113 40.4656 64.2323 39.6988 63.8563C39.6535 63.8306 39.6036 63.8146 39.552 63.8094C39.5005 63.8042 39.4485 63.8098 39.3992 63.826C39.3499 63.8421 39.3043 63.8685 39.2653 63.9033C39.2262 63.9382 39.1945 63.9809 39.1721 64.0288C39.1497 64.0767 39.1371 64.1287 39.135 64.1818C39.1329 64.2349 39.1414 64.2879 39.16 64.3375C39.1786 64.387 39.2068 64.4322 39.243 64.4702C39.2792 64.5082 39.3226 64.5382 39.3705 64.5583C40.0176 64.9895 40.5403 65.5906 40.8844 66.2993C40.9966 66.8288 40.9854 67.378 40.8517 67.9022C40.775 68.5817 40.4538 69.2073 39.9511 69.6564C38.9099 70.6579 35.8433 69.5176 34.7512 68.995C34.7037 68.9724 34.6522 68.9601 34.5999 68.9589C34.5476 68.9577 34.4956 68.9676 34.4472 68.988C34.2313 69.0792 34.3453 68.9045 32.855 73.1118C31.015 71.5815 25.9238 67.3687 23.982 65.9904L25.2018 64.113ZM33.0207 76.0173C32.5555 75.4627 30.0567 72.5073 27.6771 69.8553C29.948 71.6946 32.2895 73.643 32.9013 74.1523C32.9017 74.776 32.9415 75.399 33.0207 76.0173ZM23.4317 66.5707C25.8175 68.898 28.0841 71.3508 30.2223 73.9191C27.0601 72.4306 23.7725 71.2406 20.4001 70.3639C21.9756 67.7392 23.0403 66.8383 23.4317 66.5707ZM36.7211 145.507H15.1698C14.822 144.355 14.5428 143.183 14.3338 141.997C15.4232 142.179 16.5283 142.242 17.6307 142.186C19.3787 142.253 30.6365 143.385 37.0783 142.561L36.7211 145.507ZM61.3671 120.579C55.2111 119.766 44.4792 116.826 42.2265 116.198C38.6936 115.175 35.312 113.666 32.174 111.711C26.2977 108.242 23.8703 90.0854 23.8459 89.9021C23.84 89.8508 23.8242 89.8011 23.7993 89.7561C23.7745 89.7111 23.7413 89.6716 23.7014 89.6399C23.6616 89.6082 23.6161 89.585 23.5674 89.5715C23.5188 89.5581 23.468 89.5547 23.418 89.5616C23.3681 89.5685 23.32 89.5855 23.2765 89.6116C23.233 89.6377 23.1951 89.6725 23.1648 89.7138C23.1345 89.7552 23.1126 89.8023 23.1002 89.8524C23.0878 89.9025 23.0853 89.9547 23.0928 90.0058C23.1916 90.7687 25.5955 108.726 31.7955 112.387C34.7905 114.262 38.0072 115.736 41.367 116.773C41.9149 120.63 42.187 136.435 41.3335 140.047C40.5059 143.562 18.8269 141.385 16.7278 141.406C15.4548 141.42 14.1438 141.435 13.3222 140.592C12.7142 139.968 12.4338 138.935 12.4551 137.431C12.5257 132.471 15.9389 112.385 16.7916 108.266C17.3236 105.692 16.8319 102.317 16.2095 98.0437C14.4698 86.0934 13.9013 81.4453 19.9867 71.0651C23.9731 72.0752 27.8379 73.5368 31.5098 75.423C31.7826 75.7428 32.0023 76.0025 32.1733 76.203C29.6706 75.5688 24.5793 75.047 21.5758 80.0577C21.5259 80.1457 21.5116 80.2503 21.5358 80.349C21.5601 80.4478 21.621 80.5329 21.7055 80.5862C21.7901 80.6394 21.8916 80.6566 21.9883 80.6341C22.0851 80.6116 22.1694 80.5512 22.2233 80.4657C24.2753 77.0438 27.7463 75.5353 33.3877 77.4034C37.7881 81.8205 39.9853 92.5182 40.7271 96.919C39.4921 95.2303 37.4872 92.6493 37.3869 92.5198C37.324 92.4389 37.2323 92.387 37.1321 92.3754C37.032 92.3639 36.9314 92.3936 36.8526 92.4582C36.7738 92.5227 36.7232 92.6167 36.7119 92.7196C36.7006 92.8224 36.7296 92.9256 36.7925 93.0065C36.8199 93.0416 39.3537 96.3036 40.4953 97.9065C38.4486 96.9408 35.04 95.6445 34.8652 95.5813C34.8183 95.5636 34.7685 95.5555 34.7186 95.5575C34.6687 95.5595 34.6197 95.5717 34.5744 95.5931C34.4828 95.6365 34.4117 95.7154 34.3769 95.8125C34.342 95.9097 34.3462 96.017 34.3884 96.111C34.4307 96.205 34.5076 96.2779 34.6022 96.3137C39.4769 98.1623 58.6593 107.188 65.0782 110.149C64.1518 112.588 61.8771 119.112 61.3671 120.579V120.579Z" fill="black"/>
<path fill-rule="evenodd" clip-rule="evenodd" d="M61.5417 105.71C61.5417 105.71 62.8048 105.64 62.719 102.326L61.6831 101.562L59.888 101.93C59.888 101.93 59.5429 105.924 61.5417 105.71Z" fill="white"/>
<path fill-rule="evenodd" clip-rule="evenodd" d="M66.752 100.429L67.1631 96.2794C75.1964 95.8476 83.246 95.839 91.2802 96.2536L87.7888 100.429H66.752Z" fill="white"/>
<path fill-rule="evenodd" clip-rule="evenodd" d="M67.1597 93.5673C70.0553 93.2217 71.4264 93.4222 72.5603 94.1406C73.6942 94.8589 74.6282 96.9181 73.5931 96.8074C72.807 96.6266 72.0841 96.2281 71.5031 95.6553C70.1762 96.1303 71.0646 95.9564 67.0792 96.3573L66.9705 97.4704C67.4783 97.5175 67.9542 97.7448 68.3164 98.1131C68.3164 98.1131 68.3225 97.1131 69.1904 97.3596C69.9493 97.6907 70.6432 98.1609 71.2379 98.7472C72.1005 97.3175 75.1473 99.4789 75.4224 101.423L75.7378 101.388C75.7136 101.156 75.7567 100.922 75.8615 100.716C75.9664 100.509 76.1285 100.339 76.3273 100.227C76.5261 100.115 76.7527 100.066 76.9788 100.086C77.2048 100.105 77.4201 100.193 77.5976 100.338C78.0292 100.777 77.9707 101.466 77.2647 102.115C76.5586 102.765 75.1625 102.278 75.1625 102.278C74.4291 103.448 72.6431 102.115 72.6431 102.115C71.5388 103.106 70.1458 101.761 70.1458 101.761C70.1458 101.761 69.5074 103.711 66.7767 103.417C64.9715 103.169 63.2339 102.549 61.668 101.594L60.0484 101.894C60.0484 101.894 59.2223 97.7379 61.5464 95.8605L61.5418 95.8527C63.2277 94.6757 65.146 93.8953 67.1597 93.5673Z" fill="#FFD997"/>
<path d="M72.7594 93.8091C71.4986 93.0096 69.968 92.8388 67.1149 93.1796C65.1685 93.5015 63.3021 94.2108 61.6209 95.2677C60.4003 95.3254 54.7094 96.3371 51.8108 96.7848C48.9479 97.227 41.4786 97.8238 41.4026 97.8292C41.3109 97.8444 41.2278 97.8935 41.169 97.9672C41.1101 98.041 41.0797 98.1343 41.0833 98.2296C41.087 98.3248 41.1245 98.4154 41.1888 98.4842C41.253 98.553 41.3397 98.5953 41.4322 98.603V98.8276L56.8876 105.931C56.8596 105.992 56.8479 106.06 56.8537 106.128C56.8594 106.195 56.8824 106.26 56.9204 106.315C56.9583 106.371 57.0098 106.415 57.0697 106.443C57.1297 106.472 57.1958 106.483 57.2615 106.477L61.5745 106.098C61.7835 106.082 63.1888 105.841 63.0945 102.316C63.0919 102.212 63.0494 102.114 62.9762 102.043C62.9031 101.972 62.8054 101.933 62.7046 101.936C62.6039 101.939 62.5082 101.982 62.4388 102.057C62.3694 102.132 62.3319 102.233 62.3345 102.336C62.3999 104.851 61.6832 105.255 61.5297 105.312C60.3091 104.91 59.7057 99.5499 61.8816 96.0235C63.5384 95.0524 65.3336 94.3544 67.2016 93.955C70.2416 93.5907 71.4302 93.8832 72.3597 94.4729C73.1873 94.9978 73.7474 96.2115 73.6304 96.4229C72.9288 96.2507 72.2846 95.89 71.7638 95.3777C71.7098 95.3239 71.6415 95.2878 71.5675 95.2739C71.4935 95.26 71.4171 95.269 71.3481 95.2997L70.3472 95.7529C70.2602 95.7976 70.1933 95.8749 70.1602 95.9689C70.1271 96.0628 70.1304 96.1662 70.1694 96.2577C70.2083 96.3492 70.28 96.4219 70.3697 96.4607C70.4593 96.4996 70.5601 96.5017 70.6512 96.4666L71.4287 96.1148C72.308 96.8761 74.0127 97.7879 74.3699 96.7146C74.6397 95.9128 73.6897 94.398 72.7594 93.8091Z" fill="black"/>
<path d="M67.0022 97.858C66.9492 97.8582 66.8968 97.8471 66.8482 97.8253C66.7997 97.8035 66.7561 97.7715 66.7204 97.7314C66.6846 97.6913 66.6574 97.6439 66.6405 97.5924C66.6236 97.5409 66.6173 97.4863 66.6222 97.4321L66.7286 96.2691C66.7372 96.1762 66.778 96.0896 66.8435 96.0249C66.9091 95.9602 66.995 95.9217 67.0858 95.9166L71.9141 95.6373C72.0149 95.6315 72.1138 95.6671 72.189 95.7361C72.2643 95.8052 72.3097 95.9021 72.3154 96.0055C72.321 96.1089 72.2864 96.2104 72.2191 96.2877C72.1519 96.3649 72.0574 96.4115 71.9567 96.4173L67.4544 96.6779L67.3784 97.5062C67.3692 97.6022 67.3256 97.6913 67.2562 97.7563C67.1867 97.8212 67.0962 97.8575 67.0022 97.858Z" fill="black"/>
<path d="M91.1698 96.7544L74.0569 96.4166C73.9561 96.4156 73.8598 96.3735 73.7893 96.2996C73.7187 96.2258 73.6797 96.1262 73.6807 96.0227C73.6817 95.9193 73.7227 95.8205 73.7947 95.7481C73.8666 95.6757 73.9637 95.6356 74.0645 95.6366L91.1766 95.9744C91.2265 95.9748 91.2759 95.9854 91.3218 96.0054C91.3677 96.0254 91.4094 96.0545 91.4443 96.0911C91.4793 96.1276 91.5069 96.1709 91.5256 96.2184C91.5443 96.2658 91.5537 96.3167 91.5532 96.3679C91.5528 96.4191 91.5425 96.4697 91.523 96.5168C91.5035 96.564 91.4751 96.6067 91.4395 96.6426C91.4039 96.6785 91.3618 96.7068 91.3155 96.726C91.2692 96.7452 91.2197 96.7548 91.1698 96.7544Z" fill="black"/>
<path d="M77.8651 100.058C77.6912 99.9046 77.4852 99.7939 77.263 99.735C77.0407 99.6761 76.8082 99.6706 76.5836 99.7189C76.3589 99.7672 76.1481 99.868 75.9676 100.013C75.787 100.159 75.6416 100.345 75.5425 100.558C74.7536 98.7839 72.387 97.2364 71.2105 98.1973C70.2263 97.3393 68.7109 96.2762 68.0991 97.447C67.2365 96.8947 66.1124 96.8916 65.9878 97.947C65.0026 97.7895 64.0072 97.7092 63.0101 97.7067C62.9093 97.7067 62.8127 97.7478 62.7414 97.8209C62.6701 97.8941 62.6301 97.9933 62.6301 98.0967C62.6301 98.2002 62.6701 98.2993 62.7414 98.3725C62.8127 98.4456 62.9093 98.4867 63.0101 98.4867C64.0439 98.4804 65.076 98.5763 66.0919 98.773C66.3338 99.4339 66.7103 100.034 67.1962 100.534L66.3518 101.222C66.3127 101.254 66.2802 101.294 66.256 101.338C66.2318 101.383 66.2164 101.433 66.2108 101.483C66.2051 101.534 66.2093 101.586 66.2231 101.635C66.2368 101.684 66.2599 101.73 66.291 101.771C66.3221 101.811 66.3606 101.844 66.4043 101.869C66.4479 101.894 66.496 101.909 66.5456 101.915C66.5952 101.921 66.6454 101.917 66.6934 101.903C66.7414 101.889 66.7862 101.865 66.8253 101.833L68.0025 100.873C68.0453 100.838 68.0803 100.794 68.105 100.744C68.1298 100.694 68.1438 100.64 68.1461 100.584C68.1484 100.528 68.139 100.472 68.1184 100.42C68.0978 100.368 68.0666 100.321 68.0269 100.283C66.9788 99.2691 66.6497 98.3214 66.7516 97.9704C66.7556 97.9455 66.7674 97.9226 66.7853 97.9053C66.8031 97.888 66.826 97.8771 66.8504 97.8744C67.4219 97.7652 67.9767 98.3533 68.0535 98.3955C68.1127 98.4735 69.9846 100.223 69.7688 101.671C69.673 101.905 69.0171 103.263 66.8139 103.026C65.0669 102.782 63.3851 102.182 61.8671 101.262C61.6976 101.154 61.7455 101.184 59.9785 101.508C59.881 101.528 59.795 101.586 59.7391 101.671C59.6832 101.755 59.6617 101.859 59.6793 101.959C59.6969 102.059 59.7522 102.149 59.8333 102.208C59.9144 102.267 60.0148 102.291 60.113 102.275L61.5919 102.002C63.1726 102.947 64.921 103.56 66.7349 103.803C67.3966 103.932 68.0805 103.864 68.7057 103.607C69.331 103.35 69.8715 102.915 70.2635 102.352C70.596 102.627 70.9998 102.796 71.4248 102.838C71.8498 102.879 72.2774 102.792 72.6545 102.586C73.5011 103.121 74.6054 103.455 75.2985 102.72C75.6672 102.845 76.059 102.882 76.4436 102.827C76.8282 102.771 77.1953 102.626 77.5162 102.402C78.4548 101.54 78.4024 100.604 77.8651 100.058ZM72.3171 101.865C71.6513 102.373 70.8465 101.839 70.5364 101.589C70.6344 100.015 69.1919 98.4384 68.7124 97.9633C68.7663 97.7247 68.8469 97.6646 69.084 97.7293C69.7845 98.0359 70.4231 98.4736 70.9673 99.0202C71.4431 99.4851 72.6469 100.978 72.3224 101.865H72.3171ZM74.4352 102.352C73.9588 102.364 73.4907 102.223 73.0953 101.95C73.3765 100.752 72.3125 99.365 71.7729 98.7574C72.5663 98.3549 74.6457 99.7113 75.0287 101.409C75.0484 101.612 75.0008 101.815 74.8937 101.986C74.7867 102.157 74.6264 102.286 74.439 102.352H74.4352ZM77.007 101.823C76.8135 101.945 76.5973 102.025 76.3722 102.057C76.1471 102.09 75.9179 102.074 75.6991 102.011C75.7259 101.934 75.7475 101.856 75.7637 101.777C75.8554 101.769 75.9414 101.728 76.0057 101.66C76.07 101.593 76.1082 101.504 76.1133 101.409C76.209 99.7464 78.4442 100.506 77.0108 101.823H77.007Z" fill="black"/>
<path d="M78.3657 120.451L76.9126 113.301C76.8867 113.203 76.2537 110.893 73.1886 109.957C70.8371 109.24 66.99 109.242 65.7406 110.325C65.5934 110.437 65.4775 110.587 65.4044 110.759C65.3313 110.932 65.3036 111.121 65.3241 111.308C65.4632 112.478 67.5699 112.237 68.7061 112.015C72.8557 114.115 76.1237 117.562 76.3403 118.411C76.506 119.065 75.8349 119.581 75.4283 119.824C74.8096 118.922 74.1359 118.06 73.4113 117.245C73.3782 117.205 73.3377 117.173 73.2922 117.15C73.2467 117.126 73.1972 117.113 73.1465 117.11C73.0958 117.106 73.0449 117.114 72.997 117.131C72.949 117.148 72.9049 117.175 72.8673 117.21C72.8297 117.245 72.7993 117.288 72.7779 117.335C72.7566 117.382 72.7447 117.433 72.743 117.486C72.7413 117.538 72.7497 117.59 72.7679 117.638C72.7861 117.687 72.8136 117.732 72.8489 117.769C73.5706 118.58 74.2384 119.44 74.8477 120.343C74.6696 120.635 74.4205 120.875 74.125 121.038C73.8294 121.201 73.4975 121.283 73.162 121.274C72.7614 120.569 72.2981 119.904 71.778 119.286C71.7085 119.211 71.6128 119.168 71.5119 119.165C71.4111 119.163 71.3134 119.201 71.2403 119.273C71.1673 119.344 71.1248 119.442 71.1223 119.546C71.1198 119.649 71.1575 119.749 71.227 119.824C71.6913 120.378 72.1062 120.973 72.4666 121.602C72.0509 121.894 71.5485 122.028 71.0469 121.979C70.6811 121.337 70.2442 120.742 69.745 120.204C69.7111 120.163 69.6694 120.13 69.6225 120.107C69.5757 120.084 69.5247 120.07 69.4727 120.068C69.4207 120.066 69.3688 120.075 69.3202 120.094C69.2717 120.113 69.2275 120.143 69.1904 120.18C69.1533 120.217 69.1241 120.262 69.1046 120.312C69.0852 120.361 69.0758 120.415 69.0771 120.468C69.0785 120.521 69.0905 120.574 69.1124 120.622C69.1344 120.671 69.1658 120.714 69.2047 120.75C69.6469 121.23 70.0363 121.759 70.3659 122.327C69.9692 122.717 68.9546 122.275 68.4842 121.909C67.5542 121.088 66.5225 120.397 65.4161 119.853C64.4985 119.375 63.6812 118.717 63.0107 117.916C62.9464 117.836 62.8538 117.786 62.7534 117.776C62.653 117.766 62.5529 117.798 62.4752 117.864C62.3975 117.93 62.3486 118.025 62.3391 118.128C62.3296 118.231 62.3604 118.334 62.4247 118.413C63.1684 119.308 64.0803 120.04 65.106 120.565C66.159 121.085 67.1405 121.746 68.0251 122.529C68.8877 123.201 70.3561 123.645 71.0173 122.757C71.3952 122.795 71.7766 122.752 72.1376 122.631C72.4986 122.511 72.8313 122.314 73.1149 122.055C73.768 122.07 74.407 121.859 74.929 121.456C75.7756 121.781 77.3131 121.253 78.1423 120.892C78.2238 120.857 78.2907 120.793 78.3315 120.713C78.3723 120.632 78.3844 120.54 78.3657 120.451ZM75.4914 120.781C75.5203 120.73 75.5545 120.689 75.5811 120.635C76.0325 120.401 77.4195 119.557 77.079 118.217C76.7879 117.07 73.3459 113.525 69.1545 111.374C69.1122 111.309 69.0522 111.259 68.982 111.23C68.9119 111.201 68.8349 111.194 68.7608 111.21C67.8937 111.4 66.5013 111.542 66.0818 111.21C65.9792 110.364 69.9973 109.794 72.9727 110.702C75.6107 111.508 76.1564 113.421 76.1731 113.478L77.5571 120.287C76.8994 120.566 76.2016 120.733 75.4914 120.781Z" fill="black"/>
<path d="M87.4272 100.819H77.7638C77.663 100.819 77.5664 100.778 77.4951 100.705C77.4238 100.632 77.3838 100.532 77.3838 100.429C77.3838 100.326 77.4238 100.226 77.4951 100.153C77.5664 100.08 77.663 100.039 77.7638 100.039H87.4272C87.528 100.039 87.6246 100.08 87.6959 100.153C87.7672 100.226 87.8072 100.326 87.8072 100.429C87.8072 100.532 87.7672 100.632 87.6959 100.705C87.6246 100.778 87.528 100.819 87.4272 100.819Z" fill="black"/>
<path fill-rule="evenodd" clip-rule="evenodd" d="M80.5012 96.6951C80.5877 96.1315 80.5428 95.5549 80.3701 95.0125C80.1974 94.4702 79.9019 93.9776 79.5078 93.5751C78.1398 92.0986 75.4798 91.9621 74.4592 91.7367C73.4385 91.5113 73.1292 92.7125 73.437 93.4971C73.7448 94.2818 75.5946 95.8215 77.4399 96.0267C79.2852 96.2318 80.1386 96.4081 80.5012 96.6951Z" fill="#FFD997"/>
<path fill-rule="evenodd" clip-rule="evenodd" d="M80.5483 96.6951C80.5483 96.6951 80.939 94.6218 82.5031 94.6842C84.0671 94.7466 84.416 96.2442 85.8729 96.3644C87.3298 96.4845 84.2108 97.1592 82.9135 96.6951C81.6161 96.231 80.7429 96.2949 80.5483 96.6951Z" fill="#FFD997"/>
<path fill-rule="evenodd" clip-rule="evenodd" d="M80.5484 98.3424C80.5484 98.3424 79.4122 99.5772 78.6849 100.432C77.3929 101.949 79.8925 105.054 77.994 106.99C77.2272 107.77 80.1616 107.146 80.1524 105.83C80.1433 104.515 79.1158 103.412 80.1251 101.54C81.1344 99.6684 80.5051 98.9017 80.7247 98.475L80.5484 98.3424Z" fill="#FFD997"/>
<path fill-rule="evenodd" clip-rule="evenodd" d="M80.7136 98.4938C80.7136 98.4938 80.4856 102.435 80.5486 103.579C80.6117 104.722 80.4141 107.587 81.6164 107.331C82.8187 107.075 84.677 106.56 84.1381 104.001C83.5993 101.443 81.8771 99.3323 81.2972 98.3394L80.7136 98.4938ZM82.0056 102.472C81.9136 103.466 81.4986 106.865 82.3856 106.781C83.2299 106.704 83.1273 103.83 82.0033 102.476L82.0056 102.472Z" fill="#FFD997"/>
<path d="M84.1644 97.2411C84.9706 97.2987 85.7776 97.141 86.5067 96.7832C86.5598 96.7226 86.5967 96.649 86.6142 96.5695C86.6316 96.4901 86.6289 96.4073 86.6063 96.3292C86.5045 96.0492 86.2027 96.0009 85.9041 95.9751C84.6485 95.8698 84.2123 94.3621 82.5183 94.295C82.1838 94.2856 81.8522 94.3618 81.5536 94.517C81.2551 94.6721 80.9989 94.9011 80.8083 95.1834C80.6321 94.4765 80.2786 93.8292 79.783 93.306C78.3109 91.7171 75.4966 91.5673 74.539 91.356C73.2729 91.0767 72.6253 92.4768 73.0836 93.6445C73.4636 94.6086 75.4396 96.1982 77.3974 96.415C78.2143 96.4835 79.0251 96.6139 79.8233 96.805C79.7123 97.3161 79.7969 97.8514 80.0597 98.3003C79.6949 98.6997 78.9341 99.5397 78.3975 100.172C76.9353 101.892 79.4448 104.958 77.7249 106.711C77.3989 107.043 77.4741 107.314 77.5486 107.445C77.7576 107.817 78.2957 107.744 78.7015 107.63C79.3769 107.474 79.9695 107.061 80.3599 106.474C80.5293 107.254 80.9283 107.874 81.6921 107.713C82.6814 107.599 83.589 107.096 84.2237 106.309C84.425 105.951 84.5539 105.555 84.6028 105.145C84.6516 104.735 84.6193 104.319 84.5079 103.923C83.9501 101.275 82.2082 99.1411 81.6199 98.142L81.607 98.1271C81.7198 97.6755 81.6804 97.198 81.4953 96.7723C82.6285 96.8331 82.6285 97.2418 84.1644 97.2411ZM82.5061 106.064C82.4537 106.287 82.3845 106.376 82.4035 106.404C82.3115 106.308 82.0995 105.848 82.2219 103.674C82.5334 104.427 82.6319 105.256 82.5061 106.064ZM77.4825 95.6389C75.7968 95.4517 74.0557 94.0228 73.7912 93.3512C73.5837 92.8239 73.7228 91.9714 74.3817 92.118C75.4328 92.352 77.9674 92.476 79.2351 93.8442C79.8161 94.4464 80.1513 95.2535 80.1721 96.1007C79.2909 95.8605 78.3897 95.7059 77.4802 95.6389H77.4825ZM79.7952 101.345C78.6993 103.377 79.7678 104.603 79.7754 105.83C79.7754 106.312 79.0534 106.702 78.5997 106.848C79.9875 104.742 77.9697 101.865 78.9736 100.686C79.3749 100.214 79.9054 99.6224 80.2968 99.1903C80.2816 99.4812 80.2633 99.84 80.2451 100.228C80.1412 100.619 79.9892 100.994 79.7929 101.345H79.7952ZM81.5432 106.949C80.9595 107.072 80.9595 104.885 80.9504 104.264C80.8984 102.958 80.9159 101.65 81.0028 100.346C81.2407 99.3276 80.9876 98.8798 81.0955 98.8276C81.4211 99.8919 81.5846 101.001 81.5804 102.117C81.319 104.933 81.3889 106.329 81.8175 106.881C81.721 106.903 81.6313 106.929 81.5386 106.949H81.5432ZM83.2289 106.279C83.3506 105.59 83.3333 104.882 83.178 104.2C83.0227 103.518 82.7327 102.876 82.326 102.313C82.3793 101.71 82.3514 101.103 82.2431 100.508C83.2266 102.127 84.6774 105.098 83.2243 106.279H83.2289ZM81.1997 95.9829C81.3023 95.7163 81.4801 95.4871 81.7102 95.3245C81.9403 95.162 82.2123 95.0735 82.4917 95.0703C83.545 95.1124 83.9471 95.9283 84.8287 96.4299C84.2315 96.5084 83.6254 96.4721 83.0411 96.323C82.4519 96.0925 81.8256 95.9785 81.1951 95.9868L81.1997 95.9829Z" fill="black"/>
<path fill-rule="evenodd" clip-rule="evenodd" d="M113.023 75.3855C111.592 77.1522 111.047 80.2418 108.55 81.9375C107.815 82.4367 112.971 84.7455 116.19 84.6745L116.36 82.7245L113.023 75.3855Z" fill="#81F8F8"/>
<path fill-rule="evenodd" clip-rule="evenodd" d="M116.287 82.7222C116.286 84.4138 116.439 86.1017 116.743 87.7641L115.995 88.0371L116.202 92.3849C116.202 92.3849 124.53 87.3734 125.24 87.0239L124.412 86.7494L122.786 81.7285C123.532 80.9079 124.771 70.0386 124.897 68.9084L116.676 66.7096C115.711 67.8244 115.006 69.1494 114.612 70.5846C114.142 72.6906 114.143 72.1922 113.641 73.0026C113.313 73.6244 113.114 74.3086 113.054 75.0129C112.994 75.7171 113.076 76.4264 113.295 77.0969C113.818 78.7107 113.666 82.4687 116.287 82.7222Z" fill="#FFD997"/>
<path d="M116.63 71.8037C116.566 71.8037 116.503 71.7873 116.448 71.7559C116.392 71.7246 116.344 71.6793 116.31 71.6243C115.979 71.0955 115.514 70.6197 115.153 71.1306C115.096 71.2149 115.008 71.2725 114.909 71.2907C114.81 71.3089 114.709 71.2863 114.626 71.2278C114.543 71.1693 114.487 71.0797 114.468 70.9785C114.45 70.8773 114.471 70.7727 114.528 70.6875C114.638 70.5187 114.787 70.38 114.961 70.2833C115.136 70.1867 115.33 70.1351 115.529 70.1329C115.833 70.1763 116.123 70.2969 116.371 70.4837C116.619 70.6705 116.817 70.9178 116.949 71.2031C116.986 71.262 117.007 71.3299 117.009 71.3998C117.011 71.4697 116.995 71.539 116.963 71.6005C116.93 71.6619 116.882 71.7131 116.823 71.7489C116.765 71.7846 116.698 71.8036 116.63 71.8037Z" fill="black"/>
<path d="M122.178 73.7927C122.103 73.7926 122.029 73.7694 121.966 73.7261C121.903 73.6827 121.855 73.6212 121.826 73.5493C121.713 73.2512 121.544 72.9791 121.327 72.7489C121.111 72.5187 120.852 72.3351 120.566 72.2087C120.28 72.0823 119.972 72.0156 119.66 72.0127C119.348 72.0097 119.039 72.0704 118.751 72.1913C118.704 72.2094 118.654 72.2179 118.604 72.2162C118.554 72.2146 118.505 72.2029 118.46 72.1818C118.414 72.1607 118.373 72.1305 118.339 72.0932C118.305 72.0558 118.278 72.0119 118.261 71.964C118.243 71.916 118.235 71.865 118.237 71.8138C118.238 71.7626 118.25 71.7122 118.27 71.6655C118.291 71.6188 118.32 71.5768 118.356 71.5417C118.393 71.5067 118.436 71.4793 118.482 71.4613C118.862 71.2976 119.27 71.2144 119.682 71.2165C120.093 71.2186 120.5 71.306 120.878 71.4736C121.256 71.6411 121.598 71.8853 121.881 72.1914C122.165 72.4976 122.386 72.8594 122.53 73.2553C122.554 73.3145 122.563 73.3788 122.556 73.4424C122.55 73.506 122.528 73.5671 122.494 73.6202C122.459 73.6733 122.412 73.7168 122.357 73.7469C122.302 73.777 122.241 73.7927 122.178 73.7927Z" fill="black"/>
<path fill-rule="evenodd" clip-rule="evenodd" d="M121.301 74.4324C118.945 74.8107 119.675 73.4644 119.675 73.4644C119.675 73.4644 120.194 72.8014 121.301 74.4324Z" fill="white"/>
<path d="M117.14 76.2848C116.925 76.0716 116.656 75.9252 116.363 75.8628C116.277 75.8452 116.187 75.8589 116.11 75.9016C116.032 75.9442 115.971 76.0133 115.938 76.0968C115.837 75.9978 115.427 75.7318 115.421 75.4728C115.413 75.1608 115.733 75.2287 116.928 73.7256C116.991 73.645 117.02 73.5422 117.008 73.4398C116.997 73.3374 116.947 73.2436 116.869 73.179C116.791 73.1143 116.691 73.0841 116.591 73.0949C116.491 73.1057 116.399 73.1566 116.336 73.2366C116.003 73.671 115.634 74.0759 115.235 74.4471C114.467 75.0548 114.399 75.9369 115.463 76.692C115.506 76.6361 115.559 76.5899 115.62 76.5561C115.681 76.5223 115.749 76.5017 115.818 76.4956C115.887 76.4894 115.956 76.4979 116.022 76.5204C116.088 76.5429 116.148 76.579 116.2 76.6265C116.333 76.6552 116.459 76.7138 116.567 76.7981C116.633 76.8763 116.727 76.9243 116.827 76.9317C116.928 76.9391 117.027 76.9052 117.103 76.8375C117.179 76.7697 117.226 76.6737 117.233 76.5705C117.241 76.4673 117.208 76.3654 117.142 76.2872L117.14 76.2848Z" fill="black"/>
<path fill-rule="evenodd" clip-rule="evenodd" d="M114.894 77.9556C114.894 77.9556 114.542 79.4922 115.548 79.6716C116.544 79.6905 117.522 79.3882 118.342 78.8073C117.156 78.7166 115.991 78.4289 114.894 77.9556Z" fill="white"/>
<path d="M118.992 78.2075C118.011 77.9813 116.843 77.6818 116.669 77.5913C116.428 77.6273 116.182 77.6125 115.947 77.5477C115.712 77.4829 115.492 77.3696 115.301 77.2145C115.063 77.1724 114.822 77.1499 114.581 77.1475C114.512 77.148 114.444 77.1678 114.385 77.2048C114.326 77.2417 114.278 77.2945 114.247 77.3574C114.215 77.4203 114.2 77.4909 114.204 77.5617C114.209 77.6324 114.232 77.7006 114.271 77.759C114.318 77.8224 114.369 77.883 114.423 77.9407C114.281 78.5062 114.306 79.9328 115.544 80.1583C116.793 80.2062 118.016 79.7834 118.982 78.9695C118.998 78.9649 119.017 78.9633 119.032 78.9578C119.111 78.9305 119.179 78.8775 119.225 78.8069C119.272 78.7363 119.294 78.6521 119.29 78.567C119.285 78.4819 119.254 78.4006 119.2 78.3357C119.146 78.2708 119.073 78.2258 118.992 78.2075ZM115.672 79.3884C115.133 79.2909 115.105 78.7106 115.113 78.4976C115.885 78.8436 116.712 79.0442 117.553 79.0897C116.96 79.3474 116.314 79.45 115.672 79.3884Z" fill="black"/>
<path d="M116.601 72.6025C115.49 70.8085 114.332 71.8069 114.781 72.3147C114.676 73.1431 115.499 73.5214 115.915 72.9543C115.931 72.9777 115.944 72.9964 115.96 73.0214C115.986 73.0663 116.021 73.1054 116.062 73.1364C116.103 73.1673 116.149 73.1895 116.199 73.2016C116.248 73.2137 116.3 73.2155 116.35 73.2068C116.4 73.1982 116.448 73.1792 116.491 73.1512C116.534 73.1231 116.571 73.0865 116.6 73.0434C116.629 73.0004 116.649 72.9519 116.659 72.9007C116.669 72.8495 116.669 72.7968 116.659 72.7455C116.649 72.6943 116.63 72.6457 116.601 72.6025Z" fill="black"/>
<path d="M121.612 74.2093C121.443 73.8875 121.213 73.6036 120.936 73.3744C120.658 73.1452 120.339 72.9753 119.996 72.8747C119.878 72.8526 119.757 72.8558 119.64 72.8842C119.523 72.9125 119.414 72.9653 119.318 73.0393C119.269 73.0782 119.23 73.1289 119.204 73.1868C119.179 73.2447 119.167 73.3081 119.171 73.3715C119.175 73.435 119.194 73.4965 119.226 73.5507C119.258 73.605 119.303 73.6503 119.356 73.6828C119.222 74.6414 120.284 75.0088 120.648 74.2085C120.771 74.3501 120.885 74.4991 120.99 74.6547C121.05 74.735 121.137 74.7887 121.234 74.8045C121.331 74.8203 121.43 74.797 121.51 74.7394C121.591 74.6818 121.647 74.5944 121.666 74.4956C121.685 74.3968 121.666 74.2942 121.614 74.2093H121.612Z" fill="black"/>
<path fill-rule="evenodd" clip-rule="evenodd" d="M129.392 73.5883C128.315 69.9652 125.284 69.0285 123.331 68.6478C122.952 70.7752 122.801 72.9389 122.882 75.1C123.094 77.9782 122.465 82.8181 119.591 83.8804C122.348 85.5855 125.603 86.2379 128.782 85.7228C129.637 84.395 129.962 82.7806 129.69 81.2136C129.24 78.5562 128.815 75.0048 129.392 73.5883Z" fill="#81F8F8"/>
<path d="M140.792 73.3762L129.416 55.3067C129.37 55.2353 129.303 55.1813 129.224 55.1531C129.145 55.1249 129.06 55.1241 128.981 55.1507C110.924 61.1481 112.067 60.6653 111.974 60.9562C111.888 61.2269 111.695 60.8314 115.975 66.9482C113.968 69.5737 114.292 71.4995 113.639 72.3411C113.01 73.1627 112.667 74.1773 112.667 75.2224C111.098 77.3199 110.707 80.0116 108.339 81.6184C108.241 81.6809 108.167 81.7754 108.128 81.8867C108.089 81.9979 108.088 82.1194 108.124 82.2315C108.433 83.2455 113.09 85.0473 115.99 85.0699C116.066 85.8944 116.181 86.7298 116.294 87.4599C115.791 87.6837 115.99 87.5886 115.873 87.6112C111.142 88.5994 104.272 93.8223 103.485 94.4292L102.086 94.1702V95.3784L91.8768 102.295L75.3794 111.473C75.3268 111.502 75.2816 111.544 75.2475 111.594C75.2134 111.644 75.1914 111.702 75.1832 111.763C75.1751 111.824 75.181 111.886 75.2006 111.944C75.2202 112.002 75.2528 112.054 75.2958 112.097C76.5491 113.35 76.0809 113.307 77.6678 120.671C79.2547 128.034 86.5271 137.31 86.8357 137.702C86.8684 137.744 86.9095 137.779 86.9563 137.804C87.0031 137.828 87.0544 137.843 87.107 137.846C87.3692 137.858 86.2626 138.845 103.367 122.108H104.404C103.93 126.722 103.382 145.111 103.359 145.919C103.357 145.971 103.366 146.023 103.384 146.071C103.403 146.12 103.431 146.164 103.466 146.202C103.501 146.239 103.544 146.269 103.591 146.289C103.638 146.31 103.688 146.32 103.739 146.32C138.278 146.32 136.123 146.398 136.298 146.169C136.334 146.122 136.358 146.067 136.37 146.008C136.381 145.95 136.38 145.89 136.365 145.832C136.217 145.248 135.828 142.201 135.377 138.674C133.143 121.202 134.023 128.862 130.616 113.003L134.225 104.44C136.188 99.7839 138.162 94.5103 136.71 90.8482C135.38 87.4942 130.701 87.1042 128.94 86.9638C127.116 86.814 126.167 86.5137 124.703 86.4342L124.611 86.1456C126.016 86.3694 127.446 86.3573 128.846 86.1097C128.941 86.0927 129.027 86.0392 129.085 85.9599C130.007 84.5476 130.358 82.8227 130.064 81.1497C129.722 79.3624 129.509 77.5519 129.425 75.7326L140.53 73.976C140.594 73.9663 140.653 73.9405 140.704 73.9009C140.755 73.8614 140.795 73.8093 140.821 73.7495C140.847 73.6898 140.858 73.6243 140.853 73.559C140.848 73.4938 140.827 73.4309 140.792 73.3762ZM108.972 82.1122C111.1 80.5038 111.675 78.2902 112.755 76.4868C112.903 77.316 112.943 76.9626 113.223 78.5928C113.518 80.3088 113.919 82.6293 115.906 83.0575C115.896 83.4421 115.906 83.8555 115.929 84.2868C113.476 84.1341 111.092 83.3884 108.972 82.1106V82.1122ZM113.655 76.9759C113.454 76.3604 113.377 75.7093 113.43 75.0624C113.482 74.4154 113.662 73.7862 113.959 73.2132C114.456 72.4144 114.491 72.8637 114.981 70.6735C115.287 69.4887 115.83 68.3824 116.577 67.4256C116.774 68.073 117.356 69.8077 117.981 69.5901C119.569 69.0865 121.231 68.8753 122.89 68.9661C122.544 70.9996 122.414 73.0657 122.502 75.1281C122.654 77.2161 122.35 80.2371 121.141 82.0779C119.56 82.4104 117.939 82.4966 116.334 82.3337C114.036 82.1231 114.193 78.6342 113.655 76.9743V76.9759ZM124.067 86.9373C124.225 87.4255 125.216 86.1892 116.499 91.7655C116.394 90.6571 116.353 88.9692 116.34 88.2882C116.501 88.2165 116.368 88.0956 116.703 89.679C116.725 89.7791 116.785 89.8662 116.87 89.9213C116.954 89.9764 117.056 89.995 117.154 89.9731C117.252 89.9512 117.338 89.8906 117.392 89.8044C117.447 89.7182 117.466 89.6134 117.445 89.5128C116.998 87.4144 116.738 85.2785 116.667 83.1316C117.881 83.2348 119.102 83.1998 120.308 83.0271C120.054 83.2354 119.769 83.4003 119.465 83.5154C119.399 83.5399 119.34 83.5828 119.297 83.6392C119.253 83.6956 119.225 83.7634 119.217 83.835C119.208 83.9066 119.219 83.9793 119.248 84.0449C119.278 84.1104 119.324 84.1664 119.383 84.2065C120.731 85.0586 122.214 85.6618 123.765 85.9888L124.067 86.9373ZM128.56 85.3671C125.761 85.7737 122.908 85.2647 120.406 83.9124C123.038 82.2651 123.446 77.5227 123.264 75.0719C123.183 73.0581 123.313 71.0413 123.65 69.0558C124.876 69.1884 126.037 69.6894 126.987 70.4962C127.936 71.3029 128.633 72.3794 128.989 73.5907C128.196 74.9042 129.061 79.7527 129.319 81.2823C129.554 82.6931 129.283 84.1434 128.557 85.3656L128.56 85.3671Z" fill="black"/>
<path fill-rule="evenodd" clip-rule="evenodd" d="M136.118 76.9127L136.515 67.3008L137.115 68.2539L136.77 76.986C136.867 77.047 136.948 77.1304 137.007 77.2295C137.066 77.3287 137.102 77.4407 137.111 77.5567C137.12 77.6726 137.103 77.7891 137.06 77.8968C137.017 78.0044 136.95 78.1002 136.864 78.1763C136.864 78.1763 137.732 79.5195 137.59 80.2823C137.321 81.1062 137.23 81.9801 137.322 82.8438C137.415 83.6217 137.344 84.411 137.114 85.1581C136.643 85.2938 136.148 85.3124 135.669 85.2122C135.191 85.1121 134.742 84.8962 134.361 84.5825C134.983 83.4281 134.655 83.5607 134.759 80.9703C134.863 78.3799 135.837 78.1404 135.837 78.1404C135.75 78.0509 135.687 77.9403 135.654 77.8189C135.62 77.6975 135.617 77.5693 135.646 77.4465C135.674 77.3237 135.732 77.2103 135.814 77.1169C135.897 77.0235 136.002 76.9533 136.118 76.9127Z" fill="#FFD997"/>
<path d="M137.434 77.972C137.473 77.858 137.493 77.7381 137.495 77.6171C137.495 77.466 137.465 77.3164 137.407 77.1773C137.35 77.0382 137.265 76.9125 137.159 76.8075L137.495 68.2696C137.498 68.1937 137.479 68.1186 137.441 68.0535C137.403 67.9883 137.348 67.9359 137.281 67.9028C137.215 67.8697 137.14 67.8572 137.067 67.8669C136.993 67.8767 136.924 67.9082 136.868 67.9576L136.895 67.3172C136.898 67.266 136.89 67.2149 136.873 67.1668C136.855 67.1186 136.829 67.0744 136.795 67.0367C136.762 66.9989 136.721 66.9684 136.676 66.9468C136.63 66.9252 136.581 66.913 136.531 66.9109C136.481 66.9087 136.432 66.9167 136.385 66.9343C136.338 66.9519 136.295 66.9788 136.258 67.0135C136.221 67.0482 136.192 67.09 136.17 67.1365C136.149 67.183 136.138 67.2333 136.135 67.2845C135.867 73.7585 135.755 75.9175 135.755 76.6671C135.542 76.8057 135.382 77.0164 135.303 77.263C135.224 77.5096 135.232 77.7766 135.325 78.0181C134.89 78.4307 134.448 79.3487 134.384 80.954C134.278 83.5787 134.596 83.3486 134.033 84.393C133.992 84.4676 133.976 84.5538 133.988 84.6383C134 84.7229 134.039 84.8011 134.098 84.861C134.527 85.2148 135.03 85.4606 135.568 85.5789C136.106 85.6971 136.663 85.6845 137.196 85.5419C137.26 85.5281 137.319 85.4974 137.368 85.453C137.417 85.4086 137.455 85.3519 137.476 85.2884C137.729 84.482 137.807 83.6284 137.704 82.7878C137.622 81.9673 137.713 81.1384 137.971 80.3573C138.044 79.9431 138.034 79.5179 137.942 79.1078C137.85 78.6976 137.677 78.3111 137.434 77.972ZM136.119 77.8745C136.112 77.8667 136.107 77.8582 136.1 77.8511C136.041 77.788 136.008 77.7044 136.006 77.6171C136.003 77.5425 136.022 77.4686 136.06 77.405C136.098 77.3414 136.154 77.291 136.221 77.2602C136.287 77.2295 136.361 77.2199 136.433 77.2326C136.504 77.2453 136.571 77.2797 136.623 77.3315C136.676 77.3833 136.712 77.45 136.727 77.5231C136.743 77.5961 136.736 77.6722 136.709 77.7415C136.682 77.8108 136.635 77.8702 136.575 77.912C136.514 77.9538 136.443 77.976 136.37 77.9759C136.277 77.9757 136.187 77.9395 136.119 77.8745ZM137.218 80.2091C136.939 81.0762 136.847 81.9951 136.948 82.9024C137.025 83.5435 136.98 84.1937 136.816 84.8173C136.141 84.9506 135.442 84.8278 134.848 84.4718C135.321 83.4882 135.045 83.3486 135.141 80.986C135.204 79.3729 135.611 78.7965 135.825 78.6038C135.993 78.7043 136.184 78.7568 136.379 78.7559C136.574 78.7551 136.765 78.701 136.933 78.5992C137.209 79.0846 137.311 79.6547 137.218 80.2091Z" fill="black"/>
<path fill-rule="evenodd" clip-rule="evenodd" d="M66.6013 86.2681L58.353 72.7297L61.013 70.0332L66.6013 86.2681Z" fill="#FFD997"/>
<path fill-rule="evenodd" clip-rule="evenodd" d="M75.6032 89.7562L72.2266 63.2978L76.7448 62.7666L75.6032 89.7562Z" fill="#FFD997"/>
<path fill-rule="evenodd" clip-rule="evenodd" d="M80.6221 85.3344L86.8594 68.1846L89.3522 70.959L80.6221 85.3344Z" fill="#FFD997"/>
<path d="M66.2803 86.4748L58.0343 72.9363C57.9886 72.8613 57.9692 72.7725 57.9791 72.6847C57.989 72.5968 58.0278 72.515 58.089 72.4527L60.749 69.7555C60.7945 69.7091 60.8507 69.6753 60.9124 69.6572C60.9741 69.6391 61.0392 69.6374 61.1017 69.6521C61.1642 69.6668 61.2221 69.6975 61.2699 69.7414C61.3177 69.7852 61.354 69.8408 61.3753 69.9029L66.9635 86.1378C66.9988 86.2295 66.9989 86.3315 66.9639 86.4233C66.9288 86.5151 66.8612 86.5898 66.7747 86.6325C66.6881 86.6752 66.589 86.6827 66.4972 86.6534C66.4055 86.6241 66.328 86.5603 66.2803 86.4748ZM58.8369 72.7873L65.0939 83.0545L60.8547 70.7422L58.8369 72.7873Z" fill="black"/>
<path d="M75.2249 89.8069L71.849 63.3486C71.8424 63.2972 71.8458 63.2451 71.8591 63.1951C71.8724 63.1452 71.8952 63.0984 71.9262 63.0576C71.9573 63.0168 71.996 62.9828 72.04 62.9574C72.084 62.9321 72.1325 62.9161 72.1826 62.9102C77.0466 62.3424 76.8186 62.3073 77.0033 62.482C77.2031 62.6723 77.2313 60.9313 75.9818 89.7726C75.9786 89.8708 75.9394 89.964 75.8721 90.0338C75.8049 90.1036 75.7144 90.1448 75.6188 90.1491C75.5232 90.1534 75.4296 90.1206 75.3566 90.0572C75.2835 89.9938 75.2365 89.9044 75.2249 89.8069ZM72.6523 63.6403L75.4118 85.2627L76.3451 63.2066L72.6523 63.6403Z" fill="black"/>
<path d="M80.2661 85.1986L86.5026 68.048C86.5254 67.9856 86.5633 67.9301 86.6128 67.887C86.6623 67.8439 86.7218 67.8146 86.7855 67.8017C86.8492 67.7889 86.915 67.793 86.9768 67.8138C87.0385 67.8345 87.094 67.8711 87.138 67.9201L89.6308 70.6945C89.6867 70.757 89.7213 70.8365 89.7293 70.9209C89.7372 71.0054 89.7181 71.0902 89.6749 71.1625L80.9448 85.5379C80.8946 85.6185 80.8172 85.6773 80.7275 85.7032C80.6378 85.7291 80.542 85.7203 80.4582 85.6784C80.3744 85.6365 80.3086 85.5645 80.2732 85.4761C80.2377 85.3876 80.2352 85.2889 80.2661 85.1986ZM86.9982 68.9154L82.3021 81.8321L88.8761 71.005L86.9982 68.9154Z" fill="black"/>
<path d="M129.801 73.3934C129.739 73.3934 129.678 73.3778 129.623 73.3479C129.568 73.3179 129.521 73.2746 129.486 73.2217C129.451 73.1688 129.43 73.1079 129.423 73.0444C129.417 72.9809 129.425 72.9168 129.449 72.8575C130.022 71.3997 130.653 67.1347 126.738 64.9343C122.761 62.6973 119.848 64.3704 117.523 66.3024C117.485 66.3362 117.44 66.3617 117.392 66.3774C117.343 66.3931 117.292 66.3987 117.242 66.3939C117.191 66.3891 117.142 66.374 117.098 66.3494C117.053 66.3249 117.014 66.2914 116.982 66.2509C116.95 66.2105 116.926 66.1639 116.912 66.1139C116.898 66.0639 116.894 66.0115 116.9 65.9599C116.906 65.9082 116.921 65.8582 116.947 65.813C116.972 65.7677 117.005 65.7281 117.045 65.6964C119.418 63.7245 122.704 61.7769 127.103 64.2502C131.011 66.4467 131.048 70.8748 130.154 73.1493C130.126 73.2214 130.077 73.2832 130.014 73.3267C129.951 73.3702 129.877 73.3934 129.801 73.3934Z" fill="white"/>
<path fill-rule="evenodd" clip-rule="evenodd" d="M96.0897 93.0861C93.6662 93.1946 91.3656 94.2114 89.6236 95.944L91.3229 95.9994C90.6769 96.8379 87.4933 100.399 87.4173 100.461C87.4173 100.461 86.7097 101.481 87.5207 101.9C87.7378 102.023 87.9868 102.074 88.2333 102.046C88.4799 102.018 88.712 101.913 88.8978 101.744C88.8978 101.744 89.0703 102.702 89.8014 102.836C90.3807 102.838 90.9401 102.619 91.3716 102.222C91.3716 102.222 92.0297 103.058 93.7861 102.64C93.7861 102.64 95.0781 103.359 97.1164 101.925C99.1547 100.491 99.3744 99.6802 100.507 99.5343C100.78 99.4652 101.067 99.4727 101.337 99.5561C101.607 99.6396 101.85 99.7958 102.04 100.009V94.2584C102.04 94.2584 100.1 93.0385 96.0897 93.0861Z" fill="#FFD997"/>
<path d="M89.394 96.5711C89.3205 96.571 89.2486 96.5491 89.187 96.508C89.1254 96.4669 89.0767 96.4083 89.0469 96.3394C89.0171 96.2705 89.0073 96.1942 89.0189 96.1197C89.0305 96.0452 89.0628 95.9757 89.1121 95.9198C90.9474 93.9669 93.4438 92.8128 96.0851 92.696C97.8407 92.6789 100.739 92.9737 102.241 93.9261C102.325 93.9807 102.385 94.0672 102.408 94.1668C102.431 94.2664 102.414 94.3712 102.363 94.4585C102.311 94.5459 102.228 94.6089 102.131 94.6339C102.034 94.6589 101.932 94.6439 101.846 94.5922C101.827 94.5797 99.9383 93.4409 96.0972 93.476C93.6716 93.6049 91.3812 94.6625 89.6783 96.44C89.6426 96.4812 89.5988 96.5142 89.5498 96.5368C89.5008 96.5594 89.4477 96.5711 89.394 96.5711Z" fill="black"/>
<path d="M102.352 99.787C102.122 99.5146 101.825 99.3112 101.491 99.1985C101.158 99.0859 100.801 99.0682 100.458 99.1474C99.7506 99.2725 99.1057 99.6421 98.6306 100.195C97.5301 101.197 96.1142 102.414 94.7234 102.43C94.892 102.293 95.0406 102.133 95.165 101.953C95.1942 101.91 95.2147 101.862 95.2252 101.81C95.2358 101.759 95.2361 101.706 95.2263 101.655C95.2165 101.603 95.1967 101.555 95.1681 101.511C95.1395 101.468 95.1027 101.431 95.0599 101.402C95.0171 101.374 94.9691 101.355 94.9188 101.346C94.8685 101.337 94.817 101.338 94.7673 101.35C94.7176 101.362 94.6708 101.384 94.6295 101.415C94.5883 101.446 94.5536 101.485 94.5274 101.53C94.2727 101.822 93.9747 102.072 93.6442 102.269C93.1143 102.423 92.5507 102.403 92.0323 102.212C92.47 101.884 93.1206 101.389 93.4603 101.091C93.5001 101.059 93.5331 101.018 93.5573 100.972C93.5815 100.926 93.5965 100.876 93.6014 100.824C93.6062 100.772 93.6009 100.719 93.5856 100.669C93.5703 100.62 93.5454 100.573 93.5124 100.534C93.4794 100.494 93.439 100.461 93.3935 100.438C93.348 100.414 93.2984 100.401 93.2476 100.397C93.1968 100.394 93.1458 100.401 93.0978 100.418C93.0497 100.436 93.0055 100.463 92.9678 100.498C92.5514 100.862 91.2001 101.881 91.1226 101.927C90.7784 102.249 90.3344 102.435 89.8693 102.452C89.74 102.411 89.6229 102.336 89.529 102.236C89.4351 102.136 89.3673 102.013 89.332 101.878C90.0005 101.329 90.632 100.735 91.2221 100.098C91.2869 100.019 91.3184 99.9166 91.3096 99.8136C91.3009 99.7105 91.2526 99.6152 91.1754 99.5487C91.0982 99.4822 90.9984 99.4499 90.898 99.4589C90.7976 99.4679 90.7048 99.5175 90.64 99.5967C90.009 100.26 89.3387 100.883 88.6328 101.461C88.246 101.832 87.5802 101.617 87.5202 101.367C87.5096 101.136 87.575 100.908 87.7056 100.72C87.8515 100.58 88.1282 100.259 88.6282 99.6731C90.6042 97.3604 91.2404 96.6038 93.4596 95.1491C93.5433 95.0947 93.6029 95.0089 93.6259 94.91C93.6488 94.811 93.6332 94.7068 93.5823 94.6196C93.5315 94.5323 93.4494 94.4688 93.3537 94.4427C93.2579 94.4167 93.156 94.43 93.0697 94.4799C92.1262 95.0743 91.2401 95.7597 90.4234 96.5266C89.0683 97.844 87.5186 99.8689 87.1812 100.157C87.02 100.346 86.9008 100.569 86.8319 100.81C86.763 101.051 86.746 101.305 86.7822 101.554C86.8555 101.735 86.9637 101.9 87.1003 102.038C87.237 102.176 87.3994 102.284 87.5778 102.356C87.7561 102.428 87.9468 102.463 88.1384 102.457C88.33 102.452 88.5186 102.407 88.6928 102.325C89.2309 103.486 90.3238 103.46 91.3612 102.721C91.7161 102.941 92.1111 103.083 92.5218 103.139C92.9324 103.195 93.3499 103.164 93.7484 103.047C95.6263 103.777 97.6487 102.13 99.1352 100.779C99.4994 100.336 99.9995 100.034 100.553 99.9212C100.759 99.8668 100.974 99.8669 101.179 99.9215C101.385 99.976 101.573 100.083 101.727 100.233C101.754 100.278 101.79 100.316 101.832 100.346C101.874 100.376 101.922 100.396 101.972 100.407C102.022 100.417 102.074 100.417 102.124 100.407C102.174 100.396 102.222 100.376 102.264 100.346C102.306 100.316 102.342 100.278 102.369 100.233C102.397 100.189 102.415 100.139 102.423 100.087C102.431 100.035 102.429 99.9821 102.417 99.9311C102.405 99.8801 102.382 99.8321 102.352 99.7901V99.787Z" fill="black"/>
<path d="M121.805 112.354C121.893 112.354 121.979 112.323 122.047 112.265C122.115 112.208 122.161 112.128 122.178 112.039C122.195 111.95 122.181 111.859 122.139 111.779C122.097 111.7 122.03 111.637 121.948 111.603C118.271 110.078 106.52 102.388 106.401 102.31C106.359 102.283 106.312 102.264 106.263 102.255C106.214 102.246 106.163 102.247 106.114 102.258C106.066 102.269 106.02 102.29 105.979 102.319C105.938 102.348 105.903 102.386 105.876 102.429C105.849 102.472 105.831 102.52 105.822 102.571C105.813 102.621 105.814 102.673 105.825 102.723C105.836 102.773 105.856 102.82 105.884 102.862C105.913 102.904 105.949 102.94 105.991 102.968C107.09 103.687 120.513 112.354 121.805 112.354Z" fill="white"/>
<path d="M107.268 106.952C107.224 106.975 107.184 107.006 107.151 107.044C107.118 107.083 107.092 107.128 107.076 107.176C107.06 107.224 107.053 107.276 107.056 107.327C107.06 107.378 107.072 107.428 107.094 107.474C107.228 107.754 110.4 114.366 112.785 116.952C112.819 116.989 112.86 117.019 112.906 117.04C112.951 117.061 113 117.072 113.05 117.074C113.1 117.075 113.15 117.066 113.197 117.048C113.243 117.03 113.286 117.002 113.322 116.967C113.359 116.932 113.388 116.889 113.408 116.843C113.428 116.796 113.44 116.745 113.441 116.694C113.442 116.643 113.434 116.592 113.416 116.544C113.398 116.496 113.371 116.452 113.337 116.415C111.031 113.915 107.809 107.198 107.777 107.133C107.755 107.087 107.725 107.045 107.687 107.011C107.65 106.977 107.607 106.951 107.559 106.934C107.512 106.917 107.462 106.91 107.412 106.913C107.362 106.916 107.313 106.93 107.268 106.952Z" fill="white"/>
<path d="M131.364 92.0946C131.34 91.9945 131.279 91.9079 131.194 91.8538C131.108 91.7997 131.006 91.7826 130.908 91.806C125.132 93.2155 121.07 98.904 120.235 100.152C116.511 98.9079 115.899 99.4539 109.687 96.5367C110.074 95.8 110.531 95.104 111.051 94.4588C111.092 94.4266 111.126 94.3863 111.15 94.3403C111.175 94.2943 111.191 94.2437 111.196 94.1914C111.202 94.139 111.197 94.0861 111.182 94.0359C111.167 93.9856 111.142 93.9389 111.109 93.8988C111.076 93.8586 111.035 93.8257 110.989 93.8021C110.943 93.7784 110.893 93.7646 110.842 93.7613C110.791 93.758 110.74 93.7654 110.691 93.783C110.643 93.8006 110.599 93.828 110.561 93.8637C109.956 94.5816 109.431 95.3665 108.995 96.2037C108.406 95.9143 107.865 95.6319 107.41 95.3714C105.763 94.4903 103.964 93.9484 102.114 93.7763C102.061 93.7725 102.009 93.78 101.959 93.7981C101.909 93.8163 101.864 93.8449 101.826 93.882C101.788 93.9191 101.757 93.9639 101.737 94.0137C101.716 94.0634 101.706 94.117 101.707 94.171C101.848 102.347 101.972 115.202 102.839 120.803C102.858 120.902 102.913 120.99 102.993 121.048C103.073 121.106 103.172 121.13 103.269 121.115C103.366 121.1 103.454 121.047 103.514 120.967C103.574 120.888 103.601 120.787 103.59 120.687C102.734 114.383 102.662 106.123 102.474 94.6008C104.067 94.8026 105.611 95.2964 107.034 96.0586C109.991 97.6706 113.106 98.959 116.326 99.9024C120.217 100.76 122.919 101.845 123.737 102.883C123.801 102.963 123.893 103.015 123.993 103.025C124.093 103.036 124.193 103.006 124.272 102.941C124.35 102.876 124.4 102.781 124.411 102.679C124.422 102.576 124.392 102.473 124.328 102.392C123.385 101.467 122.238 100.791 120.984 100.42C122.007 98.95 125.881 93.8325 131.082 92.5626C131.18 92.5387 131.264 92.4761 131.317 92.3884C131.37 92.3007 131.387 92.195 131.364 92.0946Z" fill="white"/>
<path d="M86.7147 108.848C86.6144 108.844 86.5166 108.88 86.442 108.949C86.3675 109.018 86.3221 109.114 86.3157 109.217C86.3088 109.345 85.6362 122.043 84.6285 125.422C84.6139 125.471 84.6088 125.522 84.6136 125.573C84.6183 125.624 84.6328 125.674 84.6563 125.719C84.6797 125.764 84.7116 125.804 84.7501 125.837C84.7886 125.87 84.833 125.894 84.8808 125.909C84.9286 125.924 84.9787 125.929 85.0284 125.924C85.0782 125.92 85.1265 125.905 85.1706 125.881C85.2147 125.857 85.2537 125.824 85.2855 125.784C85.3173 125.745 85.3412 125.699 85.3558 125.65C86.3909 122.182 87.0468 109.785 87.0742 109.258C87.0768 109.207 87.0696 109.156 87.053 109.108C87.0364 109.059 87.0106 109.015 86.9773 108.977C86.9439 108.939 86.9035 108.908 86.8584 108.886C86.8134 108.864 86.7645 108.851 86.7147 108.848Z" fill="white"/>
<path d="M88.8856 109.699C88.8374 109.713 88.7923 109.736 88.7529 109.767C88.7134 109.799 88.6804 109.838 88.6557 109.883C88.631 109.927 88.6151 109.976 88.6089 110.027C88.6027 110.078 88.6063 110.13 88.6196 110.179C88.6515 110.296 91.7698 121.933 91.6908 126.28C91.6889 126.383 91.7271 126.483 91.7969 126.557C91.8668 126.632 91.9625 126.675 92.0632 126.677C92.1636 126.678 92.2604 126.638 92.3328 126.567C92.4053 126.495 92.4476 126.398 92.4508 126.295C92.5321 121.835 89.4822 110.454 89.353 109.971C89.326 109.871 89.2617 109.787 89.174 109.736C89.0864 109.685 88.9826 109.672 88.8856 109.699Z" fill="white"/>
<path d="M93.2628 107.168C93.2265 107.074 93.1556 106.997 93.0652 106.955C92.9747 106.914 92.872 106.91 92.7789 106.945C92.6858 106.98 92.6097 107.051 92.5668 107.142C92.5238 107.234 92.5175 107.339 92.5492 107.436C92.6609 107.748 95.2966 115.11 97.8829 117.667C97.9532 117.737 98.0476 117.777 98.1458 117.776C98.2216 117.776 98.2956 117.753 98.3584 117.709C98.4212 117.666 98.4699 117.604 98.4982 117.532C98.5266 117.46 98.5333 117.381 98.5175 117.305C98.5017 117.229 98.4641 117.159 98.4096 117.105C95.9502 114.673 93.2902 107.243 93.2628 107.168Z" fill="white"/>
<path d="M129.841 113.823C129.796 113.8 129.747 113.787 129.697 113.784C129.647 113.78 129.598 113.787 129.55 113.803C129.503 113.82 129.459 113.846 129.422 113.879C129.384 113.913 129.353 113.954 129.331 114C127.674 117.445 125.841 118.73 121.161 119.728C116.278 120.611 111.346 121.176 106.394 121.42C106.293 121.424 106.198 121.469 106.13 121.546C106.062 121.622 106.026 121.723 106.03 121.826C106.034 121.93 106.079 122.027 106.153 122.097C106.227 122.167 106.326 122.204 106.426 122.2C111.421 121.977 116.395 121.407 121.315 120.494C125.647 119.569 128.056 118.413 130.013 114.347C130.035 114.301 130.049 114.251 130.052 114.2C130.056 114.149 130.049 114.097 130.033 114.048C130.017 114 129.992 113.955 129.959 113.916C129.926 113.877 129.886 113.846 129.841 113.823Z" fill="white"/>
</svg>
