<svg width="600" height="600" viewBox="0 0 600 600" fill="none" xmlns="http://www.w3.org/2000/svg">
<rect x="79.5" y="273.47" width="441.436" height="123" stroke="#1E1E1E" stroke-width="5"/>
<rect x="71.5" y="232.47" width="454.883" height="41" stroke="#1E1E1E" stroke-width="5"/>
<rect x="261.5" y="288.5" width="78" height="108" stroke="#1E1E1E" stroke-width="5"/>
<rect x="115.5" y="288.5" width="51" height="51" stroke="#1E1E1E" stroke-width="5"/>
<rect x="361.5" y="288.5" width="51" height="51" stroke="#1E1E1E" stroke-width="5"/>
<rect x="188.5" y="288.5" width="51" height="51" stroke="#1E1E1E" stroke-width="5"/>
<rect x="434.5" y="288.5" width="51" height="51" stroke="#1E1E1E" stroke-width="5"/>
<rect x="111.503" y="204.47" width="376.014" height="28" stroke="#1E1E1E" stroke-width="5"/>
<rect x="64" y="270.97" width="471.02" height="5" fill="#1E1E1E"/>
<rect x="64" y="229.97" width="471.02" height="5" fill="#1E1E1E"/>
<rect x="108" y="202" width="382.879" height="5" fill="#1E1E1E"/>
<rect x="161.5" y="216.5" width="36" height="16" stroke="#1E1E1E" stroke-width="5"/>
<rect x="245.5" y="216.5" width="36" height="16" stroke="#1E1E1E" stroke-width="5"/>
<rect x="329.5" y="216.5" width="36" height="16" stroke="#1E1E1E" stroke-width="5"/>
<rect x="413.5" y="216.5" width="36" height="16" stroke="#1E1E1E" stroke-width="5"/>
</svg>
