<svg width="368" height="225" viewBox="0 0 368 225" fill="none" xmlns="http://www.w3.org/2000/svg">
<g filter="url(#filter0_d_1_100)">
<g opacity="0.5" filter="url(#filter1_f_1_100)">
<rect x="67.619" y="48.0476" width="234.063" height="76.9524" rx="24" fill="#180E54"/>
<rect x="67.619" y="48.0476" width="234.063" height="76.9524" rx="24" fill="url(#paint0_radial_1_100)"/>
<rect x="67.619" y="48.0476" width="234.063" height="76.9524" rx="24" fill="url(#paint1_radial_1_100)"/>
</g>
<g filter="url(#filter2_di_1_100)">
<rect x="58" y="24" width="234.063" height="76.9524" rx="24" fill="#38D2D2"/>
<rect x="58" y="24" width="234.063" height="76.9524" rx="24" fill="url(#paint2_radial_1_100)"/>
<rect x="58" y="24" width="234.063" height="76.9524" rx="24" fill="url(#paint3_radial_1_100)"/>
</g>
<circle cx="97" cy="62" r="16" fill="black" fill-opacity="0.1"/>
<g clip-path="url(#clip0_1_100)">
<g filter="url(#filter3_d_1_100)">
<path fill-rule="evenodd" clip-rule="evenodd" d="M102.657 56.3431C103.047 56.7337 103.047 57.3668 102.657 57.7573L97.7071 62.7071C97.3166 63.0976 96.6834 63.0976 96.2929 62.7071L91.3431 57.7573C90.9526 57.3668 90.9526 56.7337 91.3431 56.3431C91.7337 55.9526 92.3668 55.9526 92.7574 56.3431L97 60.5858L101.243 56.3431C101.633 55.9526 102.266 55.9526 102.657 56.3431Z" fill="white" fill-opacity="0.85"/>
</g>
<g filter="url(#filter4_d_1_100)">
<path fill-rule="evenodd" clip-rule="evenodd" d="M91.3431 67.6569C90.9526 67.2663 90.9526 66.6332 91.3431 66.2427L96.2929 61.2929C96.6834 60.9024 97.3166 60.9024 97.7071 61.2929L102.657 66.2427C103.047 66.6332 103.047 67.2663 102.657 67.6569C102.266 68.0474 101.633 68.0474 101.243 67.6569L97 63.4142L92.7574 67.6569C92.3668 68.0474 91.7337 68.0474 91.3431 67.6569Z" fill="white" fill-opacity="0.85"/>
</g>
</g>
<circle cx="252" cy="62" r="16" fill="black" fill-opacity="0.1"/>
<g clip-path="url(#clip1_1_100)">
<g filter="url(#filter5_d_1_100)">
<path fill-rule="evenodd" clip-rule="evenodd" d="M248.747 54.147C249.778 53.7199 250.884 53.5 252 53.5C254.618 53.5 256.966 54.6848 258.5 56.5522V55C258.5 54.4477 258.948 54 259.5 54C260.052 54 260.5 54.4477 260.5 55V59.5C260.5 60.0523 260.052 60.5 259.5 60.5H255.5C254.948 60.5 254.5 60.0523 254.5 59.5C254.5 58.9477 254.948 58.5 255.5 58.5H257.44C256.33 56.703 254.31 55.5 252 55.5C251.146 55.5 250.301 55.6681 249.513 55.9948C248.724 56.3214 248.007 56.8002 247.404 57.4038C246.8 58.0074 246.321 58.7239 245.995 59.5126C245.668 60.3012 245.5 61.1464 245.5 62C245.5 62.8536 245.668 63.6988 245.995 64.4874C246.321 65.2761 246.8 65.9926 247.404 66.5962C248.007 67.1998 248.724 67.6786 249.513 68.0052C250.301 68.3319 251.146 68.5 252 68.5C253.724 68.5 255.377 67.8152 256.596 66.5962C256.987 66.2057 257.62 66.2057 258.01 66.5962C258.401 66.9867 258.401 67.6199 258.01 68.0104C256.416 69.6045 254.254 70.5 252 70.5C250.884 70.5 249.778 70.2801 248.747 69.853C247.716 69.4258 246.779 68.7997 245.99 68.0104C245.2 67.2211 244.574 66.2841 244.147 65.2528C243.72 64.2215 243.5 63.1162 243.5 62C243.5 60.8838 243.72 59.7785 244.147 58.7472C244.574 57.7159 245.2 56.7789 245.99 55.9896C246.779 55.2003 247.716 54.5742 248.747 54.147Z" fill="white" fill-opacity="0.85"/>
</g>
</g>
</g>
<defs>
<filter id="filter0_d_1_100" x="0" y="0" width="367.683" height="225" filterUnits="userSpaceOnUse" color-interpolation-filters="sRGB">
<feFlood flood-opacity="0" result="BackgroundImageFix"/>
<feColorMatrix in="SourceAlpha" type="matrix" values="0 0 0 0 0 0 0 0 0 0 0 0 0 0 0 0 0 0 127 0" result="hardAlpha"/>
<feOffset dx="4" dy="38"/>
<feGaussianBlur stdDeviation="31"/>
<feColorMatrix type="matrix" values="0 0 0 0 0 0 0 0 0 0 0 0 0 0 0 0 0 0 0.5 0"/>
<feBlend mode="normal" in2="BackgroundImageFix" result="effect1_dropShadow_1_100"/>
<feBlend mode="normal" in="SourceGraphic" in2="effect1_dropShadow_1_100" result="shape"/>
</filter>
<filter id="filter1_f_1_100" x="39.619" y="20.0476" width="290.063" height="132.952" filterUnits="userSpaceOnUse" color-interpolation-filters="sRGB">
<feFlood flood-opacity="0" result="BackgroundImageFix"/>
<feBlend mode="normal" in="SourceGraphic" in2="BackgroundImageFix" result="shape"/>
<feGaussianBlur stdDeviation="14" result="effect1_foregroundBlur_1_100"/>
</filter>
<filter id="filter2_di_1_100" x="0" y="0" width="358.063" height="200.952" filterUnits="userSpaceOnUse" color-interpolation-filters="sRGB">
<feFlood flood-opacity="0" result="BackgroundImageFix"/>
<feColorMatrix in="SourceAlpha" type="matrix" values="0 0 0 0 0 0 0 0 0 0 0 0 0 0 0 0 0 0 127 0" result="hardAlpha"/>
<feOffset dx="4" dy="38"/>
<feGaussianBlur stdDeviation="31"/>
<feColorMatrix type="matrix" values="0 0 0 0 0 0 0 0 0 0 0 0 0 0 0 0 0 0 0.5 0"/>
<feBlend mode="normal" in2="BackgroundImageFix" result="effect1_dropShadow_1_100"/>
<feBlend mode="normal" in="SourceGraphic" in2="effect1_dropShadow_1_100" result="shape"/>
<feColorMatrix in="SourceAlpha" type="matrix" values="0 0 0 0 0 0 0 0 0 0 0 0 0 0 0 0 0 0 127 0" result="hardAlpha"/>
<feOffset dx="-3" dy="-4"/>
<feGaussianBlur stdDeviation="3.5"/>
<feComposite in2="hardAlpha" operator="arithmetic" k2="-1" k3="1"/>
<feColorMatrix type="matrix" values="0 0 0 0 1 0 0 0 0 1 0 0 0 0 1 0 0 0 0.15 0"/>
<feBlend mode="normal" in2="shape" result="effect2_innerShadow_1_100"/>
</filter>
<filter id="filter3_d_1_100" x="91.0503" y="56.0503" width="13.8995" height="8.94971" filterUnits="userSpaceOnUse" color-interpolation-filters="sRGB">
<feFlood flood-opacity="0" result="BackgroundImageFix"/>
<feColorMatrix in="SourceAlpha" type="matrix" values="0 0 0 0 0 0 0 0 0 0 0 0 0 0 0 0 0 0 127 0" result="hardAlpha"/>
<feOffset dx="1" dy="1"/>
<feGaussianBlur stdDeviation="0.5"/>
<feColorMatrix type="matrix" values="0 0 0 0 0 0 0 0 0 0 0 0 0 0 0 0 0 0 0.25 0"/>
<feBlend mode="normal" in2="BackgroundImageFix" result="effect1_dropShadow_1_100"/>
<feBlend mode="normal" in="SourceGraphic" in2="effect1_dropShadow_1_100" result="shape"/>
</filter>
<filter id="filter4_d_1_100" x="91.0503" y="61" width="13.8995" height="8.94971" filterUnits="userSpaceOnUse" color-interpolation-filters="sRGB">
<feFlood flood-opacity="0" result="BackgroundImageFix"/>
<feColorMatrix in="SourceAlpha" type="matrix" values="0 0 0 0 0 0 0 0 0 0 0 0 0 0 0 0 0 0 127 0" result="hardAlpha"/>
<feOffset dx="1" dy="1"/>
<feGaussianBlur stdDeviation="0.5"/>
<feColorMatrix type="matrix" values="0 0 0 0 0 0 0 0 0 0 0 0 0 0 0 0 0 0 0.25 0"/>
<feBlend mode="normal" in2="BackgroundImageFix" result="effect1_dropShadow_1_100"/>
<feBlend mode="normal" in="SourceGraphic" in2="effect1_dropShadow_1_100" result="shape"/>
</filter>
<filter id="filter5_d_1_100" x="243.5" y="53.5" width="19" height="19" filterUnits="userSpaceOnUse" color-interpolation-filters="sRGB">
<feFlood flood-opacity="0" result="BackgroundImageFix"/>
<feColorMatrix in="SourceAlpha" type="matrix" values="0 0 0 0 0 0 0 0 0 0 0 0 0 0 0 0 0 0 127 0" result="hardAlpha"/>
<feOffset dx="1" dy="1"/>
<feGaussianBlur stdDeviation="0.5"/>
<feColorMatrix type="matrix" values="0 0 0 0 0 0 0 0 0 0 0 0 0 0 0 0 0 0 0.25 0"/>
<feBlend mode="normal" in2="BackgroundImageFix" result="effect1_dropShadow_1_100"/>
<feBlend mode="normal" in="SourceGraphic" in2="effect1_dropShadow_1_100" result="shape"/>
</filter>
<radialGradient id="paint0_radial_1_100" cx="0" cy="0" r="1" gradientTransform="matrix(123.534 50.2328 -152.791 40.6138 129.386 64.0794)" gradientUnits="userSpaceOnUse">
<stop stop-color="white" stop-opacity="0.59"/>
<stop offset="0.697917" stop-color="white" stop-opacity="0"/>
<stop offset="1" stop-color="white" stop-opacity="0"/>
</radialGradient>
<radialGradient id="paint1_radial_1_100" cx="0" cy="0" r="1" gradientUnits="userSpaceOnUse" gradientTransform="translate(263.206 108.167) rotate(-115.994) scale(107.908 564.127)">
<stop stop-opacity="0.23"/>
<stop offset="0.64807" stop-opacity="0"/>
</radialGradient>
<radialGradient id="paint2_radial_1_100" cx="0" cy="0" r="1" gradientTransform="matrix(123.534 50.2328 -152.791 40.6138 119.767 40.0317)" gradientUnits="userSpaceOnUse">
<stop stop-color="white" stop-opacity="0.59"/>
<stop offset="0.697917" stop-color="white" stop-opacity="0"/>
<stop offset="1" stop-color="white" stop-opacity="0"/>
</radialGradient>
<radialGradient id="paint3_radial_1_100" cx="0" cy="0" r="1" gradientUnits="userSpaceOnUse" gradientTransform="translate(260 91.3333) rotate(-101.041) scale(66.9697 219.605)">
<stop stop-opacity="0.23"/>
<stop offset="0.861815" stop-opacity="0"/>
</radialGradient>
<clipPath id="clip0_1_100">
<rect width="20" height="20" fill="white" transform="translate(87 52)"/>
</clipPath>
<clipPath id="clip1_1_100">
<rect width="20" height="20" fill="white" transform="translate(242 52)"/>
</clipPath>
</defs>
</svg>
