<svg width="152" height="157" viewBox="0 0 152 157" fill="none" xmlns="http://www.w3.org/2000/svg">
<path d="M94.8257 25.6332L111.187 18.3496L106.105 51.0542L135.898 63.2963L109.918 82.7105L122.607 113.131L109.437 110.948" stroke="black" stroke-width="0.679185" stroke-linecap="round" stroke-linejoin="round"/>
<path d="M53.3833 29.4646L62.9491 4.61926L80.8932 30.2462" stroke="black" stroke-width="0.679185" stroke-linecap="round" stroke-linejoin="round"/>
<path d="M47.6781 117.445L40.3697 120.698L30.8642 124.93L35.9439 92.2258L6.15234 79.9837L32.1296 60.5695L19.4434 30.1487L35.4705 32.8077" stroke="black" stroke-width="0.679185" stroke-linecap="round" stroke-linejoin="round"/>
<path d="M120.904 40.6342L118.715 41.3876L118.325 43.7362L116.954 41.8205L114.673 42.1637L116.013 40.2262L114.993 38.0882L117.193 38.8074L118.843 37.1421L118.861 39.5258L120.904 40.6342Z" fill="black"/>
<path d="M93.6094 34.5969C93.7018 34.3823 93.8176 34.1792 93.9545 33.9916C94.9692 32.6453 98.1892 32.9105 98.1892 37.472C98.1892 42.0334 98.5501 45.1737 98.6234 46.52C98.6966 47.8663 98.5479 53.3247 98.6234 55.94C98.6989 58.5554 99.7091 66.2415 99.4916 69.1579L99.62 69.296C100.093 68.8202 100.526 68.3717 100.891 68.0121C102.346 66.5855 101.765 65.0099 105.906 63.5825C110.047 62.1551 113.099 63.8828 113.099 65.0099C113.099 66.137 109.307 67.9365 108.795 69.1392C108.284 70.342 106.036 72.6656 105.236 73.8683C104.435 75.0711 104.783 80.9078 101.733 83.3102C100.276 84.4561 98.6702 86.58 96.9012 88.6041C96.9873 88.9161 102.651 108.791 104.411 113.556L104.481 113.758C97.05 116.609 86.9715 126.595 83.4667 128.003L83.4532 127.676C83.2704 127.043 82.7578 125.224 82.0987 122.868C80.1885 116.037 77.0341 104.694 77.0341 104.694C77.0628 103.794 77.0817 103.092 77.0817 102.673C77.0817 99.709 78.4075 99.138 78.8469 92.6336C79.2863 86.1292 76.0874 72.0946 72.6634 67.417C72.6634 67.417 72.4958 66.8444 72.2104 65.9147C72.2104 65.9147 72.9375 61.5693 73.3875 59.5772C73.8375 57.5851 74.2875 51.4808 75.509 49.2921C76.5789 47.4044 77.236 45.2978 77.4343 43.12C77.4992 41.5927 79.1632 35.9128 79.6917 34.7857C79.8863 34.3503 80.2311 34.0057 80.6587 33.8193C81.0864 33.6329 81.566 33.6181 82.0036 33.7779L82.2474 33.8231C82.4556 32.4394 82.7358 31.0682 83.087 29.7157C83.7982 27.4833 85.2682 25.676 87.9024 26.3975L88.0096 26.4131C88.2132 25.8715 88.5171 25.3761 88.9043 24.9545C90.751 23.1192 92.8831 24.2923 93.3799 27.6697C93.6798 29.9651 93.7567 32.2857 93.6094 34.5969Z" fill="#FFD997"/>
<path d="M101.059 14.1235L97.0173 14.4963L95.4265 18.3495L93.8364 14.4963L89.7949 14.1235L92.8527 11.3693L91.9474 7.28601L95.4265 9.43725L98.9055 7.28601L98.001 11.3693L101.059 14.1235Z" fill="#81F8F8"/>
<path d="M83.4566 127.676L83.4702 128.003C83.2978 128.076 83.1176 128.129 82.9334 128.159C82.5238 128.255 82.0988 128.257 81.6884 128.164C81.2781 128.072 80.8925 127.887 80.5589 127.624C79.5094 126.624 80.0017 124.51 82.044 122.886L82.1021 122.87C82.7612 125.224 83.2739 127.046 83.4566 127.676Z" fill="black"/>
<path d="M58.3012 41.9578C58.7834 41.8005 59.2938 41.7578 59.7942 41.8327C60.2946 41.9077 60.7722 42.0984 61.1913 42.3907C63.5016 43.7549 65.2359 48.9575 67.3823 52.7951C69.035 55.7482 71.2744 62.8127 72.2189 65.9124C72.5012 66.8422 72.6719 67.4147 72.6719 67.4147C76.0958 72.0947 79.2977 86.1261 78.8553 92.6313C78.4129 99.1365 77.0894 99.7059 77.0894 102.671C77.0894 103.09 77.0712 103.792 77.0426 104.692C76.8568 110.116 76.2121 122.663 76.2007 122.882L52.4182 114.861L53.365 100.536C53.365 100.536 44.8901 91.9956 42.8494 89.3608C40.8086 86.7259 34.8139 82.0537 33.2812 80.2621C31.9634 78.5163 30.74 76.6966 29.6165 74.8114C28.9053 73.8083 24.6335 70.9255 24.5051 69.8553C24.3768 68.7851 24.8298 67.247 28.9053 66.9147C32.9808 66.5824 36.1714 72.4706 37.2699 73.0057C38.3684 73.5408 41.1332 75.4705 43.0117 75.5384L43.328 75.5243C43.208 72.5416 42.9566 66.2985 42.9203 64.4881C42.8705 62.0826 42.0438 59.8315 42.0438 56.2646C42.0438 52.6976 39.6036 44.9905 39.5304 42.8634C39.4571 40.7363 37.2654 37.2474 37.1899 34.6079C37.1538 34.2053 37.2185 33.7999 37.3776 33.4305C37.5367 33.0611 37.785 32.7401 38.0986 32.4983C38.4123 32.2564 38.7808 32.1019 39.1688 32.0494C39.5569 31.9969 39.9515 32.0482 40.3148 32.1985L40.3858 32.1743C39.92 30.658 39.8467 29.2204 41.0079 28.4256C43.2208 26.9093 45.8399 27.8476 47.8641 32.1493L47.9637 32.1985C48.798 31.2742 50.4356 31.3358 51.5002 31.771C54.3752 32.9496 55.1883 36.373 56.1381 37.8379C56.9317 39.1692 57.6539 40.5446 58.3012 41.9578Z" fill="#FFD997"/>
<path d="M77.7863 123.419L74.3337 137.834C74.3337 137.834 76.9007 143.096 77.7863 152.819H37.0435C37.0435 152.819 36.9544 135.045 47.8045 129.667L50.6637 114.269L52.416 114.861L76.1985 122.882L77.7863 123.419Z" fill="#81F8F8"/>
<path d="M31.3395 47.3437L25.6189 48.201L23.6491 53.8138L21.0934 48.4576L15.3154 48.2548L19.4558 44.0904L17.8575 38.3503L22.9719 41.131L27.7616 37.788L26.7801 43.6715L31.3395 47.3437Z" fill="black"/>
<path d="M76.1963 122.884L77.7863 123.419L74.3337 137.834C74.3337 137.834 76.9007 143.096 77.7863 152.819H37.0435C37.0435 152.819 36.9544 135.045 47.8045 129.667L50.6637 114.269L52.416 114.861L76.1985 122.882" stroke="black" stroke-width="0.679185" stroke-linecap="round" stroke-linejoin="round"/>
<path d="M57.527 116.86L54.4609 128.157" stroke="black" stroke-width="0.679185" stroke-linecap="round" stroke-linejoin="round"/>
<path d="M64.4247 119.187L61.0498 130.783" stroke="black" stroke-width="0.679185" stroke-linecap="round" stroke-linejoin="round"/>
<path d="M71.6544 121.628L68.8027 132.457" stroke="black" stroke-width="0.679185" stroke-linecap="round" stroke-linejoin="round"/>
<path d="M52.4129 114.861L53.3597 100.536C53.3597 100.536 44.8901 91.9957 42.8501 89.3608C40.8101 86.726 34.8139 82.0538 33.2812 80.2621C31.9634 78.5164 30.74 76.6967 29.6165 74.8115C28.9053 73.8084 24.6335 70.9255 24.5051 69.8554C24.3768 68.7852 24.8298 67.2471 28.9053 66.9148C32.9808 66.5825 36.1714 72.4707 37.2699 73.0058C38.3684 73.5409 41.1332 75.4706 43.0117 75.5385" stroke="black" stroke-width="0.679185" stroke-linecap="round" stroke-linejoin="round"/>
<path d="M58.3006 41.9609C58.1196 42.0325 57.9546 42.1416 57.8158 42.2815C57.677 42.4214 57.5674 42.5891 57.4936 42.7744C57.4199 42.9596 57.3836 43.1585 57.3869 43.3588C57.3903 43.5591 57.4332 43.7565 57.5132 43.939C58.1277 45.733 59.5562 49.1089 59.5562 49.8974C59.7725 52.1997 60.4131 54.438 61.4437 56.4916C62.7725 58.9727 62.466 62.3478 63.384 65.407" stroke="black" stroke-width="0.679185" stroke-linecap="round" stroke-linejoin="round"/>
<path d="M76.1959 122.884C76.2057 122.665 76.852 110.118 77.0378 104.694C77.0664 103.794 77.0853 103.092 77.0853 102.673C77.0853 99.709 78.4111 99.1381 78.8505 92.6337C79.2899 86.1293 76.091 72.0947 72.6671 67.4171C72.6671 67.4171 72.4994 66.8445 72.2141 65.9148C71.2696 62.8151 69.0302 55.7506 67.3775 52.7975C65.2326 48.9599 63.4983 43.7573 61.1865 42.3931C60.7674 42.1008 60.2898 41.9101 59.7894 41.8351C59.289 41.7601 58.7786 41.8029 58.2964 41.9602" stroke="black" stroke-width="0.679185" stroke-linecap="round" stroke-linejoin="round"/>
<path d="M42.8735 83.5755C41.6701 81.4781 43.402 77.1351 43.402 77.1351L43.3341 75.5244C43.214 72.5417 42.9626 66.2985 42.9264 64.4882C42.8765 62.0826 42.0498 59.8316 42.0498 56.2646C42.0498 52.6977 39.6036 44.9905 39.5304 42.8634C39.4572 40.7364 37.2654 37.2474 37.1899 34.6079C37.1538 34.2053 37.2185 33.7999 37.3776 33.4305C37.5367 33.0611 37.785 32.7401 38.0987 32.4983C38.4123 32.2565 38.7808 32.1019 39.1688 32.0494C39.5569 31.9969 39.9515 32.0482 40.3148 32.1985" stroke="black" stroke-width="0.679185" stroke-linecap="round" stroke-linejoin="round"/>
<path d="M46.6556 65.1043C46.7054 63.5078 47.0259 61.9328 47.6024 60.4508C47.6024 60.4508 46.7334 53.3458 46.1792 49.9988C45.625 46.6518 42.941 38.3245 41.9912 36.0368C41.5443 34.9557 40.8066 33.5291 40.3853 32.1672C39.9195 30.6509 39.8463 29.2133 41.0075 28.4185C43.2204 26.9022 45.8395 27.8405 47.8636 32.1422" stroke="black" stroke-width="0.679185" stroke-linecap="round" stroke-linejoin="round"/>
<path d="M58.301 41.961C57.6537 40.5464 56.9316 39.1697 56.1379 37.8371C55.1881 36.3699 54.375 32.9488 51.4999 31.7703C50.4354 31.335 48.7978 31.2734 47.9635 32.1977C47.2598 32.9777 47.1262 34.4542 48.3923 37.0025C51.1617 42.5725 51.4735 44.939 52.4233 46.733C53.3731 48.527 54.3984 55.8785 55.0311 58.901C55.6638 61.9235 55.1881 63.3088 55.6645 64.698" stroke="black" stroke-width="0.679185" stroke-linecap="round" stroke-linejoin="round"/>
<path d="M72.2168 65.9124C72.2168 65.9124 72.9439 61.567 73.3938 59.5749C73.8438 57.5828 74.2938 51.4785 75.5154 49.2898C76.5852 47.4022 77.2423 45.2955 77.4406 43.1177C77.5056 41.5905 79.1696 35.9105 79.6981 34.7834C79.8926 34.3481 80.2375 34.0034 80.6651 33.817C81.0927 33.6306 81.5723 33.6159 82.0099 33.7756" stroke="black" stroke-width="0.679185" stroke-linecap="round" stroke-linejoin="round"/>
<path d="M77.7002 57.7824C78.1532 57.518 79.8187 56.9884 79.8187 56.4564C79.8187 55.9245 79.3657 51.0112 79.8187 48.2602C80.2717 45.5091 81.0403 40.8611 81.3597 39.2013C81.5371 38.2801 81.8882 35.9752 82.2544 33.8193C82.4624 32.4355 82.7427 31.0643 83.0939 29.7118C83.8051 27.4794 85.2751 25.6722 87.9093 26.3937" stroke="black" stroke-width="0.679185" stroke-linecap="round" stroke-linejoin="round"/>
<path d="M84.7206 55.0431C84.7206 55.0431 84.4352 45.7229 84.7206 43.6684C85.006 41.6139 86.4963 37.3559 86.5673 35.2998C86.6247 33.629 86.9176 29.0543 88.0162 26.4078C88.2198 25.8661 88.5237 25.3707 88.9108 24.9492C90.7576 23.1138 92.8897 24.287 93.3865 27.6644C93.6856 29.9606 93.7614 32.282 93.613 34.5939" stroke="black" stroke-width="0.679185" stroke-linecap="round" stroke-linejoin="round"/>
<path d="M85.855 54.9401C87.1169 54.9131 88.3786 55.0036 89.6247 55.2107" stroke="black" stroke-width="0.679185" stroke-linecap="round" stroke-linejoin="round"/>
<path d="M93.6092 58.4845C93.6092 58.4845 92.2502 56.2412 91.459 56.0165C91.459 56.0165 91.8931 50.5987 92.1098 48.261C92.3265 45.9234 92.3061 44.751 92.5341 41.787C92.7327 39.1982 92.895 36.2147 93.6092 34.604C93.7016 34.3894 93.8174 34.1863 93.9543 33.9987C94.969 32.6524 98.1891 32.9176 98.1891 37.4791C98.1891 42.0405 98.5499 45.1808 98.6232 46.5271C98.6964 47.8733 98.5477 53.3318 98.6232 55.9471C98.6987 58.5625 99.7089 66.2486 99.4914 69.165" stroke="black" stroke-width="0.679185" stroke-linecap="round" stroke-linejoin="round"/>
<path d="M84.155 77.7761C81.0527 80.205 79.7708 85.5075 80.1973 88.6017" stroke="black" stroke-width="0.679185" stroke-linecap="round" stroke-linejoin="round"/>
<path d="M91.011 77.7762C91.082 76.7193 93.0435 73.4168 95.0057 72.817C95.3758 72.6971 95.7307 72.5319 96.0627 72.3248C97.3562 71.4596 98.5489 70.4433 99.6173 69.2961C100.091 68.8203 100.523 68.3718 100.889 68.0122C102.343 66.5856 101.762 65.01 105.903 63.5826C110.045 62.1552 113.096 63.8829 113.096 65.01C113.096 66.1371 109.304 67.9365 108.793 69.1393C108.282 70.3421 106.033 72.6657 105.233 73.8684C104.433 75.0712 104.78 80.9079 101.731 83.3103C100.273 84.4562 98.6675 86.5801 96.8985 88.6042C94.9627 90.8147 92.8359 92.9067 90.4954 93.4745C87.6391 94.1373 84.6456 93.6479 82.127 92.1064" stroke="black" stroke-width="0.679185" stroke-linecap="round" stroke-linejoin="round"/>
<path d="M77.0376 104.692C77.0376 104.692 80.192 116.037 82.1021 122.866C82.7613 125.222 83.2739 127.041 83.4566 127.674" stroke="black" stroke-width="0.679185" stroke-linecap="round" stroke-linejoin="round"/>
<path d="M96.9019 88.6018C96.9879 88.9138 102.651 108.789 104.412 113.553" stroke="black" stroke-width="0.679185" stroke-linecap="round" stroke-linejoin="round"/>
<path d="M80.5089 127.676L91.4564 152.819H127.394L109.425 113.21C108.042 112.78 106.344 113.045 104.481 113.756C97.0495 116.607 86.971 126.592 83.4663 128C83.294 128.074 83.1138 128.127 82.9295 128.156C82.5199 128.253 82.0948 128.255 81.6844 128.163C81.274 128.07 80.8884 127.885 80.555 127.621C79.5055 126.622 79.9978 124.508 82.0401 122.884" stroke="black" stroke-width="0.679185" stroke-linecap="round" stroke-linejoin="round"/>
<path d="M31.3395 47.3437L25.6189 48.201L23.6491 53.8138L21.0934 48.4576L15.3154 48.2548L19.4558 44.0904L17.8575 38.3503L22.9719 41.131L27.7616 37.788L26.7801 43.6715L31.3395 47.3437Z" stroke="black" stroke-width="0.679185" stroke-linecap="round" stroke-linejoin="round"/>
<path d="M95.4265 18.3495L93.8364 14.4963L89.7949 14.1235L92.8527 11.3693L91.9474 7.28601L95.4265 9.43725L98.9055 7.28601L98.001 11.3693L101.059 14.1235L97.0173 14.4963L95.4265 18.3495Z" stroke="black" stroke-width="0.679185" stroke-linecap="round" stroke-linejoin="round"/>
<path d="M42.6291 15.5938L42.6396 12.8342L40.2886 11.5207L42.8337 10.6775L43.3146 7.96155L44.879 10.2025L47.526 9.83745L45.9488 12.0643L47.1024 14.5533L44.5649 13.6906L42.6291 15.5938Z" stroke="black" stroke-width="0.679185" stroke-linecap="round" stroke-linejoin="round"/>
<path d="M114.673 42.1637L116.013 40.2262L114.993 38.0882L117.193 38.8074L118.843 37.1421L118.861 39.5258L120.904 40.6342L118.715 41.3876L118.325 43.7362L116.954 41.8205L114.673 42.1637Z" stroke="black" stroke-width="0.679185" stroke-linecap="round" stroke-linejoin="round"/>
<path d="M38.667 33.7585C40.5001 33.2375 40.9841 35.8528 41.5466 37.3465L39.2816 38.0922" stroke="black" stroke-width="0.679185" stroke-linecap="round" stroke-linejoin="round"/>
<path d="M58.8472 43.3822C60.4614 42.6692 61.2201 45.0014 61.9132 46.2931L60.1918 46.7276" stroke="black" stroke-width="0.679185" stroke-linecap="round" stroke-linejoin="round"/>
<path d="M49.1299 33.4074C50.8015 32.4714 51.8479 34.9105 52.7161 36.2342L50.1491 37.2177" stroke="black" stroke-width="0.679185" stroke-linecap="round" stroke-linejoin="round"/>
<path d="M42.2661 29.6322C45.3027 28.6081 45.3684 32.5401 45.9309 34.0322L43.1374 35.0462" stroke="black" stroke-width="0.679185" stroke-linecap="round" stroke-linejoin="round"/>
<path d="M25.7051 70.0012C26.9372 69.0878 28.1483 70.4388 29.838 72.2336L29.32 72.9145" stroke="black" stroke-width="0.679185" stroke-linecap="round" stroke-linejoin="round"/>
<path d="M111.818 65.3718C109.824 65.3718 107.828 67.7446 107.828 67.7446L108.378 68.1042" stroke="black" stroke-width="0.679185" stroke-linecap="round" stroke-linejoin="round"/>
<path d="M91.6807 73.2685C93.0941 72.7506 94.5689 72.4331 96.0649 72.3247" stroke="black" stroke-width="0.679185" stroke-linecap="round" stroke-linejoin="round"/>
</svg>
