<svg width="153" height="157" viewBox="0 0 153 157" fill="none" xmlns="http://www.w3.org/2000/svg">
<path d="M144.928 33.2188V122.851C144.928 126.474 142.065 129.413 138.534 129.413H14.0167C10.4842 129.413 7.62207 126.474 7.62207 122.851V33.2188C7.62207 29.5957 10.4842 26.6582 14.0167 26.6582H138.534C142.064 26.6582 144.928 29.5957 144.928 33.2188Z" fill="#FFD997"/>
<path d="M14.0151 112.982L14.0227 33.2205L138.534 33.2283L138.524 112.982H14.0151Z" fill="white"/>
<path d="M138.524 113.329L13.7755 113.227C13.6151 113.06 13.6797 113.224 13.6835 33.2212C13.6835 33.0301 13.8363 32.8733 14.0225 32.8733L138.532 32.8811C138.722 32.8811 138.871 33.0425 138.871 33.229L138.863 112.982C138.863 113.174 138.71 113.33 138.524 113.33V113.329ZM14.3538 112.634H138.185L138.193 33.5761L14.3614 33.5683L14.3538 112.634Z" fill="black"/>
<path d="M95.7059 152.127H56.8433L60.6106 129.413H91.9363L95.7059 152.127Z" fill="white"/>
<path d="M138.533 26.3103H14.0148C10.3015 26.3103 7.28125 29.4101 7.28125 33.2212V122.851C7.28125 126.662 10.3015 129.761 14.0148 129.761H60.2099L56.5574 151.779H37.3354C37.1492 151.779 36.9965 151.936 36.9965 152.127C36.9965 152.318 37.1492 152.475 37.3354 152.475H115.212C115.398 152.475 115.551 152.318 115.551 152.127C115.551 151.936 115.398 151.779 115.212 151.779H95.9884L92.3359 129.761H138.532C142.246 129.761 145.266 126.664 145.266 122.853V33.2204C145.266 29.4093 142.246 26.3096 138.532 26.3096L138.533 26.3103ZM95.3044 151.78H57.2459L60.8985 129.762H91.6526L95.3052 151.78H95.3044ZM144.589 122.853C144.589 126.28 141.872 129.068 138.533 129.068H14.0148C10.6762 129.068 7.95917 126.28 7.95917 122.853V33.2204C7.95917 29.7938 10.6762 27.0053 14.0148 27.0053H138.533C141.872 27.0053 144.589 29.7938 144.589 33.2204V122.853Z" fill="black"/>
<path d="M93.2445 137.339L60.4072 130.645L60.6109 129.413H91.9366L93.2445 137.339Z" fill="black"/>
<path d="M52.4792 124.04H36.4698C36.0631 124.04 35.7334 124.379 35.7334 124.796V138.288C35.7334 138.705 36.0631 139.044 36.4698 139.044H52.4792C52.8859 139.044 53.2157 138.705 53.2157 138.288V124.796C53.2157 124.379 52.8859 124.04 52.4792 124.04Z" fill="white"/>
<path d="M52.4801 139.392H36.4699C35.8771 139.392 35.3945 138.897 35.3945 138.288V124.795C35.3945 124.187 35.8764 123.692 36.4699 123.692H52.4801C53.0729 123.692 53.5555 124.186 53.5555 124.795V138.288C53.5555 138.896 53.0737 139.392 52.4801 139.392ZM36.4699 124.388C36.2518 124.388 36.0725 124.572 36.0725 124.796V138.289C36.0725 138.513 36.2511 138.697 36.4699 138.697H52.4801C52.6982 138.697 52.8776 138.513 52.8776 138.289V124.796C52.8776 124.572 52.699 124.388 52.4801 124.388H36.4699Z" fill="black"/>
<path d="M49.7899 128.738H38.7828C38.5966 128.738 38.4438 128.582 38.4438 128.39C38.4438 128.199 38.5966 128.043 38.7828 128.043H49.7899C49.9761 128.043 50.1288 128.199 50.1288 128.39C50.1288 128.582 49.9761 128.738 49.7899 128.738Z" fill="black"/>
<path d="M47.0385 131.89H38.7818C38.5956 131.89 38.4429 131.734 38.4429 131.542C38.4429 131.351 38.5956 131.195 38.7818 131.195H47.0385C47.2247 131.195 47.3774 131.351 47.3774 131.542C47.3774 131.734 47.2247 131.89 47.0385 131.89Z" fill="black"/>
<path d="M49.7899 135.04H38.7828C38.5966 135.04 38.4438 134.883 38.4438 134.692C38.4438 134.501 38.5966 134.344 38.7828 134.344H49.7899C49.9761 134.344 50.1288 134.501 50.1288 134.692C50.1288 134.883 49.9761 135.04 49.7899 135.04Z" fill="black"/>
<path d="M76.2743 117.476C78.2343 117.476 79.8235 119.107 79.8235 121.119C79.8235 123.13 78.2343 124.761 76.2743 124.761C74.3143 124.761 72.7251 123.13 72.7251 121.119C72.7251 119.107 74.3143 117.476 76.2743 117.476Z" fill="white"/>
<path d="M76.2739 125.109C74.1315 125.109 72.3857 123.32 72.3857 121.119C72.3857 118.917 74.1292 117.13 76.2739 117.13C78.4186 117.13 80.1621 118.92 80.1621 121.119C80.1621 123.317 78.4186 125.109 76.2739 125.109ZM76.2739 117.825C74.5039 117.825 73.0637 119.303 73.0637 121.119C73.0637 122.934 74.5039 124.413 76.2739 124.413C78.0439 124.413 79.4841 122.935 79.4841 121.119C79.4841 119.302 78.0439 117.825 76.2739 117.825Z" fill="black"/>
<path d="M78.6763 28.2946C79.431 28.2946 80.0436 28.9225 80.0436 29.6978C80.0436 30.4731 79.4318 31.101 78.6763 31.101C77.9209 31.101 77.3091 30.4731 77.3091 29.6978C77.3091 28.9225 77.9209 28.2946 78.6763 28.2946Z" fill="black"/>
<path d="M73.4237 28.7549C73.9314 28.7549 74.3426 29.1769 74.3426 29.6979C74.3426 30.2189 73.9314 30.6409 73.4237 30.6409C72.916 30.6409 72.5049 30.2189 72.5049 29.6979C72.5049 29.1769 72.916 28.7549 73.4237 28.7549Z" fill="black"/>
<path d="M116.201 26.4766H114.135V33.3484H116.201V26.4766Z" fill="black"/>
<path d="M72.5156 65.5305H19.6333C19.1611 65.5305 18.7783 65.9234 18.7783 66.408V104.374C18.7783 104.86 19.1611 105.252 19.6333 105.252H72.5156C72.9878 105.252 73.3706 104.86 73.3706 104.374V66.408C73.3706 65.9234 72.9878 65.5305 72.5156 65.5305Z" fill="white"/>
<path d="M72.5134 105.6H19.6334C18.9745 105.6 18.4395 105.049 18.4395 104.374V66.4095C18.4395 65.7332 18.976 65.1841 19.6334 65.1841H72.5134C73.1724 65.1841 73.7074 65.7348 73.7074 66.4095V104.374C73.7074 105.051 73.1708 105.6 72.5134 105.6ZM19.6334 65.8783C19.3492 65.8783 19.1174 66.1162 19.1174 66.4079V104.372C19.1174 104.664 19.3492 104.902 19.6334 104.902H72.5134C72.7977 104.902 73.0295 104.664 73.0295 104.372V66.4079C73.0295 66.1162 72.7977 65.8783 72.5134 65.8783H19.6334Z" fill="black"/>
<path d="M32.8601 89.0583C38.0543 89.0583 42.2651 84.7371 42.2651 79.4058C42.2651 74.0749 38.0543 69.7533 32.8601 69.7533C27.6659 69.7533 23.4551 74.0749 23.4551 79.4058C23.4551 84.7371 27.6659 89.0583 32.8601 89.0583Z" fill="#81F8F8"/>
<path d="M27.6035 87.4117V83.7441C27.6035 82.44 28.6356 81.3831 29.9063 81.3831H35.8146C37.0876 81.3831 38.1174 82.44 38.1174 83.7441V87.4117C34.613 89.6089 31.1094 89.6089 27.6035 87.4117Z" fill="#FFD997"/>
<path d="M37.8349 87.4117V83.7441C37.8349 82.6022 36.9289 81.6724 35.8148 81.6724H29.9065C28.7916 81.6724 27.8865 82.6022 27.8865 83.7441V87.4117C27.8865 87.7954 27.3218 87.7954 27.3218 87.4117V83.7441C27.3218 82.2832 28.4815 81.0929 29.9065 81.0929H35.8148C37.2398 81.0929 38.3995 82.2816 38.3995 83.7441V87.4117C38.3995 87.7954 37.8349 87.7954 37.8349 87.4117Z" fill="black"/>
<path d="M32.86 81.383C35.096 81.383 36.9086 79.5227 36.9086 77.2281C36.9086 74.9333 35.096 73.073 32.86 73.073C30.6241 73.073 28.8115 74.9333 28.8115 77.2281C28.8115 79.5227 30.6241 81.383 32.86 81.383Z" fill="#FFD997"/>
<path d="M32.8603 81.6724C30.4731 81.6724 28.5298 79.678 28.5298 77.228C28.5298 74.778 30.4731 72.7836 32.8603 72.7836C35.2474 72.7836 37.1907 74.778 37.1907 77.228C37.1907 79.678 35.2474 81.6724 32.8603 81.6724ZM32.8603 73.3647C30.7832 73.3647 29.0945 75.0978 29.0945 77.2296C29.0945 79.3613 30.7832 81.0945 32.8603 81.0945C34.9373 81.0945 36.6261 79.3613 36.6261 77.2296C36.6261 75.0978 34.9373 73.3647 32.8603 73.3647Z" fill="black"/>
<path d="M32.8601 89.35C27.518 89.35 23.1724 84.8899 23.1724 79.4073C23.1724 73.9248 27.518 69.4647 32.8601 69.4647C38.2021 69.4647 42.5478 73.9248 42.5478 79.4073C42.5478 84.8899 38.2021 89.35 32.8601 89.35ZM32.8601 70.045C27.8289 70.045 23.7378 74.2461 23.7378 79.4073C23.7378 84.5686 27.8312 88.7696 32.8601 88.7696C37.889 88.7696 41.9824 84.5686 41.9824 79.4073C41.9824 74.2461 37.889 70.045 32.8601 70.045Z" fill="black"/>
<path d="M46.9971 72.516H67.5072C68.1615 72.516 68.6913 73.0597 68.6913 73.7305C68.6913 74.4013 68.1608 74.9449 67.5072 74.9449H46.9971C46.3427 74.9449 45.813 74.4013 45.813 73.7305C45.813 73.0597 46.3435 72.516 46.9971 72.516Z" fill="white"/>
<path d="M67.5075 75.2353H46.9951C46.1872 75.2353 45.5283 74.5606 45.5283 73.7299C45.5283 72.8992 46.1857 72.2245 46.9951 72.2245H67.5075C68.3154 72.2245 68.972 72.8992 68.972 73.7299C68.972 74.5606 68.3146 75.2353 67.5075 75.2353ZM46.9951 72.8064C46.4981 72.8064 46.093 73.2221 46.093 73.7322C46.093 74.2424 46.4981 74.6581 46.9951 74.6581H67.5075C68.0046 74.6581 68.4074 74.2424 68.4074 73.7322C68.4074 73.2221 68.0023 72.8064 67.5075 72.8064H46.9951Z" fill="black"/>
<path d="M46.9971 78.1921H63.7361C64.3904 78.1921 64.9201 78.7357 64.9201 79.4065C64.9201 80.0773 64.3897 80.621 63.7361 80.621H46.9971C46.3427 80.621 45.813 80.0773 45.813 79.4065C45.813 78.7357 46.3435 78.1921 46.9971 78.1921Z" fill="white"/>
<path d="M63.7361 80.9111H46.9956C46.1877 80.9111 45.5288 80.2364 45.5288 79.4057C45.5288 78.575 46.1862 77.9004 46.9956 77.9004H63.7361C64.544 77.9004 65.2006 78.575 65.2006 79.4057C65.2006 80.2364 64.5432 80.9111 63.7361 80.9111ZM46.9956 78.4822C46.4986 78.4822 46.0935 78.8979 46.0935 79.4081C46.0935 79.9182 46.4986 80.3339 46.9956 80.3339H63.7361C64.2332 80.3339 64.636 79.9182 64.636 79.4081C64.636 78.8979 64.2309 78.4822 63.7361 78.4822H46.9956Z" fill="black"/>
<path d="M46.9971 83.8673H65.747C66.4014 83.8673 66.9311 84.411 66.9311 85.0818C66.9311 85.7526 66.4006 86.2962 65.747 86.2962H46.9971C46.3427 86.2962 45.813 85.7526 45.813 85.0818C45.813 84.411 46.3435 83.8673 46.9971 83.8673Z" fill="white"/>
<path d="M65.7471 86.5864H46.9956C46.1877 86.5864 45.5288 85.9117 45.5288 85.081C45.5288 84.2503 46.1862 83.5756 46.9956 83.5756H65.7471C66.555 83.5756 67.2139 84.2503 67.2139 85.081C67.2139 85.9117 66.5565 86.5864 65.7471 86.5864ZM46.9956 84.1574C46.4986 84.1574 46.0935 84.5732 46.0935 85.0833C46.0935 85.5934 46.4986 86.0092 46.9956 86.0092H65.7471C66.2441 86.0092 66.6492 85.5934 66.6492 85.0833C66.6492 84.5732 66.2441 84.1574 65.7471 84.1574H46.9956Z" fill="black"/>
<path d="M30.9883 95.7694L28.7812 95.3326L27.6929 93.3131C27.5348 93.0175 27.1168 93.0175 26.9588 93.3131L25.8704 95.3326L23.6619 95.7694C23.3381 95.8318 23.2097 96.2389 23.4339 96.4862L24.9683 98.171L24.6917 100.461C24.6522 100.793 24.982 101.052 25.2906 100.903L27.3281 99.9252L29.3634 100.903C29.6651 101.05 29.9988 100.794 29.9585 100.461L29.6818 98.171L31.2163 96.4862C31.4412 96.2389 31.312 95.8318 30.9883 95.7694Z" fill="black"/>
<path d="M40.3616 95.7694L38.1546 95.3326L37.0662 93.3131C36.9082 93.0175 36.4902 93.0175 36.3321 93.3131L35.2438 95.3326L33.0367 95.7694C32.7145 95.831 32.583 96.2381 32.8087 96.4862L34.3432 98.171L34.0665 100.461C34.0262 100.789 34.353 101.052 34.6631 100.903L36.7007 99.9252L38.736 100.903C39.0384 101.05 39.3706 100.794 39.331 100.461L39.0544 98.171L40.5888 96.4862C40.8146 96.2374 40.6823 95.831 40.3608 95.7694H40.3616Z" fill="black"/>
<path d="M49.7367 95.7694L47.5296 95.3326L46.4413 93.3131C46.2832 93.0175 45.8652 93.0175 45.7072 93.3131L44.6188 95.3326L42.4118 95.7694C42.0903 95.831 41.9581 96.2374 42.1846 96.4862L43.719 98.171L43.4424 100.461C43.4021 100.789 43.7281 101.052 44.039 100.903L46.0765 99.9252L48.1118 100.903C48.4135 101.05 48.7464 100.794 48.7069 100.461L48.4302 98.171L49.9647 96.4862C50.1896 96.2381 50.0597 95.831 49.7367 95.7694ZM47.9689 97.827C47.7865 98.0314 47.8405 98.0181 48.1118 100.268L46.2513 99.3745C46.002 99.2567 46.0051 99.3207 44.0336 100.268L44.286 98.1749C44.3224 97.9042 44.2822 97.9432 42.7743 96.2873C44.8294 95.8793 44.9441 95.9238 45.0786 95.6726L46.0727 93.8272L47.0668 95.6726C47.1968 95.9152 47.2028 95.8575 49.3711 96.2873L47.9682 97.8278L47.9689 97.827Z" fill="black"/>
<path d="M59.1127 95.7694L56.9057 95.3326L55.8174 93.3131C55.6593 93.0175 55.2413 93.0175 55.0832 93.3131L53.9949 95.3326L51.7878 95.7694C51.4656 95.831 51.3349 96.2381 51.5598 96.4862L53.0943 98.171L52.8176 100.461C52.7774 100.791 53.1049 101.052 53.4142 100.903L55.451 99.9252L57.4863 100.903C57.7888 101.05 58.1217 100.793 58.0814 100.461L57.8048 98.171L59.3392 96.4862C59.5642 96.2389 59.435 95.8318 59.1112 95.7694H59.1127ZM57.345 97.827C57.1618 98.0314 57.2165 98.0181 57.4878 100.268L55.6274 99.3745C55.3834 99.2599 55.41 99.3074 53.4097 100.268L53.662 98.1749C53.6985 97.9042 53.6582 97.9424 52.1504 96.2873C54.2054 95.8793 54.3202 95.9238 54.4547 95.6726L55.4488 93.8272L56.4428 95.6726C56.5736 95.9152 56.5789 95.8567 58.7479 96.2873L57.345 97.8278V97.827Z" fill="black"/>
<path d="M68.4902 95.7694L66.2832 95.3326L65.1949 93.3131C65.0368 93.0175 64.6188 93.0175 64.4607 93.3131L63.3724 95.3326L61.1638 95.7694C60.8401 95.8318 60.7116 96.2389 60.9358 96.4862L62.4703 98.171L62.1936 100.461C62.1534 100.794 62.484 101.052 62.7925 100.903L64.8301 99.9252L66.8654 100.903C67.1678 101.05 67.5 100.794 67.4604 100.461L67.1838 98.171L68.7182 96.4862C68.9432 96.2389 68.8132 95.831 68.4902 95.7694ZM66.7202 97.827C66.5386 98.0267 66.5925 98.0181 66.8631 100.268L65.0026 99.3745C64.7586 99.2599 64.7852 99.3074 62.7842 100.268L63.0365 98.1749C63.073 97.9003 63.0106 97.919 61.5241 96.2873C63.6095 95.8739 63.6946 95.9222 63.8284 95.6726L64.8225 93.8272L65.8165 95.6726C65.9465 95.9152 65.9526 95.8567 68.1209 96.2873L66.7179 97.8278L66.7202 97.827Z" fill="black"/>
<path d="M34.0114 87.2049L33.3502 82.3518L33.7081 81.6326C33.8198 81.4033 33.6625 81.1264 33.4072 81.1264C32.2345 81.1264 32.1516 81.0804 32.0232 81.2925C31.8993 81.5016 31.9875 81.5874 32.3667 82.3494L31.7055 87.2057C31.6903 87.3258 31.7359 87.446 31.8264 87.5224C32.7475 88.3063 32.7049 88.2938 32.8584 88.2954C33.018 88.2938 32.999 88.2751 33.892 87.5224C33.984 87.4452 34.0296 87.3251 34.0129 87.2057L34.0114 87.2049Z" fill="black"/>
<path d="M132.917 65.5305H80.0342C79.5622 65.5305 79.1792 65.9234 79.1792 66.408V104.374C79.1792 104.86 79.5622 105.252 80.0342 105.252H132.917C133.388 105.252 133.772 104.86 133.772 104.374V66.408C133.772 65.9234 133.388 65.5305 132.917 65.5305Z" fill="white"/>
<path d="M132.914 105.6H80.0343C79.3754 105.6 78.8403 105.049 78.8403 104.374V66.4095C78.8403 65.7332 79.3769 65.1841 80.0343 65.1841H132.915C133.574 65.1841 134.109 65.7348 134.109 66.4095V104.374C134.109 105.051 133.572 105.6 132.915 105.6H132.914ZM80.0335 65.8791C79.7493 65.8791 79.516 66.117 79.516 66.4087V104.373C79.516 104.664 79.7478 104.902 80.0335 104.902H132.914C133.199 104.902 133.43 104.664 133.43 104.373V66.4087C133.43 66.117 133.199 65.8791 132.914 65.8791H80.0335Z" fill="black"/>
<path d="M93.261 89.0583C98.4556 89.0583 102.666 84.7371 102.666 79.4058C102.666 74.0749 98.4556 69.7533 93.261 69.7533C88.0664 69.7533 83.856 74.0749 83.856 79.4058C83.856 84.7371 88.0664 89.0583 93.261 89.0583Z" fill="#81F8F8"/>
<path d="M88.0059 87.4117V83.7441C88.0059 82.44 89.0379 81.3831 90.3087 81.3831H96.2169C97.4899 81.3831 98.5197 82.44 98.5197 83.7441V87.4117C95.0153 89.6089 91.5117 89.6089 88.0059 87.4117Z" fill="#FFD997"/>
<path d="M98.2357 87.4117V83.7441C98.2357 82.6022 97.3298 81.6724 96.2157 81.6724H90.3074C89.1925 81.6724 88.2873 82.6022 88.2873 83.7441V87.4117C88.2873 87.7954 87.7227 87.7954 87.7227 87.4117V83.7441C87.7227 82.2832 88.8824 81.0929 90.3082 81.0929H96.2164C97.6414 81.0929 98.8012 82.2816 98.8012 83.7441V87.4117C98.8012 87.7954 98.2365 87.7954 98.2365 87.4117H98.2357Z" fill="black"/>
<path d="M93.2609 81.383C95.4968 81.383 97.3094 79.5227 97.3094 77.2281C97.3094 74.9333 95.4968 73.073 93.2609 73.073C91.025 73.073 89.2124 74.9333 89.2124 77.2281C89.2124 79.5227 91.025 81.383 93.2609 81.383Z" fill="#FFD997"/>
<path d="M93.2611 81.6724C90.874 81.6724 88.9307 79.678 88.9307 77.228C88.9307 74.778 90.874 72.7836 93.2611 72.7836C95.6483 72.7836 97.5916 74.778 97.5916 77.228C97.5916 79.678 95.6483 81.6724 93.2611 81.6724ZM93.2611 73.3647C91.1841 73.3647 89.4953 75.0978 89.4953 77.2296C89.4953 79.3613 91.1841 81.0945 93.2611 81.0945C95.3382 81.0945 97.0269 79.3613 97.0269 77.2296C97.0269 75.0978 95.3382 73.3647 93.2611 73.3647Z" fill="black"/>
<path d="M93.261 89.35C87.9189 89.35 83.5732 84.8899 83.5732 79.4073C83.5732 73.9248 87.9189 69.4647 93.261 69.4647C98.603 69.4647 102.949 73.9248 102.949 79.4073C102.949 84.8899 98.603 89.35 93.261 89.35ZM93.261 70.045C88.2298 70.045 84.1387 74.2461 84.1387 79.4073C84.1387 84.5686 88.232 88.7696 93.261 88.7696C98.2899 88.7696 102.383 84.5686 102.383 79.4073C102.383 74.2461 98.2899 70.045 93.261 70.045Z" fill="black"/>
<path d="M107.398 72.516H127.908C128.562 72.516 129.092 73.0597 129.092 73.7305C129.092 74.4013 128.562 74.9449 127.908 74.9449H107.398C106.744 74.9449 106.214 74.4013 106.214 73.7305C106.214 73.0597 106.744 72.516 107.398 72.516Z" fill="white"/>
<path d="M127.91 75.2353H107.397C106.59 75.2353 105.931 74.5606 105.931 73.7299C105.931 72.8992 106.588 72.2245 107.397 72.2245H127.91C128.718 72.2245 129.377 72.8992 129.377 73.7299C129.377 74.5606 128.719 75.2353 127.91 75.2353ZM107.397 72.8064C106.9 72.8064 106.495 73.2221 106.495 73.7322C106.495 74.2424 106.9 74.6581 107.397 74.6581H127.91C128.407 74.6581 128.812 74.2424 128.812 73.7322C128.812 73.2221 128.407 72.8064 127.91 72.8064H107.397Z" fill="black"/>
<path d="M107.398 78.1921H124.137C124.791 78.1921 125.321 78.7357 125.321 79.4065C125.321 80.0773 124.791 80.621 124.137 80.621H107.398C106.744 80.621 106.214 80.0773 106.214 79.4065C106.214 78.7357 106.744 78.1921 107.398 78.1921Z" fill="white"/>
<path d="M124.138 80.9111H107.398C106.59 80.9111 105.931 80.2364 105.931 79.4057C105.931 78.575 106.589 77.9004 107.398 77.9004H124.138C124.946 77.9004 125.605 78.575 125.605 79.4057C125.605 80.2364 124.948 80.9111 124.138 80.9111ZM107.398 78.4822C106.901 78.4822 106.496 78.8979 106.496 79.4081C106.496 79.9182 106.901 80.3339 107.398 80.3339H124.138C124.636 80.3339 125.041 79.9182 125.041 79.4081C125.041 78.8979 124.636 78.4822 124.138 78.4822H107.398Z" fill="black"/>
<path d="M107.398 83.8673H126.148C126.802 83.8673 127.332 84.411 127.332 85.0818C127.332 85.7526 126.801 86.2962 126.148 86.2962H107.398C106.744 86.2962 106.214 85.7526 106.214 85.0818C106.214 84.411 106.744 83.8673 107.398 83.8673Z" fill="white"/>
<path d="M126.149 86.5864H107.398C106.59 86.5864 105.931 85.9117 105.931 85.081C105.931 84.2503 106.589 83.5756 107.398 83.5756H126.149C126.957 83.5756 127.616 84.2503 127.616 85.081C127.616 85.9117 126.959 86.5864 126.149 86.5864ZM107.398 84.1574C106.901 84.1574 106.496 84.5732 106.496 85.0833C106.496 85.5934 106.901 86.0092 107.398 86.0092H126.149C126.646 86.0092 127.052 85.5934 127.052 85.0833C127.052 84.5732 126.646 84.1574 126.149 84.1574H107.398Z" fill="black"/>
<path d="M91.37 95.8637L89.1196 95.4176L88.0108 93.3576C87.8854 93.1283 87.5639 93.1291 87.4385 93.3576L86.3297 95.4176L84.0793 95.8637C83.8277 95.9137 83.7274 96.2304 83.9022 96.4222L85.4671 98.1398L85.1843 100.474C85.1509 100.736 85.4207 100.931 85.6495 100.818L87.7265 99.8207L89.8036 100.818C90.0392 100.928 90.2969 100.732 90.2649 100.474L89.9822 98.1398L91.5471 96.4222C91.7211 96.2304 91.6208 95.9137 91.37 95.8637Z" fill="black"/>
<path d="M100.745 95.8638L98.4956 95.4176L97.3868 93.3576C97.2583 93.1244 96.9338 93.133 96.8145 93.3576L95.7056 95.4176L93.4553 95.8638C93.2037 95.9137 93.1034 96.2304 93.2782 96.4222L94.843 98.1398L94.5603 100.474C94.5276 100.736 94.7959 100.931 95.0254 100.818L97.1025 99.8207L99.1796 100.818C99.4144 100.928 99.6728 100.733 99.6409 100.474L99.3582 98.1398L100.923 96.4222C101.097 96.2319 100.998 95.9137 100.746 95.8638H100.745Z" fill="black"/>
<path d="M110.122 95.8638L107.873 95.4176L106.764 93.3576C106.635 93.1244 106.311 93.133 106.191 93.3576L105.083 95.4176L102.832 95.8638C102.581 95.9137 102.48 96.2304 102.655 96.4222L104.22 98.1398L103.937 100.474C103.905 100.736 104.173 100.931 104.402 100.818L106.479 99.8207L108.557 100.818C108.792 100.928 109.05 100.732 109.018 100.474L108.735 98.1398L110.3 96.4222C110.474 96.2304 110.374 95.9137 110.123 95.8638H110.122Z" fill="black"/>
<path d="M119.497 95.8638L117.247 95.4176L116.138 93.3576C116.011 93.126 115.686 93.1314 115.566 93.3576L114.457 95.4176L112.207 95.8638C111.955 95.9137 111.855 96.2304 112.03 96.4222L113.595 98.1398L113.312 100.474C113.279 100.737 113.549 100.931 113.777 100.818L115.854 99.8207L117.931 100.818C118.166 100.928 118.424 100.733 118.392 100.474L118.11 98.1398L119.675 96.4199C119.848 96.2296 119.75 95.9137 119.497 95.8638Z" fill="black"/>
<path d="M123.016 100.945C122.748 100.945 122.564 100.711 122.594 100.462L122.871 98.1717L121.336 96.4869C121.111 96.2389 121.241 95.8325 121.564 95.7701L123.773 95.3333L124.861 93.3139C125.02 93.0183 125.437 93.0183 125.595 93.3139C125.637 93.3919 125.595 93.3139 126.684 95.3333L128.891 95.7701C129.213 95.8325 129.344 96.2389 129.119 96.4869L127.584 98.1717L127.861 100.462C127.901 100.795 127.568 101.051 127.266 100.904L125.23 99.9259C123.034 100.98 123.147 100.945 123.016 100.945ZM125.224 99.3331C125.364 99.3331 125.296 99.3222 127.263 100.267C126.991 98.0009 126.94 98.0204 127.122 97.8262L128.525 96.2857L126.509 95.8855C126.247 95.8356 126.295 95.8091 125.227 93.8256C124.151 95.8239 124.202 95.8364 123.945 95.8855L121.928 96.2857L123.331 97.8262C123.514 98.0251 123.46 98.0173 123.188 100.267C125.255 99.2746 125.097 99.3331 125.226 99.3331H125.224Z" fill="black"/>
<path d="M94.4115 87.2674L93.7503 82.4166L94.1098 81.6943C94.2215 81.465 94.065 81.1881 93.8089 81.1881C92.6499 81.1881 92.5533 81.1382 92.4249 81.3542C92.3048 81.5563 92.3732 81.6179 92.7669 82.408L92.1049 87.2674C92.0897 87.3875 92.1353 87.5076 92.2258 87.5841C93.1469 88.368 93.1043 88.3555 93.2579 88.3571C93.422 88.3555 93.4061 88.3305 94.2915 87.5841C94.3834 87.5069 94.429 87.3868 94.4123 87.2674H94.4115Z" fill="black"/>
<path d="M113.074 4.62012H39.4754C38.8172 4.62012 38.2837 5.16768 38.2837 5.84316V58.6819C38.2837 59.3574 38.8172 59.9049 39.4754 59.9049H113.074C113.732 59.9049 114.265 59.3574 114.265 58.6819V5.84316C114.265 5.16768 113.732 4.62012 113.074 4.62012Z" fill="white"/>
<path d="M113.073 60.2551H39.4735C38.6299 60.2551 37.9429 59.55 37.9429 58.6842V5.8439C37.9429 4.9781 38.6299 4.27454 39.4735 4.27454H113.073C113.917 4.27454 114.603 4.9781 114.603 5.8439V58.6842C114.603 59.55 113.916 60.2551 113.073 60.2551ZM39.4735 4.96796C39.0031 4.96796 38.6208 5.3603 38.6208 5.84312V58.6842C38.6208 59.167 39.0031 59.5594 39.4735 59.5594H113.073C113.544 59.5594 113.926 59.167 113.926 58.6842V5.8439C113.926 5.36108 113.544 4.96874 113.073 4.96874H39.4735V4.96796Z" fill="black"/>
<path d="M67.1415 33.4337C72.2542 28.1865 72.2542 19.6791 67.1415 14.432C62.0288 9.18478 53.7396 9.18478 48.627 14.432C43.5143 19.6791 43.5143 28.1865 48.627 33.4337C53.7396 38.6809 62.0288 38.6809 67.1415 33.4337Z" fill="#81F8F8"/>
<path d="M50.5674 35.0752V29.9693C50.5674 28.155 52.0038 26.6824 53.7723 26.6824H61.9947C63.7663 26.6824 65.1997 28.1527 65.1997 29.9693V35.0752C60.3227 38.132 55.4443 38.132 50.5681 35.0752H50.5674Z" fill="#FFD997"/>
<path d="M65.2012 35.423C65.015 35.423 64.8623 35.2662 64.8623 35.0751V29.9693C64.8623 28.35 63.5763 27.0302 61.9963 27.0302H53.7739C52.1938 27.0302 50.9079 28.3484 50.9079 29.9693V35.0751C50.9079 35.2662 50.7551 35.423 50.5689 35.423C50.3827 35.423 50.23 35.2662 50.23 35.0751V29.9693C50.23 27.9655 51.8191 26.3345 53.7739 26.3345H61.9963C63.951 26.3345 65.5402 27.9655 65.5402 29.9693V35.0751C65.5402 35.2662 65.3874 35.423 65.2012 35.423Z" fill="black"/>
<path d="M57.8839 26.6833C60.9954 26.6833 63.5178 24.0946 63.5178 20.9012C63.5178 17.7078 60.9954 15.119 57.8839 15.119C54.7724 15.119 52.25 17.7078 52.25 20.9012C52.25 24.0946 54.7724 26.6833 57.8839 26.6833Z" fill="#FFD997"/>
<path d="M57.884 27.031C54.5909 27.031 51.9111 24.2815 51.9111 20.901C51.9111 17.5205 54.5901 14.771 57.884 14.771C61.1778 14.771 63.8568 17.5205 63.8568 20.901C63.8568 24.2815 61.1778 27.031 57.884 27.031ZM57.884 15.4691C54.9656 15.4691 52.5891 17.9058 52.5891 20.9034C52.5891 23.9009 54.9633 26.3376 57.884 26.3376C60.8047 26.3376 63.1789 23.9009 63.1789 20.9034C63.1789 17.9058 60.8047 15.4691 57.884 15.4691Z" fill="black"/>
<path d="M57.8838 37.7155C50.4784 37.7155 44.4531 31.5317 44.4531 23.9314C44.4531 16.3311 50.4784 10.1472 57.8838 10.1472C65.2893 10.1472 71.3146 16.3311 71.3146 23.9314C71.3146 31.5317 65.2893 37.7155 57.8838 37.7155ZM57.8838 10.8453C50.8531 10.8453 45.131 16.7164 45.131 23.9337C45.131 31.1511 50.8516 37.0221 57.8838 37.0221C64.9161 37.0221 70.6366 31.1511 70.6366 23.9337C70.6366 16.7164 64.9161 10.8453 57.8838 10.8453Z" fill="black"/>
<path d="M77.5588 14.3428H106.107C107.016 14.3428 107.754 15.1002 107.754 16.0338C107.754 16.9675 107.017 17.7249 106.107 17.7249H77.5588C76.6491 17.7249 75.9111 16.9675 75.9111 16.0338C75.9111 15.1002 76.6491 14.3428 77.5588 14.3428Z" fill="white"/>
<path d="M106.109 18.0704H77.5584C76.4625 18.0704 75.5718 17.1562 75.5718 16.0315C75.5718 14.9067 76.4625 13.9926 77.5584 13.9926H106.109C107.204 13.9926 108.095 14.9067 108.095 16.0315C108.095 17.1562 107.204 18.0704 106.109 18.0704ZM77.5584 14.6883C76.8372 14.6883 76.2498 15.2913 76.2498 16.0315C76.2498 16.7717 76.8372 17.3746 77.5584 17.3746H106.109C106.83 17.3746 107.417 16.7717 107.417 16.0315C107.417 15.2913 106.83 14.6883 106.109 14.6883H77.5584Z" fill="black"/>
<path d="M77.5588 22.2426H100.86C101.769 22.2426 102.507 22.9999 102.507 23.9336C102.507 24.8673 101.77 25.6246 100.86 25.6246H77.5588C76.6491 25.6246 75.9111 24.868 75.9111 23.9336C75.9111 22.9992 76.6491 22.2426 77.5588 22.2426Z" fill="white"/>
<path d="M100.859 25.9719H77.5579C76.462 25.9719 75.5713 25.0577 75.5713 23.933C75.5713 22.8082 76.462 21.894 77.5579 21.894H100.859C101.955 21.894 102.845 22.8082 102.845 23.933C102.845 25.0577 101.955 25.9719 100.859 25.9719ZM77.5579 22.5898C76.8367 22.5898 76.2492 23.1927 76.2492 23.933C76.2492 24.6732 76.8367 25.2761 77.5579 25.2761H100.859C101.58 25.2761 102.167 24.6732 102.167 23.933C102.167 23.1927 101.58 22.5898 100.859 22.5898H77.5579Z" fill="black"/>
<path d="M77.5588 30.1417H103.657C104.567 30.1417 105.305 30.8991 105.305 31.8328C105.305 32.7664 104.567 33.5238 103.657 33.5238H77.5588C76.6491 33.5238 75.9111 32.7664 75.9111 31.8328C75.9111 30.8991 76.6491 30.1417 77.5588 30.1417Z" fill="white"/>
<path d="M103.657 33.8717H77.5565C76.4605 33.8717 75.5698 32.9575 75.5698 31.8327C75.5698 30.708 76.4605 29.7938 77.5565 29.7938H103.657C104.753 29.7938 105.644 30.708 105.644 31.8327C105.644 32.9575 104.753 33.8717 103.657 33.8717ZM77.5565 30.4896C76.8352 30.4896 76.2477 31.0925 76.2477 31.8327C76.2477 32.573 76.8352 33.1759 77.5565 33.1759H103.657C104.378 33.1759 104.966 32.573 104.966 31.8327C104.966 31.0925 104.378 30.4896 103.657 30.4896H77.5565Z" fill="black"/>
<path d="M55.2671 46.7627L52.1693 46.1481L50.6425 43.3151C50.4358 42.9329 49.9122 42.9462 49.7123 43.3151L48.1854 46.1481L45.0884 46.7627C44.6788 46.8462 44.5154 47.3555 44.8004 47.6691L46.9542 50.0341L46.5666 53.2477C46.5142 53.6689 46.936 53.9894 47.3175 53.8077L50.1759 52.4357C53.2828 53.927 53.089 53.8576 53.2577 53.8576C53.5974 53.8576 53.8277 53.5581 53.7889 53.2469L53.4013 50.0333L55.5551 47.6683C55.8379 47.3618 55.6821 46.8462 55.2671 46.762V46.7627Z" fill="black"/>
<path d="M68.317 46.7626L65.22 46.148L63.6932 43.315C63.488 42.936 62.9644 42.9445 62.763 43.315L61.2361 46.148L58.1384 46.7626C57.7325 46.8453 57.563 47.3531 57.8503 47.669L60.0042 50.034L59.6158 53.2476C59.5634 53.668 59.9836 53.9893 60.3674 53.8076L63.2258 52.4356C66.3327 53.9269 66.1389 53.8575 66.3084 53.8575C66.6473 53.8575 66.8784 53.558 66.8396 53.2468L66.4512 50.0332L68.6051 47.6682C68.8878 47.3617 68.732 46.8461 68.317 46.7619V46.7626Z" fill="black"/>
<path d="M81.3656 46.7626L78.2686 46.1479L76.7418 43.315C76.5366 42.9359 76.0122 42.9437 75.8115 43.315L74.2847 46.1479L71.1877 46.7626C70.7818 46.8452 70.6124 47.353 70.8996 47.6689L73.0535 50.0339L72.6659 53.2475C72.6134 53.6679 73.0337 53.9893 73.4168 53.8075L76.2751 52.4355C79.382 53.9269 79.1882 53.8574 79.3577 53.8574C79.6974 53.8574 79.9277 53.5579 79.8889 53.2467L79.5013 50.0331L81.6552 47.6681C81.9394 47.36 81.7798 46.846 81.3671 46.7618L81.3656 46.7626Z" fill="black"/>
<path d="M94.414 46.7626L91.3162 46.1479L89.7894 43.315C89.5842 42.9351 89.0598 42.9445 88.8592 43.315L87.3323 46.1479L84.2346 46.7626C83.8287 46.8452 83.6592 47.353 83.9465 47.6689L86.1004 50.0339L85.712 53.2475C85.6596 53.6695 86.0814 53.9885 86.4636 53.8075L89.322 52.4355C92.4289 53.9269 92.2351 53.8574 92.4046 53.8574C92.7443 53.8574 92.9746 53.5579 92.9358 53.2467L92.5474 50.0331L94.7013 47.6681C94.9848 47.36 94.8259 46.846 94.4132 46.7618L94.414 46.7626Z" fill="black"/>
<path d="M107.463 46.7627L104.366 46.148L102.839 43.3151C102.636 42.9391 102.112 42.9391 101.909 43.3151L100.382 46.148L97.2848 46.7627C96.879 46.8453 96.7095 47.3531 96.9968 47.669L99.1507 50.034L98.763 53.2476C98.7106 53.6703 99.1332 53.9886 99.5147 53.8076L102.373 52.4356C105.48 53.927 105.286 53.8575 105.456 53.8575C105.796 53.8575 106.025 53.5564 105.987 53.2468L105.599 50.0332L107.753 47.6682C108.036 47.3609 107.878 46.8461 107.465 46.7619L107.463 46.7627Z" fill="black"/>
<path d="M59.357 34.6868L58.4306 27.8915L58.9481 26.8486C59.0629 26.6123 58.8957 26.3424 58.6471 26.3424C57.0565 26.3424 56.9668 26.2847 56.8338 26.5085C56.7031 26.7285 56.8004 26.8073 57.3354 27.886L56.4082 34.6868C56.393 34.8069 56.4378 34.9263 56.5283 35.0035C57.745 36.0401 57.7161 36.0479 57.8811 36.0487C58.0467 36.0479 57.9844 36.0581 59.2354 35.0035C59.3274 34.9263 59.3729 34.8062 59.3555 34.6868H59.357Z" fill="black"/>
</svg>
