<svg width="400" height="368" viewBox="0 0 400 368" fill="none" xmlns="http://www.w3.org/2000/svg">
<rect width="400" height="368" fill="white"/>
<path d="M31.9607 27.9173V42.4628H29.3258V27.9173H31.9607ZM39.0589 42.6758C37.9699 42.6758 37.0348 42.4367 36.2535 41.9585C35.477 41.4803 34.8781 40.8198 34.4567 39.977C34.04 39.1294 33.8317 38.1541 33.8317 37.0508C33.8317 35.9429 34.0447 34.9651 34.4709 34.1176C34.897 33.2653 35.4983 32.6024 36.2748 32.129C37.0561 31.6507 37.9794 31.4116 39.0447 31.4116C39.9302 31.4116 40.7138 31.575 41.3956 31.9017C42.0821 32.2237 42.629 32.6806 43.0362 33.2724C43.4434 33.8595 43.6754 34.5461 43.7322 35.3321H41.2748C41.1754 34.8065 40.9387 34.3685 40.5646 34.0182C40.1953 33.6631 39.7005 33.4855 39.0802 33.4855C38.5547 33.4855 38.093 33.6275 37.6953 33.9116C37.2976 34.191 36.9874 34.5935 36.7649 35.119C36.5471 35.6446 36.4382 36.2743 36.4382 37.0082C36.4382 37.7516 36.5471 38.3908 36.7649 38.9258C36.9827 39.4561 37.2881 39.8657 37.6811 40.1545C38.0788 40.4386 38.5452 40.5807 39.0802 40.5807C39.459 40.5807 39.7976 40.5096 40.0959 40.3676C40.3989 40.2208 40.6522 40.0101 40.8558 39.7355C41.0594 39.4609 41.1991 39.1271 41.2748 38.7341H43.7322C43.6707 39.5059 43.4434 40.19 43.0504 40.7866C42.6574 41.3785 42.1224 41.8425 41.4453 42.1787C40.7682 42.5101 39.9728 42.6758 39.0589 42.6758ZM50.2019 42.6758C49.1366 42.6758 48.2133 42.4415 47.432 41.9727C46.6508 41.504 46.0447 40.8482 45.6138 40.0054C45.1877 39.1626 44.9746 38.1777 44.9746 37.0508C44.9746 35.9239 45.1877 34.9367 45.6138 34.0892C46.0447 33.2417 46.6508 32.5835 47.432 32.1148C48.2133 31.646 49.1366 31.4116 50.2019 31.4116C51.2673 31.4116 52.1905 31.646 52.9718 32.1148C53.753 32.5835 54.3567 33.2417 54.7829 34.0892C55.2137 34.9367 55.4292 35.9239 55.4292 37.0508C55.4292 38.1777 55.2137 39.1626 54.7829 40.0054C54.3567 40.8482 53.753 41.504 52.9718 41.9727C52.1905 42.4415 51.2673 42.6758 50.2019 42.6758ZM50.2161 40.6162C50.7938 40.6162 51.2767 40.4576 51.665 40.1403C52.0532 39.8184 52.3421 39.3875 52.5315 38.8477C52.7256 38.3079 52.8226 37.7066 52.8226 37.0437C52.8226 36.3761 52.7256 35.7724 52.5315 35.2327C52.3421 34.6881 52.0532 34.2549 51.665 33.9329C51.2767 33.611 50.7938 33.45 50.2161 33.45C49.6243 33.45 49.1318 33.611 48.7388 33.9329C48.3506 34.2549 48.0594 34.6881 47.8653 35.2327C47.6759 35.7724 47.5812 36.3761 47.5812 37.0437C47.5812 37.7066 47.6759 38.3079 47.8653 38.8477C48.0594 39.3875 48.3506 39.8184 48.7388 40.1403C49.1318 40.4576 49.6243 40.6162 50.2161 40.6162ZM59.7824 36.0707V42.4628H57.2114V31.5537H59.6687V33.4074H59.7966C60.0475 32.7966 60.4476 32.3113 60.9969 31.9514C61.5508 31.5916 62.235 31.4116 63.0494 31.4116C63.8023 31.4116 64.458 31.5726 65.0168 31.8946C65.5802 32.2166 66.0158 32.6829 66.3236 33.2937C66.6361 33.9045 66.79 34.6455 66.7852 35.5167V42.4628H64.2142V35.9145C64.2142 35.1853 64.0248 34.6148 63.646 34.2028C63.272 33.7909 62.7535 33.5849 62.0906 33.5849C61.6408 33.5849 61.2407 33.6844 60.8903 33.8832C60.5447 34.0774 60.2724 34.3591 60.0736 34.7284C59.8794 35.0977 59.7824 35.5452 59.7824 36.0707Z" fill="black" fill-opacity="0.8"/>
<path d="M40 90C39.45 90 38.9793 89.8043 38.588 89.413C38.196 89.021 38 88.55 38 88C38 87.45 38.196 86.979 38.588 86.587C38.9793 86.1957 39.45 86 40 86C40.55 86 41.021 86.1957 41.413 86.587C41.8043 86.979 42 87.45 42 88C42 88.55 41.8043 89.021 41.413 89.413C41.021 89.8043 40.55 90 40 90ZM40 84C39.45 84 38.9793 83.804 38.588 83.412C38.196 83.0207 38 82.55 38 82C38 81.45 38.196 80.979 38.588 80.587C38.9793 80.1957 39.45 80 40 80C40.55 80 41.021 80.1957 41.413 80.587C41.8043 80.979 42 81.45 42 82C42 82.55 41.8043 83.0207 41.413 83.412C41.021 83.804 40.55 84 40 84ZM40 78C39.45 78 38.9793 77.804 38.588 77.412C38.196 77.0207 38 76.55 38 76C38 75.45 38.196 74.9793 38.588 74.588C38.9793 74.196 39.45 74 40 74C40.55 74 41.021 74.196 41.413 74.588C41.8043 74.9793 42 75.45 42 76C42 76.55 41.8043 77.0207 41.413 77.412C41.021 77.804 40.55 78 40 78Z" fill="#666666"/>
<path d="M72 89V87H74V80C74 78.6167 74.4167 77.3873 75.25 76.312C76.0833 75.2373 77.1667 74.5333 78.5 74.2V73.5C78.5 73.0833 78.646 72.7293 78.938 72.438C79.2293 72.146 79.5833 72 80 72C80.4167 72 80.7707 72.146 81.062 72.438C81.354 72.7293 81.5 73.0833 81.5 73.5V74.2C82.8333 74.5333 83.9167 75.2373 84.75 76.312C85.5833 77.3873 86 78.6167 86 80V87H88V89H72ZM80 92C79.45 92 78.9793 91.8043 78.588 91.413C78.196 91.021 78 90.55 78 90H82C82 90.55 81.8043 91.021 81.413 91.413C81.021 91.8043 80.55 92 80 92ZM76 87H84V80C84 78.9 83.6083 77.9583 82.825 77.175C82.0417 76.3917 81.1 76 80 76C78.9 76 77.9583 76.3917 77.175 77.175C76.3917 77.9583 76 78.9 76 80V87Z" fill="#666666"/>
<path d="M114 84H122V82H114V84ZM114 81H126V79H114V81ZM114 78H126V76H114V78ZM110 92V74C110 73.45 110.196 72.979 110.588 72.587C110.979 72.1957 111.45 72 112 72H128C128.55 72 129.021 72.1957 129.413 72.587C129.804 72.979 130 73.45 130 74V86C130 86.55 129.804 87.021 129.413 87.413C129.021 87.8043 128.55 88 128 88H114L110 92ZM112 87.175L113.175 86H128V74H112V87.175Z" fill="#666666"/>
<path d="M152 90C151.45 90 150.979 89.8043 150.588 89.413C150.196 89.021 150 88.55 150 88V76C150 75.45 150.196 74.9793 150.588 74.588C150.979 74.196 151.45 74 152 74H168C168.55 74 169.021 74.196 169.413 74.588C169.804 74.9793 170 75.45 170 76V88C170 88.55 169.804 89.021 169.413 89.413C169.021 89.8043 168.55 90 168 90H152ZM160 83L152 78V88H168V78L160 83ZM160 81L168 76H152L160 81ZM152 78V76V88V78Z" fill="#666666"/>
<path d="M194 89H197V83H203V89H206V80L200 75.5L194 80V89ZM192 91V79L200 73L208 79V91H201V85H199V91H192Z" fill="#666666"/>
<path d="M233 91C232.45 91 231.979 90.8042 231.588 90.4125C231.196 90.0208 231 89.55 231 89V75C231 74.45 231.196 73.9792 231.588 73.5875C231.979 73.1958 232.45 73 233 73H247C247.55 73 248.021 73.1958 248.413 73.5875C248.804 73.9792 249 74.45 249 75V89C249 89.55 248.804 90.0208 248.413 90.4125C248.021 90.8042 247.55 91 247 91H233ZM233 89H247V75H233V89ZM234 87H246L242.25 82L239.25 86L237 83L234 87Z" fill="#666666"/>
<path d="M29.1655 329.998V331.587C29.1655 331.678 29.1632 331.771 29.1587 331.864C29.1541 331.955 29.1462 332.039 29.1348 332.117H29.1724C29.2498 331.985 29.3478 331.874 29.4663 331.785C29.5871 331.694 29.7238 331.626 29.8765 331.58C30.0291 331.532 30.1909 331.509 30.3618 331.509C30.6626 331.509 30.9132 331.556 31.1138 331.652C31.3166 331.748 31.4681 331.896 31.5684 332.096C31.6709 332.297 31.7222 332.557 31.7222 332.876V335.316H31.1616V332.913C31.1616 332.601 31.0898 332.368 30.9463 332.213C30.805 332.058 30.5874 331.98 30.2935 331.98C30.0155 331.98 29.7933 332.034 29.627 332.141C29.4629 332.246 29.3444 332.401 29.2715 332.606C29.2008 332.811 29.1655 333.061 29.1655 333.358V335.316H28.5981V329.998H29.1655ZM34.1011 334.92C34.1945 334.92 34.2902 334.912 34.3882 334.896C34.4862 334.88 34.5659 334.86 34.6274 334.838V335.279C34.5614 335.308 34.4691 335.333 34.3506 335.354C34.2344 335.374 34.1204 335.385 34.0088 335.385C33.8105 335.385 33.6305 335.35 33.4688 335.282C33.307 335.211 33.1771 335.093 33.0791 334.927C32.9834 334.76 32.9355 334.53 32.9355 334.236V332.014H32.4023V331.738L32.939 331.515L33.1646 330.702H33.5063V331.57H34.6035V332.014H33.5063V334.219C33.5063 334.454 33.5599 334.629 33.667 334.745C33.7764 334.862 33.9211 334.92 34.1011 334.92ZM36.5962 334.92C36.6896 334.92 36.7853 334.912 36.8833 334.896C36.9813 334.88 37.061 334.86 37.1226 334.838V335.279C37.0565 335.308 36.9642 335.333 36.8457 335.354C36.7295 335.374 36.6156 335.385 36.5039 335.385C36.3057 335.385 36.1257 335.35 35.9639 335.282C35.8021 335.211 35.6722 335.093 35.5742 334.927C35.4785 334.76 35.4307 334.53 35.4307 334.236V332.014H34.8975V331.738L35.4341 331.515L35.6597 330.702H36.0015V331.57H37.0986V332.014H36.0015V334.219C36.0015 334.454 36.055 334.629 36.1621 334.745C36.2715 334.862 36.4162 334.92 36.5962 334.92ZM39.6416 331.502C40.1087 331.502 40.4813 331.662 40.7593 331.984C41.0373 332.305 41.1763 332.788 41.1763 333.433C41.1763 333.859 41.1125 334.217 40.9849 334.506C40.8573 334.795 40.6772 335.014 40.4448 335.162C40.2147 335.31 39.9424 335.385 39.6279 335.385C39.4297 335.385 39.2554 335.358 39.105 335.306C38.9546 335.253 38.8258 335.183 38.7188 335.094C38.6117 335.005 38.5228 334.908 38.4521 334.803H38.4111C38.418 334.892 38.4259 334.999 38.4351 335.125C38.4465 335.25 38.4521 335.359 38.4521 335.453V336.991H37.8813V331.57H38.3496L38.4248 332.124H38.4521C38.5251 332.01 38.6139 331.906 38.7188 331.813C38.8236 331.717 38.9512 331.642 39.1016 331.587C39.2542 331.53 39.4342 331.502 39.6416 331.502ZM39.5425 331.98C39.2827 331.98 39.0731 332.03 38.9136 332.131C38.7563 332.231 38.6413 332.381 38.5684 332.582C38.4954 332.78 38.4567 333.03 38.4521 333.33V333.44C38.4521 333.756 38.4863 334.024 38.5547 334.243C38.6253 334.462 38.7404 334.628 38.8999 334.742C39.0617 334.856 39.2782 334.913 39.5493 334.913C39.7817 334.913 39.9754 334.85 40.1304 334.725C40.2853 334.6 40.4004 334.425 40.4756 334.202C40.5531 333.976 40.5918 333.718 40.5918 333.426C40.5918 332.984 40.5052 332.633 40.332 332.373C40.1611 332.111 39.8979 331.98 39.5425 331.98ZM44.5908 334.291C44.5908 334.53 44.5304 334.732 44.4097 334.896C44.2912 335.058 44.1203 335.179 43.897 335.261C43.6759 335.344 43.4116 335.385 43.104 335.385C42.842 335.385 42.6152 335.364 42.4238 335.323C42.2324 335.282 42.0649 335.224 41.9214 335.149V334.626C42.0741 334.701 42.2563 334.769 42.4683 334.831C42.6802 334.892 42.8966 334.923 43.1177 334.923C43.4412 334.923 43.6759 334.871 43.8218 334.766C43.9676 334.661 44.0405 334.519 44.0405 334.339C44.0405 334.236 44.0109 334.146 43.9517 334.069C43.8947 333.989 43.7979 333.913 43.6611 333.84C43.5244 333.764 43.3353 333.682 43.0938 333.594C42.8545 333.502 42.6471 333.412 42.4717 333.323C42.2985 333.232 42.1641 333.122 42.0684 332.992C41.9749 332.862 41.9282 332.693 41.9282 332.486C41.9282 332.169 42.0558 331.927 42.311 331.758C42.5685 331.587 42.9058 331.502 43.3228 331.502C43.5483 331.502 43.7591 331.524 43.9551 331.57C44.1533 331.613 44.3379 331.673 44.5088 331.748L44.3174 332.202C44.1624 332.136 43.9972 332.08 43.8218 332.035C43.6463 331.989 43.4674 331.967 43.2852 331.967C43.0231 331.967 42.8215 332.01 42.6802 332.096C42.5412 332.183 42.4717 332.302 42.4717 332.452C42.4717 332.568 42.5036 332.664 42.5674 332.739C42.6335 332.814 42.7383 332.885 42.8818 332.951C43.0254 333.017 43.2145 333.094 43.4492 333.183C43.6839 333.27 43.8867 333.36 44.0576 333.453C44.2285 333.545 44.3595 333.656 44.4507 333.788C44.5441 333.918 44.5908 334.086 44.5908 334.291ZM45.418 334.961C45.418 334.801 45.4567 334.688 45.5342 334.622C45.6117 334.554 45.7062 334.52 45.8179 334.52C45.9341 334.52 46.0321 334.554 46.1118 334.622C46.1916 334.688 46.2314 334.801 46.2314 334.961C46.2314 335.118 46.1916 335.233 46.1118 335.306C46.0321 335.377 45.9341 335.412 45.8179 335.412C45.7062 335.412 45.6117 335.377 45.5342 335.306C45.4567 335.233 45.418 335.118 45.418 334.961ZM45.418 331.929C45.418 331.765 45.4567 331.65 45.5342 331.584C45.6117 331.515 45.7062 331.481 45.8179 331.481C45.9341 331.481 46.0321 331.515 46.1118 331.584C46.1916 331.65 46.2314 331.765 46.2314 331.929C46.2314 332.084 46.1916 332.197 46.1118 332.267C46.0321 332.338 45.9341 332.373 45.8179 332.373C45.7062 332.373 45.6117 332.338 45.5342 332.267C45.4567 332.197 45.418 332.084 45.418 331.929ZM49.2358 330.319L47.3765 335.316H46.8159L48.6787 330.319H49.2358ZM51.8062 330.319L49.9468 335.316H49.3862L51.249 330.319H51.8062ZM54.1509 332.014H53.2178V335.316H52.6504V332.014H51.9873V331.741L52.6504 331.553V331.303C52.6504 330.989 52.6971 330.734 52.7905 330.538C52.884 330.34 53.0195 330.194 53.1973 330.1C53.375 330.007 53.5915 329.96 53.8467 329.96C53.9902 329.96 54.1213 329.973 54.2397 329.998C54.3605 330.023 54.4665 330.051 54.5576 330.083L54.4106 330.531C54.3332 330.506 54.2454 330.483 54.1475 330.463C54.0518 330.44 53.9538 330.428 53.8535 330.428C53.637 330.428 53.4764 330.499 53.3716 330.64C53.269 330.779 53.2178 330.998 53.2178 331.297V331.57H54.1509V332.014ZM58.0713 333.436C58.0713 333.744 58.0314 334.018 57.9517 334.26C57.8719 334.502 57.7568 334.705 57.6064 334.872C57.4561 335.038 57.2738 335.166 57.0596 335.255C56.8477 335.341 56.6073 335.385 56.3384 335.385C56.0877 335.385 55.8576 335.341 55.6479 335.255C55.4406 335.166 55.2606 335.038 55.1079 334.872C54.9575 334.705 54.8402 334.502 54.7559 334.26C54.6738 334.018 54.6328 333.744 54.6328 333.436C54.6328 333.026 54.7023 332.677 54.8413 332.39C54.9803 332.101 55.1785 331.881 55.436 331.731C55.6958 331.578 56.0046 331.502 56.3623 331.502C56.7041 331.502 57.0026 331.578 57.2578 331.731C57.5153 331.883 57.7147 332.104 57.856 332.394C57.9995 332.681 58.0713 333.028 58.0713 333.436ZM55.2207 333.436C55.2207 333.737 55.2606 333.998 55.3403 334.219C55.4201 334.44 55.5431 334.611 55.7095 334.732C55.8758 334.852 56.09 334.913 56.3521 334.913C56.6118 334.913 56.8249 334.852 56.9912 334.732C57.1598 334.611 57.284 334.44 57.3638 334.219C57.4435 333.998 57.4834 333.737 57.4834 333.436C57.4834 333.138 57.4435 332.88 57.3638 332.664C57.284 332.445 57.161 332.276 56.9946 332.158C56.8283 332.039 56.613 331.98 56.3486 331.98C55.959 331.98 55.673 332.109 55.4907 332.366C55.3107 332.624 55.2207 332.981 55.2207 333.436ZM60.8262 331.502C61.2705 331.502 61.6066 331.611 61.8345 331.83C62.0623 332.046 62.1763 332.395 62.1763 332.876V335.316H61.6157V332.913C61.6157 332.601 61.5439 332.368 61.4004 332.213C61.2591 332.058 61.0415 331.98 60.7476 331.98C60.3328 331.98 60.0412 332.098 59.8726 332.332C59.7039 332.567 59.6196 332.908 59.6196 333.354V335.316H59.0522V331.57H59.5103L59.5957 332.11H59.6265C59.7062 331.978 59.8076 331.867 59.9307 331.779C60.0537 331.687 60.1916 331.619 60.3442 331.573C60.4969 331.526 60.6576 331.502 60.8262 331.502ZM64.5552 334.92C64.6486 334.92 64.7443 334.912 64.8423 334.896C64.9403 334.88 65.02 334.86 65.0815 334.838V335.279C65.0155 335.308 64.9232 335.333 64.8047 335.354C64.6885 335.374 64.5745 335.385 64.4629 335.385C64.2646 335.385 64.0846 335.35 63.9229 335.282C63.7611 335.211 63.6312 335.093 63.5332 334.927C63.4375 334.76 63.3896 334.53 63.3896 334.236V332.014H62.8564V331.738L63.3931 331.515L63.6187 330.702H63.9604V331.57H65.0576V332.014H63.9604V334.219C63.9604 334.454 64.014 334.629 64.1211 334.745C64.2305 334.862 64.3752 334.92 64.5552 334.92ZM68.2637 334.291C68.2637 334.53 68.2033 334.732 68.0825 334.896C67.964 335.058 67.7931 335.179 67.5698 335.261C67.3488 335.344 67.0845 335.385 66.7769 335.385C66.5148 335.385 66.2881 335.364 66.0967 335.323C65.9053 335.282 65.7378 335.224 65.5942 335.149V334.626C65.7469 334.701 65.9292 334.769 66.1411 334.831C66.353 334.892 66.5695 334.923 66.7905 334.923C67.1141 334.923 67.3488 334.871 67.4946 334.766C67.6405 334.661 67.7134 334.519 67.7134 334.339C67.7134 334.236 67.6838 334.146 67.6245 334.069C67.5675 333.989 67.4707 333.913 67.334 333.84C67.1973 333.764 67.0081 333.682 66.7666 333.594C66.5273 333.502 66.32 333.412 66.1445 333.323C65.9714 333.232 65.8369 333.122 65.7412 332.992C65.6478 332.862 65.6011 332.693 65.6011 332.486C65.6011 332.169 65.7287 331.927 65.9839 331.758C66.2414 331.587 66.5786 331.502 66.9956 331.502C67.2212 331.502 67.432 331.524 67.6279 331.57C67.8262 331.613 68.0107 331.673 68.1816 331.748L67.9902 332.202C67.8353 332.136 67.6701 332.08 67.4946 332.035C67.3192 331.989 67.1403 331.967 66.958 331.967C66.696 331.967 66.4943 332.01 66.353 332.096C66.214 332.183 66.1445 332.302 66.1445 332.452C66.1445 332.568 66.1764 332.664 66.2402 332.739C66.3063 332.814 66.4111 332.885 66.5547 332.951C66.6982 333.017 66.8874 333.094 67.1221 333.183C67.3568 333.27 67.5596 333.36 67.7305 333.453C67.9014 333.545 68.0324 333.656 68.1235 333.788C68.217 333.918 68.2637 334.086 68.2637 334.291ZM69.0908 334.961C69.0908 334.801 69.1296 334.688 69.207 334.622C69.2845 334.554 69.3791 334.52 69.4907 334.52C69.6069 334.52 69.7049 334.554 69.7847 334.622C69.8644 334.688 69.9043 334.801 69.9043 334.961C69.9043 335.118 69.8644 335.233 69.7847 335.306C69.7049 335.377 69.6069 335.412 69.4907 335.412C69.3791 335.412 69.2845 335.377 69.207 335.306C69.1296 335.233 69.0908 335.118 69.0908 334.961ZM72.061 336.998C71.5688 336.998 71.1895 336.906 70.9229 336.721C70.6562 336.539 70.5229 336.282 70.5229 335.952C70.5229 335.717 70.597 335.517 70.7451 335.35C70.8955 335.184 71.1029 335.073 71.3672 335.019C71.2692 334.973 71.1849 334.905 71.1143 334.814C71.0459 334.723 71.0117 334.618 71.0117 334.499C71.0117 334.363 71.0493 334.243 71.1245 334.14C71.202 334.036 71.3193 333.935 71.4766 333.84C71.2806 333.76 71.1211 333.625 70.998 333.436C70.8773 333.245 70.8169 333.023 70.8169 332.77C70.8169 332.501 70.8727 332.272 70.9844 332.083C71.096 331.891 71.2578 331.746 71.4697 331.645C71.6816 331.545 71.938 331.495 72.2388 331.495C72.3049 331.495 72.3709 331.498 72.437 331.505C72.5054 331.51 72.5703 331.518 72.6318 331.529C72.6934 331.538 72.7469 331.55 72.7925 331.563H74.0776V331.929L73.3872 332.014C73.4556 332.103 73.5125 332.21 73.5581 332.336C73.6037 332.461 73.6265 332.6 73.6265 332.753C73.6265 333.126 73.5 333.424 73.2471 333.645C72.9941 333.864 72.6466 333.973 72.2046 333.973C72.0998 333.973 71.9927 333.964 71.8833 333.946C71.7716 334.007 71.6862 334.075 71.627 334.151C71.57 334.226 71.5415 334.312 71.5415 334.41C71.5415 334.483 71.5632 334.541 71.6064 334.585C71.652 334.628 71.717 334.66 71.8013 334.68C71.8856 334.699 71.987 334.708 72.1055 334.708H72.7651C73.173 334.708 73.4852 334.793 73.7017 334.964C73.9204 335.135 74.0298 335.385 74.0298 335.713C74.0298 336.127 73.8612 336.445 73.5239 336.666C73.1867 336.887 72.6991 336.998 72.061 336.998ZM72.0781 336.553C72.388 336.553 72.6444 336.522 72.8472 336.458C73.0522 336.396 73.2049 336.306 73.3052 336.188C73.4077 336.072 73.459 335.933 73.459 335.771C73.459 335.62 73.4248 335.506 73.3564 335.429C73.2881 335.354 73.1878 335.304 73.0557 335.279C72.9235 335.251 72.7617 335.238 72.5703 335.238H71.9209C71.7523 335.238 71.6053 335.264 71.48 335.316C71.3547 335.369 71.2578 335.446 71.1895 335.549C71.1234 335.651 71.0903 335.779 71.0903 335.931C71.0903 336.134 71.1758 336.288 71.3467 336.393C71.5176 336.5 71.7614 336.553 72.0781 336.553ZM72.2251 333.559C72.4963 333.559 72.7002 333.491 72.8369 333.354C72.9736 333.218 73.042 333.018 73.042 332.756C73.042 332.476 72.9725 332.266 72.8335 332.127C72.6945 331.986 72.4894 331.915 72.2183 331.915C71.9585 331.915 71.758 331.988 71.6167 332.134C71.4777 332.278 71.4082 332.488 71.4082 332.766C71.4082 333.022 71.4788 333.218 71.6201 333.354C71.7614 333.491 71.9631 333.559 72.2251 333.559ZM78.0459 333.436C78.0459 333.744 78.006 334.018 77.9263 334.26C77.8465 334.502 77.7314 334.705 77.5811 334.872C77.4307 335.038 77.2484 335.166 77.0342 335.255C76.8223 335.341 76.5819 335.385 76.313 335.385C76.0623 335.385 75.8322 335.341 75.6226 335.255C75.4152 335.166 75.2352 335.038 75.0825 334.872C74.9321 334.705 74.8148 334.502 74.7305 334.26C74.6484 334.018 74.6074 333.744 74.6074 333.436C74.6074 333.026 74.6769 332.677 74.8159 332.39C74.9549 332.101 75.1532 331.881 75.4106 331.731C75.6704 331.578 75.9792 331.502 76.3369 331.502C76.6787 331.502 76.9772 331.578 77.2324 331.731C77.4899 331.883 77.6893 332.104 77.8306 332.394C77.9741 332.681 78.0459 333.028 78.0459 333.436ZM75.1953 333.436C75.1953 333.737 75.2352 333.998 75.3149 334.219C75.3947 334.44 75.5177 334.611 75.6841 334.732C75.8504 334.852 76.0646 334.913 76.3267 334.913C76.5864 334.913 76.7995 334.852 76.9658 334.732C77.1344 334.611 77.2586 334.44 77.3384 334.219C77.4181 333.998 77.458 333.737 77.458 333.436C77.458 333.138 77.4181 332.88 77.3384 332.664C77.2586 332.445 77.1356 332.276 76.9692 332.158C76.8029 332.039 76.5876 331.98 76.3232 331.98C75.9336 331.98 75.6476 332.109 75.4653 332.366C75.2853 332.624 75.1953 332.981 75.1953 333.436ZM82.2568 333.436C82.2568 333.744 82.217 334.018 82.1372 334.26C82.0575 334.502 81.9424 334.705 81.792 334.872C81.6416 335.038 81.4593 335.166 81.2451 335.255C81.0332 335.341 80.7928 335.385 80.5239 335.385C80.2733 335.385 80.0431 335.341 79.8335 335.255C79.6261 335.166 79.4461 335.038 79.2935 334.872C79.1431 334.705 79.0257 334.502 78.9414 334.26C78.8594 334.018 78.8184 333.744 78.8184 333.436C78.8184 333.026 78.8879 332.677 79.0269 332.39C79.1659 332.101 79.3641 331.881 79.6216 331.731C79.8813 331.578 80.1901 331.502 80.5479 331.502C80.8896 331.502 81.1882 331.578 81.4434 331.731C81.7008 331.883 81.9002 332.104 82.0415 332.394C82.1851 332.681 82.2568 333.028 82.2568 333.436ZM79.4062 333.436C79.4062 333.737 79.4461 333.998 79.5259 334.219C79.6056 334.44 79.7287 334.611 79.895 334.732C80.0614 334.852 80.2756 334.913 80.5376 334.913C80.7974 334.913 81.0104 334.852 81.1768 334.732C81.3454 334.611 81.4696 334.44 81.5493 334.219C81.6291 333.998 81.6689 333.737 81.6689 333.436C81.6689 333.138 81.6291 332.88 81.5493 332.664C81.4696 332.445 81.3465 332.276 81.1802 332.158C81.0138 332.039 80.7985 331.98 80.5342 331.98C80.1445 331.98 79.8586 332.109 79.6763 332.366C79.4963 332.624 79.4062 332.981 79.4062 333.436ZM84.2837 336.998C83.7915 336.998 83.4121 336.906 83.1455 336.721C82.8789 336.539 82.7456 336.282 82.7456 335.952C82.7456 335.717 82.8197 335.517 82.9678 335.35C83.1182 335.184 83.3255 335.073 83.5898 335.019C83.4919 334.973 83.4076 334.905 83.3369 334.814C83.2686 334.723 83.2344 334.618 83.2344 334.499C83.2344 334.363 83.272 334.243 83.3472 334.14C83.4246 334.036 83.542 333.935 83.6992 333.84C83.5033 333.76 83.3438 333.625 83.2207 333.436C83.0999 333.245 83.0396 333.023 83.0396 332.77C83.0396 332.501 83.0954 332.272 83.207 332.083C83.3187 331.891 83.4805 331.746 83.6924 331.645C83.9043 331.545 84.1606 331.495 84.4614 331.495C84.5275 331.495 84.5936 331.498 84.6597 331.505C84.728 331.51 84.793 331.518 84.8545 331.529C84.916 331.538 84.9696 331.55 85.0151 331.563H86.3003V331.929L85.6099 332.014C85.6782 332.103 85.7352 332.21 85.7808 332.336C85.8263 332.461 85.8491 332.6 85.8491 332.753C85.8491 333.126 85.7227 333.424 85.4697 333.645C85.2168 333.864 84.8693 333.973 84.4272 333.973C84.3224 333.973 84.2153 333.964 84.106 333.946C83.9943 334.007 83.9089 334.075 83.8496 334.151C83.7926 334.226 83.7642 334.312 83.7642 334.41C83.7642 334.483 83.7858 334.541 83.8291 334.585C83.8747 334.628 83.9396 334.66 84.0239 334.68C84.1082 334.699 84.2096 334.708 84.3281 334.708H84.9878C85.3957 334.708 85.7078 334.793 85.9243 334.964C86.1431 335.135 86.2524 335.385 86.2524 335.713C86.2524 336.127 86.0838 336.445 85.7466 336.666C85.4093 336.887 84.9217 336.998 84.2837 336.998ZM84.3008 336.553C84.6107 336.553 84.867 336.522 85.0698 336.458C85.2749 336.396 85.4276 336.306 85.5278 336.188C85.6304 336.072 85.6816 335.933 85.6816 335.771C85.6816 335.62 85.6475 335.506 85.5791 335.429C85.5107 335.354 85.4105 335.304 85.2783 335.279C85.1462 335.251 84.9844 335.238 84.793 335.238H84.1436C83.9749 335.238 83.828 335.264 83.7026 335.316C83.5773 335.369 83.4805 335.446 83.4121 335.549C83.346 335.651 83.313 335.779 83.313 335.931C83.313 336.134 83.3984 336.288 83.5693 336.393C83.7402 336.5 83.984 336.553 84.3008 336.553ZM84.4478 333.559C84.7189 333.559 84.9229 333.491 85.0596 333.354C85.1963 333.218 85.2646 333.018 85.2646 332.756C85.2646 332.476 85.1951 332.266 85.0562 332.127C84.9172 331.986 84.7121 331.915 84.4409 331.915C84.1812 331.915 83.9806 331.988 83.8394 332.134C83.7004 332.278 83.6309 332.488 83.6309 332.766C83.6309 333.022 83.7015 333.218 83.8428 333.354C83.984 333.491 84.1857 333.559 84.4478 333.559ZM87.6094 335.316H87.0386V329.998H87.6094V335.316ZM90.2515 331.502C90.5705 331.502 90.8439 331.572 91.0718 331.714C91.2996 331.855 91.474 332.053 91.5947 332.308C91.7155 332.561 91.7759 332.858 91.7759 333.197V333.549H89.1885C89.1953 333.989 89.3047 334.324 89.5166 334.554C89.7285 334.784 90.027 334.899 90.4121 334.899C90.6491 334.899 90.8587 334.878 91.041 334.834C91.2233 334.791 91.4124 334.727 91.6084 334.643V335.142C91.4193 335.226 91.2313 335.288 91.0444 335.326C90.8599 335.365 90.6411 335.385 90.3882 335.385C90.0282 335.385 89.7137 335.312 89.4448 335.166C89.1782 335.018 88.9709 334.801 88.8228 334.516C88.6746 334.232 88.6006 333.883 88.6006 333.47C88.6006 333.067 88.6678 332.719 88.8022 332.425C88.939 332.128 89.1304 331.9 89.3765 331.741C89.6248 331.581 89.9165 331.502 90.2515 331.502ZM90.2446 331.967C89.9416 331.967 89.7 332.066 89.52 332.264C89.34 332.462 89.2329 332.739 89.1987 333.094H91.1812C91.1789 332.871 91.1436 332.675 91.0752 332.507C91.0091 332.336 90.9077 332.204 90.771 332.11C90.6343 332.014 90.4588 331.967 90.2446 331.967ZM92.6543 334.961C92.6543 334.801 92.693 334.688 92.7705 334.622C92.848 334.554 92.9425 334.52 93.0542 334.52C93.1704 334.52 93.2684 334.554 93.3481 334.622C93.4279 334.688 93.4678 334.801 93.4678 334.961C93.4678 335.118 93.4279 335.233 93.3481 335.306C93.2684 335.377 93.1704 335.412 93.0542 335.412C92.9425 335.412 92.848 335.377 92.7705 335.306C92.693 335.233 92.6543 335.118 92.6543 334.961ZM96.0791 335.385C95.7419 335.385 95.4445 335.315 95.187 335.176C94.9295 335.037 94.729 334.825 94.5854 334.54C94.4419 334.255 94.3701 333.897 94.3701 333.464C94.3701 333.01 94.4453 332.64 94.5957 332.353C94.7484 332.063 94.958 331.849 95.2246 331.71C95.4912 331.571 95.7943 331.502 96.1338 331.502C96.3206 331.502 96.5007 331.521 96.6738 331.56C96.8493 331.596 96.9928 331.643 97.1045 331.7L96.9336 332.175C96.8197 332.129 96.6875 332.088 96.5371 332.052C96.389 332.016 96.25 331.997 96.1201 331.997C95.8604 331.997 95.6439 332.053 95.4707 332.165C95.2998 332.276 95.1711 332.441 95.0845 332.657C95.0002 332.873 94.958 333.14 94.958 333.457C94.958 333.76 94.999 334.018 95.0811 334.233C95.1654 334.447 95.2896 334.611 95.4536 334.725C95.62 334.837 95.8273 334.892 96.0757 334.892C96.2739 334.892 96.4528 334.872 96.6123 334.831C96.7718 334.788 96.9165 334.737 97.0464 334.68V335.186C96.9211 335.25 96.7809 335.299 96.626 335.333C96.4733 335.367 96.291 335.385 96.0791 335.385ZM101.165 333.436C101.165 333.744 101.125 334.018 101.045 334.26C100.966 334.502 100.851 334.705 100.7 334.872C100.55 335.038 100.368 335.166 100.153 335.255C99.9414 335.341 99.701 335.385 99.4321 335.385C99.1815 335.385 98.9513 335.341 98.7417 335.255C98.5343 335.166 98.3543 335.038 98.2017 334.872C98.0513 334.705 97.9339 334.502 97.8496 334.26C97.7676 334.018 97.7266 333.744 97.7266 333.436C97.7266 333.026 97.7961 332.677 97.9351 332.39C98.0741 332.101 98.2723 331.881 98.5298 331.731C98.7896 331.578 99.0983 331.502 99.4561 331.502C99.7979 331.502 100.096 331.578 100.352 331.731C100.609 331.883 100.808 332.104 100.95 332.394C101.093 332.681 101.165 333.028 101.165 333.436ZM98.3145 333.436C98.3145 333.737 98.3543 333.998 98.4341 334.219C98.5138 334.44 98.6369 334.611 98.8032 334.732C98.9696 334.852 99.1838 334.913 99.4458 334.913C99.7056 334.913 99.9186 334.852 100.085 334.732C100.254 334.611 100.378 334.44 100.458 334.219C100.537 333.998 100.577 333.737 100.577 333.436C100.577 333.138 100.537 332.88 100.458 332.664C100.378 332.445 100.255 332.276 100.088 332.158C99.922 332.039 99.7067 331.98 99.4424 331.98C99.0527 331.98 98.7668 332.109 98.5845 332.366C98.4045 332.624 98.3145 332.981 98.3145 333.436ZM106.213 331.502C106.626 331.502 106.937 331.61 107.146 331.826C107.356 332.041 107.461 332.386 107.461 332.862V335.316H106.9V332.889C106.9 332.586 106.834 332.36 106.702 332.209C106.572 332.057 106.379 331.98 106.121 331.98C105.759 331.98 105.496 332.085 105.332 332.295C105.167 332.504 105.085 332.813 105.085 333.221V335.316H104.521V332.889C104.521 332.687 104.492 332.518 104.433 332.384C104.376 332.249 104.289 332.149 104.173 332.083C104.059 332.014 103.914 331.98 103.739 331.98C103.49 331.98 103.291 332.031 103.141 332.134C102.99 332.237 102.881 332.389 102.812 332.592C102.746 332.793 102.713 333.04 102.713 333.334V335.316H102.146V331.57H102.604L102.689 332.1H102.72C102.795 331.97 102.89 331.861 103.004 331.772C103.118 331.683 103.245 331.616 103.387 331.57C103.528 331.524 103.678 331.502 103.838 331.502C104.123 331.502 104.361 331.555 104.552 331.662C104.746 331.767 104.886 331.928 104.973 332.144H105.003C105.126 331.928 105.295 331.767 105.509 331.662C105.723 331.555 105.958 331.502 106.213 331.502ZM110.52 330.319L108.661 335.316H108.1L109.963 330.319H110.52ZM111.764 331.57V335.316H111.197V331.57H111.764ZM111.487 330.169C111.581 330.169 111.66 330.199 111.727 330.261C111.795 330.32 111.829 330.414 111.829 330.541C111.829 330.667 111.795 330.76 111.727 330.822C111.66 330.883 111.581 330.914 111.487 330.914C111.389 330.914 111.307 330.883 111.241 330.822C111.177 330.76 111.146 330.667 111.146 330.541C111.146 330.414 111.177 330.32 111.241 330.261C111.307 330.199 111.389 330.169 111.487 330.169ZM114.468 335.385C114.131 335.385 113.833 335.315 113.576 335.176C113.318 335.037 113.118 334.825 112.974 334.54C112.831 334.255 112.759 333.897 112.759 333.464C112.759 333.01 112.834 332.64 112.984 332.353C113.137 332.063 113.347 331.849 113.613 331.71C113.88 331.571 114.183 331.502 114.522 331.502C114.709 331.502 114.889 331.521 115.062 331.56C115.238 331.596 115.382 331.643 115.493 331.7L115.322 332.175C115.208 332.129 115.076 332.088 114.926 332.052C114.778 332.016 114.639 331.997 114.509 331.997C114.249 331.997 114.033 332.053 113.859 332.165C113.688 332.276 113.56 332.441 113.473 332.657C113.389 332.873 113.347 333.14 113.347 333.457C113.347 333.76 113.388 334.018 113.47 334.233C113.554 334.447 113.678 334.611 113.842 334.725C114.009 334.837 114.216 334.892 114.464 334.892C114.663 334.892 114.841 334.872 115.001 334.831C115.16 334.788 115.305 334.737 115.435 334.68V335.186C115.31 335.25 115.17 335.299 115.015 335.333C114.862 335.367 114.68 335.385 114.468 335.385ZM119.554 333.436C119.554 333.744 119.514 334.018 119.434 334.26C119.354 334.502 119.239 334.705 119.089 334.872C118.938 335.038 118.756 335.166 118.542 335.255C118.33 335.341 118.09 335.385 117.821 335.385C117.57 335.385 117.34 335.341 117.13 335.255C116.923 335.166 116.743 335.038 116.59 334.872C116.44 334.705 116.323 334.502 116.238 334.26C116.156 334.018 116.115 333.744 116.115 333.436C116.115 333.026 116.185 332.677 116.324 332.39C116.463 332.101 116.661 331.881 116.918 331.731C117.178 331.578 117.487 331.502 117.845 331.502C118.187 331.502 118.485 331.578 118.74 331.731C118.998 331.883 119.197 332.104 119.338 332.394C119.482 332.681 119.554 333.028 119.554 333.436ZM116.703 333.436C116.703 333.737 116.743 333.998 116.823 334.219C116.903 334.44 117.026 334.611 117.192 334.732C117.358 334.852 117.572 334.913 117.834 334.913C118.094 334.913 118.307 334.852 118.474 334.732C118.642 334.611 118.766 334.44 118.846 334.219C118.926 333.998 118.966 333.737 118.966 333.436C118.966 333.138 118.926 332.88 118.846 332.664C118.766 332.445 118.643 332.276 118.477 332.158C118.311 332.039 118.095 331.98 117.831 331.98C117.441 331.98 117.155 332.109 116.973 332.366C116.793 332.624 116.703 332.981 116.703 333.436ZM122.309 331.502C122.753 331.502 123.089 331.611 123.317 331.83C123.545 332.046 123.659 332.395 123.659 332.876V335.316H123.098V332.913C123.098 332.601 123.026 332.368 122.883 332.213C122.742 332.058 122.524 331.98 122.23 331.98C121.815 331.98 121.524 332.098 121.355 332.332C121.186 332.567 121.102 332.908 121.102 333.354V335.316H120.535V331.57H120.993L121.078 332.11H121.109C121.189 331.978 121.29 331.867 121.413 331.779C121.536 331.687 121.674 331.619 121.827 331.573C121.979 331.526 122.14 331.502 122.309 331.502ZM127.251 334.291C127.251 334.53 127.191 334.732 127.07 334.896C126.951 335.058 126.78 335.179 126.557 335.261C126.336 335.344 126.072 335.385 125.764 335.385C125.502 335.385 125.275 335.364 125.084 335.323C124.893 335.282 124.725 335.224 124.582 335.149V334.626C124.734 334.701 124.917 334.769 125.128 334.831C125.34 334.892 125.557 334.923 125.778 334.923C126.101 334.923 126.336 334.871 126.482 334.766C126.628 334.661 126.701 334.519 126.701 334.339C126.701 334.236 126.671 334.146 126.612 334.069C126.555 333.989 126.458 333.913 126.321 333.84C126.185 333.764 125.995 333.682 125.754 333.594C125.515 333.502 125.307 333.412 125.132 333.323C124.959 333.232 124.824 333.122 124.729 332.992C124.635 332.862 124.588 332.693 124.588 332.486C124.588 332.169 124.716 331.927 124.971 331.758C125.229 331.587 125.566 331.502 125.983 331.502C126.208 331.502 126.419 331.524 126.615 331.57C126.813 331.613 126.998 331.673 127.169 331.748L126.978 332.202C126.823 332.136 126.657 332.08 126.482 332.035C126.306 331.989 126.128 331.967 125.945 331.967C125.683 331.967 125.482 332.01 125.34 332.096C125.201 332.183 125.132 332.302 125.132 332.452C125.132 332.568 125.164 332.664 125.228 332.739C125.294 332.814 125.398 332.885 125.542 332.951C125.686 333.017 125.875 333.094 126.109 333.183C126.344 333.27 126.547 333.36 126.718 333.453C126.889 333.545 127.02 333.656 127.111 333.788C127.204 333.918 127.251 334.086 127.251 334.291Z" fill="#666666"/>
<path d="M28 335.743H127.565V335.914H28V335.743Z" fill="#666666"/>
<a href="https://fonts.google.com/icons">
<rect fill="black" fill-opacity="0" y="0.233643" width="99.5654" height="9.53271"/>
</a>
</svg>
