<svg width="152" height="158" viewBox="0 0 152 158" fill="none" xmlns="http://www.w3.org/2000/svg">
<path d="M129.414 118.561V119.873C129.414 120.964 124.87 122.286 119.266 122.286C113.661 122.286 109.118 120.964 109.118 119.873V118.561C109.118 119.652 113.661 120.973 119.266 120.973C119.522 120.973 119.779 120.973 120.031 120.964C125.278 120.852 129.414 119.602 129.414 118.561Z" fill="#FFD997"/>
<path d="M127.834 103.574C128.724 104.28 129.417 105.219 129.845 106.295C130.272 107.37 130.418 108.545 130.266 109.698C130.115 110.851 129.673 111.942 128.985 112.86C128.296 113.778 127.386 114.489 126.347 114.922L125.049 113.601C126 113.376 126.861 112.85 127.514 112.096C128.166 111.341 128.578 110.395 128.693 109.388C128.807 108.38 128.619 107.361 128.154 106.469C127.689 105.577 126.97 104.856 126.095 104.407L127.834 103.574Z" fill="#81F8F8"/>
<path d="M127.834 103.574L126.098 104.407L126.295 102.671C126.846 102.895 127.364 103.199 127.834 103.574Z" fill="black"/>
<path d="M126.526 117.182C127.021 118.5 124.403 119.851 121.226 120.195C120.825 120.238 120.422 120.261 120.018 120.261C118.172 120.319 116.353 119.785 114.809 118.731C116.191 119.376 117.702 119.669 119.216 119.583C123.228 119.583 124.554 117.942 124.554 117.942L124.673 116.892C125.351 116.975 125.971 117.07 126.526 117.182Z" fill="black"/>
<path d="M113.455 114.265L111.992 101.418L111.905 100.646C112.006 101.075 115.242 101.418 119.216 101.418C123.19 101.418 126.423 101.075 126.524 100.646L126.293 102.671L126.095 104.407L125.049 113.601L124.85 115.332L124.671 116.892L124.552 117.942C124.552 117.942 123.226 119.583 119.214 119.583C117.7 119.669 116.189 119.376 114.807 118.731L114.802 118.726C114.431 118.554 114.111 118.283 113.873 117.941L113.754 116.902L113.455 114.265Z" fill="#81F8F8"/>
<path d="M125.049 113.601L126.348 114.922C125.867 115.123 125.365 115.26 124.852 115.332L125.049 113.601Z" fill="black"/>
<path d="M74.6144 48.6253C74.6936 50.4999 74.956 52.3613 75.3973 54.1808C76.1077 55.7749 77.0281 57.2583 78.1319 58.5885C78.1319 58.5885 78.1319 58.6121 78.1319 58.66L77.7748 58.7503C77.7748 58.7503 77.7242 58.7934 77.8133 58.784C77.921 58.8742 78.0359 58.9545 78.1568 59.0242C78.2562 59.9833 78.5258 60.9148 78.9518 61.7717C79.3634 62.5074 79.8716 63.1798 80.4618 63.7696C80.0493 63.7949 79.6357 63.798 79.2229 63.779C67.691 63.2766 73.3293 45.1643 74.2459 42.6476C74.7087 41.3782 80.2625 33.6075 87.1451 34.0863C97.8887 34.8321 104.51 48.0193 106.798 56.2971L106.827 56.2869C106.827 56.2869 115.196 55.4682 116.332 61.6249V61.6532C115.17 61.5963 114.006 61.613 112.846 61.7034C112.846 61.7034 111.239 69.511 108.154 72.2758C106.211 74.0169 104.429 73.8262 102.73 72.5521C101.244 71.4359 99.8215 69.4906 98.4127 67.2754C95.9314 63.0889 93.6713 58.765 91.6426 54.3229V54.3087C90.7683 54.2844 89.8404 54.213 88.8718 54.0897C84.067 53.4688 74.6144 48.6253 74.6144 48.6253Z" fill="#81F8F8"/>
<path d="M95.1491 65.8992C94.5875 66.738 93.964 67.53 93.2843 68.2684C92.8057 68.7424 92.2699 69.1498 91.6905 69.4804L92.0937 69.5087L93.2148 70.632C93.2148 70.632 95.1446 67.2494 95.1491 65.8992ZM80.7385 57.5884C80.757 57.536 80.757 57.4784 80.7385 57.4259C80.6947 57.3545 80.5527 57.3427 80.1345 57.619C79.3674 58.1309 78.6713 58.5218 78.6713 58.5218L78.1262 58.6623V58.5909C77.024 57.2596 76.1054 55.7753 75.3968 54.1807C74.9568 52.3612 74.6957 50.4998 74.6177 48.6253C74.6177 48.6253 84.0703 53.4688 88.8683 54.0905C89.837 54.2137 90.7641 54.2852 91.6391 54.3095V54.3236C93.6679 58.7658 95.9279 63.0897 98.4092 67.2761C99.8181 69.4882 101.24 71.4366 102.726 72.5529L102.695 72.5984C102.695 72.5984 101.806 74.6465 97.5938 75.0578C93.3817 75.4692 90.4621 70.0001 90.4621 70.0001C89.7824 70.2004 89.0685 70.242 88.3715 70.1217C87.8537 70.0396 87.3569 69.8509 86.91 69.5668C86.4632 69.2826 86.0753 68.9088 85.769 68.467C85.5652 68.153 82.4946 65.933 80.4629 63.7711C79.8727 63.1814 79.3645 62.5089 78.9529 61.7733C78.5269 60.9164 78.2573 59.9848 78.1579 59.0258C78.3232 59.1208 78.133 58.8735 78.3504 58.9088C78.515 59.0446 79.9857 59.0784 80.1186 58.6851C80.1197 58.6812 80.1197 58.6771 80.1186 58.6733C80.4024 58.3658 80.6145 57.9946 80.7385 57.5884ZM87.1401 54.5662C86.7319 54.6721 86.3561 54.8835 86.0476 55.1808C85.3719 55.7241 84.749 56.155 84.6728 56.2068L84.666 56.2115L83.7841 56.5255C83.7841 56.5255 83.7366 56.5726 83.8257 56.5562C84.1134 56.7601 84.4441 56.889 84.7898 56.9322C84.971 57.0515 86.0061 56.6519 86.1118 56.2492C86.5418 55.7513 86.8893 55.1825 87.1401 54.5662Z" fill="#FFD997"/>
<path d="M80.9291 105.51C82.0323 104.203 83.2764 103.032 84.6369 102.021L84.6505 102.014C85.2757 101.526 85.9129 101.059 86.5267 100.625C86.8242 100.413 87.1194 100.211 87.4032 100.016C90.2322 98.0818 100.38 100.716 100.38 100.716L100.499 100.811C100.358 101.001 100.213 101.204 100.076 101.418H100.071C98.7584 102.5 96.8672 107.09 96.7388 107.395L95.9189 107.302C95.6599 107.438 93.0242 108.772 91.3225 108.346C90.1145 108.046 89.3066 107.602 87.6599 107.181C86.5785 106.912 85.4825 106.711 84.378 106.579L83.1481 107.122V107.279H79.9438V107.122C80.1923 106.546 80.5185 106.009 80.9125 105.528C80.9178 105.524 80.9246 105.517 80.9291 105.51Z" fill="#FFD997"/>
<path d="M100.071 101.42C98.9139 103.237 98.3634 105.4 98.5046 107.574H98.2781L96.7417 107.397C96.867 107.093 98.7583 102.503 100.071 101.42Z" fill="black"/>
<path d="M93.2842 68.2684C93.9639 67.53 94.5874 66.738 95.1491 65.8992C95.1446 67.2494 93.2133 70.6304 93.2133 70.6304L92.0936 69.5087L91.6904 69.4804C92.2699 69.1498 92.8056 68.7424 93.2842 68.2684Z" fill="black"/>
<path d="M92.0826 114.685H92.0939C92.0938 115.089 91.9606 115.482 91.7165 115.797C91.4723 116.112 91.1319 116.331 90.7516 116.418L68.3847 121.514C67.9239 121.619 67.4548 121.68 66.9834 121.695V120.401L92.0826 114.685Z" fill="#81F8F8"/>
<path d="M92.0827 114.682L66.9858 120.401L33.6714 115.079L47.5936 111.91L47.6026 111.905C47.6732 112.034 47.7701 112.146 47.8865 112.233C49.4446 112.937 51.0622 113.489 52.7185 113.882L52.751 113.867L53.3761 115.306L53.5936 114.055L53.7725 114.088C54.656 114.378 55.5775 114.525 56.5041 114.522C56.5797 114.508 56.6497 114.472 56.7057 114.417C56.9003 114.195 57.0316 113.922 57.085 113.627C57.1383 113.332 57.1116 113.028 57.0077 112.748C56.9378 112.589 56.84 112.444 56.7193 112.322C57.9878 112.375 59.2491 112.1 60.3901 111.521L63.0582 111.028L63.0726 111.107H63.0771C64.4399 112.437 67.5014 110.694 67.5014 110.694L67.4924 110.749L92.0827 114.682Z" fill="black"/>
<path d="M88.4223 63.5961C88.5507 63.6393 89.0316 63.9941 88.377 64.1534C86.3129 64.6558 86.1875 65.2438 85.2687 65.6449C84.7055 65.893 83.6266 65.4832 83.2853 66.2878C82.704 64.5805 84.0456 64.0522 85.0739 63.8661C85.9467 63.7083 87.8455 63.3959 88.4223 63.5961Z" fill="black"/>
<path d="M88.3676 70.1186L88.3578 70.1877C87.5953 73.7861 84.8886 75.6717 82.6508 73.2147C81.4669 71.9139 80.576 69.3517 79.9984 67.2251C79.4813 65.3278 79.2178 63.7797 79.2178 63.7797C79.6306 63.7988 80.0442 63.7957 80.4567 63.7703C82.4884 65.9322 85.559 68.1538 85.7629 68.4662C86.0696 68.9078 86.458 69.2814 86.9052 69.5651C87.3524 69.8489 87.8496 70.037 88.3676 70.1186Z" fill="#81F8F8"/>
<path d="M87.6598 107.183L87.6372 107.279H83.1479V107.122L84.3778 106.579C85.4825 106.712 86.5784 106.914 87.6598 107.183Z" fill="black"/>
<path d="M86.0482 55.1808C86.3567 54.8835 86.7325 54.6721 87.1407 54.5662C86.5115 55.0729 85.8504 55.5353 85.1618 55.9501L85.152 55.9548C85.1044 55.9737 85.0539 55.9925 85.0055 56.0168C84.9183 56.0574 84.8355 56.1077 84.7587 56.1668C84.7309 56.1816 84.7024 56.195 84.6733 56.2068C84.7496 56.155 85.3725 55.724 86.0482 55.1808Z" fill="white"/>
<path d="M87.5731 54.1282C87.3405 54.8592 86.9673 55.5333 86.4761 56.1095C86.5833 55.6809 85.8894 55.5239 85.2681 55.7429C86.0699 55.2583 86.84 54.7189 87.5731 54.1282Z" fill="white"/>
<path d="M85.3078 55.7453C85.9579 55.5145 86.5913 55.655 86.4758 56.1071C86.1711 56.4557 85.7902 56.7228 85.3652 56.8859C85.2009 56.9397 85.0281 56.9599 84.8563 56.9455C84.506 56.7022 84.4033 56.3332 84.8178 56.0098C84.9756 55.9313 85.1379 55.8449 85.301 55.75L85.3078 55.7453Z" fill="black"/>
<path d="M85.0052 56.0169C85.0535 55.9925 85.1041 55.9737 85.1517 55.9548C85.0195 56.0333 84.8867 56.1048 84.7583 56.1668C84.8351 56.1077 84.9179 56.0574 85.0052 56.0169Z" fill="black"/>
<path d="M84.6728 56.2068C84.7019 56.195 84.7303 56.1816 84.7581 56.1667C84.4214 56.4305 84.5037 56.7335 84.7898 56.9306C84.4441 56.8874 84.1134 56.7584 83.8257 56.5545C84.1151 56.4667 84.3964 56.3518 84.666 56.2115L84.6728 56.2068Z" fill="white"/>
<path d="M83.7847 56.524L84.6665 56.21C84.3969 56.3503 84.1156 56.4651 83.8262 56.553C83.799 56.5357 83.7847 56.524 83.7847 56.524Z" fill="white"/>
<path d="M83.827 56.5553C83.7358 56.5721 83.7845 56.524 83.7845 56.524C83.7845 56.524 83.7991 56.536 83.827 56.5553Z" fill="#FFD997"/>
<path d="M80.7384 57.4236C80.7572 57.476 80.7572 57.5336 80.7384 57.5861V57.4526C80.7356 57.4431 80.7356 57.4331 80.7384 57.4236Z" fill="white"/>
<path d="M80.1178 57.4879V57.6449C79.9732 58.1178 79.7254 58.5496 79.3938 58.9064C79.5221 58.4998 78.9498 58.3184 78.3247 58.4825C78.9485 58.2045 79.5484 57.8718 80.1178 57.4879Z" fill="white"/>
<path d="M79.131 58.1952C79.7546 58.0312 80.3292 58.2125 80.2008 58.6191C79.8971 58.9462 79.5091 59.1754 79.0834 59.2793C78.9947 59.2999 78.904 59.3102 78.8131 59.3099C78.7349 59.3102 78.6578 59.2901 78.589 59.2515C78.5201 59.2128 78.4617 59.1568 78.419 59.0886C78.2793 58.8625 78.3186 58.6003 78.6455 58.3954C78.8109 58.331 78.9732 58.2643 79.131 58.1952Z" fill="black"/>
<path d="M79.0304 58.3577C79.0854 58.3364 79.1419 58.3196 79.1995 58.3075C79.0643 58.3672 78.9247 58.4245 78.7827 58.4786C78.8603 58.4281 78.9434 58.3875 79.0304 58.3577Z" fill="black"/>
<path d="M78.1304 58.66L78.6755 58.5195C78.4392 58.605 78.2633 58.6647 78.1327 58.7024C78.1309 58.6883 78.1302 58.6742 78.1304 58.66Z" fill="white"/>
<path d="M78.1324 58.7C78.1324 58.7738 78.1415 58.8837 78.155 59.0219C78.0341 58.9522 77.9192 58.8718 77.8115 58.7816C77.9209 58.7661 78.0285 58.7388 78.1324 58.7Z" fill="white"/>
<path d="M78.1304 58.66C78.1294 58.6742 78.1294 58.6884 78.1304 58.7026C78.0263 58.7406 77.9188 58.767 77.8095 58.7816L77.771 58.7477L78.1304 58.66Z" fill="white"/>
<path d="M77.8143 58.7848C77.7231 58.7944 77.7749 58.7502 77.7749 58.7502L77.8143 58.7848Z" fill="#FFD997"/>
<path d="M66.986 120.401V121.692C66.5125 121.709 66.0385 121.68 65.5704 121.604L35.0314 116.727C34.6528 116.667 34.3075 116.467 34.0582 116.165C33.8089 115.862 33.6721 115.477 33.6724 115.079L66.986 120.401Z" fill="#81F8F8"/>
<path d="M53.0537 106.507C53.1337 106.452 53.2236 106.394 53.3217 106.337C53.6942 106.132 54.0565 105.908 54.4074 105.666C54.7372 105.404 55.0423 105.109 55.3187 104.787C55.5366 104.54 55.8006 104.341 56.0947 104.203C56.3888 104.065 56.7069 103.991 57.0295 103.984L59.0522 103.696L59.3587 103.06L63.6577 102.399C63.7245 102.544 63.7813 102.694 63.8275 102.848C64.4572 104.956 66.1635 108.021 65.0355 110.392C64.9841 110.504 64.9213 110.609 64.8483 110.706L64.8385 110.699L63.0589 111.027L60.3908 111.52C59.2498 112.099 57.9885 112.374 56.72 112.321C56.4903 112.087 56.2313 111.885 55.9499 111.723C55.4923 110.677 54.5025 110.718 53.8291 110.48L53.7332 110.492L53.5384 108.646V108.642C53.3516 108.598 53.1775 108.509 53.0303 108.382C52.8832 108.254 52.7673 108.092 52.6921 107.909C52.617 107.726 52.5848 107.527 52.5982 107.329C52.6115 107.13 52.6701 106.938 52.7691 106.767C52.8469 106.662 52.9436 106.574 53.0537 106.507Z" fill="#FFD997"/>
<path d="M59.3584 103.059L59.0519 103.695L57.0292 103.983C56.7066 103.989 56.3886 104.063 56.0944 104.201C55.8003 104.339 55.5363 104.538 55.3184 104.786C55.042 105.108 54.7369 105.402 54.4071 105.664C54.0562 105.907 53.6939 106.131 53.3214 106.335L53.2867 106.274L52.5815 99.5899L52.728 99.5726C52.728 99.5726 57.856 102.268 59.3584 103.059Z" fill="#FFD997"/>
<path d="M55.6913 113.227C56.0303 113.132 56.2432 112.853 56.1058 112.22C56.0694 112.049 56.017 111.882 55.9495 111.722C56.2309 111.885 56.4899 112.086 56.7196 112.32C56.8403 112.442 56.9381 112.587 57.008 112.746C57.1119 113.026 57.1386 113.331 57.0853 113.626C57.0319 113.92 56.9006 114.194 56.706 114.415C56.6502 114.47 56.5805 114.506 56.5052 114.521L56.3542 114.397C56.5671 113.582 55.7132 113.305 55.541 113.261C55.592 113.254 55.6423 113.243 55.6913 113.227Z" fill="#FFD997"/>
<path d="M56.3516 114.397L56.5026 114.521C55.5757 114.523 54.654 114.377 53.7702 114.086L53.5913 114.053L53.7793 112.977L54.0972 113.037C54.5606 113.197 55.0472 113.273 55.5354 113.261C55.7106 113.305 56.5645 113.582 56.3516 114.397Z" fill="#FFD997"/>
<path d="M55.6917 113.227C55.6408 113.244 55.5884 113.255 55.5354 113.261C55.0472 113.273 54.5606 113.197 54.0971 113.037L53.7793 112.977L53.9122 112.217L53.731 110.49L53.8268 110.479C54.5003 110.714 55.4878 110.676 55.9476 111.721C56.0152 111.882 56.0675 112.048 56.1039 112.219C56.2466 112.853 56.0337 113.132 55.6917 113.227Z" fill="#FFD997"/>
<path d="M52.1232 112.418L52.7514 113.865L52.7189 113.88C51.0626 113.487 49.445 112.935 47.8869 112.231C47.7705 112.145 47.6736 112.033 47.603 111.903C47.3997 111.459 47.3197 110.964 47.372 110.475C48.3429 111.51 51.0368 112.232 51.9617 112.491L52.1232 112.418Z" fill="#FFD997"/>
<path d="M47.3716 110.477C47.1861 110.301 47.0627 110.065 47.0213 109.807C46.9133 108.812 46.4482 104.924 46.4482 104.924L48.4867 107.017C48.9531 107.886 49.5617 108.665 50.2851 109.317C50.3395 109.367 50.3969 109.415 50.4565 109.462C50.8914 109.814 51.3248 109.581 51.6019 109.11L51.7212 109.162L52.0458 112.244L52.1213 112.418L51.959 112.496C51.0364 112.237 48.3425 111.512 47.3716 110.477Z" fill="#FFD997"/>
<path d="M49.9536 104.226C49.7678 104.345 49.6282 104.431 49.5957 104.45C50.2702 105.094 50.8796 105.808 51.4145 106.581C51.601 106.844 51.7451 107.137 51.8411 107.448C51.9723 108.013 51.887 108.608 51.6032 109.108C51.3262 109.579 50.8928 109.814 50.4579 109.46C50.3983 109.413 50.3409 109.365 50.2865 109.315C49.5631 108.663 48.9545 107.885 48.4881 107.015L46.4496 104.922C46.2842 104.753 46.1564 104.547 46.0752 104.321C45.994 104.095 45.9613 103.853 45.9795 103.612C45.9976 103.371 46.0661 103.137 46.1801 102.927C46.2942 102.716 46.4511 102.534 46.6399 102.393L50.4745 99.52L50.701 99.4933L51.1132 103.403L51.0581 103.41C50.7116 103.713 50.3422 103.985 49.9536 104.226Z" fill="#FFD997"/>
<path d="M51.1165 103.406L51.4487 106.557L51.414 106.581C50.8791 105.808 50.2697 105.094 49.5952 104.45C49.6277 104.431 49.7674 104.345 49.9531 104.226C50.3429 103.987 50.7136 103.715 51.0614 103.414L51.1165 103.406Z" fill="#FFD997"/>
<path d="M114.808 118.726C114.437 118.554 114.116 118.283 113.879 117.941L113.759 116.902L113.457 114.264L111.994 101.417L111.907 100.645" stroke="black" stroke-width="0.980065" stroke-linecap="round" stroke-linejoin="round"/>
<path d="M124.85 115.332L124.671 116.892L124.552 117.942C124.552 117.942 123.226 119.583 119.214 119.583C117.7 119.669 116.189 119.376 114.807 118.73" stroke="black" stroke-width="0.980065" stroke-linecap="round" stroke-linejoin="round"/>
<path d="M126.095 104.407L125.049 113.601" stroke="black" stroke-width="0.980065" stroke-linecap="round" stroke-linejoin="round"/>
<path d="M126.524 100.646L126.292 102.671" stroke="black" stroke-width="0.980065" stroke-linecap="round" stroke-linejoin="round"/>
<path d="M126.527 100.625C126.528 100.632 126.528 100.639 126.527 100.646C126.425 101.075 123.192 101.418 119.218 101.418C115.245 101.418 112.008 101.075 111.908 100.646C111.906 100.639 111.906 100.632 111.908 100.625C111.908 100.187 115.183 99.8348 119.221 99.8348C123.258 99.8348 126.527 100.187 126.527 100.625Z" stroke="black" stroke-width="0.980065" stroke-linecap="round" stroke-linejoin="round"/>
<path d="M126.292 102.671L126.095 104.407C126.97 104.856 127.689 105.577 128.154 106.469C128.619 107.361 128.808 108.38 128.693 109.388C128.578 110.395 128.166 111.341 127.514 112.096C126.861 112.85 126 113.376 125.049 113.601L124.85 115.332C126.239 115.133 127.525 114.46 128.507 113.419C129.488 112.378 130.11 111.028 130.275 109.58C130.44 108.133 130.138 106.669 129.417 105.418C128.696 104.168 127.596 103.202 126.29 102.671H126.292Z" stroke="black" stroke-width="0.980065" stroke-linecap="round" stroke-linejoin="round"/>
<path d="M125.049 113.601L126.347 114.922" stroke="black" stroke-width="0.980065" stroke-linecap="round" stroke-linejoin="round"/>
<path d="M127.834 103.574L126.095 104.407" stroke="black" stroke-width="0.980065" stroke-linecap="round" stroke-linejoin="round"/>
<path d="M124.676 116.892C125.351 116.975 125.972 117.07 126.526 117.182C128.313 117.537 129.414 118.026 129.414 118.561C129.414 119.602 125.278 120.852 120.031 120.964C119.779 120.971 119.522 120.973 119.266 120.973C113.661 120.973 109.118 119.652 109.118 118.561C109.118 117.866 110.964 117.256 113.756 116.904" stroke="black" stroke-width="0.980065" stroke-linecap="round" stroke-linejoin="round"/>
<path d="M109.118 118.561V119.873C109.118 120.964 113.661 122.286 119.266 122.286C124.87 122.286 129.414 120.964 129.414 119.873V118.561" stroke="black" stroke-width="0.980065" stroke-linecap="round" stroke-linejoin="round"/>
<path d="M114.808 118.726L114.813 118.731C116.357 119.785 118.176 120.319 120.022 120.261C120.426 120.261 120.829 120.239 121.23 120.195C124.407 119.852 127.025 118.5 126.53 117.182" stroke="black" stroke-width="0.980065" stroke-linecap="round" stroke-linejoin="round"/>
<path d="M33.6714 115.079L66.9858 120.402" stroke="black" stroke-width="0.980065" stroke-linecap="round" stroke-linejoin="round"/>
<path d="M67.4961 110.753L92.0849 114.682" stroke="black" stroke-width="0.980065" stroke-linecap="round" stroke-linejoin="round"/>
<path d="M47.5936 111.91L33.6714 115.079C33.6711 115.478 33.808 115.863 34.0573 116.165C34.3066 116.468 34.6518 116.667 35.0304 116.728L65.5694 121.604C66.0375 121.68 66.5115 121.71 66.985 121.692C67.4565 121.677 67.9255 121.617 68.3863 121.512L90.7532 116.416C91.1335 116.329 91.4739 116.11 91.7181 115.795C91.9622 115.48 92.0954 115.087 92.0955 114.682H92.0842L66.9858 120.401V121.697" stroke="black" stroke-width="0.980065" stroke-linecap="round" stroke-linejoin="round"/>
<path d="M14.3682 107.279H24.8234H28.2088H29.136H30.3409H38.5357H45.2665" stroke="black" stroke-width="0.980065" stroke-linecap="round" stroke-linejoin="round"/>
<path d="M141.399 107.279H146.917" stroke="black" stroke-width="0.980065" stroke-linecap="round" stroke-linejoin="round"/>
<path d="M79.1836 107.279H79.9439H83.1481H87.6373" stroke="black" stroke-width="0.980065" stroke-linecap="round" stroke-linejoin="round"/>
<path d="M37.3813 83.3184C40.1132 79.968 43.2262 76.9748 46.652 74.4047C46.652 74.4047 47.7128 89.1627 44.6414 96.1006C42.9029 99.9754 40.8608 103.695 38.5357 107.222" stroke="black" stroke-width="0.980065" stroke-linecap="round" stroke-linejoin="round"/>
<path d="M30.7231 100.697C31.035 98.1174 31.5592 95.5699 32.2898 93.083C32.8782 91.0659 33.6817 89.1235 34.6854 87.292C35.4809 85.8975 36.3817 84.5709 37.3792 83.3246" stroke="black" stroke-width="0.980065" stroke-linecap="round" stroke-linejoin="round"/>
<path d="M30.3411 107.222C30.3155 106.594 30.3207 105.495 30.4076 104.088C30.4672 103.095 30.5654 101.947 30.7231 100.704" stroke="black" stroke-width="0.980065" stroke-linecap="round" stroke-linejoin="round"/>
<path d="M43.0075 82.4203C39.8101 88.5378 35.9467 99.3849 34.2744 107.222" stroke="black" stroke-width="0.980065" stroke-linecap="round" stroke-linejoin="round"/>
<path d="M28.2096 107.222C27.5301 103.454 23.4705 97.906 16.8657 96.8486C16.8657 96.8486 18.9797 106.24 24.8242 107.222" stroke="black" stroke-width="0.980065" stroke-linecap="round" stroke-linejoin="round"/>
<path d="M19.46 99.3489C22 101.781 24.356 104.413 26.5071 107.222" stroke="black" stroke-width="0.980065" stroke-linecap="round" stroke-linejoin="round"/>
<path d="M25.8088 86.3209C21.2328 85.1089 14.6197 81.5152 13.8647 72.6572C13.8647 72.6572 25.0871 78.4819 25.8088 86.3209Z" stroke="black" stroke-width="0.980065" stroke-linecap="round" stroke-linejoin="round"/>
<path d="M16.7231 76.3123C19.4994 79.8867 22.537 83.2329 25.8088 86.321" stroke="black" stroke-width="0.980065" stroke-linecap="round" stroke-linejoin="round"/>
<path d="M30.7228 100.704V100.698C30.4211 98.6974 29.9445 96.7302 29.2989 94.8202C28.9836 93.8695 28.6199 92.9369 28.2094 92.0264C27.7382 90.9617 27.1683 89.9474 26.5076 88.9979C25.673 87.6727 24.43 86.6817 22.9825 86.1876C17.0935 84.6066 8.56731 87.0118 3.46729 91.7265C3.46729 91.7265 10.3174 94.6554 19.838 92.7549C25.4627 91.6339 28.5137 96.8486 30.3279 104.083" stroke="black" stroke-width="0.980065" stroke-linecap="round" stroke-linejoin="round"/>
<path d="M19.8374 92.7548C21.6441 93.8094 23.2514 95.1965 24.5811 96.8486C26.9415 99.8353 28.5116 103.411 29.136 107.222" stroke="black" stroke-width="0.980065" stroke-linecap="round" stroke-linejoin="round"/>
<path d="M26.5073 89.001C26.8093 85.872 29.4956 78.2661 41.4125 69.9836C41.1069 74.6994 39.7251 79.2716 37.3816 83.3215V83.3262" stroke="black" stroke-width="0.980065" stroke-linecap="round" stroke-linejoin="round"/>
<path d="M32.2865 93.083C31.4836 93.9666 30.4401 94.5739 29.2959 94.8234" stroke="black" stroke-width="0.980065" stroke-linecap="round" stroke-linejoin="round"/>
<path d="M37.5005 77.4937C34.476 80.5795 30.1279 90.5097 28.2095 92.0264" stroke="black" stroke-width="0.980065" stroke-linecap="round" stroke-linejoin="round"/>
<path d="M24.9931 80.9799C24.9931 79.7459 22.0592 69.4349 28.7492 63.494C28.7492 63.494 29.1358 75.0743 24.9931 80.9799Z" stroke="black" stroke-width="0.980065" stroke-linecap="round" stroke-linejoin="round"/>
<path d="M26.5071 89.001C26.5071 89.001 24.9971 82.2139 24.9971 80.983" stroke="black" stroke-width="0.980065" stroke-linecap="round" stroke-linejoin="round"/>
<path d="M112.839 61.701C113.999 61.6106 115.163 61.5939 116.325 61.6508C119.898 61.8078 125.23 62.6815 127.353 66.3082C130.68 71.9853 137.895 89.4453 139.234 94.1411C142.166 104.407 142.72 113.168 130.174 114.141C129.661 114.182 128.759 114.208 127.834 114.227" stroke="black" stroke-width="0.980065" stroke-linecap="round" stroke-linejoin="round"/>
<path d="M100.076 101.418C100.213 101.204 100.357 101.001 100.499 100.811C100.763 100.457 101.028 100.137 101.278 99.8348C101.957 99.0035 111.861 101.388 111.992 101.418" stroke="black" stroke-width="0.980065" stroke-linecap="round" stroke-linejoin="round"/>
<path d="M113.525 114.284L113.454 114.265C112.613 114.037 104.545 111.851 102.923 111.753C101.214 111.648 98.6036 111.858 98.5032 107.576C98.3619 105.402 98.9124 103.24 100.07 101.423" stroke="black" stroke-width="0.980065" stroke-linecap="round" stroke-linejoin="round"/>
<path d="M120.367 96.7677C119.023 95.6177 117.8 94.1246 120.017 91.9525C120.12 91.8528 120.221 91.75 120.319 91.6503C122.282 89.6046 122.664 87.8211 121.773 86.1137C120.838 84.3231 119.377 83.2155 119.904 81.2561C120.431 79.2968 121.54 78.9011 121.072 76.3459" stroke="black" stroke-width="0.980065" stroke-linecap="round" stroke-linejoin="round"/>
<path d="M116.831 95.6029C115.841 94.7558 114.937 93.6553 116.572 92.0531C118.208 90.4509 118.553 89.0701 117.864 87.7497C117.175 86.4293 116.1 85.6161 116.488 84.1709C116.875 82.7257 117.692 82.4368 117.348 80.5513" stroke="black" stroke-width="0.980065" stroke-linecap="round" stroke-linejoin="round"/>
<path d="M118.793 86.5565L120.315 91.6504L122.756 99.8348" stroke="black" stroke-width="0.980065" stroke-linecap="round" stroke-linejoin="round"/>
<path d="M131.008 99.834C128.922 98.7719 124.905 98.4453 123.313 99.3245C123.085 99.4366 122.892 99.6131 122.756 99.834" stroke="black" stroke-width="0.980065" stroke-linecap="round" stroke-linejoin="round"/>
<path d="M123.313 99.3254C123.313 99.3254 124.765 96.6893 126.585 95.8439" stroke="black" stroke-width="0.980065" stroke-linecap="round" stroke-linejoin="round"/>
<path d="M79.9918 67.2274C78.3531 69.4831 77.4036 72.1984 77.2662 75.0217C76.8563 79.9845 79.1832 95.4654 79.1832 95.4654" stroke="black" stroke-width="0.980065" stroke-linecap="round" stroke-linejoin="round"/>
<path d="M80.833 75.0217C80.2675 77.8697 79.631 84.5375 80.833 89.2954C82.0349 94.0533 86.5272 100.625 86.5272 100.625" stroke="black" stroke-width="0.980065" stroke-linecap="round" stroke-linejoin="round"/>
<path d="M80.9125 105.531C80.5185 106.011 80.1923 106.548 79.9438 107.124" stroke="black" stroke-width="0.980065" stroke-linecap="round" stroke-linejoin="round"/>
<path d="M84.637 102.021C83.2765 103.032 82.0324 104.203 80.9292 105.51" stroke="black" stroke-width="0.980065" stroke-linecap="round" stroke-linejoin="round"/>
<path d="M100.38 100.716C100.38 100.716 90.2321 98.0818 87.4031 100.016C87.1192 100.211 86.824 100.413 86.5266 100.625C85.9128 101.059 85.2755 101.526 84.6504 102.014" stroke="black" stroke-width="0.980065" stroke-linecap="round" stroke-linejoin="round"/>
<path d="M95.9392 107.295C95.9328 107.299 95.9259 107.303 95.9188 107.305C95.6598 107.441 93.0241 108.774 91.3223 108.348C90.1143 108.048 89.3065 107.605 87.6598 107.183C86.5784 106.915 85.4824 106.713 84.3778 106.581L83.1479 107.124" stroke="black" stroke-width="0.980065" stroke-linecap="round" stroke-linejoin="round"/>
<path d="M84.426 103.838C84.426 103.838 81.9776 104.23 80.9289 105.51C80.9243 105.517 80.9175 105.524 80.9123 105.531C80.9016 105.542 80.8918 105.554 80.8828 105.567" stroke="black" stroke-width="0.980065" stroke-linecap="round" stroke-linejoin="round"/>
<path d="M98.2749 107.574L96.7385 107.397L95.9186 107.305L95.6943 107.279" stroke="black" stroke-width="0.980065" stroke-linecap="round" stroke-linejoin="round"/>
<path d="M84.6367 102.021L84.6503 102.014C85.166 101.722 85.7248 101.522 86.3038 101.42" stroke="black" stroke-width="0.980065" stroke-linecap="round" stroke-linejoin="round"/>
<path d="M96.7344 107.415C96.7365 107.409 96.738 107.403 96.7389 107.397C96.8673 107.093 98.7585 102.502 100.071 101.42H100.076" stroke="black" stroke-width="0.980065" stroke-linecap="round" stroke-linejoin="round"/>
<path d="M88.8765 48.0389C88.8765 48.0389 95.445 50.9159 98.5005 50.0752C101.556 49.2344 103.017 50.6325 102.691 55.8693" stroke="black" stroke-width="0.980065" stroke-linecap="round" stroke-linejoin="round"/>
<path d="M95.1494 65.8969C95.4031 65.5319 95.6303 65.1904 95.7995 64.9227" stroke="black" stroke-width="0.980065" stroke-linecap="round" stroke-linejoin="round"/>
<path d="M80.4595 63.7679C82.4912 65.9298 85.5618 68.1514 85.7656 68.4638C86.0719 68.9056 86.4598 69.2795 86.9066 69.5636C87.3535 69.8478 87.8503 70.0364 88.3681 70.1186C89.0651 70.2388 89.779 70.1973 90.4587 69.9969C90.887 69.8742 91.3004 69.7009 91.6909 69.4804C92.2703 69.1498 92.8061 68.7423 93.2847 68.2684C93.9643 67.53 94.5878 66.7379 95.1495 65.8992" stroke="black" stroke-width="0.980065" stroke-linecap="round" stroke-linejoin="round"/>
<path d="M74.6143 48.6253C74.6935 50.4999 74.9559 52.3613 75.3972 54.1807C76.1076 55.7748 77.028 57.2583 78.1318 58.5885C78.1318 58.5885 78.1318 58.6121 78.1318 58.66C78.1308 58.6741 78.1308 58.6882 78.1318 58.7024C78.1318 58.7761 78.1409 58.886 78.1545 59.0242C78.2539 59.9832 78.5234 60.9148 78.9495 61.7717C79.3611 62.5074 79.8693 63.1798 80.4595 63.7695" stroke="black" stroke-width="0.980065" stroke-linecap="round" stroke-linejoin="round"/>
<path d="M80.4594 63.768C80.0468 63.7933 79.6333 63.7965 79.2204 63.7774C67.6886 63.275 73.3269 45.1627 74.2435 42.646C74.7063 41.3766 80.2601 33.6059 87.1426 34.0848C97.8863 34.8305 104.508 48.0177 106.795 56.2955C107.202 57.7014 107.488 59.1421 107.649 60.6005" stroke="black" stroke-width="0.980065" stroke-linecap="round" stroke-linejoin="round"/>
<path d="M82.041 54.9021C82.041 54.9021 82.0705 53.8118 84.2622 52.9349" stroke="black" stroke-width="0.980065" stroke-linecap="round" stroke-linejoin="round"/>
<path d="M76.708 56.4431C77.4505 56.1298 78.2475 55.9803 79.0485 56.0043" stroke="black" stroke-width="0.980065" stroke-linecap="round" stroke-linejoin="round"/>
<path d="M83.6661 56.407C83.6661 56.407 83.611 56.462 83.7137 56.4431C84.0515 56.3397 84.3799 56.2058 84.6952 56.0428L85.2698 55.7382C86.0717 55.2559 86.8416 54.718 87.574 54.1282" stroke="black" stroke-width="0.980065" stroke-linecap="round" stroke-linejoin="round"/>
<path d="M77.7183 58.7314L77.8421 58.6835C78.0067 58.6191 78.169 58.5524 78.3275 58.4833C79.3007 58.0477 80.6816 57.4628 80.7368 57.4236" stroke="black" stroke-width="0.980065" stroke-linecap="round" stroke-linejoin="round"/>
<path d="M92.0938 69.5087L93.2134 70.6304L93.8982 71.3142" stroke="black" stroke-width="0.980065" stroke-linecap="round" stroke-linejoin="round"/>
<path d="M74.6143 48.6253C74.6143 48.6253 84.0669 53.4688 88.8649 54.0905C89.8335 54.2137 90.7607 54.2852 91.6357 54.3095C94.1668 54.4168 96.6984 54.1123 99.1389 53.4067" stroke="black" stroke-width="0.980065" stroke-linecap="round" stroke-linejoin="round"/>
<path d="M74.6143 48.6253C74.6143 48.6253 73.7211 48.0656 73.6592 47.4533" stroke="black" stroke-width="0.980065" stroke-linecap="round" stroke-linejoin="round"/>
<path d="M91.6357 54.3236C93.6644 58.7658 95.9245 63.0897 98.4058 67.2761C99.8147 69.4882 101.237 71.4366 102.723 72.5529C104.422 73.8269 106.204 74.0177 108.147 72.2766C111.232 69.5118 112.839 61.7042 112.839 61.7042" stroke="black" stroke-width="0.980065" stroke-linecap="round" stroke-linejoin="round"/>
<path d="M106.823 56.2853C106.823 56.2853 115.192 55.4666 116.327 61.6233" stroke="black" stroke-width="0.980065" stroke-linecap="round" stroke-linejoin="round"/>
<path d="M90.4585 69.9969C90.4585 69.9969 93.3811 75.4668 97.5902 75.0547C101.799 74.6426 102.691 72.5945 102.691 72.5945" stroke="black" stroke-width="0.980065" stroke-linecap="round" stroke-linejoin="round"/>
<path d="M93.2153 70.632C93.2153 70.632 95.1466 67.251 95.1512 65.9008" stroke="black" stroke-width="0.980065" stroke-linecap="round" stroke-linejoin="round"/>
<path d="M79.2178 63.7797C79.2178 63.7797 79.4813 65.3277 79.9984 67.2251C80.576 69.3517 81.4669 71.9139 82.6508 73.2146C84.8886 75.6717 87.5953 73.7861 88.3578 70.1877" stroke="black" stroke-width="0.980065" stroke-linecap="round" stroke-linejoin="round"/>
<path d="M84.1211 66.999C84.5439 67.1576 84.9931 67.2259 85.4418 67.1997C85.8905 67.1735 86.3296 67.0535 86.7326 66.8467C87.3548 66.5819 87.9101 66.172 88.3559 65.6488" stroke="black" stroke-width="0.980065" stroke-linecap="round" stroke-linejoin="round"/>
<path d="M80.7388 57.5884C80.8474 58.8209 80.8948 60.0584 80.8807 61.296C80.6814 64.0294 82.8935 64.0435 83.9981 62.4342" stroke="black" stroke-width="0.980065" stroke-linecap="round" stroke-linejoin="round"/>
<path d="M79.7007 55.4619C80.0001 55.6563 80.2507 55.9221 80.4318 56.2371C80.613 56.5521 80.7195 56.9074 80.7426 57.2736V57.4236C80.7403 57.4323 80.7403 57.4415 80.7426 57.4503V57.5837" stroke="black" stroke-width="0.980065" stroke-linecap="round" stroke-linejoin="round"/>
<path d="M59.0519 103.695L57.0292 103.983C56.7066 103.989 56.3886 104.063 56.0944 104.201C55.8003 104.339 55.5363 104.538 55.3184 104.786C55.042 105.108 54.7369 105.402 54.4071 105.664C54.0562 105.907 53.6939 106.131 53.3214 106.335C53.2233 106.393 53.1335 106.45 53.0534 106.505C52.9437 106.572 52.8474 106.659 52.7695 106.764C52.6706 106.934 52.612 107.127 52.5987 107.325C52.5853 107.524 52.6175 107.723 52.6926 107.906C52.7678 108.089 52.8837 108.251 53.0308 108.378C53.178 108.506 53.3521 108.595 53.5389 108.639C53.9909 108.742 54.4633 108.683 54.879 108.471C55.9238 107.998 56.847 107.276 57.5744 106.364" stroke="black" stroke-width="0.980065" stroke-linecap="round" stroke-linejoin="round"/>
<path d="M56.3311 107.708C56.6424 108.37 57.1618 108.901 57.8033 109.215C58.2521 109.352 58.7241 109.388 59.1873 109.319C59.6506 109.251 60.0942 109.079 60.4881 108.817" stroke="black" stroke-width="0.980065" stroke-linecap="round" stroke-linejoin="round"/>
<path d="M50.4746 99.52L46.6384 102.391C46.4496 102.532 46.2927 102.714 46.1787 102.925C46.0646 103.135 45.9961 103.369 45.978 103.61C45.9599 103.851 45.9926 104.093 46.0738 104.319C46.155 104.546 46.2827 104.751 46.4481 104.921L48.4866 107.014C48.953 107.883 49.5616 108.661 50.2851 109.314C50.3394 109.364 50.3968 109.412 50.4564 109.459C50.8913 109.811 51.3247 109.578 51.6018 109.106C51.8857 108.607 51.9715 108.012 51.8411 107.448C51.7448 107.137 51.6002 106.843 51.413 106.579C50.8781 105.807 50.2687 105.092 49.5942 104.448C49.4689 104.322 49.3368 104.204 49.1986 104.093" stroke="black" stroke-width="0.980065" stroke-linecap="round" stroke-linejoin="round"/>
<path d="M49.5884 104.454L49.5952 104.45C49.6276 104.431 49.7673 104.345 49.953 104.226C50.3429 103.987 50.7135 103.715 51.0614 103.414" stroke="black" stroke-width="0.980065" stroke-linecap="round" stroke-linejoin="round"/>
<path d="M53.0538 106.506C53.0447 107.202 53.7635 107.578 54.588 107.364" stroke="black" stroke-width="0.980065" stroke-linecap="round" stroke-linejoin="round"/>
<path d="M50.2848 109.317C50.4115 109.258 50.5233 109.169 50.6112 109.058C50.699 108.946 50.7605 108.815 50.7906 108.674C50.9008 108.183 50.0122 107.41 50.0122 107.41" stroke="black" stroke-width="0.980065" stroke-linecap="round" stroke-linejoin="round"/>
<path d="M61.3969 110.581C61.1369 110.972 60.7935 111.294 60.3935 111.523C59.2525 112.102 57.9911 112.377 56.7227 112.324" stroke="black" stroke-width="0.980065" stroke-linecap="round" stroke-linejoin="round"/>
<path d="M52.728 99.5726C52.728 99.5726 57.856 102.271 59.3584 103.059C59.8613 103.322 60.3314 103.649 60.7582 104.031" stroke="black" stroke-width="0.980065" stroke-linecap="round" stroke-linejoin="round"/>
<path d="M49.2632 103.254C49.454 103.333 49.6198 103.466 49.7417 103.638C49.8635 103.809 49.9366 104.013 49.9525 104.226" stroke="black" stroke-width="0.980065" stroke-linecap="round" stroke-linejoin="round"/>
<path d="M46.4482 104.924C46.4482 104.924 46.9133 108.812 47.0213 109.807C47.0627 110.065 47.1861 110.301 47.3716 110.477C48.3425 111.512 51.0364 112.234 51.9613 112.494" stroke="black" stroke-width="0.980065" stroke-linecap="round" stroke-linejoin="round"/>
<path d="M55.9529 111.722C56.0204 111.882 56.0728 112.049 56.1092 112.22C56.2466 112.853 56.0337 113.132 55.6947 113.227C55.6438 113.243 55.5914 113.255 55.5384 113.261C55.0501 113.273 54.5635 113.197 54.1001 113.037" stroke="black" stroke-width="0.980065" stroke-linecap="round" stroke-linejoin="round"/>
<path d="M53.8301 110.477C54.5035 110.713 55.4911 110.674 55.9509 111.72" stroke="black" stroke-width="0.980065" stroke-linecap="round" stroke-linejoin="round"/>
<path d="M47.3711 110.475C47.3187 110.965 47.3987 111.46 47.6021 111.906C47.6727 112.035 47.7696 112.147 47.886 112.234C49.4441 112.938 51.0617 113.49 52.718 113.882" stroke="black" stroke-width="0.980065" stroke-linecap="round" stroke-linejoin="round"/>
<path d="M53.7729 114.086C54.6565 114.377 55.5779 114.523 56.5045 114.521C56.5801 114.507 56.6501 114.47 56.7061 114.415C56.9007 114.194 57.0321 113.92 57.0854 113.626C57.1388 113.331 57.112 113.026 57.0081 112.746C56.9382 112.587 56.8404 112.442 56.7197 112.32C56.49 112.086 56.231 111.885 55.9496 111.722" stroke="black" stroke-width="0.980065" stroke-linecap="round" stroke-linejoin="round"/>
<path d="M53.5394 108.643L53.7342 110.489L53.9154 112.217L53.7825 112.977L53.5945 114.053L53.3771 115.304L52.7519 113.865L52.1238 112.418L52.0483 112.244L51.7236 109.162" stroke="black" stroke-width="0.980065" stroke-linecap="round" stroke-linejoin="round"/>
<path d="M51.4485 106.557L51.1163 103.407L50.7041 99.4964L50.079 93.5697L49.8887 91.772C49.8742 91.6385 49.8866 91.5033 49.9253 91.3751C49.964 91.2469 50.0281 91.1285 50.1134 91.0276C50.1988 90.9267 50.3035 90.8455 50.4208 90.7891C50.5381 90.7328 50.6655 90.7026 50.7947 90.7005H50.8083C51.0369 90.7006 51.2575 90.7883 51.4279 90.9469C51.5983 91.1055 51.7064 91.3238 51.7317 91.5601L51.9265 93.3978L52.5788 99.5898L53.2839 106.274" stroke="black" stroke-width="0.980065" stroke-linecap="round" stroke-linejoin="round"/>
<path d="M50.0757 93.5697H50.0787L51.9292 93.3978" stroke="black" stroke-width="0.980065" stroke-linecap="round" stroke-linejoin="round"/>
<path d="M52.9805 103.352C52.9805 103.352 53.6283 103.759 54.0526 104.002" stroke="black" stroke-width="0.980065" stroke-linecap="round" stroke-linejoin="round"/>
<path d="M59.3589 103.059L63.6579 102.397" stroke="black" stroke-width="0.980065" stroke-linecap="round" stroke-linejoin="round"/>
<path d="M60.394 111.52L63.0622 111.027L64.8417 110.698" stroke="black" stroke-width="0.980065" stroke-linecap="round" stroke-linejoin="round"/>
<path d="M62.2329 101.59C62.2675 101.573 62.3037 101.56 62.3409 101.552C62.7803 101.425 63.3095 101.661 63.6576 102.397C63.7245 102.543 63.7812 102.693 63.8275 102.847C64.4571 104.955 66.1634 108.019 65.0355 110.391C64.984 110.502 64.9213 110.607 64.8482 110.705C64.6359 110.964 64.3481 111.143 64.0284 111.216C63.7088 111.29 63.375 111.252 63.0778 111.11" stroke="black" stroke-width="0.980065" stroke-linecap="round" stroke-linejoin="round"/>
<path d="M61.5718 102.699C61.5735 102.47 61.6353 102.246 61.7507 102.051C61.8661 101.856 62.0306 101.697 62.2264 101.592" stroke="black" stroke-width="0.980065" stroke-linecap="round" stroke-linejoin="round"/>
<path d="M54.8906 111.958C55.062 112.003 55.9053 112.415 55.6947 113.227" stroke="black" stroke-width="0.980065" stroke-linecap="round" stroke-linejoin="round"/>
<path d="M55.5405 113.257C55.7127 113.302 56.5666 113.579 56.3537 114.393" stroke="black" stroke-width="0.980065" stroke-linecap="round" stroke-linejoin="round"/>
<path d="M49.0688 109.078C49.2098 108.977 49.3767 108.922 49.5475 108.922C49.7184 108.922 49.8852 108.977 50.0262 109.078" stroke="black" stroke-width="0.980065" stroke-linecap="round" stroke-linejoin="round"/>
<path d="M62.2261 101.592H62.2329L62.3408 101.554L78.2306 95.9082C78.5221 95.7119 78.8496 95.5804 79.1924 95.522C79.9123 95.3928 80.6531 95.5064 81.3064 95.8462" stroke="black" stroke-width="0.980065" stroke-linecap="round" stroke-linejoin="round"/>
<path d="M63.0762 111.108H63.0807C64.4435 112.439 67.505 110.696 67.505 110.696L79.1833 107.277" stroke="black" stroke-width="0.980065" stroke-linecap="round" stroke-linejoin="round"/>
</svg>
