<svg width="1515" height="1099" viewBox="0 0 1515 1099" fill="none" xmlns="http://www.w3.org/2000/svg">
<g filter="url(#filter0_d_13_0)">
<g clip-path="url(#clip0_13_0)">
<rect x="75" width="1440" height="1024" rx="20" fill="#150A2B"/>
<path d="M419.735 983.342C410.999 990.672 407.98 987.073 406.5 985.31C405.019 983.546 403.532 978.662 410.736 972.617C416.767 967.557 574.168 845.168 625.274 805.44C625.788 805.041 626.396 805.784 625.903 806.208C576.836 848.398 425.73 978.311 419.735 983.342Z" fill="url(#paint0_linear_13_0)"/>
<path d="M681.428 712.363C657.5 732.441 655.893 730.526 655.25 729.76C654.607 728.994 653 727.078 676.928 707C695.177 691.688 1006.41 434.55 1153.14 313.34C1153.65 312.918 1154.29 313.669 1153.78 314.096C1007.16 437.744 694.843 701.106 681.428 712.363Z" fill="url(#paint1_linear_13_0)"/>
<path d="M988.161 48.436C1005.37 33.9998 1006.97 35.9149 1007.62 36.681C1008.26 37.447 1009.87 39.3621 992.661 53.7983C979.54 64.8079 755.204 249.029 649.444 335.864C648.932 336.284 648.297 335.532 648.803 335.105C754.142 246.101 978.516 56.5295 988.161 48.436Z" fill="url(#paint2_linear_13_0)"/>
<path d="M1052.87 271.559C1062.23 263.707 1073.76 261.69 1076.87 264.929C1079.97 268.167 1073.15 279.289 1065.12 286.154C1058.19 292.075 831.049 468.598 768.687 517.054C768.173 517.453 767.568 516.714 768.061 516.29C827.768 464.947 1044.8 278.329 1052.87 271.559Z" fill="url(#paint3_linear_13_0)"/>
<path d="M970.91 828.134C961.551 835.987 950.015 838.003 946.912 834.765C943.809 831.526 950.626 820.404 958.663 813.539C965.594 807.618 1192.73 631.095 1255.09 582.639C1255.61 582.24 1256.21 582.98 1255.72 583.404C1196.01 634.746 978.978 821.364 970.91 828.134Z" fill="url(#paint4_linear_13_0)"/>
<path d="M1452.34 452.165C1461.34 445.165 1467.44 448.124 1469.21 450.144C1470.99 452.165 1471.84 457.21 1462.84 465.165C1455.14 471.972 1382.6 520.052 1361.85 533.772C1361.33 534.113 1360.79 533.41 1361.25 532.996C1379.77 516.356 1444.64 458.157 1452.34 452.165Z" fill="url(#paint5_linear_13_0)"/>
<path d="M941.78 275.693C932.78 282.693 926.687 279.734 924.913 277.714C923.138 275.693 922.28 270.648 931.28 262.693C938.982 255.885 1011.52 207.806 1032.27 194.086C1032.79 193.745 1033.33 194.448 1032.87 194.862C1014.35 211.502 949.484 269.701 941.78 275.693Z" fill="url(#paint6_linear_13_0)"/>
<path d="M1106.21 552.207C1076.52 576.663 1071.41 573.993 1070.41 573C1069.41 572.007 1067.17 567.109 1098.06 540.855C1124.02 518.791 1345.2 343.477 1415.12 288.091C1415.64 287.684 1416.24 288.437 1415.74 288.862C1347.57 347.041 1131.18 531.639 1106.21 552.207Z" fill="url(#paint7_linear_13_0)"/>
<path d="M867.956 498.242C897.65 473.787 902.754 476.457 903.754 477.449C904.754 478.442 906.992 483.34 876.104 509.594C850.145 531.659 628.965 706.972 559.041 762.358C558.528 762.765 557.924 762.012 558.422 761.588C626.598 703.408 842.984 518.81 867.956 498.242Z" fill="url(#paint8_linear_13_0)"/>
<path d="M622.618 216.73C626.433 214.007 633.067 213.583 636.141 217.168C639.214 220.752 637.262 226.428 633.508 229.943C630.285 232.96 591.24 252.568 580.249 258.06C579.737 258.316 579.277 257.662 579.688 257.265C588.445 248.818 619.348 219.063 622.618 216.73Z" fill="url(#paint9_linear_13_0)"/>
<path d="M637.747 896.468C622.972 908.866 607.666 917.196 605.462 913.611C603.257 910.027 615.988 896.497 628.726 885.719C639.398 876.689 972.568 606.901 1080.39 519.604C1080.9 519.19 1081.53 519.938 1081.03 520.365C975.543 609.893 650.119 886.087 637.747 896.468Z" fill="url(#paint10_linear_13_0)"/>
<path d="M341.144 390.991C355.918 378.593 372.844 372.194 376.999 378.103C381.154 384.012 369.445 398.76 356.739 409.576C345.576 419.078 -24.1104 710.692 -113.761 781.399C-114.274 781.804 -114.879 781.05 -114.383 780.625C-27.8542 706.569 328.168 401.878 341.144 390.991Z" fill="url(#paint11_linear_13_0)"/>
<path d="M172.777 714.527C159.902 725.33 157.961 723.017 157.009 721.883C156.058 720.749 156.375 716.541 166.992 707.632C175.417 700.563 380.681 533.92 465.129 465.37C465.641 464.955 466.267 465.708 465.764 466.135C382.808 536.488 181.152 707.5 172.777 714.527Z" fill="url(#paint12_linear_13_0)"/>
<path d="M644.546 583.804C657.422 573 659.363 575.313 660.314 576.447C661.266 577.581 660.949 581.789 650.331 590.698C641.907 597.767 436.642 764.411 352.194 832.96C351.682 833.376 351.057 832.622 351.56 832.196C434.516 761.842 636.172 590.831 644.546 583.804Z" fill="url(#paint13_linear_13_0)"/>
<path d="M410.082 29.7401C416.102 24.6886 414.232 20.126 412.752 18.3621C411.272 16.5983 406.047 14.8499 401.083 19.0155C396.927 22.5029 296.503 116.456 263.915 146.956C263.446 147.395 264.067 148.109 264.567 147.705C299.227 119.638 405.951 33.2064 410.082 29.7401Z" fill="url(#paint14_linear_13_0)"/>
<path d="M1073.2 490.759C1076.07 487.07 1081.07 482.07 1076.57 478.07C1072.07 474.07 1067.57 476.57 1064.2 480.035C1061.38 482.937 1023.77 523.827 1011.63 537.035C1011.22 537.484 1011.81 538.132 1012.3 537.763C1026.76 526.781 1071.84 492.507 1073.2 490.759Z" fill="url(#paint15_linear_13_0)"/>
<path d="M101.169 404.291C95.149 409.343 97.0194 413.905 98.4995 415.669C99.9795 417.433 105.204 419.181 110.168 415.016C114.324 411.528 214.748 317.575 247.336 287.076C247.806 286.636 247.184 285.922 246.685 286.327C212.024 314.393 105.3 400.825 101.169 404.291Z" fill="url(#paint16_linear_13_0)"/>
<path d="M960.653 1002.56C940.791 1019.22 938.931 1024.71 939.878 1025.83C940.824 1026.96 950.03 1023.16 966.408 1009.42C979.393 998.521 1288.59 733.518 1416.15 624.182C1416.65 623.752 1416.01 623 1415.51 623.423C1286.43 730.987 973.561 991.726 960.653 1002.56Z" fill="url(#paint17_linear_13_0)"/>
<path d="M976.283 668.553C989.187 657.724 986.167 654.126 984.687 652.362C983.207 650.598 977.925 648.899 967.283 657.828C958.375 665.303 737.696 860.161 666.046 923.438C665.554 923.872 666.185 924.611 666.691 924.193C740.411 863.352 967.427 675.983 976.283 668.553Z" fill="url(#paint18_linear_13_0)"/>
<path d="M954.497 386.141C941.593 396.969 944.612 400.567 946.092 402.331C947.572 404.095 952.855 405.794 963.496 396.865C972.404 389.391 1193.08 194.532 1264.73 131.255C1265.23 130.821 1264.59 130.083 1264.09 130.5C1190.37 191.342 963.352 378.71 954.497 386.141Z" fill="url(#paint19_linear_13_0)"/>
<path d="M145.207 1033.36C117.871 1057.24 119.484 1064.01 121.417 1066.31C123.35 1068.62 133.721 1066.86 156.959 1047.36C176.955 1030.58 542.785 710.248 644.444 621.218C644.938 620.785 644.31 620.048 643.804 620.466C538.881 707.203 159.359 1020.99 145.207 1033.36Z" fill="url(#paint20_linear_13_0)"/>
<path d="M818.566 362.979C825.308 357.322 823 353.126 821.52 351.362C820.04 349.599 816.309 346.597 809.567 352.255C803.923 356.99 691.58 460.942 655.123 494.689C654.65 495.128 655.276 495.844 655.776 495.437C694.469 463.985 813.937 366.863 818.566 362.979Z" fill="url(#paint21_linear_13_0)"/>
<path d="M1205.56 561.215C1192 572.593 1195.34 576.575 1196.82 578.339C1198.3 580.102 1203.38 581.322 1214.56 571.94C1223.09 564.782 1416.63 394.339 1507.93 313.913C1508.92 313.045 1507.65 311.564 1506.64 312.4C1412.84 389.881 1214.04 554.1 1205.56 561.215Z" fill="url(#paint22_linear_13_0)"/>
<path d="M1224.22 680.478C1237.78 669.1 1234.44 665.119 1232.96 663.355C1231.48 661.591 1226.4 660.371 1215.22 669.754C1206.69 676.911 1013.15 847.354 921.849 927.781C920.865 928.648 922.128 930.129 923.14 929.293C1016.94 851.812 1215.74 687.593 1224.22 680.478Z" fill="url(#paint23_linear_13_0)"/>
<path d="M1524.28 842.566C1536.87 832 1539.89 835.598 1541.37 837.362C1542.85 839.126 1543.67 844.577 1533.28 853.29C1524.59 860.584 1299.83 1039.49 1226.85 1097.58C1226.33 1097.99 1225.72 1097.24 1226.22 1096.81C1297.16 1036.26 1515.64 849.816 1524.28 842.566Z" fill="url(#paint24_linear_13_0)"/>
<path d="M451.209 192.207C421.516 216.663 416.411 213.993 415.411 213C414.411 212.007 412.173 207.109 443.061 180.855C469.021 158.791 690.2 -16.5229 760.124 -71.9092C760.637 -72.3155 761.242 -71.5631 760.744 -71.1383C692.568 -12.9591 476.182 171.639 451.209 192.207Z" fill="url(#paint25_linear_13_0)"/>
<path d="M277.809 86.9854C290.49 75.3929 287.62 69.6819 285.687 67.3785C283.754 65.0751 277.047 63.7586 266.057 72.9801C256.599 80.9159 87.0359 236.565 39.9357 279.814C39.4593 280.251 40.0789 280.968 40.5808 280.56C90.5426 239.942 271.243 92.9872 277.809 86.9854Z" fill="url(#paint26_linear_13_0)"/>
<path d="M1422.19 82.3532C1432.48 73.7245 1429.14 69.743 1427.66 67.9792C1426.18 66.2153 1421.67 64.5132 1413.19 71.6285C1406.73 77.0569 1260.9 207.462 1192.12 268.994C1191.15 269.864 1192.4 271.332 1193.41 270.503C1264.7 211.918 1415.76 87.749 1422.19 82.3532Z" fill="url(#paint27_linear_13_0)"/>
<path d="M718.283 980.847C708 989.475 711.341 993.457 712.821 995.221C714.301 996.984 718.802 998.687 727.282 991.571C733.751 986.143 879.575 855.737 948.359 794.206C949.332 793.336 948.073 791.868 947.064 792.697C875.781 851.282 724.714 975.451 718.283 980.847Z" fill="url(#paint28_linear_13_0)"/>
<path d="M511.105 649.157C531.668 631.902 529.518 629.34 528.565 628.205C527.613 627.069 522.27 628.026 505.313 642.255C493.507 652.161 245.149 864.87 95.3456 993.19C94.3398 994.052 95.6122 995.558 96.6294 994.71C248.161 868.404 499.369 659.005 511.105 649.157Z" fill="url(#paint29_linear_13_0)"/>
<path d="M654.016 464.509C664.299 455.881 677.886 438.144 669.112 429.604C660.337 421.065 642.674 433.772 634.195 440.888C627.028 446.901 454.698 613.247 401.492 664.629C400.576 665.513 401.817 666.917 402.81 666.121C460.455 619.923 646.893 470.486 654.016 464.509Z" fill="url(#paint30_linear_13_0)"/>
<path d="M1347.51 738.803C1331.78 752.489 1322.78 762.893 1327.83 767.038C1332.88 771.184 1349.68 758.209 1357.96 751.256C1364.45 745.814 1513.5 610.911 1577.96 552.545C1578.93 551.673 1577.67 550.214 1576.66 551.037C1509.37 606.07 1353.86 733.28 1347.51 738.803Z" fill="url(#paint31_linear_13_0)"/>
<path d="M929.677 585.906C953.127 565.413 966.3 549.559 957.981 542.443C949.662 535.327 924.481 554.582 912.106 564.966C901.758 573.649 649.471 804.211 567.065 879.542C566.108 880.416 567.356 881.863 568.361 881.044C654.868 810.535 919.567 594.741 929.677 585.906Z" fill="url(#paint32_linear_13_0)"/>
<path d="M242.113 585.512C237.479 589.401 232.066 589.95 229.854 587.314C227.642 584.678 228.357 580.085 233.757 575.554C237.821 572.144 289.867 535.741 315.376 517.933C316.407 517.214 317.555 518.648 316.615 519.482C292.964 540.481 244.273 583.7 242.113 585.512Z" fill="url(#paint33_linear_13_0)"/>
<path d="M849.593 82.3304C858.329 75 861.349 78.5985 862.829 80.3623C864.309 82.1262 865.796 87.0102 858.592 93.055C852.561 98.1153 695.16 220.504 644.054 260.232C643.54 260.631 642.932 259.887 643.425 259.463C692.493 217.274 843.599 87.3604 849.593 82.3304Z" fill="url(#paint34_linear_13_0)"/>
<path d="M138.704 797.103C121.5 811.539 119.893 809.624 119.25 808.858C118.607 808.092 117 806.177 134.204 791.741C147.325 780.731 371.662 596.51 477.422 509.675C477.933 509.255 478.568 510.007 478.063 510.434C372.723 599.438 148.349 789.01 138.704 797.103Z" fill="url(#paint35_linear_13_0)"/>
<path d="M126.599 870.734C117.24 878.586 105.704 880.603 102.601 877.364C99.4976 874.126 106.315 863.003 114.352 856.139C121.283 850.218 348.42 673.695 410.782 625.239C411.295 624.84 411.901 625.579 411.408 626.003C351.701 677.346 134.667 863.964 126.599 870.734Z" fill="url(#paint36_linear_13_0)"/>
<path d="M460.209 454.207C430.516 478.663 425.411 475.993 424.411 475C423.411 474.007 421.173 469.109 452.061 442.855C478.021 420.791 699.2 245.477 769.124 190.091C769.637 189.684 770.242 190.437 769.744 190.862C701.568 249.041 485.182 433.639 460.209 454.207Z" fill="url(#paint37_linear_13_0)"/>
<path d="M115.728 96.0585C111.913 98.7808 105.279 99.205 102.206 95.6204C99.1323 92.0359 101.084 86.3601 104.838 82.8453C108.061 79.8282 147.106 60.22 158.098 54.7279C158.609 54.4725 159.07 55.1261 158.658 55.5229C149.902 63.9704 118.999 93.7248 115.728 96.0585Z" fill="url(#paint38_linear_13_0)"/>
<path d="M558.144 770.991C572.918 758.593 589.844 752.194 593.999 758.103C598.154 764.012 586.445 778.76 573.739 789.576C562.576 799.078 192.89 1090.69 103.239 1161.4C102.726 1161.8 102.121 1161.05 102.617 1160.62C189.146 1086.57 545.168 781.878 558.144 770.991Z" fill="url(#paint39_linear_13_0)"/>
<path d="M1133.55 347.804C1146.42 337 1148.36 339.313 1149.31 340.447C1150.27 341.581 1149.95 345.789 1139.33 354.698C1130.91 361.767 925.642 528.411 841.194 596.96C840.682 597.376 840.057 596.622 840.56 596.196C923.516 525.842 1125.17 354.831 1133.55 347.804Z" fill="url(#paint40_linear_13_0)"/>
<path d="M1000.66 166.417C987.785 177.221 985.844 174.907 984.893 173.773C983.941 172.639 984.258 168.431 994.876 159.522C1003.3 152.454 1208.56 -14.1903 1293.01 -82.7395C1293.52 -83.1551 1294.15 -82.4015 1293.65 -81.9749C1210.69 -11.6217 1009.03 159.39 1000.66 166.417Z" fill="url(#paint41_linear_13_0)"/>
<path d="M518.927 232.122C530.333 222.552 529.491 217.126 528.011 215.362C526.531 213.599 519.334 213.505 509.928 221.398C502.055 228.004 307.554 400.897 244.406 457.039C243.917 457.474 244.547 458.21 245.051 457.794C310.269 404.087 511.101 238.69 518.927 232.122Z" fill="url(#paint42_linear_13_0)"/>
<path d="M1511.11 129.706C1530.97 113.04 1532.83 107.558 1531.88 106.429C1530.94 105.301 1521.73 109.104 1505.35 122.847C1492.37 133.743 1183.17 398.746 1055.61 508.081C1055.11 508.512 1055.75 509.264 1056.25 508.84C1185.33 401.277 1498.2 140.537 1511.11 129.706Z" fill="url(#paint43_linear_13_0)"/>
<path d="M1356.9 496.141C1344 506.969 1347.02 510.567 1348.5 512.331C1349.98 514.095 1355.26 515.794 1365.9 506.865C1374.81 499.391 1595.49 304.532 1667.14 241.255C1667.63 240.821 1667 240.083 1666.5 240.5C1592.78 301.342 1365.76 488.71 1356.9 496.141Z" fill="url(#paint44_linear_13_0)"/>
<path d="M1504.14 283.337C1531.47 259.448 1529.86 252.682 1527.93 250.379C1526 248.075 1515.62 249.833 1492.39 269.332C1472.39 286.111 1106.56 606.445 1004.9 695.475C1004.41 695.908 1005.04 696.645 1005.54 696.227C1110.46 609.49 1489.99 295.705 1504.14 283.337Z" fill="url(#paint45_linear_13_0)"/>
<path d="M230.454 374.801C223.712 380.458 226.02 384.654 227.5 386.417C228.98 388.181 232.711 391.183 239.453 385.525C245.097 380.789 357.439 276.838 393.896 243.091C394.37 242.652 393.744 241.936 393.243 242.343C354.551 273.795 235.083 370.916 230.454 374.801Z" fill="url(#paint46_linear_13_0)"/>
<path d="M582.056 592.571C595.616 581.193 592.275 577.211 590.795 575.448C589.315 573.684 584.238 572.464 573.057 581.846C564.526 589.004 370.987 759.447 279.685 839.874C278.701 840.741 279.964 842.222 280.976 841.386C374.779 763.905 573.576 599.686 582.056 592.571Z" fill="url(#paint47_linear_13_0)"/>
<path d="M175.735 598.342C166.999 605.672 163.98 602.073 162.5 600.31C161.019 598.546 159.532 593.662 166.736 587.617C172.767 582.557 330.168 460.168 381.274 420.44C381.788 420.041 382.396 420.784 381.903 421.208C332.836 463.398 181.73 593.311 175.735 598.342Z" fill="url(#paint48_linear_13_0)"/>
<path d="M847.956 798.242C877.65 773.787 882.754 776.457 883.754 777.449C884.754 778.442 886.992 783.34 856.104 809.594C830.145 831.659 608.965 1006.97 539.041 1062.36C538.528 1062.76 537.924 1062.01 538.422 1061.59C606.598 1003.41 822.984 818.81 847.956 798.242Z" fill="url(#paint49_linear_13_0)"/>
<path d="M1158.3 1003.33C1145.61 1014.92 1148.48 1020.63 1150.42 1022.93C1152.35 1025.24 1159.06 1026.55 1170.05 1017.33C1179.5 1009.4 1349.07 853.747 1396.17 810.498C1396.64 810.061 1396.03 809.344 1395.52 809.752C1345.56 850.37 1164.86 997.325 1158.3 1003.33Z" fill="url(#paint50_linear_13_0)"/>
<path d="M618.03 89.4459C628.313 80.8173 624.972 76.8358 623.492 75.072C622.012 73.3081 617.51 71.606 609.031 78.7213C602.561 84.1497 456.738 214.555 387.954 276.086C386.981 276.957 388.24 278.424 389.248 277.595C460.532 219.011 611.599 94.8418 618.03 89.4459Z" fill="url(#paint51_linear_13_0)"/>
<path d="M870.511 362.629C849.947 379.884 852.098 382.446 853.05 383.582C854.003 384.717 859.346 383.76 876.303 369.532C888.109 359.625 1136.47 146.916 1286.27 18.596C1287.28 17.7344 1286 16.2284 1284.99 17.0764C1133.46 143.382 882.247 352.781 870.511 362.629Z" fill="url(#paint52_linear_13_0)"/>
<path d="M253.084 224.847C242.801 233.475 228.128 249.918 234.178 255.21C240.228 260.502 257.528 247.363 266.008 240.248C272.838 234.517 433.062 87.1963 495.154 30.0832C496.107 29.2075 494.857 27.763 493.854 28.5799C428.474 81.8251 259.873 219.15 253.084 224.847Z" fill="url(#paint53_linear_13_0)"/>
<path d="M1179.1 944.308C1155.49 964.617 1141.41 979.383 1147.05 983.305C1152.69 987.227 1177.51 967.546 1189.89 957.162C1199.62 948.994 1426.64 748.251 1523.1 662.936C1524.08 662.068 1522.82 660.591 1521.81 661.425C1422.45 743.327 1188.67 936.072 1179.1 944.308Z" fill="url(#paint54_linear_13_0)"/>
<path d="M771.206 -5.21895C775.84 -9.10769 781.254 -9.65704 783.466 -7.02094C785.678 -4.38485 784.963 0.208101 779.562 4.73963C775.498 8.14981 723.452 44.5528 697.943 62.3602C696.912 63.0797 695.764 61.6459 696.705 60.8113C720.355 39.8123 769.047 -3.40701 771.206 -5.21895Z" fill="url(#paint55_linear_13_0)"/>
</g>
</g>
<defs>
<filter id="filter0_d_13_0" x="0" y="0" width="1515" height="1099" filterUnits="userSpaceOnUse" color-interpolation-filters="sRGB">
<feFlood flood-opacity="0" result="BackgroundImageFix"/>
<feColorMatrix in="SourceAlpha" type="matrix" values="0 0 0 0 0 0 0 0 0 0 0 0 0 0 0 0 0 0 127 0" result="hardAlpha"/>
<feOffset dx="-50" dy="50"/>
<feGaussianBlur stdDeviation="12.5"/>
<feColorMatrix type="matrix" values="0 0 0 0 0 0 0 0 0 0 0 0 0 0 0 0 0 0 0.15 0"/>
<feBlend mode="normal" in2="BackgroundImageFix" result="effect1_dropShadow_13_0"/>
<feBlend mode="normal" in="SourceGraphic" in2="effect1_dropShadow_13_0" result="shape"/>
</filter>
<linearGradient id="paint0_linear_13_0" x1="406.178" y1="984.927" x2="630.629" y2="796.59" gradientUnits="userSpaceOnUse">
<stop stop-color="#00FFC2"/>
<stop offset="1" stop-color="#00FFC2" stop-opacity="0"/>
</linearGradient>
<linearGradient id="paint1_linear_13_0" x1="657.599" y1="727.462" x2="1194.87" y2="281.017" gradientUnits="userSpaceOnUse">
<stop stop-color="#00FFC2"/>
<stop offset="1" stop-color="#00FFC2" stop-opacity="0"/>
</linearGradient>
<linearGradient id="paint2_linear_13_0" x1="1005.97" y1="38.3864" x2="620.106" y2="359.904" gradientUnits="userSpaceOnUse">
<stop stop-color="#00FFC2"/>
<stop offset="1" stop-color="#00FFC2" stop-opacity="0"/>
</linearGradient>
<linearGradient id="paint3_linear_13_0" x1="1070.53" y1="269.175" x2="756.123" y2="532.995" gradientUnits="userSpaceOnUse">
<stop stop-color="#FF006B"/>
<stop offset="1" stop-color="#FF006B" stop-opacity="0"/>
</linearGradient>
<linearGradient id="paint4_linear_13_0" x1="953.248" y1="830.518" x2="1267.66" y2="566.698" gradientUnits="userSpaceOnUse">
<stop stop-color="#FF006B"/>
<stop offset="1" stop-color="#FF006B" stop-opacity="0"/>
</linearGradient>
<linearGradient id="paint5_linear_13_0" x1="1466.7" y1="451.178" x2="1359.47" y2="541.16" gradientUnits="userSpaceOnUse">
<stop stop-color="#FF006B"/>
<stop offset="1" stop-color="#FF006B" stop-opacity="0"/>
</linearGradient>
<linearGradient id="paint6_linear_13_0" x1="927.421" y1="276.68" x2="1034.66" y2="186.698" gradientUnits="userSpaceOnUse">
<stop stop-color="#FF006B"/>
<stop offset="1" stop-color="#FF006B" stop-opacity="0"/>
</linearGradient>
<linearGradient id="paint7_linear_13_0" x1="1071.58" y1="572.039" x2="1433.61" y2="268.264" gradientUnits="userSpaceOnUse">
<stop stop-color="#FF006B"/>
<stop offset="1" stop-color="#FF006B" stop-opacity="0"/>
</linearGradient>
<linearGradient id="paint8_linear_13_0" x1="902.585" y1="478.41" x2="540.56" y2="782.186" gradientUnits="userSpaceOnUse">
<stop stop-color="#FF006B"/>
<stop offset="1" stop-color="#FF006B" stop-opacity="0"/>
</linearGradient>
<linearGradient id="paint9_linear_13_0" x1="632.514" y1="219.762" x2="580.602" y2="263.321" gradientUnits="userSpaceOnUse">
<stop stop-color="#7000FF"/>
<stop offset="1" stop-color="#7000FF" stop-opacity="0"/>
</linearGradient>
<linearGradient id="paint10_linear_13_0" x1="615.02" y1="906.379" x2="1111.38" y2="489.883" gradientUnits="userSpaceOnUse">
<stop stop-color="#FF006B"/>
<stop offset="1" stop-color="#FF006B" stop-opacity="0"/>
</linearGradient>
<linearGradient id="paint11_linear_13_0" x1="367.157" y1="384.998" x2="-129.202" y2="801.494" gradientUnits="userSpaceOnUse">
<stop stop-color="#FF006B"/>
<stop offset="1" stop-color="#FF006B" stop-opacity="0"/>
</linearGradient>
<linearGradient id="paint12_linear_13_0" x1="157.33" y1="721.614" x2="499.431" y2="434.557" gradientUnits="userSpaceOnUse">
<stop stop-color="#FF006B"/>
<stop offset="1" stop-color="#FF006B" stop-opacity="0"/>
</linearGradient>
<linearGradient id="paint13_linear_13_0" x1="659.994" y1="576.716" x2="317.893" y2="863.773" gradientUnits="userSpaceOnUse">
<stop stop-color="#FF006B"/>
<stop offset="1" stop-color="#FF006B" stop-opacity="0"/>
</linearGradient>
<linearGradient id="paint14_linear_13_0" x1="411.281" y1="18.9433" x2="256.607" y2="148.731" gradientUnits="userSpaceOnUse">
<stop stop-color="#00FFC2"/>
<stop offset="1" stop-color="#00FFC2" stop-opacity="0"/>
</linearGradient>
<linearGradient id="paint15_linear_13_0" x1="1070.84" y1="482.945" x2="1007.47" y2="536.12" gradientUnits="userSpaceOnUse">
<stop stop-color="#00FFC2"/>
<stop offset="1" stop-color="#00FFC2" stop-opacity="0"/>
</linearGradient>
<linearGradient id="paint16_linear_13_0" x1="99.9699" y1="415.088" x2="254.644" y2="285.301" gradientUnits="userSpaceOnUse">
<stop stop-color="#00FFC2"/>
<stop offset="1" stop-color="#00FFC2" stop-opacity="0"/>
</linearGradient>
<linearGradient id="paint17_linear_13_0" x1="943.874" y1="1022.9" x2="1454.18" y2="594.704" gradientUnits="userSpaceOnUse">
<stop stop-color="#00FFC2"/>
<stop offset="1" stop-color="#00FFC2" stop-opacity="0"/>
</linearGradient>
<linearGradient id="paint18_linear_13_0" x1="984.687" y1="652.362" x2="661.417" y2="923.618" gradientUnits="userSpaceOnUse">
<stop stop-color="#7000FF"/>
<stop offset="1" stop-color="#7000FF" stop-opacity="0"/>
</linearGradient>
<linearGradient id="paint19_linear_13_0" x1="946.093" y1="402.332" x2="1269.36" y2="131.075" gradientUnits="userSpaceOnUse">
<stop stop-color="#7000FF"/>
<stop offset="1" stop-color="#7000FF" stop-opacity="0"/>
</linearGradient>
<linearGradient id="paint20_linear_13_0" x1="130.676" y1="1057.49" x2="641.971" y2="628.461" gradientUnits="userSpaceOnUse">
<stop stop-color="#7000FF"/>
<stop offset="1" stop-color="#7000FF" stop-opacity="0"/>
</linearGradient>
<linearGradient id="paint21_linear_13_0" x1="820.808" y1="351.959" x2="651.906" y2="493.685" gradientUnits="userSpaceOnUse">
<stop stop-color="#7000FF"/>
<stop offset="1" stop-color="#7000FF" stop-opacity="0"/>
</linearGradient>
<linearGradient id="paint22_linear_13_0" x1="1196.5" y1="577.956" x2="1519.16" y2="307.214" gradientUnits="userSpaceOnUse">
<stop stop-color="#EB00FF"/>
<stop offset="1" stop-color="#EB00FF" stop-opacity="0"/>
</linearGradient>
<linearGradient id="paint23_linear_13_0" x1="1233.28" y1="663.738" x2="910.623" y2="934.479" gradientUnits="userSpaceOnUse">
<stop stop-color="#EB00FF"/>
<stop offset="1" stop-color="#EB00FF" stop-opacity="0"/>
</linearGradient>
<linearGradient id="paint24_linear_13_0" x1="1541.7" y1="837.745" x2="1218.18" y2="1109.21" gradientUnits="userSpaceOnUse">
<stop stop-color="#00FFC2"/>
<stop offset="1" stop-color="#00FFC2" stop-opacity="0"/>
</linearGradient>
<linearGradient id="paint25_linear_13_0" x1="416.58" y1="212.039" x2="778.606" y2="-91.7364" gradientUnits="userSpaceOnUse">
<stop stop-color="#FF006B"/>
<stop offset="1" stop-color="#FF006B" stop-opacity="0"/>
</linearGradient>
<linearGradient id="paint26_linear_13_0" x1="281.582" y1="71.8791" x2="39.7708" y2="274.783" gradientUnits="userSpaceOnUse">
<stop stop-color="#7000FF"/>
<stop offset="1" stop-color="#7000FF" stop-opacity="0"/>
</linearGradient>
<linearGradient id="paint27_linear_13_0" x1="1427.98" y1="68.3621" x2="1183.29" y2="273.682" gradientUnits="userSpaceOnUse">
<stop stop-color="#EB00FF"/>
<stop offset="1" stop-color="#EB00FF" stop-opacity="0"/>
</linearGradient>
<linearGradient id="paint28_linear_13_0" x1="712.5" y1="994.838" x2="957.19" y2="789.518" gradientUnits="userSpaceOnUse">
<stop stop-color="#EB00FF"/>
<stop offset="1" stop-color="#EB00FF" stop-opacity="0"/>
</linearGradient>
<linearGradient id="paint29_linear_13_0" x1="528.772" y1="628.451" x2="39.4618" y2="1039.03" gradientUnits="userSpaceOnUse">
<stop stop-color="#EB00FF"/>
<stop offset="1" stop-color="#EB00FF" stop-opacity="0"/>
</linearGradient>
<linearGradient id="paint30_linear_13_0" x1="654.388" y1="444.07" x2="409.697" y2="649.389" gradientUnits="userSpaceOnUse">
<stop stop-color="#EB00FF"/>
<stop offset="1" stop-color="#EB00FF" stop-opacity="0"/>
</linearGradient>
<linearGradient id="paint31_linear_13_0" x1="1342.69" y1="753.461" x2="1581.79" y2="552.834" gradientUnits="userSpaceOnUse">
<stop stop-color="#EB00FF"/>
<stop offset="1" stop-color="#EB00FF" stop-opacity="0"/>
</linearGradient>
<linearGradient id="paint32_linear_13_0" x1="935.899" y1="562.844" x2="578.798" y2="862.488" gradientUnits="userSpaceOnUse">
<stop stop-color="#EB00FF"/>
<stop offset="1" stop-color="#EB00FF" stop-opacity="0"/>
</linearGradient>
<linearGradient id="paint33_linear_13_0" x1="234.45" y1="583.458" x2="317.384" y2="513.867" gradientUnits="userSpaceOnUse">
<stop stop-color="#EB00FF"/>
<stop offset="1" stop-color="#EB00FF" stop-opacity="0"/>
</linearGradient>
<linearGradient id="paint34_linear_13_0" x1="863.15" y1="80.7453" x2="638.699" y2="269.082" gradientUnits="userSpaceOnUse">
<stop stop-color="#00FFC2"/>
<stop offset="1" stop-color="#00FFC2" stop-opacity="0"/>
</linearGradient>
<linearGradient id="paint35_linear_13_0" x1="120.893" y1="807.153" x2="506.76" y2="485.635" gradientUnits="userSpaceOnUse">
<stop stop-color="#00FFC2"/>
<stop offset="1" stop-color="#00FFC2" stop-opacity="0"/>
</linearGradient>
<linearGradient id="paint36_linear_13_0" x1="108.937" y1="873.118" x2="423.345" y2="609.298" gradientUnits="userSpaceOnUse">
<stop stop-color="#FF006B"/>
<stop offset="1" stop-color="#FF006B" stop-opacity="0"/>
</linearGradient>
<linearGradient id="paint37_linear_13_0" x1="425.58" y1="474.039" x2="787.606" y2="170.264" gradientUnits="userSpaceOnUse">
<stop stop-color="#FF006B"/>
<stop offset="1" stop-color="#FF006B" stop-opacity="0"/>
</linearGradient>
<linearGradient id="paint38_linear_13_0" x1="105.832" y1="93.0266" x2="157.744" y2="49.4673" gradientUnits="userSpaceOnUse">
<stop stop-color="#7000FF"/>
<stop offset="1" stop-color="#7000FF" stop-opacity="0"/>
</linearGradient>
<linearGradient id="paint39_linear_13_0" x1="584.157" y1="764.998" x2="87.7976" y2="1181.49" gradientUnits="userSpaceOnUse">
<stop stop-color="#FF006B"/>
<stop offset="1" stop-color="#FF006B" stop-opacity="0"/>
</linearGradient>
<linearGradient id="paint40_linear_13_0" x1="1148.99" y1="340.716" x2="806.893" y2="627.773" gradientUnits="userSpaceOnUse">
<stop stop-color="#FF006B"/>
<stop offset="1" stop-color="#FF006B" stop-opacity="0"/>
</linearGradient>
<linearGradient id="paint41_linear_13_0" x1="985.213" y1="173.504" x2="1327.31" y2="-113.553" gradientUnits="userSpaceOnUse">
<stop stop-color="#FF006B"/>
<stop offset="1" stop-color="#FF006B" stop-opacity="0"/>
</linearGradient>
<linearGradient id="paint42_linear_13_0" x1="525.512" y1="216.806" x2="232.464" y2="462.703" gradientUnits="userSpaceOnUse">
<stop stop-color="#00FFC2"/>
<stop offset="1" stop-color="#00FFC2" stop-opacity="0"/>
</linearGradient>
<linearGradient id="paint43_linear_13_0" x1="1527.89" y1="109.365" x2="1017.58" y2="537.56" gradientUnits="userSpaceOnUse">
<stop stop-color="#00FFC2"/>
<stop offset="1" stop-color="#00FFC2" stop-opacity="0"/>
</linearGradient>
<linearGradient id="paint44_linear_13_0" x1="1348.5" y1="512.332" x2="1671.77" y2="241.075" gradientUnits="userSpaceOnUse">
<stop stop-color="#7000FF"/>
<stop offset="1" stop-color="#7000FF" stop-opacity="0"/>
</linearGradient>
<linearGradient id="paint45_linear_13_0" x1="1518.67" y1="259.204" x2="1007.37" y2="688.232" gradientUnits="userSpaceOnUse">
<stop stop-color="#7000FF"/>
<stop offset="1" stop-color="#7000FF" stop-opacity="0"/>
</linearGradient>
<linearGradient id="paint46_linear_13_0" x1="228.211" y1="385.821" x2="397.114" y2="244.095" gradientUnits="userSpaceOnUse">
<stop stop-color="#7000FF"/>
<stop offset="1" stop-color="#7000FF" stop-opacity="0"/>
</linearGradient>
<linearGradient id="paint47_linear_13_0" x1="591.116" y1="575.83" x2="268.459" y2="846.572" gradientUnits="userSpaceOnUse">
<stop stop-color="#EB00FF"/>
<stop offset="1" stop-color="#EB00FF" stop-opacity="0"/>
</linearGradient>
<linearGradient id="paint48_linear_13_0" x1="162.178" y1="599.927" x2="386.629" y2="411.59" gradientUnits="userSpaceOnUse">
<stop stop-color="#00FFC2"/>
<stop offset="1" stop-color="#00FFC2" stop-opacity="0"/>
</linearGradient>
<linearGradient id="paint49_linear_13_0" x1="882.585" y1="778.41" x2="520.56" y2="1082.19" gradientUnits="userSpaceOnUse">
<stop stop-color="#FF006B"/>
<stop offset="1" stop-color="#FF006B" stop-opacity="0"/>
</linearGradient>
<linearGradient id="paint50_linear_13_0" x1="1154.52" y1="1018.43" x2="1396.33" y2="815.529" gradientUnits="userSpaceOnUse">
<stop stop-color="#7000FF"/>
<stop offset="1" stop-color="#7000FF" stop-opacity="0"/>
</linearGradient>
<linearGradient id="paint51_linear_13_0" x1="623.813" y1="75.4548" x2="379.122" y2="280.775" gradientUnits="userSpaceOnUse">
<stop stop-color="#EB00FF"/>
<stop offset="1" stop-color="#EB00FF" stop-opacity="0"/>
</linearGradient>
<linearGradient id="paint52_linear_13_0" x1="852.844" y1="383.335" x2="1342.15" y2="-27.245" gradientUnits="userSpaceOnUse">
<stop stop-color="#EB00FF"/>
<stop offset="1" stop-color="#EB00FF" stop-opacity="0"/>
</linearGradient>
<linearGradient id="paint53_linear_13_0" x1="249.263" y1="241.176" x2="493.954" y2="35.8563" gradientUnits="userSpaceOnUse">
<stop stop-color="#EB00FF"/>
<stop offset="1" stop-color="#EB00FF" stop-opacity="0"/>
</linearGradient>
<linearGradient id="paint54_linear_13_0" x1="1169.49" y1="963.327" x2="1526.59" y2="663.684" gradientUnits="userSpaceOnUse">
<stop stop-color="#EB00FF"/>
<stop offset="1" stop-color="#EB00FF" stop-opacity="0"/>
</linearGradient>
<linearGradient id="paint55_linear_13_0" x1="778.87" y1="-3.16406" x2="695.935" y2="66.4261" gradientUnits="userSpaceOnUse">
<stop stop-color="#EB00FF"/>
<stop offset="1" stop-color="#EB00FF" stop-opacity="0"/>
</linearGradient>
<clipPath id="clip0_13_0">
<rect x="75" width="1440" height="1024" rx="20" fill="white"/>
</clipPath>
</defs>
</svg>
