<svg width="700" height="550" viewBox="0 0 700 550" fill="none" xmlns="http://www.w3.org/2000/svg">
<path d="M304.572 190.218C305.188 193.421 305.853 196.61 306.614 199.776C307.396 202.936 308.17 206.095 309.123 209.2C310.047 212.302 311.147 215.349 312.419 218.325C313.554 221.29 315.268 223.998 317.463 226.292L317.259 226.165C318.315 226.46 319.409 226.6 320.505 226.58C321.645 226.581 322.783 226.498 323.911 226.332C325.046 226.15 326.171 225.912 327.283 225.618C327.839 225.466 328.402 225.34 328.953 225.167L330.593 224.593C334.957 222.958 339.126 220.84 343.02 218.28C344.021 217.677 344.957 216.969 345.931 216.322C346.888 215.648 347.883 215.027 348.809 214.308L351.593 212.159C352.518 211.438 353.466 210.744 354.34 209.959C356.098 208.404 357.961 206.963 359.692 205.371C361.416 203.772 363.151 202.18 364.897 200.597C363.28 202.308 361.647 204.007 359.997 205.694C359.194 206.56 358.303 207.334 357.451 208.15L354.854 210.558C354.001 211.377 353.072 212.107 352.165 212.864L349.431 215.124C348.521 215.88 347.537 216.542 346.592 217.256C345.626 217.94 344.713 218.701 343.696 219.316C339.745 221.975 335.508 224.185 331.066 225.904L329.378 226.514C328.809 226.7 328.223 226.839 327.645 227.003C326.486 227.332 325.306 227.582 324.113 227.75C322.909 227.914 321.695 227.989 320.48 227.973C319.219 227.983 317.964 227.798 316.759 227.424L316.649 227.387L316.555 227.297C314.241 224.855 312.444 221.97 311.273 218.815C310.035 215.772 309.006 212.648 308.193 209.465C307.357 206.299 306.615 203.114 306.037 199.898C305.456 196.684 304.926 193.462 304.572 190.218Z" fill="black"/>
<path d="M279.399 434.571C284.279 432.089 289.285 429.863 294.397 427.902C299.497 425.893 304.708 424.176 310.002 422.757C315.322 421.408 320.725 420.409 326.176 419.768C328.903 419.419 331.652 419.277 334.401 419.344C335.09 419.362 335.778 419.442 336.469 419.489C337.156 419.576 337.846 419.675 338.532 419.797C339.923 420.111 341.193 420.534 342.508 420.849C353.085 423.235 363.967 424.282 374.79 425.353C380.208 425.882 385.633 426.395 391.066 426.773C393.782 426.953 396.499 427.167 399.219 427.272C400.578 427.319 401.938 427.382 403.296 427.389C403.976 427.398 404.653 427.381 405.33 427.354C405.996 427.35 406.657 427.25 407.295 427.058L407.319 427.049C407.342 427.039 407.368 427.039 407.391 427.048C407.414 427.058 407.433 427.076 407.443 427.099C407.453 427.122 407.453 427.148 407.444 427.171C407.435 427.195 407.417 427.214 407.395 427.224C406.088 427.703 404.714 427.97 403.323 428.013C401.954 428.136 400.584 428.216 399.213 428.251C396.474 428.319 393.733 428.353 390.996 428.285C385.524 428.149 380.054 427.885 374.601 427.408C369.147 426.931 363.713 426.239 358.299 425.392C352.862 424.609 347.488 423.432 342.222 421.869C340.901 421.473 339.6 420.964 338.344 420.608C337.695 420.457 337.038 420.322 336.377 420.204C335.708 420.139 335.041 420.039 334.367 420C331.657 419.857 328.939 419.988 326.255 420.391C320.89 421.283 315.602 422.592 310.44 424.308C300.032 427.441 289.76 431.046 279.478 434.748C279.454 434.757 279.427 434.756 279.404 434.746C279.38 434.735 279.362 434.716 279.353 434.692C279.345 434.669 279.345 434.645 279.354 434.623C279.362 434.601 279.378 434.582 279.399 434.571Z" fill="black"/>
<path d="M274.275 454.047L281.858 436.077C281.872 436.045 281.891 436.016 281.916 435.992C281.94 435.968 281.969 435.948 282.001 435.935C282.033 435.922 282.067 435.916 282.102 435.916C282.136 435.916 282.17 435.923 282.202 435.937C282.245 435.956 282.283 435.986 282.312 436.024L289.499 445.478L288.887 445.576L293.393 432.048C293.41 431.998 293.436 431.952 293.47 431.913C293.505 431.873 293.546 431.841 293.593 431.817C293.64 431.794 293.691 431.78 293.743 431.776C293.795 431.772 293.848 431.779 293.898 431.796C293.98 431.823 294.051 431.877 294.1 431.948L301.251 442.215L300.508 442.261L307.354 429.204C307.402 429.11 307.485 429.039 307.585 429.006C307.686 428.974 307.795 428.983 307.889 429.031C307.947 429.062 307.997 429.105 308.035 429.159L315.122 439.433L314.593 439.476L320.591 427.211C320.602 427.187 320.618 427.166 320.638 427.148C320.658 427.13 320.68 427.117 320.705 427.108C320.73 427.099 320.756 427.095 320.783 427.096C320.809 427.098 320.835 427.104 320.859 427.116C320.892 427.132 320.92 427.156 320.94 427.187L327.855 437.689L327.584 437.704C329.589 433.875 331.533 430.016 333.501 426.169C333.512 426.148 333.527 426.129 333.545 426.113C333.564 426.098 333.585 426.086 333.607 426.079C333.63 426.071 333.654 426.069 333.678 426.071C333.702 426.072 333.725 426.079 333.746 426.09C333.777 426.106 333.803 426.13 333.821 426.16L340.139 436.8L339.728 436.817L345.587 424.554C345.604 424.518 345.628 424.487 345.657 424.46C345.686 424.434 345.72 424.414 345.757 424.4C345.795 424.387 345.834 424.382 345.873 424.384C345.913 424.386 345.951 424.396 345.987 424.413C346.05 424.444 346.101 424.496 346.131 424.56L352.399 438.049L351.708 438.019L358.529 425.856C358.558 425.804 358.597 425.759 358.643 425.722C358.69 425.685 358.743 425.658 358.8 425.642C358.857 425.626 358.917 425.622 358.976 425.629C359.034 425.636 359.091 425.654 359.143 425.683C359.226 425.731 359.293 425.803 359.333 425.891L365.788 439.936L364.896 439.923L371.009 427.423C371.051 427.336 371.118 427.263 371.2 427.213C371.283 427.162 371.378 427.137 371.474 427.138C371.571 427.14 371.665 427.17 371.745 427.223C371.826 427.277 371.889 427.352 371.928 427.44L377.849 440.826L376.967 440.79L383.438 428.999C383.466 428.947 383.504 428.901 383.549 428.864C383.595 428.827 383.647 428.799 383.703 428.782C383.76 428.765 383.819 428.759 383.877 428.765C383.936 428.771 383.993 428.788 384.045 428.816C384.13 428.863 384.199 428.936 384.24 429.025L389.907 441.412L389.268 441.369L396.133 430.801C396.153 430.769 396.179 430.741 396.21 430.72C396.24 430.698 396.275 430.683 396.312 430.674C396.348 430.666 396.386 430.665 396.424 430.671C396.461 430.678 396.496 430.691 396.528 430.711C396.565 430.735 396.596 430.767 396.619 430.804L403.338 441.796L402.989 441.816L408.707 430.062C408.712 430.051 408.722 430.042 408.734 430.038C408.746 430.034 408.759 430.035 408.771 430.04C408.782 430.045 408.791 430.055 408.796 430.067C408.8 430.079 408.799 430.092 408.794 430.104L403.349 441.986C403.327 442.033 403.287 442.07 403.238 442.089C403.189 442.107 403.134 442.105 403.087 442.083C403.051 442.066 403.021 442.039 403 442.006L396.131 431.108L396.617 431.111L389.883 441.763C389.858 441.804 389.825 441.839 389.786 441.866C389.747 441.894 389.702 441.913 389.656 441.924C389.609 441.934 389.561 441.936 389.514 441.927C389.467 441.919 389.422 441.902 389.381 441.876C389.322 441.838 389.275 441.784 389.245 441.72L383.425 429.403L384.227 429.429L377.831 441.261C377.787 441.342 377.722 441.409 377.642 441.455C377.562 441.5 377.471 441.522 377.379 441.518C377.287 441.515 377.198 441.485 377.122 441.433C377.046 441.382 376.986 441.309 376.949 441.225L371.001 427.852L371.92 427.87L365.782 440.358C365.741 440.442 365.677 440.513 365.598 440.562C365.518 440.611 365.426 440.637 365.332 440.635C365.239 440.634 365.147 440.606 365.069 440.555C364.99 440.503 364.928 440.431 364.89 440.346L358.511 426.266L359.315 426.301L352.384 438.402C352.334 438.491 352.25 438.557 352.151 438.585C352.052 438.613 351.946 438.601 351.857 438.551C351.785 438.51 351.727 438.447 351.693 438.372L345.584 424.81L346.128 424.816L340.148 437.02C340.122 437.076 340.074 437.119 340.015 437.139C339.957 437.16 339.893 437.156 339.837 437.13C339.795 437.109 339.76 437.077 339.737 437.037L333.506 426.345L333.825 426.336C331.835 430.172 329.819 433.994 327.864 437.848C327.845 437.885 327.813 437.913 327.773 437.926C327.733 437.939 327.69 437.936 327.653 437.917C327.629 437.904 327.608 437.886 327.593 437.863L320.605 427.409L320.954 427.385L315.148 439.742C315.113 439.816 315.051 439.873 314.974 439.9C314.898 439.928 314.814 439.924 314.74 439.889C314.692 439.865 314.65 439.83 314.618 439.786L307.381 429.617L308.062 429.573L301.279 442.663C301.253 442.714 301.217 442.759 301.173 442.795C301.13 442.832 301.079 442.86 301.025 442.877C300.971 442.894 300.914 442.901 300.857 442.896C300.8 442.891 300.745 442.875 300.694 442.849C300.631 442.816 300.577 442.768 300.536 442.71L293.443 432.403L294.15 432.303L289.551 445.8C289.537 445.844 289.514 445.884 289.484 445.919C289.454 445.954 289.418 445.982 289.377 446.003C289.336 446.024 289.291 446.036 289.245 446.039C289.2 446.043 289.154 446.037 289.11 446.023C289.041 446 288.982 445.956 288.938 445.898L281.889 436.34L282.343 436.287L274.364 454.086C274.359 454.097 274.349 454.107 274.337 454.111C274.325 454.116 274.312 454.116 274.3 454.111C274.289 454.105 274.279 454.096 274.275 454.084C274.27 454.072 274.27 454.059 274.275 454.047V454.047Z" fill="black"/>
<path d="M399.305 357.327C401.371 354.527 403.37 351.721 405.208 348.819C406.189 347.405 407.006 345.883 407.644 344.284C407.804 343.885 407.928 343.473 408.016 343.053L408.161 342.427L408.231 341.791C408.281 341.374 408.321 340.943 408.355 340.481L408.491 339.818L408.696 339.175C409.371 337.521 410.363 336.016 411.618 334.745C412.82 333.46 414.125 332.275 415.521 331.203C418.307 329.09 421.317 327.29 424.496 325.835C424.502 325.833 424.508 325.831 424.515 325.831C424.521 325.831 424.528 325.832 424.534 325.834C424.54 325.836 424.545 325.84 424.55 325.844C424.554 325.848 424.558 325.854 424.561 325.859C424.565 325.87 424.566 325.882 424.563 325.893C424.559 325.904 424.552 325.914 424.543 325.92C421.677 327.89 418.844 329.872 416.156 332.017C414.801 333.064 413.505 334.186 412.274 335.377C411.039 336.539 409.997 337.89 409.186 339.379L408.943 339.958L408.764 340.558C408.693 340.957 408.628 341.387 408.569 341.832L408.475 342.487L408.306 343.124C408.21 343.551 408.089 343.973 407.941 344.386C407.414 346.061 406.731 347.683 405.901 349.23C404.153 352.266 401.952 355.019 399.376 357.392C399.366 357.401 399.354 357.406 399.341 357.405C399.328 357.405 399.316 357.399 399.307 357.39C399.3 357.381 399.295 357.37 399.295 357.359C399.295 357.347 399.298 357.336 399.305 357.327Z" fill="black"/>
<path d="M400.753 362.475C400.872 360.919 401.009 359.366 401.172 357.816C401.176 357.774 401.191 357.734 401.214 357.7C401.238 357.665 401.27 357.637 401.307 357.618C401.344 357.599 401.385 357.589 401.427 357.59C401.469 357.591 401.51 357.602 401.546 357.622L401.56 357.63C402.765 358.317 403.98 358.989 405.178 359.688L404.619 360.003L404.554 354.018C404.552 353.904 404.596 353.794 404.675 353.713C404.755 353.631 404.863 353.584 404.977 353.583C405.042 353.582 405.107 353.596 405.166 353.623C406.542 354.271 407.932 354.888 409.296 355.562L408.779 355.974L407.846 350.575L407.845 350.566C407.835 350.513 407.848 350.459 407.879 350.415C407.909 350.371 407.956 350.342 408.009 350.332C408.028 350.329 408.046 350.329 408.065 350.331L411.802 350.721L411.649 350.931C411.269 349.999 410.855 349.081 410.459 348.155C410.065 347.229 409.654 346.31 409.236 345.394C409.222 345.363 409.215 345.328 409.217 345.294C409.218 345.259 409.228 345.225 409.246 345.195C409.263 345.165 409.287 345.14 409.317 345.121C409.346 345.103 409.379 345.091 409.414 345.088L409.427 345.087L413.678 344.718L413.37 345.134L411.849 339.317C411.831 339.247 411.83 339.174 411.846 339.104C411.862 339.035 411.895 338.97 411.942 338.915C411.988 338.861 412.048 338.819 412.115 338.792C412.181 338.766 412.253 338.756 412.325 338.764L412.339 338.765L417.16 339.3L416.599 339.829C416.439 337.66 416.34 335.488 416.207 333.319C416.203 333.254 416.212 333.189 416.233 333.128C416.254 333.067 416.287 333.011 416.33 332.962C416.372 332.914 416.424 332.875 416.483 332.846C416.541 332.818 416.604 332.801 416.668 332.797C416.749 332.793 416.83 332.808 416.904 332.841C418.454 333.552 419.986 334.301 421.52 335.045L420.921 335.409C421.05 333.419 421.197 331.43 421.362 329.443L421.363 329.426C421.369 329.356 421.403 329.29 421.457 329.245C421.511 329.199 421.581 329.177 421.652 329.183C421.679 329.185 421.706 329.192 421.732 329.202C423.4 329.896 425.047 330.641 426.703 331.366C426.714 331.371 426.723 331.38 426.728 331.392C426.733 331.403 426.733 331.416 426.729 331.428C426.724 331.439 426.715 331.449 426.704 331.454C426.693 331.459 426.68 331.46 426.668 331.456C424.956 330.877 423.236 330.319 421.536 329.71L421.905 329.469C421.88 331.464 421.833 333.457 421.766 335.45C421.764 335.518 421.745 335.584 421.711 335.643C421.677 335.703 421.629 335.753 421.572 335.789C421.514 335.826 421.448 335.847 421.38 335.853C421.312 335.858 421.244 335.847 421.182 335.82L421.167 335.813C419.604 335.13 418.039 334.452 416.492 333.735L417.189 333.258C417.324 335.428 417.492 337.595 417.599 339.767L417.6 339.778C417.607 339.91 417.56 340.039 417.472 340.137C417.384 340.234 417.26 340.293 417.128 340.299C417.098 340.301 417.068 340.299 417.038 340.295L412.231 339.657L412.721 339.106L414.025 344.976L414.029 344.991C414.048 345.076 414.032 345.165 413.985 345.239C413.938 345.313 413.864 345.365 413.779 345.384C413.759 345.388 413.738 345.391 413.718 345.391L409.453 345.529L409.644 345.222C410.008 346.161 410.381 347.096 410.769 348.025C411.157 348.954 411.525 349.891 411.928 350.813C411.944 350.849 411.945 350.891 411.93 350.928C411.916 350.965 411.887 350.995 411.851 351.011C411.827 351.021 411.801 351.025 411.775 351.023L408.028 350.737L408.246 350.493L409.506 355.826C409.522 355.891 409.519 355.959 409.498 356.023C409.477 356.087 409.439 356.144 409.388 356.188C409.337 356.231 409.275 356.26 409.208 356.271C409.142 356.281 409.074 356.273 409.012 356.247L408.99 356.238C407.583 355.658 406.203 355.019 404.809 354.413L405.42 354.018L405.355 360.003L405.355 360.013C405.354 360.078 405.336 360.141 405.303 360.197C405.27 360.252 405.222 360.298 405.165 360.329C405.108 360.36 405.044 360.376 404.979 360.374C404.915 360.372 404.852 360.353 404.797 360.318C403.621 359.582 402.462 358.819 401.294 358.071L401.682 357.885C401.428 359.422 401.147 360.956 400.849 362.488C400.847 362.5 400.84 362.511 400.83 362.518C400.82 362.525 400.808 362.528 400.795 362.527C400.783 362.525 400.772 362.519 400.764 362.509C400.756 362.499 400.752 362.487 400.753 362.475L400.753 362.475Z" fill="black"/>
<path d="M334.97 132.838C328.937 133.839 322.746 133.252 317.009 131.134C315.476 130.588 313.844 130.374 312.223 130.507C310.601 130.64 309.026 131.117 307.603 131.906C306.18 132.695 304.942 133.779 303.97 135.084C302.999 136.389 302.317 137.887 301.969 139.477C301.464 142.044 301.272 144.663 301.398 147.277C301.479 149.456 301.144 151.63 300.411 153.683C299.911 155.092 299.596 156.559 299.472 158.048C298.969 164.145 298.098 180.704 302.308 190.381L316.341 189.336C316.341 189.336 316.689 187.246 319.554 187.555L331.225 186.955C331.225 186.955 325.399 183.965 328.873 180.123C328.873 180.123 330.267 179.426 332.532 181.942L343.303 154.796C341.967 154.583 334.97 132.838 334.97 132.838ZM312.179 177.791C315.492 177.358 318.826 177.109 322.167 177.045C315.642 178.501 308.991 179.318 302.308 179.484C305.565 178.737 308.86 178.172 312.179 177.791ZM323.715 180.065C322.699 182.291 321.731 184.526 320.676 186.723C320.628 186.824 320.542 186.901 320.437 186.939C320.332 186.977 320.217 186.972 320.115 186.926C320.056 186.899 320.003 186.859 319.96 186.81L315.857 181.817C314.55 184.207 313.195 186.559 311.87 188.939C311.843 188.989 311.807 189.033 311.763 189.069C311.72 189.104 311.669 189.131 311.615 189.146C311.56 189.161 311.503 189.166 311.447 189.158C311.391 189.151 311.338 189.133 311.289 189.104C311.232 189.073 311.183 189.03 311.144 188.978C310.341 187.846 309.518 186.723 308.734 185.571L306.615 182.504C305.957 183.607 305.289 184.691 304.602 185.775C303.837 186.994 303.082 188.213 302.308 189.413C302.956 188.136 303.634 186.868 304.302 185.61C304.969 184.333 305.657 183.075 306.344 181.826C306.362 181.792 306.387 181.763 306.417 181.738C306.447 181.714 306.481 181.696 306.518 181.685C306.555 181.675 306.593 181.671 306.632 181.675C306.67 181.68 306.707 181.691 306.74 181.71C306.776 181.728 306.806 181.755 306.828 181.787L306.837 181.797L309.363 185.126C310.07 186.055 310.757 186.994 311.444 187.933C312.75 185.533 314.028 183.123 315.363 180.742C315.403 180.669 315.462 180.608 315.533 180.566C315.605 180.523 315.687 180.501 315.77 180.5C315.851 180.5 315.931 180.52 316.002 180.558C316.056 180.589 316.105 180.628 316.147 180.675L320.202 185.765C321.247 183.617 322.351 181.497 323.425 179.368V179.358C323.457 179.293 323.514 179.243 323.583 179.219C323.652 179.196 323.727 179.201 323.793 179.233C323.838 179.26 323.877 179.296 323.909 179.339C325.215 181.604 326.473 183.878 327.722 186.171C326.367 184.149 325.031 182.113 323.715 180.065H323.715ZM328.341 180.452C328.283 179.262 328.186 178.091 328.012 176.92C327.886 175.739 327.722 174.568 327.557 173.397L326.58 166.371C326.28 164.019 325.941 161.677 325.68 159.316C325.409 156.964 325.138 154.603 324.954 152.232C325.525 154.545 325.99 156.867 326.415 159.209C326.851 161.542 327.209 163.884 327.538 166.235C327.838 168.587 328.138 170.948 328.293 173.319C328.531 175.69 328.548 178.078 328.341 180.452H328.341ZM330.064 134.802C328.388 134.867 326.71 134.776 325.051 134.531C321.742 134.048 318.521 133.086 315.489 131.676C317.115 132.044 318.731 132.383 320.338 132.721C321.954 133.031 323.57 133.36 325.186 133.573C326.803 133.817 328.431 133.976 330.064 134.047C331.706 134.119 333.352 134.041 334.98 133.815C333.408 134.415 331.746 134.749 330.064 134.802H330.064Z" fill="black"/>
<path d="M312.454 219.789C310.835 224.465 309.496 229.233 308.443 234.069C307.365 238.898 306.387 243.75 305.596 248.635C303.946 258.393 302.699 268.216 301.76 278.067C300.773 287.918 300.257 297.795 299.651 307.686C299.322 312.64 299.049 317.599 298.528 322.534L297.822 329.945L296.961 337.336C296.422 342.27 295.71 347.178 295.029 352.092C294.336 357.003 293.515 361.894 292.764 366.796C291.924 371.683 291.122 376.577 290.24 381.456C289.34 386.332 288.443 391.208 287.463 396.068C283.641 415.527 279.325 434.878 274.663 454.151L273.981 453.964C274.256 453.213 274.708 452.538 275.298 451.998C275.85 451.474 276.448 451.002 277.086 450.588C278.343 449.778 279.659 449.065 281.023 448.454C283.735 447.249 286.515 446.204 289.35 445.327C295.001 443.553 300.743 442.106 306.529 440.878C312.317 439.656 318.145 438.653 324.015 437.868C329.883 437.04 335.797 436.574 341.722 436.473C344.721 436.386 347.719 436.68 350.644 437.346C353.486 438.055 356.372 438.578 359.282 438.913C365.12 439.646 371.008 440.049 376.896 440.37C388.677 440.965 400.491 441.184 412.285 441.179L411.528 442.275C408.388 432.903 405.955 423.309 404.252 413.573L403.573 409.939L402.984 406.29C402.606 403.855 402.171 401.428 401.876 398.982L400.904 391.654L400.127 384.305C399.842 381.857 399.656 379.401 399.47 376.945L398.903 369.578L398.544 362.198C398.427 359.737 398.293 357.278 398.274 354.815C398.21 349.891 398.003 344.967 398.112 340.043C398.171 335.119 398.138 330.193 398.384 325.274L398.944 310.53C399.115 305.627 399.389 300.726 399.431 295.821L399.566 288.463C399.632 286.01 399.548 283.559 399.546 281.107C399.514 278.655 399.53 276.201 399.457 273.75L399.184 266.399C398.79 256.601 397.88 246.831 396.456 237.129C395.656 232.298 394.807 227.467 393.568 222.733C393.28 221.544 392.974 220.36 392.61 219.194C392.262 218.023 391.935 216.843 391.517 215.697L390.923 213.966L390.254 212.267C389.813 211.147 389.304 210.056 388.729 208.998L389.158 209.211L352.43 212.216L352.413 212.023L389.075 208.302L389.366 208.272L389.504 208.515C390.118 209.608 390.662 210.739 391.134 211.901L391.834 213.624L392.456 215.372C392.893 216.532 393.236 217.718 393.601 218.898C393.982 220.075 394.304 221.266 394.607 222.462C395.91 227.227 396.817 232.079 397.675 236.933C399.213 246.668 400.236 256.477 400.739 266.32L401.094 273.699C401.195 276.16 401.205 278.622 401.264 281.083C401.293 283.544 401.404 286.007 401.365 288.468L401.31 295.853C401.341 300.778 401.055 305.694 400.895 310.614L400.364 325.336C400.128 330.237 400.17 335.143 400.12 340.047C400.02 344.952 400.236 349.854 400.309 354.757C400.332 357.21 400.47 359.658 400.591 362.106L400.94 369.453L401.468 376.787C401.642 379.232 401.815 381.678 402.088 384.114L402.825 391.43L403.756 398.723C404.038 401.158 404.46 403.572 404.823 405.995L405.391 409.626L406.049 413.241L406.706 416.857L407.453 420.453C407.929 422.856 408.489 425.239 409.055 427.621C410.215 432.365 411.454 437.135 413.042 441.702L413.427 442.809L412.285 442.798C400.452 442.679 388.636 442.336 376.825 441.616C370.921 441.232 365.019 440.766 359.141 439.966C356.185 439.592 353.257 439.027 350.375 438.272C347.54 437.599 344.632 437.286 341.719 437.338C335.827 437.361 329.943 437.771 324.105 438.566C318.256 439.318 312.441 440.295 306.659 441.496C300.876 442.659 295.161 444.132 289.537 445.908C286.731 446.793 283.981 447.843 281.3 449.052C279.971 449.656 278.689 450.359 277.466 451.156C276.242 451.846 275.261 452.898 274.659 454.168L273.976 453.982C276.286 444.353 278.386 434.668 280.382 424.967C282.368 415.262 284.305 405.548 286.066 395.802C287.854 386.062 289.517 376.301 291.12 366.531C292.632 356.747 294.079 346.954 295.292 337.133L296.189 329.766L296.932 322.384C297.478 317.465 297.774 312.53 298.129 307.598C298.488 302.665 298.736 297.699 299.117 292.757L299.755 285.343C299.971 282.872 300.262 280.407 300.511 277.94C301.594 268.078 302.924 258.238 304.769 248.487C305.669 243.608 306.755 238.764 307.941 233.948C309.102 229.122 310.549 224.369 312.275 219.716L312.454 219.789Z" fill="black"/>
<path d="M389.294 162.746C389.991 158.216 386.216 159.378 386.216 159.378L375.01 170.178C376.577 164.372 372.281 165.997 372.281 165.997C372.633 164.18 372.711 162.321 372.513 160.481C372.429 159.556 372.267 158.64 372.029 157.742C371.821 156.829 371.451 155.96 370.935 155.178C371.11 156.087 371.187 156.987 371.293 157.878C371.371 158.778 371.477 159.668 371.555 160.578C371.651 161.468 371.729 162.368 371.845 163.278C371.939 164.192 372.084 165.1 372.281 165.997C372.223 166.98 371.811 167.909 371.119 168.61C370.287 169.559 367.829 176.295 366.358 180.456H366.348C377.148 148.181 365.497 136.277 365.497 136.277L366.242 136.383C366.242 136.383 388.558 139.035 391.113 162.029C390.473 162.172 389.86 162.414 389.294 162.746Z" fill="black"/>
<path d="M393.591 180.456H383.662L390.862 174.417C391.633 174.041 392.329 173.526 392.913 172.897L393.01 173.488C393.01 173.488 393.465 179.324 393.591 180.456Z" fill="black"/>
<path d="M322.166 95.6231C322.166 95.6231 335.754 103.81 344.812 104.856L346.031 108.688C346.424 107.499 346.89 106.336 347.425 105.204C348.644 102.417 353.174 101.72 353.696 104.856C354.219 107.991 352.477 114.262 347.599 116.004C347.599 116.004 346.38 133.947 350.038 133.947L366.238 136.386C366.238 136.386 359.27 122.45 359.793 101.197C360.316 79.9451 337.67 86.0421 337.67 86.0421C337.67 86.0421 327.044 88.4809 322.166 95.6231Z" fill="black"/>
<path d="M323.734 116.353C324.224 116.136 324.754 116.023 325.289 116.023C325.829 116.008 326.368 116.087 326.881 116.256C327.414 116.432 327.899 116.729 328.297 117.123C328.693 117.524 328.929 118.055 328.96 118.617C328.62 118.27 328.238 117.965 327.823 117.711C327.423 117.493 327.004 117.313 326.571 117.172C325.693 116.864 324.754 116.685 323.734 116.353Z" fill="black"/>
<path d="M324.837 109.733C324.646 110.287 324.499 110.855 324.399 111.432C324.372 111.66 324.397 111.891 324.471 112.109C324.577 112.407 324.699 112.7 324.837 112.985C324.647 112.976 324.46 112.93 324.288 112.85C324.116 112.769 323.961 112.654 323.833 112.513C323.688 112.359 323.578 112.176 323.509 111.975C323.44 111.775 323.415 111.562 323.435 111.352C323.477 110.958 323.643 110.587 323.909 110.293C324.15 110.011 324.475 109.815 324.837 109.733Z" fill="black"/>
<path d="M322.747 109.791C323.123 109.778 323.48 109.62 323.741 109.349C324.003 109.078 324.149 108.716 324.149 108.34C324.149 107.963 324.003 107.601 323.741 107.33C323.48 107.06 323.123 106.901 322.747 106.888C322.371 106.901 322.014 107.06 321.752 107.33C321.491 107.601 321.344 107.963 321.344 108.34C321.344 108.716 321.491 109.078 321.752 109.349C322.014 109.62 322.371 109.778 322.747 109.791Z" fill="black"/>
<path d="M333.896 109.443C334.272 109.43 334.629 109.271 334.89 109C335.152 108.73 335.298 108.368 335.298 107.991C335.298 107.615 335.152 107.253 334.89 106.982C334.629 106.711 334.272 106.553 333.896 106.54C333.519 106.553 333.163 106.711 332.901 106.982C332.639 107.253 332.493 107.615 332.493 107.991C332.493 108.368 332.639 108.73 332.901 109C333.163 109.271 333.519 109.43 333.896 109.443Z" fill="black"/>
<path d="M328.06 103.868C328.436 103.855 328.793 103.697 329.054 103.426C329.316 103.155 329.462 102.793 329.462 102.417C329.462 102.04 329.316 101.678 329.054 101.408C328.793 101.137 328.436 100.978 328.06 100.965C327.684 100.978 327.327 101.137 327.065 101.408C326.804 101.678 326.658 102.04 326.658 102.417C326.658 102.793 326.804 103.155 327.065 103.426C327.327 103.697 327.684 103.855 328.06 103.868Z" fill="#B21919"/>
<path d="M349.303 113.754C349.679 113.741 350.035 113.582 350.297 113.311C350.559 113.041 350.705 112.679 350.705 112.302C350.705 111.926 350.559 111.564 350.297 111.293C350.035 111.022 349.679 110.864 349.303 110.851C348.926 110.864 348.57 111.022 348.308 111.293C348.046 111.564 347.9 111.926 347.9 112.302C347.9 112.679 348.046 113.041 348.308 113.311C348.57 113.582 348.926 113.741 349.303 113.754Z" fill="black"/>
<path d="M321.469 104.043C322.337 103.71 323.285 103.648 324.188 103.865C324.651 103.965 325.092 104.147 325.49 104.404C325.705 104.525 325.893 104.689 326.04 104.887C326.188 105.085 326.292 105.312 326.347 105.552C325.981 105.337 325.583 105.18 325.169 105.087C324.776 104.992 324.384 104.887 323.975 104.808C323.116 104.638 322.277 104.381 321.469 104.043Z" fill="black"/>
<path d="M329.831 105.552C330.356 105.045 330.975 104.646 331.652 104.376C332.328 104.093 333.041 103.91 333.77 103.833C334.501 103.751 335.241 103.79 335.961 103.948C336.678 104.091 337.359 104.381 337.96 104.798C337.226 104.771 336.554 104.688 335.874 104.698C335.205 104.685 334.535 104.718 333.87 104.795C332.508 104.953 331.158 105.206 329.831 105.552Z" fill="black"/>
<path d="M322.166 95.623C321.966 97.3804 321.793 99.1355 321.706 100.896C321.583 102.653 321.52 104.413 321.527 106.17C321.476 109.673 321.762 113.173 322.381 116.622C322.538 117.478 322.752 118.322 322.939 119.172C323.212 119.993 323.42 120.843 323.745 121.645C324.049 122.448 324.404 123.231 324.808 123.989C325.242 124.717 325.763 125.39 326.358 125.993C327.582 127.203 329.114 128.055 330.787 128.457C332.483 128.914 334.26 128.985 335.986 128.663C335.147 128.97 334.259 129.12 333.366 129.105C332.47 129.116 331.576 129.055 330.69 128.921C328.887 128.585 327.212 127.759 325.847 126.534C325.161 125.92 324.569 125.208 324.091 124.42C323.648 123.628 323.259 122.808 322.925 121.965C322.573 121.136 322.343 120.266 322.048 119.417C321.841 118.547 321.602 117.68 321.431 116.802C320.836 113.286 320.619 109.716 320.786 106.153C320.927 102.609 321.389 99.0841 322.166 95.623Z" fill="black"/>
<path d="M339.935 127.617C341.4 126.914 342.811 126.101 344.155 125.186C344.795 124.726 345.392 124.209 345.94 123.642C346.487 123.039 346.978 122.387 347.406 121.695C347.317 122.559 347.018 123.387 346.534 124.108C346.041 124.829 345.428 125.459 344.72 125.971C344.015 126.466 343.246 126.862 342.434 127.149C341.634 127.445 340.788 127.604 339.935 127.617Z" fill="black"/>
<path d="M349.806 132.147C349.78 132.924 349.855 133.673 349.861 134.435C349.886 135.193 349.875 135.951 349.859 136.71C349.836 138.247 349.649 139.776 349.303 141.273C348.963 139.767 348.825 138.222 348.892 136.679C348.918 135.91 348.991 135.143 349.111 134.382C349.202 133.6 349.437 132.842 349.806 132.147Z" fill="black"/>
<path d="M334.979 128.895V132.844C337.308 140.421 340.034 147.87 343.147 155.16" stroke="black" stroke-width="0.96777" stroke-miterlimit="10"/>
<path d="M383.608 180.364L393.591 180.213L393.75 180.21L393.814 180.359C394.933 182.955 395.812 185.648 396.438 188.404C397.115 191.174 397.376 194.029 397.213 196.875C397.111 198.325 396.791 199.751 396.263 201.105C395.986 201.789 395.639 202.443 395.229 203.056C395.001 203.349 394.787 203.655 394.539 203.931L394.154 204.335L393.96 204.537C393.849 204.633 393.723 204.712 393.588 204.77C392.845 205.001 392.066 205.097 391.289 205.056C390.568 205.053 389.858 205.016 389.15 204.966C387.736 204.865 386.334 204.712 384.936 204.54C379.349 203.837 373.815 202.884 368.288 201.893C362.766 200.877 357.269 199.752 351.775 198.591L352.413 198.318C351.968 199.04 351.378 199.663 350.682 200.146C349.97 200.627 349.15 200.921 348.296 201.004C346.697 201.08 345.099 200.834 343.596 200.281C343.26 200.174 342.916 200.089 342.568 200.028C342.451 200.009 342.332 200.013 342.216 200.04C342.073 200.095 341.934 200.163 341.802 200.242C341.196 200.635 340.635 201.094 340.129 201.61C339.065 202.673 338.067 203.8 337.139 204.983L337.111 205.018L337.096 205.032C336.706 205.394 336.283 205.72 335.832 206.004C335.338 206.305 334.772 206.467 334.193 206.473C333.892 206.456 333.597 206.378 333.327 206.245C333.057 206.111 332.817 205.924 332.621 205.695C332.254 205.274 331.979 204.781 331.814 204.248L332.438 204.368C331.836 205.144 331.118 205.822 330.31 206.379C329.873 206.664 329.379 206.849 328.863 206.922C328.582 206.963 328.296 206.94 328.025 206.857C327.754 206.773 327.504 206.631 327.295 206.439L327.32 206.464C326.91 206.045 326.673 205.486 326.659 204.9C326.627 204.375 326.657 203.847 326.747 203.329C326.919 202.32 327.174 201.326 327.508 200.359C328.166 198.439 328.948 196.565 329.851 194.749L329.984 195.082C329.388 194.873 328.74 194.874 328.145 195.082C327.537 195.313 326.989 195.679 326.544 196.154C325.618 197.118 324.876 198.243 324.353 199.473L324.362 199.449C324.218 199.931 324.043 200.404 323.839 200.864C323.63 201.334 323.353 201.772 323.018 202.162C322.674 202.582 322.21 202.886 321.688 203.034C321.144 203.171 320.569 203.106 320.07 202.849L319.974 202.799L319.954 202.687C319.757 201.712 319.676 200.717 319.715 199.724C319.751 198.727 319.929 197.74 320.246 196.794C320.554 195.845 320.988 194.941 321.536 194.107C322.077 193.26 322.736 192.493 323.491 191.83L323.775 192.358C323.236 192.51 322.675 192.567 322.117 192.527C321.583 192.506 321.052 192.455 320.525 192.373C319.48 192.213 318.445 191.994 317.424 191.717L317.366 191.701L317.311 191.661C316.935 191.435 316.617 191.124 316.382 190.753C316.147 190.383 316.002 189.963 315.958 189.526C315.974 189.068 316.124 188.624 316.39 188.251C316.657 187.877 317.027 187.59 317.456 187.426C317.852 187.271 318.275 187.192 318.7 187.193L319.837 187.126L322.11 186.99L331.202 186.449L331.026 187.428C329.742 186.882 328.674 185.926 327.99 184.71C327.638 184.109 327.38 183.458 327.223 182.78C327.058 182.018 327.175 181.223 327.553 180.541C327.769 180.166 328.087 179.86 328.47 179.658C328.871 179.469 329.323 179.416 329.756 179.508C330.465 179.672 331.128 179.99 331.701 180.439C332.226 180.835 332.727 181.262 333.201 181.719C333.651 182.133 334.125 182.522 334.621 182.882C336.597 184.335 338.86 185.35 341.26 185.857C343.701 186.326 346.233 186.675 348.724 186.957L348.52 186.964L370.767 182.788L376.332 181.767L379.115 181.257L380.507 181.001L381.203 180.874C381.398 180.838 381.59 180.788 381.778 180.724C382.153 180.595 382.506 180.41 382.826 180.174C383.125 179.943 383.532 179.588 383.88 179.302L386.051 177.487L390.392 173.856L390.451 173.807L390.518 173.771C391.223 173.429 391.859 172.959 392.391 172.383C392.587 172.17 392.713 171.903 392.753 171.616C392.763 171.391 392.685 171.172 392.535 171.004L391.977 170.416L392.558 169.913C392.91 169.625 393.24 169.313 393.547 168.977C393.682 168.818 393.809 168.651 393.926 168.478C394.014 168.326 394.082 168.164 394.128 167.995C394.167 167.862 394.17 167.722 394.137 167.587C394.103 167.453 394.035 167.331 393.938 167.232C393.672 166.966 393.348 166.765 392.991 166.645L392.403 166.442L392.524 165.855C392.655 165.283 392.731 164.7 392.751 164.114C392.8 163.655 392.677 163.194 392.405 162.82C392.229 162.699 392.027 162.622 391.815 162.595C391.604 162.568 391.389 162.592 391.188 162.665C390.637 162.788 390.108 162.995 389.62 163.278L388.541 163.887L388.677 162.65L388.749 161.993C388.761 161.778 388.747 161.571 388.75 161.359C388.724 160.994 388.609 160.64 388.414 160.331C388.2 160.07 387.893 159.903 387.558 159.867C387.168 159.814 386.77 159.838 386.389 159.937L386.623 159.799L375.315 170.494L374.236 171.514L374.586 170.063C374.728 169.546 374.833 169.019 374.9 168.487C374.976 167.994 374.938 167.489 374.789 167.013C374.722 166.808 374.601 166.625 374.438 166.483C374.276 166.342 374.078 166.247 373.866 166.209C373.377 166.132 372.877 166.176 372.41 166.338L372.645 165.98C372.59 166.865 372.264 167.712 371.712 168.406C371.597 168.574 371.428 168.747 371.328 168.886C371.222 169.032 371.125 169.184 371.038 169.342C370.853 169.681 370.68 170.037 370.511 170.395C369.847 171.838 369.245 173.321 368.656 174.807C367.476 177.779 366.372 180.785 365.265 183.789L365.128 183.742C366.139 180.703 367.145 177.663 368.232 174.647C368.775 173.138 369.329 171.634 369.956 170.147C370.117 169.776 370.283 169.406 370.47 169.037C370.568 168.84 370.682 168.652 370.811 168.473C370.944 168.287 371.057 168.172 371.166 168.008C371.605 167.431 371.866 166.738 371.917 166.014L371.92 165.735L372.152 165.656C372.745 165.433 373.385 165.364 374.012 165.457C374.353 165.517 374.674 165.664 374.941 165.885C375.208 166.106 375.413 166.393 375.536 166.718C375.746 167.308 375.815 167.94 375.737 168.562C375.678 169.145 375.576 169.723 375.434 170.292L374.706 169.862L385.811 158.956L385.915 158.854L386.045 158.818C386.595 158.659 387.173 158.616 387.74 158.692C388.376 158.769 388.957 159.088 389.363 159.582C389.712 160.073 389.923 160.648 389.974 161.248C389.98 161.518 389.997 161.794 389.986 162.059L389.911 162.84L388.969 162.213C389.574 161.848 390.232 161.58 390.921 161.419C391.297 161.329 391.686 161.3 392.072 161.334C392.529 161.375 392.96 161.566 393.299 161.876C393.571 162.178 393.78 162.53 393.914 162.914C394.047 163.297 394.103 163.704 394.077 164.109C394.066 164.792 393.989 165.472 393.845 166.139L393.378 165.349C393.974 165.532 394.515 165.86 394.951 166.306C395.197 166.569 395.375 166.888 395.468 167.236C395.562 167.584 395.568 167.95 395.487 168.3C395.333 168.894 395.037 169.44 394.623 169.892C394.266 170.298 393.878 170.676 393.463 171.023L393.486 169.933C393.728 170.159 393.918 170.437 394.041 170.744C394.165 171.047 394.22 171.373 394.201 171.699C394.148 172.292 393.909 172.853 393.519 173.303C392.868 174.032 392.083 174.629 391.206 175.062L391.332 174.977L387.002 178.619L384.837 180.441C384.457 180.754 384.158 181.025 383.713 181.373C383.273 181.7 382.785 181.958 382.267 182.137C382.008 182.227 381.744 182.297 381.475 182.347L380.78 182.476L379.389 182.735L376.608 183.254L371.045 184.291L348.776 188.347L348.669 188.366L348.572 188.354C346.021 188.045 343.52 187.684 340.979 187.176C338.396 186.617 335.965 185.5 333.859 183.901C333.335 183.506 332.833 183.081 332.357 182.628C331.923 182.196 331.465 181.79 330.983 181.413C330.561 181.066 330.071 180.812 329.545 180.667C329.35 180.612 329.142 180.629 328.958 180.713C328.774 180.797 328.626 180.944 328.54 181.127C328.294 181.567 328.216 182.081 328.32 182.573C328.446 183.135 328.653 183.674 328.934 184.176C329.487 185.202 330.365 186.016 331.43 186.489L333.452 187.374L331.254 187.469L322.154 187.861L319.879 187.959L318.742 188.008C318.407 187.996 318.073 188.049 317.758 188.164C317.47 188.265 317.218 188.448 317.033 188.69C316.848 188.932 316.738 189.223 316.716 189.527C316.757 189.847 316.871 190.153 317.048 190.423C317.225 190.692 317.461 190.918 317.738 191.083L317.624 191.027C318.612 191.314 319.614 191.544 320.628 191.717C321.129 191.804 321.635 191.862 322.143 191.892C322.626 191.936 323.113 191.898 323.583 191.78L325.019 191.342L323.867 192.308C323.151 192.921 322.523 193.63 322.001 194.415C321.466 195.2 321.045 196.058 320.749 196.961C320.441 197.86 320.265 198.798 320.226 199.748C320.183 200.699 320.253 201.652 320.436 202.587L320.321 202.425C320.707 202.617 321.149 202.667 321.568 202.566C321.999 202.445 322.383 202.193 322.666 201.846C323.259 201.102 323.688 200.242 323.926 199.321L323.931 199.304L323.935 199.297C324.493 198.019 325.27 196.849 326.23 195.837C326.718 195.312 327.32 194.905 327.989 194.646C328.686 194.395 329.448 194.39 330.149 194.63L330.401 194.715L330.282 194.964C329.405 196.766 328.648 198.623 328.015 200.525C327.698 201.466 327.459 202.431 327.3 203.411C327.221 203.887 327.197 204.371 327.229 204.852C327.236 205.284 327.405 205.697 327.703 206.01L327.728 206.035C327.877 206.151 328.049 206.235 328.232 206.281C328.415 206.327 328.606 206.335 328.792 206.303C329.21 206.23 329.607 206.068 329.957 205.829C330.69 205.295 331.337 204.654 331.876 203.925L332.283 203.41L332.5 204.046C332.645 204.467 332.872 204.855 333.17 205.186C333.301 205.338 333.462 205.462 333.643 205.549C333.824 205.636 334.02 205.685 334.221 205.693C334.647 205.669 335.059 205.535 335.417 205.304C335.604 205.166 335.798 205.047 335.979 204.897L336.508 204.423L336.466 204.471C337.392 203.234 338.393 202.055 339.464 200.941C340.014 200.357 340.628 199.836 341.295 199.389C341.488 199.269 341.692 199.168 341.904 199.086C342.155 199.01 342.42 198.987 342.681 199.019C343.085 199.077 343.485 199.164 343.878 199.28C345.252 199.76 346.707 199.963 348.16 199.877C348.83 199.783 349.47 199.537 350.029 199.157C350.589 198.777 351.053 198.273 351.386 197.685L351.61 197.325L352.024 197.411C357.509 198.544 363.018 199.593 368.524 200.623C374.028 201.657 379.545 202.654 385.082 203.397C386.466 203.578 387.852 203.741 389.234 203.851C389.924 203.905 390.615 203.947 391.296 203.955C391.92 203.99 392.547 203.932 393.154 203.781C393.219 203.76 393.202 203.753 393.231 203.747L393.405 203.572L393.753 203.223C393.977 202.983 394.171 202.714 394.38 202.46C394.76 201.914 395.084 201.332 395.346 200.721C395.862 199.467 396.186 198.143 396.307 196.793C396.518 194.034 396.319 191.259 395.715 188.558C395.156 185.829 394.371 183.151 393.368 180.552L393.591 180.699L383.608 180.509L383.608 180.364Z" fill="black"/>
<path d="M332.532 181.948C333.687 177.765 335.051 173.657 336.504 169.582C337.949 165.504 339.516 161.472 341.15 157.466C342.826 153.477 344.535 149.498 346.458 145.611C347.416 143.666 348.401 141.734 349.478 139.845C350.52 137.936 351.717 136.115 353.057 134.401C351.057 138.242 349.511 142.258 347.836 146.231L342.938 158.204C341.273 162.183 339.633 166.175 337.904 170.134C336.188 174.098 334.435 178.049 332.532 181.948Z" fill="black"/>
<path d="M323.42 191.66C324.016 191.358 324.634 191.102 325.269 190.894C325.893 190.688 326.53 190.526 327.176 190.408C327.818 190.288 328.469 190.224 329.122 190.217C329.769 190.21 330.415 190.267 331.05 190.387C330.413 190.348 329.773 190.372 329.139 190.459C328.513 190.545 327.894 190.685 327.292 190.878C326.692 191.067 326.107 191.298 325.54 191.568C324.981 191.832 324.444 192.137 323.932 192.482L323.42 191.66Z" fill="black"/>
<path d="M331.707 203.962C332.404 202.539 333.172 201.152 334.01 199.808C334.428 199.137 334.872 198.481 335.354 197.855C335.82 197.216 336.364 196.639 336.973 196.136C336.424 196.693 335.947 197.316 335.553 197.992C335.144 198.656 334.775 199.343 334.433 200.044C333.749 201.442 333.138 202.875 332.6 204.336L331.707 203.962Z" fill="black"/>
<path d="M385.226 173.49C386.427 172.771 387.656 172.095 388.921 171.479C389.554 171.169 390.197 170.878 390.861 170.618C391.536 170.338 392.237 170.128 392.955 169.989L393.059 170.951C392.392 171.004 391.731 171.123 391.087 171.308C390.424 171.482 389.763 171.694 389.108 171.925C387.796 172.386 386.501 172.915 385.226 173.49Z" fill="black"/>
<path d="M385.226 170.093C386.342 169.056 387.544 168.117 388.82 167.285C389.466 166.859 390.145 166.486 390.851 166.169C391.582 165.826 392.365 165.605 393.168 165.516L393.194 166.483C392.485 166.491 391.781 166.614 391.11 166.846C390.405 167.078 389.72 167.365 389.061 167.705C387.717 168.39 386.434 169.189 385.226 170.093Z" fill="black"/>
<path d="M383.31 168.046C384.156 167.006 385.037 165.993 385.955 165.007C386.417 164.516 386.892 164.035 387.393 163.57C387.905 163.068 388.484 162.64 389.114 162.297L389.468 163.198C388.89 163.437 388.347 163.751 387.851 164.132C387.32 164.519 386.799 164.932 386.287 165.358C385.267 166.216 384.274 167.116 383.31 168.046Z" fill="black"/>
<path d="M396.188 200.127C398.555 211.135 400.644 222.181 402.82 233.212C405.021 244.236 406.681 255.369 408.96 266.384C410.103 271.889 411.397 277.362 412.786 282.81C413.456 285.54 414.227 288.245 414.955 290.959C415.685 293.673 416.428 296.382 417.204 299.08C417.987 301.777 418.702 304.494 419.523 307.176L421.969 315.226L424.657 323.185L427.627 331.016L427.937 331.832L427.209 332.288C424.255 334.147 421.539 336.362 419.124 338.882C416.67 341.345 414.754 344.291 413.497 347.533L412.725 350.061C412.579 350.502 412.475 350.956 412.293 351.384L411.744 352.663C410.941 354.326 409.908 355.868 408.675 357.245C407.432 358.584 406.021 359.757 404.478 360.736C402.961 361.727 401.321 362.514 399.598 363.076L399.537 362.893C402.793 361.487 405.674 359.337 407.95 356.617C409.041 355.263 409.938 353.764 410.614 352.162L411.062 350.948C411.211 350.544 411.283 350.114 411.398 349.7C411.598 348.898 411.843 347.948 412.085 347.059C413.31 343.559 415.249 340.352 417.78 337.641C418.996 336.269 420.314 334.991 421.723 333.819C423.127 332.626 424.61 331.529 426.161 330.535L425.744 331.807C424.708 329.171 423.692 326.523 422.712 323.868L420.115 315.803L417.798 307.666C417.004 304.96 416.389 302.209 415.685 299.482L414.667 295.382L413.752 291.258C413.158 288.505 412.5 285.768 411.937 283.01C411.374 280.252 410.764 277.506 410.146 274.761C409.553 272.011 408.986 269.256 408.354 266.514C405.9 255.536 403.092 244.617 401.143 233.529C399.16 222.45 397.276 211.351 395.997 200.158L396.188 200.127Z" fill="black"/>
<path d="M352.422 212.119C349.723 220.791 346.68 229.356 343.368 237.816C340.071 246.282 336.482 254.633 332.603 262.867C328.76 271.13 324.364 279.125 319.448 286.798C316.98 290.654 314.154 294.268 311.006 297.592C309.415 299.257 307.609 300.703 305.637 301.893C304.679 302.536 303.599 302.975 302.464 303.181C301.329 303.388 300.164 303.358 299.041 303.094C300.149 303.314 301.294 303.248 302.37 302.904C303.439 302.581 304.451 302.093 305.369 301.456C307.209 300.177 308.872 298.66 310.314 296.943C313.235 293.517 315.865 289.852 318.174 285.986C320.52 282.134 322.734 278.2 324.817 274.184C326.914 270.18 328.927 266.131 330.857 262.036C334.759 253.87 338.401 245.574 341.975 237.246C345.515 228.903 349.019 220.538 352.422 212.119Z" fill="black"/>
<path d="M308.997 210.505C305.308 219.372 301.094 227.98 296.754 236.519C294.555 240.773 292.334 245.016 290.014 249.206C287.718 253.409 285.313 257.552 282.797 261.635C284.649 257.195 286.61 252.817 288.68 248.498C290.727 244.166 292.873 239.888 295.04 235.621C299.433 227.116 303.952 218.68 308.997 210.505Z" fill="black"/>
<path d="M324.14 199.387C325.204 202.509 326.025 205.708 326.595 208.956C326.927 210.574 327.122 212.21 327.39 213.84C327.614 215.474 327.775 217.115 327.969 218.754C328.575 225.325 328.782 231.926 328.589 238.521C328.449 245.115 327.856 251.686 327.078 258.223C326.675 261.491 326.127 264.739 325.629 267.989C324.984 271.218 324.386 274.451 323.676 277.661C323.953 274.379 324.364 271.124 324.689 267.86L325.576 258.068C325.757 254.797 326.141 251.543 326.241 248.271L326.516 243.373L326.655 238.471C326.836 231.937 326.811 225.396 326.469 218.868L326.135 213.977C325.975 212.352 325.875 210.716 325.662 209.095C325.348 205.832 324.84 202.59 324.14 199.387Z" fill="black"/>
<path d="M325.779 311.482C325.828 311.463 325.866 311.453 325.915 311.434L325.953 311.318L325.779 311.482ZM325.779 311.482C325.828 311.463 325.866 311.453 325.915 311.434L325.953 311.318L325.779 311.482ZM328.373 301.35L327.366 279.294C312.833 270.688 297.113 264.267 280.71 260.239C281.058 265.697 267.819 303.092 267.819 303.092C267.819 303.092 269.677 309.827 280.71 310.757C291.743 311.686 295.894 314.008 295.894 314.008C305.338 316.453 314.99 318.009 324.724 318.653L334.479 309.131L328.373 301.35ZM310.866 287.356L298.788 294.12C298.549 295.456 298.136 296.754 297.559 297.982C296.775 299.675 294.268 298.205 295.052 296.521C295.206 296.193 295.342 295.857 295.459 295.514L295.42 295.224C295.2 294.045 294.802 292.906 294.239 291.846C293.697 290.733 293.097 289.63 292.488 288.536C291.239 286.359 289.913 284.22 288.597 282.081C285.917 277.823 283.139 273.623 280.362 269.413C283.449 273.4 286.381 277.504 289.197 281.694C290.61 283.785 291.956 285.914 293.233 288.111C293.872 289.204 294.481 290.307 295.052 291.449C295.372 292.137 295.701 292.804 295.962 293.53C296.067 292.851 296.119 292.165 296.117 291.478C296.13 291.102 296.289 290.746 296.56 290.485C296.831 290.223 297.192 290.077 297.568 290.077C297.945 290.077 298.306 290.223 298.577 290.485C298.848 290.746 299.007 291.102 299.02 291.478C299.02 291.972 299.001 292.456 298.953 292.94C300.317 292.185 301.691 291.44 303.056 290.685C305.524 289.34 307.991 287.985 310.498 286.678C312.995 285.372 315.502 284.094 318.018 282.827C320.553 281.597 323.089 280.359 325.702 279.294C323.186 280.572 320.708 281.897 318.25 283.262C315.772 284.607 313.311 285.972 310.866 287.356ZM325.915 311.434L324.057 316.708L323.844 317.328L323.398 316.873C322.512 315.843 321.897 314.609 321.608 313.282C321.271 312.038 321.009 310.774 320.824 309.498C320.456 306.97 320.217 304.425 320.108 301.872C319.982 299.327 319.973 296.772 319.992 294.227C320.011 291.682 320.118 289.136 320.311 286.601L320.582 294.217C320.679 296.763 320.834 299.288 320.998 301.814C321.182 304.34 321.405 306.866 321.773 309.363C321.942 310.601 322.181 311.829 322.489 313.04C322.697 313.999 323.06 314.918 323.563 315.76L325.44 311.124L325.499 310.999L325.615 310.96C326.699 310.631 327.792 310.331 328.876 310.031C329.969 309.721 331.054 309.421 332.157 309.131C331.102 309.547 330.037 309.934 328.973 310.331C327.966 310.698 326.94 311.085 325.915 311.434ZM325.779 311.482C325.828 311.463 325.866 311.453 325.915 311.434L325.953 311.318L325.779 311.482Z" fill="black"/>
<path d="M325.953 311.318L325.915 311.434C325.866 311.453 325.828 311.463 325.779 311.482L325.953 311.318Z" fill="white"/>
<path d="M322.054 117.477C322.054 117.477 318.8 129.499 315.49 130.707C315.49 130.707 332.532 136.386 334.977 131.987C334.977 131.987 335.58 129.235 334.273 128.891C332.967 128.547 324.728 130.534 322.054 117.477Z" fill="black"/>
<path d="M385.226 203.996C385.717 204.725 386.053 205.547 386.212 206.411C386.406 207.268 386.419 208.157 386.249 209.019C385.756 208.291 385.421 207.469 385.264 206.604C385.072 205.747 385.059 204.859 385.226 203.996Z" fill="black"/>
<path d="M393.281 446.109C393.001 444.512 392.855 442.945 392.662 441.357C392.657 441.332 392.663 441.305 392.677 441.284C392.691 441.262 392.714 441.247 392.739 441.241C392.763 441.24 392.787 441.247 392.806 441.261C392.826 441.275 392.84 441.296 392.846 441.319C393.213 442.867 393.504 444.454 393.891 445.974C394.296 447.487 394.837 448.961 395.507 450.377C396.785 453.187 398.782 455.61 401.294 457.403C402.604 458.298 403.986 459.082 405.427 459.745C406.801 460.403 408.233 460.994 409.656 461.584C409.791 461.632 409.917 461.69 410.052 461.739C409.801 461.995 409.645 462.331 409.612 462.688C409.578 463.046 409.669 463.404 409.869 463.703C409.559 463.577 409.24 463.442 408.93 463.297C407.082 462.445 405.214 461.603 403.423 460.597C402.377 460.006 401.368 459.349 400.404 458.632C397.793 456.588 395.789 453.872 394.607 450.774C393.999 449.271 393.555 447.707 393.281 446.109Z" fill="#020202"/>
<path d="M368.118 467.586C367.712 468.031 367.286 468.525 366.85 469.067C366.817 469.001 366.788 468.933 366.763 468.863C366.409 467.958 366.184 467.006 366.096 466.038C366.025 465.308 366.012 464.573 366.057 463.841V463.812C366.092 463.279 366.157 462.75 366.25 462.225C366.43 461.115 366.696 460.022 367.044 458.953C367.283 458.173 367.568 457.407 367.896 456.66C368.051 456.282 368.234 455.915 368.399 455.547C368.554 455.208 368.709 454.86 368.844 454.492C369.403 453.024 369.888 451.528 370.296 450.011C371.197 446.979 371.765 443.857 371.989 440.701C371.989 440.676 372 440.651 372.018 440.633C372.036 440.615 372.061 440.605 372.086 440.604C372.11 440.606 372.132 440.615 372.15 440.631C372.168 440.647 372.179 440.668 372.183 440.692C372.288 442.296 372.242 443.906 372.047 445.501C371.875 447.097 371.619 448.683 371.283 450.253C370.949 451.831 370.536 453.391 370.044 454.928C369.918 455.315 369.783 455.702 369.628 456.089C369.483 456.456 369.328 456.815 369.202 457.182C368.941 457.918 368.68 458.644 368.476 459.389C368.137 460.55 367.901 461.738 367.77 462.941C367.741 463.26 367.712 463.579 367.702 463.899C367.692 464.092 367.692 464.286 367.692 464.479C367.679 465.25 367.753 466.02 367.915 466.773C367.973 467.054 368.041 467.315 368.118 467.586Z" fill="#020202"/>
<path d="M432.146 475.115C432.087 475.591 431.929 476.049 431.682 476.46C431.41 476.913 431.074 477.324 430.685 477.68C429.365 478.796 427.82 479.615 426.156 480.08C424.576 480.547 422.956 480.865 421.317 481.028C418.078 481.365 414.806 481.195 411.62 480.525C410.03 480.19 408.474 479.707 406.974 479.083L405.871 478.56C405.513 478.386 405.165 478.164 404.807 477.97L402.735 476.809C399.934 475.353 396.919 474.35 393.803 473.838C392.246 473.604 390.674 473.481 389.1 473.47C387.527 473.479 385.956 473.586 384.396 473.789C383.845 473.857 383.312 473.944 382.78 474.051C382.161 474.157 381.551 474.293 380.932 474.428C380.885 474.149 380.79 473.881 380.651 473.634C380.59 473.517 380.523 473.404 380.448 473.296C380.428 473.267 380.409 473.247 380.39 473.218C381.057 473.102 381.735 472.996 382.422 472.909C383.041 472.822 383.67 472.754 384.28 472.715C387.498 472.49 390.732 472.659 393.909 473.218C394.229 473.276 394.548 473.344 394.868 473.412C397.699 474.002 400.446 474.941 403.045 476.209C404.413 477.003 405.832 477.705 407.294 478.309C408.636 478.797 410.019 479.166 411.426 479.412C411.552 479.441 411.687 479.47 411.813 479.489C414.902 479.948 418.042 479.951 421.133 479.499C422.659 479.294 424.163 478.944 425.623 478.454C427.02 478.022 428.314 477.311 429.427 476.364C429.886 475.983 430.194 475.451 430.298 474.863C430.324 474.299 430.149 473.743 429.804 473.296C428.886 472.175 427.733 471.27 426.426 470.644C425.778 470.257 425.052 469.967 424.365 469.618L422.217 468.718L417.958 467.054L417.765 466.976C415.568 466.076 413.362 465.205 411.165 464.276C411.354 464.258 411.537 464.2 411.703 464.108C411.87 464.016 412.015 463.891 412.131 463.741C412.247 463.59 412.331 463.417 412.378 463.233C412.425 463.049 412.434 462.857 412.403 462.67C414.436 463.473 416.478 464.266 418.53 465.05L419.546 465.447L422.972 466.802C423.707 467.092 424.472 467.431 425.217 467.75C425.952 468.118 426.698 468.447 427.414 468.883C428.966 469.685 430.322 470.822 431.382 472.212C431.987 473.051 432.26 474.086 432.146 475.115Z" fill="#020202"/>
<path d="M431.682 476.461C431.583 476.077 431.44 475.707 431.256 475.357C431.256 475.357 428.846 481.774 411.455 479.954C411.436 479.774 411.426 479.593 411.426 479.412C411.281 474.931 415.462 469.744 417.958 467.054C418.675 466.289 419.246 465.738 419.546 465.447C419.701 465.292 419.788 465.215 419.788 465.215C418.229 461.867 406.858 459.631 406.858 459.631C406.378 459.601 405.895 459.64 405.426 459.747C404.716 459.92 404.039 460.207 403.423 460.599C398.816 463.473 395.497 471.757 394.868 473.412C394.8 473.596 394.761 473.702 394.761 473.702C394.761 473.702 394.538 473.809 393.368 473.451C390.203 472.502 386.371 472.957 382.616 473.402C381.958 473.48 381.3 473.557 380.651 473.635C380.79 473.881 380.885 474.149 380.932 474.428C380.949 474.573 380.953 474.719 380.941 474.864C380.838 475.451 380.53 475.983 380.07 476.364C378.957 477.311 377.663 478.022 376.267 478.454C374.807 478.945 373.303 479.294 371.777 479.499C370.983 479.616 370.18 479.702 369.376 479.751L369.135 480.264L368.709 481.203L368.322 482.045H384.116L389.632 479.703V475.357C389.632 475.357 404.545 480.564 412.21 482.877C420.804 485.49 433.201 482.432 431.682 476.461ZM406.306 466.609C406.683 466.622 407.039 466.781 407.3 467.052C407.561 467.322 407.708 467.684 407.708 468.06C407.708 468.437 407.561 468.798 407.3 469.069C407.039 469.34 406.683 469.499 406.306 469.512C405.93 469.498 405.574 469.34 405.313 469.069C405.052 468.798 404.906 468.437 404.906 468.06C404.906 467.684 405.052 467.322 405.313 467.052C405.574 466.781 405.93 466.622 406.306 466.609V466.609ZM411.01 461.383C411.364 461.373 411.709 461.502 411.969 461.742C412.23 461.983 412.386 462.316 412.404 462.67C412.434 462.857 412.425 463.049 412.378 463.233C412.331 463.418 412.247 463.59 412.131 463.741C412.015 463.891 411.87 464.016 411.703 464.108C411.537 464.201 411.354 464.258 411.165 464.276C411.114 464.285 411.062 464.288 411.01 464.286C410.786 464.296 410.563 464.247 410.363 464.146C410.163 464.044 409.992 463.892 409.868 463.705C409.668 463.407 409.578 463.048 409.611 462.69C409.645 462.333 409.8 461.997 410.052 461.741C410.311 461.499 410.656 461.371 411.01 461.383L411.01 461.383ZM403.171 472.705C403.547 472.719 403.903 472.878 404.164 473.149C404.426 473.419 404.572 473.781 404.572 474.157C404.572 474.533 404.426 474.895 404.164 475.166C403.903 475.437 403.547 475.595 403.171 475.609C402.795 475.595 402.439 475.436 402.178 475.166C401.917 474.895 401.771 474.533 401.771 474.157C401.771 473.781 401.917 473.419 402.178 473.149C402.439 472.878 402.795 472.719 403.171 472.706L403.171 472.705Z" fill="#020202"/>
<path d="M344.551 448.605C344.129 447.08 343.941 445.501 343.993 443.92C344.052 442.122 344.184 438.317 344.273 436.821C344.268 436.795 344.273 436.769 344.288 436.747C344.302 436.725 344.324 436.71 344.35 436.704C344.374 436.703 344.397 436.71 344.417 436.724C344.436 436.738 344.45 436.759 344.456 436.782C344.503 438.405 344.493 441.857 344.511 443.493C344.534 445.3 344.868 447.089 345.499 448.782C345.719 449.374 345.948 449.948 346.151 450.377C347.429 453.187 349.425 455.61 351.938 457.403C353.247 458.298 354.63 459.082 356.07 459.745C357.445 460.403 358.877 460.994 360.299 461.584C360.435 461.632 360.561 461.69 360.696 461.739C360.445 461.995 360.289 462.331 360.256 462.688C360.222 463.046 360.313 463.404 360.512 463.703C360.203 463.577 359.883 463.442 359.574 463.297C357.725 462.445 355.857 461.603 354.067 460.597C353.021 460.006 352.012 459.349 351.048 458.632C348.437 456.588 346.433 453.872 345.251 450.774C344.978 450.064 344.745 449.34 344.551 448.605Z" fill="#020202"/>
<path d="M382.79 475.115C382.731 475.591 382.573 476.05 382.325 476.461C382.054 476.913 381.718 477.324 381.328 477.68C380.009 478.796 378.464 479.615 376.799 480.08C375.22 480.547 373.599 480.865 371.96 481.028C370.88 481.144 369.795 481.202 368.709 481.203C366.543 481.19 364.384 480.963 362.263 480.525C360.673 480.19 359.118 479.707 357.618 479.083L356.515 478.561C356.157 478.386 355.808 478.164 355.45 477.97L353.379 476.809C352.982 476.606 352.586 476.412 352.189 476.228C352.188 476.228 352.186 476.228 352.185 476.228C352.184 476.227 352.183 476.226 352.182 476.226C352.181 476.225 352.18 476.224 352.18 476.222C352.179 476.221 352.179 476.22 352.179 476.219C352.121 476.199 352.082 476.17 352.024 476.151C349.612 475.047 347.064 474.269 344.447 473.838C342.89 473.604 341.318 473.482 339.743 473.47C338.17 473.479 336.6 473.586 335.04 473.789C333.476 474.01 331.925 474.317 330.395 474.709C328.745 475.054 327.045 475.09 325.382 474.815C324.54 474.674 323.716 474.444 322.923 474.128C322.528 473.965 322.144 473.777 321.772 473.567C321.378 473.391 321.007 473.167 320.668 472.899C319.89 472.369 319.198 471.723 318.617 470.983C318.102 470.346 317.693 469.631 317.407 468.863C316.807 467.251 316.566 465.527 316.701 463.812C316.831 462.158 317.163 460.527 317.688 458.953C317.927 458.173 318.211 457.407 318.539 456.66C318.694 456.282 318.878 455.915 319.043 455.547C319.198 455.208 319.352 454.86 319.488 454.492C320.047 453.024 320.532 451.528 320.939 450.011C321.894 446.202 322.512 442.316 322.788 438.398C322.788 438.372 322.798 438.348 322.816 438.33C322.834 438.312 322.859 438.301 322.885 438.301C322.908 438.302 322.931 438.312 322.949 438.328C322.966 438.343 322.978 438.365 322.982 438.388C323.034 440.763 322.937 443.139 322.691 445.502C322.518 447.098 322.263 448.684 321.927 450.253C321.593 451.831 321.18 453.392 320.688 454.928C320.562 455.315 320.426 455.702 320.272 456.089C320.127 456.457 319.972 456.815 319.846 457.182C319.585 457.918 319.323 458.644 319.12 459.389C318.687 460.857 318.428 462.371 318.346 463.899C318.249 465.371 318.47 466.846 318.994 468.225C319.539 469.552 320.465 470.687 321.656 471.486C321.94 471.718 322.252 471.913 322.585 472.067C322.914 472.222 323.223 472.434 323.572 472.57C324.249 472.866 324.957 473.09 325.681 473.238C327.155 473.549 328.673 473.595 330.162 473.373C331.736 473.068 333.326 472.848 334.924 472.715C338.142 472.49 341.376 472.659 344.553 473.218C344.872 473.277 345.192 473.344 345.511 473.412C347.582 473.847 349.609 474.466 351.569 475.26C352.286 475.551 352.992 475.86 353.689 476.209C353.844 476.286 353.989 476.364 354.134 476.441H354.153C355.367 477.156 356.632 477.78 357.937 478.309C359.28 478.797 360.662 479.166 362.07 479.412C362.196 479.441 362.331 479.47 362.457 479.49C364.746 479.833 367.067 479.921 369.376 479.751C370.18 479.702 370.983 479.615 371.776 479.499C373.303 479.294 374.807 478.944 376.267 478.454C377.663 478.022 378.957 477.311 380.07 476.364C380.529 475.983 380.838 475.451 380.941 474.864C380.953 474.718 380.949 474.573 380.932 474.428C380.885 474.149 380.79 473.881 380.651 473.634C380.59 473.517 380.523 473.404 380.448 473.296C380.428 473.267 380.409 473.247 380.39 473.218C379.479 472.134 378.347 471.257 377.07 470.644C376.422 470.257 375.696 469.967 375.009 469.618L372.86 468.718L368.602 467.054L368.409 466.976C368.244 466.908 368.08 466.841 367.915 466.773C367.305 466.531 366.705 466.28 366.096 466.038C365.292 465.708 364.489 465.389 363.686 465.06C363.067 464.799 362.438 464.537 361.808 464.276C361.997 464.258 362.181 464.2 362.347 464.108C362.513 464.016 362.659 463.891 362.775 463.741C362.891 463.59 362.975 463.417 363.022 463.233C363.069 463.049 363.077 462.857 363.047 462.67C363.734 462.941 364.402 463.212 365.089 463.463H365.099C365.418 463.599 365.737 463.725 366.057 463.841C366.599 464.063 367.15 464.276 367.692 464.479C368.186 464.673 368.68 464.857 369.173 465.05L370.189 465.447L373.615 466.802C374.351 467.092 375.115 467.431 375.86 467.75C376.596 468.118 377.341 468.447 378.057 468.883C379.61 469.685 380.965 470.822 382.025 472.212C382.177 472.433 382.309 472.666 382.422 472.909C382.502 473.066 382.567 473.232 382.616 473.402C382.694 473.612 382.749 473.829 382.78 474.051C382.832 474.403 382.835 474.762 382.79 475.115Z" fill="#020202"/>
<path d="M382.325 476.461C382.227 476.077 382.084 475.707 381.899 475.357C381.899 475.357 380.177 479.944 369.135 480.264C366.785 480.316 364.435 480.212 362.099 479.954C362.079 479.774 362.07 479.593 362.07 479.412C361.954 475.88 364.528 471.902 366.85 469.067C367.286 468.525 367.712 468.031 368.118 467.586C368.283 467.402 368.447 467.218 368.602 467.054C369.318 466.289 369.889 465.738 370.189 465.447C370.344 465.292 370.431 465.215 370.431 465.215C369.794 464.206 368.866 463.413 367.77 462.941C367.296 462.689 366.783 462.447 366.251 462.225C363.416 461.105 360.489 460.237 357.502 459.631C357.021 459.601 356.539 459.64 356.07 459.747C355.36 459.92 354.683 460.207 354.066 460.599C349.46 463.473 346.14 471.757 345.511 473.412C345.443 473.596 345.405 473.702 345.405 473.702C345.405 473.702 345.182 473.809 344.011 473.451C335.872 471.012 323.339 477.825 319.013 470.064C318.832 470.346 318.698 470.657 318.617 470.983C318.297 472.164 318.326 474.341 321.375 476.809L321.868 482.045H334.759L340.275 479.702V475.357C340.275 475.357 355.189 480.564 362.854 482.877C368.012 484.445 374.535 483.971 378.599 482.045C381.319 480.767 382.935 478.851 382.325 476.461ZM363.047 462.67C363.077 462.857 363.069 463.049 363.022 463.233C362.975 463.418 362.891 463.59 362.775 463.741C362.659 463.891 362.513 464.016 362.347 464.109C362.181 464.201 361.998 464.258 361.808 464.276C361.757 464.285 361.705 464.288 361.654 464.286C361.429 464.296 361.206 464.248 361.006 464.146C360.806 464.044 360.636 463.892 360.512 463.705C360.312 463.407 360.221 463.048 360.255 462.69C360.288 462.333 360.444 461.997 360.696 461.741C360.955 461.499 361.299 461.371 361.654 461.383C362.008 461.373 362.352 461.502 362.613 461.742C362.873 461.983 363.029 462.316 363.047 462.67ZM356.95 469.512C356.573 469.499 356.216 469.341 355.954 469.07C355.692 468.799 355.546 468.437 355.546 468.06C355.546 467.683 355.692 467.321 355.954 467.05C356.216 466.779 356.573 466.621 356.95 466.609C357.327 466.621 357.684 466.78 357.946 467.05C358.208 467.321 358.355 467.683 358.355 468.06C358.355 468.437 358.208 468.799 357.946 469.07C357.684 469.341 357.327 469.499 356.95 469.512ZM353.815 472.706C354.191 472.719 354.547 472.878 354.808 473.149C355.069 473.419 355.215 473.781 355.215 474.157C355.215 474.533 355.069 474.895 354.808 475.166C354.547 475.437 354.191 475.595 353.815 475.609C353.439 475.595 353.082 475.437 352.821 475.166C352.56 474.895 352.414 474.533 352.414 474.157C352.414 473.781 352.56 473.419 352.821 473.149C353.082 472.878 353.439 472.719 353.815 472.706Z" fill="#020202"/>
<path d="M321.237 273.422C321.613 273.409 321.97 273.25 322.232 272.979C322.493 272.709 322.639 272.347 322.639 271.97C322.639 271.594 322.493 271.232 322.232 270.961C321.97 270.69 321.613 270.532 321.237 270.519C320.861 270.532 320.504 270.69 320.243 270.961C319.981 271.232 319.835 271.594 319.835 271.97C319.835 272.347 319.981 272.709 320.243 272.979C320.504 273.25 320.861 273.409 321.237 273.422Z" fill="black"/>
<path d="M347.019 220.93C347.395 220.917 347.751 220.759 348.013 220.488C348.275 220.217 348.421 219.855 348.421 219.479C348.421 219.102 348.275 218.74 348.013 218.469C347.751 218.198 347.395 218.04 347.019 218.027C346.642 218.04 346.286 218.198 346.024 218.469C345.762 218.74 345.616 219.102 345.616 219.479C345.616 219.855 345.762 220.217 346.024 220.488C346.286 220.759 346.642 220.917 347.019 220.93Z" fill="black"/>
<path d="M343.07 229.059C343.446 229.046 343.803 228.888 344.065 228.617C344.326 228.346 344.472 227.984 344.472 227.608C344.472 227.231 344.326 226.869 344.065 226.598C343.803 226.328 343.446 226.169 343.07 226.156C342.694 226.169 342.337 226.328 342.076 226.598C341.814 226.869 341.668 227.231 341.668 227.608C341.668 227.984 341.814 228.346 342.076 228.617C342.337 228.888 342.694 229.046 343.07 229.059Z" fill="black"/>
<path d="M339.354 238.582C339.73 238.569 340.087 238.411 340.348 238.14C340.61 237.869 340.756 237.507 340.756 237.131C340.756 236.754 340.61 236.392 340.348 236.121C340.087 235.851 339.73 235.692 339.354 235.679C338.978 235.692 338.621 235.851 338.359 236.121C338.098 236.392 337.952 236.754 337.952 237.131C337.952 237.507 338.098 237.869 338.359 238.14C338.621 238.411 338.978 238.569 339.354 238.582Z" fill="black"/>
<path d="M334.476 249.266C334.853 249.253 335.209 249.095 335.471 248.824C335.732 248.553 335.879 248.191 335.879 247.815C335.879 247.438 335.732 247.076 335.471 246.806C335.209 246.535 334.853 246.376 334.476 246.363C334.1 246.376 333.743 246.535 333.482 246.806C333.22 247.076 333.074 247.438 333.074 247.815C333.074 248.191 333.22 248.553 333.482 248.824C333.743 249.095 334.1 249.253 334.476 249.266Z" fill="black"/>
<path d="M329.831 260.183C330.207 260.17 330.564 260.011 330.825 259.74C331.087 259.47 331.233 259.108 331.233 258.731C331.233 258.355 331.087 257.993 330.825 257.722C330.564 257.451 330.207 257.293 329.831 257.28C329.455 257.293 329.098 257.451 328.836 257.722C328.575 257.993 328.429 258.355 328.429 258.731C328.429 259.108 328.575 259.47 328.836 259.74C329.098 260.011 329.455 260.17 329.831 260.183Z" fill="black"/>
<path d="M362.813 182.374C363.189 182.361 363.546 182.202 363.807 181.932C364.069 181.661 364.215 181.299 364.215 180.922C364.215 180.546 364.069 180.184 363.807 179.913C363.546 179.642 363.189 179.484 362.813 179.471C362.436 179.484 362.08 179.642 361.818 179.913C361.556 180.184 361.41 180.546 361.41 180.922C361.41 181.299 361.556 181.661 361.818 181.932C362.08 182.202 362.436 182.361 362.813 182.374Z" fill="black"/>
<path d="M366.529 172.154C366.905 172.141 367.262 171.983 367.523 171.712C367.785 171.441 367.931 171.079 367.931 170.703C367.931 170.326 367.785 169.964 367.523 169.693C367.262 169.423 366.905 169.264 366.529 169.251C366.153 169.264 365.796 169.423 365.534 169.693C365.273 169.964 365.126 170.326 365.126 170.703C365.126 171.079 365.273 171.441 365.534 171.712C365.796 171.983 366.153 172.141 366.529 172.154Z" fill="black"/>
<path d="M367.69 161.702C368.067 161.689 368.423 161.531 368.685 161.26C368.946 160.989 369.093 160.627 369.093 160.251C369.093 159.874 368.946 159.512 368.685 159.242C368.423 158.971 368.067 158.812 367.69 158.799C367.314 158.812 366.957 158.971 366.696 159.242C366.434 159.512 366.288 159.874 366.288 160.251C366.288 160.627 366.434 160.989 366.696 161.26C366.957 161.531 367.314 161.689 367.69 161.702Z" fill="black"/>
<path d="M367.226 151.018C367.602 151.005 367.959 150.847 368.22 150.576C368.482 150.305 368.628 149.943 368.628 149.567C368.628 149.19 368.482 148.828 368.22 148.557C367.959 148.287 367.602 148.128 367.226 148.115C366.849 148.128 366.493 148.287 366.231 148.557C365.969 148.828 365.823 149.19 365.823 149.567C365.823 149.943 365.969 150.305 366.231 150.576C366.493 150.847 366.849 151.005 367.226 151.018Z" fill="black"/>
<path d="M364.671 141.728C365.047 141.715 365.404 141.556 365.665 141.285C365.927 141.014 366.073 140.652 366.073 140.276C366.073 139.899 365.927 139.537 365.665 139.267C365.404 138.996 365.047 138.837 364.671 138.824C364.294 138.837 363.938 138.996 363.676 139.267C363.415 139.537 363.268 139.899 363.268 140.276C363.268 140.652 363.415 141.014 363.676 141.285C363.938 141.556 364.294 141.715 364.671 141.728Z" fill="black"/>
<path d="M393.588 210.826C393.964 210.813 394.321 210.655 394.582 210.384C394.844 210.113 394.99 209.751 394.99 209.375C394.99 208.998 394.844 208.636 394.582 208.366C394.321 208.095 393.964 207.936 393.588 207.923C393.211 207.936 392.855 208.095 392.593 208.366C392.332 208.636 392.185 208.998 392.185 209.375C392.185 209.751 392.332 210.113 392.593 210.384C392.855 210.655 393.211 210.813 393.588 210.826Z" fill="black"/>
<path d="M395.678 219.536C396.054 219.523 396.411 219.365 396.673 219.094C396.934 218.823 397.081 218.461 397.081 218.085C397.081 217.708 396.934 217.346 396.673 217.076C396.411 216.805 396.054 216.646 395.678 216.633C395.302 216.646 394.945 216.805 394.684 217.076C394.422 217.346 394.276 217.708 394.276 218.085C394.276 218.461 394.422 218.823 394.684 219.094C394.945 219.365 395.302 219.523 395.678 219.536Z" fill="black"/>
<path d="M398.117 230.337C398.493 230.324 398.85 230.165 399.111 229.894C399.373 229.624 399.519 229.262 399.519 228.885C399.519 228.509 399.373 228.147 399.111 227.876C398.85 227.605 398.493 227.447 398.117 227.434C397.741 227.447 397.384 227.605 397.122 227.876C396.861 228.147 396.715 228.509 396.715 228.885C396.715 229.262 396.861 229.624 397.122 229.894C397.384 230.165 397.741 230.324 398.117 230.337Z" fill="black"/>
<path d="M400.73 242.182C401.106 242.169 401.463 242.011 401.724 241.74C401.986 241.469 402.132 241.107 402.132 240.731C402.132 240.354 401.986 239.992 401.724 239.722C401.463 239.451 401.106 239.292 400.73 239.279C400.354 239.292 399.997 239.451 399.735 239.722C399.474 239.992 399.328 240.354 399.328 240.731C399.328 241.107 399.474 241.469 399.735 241.74C399.997 242.011 400.354 242.169 400.73 242.182Z" fill="black"/>
<path d="M402.82 252.983C403.197 252.97 403.553 252.811 403.815 252.54C404.076 252.269 404.223 251.908 404.223 251.531C404.223 251.154 404.076 250.793 403.815 250.522C403.553 250.251 403.197 250.092 402.82 250.079C402.444 250.092 402.087 250.251 401.826 250.522C401.564 250.793 401.418 251.154 401.418 251.531C401.418 251.908 401.564 252.269 401.826 252.54C402.087 252.811 402.444 252.97 402.82 252.983Z" fill="black"/>
<path d="M405.433 263.957C405.81 263.944 406.166 263.786 406.428 263.515C406.689 263.244 406.836 262.882 406.836 262.506C406.836 262.129 406.689 261.767 406.428 261.496C406.166 261.226 405.81 261.067 405.433 261.054C405.057 261.067 404.7 261.226 404.439 261.496C404.177 261.767 404.031 262.129 404.031 262.506C404.031 262.882 404.177 263.244 404.439 263.515C404.7 263.786 405.057 263.944 405.433 263.957Z" fill="black"/>
<path d="M407.524 273.886C407.9 273.873 408.256 273.715 408.518 273.444C408.78 273.173 408.926 272.811 408.926 272.435C408.926 272.058 408.78 271.696 408.518 271.426C408.256 271.155 407.9 270.996 407.524 270.983C407.147 270.996 406.791 271.155 406.529 271.426C406.268 271.696 406.121 272.058 406.121 272.435C406.121 272.811 406.268 273.173 406.529 273.444C406.791 273.715 407.147 273.873 407.524 273.886Z" fill="black"/>
<path d="M409.788 284.338C410.165 284.325 410.521 284.167 410.783 283.896C411.044 283.625 411.19 283.263 411.19 282.887C411.19 282.51 411.044 282.148 410.783 281.878C410.521 281.607 410.165 281.448 409.788 281.435C409.412 281.448 409.055 281.607 408.794 281.878C408.532 282.148 408.386 282.51 408.386 282.887C408.386 283.263 408.532 283.625 408.794 283.896C409.055 284.167 409.412 284.325 409.788 284.338Z" fill="black"/>
<path d="M411.879 294.268C412.255 294.255 412.611 294.096 412.873 293.825C413.135 293.555 413.281 293.193 413.281 292.816C413.281 292.44 413.135 292.078 412.873 291.807C412.611 291.536 412.255 291.378 411.879 291.365C411.502 291.378 411.146 291.536 410.884 291.807C410.623 292.078 410.476 292.44 410.476 292.816C410.476 293.193 410.623 293.555 410.884 293.825C411.146 294.096 411.502 294.255 411.879 294.268Z" fill="black"/>
<path d="M414.143 304.197C414.52 304.184 414.876 304.026 415.138 303.755C415.399 303.484 415.546 303.122 415.546 302.746C415.546 302.369 415.399 302.007 415.138 301.736C414.876 301.466 414.52 301.307 414.143 301.294C413.767 301.307 413.41 301.466 413.149 301.736C412.887 302.007 412.741 302.369 412.741 302.746C412.741 303.122 412.887 303.484 413.149 303.755C413.41 304.026 413.767 304.184 414.143 304.197Z" fill="black"/>
<path d="M416.582 314.126C416.958 314.113 417.315 313.955 417.576 313.684C417.838 313.413 417.984 313.051 417.984 312.675C417.984 312.298 417.838 311.936 417.576 311.666C417.315 311.395 416.958 311.236 416.582 311.223C416.206 311.236 415.849 311.395 415.588 311.666C415.326 311.936 415.18 312.298 415.18 312.675C415.18 313.051 415.326 313.413 415.588 313.684C415.849 313.955 416.206 314.113 416.582 314.126Z" fill="black"/>
<path d="M419.718 323.533C420.094 323.52 420.45 323.362 420.712 323.091C420.974 322.82 421.12 322.458 421.12 322.082C421.12 321.705 420.974 321.343 420.712 321.072C420.45 320.802 420.094 320.643 419.718 320.63C419.341 320.643 418.985 320.802 418.723 321.072C418.462 321.343 418.315 321.705 418.315 322.082C418.315 322.458 418.462 322.82 418.723 323.091C418.985 323.362 419.341 323.52 419.718 323.533Z" fill="black"/>
<path d="M283.03 445.879C283.406 445.866 283.762 445.707 284.024 445.436C284.286 445.166 284.432 444.804 284.432 444.427C284.432 444.051 284.286 443.689 284.024 443.418C283.762 443.147 283.406 442.989 283.03 442.976C282.653 442.989 282.297 443.147 282.035 443.418C281.773 443.689 281.627 444.051 281.627 444.427C281.627 444.804 281.773 445.166 282.035 445.436C282.297 445.707 282.653 445.866 283.03 445.879Z" fill="black"/>
<path d="M288.023 437.053C288.4 437.04 288.756 436.881 289.018 436.61C289.279 436.339 289.426 435.978 289.426 435.601C289.426 435.225 289.279 434.863 289.018 434.592C288.756 434.321 288.4 434.162 288.023 434.149C287.647 434.162 287.29 434.321 287.029 434.592C286.767 434.863 286.621 435.225 286.621 435.601C286.621 435.978 286.767 436.339 287.029 436.61C287.29 436.881 287.647 437.04 288.023 437.053Z" fill="black"/>
<path d="M294.875 441.93C295.251 441.917 295.608 441.759 295.869 441.488C296.131 441.217 296.277 440.855 296.277 440.479C296.277 440.102 296.131 439.74 295.869 439.47C295.608 439.199 295.251 439.04 294.875 439.027C294.499 439.04 294.142 439.199 293.881 439.47C293.619 439.74 293.473 440.102 293.473 440.479C293.473 440.855 293.619 441.217 293.881 441.488C294.142 441.759 294.499 441.917 294.875 441.93Z" fill="black"/>
<path d="M300.798 432.407C301.174 432.394 301.531 432.236 301.792 431.965C302.054 431.694 302.2 431.332 302.2 430.956C302.2 430.579 302.054 430.217 301.792 429.947C301.531 429.676 301.174 429.517 300.798 429.504C300.421 429.517 300.065 429.676 299.803 429.947C299.542 430.217 299.396 430.579 299.396 430.956C299.396 431.332 299.542 431.694 299.803 431.965C300.065 432.236 300.421 432.394 300.798 432.407Z" fill="black"/>
<path d="M307.998 438.911C308.374 438.898 308.731 438.739 308.993 438.468C309.254 438.198 309.4 437.836 309.4 437.459C309.4 437.083 309.254 436.721 308.993 436.45C308.731 436.179 308.374 436.021 307.998 436.008C307.622 436.021 307.265 436.179 307.003 436.45C306.742 436.721 306.596 437.083 306.596 437.459C306.596 437.836 306.742 438.198 307.003 438.468C307.265 438.739 307.622 438.898 307.998 438.911Z" fill="black"/>
<path d="M313.805 430.782C314.181 430.769 314.538 430.61 314.799 430.339C315.061 430.068 315.207 429.707 315.207 429.33C315.207 428.954 315.061 428.592 314.799 428.321C314.538 428.05 314.181 427.891 313.805 427.878C313.428 427.891 313.072 428.05 312.81 428.321C312.548 428.592 312.402 428.954 312.402 429.33C312.402 429.707 312.548 430.068 312.81 430.339C313.072 430.61 313.428 430.769 313.805 430.782Z" fill="black"/>
<path d="M320.656 436.821C321.033 436.808 321.389 436.649 321.651 436.378C321.913 436.107 322.059 435.745 322.059 435.369C322.059 434.992 321.913 434.63 321.651 434.36C321.389 434.089 321.033 433.93 320.656 433.917C320.28 433.93 319.924 434.089 319.662 434.36C319.4 434.63 319.254 434.992 319.254 435.369C319.254 435.745 319.4 436.107 319.662 436.378C319.924 436.649 320.28 436.808 320.656 436.821Z" fill="black"/>
<path d="M327.16 428.343C327.536 428.33 327.893 428.171 328.154 427.9C328.416 427.629 328.562 427.268 328.562 426.891C328.562 426.515 328.416 426.153 328.154 425.882C327.893 425.611 327.536 425.452 327.16 425.439C326.784 425.452 326.427 425.611 326.165 425.882C325.904 426.153 325.758 426.515 325.758 426.891C325.758 427.268 325.904 427.629 326.165 427.9C326.427 428.171 326.784 428.33 327.16 428.343Z" fill="black"/>
<path d="M333.896 435.427C334.272 435.414 334.629 435.255 334.89 434.985C335.152 434.714 335.298 434.352 335.298 433.975C335.298 433.599 335.152 433.237 334.89 432.966C334.629 432.695 334.272 432.537 333.896 432.524C333.519 432.537 333.163 432.695 332.901 432.966C332.639 433.237 332.493 433.599 332.493 433.975C332.493 434.352 332.639 434.714 332.901 434.985C333.163 435.255 333.519 435.414 333.896 435.427Z" fill="black"/>
<path d="M339.238 427.182C339.614 427.169 339.971 427.01 340.232 426.739C340.494 426.468 340.64 426.107 340.64 425.73C340.64 425.353 340.494 424.992 340.232 424.721C339.971 424.45 339.614 424.291 339.238 424.278C338.861 424.291 338.505 424.45 338.243 424.721C337.982 424.992 337.835 425.353 337.835 425.73C337.835 426.107 337.982 426.468 338.243 426.739C338.505 427.01 338.861 427.169 339.238 427.182Z" fill="black"/>
<path d="M345.973 434.498C346.35 434.485 346.706 434.326 346.968 434.055C347.23 433.785 347.376 433.423 347.376 433.046C347.376 432.67 347.23 432.308 346.968 432.037C346.706 431.766 346.35 431.607 345.973 431.594C345.597 431.607 345.24 431.766 344.979 432.037C344.717 432.308 344.571 432.67 344.571 433.046C344.571 433.423 344.717 433.785 344.979 434.055C345.24 434.326 345.597 434.485 345.973 434.498Z" fill="black"/>
<path d="M352.709 429.272C353.085 429.259 353.442 429.1 353.704 428.829C353.965 428.559 354.111 428.197 354.111 427.82C354.111 427.444 353.965 427.082 353.704 426.811C353.442 426.54 353.085 426.382 352.709 426.369C352.333 426.382 351.976 426.54 351.715 426.811C351.453 427.082 351.307 427.444 351.307 427.82C351.307 428.197 351.453 428.559 351.715 428.829C351.976 429.1 352.333 429.259 352.709 429.272Z" fill="black"/>
<path d="M358.516 436.356C358.892 436.343 359.249 436.184 359.51 435.913C359.772 435.643 359.918 435.281 359.918 434.904C359.918 434.528 359.772 434.166 359.51 433.895C359.249 433.624 358.892 433.466 358.516 433.453C358.139 433.466 357.783 433.624 357.521 433.895C357.26 434.166 357.113 434.528 357.113 434.904C357.113 435.281 357.26 435.643 357.521 435.913C357.783 436.184 358.139 436.343 358.516 436.356Z" fill="black"/>
<path d="M365.6 431.246C365.976 431.233 366.333 431.074 366.594 430.804C366.856 430.533 367.002 430.171 367.002 429.794C367.002 429.418 366.856 429.056 366.594 428.785C366.333 428.514 365.976 428.356 365.6 428.343C365.223 428.356 364.867 428.514 364.605 428.785C364.344 429.056 364.197 429.418 364.197 429.794C364.197 430.171 364.344 430.533 364.605 430.804C364.867 431.074 365.223 431.233 365.6 431.246Z" fill="black"/>
<path d="M371.523 438.214C371.899 438.201 372.255 438.042 372.517 437.772C372.779 437.501 372.925 437.139 372.925 436.762C372.925 436.386 372.779 436.024 372.517 435.753C372.255 435.482 371.899 435.324 371.523 435.311C371.146 435.324 370.79 435.482 370.528 435.753C370.267 436.024 370.12 436.386 370.12 436.762C370.12 437.139 370.267 437.501 370.528 437.772C370.79 438.042 371.146 438.201 371.523 438.214Z" fill="black"/>
<path d="M377.91 432.524C378.286 432.511 378.643 432.352 378.904 432.081C379.166 431.81 379.312 431.449 379.312 431.072C379.312 430.695 379.166 430.334 378.904 430.063C378.643 429.792 378.286 429.633 377.91 429.62C377.534 429.633 377.177 429.792 376.915 430.063C376.654 430.334 376.508 430.695 376.508 431.072C376.508 431.449 376.654 431.81 376.915 432.081C377.177 432.352 377.534 432.511 377.91 432.524Z" fill="black"/>
<path d="M383.716 438.795C384.093 438.782 384.449 438.623 384.711 438.352C384.973 438.082 385.119 437.72 385.119 437.343C385.119 436.967 384.973 436.605 384.711 436.334C384.449 436.063 384.093 435.905 383.716 435.892C383.34 435.905 382.984 436.063 382.722 436.334C382.46 436.605 382.314 436.967 382.314 437.343C382.314 437.72 382.46 438.082 382.722 438.352C382.984 438.623 383.34 438.782 383.716 438.795Z" fill="black"/>
<path d="M390.452 432.872C390.828 432.859 391.185 432.7 391.447 432.43C391.708 432.159 391.854 431.797 391.854 431.42C391.854 431.044 391.708 430.682 391.447 430.411C391.185 430.14 390.828 429.982 390.452 429.969C390.076 429.982 389.719 430.14 389.458 430.411C389.196 430.682 389.05 431.044 389.05 431.42C389.05 431.797 389.196 432.159 389.458 432.43C389.719 432.7 390.076 432.859 390.452 432.872Z" fill="black"/>
<path d="M396.375 439.375C396.751 439.362 397.108 439.204 397.369 438.933C397.631 438.662 397.777 438.3 397.777 437.924C397.777 437.547 397.631 437.185 397.369 436.915C397.108 436.644 396.751 436.485 396.375 436.472C395.999 436.485 395.642 436.644 395.38 436.915C395.119 437.185 394.973 437.547 394.973 437.924C394.973 438.3 395.119 438.662 395.38 438.933C395.642 439.204 395.999 439.362 396.375 439.375Z" fill="black"/>
<path d="M402.762 433.104C403.139 433.091 403.495 432.933 403.757 432.662C404.018 432.391 404.165 432.029 404.165 431.653C404.165 431.276 404.018 430.914 403.757 430.643C403.495 430.373 403.139 430.214 402.762 430.201C402.386 430.214 402.029 430.373 401.768 430.643C401.506 430.914 401.36 431.276 401.36 431.653C401.36 432.029 401.506 432.391 401.768 432.662C402.029 432.933 402.386 433.091 402.762 433.104Z" fill="black"/>
<path d="M407.872 440.072C408.248 440.059 408.605 439.901 408.866 439.63C409.128 439.359 409.274 438.997 409.274 438.621C409.274 438.244 409.128 437.882 408.866 437.611C408.605 437.341 408.248 437.182 407.872 437.169C407.496 437.182 407.139 437.341 406.878 437.611C406.616 437.882 406.47 438.244 406.47 438.621C406.47 438.997 406.616 439.359 406.878 439.63C407.139 439.901 407.496 440.059 407.872 440.072Z" fill="black"/>
<path d="M349.303 79.7708C349.594 77.4304 350.066 75.116 350.714 72.8484C351.32 70.5689 352.104 68.3405 353.057 66.1833C352.768 68.5242 352.296 70.8388 351.646 73.106C351.038 75.3847 350.254 77.613 349.303 79.7708Z" fill="black"/>
<path d="M354.916 81.1646C355.958 79.3906 357.155 77.7126 358.494 76.1502C359.799 74.5599 361.245 73.0899 362.813 71.7578C361.772 73.5329 360.575 75.211 359.234 76.7721C357.928 78.361 356.482 79.8309 354.916 81.1646Z" fill="black"/>
<path d="M344.225 79.7707C343.419 77.8342 342.783 75.8311 342.324 73.7843C341.823 71.7473 341.502 69.6702 341.365 67.5769C342.173 69.5128 342.809 71.516 343.266 73.5634C343.765 75.6008 344.086 77.6777 344.225 79.7707Z" fill="black"/>
</svg>
