<svg width="700" height="550" viewBox="0 0 700 550" fill="none" xmlns="http://www.w3.org/2000/svg">
<path d="M366.527 89.2842C365.904 92.8386 365.786 96.4631 366.175 100.051C366.181 100.097 366.177 100.143 366.163 100.188C366.149 100.232 366.126 100.273 366.096 100.308L366.084 100.321C365.423 101.071 364.788 101.858 364.176 102.65C363.557 103.426 362.992 104.245 362.485 105.1C362.242 105.504 362.047 105.934 361.902 106.383C361.833 106.552 361.811 106.737 361.838 106.918C361.865 107.099 361.941 107.269 362.056 107.411C362.379 107.681 362.763 107.867 363.176 107.953C363.588 108.038 364.015 108.02 364.418 107.9C364.545 107.875 364.676 107.902 364.783 107.974C364.89 108.047 364.963 108.158 364.988 108.285L364.995 108.341L364.996 108.354C365.09 109.706 365.344 111.041 365.754 112.333C366.162 113.627 366.76 114.853 367.528 115.971C368.296 117.082 369.271 118.034 370.4 118.776C371.54 119.521 372.803 120.058 374.131 120.363L374.093 120.358C374.77 120.43 375.438 120.576 376.084 120.794C376.732 121.006 377.342 121.32 377.892 121.724C378.455 122.11 378.89 122.655 379.141 123.289C379.392 123.924 379.448 124.619 379.302 125.285C379.356 124.634 379.246 123.979 378.981 123.381C378.687 122.812 378.246 122.333 377.704 121.993C377.161 121.652 376.567 121.4 375.945 121.245C375.329 121.073 374.697 120.965 374.059 120.922L374.053 120.922L374.02 120.917C372.601 120.657 371.238 120.147 369.997 119.411C368.745 118.665 367.666 117.662 366.83 116.469C365.993 115.29 365.336 113.992 364.881 112.619C364.41 111.25 364.128 109.823 364.042 108.378L364.62 108.832C364.061 108.938 363.489 108.944 362.928 108.852C362.308 108.766 361.743 108.453 361.341 107.973C361.134 107.715 361.001 107.407 360.954 107.08C360.92 106.914 360.92 106.742 360.955 106.576C360.971 106.427 361.003 106.279 361.05 106.136C361.221 105.62 361.451 105.127 361.737 104.665C362.837 102.924 364.125 101.308 365.577 99.8477L365.485 100.118C365.351 98.2947 365.369 96.4632 365.539 94.6427C365.704 92.8302 366.035 91.0366 366.527 89.2842Z" fill="#020202"/>
<path d="M379.342 115.995C379.641 115.477 379.907 114.995 380.163 114.51C380.409 114.023 380.66 113.549 380.864 113.053C381.08 112.563 381.287 112.066 381.475 111.551C381.676 111.038 381.842 110.509 382.089 109.956C382.37 111.124 382.251 112.353 381.748 113.445C381.505 113.992 381.178 114.498 380.778 114.944C380.389 115.402 379.897 115.762 379.342 115.995Z" fill="#020202"/>
<path d="M368.617 101.885C368.994 101.871 369.35 101.713 369.612 101.442C369.874 101.171 370.02 100.809 370.02 100.433C370.02 100.056 369.874 99.6945 369.612 99.4237C369.35 99.1529 368.994 98.9942 368.617 98.9812C368.241 98.9942 367.885 99.1529 367.623 99.4237C367.361 99.6945 367.215 100.056 367.215 100.433C367.215 100.809 367.361 101.171 367.623 101.442C367.885 101.713 368.241 101.871 368.617 101.885Z" fill="#020202"/>
<path d="M364.025 106.766C364.213 106.76 364.391 106.68 364.522 106.545C364.653 106.41 364.726 106.229 364.726 106.04C364.726 105.852 364.653 105.671 364.522 105.536C364.391 105.4 364.213 105.321 364.025 105.314C363.837 105.321 363.658 105.4 363.527 105.536C363.397 105.671 363.323 105.852 363.323 106.04C363.323 106.229 363.397 106.41 363.527 106.545C363.658 106.68 363.837 106.76 364.025 106.766Z" fill="#020202"/>
<path d="M365.688 97.6483C366.029 97.3206 366.435 97.0684 366.88 96.9082C367.318 96.7389 367.779 96.6382 368.247 96.6095C368.728 96.5851 369.209 96.65 369.666 96.8009C370.132 96.9542 370.537 97.2508 370.824 97.6483C370.338 97.5888 369.932 97.5572 369.522 97.5421C369.111 97.5445 368.708 97.5495 368.298 97.5755C367.43 97.6456 366.559 97.6699 365.688 97.6483Z" fill="#020202"/>
<path d="M392.43 110.592C393.222 112.218 393.889 113.828 394.727 115.327C395.119 116.078 395.591 116.783 396.135 117.432C396.677 118.1 397.378 118.62 398.173 118.946C397.223 118.97 396.302 118.62 395.608 117.972C394.902 117.36 394.317 116.622 393.881 115.796C393.446 114.994 393.101 114.146 392.854 113.268C392.596 112.398 392.454 111.499 392.43 110.592Z" fill="#020202"/>
<path d="M349.886 166.89C350.325 165.187 350.851 163.513 351.402 161.843C351.944 160.171 352.552 158.52 353.226 156.89C353.888 155.256 354.619 153.645 355.443 152.065C356.242 150.429 357.272 148.914 358.499 147.568L358.278 148.058C358.515 145.36 359.113 142.705 360.058 140.167C360.975 137.604 362.327 135.219 364.056 133.117C365.797 131.008 367.963 129.288 370.412 128.07C372.838 126.89 375.458 126.157 378.145 125.907L377.949 125.984C380.891 124.028 383.959 122.269 387.132 120.717C388.721 119.926 390.376 119.274 392.078 118.77C393.82 118.18 395.687 118.063 397.489 118.429L397.377 118.41C399.737 118.652 401.998 119.486 403.951 120.833C405.906 122.145 407.604 123.805 408.959 125.73C411.541 129.618 413.276 134.006 414.052 138.608C414.239 139.748 414.517 140.88 414.628 142.028L415.016 145.418C415.266 147.679 415.449 149.947 415.621 152.217C415.797 154.488 415.893 156.766 415.949 159.053C416.034 161.368 415.944 163.687 415.679 165.989L414.628 164.981L421.792 163.891L421.149 164.696C421.062 163.056 420.86 161.365 420.604 159.711C420.347 158.052 419.969 156.414 419.472 154.811C419.001 153.205 418.336 151.662 417.49 150.218C416.656 148.761 415.48 147.53 414.062 146.63C414.051 146.624 414.041 146.616 414.034 146.606C414.026 146.596 414.02 146.584 414.016 146.572C414.013 146.56 414.012 146.547 414.013 146.534C414.015 146.522 414.019 146.509 414.025 146.498C414.037 146.477 414.057 146.462 414.08 146.454C414.103 146.447 414.128 146.448 414.15 146.457C415.713 147.241 417.049 148.414 418.028 149.863C419.038 151.283 419.844 152.838 420.425 154.481C421.035 156.104 421.525 157.769 421.891 159.464C422.277 161.16 422.546 162.88 422.696 164.612C422.711 164.796 422.658 164.98 422.547 165.127C422.435 165.274 422.273 165.375 422.092 165.411L422.053 165.418L414.933 166.766C414.799 166.792 414.66 166.786 414.529 166.749C414.397 166.713 414.276 166.647 414.174 166.556C414.072 166.465 413.992 166.352 413.94 166.226C413.889 166.099 413.867 165.963 413.876 165.827L413.882 165.758C414.091 161.293 413.982 156.817 413.557 152.367C413.402 150.116 413.191 147.867 412.997 145.617L412.68 142.244C412.597 141.131 412.349 140.05 412.192 138.95C412.027 137.853 411.796 136.768 411.5 135.699C411.359 135.164 411.254 134.615 411.083 134.091L410.546 132.525C409.844 130.439 408.89 128.446 407.705 126.592C406.51 124.757 405.009 123.141 403.268 121.815C401.539 120.48 399.501 119.605 397.343 119.27L397.282 119.262L397.231 119.25C395.59 118.837 393.865 118.9 392.258 119.43C390.584 119.895 388.954 120.505 387.386 121.254C385.811 122.006 384.274 122.839 382.784 123.749C381.304 124.673 379.829 125.629 378.448 126.677C378.399 126.715 378.341 126.739 378.28 126.75L378.252 126.754C375.716 127.139 373.269 127.975 371.027 129.222C368.836 130.492 366.912 132.173 365.359 134.173C363.804 136.179 362.551 138.401 361.639 140.77C360.7 143.138 360.079 145.621 359.795 148.153L359.791 148.188C359.773 148.36 359.696 148.521 359.574 148.642C358.429 149.88 357.435 151.249 356.613 152.72C355.735 154.2 354.932 155.742 354.193 157.317C352.716 160.467 351.342 163.677 350.07 166.948C350.062 166.971 350.044 166.99 350.022 167.001C350 167.012 349.974 167.014 349.95 167.006C349.927 166.999 349.907 166.982 349.895 166.961C349.883 166.939 349.88 166.913 349.886 166.889V166.89Z" fill="#020202"/>
<path d="M366.972 159.592C367.425 162.745 367.841 165.902 368.261 169.059C368.688 172.215 369.097 175.373 369.487 178.533C369.5 178.633 369.483 178.734 369.438 178.825C369.394 178.916 369.324 178.992 369.237 179.044C369.151 179.095 369.051 179.121 368.95 179.117C368.849 179.113 368.751 179.081 368.669 179.022L368.652 179.011C364.544 176.039 360.246 173.339 355.785 170.93C355.229 170.639 354.665 170.367 354.101 170.107L352.351 169.348C351.153 168.812 349.994 168.195 348.882 167.5C346.734 166.077 344.661 164.544 342.672 162.907C341.689 162.143 340.661 161.439 339.592 160.801C338.498 160.143 337.416 159.487 336.321 158.891C335.266 158.281 334.154 157.775 333.001 157.38C331.948 156.989 330.805 156.909 329.708 157.15L328.78 157.412C328.441 157.497 328.098 157.562 327.752 157.608C327.081 157.697 326.422 157.75 325.768 157.776C324.461 157.829 323.167 157.821 321.879 157.775C319.302 157.659 316.754 157.44 314.195 157.145L314.424 157.131L313.524 157.373C313.224 157.454 312.964 157.587 312.679 157.689C312.206 157.869 311.807 158.2 311.542 158.631C311.216 159.344 312.125 160.541 313.028 161.238L312.792 161.14C314.418 161.427 316.066 161.675 317.708 161.858C318.529 161.946 319.353 162.025 320.169 162.052C320.929 162.118 321.695 162.055 322.433 161.863L322.525 161.827C322.602 161.798 322.685 161.794 322.764 161.815C322.843 161.837 322.913 161.883 322.965 161.946C323.016 162.01 323.046 162.088 323.05 162.17C323.054 162.252 323.032 162.332 322.987 162.401C322.713 162.813 322.359 163.164 321.945 163.435C321.573 163.701 321.174 163.926 320.753 164.105C319.933 164.459 319.076 164.721 318.198 164.885C316.467 165.173 314.709 165.266 312.958 165.163C312.088 165.11 311.217 165.067 310.356 164.945C309.491 164.854 308.63 164.737 307.777 164.576C306.067 164.352 304.358 163.847 302.706 163.659C301.884 163.568 301.052 163.613 300.244 163.789C299.899 163.856 299.591 164.047 299.376 164.324C299.311 164.478 299.28 164.644 299.286 164.811C299.292 164.978 299.334 165.141 299.41 165.29C300.116 166.784 301.326 167.982 302.827 168.675C303.573 169.033 304.371 169.274 305.191 169.389C305.998 169.496 306.897 169.516 307.745 169.583L312.904 169.921C312.989 169.927 313.07 169.955 313.141 170.002C313.212 170.049 313.268 170.114 313.306 170.191C313.343 170.267 313.36 170.352 313.354 170.437C313.348 170.522 313.32 170.603 313.272 170.674L313.26 170.692C312.951 171.063 312.73 171.499 312.611 171.966C312.493 172.434 312.48 172.922 312.575 173.395C312.77 173.782 313.11 174.076 313.521 174.213C313.747 174.298 313.998 174.358 314.24 174.424L315.021 174.534L315.063 174.54C315.1 174.545 315.136 174.555 315.171 174.57C315.655 174.757 316.093 175.046 316.456 175.417C316.67 175.629 316.835 175.885 316.938 176.169C317.041 176.452 317.08 176.754 317.052 177.054C317.022 177.342 316.936 177.622 316.799 177.877C316.774 177.933 316.728 178.014 316.717 178.048C316.715 178.069 316.711 178.09 316.704 178.11C316.691 178.127 316.683 178.147 316.679 178.168C316.675 178.188 316.676 178.21 316.681 178.23C316.708 178.491 316.836 178.73 317.038 178.897C317.577 179.411 318.235 179.782 318.954 179.977C319.695 180.201 320.47 180.289 321.243 180.238C322.006 180.197 322.753 180.01 323.446 179.688C324.176 179.346 324.914 178.918 325.636 178.492C327.085 177.628 328.505 176.69 329.911 175.732L332.008 174.272C332.846 173.614 333.897 173.285 334.961 173.349C336.025 173.412 337.029 173.864 337.783 174.619L339.665 176.357C342.184 178.668 344.733 180.943 347.314 183.183C352.477 187.658 357.763 191.991 363.219 196.058C365.933 198.091 368.752 199.978 371.665 201.712C373.101 202.565 374.591 203.321 376.127 203.977C377.558 204.64 379.103 205.02 380.678 205.097H380.683C380.734 205.096 380.786 205.099 380.836 205.103C383.115 205.334 385.418 205.112 387.612 204.452C389.775 203.833 391.658 202.485 392.941 200.637C394.138 198.689 394.757 196.441 394.725 194.156C394.739 193.006 394.659 191.8 394.591 190.581L394.429 186.946C394.229 182.099 394.071 177.252 393.955 172.406C393.869 167.558 393.81 162.71 393.779 157.863C393.779 157.838 393.789 157.813 393.807 157.795C393.824 157.777 393.848 157.766 393.874 157.766C393.899 157.765 393.923 157.774 393.942 157.791C393.961 157.809 393.972 157.832 393.973 157.858C394.225 162.697 394.508 167.535 394.823 172.37C395.105 177.206 395.407 182.041 395.762 186.869L396.04 190.489C396.129 191.687 396.237 192.899 396.247 194.172C396.325 196.762 395.662 199.32 394.336 201.546C392.876 203.749 390.701 205.381 388.179 206.169C385.736 206.969 383.156 207.261 380.596 207.027L380.753 207.034C378.896 206.982 377.069 206.559 375.378 205.789C373.759 205.107 372.187 204.318 370.672 203.427C367.689 201.669 364.801 199.754 362.02 197.69C356.444 193.626 351.198 189.172 346.053 184.62C343.484 182.34 340.946 180.026 338.442 177.677L336.569 175.908C336.114 175.428 335.497 175.135 334.838 175.087C334.167 175.044 333.504 175.249 332.975 175.664L330.826 177.1C329.383 178.043 327.925 178.966 326.414 179.829C325.653 180.257 324.9 180.678 324.072 181.048C323.201 181.435 322.263 181.651 321.31 181.685C320.368 181.72 319.426 181.585 318.532 181.285C317.598 180.997 316.753 180.476 316.077 179.771C315.864 179.561 315.696 179.31 315.583 179.033C315.471 178.756 315.416 178.459 315.422 178.16C315.421 177.988 315.459 177.818 315.534 177.662L315.636 177.425L315.695 177.307C315.767 177.188 315.815 177.056 315.835 176.918C315.963 176.484 315.388 175.92 314.758 175.643L314.907 175.678L314 175.523C313.691 175.441 313.388 175.341 313.09 175.225C312.424 174.962 311.888 174.446 311.6 173.789C311.373 173.134 311.382 172.42 311.625 171.77C311.825 171.177 312.116 170.618 312.488 170.113L312.844 170.884L307.675 170.414C306.805 170.322 305.973 170.289 305.071 170.148C304.183 169.996 303.321 169.716 302.512 169.318C300.855 168.536 299.532 167.188 298.781 165.516C298.672 165.275 298.619 165.013 298.624 164.749C298.63 164.485 298.694 164.226 298.812 163.989C299.113 163.565 299.564 163.272 300.074 163.168C300.956 162.978 301.864 162.935 302.76 163.041C304.538 163.254 306.151 163.792 307.871 163.991C308.718 164.139 309.569 164.245 310.423 164.323C311.274 164.433 312.129 164.465 312.983 164.506C314.683 164.586 316.385 164.475 318.06 164.177C318.878 164.013 319.676 163.759 320.438 163.419C321.161 163.127 321.793 162.647 322.271 162.03L322.825 162.568C322.388 162.76 321.92 162.87 321.443 162.891C321.014 162.929 320.583 162.944 320.152 162.937C319.299 162.936 318.458 162.881 317.618 162.818C315.938 162.683 314.277 162.487 312.608 162.246C312.522 162.233 312.44 162.199 312.37 162.147C311.778 161.719 311.26 161.196 310.837 160.6C310.602 160.274 310.429 159.908 310.328 159.52C310.213 159.078 310.232 158.612 310.383 158.18C310.738 157.435 311.351 156.844 312.108 156.516C312.753 156.219 313.423 155.981 314.11 155.803C314.17 155.786 314.233 155.779 314.295 155.784L314.339 155.788C316.858 156.002 319.402 156.14 321.925 156.182C323.187 156.215 324.446 156.209 325.687 156.147C326.308 156.117 326.92 156.059 327.513 155.976C327.799 155.935 328.082 155.879 328.361 155.806L329.272 155.54C330.675 155.201 332.146 155.275 333.508 155.752C334.776 156.169 335.999 156.709 337.161 157.365C338.299 158.003 339.391 158.684 340.475 159.353C341.589 160.037 342.66 160.788 343.682 161.602C345.613 163.232 347.627 164.76 349.715 166.183C350.759 166.852 351.848 167.449 352.973 167.969L354.725 168.753C355.315 169.034 355.897 169.324 356.468 169.631C358.724 170.87 360.916 172.224 363.034 173.687C365.156 175.129 367.234 176.616 369.279 178.169L368.444 178.647C368.133 175.479 367.845 172.307 367.58 169.134C367.303 165.961 367.023 162.789 366.779 159.613C366.777 159.588 366.785 159.563 366.801 159.544C366.817 159.524 366.84 159.512 366.865 159.509C366.89 159.506 366.915 159.514 366.935 159.529C366.955 159.544 366.968 159.567 366.972 159.592V159.592Z" fill="#020202"/>
<path d="M368.966 178.59C368.966 178.59 379.267 186.139 379.342 188.926" stroke="#020202" stroke-width="0.96777" stroke-linecap="round" stroke-linejoin="round"/>
<path d="M405.128 206.146C408.327 203.643 411.632 201.301 414.965 199.017C416.508 197.946 417.737 196.483 418.524 194.777C418.915 193.939 419.19 193.051 419.34 192.138C419.462 191.173 419.534 190.202 419.557 189.229C419.784 185.235 419.786 181.232 419.564 177.238C419.363 173.227 418.696 169.253 417.577 165.396C419.435 169.052 420.617 173.014 421.067 177.09C421.574 181.149 421.716 185.245 421.489 189.329C421.448 190.377 421.352 191.422 421.202 192.46C421.014 193.543 420.666 194.592 420.169 195.573C419.183 197.53 417.659 199.165 415.775 200.285C412.282 202.334 408.757 204.318 405.128 206.146Z" fill="#020202"/>
<path d="M389.3 389.216C387.616 379.79 386.309 370.303 385.38 360.754C384.44 351.207 384.075 341.612 384.287 332.021C384.39 322.456 385.7 312.941 388.187 303.704C387.142 303.53 387.519 303.027 383.319 300.743C376.942 297.288 351.189 303.462 351.189 303.462L351.218 304.43C351.218 304.43 343.96 424.927 341.695 427.714C341.695 427.714 385.322 431.644 395.494 423.282V417.243C392.997 408.011 390.974 398.643 389.3 389.216ZM345.973 425.595C345.597 425.582 345.241 425.423 344.979 425.152C344.718 424.881 344.572 424.52 344.572 424.143C344.572 423.767 344.718 423.405 344.979 423.135C345.241 422.864 345.597 422.705 345.973 422.692C346.349 422.705 346.705 422.864 346.967 423.135C347.228 423.405 347.374 423.767 347.374 424.143C347.374 424.52 347.228 424.881 346.967 425.152C346.705 425.423 346.349 425.582 345.973 425.595ZM353.289 426.118C352.913 426.104 352.557 425.945 352.296 425.675C352.034 425.404 351.888 425.042 351.888 424.666C351.888 424.29 352.034 423.928 352.296 423.657C352.557 423.386 352.913 423.228 353.289 423.214C353.665 423.228 354.021 423.387 354.283 423.657C354.544 423.928 354.69 424.29 354.69 424.666C354.69 425.042 354.544 425.404 354.283 425.675C354.021 425.945 353.665 426.104 353.289 426.118V426.118ZM360.431 426.118C360.055 426.104 359.699 425.945 359.438 425.675C359.177 425.404 359.031 425.042 359.031 424.666C359.031 424.29 359.177 423.928 359.438 423.657C359.699 423.386 360.055 423.228 360.431 423.214C360.807 423.228 361.164 423.387 361.425 423.657C361.686 423.928 361.832 424.29 361.832 424.666C361.832 425.042 361.686 425.404 361.425 425.675C361.164 425.945 360.807 426.104 360.431 426.118V426.118ZM368.27 425.943C367.894 425.93 367.538 425.771 367.277 425.5C367.015 425.23 366.869 424.868 366.869 424.492C366.869 424.115 367.015 423.754 367.277 423.483C367.538 423.212 367.894 423.053 368.27 423.04C368.646 423.054 369.002 423.212 369.264 423.483C369.525 423.754 369.671 424.116 369.671 424.492C369.671 424.868 369.525 425.23 369.264 425.5C369.002 425.771 368.646 425.93 368.27 425.943V425.943ZM376.98 425.247C376.604 425.233 376.248 425.074 375.987 424.804C375.725 424.533 375.579 424.171 375.579 423.795C375.579 423.419 375.725 423.057 375.987 422.786C376.248 422.516 376.604 422.357 376.98 422.343C377.356 422.357 377.712 422.516 377.974 422.786C378.235 423.057 378.381 423.419 378.381 423.795C378.381 424.171 378.235 424.533 377.974 424.804C377.712 425.074 377.356 425.233 376.98 425.247ZM385.342 424.55C384.966 424.536 384.61 424.378 384.348 424.107C384.087 423.836 383.941 423.474 383.941 423.098C383.941 422.722 384.087 422.36 384.348 422.09C384.61 421.819 384.966 421.66 385.342 421.647C385.718 421.66 386.074 421.819 386.335 422.09C386.596 422.36 386.742 422.722 386.742 423.098C386.742 423.474 386.596 423.836 386.335 424.107C386.074 424.377 385.718 424.536 385.342 424.55V424.55ZM392.484 419.498C392.108 419.485 391.752 419.326 391.49 419.055C391.229 418.784 391.083 418.423 391.083 418.046C391.083 417.67 391.229 417.309 391.49 417.038C391.752 416.767 392.108 416.608 392.484 416.595C392.86 416.608 393.216 416.767 393.477 417.038C393.738 417.309 393.884 417.67 393.884 418.046C393.884 418.423 393.738 418.784 393.477 419.055C393.216 419.326 392.86 419.484 392.484 419.498L392.484 419.498Z" fill="#020202"/>
<path d="M418.159 299.233C418.159 299.233 398.058 304.294 391.787 303.936C389.668 303.82 388.739 303.81 388.197 303.704C387.262 308.349 386.628 313.049 386.3 317.775C385.922 322.518 385.777 327.279 385.797 332.04C385.835 336.802 385.932 341.563 386.232 346.325C386.493 351.077 386.832 355.828 387.307 360.58C388.177 370.064 389.407 379.529 390.781 388.974C391.487 393.697 392.223 398.41 393.016 403.123C393.761 407.836 394.623 412.54 395.494 417.243C395.494 417.243 429.153 420.524 430.885 412.627C430.885 412.627 412.41 324.782 418.159 299.233ZM398.581 415.665C398.205 415.652 397.849 415.493 397.587 415.223C397.326 414.952 397.18 414.59 397.18 414.214C397.18 413.838 397.326 413.476 397.587 413.205C397.849 412.934 398.205 412.776 398.581 412.762C398.957 412.775 399.313 412.934 399.575 413.205C399.836 413.476 399.982 413.837 399.982 414.214C399.982 414.59 399.836 414.952 399.575 415.223C399.313 415.494 398.957 415.652 398.581 415.666V415.665ZM405.897 416.014C405.521 416 405.165 415.842 404.904 415.571C404.642 415.3 404.496 414.939 404.496 414.562C404.496 414.186 404.642 413.824 404.904 413.554C405.165 413.283 405.521 413.124 405.897 413.111C406.273 413.124 406.63 413.283 406.891 413.553C407.152 413.824 407.299 414.186 407.299 414.562C407.299 414.939 407.152 415.3 406.891 415.571C406.63 415.842 406.273 416.001 405.897 416.014V416.014ZM413.736 416.188C413.36 416.175 413.004 416.016 412.743 415.745C412.481 415.474 412.335 415.113 412.335 414.736C412.335 414.36 412.481 413.999 412.743 413.728C413.004 413.457 413.36 413.298 413.736 413.285C414.112 413.298 414.469 413.457 414.73 413.728C414.991 413.998 415.137 414.36 415.137 414.737C415.137 415.113 414.991 415.475 414.73 415.745C414.469 416.016 414.112 416.175 413.736 416.188V416.188ZM421.053 415.317C420.677 415.304 420.32 415.145 420.059 414.874C419.798 414.603 419.652 414.242 419.652 413.865C419.652 413.489 419.798 413.128 420.059 412.857C420.32 412.586 420.677 412.427 421.053 412.414C421.429 412.427 421.785 412.586 422.046 412.857C422.308 413.128 422.454 413.489 422.454 413.865C422.454 414.242 422.308 414.603 422.046 414.874C421.785 415.145 421.429 415.304 421.053 415.317V415.317ZM427.672 412.53C427.296 412.517 426.94 412.358 426.679 412.087C426.417 411.816 426.271 411.455 426.271 411.078C426.271 410.702 426.417 410.34 426.679 410.07C426.94 409.799 427.296 409.64 427.672 409.627C428.048 409.64 428.405 409.799 428.666 410.07C428.927 410.34 429.073 410.702 429.073 411.078C429.073 411.455 428.927 411.816 428.666 412.087C428.405 412.358 428.048 412.517 427.672 412.53Z" fill="#020202"/>
<path d="M350.847 193.403L347.494 193.548C346.405 193.594 345.342 193.654 344.294 193.669L344.25 193.666L344.208 193.659L338.491 192.771C337.671 192.685 336.845 192.834 336.107 193.202C335.37 193.57 334.754 194.14 334.33 194.847C334.123 195.194 333.967 195.569 333.868 195.961L333.805 196.258L333.797 196.295L333.792 196.313L333.79 196.323L333.789 196.327C334.542 197.224 332.762 195.111 332.948 195.328L333.039 195.327L333.221 195.325L333.949 195.318L336.862 195.324C338.803 195.341 340.745 195.4 342.687 195.488L342.772 195.491C342.945 195.499 343.107 195.575 343.224 195.703C343.34 195.83 343.401 195.999 343.394 196.171C343.391 196.218 343.384 196.264 343.373 196.309C343.01 197.602 342.275 198.76 341.259 199.639C340.244 200.518 338.992 201.08 337.661 201.253C336.411 201.433 335.142 201.425 333.896 201.23C333.274 201.161 332.689 201.067 332.084 200.987C331.481 200.922 330.876 200.87 330.27 200.83C327.842 200.687 325.407 200.719 322.983 200.924C320.563 201.111 318.133 201.413 315.765 201.818L316.327 201.39C316.319 201.479 316.318 201.569 316.323 201.658C316.345 201.775 316.383 201.889 316.436 201.996C316.588 202.252 316.798 202.468 317.048 202.628C317.668 203.029 318.355 203.313 319.077 203.466C320.645 203.83 322.246 204.032 323.855 204.068C324.672 204.103 325.497 204.085 326.319 204.097C327.171 204.105 328.022 204.09 328.874 204.118C330.583 204.169 332.288 204.312 333.981 204.546C335.674 204.76 337.348 205.153 338.947 205.42C340.456 205.747 342.02 205.729 343.521 205.364C345.06 204.865 346.545 204.213 347.954 203.418C348.703 203.038 349.455 202.664 350.218 202.309L351.364 201.773L351.944 201.509L352.241 201.379L352.4 201.313L352.489 201.278L352.553 201.256L352.622 201.235L352.675 201.224C352.445 201.392 353.423 200.741 353.251 202.109C353.236 202.229 353.178 202.338 353.089 202.419C353 202.499 352.885 202.545 352.765 202.548C352.645 202.55 352.528 202.51 352.436 202.434C352.343 202.357 352.281 202.25 352.26 202.132L352.222 201.911C351.988 200.542 351.738 199.172 351.53 197.75L350.847 193.403ZM350.97 193.253L352.157 197.366C352.573 198.764 352.947 200.214 353.336 201.665L352.308 201.466C352.136 202.83 353.102 202.179 352.868 202.349L352.901 202.343C352.929 202.336 352.943 202.331 352.934 202.335L352.924 202.341L352.869 202.368L352.742 202.434L352.474 202.579L351.933 202.883L350.849 203.508L348.674 204.76C347.206 205.688 345.649 206.464 344.024 207.076C343.148 207.365 342.236 207.53 341.315 207.568C340.422 207.584 339.529 207.522 338.646 207.383L333.695 206.595C332.068 206.367 330.432 206.236 328.789 206.133C327.968 206.081 327.142 206.073 326.318 206.041C325.465 206.005 324.613 205.997 323.757 205.936C322.014 205.851 320.286 205.574 318.604 205.11C317.695 204.862 316.841 204.446 316.085 203.884C315.649 203.558 315.299 203.133 315.062 202.643C314.926 202.358 314.849 202.048 314.838 201.732C314.826 201.415 314.88 201.1 314.995 200.806C315.038 200.69 315.113 200.588 315.211 200.513C315.308 200.437 315.426 200.391 315.549 200.379L315.557 200.378C318.034 200.135 320.482 200.049 322.944 200.011C325.403 199.998 327.859 200.067 330.312 200.234C332.772 200.358 335.214 201.035 337.506 200.479C338.624 200.235 339.651 199.68 340.468 198.879C341.246 198.112 341.779 197.131 342.001 196.061L342.686 196.882C340.745 196.969 338.803 197.027 336.861 197.044L333.949 197.051L333.221 197.043L333.039 197.041L332.948 197.04C333.129 197.259 331.348 195.143 332.103 196.035L332.104 196.029L332.107 196.016L332.113 195.99L332.125 195.938L332.222 195.524C332.373 194.977 332.603 194.454 332.904 193.973C333.505 193.016 334.372 192.256 335.4 191.787C336.427 191.318 337.57 191.16 338.686 191.332C340.668 191.754 342.498 192.196 344.404 192.662L344.319 192.653C345.472 192.723 346.609 192.839 347.721 192.941L350.97 193.253Z" fill="#020202"/>
<path d="M341.655 196.184C336.71 196.508 331.765 196.723 326.82 196.871C321.875 197.008 316.93 197.102 311.985 197.125C309.512 197.133 307.04 197.165 304.567 197.14L303.64 197.135L303.176 197.133C303.075 197.134 302.975 197.142 302.875 197.157C302.476 197.22 302.112 197.423 301.848 197.728C301.576 198.04 301.42 198.436 301.406 198.849C301.393 199.263 301.522 199.668 301.773 199.997C302.039 200.334 302.411 200.571 302.829 200.669C302.935 200.694 303.042 200.71 303.151 200.719L303.607 200.738L304.535 200.774C305.771 200.815 307.007 200.873 308.243 200.945C309.48 201.001 310.716 201.099 311.952 201.192C313.188 201.281 314.425 201.371 315.661 201.507C314.425 201.643 313.188 201.733 311.952 201.822C310.716 201.915 309.48 202.013 308.243 202.069C307.007 202.141 305.771 202.199 304.535 202.24L303.607 202.276L303.137 202.293C302.936 202.296 302.736 202.283 302.537 202.253C301.728 202.121 300.992 201.707 300.459 201.085C299.919 200.45 299.62 199.644 299.614 198.81C299.609 197.976 299.897 197.167 300.428 196.524C300.971 195.877 301.724 195.441 302.556 195.294C302.761 195.258 302.968 195.239 303.176 195.236L303.64 195.233L304.567 195.228C307.04 195.203 309.512 195.236 311.985 195.244C316.93 195.267 321.875 195.36 326.82 195.498C331.765 195.646 336.71 195.861 341.655 196.184Z" fill="#020202"/>
<path d="M305.559 187.523C305.557 189.819 306.468 192.021 308.091 193.646C309.713 195.27 311.915 196.183 314.211 196.185H318.15C319.287 196.185 320.414 195.962 321.465 195.527C322.516 195.092 323.471 194.454 324.275 193.649C325.08 192.845 325.718 191.89 326.153 190.839C326.588 189.787 326.812 188.661 326.811 187.523H305.559ZM311.249 194.114C310.602 193.756 310.025 193.284 309.546 192.72C309.068 192.177 308.656 191.579 308.317 190.939C307.967 190.309 307.713 189.631 307.562 188.926C308.549 189.981 309.362 191.075 310.272 192.081C310.7 192.59 311.169 193.063 311.675 193.494C312.181 193.947 312.764 194.305 313.398 194.549C312.653 194.662 311.891 194.508 311.249 194.114ZM320.153 190.378C318.613 190.394 317.077 190.232 315.575 189.894C317.077 189.556 318.613 189.394 320.153 189.41C321.689 189.385 323.223 189.547 324.721 189.894C323.223 190.236 321.689 190.399 320.153 190.378Z" fill="#020202"/>
<path d="M305.557 180.332L309.564 187.527" stroke="#020202" stroke-width="0.96777" stroke-linecap="round" stroke-linejoin="round"/>
<path d="M311.461 158.603C298.758 159.364 286.055 159.539 273.352 159.57L271.022 159.562C270.847 159.516 270.247 159.985 269.906 160.518C269.761 160.728 269.667 160.968 269.629 161.22C269.592 161.472 269.613 161.729 269.691 161.972C269.758 162.205 269.882 162.418 270.054 162.591C270.225 162.763 270.437 162.889 270.67 162.958C270.788 162.991 270.909 163.011 271.032 163.018L271.625 163.026L272.816 163.043L275.197 163.078L279.961 163.17C286.312 163.297 292.664 163.548 299.015 163.925C292.664 164.302 286.313 164.553 279.961 164.681L275.197 164.773L272.816 164.808L271.625 164.825L271.027 164.833C270.752 164.831 270.479 164.798 270.213 164.733C269.675 164.596 269.182 164.323 268.78 163.941C268.377 163.559 268.08 163.081 267.914 162.551C267.745 162.037 267.695 161.49 267.769 160.953C267.843 160.417 268.039 159.904 268.342 159.455C268.609 159.052 268.929 158.687 269.292 158.37C269.741 157.958 270.313 157.705 270.92 157.651L273.352 157.635C286.055 157.667 298.758 157.842 311.461 158.603Z" fill="#020202"/>
<path d="M275.132 144.728C275.132 146.551 275.491 148.355 276.188 150.039C276.886 151.723 277.908 153.253 279.197 154.541C280.485 155.83 282.015 156.852 283.699 157.55C285.383 158.247 287.187 158.606 289.01 158.606H295.32C299 158.606 302.53 157.144 305.133 154.541C307.736 151.939 309.198 148.409 309.198 144.728H275.132ZM285.41 155.49C284.24 154.918 283.174 154.156 282.255 153.235C281.35 152.325 280.56 151.308 279.903 150.206C279.237 149.119 278.714 147.951 278.345 146.732C279.042 147.786 279.777 148.793 280.523 149.78C281.264 150.758 282.072 151.682 282.942 152.548C283.792 153.413 284.74 154.177 285.768 154.822C286.83 155.442 287.983 155.892 289.184 156.158C287.89 156.26 286.591 156.03 285.41 155.49ZM299.462 147.215C297.419 147.242 295.378 147.08 293.365 146.732C297.404 146.086 301.52 146.086 305.559 146.732C303.546 147.08 301.505 147.242 299.462 147.215V147.215Z" fill="#020202"/>
<path d="M275.131 133.193L281.553 144.726" stroke="#020202" stroke-width="0.96777" stroke-linecap="round" stroke-linejoin="round"/>
<path d="M401.58 77.138C398.64 77.1167 395.797 78.1898 393.604 80.1485C390.808 78.6721 387.074 78.0405 382.089 78.9484C363.914 82.2582 365.688 88.239 365.688 88.239C365.688 88.239 375.551 102.523 379.342 98.1103C379.342 98.1103 383.947 91.0262 384.644 99.8523C384.644 99.8523 385.341 105.775 381.508 106.24C381.508 106.24 388.36 113.904 393.47 109.956C398.235 106.273 400.827 102.064 401.438 97.9677C401.486 97.9682 401.532 97.9743 401.58 97.9743C407.848 97.9743 412.929 93.31 412.929 87.5562C412.929 81.8024 407.848 77.138 401.58 77.138Z" fill="#020202"/>
<path d="M416.436 418.03C417.842 423.666 418.883 429.387 419.552 435.157C419.901 438.046 420.1 440.953 420.217 443.87C420.274 445.328 420.271 446.79 420.243 448.253C420.233 448.985 420.201 449.717 420.171 450.449C420.148 451.213 420.082 451.974 419.973 452.73C419.675 454.319 418.972 455.804 417.933 457.042C416.893 458.28 415.552 459.229 414.038 459.797C413.287 460.075 412.503 460.255 411.706 460.331C410.88 460.405 410.181 460.371 409.456 460.384L405.115 460.377C399.326 460.364 393.535 460.227 387.742 459.964C393.52 459.474 399.302 459.108 405.085 458.867L409.423 458.688C410.144 458.656 410.895 458.657 411.509 458.578C412.152 458.496 412.781 458.331 413.381 458.086C414.584 457.615 415.646 456.843 416.467 455.846C417.288 454.848 417.839 453.657 418.07 452.385C418.171 451.71 418.235 451.029 418.262 450.346C418.298 449.633 418.337 448.92 418.355 448.205C418.404 446.776 418.398 445.343 418.39 443.909C418.379 441.039 418.222 438.167 418.053 435.292C417.667 429.544 417.079 423.794 416.436 418.03Z" fill="#020202"/>
<path d="M396.229 417.101C396.597 419.354 396.793 421.606 396.943 423.858C397.02 424.985 397.075 426.111 397.108 427.237C397.12 427.807 397.168 428.347 397.151 428.943C397.145 429.546 397.105 430.149 397.029 430.747C396.693 433.151 395.694 435.413 394.145 437.281C392.617 439.11 390.592 440.459 388.314 441.164L388.349 441.146C387.568 441.52 386.741 441.789 385.889 441.948C386.63 441.532 387.337 441.06 388.005 440.535L388.04 440.518C389.915 439.449 391.538 437.991 392.8 436.241C394.002 434.516 394.804 432.545 395.146 430.471C395.224 429.953 395.271 429.432 395.289 428.909L395.35 427.237C395.383 426.111 395.438 424.985 395.516 423.858C395.665 421.606 395.861 419.354 396.229 417.101Z" fill="#020202"/>
<path d="M419.059 458.59C419.061 459.11 418.859 459.61 418.497 459.983C418.133 460.359 417.637 460.577 417.114 460.593L386.661 461.454C386.68 460.98 386.784 460.293 386.803 459.77C386.822 458.957 386.803 458.29 386.803 457.361L416.997 456.586H417.085C417.61 456.595 418.112 456.81 418.481 457.185C418.85 457.559 419.058 458.064 419.059 458.59Z" fill="#020202"/>
<path d="M365.641 162.232C365.226 162.136 364.834 161.956 364.491 161.703C364.386 161.626 364.302 161.526 364.242 161.41C364.183 161.295 364.151 161.167 364.15 161.038C364.178 160.772 364.305 160.526 364.505 160.349C365.191 159.807 365.974 159.404 366.813 159.161C368.403 158.654 370.029 158.269 371.677 158.007C374.935 157.477 378.219 157.121 381.515 156.94C384.8 156.767 388.091 156.652 391.402 156.798C393.087 156.829 394.764 157.032 396.407 157.404C396.635 157.47 396.857 157.558 397.069 157.665C397.212 157.74 397.339 157.841 397.443 157.964C397.52 158.051 397.571 158.159 397.588 158.275C397.614 158.394 397.599 158.519 397.546 158.63C397.413 158.882 397.2 159.082 396.939 159.198C396.746 159.303 396.545 159.39 396.337 159.461C395.549 159.732 394.737 159.93 393.912 160.053C394.664 159.737 395.397 159.377 396.108 158.976C396.274 158.878 396.433 158.77 396.586 158.653C396.731 158.556 396.863 158.386 396.841 158.375C396.85 158.369 396.825 158.394 396.829 158.434C396.854 158.472 396.823 158.47 396.833 158.482C396.79 158.469 396.748 158.453 396.707 158.435C396.54 158.386 396.37 158.352 396.197 158.331C395.411 158.24 394.62 158.209 393.829 158.239C393.023 158.251 392.212 158.27 391.4 158.309C388.153 158.47 384.89 158.665 381.628 158.871C378.367 159.05 375.109 159.242 371.869 159.499C370.253 159.648 368.628 159.779 367.055 160.074C366.286 160.174 365.54 160.404 364.85 160.756C364.548 160.946 364.437 161.182 364.699 161.501C364.961 161.806 365.281 162.054 365.641 162.232Z" fill="#020202"/>
<path d="M364.351 158.603C363.737 156.593 363.378 154.515 363.281 152.416C363.148 150.311 363.232 148.198 363.532 146.111C363.835 144.003 364.414 141.944 365.255 139.988C366.101 138.029 367.368 136.28 368.966 134.865C368.024 136.67 367.256 138.56 366.673 140.51C366.145 142.444 365.735 144.409 365.446 146.393C364.849 150.382 364.653 154.428 364.351 158.603Z" fill="#020202"/>
<path d="M397.222 155.338C396.896 152.672 396.572 150.048 396.158 147.45C395.768 144.873 395.212 142.323 394.495 139.817C394.153 138.582 393.718 137.374 393.193 136.205C392.699 135.043 392.079 133.938 391.346 132.909C389.844 130.807 387.602 129.352 385.071 128.835C386.448 128.714 387.834 128.934 389.106 129.475C390.402 130.05 391.563 130.893 392.511 131.947C394.315 134.074 395.626 136.575 396.35 139.269C397.792 144.5 398.09 149.982 397.222 155.338Z" fill="#020202"/>
<path d="M388.216 303.598C388.206 303.636 388.206 303.665 388.197 303.704H388.187C388.197 303.665 388.206 303.636 388.216 303.598Z" fill="white"/>
<path d="M368.618 116.26C368.99 116.266 369.358 116.185 369.693 116.024C370.029 115.863 370.322 115.626 370.55 115.332C370.747 115.047 370.883 114.725 370.951 114.385C371.018 114.045 371.014 113.695 370.941 113.356C370.831 112.764 370.51 112.231 370.037 111.858C369.619 111.572 369.125 111.42 368.619 111.421C368.113 111.421 367.619 111.575 367.202 111.862C366.701 112.273 366.37 112.856 366.275 113.498C366.179 114.139 366.326 114.793 366.686 115.333C366.914 115.627 367.207 115.864 367.542 116.025C367.877 116.186 368.246 116.266 368.618 116.26ZM368.618 116.26C367.842 116.273 367.088 116.008 366.491 115.514C365.859 114.956 365.446 114.192 365.327 113.357C365.25 112.897 365.269 112.425 365.38 111.972C365.492 111.519 365.694 111.093 365.975 110.721C366.298 110.334 366.702 110.023 367.159 109.81C367.615 109.596 368.113 109.486 368.616 109.486C369.12 109.486 369.618 109.597 370.074 109.811C370.53 110.024 370.934 110.336 371.256 110.722C371.537 111.095 371.739 111.52 371.85 111.973C371.961 112.426 371.979 112.896 371.903 113.356C371.784 114.19 371.373 114.954 370.743 115.512C370.146 116.007 369.393 116.273 368.618 116.26Z" fill="#020202"/>
<path d="M383.883 427.331C385.451 435.474 387.153 443.662 387.487 452.024C387.598 454.109 387.652 456.201 387.631 458.299C387.634 459.349 387.603 460.387 387.526 461.441L387.475 462.228L387.37 463.078C387.271 463.641 387.124 464.195 386.932 464.734C386.337 466.338 385.304 467.742 383.95 468.788C382.596 469.834 380.976 470.479 379.273 470.649C378.12 470.743 377.146 470.677 376.091 470.687C371.941 470.657 367.79 470.606 363.64 470.648C359.491 470.681 355.344 470.826 351.196 470.934C342.902 471.245 334.61 471.672 326.315 471.935C326.176 471.939 326.038 471.909 325.913 471.848C325.789 471.787 325.681 471.696 325.599 471.584L325.589 471.57C324.643 470.34 324.043 468.878 323.853 467.337C323.72 465.729 324.158 464.125 325.09 462.807C325.991 461.518 327.233 460.506 328.677 459.883C329.369 459.582 330.088 459.349 330.825 459.19C331.483 459.03 332.14 458.86 332.796 458.673C335.429 457.966 338.035 457.081 340.632 456.177C343.233 455.281 345.817 454.318 348.388 453.319C350.943 452.342 353.597 451.338 356.038 450.284C357.813 449.42 359.363 448.155 360.566 446.591C361.769 445.026 362.593 443.203 362.974 441.267C363.097 440.613 363.173 439.951 363.2 439.286L363.262 437.213C363.375 434.444 363.454 431.676 363.596 428.908C363.597 428.883 363.608 428.86 363.626 428.843C363.644 428.826 363.668 428.816 363.693 428.816C363.718 428.816 363.741 428.826 363.759 428.843C363.777 428.86 363.788 428.883 363.789 428.908C363.931 431.676 364.01 434.444 364.123 437.213L364.18 439.291C364.19 440.011 364.148 440.73 364.053 441.443C363.855 442.88 363.432 444.277 362.8 445.582C361.516 448.24 359.403 450.409 356.78 451.763C354.18 452.993 351.682 454.028 349.103 455.118C343.963 457.283 338.696 459.133 333.331 460.658C332.653 460.838 331.967 461.002 331.277 461.155C330.657 461.274 330.051 461.455 329.467 461.696C328.343 462.151 327.368 462.911 326.651 463.889C325.943 464.836 325.595 466.004 325.667 467.184C325.806 468.408 326.268 469.572 327.006 470.558L326.281 470.194C334.58 470.132 342.882 470.235 351.182 470.221C355.331 470.167 359.481 470.15 363.628 470.02C367.776 469.901 371.922 469.688 376.068 469.496C377.086 469.435 378.192 469.434 379.103 469.306C380.045 469.161 380.952 468.843 381.779 468.369C383.425 467.431 384.681 465.933 385.318 464.148C385.471 463.708 385.587 463.257 385.666 462.798L385.748 462.103L385.793 461.337C385.85 460.321 385.918 459.285 385.933 458.261C385.995 456.21 385.986 454.152 385.918 452.091C385.851 450.031 385.727 447.971 385.571 445.912C385.433 443.851 385.283 441.788 385.04 439.733C384.528 435.626 384.09 431.505 383.693 427.365L383.692 427.358C383.69 427.333 383.697 427.309 383.713 427.289C383.728 427.27 383.75 427.257 383.775 427.253C383.799 427.25 383.824 427.256 383.845 427.27C383.865 427.284 383.879 427.306 383.883 427.33V427.331Z" fill="#020202"/>
<path d="M384.471 467.122L350.928 467.983C350.967 466.348 350.957 457.686 346.196 455.218C340.931 452.489 338.231 458.093 338.231 458.093C338.231 458.093 345.353 462.409 341.424 468.225L325.175 468.641C324.898 468.649 324.625 468.711 324.371 468.825C324.118 468.938 323.889 469.1 323.699 469.302C323.508 469.504 323.359 469.741 323.261 470.001C323.162 470.26 323.115 470.537 323.124 470.814C323.132 471.092 323.195 471.365 323.309 471.618C323.423 471.871 323.586 472.099 323.788 472.289C323.99 472.479 324.228 472.628 324.488 472.726C324.747 472.824 325.024 472.87 325.301 472.861L384.577 471.129C385.109 471.114 385.613 470.89 385.978 470.504C386.344 470.118 386.541 469.603 386.527 469.072C386.513 468.541 386.289 468.037 385.903 467.671C385.517 467.305 385.002 467.108 384.471 467.122H384.471ZM344.057 459.389C343.681 459.376 343.324 459.217 343.063 458.946C342.802 458.676 342.656 458.314 342.656 457.938C342.656 457.562 342.802 457.2 343.063 456.929C343.324 456.658 343.681 456.5 344.057 456.486C344.433 456.499 344.789 456.658 345.05 456.929C345.312 457.2 345.458 457.561 345.458 457.938C345.458 458.314 345.312 458.676 345.05 458.947C344.789 459.217 344.433 459.376 344.057 459.389V459.389ZM346.67 461.364C347.046 461.377 347.402 461.536 347.663 461.807C347.924 462.077 348.07 462.439 348.07 462.815C348.07 463.192 347.924 463.553 347.663 463.824C347.402 464.095 347.046 464.254 346.67 464.267C346.294 464.254 345.938 464.095 345.676 463.824C345.415 463.553 345.269 463.192 345.269 462.815C345.269 462.439 345.415 462.078 345.676 461.807C345.938 461.536 346.294 461.377 346.67 461.364V461.364ZM346.844 468.97C346.468 468.957 346.112 468.798 345.85 468.527C345.589 468.257 345.443 467.895 345.443 467.519C345.443 467.142 345.589 466.781 345.85 466.51C346.112 466.239 346.468 466.08 346.844 466.067C347.22 466.08 347.576 466.239 347.838 466.51C348.099 466.781 348.245 467.142 348.245 467.519C348.245 467.895 348.099 468.257 347.838 468.528C347.576 468.798 347.22 468.957 346.844 468.97V468.97Z" fill="#020202"/>
<path d="M349.18 185.969L351.9 196.557C352.799 200.087 353.7 203.618 354.563 207.158C354.584 207.244 354.582 207.334 354.556 207.419L354.549 207.443C353.353 211.33 352.417 215.345 351.581 219.353C350.741 223.367 350.012 227.405 349.346 231.452C348.027 239.552 347.156 247.718 346.424 255.891C346.091 259.982 345.748 264.073 345.565 268.175C345.309 272.273 345.152 276.376 345.006 280.481C344.905 282.533 344.893 284.587 344.87 286.641L344.792 292.805C344.813 296.913 344.868 301.023 344.958 305.135L344.484 304.791C351.216 302.976 358.027 301.541 364.901 300.398C368.344 299.819 371.822 299.466 375.311 299.342C377.071 299.283 378.833 299.368 380.578 299.598C381.468 299.725 382.341 299.945 383.185 300.254C384.059 300.57 384.855 301.069 385.52 301.718C386.834 302.71 388.425 303.266 390.07 303.309C391.772 303.459 393.484 303.461 395.187 303.314C398.624 303.02 402.04 302.51 405.412 301.785C412.185 300.358 418.878 298.576 425.463 296.445L424.876 297.115C426.025 290.477 426.417 283.73 426.043 277.004C425.646 270.279 424.574 263.61 422.845 257.098C421.109 250.578 418.808 244.221 415.97 238.099C413.124 231.968 409.905 226.017 406.33 220.281L406.316 220.258C406.261 220.169 406.224 220.069 406.207 219.965C405.867 217.839 405.636 215.697 405.513 213.548C405.45 212.458 405.448 211.365 405.507 210.275C405.541 209.708 405.614 209.144 405.728 208.587C405.842 207.944 406.095 207.333 406.469 206.798L406.316 207.115L407.488 201.961C407.887 200.26 408.256 198.498 408.757 196.826C409.683 193.444 410.544 190.042 411.341 186.623C412.123 183.202 412.876 179.773 413.485 176.318C414.138 172.87 414.538 169.38 414.683 165.874C414.684 165.861 414.686 165.849 414.691 165.837C414.696 165.825 414.703 165.814 414.712 165.806C414.721 165.797 414.732 165.79 414.744 165.785C414.755 165.78 414.768 165.778 414.781 165.778C414.806 165.778 414.83 165.788 414.848 165.806C414.866 165.824 414.876 165.848 414.877 165.873C414.869 169.4 414.604 172.923 414.084 176.411C413.604 179.904 413.008 183.376 412.293 186.83C411.589 190.282 410.816 193.72 409.974 197.143C409.512 198.855 409.211 200.547 408.852 202.28L407.789 207.434C407.772 207.52 407.738 207.601 407.69 207.673L407.636 207.752C407.249 208.568 407.053 209.462 407.064 210.366C407.026 211.395 407.046 212.425 407.122 213.452C407.277 215.536 407.536 217.611 407.899 219.669L407.776 219.354C411.518 225.088 414.851 231.078 417.752 237.28C420.66 243.496 423.022 249.953 424.811 256.579C428.423 269.895 429.028 283.849 426.584 297.429L426.581 297.445C426.553 297.597 426.483 297.739 426.38 297.854C426.277 297.969 426.144 298.054 425.996 298.098C419.32 300.151 412.535 301.833 405.673 303.136C402.231 303.787 398.751 304.22 395.253 304.432C393.488 304.538 391.716 304.496 389.957 304.303C388.106 304.207 386.333 303.524 384.896 302.353C383.663 301.238 382.107 300.542 380.454 300.366C378.758 300.1 377.041 299.992 375.325 300.045C371.864 300.141 368.414 300.464 364.996 301.012C361.566 301.518 358.158 302.187 354.776 302.961C351.393 303.729 348.02 304.57 344.687 305.508C344.592 305.535 344.491 305.523 344.404 305.475C344.318 305.428 344.255 305.348 344.227 305.253C344.219 305.224 344.215 305.194 344.214 305.164L343.763 292.816C343.732 288.698 343.588 284.577 343.655 280.456C343.673 272.212 344.058 263.969 344.714 255.746C345.419 247.528 346.462 239.346 347.841 231.201C348.553 227.137 349.309 223.078 350.279 219.064C351.224 215.041 352.254 211.055 353.576 207.107L353.561 207.392C352.766 203.837 352.007 200.273 351.248 196.709L348.992 186.013C348.987 185.988 348.991 185.962 349.005 185.941C349.018 185.919 349.04 185.904 349.065 185.898C349.089 185.893 349.115 185.897 349.137 185.91C349.158 185.923 349.174 185.944 349.18 185.969L349.18 185.969Z" fill="#020202"/>
<path d="M403.381 287.62C402.021 287.624 400.668 287.428 399.365 287.039C400.749 265.226 404.833 195.623 401.02 185.772C396.491 174.062 401.581 120.099 401.581 120.099C401.581 120.099 408.994 118.279 410.117 129.215C410.117 129.215 417.965 244.728 428.379 277.642C425.715 276.783 422.874 276.63 420.133 277.197C418.742 277.501 417.413 278.041 416.204 278.794C415.01 279.582 413.97 280.582 413.136 281.745L411.946 283.41C411.758 283.682 411.547 283.938 411.317 284.175C411.084 284.407 410.872 284.658 410.639 284.891C409.667 285.78 408.538 286.482 407.31 286.962C406.054 287.429 404.721 287.652 403.381 287.62Z" fill="black"/>
<path d="M428.379 277.642C427.031 277.405 425.662 277.308 424.295 277.352C422.948 277.377 421.609 277.566 420.307 277.913C419.033 278.281 417.82 278.836 416.707 279.558C415.62 280.302 414.676 281.237 413.92 282.316L412.691 283.981C412.489 284.277 412.259 284.552 412.004 284.803C411.752 285.055 411.52 285.326 411.249 285.568C410.174 286.512 408.915 287.223 407.552 287.658C404.838 288.449 401.929 288.229 399.365 287.039C399.094 291.152 398.929 293.562 398.929 293.562C398.929 293.562 411.123 300.53 414.781 292.168C418.44 283.807 431.33 284.503 431.33 284.503C430.042 282.36 429.049 280.052 428.379 277.642ZM402.239 292.507C401.863 292.494 401.507 292.335 401.246 292.064C400.984 291.793 400.838 291.432 400.838 291.055C400.838 290.679 400.984 290.317 401.246 290.047C401.507 289.776 401.863 289.617 402.239 289.604C402.615 289.617 402.971 289.776 403.232 290.047C403.493 290.318 403.639 290.679 403.639 291.055C403.639 291.431 403.493 291.793 403.232 292.064C402.971 292.334 402.615 292.493 402.239 292.507V292.507ZM408.684 294.075C408.308 294.061 407.952 293.903 407.691 293.632C407.43 293.361 407.284 292.999 407.284 292.623C407.284 292.247 407.43 291.885 407.691 291.614C407.952 291.344 408.308 291.185 408.684 291.171C409.06 291.185 409.416 291.344 409.678 291.615C409.939 291.885 410.085 292.247 410.085 292.623C410.085 292.999 409.939 293.361 409.678 293.632C409.416 293.902 409.06 294.061 408.684 294.075V294.075ZM413.039 290.068C412.663 290.055 412.307 289.896 412.046 289.625C411.785 289.354 411.639 288.993 411.639 288.617C411.639 288.24 411.785 287.879 412.046 287.608C412.307 287.337 412.663 287.178 413.039 287.165C413.415 287.178 413.771 287.337 414.033 287.608C414.294 287.879 414.44 288.24 414.44 288.617C414.44 288.993 414.294 289.354 414.033 289.625C413.771 289.896 413.415 290.055 413.039 290.068V290.068ZM418.266 285.191C417.889 285.177 417.533 285.018 417.272 284.748C417.011 284.477 416.865 284.115 416.865 283.739C416.865 283.363 417.011 283.001 417.272 282.73C417.533 282.459 417.889 282.301 418.266 282.287C418.641 282.301 418.998 282.46 419.259 282.73C419.52 283.001 419.666 283.363 419.666 283.739C419.666 284.115 419.52 284.477 419.259 284.747C418.998 285.018 418.641 285.177 418.266 285.191V285.191ZM424.885 282.926C424.509 282.913 424.153 282.754 423.891 282.483C423.63 282.212 423.484 281.851 423.484 281.474C423.484 281.098 423.63 280.736 423.891 280.466C424.153 280.195 424.509 280.036 424.885 280.023C425.261 280.036 425.617 280.195 425.878 280.466C426.139 280.737 426.285 281.098 426.285 281.474C426.285 281.851 426.139 282.212 425.878 282.483C425.617 282.754 425.261 282.912 424.885 282.926L424.885 282.926Z" fill="black"/>
<path d="M367.572 156.635C367.949 156.622 368.305 156.463 368.567 156.192C368.828 155.921 368.975 155.56 368.975 155.183C368.975 154.807 368.828 154.445 368.567 154.174C368.305 153.903 367.949 153.744 367.572 153.731C367.196 153.744 366.84 153.903 366.578 154.174C366.316 154.445 366.17 154.807 366.17 155.183C366.17 155.56 366.316 155.921 366.578 156.192C366.84 156.463 367.196 156.622 367.572 156.635Z" fill="black"/>
<path d="M374.018 155.067C374.394 155.054 374.751 154.895 375.012 154.625C375.274 154.354 375.42 153.992 375.42 153.615C375.42 153.239 375.274 152.877 375.012 152.606C374.751 152.335 374.394 152.177 374.018 152.164C373.642 152.177 373.285 152.335 373.023 152.606C372.762 152.877 372.616 153.239 372.616 153.615C372.616 153.992 372.762 154.354 373.023 154.625C373.285 154.895 373.642 155.054 374.018 155.067Z" fill="black"/>
<path d="M382.379 154.37C382.756 154.357 383.112 154.199 383.374 153.928C383.636 153.657 383.782 153.295 383.782 152.919C383.782 152.542 383.636 152.18 383.374 151.909C383.112 151.639 382.756 151.48 382.379 151.467C382.003 151.48 381.646 151.639 381.385 151.909C381.123 152.18 380.977 152.542 380.977 152.919C380.977 153.295 381.123 153.657 381.385 153.928C381.646 154.199 382.003 154.357 382.379 154.37Z" fill="black"/>
<path d="M389.87 154.022C390.246 154.009 390.603 153.85 390.864 153.58C391.126 153.309 391.272 152.947 391.272 152.57C391.272 152.194 391.126 151.832 390.864 151.561C390.603 151.29 390.246 151.132 389.87 151.119C389.494 151.132 389.137 151.29 388.875 151.561C388.614 151.832 388.468 152.194 388.468 152.57C388.468 152.947 388.614 153.309 388.875 153.58C389.137 153.85 389.494 154.009 389.87 154.022Z" fill="black"/>
<path d="M395.793 154.893C396.169 154.88 396.525 154.721 396.787 154.45C397.049 154.18 397.195 153.818 397.195 153.441C397.195 153.065 397.049 152.703 396.787 152.432C396.525 152.161 396.169 152.003 395.793 151.99C395.416 152.003 395.06 152.161 394.798 152.432C394.537 152.703 394.39 153.065 394.39 153.441C394.39 153.818 394.537 154.18 394.798 154.45C395.06 154.721 395.416 154.88 395.793 154.893Z" fill="black"/>
<path d="M418.613 163.254C418.989 163.241 419.346 163.083 419.607 162.812C419.869 162.541 420.015 162.179 420.015 161.803C420.015 161.426 419.869 161.064 419.607 160.794C419.346 160.523 418.989 160.364 418.613 160.351C418.236 160.364 417.88 160.523 417.618 160.794C417.357 161.064 417.21 161.426 417.21 161.803C417.21 162.179 417.357 162.541 417.618 162.812C417.88 163.083 418.236 163.241 418.613 163.254Z" fill="black"/>
<path d="M344.586 302.246L348.161 295.892L348.231 295.769L348.31 295.889L351.313 300.473L351.051 300.483L354.872 293.262L355.041 292.942L355.278 293.223L359.843 298.652L359.354 298.709L362.79 291.602L363.007 291.153L363.354 291.518L368.618 297.056L367.982 297.13L371.562 290.849L371.876 290.298L372.263 290.804L376.688 296.6L375.972 296.629L379.676 290.815L380.069 290.197L380.446 290.827L384.884 298.254L384.065 298.268L387.183 292.569L387.622 291.766L388.035 292.582L392.2 300.825L391.379 300.823L395.1 293.643L395.468 292.933L395.874 293.619L399.723 300.106L398.972 300.14L401.867 294.132L402.183 293.476L402.581 294.083L406.01 299.321L405.378 299.332L408.396 294.483L408.632 294.104L408.93 294.43L412.167 297.963L411.662 298.057L413.617 293.28L413.745 292.966L414.019 293.158L418.292 296.141L417.95 296.249L419.972 291.002L420.063 290.765L420.237 290.946L423.998 294.859L423.836 294.91L424.858 289.196L424.868 289.142L424.903 289.183L426.304 290.813L424.865 289.217L424.909 289.205L424.025 294.942L423.996 295.126L423.862 294.993L420.008 291.171L420.273 291.114L418.377 296.408L418.279 296.682L418.034 296.517L413.715 293.602L414.117 293.48L412.227 298.283L412.052 298.728L411.721 298.377L408.437 294.888L408.97 294.834L406.018 299.724L405.715 300.226L405.385 299.735L401.895 294.537L402.609 294.488L399.741 300.508L399.399 301.225L398.99 300.543L395.113 294.072L395.888 294.049L392.199 301.245L391.788 302.046L391.378 301.243L387.176 293.019L388.027 293.032L384.892 298.722L384.493 299.446L384.073 298.736L379.668 291.29L380.438 291.302L376.709 297.101L376.37 297.628L375.992 297.129L371.592 291.313L372.292 291.268L368.673 297.526L368.402 297.995L368.037 297.6L362.848 291.993L363.412 291.908L359.881 298.969L359.677 299.376L359.391 299.027L354.899 293.537L355.305 293.498L351.319 300.628L351.192 300.855L351.056 300.637L348.163 295.983L348.312 295.98L344.586 302.246Z" fill="black"/>
</svg>
