<svg width="153" height="157" viewBox="0 0 153 157" fill="none" xmlns="http://www.w3.org/2000/svg">
<path d="M55.5033 33.4466L52.6206 31.7719C52.778 30.3971 52.778 29.0081 52.6206 27.6332L55.5033 25.9586C55.5731 25.9181 55.6286 25.856 55.6619 25.7812C55.6952 25.7064 55.7046 25.6227 55.6888 25.542C55.3737 23.9322 54.8776 22.3654 54.2106 20.873C54.1771 20.7983 54.1216 20.7364 54.0519 20.696C53.9821 20.6557 53.9017 20.639 53.8222 20.6483L50.5306 21.0321C49.8707 19.8247 49.0751 18.7008 48.1602 17.6835L49.5282 14.5893C49.5612 14.5146 49.5705 14.4312 49.5547 14.3508C49.5388 14.2704 49.4987 14.1972 49.44 14.1416C48.2641 13.0284 46.9656 12.0598 45.5709 11.2556C45.5011 11.2152 45.4207 11.1986 45.3411 11.208C45.2615 11.2173 45.1869 11.2523 45.1278 11.3078L42.6852 13.6034C41.4597 13.0246 40.1723 12.5953 38.8494 12.3242L38.1875 8.99356C38.172 8.91259 38.1318 8.83877 38.0728 8.7827C38.0138 8.72664 37.939 8.69123 37.8592 8.68156C36.2701 8.49124 34.6648 8.49124 33.0757 8.68156C32.9959 8.69123 32.9211 8.72664 32.8621 8.7827C32.8031 8.83877 32.7629 8.91259 32.7474 8.99356L32.0854 12.3242C30.7626 12.5953 29.4752 13.0247 28.2497 13.6034L25.8101 11.3039C25.7511 11.2484 25.6764 11.2134 25.5968 11.2041C25.5173 11.1947 25.4368 11.2113 25.367 11.2517C23.9725 12.0562 22.674 13.0247 21.4979 14.1377C21.4392 14.1933 21.3991 14.2665 21.3833 14.3469C21.3674 14.4273 21.3767 14.5107 21.4097 14.5854L22.7777 17.6796C21.865 18.6971 21.0717 19.821 20.4141 21.0282L17.1226 20.6444C17.043 20.6351 16.9627 20.6518 16.8929 20.6921C16.8232 20.7325 16.7676 20.7944 16.7342 20.8691C16.0667 22.3613 15.5706 23.9282 15.256 25.5381C15.2403 25.6186 15.2498 25.7022 15.2831 25.7768C15.3164 25.8515 15.3718 25.9134 15.4414 25.9539L18.3241 27.6301C18.1668 29.0049 18.1668 30.3939 18.3241 31.7688L15.4392 33.4466C15.3693 33.4871 15.3137 33.5493 15.2804 33.6243C15.247 33.6992 15.2377 33.7831 15.2537 33.8639C15.568 35.4736 16.0641 37.0403 16.7319 38.5322C16.7648 38.6073 16.8202 38.6696 16.8901 38.71C16.96 38.7505 17.0407 38.7668 17.1203 38.7568L20.4118 38.373C21.0715 39.5809 21.8671 40.705 22.7823 41.7224L21.4143 44.8166C21.3813 44.8913 21.372 44.9747 21.3878 45.0551C21.4036 45.1355 21.4438 45.2087 21.5024 45.2643C22.6787 46.3772 23.9771 47.3457 25.3716 48.1503C25.4413 48.1908 25.5217 48.2076 25.6013 48.1983C25.6808 48.1891 25.7555 48.1543 25.8147 48.0989L28.2573 45.8018C29.4827 46.3807 30.7701 46.81 32.093 47.081L32.755 50.4123C32.7706 50.4934 32.8108 50.5673 32.87 50.6234C32.9291 50.6795 33.0041 50.7148 33.0841 50.7243C34.6727 50.9143 36.2774 50.9143 37.866 50.7243C37.946 50.7148 38.021 50.6795 38.0801 50.6234C38.1393 50.5673 38.1795 50.4934 38.1951 50.4123L38.857 47.081C40.18 46.8102 41.4674 46.3808 42.6928 45.8018L45.1354 48.0989C45.1946 48.1543 45.2692 48.1891 45.3488 48.1983C45.4284 48.2076 45.5088 48.1908 45.5785 48.1503C46.973 47.3457 48.2714 46.3772 49.4476 45.2643C49.5063 45.2087 49.5464 45.1355 49.5623 45.0551C49.5781 44.9747 49.5688 44.8913 49.5358 44.8166L48.1678 41.7224C49.0827 40.7048 49.8783 39.5807 50.5382 38.373L53.8298 38.7568C53.9093 38.7661 53.9897 38.7494 54.0595 38.7091C54.1292 38.6687 54.1847 38.6068 54.2182 38.5322C54.8854 37.0401 55.3815 35.4735 55.6964 33.8639C55.7117 33.7823 55.7012 33.6978 55.6665 33.6227C55.6318 33.5477 55.5746 33.4859 55.5033 33.4466ZM40.6195 29.7026C40.6195 30.7476 40.3175 31.7691 39.7518 32.638C39.1862 33.5069 38.3821 34.1842 37.4414 34.5841C36.5007 34.984 35.4655 35.0886 34.4669 34.8847C33.4682 34.6809 32.5509 34.1777 31.8309 33.4387C31.1109 32.6998 30.6206 31.7583 30.4219 30.7334C30.2233 29.7084 30.3252 28.646 30.7149 27.6806C31.1045 26.7151 31.7644 25.8899 32.611 25.3093C33.4577 24.7287 34.453 24.4188 35.4712 24.4188C36.8362 24.4203 38.1449 24.9774 39.11 25.968C40.0752 26.9586 40.6181 28.3017 40.6195 29.7026Z" fill="black"/>
<path fill-rule="evenodd" clip-rule="evenodd" d="M87.2879 9.01229C86.3404 8.89841 85.3831 8.89841 84.4356 9.01229L84.0024 11.1916C83.1134 11.3605 82.2499 11.6489 81.4344 12.0496L79.8384 10.5473C79.0068 11.0274 78.2323 11.6049 77.5303 12.268L78.4286 14.296C77.8055 14.9684 77.2719 15.7224 76.8417 16.5385L74.6848 16.2866C74.2867 17.1765 73.9908 18.111 73.8032 19.0712L75.6888 20.1632C75.5702 21.0829 75.5702 22.0147 75.6888 22.9345L73.8032 24.0312C73.9908 24.9913 74.2867 25.9258 74.6848 26.8158L76.8387 26.5646C77.2687 27.3806 77.8023 28.1344 78.4255 28.8063L77.5272 30.8343C78.2292 31.4977 79.0038 32.0754 79.8353 32.5558L81.4313 31.0535C82.2469 31.4542 83.1103 31.7427 83.9994 31.9115L84.4326 34.0908C85.3801 34.2047 86.3373 34.2047 87.2849 34.0908L87.7181 31.9115C88.6071 31.7427 89.4706 31.4542 90.2861 31.0535L91.8821 32.5558C92.7136 32.0756 93.4879 31.4979 94.1895 30.8343L93.2919 28.8063C93.9151 28.1344 94.4488 27.3806 94.8788 26.5646L97.0326 26.8158C97.4308 25.9258 97.7266 24.9913 97.9142 24.0312L96.034 22.9345C96.1533 22.0148 96.1533 21.0829 96.034 20.1632L97.9203 19.0673C97.7327 18.1071 97.4368 17.1726 97.0387 16.2827L94.8849 16.5338C94.4547 15.7177 93.9211 14.9637 93.298 14.2913L94.1955 12.2633C93.4939 11.6 92.7196 11.0226 91.8882 10.5426L90.2922 12.0449C89.4767 11.6443 88.6132 11.3558 87.7241 11.1869L87.2879 9.01229ZM85.8614 18.1016C86.5258 18.1015 87.1753 18.3035 87.7279 18.6823C88.2804 19.061 88.7111 19.5994 88.9654 20.2293C89.2198 20.8593 89.2864 21.5525 89.1569 22.2213C89.0274 22.8902 88.7075 23.5045 88.2377 23.9868C87.768 24.469 87.1694 24.7974 86.5178 24.9305C85.8661 25.0636 85.1907 24.9954 84.5768 24.7345C83.9629 24.4735 83.4383 24.0317 83.0691 23.4647C82.7 22.8977 82.5029 22.2311 82.5029 21.5492C82.5031 20.6351 82.857 19.7584 83.4868 19.1119C84.1165 18.4654 84.9707 18.102 85.8614 18.1016Z" fill="#FFD997"/>
<path d="M98.1075 23.6966L96.4415 22.727C96.5251 21.9465 96.5251 21.1589 96.4415 20.3784L98.1075 19.4105C98.1771 19.37 98.2325 19.3081 98.2658 19.2334C98.2991 19.1588 98.3086 19.0752 98.2929 18.9947C98.0985 18.0048 97.7925 17.0415 97.3809 16.1243C97.3486 16.0489 97.2934 15.9862 97.2236 15.9456C97.1537 15.9049 97.073 15.8886 96.9933 15.8989L95.0933 16.1212C94.7128 15.4396 94.2615 14.8023 93.7473 14.2203L94.5408 12.4318C94.5738 12.3571 94.5831 12.2737 94.5672 12.1933C94.5514 12.1129 94.5113 12.0397 94.4526 11.9841C93.7294 11.2999 92.9311 10.7044 92.0738 10.2096C92.004 10.1693 91.9236 10.1526 91.844 10.162C91.7645 10.1714 91.6898 10.2063 91.6307 10.2618L90.2194 11.5878C89.5213 11.2667 88.7915 11.0235 88.0428 10.8624L87.6628 8.9374C87.6473 8.85643 87.6071 8.78261 87.5481 8.72654C87.4891 8.67048 87.4143 8.63507 87.3345 8.6254C86.3575 8.50996 85.3709 8.50996 84.394 8.6254C84.314 8.63491 84.2391 8.67025 84.1799 8.72633C84.1208 8.78241 84.0805 8.85632 84.0649 8.9374L83.6849 10.8624C82.9364 11.0234 82.2069 11.2666 81.5091 11.5878L80.097 10.2618C80.0379 10.2063 79.9633 10.1714 79.8837 10.162C79.8041 10.1526 79.7237 10.1693 79.6539 10.2096C78.7964 10.7041 77.9981 11.2996 77.2751 11.9841C77.2163 12.0396 77.176 12.1128 77.1601 12.1932C77.1441 12.2736 77.1532 12.3571 77.1862 12.4318L77.9796 14.2211C77.466 14.803 77.015 15.4401 76.6344 16.1212L74.7344 15.8989C74.6547 15.8888 74.5739 15.9052 74.504 15.9458C74.4341 15.9864 74.3787 16.049 74.3461 16.1243C73.9345 17.0413 73.6284 18.0043 73.4341 18.9939C73.4182 19.0746 73.4276 19.1583 73.4609 19.2331C73.4942 19.3079 73.5498 19.37 73.6195 19.4105L75.2847 20.3792C75.2026 21.1595 75.2026 21.9467 75.2847 22.727L73.6142 23.6966C73.5446 23.737 73.4892 23.799 73.4559 23.8736C73.4226 23.9483 73.4131 24.0318 73.4287 24.1123C73.6231 25.1019 73.9292 26.065 74.3407 26.9819C74.3741 27.0567 74.4295 27.1188 74.4993 27.1593C74.569 27.1998 74.6495 27.2166 74.7291 27.2073L76.6291 26.985C77.0097 27.6662 77.4607 28.3032 77.9743 28.8851L77.1809 30.6737C77.1479 30.7484 77.1388 30.8319 77.1547 30.9123C77.1707 30.9927 77.211 31.0658 77.2698 31.1214C77.9923 31.8064 78.7907 32.402 79.6486 32.8959C79.7183 32.9363 79.7987 32.9531 79.8783 32.9438C79.9578 32.9346 80.0325 32.8998 80.0917 32.8444L81.5037 31.5184C82.2016 31.8396 82.9311 32.0828 83.6796 32.2438L84.0596 34.1681C84.0752 34.249 84.1153 34.3228 84.1743 34.3789C84.2333 34.435 84.3081 34.4704 84.3879 34.4801C85.3653 34.5971 86.3526 34.5971 87.3299 34.4801C87.4096 34.4702 87.4842 34.4347 87.5431 34.3787C87.6019 34.3226 87.642 34.2489 87.6575 34.1681L88.0375 32.2438C88.7865 32.0828 89.5165 31.8396 90.2149 31.5184L91.6262 32.8444C91.6853 32.8998 91.76 32.9346 91.8396 32.9438C91.9192 32.9531 91.9995 32.9363 92.0693 32.8959C92.9268 32.4015 93.7252 31.8059 94.4481 31.1214C94.5068 31.0657 94.5469 30.9925 94.5627 30.9121C94.5785 30.8318 94.5693 30.7483 94.5362 30.6737L93.7428 28.8851C94.2571 28.3036 94.7084 27.6665 95.0887 26.985L96.9887 27.2073C97.0682 27.2164 97.1485 27.1995 97.2181 27.159C97.2877 27.1186 97.3431 27.0566 97.3763 26.9819C97.7879 26.0647 98.094 25.1014 98.2883 24.1115C98.3042 24.0316 98.2953 23.9486 98.2629 23.8742C98.2305 23.7998 98.1761 23.7376 98.1075 23.6966ZM96.8056 26.3993L94.9284 26.1809C94.8526 26.1715 94.7758 26.1857 94.708 26.2217C94.6403 26.2578 94.5846 26.3139 94.5484 26.3829C94.134 27.1686 93.6198 27.8944 93.0193 28.5411C92.967 28.5975 92.9323 28.6686 92.9197 28.7453C92.9071 28.822 92.9172 28.9009 92.9486 28.9717L93.7321 30.7368C93.1751 31.2393 92.5739 31.6876 91.9363 32.0761L90.5432 30.7665C90.4873 30.7141 90.4174 30.68 90.3426 30.6686C90.2677 30.6572 90.1912 30.669 90.1229 30.7025C89.3373 31.0875 88.5058 31.3649 87.6499 31.5278C87.5753 31.5417 87.5066 31.5782 87.4524 31.6325C87.3983 31.6869 87.3611 31.7566 87.3459 31.8327L86.9659 33.732C86.2278 33.8038 85.4847 33.8038 84.7467 33.732L84.3667 31.8327C84.3515 31.7565 84.3145 31.6866 84.2603 31.6321C84.2061 31.5776 84.1373 31.541 84.0627 31.527C83.2065 31.3653 82.3749 31.088 81.5896 30.7025C81.5212 30.6688 81.4446 30.6569 81.3696 30.6683C81.2945 30.6797 81.2245 30.7139 81.1686 30.7665L79.7755 32.0761C79.1377 31.6879 78.5364 31.2395 77.9796 30.7368L78.7624 28.9717C78.7938 28.9009 78.8039 28.822 78.7913 28.7453C78.7787 28.6686 78.744 28.5975 78.6917 28.5411C78.0919 27.8939 77.578 27.1682 77.1634 26.3829C77.128 26.3132 77.0725 26.2564 77.0045 26.2202C76.9365 26.1841 76.8593 26.1703 76.7834 26.1809L74.9069 26.3993C74.6135 25.7007 74.3845 24.9756 74.2229 24.2332L75.8668 23.2769C75.9327 23.2387 75.986 23.1812 76.0199 23.1117C76.0537 23.0422 76.0666 22.964 76.0568 22.8869C75.9421 22.0014 75.9421 21.1041 76.0568 20.2185C76.0666 20.1415 76.0537 20.0632 76.0199 19.9937C75.986 19.9243 75.9327 19.8667 75.8668 19.8285L74.2328 18.8684C74.3945 18.1263 74.6235 17.4014 74.9168 16.7031L76.7933 16.9215C76.8691 16.9316 76.9462 16.9177 77.0141 16.8816C77.0821 16.8455 77.1376 16.7889 77.1733 16.7195C77.5879 15.9341 78.1018 15.2084 78.7016 14.5612C78.7539 14.5049 78.7886 14.4337 78.8012 14.357C78.8138 14.2803 78.8037 14.2015 78.7723 14.1306L77.9895 12.3647C78.5461 11.862 79.1474 11.4139 79.7854 11.0262L81.1785 12.3359C81.2344 12.3884 81.3044 12.4226 81.3794 12.434C81.4545 12.4454 81.5311 12.4335 81.5995 12.3998C82.3848 12.0143 83.2164 11.7371 84.0725 11.5754C84.1472 11.5614 84.216 11.5248 84.2702 11.4703C84.3243 11.4158 84.3614 11.3459 84.3765 11.2696L84.7565 9.36952C85.4947 9.29931 86.2376 9.29931 86.9757 9.36952L87.3557 11.2696C87.371 11.3457 87.4081 11.4155 87.4623 11.4698C87.5165 11.5241 87.5852 11.5606 87.6597 11.5746C88.5157 11.7374 89.3472 12.0148 90.1328 12.3998C90.2011 12.4333 90.2776 12.4451 90.3524 12.4338C90.4273 12.4224 90.4972 12.3883 90.5531 12.3359L91.9461 11.0262C92.5837 11.4146 93.1849 11.8626 93.742 12.3647L92.9585 14.1306C92.9271 14.2015 92.917 14.2803 92.9296 14.357C92.9422 14.4337 92.9769 14.5049 93.0291 14.5612C93.6297 15.208 94.1439 15.9337 94.5583 16.7195C94.5945 16.7884 94.6501 16.8446 94.7179 16.8806C94.7857 16.9166 94.8625 16.9309 94.9383 16.9215L96.8155 16.7031C97.1084 17.4015 97.3373 18.1264 97.4995 18.8684L95.8563 19.8239C95.7904 19.862 95.7371 19.9196 95.7033 19.9891C95.6694 20.0585 95.6566 20.1368 95.6663 20.2139C95.7811 21.0989 95.7811 21.9956 95.6663 22.8807C95.6566 22.9577 95.6694 23.036 95.7033 23.1055C95.7371 23.175 95.7904 23.2325 95.8563 23.2707L97.4995 24.2277C97.3343 24.9708 97.102 25.6965 96.8056 26.3954V26.3993Z" fill="black"/>
<path d="M85.8613 17.7115C85.1217 17.7115 84.3987 17.9366 83.7838 18.3584C83.1689 18.7801 82.6896 19.3795 82.4066 20.0807C82.1236 20.782 82.0496 21.5537 82.194 22.2981C82.3383 23.0426 82.6945 23.7264 83.2175 24.263C83.7405 24.7997 84.4069 25.1651 85.1323 25.3131C85.8576 25.4611 86.6095 25.385 87.2927 25.0944C87.976 24.8038 88.5599 24.3118 88.9707 23.6806C89.3814 23.0494 89.6006 22.3074 89.6005 21.5484C89.5993 20.531 89.2049 19.5557 88.5039 18.8364C87.8029 18.1171 86.8525 17.7126 85.8613 17.7115ZM85.8613 24.606C85.272 24.606 84.696 24.4266 84.2061 24.0907C83.7162 23.7547 83.3343 23.2772 83.1088 22.7185C82.8834 22.1598 82.8244 21.545 82.9393 20.9519C83.0543 20.3587 83.338 19.8139 83.7547 19.3863C84.1713 18.9587 84.7021 18.6675 85.2801 18.5495C85.858 18.4315 86.457 18.4921 87.0014 18.7235C87.5457 18.9549 88.011 19.3468 88.3384 19.8497C88.6657 20.3525 88.8405 20.9436 88.8405 21.5484C88.8397 22.359 88.5255 23.1363 87.967 23.7095C87.4085 24.2827 86.6512 24.6051 85.8613 24.606Z" fill="black"/>
<path fill-rule="evenodd" clip-rule="evenodd" d="M26.2662 56.9839C24.7066 56.7975 23.1313 56.7975 21.5717 56.9839L20.8588 60.5719C19.3957 60.8486 17.9746 61.3225 16.6325 61.9814L14.0013 59.5096C12.6318 60.2987 11.3565 61.2489 10.2013 62.341L11.6788 65.6731C10.6536 66.7798 9.77535 68.0206 9.06666 69.3633L5.52278 68.9499C4.86849 70.4143 4.38237 71.9519 4.07422 73.5316L7.17806 75.3326C6.98198 76.8462 6.98198 78.3797 7.17806 79.8933L4.07422 81.7006C4.38282 83.2807 4.86971 84.8186 5.52506 86.2831L9.06894 85.8704C9.77764 87.2129 10.6559 88.4534 11.6811 89.5598L10.2036 92.892C11.3588 93.9844 12.634 94.9348 14.0036 95.7242L16.6347 93.2524C17.9769 93.9109 19.398 94.3846 20.8611 94.661L21.574 98.249C23.1335 98.4354 24.7089 98.4354 26.2685 98.249L26.9814 94.661C28.4445 94.3846 29.8656 93.9109 31.2077 93.2524L33.8389 95.7242C35.2084 94.9348 36.4837 93.9844 37.6389 92.892L36.1614 89.5598C37.1865 88.4536 38.0646 87.213 38.7728 85.8704L42.3174 86.2831C42.9728 84.8186 43.4597 83.2807 43.7683 81.7006L40.6644 79.8964C40.8597 78.3828 40.8597 76.8494 40.6644 75.3358L43.7683 73.5316C43.4594 71.9515 42.9725 70.4137 42.3174 68.9491L38.7728 69.3625C38.0646 68.0197 37.1866 66.7789 36.1614 65.6723L37.6389 62.3402C36.4837 61.2481 35.2084 60.2979 33.8389 59.5088L31.2062 61.9806C29.8641 61.3218 28.443 60.8478 26.9799 60.5711L26.2662 56.9839ZM23.9186 71.9428C25.012 71.9426 26.0809 72.2752 26.9901 72.8986C27.8993 73.5219 28.608 74.408 29.0265 75.4447C29.4451 76.4814 29.5547 77.6222 29.3414 78.7229C29.1282 79.8235 28.6018 80.8346 27.8287 81.6281C27.0556 82.4217 26.0705 82.9621 24.9981 83.1811C23.9257 83.4001 22.8141 83.2878 21.8039 82.8584C20.7938 82.429 19.9303 81.7018 19.3228 80.7687C18.7153 79.8357 18.3911 78.7387 18.3911 77.6165C18.3917 76.112 18.9742 74.6694 20.0107 73.6055C21.0471 72.5416 22.4527 71.9436 23.9186 71.9428Z" fill="#FFD997"/>
<path d="M21.5276 98.6366C21.4476 98.6271 21.3727 98.5918 21.3135 98.5357C21.2544 98.4796 21.2141 98.4057 21.1985 98.3246L20.5373 94.994C19.2146 94.7221 17.9273 94.2925 16.7016 93.714L14.2582 96.0119C14.1992 96.0674 14.1245 96.1024 14.0449 96.1118C13.9654 96.1212 13.8849 96.1045 13.8151 96.0642C12.4208 95.2593 11.1224 94.2908 9.94599 93.1782C9.88717 93.1226 9.84691 93.0495 9.83095 92.9691C9.81499 92.8887 9.82412 92.8052 9.85707 92.7305L11.2296 89.6362C10.3151 88.6186 9.51954 87.4948 8.85919 86.2877L5.56839 86.6714C5.48876 86.6815 5.40809 86.6651 5.3382 86.6247C5.26831 86.5842 5.21288 86.5219 5.18003 86.4468C4.51238 84.9546 4.01631 83.3877 3.70183 81.7777C3.68617 81.6972 3.69566 81.6137 3.72896 81.539C3.76225 81.4644 3.81765 81.4024 3.88727 81.362L6.76919 79.6857C6.61187 78.3109 6.61187 76.9219 6.76919 75.5471L3.88727 73.8708C3.81751 73.8303 3.76201 73.7683 3.72871 73.6935C3.6954 73.6186 3.68599 73.5349 3.70183 73.4543C4.01643 71.8446 4.5125 70.278 5.18003 68.786C5.21345 68.7114 5.269 68.6495 5.33874 68.6091C5.40848 68.5688 5.48885 68.5521 5.56839 68.5614L8.85919 68.9451C9.51935 67.7379 10.3149 66.6141 11.2296 65.5966L9.85707 62.5016C9.82412 62.4268 9.81499 62.3433 9.83095 62.2629C9.84691 62.1826 9.88717 62.1094 9.94599 62.0538C11.1222 60.9409 12.4206 59.9724 13.8151 59.1678C13.8849 59.1274 13.9652 59.1106 14.0448 59.1199C14.1244 59.1291 14.1991 59.1639 14.2582 59.2193L16.7016 61.5164C17.9271 60.9376 19.2145 60.508 20.5373 60.2364L21.1985 56.9058C21.2141 56.8248 21.2544 56.7509 21.3135 56.6948C21.3727 56.6387 21.4476 56.6034 21.5276 56.5938C23.1165 56.4051 24.7214 56.4051 26.3103 56.5938C26.3902 56.6035 26.465 56.6389 26.524 56.695C26.5829 56.7511 26.6231 56.8249 26.6386 56.9058L27.3006 60.2364C28.6232 60.5079 29.9103 60.9375 31.1355 61.5164L33.5789 59.2193C33.6381 59.1639 33.7128 59.1291 33.7924 59.1199C33.8719 59.1106 33.9523 59.1274 34.022 59.1678C35.4168 59.9724 36.7155 60.9409 37.8919 62.0538C37.9506 62.1095 37.9907 62.1827 38.0066 62.2631C38.0224 62.3434 38.0131 62.4269 37.9801 62.5016L36.6121 65.5966C37.5268 66.6141 38.3224 67.7379 38.9825 68.9451L42.2741 68.5614C42.3537 68.5521 42.4342 68.5689 42.5039 68.6094C42.5737 68.6499 42.6292 68.712 42.6625 68.7868C43.3293 70.2787 43.8251 71.845 44.1399 73.4543C44.1557 73.5349 44.1463 73.6186 44.113 73.6935C44.0797 73.7683 44.0242 73.8303 43.9545 73.8708L41.0725 75.5471C41.2299 76.9219 41.2299 78.3109 41.0725 79.6857L43.9545 81.362C44.0241 81.4024 44.0795 81.4644 44.1128 81.539C44.1461 81.6137 44.1556 81.6972 44.1399 81.7777C43.8252 83.3873 43.3294 84.9539 42.6625 86.446C42.6298 86.5213 42.5745 86.5839 42.5045 86.6245C42.4346 86.6651 42.3538 86.6815 42.2741 86.6714L38.9825 86.2877C38.3222 87.4948 37.5266 88.6186 36.6121 89.6362L37.9801 92.7305C38.0131 92.8051 38.0224 92.8886 38.0066 92.969C37.9907 93.0493 37.9506 93.1225 37.8919 93.1782C36.7153 94.2908 35.4166 95.2593 34.022 96.0642C33.9522 96.1045 33.8718 96.1212 33.7922 96.1118C33.7127 96.1024 33.638 96.0674 33.5789 96.0119L31.1355 93.7156C29.9102 94.2942 28.6231 94.7238 27.3006 94.9956L26.6386 98.3262C26.6231 98.4071 26.5829 98.481 26.524 98.537C26.465 98.5931 26.3902 98.6285 26.3103 98.6382C24.7214 98.8272 23.1164 98.8267 21.5276 98.6366ZM21.8879 97.8917C23.2382 98.0329 24.599 98.0329 25.9493 97.8917L26.6059 94.5837C26.6212 94.5076 26.6583 94.4379 26.7125 94.3835C26.7667 94.3292 26.8354 94.2927 26.9099 94.2788C28.3399 94.0073 29.7287 93.5436 31.0405 92.8997C31.1089 92.866 31.1856 92.8541 31.2606 92.8655C31.3356 92.8769 31.4056 92.9111 31.4616 92.9637L33.8883 95.2444C35.0622 94.5453 36.1631 93.7243 37.1737 92.7944L35.8111 89.7212C35.7797 89.6504 35.7696 89.5716 35.7822 89.4948C35.7948 89.4181 35.8295 89.347 35.8817 89.2907C36.8837 88.2093 37.742 86.9968 38.4346 85.6847C38.4708 85.6158 38.5265 85.5596 38.5942 85.5236C38.662 85.4876 38.7388 85.4733 38.8146 85.4827L42.0826 85.8641C42.6305 84.5899 43.0507 83.2617 43.3366 81.9002L40.4744 80.2356C40.4085 80.1974 40.3552 80.1399 40.3214 80.0704C40.2875 80.001 40.2746 79.9227 40.2844 79.8456C40.476 78.366 40.476 76.8668 40.2844 75.3872C40.2746 75.3101 40.2875 75.2318 40.3214 75.1624C40.3552 75.0929 40.4085 75.0354 40.4744 74.9972L43.3366 73.3326C43.0507 71.9711 42.6305 70.6429 42.0826 69.3687L38.8146 69.7493C38.7389 69.7588 38.6622 69.7447 38.5944 69.7088C38.5266 69.6729 38.4709 69.6169 38.4346 69.5481C37.7422 68.2359 36.8839 67.0234 35.8817 65.9421C35.8295 65.8858 35.7948 65.8147 35.7822 65.738C35.7696 65.6612 35.7797 65.5824 35.8111 65.5116L37.1737 62.4376C36.1631 61.508 35.0622 60.6873 33.8883 59.9884L31.4616 62.2691C31.4056 62.3217 31.3356 62.3559 31.2606 62.3673C31.1856 62.3787 31.1089 62.3668 31.0405 62.3331C29.7288 61.6888 28.3399 61.2251 26.9099 60.954C26.8353 60.94 26.7665 60.9034 26.7123 60.8489C26.6581 60.7945 26.6211 60.7246 26.6059 60.6483L25.9493 57.3403C24.599 57.1991 23.2382 57.1991 21.8879 57.3403L21.2312 60.6483C21.2161 60.7246 21.179 60.7945 21.1249 60.8489C21.0707 60.9034 21.0018 60.94 20.9272 60.954C19.497 61.2252 18.1079 61.6889 16.7959 62.3331C16.7276 62.3666 16.6511 62.3784 16.5762 62.367C16.5013 62.3556 16.4315 62.3215 16.3756 62.2691L13.9489 59.9884C12.7749 60.6871 11.6739 61.5078 10.6634 62.4376L12.0261 65.5116C12.0575 65.5824 12.0676 65.6612 12.055 65.738C12.0424 65.8147 12.0077 65.8858 11.9554 65.9421C10.9533 67.0234 10.0949 68.2359 9.40259 69.5481C9.36697 69.6175 9.31142 69.6741 9.24346 69.7101C9.17549 69.7461 9.09839 69.7598 9.02259 69.7493L5.75459 69.3687C5.20518 70.6425 4.78448 71.9708 4.49907 73.3326L7.36503 74.9972C7.43094 75.0354 7.48424 75.0929 7.51809 75.1624C7.55194 75.2318 7.5648 75.3101 7.55503 75.3872C7.36348 76.8668 7.36348 78.366 7.55503 79.8456C7.5648 79.9227 7.55194 80.001 7.51809 80.0704C7.48424 80.1399 7.43094 80.1974 7.36503 80.2356L4.50211 81.9002C4.78762 83.2615 5.20832 84.5893 5.75763 85.8626L9.02563 85.4811C9.10154 85.4704 9.17883 85.4841 9.24688 85.5202C9.31493 85.5564 9.37038 85.6133 9.40563 85.6832C10.0971 86.997 10.9547 88.2113 11.9562 89.2946C12.0085 89.3509 12.0431 89.422 12.0557 89.4987C12.0683 89.5755 12.0583 89.6543 12.0269 89.7251L10.6642 92.7983C11.6747 93.7284 12.7756 94.5493 13.9497 95.2483L16.3763 92.9676C16.4322 92.9152 16.5021 92.8811 16.577 92.8697C16.6518 92.8583 16.7283 92.8701 16.7966 92.9036C18.1088 93.5474 19.4979 94.0111 20.928 94.2827C21.0025 94.2966 21.0713 94.3331 21.1254 94.3874C21.1796 94.4418 21.2167 94.5115 21.232 94.5876L21.8879 97.8917ZM23.9186 83.6801C22.75 83.6801 21.6077 83.3245 20.6361 82.6582C19.6645 81.9919 18.9073 81.0449 18.4601 79.9369C18.0129 78.8289 17.8959 77.6097 18.1239 76.4334C18.3518 75.2572 18.9145 74.1767 19.7408 73.3287C20.5671 72.4807 21.6199 71.9032 22.7659 71.6692C23.912 71.4352 25.1 71.5553 26.1796 72.0143C27.2592 72.4732 28.1819 73.2504 28.8311 74.2476C29.4803 75.2448 29.8268 76.4171 29.8268 77.6164C29.8246 79.2238 29.2014 80.7646 28.0938 81.901C26.9862 83.0375 25.4847 83.6767 23.9186 83.6786V83.6801ZM23.9186 72.3327C22.9004 72.3327 21.905 72.6426 21.0584 73.2231C20.2118 73.8037 19.5519 74.6289 19.1622 75.5944C18.7726 76.5599 18.6706 77.6223 18.8693 78.6472C19.0679 79.6721 19.5582 80.6136 20.2782 81.3526C20.9982 82.0915 21.9156 82.5947 22.9142 82.7986C23.9129 83.0025 24.948 82.8978 25.8887 82.4979C26.8294 82.098 27.6335 81.4208 28.1992 80.5519C28.7649 79.683 29.0668 78.6614 29.0668 77.6164C29.0654 76.2155 28.5226 74.8724 27.5574 73.8818C26.5922 72.8913 25.2835 72.3341 23.9186 72.3327Z" fill="black"/>
<path fill-rule="evenodd" clip-rule="evenodd" d="M86.9271 109.218C86.9269 108.362 86.5954 107.541 86.0053 106.935C85.4153 106.33 84.6151 105.99 83.7807 105.99H41.7573C41.3401 105.983 40.9257 106.062 40.5383 106.221C40.1509 106.38 39.7983 106.617 39.5009 106.917C39.2036 107.218 38.9674 107.576 38.8062 107.971C38.645 108.366 38.562 108.79 38.562 109.218C38.562 109.647 38.645 110.071 38.8062 110.466C38.9674 110.861 39.2036 111.219 39.5009 111.52C39.7983 111.82 40.1509 112.057 40.5383 112.216C40.9257 112.375 41.3401 112.454 41.7573 112.447H83.7807C84.6152 112.447 85.4153 112.107 86.0054 111.501C86.5954 110.896 86.9269 110.074 86.9271 109.218Z" fill="white"/>
<path fill-rule="evenodd" clip-rule="evenodd" d="M86.9271 119.063C86.9271 118.207 86.5957 117.385 86.0056 116.78C85.4155 116.174 84.6152 115.834 83.7807 115.834H41.7573C41.3401 115.827 40.9257 115.906 40.5383 116.065C40.1509 116.225 39.7983 116.461 39.5009 116.762C39.2036 117.062 38.9674 117.42 38.8062 117.815C38.645 118.211 38.562 118.635 38.562 119.063C38.562 119.491 38.645 119.915 38.8062 120.31C38.9674 120.705 39.2036 121.063 39.5009 121.364C39.7983 121.664 40.1509 121.901 40.5383 122.06C40.9257 122.22 41.3401 122.298 41.7573 122.292H83.7807C84.6151 122.292 85.4153 121.952 86.0053 121.346C86.5954 120.741 86.9269 119.92 86.9271 119.063Z" fill="white"/>
<path fill-rule="evenodd" clip-rule="evenodd" d="M86.9271 128.908C86.9269 128.051 86.5954 127.23 86.0054 126.624C85.4153 126.019 84.6152 125.679 83.7807 125.678H41.7573C41.3401 125.672 40.9257 125.75 40.5383 125.91C40.1509 126.069 39.7983 126.306 39.5009 126.606C39.2036 126.907 38.9674 127.265 38.8062 127.66C38.645 128.055 38.562 128.479 38.562 128.907C38.562 129.335 38.645 129.759 38.8062 130.155C38.9674 130.55 39.2036 130.908 39.5009 131.208C39.7983 131.509 40.1509 131.746 40.5383 131.905C40.9257 132.064 41.3401 132.143 41.7573 132.136H83.7807C84.6151 132.136 85.4153 131.796 86.0053 131.19C86.5954 130.585 86.9269 129.764 86.9271 128.908Z" fill="white"/>
<path d="M83.7806 112.838H41.7572C41.2897 112.845 40.8255 112.757 40.3916 112.578C39.9576 112.399 39.5627 112.134 39.2297 111.797C38.8967 111.46 38.6322 111.059 38.4517 110.616C38.2712 110.173 38.1782 109.698 38.1782 109.218C38.1782 108.739 38.2712 108.264 38.4517 107.821C38.6322 107.378 38.8967 106.977 39.2297 106.64C39.5627 106.303 39.9576 106.038 40.3916 105.859C40.8255 105.68 41.2897 105.592 41.7572 105.599H83.7806C84.707 105.613 85.5908 106 86.2411 106.678C86.8914 107.355 87.256 108.268 87.256 109.218C87.256 110.169 86.8914 111.082 86.2411 111.759C85.5908 112.437 84.707 112.824 83.7806 112.838ZM41.7572 106.377C41.39 106.37 41.0252 106.439 40.6842 106.579C40.3432 106.719 40.0327 106.927 39.7709 107.191C39.5091 107.456 39.3011 107.771 39.1592 108.118C39.0172 108.466 38.9441 108.839 38.9441 109.216C38.9441 109.593 39.0172 109.966 39.1592 110.314C39.3011 110.661 39.5091 110.977 39.7709 111.241C40.0327 111.505 40.3432 111.713 40.6842 111.853C41.0252 111.993 41.39 112.062 41.7572 112.056H83.7806C84.5064 112.043 85.1985 111.739 85.7076 111.208C86.2166 110.676 86.5019 109.961 86.5019 109.216C86.5019 108.471 86.2166 107.756 85.7076 107.225C85.1985 106.694 84.5064 106.389 83.7806 106.377H41.7572Z" fill="black"/>
<path d="M83.7806 122.682H41.7572C41.2897 122.689 40.8255 122.601 40.3916 122.422C39.9576 122.244 39.5627 121.978 39.2297 121.641C38.8967 121.304 38.6322 120.903 38.4517 120.46C38.2712 120.018 38.1782 119.543 38.1782 119.063C38.1782 118.583 38.2712 118.108 38.4517 117.665C38.6322 117.223 38.8967 116.821 39.2297 116.484C39.5627 116.148 39.9576 115.882 40.3916 115.703C40.8255 115.525 41.2897 115.436 41.7572 115.443H83.7806C84.707 115.457 85.5908 115.845 86.2411 116.522C86.8914 117.199 87.256 118.112 87.256 119.063C87.256 120.014 86.8914 120.926 86.2411 121.604C85.5908 122.281 84.707 122.668 83.7806 122.682ZM41.7572 116.223C41.39 116.217 41.0252 116.286 40.6842 116.426C40.3432 116.566 40.0327 116.774 39.7709 117.038C39.5091 117.302 39.3011 117.618 39.1592 117.965C39.0172 118.313 38.9441 118.686 38.9441 119.063C38.9441 119.44 39.0172 119.813 39.1592 120.161C39.3011 120.508 39.5091 120.823 39.7709 121.088C40.0327 121.352 40.3432 121.56 40.6842 121.7C41.0252 121.84 41.39 121.909 41.7572 121.902H83.7806C84.5064 121.89 85.1985 121.585 85.7076 121.054C86.2166 120.523 86.5019 119.808 86.5019 119.063C86.5019 118.318 86.2166 117.603 85.7076 117.071C85.1985 116.54 84.5064 116.236 83.7806 116.223H41.7572Z" fill="black"/>
<path d="M83.7808 132.527H41.7574C40.8221 132.527 39.9251 132.146 39.2638 131.467C38.6025 130.788 38.231 129.868 38.231 128.908C38.231 127.948 38.6025 127.027 39.2638 126.348C39.9251 125.67 40.8221 125.288 41.7574 125.288H83.7808C84.7161 125.288 85.613 125.67 86.2743 126.348C86.9357 127.027 87.3072 127.948 87.3072 128.908C87.3072 129.868 86.9357 130.788 86.2743 131.467C85.613 132.146 84.7161 132.527 83.7808 132.527ZM41.7574 126.068C41.0237 126.068 40.32 126.368 39.8012 126.9C39.2824 127.432 38.991 128.155 38.991 128.908C38.991 129.661 39.2824 130.383 39.8012 130.915C40.32 131.448 41.0237 131.747 41.7574 131.747H83.7808C84.5145 131.747 85.2181 131.448 85.7369 130.915C86.2557 130.383 86.5472 129.661 86.5472 128.908C86.5472 128.155 86.2557 127.432 85.7369 126.9C85.2181 126.368 84.5145 126.068 83.7808 126.068H41.7574Z" fill="black"/>
<path fill-rule="evenodd" clip-rule="evenodd" d="M50.5238 109.323C50.5236 108.804 50.3228 108.307 49.9655 107.94C49.6082 107.573 49.1237 107.367 48.6184 107.367H43.2901C42.7848 107.367 42.3001 107.573 41.9428 107.94C41.5855 108.307 41.3848 108.804 41.3848 109.323C41.3848 109.841 41.5855 110.339 41.9428 110.705C42.3001 111.072 42.7848 111.278 43.2901 111.278H48.6184C49.1238 111.278 49.6084 111.072 49.9657 110.705C50.323 110.339 50.5238 109.841 50.5238 109.323Z" fill="black"/>
<path fill-rule="evenodd" clip-rule="evenodd" d="M60.4231 119.169C60.4229 118.65 60.2221 118.153 59.8648 117.786C59.5075 117.42 59.023 117.214 58.5178 117.214H53.1895C52.9361 117.209 52.6843 117.255 52.4487 117.351C52.2132 117.447 51.9986 117.59 51.8177 117.772C51.6367 117.955 51.4929 118.172 51.3948 118.412C51.2966 118.651 51.2461 118.909 51.2461 119.169C51.2461 119.429 51.2966 119.687 51.3948 119.926C51.4929 120.166 51.6367 120.383 51.8177 120.565C51.9986 120.747 52.2132 120.891 52.4487 120.987C52.6843 121.082 52.9361 121.129 53.1895 121.124H58.5178C59.0231 121.124 59.5078 120.918 59.8651 120.551C60.2224 120.185 60.4231 119.687 60.4231 119.169Z" fill="black"/>
<path fill-rule="evenodd" clip-rule="evenodd" d="M60.4231 129.012C60.4231 128.494 60.2224 127.996 59.8651 127.629C59.5078 127.263 59.0231 127.057 58.5178 127.057H53.1895C52.9361 127.051 52.6843 127.098 52.4487 127.194C52.2132 127.29 51.9986 127.433 51.8177 127.615C51.6367 127.797 51.4929 128.015 51.3948 128.254C51.2966 128.494 51.2461 128.752 51.2461 129.012C51.2461 129.272 51.2966 129.529 51.3948 129.769C51.4929 130.009 51.6367 130.226 51.8177 130.408C51.9986 130.59 52.2132 130.733 52.4487 130.829C52.6843 130.925 52.9361 130.972 53.1895 130.967H58.5178C59.023 130.967 59.5075 130.761 59.8648 130.394C60.2221 130.028 60.4229 129.531 60.4231 129.012Z" fill="black"/>
<path fill-rule="evenodd" clip-rule="evenodd" d="M64.6619 60.855L138.622 94.1859C138.622 94.1859 145.426 97.7022 147.956 92.0238C150.486 86.3454 142.911 83.1396 142.911 83.1396L70.9904 48.8976C70.9904 48.8976 72.9079 39.6093 65.3664 33.7656C57.8249 27.9218 46.4819 29.2876 46.4059 32.1986C46.371 33.6104 48.9793 34.9777 48.9793 34.9777L60.4135 42.3183L54.5144 53.594L41.3823 45.6247C41.3823 45.6247 38.4875 43.6193 38.6144 46.2807C38.7413 48.942 40.8944 58.6967 49.9931 62.0453C59.0918 65.3938 64.6619 60.855 64.6619 60.855ZM142.006 87.8024C142.384 87.8026 142.754 87.9179 143.069 88.1339C143.384 88.3499 143.629 88.6568 143.774 89.0159C143.919 89.3749 143.956 89.7699 143.882 90.151C143.808 90.5321 143.626 90.8821 143.358 91.1568C143.09 91.4316 142.749 91.6186 142.378 91.6944C142.007 91.7701 141.622 91.7312 141.272 91.5824C140.922 91.4337 140.623 91.1818 140.413 90.8587C140.203 90.5357 140.09 90.1558 140.09 89.7672C140.09 89.5091 140.14 89.2536 140.236 89.0152C140.332 88.7767 140.473 88.5601 140.651 88.3776C140.829 88.1952 141.04 88.0504 141.273 87.9517C141.505 87.8531 141.754 87.8023 142.006 87.8024Z" fill="white"/>
<path d="M142.986 95.6538C141.415 95.6096 139.87 95.2281 138.452 94.5337L64.7119 61.3057C63.6433 62.0803 58.2412 65.4974 49.8653 62.4157C40.838 59.0929 38.3839 49.4271 38.2373 46.3024C38.179 45.9971 38.2082 45.681 38.3214 45.3923C38.4345 45.1037 38.6268 44.8549 38.8749 44.6761C39.8378 44.12 41.4201 45.1816 41.5965 45.3056L54.369 53.0541L59.917 42.4609L48.78 35.3107C48.5201 35.1757 45.9885 33.8014 46.028 32.1907C46.1139 28.669 58.052 27.6128 65.5935 33.4527C72.4616 38.7723 71.6628 46.9779 71.4135 48.6666L143.071 82.7846C143.227 82.8493 147.251 84.584 148.494 87.8273C148.76 88.5272 148.88 89.2765 148.847 90.027C148.815 90.7775 148.629 91.5126 148.303 92.1851C147.873 93.2551 147.131 94.1627 146.179 94.7836C145.228 95.4045 144.112 95.7084 142.986 95.6538ZM65.0683 60.4446C66.8003 61.2979 88.2171 71.1797 138.775 93.8286C138.826 93.852 142.166 95.5446 144.882 94.5657C145.495 94.3342 146.054 93.9743 146.524 93.5088C146.994 93.0434 147.364 92.4826 147.611 91.8622C147.893 91.2851 148.054 90.6541 148.084 90.0094C148.115 89.3647 148.014 88.7206 147.788 88.1182C146.66 85.1807 142.805 83.5209 142.766 83.5037L70.8314 49.2493C70.7535 49.2122 70.6902 49.1491 70.6516 49.0704C70.6131 48.9916 70.6018 48.9018 70.6193 48.8156C70.6376 48.7243 72.3917 39.695 65.1367 34.0736C57.6074 28.2439 46.8443 29.9084 46.788 32.2078C46.7645 33.1571 48.536 34.3029 49.1547 34.6258L60.6185 41.9906C60.7001 42.0431 60.7593 42.1255 60.784 42.221C60.8086 42.3166 60.797 42.4182 60.7515 42.5054L54.8501 53.7779C54.8259 53.8248 54.7926 53.8661 54.7524 53.8993C54.7121 53.9325 54.6656 53.957 54.6158 53.9711C54.566 53.9853 54.514 53.9889 54.4628 53.9817C54.4116 53.9745 54.3623 53.9566 54.3181 53.9293L41.1891 45.9608C40.61 45.5622 39.6402 45.1231 39.2458 45.3524C39.0094 45.4897 38.979 45.9226 38.9942 46.2611C39.1363 49.2508 41.4855 58.5001 50.1221 61.6786C58.8963 64.9093 64.3737 60.5936 64.4269 60.5491C64.7711 60.2691 64.9216 60.3728 65.0683 60.4446Z" fill="black"/>
<path fill-rule="evenodd" clip-rule="evenodd" d="M121.014 136.765C120.064 136.753 119.116 136.876 118.199 137.131C118.043 137.348 117.935 137.597 117.88 137.86C117.826 138.123 117.827 138.395 117.883 138.658C118.035 139.656 119.273 140.039 120.336 140.328C121.164 140.604 121.872 141.168 122.34 141.921C122.768 142.462 123.328 144.904 125.235 145.178C127.143 145.453 127.819 144.469 127.819 144.469L128.189 142.308C128.341 141.848 128.422 141.366 128.43 140.88L128.362 140.842C127.639 141.248 126.807 141.402 125.991 141.281C125.176 141.161 124.42 140.773 123.837 140.175C122.781 139.218 121.791 138.187 120.873 137.091C120.932 136.988 120.98 136.879 121.014 136.765Z" fill="white"/>
<path fill-rule="evenodd" clip-rule="evenodd" d="M98.9791 136.619C98.7511 138.666 98.5307 140.197 98.5307 140.197C98.5307 140.197 103.198 146.928 106.006 145.383C106.546 145.153 107.028 144.799 107.414 144.348C107.8 143.897 108.08 143.361 108.233 142.781L108.299 142.826C108.302 143.79 108.125 144.746 107.775 145.641C107.775 145.641 107.752 147.76 105.293 147.821C102.835 147.882 100.63 145.993 99.8896 145.053C99.1494 144.112 96.557 140.845 96.2857 139.711C95.2642 136.25 97.7114 136.65 98.9791 136.619Z" fill="white"/>
<path fill-rule="evenodd" clip-rule="evenodd" d="M89.1233 71.895L97.2963 59.1412C98.6476 57.0352 101.351 55.8652 102.626 54.8348C103.901 53.8045 105.991 51.2539 108.382 51.1587C110.167 51.0877 110.57 51.2032 113.145 53.0307C116.851 55.6624 119.312 55.3434 121.049 57.128C122.785 58.9127 123.798 63.4562 125.695 66.7103C127.592 69.9645 130.616 74.164 131.015 77.3628L120.634 72.5845L118.75 68.1268C116.367 71.7351 117.278 76.5032 116.85 80.0873C116.422 83.6714 120.476 88.4138 121.366 91.7288C122.257 95.0438 121.484 98.7067 121.575 104.053C121.665 109.399 123.376 110.361 124.504 114.305C125.526 117.767 126.066 121.359 126.108 124.976C126.187 128.336 126.917 131.646 128.257 134.713C129.019 136.253 129.457 137.94 129.542 139.665C128.073 141.856 125.571 141.748 123.832 140.174C122.776 139.216 121.786 138.186 120.868 137.089C121.837 135.499 120.314 129.084 118.918 125.929C117.521 122.774 116.264 117.236 115.694 113.882C115.124 110.529 109.833 99.3292 109.833 99.3292C109.599 103.083 107.92 110.234 108.313 114.135C108.741 117.366 108.833 120.634 108.588 123.885C108.284 126.593 107.663 134.514 108.392 136.898C109.122 139.282 109.831 139.831 108.876 141.052C107.92 142.273 108.81 143.841 106.001 145.386C103.193 146.93 98.526 140.2 98.526 140.2C99.0444 136.607 99.3664 132.987 99.4905 129.358V114.779C99.4905 112.492 100.827 110.567 99.4905 105.154C98.1544 99.7418 99.4905 84.3773 99.4905 82.9515C99.4905 81.5257 101.435 75.7646 100.827 73.7007C100.438 72.2275 100.224 70.7118 100.188 69.1861C100.188 69.1861 94.2875 78.4142 91.8038 79.2481C89.3201 80.0819 86.7688 77.7973 84.7503 76.6C82.9883 75.4516 81.5773 73.8169 80.6789 71.8833C80.5309 71.524 80.3039 71.2048 80.0157 70.9506C79.7275 70.6963 79.3859 70.5139 79.0176 70.4177C79.1033 69.4604 79.4511 68.5475 80.0208 67.7844L89.1233 71.895Z" fill="#81F8F8"/>
<path d="M142.006 92.122C141.552 92.1218 141.109 91.9836 140.732 91.7248C140.354 91.466 140.06 91.0982 139.887 90.668C139.713 90.2377 139.668 89.7643 139.757 89.3076C139.845 88.8509 140.064 88.4313 140.384 88.1021C140.705 87.7728 141.114 87.5485 141.559 87.4576C142.004 87.3668 142.465 87.4133 142.885 87.5915C143.304 87.7696 143.662 88.0713 143.914 88.4584C144.166 88.8455 144.301 89.3007 144.301 89.7664C144.301 90.391 144.059 90.9899 143.629 91.4316C143.198 91.8733 142.615 92.1216 142.006 92.122ZM142.006 88.1924C141.703 88.1925 141.406 88.285 141.154 88.4582C140.901 88.6314 140.705 88.8774 140.589 89.1652C140.473 89.4531 140.443 89.7697 140.502 90.0752C140.561 90.3806 140.708 90.6612 140.922 90.8813C141.137 91.1014 141.411 91.2513 141.708 91.3119C142.006 91.3725 142.314 91.3412 142.595 91.2218C142.875 91.1025 143.115 90.9005 143.283 90.6415C143.452 90.3824 143.541 90.0779 143.541 89.7664C143.541 89.3489 143.379 88.9486 143.091 88.6535C142.803 88.3584 142.413 88.1926 142.006 88.1924Z" fill="black"/>
<path fill-rule="evenodd" clip-rule="evenodd" d="M102.332 41.4415C102.433 41.9581 102.365 42.4944 102.139 42.9672C101.759 43.5498 100.715 44.1972 100.843 44.5833C100.97 44.9694 101.744 45.3735 101.744 45.3735C101.744 45.3735 101.164 46.2315 101.473 46.5076C101.746 46.7072 102.057 46.8471 102.385 46.9187C102.385 46.9187 101.718 46.9584 101.701 47.3328C101.683 47.7072 102.25 47.9849 102.257 48.2743C102.264 48.5637 101.694 50.8296 104.426 50.5433L105.014 52.7C105.014 52.7 107.041 51.0339 108.738 51.186C109.756 51.2769 110.75 51.5507 111.676 51.9949C111.676 51.9949 110.709 49.8109 111.135 48.623C111.135 48.623 109.463 48.8312 109.048 47.6012C109.048 47.6012 110.499 46.7705 110.208 45.9756C109.916 45.1808 109.296 44.4936 108.384 45.1325C107.472 45.7713 106.882 46.8921 105.946 45.7019C105.011 44.5116 104.73 41.2317 104.73 41.2317L102.332 41.4415Z" fill="#FFD997"/>
<path fill-rule="evenodd" clip-rule="evenodd" d="M115.623 44.3806L104.717 41.3097L102.025 40.0555C102.025 40.0555 102.838 35.1961 107.467 34.8295C112.096 34.4629 115.922 37.235 116.086 39.7668C116.18 41.3204 116.023 42.8793 115.623 44.3806Z" fill="white"/>
<path fill-rule="evenodd" clip-rule="evenodd" d="M75.7473 64.3197C75.2001 64.0677 75.536 65.0006 75.9753 65.9312L74.4233 65.3157C74.4233 65.3157 74.5601 67.5286 76.0064 68.6097C76.9404 69.2941 77.9429 69.874 78.997 70.3397C79.1125 69.4722 79.4034 68.639 79.8513 67.8936C79.8513 67.8936 76.7771 64.7947 75.7473 64.3197Z" fill="#FFD997"/>
<path d="M131.394 77.3145C130.983 74.0096 127.905 69.7345 126.024 66.5115C124.144 63.2885 123.136 58.717 121.32 56.8535C119.848 55.3427 118.152 55.3926 115.13 53.8115C114.039 53.1878 112.983 52.5013 111.967 51.7555C111.647 50.8807 111.497 49.9501 111.526 49.0161C111.875 48.9936 112.22 48.9262 112.553 48.8156C112.487 49.233 112.544 49.6611 112.717 50.0449C112.89 50.4287 113.171 50.7506 113.524 50.9692C115.329 51.9177 117.147 50.3374 117.521 48.6823C117.866 47.1597 117.078 45.634 115.023 45.7237C115.135 45.3867 115.223 45.0418 115.287 44.6918C115.395 44.732 115.508 44.7582 115.622 44.7698C115.703 44.7698 115.783 44.7431 115.848 44.6935C115.913 44.6439 115.962 44.5742 115.985 44.4944C116.402 42.9489 116.564 41.3429 116.465 39.7427C116.307 38.535 115.69 37.4404 114.75 36.6968C112.693 34.9934 110.069 34.1843 107.439 34.4426C103.217 34.7741 101.971 38.6632 101.71 39.7232C99.0344 40.3074 99.096 40.9766 99.1173 41.2005C99.1416 41.468 99.1788 41.8682 101.448 41.8682C101.628 41.8682 101.821 41.8682 102.029 41.8604C102.049 42.1721 101.977 42.4828 101.821 42.7511C101.266 43.6091 99.4418 44.3111 101.198 45.4967C101.091 45.6518 101.034 45.8369 101.034 46.0267C101.034 46.2166 101.091 46.4017 101.198 46.5568C101.292 46.6708 101.401 46.7715 101.521 46.8563C101.404 46.9794 101.334 47.1427 101.327 47.3149C101.336 47.4739 101.377 47.6292 101.447 47.7712C101.518 47.9132 101.616 48.0388 101.735 48.1402C101.791 48.2002 101.873 48.2829 101.883 48.2759C101.883 48.3001 101.878 48.3367 101.873 48.3835C101.802 48.7318 101.808 49.0919 101.89 49.4376C101.972 49.7833 102.129 50.1057 102.348 50.3811C102.588 50.5933 102.866 50.7537 103.168 50.8525C103.469 50.9512 103.787 50.9864 104.102 50.956C104.186 51.5165 104.336 52.0646 104.547 52.5885C104.1 52.9637 103.686 53.3513 103.312 53.7008C102.618 54.4006 101.834 54.9995 100.981 55.4807C99.6417 56.3239 97.975 57.373 96.9794 58.926L88.9842 71.406L80.0428 67.3617C79.9766 67.3323 79.9035 67.3228 79.8323 67.3344C79.0145 66.5232 76.812 64.3844 75.9046 63.9656C75.7976 63.8985 75.6715 63.871 75.5471 63.8874C75.4227 63.9039 75.3076 63.9633 75.2206 64.0561C75.1263 64.1621 74.9546 64.3587 75.2677 65.2549L74.5639 64.9585C74.5044 64.9334 74.4395 64.9242 74.3755 64.9319C74.3115 64.9395 74.2505 64.9638 74.1981 65.0023C74.1458 65.0408 74.1038 65.0924 74.0762 65.1521C74.0486 65.2119 74.0362 65.2778 74.0403 65.3438C74.0456 65.4413 74.2067 67.7525 75.7784 68.9279C76.697 69.6015 77.6805 70.1765 78.7135 70.6439C78.7704 70.7254 78.8556 70.7812 78.9514 70.7999C79.2598 70.8838 79.5451 71.0395 79.7854 71.2548C80.0257 71.4702 80.2144 71.7394 80.3369 72.0417C81.2683 74.0497 82.734 75.7465 84.5648 76.9362C86.7293 78.2209 89.2441 80.5156 91.9261 79.6186C94.0541 78.9041 98.2296 72.8615 99.875 70.3748C99.9591 71.5387 100.157 72.6909 100.467 73.8139C101.035 75.7412 99.115 81.4579 99.115 82.9516C99.115 84.3868 97.766 99.7442 99.1264 105.251C100.438 110.567 99.115 112.434 99.115 114.779V129.359C99.0695 131.657 98.9107 133.951 98.6392 136.232C97.4323 136.22 96.5576 136.306 96.0324 137.022C95.6489 137.509 95.4012 138.093 95.3158 138.713C95.2304 139.333 95.3105 139.965 95.5475 140.541C95.8827 141.696 98.2273 144.753 99.2199 146.018C101.004 148.284 104.844 149.829 106.769 148.358C107.964 147.444 108.689 144.399 108.68 142.825C108.679 142.776 108.669 142.728 108.651 142.682C108.725 142.186 108.905 141.713 109.177 141.296C110.287 139.877 109.472 139.112 108.759 136.78C108.081 134.565 108.62 127.03 108.97 123.93C109.22 120.653 109.128 117.358 108.696 114.102C108.354 110.726 109.633 104.65 110.083 100.774C111.475 103.795 114.88 111.357 115.322 113.956C115.959 117.7 117.248 123.101 118.573 126.097C119.935 129.174 121.108 134.443 120.722 136.393C120.039 136.411 119.359 136.479 118.686 136.598C118.415 136.643 118.155 136.737 117.917 136.876C117.724 137.136 117.587 137.436 117.517 137.755C117.446 138.075 117.443 138.406 117.508 138.726C117.707 140.025 119.292 140.455 120.239 140.712C120.932 140.936 121.528 141.4 121.926 142.023C122.109 142.24 122.251 142.49 122.346 142.76C123.163 144.532 123.962 145.624 125.879 145.624C126.298 145.66 126.72 145.595 127.111 145.435C127.501 145.275 127.85 145.024 128.13 144.701C128.163 144.654 128.185 144.599 128.194 144.541C128.63 141.802 128.731 142.575 128.802 141.018C129.215 140.709 129.572 140.329 129.858 139.895C129.903 139.828 129.927 139.749 129.925 139.668C129.844 137.879 129.392 136.13 128.6 134.535C127.291 131.529 126.575 128.288 126.492 124.997C126.456 121.337 125.911 117.7 124.873 114.198C123.708 110.118 122.048 109.323 121.959 104.048C121.869 98.6615 122.651 95.0267 121.738 91.6267C120.834 88.2657 116.83 83.5498 117.233 80.1365C117.637 76.7233 116.859 72.3919 118.687 68.9825L120.013 72.2585C119.984 72.3494 119.989 72.4477 120.027 72.5349C120.065 72.6222 120.132 72.6923 120.216 72.732C131.61 78.0758 130.889 77.7505 131.017 77.7505C131.07 77.7505 131.123 77.7387 131.172 77.7161C131.221 77.6935 131.265 77.6605 131.301 77.6194C131.336 77.5782 131.363 77.5297 131.379 77.4772C131.395 77.4246 131.4 77.3692 131.394 77.3145ZM107.496 35.221C109.925 34.979 112.349 35.7205 114.252 37.2872C115.038 37.8958 115.56 38.796 115.707 39.7949C115.784 41.1739 115.665 42.5571 115.354 43.9009C103.65 40.7606 104.861 40.9369 102.463 39.8308C102.714 38.8121 103.81 35.5104 107.496 35.221ZM104.809 50.509C104.804 50.4577 104.79 50.4079 104.766 50.3623C104.743 50.3168 104.711 50.2765 104.672 50.2438C104.633 50.2111 104.588 50.1866 104.54 50.1718C104.492 50.1569 104.442 50.152 104.392 50.1572C104.133 50.2215 103.864 50.226 103.604 50.1702C103.344 50.1145 103.099 50 102.887 49.8351C102.752 49.6396 102.66 49.4171 102.615 49.1823C102.57 48.9474 102.574 48.7055 102.627 48.4724C102.658 48.1659 102.667 48.0177 102.285 47.6059C102.22 47.5295 102.149 47.4583 102.073 47.3929C102.204 47.2881 102.359 47.2182 102.523 47.1893C102.709 47.1487 102.891 47.0924 103.069 47.0209C103.148 46.9875 103.213 46.9277 103.255 46.8512C103.297 46.7747 103.313 46.6859 103.299 46.5992C103.286 46.5125 103.245 46.433 103.182 46.3735C103.119 46.314 103.038 46.278 102.953 46.2713C102.56 46.2503 102.181 46.1151 101.861 45.8813C101.909 45.7912 101.965 45.7065 102.03 45.6286C102.069 45.5838 102.096 45.5307 102.112 45.4733C102.127 45.4159 102.129 45.3557 102.118 45.2972C102.107 45.2388 102.083 45.1838 102.048 45.1363C102.013 45.0888 101.968 45.0501 101.916 45.0233C101.657 44.8959 101.423 44.7194 101.227 44.503C101.384 44.2363 102.139 43.663 102.454 43.1817C102.698 42.7772 102.815 42.3056 102.789 41.8307C103.254 41.8081 103.777 41.7746 104.368 41.7278C104.463 42.7738 104.815 45.4086 105.99 46.2448C107.358 47.2143 107.983 45.9757 108.549 45.4648C108.625 45.3953 108.705 45.3236 108.789 45.2542C109.187 44.9219 109.747 45.3509 109.825 45.9725C109.893 46.4975 108.768 47.6433 107.596 47.2081C107.517 47.1792 107.43 47.1781 107.35 47.2049C107.271 47.2317 107.202 47.2849 107.154 47.3563C107.107 47.4276 107.084 47.513 107.089 47.5991C107.094 47.6851 107.127 47.7671 107.182 47.8321C107.364 48.1156 107.648 48.3137 107.971 48.383C108.295 48.4523 108.632 48.3872 108.909 48.2018C109.414 48.6902 110.073 48.976 110.766 49.0067C110.758 49.7414 110.835 50.4744 110.994 51.1907C110.172 50.8031 109.263 50.656 108.365 50.7656C107.195 50.8766 106.083 51.3377 105.167 52.0916C104.987 51.58 104.866 51.0482 104.809 50.5075V50.509ZM108.398 51.5503C109.835 51.4879 110.257 51.5082 112.147 52.8061C109.549 52.4306 106.9 52.7381 104.449 53.7C105.565 52.6891 106.949 51.6065 108.398 51.5488V51.5503ZM78.6816 69.7719C77.8205 69.357 76.9979 68.8628 76.2238 68.2954C75.5271 67.6948 75.058 66.8622 74.8983 65.9429L75.6439 66.2588L76.4852 67.7657C76.536 67.8546 76.6189 67.9192 76.7159 67.9455C76.8129 67.9719 76.9162 67.9577 77.0031 67.9062C77.09 67.8547 77.1535 67.7701 77.1798 67.6707C77.2061 67.5713 77.193 67.4653 77.1434 67.3757C76.6857 66.577 76.2841 65.7458 75.9418 64.8883C77.145 65.8336 78.2874 66.8578 79.3618 67.9545C79.0377 68.5162 78.8085 69.1301 78.6839 69.7703L78.6816 69.7719ZM80.2928 70.6822C80.0312 70.4436 79.7294 70.2562 79.4021 70.1291C79.4965 69.4552 79.7297 68.8096 80.0861 68.2353L81.2086 68.7431C80.7415 69.294 80.4262 69.9628 80.2951 70.6806L80.2928 70.6822ZM101.193 73.5892C100.823 72.1906 100.616 70.7523 100.574 69.3039C100.918 68.7891 101.275 68.233 101.628 67.6698C102.025 70.0242 102.304 72.398 102.464 74.7818C102.428 76.757 102.19 78.7229 101.756 80.6474C101.119 80.5265 100.64 80.4205 100.374 80.3588C100.77 78.6483 101.653 75.1438 101.194 73.5877L101.193 73.5892ZM116.444 80.6092C116.445 81.0817 116.498 81.5526 116.6 82.0132C112.608 84.6754 105.791 83.7464 102.16 82.9796C102.218 82.5116 102.29 82.0319 102.369 81.5561C106.674 82.3057 112.54 82.652 116.445 80.61L116.444 80.6092ZM100.195 81.117C100.475 81.1833 100.968 81.2948 101.619 81.4204C101.543 81.8884 101.471 82.3517 101.413 82.8166C100.715 82.6552 100.197 82.5155 99.9259 82.4399C99.9859 82.0842 100.082 81.624 100.196 81.1178L100.195 81.117ZM99.8651 83.2331C100.183 83.3221 100.686 83.4562 101.328 83.606C101.087 86.2822 101.024 100.835 101.533 104.496C102.041 108.175 102.762 110.238 101.773 112.342C101.165 113.643 100.412 117.765 99.8735 121.112V114.778C99.8735 112.559 101.219 110.56 99.8613 105.058C98.6255 100.048 99.7313 86.4233 99.8666 83.2339L99.8651 83.2331ZM105.282 147.427C103.125 147.481 101.004 145.848 100.184 144.803C98.7046 142.925 96.8912 140.435 96.6488 139.595C96.3562 138.585 96.3524 137.879 96.6381 137.489C96.9969 137 97.8541 137.002 98.5495 137.009C98.3428 138.803 98.1574 140.111 98.1528 140.14C98.1388 140.24 98.1628 140.341 98.2197 140.423C99.8856 142.826 103.621 147.139 106.183 145.727C106.761 145.426 107.285 145.026 107.733 144.544C107.411 146.011 106.644 147.397 105.283 147.431L105.282 147.427ZM126.157 144.322C124.789 144.467 124.024 142.762 123.256 141.725C122.438 140.588 121.287 139.749 119.972 139.329C119.024 139.031 117.877 138.177 118.545 137.418C119.188 137.276 119.841 137.195 120.498 137.176C120.511 137.235 120.537 137.29 120.574 137.337C121.505 138.45 122.51 139.494 123.582 140.464C124.156 141.034 124.875 141.429 125.656 141.604C126.437 141.779 127.25 141.727 128.004 141.455C127.891 142.564 127.49 144.18 126.159 144.326L126.157 144.322ZM119.056 87.6269C121.294 91.7437 121.621 92.4488 121.321 98.7988C121.248 100.346 121.165 102.099 121.198 104.058C121.29 109.518 123.022 110.488 124.143 114.412C125.157 117.831 125.693 121.381 125.732 124.955C125.804 128.385 126.55 131.765 127.925 134.893C128.638 136.343 129.058 137.925 129.161 139.546C127.851 141.381 125.682 141.323 124.087 139.879C123.108 138.989 122.184 138.036 121.32 137.028C122.27 134.616 120.18 127.84 119.263 125.765C117.965 122.831 116.698 117.513 116.071 113.812C115.539 110.685 111.102 101.125 110.295 99.408C110.713 98.0801 111.225 96.7855 111.828 95.5345L111.999 95.2358C112.888 93.7023 114.968 90.1127 113.877 85.7479C113.866 85.6966 113.846 85.648 113.816 85.6052C113.787 85.5623 113.749 85.526 113.706 85.4984C113.662 85.4708 113.614 85.4525 113.563 85.4445C113.513 85.4366 113.461 85.4393 113.411 85.4523C113.362 85.4653 113.315 85.4885 113.275 85.5203C113.234 85.5522 113.2 85.5922 113.175 85.6379C113.15 85.6835 113.134 85.7339 113.128 85.7861C113.122 85.8382 113.127 85.891 113.142 85.9413C114.153 89.9926 112.185 93.3872 111.345 94.8372L111.169 95.1445C110.396 96.6607 109.805 98.2672 109.408 99.929C109.051 103.785 107.559 110.425 107.94 114.179C108.356 117.381 108.448 120.618 108.214 123.84C107.975 125.964 107.242 134.425 108.034 137.013C108.794 139.495 109.383 139.786 108.585 140.806C107.511 142.179 108.5 143.57 105.826 145.042C103.813 146.146 100.251 141.963 98.9288 140.098C99.4492 136.541 99.7651 132.955 99.875 129.36C99.875 124.992 99.8621 126.366 99.9236 125.922C99.9388 125.811 101.45 114.832 102.459 112.683C103.569 110.325 102.799 108.081 102.287 104.389C101.778 100.711 101.865 86.2783 102.077 83.7745C106.589 84.7354 112.854 85.2822 116.808 82.8057C117.402 84.4856 118.156 86.1017 119.057 87.6308L119.056 87.6269ZM120.787 72.1431L119.163 68.1277C120.032 66.0722 120.625 63.9054 120.926 61.6864C120.932 61.5861 120.899 61.4875 120.836 61.4112C120.772 61.3349 120.682 61.2866 120.585 61.2766C120.487 61.2665 120.39 61.2954 120.313 61.3572C120.236 61.419 120.185 61.509 120.171 61.6084C119.863 63.7891 119.273 65.9178 118.416 67.9381C116.068 71.5261 116.837 76.2061 116.516 79.6826C115.238 80.3983 113.845 80.8695 112.403 81.0733C112.422 79.5843 112.574 73.1516 113.753 68.4459C115.137 62.9235 112.473 57.6507 112.358 57.4284C112.335 57.382 112.304 57.3407 112.265 57.3069C112.227 57.2732 112.182 57.2476 112.134 57.2318C112.086 57.2159 112.035 57.2101 111.985 57.2147C111.934 57.2192 111.886 57.2341 111.841 57.2583C111.796 57.2826 111.756 57.3158 111.724 57.3559C111.692 57.396 111.668 57.4424 111.654 57.4921C111.64 57.5419 111.635 57.5941 111.641 57.6457C111.646 57.6973 111.662 57.7473 111.686 57.7927C111.713 57.8449 114.326 63.0272 113.017 68.2509C111.783 73.1743 111.655 79.9197 111.641 81.181C108.591 81.4668 105.517 81.3314 102.502 80.7785C102.946 78.7999 103.187 76.7791 103.221 74.7491C103.032 72.0435 102.704 69.3501 102.238 66.68C103.515 64.5865 104.594 62.6591 104.612 62.631C104.662 62.5413 104.676 62.4348 104.65 62.3348C104.624 62.2348 104.56 62.1496 104.473 62.0979C104.385 62.0461 104.281 62.0322 104.184 62.059C104.087 62.0859 104.004 62.1513 103.953 62.241C103.931 62.2808 101.673 66.2245 99.8788 68.9615C98.2296 71.4778 93.6225 78.2248 91.689 78.8729C89.409 79.6405 86.9481 77.4471 84.944 76.2576C83.2537 75.1475 81.8982 73.5761 81.0293 71.7196C80.9722 71.5883 80.9067 71.4612 80.8332 71.3389C80.8821 71.3063 80.9231 71.2628 80.9532 71.2116C80.9834 71.1604 81.0018 71.1029 81.0072 71.0433C81.0969 70.2963 81.4307 69.6025 81.9542 69.0754L88.9697 72.2484C89.052 72.2855 89.1443 72.2915 89.2304 72.2654C89.3165 72.2392 89.3908 72.1827 89.4402 72.1057L97.6125 59.3519C98.776 57.5368 101.067 56.4097 102.435 55.4519C102.768 55.2647 109.338 51.6541 114.803 54.5089H114.812C117.508 55.9448 119.44 56.0174 120.782 57.3949C122.434 59.0906 123.48 63.659 125.372 66.9023C127.12 69.8998 129.808 73.6883 130.509 76.6882L120.787 72.1431Z" fill="black"/>
<path fill-rule="evenodd" clip-rule="evenodd" d="M120.95 86.2783C120.95 86.2783 120.042 87.6488 120.656 88.1644C120.832 88.314 121.041 88.4166 121.265 88.4631C121.489 88.5097 121.721 88.4987 121.939 88.4311C121.939 88.4311 122.566 90.1245 123.389 89.1924C123.326 90.1378 124.184 90.3538 124.529 89.7173C124.529 89.7173 125.415 90.8694 125.873 90.2633C125.873 90.2633 126.803 91.3265 127.158 90.0637C127.558 88.2541 126.442 88.1573 126.094 88.7275C126.094 88.7275 125.638 87.5778 124.902 88.2993C124.902 88.2993 124.351 87.1449 123.629 87.8999C123.629 87.8999 123.864 86.3158 123.057 86.3516C122.251 86.3875 122.128 86.7689 122.128 86.7689L120.95 86.2783Z" fill="#FFD997"/>
<path d="M126.971 88.0996C126.847 88.0485 126.713 88.0254 126.578 88.0317C126.444 88.038 126.313 88.0737 126.193 88.1363C126.072 87.9396 125.886 87.7936 125.669 87.7242C125.453 87.6548 125.219 87.6665 125.01 87.7572C124.903 87.5975 124.758 87.4683 124.589 87.3813C124.42 87.2943 124.232 87.2524 124.043 87.2595C124.01 86.5482 123.732 85.9476 123.044 85.9632C122.674 85.9501 122.311 86.0698 122.017 86.3017L121.093 85.9179C121.012 85.8847 120.923 85.8806 120.84 85.9064C120.757 85.9323 120.686 85.9864 120.637 86.0599C120.524 86.2299 119.558 87.7455 120.416 88.4662C120.596 88.6187 120.803 88.7329 121.027 88.8024C121.25 88.8719 121.484 88.8952 121.717 88.871C122.005 89.4513 122.491 90.0012 123.104 89.8335C123.154 89.9731 123.234 90.0991 123.338 90.2017C123.443 90.3044 123.569 90.3808 123.707 90.4251C123.845 90.4694 123.991 90.4804 124.134 90.4572C124.277 90.434 124.413 90.3773 124.531 90.2914C124.683 90.4926 124.888 90.6445 125.122 90.7292C125.356 90.8138 125.609 90.8276 125.85 90.7688C126.528 91.3046 127.25 91.1588 127.532 90.1518C127.864 88.6534 127.25 88.2174 126.971 88.0996ZM120.897 87.8656C120.723 87.7197 120.881 87.1995 121.107 86.7689L121.819 87.0645C121.821 87.4174 121.762 87.7678 121.645 88.0996C121.511 88.1134 121.376 88.0995 121.248 88.0588C121.119 88.0181 121 87.9513 120.897 87.8625V87.8656ZM122.873 89.084C122.715 89.0535 122.487 88.7298 122.347 88.4171C122.535 87.9239 122.609 87.3925 122.563 86.8649C122.724 86.7842 122.901 86.7436 123.08 86.7463C123.094 86.7419 123.109 86.7419 123.122 86.7466C123.136 86.7512 123.148 86.7601 123.156 86.772C123.294 87.1056 123.331 87.4744 123.261 87.8297L123.038 89.0083C122.984 89.0551 122.922 89.0988 122.87 89.0808L122.873 89.084ZM123.769 89.24L123.985 88.0996C124.007 88.0776 124.033 88.0605 124.062 88.0496C124.091 88.0387 124.121 88.0342 124.152 88.0364C124.267 88.0544 124.412 88.2174 124.507 88.3671C124.434 88.7649 124.33 89.1561 124.197 89.5371C124.034 89.8164 123.744 89.7111 123.767 89.2407L123.769 89.24ZM124.971 89.6393C125.084 89.2689 125.179 88.8927 125.254 88.5122C125.295 88.4741 125.35 88.4535 125.406 88.4545C125.515 88.4779 125.655 88.6729 125.729 88.8242C125.714 89.2386 125.654 89.65 125.549 90.0504C125.441 90.0629 125.194 89.885 124.969 89.6401L124.971 89.6393ZM126.799 89.9568C126.727 90.2134 126.647 90.2852 126.619 90.2906C126.503 90.2773 126.394 90.2252 126.31 90.1424C126.411 89.7237 126.469 89.2956 126.485 88.8648C126.512 88.8406 126.544 88.8238 126.579 88.8161C126.614 88.8083 126.65 88.8097 126.684 88.8203C126.798 88.8695 126.966 89.1744 126.796 89.9576L126.799 89.9568Z" fill="black"/>
</svg>
