<svg width="375" height="812" viewBox="0 0 375 812" fill="none" xmlns="http://www.w3.org/2000/svg">
<g clip-path="url(#clip0_70_12480)">
<rect width="375" height="812" fill="#5545B7"/>
<rect width="292" height="364" fill="#5545B7"/>
<mask id="mask0_70_12480" style="mask-type:luminance" maskUnits="userSpaceOnUse" x="0" y="0" width="292" height="364">
<rect width="292" height="364" fill="white"/>
</mask>
<g mask="url(#mask0_70_12480)">
<path fill-rule="evenodd" clip-rule="evenodd" d="M56.9255 318.694L139.353 187.946L230.324 253.32V363.873H123.405L56.9255 318.694Z" fill="url(#paint0_linear_70_12480)" fill-opacity="0.2" style="mix-blend-mode:multiply"/>
<g filter="url(#filter0_d_70_12480)">
<rect x="50" y="185" width="91.8507" height="134.025" rx="10" fill="#302C48"/>
</g>
<mask id="path-5-outside-1_70_12480" maskUnits="userSpaceOnUse" x="65" y="221" width="62" height="62" fill="black">
<rect fill="white" x="65" y="221" width="62" height="62"/>
<path fill-rule="evenodd" clip-rule="evenodd" d="M78.704 223C76.2187 223 74.204 225.015 74.204 227.5V232.943C69.7205 238.017 67 244.682 67 251.982C67 259.282 69.7205 265.948 74.204 271.022V276.465C74.204 278.95 76.2187 280.965 78.704 280.965H113.828C116.314 280.965 118.328 278.95 118.328 276.465V269.952C122.273 265.027 124.632 258.78 124.632 251.982C124.632 245.185 122.273 238.938 118.328 234.013V227.5C118.328 225.015 116.314 223 113.828 223H78.704Z"/>
</mask>
<path fill-rule="evenodd" clip-rule="evenodd" d="M78.704 223C76.2187 223 74.204 225.015 74.204 227.5V232.943C69.7205 238.017 67 244.682 67 251.982C67 259.282 69.7205 265.948 74.204 271.022V276.465C74.204 278.95 76.2187 280.965 78.704 280.965H113.828C116.314 280.965 118.328 278.95 118.328 276.465V269.952C122.273 265.027 124.632 258.78 124.632 251.982C124.632 245.185 122.273 238.938 118.328 234.013V227.5C118.328 225.015 116.314 223 113.828 223H78.704Z" fill="white"/>
<path d="M74.204 232.943L75.7027 234.267L76.204 233.7V232.943H74.204ZM74.204 271.022H76.204V270.265L75.7027 269.697L74.204 271.022ZM118.328 269.952L116.767 268.701L116.328 269.249V269.952H118.328ZM118.328 234.013H116.328V234.716L116.767 235.264L118.328 234.013ZM76.204 227.5C76.204 226.119 77.3233 225 78.704 225V221C75.1141 221 72.204 223.91 72.204 227.5H76.204ZM76.204 232.943V227.5H72.204V232.943H76.204ZM69 251.982C69 245.189 71.5296 238.99 75.7027 234.267L72.7052 231.619C67.9114 237.044 65 244.176 65 251.982H69ZM75.7027 269.697C71.5296 264.975 69 258.776 69 251.982H65C65 259.789 67.9114 266.921 72.7052 272.346L75.7027 269.697ZM76.204 276.465V271.022H72.204V276.465H76.204ZM78.704 278.965C77.3233 278.965 76.204 277.846 76.204 276.465H72.204C72.204 280.055 75.1141 282.965 78.704 282.965V278.965ZM113.828 278.965H78.704V282.965H113.828V278.965ZM116.328 276.465C116.328 277.846 115.209 278.965 113.828 278.965V282.965C117.418 282.965 120.328 280.055 120.328 276.465H116.328ZM116.328 269.952V276.465H120.328V269.952H116.328ZM122.632 251.982C122.632 258.309 120.438 264.118 116.767 268.701L119.889 271.202C124.108 265.936 126.632 259.251 126.632 251.982H122.632ZM116.767 235.264C120.438 239.846 122.632 245.656 122.632 251.982H126.632C126.632 244.714 124.108 238.029 119.889 232.763L116.767 235.264ZM116.328 227.5V234.013H120.328V227.5H116.328ZM113.828 225C115.209 225 116.328 226.119 116.328 227.5H120.328C120.328 223.91 117.418 221 113.828 221V225ZM78.704 225H113.828V221H78.704V225Z" fill="black" fill-opacity="0.398494" mask="url(#path-5-outside-1_70_12480)"/>
<rect x="85.1194" y="240.769" width="6.30348" height="22.4874" rx="3.15174" fill="#302C48"/>
<rect x="100.428" y="240.769" width="6.30348" height="22.4874" rx="3.15174" fill="#302C48"/>
</g>
<rect x="292" y="-45" width="292" height="857" fill="#5041AB"/>
<path d="M25.432 523.168C23.864 523.168 22.424 522.8 21.112 522.064C19.8 521.328 18.76 520.312 17.992 519.016C17.224 517.704 16.84 516.224 16.84 514.576C16.84 512.944 17.224 511.48 17.992 510.184C18.76 508.872 19.8 507.848 21.112 507.112C22.424 506.376 23.864 506.008 25.432 506.008C27.016 506.008 28.456 506.376 29.752 507.112C31.064 507.848 32.096 508.872 32.848 510.184C33.616 511.48 34 512.944 34 514.576C34 516.224 33.616 517.704 32.848 519.016C32.096 520.312 31.064 521.328 29.752 522.064C28.44 522.8 27 523.168 25.432 523.168ZM25.432 520.168C26.44 520.168 27.328 519.944 28.096 519.496C28.864 519.032 29.464 518.376 29.896 517.528C30.328 516.68 30.544 515.696 30.544 514.576C30.544 513.456 30.328 512.48 29.896 511.648C29.464 510.8 28.864 510.152 28.096 509.704C27.328 509.256 26.44 509.032 25.432 509.032C24.424 509.032 23.528 509.256 22.744 509.704C21.976 510.152 21.376 510.8 20.944 511.648C20.512 512.48 20.296 513.456 20.296 514.576C20.296 515.696 20.512 516.68 20.944 517.528C21.376 518.376 21.976 519.032 22.744 519.496C23.528 519.944 24.424 520.168 25.432 520.168ZM40.1797 511.624C40.6118 511.016 41.2038 510.512 41.9558 510.112C42.7238 509.696 43.5958 509.488 44.5718 509.488C45.7078 509.488 46.7318 509.768 47.6438 510.328C48.5718 510.888 49.2997 511.688 49.8277 512.728C50.3718 513.752 50.6438 514.944 50.6438 516.304C50.6438 517.664 50.3718 518.872 49.8277 519.928C49.2997 520.968 48.5718 521.776 47.6438 522.352C46.7318 522.928 45.7078 523.216 44.5718 523.216C43.5958 523.216 42.7318 523.016 41.9797 522.616C41.2437 522.216 40.6437 521.712 40.1797 521.104V529.336H36.8197V509.704H40.1797V511.624ZM47.2118 516.304C47.2118 515.504 47.0438 514.816 46.7078 514.24C46.3878 513.648 45.9558 513.2 45.4118 512.896C44.8838 512.592 44.3078 512.44 43.6838 512.44C43.0757 512.44 42.4997 512.6 41.9558 512.92C41.4277 513.224 40.9957 513.672 40.6598 514.264C40.3397 514.856 40.1797 515.552 40.1797 516.352C40.1797 517.152 40.3397 517.848 40.6598 518.44C40.9957 519.032 41.4277 519.488 41.9558 519.808C42.4997 520.112 43.0757 520.264 43.6838 520.264C44.3078 520.264 44.8838 520.104 45.4118 519.784C45.9558 519.464 46.3878 519.008 46.7078 518.416C47.0438 517.824 47.2118 517.12 47.2118 516.304ZM56.7654 511.624C57.1974 511.016 57.7894 510.512 58.5414 510.112C59.3094 509.696 60.1814 509.488 61.1574 509.488C62.2934 509.488 63.3174 509.768 64.2294 510.328C65.1574 510.888 65.8854 511.688 66.4134 512.728C66.9574 513.752 67.2294 514.944 67.2294 516.304C67.2294 517.664 66.9574 518.872 66.4134 519.928C65.8854 520.968 65.1574 521.776 64.2294 522.352C63.3174 522.928 62.2934 523.216 61.1574 523.216C60.1814 523.216 59.3174 523.016 58.5654 522.616C57.8294 522.216 57.2294 521.712 56.7654 521.104V529.336H53.4054V509.704H56.7654V511.624ZM63.7974 516.304C63.7974 515.504 63.6294 514.816 63.2934 514.24C62.9734 513.648 62.5414 513.2 61.9974 512.896C61.4694 512.592 60.8934 512.44 60.2694 512.44C59.6614 512.44 59.0854 512.6 58.5414 512.92C58.0134 513.224 57.5814 513.672 57.2454 514.264C56.9254 514.856 56.7654 515.552 56.7654 516.352C56.7654 517.152 56.9254 517.848 57.2454 518.44C57.5814 519.032 58.0134 519.488 58.5414 519.808C59.0854 520.112 59.6614 520.264 60.2694 520.264C60.8934 520.264 61.4694 520.104 61.9974 519.784C62.5414 519.464 62.9734 519.008 63.2934 518.416C63.6294 517.824 63.7974 517.12 63.7974 516.304ZM75.079 523.216C73.991 523.216 73.015 523.024 72.151 522.64C71.287 522.24 70.599 521.704 70.087 521.032C69.591 520.36 69.319 519.616 69.271 518.8H72.655C72.719 519.312 72.967 519.736 73.399 520.072C73.847 520.408 74.399 520.576 75.055 520.576C75.695 520.576 76.191 520.448 76.543 520.192C76.911 519.936 77.095 519.608 77.095 519.208C77.095 518.776 76.871 518.456 76.423 518.248C75.991 518.024 75.295 517.784 74.335 517.528C73.343 517.288 72.527 517.04 71.887 516.784C71.263 516.528 70.719 516.136 70.255 515.608C69.807 515.08 69.583 514.368 69.583 513.472C69.583 512.736 69.791 512.064 70.207 511.456C70.639 510.848 71.247 510.368 72.031 510.016C72.831 509.664 73.767 509.488 74.839 509.488C76.423 509.488 77.687 509.888 78.631 510.688C79.575 511.472 80.095 512.536 80.191 513.88H76.975C76.927 513.352 76.703 512.936 76.303 512.632C75.919 512.312 75.399 512.152 74.743 512.152C74.135 512.152 73.663 512.264 73.327 512.488C73.007 512.712 72.847 513.024 72.847 513.424C72.847 513.872 73.071 514.216 73.519 514.456C73.967 514.68 74.663 514.912 75.607 515.152C76.567 515.392 77.359 515.64 77.983 515.896C78.607 516.152 79.143 516.552 79.591 517.096C80.055 517.624 80.295 518.328 80.311 519.208C80.311 519.976 80.095 520.664 79.663 521.272C79.247 521.88 78.639 522.36 77.839 522.712C77.055 523.048 76.135 523.216 75.079 523.216ZM87.7331 505.96L87.3491 517.552H84.5171L84.1091 505.96H87.7331ZM86.0051 523.168C85.3971 523.168 84.8931 522.984 84.4931 522.616C84.1091 522.232 83.9171 521.76 83.9171 521.2C83.9171 520.64 84.1091 520.176 84.4931 519.808C84.8931 519.424 85.3971 519.232 86.0051 519.232C86.5971 519.232 87.0851 519.424 87.4691 519.808C87.8531 520.176 88.0451 520.64 88.0451 521.2C88.0451 521.76 87.8531 522.232 87.4691 522.616C87.0851 522.984 86.5971 523.168 86.0051 523.168ZM93.6815 523.168C93.0735 523.168 92.5695 522.984 92.1695 522.616C91.7855 522.232 91.5935 521.76 91.5935 521.2C91.5935 520.64 91.7855 520.176 92.1695 519.808C92.5695 519.424 93.0735 519.232 93.6815 519.232C94.2735 519.232 94.7615 519.424 95.1455 519.808C95.5295 520.176 95.7215 520.64 95.7215 521.2C95.7215 521.76 95.5295 522.232 95.1455 522.616C94.7615 522.984 94.2735 523.168 93.6815 523.168ZM100.236 523.168C99.6279 523.168 99.1239 522.984 98.7239 522.616C98.3399 522.232 98.1479 521.76 98.1479 521.2C98.1479 520.64 98.3399 520.176 98.7239 519.808C99.1239 519.424 99.6279 519.232 100.236 519.232C100.828 519.232 101.316 519.424 101.7 519.808C102.084 520.176 102.276 520.64 102.276 521.2C102.276 521.76 102.084 522.232 101.7 522.616C101.316 522.984 100.828 523.168 100.236 523.168Z" fill="white"/>
<path d="M20.47 560.105C19.78 560.105 19.16 559.985 18.61 559.745C18.07 559.495 17.645 559.155 17.335 558.725C17.025 558.285 16.865 557.78 16.855 557.21H18.31C18.36 557.7 18.56 558.115 18.91 558.455C19.27 558.785 19.79 558.95 20.47 558.95C21.12 558.95 21.63 558.79 22 558.47C22.38 558.14 22.57 557.72 22.57 557.21C22.57 556.81 22.46 556.485 22.24 556.235C22.02 555.985 21.745 555.795 21.415 555.665C21.085 555.535 20.64 555.395 20.08 555.245C19.39 555.065 18.835 554.885 18.415 554.705C18.005 554.525 17.65 554.245 17.35 553.865C17.06 553.475 16.915 552.955 16.915 552.305C16.915 551.735 17.06 551.23 17.35 550.79C17.64 550.35 18.045 550.01 18.565 549.77C19.095 549.53 19.7 549.41 20.38 549.41C21.36 549.41 22.16 549.655 22.78 550.145C23.41 550.635 23.765 551.285 23.845 552.095H22.345C22.295 551.695 22.085 551.345 21.715 551.045C21.345 550.735 20.855 550.58 20.245 550.58C19.675 550.58 19.21 550.73 18.85 551.03C18.49 551.32 18.31 551.73 18.31 552.26C18.31 552.64 18.415 552.95 18.625 553.19C18.845 553.43 19.11 553.615 19.42 553.745C19.74 553.865 20.185 554.005 20.755 554.165C21.445 554.355 22 554.545 22.42 554.735C22.84 554.915 23.2 555.2 23.5 555.59C23.8 555.97 23.95 556.49 23.95 557.15C23.95 557.66 23.815 558.14 23.545 558.59C23.275 559.04 22.875 559.405 22.345 559.685C21.815 559.965 21.19 560.105 20.47 560.105ZM29.8637 560.135C29.0937 560.135 28.3937 559.96 27.7637 559.61C27.1437 559.26 26.6537 558.765 26.2937 558.125C25.9437 557.475 25.7687 556.725 25.7687 555.875C25.7687 555.035 25.9487 554.295 26.3087 553.655C26.6787 553.005 27.1787 552.51 27.8087 552.17C28.4387 551.82 29.1437 551.645 29.9237 551.645C30.7037 551.645 31.4087 551.82 32.0387 552.17C32.6687 552.51 33.1637 553 33.5237 553.64C33.8937 554.28 34.0787 555.025 34.0787 555.875C34.0787 556.725 33.8887 557.475 33.5087 558.125C33.1387 558.765 32.6337 559.26 31.9937 559.61C31.3537 559.96 30.6437 560.135 29.8637 560.135ZM29.8637 558.935C30.3537 558.935 30.8137 558.82 31.2437 558.59C31.6737 558.36 32.0187 558.015 32.2787 557.555C32.5487 557.095 32.6837 556.535 32.6837 555.875C32.6837 555.215 32.5537 554.655 32.2937 554.195C32.0337 553.735 31.6937 553.395 31.2737 553.175C30.8537 552.945 30.3987 552.83 29.9087 552.83C29.4087 552.83 28.9487 552.945 28.5287 553.175C28.1187 553.395 27.7887 553.735 27.5387 554.195C27.2887 554.655 27.1637 555.215 27.1637 555.875C27.1637 556.545 27.2837 557.11 27.5237 557.57C27.7737 558.03 28.1037 558.375 28.5137 558.605C28.9237 558.825 29.3737 558.935 29.8637 558.935ZM46.0784 551.63C46.7184 551.63 47.2884 551.765 47.7884 552.035C48.2884 552.295 48.6834 552.69 48.9734 553.22C49.2634 553.75 49.4084 554.395 49.4084 555.155V560H48.0584V555.35C48.0584 554.53 47.8534 553.905 47.4434 553.475C47.0434 553.035 46.4984 552.815 45.8084 552.815C45.0984 552.815 44.5334 553.045 44.1134 553.505C43.6934 553.955 43.4834 554.61 43.4834 555.47V560H42.1334V555.35C42.1334 554.53 41.9284 553.905 41.5184 553.475C41.1184 553.035 40.5734 552.815 39.8834 552.815C39.1734 552.815 38.6084 553.045 38.1884 553.505C37.7684 553.955 37.5584 554.61 37.5584 555.47V560H36.1934V551.78H37.5584V552.965C37.8284 552.535 38.1884 552.205 38.6384 551.975C39.0984 551.745 39.6034 551.63 40.1534 551.63C40.8434 551.63 41.4534 551.785 41.9834 552.095C42.5134 552.405 42.9084 552.86 43.1684 553.46C43.3984 552.88 43.7784 552.43 44.3084 552.11C44.8384 551.79 45.4284 551.63 46.0784 551.63ZM59.4675 555.575C59.4675 555.835 59.4525 556.11 59.4225 556.4H52.8525C52.9025 557.21 53.1775 557.845 53.6775 558.305C54.1875 558.755 54.8025 558.98 55.5225 558.98C56.1125 558.98 56.6025 558.845 56.9925 558.575C57.3925 558.295 57.6725 557.925 57.8325 557.465H59.3025C59.0825 558.255 58.6425 558.9 57.9825 559.4C57.3225 559.89 56.5025 560.135 55.5225 560.135C54.7425 560.135 54.0425 559.96 53.4225 559.61C52.8125 559.26 52.3325 558.765 51.9825 558.125C51.6325 557.475 51.4575 556.725 51.4575 555.875C51.4575 555.025 51.6275 554.28 51.9675 553.64C52.3075 553 52.7825 552.51 53.3925 552.17C54.0125 551.82 54.7225 551.645 55.5225 551.645C56.3025 551.645 56.9925 551.815 57.5925 552.155C58.1925 552.495 58.6525 552.965 58.9725 553.565C59.3025 554.155 59.4675 554.825 59.4675 555.575ZM58.0575 555.29C58.0575 554.77 57.9425 554.325 57.7125 553.955C57.4825 553.575 57.1675 553.29 56.7675 553.1C56.3775 552.9 55.9425 552.8 55.4625 552.8C54.7725 552.8 54.1825 553.02 53.6925 553.46C53.2125 553.9 52.9375 554.51 52.8675 555.29H58.0575ZM63.2543 552.905V557.75C63.2543 558.15 63.3393 558.435 63.5093 558.605C63.6793 558.765 63.9743 558.845 64.3943 558.845H65.3993V560H64.1693C63.4093 560 62.8393 559.825 62.4593 559.475C62.0793 559.125 61.8893 558.55 61.8893 557.75V552.905H60.8243V551.78H61.8893V549.71H63.2543V551.78H65.3993V552.905H63.2543ZM71.4532 551.63C72.0732 551.63 72.6332 551.765 73.1332 552.035C73.6332 552.295 74.0232 552.69 74.3032 553.22C74.5932 553.75 74.7382 554.395 74.7382 555.155V560H73.3882V555.35C73.3882 554.53 73.1832 553.905 72.7732 553.475C72.3632 553.035 71.8032 552.815 71.0932 552.815C70.3732 552.815 69.7982 553.04 69.3682 553.49C68.9482 553.94 68.7382 554.595 68.7382 555.455V560H67.3732V548.9H68.7382V552.95C69.0082 552.53 69.3782 552.205 69.8482 551.975C70.3282 551.745 70.8632 551.63 71.4532 551.63ZM77.9929 550.445C77.7329 550.445 77.5129 550.355 77.3329 550.175C77.1529 549.995 77.0629 549.775 77.0629 549.515C77.0629 549.255 77.1529 549.035 77.3329 548.855C77.5129 548.675 77.7329 548.585 77.9929 548.585C78.2429 548.585 78.4529 548.675 78.6229 548.855C78.8029 549.035 78.8929 549.255 78.8929 549.515C78.8929 549.775 78.8029 549.995 78.6229 550.175C78.4529 550.355 78.2429 550.445 77.9929 550.445ZM78.6529 551.78V560H77.2879V551.78H78.6529ZM85.3043 551.63C86.3043 551.63 87.1143 551.935 87.7343 552.545C88.3543 553.145 88.6643 554.015 88.6643 555.155V560H87.3143V555.35C87.3143 554.53 87.1093 553.905 86.6993 553.475C86.2893 553.035 85.7293 552.815 85.0193 552.815C84.2993 552.815 83.7243 553.04 83.2943 553.49C82.8743 553.94 82.6643 554.595 82.6643 555.455V560H81.2993V551.78H82.6643V552.95C82.9343 552.53 83.2993 552.205 83.7593 551.975C84.2293 551.745 84.7443 551.63 85.3043 551.63ZM94.604 551.645C95.314 551.645 95.934 551.8 96.464 552.11C97.004 552.42 97.404 552.81 97.664 553.28V551.78H99.044V560.18C99.044 560.93 98.884 561.595 98.564 562.175C98.244 562.765 97.784 563.225 97.184 563.555C96.594 563.885 95.904 564.05 95.114 564.05C94.034 564.05 93.134 563.795 92.414 563.285C91.694 562.775 91.269 562.08 91.139 561.2H92.489C92.639 561.7 92.949 562.1 93.419 562.4C93.889 562.71 94.454 562.865 95.114 562.865C95.864 562.865 96.474 562.63 96.944 562.16C97.424 561.69 97.664 561.03 97.664 560.18V558.455C97.394 558.935 96.994 559.335 96.464 559.655C95.934 559.975 95.314 560.135 94.604 560.135C93.874 560.135 93.209 559.955 92.609 559.595C92.019 559.235 91.554 558.73 91.214 558.08C90.874 557.43 90.704 556.69 90.704 555.86C90.704 555.02 90.874 554.285 91.214 553.655C91.554 553.015 92.019 552.52 92.609 552.17C93.209 551.82 93.874 551.645 94.604 551.645ZM97.664 555.875C97.664 555.255 97.539 554.715 97.289 554.255C97.039 553.795 96.699 553.445 96.269 553.205C95.849 552.955 95.384 552.83 94.874 552.83C94.364 552.83 93.899 552.95 93.479 553.19C93.059 553.43 92.724 553.78 92.474 554.24C92.224 554.7 92.099 555.24 92.099 555.86C92.099 556.49 92.224 557.04 92.474 557.51C92.724 557.97 93.059 558.325 93.479 558.575C93.899 558.815 94.364 558.935 94.874 558.935C95.384 558.935 95.849 558.815 96.269 558.575C96.699 558.325 97.039 557.97 97.289 557.51C97.539 557.04 97.664 556.495 97.664 555.875ZM116.94 551.78L114.375 560H112.965L110.985 553.475L109.005 560H107.595L105.015 551.78H106.41L108.3 558.68L110.34 551.78H111.735L113.73 558.695L115.59 551.78H116.94ZM119.979 553.115C120.219 552.645 120.559 552.28 120.999 552.02C121.449 551.76 121.994 551.63 122.634 551.63V553.04H122.274C120.744 553.04 119.979 553.87 119.979 555.53V560H118.614V551.78H119.979V553.115ZM128.115 560.135C127.345 560.135 126.645 559.96 126.015 559.61C125.395 559.26 124.905 558.765 124.545 558.125C124.195 557.475 124.02 556.725 124.02 555.875C124.02 555.035 124.2 554.295 124.56 553.655C124.93 553.005 125.43 552.51 126.06 552.17C126.69 551.82 127.395 551.645 128.175 551.645C128.955 551.645 129.66 551.82 130.29 552.17C130.92 552.51 131.415 553 131.775 553.64C132.145 554.28 132.33 555.025 132.33 555.875C132.33 556.725 132.14 557.475 131.76 558.125C131.39 558.765 130.885 559.26 130.245 559.61C129.605 559.96 128.895 560.135 128.115 560.135ZM128.115 558.935C128.605 558.935 129.065 558.82 129.495 558.59C129.925 558.36 130.27 558.015 130.53 557.555C130.8 557.095 130.935 556.535 130.935 555.875C130.935 555.215 130.805 554.655 130.545 554.195C130.285 553.735 129.945 553.395 129.525 553.175C129.105 552.945 128.65 552.83 128.16 552.83C127.66 552.83 127.2 552.945 126.78 553.175C126.37 553.395 126.04 553.735 125.79 554.195C125.54 554.655 125.415 555.215 125.415 555.875C125.415 556.545 125.535 557.11 125.775 557.57C126.025 558.03 126.355 558.375 126.765 558.605C127.175 558.825 127.625 558.935 128.115 558.935ZM138.45 551.63C139.45 551.63 140.26 551.935 140.88 552.545C141.5 553.145 141.81 554.015 141.81 555.155V560H140.46V555.35C140.46 554.53 140.255 553.905 139.845 553.475C139.435 553.035 138.875 552.815 138.165 552.815C137.445 552.815 136.87 553.04 136.44 553.49C136.02 553.94 135.81 554.595 135.81 555.455V560H134.445V551.78H135.81V552.95C136.08 552.53 136.445 552.205 136.905 551.975C137.375 551.745 137.89 551.63 138.45 551.63ZM147.75 551.645C148.46 551.645 149.08 551.8 149.61 552.11C150.15 552.42 150.55 552.81 150.81 553.28V551.78H152.19V560.18C152.19 560.93 152.03 561.595 151.71 562.175C151.39 562.765 150.93 563.225 150.33 563.555C149.74 563.885 149.05 564.05 148.26 564.05C147.18 564.05 146.28 563.795 145.56 563.285C144.84 562.775 144.415 562.08 144.285 561.2H145.635C145.785 561.7 146.095 562.1 146.565 562.4C147.035 562.71 147.6 562.865 148.26 562.865C149.01 562.865 149.62 562.63 150.09 562.16C150.57 561.69 150.81 561.03 150.81 560.18V558.455C150.54 558.935 150.14 559.335 149.61 559.655C149.08 559.975 148.46 560.135 147.75 560.135C147.02 560.135 146.355 559.955 145.755 559.595C145.165 559.235 144.7 558.73 144.36 558.08C144.02 557.43 143.85 556.69 143.85 555.86C143.85 555.02 144.02 554.285 144.36 553.655C144.7 553.015 145.165 552.52 145.755 552.17C146.355 551.82 147.02 551.645 147.75 551.645ZM150.81 555.875C150.81 555.255 150.685 554.715 150.435 554.255C150.185 553.795 149.845 553.445 149.415 553.205C148.995 552.955 148.53 552.83 148.02 552.83C147.51 552.83 147.045 552.95 146.625 553.19C146.205 553.43 145.87 553.78 145.62 554.24C145.37 554.7 145.245 555.24 145.245 555.86C145.245 556.49 145.37 557.04 145.62 557.51C145.87 557.97 146.205 558.325 146.625 558.575C147.045 558.815 147.51 558.935 148.02 558.935C148.53 558.935 148.995 558.815 149.415 558.575C149.845 558.325 150.185 557.97 150.435 557.51C150.685 557.04 150.81 556.495 150.81 555.875ZM170.085 551.78L167.52 560H166.11L164.13 553.475L162.15 560H160.74L158.16 551.78H159.555L161.445 558.68L163.485 551.78H164.88L166.875 558.695L168.735 551.78H170.085ZM172.465 550.445C172.205 550.445 171.985 550.355 171.805 550.175C171.625 549.995 171.535 549.775 171.535 549.515C171.535 549.255 171.625 549.035 171.805 548.855C171.985 548.675 172.205 548.585 172.465 548.585C172.715 548.585 172.925 548.675 173.095 548.855C173.275 549.035 173.365 549.255 173.365 549.515C173.365 549.775 173.275 549.995 173.095 550.175C172.925 550.355 172.715 550.445 172.465 550.445ZM173.125 551.78V560H171.76V551.78H173.125ZM177.436 552.905V557.75C177.436 558.15 177.521 558.435 177.691 558.605C177.861 558.765 178.156 558.845 178.576 558.845H179.581V560H178.351C177.591 560 177.021 559.825 176.641 559.475C176.261 559.125 176.071 558.55 176.071 557.75V552.905H175.006V551.78H176.071V549.71H177.436V551.78H179.581V552.905H177.436ZM185.635 551.63C186.255 551.63 186.815 551.765 187.315 552.035C187.815 552.295 188.205 552.69 188.485 553.22C188.775 553.75 188.92 554.395 188.92 555.155V560H187.57V555.35C187.57 554.53 187.365 553.905 186.955 553.475C186.545 553.035 185.985 552.815 185.275 552.815C184.555 552.815 183.98 553.04 183.55 553.49C183.13 553.94 182.92 554.595 182.92 555.455V560H181.555V548.9H182.92V552.95C183.19 552.53 183.56 552.205 184.03 551.975C184.51 551.745 185.045 551.63 185.635 551.63ZM202.869 551.78L197.919 563.87H196.509L198.129 559.91L194.814 551.78H196.329L198.909 558.44L201.459 551.78H202.869ZM208.146 560.135C207.376 560.135 206.676 559.96 206.046 559.61C205.426 559.26 204.936 558.765 204.576 558.125C204.226 557.475 204.051 556.725 204.051 555.875C204.051 555.035 204.231 554.295 204.591 553.655C204.961 553.005 205.461 552.51 206.091 552.17C206.721 551.82 207.426 551.645 208.206 551.645C208.986 551.645 209.691 551.82 210.321 552.17C210.951 552.51 211.446 553 211.806 553.64C212.176 554.28 212.361 555.025 212.361 555.875C212.361 556.725 212.171 557.475 211.791 558.125C211.421 558.765 210.916 559.26 210.276 559.61C209.636 559.96 208.926 560.135 208.146 560.135ZM208.146 558.935C208.636 558.935 209.096 558.82 209.526 558.59C209.956 558.36 210.301 558.015 210.561 557.555C210.831 557.095 210.966 556.535 210.966 555.875C210.966 555.215 210.836 554.655 210.576 554.195C210.316 553.735 209.976 553.395 209.556 553.175C209.136 552.945 208.681 552.83 208.191 552.83C207.691 552.83 207.231 552.945 206.811 553.175C206.401 553.395 206.071 553.735 205.821 554.195C205.571 554.655 205.446 555.215 205.446 555.875C205.446 556.545 205.566 557.11 205.806 557.57C206.056 558.03 206.386 558.375 206.796 558.605C207.206 558.825 207.656 558.935 208.146 558.935ZM221.766 551.78V560H220.401V558.785C220.141 559.205 219.776 559.535 219.306 559.775C218.846 560.005 218.336 560.12 217.776 560.12C217.136 560.12 216.561 559.99 216.051 559.73C215.541 559.46 215.136 559.06 214.836 558.53C214.546 558 214.401 557.355 214.401 556.595V551.78H215.751V556.415C215.751 557.225 215.956 557.85 216.366 558.29C216.776 558.72 217.336 558.935 218.046 558.935C218.776 558.935 219.351 558.71 219.771 558.26C220.191 557.81 220.401 557.155 220.401 556.295V551.78H221.766ZM225.756 553.115C225.996 552.645 226.336 552.28 226.776 552.02C227.226 551.76 227.771 551.63 228.411 551.63V553.04H228.051C226.521 553.04 225.756 553.87 225.756 555.53V560H224.391V551.78H225.756V553.115ZM16.645 578.875C16.645 578.025 16.815 577.285 17.155 576.655C17.495 576.015 17.965 575.52 18.565 575.17C19.175 574.82 19.87 574.645 20.65 574.645C21.66 574.645 22.49 574.89 23.14 575.38C23.8 575.87 24.235 576.55 24.445 577.42H22.975C22.835 576.92 22.56 576.525 22.15 576.235C21.75 575.945 21.25 575.8 20.65 575.8C19.87 575.8 19.24 576.07 18.76 576.61C18.28 577.14 18.04 577.895 18.04 578.875C18.04 579.865 18.28 580.63 18.76 581.17C19.24 581.71 19.87 581.98 20.65 581.98C21.25 581.98 21.75 581.84 22.15 581.56C22.55 581.28 22.825 580.88 22.975 580.36H24.445C24.225 581.2 23.785 581.875 23.125 582.385C22.465 582.885 21.64 583.135 20.65 583.135C19.87 583.135 19.175 582.96 18.565 582.61C17.965 582.26 17.495 581.765 17.155 581.125C16.815 580.485 16.645 579.735 16.645 578.875ZM30.1713 583.135C29.4013 583.135 28.7013 582.96 28.0713 582.61C27.4513 582.26 26.9613 581.765 26.6013 581.125C26.2513 580.475 26.0763 579.725 26.0763 578.875C26.0763 578.035 26.2563 577.295 26.6163 576.655C26.9863 576.005 27.4863 575.51 28.1163 575.17C28.7463 574.82 29.4513 574.645 30.2313 574.645C31.0113 574.645 31.7163 574.82 32.3463 575.17C32.9763 575.51 33.4713 576 33.8313 576.64C34.2013 577.28 34.3863 578.025 34.3863 578.875C34.3863 579.725 34.1963 580.475 33.8163 581.125C33.4463 581.765 32.9413 582.26 32.3013 582.61C31.6613 582.96 30.9513 583.135 30.1713 583.135ZM30.1713 581.935C30.6613 581.935 31.1213 581.82 31.5513 581.59C31.9813 581.36 32.3263 581.015 32.5863 580.555C32.8563 580.095 32.9913 579.535 32.9913 578.875C32.9913 578.215 32.8613 577.655 32.6013 577.195C32.3413 576.735 32.0013 576.395 31.5813 576.175C31.1613 575.945 30.7063 575.83 30.2163 575.83C29.7163 575.83 29.2563 575.945 28.8363 576.175C28.4263 576.395 28.0963 576.735 27.8463 577.195C27.5963 577.655 27.4713 578.215 27.4713 578.875C27.4713 579.545 27.5913 580.11 27.8313 580.57C28.0813 581.03 28.4113 581.375 28.8213 581.605C29.2313 581.825 29.6813 581.935 30.1713 581.935ZM40.5061 574.63C41.5061 574.63 42.3161 574.935 42.9361 575.545C43.5561 576.145 43.8661 577.015 43.8661 578.155V583H42.5161V578.35C42.5161 577.53 42.3111 576.905 41.9011 576.475C41.4911 576.035 40.9311 575.815 40.2211 575.815C39.5011 575.815 38.9261 576.04 38.4961 576.49C38.0761 576.94 37.8661 577.595 37.8661 578.455V583H36.5011V574.78H37.8661V575.95C38.1361 575.53 38.5011 575.205 38.9611 574.975C39.4311 574.745 39.9461 574.63 40.5061 574.63ZM50.4208 574.63C51.4208 574.63 52.2308 574.935 52.8508 575.545C53.4708 576.145 53.7808 577.015 53.7808 578.155V583H52.4308V578.35C52.4308 577.53 52.2258 576.905 51.8158 576.475C51.4058 576.035 50.8458 575.815 50.1358 575.815C49.4158 575.815 48.8408 576.04 48.4108 576.49C47.9908 576.94 47.7808 577.595 47.7808 578.455V583H46.4158V574.78H47.7808V575.95C48.0508 575.53 48.4158 575.205 48.8758 574.975C49.3458 574.745 49.8608 574.63 50.4208 574.63ZM63.8305 578.575C63.8305 578.835 63.8155 579.11 63.7855 579.4H57.2155C57.2655 580.21 57.5405 580.845 58.0405 581.305C58.5505 581.755 59.1655 581.98 59.8855 581.98C60.4755 581.98 60.9655 581.845 61.3555 581.575C61.7555 581.295 62.0355 580.925 62.1955 580.465H63.6655C63.4455 581.255 63.0055 581.9 62.3455 582.4C61.6855 582.89 60.8655 583.135 59.8855 583.135C59.1055 583.135 58.4055 582.96 57.7855 582.61C57.1755 582.26 56.6955 581.765 56.3455 581.125C55.9955 580.475 55.8205 579.725 55.8205 578.875C55.8205 578.025 55.9905 577.28 56.3305 576.64C56.6705 576 57.1455 575.51 57.7555 575.17C58.3755 574.82 59.0855 574.645 59.8855 574.645C60.6655 574.645 61.3555 574.815 61.9555 575.155C62.5555 575.495 63.0155 575.965 63.3355 576.565C63.6655 577.155 63.8305 577.825 63.8305 578.575ZM62.4205 578.29C62.4205 577.77 62.3055 577.325 62.0755 576.955C61.8455 576.575 61.5305 576.29 61.1305 576.1C60.7405 575.9 60.3055 575.8 59.8255 575.8C59.1355 575.8 58.5455 576.02 58.0555 576.46C57.5755 576.9 57.3005 577.51 57.2305 578.29H62.4205ZM65.4423 578.875C65.4423 578.025 65.6123 577.285 65.9523 576.655C66.2923 576.015 66.7623 575.52 67.3623 575.17C67.9723 574.82 68.6673 574.645 69.4473 574.645C70.4573 574.645 71.2873 574.89 71.9373 575.38C72.5973 575.87 73.0323 576.55 73.2423 577.42H71.7723C71.6323 576.92 71.3573 576.525 70.9473 576.235C70.5473 575.945 70.0473 575.8 69.4473 575.8C68.6673 575.8 68.0373 576.07 67.5573 576.61C67.0773 577.14 66.8373 577.895 66.8373 578.875C66.8373 579.865 67.0773 580.63 67.5573 581.17C68.0373 581.71 68.6673 581.98 69.4473 581.98C70.0473 581.98 70.5473 581.84 70.9473 581.56C71.3473 581.28 71.6223 580.88 71.7723 580.36H73.2423C73.0223 581.2 72.5823 581.875 71.9223 582.385C71.2623 582.885 70.4373 583.135 69.4473 583.135C68.6673 583.135 67.9723 582.96 67.3623 582.61C66.7623 582.26 66.2923 581.765 65.9523 581.125C65.6123 580.485 65.4423 579.735 65.4423 578.875ZM77.0486 575.905V580.75C77.0486 581.15 77.1336 581.435 77.3036 581.605C77.4736 581.765 77.7686 581.845 78.1886 581.845H79.1936V583H77.9636C77.2036 583 76.6336 582.825 76.2536 582.475C75.8736 582.125 75.6836 581.55 75.6836 580.75V575.905H74.6186V574.78H75.6836V572.71H77.0486V574.78H79.1936V575.905H77.0486ZM81.8725 573.445C81.6125 573.445 81.3925 573.355 81.2125 573.175C81.0325 572.995 80.9425 572.775 80.9425 572.515C80.9425 572.255 81.0325 572.035 81.2125 571.855C81.3925 571.675 81.6125 571.585 81.8725 571.585C82.1225 571.585 82.3325 571.675 82.5025 571.855C82.6825 572.035 82.7725 572.255 82.7725 572.515C82.7725 572.775 82.6825 572.995 82.5025 573.175C82.3325 573.355 82.1225 573.445 81.8725 573.445ZM82.5325 574.78V583H81.1675V574.78H82.5325ZM88.7639 583.135C87.9939 583.135 87.2939 582.96 86.6639 582.61C86.0439 582.26 85.5539 581.765 85.1939 581.125C84.8439 580.475 84.6689 579.725 84.6689 578.875C84.6689 578.035 84.8489 577.295 85.2089 576.655C85.5789 576.005 86.0789 575.51 86.7089 575.17C87.3389 574.82 88.0439 574.645 88.8239 574.645C89.6039 574.645 90.3089 574.82 90.9389 575.17C91.5689 575.51 92.0639 576 92.4239 576.64C92.7939 577.28 92.9789 578.025 92.9789 578.875C92.9789 579.725 92.7889 580.475 92.4089 581.125C92.0389 581.765 91.5339 582.26 90.8939 582.61C90.2539 582.96 89.5439 583.135 88.7639 583.135ZM88.7639 581.935C89.2539 581.935 89.7139 581.82 90.1439 581.59C90.5739 581.36 90.9189 581.015 91.1789 580.555C91.4489 580.095 91.5839 579.535 91.5839 578.875C91.5839 578.215 91.4539 577.655 91.1939 577.195C90.9339 576.735 90.5939 576.395 90.1739 576.175C89.7539 575.945 89.2989 575.83 88.8089 575.83C88.3089 575.83 87.8489 575.945 87.4289 576.175C87.0189 576.395 86.6889 576.735 86.4389 577.195C86.1889 577.655 86.0639 578.215 86.0639 578.875C86.0639 579.545 86.1839 580.11 86.4239 580.57C86.6739 581.03 87.0039 581.375 87.4139 581.605C87.8239 581.825 88.2739 581.935 88.7639 581.935ZM99.0986 574.63C100.099 574.63 100.909 574.935 101.529 575.545C102.149 576.145 102.459 577.015 102.459 578.155V583H101.109V578.35C101.109 577.53 100.904 576.905 100.494 576.475C100.084 576.035 99.5236 575.815 98.8136 575.815C98.0936 575.815 97.5186 576.04 97.0886 576.49C96.6686 576.94 96.4586 577.595 96.4586 578.455V583H95.0936V574.78H96.4586V575.95C96.7286 575.53 97.0936 575.205 97.5536 574.975C98.0236 574.745 98.5386 574.63 99.0986 574.63ZM106.418 581.11L104.738 585.145H103.823L104.918 581.11H106.418ZM119.611 575.605C119.611 576.475 119.311 577.2 118.711 577.78C118.121 578.35 117.216 578.635 115.996 578.635H113.986V583H112.621V572.545H115.996C117.176 572.545 118.071 572.83 118.681 573.4C119.301 573.97 119.611 574.705 119.611 575.605ZM115.996 577.51C116.756 577.51 117.316 577.345 117.676 577.015C118.036 576.685 118.216 576.215 118.216 575.605C118.216 574.315 117.476 573.67 115.996 573.67H113.986V577.51H115.996ZM122.993 571.9V583H121.628V571.9H122.993ZM133.139 578.575C133.139 578.835 133.124 579.11 133.094 579.4H126.524C126.574 580.21 126.849 580.845 127.349 581.305C127.859 581.755 128.474 581.98 129.194 581.98C129.784 581.98 130.274 581.845 130.664 581.575C131.064 581.295 131.344 580.925 131.504 580.465H132.974C132.754 581.255 132.314 581.9 131.654 582.4C130.994 582.89 130.174 583.135 129.194 583.135C128.414 583.135 127.714 582.96 127.094 582.61C126.484 582.26 126.004 581.765 125.654 581.125C125.304 580.475 125.129 579.725 125.129 578.875C125.129 578.025 125.299 577.28 125.639 576.64C125.979 576 126.454 575.51 127.064 575.17C127.684 574.82 128.394 574.645 129.194 574.645C129.974 574.645 130.664 574.815 131.264 575.155C131.864 575.495 132.324 575.965 132.644 576.565C132.974 577.155 133.139 577.825 133.139 578.575ZM131.729 578.29C131.729 577.77 131.614 577.325 131.384 576.955C131.154 576.575 130.839 576.29 130.439 576.1C130.049 575.9 129.614 575.8 129.134 575.8C128.444 575.8 127.854 576.02 127.364 576.46C126.884 576.9 126.609 577.51 126.539 578.29H131.729ZM134.751 578.86C134.751 578.02 134.921 577.285 135.261 576.655C135.601 576.015 136.066 575.52 136.656 575.17C137.256 574.82 137.921 574.645 138.651 574.645C139.371 574.645 139.996 574.8 140.526 575.11C141.056 575.42 141.451 575.81 141.711 576.28V574.78H143.091V583H141.711V581.47C141.441 581.95 141.036 582.35 140.496 582.67C139.966 582.98 139.346 583.135 138.636 583.135C137.906 583.135 137.246 582.955 136.656 582.595C136.066 582.235 135.601 581.73 135.261 581.08C134.921 580.43 134.751 579.69 134.751 578.86ZM141.711 578.875C141.711 578.255 141.586 577.715 141.336 577.255C141.086 576.795 140.746 576.445 140.316 576.205C139.896 575.955 139.431 575.83 138.921 575.83C138.411 575.83 137.946 575.95 137.526 576.19C137.106 576.43 136.771 576.78 136.521 577.24C136.271 577.7 136.146 578.24 136.146 578.86C136.146 579.49 136.271 580.04 136.521 580.51C136.771 580.97 137.106 581.325 137.526 581.575C137.946 581.815 138.411 581.935 138.921 581.935C139.431 581.935 139.896 581.815 140.316 581.575C140.746 581.325 141.086 580.97 141.336 580.51C141.586 580.04 141.711 579.495 141.711 578.875ZM148.627 583.135C147.997 583.135 147.432 583.03 146.932 582.82C146.432 582.6 146.037 582.3 145.747 581.92C145.457 581.53 145.297 581.085 145.267 580.585H146.677C146.717 580.995 146.907 581.33 147.247 581.59C147.597 581.85 148.052 581.98 148.612 581.98C149.132 581.98 149.542 581.865 149.842 581.635C150.142 581.405 150.292 581.115 150.292 580.765C150.292 580.405 150.132 580.14 149.812 579.97C149.492 579.79 148.997 579.615 148.327 579.445C147.717 579.285 147.217 579.125 146.827 578.965C146.447 578.795 146.117 578.55 145.837 578.23C145.567 577.9 145.432 577.47 145.432 576.94C145.432 576.52 145.557 576.135 145.807 575.785C146.057 575.435 146.412 575.16 146.872 574.96C147.332 574.75 147.857 574.645 148.447 574.645C149.357 574.645 150.092 574.875 150.652 575.335C151.212 575.795 151.512 576.425 151.552 577.225H150.187C150.157 576.795 149.982 576.45 149.662 576.19C149.352 575.93 148.932 575.8 148.402 575.8C147.912 575.8 147.522 575.905 147.232 576.115C146.942 576.325 146.797 576.6 146.797 576.94C146.797 577.21 146.882 577.435 147.052 577.615C147.232 577.785 147.452 577.925 147.712 578.035C147.982 578.135 148.352 578.25 148.822 578.38C149.412 578.54 149.892 578.7 150.262 578.86C150.632 579.01 150.947 579.24 151.207 579.55C151.477 579.86 151.617 580.265 151.627 580.765C151.627 581.215 151.502 581.62 151.252 581.98C151.002 582.34 150.647 582.625 150.187 582.835C149.737 583.035 149.217 583.135 148.627 583.135ZM161.374 578.575C161.374 578.835 161.359 579.11 161.329 579.4H154.759C154.809 580.21 155.084 580.845 155.584 581.305C156.094 581.755 156.709 581.98 157.429 581.98C158.019 581.98 158.509 581.845 158.899 581.575C159.299 581.295 159.579 580.925 159.739 580.465H161.209C160.989 581.255 160.549 581.9 159.889 582.4C159.229 582.89 158.409 583.135 157.429 583.135C156.649 583.135 155.949 582.96 155.329 582.61C154.719 582.26 154.239 581.765 153.889 581.125C153.539 580.475 153.364 579.725 153.364 578.875C153.364 578.025 153.534 577.28 153.874 576.64C154.214 576 154.689 575.51 155.299 575.17C155.919 574.82 156.629 574.645 157.429 574.645C158.209 574.645 158.899 574.815 159.499 575.155C160.099 575.495 160.559 575.965 160.879 576.565C161.209 577.155 161.374 577.825 161.374 578.575ZM159.964 578.29C159.964 577.77 159.849 577.325 159.619 576.955C159.389 576.575 159.074 576.29 158.674 576.1C158.284 575.9 157.849 575.8 157.369 575.8C156.679 575.8 156.089 576.02 155.599 576.46C155.119 576.9 154.844 577.51 154.774 578.29H159.964ZM169.48 575.905V580.75C169.48 581.15 169.565 581.435 169.735 581.605C169.905 581.765 170.2 581.845 170.62 581.845H171.625V583H170.395C169.635 583 169.065 582.825 168.685 582.475C168.305 582.125 168.115 581.55 168.115 580.75V575.905H167.05V574.78H168.115V572.71H169.48V574.78H171.625V575.905H169.48ZM174.964 576.115C175.204 575.645 175.544 575.28 175.984 575.02C176.434 574.76 176.979 574.63 177.619 574.63V576.04H177.259C175.729 576.04 174.964 576.87 174.964 578.53V583H173.599V574.78H174.964V576.115ZM186.595 574.78L181.645 586.87H180.235L181.855 582.91L178.54 574.78H180.055L182.635 581.44L185.185 574.78H186.595ZM16.645 601.86C16.645 601.02 16.815 600.285 17.155 599.655C17.495 599.015 17.96 598.52 18.55 598.17C19.15 597.82 19.815 597.645 20.545 597.645C21.265 597.645 21.89 597.8 22.42 598.11C22.95 598.42 23.345 598.81 23.605 599.28V597.78H24.985V606H23.605V604.47C23.335 604.95 22.93 605.35 22.39 605.67C21.86 605.98 21.24 606.135 20.53 606.135C19.8 606.135 19.14 605.955 18.55 605.595C17.96 605.235 17.495 604.73 17.155 604.08C16.815 603.43 16.645 602.69 16.645 601.86ZM23.605 601.875C23.605 601.255 23.48 600.715 23.23 600.255C22.98 599.795 22.64 599.445 22.21 599.205C21.79 598.955 21.325 598.83 20.815 598.83C20.305 598.83 19.84 598.95 19.42 599.19C19 599.43 18.665 599.78 18.415 600.24C18.165 600.7 18.04 601.24 18.04 601.86C18.04 602.49 18.165 603.04 18.415 603.51C18.665 603.97 19 604.325 19.42 604.575C19.84 604.815 20.305 604.935 20.815 604.935C21.325 604.935 21.79 604.815 22.21 604.575C22.64 604.325 22.98 603.97 23.23 603.51C23.48 603.04 23.605 602.495 23.605 601.875ZM31.0017 597.645C31.7117 597.645 32.3317 597.8 32.8617 598.11C33.4017 598.42 33.8017 598.81 34.0617 599.28V597.78H35.4417V606.18C35.4417 606.93 35.2817 607.595 34.9617 608.175C34.6417 608.765 34.1817 609.225 33.5817 609.555C32.9917 609.885 32.3017 610.05 31.5117 610.05C30.4317 610.05 29.5317 609.795 28.8117 609.285C28.0917 608.775 27.6667 608.08 27.5367 607.2H28.8867C29.0367 607.7 29.3467 608.1 29.8167 608.4C30.2867 608.71 30.8517 608.865 31.5117 608.865C32.2617 608.865 32.8717 608.63 33.3417 608.16C33.8217 607.69 34.0617 607.03 34.0617 606.18V604.455C33.7917 604.935 33.3917 605.335 32.8617 605.655C32.3317 605.975 31.7117 606.135 31.0017 606.135C30.2717 606.135 29.6067 605.955 29.0067 605.595C28.4167 605.235 27.9517 604.73 27.6117 604.08C27.2717 603.43 27.1017 602.69 27.1017 601.86C27.1017 601.02 27.2717 600.285 27.6117 599.655C27.9517 599.015 28.4167 598.52 29.0067 598.17C29.6067 597.82 30.2717 597.645 31.0017 597.645ZM34.0617 601.875C34.0617 601.255 33.9367 600.715 33.6867 600.255C33.4367 599.795 33.0967 599.445 32.6667 599.205C32.2467 598.955 31.7817 598.83 31.2717 598.83C30.7617 598.83 30.2967 598.95 29.8767 599.19C29.4567 599.43 29.1217 599.78 28.8717 600.24C28.6217 600.7 28.4967 601.24 28.4967 601.86C28.4967 602.49 28.6217 603.04 28.8717 603.51C29.1217 603.97 29.4567 604.325 29.8767 604.575C30.2967 604.815 30.7617 604.935 31.2717 604.935C31.7817 604.935 32.2467 604.815 32.6667 604.575C33.0967 604.325 33.4367 603.97 33.6867 603.51C33.9367 603.04 34.0617 602.495 34.0617 601.875ZM37.5584 601.86C37.5584 601.02 37.7284 600.285 38.0684 599.655C38.4084 599.015 38.8734 598.52 39.4634 598.17C40.0634 597.82 40.7284 597.645 41.4584 597.645C42.1784 597.645 42.8034 597.8 43.3334 598.11C43.8634 598.42 44.2584 598.81 44.5184 599.28V597.78H45.8984V606H44.5184V604.47C44.2484 604.95 43.8434 605.35 43.3034 605.67C42.7734 605.98 42.1534 606.135 41.4434 606.135C40.7134 606.135 40.0534 605.955 39.4634 605.595C38.8734 605.235 38.4084 604.73 38.0684 604.08C37.7284 603.43 37.5584 602.69 37.5584 601.86ZM44.5184 601.875C44.5184 601.255 44.3934 600.715 44.1434 600.255C43.8934 599.795 43.5534 599.445 43.1234 599.205C42.7034 598.955 42.2384 598.83 41.7284 598.83C41.2184 598.83 40.7534 598.95 40.3334 599.19C39.9134 599.43 39.5784 599.78 39.3284 600.24C39.0784 600.7 38.9534 601.24 38.9534 601.86C38.9534 602.49 39.0784 603.04 39.3284 603.51C39.5784 603.97 39.9134 604.325 40.3334 604.575C40.7534 604.815 41.2184 604.935 41.7284 604.935C42.2384 604.935 42.7034 604.815 43.1234 604.575C43.5534 604.325 43.8934 603.97 44.1434 603.51C44.3934 603.04 44.5184 602.495 44.5184 601.875ZM49.2302 596.445C48.9702 596.445 48.7502 596.355 48.5702 596.175C48.3902 595.995 48.3002 595.775 48.3002 595.515C48.3002 595.255 48.3902 595.035 48.5702 594.855C48.7502 594.675 48.9702 594.585 49.2302 594.585C49.4802 594.585 49.6902 594.675 49.8602 594.855C50.0402 595.035 50.1302 595.255 50.1302 595.515C50.1302 595.775 50.0402 595.995 49.8602 596.175C49.6902 596.355 49.4802 596.445 49.2302 596.445ZM49.8902 597.78V606H48.5252V597.78H49.8902ZM56.5416 597.63C57.5416 597.63 58.3516 597.935 58.9716 598.545C59.5916 599.145 59.9016 600.015 59.9016 601.155V606H58.5516V601.35C58.5516 600.53 58.3466 599.905 57.9366 599.475C57.5266 599.035 56.9666 598.815 56.2566 598.815C55.5366 598.815 54.9616 599.04 54.5316 599.49C54.1116 599.94 53.9016 600.595 53.9016 601.455V606H52.5366V597.78H53.9016V598.95C54.1716 598.53 54.5366 598.205 54.9966 597.975C55.4666 597.745 55.9816 597.63 56.5416 597.63ZM62.8863 606.09C62.6263 606.09 62.4063 606 62.2263 605.82C62.0463 605.64 61.9563 605.42 61.9563 605.16C61.9563 604.9 62.0463 604.68 62.2263 604.5C62.4063 604.32 62.6263 604.23 62.8863 604.23C63.1363 604.23 63.3463 604.32 63.5163 604.5C63.6963 604.68 63.7863 604.9 63.7863 605.16C63.7863 605.42 63.6963 605.64 63.5163 605.82C63.3463 606 63.1363 606.09 62.8863 606.09Z" fill="white"/>
<path opacity="0.35" d="M338.667 17.8333H355.333C356.53 17.8333 357.5 18.8036 357.5 20.0002V26.0002C357.5 27.1967 356.53 28.1663 355.333 28.1663H338.667C337.47 28.1663 336.5 27.1967 336.5 26.0002V20.0002L336.511 19.7786C336.622 18.6859 337.545 17.8333 338.667 17.8333Z" stroke="white"/>
<path opacity="0.4" d="M359 21V25C359.805 24.6612 360.328 23.8731 360.328 23C360.328 22.1269 359.805 21.3388 359 21Z" fill="white"/>
<path d="M338 20.6666C338 19.9302 338.597 19.3333 339.333 19.3333H354.667C355.403 19.3333 356 19.9302 356 20.6666V25.3333C356 26.0696 355.403 26.6666 354.667 26.6666H339.333C338.597 26.6666 338 26.0696 338 25.3333V20.6666Z" fill="white"/>
<path fill-rule="evenodd" clip-rule="evenodd" d="M323.33 19.6079C325.546 19.608 327.678 20.4594 329.283 21.9862C329.404 22.1041 329.598 22.1026 329.717 21.9829L330.873 20.8162C330.933 20.7555 330.967 20.6733 330.966 20.5877C330.966 20.5021 330.931 20.4202 330.87 20.3602C326.655 16.3207 320.005 16.3207 315.79 20.3602C315.729 20.4202 315.694 20.502 315.694 20.5876C315.693 20.6732 315.727 20.7555 315.787 20.8162L316.943 21.9829C317.062 22.1028 317.256 22.1043 317.377 21.9862C318.983 20.4593 321.114 19.6079 323.33 19.6079ZM323.33 23.4036C324.548 23.4035 325.722 23.856 326.624 24.6732C326.747 24.7892 326.939 24.7867 327.058 24.6676L328.212 23.5009C328.273 23.4397 328.307 23.3567 328.306 23.2704C328.305 23.1842 328.27 23.1018 328.208 23.0419C325.46 20.4855 321.204 20.4855 318.455 23.0419C318.393 23.1018 318.358 23.1842 318.357 23.2705C318.356 23.3568 318.39 23.4398 318.451 23.5009L319.605 24.6676C319.724 24.7867 319.917 24.7892 320.039 24.6732C320.941 23.8566 322.114 23.4041 323.33 23.4036ZM325.643 25.9574C325.645 26.0439 325.611 26.1273 325.549 26.1879L323.552 28.2036C323.494 28.2628 323.414 28.2961 323.33 28.2961C323.247 28.2961 323.167 28.2628 323.109 28.2036L321.111 26.1879C321.049 26.1272 321.015 26.0438 321.017 25.9573C321.019 25.8708 321.057 25.7889 321.121 25.7309C322.396 24.652 324.265 24.652 325.54 25.7309C325.604 25.7889 325.642 25.8709 325.643 25.9574Z" fill="white"/>
<path fill-rule="evenodd" clip-rule="evenodd" d="M309.667 17.6665H308.667C308.114 17.6665 307.667 18.1142 307.667 18.6665V27.3332C307.667 27.8855 308.114 28.3332 308.667 28.3332H309.667C310.219 28.3332 310.667 27.8855 310.667 27.3332V18.6665C310.667 18.1142 310.219 17.6665 309.667 17.6665ZM304 19.9998H305C305.552 19.9998 306 20.4476 306 20.9998V27.3332C306 27.8855 305.552 28.3332 305 28.3332H304C303.448 28.3332 303 27.8855 303 27.3332V20.9998C303 20.4476 303.448 19.9998 304 19.9998ZM300.333 22.3332H299.333C298.781 22.3332 298.333 22.7809 298.333 23.3332V27.3332C298.333 27.8855 298.781 28.3332 299.333 28.3332H300.333C300.886 28.3332 301.333 27.8855 301.333 27.3332V23.3332C301.333 22.7809 300.886 22.3332 300.333 22.3332ZM295.667 24.3332H294.667C294.114 24.3332 293.667 24.7809 293.667 25.3332V27.3332C293.667 27.8855 294.114 28.3332 294.667 28.3332H295.667C296.219 28.3332 296.667 27.8855 296.667 27.3332V25.3332C296.667 24.7809 296.219 24.3332 295.667 24.3332Z" fill="white"/>
<path d="M37.3208 28.2563C40.0088 28.2563 41.6055 26.1543 41.6055 22.5947C41.6055 21.2544 41.3491 20.1265 40.8584 19.2549C40.1479 17.8999 38.9248 17.1675 37.3794 17.1675C35.0796 17.1675 33.4536 18.7129 33.4536 20.8809C33.4536 22.917 34.9185 24.3965 36.9326 24.3965C38.1704 24.3965 39.1738 23.8179 39.6719 22.8145H39.6938C39.6938 22.8145 39.7231 22.8145 39.7305 22.8145C39.7451 22.8145 39.7964 22.8145 39.7964 22.8145C39.7964 25.2314 38.8809 26.6743 37.3354 26.6743C36.4272 26.6743 35.7241 26.1763 35.4824 25.3779H33.6001C33.915 27.1138 35.3872 28.2563 37.3208 28.2563ZM37.3867 22.895C36.1709 22.895 35.3066 22.0308 35.3066 20.8223C35.3066 19.6431 36.2148 18.7422 37.394 18.7422C38.5732 18.7422 39.4814 19.6577 39.4814 20.8516C39.4814 22.0308 38.5952 22.895 37.3867 22.895Z" fill="white"/>
<path d="M44.6966 28.1538C45.3924 28.1538 45.8685 27.6558 45.8685 26.9966C45.8685 26.3301 45.3924 25.8394 44.6966 25.8394C44.0081 25.8394 43.5247 26.3301 43.5247 26.9966C43.5247 27.6558 44.0081 28.1538 44.6966 28.1538ZM44.6966 22.6606C45.3924 22.6606 45.8685 22.1699 45.8685 21.5107C45.8685 20.8442 45.3924 20.3535 44.6966 20.3535C44.0081 20.3535 43.5247 20.8442 43.5247 21.5107C43.5247 22.1699 44.0081 22.6606 44.6966 22.6606Z" fill="white"/>
<path d="M52.7242 28H54.5333V26.0298H55.9615V24.4331H54.5333V17.4312H51.8673C49.9996 20.2437 48.5128 22.5947 47.5606 24.3452V26.0298H52.7242V28ZM49.3111 24.3672C50.5416 22.1992 51.6402 20.4634 52.651 18.9692H52.7535V24.4771H49.3111V24.3672Z" fill="white"/>
<path d="M59.9901 28H61.8798V17.4312H59.9975L57.2362 19.3647V21.1812L59.8656 19.3354H59.9901V28Z" fill="white"/>
<rect x="121" y="799" width="134" height="5" rx="2.5" fill="black"/>
<g clip-path="url(#clip1_70_12480)">
<rect x="16" y="625" width="185" height="50" rx="25" fill="url(#paint1_linear_70_12480)"/>
<path d="M93.8805 655L91.5704 650.92H90.5804V655H88.4804V644.53H92.4105C93.2205 644.53 93.9105 644.675 94.4805 644.965C95.0505 645.245 95.4755 645.63 95.7555 646.12C96.0454 646.6 96.1904 647.14 96.1904 647.74C96.1904 648.43 95.9905 649.055 95.5905 649.615C95.1905 650.165 94.5955 650.545 93.8055 650.755L96.3105 655H93.8805ZM90.5804 649.345H92.3354C92.9055 649.345 93.3305 649.21 93.6105 648.94C93.8905 648.66 94.0304 648.275 94.0304 647.785C94.0304 647.305 93.8905 646.935 93.6105 646.675C93.3305 646.405 92.9055 646.27 92.3354 646.27H90.5804V649.345ZM106.135 650.665C106.135 650.965 106.115 651.235 106.075 651.475H99.9998C100.05 652.075 100.26 652.545 100.63 652.885C101 653.225 101.455 653.395 101.995 653.395C102.775 653.395 103.33 653.06 103.66 652.39H105.925C105.685 653.19 105.225 653.85 104.545 654.37C103.865 654.88 103.03 655.135 102.04 655.135C101.24 655.135 100.52 654.96 99.8798 654.61C99.2498 654.25 98.7548 653.745 98.3948 653.095C98.0448 652.445 97.8698 651.695 97.8698 650.845C97.8698 649.985 98.0448 649.23 98.3948 648.58C98.7448 647.93 99.2348 647.43 99.8648 647.08C100.495 646.73 101.22 646.555 102.04 646.555C102.83 646.555 103.535 646.725 104.155 647.065C104.785 647.405 105.27 647.89 105.61 648.52C105.96 649.14 106.135 649.855 106.135 650.665ZM103.96 650.065C103.95 649.525 103.755 649.095 103.375 648.775C102.995 648.445 102.53 648.28 101.98 648.28C101.46 648.28 101.02 648.44 100.66 648.76C100.31 649.07 100.095 649.505 100.015 650.065H103.96ZM110.433 648.415V652.435C110.433 652.715 110.498 652.92 110.628 653.05C110.768 653.17 110.998 653.23 111.318 653.23H112.293V655H110.973C109.203 655 108.318 654.14 108.318 652.42V648.415H107.328V646.69H108.318V644.635H110.433V646.69H112.293V648.415H110.433ZM116.223 647.98C116.493 647.54 116.843 647.195 117.273 646.945C117.713 646.695 118.213 646.57 118.773 646.57V648.775H118.218C117.558 648.775 117.058 648.93 116.718 649.24C116.388 649.55 116.223 650.09 116.223 650.86V655H114.123V646.69H116.223V647.98ZM128.458 646.69L123.313 658.93H121.078L122.878 654.79L119.548 646.69H121.903L124.048 652.495L126.223 646.69H128.458Z" fill="white"/>
</g>
<ellipse cx="204.988" cy="403.355" rx="25" ry="4.5" transform="rotate(-1 204.988 403.355)" fill="url(#paint2_linear_70_12480)" fill-opacity="0.2" style="mix-blend-mode:multiply"/>
<g filter="url(#filter1_d_70_12480)">
<path d="M235.354 381.716C235.354 381.716 265.656 406.805 319.349 415.31C373.042 423.814 421.112 456.627 379.769 496.868C338.426 537.109 275.922 566.753 287.522 614.065C303.033 677.329 416.025 687.409 434.301 738.827" stroke="#FFEEAC" stroke-width="8"/>
</g>
<path fill-rule="evenodd" clip-rule="evenodd" d="M232.157 390.377C228.018 399.177 220.027 404.649 211.875 403.358C201.404 401.699 194.633 389.51 196.752 376.133C198.871 362.755 209.077 353.255 219.547 354.914C227.427 356.162 233.211 363.372 234.688 372.565L239.507 374.674C239.507 374.674 240.829 378.95 240.259 382.553C239.688 386.157 237.17 389.424 237.17 389.424L232.157 390.377Z" fill="white"/>
<ellipse cx="197.25" cy="376.187" rx="10.5" ry="24.5" transform="rotate(9 197.25 376.187)" fill="#7768D3"/>
<rect x="173.863" y="360.84" width="28" height="7" rx="3.5" transform="rotate(9 173.863 360.84)" fill="white"/>
<rect x="171.36" y="376.643" width="28" height="7" rx="3.5" transform="rotate(9 171.36 376.643)" fill="white"/>
</g>
<defs>
<filter id="filter0_d_70_12480" x="47" y="182" width="105.851" height="148.025" filterUnits="userSpaceOnUse" color-interpolation-filters="sRGB">
<feFlood flood-opacity="0" result="BackgroundImageFix"/>
<feColorMatrix in="SourceAlpha" type="matrix" values="0 0 0 0 0 0 0 0 0 0 0 0 0 0 0 0 0 0 127 0" result="hardAlpha"/>
<feOffset dx="4" dy="4"/>
<feGaussianBlur stdDeviation="3.5"/>
<feColorMatrix type="matrix" values="0 0 0 0 0 0 0 0 0 0 0 0 0 0 0 0 0 0 0.170007 0"/>
<feBlend mode="normal" in2="BackgroundImageFix" result="effect1_dropShadow_70_12480"/>
<feBlend mode="normal" in="SourceGraphic" in2="effect1_dropShadow_70_12480" result="shape"/>
</filter>
<filter id="filter1_d_70_12480" x="232.805" y="378.633" width="214.265" height="370.534" filterUnits="userSpaceOnUse" color-interpolation-filters="sRGB">
<feFlood flood-opacity="0" result="BackgroundImageFix"/>
<feColorMatrix in="SourceAlpha" type="matrix" values="0 0 0 0 0 0 0 0 0 0 0 0 0 0 0 0 0 0 127 0" result="hardAlpha"/>
<feOffset dx="9" dy="9"/>
<feColorMatrix type="matrix" values="0 0 0 0 0 0 0 0 0 0 0 0 0 0 0 0 0 0 0.1 0"/>
<feBlend mode="normal" in2="BackgroundImageFix" result="effect1_dropShadow_70_12480"/>
<feBlend mode="normal" in="SourceGraphic" in2="effect1_dropShadow_70_12480" result="shape"/>
</filter>
<linearGradient id="paint0_linear_70_12480" x1="219.573" y1="267.518" x2="111.634" y2="201.86" gradientUnits="userSpaceOnUse">
<stop stop-opacity="0.01"/>
<stop offset="1"/>
</linearGradient>
<linearGradient id="paint1_linear_70_12480" x1="108.5" y1="600" x2="83.3128" y2="693.193" gradientUnits="userSpaceOnUse">
<stop stop-color="#FF8960"/>
<stop offset="1" stop-color="#FF62A5"/>
</linearGradient>
<linearGradient id="paint2_linear_70_12480" x1="176.847" y1="407.712" x2="225.249" y2="407.712" gradientUnits="userSpaceOnUse">
<stop stop-opacity="0.01"/>
<stop offset="1"/>
</linearGradient>
<clipPath id="clip0_70_12480">
<rect width="375" height="812" fill="white"/>
</clipPath>
<clipPath id="clip1_70_12480">
<rect width="185" height="50" fill="white" transform="translate(16 625)"/>
</clipPath>
</defs>
</svg>
