<svg width="375" height="812" viewBox="0 0 375 812" fill="none" xmlns="http://www.w3.org/2000/svg">
<g clip-path="url(#clip0_70_14498)">
<rect width="375" height="812" fill="white"/>
<path d="M123.849 523H120.489L112.881 511.504V523H109.521V506.224H112.881L120.489 517.744V506.224H123.849V523ZM133.393 523.216C132.113 523.216 130.961 522.936 129.937 522.376C128.913 521.8 128.105 520.992 127.513 519.952C126.937 518.912 126.649 517.712 126.649 516.352C126.649 514.992 126.945 513.792 127.537 512.752C128.145 511.712 128.969 510.912 130.009 510.352C131.049 509.776 132.209 509.488 133.489 509.488C134.769 509.488 135.929 509.776 136.969 510.352C138.009 510.912 138.825 511.712 139.417 512.752C140.025 513.792 140.329 514.992 140.329 516.352C140.329 517.712 140.017 518.912 139.393 519.952C138.785 520.992 137.953 521.8 136.897 522.376C135.857 522.936 134.689 523.216 133.393 523.216ZM133.393 520.288C134.001 520.288 134.569 520.144 135.097 519.856C135.641 519.552 136.073 519.104 136.393 518.512C136.713 517.92 136.873 517.2 136.873 516.352C136.873 515.088 136.537 514.12 135.865 513.448C135.209 512.76 134.401 512.416 133.441 512.416C132.481 512.416 131.673 512.76 131.017 513.448C130.377 514.12 130.057 515.088 130.057 516.352C130.057 517.616 130.369 518.592 130.993 519.28C131.633 519.952 132.433 520.288 133.393 520.288ZM165.665 509.512C167.297 509.512 168.609 510.016 169.601 511.024C170.609 512.016 171.113 513.408 171.113 515.2V523H167.753V515.656C167.753 514.616 167.489 513.824 166.961 513.28C166.433 512.72 165.713 512.44 164.801 512.44C163.889 512.44 163.161 512.72 162.617 513.28C162.089 513.824 161.825 514.616 161.825 515.656V523H158.465V515.656C158.465 514.616 158.201 513.824 157.673 513.28C157.145 512.72 156.425 512.44 155.513 512.44C154.585 512.44 153.849 512.72 153.305 513.28C152.777 513.824 152.513 514.616 152.513 515.656V523H149.153V509.704H152.513V511.312C152.945 510.752 153.497 510.312 154.169 509.992C154.857 509.672 155.609 509.512 156.425 509.512C157.465 509.512 158.393 509.736 159.209 510.184C160.025 510.616 160.657 511.24 161.105 512.056C161.537 511.288 162.161 510.672 162.977 510.208C163.809 509.744 164.705 509.512 165.665 509.512ZM173.757 516.304C173.757 514.96 174.021 513.768 174.549 512.728C175.093 511.688 175.821 510.888 176.733 510.328C177.661 509.768 178.693 509.488 179.829 509.488C180.821 509.488 181.685 509.688 182.421 510.088C183.173 510.488 183.773 510.992 184.221 511.6V509.704H187.605V523H184.221V521.056C183.789 521.68 183.189 522.2 182.421 522.616C181.669 523.016 180.797 523.216 179.805 523.216C178.685 523.216 177.661 522.928 176.733 522.352C175.821 521.776 175.093 520.968 174.549 519.928C174.021 518.872 173.757 517.664 173.757 516.304ZM184.221 516.352C184.221 515.536 184.061 514.84 183.741 514.264C183.421 513.672 182.989 513.224 182.445 512.92C181.901 512.6 181.317 512.44 180.693 512.44C180.069 512.44 179.493 512.592 178.965 512.896C178.437 513.2 178.005 513.648 177.669 514.24C177.349 514.816 177.189 515.504 177.189 516.304C177.189 517.104 177.349 517.808 177.669 518.416C178.005 519.008 178.437 519.464 178.965 519.784C179.509 520.104 180.085 520.264 180.693 520.264C181.317 520.264 181.901 520.112 182.445 519.808C182.989 519.488 183.421 519.04 183.741 518.464C184.061 517.872 184.221 517.168 184.221 516.352ZM195.119 512.464V518.896C195.119 519.344 195.223 519.672 195.431 519.88C195.655 520.072 196.023 520.168 196.535 520.168H198.095V523H195.983C193.151 523 191.735 521.624 191.735 518.872V512.464H190.151V509.704H191.735V506.416H195.119V509.704H198.095V512.464H195.119ZM199.967 516.352C199.967 514.976 200.247 513.776 200.807 512.752C201.367 511.712 202.143 510.912 203.135 510.352C204.127 509.776 205.263 509.488 206.543 509.488C208.191 509.488 209.551 509.904 210.623 510.736C211.711 511.552 212.439 512.704 212.807 514.192H209.183C208.991 513.616 208.663 513.168 208.199 512.848C207.751 512.512 207.191 512.344 206.519 512.344C205.559 512.344 204.799 512.696 204.239 513.4C203.679 514.088 203.399 515.072 203.399 516.352C203.399 517.616 203.679 518.6 204.239 519.304C204.799 519.992 205.559 520.336 206.519 520.336C207.879 520.336 208.767 519.728 209.183 518.512H212.807C212.439 519.952 211.711 521.096 210.623 521.944C209.535 522.792 208.175 523.216 206.543 523.216C205.263 523.216 204.127 522.936 203.135 522.376C202.143 521.8 201.367 521 200.807 519.976C200.247 518.936 199.967 517.728 199.967 516.352ZM223.077 509.512C224.085 509.512 224.981 509.736 225.765 510.184C226.549 510.616 227.157 511.264 227.589 512.128C228.037 512.976 228.261 514 228.261 515.2V523H224.901V515.656C224.901 514.6 224.637 513.792 224.109 513.232C223.581 512.656 222.861 512.368 221.949 512.368C221.021 512.368 220.285 512.656 219.741 513.232C219.213 513.792 218.949 514.6 218.949 515.656V523H215.589V505.24H218.949V511.36C219.381 510.784 219.957 510.336 220.677 510.016C221.397 509.68 222.197 509.512 223.077 509.512ZM244.136 516.064C244.136 516.544 244.104 516.976 244.04 517.36H234.32C234.4 518.32 234.736 519.072 235.328 519.616C235.92 520.16 236.648 520.432 237.512 520.432C238.76 520.432 239.648 519.896 240.176 518.824H243.8C243.416 520.104 242.68 521.16 241.592 521.992C240.504 522.808 239.168 523.216 237.584 523.216C236.304 523.216 235.152 522.936 234.128 522.376C233.12 521.8 232.328 520.992 231.752 519.952C231.192 518.912 230.912 517.712 230.912 516.352C230.912 514.976 231.192 513.768 231.752 512.728C232.312 511.688 233.096 510.888 234.104 510.328C235.112 509.768 236.272 509.488 237.584 509.488C238.848 509.488 239.976 509.76 240.968 510.304C241.976 510.848 242.752 511.624 243.296 512.632C243.856 513.624 244.136 514.768 244.136 516.064ZM240.656 515.104C240.64 514.24 240.328 513.552 239.72 513.04C239.112 512.512 238.368 512.248 237.488 512.248C236.656 512.248 235.952 512.504 235.376 513.016C234.816 513.512 234.472 514.208 234.344 515.104H240.656ZM251.997 523.216C250.909 523.216 249.933 523.024 249.069 522.64C248.205 522.24 247.517 521.704 247.005 521.032C246.509 520.36 246.237 519.616 246.189 518.8H249.573C249.637 519.312 249.885 519.736 250.317 520.072C250.765 520.408 251.317 520.576 251.973 520.576C252.613 520.576 253.109 520.448 253.461 520.192C253.829 519.936 254.013 519.608 254.013 519.208C254.013 518.776 253.789 518.456 253.341 518.248C252.909 518.024 252.213 517.784 251.253 517.528C250.261 517.288 249.445 517.04 248.805 516.784C248.181 516.528 247.637 516.136 247.173 515.608C246.725 515.08 246.501 514.368 246.501 513.472C246.501 512.736 246.709 512.064 247.125 511.456C247.557 510.848 248.165 510.368 248.949 510.016C249.749 509.664 250.685 509.488 251.757 509.488C253.341 509.488 254.605 509.888 255.549 510.688C256.493 511.472 257.013 512.536 257.109 513.88H253.893C253.845 513.352 253.621 512.936 253.221 512.632C252.837 512.312 252.317 512.152 251.661 512.152C251.053 512.152 250.581 512.264 250.245 512.488C249.925 512.712 249.765 513.024 249.765 513.424C249.765 513.872 249.989 514.216 250.437 514.456C250.885 514.68 251.581 514.912 252.525 515.152C253.485 515.392 254.277 515.64 254.901 515.896C255.525 516.152 256.061 516.552 256.509 517.096C256.973 517.624 257.213 518.328 257.229 519.208C257.229 519.976 257.013 520.664 256.581 521.272C256.165 521.88 255.557 522.36 254.757 522.712C253.973 523.048 253.053 523.216 251.997 523.216ZM264.651 505.96L264.267 517.552H261.435L261.027 505.96H264.651ZM262.923 523.168C262.315 523.168 261.811 522.984 261.411 522.616C261.027 522.232 260.835 521.76 260.835 521.2C260.835 520.64 261.027 520.176 261.411 519.808C261.811 519.424 262.315 519.232 262.923 519.232C263.515 519.232 264.003 519.424 264.387 519.808C264.771 520.176 264.963 520.64 264.963 521.2C264.963 521.76 264.771 522.232 264.387 522.616C264.003 522.984 263.515 523.168 262.923 523.168Z" fill="#101828"/>
<path d="M69.0536 549.545V560H67.6886V555.26H62.3636V560H60.9986V549.545H62.3636V554.135H67.6886V549.545H69.0536ZM81.5893 551.63C82.2293 551.63 82.7993 551.765 83.2993 552.035C83.7993 552.295 84.1943 552.69 84.4843 553.22C84.7743 553.75 84.9193 554.395 84.9193 555.155V560H83.5693V555.35C83.5693 554.53 83.3643 553.905 82.9543 553.475C82.5543 553.035 82.0093 552.815 81.3193 552.815C80.6093 552.815 80.0443 553.045 79.6243 553.505C79.2043 553.955 78.9943 554.61 78.9943 555.47V560H77.6443V555.35C77.6443 554.53 77.4393 553.905 77.0293 553.475C76.6293 553.035 76.0843 552.815 75.3943 552.815C74.6843 552.815 74.1193 553.045 73.6993 553.505C73.2793 553.955 73.0693 554.61 73.0693 555.47V560H71.7043V551.78H73.0693V552.965C73.3393 552.535 73.6993 552.205 74.1493 551.975C74.6093 551.745 75.1143 551.63 75.6643 551.63C76.3543 551.63 76.9643 551.785 77.4943 552.095C78.0243 552.405 78.4193 552.86 78.6793 553.46C78.9093 552.88 79.2893 552.43 79.8193 552.11C80.3493 551.79 80.9393 551.63 81.5893 551.63ZM97.3634 551.63C98.0034 551.63 98.5734 551.765 99.0734 552.035C99.5734 552.295 99.9684 552.69 100.258 553.22C100.548 553.75 100.693 554.395 100.693 555.155V560H99.3434V555.35C99.3434 554.53 99.1384 553.905 98.7284 553.475C98.3284 553.035 97.7834 552.815 97.0934 552.815C96.3834 552.815 95.8184 553.045 95.3984 553.505C94.9784 553.955 94.7684 554.61 94.7684 555.47V560H93.4184V555.35C93.4184 554.53 93.2134 553.905 92.8034 553.475C92.4034 553.035 91.8584 552.815 91.1684 552.815C90.4584 552.815 89.8934 553.045 89.4734 553.505C89.0534 553.955 88.8434 554.61 88.8434 555.47V560H87.4784V551.78H88.8434V552.965C89.1134 552.535 89.4734 552.205 89.9234 551.975C90.3834 551.745 90.8884 551.63 91.4384 551.63C92.1284 551.63 92.7384 551.785 93.2684 552.095C93.7984 552.405 94.1934 552.86 94.4534 553.46C94.6834 552.88 95.0634 552.43 95.5934 552.11C96.1234 551.79 96.7134 551.63 97.3634 551.63ZM104.662 558.11L102.982 562.145H102.067L103.162 558.11H104.662ZM112.53 552.905V557.75C112.53 558.15 112.615 558.435 112.785 558.605C112.955 558.765 113.25 558.845 113.67 558.845H114.675V560H113.445C112.685 560 112.115 559.825 111.735 559.475C111.355 559.125 111.165 558.55 111.165 557.75V552.905H110.1V551.78H111.165V549.71H112.53V551.78H114.675V552.905H112.53ZM120.729 551.63C121.349 551.63 121.909 551.765 122.409 552.035C122.909 552.295 123.299 552.69 123.579 553.22C123.869 553.75 124.014 554.395 124.014 555.155V560H122.664V555.35C122.664 554.53 122.459 553.905 122.049 553.475C121.639 553.035 121.079 552.815 120.369 552.815C119.649 552.815 119.074 553.04 118.644 553.49C118.224 553.94 118.014 554.595 118.014 555.455V560H116.649V548.9H118.014V552.95C118.284 552.53 118.654 552.205 119.124 551.975C119.604 551.745 120.139 551.63 120.729 551.63ZM134.064 555.575C134.064 555.835 134.049 556.11 134.019 556.4H127.449C127.499 557.21 127.774 557.845 128.274 558.305C128.784 558.755 129.399 558.98 130.119 558.98C130.709 558.98 131.199 558.845 131.589 558.575C131.989 558.295 132.269 557.925 132.429 557.465H133.899C133.679 558.255 133.239 558.9 132.579 559.4C131.919 559.89 131.099 560.135 130.119 560.135C129.339 560.135 128.639 559.96 128.019 559.61C127.409 559.26 126.929 558.765 126.579 558.125C126.229 557.475 126.054 556.725 126.054 555.875C126.054 555.025 126.224 554.28 126.564 553.64C126.904 553 127.379 552.51 127.989 552.17C128.609 551.82 129.319 551.645 130.119 551.645C130.899 551.645 131.589 551.815 132.189 552.155C132.789 552.495 133.249 552.965 133.569 553.565C133.899 554.155 134.064 554.825 134.064 555.575ZM132.654 555.29C132.654 554.77 132.539 554.325 132.309 553.955C132.079 553.575 131.764 553.29 131.364 553.1C130.974 552.9 130.539 552.8 130.059 552.8C129.369 552.8 128.779 553.02 128.289 553.46C127.809 553.9 127.534 554.51 127.464 555.29H132.654ZM139.995 555.875C139.995 555.025 140.165 554.285 140.505 553.655C140.845 553.015 141.315 552.52 141.915 552.17C142.525 551.82 143.22 551.645 144 551.645C145.01 551.645 145.84 551.89 146.49 552.38C147.15 552.87 147.585 553.55 147.795 554.42H146.325C146.185 553.92 145.91 553.525 145.5 553.235C145.1 552.945 144.6 552.8 144 552.8C143.22 552.8 142.59 553.07 142.11 553.61C141.63 554.14 141.39 554.895 141.39 555.875C141.39 556.865 141.63 557.63 142.11 558.17C142.59 558.71 143.22 558.98 144 558.98C144.6 558.98 145.1 558.84 145.5 558.56C145.9 558.28 146.175 557.88 146.325 557.36H147.795C147.575 558.2 147.135 558.875 146.475 559.385C145.815 559.885 144.99 560.135 144 560.135C143.22 560.135 142.525 559.96 141.915 559.61C141.315 559.26 140.845 558.765 140.505 558.125C140.165 557.485 139.995 556.735 139.995 555.875ZM154.016 551.63C154.636 551.63 155.196 551.765 155.696 552.035C156.196 552.295 156.586 552.69 156.866 553.22C157.156 553.75 157.301 554.395 157.301 555.155V560H155.951V555.35C155.951 554.53 155.746 553.905 155.336 553.475C154.926 553.035 154.366 552.815 153.656 552.815C152.936 552.815 152.361 553.04 151.931 553.49C151.511 553.94 151.301 554.595 151.301 555.455V560H149.936V548.9H151.301V552.95C151.571 552.53 151.941 552.205 152.411 551.975C152.891 551.745 153.426 551.63 154.016 551.63ZM159.341 555.86C159.341 555.02 159.511 554.285 159.851 553.655C160.191 553.015 160.656 552.52 161.246 552.17C161.846 551.82 162.511 551.645 163.241 551.645C163.961 551.645 164.586 551.8 165.116 552.11C165.646 552.42 166.041 552.81 166.301 553.28V551.78H167.681V560H166.301V558.47C166.031 558.95 165.626 559.35 165.086 559.67C164.556 559.98 163.936 560.135 163.226 560.135C162.496 560.135 161.836 559.955 161.246 559.595C160.656 559.235 160.191 558.73 159.851 558.08C159.511 557.43 159.341 556.69 159.341 555.86ZM166.301 555.875C166.301 555.255 166.176 554.715 165.926 554.255C165.676 553.795 165.336 553.445 164.906 553.205C164.486 552.955 164.021 552.83 163.511 552.83C163.001 552.83 162.536 552.95 162.116 553.19C161.696 553.43 161.361 553.78 161.111 554.24C160.861 554.7 160.736 555.24 160.736 555.86C160.736 556.49 160.861 557.04 161.111 557.51C161.361 557.97 161.696 558.325 162.116 558.575C162.536 558.815 163.001 558.935 163.511 558.935C164.021 558.935 164.486 558.815 164.906 558.575C165.336 558.325 165.676 557.97 165.926 557.51C166.176 557.04 166.301 556.495 166.301 555.875ZM171.972 552.905V557.75C171.972 558.15 172.057 558.435 172.227 558.605C172.397 558.765 172.692 558.845 173.112 558.845H174.117V560H172.887C172.127 560 171.557 559.825 171.177 559.475C170.797 559.125 170.607 558.55 170.607 557.75V552.905H169.542V551.78H170.607V549.71H171.972V551.78H174.117V552.905H171.972ZM187.49 551.78L182.54 563.87H181.13L182.75 559.91L179.435 551.78H180.95L183.53 558.44L186.08 551.78H187.49ZM192.767 560.135C191.997 560.135 191.297 559.96 190.667 559.61C190.047 559.26 189.557 558.765 189.197 558.125C188.847 557.475 188.672 556.725 188.672 555.875C188.672 555.035 188.852 554.295 189.212 553.655C189.582 553.005 190.082 552.51 190.712 552.17C191.342 551.82 192.047 551.645 192.827 551.645C193.607 551.645 194.312 551.82 194.942 552.17C195.572 552.51 196.067 553 196.427 553.64C196.797 554.28 196.982 555.025 196.982 555.875C196.982 556.725 196.792 557.475 196.412 558.125C196.042 558.765 195.537 559.26 194.897 559.61C194.257 559.96 193.547 560.135 192.767 560.135ZM192.767 558.935C193.257 558.935 193.717 558.82 194.147 558.59C194.577 558.36 194.922 558.015 195.182 557.555C195.452 557.095 195.587 556.535 195.587 555.875C195.587 555.215 195.457 554.655 195.197 554.195C194.937 553.735 194.597 553.395 194.177 553.175C193.757 552.945 193.302 552.83 192.812 552.83C192.312 552.83 191.852 552.945 191.432 553.175C191.022 553.395 190.692 553.735 190.442 554.195C190.192 554.655 190.067 555.215 190.067 555.875C190.067 556.545 190.187 557.11 190.427 557.57C190.677 558.03 191.007 558.375 191.417 558.605C191.827 558.825 192.277 558.935 192.767 558.935ZM206.387 551.78V560H205.022V558.785C204.762 559.205 204.397 559.535 203.927 559.775C203.467 560.005 202.957 560.12 202.397 560.12C201.757 560.12 201.182 559.99 200.672 559.73C200.162 559.46 199.757 559.06 199.457 558.53C199.167 558 199.022 557.355 199.022 556.595V551.78H200.372V556.415C200.372 557.225 200.577 557.85 200.987 558.29C201.397 558.72 201.957 558.935 202.667 558.935C203.397 558.935 203.972 558.71 204.392 558.26C204.812 557.81 205.022 557.155 205.022 556.295V551.78H206.387ZM216.241 560.135C215.611 560.135 215.046 560.03 214.546 559.82C214.046 559.6 213.651 559.3 213.361 558.92C213.071 558.53 212.911 558.085 212.881 557.585H214.291C214.331 557.995 214.521 558.33 214.861 558.59C215.211 558.85 215.666 558.98 216.226 558.98C216.746 558.98 217.156 558.865 217.456 558.635C217.756 558.405 217.906 558.115 217.906 557.765C217.906 557.405 217.746 557.14 217.426 556.97C217.106 556.79 216.611 556.615 215.941 556.445C215.331 556.285 214.831 556.125 214.441 555.965C214.061 555.795 213.731 555.55 213.451 555.23C213.181 554.9 213.046 554.47 213.046 553.94C213.046 553.52 213.171 553.135 213.421 552.785C213.671 552.435 214.026 552.16 214.486 551.96C214.946 551.75 215.471 551.645 216.061 551.645C216.971 551.645 217.706 551.875 218.266 552.335C218.826 552.795 219.126 553.425 219.166 554.225H217.801C217.771 553.795 217.596 553.45 217.276 553.19C216.966 552.93 216.546 552.8 216.016 552.8C215.526 552.8 215.136 552.905 214.846 553.115C214.556 553.325 214.411 553.6 214.411 553.94C214.411 554.21 214.496 554.435 214.666 554.615C214.846 554.785 215.066 554.925 215.326 555.035C215.596 555.135 215.966 555.25 216.436 555.38C217.026 555.54 217.506 555.7 217.876 555.86C218.246 556.01 218.561 556.24 218.821 556.55C219.091 556.86 219.231 557.265 219.241 557.765C219.241 558.215 219.116 558.62 218.866 558.98C218.616 559.34 218.261 559.625 217.801 559.835C217.351 560.035 216.831 560.135 216.241 560.135ZM228.988 555.575C228.988 555.835 228.973 556.11 228.943 556.4H222.373C222.423 557.21 222.698 557.845 223.198 558.305C223.708 558.755 224.323 558.98 225.043 558.98C225.633 558.98 226.123 558.845 226.513 558.575C226.913 558.295 227.193 557.925 227.353 557.465H228.823C228.603 558.255 228.163 558.9 227.503 559.4C226.843 559.89 226.023 560.135 225.043 560.135C224.263 560.135 223.563 559.96 222.943 559.61C222.333 559.26 221.853 558.765 221.503 558.125C221.153 557.475 220.978 556.725 220.978 555.875C220.978 555.025 221.148 554.28 221.488 553.64C221.828 553 222.303 552.51 222.913 552.17C223.533 551.82 224.243 551.645 225.043 551.645C225.823 551.645 226.513 551.815 227.113 552.155C227.713 552.495 228.173 552.965 228.493 553.565C228.823 554.155 228.988 554.825 228.988 555.575ZM227.578 555.29C227.578 554.77 227.463 554.325 227.233 553.955C227.003 553.575 226.688 553.29 226.288 553.1C225.898 552.9 225.463 552.8 224.983 552.8C224.293 552.8 223.703 553.02 223.213 553.46C222.733 553.9 222.458 554.51 222.388 555.29H227.578ZM230.599 555.86C230.599 555.02 230.769 554.285 231.109 553.655C231.449 553.015 231.914 552.52 232.504 552.17C233.104 551.82 233.769 551.645 234.499 551.645C235.219 551.645 235.844 551.8 236.374 552.11C236.904 552.42 237.299 552.81 237.559 553.28V551.78H238.939V560H237.559V558.47C237.289 558.95 236.884 559.35 236.344 559.67C235.814 559.98 235.194 560.135 234.484 560.135C233.754 560.135 233.094 559.955 232.504 559.595C231.914 559.235 231.449 558.73 231.109 558.08C230.769 557.43 230.599 556.69 230.599 555.86ZM237.559 555.875C237.559 555.255 237.434 554.715 237.184 554.255C236.934 553.795 236.594 553.445 236.164 553.205C235.744 552.955 235.279 552.83 234.769 552.83C234.259 552.83 233.794 552.95 233.374 553.19C232.954 553.43 232.619 553.78 232.369 554.24C232.119 554.7 231.994 555.24 231.994 555.86C231.994 556.49 232.119 557.04 232.369 557.51C232.619 557.97 232.954 558.325 233.374 558.575C233.794 558.815 234.259 558.935 234.769 558.935C235.279 558.935 235.744 558.815 236.164 558.575C236.594 558.325 236.934 557.97 237.184 557.51C237.434 557.04 237.559 556.495 237.559 555.875ZM242.931 553.115C243.171 552.645 243.511 552.28 243.951 552.02C244.401 551.76 244.946 551.63 245.586 551.63V553.04H245.226C243.696 553.04 242.931 553.87 242.931 555.53V560H241.566V551.78H242.931V553.115ZM246.972 555.875C246.972 555.025 247.142 554.285 247.482 553.655C247.822 553.015 248.292 552.52 248.892 552.17C249.502 551.82 250.197 551.645 250.977 551.645C251.987 551.645 252.817 551.89 253.467 552.38C254.127 552.87 254.562 553.55 254.772 554.42H253.302C253.162 553.92 252.887 553.525 252.477 553.235C252.077 552.945 251.577 552.8 250.977 552.8C250.197 552.8 249.567 553.07 249.087 553.61C248.607 554.14 248.367 554.895 248.367 555.875C248.367 556.865 248.607 557.63 249.087 558.17C249.567 558.71 250.197 558.98 250.977 558.98C251.577 558.98 252.077 558.84 252.477 558.56C252.877 558.28 253.152 557.88 253.302 557.36H254.772C254.552 558.2 254.112 558.875 253.452 559.385C252.792 559.885 251.967 560.135 250.977 560.135C250.197 560.135 249.502 559.96 248.892 559.61C248.292 559.26 247.822 558.765 247.482 558.125C247.142 557.485 246.972 556.735 246.972 555.875ZM260.993 551.63C261.613 551.63 262.173 551.765 262.673 552.035C263.173 552.295 263.563 552.69 263.843 553.22C264.133 553.75 264.278 554.395 264.278 555.155V560H262.928V555.35C262.928 554.53 262.723 553.905 262.313 553.475C261.903 553.035 261.343 552.815 260.633 552.815C259.913 552.815 259.338 553.04 258.908 553.49C258.488 553.94 258.278 554.595 258.278 555.455V560H256.913V548.9H258.278V552.95C258.548 552.53 258.918 552.205 259.388 551.975C259.868 551.745 260.403 551.63 260.993 551.63ZM274.328 555.575C274.328 555.835 274.313 556.11 274.283 556.4H267.713C267.763 557.21 268.038 557.845 268.538 558.305C269.048 558.755 269.663 558.98 270.383 558.98C270.973 558.98 271.463 558.845 271.853 558.575C272.253 558.295 272.533 557.925 272.693 557.465H274.163C273.943 558.255 273.503 558.9 272.843 559.4C272.183 559.89 271.363 560.135 270.383 560.135C269.603 560.135 268.903 559.96 268.283 559.61C267.673 559.26 267.193 558.765 266.843 558.125C266.493 557.475 266.318 556.725 266.318 555.875C266.318 555.025 266.488 554.28 266.828 553.64C267.168 553 267.643 552.51 268.253 552.17C268.873 551.82 269.583 551.645 270.383 551.645C271.163 551.645 271.853 551.815 272.453 552.155C273.053 552.495 273.513 552.965 273.833 553.565C274.163 554.155 274.328 554.825 274.328 555.575ZM272.918 555.29C272.918 554.77 272.803 554.325 272.573 553.955C272.343 553.575 272.028 553.29 271.628 553.1C271.238 552.9 270.803 552.8 270.323 552.8C269.633 552.8 269.043 553.02 268.553 553.46C268.073 553.9 267.798 554.51 267.728 555.29H272.918ZM275.94 555.86C275.94 555.02 276.11 554.285 276.45 553.655C276.79 553.015 277.255 552.52 277.845 552.17C278.445 551.82 279.115 551.645 279.855 551.645C280.495 551.645 281.09 551.795 281.64 552.095C282.19 552.385 282.61 552.77 282.9 553.25V548.9H284.28V560H282.9V558.455C282.63 558.945 282.23 559.35 281.7 559.67C281.17 559.98 280.55 560.135 279.84 560.135C279.11 560.135 278.445 559.955 277.845 559.595C277.255 559.235 276.79 558.73 276.45 558.08C276.11 557.43 275.94 556.69 275.94 555.86ZM282.9 555.875C282.9 555.255 282.775 554.715 282.525 554.255C282.275 553.795 281.935 553.445 281.505 553.205C281.085 552.955 280.62 552.83 280.11 552.83C279.6 552.83 279.135 552.95 278.715 553.19C278.295 553.43 277.96 553.78 277.71 554.24C277.46 554.7 277.335 555.24 277.335 555.86C277.335 556.49 277.46 557.04 277.71 557.51C277.96 557.97 278.295 558.325 278.715 558.575C279.135 558.815 279.6 558.935 280.11 558.935C280.62 558.935 281.085 558.815 281.505 558.575C281.935 558.325 282.275 557.97 282.525 557.51C282.775 557.04 282.9 556.495 282.9 555.875ZM294.57 552.905H292.845V560H291.48V552.905H290.415V551.78H291.48V551.195C291.48 550.275 291.715 549.605 292.185 549.185C292.665 548.755 293.43 548.54 294.48 548.54V549.68C293.88 549.68 293.455 549.8 293.205 550.04C292.965 550.27 292.845 550.655 292.845 551.195V551.78H294.57V552.905ZM300.067 560.135C299.297 560.135 298.597 559.96 297.967 559.61C297.347 559.26 296.857 558.765 296.497 558.125C296.147 557.475 295.972 556.725 295.972 555.875C295.972 555.035 296.152 554.295 296.512 553.655C296.882 553.005 297.382 552.51 298.012 552.17C298.642 551.82 299.347 551.645 300.127 551.645C300.907 551.645 301.612 551.82 302.242 552.17C302.872 552.51 303.367 553 303.727 553.64C304.097 554.28 304.282 555.025 304.282 555.875C304.282 556.725 304.092 557.475 303.712 558.125C303.342 558.765 302.837 559.26 302.197 559.61C301.557 559.96 300.847 560.135 300.067 560.135ZM300.067 558.935C300.557 558.935 301.017 558.82 301.447 558.59C301.877 558.36 302.222 558.015 302.482 557.555C302.752 557.095 302.887 556.535 302.887 555.875C302.887 555.215 302.757 554.655 302.497 554.195C302.237 553.735 301.897 553.395 301.477 553.175C301.057 552.945 300.602 552.83 300.112 552.83C299.612 552.83 299.152 552.945 298.732 553.175C298.322 553.395 297.992 553.735 297.742 554.195C297.492 554.655 297.367 555.215 297.367 555.875C297.367 556.545 297.487 557.11 297.727 557.57C297.977 558.03 298.307 558.375 298.717 558.605C299.127 558.825 299.577 558.935 300.067 558.935ZM307.762 553.115C308.002 552.645 308.342 552.28 308.782 552.02C309.232 551.76 309.777 551.63 310.417 551.63V553.04H310.057C308.527 553.04 307.762 553.87 307.762 555.53V560H306.397V551.78H307.762V553.115ZM142.397 574.78L139.832 583H138.422L136.442 576.475L134.462 583H133.052L130.472 574.78H131.867L133.757 581.68L135.797 574.78H137.192L139.187 581.695L141.047 574.78H142.397ZM143.561 578.86C143.561 578.02 143.731 577.285 144.071 576.655C144.411 576.015 144.876 575.52 145.466 575.17C146.066 574.82 146.731 574.645 147.461 574.645C148.181 574.645 148.806 574.8 149.336 575.11C149.866 575.42 150.261 575.81 150.521 576.28V574.78H151.901V583H150.521V581.47C150.251 581.95 149.846 582.35 149.306 582.67C148.776 582.98 148.156 583.135 147.446 583.135C146.716 583.135 146.056 582.955 145.466 582.595C144.876 582.235 144.411 581.73 144.071 581.08C143.731 580.43 143.561 579.69 143.561 578.86ZM150.521 578.875C150.521 578.255 150.396 577.715 150.146 577.255C149.896 576.795 149.556 576.445 149.126 576.205C148.706 575.955 148.241 575.83 147.731 575.83C147.221 575.83 146.756 575.95 146.336 576.19C145.916 576.43 145.581 576.78 145.331 577.24C145.081 577.7 144.956 578.24 144.956 578.86C144.956 579.49 145.081 580.04 145.331 580.51C145.581 580.97 145.916 581.325 146.336 581.575C146.756 581.815 147.221 581.935 147.731 581.935C148.241 581.935 148.706 581.815 149.126 581.575C149.556 581.325 149.896 580.97 150.146 580.51C150.396 580.04 150.521 579.495 150.521 578.875ZM157.438 583.135C156.808 583.135 156.243 583.03 155.743 582.82C155.243 582.6 154.848 582.3 154.558 581.92C154.268 581.53 154.108 581.085 154.078 580.585H155.488C155.528 580.995 155.718 581.33 156.058 581.59C156.408 581.85 156.863 581.98 157.423 581.98C157.943 581.98 158.353 581.865 158.653 581.635C158.953 581.405 159.103 581.115 159.103 580.765C159.103 580.405 158.943 580.14 158.623 579.97C158.303 579.79 157.808 579.615 157.138 579.445C156.528 579.285 156.028 579.125 155.638 578.965C155.258 578.795 154.928 578.55 154.648 578.23C154.378 577.9 154.243 577.47 154.243 576.94C154.243 576.52 154.368 576.135 154.618 575.785C154.868 575.435 155.223 575.16 155.683 574.96C156.143 574.75 156.668 574.645 157.258 574.645C158.168 574.645 158.903 574.875 159.463 575.335C160.023 575.795 160.323 576.425 160.363 577.225H158.998C158.968 576.795 158.793 576.45 158.473 576.19C158.163 575.93 157.743 575.8 157.213 575.8C156.723 575.8 156.333 575.905 156.043 576.115C155.753 576.325 155.608 576.6 155.608 576.94C155.608 577.21 155.693 577.435 155.863 577.615C156.043 577.785 156.263 577.925 156.523 578.035C156.793 578.135 157.163 578.25 157.633 578.38C158.223 578.54 158.703 578.7 159.073 578.86C159.443 579.01 159.758 579.24 160.018 579.55C160.288 579.86 160.428 580.265 160.438 580.765C160.438 581.215 160.313 581.62 160.063 581.98C159.813 582.34 159.458 582.625 158.998 582.835C158.548 583.035 158.028 583.135 157.438 583.135ZM171.009 574.63C172.009 574.63 172.819 574.935 173.439 575.545C174.059 576.145 174.369 577.015 174.369 578.155V583H173.019V578.35C173.019 577.53 172.814 576.905 172.404 576.475C171.994 576.035 171.434 575.815 170.724 575.815C170.004 575.815 169.429 576.04 168.999 576.49C168.579 576.94 168.369 577.595 168.369 578.455V583H167.004V574.78H168.369V575.95C168.639 575.53 169.004 575.205 169.464 574.975C169.934 574.745 170.449 574.63 171.009 574.63ZM180.504 583.135C179.734 583.135 179.034 582.96 178.404 582.61C177.784 582.26 177.294 581.765 176.934 581.125C176.584 580.475 176.409 579.725 176.409 578.875C176.409 578.035 176.589 577.295 176.949 576.655C177.319 576.005 177.819 575.51 178.449 575.17C179.079 574.82 179.784 574.645 180.564 574.645C181.344 574.645 182.049 574.82 182.679 575.17C183.309 575.51 183.804 576 184.164 576.64C184.534 577.28 184.719 578.025 184.719 578.875C184.719 579.725 184.529 580.475 184.149 581.125C183.779 581.765 183.274 582.26 182.634 582.61C181.994 582.96 181.284 583.135 180.504 583.135ZM180.504 581.935C180.994 581.935 181.454 581.82 181.884 581.59C182.314 581.36 182.659 581.015 182.919 580.555C183.189 580.095 183.324 579.535 183.324 578.875C183.324 578.215 183.194 577.655 182.934 577.195C182.674 576.735 182.334 576.395 181.914 576.175C181.494 575.945 181.039 575.83 180.549 575.83C180.049 575.83 179.589 575.945 179.169 576.175C178.759 576.395 178.429 576.735 178.179 577.195C177.929 577.655 177.804 578.215 177.804 578.875C177.804 579.545 177.924 580.11 178.164 580.57C178.414 581.03 178.744 581.375 179.154 581.605C179.564 581.825 180.014 581.935 180.504 581.935ZM188.499 575.905V580.75C188.499 581.15 188.584 581.435 188.754 581.605C188.924 581.765 189.219 581.845 189.639 581.845H190.644V583H189.414C188.654 583 188.084 582.825 187.704 582.475C187.324 582.125 187.134 581.55 187.134 580.75V575.905H186.069V574.78H187.134V572.71H188.499V574.78H190.644V575.905H188.499ZM200.281 575.905H198.556V583H197.191V575.905H196.126V574.78H197.191V574.195C197.191 573.275 197.426 572.605 197.896 572.185C198.376 571.755 199.141 571.54 200.191 571.54V572.68C199.591 572.68 199.166 572.8 198.916 573.04C198.676 573.27 198.556 573.655 198.556 574.195V574.78H200.281V575.905ZM205.778 583.135C205.008 583.135 204.308 582.96 203.678 582.61C203.058 582.26 202.568 581.765 202.208 581.125C201.858 580.475 201.683 579.725 201.683 578.875C201.683 578.035 201.863 577.295 202.223 576.655C202.593 576.005 203.093 575.51 203.723 575.17C204.353 574.82 205.058 574.645 205.838 574.645C206.618 574.645 207.323 574.82 207.953 575.17C208.583 575.51 209.078 576 209.438 576.64C209.808 577.28 209.993 578.025 209.993 578.875C209.993 579.725 209.803 580.475 209.423 581.125C209.053 581.765 208.548 582.26 207.908 582.61C207.268 582.96 206.558 583.135 205.778 583.135ZM205.778 581.935C206.268 581.935 206.728 581.82 207.158 581.59C207.588 581.36 207.933 581.015 208.193 580.555C208.463 580.095 208.598 579.535 208.598 578.875C208.598 578.215 208.468 577.655 208.208 577.195C207.948 576.735 207.608 576.395 207.188 576.175C206.768 575.945 206.313 575.83 205.823 575.83C205.323 575.83 204.863 575.945 204.443 576.175C204.033 576.395 203.703 576.735 203.453 577.195C203.203 577.655 203.078 578.215 203.078 578.875C203.078 579.545 203.198 580.11 203.438 580.57C203.688 581.03 204.018 581.375 204.428 581.605C204.838 581.825 205.288 581.935 205.778 581.935ZM219.398 574.78V583H218.033V581.785C217.773 582.205 217.408 582.535 216.938 582.775C216.478 583.005 215.968 583.12 215.408 583.12C214.768 583.12 214.193 582.99 213.683 582.73C213.173 582.46 212.768 582.06 212.468 581.53C212.178 581 212.033 580.355 212.033 579.595V574.78H213.383V579.415C213.383 580.225 213.588 580.85 213.998 581.29C214.408 581.72 214.968 581.935 215.678 581.935C216.408 581.935 216.983 581.71 217.403 581.26C217.823 580.81 218.033 580.155 218.033 579.295V574.78H219.398ZM226.027 574.63C227.027 574.63 227.837 574.935 228.457 575.545C229.077 576.145 229.387 577.015 229.387 578.155V583H228.037V578.35C228.037 577.53 227.832 576.905 227.422 576.475C227.012 576.035 226.452 575.815 225.742 575.815C225.022 575.815 224.447 576.04 224.017 576.49C223.597 576.94 223.387 577.595 223.387 578.455V583H222.022V574.78H223.387V575.95C223.657 575.53 224.022 575.205 224.482 574.975C224.952 574.745 225.467 574.63 226.027 574.63ZM231.427 578.86C231.427 578.02 231.597 577.285 231.937 576.655C232.277 576.015 232.742 575.52 233.332 575.17C233.932 574.82 234.602 574.645 235.342 574.645C235.982 574.645 236.577 574.795 237.127 575.095C237.677 575.385 238.097 575.77 238.387 576.25V571.9H239.767V583H238.387V581.455C238.117 581.945 237.717 582.35 237.187 582.67C236.657 582.98 236.037 583.135 235.327 583.135C234.597 583.135 233.932 582.955 233.332 582.595C232.742 582.235 232.277 581.73 231.937 581.08C231.597 580.43 231.427 579.69 231.427 578.86ZM238.387 578.875C238.387 578.255 238.262 577.715 238.012 577.255C237.762 576.795 237.422 576.445 236.992 576.205C236.572 575.955 236.107 575.83 235.597 575.83C235.087 575.83 234.622 575.95 234.202 576.19C233.782 576.43 233.447 576.78 233.197 577.24C232.947 577.7 232.822 578.24 232.822 578.86C232.822 579.49 232.947 580.04 233.197 580.51C233.447 580.97 233.782 581.325 234.202 581.575C234.622 581.815 235.087 581.935 235.597 581.935C236.107 581.935 236.572 581.815 236.992 581.575C237.422 581.325 237.762 580.97 238.012 580.51C238.262 580.04 238.387 579.495 238.387 578.875ZM242.829 583.09C242.569 583.09 242.349 583 242.169 582.82C241.989 582.64 241.899 582.42 241.899 582.16C241.899 581.9 241.989 581.68 242.169 581.5C242.349 581.32 242.569 581.23 242.829 581.23C243.079 581.23 243.289 581.32 243.459 581.5C243.639 581.68 243.729 581.9 243.729 582.16C243.729 582.42 243.639 582.64 243.459 582.82C243.289 583 243.079 583.09 242.829 583.09Z" fill="#667085"/>
<path opacity="0.35" d="M338.667 17.8333H355.333C356.53 17.8333 357.5 18.8036 357.5 20.0002V26.0002C357.5 27.1967 356.53 28.1663 355.333 28.1663H338.667C337.47 28.1663 336.5 27.1967 336.5 26.0002V20.0002L336.511 19.7786C336.622 18.6859 337.545 17.8333 338.667 17.8333Z" stroke="black"/>
<path opacity="0.4" d="M359 21V25C359.805 24.6612 360.328 23.8731 360.328 23C360.328 22.1269 359.805 21.3388 359 21Z" fill="black"/>
<path d="M338 20.6666C338 19.9302 338.597 19.3333 339.333 19.3333H354.667C355.403 19.3333 356 19.9302 356 20.6666V25.3333C356 26.0696 355.403 26.6666 354.667 26.6666H339.333C338.597 26.6666 338 26.0696 338 25.3333V20.6666Z" fill="black"/>
<path fill-rule="evenodd" clip-rule="evenodd" d="M323.33 19.6079C325.546 19.608 327.678 20.4594 329.283 21.9862C329.404 22.1041 329.598 22.1026 329.717 21.9829L330.873 20.8162C330.933 20.7555 330.967 20.6733 330.966 20.5877C330.966 20.5021 330.931 20.4202 330.87 20.3602C326.655 16.3207 320.005 16.3207 315.79 20.3602C315.729 20.4202 315.694 20.502 315.694 20.5876C315.693 20.6732 315.727 20.7555 315.787 20.8162L316.943 21.9829C317.062 22.1028 317.256 22.1043 317.377 21.9862C318.983 20.4593 321.114 19.6079 323.33 19.6079ZM323.33 23.4036C324.548 23.4035 325.722 23.856 326.624 24.6732C326.747 24.7892 326.939 24.7867 327.058 24.6676L328.212 23.5009C328.273 23.4397 328.307 23.3567 328.306 23.2704C328.305 23.1842 328.27 23.1018 328.208 23.0419C325.46 20.4855 321.204 20.4855 318.455 23.0419C318.393 23.1018 318.358 23.1842 318.357 23.2705C318.356 23.3568 318.39 23.4398 318.451 23.5009L319.605 24.6676C319.724 24.7867 319.917 24.7892 320.039 24.6732C320.941 23.8566 322.114 23.4041 323.33 23.4036ZM325.643 25.9574C325.645 26.0439 325.611 26.1273 325.549 26.1879L323.552 28.2036C323.494 28.2628 323.414 28.2961 323.33 28.2961C323.247 28.2961 323.167 28.2628 323.109 28.2036L321.111 26.1879C321.049 26.1272 321.015 26.0438 321.017 25.9573C321.019 25.8708 321.057 25.7889 321.121 25.7309C322.396 24.652 324.265 24.652 325.54 25.7309C325.604 25.7889 325.642 25.8709 325.643 25.9574Z" fill="black"/>
<path fill-rule="evenodd" clip-rule="evenodd" d="M309.667 17.6665H308.667C308.114 17.6665 307.667 18.1142 307.667 18.6665V27.3332C307.667 27.8855 308.114 28.3332 308.667 28.3332H309.667C310.219 28.3332 310.667 27.8855 310.667 27.3332V18.6665C310.667 18.1142 310.219 17.6665 309.667 17.6665ZM304 19.9998H305C305.552 19.9998 306 20.4476 306 20.9998V27.3332C306 27.8855 305.552 28.3332 305 28.3332H304C303.448 28.3332 303 27.8855 303 27.3332V20.9998C303 20.4476 303.448 19.9998 304 19.9998ZM300.333 22.3332H299.333C298.781 22.3332 298.333 22.7809 298.333 23.3332V27.3332C298.333 27.8855 298.781 28.3332 299.333 28.3332H300.333C300.886 28.3332 301.333 27.8855 301.333 27.3332V23.3332C301.333 22.7809 300.886 22.3332 300.333 22.3332ZM295.667 24.3332H294.667C294.114 24.3332 293.667 24.7809 293.667 25.3332V27.3332C293.667 27.8855 294.114 28.3332 294.667 28.3332H295.667C296.219 28.3332 296.667 27.8855 296.667 27.3332V25.3332C296.667 24.7809 296.219 24.3332 295.667 24.3332Z" fill="black"/>
<path d="M37.3208 28.2563C40.0088 28.2563 41.6055 26.1543 41.6055 22.5947C41.6055 21.2544 41.3491 20.1265 40.8584 19.2549C40.1479 17.8999 38.9248 17.1675 37.3794 17.1675C35.0796 17.1675 33.4536 18.7129 33.4536 20.8809C33.4536 22.917 34.9185 24.3965 36.9326 24.3965C38.1704 24.3965 39.1738 23.8179 39.6719 22.8145H39.6938C39.6938 22.8145 39.7231 22.8145 39.7305 22.8145C39.7451 22.8145 39.7964 22.8145 39.7964 22.8145C39.7964 25.2314 38.8809 26.6743 37.3354 26.6743C36.4272 26.6743 35.7241 26.1763 35.4824 25.3779H33.6001C33.915 27.1138 35.3872 28.2563 37.3208 28.2563ZM37.3867 22.895C36.1709 22.895 35.3066 22.0308 35.3066 20.8223C35.3066 19.6431 36.2148 18.7422 37.394 18.7422C38.5732 18.7422 39.4814 19.6577 39.4814 20.8516C39.4814 22.0308 38.5952 22.895 37.3867 22.895Z" fill="black"/>
<path d="M44.6966 28.1538C45.3924 28.1538 45.8685 27.6558 45.8685 26.9966C45.8685 26.3301 45.3924 25.8394 44.6966 25.8394C44.0081 25.8394 43.5247 26.3301 43.5247 26.9966C43.5247 27.6558 44.0081 28.1538 44.6966 28.1538ZM44.6966 22.6606C45.3924 22.6606 45.8685 22.1699 45.8685 21.5107C45.8685 20.8442 45.3924 20.3535 44.6966 20.3535C44.0081 20.3535 43.5247 20.8442 43.5247 21.5107C43.5247 22.1699 44.0081 22.6606 44.6966 22.6606Z" fill="black"/>
<path d="M52.7242 28H54.5333V26.0298H55.9615V24.4331H54.5333V17.4312H51.8673C49.9996 20.2437 48.5128 22.5947 47.5606 24.3452V26.0298H52.7242V28ZM49.3111 24.3672C50.5416 22.1992 51.6402 20.4634 52.651 18.9692H52.7535V24.4771H49.3111V24.3672Z" fill="black"/>
<path d="M59.9901 28H61.8798V17.4312H59.9975L57.2362 19.3647V21.1812L59.8656 19.3354H59.9901V28Z" fill="black"/>
<rect x="121" y="799" width="134" height="5" rx="2.5" fill="black"/>
<g clip-path="url(#clip1_70_14498)">
<rect x="95" y="625" width="185" height="50" rx="25" fill="url(#paint0_linear_70_14498)"/>
<path d="M172.88 655L170.57 650.92H169.58V655H167.48V644.53H171.41C172.22 644.53 172.91 644.675 173.48 644.965C174.05 645.245 174.475 645.63 174.755 646.12C175.045 646.6 175.19 647.14 175.19 647.74C175.19 648.43 174.99 649.055 174.59 649.615C174.19 650.165 173.595 650.545 172.805 650.755L175.31 655H172.88ZM169.58 649.345H171.335C171.905 649.345 172.33 649.21 172.61 648.94C172.89 648.66 173.03 648.275 173.03 647.785C173.03 647.305 172.89 646.935 172.61 646.675C172.33 646.405 171.905 646.27 171.335 646.27H169.58V649.345ZM185.135 650.665C185.135 650.965 185.115 651.235 185.075 651.475H179C179.05 652.075 179.26 652.545 179.63 652.885C180 653.225 180.455 653.395 180.995 653.395C181.775 653.395 182.33 653.06 182.66 652.39H184.925C184.685 653.19 184.225 653.85 183.545 654.37C182.865 654.88 182.03 655.135 181.04 655.135C180.24 655.135 179.52 654.96 178.88 654.61C178.25 654.25 177.755 653.745 177.395 653.095C177.045 652.445 176.87 651.695 176.87 650.845C176.87 649.985 177.045 649.23 177.395 648.58C177.745 647.93 178.235 647.43 178.865 647.08C179.495 646.73 180.22 646.555 181.04 646.555C181.83 646.555 182.535 646.725 183.155 647.065C183.785 647.405 184.27 647.89 184.61 648.52C184.96 649.14 185.135 649.855 185.135 650.665ZM182.96 650.065C182.95 649.525 182.755 649.095 182.375 648.775C181.995 648.445 181.53 648.28 180.98 648.28C180.46 648.28 180.02 648.44 179.66 648.76C179.31 649.07 179.095 649.505 179.015 650.065H182.96ZM189.433 648.415V652.435C189.433 652.715 189.498 652.92 189.628 653.05C189.768 653.17 189.998 653.23 190.318 653.23H191.293V655H189.973C188.203 655 187.318 654.14 187.318 652.42V648.415H186.328V646.69H187.318V644.635H189.433V646.69H191.293V648.415H189.433ZM195.223 647.98C195.493 647.54 195.843 647.195 196.273 646.945C196.713 646.695 197.213 646.57 197.773 646.57V648.775H197.218C196.558 648.775 196.058 648.93 195.718 649.24C195.388 649.55 195.223 650.09 195.223 650.86V655H193.123V646.69H195.223V647.98ZM207.458 646.69L202.313 658.93H200.078L201.878 654.79L198.548 646.69H200.903L203.048 652.495L205.223 646.69H207.458Z" fill="white"/>
</g>
<g opacity="0.5" filter="url(#filter0_i_70_14498)">
<path fill-rule="evenodd" clip-rule="evenodd" d="M109.111 203.298C108.769 193.481 83.2031 195.694 73.341 196.641C63.4788 197.588 62.5834 184.14 71.0925 182.141C79.6014 180.142 95.0317 181.174 103.027 179.328C111.021 177.483 100.908 167.587 111.802 166.394C122.695 165.202 145.22 166.306 151.935 166.064C162.482 165.683 167.894 178.387 149.415 178.963C144.319 179.122 143.297 190.408 160.498 187.308C171.292 185.362 192.471 185.317 196.877 190.284C199.405 193.134 198.529 200.79 194.183 205.018C190.954 208.158 180.688 208.771 176.666 209.497C167.231 211.2 169.096 220.34 172.313 222.222C179.927 226.675 200.821 218.271 201.382 230.5C201.629 235.903 182.617 236.776 174.822 236.71C155.703 236.548 143.141 238.252 142.259 231.727C141.374 225.177 154.14 229.598 153.51 221.545C153.181 217.337 154.063 208.395 145.873 208.865C157.086 208.222 109.573 216.556 109.111 203.298Z" fill="url(#paint1_linear_70_14498)"/>
</g>
<g opacity="0.5" filter="url(#filter1_i_70_14498)">
<path fill-rule="evenodd" clip-rule="evenodd" d="M225.27 164.957C225.295 155.135 199.664 156.388 189.774 156.965C179.883 157.542 179.491 144.07 188.069 142.391C196.647 140.712 212.028 142.321 220.086 140.777C228.145 139.232 218.409 128.964 229.339 128.18C240.27 127.397 262.737 129.344 269.457 129.353C280.011 129.368 284.944 142.266 266.456 142.149C261.358 142.117 259.914 153.357 277.219 150.903C288.078 149.364 309.244 150.112 313.461 155.24C315.88 158.183 314.718 165.801 310.217 169.863C306.874 172.88 296.591 173.108 292.545 173.682C283.053 175.031 284.574 184.235 287.719 186.236C295.16 190.971 316.355 183.355 316.457 195.596C316.502 201.006 297.471 201.165 289.684 200.807C270.584 199.929 257.967 201.162 257.33 194.608C256.691 188.029 269.282 192.926 268.955 184.855C268.784 180.638 269.999 171.735 261.797 171.897C273.027 171.675 225.235 178.224 225.27 164.957Z" fill="url(#paint2_linear_70_14498)"/>
</g>
<path fill-rule="evenodd" clip-rule="evenodd" d="M459.635 337.97C439.924 330.486 389.711 312.682 345.556 312.682C301.401 312.682 246.665 341.5 211.342 344.771C176.019 348.041 85.1561 350.306 85.1561 350.306V394.23H459.635C459.635 394.23 459.635 366.659 459.635 337.97Z" fill="url(#paint3_linear_70_14498)"/>
<path d="M296.346 338.193C296.346 325.166 307.23 284.852 321.922 262.793" stroke="url(#paint4_linear_70_14498)" stroke-width="6" stroke-linecap="round"/>
<ellipse cx="3.77648" cy="11.853" rx="3.77648" ry="11.853" transform="matrix(0.865926 -0.500172 0.499828 0.866125 300 250.283)" fill="url(#paint5_linear_70_14498)"/>
<ellipse cx="3.77777" cy="11.849" rx="3.77777" ry="11.849" transform="matrix(0.0348835 0.999391 -0.99939 0.0349155 342.433 266.567)" fill="url(#paint6_linear_70_14498)"/>
<ellipse cx="3.77778" cy="11.8489" rx="3.77778" ry="11.8489" transform="matrix(-0.0174444 0.999848 -0.999848 -0.0174605 335.605 284.381)" fill="url(#paint7_linear_70_14498)"/>
<ellipse cx="3.77778" cy="11.849" rx="3.77778" ry="11.849" transform="matrix(-0.0174444 0.999848 -0.999848 -0.0174604 329.875 301.056)" fill="url(#paint8_linear_70_14498)"/>
<ellipse cx="3.77656" cy="11.8528" rx="3.77656" ry="11.8528" transform="matrix(0.838556 0.544815 -0.544463 0.838785 332.906 238.369)" fill="url(#paint9_linear_70_14498)"/>
<ellipse cx="3.77679" cy="11.8521" rx="3.77679" ry="11.8521" transform="matrix(0.75456 -0.656231 0.655887 0.754859 289.203 270.384)" fill="url(#paint10_linear_70_14498)"/>
<ellipse cx="3.77697" cy="11.8515" rx="3.77697" ry="11.8515" transform="matrix(0.681831 -0.73151 0.731197 0.682166 281.554 289.767)" fill="url(#paint11_linear_70_14498)"/>
<g opacity="0.3">
<path fill-rule="evenodd" clip-rule="evenodd" d="M58.6287 313.891C55.943 316.268 45.7292 311.514 41.6796 304.135C37.6301 296.756 45.142 294.129 34.9245 282.327C24.7069 270.526 18.1507 266.006 24.3514 246.553C30.552 227.1 21.9859 216.289 33.3044 211.214C44.6229 206.138 51.1412 222.982 49.8429 237.798C48.5446 252.614 51.2 255.685 62.271 254.15C73.342 252.614 64.0081 274.366 64.0081 279.113C64.0081 283.861 70.7211 292.68 69.3285 299.315C67.9359 305.949 61.3145 311.514 58.6287 313.891Z" fill="url(#paint12_linear_70_14498)"/>
<path d="M52.1626 293.207C54.1525 289.987 58.0891 279.225 58.0891 271.294" stroke="url(#paint13_linear_70_14498)" stroke-width="6" stroke-linecap="round"/>
<path d="M44.3359 271.943C44.3359 268.299 34.1092 265.741 29.103 258.826" stroke="url(#paint14_linear_70_14498)" stroke-width="6" stroke-linecap="round"/>
<path d="M67.0703 346.456C66.3899 343.079 64.6094 329.829 59.441 314.322C51.2632 289.785 38.5811 257.739 38.5811 236.101" stroke="url(#paint15_linear_70_14498)" stroke-width="6" stroke-linecap="round"/>
</g>
<ellipse opacity="0.084933" cx="291.536" cy="338.996" rx="23.0469" ry="1.30268" fill="#8699BF"/>
<path fill-rule="evenodd" clip-rule="evenodd" d="M0.520752 343.702C24.2762 336.218 84.7892 318.414 138.003 318.414C191.217 318.414 257.181 347.232 299.751 350.502C342.32 353.773 451.823 356.038 451.823 356.038V438H0.520752C0.520752 438 0.520752 372.391 0.520752 343.702Z" fill="url(#paint16_linear_70_14498)"/>
<g opacity="0.3">
<path d="M294.37 338.991C297.388 329.699 298.93 298.409 293.516 279.254" stroke="url(#paint17_linear_70_14498)" stroke-width="4.5" stroke-linecap="round"/>
<ellipse cx="2.84481" cy="8.88855" rx="2.84481" ry="8.88855" transform="matrix(-0.668961 -0.743298 -0.742992 0.6693 312.097 275.435)" fill="url(#paint18_linear_70_14498)"/>
<ellipse cx="2.84524" cy="8.8872" rx="2.84524" ry="8.8872" transform="matrix(-0.341881 0.939743 0.939642 0.342159 277.989 277.17)" fill="url(#paint19_linear_70_14498)"/>
<ellipse cx="2.84528" cy="8.88707" rx="2.84528" ry="8.88707" transform="matrix(-0.292249 0.956342 0.956267 0.292495 278.753 291.466)" fill="url(#paint20_linear_70_14498)"/>
<ellipse cx="2.84528" cy="8.88708" rx="2.84528" ry="8.88708" transform="matrix(-0.29225 0.956342 0.956267 0.292494 278.994 304.695)" fill="url(#paint21_linear_70_14498)"/>
<ellipse cx="2.84417" cy="8.89053" rx="2.84417" ry="8.89053" transform="matrix(-0.965896 0.25893 0.258708 0.965955 291.327 259.274)" fill="url(#paint22_linear_70_14498)"/>
<ellipse cx="2.84504" cy="8.8878" rx="2.84504" ry="8.8878" transform="matrix(-0.514864 -0.857272 -0.857063 0.515212 315.169 292.286)" fill="url(#paint23_linear_70_14498)"/>
<ellipse cx="2.84516" cy="8.88744" rx="2.84516" ry="8.88744" transform="matrix(-0.422458 -0.906382 -0.906233 0.422778 316.155 307.894)" fill="url(#paint24_linear_70_14498)"/>
</g>
<path fill-rule="evenodd" clip-rule="evenodd" d="M81.5018 337.636C80.6364 337.102 60.1689 328.161 62.0587 326.249C63.9486 324.336 73.1673 324.336 73.1673 324.336C73.1673 324.336 82.3672 338.17 81.5018 337.636Z" fill="url(#paint25_linear_70_14498)" style="mix-blend-mode:multiply"/>
<g filter="url(#filter2_i_70_14498)">
<path fill-rule="evenodd" clip-rule="evenodd" d="M79.3158 322.288C72.0434 320.381 50.5902 311.159 56.8635 300.366C63.1368 289.573 69.4101 286.465 63.1368 281.532C56.8635 276.6 61.3205 265.629 67.5223 261.114C73.7241 256.599 59.0376 243.148 65.7654 236.031C72.4931 228.914 93.9991 239.908 94.4971 253.365C94.9951 266.822 99.9985 265.89 102.541 271.966C105.084 278.042 87.469 287.162 90.0431 293.764C92.6172 300.366 107.632 307.251 98.8376 316.144C90.0431 325.037 86.5882 324.195 79.3158 322.288Z" fill="url(#paint26_radial_70_14498)"/>
</g>
<path fill-rule="evenodd" clip-rule="evenodd" d="M81.2499 336.391C82.0983 321.173 66.417 314.828 77.5708 293.405C88.7245 271.983 80.9743 253.486 77.5708 246.442" fill="black" fill-opacity="0.01"/>
<path d="M81.2499 336.391C82.0983 321.173 66.417 314.828 77.5708 293.405C88.7245 271.983 80.9743 253.486 77.5708 246.442" stroke="url(#paint27_linear_70_14498)" stroke-width="6" stroke-linecap="round" stroke-linejoin="round"/>
<g opacity="0.3">
<path fill-rule="evenodd" clip-rule="evenodd" d="M80.2081 284.023C78.2641 283.098 74.6865 280.491 72.9164 276.467L80.2081 284.023Z" fill="black" fill-opacity="0.01"/>
<path d="M80.2081 284.023C78.2641 283.098 74.6865 280.491 72.9164 276.467" stroke="url(#paint28_linear_70_14498)" stroke-width="5" stroke-linecap="round" stroke-linejoin="round"/>
</g>
<g opacity="0.3">
<path fill-rule="evenodd" clip-rule="evenodd" d="M74.2186 311.64C71.1982 310.389 65.0211 306.954 64.5832 301.739L74.2186 311.64Z" fill="black" fill-opacity="0.01"/>
<path d="M74.2186 311.64C71.1982 310.389 65.0211 306.954 64.5832 301.739" stroke="url(#paint29_linear_70_14498)" stroke-width="5" stroke-linecap="round" stroke-linejoin="round"/>
</g>
<g opacity="0.3">
<path fill-rule="evenodd" clip-rule="evenodd" d="M75.2602 298.873C77.9787 299.639 82.0104 298.942 85.4164 293.923L75.2602 298.873Z" fill="black" fill-opacity="0.01"/>
<path d="M75.2602 298.873C77.9787 299.639 82.0104 298.942 85.4164 293.923" stroke="url(#paint30_linear_70_14498)" stroke-width="5" stroke-linecap="round" stroke-linejoin="round"/>
</g>
<g opacity="0.3">
<path fill-rule="evenodd" clip-rule="evenodd" d="M82.8124 260.054C84.5836 258.656 88.0278 253.138 87.7603 248.33L82.8124 260.054Z" fill="black" fill-opacity="0.01"/>
<path d="M82.8124 260.054C84.5836 258.656 88.0278 253.138 87.7603 248.33" stroke="url(#paint31_linear_70_14498)" stroke-width="5" stroke-linecap="round" stroke-linejoin="round"/>
</g>
<path opacity="0.5" fill-rule="evenodd" clip-rule="evenodd" d="M69.2708 376.351L149.466 345.249H260.677L201.177 385.111" fill="url(#paint32_linear_70_14498)"/>
<ellipse cx="208.333" cy="345.77" rx="53.125" ry="4.16858" fill="#8699BF"/>
<rect x="154.427" y="129.264" width="117.969" height="217.808" rx="58.9844" fill="url(#paint33_linear_70_14498)"/>
<rect x="144.792" y="129.264" width="117.969" height="217.808" rx="58.9844" fill="url(#paint34_linear_70_14498)"/>
<rect x="172.917" y="143.333" width="61.9792" height="3.90805" rx="1.95402" fill="url(#paint35_linear_70_14498)"/>
<ellipse cx="203.646" cy="331.44" rx="10.9375" ry="10.9425" fill="url(#paint36_linear_70_14498)"/>
<g filter="url(#filter3_d_70_14498)">
<rect x="149.74" y="160.529" width="108.333" height="155.28" rx="12" fill="white"/>
</g>
<mask id="mask0_70_14498" style="mask-type:luminance" maskUnits="userSpaceOnUse" x="149" y="160" width="110" height="156">
<rect x="149.74" y="160.529" width="108.333" height="155.28" rx="12" fill="white"/>
</mask>
<g mask="url(#mask0_70_14498)">
<g opacity="0.6">
<rect x="154.948" y="279.594" width="97.9167" height="29.7011" rx="14.8506" fill="url(#paint37_linear_70_14498)"/>
<ellipse cx="169.792" cy="294.444" rx="10.9375" ry="10.9425" fill="#A1B8E3"/>
<rect x="184.635" y="284.804" width="60.6771" height="4.42912" rx="2.21456" fill="#A1B8E3"/>
<rect x="184.635" y="292.099" width="46.3542" height="4.42912" rx="2.21456" fill="#A1B8E3"/>
<rect opacity="0.5" x="184.635" y="300.958" width="17.1875" height="3.12643" rx="1.56322" fill="#A1B8E3"/>
</g>
<g opacity="0.6">
<rect x="154.948" y="243.64" width="97.9167" height="29.7012" rx="14.8506" fill="url(#paint38_linear_70_14498)"/>
<ellipse cx="169.792" cy="258.49" rx="10.9375" ry="10.9425" fill="#A1B8E3"/>
<rect x="184.635" y="248.85" width="60.6771" height="4.42912" rx="2.21456" fill="#A1B8E3"/>
<rect x="184.635" y="256.145" width="46.3542" height="4.42911" rx="2.21455" fill="#A1B8E3"/>
<rect opacity="0.5" x="184.635" y="265.004" width="17.1875" height="3.12643" rx="1.56322" fill="#A1B8E3"/>
</g>
<g opacity="0.6">
<rect x="154.948" y="168.605" width="97.9167" height="29.7011" rx="14.8506" fill="url(#paint39_linear_70_14498)"/>
<ellipse cx="169.792" cy="183.456" rx="10.9375" ry="10.9425" fill="#A1B8E3"/>
<rect x="184.635" y="173.816" width="60.6771" height="4.42912" rx="2.21456" fill="#A1B8E3"/>
<rect x="184.635" y="181.111" width="46.3542" height="4.42912" rx="2.21456" fill="#A1B8E3"/>
<rect opacity="0.5" x="184.635" y="189.969" width="17.1875" height="3.12644" rx="1.56322" fill="#A1B8E3"/>
</g>
</g>
<g filter="url(#filter4_d_70_14498)">
<rect x="139.323" y="203.778" width="97.9167" height="29.7011" rx="14.8506" fill="url(#paint40_linear_70_14498)"/>
<ellipse cx="154.167" cy="218.628" rx="10.9375" ry="10.9425" fill="#FFB417"/>
<rect x="169.01" y="208.988" width="60.6771" height="4.42912" rx="2.21456" fill="#FFB417"/>
<rect x="169.01" y="216.283" width="46.3542" height="4.42912" rx="2.21456" fill="#FFB417"/>
<rect opacity="0.5" x="169.01" y="225.142" width="17.1875" height="3.12644" rx="1.56322" fill="#FFB417"/>
</g>
<path opacity="0.5" fill-rule="evenodd" clip-rule="evenodd" d="M73.2441 402.557L178.899 395.773C176.452 397.953 173.399 399.337 170.146 399.741L92.8488 409.34" fill="url(#paint41_linear_70_14498)"/>
<path opacity="0.5" fill-rule="evenodd" clip-rule="evenodd" d="M28.8821 392.325H133.137C131.351 393.998 129.021 394.969 126.576 395.061L54.205 397.781" fill="url(#paint42_linear_70_14498)"/>
<path fill-rule="evenodd" clip-rule="evenodd" d="M106.277 280.511C106.277 285.167 102.444 294.29 107.442 296.655C112.44 299.021 116.861 286.735 116.861 286.735C116.861 286.735 116.48 277.714 111.961 277.714C107.442 277.714 106.277 275.855 106.277 280.511Z" fill="url(#paint43_linear_70_14498)"/>
<mask id="mask1_70_14498" style="mask-type:luminance" maskUnits="userSpaceOnUse" x="104" y="277" width="13" height="20">
<path fill-rule="evenodd" clip-rule="evenodd" d="M106.277 280.511C106.277 285.167 102.444 294.29 107.442 296.655C112.44 299.021 116.861 286.735 116.861 286.735C116.861 286.735 116.48 277.714 111.961 277.714C107.442 277.714 106.277 275.855 106.277 280.511Z" fill="white"/>
</mask>
<g mask="url(#mask1_70_14498)">
<g opacity="0.5">
<path fill-rule="evenodd" clip-rule="evenodd" d="M105.989 282.596C106.392 283.415 111.885 287.75 112.793 288.775C113.702 289.8 113.909 292.48 114.431 292.203C114.953 291.926 114.431 284.067 114.431 284.067C114.431 284.067 105.586 281.776 105.989 282.596Z" fill="#3D82F0" style="mix-blend-mode:multiply"/>
</g>
</g>
<path fill-rule="evenodd" clip-rule="evenodd" d="M115.217 386.074C115.133 388.478 114.407 391.461 114.986 392.677C115.566 393.893 118.621 394.628 119.636 394.664C120.652 394.699 121.051 392.998 122.597 393.934C124.143 394.871 133.131 395.135 133.84 391.58C134.549 388.024 129.993 387.865 127.967 387.794C125.94 387.724 123.829 386.661 120.909 383.993C117.99 381.324 115.301 383.669 115.217 386.074Z" fill="url(#paint44_linear_70_14498)"/>
<path d="M126.53 389.555C127.064 388.357 125.607 386.97 125.237 386.925" stroke="white" stroke-width="2" stroke-linecap="round"/>
<path d="M128.971 389.524C129.147 388.092 128.138 387.591 127.735 387.541" stroke="white" stroke-width="2" stroke-linecap="round"/>
<path fill-rule="evenodd" clip-rule="evenodd" d="M160.241 391.133C160.45 393.53 160.093 396.579 160.816 397.715C161.539 398.851 164.662 399.209 165.674 399.12C166.686 399.032 166.875 397.294 168.523 398.035C170.172 398.776 179.125 397.943 179.396 394.327C179.666 390.712 175.125 391.11 173.105 391.286C171.085 391.463 168.86 390.666 165.637 388.374C162.415 386.081 160.031 388.736 160.241 391.133Z" fill="url(#paint45_linear_70_14498)"/>
<path d="M171.893 393.21C172.278 391.955 170.663 390.756 170.29 390.756" stroke="white" stroke-width="2" stroke-linecap="round"/>
<path d="M174.313 392.881C174.313 391.438 173.251 391.063 172.844 391.063" stroke="white" stroke-width="2" stroke-linecap="round"/>
<path fill-rule="evenodd" clip-rule="evenodd" d="M152.077 305.015C152.077 305.015 161.894 341.001 163.172 349.189C164.45 357.377 167.578 385.055 167.136 389.519C165 391.699 161.151 390.394 160.481 389.994C159.81 389.594 155.68 366.822 152.077 357.988C148.473 349.154 140.364 341.023 135.021 332.135C135.021 337.92 130.895 353.401 130.895 353.401C130.895 353.401 124.879 380.741 122.832 385.166C121.86 386.736 116.956 385.585 115.054 385.166C115.054 381.019 119.155 360.071 119.155 352.798C119.155 345.526 118.021 332.346 117.597 326.943C117.173 321.54 116.138 311.058 117.597 305.015C121.296 305.015 152.077 305.015 152.077 305.015Z" fill="url(#paint46_linear_70_14498)"/>
<mask id="mask2_70_14498" style="mask-type:luminance" maskUnits="userSpaceOnUse" x="115" y="305" width="53" height="86">
<path fill-rule="evenodd" clip-rule="evenodd" d="M152.077 305.015C152.077 305.015 161.894 341.001 163.172 349.189C164.45 357.377 167.578 385.055 167.136 389.519C165 391.699 161.151 390.394 160.481 389.994C159.81 389.594 155.68 366.822 152.077 357.988C148.473 349.154 140.364 341.023 135.021 332.135C135.021 337.92 130.895 353.401 130.895 353.401C130.895 353.401 124.879 380.741 122.832 385.166C121.86 386.736 116.956 385.585 115.054 385.166C115.054 381.019 119.155 360.071 119.155 352.798C119.155 345.526 118.021 332.346 117.597 326.943C117.173 321.54 116.138 311.058 117.597 305.015C121.296 305.015 152.077 305.015 152.077 305.015Z" fill="white"/>
</mask>
<g mask="url(#mask2_70_14498)">
<g opacity="0.5">
<path fill-rule="evenodd" clip-rule="evenodd" d="M129.844 357.604C129.844 354.082 131.657 325.3 132.074 326.481C132.491 327.662 135.736 334.04 135.736 334.04C135.736 334.04 129.844 361.126 129.844 357.604Z" fill="#A1B8E3" style="mix-blend-mode:multiply"/>
</g>
<path d="M132.173 326.497C132.681 328.629 134.637 331.591 135.54 333.357" stroke="white" stroke-width="2" stroke-linecap="round"/>
<g opacity="0.5">
<path fill-rule="evenodd" clip-rule="evenodd" d="M119.869 311.027C122.164 312.262 131.15 317.517 142.73 315.411C148.452 314.37 152.132 313.008 153.783 311.027C153.783 310.051 152.395 305.945 152.008 304.374C151.62 302.803 117.058 309.515 119.869 311.027Z" fill="url(#paint47_linear_70_14498)" style="mix-blend-mode:multiply"/>
</g>
</g>
<path fill-rule="evenodd" clip-rule="evenodd" d="M134.713 228.52C134.713 228.52 136.04 231.091 138.286 232.182C140.533 233.274 141.656 233.808 141.656 233.808L140.701 237.515C140.701 237.515 142.481 242.966 141.656 244.803C140.831 246.641 138.286 247.862 136.805 249.501C135.324 251.139 133.955 256.698 133.955 256.698H124.194L123.752 249.501C123.752 249.501 121.148 239.115 125.565 233.808C129.982 228.501 134.713 228.52 134.713 228.52Z" fill="url(#paint48_linear_70_14498)"/>
<mask id="mask3_70_14498" style="mask-type:luminance" maskUnits="userSpaceOnUse" x="122" y="228" width="20" height="29">
<path fill-rule="evenodd" clip-rule="evenodd" d="M134.713 228.52C134.713 228.52 136.04 231.091 138.286 232.182C140.533 233.274 141.656 233.808 141.656 233.808L140.701 237.515C140.701 237.515 142.481 242.966 141.656 244.803C140.831 246.641 138.286 247.862 136.805 249.501C135.324 251.139 133.955 256.698 133.955 256.698H124.194L123.752 249.501C123.752 249.501 121.148 239.115 125.565 233.808C129.982 228.501 134.713 228.52 134.713 228.52Z" fill="white"/>
</mask>
<g mask="url(#mask3_70_14498)">
<g opacity="0.5">
<path fill-rule="evenodd" clip-rule="evenodd" d="M138.022 248.522C135.558 248.522 131.714 246.339 130.974 245.594C130.234 244.848 137.134 252.915 136.558 254.2C136.104 255.214 134.482 255.524 135.505 255.524C139.194 255.524 140.486 248.522 138.022 248.522Z" fill="#3D82F0" style="mix-blend-mode:multiply"/>
</g>
</g>
<path fill-rule="evenodd" clip-rule="evenodd" d="M123.752 249.197C115.146 241.149 108.331 234.28 114.208 224.71C120.086 215.139 133.761 211.922 136.317 223.556C136.317 228.547 132.633 231.214 132.633 231.214C132.633 231.214 131.944 232.617 133.761 234.106C135.578 235.594 133.761 236.824 133.761 236.824C133.761 236.824 130.173 234.515 129.236 237.59C128.299 240.665 131.758 241.765 131.758 242.535C132.95 245.363 130.49 247.95 130.49 247.95C130.49 247.95 129.23 249.197 123.752 249.197Z" fill="url(#paint49_linear_70_14498)"/>
<path fill-rule="evenodd" clip-rule="evenodd" d="M114.875 260.053C114.875 260.053 105.662 276.223 104.55 279.781C103.439 283.339 114.875 285.397 114.875 285.397L119.647 265.057L114.875 260.053Z" fill="url(#paint50_linear_70_14498)"/>
<path fill-rule="evenodd" clip-rule="evenodd" d="M134.778 254.487C134.778 254.487 141.717 256.319 145.806 261.16C149.895 266.001 148.984 280.565 150.142 289.234C151.3 297.902 156.339 304.203 148.556 309.094C140.772 313.986 118.764 312.875 116.964 309.094C115.165 305.313 113.113 282.075 113.113 282.075C113.113 282.075 113.113 261.16 115.572 259.397C118.03 257.634 123.769 254.226 123.769 254.226C123.769 254.226 123.64 254.745 126.408 255.259C129.177 255.772 134.778 254.487 134.778 254.487Z" fill="#D6E3FA"/>
<mask id="mask4_70_14498" style="mask-type:luminance" maskUnits="userSpaceOnUse" x="113" y="254" width="40" height="59">
<path fill-rule="evenodd" clip-rule="evenodd" d="M134.778 254.487C134.778 254.487 141.717 256.319 145.806 261.16C149.895 266.001 148.984 280.565 150.142 289.234C151.3 297.902 156.339 304.203 148.556 309.094C140.772 313.986 118.764 312.875 116.964 309.094C115.165 305.313 113.113 282.075 113.113 282.075C113.113 282.075 113.113 261.16 115.572 259.397C118.03 257.634 123.769 254.226 123.769 254.226C123.769 254.226 123.64 254.745 126.408 255.259C129.177 255.772 134.778 254.487 134.778 254.487Z" fill="white"/>
</mask>
<g mask="url(#mask4_70_14498)">
<path opacity="0.5" fill-rule="evenodd" clip-rule="evenodd" d="M140.542 271.032C140.542 271.032 144.284 288.535 146.537 291.816C148.789 295.097 150.253 305.025 152.056 306.208C153.859 307.392 156.449 293.85 155.154 289.213C153.859 284.576 148.022 273.219 148.022 273.219L140.542 271.032Z" fill="url(#paint51_linear_70_14498)"/>
<path opacity="0.5" fill-rule="evenodd" clip-rule="evenodd" d="M125.417 255.425C127.083 256.531 131.423 257.129 135.072 257.129C138.72 257.129 139.861 257.168 141.607 256.636C143.353 256.105 142.676 255.425 141.607 255.425C140.538 255.425 137.223 254.646 135.439 254.646C133.654 254.646 123.751 254.32 125.417 255.425Z" fill="url(#paint52_linear_70_14498)"/>
</g>
<path fill-rule="evenodd" clip-rule="evenodd" d="M123.453 254.487C123.453 254.487 123.239 251.81 123.239 250.946C123.239 250.083 130.426 251.302 135.598 251.786C136.159 253.94 136.06 254.082 136.06 254.487C136.06 254.689 134.768 256.422 127.819 255.86C125.282 255.655 123.453 254.487 123.453 254.487Z" fill="#E1ECFF"/>
<ellipse cx="7.05203" cy="2.80045" rx="7.05203" ry="2.80045" transform="matrix(0.406581 -0.913615 0.913476 0.406893 152.23 277.512)" fill="#A1B8E3"/>
<path fill-rule="evenodd" clip-rule="evenodd" d="M157.559 264.792L164.827 267.785C164.827 267.785 171.273 250.577 171.665 248.344C172.056 246.111 170.323 242.959 170.042 241.835C169.762 240.712 169.808 238.067 170.59 237.1C171.373 236.132 171.579 236.478 172.164 236.332C172.748 236.186 176.217 228.743 176.61 227.808C177.004 226.873 177.705 226.287 178.419 226.598C179.132 226.91 179.065 227.741 178.784 228.477C178.502 229.213 176.92 233.341 177.099 234.06C177.278 234.779 180.065 235.708 180.842 236.185C181.62 236.663 182.944 238.232 182.282 240.502C181.621 242.772 178.566 246.887 178.784 247.762C179.002 248.638 175.917 263.469 174.935 269.4C173.954 275.332 172.67 279.492 167.659 279.148C162.648 278.805 152.262 273.23 152.262 273.23C152.262 273.23 152.941 268.9 154.239 267.266C155.536 265.632 157.559 264.792 157.559 264.792Z" fill="url(#paint53_linear_70_14498)"/>
<mask id="mask5_70_14498" style="mask-type:luminance" maskUnits="userSpaceOnUse" x="152" y="226" width="31" height="54">
<path fill-rule="evenodd" clip-rule="evenodd" d="M157.559 264.792L164.827 267.785C164.827 267.785 171.273 250.577 171.665 248.344C172.056 246.111 170.323 242.959 170.042 241.835C169.762 240.712 169.808 238.067 170.59 237.1C171.373 236.132 171.579 236.478 172.164 236.332C172.748 236.186 176.217 228.743 176.61 227.808C177.004 226.873 177.705 226.287 178.419 226.598C179.132 226.91 179.065 227.741 178.784 228.477C178.502 229.213 176.92 233.341 177.099 234.06C177.278 234.779 180.065 235.708 180.842 236.185C181.62 236.663 182.944 238.232 182.282 240.502C181.621 242.772 178.566 246.887 178.784 247.762C179.002 248.638 175.917 263.469 174.935 269.4C173.954 275.332 172.67 279.492 167.659 279.148C162.648 278.805 152.262 273.23 152.262 273.23C152.262 273.23 152.941 268.9 154.239 267.266C155.536 265.632 157.559 264.792 157.559 264.792Z" fill="white"/>
</mask>
<g mask="url(#mask5_70_14498)">
<g opacity="0.5">
<path fill-rule="evenodd" clip-rule="evenodd" d="M159.945 265.589C159.945 265.589 158.404 274.604 159.371 277.257C160.337 279.91 155.036 276.166 155.036 276.166C155.036 276.166 155.139 272.303 155.954 270.547C156.769 268.792 159.945 265.589 159.945 265.589Z" fill="#3D82F0" style="mix-blend-mode:multiply"/>
</g>
<path d="M164.675 267.571C165.084 267.759 165.859 268.052 166.555 269.015" stroke="#223762" stroke-width="2" stroke-linecap="round"/>
</g>
<path fill-rule="evenodd" clip-rule="evenodd" d="M154.95 278.725C155.768 274.627 156.948 268.988 160.225 265.612C148.53 260.567 144.845 258.778 141.168 257.207C137.491 255.635 134.145 265.986 141.168 271.135C148.19 276.283 152.998 277.863 154.95 278.725Z" fill="url(#paint54_linear_70_14498)"/>
<path d="M201.148 407.539H314.203C314.203 411.425 311.053 414.575 307.167 414.575H208.184C204.299 414.575 201.148 411.425 201.148 407.539Z" fill="#CAD7F1"/>
<path fill-rule="evenodd" clip-rule="evenodd" d="M214.468 385.845H301.393C304.251 385.845 307.298 387.775 308.2 390.155L314.24 406.1C315.141 408.48 313.113 410.409 309.708 410.409H206.153C202.749 410.409 200.72 408.48 201.621 406.1L207.662 390.155C208.563 387.775 211.611 385.845 214.468 385.845Z" fill="#EBF1FD"/>
<mask id="mask6_70_14498" style="mask-type:luminance" maskUnits="userSpaceOnUse" x="201" y="385" width="114" height="26">
<path fill-rule="evenodd" clip-rule="evenodd" d="M214.468 385.845H301.393C304.251 385.845 307.298 387.775 308.2 390.155L314.24 406.1C315.141 408.48 313.113 410.409 309.708 410.409H206.153C202.749 410.409 200.72 408.48 201.621 406.1L207.662 390.155C208.563 387.775 211.611 385.845 214.468 385.845Z" fill="white"/>
</mask>
<g mask="url(#mask6_70_14498)">
<path fill-rule="evenodd" clip-rule="evenodd" d="M218.298 407.17C225.296 407.17 231.696 403.118 232.592 398.12C233.489 393.122 229.228 389.07 223.076 389.07C216.924 389.07 210.525 393.122 208.782 398.12C207.04 403.118 211.3 407.17 218.298 407.17Z" fill="#CAD7F1"/>
<path fill-rule="evenodd" clip-rule="evenodd" d="M240.447 390.243H298.203C299.458 390.243 300.738 391.063 301.062 392.074C301.386 393.086 300.604 393.906 299.314 393.906H239.963C238.673 393.906 237.75 393.086 237.901 392.074C238.052 391.063 239.192 390.243 240.447 390.243Z" fill="#CAD7F1"/>
<path fill-rule="evenodd" clip-rule="evenodd" d="M239.515 396.399H284.521C285.834 396.399 287.069 397.219 287.281 398.231C287.493 399.242 286.573 400.062 285.226 400.062H239.031C237.684 400.062 236.714 399.242 236.865 398.231C237.016 397.219 238.202 396.399 239.515 396.399Z" fill="#CAD7F1"/>
<path opacity="0.5" fill-rule="evenodd" clip-rule="evenodd" d="M238.043 403.728H253.935C254.911 403.728 255.692 404.307 255.68 405.021C255.669 405.735 254.855 406.314 253.862 406.314H237.689C236.696 406.314 235.978 405.735 236.084 405.021C236.191 404.307 237.068 403.728 238.043 403.728Z" fill="#CAD7F1"/>
</g>
<g filter="url(#filter5_d_70_14498)">
<path d="M197.018 397.661L310.055 399.635C309.987 403.52 306.783 406.615 302.898 406.547L203.93 404.819C200.045 404.751 196.95 401.546 197.018 397.661Z" fill="#CAD7F1"/>
<path fill-rule="evenodd" clip-rule="evenodd" d="M210.714 376.203L297.626 377.721C300.483 377.771 303.496 379.753 304.356 382.148L310.117 398.196C310.977 400.592 308.915 402.486 305.511 402.426L201.972 400.618C198.568 400.559 196.573 398.594 197.516 396.23L203.833 380.393C204.776 378.029 207.857 376.153 210.714 376.203Z" fill="#EBF1FD"/>
<mask id="mask7_70_14498" style="mask-type:luminance" maskUnits="userSpaceOnUse" x="197" y="376" width="114" height="27">
<path fill-rule="evenodd" clip-rule="evenodd" d="M210.714 376.203L297.626 377.721C300.483 377.771 303.496 379.753 304.356 382.148L310.117 398.196C310.977 400.592 308.915 402.486 305.511 402.426L201.972 400.618C198.568 400.559 196.573 398.594 197.516 396.23L203.833 380.393C204.776 378.029 207.857 376.153 210.714 376.203Z" fill="white"/>
</mask>
<g mask="url(#mask7_70_14498)">
<path fill-rule="evenodd" clip-rule="evenodd" d="M214.172 397.591C221.169 397.713 227.638 393.774 228.621 388.792C229.605 383.81 225.416 379.685 219.265 379.578C213.113 379.47 206.644 383.41 204.815 388.376C202.986 393.343 207.175 397.469 214.172 397.591Z" fill="#CAD7F1"/>
<path fill-rule="evenodd" clip-rule="evenodd" d="M236.612 381.053L294.359 382.062C295.614 382.084 296.88 382.926 297.187 383.943C297.493 384.96 296.696 385.766 295.406 385.744L236.065 384.707C234.775 384.685 233.866 383.849 234.035 382.84C234.203 381.831 235.357 381.031 236.612 381.053Z" fill="#CAD7F1"/>
<path fill-rule="evenodd" clip-rule="evenodd" d="M235.573 387.193L280.573 387.978C281.885 388.001 283.106 388.843 283.3 389.858C283.495 390.873 282.56 391.677 281.214 391.653L235.025 390.847C233.679 390.823 232.724 389.986 232.892 388.978C233.06 387.969 234.261 387.17 235.573 387.193Z" fill="#CAD7F1"/>
<path opacity="0.5" fill-rule="evenodd" clip-rule="evenodd" d="M233.973 394.495L249.864 394.772C250.839 394.789 251.61 395.382 251.586 396.095C251.562 396.809 250.738 397.374 249.746 397.356L233.574 397.074C232.582 397.056 231.874 396.465 231.993 395.753C232.111 395.041 232.998 394.478 233.973 394.495Z" fill="#CAD7F1"/>
</g>
</g>
<g filter="url(#filter6_d_70_14498)">
<path d="M203.631 391.292L316.616 387.344C316.752 391.228 313.713 394.486 309.83 394.621L210.908 398.077C207.024 398.213 203.766 395.175 203.631 391.292Z" fill="#CAD7F1"/>
<path fill-rule="evenodd" clip-rule="evenodd" d="M216.185 369.146L303.057 366.111C305.913 366.011 309.026 367.833 310.01 370.18L316.603 385.904C317.587 388.251 315.627 390.25 312.224 390.369L208.732 393.985C205.33 394.104 203.235 392.246 204.053 389.836L209.533 373.69C210.351 371.28 213.329 369.246 216.185 369.146Z" fill="#EBF1FD"/>
<mask id="mask8_70_14498" style="mask-type:luminance" maskUnits="userSpaceOnUse" x="203" y="366" width="114" height="28">
<path fill-rule="evenodd" clip-rule="evenodd" d="M216.185 369.146L303.057 366.111C305.913 366.011 309.026 367.833 310.01 370.18L316.603 385.904C317.587 388.251 315.627 390.25 312.224 390.369L208.732 393.985C205.33 394.104 203.235 392.246 204.053 389.836L209.533 373.69C210.351 371.28 213.329 369.246 216.185 369.146Z" fill="white"/>
</mask>
<g mask="url(#mask8_70_14498)">
<path fill-rule="evenodd" clip-rule="evenodd" d="M220.757 390.323C227.751 390.079 234.005 385.806 234.726 380.78C235.448 375.754 231.049 371.853 224.9 372.068C218.752 372.283 212.498 376.556 210.931 381.611C209.364 386.667 213.763 390.568 220.757 390.323Z" fill="#CAD7F1"/>
<path fill-rule="evenodd" clip-rule="evenodd" d="M242.301 372.633L300.022 370.617C301.277 370.573 302.585 371.348 302.944 372.347C303.303 373.347 302.549 374.194 301.26 374.239L241.946 376.311C240.657 376.356 239.706 375.569 239.821 374.553C239.936 373.536 241.047 372.677 242.301 372.633Z" fill="#CAD7F1"/>
<path fill-rule="evenodd" clip-rule="evenodd" d="M241.584 378.819L286.564 377.247C287.875 377.201 289.139 377.978 289.386 378.981C289.633 379.985 288.742 380.836 287.396 380.883L241.229 382.496C239.883 382.543 238.885 381.758 239.001 380.741C239.116 379.725 240.273 378.864 241.584 378.819Z" fill="#CAD7F1"/>
<path opacity="0.5" fill-rule="evenodd" clip-rule="evenodd" d="M240.369 386.195L256.252 385.64C257.227 385.606 258.028 386.157 258.041 386.871C258.055 387.585 257.262 388.192 256.27 388.226L240.106 388.791C239.114 388.826 238.376 388.272 238.457 387.555C238.539 386.838 239.395 386.229 240.369 386.195Z" fill="#CAD7F1"/>
</g>
</g>
<path d="M193.229 380.895H306.239C306.239 384.806 303.068 387.977 299.157 387.977H200.311C196.4 387.977 193.229 384.806 193.229 380.895Z" fill="#C6D5EF"/>
<path fill-rule="evenodd" clip-rule="evenodd" d="M206.543 359.057H293.434C296.291 359.057 299.337 361 300.238 363.395L306.276 379.446C307.177 381.841 305.149 383.783 301.746 383.783H198.231C194.828 383.783 192.8 381.841 193.702 379.446L199.739 363.395C200.641 361 203.687 359.057 206.543 359.057Z" fill="#EBF1FD"/>
<mask id="mask9_70_14498" style="mask-type:luminance" maskUnits="userSpaceOnUse" x="193" y="359" width="114" height="25">
<path fill-rule="evenodd" clip-rule="evenodd" d="M206.543 359.057H293.434C296.291 359.057 299.337 361 300.238 363.395L306.276 379.446C307.177 381.841 305.149 383.783 301.746 383.783H198.231C194.828 383.783 192.8 381.841 193.702 379.446L199.739 363.395C200.641 361 203.687 359.057 206.543 359.057Z" fill="white"/>
</mask>
<g mask="url(#mask9_70_14498)">
<path opacity="0.5" fill-rule="evenodd" clip-rule="evenodd" d="M210.372 380.523C217.367 380.523 223.764 376.444 224.66 371.413C225.556 366.382 221.297 362.303 215.148 362.303C208.998 362.303 202.601 366.382 200.859 371.413C199.118 376.444 203.377 380.523 210.372 380.523Z" fill="#AABFE5"/>
<path opacity="0.5" fill-rule="evenodd" clip-rule="evenodd" d="M232.512 363.484H290.245C291.5 363.484 292.78 364.309 293.104 365.327C293.428 366.346 292.645 367.171 291.356 367.171H232.028C230.739 367.171 229.816 366.346 229.967 365.327C230.118 364.309 231.257 363.484 232.512 363.484Z" fill="#AABFE5"/>
<path opacity="0.5" fill-rule="evenodd" clip-rule="evenodd" d="M231.58 369.681H276.569C277.881 369.681 279.116 370.506 279.328 371.525C279.54 372.543 278.62 373.368 277.274 373.368H231.097C229.75 373.368 228.781 372.543 228.932 371.525C229.082 370.506 230.268 369.681 231.58 369.681Z" fill="#AABFE5"/>
<path opacity="0.3" fill-rule="evenodd" clip-rule="evenodd" d="M230.109 377.058H245.995C246.97 377.058 247.751 377.641 247.74 378.36C247.728 379.078 246.915 379.661 245.922 379.661H229.755C228.763 379.661 228.045 379.078 228.151 378.36C228.258 377.641 229.134 377.058 230.109 377.058Z" fill="#A1B8E3"/>
</g>
</g>
<defs>
<filter id="filter0_i_70_14498" x="65.2771" y="151.829" width="136.107" height="84.9678" filterUnits="userSpaceOnUse" color-interpolation-filters="sRGB">
<feFlood flood-opacity="0" result="BackgroundImageFix"/>
<feBlend mode="normal" in="SourceGraphic" in2="BackgroundImageFix" result="shape"/>
<feColorMatrix in="SourceAlpha" type="matrix" values="0 0 0 0 0 0 0 0 0 0 0 0 0 0 0 0 0 0 127 0" result="hardAlpha"/>
<feOffset dy="-14"/>
<feGaussianBlur stdDeviation="12.5"/>
<feComposite in2="hardAlpha" operator="arithmetic" k2="-1" k3="1"/>
<feColorMatrix type="matrix" values="0 0 0 0 0.788056 0 0 0 0 0.827193 0 0 0 0 0.89764 0 0 0 0.337126 0"/>
<feBlend mode="normal" in2="shape" result="effect1_innerShadow_70_14498"/>
</filter>
<filter id="filter1_i_70_14498" x="181.973" y="113.994" width="134.484" height="86.9285" filterUnits="userSpaceOnUse" color-interpolation-filters="sRGB">
<feFlood flood-opacity="0" result="BackgroundImageFix"/>
<feBlend mode="normal" in="SourceGraphic" in2="BackgroundImageFix" result="shape"/>
<feColorMatrix in="SourceAlpha" type="matrix" values="0 0 0 0 0 0 0 0 0 0 0 0 0 0 0 0 0 0 127 0" result="hardAlpha"/>
<feOffset dy="-14"/>
<feGaussianBlur stdDeviation="12.5"/>
<feComposite in2="hardAlpha" operator="arithmetic" k2="-1" k3="1"/>
<feColorMatrix type="matrix" values="0 0 0 0 0.788056 0 0 0 0 0.827193 0 0 0 0 0.89764 0 0 0 0.337126 0"/>
<feBlend mode="normal" in2="shape" result="effect1_innerShadow_70_14498"/>
</filter>
<filter id="filter2_i_70_14498" x="47.7288" y="227.797" width="55.0645" height="95.7325" filterUnits="userSpaceOnUse" color-interpolation-filters="sRGB">
<feFlood flood-opacity="0" result="BackgroundImageFix"/>
<feBlend mode="normal" in="SourceGraphic" in2="BackgroundImageFix" result="shape"/>
<feColorMatrix in="SourceAlpha" type="matrix" values="0 0 0 0 0 0 0 0 0 0 0 0 0 0 0 0 0 0 127 0" result="hardAlpha"/>
<feOffset dx="-8" dy="-6"/>
<feGaussianBlur stdDeviation="15"/>
<feComposite in2="hardAlpha" operator="arithmetic" k2="-1" k3="1"/>
<feColorMatrix type="matrix" values="0 0 0 0 0.269084 0 0 0 0 0.79451 0 0 0 0 0.470313 0 0 0 0.5 0"/>
<feBlend mode="normal" in2="shape" result="effect1_innerShadow_70_14498"/>
</filter>
<filter id="filter3_d_70_14498" x="-12.2605" y="-1.47144" width="432.333" height="479.28" filterUnits="userSpaceOnUse" color-interpolation-filters="sRGB">
<feFlood flood-opacity="0" result="BackgroundImageFix"/>
<feColorMatrix in="SourceAlpha" type="matrix" values="0 0 0 0 0 0 0 0 0 0 0 0 0 0 0 0 0 0 127 0" result="hardAlpha"/>
<feOffset/>
<feGaussianBlur stdDeviation="81"/>
<feColorMatrix type="matrix" values="0 0 0 0 1 0 0 0 0 1 0 0 0 0 1 0 0 0 1 0"/>
<feBlend mode="normal" in2="BackgroundImageFix" result="effect1_dropShadow_70_14498"/>
<feBlend mode="normal" in="SourceGraphic" in2="effect1_dropShadow_70_14498" result="shape"/>
</filter>
<filter id="filter4_d_70_14498" x="139.323" y="203.778" width="114.917" height="46.7012" filterUnits="userSpaceOnUse" color-interpolation-filters="sRGB">
<feFlood flood-opacity="0" result="BackgroundImageFix"/>
<feColorMatrix in="SourceAlpha" type="matrix" values="0 0 0 0 0 0 0 0 0 0 0 0 0 0 0 0 0 0 127 0" result="hardAlpha"/>
<feOffset dx="17" dy="17"/>
<feColorMatrix type="matrix" values="0 0 0 0 1 0 0 0 0 0.706613 0 0 0 0 0.0893703 0 0 0 0.173347 0"/>
<feBlend mode="normal" in2="BackgroundImageFix" result="effect1_dropShadow_70_14498"/>
<feBlend mode="normal" in="SourceGraphic" in2="effect1_dropShadow_70_14498" result="shape"/>
</filter>
<filter id="filter5_d_70_14498" x="174.017" y="366.202" width="147.295" height="64.3459" filterUnits="userSpaceOnUse" color-interpolation-filters="sRGB">
<feFlood flood-opacity="0" result="BackgroundImageFix"/>
<feColorMatrix in="SourceAlpha" type="matrix" values="0 0 0 0 0 0 0 0 0 0 0 0 0 0 0 0 0 0 127 0" result="hardAlpha"/>
<feOffset dx="-6" dy="7"/>
<feGaussianBlur stdDeviation="8.5"/>
<feColorMatrix type="matrix" values="0 0 0 0 0.260846 0 0 0 0 0.436705 0 0 0 0 0.80195 0 0 0 0.186 0"/>
<feBlend mode="normal" in2="BackgroundImageFix" result="effect1_dropShadow_70_14498"/>
<feBlend mode="normal" in="SourceGraphic" in2="effect1_dropShadow_70_14498" result="shape"/>
</filter>
<filter id="filter6_d_70_14498" x="180.631" y="356.107" width="147.226" height="65.975" filterUnits="userSpaceOnUse" color-interpolation-filters="sRGB">
<feFlood flood-opacity="0" result="BackgroundImageFix"/>
<feColorMatrix in="SourceAlpha" type="matrix" values="0 0 0 0 0 0 0 0 0 0 0 0 0 0 0 0 0 0 127 0" result="hardAlpha"/>
<feOffset dx="-6" dy="7"/>
<feGaussianBlur stdDeviation="8.5"/>
<feColorMatrix type="matrix" values="0 0 0 0 0.260846 0 0 0 0 0.436705 0 0 0 0 0.80195 0 0 0 0.186 0"/>
<feBlend mode="normal" in2="BackgroundImageFix" result="effect1_dropShadow_70_14498"/>
<feBlend mode="normal" in="SourceGraphic" in2="effect1_dropShadow_70_14498" result="shape"/>
</filter>
<linearGradient id="paint0_linear_70_14498" x1="187.5" y1="600" x2="162.313" y2="693.193" gradientUnits="userSpaceOnUse">
<stop stop-color="#FF8960"/>
<stop offset="1" stop-color="#FF62A5"/>
</linearGradient>
<linearGradient id="paint1_linear_70_14498" x1="155.752" y1="227.446" x2="162.944" y2="179.098" gradientUnits="userSpaceOnUse">
<stop stop-color="#ECF1FF"/>
<stop offset="1" stop-color="white"/>
</linearGradient>
<linearGradient id="paint2_linear_70_14498" x1="271.286" y1="190.11" x2="278.683" y2="141.469" gradientUnits="userSpaceOnUse">
<stop stop-color="#ECF1FF"/>
<stop offset="1" stop-color="white"/>
</linearGradient>
<linearGradient id="paint3_linear_70_14498" x1="636.477" y1="304.681" x2="635.029" y2="401.753" gradientUnits="userSpaceOnUse">
<stop stop-color="white"/>
<stop offset="1" stop-color="#D6E3FA"/>
</linearGradient>
<linearGradient id="paint4_linear_70_14498" x1="296.346" y1="262.793" x2="296.346" y2="338.193" gradientUnits="userSpaceOnUse">
<stop stop-color="#CFDDF3"/>
<stop offset="1" stop-color="#A1B8E3"/>
</linearGradient>
<linearGradient id="paint5_linear_70_14498" x1="12.2714" y1="-28.2263" x2="-7.29107" y2="-23.6548" gradientUnits="userSpaceOnUse">
<stop stop-color="#CFDDF3"/>
<stop offset="1" stop-color="#A1B8E3"/>
</linearGradient>
<linearGradient id="paint6_linear_70_14498" x1="12.2756" y1="-28.2166" x2="-7.29218" y2="-23.6407" gradientUnits="userSpaceOnUse">
<stop stop-color="#CFDDF3"/>
<stop offset="1" stop-color="#A1B8E3"/>
</linearGradient>
<linearGradient id="paint7_linear_70_14498" x1="12.2757" y1="-28.2165" x2="-7.29219" y2="-23.6406" gradientUnits="userSpaceOnUse">
<stop stop-color="#CFDDF3"/>
<stop offset="1" stop-color="#A1B8E3"/>
</linearGradient>
<linearGradient id="paint8_linear_70_14498" x1="12.2757" y1="-28.2165" x2="-7.29219" y2="-23.6407" gradientUnits="userSpaceOnUse">
<stop stop-color="#CFDDF3"/>
<stop offset="1" stop-color="#A1B8E3"/>
</linearGradient>
<linearGradient id="paint9_linear_70_14498" x1="12.2717" y1="-28.2257" x2="-7.29114" y2="-23.6539" gradientUnits="userSpaceOnUse">
<stop stop-color="#CFDDF3"/>
<stop offset="1" stop-color="#A1B8E3"/>
</linearGradient>
<linearGradient id="paint10_linear_70_14498" x1="12.2724" y1="-28.2239" x2="-7.29134" y2="-23.6514" gradientUnits="userSpaceOnUse">
<stop stop-color="#CFDDF3"/>
<stop offset="1" stop-color="#A1B8E3"/>
</linearGradient>
<linearGradient id="paint11_linear_70_14498" x1="12.273" y1="-28.2226" x2="-7.29149" y2="-23.6494" gradientUnits="userSpaceOnUse">
<stop stop-color="#CFDDF3"/>
<stop offset="1" stop-color="#A1B8E3"/>
</linearGradient>
<linearGradient id="paint12_linear_70_14498" x1="16.9799" y1="242.197" x2="82.0616" y2="273.599" gradientUnits="userSpaceOnUse">
<stop stop-color="#CFDDF3"/>
<stop offset="1" stop-color="#7FA1E0"/>
</linearGradient>
<linearGradient id="paint13_linear_70_14498" x1="52.1626" y1="271.294" x2="52.1626" y2="293.207" gradientUnits="userSpaceOnUse">
<stop stop-color="#CFDDF3"/>
<stop offset="1" stop-color="#A1B8E3"/>
</linearGradient>
<linearGradient id="paint14_linear_70_14498" x1="44.3359" y1="258.826" x2="44.3359" y2="271.943" gradientUnits="userSpaceOnUse">
<stop stop-color="#CFDDF3"/>
<stop offset="1" stop-color="#A1B8E3"/>
</linearGradient>
<linearGradient id="paint15_linear_70_14498" x1="38.5811" y1="236.101" x2="38.5811" y2="346.456" gradientUnits="userSpaceOnUse">
<stop stop-color="#CFDDF3"/>
<stop offset="1" stop-color="#A1B8E3"/>
</linearGradient>
<linearGradient id="paint16_linear_70_14498" x1="539.791" y1="407.396" x2="539.554" y2="242.967" gradientUnits="userSpaceOnUse">
<stop stop-color="white"/>
<stop offset="1" stop-color="#D6E3FA"/>
</linearGradient>
<linearGradient id="paint17_linear_70_14498" x1="311.837" y1="285.209" x2="294.355" y2="338.986" gradientUnits="userSpaceOnUse">
<stop stop-color="#CFDDF3"/>
<stop offset="1" stop-color="#A1B8E3"/>
</linearGradient>
<linearGradient id="paint18_linear_70_14498" x1="9.24402" y1="-21.1668" x2="-5.48541" y2="-17.7091" gradientUnits="userSpaceOnUse">
<stop stop-color="#CFDDF3"/>
<stop offset="1" stop-color="#A1B8E3"/>
</linearGradient>
<linearGradient id="paint19_linear_70_14498" x1="9.24542" y1="-21.1635" x2="-5.48577" y2="-17.7044" gradientUnits="userSpaceOnUse">
<stop stop-color="#CFDDF3"/>
<stop offset="1" stop-color="#A1B8E3"/>
</linearGradient>
<linearGradient id="paint20_linear_70_14498" x1="9.24555" y1="-21.1632" x2="-5.48581" y2="-17.704" gradientUnits="userSpaceOnUse">
<stop stop-color="#CFDDF3"/>
<stop offset="1" stop-color="#A1B8E3"/>
</linearGradient>
<linearGradient id="paint21_linear_70_14498" x1="9.24554" y1="-21.1633" x2="-5.4858" y2="-17.704" gradientUnits="userSpaceOnUse">
<stop stop-color="#CFDDF3"/>
<stop offset="1" stop-color="#A1B8E3"/>
</linearGradient>
<linearGradient id="paint22_linear_70_14498" x1="9.24195" y1="-21.1715" x2="-5.48487" y2="-17.716" gradientUnits="userSpaceOnUse">
<stop stop-color="#CFDDF3"/>
<stop offset="1" stop-color="#A1B8E3"/>
</linearGradient>
<linearGradient id="paint23_linear_70_14498" x1="9.24479" y1="-21.165" x2="-5.48561" y2="-17.7065" gradientUnits="userSpaceOnUse">
<stop stop-color="#CFDDF3"/>
<stop offset="1" stop-color="#A1B8E3"/>
</linearGradient>
<linearGradient id="paint24_linear_70_14498" x1="9.24516" y1="-21.1641" x2="-5.4857" y2="-17.7053" gradientUnits="userSpaceOnUse">
<stop stop-color="#CFDDF3"/>
<stop offset="1" stop-color="#A1B8E3"/>
</linearGradient>
<linearGradient id="paint25_linear_70_14498" x1="61.4378" y1="325.84" x2="66.4549" y2="341.386" gradientUnits="userSpaceOnUse">
<stop stop-color="#EDF3FD" stop-opacity="0.01"/>
<stop offset="1" stop-color="#D6E3FA"/>
</linearGradient>
<radialGradient id="paint26_radial_70_14498" cx="0" cy="0" r="1" gradientTransform="matrix(-48.7972 27.2395 -35.3775 -178.116 91.8196 243.517)" gradientUnits="userSpaceOnUse">
<stop stop-color="#64CF9B"/>
<stop offset="1" stop-color="#ADF9A9"/>
</radialGradient>
<linearGradient id="paint27_linear_70_14498" x1="72.3958" y1="245.203" x2="72.3958" y2="337.433" gradientUnits="userSpaceOnUse">
<stop stop-color="#80D4AE"/>
<stop offset="1" stop-color="#4CB67D"/>
</linearGradient>
<linearGradient id="paint28_linear_70_14498" x1="71.8748" y1="275.425" x2="71.8748" y2="285.065" gradientUnits="userSpaceOnUse">
<stop stop-color="#64DEA8"/>
<stop offset="1" stop-color="#4CB67D"/>
</linearGradient>
<linearGradient id="paint29_linear_70_14498" x1="63.5415" y1="300.697" x2="63.5415" y2="312.682" gradientUnits="userSpaceOnUse">
<stop stop-color="#64DEA8"/>
<stop offset="1" stop-color="#4CB67D"/>
</linearGradient>
<linearGradient id="paint30_linear_70_14498" x1="74.2185" y1="292.881" x2="74.2185" y2="300.176" gradientUnits="userSpaceOnUse">
<stop stop-color="#64DEA8"/>
<stop offset="1" stop-color="#4CB67D"/>
</linearGradient>
<linearGradient id="paint31_linear_70_14498" x1="81.7708" y1="247.287" x2="81.7708" y2="261.096" gradientUnits="userSpaceOnUse">
<stop stop-color="#64DEA8"/>
<stop offset="1" stop-color="#4CB67D"/>
</linearGradient>
<linearGradient id="paint32_linear_70_14498" x1="120.039" y1="347.493" x2="119.836" y2="376.264" gradientUnits="userSpaceOnUse">
<stop stop-color="#D0DCF1"/>
<stop offset="1" stop-color="white"/>
</linearGradient>
<linearGradient id="paint33_linear_70_14498" x1="310.926" y1="101.51" x2="181.649" y2="132.842" gradientUnits="userSpaceOnUse">
<stop stop-color="#47689B"/>
<stop offset="1" stop-color="#223762"/>
</linearGradient>
<linearGradient id="paint34_linear_70_14498" x1="218.481" y1="59.2498" x2="54.3296" y2="134.716" gradientUnits="userSpaceOnUse">
<stop stop-color="#47689B"/>
<stop offset="1" stop-color="#223762"/>
</linearGradient>
<linearGradient id="paint35_linear_70_14498" x1="182.707" y1="150.684" x2="265.103" y2="150.684" gradientUnits="userSpaceOnUse">
<stop stop-color="#365383"/>
<stop offset="1" stop-color="#1C2C4C"/>
</linearGradient>
<linearGradient id="paint36_linear_70_14498" x1="207.444" y1="355.1" x2="223.41" y2="332.535" gradientUnits="userSpaceOnUse">
<stop stop-color="#365383"/>
<stop offset="1" stop-color="#1C2C4C"/>
</linearGradient>
<linearGradient id="paint37_linear_70_14498" x1="280.384" y1="342.274" x2="277.381" y2="297.039" gradientUnits="userSpaceOnUse">
<stop stop-color="#EDF3FD"/>
<stop offset="1" stop-color="#D6E3FA"/>
</linearGradient>
<linearGradient id="paint38_linear_70_14498" x1="280.384" y1="306.32" x2="277.381" y2="261.085" gradientUnits="userSpaceOnUse">
<stop stop-color="#EDF3FD"/>
<stop offset="1" stop-color="#D6E3FA"/>
</linearGradient>
<linearGradient id="paint39_linear_70_14498" x1="280.384" y1="231.285" x2="277.381" y2="186.051" gradientUnits="userSpaceOnUse">
<stop stop-color="#EDF3FD"/>
<stop offset="1" stop-color="#D6E3FA"/>
</linearGradient>
<linearGradient id="paint40_linear_70_14498" x1="288.132" y1="246.52" x2="281.919" y2="202.909" gradientUnits="userSpaceOnUse">
<stop stop-color="#FFE883"/>
<stop offset="1" stop-color="#FECC4C"/>
</linearGradient>
<linearGradient id="paint41_linear_70_14498" x1="170.544" y1="388.582" x2="24.612" y2="388.582" gradientUnits="userSpaceOnUse">
<stop stop-color="#D0DCF1"/>
<stop offset="1" stop-color="white" stop-opacity="0.01"/>
</linearGradient>
<linearGradient id="paint42_linear_70_14498" x1="124.893" y1="389.433" x2="-19.1057" y2="389.433" gradientUnits="userSpaceOnUse">
<stop stop-color="#D0DCF1"/>
<stop offset="1" stop-color="white" stop-opacity="0.01"/>
</linearGradient>
<linearGradient id="paint43_linear_70_14498" x1="114.413" y1="303.357" x2="120.571" y2="293.884" gradientUnits="userSpaceOnUse">
<stop stop-color="#70B8F9"/>
<stop offset="1" stop-color="#3D82F0"/>
</linearGradient>
<linearGradient id="paint44_linear_70_14498" x1="116.224" y1="398.574" x2="123.769" y2="387.037" gradientUnits="userSpaceOnUse">
<stop stop-color="#47689B"/>
<stop offset="1" stop-color="#223762"/>
</linearGradient>
<linearGradient id="paint45_linear_70_14498" x1="162.763" y1="403.418" x2="168.845" y2="391.046" gradientUnits="userSpaceOnUse">
<stop stop-color="#47689B"/>
<stop offset="1" stop-color="#223762"/>
</linearGradient>
<linearGradient id="paint46_linear_70_14498" x1="142.879" y1="408.785" x2="179.028" y2="326.609" gradientUnits="userSpaceOnUse">
<stop stop-color="#CFDDF3"/>
<stop offset="1" stop-color="#A1B8E3"/>
</linearGradient>
<linearGradient id="paint47_linear_70_14498" x1="159.929" y1="313.376" x2="159.538" y2="306.446" gradientUnits="userSpaceOnUse">
<stop stop-color="#CFDDF3" stop-opacity="0.477723"/>
<stop offset="1" stop-color="#A1B8E3"/>
</linearGradient>
<linearGradient id="paint48_linear_70_14498" x1="140.732" y1="221.427" x2="127.579" y2="230.295" gradientUnits="userSpaceOnUse">
<stop stop-color="#70B8F9"/>
<stop offset="1" stop-color="#3D82F0"/>
</linearGradient>
<linearGradient id="paint49_linear_70_14498" x1="117.305" y1="221.301" x2="129.089" y2="236.83" gradientUnits="userSpaceOnUse">
<stop stop-color="#164898"/>
<stop offset="1" stop-color="#223762"/>
</linearGradient>
<linearGradient id="paint50_linear_70_14498" x1="105.708" y1="282.294" x2="117.529" y2="280.742" gradientUnits="userSpaceOnUse">
<stop stop-color="#EDF3FD"/>
<stop offset="1" stop-color="#D6E3FA"/>
</linearGradient>
<linearGradient id="paint51_linear_70_14498" x1="149.783" y1="295.398" x2="157.639" y2="290.392" gradientUnits="userSpaceOnUse">
<stop stop-color="#CFDDF3"/>
<stop offset="1" stop-color="#A1B8E3"/>
</linearGradient>
<linearGradient id="paint52_linear_70_14498" x1="165.464" y1="260.088" x2="165.356" y2="252.713" gradientUnits="userSpaceOnUse">
<stop stop-color="#CFDDF3"/>
<stop offset="1" stop-color="#A1B8E3"/>
</linearGradient>
<linearGradient id="paint53_linear_70_14498" x1="207.521" y1="303.263" x2="190.179" y2="233.739" gradientUnits="userSpaceOnUse">
<stop stop-color="#70B8F9"/>
<stop offset="1" stop-color="#3D82F0"/>
</linearGradient>
<linearGradient id="paint54_linear_70_14498" x1="133.363" y1="263.525" x2="141.176" y2="279.536" gradientUnits="userSpaceOnUse">
<stop stop-color="#D6E3FA"/>
<stop offset="1" stop-color="#E3EDFE"/>
</linearGradient>
<clipPath id="clip0_70_14498">
<rect width="375" height="812" fill="white"/>
</clipPath>
<clipPath id="clip1_70_14498">
<rect width="185" height="50" fill="white" transform="translate(95 625)"/>
</clipPath>
</defs>
</svg>
