<svg width="375" height="812" viewBox="0 0 375 812" fill="none" xmlns="http://www.w3.org/2000/svg">
<g clip-path="url(#clip0_70_14492)">
<rect width="375" height="812" fill="url(#paint0_linear_70_14492)"/>
<path d="M144.183 519.808H137.511L136.407 523H132.879L138.903 506.224H142.815L148.839 523H145.287L144.183 519.808ZM143.271 517.12L140.847 510.112L138.423 517.12H143.271ZM154.771 505.24V523H151.411V505.24H154.771ZM161.771 505.24V523H158.411V505.24H161.771ZM177.305 506.248C179.065 506.248 180.609 506.592 181.937 507.28C183.281 507.968 184.313 508.952 185.033 510.232C185.769 511.496 186.137 512.968 186.137 514.648C186.137 516.328 185.769 517.8 185.033 519.064C184.313 520.312 183.281 521.28 181.937 521.968C180.609 522.656 179.065 523 177.305 523H171.449V506.248H177.305ZM177.185 520.144C178.945 520.144 180.305 519.664 181.265 518.704C182.225 517.744 182.705 516.392 182.705 514.648C182.705 512.904 182.225 511.544 181.265 510.568C180.305 509.576 178.945 509.08 177.185 509.08H174.809V520.144H177.185ZM194.876 523.216C193.596 523.216 192.444 522.936 191.42 522.376C190.396 521.8 189.588 520.992 188.996 519.952C188.42 518.912 188.132 517.712 188.132 516.352C188.132 514.992 188.428 513.792 189.02 512.752C189.628 511.712 190.452 510.912 191.492 510.352C192.532 509.776 193.692 509.488 194.972 509.488C196.252 509.488 197.412 509.776 198.452 510.352C199.492 510.912 200.308 511.712 200.9 512.752C201.508 513.792 201.812 514.992 201.812 516.352C201.812 517.712 201.5 518.912 200.876 519.952C200.268 520.992 199.436 521.8 198.38 522.376C197.34 522.936 196.172 523.216 194.876 523.216ZM194.876 520.288C195.484 520.288 196.052 520.144 196.58 519.856C197.124 519.552 197.556 519.104 197.876 518.512C198.196 517.92 198.356 517.2 198.356 516.352C198.356 515.088 198.02 514.12 197.348 513.448C196.692 512.76 195.884 512.416 194.924 512.416C193.964 512.416 193.156 512.76 192.5 513.448C191.86 514.12 191.54 515.088 191.54 516.352C191.54 517.616 191.852 518.592 192.476 519.28C193.116 519.952 193.916 520.288 194.876 520.288ZM211.965 509.512C213.549 509.512 214.829 510.016 215.805 511.024C216.781 512.016 217.269 513.408 217.269 515.2V523H213.909V515.656C213.909 514.6 213.645 513.792 213.117 513.232C212.589 512.656 211.869 512.368 210.957 512.368C210.029 512.368 209.293 512.656 208.749 513.232C208.221 513.792 207.957 514.6 207.957 515.656V523H204.597V509.704H207.957V511.36C208.405 510.784 208.973 510.336 209.661 510.016C210.365 509.68 211.133 509.512 211.965 509.512ZM233.144 516.064C233.144 516.544 233.112 516.976 233.048 517.36H223.328C223.408 518.32 223.744 519.072 224.336 519.616C224.928 520.16 225.656 520.432 226.52 520.432C227.768 520.432 228.656 519.896 229.184 518.824H232.808C232.424 520.104 231.688 521.16 230.6 521.992C229.512 522.808 228.176 523.216 226.592 523.216C225.312 523.216 224.16 522.936 223.136 522.376C222.128 521.8 221.336 520.992 220.76 519.952C220.2 518.912 219.92 517.712 219.92 516.352C219.92 514.976 220.2 513.768 220.76 512.728C221.32 511.688 222.104 510.888 223.112 510.328C224.12 509.768 225.28 509.488 226.592 509.488C227.856 509.488 228.984 509.76 229.976 510.304C230.984 510.848 231.76 511.624 232.304 512.632C232.864 513.624 233.144 514.768 233.144 516.064ZM229.664 515.104C229.648 514.24 229.336 513.552 228.728 513.04C228.12 512.512 227.376 512.248 226.496 512.248C225.664 512.248 224.96 512.504 224.384 513.016C223.824 513.512 223.48 514.208 223.352 515.104H229.664ZM240.26 505.96L239.876 517.552H237.044L236.636 505.96H240.26ZM238.532 523.168C237.924 523.168 237.42 522.984 237.02 522.616C236.636 522.232 236.444 521.76 236.444 521.2C236.444 520.64 236.636 520.176 237.02 519.808C237.42 519.424 237.924 519.232 238.532 519.232C239.124 519.232 239.612 519.424 239.996 519.808C240.38 520.176 240.572 520.64 240.572 521.2C240.572 521.76 240.38 522.232 239.996 522.616C239.612 522.984 239.124 523.168 238.532 523.168Z" fill="#101828"/>
<path d="M83.0039 557.675H78.4439L77.6039 560H76.1639L79.9439 549.605H81.5189L85.2839 560H83.8439L83.0039 557.675ZM82.6139 556.565L80.7239 551.285L78.8339 556.565H82.6139ZM88.6163 548.9V560H87.2513V548.9H88.6163ZM92.6278 548.9V560H91.2628V548.9H92.6278ZM102.503 560.135C101.873 560.135 101.308 560.03 100.808 559.82C100.308 559.6 99.9132 559.3 99.6232 558.92C99.3332 558.53 99.1732 558.085 99.1432 557.585H100.553C100.593 557.995 100.783 558.33 101.123 558.59C101.473 558.85 101.928 558.98 102.488 558.98C103.008 558.98 103.418 558.865 103.718 558.635C104.018 558.405 104.168 558.115 104.168 557.765C104.168 557.405 104.008 557.14 103.688 556.97C103.368 556.79 102.873 556.615 102.203 556.445C101.593 556.285 101.093 556.125 100.703 555.965C100.323 555.795 99.9932 555.55 99.7132 555.23C99.4432 554.9 99.3082 554.47 99.3082 553.94C99.3082 553.52 99.4332 553.135 99.6832 552.785C99.9332 552.435 100.288 552.16 100.748 551.96C101.208 551.75 101.733 551.645 102.323 551.645C103.233 551.645 103.968 551.875 104.528 552.335C105.088 552.795 105.388 553.425 105.428 554.225H104.063C104.033 553.795 103.858 553.45 103.538 553.19C103.228 552.93 102.808 552.8 102.278 552.8C101.788 552.8 101.398 552.905 101.108 553.115C100.818 553.325 100.673 553.6 100.673 553.94C100.673 554.21 100.758 554.435 100.928 554.615C101.108 554.785 101.328 554.925 101.588 555.035C101.858 555.135 102.228 555.25 102.698 555.38C103.288 555.54 103.768 555.7 104.138 555.86C104.508 556.01 104.823 556.24 105.083 556.55C105.353 556.86 105.493 557.265 105.503 557.765C105.503 558.215 105.378 558.62 105.128 558.98C104.878 559.34 104.523 559.625 104.063 559.835C103.613 560.035 103.093 560.135 102.503 560.135ZM107.24 555.875C107.24 555.025 107.41 554.285 107.75 553.655C108.09 553.015 108.56 552.52 109.16 552.17C109.77 551.82 110.465 551.645 111.245 551.645C112.255 551.645 113.085 551.89 113.735 552.38C114.395 552.87 114.83 553.55 115.04 554.42H113.57C113.43 553.92 113.155 553.525 112.745 553.235C112.345 552.945 111.845 552.8 111.245 552.8C110.465 552.8 109.835 553.07 109.355 553.61C108.875 554.14 108.635 554.895 108.635 555.875C108.635 556.865 108.875 557.63 109.355 558.17C109.835 558.71 110.465 558.98 111.245 558.98C111.845 558.98 112.345 558.84 112.745 558.56C113.145 558.28 113.42 557.88 113.57 557.36H115.04C114.82 558.2 114.38 558.875 113.72 559.385C113.06 559.885 112.235 560.135 111.245 560.135C110.465 560.135 109.77 559.96 109.16 559.61C108.56 559.26 108.09 558.765 107.75 558.125C107.41 557.485 107.24 556.735 107.24 555.875ZM121.261 551.63C121.881 551.63 122.441 551.765 122.941 552.035C123.441 552.295 123.831 552.69 124.111 553.22C124.401 553.75 124.546 554.395 124.546 555.155V560H123.196V555.35C123.196 554.53 122.991 553.905 122.581 553.475C122.171 553.035 121.611 552.815 120.901 552.815C120.181 552.815 119.606 553.04 119.176 553.49C118.756 553.94 118.546 554.595 118.546 555.455V560H117.181V548.9H118.546V552.95C118.816 552.53 119.186 552.205 119.656 551.975C120.136 551.745 120.671 551.63 121.261 551.63ZM134.596 555.575C134.596 555.835 134.581 556.11 134.551 556.4H127.981C128.031 557.21 128.306 557.845 128.806 558.305C129.316 558.755 129.931 558.98 130.651 558.98C131.241 558.98 131.731 558.845 132.121 558.575C132.521 558.295 132.801 557.925 132.961 557.465H134.431C134.211 558.255 133.771 558.9 133.111 559.4C132.451 559.89 131.631 560.135 130.651 560.135C129.871 560.135 129.171 559.96 128.551 559.61C127.941 559.26 127.461 558.765 127.111 558.125C126.761 557.475 126.586 556.725 126.586 555.875C126.586 555.025 126.756 554.28 127.096 553.64C127.436 553 127.911 552.51 128.521 552.17C129.141 551.82 129.851 551.645 130.651 551.645C131.431 551.645 132.121 551.815 132.721 552.155C133.321 552.495 133.781 552.965 134.101 553.565C134.431 554.155 134.596 554.825 134.596 555.575ZM133.186 555.29C133.186 554.77 133.071 554.325 132.841 553.955C132.611 553.575 132.296 553.29 131.896 553.1C131.506 552.9 131.071 552.8 130.591 552.8C129.901 552.8 129.311 553.02 128.821 553.46C128.341 553.9 128.066 554.51 127.996 555.29H133.186ZM136.208 555.86C136.208 555.02 136.378 554.285 136.718 553.655C137.058 553.015 137.523 552.52 138.113 552.17C138.713 551.82 139.383 551.645 140.123 551.645C140.763 551.645 141.358 551.795 141.908 552.095C142.458 552.385 142.878 552.77 143.168 553.25V548.9H144.548V560H143.168V558.455C142.898 558.945 142.498 559.35 141.968 559.67C141.438 559.98 140.818 560.135 140.108 560.135C139.378 560.135 138.713 559.955 138.113 559.595C137.523 559.235 137.058 558.73 136.718 558.08C136.378 557.43 136.208 556.69 136.208 555.86ZM143.168 555.875C143.168 555.255 143.043 554.715 142.793 554.255C142.543 553.795 142.203 553.445 141.773 553.205C141.353 552.955 140.888 552.83 140.378 552.83C139.868 552.83 139.403 552.95 138.983 553.19C138.563 553.43 138.228 553.78 137.978 554.24C137.728 554.7 137.603 555.24 137.603 555.86C137.603 556.49 137.728 557.04 137.978 557.51C138.228 557.97 138.563 558.325 138.983 558.575C139.403 558.815 139.868 558.935 140.378 558.935C140.888 558.935 141.353 558.815 141.773 558.575C142.203 558.325 142.543 557.97 142.793 557.51C143.043 557.04 143.168 556.495 143.168 555.875ZM154.465 551.78V560H153.1V558.785C152.84 559.205 152.475 559.535 152.005 559.775C151.545 560.005 151.035 560.12 150.475 560.12C149.835 560.12 149.26 559.99 148.75 559.73C148.24 559.46 147.835 559.06 147.535 558.53C147.245 558 147.1 557.355 147.1 556.595V551.78H148.45V556.415C148.45 557.225 148.655 557.85 149.065 558.29C149.475 558.72 150.035 558.935 150.745 558.935C151.475 558.935 152.05 558.71 152.47 558.26C152.89 557.81 153.1 557.155 153.1 556.295V551.78H154.465ZM158.454 548.9V560H157.089V548.9H158.454ZM168.601 555.575C168.601 555.835 168.586 556.11 168.556 556.4H161.986C162.036 557.21 162.311 557.845 162.811 558.305C163.321 558.755 163.936 558.98 164.656 558.98C165.246 558.98 165.736 558.845 166.126 558.575C166.526 558.295 166.806 557.925 166.966 557.465H168.436C168.216 558.255 167.776 558.9 167.116 559.4C166.456 559.89 165.636 560.135 164.656 560.135C163.876 560.135 163.176 559.96 162.556 559.61C161.946 559.26 161.466 558.765 161.116 558.125C160.766 557.475 160.591 556.725 160.591 555.875C160.591 555.025 160.761 554.28 161.101 553.64C161.441 553 161.916 552.51 162.526 552.17C163.146 551.82 163.856 551.645 164.656 551.645C165.436 551.645 166.126 551.815 166.726 552.155C167.326 552.495 167.786 552.965 168.106 553.565C168.436 554.155 168.601 554.825 168.601 555.575ZM167.191 555.29C167.191 554.77 167.076 554.325 166.846 553.955C166.616 553.575 166.301 553.29 165.901 553.1C165.511 552.9 165.076 552.8 164.596 552.8C163.906 552.8 163.316 553.02 162.826 553.46C162.346 553.9 162.071 554.51 162.001 555.29H167.191ZM170.213 555.86C170.213 555.02 170.383 554.285 170.723 553.655C171.063 553.015 171.528 552.52 172.118 552.17C172.718 551.82 173.388 551.645 174.128 551.645C174.768 551.645 175.363 551.795 175.913 552.095C176.463 552.385 176.883 552.77 177.173 553.25V548.9H178.553V560H177.173V558.455C176.903 558.945 176.503 559.35 175.973 559.67C175.443 559.98 174.823 560.135 174.113 560.135C173.383 560.135 172.718 559.955 172.118 559.595C171.528 559.235 171.063 558.73 170.723 558.08C170.383 557.43 170.213 556.69 170.213 555.86ZM177.173 555.875C177.173 555.255 177.048 554.715 176.798 554.255C176.548 553.795 176.208 553.445 175.778 553.205C175.358 552.955 174.893 552.83 174.383 552.83C173.873 552.83 173.408 552.95 172.988 553.19C172.568 553.43 172.233 553.78 171.983 554.24C171.733 554.7 171.608 555.24 171.608 555.86C171.608 556.49 171.733 557.04 171.983 557.51C172.233 557.97 172.568 558.325 172.988 558.575C173.408 558.815 173.873 558.935 174.383 558.935C174.893 558.935 175.358 558.815 175.778 558.575C176.208 558.325 176.548 557.97 176.798 557.51C177.048 557.04 177.173 556.495 177.173 555.875ZM195.383 551.63C196.023 551.63 196.593 551.765 197.093 552.035C197.593 552.295 197.988 552.69 198.278 553.22C198.568 553.75 198.713 554.395 198.713 555.155V560H197.363V555.35C197.363 554.53 197.158 553.905 196.748 553.475C196.348 553.035 195.803 552.815 195.113 552.815C194.403 552.815 193.838 553.045 193.418 553.505C192.998 553.955 192.788 554.61 192.788 555.47V560H191.438V555.35C191.438 554.53 191.233 553.905 190.823 553.475C190.423 553.035 189.878 552.815 189.188 552.815C188.478 552.815 187.913 553.045 187.493 553.505C187.073 553.955 186.863 554.61 186.863 555.47V560H185.498V551.78H186.863V552.965C187.133 552.535 187.493 552.205 187.943 551.975C188.403 551.745 188.908 551.63 189.458 551.63C190.148 551.63 190.758 551.785 191.288 552.095C191.818 552.405 192.213 552.86 192.473 553.46C192.703 552.88 193.083 552.43 193.613 552.11C194.143 551.79 194.733 551.63 195.383 551.63ZM200.762 555.86C200.762 555.02 200.932 554.285 201.272 553.655C201.612 553.015 202.077 552.52 202.667 552.17C203.267 551.82 203.932 551.645 204.662 551.645C205.382 551.645 206.007 551.8 206.537 552.11C207.067 552.42 207.462 552.81 207.722 553.28V551.78H209.102V560H207.722V558.47C207.452 558.95 207.047 559.35 206.507 559.67C205.977 559.98 205.357 560.135 204.647 560.135C203.917 560.135 203.257 559.955 202.667 559.595C202.077 559.235 201.612 558.73 201.272 558.08C200.932 557.43 200.762 556.69 200.762 555.86ZM207.722 555.875C207.722 555.255 207.597 554.715 207.347 554.255C207.097 553.795 206.757 553.445 206.327 553.205C205.907 552.955 205.442 552.83 204.932 552.83C204.422 552.83 203.957 552.95 203.537 553.19C203.117 553.43 202.782 553.78 202.532 554.24C202.282 554.7 202.157 555.24 202.157 555.86C202.157 556.49 202.282 557.04 202.532 557.51C202.782 557.97 203.117 558.325 203.537 558.575C203.957 558.815 204.422 558.935 204.932 558.935C205.442 558.935 205.907 558.815 206.327 558.575C206.757 558.325 207.097 557.97 207.347 557.51C207.597 557.04 207.722 556.495 207.722 555.875ZM212.434 550.445C212.174 550.445 211.954 550.355 211.774 550.175C211.594 549.995 211.504 549.775 211.504 549.515C211.504 549.255 211.594 549.035 211.774 548.855C211.954 548.675 212.174 548.585 212.434 548.585C212.684 548.585 212.894 548.675 213.064 548.855C213.244 549.035 213.334 549.255 213.334 549.515C213.334 549.775 213.244 549.995 213.064 550.175C212.894 550.355 212.684 550.445 212.434 550.445ZM213.094 551.78V560H211.729V551.78H213.094ZM217.105 548.9V560H215.74V548.9H217.105ZM222.662 560.135C222.032 560.135 221.467 560.03 220.967 559.82C220.467 559.6 220.072 559.3 219.782 558.92C219.492 558.53 219.332 558.085 219.302 557.585H220.712C220.752 557.995 220.942 558.33 221.282 558.59C221.632 558.85 222.087 558.98 222.647 558.98C223.167 558.98 223.577 558.865 223.877 558.635C224.177 558.405 224.327 558.115 224.327 557.765C224.327 557.405 224.167 557.14 223.847 556.97C223.527 556.79 223.032 556.615 222.362 556.445C221.752 556.285 221.252 556.125 220.862 555.965C220.482 555.795 220.152 555.55 219.872 555.23C219.602 554.9 219.467 554.47 219.467 553.94C219.467 553.52 219.592 553.135 219.842 552.785C220.092 552.435 220.447 552.16 220.907 551.96C221.367 551.75 221.892 551.645 222.482 551.645C223.392 551.645 224.127 551.875 224.687 552.335C225.247 552.795 225.547 553.425 225.587 554.225H224.222C224.192 553.795 224.017 553.45 223.697 553.19C223.387 552.93 222.967 552.8 222.437 552.8C221.947 552.8 221.557 552.905 221.267 553.115C220.977 553.325 220.832 553.6 220.832 553.94C220.832 554.21 220.917 554.435 221.087 554.615C221.267 554.785 221.487 554.925 221.747 555.035C222.017 555.135 222.387 555.25 222.857 555.38C223.447 555.54 223.927 555.7 224.297 555.86C224.667 556.01 224.982 556.24 225.242 556.55C225.512 556.86 225.652 557.265 225.662 557.765C225.662 558.215 225.537 558.62 225.287 558.98C225.037 559.34 224.682 559.625 224.222 559.835C223.772 560.035 223.252 560.135 222.662 560.135ZM231.718 555.86C231.718 555.02 231.888 554.285 232.228 553.655C232.568 553.015 233.033 552.52 233.623 552.17C234.223 551.82 234.888 551.645 235.618 551.645C236.338 551.645 236.963 551.8 237.493 552.11C238.023 552.42 238.418 552.81 238.678 553.28V551.78H240.058V560H238.678V558.47C238.408 558.95 238.003 559.35 237.463 559.67C236.933 559.98 236.313 560.135 235.603 560.135C234.873 560.135 234.213 559.955 233.623 559.595C233.033 559.235 232.568 558.73 232.228 558.08C231.888 557.43 231.718 556.69 231.718 555.86ZM238.678 555.875C238.678 555.255 238.553 554.715 238.303 554.255C238.053 553.795 237.713 553.445 237.283 553.205C236.863 552.955 236.398 552.83 235.888 552.83C235.378 552.83 234.913 552.95 234.493 553.19C234.073 553.43 233.738 553.78 233.488 554.24C233.238 554.7 233.113 555.24 233.113 555.86C233.113 556.49 233.238 557.04 233.488 557.51C233.738 557.97 234.073 558.325 234.493 558.575C234.913 558.815 235.378 558.935 235.888 558.935C236.398 558.935 236.863 558.815 237.283 558.575C237.713 558.325 238.053 557.97 238.303 557.51C238.553 557.04 238.678 556.495 238.678 555.875ZM244.05 553.115C244.29 552.645 244.63 552.28 245.07 552.02C245.52 551.76 246.065 551.63 246.705 551.63V553.04H246.345C244.815 553.04 244.05 553.87 244.05 555.53V560H242.685V551.78H244.05V553.115ZM256.1 555.575C256.1 555.835 256.085 556.11 256.055 556.4H249.485C249.535 557.21 249.81 557.845 250.31 558.305C250.82 558.755 251.435 558.98 252.155 558.98C252.745 558.98 253.235 558.845 253.625 558.575C254.025 558.295 254.305 557.925 254.465 557.465H255.935C255.715 558.255 255.275 558.9 254.615 559.4C253.955 559.89 253.135 560.135 252.155 560.135C251.375 560.135 250.675 559.96 250.055 559.61C249.445 559.26 248.965 558.765 248.615 558.125C248.265 557.475 248.09 556.725 248.09 555.875C248.09 555.025 248.26 554.28 248.6 553.64C248.94 553 249.415 552.51 250.025 552.17C250.645 551.82 251.355 551.645 252.155 551.645C252.935 551.645 253.625 551.815 254.225 552.155C254.825 552.495 255.285 552.965 255.605 553.565C255.935 554.155 256.1 554.825 256.1 555.575ZM254.69 555.29C254.69 554.77 254.575 554.325 254.345 553.955C254.115 553.575 253.8 553.29 253.4 553.1C253.01 552.9 252.575 552.8 252.095 552.8C251.405 552.8 250.815 553.02 250.325 553.46C249.845 553.9 249.57 554.51 249.5 555.29H254.69ZM265.451 560.135C264.821 560.135 264.256 560.03 263.756 559.82C263.256 559.6 262.861 559.3 262.571 558.92C262.281 558.53 262.121 558.085 262.091 557.585H263.501C263.541 557.995 263.731 558.33 264.071 558.59C264.421 558.85 264.876 558.98 265.436 558.98C265.956 558.98 266.366 558.865 266.666 558.635C266.966 558.405 267.116 558.115 267.116 557.765C267.116 557.405 266.956 557.14 266.636 556.97C266.316 556.79 265.821 556.615 265.151 556.445C264.541 556.285 264.041 556.125 263.651 555.965C263.271 555.795 262.941 555.55 262.661 555.23C262.391 554.9 262.256 554.47 262.256 553.94C262.256 553.52 262.381 553.135 262.631 552.785C262.881 552.435 263.236 552.16 263.696 551.96C264.156 551.75 264.681 551.645 265.271 551.645C266.181 551.645 266.916 551.875 267.476 552.335C268.036 552.795 268.336 553.425 268.376 554.225H267.011C266.981 553.795 266.806 553.45 266.486 553.19C266.176 552.93 265.756 552.8 265.226 552.8C264.736 552.8 264.346 552.905 264.056 553.115C263.766 553.325 263.621 553.6 263.621 553.94C263.621 554.21 263.706 554.435 263.876 554.615C264.056 554.785 264.276 554.925 264.536 555.035C264.806 555.135 265.176 555.25 265.646 555.38C266.236 555.54 266.716 555.7 267.086 555.86C267.456 556.01 267.771 556.24 268.031 556.55C268.301 556.86 268.441 557.265 268.451 557.765C268.451 558.215 268.326 558.62 268.076 558.98C267.826 559.34 267.471 559.625 267.011 559.835C266.561 560.035 266.041 560.135 265.451 560.135ZM278.198 555.575C278.198 555.835 278.183 556.11 278.153 556.4H271.583C271.633 557.21 271.908 557.845 272.408 558.305C272.918 558.755 273.533 558.98 274.253 558.98C274.843 558.98 275.333 558.845 275.723 558.575C276.123 558.295 276.403 557.925 276.563 557.465H278.033C277.813 558.255 277.373 558.9 276.713 559.4C276.053 559.89 275.233 560.135 274.253 560.135C273.473 560.135 272.773 559.96 272.153 559.61C271.543 559.26 271.063 558.765 270.713 558.125C270.363 557.475 270.188 556.725 270.188 555.875C270.188 555.025 270.358 554.28 270.698 553.64C271.038 553 271.513 552.51 272.123 552.17C272.743 551.82 273.453 551.645 274.253 551.645C275.033 551.645 275.723 551.815 276.323 552.155C276.923 552.495 277.383 552.965 277.703 553.565C278.033 554.155 278.198 554.825 278.198 555.575ZM276.788 555.29C276.788 554.77 276.673 554.325 276.443 553.955C276.213 553.575 275.898 553.29 275.498 553.1C275.108 552.9 274.673 552.8 274.193 552.8C273.503 552.8 272.913 553.02 272.423 553.46C271.943 553.9 271.668 554.51 271.598 555.29H276.788ZM284.325 551.63C285.325 551.63 286.135 551.935 286.755 552.545C287.375 553.145 287.685 554.015 287.685 555.155V560H286.335V555.35C286.335 554.53 286.13 553.905 285.72 553.475C285.31 553.035 284.75 552.815 284.04 552.815C283.32 552.815 282.745 553.04 282.315 553.49C281.895 553.94 281.685 554.595 281.685 555.455V560H280.32V551.78H281.685V552.95C281.955 552.53 282.32 552.205 282.78 551.975C283.25 551.745 283.765 551.63 284.325 551.63ZM291.899 552.905V557.75C291.899 558.15 291.984 558.435 292.154 558.605C292.324 558.765 292.619 558.845 293.039 558.845H294.044V560H292.814C292.054 560 291.484 559.825 291.104 559.475C290.724 559.125 290.534 558.55 290.534 557.75V552.905H289.469V551.78H290.534V549.71H291.899V551.78H294.044V552.905H291.899ZM297.788 549.545L297.623 557.045H296.483L296.318 549.545H297.788ZM297.113 560.09C296.853 560.09 296.633 560 296.453 559.82C296.273 559.64 296.183 559.42 296.183 559.16C296.183 558.9 296.273 558.68 296.453 558.5C296.633 558.32 296.853 558.23 297.113 558.23C297.363 558.23 297.573 558.32 297.743 558.5C297.923 558.68 298.013 558.9 298.013 559.16C298.013 559.42 297.923 559.64 297.743 559.82C297.573 560 297.363 560.09 297.113 560.09ZM102.973 575.905V580.75C102.973 581.15 103.058 581.435 103.228 581.605C103.398 581.765 103.693 581.845 104.113 581.845H105.118V583H103.888C103.128 583 102.558 582.825 102.178 582.475C101.798 582.125 101.608 581.55 101.608 580.75V575.905H100.543V574.78H101.608V572.71H102.973V574.78H105.118V575.905H102.973ZM107.797 573.445C107.537 573.445 107.317 573.355 107.137 573.175C106.957 572.995 106.867 572.775 106.867 572.515C106.867 572.255 106.957 572.035 107.137 571.855C107.317 571.675 107.537 571.585 107.797 571.585C108.047 571.585 108.257 571.675 108.427 571.855C108.607 572.035 108.697 572.255 108.697 572.515C108.697 572.775 108.607 572.995 108.427 573.175C108.257 573.355 108.047 573.445 107.797 573.445ZM108.457 574.78V583H107.092V574.78H108.457ZM120.988 574.63C121.628 574.63 122.198 574.765 122.698 575.035C123.198 575.295 123.593 575.69 123.883 576.22C124.173 576.75 124.318 577.395 124.318 578.155V583H122.968V578.35C122.968 577.53 122.763 576.905 122.353 576.475C121.953 576.035 121.408 575.815 120.718 575.815C120.008 575.815 119.443 576.045 119.023 576.505C118.603 576.955 118.393 577.61 118.393 578.47V583H117.043V578.35C117.043 577.53 116.838 576.905 116.428 576.475C116.028 576.035 115.483 575.815 114.793 575.815C114.083 575.815 113.518 576.045 113.098 576.505C112.678 576.955 112.468 577.61 112.468 578.47V583H111.103V574.78H112.468V575.965C112.738 575.535 113.098 575.205 113.548 574.975C114.008 574.745 114.513 574.63 115.063 574.63C115.753 574.63 116.363 574.785 116.893 575.095C117.423 575.405 117.818 575.86 118.078 576.46C118.308 575.88 118.688 575.43 119.218 575.11C119.748 574.79 120.338 574.63 120.988 574.63ZM134.378 578.575C134.378 578.835 134.363 579.11 134.333 579.4H127.763C127.813 580.21 128.088 580.845 128.588 581.305C129.098 581.755 129.713 581.98 130.433 581.98C131.023 581.98 131.513 581.845 131.903 581.575C132.303 581.295 132.583 580.925 132.743 580.465H134.213C133.993 581.255 133.553 581.9 132.893 582.4C132.233 582.89 131.413 583.135 130.433 583.135C129.653 583.135 128.953 582.96 128.333 582.61C127.723 582.26 127.243 581.765 126.893 581.125C126.543 580.475 126.368 579.725 126.368 578.875C126.368 578.025 126.538 577.28 126.878 576.64C127.218 576 127.693 575.51 128.303 575.17C128.923 574.82 129.633 574.645 130.433 574.645C131.213 574.645 131.903 574.815 132.503 575.155C133.103 575.495 133.563 575.965 133.883 576.565C134.213 577.155 134.378 577.825 134.378 578.575ZM132.968 578.29C132.968 577.77 132.853 577.325 132.623 576.955C132.393 576.575 132.078 576.29 131.678 576.1C131.288 575.9 130.853 575.8 130.373 575.8C129.683 575.8 129.093 576.02 128.603 576.46C128.123 576.9 127.848 577.51 127.778 578.29H132.968ZM142.483 575.905V580.75C142.483 581.15 142.568 581.435 142.738 581.605C142.908 581.765 143.203 581.845 143.623 581.845H144.628V583H143.398C142.638 583 142.068 582.825 141.688 582.475C141.308 582.125 141.118 581.55 141.118 580.75V575.905H140.053V574.78H141.118V572.71H142.483V574.78H144.628V575.905H142.483ZM150.187 583.135C149.417 583.135 148.717 582.96 148.087 582.61C147.467 582.26 146.977 581.765 146.617 581.125C146.267 580.475 146.092 579.725 146.092 578.875C146.092 578.035 146.272 577.295 146.632 576.655C147.002 576.005 147.502 575.51 148.132 575.17C148.762 574.82 149.467 574.645 150.247 574.645C151.027 574.645 151.732 574.82 152.362 575.17C152.992 575.51 153.487 576 153.847 576.64C154.217 577.28 154.402 578.025 154.402 578.875C154.402 579.725 154.212 580.475 153.832 581.125C153.462 581.765 152.957 582.26 152.317 582.61C151.677 582.96 150.967 583.135 150.187 583.135ZM150.187 581.935C150.677 581.935 151.137 581.82 151.567 581.59C151.997 581.36 152.342 581.015 152.602 580.555C152.872 580.095 153.007 579.535 153.007 578.875C153.007 578.215 152.877 577.655 152.617 577.195C152.357 576.735 152.017 576.395 151.597 576.175C151.177 575.945 150.722 575.83 150.232 575.83C149.732 575.83 149.272 575.945 148.852 576.175C148.442 576.395 148.112 576.735 147.862 577.195C147.612 577.655 147.487 578.215 147.487 578.875C147.487 579.545 147.607 580.11 147.847 580.57C148.097 581.03 148.427 581.375 148.837 581.605C149.247 581.825 149.697 581.935 150.187 581.935ZM162.501 575.905V580.75C162.501 581.15 162.586 581.435 162.756 581.605C162.926 581.765 163.221 581.845 163.641 581.845H164.646V583H163.416C162.656 583 162.086 582.825 161.706 582.475C161.326 582.125 161.136 581.55 161.136 580.75V575.905H160.071V574.78H161.136V572.71H162.501V574.78H164.646V575.905H162.501ZM166.11 578.86C166.11 578.02 166.28 577.285 166.62 576.655C166.96 576.015 167.425 575.52 168.015 575.17C168.615 574.82 169.28 574.645 170.01 574.645C170.73 574.645 171.355 574.8 171.885 575.11C172.415 575.42 172.81 575.81 173.07 576.28V574.78H174.45V583H173.07V581.47C172.8 581.95 172.395 582.35 171.855 582.67C171.325 582.98 170.705 583.135 169.995 583.135C169.265 583.135 168.605 582.955 168.015 582.595C167.425 582.235 166.96 581.73 166.62 581.08C166.28 580.43 166.11 579.69 166.11 578.86ZM173.07 578.875C173.07 578.255 172.945 577.715 172.695 577.255C172.445 576.795 172.105 576.445 171.675 576.205C171.255 575.955 170.79 575.83 170.28 575.83C169.77 575.83 169.305 575.95 168.885 576.19C168.465 576.43 168.13 576.78 167.88 577.24C167.63 577.7 167.505 578.24 167.505 578.86C167.505 579.49 167.63 580.04 167.88 580.51C168.13 580.97 168.465 581.325 168.885 581.575C169.305 581.815 169.77 581.935 170.28 581.935C170.79 581.935 171.255 581.815 171.675 581.575C172.105 581.325 172.445 580.97 172.695 580.51C172.945 580.04 173.07 579.495 173.07 578.875ZM181.667 583L178.442 579.37V583H177.077V571.9H178.442V578.425L181.607 574.78H183.512L179.642 578.875L183.527 583H181.667ZM192.616 578.575C192.616 578.835 192.601 579.11 192.571 579.4H186.001C186.051 580.21 186.326 580.845 186.826 581.305C187.336 581.755 187.951 581.98 188.671 581.98C189.261 581.98 189.751 581.845 190.141 581.575C190.541 581.295 190.821 580.925 190.981 580.465H192.451C192.231 581.255 191.791 581.9 191.131 582.4C190.471 582.89 189.651 583.135 188.671 583.135C187.891 583.135 187.191 582.96 186.571 582.61C185.961 582.26 185.481 581.765 185.131 581.125C184.781 580.475 184.606 579.725 184.606 578.875C184.606 578.025 184.776 577.28 185.116 576.64C185.456 576 185.931 575.51 186.541 575.17C187.161 574.82 187.871 574.645 188.671 574.645C189.451 574.645 190.141 574.815 190.741 575.155C191.341 575.495 191.801 575.965 192.121 576.565C192.451 577.155 192.616 577.825 192.616 578.575ZM191.206 578.29C191.206 577.77 191.091 577.325 190.861 576.955C190.631 576.575 190.316 576.29 189.916 576.1C189.526 575.9 189.091 575.8 188.611 575.8C187.921 575.8 187.331 576.02 186.841 576.46C186.361 576.9 186.086 577.51 186.016 578.29H191.206ZM201.967 583.135C201.337 583.135 200.772 583.03 200.272 582.82C199.772 582.6 199.377 582.3 199.087 581.92C198.797 581.53 198.637 581.085 198.607 580.585H200.017C200.057 580.995 200.247 581.33 200.587 581.59C200.937 581.85 201.392 581.98 201.952 581.98C202.472 581.98 202.882 581.865 203.182 581.635C203.482 581.405 203.632 581.115 203.632 580.765C203.632 580.405 203.472 580.14 203.152 579.97C202.832 579.79 202.337 579.615 201.667 579.445C201.057 579.285 200.557 579.125 200.167 578.965C199.787 578.795 199.457 578.55 199.177 578.23C198.907 577.9 198.772 577.47 198.772 576.94C198.772 576.52 198.897 576.135 199.147 575.785C199.397 575.435 199.752 575.16 200.212 574.96C200.672 574.75 201.197 574.645 201.787 574.645C202.697 574.645 203.432 574.875 203.992 575.335C204.552 575.795 204.852 576.425 204.892 577.225H203.527C203.497 576.795 203.322 576.45 203.002 576.19C202.692 575.93 202.272 575.8 201.742 575.8C201.252 575.8 200.862 575.905 200.572 576.115C200.282 576.325 200.137 576.6 200.137 576.94C200.137 577.21 200.222 577.435 200.392 577.615C200.572 577.785 200.792 577.925 201.052 578.035C201.322 578.135 201.692 578.25 202.162 578.38C202.752 578.54 203.232 578.7 203.602 578.86C203.972 579.01 204.287 579.24 204.547 579.55C204.817 579.86 204.957 580.265 204.967 580.765C204.967 581.215 204.842 581.62 204.592 581.98C204.342 582.34 203.987 582.625 203.527 582.835C203.077 583.035 202.557 583.135 201.967 583.135ZM210.799 583.135C210.029 583.135 209.329 582.96 208.699 582.61C208.079 582.26 207.589 581.765 207.229 581.125C206.879 580.475 206.704 579.725 206.704 578.875C206.704 578.035 206.884 577.295 207.244 576.655C207.614 576.005 208.114 575.51 208.744 575.17C209.374 574.82 210.079 574.645 210.859 574.645C211.639 574.645 212.344 574.82 212.974 575.17C213.604 575.51 214.099 576 214.459 576.64C214.829 577.28 215.014 578.025 215.014 578.875C215.014 579.725 214.824 580.475 214.444 581.125C214.074 581.765 213.569 582.26 212.929 582.61C212.289 582.96 211.579 583.135 210.799 583.135ZM210.799 581.935C211.289 581.935 211.749 581.82 212.179 581.59C212.609 581.36 212.954 581.015 213.214 580.555C213.484 580.095 213.619 579.535 213.619 578.875C213.619 578.215 213.489 577.655 213.229 577.195C212.969 576.735 212.629 576.395 212.209 576.175C211.789 575.945 211.334 575.83 210.844 575.83C210.344 575.83 209.884 575.945 209.464 576.175C209.054 576.395 208.724 576.735 208.474 577.195C208.224 577.655 208.099 578.215 208.099 578.875C208.099 579.545 208.219 580.11 208.459 580.57C208.709 581.03 209.039 581.375 209.449 581.605C209.859 581.825 210.309 581.935 210.799 581.935ZM227.014 574.63C227.654 574.63 228.224 574.765 228.724 575.035C229.224 575.295 229.619 575.69 229.909 576.22C230.199 576.75 230.344 577.395 230.344 578.155V583H228.994V578.35C228.994 577.53 228.789 576.905 228.379 576.475C227.979 576.035 227.434 575.815 226.744 575.815C226.034 575.815 225.469 576.045 225.049 576.505C224.629 576.955 224.419 577.61 224.419 578.47V583H223.069V578.35C223.069 577.53 222.864 576.905 222.454 576.475C222.054 576.035 221.509 575.815 220.819 575.815C220.109 575.815 219.544 576.045 219.124 576.505C218.704 576.955 218.494 577.61 218.494 578.47V583H217.129V574.78H218.494V575.965C218.764 575.535 219.124 575.205 219.574 574.975C220.034 574.745 220.539 574.63 221.089 574.63C221.779 574.63 222.389 574.785 222.919 575.095C223.449 575.405 223.844 575.86 224.104 576.46C224.334 575.88 224.714 575.43 225.244 575.11C225.774 574.79 226.364 574.63 227.014 574.63ZM240.403 578.575C240.403 578.835 240.388 579.11 240.358 579.4H233.788C233.838 580.21 234.113 580.845 234.613 581.305C235.123 581.755 235.738 581.98 236.458 581.98C237.048 581.98 237.538 581.845 237.928 581.575C238.328 581.295 238.608 580.925 238.768 580.465H240.238C240.018 581.255 239.578 581.9 238.918 582.4C238.258 582.89 237.438 583.135 236.458 583.135C235.678 583.135 234.978 582.96 234.358 582.61C233.748 582.26 233.268 581.765 232.918 581.125C232.568 580.475 232.393 579.725 232.393 578.875C232.393 578.025 232.563 577.28 232.903 576.64C233.243 576 233.718 575.51 234.328 575.17C234.948 574.82 235.658 574.645 236.458 574.645C237.238 574.645 237.928 574.815 238.528 575.155C239.128 575.495 239.588 575.965 239.908 576.565C240.238 577.155 240.403 577.825 240.403 578.575ZM238.993 578.29C238.993 577.77 238.878 577.325 238.648 576.955C238.418 576.575 238.103 576.29 237.703 576.1C237.313 575.9 236.878 575.8 236.398 575.8C235.708 575.8 235.118 576.02 234.628 576.46C234.148 576.9 233.873 577.51 233.803 578.29H238.993ZM248.209 576.115C248.449 575.645 248.789 575.28 249.229 575.02C249.679 574.76 250.224 574.63 250.864 574.63V576.04H250.504C248.974 576.04 248.209 576.87 248.209 578.53V583H246.844V574.78H248.209V576.115ZM260.259 578.575C260.259 578.835 260.244 579.11 260.214 579.4H253.644C253.694 580.21 253.969 580.845 254.469 581.305C254.979 581.755 255.594 581.98 256.314 581.98C256.904 581.98 257.394 581.845 257.784 581.575C258.184 581.295 258.464 580.925 258.624 580.465H260.094C259.874 581.255 259.434 581.9 258.774 582.4C258.114 582.89 257.294 583.135 256.314 583.135C255.534 583.135 254.834 582.96 254.214 582.61C253.604 582.26 253.124 581.765 252.774 581.125C252.424 580.475 252.249 579.725 252.249 578.875C252.249 578.025 252.419 577.28 252.759 576.64C253.099 576 253.574 575.51 254.184 575.17C254.804 574.82 255.514 574.645 256.314 574.645C257.094 574.645 257.784 574.815 258.384 575.155C258.984 575.495 259.444 575.965 259.764 576.565C260.094 577.155 260.259 577.825 260.259 578.575ZM258.849 578.29C258.849 577.77 258.734 577.325 258.504 576.955C258.274 576.575 257.959 576.29 257.559 576.1C257.169 575.9 256.734 575.8 256.254 575.8C255.564 575.8 254.974 576.02 254.484 576.46C254.004 576.9 253.729 577.51 253.659 578.29H258.849ZM265.291 583.135C264.661 583.135 264.096 583.03 263.596 582.82C263.096 582.6 262.701 582.3 262.411 581.92C262.121 581.53 261.961 581.085 261.931 580.585H263.341C263.381 580.995 263.571 581.33 263.911 581.59C264.261 581.85 264.716 581.98 265.276 581.98C265.796 581.98 266.206 581.865 266.506 581.635C266.806 581.405 266.956 581.115 266.956 580.765C266.956 580.405 266.796 580.14 266.476 579.97C266.156 579.79 265.661 579.615 264.991 579.445C264.381 579.285 263.881 579.125 263.491 578.965C263.111 578.795 262.781 578.55 262.501 578.23C262.231 577.9 262.096 577.47 262.096 576.94C262.096 576.52 262.221 576.135 262.471 575.785C262.721 575.435 263.076 575.16 263.536 574.96C263.996 574.75 264.521 574.645 265.111 574.645C266.021 574.645 266.756 574.875 267.316 575.335C267.876 575.795 268.176 576.425 268.216 577.225H266.851C266.821 576.795 266.646 576.45 266.326 576.19C266.016 575.93 265.596 575.8 265.066 575.8C264.576 575.8 264.186 575.905 263.896 576.115C263.606 576.325 263.461 576.6 263.461 576.94C263.461 577.21 263.546 577.435 263.716 577.615C263.896 577.785 264.116 577.925 264.376 578.035C264.646 578.135 265.016 578.25 265.486 578.38C266.076 578.54 266.556 578.7 266.926 578.86C267.296 579.01 267.611 579.24 267.871 579.55C268.141 579.86 268.281 580.265 268.291 580.765C268.291 581.215 268.166 581.62 267.916 581.98C267.666 582.34 267.311 582.625 266.851 582.835C266.401 583.035 265.881 583.135 265.291 583.135ZM272.203 575.905V580.75C272.203 581.15 272.288 581.435 272.458 581.605C272.628 581.765 272.923 581.845 273.343 581.845H274.348V583H273.118C272.358 583 271.788 582.825 271.408 582.475C271.028 582.125 270.838 581.55 270.838 580.75V575.905H269.773V574.78H270.838V572.71H272.203V574.78H274.348V575.905H272.203Z" fill="#667085"/>
<path opacity="0.35" d="M338.667 17.8333H355.333C356.53 17.8333 357.5 18.8036 357.5 20.0002V26.0002C357.5 27.1967 356.53 28.1663 355.333 28.1663H338.667C337.47 28.1663 336.5 27.1967 336.5 26.0002V20.0002L336.511 19.7786C336.622 18.6859 337.545 17.8333 338.667 17.8333Z" stroke="black"/>
<path opacity="0.4" d="M359 21V25C359.805 24.6612 360.328 23.8731 360.328 23C360.328 22.1269 359.805 21.3388 359 21Z" fill="black"/>
<path d="M338 20.6666C338 19.9302 338.597 19.3333 339.333 19.3333H354.667C355.403 19.3333 356 19.9302 356 20.6666V25.3333C356 26.0696 355.403 26.6666 354.667 26.6666H339.333C338.597 26.6666 338 26.0696 338 25.3333V20.6666Z" fill="black"/>
<path fill-rule="evenodd" clip-rule="evenodd" d="M323.33 19.6079C325.546 19.608 327.677 20.4594 329.283 21.9862C329.404 22.1041 329.598 22.1026 329.717 21.9829L330.873 20.8162C330.933 20.7555 330.967 20.6733 330.966 20.5877C330.966 20.5021 330.931 20.4202 330.87 20.3602C326.655 16.3207 320.005 16.3207 315.79 20.3602C315.729 20.4202 315.694 20.502 315.694 20.5876C315.693 20.6732 315.727 20.7555 315.787 20.8162L316.943 21.9829C317.062 22.1028 317.256 22.1043 317.377 21.9862C318.983 20.4593 321.114 19.6079 323.33 19.6079ZM323.33 23.4036C324.548 23.4035 325.722 23.856 326.624 24.6732C326.746 24.7892 326.939 24.7867 327.058 24.6676L328.212 23.5009C328.273 23.4397 328.307 23.3567 328.306 23.2704C328.305 23.1842 328.27 23.1018 328.208 23.0419C325.459 20.4855 321.204 20.4855 318.455 23.0419C318.393 23.1018 318.358 23.1842 318.357 23.2705C318.356 23.3568 318.39 23.4398 318.451 23.5009L319.605 24.6676C319.724 24.7867 319.917 24.7892 320.039 24.6732C320.941 23.8566 322.114 23.4041 323.33 23.4036ZM325.643 25.9574C325.645 26.0439 325.611 26.1273 325.549 26.1879L323.552 28.2036C323.493 28.2628 323.414 28.2961 323.33 28.2961C323.247 28.2961 323.167 28.2628 323.109 28.2036L321.111 26.1879C321.049 26.1272 321.015 26.0438 321.017 25.9573C321.019 25.8708 321.056 25.7889 321.121 25.7309C322.396 24.652 324.264 24.652 325.54 25.7309C325.604 25.7889 325.642 25.8709 325.643 25.9574Z" fill="black"/>
<path fill-rule="evenodd" clip-rule="evenodd" d="M309.667 17.6665H308.667C308.114 17.6665 307.667 18.1142 307.667 18.6665V27.3332C307.667 27.8855 308.114 28.3332 308.667 28.3332H309.667C310.219 28.3332 310.667 27.8855 310.667 27.3332V18.6665C310.667 18.1142 310.219 17.6665 309.667 17.6665ZM304 19.9998H305C305.552 19.9998 306 20.4476 306 20.9998V27.3332C306 27.8855 305.552 28.3332 305 28.3332H304C303.448 28.3332 303 27.8855 303 27.3332V20.9998C303 20.4476 303.448 19.9998 304 19.9998ZM300.333 22.3332H299.333C298.781 22.3332 298.333 22.7809 298.333 23.3332V27.3332C298.333 27.8855 298.781 28.3332 299.333 28.3332H300.333C300.886 28.3332 301.333 27.8855 301.333 27.3332V23.3332C301.333 22.7809 300.886 22.3332 300.333 22.3332ZM295.667 24.3332H294.667C294.114 24.3332 293.667 24.7809 293.667 25.3332V27.3332C293.667 27.8855 294.114 28.3332 294.667 28.3332H295.667C296.219 28.3332 296.667 27.8855 296.667 27.3332V25.3332C296.667 24.7809 296.219 24.3332 295.667 24.3332Z" fill="black"/>
<path d="M37.3207 28.2563C40.0087 28.2563 41.6053 26.1543 41.6053 22.5947C41.6053 21.2544 41.349 20.1265 40.8583 19.2549C40.1478 17.8999 38.9247 17.1675 37.3793 17.1675C35.0795 17.1675 33.4535 18.7129 33.4535 20.8809C33.4535 22.917 34.9183 24.3965 36.9325 24.3965C38.1703 24.3965 39.1737 23.8179 39.6718 22.8145H39.6937C39.6937 22.8145 39.723 22.8145 39.7303 22.8145C39.745 22.8145 39.7963 22.8145 39.7963 22.8145C39.7963 25.2314 38.8807 26.6743 37.3353 26.6743C36.4271 26.6743 35.724 26.1763 35.4823 25.3779H33.6C33.9149 27.1138 35.3871 28.2563 37.3207 28.2563ZM37.3866 22.895C36.1708 22.895 35.3065 22.0308 35.3065 20.8223C35.3065 19.6431 36.2147 18.7422 37.3939 18.7422C38.5731 18.7422 39.4813 19.6577 39.4813 20.8516C39.4813 22.0308 38.5951 22.895 37.3866 22.895Z" fill="black"/>
<path d="M44.6965 28.1538C45.3923 28.1538 45.8683 27.6558 45.8683 26.9966C45.8683 26.3301 45.3923 25.8394 44.6965 25.8394C44.008 25.8394 43.5246 26.3301 43.5246 26.9966C43.5246 27.6558 44.008 28.1538 44.6965 28.1538ZM44.6965 22.6606C45.3923 22.6606 45.8683 22.1699 45.8683 21.5107C45.8683 20.8442 45.3923 20.3535 44.6965 20.3535C44.008 20.3535 43.5246 20.8442 43.5246 21.5107C43.5246 22.1699 44.008 22.6606 44.6965 22.6606Z" fill="black"/>
<path d="M52.7241 28H54.5332V26.0298H55.9614V24.4331H54.5332V17.4312H51.8672C49.9995 20.2437 48.5127 22.5947 47.5605 24.3452V26.0298H52.7241V28ZM49.311 24.3672C50.5415 22.1992 51.6401 20.4634 52.6509 18.9692H52.7534V24.4771H49.311V24.3672Z" fill="black"/>
<path d="M59.99 28H61.8797V17.4312H59.9973L57.2361 19.3647V21.1812L59.8655 19.3354H59.99V28Z" fill="black"/>
<rect x="121" y="799" width="134" height="5" rx="2.5" fill="black"/>
<g clip-path="url(#clip1_70_14492)">
<rect x="95" y="625" width="185" height="50" rx="25" fill="url(#paint1_linear_70_14492)"/>
<path d="M159.701 653.005H155.531L154.841 655H152.636L156.401 644.515H158.846L162.611 655H160.391L159.701 653.005ZM159.131 651.325L157.616 646.945L156.101 651.325H159.131ZM163.798 650.815C163.798 649.975 163.963 649.23 164.293 648.58C164.633 647.93 165.093 647.43 165.673 647.08C166.253 646.73 166.898 646.555 167.608 646.555C168.148 646.555 168.663 646.675 169.153 646.915C169.643 647.145 170.033 647.455 170.323 647.845V643.9H172.453V655H170.323V653.77C170.063 654.18 169.698 654.51 169.228 654.76C168.758 655.01 168.213 655.135 167.593 655.135C166.893 655.135 166.253 654.955 165.673 654.595C165.093 654.235 164.633 653.73 164.293 653.08C163.963 652.42 163.798 651.665 163.798 650.815ZM170.338 650.845C170.338 650.335 170.238 649.9 170.038 649.54C169.838 649.17 169.568 648.89 169.228 648.7C168.888 648.5 168.523 648.4 168.133 648.4C167.743 648.4 167.383 648.495 167.053 648.685C166.723 648.875 166.453 649.155 166.243 649.525C166.043 649.885 165.943 650.315 165.943 650.815C165.943 651.315 166.043 651.755 166.243 652.135C166.453 652.505 166.723 652.79 167.053 652.99C167.393 653.19 167.753 653.29 168.133 653.29C168.523 653.29 168.888 653.195 169.228 653.005C169.568 652.805 169.838 652.525 170.038 652.165C170.238 651.795 170.338 651.355 170.338 650.845ZM174.284 650.815C174.284 649.975 174.449 649.23 174.779 648.58C175.119 647.93 175.579 647.43 176.159 647.08C176.739 646.73 177.384 646.555 178.094 646.555C178.634 646.555 179.149 646.675 179.639 646.915C180.129 647.145 180.519 647.455 180.809 647.845V643.9H182.939V655H180.809V653.77C180.549 654.18 180.184 654.51 179.714 654.76C179.244 655.01 178.699 655.135 178.079 655.135C177.379 655.135 176.739 654.955 176.159 654.595C175.579 654.235 175.119 653.73 174.779 653.08C174.449 652.42 174.284 651.665 174.284 650.815ZM180.824 650.845C180.824 650.335 180.724 649.9 180.524 649.54C180.324 649.17 180.054 648.89 179.714 648.7C179.374 648.5 179.009 648.4 178.619 648.4C178.229 648.4 177.869 648.495 177.539 648.685C177.209 648.875 176.939 649.155 176.729 649.525C176.529 649.885 176.429 650.315 176.429 650.815C176.429 651.315 176.529 651.755 176.729 652.135C176.939 652.505 177.209 652.79 177.539 652.99C177.879 653.19 178.239 653.29 178.619 653.29C179.009 653.29 179.374 653.195 179.714 653.005C180.054 652.805 180.324 652.525 180.524 652.165C180.724 651.795 180.824 651.355 180.824 650.845ZM198.16 655H196.06L191.305 647.815V655H189.205V644.515H191.305L196.06 651.715V644.515H198.16V655ZM208.28 650.665C208.28 650.965 208.26 651.235 208.22 651.475H202.145C202.195 652.075 202.405 652.545 202.775 652.885C203.145 653.225 203.6 653.395 204.14 653.395C204.92 653.395 205.475 653.06 205.805 652.39H208.07C207.83 653.19 207.37 653.85 206.69 654.37C206.01 654.88 205.175 655.135 204.185 655.135C203.385 655.135 202.665 654.96 202.025 654.61C201.395 654.25 200.9 653.745 200.54 653.095C200.19 652.445 200.015 651.695 200.015 650.845C200.015 649.985 200.19 649.23 200.54 648.58C200.89 647.93 201.38 647.43 202.01 647.08C202.64 646.73 203.365 646.555 204.185 646.555C204.975 646.555 205.68 646.725 206.3 647.065C206.93 647.405 207.415 647.89 207.755 648.52C208.105 649.14 208.28 649.855 208.28 650.665ZM206.105 650.065C206.095 649.525 205.9 649.095 205.52 648.775C205.14 648.445 204.675 648.28 204.125 648.28C203.605 648.28 203.165 648.44 202.805 648.76C202.455 649.07 202.24 649.505 202.16 650.065H206.105ZM221.653 646.69L219.223 655H216.958L215.443 649.195L213.928 655H211.648L209.203 646.69H211.333L212.803 653.02L214.393 646.69H216.613L218.173 653.005L219.643 646.69H221.653Z" fill="white"/>
</g>
<rect x="-23" y="336.722" width="593.68" height="101.278" fill="url(#paint2_linear_70_14492)"/>
<path opacity="0.118359" fill-rule="evenodd" clip-rule="evenodd" d="M385.221 138.832C347.584 97.1623 269.345 81.7218 188.95 104.813C88.8866 133.554 23.3759 211.104 42.6282 278.026C59.1601 335.491 132.817 366.434 216.66 355.834C254.422 387.089 319.118 397.608 385.101 378.657C476.494 352.406 535.746 279.556 517.445 215.94C503.674 168.075 449.923 139.076 385.221 138.832Z" fill="url(#paint3_linear_70_14492)"/>
<g opacity="0.5">
<path fill-rule="evenodd" clip-rule="evenodd" d="M46.3646 156.258C-36.7861 243.568 85.4068 367.065 159.55 274.295C284.45 118.017 390.808 235.445 390.808 235.445" fill="black" fill-opacity="0.01"/>
<path d="M46.3646 156.258C-36.7861 243.568 85.4068 367.065 159.55 274.295C284.45 118.017 390.808 235.445 390.808 235.445" stroke="#8CA4D4" stroke-width="5" stroke-linecap="round" stroke-dasharray="5 20"/>
</g>
<path fill-rule="evenodd" clip-rule="evenodd" d="M270.092 209.563L269.977 197.916L296.914 195.103L270.614 190.007L272.403 178.417L312.577 194.918L270.092 209.563Z" fill="url(#paint4_linear_70_14492)"/>
<path fill-rule="evenodd" clip-rule="evenodd" d="M269.935 198.258L273.719 194.376L298.134 195.078L269.935 198.258Z" fill="#E1A846"/>
<path fill-rule="evenodd" clip-rule="evenodd" d="M273.527 194.527L270.806 189.856L297.449 194.995L273.527 194.527Z" fill="#E6B052"/>
<path fill-rule="evenodd" clip-rule="evenodd" d="M171.323 399.596C210.102 399.596 241.538 393.281 241.538 385.492C241.538 377.703 210.102 371.388 171.323 371.388C132.544 371.388 101.108 377.703 101.108 385.492C101.108 393.281 132.544 399.596 171.323 399.596Z" fill="url(#paint5_radial_70_14492)"/>
<path fill-rule="evenodd" clip-rule="evenodd" d="M122.727 376.751C165.756 397.383 228.933 394.657 257.273 338.668C275.995 302.643 236.049 259.505 192.171 229.51C152.789 202.588 117.761 196.484 97.209 211.64C94.862 213.37 90.6904 213.03 88.7953 215.385C36.6293 274.9 79.6975 356.119 122.727 376.751Z" fill="url(#paint6_radial_70_14492)"/>
<path fill-rule="evenodd" clip-rule="evenodd" d="M149.306 325.203C195.321 353.943 242.845 357.083 258.824 331.524C273.651 303.909 237.682 253.967 191.666 225.227C145.651 196.487 105.558 191.932 89.5784 217.492C73.5994 243.051 103.29 296.463 149.306 325.203Z" fill="url(#paint7_radial_70_14492)"/>
<g filter="url(#filter0_f_70_14492)">
<path fill-rule="evenodd" clip-rule="evenodd" d="M159.705 305.041C180.337 317.934 201.646 319.343 208.81 307.876C215.458 295.488 199.33 273.082 178.698 260.188C158.066 247.294 140.089 245.251 132.925 256.718C125.76 268.185 139.073 292.147 159.705 305.041Z" fill="#94B0D7"/>
</g>
<path fill-rule="evenodd" clip-rule="evenodd" d="M292.282 389.114C291.609 386.05 290.598 383.77 291.609 379.634C292.621 375.497 304.26 373.153 305.729 374.478C307.198 375.802 306.959 376.512 312.776 379.6C318.594 382.688 335.269 386.28 338.839 390.286C342.408 394.292 343.072 396.941 335.654 396.941C332.168 396.941 316.898 396.941 312.708 396.941C308.59 395.449 307.205 394.645 304.897 393.264C304.426 394.995 304.897 396.468 304.897 396.468H295.015C295.015 396.468 292.954 392.178 292.282 389.114Z" fill="url(#paint8_linear_70_14492)"/>
<mask id="mask0_70_14492" style="mask-type:luminance" maskUnits="userSpaceOnUse" x="291" y="374" width="51" height="23">
<path fill-rule="evenodd" clip-rule="evenodd" d="M292.282 389.114C291.609 386.05 290.598 383.77 291.609 379.634C292.621 375.497 304.26 373.153 305.729 374.478C307.198 375.802 306.959 376.512 312.776 379.6C318.594 382.688 335.269 386.28 338.839 390.286C342.408 394.292 343.072 396.941 335.654 396.941C332.168 396.941 316.898 396.941 312.708 396.941C308.59 395.449 307.205 394.645 304.897 393.264C304.426 394.995 304.897 396.468 304.897 396.468H295.015C295.015 396.468 292.954 392.178 292.282 389.114Z" fill="white"/>
</mask>
<g mask="url(#mask0_70_14492)">
<g opacity="0.2">
<path fill-rule="evenodd" clip-rule="evenodd" d="M292.307 394.146C294.435 388.664 302.733 378.435 305.137 375.106C307.541 371.777 289.207 379.029 289.207 379.029C289.207 379.029 290.178 399.629 292.307 394.146Z" fill="#3D82F0" style="mix-blend-mode:multiply"/>
</g>
</g>
<path fill-rule="evenodd" clip-rule="evenodd" d="M311.626 305.862C309.437 303.796 307.402 302.535 305.97 298.712C304.538 294.889 312.513 286.76 314.395 287.019C316.277 287.277 316.471 287.968 322.758 287.281C329.046 286.594 340.293 278.95 345.291 280.202C350.29 281.454 354.777 281.48 348.887 285.476C346.119 287.355 335.401 298.803 332.074 301.06C327.998 302.096 326.464 302.206 323.885 302.355C324.446 303.98 325.616 304.894 325.616 304.894L317.77 310.218C317.77 310.218 313.816 307.928 311.626 305.862Z" fill="url(#paint9_linear_70_14492)"/>
<mask id="mask1_70_14492" style="mask-type:luminance" maskUnits="userSpaceOnUse" x="305" y="280" width="47" height="31">
<path fill-rule="evenodd" clip-rule="evenodd" d="M311.626 305.862C309.437 303.796 307.402 302.535 305.97 298.712C304.538 294.889 312.513 286.76 314.395 287.019C316.277 287.277 316.471 287.968 322.758 287.281C329.046 286.594 340.293 278.95 345.291 280.202C350.29 281.454 354.777 281.48 348.887 285.476C346.119 287.355 335.401 298.803 332.074 301.06C327.998 302.096 326.464 302.206 323.885 302.355C324.446 303.98 325.616 304.894 325.616 304.894L317.77 310.218C317.77 310.218 313.816 307.928 311.626 305.862Z" fill="white"/>
</mask>
<g mask="url(#mask1_70_14492)">
<g opacity="0.2">
<path fill-rule="evenodd" clip-rule="evenodd" d="M314.866 309.411C311.572 302.59 314.965 287.2 313.462 285.837C311.96 284.474 304.612 296.851 304.612 296.851C304.612 296.851 301.118 300.316 306.733 305.496C312.349 310.677 318.16 316.233 314.866 309.411Z" fill="#617FC8" style="mix-blend-mode:multiply"/>
</g>
</g>
<g filter="url(#filter1_i_70_14492)">
<path fill-rule="evenodd" clip-rule="evenodd" d="M169.184 230.186C184.465 222.053 193.173 198.311 199.484 191.635C205.796 184.959 208.583 197.731 207.54 201.492C206.496 205.252 198.804 230.526 182.748 250.937C182.748 264.272 167.21 240.885 169.184 230.186Z" fill="url(#paint10_linear_70_14492)"/>
</g>
<path fill-rule="evenodd" clip-rule="evenodd" d="M162.647 203.246C162.647 203.246 198.868 188.928 203.765 189.875C208.661 190.821 194.026 207.505 191.032 208.852C188.038 210.198 183.968 213.482 179.464 213.599C174.961 213.716 164.609 215.945 164.609 215.945L162.647 203.246Z" fill="url(#paint11_linear_70_14492)"/>
<g filter="url(#filter2_i_70_14492)">
<path fill-rule="evenodd" clip-rule="evenodd" d="M171.59 310.556C176.041 304.554 186.937 292.036 210.394 287.475C233.85 282.915 255.393 278.657 294.936 290.414C298.192 328.575 301.901 366.996 305.645 374.777C302.79 378.25 292.473 380.904 286.421 380.904C284.225 372.312 277.345 351.614 273.85 341.375C270.355 331.137 269.115 318.428 269.791 313.947C257.874 317.331 233.464 327.616 224.906 330.663C216.348 333.71 186.985 343.37 177.265 335.593C167.546 327.816 167.14 316.557 171.59 310.556Z" fill="url(#paint12_linear_70_14492)"/>
</g>
<mask id="mask2_70_14492" style="mask-type:luminance" maskUnits="userSpaceOnUse" x="168" y="282" width="138" height="99">
<path fill-rule="evenodd" clip-rule="evenodd" d="M171.59 310.556C176.041 304.554 186.937 292.036 210.394 287.475C233.85 282.915 255.393 278.657 294.936 290.414C298.192 328.575 301.901 366.996 305.645 374.777C302.79 378.25 292.473 380.904 286.421 380.904C284.225 372.312 277.345 351.614 273.85 341.375C270.355 331.137 269.115 318.428 269.791 313.947C257.874 317.331 233.464 327.616 224.906 330.663C216.348 333.71 186.985 343.37 177.265 335.593C167.546 327.816 167.14 316.557 171.59 310.556Z" fill="white"/>
</mask>
<g mask="url(#mask2_70_14492)">
<g opacity="0.3">
<path fill-rule="evenodd" clip-rule="evenodd" d="M252.441 320.91C252.441 315.592 265.914 287.525 269.521 284.525C273.129 281.524 262.415 281.97 262.415 281.97C262.415 281.97 238.008 307.29 234.803 320.91C231.598 334.53 252.441 326.228 252.441 320.91Z" fill="url(#paint13_linear_70_14492)" style="mix-blend-mode:multiply"/>
</g>
</g>
<path fill-rule="evenodd" clip-rule="evenodd" d="M142.231 233.459C141.052 227.545 138.776 217.178 138.322 214.963C137.867 212.748 159.879 220.4 159.879 220.4L162.646 234.901L165.815 259.425C165.815 259.425 143.411 239.373 142.231 233.459Z" fill="url(#paint14_linear_70_14492)"/>
<mask id="mask3_70_14492" style="mask-type:luminance" maskUnits="userSpaceOnUse" x="138" y="214" width="28" height="46">
<path fill-rule="evenodd" clip-rule="evenodd" d="M142.231 233.459C141.052 227.545 138.776 217.178 138.322 214.963C137.867 212.748 159.879 220.4 159.879 220.4L162.646 234.901L165.815 259.425C165.815 259.425 143.411 239.373 142.231 233.459Z" fill="white"/>
</mask>
<g mask="url(#mask3_70_14492)">
<g opacity="0.2">
<path fill-rule="evenodd" clip-rule="evenodd" d="M139.523 215.58C139.523 217.806 147.875 227.327 152.388 229.937C156.9 232.547 165.03 232.305 165.03 232.305L163.791 219.484L139.523 213.359C139.523 213.359 139.523 213.353 139.523 215.58Z" fill="#7890CB" style="mix-blend-mode:multiply"/>
</g>
</g>
<path fill-rule="evenodd" clip-rule="evenodd" d="M161.425 228.409C161.425 228.409 169.783 229.768 170.359 230.814C175.794 234.759 181.023 246.502 183.256 252.586C185.488 258.669 189.77 264.952 193.629 269.837C197.489 274.721 199.34 275.729 204.397 279.343C209.454 282.957 211.312 285.825 208.45 288.519C205.588 291.213 189.108 290.167 177.376 304.818C167.127 309.018 167.14 310.553 164.095 301.479C161.05 292.405 136.011 269.716 131.95 266.518C127.889 263.32 129.458 260.248 128.434 250.452C127.41 240.657 120.026 232.715 126.237 232.715C131.132 234.536 135.899 230.814 138.051 230.814C145.892 232.765 147.677 240.478 150.932 238.86C154.187 237.243 156.271 237.243 156.271 237.243C157.03 238.783 157.275 241.42 158.034 242.96C158.794 244.5 161.971 247.589 163.383 250.452L160.887 242.12L161.583 237.138L161.425 228.409Z" fill="white"/>
<path fill-rule="evenodd" clip-rule="evenodd" d="M161.425 228.409C161.425 228.409 169.783 229.768 170.359 230.814C175.794 234.759 181.023 246.502 183.256 252.586C185.488 258.669 189.77 264.952 193.629 269.837C197.489 274.721 199.34 275.729 204.397 279.343C209.454 282.957 211.312 285.825 208.45 288.519C205.588 291.213 189.108 290.167 177.376 304.818C167.127 309.018 167.14 310.553 164.095 301.479C161.05 292.405 136.011 269.716 131.95 266.518C127.889 263.32 129.458 260.248 128.434 250.452C127.41 240.657 120.026 232.715 126.237 232.715C131.132 234.536 135.899 230.814 138.051 230.814C145.892 232.765 147.677 240.478 150.932 238.86C154.187 237.243 156.271 237.243 156.271 237.243C157.03 238.783 157.275 241.42 158.034 242.96C158.794 244.5 161.971 247.589 163.383 250.452L160.887 242.12L161.583 237.138L161.425 228.409Z" fill="url(#paint15_linear_70_14492)"/>
<mask id="mask4_70_14492" style="mask-type:luminance" maskUnits="userSpaceOnUse" x="123" y="228" width="87" height="81">
<path fill-rule="evenodd" clip-rule="evenodd" d="M161.425 228.409C161.425 228.409 169.783 229.768 170.359 230.814C175.794 234.759 181.023 246.502 183.256 252.586C185.488 258.669 189.77 264.952 193.629 269.837C197.489 274.721 199.34 275.729 204.397 279.343C209.454 282.957 211.312 285.825 208.45 288.519C205.588 291.213 189.108 290.167 177.376 304.818C167.127 309.018 167.14 310.553 164.095 301.479C161.05 292.405 136.011 269.716 131.95 266.518C127.889 263.32 129.458 260.248 128.434 250.452C127.41 240.657 120.026 232.715 126.237 232.715C131.132 234.536 135.899 230.814 138.051 230.814C145.892 232.765 147.677 240.478 150.932 238.86C154.187 237.243 156.271 237.243 156.271 237.243C157.03 238.783 157.275 241.42 158.034 242.96C158.794 244.5 161.971 247.589 163.383 250.452L160.887 242.12L161.583 237.138L161.425 228.409Z" fill="white"/>
<path fill-rule="evenodd" clip-rule="evenodd" d="M161.425 228.409C161.425 228.409 169.783 229.768 170.359 230.814C175.794 234.759 181.023 246.502 183.256 252.586C185.488 258.669 189.77 264.952 193.629 269.837C197.489 274.721 199.34 275.729 204.397 279.343C209.454 282.957 211.312 285.825 208.45 288.519C205.588 291.213 189.108 290.167 177.376 304.818C167.127 309.018 167.14 310.553 164.095 301.479C161.05 292.405 136.011 269.716 131.95 266.518C127.889 263.32 129.458 260.248 128.434 250.452C127.41 240.657 120.026 232.715 126.237 232.715C131.132 234.536 135.899 230.814 138.051 230.814C145.892 232.765 147.677 240.478 150.932 238.86C154.187 237.243 156.271 237.243 156.271 237.243C157.03 238.783 157.275 241.42 158.034 242.96C158.794 244.5 161.971 247.589 163.383 250.452L160.887 242.12L161.583 237.138L161.425 228.409Z" stroke="white"/>
</mask>
<g mask="url(#mask4_70_14492)">
<g opacity="0.6">
<mask id="path-39-outside-1_70_14492" maskUnits="userSpaceOnUse" x="157.632" y="248.379" width="45" height="45" fill="black">
<rect fill="white" x="157.632" y="248.379" width="45" height="45"/>
<path fill-rule="evenodd" clip-rule="evenodd" d="M161.972 250.399C162.711 251.879 170.795 266.036 172.513 268.071C174.231 270.107 179.862 275.78 182.034 277.927C184.206 280.075 197.517 288.53 197.675 291.182"/>
</mask>
<path fill-rule="evenodd" clip-rule="evenodd" d="M161.972 250.399C162.711 251.879 170.795 266.036 172.513 268.071C174.231 270.107 179.862 275.78 182.034 277.927C184.206 280.075 197.517 288.53 197.675 291.182" fill="black" fill-opacity="0.01"/>
<path d="M172.513 268.071L169.456 270.651L169.456 270.651L172.513 268.071ZM182.034 277.927L184.846 275.083L184.846 275.083L182.034 277.927ZM158.393 252.185C158.835 253.07 161.119 257.109 163.423 261.047C164.595 263.049 165.808 265.086 166.842 266.762C167.802 268.315 168.795 269.868 169.456 270.651L175.57 265.492C175.573 265.495 175.557 265.476 175.52 265.427C175.484 265.38 175.437 265.316 175.378 265.233C175.259 265.066 175.111 264.849 174.933 264.581C174.578 264.045 174.143 263.357 173.648 262.557C172.661 260.959 171.484 258.983 170.328 257.006C167.976 252.987 165.848 249.207 165.552 248.613L158.393 252.185ZM169.456 270.651C171.317 272.856 177.098 278.672 179.221 280.772L184.846 275.083C182.626 272.887 177.145 267.358 175.57 265.492L169.456 270.651ZM179.221 280.771C180.029 281.57 181.567 282.706 183.013 283.762C184.61 284.928 186.426 286.228 188.21 287.566C189.999 288.907 191.613 290.181 192.762 291.239C193.344 291.774 193.707 292.163 193.898 292.406C194.233 292.833 193.741 292.41 193.682 291.42L201.668 290.944C201.569 289.29 200.627 288.023 200.195 287.472C199.619 286.737 198.899 286.014 198.177 285.35C196.719 284.009 194.839 282.537 193.009 281.165C191.173 279.789 189.245 278.407 187.731 277.301C186.065 276.084 185.125 275.358 184.846 275.083L179.221 280.771Z" fill="#D9E8FF" mask="url(#path-39-outside-1_70_14492)"/>
</g>
<path opacity="0.3" fill-rule="evenodd" clip-rule="evenodd" d="M151.739 247.742C151.739 247.742 155.45 240.997 157.611 240.997C159.772 240.997 156.855 234.437 156.855 234.437L150.116 239.53L151.739 247.742Z" fill="#CCDFFD"/>
</g>
<path fill-rule="evenodd" clip-rule="evenodd" d="M207.511 284.811C219.828 273.51 255.085 251.638 275.191 248.299C286.709 250.213 316.683 282.685 316.683 282.685C315.331 284.109 311.769 296.73 306.142 300.698C291.971 288.94 277.197 283.45 273.229 277.37C268.281 280.381 255.56 289.174 248.244 302.092C240.927 315.011 236.073 329.728 227.735 330.096C219.397 330.465 207.638 331.417 196.807 324.451C190.516 320.405 172.404 311.387 181.203 305.479C186.246 302.092 202.347 289.549 207.511 284.811Z" fill="url(#paint16_linear_70_14492)"/>
<path fill-rule="evenodd" clip-rule="evenodd" d="M159.498 190.496C160.332 192.6 164.91 201.836 165.351 204.138C165.791 206.44 170.148 221.797 167.553 224.162C164.958 226.527 157.176 227.724 155.002 226.967C152.827 226.21 148.152 225.725 146.331 222.53C144.932 220.076 140.486 214.377 139.32 214.703C138.893 215.579 137.408 216.514 136.665 215.913C133.451 213.317 130.697 210.505 132.005 204.138C133.312 197.771 137.896 194.63 142.811 192.563C147.725 190.496 158.664 188.391 159.498 190.496Z" fill="url(#paint17_linear_70_14492)"/>
<path fill-rule="evenodd" clip-rule="evenodd" d="M103.316 225.817C109.27 228.226 128.551 218.636 134.669 219.487C140.293 220.27 133.157 211.479 131.045 209.923C128.933 208.367 86.7011 209.073 84.4844 212.319C82.2678 215.566 98.3786 223.818 103.316 225.817Z" fill="url(#paint18_linear_70_14492)"/>
<mask id="mask5_70_14492" style="mask-type:luminance" maskUnits="userSpaceOnUse" x="84" y="209" width="53" height="18">
<path fill-rule="evenodd" clip-rule="evenodd" d="M103.316 225.817C109.27 228.226 128.551 218.636 134.669 219.487C140.293 220.27 133.157 211.479 131.045 209.923C128.933 208.367 86.7011 209.073 84.4844 212.319C82.2678 215.566 98.3786 223.818 103.316 225.817Z" fill="white"/>
</mask>
<g mask="url(#mask5_70_14492)">
<path opacity="0.5" fill-rule="evenodd" clip-rule="evenodd" d="M91.5936 212.622C92.8454 213.077 118.238 224.137 124.521 222.605C130.803 221.073 108.865 228.397 108.865 228.397C108.865 228.397 90.3419 212.167 91.5936 212.622Z" fill="#6B84C2"/>
</g>
<g filter="url(#filter3_i_70_14492)">
<path fill-rule="evenodd" clip-rule="evenodd" d="M141.891 204.173C141.891 204.173 139.018 199.809 141.239 195.481C143.46 191.152 155.188 196.925 164.685 186.254C174.182 175.582 165.743 161.181 155.979 163.99C146.216 166.799 148.61 171.83 150.38 175.582C152.15 179.335 143.043 180.745 136.53 183.387C130.018 186.028 124.702 193.137 125.85 204.173C126.997 215.209 137.241 224.245 140.501 225.908C139.553 219.386 139.511 216.39 139.511 214.573C135.771 216.3 131.415 207.736 133.951 205.482C138.796 201.178 141.239 210.982 141.239 210.982C141.239 210.982 141.891 209.586 143.043 208.263C142.604 205.902 141.891 204.173 141.891 204.173Z" fill="url(#paint19_linear_70_14492)"/>
</g>
<path fill-rule="evenodd" clip-rule="evenodd" d="M161.628 236.905C164.602 237.961 165.171 243.45 165.682 244.998C166.192 246.546 163.539 232.865 163.539 232.865C162.605 234.152 160.608 225.414 160.983 226.696C161.993 230.141 161.147 234.044 161.628 236.905Z" fill="#CCDFFD"/>
<path fill-rule="evenodd" clip-rule="evenodd" d="M151.927 250.736C151.927 245.874 153.861 239.498 156.248 237.223C152.786 237.437 142.6 231.354 141.513 227.963C140.425 224.572 140.223 224.088 140.223 224.088C140.223 224.088 138.126 228.143 138.126 230.715C139.61 236.295 146.229 245.982 151.927 250.736Z" fill="url(#paint20_linear_70_14492)"/>
<g filter="url(#filter4_i_70_14492)">
<path fill-rule="evenodd" clip-rule="evenodd" d="M122.163 231.379C112.106 225.854 92.0176 210.145 86.7375 211.427C81.4575 212.709 82.8277 215.091 82.8277 220.554C82.8277 226.017 110.422 244.467 114.671 253.595C116.49 257.503 121.15 267.156 129.491 265.583C137.831 264.011 135.301 255.727 133.503 249.045C131.39 241.191 128.355 234.782 122.163 231.379Z" fill="url(#paint21_linear_70_14492)"/>
</g>
<path fill-rule="evenodd" clip-rule="evenodd" d="M149.202 204.371C150.962 204.839 153.162 204.496 154.338 203.213L149.202 204.371Z" fill="black" fill-opacity="0.01"/>
<path d="M149.202 204.371C150.962 204.839 153.162 204.496 154.338 203.213" stroke="#143B8C" stroke-width="3" stroke-linecap="round"/>
<path fill-rule="evenodd" clip-rule="evenodd" d="M163.323 200.632C164.843 201.1 166.743 200.758 167.759 199.475L163.323 200.632Z" fill="black" fill-opacity="0.01"/>
<path d="M163.323 200.632C164.843 201.1 166.743 200.758 167.759 199.475" stroke="#143B8C" stroke-width="3" stroke-linecap="round"/>
<path fill-rule="evenodd" clip-rule="evenodd" d="M145.311 201.614L147.202 209.961L157.735 207.434L156.148 198.741L145.311 201.614Z" fill="black" fill-opacity="0.01" stroke="#143B8C" stroke-width="4"/>
<path fill-rule="evenodd" clip-rule="evenodd" d="M160.704 197.349L162.419 205.877L170.306 203.617L168.866 195.082L160.704 197.349Z" fill="black" fill-opacity="0.01" stroke="#143B8C" stroke-width="4"/>
<path fill-rule="evenodd" clip-rule="evenodd" d="M145.099 202.664L138.889 204.363L139.927 206.435L146.639 208.019L145.099 202.664Z" fill="#143B8C"/>
<path fill-rule="evenodd" clip-rule="evenodd" d="M156.498 201.372L161.236 199.913L161.758 202.414L156.838 203.785L156.498 201.372Z" fill="#143B8C"/>
<path fill-rule="evenodd" clip-rule="evenodd" d="M149.306 325.203C195.321 353.943 242.845 357.083 258.824 331.524C278.015 294.263 212.213 310.385 166.197 281.646C120.181 252.906 121.319 228.917 89.5785 217.492C73.5994 243.051 103.29 296.463 149.306 325.203Z" fill="black" fill-opacity="0.01"/>
<mask id="mask6_70_14492" style="mask-type:luminance" maskUnits="userSpaceOnUse" x="85" y="217" width="178" height="132">
<path fill-rule="evenodd" clip-rule="evenodd" d="M149.306 325.203C195.321 353.943 242.845 357.083 258.824 331.524C278.015 294.263 212.213 310.385 166.197 281.646C120.181 252.906 121.319 228.917 89.5785 217.492C73.5994 243.051 103.29 296.463 149.306 325.203Z" fill="white"/>
</mask>
<g mask="url(#mask6_70_14492)">
<g filter="url(#filter5_i_70_14492)">
<path fill-rule="evenodd" clip-rule="evenodd" d="M66.9938 288.922C91.0115 304.512 118.524 304.771 128.445 289.502C138.366 274.232 126.938 249.216 102.921 233.626C78.9029 218.037 51.3901 217.777 41.4692 233.046C31.5483 248.316 42.976 273.332 66.9938 288.922Z" fill="#EEF5FF"/>
</g>
<g filter="url(#filter6_i_70_14492)">
<path fill-rule="evenodd" clip-rule="evenodd" d="M151.254 351.06C168.954 342.81 174.457 317.161 163.544 293.77C152.632 270.38 129.436 258.106 111.736 266.356C94.0358 274.605 88.5332 300.255 99.4456 323.645C110.358 347.036 133.553 359.31 151.254 351.06Z" fill="#EEF5FF"/>
</g>
<g filter="url(#filter7_i_70_14492)">
<path fill-rule="evenodd" clip-rule="evenodd" d="M197.157 390.484C214.857 382.234 220.36 356.584 209.447 333.194C198.535 309.803 175.339 297.53 157.639 305.779C139.939 314.029 134.436 339.679 145.349 363.069C156.261 386.459 179.456 398.733 197.157 390.484Z" fill="#EEF5FF"/>
</g>
<g filter="url(#filter8_i_70_14492)">
<path fill-rule="evenodd" clip-rule="evenodd" d="M282.842 403.738C300.543 395.488 306.045 369.839 295.133 346.448C284.22 323.058 261.025 310.784 243.325 319.034C225.625 327.283 220.122 352.933 231.035 376.323C241.947 399.714 265.142 411.988 282.842 403.738Z" fill="#EEF5FF"/>
</g>
<g filter="url(#filter9_i_70_14492)">
<path fill-rule="evenodd" clip-rule="evenodd" d="M222.213 377.817C241.598 380.196 258.787 370.117 260.606 355.306C262.426 340.495 248.186 326.559 228.802 324.18C209.417 321.802 192.228 331.88 190.409 346.691C188.589 361.502 202.828 375.438 222.213 377.817Z" fill="#EEF5FF"/>
</g>
</g>
<path fill-rule="evenodd" clip-rule="evenodd" d="M168.878 252.285C168.878 252.285 176.925 250.764 177.891 249.682C178.856 248.6 184.306 261.099 184.306 261.099L181.66 264.102H175.351L168.878 252.285Z" fill="url(#paint22_linear_70_14492)"/>
<path opacity="0.2" fill-rule="evenodd" clip-rule="evenodd" d="M76.2866 389.4C89.8075 389.4 100.768 391.759 100.768 394.668C100.768 397.578 89.8075 399.936 76.2866 399.936C62.7658 399.936 51.805 397.578 51.805 394.668C51.805 391.759 62.7658 389.4 76.2866 389.4Z" fill="#BBCFF2"/>
<path fill-rule="evenodd" clip-rule="evenodd" d="M99.0536 368.795C100.589 371.483 101.448 374.495 101.448 377.675C101.448 389.031 90.4876 398.237 76.9667 398.237C63.4458 398.237 52.4851 389.031 52.4851 377.675C52.4851 374.31 53.4478 371.133 55.1547 368.329C66 370.045 87.5867 369.934 99.0536 368.795Z" fill="url(#paint23_linear_70_14492)"/>
<mask id="mask7_70_14492" style="mask-type:luminance" maskUnits="userSpaceOnUse" x="52" y="368" width="50" height="31">
<path fill-rule="evenodd" clip-rule="evenodd" d="M99.0536 368.795C100.589 371.483 101.448 374.495 101.448 377.675C101.448 389.031 90.4876 398.237 76.9667 398.237C63.4458 398.237 52.4851 389.031 52.4851 377.675C52.4851 374.31 53.4478 371.133 55.1547 368.329C66 370.045 87.5867 369.934 99.0536 368.795Z" fill="white"/>
</mask>
<g mask="url(#mask7_70_14492)">
</g>
<path fill-rule="evenodd" clip-rule="evenodd" d="M77.1367 364.251C89.437 364.251 99.4082 366.609 99.4082 369.519C99.4082 372.428 89.437 374.787 77.1367 374.787C64.8365 374.787 54.8652 372.428 54.8652 369.519C54.8652 366.609 64.8365 364.251 77.1367 364.251Z" fill="url(#paint24_linear_70_14492)"/>
<mask id="mask8_70_14492" style="mask-type:luminance" maskUnits="userSpaceOnUse" x="54" y="364" width="46" height="11">
<path fill-rule="evenodd" clip-rule="evenodd" d="M77.1367 364.251C89.437 364.251 99.4082 366.609 99.4082 369.519C99.4082 372.428 89.437 374.787 77.1367 374.787C64.8365 374.787 54.8652 372.428 54.8652 369.519C54.8652 366.609 64.8365 364.251 77.1367 364.251Z" fill="white"/>
</mask>
<g mask="url(#mask8_70_14492)">
</g>
<g filter="url(#filter10_i_70_14492)">
<path fill-rule="evenodd" clip-rule="evenodd" d="M75.2666 364.931C74.0503 356.518 70.7044 344.37 60.6456 331.285C54.7203 323.577 54.7009 304.807 53.8452 302.737C58.4947 304.335 66.8471 308.454 75.2666 320.069C84.0926 332.245 78.4935 357.077 75.2666 364.931Z" fill="url(#paint25_linear_70_14492)"/>
</g>
<mask id="mask9_70_14492" style="mask-type:luminance" maskUnits="userSpaceOnUse" x="53" y="302" width="28" height="63">
<path fill-rule="evenodd" clip-rule="evenodd" d="M75.2666 364.931C74.0503 356.518 70.7044 344.37 60.6456 331.285C54.7203 323.577 54.7009 304.807 53.8452 302.737C58.4947 304.335 66.8471 308.454 75.2666 320.069C84.0926 332.245 78.4935 357.077 75.2666 364.931Z" fill="white"/>
</mask>
<g mask="url(#mask9_70_14492)">
<g style="mix-blend-mode:multiply" opacity="0.5">
<path d="M68.9465 329.395C71.5106 335.569 72.9278 342.338 73.4124 350.521L68.9465 329.395Z" fill="black" fill-opacity="0.01"/>
<path d="M68.9465 329.395C71.5106 335.569 72.9278 342.338 73.4124 350.521L68.9465 329.395Z" stroke="#489C71" stroke-width="3"/>
</g>
</g>
<g filter="url(#filter11_i_70_14492)">
<path fill-rule="evenodd" clip-rule="evenodd" d="M75.3041 373.566C71.5466 367.559 64.9076 359.418 52.8312 352.817C45.7174 348.929 39.3897 334.621 38.0405 333.329C42.1259 332.987 49.8848 333.324 60.216 339.354C71.046 345.676 75.125 366.493 75.3041 373.566Z" fill="url(#paint26_linear_70_14492)"/>
</g>
<mask id="mask10_70_14492" style="mask-type:luminance" maskUnits="userSpaceOnUse" x="38" y="333" width="38" height="41">
<path fill-rule="evenodd" clip-rule="evenodd" d="M75.3041 373.566C71.5466 367.559 64.9076 359.418 52.8312 352.817C45.7174 348.929 39.3897 334.621 38.0405 333.329C42.1259 332.987 49.8848 333.324 60.216 339.354C71.046 345.676 75.125 366.493 75.3041 373.566Z" fill="white"/>
</mask>
<g mask="url(#mask10_70_14492)">
<g style="mix-blend-mode:multiply" opacity="0.5">
<path d="M60.7347 351.225C62.951 353.697 64.9654 356.501 66.8685 359.75L60.7347 351.225Z" fill="black" fill-opacity="0.01"/>
<path d="M60.7347 351.225C62.951 353.697 64.9654 356.501 66.8685 359.75L60.7347 351.225Z" stroke="#489C71" stroke-width="3"/>
</g>
</g>
<g filter="url(#filter12_i_70_14492)">
<path fill-rule="evenodd" clip-rule="evenodd" d="M78.0028 374.389C80.9655 367.923 86.5214 358.961 97.6932 350.832C104.274 346.043 108.719 330.981 109.895 329.521C105.782 329.707 98.097 331.042 88.5894 338.379C78.6229 346.07 77.2628 367.323 78.0028 374.389Z" fill="url(#paint27_linear_70_14492)"/>
</g>
<mask id="mask11_70_14492" style="mask-type:luminance" maskUnits="userSpaceOnUse" x="77" y="329" width="33" height="46">
<path fill-rule="evenodd" clip-rule="evenodd" d="M78.0028 374.389C80.9655 367.923 86.5214 358.961 97.6932 350.832C104.274 346.043 108.719 330.981 109.895 329.521C105.782 329.707 98.097 331.042 88.5894 338.379C78.6229 346.07 77.2628 367.323 78.0028 374.389Z" fill="white"/>
</mask>
<g mask="url(#mask11_70_14492)">
<g style="mix-blend-mode:multiply" opacity="0.5">
<path d="M83.4109 359.585C84.9195 356 86.6049 352.868 88.5486 350.056L83.4109 359.585Z" fill="black" fill-opacity="0.01"/>
<path d="M83.4109 359.585C84.9195 356 86.6049 352.868 88.5486 350.056L83.4109 359.585Z" stroke="#489C71" stroke-width="3"/>
</g>
</g>
<g opacity="0.6">
<path fill-rule="evenodd" clip-rule="evenodd" d="M70.1663 118.874C81.8092 118.874 91.2477 128.308 91.2477 139.945C91.2477 151.582 81.8092 161.016 70.1663 161.016C58.5233 161.016 49.0848 151.582 49.0848 139.945C49.0848 128.308 58.5233 118.874 70.1663 118.874Z" fill="url(#paint28_linear_70_14492)"/>
<mask id="mask12_70_14492" style="mask-type:luminance" maskUnits="userSpaceOnUse" x="49" y="118" width="43" height="44">
<path fill-rule="evenodd" clip-rule="evenodd" d="M70.1663 118.874C81.8092 118.874 91.2477 128.308 91.2477 139.945C91.2477 151.582 81.8092 161.016 70.1663 161.016C58.5233 161.016 49.0848 151.582 49.0848 139.945C49.0848 128.308 58.5233 118.874 70.1663 118.874Z" fill="white"/>
</mask>
<g mask="url(#mask12_70_14492)">
</g>
<mask id="path-83-inside-2_70_14492" fill="white">
<path fill-rule="evenodd" clip-rule="evenodd" d="M70.4234 125.555V140.716L77.3648 147.654"/>
</mask>
<path d="M76.4234 125.555C76.4234 122.241 73.7371 119.555 70.4234 119.555C67.1097 119.555 64.4234 122.241 64.4234 125.555H76.4234ZM70.4234 140.716H64.4234C64.4234 142.308 65.0559 143.834 66.1818 144.96L70.4234 140.716ZM73.1232 151.898C75.467 154.24 79.2659 154.239 81.6085 151.896C83.9511 149.552 83.9502 145.753 81.6065 143.41L73.1232 151.898ZM64.4234 125.555V140.716H76.4234V125.555H64.4234ZM66.1818 144.96L73.1232 151.898L81.6065 143.41L74.665 136.472L66.1818 144.96Z" fill="white" mask="url(#path-83-inside-2_70_14492)"/>
</g>
</g>
<defs>
<filter id="filter0_f_70_14492" x="30.9856" y="149.219" width="279.324" height="266.426" filterUnits="userSpaceOnUse" color-interpolation-filters="sRGB">
<feFlood flood-opacity="0" result="BackgroundImageFix"/>
<feBlend mode="normal" in="SourceGraphic" in2="BackgroundImageFix" result="shape"/>
<feGaussianBlur stdDeviation="49.9909" result="effect1_foregroundBlur_70_14492"/>
</filter>
<filter id="filter1_i_70_14492" x="169.011" y="189.735" width="38.7429" height="66.202" filterUnits="userSpaceOnUse" color-interpolation-filters="sRGB">
<feFlood flood-opacity="0" result="BackgroundImageFix"/>
<feBlend mode="normal" in="SourceGraphic" in2="BackgroundImageFix" result="shape"/>
<feColorMatrix in="SourceAlpha" type="matrix" values="0 0 0 0 0 0 0 0 0 0 0 0 0 0 0 0 0 0 127 0" result="hardAlpha"/>
<feOffset dy="1"/>
<feGaussianBlur stdDeviation="6"/>
<feComposite in2="hardAlpha" operator="arithmetic" k2="-1" k3="1"/>
<feColorMatrix type="matrix" values="0 0 0 0 0.898039 0 0 0 0 0.941176 0 0 0 0 1 0 0 0 1 0"/>
<feBlend mode="normal" in2="shape" result="effect1_innerShadow_70_14492"/>
</filter>
<filter id="filter2_i_70_14492" x="168.864" y="282.816" width="152.782" height="102.088" filterUnits="userSpaceOnUse" color-interpolation-filters="sRGB">
<feFlood flood-opacity="0" result="BackgroundImageFix"/>
<feBlend mode="normal" in="SourceGraphic" in2="BackgroundImageFix" result="shape"/>
<feColorMatrix in="SourceAlpha" type="matrix" values="0 0 0 0 0 0 0 0 0 0 0 0 0 0 0 0 0 0 127 0" result="hardAlpha"/>
<feOffset dx="16" dy="4"/>
<feGaussianBlur stdDeviation="14"/>
<feComposite in2="hardAlpha" operator="arithmetic" k2="-1" k3="1"/>
<feColorMatrix type="matrix" values="0 0 0 0 0.103708 0 0 0 0 0.317385 0 0 0 0 0.809604 0 0 0 1 0"/>
<feBlend mode="normal" in2="shape" result="effect1_innerShadow_70_14492"/>
</filter>
<filter id="filter3_i_70_14492" x="125.693" y="163.634" width="56.1482" height="74.2737" filterUnits="userSpaceOnUse" color-interpolation-filters="sRGB">
<feFlood flood-opacity="0" result="BackgroundImageFix"/>
<feBlend mode="normal" in="SourceGraphic" in2="BackgroundImageFix" result="shape"/>
<feColorMatrix in="SourceAlpha" type="matrix" values="0 0 0 0 0 0 0 0 0 0 0 0 0 0 0 0 0 0 127 0" result="hardAlpha"/>
<feOffset dx="13" dy="12"/>
<feGaussianBlur stdDeviation="9"/>
<feComposite in2="hardAlpha" operator="arithmetic" k2="-1" k3="1"/>
<feColorMatrix type="matrix" values="0 0 0 0 0 0 0 0 0 0 0 0 0 0 0 0 0 0 0.139889 0"/>
<feBlend mode="normal" in2="shape" result="effect1_innerShadow_70_14492"/>
</filter>
<filter id="filter4_i_70_14492" x="82.6677" y="203.353" width="64.6521" height="62.4021" filterUnits="userSpaceOnUse" color-interpolation-filters="sRGB">
<feFlood flood-opacity="0" result="BackgroundImageFix"/>
<feBlend mode="normal" in="SourceGraphic" in2="BackgroundImageFix" result="shape"/>
<feColorMatrix in="SourceAlpha" type="matrix" values="0 0 0 0 0 0 0 0 0 0 0 0 0 0 0 0 0 0 127 0" result="hardAlpha"/>
<feOffset dx="18" dy="-8"/>
<feGaussianBlur stdDeviation="6"/>
<feComposite in2="hardAlpha" operator="arithmetic" k2="-1" k3="1"/>
<feColorMatrix type="matrix" values="0 0 0 0 0.898039 0 0 0 0 0.941176 0 0 0 0 1 0 0 0 1 0"/>
<feBlend mode="normal" in2="shape" result="effect1_innerShadow_70_14492"/>
</filter>
<filter id="filter5_i_70_14492" x="16.8928" y="200.762" width="115.129" height="100.024" filterUnits="userSpaceOnUse" color-interpolation-filters="sRGB">
<feFlood flood-opacity="0" result="BackgroundImageFix"/>
<feBlend mode="normal" in="SourceGraphic" in2="BackgroundImageFix" result="shape"/>
<feColorMatrix in="SourceAlpha" type="matrix" values="0 0 0 0 0 0 0 0 0 0 0 0 0 0 0 0 0 0 127 0" result="hardAlpha"/>
<feOffset dx="-27.5" dy="-39.3"/>
<feGaussianBlur stdDeviation="10.5"/>
<feComposite in2="hardAlpha" operator="arithmetic" k2="-1" k3="1"/>
<feColorMatrix type="matrix" values="0 0 0 0 0.580392 0 0 0 0 0.67451 0 0 0 0 0.854902 0 0 0 0.43 0"/>
<feBlend mode="normal" in2="shape" result="effect1_innerShadow_70_14492"/>
</filter>
<filter id="filter6_i_70_14492" x="78.9391" y="242.786" width="90.2115" height="110.843" filterUnits="userSpaceOnUse" color-interpolation-filters="sRGB">
<feFlood flood-opacity="0" result="BackgroundImageFix"/>
<feBlend mode="normal" in="SourceGraphic" in2="BackgroundImageFix" result="shape"/>
<feColorMatrix in="SourceAlpha" type="matrix" values="0 0 0 0 0 0 0 0 0 0 0 0 0 0 0 0 0 0 127 0" result="hardAlpha"/>
<feOffset dx="-14.9" dy="-24.9"/>
<feGaussianBlur stdDeviation="10.5"/>
<feComposite in2="hardAlpha" operator="arithmetic" k2="-1" k3="1"/>
<feColorMatrix type="matrix" values="0 0 0 0 0.580392 0 0 0 0 0.67451 0 0 0 0 0.854902 0 0 0 0.43 0"/>
<feBlend mode="normal" in2="shape" result="effect1_innerShadow_70_14492"/>
</filter>
<filter id="filter7_i_70_14492" x="118.742" y="290.51" width="96.3115" height="102.543" filterUnits="userSpaceOnUse" color-interpolation-filters="sRGB">
<feFlood flood-opacity="0" result="BackgroundImageFix"/>
<feBlend mode="normal" in="SourceGraphic" in2="BackgroundImageFix" result="shape"/>
<feColorMatrix in="SourceAlpha" type="matrix" values="0 0 0 0 0 0 0 0 0 0 0 0 0 0 0 0 0 0 127 0" result="hardAlpha"/>
<feOffset dx="-24.9" dy="-12.7"/>
<feGaussianBlur stdDeviation="10.5"/>
<feComposite in2="hardAlpha" operator="arithmetic" k2="-1" k3="1"/>
<feColorMatrix type="matrix" values="0 0 0 0 0.580392 0 0 0 0 0.67451 0 0 0 0 0.854902 0 0 0 0.43 0"/>
<feBlend mode="normal" in2="shape" result="effect1_innerShadow_70_14492"/>
</filter>
<filter id="filter8_i_70_14492" x="215.528" y="316.464" width="85.2114" height="102.443" filterUnits="userSpaceOnUse" color-interpolation-filters="sRGB">
<feFlood flood-opacity="0" result="BackgroundImageFix"/>
<feBlend mode="normal" in="SourceGraphic" in2="BackgroundImageFix" result="shape"/>
<feColorMatrix in="SourceAlpha" type="matrix" values="0 0 0 0 0 0 0 0 0 0 0 0 0 0 0 0 0 0 127 0" result="hardAlpha"/>
<feOffset dx="-9.9" dy="12.6"/>
<feGaussianBlur stdDeviation="10.5"/>
<feComposite in2="hardAlpha" operator="arithmetic" k2="-1" k3="1"/>
<feColorMatrix type="matrix" values="0 0 0 0 0.580392 0 0 0 0 0.67451 0 0 0 0 0.854902 0 0 0 0.43 0"/>
<feBlend mode="normal" in2="shape" result="effect1_innerShadow_70_14492"/>
</filter>
<filter id="filter9_i_70_14492" x="171.452" y="323.833" width="89.311" height="56.9317" filterUnits="userSpaceOnUse" color-interpolation-filters="sRGB">
<feFlood flood-opacity="0" result="BackgroundImageFix"/>
<feBlend mode="normal" in="SourceGraphic" in2="BackgroundImageFix" result="shape"/>
<feColorMatrix in="SourceAlpha" type="matrix" values="0 0 0 0 0 0 0 0 0 0 0 0 0 0 0 0 0 0 127 0" result="hardAlpha"/>
<feOffset dx="-18.8" dy="2.6"/>
<feGaussianBlur stdDeviation="10.5"/>
<feComposite in2="hardAlpha" operator="arithmetic" k2="-1" k3="1"/>
<feColorMatrix type="matrix" values="0 0 0 0 0.580392 0 0 0 0 0.67451 0 0 0 0 0.854902 0 0 0 0.43 0"/>
<feBlend mode="normal" in2="shape" result="effect1_innerShadow_70_14492"/>
</filter>
<filter id="filter10_i_70_14492" x="53.8452" y="292.737" width="26.1636" height="72.194" filterUnits="userSpaceOnUse" color-interpolation-filters="sRGB">
<feFlood flood-opacity="0" result="BackgroundImageFix"/>
<feBlend mode="normal" in="SourceGraphic" in2="BackgroundImageFix" result="shape"/>
<feColorMatrix in="SourceAlpha" type="matrix" values="0 0 0 0 0 0 0 0 0 0 0 0 0 0 0 0 0 0 127 0" result="hardAlpha"/>
<feOffset dy="-10"/>
<feGaussianBlur stdDeviation="6.5"/>
<feComposite in2="hardAlpha" operator="arithmetic" k2="-1" k3="1"/>
<feColorMatrix type="matrix" values="0 0 0 0 0.221483 0 0 0 0 0.77854 0 0 0 0 0.47323 0 0 0 1 0"/>
<feBlend mode="normal" in2="shape" result="effect1_innerShadow_70_14492"/>
</filter>
<filter id="filter11_i_70_14492" x="38.0405" y="323.238" width="37.2635" height="50.3281" filterUnits="userSpaceOnUse" color-interpolation-filters="sRGB">
<feFlood flood-opacity="0" result="BackgroundImageFix"/>
<feBlend mode="normal" in="SourceGraphic" in2="BackgroundImageFix" result="shape"/>
<feColorMatrix in="SourceAlpha" type="matrix" values="0 0 0 0 0 0 0 0 0 0 0 0 0 0 0 0 0 0 127 0" result="hardAlpha"/>
<feOffset dy="-10"/>
<feGaussianBlur stdDeviation="6.5"/>
<feComposite in2="hardAlpha" operator="arithmetic" k2="-1" k3="1"/>
<feColorMatrix type="matrix" values="0 0 0 0 0.221483 0 0 0 0 0.77854 0 0 0 0 0.47323 0 0 0 1 0"/>
<feBlend mode="normal" in2="shape" result="effect1_innerShadow_70_14492"/>
</filter>
<filter id="filter12_i_70_14492" x="77.8331" y="319.521" width="32.0624" height="54.8678" filterUnits="userSpaceOnUse" color-interpolation-filters="sRGB">
<feFlood flood-opacity="0" result="BackgroundImageFix"/>
<feBlend mode="normal" in="SourceGraphic" in2="BackgroundImageFix" result="shape"/>
<feColorMatrix in="SourceAlpha" type="matrix" values="0 0 0 0 0 0 0 0 0 0 0 0 0 0 0 0 0 0 127 0" result="hardAlpha"/>
<feOffset dy="-10"/>
<feGaussianBlur stdDeviation="6.5"/>
<feComposite in2="hardAlpha" operator="arithmetic" k2="-1" k3="1"/>
<feColorMatrix type="matrix" values="0 0 0 0 0.221483 0 0 0 0 0.77854 0 0 0 0 0.47323 0 0 0 1 0"/>
<feBlend mode="normal" in2="shape" result="effect1_innerShadow_70_14492"/>
</filter>
<linearGradient id="paint0_linear_70_14492" x1="129.033" y1="143.734" x2="129.033" y2="396.934" gradientUnits="userSpaceOnUse">
<stop stop-color="white"/>
<stop offset="1" stop-color="#E7EFFC"/>
</linearGradient>
<linearGradient id="paint1_linear_70_14492" x1="187.5" y1="600" x2="162.313" y2="693.193" gradientUnits="userSpaceOnUse">
<stop stop-color="#FF8960"/>
<stop offset="1" stop-color="#FF62A5"/>
</linearGradient>
<linearGradient id="paint2_linear_70_14492" x1="-23" y1="336.722" x2="-23" y2="438" gradientUnits="userSpaceOnUse">
<stop stop-color="white"/>
<stop offset="1" stop-color="#EAF0FD"/>
</linearGradient>
<linearGradient id="paint3_linear_70_14492" x1="541.061" y1="425.899" x2="588.807" y2="96.0696" gradientUnits="userSpaceOnUse">
<stop stop-color="#ECF2FC"/>
<stop offset="1" stop-color="#B9CFF7"/>
</linearGradient>
<linearGradient id="paint4_linear_70_14492" x1="287.395" y1="227.077" x2="318.932" y2="193.369" gradientUnits="userSpaceOnUse">
<stop stop-color="#FDAE6B"/>
<stop offset="1" stop-color="#FAE539"/>
</linearGradient>
<radialGradient id="paint5_radial_70_14492" cx="0" cy="0" r="1" gradientUnits="userSpaceOnUse" gradientTransform="translate(171.153 375.014) rotate(90) scale(24.9224 402.625)">
<stop/>
<stop offset="1" stop-color="#2062E7"/>
</radialGradient>
<radialGradient id="paint6_radial_70_14492" cx="0" cy="0" r="1" gradientTransform="matrix(32.3052 -78.9936 144.722 41.7376 137.262 287.958)" gradientUnits="userSpaceOnUse">
<stop stop-color="#62ABFB"/>
<stop offset="1" stop-color="#1440C0"/>
</radialGradient>
<radialGradient id="paint7_radial_70_14492" cx="0" cy="0" r="1" gradientTransform="matrix(-28.5512 85.456 -405.604 -92.6839 179.625 238.834)" gradientUnits="userSpaceOnUse">
<stop stop-color="#F4F8FF"/>
<stop offset="1" stop-color="#89B1E9"/>
</radialGradient>
<linearGradient id="paint8_linear_70_14492" x1="305.676" y1="375.431" x2="302.215" y2="401.374" gradientUnits="userSpaceOnUse">
<stop stop-color="#9ABFFF"/>
<stop offset="1" stop-color="#5B87D2"/>
</linearGradient>
<linearGradient id="paint9_linear_70_14492" x1="304.102" y1="275.928" x2="300.677" y2="308.746" gradientUnits="userSpaceOnUse">
<stop stop-color="#91BAFF"/>
<stop offset="1" stop-color="#5B87D2"/>
</linearGradient>
<linearGradient id="paint10_linear_70_14492" x1="190.405" y1="185.621" x2="159.568" y2="220.742" gradientUnits="userSpaceOnUse">
<stop stop-color="#F5F8FF"/>
<stop offset="1" stop-color="white"/>
</linearGradient>
<linearGradient id="paint11_linear_70_14492" x1="185.604" y1="225.106" x2="198.149" y2="191.005" gradientUnits="userSpaceOnUse">
<stop stop-color="#6B86C0"/>
<stop offset="1" stop-color="#A1B8E3"/>
</linearGradient>
<linearGradient id="paint12_linear_70_14492" x1="255.222" y1="355.529" x2="294.025" y2="316.338" gradientUnits="userSpaceOnUse">
<stop stop-color="#002383"/>
<stop offset="1" stop-color="#316EEA"/>
</linearGradient>
<linearGradient id="paint13_linear_70_14492" x1="263.404" y1="339.929" x2="287.027" y2="317.627" gradientUnits="userSpaceOnUse">
<stop stop-color="#002343"/>
<stop offset="1" stop-color="#1A72FF" stop-opacity="0.436934"/>
</linearGradient>
<linearGradient id="paint14_linear_70_14492" x1="143.245" y1="220.126" x2="143.245" y2="248.762" gradientUnits="userSpaceOnUse">
<stop stop-color="#6081C1"/>
<stop offset="1" stop-color="#90AADB"/>
</linearGradient>
<linearGradient id="paint15_linear_70_14492" x1="200.815" y1="295.685" x2="193.829" y2="275.734" gradientUnits="userSpaceOnUse">
<stop stop-color="#B1C2E4"/>
<stop offset="1" stop-color="white" stop-opacity="0.01"/>
</linearGradient>
<linearGradient id="paint16_linear_70_14492" x1="207.391" y1="259.442" x2="216.765" y2="295.872" gradientUnits="userSpaceOnUse">
<stop stop-color="#3D9BF8"/>
<stop offset="1" stop-color="#3B80F0"/>
</linearGradient>
<linearGradient id="paint17_linear_70_14492" x1="171.96" y1="189.315" x2="142.96" y2="204.575" gradientUnits="userSpaceOnUse">
<stop stop-color="white"/>
<stop offset="0.701101" stop-color="#B8CBEB"/>
<stop offset="1" stop-color="#A1B8E3"/>
</linearGradient>
<linearGradient id="paint18_linear_70_14492" x1="146.037" y1="229.97" x2="146.977" y2="208.943" gradientUnits="userSpaceOnUse">
<stop stop-color="#7992C7"/>
<stop offset="1" stop-color="#A1B8E3"/>
</linearGradient>
<linearGradient id="paint19_linear_70_14492" x1="171.837" y1="141.739" x2="121.542" y2="154.111" gradientUnits="userSpaceOnUse">
<stop stop-color="#2669E1"/>
<stop offset="1" stop-color="#143B8C"/>
</linearGradient>
<linearGradient id="paint20_linear_70_14492" x1="144.416" y1="242.985" x2="150.979" y2="238.788" gradientUnits="userSpaceOnUse">
<stop stop-color="#EEF5FF"/>
<stop offset="1" stop-color="#ADC8F2"/>
</linearGradient>
<linearGradient id="paint21_linear_70_14492" x1="113.052" y1="210.452" x2="95.6899" y2="247.348" gradientUnits="userSpaceOnUse">
<stop stop-color="#F5F8FF"/>
<stop offset="1" stop-color="white"/>
</linearGradient>
<linearGradient id="paint22_linear_70_14492" x1="172.601" y1="245.893" x2="168.272" y2="262.504" gradientUnits="userSpaceOnUse">
<stop stop-color="#EEF5FF"/>
<stop offset="1" stop-color="#D9E8FF"/>
</linearGradient>
<linearGradient id="paint23_linear_70_14492" x1="114.199" y1="387.433" x2="90.5427" y2="361.087" gradientUnits="userSpaceOnUse">
<stop stop-color="#CEE0FB"/>
<stop offset="1" stop-color="#E4EDFB"/>
</linearGradient>
<linearGradient id="paint24_linear_70_14492" x1="54.1852" y1="363.911" x2="54.1852" y2="375.126" gradientUnits="userSpaceOnUse">
<stop stop-color="#99BAE9"/>
<stop offset="1" stop-color="#BCD0F2"/>
</linearGradient>
<linearGradient id="paint25_linear_70_14492" x1="49.4065" y1="319.608" x2="85.9327" y2="357.872" gradientUnits="userSpaceOnUse">
<stop stop-color="#B1FFBE"/>
<stop offset="0.444207" stop-color="#5CDB8E"/>
<stop offset="1" stop-color="#149654"/>
</linearGradient>
<linearGradient id="paint26_linear_70_14492" x1="48.8749" y1="331.226" x2="54.1244" y2="371.813" gradientUnits="userSpaceOnUse">
<stop stop-color="#B1FFBE"/>
<stop offset="0.444207" stop-color="#5CDB8E"/>
<stop offset="1" stop-color="#149654"/>
</linearGradient>
<linearGradient id="paint27_linear_70_14492" x1="72.1678" y1="341.397" x2="96.2172" y2="379.161" gradientUnits="userSpaceOnUse">
<stop stop-color="#B1FFBE"/>
<stop offset="0.444207" stop-color="#5CDB8E"/>
<stop offset="1" stop-color="#149654"/>
</linearGradient>
<linearGradient id="paint28_linear_70_14492" x1="67.3839" y1="130.535" x2="54.7405" y2="155.429" gradientUnits="userSpaceOnUse">
<stop stop-color="#CBDAF1"/>
<stop offset="1" stop-color="#9CB3DF"/>
</linearGradient>
<clipPath id="clip0_70_14492">
<rect width="375" height="812" fill="white"/>
</clipPath>
<clipPath id="clip1_70_14492">
<rect width="185" height="50" fill="white" transform="translate(95 625)"/>
</clipPath>
</defs>
</svg>
