<svg width="375" height="812" viewBox="0 0 375 812" fill="none" xmlns="http://www.w3.org/2000/svg">
<g clip-path="url(#clip0_10_9477)">
<rect width="375" height="812" fill="white"/>
<path d="M66.8612 495.168V501H70.2212V495.168L75.8852 484.248H72.1412L68.5652 491.904L64.9652 484.248H61.1732L66.8612 495.168ZM90.983 494.352C90.983 490.152 87.983 487.488 84.143 487.488C80.303 487.488 77.303 490.152 77.303 494.352C77.303 498.528 80.207 501.216 84.047 501.216C87.911 501.216 90.983 498.528 90.983 494.352ZM80.711 494.352C80.711 491.688 82.319 490.416 84.095 490.416C85.871 490.416 87.527 491.688 87.527 494.352C87.527 496.992 85.823 498.288 84.047 498.288C82.247 498.288 80.711 496.992 80.711 494.352ZM106.32 487.704H102.936V495.024C102.936 497.16 101.784 498.312 99.9597 498.312C98.1837 498.312 97.0077 497.16 97.0077 495.024V487.704H93.6477V495.504C93.6477 499.152 95.8797 501.168 98.9757 501.168C100.632 501.168 102.096 500.448 102.936 499.32V501H106.32V487.704ZM113.315 494.376C113.315 491.808 114.515 491.04 116.507 491.04H117.395V487.512C115.547 487.512 114.155 488.4 113.315 489.768V487.704H109.955V501H113.315V494.376ZM128.441 501H132.089L134.513 491.712L136.937 501H140.561L144.449 487.704H141.233L138.881 497.808L136.385 487.704H132.833L130.289 497.832L127.937 487.704H124.529L128.441 501ZM145.723 494.304C145.723 498.456 148.411 501.216 151.771 501.216C153.883 501.216 155.395 500.208 156.187 499.056V501H159.571V487.704H156.187V489.6C155.395 488.496 153.931 487.488 151.795 487.488C148.411 487.488 145.723 490.152 145.723 494.304ZM156.187 494.352C156.187 496.872 154.507 498.264 152.659 498.264C150.859 498.264 149.155 496.824 149.155 494.304C149.155 491.784 150.859 490.44 152.659 490.44C154.507 490.44 156.187 491.832 156.187 494.352ZM163.172 501H166.532V483.24H163.172V501ZM170.172 501H173.532V483.24H170.172V501ZM182.884 490.248C184.612 490.248 186.004 491.352 186.052 493.104H179.74C180.004 491.28 181.276 490.248 182.884 490.248ZM189.196 496.824H185.572C185.14 497.712 184.348 498.432 182.908 498.432C181.228 498.432 179.884 497.328 179.716 495.36H189.436C189.508 494.928 189.532 494.496 189.532 494.064C189.532 490.104 186.82 487.488 182.98 487.488C179.044 487.488 176.308 490.152 176.308 494.352C176.308 498.528 179.116 501.216 182.98 501.216C186.268 501.216 188.476 499.272 189.196 496.824ZM192.832 496.872C192.832 499.92 194.536 501 197.08 501H199.192V498.168H197.632C196.576 498.168 196.216 497.784 196.216 496.896V490.464H199.192V487.704H196.216V484.416H192.832V487.704H191.248V490.464H192.832V496.872ZM207.968 501H211.328V487.704H207.968V501ZM209.672 486.12C210.848 486.12 211.736 485.256 211.736 484.152C211.736 483.048 210.848 482.184 209.672 482.184C208.472 482.184 207.608 483.048 207.608 484.152C207.608 485.256 208.472 486.12 209.672 486.12ZM225.287 497.208C225.191 492.336 217.823 493.848 217.823 491.424C217.823 490.656 218.471 490.152 219.719 490.152C221.039 490.152 221.855 490.848 221.951 491.88H225.167C224.975 489.24 223.031 487.488 219.815 487.488C216.527 487.488 214.559 489.264 214.559 491.472C214.559 496.344 222.071 494.832 222.071 497.208C222.071 497.976 221.351 498.576 220.031 498.576C218.687 498.576 217.751 497.808 217.631 496.8H214.247C214.391 499.272 216.719 501.216 220.055 501.216C223.295 501.216 225.287 499.488 225.287 497.208ZM240.116 490.248C241.844 490.248 243.236 491.352 243.284 493.104H236.972C237.236 491.28 238.508 490.248 240.116 490.248ZM246.428 496.824H242.804C242.372 497.712 241.58 498.432 240.14 498.432C238.46 498.432 237.116 497.328 236.948 495.36H246.668C246.74 494.928 246.764 494.496 246.764 494.064C246.764 490.104 244.052 487.488 240.212 487.488C236.276 487.488 233.54 490.152 233.54 494.352C233.54 498.528 236.348 501.216 240.212 501.216C243.5 501.216 245.708 499.272 246.428 496.824ZM268.137 501H271.497V493.2C271.497 489.528 269.241 487.512 266.049 487.512C264.105 487.512 262.353 488.544 261.489 490.056C260.577 488.4 258.873 487.512 256.809 487.512C255.153 487.512 253.737 488.208 252.897 489.312V487.704H249.537V501H252.897V493.656C252.897 491.544 254.073 490.44 255.897 490.44C257.673 490.44 258.849 491.544 258.849 493.656V501H262.209V493.656C262.209 491.544 263.385 490.44 265.185 490.44C266.961 490.44 268.137 491.544 268.137 493.656V501ZM278.365 489.624V487.704H275.005V507.336H278.365V499.104C279.181 500.184 280.669 501.216 282.757 501.216C286.165 501.216 288.829 498.456 288.829 494.304C288.829 490.152 286.165 487.488 282.757 487.488C280.693 487.488 279.157 488.496 278.365 489.624ZM285.397 494.304C285.397 496.824 283.693 498.264 281.869 498.264C280.069 498.264 278.365 496.872 278.365 494.352C278.365 491.832 280.069 490.44 281.869 490.44C283.693 490.44 285.397 491.784 285.397 494.304ZM292.119 496.872C292.119 499.92 293.823 501 296.367 501H298.479V498.168H296.919C295.863 498.168 295.503 497.784 295.503 496.896V490.464H298.479V487.704H295.503V484.416H292.119V487.704H290.535V490.464H292.119V496.872ZM306.88 496.992L303.448 487.704H299.68L305.008 500.664L302.128 507.288H305.704L313.936 487.704H310.36L306.88 496.992Z" fill="#101828"/>
<path d="M23.6987 527.545V538H28.7237V536.89H25.0637V527.545H23.6987ZM38.2933 533.875C38.2933 531.28 36.4783 529.645 34.1383 529.645C31.8133 529.645 29.9833 531.28 29.9833 533.875C29.9833 536.485 31.7533 538.135 34.0783 538.135C36.4183 538.135 38.2933 536.485 38.2933 533.875ZM31.3783 533.875C31.3783 531.805 32.6833 530.83 34.1233 530.83C35.5333 530.83 36.8983 531.805 36.8983 533.875C36.8983 535.96 35.5033 536.935 34.0783 536.935C32.6533 536.935 31.3783 535.96 31.3783 533.875ZM48.208 533.875C48.208 531.28 46.393 529.645 44.053 529.645C41.728 529.645 39.898 531.28 39.898 533.875C39.898 536.485 41.668 538.135 43.993 538.135C46.333 538.135 48.208 536.485 48.208 533.875ZM41.293 533.875C41.293 531.805 42.598 530.83 44.038 530.83C45.448 530.83 46.813 531.805 46.813 533.875C46.813 535.96 45.418 536.935 43.993 536.935C42.568 536.935 41.293 535.96 41.293 533.875ZM50.3227 538H51.6877V534.37L54.9127 538H56.7727L52.8877 533.875L56.7577 529.78H54.8527L51.6877 533.425V526.9H50.3227V538ZM62.6815 538H64.0465V526.9H62.6815V538ZM66.6929 538H68.0579V529.78H66.6929V538ZM67.3979 528.445C67.8929 528.445 68.2979 528.04 68.2979 527.515C68.2979 526.99 67.8929 526.585 67.3979 526.585C66.8729 526.585 66.4679 526.99 66.4679 527.515C66.4679 528.04 66.8729 528.445 67.3979 528.445ZM70.7043 538H72.0693V534.37L75.2943 538H77.1543L73.2693 533.875L77.1393 529.78H75.2343L72.0693 533.425V526.9H70.7043V538ZM82.239 530.8C83.649 530.8 84.849 531.685 84.834 533.29H79.644C79.794 531.685 80.904 530.8 82.239 530.8ZM86.079 535.465H84.609C84.309 536.35 83.529 536.98 82.299 536.98C80.904 536.98 79.734 536.065 79.629 534.4H86.199C86.229 534.115 86.244 533.875 86.244 533.575C86.244 531.325 84.684 529.645 82.299 529.645C79.899 529.645 78.234 531.28 78.234 533.875C78.234 536.485 79.959 538.135 82.299 538.135C84.339 538.135 85.659 536.965 86.079 535.465ZM92.9848 535.75C92.9848 537.4 93.8098 538 95.2648 538H96.4948V536.845H95.4898C94.6498 536.845 94.3498 536.56 94.3498 535.75V530.905H96.4948V529.78H94.3498V527.71H92.9848V529.78H91.9198V530.905H92.9848V535.75ZM98.4687 538H99.8337V533.455C99.8337 531.685 100.794 530.815 102.189 530.815C103.569 530.815 104.484 531.67 104.484 533.35V538H105.834V533.155C105.834 530.8 104.379 529.63 102.549 529.63C101.394 529.63 100.374 530.095 99.8337 530.965V526.9H98.4687V538ZM111.878 530.8C113.288 530.8 114.488 531.685 114.473 533.29H109.283C109.433 531.685 110.543 530.8 111.878 530.8ZM115.718 535.465H114.248C113.948 536.35 113.168 536.98 111.938 536.98C110.543 536.98 109.373 536.065 109.268 534.4H115.838C115.868 534.115 115.883 533.875 115.883 533.575C115.883 531.325 114.323 529.645 111.938 529.645C109.538 529.645 107.873 531.28 107.873 533.875C107.873 536.485 109.598 538.135 111.938 538.135C113.978 538.135 115.298 536.965 115.718 535.465ZM119.37 533.53C119.37 531.625 120.36 531.04 121.665 531.04H122.025V529.63C120.72 529.63 119.835 530.2 119.37 531.115V529.78H118.005V538H119.37V533.53ZM127.416 530.8C128.826 530.8 130.026 531.685 130.011 533.29H124.821C124.971 531.685 126.081 530.8 127.416 530.8ZM131.256 535.465H129.786C129.486 536.35 128.706 536.98 127.476 536.98C126.081 536.98 124.911 536.065 124.806 534.4H131.376C131.406 534.115 131.421 533.875 131.421 533.575C131.421 531.325 129.861 529.645 127.476 529.645C125.076 529.645 123.411 531.28 123.411 533.875C123.411 536.485 125.136 538.135 127.476 538.135C129.516 538.135 130.836 536.965 131.256 535.465ZM137.352 533.86C137.352 536.41 139.047 538.135 141.237 538.135C142.752 538.135 143.817 537.355 144.312 536.47V538H145.692V529.78H144.312V531.28C143.832 530.425 142.782 529.645 141.252 529.645C139.047 529.645 137.352 531.295 137.352 533.86ZM144.312 533.875C144.312 535.81 143.022 536.935 141.522 536.935C140.022 536.935 138.747 535.795 138.747 533.86C138.747 531.925 140.022 530.83 141.522 530.83C143.022 530.83 144.312 531.97 144.312 533.875ZM149.683 533.53C149.683 531.625 150.673 531.04 151.978 531.04H152.338V529.63C151.033 529.63 150.148 530.2 149.683 531.115V529.78H148.318V538H149.683V533.53ZM157.729 530.8C159.139 530.8 160.339 531.685 160.324 533.29H155.134C155.284 531.685 156.394 530.8 157.729 530.8ZM161.569 535.465H160.099C159.799 536.35 159.019 536.98 157.789 536.98C156.394 536.98 155.224 536.065 155.119 534.4H161.689C161.719 534.115 161.734 533.875 161.734 533.575C161.734 531.325 160.174 529.645 157.789 529.645C155.389 529.645 153.724 531.28 153.724 533.875C153.724 536.485 155.449 538.135 157.789 538.135C159.829 538.135 161.149 536.965 161.569 535.465ZM174.19 538H175.54V533.155C175.54 530.8 174.085 529.63 172.18 529.63C171.07 529.63 170.08 530.095 169.54 530.95V529.78H168.175V538H169.54V533.455C169.54 531.685 170.5 530.815 171.895 530.815C173.275 530.815 174.19 531.67 174.19 533.35V538ZM185.89 533.875C185.89 531.28 184.075 529.645 181.735 529.645C179.41 529.645 177.58 531.28 177.58 533.875C177.58 536.485 179.35 538.135 181.675 538.135C184.015 538.135 185.89 536.485 185.89 533.875ZM178.975 533.875C178.975 531.805 180.28 530.83 181.72 530.83C183.13 530.83 184.495 531.805 184.495 533.875C184.495 535.96 183.1 536.935 181.675 536.935C180.25 536.935 178.975 535.96 178.975 533.875ZM191.813 533.875C191.813 536.485 193.478 538.135 195.818 538.135C197.858 538.135 199.193 536.995 199.613 535.36H198.143C197.843 536.395 197.033 536.98 195.818 536.98C194.318 536.98 193.208 535.915 193.208 533.875C193.208 531.865 194.318 530.8 195.818 530.8C197.033 530.8 197.858 531.43 198.143 532.42H199.613C199.193 530.695 197.858 529.645 195.818 529.645C193.478 529.645 191.813 531.295 191.813 533.875ZM203.12 533.53C203.12 531.625 204.11 531.04 205.415 531.04H205.775V529.63C204.47 529.63 203.585 530.2 203.12 531.115V529.78H201.755V538H203.12V533.53ZM211.165 530.8C212.575 530.8 213.775 531.685 213.76 533.29H208.57C208.72 531.685 209.83 530.8 211.165 530.8ZM215.005 535.465H213.535C213.235 536.35 212.455 536.98 211.225 536.98C209.83 536.98 208.66 536.065 208.555 534.4H215.125C215.155 534.115 215.17 533.875 215.17 533.575C215.17 531.325 213.61 529.645 211.225 529.645C208.825 529.645 207.16 531.28 207.16 533.875C207.16 536.485 208.885 538.135 211.225 538.135C213.265 538.135 214.585 536.965 215.005 535.465ZM216.782 533.86C216.782 536.41 218.477 538.135 220.682 538.135C222.182 538.135 223.247 537.37 223.742 536.455V538H225.122V526.9H223.742V531.25C223.172 530.305 221.987 529.645 220.697 529.645C218.477 529.645 216.782 531.295 216.782 533.86ZM223.742 533.875C223.742 535.81 222.452 536.935 220.952 536.935C219.452 536.935 218.177 535.795 218.177 533.86C218.177 531.925 219.452 530.83 220.952 530.83C222.452 530.83 223.742 531.97 223.742 533.875ZM227.749 538H229.114V529.78H227.749V538ZM228.454 528.445C228.949 528.445 229.354 528.04 229.354 527.515C229.354 526.99 228.949 526.585 228.454 526.585C227.929 526.585 227.524 526.99 227.524 527.515C227.524 528.04 227.929 528.445 228.454 528.445ZM232.06 535.75C232.06 537.4 232.885 538 234.34 538H235.57V536.845H234.565C233.725 536.845 233.425 536.56 233.425 535.75V530.905H235.57V529.78H233.425V527.71H232.06V529.78H230.995V530.905H232.06V535.75ZM243.454 535.765C243.394 532.825 238.624 533.89 238.624 531.94C238.624 531.28 239.224 530.8 240.229 530.8C241.324 530.8 241.954 531.4 242.014 532.225H243.379C243.289 530.62 242.089 529.645 240.274 529.645C238.444 529.645 237.259 530.68 237.259 531.94C237.259 535 242.119 533.935 242.119 535.765C242.119 536.44 241.519 536.98 240.439 536.98C239.284 536.98 238.579 536.38 238.504 535.585H237.094C237.184 537.085 238.534 538.135 240.454 538.135C242.269 538.135 243.454 537.115 243.454 535.765ZM250.02 538H251.385V529.78H250.02V538ZM250.725 528.445C251.22 528.445 251.625 528.04 251.625 527.515C251.625 526.99 251.22 526.585 250.725 526.585C250.2 526.585 249.795 526.99 249.795 527.515C249.795 528.04 250.2 528.445 250.725 528.445ZM260.046 538H261.396V533.155C261.396 530.8 259.941 529.63 258.036 529.63C256.926 529.63 255.936 530.095 255.396 530.95V529.78H254.031V538H255.396V533.455C255.396 531.685 256.356 530.815 257.751 530.815C259.131 530.815 260.046 531.67 260.046 533.35V538ZM271.385 536.44L268.805 529.78H267.29L270.605 537.91L268.985 541.87H270.395L275.345 529.78H273.935L271.385 536.44ZM284.837 533.875C284.837 531.28 283.022 529.645 280.682 529.645C278.357 529.645 276.527 531.28 276.527 533.875C276.527 536.485 278.297 538.135 280.622 538.135C282.962 538.135 284.837 536.485 284.837 533.875ZM277.922 533.875C277.922 531.805 279.227 530.83 280.667 530.83C282.077 530.83 283.442 531.805 283.442 533.875C283.442 535.96 282.047 536.935 280.622 536.935C279.197 536.935 277.922 535.96 277.922 533.875ZM294.242 529.78H292.877V534.295C292.877 536.065 291.932 536.935 290.522 536.935C289.142 536.935 288.227 536.08 288.227 534.415V529.78H286.877V534.595C286.877 536.95 288.362 538.12 290.252 538.12C291.347 538.12 292.352 537.64 292.877 536.785V538H294.242V529.78ZM298.232 533.53C298.232 531.625 299.222 531.04 300.527 531.04H300.887V529.63C299.582 529.63 298.697 530.2 298.232 531.115V529.78H296.867V538H298.232V533.53ZM308.707 538H310.117L312.097 531.475L314.077 538H315.487L318.052 529.78H316.702L314.842 536.695L312.847 529.78H311.452L309.412 536.68L307.522 529.78H306.127L308.707 538ZM319.216 533.86C319.216 536.41 320.911 538.135 323.101 538.135C324.616 538.135 325.681 537.355 326.176 536.47V538H327.556V529.78H326.176V531.28C325.696 530.425 324.646 529.645 323.116 529.645C320.911 529.645 319.216 531.295 319.216 533.86ZM326.176 533.875C326.176 535.81 324.886 536.935 323.386 536.935C321.886 536.935 320.611 535.795 320.611 533.86C320.611 531.925 321.886 530.83 323.386 530.83C324.886 530.83 326.176 531.97 326.176 533.875ZM330.183 538H331.548V526.9H330.183V538ZM334.194 538H335.559V526.9H334.194V538ZM341.701 530.8C343.111 530.8 344.311 531.685 344.296 533.29H339.106C339.256 531.685 340.366 530.8 341.701 530.8ZM345.541 535.465H344.071C343.771 536.35 342.991 536.98 341.761 536.98C340.366 536.98 339.196 536.065 339.091 534.4H345.661C345.691 534.115 345.706 533.875 345.706 533.575C345.706 531.325 344.146 529.645 341.761 529.645C339.361 529.645 337.696 531.28 337.696 533.875C337.696 536.485 339.421 538.135 341.761 538.135C343.801 538.135 345.121 536.965 345.541 535.465ZM348.127 535.75C348.127 537.4 348.952 538 350.407 538H351.637V536.845H350.632C349.792 536.845 349.492 536.56 349.492 535.75V530.905H351.637V529.78H349.492V527.71H348.127V529.78H347.062V530.905H348.127V535.75ZM30.6514 556.86C30.6514 559.41 32.3464 561.135 34.5364 561.135C36.0514 561.135 37.1164 560.355 37.6114 559.47V561H38.9914V552.78H37.6114V554.28C37.1314 553.425 36.0814 552.645 34.5514 552.645C32.3464 552.645 30.6514 554.295 30.6514 556.86ZM37.6114 556.875C37.6114 558.81 36.3214 559.935 34.8214 559.935C33.3214 559.935 32.0464 558.795 32.0464 556.86C32.0464 554.925 33.3214 553.83 34.8214 553.83C36.3214 553.83 37.6114 554.97 37.6114 556.875ZM41.9181 558.75C41.9181 560.4 42.7431 561 44.1981 561H45.4281V559.845H44.4231C43.5831 559.845 43.2831 559.56 43.2831 558.75V553.905H45.4281V552.78H43.2831V550.71H41.9181V552.78H40.8531V553.905H41.9181V558.75ZM52.021 558.75C52.021 560.4 52.846 561 54.301 561H55.531V559.845H54.526C53.686 559.845 53.386 559.56 53.386 558.75V553.905H55.531V552.78H53.386V550.71H52.021V552.78H50.956V553.905H52.021V558.75ZM57.5049 561H58.8699V556.455C58.8699 554.685 59.8299 553.815 61.2249 553.815C62.6049 553.815 63.5199 554.67 63.5199 556.35V561H64.8699V556.155C64.8699 553.8 63.4149 552.63 61.5849 552.63C60.4299 552.63 59.4099 553.095 58.8699 553.965V549.9H57.5049V561ZM70.9146 553.8C72.3246 553.8 73.5246 554.685 73.5096 556.29H68.3196C68.4696 554.685 69.5796 553.8 70.9146 553.8ZM74.7546 558.465H73.2846C72.9846 559.35 72.2046 559.98 70.9746 559.98C69.5796 559.98 68.4096 559.065 68.3046 557.4H74.8746C74.9046 557.115 74.9196 556.875 74.9196 556.575C74.9196 554.325 73.3596 552.645 70.9746 552.645C68.5746 552.645 66.9096 554.28 66.9096 556.875C66.9096 559.485 68.6346 561.135 70.9746 561.135C73.0146 561.135 74.3346 559.965 74.7546 558.465ZM93.2254 561H94.5754V556.155C94.5754 553.8 93.1204 552.63 91.2454 552.63C89.9854 552.63 88.8154 553.275 88.3354 554.46C87.7954 553.23 86.6704 552.63 85.3204 552.63C84.2404 552.63 83.2654 553.095 82.7254 553.965V552.78H81.3604V561H82.7254V556.47C82.7254 554.7 83.6704 553.815 85.0504 553.815C86.4004 553.815 87.3004 554.67 87.3004 556.35V561H88.6504V556.47C88.6504 554.7 89.5954 553.815 90.9754 553.815C92.3254 553.815 93.2254 554.67 93.2254 556.35V561ZM104.935 556.875C104.935 554.28 103.12 552.645 100.78 552.645C98.4545 552.645 96.6245 554.28 96.6245 556.875C96.6245 559.485 98.3945 561.135 100.72 561.135C103.06 561.135 104.935 559.485 104.935 556.875ZM98.0195 556.875C98.0195 554.805 99.3245 553.83 100.765 553.83C102.175 553.83 103.54 554.805 103.54 556.875C103.54 558.96 102.145 559.935 100.72 559.935C99.2945 559.935 98.0195 558.96 98.0195 556.875ZM118.914 561H120.264V556.155C120.264 553.8 118.809 552.63 116.934 552.63C115.674 552.63 114.504 553.275 114.024 554.46C113.484 553.23 112.359 552.63 111.009 552.63C109.929 552.63 108.954 553.095 108.414 553.965V552.78H107.049V561H108.414V556.47C108.414 554.7 109.359 553.815 110.739 553.815C112.089 553.815 112.989 554.67 112.989 556.35V561H114.339V556.47C114.339 554.7 115.284 553.815 116.664 553.815C118.014 553.815 118.914 554.67 118.914 556.35V561ZM126.318 553.8C127.728 553.8 128.928 554.685 128.913 556.29H123.723C123.873 554.685 124.983 553.8 126.318 553.8ZM130.158 558.465H128.688C128.388 559.35 127.608 559.98 126.378 559.98C124.983 559.98 123.813 559.065 123.708 557.4H130.278C130.308 557.115 130.323 556.875 130.323 556.575C130.323 554.325 128.763 552.645 126.378 552.645C123.978 552.645 122.313 554.28 122.313 556.875C122.313 559.485 124.038 561.135 126.378 561.135C128.418 561.135 129.738 559.965 130.158 558.465ZM138.46 561H139.81V556.155C139.81 553.8 138.355 552.63 136.45 552.63C135.34 552.63 134.35 553.095 133.81 553.95V552.78H132.445V561H133.81V556.455C133.81 554.685 134.77 553.815 136.165 553.815C137.545 553.815 138.46 554.67 138.46 556.35V561ZM142.66 558.75C142.66 560.4 143.485 561 144.94 561H146.17V559.845H145.165C144.325 559.845 144.025 559.56 144.025 558.75V553.905H146.17V552.78H144.025V550.71H142.66V552.78H141.595V553.905H142.66V558.75ZM149.479 560.16C149.479 559.635 149.074 559.23 148.579 559.23C148.054 559.23 147.649 559.635 147.649 560.16C147.649 560.685 148.054 561.09 148.579 561.09C149.074 561.09 149.479 560.685 149.479 560.16ZM161.602 561H163.387L158.602 555.78L163.342 550.545H161.617L157.297 555.39V550.545H155.932V561H157.297V556.23L161.602 561ZM165.232 561H166.597V552.78H165.232V561ZM165.937 551.445C166.432 551.445 166.837 551.04 166.837 550.515C166.837 549.99 166.432 549.585 165.937 549.585C165.412 549.585 165.007 549.99 165.007 550.515C165.007 551.04 165.412 551.445 165.937 551.445ZM175.258 561H176.608V556.155C176.608 553.8 175.153 552.63 173.248 552.63C172.138 552.63 171.148 553.095 170.608 553.95V552.78H169.243V561H170.608V556.455C170.608 554.685 171.568 553.815 172.963 553.815C174.343 553.815 175.258 554.67 175.258 556.35V561ZM178.648 556.86C178.648 559.41 180.343 561.135 182.548 561.135C184.048 561.135 185.113 560.37 185.608 559.455V561H186.988V549.9H185.608V554.25C185.038 553.305 183.853 552.645 182.563 552.645C180.343 552.645 178.648 554.295 178.648 556.86ZM185.608 556.875C185.608 558.81 184.318 559.935 182.818 559.935C181.318 559.935 180.043 558.795 180.043 556.86C180.043 554.925 181.318 553.83 182.818 553.83C184.318 553.83 185.608 554.97 185.608 556.875ZM189.614 561H190.979V549.9H189.614V561ZM196.746 559.44L194.166 552.78H192.651L195.966 560.91L194.346 564.87H195.756L200.706 552.78H199.296L196.746 559.44ZM208.082 554.295V552.78H206.717V564.9H208.082V559.485C208.592 560.325 209.657 561.135 211.157 561.135C213.362 561.135 215.057 559.41 215.057 556.86C215.057 554.295 213.362 552.645 211.157 552.645C209.657 552.645 208.577 553.425 208.082 554.295ZM213.662 556.86C213.662 558.795 212.387 559.935 210.872 559.935C209.387 559.935 208.082 558.81 208.082 556.875C208.082 554.97 209.387 553.83 210.872 553.83C212.387 553.83 213.662 554.925 213.662 556.86ZM224.464 552.78H223.099V557.295C223.099 559.065 222.154 559.935 220.744 559.935C219.364 559.935 218.449 559.08 218.449 557.415V552.78H217.099V557.595C217.099 559.95 218.584 561.12 220.474 561.12C221.569 561.12 222.574 560.64 223.099 559.785V561H224.464V552.78ZM228.453 556.53C228.453 554.625 229.443 554.04 230.748 554.04H231.108V552.63C229.803 552.63 228.918 553.2 228.453 554.115V552.78H227.088V561H228.453V556.53ZM232.494 556.875C232.494 559.485 234.159 561.135 236.499 561.135C238.539 561.135 239.874 559.995 240.294 558.36H238.824C238.524 559.395 237.714 559.98 236.499 559.98C234.999 559.98 233.889 558.915 233.889 556.875C233.889 554.865 234.999 553.8 236.499 553.8C237.714 553.8 238.539 554.43 238.824 555.42H240.294C239.874 553.695 238.539 552.645 236.499 552.645C234.159 552.645 232.494 554.295 232.494 556.875ZM242.436 561H243.801V556.455C243.801 554.685 244.761 553.815 246.156 553.815C247.536 553.815 248.451 554.67 248.451 556.35V561H249.801V556.155C249.801 553.8 248.346 552.63 246.516 552.63C245.361 552.63 244.341 553.095 243.801 553.965V549.9H242.436V561ZM251.84 556.86C251.84 559.41 253.535 561.135 255.725 561.135C257.24 561.135 258.305 560.355 258.8 559.47V561H260.18V552.78H258.8V554.28C258.32 553.425 257.27 552.645 255.74 552.645C253.535 552.645 251.84 554.295 251.84 556.86ZM258.8 556.875C258.8 558.81 257.51 559.935 256.01 559.935C254.51 559.935 253.235 558.795 253.235 556.86C253.235 554.925 254.51 553.83 256.01 553.83C257.51 553.83 258.8 554.97 258.8 556.875ZM268.717 558.765C268.657 555.825 263.887 556.89 263.887 554.94C263.887 554.28 264.487 553.8 265.492 553.8C266.587 553.8 267.217 554.4 267.277 555.225H268.642C268.552 553.62 267.352 552.645 265.537 552.645C263.707 552.645 262.522 553.68 262.522 554.94C262.522 558 267.382 556.935 267.382 558.765C267.382 559.44 266.782 559.98 265.702 559.98C264.547 559.98 263.842 559.38 263.767 558.585H262.357C262.447 560.085 263.797 561.135 265.717 561.135C267.532 561.135 268.717 560.115 268.717 558.765ZM274.459 553.8C275.869 553.8 277.069 554.685 277.054 556.29H271.864C272.014 554.685 273.124 553.8 274.459 553.8ZM278.299 558.465H276.829C276.529 559.35 275.749 559.98 274.519 559.98C273.124 559.98 271.954 559.065 271.849 557.4H278.419C278.449 557.115 278.464 556.875 278.464 556.575C278.464 554.325 276.904 552.645 274.519 552.645C272.119 552.645 270.454 554.28 270.454 556.875C270.454 559.485 272.179 561.135 274.519 561.135C276.559 561.135 277.879 559.965 278.299 558.465ZM296.77 561H298.12V556.155C298.12 553.8 296.665 552.63 294.79 552.63C293.53 552.63 292.36 553.275 291.88 554.46C291.34 553.23 290.215 552.63 288.865 552.63C287.785 552.63 286.81 553.095 286.27 553.965V552.78H284.905V561H286.27V556.47C286.27 554.7 287.215 553.815 288.595 553.815C289.945 553.815 290.845 554.67 290.845 556.35V561H292.195V556.47C292.195 554.7 293.14 553.815 294.52 553.815C295.87 553.815 296.77 554.67 296.77 556.35V561ZM308.479 556.875C308.479 554.28 306.664 552.645 304.324 552.645C301.999 552.645 300.169 554.28 300.169 556.875C300.169 559.485 301.939 561.135 304.264 561.135C306.604 561.135 308.479 559.485 308.479 556.875ZM301.564 556.875C301.564 554.805 302.869 553.83 304.309 553.83C305.719 553.83 307.084 554.805 307.084 556.875C307.084 558.96 305.689 559.935 304.264 559.935C302.839 559.935 301.564 558.96 301.564 556.875ZM311.958 556.53C311.958 554.625 312.948 554.04 314.253 554.04H314.613V552.63C313.308 552.63 312.423 553.2 311.958 554.115V552.78H310.593V561H311.958V556.53ZM320.004 553.8C321.414 553.8 322.614 554.685 322.599 556.29H317.409C317.559 554.685 318.669 553.8 320.004 553.8ZM323.844 558.465H322.374C322.074 559.35 321.294 559.98 320.064 559.98C318.669 559.98 317.499 559.065 317.394 557.4H323.964C323.994 557.115 324.009 556.875 324.009 556.575C324.009 554.325 322.449 552.645 320.064 552.645C317.664 552.645 315.999 554.28 315.999 556.875C315.999 559.485 317.724 561.135 320.064 561.135C322.104 561.135 323.424 559.965 323.844 558.465ZM330.75 558.75C330.75 560.4 331.575 561 333.03 561H334.26V559.845H333.255C332.415 559.845 332.115 559.56 332.115 558.75V553.905H334.26V552.78H332.115V550.71H330.75V552.78H329.685V553.905H330.75V558.75ZM344.034 556.875C344.034 554.28 342.219 552.645 339.879 552.645C337.554 552.645 335.724 554.28 335.724 556.875C335.724 559.485 337.494 561.135 339.819 561.135C342.159 561.135 344.034 559.485 344.034 556.875ZM337.119 556.875C337.119 554.805 338.424 553.83 339.864 553.83C341.274 553.83 342.639 554.805 342.639 556.875C342.639 558.96 341.244 559.935 339.819 559.935C338.394 559.935 337.119 558.96 337.119 556.875ZM154.051 579.875C154.051 582.485 155.716 584.135 158.056 584.135C160.096 584.135 161.431 582.995 161.851 581.36H160.381C160.081 582.395 159.271 582.98 158.056 582.98C156.556 582.98 155.446 581.915 155.446 579.875C155.446 577.865 156.556 576.8 158.056 576.8C159.271 576.8 160.096 577.43 160.381 578.42H161.851C161.431 576.695 160.096 575.645 158.056 575.645C155.716 575.645 154.051 577.295 154.051 579.875ZM171.793 579.875C171.793 577.28 169.978 575.645 167.638 575.645C165.313 575.645 163.483 577.28 163.483 579.875C163.483 582.485 165.253 584.135 167.578 584.135C169.918 584.135 171.793 582.485 171.793 579.875ZM164.878 579.875C164.878 577.805 166.183 576.83 167.623 576.83C169.033 576.83 170.398 577.805 170.398 579.875C170.398 581.96 169.003 582.935 167.578 582.935C166.153 582.935 164.878 581.96 164.878 579.875ZM179.922 584H181.272V579.155C181.272 576.8 179.817 575.63 177.912 575.63C176.802 575.63 175.812 576.095 175.272 576.95V575.78H173.907V584H175.272V579.455C175.272 577.685 176.232 576.815 177.627 576.815C179.007 576.815 179.922 577.67 179.922 579.35V584ZM184.122 581.75C184.122 583.4 184.947 584 186.402 584H187.632V582.845H186.627C185.787 582.845 185.487 582.56 185.487 581.75V576.905H187.632V575.78H185.487V573.71H184.122V575.78H183.057V576.905H184.122V581.75ZM189.606 584H190.971V575.78H189.606V584ZM190.311 574.445C190.806 574.445 191.211 574.04 191.211 573.515C191.211 572.99 190.806 572.585 190.311 572.585C189.786 572.585 189.381 572.99 189.381 573.515C189.381 574.04 189.786 574.445 190.311 574.445ZM199.632 584H200.982V579.155C200.982 576.8 199.527 575.63 197.622 575.63C196.512 575.63 195.522 576.095 194.982 576.95V575.78H193.617V584H194.982V579.455C194.982 577.685 195.942 576.815 197.337 576.815C198.717 576.815 199.632 577.67 199.632 579.35V584ZM210.822 575.78H209.457V580.295C209.457 582.065 208.512 582.935 207.102 582.935C205.722 582.935 204.807 582.08 204.807 580.415V575.78H203.457V580.595C203.457 582.95 204.942 584.12 206.832 584.12C207.927 584.12 208.932 583.64 209.457 582.785V584H210.822V575.78ZM216.942 576.8C218.352 576.8 219.552 577.685 219.537 579.29H214.347C214.497 577.685 215.607 576.8 216.942 576.8ZM220.782 581.465H219.312C219.012 582.35 218.232 582.98 217.002 582.98C215.607 582.98 214.437 582.065 214.332 580.4H220.902C220.932 580.115 220.947 579.875 220.947 579.575C220.947 577.325 219.387 575.645 217.002 575.645C214.602 575.645 212.937 577.28 212.937 579.875C212.937 582.485 214.662 584.135 217.002 584.135C219.042 584.135 220.362 582.965 220.782 581.465Z" fill="#667085"/>
<path opacity="0.35" d="M338.667 17.8334H355.333C356.53 17.8334 357.5 18.8037 357.5 20.0004V26.0004C357.5 27.1968 356.53 28.1664 355.333 28.1664H338.667C337.47 28.1664 336.5 27.1968 336.5 26.0004V20.0004L336.511 19.7787C336.622 18.686 337.545 17.8334 338.667 17.8334Z" stroke="black"/>
<path opacity="0.4" d="M359 21V25C359.805 24.6613 360.328 23.8732 360.328 23C360.328 22.1269 359.805 21.3388 359 21Z" fill="black"/>
<path d="M338 20.6667C338 19.9303 338.597 19.3334 339.333 19.3334H354.667C355.403 19.3334 356 19.9303 356 20.6667V25.3334C356 26.0698 355.403 26.6667 354.667 26.6667H339.333C338.597 26.6667 338 26.0698 338 25.3334V20.6667Z" fill="black"/>
<path fill-rule="evenodd" clip-rule="evenodd" d="M323.331 19.608C325.547 19.6081 327.678 20.4596 329.284 21.9863C329.405 22.1042 329.598 22.1027 329.717 21.983L330.873 20.8163C330.934 20.7556 330.967 20.6734 330.967 20.5878C330.966 20.5022 330.932 20.4204 330.871 20.3603C326.656 16.3208 320.006 16.3208 315.791 20.3603C315.73 20.4203 315.695 20.5021 315.694 20.5877C315.694 20.6733 315.727 20.7556 315.788 20.8163L316.944 21.983C317.063 22.1029 317.256 22.1044 317.377 21.9863C318.983 20.4595 321.115 19.608 323.331 19.608ZM323.331 23.4037C324.548 23.4036 325.722 23.8561 326.625 24.6733C326.747 24.7893 326.939 24.7868 327.058 24.6677L328.213 23.501C328.274 23.4398 328.307 23.3568 328.307 23.2705C328.306 23.1843 328.27 23.102 328.208 23.042C325.46 20.4856 321.204 20.4856 318.456 23.042C318.394 23.102 318.358 23.1843 318.358 23.2706C318.357 23.3569 318.391 23.4399 318.452 23.501L319.606 24.6677C319.725 24.7868 319.917 24.7893 320.039 24.6733C320.941 23.8567 322.114 23.4042 323.331 23.4037ZM325.644 25.9575C325.646 26.044 325.612 26.1274 325.55 26.188L323.553 28.2037C323.494 28.2629 323.414 28.2963 323.331 28.2963C323.248 28.2963 323.168 28.2629 323.109 28.2037L321.112 26.188C321.05 26.1274 321.016 26.0439 321.018 25.9574C321.02 25.8709 321.057 25.789 321.121 25.731C322.397 24.6521 324.265 24.6521 325.541 25.731C325.605 25.7891 325.642 25.871 325.644 25.9575Z" fill="black"/>
<path fill-rule="evenodd" clip-rule="evenodd" d="M309.667 17.6666H308.667C308.115 17.6666 307.667 18.1143 307.667 18.6666V27.3333C307.667 27.8856 308.115 28.3333 308.667 28.3333H309.667C310.219 28.3333 310.667 27.8856 310.667 27.3333V18.6666C310.667 18.1143 310.219 17.6666 309.667 17.6666ZM304 20H305C305.553 20 306 20.4477 306 21V27.3333C306 27.8856 305.553 28.3333 305 28.3333H304C303.448 28.3333 303 27.8856 303 27.3333V21C303 20.4477 303.448 20 304 20ZM300.334 22.3333H299.334C298.781 22.3333 298.334 22.781 298.334 23.3333V27.3333C298.334 27.8856 298.781 28.3333 299.334 28.3333H300.334C300.886 28.3333 301.334 27.8856 301.334 27.3333V23.3333C301.334 22.781 300.886 22.3333 300.334 22.3333ZM295.667 24.3333H294.667C294.115 24.3333 293.667 24.781 293.667 25.3333V27.3333C293.667 27.8856 294.115 28.3333 294.667 28.3333H295.667C296.219 28.3333 296.667 27.8856 296.667 27.3333V25.3333C296.667 24.781 296.219 24.3333 295.667 24.3333Z" fill="black"/>
<path d="M37.3203 28.2563C40.0083 28.2563 41.605 26.1543 41.605 22.5947C41.605 21.2544 41.3486 20.1265 40.8579 19.2549C40.1475 17.8999 38.9243 17.1675 37.3789 17.1675C35.0791 17.1675 33.4531 18.7129 33.4531 20.8809C33.4531 22.917 34.918 24.3965 36.9321 24.3965C38.1699 24.3965 39.1733 23.8179 39.6714 22.8145H39.6934C39.6934 22.8145 39.7227 22.8145 39.73 22.8145C39.7446 22.8145 39.7959 22.8145 39.7959 22.8145C39.7959 25.2314 38.8804 26.6743 37.335 26.6743C36.4268 26.6743 35.7236 26.1763 35.4819 25.3779H33.5996C33.9146 27.1138 35.3867 28.2563 37.3203 28.2563ZM37.3862 22.895C36.1704 22.895 35.3062 22.0308 35.3062 20.8223C35.3062 19.6431 36.2144 18.7422 37.3936 18.7422C38.5728 18.7422 39.481 19.6577 39.481 20.8516C39.481 22.0308 38.5947 22.895 37.3862 22.895Z" fill="black"/>
<path d="M44.6961 28.1538C45.3919 28.1538 45.868 27.6558 45.868 26.9966C45.868 26.3301 45.3919 25.8394 44.6961 25.8394C44.0076 25.8394 43.5242 26.3301 43.5242 26.9966C43.5242 27.6558 44.0076 28.1538 44.6961 28.1538ZM44.6961 22.6606C45.3919 22.6606 45.868 22.1699 45.868 21.5107C45.868 20.8442 45.3919 20.3535 44.6961 20.3535C44.0076 20.3535 43.5242 20.8442 43.5242 21.5107C43.5242 22.1699 44.0076 22.6606 44.6961 22.6606Z" fill="black"/>
<path d="M52.7237 28H54.5328V26.0298H55.961V24.4331H54.5328V17.4312H51.8668C49.9991 20.2437 48.5123 22.5947 47.5602 24.3452V26.0298H52.7237V28ZM49.3106 24.3672C50.5411 22.1992 51.6397 20.4634 52.6505 18.9692H52.753V24.4771H49.3106V24.3672Z" fill="black"/>
<path d="M59.9896 28H61.8793V17.4312H59.997L57.2357 19.3647V21.1812L59.8651 19.3354H59.9896V28Z" fill="black"/>
<rect x="121" y="799" width="134" height="5" rx="2.5" fill="black"/>
<path fill-rule="evenodd" clip-rule="evenodd" d="M245 413C245 415.209 216.571 417 181.501 417C146.431 417 118 415.209 118 413C118 410.791 146.431 409 181.501 409C216.571 409 245 410.791 245 413Z" fill="#DCDCE2"/>
<path d="M173.479 156C138.839 158.932 126.107 188.253 136.537 205.344C143.897 217.403 156.368 233.701 179.614 229.791C202.86 225.881 204.819 204.368 192.576 201.441C180.334 198.516 136.719 212.164 141.648 243.693C145.206 266.443 176.047 273 176.047 273" stroke="#DCDCE2" stroke-width="2" stroke-dasharray="7"/>
<path fill-rule="evenodd" clip-rule="evenodd" d="M193.501 138C193.501 138 198.464 125.034 198.988 119.99C199.263 117.354 194.895 110.015 189.783 116.803C184.671 123.591 187.004 131.914 193.501 138Z" fill="#DCDCE2"/>
<path fill-rule="evenodd" clip-rule="evenodd" d="M175.887 123.879C170.072 121.912 167.44 123.445 166.318 126.506C165.196 129.567 166.763 135.394 175.533 136.722C184.305 138.051 193 138 193 138C193 138 181.702 125.845 175.887 123.879Z" fill="#DCDCE2"/>
<path fill-rule="evenodd" clip-rule="evenodd" d="M192.516 140.569C192.648 140.027 192.823 139.508 193.017 139C191.944 139.17 190.851 139.408 189.752 139.73C188.559 140.079 187.446 140.537 186.399 141.061C185.945 141.92 185.577 142.837 185.338 143.822C183.864 149.886 187.343 155.999 193.188 158C193.821 157.875 194.457 157.729 195.094 157.543C196.874 157.022 198.516 156.332 200 155.532C194.292 153.028 191.007 146.778 192.516 140.569Z" fill="#DCDCE2"/>
<path fill-rule="evenodd" clip-rule="evenodd" d="M184.171 143.732C184.311 143.133 184.501 142.56 184.711 142C179.654 145.239 176.822 150.267 177.289 153.199C174.058 154.588 172 155.758 172 155.758C172 155.758 174.438 155.572 177.99 154.889C179.893 157.67 185.168 159.532 191 158.864C185.717 156.132 182.735 149.914 184.171 143.732Z" fill="#DCDCE2"/>
<path fill-rule="evenodd" clip-rule="evenodd" d="M200.759 146.071C199.51 145.77 198.735 144.509 199.036 143.247C199.336 141.993 200.599 141.217 201.848 141.518C203.103 141.821 203.87 143.086 203.571 144.34C203.27 145.602 202.016 146.373 200.759 146.071ZM194.92 139.128C194.671 139.707 194.46 140.317 194.309 140.949C192.983 146.491 196.045 152.066 201.238 154C205.571 151.292 208.004 147.459 207.017 144.13C205.919 140.396 200.873 138.468 194.92 139.128Z" fill="#DCDCE2"/>
<path fill-rule="evenodd" clip-rule="evenodd" d="M121.755 373H246.283C249.44 373 252 370.433 252 367.269V283.745C252 280.572 249.434 278 246.269 278H118.733C117.223 278 116 279.226 116 280.74V367.231C116 370.417 118.576 373 121.755 373Z" fill="#F1F2F7"/>
<path fill-rule="evenodd" clip-rule="evenodd" d="M121.678 372H136.789C136.905 372 137 371.905 137 371.789V266.211C137 266.095 136.905 266 136.789 266H121.678C118.541 266 116 268.534 116 271.661V366.339C116 369.465 118.541 372 121.678 372Z" fill="#BEC0D6"/>
<path fill-rule="evenodd" clip-rule="evenodd" d="M220.688 337H259.79C259.905 337 260 336.904 260 336.786V313.214C260 313.096 259.905 313 259.79 313H220.688C217.547 313 215 315.578 215 318.757V331.243C215 334.423 217.547 337 220.688 337Z" fill="url(#paint0_linear_10_9477)"/>
<path fill-rule="evenodd" clip-rule="evenodd" d="M229.294 266H121.815V266.014C118.593 266.092 116 268.735 116 272.001C116 275.266 118.593 277.909 121.815 277.987V278H235.788C235.905 278 236 277.905 236 277.787V272.756C236 269.024 232.997 266 229.294 266Z" fill="#D8DBEA"/>
<path fill-rule="evenodd" clip-rule="evenodd" d="M234 325C234 327.762 231.762 330 229 330C226.238 330 224 327.762 224 325C224 322.238 226.238 320 229 320C231.762 320 234 322.238 234 325Z" fill="#FEFEFF"/>
<path d="M29 300V303" stroke="#D2D8DF" stroke-width="2.921" stroke-linecap="round"/>
<path d="M23 303L25 305" stroke="#D2D8DF" stroke-width="2.921" stroke-linecap="round"/>
<path d="M20 309H23" stroke="#D2D8DF" stroke-width="2.921" stroke-linecap="round"/>
<path d="M23 315L25 313" stroke="#D2D8DF" stroke-width="2.921" stroke-linecap="round"/>
<path d="M29 318V315" stroke="#D2D8DF" stroke-width="2.921" stroke-linecap="round"/>
<path d="M35 315L33 313" stroke="#D2D8DF" stroke-width="2.921" stroke-linecap="round"/>
<path d="M38 309H35" stroke="#D2D8DF" stroke-width="2.921" stroke-linecap="round"/>
<path d="M35 303L33 305" stroke="#D2D8DF" stroke-width="2.921" stroke-linecap="round"/>
<path d="M183 177V179" stroke="#D2D8DF" stroke-width="2.921" stroke-linecap="round"/>
<path d="M178 182H180" stroke="#D2D8DF" stroke-width="2.921" stroke-linecap="round"/>
<path d="M183 188V186" stroke="#D2D8DF" stroke-width="2.921" stroke-linecap="round"/>
<path d="M189 183H187" stroke="#D2D8DF" stroke-width="2.921" stroke-linecap="round"/>
<path d="M73 256V259" stroke="#D2D8DF" stroke-width="2.921" stroke-linecap="round"/>
<path d="M64 265H67" stroke="#D2D8DF" stroke-width="2.921" stroke-linecap="round"/>
<path d="M72 273V270" stroke="#D2D8DF" stroke-width="2.921" stroke-linecap="round"/>
<path d="M81 265H78" stroke="#D2D8DF" stroke-width="2.921" stroke-linecap="round"/>
<path d="M277 361C279.209 361 281 362.791 281 365C281 367.209 279.209 369 277 369C274.791 369 273 367.209 273 365" stroke="#D2D8DF" stroke-width="2.921" stroke-linecap="round"/>
<path d="M295.933 415.54C296.443 419.111 293.975 422.421 290.422 422.933C286.87 423.445 283.576 420.965 283.067 417.394C282.557 413.822 285.025 410.512 288.578 410" stroke="#D2D8DF" stroke-width="2.921" stroke-linecap="round"/>
<path fill-rule="evenodd" clip-rule="evenodd" d="M296 322.999C298.425 322.233 302.14 319.231 303 316C303.78 318.856 307.049 322.233 310 322.489C306.679 323.681 303.504 327.22 303 330C302.657 327.166 298.266 323.412 296 322.999Z" fill="#EBECEF"/>
<path fill-rule="evenodd" clip-rule="evenodd" d="M45 359.499C46.2127 359.117 48.0702 357.615 48.5005 356C48.8902 357.427 50.5242 359.117 52 359.245C50.3393 359.84 48.7517 361.61 48.5005 363C48.3284 361.584 46.1335 359.706 45 359.499Z" fill="#EBECEF"/>
<path fill-rule="evenodd" clip-rule="evenodd" d="M67 227C67 228.658 65.6566 230 64 230C62.3425 230 61 228.658 61 227C61 225.342 62.3425 224 64 224C65.6566 224 67 225.342 67 227Z" fill="#D1D9E0"/>
<path fill-rule="evenodd" clip-rule="evenodd" d="M355 221C355 223.21 353.21 225 351 225C348.79 225 347 223.21 347 221C347 218.79 348.79 217 351 217C353.21 217 355 218.79 355 221Z" fill="#EBECEF"/>
<path fill-rule="evenodd" clip-rule="evenodd" d="M125 206C125 207.658 123.657 209 122 209C120.342 209 119 207.658 119 206C119 204.342 120.342 203 122 203C123.657 203 125 204.342 125 206Z" stroke="#D2D8DF" stroke-width="2.921" stroke-linecap="round"/>
<path fill-rule="evenodd" clip-rule="evenodd" d="M78.422 395.738C76.3577 396.523 74.0482 395.486 73.2629 393.422C72.4765 391.358 73.5142 389.048 75.5784 388.263C77.6427 387.477 79.9522 388.514 80.7376 390.578C81.5229 392.643 80.4862 394.952 78.422 395.738Z" stroke="#D2D8DF" stroke-width="2.921" stroke-linecap="round"/>
</g>
<defs>
<linearGradient id="paint0_linear_10_9477" x1="237.5" y1="301" x2="217.569" y2="338.37" gradientUnits="userSpaceOnUse">
<stop stop-color="#FF8960"/>
<stop offset="1" stop-color="#FF62A5"/>
</linearGradient>
<clipPath id="clip0_10_9477">
<rect width="375" height="812" fill="white"/>
</clipPath>
</defs>
</svg>
