<svg width="375" height="812" viewBox="0 0 375 812" fill="none" xmlns="http://www.w3.org/2000/svg">
<g clip-path="url(#clip0_70_12637)">
<rect width="375" height="812" fill="white"/>
<path opacity="0.3" fill-rule="evenodd" clip-rule="evenodd" d="M166.349 -92.4424L558 -88V406.727L178.349 245.304L166.349 221.266V-92.4424Z" fill="url(#paint0_linear_70_12637)"/>
<path opacity="0.3" fill-rule="evenodd" clip-rule="evenodd" d="M-113 -98H166V245.247L179 266L-79.1876 337.5L-113 -98Z" fill="url(#paint1_linear_70_12637)"/>
<path fill-rule="evenodd" clip-rule="evenodd" d="M79 202C79 200.895 79.8954 200 81 200L283.966 200V287.228C283.966 288.026 284.44 288.748 285.173 289.064L406.15 341.297C406.882 341.613 407.357 342.335 407.357 343.133V389.203H272.377L80.1192 294.899C79.4342 294.563 79 293.866 79 293.103V202Z" fill="url(#paint2_linear_70_12637)"/>
<path fill-rule="evenodd" clip-rule="evenodd" d="M166.358 153L78 183.106V293.106L165.358 263L166.358 153Z" fill="url(#paint3_linear_70_12637)"/>
<path fill-rule="evenodd" clip-rule="evenodd" d="M166 153L283.176 180.106V290.106L166 263V153Z" fill="url(#paint4_linear_70_12637)"/>
<g filter="url(#filter0_d_70_12637)">
<path fill-rule="evenodd" clip-rule="evenodd" d="M162.371 158.291C162.371 158.291 188.167 169.072 188.271 177.597C188.364 185.222 168.881 195.15 162.767 190.592C155.931 185.497 162.371 158.291 162.371 158.291Z" fill="url(#paint5_linear_70_12637)"/>
<path fill-rule="evenodd" clip-rule="evenodd" d="M166.114 165.637C166.114 165.637 179.431 171.203 179.485 175.604C179.533 179.541 169.475 184.666 166.318 182.313C162.789 179.682 166.114 165.637 166.114 165.637Z" fill="#FBA581"/>
<path fill-rule="evenodd" clip-rule="evenodd" d="M226.386 158.291C226.386 158.291 200.591 169.072 200.487 177.597C200.393 185.222 219.877 195.15 225.991 190.592C232.827 185.497 226.386 158.291 226.386 158.291Z" fill="url(#paint6_linear_70_12637)"/>
<path fill-rule="evenodd" clip-rule="evenodd" d="M222.882 165.637C222.882 165.637 209.565 171.203 209.512 175.604C209.463 179.541 219.522 184.666 222.678 182.313C226.207 179.682 222.882 165.637 222.882 165.637Z" fill="#FBA581"/>
<ellipse cx="194.771" cy="202.582" rx="42.6666" ry="30.3877" fill="url(#paint7_linear_70_12637)"/>
<path d="M182.474 182.64C182.584 181.594 182.886 178.714 182.886 178.714" stroke="white" stroke-width="1.46625" stroke-linecap="round"/>
<path d="M177.956 182.975C177.842 182.255 177.327 179.004 177.327 179.004" stroke="white" stroke-width="1.46625" stroke-linecap="round"/>
<path d="M206.417 182.66C206.307 181.614 206.005 178.734 206.005 178.734" stroke="white" stroke-width="1.46625" stroke-linecap="round"/>
<path d="M210.935 182.994C211.049 182.274 211.564 179.023 211.564 179.023" stroke="white" stroke-width="1.46625" stroke-linecap="round"/>
<path fill-rule="evenodd" clip-rule="evenodd" d="M183.811 174.148C183.811 174.148 188.323 170.315 195.21 167.898C193.305 169.752 191.448 170.894 191.307 174.716C191.166 178.537 183.811 174.148 183.811 174.148Z" fill="#FFD29F"/>
<path fill-rule="evenodd" clip-rule="evenodd" d="M189.811 172.167C189.811 172.167 195.325 170.012 202.623 169.969C200.219 171.101 198.091 171.577 196.714 175.144C195.336 178.712 189.811 172.167 189.811 172.167Z" fill="#FFD29F"/>
<path fill-rule="evenodd" clip-rule="evenodd" d="M162.027 188.428C162.027 188.428 156.934 191.446 152.407 197.171C154.78 195.973 156.464 194.59 160.124 195.7C163.783 196.811 162.027 188.428 162.027 188.428Z" fill="#FFC083"/>
<path fill-rule="evenodd" clip-rule="evenodd" d="M159.679 193.861C159.679 193.861 154.585 196.88 150.058 202.604C152.431 201.406 154.116 200.023 157.775 201.134C161.434 202.244 159.679 193.861 159.679 193.861Z" fill="#FFC083"/>
<path fill-rule="evenodd" clip-rule="evenodd" d="M160.764 197.407C160.764 197.407 151.046 201.125 149.678 210.5C152.302 206.89 154.153 205.478 159.909 205.768C165.664 206.058 160.764 197.407 160.764 197.407Z" fill="#FFC083"/>
<path fill-rule="evenodd" clip-rule="evenodd" d="M153.566 205.862C153.566 205.862 150.312 210.808 148.752 217.938C150.36 215.821 151.267 213.839 155.043 213.233C158.819 212.627 153.566 205.862 153.566 205.862Z" fill="#FFC083"/>
<path fill-rule="evenodd" clip-rule="evenodd" d="M153.837 211.776C153.837 211.776 150.583 216.721 149.023 223.851C150.631 221.734 151.538 219.752 155.314 219.146C159.09 218.54 153.837 211.776 153.837 211.776Z" fill="#FFC083"/>
<path fill-rule="evenodd" clip-rule="evenodd" d="M156.367 214.486C156.367 214.486 149.262 222.089 152.142 231.114C152.918 226.719 153.964 224.639 159.264 222.376C164.564 220.114 156.367 214.486 156.367 214.486Z" fill="#FFC083"/>
<path fill-rule="evenodd" clip-rule="evenodd" d="M166.327 208.617C166.327 208.617 165.673 214.501 167.52 221.562C167.991 218.946 167.901 216.768 170.99 214.514C174.079 212.26 166.327 208.617 166.327 208.617Z" fill="#FFC083"/>
<path fill-rule="evenodd" clip-rule="evenodd" d="M169.253 213.763C169.253 213.763 168.599 219.647 170.446 226.708C170.917 224.092 170.826 221.914 173.916 219.66C177.005 217.406 169.253 213.763 169.253 213.763Z" fill="#FFC083"/>
<path fill-rule="evenodd" clip-rule="evenodd" d="M172.738 215.03C172.738 215.03 169.859 225.029 176.523 231.763C175.219 227.495 175.206 225.167 178.901 220.745C182.596 216.323 172.738 215.03 172.738 215.03Z" fill="#FFC083"/>
<path fill-rule="evenodd" clip-rule="evenodd" d="M174.528 223.82C174.528 223.82 176.808 229.283 181.847 234.563C180.991 232.047 179.856 230.186 181.465 226.717C183.074 223.248 174.528 223.82 174.528 223.82Z" fill="#FFC083"/>
<path fill-rule="evenodd" clip-rule="evenodd" d="M179.582 226.902C179.582 226.902 181.862 232.366 186.901 237.645C186.045 235.129 184.91 233.268 186.519 229.799C188.128 226.33 179.582 226.902 179.582 226.902Z" fill="#FFC083"/>
<path fill-rule="evenodd" clip-rule="evenodd" d="M183.244 226.32C183.244 226.32 185.574 236.461 194.667 239.121C191.457 236.02 190.317 233.99 191.405 228.331C192.493 222.672 183.244 226.32 183.244 226.32Z" fill="#FFC083"/>
<path fill-rule="evenodd" clip-rule="evenodd" d="M226.973 188.428C226.973 188.428 232.066 191.446 236.593 197.171C234.22 195.973 232.536 194.59 228.876 195.7C225.217 196.811 226.973 188.428 226.973 188.428Z" fill="#FFC083"/>
<path fill-rule="evenodd" clip-rule="evenodd" d="M229.321 193.861C229.321 193.861 234.415 196.88 238.942 202.604C236.569 201.406 234.884 200.023 231.225 201.134C227.566 202.244 229.321 193.861 229.321 193.861Z" fill="#FFC083"/>
<path fill-rule="evenodd" clip-rule="evenodd" d="M228.236 197.407C228.236 197.407 237.954 201.125 239.322 210.5C236.698 206.89 234.847 205.478 229.091 205.768C223.336 206.058 228.236 197.407 228.236 197.407Z" fill="#FFC083"/>
<path fill-rule="evenodd" clip-rule="evenodd" d="M235.434 205.862C235.434 205.862 238.688 210.808 240.248 217.938C238.64 215.821 237.733 213.839 233.957 213.233C230.181 212.627 235.434 205.862 235.434 205.862Z" fill="#FFC083"/>
<path fill-rule="evenodd" clip-rule="evenodd" d="M235.163 211.776C235.163 211.776 238.417 216.721 239.977 223.851C238.369 221.734 237.462 219.752 233.686 219.146C229.91 218.54 235.163 211.776 235.163 211.776Z" fill="#FFC083"/>
<path fill-rule="evenodd" clip-rule="evenodd" d="M232.633 214.486C232.633 214.486 239.738 222.089 236.858 231.114C236.082 226.719 235.036 224.639 229.736 222.376C224.436 220.114 232.633 214.486 232.633 214.486Z" fill="#FFC083"/>
<path fill-rule="evenodd" clip-rule="evenodd" d="M226.265 208.617C226.265 208.617 226.92 214.501 225.073 221.562C224.601 218.946 224.692 216.768 221.603 214.514C218.513 212.26 226.265 208.617 226.265 208.617Z" fill="#FFC083"/>
<path fill-rule="evenodd" clip-rule="evenodd" d="M223.339 213.763C223.339 213.763 223.994 219.647 222.147 226.708C221.675 224.091 221.766 221.914 218.677 219.659C215.587 217.405 223.339 213.763 223.339 213.763Z" fill="#FFC083"/>
<path fill-rule="evenodd" clip-rule="evenodd" d="M219.854 215.029C219.854 215.029 222.733 225.028 216.07 231.763C217.374 227.495 217.386 225.167 213.691 220.744C209.996 216.322 219.854 215.029 219.854 215.029Z" fill="#FFC083"/>
<path fill-rule="evenodd" clip-rule="evenodd" d="M218.065 223.818C218.065 223.818 215.785 229.282 210.746 234.562C211.602 232.045 212.738 230.184 211.129 226.715C209.52 223.246 218.065 223.818 218.065 223.818Z" fill="#FFC083"/>
<path fill-rule="evenodd" clip-rule="evenodd" d="M213.012 226.9C213.012 226.9 210.731 232.364 205.693 237.644C206.549 235.127 207.684 233.266 206.075 229.797C204.466 226.328 213.012 226.9 213.012 226.9Z" fill="#FFC083"/>
<path fill-rule="evenodd" clip-rule="evenodd" d="M209.349 226.318C209.349 226.318 207.02 236.46 197.927 239.119C201.137 236.018 202.276 233.988 201.188 228.329C200.1 222.67 209.349 226.318 209.349 226.318Z" fill="#FFC083"/>
<path d="M181.462 186.168C185.944 186.168 189.566 189.768 189.566 194.194C189.565 198.62 185.944 202.22 181.462 202.22C176.98 202.22 173.36 198.62 173.359 194.194C173.359 189.768 176.98 186.168 181.462 186.168Z" fill="white" stroke="#E5AB74" stroke-width="1.8"/>
<path d="M178.722 196.088C179.374 193.07 184.023 193.02 184.868 196.088" stroke="#767676" stroke-width="1.56" stroke-linecap="round"/>
<path d="M208.08 186.168C212.562 186.168 216.183 189.768 216.183 194.194C216.183 198.62 212.562 202.22 208.08 202.22C203.597 202.22 199.977 198.62 199.977 194.194C199.977 189.768 203.597 186.168 208.08 186.168Z" fill="white" stroke="#E5AB74" stroke-width="1.8"/>
<path d="M205.34 196.088C205.991 193.07 210.64 193.02 211.485 196.088" stroke="#767676" stroke-width="1.56" stroke-linecap="round"/>
<ellipse cx="191.826" cy="205.739" rx="2.49342" ry="2.16872" fill="white"/>
<ellipse cx="2.49342" cy="2.16872" rx="2.49342" ry="2.16872" transform="matrix(-1 0 0 1 200.39 203.571)" fill="white"/>
<path d="M200.423 206.502C199.035 208.464 194.806 207.856 194.993 203.833" stroke="#E08063" stroke-width="1.404" stroke-linecap="round"/>
<path d="M189.351 206.502C190.738 208.464 194.967 207.856 194.78 203.833" stroke="#E08063" stroke-width="1.404" stroke-linecap="round"/>
<path d="M192.657 203.586H196.904" stroke="#78625B" stroke-width="1.404" stroke-linecap="round"/>
<path d="M182.195 207.168C179.68 207.168 168.33 207.168 168.33 207.168" stroke="white" stroke-width="1.38" stroke-linecap="round"/>
<path d="M182.023 210.186C180.535 210.503 173.821 211.93 173.821 211.93" stroke="white" stroke-width="1.38" stroke-linecap="round"/>
<path d="M208.13 207.168C210.645 207.168 221.995 207.168 221.995 207.168" stroke="white" stroke-width="1.38" stroke-linecap="round"/>
<path d="M208.302 210.186C209.79 210.503 216.504 211.93 216.504 211.93" stroke="white" stroke-width="1.38" stroke-linecap="round"/>
</g>
<path fill-rule="evenodd" clip-rule="evenodd" d="M78 183L195.176 210.106V325.106L78 293V183Z" fill="#DEEAF4"/>
<g style="mix-blend-mode:multiply" opacity="0.133718" filter="url(#filter1_d_70_12637)">
<path fill-rule="evenodd" clip-rule="evenodd" d="M78 183L195.176 210.106V325.106L78 293V183Z" fill="url(#paint8_linear_70_12637)"/>
</g>
<path opacity="0.2" fill-rule="evenodd" clip-rule="evenodd" d="M107.686 276.928L96.5212 273.916V270.594L104.606 249.995L110.546 247.829L102.131 271.543L107.686 272.483V263.085L113.296 262.842V273.432L115.991 273.888V279.168L113.296 278.441V283.971L107.686 281.835V276.928Z" fill="url(#paint9_linear_70_12637)"/>
<path opacity="0.2" fill-rule="evenodd" clip-rule="evenodd" d="M162.686 292.155L151.521 289.448V285.927L159.606 264.575L165.546 262.628L157.131 286.781L162.686 287.626V278.048L168.296 277.83V288.479L170.991 288.889V294.168L168.296 293.514V299.075L162.686 297.155V292.155Z" fill="url(#paint10_linear_70_12637)"/>
<path opacity="0.2" fill-rule="evenodd" clip-rule="evenodd" d="M126.509 262.73C126.578 261.541 126.869 260.475 127.38 259.527C127.892 258.574 128.551 257.741 129.358 257.026C130.166 256.305 131.083 255.731 132.11 255.307C133.137 254.879 134.2 254.627 135.298 254.553C136.397 254.479 137.439 254.596 138.426 254.906C139.413 255.22 140.272 255.718 141.002 256.399C141.733 257.087 142.3 257.934 142.704 258.938C143.108 259.947 143.276 261.113 143.206 262.43L142.003 285.199C141.934 286.496 141.644 287.617 141.132 288.559C140.621 289.495 139.962 290.259 139.154 290.85C138.347 291.435 137.43 291.828 136.403 292.03C135.376 292.229 134.313 292.236 133.214 292.054C132.116 291.873 131.073 291.524 130.086 291.01C129.1 290.501 128.241 289.858 127.51 289.083C126.78 288.315 126.212 287.444 125.808 286.47C125.405 285.5 125.237 284.433 125.306 283.264L126.509 262.73ZM130.908 283.894C130.866 284.635 131.088 285.281 131.572 285.834C132.057 286.391 132.702 286.723 133.508 286.829C134.313 286.936 134.986 286.773 135.527 286.339C136.067 285.901 136.359 285.297 136.401 284.53L137.604 262.511C137.646 261.733 137.425 261.093 136.94 260.595C136.455 260.1 135.81 259.867 135.005 259.895C134.199 259.922 133.526 260.196 132.986 260.712C132.445 261.225 132.154 261.857 132.112 262.61L130.908 283.894Z" fill="url(#paint11_linear_70_12637)"/>
<path fill-rule="evenodd" clip-rule="evenodd" d="M284.358 180L195 210.106V325.106L283.358 290L284.358 180Z" fill="#D2DEE9"/>
<g style="mix-blend-mode:multiply" opacity="0.133718" filter="url(#filter2_d_70_12637)">
<path fill-rule="evenodd" clip-rule="evenodd" d="M284.358 180L195 210.106V325.106L283.358 290L284.358 180Z" fill="url(#paint12_linear_70_12637)"/>
</g>
<path fill-rule="evenodd" clip-rule="evenodd" d="M283.987 179.919L315.227 223.47L224.797 259.166L194.76 209.339L283.987 179.919Z" fill="url(#paint13_linear_70_12637)"/>
<g opacity="0.6">
<path fill-rule="evenodd" clip-rule="evenodd" d="M204.021 253.154L203.617 258.147L202.897 261.69L203.157 264.736L203.809 269.318L203.04 310.754L203.942 297.866L205.622 296.753L204.414 291.112L204.633 269.375L204.419 263.904L205.159 261.848L204.585 258.214L204.663 243.195L204.021 253.154Z" fill="#ACBBCB"/>
<path fill-rule="evenodd" clip-rule="evenodd" d="M210.694 289.562L210.405 283.96L210.8 263.309L210.019 269.675L209.402 267.598L209.609 273.011L209.585 283.86L209.129 287.577L209.732 289.444L209.788 296.947L210.694 289.562Z" fill="#ACBBCB"/>
<path fill-rule="evenodd" clip-rule="evenodd" d="M214.062 301.848L214.503 297.313L214.089 294.059L214.293 291.298L214.765 287.156L214.797 249.42L215.207 261.185L215.257 264.981L215.423 267.35L215.289 287.138L215.388 291.963L215.529 294.009L215.119 297.292L214.98 310.961L214.062 301.848Z" fill="#ACBBCB"/>
</g>
<path fill-rule="evenodd" clip-rule="evenodd" d="M78.4783 182L49 227.491L162.936 258L196 209.107L78.4783 182Z" fill="url(#paint14_linear_70_12637)"/>
<mask id="mask0_70_12637" style="mask-type:luminance" maskUnits="userSpaceOnUse" x="49" y="182" width="147" height="76">
<path fill-rule="evenodd" clip-rule="evenodd" d="M78.4783 182L49 227.491L162.936 258L196 209.107L78.4783 182Z" fill="white"/>
</mask>
<g mask="url(#mask0_70_12637)">
<g opacity="0.4">
<path fill-rule="evenodd" clip-rule="evenodd" d="M107.585 216.861L110.574 212.841L113.063 210.218L114.457 207.497L116.332 203.266L138.941 168.533L131.347 178.985L129.332 179.038L127.367 184.463L115.663 202.78L112.945 207.534L111.228 208.885L109.789 212.271L101.764 224.966L107.585 216.861Z" fill="#ACBBCB"/>
<path fill-rule="evenodd" clip-rule="evenodd" d="M121.22 182.449L118.497 187.353L107.218 204.656L111.254 199.672L110.677 201.76L113.369 197.06L119.139 187.873L121.496 184.962L121.974 183.059L125.902 176.667L121.22 182.449Z" fill="#ACBBCB"/>
<path fill-rule="evenodd" clip-rule="evenodd" d="M124.875 170.246L122.098 173.857L120.724 176.836L119.088 179.07L116.493 182.332L96.469 214.317L102.355 204.122L104.325 200.877L105.44 198.78L116.039 182.07L118.512 177.926L119.476 176.116L121.564 173.549L128.926 162.031L124.875 170.246Z" fill="#ACBBCB"/>
</g>
</g>
<path d="M156.089 523.168C154.521 523.168 153.081 522.8 151.769 522.064C150.457 521.328 149.417 520.312 148.649 519.016C147.881 517.704 147.497 516.224 147.497 514.576C147.497 512.944 147.881 511.48 148.649 510.184C149.417 508.872 150.457 507.848 151.769 507.112C153.081 506.376 154.521 506.008 156.089 506.008C157.673 506.008 159.113 506.376 160.409 507.112C161.721 507.848 162.753 508.872 163.505 510.184C164.273 511.48 164.657 512.944 164.657 514.576C164.657 516.224 164.273 517.704 163.505 519.016C162.753 520.312 161.721 521.328 160.409 522.064C159.097 522.8 157.657 523.168 156.089 523.168ZM156.089 520.168C157.097 520.168 157.985 519.944 158.753 519.496C159.521 519.032 160.121 518.376 160.553 517.528C160.985 516.68 161.201 515.696 161.201 514.576C161.201 513.456 160.985 512.48 160.553 511.648C160.121 510.8 159.521 510.152 158.753 509.704C157.985 509.256 157.097 509.032 156.089 509.032C155.081 509.032 154.185 509.256 153.401 509.704C152.633 510.152 152.033 510.8 151.601 511.648C151.169 512.48 150.953 513.456 150.953 514.576C150.953 515.696 151.169 516.68 151.601 517.528C152.033 518.376 152.633 519.032 153.401 519.496C154.185 519.944 155.081 520.168 156.089 520.168ZM174.965 509.512C175.973 509.512 176.869 509.736 177.653 510.184C178.437 510.616 179.045 511.264 179.477 512.128C179.925 512.976 180.149 514 180.149 515.2V523H176.789V515.656C176.789 514.6 176.525 513.792 175.997 513.232C175.469 512.656 174.749 512.368 173.837 512.368C172.909 512.368 172.173 512.656 171.629 513.232C171.101 513.792 170.837 514.6 170.837 515.656V523H167.477V505.24H170.837V511.36C171.269 510.784 171.845 510.336 172.565 510.016C173.285 509.68 174.085 509.512 174.965 509.512ZM195.607 523.216C194.327 523.216 193.175 522.936 192.151 522.376C191.127 521.8 190.319 520.992 189.727 519.952C189.151 518.912 188.863 517.712 188.863 516.352C188.863 514.992 189.159 513.792 189.751 512.752C190.359 511.712 191.183 510.912 192.223 510.352C193.263 509.776 194.423 509.488 195.703 509.488C196.983 509.488 198.143 509.776 199.183 510.352C200.223 510.912 201.039 511.712 201.631 512.752C202.239 513.792 202.543 514.992 202.543 516.352C202.543 517.712 202.231 518.912 201.607 519.952C200.999 520.992 200.167 521.8 199.111 522.376C198.071 522.936 196.903 523.216 195.607 523.216ZM195.607 520.288C196.215 520.288 196.783 520.144 197.311 519.856C197.855 519.552 198.287 519.104 198.607 518.512C198.927 517.92 199.087 517.2 199.087 516.352C199.087 515.088 198.751 514.12 198.079 513.448C197.423 512.76 196.615 512.416 195.655 512.416C194.695 512.416 193.887 512.76 193.231 513.448C192.591 514.12 192.271 515.088 192.271 516.352C192.271 517.616 192.583 518.592 193.207 519.28C193.847 519.952 194.647 520.288 195.607 520.288ZM212.815 509.512C213.823 509.512 214.719 509.736 215.503 510.184C216.287 510.616 216.895 511.264 217.327 512.128C217.775 512.976 217.999 514 217.999 515.2V523H214.639V515.656C214.639 514.6 214.375 513.792 213.847 513.232C213.319 512.656 212.599 512.368 211.687 512.368C210.759 512.368 210.023 512.656 209.479 513.232C208.951 513.792 208.687 514.6 208.687 515.656V523H205.327V505.24H208.687V511.36C209.119 510.784 209.695 510.336 210.415 510.016C211.135 509.68 211.935 509.512 212.815 509.512ZM225.859 505.96L225.475 517.552H222.643L222.235 505.96H225.859ZM224.131 523.168C223.523 523.168 223.019 522.984 222.619 522.616C222.235 522.232 222.043 521.76 222.043 521.2C222.043 520.64 222.235 520.176 222.619 519.808C223.019 519.424 223.523 519.232 224.131 519.232C224.723 519.232 225.211 519.424 225.595 519.808C225.979 520.176 226.171 520.64 226.171 521.2C226.171 521.76 225.979 522.232 225.595 522.616C225.211 522.984 224.723 523.168 224.131 523.168Z" fill="#101828"/>
<path d="M93.043 549.545V550.655H90.1929V560H88.8279V550.655H85.9629V549.545H93.043ZM99.1232 551.63C99.7432 551.63 100.303 551.765 100.803 552.035C101.303 552.295 101.693 552.69 101.973 553.22C102.263 553.75 102.408 554.395 102.408 555.155V560H101.058V555.35C101.058 554.53 100.853 553.905 100.443 553.475C100.033 553.035 99.4732 552.815 98.7632 552.815C98.0432 552.815 97.4682 553.04 97.0382 553.49C96.6182 553.94 96.4082 554.595 96.4082 555.455V560H95.0432V548.9H96.4082V552.95C96.6782 552.53 97.0482 552.205 97.5182 551.975C97.9982 551.745 98.5332 551.63 99.1232 551.63ZM112.458 555.575C112.458 555.835 112.443 556.11 112.413 556.4H105.843C105.893 557.21 106.168 557.845 106.668 558.305C107.178 558.755 107.793 558.98 108.513 558.98C109.103 558.98 109.593 558.845 109.983 558.575C110.383 558.295 110.663 557.925 110.823 557.465H112.293C112.073 558.255 111.633 558.9 110.973 559.4C110.313 559.89 109.493 560.135 108.513 560.135C107.733 560.135 107.033 559.96 106.413 559.61C105.803 559.26 105.323 558.765 104.973 558.125C104.623 557.475 104.448 556.725 104.448 555.875C104.448 555.025 104.618 554.28 104.958 553.64C105.298 553 105.773 552.51 106.383 552.17C107.003 551.82 107.713 551.645 108.513 551.645C109.293 551.645 109.983 551.815 110.583 552.155C111.183 552.495 111.643 552.965 111.963 553.565C112.293 554.155 112.458 554.825 112.458 555.575ZM111.048 555.29C111.048 554.77 110.933 554.325 110.703 553.955C110.473 553.575 110.158 553.29 109.758 553.1C109.368 552.9 108.933 552.8 108.453 552.8C107.763 552.8 107.173 553.02 106.683 553.46C106.203 553.9 105.928 554.51 105.858 555.29H111.048ZM122.244 552.905H120.519V560H119.154V552.905H118.089V551.78H119.154V551.195C119.154 550.275 119.389 549.605 119.859 549.185C120.339 548.755 121.104 548.54 122.154 548.54V549.68C121.554 549.68 121.129 549.8 120.879 550.04C120.639 550.27 120.519 550.655 120.519 551.195V551.78H122.244V552.905ZM124.86 550.445C124.6 550.445 124.38 550.355 124.2 550.175C124.02 549.995 123.93 549.775 123.93 549.515C123.93 549.255 124.02 549.035 124.2 548.855C124.38 548.675 124.6 548.585 124.86 548.585C125.11 548.585 125.32 548.675 125.49 548.855C125.67 549.035 125.76 549.255 125.76 549.515C125.76 549.775 125.67 549.995 125.49 550.175C125.32 550.355 125.11 550.445 124.86 550.445ZM125.52 551.78V560H124.155V551.78H125.52ZM129.532 548.9V560H128.167V548.9H129.532ZM139.678 555.575C139.678 555.835 139.663 556.11 139.633 556.4H133.063C133.113 557.21 133.388 557.845 133.888 558.305C134.398 558.755 135.013 558.98 135.733 558.98C136.323 558.98 136.813 558.845 137.203 558.575C137.603 558.295 137.883 557.925 138.043 557.465H139.513C139.293 558.255 138.853 558.9 138.193 559.4C137.533 559.89 136.713 560.135 135.733 560.135C134.953 560.135 134.253 559.96 133.633 559.61C133.023 559.26 132.543 558.765 132.193 558.125C131.843 557.475 131.668 556.725 131.668 555.875C131.668 555.025 131.838 554.28 132.178 553.64C132.518 553 132.993 552.51 133.603 552.17C134.223 551.82 134.933 551.645 135.733 551.645C136.513 551.645 137.203 551.815 137.803 552.155C138.403 552.495 138.863 552.965 139.183 553.565C139.513 554.155 139.678 554.825 139.678 555.575ZM138.268 555.29C138.268 554.77 138.153 554.325 137.923 553.955C137.693 553.575 137.378 553.29 136.978 553.1C136.588 552.9 136.153 552.8 135.673 552.8C134.983 552.8 134.393 553.02 133.903 553.46C133.423 553.9 133.148 554.51 133.078 555.29H138.268ZM153.199 551.78L148.249 563.87H146.839L148.459 559.91L145.144 551.78H146.659L149.239 558.44L151.789 551.78H153.199ZM158.476 560.135C157.706 560.135 157.006 559.96 156.376 559.61C155.756 559.26 155.266 558.765 154.906 558.125C154.556 557.475 154.381 556.725 154.381 555.875C154.381 555.035 154.561 554.295 154.921 553.655C155.291 553.005 155.791 552.51 156.421 552.17C157.051 551.82 157.756 551.645 158.536 551.645C159.316 551.645 160.021 551.82 160.651 552.17C161.281 552.51 161.776 553 162.136 553.64C162.506 554.28 162.691 555.025 162.691 555.875C162.691 556.725 162.501 557.475 162.121 558.125C161.751 558.765 161.246 559.26 160.606 559.61C159.966 559.96 159.256 560.135 158.476 560.135ZM158.476 558.935C158.966 558.935 159.426 558.82 159.856 558.59C160.286 558.36 160.631 558.015 160.891 557.555C161.161 557.095 161.296 556.535 161.296 555.875C161.296 555.215 161.166 554.655 160.906 554.195C160.646 553.735 160.306 553.395 159.886 553.175C159.466 552.945 159.011 552.83 158.521 552.83C158.021 552.83 157.561 552.945 157.141 553.175C156.731 553.395 156.401 553.735 156.151 554.195C155.901 554.655 155.776 555.215 155.776 555.875C155.776 556.545 155.896 557.11 156.136 557.57C156.386 558.03 156.716 558.375 157.126 558.605C157.536 558.825 157.986 558.935 158.476 558.935ZM172.096 551.78V560H170.731V558.785C170.471 559.205 170.106 559.535 169.636 559.775C169.176 560.005 168.666 560.12 168.106 560.12C167.466 560.12 166.891 559.99 166.381 559.73C165.871 559.46 165.466 559.06 165.166 558.53C164.876 558 164.731 557.355 164.731 556.595V551.78H166.081V556.415C166.081 557.225 166.286 557.85 166.696 558.29C167.106 558.72 167.666 558.935 168.376 558.935C169.106 558.935 169.681 558.71 170.101 558.26C170.521 557.81 170.731 557.155 170.731 556.295V551.78H172.096ZM178.529 555.86C178.529 555.02 178.699 554.285 179.039 553.655C179.379 553.015 179.844 552.52 180.434 552.17C181.034 551.82 181.699 551.645 182.429 551.645C183.149 551.645 183.774 551.8 184.304 552.11C184.834 552.42 185.229 552.81 185.489 553.28V551.78H186.869V560H185.489V558.47C185.219 558.95 184.814 559.35 184.274 559.67C183.744 559.98 183.124 560.135 182.414 560.135C181.684 560.135 181.024 559.955 180.434 559.595C179.844 559.235 179.379 558.73 179.039 558.08C178.699 557.43 178.529 556.69 178.529 555.86ZM185.489 555.875C185.489 555.255 185.364 554.715 185.114 554.255C184.864 553.795 184.524 553.445 184.094 553.205C183.674 552.955 183.209 552.83 182.699 552.83C182.189 552.83 181.724 552.95 181.304 553.19C180.884 553.43 180.549 553.78 180.299 554.24C180.049 554.7 179.924 555.24 179.924 555.86C179.924 556.49 180.049 557.04 180.299 557.51C180.549 557.97 180.884 558.325 181.304 558.575C181.724 558.815 182.189 558.935 182.699 558.935C183.209 558.935 183.674 558.815 184.094 558.575C184.524 558.325 184.864 557.97 185.114 557.51C185.364 557.04 185.489 556.495 185.489 555.875ZM190.861 553.115C191.101 552.645 191.441 552.28 191.881 552.02C192.331 551.76 192.876 551.63 193.516 551.63V553.04H193.156C191.626 553.04 190.861 553.87 190.861 555.53V560H189.496V551.78H190.861V553.115ZM202.912 555.575C202.912 555.835 202.897 556.11 202.867 556.4H196.297C196.347 557.21 196.622 557.845 197.122 558.305C197.632 558.755 198.247 558.98 198.967 558.98C199.557 558.98 200.047 558.845 200.437 558.575C200.837 558.295 201.117 557.925 201.277 557.465H202.747C202.527 558.255 202.087 558.9 201.427 559.4C200.767 559.89 199.947 560.135 198.967 560.135C198.187 560.135 197.487 559.96 196.867 559.61C196.257 559.26 195.777 558.765 195.427 558.125C195.077 557.475 194.902 556.725 194.902 555.875C194.902 555.025 195.072 554.28 195.412 553.64C195.752 553 196.227 552.51 196.837 552.17C197.457 551.82 198.167 551.645 198.967 551.645C199.747 551.645 200.437 551.815 201.037 552.155C201.637 552.495 202.097 552.965 202.417 553.565C202.747 554.155 202.912 554.825 202.912 555.575ZM201.502 555.29C201.502 554.77 201.387 554.325 201.157 553.955C200.927 553.575 200.612 553.29 200.212 553.1C199.822 552.9 199.387 552.8 198.907 552.8C198.217 552.8 197.627 553.02 197.137 553.46C196.657 553.9 196.382 554.51 196.312 555.29H201.502ZM210.718 548.9V560H209.353V548.9H210.718ZM216.949 560.135C216.179 560.135 215.479 559.96 214.849 559.61C214.229 559.26 213.739 558.765 213.379 558.125C213.029 557.475 212.854 556.725 212.854 555.875C212.854 555.035 213.034 554.295 213.394 553.655C213.764 553.005 214.264 552.51 214.894 552.17C215.524 551.82 216.229 551.645 217.009 551.645C217.789 551.645 218.494 551.82 219.124 552.17C219.754 552.51 220.249 553 220.609 553.64C220.979 554.28 221.164 555.025 221.164 555.875C221.164 556.725 220.974 557.475 220.594 558.125C220.224 558.765 219.719 559.26 219.079 559.61C218.439 559.96 217.729 560.135 216.949 560.135ZM216.949 558.935C217.439 558.935 217.899 558.82 218.329 558.59C218.759 558.36 219.104 558.015 219.364 557.555C219.634 557.095 219.769 556.535 219.769 555.875C219.769 555.215 219.639 554.655 219.379 554.195C219.119 553.735 218.779 553.395 218.359 553.175C217.939 552.945 217.484 552.83 216.994 552.83C216.494 552.83 216.034 552.945 215.614 553.175C215.204 553.395 214.874 553.735 214.624 554.195C214.374 554.655 214.249 555.215 214.249 555.875C214.249 556.545 214.369 557.11 214.609 557.57C214.859 558.03 215.189 558.375 215.599 558.605C216.009 558.825 216.459 558.935 216.949 558.935ZM226.864 560.135C226.094 560.135 225.394 559.96 224.764 559.61C224.144 559.26 223.654 558.765 223.294 558.125C222.944 557.475 222.769 556.725 222.769 555.875C222.769 555.035 222.949 554.295 223.309 553.655C223.679 553.005 224.179 552.51 224.809 552.17C225.439 551.82 226.144 551.645 226.924 551.645C227.704 551.645 228.409 551.82 229.039 552.17C229.669 552.51 230.164 553 230.524 553.64C230.894 554.28 231.079 555.025 231.079 555.875C231.079 556.725 230.889 557.475 230.509 558.125C230.139 558.765 229.634 559.26 228.994 559.61C228.354 559.96 227.644 560.135 226.864 560.135ZM226.864 558.935C227.354 558.935 227.814 558.82 228.244 558.59C228.674 558.36 229.019 558.015 229.279 557.555C229.549 557.095 229.684 556.535 229.684 555.875C229.684 555.215 229.554 554.655 229.294 554.195C229.034 553.735 228.694 553.395 228.274 553.175C227.854 552.945 227.399 552.83 226.909 552.83C226.409 552.83 225.949 552.945 225.529 553.175C225.119 553.395 224.789 553.735 224.539 554.195C224.289 554.655 224.164 555.215 224.164 555.875C224.164 556.545 224.284 557.11 224.524 557.57C224.774 558.03 225.104 558.375 225.514 558.605C225.924 558.825 226.374 558.935 226.864 558.935ZM237.783 560L234.558 556.37V560H233.193V548.9H234.558V555.425L237.723 551.78H239.628L235.758 555.875L239.643 560H237.783ZM241.938 550.445C241.678 550.445 241.458 550.355 241.278 550.175C241.098 549.995 241.008 549.775 241.008 549.515C241.008 549.255 241.098 549.035 241.278 548.855C241.458 548.675 241.678 548.585 241.938 548.585C242.188 548.585 242.398 548.675 242.568 548.855C242.748 549.035 242.838 549.255 242.838 549.515C242.838 549.775 242.748 549.995 242.568 550.175C242.398 550.355 242.188 550.445 241.938 550.445ZM242.598 551.78V560H241.233V551.78H242.598ZM249.25 551.63C250.25 551.63 251.06 551.935 251.68 552.545C252.3 553.145 252.61 554.015 252.61 555.155V560H251.26V555.35C251.26 554.53 251.055 553.905 250.645 553.475C250.235 553.035 249.675 552.815 248.965 552.815C248.245 552.815 247.67 553.04 247.24 553.49C246.82 553.94 246.61 554.595 246.61 555.455V560H245.245V551.78H246.61V552.95C246.88 552.53 247.245 552.205 247.705 551.975C248.175 551.745 248.69 551.63 249.25 551.63ZM258.549 551.645C259.259 551.645 259.879 551.8 260.409 552.11C260.949 552.42 261.349 552.81 261.609 553.28V551.78H262.989V560.18C262.989 560.93 262.829 561.595 262.509 562.175C262.189 562.765 261.729 563.225 261.129 563.555C260.539 563.885 259.849 564.05 259.059 564.05C257.979 564.05 257.079 563.795 256.359 563.285C255.639 562.775 255.214 562.08 255.084 561.2H256.434C256.584 561.7 256.894 562.1 257.364 562.4C257.834 562.71 258.399 562.865 259.059 562.865C259.809 562.865 260.419 562.63 260.889 562.16C261.369 561.69 261.609 561.03 261.609 560.18V558.455C261.339 558.935 260.939 559.335 260.409 559.655C259.879 559.975 259.259 560.135 258.549 560.135C257.819 560.135 257.154 559.955 256.554 559.595C255.964 559.235 255.499 558.73 255.159 558.08C254.819 557.43 254.649 556.69 254.649 555.86C254.649 555.02 254.819 554.285 255.159 553.655C255.499 553.015 255.964 552.52 256.554 552.17C257.154 551.82 257.819 551.645 258.549 551.645ZM261.609 555.875C261.609 555.255 261.484 554.715 261.234 554.255C260.984 553.795 260.644 553.445 260.214 553.205C259.794 552.955 259.329 552.83 258.819 552.83C258.309 552.83 257.844 552.95 257.424 553.19C257.004 553.43 256.669 553.78 256.419 554.24C256.169 554.7 256.044 555.24 256.044 555.86C256.044 556.49 256.169 557.04 256.419 557.51C256.669 557.97 257.004 558.325 257.424 558.575C257.844 558.815 258.309 558.935 258.819 558.935C259.329 558.935 259.794 558.815 260.214 558.575C260.644 558.325 260.984 557.97 261.234 557.51C261.484 557.04 261.609 556.495 261.609 555.875ZM273.28 552.905H271.555V560H270.19V552.905H269.125V551.78H270.19V551.195C270.19 550.275 270.425 549.605 270.895 549.185C271.375 548.755 272.14 548.54 273.19 548.54V549.68C272.59 549.68 272.165 549.8 271.915 550.04C271.675 550.27 271.555 550.655 271.555 551.195V551.78H273.28V552.905ZM278.777 560.135C278.007 560.135 277.307 559.96 276.677 559.61C276.057 559.26 275.567 558.765 275.207 558.125C274.857 557.475 274.682 556.725 274.682 555.875C274.682 555.035 274.862 554.295 275.222 553.655C275.592 553.005 276.092 552.51 276.722 552.17C277.352 551.82 278.057 551.645 278.837 551.645C279.617 551.645 280.322 551.82 280.952 552.17C281.582 552.51 282.077 553 282.437 553.64C282.807 554.28 282.992 555.025 282.992 555.875C282.992 556.725 282.802 557.475 282.422 558.125C282.052 558.765 281.547 559.26 280.907 559.61C280.267 559.96 279.557 560.135 278.777 560.135ZM278.777 558.935C279.267 558.935 279.727 558.82 280.157 558.59C280.587 558.36 280.932 558.015 281.192 557.555C281.462 557.095 281.597 556.535 281.597 555.875C281.597 555.215 281.467 554.655 281.207 554.195C280.947 553.735 280.607 553.395 280.187 553.175C279.767 552.945 279.312 552.83 278.822 552.83C278.322 552.83 277.862 552.945 277.442 553.175C277.032 553.395 276.702 553.735 276.452 554.195C276.202 554.655 276.077 555.215 276.077 555.875C276.077 556.545 276.197 557.11 276.437 557.57C276.687 558.03 277.017 558.375 277.427 558.605C277.837 558.825 278.287 558.935 278.777 558.935ZM286.471 553.115C286.711 552.645 287.051 552.28 287.491 552.02C287.941 551.76 288.486 551.63 289.126 551.63V553.04H288.766C287.236 553.04 286.471 553.87 286.471 555.53V560H285.106V551.78H286.471V553.115ZM143.569 573.445C143.309 573.445 143.089 573.355 142.909 573.175C142.729 572.995 142.639 572.775 142.639 572.515C142.639 572.255 142.729 572.035 142.909 571.855C143.089 571.675 143.309 571.585 143.569 571.585C143.819 571.585 144.029 571.675 144.199 571.855C144.379 572.035 144.469 572.255 144.469 572.515C144.469 572.775 144.379 572.995 144.199 573.175C144.029 573.355 143.819 573.445 143.569 573.445ZM144.229 574.78V583H142.864V574.78H144.229ZM149.785 583.135C149.155 583.135 148.59 583.03 148.09 582.82C147.59 582.6 147.195 582.3 146.905 581.92C146.615 581.53 146.455 581.085 146.425 580.585H147.835C147.875 580.995 148.065 581.33 148.405 581.59C148.755 581.85 149.21 581.98 149.77 581.98C150.29 581.98 150.7 581.865 151 581.635C151.3 581.405 151.45 581.115 151.45 580.765C151.45 580.405 151.29 580.14 150.97 579.97C150.65 579.79 150.155 579.615 149.485 579.445C148.875 579.285 148.375 579.125 147.985 578.965C147.605 578.795 147.275 578.55 146.995 578.23C146.725 577.9 146.59 577.47 146.59 576.94C146.59 576.52 146.715 576.135 146.965 575.785C147.215 575.435 147.57 575.16 148.03 574.96C148.49 574.75 149.015 574.645 149.605 574.645C150.515 574.645 151.25 574.875 151.81 575.335C152.37 575.795 152.67 576.425 152.71 577.225H151.345C151.315 576.795 151.14 576.45 150.82 576.19C150.51 575.93 150.09 575.8 149.56 575.8C149.07 575.8 148.68 575.905 148.39 576.115C148.1 576.325 147.955 576.6 147.955 576.94C147.955 577.21 148.04 577.435 148.21 577.615C148.39 577.785 148.61 577.925 148.87 578.035C149.14 578.135 149.51 578.25 149.98 578.38C150.57 578.54 151.05 578.7 151.42 578.86C151.79 579.01 152.105 579.24 152.365 579.55C152.635 579.86 152.775 580.265 152.785 580.765C152.785 581.215 152.66 581.62 152.41 581.98C152.16 582.34 151.805 582.625 151.345 582.835C150.895 583.035 150.375 583.135 149.785 583.135ZM163.356 574.63C164.356 574.63 165.166 574.935 165.786 575.545C166.406 576.145 166.716 577.015 166.716 578.155V583H165.366V578.35C165.366 577.53 165.161 576.905 164.751 576.475C164.341 576.035 163.781 575.815 163.071 575.815C162.351 575.815 161.776 576.04 161.346 576.49C160.926 576.94 160.716 577.595 160.716 578.455V583H159.351V574.78H160.716V575.95C160.986 575.53 161.351 575.205 161.811 574.975C162.281 574.745 162.796 574.63 163.356 574.63ZM172.851 583.135C172.081 583.135 171.381 582.96 170.751 582.61C170.131 582.26 169.641 581.765 169.281 581.125C168.931 580.475 168.756 579.725 168.756 578.875C168.756 578.035 168.936 577.295 169.296 576.655C169.666 576.005 170.166 575.51 170.796 575.17C171.426 574.82 172.131 574.645 172.911 574.645C173.691 574.645 174.396 574.82 175.026 575.17C175.656 575.51 176.151 576 176.511 576.64C176.881 577.28 177.066 578.025 177.066 578.875C177.066 579.725 176.876 580.475 176.496 581.125C176.126 581.765 175.621 582.26 174.981 582.61C174.341 582.96 173.631 583.135 172.851 583.135ZM172.851 581.935C173.341 581.935 173.801 581.82 174.231 581.59C174.661 581.36 175.006 581.015 175.266 580.555C175.536 580.095 175.671 579.535 175.671 578.875C175.671 578.215 175.541 577.655 175.281 577.195C175.021 576.735 174.681 576.395 174.261 576.175C173.841 575.945 173.386 575.83 172.896 575.83C172.396 575.83 171.936 575.945 171.516 576.175C171.106 576.395 170.776 576.735 170.526 577.195C170.276 577.655 170.151 578.215 170.151 578.875C170.151 579.545 170.271 580.11 170.511 580.57C170.761 581.03 171.091 581.375 171.501 581.605C171.911 581.825 172.361 581.935 172.851 581.935ZM180.846 575.905V580.75C180.846 581.15 180.931 581.435 181.101 581.605C181.271 581.765 181.566 581.845 181.986 581.845H182.991V583H181.761C181.001 583 180.431 582.825 180.051 582.475C179.671 582.125 179.481 581.55 179.481 580.75V575.905H178.416V574.78H179.481V572.71H180.846V574.78H182.991V575.905H180.846ZM193.364 574.63C193.984 574.63 194.544 574.765 195.044 575.035C195.544 575.295 195.934 575.69 196.214 576.22C196.504 576.75 196.649 577.395 196.649 578.155V583H195.299V578.35C195.299 577.53 195.094 576.905 194.684 576.475C194.274 576.035 193.714 575.815 193.004 575.815C192.284 575.815 191.709 576.04 191.279 576.49C190.859 576.94 190.649 577.595 190.649 578.455V583H189.284V571.9H190.649V575.95C190.919 575.53 191.289 575.205 191.759 574.975C192.239 574.745 192.774 574.63 193.364 574.63ZM206.698 578.575C206.698 578.835 206.683 579.11 206.653 579.4H200.083C200.133 580.21 200.408 580.845 200.908 581.305C201.418 581.755 202.033 581.98 202.753 581.98C203.343 581.98 203.833 581.845 204.223 581.575C204.623 581.295 204.903 580.925 205.063 580.465H206.533C206.313 581.255 205.873 581.9 205.213 582.4C204.553 582.89 203.733 583.135 202.753 583.135C201.973 583.135 201.273 582.96 200.653 582.61C200.043 582.26 199.563 581.765 199.213 581.125C198.863 580.475 198.688 579.725 198.688 578.875C198.688 578.025 198.858 577.28 199.198 576.64C199.538 576 200.013 575.51 200.623 575.17C201.243 574.82 201.953 574.645 202.753 574.645C203.533 574.645 204.223 574.815 204.823 575.155C205.423 575.495 205.883 575.965 206.203 576.565C206.533 577.155 206.698 577.825 206.698 578.575ZM205.288 578.29C205.288 577.77 205.173 577.325 204.943 576.955C204.713 576.575 204.398 576.29 203.998 576.1C203.608 575.9 203.173 575.8 202.693 575.8C202.003 575.8 201.413 576.02 200.923 576.46C200.443 576.9 200.168 577.51 200.098 578.29H205.288ZM210.185 576.115C210.425 575.645 210.765 575.28 211.205 575.02C211.655 574.76 212.2 574.63 212.84 574.63V576.04H212.48C210.95 576.04 210.185 576.87 210.185 578.53V583H208.82V574.78H210.185V576.115ZM222.236 578.575C222.236 578.835 222.221 579.11 222.191 579.4H215.621C215.671 580.21 215.946 580.845 216.446 581.305C216.956 581.755 217.571 581.98 218.291 581.98C218.881 581.98 219.371 581.845 219.761 581.575C220.161 581.295 220.441 580.925 220.601 580.465H222.071C221.851 581.255 221.411 581.9 220.751 582.4C220.091 582.89 219.271 583.135 218.291 583.135C217.511 583.135 216.811 582.96 216.191 582.61C215.581 582.26 215.101 581.765 214.751 581.125C214.401 580.475 214.226 579.725 214.226 578.875C214.226 578.025 214.396 577.28 214.736 576.64C215.076 576 215.551 575.51 216.161 575.17C216.781 574.82 217.491 574.645 218.291 574.645C219.071 574.645 219.761 574.815 220.361 575.155C220.961 575.495 221.421 575.965 221.741 576.565C222.071 577.155 222.236 577.825 222.236 578.575ZM220.826 578.29C220.826 577.77 220.711 577.325 220.481 576.955C220.251 576.575 219.936 576.29 219.536 576.1C219.146 575.9 218.711 575.8 218.231 575.8C217.541 575.8 216.951 576.02 216.461 576.46C215.981 576.9 215.706 577.51 215.636 578.29H220.826ZM224.793 583.09C224.533 583.09 224.313 583 224.133 582.82C223.953 582.64 223.863 582.42 223.863 582.16C223.863 581.9 223.953 581.68 224.133 581.5C224.313 581.32 224.533 581.23 224.793 581.23C225.043 581.23 225.253 581.32 225.423 581.5C225.603 581.68 225.693 581.9 225.693 582.16C225.693 582.42 225.603 582.64 225.423 582.82C225.253 583 225.043 583.09 224.793 583.09ZM228.262 583.09C228.002 583.09 227.782 583 227.602 582.82C227.422 582.64 227.332 582.42 227.332 582.16C227.332 581.9 227.422 581.68 227.602 581.5C227.782 581.32 228.002 581.23 228.262 581.23C228.512 581.23 228.722 581.32 228.892 581.5C229.072 581.68 229.162 581.9 229.162 582.16C229.162 582.42 229.072 582.64 228.892 582.82C228.722 583 228.512 583.09 228.262 583.09ZM231.732 583.09C231.472 583.09 231.252 583 231.072 582.82C230.892 582.64 230.802 582.42 230.802 582.16C230.802 581.9 230.892 581.68 231.072 581.5C231.252 581.32 231.472 581.23 231.732 581.23C231.982 581.23 232.192 581.32 232.362 581.5C232.542 581.68 232.632 581.9 232.632 582.16C232.632 582.42 232.542 582.64 232.362 582.82C232.192 583 231.982 583.09 231.732 583.09Z" fill="#667085"/>
<path opacity="0.35" d="M338.667 17.8333H355.333C356.53 17.8333 357.5 18.8036 357.5 20.0002V26.0002C357.5 27.1967 356.53 28.1663 355.333 28.1663H338.667C337.47 28.1663 336.5 27.1967 336.5 26.0002V20.0002L336.511 19.7786C336.622 18.6859 337.545 17.8333 338.667 17.8333Z" stroke="black"/>
<path opacity="0.4" d="M359 21V25C359.805 24.6612 360.328 23.8731 360.328 23C360.328 22.1269 359.805 21.3388 359 21Z" fill="black"/>
<path d="M338 20.6666C338 19.9302 338.597 19.3333 339.333 19.3333H354.667C355.403 19.3333 356 19.9302 356 20.6666V25.3333C356 26.0696 355.403 26.6666 354.667 26.6666H339.333C338.597 26.6666 338 26.0696 338 25.3333V20.6666Z" fill="black"/>
<path fill-rule="evenodd" clip-rule="evenodd" d="M323.33 19.6079C325.546 19.608 327.677 20.4594 329.283 21.9862C329.404 22.1041 329.598 22.1026 329.717 21.9829L330.873 20.8162C330.933 20.7555 330.967 20.6733 330.966 20.5877C330.966 20.5021 330.931 20.4202 330.87 20.3602C326.655 16.3207 320.005 16.3207 315.79 20.3602C315.729 20.4202 315.694 20.502 315.694 20.5876C315.693 20.6732 315.727 20.7555 315.787 20.8162L316.943 21.9829C317.062 22.1028 317.256 22.1043 317.377 21.9862C318.983 20.4593 321.114 19.6079 323.33 19.6079ZM323.33 23.4036C324.548 23.4035 325.722 23.856 326.624 24.6732C326.746 24.7892 326.939 24.7867 327.058 24.6676L328.212 23.5009C328.273 23.4397 328.307 23.3567 328.306 23.2704C328.305 23.1842 328.27 23.1018 328.208 23.0419C325.459 20.4855 321.204 20.4855 318.455 23.0419C318.393 23.1018 318.358 23.1842 318.357 23.2705C318.356 23.3568 318.39 23.4398 318.451 23.5009L319.605 24.6676C319.724 24.7867 319.917 24.7892 320.039 24.6732C320.941 23.8566 322.114 23.4041 323.33 23.4036ZM325.643 25.9574C325.645 26.0439 325.611 26.1273 325.549 26.1879L323.552 28.2036C323.493 28.2628 323.414 28.2961 323.33 28.2961C323.247 28.2961 323.167 28.2628 323.109 28.2036L321.111 26.1879C321.049 26.1272 321.015 26.0438 321.017 25.9573C321.019 25.8708 321.056 25.7889 321.121 25.7309C322.396 24.652 324.264 24.652 325.54 25.7309C325.604 25.7889 325.642 25.8709 325.643 25.9574Z" fill="black"/>
<path fill-rule="evenodd" clip-rule="evenodd" d="M309.667 17.6665H308.667C308.114 17.6665 307.667 18.1142 307.667 18.6665V27.3332C307.667 27.8855 308.114 28.3332 308.667 28.3332H309.667C310.219 28.3332 310.667 27.8855 310.667 27.3332V18.6665C310.667 18.1142 310.219 17.6665 309.667 17.6665ZM304 19.9998H305C305.552 19.9998 306 20.4476 306 20.9998V27.3332C306 27.8855 305.552 28.3332 305 28.3332H304C303.448 28.3332 303 27.8855 303 27.3332V20.9998C303 20.4476 303.448 19.9998 304 19.9998ZM300.333 22.3332H299.333C298.781 22.3332 298.333 22.7809 298.333 23.3332V27.3332C298.333 27.8855 298.781 28.3332 299.333 28.3332H300.333C300.886 28.3332 301.333 27.8855 301.333 27.3332V23.3332C301.333 22.7809 300.886 22.3332 300.333 22.3332ZM295.667 24.3332H294.667C294.114 24.3332 293.667 24.7809 293.667 25.3332V27.3332C293.667 27.8855 294.114 28.3332 294.667 28.3332H295.667C296.219 28.3332 296.667 27.8855 296.667 27.3332V25.3332C296.667 24.7809 296.219 24.3332 295.667 24.3332Z" fill="black"/>
<path d="M37.3207 28.2563C40.0087 28.2563 41.6053 26.1543 41.6053 22.5947C41.6053 21.2544 41.349 20.1265 40.8583 19.2549C40.1478 17.8999 38.9247 17.1675 37.3793 17.1675C35.0795 17.1675 33.4535 18.7129 33.4535 20.8809C33.4535 22.917 34.9183 24.3965 36.9325 24.3965C38.1703 24.3965 39.1737 23.8179 39.6718 22.8145H39.6937C39.6937 22.8145 39.723 22.8145 39.7303 22.8145C39.745 22.8145 39.7963 22.8145 39.7963 22.8145C39.7963 25.2314 38.8807 26.6743 37.3353 26.6743C36.4271 26.6743 35.724 26.1763 35.4823 25.3779H33.6C33.9149 27.1138 35.3871 28.2563 37.3207 28.2563ZM37.3866 22.895C36.1708 22.895 35.3065 22.0308 35.3065 20.8223C35.3065 19.6431 36.2147 18.7422 37.3939 18.7422C38.5731 18.7422 39.4813 19.6577 39.4813 20.8516C39.4813 22.0308 38.5951 22.895 37.3866 22.895Z" fill="black"/>
<path d="M44.6965 28.1538C45.3923 28.1538 45.8683 27.6558 45.8683 26.9966C45.8683 26.3301 45.3923 25.8394 44.6965 25.8394C44.008 25.8394 43.5246 26.3301 43.5246 26.9966C43.5246 27.6558 44.008 28.1538 44.6965 28.1538ZM44.6965 22.6606C45.3923 22.6606 45.8683 22.1699 45.8683 21.5107C45.8683 20.8442 45.3923 20.3535 44.6965 20.3535C44.008 20.3535 43.5246 20.8442 43.5246 21.5107C43.5246 22.1699 44.008 22.6606 44.6965 22.6606Z" fill="black"/>
<path d="M52.7241 28H54.5332V26.0298H55.9614V24.4331H54.5332V17.4312H51.8672C49.9995 20.2437 48.5127 22.5947 47.5605 24.3452V26.0298H52.7241V28ZM49.311 24.3672C50.5415 22.1992 51.6401 20.4634 52.6509 18.9692H52.7534V24.4771H49.311V24.3672Z" fill="black"/>
<path d="M59.99 28H61.8797V17.4312H59.9973L57.2361 19.3647V21.1812L59.8655 19.3354H59.99V28Z" fill="black"/>
<rect x="121" y="799" width="134" height="5" rx="2.5" fill="black"/>
<g clip-path="url(#clip1_70_12637)">
<rect x="95" y="625" width="185" height="50" rx="25" fill="url(#paint15_linear_70_12637)"/>
<path d="M163.744 647.68C163.504 647.24 163.174 646.905 162.754 646.675C162.334 646.445 161.844 646.33 161.284 646.33C160.664 646.33 160.114 646.47 159.634 646.75C159.154 647.03 158.779 647.43 158.509 647.95C158.239 648.47 158.104 649.07 158.104 649.75C158.104 650.45 158.239 651.06 158.509 651.58C158.789 652.1 159.174 652.5 159.664 652.78C160.154 653.06 160.724 653.2 161.374 653.2C162.174 653.2 162.829 652.99 163.339 652.57C163.849 652.14 164.184 651.545 164.344 650.785H160.744V649.18H166.414V651.01C166.274 651.74 165.974 652.415 165.514 653.035C165.054 653.655 164.459 654.155 163.729 654.535C163.009 654.905 162.199 655.09 161.299 655.09C160.289 655.09 159.374 654.865 158.554 654.415C157.744 653.955 157.104 653.32 156.634 652.51C156.174 651.7 155.944 650.78 155.944 649.75C155.944 648.72 156.174 647.8 156.634 646.99C157.104 646.17 157.744 645.535 158.554 645.085C159.374 644.625 160.284 644.395 161.284 644.395C162.464 644.395 163.489 644.685 164.359 645.265C165.229 645.835 165.829 646.64 166.159 647.68H163.744ZM171.978 655.135C171.178 655.135 170.458 654.96 169.818 654.61C169.178 654.25 168.673 653.745 168.303 653.095C167.943 652.445 167.763 651.695 167.763 650.845C167.763 649.995 167.948 649.245 168.318 648.595C168.698 647.945 169.213 647.445 169.863 647.095C170.513 646.735 171.238 646.555 172.038 646.555C172.838 646.555 173.563 646.735 174.213 647.095C174.863 647.445 175.373 647.945 175.743 648.595C176.123 649.245 176.313 649.995 176.313 650.845C176.313 651.695 176.118 652.445 175.728 653.095C175.348 653.745 174.828 654.25 174.168 654.61C173.518 654.96 172.788 655.135 171.978 655.135ZM171.978 653.305C172.358 653.305 172.713 653.215 173.043 653.035C173.383 652.845 173.653 652.565 173.853 652.195C174.053 651.825 174.153 651.375 174.153 650.845C174.153 650.055 173.943 649.45 173.523 649.03C173.113 648.6 172.608 648.385 172.008 648.385C171.408 648.385 170.903 648.6 170.493 649.03C170.093 649.45 169.893 650.055 169.893 650.845C169.893 651.635 170.088 652.245 170.478 652.675C170.878 653.095 171.378 653.305 171.978 653.305ZM188.008 649.63C188.598 649.74 189.083 650.035 189.463 650.515C189.843 650.995 190.033 651.545 190.033 652.165C190.033 652.725 189.893 653.22 189.613 653.65C189.343 654.07 188.948 654.4 188.428 654.64C187.908 654.88 187.293 655 186.583 655H182.068V644.53H186.388C187.098 644.53 187.708 644.645 188.218 644.875C188.738 645.105 189.128 645.425 189.388 645.835C189.658 646.245 189.793 646.71 189.793 647.23C189.793 647.84 189.628 648.35 189.298 648.76C188.978 649.17 188.548 649.46 188.008 649.63ZM184.168 648.85H186.088C186.588 648.85 186.973 648.74 187.243 648.52C187.513 648.29 187.648 647.965 187.648 647.545C187.648 647.125 187.513 646.8 187.243 646.57C186.973 646.34 186.588 646.225 186.088 646.225H184.168V648.85ZM186.283 653.29C186.793 653.29 187.188 653.17 187.468 652.93C187.758 652.69 187.903 652.35 187.903 651.91C187.903 651.46 187.753 651.11 187.453 650.86C187.153 650.6 186.748 650.47 186.238 650.47H184.168V653.29H186.283ZM191.486 650.815C191.486 649.975 191.651 649.23 191.981 648.58C192.321 647.93 192.776 647.43 193.346 647.08C193.926 646.73 194.571 646.555 195.281 646.555C195.901 646.555 196.441 646.68 196.901 646.93C197.371 647.18 197.746 647.495 198.026 647.875V646.69H200.141V655H198.026V653.785C197.756 654.175 197.381 654.5 196.901 654.76C196.431 655.01 195.886 655.135 195.266 655.135C194.566 655.135 193.926 654.955 193.346 654.595C192.776 654.235 192.321 653.73 191.981 653.08C191.651 652.42 191.486 651.665 191.486 650.815ZM198.026 650.845C198.026 650.335 197.926 649.9 197.726 649.54C197.526 649.17 197.256 648.89 196.916 648.7C196.576 648.5 196.211 648.4 195.821 648.4C195.431 648.4 195.071 648.495 194.741 648.685C194.411 648.875 194.141 649.155 193.931 649.525C193.731 649.885 193.631 650.315 193.631 650.815C193.631 651.315 193.731 651.755 193.931 652.135C194.141 652.505 194.411 652.79 194.741 652.99C195.081 653.19 195.441 653.29 195.821 653.29C196.211 653.29 196.576 653.195 196.916 653.005C197.256 652.805 197.526 652.525 197.726 652.165C197.926 651.795 198.026 651.355 198.026 650.845ZM201.972 650.845C201.972 649.985 202.147 649.235 202.497 648.595C202.847 647.945 203.332 647.445 203.952 647.095C204.572 646.735 205.282 646.555 206.082 646.555C207.112 646.555 207.962 646.815 208.632 647.335C209.312 647.845 209.767 648.565 209.997 649.495H207.732C207.612 649.135 207.407 648.855 207.117 648.655C206.837 648.445 206.487 648.34 206.067 648.34C205.467 648.34 204.992 648.56 204.642 649C204.292 649.43 204.117 650.045 204.117 650.845C204.117 651.635 204.292 652.25 204.642 652.69C204.992 653.12 205.467 653.335 206.067 653.335C206.917 653.335 207.472 652.955 207.732 652.195H209.997C209.767 653.095 209.312 653.81 208.632 654.34C207.952 654.87 207.102 655.135 206.082 655.135C205.282 655.135 204.572 654.96 203.952 654.61C203.332 654.25 202.847 653.75 202.497 653.11C202.147 652.46 201.972 651.705 201.972 650.845ZM216.776 655L213.956 651.46V655H211.856V643.9H213.956V650.215L216.746 646.69H219.476L215.816 650.86L219.506 655H216.776Z" fill="white"/>
</g>
</g>
<defs>
<filter id="filter0_d_70_12637" x="126.752" y="156.291" width="135.496" height="124.83" filterUnits="userSpaceOnUse" color-interpolation-filters="sRGB">
<feFlood flood-opacity="0" result="BackgroundImageFix"/>
<feColorMatrix in="SourceAlpha" type="matrix" values="0 0 0 0 0 0 0 0 0 0 0 0 0 0 0 0 0 0 127 0" result="hardAlpha"/>
<feOffset dy="20"/>
<feGaussianBlur stdDeviation="11"/>
<feColorMatrix type="matrix" values="0 0 0 0 0.0469255 0 0 0 0 0.264214 0 0 0 0 0.449378 0 0 0 0.5 0"/>
<feBlend mode="normal" in2="BackgroundImageFix" result="effect1_dropShadow_70_12637"/>
<feBlend mode="normal" in="SourceGraphic" in2="effect1_dropShadow_70_12637" result="shape"/>
</filter>
<filter id="filter1_d_70_12637" x="78" y="183" width="117.176" height="144.106" filterUnits="userSpaceOnUse" color-interpolation-filters="sRGB">
<feFlood flood-opacity="0" result="BackgroundImageFix"/>
<feColorMatrix in="SourceAlpha" type="matrix" values="0 0 0 0 0 0 0 0 0 0 0 0 0 0 0 0 0 0 127 0" result="hardAlpha"/>
<feOffset dy="2"/>
<feColorMatrix type="matrix" values="0 0 0 0 0.234731 0 0 0 0 0.347049 0 0 0 0 0.474516 0 0 0 1 0"/>
<feBlend mode="normal" in2="BackgroundImageFix" result="effect1_dropShadow_70_12637"/>
<feBlend mode="normal" in="SourceGraphic" in2="effect1_dropShadow_70_12637" result="shape"/>
</filter>
<filter id="filter2_d_70_12637" x="195" y="180" width="89.3579" height="147.106" filterUnits="userSpaceOnUse" color-interpolation-filters="sRGB">
<feFlood flood-opacity="0" result="BackgroundImageFix"/>
<feColorMatrix in="SourceAlpha" type="matrix" values="0 0 0 0 0 0 0 0 0 0 0 0 0 0 0 0 0 0 127 0" result="hardAlpha"/>
<feOffset dy="2"/>
<feColorMatrix type="matrix" values="0 0 0 0 0.234731 0 0 0 0 0.347049 0 0 0 0 0.474516 0 0 0 1 0"/>
<feBlend mode="normal" in2="BackgroundImageFix" result="effect1_dropShadow_70_12637"/>
<feBlend mode="normal" in="SourceGraphic" in2="effect1_dropShadow_70_12637" result="shape"/>
</filter>
<linearGradient id="paint0_linear_70_12637" x1="299.435" y1="254.436" x2="421.486" y2="159.727" gradientUnits="userSpaceOnUse">
<stop stop-color="#CCD3DC"/>
<stop offset="0.498548" stop-color="#E8EDF4"/>
<stop offset="1" stop-color="#F5F9FF"/>
</linearGradient>
<linearGradient id="paint1_linear_70_12637" x1="172.748" y1="-115.819" x2="-104.803" y2="38.3992" gradientUnits="userSpaceOnUse">
<stop stop-color="#F2F6FC"/>
<stop offset="1" stop-color="#C6D2DD"/>
</linearGradient>
<linearGradient id="paint2_linear_70_12637" x1="326.939" y1="357.032" x2="325.476" y2="260.46" gradientUnits="userSpaceOnUse">
<stop stop-color="white" stop-opacity="0.01"/>
<stop offset="1" stop-color="#A4BFD5"/>
</linearGradient>
<linearGradient id="paint3_linear_70_12637" x1="138.883" y1="127.889" x2="185.269" y2="158.746" gradientUnits="userSpaceOnUse">
<stop stop-color="#CDD6DE"/>
<stop offset="1" stop-color="#9FACBA"/>
</linearGradient>
<linearGradient id="paint4_linear_70_12637" x1="207.899" y1="149.297" x2="199.342" y2="187.857" gradientUnits="userSpaceOnUse">
<stop stop-color="#D8E2EA"/>
<stop offset="1" stop-color="#B0C1D0"/>
</linearGradient>
<linearGradient id="paint5_linear_70_12637" x1="169.933" y1="133.323" x2="150.41" y2="176.159" gradientUnits="userSpaceOnUse">
<stop stop-color="#FFE7C2"/>
<stop offset="1" stop-color="#FFCB8F"/>
</linearGradient>
<linearGradient id="paint6_linear_70_12637" x1="218.824" y1="133.323" x2="238.347" y2="176.159" gradientUnits="userSpaceOnUse">
<stop stop-color="#FFE7C2"/>
<stop offset="1" stop-color="#FFCB8F"/>
</linearGradient>
<linearGradient id="paint7_linear_70_12637" x1="161.327" y1="146.07" x2="157.132" y2="194.059" gradientUnits="userSpaceOnUse">
<stop stop-color="#FFE2B9"/>
<stop offset="1" stop-color="#FFC083"/>
</linearGradient>
<linearGradient id="paint8_linear_70_12637" x1="131.778" y1="296.483" x2="158.841" y2="243.291" gradientUnits="userSpaceOnUse">
<stop stop-color="white" stop-opacity="0.01"/>
<stop offset="1" stop-color="#132E3C"/>
</linearGradient>
<linearGradient id="paint9_linear_70_12637" x1="97.2214" y1="248.38" x2="91.5985" y2="279.024" gradientUnits="userSpaceOnUse">
<stop stop-color="#7B86A4"/>
<stop offset="1" stop-color="#454E6B"/>
</linearGradient>
<linearGradient id="paint10_linear_70_12637" x1="152.221" y1="263.183" x2="146.506" y2="294.069" gradientUnits="userSpaceOnUse">
<stop stop-color="#7B86A4"/>
<stop offset="1" stop-color="#454E6B"/>
</linearGradient>
<linearGradient id="paint11_linear_70_12637" x1="126.402" y1="254.216" x2="116.777" y2="284.361" gradientUnits="userSpaceOnUse">
<stop stop-color="#7B86A4"/>
<stop offset="1" stop-color="#454E6B"/>
</linearGradient>
<linearGradient id="paint12_linear_70_12637" x1="243.347" y1="295.879" x2="211.532" y2="249.178" gradientUnits="userSpaceOnUse">
<stop stop-color="white" stop-opacity="0.01"/>
<stop offset="1" stop-color="#132E3C"/>
</linearGradient>
<linearGradient id="paint13_linear_70_12637" x1="257.188" y1="195.659" x2="271.016" y2="240.912" gradientUnits="userSpaceOnUse">
<stop stop-color="#F1F6FA"/>
<stop offset="1" stop-color="#DEEAF4"/>
</linearGradient>
<linearGradient id="paint14_linear_70_12637" x1="80.2456" y1="189.167" x2="77.6795" y2="243.056" gradientUnits="userSpaceOnUse">
<stop stop-color="#F1F6FA"/>
<stop offset="1" stop-color="#DEEAF4"/>
</linearGradient>
<linearGradient id="paint15_linear_70_12637" x1="187.5" y1="600" x2="162.313" y2="693.193" gradientUnits="userSpaceOnUse">
<stop stop-color="#FF8960"/>
<stop offset="1" stop-color="#FF62A5"/>
</linearGradient>
<clipPath id="clip0_70_12637">
<rect width="375" height="812" fill="white"/>
</clipPath>
<clipPath id="clip1_70_12637">
<rect width="185" height="50" fill="white" transform="translate(95 625)"/>
</clipPath>
</defs>
</svg>
