<svg width="375" height="812" viewBox="0 0 375 812" fill="none" xmlns="http://www.w3.org/2000/svg">
<g clip-path="url(#clip0_70_12521)">
<rect width="375" height="812" fill="white"/>
<path d="M156.089 523.168C154.521 523.168 153.081 522.8 151.769 522.064C150.457 521.328 149.417 520.312 148.649 519.016C147.881 517.704 147.497 516.224 147.497 514.576C147.497 512.944 147.881 511.48 148.649 510.184C149.417 508.872 150.457 507.848 151.769 507.112C153.081 506.376 154.521 506.008 156.089 506.008C157.673 506.008 159.113 506.376 160.409 507.112C161.721 507.848 162.753 508.872 163.505 510.184C164.273 511.48 164.657 512.944 164.657 514.576C164.657 516.224 164.273 517.704 163.505 519.016C162.753 520.312 161.721 521.328 160.409 522.064C159.097 522.8 157.657 523.168 156.089 523.168ZM156.089 520.168C157.097 520.168 157.985 519.944 158.753 519.496C159.521 519.032 160.121 518.376 160.553 517.528C160.985 516.68 161.201 515.696 161.201 514.576C161.201 513.456 160.985 512.48 160.553 511.648C160.121 510.8 159.521 510.152 158.753 509.704C157.985 509.256 157.097 509.032 156.089 509.032C155.081 509.032 154.185 509.256 153.401 509.704C152.633 510.152 152.033 510.8 151.601 511.648C151.169 512.48 150.953 513.456 150.953 514.576C150.953 515.696 151.169 516.68 151.601 517.528C152.033 518.376 152.633 519.032 153.401 519.496C154.185 519.944 155.081 520.168 156.089 520.168ZM174.965 509.512C175.973 509.512 176.869 509.736 177.653 510.184C178.437 510.616 179.045 511.264 179.477 512.128C179.925 512.976 180.149 514 180.149 515.2V523H176.789V515.656C176.789 514.6 176.525 513.792 175.997 513.232C175.469 512.656 174.749 512.368 173.837 512.368C172.909 512.368 172.173 512.656 171.629 513.232C171.101 513.792 170.837 514.6 170.837 515.656V523H167.477V505.24H170.837V511.36C171.269 510.784 171.845 510.336 172.565 510.016C173.285 509.68 174.085 509.512 174.965 509.512ZM197.071 509.512C198.655 509.512 199.935 510.016 200.911 511.024C201.887 512.016 202.375 513.408 202.375 515.2V523H199.015V515.656C199.015 514.6 198.751 513.792 198.223 513.232C197.695 512.656 196.975 512.368 196.063 512.368C195.135 512.368 194.399 512.656 193.855 513.232C193.327 513.792 193.063 514.6 193.063 515.656V523H189.703V509.704H193.063V511.36C193.511 510.784 194.079 510.336 194.767 510.016C195.471 509.68 196.239 509.512 197.071 509.512ZM211.794 523.216C210.514 523.216 209.362 522.936 208.338 522.376C207.314 521.8 206.506 520.992 205.914 519.952C205.338 518.912 205.05 517.712 205.05 516.352C205.05 514.992 205.346 513.792 205.938 512.752C206.546 511.712 207.37 510.912 208.41 510.352C209.45 509.776 210.61 509.488 211.89 509.488C213.17 509.488 214.33 509.776 215.37 510.352C216.41 510.912 217.226 511.712 217.818 512.752C218.426 513.792 218.73 514.992 218.73 516.352C218.73 517.712 218.418 518.912 217.794 519.952C217.186 520.992 216.354 521.8 215.298 522.376C214.258 522.936 213.09 523.216 211.794 523.216ZM211.794 520.288C212.402 520.288 212.97 520.144 213.498 519.856C214.042 519.552 214.474 519.104 214.794 518.512C215.114 517.92 215.274 517.2 215.274 516.352C215.274 515.088 214.938 514.12 214.266 513.448C213.61 512.76 212.802 512.416 211.842 512.416C210.882 512.416 210.074 512.76 209.418 513.448C208.778 514.12 208.458 515.088 208.458 516.352C208.458 517.616 208.77 518.592 209.394 519.28C210.034 519.952 210.834 520.288 211.794 520.288ZM225.859 505.96L225.475 517.552H222.643L222.235 505.96H225.859ZM224.131 523.168C223.523 523.168 223.019 522.984 222.619 522.616C222.235 522.232 222.043 521.76 222.043 521.2C222.043 520.64 222.235 520.176 222.619 519.808C223.019 519.424 223.523 519.232 224.131 519.232C224.723 519.232 225.211 519.424 225.595 519.808C225.979 520.176 226.171 520.64 226.171 521.2C226.171 521.76 225.979 522.232 225.595 522.616C225.211 522.984 224.723 523.168 224.131 523.168Z" fill="#101828"/>
<path d="M100.52 560.105C99.8305 560.105 99.2105 559.985 98.6605 559.745C98.1205 559.495 97.6955 559.155 97.3855 558.725C97.0755 558.285 96.9155 557.78 96.9055 557.21H98.3605C98.4105 557.7 98.6105 558.115 98.9605 558.455C99.3205 558.785 99.8405 558.95 100.52 558.95C101.17 558.95 101.68 558.79 102.05 558.47C102.43 558.14 102.62 557.72 102.62 557.21C102.62 556.81 102.51 556.485 102.29 556.235C102.07 555.985 101.795 555.795 101.465 555.665C101.135 555.535 100.69 555.395 100.13 555.245C99.4405 555.065 98.8855 554.885 98.4655 554.705C98.0555 554.525 97.7005 554.245 97.4005 553.865C97.1105 553.475 96.9655 552.955 96.9655 552.305C96.9655 551.735 97.1105 551.23 97.4005 550.79C97.6905 550.35 98.0955 550.01 98.6155 549.77C99.1455 549.53 99.7505 549.41 100.43 549.41C101.41 549.41 102.21 549.655 102.83 550.145C103.46 550.635 103.815 551.285 103.895 552.095H102.395C102.345 551.695 102.135 551.345 101.765 551.045C101.395 550.735 100.905 550.58 100.295 550.58C99.7255 550.58 99.2605 550.73 98.9005 551.03C98.5405 551.32 98.3605 551.73 98.3605 552.26C98.3605 552.64 98.4655 552.95 98.6755 553.19C98.8955 553.43 99.1605 553.615 99.4705 553.745C99.7905 553.865 100.235 554.005 100.805 554.165C101.495 554.355 102.05 554.545 102.47 554.735C102.89 554.915 103.25 555.2 103.55 555.59C103.85 555.97 104 556.49 104 557.15C104 557.66 103.865 558.14 103.595 558.59C103.325 559.04 102.925 559.405 102.395 559.685C101.865 559.965 101.24 560.105 100.52 560.105ZM109.914 560.135C109.144 560.135 108.444 559.96 107.814 559.61C107.194 559.26 106.704 558.765 106.344 558.125C105.994 557.475 105.819 556.725 105.819 555.875C105.819 555.035 105.999 554.295 106.359 553.655C106.729 553.005 107.229 552.51 107.859 552.17C108.489 551.82 109.194 551.645 109.974 551.645C110.754 551.645 111.459 551.82 112.089 552.17C112.719 552.51 113.214 553 113.574 553.64C113.944 554.28 114.129 555.025 114.129 555.875C114.129 556.725 113.939 557.475 113.559 558.125C113.189 558.765 112.684 559.26 112.044 559.61C111.404 559.96 110.694 560.135 109.914 560.135ZM109.914 558.935C110.404 558.935 110.864 558.82 111.294 558.59C111.724 558.36 112.069 558.015 112.329 557.555C112.599 557.095 112.734 556.535 112.734 555.875C112.734 555.215 112.604 554.655 112.344 554.195C112.084 553.735 111.744 553.395 111.324 553.175C110.904 552.945 110.449 552.83 109.959 552.83C109.459 552.83 108.999 552.945 108.579 553.175C108.169 553.395 107.839 553.735 107.589 554.195C107.339 554.655 107.214 555.215 107.214 555.875C107.214 556.545 107.334 557.11 107.574 557.57C107.824 558.03 108.154 558.375 108.564 558.605C108.974 558.825 109.424 558.935 109.914 558.935ZM126.129 551.63C126.769 551.63 127.339 551.765 127.839 552.035C128.339 552.295 128.734 552.69 129.024 553.22C129.314 553.75 129.459 554.395 129.459 555.155V560H128.109V555.35C128.109 554.53 127.904 553.905 127.494 553.475C127.094 553.035 126.549 552.815 125.859 552.815C125.149 552.815 124.584 553.045 124.164 553.505C123.744 553.955 123.534 554.61 123.534 555.47V560H122.184V555.35C122.184 554.53 121.979 553.905 121.569 553.475C121.169 553.035 120.624 552.815 119.934 552.815C119.224 552.815 118.659 553.045 118.239 553.505C117.819 553.955 117.609 554.61 117.609 555.47V560H116.244V551.78H117.609V552.965C117.879 552.535 118.239 552.205 118.689 551.975C119.149 551.745 119.654 551.63 120.204 551.63C120.894 551.63 121.504 551.785 122.034 552.095C122.564 552.405 122.959 552.86 123.219 553.46C123.449 552.88 123.829 552.43 124.359 552.11C124.889 551.79 125.479 551.63 126.129 551.63ZM139.518 555.575C139.518 555.835 139.503 556.11 139.473 556.4H132.903C132.953 557.21 133.228 557.845 133.728 558.305C134.238 558.755 134.853 558.98 135.573 558.98C136.163 558.98 136.653 558.845 137.043 558.575C137.443 558.295 137.723 557.925 137.883 557.465H139.353C139.133 558.255 138.693 558.9 138.033 559.4C137.373 559.89 136.553 560.135 135.573 560.135C134.793 560.135 134.093 559.96 133.473 559.61C132.863 559.26 132.383 558.765 132.033 558.125C131.683 557.475 131.508 556.725 131.508 555.875C131.508 555.025 131.678 554.28 132.018 553.64C132.358 553 132.833 552.51 133.443 552.17C134.063 551.82 134.773 551.645 135.573 551.645C136.353 551.645 137.043 551.815 137.643 552.155C138.243 552.495 138.703 552.965 139.023 553.565C139.353 554.155 139.518 554.825 139.518 555.575ZM138.108 555.29C138.108 554.77 137.993 554.325 137.763 553.955C137.533 553.575 137.218 553.29 136.818 553.1C136.428 552.9 135.993 552.8 135.513 552.8C134.823 552.8 134.233 553.02 133.743 553.46C133.263 553.9 132.988 554.51 132.918 555.29H138.108ZM143.305 552.905V557.75C143.305 558.15 143.39 558.435 143.56 558.605C143.73 558.765 144.025 558.845 144.445 558.845H145.45V560H144.22C143.46 560 142.89 559.825 142.51 559.475C142.13 559.125 141.94 558.55 141.94 557.75V552.905H140.875V551.78H141.94V549.71H143.305V551.78H145.45V552.905H143.305ZM151.504 551.63C152.124 551.63 152.684 551.765 153.184 552.035C153.684 552.295 154.074 552.69 154.354 553.22C154.644 553.75 154.789 554.395 154.789 555.155V560H153.439V555.35C153.439 554.53 153.234 553.905 152.824 553.475C152.414 553.035 151.854 552.815 151.144 552.815C150.424 552.815 149.849 553.04 149.419 553.49C148.999 553.94 148.789 554.595 148.789 555.455V560H147.424V548.9H148.789V552.95C149.059 552.53 149.429 552.205 149.899 551.975C150.379 551.745 150.914 551.63 151.504 551.63ZM158.043 550.445C157.783 550.445 157.563 550.355 157.383 550.175C157.203 549.995 157.113 549.775 157.113 549.515C157.113 549.255 157.203 549.035 157.383 548.855C157.563 548.675 157.783 548.585 158.043 548.585C158.293 548.585 158.503 548.675 158.673 548.855C158.853 549.035 158.943 549.255 158.943 549.515C158.943 549.775 158.853 549.995 158.673 550.175C158.503 550.355 158.293 550.445 158.043 550.445ZM158.703 551.78V560H157.338V551.78H158.703ZM165.355 551.63C166.355 551.63 167.165 551.935 167.785 552.545C168.405 553.145 168.715 554.015 168.715 555.155V560H167.365V555.35C167.365 554.53 167.16 553.905 166.75 553.475C166.34 553.035 165.78 552.815 165.07 552.815C164.35 552.815 163.775 553.04 163.345 553.49C162.925 553.94 162.715 554.595 162.715 555.455V560H161.35V551.78H162.715V552.95C162.985 552.53 163.35 552.205 163.81 551.975C164.28 551.745 164.795 551.63 165.355 551.63ZM174.655 551.645C175.365 551.645 175.985 551.8 176.515 552.11C177.055 552.42 177.455 552.81 177.715 553.28V551.78H179.095V560.18C179.095 560.93 178.935 561.595 178.615 562.175C178.295 562.765 177.835 563.225 177.235 563.555C176.645 563.885 175.955 564.05 175.165 564.05C174.085 564.05 173.185 563.795 172.465 563.285C171.745 562.775 171.32 562.08 171.19 561.2H172.54C172.69 561.7 173 562.1 173.47 562.4C173.94 562.71 174.505 562.865 175.165 562.865C175.915 562.865 176.525 562.63 176.995 562.16C177.475 561.69 177.715 561.03 177.715 560.18V558.455C177.445 558.935 177.045 559.335 176.515 559.655C175.985 559.975 175.365 560.135 174.655 560.135C173.925 560.135 173.26 559.955 172.66 559.595C172.07 559.235 171.605 558.73 171.265 558.08C170.925 557.43 170.755 556.69 170.755 555.86C170.755 555.02 170.925 554.285 171.265 553.655C171.605 553.015 172.07 552.52 172.66 552.17C173.26 551.82 173.925 551.645 174.655 551.645ZM177.715 555.875C177.715 555.255 177.59 554.715 177.34 554.255C177.09 553.795 176.75 553.445 176.32 553.205C175.9 552.955 175.435 552.83 174.925 552.83C174.415 552.83 173.95 552.95 173.53 553.19C173.11 553.43 172.775 553.78 172.525 554.24C172.275 554.7 172.15 555.24 172.15 555.86C172.15 556.49 172.275 557.04 172.525 557.51C172.775 557.97 173.11 558.325 173.53 558.575C173.95 558.815 174.415 558.935 174.925 558.935C175.435 558.935 175.9 558.815 176.32 558.575C176.75 558.325 177.09 557.97 177.34 557.51C177.59 557.04 177.715 556.495 177.715 555.875ZM196.99 551.78L194.425 560H193.015L191.035 553.475L189.055 560H187.645L185.065 551.78H186.46L188.35 558.68L190.39 551.78H191.785L193.78 558.695L195.64 551.78H196.99ZM206.165 555.575C206.165 555.835 206.15 556.11 206.12 556.4H199.55C199.6 557.21 199.875 557.845 200.375 558.305C200.885 558.755 201.5 558.98 202.22 558.98C202.81 558.98 203.3 558.845 203.69 558.575C204.09 558.295 204.37 557.925 204.53 557.465H206C205.78 558.255 205.34 558.9 204.68 559.4C204.02 559.89 203.2 560.135 202.22 560.135C201.44 560.135 200.74 559.96 200.12 559.61C199.51 559.26 199.03 558.765 198.68 558.125C198.33 557.475 198.155 556.725 198.155 555.875C198.155 555.025 198.325 554.28 198.665 553.64C199.005 553 199.48 552.51 200.09 552.17C200.71 551.82 201.42 551.645 202.22 551.645C203 551.645 203.69 551.815 204.29 552.155C204.89 552.495 205.35 552.965 205.67 553.565C206 554.155 206.165 554.825 206.165 555.575ZM204.755 555.29C204.755 554.77 204.64 554.325 204.41 553.955C204.18 553.575 203.865 553.29 203.465 553.1C203.075 552.9 202.64 552.8 202.16 552.8C201.47 552.8 200.88 553.02 200.39 553.46C199.91 553.9 199.635 554.51 199.565 555.29H204.755ZM212.292 551.63C213.292 551.63 214.102 551.935 214.722 552.545C215.342 553.145 215.652 554.015 215.652 555.155V560H214.302V555.35C214.302 554.53 214.097 553.905 213.687 553.475C213.277 553.035 212.717 552.815 212.007 552.815C211.287 552.815 210.712 553.04 210.282 553.49C209.862 553.94 209.652 554.595 209.652 555.455V560H208.287V551.78H209.652V552.95C209.922 552.53 210.287 552.205 210.747 551.975C211.217 551.745 211.732 551.63 212.292 551.63ZM219.866 552.905V557.75C219.866 558.15 219.951 558.435 220.121 558.605C220.291 558.765 220.586 558.845 221.006 558.845H222.011V560H220.781C220.021 560 219.451 559.825 219.071 559.475C218.691 559.125 218.501 558.55 218.501 557.75V552.905H217.436V551.78H218.501V549.71H219.866V551.78H222.011V552.905H219.866ZM239.254 551.78L236.689 560H235.279L233.299 553.475L231.319 560H229.909L227.329 551.78H228.724L230.614 558.68L232.654 551.78H234.049L236.044 558.695L237.904 551.78H239.254ZM242.294 553.115C242.534 552.645 242.874 552.28 243.314 552.02C243.764 551.76 244.309 551.63 244.949 551.63V553.04H244.589C243.059 553.04 242.294 553.87 242.294 555.53V560H240.929V551.78H242.294V553.115ZM250.43 560.135C249.66 560.135 248.96 559.96 248.33 559.61C247.71 559.26 247.22 558.765 246.86 558.125C246.51 557.475 246.335 556.725 246.335 555.875C246.335 555.035 246.515 554.295 246.875 553.655C247.245 553.005 247.745 552.51 248.375 552.17C249.005 551.82 249.71 551.645 250.49 551.645C251.27 551.645 251.975 551.82 252.605 552.17C253.235 552.51 253.73 553 254.09 553.64C254.46 554.28 254.645 555.025 254.645 555.875C254.645 556.725 254.455 557.475 254.075 558.125C253.705 558.765 253.2 559.26 252.56 559.61C251.92 559.96 251.21 560.135 250.43 560.135ZM250.43 558.935C250.92 558.935 251.38 558.82 251.81 558.59C252.24 558.36 252.585 558.015 252.845 557.555C253.115 557.095 253.25 556.535 253.25 555.875C253.25 555.215 253.12 554.655 252.86 554.195C252.6 553.735 252.26 553.395 251.84 553.175C251.42 552.945 250.965 552.83 250.475 552.83C249.975 552.83 249.515 552.945 249.095 553.175C248.685 553.395 248.355 553.735 248.105 554.195C247.855 554.655 247.73 555.215 247.73 555.875C247.73 556.545 247.85 557.11 248.09 557.57C248.34 558.03 248.67 558.375 249.08 558.605C249.49 558.825 249.94 558.935 250.43 558.935ZM260.764 551.63C261.764 551.63 262.574 551.935 263.194 552.545C263.814 553.145 264.124 554.015 264.124 555.155V560H262.774V555.35C262.774 554.53 262.569 553.905 262.159 553.475C261.749 553.035 261.189 552.815 260.479 552.815C259.759 552.815 259.184 553.04 258.754 553.49C258.334 553.94 258.124 554.595 258.124 555.455V560H256.759V551.78H258.124V552.95C258.394 552.53 258.759 552.205 259.219 551.975C259.689 551.745 260.204 551.63 260.764 551.63ZM270.064 551.645C270.774 551.645 271.394 551.8 271.924 552.11C272.464 552.42 272.864 552.81 273.124 553.28V551.78H274.504V560.18C274.504 560.93 274.344 561.595 274.024 562.175C273.704 562.765 273.244 563.225 272.644 563.555C272.054 563.885 271.364 564.05 270.574 564.05C269.494 564.05 268.594 563.795 267.874 563.285C267.154 562.775 266.729 562.08 266.599 561.2H267.949C268.099 561.7 268.409 562.1 268.879 562.4C269.349 562.71 269.914 562.865 270.574 562.865C271.324 562.865 271.934 562.63 272.404 562.16C272.884 561.69 273.124 561.03 273.124 560.18V558.455C272.854 558.935 272.454 559.335 271.924 559.655C271.394 559.975 270.774 560.135 270.064 560.135C269.334 560.135 268.669 559.955 268.069 559.595C267.479 559.235 267.014 558.73 266.674 558.08C266.334 557.43 266.164 556.69 266.164 555.86C266.164 555.02 266.334 554.285 266.674 553.655C267.014 553.015 267.479 552.52 268.069 552.17C268.669 551.82 269.334 551.645 270.064 551.645ZM273.124 555.875C273.124 555.255 272.999 554.715 272.749 554.255C272.499 553.795 272.159 553.445 271.729 553.205C271.309 552.955 270.844 552.83 270.334 552.83C269.824 552.83 269.359 552.95 268.939 553.19C268.519 553.43 268.184 553.78 267.934 554.24C267.684 554.7 267.559 555.24 267.559 555.86C267.559 556.49 267.684 557.04 267.934 557.51C268.184 557.97 268.519 558.325 268.939 558.575C269.359 558.815 269.824 558.935 270.334 558.935C270.844 558.935 271.309 558.815 271.729 558.575C272.159 558.325 272.499 557.97 272.749 557.51C272.999 557.04 273.124 556.495 273.124 555.875ZM278.541 558.11L276.861 562.145H275.946L277.041 558.11H278.541ZM131.43 575.605C131.43 576.475 131.13 577.2 130.53 577.78C129.94 578.35 129.035 578.635 127.815 578.635H125.805V583H124.44V572.545H127.815C128.995 572.545 129.89 572.83 130.5 573.4C131.12 573.97 131.43 574.705 131.43 575.605ZM127.815 577.51C128.575 577.51 129.135 577.345 129.495 577.015C129.855 576.685 130.035 576.215 130.035 575.605C130.035 574.315 129.295 573.67 127.815 573.67H125.805V577.51H127.815ZM134.811 571.9V583H133.446V571.9H134.811ZM144.958 578.575C144.958 578.835 144.943 579.11 144.913 579.4H138.343C138.393 580.21 138.668 580.845 139.168 581.305C139.678 581.755 140.293 581.98 141.013 581.98C141.603 581.98 142.093 581.845 142.483 581.575C142.883 581.295 143.163 580.925 143.323 580.465H144.793C144.573 581.255 144.133 581.9 143.473 582.4C142.813 582.89 141.993 583.135 141.013 583.135C140.233 583.135 139.533 582.96 138.913 582.61C138.303 582.26 137.823 581.765 137.473 581.125C137.123 580.475 136.948 579.725 136.948 578.875C136.948 578.025 137.118 577.28 137.458 576.64C137.798 576 138.273 575.51 138.883 575.17C139.503 574.82 140.213 574.645 141.013 574.645C141.793 574.645 142.483 574.815 143.083 575.155C143.683 575.495 144.143 575.965 144.463 576.565C144.793 577.155 144.958 577.825 144.958 578.575ZM143.548 578.29C143.548 577.77 143.433 577.325 143.203 576.955C142.973 576.575 142.658 576.29 142.258 576.1C141.868 575.9 141.433 575.8 140.953 575.8C140.263 575.8 139.673 576.02 139.183 576.46C138.703 576.9 138.428 577.51 138.358 578.29H143.548ZM146.569 578.86C146.569 578.02 146.739 577.285 147.079 576.655C147.419 576.015 147.884 575.52 148.474 575.17C149.074 574.82 149.739 574.645 150.469 574.645C151.189 574.645 151.814 574.8 152.344 575.11C152.874 575.42 153.269 575.81 153.529 576.28V574.78H154.909V583H153.529V581.47C153.259 581.95 152.854 582.35 152.314 582.67C151.784 582.98 151.164 583.135 150.454 583.135C149.724 583.135 149.064 582.955 148.474 582.595C147.884 582.235 147.419 581.73 147.079 581.08C146.739 580.43 146.569 579.69 146.569 578.86ZM153.529 578.875C153.529 578.255 153.404 577.715 153.154 577.255C152.904 576.795 152.564 576.445 152.134 576.205C151.714 575.955 151.249 575.83 150.739 575.83C150.229 575.83 149.764 575.95 149.344 576.19C148.924 576.43 148.589 576.78 148.339 577.24C148.089 577.7 147.964 578.24 147.964 578.86C147.964 579.49 148.089 580.04 148.339 580.51C148.589 580.97 148.924 581.325 149.344 581.575C149.764 581.815 150.229 581.935 150.739 581.935C151.249 581.935 151.714 581.815 152.134 581.575C152.564 581.325 152.904 580.97 153.154 580.51C153.404 580.04 153.529 579.495 153.529 578.875ZM160.446 583.135C159.816 583.135 159.251 583.03 158.751 582.82C158.251 582.6 157.856 582.3 157.566 581.92C157.276 581.53 157.116 581.085 157.086 580.585H158.496C158.536 580.995 158.726 581.33 159.066 581.59C159.416 581.85 159.871 581.98 160.431 581.98C160.951 581.98 161.361 581.865 161.661 581.635C161.961 581.405 162.111 581.115 162.111 580.765C162.111 580.405 161.951 580.14 161.631 579.97C161.311 579.79 160.816 579.615 160.146 579.445C159.536 579.285 159.036 579.125 158.646 578.965C158.266 578.795 157.936 578.55 157.656 578.23C157.386 577.9 157.251 577.47 157.251 576.94C157.251 576.52 157.376 576.135 157.626 575.785C157.876 575.435 158.231 575.16 158.691 574.96C159.151 574.75 159.676 574.645 160.266 574.645C161.176 574.645 161.911 574.875 162.471 575.335C163.031 575.795 163.331 576.425 163.371 577.225H162.006C161.976 576.795 161.801 576.45 161.481 576.19C161.171 575.93 160.751 575.8 160.221 575.8C159.731 575.8 159.341 575.905 159.051 576.115C158.761 576.325 158.616 576.6 158.616 576.94C158.616 577.21 158.701 577.435 158.871 577.615C159.051 577.785 159.271 577.925 159.531 578.035C159.801 578.135 160.171 578.25 160.641 578.38C161.231 578.54 161.711 578.7 162.081 578.86C162.451 579.01 162.766 579.24 163.026 579.55C163.296 579.86 163.436 580.265 163.446 580.765C163.446 581.215 163.321 581.62 163.071 581.98C162.821 582.34 162.466 582.625 162.006 582.835C161.556 583.035 161.036 583.135 160.446 583.135ZM173.193 578.575C173.193 578.835 173.178 579.11 173.148 579.4H166.578C166.628 580.21 166.903 580.845 167.403 581.305C167.913 581.755 168.528 581.98 169.248 581.98C169.838 581.98 170.328 581.845 170.718 581.575C171.118 581.295 171.398 580.925 171.558 580.465H173.028C172.808 581.255 172.368 581.9 171.708 582.4C171.048 582.89 170.228 583.135 169.248 583.135C168.468 583.135 167.768 582.96 167.148 582.61C166.538 582.26 166.058 581.765 165.708 581.125C165.358 580.475 165.183 579.725 165.183 578.875C165.183 578.025 165.353 577.28 165.693 576.64C166.033 576 166.508 575.51 167.118 575.17C167.738 574.82 168.448 574.645 169.248 574.645C170.028 574.645 170.718 574.815 171.318 575.155C171.918 575.495 172.378 575.965 172.698 576.565C173.028 577.155 173.193 577.825 173.193 578.575ZM171.783 578.29C171.783 577.77 171.668 577.325 171.438 576.955C171.208 576.575 170.893 576.29 170.493 576.1C170.103 575.9 169.668 575.8 169.188 575.8C168.498 575.8 167.908 576.02 167.418 576.46C166.938 576.9 166.663 577.51 166.593 578.29H171.783ZM181.299 575.905V580.75C181.299 581.15 181.384 581.435 181.554 581.605C181.724 581.765 182.019 581.845 182.439 581.845H183.444V583H182.214C181.454 583 180.884 582.825 180.504 582.475C180.124 582.125 179.934 581.55 179.934 580.75V575.905H178.869V574.78H179.934V572.71H181.299V574.78H183.444V575.905H181.299ZM186.783 576.115C187.023 575.645 187.363 575.28 187.803 575.02C188.253 574.76 188.798 574.63 189.438 574.63V576.04H189.078C187.548 576.04 186.783 576.87 186.783 578.53V583H185.418V574.78H186.783V576.115ZM198.413 574.78L193.463 586.87H192.053L193.673 582.91L190.358 574.78H191.873L194.453 581.44L197.003 574.78H198.413ZM203.915 578.86C203.915 578.02 204.085 577.285 204.425 576.655C204.765 576.015 205.23 575.52 205.82 575.17C206.42 574.82 207.085 574.645 207.815 574.645C208.535 574.645 209.16 574.8 209.69 575.11C210.22 575.42 210.615 575.81 210.875 576.28V574.78H212.255V583H210.875V581.47C210.605 581.95 210.2 582.35 209.66 582.67C209.13 582.98 208.51 583.135 207.8 583.135C207.07 583.135 206.41 582.955 205.82 582.595C205.23 582.235 204.765 581.73 204.425 581.08C204.085 580.43 203.915 579.69 203.915 578.86ZM210.875 578.875C210.875 578.255 210.75 577.715 210.5 577.255C210.25 576.795 209.91 576.445 209.48 576.205C209.06 575.955 208.595 575.83 208.085 575.83C207.575 575.83 207.11 575.95 206.69 576.19C206.27 576.43 205.935 576.78 205.685 577.24C205.435 577.7 205.31 578.24 205.31 578.86C205.31 579.49 205.435 580.04 205.685 580.51C205.935 580.97 206.27 581.325 206.69 581.575C207.11 581.815 207.575 581.935 208.085 581.935C208.595 581.935 209.06 581.815 209.48 581.575C209.91 581.325 210.25 580.97 210.5 580.51C210.75 580.04 210.875 579.495 210.875 578.875ZM218.271 574.645C218.981 574.645 219.601 574.8 220.131 575.11C220.671 575.42 221.071 575.81 221.331 576.28V574.78H222.711V583.18C222.711 583.93 222.551 584.595 222.231 585.175C221.911 585.765 221.451 586.225 220.851 586.555C220.261 586.885 219.571 587.05 218.781 587.05C217.701 587.05 216.801 586.795 216.081 586.285C215.361 585.775 214.936 585.08 214.806 584.2H216.156C216.306 584.7 216.616 585.1 217.086 585.4C217.556 585.71 218.121 585.865 218.781 585.865C219.531 585.865 220.141 585.63 220.611 585.16C221.091 584.69 221.331 584.03 221.331 583.18V581.455C221.061 581.935 220.661 582.335 220.131 582.655C219.601 582.975 218.981 583.135 218.271 583.135C217.541 583.135 216.876 582.955 216.276 582.595C215.686 582.235 215.221 581.73 214.881 581.08C214.541 580.43 214.371 579.69 214.371 578.86C214.371 578.02 214.541 577.285 214.881 576.655C215.221 576.015 215.686 575.52 216.276 575.17C216.876 574.82 217.541 574.645 218.271 574.645ZM221.331 578.875C221.331 578.255 221.206 577.715 220.956 577.255C220.706 576.795 220.366 576.445 219.936 576.205C219.516 575.955 219.051 575.83 218.541 575.83C218.031 575.83 217.566 575.95 217.146 576.19C216.726 576.43 216.391 576.78 216.141 577.24C215.891 577.7 215.766 578.24 215.766 578.86C215.766 579.49 215.891 580.04 216.141 580.51C216.391 580.97 216.726 581.325 217.146 581.575C217.566 581.815 218.031 581.935 218.541 581.935C219.051 581.935 219.516 581.815 219.936 581.575C220.366 581.325 220.706 580.97 220.956 580.51C221.206 580.04 221.331 579.495 221.331 578.875ZM224.828 578.86C224.828 578.02 224.998 577.285 225.338 576.655C225.678 576.015 226.143 575.52 226.733 575.17C227.333 574.82 227.998 574.645 228.728 574.645C229.448 574.645 230.073 574.8 230.603 575.11C231.133 575.42 231.528 575.81 231.788 576.28V574.78H233.168V583H231.788V581.47C231.518 581.95 231.113 582.35 230.573 582.67C230.043 582.98 229.423 583.135 228.713 583.135C227.983 583.135 227.323 582.955 226.733 582.595C226.143 582.235 225.678 581.73 225.338 581.08C224.998 580.43 224.828 579.69 224.828 578.86ZM231.788 578.875C231.788 578.255 231.663 577.715 231.413 577.255C231.163 576.795 230.823 576.445 230.393 576.205C229.973 575.955 229.508 575.83 228.998 575.83C228.488 575.83 228.023 575.95 227.603 576.19C227.183 576.43 226.848 576.78 226.598 577.24C226.348 577.7 226.223 578.24 226.223 578.86C226.223 579.49 226.348 580.04 226.598 580.51C226.848 580.97 227.183 581.325 227.603 581.575C228.023 581.815 228.488 581.935 228.998 581.935C229.508 581.935 229.973 581.815 230.393 581.575C230.823 581.325 231.163 580.97 231.413 580.51C231.663 580.04 231.788 579.495 231.788 578.875ZM236.5 573.445C236.24 573.445 236.02 573.355 235.84 573.175C235.66 572.995 235.57 572.775 235.57 572.515C235.57 572.255 235.66 572.035 235.84 571.855C236.02 571.675 236.24 571.585 236.5 571.585C236.75 571.585 236.96 571.675 237.13 571.855C237.31 572.035 237.4 572.255 237.4 572.515C237.4 572.775 237.31 572.995 237.13 573.175C236.96 573.355 236.75 573.445 236.5 573.445ZM237.16 574.78V583H235.795V574.78H237.16ZM243.811 574.63C244.811 574.63 245.621 574.935 246.241 575.545C246.861 576.145 247.171 577.015 247.171 578.155V583H245.821V578.35C245.821 577.53 245.616 576.905 245.206 576.475C244.796 576.035 244.236 575.815 243.526 575.815C242.806 575.815 242.231 576.04 241.801 576.49C241.381 576.94 241.171 577.595 241.171 578.455V583H239.806V574.78H241.171V575.95C241.441 575.53 241.806 575.205 242.266 574.975C242.736 574.745 243.251 574.63 243.811 574.63ZM250.156 583.09C249.896 583.09 249.676 583 249.496 582.82C249.316 582.64 249.226 582.42 249.226 582.16C249.226 581.9 249.316 581.68 249.496 581.5C249.676 581.32 249.896 581.23 250.156 581.23C250.406 581.23 250.616 581.32 250.786 581.5C250.966 581.68 251.056 581.9 251.056 582.16C251.056 582.42 250.966 582.64 250.786 582.82C250.616 583 250.406 583.09 250.156 583.09Z" fill="#667085"/>
<path opacity="0.35" d="M338.667 17.8333H355.333C356.53 17.8333 357.5 18.8036 357.5 20.0002V26.0002C357.5 27.1967 356.53 28.1663 355.333 28.1663H338.667C337.47 28.1663 336.5 27.1967 336.5 26.0002V20.0002L336.511 19.7786C336.622 18.6859 337.545 17.8333 338.667 17.8333Z" stroke="black"/>
<path opacity="0.4" d="M359 21V25C359.805 24.6612 360.328 23.8731 360.328 23C360.328 22.1269 359.805 21.3388 359 21Z" fill="black"/>
<path d="M338 20.6666C338 19.9302 338.597 19.3333 339.333 19.3333H354.667C355.403 19.3333 356 19.9302 356 20.6666V25.3333C356 26.0696 355.403 26.6666 354.667 26.6666H339.333C338.597 26.6666 338 26.0696 338 25.3333V20.6666Z" fill="black"/>
<path fill-rule="evenodd" clip-rule="evenodd" d="M323.33 19.6079C325.546 19.608 327.678 20.4594 329.283 21.9862C329.404 22.1041 329.598 22.1026 329.717 21.9829L330.873 20.8162C330.933 20.7555 330.967 20.6733 330.966 20.5877C330.966 20.5021 330.931 20.4202 330.87 20.3602C326.655 16.3207 320.005 16.3207 315.79 20.3602C315.729 20.4202 315.694 20.502 315.694 20.5876C315.693 20.6732 315.727 20.7555 315.787 20.8162L316.943 21.9829C317.062 22.1028 317.256 22.1043 317.377 21.9862C318.983 20.4593 321.114 19.6079 323.33 19.6079ZM323.33 23.4036C324.548 23.4035 325.722 23.856 326.624 24.6732C326.747 24.7892 326.939 24.7867 327.058 24.6676L328.212 23.5009C328.273 23.4397 328.307 23.3567 328.306 23.2704C328.305 23.1842 328.27 23.1018 328.208 23.0419C325.46 20.4855 321.204 20.4855 318.455 23.0419C318.393 23.1018 318.358 23.1842 318.357 23.2705C318.356 23.3568 318.39 23.4398 318.451 23.5009L319.605 24.6676C319.724 24.7867 319.917 24.7892 320.039 24.6732C320.941 23.8566 322.114 23.4041 323.33 23.4036ZM325.643 25.9574C325.645 26.0439 325.611 26.1273 325.549 26.1879L323.552 28.2036C323.494 28.2628 323.414 28.2961 323.33 28.2961C323.247 28.2961 323.167 28.2628 323.109 28.2036L321.111 26.1879C321.049 26.1272 321.015 26.0438 321.017 25.9573C321.019 25.8708 321.057 25.7889 321.121 25.7309C322.396 24.652 324.265 24.652 325.54 25.7309C325.604 25.7889 325.642 25.8709 325.643 25.9574Z" fill="black"/>
<path fill-rule="evenodd" clip-rule="evenodd" d="M309.667 17.6665H308.667C308.114 17.6665 307.667 18.1142 307.667 18.6665V27.3332C307.667 27.8855 308.114 28.3332 308.667 28.3332H309.667C310.219 28.3332 310.667 27.8855 310.667 27.3332V18.6665C310.667 18.1142 310.219 17.6665 309.667 17.6665ZM304 19.9998H305C305.552 19.9998 306 20.4476 306 20.9998V27.3332C306 27.8855 305.552 28.3332 305 28.3332H304C303.448 28.3332 303 27.8855 303 27.3332V20.9998C303 20.4476 303.448 19.9998 304 19.9998ZM300.333 22.3332H299.333C298.781 22.3332 298.333 22.7809 298.333 23.3332V27.3332C298.333 27.8855 298.781 28.3332 299.333 28.3332H300.333C300.886 28.3332 301.333 27.8855 301.333 27.3332V23.3332C301.333 22.7809 300.886 22.3332 300.333 22.3332ZM295.667 24.3332H294.667C294.114 24.3332 293.667 24.7809 293.667 25.3332V27.3332C293.667 27.8855 294.114 28.3332 294.667 28.3332H295.667C296.219 28.3332 296.667 27.8855 296.667 27.3332V25.3332C296.667 24.7809 296.219 24.3332 295.667 24.3332Z" fill="black"/>
<path d="M37.3208 28.2563C40.0088 28.2563 41.6055 26.1543 41.6055 22.5947C41.6055 21.2544 41.3491 20.1265 40.8584 19.2549C40.1479 17.8999 38.9248 17.1675 37.3794 17.1675C35.0796 17.1675 33.4536 18.7129 33.4536 20.8809C33.4536 22.917 34.9185 24.3965 36.9326 24.3965C38.1704 24.3965 39.1738 23.8179 39.6719 22.8145H39.6938C39.6938 22.8145 39.7231 22.8145 39.7305 22.8145C39.7451 22.8145 39.7964 22.8145 39.7964 22.8145C39.7964 25.2314 38.8809 26.6743 37.3354 26.6743C36.4272 26.6743 35.7241 26.1763 35.4824 25.3779H33.6001C33.915 27.1138 35.3872 28.2563 37.3208 28.2563ZM37.3867 22.895C36.1709 22.895 35.3066 22.0308 35.3066 20.8223C35.3066 19.6431 36.2148 18.7422 37.394 18.7422C38.5732 18.7422 39.4814 19.6577 39.4814 20.8516C39.4814 22.0308 38.5952 22.895 37.3867 22.895Z" fill="black"/>
<path d="M44.6966 28.1538C45.3924 28.1538 45.8685 27.6558 45.8685 26.9966C45.8685 26.3301 45.3924 25.8394 44.6966 25.8394C44.0081 25.8394 43.5247 26.3301 43.5247 26.9966C43.5247 27.6558 44.0081 28.1538 44.6966 28.1538ZM44.6966 22.6606C45.3924 22.6606 45.8685 22.1699 45.8685 21.5107C45.8685 20.8442 45.3924 20.3535 44.6966 20.3535C44.0081 20.3535 43.5247 20.8442 43.5247 21.5107C43.5247 22.1699 44.0081 22.6606 44.6966 22.6606Z" fill="black"/>
<path d="M52.7242 28H54.5333V26.0298H55.9615V24.4331H54.5333V17.4312H51.8673C49.9996 20.2437 48.5128 22.5947 47.5606 24.3452V26.0298H52.7242V28ZM49.3111 24.3672C50.5416 22.1992 51.6402 20.4634 52.651 18.9692H52.7535V24.4771H49.3111V24.3672Z" fill="black"/>
<path d="M59.9901 28H61.8798V17.4312H59.9975L57.2362 19.3647V21.1812L59.8656 19.3354H59.9901V28Z" fill="black"/>
<rect x="121" y="799" width="134" height="5" rx="2.5" fill="black"/>
<g clip-path="url(#clip1_70_12521)">
<rect x="95" y="625" width="185" height="50" rx="25" fill="url(#paint0_linear_70_12521)"/>
<path d="M157.61 644.53V646.225H154.82V655H152.72V646.225H149.93V644.53H157.61ZM161.563 647.98C161.833 647.54 162.183 647.195 162.613 646.945C163.053 646.695 163.553 646.57 164.113 646.57V648.775H163.558C162.898 648.775 162.398 648.93 162.058 649.24C161.728 649.55 161.563 650.09 161.563 650.86V655H159.463V646.69H161.563V647.98ZM173.797 646.69L168.652 658.93H166.417L168.217 654.79L164.887 646.69H167.242L169.387 652.495L171.562 646.69H173.797ZM185.563 653.005H181.393L180.703 655H178.498L182.263 644.515H184.708L188.473 655H186.253L185.563 653.005ZM184.993 651.325L183.478 646.945L181.963 651.325H184.993ZM193.456 646.555C194.076 646.555 194.621 646.68 195.091 646.93C195.561 647.17 195.931 647.485 196.201 647.875V646.69H198.316V655.06C198.316 655.83 198.161 656.515 197.851 657.115C197.541 657.725 197.076 658.205 196.456 658.555C195.836 658.915 195.086 659.095 194.206 659.095C193.026 659.095 192.056 658.82 191.296 658.27C190.546 657.72 190.121 656.97 190.021 656.02H192.106C192.216 656.4 192.451 656.7 192.811 656.92C193.181 657.15 193.626 657.265 194.146 657.265C194.756 657.265 195.251 657.08 195.631 656.71C196.011 656.35 196.201 655.8 196.201 655.06V653.77C195.931 654.16 195.556 654.485 195.076 654.745C194.606 655.005 194.066 655.135 193.456 655.135C192.756 655.135 192.116 654.955 191.536 654.595C190.956 654.235 190.496 653.73 190.156 653.08C189.826 652.42 189.661 651.665 189.661 650.815C189.661 649.975 189.826 649.23 190.156 648.58C190.496 647.93 190.951 647.43 191.521 647.08C192.101 646.73 192.746 646.555 193.456 646.555ZM196.201 650.845C196.201 650.335 196.101 649.9 195.901 649.54C195.701 649.17 195.431 648.89 195.091 648.7C194.751 648.5 194.386 648.4 193.996 648.4C193.606 648.4 193.246 648.495 192.916 648.685C192.586 648.875 192.316 649.155 192.106 649.525C191.906 649.885 191.806 650.315 191.806 650.815C191.806 651.315 191.906 651.755 192.106 652.135C192.316 652.505 192.586 652.79 192.916 652.99C193.256 653.19 193.616 653.29 193.996 653.29C194.386 653.29 194.751 653.195 195.091 653.005C195.431 652.805 195.701 652.525 195.901 652.165C196.101 651.795 196.201 651.355 196.201 650.845ZM200.147 650.815C200.147 649.975 200.312 649.23 200.642 648.58C200.982 647.93 201.437 647.43 202.007 647.08C202.587 646.73 203.232 646.555 203.942 646.555C204.562 646.555 205.102 646.68 205.562 646.93C206.032 647.18 206.407 647.495 206.687 647.875V646.69H208.802V655H206.687V653.785C206.417 654.175 206.042 654.5 205.562 654.76C205.092 655.01 204.547 655.135 203.927 655.135C203.227 655.135 202.587 654.955 202.007 654.595C201.437 654.235 200.982 653.73 200.642 653.08C200.312 652.42 200.147 651.665 200.147 650.815ZM206.687 650.845C206.687 650.335 206.587 649.9 206.387 649.54C206.187 649.17 205.917 648.89 205.577 648.7C205.237 648.5 204.872 648.4 204.482 648.4C204.092 648.4 203.732 648.495 203.402 648.685C203.072 648.875 202.802 649.155 202.592 649.525C202.392 649.885 202.292 650.315 202.292 650.815C202.292 651.315 202.392 651.755 202.592 652.135C202.802 652.505 203.072 652.79 203.402 652.99C203.742 653.19 204.102 653.29 204.482 653.29C204.872 653.29 205.237 653.195 205.577 653.005C205.917 652.805 206.187 652.525 206.387 652.165C206.587 651.795 206.687 651.355 206.687 650.845ZM212.238 645.7C211.868 645.7 211.558 645.585 211.308 645.355C211.068 645.115 210.948 644.82 210.948 644.47C210.948 644.12 211.068 643.83 211.308 643.6C211.558 643.36 211.868 643.24 212.238 643.24C212.608 643.24 212.913 643.36 213.153 643.6C213.403 643.83 213.528 644.12 213.528 644.47C213.528 644.82 213.403 645.115 213.153 645.355C212.913 645.585 212.608 645.7 212.238 645.7ZM213.273 646.69V655H211.173V646.69H213.273ZM220.273 646.57C221.263 646.57 222.063 646.885 222.673 647.515C223.283 648.135 223.588 649.005 223.588 650.125V655H221.488V650.41C221.488 649.75 221.323 649.245 220.993 648.895C220.663 648.535 220.213 648.355 219.643 648.355C219.063 648.355 218.603 648.535 218.263 648.895C217.933 649.245 217.768 649.75 217.768 650.41V655H215.668V646.69H217.768V647.725C218.048 647.365 218.403 647.085 218.833 646.885C219.273 646.675 219.753 646.57 220.273 646.57Z" fill="white"/>
</g>
<ellipse cx="139.255" cy="368.079" rx="58.5" ry="11.5" fill="#FFD3F8"/>
<ellipse cx="155.255" cy="380.079" rx="58.5" ry="11.5" fill="#FFD3F8"/>
<ellipse cx="175.255" cy="369.079" rx="58.5" ry="11.5" fill="#FFD3F8"/>
<path fill-rule="evenodd" clip-rule="evenodd" d="M150.574 291.787L257.927 226.366C260.939 224.531 264.68 227.209 263.913 230.651L238.282 345.75C238.282 345.75 223.52 324.442 200.389 310.21C177.258 295.979 150.574 291.787 150.574 291.787Z" fill="url(#paint1_linear_70_12521)"/>
<path fill-rule="evenodd" clip-rule="evenodd" d="M150.574 291.787L257.927 226.366C260.939 224.531 264.68 227.209 263.913 230.651L238.282 345.75C238.282 345.75 223.52 324.442 200.389 310.21C177.258 295.979 150.574 291.787 150.574 291.787Z" fill="url(#paint2_linear_70_12521)" style="mix-blend-mode:overlay"/>
<mask id="mask0_70_12521" style="mask-type:luminance" maskUnits="userSpaceOnUse" x="150" y="225" width="115" height="121">
<path fill-rule="evenodd" clip-rule="evenodd" d="M150.574 291.787L257.927 226.366C260.939 224.531 264.68 227.209 263.913 230.651L238.282 345.75C238.282 345.75 223.52 324.442 200.389 310.21C177.258 295.979 150.574 291.787 150.574 291.787Z" fill="white"/>
<path fill-rule="evenodd" clip-rule="evenodd" d="M150.574 291.787L257.927 226.366C260.939 224.531 264.68 227.209 263.913 230.651L238.282 345.75C238.282 345.75 223.52 324.442 200.389 310.21C177.258 295.979 150.574 291.787 150.574 291.787Z" stroke="white"/>
</mask>
<g mask="url(#mask0_70_12521)">
<g style="mix-blend-mode:soft-light">
<path d="M194.755 263.579C194.755 263.579 232.084 258.447 251.007 298.45" stroke="#8C4545" stroke-width="3"/>
</g>
<g style="mix-blend-mode:soft-light">
<path d="M178.755 274.579C178.755 274.579 225.016 270.342 247.755 323.579" stroke="#8C4545" stroke-width="3"/>
</g>
<g style="mix-blend-mode:soft-light">
<path d="M206.755 251.579C206.755 251.579 244.574 243.105 263.007 286.45" stroke="#8C4545" stroke-width="3"/>
</g>
<g style="mix-blend-mode:soft-light">
<path d="M215.122 240.736C215.122 240.736 258.484 231.204 271.496 274.322" stroke="#8C4545" stroke-width="3"/>
</g>
<g style="mix-blend-mode:soft-light">
<path d="M239.381 231.515C239.381 231.515 265.305 226.145 270.381 252.515" stroke="#8C4545" stroke-width="3"/>
</g>
<g style="mix-blend-mode:soft-light">
<path d="M206.568 312.782C206.568 311.205 207.377 277.102 187.755 257.579" stroke="#8C4545" stroke-width="3"/>
</g>
<g style="mix-blend-mode:soft-light">
<path d="M227.568 310.782C227.568 309.205 228.377 275.102 208.755 255.579" stroke="#8C4545" stroke-width="3"/>
</g>
<g style="mix-blend-mode:soft-light">
<path d="M247.749 310.782C247.749 308.948 248.738 269.284 224.755 246.579" stroke="#8C4545" stroke-width="3"/>
</g>
<g style="mix-blend-mode:soft-light">
<path d="M260.749 294.782C260.749 292.948 261.738 253.284 237.755 230.579" stroke="#8C4545" stroke-width="3"/>
</g>
</g>
<circle cx="175.255" cy="319.079" r="37.5" fill="url(#paint3_linear_70_12521)"/>
<ellipse cx="175.545" cy="342.616" rx="48.3175" ry="29.9637" fill="url(#paint4_linear_70_12521)"/>
<circle cx="203.255" cy="333.079" r="37.5" fill="url(#paint5_linear_70_12521)"/>
<path d="M177.085 342.64C179.141 347.52 182.081 348.634 185.005 349.521" stroke="#ADFFFC" stroke-width="4" stroke-linecap="round" stroke-linejoin="round"/>
<path d="M120.576 378.341C115.998 376.056 113.67 376.863 111.514 377.819" stroke="#ADFFFC" stroke-width="4" stroke-linecap="round" stroke-linejoin="round"/>
<path d="M155.695 317.358C158.981 317.195 160.256 315.715 161.395 314.197" stroke="white" stroke-width="4" stroke-linecap="round" stroke-linejoin="round"/>
<path d="M174.061 369.928C174.877 370.157 175.958 370.035 177.029 369.897" stroke="white" stroke-width="4" stroke-linecap="round" stroke-linejoin="round"/>
<path d="M167.491 292.519C166.093 295.497 166.801 297.317 167.607 299.036" stroke="#C4A2FF" stroke-width="4" stroke-linecap="round" stroke-linejoin="round"/>
<path d="M191.5 380.41C190.326 380.126 189.937 380.322 189.599 380.539" stroke="#C4A2FF" stroke-width="4" stroke-linecap="round" stroke-linejoin="round"/>
<path d="M147.558 344.179C142.643 346.15 141.478 349.07 140.54 351.978" stroke="#FFA6EA" stroke-width="4" stroke-linecap="round" stroke-linejoin="round"/>
<path d="M199.376 320.223C196.799 322.423 196.689 324.05 196.714 325.612" stroke="#D6FFA9" stroke-width="4" stroke-linecap="round" stroke-linejoin="round"/>
<path d="M119.312 363.438C121.675 364.323 122.775 363.807 123.784 363.227" stroke="#D6FFA9" stroke-width="4" stroke-linecap="round" stroke-linejoin="round"/>
<path d="M223.785 334.393C220.275 332.717 218.517 333.361 216.891 334.116" stroke="#FFAFAF" stroke-width="4" stroke-linecap="round" stroke-linejoin="round"/>
<path d="M146.063 378.74C147.533 379.926 149.583 380.136 151.621 380.29" stroke="#FFAFAF" stroke-width="4" stroke-linecap="round" stroke-linejoin="round"/>
<rect x="150.755" y="318.579" width="8" height="22" rx="4" fill="#746CA0"/>
<rect x="174.755" y="318.579" width="8" height="22" rx="4" fill="#746CA0"/>
<path d="M159.255 353.079C159.255 353.079 163.727 350.079 168.235 350.079C172.743 350.079 177.275 353.079 177.275 353.079" stroke="#746CA0" stroke-width="3" stroke-linecap="round" stroke-linejoin="round"/>
<path opacity="0.5" d="M289.12 269.869C322.106 203.16 270.024 185.72 270.024 185.72C234.471 182.757 220.201 207.571 202.477 210.38C168.562 215.756 139.517 187.857 145.465 160.559C147.71 150.256 175.35 137.495 182.504 184.655C185.024 201.269 181.261 219.26 152.924 227.761C112.104 240.007 89.5168 192.711 87.4125 191.315" stroke="url(#paint6_linear_70_12521)" stroke-width="4" stroke-linecap="round" stroke-linejoin="round" stroke-dasharray="4 10"/>
<ellipse opacity="0.4" cx="67.639" cy="183.55" rx="8.00354" ry="10.5357" transform="rotate(-120 67.639 183.55)" fill="#CED8E5"/>
<ellipse opacity="0.4" cx="91.8613" cy="168.95" rx="8.00354" ry="10.5357" transform="rotate(60 91.8613 168.95)" fill="#CED8E5"/>
<path d="M76.9174 182.294C73.4605 181.368 71.4091 177.814 72.3354 174.357L74.2362 167.263L81.3119 169.159C84.7688 170.086 86.8202 173.639 85.894 177.096L83.9931 184.19L76.9174 182.294Z" fill="#A8B7C5"/>
<mask id="mask1_70_12521" style="mask-type:luminance" maskUnits="userSpaceOnUse" x="72" y="167" width="15" height="18">
<path d="M76.9174 182.294C73.4605 181.368 71.4091 177.814 72.3354 174.357L74.2362 167.263L81.3119 169.159C84.7688 170.086 86.8202 173.639 85.894 177.096L83.9931 184.19L76.9174 182.294Z" fill="white"/>
</mask>
<g mask="url(#mask1_70_12521)">
<rect x="73.74" y="183.949" width="2.18278" height="15.9851" transform="rotate(-120 73.74 183.949)" fill="#DDE5F2"/>
<path fill-rule="evenodd" clip-rule="evenodd" d="M71.3611 178.791L70.2694 176.901L84.1122 168.911L85.204 170.801L71.3611 178.791Z" fill="#DDE5F2"/>
</g>
<path d="M72.8163 159.198L72.9697 153.742" stroke="#8696C5" stroke-width="0.72"/>
<path d="M70.1458 160.743L65.5964 157.408" stroke="#8696C5" stroke-width="0.72"/>
<ellipse cx="73.3974" cy="164.779" rx="5.82076" ry="5.81278" transform="rotate(-75 73.3974 164.779)" fill="#8B9AA8"/>
</g>
<defs>
<linearGradient id="paint0_linear_70_12521" x1="187.5" y1="600" x2="162.313" y2="693.193" gradientUnits="userSpaceOnUse">
<stop stop-color="#FF8960"/>
<stop offset="1" stop-color="#FF62A5"/>
</linearGradient>
<linearGradient id="paint1_linear_70_12521" x1="174.289" y1="267.14" x2="237.011" y2="335.731" gradientUnits="userSpaceOnUse">
<stop stop-color="#FFF2D2"/>
<stop offset="1" stop-color="#FFE0A6"/>
</linearGradient>
<linearGradient id="paint2_linear_70_12521" x1="206.905" y1="246.864" x2="177.815" y2="278.633" gradientUnits="userSpaceOnUse">
<stop stop-opacity="0.01"/>
<stop offset="1"/>
</linearGradient>
<linearGradient id="paint3_linear_70_12521" x1="105.408" y1="335.611" x2="160.911" y2="374.861" gradientUnits="userSpaceOnUse">
<stop stop-color="#FFEFFD"/>
<stop offset="1" stop-color="#FFDBF9"/>
</linearGradient>
<linearGradient id="paint4_linear_70_12521" x1="88.8725" y1="346.692" x2="128.397" y2="399.062" gradientUnits="userSpaceOnUse">
<stop stop-color="#FFEFFD"/>
<stop offset="1" stop-color="#FFDBF9"/>
</linearGradient>
<linearGradient id="paint5_linear_70_12521" x1="139.902" y1="330.767" x2="186.286" y2="373.192" gradientUnits="userSpaceOnUse">
<stop stop-color="#FFEFFD"/>
<stop offset="1" stop-color="#FFDBF9"/>
</linearGradient>
<linearGradient id="paint6_linear_70_12521" x1="298.591" y1="102.184" x2="118.349" y2="80.0741" gradientUnits="userSpaceOnUse">
<stop stop-color="#95ABC2" stop-opacity="0.244084"/>
<stop offset="1" stop-color="#5C738E"/>
</linearGradient>
<clipPath id="clip0_70_12521">
<rect width="375" height="812" fill="white"/>
</clipPath>
<clipPath id="clip1_70_12521">
<rect width="185" height="50" fill="white" transform="translate(95 625)"/>
</clipPath>
</defs>
</svg>
