<svg width="375" height="812" viewBox="0 0 375 812" fill="none" xmlns="http://www.w3.org/2000/svg">
<g clip-path="url(#clip0_13_9642)">
<rect width="375" height="812" fill="white"/>
<path d="M97.3372 495.168V501H100.697V495.168L106.361 484.248H102.617L99.0412 491.904L95.4412 484.248H91.6492L97.3372 495.168ZM121.459 494.352C121.459 490.152 118.459 487.488 114.619 487.488C110.779 487.488 107.779 490.152 107.779 494.352C107.779 498.528 110.683 501.216 114.523 501.216C118.387 501.216 121.459 498.528 121.459 494.352ZM111.187 494.352C111.187 491.688 112.795 490.416 114.571 490.416C116.347 490.416 118.003 491.688 118.003 494.352C118.003 496.992 116.299 498.288 114.523 498.288C112.723 498.288 111.187 496.992 111.187 494.352ZM136.796 487.704H133.412V495.024C133.412 497.16 132.26 498.312 130.436 498.312C128.66 498.312 127.484 497.16 127.484 495.024V487.704H124.124V495.504C124.124 499.152 126.356 501.168 129.452 501.168C131.108 501.168 132.572 500.448 133.412 499.32V501H136.796V487.704ZM139.975 486.936H142.255L142.543 481.848H139.663L139.975 486.936ZM148.798 494.376C148.798 491.808 149.998 491.04 151.99 491.04H152.878V487.512C151.03 487.512 149.638 488.4 148.798 489.768V487.704H145.438V501H148.798V494.376ZM161.173 490.248C162.901 490.248 164.293 491.352 164.341 493.104H158.029C158.293 491.28 159.565 490.248 161.173 490.248ZM167.485 496.824H163.861C163.429 497.712 162.637 498.432 161.197 498.432C159.517 498.432 158.173 497.328 158.005 495.36H167.725C167.797 494.928 167.821 494.496 167.821 494.064C167.821 490.104 165.109 487.488 161.269 487.488C157.333 487.488 154.597 490.152 154.597 494.352C154.597 498.528 157.405 501.216 161.269 501.216C164.557 501.216 166.765 499.272 167.485 496.824ZM175.769 494.304C175.769 498.456 178.457 501.216 181.817 501.216C183.929 501.216 185.441 500.208 186.233 499.056V501H189.617V487.704H186.233V489.6C185.441 488.496 183.977 487.488 181.841 487.488C178.457 487.488 175.769 490.152 175.769 494.304ZM186.233 494.352C186.233 496.872 184.553 498.264 182.705 498.264C180.905 498.264 179.201 496.824 179.201 494.304C179.201 491.784 180.905 490.44 182.705 490.44C184.553 490.44 186.233 491.832 186.233 494.352ZM193.218 501H196.578V483.24H193.218V501ZM200.218 501H203.578V483.24H200.218V501ZM212.392 494.304C212.392 498.456 215.08 501.216 218.464 501.216C220.552 501.216 222.04 500.256 222.832 499.032V501H226.24V483.24H222.832V489.552C221.92 488.304 220.24 487.488 218.488 487.488C215.08 487.488 212.392 490.152 212.392 494.304ZM222.856 494.352C222.856 496.872 221.176 498.264 219.328 498.264C217.528 498.264 215.824 496.824 215.824 494.304C215.824 491.784 217.528 490.44 219.328 490.44C221.176 490.44 222.856 491.832 222.856 494.352ZM242.682 494.352C242.682 490.152 239.682 487.488 235.842 487.488C232.002 487.488 229.002 490.152 229.002 494.352C229.002 498.528 231.906 501.216 235.746 501.216C239.61 501.216 242.682 498.528 242.682 494.352ZM232.41 494.352C232.41 491.688 234.018 490.416 235.794 490.416C237.57 490.416 239.226 491.688 239.226 494.352C239.226 496.992 237.522 498.288 235.746 498.288C233.946 498.288 232.41 496.992 232.41 494.352ZM254.779 501H258.139V493.2C258.139 489.528 255.931 487.512 252.835 487.512C251.131 487.512 249.691 488.232 248.827 489.36V487.704H245.467V501H248.827V493.656C248.827 491.52 250.003 490.368 251.827 490.368C253.603 490.368 254.779 491.52 254.779 493.656V501ZM267.366 490.248C269.094 490.248 270.486 491.352 270.534 493.104H264.222C264.486 491.28 265.758 490.248 267.366 490.248ZM273.678 496.824H270.054C269.622 497.712 268.83 498.432 267.39 498.432C265.71 498.432 264.366 497.328 264.198 495.36H273.918C273.99 494.928 274.014 494.496 274.014 494.064C274.014 490.104 271.302 487.488 267.462 487.488C263.526 487.488 260.79 490.152 260.79 494.352C260.79 498.528 263.598 501.216 267.462 501.216C270.75 501.216 272.958 499.272 273.678 496.824ZM277.914 495.552H280.746L281.13 483.96H277.506L277.914 495.552ZM281.442 499.2C281.442 498.096 280.578 497.232 279.402 497.232C278.178 497.232 277.314 498.096 277.314 499.2C277.314 500.304 278.178 501.168 279.402 501.168C280.578 501.168 281.442 500.304 281.442 499.2Z" fill="#101828"/>
<path d="M112.995 527.545V538H118.02V536.89H114.36V527.545H112.995ZM123.285 530.8C124.695 530.8 125.895 531.685 125.88 533.29H120.69C120.84 531.685 121.95 530.8 123.285 530.8ZM127.125 535.465H125.655C125.355 536.35 124.575 536.98 123.345 536.98C121.95 536.98 120.78 536.065 120.675 534.4H127.245C127.275 534.115 127.29 533.875 127.29 533.575C127.29 531.325 125.73 529.645 123.345 529.645C120.945 529.645 119.28 531.28 119.28 533.875C119.28 536.485 121.005 538.135 123.345 538.135C125.385 538.135 126.705 536.965 127.125 535.465ZM129.712 535.75C129.712 537.4 130.537 538 131.992 538H133.222V536.845H132.217C131.377 536.845 131.077 536.56 131.077 535.75V530.905H133.222V529.78H131.077V527.71H129.712V529.78H128.647V530.905H129.712V535.75ZM134.761 529.045H135.706L135.886 526.06H134.566L134.761 529.045ZM143.813 535.765C143.753 532.825 138.983 533.89 138.983 531.94C138.983 531.28 139.583 530.8 140.588 530.8C141.683 530.8 142.313 531.4 142.373 532.225H143.738C143.648 530.62 142.448 529.645 140.633 529.645C138.803 529.645 137.618 530.68 137.618 531.94C137.618 535 142.478 533.935 142.478 535.765C142.478 536.44 141.878 536.98 140.798 536.98C139.643 536.98 138.938 536.38 138.863 535.585H137.453C137.543 537.085 138.893 538.135 140.813 538.135C142.628 538.135 143.813 537.115 143.813 535.765ZM153.874 530.8C155.284 530.8 156.484 531.685 156.469 533.29H151.279C151.429 531.685 152.539 530.8 153.874 530.8ZM157.714 535.465H156.244C155.944 536.35 155.164 536.98 153.934 536.98C152.539 536.98 151.369 536.065 151.264 534.4H157.834C157.864 534.115 157.879 533.875 157.879 533.575C157.879 531.325 156.319 529.645 153.934 529.645C151.534 529.645 149.869 531.28 149.869 533.875C149.869 536.485 151.594 538.135 153.934 538.135C155.974 538.135 157.294 536.965 157.714 535.465ZM166.016 538H167.366V533.155C167.366 530.8 165.911 529.63 164.006 529.63C162.896 529.63 161.906 530.095 161.366 530.95V529.78H160.001V538H161.366V533.455C161.366 531.685 162.326 530.815 163.721 530.815C165.101 530.815 166.016 531.67 166.016 533.35V538ZM170.651 528.445C171.161 528.445 171.566 528.04 171.566 527.515C171.566 526.99 171.161 526.585 170.651 526.585C170.141 526.585 169.736 526.99 169.736 527.515C169.736 528.04 170.141 528.445 170.651 528.445ZM169.961 529.78V539.755C169.961 540.475 169.676 540.745 168.926 540.745H168.356V541.9H169.151C170.546 541.9 171.326 541.27 171.326 539.785V529.78H169.961ZM181.756 533.875C181.756 531.28 179.941 529.645 177.601 529.645C175.276 529.645 173.446 531.28 173.446 533.875C173.446 536.485 175.216 538.135 177.541 538.135C179.881 538.135 181.756 536.485 181.756 533.875ZM174.841 533.875C174.841 531.805 176.146 530.83 177.586 530.83C178.996 530.83 180.361 531.805 180.361 533.875C180.361 535.96 178.966 536.935 177.541 536.935C176.116 536.935 174.841 535.96 174.841 533.875ZM186.991 536.44L184.411 529.78H182.896L186.211 537.91L184.591 541.87H186.001L190.951 529.78H189.541L186.991 536.44ZM200.082 536.44L197.502 529.78H195.987L199.302 537.91L197.682 541.87H199.092L204.042 529.78H202.632L200.082 536.44ZM213.534 533.875C213.534 531.28 211.719 529.645 209.379 529.645C207.054 529.645 205.224 531.28 205.224 533.875C205.224 536.485 206.994 538.135 209.319 538.135C211.659 538.135 213.534 536.485 213.534 533.875ZM206.619 533.875C206.619 531.805 207.924 530.83 209.364 530.83C210.774 530.83 212.139 531.805 212.139 533.875C212.139 535.96 210.744 536.935 209.319 536.935C207.894 536.935 206.619 535.96 206.619 533.875ZM222.939 529.78H221.574V534.295C221.574 536.065 220.629 536.935 219.219 536.935C217.839 536.935 216.924 536.08 216.924 534.415V529.78H215.574V534.595C215.574 536.95 217.059 538.12 218.949 538.12C220.044 538.12 221.049 537.64 221.574 536.785V538H222.939V529.78ZM226.929 533.53C226.929 531.625 227.919 531.04 229.224 531.04H229.584V529.63C228.279 529.63 227.394 530.2 226.929 531.115V529.78H225.564V538H226.929V533.53ZM235.289 533.86C235.289 536.41 236.984 538.135 239.189 538.135C240.689 538.135 241.754 537.37 242.249 536.455V538H243.629V526.9H242.249V531.25C241.679 530.305 240.494 529.645 239.204 529.645C236.984 529.645 235.289 531.295 235.289 533.86ZM242.249 533.875C242.249 535.81 240.959 536.935 239.459 536.935C237.959 536.935 236.684 535.795 236.684 533.86C236.684 531.925 237.959 530.83 239.459 530.83C240.959 530.83 242.249 531.97 242.249 533.875ZM245.745 533.86C245.745 536.41 247.44 538.135 249.63 538.135C251.145 538.135 252.21 537.355 252.705 536.47V538H254.085V529.78H252.705V531.28C252.225 530.425 251.175 529.645 249.645 529.645C247.44 529.645 245.745 531.295 245.745 533.86ZM252.705 533.875C252.705 535.81 251.415 536.935 249.915 536.935C248.415 536.935 247.14 535.795 247.14 533.86C247.14 531.925 248.415 530.83 249.915 530.83C251.415 530.83 252.705 531.97 252.705 533.875ZM259.832 536.44L257.252 529.78H255.737L259.052 537.91L257.432 541.87H258.842L263.792 529.78H262.382L259.832 536.44ZM266.819 537.16C266.819 536.635 266.414 536.23 265.919 536.23C265.394 536.23 264.989 536.635 264.989 537.16C264.989 537.685 265.394 538.09 265.919 538.09C266.414 538.09 266.819 537.685 266.819 537.16Z" fill="#667085"/>
<path opacity="0.35" d="M338.667 17.8334H355.333C356.53 17.8334 357.5 18.8037 357.5 20.0004V26.0004C357.5 27.1968 356.53 28.1664 355.333 28.1664H338.667C337.47 28.1664 336.5 27.1968 336.5 26.0004V20.0004L336.511 19.7787C336.622 18.686 337.545 17.8334 338.667 17.8334Z" stroke="black"/>
<path opacity="0.4" d="M359 21V25C359.805 24.6612 360.328 23.8731 360.328 23C360.328 22.1269 359.805 21.3388 359 21Z" fill="black"/>
<path d="M338 20.6667C338 19.9303 338.597 19.3334 339.333 19.3334H354.667C355.403 19.3334 356 19.9303 356 20.6667V25.3334C356 26.0698 355.403 26.6667 354.667 26.6667H339.333C338.597 26.6667 338 26.0698 338 25.3334V20.6667Z" fill="black"/>
<path fill-rule="evenodd" clip-rule="evenodd" d="M323.33 19.608C325.546 19.6081 327.677 20.4596 329.283 21.9863C329.404 22.1042 329.597 22.1027 329.716 21.983L330.872 20.8163C330.933 20.7556 330.966 20.6734 330.966 20.5878C330.965 20.5022 330.931 20.4204 330.87 20.3603C326.655 16.3208 320.005 16.3208 315.79 20.3603C315.729 20.4203 315.694 20.5021 315.693 20.5877C315.693 20.6733 315.726 20.7556 315.787 20.8163L316.943 21.983C317.062 22.1029 317.255 22.1044 317.376 21.9863C318.982 20.4595 321.114 19.608 323.33 19.608ZM323.33 23.4037C324.547 23.4036 325.721 23.8561 326.624 24.6733C326.746 24.7893 326.938 24.7868 327.057 24.6677L328.212 23.501C328.273 23.4398 328.307 23.3568 328.306 23.2705C328.305 23.1843 328.269 23.102 328.207 23.042C325.459 20.4856 321.203 20.4856 318.455 23.042C318.393 23.102 318.357 23.1843 318.357 23.2706C318.356 23.3569 318.39 23.4399 318.451 23.501L319.605 24.6677C319.724 24.7868 319.916 24.7893 320.038 24.6733C320.94 23.8567 322.113 23.4042 323.33 23.4037ZM325.643 25.9575C325.645 26.044 325.611 26.1274 325.549 26.188L323.552 28.2037C323.493 28.2629 323.413 28.2963 323.33 28.2963C323.247 28.2963 323.167 28.2629 323.108 28.2037L321.111 26.188C321.049 26.1274 321.015 26.0439 321.017 25.9574C321.019 25.8709 321.056 25.789 321.12 25.731C322.396 24.6521 324.264 24.6521 325.54 25.731C325.604 25.7891 325.641 25.871 325.643 25.9575Z" fill="black"/>
<path fill-rule="evenodd" clip-rule="evenodd" d="M309.666 17.6666H308.666C308.114 17.6666 307.666 18.1143 307.666 18.6666V27.3333C307.666 27.8856 308.114 28.3333 308.666 28.3333H309.666C310.218 28.3333 310.666 27.8856 310.666 27.3333V18.6666C310.666 18.1143 310.218 17.6666 309.666 17.6666ZM303.999 20H304.999C305.552 20 305.999 20.4477 305.999 21V27.3333C305.999 27.8856 305.552 28.3333 304.999 28.3333H303.999C303.447 28.3333 302.999 27.8856 302.999 27.3333V21C302.999 20.4477 303.447 20 303.999 20ZM300.333 22.3333H299.333C298.78 22.3333 298.333 22.781 298.333 23.3333V27.3333C298.333 27.8856 298.78 28.3333 299.333 28.3333H300.333C300.885 28.3333 301.333 27.8856 301.333 27.3333V23.3333C301.333 22.781 300.885 22.3333 300.333 22.3333ZM295.666 24.3333H294.666C294.114 24.3333 293.666 24.781 293.666 25.3333V27.3333C293.666 27.8856 294.114 28.3333 294.666 28.3333H295.666C296.218 28.3333 296.666 27.8856 296.666 27.3333V25.3333C296.666 24.781 296.218 24.3333 295.666 24.3333Z" fill="black"/>
<path d="M37.3203 28.2563C40.0083 28.2563 41.605 26.1543 41.605 22.5947C41.605 21.2544 41.3486 20.1265 40.8579 19.2549C40.1475 17.8999 38.9243 17.1675 37.3789 17.1675C35.0791 17.1675 33.4531 18.7129 33.4531 20.8809C33.4531 22.917 34.918 24.3965 36.9321 24.3965C38.1699 24.3965 39.1733 23.8179 39.6714 22.8145H39.6934C39.6934 22.8145 39.7227 22.8145 39.73 22.8145C39.7446 22.8145 39.7959 22.8145 39.7959 22.8145C39.7959 25.2314 38.8804 26.6743 37.335 26.6743C36.4268 26.6743 35.7236 26.1763 35.4819 25.3779H33.5996C33.9146 27.1138 35.3867 28.2563 37.3203 28.2563ZM37.3862 22.895C36.1704 22.895 35.3062 22.0308 35.3062 20.8223C35.3062 19.6431 36.2144 18.7422 37.3936 18.7422C38.5728 18.7422 39.481 19.6577 39.481 20.8516C39.481 22.0308 38.5947 22.895 37.3862 22.895Z" fill="black"/>
<path d="M44.6961 28.1538C45.3919 28.1538 45.868 27.6558 45.868 26.9966C45.868 26.3301 45.3919 25.8394 44.6961 25.8394C44.0076 25.8394 43.5242 26.3301 43.5242 26.9966C43.5242 27.6558 44.0076 28.1538 44.6961 28.1538ZM44.6961 22.6606C45.3919 22.6606 45.868 22.1699 45.868 21.5107C45.868 20.8442 45.3919 20.3535 44.6961 20.3535C44.0076 20.3535 43.5242 20.8442 43.5242 21.5107C43.5242 22.1699 44.0076 22.6606 44.6961 22.6606Z" fill="black"/>
<path d="M52.7237 28H54.5328V26.0298H55.961V24.4331H54.5328V17.4312H51.8668C49.9991 20.2437 48.5123 22.5947 47.5602 24.3452V26.0298H52.7237V28ZM49.3106 24.3672C50.5411 22.1992 51.6397 20.4634 52.6505 18.9692H52.753V24.4771H49.3106V24.3672Z" fill="black"/>
<path d="M59.9896 28H61.8793V17.4312H59.997L57.2357 19.3647V21.1812L59.8651 19.3354H59.9896V28Z" fill="black"/>
<rect x="121" y="799" width="134" height="5" rx="2.5" fill="black"/>
<path fill-rule="evenodd" clip-rule="evenodd" d="M234.197 237.354C279.338 237.354 315.937 273.954 315.937 319.094C315.937 364.234 279.338 400.834 234.197 400.834C189.048 400.834 152.457 364.234 152.457 319.094C152.457 273.954 189.048 237.354 234.197 237.354ZM281.548 321.534C290.458 318.644 295.327 309.074 292.437 300.164C289.548 291.264 279.977 286.384 271.067 289.284C262.168 292.174 257.288 301.744 260.187 310.644C263.077 319.554 272.647 324.434 281.548 321.534ZM273.937 344.954C268.437 337.374 257.838 335.694 250.258 341.204C242.677 346.704 240.998 357.314 246.508 364.884C252.008 372.464 262.617 374.144 270.187 368.634C277.767 363.134 279.447 352.524 273.937 344.954ZM217.237 274.814C217.237 284.174 224.827 291.764 234.197 291.764C243.557 291.764 251.147 284.174 251.147 274.814C251.147 265.444 243.557 257.854 234.197 257.854C224.827 257.854 217.237 265.444 217.237 274.814ZM221.887 364.884C227.387 357.314 225.708 346.704 218.128 341.204C210.557 335.694 199.947 337.374 194.447 344.954C188.937 352.524 190.617 363.134 198.197 368.634C205.777 374.144 216.378 372.464 221.887 364.884ZM175.947 300.164C173.057 309.074 177.927 318.644 186.837 321.534C195.747 324.434 205.307 319.554 208.208 310.644C211.097 301.744 206.227 292.174 197.318 289.284C188.407 286.384 178.847 291.264 175.947 300.164Z" fill="#FEFEFE"/>
<path fill-rule="evenodd" clip-rule="evenodd" d="M284.601 319.094C284.601 346.932 262.034 369.499 234.195 369.499C206.357 369.499 183.789 346.932 183.789 319.094C183.789 291.256 206.357 268.688 234.195 268.688C262.034 268.688 284.601 291.256 284.601 319.094Z" fill="#E8E9EB"/>
<path fill-rule="evenodd" clip-rule="evenodd" d="M281.101 319.094C281.101 344.999 260.101 366 234.195 366C208.289 366 187.289 344.999 187.289 319.094C187.289 293.188 208.289 272.188 234.195 272.188C260.101 272.188 281.101 293.188 281.101 319.094Z" fill="#2C2C36"/>
<path fill-rule="evenodd" clip-rule="evenodd" d="M281.548 321.534C272.648 324.434 263.077 319.555 260.188 310.644C257.288 301.744 262.168 292.174 271.068 289.284C279.978 286.384 289.548 291.264 292.438 300.164C295.327 309.074 290.458 318.644 281.548 321.534ZM270.188 368.635C262.617 374.144 252.008 372.465 246.508 364.885C240.998 357.314 242.678 346.704 250.258 341.204C257.838 335.694 268.438 337.374 273.938 344.954C279.447 352.524 277.768 363.135 270.188 368.635ZM217.237 274.814C217.237 265.444 224.827 257.854 234.197 257.854C243.558 257.854 251.148 265.444 251.148 274.814C251.148 284.174 243.558 291.764 234.197 291.764C224.827 291.764 217.237 284.174 217.237 274.814ZM221.888 364.885C216.378 372.465 205.777 374.144 198.198 368.635C190.618 363.135 188.938 352.524 194.448 344.954C199.948 337.374 210.558 335.694 218.128 341.204C225.708 346.704 227.388 357.314 221.888 364.885ZM175.948 300.164C178.848 291.264 188.408 286.384 197.318 289.284C206.228 292.174 211.098 301.744 208.208 310.644C205.308 319.555 195.748 324.434 186.838 321.534C177.928 318.644 173.058 309.074 175.948 300.164ZM234.197 241.754C191.478 241.754 156.848 276.374 156.848 319.095C156.848 361.805 191.478 396.434 234.197 396.434C276.907 396.434 311.538 361.805 311.538 319.095C311.538 276.374 276.907 241.754 234.197 241.754Z" fill="#E8E9EB"/>
<path fill-rule="evenodd" clip-rule="evenodd" d="M281.745 274.748C281.386 274.64 281.118 274.424 280.943 274.1L271.732 257.712C271.627 257.56 271.49 257.323 271.323 257C271.155 256.679 270.907 256.11 270.578 255.295C270.249 254.479 269.98 253.663 269.772 252.846C269.564 252.029 269.445 251.081 269.415 250C269.384 248.919 269.508 247.915 269.786 246.988C270.699 243.941 272.292 241.824 274.565 240.634C276.839 239.444 279.526 239.314 282.628 240.244C283.486 240.501 284.317 240.913 285.121 241.478C285.925 242.043 286.636 242.694 287.252 243.43C287.869 244.165 288.388 244.838 288.809 245.447C289.23 246.056 289.615 246.685 289.964 247.332C290.612 246.983 291.279 246.67 291.966 246.394C292.652 246.117 293.456 245.84 294.376 245.565C295.296 245.29 296.247 245.138 297.229 245.108C298.212 245.078 299.132 245.192 299.99 245.449C303.092 246.379 305.265 247.966 306.509 250.21C307.752 252.454 307.918 255.099 307.005 258.145C306.087 261.205 303.567 263.845 299.446 266.065L282.771 274.648C282.447 274.823 282.105 274.856 281.745 274.748Z" fill="url(#paint0_linear_13_9642)"/>
<path fill-rule="evenodd" clip-rule="evenodd" d="M324.498 231.067C324.364 231.092 324.241 231.067 324.132 230.99L318.432 227.216C318.372 227.184 318.288 227.13 318.181 227.054C318.073 226.978 317.898 226.835 317.657 226.626C317.415 226.416 317.192 226.197 316.99 225.967C316.787 225.737 316.591 225.45 316.402 225.106C316.213 224.761 316.086 224.416 316.022 224.069C315.812 222.932 315.977 221.982 316.515 221.22C317.053 220.458 317.9 219.97 319.059 219.756C319.379 219.697 319.716 219.692 320.07 219.742C320.424 219.791 320.762 219.884 321.083 220.02C321.405 220.155 321.685 220.287 321.922 220.414C322.159 220.541 322.388 220.681 322.608 220.832C322.76 220.612 322.924 220.4 323.101 220.196C323.276 219.993 323.49 219.77 323.743 219.528C323.995 219.287 324.277 219.08 324.59 218.907C324.903 218.734 325.22 218.618 325.54 218.559C326.698 218.345 327.664 218.498 328.439 219.018C329.214 219.538 329.706 220.366 329.916 221.504C330.127 222.646 329.75 223.918 328.785 225.32L324.813 230.864C324.738 230.975 324.633 231.042 324.498 231.067Z" fill="url(#paint1_linear_13_9642)"/>
<path fill-rule="evenodd" clip-rule="evenodd" d="M247.88 319.094C247.88 326.652 241.753 332.778 234.195 332.778C226.638 332.778 220.512 326.652 220.512 319.094C220.512 311.536 226.638 305.41 234.195 305.41C241.753 305.41 247.88 311.536 247.88 319.094Z" fill="#AFB0B5"/>
<path fill-rule="evenodd" clip-rule="evenodd" d="M243.871 319.094C243.871 324.438 239.539 328.77 234.194 328.77C228.85 328.77 224.518 324.438 224.518 319.094C224.518 313.75 228.85 309.418 234.194 309.418C239.539 309.418 243.871 313.75 243.871 319.094Z" fill="#1A1A24"/>
<path fill-rule="evenodd" clip-rule="evenodd" d="M125.724 317.275C124.412 322.003 119.516 324.771 114.789 323.459C110.062 322.147 107.293 317.251 108.605 312.524C109.917 307.796 114.813 305.028 119.54 306.34C124.268 307.652 127.036 312.548 125.724 317.275Z" fill="#FBCF0A"/>
<path fill-rule="evenodd" clip-rule="evenodd" d="M113.312 313.83C112 318.557 107.104 321.326 102.377 320.014C97.65 318.702 94.881 313.806 96.193 309.079C97.505 304.351 102.401 301.583 107.128 302.895C111.856 304.207 114.624 309.103 113.312 313.83Z" fill="#FBE381"/>
<path fill-rule="evenodd" clip-rule="evenodd" d="M144.917 315.037C143.605 319.764 138.709 322.533 133.982 321.221C129.255 319.909 126.486 315.013 127.798 310.286C129.11 305.558 134.006 302.79 138.733 304.102C143.46 305.414 146.229 310.31 144.917 315.037Z" fill="#FBCF0A"/>
<path fill-rule="evenodd" clip-rule="evenodd" d="M132.507 311.593C131.195 316.321 126.299 319.089 121.572 317.777C116.845 316.465 114.076 311.569 115.388 306.842C116.7 302.114 121.596 299.346 126.323 300.658C131.05 301.97 133.819 306.866 132.507 311.593Z" fill="#FBE381"/>
<path fill-rule="evenodd" clip-rule="evenodd" d="M128.549 296.245C130.036 291.57 135.031 288.986 139.706 290.473C144.382 291.96 146.966 296.955 145.479 301.63C143.992 306.306 138.996 308.89 134.321 307.403C129.646 305.916 127.062 300.92 128.549 296.245Z" fill="#FBCF0A"/>
<path fill-rule="evenodd" clip-rule="evenodd" d="M106 296.245C107.487 291.57 112.482 288.986 117.158 290.473C121.833 291.96 124.417 296.955 122.93 301.63C121.443 306.306 116.448 308.89 111.772 307.403C107.097 305.916 104.513 300.92 106 296.245Z" fill="#FBCF0A"/>
<path fill-rule="evenodd" clip-rule="evenodd" d="M158.377 282.379C159.864 277.704 164.859 275.119 169.535 276.606C174.21 278.093 176.794 283.089 175.307 287.764C173.82 292.439 168.825 295.024 164.149 293.536C159.475 292.049 156.89 287.054 158.377 282.379Z" fill="#FBCF0A"/>
<path fill-rule="evenodd" clip-rule="evenodd" d="M140.823 300.149C142.31 295.474 147.306 292.889 151.981 294.377C156.656 295.863 159.24 300.859 157.753 305.534C156.266 310.209 151.271 312.794 146.596 311.307C141.921 309.819 139.336 304.824 140.823 300.149Z" fill="#FBE381"/>
<path fill-rule="evenodd" clip-rule="evenodd" d="M143.553 312.443C145.04 307.768 150.035 305.184 154.711 306.671C159.386 308.157 161.97 313.153 160.483 317.828C158.996 322.503 154.001 325.088 149.325 323.601C144.65 322.113 142.066 317.118 143.553 312.443Z" fill="#FBCF0A"/>
<path fill-rule="evenodd" clip-rule="evenodd" d="M155.827 316.346C157.314 311.671 162.309 309.087 166.984 310.574C171.66 312.061 174.244 317.056 172.757 321.732C171.27 326.407 166.275 328.992 161.599 327.504C156.924 326.017 154.34 321.022 155.827 316.346Z" fill="#FBE381"/>
<path fill-rule="evenodd" clip-rule="evenodd" d="M144.21 298.588C139.496 297.23 136.775 292.307 138.133 287.593C139.492 282.879 144.414 280.158 149.128 281.516C153.842 282.875 156.563 287.797 155.205 292.511C153.847 297.226 148.924 299.946 144.21 298.588Z" fill="#FBCF0A"/>
<path fill-rule="evenodd" clip-rule="evenodd" d="M160.883 317.034C156.169 315.676 153.448 310.753 154.807 306.039C156.165 301.325 161.088 298.604 165.802 299.963C170.516 301.321 173.237 306.243 171.878 310.958C170.52 315.672 165.597 318.392 160.883 317.034Z" fill="#FBCF0A"/>
<path fill-rule="evenodd" clip-rule="evenodd" d="M170.717 303.533C166.003 302.175 163.282 297.252 164.64 292.538C165.999 287.824 170.921 285.103 175.635 286.461C180.35 287.82 183.07 292.742 181.712 297.456C180.354 302.171 175.431 304.891 170.717 303.533Z" fill="#FBCF0A"/>
<path fill-rule="evenodd" clip-rule="evenodd" d="M173.82 317.753C169.106 316.395 166.385 311.472 167.744 306.758C169.102 302.044 174.025 299.323 178.739 300.682C183.453 302.04 186.174 306.962 184.815 311.677C183.457 316.391 178.534 319.111 173.82 317.753Z" fill="#FBE381"/>
<path fill-rule="evenodd" clip-rule="evenodd" d="M189.212 301.344C194.117 301.411 198.04 305.443 197.972 310.348C197.905 315.254 193.874 319.176 188.968 319.109C184.063 319.041 180.141 315.01 180.208 310.105C180.275 305.199 184.306 301.277 189.212 301.344Z" fill="#FBCF0A"/>
<path fill-rule="evenodd" clip-rule="evenodd" d="M182.47 288.445C187.375 288.512 191.298 292.544 191.23 297.449C191.163 302.355 187.132 306.277 182.226 306.21C177.321 306.142 173.399 302.111 173.466 297.206C173.533 292.3 177.565 288.378 182.47 288.445Z" fill="#FBE381"/>
<path fill-rule="evenodd" clip-rule="evenodd" d="M155.499 302.492C150.785 301.134 148.064 296.211 149.422 291.497C150.781 286.783 155.704 284.062 160.417 285.421C165.132 286.779 167.853 291.701 166.494 296.416C165.136 301.13 160.213 303.85 155.499 302.492Z" fill="#FBE381"/>
<path fill-rule="evenodd" clip-rule="evenodd" d="M122.86 302.492C118.146 301.134 115.425 296.211 116.783 291.497C118.142 286.783 123.065 284.062 127.778 285.421C132.493 286.779 135.213 291.701 133.855 296.416C132.497 301.13 127.574 303.85 122.86 302.492Z" fill="#FBE381"/>
<path fill-rule="evenodd" clip-rule="evenodd" d="M130.658 293.607C125.944 292.249 123.223 287.326 124.582 282.612C125.94 277.898 130.863 275.177 135.576 276.536C140.291 277.894 143.012 282.816 141.653 287.531C140.295 292.245 135.372 294.965 130.658 293.607Z" fill="#FBE381"/>
<path fill-rule="evenodd" clip-rule="evenodd" d="M189.865 325.787V325.796L188.645 331.303L174.275 396.253L173.778 398.494C173.318 400.558 171.479 402.04 169.359 402.04H117.044C114.999 402.04 113.208 400.671 112.682 398.691L112.026 396.262V396.253L94.7001 332.231L92.9551 325.787V325.777C93.1151 319.718 97.9271 314.849 103.846 314.849C107.833 314.849 111.303 317.062 113.217 320.346C113.226 320.365 113.236 320.384 113.245 320.402C115.14 317.091 118.63 314.849 122.635 314.849C126.631 314.849 130.121 317.091 132.025 320.402C132.025 320.402 132.025 320.392 132.034 320.392C133.929 317.091 137.409 314.849 141.415 314.849C145.355 314.849 148.806 317.025 150.72 320.262C150.748 320.308 150.777 320.355 150.804 320.402C152.699 317.091 156.189 314.849 160.195 314.849C164.2 314.849 167.689 317.091 169.584 320.402C169.603 320.374 169.622 320.346 169.64 320.318C171.535 317.054 175.006 314.849 178.974 314.849C184.893 314.849 189.705 319.726 189.865 325.787Z" fill="#F1F2F6"/>
<path fill-rule="evenodd" clip-rule="evenodd" d="M134.886 402.04H122.757L122.082 396.253L113.217 320.346C113.226 320.365 113.236 320.384 113.245 320.402C115.14 317.091 118.63 314.849 122.635 314.849C126.631 314.849 130.121 317.091 132.025 320.402C132.025 320.402 132.025 320.393 132.034 320.393L134.679 396.253L134.886 402.04Z" fill="url(#paint2_linear_13_9642)"/>
<path fill-rule="evenodd" clip-rule="evenodd" d="M169.641 320.318L160.57 396.253L159.876 402.04H146.668L146.959 396.253L150.721 320.261C150.749 320.308 150.777 320.355 150.805 320.402C152.7 317.09 156.19 314.849 160.195 314.849C164.201 314.849 167.69 317.09 169.585 320.402C169.604 320.374 169.622 320.345 169.641 320.318Z" fill="url(#paint3_linear_13_9642)"/>
<path fill-rule="evenodd" clip-rule="evenodd" d="M174.274 396.253L173.777 398.494C173.317 400.559 171.479 402.04 169.358 402.04H117.044C114.999 402.04 113.207 400.671 112.682 398.691L112.025 396.262V396.253H174.274Z" fill="#DCDCDC"/>
<path fill-rule="evenodd" clip-rule="evenodd" d="M125.32 396.253C125.32 401.434 121.12 405.633 115.939 405.633C110.758 405.633 106.559 401.434 106.559 396.253C106.559 391.072 110.758 386.872 115.939 386.872C121.12 386.872 125.32 391.072 125.32 396.253Z" fill="#FBCF0A"/>
<path fill-rule="evenodd" clip-rule="evenodd" d="M111.716 396.253C111.716 401.434 107.516 405.633 102.336 405.633C97.1551 405.633 92.9551 401.434 92.9551 396.253C92.9551 391.072 97.1551 386.872 102.336 386.872C107.516 386.872 111.716 391.072 111.716 396.253Z" fill="#FBE381"/>
<path fill-rule="evenodd" clip-rule="evenodd" d="M223.503 251.397L202.582 293.028C201.925 294.336 200.325 294.865 199.018 294.208C197.711 293.551 197.172 291.947 197.83 290.64L218.776 248.958C219.445 247.689 221.032 247.184 222.323 247.833C222.977 248.161 223.438 248.729 223.65 249.371C223.717 249.572 223.763 249.795 223.771 250.009C223.812 250.47 223.727 250.953 223.503 251.397Z" fill="url(#paint4_linear_13_9642)"/>
<path fill-rule="evenodd" clip-rule="evenodd" d="M223.502 251.397L222.475 253.442L217.09 252.311L218.775 248.958L223.77 250.009C223.811 250.47 223.726 250.953 223.502 251.397Z" fill="#FEFEFE"/>
<path fill-rule="evenodd" clip-rule="evenodd" d="M221.073 256.233L219.387 259.586L214.004 258.455L215.688 255.102L221.073 256.233Z" fill="#FEFEFE"/>
<path fill-rule="evenodd" clip-rule="evenodd" d="M217.985 262.377L216.3 265.73L210.912 264.607L212.596 261.254L217.985 262.377Z" fill="#FEFEFE"/>
<path fill-rule="evenodd" clip-rule="evenodd" d="M214.892 268.529L213.207 271.882L207.824 270.751L209.508 267.398L214.892 268.529Z" fill="#FEFEFE"/>
<path fill-rule="evenodd" clip-rule="evenodd" d="M211.805 274.673L210.119 278.026L204.736 276.895L206.42 273.542L211.805 274.673Z" fill="#FEFEFE"/>
<path fill-rule="evenodd" clip-rule="evenodd" d="M208.718 280.817L207.033 284.17L201.645 283.047L203.33 279.694L208.718 280.817Z" fill="#FEFEFE"/>
<path fill-rule="evenodd" clip-rule="evenodd" d="M205.626 286.969L203.941 290.322L198.557 289.191L200.242 285.838L205.626 286.969Z" fill="#FEFEFE"/>
<path fill-rule="evenodd" clip-rule="evenodd" d="M225.453 403.146H182.887C180.346 403.146 178.248 401.158 178.112 398.621L172.258 289.642H236.983L230.225 398.66C230.069 401.181 227.979 403.146 225.453 403.146Z" fill="url(#paint5_linear_13_9642)"/>
<path fill-rule="evenodd" clip-rule="evenodd" d="M240.5 289.642H168.739C167.747 289.642 166.941 288.837 166.941 287.844C166.941 286.851 167.747 286.046 168.739 286.046H240.5C241.493 286.046 242.298 286.851 242.298 287.844C242.298 288.837 241.493 289.642 240.5 289.642Z" fill="#E8E9EB"/>
<path fill-rule="evenodd" clip-rule="evenodd" d="M235.342 286.047H173.9C172.907 286.047 172.102 285.242 172.102 284.249C172.102 283.256 172.907 282.451 173.9 282.451H235.342C236.334 282.451 237.14 283.256 237.14 284.249C237.14 285.242 236.334 286.047 235.342 286.047Z" fill="#FEFEFE"/>
<mask id="mask0_13_9642" style="mask-type:luminance" maskUnits="userSpaceOnUse" x="46" y="171" width="284" height="235">
<path fill-rule="evenodd" clip-rule="evenodd" d="M46 405.633H329.973V171H46V405.633Z" fill="white"/>
</mask>
<g mask="url(#mask0_13_9642)">
<path fill-rule="evenodd" clip-rule="evenodd" d="M187.84 403.146H197.846V289.642H187.84V403.146Z" fill="white" fill-opacity="0.5"/>
<path fill-rule="evenodd" clip-rule="evenodd" d="M210.666 403.146H220.672V289.642H210.666V403.146Z" fill="white" fill-opacity="0.5"/>
<path fill-rule="evenodd" clip-rule="evenodd" d="M225.24 335.751C229.584 344.166 223.873 355.752 212.485 361.631C201.096 367.509 188.344 365.453 184 357.038C179.657 348.623 185.367 337.036 196.756 331.158C208.144 325.28 220.897 327.336 225.24 335.751Z" fill="url(#paint6_linear_13_9642)"/>
<path fill-rule="evenodd" clip-rule="evenodd" d="M222.763 337.029C226.584 344.433 221.56 354.628 211.539 359.8C201.519 364.972 190.299 363.163 186.477 355.759C182.656 348.355 187.68 338.161 197.7 332.988C207.72 327.816 218.941 329.626 222.763 337.029Z" fill="#FCFDFB"/>
<path fill-rule="evenodd" clip-rule="evenodd" d="M193.554 202.622C189.049 200.438 185.397 196.819 183.173 192.334L181.363 188.684L179.931 191.78C177.698 196.606 173.834 200.491 169.018 202.747L165.783 204.265L169.122 205.943C173.137 207.961 176.459 211.131 178.663 215.048L181.363 219.845L183.437 215.922C185.503 212.016 188.67 208.801 192.545 206.676L196.943 204.265L193.554 202.622Z" fill="#E8E9EB"/>
<path fill-rule="evenodd" clip-rule="evenodd" d="M205.593 175.341C204.19 174.661 203.052 173.533 202.36 172.136L201.796 171L201.35 171.964C200.655 173.467 199.451 174.677 197.951 175.38L196.943 175.853L197.983 176.375C199.234 177.004 200.269 177.991 200.955 179.211L201.796 180.705L202.442 179.484C203.085 178.267 204.072 177.265 205.279 176.604L206.649 175.853L205.593 175.341Z" fill="#E8E9EB"/>
<path fill-rule="evenodd" clip-rule="evenodd" d="M169.58 187.141C168.177 186.461 167.039 185.334 166.347 183.937L165.783 182.8L165.337 183.764C164.642 185.267 163.438 186.477 161.938 187.18L160.93 187.653L161.971 188.176C163.221 188.804 164.256 189.791 164.942 191.011L165.783 192.505L166.429 191.284C167.073 190.067 168.059 189.065 169.266 188.404L170.636 187.653L169.58 187.141Z" fill="#E8E9EB"/>
<path d="M170.927 217.569C160.929 230.051 168.703 239.126 175.728 241.754" stroke="#E8E9EB"/>
<path fill-rule="evenodd" clip-rule="evenodd" d="M64.867 289.77C62.599 286.872 61.358 283.302 61.34 279.621L61.325 276.626L59.379 278.207C56.344 280.671 52.537 281.986 48.628 281.919L46 281.874L47.662 284.062C49.661 286.693 50.829 289.86 51.018 293.159L51.249 297.199L53.887 295.28C56.514 293.369 59.644 292.27 62.89 292.121L66.573 291.951L64.867 289.77Z" fill="url(#paint7_linear_13_9642)"/>
<path fill-rule="evenodd" clip-rule="evenodd" d="M81.6358 275.652C80.9288 274.749 80.5428 273.637 80.5368 272.491L80.5328 271.558L79.9268 272.05C78.9808 272.818 77.7958 273.227 76.5778 273.207L75.7598 273.193L76.2778 273.874C76.8998 274.694 77.2638 275.68 77.3228 276.707L77.3938 277.965L78.2158 277.368C79.0338 276.773 80.0098 276.43 81.0198 276.384L82.1668 276.331L81.6358 275.652Z" fill="url(#paint8_linear_13_9642)"/>
<path fill-rule="evenodd" clip-rule="evenodd" d="M54.044 271.797C53.337 270.894 52.951 269.782 52.945 268.636L52.94 267.703L52.335 268.195C51.389 268.963 50.204 269.373 48.986 269.352L48.168 269.338L48.686 270.019C49.308 270.839 49.672 271.825 49.731 272.852L49.802 274.111L50.624 273.513C51.442 272.918 52.418 272.576 53.428 272.529L54.575 272.476L54.044 271.797Z" fill="url(#paint9_linear_13_9642)"/>
<path fill-rule="evenodd" clip-rule="evenodd" d="M101.705 295.821L100.748 296.112C99.7263 292.747 96.8343 289.413 93.3823 287.619C91.3103 286.541 88.0543 285.517 84.2573 286.758L83.9453 285.808C87.2113 284.742 90.6283 285.059 93.8433 286.731C97.5223 288.644 100.608 292.212 101.705 295.821Z" fill="url(#paint10_linear_13_9642)"/>
<path fill-rule="evenodd" clip-rule="evenodd" d="M101.403 266.223L101.967 267.049C99.0636 269.033 96.7496 272.791 96.0716 276.622C95.6646 278.922 95.6636 282.335 97.9856 285.585L97.1726 286.167C95.1766 283.371 94.4556 280.016 95.0876 276.448C95.8096 272.365 98.2886 268.351 101.403 266.223Z" fill="url(#paint11_linear_13_9642)"/>
</g>
</g>
<defs>
<linearGradient id="paint0_linear_13_9642" x1="288.497" y1="222.043" x2="253.437" y2="260.09" gradientUnits="userSpaceOnUse">
<stop stop-color="#FF8960"/>
<stop offset="1" stop-color="#FF62A5"/>
</linearGradient>
<linearGradient id="paint1_linear_13_9642" x1="322.953" y1="212.16" x2="310.414" y2="226.119" gradientUnits="userSpaceOnUse">
<stop stop-color="#FF8960"/>
<stop offset="1" stop-color="#FF62A5"/>
</linearGradient>
<linearGradient id="paint2_linear_13_9642" x1="124.051" y1="271.253" x2="83.2343" y2="281.397" gradientUnits="userSpaceOnUse">
<stop stop-color="#FF8960"/>
<stop offset="1" stop-color="#FF62A5"/>
</linearGradient>
<linearGradient id="paint3_linear_13_9642" x1="158.154" y1="271.254" x2="115.191" y2="282.574" gradientUnits="userSpaceOnUse">
<stop stop-color="#FF8960"/>
<stop offset="1" stop-color="#FF62A5"/>
</linearGradient>
<linearGradient id="paint4_linear_13_9642" x1="210.665" y1="224.08" x2="170.686" y2="246.421" gradientUnits="userSpaceOnUse">
<stop stop-color="#B739F3"/>
<stop offset="1" stop-color="#6950FB"/>
</linearGradient>
<linearGradient id="paint5_linear_13_9642" x1="216.129" y1="208.867" x2="92.5906" y2="265.756" gradientUnits="userSpaceOnUse">
<stop stop-color="#1162D7"/>
<stop offset="0.66199" stop-color="#78F3E3"/>
<stop offset="1" stop-color="#52E5BB"/>
</linearGradient>
<linearGradient id="paint6_linear_13_9642" x1="212.47" y1="301.351" x2="159.268" y2="352.375" gradientUnits="userSpaceOnUse">
<stop stop-color="#1162D7"/>
<stop offset="0.66199" stop-color="#78F3E3"/>
<stop offset="1" stop-color="#52E5BB"/>
</linearGradient>
<linearGradient id="paint7_linear_13_9642" x1="59.9444" y1="261.985" x2="31.1369" y2="285.248" gradientUnits="userSpaceOnUse">
<stop stop-color="#1162D7"/>
<stop offset="0.66199" stop-color="#78F3E3"/>
<stop offset="1" stop-color="#52E5BB"/>
</linearGradient>
<linearGradient id="paint8_linear_13_9642" x1="80.1025" y1="266.998" x2="71.131" y2="274.243" gradientUnits="userSpaceOnUse">
<stop stop-color="#1162D7"/>
<stop offset="0.66199" stop-color="#78F3E3"/>
<stop offset="1" stop-color="#52E5BB"/>
</linearGradient>
<linearGradient id="paint9_linear_13_9642" x1="52.5107" y1="263.142" x2="43.5381" y2="270.387" gradientUnits="userSpaceOnUse">
<stop stop-color="#1162D7"/>
<stop offset="0.66199" stop-color="#78F3E3"/>
<stop offset="1" stop-color="#52E5BB"/>
</linearGradient>
<linearGradient id="paint10_linear_13_9642" x1="95.9831" y1="277.417" x2="80.902" y2="297.221" gradientUnits="userSpaceOnUse">
<stop stop-color="#1162D7"/>
<stop offset="0.66199" stop-color="#78F3E3"/>
<stop offset="1" stop-color="#52E5BB"/>
</linearGradient>
<linearGradient id="paint11_linear_13_9642" x1="99.6786" y1="252.029" x2="84.5047" y2="256.392" gradientUnits="userSpaceOnUse">
<stop stop-color="#1162D7"/>
<stop offset="0.66199" stop-color="#78F3E3"/>
<stop offset="1" stop-color="#52E5BB"/>
</linearGradient>
<clipPath id="clip0_13_9642">
<rect width="375" height="812" fill="white"/>
</clipPath>
</defs>
</svg>
