<svg width="375" height="812" viewBox="0 0 375 812" fill="none" xmlns="http://www.w3.org/2000/svg">
<g clip-path="url(#clip0_10_9534)">
<rect width="375" height="812" fill="white"/>
<path d="M135.25 484.224V495.744L127.642 484.224H124.282V501H127.642V489.504L135.25 501H138.61V484.224H135.25ZM155.091 494.352C155.091 490.152 152.091 487.488 148.251 487.488C144.411 487.488 141.411 490.152 141.411 494.352C141.411 498.528 144.315 501.216 148.155 501.216C152.019 501.216 155.091 498.528 155.091 494.352ZM144.819 494.352C144.819 491.688 146.427 490.416 148.203 490.416C149.979 490.416 151.635 491.688 151.635 494.352C151.635 496.992 149.931 498.288 148.155 498.288C146.355 498.288 144.819 496.992 144.819 494.352ZM172.794 489.456C172.794 490.968 171.954 491.952 170.082 491.952H167.274V487.032H170.082C171.954 487.032 172.794 487.968 172.794 489.456ZM163.914 484.248V501H167.274V494.472H168.858L172.554 501H176.442L172.434 494.208C175.122 493.488 176.25 491.424 176.25 489.384C176.25 486.576 174.234 484.248 170.202 484.248H163.914ZM185.321 490.248C187.049 490.248 188.441 491.352 188.489 493.104H182.177C182.441 491.28 183.713 490.248 185.321 490.248ZM191.633 496.824H188.009C187.577 497.712 186.785 498.432 185.345 498.432C183.665 498.432 182.321 497.328 182.153 495.36H191.873C191.945 494.928 191.969 494.496 191.969 494.064C191.969 490.104 189.257 487.488 185.417 487.488C181.481 487.488 178.745 490.152 178.745 494.352C178.745 498.528 181.553 501.216 185.417 501.216C188.705 501.216 190.913 499.272 191.633 496.824ZM205.062 497.208C204.966 492.336 197.598 493.848 197.598 491.424C197.598 490.656 198.246 490.152 199.494 490.152C200.814 490.152 201.63 490.848 201.726 491.88H204.942C204.75 489.24 202.806 487.488 199.59 487.488C196.302 487.488 194.334 489.264 194.334 491.472C194.334 496.344 201.846 494.832 201.846 497.208C201.846 497.976 201.126 498.576 199.806 498.576C198.462 498.576 197.526 497.808 197.406 496.8H194.022C194.166 499.272 196.494 501.216 199.83 501.216C203.07 501.216 205.062 499.488 205.062 497.208ZM220.692 487.704H217.308V495.024C217.308 497.16 216.156 498.312 214.332 498.312C212.556 498.312 211.38 497.16 211.38 495.024V487.704H208.02V495.504C208.02 499.152 210.252 501.168 213.348 501.168C215.004 501.168 216.468 500.448 217.308 499.32V501H220.692V487.704ZM224.327 501H227.687V483.24H224.327V501ZM231.855 496.872C231.855 499.92 233.559 501 236.103 501H238.215V498.168H236.655C235.599 498.168 235.239 497.784 235.239 496.896V490.464H238.215V487.704H235.239V484.416H231.855V487.704H230.271V490.464H231.855V496.872ZM251.271 497.208C251.175 492.336 243.807 493.848 243.807 491.424C243.807 490.656 244.455 490.152 245.703 490.152C247.023 490.152 247.839 490.848 247.935 491.88H251.151C250.959 489.24 249.015 487.488 245.799 487.488C242.511 487.488 240.543 489.264 240.543 491.472C240.543 496.344 248.055 494.832 248.055 497.208C248.055 497.976 247.335 498.576 246.015 498.576C244.671 498.576 243.735 497.808 243.615 496.8H240.231C240.375 499.272 242.703 501.216 246.039 501.216C249.279 501.216 251.271 499.488 251.271 497.208Z" fill="#101828"/>
<path d="M36.784 535.15C36.784 531.28 31.144 532.96 31.144 530.26C31.144 529.135 32.029 528.55 33.154 528.58C34.429 528.595 35.089 529.39 35.179 530.095H36.679C36.514 528.505 35.209 527.41 33.214 527.41C31.144 527.41 29.749 528.58 29.749 530.305C29.749 534.19 35.404 532.39 35.404 535.21C35.404 536.2 34.624 536.95 33.304 536.95C31.849 536.95 31.234 536.08 31.144 535.21H29.689C29.719 536.935 31.204 538.105 33.304 538.105C35.569 538.105 36.784 536.635 36.784 535.15ZM46.9127 533.875C46.9127 531.28 45.0977 529.645 42.7577 529.645C40.4327 529.645 38.6027 531.28 38.6027 533.875C38.6027 536.485 40.3727 538.135 42.6977 538.135C45.0377 538.135 46.9127 536.485 46.9127 533.875ZM39.9977 533.875C39.9977 531.805 41.3027 530.83 42.7427 530.83C44.1527 530.83 45.5177 531.805 45.5177 533.875C45.5177 535.96 44.1227 536.935 42.6977 536.935C41.2727 536.935 39.9977 535.96 39.9977 533.875ZM50.3925 533.53C50.3925 531.625 51.3825 531.04 52.6875 531.04H53.0475V529.63C51.7425 529.63 50.8575 530.2 50.3925 531.115V529.78H49.0275V538H50.3925V533.53ZM56.3082 533.53C56.3082 531.625 57.2982 531.04 58.6032 531.04H58.9632V529.63C57.6582 529.63 56.7732 530.2 56.3082 531.115V529.78H54.9432V538H56.3082V533.53ZM63.9789 536.44L61.3989 529.78H59.8839L63.1989 537.91L61.5789 541.87H62.9889L67.9389 529.78H66.5289L63.9789 536.44ZM68.446 540.145H69.361L71.041 536.11H69.541L68.446 540.145ZM77.5437 535.75C77.5437 537.4 78.3687 538 79.8237 538H81.0537V536.845H80.0487C79.2087 536.845 78.9087 536.56 78.9087 535.75V530.905H81.0537V529.78H78.9087V527.71H77.5437V529.78H76.4787V530.905H77.5437V535.75ZM83.0275 538H84.3925V533.455C84.3925 531.685 85.3525 530.815 86.7475 530.815C88.1275 530.815 89.0425 531.67 89.0425 533.35V538H90.3925V533.155C90.3925 530.8 88.9375 529.63 87.1075 529.63C85.9525 529.63 84.9325 530.095 84.3925 530.965V526.9H83.0275V538ZM96.4373 530.8C97.8473 530.8 99.0473 531.685 99.0323 533.29H93.8423C93.9923 531.685 95.1023 530.8 96.4373 530.8ZM100.277 535.465H98.8073C98.5073 536.35 97.7273 536.98 96.4973 536.98C95.1023 536.98 93.9323 536.065 93.8273 534.4H100.397C100.427 534.115 100.442 533.875 100.442 533.575C100.442 531.325 98.8823 529.645 96.4973 529.645C94.0973 529.645 92.4323 531.28 92.4323 533.875C92.4323 536.485 94.1573 538.135 96.4973 538.135C98.5373 538.135 99.8573 536.965 100.277 535.465ZM103.929 533.53C103.929 531.625 104.919 531.04 106.224 531.04H106.584V529.63C105.279 529.63 104.394 530.2 103.929 531.115V529.78H102.564V538H103.929V533.53ZM111.975 530.8C113.385 530.8 114.585 531.685 114.57 533.29H109.38C109.53 531.685 110.64 530.8 111.975 530.8ZM115.815 535.465H114.345C114.045 536.35 113.265 536.98 112.035 536.98C110.64 536.98 109.47 536.065 109.365 534.4H115.935C115.965 534.115 115.98 533.875 115.98 533.575C115.98 531.325 114.42 529.645 112.035 529.645C109.635 529.645 107.97 531.28 107.97 533.875C107.97 536.485 109.695 538.135 112.035 538.135C114.075 538.135 115.395 536.965 115.815 535.465ZM121.911 533.86C121.911 536.41 123.606 538.135 125.796 538.135C127.311 538.135 128.376 537.355 128.871 536.47V538H130.251V529.78H128.871V531.28C128.391 530.425 127.341 529.645 125.811 529.645C123.606 529.645 121.911 531.295 121.911 533.86ZM128.871 533.875C128.871 535.81 127.581 536.935 126.081 536.935C124.581 536.935 123.306 535.795 123.306 533.86C123.306 531.925 124.581 530.83 126.081 530.83C127.581 530.83 128.871 531.97 128.871 533.875ZM134.242 533.53C134.242 531.625 135.232 531.04 136.537 531.04H136.897V529.63C135.592 529.63 134.707 530.2 134.242 531.115V529.78H132.877V538H134.242V533.53ZM142.288 530.8C143.698 530.8 144.898 531.685 144.883 533.29H139.693C139.843 531.685 140.953 530.8 142.288 530.8ZM146.128 535.465H144.658C144.358 536.35 143.578 536.98 142.348 536.98C140.953 536.98 139.783 536.065 139.678 534.4H146.248C146.278 534.115 146.293 533.875 146.293 533.575C146.293 531.325 144.733 529.645 142.348 529.645C139.948 529.645 138.283 531.28 138.283 533.875C138.283 536.485 140.008 538.135 142.348 538.135C144.388 538.135 145.708 536.965 146.128 535.465ZM158.749 538H160.099V533.155C160.099 530.8 158.644 529.63 156.739 529.63C155.629 529.63 154.639 530.095 154.099 530.95V529.78H152.734V538H154.099V533.455C154.099 531.685 155.059 530.815 156.454 530.815C157.834 530.815 158.749 531.67 158.749 533.35V538ZM170.448 533.875C170.448 531.28 168.633 529.645 166.293 529.645C163.968 529.645 162.138 531.28 162.138 533.875C162.138 536.485 163.908 538.135 166.233 538.135C168.573 538.135 170.448 536.485 170.448 533.875ZM163.533 533.875C163.533 531.805 164.838 530.83 166.278 530.83C167.688 530.83 169.053 531.805 169.053 533.875C169.053 535.96 167.658 536.935 166.233 536.935C164.808 536.935 163.533 535.96 163.533 533.875ZM178.247 533.53C178.247 531.625 179.237 531.04 180.542 531.04H180.902V529.63C179.597 529.63 178.712 530.2 178.247 531.115V529.78H176.882V538H178.247V533.53ZM186.293 530.8C187.703 530.8 188.903 531.685 188.888 533.29H183.698C183.848 531.685 184.958 530.8 186.293 530.8ZM190.133 535.465H188.663C188.363 536.35 187.583 536.98 186.353 536.98C184.958 536.98 183.788 536.065 183.683 534.4H190.253C190.283 534.115 190.298 533.875 190.298 533.575C190.298 531.325 188.738 529.645 186.353 529.645C183.953 529.645 182.288 531.28 182.288 533.875C182.288 536.485 184.013 538.135 186.353 538.135C188.393 538.135 189.713 536.965 190.133 535.465ZM198.33 535.765C198.27 532.825 193.5 533.89 193.5 531.94C193.5 531.28 194.1 530.8 195.105 530.8C196.2 530.8 196.83 531.4 196.89 532.225H198.255C198.165 530.62 196.965 529.645 195.15 529.645C193.32 529.645 192.135 530.68 192.135 531.94C192.135 535 196.995 533.935 196.995 535.765C196.995 536.44 196.395 536.98 195.315 536.98C194.16 536.98 193.455 536.38 193.38 535.585H191.97C192.06 537.085 193.41 538.135 195.33 538.135C197.145 538.135 198.33 537.115 198.33 535.765ZM207.867 529.78H206.502V534.295C206.502 536.065 205.557 536.935 204.147 536.935C202.767 536.935 201.852 536.08 201.852 534.415V529.78H200.502V534.595C200.502 536.95 201.987 538.12 203.877 538.12C204.972 538.12 205.977 537.64 206.502 536.785V538H207.867V529.78ZM210.491 538H211.856V526.9H210.491V538ZM214.803 535.75C214.803 537.4 215.628 538 217.083 538H218.313V536.845H217.308C216.468 536.845 216.168 536.56 216.168 535.75V530.905H218.313V529.78H216.168V527.71H214.803V529.78H213.738V530.905H214.803V535.75ZM226.197 535.765C226.137 532.825 221.367 533.89 221.367 531.94C221.367 531.28 221.967 530.8 222.972 530.8C224.067 530.8 224.697 531.4 224.757 532.225H226.122C226.032 530.62 224.832 529.645 223.017 529.645C221.187 529.645 220.002 530.68 220.002 531.94C220.002 535 224.862 533.935 224.862 535.765C224.862 536.44 224.262 536.98 223.182 536.98C222.027 536.98 221.322 536.38 221.247 535.585H219.837C219.927 537.085 221.277 538.135 223.197 538.135C225.012 538.135 226.197 537.115 226.197 535.765ZM233.018 538H234.383V530.905H236.108V529.78H234.383V529.195C234.383 528.13 234.788 527.68 236.018 527.68V526.54C233.918 526.54 233.018 527.365 233.018 529.195V529.78H231.953V530.905H233.018V538ZM245.819 533.875C245.819 531.28 244.004 529.645 241.664 529.645C239.339 529.645 237.509 531.28 237.509 533.875C237.509 536.485 239.279 538.135 241.604 538.135C243.944 538.135 245.819 536.485 245.819 533.875ZM238.904 533.875C238.904 531.805 240.209 530.83 241.649 530.83C243.059 530.83 244.424 531.805 244.424 533.875C244.424 535.96 243.029 536.935 241.604 536.935C240.179 536.935 238.904 535.96 238.904 533.875ZM249.299 533.53C249.299 531.625 250.289 531.04 251.594 531.04H251.954V529.63C250.649 529.63 249.764 530.2 249.299 531.115V529.78H247.934V538H249.299V533.53ZM258.468 535.75C258.468 537.4 259.293 538 260.748 538H261.978V536.845H260.973C260.133 536.845 259.833 536.56 259.833 535.75V530.905H261.978V529.78H259.833V527.71H258.468V529.78H257.403V530.905H258.468V535.75ZM263.952 538H265.317V533.455C265.317 531.685 266.277 530.815 267.672 530.815C269.052 530.815 269.967 531.67 269.967 533.35V538H271.317V533.155C271.317 530.8 269.862 529.63 268.032 529.63C266.877 529.63 265.857 530.095 265.317 530.965V526.9H263.952V538ZM273.867 538H275.232V529.78H273.867V538ZM274.572 528.445C275.067 528.445 275.472 528.04 275.472 527.515C275.472 526.99 275.067 526.585 274.572 526.585C274.047 526.585 273.642 526.99 273.642 527.515C273.642 528.04 274.047 528.445 274.572 528.445ZM283.788 535.765C283.728 532.825 278.958 533.89 278.958 531.94C278.958 531.28 279.558 530.8 280.563 530.8C281.658 530.8 282.288 531.4 282.348 532.225H283.713C283.623 530.62 282.423 529.645 280.608 529.645C278.778 529.645 277.593 530.68 277.593 531.94C277.593 535 282.453 533.935 282.453 535.765C282.453 536.44 281.853 536.98 280.773 536.98C279.618 536.98 278.913 536.38 278.838 535.585H277.428C277.518 537.085 278.868 538.135 280.788 538.135C282.603 538.135 283.788 537.115 283.788 535.765ZM296.264 535.765C296.204 532.825 291.434 533.89 291.434 531.94C291.434 531.28 292.034 530.8 293.039 530.8C294.134 530.8 294.764 531.4 294.824 532.225H296.189C296.099 530.62 294.899 529.645 293.084 529.645C291.254 529.645 290.069 530.68 290.069 531.94C290.069 535 294.929 533.935 294.929 535.765C294.929 536.44 294.329 536.98 293.249 536.98C292.094 536.98 291.389 536.38 291.314 535.585H289.904C289.994 537.085 291.344 538.135 293.264 538.135C295.079 538.135 296.264 537.115 296.264 535.765ZM302.006 530.8C303.416 530.8 304.616 531.685 304.601 533.29H299.411C299.561 531.685 300.671 530.8 302.006 530.8ZM305.846 535.465H304.376C304.076 536.35 303.296 536.98 302.066 536.98C300.671 536.98 299.501 536.065 299.396 534.4H305.966C305.996 534.115 306.011 533.875 306.011 533.575C306.011 531.325 304.451 529.645 302.066 529.645C299.666 529.645 298.001 531.28 298.001 533.875C298.001 536.485 299.726 538.135 302.066 538.135C304.106 538.135 305.426 536.965 305.846 535.465ZM307.623 533.86C307.623 536.41 309.318 538.135 311.508 538.135C313.023 538.135 314.088 537.355 314.583 536.47V538H315.963V529.78H314.583V531.28C314.103 530.425 313.053 529.645 311.523 529.645C309.318 529.645 307.623 531.295 307.623 533.86ZM314.583 533.875C314.583 535.81 313.293 536.935 311.793 536.935C310.293 536.935 309.018 535.795 309.018 533.86C309.018 531.925 310.293 530.83 311.793 530.83C313.293 530.83 314.583 531.97 314.583 533.875ZM319.955 533.53C319.955 531.625 320.945 531.04 322.25 531.04H322.61V529.63C321.305 529.63 320.42 530.2 319.955 531.115V529.78H318.59V538H319.955V533.53ZM323.996 533.875C323.996 536.485 325.661 538.135 328.001 538.135C330.041 538.135 331.376 536.995 331.796 535.36H330.326C330.026 536.395 329.216 536.98 328.001 536.98C326.501 536.98 325.391 535.915 325.391 533.875C325.391 531.865 326.501 530.8 328.001 530.8C329.216 530.8 330.041 531.43 330.326 532.42H331.796C331.376 530.695 330.041 529.645 328.001 529.645C325.661 529.645 323.996 531.295 323.996 533.875ZM333.937 538H335.302V533.455C335.302 531.685 336.262 530.815 337.657 530.815C339.037 530.815 339.952 531.67 339.952 533.35V538H341.302V533.155C341.302 530.8 339.847 529.63 338.017 529.63C336.862 529.63 335.842 530.095 335.302 530.965V526.9H333.937V538ZM345.187 537.16C345.187 536.635 344.782 536.23 344.287 536.23C343.762 536.23 343.357 536.635 343.357 537.16C343.357 537.685 343.762 538.09 344.287 538.09C344.782 538.09 345.187 537.685 345.187 537.16ZM90.0057 555.51V551.67H92.0157C93.5757 551.67 94.2357 552.39 94.2357 553.605C94.2357 554.775 93.5757 555.51 92.0157 555.51H90.0057ZM95.6307 553.605C95.6307 551.895 94.4757 550.545 92.0157 550.545H88.6407V561H90.0057V556.635H92.0157C94.6107 556.635 95.6307 555.195 95.6307 553.605ZM97.6472 561H99.0122V549.9H97.6472V561ZM105.154 553.8C106.564 553.8 107.764 554.685 107.749 556.29H102.559C102.709 554.685 103.819 553.8 105.154 553.8ZM108.994 558.465H107.524C107.224 559.35 106.444 559.98 105.214 559.98C103.819 559.98 102.649 559.065 102.544 557.4H109.114C109.144 557.115 109.159 556.875 109.159 556.575C109.159 554.325 107.599 552.645 105.214 552.645C102.814 552.645 101.149 554.28 101.149 556.875C101.149 559.485 102.874 561.135 105.214 561.135C107.254 561.135 108.574 559.965 108.994 558.465ZM110.77 556.86C110.77 559.41 112.465 561.135 114.655 561.135C116.17 561.135 117.235 560.355 117.73 559.47V561H119.11V552.78H117.73V554.28C117.25 553.425 116.2 552.645 114.67 552.645C112.465 552.645 110.77 554.295 110.77 556.86ZM117.73 556.875C117.73 558.81 116.44 559.935 114.94 559.935C113.44 559.935 112.165 558.795 112.165 556.86C112.165 554.925 113.44 553.83 114.94 553.83C116.44 553.83 117.73 554.97 117.73 556.875ZM127.647 558.765C127.587 555.825 122.817 556.89 122.817 554.94C122.817 554.28 123.417 553.8 124.422 553.8C125.517 553.8 126.147 554.4 126.207 555.225H127.572C127.482 553.62 126.282 552.645 124.467 552.645C122.637 552.645 121.452 553.68 121.452 554.94C121.452 558 126.312 556.935 126.312 558.765C126.312 559.44 125.712 559.98 124.632 559.98C123.477 559.98 122.772 559.38 122.697 558.585H121.287C121.377 560.085 122.727 561.135 124.647 561.135C126.462 561.135 127.647 560.115 127.647 558.765ZM133.389 553.8C134.799 553.8 135.999 554.685 135.984 556.29H130.794C130.944 554.685 132.054 553.8 133.389 553.8ZM137.229 558.465H135.759C135.459 559.35 134.679 559.98 133.449 559.98C132.054 559.98 130.884 559.065 130.779 557.4H137.349C137.379 557.115 137.394 556.875 137.394 556.575C137.394 554.325 135.834 552.645 133.449 552.645C131.049 552.645 129.384 554.28 129.384 556.875C129.384 559.485 131.109 561.135 133.449 561.135C135.489 561.135 136.809 559.965 137.229 558.465ZM144.135 558.75C144.135 560.4 144.96 561 146.415 561H147.645V559.845H146.64C145.8 559.845 145.5 559.56 145.5 558.75V553.905H147.645V552.78H145.5V550.71H144.135V552.78H143.07V553.905H144.135V558.75ZM150.984 556.53C150.984 554.625 151.974 554.04 153.279 554.04H153.639V552.63C152.334 552.63 151.449 553.2 150.984 554.115V552.78H149.619V561H150.984V556.53ZM158.654 559.44L156.074 552.78H154.559L157.874 560.91L156.254 564.87H157.664L162.614 552.78H161.204L158.654 559.44ZM168.116 556.86C168.116 559.41 169.811 561.135 172.001 561.135C173.516 561.135 174.581 560.355 175.076 559.47V561H176.456V552.78H175.076V554.28C174.596 553.425 173.546 552.645 172.016 552.645C169.811 552.645 168.116 554.295 168.116 556.86ZM175.076 556.875C175.076 558.81 173.786 559.935 172.286 559.935C170.786 559.935 169.511 558.795 169.511 556.86C169.511 554.925 170.786 553.83 172.286 553.83C173.786 553.83 175.076 554.97 175.076 556.875ZM185.097 561H186.447V556.155C186.447 553.8 184.992 552.63 183.087 552.63C181.977 552.63 180.987 553.095 180.447 553.95V552.78H179.082V561H180.447V556.455C180.447 554.685 181.407 553.815 182.802 553.815C184.182 553.815 185.097 554.67 185.097 556.35V561ZM196.797 556.875C196.797 554.28 194.982 552.645 192.642 552.645C190.317 552.645 188.487 554.28 188.487 556.875C188.487 559.485 190.257 561.135 192.582 561.135C194.922 561.135 196.797 559.485 196.797 556.875ZM189.882 556.875C189.882 554.805 191.187 553.83 192.627 553.83C194.037 553.83 195.402 554.805 195.402 556.875C195.402 558.96 194.007 559.935 192.582 559.935C191.157 559.935 189.882 558.96 189.882 556.875ZM199.212 558.75C199.212 560.4 200.037 561 201.492 561H202.722V559.845H201.717C200.877 559.845 200.577 559.56 200.577 558.75V553.905H202.722V552.78H200.577V550.71H199.212V552.78H198.147V553.905H199.212V558.75ZM204.696 561H206.061V556.455C206.061 554.685 207.021 553.815 208.416 553.815C209.796 553.815 210.711 554.67 210.711 556.35V561H212.061V556.155C212.061 553.8 210.606 552.63 208.776 552.63C207.621 552.63 206.601 553.095 206.061 553.965V549.9H204.696V561ZM218.105 553.8C219.515 553.8 220.715 554.685 220.7 556.29H215.51C215.66 554.685 216.77 553.8 218.105 553.8ZM221.945 558.465H220.475C220.175 559.35 219.395 559.98 218.165 559.98C216.77 559.98 215.6 559.065 215.495 557.4H222.065C222.095 557.115 222.11 556.875 222.11 556.575C222.11 554.325 220.55 552.645 218.165 552.645C215.765 552.645 214.1 554.28 214.1 556.875C214.1 559.485 215.825 561.135 218.165 561.135C220.205 561.135 221.525 559.965 221.945 558.465ZM225.597 556.53C225.597 554.625 226.587 554.04 227.892 554.04H228.252V552.63C226.947 552.63 226.062 553.2 225.597 554.115V552.78H224.232V561H225.597V556.53ZM235.832 554.295V552.78H234.467V564.9H235.832V559.485C236.342 560.325 237.407 561.135 238.907 561.135C241.112 561.135 242.807 559.41 242.807 556.86C242.807 554.295 241.112 552.645 238.907 552.645C237.407 552.645 236.327 553.425 235.832 554.295ZM241.412 556.86C241.412 558.795 240.137 559.935 238.622 559.935C237.137 559.935 235.832 558.81 235.832 556.875C235.832 554.97 237.137 553.83 238.622 553.83C240.137 553.83 241.412 554.925 241.412 556.86ZM244.923 561H246.288V556.455C246.288 554.685 247.248 553.815 248.643 553.815C250.023 553.815 250.938 554.67 250.938 556.35V561H252.288V556.155C252.288 553.8 250.833 552.63 249.003 552.63C247.848 552.63 246.828 553.095 246.288 553.965V549.9H244.923V561ZM256.203 556.53C256.203 554.625 257.193 554.04 258.498 554.04H258.858V552.63C257.553 552.63 256.668 553.2 256.203 554.115V552.78H254.838V561H256.203V556.53ZM260.244 556.86C260.244 559.41 261.939 561.135 264.129 561.135C265.644 561.135 266.709 560.355 267.204 559.47V561H268.584V552.78H267.204V554.28C266.724 553.425 265.674 552.645 264.144 552.645C261.939 552.645 260.244 554.295 260.244 556.86ZM267.204 556.875C267.204 558.81 265.914 559.935 264.414 559.935C262.914 559.935 261.639 558.795 261.639 556.86C261.639 554.925 262.914 553.83 264.414 553.83C265.914 553.83 267.204 554.97 267.204 556.875ZM277.121 558.765C277.061 555.825 272.291 556.89 272.291 554.94C272.291 554.28 272.891 553.8 273.896 553.8C274.991 553.8 275.621 554.4 275.681 555.225H277.046C276.956 553.62 275.756 552.645 273.941 552.645C272.111 552.645 270.926 553.68 270.926 554.94C270.926 558 275.786 556.935 275.786 558.765C275.786 559.44 275.186 559.98 274.106 559.98C272.951 559.98 272.246 559.38 272.171 558.585H270.761C270.851 560.085 272.201 561.135 274.121 561.135C275.936 561.135 277.121 560.115 277.121 558.765ZM282.863 553.8C284.273 553.8 285.473 554.685 285.458 556.29H280.268C280.418 554.685 281.528 553.8 282.863 553.8ZM286.703 558.465H285.233C284.933 559.35 284.153 559.98 282.923 559.98C281.528 559.98 280.358 559.065 280.253 557.4H286.823C286.853 557.115 286.868 556.875 286.868 556.575C286.868 554.325 285.308 552.645 282.923 552.645C280.523 552.645 278.858 554.28 278.858 556.875C278.858 559.485 280.583 561.135 282.923 561.135C284.963 561.135 286.283 559.965 286.703 558.465Z" fill="#667085"/>
<path opacity="0.35" d="M338.667 17.8334H355.333C356.53 17.8334 357.5 18.8037 357.5 20.0004V26.0004C357.5 27.1968 356.53 28.1664 355.333 28.1664H338.667C337.47 28.1664 336.5 27.1968 336.5 26.0004V20.0004L336.511 19.7787C336.622 18.686 337.545 17.8334 338.667 17.8334Z" stroke="black"/>
<path opacity="0.4" d="M359 21V25C359.805 24.6613 360.328 23.8732 360.328 23C360.328 22.1269 359.805 21.3388 359 21Z" fill="black"/>
<path d="M338 20.6667C338 19.9303 338.597 19.3334 339.333 19.3334H354.667C355.403 19.3334 356 19.9303 356 20.6667V25.3334C356 26.0698 355.403 26.6667 354.667 26.6667H339.333C338.597 26.6667 338 26.0698 338 25.3334V20.6667Z" fill="black"/>
<path fill-rule="evenodd" clip-rule="evenodd" d="M323.331 19.608C325.547 19.6081 327.678 20.4596 329.284 21.9863C329.405 22.1042 329.598 22.1027 329.717 21.983L330.873 20.8163C330.934 20.7556 330.967 20.6734 330.967 20.5878C330.966 20.5022 330.932 20.4204 330.871 20.3603C326.656 16.3208 320.006 16.3208 315.791 20.3603C315.73 20.4203 315.695 20.5021 315.694 20.5877C315.694 20.6733 315.727 20.7556 315.788 20.8163L316.944 21.983C317.063 22.1029 317.256 22.1044 317.377 21.9863C318.983 20.4595 321.115 19.608 323.331 19.608ZM323.331 23.4037C324.548 23.4036 325.722 23.8561 326.625 24.6733C326.747 24.7893 326.939 24.7868 327.058 24.6677L328.213 23.501C328.274 23.4398 328.307 23.3568 328.307 23.2705C328.306 23.1843 328.27 23.102 328.208 23.042C325.46 20.4856 321.204 20.4856 318.456 23.042C318.394 23.102 318.358 23.1843 318.358 23.2706C318.357 23.3569 318.391 23.4399 318.452 23.501L319.606 24.6677C319.725 24.7868 319.917 24.7893 320.039 24.6733C320.941 23.8567 322.114 23.4042 323.331 23.4037ZM325.644 25.9575C325.646 26.044 325.612 26.1274 325.55 26.188L323.553 28.2037C323.494 28.2629 323.414 28.2963 323.331 28.2963C323.248 28.2963 323.168 28.2629 323.109 28.2037L321.112 26.188C321.05 26.1274 321.016 26.0439 321.018 25.9574C321.02 25.8709 321.057 25.789 321.121 25.731C322.397 24.6521 324.265 24.6521 325.541 25.731C325.605 25.7891 325.642 25.871 325.644 25.9575Z" fill="black"/>
<path fill-rule="evenodd" clip-rule="evenodd" d="M309.667 17.6666H308.667C308.115 17.6666 307.667 18.1143 307.667 18.6666V27.3333C307.667 27.8856 308.115 28.3333 308.667 28.3333H309.667C310.219 28.3333 310.667 27.8856 310.667 27.3333V18.6666C310.667 18.1143 310.219 17.6666 309.667 17.6666ZM304 20H305C305.553 20 306 20.4477 306 21V27.3333C306 27.8856 305.553 28.3333 305 28.3333H304C303.448 28.3333 303 27.8856 303 27.3333V21C303 20.4477 303.448 20 304 20ZM300.334 22.3333H299.334C298.781 22.3333 298.334 22.781 298.334 23.3333V27.3333C298.334 27.8856 298.781 28.3333 299.334 28.3333H300.334C300.886 28.3333 301.334 27.8856 301.334 27.3333V23.3333C301.334 22.781 300.886 22.3333 300.334 22.3333ZM295.667 24.3333H294.667C294.115 24.3333 293.667 24.781 293.667 25.3333V27.3333C293.667 27.8856 294.115 28.3333 294.667 28.3333H295.667C296.219 28.3333 296.667 27.8856 296.667 27.3333V25.3333C296.667 24.781 296.219 24.3333 295.667 24.3333Z" fill="black"/>
<path d="M37.3203 28.2563C40.0083 28.2563 41.605 26.1543 41.605 22.5947C41.605 21.2544 41.3486 20.1265 40.8579 19.2549C40.1475 17.8999 38.9243 17.1675 37.3789 17.1675C35.0791 17.1675 33.4531 18.7129 33.4531 20.8809C33.4531 22.917 34.918 24.3965 36.9321 24.3965C38.1699 24.3965 39.1733 23.8179 39.6714 22.8145H39.6934C39.6934 22.8145 39.7227 22.8145 39.73 22.8145C39.7446 22.8145 39.7959 22.8145 39.7959 22.8145C39.7959 25.2314 38.8804 26.6743 37.335 26.6743C36.4268 26.6743 35.7236 26.1763 35.4819 25.3779H33.5996C33.9146 27.1138 35.3867 28.2563 37.3203 28.2563ZM37.3862 22.895C36.1704 22.895 35.3062 22.0308 35.3062 20.8223C35.3062 19.6431 36.2144 18.7422 37.3936 18.7422C38.5728 18.7422 39.481 19.6577 39.481 20.8516C39.481 22.0308 38.5947 22.895 37.3862 22.895Z" fill="black"/>
<path d="M44.6961 28.1538C45.3919 28.1538 45.868 27.6558 45.868 26.9966C45.868 26.3301 45.3919 25.8394 44.6961 25.8394C44.0076 25.8394 43.5242 26.3301 43.5242 26.9966C43.5242 27.6558 44.0076 28.1538 44.6961 28.1538ZM44.6961 22.6606C45.3919 22.6606 45.868 22.1699 45.868 21.5107C45.868 20.8442 45.3919 20.3535 44.6961 20.3535C44.0076 20.3535 43.5242 20.8442 43.5242 21.5107C43.5242 22.1699 44.0076 22.6606 44.6961 22.6606Z" fill="black"/>
<path d="M52.7237 28H54.5328V26.0298H55.961V24.4331H54.5328V17.4312H51.8668C49.9991 20.2437 48.5123 22.5947 47.5602 24.3452V26.0298H52.7237V28ZM49.3106 24.3672C50.5411 22.1992 51.6397 20.4634 52.6505 18.9692H52.753V24.4771H49.3106V24.3672Z" fill="black"/>
<path d="M59.9896 28H61.8793V17.4312H59.997L57.2357 19.3647V21.1812L59.8651 19.3354H59.9896V28Z" fill="black"/>
<rect x="121" y="799" width="134" height="5" rx="2.5" fill="black"/>
<path d="M21.6045 251V254" stroke="#D2D8DF" stroke-width="2.921" stroke-linecap="round"/>
<path d="M14.8672 252.625L17.3186 255.149" stroke="#D2D8DF" stroke-width="2.921" stroke-linecap="round"/>
<path d="M12 259.343H15.4663" stroke="#D2D8DF" stroke-width="2.921" stroke-linecap="round"/>
<path d="M14.5869 266.18L17.0383 263.657" stroke="#D2D8DF" stroke-width="2.921" stroke-linecap="round"/>
<path d="M21.6045 267V264" stroke="#D2D8DF" stroke-width="2.921" stroke-linecap="round"/>
<path d="M26.6045 265L24.6045 263" stroke="#D2D8DF" stroke-width="2.921" stroke-linecap="round"/>
<path d="M30.6045 260H27.6045" stroke="#D2D8DF" stroke-width="2.921" stroke-linecap="round"/>
<path d="M28.6045 253L26.6045 255" stroke="#D2D8DF" stroke-width="2.921" stroke-linecap="round"/>
<path d="M182.604 120V122" stroke="#D2D8DF" stroke-width="2.921" stroke-linecap="round"/>
<path d="M176.604 126H178.604" stroke="#D2D8DF" stroke-width="2.921" stroke-linecap="round"/>
<path d="M182.604 132V130" stroke="#D2D8DF" stroke-width="2.921" stroke-linecap="round"/>
<path d="M187.604 126H185.604" stroke="#D2D8DF" stroke-width="2.921" stroke-linecap="round"/>
<path d="M66.6045 204V207" stroke="#D2D8DF" stroke-width="2.921" stroke-linecap="round"/>
<path d="M57.6045 213H60.6045" stroke="#D2D8DF" stroke-width="2.921" stroke-linecap="round"/>
<path d="M66.6045 221V218" stroke="#D2D8DF" stroke-width="2.921" stroke-linecap="round"/>
<path d="M74.6045 213H71.6045" stroke="#D2D8DF" stroke-width="2.921" stroke-linecap="round"/>
<path d="M281.859 313.039C284.249 313.039 286.187 314.977 286.187 317.368C286.187 319.759 284.249 321.697 281.859 321.697C279.469 321.697 277.531 319.759 277.531 317.368" stroke="#D2D8DF" stroke-width="2.921" stroke-linecap="round"/>
<path fill-rule="evenodd" clip-rule="evenodd" d="M301.667 273.763C304.237 272.962 308.176 269.819 309.088 266.437C309.915 269.426 313.381 272.962 316.508 273.229C312.988 274.476 309.622 278.179 309.088 281.088C308.724 278.123 304.069 274.195 301.667 273.763Z" fill="#EBECEE"/>
<path fill-rule="evenodd" clip-rule="evenodd" d="M37.8779 311.705C39.1633 311.304 41.132 309.733 41.5879 308.043C42.0013 309.536 43.734 311.304 45.2978 311.439C43.5379 312.061 41.8553 313.913 41.5879 315.368C41.4062 313.885 39.0784 311.921 37.8779 311.705Z" fill="#EBECEE"/>
<path fill-rule="evenodd" clip-rule="evenodd" d="M61.7304 172.597C61.7304 174.452 60.2278 175.954 58.3745 175.954C56.5204 175.954 55.0186 174.452 55.0186 172.597C55.0186 170.743 56.5204 169.24 58.3745 169.24C60.2278 169.24 61.7304 170.743 61.7304 172.597Z" fill="#D1D8DF"/>
<path fill-rule="evenodd" clip-rule="evenodd" d="M285.824 181.611C285.824 184.709 283.312 187.221 280.215 187.221C277.117 187.221 274.605 184.709 274.605 181.611C274.605 178.512 277.117 176 280.215 176C283.312 176 285.824 178.512 285.824 181.611Z" fill="#EBECEE"/>
<path fill-rule="evenodd" clip-rule="evenodd" d="M363.52 166.409C363.52 168.868 361.528 170.86 359.071 170.86C356.614 170.86 354.622 168.868 354.622 166.409C354.622 163.951 356.614 161.959 359.071 161.959C361.528 161.959 363.52 163.951 363.52 166.409Z" fill="#EBECEE"/>
<path fill-rule="evenodd" clip-rule="evenodd" d="M124.449 374.267C124.449 375.817 123.193 377.073 121.644 377.073C120.095 377.073 118.84 375.817 118.84 374.267C118.84 372.718 120.095 371.462 121.644 371.462C123.193 371.462 124.449 372.718 124.449 374.267Z" stroke="#D2D8DF" stroke-width="2.921" stroke-linecap="round"/>
<path fill-rule="evenodd" clip-rule="evenodd" d="M122.78 151.032C122.78 152.886 121.278 154.389 119.424 154.389C117.571 154.389 116.068 152.886 116.068 151.032C116.068 149.178 117.571 147.675 119.424 147.675C121.278 147.675 122.78 149.178 122.78 151.032Z" stroke="#D2D8DF" stroke-width="2.921" stroke-linecap="round"/>
<path fill-rule="evenodd" clip-rule="evenodd" d="M208.384 405.336C206.24 406.152 203.84 405.074 203.024 402.93C202.208 400.785 203.284 398.384 205.43 397.568C207.573 396.752 209.973 397.829 210.789 399.974C211.606 402.119 210.528 404.52 208.384 405.336Z" stroke="#D2D8DF" stroke-width="2.921" stroke-linecap="round"/>
<path fill-rule="evenodd" clip-rule="evenodd" d="M207.106 326H125.101C119.329 326 114.604 321.261 114.604 315.47V198.527C114.604 192.736 119.329 188 125.101 188H207.106C212.88 188 217.604 192.736 217.604 198.527V315.47C217.604 321.261 212.88 326 207.106 326Z" fill="#E0E2EE"/>
<path fill-rule="evenodd" clip-rule="evenodd" d="M200.106 331H118.101C112.329 331 107.604 326.261 107.604 320.47V203.527C107.604 197.736 112.329 193 118.101 193H200.106C205.88 193 210.604 197.736 210.604 203.527V320.47C210.604 326.261 205.88 331 200.106 331Z" fill="#E8EBF2"/>
<path fill-rule="evenodd" clip-rule="evenodd" d="M193.297 334.947H111.123C105.339 334.947 100.604 330.228 100.604 324.461V208.003C100.604 202.235 105.339 197.519 111.123 197.519H193.297C199.083 197.519 203.817 202.235 203.817 208.003V324.461C203.817 330.228 199.083 334.947 193.297 334.947Z" fill="#D8DBEA"/>
<path fill-rule="evenodd" clip-rule="evenodd" d="M193.297 334.947H111.123C105.339 334.947 100.604 330.228 100.604 324.461V208.003C100.604 202.235 105.339 197.519 111.123 197.519H193.297C199.083 197.519 203.817 202.235 203.817 208.003V324.461C203.817 330.228 199.083 334.947 193.297 334.947Z" fill="#F1F2F7"/>
<path fill-rule="evenodd" clip-rule="evenodd" d="M181.452 233H120.757C119.023 233 117.604 231.65 117.604 230.001C117.604 228.35 119.023 227 120.757 227H181.452C183.186 227 184.604 228.35 184.604 230.001C184.604 231.65 183.186 233 181.452 233Z" fill="#E0E2EE"/>
<path fill-rule="evenodd" clip-rule="evenodd" d="M181.452 251H120.757C119.023 251 117.604 249.65 117.604 248.001C117.604 246.35 119.023 245 120.757 245H181.452C183.186 245 184.604 246.35 184.604 248.001C184.604 249.65 183.186 251 181.452 251Z" fill="#E0E2EE"/>
<path fill-rule="evenodd" clip-rule="evenodd" d="M181.452 269H120.757C119.023 269 117.604 267.65 117.604 266.001C117.604 264.352 119.023 263 120.757 263H181.452C183.186 263 184.604 264.352 184.604 266.001C184.604 267.65 183.186 269 181.452 269Z" fill="#E0E2EE"/>
<path fill-rule="evenodd" clip-rule="evenodd" d="M181.452 287H120.757C119.023 287 117.604 285.65 117.604 284.001C117.604 282.35 119.023 281 120.757 281H181.452C183.186 281 184.604 282.35 184.604 284.001C184.604 285.65 183.186 287 181.452 287Z" fill="#E0E2EE"/>
<path fill-rule="evenodd" clip-rule="evenodd" d="M152.439 305H120.77C119.029 305 117.604 303.65 117.604 302.001C117.604 300.35 119.029 299 120.77 299H152.439C154.18 299 155.604 300.35 155.604 302.001C155.604 303.65 154.18 305 152.439 305Z" fill="#E0E2EE"/>
<path fill-rule="evenodd" clip-rule="evenodd" d="M216.359 281.737C204.223 293.871 185.434 295.24 171.793 285.872C170.05 284.653 168.39 283.284 166.843 281.737C166.046 280.943 165.296 280.124 164.588 279.261C163.173 277.538 161.934 275.701 160.918 273.803C159.129 270.597 157.913 267.195 157.249 263.679C155.106 252.651 158.31 240.781 166.843 232.252C175.396 223.697 187.269 220.514 198.298 222.636C201.813 223.321 205.218 224.537 208.424 226.305C210.325 227.343 212.137 228.583 213.863 229.997C214.723 230.702 215.543 231.455 216.337 232.252C217.886 233.799 219.276 235.455 220.472 237.201C229.845 250.837 228.473 269.625 216.359 281.737Z" fill="white" fill-opacity="0.1"/>
<path fill-rule="evenodd" clip-rule="evenodd" d="M212.963 279.347C200.337 291.975 179.874 291.973 167.245 279.347C154.633 266.734 154.633 246.269 167.262 233.643C179.874 221.03 200.337 221.03 212.949 233.643C225.576 246.269 225.576 266.734 212.963 279.347ZM219.443 227.156C203.236 210.948 176.973 210.948 160.765 227.156C144.56 243.361 144.546 269.64 160.751 285.848C175.502 300.594 198.622 301.924 214.883 289.816C216.471 288.632 218.001 287.305 219.46 285.848C220.917 284.389 222.244 282.859 223.426 281.271C235.533 265.007 234.192 241.904 219.443 227.156Z" fill="#E0E2EE"/>
<path fill-rule="evenodd" clip-rule="evenodd" d="M283.227 346.942L282.546 347.622C278.045 352.126 270.673 352.126 266.169 347.622L224.604 306.057L241.662 289L283.227 330.565C287.73 335.069 287.73 342.438 283.227 346.942Z" fill="url(#paint0_linear_10_9534)"/>
<path fill-rule="evenodd" clip-rule="evenodd" d="M224.322 280L236.604 292.283L227.885 301L215.604 288.717C217.225 287.509 218.784 286.154 220.275 284.668C221.761 283.182 223.116 281.621 224.322 280Z" fill="#E0E2EE"/>
<path fill-rule="evenodd" clip-rule="evenodd" d="M282.604 330.054L265.656 347L262.604 343.946L279.551 327L282.604 330.054Z" fill="#EF545F"/>
<path fill-rule="evenodd" clip-rule="evenodd" d="M242.604 289.587L225.192 307L222.604 304.413L240.017 287L242.604 289.587Z" fill="url(#paint1_linear_10_9534)"/>
<path fill-rule="evenodd" clip-rule="evenodd" d="M204.604 229.299L161.901 272C160.293 269.118 159.199 266.059 158.604 262.898L195.502 226C198.661 226.618 201.722 227.709 204.604 229.299Z" fill="white" fill-opacity="0.5"/>
<path fill-rule="evenodd" clip-rule="evenodd" d="M218.604 239.448L172.437 283C170.784 281.912 169.21 280.687 167.743 279.302C166.987 278.59 166.273 277.859 165.604 277.087L212.334 233C213.152 233.633 213.929 234.307 214.682 235.02C216.15 236.404 217.47 237.886 218.604 239.448Z" fill="white" fill-opacity="0.5"/>
</g>
<defs>
<linearGradient id="paint0_linear_10_9534" x1="255.604" y1="258" x2="193.604" y2="320" gradientUnits="userSpaceOnUse">
<stop stop-color="#FF8960"/>
<stop offset="1" stop-color="#FF62A5"/>
</linearGradient>
<linearGradient id="paint1_linear_10_9534" x1="232.604" y1="277" x2="212.604" y2="297" gradientUnits="userSpaceOnUse">
<stop stop-color="#FF404E"/>
<stop offset="1" stop-color="#FF62A5"/>
</linearGradient>
<clipPath id="clip0_10_9534">
<rect width="375" height="812" fill="white"/>
</clipPath>
</defs>
</svg>
