<svg width="375" height="812" viewBox="0 0 375 812" fill="none" xmlns="http://www.w3.org/2000/svg">
<g clip-path="url(#clip0_10_9619)">
<rect width="375" height="812" fill="white"/>
<path d="M84.9351 484.224V495.744L77.3271 484.224H73.9671V501H77.3271V489.504L84.9351 501H88.2951V484.224H84.9351ZM104.776 494.352C104.776 490.152 101.776 487.488 97.9355 487.488C94.0955 487.488 91.0955 490.152 91.0955 494.352C91.0955 498.528 93.9995 501.216 97.8395 501.216C101.704 501.216 104.776 498.528 104.776 494.352ZM94.5035 494.352C94.5035 491.688 96.1115 490.416 97.8875 490.416C99.6635 490.416 101.32 491.688 101.32 494.352C101.32 496.992 99.6155 498.288 97.8395 498.288C96.0395 498.288 94.5035 496.992 94.5035 494.352ZM126.151 487.704H122.767V495.024C122.767 497.16 121.615 498.312 119.791 498.312C118.015 498.312 116.839 497.16 116.839 495.024V487.704H113.479V495.504C113.479 499.152 115.711 501.168 118.807 501.168C120.463 501.168 121.927 500.448 122.767 499.32V501H126.151V487.704ZM133.146 489.624V487.704H129.786V507.336H133.146V499.104C133.962 500.184 135.45 501.216 137.538 501.216C140.946 501.216 143.61 498.456 143.61 494.304C143.61 490.152 140.946 487.488 137.538 487.488C135.474 487.488 133.938 488.496 133.146 489.624ZM140.178 494.304C140.178 496.824 138.474 498.264 136.65 498.264C134.85 498.264 133.146 496.872 133.146 494.352C133.146 491.832 134.85 490.44 136.65 490.44C138.474 490.44 140.178 491.784 140.178 494.304ZM145.508 494.352C145.508 498.528 148.244 501.216 152.084 501.216C155.396 501.216 157.628 499.344 158.348 496.512H154.724C154.316 497.712 153.452 498.336 152.06 498.336C150.188 498.336 148.94 496.944 148.94 494.352C148.94 491.76 150.188 490.344 152.06 490.344C153.452 490.344 154.34 491.064 154.724 492.192H158.348C157.628 489.216 155.396 487.488 152.084 487.488C148.244 487.488 145.508 490.176 145.508 494.352ZM173.969 494.352C173.969 490.152 170.969 487.488 167.129 487.488C163.289 487.488 160.289 490.152 160.289 494.352C160.289 498.528 163.193 501.216 167.033 501.216C170.897 501.216 173.969 498.528 173.969 494.352ZM163.697 494.352C163.697 491.688 165.305 490.416 167.081 490.416C168.857 490.416 170.513 491.688 170.513 494.352C170.513 496.992 168.809 498.288 167.033 498.288C165.233 498.288 163.697 496.992 163.697 494.352ZM195.354 501H198.714V493.2C198.714 489.528 196.458 487.512 193.266 487.512C191.322 487.512 189.57 488.544 188.706 490.056C187.794 488.4 186.09 487.512 184.026 487.512C182.37 487.512 180.954 488.208 180.114 489.312V487.704H176.754V501H180.114V493.656C180.114 491.544 181.29 490.44 183.114 490.44C184.89 490.44 186.066 491.544 186.066 493.656V501H189.426V493.656C189.426 491.544 190.602 490.44 192.402 490.44C194.178 490.44 195.354 491.544 195.354 493.656V501ZM202.222 501H205.582V487.704H202.222V501ZM203.926 486.12C205.102 486.12 205.99 485.256 205.99 484.152C205.99 483.048 205.102 482.184 203.926 482.184C202.726 482.184 201.862 483.048 201.862 484.152C201.862 485.256 202.726 486.12 203.926 486.12ZM218.534 501H221.894V493.2C221.894 489.528 219.686 487.512 216.59 487.512C214.886 487.512 213.446 488.232 212.582 489.36V487.704H209.222V501H212.582V493.656C212.582 491.52 213.758 490.368 215.582 490.368C217.358 490.368 218.534 491.52 218.534 493.656V501ZM224.545 494.304C224.545 498.456 227.233 501.216 230.617 501.216C232.705 501.216 234.217 500.184 235.009 499.032V501.096C235.009 503.568 233.569 504.624 231.721 504.624C230.041 504.624 228.793 503.832 228.457 502.632H225.121C225.457 505.68 228.073 507.552 231.817 507.552C236.185 507.552 238.393 504.696 238.393 501.096V487.704H235.009V489.6C234.217 488.448 232.705 487.488 230.617 487.488C227.233 487.488 224.545 490.152 224.545 494.304ZM235.009 494.352C235.009 496.872 233.329 498.264 231.481 498.264C229.681 498.264 227.977 496.824 227.977 494.304C227.977 491.784 229.681 490.44 231.481 490.44C233.329 490.44 235.009 491.832 235.009 494.352ZM248.562 496.872C248.562 499.92 250.266 501 252.81 501H254.922V498.168H253.362C252.306 498.168 251.946 497.784 251.946 496.896V490.464H254.922V487.704H251.946V484.416H248.562V487.704H246.978V490.464H248.562V496.872ZM261.018 494.376C261.018 491.808 262.218 491.04 264.21 491.04H265.098V487.512C263.25 487.512 261.858 488.4 261.018 489.768V487.704H257.658V501H261.018V494.376ZM267.681 501H271.041V487.704H267.681V501ZM269.385 486.12C270.561 486.12 271.449 485.256 271.449 484.152C271.449 483.048 270.561 482.184 269.385 482.184C268.185 482.184 267.321 483.048 267.321 484.152C267.321 485.256 268.185 486.12 269.385 486.12ZM278.041 489.624V487.704H274.681V507.336H278.041V499.104C278.857 500.184 280.345 501.216 282.433 501.216C285.841 501.216 288.505 498.456 288.505 494.304C288.505 490.152 285.841 487.488 282.433 487.488C280.369 487.488 278.833 488.496 278.041 489.624ZM285.073 494.304C285.073 496.824 283.369 498.264 281.545 498.264C279.745 498.264 278.041 496.872 278.041 494.352C278.041 491.832 279.745 490.44 281.545 490.44C283.369 490.44 285.073 491.784 285.073 494.304ZM301.587 497.208C301.491 492.336 294.123 493.848 294.123 491.424C294.123 490.656 294.771 490.152 296.019 490.152C297.339 490.152 298.155 490.848 298.251 491.88H301.467C301.275 489.24 299.331 487.488 296.115 487.488C292.827 487.488 290.859 489.264 290.859 491.472C290.859 496.344 298.371 494.832 298.371 497.208C298.371 497.976 297.651 498.576 296.331 498.576C294.987 498.576 294.051 497.808 293.931 496.8H290.547C290.691 499.272 293.019 501.216 296.355 501.216C299.595 501.216 301.587 499.488 301.587 497.208Z" fill="#101828"/>
<path d="M49.4032 538.015L50.9182 538L53.4382 529.585L55.8682 538H57.3982L60.4282 527.545H58.9582L56.6632 536.38L54.2632 527.545H52.7332L50.2132 536.41L47.9332 527.545H46.4782L49.4032 538.015ZM62.242 538H63.607V533.455C63.607 531.685 64.567 530.815 65.962 530.815C67.342 530.815 68.257 531.67 68.257 533.35V538H69.607V533.155C69.607 530.8 68.152 529.63 66.322 529.63C65.167 529.63 64.147 530.095 63.607 530.965V526.9H62.242V538ZM75.6517 530.8C77.0617 530.8 78.2617 531.685 78.2467 533.29H73.0567C73.2067 531.685 74.3167 530.8 75.6517 530.8ZM79.4917 535.465H78.0217C77.7217 536.35 76.9417 536.98 75.7117 536.98C74.3167 536.98 73.1467 536.065 73.0417 534.4H79.6117C79.6417 534.115 79.6567 533.875 79.6567 533.575C79.6567 531.325 78.0967 529.645 75.7117 529.645C73.3117 529.645 71.6467 531.28 71.6467 533.875C71.6467 536.485 73.3717 538.135 75.7117 538.135C77.7517 538.135 79.0717 536.965 79.4917 535.465ZM87.7935 538H89.1435V533.155C89.1435 530.8 87.6885 529.63 85.7835 529.63C84.6735 529.63 83.6835 530.095 83.1435 530.95V529.78H81.7785V538H83.1435V533.455C83.1435 531.685 84.1035 530.815 85.4985 530.815C86.8785 530.815 87.7935 531.67 87.7935 533.35V538ZM99.1322 536.44L96.5522 529.78H95.0372L98.3522 537.91L96.7322 541.87H98.1422L103.092 529.78H101.682L99.1322 536.44ZM112.584 533.875C112.584 531.28 110.769 529.645 108.429 529.645C106.104 529.645 104.274 531.28 104.274 533.875C104.274 536.485 106.044 538.135 108.369 538.135C110.709 538.135 112.584 536.485 112.584 533.875ZM105.669 533.875C105.669 531.805 106.974 530.83 108.414 530.83C109.824 530.83 111.189 531.805 111.189 533.875C111.189 535.96 109.794 536.935 108.369 536.935C106.944 536.935 105.669 535.96 105.669 533.875ZM121.989 529.78H120.624V534.295C120.624 536.065 119.679 536.935 118.269 536.935C116.889 536.935 115.974 536.08 115.974 534.415V529.78H114.624V534.595C114.624 536.95 116.109 538.12 117.999 538.12C119.094 538.12 120.099 537.64 120.624 536.785V538H121.989V529.78ZM130.298 531.31V526.9H128.933V538H130.298V536.485C130.808 537.385 131.873 538.135 133.373 538.135C135.578 538.135 137.273 536.41 137.273 533.86C137.273 531.295 135.593 529.645 133.373 529.645C131.918 529.645 130.823 530.395 130.298 531.31ZM135.878 533.86C135.878 535.795 134.603 536.935 133.088 536.935C131.603 536.935 130.298 535.81 130.298 533.875C130.298 531.97 131.603 530.83 133.088 530.83C134.603 530.83 135.878 531.925 135.878 533.86ZM147.19 533.875C147.19 531.28 145.375 529.645 143.035 529.645C140.71 529.645 138.88 531.28 138.88 533.875C138.88 536.485 140.65 538.135 142.975 538.135C145.315 538.135 147.19 536.485 147.19 533.875ZM140.275 533.875C140.275 531.805 141.58 530.83 143.02 530.83C144.43 530.83 145.795 531.805 145.795 533.875C145.795 535.96 144.4 536.935 142.975 536.935C141.55 536.935 140.275 535.96 140.275 533.875ZM157.104 533.875C157.104 531.28 155.289 529.645 152.949 529.645C150.624 529.645 148.794 531.28 148.794 533.875C148.794 536.485 150.564 538.135 152.889 538.135C155.229 538.135 157.104 536.485 157.104 533.875ZM150.189 533.875C150.189 531.805 151.494 530.83 152.934 530.83C154.344 530.83 155.709 531.805 155.709 533.875C155.709 535.96 154.314 536.935 152.889 536.935C151.464 536.935 150.189 535.96 150.189 533.875ZM159.219 538H160.584V534.37L163.809 538H165.669L161.784 533.875L165.654 529.78H163.749L160.584 533.425V526.9H159.219V538ZM171.068 533.86C171.068 536.41 172.763 538.135 174.953 538.135C176.468 538.135 177.533 537.355 178.028 536.47V538H179.408V529.78H178.028V531.28C177.548 530.425 176.498 529.645 174.968 529.645C172.763 529.645 171.068 531.295 171.068 533.86ZM178.028 533.875C178.028 535.81 176.738 536.935 175.238 536.935C173.738 536.935 172.463 535.795 172.463 533.86C172.463 531.925 173.738 530.83 175.238 530.83C176.738 530.83 178.028 531.97 178.028 533.875ZM186.654 535.75C186.654 537.4 187.479 538 188.934 538H190.164V536.845H189.159C188.319 536.845 188.019 536.56 188.019 535.75V530.905H190.164V529.78H188.019V527.71H186.654V529.78H185.589V530.905H186.654V535.75ZM193.502 533.53C193.502 531.625 194.492 531.04 195.797 531.04H196.157V529.63C194.852 529.63 193.967 530.2 193.502 531.115V529.78H192.137V538H193.502V533.53ZM198.053 538H199.418V529.78H198.053V538ZM198.758 528.445C199.253 528.445 199.658 528.04 199.658 527.515C199.658 526.99 199.253 526.585 198.758 526.585C198.233 526.585 197.828 526.99 197.828 527.515C197.828 528.04 198.233 528.445 198.758 528.445ZM203.43 531.295V529.78H202.065V541.9H203.43V536.485C203.94 537.325 205.005 538.135 206.505 538.135C208.71 538.135 210.405 536.41 210.405 533.86C210.405 531.295 208.71 529.645 206.505 529.645C205.005 529.645 203.925 530.425 203.43 531.295ZM209.01 533.86C209.01 535.795 207.735 536.935 206.22 536.935C204.735 536.935 203.43 535.81 203.43 533.875C203.43 531.97 204.735 530.83 206.22 530.83C207.735 530.83 209.01 531.925 209.01 533.86ZM211.336 540.145H212.251L213.931 536.11H212.431L211.336 540.145ZM223.254 536.44L220.674 529.78H219.159L222.474 537.91L220.854 541.87H222.264L227.214 529.78H225.804L223.254 536.44ZM236.706 533.875C236.706 531.28 234.891 529.645 232.551 529.645C230.226 529.645 228.396 531.28 228.396 533.875C228.396 536.485 230.166 538.135 232.491 538.135C234.831 538.135 236.706 536.485 236.706 533.875ZM229.791 533.875C229.791 531.805 231.096 530.83 232.536 530.83C233.946 530.83 235.311 531.805 235.311 533.875C235.311 535.96 233.916 536.935 232.491 536.935C231.066 536.935 229.791 535.96 229.791 533.875ZM246.111 529.78H244.746V534.295C244.746 536.065 243.801 536.935 242.391 536.935C241.011 536.935 240.096 536.08 240.096 534.415V529.78H238.746V534.595C238.746 536.95 240.231 538.12 242.121 538.12C243.216 538.12 244.221 537.64 244.746 536.785V538H246.111V529.78ZM248.3 529.045H249.245L249.425 526.06H248.105L248.3 529.045ZM251.443 538H252.808V526.9H251.443V538ZM255.455 538H256.82V526.9H255.455V538ZM269.695 535.765C269.635 532.825 264.865 533.89 264.865 531.94C264.865 531.28 265.465 530.8 266.47 530.8C267.565 530.8 268.195 531.4 268.255 532.225H269.62C269.53 530.62 268.33 529.645 266.515 529.645C264.685 529.645 263.5 530.68 263.5 531.94C263.5 535 268.36 533.935 268.36 535.765C268.36 536.44 267.76 536.98 266.68 536.98C265.525 536.98 264.82 536.38 264.745 535.585H263.335C263.425 537.085 264.775 538.135 266.695 538.135C268.51 538.135 269.695 537.115 269.695 535.765ZM275.437 530.8C276.847 530.8 278.047 531.685 278.032 533.29H272.842C272.992 531.685 274.102 530.8 275.437 530.8ZM279.277 535.465H277.807C277.507 536.35 276.727 536.98 275.497 536.98C274.102 536.98 272.932 536.065 272.827 534.4H279.397C279.427 534.115 279.442 533.875 279.442 533.575C279.442 531.325 277.882 529.645 275.497 529.645C273.097 529.645 271.432 531.28 271.432 533.875C271.432 536.485 273.157 538.135 275.497 538.135C277.537 538.135 278.857 536.965 279.277 535.465ZM285.059 530.8C286.469 530.8 287.669 531.685 287.654 533.29H282.464C282.614 531.685 283.724 530.8 285.059 530.8ZM288.899 535.465H287.429C287.129 536.35 286.349 536.98 285.119 536.98C283.724 536.98 282.554 536.065 282.449 534.4H289.019C289.049 534.115 289.064 533.875 289.064 533.575C289.064 531.325 287.504 529.645 285.119 529.645C282.719 529.645 281.054 531.28 281.054 533.875C281.054 536.485 282.779 538.135 285.119 538.135C287.159 538.135 288.479 536.965 288.899 535.465ZM298.624 536.44L296.044 529.78H294.529L297.844 537.91L296.224 541.87H297.634L302.584 529.78H301.174L298.624 536.44ZM312.077 533.875C312.077 531.28 310.262 529.645 307.922 529.645C305.597 529.645 303.767 531.28 303.767 533.875C303.767 536.485 305.537 538.135 307.862 538.135C310.202 538.135 312.077 536.485 312.077 533.875ZM305.162 533.875C305.162 531.805 306.467 530.83 307.907 530.83C309.317 530.83 310.682 531.805 310.682 533.875C310.682 535.96 309.287 536.935 307.862 536.935C306.437 536.935 305.162 535.96 305.162 533.875ZM321.481 529.78H320.116V534.295C320.116 536.065 319.171 536.935 317.761 536.935C316.381 536.935 315.466 536.08 315.466 534.415V529.78H314.116V534.595C314.116 536.95 315.601 538.12 317.491 538.12C318.586 538.12 319.591 537.64 320.116 536.785V538H321.481V529.78ZM325.471 533.53C325.471 531.625 326.461 531.04 327.766 531.04H328.126V529.63C326.821 529.63 325.936 530.2 325.471 531.115V529.78H324.106V538H325.471V533.53ZM136.917 561H138.282V552.78H136.917V561ZM137.622 551.445C138.117 551.445 138.522 551.04 138.522 550.515C138.522 549.99 138.117 549.585 137.622 549.585C137.097 549.585 136.692 549.99 136.692 550.515C136.692 551.04 137.097 551.445 137.622 551.445ZM141.228 558.75C141.228 560.4 142.053 561 143.508 561H144.738V559.845H143.733C142.893 559.845 142.593 559.56 142.593 558.75V553.905H144.738V552.78H142.593V550.71H141.228V552.78H140.163V553.905H141.228V558.75ZM146.712 561H148.077V552.78H146.712V561ZM147.417 551.445C147.912 551.445 148.317 551.04 148.317 550.515C148.317 549.99 147.912 549.585 147.417 549.585C146.892 549.585 146.487 549.99 146.487 550.515C146.487 551.04 146.892 551.445 147.417 551.445ZM156.738 561H158.088V556.155C158.088 553.8 156.633 552.63 154.728 552.63C153.618 552.63 152.628 553.095 152.088 553.95V552.78H150.723V561H152.088V556.455C152.088 554.685 153.048 553.815 154.443 553.815C155.823 553.815 156.738 554.67 156.738 556.35V561ZM164.133 553.8C165.543 553.8 166.743 554.685 166.728 556.29H161.538C161.688 554.685 162.798 553.8 164.133 553.8ZM167.973 558.465H166.503C166.203 559.35 165.423 559.98 164.193 559.98C162.798 559.98 161.628 559.065 161.523 557.4H168.093C168.123 557.115 168.138 556.875 168.138 556.575C168.138 554.325 166.578 552.645 164.193 552.645C161.793 552.645 160.128 554.28 160.128 556.875C160.128 559.485 161.853 561.135 164.193 561.135C166.233 561.135 167.553 559.965 167.973 558.465ZM171.625 556.53C171.625 554.625 172.615 554.04 173.92 554.04H174.28V552.63C172.975 552.63 172.09 553.2 171.625 554.115V552.78H170.26V561H171.625V556.53ZM175.666 556.86C175.666 559.41 177.361 561.135 179.551 561.135C181.066 561.135 182.131 560.355 182.626 559.47V561H184.006V552.78H182.626V554.28C182.146 553.425 181.096 552.645 179.566 552.645C177.361 552.645 175.666 554.295 175.666 556.86ZM182.626 556.875C182.626 558.81 181.336 559.935 179.836 559.935C178.336 559.935 177.061 558.795 177.061 556.86C177.061 554.925 178.336 553.83 179.836 553.83C181.336 553.83 182.626 554.97 182.626 556.875ZM187.997 556.53C187.997 554.625 188.987 554.04 190.292 554.04H190.652V552.63C189.347 552.63 188.462 553.2 187.997 554.115V552.78H186.632V561H187.997V556.53ZM195.668 559.44L193.088 552.78H191.573L194.888 560.91L193.268 564.87H194.678L199.628 552.78H198.218L195.668 559.44ZM205.639 561H207.004V556.455C207.004 554.685 207.964 553.815 209.359 553.815C210.739 553.815 211.654 554.67 211.654 556.35V561H213.004V556.155C213.004 553.8 211.549 552.63 209.719 552.63C208.564 552.63 207.544 553.095 207.004 553.965V549.9H205.639V561ZM219.049 553.8C220.459 553.8 221.659 554.685 221.644 556.29H216.454C216.604 554.685 217.714 553.8 219.049 553.8ZM222.889 558.465H221.419C221.119 559.35 220.339 559.98 219.109 559.98C217.714 559.98 216.544 559.065 216.439 557.4H223.009C223.039 557.115 223.054 556.875 223.054 556.575C223.054 554.325 221.494 552.645 219.109 552.645C216.709 552.645 215.044 554.28 215.044 556.875C215.044 559.485 216.769 561.135 219.109 561.135C221.149 561.135 222.469 559.965 222.889 558.465ZM226.541 556.53C226.541 554.625 227.531 554.04 228.836 554.04H229.196V552.63C227.891 552.63 227.006 553.2 226.541 554.115V552.78H225.176V561H226.541V556.53ZM234.586 553.8C235.996 553.8 237.196 554.685 237.181 556.29H231.991C232.141 554.685 233.251 553.8 234.586 553.8ZM238.426 558.465H236.956C236.656 559.35 235.876 559.98 234.646 559.98C233.251 559.98 232.081 559.065 231.976 557.4H238.546C238.576 557.115 238.591 556.875 238.591 556.575C238.591 554.325 237.031 552.645 234.646 552.645C232.246 552.645 230.581 554.28 230.581 556.875C230.581 559.485 232.306 561.135 234.646 561.135C236.686 561.135 238.006 559.965 238.426 558.465Z" fill="#667085"/>
<path opacity="0.35" d="M338.667 17.8334H355.333C356.53 17.8334 357.5 18.8037 357.5 20.0004V26.0004C357.5 27.1968 356.53 28.1664 355.333 28.1664H338.667C337.47 28.1664 336.5 27.1968 336.5 26.0004V20.0004L336.511 19.7787C336.622 18.686 337.545 17.8334 338.667 17.8334Z" stroke="black"/>
<path opacity="0.4" d="M359 21V25C359.805 24.6613 360.328 23.8732 360.328 23C360.328 22.1269 359.805 21.3388 359 21Z" fill="black"/>
<path d="M338 20.6667C338 19.9303 338.597 19.3334 339.333 19.3334H354.667C355.403 19.3334 356 19.9303 356 20.6667V25.3334C356 26.0698 355.403 26.6667 354.667 26.6667H339.333C338.597 26.6667 338 26.0698 338 25.3334V20.6667Z" fill="black"/>
<path fill-rule="evenodd" clip-rule="evenodd" d="M323.331 19.608C325.547 19.6081 327.678 20.4596 329.284 21.9863C329.405 22.1042 329.598 22.1027 329.717 21.983L330.873 20.8163C330.934 20.7556 330.967 20.6734 330.967 20.5878C330.966 20.5022 330.932 20.4204 330.871 20.3603C326.656 16.3208 320.006 16.3208 315.791 20.3603C315.73 20.4203 315.695 20.5021 315.694 20.5877C315.694 20.6733 315.727 20.7556 315.788 20.8163L316.944 21.983C317.063 22.1029 317.256 22.1044 317.377 21.9863C318.983 20.4595 321.115 19.608 323.331 19.608ZM323.331 23.4037C324.548 23.4036 325.722 23.8561 326.625 24.6733C326.747 24.7893 326.939 24.7868 327.058 24.6677L328.213 23.501C328.274 23.4398 328.307 23.3568 328.307 23.2705C328.306 23.1843 328.27 23.102 328.208 23.042C325.46 20.4856 321.204 20.4856 318.456 23.042C318.394 23.102 318.358 23.1843 318.358 23.2706C318.357 23.3569 318.391 23.4399 318.452 23.501L319.606 24.6677C319.725 24.7868 319.917 24.7893 320.039 24.6733C320.941 23.8567 322.114 23.4042 323.331 23.4037ZM325.644 25.9575C325.646 26.044 325.612 26.1274 325.55 26.188L323.553 28.2037C323.494 28.2629 323.414 28.2963 323.331 28.2963C323.248 28.2963 323.168 28.2629 323.109 28.2037L321.112 26.188C321.05 26.1274 321.016 26.0439 321.018 25.9574C321.02 25.8709 321.057 25.789 321.121 25.731C322.397 24.6521 324.265 24.6521 325.541 25.731C325.605 25.7891 325.642 25.871 325.644 25.9575Z" fill="black"/>
<path fill-rule="evenodd" clip-rule="evenodd" d="M309.667 17.6666H308.667C308.115 17.6666 307.667 18.1143 307.667 18.6666V27.3333C307.667 27.8856 308.115 28.3333 308.667 28.3333H309.667C310.219 28.3333 310.667 27.8856 310.667 27.3333V18.6666C310.667 18.1143 310.219 17.6666 309.667 17.6666ZM304 20H305C305.553 20 306 20.4477 306 21V27.3333C306 27.8856 305.553 28.3333 305 28.3333H304C303.448 28.3333 303 27.8856 303 27.3333V21C303 20.4477 303.448 20 304 20ZM300.334 22.3333H299.334C298.781 22.3333 298.334 22.781 298.334 23.3333V27.3333C298.334 27.8856 298.781 28.3333 299.334 28.3333H300.334C300.886 28.3333 301.334 27.8856 301.334 27.3333V23.3333C301.334 22.781 300.886 22.3333 300.334 22.3333ZM295.667 24.3333H294.667C294.115 24.3333 293.667 24.781 293.667 25.3333V27.3333C293.667 27.8856 294.115 28.3333 294.667 28.3333H295.667C296.219 28.3333 296.667 27.8856 296.667 27.3333V25.3333C296.667 24.781 296.219 24.3333 295.667 24.3333Z" fill="black"/>
<path d="M37.3203 28.2563C40.0083 28.2563 41.605 26.1543 41.605 22.5947C41.605 21.2544 41.3486 20.1265 40.8579 19.2549C40.1475 17.8999 38.9243 17.1675 37.3789 17.1675C35.0791 17.1675 33.4531 18.7129 33.4531 20.8809C33.4531 22.917 34.918 24.3965 36.9321 24.3965C38.1699 24.3965 39.1733 23.8179 39.6714 22.8145H39.6934C39.6934 22.8145 39.7227 22.8145 39.73 22.8145C39.7446 22.8145 39.7959 22.8145 39.7959 22.8145C39.7959 25.2314 38.8804 26.6743 37.335 26.6743C36.4268 26.6743 35.7236 26.1763 35.4819 25.3779H33.5996C33.9146 27.1138 35.3867 28.2563 37.3203 28.2563ZM37.3862 22.895C36.1704 22.895 35.3062 22.0308 35.3062 20.8223C35.3062 19.6431 36.2144 18.7422 37.3936 18.7422C38.5728 18.7422 39.481 19.6577 39.481 20.8516C39.481 22.0308 38.5947 22.895 37.3862 22.895Z" fill="black"/>
<path d="M44.6961 28.1538C45.3919 28.1538 45.868 27.6558 45.868 26.9966C45.868 26.3301 45.3919 25.8394 44.6961 25.8394C44.0076 25.8394 43.5242 26.3301 43.5242 26.9966C43.5242 27.6558 44.0076 28.1538 44.6961 28.1538ZM44.6961 22.6606C45.3919 22.6606 45.868 22.1699 45.868 21.5107C45.868 20.8442 45.3919 20.3535 44.6961 20.3535C44.0076 20.3535 43.5242 20.8442 43.5242 21.5107C43.5242 22.1699 44.0076 22.6606 44.6961 22.6606Z" fill="black"/>
<path d="M52.7237 28H54.5328V26.0298H55.961V24.4331H54.5328V17.4312H51.8668C49.9991 20.2437 48.5123 22.5947 47.5602 24.3452V26.0298H52.7237V28ZM49.3106 24.3672C50.5411 22.1992 51.6397 20.4634 52.6505 18.9692H52.753V24.4771H49.3106V24.3672Z" fill="black"/>
<path d="M59.9896 28H61.8793V17.4312H59.997L57.2357 19.3647V21.1812L59.8651 19.3354H59.9896V28Z" fill="black"/>
<rect x="121" y="799" width="134" height="5" rx="2.5" fill="black"/>
<mask id="mask0_10_9619" style="mask-type:luminance" maskUnits="userSpaceOnUse" x="78" y="195" width="226" height="129">
<path fill-rule="evenodd" clip-rule="evenodd" d="M133.852 217.872H104.9C101.138 217.872 98.061 220.959 98.061 224.733C98.061 228.507 101.138 231.594 104.9 231.594H119.634H123.952C127.714 231.594 130.791 234.682 130.791 238.456C130.791 240.342 130.02 242.061 128.78 243.3C127.545 244.545 125.831 245.318 123.952 245.318H114.74H109.654H84.839C81.077 245.318 78 248.406 78 252.179C78 255.952 81.077 259.04 84.839 259.04H102.604C97.241 271.685 94.271 285.598 94.271 300.21C94.271 305.511 94.663 310.721 95.415 315.812C95.729 317.939 96.108 320.048 96.551 322.134C109.454 320.154 123.141 318.561 137.43 317.399L138.505 318.383L139.517 317.235C156.684 315.895 174.702 315.181 193.286 315.181C232.77 315.181 269.718 318.401 301.309 324C302.527 318.704 303.348 313.255 303.736 307.684C303.913 305.214 304 302.721 304 300.21C304 242.102 257.053 195 199.136 195C174.452 195 151.765 203.557 133.852 217.872Z" fill="white"/>
</mask>
<g mask="url(#mask0_10_9619)">
<path fill-rule="evenodd" clip-rule="evenodd" d="M73 329H309V190H73V329Z" fill="#F1F2F7"/>
</g>
<mask id="mask1_10_9619" style="mask-type:luminance" maskUnits="userSpaceOnUse" x="53" y="245" width="18" height="14">
<path fill-rule="evenodd" clip-rule="evenodd" d="M59.927 245C56.117 245 53 248.151 53 252C53 255.849 56.117 259 59.927 259H64.072C67.883 259 71 255.849 71 252C71 248.151 67.883 245 64.072 245H59.927Z" fill="white"/>
</mask>
<g mask="url(#mask1_10_9619)">
<path fill-rule="evenodd" clip-rule="evenodd" d="M48 264H76V240H48V264Z" fill="#F1F2F7"/>
</g>
<mask id="mask2_10_9619" style="mask-type:luminance" maskUnits="userSpaceOnUse" x="96" y="315" width="227" height="90">
<path fill-rule="evenodd" clip-rule="evenodd" d="M139.365 317.373L138.352 318.514L137.277 317.536C122.992 318.691 109.309 320.272 96.4082 322.241C106.459 369.523 148.559 405 198.968 405C222.571 405 244.35 397.218 261.877 384.091H280.534C284.294 384.091 287.371 381.022 287.371 377.273C287.371 375.401 286.6 373.691 285.361 372.46C284.125 371.223 282.411 370.455 280.534 370.455H272.42C268.659 370.455 265.582 367.387 265.582 363.637C265.582 361.764 266.353 360.055 267.592 358.823C268.828 357.586 270.542 356.819 272.42 356.819H316.093C319.854 356.819 322.93 353.751 322.93 350C322.93 348.127 322.159 346.418 320.92 345.187C319.68 343.95 317.974 343.182 316.093 343.182H294.678C297.413 337.105 299.583 330.723 301.118 324.096C269.534 318.533 232.595 315.332 193.12 315.332C174.541 315.332 156.526 316.041 139.365 317.373Z" fill="white"/>
</mask>
<g mask="url(#mask2_10_9619)">
<path fill-rule="evenodd" clip-rule="evenodd" d="M91.4082 410H327.929V310.332H91.4082V410Z" fill="#E8EBF2"/>
</g>
<mask id="mask3_10_9619" style="mask-type:luminance" maskUnits="userSpaceOnUse" x="139" y="303" width="164" height="21">
<path fill-rule="evenodd" clip-rule="evenodd" d="M282.775 316.304L272.217 306.627L260.919 315.013L256.183 308.488L237.487 315.013L194.418 308.488L169.383 315.4C177.038 315.144 184.816 315.013 192.697 315.013C232.128 315.013 269.028 318.294 300.578 324C301.792 318.602 302.613 313.05 303 307.373L299.426 303L282.775 316.304ZM139 317.106C148.864 316.32 159.009 315.746 169.383 315.4L150.889 303.332L139 317.106Z" fill="white"/>
</mask>
<g mask="url(#mask3_10_9619)">
<path fill-rule="evenodd" clip-rule="evenodd" d="M134 329H308V298H134V329Z" fill="#E0E2EE"/>
</g>
<mask id="mask4_10_9619" style="mask-type:luminance" maskUnits="userSpaceOnUse" x="137" y="317" width="2" height="2">
<path fill-rule="evenodd" clip-rule="evenodd" d="M137 317.144L138.03 318.001L139 317C138.332 317.044 137.663 317.092 137 317.144Z" fill="white"/>
</mask>
<g mask="url(#mask4_10_9619)">
<path fill-rule="evenodd" clip-rule="evenodd" d="M132 323H144V312H132V323Z" fill="#F1F2F7"/>
</g>
<mask id="mask5_10_9619" style="mask-type:luminance" maskUnits="userSpaceOnUse" x="95" y="299" width="42" height="23">
<path fill-rule="evenodd" clip-rule="evenodd" d="M95 315.668C95.314 317.799 95.693 319.911 96.134 322C109.033 320.017 122.716 318.422 137 317.258L117.109 299L95 315.668Z" fill="white"/>
</mask>
<g mask="url(#mask5_10_9619)">
<path fill-rule="evenodd" clip-rule="evenodd" d="M90 327H142V294H90V327Z" fill="#E0E2EE"/>
</g>
<mask id="mask6_10_9619" style="mask-type:luminance" maskUnits="userSpaceOnUse" x="161" y="354" width="79" height="8">
<path fill-rule="evenodd" clip-rule="evenodd" d="M161.717 358.218C161.717 360.15 179.178 361.718 200.718 361.718C222.257 361.718 239.718 360.15 239.718 358.218C239.718 356.286 222.257 354.718 200.718 354.718C179.178 354.718 161.717 356.286 161.717 358.218Z" fill="white"/>
</mask>
<g mask="url(#mask6_10_9619)">
<path fill-rule="evenodd" clip-rule="evenodd" d="M156.718 366.718H244.718V349.718H156.718V366.718Z" fill="#D8DBEA"/>
</g>
<mask id="mask7_10_9619" style="mask-type:luminance" maskUnits="userSpaceOnUse" x="294" y="370" width="14" height="14">
<path fill-rule="evenodd" clip-rule="evenodd" d="M294 377C294 380.85 297.15 384 301 384C304.85 384 308 380.85 308 377C308 373.151 304.85 370 301 370C297.15 370 294 373.151 294 377Z" fill="white"/>
</mask>
<g mask="url(#mask7_10_9619)">
<path fill-rule="evenodd" clip-rule="evenodd" d="M289 389H313V365H289V389Z" fill="#E1E3EF"/>
</g>
<path fill-rule="evenodd" clip-rule="evenodd" d="M199.687 273.233C196.431 273.233 193.791 270.593 193.791 267.337C193.791 264.082 196.431 261.443 199.687 261.443C202.943 261.443 205.583 264.082 205.583 267.337C205.583 270.593 202.943 273.233 199.687 273.233ZM199.687 259.001C195.083 259.001 191.35 262.733 191.35 267.337C191.35 271.943 195.083 275.675 199.687 275.675C204.291 275.675 208.025 271.943 208.025 267.337C208.025 262.733 204.291 259.001 199.687 259.001Z" fill="#D8DBEA"/>
<path fill-rule="evenodd" clip-rule="evenodd" d="M222.281 345.5H177.092C172.592 345.5 168.942 341.852 168.942 337.351V295.795C168.942 279.57 182.218 266.295 198.442 266.295H200.93C217.156 266.295 230.43 279.57 230.43 295.795V337.351C230.43 341.852 226.782 345.5 222.281 345.5Z" fill="#D8DBEA"/>
<path fill-rule="evenodd" clip-rule="evenodd" d="M234.135 335.6H233.693C231.899 335.6 230.432 334.132 230.432 332.339V309.159C230.432 307.365 231.899 305.898 233.693 305.898H238.114C239.907 305.898 241.374 307.365 241.374 309.159V328.36C241.374 332.342 238.116 335.6 234.135 335.6Z" fill="url(#paint0_linear_10_9619)"/>
<path fill-rule="evenodd" clip-rule="evenodd" d="M165.683 335.6H165.241C161.258 335.6 158 332.342 158 328.36V309.159C158 307.365 159.467 305.898 161.261 305.898H165.683C167.476 305.898 168.943 307.365 168.943 309.159V332.339C168.943 334.132 167.476 335.6 165.683 335.6Z" fill="url(#paint1_linear_10_9619)"/>
<path fill-rule="evenodd" clip-rule="evenodd" d="M218.967 334.284L199.166 340.55L179.364 334.284V320.748H218.967V334.284Z" fill="#BEC0D6"/>
<path fill-rule="evenodd" clip-rule="evenodd" d="M187.377 337.886L186.448 338.812C185.676 339.581 184.426 339.581 183.653 338.812L182.725 337.886V329.229H187.377V337.886Z" fill="url(#paint2_linear_10_9619)"/>
<path fill-rule="evenodd" clip-rule="evenodd" d="M185.99 336.363C185.99 336.883 185.569 337.303 185.05 337.303C184.53 337.303 184.109 336.883 184.109 336.363C184.109 335.843 184.53 335.423 185.05 335.423C185.569 335.423 185.99 335.843 185.99 336.363Z" fill="#F7FFF6"/>
<path fill-rule="evenodd" clip-rule="evenodd" d="M213.952 337.886L213.023 338.812C212.251 339.581 211.001 339.581 210.228 338.812L209.3 337.886V329.229H213.952V337.886Z" fill="url(#paint3_linear_10_9619)"/>
<path fill-rule="evenodd" clip-rule="evenodd" d="M212.566 336.363C212.566 336.883 212.145 337.303 211.626 337.303C211.106 337.303 210.685 336.883 210.685 336.363C210.685 335.843 211.106 335.423 211.626 335.423C212.145 335.423 212.566 335.843 212.566 336.363Z" fill="#F7FFF6"/>
<path fill-rule="evenodd" clip-rule="evenodd" d="M227.478 297.321V301.729V310.88L175.28 285.88C178.75 277.01 187.421 270.695 197.478 270.695H201.897C215.007 270.695 227.478 284.2 227.478 297.321Z" fill="white"/>
<path fill-rule="evenodd" clip-rule="evenodd" d="M175.279 299.624V295.216V286.065L227.477 311.066C224.008 319.935 215.337 326.25 205.279 326.25H200.861C187.75 326.25 175.279 312.745 175.279 299.624Z" fill="url(#paint4_linear_10_9619)"/>
<path d="M216.479 179C181.839 181.932 169.107 211.253 179.537 228.344C186.897 240.403 199.368 256.701 222.614 252.791C245.86 248.881 247.819 227.368 235.576 224.441C223.334 221.516 179.719 235.164 184.648 266.693C188.206 289.443 219.047 296 219.047 296" stroke="#D7DAE9" stroke-width="2" stroke-dasharray="7"/>
<path fill-rule="evenodd" clip-rule="evenodd" d="M236.501 161C236.501 161 241.464 148.034 241.988 142.99C242.263 140.354 237.895 133.015 232.783 139.803C227.671 146.591 230.004 154.914 236.501 161Z" fill="#D8DBEA"/>
<path fill-rule="evenodd" clip-rule="evenodd" d="M218.887 146.879C213.072 144.912 210.44 146.445 209.318 149.506C208.196 152.567 209.763 158.394 218.533 159.722C227.305 161.051 236 161 236 161C236 161 224.702 148.845 218.887 146.879Z" fill="#D8DBEA"/>
<path fill-rule="evenodd" clip-rule="evenodd" d="M235.516 163.569C235.648 163.027 235.823 162.508 236.017 162C234.944 162.17 233.851 162.408 232.752 162.73C231.559 163.079 230.446 163.537 229.399 164.061C228.945 164.92 228.577 165.837 228.338 166.822C226.864 172.886 230.343 178.999 236.188 181C236.821 180.875 237.457 180.729 238.094 180.543C239.874 180.022 241.516 179.332 243 178.532C237.292 176.028 234.007 169.778 235.516 163.569Z" fill="#D8DBEA"/>
<path fill-rule="evenodd" clip-rule="evenodd" d="M227.171 166.732C227.311 166.133 227.501 165.56 227.711 165C222.654 168.239 219.822 173.267 220.289 176.199C217.058 177.588 215 178.758 215 178.758C215 178.758 217.438 178.572 220.99 177.889C222.893 180.67 228.168 182.532 234 181.864C228.717 179.132 225.735 172.914 227.171 166.732Z" fill="#D8DBEA"/>
<path fill-rule="evenodd" clip-rule="evenodd" d="M243.917 168.93C242.578 168.609 241.747 167.263 242.07 165.915C242.391 164.577 243.745 163.748 245.083 164.069C246.429 164.393 247.251 165.743 246.931 167.083C246.607 168.429 245.264 169.253 243.917 168.93ZM249.785 167.13C248.707 163.396 243.751 161.468 237.904 162.128C237.66 162.707 237.452 163.317 237.303 163.949C236.001 169.491 239.009 175.066 244.109 177C248.365 174.292 250.755 170.459 249.785 167.13Z" fill="#D8DBEA"/>
</g>
<defs>
<linearGradient id="paint0_linear_10_9619" x1="235.903" y1="291.047" x2="216.634" y2="298.145" gradientUnits="userSpaceOnUse">
<stop stop-color="#FF8960"/>
<stop offset="1" stop-color="#FF62A5"/>
</linearGradient>
<linearGradient id="paint1_linear_10_9619" x1="163.471" y1="291.047" x2="144.201" y2="298.147" gradientUnits="userSpaceOnUse">
<stop stop-color="#FF8960"/>
<stop offset="1" stop-color="#FF62A5"/>
</linearGradient>
<linearGradient id="paint2_linear_10_9619" x1="185.051" y1="324.149" x2="177.359" y2="327.671" gradientUnits="userSpaceOnUse">
<stop stop-color="#FF8960"/>
<stop offset="1" stop-color="#FF62A5"/>
</linearGradient>
<linearGradient id="paint3_linear_10_9619" x1="211.626" y1="324.149" x2="203.934" y2="327.671" gradientUnits="userSpaceOnUse">
<stop stop-color="#FF8960"/>
<stop offset="1" stop-color="#FF62A5"/>
</linearGradient>
<linearGradient id="paint4_linear_10_9619" x1="201.378" y1="265.973" x2="162.53" y2="316.435" gradientUnits="userSpaceOnUse">
<stop stop-color="#FF8960"/>
<stop offset="1" stop-color="#FF62A5"/>
</linearGradient>
<clipPath id="clip0_10_9619">
<rect width="375" height="812" fill="white"/>
</clipPath>
</defs>
</svg>
