<svg width="375" height="812" viewBox="0 0 375 812" fill="none" xmlns="http://www.w3.org/2000/svg">
<g clip-path="url(#clip0_70_12507)">
<rect width="375" height="812" fill="#F4F6FB"/>
<path d="M103.456 511.432C103.456 512.328 103.24 513.168 102.808 513.952C102.392 514.736 101.728 515.368 100.816 515.848C99.9201 516.328 98.7841 516.568 97.4081 516.568H94.6001V523H91.2401V506.248H97.4081C98.7041 506.248 99.8081 506.472 100.72 506.92C101.632 507.368 102.312 507.984 102.76 508.768C103.224 509.552 103.456 510.44 103.456 511.432ZM97.2641 513.856C98.1921 513.856 98.8801 513.648 99.3281 513.232C99.7761 512.8 100 512.2 100 511.432C100 509.8 99.0881 508.984 97.2641 508.984H94.6001V513.856H97.2641ZM105.298 516.304C105.298 514.96 105.562 513.768 106.09 512.728C106.634 511.688 107.362 510.888 108.274 510.328C109.202 509.768 110.234 509.488 111.37 509.488C112.362 509.488 113.226 509.688 113.962 510.088C114.714 510.488 115.314 510.992 115.762 511.6V509.704H119.146V523H115.762V521.056C115.33 521.68 114.73 522.2 113.962 522.616C113.21 523.016 112.338 523.216 111.346 523.216C110.226 523.216 109.202 522.928 108.274 522.352C107.362 521.776 106.634 520.968 106.09 519.928C105.562 518.872 105.298 517.664 105.298 516.304ZM115.762 516.352C115.762 515.536 115.602 514.84 115.282 514.264C114.962 513.672 114.53 513.224 113.986 512.92C113.442 512.6 112.858 512.44 112.234 512.44C111.61 512.44 111.034 512.592 110.506 512.896C109.978 513.2 109.546 513.648 109.21 514.24C108.89 514.816 108.73 515.504 108.73 516.304C108.73 517.104 108.89 517.808 109.21 518.416C109.546 519.008 109.978 519.464 110.506 519.784C111.05 520.104 111.626 520.264 112.234 520.264C112.858 520.264 113.442 520.112 113.986 519.808C114.53 519.488 114.962 519.04 115.282 518.464C115.602 517.872 115.762 517.168 115.762 516.352ZM127.955 509.488C128.947 509.488 129.819 509.688 130.571 510.088C131.323 510.472 131.915 510.976 132.347 511.6V509.704H135.731V523.096C135.731 524.328 135.483 525.424 134.987 526.384C134.491 527.36 133.747 528.128 132.755 528.688C131.763 529.264 130.563 529.552 129.155 529.552C127.267 529.552 125.715 529.112 124.499 528.232C123.299 527.352 122.619 526.152 122.459 524.632H125.795C125.971 525.24 126.347 525.72 126.923 526.072C127.515 526.44 128.227 526.624 129.059 526.624C130.035 526.624 130.827 526.328 131.435 525.736C132.043 525.16 132.347 524.28 132.347 523.096V521.032C131.915 521.656 131.315 522.176 130.547 522.592C129.795 523.008 128.931 523.216 127.955 523.216C126.835 523.216 125.811 522.928 124.883 522.352C123.955 521.776 123.219 520.968 122.675 519.928C122.147 518.872 121.883 517.664 121.883 516.304C121.883 514.96 122.147 513.768 122.675 512.728C123.219 511.688 123.947 510.888 124.859 510.328C125.787 509.768 126.819 509.488 127.955 509.488ZM132.347 516.352C132.347 515.536 132.187 514.84 131.867 514.264C131.547 513.672 131.115 513.224 130.571 512.92C130.027 512.6 129.443 512.44 128.819 512.44C128.195 512.44 127.619 512.592 127.091 512.896C126.563 513.2 126.131 513.648 125.795 514.24C125.475 514.816 125.315 515.504 125.315 516.304C125.315 517.104 125.475 517.808 125.795 518.416C126.131 519.008 126.563 519.464 127.091 519.784C127.635 520.104 128.211 520.264 128.819 520.264C129.443 520.264 130.027 520.112 130.571 519.808C131.115 519.488 131.547 519.04 131.867 518.464C132.187 517.872 132.347 517.168 132.347 516.352ZM151.693 516.064C151.693 516.544 151.661 516.976 151.597 517.36H141.877C141.957 518.32 142.293 519.072 142.885 519.616C143.477 520.16 144.205 520.432 145.069 520.432C146.317 520.432 147.205 519.896 147.733 518.824H151.357C150.973 520.104 150.237 521.16 149.149 521.992C148.061 522.808 146.725 523.216 145.141 523.216C143.861 523.216 142.709 522.936 141.685 522.376C140.677 521.8 139.885 520.992 139.309 519.952C138.749 518.912 138.469 517.712 138.469 516.352C138.469 514.976 138.749 513.768 139.309 512.728C139.869 511.688 140.653 510.888 141.661 510.328C142.669 509.768 143.829 509.488 145.141 509.488C146.405 509.488 147.533 509.76 148.525 510.304C149.533 510.848 150.309 511.624 150.853 512.632C151.413 513.624 151.693 514.768 151.693 516.064ZM148.213 515.104C148.197 514.24 147.885 513.552 147.277 513.04C146.669 512.512 145.925 512.248 145.045 512.248C144.213 512.248 143.509 512.504 142.933 513.016C142.373 513.512 142.029 514.208 141.901 515.104H148.213ZM174.832 523H171.472L163.864 511.504V523H160.504V506.224H163.864L171.472 517.744V506.224H174.832V523ZM184.377 523.216C183.097 523.216 181.945 522.936 180.921 522.376C179.897 521.8 179.089 520.992 178.497 519.952C177.921 518.912 177.633 517.712 177.633 516.352C177.633 514.992 177.929 513.792 178.521 512.752C179.129 511.712 179.953 510.912 180.993 510.352C182.033 509.776 183.193 509.488 184.473 509.488C185.753 509.488 186.913 509.776 187.953 510.352C188.993 510.912 189.809 511.712 190.401 512.752C191.009 513.792 191.313 514.992 191.313 516.352C191.313 517.712 191.001 518.912 190.377 519.952C189.769 520.992 188.937 521.8 187.881 522.376C186.841 522.936 185.673 523.216 184.377 523.216ZM184.377 520.288C184.985 520.288 185.553 520.144 186.081 519.856C186.625 519.552 187.057 519.104 187.377 518.512C187.697 517.92 187.857 517.2 187.857 516.352C187.857 515.088 187.521 514.12 186.849 513.448C186.193 512.76 185.385 512.416 184.425 512.416C183.465 512.416 182.657 512.76 182.001 513.448C181.361 514.12 181.041 515.088 181.041 516.352C181.041 517.616 181.353 518.592 181.977 519.28C182.617 519.952 183.417 520.288 184.377 520.288ZM198.009 512.464V518.896C198.009 519.344 198.113 519.672 198.321 519.88C198.545 520.072 198.913 520.168 199.425 520.168H200.985V523H198.873C196.041 523 194.625 521.624 194.625 518.872V512.464H193.041V509.704H194.625V506.416H198.009V509.704H200.985V512.464H198.009ZM220.105 506.248V508.96H213.121V513.256H218.473V515.92H213.121V523H209.761V506.248H220.105ZM228.711 523.216C227.431 523.216 226.279 522.936 225.255 522.376C224.231 521.8 223.423 520.992 222.831 519.952C222.255 518.912 221.967 517.712 221.967 516.352C221.967 514.992 222.263 513.792 222.855 512.752C223.463 511.712 224.287 510.912 225.327 510.352C226.367 509.776 227.527 509.488 228.807 509.488C230.087 509.488 231.247 509.776 232.287 510.352C233.327 510.912 234.143 511.712 234.735 512.752C235.343 513.792 235.647 514.992 235.647 516.352C235.647 517.712 235.335 518.912 234.711 519.952C234.103 520.992 233.271 521.8 232.215 522.376C231.175 522.936 230.007 523.216 228.711 523.216ZM228.711 520.288C229.319 520.288 229.887 520.144 230.415 519.856C230.959 519.552 231.391 519.104 231.711 518.512C232.031 517.92 232.191 517.2 232.191 516.352C232.191 515.088 231.855 514.12 231.183 513.448C230.527 512.76 229.719 512.416 228.759 512.416C227.799 512.416 226.991 512.76 226.335 513.448C225.695 514.12 225.375 515.088 225.375 516.352C225.375 517.616 225.687 518.592 226.311 519.28C226.951 519.952 227.751 520.288 228.711 520.288ZM250.984 509.704V523H247.6V521.32C247.168 521.896 246.6 522.352 245.896 522.688C245.208 523.008 244.456 523.168 243.64 523.168C242.6 523.168 241.68 522.952 240.88 522.52C240.08 522.072 239.448 521.424 238.984 520.576C238.536 519.712 238.312 518.688 238.312 517.504V509.704H241.672V517.024C241.672 518.08 241.936 518.896 242.464 519.472C242.992 520.032 243.712 520.312 244.624 520.312C245.552 520.312 246.28 520.032 246.808 519.472C247.336 518.896 247.6 518.08 247.6 517.024V509.704H250.984ZM261.987 509.512C263.571 509.512 264.851 510.016 265.827 511.024C266.803 512.016 267.291 513.408 267.291 515.2V523H263.931V515.656C263.931 514.6 263.667 513.792 263.139 513.232C262.611 512.656 261.891 512.368 260.979 512.368C260.051 512.368 259.315 512.656 258.771 513.232C258.243 513.792 257.979 514.6 257.979 515.656V523H254.619V509.704H257.979V511.36C258.427 510.784 258.995 510.336 259.683 510.016C260.387 509.68 261.155 509.512 261.987 509.512ZM269.942 516.304C269.942 514.96 270.206 513.768 270.734 512.728C271.278 511.688 272.014 510.888 272.942 510.328C273.87 509.768 274.902 509.488 276.038 509.488C276.902 509.488 277.726 509.68 278.51 510.064C279.294 510.432 279.918 510.928 280.382 511.552V505.24H283.79V523H280.382V521.032C279.966 521.688 279.382 522.216 278.63 522.616C277.878 523.016 277.006 523.216 276.014 523.216C274.894 523.216 273.87 522.928 272.942 522.352C272.014 521.776 271.278 520.968 270.734 519.928C270.206 518.872 269.942 517.664 269.942 516.304ZM280.406 516.352C280.406 515.536 280.246 514.84 279.926 514.264C279.606 513.672 279.174 513.224 278.63 512.92C278.086 512.6 277.502 512.44 276.878 512.44C276.254 512.44 275.678 512.592 275.15 512.896C274.622 513.2 274.19 513.648 273.854 514.24C273.534 514.816 273.374 515.504 273.374 516.304C273.374 517.104 273.534 517.808 273.854 518.416C274.19 519.008 274.622 519.464 275.15 519.784C275.694 520.104 276.27 520.264 276.878 520.264C277.502 520.264 278.086 520.112 278.63 519.808C279.174 519.488 279.606 519.04 279.926 518.464C280.246 517.872 280.406 517.168 280.406 516.352Z" fill="#101828"/>
<path d="M83.8375 549.545V550.655H80.9875V560H79.6225V550.655H76.7575V549.545H83.8375ZM89.9178 551.63C90.5378 551.63 91.0978 551.765 91.5978 552.035C92.0978 552.295 92.4878 552.69 92.7678 553.22C93.0578 553.75 93.2028 554.395 93.2028 555.155V560H91.8528V555.35C91.8528 554.53 91.6478 553.905 91.2378 553.475C90.8278 553.035 90.2678 552.815 89.5578 552.815C88.8378 552.815 88.2628 553.04 87.8328 553.49C87.4128 553.94 87.2028 554.595 87.2028 555.455V560H85.8378V548.9H87.2028V552.95C87.4728 552.53 87.8428 552.205 88.3128 551.975C88.7928 551.745 89.3278 551.63 89.9178 551.63ZM103.252 555.575C103.252 555.835 103.237 556.11 103.207 556.4H96.6375C96.6875 557.21 96.9625 557.845 97.4625 558.305C97.9725 558.755 98.5875 558.98 99.3075 558.98C99.8975 558.98 100.387 558.845 100.777 558.575C101.177 558.295 101.457 557.925 101.617 557.465H103.087C102.867 558.255 102.427 558.9 101.767 559.4C101.107 559.89 100.287 560.135 99.3075 560.135C98.5275 560.135 97.8275 559.96 97.2075 559.61C96.5975 559.26 96.1175 558.765 95.7675 558.125C95.4175 557.475 95.2425 556.725 95.2425 555.875C95.2425 555.025 95.4125 554.28 95.7525 553.64C96.0925 553 96.5675 552.51 97.1775 552.17C97.7975 551.82 98.5075 551.645 99.3075 551.645C100.087 551.645 100.777 551.815 101.377 552.155C101.977 552.495 102.437 552.965 102.757 553.565C103.087 554.155 103.252 554.825 103.252 555.575ZM101.842 555.29C101.842 554.77 101.727 554.325 101.497 553.955C101.267 553.575 100.952 553.29 100.552 553.1C100.162 552.9 99.7275 552.8 99.2475 552.8C98.5575 552.8 97.9675 553.02 97.4775 553.46C96.9975 553.9 96.7225 554.51 96.6525 555.29H101.842ZM111.058 553.295C111.328 552.825 111.728 552.435 112.258 552.125C112.798 551.805 113.423 551.645 114.133 551.645C114.863 551.645 115.523 551.82 116.113 552.17C116.713 552.52 117.183 553.015 117.523 553.655C117.863 554.285 118.033 555.02 118.033 555.86C118.033 556.69 117.863 557.43 117.523 558.08C117.183 558.73 116.713 559.235 116.113 559.595C115.523 559.955 114.863 560.135 114.133 560.135C113.433 560.135 112.813 559.98 112.273 559.67C111.743 559.35 111.338 558.955 111.058 558.485V563.9H109.693V551.78H111.058V553.295ZM116.638 555.86C116.638 555.24 116.513 554.7 116.263 554.24C116.013 553.78 115.673 553.43 115.243 553.19C114.823 552.95 114.358 552.83 113.848 552.83C113.348 552.83 112.883 552.955 112.453 553.205C112.033 553.445 111.693 553.8 111.433 554.27C111.183 554.73 111.058 555.265 111.058 555.875C111.058 556.495 111.183 557.04 111.433 557.51C111.693 557.97 112.033 558.325 112.453 558.575C112.883 558.815 113.348 558.935 113.848 558.935C114.358 558.935 114.823 558.815 115.243 558.575C115.673 558.325 116.013 557.97 116.263 557.51C116.513 557.04 116.638 556.49 116.638 555.86ZM119.64 555.86C119.64 555.02 119.81 554.285 120.15 553.655C120.49 553.015 120.955 552.52 121.545 552.17C122.145 551.82 122.81 551.645 123.54 551.645C124.26 551.645 124.885 551.8 125.415 552.11C125.945 552.42 126.34 552.81 126.6 553.28V551.78H127.98V560H126.6V558.47C126.33 558.95 125.925 559.35 125.385 559.67C124.855 559.98 124.235 560.135 123.525 560.135C122.795 560.135 122.135 559.955 121.545 559.595C120.955 559.235 120.49 558.73 120.15 558.08C119.81 557.43 119.64 556.69 119.64 555.86ZM126.6 555.875C126.6 555.255 126.475 554.715 126.225 554.255C125.975 553.795 125.635 553.445 125.205 553.205C124.785 552.955 124.32 552.83 123.81 552.83C123.3 552.83 122.835 552.95 122.415 553.19C121.995 553.43 121.66 553.78 121.41 554.24C121.16 554.7 121.035 555.24 121.035 555.86C121.035 556.49 121.16 557.04 121.41 557.51C121.66 557.97 121.995 558.325 122.415 558.575C122.835 558.815 123.3 558.935 123.81 558.935C124.32 558.935 124.785 558.815 125.205 558.575C125.635 558.325 125.975 557.97 126.225 557.51C126.475 557.04 126.6 556.495 126.6 555.875ZM133.997 551.645C134.707 551.645 135.327 551.8 135.857 552.11C136.397 552.42 136.797 552.81 137.057 553.28V551.78H138.437V560.18C138.437 560.93 138.277 561.595 137.957 562.175C137.637 562.765 137.177 563.225 136.577 563.555C135.987 563.885 135.297 564.05 134.507 564.05C133.427 564.05 132.527 563.795 131.807 563.285C131.087 562.775 130.662 562.08 130.532 561.2H131.882C132.032 561.7 132.342 562.1 132.812 562.4C133.282 562.71 133.847 562.865 134.507 562.865C135.257 562.865 135.867 562.63 136.337 562.16C136.817 561.69 137.057 561.03 137.057 560.18V558.455C136.787 558.935 136.387 559.335 135.857 559.655C135.327 559.975 134.707 560.135 133.997 560.135C133.267 560.135 132.602 559.955 132.002 559.595C131.412 559.235 130.947 558.73 130.607 558.08C130.267 557.43 130.097 556.69 130.097 555.86C130.097 555.02 130.267 554.285 130.607 553.655C130.947 553.015 131.412 552.52 132.002 552.17C132.602 551.82 133.267 551.645 133.997 551.645ZM137.057 555.875C137.057 555.255 136.932 554.715 136.682 554.255C136.432 553.795 136.092 553.445 135.662 553.205C135.242 552.955 134.777 552.83 134.267 552.83C133.757 552.83 133.292 552.95 132.872 553.19C132.452 553.43 132.117 553.78 131.867 554.24C131.617 554.7 131.492 555.24 131.492 555.86C131.492 556.49 131.617 557.04 131.867 557.51C132.117 557.97 132.452 558.325 132.872 558.575C133.292 558.815 133.757 558.935 134.267 558.935C134.777 558.935 135.242 558.815 135.662 558.575C136.092 558.325 136.432 557.97 136.682 557.51C136.932 557.04 137.057 556.495 137.057 555.875ZM148.563 555.575C148.563 555.835 148.548 556.11 148.518 556.4H141.948C141.998 557.21 142.273 557.845 142.773 558.305C143.283 558.755 143.898 558.98 144.618 558.98C145.208 558.98 145.698 558.845 146.088 558.575C146.488 558.295 146.768 557.925 146.928 557.465H148.398C148.178 558.255 147.738 558.9 147.078 559.4C146.418 559.89 145.598 560.135 144.618 560.135C143.838 560.135 143.138 559.96 142.518 559.61C141.908 559.26 141.428 558.765 141.078 558.125C140.728 557.475 140.553 556.725 140.553 555.875C140.553 555.025 140.723 554.28 141.063 553.64C141.403 553 141.878 552.51 142.488 552.17C143.108 551.82 143.818 551.645 144.618 551.645C145.398 551.645 146.088 551.815 146.688 552.155C147.288 552.495 147.748 552.965 148.068 553.565C148.398 554.155 148.563 554.825 148.563 555.575ZM147.153 555.29C147.153 554.77 147.038 554.325 146.808 553.955C146.578 553.575 146.263 553.29 145.863 553.1C145.473 552.9 145.038 552.8 144.558 552.8C143.868 552.8 143.278 553.02 142.788 553.46C142.308 553.9 142.033 554.51 141.963 555.29H147.153ZM162.084 551.78L157.134 563.87H155.724L157.344 559.91L154.029 551.78H155.544L158.124 558.44L160.674 551.78H162.084ZM167.361 560.135C166.591 560.135 165.891 559.96 165.261 559.61C164.641 559.26 164.151 558.765 163.791 558.125C163.441 557.475 163.266 556.725 163.266 555.875C163.266 555.035 163.446 554.295 163.806 553.655C164.176 553.005 164.676 552.51 165.306 552.17C165.936 551.82 166.641 551.645 167.421 551.645C168.201 551.645 168.906 551.82 169.536 552.17C170.166 552.51 170.661 553 171.021 553.64C171.391 554.28 171.576 555.025 171.576 555.875C171.576 556.725 171.386 557.475 171.006 558.125C170.636 558.765 170.131 559.26 169.491 559.61C168.851 559.96 168.141 560.135 167.361 560.135ZM167.361 558.935C167.851 558.935 168.311 558.82 168.741 558.59C169.171 558.36 169.516 558.015 169.776 557.555C170.046 557.095 170.181 556.535 170.181 555.875C170.181 555.215 170.051 554.655 169.791 554.195C169.531 553.735 169.191 553.395 168.771 553.175C168.351 552.945 167.896 552.83 167.406 552.83C166.906 552.83 166.446 552.945 166.026 553.175C165.616 553.395 165.286 553.735 165.036 554.195C164.786 554.655 164.661 555.215 164.661 555.875C164.661 556.545 164.781 557.11 165.021 557.57C165.271 558.03 165.601 558.375 166.011 558.605C166.421 558.825 166.871 558.935 167.361 558.935ZM180.981 551.78V560H179.616V558.785C179.356 559.205 178.991 559.535 178.521 559.775C178.061 560.005 177.551 560.12 176.991 560.12C176.351 560.12 175.776 559.99 175.266 559.73C174.756 559.46 174.351 559.06 174.051 558.53C173.761 558 173.616 557.355 173.616 556.595V551.78H174.966V556.415C174.966 557.225 175.171 557.85 175.581 558.29C175.991 558.72 176.551 558.935 177.261 558.935C177.991 558.935 178.566 558.71 178.986 558.26C179.406 557.81 179.616 557.155 179.616 556.295V551.78H180.981ZM187.415 555.86C187.415 555.02 187.585 554.285 187.925 553.655C188.265 553.015 188.73 552.52 189.32 552.17C189.92 551.82 190.585 551.645 191.315 551.645C192.035 551.645 192.66 551.8 193.19 552.11C193.72 552.42 194.115 552.81 194.375 553.28V551.78H195.755V560H194.375V558.47C194.105 558.95 193.7 559.35 193.16 559.67C192.63 559.98 192.01 560.135 191.3 560.135C190.57 560.135 189.91 559.955 189.32 559.595C188.73 559.235 188.265 558.73 187.925 558.08C187.585 557.43 187.415 556.69 187.415 555.86ZM194.375 555.875C194.375 555.255 194.25 554.715 194 554.255C193.75 553.795 193.41 553.445 192.98 553.205C192.56 552.955 192.095 552.83 191.585 552.83C191.075 552.83 190.61 552.95 190.19 553.19C189.77 553.43 189.435 553.78 189.185 554.24C188.935 554.7 188.81 555.24 188.81 555.86C188.81 556.49 188.935 557.04 189.185 557.51C189.435 557.97 189.77 558.325 190.19 558.575C190.61 558.815 191.075 558.935 191.585 558.935C192.095 558.935 192.56 558.815 192.98 558.575C193.41 558.325 193.75 557.97 194 557.51C194.25 557.04 194.375 556.495 194.375 555.875ZM199.747 553.115C199.987 552.645 200.327 552.28 200.767 552.02C201.217 551.76 201.762 551.63 202.402 551.63V553.04H202.042C200.512 553.04 199.747 553.87 199.747 555.53V560H198.382V551.78H199.747V553.115ZM211.797 555.575C211.797 555.835 211.782 556.11 211.752 556.4H205.182C205.232 557.21 205.507 557.845 206.007 558.305C206.517 558.755 207.132 558.98 207.852 558.98C208.442 558.98 208.932 558.845 209.322 558.575C209.722 558.295 210.002 557.925 210.162 557.465H211.632C211.412 558.255 210.972 558.9 210.312 559.4C209.652 559.89 208.832 560.135 207.852 560.135C207.072 560.135 206.372 559.96 205.752 559.61C205.142 559.26 204.662 558.765 204.312 558.125C203.962 557.475 203.787 556.725 203.787 555.875C203.787 555.025 203.957 554.28 204.297 553.64C204.637 553 205.112 552.51 205.722 552.17C206.342 551.82 207.052 551.645 207.852 551.645C208.632 551.645 209.322 551.815 209.922 552.155C210.522 552.495 210.982 552.965 211.302 553.565C211.632 554.155 211.797 554.825 211.797 555.575ZM210.387 555.29C210.387 554.77 210.272 554.325 210.042 553.955C209.812 553.575 209.497 553.29 209.097 553.1C208.707 552.9 208.272 552.8 207.792 552.8C207.102 552.8 206.512 553.02 206.022 553.46C205.542 553.9 205.267 554.51 205.197 555.29H210.387ZM219.603 548.9V560H218.238V548.9H219.603ZM225.834 560.135C225.064 560.135 224.364 559.96 223.734 559.61C223.114 559.26 222.624 558.765 222.264 558.125C221.914 557.475 221.739 556.725 221.739 555.875C221.739 555.035 221.919 554.295 222.279 553.655C222.649 553.005 223.149 552.51 223.779 552.17C224.409 551.82 225.114 551.645 225.894 551.645C226.674 551.645 227.379 551.82 228.009 552.17C228.639 552.51 229.134 553 229.494 553.64C229.864 554.28 230.049 555.025 230.049 555.875C230.049 556.725 229.859 557.475 229.479 558.125C229.109 558.765 228.604 559.26 227.964 559.61C227.324 559.96 226.614 560.135 225.834 560.135ZM225.834 558.935C226.324 558.935 226.784 558.82 227.214 558.59C227.644 558.36 227.989 558.015 228.249 557.555C228.519 557.095 228.654 556.535 228.654 555.875C228.654 555.215 228.524 554.655 228.264 554.195C228.004 553.735 227.664 553.395 227.244 553.175C226.824 552.945 226.369 552.83 225.879 552.83C225.379 552.83 224.919 552.945 224.499 553.175C224.089 553.395 223.759 553.735 223.509 554.195C223.259 554.655 223.134 555.215 223.134 555.875C223.134 556.545 223.254 557.11 223.494 557.57C223.744 558.03 224.074 558.375 224.484 558.605C224.894 558.825 225.344 558.935 225.834 558.935ZM235.749 560.135C234.979 560.135 234.279 559.96 233.649 559.61C233.029 559.26 232.539 558.765 232.179 558.125C231.829 557.475 231.654 556.725 231.654 555.875C231.654 555.035 231.834 554.295 232.194 553.655C232.564 553.005 233.064 552.51 233.694 552.17C234.324 551.82 235.029 551.645 235.809 551.645C236.589 551.645 237.294 551.82 237.924 552.17C238.554 552.51 239.049 553 239.409 553.64C239.779 554.28 239.964 555.025 239.964 555.875C239.964 556.725 239.774 557.475 239.394 558.125C239.024 558.765 238.519 559.26 237.879 559.61C237.239 559.96 236.529 560.135 235.749 560.135ZM235.749 558.935C236.239 558.935 236.699 558.82 237.129 558.59C237.559 558.36 237.904 558.015 238.164 557.555C238.434 557.095 238.569 556.535 238.569 555.875C238.569 555.215 238.439 554.655 238.179 554.195C237.919 553.735 237.579 553.395 237.159 553.175C236.739 552.945 236.284 552.83 235.794 552.83C235.294 552.83 234.834 552.945 234.414 553.175C234.004 553.395 233.674 553.735 233.424 554.195C233.174 554.655 233.049 555.215 233.049 555.875C233.049 556.545 233.169 557.11 233.409 557.57C233.659 558.03 233.989 558.375 234.399 558.605C234.809 558.825 235.259 558.935 235.749 558.935ZM246.669 560L243.444 556.37V560H242.079V548.9H243.444V555.425L246.609 551.78H248.514L244.644 555.875L248.529 560H246.669ZM250.824 550.445C250.564 550.445 250.344 550.355 250.164 550.175C249.984 549.995 249.894 549.775 249.894 549.515C249.894 549.255 249.984 549.035 250.164 548.855C250.344 548.675 250.564 548.585 250.824 548.585C251.074 548.585 251.284 548.675 251.454 548.855C251.634 549.035 251.724 549.255 251.724 549.515C251.724 549.775 251.634 549.995 251.454 550.175C251.284 550.355 251.074 550.445 250.824 550.445ZM251.484 551.78V560H250.119V551.78H251.484ZM258.135 551.63C259.135 551.63 259.945 551.935 260.565 552.545C261.185 553.145 261.495 554.015 261.495 555.155V560H260.145V555.35C260.145 554.53 259.94 553.905 259.53 553.475C259.12 553.035 258.56 552.815 257.85 552.815C257.13 552.815 256.555 553.04 256.125 553.49C255.705 553.94 255.495 554.595 255.495 555.455V560H254.13V551.78H255.495V552.95C255.765 552.53 256.13 552.205 256.59 551.975C257.06 551.745 257.575 551.63 258.135 551.63ZM267.435 551.645C268.145 551.645 268.765 551.8 269.295 552.11C269.835 552.42 270.235 552.81 270.495 553.28V551.78H271.875V560.18C271.875 560.93 271.715 561.595 271.395 562.175C271.075 562.765 270.615 563.225 270.015 563.555C269.425 563.885 268.735 564.05 267.945 564.05C266.865 564.05 265.965 563.795 265.245 563.285C264.525 562.775 264.1 562.08 263.97 561.2H265.32C265.47 561.7 265.78 562.1 266.25 562.4C266.72 562.71 267.285 562.865 267.945 562.865C268.695 562.865 269.305 562.63 269.775 562.16C270.255 561.69 270.495 561.03 270.495 560.18V558.455C270.225 558.935 269.825 559.335 269.295 559.655C268.765 559.975 268.145 560.135 267.435 560.135C266.705 560.135 266.04 559.955 265.44 559.595C264.85 559.235 264.385 558.73 264.045 558.08C263.705 557.43 263.535 556.69 263.535 555.86C263.535 555.02 263.705 554.285 264.045 553.655C264.385 553.015 264.85 552.52 265.44 552.17C266.04 551.82 266.705 551.645 267.435 551.645ZM270.495 555.875C270.495 555.255 270.37 554.715 270.12 554.255C269.87 553.795 269.53 553.445 269.1 553.205C268.68 552.955 268.215 552.83 267.705 552.83C267.195 552.83 266.73 552.95 266.31 553.19C265.89 553.43 265.555 553.78 265.305 554.24C265.055 554.7 264.93 555.24 264.93 555.86C264.93 556.49 265.055 557.04 265.305 557.51C265.555 557.97 265.89 558.325 266.31 558.575C266.73 558.815 267.195 558.935 267.705 558.935C268.215 558.935 268.68 558.815 269.1 558.575C269.53 558.325 269.87 557.97 270.12 557.51C270.37 557.04 270.495 556.495 270.495 555.875ZM282.165 552.905H280.44V560H279.075V552.905H278.01V551.78H279.075V551.195C279.075 550.275 279.31 549.605 279.78 549.185C280.26 548.755 281.025 548.54 282.075 548.54V549.68C281.475 549.68 281.05 549.8 280.8 550.04C280.56 550.27 280.44 550.655 280.44 551.195V551.78H282.165V552.905ZM287.662 560.135C286.892 560.135 286.192 559.96 285.562 559.61C284.942 559.26 284.452 558.765 284.092 558.125C283.742 557.475 283.567 556.725 283.567 555.875C283.567 555.035 283.747 554.295 284.107 553.655C284.477 553.005 284.977 552.51 285.607 552.17C286.237 551.82 286.942 551.645 287.722 551.645C288.502 551.645 289.207 551.82 289.837 552.17C290.467 552.51 290.962 553 291.322 553.64C291.692 554.28 291.877 555.025 291.877 555.875C291.877 556.725 291.687 557.475 291.307 558.125C290.937 558.765 290.432 559.26 289.792 559.61C289.152 559.96 288.442 560.135 287.662 560.135ZM287.662 558.935C288.152 558.935 288.612 558.82 289.042 558.59C289.472 558.36 289.817 558.015 290.077 557.555C290.347 557.095 290.482 556.535 290.482 555.875C290.482 555.215 290.352 554.655 290.092 554.195C289.832 553.735 289.492 553.395 289.072 553.175C288.652 552.945 288.197 552.83 287.707 552.83C287.207 552.83 286.747 552.945 286.327 553.175C285.917 553.395 285.587 553.735 285.337 554.195C285.087 554.655 284.962 555.215 284.962 555.875C284.962 556.545 285.082 557.11 285.322 557.57C285.572 558.03 285.902 558.375 286.312 558.605C286.722 558.825 287.172 558.935 287.662 558.935ZM295.357 553.115C295.597 552.645 295.937 552.28 296.377 552.02C296.827 551.76 297.372 551.63 298.012 551.63V553.04H297.652C296.122 553.04 295.357 553.87 295.357 555.53V560H293.992V551.78H295.357V553.115ZM101.611 578.86C101.611 578.02 101.781 577.285 102.121 576.655C102.461 576.015 102.926 575.52 103.516 575.17C104.116 574.82 104.786 574.645 105.526 574.645C106.166 574.645 106.761 574.795 107.311 575.095C107.861 575.385 108.281 575.77 108.571 576.25V571.9H109.951V583H108.571V581.455C108.301 581.945 107.901 582.35 107.371 582.67C106.841 582.98 106.221 583.135 105.511 583.135C104.781 583.135 104.116 582.955 103.516 582.595C102.926 582.235 102.461 581.73 102.121 581.08C101.781 580.43 101.611 579.69 101.611 578.86ZM108.571 578.875C108.571 578.255 108.446 577.715 108.196 577.255C107.946 576.795 107.606 576.445 107.176 576.205C106.756 575.955 106.291 575.83 105.781 575.83C105.271 575.83 104.806 575.95 104.386 576.19C103.966 576.43 103.631 576.78 103.381 577.24C103.131 577.7 103.006 578.24 103.006 578.86C103.006 579.49 103.131 580.04 103.381 580.51C103.631 580.97 103.966 581.325 104.386 581.575C104.806 581.815 105.271 581.935 105.781 581.935C106.291 581.935 106.756 581.815 107.176 581.575C107.606 581.325 107.946 580.97 108.196 580.51C108.446 580.04 108.571 579.495 108.571 578.875ZM116.163 583.135C115.393 583.135 114.693 582.96 114.063 582.61C113.443 582.26 112.953 581.765 112.593 581.125C112.243 580.475 112.068 579.725 112.068 578.875C112.068 578.035 112.248 577.295 112.608 576.655C112.978 576.005 113.478 575.51 114.108 575.17C114.738 574.82 115.443 574.645 116.223 574.645C117.003 574.645 117.708 574.82 118.338 575.17C118.968 575.51 119.463 576 119.823 576.64C120.193 577.28 120.378 578.025 120.378 578.875C120.378 579.725 120.188 580.475 119.808 581.125C119.438 581.765 118.933 582.26 118.293 582.61C117.653 582.96 116.943 583.135 116.163 583.135ZM116.163 581.935C116.653 581.935 117.113 581.82 117.543 581.59C117.973 581.36 118.318 581.015 118.578 580.555C118.848 580.095 118.983 579.535 118.983 578.875C118.983 578.215 118.853 577.655 118.593 577.195C118.333 576.735 117.993 576.395 117.573 576.175C117.153 575.945 116.698 575.83 116.208 575.83C115.708 575.83 115.248 575.945 114.828 576.175C114.418 576.395 114.088 576.735 113.838 577.195C113.588 577.655 113.463 578.215 113.463 578.875C113.463 579.545 113.583 580.11 113.823 580.57C114.073 581.03 114.403 581.375 114.813 581.605C115.223 581.825 115.673 581.935 116.163 581.935ZM129.993 578.575C129.993 578.835 129.978 579.11 129.948 579.4H123.378C123.428 580.21 123.703 580.845 124.203 581.305C124.713 581.755 125.328 581.98 126.048 581.98C126.638 581.98 127.128 581.845 127.518 581.575C127.918 581.295 128.198 580.925 128.358 580.465H129.828C129.608 581.255 129.168 581.9 128.508 582.4C127.848 582.89 127.028 583.135 126.048 583.135C125.268 583.135 124.568 582.96 123.948 582.61C123.338 582.26 122.858 581.765 122.508 581.125C122.158 580.475 121.983 579.725 121.983 578.875C121.983 578.025 122.153 577.28 122.493 576.64C122.833 576 123.308 575.51 123.918 575.17C124.538 574.82 125.248 574.645 126.048 574.645C126.828 574.645 127.518 574.815 128.118 575.155C128.718 575.495 129.178 575.965 129.498 576.565C129.828 577.155 129.993 577.825 129.993 578.575ZM128.583 578.29C128.583 577.77 128.468 577.325 128.238 576.955C128.008 576.575 127.693 576.29 127.293 576.1C126.903 575.9 126.468 575.8 125.988 575.8C125.298 575.8 124.708 576.02 124.218 576.46C123.738 576.9 123.463 577.51 123.393 578.29H128.583ZM135.024 583.135C134.394 583.135 133.829 583.03 133.329 582.82C132.829 582.6 132.434 582.3 132.144 581.92C131.854 581.53 131.694 581.085 131.664 580.585H133.074C133.114 580.995 133.304 581.33 133.644 581.59C133.994 581.85 134.449 581.98 135.009 581.98C135.529 581.98 135.939 581.865 136.239 581.635C136.539 581.405 136.689 581.115 136.689 580.765C136.689 580.405 136.529 580.14 136.209 579.97C135.889 579.79 135.394 579.615 134.724 579.445C134.114 579.285 133.614 579.125 133.224 578.965C132.844 578.795 132.514 578.55 132.234 578.23C131.964 577.9 131.829 577.47 131.829 576.94C131.829 576.52 131.954 576.135 132.204 575.785C132.454 575.435 132.809 575.16 133.269 574.96C133.729 574.75 134.254 574.645 134.844 574.645C135.754 574.645 136.489 574.875 137.049 575.335C137.609 575.795 137.909 576.425 137.949 577.225H136.584C136.554 576.795 136.379 576.45 136.059 576.19C135.749 575.93 135.329 575.8 134.799 575.8C134.309 575.8 133.919 575.905 133.629 576.115C133.339 576.325 133.194 576.6 133.194 576.94C133.194 577.21 133.279 577.435 133.449 577.615C133.629 577.785 133.849 577.925 134.109 578.035C134.379 578.135 134.749 578.25 135.219 578.38C135.809 578.54 136.289 578.7 136.659 578.86C137.029 579.01 137.344 579.24 137.604 579.55C137.874 579.86 138.014 580.265 138.024 580.765C138.024 581.215 137.899 581.62 137.649 581.98C137.399 582.34 137.044 582.625 136.584 582.835C136.134 583.035 135.614 583.135 135.024 583.135ZM144.276 574.63C145.276 574.63 146.086 574.935 146.706 575.545C147.326 576.145 147.636 577.015 147.636 578.155V583H146.286V578.35C146.286 577.53 146.081 576.905 145.671 576.475C145.261 576.035 144.701 575.815 143.991 575.815C143.271 575.815 142.696 576.04 142.266 576.49C141.846 576.94 141.636 577.595 141.636 578.455V583H140.271V574.78H141.636V575.95C141.906 575.53 142.271 575.205 142.731 574.975C143.201 574.745 143.716 574.63 144.276 574.63ZM150.396 572.545H151.911L150.471 575.95H149.511L150.396 572.545ZM155.452 575.905V580.75C155.452 581.15 155.537 581.435 155.707 581.605C155.877 581.765 156.172 581.845 156.592 581.845H157.597V583H156.367C155.607 583 155.037 582.825 154.657 582.475C154.277 582.125 154.087 581.55 154.087 580.75V575.905H153.022V574.78H154.087V572.71H155.452V574.78H157.597V575.905H155.452ZM166.8 583.135C166.17 583.135 165.605 583.03 165.105 582.82C164.605 582.6 164.21 582.3 163.92 581.92C163.63 581.53 163.47 581.085 163.44 580.585H164.85C164.89 580.995 165.08 581.33 165.42 581.59C165.77 581.85 166.225 581.98 166.785 581.98C167.305 581.98 167.715 581.865 168.015 581.635C168.315 581.405 168.465 581.115 168.465 580.765C168.465 580.405 168.305 580.14 167.985 579.97C167.665 579.79 167.17 579.615 166.5 579.445C165.89 579.285 165.39 579.125 165 578.965C164.62 578.795 164.29 578.55 164.01 578.23C163.74 577.9 163.605 577.47 163.605 576.94C163.605 576.52 163.73 576.135 163.98 575.785C164.23 575.435 164.585 575.16 165.045 574.96C165.505 574.75 166.03 574.645 166.62 574.645C167.53 574.645 168.265 574.875 168.825 575.335C169.385 575.795 169.685 576.425 169.725 577.225H168.36C168.33 576.795 168.155 576.45 167.835 576.19C167.525 575.93 167.105 575.8 166.575 575.8C166.085 575.8 165.695 575.905 165.405 576.115C165.115 576.325 164.97 576.6 164.97 576.94C164.97 577.21 165.055 577.435 165.225 577.615C165.405 577.785 165.625 577.925 165.885 578.035C166.155 578.135 166.525 578.25 166.995 578.38C167.585 578.54 168.065 578.7 168.435 578.86C168.805 579.01 169.12 579.24 169.38 579.55C169.65 579.86 169.79 580.265 169.8 580.765C169.8 581.215 169.675 581.62 169.425 581.98C169.175 582.34 168.82 582.625 168.36 582.835C167.91 583.035 167.39 583.135 166.8 583.135ZM179.547 578.575C179.547 578.835 179.532 579.11 179.502 579.4H172.932C172.982 580.21 173.257 580.845 173.757 581.305C174.267 581.755 174.882 581.98 175.602 581.98C176.192 581.98 176.682 581.845 177.072 581.575C177.472 581.295 177.752 580.925 177.912 580.465H179.382C179.162 581.255 178.722 581.9 178.062 582.4C177.402 582.89 176.582 583.135 175.602 583.135C174.822 583.135 174.122 582.96 173.502 582.61C172.892 582.26 172.412 581.765 172.062 581.125C171.712 580.475 171.537 579.725 171.537 578.875C171.537 578.025 171.707 577.28 172.047 576.64C172.387 576 172.862 575.51 173.472 575.17C174.092 574.82 174.802 574.645 175.602 574.645C176.382 574.645 177.072 574.815 177.672 575.155C178.272 575.495 178.732 575.965 179.052 576.565C179.382 577.155 179.547 577.825 179.547 578.575ZM178.137 578.29C178.137 577.77 178.022 577.325 177.792 576.955C177.562 576.575 177.247 576.29 176.847 576.1C176.457 575.9 176.022 575.8 175.542 575.8C174.852 575.8 174.262 576.02 173.772 576.46C173.292 576.9 173.017 577.51 172.947 578.29H178.137ZM189.169 578.575C189.169 578.835 189.154 579.11 189.124 579.4H182.554C182.604 580.21 182.879 580.845 183.379 581.305C183.889 581.755 184.504 581.98 185.224 581.98C185.814 581.98 186.304 581.845 186.694 581.575C187.094 581.295 187.374 580.925 187.534 580.465H189.004C188.784 581.255 188.344 581.9 187.684 582.4C187.024 582.89 186.204 583.135 185.224 583.135C184.444 583.135 183.744 582.96 183.124 582.61C182.514 582.26 182.034 581.765 181.684 581.125C181.334 580.475 181.159 579.725 181.159 578.875C181.159 578.025 181.329 577.28 181.669 576.64C182.009 576 182.484 575.51 183.094 575.17C183.714 574.82 184.424 574.645 185.224 574.645C186.004 574.645 186.694 574.815 187.294 575.155C187.894 575.495 188.354 575.965 188.674 576.565C189.004 577.155 189.169 577.825 189.169 578.575ZM187.759 578.29C187.759 577.77 187.644 577.325 187.414 576.955C187.184 576.575 186.869 576.29 186.469 576.1C186.079 575.9 185.644 575.8 185.164 575.8C184.474 575.8 183.884 576.02 183.394 576.46C182.914 576.9 182.639 577.51 182.569 578.29H187.759ZM201.176 574.63C201.816 574.63 202.386 574.765 202.886 575.035C203.386 575.295 203.781 575.69 204.071 576.22C204.361 576.75 204.506 577.395 204.506 578.155V583H203.156V578.35C203.156 577.53 202.951 576.905 202.541 576.475C202.141 576.035 201.596 575.815 200.906 575.815C200.196 575.815 199.631 576.045 199.211 576.505C198.791 576.955 198.581 577.61 198.581 578.47V583H197.231V578.35C197.231 577.53 197.026 576.905 196.616 576.475C196.216 576.035 195.671 575.815 194.981 575.815C194.271 575.815 193.706 576.045 193.286 576.505C192.866 576.955 192.656 577.61 192.656 578.47V583H191.291V574.78H192.656V575.965C192.926 575.535 193.286 575.205 193.736 574.975C194.196 574.745 194.701 574.63 195.251 574.63C195.941 574.63 196.551 574.785 197.081 575.095C197.611 575.405 198.006 575.86 198.266 576.46C198.496 575.88 198.876 575.43 199.406 575.11C199.936 574.79 200.526 574.63 201.176 574.63ZM213.049 575.905V580.75C213.049 581.15 213.134 581.435 213.304 581.605C213.474 581.765 213.769 581.845 214.189 581.845H215.194V583H213.964C213.204 583 212.634 582.825 212.254 582.475C211.874 582.125 211.684 581.55 211.684 580.75V575.905H210.619V574.78H211.684V572.71H213.049V574.78H215.194V575.905H213.049ZM220.753 583.135C219.983 583.135 219.283 582.96 218.653 582.61C218.033 582.26 217.543 581.765 217.183 581.125C216.833 580.475 216.658 579.725 216.658 578.875C216.658 578.035 216.838 577.295 217.198 576.655C217.568 576.005 218.068 575.51 218.698 575.17C219.328 574.82 220.033 574.645 220.813 574.645C221.593 574.645 222.298 574.82 222.928 575.17C223.558 575.51 224.053 576 224.413 576.64C224.783 577.28 224.968 578.025 224.968 578.875C224.968 579.725 224.778 580.475 224.398 581.125C224.028 581.765 223.523 582.26 222.883 582.61C222.243 582.96 221.533 583.135 220.753 583.135ZM220.753 581.935C221.243 581.935 221.703 581.82 222.133 581.59C222.563 581.36 222.908 581.015 223.168 580.555C223.438 580.095 223.573 579.535 223.573 578.875C223.573 578.215 223.443 577.655 223.183 577.195C222.923 576.735 222.583 576.395 222.163 576.175C221.743 575.945 221.288 575.83 220.798 575.83C220.298 575.83 219.838 575.945 219.418 576.175C219.008 576.395 218.678 576.735 218.428 577.195C218.178 577.655 218.053 578.215 218.053 578.875C218.053 579.545 218.173 580.11 218.413 580.57C218.663 581.03 218.993 581.375 219.403 581.605C219.813 581.825 220.263 581.935 220.753 581.935ZM238.901 578.575C238.901 578.835 238.886 579.11 238.856 579.4H232.286C232.336 580.21 232.611 580.845 233.111 581.305C233.621 581.755 234.236 581.98 234.956 581.98C235.546 581.98 236.036 581.845 236.426 581.575C236.826 581.295 237.106 580.925 237.266 580.465H238.736C238.516 581.255 238.076 581.9 237.416 582.4C236.756 582.89 235.936 583.135 234.956 583.135C234.176 583.135 233.476 582.96 232.856 582.61C232.246 582.26 231.766 581.765 231.416 581.125C231.066 580.475 230.891 579.725 230.891 578.875C230.891 578.025 231.061 577.28 231.401 576.64C231.741 576 232.216 575.51 232.826 575.17C233.446 574.82 234.156 574.645 234.956 574.645C235.736 574.645 236.426 574.815 237.026 575.155C237.626 575.495 238.086 575.965 238.406 576.565C238.736 577.155 238.901 577.825 238.901 578.575ZM237.491 578.29C237.491 577.77 237.376 577.325 237.146 576.955C236.916 576.575 236.601 576.29 236.201 576.1C235.811 575.9 235.376 575.8 234.896 575.8C234.206 575.8 233.616 576.02 233.126 576.46C232.646 576.9 232.371 577.51 232.301 578.29H237.491ZM245.313 583L243.363 579.94L241.488 583H240.063L242.718 578.92L240.063 574.78H241.608L243.558 577.825L245.418 574.78H246.843L244.203 578.845L246.858 583H245.313ZM249.226 573.445C248.966 573.445 248.746 573.355 248.566 573.175C248.386 572.995 248.296 572.775 248.296 572.515C248.296 572.255 248.386 572.035 248.566 571.855C248.746 571.675 248.966 571.585 249.226 571.585C249.476 571.585 249.686 571.675 249.856 571.855C250.036 572.035 250.126 572.255 250.126 572.515C250.126 572.775 250.036 572.995 249.856 573.175C249.686 573.355 249.476 573.445 249.226 573.445ZM249.886 574.78V583H248.521V574.78H249.886ZM255.442 583.135C254.812 583.135 254.247 583.03 253.747 582.82C253.247 582.6 252.852 582.3 252.562 581.92C252.272 581.53 252.112 581.085 252.082 580.585H253.492C253.532 580.995 253.722 581.33 254.062 581.59C254.412 581.85 254.867 581.98 255.427 581.98C255.947 581.98 256.357 581.865 256.657 581.635C256.957 581.405 257.107 581.115 257.107 580.765C257.107 580.405 256.947 580.14 256.627 579.97C256.307 579.79 255.812 579.615 255.142 579.445C254.532 579.285 254.032 579.125 253.642 578.965C253.262 578.795 252.932 578.55 252.652 578.23C252.382 577.9 252.247 577.47 252.247 576.94C252.247 576.52 252.372 576.135 252.622 575.785C252.872 575.435 253.227 575.16 253.687 574.96C254.147 574.75 254.672 574.645 255.262 574.645C256.172 574.645 256.907 574.875 257.467 575.335C258.027 575.795 258.327 576.425 258.367 577.225H257.002C256.972 576.795 256.797 576.45 256.477 576.19C256.167 575.93 255.747 575.8 255.217 575.8C254.727 575.8 254.337 575.905 254.047 576.115C253.757 576.325 253.612 576.6 253.612 576.94C253.612 577.21 253.697 577.435 253.867 577.615C254.047 577.785 254.267 577.925 254.527 578.035C254.797 578.135 255.167 578.25 255.637 578.38C256.227 578.54 256.707 578.7 257.077 578.86C257.447 579.01 257.762 579.24 258.022 579.55C258.292 579.86 258.432 580.265 258.442 580.765C258.442 581.215 258.317 581.62 258.067 581.98C257.817 582.34 257.462 582.625 257.002 582.835C256.552 583.035 256.032 583.135 255.442 583.135ZM262.354 575.905V580.75C262.354 581.15 262.439 581.435 262.609 581.605C262.779 581.765 263.074 581.845 263.494 581.845H264.499V583H263.269C262.509 583 261.939 582.825 261.559 582.475C261.179 582.125 260.989 581.55 260.989 580.75V575.905H259.924V574.78H260.989V572.71H262.354V574.78H264.499V575.905H262.354ZM269.713 583.09C269.453 583.09 269.233 583 269.053 582.82C268.873 582.64 268.783 582.42 268.783 582.16C268.783 581.9 268.873 581.68 269.053 581.5C269.233 581.32 269.453 581.23 269.713 581.23C269.963 581.23 270.173 581.32 270.343 581.5C270.523 581.68 270.613 581.9 270.613 582.16C270.613 582.42 270.523 582.64 270.343 582.82C270.173 583 269.963 583.09 269.713 583.09ZM272.533 583.09C272.273 583.09 272.053 583 271.873 582.82C271.693 582.64 271.603 582.42 271.603 582.16C271.603 581.9 271.693 581.68 271.873 581.5C272.053 581.32 272.273 581.23 272.533 581.23C272.783 581.23 272.993 581.32 273.163 581.5C273.343 581.68 273.433 581.9 273.433 582.16C273.433 582.42 273.343 582.64 273.163 582.82C272.993 583 272.783 583.09 272.533 583.09ZM266.908 583.09C266.648 583.09 266.428 583 266.248 582.82C266.068 582.64 265.978 582.42 265.978 582.16C265.978 581.9 266.068 581.68 266.248 581.5C266.428 581.32 266.648 581.23 266.908 581.23C267.158 581.23 267.368 581.32 267.538 581.5C267.718 581.68 267.808 581.9 267.808 582.16C267.808 582.42 267.718 582.64 267.538 582.82C267.368 583 267.158 583.09 266.908 583.09Z" fill="#667085"/>
<path opacity="0.35" d="M338.667 17.8333H355.333C356.53 17.8333 357.5 18.8036 357.5 20.0002V26.0002C357.5 27.1967 356.53 28.1663 355.333 28.1663H338.667C337.47 28.1663 336.5 27.1967 336.5 26.0002V20.0002L336.511 19.7786C336.622 18.6859 337.545 17.8333 338.667 17.8333Z" stroke="black"/>
<path opacity="0.4" d="M359 21V25C359.805 24.6612 360.328 23.8731 360.328 23C360.328 22.1269 359.805 21.3388 359 21Z" fill="black"/>
<path d="M338 20.6666C338 19.9302 338.597 19.3333 339.333 19.3333H354.667C355.403 19.3333 356 19.9302 356 20.6666V25.3333C356 26.0696 355.403 26.6666 354.667 26.6666H339.333C338.597 26.6666 338 26.0696 338 25.3333V20.6666Z" fill="black"/>
<path fill-rule="evenodd" clip-rule="evenodd" d="M323.33 19.6079C325.546 19.608 327.678 20.4594 329.283 21.9862C329.404 22.1041 329.598 22.1026 329.717 21.9829L330.873 20.8162C330.933 20.7555 330.967 20.6733 330.966 20.5877C330.966 20.5021 330.931 20.4202 330.87 20.3602C326.655 16.3207 320.005 16.3207 315.79 20.3602C315.729 20.4202 315.694 20.502 315.694 20.5876C315.693 20.6732 315.727 20.7555 315.787 20.8162L316.943 21.9829C317.062 22.1028 317.256 22.1043 317.377 21.9862C318.983 20.4593 321.114 19.6079 323.33 19.6079ZM323.33 23.4036C324.548 23.4035 325.722 23.856 326.624 24.6732C326.747 24.7892 326.939 24.7867 327.058 24.6676L328.212 23.5009C328.273 23.4397 328.307 23.3567 328.306 23.2704C328.305 23.1842 328.27 23.1018 328.208 23.0419C325.46 20.4855 321.204 20.4855 318.455 23.0419C318.393 23.1018 318.358 23.1842 318.357 23.2705C318.356 23.3568 318.39 23.4398 318.451 23.5009L319.605 24.6676C319.724 24.7867 319.917 24.7892 320.039 24.6732C320.941 23.8566 322.114 23.4041 323.33 23.4036ZM325.643 25.9574C325.645 26.0439 325.611 26.1273 325.549 26.1879L323.552 28.2036C323.494 28.2628 323.414 28.2961 323.33 28.2961C323.247 28.2961 323.167 28.2628 323.109 28.2036L321.111 26.1879C321.049 26.1272 321.015 26.0438 321.017 25.9573C321.019 25.8708 321.057 25.7889 321.121 25.7309C322.396 24.652 324.265 24.652 325.54 25.7309C325.604 25.7889 325.642 25.8709 325.643 25.9574Z" fill="black"/>
<path fill-rule="evenodd" clip-rule="evenodd" d="M309.667 17.6665H308.667C308.114 17.6665 307.667 18.1142 307.667 18.6665V27.3332C307.667 27.8855 308.114 28.3332 308.667 28.3332H309.667C310.219 28.3332 310.667 27.8855 310.667 27.3332V18.6665C310.667 18.1142 310.219 17.6665 309.667 17.6665ZM304 19.9998H305C305.552 19.9998 306 20.4476 306 20.9998V27.3332C306 27.8855 305.552 28.3332 305 28.3332H304C303.448 28.3332 303 27.8855 303 27.3332V20.9998C303 20.4476 303.448 19.9998 304 19.9998ZM300.333 22.3332H299.333C298.781 22.3332 298.333 22.7809 298.333 23.3332V27.3332C298.333 27.8855 298.781 28.3332 299.333 28.3332H300.333C300.886 28.3332 301.333 27.8855 301.333 27.3332V23.3332C301.333 22.7809 300.886 22.3332 300.333 22.3332ZM295.667 24.3332H294.667C294.114 24.3332 293.667 24.7809 293.667 25.3332V27.3332C293.667 27.8855 294.114 28.3332 294.667 28.3332H295.667C296.219 28.3332 296.667 27.8855 296.667 27.3332V25.3332C296.667 24.7809 296.219 24.3332 295.667 24.3332Z" fill="black"/>
<path d="M37.3208 28.2563C40.0088 28.2563 41.6055 26.1543 41.6055 22.5947C41.6055 21.2544 41.3491 20.1265 40.8584 19.2549C40.1479 17.8999 38.9248 17.1675 37.3794 17.1675C35.0796 17.1675 33.4536 18.7129 33.4536 20.8809C33.4536 22.917 34.9185 24.3965 36.9326 24.3965C38.1704 24.3965 39.1738 23.8179 39.6719 22.8145H39.6938C39.6938 22.8145 39.7231 22.8145 39.7305 22.8145C39.7451 22.8145 39.7964 22.8145 39.7964 22.8145C39.7964 25.2314 38.8809 26.6743 37.3354 26.6743C36.4272 26.6743 35.7241 26.1763 35.4824 25.3779H33.6001C33.915 27.1138 35.3872 28.2563 37.3208 28.2563ZM37.3867 22.895C36.1709 22.895 35.3066 22.0308 35.3066 20.8223C35.3066 19.6431 36.2148 18.7422 37.394 18.7422C38.5732 18.7422 39.4814 19.6577 39.4814 20.8516C39.4814 22.0308 38.5952 22.895 37.3867 22.895Z" fill="black"/>
<path d="M44.6966 28.1538C45.3924 28.1538 45.8685 27.6558 45.8685 26.9966C45.8685 26.3301 45.3924 25.8394 44.6966 25.8394C44.0081 25.8394 43.5247 26.3301 43.5247 26.9966C43.5247 27.6558 44.0081 28.1538 44.6966 28.1538ZM44.6966 22.6606C45.3924 22.6606 45.8685 22.1699 45.8685 21.5107C45.8685 20.8442 45.3924 20.3535 44.6966 20.3535C44.0081 20.3535 43.5247 20.8442 43.5247 21.5107C43.5247 22.1699 44.0081 22.6606 44.6966 22.6606Z" fill="black"/>
<path d="M52.7242 28H54.5333V26.0298H55.9615V24.4331H54.5333V17.4312H51.8673C49.9996 20.2437 48.5128 22.5947 47.5606 24.3452V26.0298H52.7242V28ZM49.3111 24.3672C50.5416 22.1992 51.6402 20.4634 52.651 18.9692H52.7535V24.4771H49.3111V24.3672Z" fill="black"/>
<path d="M59.9901 28H61.8798V17.4312H59.9975L57.2362 19.3647V21.1812L59.8656 19.3354H59.9901V28Z" fill="black"/>
<rect x="121" y="799" width="134" height="5" rx="2.5" fill="black"/>
<g clip-path="url(#clip1_70_12507)">
<rect x="95" y="625" width="185" height="50" rx="25" fill="url(#paint0_linear_70_12507)"/>
<path d="M159.392 647.68C159.152 647.24 158.822 646.905 158.402 646.675C157.982 646.445 157.492 646.33 156.932 646.33C156.312 646.33 155.762 646.47 155.282 646.75C154.802 647.03 154.427 647.43 154.157 647.95C153.887 648.47 153.752 649.07 153.752 649.75C153.752 650.45 153.887 651.06 154.157 651.58C154.437 652.1 154.822 652.5 155.312 652.78C155.802 653.06 156.372 653.2 157.022 653.2C157.822 653.2 158.477 652.99 158.987 652.57C159.497 652.14 159.832 651.545 159.992 650.785H156.392V649.18H162.062V651.01C161.922 651.74 161.622 652.415 161.162 653.035C160.702 653.655 160.107 654.155 159.377 654.535C158.657 654.905 157.847 655.09 156.947 655.09C155.937 655.09 155.022 654.865 154.202 654.415C153.392 653.955 152.752 653.32 152.282 652.51C151.822 651.7 151.592 650.78 151.592 649.75C151.592 648.72 151.822 647.8 152.282 646.99C152.752 646.17 153.392 645.535 154.202 645.085C155.022 644.625 155.932 644.395 156.932 644.395C158.112 644.395 159.137 644.685 160.007 645.265C160.877 645.835 161.477 646.64 161.807 647.68H159.392ZM167.626 655.135C166.826 655.135 166.106 654.96 165.466 654.61C164.826 654.25 164.321 653.745 163.951 653.095C163.591 652.445 163.411 651.695 163.411 650.845C163.411 649.995 163.596 649.245 163.966 648.595C164.346 647.945 164.861 647.445 165.511 647.095C166.161 646.735 166.886 646.555 167.686 646.555C168.486 646.555 169.211 646.735 169.861 647.095C170.511 647.445 171.021 647.945 171.391 648.595C171.771 649.245 171.961 649.995 171.961 650.845C171.961 651.695 171.766 652.445 171.376 653.095C170.996 653.745 170.476 654.25 169.816 654.61C169.166 654.96 168.436 655.135 167.626 655.135ZM167.626 653.305C168.006 653.305 168.361 653.215 168.691 653.035C169.031 652.845 169.301 652.565 169.501 652.195C169.701 651.825 169.801 651.375 169.801 650.845C169.801 650.055 169.591 649.45 169.171 649.03C168.761 648.6 168.256 648.385 167.656 648.385C167.056 648.385 166.551 648.6 166.141 649.03C165.741 649.45 165.541 650.055 165.541 650.845C165.541 651.635 165.736 652.245 166.126 652.675C166.526 653.095 167.026 653.305 167.626 653.305ZM186.4 644.53V655H184.3V650.545H179.815V655H177.715V644.53H179.815V648.835H184.3V644.53H186.4ZM192.477 655.135C191.677 655.135 190.957 654.96 190.317 654.61C189.677 654.25 189.172 653.745 188.802 653.095C188.442 652.445 188.262 651.695 188.262 650.845C188.262 649.995 188.447 649.245 188.817 648.595C189.197 647.945 189.712 647.445 190.362 647.095C191.012 646.735 191.737 646.555 192.537 646.555C193.337 646.555 194.062 646.735 194.712 647.095C195.362 647.445 195.872 647.945 196.242 648.595C196.622 649.245 196.812 649.995 196.812 650.845C196.812 651.695 196.617 652.445 196.227 653.095C195.847 653.745 195.327 654.25 194.667 654.61C194.017 654.96 193.287 655.135 192.477 655.135ZM192.477 653.305C192.857 653.305 193.212 653.215 193.542 653.035C193.882 652.845 194.152 652.565 194.352 652.195C194.552 651.825 194.652 651.375 194.652 650.845C194.652 650.055 194.442 649.45 194.022 649.03C193.612 648.6 193.107 648.385 192.507 648.385C191.907 648.385 191.402 648.6 190.992 649.03C190.592 649.45 190.392 650.055 190.392 650.845C190.392 651.635 190.587 652.245 190.977 652.675C191.377 653.095 191.877 653.305 192.477 653.305ZM208.993 646.57C210.013 646.57 210.833 646.885 211.453 647.515C212.083 648.135 212.398 649.005 212.398 650.125V655H210.298V650.41C210.298 649.76 210.133 649.265 209.803 648.925C209.473 648.575 209.023 648.4 208.453 648.4C207.883 648.4 207.428 648.575 207.088 648.925C206.758 649.265 206.593 649.76 206.593 650.41V655H204.493V650.41C204.493 649.76 204.328 649.265 203.998 648.925C203.668 648.575 203.218 648.4 202.648 648.4C202.068 648.4 201.608 648.575 201.268 648.925C200.938 649.265 200.773 649.76 200.773 650.41V655H198.673V646.69H200.773V647.695C201.043 647.345 201.388 647.07 201.808 646.87C202.238 646.67 202.708 646.57 203.218 646.57C203.868 646.57 204.448 646.71 204.958 646.99C205.468 647.26 205.863 647.65 206.143 648.16C206.413 647.68 206.803 647.295 207.313 647.005C207.833 646.715 208.393 646.57 208.993 646.57ZM222.435 650.665C222.435 650.965 222.415 651.235 222.375 651.475H216.3C216.35 652.075 216.56 652.545 216.93 652.885C217.3 653.225 217.755 653.395 218.295 653.395C219.075 653.395 219.63 653.06 219.96 652.39H222.225C221.985 653.19 221.525 653.85 220.845 654.37C220.165 654.88 219.33 655.135 218.34 655.135C217.54 655.135 216.82 654.96 216.18 654.61C215.55 654.25 215.055 653.745 214.695 653.095C214.345 652.445 214.17 651.695 214.17 650.845C214.17 649.985 214.345 649.23 214.695 648.58C215.045 647.93 215.535 647.43 216.165 647.08C216.795 646.73 217.52 646.555 218.34 646.555C219.13 646.555 219.835 646.725 220.455 647.065C221.085 647.405 221.57 647.89 221.91 648.52C222.26 649.14 222.435 649.855 222.435 650.665ZM220.26 650.065C220.25 649.525 220.055 649.095 219.675 648.775C219.295 648.445 218.83 648.28 218.28 648.28C217.76 648.28 217.32 648.44 216.96 648.76C216.61 649.07 216.395 649.505 216.315 650.065H220.26Z" fill="white"/>
</g>
<path fill-rule="evenodd" clip-rule="evenodd" d="M81 111C81 109.895 81.8954 109 83 109L299.569 109C300.191 109 300.777 109.289 301.156 109.783L408.944 250.28C409.212 250.629 409.357 251.057 409.357 251.497V428.889H177.5L81.5616 329.581C81.2014 329.208 81 328.71 81 328.192V111Z" fill="url(#paint1_linear_70_12507)"/>
<g filter="url(#filter0_d_70_12507)">
<rect x="78" y="106" width="220" height="220" rx="4" fill="white"/>
</g>
<path opacity="0.487092" fill-rule="evenodd" clip-rule="evenodd" d="M93 123C93 121.896 93.8954 121 95 121H282C283.105 121 284 121.896 284 123V311C284 312.105 283.105 313 282 313H95C93.8954 313 93 312.105 93 311V123Z" fill="url(#paint2_linear_70_12507)"/>
<g clip-path="url(#clip2_70_12507)">
<path fill-rule="evenodd" clip-rule="evenodd" d="M92.0001 120H285V265.066L281.027 258.028L277.367 270.757L271.57 264.523L266.56 267.066L251.711 264.523L248.963 313L242.605 313.107L237.971 311.456L228.749 313L222.384 310.398L212.77 313L207.77 252.991L202.442 313L194.359 311.401L186.858 313.774L177.021 311L161.938 313L157.491 309.931L152.746 313H142.272V180C142.272 180 138.264 237.981 130.712 252.991C127.484 259.406 122.284 261.147 118.881 262.636C114.322 264.632 110.877 265.066 99.5173 265.066C79.6802 265.066 72.8328 244.029 72.8328 244.029C72.8328 244.029 80.4778 238.698 85.2616 227.855C90.0455 217.012 92.0001 180 92.0001 180V120Z" fill="url(#paint3_linear_70_12507)"/>
<mask id="mask0_70_12507" style="mask-type:luminance" maskUnits="userSpaceOnUse" x="72" y="120" width="213" height="194">
<path fill-rule="evenodd" clip-rule="evenodd" d="M92.0001 120H285V265.066L281.027 258.028L277.367 270.757L271.57 264.523L266.56 267.066L251.711 264.523L248.963 313L242.605 313.107L237.971 311.456L228.749 313L222.384 310.398L212.77 313L207.77 252.991L202.442 313L194.359 311.401L186.858 313.774L177.021 311L161.938 313L157.491 309.931L152.746 313H142.272V180C142.272 180 138.264 237.981 130.712 252.991C127.484 259.406 122.284 261.147 118.881 262.636C114.322 264.632 110.877 265.066 99.5173 265.066C79.6802 265.066 72.8328 244.029 72.8328 244.029C72.8328 244.029 80.4778 238.698 85.2616 227.855C90.0455 217.012 92.0001 180 92.0001 180V120Z" fill="white"/>
</mask>
<g mask="url(#mask0_70_12507)">
<path opacity="0.2" d="M94.7845 234.91V222.076L124.173 180.04H141.936V221.146H149.562V234.91H141.936V247H126.033V234.91H94.7845ZM127.149 197.524L111.525 221.146H127.149V197.524ZM157.351 212.125C157.351 201.461 159.397 193.06 163.489 186.922C167.643 180.784 174.308 177.715 183.484 177.715C192.66 177.715 199.294 180.784 203.386 186.922C207.54 193.06 209.617 201.461 209.617 212.125C209.617 222.913 207.54 231.376 203.386 237.514C199.294 243.652 192.66 246.721 183.484 246.721C174.308 246.721 167.643 243.652 163.489 237.514C159.397 231.376 157.351 222.913 157.351 212.125ZM193.993 212.125C193.993 205.863 193.311 201.058 191.947 197.71C190.583 194.3 187.762 192.595 183.484 192.595C179.206 192.595 176.385 194.3 175.021 197.71C173.657 201.058 172.975 205.863 172.975 212.125C172.975 216.341 173.223 219.844 173.719 222.634C174.215 225.362 175.207 227.594 176.695 229.33C178.245 231.004 180.508 231.841 183.484 231.841C186.46 231.841 188.692 231.004 190.18 229.33C191.73 227.594 192.753 225.362 193.249 222.634C193.745 219.844 193.993 216.341 193.993 212.125ZM218.391 234.91V222.076L247.779 180.04H265.542V221.146H273.168V234.91H265.542V247H249.639V234.91H218.391ZM250.755 197.524L235.131 221.146H250.755V197.524Z" fill="url(#paint4_linear_70_12507)"/>
</g>
</g>
<path fill-rule="evenodd" clip-rule="evenodd" d="M66.9363 235.557H118.263C118.263 235.557 122.146 255.019 130.89 252.769C127.095 260.489 119.182 266.496 102.353 266.496C85.5242 266.496 78.5553 260.072 74.3902 255.578C70.225 251.085 66.9363 235.557 66.9363 235.557Z" fill="url(#paint5_linear_70_12507)"/>
</g>
<defs>
<filter id="filter0_d_70_12507" x="73" y="105" width="250" height="250" filterUnits="userSpaceOnUse" color-interpolation-filters="sRGB">
<feFlood flood-opacity="0" result="BackgroundImageFix"/>
<feColorMatrix in="SourceAlpha" type="matrix" values="0 0 0 0 0 0 0 0 0 0 0 0 0 0 0 0 0 0 127 0" result="hardAlpha"/>
<feOffset dx="10" dy="14"/>
<feGaussianBlur stdDeviation="7.5"/>
<feColorMatrix type="matrix" values="0 0 0 0 0.230539 0 0 0 0 0.370572 0 0 0 0 0.482993 0 0 0 0.0403646 0"/>
<feBlend mode="normal" in2="BackgroundImageFix" result="effect1_dropShadow_70_12507"/>
<feBlend mode="normal" in="SourceGraphic" in2="effect1_dropShadow_70_12507" result="shape"/>
</filter>
<linearGradient id="paint0_linear_70_12507" x1="187.5" y1="600" x2="162.313" y2="693.193" gradientUnits="userSpaceOnUse">
<stop stop-color="#FF8960"/>
<stop offset="1" stop-color="#FF62A5"/>
</linearGradient>
<linearGradient id="paint1_linear_70_12507" x1="432.093" y1="229.51" x2="199.385" y2="-13.5266" gradientUnits="userSpaceOnUse">
<stop stop-color="white" stop-opacity="0.01"/>
<stop offset="1" stop-color="#A4B0D5"/>
</linearGradient>
<linearGradient id="paint2_linear_70_12507" x1="171.046" y1="275.976" x2="151.323" y2="219.775" gradientUnits="userSpaceOnUse">
<stop stop-color="#C4C8DE" stop-opacity="0.01"/>
<stop offset="1" stop-color="#6B798E"/>
</linearGradient>
<linearGradient id="paint3_linear_70_12507" x1="83.3855" y1="106.733" x2="59.0607" y2="281.888" gradientUnits="userSpaceOnUse">
<stop stop-color="#F6F8FA"/>
<stop offset="1" stop-color="#E9EDF3"/>
</linearGradient>
<linearGradient id="paint4_linear_70_12507" x1="96.7248" y1="146.134" x2="87.6939" y2="268.166" gradientUnits="userSpaceOnUse">
<stop stop-color="#7B86A4"/>
<stop offset="1" stop-color="#454E6B"/>
</linearGradient>
<linearGradient id="paint5_linear_70_12507" x1="51.6318" y1="236.664" x2="52.7057" y2="278.072" gradientUnits="userSpaceOnUse">
<stop stop-color="#DFE2EA"/>
<stop offset="1" stop-color="#CBD0DE"/>
</linearGradient>
<clipPath id="clip0_70_12507">
<rect width="375" height="812" fill="white"/>
</clipPath>
<clipPath id="clip1_70_12507">
<rect width="185" height="50" fill="white" transform="translate(95 625)"/>
</clipPath>
<clipPath id="clip2_70_12507">
<rect width="213" height="194" fill="white" transform="translate(72 120)"/>
</clipPath>
</defs>
</svg>
