<svg width="375" height="812" viewBox="0 0 375 812" fill="none" xmlns="http://www.w3.org/2000/svg">
<g clip-path="url(#clip0_10_9596)">
<rect width="375" height="812" fill="white"/>
<path d="M96.8179 484.224V495.744L89.2099 484.224H85.8499V501H89.2099V489.504L96.8179 501H100.178V484.224H96.8179ZM116.658 494.352C116.658 490.152 113.658 487.488 109.818 487.488C105.978 487.488 102.978 490.152 102.978 494.352C102.978 498.528 105.882 501.216 109.722 501.216C113.586 501.216 116.658 498.528 116.658 494.352ZM106.386 494.352C106.386 491.688 107.994 490.416 109.77 490.416C111.546 490.416 113.202 491.688 113.202 494.352C113.202 496.992 111.498 498.288 109.722 498.288C107.922 498.288 106.386 496.992 106.386 494.352ZM124.666 492.6C124.666 497.616 128.338 501.144 133.162 501.144C136.882 501.144 139.906 499.176 141.034 495.72H137.17C136.378 497.352 134.938 498.144 133.138 498.144C130.21 498.144 128.122 495.984 128.122 492.6C128.122 489.192 130.21 487.056 133.138 487.056C134.938 487.056 136.378 487.848 137.17 489.456H141.034C139.906 486.024 136.882 484.032 133.162 484.032C128.338 484.032 124.666 487.584 124.666 492.6ZM144.224 501H147.584V493.656C147.584 491.52 148.76 490.368 150.584 490.368C152.36 490.368 153.536 491.52 153.536 493.656V501H156.896V493.2C156.896 489.528 154.712 487.512 151.712 487.512C149.936 487.512 148.448 488.232 147.584 489.36V483.24H144.224V501ZM159.547 494.304C159.547 498.456 162.235 501.216 165.595 501.216C167.707 501.216 169.219 500.208 170.011 499.056V501H173.395V487.704H170.011V489.6C169.219 488.496 167.755 487.488 165.619 487.488C162.235 487.488 159.547 490.152 159.547 494.304ZM170.011 494.352C170.011 496.872 168.331 498.264 166.483 498.264C164.683 498.264 162.979 496.824 162.979 494.304C162.979 491.784 164.683 490.44 166.483 490.44C168.331 490.44 170.011 491.832 170.011 494.352ZM177.524 496.872C177.524 499.92 179.228 501 181.772 501H183.884V498.168H182.324C181.268 498.168 180.908 497.784 180.908 496.896V490.464H183.884V487.704H180.908V484.416H177.524V487.704H175.94V490.464H177.524V496.872ZM203.196 501H206.556V484.248H203.196V491.136H196.02V484.248H192.66V501H196.02V493.872H203.196V501ZM210.183 501H213.543V487.704H210.183V501ZM211.887 486.12C213.063 486.12 213.951 485.256 213.951 484.152C213.951 483.048 213.063 482.184 211.887 482.184C210.687 482.184 209.823 483.048 209.823 484.152C209.823 485.256 210.687 486.12 211.887 486.12ZM227.503 497.208C227.407 492.336 220.039 493.848 220.039 491.424C220.039 490.656 220.687 490.152 221.935 490.152C223.255 490.152 224.071 490.848 224.167 491.88H227.383C227.191 489.24 225.247 487.488 222.031 487.488C218.743 487.488 216.775 489.264 216.775 491.472C216.775 496.344 224.287 494.832 224.287 497.208C224.287 497.976 223.567 498.576 222.247 498.576C220.903 498.576 219.967 497.808 219.847 496.8H216.463C216.607 499.272 218.935 501.216 222.271 501.216C225.511 501.216 227.503 499.488 227.503 497.208ZM231.109 496.872C231.109 499.92 232.813 501 235.357 501H237.469V498.168H235.909C234.853 498.168 234.493 497.784 234.493 496.896V490.464H237.469V487.704H234.493V484.416H231.109V487.704H229.525V490.464H231.109V496.872ZM253.046 494.352C253.046 490.152 250.046 487.488 246.206 487.488C242.366 487.488 239.366 490.152 239.366 494.352C239.366 498.528 242.27 501.216 246.11 501.216C249.974 501.216 253.046 498.528 253.046 494.352ZM242.774 494.352C242.774 491.688 244.382 490.416 246.158 490.416C247.934 490.416 249.59 491.688 249.59 494.352C249.59 496.992 247.886 498.288 246.11 498.288C244.31 498.288 242.774 496.992 242.774 494.352ZM259.19 494.376C259.19 491.808 260.39 491.04 262.382 491.04H263.27V487.512C261.422 487.512 260.03 488.4 259.19 489.768V487.704H255.83V501H259.19V494.376ZM271.517 496.992L268.085 487.704H264.317L269.645 500.664L266.765 507.288H270.341L278.573 487.704H274.997L271.517 496.992Z" fill="#101828"/>
<path d="M52.1803 527.53V535.84L46.6903 527.53H45.3253V538H46.6903V529.675L52.1803 538H53.5453V527.53H52.1803ZM63.9922 533.875C63.9922 531.28 62.1772 529.645 59.8372 529.645C57.5122 529.645 55.6822 531.28 55.6822 533.875C55.6822 536.485 57.4522 538.135 59.7772 538.135C62.1172 538.135 63.9922 536.485 63.9922 533.875ZM57.0772 533.875C57.0772 531.805 58.3822 530.83 59.8222 530.83C61.2322 530.83 62.5972 531.805 62.5972 533.875C62.5972 535.96 61.2022 536.935 59.7772 536.935C58.3522 536.935 57.0772 535.96 57.0772 533.875ZM82.291 538H83.641V533.155C83.641 530.8 82.186 529.63 80.311 529.63C79.051 529.63 77.881 530.275 77.401 531.46C76.861 530.23 75.736 529.63 74.386 529.63C73.306 529.63 72.331 530.095 71.791 530.965V529.78H70.426V538H71.791V533.47C71.791 531.7 72.736 530.815 74.116 530.815C75.466 530.815 76.366 531.67 76.366 533.35V538H77.716V533.47C77.716 531.7 78.661 530.815 80.041 530.815C81.391 530.815 82.291 531.67 82.291 533.35V538ZM89.6951 530.8C91.1051 530.8 92.3051 531.685 92.2901 533.29H87.1001C87.2501 531.685 88.3601 530.8 89.6951 530.8ZM93.5351 535.465H92.0651C91.7651 536.35 90.9851 536.98 89.7551 536.98C88.3601 536.98 87.1901 536.065 87.0851 534.4H93.6551C93.6851 534.115 93.7001 533.875 93.7001 533.575C93.7001 531.325 92.1401 529.645 89.7551 529.645C87.3551 529.645 85.6901 531.28 85.6901 533.875C85.6901 536.485 87.4151 538.135 89.7551 538.135C91.7951 538.135 93.1151 536.965 93.5351 535.465ZM101.732 535.765C101.672 532.825 96.9018 533.89 96.9018 531.94C96.9018 531.28 97.5018 530.8 98.5068 530.8C99.6018 530.8 100.232 531.4 100.292 532.225H101.657C101.567 530.62 100.367 529.645 98.5518 529.645C96.7218 529.645 95.5368 530.68 95.5368 531.94C95.5368 535 100.397 533.935 100.397 535.765C100.397 536.44 99.7968 536.98 98.7168 536.98C97.5618 536.98 96.8568 536.38 96.7818 535.585H95.3718C95.4618 537.085 96.8118 538.135 98.7318 538.135C100.547 538.135 101.732 537.115 101.732 535.765ZM109.889 535.765C109.829 532.825 105.059 533.89 105.059 531.94C105.059 531.28 105.659 530.8 106.664 530.8C107.759 530.8 108.389 531.4 108.449 532.225H109.814C109.724 530.62 108.524 529.645 106.709 529.645C104.879 529.645 103.694 530.68 103.694 531.94C103.694 535 108.554 533.935 108.554 535.765C108.554 536.44 107.954 536.98 106.874 536.98C105.719 536.98 105.014 536.38 104.939 535.585H103.529C103.619 537.085 104.969 538.135 106.889 538.135C108.704 538.135 109.889 537.115 109.889 535.765ZM111.626 533.86C111.626 536.41 113.321 538.135 115.511 538.135C117.026 538.135 118.091 537.355 118.586 536.47V538H119.966V529.78H118.586V531.28C118.106 530.425 117.056 529.645 115.526 529.645C113.321 529.645 111.626 531.295 111.626 533.86ZM118.586 533.875C118.586 535.81 117.296 536.935 115.796 536.935C114.296 536.935 113.021 535.795 113.021 533.86C113.021 531.925 114.296 530.83 115.796 530.83C117.296 530.83 118.586 531.97 118.586 533.875ZM122.082 533.86C122.082 536.41 123.777 538.135 125.982 538.135C127.482 538.135 128.547 537.34 129.042 536.455V538.18C129.042 539.935 127.947 540.865 126.492 540.865C125.142 540.865 124.167 540.19 123.867 539.2H122.517C122.787 540.955 124.332 542.05 126.492 542.05C128.907 542.05 130.422 540.445 130.422 538.18V529.78H129.042V531.28C128.562 530.395 127.482 529.645 125.982 529.645C123.777 529.645 122.082 531.295 122.082 533.86ZM129.042 533.875C129.042 535.81 127.752 536.935 126.252 536.935C124.752 536.935 123.477 535.795 123.477 533.86C123.477 531.925 124.752 530.83 126.252 530.83C127.752 530.83 129.042 531.97 129.042 533.875ZM136.544 530.8C137.954 530.8 139.154 531.685 139.139 533.29H133.949C134.099 531.685 135.209 530.8 136.544 530.8ZM140.384 535.465H138.914C138.614 536.35 137.834 536.98 136.604 536.98C135.209 536.98 134.039 536.065 133.934 534.4H140.504C140.534 534.115 140.549 533.875 140.549 533.575C140.549 531.325 138.989 529.645 136.604 529.645C134.204 529.645 132.539 531.28 132.539 533.875C132.539 536.485 134.264 538.135 136.604 538.135C138.644 538.135 139.964 536.965 140.384 535.465ZM148.581 535.765C148.521 532.825 143.751 533.89 143.751 531.94C143.751 531.28 144.351 530.8 145.356 530.8C146.451 530.8 147.081 531.4 147.141 532.225H148.506C148.416 530.62 147.216 529.645 145.401 529.645C143.571 529.645 142.386 530.68 142.386 531.94C142.386 535 147.246 533.935 147.246 535.765C147.246 536.44 146.646 536.98 145.566 536.98C144.411 536.98 143.706 536.38 143.631 535.585H142.221C142.311 537.085 143.661 538.135 145.581 538.135C147.396 538.135 148.581 537.115 148.581 535.765ZM155.147 538H156.512V529.78H155.147V538ZM155.852 528.445C156.347 528.445 156.752 528.04 156.752 527.515C156.752 526.99 156.347 526.585 155.852 526.585C155.327 526.585 154.922 526.99 154.922 527.515C154.922 528.04 155.327 528.445 155.852 528.445ZM165.173 538H166.523V533.155C166.523 530.8 165.068 529.63 163.163 529.63C162.053 529.63 161.063 530.095 160.523 530.95V529.78H159.158V538H160.523V533.455C160.523 531.685 161.483 530.815 162.878 530.815C164.258 530.815 165.173 531.67 165.173 533.35V538ZM176.512 536.44L173.932 529.78H172.417L175.732 537.91L174.112 541.87H175.522L180.472 529.78H179.062L176.512 536.44ZM189.964 533.875C189.964 531.28 188.149 529.645 185.809 529.645C183.484 529.645 181.654 531.28 181.654 533.875C181.654 536.485 183.424 538.135 185.749 538.135C188.089 538.135 189.964 536.485 189.964 533.875ZM183.049 533.875C183.049 531.805 184.354 530.83 185.794 530.83C187.204 530.83 188.569 531.805 188.569 533.875C188.569 535.96 187.174 536.935 185.749 536.935C184.324 536.935 183.049 535.96 183.049 533.875ZM199.369 529.78H198.004V534.295C198.004 536.065 197.059 536.935 195.649 536.935C194.269 536.935 193.354 536.08 193.354 534.415V529.78H192.004V534.595C192.004 536.95 193.489 538.12 195.379 538.12C196.474 538.12 197.479 537.64 198.004 536.785V538H199.369V529.78ZM203.359 533.53C203.359 531.625 204.349 531.04 205.654 531.04H206.014V529.63C204.709 529.63 203.824 530.2 203.359 531.115V529.78H201.994V538H203.359V533.53ZM212.228 538H213.593V529.78H212.228V538ZM212.933 528.445C213.428 528.445 213.833 528.04 213.833 527.515C213.833 526.99 213.428 526.585 212.933 526.585C212.408 526.585 212.003 526.99 212.003 527.515C212.003 528.04 212.408 528.445 212.933 528.445ZM222.255 538H223.605V533.155C223.605 530.8 222.15 529.63 220.245 529.63C219.135 529.63 218.145 530.095 217.605 530.95V529.78H216.24V538H217.605V533.455C217.605 531.685 218.565 530.815 219.96 530.815C221.34 530.815 222.255 531.67 222.255 533.35V538ZM227.519 531.31V526.9H226.154V538H227.519V536.485C228.029 537.385 229.094 538.135 230.594 538.135C232.799 538.135 234.494 536.41 234.494 533.86C234.494 531.295 232.814 529.645 230.594 529.645C229.139 529.645 228.044 530.395 227.519 531.31ZM233.099 533.86C233.099 535.795 231.824 536.935 230.309 536.935C228.824 536.935 227.519 535.81 227.519 533.875C227.519 531.97 228.824 530.83 230.309 530.83C231.824 530.83 233.099 531.925 233.099 533.86ZM244.411 533.875C244.411 531.28 242.596 529.645 240.256 529.645C237.931 529.645 236.101 531.28 236.101 533.875C236.101 536.485 237.871 538.135 240.196 538.135C242.536 538.135 244.411 536.485 244.411 533.875ZM237.496 533.875C237.496 531.805 238.801 530.83 240.241 530.83C241.651 530.83 243.016 531.805 243.016 533.875C243.016 535.96 241.621 536.935 240.196 536.935C238.771 536.935 237.496 535.96 237.496 533.875ZM250.816 538H252.361L249.706 533.845L252.346 529.78H250.921L249.061 532.825L247.111 529.78H245.566L248.221 533.92L245.566 538H246.991L248.866 534.94L250.816 538ZM252.839 540.145H253.754L255.434 536.11H253.934L252.839 540.145ZM264.756 536.44L262.176 529.78H260.661L263.976 537.91L262.356 541.87H263.766L268.716 529.78H267.306L264.756 536.44ZM273.903 530.8C275.313 530.8 276.513 531.685 276.498 533.29H271.308C271.458 531.685 272.568 530.8 273.903 530.8ZM277.743 535.465H276.273C275.973 536.35 275.193 536.98 273.963 536.98C272.568 536.98 271.398 536.065 271.293 534.4H277.863C277.893 534.115 277.908 533.875 277.908 533.575C277.908 531.325 276.348 529.645 273.963 529.645C271.563 529.645 269.898 531.28 269.898 533.875C269.898 536.485 271.623 538.135 273.963 538.135C276.003 538.135 277.323 536.965 277.743 535.465ZM280.33 535.75C280.33 537.4 281.155 538 282.61 538H283.84V536.845H282.835C281.995 536.845 281.695 536.56 281.695 535.75V530.905H283.84V529.78H281.695V527.71H280.33V529.78H279.265V530.905H280.33V535.75ZM286.279 535.045H287.419L287.584 527.545H286.114L286.279 535.045ZM287.809 537.16C287.809 536.635 287.404 536.23 286.909 536.23C286.384 536.23 285.979 536.635 285.979 537.16C285.979 537.685 286.384 538.09 286.909 538.09C287.404 538.09 287.809 537.685 287.809 537.16ZM301.716 535.15C301.716 531.28 296.076 532.96 296.076 530.26C296.076 529.135 296.961 528.55 298.086 528.58C299.361 528.595 300.021 529.39 300.111 530.095H301.611C301.446 528.505 300.141 527.41 298.146 527.41C296.076 527.41 294.681 528.58 294.681 530.305C294.681 534.19 300.336 532.39 300.336 535.21C300.336 536.2 299.556 536.95 298.236 536.95C296.781 536.95 296.166 536.08 296.076 535.21H294.621C294.651 536.935 296.136 538.105 298.236 538.105C300.501 538.105 301.716 536.635 301.716 535.15ZM304.345 535.75C304.345 537.4 305.17 538 306.625 538H307.855V536.845H306.85C306.01 536.845 305.71 536.56 305.71 535.75V530.905H307.855V529.78H305.71V527.71H304.345V529.78H303.28V530.905H304.345V535.75ZM309.318 533.86C309.318 536.41 311.013 538.135 313.203 538.135C314.718 538.135 315.783 537.355 316.278 536.47V538H317.658V529.78H316.278V531.28C315.798 530.425 314.748 529.645 313.218 529.645C311.013 529.645 309.318 531.295 309.318 533.86ZM316.278 533.875C316.278 535.81 314.988 536.935 313.488 536.935C311.988 536.935 310.713 535.795 310.713 533.86C310.713 531.925 311.988 530.83 313.488 530.83C314.988 530.83 316.278 531.97 316.278 533.875ZM321.65 533.53C321.65 531.625 322.64 531.04 323.945 531.04H324.305V529.63C323 529.63 322.115 530.2 321.65 531.115V529.78H320.285V538H321.65V533.53ZM326.501 535.75C326.501 537.4 327.326 538 328.781 538H330.011V536.845H329.006C328.166 536.845 327.866 536.56 327.866 535.75V530.905H330.011V529.78H327.866V527.71H326.501V529.78H325.436V530.905H326.501V535.75ZM59.2592 556.875C59.2592 559.485 60.9242 561.135 63.2642 561.135C65.3042 561.135 66.6392 559.995 67.0592 558.36H65.5892C65.2892 559.395 64.4792 559.98 63.2642 559.98C61.7642 559.98 60.6542 558.915 60.6542 556.875C60.6542 554.865 61.7642 553.8 63.2642 553.8C64.4792 553.8 65.3042 554.43 65.5892 555.42H67.0592C66.6392 553.695 65.3042 552.645 63.2642 552.645C60.9242 552.645 59.2592 554.295 59.2592 556.875ZM69.2005 561H70.5655V556.455C70.5655 554.685 71.5255 553.815 72.9205 553.815C74.3005 553.815 75.2155 554.67 75.2155 556.35V561H76.5655V556.155C76.5655 553.8 75.1105 552.63 73.2805 552.63C72.1255 552.63 71.1055 553.095 70.5655 553.965V549.9H69.2005V561ZM78.6053 556.86C78.6053 559.41 80.3003 561.135 82.4903 561.135C84.0053 561.135 85.0703 560.355 85.5653 559.47V561H86.9453V552.78H85.5653V554.28C85.0853 553.425 84.0353 552.645 82.5053 552.645C80.3003 552.645 78.6053 554.295 78.6053 556.86ZM85.5653 556.875C85.5653 558.81 84.2753 559.935 82.7753 559.935C81.2753 559.935 80.0003 558.795 80.0003 556.86C80.0003 554.925 81.2753 553.83 82.7753 553.83C84.2753 553.83 85.5653 554.97 85.5653 556.875ZM89.872 558.75C89.872 560.4 90.697 561 92.152 561H93.382V559.845H92.377C91.537 559.845 91.237 559.56 91.237 558.75V553.905H93.382V552.78H91.237V550.71H89.872V552.78H88.807V553.905H89.872V558.75ZM95.6559 558.75C95.6559 560.4 96.4809 561 97.9359 561H99.1659V559.845H98.1609C97.3209 559.845 97.0209 559.56 97.0209 558.75V553.905H99.1659V552.78H97.0209V550.71H95.6559V552.78H94.5909V553.905H95.6559V558.75ZM101.14 561H102.505V552.78H101.14V561ZM101.845 551.445C102.34 551.445 102.745 551.04 102.745 550.515C102.745 549.99 102.34 549.585 101.845 549.585C101.32 549.585 100.915 549.99 100.915 550.515C100.915 551.04 101.32 551.445 101.845 551.445ZM111.166 561H112.516V556.155C112.516 553.8 111.061 552.63 109.156 552.63C108.046 552.63 107.056 553.095 106.516 553.95V552.78H105.151V561H106.516V556.455C106.516 554.685 107.476 553.815 108.871 553.815C110.251 553.815 111.166 554.67 111.166 556.35V561ZM114.556 556.86C114.556 559.41 116.251 561.135 118.456 561.135C119.956 561.135 121.021 560.34 121.516 559.455V561.18C121.516 562.935 120.421 563.865 118.966 563.865C117.616 563.865 116.641 563.19 116.341 562.2H114.991C115.261 563.955 116.806 565.05 118.966 565.05C121.381 565.05 122.896 563.445 122.896 561.18V552.78H121.516V554.28C121.036 553.395 119.956 552.645 118.456 552.645C116.251 552.645 114.556 554.295 114.556 556.86ZM121.516 556.875C121.516 558.81 120.226 559.935 118.726 559.935C117.226 559.935 115.951 558.795 115.951 556.86C115.951 554.925 117.226 553.83 118.726 553.83C120.226 553.83 121.516 554.97 121.516 556.875ZM131.447 561H132.857L134.837 554.475L136.817 561H138.227L140.792 552.78H139.442L137.582 559.695L135.587 552.78H134.192L132.152 559.68L130.262 552.78H128.867L131.447 561ZM142.466 561H143.831V552.78H142.466V561ZM143.171 551.445C143.666 551.445 144.071 551.04 144.071 550.515C144.071 549.99 143.666 549.585 143.171 549.585C142.646 549.585 142.241 549.99 142.241 550.515C142.241 551.04 142.646 551.445 143.171 551.445ZM146.778 558.75C146.778 560.4 147.603 561 149.058 561H150.288V559.845H149.283C148.443 559.845 148.143 559.56 148.143 558.75V553.905H150.288V552.78H148.143V550.71H146.778V552.78H145.713V553.905H146.778V558.75ZM152.262 561H153.627V556.455C153.627 554.685 154.587 553.815 155.982 553.815C157.362 553.815 158.277 554.67 158.277 556.35V561H159.627V556.155C159.627 553.8 158.172 552.63 156.342 552.63C155.187 552.63 154.167 553.095 153.627 553.965V549.9H152.262V561ZM167.86 554.295V552.78H166.495V564.9H167.86V559.485C168.37 560.325 169.435 561.135 170.935 561.135C173.14 561.135 174.835 559.41 174.835 556.86C174.835 554.295 173.14 552.645 170.935 552.645C169.435 552.645 168.355 553.425 167.86 554.295ZM173.44 556.86C173.44 558.795 172.165 559.935 170.65 559.935C169.165 559.935 167.86 558.81 167.86 556.875C167.86 554.97 169.165 553.83 170.65 553.83C172.165 553.83 173.44 554.925 173.44 556.86ZM180.447 553.8C181.857 553.8 183.057 554.685 183.042 556.29H177.852C178.002 554.685 179.112 553.8 180.447 553.8ZM184.287 558.465H182.817C182.517 559.35 181.737 559.98 180.507 559.98C179.112 559.98 177.942 559.065 177.837 557.4H184.407C184.437 557.115 184.452 556.875 184.452 556.575C184.452 554.325 182.892 552.645 180.507 552.645C178.107 552.645 176.442 554.28 176.442 556.875C176.442 559.485 178.167 561.135 180.507 561.135C182.547 561.135 183.867 559.965 184.287 558.465ZM194.374 556.875C194.374 554.28 192.559 552.645 190.219 552.645C187.894 552.645 186.064 554.28 186.064 556.875C186.064 559.485 187.834 561.135 190.159 561.135C192.499 561.135 194.374 559.485 194.374 556.875ZM187.459 556.875C187.459 554.805 188.764 553.83 190.204 553.83C191.614 553.83 192.979 554.805 192.979 556.875C192.979 558.96 191.584 559.935 190.159 559.935C188.734 559.935 187.459 558.96 187.459 556.875ZM197.854 554.295V552.78H196.489V564.9H197.854V559.485C198.364 560.325 199.429 561.135 200.929 561.135C203.134 561.135 204.829 559.41 204.829 556.86C204.829 554.295 203.134 552.645 200.929 552.645C199.429 552.645 198.349 553.425 197.854 554.295ZM203.434 556.86C203.434 558.795 202.159 559.935 200.644 559.935C199.159 559.935 197.854 558.81 197.854 556.875C197.854 554.97 199.159 553.83 200.644 553.83C202.159 553.83 203.434 554.925 203.434 556.86ZM206.945 561H208.31V549.9H206.945V561ZM214.452 553.8C215.862 553.8 217.062 554.685 217.047 556.29H211.857C212.007 554.685 213.117 553.8 214.452 553.8ZM218.292 558.465H216.822C216.522 559.35 215.742 559.98 214.512 559.98C213.117 559.98 211.947 559.065 211.842 557.4H218.412C218.442 557.115 218.457 556.875 218.457 556.575C218.457 554.325 216.897 552.645 214.512 552.645C212.112 552.645 210.447 554.28 210.447 556.875C210.447 559.485 212.172 561.135 214.512 561.135C216.552 561.135 217.872 559.965 218.292 558.465ZM224.387 556.86C224.387 559.41 226.082 561.135 228.272 561.135C229.787 561.135 230.852 560.355 231.347 559.47V561H232.727V552.78H231.347V554.28C230.867 553.425 229.817 552.645 228.287 552.645C226.082 552.645 224.387 554.295 224.387 556.86ZM231.347 556.875C231.347 558.81 230.057 559.935 228.557 559.935C227.057 559.935 225.782 558.795 225.782 556.86C225.782 554.925 227.057 553.83 228.557 553.83C230.057 553.83 231.347 554.97 231.347 556.875ZM236.719 556.53C236.719 554.625 237.709 554.04 239.014 554.04H239.374V552.63C238.069 552.63 237.184 553.2 236.719 554.115V552.78H235.354V561H236.719V556.53ZM249.07 556.875C249.07 554.28 247.255 552.645 244.915 552.645C242.59 552.645 240.76 554.28 240.76 556.875C240.76 559.485 242.53 561.135 244.855 561.135C247.195 561.135 249.07 559.485 249.07 556.875ZM242.155 556.875C242.155 554.805 243.46 553.83 244.9 553.83C246.31 553.83 247.675 554.805 247.675 556.875C247.675 558.96 246.28 559.935 244.855 559.935C243.43 559.935 242.155 558.96 242.155 556.875ZM258.475 552.78H257.11V557.295C257.11 559.065 256.165 559.935 254.755 559.935C253.375 559.935 252.46 559.08 252.46 557.415V552.78H251.11V557.595C251.11 559.95 252.595 561.12 254.485 561.12C255.58 561.12 256.585 560.64 257.11 559.785V561H258.475V552.78ZM267.114 561H268.464V556.155C268.464 553.8 267.009 552.63 265.104 552.63C263.994 552.63 263.004 553.095 262.464 553.95V552.78H261.099V561H262.464V556.455C262.464 554.685 263.424 553.815 264.819 553.815C266.199 553.815 267.114 554.67 267.114 556.35V561ZM270.504 556.86C270.504 559.41 272.199 561.135 274.404 561.135C275.904 561.135 276.969 560.37 277.464 559.455V561H278.844V549.9H277.464V554.25C276.894 553.305 275.709 552.645 274.419 552.645C272.199 552.645 270.504 554.295 270.504 556.86ZM277.464 556.875C277.464 558.81 276.174 559.935 274.674 559.935C273.174 559.935 271.899 558.795 271.899 556.86C271.899 554.925 273.174 553.83 274.674 553.83C276.174 553.83 277.464 554.97 277.464 556.875ZM288.91 559.44L286.33 552.78H284.815L288.13 560.91L286.51 564.87H287.92L292.87 552.78H291.46L288.91 559.44ZM302.362 556.875C302.362 554.28 300.547 552.645 298.207 552.645C295.882 552.645 294.052 554.28 294.052 556.875C294.052 559.485 295.822 561.135 298.147 561.135C300.487 561.135 302.362 559.485 302.362 556.875ZM295.447 556.875C295.447 554.805 296.752 553.83 298.192 553.83C299.602 553.83 300.967 554.805 300.967 556.875C300.967 558.96 299.572 559.935 298.147 559.935C296.722 559.935 295.447 558.96 295.447 556.875ZM311.767 552.78H310.402V557.295C310.402 559.065 309.457 559.935 308.047 559.935C306.667 559.935 305.752 559.08 305.752 557.415V552.78H304.402V557.595C304.402 559.95 305.887 561.12 307.777 561.12C308.872 561.12 309.877 560.64 310.402 559.785V561H311.767V552.78ZM315.726 560.16C315.726 559.635 315.321 559.23 314.826 559.23C314.301 559.23 313.896 559.635 313.896 560.16C313.896 560.685 314.301 561.09 314.826 561.09C315.321 561.09 315.726 560.685 315.726 560.16Z" fill="#667085"/>
<path opacity="0.35" d="M338.667 17.8334H355.333C356.53 17.8334 357.5 18.8037 357.5 20.0004V26.0004C357.5 27.1968 356.53 28.1664 355.333 28.1664H338.667C337.47 28.1664 336.5 27.1968 336.5 26.0004V20.0004L336.511 19.7787C336.622 18.686 337.545 17.8334 338.667 17.8334Z" stroke="black"/>
<path opacity="0.4" d="M359 21V25C359.805 24.6613 360.328 23.8732 360.328 23C360.328 22.1269 359.805 21.3388 359 21Z" fill="black"/>
<path d="M338 20.6667C338 19.9303 338.597 19.3334 339.333 19.3334H354.667C355.403 19.3334 356 19.9303 356 20.6667V25.3334C356 26.0698 355.403 26.6667 354.667 26.6667H339.333C338.597 26.6667 338 26.0698 338 25.3334V20.6667Z" fill="black"/>
<path fill-rule="evenodd" clip-rule="evenodd" d="M323.331 19.608C325.547 19.6081 327.678 20.4596 329.284 21.9863C329.405 22.1042 329.598 22.1027 329.717 21.983L330.873 20.8163C330.934 20.7556 330.967 20.6734 330.967 20.5878C330.966 20.5022 330.932 20.4204 330.871 20.3603C326.656 16.3208 320.006 16.3208 315.791 20.3603C315.73 20.4203 315.695 20.5021 315.694 20.5877C315.694 20.6733 315.727 20.7556 315.788 20.8163L316.944 21.983C317.063 22.1029 317.256 22.1044 317.377 21.9863C318.983 20.4595 321.115 19.608 323.331 19.608ZM323.331 23.4037C324.548 23.4036 325.722 23.8561 326.625 24.6733C326.747 24.7893 326.939 24.7868 327.058 24.6677L328.213 23.501C328.274 23.4398 328.307 23.3568 328.307 23.2705C328.306 23.1843 328.27 23.102 328.208 23.042C325.46 20.4856 321.204 20.4856 318.456 23.042C318.394 23.102 318.358 23.1843 318.358 23.2706C318.357 23.3569 318.391 23.4399 318.452 23.501L319.606 24.6677C319.725 24.7868 319.917 24.7893 320.039 24.6733C320.941 23.8567 322.114 23.4042 323.331 23.4037ZM325.644 25.9575C325.646 26.044 325.612 26.1274 325.55 26.188L323.553 28.2037C323.494 28.2629 323.414 28.2963 323.331 28.2963C323.248 28.2963 323.168 28.2629 323.109 28.2037L321.112 26.188C321.05 26.1274 321.016 26.0439 321.018 25.9574C321.02 25.8709 321.057 25.789 321.121 25.731C322.397 24.6521 324.265 24.6521 325.541 25.731C325.605 25.7891 325.642 25.871 325.644 25.9575Z" fill="black"/>
<path fill-rule="evenodd" clip-rule="evenodd" d="M309.667 17.6666H308.667C308.115 17.6666 307.667 18.1143 307.667 18.6666V27.3333C307.667 27.8856 308.115 28.3333 308.667 28.3333H309.667C310.219 28.3333 310.667 27.8856 310.667 27.3333V18.6666C310.667 18.1143 310.219 17.6666 309.667 17.6666ZM304 20H305C305.553 20 306 20.4477 306 21V27.3333C306 27.8856 305.553 28.3333 305 28.3333H304C303.448 28.3333 303 27.8856 303 27.3333V21C303 20.4477 303.448 20 304 20ZM300.334 22.3333H299.334C298.781 22.3333 298.334 22.781 298.334 23.3333V27.3333C298.334 27.8856 298.781 28.3333 299.334 28.3333H300.334C300.886 28.3333 301.334 27.8856 301.334 27.3333V23.3333C301.334 22.781 300.886 22.3333 300.334 22.3333ZM295.667 24.3333H294.667C294.115 24.3333 293.667 24.781 293.667 25.3333V27.3333C293.667 27.8856 294.115 28.3333 294.667 28.3333H295.667C296.219 28.3333 296.667 27.8856 296.667 27.3333V25.3333C296.667 24.781 296.219 24.3333 295.667 24.3333Z" fill="black"/>
<path d="M37.3203 28.2563C40.0083 28.2563 41.605 26.1543 41.605 22.5947C41.605 21.2544 41.3486 20.1265 40.8579 19.2549C40.1475 17.8999 38.9243 17.1675 37.3789 17.1675C35.0791 17.1675 33.4531 18.7129 33.4531 20.8809C33.4531 22.917 34.918 24.3965 36.9321 24.3965C38.1699 24.3965 39.1733 23.8179 39.6714 22.8145H39.6934C39.6934 22.8145 39.7227 22.8145 39.73 22.8145C39.7446 22.8145 39.7959 22.8145 39.7959 22.8145C39.7959 25.2314 38.8804 26.6743 37.335 26.6743C36.4268 26.6743 35.7236 26.1763 35.4819 25.3779H33.5996C33.9146 27.1138 35.3867 28.2563 37.3203 28.2563ZM37.3862 22.895C36.1704 22.895 35.3062 22.0308 35.3062 20.8223C35.3062 19.6431 36.2144 18.7422 37.3936 18.7422C38.5728 18.7422 39.481 19.6577 39.481 20.8516C39.481 22.0308 38.5947 22.895 37.3862 22.895Z" fill="black"/>
<path d="M44.6961 28.1538C45.3919 28.1538 45.868 27.6558 45.868 26.9966C45.868 26.3301 45.3919 25.8394 44.6961 25.8394C44.0076 25.8394 43.5242 26.3301 43.5242 26.9966C43.5242 27.6558 44.0076 28.1538 44.6961 28.1538ZM44.6961 22.6606C45.3919 22.6606 45.868 22.1699 45.868 21.5107C45.868 20.8442 45.3919 20.3535 44.6961 20.3535C44.0076 20.3535 43.5242 20.8442 43.5242 21.5107C43.5242 22.1699 44.0076 22.6606 44.6961 22.6606Z" fill="black"/>
<path d="M52.7237 28H54.5328V26.0298H55.961V24.4331H54.5328V17.4312H51.8668C49.9991 20.2437 48.5123 22.5947 47.5602 24.3452V26.0298H52.7237V28ZM49.3106 24.3672C50.5411 22.1992 51.6397 20.4634 52.6505 18.9692H52.753V24.4771H49.3106V24.3672Z" fill="black"/>
<path d="M59.9896 28H61.8793V17.4312H59.997L57.2357 19.3647V21.1812L59.8651 19.3354H59.9896V28Z" fill="black"/>
<rect x="121" y="799" width="134" height="5" rx="2.5" fill="black"/>
<path fill-rule="evenodd" clip-rule="evenodd" d="M199.135 191C174.452 191 151.765 199.556 133.852 213.872H104.9C101.139 213.872 98.061 216.959 98.061 220.733C98.061 224.507 101.139 227.594 104.9 227.594H119.634H123.952C127.714 227.594 130.791 230.682 130.791 234.456C130.791 236.341 130.021 238.06 128.78 239.3C127.545 240.544 125.831 241.317 123.952 241.317H114.74H109.654H84.839C81.0775 241.317 78 244.405 78 248.179C78 251.953 81.0775 255.04 84.839 255.04H102.604C97.2413 267.685 94.2709 281.597 94.2709 296.209C94.2709 301.511 94.663 306.721 95.4153 311.812C95.7299 313.939 96.1083 316.048 96.5505 318.134C109.453 316.153 123.141 314.561 137.429 313.399L138.505 314.383L139.518 313.235C156.684 311.894 174.702 311.181 193.286 311.181C232.77 311.181 269.718 314.401 301.31 320C302.527 314.703 303.348 309.255 303.736 303.683C303.913 301.213 304 298.72 304 296.209C304 238.102 257.053 191 199.135 191Z" fill="#F1F2F7"/>
<path fill-rule="evenodd" clip-rule="evenodd" d="M64.0723 241H59.9277C56.1175 241 53 244.15 53 248C53 251.85 56.1175 255 59.9277 255H64.0723C67.8825 255 71 251.85 71 248C71 244.15 67.8825 241 64.0723 241Z" fill="#F1F2F7"/>
<mask id="mask0_10_9596" style="mask-type:luminance" maskUnits="userSpaceOnUse" x="96" y="311" width="227" height="90">
<path fill-rule="evenodd" clip-rule="evenodd" d="M322.93 311.332V401H209.669H96.4082V311.332H322.93Z" fill="white"/>
</mask>
<g mask="url(#mask0_10_9596)">
<path fill-rule="evenodd" clip-rule="evenodd" d="M322.93 346C322.93 349.75 319.853 352.818 316.092 352.818H272.419C270.541 352.818 268.828 353.586 267.593 354.823C266.353 356.055 265.582 357.764 265.582 359.636C265.582 363.386 268.659 366.455 272.419 366.455H280.533C282.411 366.455 284.125 367.223 285.361 368.459C286.6 369.691 287.371 371.4 287.371 373.273C287.371 377.023 284.294 380.091 280.533 380.091H261.877C244.35 393.218 222.571 401 198.968 401C148.559 401 106.459 365.523 96.4082 318.241C109.308 316.273 122.992 314.691 137.277 313.536L138.353 314.514L139.365 313.373C156.526 312.041 174.541 311.332 193.12 311.332C232.594 311.332 269.534 314.532 301.118 320.095C299.582 326.723 297.413 333.105 294.678 339.182H316.092C317.975 339.182 319.68 339.95 320.919 341.186C322.159 342.418 322.93 344.127 322.93 346Z" fill="#E8EBF2"/>
</g>
<path fill-rule="evenodd" clip-rule="evenodd" d="M303 303.372C302.613 309.05 301.793 314.602 300.578 320C269.028 314.294 232.128 311.013 192.697 311.013C174.138 311.013 156.143 311.74 139 313.106L150.889 299.331L169.383 311.4L194.418 304.487L237.486 311.013L256.183 304.487L260.919 311.013L272.217 302.627L282.774 312.304L299.426 299L303 303.372Z" fill="#E0E2EE"/>
<path fill-rule="evenodd" clip-rule="evenodd" d="M241.62 309.4C246.356 302.516 249.069 294.352 248.999 285.616C248.805 261.316 227.158 241.79 200.649 242.002C174.139 242.214 152.807 262.085 153.001 286.384C153.195 310.683 174.843 330.21 201.351 329.998C210.823 329.923 219.633 327.336 227.037 322.935L246.842 327.599L241.62 309.4Z" fill="#D8DBEA"/>
<path fill-rule="evenodd" clip-rule="evenodd" d="M187 284.96C187.022 287.721 184.801 289.978 182.04 290C179.278 290.022 177.022 287.801 177 285.04C176.978 282.279 179.198 280.023 181.96 280C184.721 279.978 186.977 282.199 187 284.96Z" fill="#BEC0D6"/>
<path fill-rule="evenodd" clip-rule="evenodd" d="M205 284.96C205.022 287.721 202.801 289.978 200.04 290C197.278 290.022 195.022 287.801 195 285.04C194.978 282.279 197.198 280.022 199.96 280C202.721 279.978 204.977 282.199 205 284.96Z" fill="#BEC0D6"/>
<path fill-rule="evenodd" clip-rule="evenodd" d="M223 284.96C223.022 287.721 220.801 289.977 218.04 290C215.278 290.022 213.022 287.801 213 285.04C212.978 282.278 215.198 280.022 217.96 280C220.721 279.978 222.977 282.199 223 284.96Z" fill="#BEC0D6"/>
<path fill-rule="evenodd" clip-rule="evenodd" d="M139 313L138.03 314L137 313.143C137.663 313.092 138.332 313.044 139 313Z" fill="#F1F2F7"/>
<path fill-rule="evenodd" clip-rule="evenodd" d="M148 320C148 323.176 149.016 326.132 150.761 328.621L148.909 335.26L156.121 333.505C158.833 335.082 162.048 336 165.5 336C175.165 336 183 328.837 183 320C183 311.163 175.165 304 165.5 304C155.835 304 148 311.163 148 320Z" fill="url(#paint0_linear_10_9596)"/>
<path fill-rule="evenodd" clip-rule="evenodd" d="M170 320C170 321.105 170.895 322 172 322C173.104 322 174 321.105 174 320C174 318.896 173.104 318 172 318C170.895 318 170 318.896 170 320Z" fill="white"/>
<path fill-rule="evenodd" clip-rule="evenodd" d="M164 320C164 321.105 164.895 322 166 322C167.104 322 168 321.105 168 320C168 318.896 167.104 318 166 318C164.895 318 164 318.896 164 320Z" fill="white"/>
<path fill-rule="evenodd" clip-rule="evenodd" d="M157 320C157 321.105 157.895 322 159 322C160.104 322 161 321.105 161 320C161 318.896 160.104 318 159 318C157.895 318 157 318.896 157 320Z" fill="white"/>
<path fill-rule="evenodd" clip-rule="evenodd" d="M137 313.258C122.716 314.422 109.033 316.016 96.1349 318C95.6928 315.911 95.3145 313.799 95 311.668L117.109 295L137 313.258Z" fill="#E0E2EE"/>
<path fill-rule="evenodd" clip-rule="evenodd" d="M237 347.5C237 349.433 219.539 351 198 351C176.461 351 159 349.433 159 347.5C159 345.568 176.461 344 198 344C219.539 344 237 345.568 237 347.5Z" fill="#D8DBEA"/>
<path fill-rule="evenodd" clip-rule="evenodd" d="M301 380C297.15 380 294 376.85 294 373C294 369.15 297.15 366 301 366C304.85 366 308 369.15 308 373C308 376.85 304.85 380 301 380Z" fill="#E1E3EF"/>
</g>
<defs>
<linearGradient id="paint0_linear_10_9596" x1="165.5" y1="288" x2="133.628" y2="322.86" gradientUnits="userSpaceOnUse">
<stop stop-color="#FF8960"/>
<stop offset="1" stop-color="#FF62A5"/>
</linearGradient>
<clipPath id="clip0_10_9596">
<rect width="375" height="812" fill="white"/>
</clipPath>
</defs>
</svg>
