<svg width="375" height="812" viewBox="0 0 375 812" fill="none" xmlns="http://www.w3.org/2000/svg">
<g clip-path="url(#clip0_13_9816)">
<rect width="375" height="812" fill="white"/>
<path d="M66.8612 495.168V501H70.2212V495.168L75.8852 484.248H72.1412L68.5652 491.904L64.9652 484.248H61.1732L66.8612 495.168ZM90.983 494.352C90.983 490.152 87.983 487.488 84.143 487.488C80.303 487.488 77.303 490.152 77.303 494.352C77.303 498.528 80.207 501.216 84.047 501.216C87.911 501.216 90.983 498.528 90.983 494.352ZM80.711 494.352C80.711 491.688 82.319 490.416 84.095 490.416C85.871 490.416 87.527 491.688 87.527 494.352C87.527 496.992 85.823 498.288 84.047 498.288C82.247 498.288 80.711 496.992 80.711 494.352ZM106.32 487.704H102.936V495.024C102.936 497.16 101.784 498.312 99.9597 498.312C98.1837 498.312 97.0077 497.16 97.0077 495.024V487.704H93.6477V495.504C93.6477 499.152 95.8797 501.168 98.9757 501.168C100.632 501.168 102.096 500.448 102.936 499.32V501H106.32V487.704ZM113.315 494.376C113.315 491.808 114.515 491.04 116.507 491.04H117.395V487.512C115.547 487.512 114.155 488.4 113.315 489.768V487.704H109.955V501H113.315V494.376ZM128.441 501H132.089L134.513 491.712L136.937 501H140.561L144.449 487.704H141.233L138.881 497.808L136.385 487.704H132.833L130.289 497.832L127.937 487.704H124.529L128.441 501ZM145.723 494.304C145.723 498.456 148.411 501.216 151.771 501.216C153.883 501.216 155.395 500.208 156.187 499.056V501H159.571V487.704H156.187V489.6C155.395 488.496 153.931 487.488 151.795 487.488C148.411 487.488 145.723 490.152 145.723 494.304ZM156.187 494.352C156.187 496.872 154.507 498.264 152.659 498.264C150.859 498.264 149.155 496.824 149.155 494.304C149.155 491.784 150.859 490.44 152.659 490.44C154.507 490.44 156.187 491.832 156.187 494.352ZM163.172 501H166.532V483.24H163.172V501ZM170.172 501H173.532V483.24H170.172V501ZM182.884 490.248C184.612 490.248 186.004 491.352 186.052 493.104H179.74C180.004 491.28 181.276 490.248 182.884 490.248ZM189.196 496.824H185.572C185.14 497.712 184.348 498.432 182.908 498.432C181.228 498.432 179.884 497.328 179.716 495.36H189.436C189.508 494.928 189.532 494.496 189.532 494.064C189.532 490.104 186.82 487.488 182.98 487.488C179.044 487.488 176.308 490.152 176.308 494.352C176.308 498.528 179.116 501.216 182.98 501.216C186.268 501.216 188.476 499.272 189.196 496.824ZM192.832 496.872C192.832 499.92 194.536 501 197.08 501H199.192V498.168H197.632C196.576 498.168 196.216 497.784 196.216 496.896V490.464H199.192V487.704H196.216V484.416H192.832V487.704H191.248V490.464H192.832V496.872ZM207.968 501H211.328V487.704H207.968V501ZM209.672 486.12C210.848 486.12 211.736 485.256 211.736 484.152C211.736 483.048 210.848 482.184 209.672 482.184C208.472 482.184 207.608 483.048 207.608 484.152C207.608 485.256 208.472 486.12 209.672 486.12ZM225.287 497.208C225.191 492.336 217.823 493.848 217.823 491.424C217.823 490.656 218.471 490.152 219.719 490.152C221.039 490.152 221.855 490.848 221.951 491.88H225.167C224.975 489.24 223.031 487.488 219.815 487.488C216.527 487.488 214.559 489.264 214.559 491.472C214.559 496.344 222.071 494.832 222.071 497.208C222.071 497.976 221.351 498.576 220.031 498.576C218.687 498.576 217.751 497.808 217.631 496.8H214.247C214.391 499.272 216.719 501.216 220.055 501.216C223.295 501.216 225.287 499.488 225.287 497.208ZM240.116 490.248C241.844 490.248 243.236 491.352 243.284 493.104H236.972C237.236 491.28 238.508 490.248 240.116 490.248ZM246.428 496.824H242.804C242.372 497.712 241.58 498.432 240.14 498.432C238.46 498.432 237.116 497.328 236.948 495.36H246.668C246.74 494.928 246.764 494.496 246.764 494.064C246.764 490.104 244.052 487.488 240.212 487.488C236.276 487.488 233.54 490.152 233.54 494.352C233.54 498.528 236.348 501.216 240.212 501.216C243.5 501.216 245.708 499.272 246.428 496.824ZM268.137 501H271.497V493.2C271.497 489.528 269.241 487.512 266.049 487.512C264.105 487.512 262.353 488.544 261.489 490.056C260.577 488.4 258.873 487.512 256.809 487.512C255.153 487.512 253.737 488.208 252.897 489.312V487.704H249.537V501H252.897V493.656C252.897 491.544 254.073 490.44 255.897 490.44C257.673 490.44 258.849 491.544 258.849 493.656V501H262.209V493.656C262.209 491.544 263.385 490.44 265.185 490.44C266.961 490.44 268.137 491.544 268.137 493.656V501ZM278.365 489.624V487.704H275.005V507.336H278.365V499.104C279.181 500.184 280.669 501.216 282.757 501.216C286.165 501.216 288.829 498.456 288.829 494.304C288.829 490.152 286.165 487.488 282.757 487.488C280.693 487.488 279.157 488.496 278.365 489.624ZM285.397 494.304C285.397 496.824 283.693 498.264 281.869 498.264C280.069 498.264 278.365 496.872 278.365 494.352C278.365 491.832 280.069 490.44 281.869 490.44C283.693 490.44 285.397 491.784 285.397 494.304ZM292.119 496.872C292.119 499.92 293.823 501 296.367 501H298.479V498.168H296.919C295.863 498.168 295.503 497.784 295.503 496.896V490.464H298.479V487.704H295.503V484.416H292.119V487.704H290.535V490.464H292.119V496.872ZM306.88 496.992L303.448 487.704H299.68L305.008 500.664L302.128 507.288H305.704L313.936 487.704H310.36L306.88 496.992Z" fill="#101828"/>
<path d="M23.6987 527.545V538H28.7237V536.89H25.0637V527.545H23.6987ZM38.2933 533.875C38.2933 531.28 36.4783 529.645 34.1383 529.645C31.8133 529.645 29.9833 531.28 29.9833 533.875C29.9833 536.485 31.7533 538.135 34.0783 538.135C36.4183 538.135 38.2933 536.485 38.2933 533.875ZM31.3783 533.875C31.3783 531.805 32.6833 530.83 34.1233 530.83C35.5333 530.83 36.8983 531.805 36.8983 533.875C36.8983 535.96 35.5033 536.935 34.0783 536.935C32.6533 536.935 31.3783 535.96 31.3783 533.875ZM48.208 533.875C48.208 531.28 46.393 529.645 44.053 529.645C41.728 529.645 39.898 531.28 39.898 533.875C39.898 536.485 41.668 538.135 43.993 538.135C46.333 538.135 48.208 536.485 48.208 533.875ZM41.293 533.875C41.293 531.805 42.598 530.83 44.038 530.83C45.448 530.83 46.813 531.805 46.813 533.875C46.813 535.96 45.418 536.935 43.993 536.935C42.568 536.935 41.293 535.96 41.293 533.875ZM50.3227 538H51.6877V534.37L54.9127 538H56.7727L52.8877 533.875L56.7577 529.78H54.8527L51.6877 533.425V526.9H50.3227V538ZM62.6815 538H64.0465V526.9H62.6815V538ZM66.6929 538H68.0579V529.78H66.6929V538ZM67.3979 528.445C67.8929 528.445 68.2979 528.04 68.2979 527.515C68.2979 526.99 67.8929 526.585 67.3979 526.585C66.8729 526.585 66.4679 526.99 66.4679 527.515C66.4679 528.04 66.8729 528.445 67.3979 528.445ZM70.7043 538H72.0693V534.37L75.2943 538H77.1543L73.2693 533.875L77.1393 529.78H75.2343L72.0693 533.425V526.9H70.7043V538ZM82.239 530.8C83.649 530.8 84.849 531.685 84.834 533.29H79.644C79.794 531.685 80.904 530.8 82.239 530.8ZM86.079 535.465H84.609C84.309 536.35 83.529 536.98 82.299 536.98C80.904 536.98 79.734 536.065 79.629 534.4H86.199C86.229 534.115 86.244 533.875 86.244 533.575C86.244 531.325 84.684 529.645 82.299 529.645C79.899 529.645 78.234 531.28 78.234 533.875C78.234 536.485 79.959 538.135 82.299 538.135C84.339 538.135 85.659 536.965 86.079 535.465ZM92.9848 535.75C92.9848 537.4 93.8098 538 95.2648 538H96.4948V536.845H95.4898C94.6498 536.845 94.3498 536.56 94.3498 535.75V530.905H96.4948V529.78H94.3498V527.71H92.9848V529.78H91.9198V530.905H92.9848V535.75ZM98.4687 538H99.8337V533.455C99.8337 531.685 100.794 530.815 102.189 530.815C103.569 530.815 104.484 531.67 104.484 533.35V538H105.834V533.155C105.834 530.8 104.379 529.63 102.549 529.63C101.394 529.63 100.374 530.095 99.8337 530.965V526.9H98.4687V538ZM111.878 530.8C113.288 530.8 114.488 531.685 114.473 533.29H109.283C109.433 531.685 110.543 530.8 111.878 530.8ZM115.718 535.465H114.248C113.948 536.35 113.168 536.98 111.938 536.98C110.543 536.98 109.373 536.065 109.268 534.4H115.838C115.868 534.115 115.883 533.875 115.883 533.575C115.883 531.325 114.323 529.645 111.938 529.645C109.538 529.645 107.873 531.28 107.873 533.875C107.873 536.485 109.598 538.135 111.938 538.135C113.978 538.135 115.298 536.965 115.718 535.465ZM119.37 533.53C119.37 531.625 120.36 531.04 121.665 531.04H122.025V529.63C120.72 529.63 119.835 530.2 119.37 531.115V529.78H118.005V538H119.37V533.53ZM127.416 530.8C128.826 530.8 130.026 531.685 130.011 533.29H124.821C124.971 531.685 126.081 530.8 127.416 530.8ZM131.256 535.465H129.786C129.486 536.35 128.706 536.98 127.476 536.98C126.081 536.98 124.911 536.065 124.806 534.4H131.376C131.406 534.115 131.421 533.875 131.421 533.575C131.421 531.325 129.861 529.645 127.476 529.645C125.076 529.645 123.411 531.28 123.411 533.875C123.411 536.485 125.136 538.135 127.476 538.135C129.516 538.135 130.836 536.965 131.256 535.465ZM137.352 533.86C137.352 536.41 139.047 538.135 141.237 538.135C142.752 538.135 143.817 537.355 144.312 536.47V538H145.692V529.78H144.312V531.28C143.832 530.425 142.782 529.645 141.252 529.645C139.047 529.645 137.352 531.295 137.352 533.86ZM144.312 533.875C144.312 535.81 143.022 536.935 141.522 536.935C140.022 536.935 138.747 535.795 138.747 533.86C138.747 531.925 140.022 530.83 141.522 530.83C143.022 530.83 144.312 531.97 144.312 533.875ZM149.683 533.53C149.683 531.625 150.673 531.04 151.978 531.04H152.338V529.63C151.033 529.63 150.148 530.2 149.683 531.115V529.78H148.318V538H149.683V533.53ZM157.729 530.8C159.139 530.8 160.339 531.685 160.324 533.29H155.134C155.284 531.685 156.394 530.8 157.729 530.8ZM161.569 535.465H160.099C159.799 536.35 159.019 536.98 157.789 536.98C156.394 536.98 155.224 536.065 155.119 534.4H161.689C161.719 534.115 161.734 533.875 161.734 533.575C161.734 531.325 160.174 529.645 157.789 529.645C155.389 529.645 153.724 531.28 153.724 533.875C153.724 536.485 155.449 538.135 157.789 538.135C159.829 538.135 161.149 536.965 161.569 535.465ZM174.19 538H175.54V533.155C175.54 530.8 174.085 529.63 172.18 529.63C171.07 529.63 170.08 530.095 169.54 530.95V529.78H168.175V538H169.54V533.455C169.54 531.685 170.5 530.815 171.895 530.815C173.275 530.815 174.19 531.67 174.19 533.35V538ZM185.89 533.875C185.89 531.28 184.075 529.645 181.735 529.645C179.41 529.645 177.58 531.28 177.58 533.875C177.58 536.485 179.35 538.135 181.675 538.135C184.015 538.135 185.89 536.485 185.89 533.875ZM178.975 533.875C178.975 531.805 180.28 530.83 181.72 530.83C183.13 530.83 184.495 531.805 184.495 533.875C184.495 535.96 183.1 536.935 181.675 536.935C180.25 536.935 178.975 535.96 178.975 533.875ZM191.813 533.875C191.813 536.485 193.478 538.135 195.818 538.135C197.858 538.135 199.193 536.995 199.613 535.36H198.143C197.843 536.395 197.033 536.98 195.818 536.98C194.318 536.98 193.208 535.915 193.208 533.875C193.208 531.865 194.318 530.8 195.818 530.8C197.033 530.8 197.858 531.43 198.143 532.42H199.613C199.193 530.695 197.858 529.645 195.818 529.645C193.478 529.645 191.813 531.295 191.813 533.875ZM203.12 533.53C203.12 531.625 204.11 531.04 205.415 531.04H205.775V529.63C204.47 529.63 203.585 530.2 203.12 531.115V529.78H201.755V538H203.12V533.53ZM211.165 530.8C212.575 530.8 213.775 531.685 213.76 533.29H208.57C208.72 531.685 209.83 530.8 211.165 530.8ZM215.005 535.465H213.535C213.235 536.35 212.455 536.98 211.225 536.98C209.83 536.98 208.66 536.065 208.555 534.4H215.125C215.155 534.115 215.17 533.875 215.17 533.575C215.17 531.325 213.61 529.645 211.225 529.645C208.825 529.645 207.16 531.28 207.16 533.875C207.16 536.485 208.885 538.135 211.225 538.135C213.265 538.135 214.585 536.965 215.005 535.465ZM216.782 533.86C216.782 536.41 218.477 538.135 220.682 538.135C222.182 538.135 223.247 537.37 223.742 536.455V538H225.122V526.9H223.742V531.25C223.172 530.305 221.987 529.645 220.697 529.645C218.477 529.645 216.782 531.295 216.782 533.86ZM223.742 533.875C223.742 535.81 222.452 536.935 220.952 536.935C219.452 536.935 218.177 535.795 218.177 533.86C218.177 531.925 219.452 530.83 220.952 530.83C222.452 530.83 223.742 531.97 223.742 533.875ZM227.749 538H229.114V529.78H227.749V538ZM228.454 528.445C228.949 528.445 229.354 528.04 229.354 527.515C229.354 526.99 228.949 526.585 228.454 526.585C227.929 526.585 227.524 526.99 227.524 527.515C227.524 528.04 227.929 528.445 228.454 528.445ZM232.06 535.75C232.06 537.4 232.885 538 234.34 538H235.57V536.845H234.565C233.725 536.845 233.425 536.56 233.425 535.75V530.905H235.57V529.78H233.425V527.71H232.06V529.78H230.995V530.905H232.06V535.75ZM243.454 535.765C243.394 532.825 238.624 533.89 238.624 531.94C238.624 531.28 239.224 530.8 240.229 530.8C241.324 530.8 241.954 531.4 242.014 532.225H243.379C243.289 530.62 242.089 529.645 240.274 529.645C238.444 529.645 237.259 530.68 237.259 531.94C237.259 535 242.119 533.935 242.119 535.765C242.119 536.44 241.519 536.98 240.439 536.98C239.284 536.98 238.579 536.38 238.504 535.585H237.094C237.184 537.085 238.534 538.135 240.454 538.135C242.269 538.135 243.454 537.115 243.454 535.765ZM250.02 538H251.385V529.78H250.02V538ZM250.725 528.445C251.22 528.445 251.625 528.04 251.625 527.515C251.625 526.99 251.22 526.585 250.725 526.585C250.2 526.585 249.795 526.99 249.795 527.515C249.795 528.04 250.2 528.445 250.725 528.445ZM260.046 538H261.396V533.155C261.396 530.8 259.941 529.63 258.036 529.63C256.926 529.63 255.936 530.095 255.396 530.95V529.78H254.031V538H255.396V533.455C255.396 531.685 256.356 530.815 257.751 530.815C259.131 530.815 260.046 531.67 260.046 533.35V538ZM271.385 536.44L268.805 529.78H267.29L270.605 537.91L268.985 541.87H270.395L275.345 529.78H273.935L271.385 536.44ZM284.837 533.875C284.837 531.28 283.022 529.645 280.682 529.645C278.357 529.645 276.527 531.28 276.527 533.875C276.527 536.485 278.297 538.135 280.622 538.135C282.962 538.135 284.837 536.485 284.837 533.875ZM277.922 533.875C277.922 531.805 279.227 530.83 280.667 530.83C282.077 530.83 283.442 531.805 283.442 533.875C283.442 535.96 282.047 536.935 280.622 536.935C279.197 536.935 277.922 535.96 277.922 533.875ZM294.242 529.78H292.877V534.295C292.877 536.065 291.932 536.935 290.522 536.935C289.142 536.935 288.227 536.08 288.227 534.415V529.78H286.877V534.595C286.877 536.95 288.362 538.12 290.252 538.12C291.347 538.12 292.352 537.64 292.877 536.785V538H294.242V529.78ZM298.232 533.53C298.232 531.625 299.222 531.04 300.527 531.04H300.887V529.63C299.582 529.63 298.697 530.2 298.232 531.115V529.78H296.867V538H298.232V533.53ZM308.707 538H310.117L312.097 531.475L314.077 538H315.487L318.052 529.78H316.702L314.842 536.695L312.847 529.78H311.452L309.412 536.68L307.522 529.78H306.127L308.707 538ZM319.216 533.86C319.216 536.41 320.911 538.135 323.101 538.135C324.616 538.135 325.681 537.355 326.176 536.47V538H327.556V529.78H326.176V531.28C325.696 530.425 324.646 529.645 323.116 529.645C320.911 529.645 319.216 531.295 319.216 533.86ZM326.176 533.875C326.176 535.81 324.886 536.935 323.386 536.935C321.886 536.935 320.611 535.795 320.611 533.86C320.611 531.925 321.886 530.83 323.386 530.83C324.886 530.83 326.176 531.97 326.176 533.875ZM330.183 538H331.548V526.9H330.183V538ZM334.194 538H335.559V526.9H334.194V538ZM341.701 530.8C343.111 530.8 344.311 531.685 344.296 533.29H339.106C339.256 531.685 340.366 530.8 341.701 530.8ZM345.541 535.465H344.071C343.771 536.35 342.991 536.98 341.761 536.98C340.366 536.98 339.196 536.065 339.091 534.4H345.661C345.691 534.115 345.706 533.875 345.706 533.575C345.706 531.325 344.146 529.645 341.761 529.645C339.361 529.645 337.696 531.28 337.696 533.875C337.696 536.485 339.421 538.135 341.761 538.135C343.801 538.135 345.121 536.965 345.541 535.465ZM348.127 535.75C348.127 537.4 348.952 538 350.407 538H351.637V536.845H350.632C349.792 536.845 349.492 536.56 349.492 535.75V530.905H351.637V529.78H349.492V527.71H348.127V529.78H347.062V530.905H348.127V535.75ZM30.6514 556.86C30.6514 559.41 32.3464 561.135 34.5364 561.135C36.0514 561.135 37.1164 560.355 37.6114 559.47V561H38.9914V552.78H37.6114V554.28C37.1314 553.425 36.0814 552.645 34.5514 552.645C32.3464 552.645 30.6514 554.295 30.6514 556.86ZM37.6114 556.875C37.6114 558.81 36.3214 559.935 34.8214 559.935C33.3214 559.935 32.0464 558.795 32.0464 556.86C32.0464 554.925 33.3214 553.83 34.8214 553.83C36.3214 553.83 37.6114 554.97 37.6114 556.875ZM41.9181 558.75C41.9181 560.4 42.7431 561 44.1981 561H45.4281V559.845H44.4231C43.5831 559.845 43.2831 559.56 43.2831 558.75V553.905H45.4281V552.78H43.2831V550.71H41.9181V552.78H40.8531V553.905H41.9181V558.75ZM52.021 558.75C52.021 560.4 52.846 561 54.301 561H55.531V559.845H54.526C53.686 559.845 53.386 559.56 53.386 558.75V553.905H55.531V552.78H53.386V550.71H52.021V552.78H50.956V553.905H52.021V558.75ZM57.5049 561H58.8699V556.455C58.8699 554.685 59.8299 553.815 61.2249 553.815C62.6049 553.815 63.5199 554.67 63.5199 556.35V561H64.8699V556.155C64.8699 553.8 63.4149 552.63 61.5849 552.63C60.4299 552.63 59.4099 553.095 58.8699 553.965V549.9H57.5049V561ZM70.9146 553.8C72.3246 553.8 73.5246 554.685 73.5096 556.29H68.3196C68.4696 554.685 69.5796 553.8 70.9146 553.8ZM74.7546 558.465H73.2846C72.9846 559.35 72.2046 559.98 70.9746 559.98C69.5796 559.98 68.4096 559.065 68.3046 557.4H74.8746C74.9046 557.115 74.9196 556.875 74.9196 556.575C74.9196 554.325 73.3596 552.645 70.9746 552.645C68.5746 552.645 66.9096 554.28 66.9096 556.875C66.9096 559.485 68.6346 561.135 70.9746 561.135C73.0146 561.135 74.3346 559.965 74.7546 558.465ZM93.2254 561H94.5754V556.155C94.5754 553.8 93.1204 552.63 91.2454 552.63C89.9854 552.63 88.8154 553.275 88.3354 554.46C87.7954 553.23 86.6704 552.63 85.3204 552.63C84.2404 552.63 83.2654 553.095 82.7254 553.965V552.78H81.3604V561H82.7254V556.47C82.7254 554.7 83.6704 553.815 85.0504 553.815C86.4004 553.815 87.3004 554.67 87.3004 556.35V561H88.6504V556.47C88.6504 554.7 89.5954 553.815 90.9754 553.815C92.3254 553.815 93.2254 554.67 93.2254 556.35V561ZM104.935 556.875C104.935 554.28 103.12 552.645 100.78 552.645C98.4545 552.645 96.6245 554.28 96.6245 556.875C96.6245 559.485 98.3945 561.135 100.72 561.135C103.06 561.135 104.935 559.485 104.935 556.875ZM98.0195 556.875C98.0195 554.805 99.3245 553.83 100.765 553.83C102.175 553.83 103.54 554.805 103.54 556.875C103.54 558.96 102.145 559.935 100.72 559.935C99.2945 559.935 98.0195 558.96 98.0195 556.875ZM118.914 561H120.264V556.155C120.264 553.8 118.809 552.63 116.934 552.63C115.674 552.63 114.504 553.275 114.024 554.46C113.484 553.23 112.359 552.63 111.009 552.63C109.929 552.63 108.954 553.095 108.414 553.965V552.78H107.049V561H108.414V556.47C108.414 554.7 109.359 553.815 110.739 553.815C112.089 553.815 112.989 554.67 112.989 556.35V561H114.339V556.47C114.339 554.7 115.284 553.815 116.664 553.815C118.014 553.815 118.914 554.67 118.914 556.35V561ZM126.318 553.8C127.728 553.8 128.928 554.685 128.913 556.29H123.723C123.873 554.685 124.983 553.8 126.318 553.8ZM130.158 558.465H128.688C128.388 559.35 127.608 559.98 126.378 559.98C124.983 559.98 123.813 559.065 123.708 557.4H130.278C130.308 557.115 130.323 556.875 130.323 556.575C130.323 554.325 128.763 552.645 126.378 552.645C123.978 552.645 122.313 554.28 122.313 556.875C122.313 559.485 124.038 561.135 126.378 561.135C128.418 561.135 129.738 559.965 130.158 558.465ZM138.46 561H139.81V556.155C139.81 553.8 138.355 552.63 136.45 552.63C135.34 552.63 134.35 553.095 133.81 553.95V552.78H132.445V561H133.81V556.455C133.81 554.685 134.77 553.815 136.165 553.815C137.545 553.815 138.46 554.67 138.46 556.35V561ZM142.66 558.75C142.66 560.4 143.485 561 144.94 561H146.17V559.845H145.165C144.325 559.845 144.025 559.56 144.025 558.75V553.905H146.17V552.78H144.025V550.71H142.66V552.78H141.595V553.905H142.66V558.75ZM149.479 560.16C149.479 559.635 149.074 559.23 148.579 559.23C148.054 559.23 147.649 559.635 147.649 560.16C147.649 560.685 148.054 561.09 148.579 561.09C149.074 561.09 149.479 560.685 149.479 560.16ZM161.602 561H163.387L158.602 555.78L163.342 550.545H161.617L157.297 555.39V550.545H155.932V561H157.297V556.23L161.602 561ZM165.232 561H166.597V552.78H165.232V561ZM165.937 551.445C166.432 551.445 166.837 551.04 166.837 550.515C166.837 549.99 166.432 549.585 165.937 549.585C165.412 549.585 165.007 549.99 165.007 550.515C165.007 551.04 165.412 551.445 165.937 551.445ZM175.258 561H176.608V556.155C176.608 553.8 175.153 552.63 173.248 552.63C172.138 552.63 171.148 553.095 170.608 553.95V552.78H169.243V561H170.608V556.455C170.608 554.685 171.568 553.815 172.963 553.815C174.343 553.815 175.258 554.67 175.258 556.35V561ZM178.648 556.86C178.648 559.41 180.343 561.135 182.548 561.135C184.048 561.135 185.113 560.37 185.608 559.455V561H186.988V549.9H185.608V554.25C185.038 553.305 183.853 552.645 182.563 552.645C180.343 552.645 178.648 554.295 178.648 556.86ZM185.608 556.875C185.608 558.81 184.318 559.935 182.818 559.935C181.318 559.935 180.043 558.795 180.043 556.86C180.043 554.925 181.318 553.83 182.818 553.83C184.318 553.83 185.608 554.97 185.608 556.875ZM189.614 561H190.979V549.9H189.614V561ZM196.746 559.44L194.166 552.78H192.651L195.966 560.91L194.346 564.87H195.756L200.706 552.78H199.296L196.746 559.44ZM208.082 554.295V552.78H206.717V564.9H208.082V559.485C208.592 560.325 209.657 561.135 211.157 561.135C213.362 561.135 215.057 559.41 215.057 556.86C215.057 554.295 213.362 552.645 211.157 552.645C209.657 552.645 208.577 553.425 208.082 554.295ZM213.662 556.86C213.662 558.795 212.387 559.935 210.872 559.935C209.387 559.935 208.082 558.81 208.082 556.875C208.082 554.97 209.387 553.83 210.872 553.83C212.387 553.83 213.662 554.925 213.662 556.86ZM224.464 552.78H223.099V557.295C223.099 559.065 222.154 559.935 220.744 559.935C219.364 559.935 218.449 559.08 218.449 557.415V552.78H217.099V557.595C217.099 559.95 218.584 561.12 220.474 561.12C221.569 561.12 222.574 560.64 223.099 559.785V561H224.464V552.78ZM228.453 556.53C228.453 554.625 229.443 554.04 230.748 554.04H231.108V552.63C229.803 552.63 228.918 553.2 228.453 554.115V552.78H227.088V561H228.453V556.53ZM232.494 556.875C232.494 559.485 234.159 561.135 236.499 561.135C238.539 561.135 239.874 559.995 240.294 558.36H238.824C238.524 559.395 237.714 559.98 236.499 559.98C234.999 559.98 233.889 558.915 233.889 556.875C233.889 554.865 234.999 553.8 236.499 553.8C237.714 553.8 238.539 554.43 238.824 555.42H240.294C239.874 553.695 238.539 552.645 236.499 552.645C234.159 552.645 232.494 554.295 232.494 556.875ZM242.436 561H243.801V556.455C243.801 554.685 244.761 553.815 246.156 553.815C247.536 553.815 248.451 554.67 248.451 556.35V561H249.801V556.155C249.801 553.8 248.346 552.63 246.516 552.63C245.361 552.63 244.341 553.095 243.801 553.965V549.9H242.436V561ZM251.84 556.86C251.84 559.41 253.535 561.135 255.725 561.135C257.24 561.135 258.305 560.355 258.8 559.47V561H260.18V552.78H258.8V554.28C258.32 553.425 257.27 552.645 255.74 552.645C253.535 552.645 251.84 554.295 251.84 556.86ZM258.8 556.875C258.8 558.81 257.51 559.935 256.01 559.935C254.51 559.935 253.235 558.795 253.235 556.86C253.235 554.925 254.51 553.83 256.01 553.83C257.51 553.83 258.8 554.97 258.8 556.875ZM268.717 558.765C268.657 555.825 263.887 556.89 263.887 554.94C263.887 554.28 264.487 553.8 265.492 553.8C266.587 553.8 267.217 554.4 267.277 555.225H268.642C268.552 553.62 267.352 552.645 265.537 552.645C263.707 552.645 262.522 553.68 262.522 554.94C262.522 558 267.382 556.935 267.382 558.765C267.382 559.44 266.782 559.98 265.702 559.98C264.547 559.98 263.842 559.38 263.767 558.585H262.357C262.447 560.085 263.797 561.135 265.717 561.135C267.532 561.135 268.717 560.115 268.717 558.765ZM274.459 553.8C275.869 553.8 277.069 554.685 277.054 556.29H271.864C272.014 554.685 273.124 553.8 274.459 553.8ZM278.299 558.465H276.829C276.529 559.35 275.749 559.98 274.519 559.98C273.124 559.98 271.954 559.065 271.849 557.4H278.419C278.449 557.115 278.464 556.875 278.464 556.575C278.464 554.325 276.904 552.645 274.519 552.645C272.119 552.645 270.454 554.28 270.454 556.875C270.454 559.485 272.179 561.135 274.519 561.135C276.559 561.135 277.879 559.965 278.299 558.465ZM296.77 561H298.12V556.155C298.12 553.8 296.665 552.63 294.79 552.63C293.53 552.63 292.36 553.275 291.88 554.46C291.34 553.23 290.215 552.63 288.865 552.63C287.785 552.63 286.81 553.095 286.27 553.965V552.78H284.905V561H286.27V556.47C286.27 554.7 287.215 553.815 288.595 553.815C289.945 553.815 290.845 554.67 290.845 556.35V561H292.195V556.47C292.195 554.7 293.14 553.815 294.52 553.815C295.87 553.815 296.77 554.67 296.77 556.35V561ZM308.479 556.875C308.479 554.28 306.664 552.645 304.324 552.645C301.999 552.645 300.169 554.28 300.169 556.875C300.169 559.485 301.939 561.135 304.264 561.135C306.604 561.135 308.479 559.485 308.479 556.875ZM301.564 556.875C301.564 554.805 302.869 553.83 304.309 553.83C305.719 553.83 307.084 554.805 307.084 556.875C307.084 558.96 305.689 559.935 304.264 559.935C302.839 559.935 301.564 558.96 301.564 556.875ZM311.958 556.53C311.958 554.625 312.948 554.04 314.253 554.04H314.613V552.63C313.308 552.63 312.423 553.2 311.958 554.115V552.78H310.593V561H311.958V556.53ZM320.004 553.8C321.414 553.8 322.614 554.685 322.599 556.29H317.409C317.559 554.685 318.669 553.8 320.004 553.8ZM323.844 558.465H322.374C322.074 559.35 321.294 559.98 320.064 559.98C318.669 559.98 317.499 559.065 317.394 557.4H323.964C323.994 557.115 324.009 556.875 324.009 556.575C324.009 554.325 322.449 552.645 320.064 552.645C317.664 552.645 315.999 554.28 315.999 556.875C315.999 559.485 317.724 561.135 320.064 561.135C322.104 561.135 323.424 559.965 323.844 558.465ZM330.75 558.75C330.75 560.4 331.575 561 333.03 561H334.26V559.845H333.255C332.415 559.845 332.115 559.56 332.115 558.75V553.905H334.26V552.78H332.115V550.71H330.75V552.78H329.685V553.905H330.75V558.75ZM344.034 556.875C344.034 554.28 342.219 552.645 339.879 552.645C337.554 552.645 335.724 554.28 335.724 556.875C335.724 559.485 337.494 561.135 339.819 561.135C342.159 561.135 344.034 559.485 344.034 556.875ZM337.119 556.875C337.119 554.805 338.424 553.83 339.864 553.83C341.274 553.83 342.639 554.805 342.639 556.875C342.639 558.96 341.244 559.935 339.819 559.935C338.394 559.935 337.119 558.96 337.119 556.875ZM154.051 579.875C154.051 582.485 155.716 584.135 158.056 584.135C160.096 584.135 161.431 582.995 161.851 581.36H160.381C160.081 582.395 159.271 582.98 158.056 582.98C156.556 582.98 155.446 581.915 155.446 579.875C155.446 577.865 156.556 576.8 158.056 576.8C159.271 576.8 160.096 577.43 160.381 578.42H161.851C161.431 576.695 160.096 575.645 158.056 575.645C155.716 575.645 154.051 577.295 154.051 579.875ZM171.793 579.875C171.793 577.28 169.978 575.645 167.638 575.645C165.313 575.645 163.483 577.28 163.483 579.875C163.483 582.485 165.253 584.135 167.578 584.135C169.918 584.135 171.793 582.485 171.793 579.875ZM164.878 579.875C164.878 577.805 166.183 576.83 167.623 576.83C169.033 576.83 170.398 577.805 170.398 579.875C170.398 581.96 169.003 582.935 167.578 582.935C166.153 582.935 164.878 581.96 164.878 579.875ZM179.922 584H181.272V579.155C181.272 576.8 179.817 575.63 177.912 575.63C176.802 575.63 175.812 576.095 175.272 576.95V575.78H173.907V584H175.272V579.455C175.272 577.685 176.232 576.815 177.627 576.815C179.007 576.815 179.922 577.67 179.922 579.35V584ZM184.122 581.75C184.122 583.4 184.947 584 186.402 584H187.632V582.845H186.627C185.787 582.845 185.487 582.56 185.487 581.75V576.905H187.632V575.78H185.487V573.71H184.122V575.78H183.057V576.905H184.122V581.75ZM189.606 584H190.971V575.78H189.606V584ZM190.311 574.445C190.806 574.445 191.211 574.04 191.211 573.515C191.211 572.99 190.806 572.585 190.311 572.585C189.786 572.585 189.381 572.99 189.381 573.515C189.381 574.04 189.786 574.445 190.311 574.445ZM199.632 584H200.982V579.155C200.982 576.8 199.527 575.63 197.622 575.63C196.512 575.63 195.522 576.095 194.982 576.95V575.78H193.617V584H194.982V579.455C194.982 577.685 195.942 576.815 197.337 576.815C198.717 576.815 199.632 577.67 199.632 579.35V584ZM210.822 575.78H209.457V580.295C209.457 582.065 208.512 582.935 207.102 582.935C205.722 582.935 204.807 582.08 204.807 580.415V575.78H203.457V580.595C203.457 582.95 204.942 584.12 206.832 584.12C207.927 584.12 208.932 583.64 209.457 582.785V584H210.822V575.78ZM216.942 576.8C218.352 576.8 219.552 577.685 219.537 579.29H214.347C214.497 577.685 215.607 576.8 216.942 576.8ZM220.782 581.465H219.312C219.012 582.35 218.232 582.98 217.002 582.98C215.607 582.98 214.437 582.065 214.332 580.4H220.902C220.932 580.115 220.947 579.875 220.947 579.575C220.947 577.325 219.387 575.645 217.002 575.645C214.602 575.645 212.937 577.28 212.937 579.875C212.937 582.485 214.662 584.135 217.002 584.135C219.042 584.135 220.362 582.965 220.782 581.465Z" fill="#667085"/>
<path opacity="0.35" d="M338.667 17.8334H355.333C356.53 17.8334 357.5 18.8037 357.5 20.0004V26.0004C357.5 27.1968 356.53 28.1664 355.333 28.1664H338.667C337.47 28.1664 336.5 27.1968 336.5 26.0004V20.0004L336.511 19.7787C336.622 18.686 337.545 17.8334 338.667 17.8334Z" stroke="black"/>
<path opacity="0.4" d="M359 21V25C359.805 24.6612 360.328 23.8731 360.328 23C360.328 22.1269 359.805 21.3388 359 21Z" fill="black"/>
<path d="M338 20.6667C338 19.9303 338.597 19.3334 339.333 19.3334H354.667C355.403 19.3334 356 19.9303 356 20.6667V25.3334C356 26.0698 355.403 26.6667 354.667 26.6667H339.333C338.597 26.6667 338 26.0698 338 25.3334V20.6667Z" fill="black"/>
<path fill-rule="evenodd" clip-rule="evenodd" d="M323.331 19.608C325.547 19.6081 327.678 20.4596 329.284 21.9863C329.405 22.1042 329.598 22.1027 329.717 21.983L330.873 20.8163C330.934 20.7556 330.967 20.6734 330.967 20.5878C330.966 20.5022 330.932 20.4204 330.871 20.3603C326.656 16.3208 320.006 16.3208 315.791 20.3603C315.73 20.4203 315.695 20.5021 315.694 20.5877C315.694 20.6733 315.727 20.7556 315.788 20.8163L316.944 21.983C317.063 22.1029 317.256 22.1044 317.377 21.9863C318.983 20.4595 321.115 19.608 323.331 19.608ZM323.331 23.4037C324.548 23.4036 325.722 23.8561 326.625 24.6733C326.747 24.7893 326.939 24.7868 327.058 24.6677L328.213 23.501C328.274 23.4398 328.307 23.3568 328.307 23.2705C328.306 23.1843 328.27 23.102 328.208 23.042C325.46 20.4856 321.204 20.4856 318.456 23.042C318.394 23.102 318.358 23.1843 318.358 23.2706C318.357 23.3569 318.391 23.4399 318.452 23.501L319.606 24.6677C319.725 24.7868 319.917 24.7893 320.039 24.6733C320.941 23.8567 322.114 23.4042 323.331 23.4037ZM325.644 25.9575C325.646 26.044 325.612 26.1274 325.55 26.188L323.553 28.2037C323.494 28.2629 323.414 28.2963 323.331 28.2963C323.248 28.2963 323.168 28.2629 323.109 28.2037L321.112 26.188C321.05 26.1274 321.016 26.0439 321.018 25.9574C321.02 25.8709 321.057 25.789 321.121 25.731C322.397 24.6521 324.265 24.6521 325.541 25.731C325.605 25.7891 325.642 25.871 325.644 25.9575Z" fill="black"/>
<path fill-rule="evenodd" clip-rule="evenodd" d="M309.667 17.6666H308.667C308.115 17.6666 307.667 18.1143 307.667 18.6666V27.3333C307.667 27.8856 308.115 28.3333 308.667 28.3333H309.667C310.219 28.3333 310.667 27.8856 310.667 27.3333V18.6666C310.667 18.1143 310.219 17.6666 309.667 17.6666ZM304 20H305C305.553 20 306 20.4477 306 21V27.3333C306 27.8856 305.553 28.3333 305 28.3333H304C303.448 28.3333 303 27.8856 303 27.3333V21C303 20.4477 303.448 20 304 20ZM300.334 22.3333H299.334C298.781 22.3333 298.334 22.781 298.334 23.3333V27.3333C298.334 27.8856 298.781 28.3333 299.334 28.3333H300.334C300.886 28.3333 301.334 27.8856 301.334 27.3333V23.3333C301.334 22.781 300.886 22.3333 300.334 22.3333ZM295.667 24.3333H294.667C294.115 24.3333 293.667 24.781 293.667 25.3333V27.3333C293.667 27.8856 294.115 28.3333 294.667 28.3333H295.667C296.219 28.3333 296.667 27.8856 296.667 27.3333V25.3333C296.667 24.781 296.219 24.3333 295.667 24.3333Z" fill="black"/>
<path d="M37.3203 28.2563C40.0083 28.2563 41.605 26.1543 41.605 22.5947C41.605 21.2544 41.3486 20.1265 40.8579 19.2549C40.1475 17.8999 38.9243 17.1675 37.3789 17.1675C35.0791 17.1675 33.4531 18.7129 33.4531 20.8809C33.4531 22.917 34.918 24.3965 36.9321 24.3965C38.1699 24.3965 39.1733 23.8179 39.6714 22.8145H39.6934C39.6934 22.8145 39.7227 22.8145 39.73 22.8145C39.7446 22.8145 39.7959 22.8145 39.7959 22.8145C39.7959 25.2314 38.8804 26.6743 37.335 26.6743C36.4268 26.6743 35.7236 26.1763 35.4819 25.3779H33.5996C33.9146 27.1138 35.3867 28.2563 37.3203 28.2563ZM37.3862 22.895C36.1704 22.895 35.3062 22.0308 35.3062 20.8223C35.3062 19.6431 36.2144 18.7422 37.3936 18.7422C38.5728 18.7422 39.481 19.6577 39.481 20.8516C39.481 22.0308 38.5947 22.895 37.3862 22.895Z" fill="black"/>
<path d="M44.6961 28.1538C45.3919 28.1538 45.868 27.6558 45.868 26.9966C45.868 26.3301 45.3919 25.8394 44.6961 25.8394C44.0076 25.8394 43.5242 26.3301 43.5242 26.9966C43.5242 27.6558 44.0076 28.1538 44.6961 28.1538ZM44.6961 22.6606C45.3919 22.6606 45.868 22.1699 45.868 21.5107C45.868 20.8442 45.3919 20.3535 44.6961 20.3535C44.0076 20.3535 43.5242 20.8442 43.5242 21.5107C43.5242 22.1699 44.0076 22.6606 44.6961 22.6606Z" fill="black"/>
<path d="M52.7237 28H54.5328V26.0298H55.961V24.4331H54.5328V17.4312H51.8668C49.9991 20.2437 48.5123 22.5947 47.5602 24.3452V26.0298H52.7237V28ZM49.3106 24.3672C50.5411 22.1992 51.6397 20.4634 52.6505 18.9692H52.753V24.4771H49.3106V24.3672Z" fill="black"/>
<path d="M59.9896 28H61.8793V17.4312H59.997L57.2357 19.3647V21.1812L59.8651 19.3354H59.9896V28Z" fill="black"/>
<rect x="121" y="799" width="134" height="5" rx="2.5" fill="black"/>
<rect width="375" height="812" fill="#344054" fill-opacity="0.8"/>
<rect x="17" y="104" width="342" height="605" rx="16" fill="white"/>
<path d="M121.886 413.224H112.166V430H121.886V427.264H115.526V422.824H121.166V420.16H115.526V415.96H121.886V413.224ZM134.571 430H137.931V422.2C137.931 418.528 135.723 416.512 132.627 416.512C130.923 416.512 129.483 417.232 128.619 418.36V416.704H125.259V430H128.619V422.656C128.619 420.52 129.795 419.368 131.619 419.368C133.395 419.368 134.571 420.52 134.571 422.656V430ZM140.582 423.304C140.582 427.456 143.27 430.216 146.63 430.216C148.742 430.216 150.254 429.208 151.046 428.056V430H154.43V416.704H151.046V418.6C150.254 417.496 148.79 416.488 146.654 416.488C143.27 416.488 140.582 419.152 140.582 423.304ZM151.046 423.352C151.046 425.872 149.366 427.264 147.518 427.264C145.718 427.264 144.014 425.824 144.014 423.304C144.014 420.784 145.718 419.44 147.518 419.44C149.366 419.44 151.046 420.832 151.046 423.352ZM161.392 418.648V412.24H158.032V430H161.392V428.104C162.208 429.256 163.696 430.216 165.784 430.216C169.192 430.216 171.856 427.456 171.856 423.304C171.856 419.152 169.192 416.488 165.784 416.488C163.768 416.488 162.208 417.424 161.392 418.648ZM168.424 423.304C168.424 425.824 166.72 427.264 164.896 427.264C163.096 427.264 161.392 425.872 161.392 423.352C161.392 420.832 163.096 419.44 164.896 419.44C166.72 419.44 168.424 420.784 168.424 423.304ZM174.617 430H177.977V412.24H174.617V430ZM187.329 419.248C189.057 419.248 190.449 420.352 190.497 422.104H184.185C184.449 420.28 185.721 419.248 187.329 419.248ZM193.641 425.824H190.017C189.585 426.712 188.793 427.432 187.353 427.432C185.673 427.432 184.329 426.328 184.161 424.36H193.881C193.953 423.928 193.977 423.496 193.977 423.064C193.977 419.104 191.265 416.488 187.425 416.488C183.489 416.488 180.753 419.152 180.753 423.352C180.753 427.528 183.561 430.216 187.425 430.216C190.713 430.216 192.921 428.272 193.641 425.824ZM206.148 418.624V416.704H202.788V436.336H206.148V428.104C206.964 429.184 208.452 430.216 210.54 430.216C213.948 430.216 216.612 427.456 216.612 423.304C216.612 419.152 213.948 416.488 210.54 416.488C208.476 416.488 206.94 417.496 206.148 418.624ZM213.18 423.304C213.18 425.824 211.476 427.264 209.652 427.264C207.852 427.264 206.148 425.872 206.148 423.352C206.148 420.832 207.852 419.44 209.652 419.44C211.476 419.44 213.18 420.784 213.18 423.304ZM231.926 416.704H228.542V424.024C228.542 426.16 227.39 427.312 225.566 427.312C223.79 427.312 222.614 426.16 222.614 424.024V416.704H219.254V424.504C219.254 428.152 221.486 430.168 224.582 430.168C226.238 430.168 227.702 429.448 228.542 428.32V430H231.926V416.704ZM245.881 426.208C245.785 421.336 238.417 422.848 238.417 420.424C238.417 419.656 239.065 419.152 240.313 419.152C241.633 419.152 242.449 419.848 242.545 420.88H245.761C245.569 418.24 243.625 416.488 240.409 416.488C237.121 416.488 235.153 418.264 235.153 420.472C235.153 425.344 242.665 423.832 242.665 426.208C242.665 426.976 241.945 427.576 240.625 427.576C239.281 427.576 238.345 426.808 238.225 425.8H234.841C234.985 428.272 237.313 430.216 240.649 430.216C243.889 430.216 245.881 428.488 245.881 426.208ZM248.959 430H252.319V422.656C252.319 420.52 253.495 419.368 255.319 419.368C257.095 419.368 258.271 420.52 258.271 422.656V430H261.631V422.2C261.631 418.528 259.447 416.512 256.447 416.512C254.671 416.512 253.183 417.232 252.319 418.36V412.24H248.959V430ZM119.525 466H122.885V458.2C122.885 454.528 120.677 452.512 117.581 452.512C115.877 452.512 114.437 453.232 113.573 454.36V452.704H110.213V466H113.573V458.656C113.573 456.52 114.749 455.368 116.573 455.368C118.349 455.368 119.525 456.52 119.525 458.656V466ZM139.24 459.352C139.24 455.152 136.24 452.488 132.4 452.488C128.56 452.488 125.56 455.152 125.56 459.352C125.56 463.528 128.464 466.216 132.304 466.216C136.168 466.216 139.24 463.528 139.24 459.352ZM128.968 459.352C128.968 456.688 130.576 455.416 132.352 455.416C134.128 455.416 135.784 456.688 135.784 459.352C135.784 461.992 134.08 463.288 132.304 463.288C130.504 463.288 128.968 461.992 128.968 459.352ZM142.552 461.872C142.552 464.92 144.256 466 146.8 466H148.912V463.168H147.352C146.296 463.168 145.936 462.784 145.936 461.896V455.464H148.912V452.704H145.936V449.416H142.552V452.704H140.968V455.464H142.552V461.872ZM151.649 466H155.009V452.704H151.649V466ZM153.353 451.12C154.529 451.12 155.417 450.256 155.417 449.152C155.417 448.048 154.529 447.184 153.353 447.184C152.153 447.184 151.289 448.048 151.289 449.152C151.289 450.256 152.153 451.12 153.353 451.12ZM159.009 466H162.417V455.464H164.745V452.704H162.417V452.152C162.417 450.664 162.969 450.136 164.601 450.184V447.352C160.857 447.256 159.009 448.768 159.009 452.032V452.704H157.497V455.464H159.009V466ZM167.242 466H170.602V452.704H167.242V466ZM168.946 451.12C170.122 451.12 171.01 450.256 171.01 449.152C171.01 448.048 170.122 447.184 168.946 447.184C167.746 447.184 166.882 448.048 166.882 449.152C166.882 450.256 167.746 451.12 168.946 451.12ZM173.378 459.352C173.378 463.528 176.114 466.216 179.954 466.216C183.266 466.216 185.498 464.344 186.218 461.512H182.594C182.186 462.712 181.322 463.336 179.93 463.336C178.058 463.336 176.81 461.944 176.81 459.352C176.81 456.76 178.058 455.344 179.93 455.344C181.322 455.344 182.21 456.064 182.594 457.192H186.218C185.498 454.216 183.266 452.488 179.954 452.488C176.114 452.488 173.378 455.176 173.378 459.352ZM188.135 459.304C188.135 463.456 190.823 466.216 194.183 466.216C196.295 466.216 197.807 465.208 198.599 464.056V466H201.983V452.704H198.599V454.6C197.807 453.496 196.343 452.488 194.207 452.488C190.823 452.488 188.135 455.152 188.135 459.304ZM198.599 459.352C198.599 461.872 196.919 463.264 195.071 463.264C193.271 463.264 191.567 461.824 191.567 459.304C191.567 456.784 193.271 455.44 195.071 455.44C196.919 455.44 198.599 456.832 198.599 459.352ZM206.113 461.872C206.113 464.92 207.817 466 210.361 466H212.473V463.168H210.913C209.857 463.168 209.497 462.784 209.497 461.896V455.464H212.473V452.704H209.497V449.416H206.113V452.704H204.529V455.464H206.113V461.872ZM215.21 466H218.57V452.704H215.21V466ZM216.914 451.12C218.09 451.12 218.978 450.256 218.978 449.152C218.978 448.048 218.09 447.184 216.914 447.184C215.714 447.184 214.85 448.048 214.85 449.152C214.85 450.256 215.714 451.12 216.914 451.12ZM235.049 459.352C235.049 455.152 232.049 452.488 228.209 452.488C224.369 452.488 221.369 455.152 221.369 459.352C221.369 463.528 224.273 466.216 228.113 466.216C231.977 466.216 235.049 463.528 235.049 459.352ZM224.777 459.352C224.777 456.688 226.385 455.416 228.161 455.416C229.937 455.416 231.593 456.688 231.593 459.352C231.593 461.992 229.889 463.288 228.113 463.288C226.313 463.288 224.777 461.992 224.777 459.352ZM247.146 466H250.506V458.2C250.506 454.528 248.298 452.512 245.202 452.512C243.498 452.512 242.058 453.232 241.194 454.36V452.704H237.834V466H241.194V458.656C241.194 456.52 242.37 455.368 244.194 455.368C245.97 455.368 247.146 456.52 247.146 458.656V466ZM264.341 462.208C264.245 457.336 256.877 458.848 256.877 456.424C256.877 455.656 257.525 455.152 258.773 455.152C260.093 455.152 260.909 455.848 261.005 456.88H264.221C264.029 454.24 262.085 452.488 258.869 452.488C255.581 452.488 253.613 454.264 253.613 456.472C253.613 461.344 261.125 459.832 261.125 462.208C261.125 462.976 260.405 463.576 259.085 463.576C257.741 463.576 256.805 462.808 256.685 461.8H253.301C253.445 464.272 255.773 466.216 259.109 466.216C262.349 466.216 264.341 464.488 264.341 462.208Z" fill="#101828"/>
<path d="M71.846 492.53H66.221V503H71.846V501.875H67.586V498.275H71.396V497.15H67.586V493.655H71.846V492.53ZM80.2465 503H81.5965V498.155C81.5965 495.8 80.1415 494.63 78.2365 494.63C77.1265 494.63 76.1365 495.095 75.5965 495.95V494.78H74.2315V503H75.5965V498.455C75.5965 496.685 76.5565 495.815 77.9515 495.815C79.3315 495.815 80.2465 496.67 80.2465 498.35V503ZM83.6362 498.86C83.6362 501.41 85.3312 503.135 87.5212 503.135C89.0362 503.135 90.1012 502.355 90.5962 501.47V503H91.9762V494.78H90.5962V496.28C90.1162 495.425 89.0662 494.645 87.5362 494.645C85.3312 494.645 83.6362 496.295 83.6362 498.86ZM90.5962 498.875C90.5962 500.81 89.3062 501.935 87.8062 501.935C86.3062 501.935 85.0312 500.795 85.0312 498.86C85.0312 496.925 86.3062 495.83 87.8062 495.83C89.3062 495.83 90.5962 496.97 90.5962 498.875ZM95.9679 496.31V491.9H94.6029V503H95.9679V501.485C96.4779 502.385 97.5429 503.135 99.0429 503.135C101.248 503.135 102.943 501.41 102.943 498.86C102.943 496.295 101.263 494.645 99.0429 494.645C97.5879 494.645 96.4929 495.395 95.9679 496.31ZM101.548 498.86C101.548 500.795 100.273 501.935 98.7579 501.935C97.2729 501.935 95.9679 500.81 95.9679 498.875C95.9679 496.97 97.2729 495.83 98.7579 495.83C100.273 495.83 101.548 496.925 101.548 498.86ZM105.06 503H106.425V491.9H105.06V503ZM112.566 495.8C113.976 495.8 115.176 496.685 115.161 498.29H109.971C110.121 496.685 111.231 495.8 112.566 495.8ZM116.406 500.465H114.936C114.636 501.35 113.856 501.98 112.626 501.98C111.231 501.98 110.061 501.065 109.956 499.4H116.526C116.556 499.115 116.571 498.875 116.571 498.575C116.571 496.325 115.011 494.645 112.626 494.645C110.226 494.645 108.561 496.28 108.561 498.875C108.561 501.485 110.286 503.135 112.626 503.135C114.666 503.135 115.986 501.965 116.406 500.465ZM124.377 496.295V494.78H123.012V506.9H124.377V501.485C124.887 502.325 125.952 503.135 127.452 503.135C129.657 503.135 131.352 501.41 131.352 498.86C131.352 496.295 129.657 494.645 127.452 494.645C125.952 494.645 124.872 495.425 124.377 496.295ZM129.957 498.86C129.957 500.795 128.682 501.935 127.167 501.935C125.682 501.935 124.377 500.81 124.377 498.875C124.377 496.97 125.682 495.83 127.167 495.83C128.682 495.83 129.957 496.925 129.957 498.86ZM140.759 494.78H139.394V499.295C139.394 501.065 138.449 501.935 137.039 501.935C135.659 501.935 134.744 501.08 134.744 499.415V494.78H133.394V499.595C133.394 501.95 134.879 503.12 136.769 503.12C137.864 503.12 138.869 502.64 139.394 501.785V503H140.759V494.78ZM149.293 500.765C149.233 497.825 144.463 498.89 144.463 496.94C144.463 496.28 145.063 495.8 146.068 495.8C147.163 495.8 147.793 496.4 147.853 497.225H149.218C149.128 495.62 147.928 494.645 146.113 494.645C144.283 494.645 143.098 495.68 143.098 496.94C143.098 500 147.958 498.935 147.958 500.765C147.958 501.44 147.358 501.98 146.278 501.98C145.123 501.98 144.418 501.38 144.343 500.585H142.933C143.023 502.085 144.373 503.135 146.293 503.135C148.108 503.135 149.293 502.115 149.293 500.765ZM151.54 503H152.905V498.455C152.905 496.685 153.865 495.815 155.26 495.815C156.64 495.815 157.555 496.67 157.555 498.35V503H158.905V498.155C158.905 495.8 157.45 494.63 155.62 494.63C154.465 494.63 153.445 495.095 152.905 495.965V491.9H151.54V503ZM171.789 503H173.139V498.155C173.139 495.8 171.684 494.63 169.779 494.63C168.669 494.63 167.679 495.095 167.139 495.95V494.78H165.774V503H167.139V498.455C167.139 496.685 168.099 495.815 169.494 495.815C170.874 495.815 171.789 496.67 171.789 498.35V503ZM183.489 498.875C183.489 496.28 181.674 494.645 179.334 494.645C177.009 494.645 175.179 496.28 175.179 498.875C175.179 501.485 176.949 503.135 179.274 503.135C181.614 503.135 183.489 501.485 183.489 498.875ZM176.574 498.875C176.574 496.805 177.879 495.83 179.319 495.83C180.729 495.83 182.094 496.805 182.094 498.875C182.094 500.96 180.699 501.935 179.274 501.935C177.849 501.935 176.574 500.96 176.574 498.875ZM185.903 500.75C185.903 502.4 186.728 503 188.183 503H189.413V501.845H188.408C187.568 501.845 187.268 501.56 187.268 500.75V495.905H189.413V494.78H187.268V492.71H185.903V494.78H184.838V495.905H185.903V500.75ZM191.387 503H192.752V494.78H191.387V503ZM192.092 493.445C192.587 493.445 192.992 493.04 192.992 492.515C192.992 491.99 192.587 491.585 192.092 491.585C191.567 491.585 191.162 491.99 191.162 492.515C191.162 493.04 191.567 493.445 192.092 493.445ZM195.654 503H197.019V495.905H198.744V494.78H197.019V494.195C197.019 493.13 197.424 492.68 198.654 492.68V491.54C196.554 491.54 195.654 492.365 195.654 494.195V494.78H194.589V495.905H195.654V503ZM200.655 503H202.02V494.78H200.655V503ZM201.36 493.445C201.855 493.445 202.26 493.04 202.26 492.515C202.26 491.99 201.855 491.585 201.36 491.585C200.835 491.585 200.43 491.99 200.43 492.515C200.43 493.04 200.835 493.445 201.36 493.445ZM204.157 498.875C204.157 501.485 205.822 503.135 208.162 503.135C210.202 503.135 211.537 501.995 211.957 500.36H210.487C210.187 501.395 209.377 501.98 208.162 501.98C206.662 501.98 205.552 500.915 205.552 498.875C205.552 496.865 206.662 495.8 208.162 495.8C209.377 495.8 210.202 496.43 210.487 497.42H211.957C211.537 495.695 210.202 494.645 208.162 494.645C205.822 494.645 204.157 496.295 204.157 498.875ZM213.588 498.86C213.588 501.41 215.283 503.135 217.473 503.135C218.988 503.135 220.053 502.355 220.548 501.47V503H221.928V494.78H220.548V496.28C220.068 495.425 219.018 494.645 217.488 494.645C215.283 494.645 213.588 496.295 213.588 498.86ZM220.548 498.875C220.548 500.81 219.258 501.935 217.758 501.935C216.258 501.935 214.983 500.795 214.983 498.86C214.983 496.925 216.258 495.83 217.758 495.83C219.258 495.83 220.548 496.97 220.548 498.875ZM224.855 500.75C224.855 502.4 225.68 503 227.135 503H228.365V501.845H227.36C226.52 501.845 226.22 501.56 226.22 500.75V495.905H228.365V494.78H226.22V492.71H224.855V494.78H223.79V495.905H224.855V500.75ZM230.339 503H231.704V494.78H230.339V503ZM231.044 493.445C231.539 493.445 231.944 493.04 231.944 492.515C231.944 491.99 231.539 491.585 231.044 491.585C230.519 491.585 230.114 491.99 230.114 492.515C230.114 493.04 230.519 493.445 231.044 493.445ZM242.15 498.875C242.15 496.28 240.335 494.645 237.995 494.645C235.67 494.645 233.84 496.28 233.84 498.875C233.84 501.485 235.61 503.135 237.935 503.135C240.275 503.135 242.15 501.485 242.15 498.875ZM235.235 498.875C235.235 496.805 236.54 495.83 237.98 495.83C239.39 495.83 240.755 496.805 240.755 498.875C240.755 500.96 239.36 501.935 237.935 501.935C236.51 501.935 235.235 500.96 235.235 498.875ZM250.28 503H251.63V498.155C251.63 495.8 250.175 494.63 248.27 494.63C247.16 494.63 246.17 495.095 245.63 495.95V494.78H244.265V503H245.63V498.455C245.63 496.685 246.59 495.815 247.985 495.815C249.365 495.815 250.28 496.67 250.28 498.35V503ZM260.089 500.765C260.029 497.825 255.259 498.89 255.259 496.94C255.259 496.28 255.859 495.8 256.864 495.8C257.959 495.8 258.589 496.4 258.649 497.225H260.014C259.924 495.62 258.724 494.645 256.909 494.645C255.079 494.645 253.894 495.68 253.894 496.94C253.894 500 258.754 498.935 258.754 500.765C258.754 501.44 258.154 501.98 257.074 501.98C255.919 501.98 255.214 501.38 255.139 500.585H253.729C253.819 502.085 255.169 503.135 257.089 503.135C258.904 503.135 260.089 502.115 260.089 500.765ZM266.955 500.75C266.955 502.4 267.78 503 269.235 503H270.465V501.845H269.46C268.62 501.845 268.32 501.56 268.32 500.75V495.905H270.465V494.78H268.32V492.71H266.955V494.78H265.89V495.905H266.955V500.75ZM280.239 498.875C280.239 496.28 278.424 494.645 276.084 494.645C273.759 494.645 271.929 496.28 271.929 498.875C271.929 501.485 273.699 503.135 276.024 503.135C278.364 503.135 280.239 501.485 280.239 498.875ZM273.324 498.875C273.324 496.805 274.629 495.83 276.069 495.83C277.479 495.83 278.844 496.805 278.844 498.875C278.844 500.96 277.449 501.935 276.024 501.935C274.599 501.935 273.324 500.96 273.324 498.875ZM286.673 503H288.038V491.9H286.673V503ZM294.179 495.8C295.589 495.8 296.789 496.685 296.774 498.29H291.584C291.734 496.685 292.844 495.8 294.179 495.8ZM298.019 500.465H296.549C296.249 501.35 295.469 501.98 294.239 501.98C292.844 501.98 291.674 501.065 291.569 499.4H298.139C298.169 499.115 298.184 498.875 298.184 498.575C298.184 496.325 296.624 494.645 294.239 494.645C291.839 494.645 290.174 496.28 290.174 498.875C290.174 501.485 291.899 503.135 294.239 503.135C296.279 503.135 297.599 501.965 298.019 500.465ZM300.606 500.75C300.606 502.4 301.431 503 302.886 503H304.116V501.845H303.111C302.271 501.845 301.971 501.56 301.971 500.75V495.905H304.116V494.78H301.971V492.71H300.606V494.78H299.541V495.905H300.606V500.75ZM46.0957 523.765C46.0357 520.825 41.2657 521.89 41.2657 519.94C41.2657 519.28 41.8657 518.8 42.8707 518.8C43.9657 518.8 44.5957 519.4 44.6557 520.225H46.0207C45.9307 518.62 44.7307 517.645 42.9157 517.645C41.0857 517.645 39.9007 518.68 39.9007 519.94C39.9007 523 44.7607 521.935 44.7607 523.765C44.7607 524.44 44.1607 524.98 43.0807 524.98C41.9257 524.98 41.2207 524.38 41.1457 523.585H39.7357C39.8257 525.085 41.1757 526.135 43.0957 526.135C44.9107 526.135 46.0957 525.115 46.0957 523.765ZM51.8376 518.8C53.2476 518.8 54.4476 519.685 54.4326 521.29H49.2426C49.3926 519.685 50.5026 518.8 51.8376 518.8ZM55.6776 523.465H54.2076C53.9076 524.35 53.1276 524.98 51.8976 524.98C50.5026 524.98 49.3326 524.065 49.2276 522.4H55.7976C55.8276 522.115 55.8426 521.875 55.8426 521.575C55.8426 519.325 54.2826 517.645 51.8976 517.645C49.4976 517.645 47.8326 519.28 47.8326 521.875C47.8326 524.485 49.5576 526.135 51.8976 526.135C53.9376 526.135 55.2576 524.965 55.6776 523.465ZM63.9794 526H65.3294V521.155C65.3294 518.8 63.8744 517.63 61.9694 517.63C60.8594 517.63 59.8694 518.095 59.3294 518.95V517.78H57.9644V526H59.3294V521.455C59.3294 519.685 60.2894 518.815 61.6844 518.815C63.0644 518.815 63.9794 519.67 63.9794 521.35V526ZM67.3691 521.86C67.3691 524.41 69.0641 526.135 71.2691 526.135C72.7691 526.135 73.8341 525.37 74.3291 524.455V526H75.7091V514.9H74.3291V519.25C73.7591 518.305 72.5741 517.645 71.2841 517.645C69.0641 517.645 67.3691 519.295 67.3691 521.86ZM74.3291 521.875C74.3291 523.81 73.0391 524.935 71.5391 524.935C70.0391 524.935 68.7641 523.795 68.7641 521.86C68.7641 519.925 70.0391 518.83 71.5391 518.83C73.0391 518.83 74.3291 519.97 74.3291 521.875ZM85.7748 524.44L83.1948 517.78H81.6798L84.9948 525.91L83.3748 529.87H84.7848L89.7348 517.78H88.3248L85.7748 524.44ZM99.227 521.875C99.227 519.28 97.412 517.645 95.072 517.645C92.747 517.645 90.917 519.28 90.917 521.875C90.917 524.485 92.687 526.135 95.012 526.135C97.352 526.135 99.227 524.485 99.227 521.875ZM92.312 521.875C92.312 519.805 93.617 518.83 95.057 518.83C96.467 518.83 97.832 519.805 97.832 521.875C97.832 523.96 96.437 524.935 95.012 524.935C93.587 524.935 92.312 523.96 92.312 521.875ZM108.632 517.78H107.267V522.295C107.267 524.065 106.322 524.935 104.912 524.935C103.532 524.935 102.617 524.08 102.617 522.415V517.78H101.267V522.595C101.267 524.95 102.752 526.12 104.642 526.12C105.737 526.12 106.742 525.64 107.267 524.785V526H108.632V517.78ZM116.94 519.295V517.78H115.575V529.9H116.94V524.485C117.45 525.325 118.515 526.135 120.015 526.135C122.22 526.135 123.915 524.41 123.915 521.86C123.915 519.295 122.22 517.645 120.015 517.645C118.515 517.645 117.435 518.425 116.94 519.295ZM122.52 521.86C122.52 523.795 121.245 524.935 119.73 524.935C118.245 524.935 116.94 523.81 116.94 521.875C116.94 519.97 118.245 518.83 119.73 518.83C121.245 518.83 122.52 519.925 122.52 521.86ZM129.527 518.8C130.937 518.8 132.137 519.685 132.122 521.29H126.932C127.082 519.685 128.192 518.8 129.527 518.8ZM133.367 523.465H131.897C131.597 524.35 130.817 524.98 129.587 524.98C128.192 524.98 127.022 524.065 126.917 522.4H133.487C133.517 522.115 133.532 521.875 133.532 521.575C133.532 519.325 131.972 517.645 129.587 517.645C127.187 517.645 125.522 519.28 125.522 521.875C125.522 524.485 127.247 526.135 129.587 526.135C131.627 526.135 132.947 524.965 133.367 523.465ZM137.019 521.53C137.019 519.625 138.009 519.04 139.314 519.04H139.674V517.63C138.369 517.63 137.484 518.2 137.019 519.115V517.78H135.654V526H137.019V521.53ZM147.48 523.765C147.42 520.825 142.65 521.89 142.65 519.94C142.65 519.28 143.25 518.8 144.255 518.8C145.35 518.8 145.98 519.4 146.04 520.225H147.405C147.315 518.62 146.115 517.645 144.3 517.645C142.47 517.645 141.285 518.68 141.285 519.94C141.285 523 146.145 521.935 146.145 523.765C146.145 524.44 145.545 524.98 144.465 524.98C143.31 524.98 142.605 524.38 142.53 523.585H141.12C141.21 525.085 142.56 526.135 144.48 526.135C146.295 526.135 147.48 525.115 147.48 523.765ZM157.527 521.875C157.527 519.28 155.712 517.645 153.372 517.645C151.047 517.645 149.217 519.28 149.217 521.875C149.217 524.485 150.987 526.135 153.312 526.135C155.652 526.135 157.527 524.485 157.527 521.875ZM150.612 521.875C150.612 519.805 151.917 518.83 153.357 518.83C154.767 518.83 156.132 519.805 156.132 521.875C156.132 523.96 154.737 524.935 153.312 524.935C151.887 524.935 150.612 523.96 150.612 521.875ZM165.656 526H167.006V521.155C167.006 518.8 165.551 517.63 163.646 517.63C162.536 517.63 161.546 518.095 161.006 518.95V517.78H159.641V526H161.006V521.455C161.006 519.685 161.966 518.815 163.361 518.815C164.741 518.815 165.656 519.67 165.656 521.35V526ZM169.046 521.86C169.046 524.41 170.741 526.135 172.931 526.135C174.446 526.135 175.511 525.355 176.006 524.47V526H177.386V517.78H176.006V519.28C175.526 518.425 174.476 517.645 172.946 517.645C170.741 517.645 169.046 519.295 169.046 521.86ZM176.006 521.875C176.006 523.81 174.716 524.935 173.216 524.935C171.716 524.935 170.441 523.795 170.441 521.86C170.441 519.925 171.716 518.83 173.216 518.83C174.716 518.83 176.006 519.97 176.006 521.875ZM180.013 526H181.378V514.9H180.013V526ZM194.358 526H195.708V521.155C195.708 518.8 194.253 517.63 192.348 517.63C191.238 517.63 190.248 518.095 189.708 518.95V517.78H188.343V526H189.708V521.455C189.708 519.685 190.668 518.815 192.063 518.815C193.443 518.815 194.358 519.67 194.358 521.35V526ZM201.753 518.8C203.163 518.8 204.363 519.685 204.348 521.29H199.158C199.308 519.685 200.418 518.8 201.753 518.8ZM205.593 523.465H204.123C203.823 524.35 203.043 524.98 201.813 524.98C200.418 524.98 199.248 524.065 199.143 522.4H205.713C205.743 522.115 205.758 521.875 205.758 521.575C205.758 519.325 204.198 517.645 201.813 517.645C199.413 517.645 197.748 519.28 197.748 521.875C197.748 524.485 199.473 526.135 201.813 526.135C203.853 526.135 205.173 524.965 205.593 523.465ZM209.485 526H210.895L212.875 519.475L214.855 526H216.265L218.83 517.78H217.48L215.62 524.695L213.625 517.78H212.23L210.19 524.68L208.3 517.78H206.905L209.485 526ZM226.414 523.765C226.354 520.825 221.584 521.89 221.584 519.94C221.584 519.28 222.184 518.8 223.189 518.8C224.284 518.8 224.914 519.4 224.974 520.225H226.339C226.249 518.62 225.049 517.645 223.234 517.645C221.404 517.645 220.219 518.68 220.219 519.94C220.219 523 225.079 521.935 225.079 523.765C225.079 524.44 224.479 524.98 223.399 524.98C222.244 524.98 221.539 524.38 221.464 523.585H220.054C220.144 525.085 221.494 526.135 223.414 526.135C225.229 526.135 226.414 525.115 226.414 523.765ZM232.47 521.86C232.47 524.41 234.165 526.135 236.355 526.135C237.87 526.135 238.935 525.355 239.43 524.47V526H240.81V517.78H239.43V519.28C238.95 518.425 237.9 517.645 236.37 517.645C234.165 517.645 232.47 519.295 232.47 521.86ZM239.43 521.875C239.43 523.81 238.14 524.935 236.64 524.935C235.14 524.935 233.865 523.795 233.865 521.86C233.865 519.925 235.14 518.83 236.64 518.83C238.14 518.83 239.43 519.97 239.43 521.875ZM249.452 526H250.802V521.155C250.802 518.8 249.347 517.63 247.442 517.63C246.332 517.63 245.342 518.095 244.802 518.95V517.78H243.437V526H244.802V521.455C244.802 519.685 245.762 518.815 247.157 518.815C248.537 518.815 249.452 519.67 249.452 521.35V526ZM252.842 521.86C252.842 524.41 254.537 526.135 256.742 526.135C258.242 526.135 259.307 525.37 259.802 524.455V526H261.182V514.9H259.802V519.25C259.232 518.305 258.047 517.645 256.757 517.645C254.537 517.645 252.842 519.295 252.842 521.86ZM259.802 521.875C259.802 523.81 258.512 524.935 257.012 524.935C255.512 524.935 254.237 523.795 254.237 521.86C254.237 519.925 255.512 518.83 257.012 518.83C258.512 518.83 259.802 519.97 259.802 521.875ZM275.417 517.78H274.052V522.295C274.052 524.065 273.107 524.935 271.697 524.935C270.317 524.935 269.402 524.08 269.402 522.415V517.78H268.052V522.595C268.052 524.95 269.537 526.12 271.427 526.12C272.522 526.12 273.527 525.64 274.052 524.785V526H275.417V517.78ZM279.407 519.295V517.78H278.042V529.9H279.407V524.485C279.917 525.325 280.982 526.135 282.482 526.135C284.687 526.135 286.382 524.41 286.382 521.86C286.382 519.295 284.687 517.645 282.482 517.645C280.982 517.645 279.902 518.425 279.407 519.295ZM284.987 521.86C284.987 523.795 283.712 524.935 282.197 524.935C280.712 524.935 279.407 523.81 279.407 521.875C279.407 519.97 280.712 518.83 282.197 518.83C283.712 518.83 284.987 519.925 284.987 521.86ZM287.989 521.86C287.989 524.41 289.684 526.135 291.889 526.135C293.389 526.135 294.454 525.37 294.949 524.455V526H296.329V514.9H294.949V519.25C294.379 518.305 293.194 517.645 291.904 517.645C289.684 517.645 287.989 519.295 287.989 521.86ZM294.949 521.875C294.949 523.81 293.659 524.935 292.159 524.935C290.659 524.935 289.384 523.795 289.384 521.86C289.384 519.925 290.659 518.83 292.159 518.83C293.659 518.83 294.949 519.97 294.949 521.875ZM298.446 521.86C298.446 524.41 300.141 526.135 302.331 526.135C303.846 526.135 304.911 525.355 305.406 524.47V526H306.786V517.78H305.406V519.28C304.926 518.425 303.876 517.645 302.346 517.645C300.141 517.645 298.446 519.295 298.446 521.86ZM305.406 521.875C305.406 523.81 304.116 524.935 302.616 524.935C301.116 524.935 299.841 523.795 299.841 521.86C299.841 519.925 301.116 518.83 302.616 518.83C304.116 518.83 305.406 519.97 305.406 521.875ZM309.712 523.75C309.712 525.4 310.537 526 311.992 526H313.222V524.845H312.217C311.377 524.845 311.077 524.56 311.077 523.75V518.905H313.222V517.78H311.077V515.71H309.712V517.78H308.647V518.905H309.712V523.75ZM318.691 518.8C320.101 518.8 321.301 519.685 321.286 521.29H316.096C316.246 519.685 317.356 518.8 318.691 518.8ZM322.531 523.465H321.061C320.761 524.35 319.981 524.98 318.751 524.98C317.356 524.98 316.186 524.065 316.081 522.4H322.651C322.681 522.115 322.696 521.875 322.696 521.575C322.696 519.325 321.136 517.645 318.751 517.645C316.351 517.645 314.686 519.28 314.686 521.875C314.686 524.485 316.411 526.135 318.751 526.135C320.791 526.135 322.111 524.965 322.531 523.465ZM330.728 523.765C330.668 520.825 325.898 521.89 325.898 519.94C325.898 519.28 326.498 518.8 327.503 518.8C328.598 518.8 329.228 519.4 329.288 520.225H330.653C330.563 518.62 329.363 517.645 327.548 517.645C325.718 517.645 324.533 518.68 324.533 519.94C324.533 523 329.393 521.935 329.393 523.765C329.393 524.44 328.793 524.98 327.713 524.98C326.558 524.98 325.853 524.38 325.778 523.585H324.368C324.458 525.085 325.808 526.135 327.728 526.135C329.543 526.135 330.728 525.115 330.728 523.765ZM334.31 525.16C334.31 524.635 333.905 524.23 333.41 524.23C332.885 524.23 332.48 524.635 332.48 525.16C332.48 525.685 332.885 526.09 333.41 526.09C333.905 526.09 334.31 525.685 334.31 525.16Z" fill="#667085"/>
<g clip-path="url(#clip1_13_9816)">
<rect x="95" y="565" width="185" height="50" rx="25" fill="url(#paint0_linear_13_9816)"/>
<path d="M174.351 595H176.571L172.806 584.515H170.361L166.596 595H168.801L169.491 593.005H173.661L174.351 595ZM173.091 591.325H170.061L171.576 586.945L173.091 591.325ZM178.298 595H180.398V583.9H178.298V595ZM182.793 595H184.893V583.9H182.793V595ZM195.313 590.845C195.313 588.22 193.438 586.555 191.038 586.555C188.638 586.555 186.763 588.22 186.763 590.845C186.763 593.455 188.578 595.135 190.978 595.135C193.393 595.135 195.313 593.455 195.313 590.845ZM188.893 590.845C188.893 589.18 189.898 588.385 191.008 588.385C192.118 588.385 193.153 589.18 193.153 590.845C193.153 592.495 192.088 593.305 190.978 593.305C189.853 593.305 188.893 592.495 188.893 590.845ZM198.688 595H200.968L202.483 589.195L203.998 595H206.263L208.693 586.69H206.683L205.213 593.005L203.653 586.69H201.433L199.843 593.02L198.373 586.69H196.243L198.688 595Z" fill="white"/>
</g>
<g clip-path="url(#clip2_13_9816)">
<rect x="95" y="635" width="185" height="50" rx="25" fill="white"/>
<path d="M160.134 659.765C160.134 662.9 162.429 665.09 165.354 665.09C167.619 665.09 169.419 663.965 170.199 661.955H168.564C167.994 663.2 166.884 663.905 165.354 663.905C163.164 663.905 161.529 662.315 161.529 659.765C161.529 657.2 163.164 655.61 165.354 655.61C166.884 655.61 167.994 656.315 168.564 657.575H170.199C169.419 655.55 167.619 654.41 165.354 654.41C162.429 654.41 160.134 656.63 160.134 659.765ZM172.04 660.86C172.04 663.41 173.735 665.135 175.925 665.135C177.44 665.135 178.505 664.355 179 663.47V665H180.38V656.78H179V658.28C178.52 657.425 177.47 656.645 175.94 656.645C173.735 656.645 172.04 658.295 172.04 660.86ZM179 660.875C179 662.81 177.71 663.935 176.21 663.935C174.71 663.935 173.435 662.795 173.435 660.86C173.435 658.925 174.71 657.83 176.21 657.83C177.71 657.83 179 658.97 179 660.875ZM189.022 665H190.372V660.155C190.372 657.8 188.917 656.63 187.012 656.63C185.902 656.63 184.912 657.095 184.372 657.95V656.78H183.007V665H184.372V660.455C184.372 658.685 185.332 657.815 186.727 657.815C188.107 657.815 189.022 658.67 189.022 660.35V665ZM192.412 660.875C192.412 663.485 194.077 665.135 196.417 665.135C198.457 665.135 199.792 663.995 200.212 662.36H198.742C198.442 663.395 197.632 663.98 196.417 663.98C194.917 663.98 193.807 662.915 193.807 660.875C193.807 658.865 194.917 657.8 196.417 657.8C197.632 657.8 198.457 658.43 198.742 659.42H200.212C199.792 657.695 198.457 656.645 196.417 656.645C194.077 656.645 192.412 658.295 192.412 660.875ZM205.848 657.8C207.258 657.8 208.458 658.685 208.443 660.29H203.253C203.403 658.685 204.513 657.8 205.848 657.8ZM209.688 662.465H208.218C207.918 663.35 207.138 663.98 205.908 663.98C204.513 663.98 203.343 663.065 203.238 661.4H209.808C209.838 661.115 209.853 660.875 209.853 660.575C209.853 658.325 208.293 656.645 205.908 656.645C203.508 656.645 201.843 658.28 201.843 660.875C201.843 663.485 203.568 665.135 205.908 665.135C207.948 665.135 209.268 663.965 209.688 662.465ZM211.975 665H213.34V653.9H211.975V665Z" fill="#667085"/>
</g>
<path fill-rule="evenodd" clip-rule="evenodd" d="M223.802 296.943L223.035 299.972L147.322 280.806L148.088 277.777C154.146 279.31 158.845 273.475 159.605 270.477L163.974 253.214C167.434 240.651 178.874 231.958 191.906 231.99C193.022 227.823 197.306 225.351 201.472 226.468C205.639 227.585 208.112 231.868 206.994 236.035C218.423 242.414 224.281 255.563 221.378 268.325L217.147 285.043C216.249 288.586 220.774 296.176 223.802 296.943Z" fill="#F1F2F7"/>
<path fill-rule="evenodd" clip-rule="evenodd" d="M171.57 290.167C172.297 297.897 179.152 303.575 186.882 302.849C191.092 302.454 194.901 300.184 197.253 296.668L171.57 290.167Z" fill="#FFDA3E"/>
<path fill-rule="evenodd" clip-rule="evenodd" d="M294.531 267.608C294.531 324.929 248.062 371.398 190.741 371.398C133.42 371.398 86.9521 324.929 86.9521 267.608C86.9521 210.287 133.42 163.818 190.741 163.818C248.062 163.818 294.531 210.287 294.531 267.608Z" stroke="#E9EAEC" stroke-dasharray="5.02 5.02"/>
<path fill-rule="evenodd" clip-rule="evenodd" d="M267.817 267.608C267.817 310.175 233.309 344.683 190.742 344.683C148.174 344.683 113.668 310.175 113.668 267.608C113.668 225.041 148.174 190.533 190.742 190.533C233.309 190.533 267.817 225.041 267.817 267.608Z" stroke="#E9EAEC" stroke-dasharray="5.05 5.05"/>
<path fill-rule="evenodd" clip-rule="evenodd" d="M263.76 196.572C265.256 196.572 266.466 197.781 266.466 199.278C266.466 200.775 265.256 201.984 263.76 201.984C262.263 201.984 261.053 200.775 261.053 199.278C261.053 197.781 262.263 196.572 263.76 196.572ZM271.878 196.572C273.375 196.572 274.584 197.781 274.584 199.278C274.584 200.775 273.375 201.984 271.878 201.984C270.381 201.984 269.172 200.775 269.172 199.278C269.172 197.781 270.381 196.572 271.878 196.572ZM279.996 196.572C281.493 196.572 282.702 197.781 282.702 199.278C282.702 200.775 281.493 201.984 279.996 201.984C278.499 201.984 277.29 200.775 277.29 199.278C277.29 197.781 278.499 196.572 279.996 196.572ZM260.732 214.162H273.646C274.864 214.162 274.864 214.171 275.447 214.602C276.031 215.033 282.695 219.574 282.695 219.574V214.162H283.007C286.575 214.162 289.459 211.473 289.459 208.124V190.458C289.459 187.109 286.568 184.394 283.007 184.394H260.732C257.172 184.394 254.28 187.109 254.28 190.458V208.124C254.28 211.473 257.172 214.162 260.732 214.162Z" fill="url(#paint1_linear_13_9816)"/>
<path fill-rule="evenodd" clip-rule="evenodd" d="M104.427 227.753C104.427 228.732 103.637 229.522 102.657 229.522C101.679 229.522 100.889 228.732 100.889 227.753C100.889 226.774 101.679 225.983 102.657 225.983C103.637 225.983 104.427 226.774 104.427 227.753ZM99.1185 227.753C99.1185 228.732 98.3275 229.522 97.3495 229.522C96.3705 229.522 95.5795 228.732 95.5795 227.753C95.5795 226.774 96.3705 225.983 97.3495 225.983C98.3275 225.983 99.1185 226.774 99.1185 227.753ZM93.8105 227.753C93.8105 228.732 93.0195 229.522 92.0405 229.522C91.0625 229.522 90.2715 228.732 90.2715 227.753C90.2715 226.774 91.0625 225.983 92.0405 225.983C93.0195 225.983 93.8105 226.774 93.8105 227.753ZM108.857 233.537V221.986C108.857 219.796 106.965 218.021 104.638 218.021H90.0725C87.7445 218.021 85.8535 219.796 85.8535 221.986V233.537C85.8535 235.726 87.7395 237.484 90.0725 237.484H90.2775V241.024C90.2775 241.024 94.6345 238.054 95.0155 237.772C95.3975 237.49 95.3975 237.484 96.1935 237.484H104.638C106.965 237.484 108.857 235.726 108.857 233.537Z" fill="url(#paint2_linear_13_9816)"/>
<path fill-rule="evenodd" clip-rule="evenodd" d="M171.576 290.185C172.303 297.915 179.158 303.593 186.888 302.867C191.098 302.472 194.907 300.202 197.259 296.686L171.576 290.185Z" fill="url(#paint3_linear_13_9816)"/>
<path fill-rule="evenodd" clip-rule="evenodd" d="M232.622 243.74C234.385 245.861 235.709 248.359 236.609 251.007C237.526 253.656 237.974 256.47 238.02 259.286C238.02 260.695 237.919 262.102 237.737 263.497C237.497 264.885 237.22 266.263 236.784 267.598C235.941 270.269 234.667 272.802 232.931 274.958C232.856 275.051 232.722 275.065 232.629 274.991C232.557 274.932 232.533 274.836 232.561 274.752C233.465 272.179 234.214 269.641 234.717 267.066C234.81 266.416 234.938 265.776 235.046 265.133C235.12 264.484 235.218 263.84 235.274 263.192C235.316 262.543 235.4 261.898 235.427 261.249C235.437 260.599 235.468 259.95 235.465 259.301C235.48 256.702 235.19 254.107 234.685 251.531C234.166 248.953 233.385 246.414 232.447 243.841C232.428 243.788 232.455 243.729 232.508 243.71C232.55 243.694 232.595 243.708 232.622 243.74Z" fill="url(#paint4_linear_13_9816)"/>
<path fill-rule="evenodd" clip-rule="evenodd" d="M242.552 244.641C244.254 246.602 245.536 248.928 246.429 251.397C247.324 253.869 247.841 256.495 247.933 259.137C248.033 261.778 247.711 264.433 247.005 266.962C246.3 269.49 245.201 271.906 243.651 273.988C243.641 274.001 243.622 274.004 243.61 273.995C243.6 273.987 243.596 273.974 243.599 273.963C244.241 271.457 244.779 269.019 245.105 266.568C245.431 264.118 245.538 261.669 245.447 259.229C245.347 256.79 245.052 254.359 244.533 251.946C244.016 249.53 243.285 247.146 242.452 244.699C242.442 244.668 242.458 244.635 242.489 244.624C242.512 244.616 242.537 244.623 242.552 244.641Z" fill="url(#paint5_linear_13_9816)"/>
<path fill-rule="evenodd" clip-rule="evenodd" d="M151.792 257.155C151.252 254.466 151.246 251.657 151.674 248.911C152.088 246.158 152.978 243.474 154.214 240.967C155.48 238.475 157.098 236.156 159.052 234.172C160.992 232.181 163.242 230.494 165.724 229.316C165.769 229.295 165.821 229.314 165.842 229.358C165.859 229.394 165.85 229.436 165.821 229.462C163.802 231.295 161.943 233.206 160.3 235.275C158.669 237.348 157.226 239.551 156.06 241.896C154.862 244.226 153.948 246.695 153.253 249.242C152.569 251.795 152.147 254.43 151.878 257.151C151.875 257.174 151.854 257.192 151.83 257.19C151.811 257.188 151.796 257.173 151.792 257.155Z" fill="url(#paint6_linear_13_9816)"/>
<path fill-rule="evenodd" clip-rule="evenodd" d="M143.315 251.839C142.804 249.314 142.795 246.683 143.166 244.107C143.549 241.531 144.314 239 145.443 236.643C146.56 234.282 148.002 232.073 149.737 230.138C151.464 228.2 153.46 226.506 155.684 225.226C153.868 227.034 152.2 228.92 150.745 230.948C149.295 232.978 148.034 235.119 147.012 237.371C146 239.626 145.188 241.968 144.609 244.385C144.014 246.801 143.657 249.28 143.4 251.835C143.397 251.858 143.377 251.875 143.352 251.873C143.334 251.871 143.318 251.857 143.315 251.839Z" fill="url(#paint7_linear_13_9816)"/>
<path fill-rule="evenodd" clip-rule="evenodd" d="M223.808 296.961C223.808 296.961 219.33 295.221 216.976 292.738C213.698 289.281 213.914 285.509 216.13 278.229C218.737 269.56 218.666 260.428 217.662 256.242C214.165 241.656 207 236.053 207 236.053C218.429 242.432 224.287 255.581 221.384 268.343L217.153 285.061C216.411 287.531 220.78 296.194 223.808 296.961L223.041 299.99L223.808 296.961Z" fill="#D8DBEA"/>
<path d="M67.345 281.582L65.418 281.523" stroke="#D2D8DF" stroke-linecap="round"/>
<path d="M65.9621 277.929L64.5801 279.22" stroke="#D2D8DF" stroke-linecap="round"/>
<path d="M62.3601 276.26L62.3311 278.144" stroke="#D2D8DF" stroke-linecap="round"/>
<path d="M58.6484 277.554L59.9904 278.928" stroke="#D2D8DF" stroke-linecap="round"/>
<path d="M57 281.052L58.926 281.111" stroke="#D2D8DF" stroke-linecap="round"/>
<path d="M58.3818 284.706L59.7648 283.415" stroke="#D2D8DF" stroke-linecap="round"/>
<path d="M61.9844 286.375L62.0134 284.491" stroke="#D2D8DF" stroke-linecap="round"/>
<path d="M65.6965 285.081L64.3545 283.707" stroke="#D2D8DF" stroke-linecap="round"/>
<path d="M318.648 254.722L317.801 255.639" stroke="#D2D8DF" stroke-linecap="round"/>
<path d="M314.671 255.519L315.31 256.108" stroke="#D2D8DF" stroke-linecap="round"/>
<path d="M314.026 259.584L314.873 258.667" stroke="#D2D8DF" stroke-linecap="round"/>
<path d="M318.002 258.787L317.364 258.198" stroke="#D2D8DF" stroke-linecap="round"/>
<path d="M241.07 146.947L239.021 146.892" stroke="#D2D8DF" stroke-linecap="round"/>
<path d="M235.768 142L235.737 143.751" stroke="#D2D8DF" stroke-linecap="round"/>
<path d="M230.066 146.454L232.115 146.508" stroke="#D2D8DF" stroke-linecap="round"/>
<path d="M235.368 151.401L235.399 149.65" stroke="#D2D8DF" stroke-linecap="round"/>
<path fill-rule="evenodd" clip-rule="evenodd" d="M89.3371 336.006C87.8631 336.447 85.4081 338.613 84.5681 341.181C84.4271 338.795 82.9121 335.796 81.2451 335.364C83.2791 334.645 85.4821 332.002 86.0681 329.775C85.9621 332.109 88.0811 335.498 89.3371 336.006Z" fill="#EBECEF"/>
<path fill-rule="evenodd" clip-rule="evenodd" d="M123.86 156.326C122.723 156.527 120.708 157.927 119.86 159.767C119.961 157.978 119.092 155.613 117.888 155.147C119.465 154.787 121.335 153.009 121.964 151.401C121.683 153.131 122.968 155.839 123.86 156.326Z" fill="#EBECEF"/>
<path fill-rule="evenodd" clip-rule="evenodd" d="M274.56 169.317C273.041 169.284 271.837 168.027 271.871 166.509C271.904 164.991 273.161 163.787 274.678 163.82C276.197 163.853 277.401 165.11 277.368 166.628C277.334 168.146 276.078 169.35 274.56 169.317Z" fill="#D1D9E0"/>
<path fill-rule="evenodd" clip-rule="evenodd" d="M274.566 349.469C273.245 349.441 272.197 348.346 272.225 347.025C272.253 345.703 273.348 344.655 274.67 344.683C275.992 344.712 277.04 345.806 277.011 347.128C276.982 348.449 275.888 349.498 274.566 349.469Z" fill="#EBECEF"/>
<path fill-rule="evenodd" clip-rule="evenodd" d="M75.8224 205.803C75.0044 205.785 74.3554 205.108 74.3734 204.289C74.3904 203.471 75.0684 202.823 75.8864 202.84C76.7044 202.858 77.3534 203.535 77.3364 204.353C77.3184 205.172 76.6404 205.821 75.8224 205.803Z" stroke="#D2D8DF" stroke-linecap="round"/>
</g>
<defs>
<linearGradient id="paint0_linear_13_9816" x1="187.5" y1="540" x2="162.313" y2="633.193" gradientUnits="userSpaceOnUse">
<stop stop-color="#FF8960"/>
<stop offset="1" stop-color="#FF62A5"/>
</linearGradient>
<linearGradient id="paint1_linear_13_9816" x1="254.28" y1="184.394" x2="254.28" y2="219.574" gradientUnits="userSpaceOnUse">
<stop stop-color="#FAD961"/>
<stop offset="1" stop-color="#F76B1C"/>
</linearGradient>
<linearGradient id="paint2_linear_13_9816" x1="97.355" y1="206.52" x2="74.352" y2="229.523" gradientUnits="userSpaceOnUse">
<stop stop-color="#FF8960"/>
<stop offset="1" stop-color="#FF62A5"/>
</linearGradient>
<linearGradient id="paint3_linear_13_9816" x1="184.418" y1="283.812" x2="174.268" y2="304.265" gradientUnits="userSpaceOnUse">
<stop stop-color="#FF8960"/>
<stop offset="1" stop-color="#FF62A5"/>
</linearGradient>
<linearGradient id="paint4_linear_13_9816" x1="235.231" y1="228.036" x2="224.416" y2="229.962" gradientUnits="userSpaceOnUse">
<stop stop-color="#FF8960"/>
<stop offset="1" stop-color="#FF62A5"/>
</linearGradient>
<linearGradient id="paint5_linear_13_9816" x1="245.2" y1="229.931" x2="234.569" y2="231.922" gradientUnits="userSpaceOnUse">
<stop stop-color="#FF8960"/>
<stop offset="1" stop-color="#FF62A5"/>
</linearGradient>
<linearGradient id="paint6_linear_13_9816" x1="158.609" y1="215.366" x2="135.799" y2="227.214" gradientUnits="userSpaceOnUse">
<stop stop-color="#FF8960"/>
<stop offset="1" stop-color="#FF62A5"/>
</linearGradient>
<linearGradient id="paint7_linear_13_9816" x1="149.296" y1="211.903" x2="128.519" y2="221.865" gradientUnits="userSpaceOnUse">
<stop stop-color="#FF8960"/>
<stop offset="1" stop-color="#FF62A5"/>
</linearGradient>
<clipPath id="clip0_13_9816">
<rect width="375" height="812" fill="white"/>
</clipPath>
<clipPath id="clip1_13_9816">
<rect width="185" height="50" fill="white" transform="translate(95 565)"/>
</clipPath>
<clipPath id="clip2_13_9816">
<rect width="185" height="50" fill="white" transform="translate(95 635)"/>
</clipPath>
</defs>
</svg>
