<svg width="375" height="812" viewBox="0 0 375 812" fill="none" xmlns="http://www.w3.org/2000/svg">
<g clip-path="url(#clip0_13_9704)">
<rect width="375" height="812" fill="white"/>
<path d="M48.7715 495.168V501H52.1315V495.168L57.7955 484.248H54.0515L50.4755 491.904L46.8755 484.248H43.0835L48.7715 495.168ZM72.8933 494.352C72.8933 490.152 69.8933 487.488 66.0533 487.488C62.2133 487.488 59.2133 490.152 59.2133 494.352C59.2133 498.528 62.1173 501.216 65.9573 501.216C69.8213 501.216 72.8933 498.528 72.8933 494.352ZM62.6213 494.352C62.6213 491.688 64.2293 490.416 66.0053 490.416C67.7813 490.416 69.4373 491.688 69.4373 494.352C69.4373 496.992 67.7333 498.288 65.9573 498.288C64.1573 498.288 62.6213 496.992 62.6213 494.352ZM88.23 487.704H84.846V495.024C84.846 497.16 83.694 498.312 81.87 498.312C80.094 498.312 78.918 497.16 78.918 495.024V487.704H75.558V495.504C75.558 499.152 77.79 501.168 80.886 501.168C82.542 501.168 84.006 500.448 84.846 499.32V501H88.23V487.704ZM91.4092 486.936H93.6892L93.9772 481.848H91.0972L91.4092 486.936ZM95.4567 487.704L100.353 501H104.433L109.353 487.704H105.777L102.417 497.904L99.0567 487.704H95.4567ZM117.272 490.248C119 490.248 120.392 491.352 120.44 493.104H114.128C114.392 491.28 115.664 490.248 117.272 490.248ZM123.584 496.824H119.96C119.528 497.712 118.736 498.432 117.296 498.432C115.616 498.432 114.272 497.328 114.104 495.36H123.824C123.896 494.928 123.92 494.496 123.92 494.064C123.92 490.104 121.208 487.488 117.368 487.488C113.432 487.488 110.696 490.152 110.696 494.352C110.696 498.528 113.504 501.216 117.368 501.216C120.656 501.216 122.864 499.272 123.584 496.824ZM131.867 494.304C131.867 498.456 134.555 501.216 137.939 501.216C140.027 501.216 141.539 500.184 142.331 499.032V501.096C142.331 503.568 140.891 504.624 139.043 504.624C137.363 504.624 136.115 503.832 135.779 502.632H132.443C132.779 505.68 135.395 507.552 139.139 507.552C143.507 507.552 145.715 504.696 145.715 501.096V487.704H142.331V489.6C141.539 488.448 140.027 487.488 137.939 487.488C134.555 487.488 131.867 490.152 131.867 494.304ZM142.331 494.352C142.331 496.872 140.651 498.264 138.803 498.264C137.003 498.264 135.299 496.824 135.299 494.304C135.299 491.784 137.003 490.44 138.803 490.44C140.651 490.44 142.331 491.832 142.331 494.352ZM162.157 494.352C162.157 490.152 159.157 487.488 155.317 487.488C151.477 487.488 148.477 490.152 148.477 494.352C148.477 498.528 151.381 501.216 155.221 501.216C159.085 501.216 162.157 498.528 162.157 494.352ZM151.885 494.352C151.885 491.688 153.493 490.416 155.269 490.416C157.045 490.416 158.701 491.688 158.701 494.352C158.701 496.992 156.997 498.288 155.221 498.288C153.421 498.288 151.885 496.992 151.885 494.352ZM165.469 496.872C165.469 499.92 167.173 501 169.717 501H171.829V498.168H170.269C169.213 498.168 168.853 497.784 168.853 496.896V490.464H171.829V487.704H168.853V484.416H165.469V487.704H163.885V490.464H165.469V496.872ZM189.917 501H193.277V493.2C193.277 489.528 191.069 487.512 187.973 487.512C186.269 487.512 184.829 488.232 183.965 489.36V487.704H180.605V501H183.965V493.656C183.965 491.52 185.141 490.368 186.965 490.368C188.741 490.368 189.917 491.52 189.917 493.656V501ZM209.632 494.352C209.632 490.152 206.632 487.488 202.792 487.488C198.952 487.488 195.952 490.152 195.952 494.352C195.952 498.528 198.856 501.216 202.696 501.216C206.56 501.216 209.632 498.528 209.632 494.352ZM199.36 494.352C199.36 491.688 200.968 490.416 202.744 490.416C204.52 490.416 206.176 491.688 206.176 494.352C206.176 496.992 204.472 498.288 202.696 498.288C200.896 498.288 199.36 496.992 199.36 494.352ZM237.056 501H240.416V493.2C240.416 489.528 238.16 487.512 234.968 487.512C233.024 487.512 231.272 488.544 230.408 490.056C229.496 488.4 227.792 487.512 225.728 487.512C224.072 487.512 222.656 488.208 221.816 489.312V487.704H218.456V501H221.816V493.656C221.816 491.544 222.992 490.44 224.816 490.44C226.592 490.44 227.768 491.544 227.768 493.656V501H231.128V493.656C231.128 491.544 232.304 490.44 234.104 490.44C235.88 490.44 237.056 491.544 237.056 493.656V501ZM249.636 490.248C251.364 490.248 252.756 491.352 252.804 493.104H246.492C246.756 491.28 248.028 490.248 249.636 490.248ZM255.948 496.824H252.324C251.892 497.712 251.1 498.432 249.66 498.432C247.98 498.432 246.636 497.328 246.468 495.36H256.188C256.26 494.928 256.284 494.496 256.284 494.064C256.284 490.104 253.572 487.488 249.732 487.488C245.796 487.488 243.06 490.152 243.06 494.352C243.06 498.528 245.868 501.216 249.732 501.216C253.02 501.216 255.228 499.272 255.948 496.824ZM269.376 497.208C269.28 492.336 261.912 493.848 261.912 491.424C261.912 490.656 262.56 490.152 263.808 490.152C265.128 490.152 265.944 490.848 266.04 491.88H269.256C269.064 489.24 267.12 487.488 263.904 487.488C260.616 487.488 258.648 489.264 258.648 491.472C258.648 496.344 266.16 494.832 266.16 497.208C266.16 497.976 265.44 498.576 264.12 498.576C262.776 498.576 261.84 497.808 261.72 496.8H258.336C258.48 499.272 260.808 501.216 264.144 501.216C267.384 501.216 269.376 499.488 269.376 497.208ZM282.775 497.208C282.679 492.336 275.311 493.848 275.311 491.424C275.311 490.656 275.959 490.152 277.207 490.152C278.527 490.152 279.343 490.848 279.439 491.88H282.655C282.463 489.24 280.519 487.488 277.303 487.488C274.015 487.488 272.047 489.264 272.047 491.472C272.047 496.344 279.559 494.832 279.559 497.208C279.559 497.976 278.839 498.576 277.519 498.576C276.175 498.576 275.239 497.808 275.119 496.8H271.735C271.879 499.272 274.207 501.216 277.543 501.216C280.783 501.216 282.775 499.488 282.775 497.208ZM284.989 494.304C284.989 498.456 287.677 501.216 291.037 501.216C293.149 501.216 294.661 500.208 295.453 499.056V501H298.837V487.704H295.453V489.6C294.661 488.496 293.197 487.488 291.061 487.488C287.677 487.488 284.989 490.152 284.989 494.304ZM295.453 494.352C295.453 496.872 293.773 498.264 291.925 498.264C290.125 498.264 288.421 496.824 288.421 494.304C288.421 491.784 290.125 490.44 291.925 490.44C293.773 490.44 295.453 491.832 295.453 494.352ZM301.574 494.304C301.574 498.456 304.262 501.216 307.646 501.216C309.734 501.216 311.246 500.184 312.038 499.032V501.096C312.038 503.568 310.598 504.624 308.75 504.624C307.07 504.624 305.822 503.832 305.486 502.632H302.15C302.486 505.68 305.102 507.552 308.846 507.552C313.214 507.552 315.422 504.696 315.422 501.096V487.704H312.038V489.6C311.246 488.448 309.734 487.488 307.646 487.488C304.262 487.488 301.574 490.152 301.574 494.304ZM312.038 494.352C312.038 496.872 310.358 498.264 308.51 498.264C306.71 498.264 305.006 496.824 305.006 494.304C305.006 491.784 306.71 490.44 308.51 490.44C310.358 490.44 312.038 491.832 312.038 494.352ZM324.736 490.248C326.464 490.248 327.856 491.352 327.904 493.104H321.592C321.856 491.28 323.128 490.248 324.736 490.248ZM331.048 496.824H327.424C326.992 497.712 326.2 498.432 324.76 498.432C323.08 498.432 321.736 497.328 321.568 495.36H331.288C331.36 494.928 331.384 494.496 331.384 494.064C331.384 490.104 328.672 487.488 324.832 487.488C320.896 487.488 318.16 490.152 318.16 494.352C318.16 498.528 320.968 501.216 324.832 501.216C328.12 501.216 330.328 499.272 331.048 496.824Z" fill="#101828"/>
<path d="M34.9155 527.53V535.84L29.4255 527.53H28.0605V538H29.4255V529.675L34.9155 538H36.2805V527.53H34.9155ZM46.7274 533.875C46.7274 531.28 44.9124 529.645 42.5724 529.645C40.2474 529.645 38.4174 531.28 38.4174 533.875C38.4174 536.485 40.1874 538.135 42.5124 538.135C44.8524 538.135 46.7274 536.485 46.7274 533.875ZM39.8124 533.875C39.8124 531.805 41.1174 530.83 42.5574 530.83C43.9674 530.83 45.3324 531.805 45.3324 533.875C45.3324 535.96 43.9374 536.935 42.5124 536.935C41.0874 536.935 39.8124 535.96 39.8124 533.875ZM65.0261 538H66.3761V533.155C66.3761 530.8 64.9211 529.63 63.0461 529.63C61.7861 529.63 60.6161 530.275 60.1361 531.46C59.5961 530.23 58.4711 529.63 57.1211 529.63C56.0411 529.63 55.0661 530.095 54.5261 530.965V529.78H53.1611V538H54.5261V533.47C54.5261 531.7 55.4711 530.815 56.8511 530.815C58.2011 530.815 59.1011 531.67 59.1011 533.35V538H60.4511V533.47C60.4511 531.7 61.3961 530.815 62.7761 530.815C64.1261 530.815 65.0261 531.67 65.0261 533.35V538ZM72.4302 530.8C73.8402 530.8 75.0402 531.685 75.0252 533.29H69.8352C69.9852 531.685 71.0952 530.8 72.4302 530.8ZM76.2702 535.465H74.8002C74.5002 536.35 73.7202 536.98 72.4902 536.98C71.0952 536.98 69.9252 536.065 69.8202 534.4H76.3902C76.4202 534.115 76.4352 533.875 76.4352 533.575C76.4352 531.325 74.8752 529.645 72.4902 529.645C70.0902 529.645 68.4252 531.28 68.4252 533.875C68.4252 536.485 70.1502 538.135 72.4902 538.135C74.5302 538.135 75.8502 536.965 76.2702 535.465ZM84.467 535.765C84.407 532.825 79.637 533.89 79.637 531.94C79.637 531.28 80.237 530.8 81.242 530.8C82.337 530.8 82.967 531.4 83.027 532.225H84.392C84.302 530.62 83.102 529.645 81.287 529.645C79.457 529.645 78.272 530.68 78.272 531.94C78.272 535 83.132 533.935 83.132 535.765C83.132 536.44 82.532 536.98 81.452 536.98C80.297 536.98 79.592 536.38 79.517 535.585H78.107C78.197 537.085 79.547 538.135 81.467 538.135C83.282 538.135 84.467 537.115 84.467 535.765ZM92.6239 535.765C92.5639 532.825 87.7939 533.89 87.7939 531.94C87.7939 531.28 88.3939 530.8 89.3989 530.8C90.4939 530.8 91.1239 531.4 91.1839 532.225H92.5489C92.4589 530.62 91.2589 529.645 89.4439 529.645C87.6139 529.645 86.4289 530.68 86.4289 531.94C86.4289 535 91.2889 533.935 91.2889 535.765C91.2889 536.44 90.6889 536.98 89.6089 536.98C88.4539 536.98 87.7489 536.38 87.6739 535.585H86.2639C86.3539 537.085 87.7039 538.135 89.6239 538.135C91.4389 538.135 92.6239 537.115 92.6239 535.765ZM94.3608 533.86C94.3608 536.41 96.0558 538.135 98.2458 538.135C99.7608 538.135 100.826 537.355 101.321 536.47V538H102.701V529.78H101.321V531.28C100.841 530.425 99.7908 529.645 98.2608 529.645C96.0558 529.645 94.3608 531.295 94.3608 533.86ZM101.321 533.875C101.321 535.81 100.031 536.935 98.5308 536.935C97.0308 536.935 95.7558 535.795 95.7558 533.86C95.7558 531.925 97.0308 530.83 98.5308 530.83C100.031 530.83 101.321 531.97 101.321 533.875ZM104.818 533.86C104.818 536.41 106.513 538.135 108.718 538.135C110.218 538.135 111.283 537.34 111.778 536.455V538.18C111.778 539.935 110.683 540.865 109.228 540.865C107.878 540.865 106.903 540.19 106.603 539.2H105.253C105.523 540.955 107.068 542.05 109.228 542.05C111.643 542.05 113.158 540.445 113.158 538.18V529.78H111.778V531.28C111.298 530.395 110.218 529.645 108.718 529.645C106.513 529.645 104.818 531.295 104.818 533.86ZM111.778 533.875C111.778 535.81 110.488 536.935 108.988 536.935C107.488 536.935 106.213 535.795 106.213 533.86C106.213 531.925 107.488 530.83 108.988 530.83C110.488 530.83 111.778 531.97 111.778 533.875ZM119.279 530.8C120.689 530.8 121.889 531.685 121.874 533.29H116.684C116.834 531.685 117.944 530.8 119.279 530.8ZM123.119 535.465H121.649C121.349 536.35 120.569 536.98 119.339 536.98C117.944 536.98 116.774 536.065 116.669 534.4H123.239C123.269 534.115 123.284 533.875 123.284 533.575C123.284 531.325 121.724 529.645 119.339 529.645C116.939 529.645 115.274 531.28 115.274 533.875C115.274 536.485 116.999 538.135 119.339 538.135C121.379 538.135 122.699 536.965 123.119 535.465ZM131.316 535.765C131.256 532.825 126.486 533.89 126.486 531.94C126.486 531.28 127.086 530.8 128.091 530.8C129.186 530.8 129.816 531.4 129.876 532.225H131.241C131.151 530.62 129.951 529.645 128.136 529.645C126.306 529.645 125.121 530.68 125.121 531.94C125.121 535 129.981 533.935 129.981 535.765C129.981 536.44 129.381 536.98 128.301 536.98C127.146 536.98 126.441 536.38 126.366 535.585H124.956C125.046 537.085 126.396 538.135 128.316 538.135C130.131 538.135 131.316 537.115 131.316 535.765ZM137.882 538H139.247V529.78H137.882V538ZM138.587 528.445C139.082 528.445 139.487 528.04 139.487 527.515C139.487 526.99 139.082 526.585 138.587 526.585C138.062 526.585 137.657 526.99 137.657 527.515C137.657 528.04 138.062 528.445 138.587 528.445ZM147.908 538H149.258V533.155C149.258 530.8 147.803 529.63 145.898 529.63C144.788 529.63 143.798 530.095 143.258 530.95V529.78H141.893V538H143.258V533.455C143.258 531.685 144.218 530.815 145.613 530.815C146.993 530.815 147.908 531.67 147.908 533.35V538ZM159.247 536.44L156.667 529.78H155.152L158.467 537.91L156.847 541.87H158.257L163.207 529.78H161.797L159.247 536.44ZM172.699 533.875C172.699 531.28 170.884 529.645 168.544 529.645C166.219 529.645 164.389 531.28 164.389 533.875C164.389 536.485 166.159 538.135 168.484 538.135C170.824 538.135 172.699 536.485 172.699 533.875ZM165.784 533.875C165.784 531.805 167.089 530.83 168.529 530.83C169.939 530.83 171.304 531.805 171.304 533.875C171.304 535.96 169.909 536.935 168.484 536.935C167.059 536.935 165.784 535.96 165.784 533.875ZM182.104 529.78H180.739V534.295C180.739 536.065 179.794 536.935 178.384 536.935C177.004 536.935 176.089 536.08 176.089 534.415V529.78H174.739V534.595C174.739 536.95 176.224 538.12 178.114 538.12C179.209 538.12 180.214 537.64 180.739 536.785V538H182.104V529.78ZM186.094 533.53C186.094 531.625 187.084 531.04 188.389 531.04H188.749V529.63C187.444 529.63 186.559 530.2 186.094 531.115V529.78H184.729V538H186.094V533.53ZM194.963 538H196.328V529.78H194.963V538ZM195.668 528.445C196.163 528.445 196.568 528.04 196.568 527.515C196.568 526.99 196.163 526.585 195.668 526.585C195.143 526.585 194.738 526.99 194.738 527.515C194.738 528.04 195.143 528.445 195.668 528.445ZM204.99 538H206.34V533.155C206.34 530.8 204.885 529.63 202.98 529.63C201.87 529.63 200.88 530.095 200.34 530.95V529.78H198.975V538H200.34V533.455C200.34 531.685 201.3 530.815 202.695 530.815C204.075 530.815 204.99 531.67 204.99 533.35V538ZM210.255 531.31V526.9H208.89V538H210.255V536.485C210.765 537.385 211.83 538.135 213.33 538.135C215.535 538.135 217.23 536.41 217.23 533.86C217.23 531.295 215.55 529.645 213.33 529.645C211.875 529.645 210.78 530.395 210.255 531.31ZM215.835 533.86C215.835 535.795 214.56 536.935 213.045 536.935C211.56 536.935 210.255 535.81 210.255 533.875C210.255 531.97 211.56 530.83 213.045 530.83C214.56 530.83 215.835 531.925 215.835 533.86ZM227.146 533.875C227.146 531.28 225.331 529.645 222.991 529.645C220.666 529.645 218.836 531.28 218.836 533.875C218.836 536.485 220.606 538.135 222.931 538.135C225.271 538.135 227.146 536.485 227.146 533.875ZM220.231 533.875C220.231 531.805 221.536 530.83 222.976 530.83C224.386 530.83 225.751 531.805 225.751 533.875C225.751 535.96 224.356 536.935 222.931 536.935C221.506 536.935 220.231 535.96 220.231 533.875ZM233.551 538H235.096L232.441 533.845L235.081 529.78H233.656L231.796 532.825L229.846 529.78H228.301L230.956 533.92L228.301 538H229.726L231.601 534.94L233.551 538ZM235.574 540.145H236.489L238.169 536.11H236.669L235.574 540.145ZM245.106 528.445C245.616 528.445 246.021 528.04 246.021 527.515C246.021 526.99 245.616 526.585 245.106 526.585C244.596 526.585 244.191 526.99 244.191 527.515C244.191 528.04 244.596 528.445 245.106 528.445ZM244.416 529.78V539.755C244.416 540.475 244.131 540.745 243.381 540.745H242.811V541.9H243.606C245.001 541.9 245.781 541.27 245.781 539.785V529.78H244.416ZM255.702 529.78H254.337V534.295C254.337 536.065 253.392 536.935 251.982 536.935C250.602 536.935 249.687 536.08 249.687 534.415V529.78H248.337V534.595C248.337 536.95 249.822 538.12 251.712 538.12C252.807 538.12 253.812 537.64 254.337 536.785V538H255.702V529.78ZM264.237 535.765C264.177 532.825 259.407 533.89 259.407 531.94C259.407 531.28 260.007 530.8 261.012 530.8C262.107 530.8 262.737 531.4 262.797 532.225H264.162C264.072 530.62 262.872 529.645 261.057 529.645C259.227 529.645 258.042 530.68 258.042 531.94C258.042 535 262.902 533.935 262.902 535.765C262.902 536.44 262.302 536.98 261.222 536.98C260.067 536.98 259.362 536.38 259.287 535.585H257.877C257.967 537.085 259.317 538.135 261.237 538.135C263.052 538.135 264.237 537.115 264.237 535.765ZM266.784 535.75C266.784 537.4 267.609 538 269.064 538H270.294V536.845H269.289C268.449 536.845 268.149 536.56 268.149 535.75V530.905H270.294V529.78H268.149V527.71H266.784V529.78H265.719V530.905H266.784V535.75ZM276.587 538H277.952V526.9H276.587V538ZM280.598 538H281.963V529.78H280.598V538ZM281.303 528.445C281.798 528.445 282.203 528.04 282.203 527.515C282.203 526.99 281.798 526.585 281.303 526.585C280.778 526.585 280.373 526.99 280.373 527.515C280.373 528.04 280.778 528.445 281.303 528.445ZM284.609 538H285.974V534.37L289.199 538H291.059L287.174 533.875L291.044 529.78H289.139L285.974 533.425V526.9H284.609V538ZM296.144 530.8C297.554 530.8 298.754 531.685 298.739 533.29H293.549C293.699 531.685 294.809 530.8 296.144 530.8ZM299.984 535.465H298.514C298.214 536.35 297.434 536.98 296.204 536.98C294.809 536.98 293.639 536.065 293.534 534.4H300.104C300.134 534.115 300.149 533.875 300.149 533.575C300.149 531.325 298.589 529.645 296.204 529.645C293.804 529.645 292.139 531.28 292.139 533.875C292.139 536.485 293.864 538.135 296.204 538.135C298.244 538.135 299.564 536.965 299.984 535.465ZM310.085 530.8C311.495 530.8 312.695 531.685 312.68 533.29H307.49C307.64 531.685 308.75 530.8 310.085 530.8ZM313.925 535.465H312.455C312.155 536.35 311.375 536.98 310.145 536.98C308.75 536.98 307.58 536.065 307.475 534.4H314.045C314.075 534.115 314.09 533.875 314.09 533.575C314.09 531.325 312.53 529.645 310.145 529.645C307.745 529.645 306.08 531.28 306.08 533.875C306.08 536.485 307.805 538.135 310.145 538.135C312.185 538.135 313.505 536.965 313.925 535.465ZM315.237 529.78L318.462 538H320.052L323.277 529.78H321.822L319.272 536.74L316.707 529.78H315.237ZM328.435 530.8C329.845 530.8 331.045 531.685 331.03 533.29H325.84C325.99 531.685 327.1 530.8 328.435 530.8ZM332.275 535.465H330.805C330.505 536.35 329.725 536.98 328.495 536.98C327.1 536.98 325.93 536.065 325.825 534.4H332.395C332.425 534.115 332.44 533.875 332.44 533.575C332.44 531.325 330.88 529.645 328.495 529.645C326.095 529.645 324.43 531.28 324.43 533.875C324.43 536.485 326.155 538.135 328.495 538.135C330.535 538.135 331.855 536.965 332.275 535.465ZM335.927 533.53C335.927 531.625 336.917 531.04 338.222 531.04H338.582V529.63C337.277 529.63 336.392 530.2 335.927 531.115V529.78H334.562V538H335.927V533.53ZM343.597 536.44L341.017 529.78H339.502L342.817 537.91L341.197 541.87H342.607L347.557 529.78H346.147L343.597 536.44ZM78.1736 556.875C78.1736 554.28 76.3586 552.645 74.0186 552.645C71.6936 552.645 69.8636 554.28 69.8636 556.875C69.8636 559.485 71.6336 561.135 73.9586 561.135C76.2986 561.135 78.1736 559.485 78.1736 556.875ZM71.2586 556.875C71.2586 554.805 72.5636 553.83 74.0036 553.83C75.4136 553.83 76.7786 554.805 76.7786 556.875C76.7786 558.96 75.3836 559.935 73.9586 559.935C72.5336 559.935 71.2586 558.96 71.2586 556.875ZM80.5883 558.75C80.5883 560.4 81.4133 561 82.8683 561H84.0983V559.845H83.0933C82.2533 559.845 81.9533 559.56 81.9533 558.75V553.905H84.0983V552.78H81.9533V550.71H80.5883V552.78H79.5233V553.905H80.5883V558.75ZM86.0721 561H87.4371V556.455C87.4371 554.685 88.3971 553.815 89.7921 553.815C91.1721 553.815 92.0871 554.67 92.0871 556.35V561H93.4371V556.155C93.4371 553.8 91.9821 552.63 90.1521 552.63C88.9971 552.63 87.9771 553.095 87.4371 553.965V549.9H86.0721V561ZM99.4819 553.8C100.892 553.8 102.092 554.685 102.077 556.29H96.8869C97.0369 554.685 98.1469 553.8 99.4819 553.8ZM103.322 558.465H101.852C101.552 559.35 100.772 559.98 99.5419 559.98C98.1469 559.98 96.9769 559.065 96.8719 557.4H103.442C103.472 557.115 103.487 556.875 103.487 556.575C103.487 554.325 101.927 552.645 99.5419 552.645C97.1419 552.645 95.4769 554.28 95.4769 556.875C95.4769 559.485 97.2019 561.135 99.5419 561.135C101.582 561.135 102.902 559.965 103.322 558.465ZM106.974 556.53C106.974 554.625 107.964 554.04 109.269 554.04H109.629V552.63C108.324 552.63 107.439 553.2 106.974 554.115V552.78H105.609V561H106.974V556.53ZM115.333 556.86C115.333 559.41 117.028 561.135 119.233 561.135C120.733 561.135 121.798 560.37 122.293 559.455V561H123.673V549.9H122.293V554.25C121.723 553.305 120.538 552.645 119.248 552.645C117.028 552.645 115.333 554.295 115.333 556.86ZM122.293 556.875C122.293 558.81 121.003 559.935 119.503 559.935C118.003 559.935 116.728 558.795 116.728 556.86C116.728 554.925 118.003 553.83 119.503 553.83C121.003 553.83 122.293 554.97 122.293 556.875ZM125.79 556.86C125.79 559.41 127.485 561.135 129.675 561.135C131.19 561.135 132.255 560.355 132.75 559.47V561H134.13V552.78H132.75V554.28C132.27 553.425 131.22 552.645 129.69 552.645C127.485 552.645 125.79 554.295 125.79 556.86ZM132.75 556.875C132.75 558.81 131.46 559.935 129.96 559.935C128.46 559.935 127.185 558.795 127.185 556.86C127.185 554.925 128.46 553.83 129.96 553.83C131.46 553.83 132.75 554.97 132.75 556.875ZM139.877 559.44L137.297 552.78H135.782L139.097 560.91L137.477 564.87H138.887L143.837 552.78H142.427L139.877 559.44ZM146.864 560.16C146.864 559.635 146.459 559.23 145.964 559.23C145.439 559.23 145.034 559.635 145.034 560.16C145.034 560.685 145.439 561.09 145.964 561.09C146.459 561.09 146.864 560.685 146.864 560.16ZM158.057 550.425C155.117 550.425 152.807 552.63 152.807 555.765C152.807 558.9 155.117 561.09 158.057 561.09C160.892 561.09 162.947 559.005 163.187 556.41V555.36H157.562V556.47H161.732C161.522 558.54 160.112 559.86 158.057 559.86C155.852 559.86 154.202 558.27 154.202 555.765C154.202 553.245 155.852 551.655 158.057 551.655C159.527 551.655 160.667 552.36 161.237 553.575H162.872C162.092 551.565 160.262 550.425 158.057 550.425ZM168.807 553.8C170.217 553.8 171.417 554.685 171.402 556.29H166.212C166.362 554.685 167.472 553.8 168.807 553.8ZM172.647 558.465H171.177C170.877 559.35 170.097 559.98 168.867 559.98C167.472 559.98 166.302 559.065 166.197 557.4H172.767C172.797 557.115 172.812 556.875 172.812 556.575C172.812 554.325 171.252 552.645 168.867 552.645C166.467 552.645 164.802 554.28 164.802 556.875C164.802 559.485 166.527 561.135 168.867 561.135C170.907 561.135 172.227 559.965 172.647 558.465ZM175.234 558.75C175.234 560.4 176.059 561 177.514 561H178.744V559.845H177.739C176.899 559.845 176.599 559.56 176.599 558.75V553.905H178.744V552.78H176.599V550.71H175.234V552.78H174.169V553.905H175.234V558.75ZM190.947 558.765C190.887 555.825 186.117 556.89 186.117 554.94C186.117 554.28 186.717 553.8 187.722 553.8C188.817 553.8 189.447 554.4 189.507 555.225H190.872C190.782 553.62 189.582 552.645 187.767 552.645C185.937 552.645 184.752 553.68 184.752 554.94C184.752 558 189.612 556.935 189.612 558.765C189.612 559.44 189.012 559.98 187.932 559.98C186.777 559.98 186.072 559.38 185.997 558.585H184.587C184.677 560.085 186.027 561.135 187.947 561.135C189.762 561.135 190.947 560.115 190.947 558.765ZM200.994 556.875C200.994 554.28 199.179 552.645 196.839 552.645C194.514 552.645 192.684 554.28 192.684 556.875C192.684 559.485 194.454 561.135 196.779 561.135C199.119 561.135 200.994 559.485 200.994 556.875ZM194.079 556.875C194.079 554.805 195.384 553.83 196.824 553.83C198.234 553.83 199.599 554.805 199.599 556.875C199.599 558.96 198.204 559.935 196.779 559.935C195.354 559.935 194.079 558.96 194.079 556.875ZM214.973 561H216.323V556.155C216.323 553.8 214.868 552.63 212.993 552.63C211.733 552.63 210.563 553.275 210.083 554.46C209.543 553.23 208.418 552.63 207.068 552.63C205.988 552.63 205.013 553.095 204.473 553.965V552.78H203.108V561H204.473V556.47C204.473 554.7 205.418 553.815 206.798 553.815C208.148 553.815 209.048 554.67 209.048 556.35V561H210.398V556.47C210.398 554.7 211.343 553.815 212.723 553.815C214.073 553.815 214.973 554.67 214.973 556.35V561ZM222.378 553.8C223.788 553.8 224.988 554.685 224.973 556.29H219.783C219.933 554.685 221.043 553.8 222.378 553.8ZM226.218 558.465H224.748C224.448 559.35 223.668 559.98 222.438 559.98C221.043 559.98 219.873 559.065 219.768 557.4H226.338C226.368 557.115 226.383 556.875 226.383 556.575C226.383 554.325 224.823 552.645 222.438 552.645C220.038 552.645 218.373 554.28 218.373 556.875C218.373 559.485 220.098 561.135 222.438 561.135C224.478 561.135 225.798 559.965 226.218 558.465ZM232.823 561H234.188V549.9H232.823V561ZM236.835 561H238.2V552.78H236.835V561ZM237.54 551.445C238.035 551.445 238.44 551.04 238.44 550.515C238.44 549.99 238.035 549.585 237.54 549.585C237.015 549.585 236.61 549.99 236.61 550.515C236.61 551.04 237.015 551.445 237.54 551.445ZM241.101 561H242.466V553.905H244.191V552.78H242.466V552.195C242.466 551.13 242.871 550.68 244.101 550.68V549.54C242.001 549.54 241.101 550.365 241.101 552.195V552.78H240.036V553.905H241.101V561ZM249.598 553.8C251.008 553.8 252.208 554.685 252.193 556.29H247.003C247.153 554.685 248.263 553.8 249.598 553.8ZM253.438 558.465H251.968C251.668 559.35 250.888 559.98 249.658 559.98C248.263 559.98 247.093 559.065 246.988 557.4H253.558C253.588 557.115 253.603 556.875 253.603 556.575C253.603 554.325 252.043 552.645 249.658 552.645C247.258 552.645 245.593 554.28 245.593 556.875C245.593 559.485 247.318 561.135 249.658 561.135C251.698 561.135 253.018 559.965 253.438 558.465ZM254.539 563.145H255.454L257.134 559.11H255.634L254.539 563.145ZM262.827 556.86C262.827 559.41 264.522 561.135 266.727 561.135C268.227 561.135 269.292 560.37 269.787 559.455V561H271.167V549.9H269.787V554.25C269.217 553.305 268.032 552.645 266.742 552.645C264.522 552.645 262.827 554.295 262.827 556.86ZM269.787 556.875C269.787 558.81 268.497 559.935 266.997 559.935C265.497 559.935 264.222 558.795 264.222 556.86C264.222 554.925 265.497 553.83 266.997 553.83C268.497 553.83 269.787 554.97 269.787 556.875ZM281.084 552.78H279.719V557.295C279.719 559.065 278.774 559.935 277.364 559.935C275.984 559.935 275.069 559.08 275.069 557.415V552.78H273.719V557.595C273.719 559.95 275.204 561.12 277.094 561.12C278.189 561.12 279.194 560.64 279.719 559.785V561H281.084V552.78ZM283.199 556.86C283.199 559.41 284.894 561.135 287.099 561.135C288.599 561.135 289.664 560.37 290.159 559.455V561H291.539V549.9H290.159V554.25C289.589 553.305 288.404 552.645 287.114 552.645C284.894 552.645 283.199 554.295 283.199 556.86ZM290.159 556.875C290.159 558.81 288.869 559.935 287.369 559.935C285.869 559.935 284.594 558.795 284.594 556.86C284.594 554.925 285.869 553.83 287.369 553.83C288.869 553.83 290.159 554.97 290.159 556.875ZM297.66 553.8C299.07 553.8 300.27 554.685 300.255 556.29H295.065C295.215 554.685 296.325 553.8 297.66 553.8ZM301.5 558.465H300.03C299.73 559.35 298.95 559.98 297.72 559.98C296.325 559.98 295.155 559.065 295.05 557.4H301.62C301.65 557.115 301.665 556.875 301.665 556.575C301.665 554.325 300.105 552.645 297.72 552.645C295.32 552.645 293.655 554.28 293.655 556.875C293.655 559.485 295.38 561.135 297.72 561.135C299.76 561.135 301.08 559.965 301.5 558.465ZM305.122 560.16C305.122 559.635 304.717 559.23 304.222 559.23C303.697 559.23 303.292 559.635 303.292 560.16C303.292 560.685 303.697 561.09 304.222 561.09C304.717 561.09 305.122 560.685 305.122 560.16Z" fill="#667085"/>
<path opacity="0.35" d="M338.667 17.8334H355.333C356.53 17.8334 357.5 18.8037 357.5 20.0004V26.0004C357.5 27.1968 356.53 28.1664 355.333 28.1664H338.667C337.47 28.1664 336.5 27.1968 336.5 26.0004V20.0004L336.511 19.7787C336.622 18.686 337.545 17.8334 338.667 17.8334Z" stroke="black"/>
<path opacity="0.4" d="M359 21V25C359.805 24.6612 360.328 23.8731 360.328 23C360.328 22.1269 359.805 21.3388 359 21Z" fill="black"/>
<path d="M338 20.6667C338 19.9303 338.597 19.3334 339.333 19.3334H354.667C355.403 19.3334 356 19.9303 356 20.6667V25.3334C356 26.0698 355.403 26.6667 354.667 26.6667H339.333C338.597 26.6667 338 26.0698 338 25.3334V20.6667Z" fill="black"/>
<path fill-rule="evenodd" clip-rule="evenodd" d="M323.331 19.608C325.547 19.6081 327.678 20.4596 329.284 21.9863C329.405 22.1042 329.598 22.1027 329.717 21.983L330.873 20.8163C330.934 20.7556 330.967 20.6734 330.967 20.5878C330.966 20.5022 330.932 20.4204 330.871 20.3603C326.656 16.3208 320.006 16.3208 315.791 20.3603C315.73 20.4203 315.695 20.5021 315.694 20.5877C315.694 20.6733 315.727 20.7556 315.788 20.8163L316.944 21.983C317.063 22.1029 317.256 22.1044 317.377 21.9863C318.983 20.4595 321.115 19.608 323.331 19.608ZM323.331 23.4037C324.548 23.4036 325.722 23.8561 326.625 24.6733C326.747 24.7893 326.939 24.7868 327.058 24.6677L328.213 23.501C328.274 23.4398 328.307 23.3568 328.307 23.2705C328.306 23.1843 328.27 23.102 328.208 23.042C325.46 20.4856 321.204 20.4856 318.456 23.042C318.394 23.102 318.358 23.1843 318.358 23.2706C318.357 23.3569 318.391 23.4399 318.452 23.501L319.606 24.6677C319.725 24.7868 319.917 24.7893 320.039 24.6733C320.941 23.8567 322.114 23.4042 323.331 23.4037ZM325.644 25.9575C325.646 26.044 325.612 26.1274 325.55 26.188L323.553 28.2037C323.494 28.2629 323.414 28.2963 323.331 28.2963C323.248 28.2963 323.168 28.2629 323.109 28.2037L321.112 26.188C321.05 26.1274 321.016 26.0439 321.018 25.9574C321.02 25.8709 321.057 25.789 321.121 25.731C322.397 24.6521 324.265 24.6521 325.541 25.731C325.605 25.7891 325.642 25.871 325.644 25.9575Z" fill="black"/>
<path fill-rule="evenodd" clip-rule="evenodd" d="M309.667 17.6666H308.667C308.115 17.6666 307.667 18.1143 307.667 18.6666V27.3333C307.667 27.8856 308.115 28.3333 308.667 28.3333H309.667C310.219 28.3333 310.667 27.8856 310.667 27.3333V18.6666C310.667 18.1143 310.219 17.6666 309.667 17.6666ZM304 20H305C305.553 20 306 20.4477 306 21V27.3333C306 27.8856 305.553 28.3333 305 28.3333H304C303.448 28.3333 303 27.8856 303 27.3333V21C303 20.4477 303.448 20 304 20ZM300.334 22.3333H299.334C298.781 22.3333 298.334 22.781 298.334 23.3333V27.3333C298.334 27.8856 298.781 28.3333 299.334 28.3333H300.334C300.886 28.3333 301.334 27.8856 301.334 27.3333V23.3333C301.334 22.781 300.886 22.3333 300.334 22.3333ZM295.667 24.3333H294.667C294.115 24.3333 293.667 24.781 293.667 25.3333V27.3333C293.667 27.8856 294.115 28.3333 294.667 28.3333H295.667C296.219 28.3333 296.667 27.8856 296.667 27.3333V25.3333C296.667 24.781 296.219 24.3333 295.667 24.3333Z" fill="black"/>
<path d="M37.3203 28.2563C40.0083 28.2563 41.605 26.1543 41.605 22.5947C41.605 21.2544 41.3486 20.1265 40.8579 19.2549C40.1475 17.8999 38.9243 17.1675 37.3789 17.1675C35.0791 17.1675 33.4531 18.7129 33.4531 20.8809C33.4531 22.917 34.918 24.3965 36.9321 24.3965C38.1699 24.3965 39.1733 23.8179 39.6714 22.8145H39.6934C39.6934 22.8145 39.7227 22.8145 39.73 22.8145C39.7446 22.8145 39.7959 22.8145 39.7959 22.8145C39.7959 25.2314 38.8804 26.6743 37.335 26.6743C36.4268 26.6743 35.7236 26.1763 35.4819 25.3779H33.5996C33.9146 27.1138 35.3867 28.2563 37.3203 28.2563ZM37.3862 22.895C36.1704 22.895 35.3062 22.0308 35.3062 20.8223C35.3062 19.6431 36.2144 18.7422 37.3936 18.7422C38.5728 18.7422 39.481 19.6577 39.481 20.8516C39.481 22.0308 38.5947 22.895 37.3862 22.895Z" fill="black"/>
<path d="M44.6961 28.1538C45.3919 28.1538 45.868 27.6558 45.868 26.9966C45.868 26.3301 45.3919 25.8394 44.6961 25.8394C44.0076 25.8394 43.5242 26.3301 43.5242 26.9966C43.5242 27.6558 44.0076 28.1538 44.6961 28.1538ZM44.6961 22.6606C45.3919 22.6606 45.868 22.1699 45.868 21.5107C45.868 20.8442 45.3919 20.3535 44.6961 20.3535C44.0076 20.3535 43.5242 20.8442 43.5242 21.5107C43.5242 22.1699 44.0076 22.6606 44.6961 22.6606Z" fill="black"/>
<path d="M52.7237 28H54.5328V26.0298H55.961V24.4331H54.5328V17.4312H51.8668C49.9991 20.2437 48.5123 22.5947 47.5602 24.3452V26.0298H52.7237V28ZM49.3106 24.3672C50.5411 22.1992 51.6397 20.4634 52.6505 18.9692H52.753V24.4771H49.3106V24.3672Z" fill="black"/>
<path d="M59.9896 28H61.8793V17.4312H59.997L57.2357 19.3647V21.1812L59.8651 19.3354H59.9896V28Z" fill="black"/>
<rect x="121" y="799" width="134" height="5" rx="2.5" fill="black"/>
<path fill-rule="evenodd" clip-rule="evenodd" d="M293 392.5C293 401.613 257.182 409 213 409C168.817 409 133 401.613 133 392.5C133 383.387 168.817 376 213 376C257.182 376 293 383.387 293 392.5Z" fill="#F2F3FB"/>
<path fill-rule="evenodd" clip-rule="evenodd" d="M271.439 308H166V277.189C166 263.83 176.793 253 190.109 253H249.89C263.206 253 274 263.83 274 277.189V305.431C274 306.85 272.854 308 271.439 308Z" fill="#BEC0D5"/>
<path fill-rule="evenodd" clip-rule="evenodd" d="M271 303H163V276.893C163 263.697 173.793 253 187.109 253H246.89C260.206 253 271 263.697 271 276.893V303Z" fill="#D8DBE8"/>
<path fill-rule="evenodd" clip-rule="evenodd" d="M187 256C175.402 256 166 265.3 166 276.772V303H208V276.772C208 265.3 198.598 256 187 256Z" fill="#FEFEFE"/>
<path fill-rule="evenodd" clip-rule="evenodd" d="M163 276V277C163 276.665 163.014 276.333 163.026 276H163Z" fill="#E7EAF0"/>
<path fill-rule="evenodd" clip-rule="evenodd" d="M268.027 276H268C268.012 276.333 268.027 276.665 268.027 277V276Z" fill="#E7EAF0"/>
<path fill-rule="evenodd" clip-rule="evenodd" d="M246.216 253H187.189C187.125 253 187.063 253.004 187 253.005C199.483 253.107 209.573 263.277 209.573 275.814V276H270C269.548 263.221 259.076 253 246.216 253Z" fill="#E7EAF0"/>
<path fill-rule="evenodd" clip-rule="evenodd" d="M270 307H151.171C149.971 307 149 306.104 149 305C149 303.895 149.971 303 151.171 303H270V307Z" fill="#D8DBE8"/>
<mask id="mask0_13_9704" style="mask-type:luminance" maskUnits="userSpaceOnUse" x="44" y="184" width="286" height="231">
<path fill-rule="evenodd" clip-rule="evenodd" d="M44 415H330V184H44V415Z" fill="white"/>
</mask>
<g mask="url(#mask0_13_9704)">
<path fill-rule="evenodd" clip-rule="evenodd" d="M210 393H219V307H210V393Z" fill="#F0F1F5"/>
<path fill-rule="evenodd" clip-rule="evenodd" d="M213 393H219V307H213V393Z" fill="#BEC0D5"/>
<path fill-rule="evenodd" clip-rule="evenodd" d="M225.058 313H203.941C201.764 313 200 311.358 200 309.33V307H229V309.33C229 311.358 227.235 313 225.058 313Z" fill="#BEC0D5"/>
<path fill-rule="evenodd" clip-rule="evenodd" d="M200 309H229V307H200V309Z" fill="#F0F1F5"/>
<path fill-rule="evenodd" clip-rule="evenodd" d="M214.5 387C206.492 387 200 390.335 200 394.449C200 398.562 206.492 399 214.5 399C222.508 399 229 398.562 229 394.449C229 390.335 222.508 387 214.5 387Z" fill="#BEC0D5"/>
<path fill-rule="evenodd" clip-rule="evenodd" d="M210.535 396.457C213.458 393.078 212.981 389.154 212.958 387C204.896 387 200 390.172 200 394.118C200 396.257 201.92 397.36 204.962 397.922C204.962 397.922 208.759 398.511 210.535 396.457Z" fill="#F0F1F5"/>
<path fill-rule="evenodd" clip-rule="evenodd" d="M239.914 289.463C239.383 292.453 236.527 294.446 233.537 293.914C230.548 293.383 228.554 290.528 229.086 287.538C229.617 284.548 232.472 282.554 235.463 283.086C238.453 283.618 240.446 286.473 239.914 289.463Z" fill="#BEC0D5"/>
<path fill-rule="evenodd" clip-rule="evenodd" d="M238.836 288.701C238.173 291.096 235.693 292.498 233.299 291.836C230.905 291.172 229.501 288.694 230.164 286.299C230.827 283.905 233.307 282.501 235.701 283.164C238.095 283.828 239.499 286.306 238.836 288.701Z" fill="#F07185"/>
<path fill-rule="evenodd" clip-rule="evenodd" d="M255.784 260.471L243.248 257.072C242.173 256.78 241.049 257.403 240.751 258.455L239.03 264.539L238.222 267.396L232 289.387L234.258 290L240.479 268.007L252.713 271.324C255.763 272.151 258.947 270.386 259.792 267.401C260.637 264.416 258.833 261.298 255.784 260.471Z" fill="url(#paint0_linear_13_9704)"/>
<path d="M119 207.611C117.995 207.376 116.994 207.172 116 207" stroke="#9D9D9D"/>
<path d="M109.134 207.048C77.038 205.858 51.9992 227.174 52 247.941C52 268.837 70.0704 293.856 98.556 288.184C127.042 282.512 129.246 264.165 155.527 264.165C171.624 264.165 191.513 274.609 201 280.196" stroke="#D7DAE9" stroke-dasharray="8.08 8.08"/>
<path d="M204 282C205.917 283.24 207 284 207 284" stroke="#9D9D9D"/>
<path d="M331 247.927C331 247.927 329.346 248.247 328.243 247.548C326.296 246.313 327.021 244.682 325.541 243.94C323.702 243.017 322.748 244.917 320.985 244.033C318.914 242.994 320.28 241.301 318.325 240.32C316.278 239.294 314.775 240.939 312.845 239.971C311.841 239.467 311.712 238.975 311.284 238.042C310.821 237.036 310.911 236.162 309.649 235.533C307.987 234.706 306.754 236.459 304.707 235.432C302.752 234.451 304.117 232.759 302.046 231.72C300.283 230.836 299.33 232.735 297.49 231.813C296.011 231.071 296.789 229.361 294.789 228.205C293.155 227.261 291.847 228.119 291.003 227.995C289.527 227.778 289 226 289 226" stroke="#F06D8D"/>
<path d="M112 350C112 350 112.117 348.286 113.138 347.401C114.94 345.841 116.426 347.017 117.593 345.775C119.043 344.231 117.341 342.754 118.73 341.275C120.363 339.538 121.741 341.36 123.282 339.718C124.895 338.002 123.605 336.058 125.126 334.439C125.918 333.596 126.461 333.609 127.539 333.453C128.702 333.286 129.581 333.623 130.572 332.563C131.875 331.166 130.401 329.456 132.013 327.739C133.556 326.098 134.933 327.92 136.565 326.182C137.955 324.703 136.253 323.226 137.703 321.683C138.869 320.441 140.423 321.69 142.158 320.056C143.575 318.722 143.042 317.192 143.398 316.399C144.022 315.011 146 315 146 315" stroke="#F06D8D"/>
<path fill-rule="evenodd" clip-rule="evenodd" d="M119 215C116.712 214.468 114.5 212 113.925 211.576L109 211.366L113.231 208.659C113.307 206.676 114.219 204.662 116 203C116.014 205.02 116.435 207.097 116.926 209.183C117.416 211.269 118.121 213.219 119 215Z" fill="#282526"/>
<path fill-rule="evenodd" clip-rule="evenodd" d="M114.573 211L114.384 210.989C114.231 210.67 114.106 210.337 114 210C114.14 210.347 114.338 210.681 114.573 211Z" fill="#282526"/>
<path fill-rule="evenodd" clip-rule="evenodd" d="M122.5 214.997C121.5 215 120 215 119 214.997C118.117 213.244 117.239 211.018 116.747 208.965C116.256 206.91 116.013 204.989 116 203C116.759 202.304 118.006 201.548 119 201C118.909 203.356 119.412 206.048 120 208.5C120.587 210.952 121.361 212.974 122.5 214.997Z" fill="#F5D30D"/>
<path fill-rule="evenodd" clip-rule="evenodd" d="M126 214.5C124.85 214.741 123.576 214.973 122.49 215C121.262 213.006 120.436 210.772 119.803 208.355C119.168 205.938 118.903 203.322 119 201C119.968 200.519 121.045 200.321 122.174 200C122.017 202.453 122.258 205.017 122.931 207.583C123.603 210.149 125 212.5 126 214.5Z" fill="#282526"/>
<path fill-rule="evenodd" clip-rule="evenodd" d="M129.5 213C129.5 213 129 213.5 128 214C127 214.5 126.5 214.5 126 214.5C124.767 212.451 123.351 209.626 122.736 207.101C122.119 204.577 121.899 202.055 122.042 199.642C122.211 199.589 122.381 199.543 122.56 199.496C123.603 199.22 125.504 199.051 126.5 199C126.349 201.5 126.411 203.584 127 206C127.589 208.417 128.345 211.013 129.5 213Z" fill="#F5D30D"/>
<path fill-rule="evenodd" clip-rule="evenodd" d="M132 211C131.222 211.671 130.503 212.5 129.5 213C128.368 210.985 127.298 208.728 126.721 206.276C126.142 203.826 125.922 201.385 126.024 199.031C127.127 198.954 128.186 199.022 129.166 199.212C129.164 201.237 129.4 203.315 129.893 205.406C130.386 207.496 131.1 209.221 132 211Z" fill="#282526"/>
<path fill-rule="evenodd" clip-rule="evenodd" d="M132 211C131.108 209.222 130.211 207.277 129.722 205.189C129.233 203.1 128.999 201.024 129 199C131.993 199.564 134.275 201.283 134.858 203.77C135.44 206.258 134.381 208.951 132 211Z" fill="#282526"/>
<path fill-rule="evenodd" clip-rule="evenodd" d="M127.699 201.952C125.103 202.462 122.237 198.869 121.299 193.925C120.36 188.981 121.705 184.559 124.3 184.048C126.897 183.537 129.762 187.131 130.701 192.075C131.639 197.018 130.296 201.441 127.699 201.952Z" fill="#98B4DD"/>
<path fill-rule="evenodd" clip-rule="evenodd" d="M130.174 202.048C128.286 204.066 123.768 202.771 120.082 199.155C116.396 195.539 114.938 190.972 116.826 188.952C118.714 186.934 123.232 188.228 126.919 191.844C130.604 195.46 132.062 200.029 130.174 202.048Z" fill="#B9C7E5"/>
<path fill-rule="evenodd" clip-rule="evenodd" d="M135.487 201C134.594 199.827 133.264 198.937 131.649 198.572C131.43 198.522 131.217 198.481 131 198.456C132.572 197.23 134.728 196.692 136.871 197.177C138.671 197.585 140.114 198.636 141 199.998C139.004 199.546 137.008 199.969 135.487 201Z" fill="#1A1E1D"/>
<path fill-rule="evenodd" clip-rule="evenodd" d="M141.811 204.241C141.009 207.388 137.861 209.384 134.585 208.938C134.372 208.912 134.164 208.871 133.948 208.821L133.933 208.817C130.459 207.991 128.335 204.617 129.189 201.272C129.528 199.942 130.285 198.825 131.287 198C131.5 198.026 131.709 198.067 131.924 198.117C133.507 198.49 134.81 199.396 135.687 200.59C137.176 199.539 139.133 199.109 141.074 199.566L141.089 199.57C141.924 200.924 142.235 202.584 141.811 204.241Z" fill="#F5D30D"/>
<path fill-rule="evenodd" clip-rule="evenodd" d="M136.841 197.402C137.105 195.85 139.291 194.128 140.946 194L141 194.621C139.625 194.727 137.706 196.289 137.5 197.5L136.841 197.402Z" fill="#1A1E1D"/>
<path fill-rule="evenodd" clip-rule="evenodd" d="M141.951 195.307C141.781 195.832 141.218 196.121 140.693 195.951C140.168 195.782 139.879 195.218 140.049 194.693C140.218 194.168 140.782 193.879 141.307 194.049C141.832 194.218 142.121 194.782 141.951 195.307Z" fill="#1A1E1D"/>
<path fill-rule="evenodd" clip-rule="evenodd" d="M136 197.5C136.724 196.255 135.616 193.894 134.414 193L134 193.419C135 194.163 136 196 135.432 197.251L136 197.5Z" fill="#1A1E1D"/>
<path fill-rule="evenodd" clip-rule="evenodd" d="M133.049 192.693C132.879 193.218 133.168 193.782 133.692 193.951C134.218 194.121 134.782 193.832 134.951 193.307C135.121 192.782 134.832 192.218 134.307 192.049C133.782 191.879 133.218 192.168 133.049 192.693Z" fill="#1A1E1D"/>
<path fill-rule="evenodd" clip-rule="evenodd" d="M133.942 202.476C133.68 203.548 132.597 204.205 131.524 203.942C130.452 203.679 129.795 202.597 130.058 201.524C130.322 200.452 131.403 199.795 132.476 200.058C133.548 200.321 134.205 201.403 133.942 202.476Z" fill="#1A1E1D"/>
<path fill-rule="evenodd" clip-rule="evenodd" d="M134.942 202.476C134.679 203.548 133.597 204.205 132.524 203.942C131.451 203.68 130.795 202.598 131.058 201.525C131.321 200.452 132.403 199.795 133.476 200.058C134.549 200.321 135.205 201.403 134.942 202.476Z" fill="#FEFEFE"/>
<path fill-rule="evenodd" clip-rule="evenodd" d="M132.029 201.762C131.897 202.298 132.225 202.84 132.763 202.971C133.298 203.103 133.839 202.774 133.971 202.238C134.103 201.702 133.775 201.16 133.238 201.029C132.702 200.897 132.161 201.225 132.029 201.762Z" fill="#1A1E1D"/>
<path fill-rule="evenodd" clip-rule="evenodd" d="M133.014 201.373C132.95 201.635 133.111 201.9 133.373 201.964C133.635 202.029 133.9 201.868 133.964 201.605C134.029 201.343 133.868 201.079 133.606 201.014C133.343 200.95 133.078 201.11 133.014 201.373Z" fill="#FEFEFE"/>
<path fill-rule="evenodd" clip-rule="evenodd" d="M135.058 202.524C134.795 203.597 135.451 204.679 136.524 204.942C137.596 205.205 138.679 204.549 138.942 203.476C139.205 202.403 138.549 201.321 137.476 201.058C136.404 200.795 135.32 201.452 135.058 202.524Z" fill="#1A1E1D"/>
<path fill-rule="evenodd" clip-rule="evenodd" d="M136.044 203.143C135.846 203.948 136.339 204.759 137.144 204.957C137.947 205.153 138.759 204.661 138.956 203.857C139.154 203.052 138.661 202.24 137.857 202.044C137.053 201.846 136.241 202.338 136.044 203.143Z" fill="#FEFEFE"/>
<path fill-rule="evenodd" clip-rule="evenodd" d="M137.971 203.238C137.839 203.775 137.299 204.103 136.761 203.971C136.226 203.84 135.898 203.298 136.029 202.762C136.161 202.225 136.702 201.897 137.238 202.029C137.774 202.16 138.102 202.702 137.971 203.238Z" fill="#1A1E1D"/>
<path fill-rule="evenodd" clip-rule="evenodd" d="M136.964 202.605C136.9 202.867 136.635 203.028 136.372 202.964C136.11 202.899 135.949 202.635 136.014 202.372C136.078 202.11 136.343 201.949 136.605 202.014C136.867 202.078 137.028 202.343 136.964 202.605Z" fill="#FEFEFE"/>
<path fill-rule="evenodd" clip-rule="evenodd" d="M134.304 206.975C134.273 206.971 134.243 206.966 134.212 206.961C133.693 206.873 133.246 206.649 133.044 206.378C132.962 206.265 132.998 206.114 133.125 206.04C133.252 205.966 133.424 205.997 133.508 206.111C133.604 206.239 133.897 206.411 134.316 206.482C134.587 206.53 135.104 206.561 135.564 206.275C135.689 206.197 135.861 206.223 135.949 206.334C136.038 206.444 136.007 206.596 135.882 206.674C135.441 206.947 134.883 207.053 134.304 206.975Z" fill="#1A1E1D"/>
<path fill-rule="evenodd" clip-rule="evenodd" d="M101.932 311.384C101.723 310.718 100.817 309.908 98.8606 310.571C97.4594 311.045 95.2104 312.38 94.1212 313.344C94.6865 311.944 95.2483 309.228 95.2483 307.685C95.2483 305.546 94.166 305 93.4939 305C92.8234 305 91.8032 305.65 91.8032 307.789C91.8032 309.325 92.3288 311.965 92.8717 313.342C91.7687 312.349 89.4628 310.953 88.053 310.476C86.0969 309.815 85.2662 310.718 85.0577 311.384C84.8509 312.048 85.1284 313.259 87.0827 313.92C88.4839 314.395 91.0569 314.691 92.4839 314.576C91.2362 315.364 89.2491 317.216 88.377 318.464C87.1706 320.196 87.7376 321.299 88.2805 321.71C88.8251 322.121 90.016 322.222 91.2241 320.49C92.0893 319.248 93.1561 316.791 93.4939 315.343C93.8265 316.822 94.9036 319.363 95.7739 320.612C96.9821 322.342 98.1643 322.121 98.7089 321.71C99.2518 321.299 99.7102 320.151 98.5038 318.419C97.637 317.179 95.7205 315.363 94.5038 314.58C95.9566 314.709 98.6107 314.426 100.02 313.95C101.975 313.29 102.139 312.048 101.932 311.384Z" fill="url(#paint1_linear_13_9704)"/>
<path fill-rule="evenodd" clip-rule="evenodd" d="M113.999 264.637C114.015 264.283 113.698 263.728 112.576 263.684C111.773 263.652 110.379 263.877 109.646 264.136C110.19 263.572 110.972 262.38 111.251 261.644C111.642 260.623 111.186 260.162 110.843 260.04C110.499 259.915 109.86 260.038 109.469 261.059C109.19 261.792 108.978 263.149 109.006 263.905C108.622 263.228 107.695 262.139 107.062 261.651C106.18 260.976 105.588 261.255 105.362 261.535C105.134 261.813 105.058 262.442 105.938 263.118C106.568 263.601 107.832 264.216 108.581 264.423C107.8 264.57 106.445 265.088 105.774 265.523C104.839 266.127 104.93 266.759 105.133 267.055C105.336 267.351 105.929 267.618 106.862 267.014C107.53 266.58 108.524 265.603 108.961 264.975C108.861 265.741 108.951 267.153 109.168 267.909C109.473 268.957 110.119 269.069 110.471 268.972C110.824 268.877 111.269 268.413 110.966 267.364C110.747 266.612 110.097 265.394 109.616 264.798C110.337 265.125 111.748 265.479 112.554 265.511C113.676 265.555 113.985 264.991 113.999 264.637Z" fill="#DFE1EC"/>
<path fill-rule="evenodd" clip-rule="evenodd" d="M210.677 227.114C210.341 226.9 209.637 226.893 208.996 227.945C208.535 228.699 208.006 230.166 207.865 231.017C207.611 230.176 206.877 228.751 206.316 228.066C205.537 227.115 204.851 227.294 204.547 227.555C204.244 227.814 204.02 228.499 204.798 229.45C205.357 230.13 206.554 231.1 207.301 231.5C206.441 231.488 204.892 231.763 204.082 232.098C202.959 232.562 202.913 233.287 203.061 233.663C203.21 234.038 203.774 234.469 204.898 234.003C205.703 233.67 206.974 232.802 207.575 232.2C207.298 233.033 207.075 234.627 207.135 235.519C207.22 236.757 207.878 237.026 208.273 236.998C208.667 236.97 209.242 236.551 209.157 235.314C209.096 234.426 208.683 232.921 208.309 232.148C208.998 232.676 210.408 233.386 211.256 233.602C212.43 233.902 212.884 233.344 212.98 232.951C213.075 232.558 212.864 231.869 211.689 231.569C210.847 231.354 209.322 231.291 208.488 231.416C209.191 230.909 210.286 229.755 210.749 228.996C211.39 227.944 211.013 227.329 210.677 227.114Z" fill="#DFE1EC"/>
<path fill-rule="evenodd" clip-rule="evenodd" d="M269.042 212.262C266.44 211.281 264.33 209.655 263.046 207.64L262 206L261.173 207.391C259.883 209.559 257.651 211.305 254.869 212.318L253 213L254.929 213.754C257.248 214.661 259.167 216.085 260.44 217.845L262 220L263.198 218.237C264.392 216.483 266.221 215.038 268.459 214.083L271 213L269.042 212.262Z" fill="#E8E9EB"/>
<path fill-rule="evenodd" clip-rule="evenodd" d="M276.347 200.789C275.48 200.509 274.776 200.044 274.349 199.468L274 199L273.724 199.397C273.295 200.017 272.55 200.516 271.623 200.805L271 201L271.643 201.215C272.416 201.475 273.056 201.881 273.48 202.384L274 203L274.399 202.497C274.797 201.995 275.407 201.582 276.153 201.31L277 201L276.347 200.789Z" fill="#E8E9EB"/>
<path fill-rule="evenodd" clip-rule="evenodd" d="M255.347 205.789C254.48 205.509 253.776 205.044 253.349 204.469L253 204L252.724 204.397C252.295 205.017 251.55 205.516 250.623 205.805L250 206L250.644 206.216C251.416 206.475 252.056 206.881 252.48 207.384L253 208L253.399 207.497C253.797 206.995 254.407 206.582 255.153 206.31L256 206L255.347 205.789Z" fill="#E8E9EB"/>
<path d="M257.239 221.382C245.35 228.711 250.314 237.942 256.069 241.853" stroke="#E8E9EB"/>
</g>
</g>
<defs>
<linearGradient id="paint0_linear_13_9704" x1="246" y1="240.5" x2="213.44" y2="268.126" gradientUnits="userSpaceOnUse">
<stop stop-color="#FF8960"/>
<stop offset="1" stop-color="#FF62A5"/>
</linearGradient>
<linearGradient id="paint1_linear_13_9704" x1="93.5" y1="296.5" x2="76.5" y2="313.5" gradientUnits="userSpaceOnUse">
<stop stop-color="#FF8960"/>
<stop offset="1" stop-color="#FF62A5"/>
</linearGradient>
<clipPath id="clip0_13_9704">
<rect width="375" height="812" fill="white"/>
</clipPath>
</defs>
</svg>
