<svg width="600" height="600" viewBox="0 0 600 600" fill="none" xmlns="http://www.w3.org/2000/svg">
<path d="M300.326 126.5C378.729 126.5 449.59 146.107 500.77 177.677C551.988 209.271 583.151 252.588 583.151 300C583.151 347.412 551.988 390.729 500.77 422.323C449.59 453.893 378.729 473.5 300.326 473.5C221.923 473.5 151.062 453.892 99.8828 422.323C48.6639 390.729 17.5 347.412 17.5 300C17.5 252.588 48.6639 209.271 99.8828 177.677C151.062 146.108 221.923 126.5 300.326 126.5Z" stroke="#1E1E1E" stroke-width="5"/>
<path d="M171.671 249.445C171.795 250.848 169.188 251.617 167.836 249.445C166.375 247.527 167.449 243.072 171.671 241.786C175.647 240.264 181.939 243.186 183.176 249.445C184.751 255.463 179.993 263.582 171.671 264.764C163.607 266.39 153.614 259.803 152.496 249.445C150.802 239.34 159.261 227.533 171.671 226.468C183.84 224.725 197.502 234.997 198.515 249.445C200.317 263.64 188.187 279.133 171.671 280.082C155.399 281.941 138.056 267.98 137.157 249.445C135.243 231.151 151.053 211.991 171.671 211.15C192.029 209.185 213.076 226.81 213.855 249.445C215.885 271.827 196.382 294.675 171.671 295.399M233.671 343.445C233.795 344.848 231.188 345.617 229.836 343.445C228.375 341.527 229.449 337.072 233.671 335.786C237.647 334.264 243.939 337.186 245.176 343.445C246.751 349.463 241.993 357.582 233.671 358.764C225.607 360.39 215.614 353.803 214.496 343.445C212.802 333.34 221.261 321.533 233.671 320.468C245.84 318.725 259.502 328.997 260.515 343.445C262.317 357.64 250.187 373.133 233.671 374.082C217.399 375.941 200.056 361.98 199.157 343.445C197.243 325.151 213.053 305.991 233.671 305.15C254.029 303.185 275.076 320.81 275.855 343.445C277.885 365.827 258.382 388.675 233.671 389.4M295.671 249.445C295.795 250.848 293.188 251.617 291.836 249.445C290.375 247.527 291.449 243.072 295.671 241.786C299.647 240.264 305.939 243.186 307.176 249.445C308.751 255.463 303.993 263.582 295.671 264.764C287.607 266.39 277.614 259.803 276.496 249.445C274.802 239.34 283.261 227.533 295.671 226.468C307.84 224.725 321.502 234.997 322.515 249.445C324.317 263.64 312.187 279.133 295.671 280.082C279.399 281.941 262.056 267.98 261.157 249.445C259.243 231.151 275.053 211.991 295.671 211.15C316.029 209.185 337.076 226.81 337.855 249.445C339.885 271.827 320.382 294.675 295.671 295.399M357.671 343.445C357.795 344.848 355.188 345.617 353.836 343.445C352.375 341.527 353.449 337.072 357.671 335.786C361.647 334.264 367.939 337.186 369.176 343.445C370.751 349.463 365.993 357.582 357.671 358.764C349.607 360.39 339.614 353.803 338.496 343.445C336.802 333.34 345.261 321.533 357.671 320.468C369.84 318.725 383.502 328.997 384.515 343.445C386.317 357.64 374.187 373.133 357.671 374.082C341.399 375.941 324.056 361.98 323.157 343.445C321.243 325.151 337.053 305.991 357.671 305.15C378.029 303.185 399.076 320.81 399.855 343.445C401.885 365.827 382.382 388.675 357.671 389.4M419.671 249.445C419.795 250.848 417.188 251.617 415.836 249.445C414.375 247.527 415.449 243.072 419.671 241.786C423.647 240.264 429.939 243.186 431.176 249.445C432.751 255.463 427.993 263.582 419.671 264.764C411.607 266.39 401.614 259.803 400.496 249.445C398.802 239.34 407.261 227.533 419.671 226.468C431.84 224.725 445.502 234.997 446.515 249.445C448.317 263.64 436.187 279.133 419.671 280.082C403.399 281.941 386.056 267.98 385.157 249.445C383.243 231.151 399.053 211.991 419.671 211.15C440.029 209.185 461.076 226.81 461.855 249.445C463.885 271.827 444.382 294.675 419.671 295.399" stroke="#1E1E1E" stroke-width="5" stroke-linecap="round"/>
</svg>
