<svg width="600" height="600" viewBox="0 0 600 600" fill="none" xmlns="http://www.w3.org/2000/svg">
<path d="M585.652 294C585.652 391.202 457.907 470 300.326 470C142.745 470 15 391.202 15 294C15 196.798 142.745 118 300.326 118C457.907 118 585.652 196.798 585.652 294ZM54.8965 294C54.8965 377.611 164.779 445.39 300.326 445.39C435.873 445.39 545.755 377.611 545.755 294C545.755 210.389 435.873 142.61 300.326 142.61C164.779 142.61 54.8965 210.389 54.8965 294Z" fill="#FFB46E"/>
<path d="M181.671 238.445C181.795 239.848 179.188 240.617 177.836 238.445C176.375 236.527 177.449 232.072 181.671 230.786C185.647 229.264 191.939 232.186 193.176 238.445C194.751 244.463 189.993 252.582 181.671 253.764C173.607 255.39 163.614 248.803 162.496 238.445C160.802 228.34 169.261 216.533 181.671 215.468C193.84 213.725 207.502 223.997 208.515 238.445C210.317 252.64 198.187 268.133 181.671 269.082C165.399 270.941 148.056 256.98 147.157 238.445C145.243 220.151 161.053 200.991 181.671 200.15C202.029 198.185 223.076 215.81 223.855 238.445C225.885 260.827 206.382 283.675 181.671 284.399M243.671 332.445C243.795 333.848 241.188 334.617 239.836 332.445C238.375 330.527 239.449 326.072 243.671 324.786C247.647 323.264 253.939 326.186 255.176 332.445C256.751 338.463 251.993 346.582 243.671 347.764C235.607 349.39 225.614 342.803 224.496 332.445C222.802 322.34 231.261 310.533 243.671 309.468C255.84 307.725 269.502 317.997 270.515 332.445C272.317 346.64 260.187 362.133 243.671 363.082C227.399 364.941 210.056 350.98 209.157 332.445C207.243 314.151 223.053 294.991 243.671 294.15C264.029 292.185 285.076 309.81 285.855 332.445C287.885 354.827 268.382 377.675 243.671 378.4M305.671 238.445C305.795 239.848 303.188 240.617 301.836 238.445C300.375 236.527 301.449 232.072 305.671 230.786C309.647 229.264 315.939 232.186 317.176 238.445C318.751 244.463 313.993 252.582 305.671 253.764C297.607 255.39 287.614 248.803 286.496 238.445C284.802 228.34 293.261 216.533 305.671 215.468C317.84 213.725 331.502 223.997 332.515 238.445C334.317 252.64 322.187 268.133 305.671 269.082C289.399 270.941 272.056 256.98 271.157 238.445C269.243 220.151 285.053 200.991 305.671 200.15C326.029 198.185 347.076 215.81 347.855 238.445C349.885 260.827 330.382 283.675 305.671 284.399M367.671 332.445C367.795 333.848 365.188 334.617 363.836 332.445C362.375 330.527 363.449 326.072 367.671 324.786C371.647 323.264 377.939 326.186 379.176 332.445C380.751 338.463 375.993 346.582 367.671 347.764C359.607 349.39 349.614 342.803 348.496 332.445C346.802 322.34 355.261 310.533 367.671 309.468C379.84 307.725 393.502 317.997 394.515 332.445C396.317 346.64 384.187 362.133 367.671 363.082C351.399 364.941 334.056 350.98 333.157 332.445C331.243 314.151 347.053 294.991 367.671 294.15C388.029 292.185 409.076 309.81 409.855 332.445C411.885 354.827 392.382 377.675 367.671 378.4M429.671 238.445C429.795 239.848 427.188 240.617 425.836 238.445C424.375 236.527 425.449 232.072 429.671 230.786C433.647 229.264 439.939 232.186 441.176 238.445C442.751 244.463 437.993 252.582 429.671 253.764C421.607 255.39 411.614 248.803 410.496 238.445C408.802 228.34 417.261 216.533 429.671 215.468C441.84 213.725 455.502 223.997 456.515 238.445C458.317 252.64 446.187 268.133 429.671 269.082C413.399 270.941 396.056 256.98 395.157 238.445C393.243 220.151 409.053 200.991 429.671 200.15C450.029 198.185 471.076 215.81 471.855 238.445C473.885 260.827 454.382 283.675 429.671 284.399" stroke="#FFB46E" stroke-width="8" stroke-linecap="round"/>
<path d="M300.326 126.5C378.729 126.5 449.59 146.107 500.77 177.677C551.988 209.271 583.151 252.588 583.151 300C583.151 347.412 551.988 390.729 500.77 422.323C449.59 453.893 378.729 473.5 300.326 473.5C221.923 473.5 151.062 453.892 99.8828 422.323C48.6639 390.729 17.5 347.412 17.5 300C17.5 252.588 48.6639 209.271 99.8828 177.677C151.062 146.108 221.923 126.5 300.326 126.5Z" stroke="#1E1E1E" stroke-width="5"/>
<path d="M171.671 249.445C171.795 250.848 169.188 251.617 167.836 249.445C166.375 247.527 167.449 243.072 171.671 241.786C175.647 240.264 181.939 243.186 183.176 249.445C184.751 255.463 179.993 263.582 171.671 264.764C163.607 266.39 153.614 259.803 152.496 249.445C150.802 239.34 159.261 227.533 171.671 226.468C183.84 224.725 197.502 234.997 198.515 249.445C200.317 263.64 188.187 279.133 171.671 280.082C155.399 281.941 138.056 267.98 137.157 249.445C135.243 231.151 151.053 211.991 171.671 211.15C192.029 209.185 213.076 226.81 213.855 249.445C215.885 271.827 196.382 294.675 171.671 295.399M233.671 343.445C233.795 344.848 231.188 345.617 229.836 343.445C228.375 341.527 229.449 337.072 233.671 335.786C237.647 334.264 243.939 337.186 245.176 343.445C246.751 349.463 241.993 357.582 233.671 358.764C225.607 360.39 215.614 353.803 214.496 343.445C212.802 333.34 221.261 321.533 233.671 320.468C245.84 318.725 259.502 328.997 260.515 343.445C262.317 357.64 250.187 373.133 233.671 374.082C217.399 375.941 200.056 361.98 199.157 343.445C197.243 325.151 213.053 305.991 233.671 305.15C254.029 303.185 275.076 320.81 275.855 343.445C277.885 365.827 258.382 388.675 233.671 389.4M295.671 249.445C295.795 250.848 293.188 251.617 291.836 249.445C290.375 247.527 291.449 243.072 295.671 241.786C299.647 240.264 305.939 243.186 307.176 249.445C308.751 255.463 303.993 263.582 295.671 264.764C287.607 266.39 277.614 259.803 276.496 249.445C274.802 239.34 283.261 227.533 295.671 226.468C307.84 224.725 321.502 234.997 322.515 249.445C324.317 263.64 312.187 279.133 295.671 280.082C279.399 281.941 262.056 267.98 261.157 249.445C259.243 231.151 275.053 211.991 295.671 211.15C316.029 209.185 337.076 226.81 337.855 249.445C339.885 271.827 320.382 294.675 295.671 295.399M357.671 343.445C357.795 344.848 355.188 345.617 353.836 343.445C352.375 341.527 353.449 337.072 357.671 335.786C361.647 334.264 367.939 337.186 369.176 343.445C370.751 349.463 365.993 357.582 357.671 358.764C349.607 360.39 339.614 353.803 338.496 343.445C336.802 333.34 345.261 321.533 357.671 320.468C369.84 318.725 383.502 328.997 384.515 343.445C386.317 357.64 374.187 373.133 357.671 374.082C341.399 375.941 324.056 361.98 323.157 343.445C321.243 325.151 337.053 305.991 357.671 305.15C378.029 303.185 399.076 320.81 399.855 343.445C401.885 365.827 382.382 388.675 357.671 389.4M419.671 249.445C419.795 250.848 417.188 251.617 415.836 249.445C414.375 247.527 415.449 243.072 419.671 241.786C423.647 240.264 429.939 243.186 431.176 249.445C432.751 255.463 427.993 263.582 419.671 264.764C411.607 266.39 401.614 259.803 400.496 249.445C398.802 239.34 407.261 227.533 419.671 226.468C431.84 224.725 445.502 234.997 446.515 249.445C448.317 263.64 436.187 279.133 419.671 280.082C403.399 281.941 386.056 267.98 385.157 249.445C383.243 231.151 399.053 211.991 419.671 211.15C440.029 209.185 461.076 226.81 461.855 249.445C463.885 271.827 444.382 294.675 419.671 295.399" stroke="#1E1E1E" stroke-width="5" stroke-linecap="round"/>
</svg>
