<svg width="153" height="157" viewBox="0 0 153 157" fill="none" xmlns="http://www.w3.org/2000/svg">
<path fill-rule="evenodd" clip-rule="evenodd" d="M148.698 89.3842C147.375 87.9116 144.221 86.6238 139.057 85.446C135.25 84.5786 130.795 81.7683 125.259 81.3081C119.498 80.8237 113.15 82.0327 108.691 84.453C107.991 84.8321 107.328 85.2096 106.706 85.5762C96.6371 84.6488 91.4197 88.6479 90.662 89.2836H49.8515C48.1514 88.8889 41.4915 84.3587 37.956 82.9843C32.4261 81.0366 26.5321 80.429 20.7352 81.2075C14.7775 82.1318 6.2412 89.0605 5.8802 89.3514C5.82777 89.3959 5.7912 89.4575 5.77616 89.5254C5.76114 89.594 5.76849 89.665 5.79709 89.729C5.82569 89.7921 5.87393 89.8444 5.93432 89.8772C5.9947 89.9091 6.06385 89.9201 6.131 89.9084H148.412C148.729 89.9084 148.888 89.5971 148.698 89.3842Z" fill="black"/>
<path d="M147.326 107.355C147.213 107.355 135.961 107.763 127.393 110.903C118.7 114.088 115.758 113.747 106.949 110.903C97.8293 107.953 99.5773 109.265 82.4203 110.89C65.4259 112.503 70.9937 109.325 63.9401 107.369C56.9231 105.419 55.5566 110.46 42.7278 111.728C38.7036 112.127 36.1097 111.89 34.6482 111.405C38.8282 110.461 41.4715 109.255 41.3659 108.2C41.2899 107.451 40.045 107.167 37.6601 107.359C35.1567 107.559 33.1981 108.429 32.6722 109.577C32.5512 109.831 32.5125 110.119 32.5615 110.397C32.6106 110.676 32.745 110.931 32.9451 111.126C31.8241 111.342 30.5731 111.546 29.1876 111.729C17.5011 113.274 4.25963 110.92 4.12815 110.893C4.05074 110.883 3.97259 110.904 3.90988 110.952C3.84715 111 3.80466 111.07 3.79119 111.149C3.77772 111.228 3.7943 111.309 3.83749 111.375C3.88069 111.443 3.94721 111.489 4.02327 111.507C4.15551 111.532 17.4829 113.907 29.2651 112.347C30.8193 112.142 32.2755 111.899 33.6025 111.63C35.181 112.517 38.4125 112.779 42.7855 112.349C55.7055 111.071 57.0264 106.1 63.7813 107.971C70.5628 109.851 65.2656 113.144 82.4773 111.511C99.5606 109.89 97.8035 108.599 106.768 111.499C115.732 114.399 118.738 114.743 127.599 111.499C136.076 108.392 147.235 107.989 147.347 107.989C147.428 107.986 147.504 107.95 147.558 107.89C147.613 107.83 147.643 107.75 147.64 107.667C147.634 107.484 147.492 107.312 147.326 107.355ZM33.2217 109.839C33.5667 109.087 35.1171 108.183 37.7057 107.977C38.1959 107.938 38.6101 107.922 38.9612 107.922C39.4537 107.922 40.9927 107.982 40.6978 108.39C40.2418 109.01 38.0424 110.071 33.7127 110.972C33.2893 110.684 33.0059 110.309 33.2217 109.839Z" fill="black"/>
<path d="M20.4571 109.635C19.4671 109.635 18.4779 109.582 17.4931 109.479C14.2175 109.133 13.4848 108.709 13.3929 108.18C13.2241 107.206 15.533 106.609 16.6061 105.803C15.3248 105.28 7.0841 105.339 6.07178 105.426C5.99115 105.427 5.91335 105.395 5.85548 105.338C5.79762 105.28 5.76443 105.201 5.76322 105.118C5.76201 105.036 5.79287 104.955 5.84903 104.896C5.90519 104.837 5.98203 104.803 6.06266 104.802C10.0975 104.679 16.9223 104.625 17.2917 105.62C17.3272 105.724 17.328 105.838 17.2937 105.942C17.2594 106.047 17.1921 106.136 17.1024 106.197C16.3523 106.843 14.0905 107.693 13.9917 108.089C14.0252 108.135 14.3717 108.521 17.5554 108.858C22.7994 109.409 27.0257 108.312 27.6185 107.738C27.2648 107.61 26.8923 107.546 26.5173 107.546C26.4367 107.542 26.3612 107.504 26.3075 107.442C26.2539 107.38 26.2264 107.299 26.2312 107.216C26.2359 107.133 26.2725 107.056 26.3328 107C26.3932 106.946 26.4724 106.918 26.553 106.923C27.8351 107.001 28.1217 107.269 28.225 107.493C28.2643 107.579 28.2797 107.674 28.2697 107.769C28.2597 107.863 28.2245 107.953 28.168 108.029C27.6345 108.811 24.4265 109.635 20.4571 109.635Z" fill="black"/>
<path d="M43.9272 99.2575C42.1253 99.2575 40.6661 99.0032 40.4806 98.3745C40.3089 97.7895 41.0886 97.3676 41.7407 97.0922C39.7845 97.2841 36.2756 97.8246 34.2676 97.6507C32.9392 97.536 32.6466 97.4385 32.6177 97.1047C32.5744 96.593 33.3252 96.5922 34.7723 96.132C32.0226 96.2272 24.4956 97.0532 19.5806 97.6538C19.5407 97.6585 19.5003 97.6554 19.4616 97.6437C19.4229 97.6328 19.3868 97.614 19.3553 97.5883C19.2917 97.536 19.2506 97.4612 19.2413 97.3777C19.2319 97.295 19.255 97.2123 19.3054 97.1468C19.3558 97.0813 19.4293 97.0392 19.51 97.0298C35.945 95.0229 36.1236 95.5283 36.2216 95.8013C36.2488 95.884 36.2464 95.9745 36.215 96.0556C36.1835 96.1375 36.1251 96.2046 36.0498 96.2459C35.4004 96.5915 34.7084 96.8442 33.9925 96.9986C36.0317 97.0868 38.0745 96.9698 40.0915 96.6492C42.7728 96.3325 43.1171 96.3169 43.2166 96.7272C43.3048 97.0875 42.9347 97.2794 42.0675 97.6328C41.1487 98.0072 41.0643 98.2349 41.0643 98.2349C41.3478 98.6694 45.03 98.9369 48.7928 98.1226C53.7548 97.0454 59.4328 98.3309 62.9379 98.1078C62.9778 98.1054 63.0178 98.1109 63.0557 98.1242C63.0935 98.1374 63.1285 98.1577 63.1585 98.185C63.1885 98.2123 63.2131 98.2451 63.2307 98.2817C63.2483 98.3192 63.2587 98.3589 63.2613 98.3995C63.2638 98.4408 63.2584 98.4822 63.2455 98.5204C63.2326 98.5594 63.2124 98.5953 63.1859 98.6265C63.1595 98.6569 63.1274 98.6826 63.0915 98.7006C63.0556 98.7185 63.0165 98.7294 62.9766 98.7318C59.4571 98.9611 53.7586 97.6858 48.9166 98.7318C47.274 99.0726 45.603 99.2489 43.9272 99.2575Z" fill="black"/>
<path d="M116.548 93.7538C115.056 93.7109 113.566 93.583 112.087 93.37C113.919 92.8389 114.798 92.9418 114.735 92.3927C114.697 92.062 114.653 91.6556 102.575 91.6221C102.494 91.6221 102.417 91.6548 102.36 91.7133C102.303 91.7718 102.271 91.8514 102.271 91.9341C102.271 92.0168 102.303 92.0963 102.36 92.1548C102.417 92.2133 102.494 92.2461 102.575 92.2461C105.821 92.2632 110.664 92.3475 112.979 92.5066C111.54 92.8357 111.037 92.9957 111.073 93.4309C111.103 93.8061 111.128 94.1001 116.523 94.3762C116.601 94.3747 116.675 94.3435 116.731 94.2873C116.786 94.232 116.819 94.1571 116.822 94.0775C116.825 93.9972 116.798 93.9199 116.748 93.8599C116.697 93.7998 116.626 93.7616 116.548 93.7538Z" fill="black"/>
<path d="M140.639 93.7593C138.934 93.4091 133.271 93.5978 132.855 94.1399C132.819 94.1906 132.797 94.2499 132.789 94.3123C132.781 94.3747 132.79 94.4379 132.812 94.4964C132.879 94.6462 132.933 94.7624 133.902 94.8404C131.353 95.0635 127.2 95.3193 122.899 95.5018C115.1 95.8326 113.032 96.4043 108.215 96.0931C107.121 96.0814 106.032 95.9433 104.969 95.6812C105.771 95.1454 106.803 95.1048 106.682 94.5385C106.619 94.2429 106.515 93.746 96.9716 94.2718C96.8911 94.2764 96.8151 94.3131 96.7611 94.3747C96.7071 94.4364 96.679 94.5175 96.6836 94.6002C96.6881 94.6828 96.7239 94.7608 96.7839 94.8162C96.8439 94.8716 96.923 94.9005 97.0035 94.8958C100.366 94.7117 104.008 94.6165 105.516 94.7195C104.616 95.1095 104.203 95.3786 104.266 95.785C104.338 96.253 104.942 96.5088 108.179 96.721C110.794 96.8739 113.417 96.8169 116.023 96.5517C125.371 95.8458 136.896 95.7631 136.891 94.764C136.891 94.4317 136.679 94.3482 135.371 94.292C137.085 94.1282 138.813 94.1563 140.521 94.3763C140.561 94.3841 140.601 94.3841 140.64 94.3763C140.68 94.3677 140.717 94.3513 140.751 94.3287C140.784 94.3053 140.813 94.2765 140.835 94.2414C140.858 94.207 140.873 94.1688 140.881 94.1282C140.888 94.0877 140.888 94.0464 140.881 94.0058C140.872 93.9652 140.856 93.927 140.834 93.8927C140.811 93.8584 140.783 93.8287 140.749 93.8061C140.716 93.7827 140.678 93.7671 140.639 93.7593Z" fill="black"/>
<path d="M130.995 98.9088C130.982 98.8276 130.94 98.7543 130.875 98.7044C130.811 98.6545 130.732 98.6326 130.652 98.642C127.042 99.1506 125.989 98.9446 125.86 99.5725C125.724 100.238 127.484 100.88 128.091 101.395C127.099 101.637 123.09 101.292 119.687 101.551L117.943 101.682C111.301 102.17 110.039 102.384 109.997 103.021C109.948 103.784 111.814 103.795 112.626 104.197C110.915 105.062 101.786 104.956 101.405 103.963C101.345 103.811 101.611 103.486 101.806 103.248C102.098 102.892 102.399 102.524 102.232 102.133C101.92 101.406 99.9516 101.521 97.3144 101.492C97.6048 101.36 97.9513 101.21 98.2926 101.061C98.6133 100.922 99.2099 100.662 99.102 100.217C99.0389 99.9626 98.874 99.2863 91.3994 99.9485C91.3188 99.9555 91.2443 99.9953 91.1919 100.059C91.1402 100.122 91.1144 100.204 91.1212 100.287C91.1288 100.37 91.1676 100.447 91.2291 100.5C91.2914 100.554 91.3712 100.58 91.4518 100.573C93.7227 100.317 96.0103 100.251 98.2918 100.378C98.2302 100.411 98.1527 100.448 98.0577 100.489C96.2694 101.269 95.9943 101.388 96.068 101.762C96.1767 102.313 96.8926 102.016 100.483 102.175C100.888 102.155 101.293 102.22 101.673 102.365C101.64 102.792 98.8474 104.68 103.356 105.205C104.663 105.345 105.976 105.412 107.29 105.407C110.244 105.407 113.209 105.086 113.338 104.267C113.461 103.47 111.728 103.349 110.868 103.057C112.212 102.682 117.354 102.355 119.736 102.174C124.388 101.82 128.527 102.558 128.786 101.572C128.967 100.888 127.617 100.456 126.631 99.7395C126.926 99.6833 127.436 99.6326 127.968 99.5835C128.698 99.5101 129.606 99.4204 130.738 99.2613C130.818 99.2496 130.889 99.2052 130.937 99.1396C130.985 99.0733 131.006 98.9907 130.995 98.9088Z" fill="black"/>
<path d="M11.6922 115.494C11.6218 115.494 11.5536 115.469 11.4991 115.423C11.4447 115.377 11.4076 115.313 11.394 115.242C11.3803 115.172 11.3911 115.098 11.4244 115.035C11.4577 114.971 11.5115 114.921 11.5767 114.893C12.6778 114.433 13.8959 114.359 15.0423 114.682C15.1177 114.712 15.1788 114.77 15.2121 114.846C15.2453 114.921 15.2478 115.007 15.2193 115.084C15.1908 115.162 15.1335 115.225 15.06 115.258C14.9864 115.293 14.9027 115.296 14.8272 115.266C13.4463 114.727 11.8571 115.494 11.6922 115.494Z" fill="black"/>
<path d="M16.135 115.494C16.0663 115.494 15.9996 115.471 15.9458 115.426C15.8919 115.382 15.8541 115.322 15.8385 115.253C15.8229 115.184 15.8304 115.112 15.8598 115.049C15.8892 114.985 15.9389 114.933 16.0005 114.902C16.9626 114.454 18.049 114.376 19.0625 114.681C19.1343 114.711 19.1922 114.768 19.2245 114.84C19.2568 114.912 19.2611 114.994 19.2364 115.07C19.2119 115.144 19.1602 115.208 19.092 115.245C19.0238 115.283 18.9442 115.292 18.8695 115.272C17.9599 115.024 16.9954 115.103 16.135 115.494Z" fill="black"/>
<path d="M17.3462 117.443C16.6448 116.931 15.0989 117.226 14.5631 117.382C14.4862 117.403 14.4043 117.392 14.335 117.352C14.2658 117.311 14.2148 117.245 14.1929 117.166C14.171 117.088 14.18 117.004 14.2179 116.932C14.2559 116.86 14.3198 116.807 14.3959 116.782C16.3643 116.215 18.2012 116.747 17.7703 117.369C17.7472 117.403 17.7179 117.431 17.6841 117.453C17.6503 117.474 17.6126 117.489 17.5732 117.496C17.5339 117.503 17.4935 117.502 17.4546 117.493C17.4156 117.484 17.3788 117.467 17.3462 117.443Z" fill="black"/>
<path d="M13.486 130.356C13.039 130.147 12.5539 130.038 12.0628 130.036C11.5717 130.035 11.0858 130.14 10.6375 130.346C10.5658 130.384 10.4824 130.391 10.4054 130.366C10.3284 130.341 10.2642 130.286 10.2271 130.213C10.1899 130.139 10.1827 130.053 10.2071 129.975C10.2314 129.895 10.2854 129.83 10.357 129.791C10.8878 129.541 11.465 129.411 12.0492 129.411C12.6333 129.411 13.2105 129.541 13.7413 129.791C13.8089 129.83 13.8598 129.893 13.8838 129.968C13.9078 130.043 13.9032 130.124 13.8707 130.196C13.8383 130.268 13.7805 130.324 13.7091 130.354C13.6377 130.383 13.5579 130.384 13.486 130.356Z" fill="black"/>
<path d="M13.401 128.208C14.1217 127.556 14.965 127.062 15.8789 126.758C16.7928 126.454 17.7578 126.345 18.7142 126.439C19.9924 126.59 21.2559 126.85 22.4914 127.219C24.9067 127.88 25.0549 127.779 26.3438 127.543C28.4949 127.001 30.748 127.058 32.8707 127.707C32.9422 127.738 32.9998 127.795 33.0316 127.867C33.0634 127.94 33.067 128.022 33.0419 128.097C33.0166 128.172 32.9644 128.235 32.8959 128.272C32.8274 128.309 32.7478 128.317 32.6731 128.296C30.6469 127.686 28.4994 127.639 26.4495 128.158C25.1058 128.402 24.8679 128.515 22.3341 127.822C21.1305 127.462 19.8995 127.206 18.6542 127.058C17.786 126.976 16.9107 127.075 16.0808 127.348C15.251 127.623 14.4837 128.066 13.8251 128.653C13.7664 128.703 13.6914 128.729 13.6148 128.725C13.5383 128.721 13.466 128.688 13.4124 128.632C13.3589 128.575 13.3279 128.501 13.3258 128.423C13.3237 128.344 13.3506 128.267 13.401 128.208Z" fill="black"/>
<path d="M17.8039 130.648C17.9111 130.57 20.4807 128.791 22.5653 129.044C24.5831 129.291 25.3325 129.806 26.9437 129.59C27.0218 129.583 27.0994 129.608 27.1603 129.659C27.2213 129.709 27.2607 129.782 27.2705 129.862C27.2803 129.942 27.2597 130.022 27.213 130.087C27.1662 130.152 27.097 130.195 27.0197 130.209C25.2884 130.443 24.4653 129.908 22.4901 129.663C20.6213 129.425 18.1665 131.145 18.1429 131.161C18.0767 131.197 18.0001 131.206 17.9277 131.188C17.8552 131.169 17.792 131.123 17.7501 131.06C17.7082 130.996 17.6906 130.919 17.7004 130.844C17.7104 130.767 17.7472 130.698 17.8039 130.648Z" fill="black"/>
<path d="M16.7567 139.76C18.8756 138.552 21.2202 138.478 20.9914 139.251C20.9797 139.29 20.9606 139.327 20.9352 139.358C20.9097 139.39 20.8785 139.416 20.8431 139.435C20.8079 139.455 20.7693 139.466 20.7294 139.47C20.6897 139.474 20.6496 139.469 20.6114 139.458C19.2936 139.046 17.0744 140.293 17.0516 140.306C16.9814 140.342 16.9002 140.349 16.8249 140.326C16.7496 140.303 16.6862 140.249 16.6481 140.179C16.6099 140.108 16.5998 140.025 16.6201 139.947C16.6403 139.869 16.6894 139.802 16.7567 139.76Z" fill="black"/>
<path d="M13.0602 136.32C13.1787 136.167 13.3257 136.041 13.4925 135.947C13.6594 135.854 13.8427 135.796 14.0318 135.776C14.2209 135.757 14.4119 135.775 14.5937 135.832C14.7754 135.89 14.9442 135.984 15.0901 136.109C15.1594 136.151 15.2095 136.22 15.2294 136.3C15.2492 136.381 15.2371 136.466 15.1958 136.537C15.1544 136.608 15.0872 136.659 15.009 136.68C14.9308 136.7 14.8478 136.687 14.7785 136.645C13.9319 136.126 13.5815 136.645 13.5663 136.664C13.5199 136.728 13.4513 136.771 13.3748 136.785C13.2983 136.799 13.2195 136.782 13.1547 136.738C13.0899 136.694 13.044 136.626 13.0264 136.548C13.0089 136.47 13.0209 136.389 13.0602 136.32Z" fill="black"/>
<path d="M32.0986 133.442C32.03 133.442 31.9634 133.418 31.9097 133.375C31.8559 133.331 31.8183 133.269 31.8028 133.201C31.7873 133.132 31.7948 133.06 31.8242 132.996C31.8537 132.933 31.9033 132.882 31.9648 132.85C33.4344 132.242 35.0646 132.18 36.5742 132.674C36.6516 132.698 36.7169 132.751 36.7556 132.824C36.7942 132.896 36.8032 132.982 36.7806 133.061C36.7579 133.141 36.7054 133.208 36.6346 133.247C36.5639 133.287 36.4806 133.297 36.4032 133.273C34.9909 132.829 33.4736 132.889 32.0986 133.442Z" fill="black"/>
<path d="M47.6699 142.746C46.0692 142.691 44.4681 142.842 42.9039 143.196C42.8252 143.212 42.7433 143.196 42.6761 143.15C42.609 143.105 42.562 143.035 42.5455 142.954C42.529 142.873 42.5444 142.789 42.5882 142.72C42.632 142.65 42.7007 142.602 42.7793 142.585C44.412 142.218 46.0833 142.065 47.7535 142.128C49.4787 142.373 52.6312 144.408 55.9022 142.615C55.9716 142.586 56.0488 142.585 56.1192 142.611C56.1895 142.637 56.248 142.689 56.2834 142.756C56.3189 142.824 56.3289 142.903 56.3114 142.977C56.2939 143.052 56.2502 143.118 56.1887 143.161C52.6441 145.11 49.2948 142.975 47.6699 142.746ZM49.9499 141.533C48.6959 139.927 45.6179 141.339 45.5845 141.354C45.5481 141.371 45.5088 141.381 45.4689 141.382C45.4289 141.384 45.3891 141.377 45.3516 141.363C45.3142 141.348 45.2799 141.326 45.2507 141.298C45.2214 141.27 45.1979 141.236 45.1813 141.199C45.1647 141.162 45.1554 141.122 45.1541 141.08C45.1527 141.04 45.1592 140.998 45.1732 140.96C45.1872 140.922 45.2085 140.887 45.2358 140.856C45.263 140.827 45.2957 140.803 45.3321 140.785C45.4712 140.721 48.629 139.271 50.2455 140.941C50.9007 140.617 51.6141 140.434 52.341 140.406C53.068 140.377 53.7928 140.503 54.4704 140.774C54.5433 140.803 54.6028 140.859 54.6364 140.932C54.6699 141.005 54.675 141.087 54.6505 141.164C54.6261 141.239 54.574 141.303 54.505 141.341C54.4361 141.379 54.3557 141.388 54.2804 141.366C51.8286 140.539 50.4279 141.548 50.3694 141.592C50.306 141.639 50.2273 141.659 50.1498 141.648C50.0722 141.637 50.0017 141.597 49.9529 141.533H49.9499Z" fill="black"/>
<path d="M62.747 140.677C62.2689 140.194 61.075 140.559 60.6532 140.741C60.5991 140.764 60.5397 140.771 60.482 140.761C60.4242 140.75 60.3707 140.723 60.3279 140.682C60.0481 140.395 59.6686 140.233 59.273 140.233C58.8773 140.233 58.4979 140.395 58.2181 140.682C58.1889 140.71 58.1547 140.732 58.1173 140.746C58.0799 140.761 58.0401 140.768 58.0002 140.766C57.9602 140.765 57.921 140.756 57.8846 140.739C57.8481 140.722 57.8153 140.697 57.788 140.668C57.7606 140.638 57.7392 140.603 57.7252 140.564C57.711 140.526 57.7044 140.485 57.7057 140.444C57.7069 140.403 57.7161 140.363 57.7325 140.325C57.749 140.288 57.7725 140.254 57.8016 140.226C58.1693 139.854 58.6582 139.634 59.1743 139.61C59.6902 139.586 60.1968 139.758 60.5962 140.094C61.1008 139.906 62.4475 139.503 63.1733 140.23C63.2311 140.288 63.264 140.367 63.2648 140.45C63.2657 140.534 63.2344 140.613 63.1779 140.672C63.1213 140.732 63.0442 140.765 62.9633 140.766C62.8825 140.768 62.8047 140.735 62.747 140.677Z" fill="black"/>
<path d="M64.6518 139.31C63.9503 138.764 62.5375 139.154 62.0511 139.35C61.9762 139.38 61.8929 139.378 61.8194 139.345C61.7459 139.312 61.688 139.25 61.6585 139.174C61.629 139.097 61.6302 139.012 61.6619 138.936C61.6936 138.86 61.7532 138.8 61.8276 138.77C61.912 138.736 63.9017 137.942 65.0196 138.811C65.084 138.861 65.1264 138.935 65.1374 139.018C65.1485 139.1 65.1273 139.183 65.0785 139.249C65.0297 139.315 64.9574 139.359 64.8774 139.37C64.7973 139.381 64.7162 139.36 64.6518 139.31Z" fill="black"/>
<path d="M119.834 125.635C119.352 125.358 118.82 125.184 118.27 125.123C117.721 125.063 117.165 125.117 116.637 125.283C116.6 125.297 116.56 125.303 116.52 125.302C116.48 125.299 116.441 125.29 116.405 125.272C116.369 125.255 116.336 125.231 116.309 125.2C116.282 125.17 116.261 125.135 116.247 125.096C116.234 125.058 116.228 125.017 116.23 124.976C116.231 124.935 116.241 124.895 116.258 124.858C116.275 124.82 116.299 124.787 116.328 124.76C116.357 124.732 116.392 124.71 116.43 124.696C117.042 124.498 117.688 124.43 118.327 124.499C118.966 124.568 119.584 124.771 120.142 125.097C120.209 125.14 120.258 125.209 120.276 125.288C120.295 125.366 120.283 125.45 120.243 125.52C120.203 125.59 120.138 125.642 120.061 125.663C119.985 125.684 119.903 125.675 119.834 125.635Z" fill="black"/>
<path d="M132.515 127.029C132.444 127.029 132.376 127.004 132.322 126.958C132.267 126.912 132.23 126.848 132.216 126.777C132.203 126.706 132.213 126.633 132.247 126.569C132.279 126.505 132.333 126.455 132.399 126.428C132.54 126.367 135.915 124.962 138.973 126.433C139.046 126.468 139.103 126.532 139.131 126.61C139.158 126.688 139.154 126.773 139.12 126.848C139.085 126.924 139.024 126.982 138.948 127.01C138.872 127.038 138.788 127.034 138.715 126.999C135.854 125.619 132.616 127.029 132.515 127.029Z" fill="black"/>
<path d="M133.294 125.388C132.262 125.006 131.133 124.998 130.096 125.366C130.021 125.396 129.938 125.394 129.865 125.362C129.791 125.328 129.733 125.267 129.704 125.19C129.675 125.114 129.675 125.028 129.707 124.952C129.739 124.877 129.799 124.816 129.873 124.786C131.015 124.373 132.259 124.373 133.401 124.786C133.466 124.813 133.521 124.862 133.555 124.925C133.589 124.988 133.601 125.061 133.589 125.132C133.576 125.203 133.539 125.268 133.486 125.314C133.432 125.361 133.364 125.387 133.294 125.388Z" fill="black"/>
<path d="M106.857 122.647C106.784 122.647 106.713 122.62 106.658 122.571C106.603 122.522 106.567 122.453 106.557 122.379C106.546 122.305 106.563 122.229 106.602 122.166C106.642 122.103 106.703 122.057 106.773 122.036C108.186 121.629 109.667 121.531 111.12 121.748C111.196 121.767 111.261 121.817 111.303 121.884C111.345 121.952 111.359 122.034 111.343 122.113C111.328 122.192 111.283 122.261 111.219 122.307C111.155 122.352 111.076 122.371 110.998 122.359C109.614 122.161 108.204 122.26 106.857 122.647Z" fill="black"/>
<path d="M138.746 132.064C137.787 131.736 136.755 131.712 135.782 131.993C135.744 132.007 135.705 132.012 135.665 132.009C135.625 132.007 135.586 131.996 135.551 131.977C135.478 131.94 135.423 131.876 135.397 131.798C135.371 131.719 135.376 131.634 135.412 131.559C135.449 131.485 135.511 131.429 135.588 131.402C136.689 131.071 137.863 131.096 138.951 131.474C139.027 131.502 139.089 131.56 139.124 131.635C139.159 131.709 139.163 131.795 139.136 131.873C139.109 131.952 139.053 132.016 138.98 132.051C138.907 132.087 138.822 132.092 138.746 132.064Z" fill="black"/>
<path d="M97.6413 139.978C97.6786 139.933 98.5807 138.899 100.389 139.744C100.463 139.778 100.52 139.841 100.548 139.918C100.577 139.996 100.574 140.082 100.541 140.157C100.508 140.232 100.446 140.291 100.371 140.32C100.296 140.349 100.212 140.347 100.139 140.313C98.7555 139.668 98.1247 140.357 98.0988 140.391C98.0456 140.453 97.9704 140.491 97.8898 140.496C97.8093 140.501 97.7295 140.474 97.6687 140.419C97.6086 140.364 97.5714 140.287 97.5661 140.204C97.5608 140.122 97.5881 140.04 97.6413 139.978Z" fill="black"/>
<path d="M106.71 142.33C106.371 142.15 105.995 142.055 105.614 142.055C105.232 142.055 104.856 142.15 104.517 142.33C104.482 142.35 104.444 142.363 104.404 142.369C104.365 142.374 104.325 142.372 104.286 142.361C104.248 142.35 104.211 142.332 104.179 142.307C104.148 142.282 104.122 142.251 104.102 142.215C104.081 142.18 104.068 142.141 104.063 142.1C104.058 142.06 104.061 142.019 104.071 141.979C104.081 141.939 104.1 141.902 104.124 141.87C104.148 141.837 104.178 141.81 104.213 141.789C104.643 141.556 105.122 141.434 105.607 141.434C106.094 141.434 106.573 141.556 107.003 141.789C107.062 141.834 107.102 141.9 107.118 141.974C107.134 142.047 107.122 142.125 107.086 142.191C107.051 142.256 106.993 142.307 106.924 142.333C106.855 142.359 106.779 142.357 106.71 142.33Z" fill="black"/>
<path fill-rule="evenodd" clip-rule="evenodd" d="M14.9422 16.1304C15.9598 15.2537 16.58 15.4978 18.391 15.1445C20.2021 14.7911 28.6222 12.2187 31.3946 13.4004C34.1671 14.5821 31.3361 16.3823 33.5804 16.5383C35.8247 16.6943 39.1041 16.823 40.618 18.0983C42.1319 19.3736 38.2909 20.6481 39.2865 22.1543C40.2821 23.6605 44.0426 23.4569 45.4349 24.6768C46.8272 25.8968 48.4217 27.8226 45.4349 28.4208C42.4481 29.0191 39.5928 29.7749 38.2909 29.225C36.989 28.6751 37.1129 28.1049 34.0911 28.4208C31.0694 28.7367 27.7626 31.3178 24.6671 31.122C18.2702 30.7172 23.1365 30.3233 16.6727 31.122C14.0446 31.4472 7.9608 33.7248 7.23956 31.122C6.51832 28.5191 3.39016 29.016 4.20944 26.6916C5.02872 24.3672 9.16008 25.1433 8.9602 23.6028C8.76032 22.0623 8.4206 21.8267 10.4878 20.8853C12.555 19.9438 9.53476 19.3253 13.6395 18.0936C17.7443 16.862 13.9215 17.0079 14.9422 16.1304Z" fill="white"/>
<path d="M45.6329 24.4328C44.1972 23.1731 40.4261 23.3119 39.5384 21.9719C38.7693 20.8104 42.5959 19.3573 40.8114 17.8527C38.6599 16.0415 33.3155 16.4721 32.9766 16.0446C32.6999 15.6936 33.8513 14.1032 31.5113 13.1087C29.1713 12.1142 23.1999 13.6282 19.9882 14.4402C19.0133 14.7242 18.017 14.9241 17.0097 15.0377C16.1798 15.0468 15.3784 15.3499 14.7411 15.8957C14.1331 16.4222 14.5663 16.8168 15.1895 17.185C14.6678 17.4493 14.1197 17.6549 13.5548 17.7981C11.1182 18.5297 10.9586 19.128 11.0019 19.8339C11.0202 20.124 11.0308 20.3019 10.3643 20.603C8.50763 21.4485 8.37766 21.8151 8.58742 23.1512C8.70598 23.9219 8.89902 24.0396 7.12822 24.4936C5.92058 24.8056 4.4173 25.187 3.92482 26.5887C2.99686 29.2196 6.26562 28.7493 6.9443 31.2008C7.6055 33.5861 11.8957 32.466 14.3581 31.9028C16.5439 31.4013 16.0423 31.5128 20.5491 30.9536C21.9003 31.2222 23.2699 31.3815 24.6455 31.4301C27.8321 31.6384 31.1389 29.041 34.1204 28.7274C37.038 28.4264 36.8305 28.9404 38.1735 29.5074C39.5855 30.1002 42.4401 29.3304 45.493 28.7212C47.675 28.2828 48.4031 26.8609 45.6329 24.4328ZM46.8055 27.2844C46.6847 27.7524 45.9619 27.9919 45.3775 28.1081C42.5845 28.6674 39.6159 29.4435 38.4053 28.9302C37.1247 28.3905 37.1893 27.7758 34.0581 28.1042C31.0097 28.4232 27.6741 30.9902 24.6827 30.8038C23.289 30.753 21.9013 30.5923 20.5316 30.3233C15.9245 30.9208 16.4967 30.7695 14.2236 31.2905C11.5955 31.895 7.99158 32.721 7.52798 31.03C6.76798 28.2782 3.78574 28.8125 4.49482 26.8008C5.25938 24.6278 9.51463 25.5232 9.26079 23.5646C9.06547 22.0592 8.77211 22.0101 10.6098 21.1731C11.5833 20.7301 11.6365 20.2683 11.6077 19.7941C11.5856 19.4439 11.5613 19.0461 13.7235 18.3963C15.5072 17.8605 15.8515 17.5797 15.8865 17.2217C15.9321 16.7537 15.3423 16.6023 15.0907 16.4105C15.9571 15.5852 16.7171 15.7943 18.4431 15.4557C20.1417 15.125 28.6347 12.5651 31.2765 13.6875C33.2973 14.5455 31.8624 15.6297 32.5031 16.4401C32.7851 16.7989 33.2167 16.8301 34.0512 16.8824C36.1792 17.0235 39.0931 17.2178 40.4238 18.3386C40.6617 18.5383 40.6678 18.6787 40.6701 18.7247C40.7119 19.5741 38.0344 20.8167 39.0338 22.3252C40.1236 23.9718 43.9153 23.7526 45.2361 24.9101C46.367 25.8968 46.9385 26.7626 46.8055 27.2844Z" fill="black"/>
<path fill-rule="evenodd" clip-rule="evenodd" d="M44.7224 34.0416C46.0699 33.8419 51.9842 31.5643 54.2938 32.6259C56.6035 33.6875 56.1528 34.3419 58.6631 34.6336C61.1733 34.9253 64.357 36.6109 63.5217 38.0219C62.6865 39.4329 59.0035 39.9243 58.166 41.4032C57.6617 42.2799 56.8729 42.9467 55.9378 43.2867C55.0027 43.6266 53.9808 43.6182 53.0512 43.2627C50.6405 42.4781 50.7879 40.4547 48.0048 41.6201C45.2217 42.7854 43.9259 43.4031 41.6079 41.6201C39.2899 39.837 37.5586 43.0389 35.7156 42.1661C33.8726 41.2932 35.1836 39.8034 32.228 39.291C29.2723 38.7785 31.012 37.178 32.228 36.639C33.444 36.1 36.1116 33.462 39.03 33.6563C41.9484 33.8505 43.3749 34.2405 44.7224 34.0416Z" fill="white"/>
<path d="M52.9595 43.5599C52.2048 43.301 51.5126 42.8801 50.9288 42.3252C50.0099 41.5327 49.6177 41.28 47.9184 41.9944C45.2789 43.1044 43.8265 43.7159 41.4257 41.8704C39.2795 40.2145 37.6341 43.4211 35.5889 42.4515C33.5217 41.475 35.0136 40.0928 32.178 39.6014C31.0031 39.3978 30.3723 38.9875 30.3016 38.3799C30.202 37.5219 31.3276 36.7006 32.1089 36.3574C32.5397 36.1337 32.9529 35.8757 33.3446 35.586C37.1644 32.966 38.1402 33.1953 41.8521 33.6172C44.4361 33.9129 44.4885 33.8318 46.3688 33.2897C52.4282 31.544 53.7962 31.6337 56.2487 33.4285C56.9495 33.9897 57.808 34.3037 58.6967 34.3239C60.678 34.5579 63.2081 35.6647 63.8168 36.9416C64.9834 39.3885 59.3579 39.9181 58.4292 41.5592C57.8944 42.5018 57.0518 43.2197 56.0508 43.586C55.0496 43.9521 53.9546 43.9429 52.9595 43.5599ZM53.1442 42.9655C54.0073 43.3017 54.9585 43.3139 55.8295 42.9999C56.7005 42.6858 57.4353 42.0659 57.904 41.2495C58.9278 39.4431 64.041 38.8409 63.2719 37.2201C62.8159 36.263 60.602 35.1804 58.6275 34.9479C55.9949 34.6359 56.4737 33.9737 54.1701 32.9153C52.5361 32.1657 48.7787 33.2467 46.5337 33.8941C44.5713 34.4604 44.4642 34.5462 41.7852 34.242C38.0756 33.8161 37.3453 33.597 33.6821 36.1086C33.2593 36.4196 32.8128 36.6951 32.3467 36.9322C31.5487 37.2817 30.8617 37.9369 30.9027 38.3066C30.9354 38.589 31.4484 38.8425 32.2753 38.986C35.3495 39.5187 34.2027 41.1115 35.8397 41.8845C37.4767 42.6574 39.3023 39.4594 41.7875 41.3704C43.9109 43.0038 45.0935 42.5069 47.6851 41.4172C50.985 40.0296 50.7167 42.1762 53.1442 42.9624V42.9655Z" fill="black"/>
<path fill-rule="evenodd" clip-rule="evenodd" d="M120.529 49.5144C123.316 50.02 125.99 51.0408 128.421 52.5268C130.997 54.1281 133.72 52.1649 137.029 51.3038C140.339 50.4426 146.016 53.2616 144.862 55.5158C143.708 57.77 139.542 58.3643 142.354 60.4103C145.166 62.4562 145.037 64.5911 142.354 65.2759C139.671 65.9607 138.375 65.0801 137.028 66.6354C135.681 68.1908 132.735 67.1814 129.576 67.1814C127.144 67.1814 123.702 68.2469 120.528 66.6354C117.353 65.024 119.996 62.7354 115.201 63.2331C110.406 63.7307 107.825 65.5559 106.855 63.2331C105.885 60.9102 109.909 58.2801 106.855 57.6608C103.802 57.0414 105.705 53.799 111.208 52.5276C116.711 51.2562 113.933 48.36 120.529 49.5144Z" fill="white"/>
<path d="M120.395 66.9154C119.918 66.7051 119.489 66.3941 119.137 66.0024C118.785 65.6109 118.517 65.1475 118.351 64.6425C118.012 63.7907 117.808 63.2744 115.235 63.5443C110.491 64.0372 107.667 65.9623 106.58 63.3563C106.092 62.1863 106.703 60.9843 107.195 60.0163C107.85 58.7246 108.073 58.2223 106.801 57.968C105.281 57.656 105.107 56.7809 105.102 56.4174C105.084 55.0321 107.154 53.1461 111.145 52.2234C116.501 50.9878 113.833 48.0262 120.583 49.2079C123.407 49.7214 126.116 50.7561 128.581 52.2616C131.007 53.7662 133.65 51.8645 136.958 51.0026C139.599 50.3178 143.478 51.8302 144.802 53.5533C146.11 55.2576 144.739 56.5173 143.018 57.7559C141.618 58.7652 141.162 59.1599 142.534 60.1567C145.79 62.524 145.137 64.889 142.432 65.5785C139.772 66.2587 138.487 65.4225 137.259 66.8429C135.784 68.5464 132.787 67.4911 129.583 67.4911C127.237 67.4911 123.648 68.5636 120.395 66.9154ZM116.361 62.8524C118.145 62.8524 118.539 63.4663 118.914 64.4046C119.054 64.8384 119.282 65.2368 119.583 65.573C119.885 65.9093 120.253 66.1758 120.662 66.3546C123.753 67.9193 127.122 66.8655 129.577 66.8655C132.663 66.8655 135.589 67.8272 136.803 66.4271C138.254 64.7494 139.641 65.6471 142.282 64.9724C144.981 64.2821 144.48 62.3353 142.18 60.6645C141.436 60.124 141.091 59.6341 141.092 59.1217C141.092 57.752 143.76 56.9962 144.593 55.3691C145.566 53.4752 140.226 50.7913 137.104 51.6056C133.804 52.4636 130.98 54.483 128.263 52.7935C125.864 51.3288 123.226 50.322 120.477 49.8217C114.017 48.6876 116.949 51.5206 111.276 52.8318C107.415 53.7233 105.695 55.4603 105.707 56.4073C105.715 57.0196 106.467 57.2653 106.915 57.3534C107.179 57.3716 107.435 57.4532 107.663 57.5916C107.891 57.7301 108.084 57.9216 108.226 58.1506C108.826 59.4344 106.432 61.4211 107.136 63.109C107.668 64.3843 108.68 64.2096 111.127 63.6496C112.842 63.2088 114.595 62.9418 116.361 62.8524Z" fill="black"/>
<path d="M11.8174 69.1767C11.4192 69.1767 11.5894 68.6151 11.0742 68.3967C10.6824 68.2919 10.2667 68.34 9.90755 68.5316C9.83596 68.5658 9.75418 68.5702 9.67947 68.5436C9.60484 68.517 9.54321 68.4617 9.50764 68.3893C9.47207 68.3169 9.46538 68.2331 9.48894 68.1557C9.5125 68.0783 9.56456 68.0134 9.63395 67.9747C9.94509 67.7836 10.3037 67.6897 10.666 67.704C11.0283 67.7184 11.3787 67.8407 11.6746 68.0558C11.8088 67.6264 12.0561 67.2434 12.3892 66.9491C12.7221 66.6548 13.1279 66.4607 13.5616 66.3882C13.6403 66.3766 13.7202 66.3971 13.7843 66.4452C13.8485 66.4935 13.8916 66.5654 13.9046 66.6459C13.9176 66.7264 13.8995 66.8088 13.8539 66.8757C13.8085 66.9425 13.7392 66.9884 13.6612 67.0036C13.2376 67.0968 12.8562 67.332 12.5771 67.672C12.2979 68.012 12.1369 68.4376 12.1192 68.8818C12.1149 68.9611 12.0813 69.0359 12.0252 69.0906C11.9692 69.1454 11.8949 69.1762 11.8174 69.1767Z" fill="black"/>
<path d="M21.2732 63.9546C20.6257 63.2042 19.393 61.964 18.8412 61.8283C18.2178 61.7758 17.5932 61.9162 17.0484 62.2316C16.9788 62.2622 16.9006 62.2649 16.8291 62.2394C16.7575 62.2138 16.698 62.1619 16.6618 62.0935C16.6257 62.0253 16.6157 61.9456 16.6338 61.8701C16.6519 61.7947 16.6967 61.7289 16.7596 61.6856C17.4377 61.3042 18.2126 61.1429 18.9818 61.223C19.6879 61.3962 20.8203 62.549 21.3918 63.1676C21.7201 62.3416 22.4558 60.7738 23.3898 60.5023C24.1689 60.3015 24.9842 60.3015 25.7633 60.5023C25.8398 60.5255 25.9043 60.5785 25.9431 60.6501C25.9817 60.7216 25.9915 60.8058 25.9703 60.8847C25.9491 60.9635 25.8986 61.0307 25.8296 61.0716C25.7606 61.1127 25.6787 61.1241 25.6014 61.1037C24.9296 60.9353 24.2281 60.9353 23.5563 61.1037C22.8723 61.3018 22.1123 62.8977 21.7885 63.854C21.7707 63.9053 21.7402 63.9509 21.6999 63.9863C21.6596 64.0217 21.6111 64.0456 21.559 64.0558C21.5069 64.066 21.4531 64.062 21.403 64.0442C21.3529 64.0265 21.3081 63.9956 21.2732 63.9546Z" fill="black"/>
<path d="M12.8418 59.4399C12.7523 58.6977 12.4983 57.9863 12.0993 57.3604C11.8439 57.1857 11.0603 57.3862 10.6142 57.5788C10.5404 57.6069 10.4589 57.6045 10.3867 57.5721C10.3147 57.5398 10.2576 57.48 10.2276 57.4053C10.1976 57.3306 10.1969 57.247 10.2258 57.1718C10.2547 57.0966 10.3108 57.036 10.3824 57.0024C10.6173 56.9018 11.8219 56.419 12.4405 56.8417C12.8019 57.2122 13.0531 57.6805 13.1648 58.1919C13.5068 57.192 14.1292 55.866 15.0739 55.6039C15.9084 55.3643 16.7912 55.3668 17.6245 55.6109C17.6622 55.6242 17.6971 55.6451 17.7271 55.6722C17.7569 55.6994 17.7814 55.7323 17.7989 55.7691C17.8164 55.8059 17.8268 55.8459 17.8292 55.8869C17.8317 55.9277 17.8263 55.9688 17.8133 56.0075C17.8003 56.0463 17.78 56.0821 17.7536 56.1128C17.7271 56.1436 17.6951 56.1686 17.6592 56.1866C17.6233 56.2046 17.5843 56.2152 17.5444 56.2177C17.5046 56.2202 17.4646 56.2147 17.4269 56.2014C16.7083 56.0004 15.9503 56.0023 15.2327 56.2068C14.2881 56.4681 13.6185 58.6365 13.4399 59.4501C13.426 59.5217 13.3881 59.5862 13.3327 59.632C13.2773 59.6779 13.2079 59.7024 13.1367 59.7011C13.0655 59.7 12.997 59.6731 12.9431 59.6254C12.8892 59.5777 12.8533 59.5121 12.8418 59.4399Z" fill="black"/>
<path d="M21.5544 70.1704C22.471 68.7664 24.1156 66.3936 24.8399 66.3406C24.9077 66.3334 24.9764 66.3429 25.04 66.3684C25.1035 66.3939 25.1603 66.4347 25.2054 66.4872C25.373 66.6811 25.5255 66.8882 25.6614 67.1066C25.9753 66.5606 26.448 66.1362 26.9869 66.4186C27.8732 67.0794 28.6957 67.8259 29.4432 68.6478C29.4974 68.7076 29.5266 68.7867 29.5246 68.8683C29.5225 68.9499 29.4895 69.0275 29.4324 69.0843C29.3753 69.1412 29.2988 69.1728 29.2193 69.1724C29.1397 69.1721 29.0635 69.1397 29.007 69.0823C28.7957 68.8592 26.8698 66.8523 26.5924 66.9669C26.3644 67.0598 26.0825 67.5722 25.9677 67.8897C25.9467 67.9477 25.9092 67.9979 25.8603 68.0341C25.8112 68.0702 25.7529 68.0905 25.6926 68.0925C25.3506 68.0995 25.4372 67.7345 24.8239 66.9896C23.7573 68.0379 22.8276 69.2237 22.0583 70.5175C22.0113 70.5806 21.9426 70.6229 21.8662 70.6359C21.7898 70.6488 21.7116 70.6314 21.6473 70.5871C21.583 70.5428 21.5377 70.4751 21.5203 70.3977C21.5031 70.3202 21.5153 70.239 21.5544 70.1704Z" fill="black"/>
<path fill-rule="evenodd" clip-rule="evenodd" d="M61.1115 120.253C62.4964 117.92 64.6507 116.175 67.1831 115.333C65.7946 114.44 64.1636 113.831 64.3042 110.341C62.2097 111.818 59.9764 113.077 57.6375 114.097C57.6375 114.097 56.7939 115.94 56.0293 117.475C55.2648 119.01 57.0774 119.51 58.0927 120.024C59.1081 120.538 59.9699 119.773 61.1115 120.253Z" fill="white"/>
<path fill-rule="evenodd" clip-rule="evenodd" d="M61.971 131.499C61.2581 132.591 57.0105 131.388 54.9493 129.237C52.4968 126.674 53.972 123.315 52.398 119.76C50.8241 116.206 52.683 114.644 52.683 114.644C52.2193 114.463 51.7051 114.478 51.2517 114.684C50.7983 114.89 50.4418 115.27 50.2594 115.743C49.4933 117.496 50.5945 120.161 51.581 121.54C52.5675 122.919 51.6988 127.951 53.7417 129.822C56.5636 132.404 60.7314 134.534 61.971 131.499Z" fill="white"/>
<path fill-rule="evenodd" clip-rule="evenodd" d="M61.1112 120.253C59.9628 119.79 59.1071 120.537 58.0925 120.019C57.0779 119.501 55.2637 119.005 56.0291 117.47C56.7944 115.935 57.6372 114.092 57.6372 114.092C57.3947 113.853 57.0972 113.682 56.7725 113.593C56.4478 113.505 56.1065 113.502 55.7805 113.586C54.5151 113.803 54.2697 114.253 52.7968 114.609C52.7968 114.609 50.7835 116.148 52.3567 119.702C53.9299 123.256 52.5376 126.599 54.9901 129.162C57.4427 131.725 62.8067 133.098 61.8811 130.644C60.9554 128.19 59.959 127.96 60.5549 125.574C61.1507 123.188 62.2588 120.717 61.1112 120.253Z" fill="#81F8F8"/>
<path fill-rule="evenodd" clip-rule="evenodd" d="M67.1826 115.333C71.4736 113.878 77.9503 109.815 77.9503 109.815C79.3723 106.916 79.1785 103.716 78.3645 100.401C78.3645 100.401 71.6005 103.057 69.8776 104.776C68.1547 106.495 65.7736 109.231 64.3038 110.34C64.2148 112.602 64.9163 114.41 67.1826 115.333Z" fill="#FFD997"/>
<path fill-rule="evenodd" clip-rule="evenodd" d="M88.751 63.9662C89.0215 62.6882 89.1834 61.3884 89.2351 60.0818L90.4359 60.3649C91.11 59.614 91.9027 58.9851 92.7805 58.5046C93.2699 58.4021 93.7784 58.4996 94.1987 58.7765C94.6189 59.0532 94.9169 59.4874 95.0301 59.9866C95.1753 60.0133 95.3128 60.0725 95.4337 60.1599C95.5537 60.2473 95.6541 60.3608 95.727 60.4924C95.8 60.624 95.8441 60.7704 95.8555 60.9213C95.8669 61.0721 95.8463 61.2239 95.7947 61.3657C95.9375 61.5879 95.9983 61.8546 95.9679 62.1188C95.9375 62.3831 95.8167 62.6276 95.6275 62.8094C95.7164 63.0125 95.7627 63.2326 95.7627 63.4553C95.7627 63.6779 95.7164 63.898 95.6275 64.1011C95.6275 64.1011 96.0242 64.9771 94.7223 65.3023C93.4204 65.6276 91.5782 65.7633 90.4359 65.0371L88.751 63.9662Z" fill="#FFD997"/>
<path d="M95.9777 62.8726C96.148 62.6555 96.2521 62.392 96.2772 62.1147C96.303 61.8373 96.2483 61.5584 96.1206 61.3126C96.2065 60.9939 96.17 60.6535 96.0188 60.3615C95.8675 60.0697 95.6122 59.8486 95.3067 59.744C95.1311 59.2003 94.7655 58.7424 94.2807 58.4584C93.7958 58.1745 93.2258 58.0846 92.6801 58.2058C91.7985 58.6625 91.0043 59.2772 90.334 60.0209L89.3004 59.7775C89.2229 59.7621 89.1431 59.778 89.0769 59.8221C89.0108 59.8661 88.9637 59.9347 88.9462 60.0136C88.928 60.0924 88.9409 60.1752 88.9819 60.2445C89.0222 60.3139 89.0876 60.3643 89.1636 60.3852C90.4905 60.6972 90.5004 60.7455 90.6532 60.5794C91.2893 59.8591 92.0417 59.257 92.8777 58.7994C93.0905 58.7488 93.3124 58.7487 93.5252 58.7993C93.738 58.8498 93.9371 58.9497 94.1066 59.0912C94.3285 59.2369 94.5094 59.4406 94.6295 59.6814C94.7496 59.9222 94.8051 60.1915 94.7906 60.4616C94.837 61.0597 94.7123 61.6586 94.4327 62.1854C94.0093 62.7236 93.8672 60.9452 93.8931 60.1964C93.9075 59.7705 93.32 59.8844 93.4447 59.875C93.0761 59.9094 91.857 60.0708 91.6009 60.7003C91.3653 61.2814 91.5819 61.6574 91.9969 61.7861C91.8996 61.8744 91.8243 61.9853 91.7772 62.1095C91.7301 62.2336 91.7126 62.3675 91.7255 62.5001C91.7392 62.6327 91.7833 62.76 91.854 62.8717C91.9247 62.9835 92.0204 63.0762 92.1329 63.1425C92.0333 63.1943 91.9497 63.273 91.8912 63.3701C91.8319 63.467 91.8 63.5787 91.7985 63.6931C91.7962 63.8074 91.8251 63.92 91.8813 64.0189C91.9376 64.1177 92.0181 64.199 92.1162 64.254C91.7438 64.4427 91.4709 64.722 91.5302 65.1393C90.7345 64.9638 90.4662 64.6978 88.9059 63.701C88.8375 63.6617 88.757 63.6511 88.681 63.6712C88.6057 63.6914 88.5404 63.7409 88.4986 63.8093C88.4575 63.8777 88.4439 63.9598 88.4606 64.0385C88.4765 64.1171 88.5221 64.1862 88.5867 64.2313L90.2709 65.3015C91.4922 66.0815 93.393 65.9536 94.7891 65.6049C95.8136 65.3483 96.0986 64.6962 95.9466 64.1089C96.0895 63.7116 96.1009 63.2769 95.9777 62.8726ZM95.4252 63.7361C94.7025 63.7217 93.9797 63.779 93.2676 63.9069C91.8357 64.1939 91.8768 63.2883 95.4184 63.1269C95.4685 63.3264 95.4716 63.5354 95.426 63.7361H95.4252ZM93.3884 61.7299C93.4371 62.0658 93.5655 62.3842 93.7631 62.6565C93.5549 62.6877 93.3474 62.7252 93.1498 62.7696C92.5418 62.7353 92.4035 62.5824 92.3753 62.5356C92.3548 62.5107 92.3419 62.4809 92.3366 62.449C92.3313 62.4171 92.3343 62.3843 92.3449 62.3539C92.4422 62.0996 93.0267 61.8313 93.3884 61.7299ZM95.4039 60.5451C95.4822 60.6471 95.5331 60.7687 95.5506 60.8975C95.5681 61.0262 95.5521 61.1574 95.5035 61.2775C95.4913 61.322 95.4891 61.3687 95.4959 61.4143C95.5027 61.46 95.5195 61.5035 95.5445 61.5419C95.6373 61.6869 95.6813 61.8588 95.6715 62.0319C95.6608 62.2049 95.5962 62.3699 95.4868 62.5021C95.3401 62.5083 95.1539 62.5169 94.9441 62.5317C95.2793 61.9281 95.4381 61.2388 95.4039 60.5451ZM93.2851 60.5232C93.2851 60.6972 93.2927 60.9023 93.3094 61.1176C93.0373 61.1706 92.7614 61.2056 92.4848 61.2221C91.8221 61.2323 92.006 60.7128 93.2851 60.5232ZM92.196 65.2344C92.1686 65.1557 92.1527 65.0731 92.1489 64.9895C92.4529 64.4825 94.7329 64.353 95.3789 64.3608C95.4412 65.1845 92.9324 65.2906 92.196 65.2344Z" fill="black"/>
<path fill-rule="evenodd" clip-rule="evenodd" d="M85.1991 72.3098C85.1991 72.3098 87.2108 86.1159 87.1751 90.4838C85.3047 89.8731 80.5684 90.54 76.0206 93.1413C74.5857 89.7514 71.8185 82.7673 70.129 79.2214C68.4396 75.6755 67.241 72.997 68.2549 70.3443C68.6349 69.3537 70.5174 64.8304 71.152 63.2837L85.1991 72.3098Z" fill="white"/>
<path fill-rule="evenodd" clip-rule="evenodd" d="M66.4746 40.8423C68.2682 39.0085 69.998 37.7106 71.1646 36.0063C72.3312 34.302 75.0056 31.742 77.6588 32.8683C80.3119 33.9946 80.9883 34.9743 82.8268 36.4446C84.6652 37.9149 85.9564 36.578 85.9564 36.578C85.9564 36.578 89.5672 43.623 89.7853 48.1142C90.0034 52.6054 88.8999 60.5903 88.8627 63.0395C88.8254 65.4887 85.7026 71.4557 85.1235 72.4775C80.5103 69.4254 75.533 66.996 70.3149 65.2492C72.8229 60.5349 72.585 54.2918 71.6669 47.668L72.702 46.8093C71.689 42.5427 70.1758 40.5669 66.4746 40.8423Z" fill="black"/>
<path fill-rule="evenodd" clip-rule="evenodd" d="M77.1194 21.9273L75.6533 22.776C75.6533 22.776 76.3556 22.3805 76.2743 20.8954C76.1929 19.4103 76.1268 19.273 77.1194 18.2683C77.1194 18.2683 75.3797 19.4906 75.0674 20.4266C75.0674 20.4266 76.0774 15.5539 80.9255 16.0929C81.953 15.6862 83.0656 15.5586 84.1555 15.7224C86.1163 15.9627 90.56 16.5539 92.1172 14.9299C92.1431 15.3 92.0359 15.6669 91.817 15.962C91.5981 16.2572 91.282 16.4604 90.9278 16.5336C90.9278 16.5336 93.0763 17.1358 93.3089 20.4266L92.1172 18.8206L92.4927 21.2776L89.8783 18.2683C90.0242 18.7074 90.0637 19.1765 89.9915 19.6346C89.9201 20.0927 89.7392 20.5256 89.4663 20.8954C89.4663 20.8954 88.2952 21.2932 87.5717 21.6465C87.5717 21.6465 88.9085 19.8588 88.5171 18.8206C88.5171 18.8206 87.3467 20.9921 85.7256 21.6465C85.6314 21.7122 85.5295 21.7646 85.4216 21.8025C85.8016 23.6878 86.1368 23.9241 86.1862 26.0145C85.3669 25.8086 84.8075 25.8187 84.2793 24.7899C83.7511 23.7611 82.5405 22.464 81.5274 23.3688C80.5143 24.2736 81.9993 26.2158 81.9993 26.2158C81.9705 26.7864 81.7349 27.3252 81.3374 27.7259C80.9407 28.1265 80.4117 28.3597 79.8554 28.3795C79.4001 25.9825 77.1642 25.2322 77.1194 21.9273Z" fill="#81F8F8"/>
<path fill-rule="evenodd" clip-rule="evenodd" d="M89.9282 18.4486C90.3455 18.7551 90.04 18.4533 91.7697 20.447C91.9544 21.4056 92.2523 23.1879 92.0198 23.645C91.6968 24.2775 91.4026 24.971 92.3846 25.517C93.3665 26.063 93.5162 26.1729 93.656 26.5107C93.7959 26.8484 93.7548 27.0699 93.504 27.1971C93.2532 27.3242 92.0236 27.6315 92.0236 27.6315C92.0236 27.6315 92.6118 28.4115 92.3884 28.8015C92.2014 29.0699 91.9453 29.2791 91.6481 29.4053C91.6481 29.4053 92.0935 29.7664 91.8161 30.1587L91.1154 31.147C91.1154 31.147 92.2462 33.8349 88.0404 32.5409L85.9641 36.5797C85.654 36.842 85.2816 37.0162 84.8849 37.0846C84.4889 37.1531 84.0816 37.1134 83.7046 36.9697C81.9566 35.4068 80.0558 34.0339 78.0327 32.8731C79.2837 32.3451 80.4199 29.7804 79.8567 28.3811C81.7696 27.9443 81.7157 27.4365 82.0007 26.2174C82.0007 26.2174 80.5156 24.2752 81.5287 23.3704C82.5418 22.4656 83.7517 23.7604 84.2807 24.7916C84.8096 25.8227 85.3682 25.8102 86.1875 26.0162C86.1366 23.8751 85.8151 23.7386 85.423 21.8042C85.5309 21.7663 85.6327 21.7138 85.727 21.6482C87.348 20.9937 88.5184 18.8222 88.5184 18.8222C88.9098 19.8604 87.573 21.6482 87.573 21.6482C88.2965 21.2948 89.4677 20.897 89.4677 20.897C89.7314 20.5572 89.9108 20.1571 89.9906 19.7308C90.0711 19.3044 90.0491 18.8646 89.9282 18.4486Z" fill="#FFD997"/>
<path fill-rule="evenodd" clip-rule="evenodd" d="M72.6363 138.044C72.7731 139.37 75.1094 139.562 76.8163 139.711C78.8166 139.886 78.4754 139.295 81.6742 140.631C84.8731 141.966 87.2222 141.6 89.7918 141.295C91.3118 141.114 92.2063 140.582 92.6562 139.918C91.3224 143.922 84.335 143.083 81.3915 142.414C79.3836 141.958 77.3255 141.784 75.272 141.894C73.3226 141.873 71.244 141.05 71.5199 140.228C71.8301 139.469 72.2037 138.738 72.6363 138.044Z" fill="white"/>
<path fill-rule="evenodd" clip-rule="evenodd" d="M82.2896 132.563C79.6858 132.303 79.9541 134.302 79.9541 134.302C79.9541 134.302 76.8753 135.126 75.4701 134.302C75.2971 134.245 75.1443 134.137 75.0308 133.991C74.9172 133.846 74.848 133.669 74.8318 133.484C74.8156 133.298 74.8531 133.112 74.9396 132.948C75.0261 132.784 75.1577 132.65 75.3181 132.563C75.3181 132.563 76.7682 126.982 76.2742 122.756C77.3739 123.282 78.5732 123.555 79.7861 123.555C80.9998 123.555 82.1991 123.282 83.2988 122.756C82.3663 125.408 81.7234 130.892 82.2896 132.563Z" fill="white"/>
<path fill-rule="evenodd" clip-rule="evenodd" d="M82.2896 132.563C83.6492 133.114 84.8949 133.924 85.9604 134.951C87.6825 136.631 88.7131 137.172 89.7893 137.239C90.8654 137.306 92.8855 137.161 93.0109 138.421C93.1363 139.681 92.3573 140.985 89.7893 141.291C87.2212 141.596 84.8698 141.963 81.6717 140.627C78.4736 139.291 78.8141 139.882 76.8138 139.707C74.8135 139.533 71.9498 139.295 72.7858 137.239C73.6218 135.184 72.4879 132.818 75.3151 132.559C75.1547 132.647 75.0231 132.781 74.9366 132.945C74.8501 133.109 74.8126 133.295 74.8288 133.481C74.845 133.666 74.9142 133.843 75.0278 133.988C75.1413 134.134 75.2941 134.242 75.4671 134.299C76.8708 135.123 79.9511 134.299 79.9511 134.299C79.9511 134.299 79.6858 132.303 82.2896 132.563Z" fill="#81F8F8"/>
<path fill-rule="evenodd" clip-rule="evenodd" d="M76.2743 122.756C75.7803 118.528 75.1776 116.984 76.2743 113.54C77.371 110.095 78.6949 109.952 78.8385 105.488C78.9822 101.024 77.4523 96.5327 76.0182 93.1436C79.5355 91.4096 83.1789 90.2069 87.1727 90.4861C87.1332 94.8541 86.757 97.4281 87.0868 99.9912C87.4167 102.554 88.3028 104.84 87.6735 106.958C87.0443 109.076 86.2379 110.319 85.9605 112.065C85.2773 115.679 84.3888 119.249 83.3005 122.756C80.6945 124.035 78.438 123.62 76.2743 122.756Z" fill="#FFD997"/>
<path d="M92.4055 22.843C92.4002 22.7752 92.3744 22.7109 92.3303 22.66C92.2862 22.6089 92.2277 22.5741 92.1623 22.5607C90.6636 22.2487 85.8505 23.0107 83.6283 23.5692C83.5561 23.5871 83.4923 23.6316 83.4497 23.6945C83.4071 23.7573 83.3881 23.8339 83.3973 23.91C83.4064 23.986 83.4421 24.0559 83.4976 24.1065C83.5538 24.1572 83.626 24.185 83.7005 24.1846C85.4386 23.786 87.1965 23.4855 88.9665 23.2845C89.1368 24.5879 89.6597 26.4622 90.9327 26.4045C92.2839 26.353 92.5074 24.2135 92.4055 22.843Z" fill="black"/>
<path fill-rule="evenodd" clip-rule="evenodd" d="M83.2039 26.0044C83.1279 26.2603 83.5899 26.6799 83.7473 26.9287C84.0019 27.332 83.7602 27.6097 83.3969 27.3062C82.7828 26.837 82.3496 26.1606 82.1741 25.396C82.1497 23.8852 84.0437 24.6815 83.2039 26.0044Z" fill="black"/>
<path d="M100.214 33.8278C98.4154 32.5939 95.5981 32.5798 95.5016 32.5798C95.421 32.5804 95.3435 32.5481 95.2858 32.4901C95.2288 32.432 95.1961 32.3529 95.1953 32.2702C95.1946 32.1874 95.2265 32.1078 95.2827 32.0489C95.339 31.9899 95.4165 31.9564 95.497 31.9558C95.649 31.9683 98.5766 31.9558 100.552 33.3083C100.619 33.3544 100.666 33.4259 100.681 33.5072C100.697 33.5884 100.681 33.6727 100.636 33.7416C100.591 33.8105 100.521 33.8583 100.442 33.8745C100.363 33.8906 100.28 33.8738 100.214 33.8278Z" fill="black"/>
<path d="M101.117 32.0665C99.3036 32.0205 96.0705 31.0525 94.3096 30.4621C94.2716 30.4491 94.2366 30.4285 94.2062 30.4016C94.1766 30.3746 94.1515 30.3419 94.1333 30.3052C94.1158 30.2685 94.1052 30.2285 94.1021 30.1875C94.0998 30.1467 94.1044 30.1056 94.1173 30.0666C94.1302 30.0277 94.15 29.9917 94.1766 29.9607C94.2024 29.9297 94.2344 29.9043 94.2701 29.8861C94.3058 29.8677 94.3446 29.8568 94.3848 29.8539C94.4244 29.851 94.4646 29.8563 94.5026 29.8693C96.661 30.6095 98.8833 31.1369 101.14 31.4441C101.216 31.4518 101.288 31.4895 101.339 31.5493C101.39 31.6092 101.417 31.6868 101.414 31.7663C101.411 31.8458 101.378 31.9211 101.324 31.9768C101.268 32.0327 101.194 32.0648 101.117 32.0665Z" fill="black"/>
<path d="M99.7816 35.8464C99.7626 35.615 99.7914 35.3822 99.8652 35.1628C99.9396 34.9434 100.057 34.7424 100.212 34.5726C100.266 34.5113 100.342 34.4746 100.422 34.4706C100.503 34.4665 100.582 34.4956 100.641 34.5512C100.701 34.6069 100.737 34.6846 100.741 34.7673C100.745 34.85 100.716 34.931 100.662 34.9923C100.478 35.1924 100.377 35.4585 100.38 35.7341C100.409 35.8901 100.532 36.0226 100.754 36.1357C101.202 36.3697 101.641 36.4173 101.899 35.9751C101.077 35.6997 100.941 35.0391 101.636 34.5289C102.155 34.1514 102.724 34.5609 102.658 35.4891C104.905 35.6451 105.617 34.121 104.909 32.958C104.829 33.0662 104.717 33.1452 104.59 33.1833C104.463 33.2214 104.328 33.2165 104.204 33.1694C103.379 32.9081 103.221 32.5189 103.235 32.2389C103.256 32.0688 103.332 31.9107 103.449 31.789C103.567 31.6674 103.721 31.5889 103.886 31.5657C104.085 31.5395 104.287 31.5833 104.459 31.6897C104.411 31.3832 104.33 31.0829 104.218 30.7943C103.953 30.1056 103.63 29.8302 103.453 29.8115C103.208 29.8231 102.973 29.9143 102.782 30.0719C102.591 30.2294 102.453 30.4453 102.389 30.6882C102.37 30.7688 102.321 30.8385 102.252 30.8817C102.183 30.925 102.1 30.9385 102.022 30.9191C101.944 30.8998 101.875 30.8492 101.834 30.7786C101.791 30.708 101.778 30.6229 101.797 30.5424C101.891 30.1674 102.1 29.8335 102.394 29.5898C102.687 29.3459 103.049 29.2052 103.426 29.1883C104.463 29.129 105.127 31.143 105.109 32.203C105.458 32.5509 105.684 33.0075 105.753 33.5015C105.822 33.9954 105.729 34.4989 105.489 34.933C104.931 35.9681 103.452 36.2005 102.518 36.103C101.909 37.5725 99.9617 36.8307 99.7816 35.8464ZM102.07 34.8706C102.01 34.8562 101.948 34.8583 101.888 34.8769C101.829 34.8955 101.777 34.9296 101.734 34.9761C101.692 35.0225 101.663 35.0796 101.65 35.1413C101.637 35.2031 101.639 35.2674 101.658 35.3277C101.72 35.589 102.067 35.5515 102.226 35.6077C102.23 35.4244 102.358 34.9283 102.07 34.8706ZM104.443 32.2334C104.408 32.0673 104.299 31.9175 103.968 32.0088C103.554 32.1219 103.689 32.6141 104.18 32.7225C104.526 32.7989 104.465 32.334 104.443 32.2334Z" fill="black"/>
<path d="M93.9349 26.3905C93.7487 25.9365 93.4895 25.7782 92.5296 25.2439C91.8388 24.8601 91.9315 24.4888 92.2887 23.7884C92.3579 23.6527 92.5859 23.4694 92.2613 21.4819C92.3047 21.534 92.3624 21.5702 92.4278 21.585C92.4924 21.5997 92.56 21.5922 92.6208 21.5636C92.6809 21.5351 92.7303 21.4869 92.7614 21.4267C92.7933 21.3664 92.804 21.2974 92.7933 21.23L92.6041 19.9906L93.0677 20.6146C93.1072 20.6684 93.1627 20.7076 93.2258 20.7264C93.2889 20.7451 93.3565 20.7423 93.4181 20.7183C93.4796 20.6944 93.532 20.6508 93.567 20.5938C93.602 20.5368 93.6187 20.4697 93.6134 20.4024C93.4462 18.0523 92.354 16.9852 91.6374 16.5321C91.9026 16.358 92.1154 16.1123 92.2537 15.8219C92.3913 15.5316 92.4483 15.2078 92.4186 14.8863C92.411 14.8287 92.3875 14.7746 92.351 14.7299C92.3145 14.6853 92.2674 14.6519 92.2135 14.6335C91.5165 14.3995 92.2393 16.4057 84.1916 15.4135C83.0752 15.2528 81.9375 15.377 80.8788 15.7755C75.8826 15.2833 74.7813 20.3112 74.7707 20.3626C74.7555 20.44 74.7695 20.5204 74.8097 20.5876C74.85 20.6547 74.9135 20.7039 74.9876 20.7249C75.0616 20.746 75.1407 20.7374 75.2089 20.7011C75.2772 20.6647 75.3294 20.6031 75.3551 20.5288C75.4931 20.2103 75.6924 19.9238 75.9411 19.6864C75.881 20.4484 76.1949 21.9827 75.5451 22.4772C75.1165 22.804 75.4631 23.3602 75.9251 22.9585C76.1265 22.8579 76.4153 22.6941 76.8371 22.4491C76.9511 23.6823 77.4185 24.8531 78.1801 25.8141C79.1475 27.2181 79.6871 27.8421 79.6461 29.7312C79.6164 31.122 78.8739 31.8731 77.8525 32.6172C75.2237 31.487 72.4656 33.568 70.9137 35.8308C69.7851 37.4766 68.0181 38.8237 66.2587 40.6224C66.2147 40.6674 66.1852 40.7252 66.1743 40.788C66.1632 40.8507 66.1712 40.9154 66.1971 40.9734C66.223 41.0313 66.2656 41.0797 66.3192 41.1121C66.3727 41.1445 66.4346 41.1592 66.4966 41.1543C66.5217 41.1543 69.1718 40.9663 70.6842 42.6597C71.6191 43.7998 72.2088 45.1956 72.3805 46.6752L71.4769 47.431C71.4322 47.4685 71.3988 47.5182 71.3806 47.5744C71.3625 47.6307 71.3603 47.691 71.3743 47.7484C72.0987 51.7313 72.2867 55.7976 71.9329 59.833C71.7284 61.1215 69.8687 65.5496 69.2569 67.0371C67.2581 71.8949 66.5445 72.4144 69.8512 79.3611C71.03 81.8368 72.759 86.0472 74.1483 89.4293C76.2474 94.5414 78.7166 99.7315 78.5334 105.479C78.3898 109.939 77.129 109.847 75.9836 113.444C73.962 119.793 77.7256 121.285 75.0717 132.279C72.2391 132.669 73.2735 135.234 72.5051 137.122C72.39 137.387 72.3314 137.673 72.3334 137.962C71.9358 138.706 71.584 139.473 71.28 140.262C71.2395 140.384 71.2293 140.515 71.2503 140.643C71.2712 140.77 71.3227 140.89 71.4001 140.992C71.9534 141.795 73.8526 142.245 75.3582 142.263C77.3342 142.281 78.6072 142.018 81.4982 142.671C84.3695 143.321 88.8938 143.748 91.3585 142.082C91.9467 141.671 92.4308 141.121 92.7705 140.48C93.1103 139.838 93.2957 139.122 93.3117 138.392C93.1635 136.895 91.1373 137.013 89.8073 136.931C87.3236 136.775 86.2193 133.829 82.5348 132.329C82.1138 130.72 82.6329 125.572 83.5829 122.864C84.6811 119.339 85.5748 115.75 86.2596 112.117C86.5013 110.593 87.4118 108.919 87.9635 107.047C88.6171 104.839 87.7181 102.515 87.3875 99.9492C87.2233 98.2074 87.2096 96.454 87.3457 94.7099C87.522 90.7007 87.8457 88.4652 85.514 72.3715C85.9662 71.5431 89.1309 65.6424 89.1704 63.0489C89.2077 60.5389 90.3104 52.6671 90.0923 48.1041C89.8878 43.9007 86.8357 37.6467 86.3022 36.5843L88.1893 32.9136C89.7533 33.3629 90.7588 33.3036 91.2536 32.7288C91.4086 32.5114 91.5074 32.2576 91.5416 31.9906C91.5766 31.7236 91.5447 31.452 91.4504 31.2007L92.0584 30.3427C92.145 30.2233 92.1967 30.0804 92.2051 29.9316C92.2142 29.7828 92.1808 29.6345 92.1086 29.505C92.2583 29.439 92.3913 29.3381 92.4969 29.2103C92.6018 29.0825 92.6771 28.9312 92.7158 28.7686C92.7546 28.6059 92.7553 28.4363 92.7196 28.273C92.6831 28.1098 92.6102 27.9574 92.5068 27.828C92.8891 27.7364 93.2645 27.6197 93.6324 27.4786C93.8201 27.3865 94.2252 27.0925 93.9349 26.3905ZM77.9688 18.7761C77.7149 19.6783 77.2376 20.4976 76.584 21.1543C76.5947 19.5507 76.2382 19.5982 77.3334 18.4906C77.3881 18.436 77.4201 18.3624 77.4239 18.2844C77.4284 18.2064 77.4033 18.1297 77.3554 18.0694C77.3068 18.0091 77.2384 17.9697 77.1624 17.9589C77.0872 17.9481 77.0104 17.9666 76.9481 18.0109C76.8675 18.0671 76.5202 18.3151 76.1235 18.6591C76.6008 17.8303 77.3129 17.1703 78.1648 16.7671C79.016 16.364 79.9676 16.2368 80.8917 16.4026C81.9261 16.0307 83.0288 15.9042 84.1179 16.0329C86.2459 16.2926 89.7169 16.7122 91.6419 15.6639C91.4466 15.9471 91.1601 16.1499 90.8333 16.2364C90.771 16.2566 90.7163 16.297 90.6783 16.3516C90.6395 16.4062 90.6197 16.4721 90.6205 16.5394C90.622 16.6067 90.644 16.6718 90.6843 16.725C90.7238 16.7782 90.7801 16.8168 90.8432 16.8347C91.3387 17.0351 91.7772 17.3593 92.1185 17.778C92.4605 18.1966 92.6953 18.6963 92.8009 19.2316L92.3556 18.6318C92.3145 18.5768 92.2575 18.5374 92.1922 18.5195C92.1268 18.5016 92.0584 18.5065 91.9961 18.5333C91.9338 18.5601 91.8821 18.6072 91.8494 18.6675C91.816 18.7277 91.8031 18.7974 91.8129 18.8658L92.0295 20.2753L90.106 18.0609C90.0596 18.0073 89.9958 17.9719 89.9266 17.9607C89.8574 17.9495 89.7868 17.9631 89.726 17.9994C89.6659 18.0357 89.6196 18.0922 89.5945 18.1595C89.5702 18.2269 89.5687 18.3009 89.5915 18.369C89.7131 18.7434 89.7503 19.1416 89.6986 19.533C89.6469 19.9243 89.5094 20.2983 89.2951 20.6263C89.1385 20.6801 88.7676 20.8111 88.3602 20.9703C88.5784 20.6432 88.7296 20.2742 88.8056 19.8855C88.8816 19.4968 88.8801 19.0964 88.8011 18.7083C88.7805 18.653 88.744 18.6049 88.6977 18.5697C88.6513 18.5346 88.5959 18.5138 88.5381 18.5097C88.4803 18.5058 88.4226 18.5187 88.3724 18.5471C88.3215 18.5755 88.2797 18.6182 88.2516 18.67C87.6884 19.6865 86.8988 20.5519 85.948 21.1957C84.5557 20.0569 84.8635 19.0164 84.884 18.9602C84.9114 18.8822 84.9068 18.7964 84.8726 18.7216C84.8377 18.6467 84.7753 18.5891 84.7001 18.5612C84.6241 18.5335 84.5397 18.5377 84.4675 18.5732C84.3946 18.6087 84.3383 18.6724 84.311 18.7504C84.2897 18.8097 83.855 20.1232 85.3529 21.4944C85.1454 21.5756 84.9288 21.6268 84.7077 21.6465C82.4702 21.0888 82.411 18.3253 82.4094 18.2067C82.4087 18.124 82.376 18.0449 82.3183 17.9871C82.2605 17.9291 82.183 17.8971 82.1024 17.8978C82.0218 17.8987 81.9451 17.9324 81.8881 17.9914C81.8319 18.0506 81.8007 18.1302 81.8015 18.213C81.8417 19.4588 82.3365 20.6435 83.1884 21.5319C81.638 21.2659 79.5663 20.7222 80.2305 19.2738C80.2701 19.2014 80.2792 19.116 80.2571 19.0363C80.2351 18.9567 80.1827 18.8893 80.1127 18.849C80.0421 18.8088 79.9585 18.799 79.8809 18.8217C79.8034 18.8445 79.738 18.898 79.6985 18.9703C78.9826 20.0648 78.0425 20.9862 76.9451 21.6707C77.7089 20.9233 78.2644 19.98 78.554 18.9384C78.5684 18.8611 78.5532 18.7813 78.5129 18.7147C78.4719 18.6482 78.408 18.5998 78.3343 18.5794C78.2606 18.5589 78.1816 18.5678 78.1139 18.6042C78.0463 18.6407 77.9946 18.7021 77.9688 18.7761ZM77.4284 22.1036C78.2226 21.5911 78.934 20.9539 79.5359 20.2152C79.9212 21.6099 82.2552 22.0396 83.6597 22.237C84.1537 22.3144 84.6575 22.3041 85.1485 22.2066C85.3005 23.5107 85.7375 23.2876 85.8652 25.5738C85.2785 25.3804 84.7753 24.985 84.4402 24.4545C84.2449 23.9328 83.8831 23.4944 83.4142 23.211C82.9445 22.9277 82.395 22.8161 81.8562 22.8945C80.6349 23.1082 80.6052 24.8578 81.3508 25.896C81.4268 25.9997 81.5028 26.105 81.5909 26.208C81.5826 26.6419 81.429 27.0596 81.1554 27.3907C80.8818 27.7218 80.5057 27.946 80.0899 28.0254C79.542 25.8624 77.5333 24.9771 77.4284 22.1036ZM75.4881 132.818C75.5469 132.776 75.5896 132.714 75.609 132.643C76.1413 130.495 76.4852 128.302 76.638 126.091C78.31 127.003 80.4053 127.502 82.1047 126.613C81.768 128.464 81.6958 130.356 81.8911 132.229C80.4106 132.214 79.6924 133.009 79.6446 134.056C78.9188 134.222 76.692 134.658 75.6219 134.03C75.3939 133.897 75.1218 133.687 75.1089 133.442C75.1258 133.317 75.1683 133.197 75.2337 133.089C75.299 132.981 75.3857 132.889 75.4881 132.818ZM73.0668 137.36C73.2506 136.881 73.3698 136.38 73.4209 135.869C74.2507 136.833 74.8579 137.976 75.1971 139.214C74.2326 139.068 73.3449 138.817 73.0455 138.31C72.9737 138.162 72.9381 137.998 72.9418 137.833C72.9455 137.667 72.9884 137.505 73.0668 137.36V137.36ZM81.6297 142.058C78.5737 141.366 77.1845 141.668 75.365 141.634C73.7173 141.617 72.2148 141.088 71.8971 140.628C71.8318 140.533 71.8485 140.485 71.8561 140.461C72.0742 139.88 72.326 139.313 72.61 138.762C73.3541 139.763 75.4889 139.904 76.79 140.017C78.8192 140.196 78.4134 139.602 81.559 140.915C84.4881 142.138 86.6168 141.987 89.4797 141.642C90.1713 141.589 90.8523 141.435 91.5006 141.183C89.0123 143.561 82.9734 142.363 81.6297 142.059V142.058ZM89.7708 137.551C90.7634 137.609 92.6132 137.505 92.7082 138.452C92.845 139.819 91.7681 140.739 89.7541 140.979C86.8722 141.324 84.7654 141.581 81.7855 140.338C78.3282 138.894 79.2942 139.682 75.8438 139.3C75.458 137.689 74.6479 136.217 73.5022 135.046C73.5957 134.059 73.7128 133.344 74.5746 133.03C74.3223 133.689 74.719 134.219 75.3202 134.572C76.4541 135.238 78.5677 134.952 79.8391 134.65C80.6121 135.595 81.5932 136.338 82.7013 136.817C83.8094 137.296 85.0124 137.497 86.2117 137.405C86.2923 137.398 86.3668 137.358 86.4192 137.295C86.4716 137.231 86.4967 137.149 86.4899 137.066C86.4831 136.984 86.4443 136.907 86.3827 136.853C86.3204 136.8 86.2406 136.774 86.1601 136.781C86.0453 136.792 85.932 136.799 85.8196 136.803C86.1038 136.519 86.4374 136.29 86.8022 136.13C87.6147 136.923 88.6567 137.422 89.7708 137.551V137.551ZM85.8416 135.264C85.9936 135.413 86.1441 135.555 86.2923 135.687C85.8021 135.975 85.3621 136.344 84.9897 136.779C84.5709 136.739 84.1567 136.658 83.7531 136.535C84.2882 135.9 85.0071 135.457 85.8051 135.271C85.8173 135.27 85.8294 135.268 85.8416 135.264V135.264ZM85.299 134.761C84.4379 135.02 83.6901 135.576 83.1831 136.337C82.9179 136.229 82.6595 136.105 82.4087 135.965C82.6519 135.54 82.9764 135.168 83.3617 134.874C83.747 134.58 84.1856 134.367 84.6522 134.249C84.8658 134.404 85.0831 134.576 85.299 134.762V134.761ZM83.9758 133.782C83.1064 134.163 82.3753 134.815 81.8858 135.645C81.2748 135.241 80.7238 134.748 80.2511 134.182C80.2245 133.078 81.1509 132.768 82.2225 132.87C82.8328 133.119 83.4195 133.425 83.9758 133.783V133.782ZM82.2369 125.805C80.1599 127.293 77.3235 125.78 76.6699 125.394C76.6783 125.131 76.6821 124.868 76.6813 124.606C77.5546 125.082 78.5182 125.358 79.5055 125.417C80.4927 125.475 81.4807 125.315 82.4019 124.945C82.3441 125.226 82.2894 125.513 82.2369 125.805V125.805ZM82.5683 124.196C81.6342 124.644 80.6075 124.849 79.5784 124.794C78.5486 124.739 77.5485 124.425 76.6654 123.88C76.657 123.66 76.6433 123.443 76.6266 123.227C78.5479 123.929 80.9183 124.241 82.7765 123.398C82.7043 123.651 82.6352 123.919 82.5683 124.197V124.196ZM86.7855 100.029C87.1101 102.562 87.9802 104.846 87.3821 106.865C86.7673 108.942 85.9419 110.23 85.6607 112.013C84.9828 115.572 84.1103 119.089 83.0471 122.547C80.7078 124.034 77.3213 122.837 76.5544 122.533C76.065 118.447 75.5033 116.961 76.5628 113.634C77.645 110.24 78.9948 110.036 79.1415 105.496C79.2547 101.986 78.37 98.0077 76.4374 93.3519C77.2072 92.9143 82.2521 90.1711 86.8661 90.6336C86.8212 94.8464 86.458 97.4695 86.7855 100.029V100.029ZM89.4858 48.1322C89.7039 52.6336 88.6004 60.5397 88.5624 63.038C88.529 65.2821 85.7664 70.6648 84.9836 72.0673C84.9402 72.1198 84.9106 72.183 84.8984 72.2507C84.8855 72.3184 84.8908 72.3882 84.9121 72.4534C85.0854 73.6546 86.7772 85.4841 86.8653 90.0034C85.5938 89.8973 84.314 89.9691 83.0608 90.2171C81.8303 84.6479 78.5867 73.5329 78.5532 73.419C78.5266 73.344 78.4734 73.2821 78.4043 73.2462C78.3343 73.2104 78.2545 73.2031 78.1801 73.2261C78.1056 73.2491 78.0425 73.3005 78.0037 73.3698C77.965 73.4391 77.9536 73.5209 77.9718 73.5984C78.0037 73.7115 81.2398 84.7875 82.4642 90.3388C80.2754 90.8505 78.1656 91.6695 76.1949 92.7716C74.6848 89.1836 72.0476 82.5442 70.3992 79.081C68.6192 75.3425 67.6062 72.8956 68.5349 70.4542C69.4993 67.9177 72.2589 61.6621 72.534 59.9297C72.9004 55.8777 72.7242 51.7934 72.0104 47.7906C72.9558 46.9996 73.0174 47.002 73.0044 46.789C72.8509 45.1106 72.1976 43.5212 71.1333 42.237C70.0845 41.1825 68.6855 40.5747 67.2178 40.5358C68.7849 39.0007 70.3338 37.7605 71.413 36.1896C72.5241 34.5688 75.0686 32.1055 77.5416 33.1601C80.1401 34.2622 80.7914 35.2138 82.6428 36.6943C83.0646 37.1093 83.608 37.3695 84.1886 37.4343C84.7693 37.4991 85.3544 37.3648 85.853 37.0523C86.5545 38.482 89.2996 44.304 89.4858 48.133V48.1322ZM85.7162 36.3877C85.5293 36.5578 84.4888 37.376 83.0167 36.2013C81.3287 34.8511 80.6219 33.9292 78.5213 32.9191C79.1825 32.4564 79.6955 31.8027 79.9957 31.0408C80.2951 30.2788 80.3673 29.4428 80.2039 28.6384C80.6645 28.5545 81.0916 28.3342 81.4321 28.0045C81.7726 27.6747 82.0112 27.2501 82.1199 26.7828C82.68 27.3652 83.3967 27.7625 84.178 27.924C84.2426 28.693 84.482 30.732 85.2617 31.3349C86.008 31.8545 86.7962 32.3072 87.6177 32.6882L85.7162 36.3877ZM93.3664 26.9185C92.9005 27.0805 92.427 27.2177 91.9475 27.3296C91.8981 27.3418 91.8524 27.3666 91.8152 27.4016C91.7772 27.4365 91.7491 27.4806 91.7324 27.5297C91.7149 27.579 91.7103 27.6316 91.7187 27.6831C91.7271 27.7345 91.7476 27.783 91.7787 27.8241C92.0067 28.1275 92.1815 28.5425 92.123 28.6447C91.9383 28.892 91.6807 29.0721 91.3889 29.1587C91.097 29.2454 90.7862 29.2338 90.5012 29.1259C90.4237 29.1106 90.3431 29.127 90.277 29.1717C90.2101 29.2164 90.1637 29.2858 90.147 29.3652C90.1295 29.4446 90.144 29.5277 90.1858 29.5968C90.2268 29.6659 90.2937 29.7155 90.3704 29.7351C90.7596 29.8284 91.1631 29.8385 91.5561 29.7648C91.5796 29.7942 91.5933 29.8306 91.5956 29.8687C91.5971 29.9067 91.5872 29.9444 91.5667 29.9761C90.8272 31.0151 90.7429 31.0564 90.831 31.2709C90.831 31.2709 91.1054 31.9636 90.7991 32.3138C90.6068 32.5345 90.0049 32.8192 88.1452 32.2498C87.2697 31.852 86.4276 31.3798 85.6288 30.838C85.1082 30.4332 84.8232 28.6486 84.7654 27.6182C84.7609 27.54 84.7282 27.4663 84.6735 27.4117C84.618 27.3573 84.545 27.326 84.469 27.3241C83.4522 27.2976 82.4383 26.3601 81.8387 25.5247C81.3713 24.8726 81.2512 23.6316 81.9565 23.5084C82.3661 23.4568 82.7803 23.5492 83.1322 23.7705C83.4841 23.9917 83.7524 24.3289 83.893 24.7267C84.425 25.857 86.0415 26.2977 86.1091 26.3156C86.154 26.3275 86.2011 26.3287 86.2467 26.319C86.2923 26.3094 86.3349 26.2891 86.3721 26.2597C86.4086 26.2305 86.4382 26.1929 86.4587 26.15C86.4785 26.1071 86.4891 26.0599 86.4891 26.0122C86.4899 25.0088 86.3227 24.0126 85.9959 23.0669C85.8515 22.7294 85.7641 22.3691 85.7375 22.0014C86.7095 21.5565 87.544 20.8455 88.149 19.9461C87.9453 20.4863 87.6702 20.9947 87.3304 21.457C87.2909 21.5127 87.2704 21.5804 87.2719 21.6493C87.2735 21.7184 87.2978 21.7848 87.3403 21.8383C87.3829 21.8918 87.4414 21.9293 87.5068 21.945C87.5721 21.9607 87.6413 21.9537 87.7021 21.925C88.7296 21.4227 89.5611 21.2448 89.6872 21.1068C90.1303 20.6012 90.3621 19.9374 90.3332 19.2582L91.4869 20.5842C91.86 22.5513 91.8281 23.3383 91.7491 23.4928C91.4892 24.0037 90.9458 25.0676 92.2393 25.7868C93.2273 26.3374 93.2828 26.4037 93.3747 26.6276C93.4667 26.8515 93.4249 26.8889 93.3664 26.9185Z" fill="black"/>
<path d="M78.6494 100.292C78.6205 100.215 78.5635 100.153 78.4898 100.119C78.416 100.085 78.3324 100.083 78.2572 100.112C77.9775 100.222 71.4172 102.811 69.6692 104.558C67.9736 106.251 65.5736 109.004 64.1334 110.09C62.1096 111.516 59.9559 112.736 57.7022 113.735C57.4246 113.52 57.1051 113.368 56.7655 113.292C56.4258 113.215 56.074 113.213 55.7338 113.288C54.4259 113.512 54.1614 113.969 52.7296 114.314C52.7145 114.318 52.6998 114.323 52.6855 114.329C52.15 114.143 51.5649 114.177 51.0534 114.424C50.5418 114.672 50.1437 115.113 49.9426 115.655C49.1066 117.576 50.293 120.361 51.297 121.764C52.209 123.041 51.3426 128.118 53.501 130.095C54.8393 131.321 57.8824 133.274 60.0309 133.274C60.3679 133.307 60.7077 133.254 61.0199 133.12C61.3319 132.985 61.6064 132.772 61.8185 132.502C62.0305 132.231 62.1735 131.91 62.2346 131.568C62.2956 131.226 62.2727 130.875 62.168 130.544C61.2423 128.088 60.2923 127.909 60.8524 125.661C61.4285 123.354 62.4948 120.962 61.5364 120.153C62.9046 118.029 64.9291 116.44 67.2843 115.64C71.5593 114.19 78.0497 110.134 78.1151 110.093C78.1842 110.05 78.2336 109.98 78.2526 109.9C78.2716 109.819 78.258 109.734 78.2162 109.663C78.1744 109.592 78.106 109.542 78.0277 109.522C77.9494 109.503 77.8666 109.517 77.7974 109.56C77.7343 109.601 71.4012 113.558 67.1924 115.014C66.3291 114.676 65.6027 114.048 65.1313 113.232C64.66 112.416 64.4714 111.46 64.5962 110.52C66.0972 109.346 68.4281 106.673 70.0956 105.011C71.763 103.348 78.4122 100.729 78.4791 100.703C78.5171 100.689 78.5513 100.666 78.5802 100.636C78.6098 100.607 78.6326 100.573 78.6486 100.535C78.6646 100.497 78.6729 100.455 78.6729 100.413C78.6729 100.372 78.6653 100.331 78.6494 100.292ZM52.9348 114.899C53.2825 114.814 53.6238 114.703 53.9562 114.568C53.9182 115.542 53.6818 117.801 52.3336 118.788C51.5402 116.313 52.687 115.121 52.9348 114.899ZM53.9038 129.62C51.9817 127.861 52.8398 122.859 51.7841 121.386C50.8995 120.149 49.7671 117.564 50.4921 115.902C50.6088 115.555 50.8391 115.259 51.144 115.066C51.4487 114.873 51.8092 114.794 52.1641 114.843C51.6177 115.581 50.9086 117.183 52.0805 119.835C53.6248 123.319 52.2226 126.72 54.774 129.384C56.5774 131.269 59.714 132.457 61.2416 132.214C59.7824 133.686 55.5264 131.102 53.9038 129.62ZM61.598 130.758C61.7971 131.287 61.598 131.419 61.522 131.47C60.6716 132.035 57.1573 130.981 55.2087 128.946C52.8641 126.496 54.3035 123.596 52.5563 119.388C54.432 118.162 54.5718 115.135 54.5733 114.296C55.4245 113.91 56.5151 113.609 57.2675 114.171C57.0243 114.697 56.3639 116.121 55.7597 117.331C55.6507 117.521 55.5817 117.732 55.5571 117.951C55.5324 118.17 55.5528 118.391 55.6168 118.601C55.8767 119.352 56.7317 119.739 57.4864 120.079C57.9221 120.353 58.4198 120.505 58.9304 120.521C58.2031 121.272 57.4963 122.767 58.1826 125.645C58.1922 125.687 58.2099 125.725 58.2345 125.759C58.259 125.792 58.2899 125.821 58.3255 125.842C58.361 125.863 58.4003 125.876 58.441 125.882C58.4818 125.886 58.5231 125.883 58.5626 125.872C59.1018 125.574 59.693 125.388 60.3022 125.326C59.5992 128.053 60.651 128.248 61.598 130.758V130.758ZM58.5223 123.894C58.5028 123.61 58.5028 123.325 58.5223 123.041C59.2215 122.624 60.4223 122.087 61.0044 122.866C60.9596 123.029 60.9125 123.196 60.8631 123.365C60.1069 122.977 59.074 123.529 58.5223 123.894V123.894ZM61.1823 122.169C60.5842 121.705 59.7086 121.738 58.65 122.266C59.1949 120.14 61.1253 120.06 61.2887 120.951C61.3264 121.361 61.2895 121.774 61.18 122.17L61.1823 122.169ZM60.4694 124.722C59.8539 124.695 59.2421 124.833 58.6933 125.12C58.656 124.939 58.6256 124.765 58.6006 124.597C59.0566 124.245 60.151 123.583 60.6845 123.983C60.6108 124.227 60.5378 124.472 60.4664 124.723L60.4694 124.722ZM60.9763 119.874C59.9207 119.562 59.0269 120.145 58.2289 119.742C57.5297 119.387 56.4102 119.024 56.1906 118.392C56.0257 117.917 56.2309 117.881 57.8626 114.336C59.0102 113.834 60.3052 113.174 61.5038 112.494C61.5896 113.502 61.9856 116.114 63.7746 116.801C62.6627 117.638 61.7129 118.68 60.974 119.875L60.9763 119.874ZM64.4472 116.325C62.3785 116.065 62.1224 112.686 62.0912 112.152C62.2711 112.048 62.4484 111.942 62.6232 111.835C62.7418 112.816 63.2054 115.051 64.9891 115.991C64.7984 116.1 64.619 116.212 64.445 116.326L64.4472 116.325ZM66.3647 115.311C66.1306 115.409 65.9049 115.512 65.6876 115.619C63.6021 114.904 63.2556 112.118 63.1993 111.477C63.4744 111.3 63.7313 111.128 63.9738 110.962C63.9435 111.843 64.1505 112.714 64.5719 113.481C64.9934 114.248 65.613 114.881 66.3624 115.31L66.3647 115.311Z" fill="black"/>
<path d="M51.6188 128.913C50.5382 128.33 49.5854 127.527 48.8191 126.552C48.0529 125.576 47.4895 124.45 47.1637 123.243C47.1454 123.163 47.159 123.078 47.2016 123.007C47.2443 122.936 47.3124 122.887 47.391 122.868C47.4695 122.849 47.5522 122.863 47.6208 122.907C47.6893 122.951 47.7382 123.021 47.7565 123.101C48.0694 124.216 48.5965 125.255 49.307 126.158C50.0174 127.061 50.8968 127.808 51.8932 128.357C51.9614 128.396 52.012 128.461 52.0347 128.538C52.0574 128.615 52.0503 128.698 52.0149 128.769C51.9796 128.841 51.9187 128.896 51.8449 128.923C51.7711 128.949 51.6902 128.946 51.6188 128.913Z" fill="black"/>
<path d="M51.7004 130.366C49.9857 129.995 48.4245 129.09 47.2308 127.773C47.1855 127.71 47.1649 127.632 47.1732 127.554C47.1814 127.477 47.2178 127.405 47.2752 127.353C47.3326 127.301 47.4068 127.274 47.483 127.276C47.5593 127.278 47.632 127.309 47.6868 127.364C48.7951 128.568 50.232 129.4 51.8091 129.752C51.8873 129.768 51.9562 129.815 52.0011 129.882C52.0459 129.95 52.0631 130.034 52.0488 130.114C52.0346 130.194 51.99 130.266 51.9248 130.313C51.8597 130.36 51.7791 130.379 51.7004 130.366Z" fill="black"/>
<path fill-rule="evenodd" clip-rule="evenodd" d="M66.4742 40.8425C64.2873 43.0688 62.3132 45.5049 60.5789 48.1176C59.3424 50.2103 57.4584 51.7376 58.2989 53.8771C59.4011 56.3157 60.9565 58.5101 62.8779 60.3371C65.7929 63.1824 69.0767 65.6011 72.6363 67.5248C72.6363 67.5248 74.5219 72.3499 75.6003 73.0058C76.6788 73.6618 76.9926 73.6135 77.6584 73.2398C78.0019 73.3289 78.3622 73.3302 78.7064 73.2436C79.0507 73.157 79.3699 72.9851 79.6344 72.743C79.9308 72.7483 80.2204 72.6495 80.4544 72.463C80.6885 72.2764 80.8534 72.0133 80.9218 71.7173C81.1954 71.6845 81.4462 71.5478 81.6264 71.3341C81.8057 71.1203 81.9007 70.8451 81.8924 70.5629L81.7989 69.1643C82.1143 68.5073 82.2207 67.7651 82.1029 67.0427C81.9539 66.4858 81.6834 65.9712 81.311 65.5386C80.9378 65.1058 80.4742 64.7665 79.9536 64.5467C78.7467 64.0187 76.4576 65.1044 75.066 63.8447L69.176 58.5158C69.176 58.5158 67.6735 54.3818 66.4742 52.7438C68.4445 50.6543 70.5231 48.6755 72.7009 46.8158C71.6552 39.9588 66.4742 40.8425 66.4742 40.8425Z" fill="#FFD997"/>
<path d="M82.1109 69.2234C82.437 68.5195 82.5373 67.7275 82.3967 66.9614C82.2356 66.3589 81.943 65.802 81.5402 65.3333C81.1381 64.8645 80.6365 64.4962 80.0741 64.2564C78.7631 63.6839 76.547 64.7618 75.2679 63.6067L69.4341 58.3284C68.7474 56.4005 67.8903 54.541 66.8737 52.7732C68.759 50.7768 70.747 48.8852 72.829 47.1065C72.8701 47.0724 72.9017 47.028 72.9209 46.9775C72.9401 46.9271 72.9462 46.8724 72.9385 46.8187C72.5752 44.2447 71.6518 42.4086 70.1956 41.3587C69.1078 40.585 67.7713 40.2715 66.464 40.4836C66.1486 40.5499 61.8714 45.3281 60.321 47.9544C59.0837 50.0448 57.1039 51.6672 58.022 53.9924C59.1382 56.4721 60.7174 58.7032 62.6701 60.5592C65.5813 63.3947 68.8539 65.8119 72.3981 67.7446C72.7272 68.5753 74.3696 72.618 75.4472 73.274C76.6062 73.976 77.0356 73.9268 77.7082 73.5673C78.0685 73.6532 78.4432 73.6513 78.8019 73.5616C79.1614 73.4719 79.495 73.297 79.7762 73.0509C80.084 73.0309 80.3796 72.9192 80.6266 72.7291C80.8736 72.5392 81.0614 72.2793 81.1662 71.9815C81.4786 71.909 81.7545 71.7236 81.9445 71.4592C82.1345 71.1949 82.2257 70.8692 82.2014 70.5416L82.1109 69.2234ZM80.543 71.3053C80.2907 71.1737 80.0673 70.9911 79.8856 70.7684C79.704 70.5457 79.5687 70.2877 79.4866 70.0097C79.4616 69.9318 79.4084 69.867 79.3369 69.8293C79.2662 69.7917 79.1842 69.7842 79.1074 69.8084C79.0314 69.8328 78.9676 69.8869 78.9296 69.9591C78.8923 70.0314 78.8832 70.1159 78.906 70.1945C79.0109 70.5712 79.1963 70.9194 79.4479 71.2143C79.6994 71.5091 80.011 71.7435 80.3606 71.9004C80.6046 71.9854 80.2292 72.3551 79.9875 72.3278C79.6478 72.3312 79.3134 72.2391 79.0208 72.0617C78.7282 71.8842 78.488 71.6281 78.3269 71.3209C78.298 71.2454 78.2418 71.1845 78.1696 71.151C78.0981 71.1174 78.016 71.1139 77.9416 71.1412C77.8671 71.1684 77.8063 71.2244 77.7713 71.2971C77.7364 71.3698 77.7303 71.4535 77.7546 71.5307C77.8686 71.7949 78.0328 72.0333 78.2364 72.2324C78.4401 72.4316 78.6803 72.5875 78.9432 72.6913C78.9607 72.6993 78.9752 72.7124 78.9858 72.7288C78.9957 72.7451 79.0018 72.7642 79.0018 72.7837C79.0018 72.8033 78.9957 72.8224 78.9858 72.8388C78.9752 72.8552 78.9607 72.8681 78.9432 72.8762C78.58 73.044 78.1673 73.0581 77.7934 72.9154C77.4202 72.7728 77.117 72.4848 76.949 72.1141C76.908 72.0471 76.8426 71.9988 76.7681 71.979C76.6929 71.9592 76.6138 71.9694 76.5462 72.0076C76.4786 72.0458 76.4269 72.109 76.4033 72.1845C76.379 72.2599 76.3843 72.3419 76.417 72.4136C76.5796 72.7028 76.7864 72.9628 77.0303 73.1835C76.7484 73.2436 76.4292 73.1461 75.7566 72.7373C75.0368 72.299 73.6346 69.2367 72.921 67.4092C72.8949 67.3429 72.8474 67.2879 72.7865 67.2532C69.2555 65.3365 65.9956 62.9348 63.0965 60.1146C61.2038 58.3188 59.6718 56.1603 58.5866 53.7607C57.8175 51.8107 59.618 50.3545 60.8408 48.2804C62.5563 45.6965 64.5085 43.2868 66.6708 41.0842C67.7913 40.942 68.9239 41.2243 69.8559 41.8782C71.1327 42.8009 71.9581 44.4343 72.3122 46.7329C70.3286 48.4222 68.4377 50.2229 66.648 52.1266C66.4646 51.7704 66.1787 51.4808 65.8292 51.2972C65.4797 51.1137 65.0836 51.0451 64.6948 51.1009C64.6292 51.1085 64.5678 51.1377 64.5198 51.1841C64.4718 51.2306 64.4399 51.2919 64.4288 51.3587C64.4177 51.4255 64.4282 51.4941 64.4584 51.5542C64.4887 51.6144 64.5373 51.6628 64.5967 51.6922C65.2289 52.024 65.8003 52.4658 66.2854 52.9979C67.3238 54.7842 68.1965 56.6665 68.8922 58.6201C68.9348 58.7356 68.8687 58.6521 74.8666 64.0747C76.3813 65.4443 78.7327 64.3469 79.8362 64.8305C80.3143 65.0334 80.7406 65.3456 81.0826 65.7432C81.4254 66.141 81.6747 66.6136 81.8122 67.1252C81.9088 67.6295 81.8647 68.1515 81.6861 68.6314C81.3023 67.9666 81.0401 67.2354 80.9124 66.4739C80.8995 66.3927 80.8569 66.3197 80.7923 66.2701C80.7285 66.2204 80.6487 66.1979 80.5689 66.2072C80.4891 66.2186 80.4169 66.2621 80.3682 66.3281C80.3196 66.394 80.2983 66.4771 80.3097 66.559C80.5005 67.6332 80.9154 68.6523 81.5257 69.5464L81.5941 70.5838C81.6048 70.7157 81.5804 70.8481 81.525 70.9673C81.4687 71.0865 81.3821 71.1881 81.2749 71.2617C81.1678 71.3353 81.0439 71.3781 80.9147 71.3858C80.7862 71.3934 80.6578 71.3656 80.543 71.3053Z" fill="black"/>
</svg>
