<svg width="600" height="600" viewBox="0 0 600 600" fill="none" xmlns="http://www.w3.org/2000/svg">
<path d="M585.652 300C585.652 397.202 457.907 476 300.326 476C142.745 476 15 397.202 15 300C15 202.798 142.745 124 300.326 124C457.907 124 585.652 202.798 585.652 300ZM54.8965 300C54.8965 383.611 164.779 451.39 300.326 451.39C435.873 451.39 545.755 383.611 545.755 300C545.755 216.389 435.873 148.61 300.326 148.61C164.779 148.61 54.8965 216.389 54.8965 300Z" fill="#FFCE6E"/>
<path d="M130.533 342.742C124.812 347.064 118.281 349.754 111.245 350.044C109.866 350.1 108.701 349.028 108.645 347.649C108.588 346.269 109.66 345.105 111.04 345.048C121.748 344.607 131.671 337.394 138.783 326.249C145.871 315.141 149.908 300.481 148.972 285.988L148.969 285.938L148.967 285.888C148.608 271.204 143.566 258.223 136.375 249.289C129.149 240.309 120.041 235.711 111.478 236.872L111.382 236.885L111.286 236.89C102.526 237.392 94.4507 243.404 88.6909 252.643C82.9534 261.846 79.7687 273.895 80.6433 285.641L80.647 285.691L80.6487 285.74C81.0604 297.674 85.2409 308.045 91.0614 315.078C96.9191 322.156 104.144 325.565 110.746 324.505L110.843 324.489L110.941 324.481C117.75 323.932 123.984 319.122 128.397 311.783C132.789 304.479 135.125 295.039 134.313 286.052L134.309 286.002L134.306 285.951C133.848 276.761 130.528 269.006 126.083 263.88C121.599 258.709 116.268 256.486 111.636 257.418L111.539 257.437L111.442 257.449C106.576 258.036 102.17 261.641 99.0981 267.075C96.0433 272.477 94.5524 279.302 95.2957 285.53L95.302 285.583L95.306 285.635C95.8009 292.079 98.2518 297.211 101.303 300.43C104.397 303.695 107.803 304.748 110.461 303.995L110.556 303.968L110.653 303.949C113.605 303.36 116.208 300.965 117.948 297.442C119.678 293.938 120.326 289.738 119.682 286.285L119.672 286.23L119.664 286.175C119.145 282.484 117.598 280.001 116.021 278.683C114.395 277.326 113.042 277.358 112.327 277.742L112.229 277.795L112.126 277.839C111.027 278.309 110.134 279.466 109.675 281.058C109.336 282.233 109.337 283.28 109.466 283.972C109.87 283.606 110.397 283.369 110.985 283.332C112.363 283.245 113.55 284.291 113.637 285.669C113.77 287.766 112.405 289.732 110.252 290.093C107.973 290.475 106.155 288.942 105.231 286.928C104.16 284.87 104.187 282.043 104.87 279.672C105.576 277.226 107.184 274.561 110.058 273.286C113.121 271.7 116.627 272.675 119.226 274.846C121.891 277.072 123.937 280.735 124.608 285.424C125.453 290.039 124.578 295.308 122.431 299.656C120.298 303.974 116.682 307.804 111.728 308.832C106.707 310.208 101.525 307.933 97.6733 303.869C93.763 299.743 90.9076 293.515 90.3247 286.071C89.4628 278.742 91.2051 270.875 94.7457 264.614C98.261 258.396 103.794 253.376 110.746 252.497C117.714 251.14 124.689 254.64 129.861 260.605C135.088 266.633 138.778 275.459 139.298 285.652C140.195 295.714 137.595 306.189 132.682 314.36C127.798 322.48 120.377 328.695 111.441 329.457C102.522 330.845 93.7209 326.133 87.2095 318.266C80.6455 310.335 76.1104 298.903 75.6534 285.963C74.7111 273.154 78.1672 260.073 84.4478 249.998C90.6958 239.976 99.9951 232.57 110.903 231.904C113.371 231.579 115.828 231.633 118.244 232.026L318.288 179.698C318.288 179.698 349.237 176.83 349.236 225.605C349.236 228.044 349.197 230.365 349.122 232.574L346 278.5L130.533 342.742Z" fill="#FFCE6E"/>
<path d="M405.288 217.772L195.5 272.649C195.5 272.649 233.952 268.653 238 321.649C242.011 374.146 203.731 384.948 203.011 385.146L434 322L435.866 272.649C436.107 269.817 436.236 266.83 436.236 263.68C436.236 214.905 405.288 217.772 405.288 217.772Z" fill="#FFCE6E"/>
<path d="M203 385.149C203 385.149 203.004 385.148 203.011 385.146M203.011 385.146C203.731 384.948 242.011 374.146 238 321.649C233.952 268.653 195.5 272.649 195.5 272.649L405.288 217.772C405.288 217.772 436.236 214.905 436.236 263.68C436.236 266.83 436.107 269.817 435.866 272.649L434 322L203.011 385.146Z" stroke="white" stroke-width="5"/>
<path d="M198.142 323.901C198.262 325.786 195.769 326.818 194.477 323.901C193.08 321.325 194.107 315.342 198.142 313.615C201.943 311.57 207.958 315.495 209.14 323.901C210.646 331.983 206.098 342.887 198.142 344.475C190.434 346.659 180.882 337.812 179.813 323.901C178.194 310.329 186.279 294.472 198.142 293.042C209.775 290.7 222.835 304.497 223.803 323.901C225.526 342.965 213.93 363.774 198.142 365.047C182.588 367.545 166.009 348.795 165.15 323.901C163.321 299.331 178.433 273.598 198.142 272.469C217.603 269.83 237.722 293.502 238.467 323.901C240.408 353.961 221.765 384.647 198.142 385.62" stroke="white" stroke-width="5" stroke-linecap="round"/>
<path d="M282.427 312.649L492.215 257.772C492.215 257.772 523.163 254.905 523.163 303.68C523.163 352.456 492.215 362.197 492.215 362.197L289.927 425.149C289.927 425.149 328.976 414.645 324.927 361.649C320.879 308.653 282.427 312.649 282.427 312.649Z" fill="#FFCE6E"/>
<path d="M282.427 312.649L492.215 257.772C492.215 257.772 523.163 254.905 523.163 303.68C523.163 352.456 492.215 362.197 492.215 362.197L289.927 425.149C289.927 425.149 328.976 414.645 324.927 361.649C320.879 308.653 282.427 312.649 282.427 312.649Z" stroke="white" stroke-width="5"/>
<path d="M285.069 363.902C285.188 365.786 282.696 366.818 281.403 363.902C280.007 361.325 281.034 355.343 285.069 353.615C288.87 351.571 294.885 355.496 296.067 363.902C297.573 371.984 293.025 382.888 285.069 384.475C277.361 386.66 267.809 377.813 266.74 363.902C265.12 350.33 273.206 334.473 285.069 333.042C296.702 330.701 309.762 344.498 310.73 363.902C312.453 382.966 300.857 403.775 285.069 405.048C269.515 407.546 252.936 388.795 252.077 363.902C250.247 339.332 265.36 313.599 285.069 312.469C304.53 309.83 324.649 333.502 325.393 363.902C327.335 393.961 308.691 424.648 285.069 425.621" stroke="white" stroke-width="5" stroke-linecap="round"/>
<path d="M300.326 126.5C378.729 126.5 449.59 146.107 500.77 177.677C551.988 209.271 583.151 252.588 583.151 300C583.151 347.412 551.988 390.729 500.77 422.323C449.59 453.893 378.729 473.5 300.326 473.5C221.923 473.5 151.062 453.892 99.8828 422.323C48.6639 390.729 17.5 347.412 17.5 300C17.5 252.588 48.6639 209.271 99.8828 177.677C151.062 146.108 221.923 126.5 300.326 126.5Z" stroke="#1E1E1E" stroke-width="5"/>
<path d="M99.5004 235.574L98.8677 233.156L99.7588 238.061L99.5004 235.574ZM309.288 180.698L309.058 178.208L308.854 178.227L308.656 178.279L309.288 180.698ZM340.236 226.605L337.736 226.605V226.605H340.236ZM107 348.074L106.202 345.705L107.65 350.488L107 348.074ZM142 284.574L139.508 284.765L142 284.574ZM104.637 286.669C104.55 285.291 103.363 284.245 101.985 284.332C100.607 284.419 99.5604 285.606 99.6474 286.984L104.637 286.669ZM98.4766 286.827L100.762 285.814L100.722 285.723L100.674 285.635L98.4766 286.827ZM102.142 276.541L103.126 278.839L103.229 278.795L103.327 278.742L102.142 276.541ZM113.14 286.827L110.664 287.175L110.672 287.23L110.682 287.285L113.14 286.827ZM102.142 307.4L101.653 304.948L101.556 304.968L101.461 304.995L102.142 307.4ZM83.8133 286.827L86.306 286.635L86.302 286.583L86.2957 286.53L83.8133 286.827ZM102.142 255.967L102.442 258.449L102.539 258.437L102.636 258.418L102.142 255.967ZM127.803 286.827L125.306 286.951L125.309 287.001L125.313 287.052L127.803 286.827ZM102.142 327.973L101.941 325.481L101.843 325.489L101.746 325.505L102.142 327.973ZM69.1502 286.827L71.6487 286.74L71.647 286.691L71.6433 286.641L69.1502 286.827ZM102.142 235.394L102.286 237.89L102.382 237.884L102.478 237.871L102.142 235.394ZM142.467 286.827L139.967 286.888L139.969 286.938L139.972 286.988L142.467 286.827ZM102.04 346.048C100.66 346.105 99.5878 347.269 99.6446 348.649C99.7014 350.028 100.866 351.1 102.245 351.044L102.04 346.048ZM100.133 237.993L309.921 183.116L308.656 178.279L98.8677 233.156L100.133 237.993ZM309.288 180.698C309.519 183.187 309.517 183.187 309.515 183.187C309.515 183.187 309.513 183.188 309.513 183.188C309.511 183.188 309.51 183.188 309.509 183.188C309.508 183.188 309.508 183.188 309.51 183.188C309.515 183.188 309.526 183.187 309.545 183.185C309.582 183.183 309.646 183.179 309.736 183.175C309.916 183.168 310.199 183.162 310.568 183.169C311.309 183.184 312.393 183.253 313.705 183.476C316.332 183.923 319.834 184.979 323.335 187.413C330.207 192.192 337.736 202.769 337.736 226.605L342.736 226.605C342.736 201.667 334.792 189.29 326.19 183.308C321.954 180.363 317.719 179.087 314.543 178.547C312.954 178.277 311.62 178.189 310.668 178.17C310.191 178.161 309.809 178.169 309.536 178.179C309.399 178.185 309.29 178.191 309.209 178.197C309.169 178.199 309.136 178.202 309.111 178.204C309.098 178.205 309.087 178.206 309.079 178.207C309.074 178.207 309.07 178.207 309.067 178.208C309.065 178.208 309.063 178.208 309.062 178.208C309.06 178.208 309.058 178.208 309.288 180.698ZM107 348.074C107.65 350.488 107.65 350.488 107.65 350.488C107.65 350.488 107.65 350.488 107.651 350.488C107.651 350.488 107.651 350.488 107.651 350.488C107.652 350.488 107.653 350.488 107.653 350.487C107.655 350.487 107.657 350.487 107.658 350.486C107.662 350.485 107.666 350.484 107.671 350.483C107.681 350.48 107.693 350.477 107.708 350.472C107.738 350.464 107.779 350.452 107.83 350.437C107.932 350.407 108.074 350.364 108.255 350.307C108.615 350.192 109.127 350.019 109.766 349.779L108.005 345.1C107.451 345.308 107.021 345.452 106.737 345.543C106.595 345.588 106.49 345.62 106.424 345.639C106.392 345.648 106.369 345.655 106.357 345.658C106.35 345.66 106.347 345.661 106.346 345.661C106.345 345.662 106.346 345.662 106.346 345.661C106.347 345.661 106.347 345.661 106.348 345.661C106.348 345.661 106.349 345.661 106.349 345.66C106.35 345.66 106.35 345.66 106.35 345.66C106.35 345.66 106.35 345.66 106.35 345.66C106.351 345.66 106.351 345.66 107 348.074ZM109.766 349.779C113.892 348.226 123.49 343.782 131.613 333.708C139.785 323.572 146.293 307.946 144.493 284.384L139.508 284.765C141.217 307.138 135.044 321.486 127.72 330.569C120.347 339.714 111.633 343.734 108.005 345.1L109.766 349.779ZM144.493 284.384C142.416 257.193 131.418 244.115 120.447 238.016C115.041 235.01 109.781 233.779 105.878 233.297C103.924 233.055 102.298 233 101.147 233.006C100.571 233.009 100.112 233.028 99.789 233.046C99.6274 233.056 99.4995 233.065 99.4076 233.073C99.3616 233.076 99.3247 233.08 99.297 233.082C99.2831 233.084 99.2716 233.085 99.2624 233.086C99.2578 233.086 99.2538 233.086 99.2504 233.087C99.2487 233.087 99.2466 233.087 99.2457 233.087C99.2438 233.087 99.242 233.088 99.5004 235.574C99.7588 238.061 99.7573 238.061 99.7559 238.061C99.7556 238.061 99.7544 238.061 99.7538 238.061C99.7528 238.061 99.7523 238.062 99.7523 238.062C99.7525 238.061 99.7549 238.061 99.7595 238.061C99.7688 238.06 99.7871 238.058 99.814 238.056C99.8679 238.052 99.9564 238.045 100.077 238.038C100.319 238.024 100.691 238.009 101.174 238.006C102.142 238.001 103.551 238.047 105.265 238.259C108.699 238.684 113.305 239.766 118.018 242.386C127.284 247.538 137.536 258.96 139.508 284.765L144.493 284.384ZM153.702 329.705L108.087 345.07L109.683 349.809L155.298 334.443L153.702 329.705ZM108.087 345.07L106.202 345.705L107.798 350.443L109.683 349.809L108.087 345.07ZM337.736 226.605C337.736 229.017 337.697 231.31 337.624 233.49L342.621 233.659C342.696 231.42 342.736 229.071 342.736 226.605H337.736ZM99.6474 286.984C99.634 286.772 99.8126 286.264 100.426 286.161C100.727 286.111 100.947 286.207 101.026 286.261C101.085 286.301 100.948 286.233 100.762 285.814L96.1909 287.839C97.1027 289.897 98.9396 291.48 101.252 291.093C103.405 290.732 104.77 288.766 104.637 286.669L99.6474 286.984ZM100.674 285.635C100.397 285.124 100.195 283.72 100.675 282.058C101.134 280.465 102.027 279.309 103.126 278.839L101.159 274.242C98.2219 275.499 96.5842 278.198 95.8704 280.672C95.1765 283.078 95.1594 285.953 96.2788 288.018L100.674 285.635ZM103.327 278.742C104.042 278.357 105.395 278.326 107.021 279.683C108.598 281.001 110.145 283.484 110.664 287.175L115.616 286.478C114.953 281.764 112.901 278.081 110.226 275.846C107.598 273.651 104.044 272.679 100.958 274.339L103.327 278.742ZM110.682 287.285C111.326 290.738 110.678 294.938 108.948 298.442C107.208 301.965 104.605 304.359 101.653 304.948L102.632 309.852C107.636 308.853 111.285 305.002 113.431 300.656C115.587 296.291 116.46 290.997 115.598 286.369L110.682 287.285ZM101.461 304.995C98.8029 305.748 95.3968 304.695 92.3025 301.43C89.2518 298.21 86.8009 293.079 86.306 286.635L81.3207 287.018C81.8943 294.485 84.7538 300.733 88.6733 304.869C92.5494 308.959 97.7736 311.237 102.824 309.805L101.461 304.995ZM86.2957 286.53C85.5524 280.302 87.0433 273.477 90.0981 268.074C93.1701 262.641 97.5762 259.036 102.442 258.449L101.843 253.485C94.8457 254.329 89.2774 259.367 85.7457 265.613C82.1967 271.89 80.4545 279.779 81.3309 287.123L86.2957 286.53ZM102.636 258.418C107.268 257.486 112.599 259.709 117.083 264.88C121.528 270.006 124.848 277.761 125.306 286.951L130.3 286.702C129.791 276.488 126.096 267.643 120.861 261.605C115.665 255.612 108.65 252.107 101.649 253.516L102.636 258.418ZM125.313 287.052C126.125 296.039 123.789 305.479 119.397 312.783C114.984 320.122 108.75 324.932 101.941 325.481L102.343 330.465C111.323 329.741 118.781 323.51 123.682 315.36C128.603 307.175 131.204 296.679 130.293 286.602L125.313 287.052ZM101.746 325.505C95.144 326.565 87.9191 323.156 82.0614 316.078C76.2409 309.045 72.0604 298.674 71.6487 286.74L66.6517 286.913C67.0988 299.873 71.6371 311.324 78.2095 319.266C84.7446 327.162 93.5864 331.879 102.539 330.441L101.746 325.505ZM71.6433 286.641C70.7687 274.895 73.9534 262.846 79.6909 253.643C85.4507 244.404 93.5258 238.392 102.286 237.89L101.999 232.898C91.05 233.526 81.7142 240.946 75.4478 250.998C69.1591 261.086 65.7022 274.188 66.6571 287.012L71.6433 286.641ZM102.478 237.871C111.041 236.71 120.149 241.309 127.375 250.289C134.566 259.223 139.608 272.204 139.967 286.888L144.966 286.765C144.581 271.05 139.191 256.995 131.271 247.154C123.386 237.357 112.704 231.439 101.807 232.917L102.478 237.871ZM139.972 286.988C140.908 301.481 136.871 316.141 129.783 327.249C122.671 338.394 112.748 345.607 102.04 346.048L102.245 351.044C115.159 350.512 126.368 341.895 133.998 329.939C141.652 317.945 145.967 302.232 144.961 286.666L139.972 286.988Z" fill="#1E1E1E"/>
<path d="M186.5 273.649L185.868 271.23L186.759 276.136L186.5 273.649ZM396.288 218.772L396.058 216.283L395.854 216.302L395.656 216.354L396.288 218.772ZM427.236 264.68L429.736 264.68V264.68L427.236 264.68ZM194 386.149L193.265 383.759L194.65 388.563L194 386.149ZM229 322.649L226.508 322.839L229 322.649ZM191.637 324.744C191.55 323.366 190.363 322.319 188.985 322.406C187.607 322.493 186.56 323.681 186.647 325.059L191.637 324.744ZM185.477 324.901L187.762 323.889L187.722 323.798L187.674 323.71L185.477 324.901ZM189.142 314.615L190.126 316.914L190.229 316.87L190.327 316.817L189.142 314.615ZM200.14 324.901L197.664 325.249L197.672 325.305L197.682 325.359L200.14 324.901ZM189.142 345.475L188.653 343.023L188.556 343.043L188.461 343.07L189.142 345.475ZM170.813 324.901L173.306 324.71L173.302 324.657L173.296 324.605L170.813 324.901ZM189.142 294.042L189.442 296.524L189.539 296.512L189.636 296.493L189.142 294.042ZM214.803 324.901L212.306 325.026L212.309 325.076L212.313 325.126L214.803 324.901ZM189.142 366.048L188.941 363.556L188.843 363.564L188.746 363.579L189.142 366.048ZM156.15 324.901L158.649 324.815L158.647 324.765L158.643 324.716L156.15 324.901ZM189.142 273.469L189.286 275.965L189.382 275.959L189.478 275.946L189.142 273.469ZM229.467 324.901L226.967 324.963L226.969 325.013L226.972 325.062L229.467 324.901ZM189.04 384.123C187.66 384.179 186.588 385.344 186.645 386.723C186.701 388.103 187.866 389.175 189.245 389.118L189.04 384.123ZM187.133 276.068L396.921 221.191L395.656 216.354L185.868 271.23L187.133 276.068ZM396.288 218.772C396.519 221.262 396.517 221.262 396.515 221.262C396.515 221.262 396.513 221.262 396.513 221.262C396.511 221.263 396.51 221.263 396.509 221.263C396.508 221.263 396.508 221.263 396.51 221.263C396.515 221.262 396.526 221.261 396.545 221.26C396.582 221.258 396.646 221.254 396.736 221.25C396.916 221.243 397.199 221.237 397.568 221.244C398.309 221.259 399.393 221.328 400.705 221.551C403.332 221.998 406.834 223.053 410.335 225.488C417.207 230.266 424.736 240.844 424.736 264.68L429.736 264.68C429.736 239.741 421.792 227.365 413.19 221.383C408.954 218.438 404.719 217.162 401.543 216.622C399.954 216.352 398.62 216.264 397.668 216.245C397.191 216.236 396.809 216.243 396.536 216.254C396.399 216.26 396.29 216.266 396.209 216.271C396.169 216.274 396.136 216.277 396.111 216.279C396.098 216.28 396.087 216.28 396.079 216.281C396.074 216.282 396.07 216.282 396.067 216.282C396.065 216.282 396.063 216.283 396.062 216.283C396.06 216.283 396.058 216.283 396.288 218.772ZM194 386.149C194.65 388.563 194.65 388.563 194.65 388.563C194.65 388.563 194.65 388.563 194.65 388.563C194.65 388.563 194.651 388.563 194.651 388.563C194.651 388.563 194.652 388.563 194.652 388.563C194.653 388.562 194.653 388.562 194.654 388.562C194.656 388.561 194.658 388.561 194.66 388.56C194.665 388.559 194.67 388.558 194.677 388.556C194.689 388.552 194.706 388.548 194.726 388.542C194.767 388.53 194.822 388.515 194.891 388.494C195.03 388.453 195.226 388.392 195.473 388.311L193.911 383.561C193.711 383.627 193.56 383.673 193.465 383.702C193.418 383.716 193.384 383.725 193.365 383.731C193.355 383.734 193.349 383.735 193.347 383.736C193.345 383.736 193.345 383.736 193.346 383.736C193.346 383.736 193.347 383.736 193.348 383.736C193.348 383.736 193.349 383.735 193.349 383.735C193.349 383.735 193.35 383.735 193.35 383.735C193.35 383.735 193.35 383.735 193.35 383.735C193.35 383.735 193.351 383.735 193.351 383.735C193.351 383.735 193.351 383.735 194 386.149ZM195.473 388.311C198.314 387.377 208.28 383.569 217.074 373.607C225.932 363.571 233.406 347.504 231.493 322.459L226.508 322.839C228.323 346.6 221.249 361.32 213.325 370.298C205.335 379.349 196.283 382.781 193.911 383.561L195.473 388.311ZM231.493 322.459C229.416 295.268 218.418 282.19 207.447 276.09C202.041 273.085 196.781 271.854 192.878 271.372C190.924 271.13 189.298 271.075 188.147 271.081C187.571 271.084 187.112 271.103 186.789 271.121C186.627 271.131 186.499 271.14 186.408 271.147C186.362 271.151 186.325 271.154 186.297 271.157C186.283 271.158 186.272 271.159 186.262 271.16C186.258 271.161 186.254 271.161 186.25 271.161C186.249 271.162 186.247 271.162 186.246 271.162C186.244 271.162 186.242 271.162 186.5 273.649C186.759 276.136 186.757 276.136 186.756 276.136C186.756 276.136 186.754 276.136 186.754 276.136C186.753 276.136 186.752 276.136 186.752 276.136C186.752 276.136 186.755 276.136 186.76 276.136C186.769 276.135 186.787 276.133 186.814 276.131C186.868 276.126 186.956 276.12 187.077 276.113C187.319 276.099 187.691 276.083 188.174 276.081C189.142 276.075 190.551 276.122 192.265 276.334C195.699 276.758 200.305 277.841 205.018 280.46C214.284 285.612 224.536 297.034 226.508 322.839L231.493 322.459ZM242.265 368.685L193.957 383.547L195.427 388.326L243.735 373.464L242.265 368.685ZM193.957 383.547L193.265 383.759L194.735 388.538L195.427 388.326L193.957 383.547ZM424.736 264.68C424.736 267.762 424.61 270.678 424.375 273.437L429.357 273.861C429.604 270.956 429.736 267.898 429.736 264.68L424.736 264.68ZM186.647 325.059C186.634 324.847 186.813 324.339 187.426 324.236C187.727 324.186 187.947 324.281 188.026 324.336C188.085 324.376 187.948 324.308 187.762 323.889L183.191 325.914C184.103 327.972 185.94 329.555 188.252 329.167C190.405 328.807 191.77 326.84 191.637 324.744L186.647 325.059ZM187.674 323.71C187.397 323.199 187.195 321.794 187.675 320.133C188.134 318.54 189.027 317.384 190.126 316.914L188.159 312.317C185.222 313.574 183.584 316.272 182.87 318.747C182.177 321.153 182.159 324.028 183.279 326.093L187.674 323.71ZM190.327 316.817C191.042 316.432 192.395 316.4 194.021 317.758C195.598 319.076 197.145 321.559 197.664 325.249L202.616 324.553C201.953 319.838 199.901 316.156 197.226 313.921C194.598 311.726 191.044 310.754 187.958 312.414L190.327 316.817ZM197.682 325.359C198.326 328.813 197.678 333.013 195.948 336.517C194.208 340.04 191.605 342.434 188.653 343.023L189.632 347.926C194.636 346.928 198.285 343.077 200.431 338.731C202.587 334.365 203.46 329.072 202.598 324.443L197.682 325.359ZM188.461 343.07C185.803 343.823 182.397 342.769 179.303 339.504C176.252 336.285 173.801 331.154 173.306 324.71L168.321 325.093C168.894 332.56 171.754 338.808 175.673 342.944C179.549 347.034 184.774 349.311 189.824 347.88L188.461 343.07ZM173.296 324.605C172.552 318.377 174.043 311.552 177.098 306.149C180.17 300.716 184.576 297.111 189.442 296.524L188.843 291.56C181.846 292.404 176.277 297.442 172.746 303.688C169.197 309.965 167.455 317.854 168.331 325.198L173.296 324.605ZM189.636 296.493C194.268 295.56 199.599 297.783 204.083 302.955C208.528 308.081 211.848 315.836 212.306 325.026L217.3 324.777C216.791 314.563 213.096 305.717 207.861 299.679C202.665 293.687 195.65 290.182 188.649 291.591L189.636 296.493ZM212.313 325.126C213.125 334.113 210.789 343.554 206.397 350.858C201.984 358.196 195.75 363.007 188.941 363.556L189.343 368.54C198.323 367.815 205.781 361.585 210.682 353.435C215.603 345.25 218.204 334.754 217.293 324.676L212.313 325.126ZM188.746 363.579C182.144 364.639 174.919 361.23 169.061 354.152C163.241 347.12 159.06 336.748 158.649 324.815L153.652 324.988C154.099 337.948 158.637 349.399 165.209 357.34C171.745 365.237 180.586 369.954 189.539 368.516L188.746 363.579ZM158.643 324.716C157.769 312.97 160.953 300.921 166.691 291.718C172.451 282.478 180.526 276.467 189.286 275.965L188.999 270.973C178.05 271.601 168.714 279.021 162.448 289.073C156.159 299.16 152.702 312.263 153.657 325.087L158.643 324.716ZM189.478 275.946C198.041 274.785 207.149 279.384 214.375 288.363C221.566 297.298 226.608 310.278 226.967 324.963L231.966 324.84C231.581 309.125 226.191 295.07 218.271 285.228C210.386 275.432 199.704 269.514 188.807 270.992L189.478 275.946ZM226.972 325.062C227.908 339.556 223.871 354.216 216.783 365.324C209.671 376.469 199.748 383.682 189.04 384.123L189.245 389.118C202.159 388.587 213.368 379.97 220.998 368.013C228.652 356.02 232.967 340.306 231.961 324.74L226.972 325.062Z" fill="#1E1E1E"/>
<path d="M276.069 364.901C276.188 366.786 273.696 367.818 272.403 364.901C271.007 362.325 272.034 356.342 276.069 354.615C279.87 352.57 285.885 356.496 287.067 364.901C288.573 372.984 284.025 383.887 276.069 385.475C268.361 387.659 258.809 378.813 257.74 364.901C256.12 351.33 264.206 335.472 276.069 334.042C287.702 331.701 300.762 345.497 301.73 364.901C303.453 383.966 291.857 404.774 276.069 406.048C260.515 408.546 243.936 389.795 243.077 364.901C241.247 340.331 256.36 314.599 276.069 313.469C295.53 310.83 315.649 334.502 316.393 364.901C318.335 394.961 299.691 425.648 276.069 426.62M273.427 313.649L483.215 258.772C483.215 258.772 514.163 255.905 514.163 304.68C514.163 353.456 483.215 363.197 483.215 363.197L280.927 426.149C280.927 426.149 319.975 415.645 315.927 362.649C311.879 309.653 273.427 313.649 273.427 313.649Z" stroke="#1E1E1E" stroke-width="5" stroke-linecap="round"/>
<path d="M183 234.5C183 236.985 180.985 239 178.5 239C176.015 239 174 236.985 174 234.5C174 232.015 176.015 230 178.5 230C180.985 230 183 232.015 183 234.5Z" fill="#413E3E"/>
<path d="M264 293.5C264 295.985 261.985 298 259.5 298C257.015 298 255 295.985 255 293.5C255 291.015 257.015 289 259.5 289C261.985 289 264 291.015 264 293.5Z" fill="#413E3E"/>
<path d="M329 260.5C329 262.985 326.985 265 324.5 265C322.015 265 320 262.985 320 260.5C320 258.015 322.015 256 324.5 256C326.985 256 329 258.015 329 260.5Z" fill="#413E3E"/>
<path d="M398 256.5C398 258.985 395.985 261 393.5 261C391.015 261 389 258.985 389 256.5C389 254.015 391.015 252 393.5 252C395.985 252 398 254.015 398 256.5Z" fill="#413E3E"/>
<path d="M353 329.5C353 331.985 350.985 334 348.5 334C346.015 334 344 331.985 344 329.5C344 327.015 346.015 325 348.5 325C350.985 325 353 327.015 353 329.5Z" fill="#413E3E"/>
<path d="M453 288.5C453 290.985 450.985 293 448.5 293C446.015 293 444 290.985 444 288.5C444 286.015 446.015 284 448.5 284C450.985 284 453 286.015 453 288.5Z" fill="#413E3E"/>
<path d="M453 333.5C453 335.985 450.985 338 448.5 338C446.015 338 444 335.985 444 333.5C444 331.015 446.015 329 448.5 329C450.985 329 453 331.015 453 333.5Z" fill="#413E3E"/>
<path d="M393 365.5C393 367.985 390.985 370 388.5 370C386.015 370 384 367.985 384 365.5C384 363.015 386.015 361 388.5 361C390.985 361 393 363.015 393 365.5Z" fill="#413E3E"/>
<path d="M501 276.5C501 278.985 498.985 281 496.5 281C494.015 281 492 278.985 492 276.5C492 274.015 494.015 272 496.5 272C498.985 272 501 274.015 501 276.5Z" fill="#413E3E"/>
<path d="M264 233.5C264 235.985 261.985 238 259.5 238C257.015 238 255 235.985 255 233.5C255 231.015 257.015 229 259.5 229C261.985 229 264 231.015 264 233.5Z" fill="#413E3E"/>
<path d="M323 207.5C323 209.985 320.985 212 318.5 212C316.015 212 314 209.985 314 207.5C314 205.015 316.015 203 318.5 203C320.985 203 323 205.015 323 207.5Z" fill="#413E3E"/>
</svg>
