<svg width="152" height="158" viewBox="0 0 152 158" fill="none" xmlns="http://www.w3.org/2000/svg">
<path d="M147.361 133.846H4.18665C3.85445 133.846 3.85445 134.369 4.18665 134.369H147.361C147.693 134.369 147.693 133.846 147.361 133.846Z" fill="black"/>
<path d="M119.69 8.84863H22.5649V72.2915H119.69V8.84863Z" fill="white"/>
<path d="M119.827 8.58716L22.313 8.70491C22.313 51.2671 22.3507 72.5495 22.4262 72.5521L119.941 72.4343C119.941 29.8722 119.903 8.58975 119.827 8.58716ZM22.8166 72.0301V9.10997H119.438V72.0301H22.8166Z" fill="black"/>
<path d="M117.682 10.8188C55.536 10.8188 24.462 10.8581 24.4595 10.9366C24.4595 50.5147 24.4972 70.3093 24.5727 70.3203C86.7182 70.3203 117.792 70.281 117.795 70.2025C117.795 30.6244 117.757 10.8298 117.682 10.8188ZM24.9631 69.7983V11.3417H117.291V69.7983H24.9631Z" fill="black"/>
<path d="M51.5683 48.0445V34.7905C51.5683 32.8375 50.5543 31.0233 48.9228 30.0578L45.4913 28.0254C48.1919 26.4366 50.1051 23.8594 50.9228 20.7987L51.5577 18.4241C51.5743 18.3628 51.5411 18.2969 51.4792 18.2789C51.215 18.2019 51.1108 18.147 51.0745 18.2843L50.4396 20.6598C49.6461 23.631 47.8839 26.0095 44.9862 27.7263C42.0659 25.9962 40.3218 23.5988 39.5381 20.6629L38.9039 18.2883C38.8873 18.2263 38.8277 18.1886 38.7642 18.2066L38.4985 18.2828C38.4396 18.3 38.4019 18.3628 38.42 18.428L39.0549 20.8026C39.8854 23.9128 41.8326 26.4664 44.4804 28.027L41.0549 30.0562C39.4241 31.0233 38.4102 32.8375 38.4102 34.7882V48.0421C38.4102 49.9952 39.4241 51.8093 41.0549 52.7749L44.4834 54.8065C41.7155 56.4589 39.859 59.0243 39.0557 62.0316C38.4222 64.4007 38.3301 64.5028 38.5 64.5515C38.7809 64.6323 38.7393 64.6276 38.7801 64.6339C38.9205 64.648 38.8458 64.7697 39.5389 62.1737C40.3354 59.1907 42.1059 56.8161 44.9922 55.1063C47.9126 56.8365 49.6559 59.2347 50.4403 62.1698C51.1289 64.7477 51.0602 64.6449 51.1999 64.6284C51.2406 64.6237 51.1999 64.6284 51.48 64.5467C51.6491 64.4973 51.5592 64.4039 50.9243 62.0269C50.1006 58.9466 48.1693 56.3757 45.5011 54.8049L48.9243 52.7772C50.5558 51.8101 51.5698 49.9968 51.5698 48.0453L51.5683 48.0445ZM38.9115 35.9877H51.067V46.8426H38.9115V35.9877ZM41.3018 30.5084L44.9855 28.3253L48.6759 30.5115C50.1512 31.3844 51.067 33.0243 51.067 34.7898V35.4649H38.9115V34.7858C38.9115 33.0204 39.8273 31.3813 41.3018 30.5084ZM44.9922 54.5042L41.3018 52.318C39.8273 51.4451 38.9115 49.806 38.9115 48.0398V47.3662H51.067V48.0437C51.067 49.8092 50.1512 51.4482 48.6759 52.3212L44.9922 54.5042Z" fill="black"/>
<path d="M47.0264 38.6338C45.875 38.6338 44.9365 39.6088 44.9365 40.8067C44.9365 42.0046 45.8742 42.9795 47.0264 42.9795C48.1785 42.9795 49.1162 42.0046 49.1162 40.8067C49.1162 39.6088 48.1785 38.6338 47.0264 38.6338ZM48.6134 40.8082C48.6134 41.7181 47.9022 42.4583 47.0264 42.4583C46.1506 42.4583 45.4394 41.7188 45.4394 40.8082C45.4394 39.8976 46.1506 39.1582 47.0264 39.1582C47.9022 39.1582 48.6134 39.8976 48.6134 40.8082Z" fill="black"/>
<path d="M92.999 51.6265C91.8476 51.6265 90.9092 52.6014 90.9092 53.7993C90.9092 54.9973 91.8469 55.9722 92.999 55.9722C94.1512 55.9722 95.0889 54.9973 95.0889 53.7993C95.0889 52.6014 94.1512 51.6265 92.999 51.6265ZM94.586 53.8009C94.586 54.7107 93.8748 55.451 92.999 55.451C92.1232 55.451 91.412 54.7115 91.412 53.8009C91.412 52.8903 92.1232 52.1508 92.999 52.1508C93.8748 52.1508 94.586 52.8903 94.586 53.8009Z" fill="black"/>
<path d="M62.4458 28.7852L46.8777 40.5963C46.6852 40.7439 46.7811 41.0696 47.0257 41.0696C47.1571 41.0696 47.0846 41.1317 62.7418 29.2083C63.0106 29.0034 62.7123 28.5834 62.4451 28.786L62.4458 28.7852Z" fill="black"/>
<path d="M89.9923 20.2217H62.5942C62.4553 20.2217 62.3428 20.3386 62.3428 20.4831V36.9854C62.3428 37.1298 62.4553 37.2468 62.5942 37.2468H89.9923C90.1312 37.2468 90.2437 37.1298 90.2437 36.9854V20.4831C90.2437 20.3386 90.1312 20.2217 89.9923 20.2217ZM62.8456 36.7239V20.7445H89.7409V36.7239H62.8456Z" fill="black"/>
<path d="M86.0664 22.8711H65.0162C64.684 22.8711 64.684 23.3939 65.0162 23.3939H86.0664C86.4001 23.3939 86.4001 22.8711 86.0664 22.8711Z" fill="black"/>
<path d="M82.9974 26.6052H65.0148C64.6826 26.6052 64.6826 27.1288 65.0148 27.1288H82.9974C83.3296 27.1288 83.3296 26.6052 82.9974 26.6052Z" fill="black"/>
<path d="M81.3871 30.3394H65.0143C64.6821 30.3394 64.6821 30.8622 65.0143 30.8622H81.3871C81.7208 30.8622 81.7208 30.3394 81.3871 30.3394Z" fill="black"/>
<path d="M86.0664 34.0745H65.0162C64.684 34.0745 64.684 34.5973 65.0162 34.5973H86.0664C86.4001 34.5973 86.4001 34.0745 86.0664 34.0745Z" fill="black"/>
<path d="M76.0232 42.4575H56.4106C56.2717 42.4575 56.1592 42.5745 56.1592 42.7189V54.53C56.1592 54.6745 56.2717 54.7914 56.4106 54.7914H76.0232C76.1621 54.7914 76.2746 54.6745 76.2746 54.53V42.7189C76.2746 42.5745 76.1621 42.4575 76.0232 42.4575ZM75.7718 42.9803V54.2686H56.662V42.9803H75.7718Z" fill="black"/>
<path d="M73.7515 45.0981H58.6847C58.3525 45.0981 58.3525 45.621 58.6847 45.621H73.7515C74.0837 45.621 74.0837 45.0981 73.7515 45.0981Z" fill="black"/>
<path d="M71.5559 48.3623H58.6847C58.3525 48.3623 58.3525 48.8859 58.6847 48.8859H71.5559C71.8881 48.8859 71.8881 48.3623 71.5559 48.3623Z" fill="black"/>
<path d="M73.7515 51.6265H58.6847C58.3525 51.6265 58.3525 52.1493 58.6847 52.1493H73.7515C74.0837 52.1493 74.0837 51.6265 73.7515 51.6265Z" fill="black"/>
<path d="M100.1 39.7649C93.2361 39.7649 87.6528 45.5708 87.6528 52.7056C87.6528 59.8405 93.2368 65.6471 100.1 65.6471C106.963 65.6471 112.546 59.8413 112.546 52.7056C112.546 45.57 106.962 39.7649 100.1 39.7649ZM112.04 52.4442H100.351V40.2901C106.738 40.4282 111.908 45.8039 112.04 52.4442ZM100.1 65.1243C93.5139 65.1243 88.1564 59.5532 88.1564 52.7056C88.1564 45.946 93.3787 40.4298 99.8483 40.2901V52.7056C99.8483 52.8501 99.9608 52.9678 100.1 52.9678H112.04C111.906 59.6953 106.6 65.1243 100.1 65.1243Z" fill="black"/>
<path d="M93.0707 53.5472L76.0953 48.3701C75.7729 48.2759 75.6362 48.7768 75.9533 48.8725L92.9212 54.0465C93.0412 54.0936 93.1968 54.0237 93.2421 53.8714C93.2806 53.7325 93.2036 53.5872 93.0707 53.5472Z" fill="black"/>
<path d="M105.459 15.9653C102.62 15.9653 100.312 18.3674 100.312 21.3182C100.312 24.2691 102.621 26.6704 105.459 26.6704C108.297 26.6704 110.607 24.2691 110.607 21.3182C110.607 18.3674 108.297 15.9653 105.459 15.9653ZM110.104 21.3182C110.104 23.9818 108.02 26.1476 105.459 26.1476C102.898 26.1476 100.814 23.981 100.814 21.3182C100.814 18.6555 102.898 16.4889 105.459 16.4889C108.02 16.4889 110.104 18.6555 110.104 21.3182Z" fill="black"/>
<path d="M110.931 12.6926C109.904 11.9892 107.6 14.5758 106.323 16.1788C104.426 18.5534 102.535 21.5733 101.254 24.1654C100.342 26.0211 98.9645 29.2396 99.9883 29.943C101.116 30.7076 103.726 27.5503 104.598 26.4552C104.81 26.1883 104.422 25.8563 104.211 26.1216C101.908 29.0104 100.592 29.7302 100.267 29.5057C99.943 29.2836 100.059 27.7411 101.704 24.4017C103.001 21.7711 104.88 18.8054 106.71 16.5108C109.01 13.6268 110.325 12.8975 110.654 13.1275C110.977 13.3497 110.86 14.8922 109.217 18.2308C109.066 18.5307 109.506 18.7819 109.664 18.4686C110.576 16.6137 111.954 13.3952 110.93 12.6926H110.931Z" fill="black"/>
<path d="M110.081 23.3561C109.88 23.0845 109.482 23.3938 109.683 23.6717C111.865 26.6579 112.239 28.1541 111.957 28.4312C111.676 28.7067 110.259 28.2396 107.505 25.8187C105.378 23.9512 102.993 21.3536 101.244 18.9641C99.0627 15.974 98.6883 14.4794 98.9691 14.2038C99.2477 13.9259 100.665 14.3954 103.421 16.8155C103.674 17.04 104.001 16.6397 103.746 16.416C102.214 15.0697 99.5127 12.9486 98.6233 13.8231C97.7309 14.7015 99.6312 17.6194 100.843 19.2804C102.58 21.6566 104.983 24.2958 107.178 26.2198C108.218 27.1336 111.316 29.7814 112.302 28.8103C113.196 27.9272 111.294 25.0141 110.082 23.3561H110.081Z" fill="black"/>
<path d="M109.927 18.9883C109.604 18.9993 109.608 19.5104 109.935 19.5104H109.946C113.948 19.3573 115.537 19.9531 115.625 20.3927C115.716 20.8378 114.28 21.9344 110.046 22.9793C107.217 23.6717 104.217 24.0948 101.617 24.2384C97.188 24.4818 95.3903 23.8475 95.2975 23.3875C95.1668 22.7485 97.4794 21.6558 100.676 20.8472C100.996 20.764 100.877 20.2545 100.557 20.3401C98.7274 20.8009 94.5055 22.0318 94.8052 23.4966C95.0596 24.7526 98.5138 24.8162 99.7557 24.8162C103.375 24.8162 106.796 24.2408 110.036 23.5194C117.67 21.8183 118.705 18.6477 109.927 18.9891V18.9883Z" fill="black"/>
<path d="M104.903 17.6726C104.381 17.6726 103.954 18.1153 103.954 18.6601C103.954 19.2049 104.38 19.6469 104.903 19.6469C105.426 19.6469 105.852 19.2041 105.852 18.6601C105.852 18.1161 105.426 17.6726 104.903 17.6726Z" fill="black"/>
<path d="M99.5983 18.1697C100.238 18.1697 100.756 17.631 100.756 16.9663C100.756 16.3018 100.238 15.7629 99.5983 15.7629C98.9589 15.7629 98.4409 16.3018 98.4409 16.9663C98.4409 17.631 98.9589 18.1697 99.5983 18.1697Z" fill="black"/>
<path d="M98.0944 25.7254C98.7339 25.7254 99.2518 25.1867 99.2518 24.522C99.2518 23.8574 98.7339 23.3186 98.0944 23.3186C97.4549 23.3186 96.937 23.8574 96.937 24.522C96.937 25.1867 97.4549 25.7254 98.0944 25.7254Z" fill="black"/>
<path d="M110.487 31.4314H100.435C100.102 31.4314 100.102 31.955 100.435 31.955H110.487C110.819 31.955 110.819 31.4314 110.487 31.4314Z" fill="black"/>
<path d="M107.471 33.0149H100.435C100.102 33.0149 100.102 33.5377 100.435 33.5377H107.471C107.804 33.5377 107.804 33.0149 107.471 33.0149Z" fill="black"/>
<path d="M108.831 34.5957H100.435C100.102 34.5957 100.102 35.1185 100.435 35.1185H108.831C109.163 35.1185 109.163 34.5957 108.831 34.5957Z" fill="black"/>
<path d="M34.9291 18.5347H27.5369C27.2032 18.5347 27.2032 19.0575 27.5369 19.0575H34.9291C35.2613 19.0575 35.2613 18.5347 34.9291 18.5347Z" fill="black"/>
<path d="M32.7109 20.1165H27.5369C27.2032 20.1165 27.2032 20.6393 27.5369 20.6393H32.7109C33.0431 20.6393 33.0431 20.1165 32.7109 20.1165Z" fill="black"/>
<path d="M33.712 21.699H27.5369C27.2032 21.699 27.2032 22.2218 27.5369 22.2218H33.712C34.0442 22.2218 34.0442 21.699 33.712 21.699Z" fill="black"/>
<path d="M93.6549 102.462H7.68457V109.733H93.6549V102.462Z" fill="#FFD997"/>
<path d="M95.1117 100.039H6.22705V102.461H95.1117V100.039Z" fill="#FFD997"/>
<path d="M95.1124 100.039H6.22705L10.8295 94.7932H90.5107L95.1124 100.039Z" fill="white"/>
<path d="M95.2993 99.8629C90.2975 94.2376 90.6742 94.5304 90.5111 94.5304L10.6458 94.6152L6.04327 99.8622C5.89831 100.025 6.00552 100.301 6.22749 100.301H95.1151C95.3371 100.301 95.445 100.027 95.2993 99.8629ZM94.5443 99.7782H6.79676L10.941 95.0532H90.4001L94.5443 99.7782Z" fill="black"/>
<path d="M91.7256 148.9H93.6554V109.734H89.481L91.7256 148.9Z" fill="#FFD997"/>
<path d="M9.61508 148.9H7.68457V109.734H11.8597L9.61508 148.9Z" fill="#FFD997"/>
<path d="M95.1131 99.7773H6.227C6.08808 99.7773 5.97559 99.8943 5.97559 100.039V102.461C5.97559 102.606 6.08808 102.723 6.227 102.723H7.43349V148.899C7.43349 149.044 7.54599 149.161 7.68491 149.161H9.61846C9.74908 149.158 9.85704 149.051 9.86459 148.915L12.0934 109.995H89.246L91.4748 148.915C91.4824 149.053 91.5926 149.161 91.7255 149.161H93.659C93.7957 149.158 93.9059 149.042 93.9059 148.899L93.9074 102.723H95.1139C95.2528 102.723 95.3653 102.606 95.3653 102.461V100.039C95.3653 99.8943 95.2528 99.7773 95.1139 99.7773H95.1131ZM7.93632 109.995H11.592L9.37762 148.639H7.93632V109.995ZM93.4038 148.639H91.9625L89.7474 109.995H93.4038V148.639ZM93.4038 109.471H7.93632V102.723H93.4038V109.471ZM94.8617 102.2H6.47842V100.3H94.8617V102.2Z" fill="black"/>
<path d="M102.321 92.1872C102.259 91.4061 102.236 90.3079 101.056 90.3157C100.303 90.3204 99.469 90.5724 99.1828 91.0552C98.3176 91.6746 97.7272 91.6855 97.4962 95.1293C97.0839 101.276 96.9088 106.247 98.2353 106.835C98.2519 106.827 98.2678 106.824 98.2829 106.816C98.2028 108.02 98.0511 110.632 98.1787 111.273C98.3085 111.927 98.7351 112.561 100.127 113.082L100.475 111.582C100.475 111.582 99.8012 111.412 99.6185 110.733C99.4841 110.234 99.6336 108.16 99.7227 107.092C100.9 107.277 101.527 107.08 101.782 106.911C102.269 106.585 102.28 105.805 102.327 105.234C102.442 103.857 102.657 96.467 102.321 92.1872H102.321Z" fill="white"/>
<path d="M100.75 114.354C99.6491 114.354 100.185 112.502 100.532 111.548C100.654 111.216 100.954 110.997 101.288 110.997H115.964C116.298 110.997 116.598 111.215 116.72 111.548C117.067 112.501 117.603 114.354 116.502 114.354H100.75Z" fill="white"/>
<path d="M101.601 114.354C100.618 114.354 101.095 115.388 101.406 115.919C101.515 116.105 101.784 116.227 102.08 116.227H115.173C115.472 116.227 115.74 116.104 115.847 115.919C116.156 115.388 116.635 114.354 115.652 114.354H101.6H101.601Z" fill="white"/>
<path d="M116.959 111.455C116.802 111.024 116.403 110.734 115.967 110.734H101.291C100.922 110.734 100.578 110.943 100.387 111.268C100.219 111.186 99.9569 111.008 99.8632 110.661C99.747 110.236 99.8436 108.544 99.9433 107.4C100.368 107.462 100.919 107.472 101.334 107.36C102.374 107.236 102.494 106.246 102.577 105.261C102.743 103.291 102.866 96.1946 102.562 92.0615C102.507 91.3119 102.416 90.0566 101.052 90.0566C100.226 90.0629 99.2653 90.3471 98.9384 90.9696C97.5469 91.4571 97.3604 93.3905 97.2441 95.1105C96.7564 102.398 96.7459 106.284 98.0437 107.028C97.9954 107.678 97.7877 110.599 97.9372 111.387C98.1547 112.535 99.3506 113.096 99.8481 113.282C99.7968 114.056 100.045 114.613 100.791 114.613C100.701 114.958 100.835 115.44 101.193 116.053C101.347 116.316 101.696 116.486 102.082 116.486L115.176 116.488C115.564 116.488 115.913 116.317 116.066 116.054C116.423 115.442 116.558 114.958 116.467 114.613C117.84 114.613 117.447 112.788 116.959 111.454L116.959 111.455ZM101.071 90.5779C101.817 90.5606 101.986 91.0709 102.062 92.1C102.337 95.8209 102.264 102.905 102.065 105.344C101.992 106.237 101.89 106.874 101.069 106.847C100.23 106.819 99.8836 106.305 99.9108 105.132C99.9735 102.514 100.006 96.9238 100.009 94.6497C100.012 92.2303 99.941 91.3378 99.528 91.0324C99.7961 90.7898 100.257 90.5959 101.071 90.5771V90.5779ZM97.7455 95.1482C97.9214 92.5451 98.3147 91.8637 98.9769 91.5191C99.306 91.3487 99.5107 91.2035 99.5061 94.6489C99.5031 97.0282 99.4684 102.562 99.408 105.118C99.3997 105.467 99.38 106.305 99.8587 106.856C99.7749 106.842 99.2441 106.163 98.2491 106.548C97.035 105.709 97.479 99.1085 97.7455 95.1482ZM98.4295 111.288C98.2974 110.591 98.4967 107.658 98.5488 106.996C98.8863 106.902 99.1792 106.969 99.4555 107.203C99.4012 107.798 99.2019 110.152 99.377 110.803C99.528 111.358 99.9403 111.632 100.195 111.752C100.07 112.121 99.9788 112.456 99.9206 112.756C99.4759 112.576 98.5858 112.117 98.4303 111.289L98.4295 111.288ZM115.631 115.783C115.471 116.061 115.577 115.964 102.08 115.964C101.85 115.964 101.671 115.871 101.62 115.782C101.294 115.224 101.219 114.843 101.289 114.713C101.378 114.548 101.291 114.615 115.653 114.615C115.77 114.615 115.92 114.631 115.965 114.714C116.035 114.842 115.959 115.221 115.632 115.783H115.631ZM116.809 113.958C116.671 114.169 116.805 114.093 100.75 114.093C99.9727 114.093 100.491 112.401 100.768 111.642C100.852 111.409 101.056 111.259 101.288 111.259H115.964C116.196 111.259 116.4 111.409 116.484 111.642C116.898 112.775 117.018 113.641 116.808 113.958H116.809Z" fill="black"/>
<path d="M107.328 119.84C107.019 119.84 106.89 119.338 106.729 118.061C106.613 117.145 106.597 116.225 106.731 116.225H110.524C110.659 116.225 110.641 117.144 110.525 118.061C110.364 119.338 110.235 119.84 109.926 119.84H107.328Z" fill="white"/>
<path d="M110.74 116.068C110.615 115.921 110.863 115.964 106.731 115.964C106.648 115.964 106.571 116.001 106.514 116.068C106.296 116.324 106.398 117.448 106.478 118.094C106.635 119.343 106.771 120.102 107.326 120.102H109.927C110.481 120.102 110.617 119.343 110.774 118.094C110.839 117.575 110.966 116.338 110.74 116.068H110.74ZM109.926 119.579H107.329C107.117 119.51 106.829 117.221 106.896 116.488H110.358C110.421 117.183 110.145 119.51 109.927 119.579H109.926Z" fill="black"/>
<path d="M115.851 128.502L110.037 126.339C109.766 126.239 109.585 125.971 109.585 125.673V119.84H107.668V125.673C107.668 125.973 107.486 126.239 107.215 126.339L101.402 128.502C100.753 128.743 100.353 129.42 100.441 130.131L100.579 131.257H102.037L102.315 130.315C102.402 130.018 102.639 129.798 102.932 129.741C108.289 128.693 108.397 128.585 109.36 128.771L114.321 129.741C114.614 129.798 114.852 130.019 114.939 130.315L115.217 131.257H116.675L116.813 130.131C116.9 129.42 116.5 128.742 115.852 128.502H115.851Z" fill="white"/>
<path d="M115.938 128.256L110.125 126.094C109.954 126.029 109.84 125.86 109.84 125.671V119.839C109.84 119.694 109.727 119.577 109.588 119.577H107.67C107.531 119.577 107.419 119.694 107.419 119.839V125.671C107.419 125.861 107.305 126.03 107.134 126.093L101.321 128.256C100.567 128.536 100.094 129.339 100.196 130.164L100.333 131.287C100.348 131.419 100.454 131.519 100.582 131.519H102.04C102.151 131.519 102.246 131.444 102.28 131.334L102.558 130.392C102.617 130.188 102.779 130.038 102.981 129.998C108.246 128.972 108.397 128.849 109.316 129.029L114.276 129.998C114.477 130.038 114.639 130.188 114.699 130.392L114.977 131.334C115.01 131.444 115.106 131.519 115.217 131.519H116.678C116.803 131.519 116.91 131.421 116.927 131.29L117.065 130.164C117.165 129.338 116.692 128.536 115.94 128.256H115.938ZM100.802 130.995L100.692 130.097C100.621 129.513 100.956 128.946 101.489 128.747L107.302 126.584C107.671 126.445 107.92 126.079 107.92 125.671V120.099H109.334V125.671C109.334 126.08 109.583 126.445 109.952 126.584L115.765 128.747C116.299 128.946 116.634 129.513 116.563 130.097L116.453 130.995H115.403L115.18 130.238C115.065 129.848 114.754 129.56 114.368 129.485C109.153 128.468 108.888 128.312 107.849 128.516L102.887 129.485C102.502 129.559 102.191 129.848 102.077 130.238L101.853 130.995H100.801H100.802Z" fill="black"/>
<path d="M101.355 134.226C102.316 134.226 103.095 133.415 103.095 132.416C103.095 131.417 102.316 130.607 101.355 130.607C100.394 130.607 99.6147 131.417 99.6147 132.416C99.6147 133.415 100.394 134.226 101.355 134.226Z" fill="black"/>
<path d="M101.354 133.308C101.828 133.308 102.212 132.908 102.212 132.415C102.212 131.922 101.828 131.523 101.354 131.523C100.88 131.523 100.496 131.922 100.496 132.415C100.496 132.908 100.88 133.308 101.354 133.308Z" fill="white"/>
<path d="M115.898 130.607C114.939 130.607 114.157 131.418 114.157 132.416C114.157 133.414 114.938 134.226 115.898 134.226C116.859 134.226 117.639 133.414 117.639 132.416C117.639 131.418 116.858 130.607 115.898 130.607Z" fill="black"/>
<path d="M115.898 133.308C116.373 133.308 116.757 132.908 116.757 132.415C116.757 131.922 116.373 131.523 115.898 131.523C115.424 131.523 115.04 131.922 115.04 132.415C115.04 132.908 115.424 133.308 115.898 133.308Z" fill="white"/>
<path d="M147.361 93.3335H115.192V95.0212H147.361V93.3335Z" fill="white"/>
<path d="M147.361 95.0212H119.187V100.83H147.361V95.0212Z" fill="white"/>
<path d="M121.033 134.107H119.187V100.83L122.51 100.831L121.033 134.107Z" fill="white"/>
<path d="M145.515 134.107H147.361V100.83L144.036 100.831L145.515 134.107Z" fill="white"/>
<path d="M147.612 93.3327C147.612 93.1883 147.5 93.0713 147.361 93.0713H115.192C115.053 93.0713 114.94 93.1883 114.94 93.3327V95.0204C114.94 95.1649 115.053 95.2826 115.192 95.2826H118.935V134.106C118.935 134.251 119.048 134.368 119.187 134.368H121.033C121.168 134.368 121.278 134.257 121.283 134.118L122.75 101.092H143.797L145.264 134.117C145.27 134.258 145.379 134.368 145.515 134.368H147.36C147.499 134.368 147.612 134.251 147.612 134.106V93.3327H147.612ZM115.443 93.5949H147.109V94.759H115.443V93.5949ZM120.792 133.845H119.439V101.092H122.248L120.792 133.845ZM147.109 133.845H145.756L144.3 101.092H147.109V133.845ZM147.109 100.569H119.439V95.2826H147.109V100.569Z" fill="black"/>
<path d="M127.615 64.3818L136.114 65.6763C136.809 65.7815 137.29 66.4526 137.19 67.1764L134.176 88.7969C134.061 89.6227 133.25 90.1329 132.492 89.8551L123.972 86.7229C123.433 86.5251 123.109 85.956 123.199 85.3711L126.276 65.4039C126.378 64.7405 126.973 64.2853 127.614 64.3818H127.615Z" fill="white"/>
<path d="M136.151 65.4196L127.649 64.1259C126.811 64.0003 126.142 64.6291 126.028 65.3639L122.952 85.3311C122.842 86.0392 123.236 86.7292 123.889 86.971L132.41 90.1024C133.301 90.4376 134.284 89.8386 134.427 88.8362L137.439 67.2165C137.558 66.3514 136.98 65.546 136.151 65.4204V65.4196ZM123.447 85.4128L126.524 65.4447C126.591 65.0138 126.928 64.6951 127.32 64.6393L134.7 65.7627C135.256 65.8467 135.644 66.3867 135.564 66.9661L132.552 88.5865C132.503 88.9374 132.288 89.2389 131.984 89.3912L124.055 86.4765C123.631 86.3218 123.376 85.8736 123.447 85.4128ZM136.94 67.1396L133.929 88.76C133.84 89.4029 133.208 89.841 132.567 89.6063C132.824 89.3629 132.998 89.0316 133.048 88.6627L136.061 67.0422C136.119 66.6207 136.011 66.2133 135.789 65.8914L136.077 65.9354C136.633 66.0201 137.02 66.5602 136.94 67.1396Z" fill="black"/>
<path d="M139.402 91.8301H128.71V93.3334H139.402V91.8301Z" fill="white"/>
<path d="M134.177 88.7968C134.062 89.6226 133.251 90.1329 132.493 89.855L132.11 89.7145L132.382 91.8293H136.81L135.444 79.6885L134.176 88.796L134.177 88.7968Z" fill="white"/>
<path d="M139.402 91.5678H137.038L135.697 79.6602C135.665 79.3556 135.241 79.3501 135.2 79.6508L133.93 88.7591C133.885 89.0763 133.71 89.3526 133.448 89.5166C132.987 89.8047 132.624 89.636 132.199 89.4695C132.027 89.402 131.839 89.5512 131.865 89.7459L132.1 91.5678H128.711C128.572 91.5678 128.46 91.6848 128.46 91.8292V93.3325C128.46 93.477 128.572 93.5947 128.711 93.5947H139.403C139.542 93.5947 139.654 93.477 139.654 93.3325V91.8292C139.654 91.6848 139.542 91.5678 139.403 91.5678H139.402ZM132.411 90.1015C133.311 90.4327 134.286 89.8306 134.427 88.8353L135.419 81.7169L136.532 91.5686H132.608L132.411 90.1022V90.1015ZM139.15 93.0711H128.962V92.0906H139.15V93.0711Z" fill="black"/>
<path d="M132.644 68.7512C132.672 71.5489 128.547 70.5253 127.421 73.6653C126.516 76.1898 128.876 78.3023 129.589 80.001C130.577 82.3544 127.539 81.4925 124.918 82.9832L125.647 84.1356C127.077 83.192 128.535 83.2203 129.634 82.6912C130.898 82.0836 131.144 80.8519 130.596 79.5433C129.838 77.7355 127.784 75.9269 128.451 74.0648C129.01 72.5058 130.919 72.3198 132.303 71.4492C133.102 70.9468 133.841 70.1657 133.818 68.865C133.807 68.0839 132.638 68.1765 132.643 68.7504L132.644 68.7512Z" fill="white"/>
<path d="M130.414 67.8154C130.424 67.8397 130.42 67.8649 130.408 67.8868C129.51 69.4984 130.169 70.7639 131.101 72.3354C133.053 75.6285 132.163 76.4457 129.698 77.423C128.328 77.9662 127.006 78.5008 126.867 79.9829C126.718 81.556 128.352 83.9354 129.345 85.0501C129.365 85.0721 129.372 85.1042 129.362 85.1333C129.245 85.4967 128.966 85.704 128.623 85.8476C128.592 85.8602 128.557 85.8524 128.535 85.8272C127.276 84.3726 125.588 81.8198 125.771 79.8722C125.964 77.8194 127.58 77.0376 129.306 76.3546C131.311 75.5602 131.61 75.3805 130.163 72.9391C129.301 71.4853 128.204 69.6358 129.416 67.386C129.424 67.3719 129.434 67.3609 129.449 67.3538C129.779 67.1741 130.244 67.4237 130.413 67.8162L130.414 67.8154Z" fill="white"/>
<path d="M132.621 68.7063C132.639 68.9489 132.891 69.1106 133.212 69.1066C133.999 69.0964 133.932 68.2918 133.164 68.3099C132.84 68.3177 132.61 68.5524 132.621 68.7071V68.7063Z" fill="white"/>
<path d="M134.013 68.861C133.994 67.828 132.456 67.9057 132.456 68.7527C132.469 70.0331 131.537 70.4216 130.353 70.9146C130.124 71.0057 130.25 71.3778 130.498 71.2804C131.503 70.862 132.537 70.431 132.782 69.3101C133.013 69.4522 133.323 69.4702 133.603 69.3328C133.389 70.8031 132.09 71.4162 130.895 71.9218C130.674 72.0105 130.783 72.3833 131.036 72.286C132.703 71.5874 134.046 70.7498 134.012 68.861H134.013ZM133.241 69.0306C132.976 69.0651 132.719 68.7888 132.894 68.6122C132.974 68.5337 133.123 68.4897 133.276 68.4984C133.662 68.5204 133.788 68.9584 133.241 69.0298V69.0306Z" fill="black"/>
<path d="M129.485 84.9175C128.156 83.4213 128.188 82.8326 127.876 83.0382C127.79 83.0979 127.765 83.2203 127.821 83.3106C128.213 83.9441 128.698 84.6035 129.158 85.1318C129.07 85.3438 128.896 85.5047 128.619 85.6311C128.039 84.9717 127.479 84.1937 127.036 83.4299C126.902 83.2117 126.583 83.408 126.712 83.6356C127.184 84.4504 127.782 85.2763 128.393 85.96C128.46 86.0385 128.517 86.044 128.593 86.0511C128.628 86.0511 128.662 86.044 128.693 86.0306C129.149 85.8407 129.419 85.5753 129.541 85.1978C129.573 85.102 129.552 84.9944 129.485 84.9175Z" fill="black"/>
<path d="M129.322 71.3761C128.592 71.7505 127.695 72.3409 127.245 73.5969C126.733 75.0232 127.24 76.2863 127.668 77.1145C127.795 77.3413 128.119 77.1506 128 76.9245C126.789 74.5742 127.547 72.7239 129.49 71.7309C129.713 71.6195 129.552 71.2607 129.322 71.3761Z" fill="black"/>
<path d="M130.773 79.4648C130.493 78.7945 130.012 78.0942 129.585 77.4223C129.449 77.208 129.128 77.4152 129.269 77.6389C129.674 78.2834 130.156 78.9797 130.424 79.6195C130.965 80.9092 130.641 81.9902 129.558 82.5114C128.6 82.9691 127.2 83.0193 125.856 83.78C125.784 83.5045 125.589 83.1748 125.369 82.9659C127.871 81.7782 130.791 82.378 129.762 79.9186C129.499 79.289 129.025 78.6186 128.557 77.8784C128.423 77.6601 128.103 77.8729 128.239 78.0942C128.665 78.7693 129.158 79.468 129.415 80.0748C130.097 81.7123 128.774 81.4187 126.243 82.2108C125.835 82.3395 125.108 82.6174 124.816 82.8144C124.338 83.1402 125.245 84.6231 125.752 84.3028C127.395 83.269 128.437 83.4848 129.717 82.8686C131.013 82.2469 131.407 80.9736 130.773 79.4633V79.4648Z" fill="black"/>
<path d="M126.873 83.5429L127.972 83.2014L128.017 83.2925C126.772 83.608 126.975 83.6999 126.873 83.5429Z" fill="black"/>
<path d="M129.858 72.3849C128.15 73.2225 127.667 74.6897 128.634 76.5682C128.757 76.7895 129.084 76.6051 128.965 76.3766C128.159 74.816 128.389 73.5789 130.024 72.7397C130.247 72.6283 130.089 72.2711 129.857 72.3849H129.858Z" fill="black"/>
<path d="M131.261 72.2311C130.387 70.7655 129.78 69.6273 130.583 67.8971C130.608 67.843 130.607 67.7841 130.585 67.7339C130.306 67.0611 129.458 66.9277 129.249 67.2864C127.976 69.6312 129.099 71.5223 130 73.0405C130.634 74.1096 130.976 74.8067 130.848 75.2031C130.491 76.2904 125.916 76.3029 125.58 79.8519C125.508 80.6039 125.692 81.4902 126.127 82.4872C126.234 82.7187 126.577 82.5633 126.474 82.3231C126.069 81.3952 125.896 80.5772 125.961 79.8919C126.141 77.9726 127.678 77.2112 129.374 76.5392C131.492 75.6993 131.849 75.4072 130.319 72.8254C129.478 71.4053 128.432 69.6398 129.565 67.5133C129.775 67.4261 130.067 67.5902 130.2 67.8147C129.696 68.8894 129.703 70.0017 130.22 71.1235C130.822 72.4211 132.321 74.3302 131.903 75.6074C131.171 77.8431 124.881 77.0165 127.15 82.0633C127.25 82.305 127.605 82.1363 127.495 81.8992C125.393 77.2143 131.422 78.3055 132.26 75.7322C132.524 74.9253 132.215 73.8459 131.26 72.2311H131.261Z" fill="black"/>
<path d="M129.884 72.5992C129.786 72.4509 129.495 72.0301 129.277 71.6313L129.408 71.5513C129.527 71.8299 129.776 72.2703 129.945 72.5616L129.885 72.5985L129.884 72.5992Z" fill="black"/>
<path d="M130.127 68.9104C132.879 69.4199 132.863 69.3633 132.857 69.5988C132.851 69.8186 132.662 69.8807 132.525 69.8493L130.089 69.2707L130.126 68.9104H130.127Z" fill="black"/>
<path d="M129.993 69.8911C132.645 70.3747 132.5 70.315 132.524 70.4359C132.568 70.6526 132.388 70.8221 132.232 70.7852L130.059 70.2781L129.993 69.8911Z" fill="black"/>
<path d="M128.956 73.3418C131.766 74.6912 131.614 74.5923 131.625 74.6763C131.638 74.7744 131.553 74.8757 131.469 74.8435L128.608 73.7775L128.956 73.3426V73.3418Z" fill="black"/>
<path d="M128.406 74.5515C131.601 75.5461 131.559 75.4951 131.579 75.5752C131.613 75.7031 131.522 75.795 131.46 75.784L128.311 75.083L128.406 74.5523V74.5515Z" fill="black"/>
<path d="M127.96 78.2639C130.494 79.6903 130.367 79.5945 130.37 79.6777C130.373 79.7727 130.284 79.8637 130.204 79.8308L127.478 78.6705L127.961 78.2639H127.96Z" fill="black"/>
<path d="M127.187 79.292C130.667 80.8401 130.47 80.727 130.485 80.8094C130.501 80.8989 130.428 81.0128 130.334 80.9829L126.959 79.8525C126.984 79.6759 127.056 79.4891 127.188 79.2913L127.187 79.292Z" fill="black"/>
<path d="M126.831 80.4829C130.384 81.5356 130.173 81.4477 130.198 81.527C130.226 81.6157 130.164 81.7366 130.074 81.7201L126.894 81.0827L126.832 80.4837L126.831 80.4829Z" fill="black"/>
<path d="M28.2325 87.719C28.2325 87.719 26.98 89.9798 26.98 90.8135C26.98 91.6471 27.5953 92.301 27.5953 92.301H28.8705C28.8705 92.301 29.4851 91.6471 29.4851 90.8135C29.4851 89.9798 28.2325 87.719 28.2325 87.719Z" fill="#FFD997"/>
<path d="M28.8708 92.5757C27.5171 92.5757 27.5111 92.6056 27.4069 92.4941C27.3789 92.4635 26.7168 91.7491 26.7168 90.8142C26.7168 89.9319 27.8727 87.8202 28.0041 87.5823C28.0984 87.412 28.368 87.412 28.4624 87.5823C28.5937 87.8202 29.7496 89.9319 29.7496 90.8142C29.7496 91.7483 29.0875 92.4635 29.0596 92.4941C29.0105 92.5467 28.9418 92.5757 28.8708 92.5757ZM27.7157 92.027H28.7508C28.8965 91.841 29.2219 91.3653 29.2219 90.8142C29.2219 90.3039 28.633 89.0566 28.2328 88.2849C27.8334 89.0558 27.2438 90.3032 27.2438 90.8142C27.2438 91.3653 27.5692 91.841 27.7149 92.027H27.7157Z" fill="black"/>
<path d="M28.4459 90.3943C28.3454 90.253 28.1197 90.253 28.02 90.3943C27.9747 90.4579 27.5806 91.0317 27.5988 91.5451C27.6101 91.8623 27.7271 92.4345 28.0321 92.4345C28.4723 92.4345 28.5402 92.4557 28.6361 92.3356C28.658 92.3089 28.8483 92.0569 28.8672 91.5451C28.8853 91.0317 28.4912 90.4579 28.4459 90.3943Z" fill="black"/>
<path d="M35.4694 96.5408H13.6816V98.1799H35.4694V96.5408Z" fill="#81F8F8"/>
<path d="M35.4695 96.2795H13.6816C13.5427 96.2795 13.4302 96.3965 13.4302 96.5409V98.18C13.4302 98.3245 13.5427 98.4422 13.6816 98.4422H35.4695C35.6084 98.4422 35.7209 98.3245 35.7209 98.18V96.5409C35.7209 96.3965 35.6084 96.2795 35.4695 96.2795ZM35.2173 96.8031V97.9186H13.933V96.8031H35.2173Z" fill="black"/>
<path d="M40.2122 74.188V75.2893C40.2122 75.3914 40.3805 75.4856 40.6584 75.557V93.981C40.6584 94.6757 41.2964 95.2401 42.0838 95.2401C42.8713 95.2401 43.5093 94.6757 43.5093 93.981V75.557C43.7871 75.4856 43.9555 75.3914 43.9555 75.2893V74.188H40.2114H40.2122Z" fill="white"/>
<path d="M43.5105 84.3977V93.9818C43.5105 94.6765 42.8726 95.2409 42.0851 95.2409C41.2976 95.2409 40.6597 94.6765 40.6597 93.9818V84.3977H43.5113H43.5105Z" fill="#FFD997"/>
<path d="M43.9555 73.9139H40.2123C40.0378 73.9139 39.9087 74.0874 39.9593 74.2671V75.2892C39.9593 75.4901 40.1035 75.6432 40.407 75.7531V93.9816C40.407 94.8192 41.1598 95.5022 42.0847 95.5022C43.0095 95.5022 43.7615 94.82 43.7615 93.9816V75.7531C44.0628 75.6424 44.2077 75.4902 44.2077 75.2884V74.271C44.2621 74.0944 44.136 73.9131 43.9563 73.9131L43.9555 73.9139ZM42.0839 94.9793C41.4361 94.9793 40.9091 94.5327 40.9091 93.9816V84.6715H43.2572V93.9816C43.2572 94.5319 42.7309 94.9793 42.0831 94.9793H42.0839ZM43.7041 75.2123C43.6316 75.2523 43.4157 75.3426 42.8917 75.3999C42.5837 75.4321 42.5988 75.925 42.9167 75.9203C42.9876 75.9195 43.1877 75.8881 43.2579 75.8772V84.1228H40.9099V75.8772C41.0103 75.8936 41.1183 75.9086 41.2353 75.9211C41.5728 75.9211 41.5871 75.4336 41.276 75.4007C40.7506 75.3418 40.5346 75.2507 40.4629 75.2123V74.4634H43.7049V75.213L43.7041 75.2123Z" fill="black"/>
<path d="M50.9236 74.188V75.2893C50.9236 75.3914 51.092 75.4856 51.3698 75.557V93.981C51.3698 94.6757 52.0078 95.2401 52.7953 95.2401C53.5827 95.2401 54.2207 94.6757 54.2207 93.981V75.557C54.4985 75.4856 54.6669 75.3914 54.6669 75.2893V74.188H50.9229H50.9236Z" fill="white"/>
<path d="M54.2215 81.7703V93.9809C54.2215 94.6757 53.5835 95.2401 52.796 95.2401C52.0086 95.2401 51.3706 94.6757 51.3706 93.9809V81.7703H54.2222H54.2215Z" fill="#FFD997"/>
<path d="M45.5676 74.188V75.2893C45.5676 75.3914 45.736 75.4856 46.0139 75.557V93.981C46.0139 94.6757 46.6518 95.2401 47.4393 95.2401C48.2268 95.2401 48.8647 94.6757 48.8647 93.981V75.557C49.1426 75.4856 49.3109 75.3914 49.3109 75.2893V74.188H45.5669H45.5676Z" fill="white"/>
<path d="M54.6674 73.9139H50.9241C50.7852 73.9139 50.6704 74.0442 50.6704 74.1886V75.2892C50.6704 75.4901 50.8146 75.6432 51.1181 75.7531V93.9816C51.1181 94.8192 51.8709 95.5022 52.7957 95.5022C53.7206 95.5022 54.4733 94.82 54.4733 93.9816V75.7531C54.7746 75.6424 54.9195 75.4902 54.9195 75.2884V74.1878C54.9195 74.0434 54.8071 73.9131 54.6681 73.9131L54.6674 73.9139ZM53.9698 93.9816C53.9698 94.5319 53.4435 94.9793 52.795 94.9793C52.1464 94.9793 51.621 94.5327 51.621 93.9816V82.0449H53.969V93.9816H53.9698ZM54.416 75.2123C54.3435 75.2523 54.1276 75.3426 53.6036 75.3999C53.294 75.4321 53.3099 75.925 53.6277 75.9203C53.6995 75.9195 53.8995 75.8889 53.9698 75.8772V81.4962H51.6217V75.8772C51.7214 75.8936 51.8293 75.9086 51.9464 75.9211C52.2854 75.9211 52.3012 75.4336 51.9879 75.4007C51.4624 75.3418 51.2465 75.2507 51.1747 75.2123V74.4634H54.4167V75.213L54.416 75.2123Z" fill="black"/>
<path d="M48.8646 88.1194V93.981C48.8646 94.6757 48.2266 95.2401 47.4391 95.2401C46.6516 95.2401 46.0137 94.6757 46.0137 93.981V88.1194H48.8653H48.8646Z" fill="#81F8F8"/>
<path d="M49.3109 73.9141H45.5676C45.4287 73.9141 45.314 74.0444 45.314 74.1888V75.2894C45.314 75.4903 45.4582 75.6434 45.7624 75.7541V93.9826C45.7624 94.8202 46.5144 95.5031 47.4393 95.5031C48.3642 95.5031 49.1169 94.821 49.1169 93.9826V75.7549C49.4189 75.6442 49.5646 75.4911 49.5646 75.2902V74.1896C49.5646 74.0452 49.4506 73.9148 49.3117 73.9148L49.3109 73.9141ZM48.6133 93.9818C48.6133 94.5321 48.0871 94.9795 47.4385 94.9795C46.79 94.9795 46.2645 94.5329 46.2645 93.9818V88.3934H48.6126V93.9818H48.6133ZM49.061 75.2125C48.9885 75.2525 48.7726 75.3428 48.2487 75.4001C47.9376 75.4323 47.9557 75.9252 48.2736 75.9205C48.3445 75.9197 48.5431 75.8891 48.6133 75.8773V87.8439H46.2653V75.8766C46.3657 75.893 46.4736 75.908 46.5907 75.9205C46.9289 75.9205 46.944 75.433 46.6314 75.4001C46.106 75.3412 45.89 75.2501 45.8183 75.2117V74.4628H49.0618V75.2125H49.061Z" fill="black"/>
<path d="M56.8172 77.73H38.063V79.1728H56.8172V77.73Z" fill="#FFD997"/>
<path d="M20.9313 64.2405H13.789C13.6502 64.2405 13.5376 64.3575 13.5376 64.5019V64.9909C13.5376 65.1353 13.6502 65.2523 13.789 65.2523H20.9313C21.0702 65.2523 21.1827 65.1353 21.1827 64.9909V64.5019C21.1827 64.3575 21.0702 64.2405 20.9313 64.2405Z" fill="black"/>
<path d="M13.8349 63.8951C13.6092 63.6431 12.451 63.6055 11.7806 63.6055C9.9074 63.6055 9.64844 63.8433 9.64844 64.1V64.8254C9.64844 65.0766 9.94817 65.1763 10.0931 64.9918C10.6594 64.7971 13.1026 64.8269 13.4816 64.9949C13.551 65.0593 13.653 65.0789 13.7443 65.0428C13.9482 64.9564 13.9029 64.8144 13.9029 64.0741C13.9029 64.0113 13.8787 63.9477 13.8349 63.8959V63.8951Z" fill="black"/>
<path d="M10.4402 63.2246L10.1247 63.07V61.967H13.4285V63.0456C13.4285 63.0456 13.1069 63.2254 13.0986 63.2254C13.0986 65.5035 12.9657 66.8906 13.7056 68.7699H9.83398C10.5814 66.8741 10.4418 65.5019 10.4402 63.2238V63.2246Z" fill="white"/>
<path d="M13.7061 68.7715C14.5494 70.9169 15.9733 74.6763 15.9733 75.6167C15.9733 78.0306 7.56641 78.0306 7.56641 75.6167C7.56641 74.6763 8.99111 70.9153 9.83444 68.7715H13.7061Z" fill="#FFD997"/>
<path d="M12.3931 70.1807H11.1481C10.8159 70.1807 10.8159 70.7043 11.1481 70.7043H12.3931C12.7253 70.7043 12.7253 70.1807 12.3931 70.1807Z" fill="black"/>
<path d="M12.3931 71.99H11.1481C10.8159 71.99 10.8159 72.5136 11.1481 72.5136H12.3931C12.7253 72.5136 12.7253 71.99 12.3931 71.99Z" fill="black"/>
<path d="M12.3931 73.801H11.1481C10.8159 73.801 10.8159 74.3246 11.1481 74.3246H12.3931C12.7253 74.3246 12.7253 73.801 12.3931 73.801Z" fill="black"/>
<path d="M12.3931 75.6111H11.1481C10.8159 75.6111 10.8159 76.1347 11.1481 76.1347H12.3931C12.7253 76.1347 12.7253 75.6111 12.3931 75.6111Z" fill="black"/>
<path d="M18.5434 60.3813H17.2998V95.7817H18.5434V60.3813Z" fill="white"/>
<path d="M18.5434 96.0556H17.2999C17.1542 96.0556 17.0356 95.9331 17.0356 95.7808V60.3805C17.0356 60.229 17.1534 60.1057 17.2999 60.1057H18.5434C18.6891 60.1057 18.8076 60.2282 18.8076 60.3805V95.7808C18.8076 95.9323 18.6898 96.0556 18.5434 96.0556ZM17.5634 95.5069H18.2791V60.656H17.5634V95.5069Z" fill="black"/>
<path d="M32.3069 75.0772C30.2797 72.7599 30.2004 72.5935 30.2004 70.3397V61.2816C30.5085 61.2133 30.6912 61.127 30.6912 61.0359V59.9346H25.6719V61.0359C25.6719 61.1443 25.8577 61.2416 26.1627 61.3146V70.3397C26.1627 72.5935 26.0796 72.7591 24.0532 75.0772C22.8339 76.4714 21.792 78.1136 21.792 80.146C21.792 83.8151 24.6527 86.7878 28.18 86.7878C31.7074 86.7878 34.5681 83.8135 34.5681 80.146C34.5681 78.1136 33.527 76.4722 32.3069 75.0772Z" fill="white"/>
<path d="M31.3192 76.4109C34.7552 79.4394 32.6858 85.312 28.1814 85.312C23.6771 85.312 21.6076 79.4386 25.0436 76.4109H31.32H31.3192Z" fill="#81F8F8"/>
<path d="M28.1814 85.5868C23.4332 85.5868 21.2497 79.3932 24.8722 76.2014C24.9817 76.1048 24.5158 76.1362 31.3176 76.1362C31.3803 76.1362 31.4422 76.159 31.4905 76.2014C35.1009 79.3853 32.9575 85.5868 28.1814 85.5868ZM25.1425 76.6849C21.9851 79.5855 23.9685 85.0381 28.1814 85.0381C32.3943 85.0381 34.389 79.5981 31.2202 76.6849H25.1417H25.1425Z" fill="black"/>
<path d="M32.495 74.903C30.489 72.6092 30.4513 72.5237 30.4513 70.3414V61.4866C30.8809 61.3531 30.942 61.1851 30.942 61.0368V60.0932C30.942 59.8765 30.7729 59.7007 30.5645 59.7007H25.7974C25.5891 59.7007 25.4199 59.8765 25.4199 60.0932V61.0383C25.4199 61.2464 25.5853 61.4073 25.9107 61.5164V70.3414C25.9107 72.5213 25.8729 72.6077 23.8669 74.903C22.8688 76.0452 21.5415 77.8318 21.5415 80.1484C21.5415 83.9548 24.52 87.0517 28.181 87.0517C31.842 87.0517 34.8204 83.9548 34.8204 80.1484C34.8204 77.8318 33.4932 76.0444 32.495 74.903ZM28.181 86.5288C24.7971 86.5288 22.0443 83.6667 22.0443 80.1484C22.0443 78.0124 23.2961 76.3325 24.2384 75.2547C26.2361 72.9719 26.4029 72.6752 26.4128 70.5879H27.435C27.7672 70.5879 27.7672 70.065 27.435 70.065H26.4128V68.7784H27.435C27.7672 68.7784 27.7672 68.2556 27.435 68.2556H26.4128V66.9674H27.435C27.7672 66.9674 27.7672 66.4446 27.435 66.4446H26.4128V65.1564H27.435C27.7672 65.1564 27.7672 64.6336 27.435 64.6336H26.4128V63.3454H27.435C27.7672 63.3454 27.7672 62.8226 27.435 62.8226H26.4128V61.6318C26.4935 61.6443 26.7102 61.6703 26.7102 61.6703C27.0243 61.6703 27.0492 61.1796 26.7359 61.1482C26.2112 61.0893 25.9945 60.9991 25.922 60.9598V60.2698H30.4384V60.9386C30.3373 60.9842 30.036 61.0854 29.278 61.1474C28.9669 61.1726 28.9639 61.6687 29.3165 61.6687C29.5521 61.6498 29.7642 61.6247 29.9477 61.5965V70.3421C29.9477 72.6555 30.0496 72.8848 32.1221 75.2547C33.0643 76.3325 34.3169 78.0116 34.3169 80.1484C34.3169 83.6667 31.5641 86.5288 28.1802 86.5288H28.181Z" fill="black"/>
<path d="M34.2541 84.0671H14.0835V85.36H34.2541V84.0671Z" fill="white"/>
<path d="M34.2542 85.6349H14.0836C13.9379 85.6349 13.8193 85.5124 13.8193 85.3601V84.0672C13.8193 83.9157 13.9371 83.7925 14.0836 83.7925H34.2542C34.3999 83.7925 34.5184 83.9149 34.5184 84.0672V85.3601C34.5184 85.5116 34.4006 85.6349 34.2542 85.6349ZM14.3478 85.0862H33.9907V84.342H14.3471V85.0862H14.3478Z" fill="black"/>
<path d="M17.9216 85.9183C18.5617 85.9183 19.0805 85.379 19.0805 84.7133C19.0805 84.0476 18.5617 83.5083 17.9216 83.5083C17.2816 83.5083 16.7627 84.0476 16.7627 84.7133C16.7627 85.379 17.2816 85.9183 17.9216 85.9183Z" fill="#81F8F8"/>
<path d="M17.9216 83.2468C17.1439 83.2468 16.5112 83.9047 16.5112 84.7132C16.5112 85.5218 17.1439 86.1796 17.9216 86.1796C18.6992 86.1796 19.3319 85.5218 19.3319 84.7132C19.3319 83.9047 18.6992 83.2468 17.9216 83.2468ZM18.8291 84.7148C18.8291 85.2352 18.4221 85.6583 17.9216 85.6583C17.421 85.6583 17.0148 85.2352 17.0148 84.7148C17.0148 84.1943 17.4218 83.7712 17.9216 83.7712C18.4214 83.7712 18.8291 84.1943 18.8291 84.7148Z" fill="black"/>
<path d="M17.9216 65.9517C18.5617 65.9517 19.0805 65.4122 19.0805 64.7467C19.0805 64.0812 18.5617 63.5417 17.9216 63.5417C17.2816 63.5417 16.7627 64.0812 16.7627 64.7467C16.7627 65.4122 17.2816 65.9517 17.9216 65.9517Z" fill="#81F8F8"/>
<path d="M17.9216 63.2805C17.1439 63.2805 16.5112 63.9383 16.5112 64.7469C16.5112 65.5554 17.1439 66.2133 17.9216 66.2133C18.6992 66.2133 19.3319 65.5554 19.3319 64.7469C19.3319 63.9383 18.6992 63.2805 17.9216 63.2805ZM18.8291 64.7485C18.8291 65.2689 18.4221 65.692 17.9216 65.692C17.421 65.692 17.0148 65.2689 17.0148 64.7485C17.0148 64.228 17.4218 63.8049 17.9216 63.8049C18.4214 63.8049 18.8291 64.228 18.8291 64.7485Z" fill="black"/>
<path d="M17.1734 95.0557H18.669C18.8759 95.0557 19.0442 95.2307 19.0442 95.4458V96.5377H16.7974V95.4458C16.7974 95.2307 16.9657 95.0557 17.1726 95.0557H17.1734Z" fill="#81F8F8"/>
<path d="M19.0443 96.8131H16.7975C16.6517 96.8131 16.5332 96.6907 16.5332 96.5384V95.4457C16.5332 95.0791 16.8201 94.7808 17.1727 94.7808H18.6683C19.0209 94.7808 19.3078 95.0791 19.3078 95.4457V96.5384C19.3078 96.6899 19.19 96.8131 19.0436 96.8131H19.0443ZM17.0617 96.2644H18.7801V95.4464C18.7801 95.3829 18.7303 95.331 18.6691 95.331H17.1734C17.1123 95.331 17.0625 95.3829 17.0625 95.4464V96.2644H17.0617Z" fill="black"/>
<path d="M29.4155 93.174H29.124V92.4259C29.124 92.2202 28.9632 92.053 28.7654 92.053H27.5944C27.3966 92.053 27.2358 92.2202 27.2358 92.4259V93.174H26.9504C26.2482 93.174 25.6782 93.7666 25.6782 94.4967V96.5385H30.6884V94.4967C30.6884 93.7666 30.1184 93.174 29.4155 93.174Z" fill="white"/>
<path d="M29.3881 92.9119V92.4259C29.3881 92.0688 29.1087 91.7783 28.7652 91.7783H27.5934C27.2499 91.7783 26.9713 92.0688 26.9713 92.4259V92.9119H26.9487C26.1083 92.9119 25.4243 93.6223 25.4243 94.4968V96.5393C25.4243 96.6838 25.5368 96.8007 25.6757 96.8007H30.6874C30.8263 96.8007 30.9396 96.6838 30.9396 96.5393V94.4968C30.9396 93.8162 30.4398 92.9119 29.3881 92.9119ZM27.4991 92.4259C27.4991 92.3718 27.5421 92.327 27.5934 92.327H28.7652C28.8165 92.327 28.8603 92.3726 28.8603 92.4259V92.9119H27.4991V92.4259ZM30.4345 96.2772H25.9256V94.4944C25.9256 93.9096 26.3832 93.4331 26.9472 93.4331H29.4145C29.977 93.4331 30.4353 93.9088 30.4353 94.4944V96.2772H30.4345Z" fill="black"/>
<path d="M27.2357 56.5303H12.717C11.8752 56.5303 11.1904 57.2423 11.1904 58.1175V61.9256H12.3516V58.1175C12.3516 57.9072 12.5162 57.7368 12.717 57.7368H27.2364C27.4388 57.7368 27.6026 57.9079 27.6026 58.1175V59.9953H28.7615V58.1175C28.7615 57.2423 28.0768 56.5303 27.2349 56.5303H27.2357Z" fill="#FFD997"/>
<path d="M12.3517 62.1994H11.1905C11.0448 62.1994 10.9263 62.077 10.9263 61.9247V58.1167C10.9263 57.0891 11.7288 56.2546 12.7171 56.2546H27.235C28.2233 56.2546 29.0259 57.0891 29.0259 58.1167V59.9952C29.0259 60.1467 28.9081 60.2699 28.7616 60.2699H27.6027C27.457 60.2699 27.3385 60.1475 27.3385 59.9952V58.1167C27.3385 58.0586 27.2916 58.0099 27.2358 58.0099H12.7171C12.5722 58.0099 12.6152 57.8388 12.6152 61.9239C12.6152 62.0754 12.4974 62.1987 12.351 62.1987L12.3517 62.1994ZM11.4548 61.6507H12.0882V58.1174C12.0882 57.7556 12.3706 57.462 12.7179 57.462H27.2373C27.5853 57.462 27.8677 57.7556 27.8677 58.1174V59.7212H28.4989V58.1174C28.4989 57.3937 27.9319 56.8041 27.2358 56.8041H12.7171C12.021 56.8041 11.454 57.3937 11.454 58.1174V61.6507H11.4548Z" fill="black"/>
<path d="M13.9346 68.6709C13.2014 66.8042 13.3472 65.4116 13.3472 63.205C13.6046 63.1131 13.674 62.9899 13.674 62.8431V62.0251C13.742 61.8462 13.6151 61.6499 13.4286 61.6499H10.1247C9.97903 61.6499 9.8605 61.7724 9.8605 61.9247C9.8605 62.0032 9.86729 61.9262 9.86729 62.8447C9.86729 63.0134 9.96922 63.1367 10.1897 63.2238C10.1897 65.3873 10.3286 66.8254 9.60229 68.6709C8.55888 71.3235 7.31543 74.6809 7.31543 75.6166C7.31543 78.3798 16.223 78.3798 16.223 75.6166C16.223 74.6817 14.9794 71.3235 13.936 68.6709H13.9346ZM10.6918 63.3384C10.7204 63.3424 10.7491 63.3455 10.7786 63.3486C10.9032 63.3745 11.036 63.2607 11.0504 63.1163C11.064 62.9766 10.9688 62.8447 10.8269 62.829C10.574 62.8015 10.4351 62.7615 10.3694 62.7356V62.1986H13.1704V62.7167C13.0791 62.7458 12.8782 62.7944 12.4849 62.8274C12.3467 62.84 12.244 62.9663 12.2538 63.11C12.2674 63.2654 12.4101 63.3691 12.5279 63.3471C12.6442 63.3377 12.7484 63.3267 12.8436 63.3141C12.8436 65.4611 12.7281 66.7626 13.3524 68.5516C12.6752 68.7526 10.8586 68.7534 10.1821 68.5516C10.8156 66.7422 10.691 65.4454 10.691 63.3392L10.6918 63.3384ZM7.81524 75.6174C7.81524 74.9823 8.6306 72.5261 10.0017 69.0313C10.694 69.2942 12.8412 69.2934 13.5343 69.032C14.9243 72.5771 15.7201 74.9729 15.7201 75.6174C15.7201 77.671 7.81524 77.671 7.81524 75.6174Z" fill="black"/>
<path d="M38.1157 95.0557H39.6114C39.8183 95.0557 39.9866 95.2307 39.9866 95.4458V96.5377H37.7397V95.4458C37.7397 95.2307 37.9081 95.0557 38.115 95.0557H38.1157Z" fill="#81F8F8"/>
<path d="M55.2681 95.0557H56.7637C56.9706 95.0557 57.139 95.2307 57.139 95.4458V96.5377H54.8921V95.4458C54.8921 95.2307 55.0605 95.0557 55.2673 95.0557H55.2681Z" fill="#81F8F8"/>
<path d="M56.763 94.7815H56.3932V79.4332H56.8174C56.9556 79.4332 57.0681 79.3162 57.0681 79.1718V77.7289C57.0681 77.5845 56.9556 77.4675 56.8174 77.4675H38.0632C37.9243 77.4675 37.811 77.5845 37.811 77.7289V79.1718C37.811 79.3162 37.9243 79.4332 38.0632 79.4332H38.4868V94.7815H38.116C37.7635 94.7815 37.4766 95.0798 37.4766 95.4464V96.5391C37.4766 96.6906 37.5944 96.8139 37.7409 96.8139H39.9877C40.1334 96.8139 40.252 96.6914 40.252 96.5391V95.4464C40.252 95.0798 39.9651 94.7815 39.6125 94.7815H39.2425V79.4332H55.6389V94.7815H55.2689C54.9163 94.7815 54.6294 95.0798 54.6294 95.4464V96.5391C54.6294 96.6906 54.7473 96.8139 54.8937 96.8139H57.1405C57.2863 96.8139 57.4048 96.6914 57.4048 96.5391V95.4464C57.4048 95.0798 57.1179 94.7815 56.7645 94.7815H56.763ZM39.7234 95.4464V96.2644H38.0051V95.4464C38.0051 95.3828 38.0549 95.331 38.116 95.331H39.6118C39.6729 95.331 39.7228 95.3828 39.7228 95.4464H39.7234ZM38.3146 77.9911H56.566V78.9111H38.3146V77.9911ZM56.8756 96.2644H55.1572V95.4464C55.1572 95.3828 55.207 95.331 55.2681 95.331H56.763C56.8249 95.331 56.8749 95.3828 56.8749 95.4464V96.2644H56.8756Z" fill="black"/>
<path d="M13.6505 65.1682C13.6505 65.4547 10.1624 65.4853 9.89893 65.1956V64.121C10.1586 64.4106 13.6505 64.3816 13.6505 64.0935V65.1682Z" fill="#81F8F8"/>
<path d="M13.4582 63.9279C12.9017 64.1218 10.4586 64.0943 10.0682 63.9256C9.90589 63.7725 9.64844 63.8957 9.64844 64.1202V65.1941C9.64844 65.7279 11.3713 65.6298 11.7715 65.6635C13.6454 65.6635 13.9044 65.4257 13.9044 65.169V64.0951C13.9044 63.8463 13.6031 63.7434 13.4582 63.9279ZM13.4 64.4727V65.0175C12.759 65.1753 10.8361 65.1776 10.1513 65.0222V64.4751C10.8904 64.6195 12.6888 64.6273 13.4 64.4727Z" fill="black"/>
<path d="M58.3332 96.5227H36.5454V98.1618H58.3332V96.5227Z" fill="#81F8F8"/>
<path d="M58.3332 96.2605H36.5454C36.4064 96.2605 36.2939 96.3775 36.2939 96.5219V98.161C36.2939 98.3054 36.4064 98.4232 36.5454 98.4232H58.3332C58.4721 98.4232 58.5846 98.3054 58.5846 98.161V96.5219C58.5846 96.3775 58.4721 96.2605 58.3332 96.2605ZM58.081 96.7841V97.8996H36.7968V96.7841H58.081Z" fill="black"/>
<path d="M71.9656 78.4968L69.8862 77.6364L70.781 75.2995C70.781 75.2995 71.1577 75.126 71.9301 75.4455C72.7025 75.765 72.8618 76.1606 72.8618 76.1606L71.9656 78.4968Z" fill="#81F8F8"/>
<path d="M71.9667 78.7723C71.8912 78.7723 72.0588 78.8327 69.7878 77.8915C69.6526 77.8358 69.5862 77.6756 69.6406 77.5343L70.5352 75.1974C70.687 74.8057 71.627 75.0247 72.0286 75.1903C72.419 75.3512 73.26 75.8654 73.1083 76.2618C72.191 78.6584 72.2144 78.7715 71.9675 78.7715L71.9667 78.7723ZM70.2287 77.4825L71.8187 78.1404L72.5647 76.1912C72.2755 75.8332 71.4858 75.4823 70.9747 75.5342L70.2287 77.4825Z" fill="black"/>
<path d="M71.1617 79.5307L69.7861 78.9616L69.8865 77.6365L71.9658 78.4968L71.1617 79.5307Z" fill="white"/>
<path d="M71.1617 79.5306C71.0855 79.7292 70.8688 79.8265 70.6778 79.7473L69.9937 79.4639C69.8027 79.3846 69.7091 79.1593 69.7853 78.9607L71.1617 79.5298V79.5306Z" fill="black"/>
<path d="M72.2206 78.4269C72.173 78.2385 72.1874 78.2911 69.9851 77.3813C69.8212 77.3138 69.6378 77.4292 69.6234 77.6152L69.526 78.9034C69.4792 79.0549 69.4852 79.2174 69.5464 79.365C69.6748 79.6766 69.8477 79.7002 70.5792 80.0024C70.8994 80.1343 71.2459 79.982 71.3871 79.6774C72.2327 78.5878 72.2644 78.6051 72.2199 78.4269H72.2206ZM71.0791 79.2001L70.0651 78.7801L70.1217 78.0289L71.5336 78.6129L71.0783 79.1993L71.0791 79.2001Z" fill="black"/>
<path d="M73.3842 75.9213C73.5775 76.357 73.3517 76.8783 72.8957 77.0054C72.4699 77.1247 71.5465 77.1852 70.3521 76.1137C68.5273 74.4754 69.0067 72.6769 70.029 72.9485C71.0807 73.228 72.9304 74.8961 73.3842 75.9213Z" fill="black"/>
<path d="M75.0866 83.5367L64.292 79.0708L63.6201 80.8261L74.4147 85.2927L75.0866 83.5367Z" fill="#81F8F8"/>
<path d="M75.1833 83.2813L64.389 78.8155C64.2524 78.7605 64.0999 78.828 64.0455 78.9686L63.3736 80.723C63.32 80.8643 63.3864 81.0245 63.5208 81.0802C74.4034 85.5892 74.3309 85.5665 74.4132 85.5665C74.5242 85.5665 74.62 85.4966 74.6585 85.3938L75.3305 83.6377C75.3841 83.4972 75.3177 83.3371 75.1833 83.2813ZM74.2652 84.9346L63.9625 80.6712L64.4381 79.427L74.7416 83.6895L74.2644 84.9346H74.2652Z" fill="black"/>
<path d="M67.1082 82.2688L70.9264 83.849L69.8025 86.7849C69.6484 87.1876 69.2091 87.3846 68.8219 87.2245L66.4066 86.2252C66.0194 86.0651 65.8302 85.6082 65.9843 85.2055L67.1082 82.2688Z" fill="#81F8F8"/>
<path d="M71.0232 83.5939C66.879 81.8771 67.1455 81.9516 67.0028 82.0168C66.8624 82.0788 66.9553 81.9305 65.7382 85.1034C65.5321 85.6419 65.7775 86.2605 66.3075 86.4803C68.9983 87.5958 68.8375 87.555 69.0987 87.555C69.5034 87.555 69.8885 87.3022 70.047 86.8869L71.1704 83.951C71.2241 83.8097 71.1576 83.6496 71.0232 83.5939ZM69.5563 86.6836C69.4558 86.9458 69.1667 87.0722 68.919 86.9694L66.5038 85.9701C66.2524 85.8657 66.1286 85.5697 66.2297 85.3075L67.255 82.6267L70.5823 84.0029L69.5563 86.6836Z" fill="black"/>
<path d="M71.4295 85.5612C71.3683 85.412 71.7941 85.6043 65.813 83.1504C65.6779 83.0947 65.5239 83.1638 65.4695 83.3035L65.1441 84.1513C65.0897 84.2957 65.1592 84.4535 65.2913 84.5085C71.1599 86.9365 70.7847 86.792 70.8617 86.792C70.9667 86.792 71.0663 86.7269 71.1071 86.6193C71.4521 85.7213 71.4876 85.7009 71.4295 85.5604V85.5612Z" fill="black"/>
<path d="M74.4139 85.2917L73.0249 84.717L69.9751 92.6856L71.3641 93.2602L74.4139 85.2917Z" fill="#FFD997"/>
<path d="M74.5113 85.0376C73.0617 84.4371 73.0632 84.401 72.9198 84.4654C72.7643 84.5344 72.8473 84.4363 69.7299 92.5846C69.6756 92.7259 69.742 92.8861 69.8779 92.9418C71.3766 93.558 71.2882 93.5352 71.3637 93.5352C71.4687 93.5352 71.5683 93.4701 71.6091 93.3625L74.6593 85.394C74.7129 85.2527 74.6465 85.0934 74.5121 85.0368L74.5113 85.0376ZM71.2158 92.9041L70.3188 92.532L73.172 85.0745L74.0697 85.4458L71.2158 92.9041Z" fill="black"/>
<path d="M69.3818 89.8245L64.2813 87.7136L63.7729 89.0418L68.8735 91.1527L69.3818 89.8245Z" fill="white"/>
<path d="M69.6238 89.716C69.5626 89.5669 69.9605 89.749 64.3788 87.4584C64.2437 87.4026 64.0897 87.4709 64.0353 87.6115L63.5264 88.9397C63.4721 89.0841 63.5415 89.2419 63.6736 89.2969C69.1512 91.5631 68.7948 91.4273 68.8726 91.4273C68.9775 91.4273 69.0772 91.3622 69.1179 91.2546C69.6782 89.7945 69.6819 89.8558 69.6238 89.7153V89.716ZM68.7253 90.7962L64.1161 88.8887L64.4286 88.0707L69.0379 89.9782L68.7253 90.7962Z" fill="black"/>
<path d="M70.6523 90.9132L69.1944 90.3103C69.0608 90.2546 68.9053 90.3237 68.8517 90.4634C68.4923 91.3999 68.4485 91.2727 69.3379 91.6401C69.6958 91.7877 69.8709 92.2124 69.7297 92.5837C69.6006 92.9228 70.0914 93.1246 70.2205 92.7862L70.8003 91.2688C70.8539 91.1275 70.7875 90.9682 70.6523 90.9124V90.9132Z" fill="black"/>
<path d="M82.9488 79.821C83.3678 76.1402 81.355 72.6257 78.0428 71.2551L75.404 78.149L76.9609 78.7935C77.2802 78.9262 77.6426 78.7637 77.7702 78.4308L79.1926 79.0196C79.8397 79.2872 80.1553 80.0495 79.8978 80.7222L77.7393 86.3609C77.4818 87.0336 76.7487 87.3618 76.1017 87.0941L75.6796 86.919C75.5196 86.8523 75.441 86.6639 75.5052 86.4975L75.7544 85.8467L74.4135 85.2917L71.3633 93.2602C74.8484 94.7023 78.7985 92.9337 80.1855 89.3101C81.5256 85.8082 82.5177 83.6055 82.9488 79.821Z" fill="#81F8F8"/>
<path d="M78.1411 71C78.0067 70.9443 77.8519 71.0118 77.7976 71.1531L75.1588 78.0461C75.1052 78.1874 75.1717 78.3476 75.3068 78.4033L76.8644 79.0478C77.2343 79.2017 77.6435 79.0768 77.8821 78.7707L79.0962 79.2739C79.6065 79.4851 79.8572 80.0887 79.6533 80.6202L77.4956 86.2588C77.2917 86.7903 76.7104 87.0501 76.2007 86.8389L75.7779 86.6639C75.753 86.6537 75.7409 86.6238 75.7508 86.5987C76.1645 85.5131 76.3276 85.7768 74.511 85.0366C74.3714 84.98 74.2204 85.0515 74.1675 85.1896C71.0531 93.3277 71.0524 93.2053 71.1203 93.3686C71.1475 93.4353 71.2004 93.4879 71.2653 93.5154C74.8802 95.01 78.9927 93.1699 80.431 89.4114C81.7772 85.8946 82.7738 83.6793 83.2117 79.8524C83.6435 76.0538 81.559 72.413 78.1411 70.9992V71ZM82.6869 79.7888C82.2588 83.5396 81.2751 85.7211 79.9402 89.2081C78.6416 92.6 74.9927 94.3043 71.7085 93.1017L74.5609 85.6497L75.411 86.0006L75.26 86.3962C75.1437 86.7031 75.2879 87.0524 75.5824 87.1749L76.0059 87.35C76.7851 87.6718 77.676 87.2746 77.9871 86.4629L80.1449 80.8235C80.4559 80.0094 80.0746 79.0871 79.2917 78.7636L77.8693 78.1749C77.7326 78.1199 77.5801 78.1882 77.5258 78.328C77.4518 78.5187 77.2419 78.6121 77.0599 78.5376L75.7485 77.9951L78.1894 71.6162C81.2396 73.008 83.081 76.3286 82.6869 79.7888Z" fill="black"/>
<path d="M78.92 68.9645C77.4598 68.3593 77.5202 68.3546 77.3865 68.4166C77.2303 68.4857 77.2922 68.3907 73.8275 77.4959C73.7731 77.6388 73.8403 77.7974 73.9755 77.8531C75.3979 78.4379 75.3277 78.423 75.4047 78.423C75.5096 78.423 75.6093 78.3579 75.65 78.2503L79.0672 69.3217C79.1208 69.1804 79.0543 69.0203 78.92 68.9645Z" fill="black"/>
<path d="M77.7565 67.9746L73.62 66.2629L70.9521 73.2335L75.0889 74.9451L77.7565 67.9746Z" fill="#81F8F8"/>
<path d="M75.0889 75.2194C75.0127 75.2194 75.323 75.3372 70.8541 73.4885C70.722 73.4336 70.6518 73.2758 70.7069 73.1313C73.5231 65.7296 73.3653 66.0773 73.5163 66.0106C73.6605 65.9462 73.3509 65.8528 77.8552 67.7195C77.9904 67.7753 78.0568 67.9354 78.0025 68.0767L75.3351 75.0475C75.2958 75.1496 75.2007 75.2202 75.0897 75.2202L75.0889 75.2194ZM71.2958 73.0795L74.9417 74.5875L77.4136 68.1277L73.7677 66.6198L71.2958 73.0795Z" fill="black"/>
<path d="M78.44 62.7578L76.5714 61.9849L75.2529 65.4304L77.121 66.2033L78.44 62.7578Z" fill="#81F8F8"/>
<path d="M77.1199 66.4777C77.0398 66.4777 77.1554 66.5138 75.1539 65.6856C75.0218 65.6307 74.9516 65.4729 75.0067 65.3284C76.426 61.5981 76.3234 61.7959 76.4668 61.7323C76.6118 61.6672 76.5325 61.6719 78.537 62.5024C78.6722 62.5582 78.7386 62.7183 78.6842 62.8596L77.3653 66.305C77.3237 66.4125 77.2241 66.4777 77.1199 66.4777ZM75.5956 65.2774L76.9719 65.8465L78.0946 62.9122L76.7182 62.3423L75.5956 65.2774Z" fill="black"/>
<path d="M73.6201 66.2628L75.2524 65.4307L77.1203 66.2039L77.7568 67.9741L73.6201 66.2628Z" fill="#FFD997"/>
<path d="M77.7566 68.2487C77.6765 68.2487 77.9438 68.3453 73.5226 66.5178C73.312 66.4306 73.2969 66.1221 73.5045 66.0154C75.3346 65.0773 75.207 65.115 75.3512 65.1754C77.3693 66.0122 77.3104 65.9486 77.3685 66.108L78.005 67.879C78.0684 68.0572 77.9431 68.2495 77.7573 68.2495L77.7566 68.2487ZM74.2723 66.2367L77.3006 67.4904L76.914 66.4142L75.2636 65.732L74.2723 66.2375V66.2367Z" fill="black"/>
<path d="M70.9513 73.2334C70.9513 73.2334 70.2258 74.8607 72.3828 75.7532C74.5391 76.6458 75.088 74.9447 75.088 74.9447L70.9513 73.2334Z" fill="#FFD997"/>
<path d="M73.5299 76.2872C72.5891 76.2872 71.1154 75.6584 70.6994 74.5743C70.4079 73.8144 70.6994 73.1456 70.7122 73.1173C70.7696 72.9847 70.916 72.9242 71.0497 72.9776L75.1863 74.6897C75.3162 74.7431 75.3834 74.8946 75.3388 75.0327C75.1154 75.711 74.4396 76.2879 73.5299 76.2879V76.2872ZM71.1229 73.5993C70.9561 74.535 71.631 75.1458 72.4812 75.4975C73.3313 75.8499 74.2252 75.8845 74.7213 75.0885L71.1229 73.5993Z" fill="black"/>
<path d="M78.5373 61.6121L77.2576 61.083L76.5713 61.985L78.4392 62.7574L78.5373 61.6121Z" fill="#FFD997"/>
<path d="M76.4737 62.2402C76.3068 62.1712 76.257 61.9553 76.3642 61.8148L77.0498 60.9136C77.1215 60.8186 77.2453 60.7833 77.354 60.8288L78.6337 61.3579C78.7432 61.4026 78.8097 61.5165 78.7998 61.6374C78.6926 62.8934 78.7243 62.8989 78.5771 62.9931C78.414 63.0975 78.4254 63.0511 76.4729 62.241L76.4737 62.2402ZM76.9984 61.8658L78.2079 62.3666L78.2562 61.792L77.3427 61.4152L76.9984 61.8666V61.8658Z" fill="black"/>
<path d="M68.9199 77.0869L67.7202 75.1228L69.7617 73.7742C69.7617 73.7742 70.0954 73.8762 70.5409 74.6063C70.9871 75.3363 70.9622 75.7398 70.9622 75.7398L68.9192 77.0869H68.9199Z" fill="#81F8F8"/>
<path d="M68.9215 77.3625C68.7237 77.3625 68.812 77.4394 67.4968 75.2697C67.4175 75.1394 67.4568 74.9706 67.5783 74.8905C69.7482 73.4556 69.6757 73.4603 69.8365 73.5105C70.4224 73.6926 71.2642 75.1135 71.2265 75.7572C71.2129 75.9574 71.2363 75.8938 69.0627 77.3201C69.0189 77.3484 68.9698 77.3625 68.9207 77.3625H68.9215ZM68.0857 75.2069L69.003 76.7086L70.6837 75.5994C70.5863 75.0978 70.1212 74.3528 69.7731 74.093L68.0865 75.2069H68.0857Z" fill="black"/>
<path d="M67.6864 77.4338L66.8921 76.1347L67.7203 75.1228L68.92 77.0869L67.6864 77.4338Z" fill="white"/>
<path d="M67.6863 77.434C67.5127 77.5486 67.2824 77.4952 67.1722 77.3147L66.7773 76.6686C66.6671 76.4881 66.7184 76.2486 66.8921 76.134L67.6863 77.434Z" fill="black"/>
<path d="M69.1429 76.9377C67.8745 74.8622 67.9266 74.8614 67.7393 74.8481C67.5559 74.8379 67.5778 74.874 66.7133 75.9298C66.4475 76.1347 66.3751 76.5185 66.5555 76.8153L66.9504 77.4621C67.1346 77.762 67.5045 77.8507 67.7899 77.689C69.0893 77.3216 69.1021 77.3561 69.1655 77.1834C69.1957 77.1018 69.1874 77.0107 69.1429 76.9377ZM67.8058 77.1159L67.2207 76.1582L67.6903 75.5844L68.5049 76.9181L67.8058 77.1159Z" fill="black"/>
<path d="M77.2131 71.1367C76.3464 70.778 75.3641 71.2176 75.0191 72.1188C74.674 73.02 75.0976 74.0412 75.9636 74.4C76.8296 74.7587 77.8126 74.3191 78.1576 73.418C78.5026 72.5168 78.0791 71.4955 77.2131 71.1367Z" fill="#FFD997"/>
<path d="M77.3112 70.8807C76.3108 70.4686 75.1723 70.9765 74.7737 72.0158C74.3758 73.0567 74.865 74.2397 75.8653 74.6542C76.8861 75.0742 78.011 74.5412 78.4029 73.5191C78.8008 72.4782 78.3115 71.2952 77.3112 70.8807ZM77.9121 73.3158C77.6215 74.0749 76.791 74.4462 76.0616 74.1447C75.3315 73.8425 74.9745 72.9798 75.2644 72.2207C75.5574 71.4553 76.3923 71.0919 77.1148 71.3918C77.8449 71.694 78.202 72.5567 77.9121 73.3158Z" fill="black"/>
<path d="M76.2874 72.044C75.9053 72.216 75.7241 72.6775 75.8917 73.0802C76.1598 73.7239 77.0416 73.7114 77.2923 73.0598C77.5407 72.4122 76.9095 71.7654 76.2874 72.044Z" fill="black"/>
<path d="M78.217 75.5405C77.758 75.3505 77.2371 75.5837 77.0543 76.061C76.8716 76.5383 77.0959 77.0799 77.5549 77.2699C78.014 77.4598 78.5349 77.2267 78.7176 76.7494C78.9003 76.2721 78.6761 75.7305 78.217 75.5405Z" fill="#FFD997"/>
<path d="M78.3134 75.2846C77.3614 74.8906 76.4131 75.8969 76.8208 76.8829C77.011 77.3421 77.4414 77.6106 77.8853 77.6106C79.1575 77.6106 79.4957 75.7729 78.3127 75.2846H78.3134ZM78.472 76.6474C78.2643 77.1867 77.5297 77.1993 77.3062 76.6647C77.1273 76.2306 77.4323 75.7486 77.8868 75.7486C78.3315 75.7486 78.6358 76.2172 78.472 76.6474Z" fill="black"/>
<path d="M83.2676 96.1255H63.7969V98.4868H83.2676V96.1255Z" fill="#81F8F8"/>
<path d="M83.2686 95.8508H63.7979C63.6522 95.8508 63.5337 95.9733 63.5337 96.1256V98.4869C63.5337 98.6384 63.6515 98.7616 63.7979 98.7616H83.2686C83.4144 98.7616 83.5329 98.6392 83.5329 98.4869V96.1256C83.5329 95.9741 83.4151 95.8508 83.2686 95.8508ZM83.0044 98.2121H64.0614V96.3995H83.0044V98.2121Z" fill="black"/>
<path d="M76.9504 89.6806C76.2754 88.2801 74.252 88.6601 74.0912 90.2175L73.4819 96.1121H80.0504L76.9504 89.6806Z" fill="#81F8F8"/>
<path d="M77.1864 89.5574C76.3929 87.912 74.0177 88.3587 73.829 90.1893L73.2189 96.0839C73.2015 96.248 73.3254 96.3877 73.4817 96.3877C80.5363 96.3877 80.1641 96.4458 80.2751 96.2574C80.3906 96.0635 80.5446 96.5251 77.1864 89.5582V89.5574ZM73.7753 95.8382L74.3537 90.2474C74.4873 88.9608 76.1558 88.6484 76.7145 89.8047L79.6227 95.839H73.7761L73.7753 95.8382Z" fill="black"/>
<path d="M75.5988 89.6658C75.1677 89.6658 74.8174 90.03 74.8174 90.4782C74.8174 90.9265 75.1677 91.2915 75.5988 91.2915C76.0298 91.2915 76.3809 90.9265 76.3809 90.4782C76.3809 90.03 76.0298 89.6658 75.5988 89.6658Z" fill="black"/>
</svg>
