<svg width="700" height="550" viewBox="0 0 700 550" fill="none" xmlns="http://www.w3.org/2000/svg">
<path d="M298.147 201.982C298.154 202.68 297.968 203.367 297.609 203.967C297.251 204.566 296.733 205.055 296.114 205.379C294.323 206.215 292.347 206.575 290.376 206.424C290.376 206.424 280.166 196.088 279.769 203.066C279.769 203.066 271.707 197.162 272.385 204.14C272.385 204.14 266.859 201.566 266.801 205.021L260.829 204.275L265.533 198.895H286.775C286.727 200.385 290.23 199.311 292.834 198.314C293.641 198.005 294.529 197.972 295.357 198.22C296.185 198.469 296.908 198.985 297.411 199.688C297.888 200.358 298.146 201.159 298.147 201.982Z" fill="black"/>
<path d="M428.844 308.204L424.605 311.349C424.586 311.359 424.576 311.378 424.557 311.388L421.364 313.759L411.628 320.998L358.952 318.375V392.671L421.692 391.597L439.17 379.78L428.844 308.204ZM420.647 386.197C420.386 385.558 420.251 384.89 420.047 384.232C419.651 382.926 419.341 381.59 419.031 380.255C418.721 378.929 418.46 377.584 418.209 376.238C417.938 374.903 417.686 373.558 417.463 372.213C416.515 366.832 415.808 361.412 415.083 355.993C414.434 350.573 413.815 345.144 413.302 339.715C412.799 334.276 412.334 328.837 412.024 323.379L413.06 331.508L414.047 339.637C414.715 345.047 415.315 350.467 416.041 355.877C416.689 361.296 417.409 366.703 418.199 372.096C418.373 373.442 418.586 374.787 418.809 376.132C419.021 377.477 419.234 378.822 419.496 380.158C419.728 381.503 419.97 382.848 420.299 384.164C420.582 385.499 420.947 386.814 421.393 388.103L420.647 386.197ZM421.48 337.837C421.247 334.798 421.112 331.75 421.112 328.711C421.093 325.663 421.151 322.624 421.393 319.585L421.847 328.692C422.031 331.711 422.186 334.74 422.438 337.76C422.67 340.779 422.951 343.799 423.328 346.799C423.405 347.554 423.522 348.299 423.638 349.044C423.754 349.789 423.851 350.544 424.006 351.28C424.151 352.025 424.257 352.78 424.422 353.515C424.596 354.26 424.76 354.996 424.915 355.741C423.866 352.875 423.088 349.917 422.593 346.905C422.041 343.905 421.731 340.866 421.48 337.837ZM432.386 374.913C431.386 373.594 430.465 372.217 429.628 370.79C428.182 368.325 426.874 365.783 425.709 363.174C425.698 363.211 425.691 363.25 425.69 363.29L425.564 364.78C425.496 365.787 425.448 366.803 425.409 367.809C425.322 369.832 425.293 371.864 425.254 373.896C425.138 377.961 425.08 382.026 424.915 386.09C424.635 382.026 424.528 377.961 424.451 373.887C424.441 371.854 424.457 369.819 424.499 367.78C424.518 366.764 424.557 365.748 424.605 364.722C424.635 364.209 424.673 363.696 424.741 363.174C424.77 362.922 424.809 362.661 424.857 362.39C424.886 362.254 424.915 362.119 424.954 361.973C424.983 361.896 425.002 361.828 425.051 361.722C425.077 361.662 425.113 361.606 425.157 361.557C425.183 361.517 425.216 361.481 425.254 361.451C425.318 361.395 425.394 361.356 425.477 361.335C425.58 361.301 425.691 361.308 425.79 361.352C425.888 361.397 425.966 361.477 426.009 361.577L426.018 361.606C426.648 363.106 427.325 364.596 428.031 366.067C428.748 367.538 429.473 369.009 430.228 370.451C431.003 371.893 431.825 373.296 432.725 374.661C433.564 376.062 434.705 377.259 436.064 378.164C435.306 377.83 434.62 377.353 434.041 376.761C433.449 376.182 432.896 375.565 432.386 374.913Z" fill="black"/>
<path d="M347.137 426.33C347.024 427.604 346.673 428.847 346.104 429.992C345.507 431.146 344.709 432.184 343.746 433.055C341.746 434.692 339.699 436.085 337.643 437.565C335.574 439.002 333.497 440.43 331.362 441.773C329.274 443.198 327.059 444.427 324.746 445.445C325.84 444.826 326.887 444.129 327.881 443.359L330.944 441.157C332.975 439.672 335.034 438.226 337.088 436.773L343.266 432.49C345.205 430.924 346.567 428.756 347.137 426.33Z" fill="black"/>
<path d="M368.383 422.483C367.789 423.647 367.288 424.855 366.884 426.097C366.476 427.318 366.156 428.568 365.927 429.835C365.694 431.103 365.545 432.385 365.484 433.673C365.405 434.967 365.431 436.269 365.44 437.601C365.25 436.967 365.088 436.319 364.954 435.665C364.837 435.007 364.762 434.341 364.728 433.674C364.651 432.331 364.734 430.983 364.976 429.66C365.219 428.335 365.625 427.046 366.184 425.82C366.721 424.59 367.465 423.462 368.383 422.483Z" fill="black"/>
<path d="M310.33 452.851C310.33 452.851 312.52 467.903 352.514 448.34L355.506 456.669L359.485 456.725L363.667 455.222C363.667 455.222 364.459 443.348 365.807 438.643C365.855 438.476 365.856 438.3 365.811 438.132C365.767 437.965 365.678 437.813 365.554 437.692C365.43 437.571 365.275 437.486 365.107 437.445C364.938 437.405 364.762 437.41 364.596 437.462C355.777 440.183 323.105 449.988 325.253 445.231C325.253 445.231 309.018 450.384 310.33 452.851Z" fill="black"/>
<path d="M409.675 426.694C409.362 427.841 408.745 428.881 407.889 429.706C406.978 430.469 406.089 431.158 405.157 431.842C403.31 433.212 401.441 434.551 399.549 435.86C397.655 437.165 395.753 438.46 393.793 439.669C391.882 440.963 389.854 442.074 387.735 442.99C388.736 442.43 389.695 441.798 390.605 441.099L393.402 439.091C395.251 437.728 397.128 436.406 399.003 435.079C400.879 433.753 402.766 432.444 404.665 431.15C405.589 430.479 406.625 429.907 407.536 429.269C408.42 428.569 409.149 427.692 409.675 426.694Z" fill="black"/>
<path d="M428.652 427.351C428.641 428.786 428.465 430.129 428.381 431.475C428.234 432.819 428.259 434.177 428.456 435.516C427.98 434.957 427.663 434.281 427.538 433.558C427.397 432.849 427.356 432.124 427.416 431.403C427.471 430.693 427.601 429.99 427.803 429.307C427.993 428.619 428.279 427.96 428.652 427.351Z" fill="black"/>
<path d="M373.32 450.396C373.32 450.396 375.509 465.448 415.503 445.885L418.495 454.214L422.475 454.269L426.656 452.767C426.656 452.767 427.449 440.893 428.797 436.188C428.844 436.021 428.846 435.845 428.801 435.677C428.756 435.51 428.667 435.358 428.543 435.237C428.419 435.116 428.265 435.03 428.096 434.99C427.928 434.95 427.751 434.955 427.586 435.007C418.766 437.728 386.095 447.532 388.242 442.776C388.242 442.776 372.008 447.929 373.32 450.396Z" fill="black"/>
<path d="M433.662 383.564L434.984 388.626L436.191 393.719L437.304 398.837C437.639 400.551 437.987 402.264 438.294 403.985C438.899 407.43 439.375 410.9 439.723 414.395C439.889 416.144 440.022 417.899 440.068 419.668C440.093 420.553 440.105 421.439 440.076 422.334C440.065 423.262 439.989 424.189 439.848 425.107C439.829 425.225 439.786 425.339 439.72 425.439C439.655 425.54 439.569 425.626 439.469 425.691L439.431 425.716C437.313 426.999 434.956 427.838 432.503 428.18C430.157 428.556 427.789 428.771 425.414 428.825C420.725 428.924 416.034 428.76 411.363 428.337C406.709 427.947 402.076 427.428 397.457 426.869L383.642 425.101C381.357 424.834 379.026 424.483 376.796 424.41C376.233 424.384 375.673 424.328 375.106 424.325L373.398 424.342L371.689 424.351L369.974 424.451C365.375 424.736 360.796 425.281 356.259 426.084C351.702 426.864 347.164 427.797 342.65 428.844C338.137 429.89 333.638 431.048 329.204 432.371L329.191 432.375C329.061 432.414 328.921 432.399 328.802 432.335C328.683 432.271 328.595 432.162 328.556 432.032C328.542 431.985 328.535 431.936 328.535 431.887L328.478 404.072C328.447 399.435 328.544 394.801 328.551 390.164C328.563 385.528 328.571 380.891 328.648 376.256C328.796 357.709 329.288 339.17 330.125 320.637C330.94 302.108 331.923 283.585 333.286 265.087C333.981 255.84 334.69 246.593 335.569 237.358C335.992 232.741 336.439 228.12 336.948 223.499L337.749 216.584L338.183 213.124L338.418 211.39C338.507 210.79 338.57 210.276 338.708 209.582C338.758 209.331 338.897 209.107 339.1 208.951C339.303 208.795 339.556 208.719 339.811 208.735L339.819 208.736C347.742 209.25 355.689 209.654 363.63 209.896C367.601 210.007 371.574 210.123 375.544 210.103C377.529 210.09 379.513 210.052 381.491 209.94C382.479 209.883 383.469 209.822 384.448 209.698C385.423 209.619 386.383 209.409 387.303 209.075L387.312 209.071C387.347 209.056 387.386 209.056 387.422 209.069C387.457 209.083 387.485 209.11 387.501 209.144C387.517 209.179 387.518 209.218 387.506 209.253C387.493 209.289 387.467 209.318 387.433 209.335C386.501 209.736 385.52 210.01 384.515 210.148C383.527 210.326 382.534 210.449 381.541 210.552C379.552 210.753 377.56 210.88 375.568 210.981C371.583 211.168 367.598 211.268 363.612 211.28C355.64 211.297 347.68 211.151 339.707 210.893L340.818 210.047C340.668 211.04 340.527 212.273 340.402 213.392L340.041 216.838L339.379 223.748C338.965 228.349 338.612 232.962 338.281 237.583L336.352 265.303C335.121 283.788 333.877 302.273 332.851 320.772C331.843 339.271 330.874 357.775 330.165 376.292C329.968 380.921 329.841 385.552 329.71 390.183C329.567 394.814 329.493 399.446 329.46 404.078C329.438 408.711 329.321 413.343 329.378 417.976L329.565 431.871L328.896 431.388C337.78 428.567 346.801 426.194 355.924 424.279C360.511 423.322 365.149 422.624 369.815 422.191L371.575 422.035L373.349 421.97L375.125 421.915C375.719 421.909 376.318 421.956 376.915 421.974C379.333 422.02 381.61 422.331 383.942 422.562C393.2 423.627 402.373 425.004 411.579 425.852C416.178 426.248 420.785 426.592 425.363 426.528C427.634 426.516 429.902 426.349 432.151 426.029C434.321 425.79 436.422 425.124 438.333 424.069L437.916 424.677C438.055 423.875 438.142 423.065 438.176 422.252C438.229 421.407 438.244 420.549 438.244 419.692C438.251 417.977 438.172 416.252 438.06 414.528C437.829 411.079 437.438 407.632 436.966 404.192C436.741 402.471 436.475 400.753 436.221 399.034L435.35 393.889C434.728 390.466 434.056 387.05 433.38 383.631C433.376 383.612 433.375 383.593 433.379 383.574C433.382 383.555 433.389 383.538 433.4 383.522C433.41 383.506 433.424 383.492 433.439 383.481C433.455 383.47 433.473 383.462 433.491 383.458C433.528 383.451 433.566 383.458 433.597 383.478C433.629 383.497 433.652 383.528 433.662 383.564Z" fill="black"/>
<path d="M362.481 91.6201C362.481 91.6201 360.735 103.839 350.53 107.599C350.53 107.599 346.578 104.255 345.716 109.098C345.365 110.999 345.712 112.964 346.696 114.629C347.649 116.207 349.241 117.562 351.604 115.79C351.604 115.79 364.226 123.981 362.481 131.366C360.735 138.751 346.636 143.854 344.487 141.437C342.339 139.02 338.848 121.967 340.056 113.507C341.265 105.048 342.07 94.1713 358.318 91.6201H362.481Z" fill="black"/>
<path d="M371.88 105.988C372.269 106.168 372.604 106.446 372.855 106.793C373.162 107.177 373.313 107.663 373.276 108.153C373.221 108.466 373.046 108.746 372.787 108.932C372.564 109.072 372.308 109.151 372.045 109.161C371.606 109.168 371.175 109.045 370.806 108.807C371.215 108.638 371.587 108.546 371.897 108.42C372.018 108.369 372.129 108.297 372.225 108.208C372.278 108.155 372.311 108.087 372.319 108.013C372.327 107.714 372.282 107.417 372.184 107.135C372.085 106.784 371.965 106.416 371.88 105.988Z" fill="black"/>
<path d="M359.258 103.436C359.48 102.92 359.844 102.478 360.309 102.162C360.768 101.83 361.291 101.596 361.844 101.476C362.395 101.359 362.964 101.353 363.518 101.457C364.064 101.552 364.582 101.769 365.032 102.094C364.474 102.159 363.97 102.16 363.476 102.211C362.996 102.25 362.519 102.32 362.049 102.421C361.58 102.519 361.119 102.653 360.671 102.821C360.189 103.002 359.718 103.207 359.258 103.436Z" fill="black"/>
<path d="M370.806 101.818C370.985 101.454 371.277 101.156 371.638 100.97C371.979 100.779 372.351 100.651 372.737 100.591C373.508 100.456 374.302 100.608 374.968 101.019C374.624 101.17 374.264 101.283 373.895 101.356C373.552 101.444 373.215 101.482 372.886 101.546L370.806 101.818Z" fill="black"/>
<path d="M362.883 106.978C363.21 106.967 363.519 106.829 363.746 106.594C363.973 106.359 364.099 106.046 364.099 105.719C364.099 105.393 363.973 105.079 363.746 104.844C363.519 104.609 363.21 104.472 362.883 104.46C362.557 104.472 362.248 104.609 362.021 104.844C361.794 105.079 361.667 105.393 361.667 105.719C361.667 106.046 361.794 106.359 362.021 106.594C362.248 106.829 362.557 106.967 362.883 106.978Z" fill="black"/>
<path d="M349.296 115.038C349.622 115.026 349.931 114.889 350.158 114.654C350.385 114.419 350.512 114.105 350.512 113.779C350.512 113.452 350.385 113.139 350.158 112.904C349.931 112.669 349.622 112.531 349.296 112.52C348.97 112.531 348.66 112.669 348.433 112.904C348.207 113.139 348.08 113.452 348.08 113.779C348.08 114.105 348.207 114.419 348.433 114.654C348.66 114.889 348.97 115.026 349.296 115.038Z" fill="black"/>
<path d="M367.651 101.326C367.978 101.314 368.287 101.177 368.514 100.942C368.741 100.707 368.867 100.393 368.867 100.067C368.867 99.7402 368.741 99.4264 368.514 99.1915C368.287 98.9567 367.978 98.8191 367.651 98.8079C367.325 98.8191 367.016 98.9567 366.789 99.1915C366.562 99.4264 366.435 99.7402 366.435 100.067C366.435 100.393 366.562 100.707 366.789 100.942C367.016 101.177 367.325 101.314 367.651 101.326Z" fill="#B21919"/>
<path d="M373.626 105.904C373.952 105.892 374.261 105.755 374.488 105.52C374.715 105.285 374.842 104.971 374.842 104.645C374.842 104.318 374.715 104.005 374.488 103.77C374.261 103.535 373.952 103.397 373.626 103.386C373.299 103.397 372.99 103.535 372.763 103.77C372.536 104.005 372.41 104.318 372.41 104.645C372.41 104.971 372.536 105.285 372.763 105.52C372.99 105.755 373.299 105.892 373.626 105.904Z" fill="black"/>
<path d="M355.429 139.132C357.148 141.384 359.066 143.478 361.159 145.387C362.167 146.303 363.32 147.047 364.57 147.587C364.871 147.692 365.177 147.782 365.487 147.856C365.788 147.898 366.091 147.923 366.395 147.929C366.983 147.891 367.55 147.697 368.038 147.367C369.07 146.593 369.863 145.543 370.327 144.339C370.876 143.081 371.307 141.774 371.616 140.436C372.229 137.708 372.62 134.934 372.786 132.143L373.625 133.012C373.313 133.002 373.007 132.929 372.724 132.797C372.44 132.665 372.187 132.478 371.978 132.246C371.646 131.878 371.381 131.456 371.193 130.999C370.871 130.196 370.648 129.358 370.526 128.502C370.283 126.872 370.18 125.225 370.217 123.578L370.217 123.554C370.219 123.428 370.263 123.305 370.342 123.207C370.421 123.108 370.531 123.038 370.654 123.009C371.665 122.772 372.595 122.273 373.35 121.563C374.118 120.815 374.728 119.922 375.143 118.935C375.961 116.874 376.383 114.678 376.389 112.462C376.482 110.242 376.138 108.025 375.375 105.937C375.006 104.909 374.503 103.87 374.139 102.787C373.761 101.709 373.436 100.627 373.154 99.5102L373.683 99.8874C372.408 100.017 371.122 99.8199 369.945 99.3157C368.8 98.8355 367.729 98.1946 366.765 97.4121C365.801 96.6618 364.906 95.8279 364.089 94.92C363.261 94.0218 362.491 93.0704 361.787 92.072C361.702 91.9506 361.651 91.8083 361.641 91.6604C361.631 91.5126 361.662 91.3648 361.73 91.233C361.798 91.1013 361.9 90.9906 362.027 90.9129C362.153 90.8352 362.298 90.7935 362.446 90.7923L362.462 90.7921C364.185 90.7854 365.9 91.0333 367.552 91.528C369.217 92.0105 370.791 92.7656 372.21 93.7625C372.924 94.2729 373.592 94.8442 374.207 95.4699C374.799 96.1208 375.33 96.8257 375.791 97.5752C376.262 98.3157 376.656 99.1026 376.966 99.9235C377.256 100.743 377.503 101.576 377.706 102.421L377.619 102.169C378.363 103.621 379.24 105.001 380.237 106.292C380.697 106.897 381.234 107.439 381.834 107.906C382.557 108.418 383.251 108.968 383.913 109.556C386.6 111.849 388.848 114.61 390.549 117.706C391.436 119.317 391.896 121.128 391.884 122.967C391.854 123.906 391.636 124.83 391.244 125.685C391.048 126.105 390.81 126.504 390.535 126.877C390.397 127.061 390.266 127.25 390.121 127.427L389.647 127.915C388.36 129.131 386.841 130.076 385.181 130.691C383.578 131.32 381.92 131.802 380.229 132.131C380.216 132.134 380.204 132.134 380.191 132.132C380.179 132.13 380.167 132.125 380.156 132.118C380.145 132.111 380.136 132.103 380.129 132.092C380.121 132.082 380.116 132.07 380.114 132.057C380.109 132.034 380.114 132.009 380.126 131.988C380.138 131.967 380.158 131.951 380.181 131.944C383.385 130.899 386.68 129.588 388.881 127.195C389.962 126.05 390.548 124.524 390.511 122.95C390.42 121.363 389.947 119.821 389.133 118.455C387.41 115.629 385.211 113.123 382.633 111.045C382.01 110.511 381.357 110.012 380.679 109.549C379.915 108.988 379.229 108.327 378.641 107.584C377.531 106.189 376.569 104.681 375.77 103.086C375.743 103.032 375.721 102.976 375.705 102.917L375.684 102.834C375.371 101.354 374.829 99.9322 374.075 98.6208C373.697 97.9749 373.261 97.3652 372.771 96.7994C372.254 96.2541 371.692 95.7535 371.09 95.3029C369.858 94.3982 368.485 93.7038 367.026 93.2479C365.559 92.7843 364.037 92.5154 362.5 92.4481L363.175 91.1684C363.8 92.1256 364.487 93.0417 365.229 93.911C365.968 94.7862 366.77 95.606 367.628 96.3638C368.46 97.1244 369.396 97.7624 370.409 98.2584C371.387 98.7503 372.475 98.9813 373.569 98.9289L373.599 98.9267C373.714 98.9183 373.828 98.9523 373.92 99.0222C374.012 99.092 374.075 99.1931 374.097 99.3062C374.313 100.385 374.582 101.477 374.897 102.541C375.189 103.614 375.642 104.62 376.008 105.72C376.732 107.896 377.061 110.184 376.98 112.476C376.985 114.773 376.603 117.054 375.85 119.224C375.45 120.341 374.833 121.368 374.035 122.247C373.194 123.14 372.133 123.795 370.957 124.147L371.394 123.578C371.454 125.141 371.645 126.696 371.966 128.226C372.115 128.953 372.345 129.661 372.651 130.336C372.775 130.619 372.946 130.878 373.156 131.104C373.215 131.172 373.286 131.228 373.367 131.267C373.448 131.306 373.536 131.328 373.626 131.331L373.634 131.331C373.856 131.333 374.068 131.422 374.224 131.58C374.38 131.738 374.467 131.951 374.466 132.173L374.465 132.201C374.366 135.116 373.961 138.013 373.256 140.843C372.907 142.285 372.412 143.687 371.777 145.028C371.15 146.479 370.122 147.722 368.814 148.61L368.269 148.916L367.665 149.113C367.26 149.227 366.842 149.289 366.421 149.296C366.013 149.274 365.607 149.221 365.206 149.139C364.827 149.031 364.454 148.902 364.089 148.751C362.741 148.094 361.521 147.203 360.485 146.118C358.496 144.028 356.747 141.721 355.269 139.242C355.256 139.22 355.252 139.194 355.258 139.169C355.263 139.144 355.279 139.122 355.301 139.109C355.321 139.097 355.346 139.092 355.369 139.096C355.393 139.101 355.414 139.113 355.429 139.132Z" fill="black"/>
<path d="M380.236 132.658C402.95 126.882 383.831 110.419 381.414 108.842C378.997 107.266 376.695 102.627 376.695 102.627C374.393 91.3447 362.481 91.62 362.481 91.62C362.481 91.62 367.986 100.079 373.626 99.408C374.02 101.165 374.55 102.888 375.212 104.563C376.15 106.754 376.653 109.107 376.694 111.49C376.727 116.003 375.825 122.24 370.806 123.578C370.806 123.578 370.806 132.172 373.626 132.172L380.236 132.658Z" fill="black"/>
<path d="M373.616 132.075C375.506 131.94 377.404 131.973 379.288 132.174C381.173 132.323 383.046 132.573 384.909 132.875C388.638 133.46 392.336 134.198 396.004 135.089C397.834 135.538 399.667 135.979 401.487 136.464C402.41 136.714 403.285 136.911 404.247 137.204C405.189 137.504 406.102 137.886 406.977 138.346C408.735 139.259 410.313 140.483 411.635 141.959C412.292 142.696 412.875 143.495 413.378 144.344C413.857 145.183 414.324 146.012 414.737 146.874C416.397 150.295 417.662 153.893 418.507 157.6C419.374 161.276 419.974 165.01 420.303 168.773C420.627 172.537 420.716 176.318 420.567 180.093C420.441 183.875 420.094 187.646 419.528 191.387C419.504 191.564 419.418 191.726 419.287 191.847C419.156 191.967 418.987 192.038 418.809 192.048L418.769 192.05C413.402 192.343 408.031 192.535 402.662 192.78C397.294 193.024 391.923 193.205 386.549 193.323L386.529 193.324C386.276 193.329 386.031 193.237 385.844 193.067C385.657 192.897 385.542 192.662 385.524 192.41C385.313 189.474 385.233 186.562 385.21 183.635C385.19 180.712 385.226 177.786 385.394 174.862C385.557 171.932 385.9 169.015 386.42 166.127C386.69 164.677 387.076 163.251 387.573 161.862C388.019 160.435 388.839 159.152 389.946 158.147C389.965 158.131 389.99 158.124 390.014 158.126C390.039 158.128 390.062 158.139 390.078 158.157C390.095 158.176 390.104 158.2 390.103 158.224C390.102 158.249 390.092 158.272 390.075 158.29L390.069 158.296C389.117 159.363 388.449 160.651 388.125 162.043C387.756 163.432 387.488 164.846 387.323 166.273C386.978 169.14 386.809 172.025 386.817 174.913C386.727 180.691 387.05 186.499 387.509 192.246L386.483 191.332C391.852 191.101 397.223 190.924 402.596 190.801C407.97 190.688 413.341 190.522 418.716 190.457L417.957 191.12C419.255 183.788 420.213 176.302 419.645 168.824C419.269 161.344 417.196 154.047 413.583 147.487C413.138 146.677 412.638 145.894 412.142 145.127C411.641 144.387 411.076 143.692 410.455 143.049C409.213 141.766 407.77 140.695 406.182 139.879C405.388 139.474 404.563 139.131 403.716 138.853C402.887 138.578 401.934 138.336 401.049 138.076C399.249 137.554 397.438 137.077 395.628 136.591C391.997 135.673 388.37 134.737 384.71 133.949C381.07 133.092 377.366 132.53 373.635 132.268L373.622 132.268C373.598 132.267 373.575 132.257 373.557 132.239C373.54 132.222 373.53 132.199 373.529 132.174C373.528 132.15 373.537 132.126 373.553 132.108C373.569 132.09 373.592 132.078 373.616 132.075L373.616 132.075Z" fill="black"/>
<path d="M394.304 148.618C395.065 147.385 396.052 146.308 397.214 145.443C398.373 144.549 399.674 143.857 401.063 143.395C402.448 142.921 403.905 142.69 405.37 142.712C406.094 142.713 406.817 142.776 407.531 142.901C408.234 143.046 408.929 143.23 409.612 143.451C408.21 143.347 406.802 143.352 405.401 143.466C404.028 143.579 402.675 143.863 401.373 144.311C400.063 144.742 398.81 145.33 397.641 146.062C396.444 146.797 395.326 147.654 394.304 148.618Z" fill="black"/>
<path d="M342.954 138.01C341.145 139.477 339.496 141.13 338.034 142.942C336.576 144.721 335.324 146.659 334.3 148.718C333.272 150.744 332.523 152.899 332.071 155.125C331.943 155.674 331.854 156.232 331.803 156.793C331.713 157.349 331.656 157.91 331.633 158.473C331.619 159.601 331.568 160.705 331.605 161.904C331.7 166.609 331.52 171.308 331.205 175.992C330.85 180.675 330.371 185.338 329.641 189.986L329.046 189.31C331.015 189.376 332.984 189.458 334.954 189.569C336.923 189.67 338.892 189.76 340.862 189.911C338.892 190.061 336.923 190.151 334.954 190.252C332.985 190.363 331.015 190.445 329.046 190.511C328.969 190.513 328.893 190.501 328.822 190.474C328.75 190.447 328.685 190.406 328.629 190.354C328.573 190.302 328.528 190.239 328.496 190.17C328.465 190.1 328.447 190.025 328.445 189.949L328.446 189.882L328.45 189.835C328.834 185.195 329.142 180.533 329.364 175.881C329.602 171.227 329.742 166.572 329.734 161.923C329.703 160.782 329.773 159.55 329.84 158.341C329.885 157.737 329.965 157.135 330.08 156.54C330.155 155.939 330.271 155.344 330.426 154.759L330.894 153.007C331.095 152.438 331.322 151.877 331.535 151.314C331.748 150.751 331.995 150.202 332.275 149.669C332.524 149.124 332.804 148.592 333.113 148.078C334.301 146.008 335.757 144.103 337.443 142.414C339.085 140.717 340.937 139.237 342.954 138.01Z" fill="black"/>
<path d="M345.512 159.61C344.795 161.45 344.195 163.334 343.714 165.249C343.235 167.141 342.883 169.063 342.659 171.003C342.443 172.92 342.415 174.853 342.577 176.776C342.744 178.683 343.103 180.567 343.648 182.402L343.673 182.495C343.717 182.659 343.698 182.833 343.619 182.984C340.881 188.344 339.706 194.367 340.227 200.363L339.849 199.967C341.82 200.079 343.797 200.156 345.773 200.218L351.693 200.451C355.636 200.66 359.582 200.737 363.519 200.889C367.457 201.03 371.392 201.169 375.323 201.2C377.287 201.195 379.254 201.217 381.212 201.103C383.17 201.048 385.116 200.777 387.015 200.295L387.02 200.294C387.044 200.287 387.068 200.289 387.09 200.3C387.112 200.311 387.129 200.329 387.138 200.351C387.147 200.374 387.147 200.399 387.138 200.422C387.129 200.444 387.113 200.463 387.091 200.473C386.187 200.914 385.239 201.258 384.262 201.497C383.294 201.756 382.312 201.961 381.321 202.111C379.346 202.417 377.361 202.649 375.373 202.774C371.397 203.049 367.419 203.069 363.451 202.957C359.483 202.848 355.529 202.508 351.578 202.196C349.605 202.004 347.633 201.818 345.665 201.573L339.768 200.802L339.73 200.797C339.635 200.784 339.548 200.738 339.485 200.666C339.423 200.593 339.389 200.501 339.39 200.405C339.406 198.874 339.421 197.349 339.547 195.829C339.651 194.308 339.835 192.794 340.062 191.287C340.281 189.777 340.564 188.274 340.911 186.779C341.258 185.265 341.719 183.78 342.288 182.336L342.259 182.917C341.482 181.002 341.004 178.978 340.841 176.917C340.7 174.872 340.798 172.818 341.133 170.796C341.463 168.795 341.985 166.83 342.692 164.929C343.04 163.983 343.437 163.057 343.883 162.153C344.31 161.243 344.797 160.363 345.342 159.518C345.357 159.496 345.379 159.481 345.404 159.476C345.429 159.471 345.455 159.476 345.477 159.49C345.495 159.503 345.509 159.522 345.516 159.544C345.522 159.566 345.521 159.589 345.512 159.61Z" fill="black"/>
<path d="M338.016 220.222L331.745 219.04C329.655 218.648 327.566 218.249 325.484 217.827L312.972 215.397C310.889 214.998 308.802 214.609 306.721 214.277C305.723 214.101 304.716 213.985 303.704 213.929L303.562 213.929C303.617 213.929 303.67 213.907 303.711 213.869C303.767 213.823 303.676 213.874 303.634 213.893L303.481 213.962L303.168 214.085C302.846 214.167 302.564 214.227 302.279 214.275C301.725 214.363 301.181 214.43 300.644 214.484C296.346 214.847 292.103 214.931 287.833 214.921L288.371 214.678C287.787 215.269 287.038 215.668 286.222 215.825C285.469 215.957 284.698 215.94 283.952 215.774C283.247 215.632 282.559 215.417 281.898 215.132C281.243 214.858 280.611 214.532 280.007 214.159L280.525 214.196C278.412 214.9 276.114 214.799 274.071 213.91C272.064 213.147 270.269 211.915 268.835 210.317C268.129 209.508 267.547 208.598 267.11 207.617C266.636 206.615 266.453 205.501 266.581 204.4C266.651 204.099 266.797 203.821 267.003 203.59C267.209 203.359 267.47 203.184 267.762 203.08C268.304 202.903 268.879 202.857 269.443 202.945C270.508 203.091 271.548 203.389 272.528 203.831L272.046 204.173C271.889 203.228 272.024 202.258 272.432 201.392C272.705 200.929 273.146 200.589 273.665 200.446C274.146 200.325 274.647 200.31 275.135 200.403C276.038 200.577 276.912 200.879 277.73 201.299C278.54 201.696 279.32 202.152 280.065 202.661L279.268 203.037C279.276 202.358 279.449 201.691 279.772 201.094C279.975 200.752 280.273 200.476 280.63 200.3C280.978 200.142 281.358 200.067 281.74 200.081C283.016 200.228 284.237 200.683 285.298 201.407C287.329 202.692 289.216 204.191 290.928 205.878L290.405 205.648C291.425 205.679 292.446 205.596 293.449 205.403C293.935 205.306 294.412 205.169 294.875 204.994C295.308 204.841 295.719 204.631 296.097 204.37C296.427 204.117 296.699 203.796 296.896 203.43C297.092 203.063 297.209 202.659 297.237 202.244C297.269 201.828 297.215 201.411 297.078 201.017C296.941 200.623 296.724 200.262 296.44 199.956C296.161 199.654 295.822 199.413 295.444 199.25C295.066 199.087 294.658 199.005 294.246 199.009C293.821 199.013 293.4 199.104 293.011 199.276C292.5 199.475 291.977 199.665 291.45 199.844C290.347 200.252 289.196 200.517 288.026 200.63C287.612 200.656 287.197 200.595 286.808 200.451C286.497 200.333 286.23 200.122 286.044 199.847C285.853 199.557 285.755 199.217 285.76 198.87C285.784 198.452 285.897 198.044 286.092 197.674C286.233 197.389 286.395 197.114 286.576 196.851L286.504 196.973L286.638 196.749L286.642 196.743L286.683 196.682C287.798 195.121 289.371 193.945 291.184 193.317C292.997 192.688 294.96 192.639 296.802 193.175C297.716 193.434 298.587 193.826 299.387 194.339C300.177 194.863 300.885 195.502 301.488 196.234C302.102 196.965 302.526 197.609 303.054 198.3L304.556 200.348L303.838 199.97C310.005 200.331 316.174 200.633 322.339 201.042L324.65 201.194L325.796 201.264C326.142 201.28 326.488 201.259 326.83 201.201C327.882 201.012 328.844 200.483 329.568 199.696C330.291 198.908 330.737 197.905 330.837 196.841C330.895 196.111 330.896 195.308 330.929 194.546L331.099 189.914C331.1 189.889 331.111 189.865 331.129 189.847C331.147 189.83 331.171 189.82 331.196 189.82C331.221 189.82 331.245 189.83 331.263 189.847C331.281 189.865 331.292 189.889 331.293 189.914L331.464 194.546C331.481 195.327 331.532 196.069 331.521 196.883C331.497 197.713 331.29 198.529 330.915 199.271C330.527 200.021 329.978 200.676 329.308 201.191C328.638 201.706 327.863 202.067 327.038 202.25C326.622 202.341 326.197 202.388 325.77 202.388L324.601 202.373L322.285 202.332C316.107 202.227 309.934 202.016 303.759 201.864C303.626 201.861 303.495 201.829 303.376 201.769C303.256 201.71 303.151 201.626 303.068 201.521L303.04 201.486C302.004 200.177 300.972 198.736 299.966 197.51C299.003 196.357 297.705 195.534 296.252 195.153C294.809 194.759 293.282 194.799 291.861 195.27C290.455 195.76 289.233 196.669 288.358 197.875L288.402 197.808L288.343 197.893L288.271 198.015C288.143 198.196 288.027 198.385 287.924 198.581C287.864 198.689 287.82 198.805 287.791 198.925C287.806 198.876 287.786 198.837 287.722 198.714C287.67 198.673 287.667 198.639 287.63 198.616C287.58 198.593 287.576 198.591 287.586 198.589C287.708 198.62 287.835 198.633 287.961 198.626C288.943 198.532 289.91 198.318 290.84 197.99C291.338 197.83 291.834 197.659 292.332 197.474C292.943 197.23 293.595 197.106 294.253 197.111C294.922 197.117 295.583 197.262 296.194 197.537C296.804 197.811 297.351 198.21 297.799 198.707C298.247 199.204 298.588 199.788 298.799 200.424C299.009 201.059 299.086 201.731 299.023 202.398C298.965 203.063 298.766 203.708 298.438 204.29C298.111 204.872 297.662 205.377 297.124 205.772C296.607 206.118 296.044 206.392 295.453 206.584C294.9 206.776 294.332 206.921 293.755 207.019C292.629 207.205 291.486 207.265 290.347 207.199L290.334 207.199C290.141 207.189 289.958 207.107 289.823 206.969C289.031 206.159 288.177 205.36 287.308 204.611C286.453 203.852 285.549 203.149 284.603 202.506C283.747 201.862 282.754 201.425 281.701 201.228C281.504 201.194 281.301 201.218 281.118 201.298C280.935 201.378 280.78 201.509 280.671 201.677C280.428 202.111 280.291 202.597 280.269 203.094L280.267 203.119C280.254 203.251 280.188 203.372 280.086 203.456C279.983 203.54 279.851 203.579 279.719 203.566C279.63 203.557 279.544 203.524 279.472 203.47C278.787 202.965 278.068 202.508 277.318 202.104C276.59 201.694 275.808 201.388 274.995 201.195C274.652 201.068 274.277 201.054 273.926 201.156C273.574 201.259 273.266 201.472 273.045 201.764C272.71 202.496 272.598 203.311 272.723 204.107C272.727 204.152 272.722 204.197 272.708 204.24C272.694 204.283 272.672 204.323 272.643 204.357C272.613 204.392 272.578 204.42 272.538 204.44C272.497 204.461 272.454 204.474 272.409 204.477C272.351 204.481 272.293 204.471 272.241 204.448C271.33 204.023 270.363 203.73 269.369 203.578C268.398 203.417 267.355 203.642 267.158 204.541C267.053 205.516 267.228 206.502 267.663 207.381C268.083 208.296 268.637 209.144 269.306 209.896C270.694 211.375 272.428 212.486 274.351 213.131C276.191 213.841 278.227 213.854 280.077 213.169C280.154 213.135 280.238 213.119 280.322 213.122C280.407 213.126 280.489 213.148 280.564 213.188L280.595 213.205C281.707 213.833 282.918 214.266 284.176 214.486C284.758 214.592 285.355 214.582 285.932 214.456C286.446 214.334 286.912 214.061 287.27 213.673C287.404 213.528 287.591 213.441 287.788 213.431L287.808 213.431C292.038 213.232 296.303 213.11 300.479 212.753C301.001 212.71 301.513 212.655 302.011 212.586C302.249 212.551 302.49 212.499 302.683 212.459C302.701 212.449 302.721 212.442 302.742 212.438L302.775 212.436C302.795 212.431 302.764 212.454 302.886 212.395C303.056 212.319 303.238 212.27 303.423 212.249L303.68 212.247C304.79 212.316 305.895 212.459 306.987 212.674C309.099 213.049 311.185 213.477 313.271 213.915C317.444 214.771 321.573 215.809 325.71 216.803C327.778 217.298 329.839 217.828 331.896 218.373C333.954 218.912 336.012 219.451 338.06 220.033C338.085 220.04 338.106 220.056 338.118 220.079C338.131 220.101 338.134 220.128 338.128 220.152C338.121 220.176 338.106 220.196 338.085 220.208C338.065 220.221 338.04 220.226 338.016 220.222Z" fill="black"/>
<path d="M264.458 188.299C265.865 189.179 267.171 190.21 268.352 191.375C269.563 192.509 270.644 193.774 271.575 195.147C270.167 194.27 268.861 193.238 267.681 192.072C266.472 190.936 265.391 189.671 264.458 188.299Z" fill="black"/>
<path d="M278.289 183.854C278.628 184.988 278.792 186.168 278.773 187.352C278.794 188.536 278.63 189.717 278.289 190.851C277.947 189.717 277.784 188.536 277.805 187.352C277.786 186.168 277.949 184.988 278.289 183.854Z" fill="black"/>
<path d="M285.406 191.723C285.834 190.612 286.429 189.573 287.171 188.642C287.881 187.686 288.735 186.846 289.703 186.151C289.276 187.263 288.681 188.302 287.937 189.232C287.225 190.187 286.371 191.027 285.406 191.723Z" fill="black"/>
<path d="M272.743 203.823C273.881 205.21 275.064 206.58 276.296 207.893C276.913 208.55 277.544 209.195 278.211 209.799C278.827 210.454 279.59 210.955 280.437 211.261C279.554 211.028 278.739 210.591 278.056 209.985C277.329 209.436 276.638 208.844 275.959 208.24C274.6 207.029 273.298 205.767 272.019 204.465C271.929 204.373 271.879 204.25 271.88 204.121C271.881 203.993 271.933 203.87 272.025 203.78C272.116 203.69 272.24 203.64 272.369 203.641C272.497 203.642 272.62 203.694 272.71 203.786C272.72 203.796 272.729 203.807 272.738 203.817L272.743 203.823Z" fill="black"/>
<path d="M280.156 202.784C281.181 204.292 282.286 205.745 283.465 207.136C284.055 207.832 284.681 208.497 285.342 209.127C285.984 209.78 286.732 210.32 287.554 210.724C286.69 210.389 285.889 209.912 285.184 209.311C284.461 208.733 283.77 208.117 283.112 207.466C281.794 206.164 280.547 204.792 279.376 203.357C279.294 203.257 279.256 203.129 279.268 203.002C279.281 202.874 279.344 202.756 279.444 202.675C279.543 202.593 279.671 202.555 279.798 202.567C279.926 202.58 280.044 202.643 280.125 202.742C280.134 202.753 280.143 202.764 280.151 202.776L280.156 202.784Z" fill="black"/>
<path d="M342.025 200.587C342.366 202.102 342.529 203.65 342.509 205.202C342.531 206.754 342.368 208.304 342.025 209.817C341.682 208.304 341.519 206.754 341.541 205.202C341.521 203.65 341.684 202.102 342.025 200.587Z" fill="black"/>
<path d="M388.231 192.265C388.673 196.583 388.726 200.931 388.389 205.258C388.193 207.429 387.882 209.589 387.458 211.727C387.003 213.879 386.37 215.989 385.565 218.036C385.236 219.047 384.849 219.998 384.572 221.033C384.303 222.066 383.99 223.08 383.756 224.127L383.045 227.265L382.417 230.428C381.594 234.651 380.919 238.907 380.224 243.161C378.867 251.674 377.483 260.193 376.238 268.736L375.322 275.145C374.999 277.274 374.839 279.427 374.599 281.572L374.282 284.794L374.127 286.405C374.057 286.925 374.029 287.45 374.044 287.975C374.099 289.007 374.432 290.006 375.008 290.865L376.842 293.528L376.855 293.549L376.864 293.566C377.633 295.084 378.736 296.408 380.09 297.439C380.742 297.92 381.519 298.205 382.328 298.261C383.126 298.221 383.896 297.95 384.542 297.479C384.598 297.443 384.662 297.42 384.728 297.413C384.794 297.406 384.861 297.414 384.924 297.437C386.118 297.907 387.381 298.18 388.662 298.243C389.246 298.276 389.829 298.154 390.35 297.889C390.573 297.755 390.762 297.573 390.906 297.356C391.049 297.139 391.143 296.894 391.18 296.636C391.205 296.514 391.273 296.405 391.371 296.328C391.469 296.251 391.591 296.211 391.716 296.216L391.725 296.216C392.734 296.273 393.745 296.133 394.7 295.803C395.117 295.669 395.486 295.415 395.761 295.074C395.981 294.747 396.078 294.352 396.035 293.96C396.029 293.831 396.061 293.702 396.128 293.591C396.195 293.48 396.293 293.392 396.41 293.337C397.035 293.038 397.638 292.695 398.213 292.31C398.785 291.935 399.319 291.503 399.806 291.022C400.275 290.583 400.657 290.06 400.931 289.48C401.174 288.96 401.251 288.378 401.152 287.812L401.955 288.416L394.845 289.099C394.627 289.12 394.41 289.054 394.241 288.915C394.072 288.775 393.966 288.575 393.945 288.357L393.941 288.28V288.246C393.948 286.057 393.79 283.871 393.469 281.706C393.314 280.648 393.071 279.604 392.744 278.585C392.486 277.645 392.015 276.776 391.368 276.047C391.222 275.906 391.126 275.721 391.095 275.52C391.064 275.319 391.1 275.114 391.197 274.936L391.209 274.914C394.719 268.498 397.866 261.826 400.829 255.114C403.773 248.385 406.467 241.548 408.8 234.589C411.167 227.643 413.008 220.529 414.307 213.306C414.957 209.696 415.37 206.048 415.543 202.384C415.738 198.714 415.609 195.033 415.155 191.386C415.154 191.373 415.154 191.361 415.157 191.348C415.16 191.336 415.166 191.324 415.174 191.314C415.181 191.304 415.191 191.295 415.202 191.289C415.213 191.282 415.225 191.278 415.237 191.276C415.262 191.273 415.287 191.279 415.307 191.294C415.327 191.308 415.341 191.33 415.346 191.354C416.614 198.674 416.673 206.153 415.523 213.493C415.035 217.171 414.351 220.82 413.474 224.425C412.619 228.033 411.639 231.607 410.533 235.148C408.319 242.219 405.712 249.162 402.724 255.943C399.753 262.732 396.479 269.359 392.834 275.842L392.675 274.709C393.531 275.654 394.15 276.788 394.481 278.018C394.827 279.135 395.078 280.28 395.234 281.439C395.55 283.709 395.675 286.001 395.608 288.291L394.704 287.438L401.827 286.913L401.853 286.911C402.034 286.899 402.214 286.954 402.357 287.065C402.501 287.177 402.598 287.338 402.63 287.517C402.775 288.396 402.643 289.298 402.253 290.098C401.888 290.831 401.385 291.485 400.771 292.025C400.203 292.549 399.585 293.016 398.926 293.418C398.277 293.821 397.6 294.177 396.898 294.48L397.274 293.857C397.323 294.554 397.119 295.246 396.698 295.804C396.277 296.306 395.72 296.675 395.093 296.866C394.535 297.053 393.956 297.173 393.37 297.223C392.797 297.275 392.22 297.281 391.647 297.24L392.191 296.82C392.117 297.22 391.956 297.599 391.72 297.93C391.483 298.261 391.177 298.536 390.822 298.735C390.144 299.066 389.39 299.21 388.638 299.152C387.252 299.048 385.894 298.715 384.618 298.168L384.999 298.126C384.228 298.702 383.287 299.003 382.325 298.982C381.364 298.96 380.437 298.617 379.693 298.006C378.957 297.472 378.303 296.834 377.751 296.111C377.196 295.404 376.709 294.646 376.295 293.848L376.317 293.886L374.507 291.195C373.889 290.24 373.527 289.144 373.454 288.009C373.433 287.455 373.457 286.899 373.526 286.349L373.669 284.735L373.947 281.508C374.26 277.2 374.729 272.893 375.194 268.603C376.144 260.014 377.131 251.425 378.514 242.885C379.182 238.612 379.984 234.359 380.851 230.114L381.529 226.933L382.293 223.764C382.545 222.708 382.882 221.661 383.173 220.61C383.458 219.559 383.929 218.519 384.305 217.491C385.146 215.544 385.825 213.531 386.334 211.473C386.821 209.39 387.198 207.283 387.463 205.161C387.993 200.89 388.186 196.584 388.038 192.282C388.037 192.27 388.039 192.257 388.043 192.245C388.047 192.233 388.054 192.222 388.062 192.212C388.07 192.203 388.08 192.195 388.092 192.189C388.103 192.183 388.116 192.18 388.128 192.179C388.153 192.178 388.177 192.187 388.196 192.203C388.215 192.218 388.228 192.241 388.231 192.265Z" fill="black"/>
<path d="M416.914 293.246L416.889 293.179V293.18C415.763 288.775 414.825 284.339 413.954 279.891C413.07 275.445 412.297 270.981 411.546 266.513C410.831 262.039 410.139 257.562 409.559 253.066C408.967 248.573 408.442 244.069 408.107 239.535C409.237 243.942 410.177 248.379 411.049 252.826C411.933 257.271 412.706 261.734 413.456 266.201C414.169 270.674 414.861 275.15 415.442 279.645C416.035 284.137 416.561 288.641 416.901 293.178V293.179C416.906 293.201 416.911 293.224 416.914 293.246Z" fill="black"/>
<path d="M382.018 293.606C382.773 294.147 383.425 294.818 383.944 295.588C384.202 295.958 384.439 296.342 384.654 296.739C384.88 297.133 385.044 297.556 385.258 297.987C384.8 297.824 384.388 297.553 384.055 297.199C383.722 296.877 383.421 296.524 383.154 296.146C382.601 295.388 382.214 294.523 382.018 293.606Z" fill="black"/>
<path d="M387.658 293.203C388.468 293.627 389.208 294.175 389.849 294.828C390.161 295.141 390.467 295.456 390.755 295.785C391.03 296.132 391.342 296.448 391.686 296.728C391.19 296.79 390.688 296.664 390.281 296.373C389.879 296.134 389.508 295.848 389.175 295.521C388.494 294.878 387.974 294.084 387.658 293.203Z" fill="black"/>
<path d="M392.794 291.592C393.549 291.781 394.262 292.113 394.894 292.569C395.195 292.788 395.493 293.004 395.77 293.248C396.029 293.512 396.327 293.735 396.654 293.908C396.563 293.975 396.459 294.022 396.348 294.046C396.238 294.071 396.124 294.072 396.013 294.05C395.805 294.026 395.6 293.978 395.403 293.908C394.27 293.497 393.336 292.669 392.794 291.592L392.794 291.592Z" fill="black"/>
<path d="M376.58 293.707C372.753 293.707 373.558 309.317 373.558 309.317L367.343 313.442C367.343 313.442 367.516 288.772 373.558 289.276L376.58 293.707Z" fill="black"/>
<path d="M406.486 307.672C404.14 307.779 401.796 307.806 399.452 307.86C397.108 307.893 394.765 307.897 392.422 307.895C390.079 307.875 387.736 307.871 385.395 307.82C383.053 307.776 380.711 307.736 378.37 307.659L378.842 307.535C375.61 309.484 372.356 311.392 369.077 313.261C367.445 314.207 365.78 315.099 364.118 315.995C362.446 316.874 360.79 317.78 359.099 318.626L358.966 318.086C363.364 318.152 367.759 318.248 372.154 318.375L385.334 318.804L398.51 319.313C402.9 319.513 407.288 319.768 411.673 320.076L411.077 320.258L417.648 315.595C419.846 314.051 422.069 312.542 424.28 311.016L424.349 310.973L424.399 310.936L424.33 310.978C425.785 309.986 427.257 309.018 428.719 308.036L428.839 308.414L426.957 308.253C426.931 308.252 426.907 308.241 426.89 308.222C426.872 308.203 426.863 308.178 426.864 308.153C426.866 308.128 426.876 308.106 426.893 308.089C426.91 308.072 426.933 308.061 426.957 308.059L428.85 307.995C428.892 307.993 428.935 308.005 428.97 308.029C429.006 308.053 429.033 308.087 429.048 308.127C429.064 308.167 429.066 308.211 429.055 308.252C429.044 308.294 429.02 308.331 428.987 308.358L428.969 308.373C427.606 309.488 426.253 310.617 424.881 311.721L424.812 311.763L424.765 311.804L424.834 311.761C422.733 313.435 420.646 315.128 418.535 316.789L412.179 321.739C412.02 321.863 411.823 321.927 411.621 321.921L411.582 321.92C407.188 321.788 402.796 321.606 398.408 321.372L385.246 320.569L372.088 319.688C367.703 319.376 363.32 319.035 358.938 318.666C358.877 318.66 358.82 318.637 358.773 318.598C358.727 318.559 358.694 318.506 358.678 318.448C358.663 318.389 358.666 318.327 358.687 318.27C358.709 318.213 358.747 318.164 358.797 318.13L358.805 318.125C361.94 316.016 365.128 314 368.319 311.988C371.505 309.97 374.715 307.989 377.947 306.048C378.09 305.964 378.253 305.921 378.419 305.924C380.76 305.977 383.101 306.068 385.441 306.155C387.782 306.235 390.122 306.361 392.462 306.472C394.801 306.6 397.14 306.735 399.479 306.899C401.816 307.084 404.155 307.241 406.492 307.479C406.516 307.481 406.539 307.493 406.555 307.511C406.571 307.529 406.58 307.553 406.579 307.578C406.579 307.602 406.569 307.626 406.551 307.643C406.534 307.661 406.511 307.671 406.486 307.672Z" fill="black"/>
<path d="M417.746 296.101C418.964 294.689 420.26 293.347 421.629 292.081C422.999 290.747 424.56 289.625 426.261 288.751C427.119 288.305 428.017 287.94 428.943 287.66C429.927 287.325 430.966 287.183 432.004 287.242C432.601 287.283 433.181 287.456 433.702 287.751C434.223 288.045 434.672 288.452 435.015 288.942C435.318 289.402 435.561 289.898 435.74 290.419C435.817 290.659 435.899 290.905 435.96 291.133C436.052 291.435 436.101 291.748 436.105 292.063C436.037 293.107 435.787 294.132 435.368 295.091C435.02 295.979 434.627 296.848 434.19 297.696C433.314 299.366 432.392 300.992 431.373 302.555C430.374 304.131 429.305 305.656 428.196 307.152C427.113 308.671 425.896 310.09 424.559 311.392C425.621 309.879 426.482 308.232 427.4 306.632C428.313 305.028 429.197 303.409 430.069 301.791C430.92 300.162 431.794 298.549 432.542 296.894C432.922 296.07 433.296 295.248 433.6 294.419C433.912 293.675 434.105 292.886 434.171 292.082C434.177 291.934 434.155 291.787 434.107 291.647C434.052 291.427 433.989 291.234 433.929 291.032C433.813 290.675 433.655 290.332 433.458 290.012C433.272 289.74 433.028 289.512 432.742 289.347C432.456 289.182 432.137 289.084 431.808 289.059C430.995 288.981 430.174 289.06 429.39 289.291C428.964 289.393 428.544 289.518 428.132 289.667C427.708 289.791 427.292 289.962 426.873 290.126C425.218 290.827 423.655 291.731 422.222 292.817C420.711 293.866 419.248 295 417.746 296.101Z" fill="black"/>
<path d="M395.817 319.589C396.871 317.775 398.049 316.036 399.343 314.384C400.614 312.728 401.95 311.128 403.349 309.583C404.743 308.034 406.216 306.556 407.742 305.131C409.266 303.686 410.891 302.353 412.607 301.144C411.439 302.88 410.183 304.556 408.844 306.164C407.528 307.774 406.174 309.347 404.782 310.883C403.39 312.42 401.953 313.919 400.471 315.379C398.996 316.864 397.442 318.269 395.817 319.589Z" fill="black"/>
<path d="M397.895 317.175C395.066 315.535 392.231 313.974 389.33 312.606C387.871 311.943 386.417 311.288 384.92 310.774C383.457 310.226 381.943 309.824 380.401 309.574C378.926 309.288 377.408 309.297 375.937 309.603C375.229 309.754 374.549 310.012 373.921 310.37C373.61 310.56 373.31 310.765 373.021 310.986L372.109 311.74C370.899 312.695 369.882 313.873 369.114 315.209C368.937 315.523 368.826 315.868 368.788 316.226C368.749 316.583 368.783 316.945 368.888 317.289C369.185 318.018 369.742 318.611 370.451 318.952C370.031 318.863 369.633 318.691 369.282 318.445C368.93 318.199 368.631 317.885 368.404 317.521C368.193 317.116 368.068 316.673 368.037 316.218C368.006 315.763 368.069 315.306 368.223 314.877C368.845 313.27 369.818 311.824 371.072 310.642L371.963 309.755C372.3 309.458 372.654 309.182 373.025 308.929C373.785 308.437 374.616 308.065 375.49 307.825C377.199 307.412 378.975 307.357 380.706 307.664C384.004 308.301 387.162 309.523 390.029 311.273C392.88 312.915 395.522 314.897 397.895 317.175Z" fill="black"/>
<path d="M374.163 311.968C375.189 311.726 376.251 311.67 377.298 311.802C378.364 311.921 379.403 312.219 380.369 312.685C381.347 313.17 382.199 313.875 382.86 314.743C383.503 315.6 383.91 316.611 384.039 317.675C383.569 316.785 382.98 315.964 382.286 315.234C381.6 314.548 380.806 313.979 379.936 313.55C378.107 312.72 376.159 312.186 374.163 311.968Z" fill="black"/>
<path d="M375.034 314.15C376.256 315.072 377.353 316.014 378.504 316.907C379.066 317.368 379.649 317.798 380.231 318.241C380.811 318.692 381.418 319.098 382.018 319.588C380.505 319.309 379.089 318.647 377.903 317.665C377.306 317.191 376.757 316.659 376.266 316.076C375.763 315.498 375.348 314.849 375.034 314.15Z" fill="black"/>
<path d="M408.059 310.894C408.767 310.748 409.493 310.707 410.214 310.774C410.936 310.826 411.65 310.964 412.339 311.185C413.044 311.404 413.709 311.736 414.306 312.17C414.922 312.595 415.392 313.198 415.654 313.899C414.578 313.072 413.351 312.463 412.041 312.106C410.759 311.674 409.428 311.368 408.059 310.894Z" fill="black"/>
<path d="M418.868 300.255C419.446 300.084 420.053 300.028 420.652 300.091C421.255 300.143 421.847 300.283 422.409 300.506C422.977 300.741 423.499 301.074 423.952 301.491C424.404 301.908 424.738 302.437 424.919 303.026C424.414 302.677 423.976 302.36 423.499 302.095C423.027 301.836 422.54 301.605 422.042 301.401C421.039 300.986 419.995 300.676 418.868 300.255Z" fill="black"/>
<path d="M401.952 317.675C402.299 317.365 402.708 317.133 403.152 316.993C403.587 316.847 404.041 316.764 404.499 316.748C404.967 316.717 405.436 316.783 405.877 316.942C406.318 317.102 406.721 317.351 407.06 317.675C406.578 317.696 406.166 317.68 405.75 317.687C405.336 317.703 404.934 317.692 404.525 317.715C403.667 317.756 402.808 317.743 401.952 317.675Z" fill="black"/>
<path d="M425.859 294.966C426.438 294.628 427.116 294.501 427.778 294.606C428.113 294.651 428.437 294.758 428.733 294.92C429.013 295.078 429.409 295.39 429.35 295.797C429.084 295.677 428.792 295.623 428.5 295.639C428.22 295.627 427.932 295.598 427.642 295.564C427.013 295.49 426.406 295.287 425.859 294.966Z" fill="black"/>
<path d="M415.847 205.021C416.438 218.666 408.057 239.657 408.057 239.657L415.025 281.978C419.099 288.365 436.064 281.978 436.064 281.978C425.728 274.4 415.847 205.021 415.847 205.021ZM417.938 280.71C417.562 280.697 417.205 280.538 416.944 280.267C416.683 279.996 416.537 279.635 416.537 279.258C416.537 278.882 416.683 278.52 416.944 278.25C417.205 277.979 417.562 277.82 417.938 277.807C418.314 277.82 418.67 277.979 418.931 278.25C419.193 278.52 419.339 278.882 419.339 279.258C419.339 279.635 419.193 279.996 418.931 280.267C418.67 280.538 418.314 280.697 417.938 280.71ZM424.383 281.233C424.007 281.219 423.651 281.06 423.389 280.789C423.128 280.519 422.982 280.157 422.982 279.781C422.982 279.405 423.128 279.043 423.389 278.772C423.651 278.501 424.007 278.343 424.383 278.329C424.759 278.343 425.115 278.501 425.376 278.772C425.638 279.043 425.784 279.405 425.784 279.781C425.784 280.157 425.638 280.519 425.376 280.789C425.115 281.06 424.759 281.219 424.383 281.233ZM430.48 280.884C430.104 280.871 429.748 280.712 429.486 280.441C429.225 280.17 429.079 279.809 429.079 279.432C429.079 279.056 429.225 278.695 429.486 278.424C429.748 278.153 430.104 277.994 430.48 277.981C430.856 277.994 431.212 278.153 431.474 278.424C431.735 278.695 431.881 279.056 431.881 279.432C431.881 279.809 431.735 280.17 431.474 280.441C431.212 280.712 430.856 280.871 430.48 280.884Z" fill="black"/>
<path d="M368.865 115.732C368.913 115.188 369.063 114.657 369.308 114.168C369.542 113.672 369.85 113.215 370.223 112.813C370.604 112.389 371.077 112.057 371.606 111.842C371.87 111.727 372.155 111.667 372.443 111.667C372.731 111.666 373.016 111.724 373.281 111.838C372.805 111.98 372.359 112.207 371.964 112.508C371.589 112.796 371.242 113.12 370.928 113.475C370.255 114.174 369.654 114.966 368.865 115.732Z" fill="black"/>
<path d="M421.395 314.15C420.987 306.362 416.902 293.203 416.902 293.203C410.597 278.298 394.724 282.528 394.724 282.528L395.116 288.118C395.116 288.118 401.47 287.504 401.952 288.375C401.952 288.375 413.741 289.981 415.654 317.675L421.366 313.763" fill="black"/>
<path d="M385.256 133.493C374.068 138.573 342.026 179.288 342.026 179.288C342.026 179.288 340.758 191.607 338.038 205.021C335.329 218.424 333.683 281.978 333.683 281.978C363.307 277.091 396.918 136.115 396.918 136.115C389.766 129.051 385.256 133.493 385.256 133.493ZM336.587 277.923C336.211 277.909 335.854 277.751 335.593 277.48C335.332 277.209 335.186 276.847 335.186 276.471C335.186 276.095 335.332 275.733 335.593 275.462C335.854 275.192 336.211 275.033 336.587 275.019C336.963 275.033 337.319 275.192 337.58 275.462C337.841 275.733 337.987 276.095 337.987 276.471C337.987 276.847 337.841 277.209 337.58 277.48C337.319 277.751 336.963 277.909 336.587 277.923ZM342.335 272.348C341.959 272.335 341.603 272.176 341.342 271.906C341.08 271.635 340.934 271.273 340.934 270.897C340.934 270.521 341.08 270.159 341.342 269.888C341.603 269.617 341.959 269.459 342.335 269.445C342.711 269.459 343.067 269.617 343.329 269.888C343.59 270.159 343.736 270.521 343.736 270.897C343.736 271.273 343.59 271.635 343.329 271.906C343.067 272.176 342.711 272.335 342.335 272.348ZM348.781 263.987C348.405 263.974 348.048 263.815 347.787 263.544C347.526 263.273 347.38 262.912 347.38 262.535C347.38 262.159 347.526 261.797 347.787 261.527C348.048 261.256 348.405 261.097 348.781 261.084C349.157 261.097 349.513 261.256 349.774 261.527C350.036 261.797 350.182 262.159 350.182 262.535C350.182 262.912 350.036 263.273 349.774 263.544C349.513 263.815 349.157 263.974 348.781 263.987ZM349.419 184.136C348.699 184.509 347.898 184.698 347.087 184.688C346.278 184.682 345.481 184.493 344.755 184.136C344.042 183.798 343.423 183.29 342.955 182.655C344.241 183.309 345.655 183.673 347.097 183.72C347.791 183.729 348.483 183.631 349.148 183.43C349.858 183.218 350.553 182.959 351.229 182.655C350.749 183.283 350.129 183.79 349.419 184.136ZM354.181 255.103C353.805 255.089 353.448 254.931 353.187 254.66C352.926 254.389 352.78 254.027 352.78 253.651C352.78 253.275 352.926 252.913 353.187 252.642C353.448 252.372 353.805 252.213 354.181 252.199C354.557 252.213 354.913 252.372 355.174 252.642C355.436 252.913 355.582 253.275 355.582 253.651C355.582 254.027 355.436 254.389 355.174 254.66C354.913 254.931 354.557 255.089 354.181 255.103ZM358.71 244.825C358.334 244.812 357.978 244.653 357.716 244.382C357.455 244.111 357.309 243.75 357.309 243.373C357.309 242.997 357.455 242.635 357.716 242.365C357.978 242.094 358.334 241.935 358.71 241.922C359.086 241.935 359.442 242.094 359.704 242.365C359.965 242.635 360.111 242.997 360.111 243.373C360.111 243.75 359.965 244.111 359.704 244.382C359.442 244.653 359.086 244.812 358.71 244.825ZM362.368 235.592C361.992 235.579 361.636 235.42 361.374 235.15C361.113 234.879 360.967 234.517 360.967 234.141C360.967 233.765 361.113 233.403 361.374 233.132C361.636 232.861 361.992 232.703 362.368 232.689C362.744 232.703 363.1 232.861 363.362 233.132C363.623 233.403 363.769 233.765 363.769 234.141C363.769 234.517 363.623 234.879 363.362 235.15C363.1 235.42 362.744 235.579 362.368 235.592ZM366.026 225.663C365.65 225.65 365.294 225.491 365.033 225.22C364.771 224.949 364.625 224.588 364.625 224.211C364.625 223.835 364.771 223.474 365.033 223.203C365.294 222.932 365.65 222.773 366.026 222.76C366.402 222.773 366.759 222.932 367.02 223.203C367.281 223.473 367.427 223.835 367.427 224.211C367.427 224.588 367.281 224.949 367.02 225.22C366.759 225.491 366.402 225.65 366.026 225.663V225.663ZM364.923 184.833C363.964 184.35 363.172 183.592 362.649 182.655C364.139 183.951 366.066 184.629 368.039 184.552C369.002 184.467 369.95 184.252 370.855 183.914C371.32 183.739 371.765 183.526 372.24 183.333C372.685 183.101 373.14 182.868 373.623 182.655C373.275 183.033 372.878 183.381 372.491 183.739C372.065 184.051 371.623 184.338 371.165 184.601C370.215 185.119 369.166 185.429 368.088 185.51C366.991 185.571 365.899 185.337 364.923 184.833ZM369.859 215.908C369.483 215.895 369.126 215.736 368.865 215.465C368.604 215.194 368.458 214.833 368.458 214.456C368.458 214.08 368.604 213.718 368.865 213.448C369.126 213.177 369.483 213.018 369.859 213.005C370.235 213.018 370.591 213.177 370.852 213.448C371.114 213.718 371.26 214.08 371.26 214.456C371.26 214.833 371.114 215.194 370.852 215.465C370.591 215.736 370.235 215.895 369.859 215.908ZM373.517 205.63C373.141 205.617 372.785 205.458 372.523 205.187C372.262 204.917 372.116 204.555 372.116 204.179C372.116 203.802 372.262 203.441 372.523 203.17C372.785 202.899 373.141 202.74 373.517 202.727C373.893 202.74 374.249 202.899 374.51 203.17C374.772 203.441 374.918 203.802 374.918 204.179C374.918 204.555 374.772 204.917 374.51 205.187C374.249 205.458 373.893 205.617 373.517 205.63ZM377.175 195.178C376.799 195.165 376.443 195.006 376.181 194.735C375.92 194.465 375.774 194.103 375.774 193.727C375.774 193.35 375.92 192.989 376.181 192.718C376.443 192.447 376.799 192.288 377.175 192.275C377.551 192.288 377.907 192.447 378.169 192.718C378.43 192.989 378.576 193.35 378.576 193.727C378.576 194.103 378.43 194.465 378.169 194.735C377.907 195.006 377.551 195.165 377.175 195.178V195.178ZM381.182 184.204C380.806 184.19 380.449 184.032 380.188 183.761C379.927 183.49 379.781 183.128 379.781 182.752C379.781 182.376 379.927 182.014 380.188 181.743C380.449 181.473 380.806 181.314 381.182 181.3C381.558 181.314 381.914 181.473 382.175 181.743C382.437 182.014 382.583 182.376 382.583 182.752C382.583 183.129 382.437 183.49 382.175 183.761C381.914 184.032 381.558 184.191 381.182 184.204V184.204ZM384.317 173.926C383.941 173.913 383.585 173.754 383.324 173.483C383.062 173.212 382.916 172.851 382.916 172.474C382.916 172.098 383.062 171.736 383.324 171.466C383.585 171.195 383.941 171.036 384.317 171.023C384.693 171.036 385.05 171.195 385.311 171.466C385.572 171.736 385.719 172.098 385.719 172.474C385.719 172.851 385.572 173.212 385.311 173.483C385.05 173.754 384.693 173.913 384.317 173.926V173.926ZM387.453 162.429C387.077 162.416 386.721 162.257 386.459 161.986C386.198 161.715 386.052 161.354 386.052 160.977C386.052 160.601 386.198 160.239 386.459 159.969C386.721 159.698 387.077 159.539 387.453 159.526C387.829 159.539 388.185 159.698 388.447 159.968C388.708 160.239 388.854 160.601 388.854 160.977C388.854 161.354 388.708 161.715 388.447 161.986C388.185 162.257 387.829 162.416 387.453 162.429V162.429ZM390.414 151.454C390.038 151.441 389.682 151.282 389.42 151.011C389.159 150.741 389.013 150.379 389.013 150.003C389.013 149.626 389.159 149.265 389.42 148.994C389.682 148.723 390.038 148.564 390.414 148.551C390.79 148.564 391.147 148.723 391.408 148.994C391.669 149.265 391.815 149.626 391.815 150.003C391.815 150.379 391.669 150.741 391.408 151.012C391.147 151.282 390.79 151.441 390.414 151.454V151.454ZM393.724 139.435C393.348 139.421 392.992 139.262 392.73 138.992C392.469 138.721 392.323 138.359 392.323 137.983C392.323 137.607 392.469 137.245 392.73 136.974C392.992 136.704 393.348 136.545 393.724 136.531C394.1 136.545 394.456 136.703 394.718 136.974C394.979 137.245 395.125 137.607 395.125 137.983C395.125 138.359 394.979 138.721 394.718 138.992C394.456 139.263 394.1 139.421 393.724 139.435L393.724 139.435Z" fill="black"/>
<path d="M332.231 188.037C332.607 188.024 332.964 187.865 333.225 187.595C333.487 187.324 333.633 186.962 333.633 186.585C333.633 186.209 333.487 185.847 333.225 185.576C332.964 185.305 332.607 185.147 332.231 185.134C331.854 185.147 331.498 185.305 331.236 185.576C330.975 185.847 330.828 186.209 330.828 186.585C330.828 186.962 330.975 187.324 331.236 187.595C331.498 187.865 331.854 188.024 332.231 188.037Z" fill="black"/>
<path d="M337.805 188.153C338.181 188.14 338.538 187.982 338.8 187.711C339.061 187.44 339.208 187.078 339.208 186.702C339.208 186.325 339.061 185.963 338.8 185.692C338.538 185.422 338.181 185.263 337.805 185.25C337.429 185.263 337.072 185.422 336.811 185.692C336.549 185.963 336.403 186.325 336.403 186.702C336.403 187.078 336.549 187.44 336.811 187.711C337.072 187.982 337.429 188.14 337.805 188.153Z" fill="black"/>
<path d="M390.529 189.431C390.906 189.418 391.262 189.259 391.524 188.988C391.785 188.717 391.932 188.356 391.932 187.979C391.932 187.602 391.785 187.241 391.524 186.97C391.262 186.699 390.906 186.54 390.529 186.527C390.153 186.54 389.796 186.699 389.535 186.97C389.273 187.241 389.127 187.602 389.127 187.979C389.127 188.356 389.273 188.717 389.535 188.988C389.796 189.259 390.153 189.418 390.529 189.431Z" fill="black"/>
<path d="M398.078 188.734C398.454 188.721 398.811 188.562 399.072 188.291C399.334 188.021 399.48 187.659 399.48 187.282C399.48 186.906 399.334 186.544 399.072 186.273C398.811 186.002 398.454 185.844 398.078 185.831C397.702 185.844 397.345 186.002 397.083 186.273C396.822 186.544 396.676 186.906 396.676 187.282C396.676 187.659 396.822 188.021 397.083 188.291C397.345 188.562 397.702 188.721 398.078 188.734Z" fill="black"/>
<path d="M406.323 188.502C406.7 188.489 407.056 188.33 407.318 188.059C407.579 187.789 407.726 187.427 407.726 187.05C407.726 186.674 407.579 186.312 407.318 186.041C407.056 185.77 406.7 185.612 406.323 185.599C405.947 185.612 405.59 185.77 405.329 186.041C405.067 186.312 404.921 186.674 404.921 187.05C404.921 187.427 405.067 187.789 405.329 188.059C405.59 188.33 405.947 188.489 406.323 188.502Z" fill="black"/>
<path d="M414.336 188.037C414.713 188.024 415.069 187.865 415.331 187.595C415.593 187.324 415.739 186.962 415.739 186.585C415.739 186.209 415.593 185.847 415.331 185.576C415.069 185.305 414.713 185.147 414.336 185.134C413.96 185.147 413.604 185.305 413.342 185.576C413.08 185.847 412.934 186.209 412.934 186.585C412.934 186.962 413.08 187.324 413.342 187.595C413.604 187.865 413.96 188.024 414.336 188.037Z" fill="black"/>
<path d="M333.973 427.038C334.349 427.025 334.706 426.866 334.967 426.596C335.229 426.325 335.375 425.963 335.375 425.586C335.375 425.21 335.229 424.848 334.967 424.577C334.706 424.306 334.349 424.148 333.973 424.135C333.596 424.148 333.24 424.306 332.978 424.577C332.717 424.848 332.57 425.21 332.57 425.586C332.57 425.963 332.717 426.325 332.978 426.596C333.24 426.866 333.596 427.025 333.973 427.038Z" fill="black"/>
<path d="M343.379 423.554C343.756 423.541 344.112 423.383 344.374 423.112C344.636 422.841 344.782 422.479 344.782 422.103C344.782 421.726 344.636 421.364 344.374 421.093C344.112 420.823 343.756 420.664 343.379 420.651C343.003 420.664 342.647 420.823 342.385 421.093C342.123 421.364 341.977 421.726 341.977 422.103C341.977 422.479 342.123 422.841 342.385 423.112C342.647 423.383 343.003 423.541 343.379 423.554Z" fill="black"/>
<path d="M353.309 421.29C353.685 421.277 354.042 421.118 354.303 420.847C354.565 420.576 354.711 420.214 354.711 419.838C354.711 419.461 354.565 419.099 354.303 418.829C354.042 418.558 353.685 418.399 353.309 418.386C352.932 418.399 352.576 418.558 352.314 418.829C352.053 419.099 351.906 419.461 351.906 419.838C351.906 420.214 352.053 420.576 352.314 420.847C352.576 421.118 352.932 421.277 353.309 421.29Z" fill="black"/>
<path d="M364.806 420.07C365.182 420.057 365.539 419.899 365.8 419.628C366.062 419.357 366.208 418.995 366.208 418.619C366.208 418.242 366.062 417.88 365.8 417.609C365.539 417.339 365.182 417.18 364.806 417.167C364.43 417.18 364.073 417.339 363.811 417.609C363.55 417.88 363.404 418.242 363.404 418.619C363.404 418.995 363.55 419.357 363.811 419.628C364.073 419.899 364.43 420.057 364.806 420.07Z" fill="black"/>
<path d="M375.78 419.896C376.157 419.883 376.513 419.724 376.775 419.454C377.037 419.183 377.183 418.821 377.183 418.444C377.183 418.068 377.037 417.706 376.775 417.435C376.513 417.164 376.157 417.006 375.78 416.993C375.404 417.006 375.048 417.164 374.786 417.435C374.524 417.706 374.378 418.068 374.378 418.444C374.378 418.821 374.524 419.183 374.786 419.454C375.048 419.724 375.404 419.883 375.78 419.896Z" fill="black"/>
<path d="M386.581 420.418C386.957 420.405 387.314 420.247 387.575 419.976C387.837 419.705 387.983 419.343 387.983 418.967C387.983 418.59 387.837 418.228 387.575 417.958C387.314 417.687 386.957 417.528 386.581 417.515C386.204 417.528 385.848 417.687 385.586 417.958C385.325 418.228 385.179 418.59 385.179 418.967C385.179 419.343 385.325 419.705 385.586 419.976C385.848 420.247 386.204 420.405 386.581 420.418Z" fill="black"/>
<path d="M397.555 421.986C397.932 421.973 398.288 421.815 398.55 421.544C398.811 421.273 398.958 420.911 398.958 420.535C398.958 420.158 398.811 419.796 398.55 419.526C398.288 419.255 397.932 419.096 397.555 419.083C397.179 419.096 396.822 419.255 396.561 419.526C396.299 419.796 396.153 420.158 396.153 420.535C396.153 420.911 396.299 421.273 396.561 421.544C396.822 421.815 397.179 421.973 397.555 421.986Z" fill="black"/>
<path d="M409.401 423.38C409.777 423.367 410.134 423.208 410.395 422.937C410.657 422.667 410.803 422.305 410.803 421.928C410.803 421.552 410.657 421.19 410.395 420.919C410.134 420.648 409.777 420.49 409.401 420.477C409.024 420.49 408.668 420.648 408.406 420.919C408.145 421.19 407.998 421.552 407.998 421.928C407.998 422.305 408.145 422.667 408.406 422.937C408.668 423.208 409.024 423.367 409.401 423.38Z" fill="black"/>
<path d="M420.375 424.077C420.752 424.064 421.108 423.905 421.37 423.634C421.631 423.363 421.778 423.002 421.778 422.625C421.778 422.248 421.631 421.887 421.37 421.616C421.108 421.345 420.752 421.186 420.375 421.173C419.999 421.186 419.643 421.345 419.381 421.616C419.119 421.887 418.973 422.248 418.973 422.625C418.973 423.002 419.119 423.363 419.381 423.634C419.643 423.905 419.999 424.064 420.375 424.077Z" fill="black"/>
<path d="M431.698 423.729C432.075 423.715 432.431 423.557 432.693 423.286C432.954 423.015 433.101 422.653 433.101 422.277C433.101 421.9 432.954 421.539 432.693 421.268C432.431 420.997 432.075 420.838 431.698 420.825C431.322 420.838 430.965 420.997 430.704 421.268C430.442 421.539 430.296 421.9 430.296 422.277C430.296 422.653 430.442 423.015 430.704 423.286C430.965 423.557 431.322 423.715 431.698 423.729Z" fill="black"/>
</svg>
