<svg width="700" height="550" viewBox="0 0 700 550" fill="none" xmlns="http://www.w3.org/2000/svg">
<path d="M412.323 256.495C411.571 252.614 410.133 248.898 408.076 245.522C406.999 243.894 405.782 242.393 403.992 241.929C402.161 241.472 400.25 241.445 398.407 241.849C396.488 242.165 394.561 242.684 392.563 243.059C391.543 243.27 390.508 243.397 389.467 243.44C388.325 243.51 387.185 243.277 386.163 242.764C385.129 242.214 384.283 241.366 383.736 240.329C383.238 239.364 382.897 238.326 382.726 237.253C382.633 236.755 382.566 236.206 382.482 235.818C382.372 235.418 382.203 235.036 381.98 234.686C381.489 233.893 380.906 233.161 380.244 232.504L380.723 231.277C380.72 231.274 380.715 231.271 380.71 231.269C380.705 231.268 380.7 231.267 380.695 231.267C380.69 231.268 380.685 231.269 380.68 231.272C380.676 231.274 380.672 231.277 380.668 231.281C380.677 231.282 380.728 231.247 380.757 231.234C380.847 231.186 380.932 231.129 381.012 231.064C381.209 230.909 381.397 230.744 381.575 230.568C381.95 230.207 382.316 229.81 382.673 229.403C383.386 228.591 384.075 227.732 384.735 226.871L385.504 227.623C385.383 227.692 385.256 227.749 385.123 227.793L384.855 227.843C384.675 227.877 384.53 227.876 384.366 227.894C384.054 227.909 383.75 227.916 383.449 227.911C382.847 227.906 382.253 227.88 381.661 227.844C380.476 227.777 379.303 227.667 378.124 227.558L378.117 227.558C378.048 227.551 377.983 227.526 377.928 227.484C377.873 227.442 377.831 227.386 377.806 227.321C377.627 226.842 377.421 226.374 377.189 225.919C376.958 225.489 376.683 224.989 376.374 224.868C375.456 224.516 374.388 224.287 373.385 224.006C372.338 223.751 371.308 223.437 370.298 223.064C370.146 222.984 370.013 222.873 369.909 222.736C369.805 222.6 369.733 222.442 369.697 222.274C369.637 221.977 369.636 221.671 369.694 221.374C369.798 220.831 369.969 220.303 370.204 219.803C371.146 217.896 372.247 216.072 373.496 214.35C374.089 213.525 374.554 212.616 374.875 211.652C375.194 210.743 375.274 209.768 375.108 208.82L375.123 208.865C374.475 207.153 374.019 205.373 373.765 203.56C373.489 201.772 373.317 199.968 373.252 198.16C373.172 196.356 373.168 194.554 373.212 192.754C373.255 190.949 373.34 189.163 373.511 187.347C373.53 187.151 373.614 186.967 373.75 186.825C373.886 186.683 374.065 186.59 374.26 186.563C374.455 186.535 374.653 186.574 374.824 186.673C374.994 186.772 375.125 186.926 375.197 187.109L375.211 187.143C376.266 189.804 377.518 192.383 378.956 194.858C380.373 197.327 382.028 199.65 383.899 201.795C385.688 203.916 387.907 205.633 390.408 206.832C391.627 207.392 392.942 207.713 394.282 207.777C395.624 207.819 396.963 207.64 398.246 207.246L397.633 207.981C397.888 206.535 398.341 205.131 398.981 203.81C399.315 203.119 399.742 202.477 400.251 201.902C400.814 201.273 401.541 200.813 402.351 200.573C402.77 200.474 403.201 200.436 403.631 200.461C404.04 200.503 404.441 200.596 404.827 200.738C405.565 200.998 406.247 201.396 406.837 201.911C407.95 202.931 408.739 204.256 409.106 205.72C409.531 207.058 409.864 208.423 410.104 209.806C410.369 211.205 410.424 212.635 410.269 214.051C410.22 214.788 410.004 215.504 409.639 216.145C409.274 216.787 408.768 217.338 408.16 217.756C406.88 218.41 405.41 218.588 404.01 218.259C403.986 218.255 403.963 218.242 403.948 218.221C403.934 218.201 403.927 218.175 403.931 218.15C403.936 218.127 403.949 218.105 403.968 218.091C403.987 218.076 404.011 218.069 404.035 218.07C405.363 218.262 406.718 217.998 407.878 217.322C408.38 216.92 408.783 216.408 409.059 215.827C409.334 215.245 409.473 214.609 409.466 213.965C409.477 211.275 408.954 208.609 407.928 206.122C407.569 204.911 406.865 203.831 405.902 203.013C405.44 202.634 404.91 202.347 404.34 202.167C404.078 202.078 403.806 202.022 403.53 202C403.401 201.991 403.271 202 403.145 202.026C403.022 202.055 402.884 202.019 402.772 202.091C402.248 202.326 401.778 202.665 401.39 203.088C401.003 203.511 400.705 204.009 400.516 204.55C399.994 205.729 399.635 206.972 399.448 208.248L399.447 208.253C399.421 208.419 399.35 208.574 399.242 208.703C399.134 208.832 398.993 208.929 398.834 208.983C397.346 209.503 395.777 209.749 394.201 209.71C392.622 209.657 391.067 209.303 389.619 208.667C386.825 207.389 384.352 205.501 382.383 203.142C380.429 200.886 378.724 198.425 377.296 195.804C375.851 193.213 374.601 190.518 373.559 187.741L375.258 187.537C375.071 189.274 374.938 191.054 374.836 192.817C374.739 194.585 374.688 196.355 374.712 198.121C374.74 199.886 374.783 201.654 374.985 203.399C375.143 205.136 375.498 206.849 376.045 208.505L376.057 208.539L376.06 208.551C376.244 209.69 376.116 210.857 375.69 211.929C375.304 212.952 374.767 213.911 374.095 214.773C372.834 216.433 371.723 218.202 370.776 220.059C370.555 220.509 370.391 220.983 370.288 221.473C370.191 221.949 370.248 222.399 370.582 222.559C371.047 222.751 371.526 222.907 372.015 223.025L373.536 223.427C374.562 223.698 375.559 223.912 376.624 224.27C376.784 224.331 376.931 224.424 377.054 224.543C377.164 224.647 377.264 224.761 377.353 224.884C377.518 225.108 377.668 225.344 377.802 225.589C378.063 226.063 378.296 226.553 378.501 227.054L378.184 226.817C379.35 226.886 380.526 226.922 381.692 226.934C382.275 226.94 382.858 226.935 383.432 226.911C383.72 226.901 384.003 226.88 384.278 226.853C384.405 226.832 384.556 226.823 384.663 226.794L384.827 226.756C384.845 226.742 384.835 226.742 384.851 226.752L385.549 227.172C385.575 227.188 385.598 227.209 385.616 227.234C385.634 227.258 385.648 227.286 385.655 227.316C385.662 227.346 385.664 227.377 385.659 227.407C385.655 227.437 385.644 227.466 385.628 227.492L385.621 227.504C384.985 228.429 384.335 229.326 383.634 230.207C383.284 230.647 382.922 231.081 382.523 231.505C382.319 231.727 382.102 231.936 381.874 232.133C381.744 232.248 381.603 232.351 381.455 232.441C381.367 232.496 381.275 232.546 381.18 232.589C381.032 232.639 380.879 232.673 380.724 232.691L381.203 231.465C381.995 232.176 382.7 232.979 383.301 233.857C383.628 234.34 383.877 234.872 384.038 235.434C384.177 236.017 384.233 236.461 384.337 236.939C384.509 237.835 384.807 238.701 385.22 239.514C385.609 240.254 386.213 240.858 386.953 241.248C388.405 242.033 390.36 241.791 392.281 241.473C394.209 241.15 396.151 240.665 398.175 240.37C400.251 239.946 402.4 240.051 404.424 240.678C404.937 240.866 405.43 241.106 405.895 241.393L406.543 241.896C406.764 242.053 406.964 242.239 407.136 242.449L407.676 243.051C407.842 243.256 407.979 243.471 408.131 243.68C408.44 244.093 408.697 244.537 408.963 244.974C409.981 246.734 410.774 248.613 411.324 250.569C411.904 252.495 412.302 254.471 412.511 256.471C412.513 256.483 412.511 256.496 412.508 256.507C412.504 256.519 412.498 256.531 412.49 256.54C412.482 256.55 412.473 256.558 412.462 256.564C412.451 256.57 412.439 256.573 412.426 256.575C412.402 256.576 412.379 256.569 412.36 256.554C412.341 256.539 412.328 256.519 412.323 256.495Z" fill="black"/>
<path d="M405.507 219.078C403.962 221.943 403.515 225.273 404.251 228.444C405.507 233.697 403.438 241.07 403.438 241.07C403.438 241.07 398.198 259.738 413.616 256.483C429.035 253.228 453.362 244.833 457.645 227.873C457.645 227.873 452.948 215.825 450.278 211.94C444.268 203.194 434.175 180.246 429.206 176.82C428.095 175.094 426.648 173.609 424.951 172.453C419.808 168.709 413.46 167.001 407.132 167.659C397.817 168.525 382.817 172.376 374.385 187.442C374.385 187.442 382.547 212.846 398.541 208.114C398.541 208.114 399.801 199.129 405.298 201.83C406.731 202.574 407.831 203.83 408.378 205.349C409.833 209.149 412.141 217.413 405.507 219.078Z" fill="black"/>
<path d="M376.44 208.171C376.79 207.61 377.23 207.11 377.741 206.691C378.244 206.262 378.799 205.897 379.393 205.605C379.997 205.311 380.644 205.113 381.309 205.018C381.98 204.921 382.665 205.004 383.293 205.258C382.08 205.491 380.906 205.896 379.807 206.461C378.701 206.988 377.64 207.611 376.44 208.171Z" fill="black"/>
<path d="M380.723 213.197C381.094 213.184 381.444 213.028 381.701 212.761C381.959 212.495 382.103 212.139 382.103 211.769C382.103 211.399 381.959 211.043 381.701 210.776C381.444 210.51 381.094 210.354 380.723 210.341C380.353 210.354 380.003 210.51 379.745 210.776C379.488 211.043 379.344 211.399 379.344 211.769C379.344 212.139 379.488 212.495 379.745 212.761C380.003 213.028 380.353 213.184 380.723 213.197Z" fill="black"/>
<path d="M457.648 227.737C460.943 227.804 464.223 228.204 467.437 228.932C470.664 229.63 473.834 230.567 476.921 231.736C480.021 232.888 483.046 234.233 485.978 235.765C487.418 236.577 488.894 237.335 490.284 238.234L492.398 239.538L494.445 240.943C499.883 244.731 504.866 249.132 509.298 254.06C513.667 259.007 517.566 264.351 520.942 270.022C527.542 281.374 532.93 293.387 537.02 305.864C537.586 307.405 538.059 308.974 538.524 310.547L539.953 315.257C540.83 318.422 541.646 321.617 542.453 324.811C543.571 331.258 544.711 337.706 545.771 344.168C545.814 344.436 545.772 344.71 545.649 344.951C545.526 345.193 545.33 345.389 545.088 345.511L545.071 345.52C539.035 348.57 532.844 351.301 526.522 353.703C523.354 354.884 520.157 355.985 516.931 357.004C513.692 357.978 510.444 358.921 507.161 359.731C500.601 361.356 493.958 362.627 487.261 363.538C480.575 364.437 473.844 364.966 467.099 365.123L467.062 365.124C466.916 365.128 466.774 365.073 466.667 364.973C463.631 362.091 460.564 359.244 457.555 356.331C457.53 356.307 457.515 356.274 457.514 356.239C457.512 356.204 457.525 356.17 457.548 356.144C457.571 356.117 457.603 356.101 457.638 356.098C457.673 356.095 457.707 356.105 457.735 356.127C461.007 358.74 464.222 361.42 467.467 364.064L467.036 363.914C473.715 363.41 480.346 362.49 486.932 361.393C493.517 360.28 500.031 358.8 506.468 357.062C512.904 355.325 519.253 353.302 525.513 350.993C531.767 348.69 537.929 346.123 543.935 343.218L543.235 344.569C542.256 338.118 541.357 331.652 540.436 325.186C539.765 322.014 539.128 318.833 538.402 315.663L537.19 310.93C536.792 309.35 536.386 307.771 535.886 306.221L534.457 301.545C533.985 299.984 533.358 298.478 532.816 296.941C531.738 293.863 530.478 290.856 529.165 287.873C526.496 281.929 523.323 276.226 519.679 270.825C516.053 265.453 512.001 260.38 507.562 255.657C503.168 250.926 498.328 246.629 493.109 242.827C487.887 239.016 482.257 235.798 476.323 233.234C470.372 230.626 464.083 228.867 457.642 228.009L457.632 228.007C457.598 228.003 457.566 227.986 457.544 227.96C457.522 227.933 457.51 227.899 457.512 227.865C457.514 227.83 457.529 227.798 457.555 227.774C457.58 227.75 457.613 227.737 457.648 227.737L457.648 227.737Z" fill="black"/>
<path d="M539.905 345.499C540.719 346.943 541.381 348.468 541.882 350.049C542.384 351.589 542.791 353.158 543.102 354.747C543.417 356.336 543.634 357.942 543.75 359.558C543.884 361.211 543.845 362.873 543.634 364.518C542.817 363.075 542.153 361.55 541.653 359.969C541.151 358.429 540.745 356.86 540.437 355.27C540.124 353.68 539.909 352.074 539.793 350.458C539.66 348.806 539.697 347.144 539.905 345.499Z" fill="black"/>
<path d="M461.854 274.057C462.849 271.261 464.216 268.612 465.919 266.181C467.603 263.703 469.603 261.455 471.869 259.494C473.024 258.519 474.255 257.636 475.549 256.855C476.861 256.087 478.246 255.454 479.685 254.966C481.129 254.502 482.623 254.214 484.136 254.11C485.63 254.04 487.126 254.18 488.58 254.527C487.132 254.6 485.692 254.792 484.274 255.101C482.898 255.433 481.553 255.885 480.255 256.45C477.694 257.64 475.315 259.187 473.189 261.046C472.096 261.957 471.056 262.931 470.075 263.962C469.063 264.972 468.126 266.058 467.178 267.143C465.319 269.345 463.557 271.65 461.854 274.057Z" fill="black"/>
<path d="M496.657 259.087C498.364 260.264 499.87 261.71 501.117 263.368C502.395 265.016 503.456 266.821 504.276 268.739C505.114 270.661 505.657 272.699 505.887 274.784C506.145 276.853 506.01 278.951 505.491 280.97C505.21 278.985 504.82 277.017 504.324 275.075C503.823 273.183 503.181 271.332 502.402 269.537C501.629 267.728 500.76 265.962 499.799 264.245C498.82 262.518 497.776 260.818 496.657 259.087Z" fill="black"/>
<path d="M385.585 286.808C384.635 290.478 383.615 294.178 382.385 297.788C381.165 301.398 379.845 304.958 378.695 308.568C378.155 310.268 377.635 311.978 377.175 313.698C376.945 313.508 376.715 313.308 376.485 313.118C376.915 311.508 377.385 309.908 377.855 308.308C378.925 304.658 379.985 301.018 380.935 297.358C381.915 293.708 382.645 290.028 383.375 286.308C384.895 278.888 386.535 271.488 388.225 264.098C389.905 256.698 391.675 249.328 393.625 241.978C393.636 241.944 393.66 241.916 393.692 241.899C393.723 241.882 393.76 241.878 393.795 241.888C393.828 241.895 393.857 241.914 393.876 241.942C393.895 241.97 393.902 242.005 393.895 242.038C392.895 249.568 391.665 257.058 390.285 264.518C388.895 271.988 387.415 279.428 385.585 286.808Z" fill="black"/>
<path d="M422.435 336.938C421.68 337.162 420.888 337.233 420.105 337.148C419.525 334.908 419.008 332.651 418.555 330.378C417.965 327.478 417.495 324.568 417.105 321.628C416.765 319.008 416.505 316.368 416.425 313.688C412.922 313.148 409.375 312.96 405.835 313.128C401.854 313.279 397.923 314.073 394.195 315.478C391.081 316.681 388.162 318.339 385.535 320.398C384.925 319.948 384.305 319.468 383.675 318.978C386.505 316.486 389.733 314.485 393.225 313.058C397.19 311.446 401.392 310.494 405.665 310.238C409.221 310.04 412.788 310.224 416.305 310.788C415.775 308.038 415.285 305.288 414.855 302.528C414.315 299.098 413.805 295.658 413.365 292.208C412.975 288.748 412.625 285.298 412.405 281.818C412.165 278.347 412.125 274.864 412.285 271.388C412.285 271.37 412.289 271.353 412.297 271.337C412.304 271.32 412.315 271.306 412.328 271.294C412.341 271.282 412.356 271.272 412.373 271.266C412.389 271.26 412.407 271.257 412.425 271.258C412.458 271.262 412.489 271.277 412.512 271.3C412.536 271.324 412.551 271.355 412.555 271.388C412.785 274.838 413.205 278.268 413.695 281.688C414.165 285.108 414.755 288.508 415.385 291.908C415.965 295.308 416.615 298.698 417.305 302.088L419.445 312.208C419.485 312.389 419.488 312.575 419.455 312.757C419.422 312.939 419.354 313.113 419.253 313.268C419.153 313.424 419.022 313.557 418.87 313.662C418.717 313.767 418.546 313.84 418.365 313.878C418.194 313.914 418.018 313.921 417.845 313.898L417.825 313.888C417.475 313.838 417.125 313.798 416.785 313.738C417.707 316.189 418.505 318.686 419.175 321.218C419.955 324.068 420.635 326.948 421.215 329.838C421.695 332.198 422.101 334.565 422.435 336.938Z" fill="black"/>
<path d="M386.975 362.528C388.285 363.858 389.615 365.198 390.955 366.518L364.615 366.448C350.435 366.338 336.245 366.298 322.065 366.108C307.885 365.968 293.705 365.771 279.525 365.518L258.245 365.058L247.615 364.828L236.975 364.518L247.615 364.208L258.245 363.978L279.525 363.518C293.705 363.278 307.885 363.081 322.065 362.928C336.245 362.738 350.435 362.698 364.615 362.588L386.975 362.528Z" fill="black"/>
<path d="M577.345 364.518L566.705 364.828L556.075 365.058L534.795 365.508C520.615 365.748 506.435 365.945 492.255 366.098C478.065 366.288 463.885 366.328 449.705 366.438L447.665 366.448C448.985 365.228 450.305 363.948 451.605 362.608C465.155 362.708 478.695 362.758 492.255 362.938C506.435 363.068 520.615 363.265 534.795 363.528L556.075 363.978L566.705 364.208L577.345 364.518Z" fill="black"/>
<path d="M265.24 247.573C264.672 247.263 263.882 247.042 263.481 247.4C263.308 247.632 263.185 247.898 263.123 248.18C263.06 248.463 263.058 248.756 263.118 249.039C263.265 250.342 263.555 251.624 263.981 252.864C264.771 255.402 265.782 257.892 266.784 260.382C267.836 262.867 268.809 265.397 269.839 267.896L272.82 275.436L278.677 290.529C279.681 293.028 280.659 295.54 281.772 297.972C282.29 299.19 282.903 300.364 283.607 301.485C283.938 301.981 284.455 302.599 284.768 302.433C285.003 302.254 285.172 302.002 285.248 301.716C285.362 301.399 285.452 301.073 285.517 300.742C285.533 301.086 285.522 301.432 285.485 301.774C285.471 302.166 285.319 302.539 285.056 302.829C284.962 302.91 284.85 302.968 284.729 302.998C284.609 303.029 284.482 303.03 284.361 303.003C284.154 302.96 283.956 302.879 283.778 302.765C283.467 302.561 283.179 302.325 282.918 302.061C281.97 301.034 281.119 299.921 280.377 298.737C278.917 296.417 277.58 294.021 276.37 291.562C275.119 289.133 274.031 286.636 272.912 284.154C271.835 281.656 270.817 279.135 269.804 276.613C268.845 274.071 267.881 271.532 266.976 268.971C266.105 266.395 265.194 263.844 264.413 261.231C263.571 258.609 262.912 255.932 262.44 253.219C262.194 251.83 262.122 250.416 262.226 249.009C262.266 248.639 262.35 248.275 262.476 247.924C262.598 247.527 262.866 247.192 263.227 246.986C263.407 246.905 263.603 246.865 263.8 246.868C263.997 246.872 264.192 246.918 264.369 247.004C264.69 247.143 264.984 247.336 265.24 247.573Z" fill="black"/>
<path d="M262.666 249.161C265.859 249.584 269.085 249.709 272.302 249.535C275.513 249.422 278.719 249.169 281.904 248.753C288.28 247.944 294.605 246.77 300.846 245.238C307.12 243.821 313.281 241.953 319.462 240.137L328.653 237.135C331.705 236.091 334.74 234.995 337.818 233.994C334.878 235.335 331.895 236.581 328.93 237.879L319.854 241.319C318.323 241.842 316.788 242.357 315.246 242.853C313.702 243.339 312.179 243.896 310.614 244.316C307.492 245.184 304.385 246.109 301.218 246.814C298.07 247.59 294.879 248.182 291.69 248.775C288.48 249.256 285.272 249.755 282.031 249.986C275.584 250.484 268.986 250.666 262.666 249.161Z" fill="black"/>
<path d="M348.35 262.473C345.242 263.212 342.202 264.212 339.262 265.461C337.786 266.06 336.317 266.679 334.864 267.332C333.429 268.026 331.965 268.653 330.556 269.401C324.861 272.263 319.32 275.421 313.955 278.863C308.526 282.21 303.332 285.922 298.103 289.589L290.407 295.308C287.864 297.247 285.355 299.231 282.774 301.138C285.116 298.952 287.529 296.843 289.909 294.69L297.354 288.594C298.625 287.616 299.905 286.648 301.192 285.689C302.484 284.736 303.746 283.742 305.078 282.845C307.725 281.025 310.354 279.179 313.092 277.493C315.794 275.752 318.596 274.172 321.386 272.575C324.236 271.083 327.074 269.569 330.025 268.28C335.887 265.682 341.969 263.317 348.35 262.473Z" fill="black"/>
<path d="M335.406 232.496L349.207 264.431L361.873 250.136L354.497 233.068L335.406 232.496Z" fill="black"/>
<path d="M467.181 342.538C460.972 354.318 452.331 364.644 441.831 372.833C436.572 377.034 430.549 380.179 424.096 382.095C420.828 383.047 417.413 383.391 414.021 383.109C413.172 383.004 412.331 382.85 411.499 382.649C410.671 382.425 409.86 382.143 409.072 381.803C407.554 381.08 406.107 380.216 404.75 379.223C402.083 377.264 399.526 375.162 397.088 372.925C394.644 370.711 392.242 368.456 389.882 366.159L375.611 352.543C370.792 347.989 366.33 343.072 362.264 337.835C358.158 332.698 353.995 327.605 349.945 322.424L351.041 322.977C348.111 322.862 345.208 322.366 342.406 321.501C339.637 320.669 336.946 319.597 334.364 318.296C331.759 316.995 329.307 315.407 327.055 313.562C326.445 313.052 325.891 312.479 325.402 311.851C324.86 311.105 324.535 310.224 324.462 309.305C324.422 308.386 324.651 307.476 325.122 306.686C325.547 305.951 326.109 305.304 326.777 304.779L326.652 306.324L325.723 305.195C325.442 304.787 325.175 304.365 324.918 303.94C324.414 303.031 324.09 302.034 323.965 301.002C323.865 299.933 324.066 298.856 324.544 297.895C325.017 296.954 325.716 296.147 326.579 295.544L327.015 296.898C326.264 296.849 325.534 296.634 324.877 296.269C324.219 295.904 323.651 295.398 323.212 294.788C322.781 294.21 322.476 293.549 322.317 292.846C322.158 292.143 322.148 291.415 322.287 290.708C322.524 289.331 323.264 288.091 324.365 287.229C324.894 286.813 325.501 286.505 326.149 286.323C326.798 286.142 327.476 286.09 328.145 286.172L328.165 286.175C328.2 286.179 328.231 286.197 328.253 286.223C328.275 286.25 328.285 286.284 328.283 286.319C328.28 286.353 328.264 286.386 328.238 286.409C328.213 286.432 328.179 286.444 328.145 286.444C326.899 286.413 325.691 286.869 324.777 287.716C323.89 288.529 323.337 289.644 323.228 290.842C323.16 291.408 323.21 291.981 323.376 292.526C323.542 293.071 323.82 293.575 324.192 294.007C324.53 294.425 324.952 294.766 325.432 295.009C325.912 295.253 326.437 295.392 326.974 295.417C327.128 295.405 327.282 295.442 327.414 295.523C327.546 295.604 327.648 295.725 327.706 295.869C327.764 296.012 327.775 296.17 327.737 296.32C327.699 296.47 327.614 296.604 327.495 296.702L327.41 296.771C326.812 297.261 326.339 297.886 326.031 298.594C325.737 299.286 325.642 300.046 325.757 300.789C325.904 301.557 326.196 302.29 326.616 302.95C326.85 303.286 327.094 303.618 327.34 303.947L328.177 304.892C328.27 304.997 328.342 305.12 328.388 305.253C328.434 305.387 328.454 305.528 328.445 305.669C328.437 305.809 328.401 305.947 328.339 306.074C328.277 306.201 328.191 306.314 328.086 306.408L328.08 306.413L328.052 306.437C327.633 306.805 327.282 307.246 327.018 307.738C326.775 308.167 326.665 308.658 326.701 309.149C326.769 309.632 326.965 310.089 327.268 310.471C327.667 310.932 328.112 311.351 328.594 311.724C330.755 313.359 333.09 314.75 335.557 315.871C338.016 317.05 340.571 318.017 343.195 318.763C345.78 319.504 348.442 319.946 351.128 320.078L351.134 320.079C351.345 320.087 351.551 320.141 351.739 320.236C351.927 320.332 352.093 320.466 352.224 320.631C356.307 325.787 360.277 331.031 364.304 336.231C368.212 341.461 372.455 346.433 377.006 351.115L390.594 365.441C392.881 367.8 395.22 370.102 397.644 372.31C400.04 374.535 402.597 376.58 405.294 378.43C406.618 379.345 408.037 380.115 409.527 380.726C410.267 380.994 411.025 381.209 411.795 381.37C412.571 381.51 413.355 381.606 414.142 381.658C417.331 381.732 420.507 381.226 423.515 380.164C426.55 379.11 429.482 377.781 432.275 376.193C435.097 374.619 437.811 372.859 440.4 370.924C450.784 363.148 459.552 353.249 466.948 342.398C466.968 342.369 466.998 342.348 467.032 342.341C467.066 342.333 467.102 342.339 467.132 342.357C467.162 342.375 467.183 342.404 467.193 342.438C467.202 342.471 467.198 342.507 467.181 342.538L467.181 342.538Z" fill="black"/>
<path d="M328.155 286.444L328.135 286.445H328.133L328.097 286.44C326.547 286.26 325.039 285.817 323.638 285.131C322.863 284.755 322.211 284.165 321.759 283.43C321.543 283.015 321.423 282.555 321.408 282.087C321.393 281.618 321.484 281.152 321.673 280.724C322.303 279.108 323.541 277.803 325.121 277.087C325.882 276.731 326.687 276.476 327.514 276.327C328.399 276.123 329.32 276.124 330.205 276.33C333.135 277.15 336.071 277.953 338.989 278.813C341.909 279.668 344.832 280.511 347.735 281.422L346.276 283.059C345.705 281.754 345.182 280.429 344.637 279.113L344.616 279.063C344.503 278.789 344.503 278.48 344.616 278.205C344.73 277.93 344.949 277.712 345.224 277.598C345.397 277.527 345.586 277.5 345.773 277.519C347.943 277.754 350.093 278.142 352.208 278.679C353.298 278.944 354.362 279.307 355.387 279.764C355.66 279.889 355.923 280.034 356.175 280.196L356.565 280.459C356.699 280.571 356.827 280.691 356.947 280.817C357.076 280.93 357.184 281.066 357.265 281.217C357.352 281.35 357.431 281.487 357.503 281.628L357.868 282.374C359.61 286.322 361.228 290.248 362.875 294.196C363.7 296.183 364.529 298.094 365.225 300.222L365.327 300.645C365.345 300.752 365.374 300.858 365.412 300.96C365.49 301.184 365.589 301.4 365.708 301.604C365.958 302.045 366.248 302.461 366.573 302.849C367.238 303.654 367.949 304.42 368.703 305.144C371.791 308.043 375.028 310.781 378.401 313.345C381.752 315.979 385.08 318.573 388.54 321.005C391.985 323.439 395.591 325.616 399.262 327.715L402.025 329.279C402.937 329.786 403.849 330.254 404.788 330.713C406.653 331.637 408.57 332.483 410.52 333.237C412.473 333.975 414.439 334.694 416.43 335.242C417.411 335.514 418.405 335.732 419.409 335.896C420.279 336.07 421.176 336.074 422.047 335.906L422.167 335.868C422.156 335.859 422.056 335.911 422.129 335.88L422.29 335.811L422.612 335.673L423.257 335.398L424.523 334.836C425.355 334.451 426.193 334.082 426.995 333.658C428.612 332.851 430.132 331.862 431.525 330.711C434.225 328.185 436.697 325.428 438.914 322.47C438.935 322.443 438.967 322.426 439.001 322.421C439.035 322.416 439.07 322.425 439.098 322.444C439.126 322.464 439.146 322.494 439.153 322.528C439.16 322.562 439.154 322.597 439.136 322.626C438.167 324.227 437.166 325.805 436.099 327.356C435.046 328.944 433.839 330.424 432.496 331.775C431.109 333.117 429.573 334.297 427.919 335.291C427.103 335.796 426.276 336.273 425.429 336.699C425.007 336.913 424.583 337.137 424.165 337.334L423.537 337.639L423.223 337.791L423.066 337.867C422.948 337.922 422.827 337.969 422.702 338.008L422.822 337.971C422.195 338.192 421.536 338.307 420.871 338.31C420.287 338.322 419.704 338.297 419.123 338.237C418.015 338.112 416.914 337.925 415.826 337.679C413.697 337.194 411.601 336.574 409.55 335.823C407.506 335.084 405.497 334.252 403.524 333.326C402.539 332.865 401.563 332.341 400.611 331.814L397.814 330.219C390.396 325.85 383.441 320.738 377.057 314.962C373.811 312.147 370.716 309.162 367.787 306.019C367.05 305.218 366.359 304.375 365.719 303.494C365.391 303.04 365.094 302.563 364.832 302.068C364.693 301.807 364.579 301.532 364.493 301.249C364.444 301.099 364.409 300.945 364.388 300.789C364.362 300.628 364.337 300.555 364.313 300.433C363.686 298.421 362.954 296.444 362.12 294.51C360.496 290.582 358.67 286.74 356.65 283L356.26 282.336C356.204 282.244 356.143 282.154 356.077 282.068C356.032 281.984 355.965 281.913 355.883 281.862C355.807 281.807 355.756 281.745 355.669 281.69L355.38 281.53C355.175 281.42 354.962 281.324 354.743 281.244C353.789 280.907 352.807 280.653 351.808 280.487C349.752 280.143 347.678 279.912 345.596 279.797L346.733 278.204C347.321 279.501 347.931 280.789 348.493 282.097C348.584 282.308 348.613 282.54 348.576 282.767C348.54 282.993 348.44 283.205 348.288 283.377C348.136 283.549 347.938 283.674 347.718 283.738C347.497 283.801 347.263 283.801 347.043 283.737L347.034 283.734C344.113 282.881 341.213 281.959 338.31 281.049C335.405 280.145 332.517 279.183 329.624 278.239C329.027 278.078 328.402 278.051 327.794 278.16C327.115 278.239 326.45 278.405 325.814 278.654C324.546 279.109 323.505 280.041 322.913 281.25C322.764 281.502 322.672 281.784 322.645 282.076C322.618 282.368 322.656 282.662 322.756 282.937C323.052 283.539 323.512 284.045 324.082 284.397C325.355 285.179 326.732 285.778 328.172 286.176L328.135 286.171L328.155 286.172C328.189 286.175 328.221 286.19 328.244 286.215C328.268 286.241 328.281 286.274 328.281 286.308C328.281 286.342 328.268 286.376 328.244 286.401C328.221 286.426 328.189 286.441 328.155 286.444L328.155 286.444Z" fill="black"/>
<path d="M327.383 285.714L332.732 286.531L327.336 286.927L327.383 285.714Z" fill="black"/>
<path d="M327.043 295.552L335.031 296.819L326.944 296.762L327.043 295.552Z" fill="black"/>
<path d="M327.578 305.021L333.428 307.252L327.257 306.193L327.578 305.021Z" fill="black"/>
<path d="M321.717 273.264C322.883 273.126 324.062 273.135 325.226 273.291C326.372 273.419 327.505 273.646 328.612 273.969L328.962 274.071L329.038 274.305C329.367 275.249 329.588 276.227 329.697 277.221C329.031 276.475 328.452 275.657 327.971 274.78L328.396 275.116C327.247 275.014 326.109 274.813 324.995 274.516C323.854 274.237 322.753 273.817 321.717 273.264Z" fill="black"/>
<path d="M341.526 264.243C342.167 265.277 342.749 266.336 343.311 267.405C343.877 268.471 344.41 269.552 344.932 270.637L345.041 270.865L344.921 271.129C344.575 271.89 344.251 272.662 343.886 273.413L343.898 272.866C345.311 275.996 346.609 279.176 347.726 282.433L347.503 282.227C348.57 282.69 349.632 283.168 350.672 283.708C349.519 283.498 348.387 283.225 347.26 282.937L347.128 282.904L347.037 282.731C345.43 279.685 344.004 276.561 342.692 273.387L342.576 273.105L342.704 272.839C343.07 272.088 343.476 271.356 343.861 270.614L343.85 271.105C343.417 269.981 342.995 268.852 342.606 267.709C342.214 266.568 341.84 265.418 341.526 264.243Z" fill="black"/>
<path d="M328.504 274.543C329.697 274.163 330.916 273.869 332.152 273.663C333.375 273.446 334.602 273.275 335.835 273.159C337.067 273.037 338.305 272.973 339.547 272.953C340.799 272.92 342.052 272.978 343.295 273.126C342.102 273.508 340.883 273.803 339.648 274.008C338.425 274.224 337.197 274.396 335.964 274.51C334.732 274.629 333.494 274.695 332.252 274.714C331 274.747 329.748 274.689 328.504 274.543Z" fill="black"/>
<path d="M232.015 260.722C222.941 261.965 213.855 263.054 204.755 263.989C195.658 264.958 186.549 265.785 177.438 266.585C168.323 267.339 159.205 268.063 150.076 268.647C140.949 269.264 131.809 269.725 122.655 270.029C131.729 268.783 140.815 267.692 149.915 266.758C159.012 265.79 168.121 264.962 177.232 264.166C186.347 263.414 195.465 262.69 204.595 262.108C213.722 261.491 222.862 261.029 232.015 260.722Z" fill="black"/>
<path d="M251.808 306.522C246.433 311.56 240.907 316.413 235.327 321.2C229.757 325.998 224.097 330.687 218.419 335.354C212.713 339.987 206.987 344.595 201.172 349.094C195.367 353.605 189.507 358.049 183.495 362.306C188.867 357.266 194.393 352.412 199.973 347.626C205.544 342.828 211.204 338.139 216.883 333.474C222.592 328.844 228.317 324.235 234.132 319.737C239.938 315.227 245.797 310.782 251.808 306.522Z" fill="black"/>
<path d="M210.03 289.218C206.143 290.717 202.198 291.983 198.233 293.168C194.271 294.367 190.274 295.429 186.271 296.464C182.256 297.454 178.234 298.416 174.178 299.24C170.125 300.079 166.051 300.834 161.918 301.355C165.804 299.853 169.749 298.585 173.714 297.401C177.676 296.203 181.673 295.141 185.677 294.109C189.692 293.121 193.714 292.16 197.771 291.337C201.824 290.499 205.897 289.742 210.03 289.218Z" fill="black"/>
<path d="M198.528 314.416C193.884 317.903 189.113 321.187 184.298 324.4C179.49 327.625 174.607 330.73 169.71 333.811C164.789 336.854 159.851 339.871 154.839 342.768C149.835 345.678 144.785 348.514 139.607 351.146C144.25 347.656 149.02 344.371 153.836 341.159C158.644 337.934 163.527 334.83 168.426 331.751C173.348 328.71 178.286 325.693 183.298 322.797C188.303 319.888 193.352 317.05 198.528 314.416Z" fill="black"/>
<path d="M457.731 280.962C456.333 284.412 454.912 287.851 453.417 291.255C451.936 294.666 450.465 298.081 448.909 301.458C447.364 304.839 445.864 308.241 444.283 311.605C442.721 314.978 441.064 318.307 439.398 321.632L439.191 320.822C442.093 323.081 444.954 325.397 447.883 327.62C450.802 329.857 453.794 331.995 456.779 334.141C459.78 336.266 462.81 338.351 465.839 340.44C468.872 342.521 471.866 344.656 474.865 346.784L473.734 346.868C477.35 343.037 480.732 338.992 483.861 334.754C487.031 330.545 489.966 326.164 492.652 321.631C493.99 319.363 495.244 317.05 496.417 314.691C497.567 312.324 498.6 309.904 499.574 307.457C500.508 304.993 501.309 302.48 501.972 299.93C502.615 297.365 503.093 294.761 503.404 292.135C503.406 292.122 503.409 292.11 503.415 292.099C503.421 292.088 503.429 292.078 503.439 292.071C503.449 292.063 503.46 292.057 503.472 292.053C503.484 292.05 503.496 292.048 503.509 292.05C503.532 292.053 503.554 292.064 503.57 292.082C503.586 292.1 503.594 292.123 503.594 292.146C503.522 294.817 503.251 297.478 502.783 300.108C502.262 302.735 501.593 305.331 500.78 307.883C499.068 312.964 496.893 317.878 494.281 322.561C491.665 327.233 488.723 331.715 485.477 335.974C482.233 340.236 478.721 344.288 474.963 348.105L474.958 348.11C474.812 348.258 474.617 348.347 474.41 348.362C474.202 348.376 473.997 348.315 473.832 348.189C470.906 345.962 467.976 343.74 465.084 341.466C462.187 339.199 459.293 336.929 456.369 334.699C453.43 332.489 450.497 330.271 447.491 328.153C444.496 326.02 441.432 323.98 438.409 321.884C438.289 321.801 438.2 321.677 438.16 321.536C438.119 321.395 438.129 321.243 438.187 321.108L438.202 321.074C439.677 317.66 441.161 314.251 442.74 310.886C444.3 307.511 445.94 304.175 447.536 300.817C449.121 297.455 450.79 294.132 452.451 290.805C454.096 287.47 455.816 284.171 457.559 280.882C457.57 280.86 457.59 280.844 457.613 280.836C457.636 280.828 457.661 280.83 457.683 280.84C457.705 280.85 457.723 280.869 457.732 280.891C457.741 280.914 457.74 280.94 457.731 280.962L457.731 280.962Z" fill="black"/>
<path d="M405.366 215.097C405.762 215.083 406.137 214.916 406.413 214.631C406.688 214.346 406.842 213.965 406.842 213.569C406.842 213.172 406.688 212.791 406.413 212.506C406.137 212.221 405.762 212.054 405.366 212.041C404.97 212.054 404.594 212.221 404.319 212.506C404.043 212.791 403.89 213.172 403.89 213.569C403.89 213.965 404.043 214.346 404.319 214.631C404.594 214.916 404.97 215.083 405.366 215.097Z" fill="black"/>
</svg>
