<svg width="700" height="550" viewBox="0 0 700 550" fill="none" xmlns="http://www.w3.org/2000/svg">
<path d="M409.562 175.615C409.407 175.896 409.252 176.186 409.078 176.467C409 176.612 408.904 176.757 408.836 176.893C408.788 177.018 408.739 177.164 408.7 177.299C408.526 177.87 408.371 178.489 408.226 179.089L407.336 182.738C407.055 183.957 406.784 185.177 406.533 186.396C406.378 187.209 406.223 188.012 406.126 188.864L436.05 159.753C433.374 154.014 431.614 147.892 430.833 141.608C426.188 143.814 420.246 146.553 412.223 149.882C398.897 155.408 395.316 184.015 395.316 184.015C395.316 184.015 401.462 185.37 404.926 184.364C404.983 183.661 405.083 182.963 405.226 182.273C405.488 180.961 405.897 179.682 406.446 178.46C406.723 177.835 407.057 177.235 407.442 176.67C407.539 176.525 407.655 176.38 407.781 176.225L408.042 175.828C408.226 175.567 408.391 175.296 408.555 175.025C409.91 172.847 411.197 170.592 412.465 168.347L416.288 161.583C415.243 163.954 414.168 166.312 413.065 168.657C411.942 170.989 410.82 173.322 409.562 175.615ZM397.242 183.744C396.866 183.731 396.51 183.572 396.248 183.301C395.987 183.031 395.841 182.669 395.841 182.293C395.841 181.916 395.987 181.555 396.248 181.284C396.51 181.013 396.866 180.854 397.242 180.841C397.618 180.854 397.974 181.013 398.236 181.284C398.497 181.555 398.643 181.916 398.643 182.293C398.643 182.669 398.497 183.031 398.236 183.301C397.974 183.572 397.618 183.731 397.242 183.744ZM402.003 183.744C401.627 183.731 401.271 183.572 401.01 183.301C400.749 183.031 400.603 182.669 400.603 182.293C400.603 181.916 400.749 181.555 401.01 181.284C401.271 181.013 401.627 180.854 402.003 180.841C402.38 180.854 402.736 181.013 402.997 181.284C403.258 181.555 403.404 181.916 403.404 182.293C403.404 182.669 403.258 183.031 402.997 183.301C402.736 183.572 402.38 183.731 402.003 183.744Z" fill="#020202"/>
<path d="M406.045 190.188C407.657 190.891 409.369 191.339 411.119 191.516C411.958 191.587 412.802 191.556 413.634 191.421C414.495 191.317 415.333 191.048 416.284 190.838C415.654 191.584 414.848 192.16 413.938 192.513C413.011 192.896 412.006 193.05 411.008 192.963C410.016 192.887 409.052 192.599 408.183 192.116C407.321 191.661 406.586 190.998 406.045 190.188Z" fill="black"/>
<path d="M320.498 236.459C320.343 235.132 320.266 233.798 320.265 232.462L320.498 236.459Z" fill="black"/>
<path d="M320.565 237.64L320.498 236.459C320.742 239.106 321.533 241.673 322.82 243.998C320.372 240.407 320.565 237.64 320.565 237.64Z" fill="black"/>
<path d="M322.907 244.133C323.217 244.588 323.575 245.053 323.972 245.527C323.572 245.099 323.215 244.632 322.907 244.133Z" fill="black"/>
<path d="M526.991 261.853L168.916 259.424V253.569C198.713 254.043 228.511 254.401 258.309 254.643C288.106 254.972 317.904 255.079 347.702 255.253C377.499 255.466 407.307 255.476 437.104 255.534L481.806 255.582L526.159 255.485L526.991 261.853Z" fill="black"/>
<path d="M584.032 220.413V226.423L526.991 261.853L526.885 255.36L541.15 246.688L555.453 237.949L584.032 220.413Z" fill="black"/>
<path d="M392.83 236.639L394.765 236.674" stroke="#020202" stroke-width="1.93554" stroke-miterlimit="10"/>
<path d="M398.747 236.746L444.532 237.571" stroke="#020202" stroke-width="1.93554" stroke-miterlimit="10" stroke-dasharray="3.98 3.98"/>
<path d="M446.522 237.607L448.458 237.642" stroke="#020202" stroke-width="1.93554" stroke-miterlimit="10"/>
<path d="M394.947 233.177L396.883 233.211" stroke="#020202" stroke-width="1.93554" stroke-miterlimit="10"/>
<path d="M400.864 233.283L446.649 234.109" stroke="#020202" stroke-width="1.93554" stroke-miterlimit="10" stroke-dasharray="3.98 3.98"/>
<path d="M448.64 234.145L450.575 234.179" stroke="#020202" stroke-width="1.93554" stroke-miterlimit="10"/>
<path d="M397.502 229.757L399.438 229.791" stroke="#020202" stroke-width="1.93554" stroke-miterlimit="10"/>
<path d="M403.419 229.863L449.204 230.689" stroke="#020202" stroke-width="1.93554" stroke-miterlimit="10" stroke-dasharray="3.98 3.98"/>
<path d="M451.195 230.725L453.13 230.759" stroke="#020202" stroke-width="1.93554" stroke-miterlimit="10"/>
<path d="M232.636 225.973C233.133 240.011 233.462 254.049 233.882 268.087L234.817 310.201C234.988 317.22 235.185 324.239 235.408 331.258C235.607 338.277 235.617 345.296 235.44 352.315L235.074 362.844C234.889 366.353 234.765 369.863 234.516 373.372C234.082 380.391 233.529 387.41 232.636 394.429C232.626 394.505 232.589 394.575 232.532 394.625C232.474 394.676 232.401 394.703 232.324 394.703C232.248 394.703 232.174 394.676 232.117 394.625C232.059 394.575 232.022 394.505 232.013 394.429C231.12 387.41 230.566 380.391 230.133 373.372C229.884 369.863 229.76 366.353 229.575 362.844L229.209 352.315C229.028 345.296 229.039 338.277 229.24 331.258C229.471 324.239 229.668 317.22 229.832 310.201L230.767 268.087C231.186 254.049 231.515 240.011 232.013 225.973C232.016 225.892 232.05 225.816 232.108 225.76C232.166 225.704 232.244 225.673 232.324 225.673C232.405 225.673 232.482 225.704 232.541 225.76C232.599 225.816 232.633 225.892 232.636 225.973H232.636Z" fill="#020202"/>
<path d="M176.892 261.745C177.39 275.783 177.719 289.821 178.138 303.859L179.073 345.973C179.244 352.992 179.441 360.011 179.665 367.03C179.864 374.049 179.874 381.068 179.696 388.087L179.33 398.616C179.145 402.125 179.021 405.635 178.772 409.144C178.339 416.163 177.785 423.182 176.892 430.201C176.883 430.277 176.846 430.347 176.788 430.397C176.731 430.448 176.657 430.476 176.581 430.476C176.504 430.476 176.43 430.448 176.373 430.397C176.316 430.347 176.279 430.277 176.269 430.201C175.376 423.182 174.823 416.163 174.389 409.144C174.14 405.635 174.016 402.125 173.831 398.616L173.465 388.087C173.285 381.068 173.295 374.049 173.496 367.03C173.727 360.011 173.925 352.992 174.088 345.973L175.023 303.859C175.442 289.821 175.771 275.783 176.269 261.745C176.272 261.664 176.306 261.588 176.364 261.532C176.422 261.476 176.5 261.444 176.581 261.444C176.661 261.444 176.739 261.476 176.797 261.532C176.855 261.588 176.889 261.664 176.892 261.745H176.892Z" fill="#020202"/>
<path d="M576.775 225.973C577.273 240.011 577.602 254.049 578.021 268.087L578.956 310.201C579.127 317.22 579.324 324.239 579.548 331.258C579.746 338.277 579.757 345.296 579.579 352.315L579.213 362.844C579.028 366.353 578.904 369.863 578.655 373.372C578.222 380.391 577.668 387.41 576.775 394.429C576.766 394.505 576.729 394.575 576.671 394.625C576.614 394.676 576.54 394.703 576.464 394.703C576.387 394.703 576.313 394.676 576.256 394.625C576.199 394.575 576.162 394.505 576.152 394.429C575.259 387.41 574.706 380.391 574.272 373.372C574.023 369.863 573.899 366.353 573.714 362.844L573.348 352.315C573.168 345.296 573.178 338.277 573.379 331.258C573.61 324.239 573.808 317.22 573.971 310.201L574.906 268.087C575.325 254.049 575.654 240.011 576.152 225.973C576.155 225.892 576.189 225.816 576.247 225.76C576.305 225.704 576.383 225.673 576.464 225.673C576.544 225.673 576.622 225.704 576.68 225.76C576.738 225.816 576.772 225.892 576.775 225.973H576.775Z" fill="#020202"/>
<path d="M521.032 261.745C521.529 275.783 521.858 289.821 522.278 303.859L523.212 345.973C523.384 352.992 523.581 360.011 523.805 367.03C524.003 374.049 524.013 381.068 523.836 388.087L523.47 398.616C523.285 402.125 523.161 405.635 522.911 409.144C522.478 416.163 521.925 423.182 521.032 430.201C521.022 430.277 520.985 430.347 520.928 430.397C520.87 430.448 520.797 430.476 520.72 430.476C520.644 430.476 520.57 430.448 520.513 430.397C520.455 430.347 520.418 430.277 520.409 430.201C519.516 423.182 518.962 416.163 518.529 409.144C518.279 405.635 518.156 402.125 517.971 398.616L517.605 388.087C517.424 381.068 517.435 374.049 517.636 367.03C517.867 360.011 518.064 352.992 518.228 345.973L519.162 303.859C519.582 289.821 519.911 275.783 520.409 261.745C520.412 261.664 520.446 261.588 520.504 261.532C520.562 261.476 520.64 261.445 520.72 261.445C520.801 261.445 520.878 261.476 520.936 261.532C520.995 261.588 521.029 261.664 521.032 261.745H521.032Z" fill="#020202"/>
<path d="M442.768 134.066C441.136 134.014 439.578 133.37 438.386 132.254C437.172 131.211 436.101 130.013 435.2 128.692C434.291 127.398 433.474 126.041 432.755 124.633C432.024 123.229 431.374 121.785 430.81 120.307L432.354 120.717C432.089 120.943 431.78 121.112 431.447 121.212C431.113 121.312 430.762 121.342 430.417 121.299C429.837 121.21 429.29 120.978 428.822 120.625C428.01 120.023 427.368 119.219 426.961 118.294C426.535 117.397 426.341 116.409 426.395 115.418C426.452 114.417 426.798 113.455 427.392 112.647C427.968 111.891 428.705 111.272 429.55 110.838C429.989 110.602 430.468 110.451 430.963 110.393C431.503 110.331 432.047 110.463 432.499 110.764C433.225 111.382 433.726 112.222 433.925 113.154C434.151 114 434.289 114.866 434.337 115.74L434.072 115.424C435.173 115.651 436.32 115.492 437.318 114.974C438.337 114.448 439.257 113.747 440.035 112.903C441.593 111.169 442.92 109.24 443.983 107.165C445.084 105.102 446.081 102.979 447.006 100.823C447.932 98.6753 448.787 96.4618 449.51 94.2678C449.584 94.0444 449.726 93.8498 449.916 93.7116C450.107 93.5734 450.336 93.4986 450.571 93.4978C450.806 93.497 451.036 93.5703 451.227 93.7072C451.418 93.8441 451.562 94.0377 451.637 94.2607L451.652 94.3069C452.668 97.379 453.791 100.464 455.021 103.456C455.664 104.94 456.336 106.405 457.091 107.803C457.757 109.145 458.687 110.339 459.825 111.314L459.929 111.389C460.018 111.454 460.092 111.536 460.147 111.632C460.201 111.727 460.234 111.833 460.245 111.943C460.432 114.033 460.483 116.105 460.467 118.192C460.456 119.237 460.388 120.281 460.263 121.319C460.177 122.374 459.917 123.407 459.492 124.376C459.48 124.401 459.46 124.42 459.434 124.43C459.409 124.44 459.381 124.44 459.355 124.431C459.33 124.421 459.309 124.402 459.296 124.378C459.284 124.354 459.281 124.326 459.288 124.299L459.291 124.291C459.52 123.305 459.611 122.293 459.559 121.283C459.533 120.265 459.446 119.249 459.363 118.233C459.179 116.204 458.87 114.168 458.538 112.172L458.958 112.801C457.459 111.782 456.216 110.43 455.326 108.851C454.439 107.408 453.645 105.909 452.95 104.365C451.568 101.316 450.414 98.1682 449.498 94.9485L451.64 94.9876C450.793 97.2772 449.853 99.4671 448.821 101.647C447.795 103.83 446.613 105.936 445.284 107.948C443.969 109.99 442.414 111.868 440.653 113.541C439.75 114.38 438.724 115.077 437.611 115.608C436.465 116.158 435.173 116.326 433.925 116.086C433.854 116.072 433.791 116.035 433.743 115.981C433.695 115.927 433.666 115.859 433.661 115.787L433.659 115.769C433.607 114.956 433.452 114.153 433.198 113.378C433.013 112.652 432.587 112.011 431.989 111.561C430.904 111.008 429.309 112.322 428.608 113.461C428.272 114.077 428.101 114.77 428.111 115.471C428.121 116.173 428.311 116.86 428.663 117.467C428.973 118.079 429.416 118.612 429.961 119.029C430.169 119.188 430.412 119.295 430.669 119.343C430.743 119.358 430.818 119.356 430.891 119.339C430.964 119.322 431.032 119.289 431.092 119.244L431.177 119.184C431.386 119.038 431.645 118.981 431.897 119.026C432.149 119.071 432.372 119.214 432.518 119.423C432.568 119.495 432.607 119.572 432.636 119.654C433.13 121.054 433.742 122.47 434.356 123.852C434.989 125.233 435.675 126.587 436.434 127.893C437.177 129.198 438.055 130.422 439.054 131.544C440.002 132.708 441.314 133.52 442.78 133.847C442.794 133.849 442.808 133.854 442.82 133.862C442.833 133.87 442.843 133.879 442.852 133.891C442.86 133.903 442.866 133.916 442.87 133.93C442.873 133.944 442.874 133.959 442.872 133.973C442.867 133.998 442.855 134.021 442.836 134.038C442.817 134.055 442.793 134.065 442.768 134.066Z" fill="#020202"/>
<path d="M437.358 130.289C437.452 131.06 437.532 131.831 437.603 132.602C437.699 133.404 437.693 134.215 437.585 135.015C437.338 136.673 436.628 138.228 435.538 139.502C434.986 140.146 434.347 140.709 433.638 141.176C433.288 141.407 432.925 141.617 432.551 141.807L431.514 142.324C430.125 143.003 428.742 143.693 427.328 144.318C424.512 145.593 421.587 146.627 418.69 147.707C417.234 148.233 415.789 148.781 414.36 149.364C412.921 149.864 411.546 150.531 410.262 151.351C407.851 153.171 405.885 155.517 404.515 158.21C403.058 160.859 401.821 163.623 400.817 166.475C398.872 172.244 397.323 178.139 396.179 184.119L395.506 183.165C397.189 183.599 398.898 183.924 400.623 184.14C401.485 184.25 402.352 184.305 403.221 184.304C404.088 184.317 404.951 184.185 405.774 183.914C405.788 183.909 405.802 183.906 405.817 183.906C405.831 183.907 405.845 183.91 405.859 183.915C405.872 183.921 405.884 183.929 405.894 183.94C405.904 183.95 405.912 183.962 405.917 183.976C405.926 184 405.927 184.026 405.919 184.05C405.912 184.074 405.896 184.095 405.875 184.109C405.081 184.576 404.203 184.882 403.291 185.011C402.393 185.174 401.482 185.259 400.569 185.265C399.661 185.284 398.753 185.256 397.848 185.18C396.941 185.107 396.052 185.016 395.133 184.858C394.929 184.823 394.746 184.713 394.621 184.549C394.495 184.386 394.435 184.181 394.453 183.976L394.459 183.904C394.753 180.791 395.259 177.702 395.975 174.658C396.673 171.605 397.612 168.612 398.784 165.708C399.913 162.764 401.369 159.956 403.126 157.337C404.903 154.705 407.193 152.457 409.858 150.728C411.216 149.955 412.631 149.285 414.09 148.724C415.504 148.111 416.892 147.438 418.264 146.732C421.02 145.345 423.724 143.853 426.51 142.544C427.897 141.877 429.308 141.262 430.709 140.622L431.761 140.148C432.085 140.01 432.401 139.854 432.707 139.679C433.31 139.33 433.866 138.905 434.362 138.416C435.381 137.411 436.127 136.163 436.529 134.79C436.733 134.077 436.856 133.343 436.894 132.602C436.965 131.831 437.045 131.06 437.139 130.289C437.142 130.262 437.155 130.238 437.175 130.22C437.195 130.202 437.221 130.192 437.248 130.192C437.275 130.192 437.301 130.202 437.322 130.22C437.342 130.238 437.355 130.262 437.358 130.289L437.358 130.289Z" fill="#020202"/>
<path d="M406.045 190.188C406.664 192.345 406.993 194.575 407.025 196.819C407.143 199.057 407.161 201.297 407.077 203.539C407.01 205.781 406.864 208.02 406.603 210.258C406.386 212.533 405.965 214.784 405.347 216.984L404.379 215.702L418.092 214.938L431.811 214.288L445.531 213.698C450.104 213.48 454.678 213.355 459.249 212.952C457.01 213.461 454.736 213.826 452.464 214.148C450.192 214.492 447.914 214.77 445.632 215.022C441.071 215.526 436.501 215.929 431.929 216.266C427.357 216.628 422.78 216.865 418.203 217.123C413.624 217.331 409.047 217.544 404.461 217.653L404.447 217.654C404.318 217.657 404.19 217.634 404.07 217.588C403.951 217.542 403.841 217.472 403.748 217.384C403.655 217.295 403.58 217.189 403.528 217.071C403.476 216.954 403.448 216.827 403.445 216.699C403.443 216.588 403.459 216.477 403.493 216.372C404.124 214.294 404.605 212.174 404.933 210.027C405.29 207.853 405.55 205.655 405.785 203.453C405.997 201.249 406.191 199.039 406.296 196.823C406.453 194.608 406.369 192.384 406.045 190.188Z" fill="#020202"/>
<path d="M461.61 217.126C457.7 217.789 440.358 217.432 431.386 217.198C431.386 217.198 450.575 201.132 450.635 195.104C450.635 195.104 457.323 212.317 459.249 212.952L461.61 217.126Z" fill="#020202"/>
<path d="M396.318 184.205C396.117 185.921 395.818 187.609 395.485 189.286C395.159 190.966 394.777 192.63 394.376 194.288C393.973 195.945 393.538 197.593 393.071 199.232C392.635 200.88 392.099 202.498 391.615 204.132L391.605 204.165C391.582 204.24 391.549 204.312 391.507 204.379C390.351 206.179 389.172 207.964 387.936 209.715C386.687 211.459 385.413 213.187 384.007 214.837C384.802 212.821 385.727 210.883 386.678 208.96C387.641 207.046 388.662 205.165 389.706 203.299L389.598 203.545C390.065 201.907 390.481 200.253 390.997 198.629C391.479 196.994 391.996 195.37 392.548 193.756C393.099 192.142 393.669 190.533 394.295 188.94C394.914 187.346 395.566 185.761 396.318 184.205Z" fill="#020202"/>
<path d="M405.241 211.735C405.54 212.339 405.707 213 405.731 213.674C405.755 214.348 405.635 215.019 405.38 215.643C405.302 215.874 405.176 216.085 405.01 216.263C404.845 216.441 404.644 216.582 404.42 216.678C404.511 216.272 404.554 215.858 404.548 215.443C404.553 215.039 404.584 214.637 404.617 214.23C404.68 213.369 404.891 212.525 405.241 211.735Z" fill="#020202"/>
<path d="M427.18 217.126C429.679 216.132 432.058 214.856 434.269 213.323C436.446 211.819 438.495 210.137 440.393 208.294C441.332 207.36 442.279 206.434 443.133 205.413C444.07 204.464 444.844 203.379 445.719 202.362C446.169 201.861 446.532 201.298 446.942 200.764L448.169 199.151C448.961 198.054 449.708 196.92 450.575 195.832C450.145 197.137 449.642 198.424 449.098 199.696C448.457 200.913 447.881 202.186 447.12 203.345C445.653 205.719 443.906 207.909 441.918 209.868C439.899 211.816 437.618 213.472 435.14 214.789C432.69 216.142 429.972 216.94 427.18 217.126Z" fill="#020202"/>
<path d="M416.178 147.621C417.229 141.468 418.515 135.383 419.823 129.312L421.795 120.226C422.131 118.718 422.475 117.213 422.722 115.713C422.837 114.973 422.885 114.275 422.978 113.414C423.084 112.621 423.235 111.835 423.429 111.059C424.199 108.009 425.245 105.035 426.554 102.174C427.211 100.742 427.966 99.3577 428.815 98.0309C429.656 96.6759 430.639 95.4153 431.749 94.2709C434.009 91.8251 437.091 90.2981 440.406 89.9818C441.237 89.9185 442.073 89.9227 442.905 89.9942C443.726 90.0883 444.54 90.2408 445.34 90.4506C446.921 90.8692 448.452 91.4546 449.909 92.1968L449.154 92.0968C450.873 91.7462 452.641 91.7186 454.37 92.0153C456.133 92.3061 457.798 93.0264 459.217 94.1126C459.923 94.664 460.564 95.2948 461.126 95.9924C461.379 96.3546 461.606 96.7345 461.843 97.1061C462.095 97.4646 462.304 97.8516 462.465 98.259C462.837 99.0355 463.125 99.8496 463.324 100.687C463.551 101.5 463.709 102.331 463.796 103.171C463.857 104.001 463.995 104.831 463.987 105.658L463.917 108.129C463.837 109.747 463.665 111.285 463.629 112.876C463.573 114.451 463.599 116.028 463.708 117.6C463.699 119.158 464.129 120.687 464.949 122.011L464.96 122.025C464.976 122.046 464.984 122.073 464.982 122.1C464.98 122.126 464.968 122.151 464.949 122.17C464.929 122.189 464.904 122.199 464.877 122.2C464.85 122.201 464.824 122.192 464.803 122.175C464.199 121.597 463.747 120.88 463.486 120.085C463.221 119.312 463.009 118.522 462.85 117.72C462.552 116.126 462.364 114.514 462.288 112.894C462.182 111.292 462.183 109.637 462.175 108.066L462.087 105.748C462.038 104.98 461.883 104.231 461.79 103.474C461.679 102.729 461.503 101.996 461.265 101.282C461.06 100.576 460.791 99.8895 460.46 99.2325C460.324 98.8989 460.144 98.5848 459.925 98.2985C459.723 98.0045 459.536 97.6989 459.329 97.4116C458.871 96.881 458.357 96.4022 457.795 95.9836C456.672 95.1143 455.349 94.5386 453.948 94.3086C452.527 94.0324 451.069 94.007 449.639 94.2334L449.571 94.245C449.336 94.2853 449.094 94.246 448.884 94.1334C446.347 92.6419 443.458 91.8509 440.515 91.8413C437.555 91.9575 434.733 93.1187 432.549 95.1187C430.275 97.1769 428.444 99.676 427.167 102.464C425.829 105.244 424.913 108.208 424.448 111.258C424.331 112.006 424.255 112.761 424.222 113.518C424.209 114.208 424.224 115.068 424.17 115.874C424.037 117.461 423.858 119.025 423.6 120.57C423.111 123.666 422.398 126.706 421.661 129.735C420.169 135.789 418.459 141.783 416.39 147.676C416.381 147.703 416.362 147.724 416.338 147.737C416.313 147.75 416.285 147.753 416.258 147.746C416.232 147.739 416.208 147.723 416.194 147.699C416.179 147.676 416.173 147.648 416.178 147.621L416.178 147.621Z" fill="#020202"/>
<path d="M377.199 218.691C377.515 217.973 377.946 217.312 378.475 216.733C379.015 216.135 379.64 215.619 380.33 215.203C381.74 214.381 383.326 213.906 384.957 213.818L384.876 213.825C385.991 213.703 387.117 213.719 388.229 213.872C389.328 214.022 390.404 214.307 391.432 214.722C392.462 215.141 393.417 215.722 394.264 216.442C395.099 217.145 395.78 218.013 396.264 218.991C395.426 218.399 394.538 217.882 393.611 217.445C392.723 217.035 391.796 216.718 390.844 216.497C388.972 216.05 387.046 215.866 385.123 215.95L385.043 215.956C383.667 215.956 382.299 216.172 380.99 216.594C380.32 216.819 379.674 217.106 379.058 217.451C378.412 217.822 377.791 218.236 377.199 218.691Z" fill="#020202"/>
<path d="M396.318 226.422C389.759 242.18 379.596 235.964 379.596 235.964C379.596 235.964 384.158 233.215 384.942 220.03C384.942 220.03 386.923 217.131 389.48 220.03C391.617 222.308 393.901 224.444 396.318 226.422Z" fill="white"/>
<path d="M396.411 226.399C396.186 227.208 395.905 228.145 395.564 229.108C395.186 230.009 394.755 230.816 394.32 231.669C394.076 232.076 393.794 232.462 393.521 232.854C393.261 233.259 392.97 233.642 392.649 234L391.642 235.052C391.279 235.383 390.897 235.692 390.498 235.979C388.887 237.155 386.93 237.762 384.936 237.704C383.014 237.64 381.133 237.131 379.442 236.216C379.4 236.194 379.364 236.161 379.338 236.121C379.312 236.082 379.296 236.036 379.292 235.988C379.288 235.941 379.297 235.893 379.316 235.85C379.336 235.806 379.366 235.768 379.404 235.74L379.444 235.71C380.487 234.806 381.275 233.645 381.729 232.342C382.24 231.04 382.627 229.693 382.886 228.318C383.051 227.641 383.141 226.941 383.285 226.259C383.383 225.564 383.493 224.873 383.576 224.176C383.638 223.475 383.718 222.778 383.767 222.076C383.794 221.371 383.859 220.671 383.911 219.969L383.915 219.909C383.927 219.741 383.988 219.581 384.089 219.447C384.561 218.765 385.229 218.243 386.004 217.95C386.419 217.795 386.861 217.729 387.303 217.754C387.746 217.779 388.178 217.896 388.572 218.097C389.225 218.456 389.796 218.947 390.248 219.54C390.627 219.997 391.014 220.458 391.413 220.914C392.213 221.822 393.04 222.723 393.874 223.623L395.124 224.982C395.556 225.459 395.933 225.833 396.411 226.399ZM396.224 226.446C395.693 226.159 395.181 225.837 394.692 225.483C394.176 225.136 393.668 224.779 393.173 224.403C392.177 223.661 391.207 222.88 390.276 222.041C389.805 221.627 389.349 221.192 388.907 220.734C388.579 220.371 388.184 220.074 387.743 219.86C387.586 219.784 387.415 219.744 387.24 219.742C387.066 219.74 386.893 219.777 386.735 219.85C386.368 220.029 386.046 220.29 385.795 220.613L385.974 220.091C385.911 220.82 385.86 221.549 385.772 222.275C385.679 223 385.554 223.724 385.446 224.448C385.317 225.17 385.161 225.889 385.014 226.607C384.819 227.319 384.662 228.036 384.415 228.735C383.953 230.142 383.344 231.495 382.597 232.774C381.882 234.097 380.915 235.267 379.749 236.217L379.751 235.711C380.529 236.136 381.372 236.429 382.245 236.578C382.682 236.649 383.124 236.681 383.566 236.672C384.002 236.68 384.438 236.646 384.868 236.569C386.542 236.26 388.124 235.574 389.492 234.562C390.894 233.528 392.14 232.299 393.192 230.91C393.68 230.178 394.25 229.441 394.732 228.722L396.224 226.446Z" fill="#020202"/>
<path d="M390.606 203.839C391.149 203.511 391.746 203.281 392.369 203.162C392.979 203.031 393.601 202.966 394.224 202.967C395.483 202.95 396.726 203.25 397.838 203.839C397.23 203.948 396.615 204.011 395.998 204.029C395.4 204.057 394.809 204.061 394.219 204.063C393.011 204.069 391.804 203.994 390.606 203.839Z" fill="#020202"/>
<path d="M342.187 260.636C341.22 260.879 340.31 261.307 339.507 261.897C338.688 262.47 337.921 263.112 337.213 263.818C335.79 265.234 334.479 266.758 333.291 268.378C330.927 271.639 328.741 275.025 326.741 278.522C322.685 285.494 319.148 292.761 315.658 300.041C312.195 307.336 308.924 314.726 305.774 322.167C302.615 329.602 299.475 337.057 296.533 344.572L296.365 343.658C299.091 346.743 301.99 349.732 304.972 352.601C307.947 355.481 311.079 358.194 314.353 360.729C317.558 363.32 321.135 365.415 324.964 366.942C326.837 367.692 328.877 367.925 330.871 367.615C331.84 367.405 332.747 366.977 333.525 366.364C334.303 365.75 334.931 364.968 335.362 364.076L335.365 364.069C335.389 364.022 335.424 363.981 335.467 363.951C335.51 363.92 335.559 363.9 335.611 363.892C337.513 363.637 339.442 363.662 341.337 363.965C343.236 364.247 345.073 364.853 346.766 365.758C347.615 366.211 348.419 366.742 349.17 367.343C349.907 367.961 350.585 368.647 351.194 369.392C351.813 370.127 352.364 370.917 352.838 371.752C353.331 372.575 353.667 373.477 354.087 374.338L353.785 374.089C357.897 374.468 362.044 374.069 366.008 372.914C369.989 371.801 373.806 370.171 377.364 368.067L379.981 366.41C380.861 365.873 381.647 365.191 382.484 364.589C384.137 363.352 385.721 362.026 387.23 360.616C388.028 359.961 388.714 359.181 389.443 358.45L391.605 356.231C392.958 354.669 394.265 353.064 395.597 351.485L395.407 352.17L391.044 319.528L388.897 303.202L386.836 286.866C386.815 286.695 386.832 286.522 386.888 286.359C386.943 286.197 387.035 286.049 387.156 285.927C387.277 285.805 387.424 285.712 387.586 285.656C387.748 285.599 387.921 285.58 388.092 285.6L388.107 285.602C395.891 286.511 403.72 286.997 411.557 287.056C419.396 287.186 427.232 286.715 434.998 285.646C442.713 284.491 450.445 282.715 457.375 279.117C460.857 277.365 463.992 274.996 466.627 272.124C469.24 269.195 471.076 265.657 471.966 261.834C471.972 261.806 471.99 261.782 472.014 261.767C472.038 261.751 472.067 261.746 472.095 261.752C472.124 261.758 472.148 261.775 472.164 261.799C472.18 261.822 472.186 261.852 472.181 261.88C471.425 265.808 469.696 269.484 467.152 272.57C464.573 275.64 461.434 278.192 457.902 280.09C454.399 282.002 450.704 283.537 446.878 284.67C443.071 285.823 439.189 286.714 435.26 287.337C427.416 288.552 419.491 289.162 411.554 289.164C407.591 289.2 403.628 289.087 399.672 288.861C395.711 288.634 391.778 288.326 387.808 287.842L389.078 286.579L391.198 302.908L393.231 319.248L397.228 351.937L397.234 351.984C397.248 352.098 397.238 352.214 397.204 352.324C397.17 352.434 397.114 352.536 397.039 352.623C395.65 354.218 394.288 355.835 392.878 357.408L390.627 359.645C389.897 360.41 389.127 361.137 388.322 361.823C386.739 363.229 385.081 364.548 383.356 365.774C382.482 366.37 381.662 367.044 380.744 367.575L378.019 369.207C374.319 371.272 370.369 372.853 366.266 373.91C362.152 374.995 357.876 375.321 353.645 374.873C353.586 374.866 353.53 374.844 353.482 374.81C353.434 374.776 353.395 374.73 353.369 374.676L353.343 374.624C352.944 373.798 352.63 372.924 352.164 372.135C351.718 371.334 351.199 370.576 350.614 369.871C350.041 369.158 349.402 368.5 348.706 367.906C347.995 367.329 347.233 366.818 346.429 366.38C344.811 365.5 343.054 364.904 341.234 364.62C339.415 364.337 337.563 364.328 335.741 364.592L335.99 364.409L335.121 365.78C334.741 366.172 334.396 366.603 333.981 366.958C333.129 367.661 332.119 368.147 331.037 368.376C328.903 368.739 326.711 368.52 324.691 367.742C320.75 366.239 317.042 364.185 313.678 361.64C310.297 359.166 307.057 356.506 303.972 353.672C300.88 350.846 297.898 347.93 295.029 344.848C294.919 344.73 294.844 344.583 294.813 344.425C294.782 344.267 294.796 344.103 294.854 343.952L294.861 343.934C297.761 336.356 300.777 328.843 303.99 321.402C307.225 313.973 310.581 306.595 314.133 299.306C317.679 292.017 321.515 284.858 325.743 277.924C327.844 274.442 330.166 271.098 332.696 267.913C333.966 266.316 335.358 264.82 336.86 263.439C337.613 262.743 338.431 262.122 339.303 261.581C340.166 261.014 341.132 260.62 342.146 260.421C342.174 260.416 342.203 260.423 342.227 260.439C342.25 260.456 342.266 260.481 342.272 260.509C342.277 260.537 342.271 260.566 342.255 260.59C342.239 260.614 342.215 260.63 342.187 260.636L342.187 260.636Z" fill="#020202"/>
<path d="M495.815 153.134C497.423 152.597 499.11 152.333 500.806 152.352C502.539 152.345 504.258 152.667 505.871 153.3C507.505 153.991 508.962 155.044 510.131 156.379C511.28 157.722 512.182 159.259 512.793 160.918C513.942 164.188 514.491 167.639 514.415 171.105C514.346 174.494 514.067 177.875 513.58 181.229C512.707 187.884 511.653 194.521 510.232 201.087C508.905 207.677 507.023 214.143 504.605 220.415C505.454 217.172 506.179 213.908 506.781 210.624C507.426 207.347 507.995 204.058 508.55 200.768C509.621 194.18 510.572 187.574 511.406 180.951C511.907 177.683 512.22 174.39 512.344 171.087C512.497 167.847 512.106 164.604 511.187 161.493C510.755 159.967 510.023 158.542 509.033 157.302C508.043 156.061 506.816 155.031 505.423 154.271C502.428 152.86 499.056 152.461 495.815 153.134Z" fill="#020202"/>
<path d="M388.862 293.441C395.828 294.865 402.783 296.181 409.759 297.336L420.234 298.974C423.725 299.535 427.233 299.998 430.758 300.365C434.286 300.683 437.83 300.783 441.37 300.665C444.902 300.521 448.42 300.138 451.9 299.52C455.354 298.921 458.758 298.062 462.083 296.953C465.381 295.89 468.533 294.422 471.468 292.582L471.509 292.559L471.651 292.489C472.998 291.794 474.262 290.946 475.416 289.964C476.623 288.95 477.767 287.866 478.845 286.717C480.993 284.354 482.907 281.788 484.56 279.056C486.247 276.305 487.765 273.453 489.103 270.517L491 266.029C491.568 264.505 492.123 262.973 492.723 261.448L492.725 261.443C492.735 261.417 492.754 261.396 492.779 261.384C492.804 261.372 492.833 261.37 492.859 261.378C492.886 261.386 492.908 261.404 492.922 261.428C492.936 261.452 492.94 261.48 492.934 261.507C492.575 263.103 492.171 264.693 491.78 266.291C491.32 267.866 490.811 269.431 490.29 270.994C489.192 274.116 487.842 277.144 486.254 280.048C484.668 282.992 482.753 285.747 480.548 288.261C479.973 288.876 479.403 289.497 478.805 290.093C478.17 290.654 477.579 291.257 476.9 291.775C475.571 292.919 474.089 293.871 472.496 294.603L472.678 294.511C466.366 298.118 459.332 300.28 452.083 300.839C444.972 301.401 437.834 301.548 430.706 301.278C427.142 301.209 423.58 301.028 420.018 300.735C416.463 300.413 412.932 299.873 409.428 299.208C402.409 297.933 395.509 296.074 388.799 293.651C388.771 293.641 388.749 293.621 388.737 293.594C388.725 293.568 388.724 293.537 388.734 293.51C388.744 293.485 388.762 293.465 388.785 293.452C388.809 293.44 388.836 293.436 388.862 293.441Z" fill="#020202"/>
<path d="M394.222 217.126C399.881 216.672 405.539 216.435 411.197 216.273C416.856 216.098 422.514 216.052 428.172 216.03C433.831 216.049 439.489 216.096 445.147 216.27C450.806 216.431 456.464 216.669 462.122 217.126C456.464 217.582 450.806 217.821 445.147 217.982C439.489 218.156 433.831 218.203 428.172 218.222C422.514 218.2 416.856 218.153 411.197 217.978C405.539 217.817 399.881 217.58 394.222 217.126Z" fill="#020202"/>
<path d="M485.938 220.413L483.093 220.365C480.865 222.291 478.104 223.496 475.177 223.82C473.259 223.984 471.328 223.735 469.515 223.089C467.702 222.443 466.048 221.415 464.667 220.075L396.265 218.991C397.841 220.97 398.785 223.378 398.974 225.9C398.974 225.9 397.842 230.333 389.064 219.523C389.064 219.523 385.571 218.139 384.835 220.249C384.109 222.368 384.758 239.101 374.025 236.914C374.025 236.914 372.225 224.991 377.2 218.691L368.342 218.55V219.878C368.342 220.679 368.184 221.471 367.878 222.211C367.572 222.95 367.123 223.622 366.557 224.188C365.991 224.754 365.319 225.203 364.58 225.509C363.84 225.815 363.048 225.973 362.247 225.973H319.894L320.265 232.462C320.265 232.036 320.285 231.794 320.285 231.794H337.627L323.972 245.527H302.72C300.849 245.526 299.054 244.788 297.722 243.473C296.391 242.158 295.631 240.372 295.607 238.501L295.452 225.973H253.524C252.724 225.973 251.931 225.815 251.192 225.509C250.452 225.203 249.78 224.754 249.215 224.188C248.649 223.622 248.2 222.95 247.893 222.211C247.587 221.471 247.43 220.679 247.43 219.879V216.678H230.834L168.916 253.569C198.714 253.308 228.511 253.166 258.309 253.143C288.116 253.037 317.914 253.143 347.712 253.182C377.509 253.192 407.307 253.395 437.114 253.55L481.806 253.83L526.343 254.247L540.627 245.817L555.085 237.34L584.032 220.413L485.938 220.413ZM452.85 241.22L383.887 240.727L387.961 236.449L396.032 227.081H463.738L452.85 241.22Z" fill="black"/>
<path d="M319.898 225.823C324.169 225.675 328.441 225.574 332.713 225.475C336.985 225.374 341.257 225.257 345.529 225.207L358.345 225.01L361.549 224.961C361.808 224.955 362.1 224.958 362.333 224.944C362.555 224.936 362.777 224.913 362.996 224.874C363.433 224.803 363.859 224.675 364.262 224.492C365.061 224.125 365.752 223.556 366.265 222.841C366.778 222.126 367.097 221.29 367.189 220.415L367.059 194.904C367.018 186.36 367.044 177.816 367.136 169.272L367.536 143.641L367.748 130.825C367.8 130.092 367.707 129.356 367.474 128.659C367.24 127.962 366.87 127.319 366.386 126.766C365.902 126.213 365.313 125.762 364.653 125.438C363.993 125.115 363.275 124.925 362.542 124.881C361.526 124.839 360.42 124.85 359.364 124.842C342.276 124.757 325.188 124.917 308.101 125.166C291.013 125.445 273.925 125.636 256.837 125.737L253.633 125.756C252.797 125.749 251.974 125.96 251.244 126.368C250.529 126.776 249.934 127.364 249.518 128.074C249.101 128.783 248.879 129.59 248.873 130.413L248.944 143.215L248.979 168.847L248.83 194.478L248.577 220.068C248.601 220.947 248.856 221.804 249.316 222.553C249.776 223.303 250.424 223.918 251.197 224.339C251.996 224.77 252.893 224.985 253.8 224.965L257.004 225.019L269.82 225.234C278.364 225.386 286.908 225.582 295.452 225.823C295.489 225.824 295.525 225.84 295.552 225.867C295.578 225.894 295.593 225.93 295.593 225.968C295.593 226.006 295.578 226.042 295.552 226.07C295.525 226.097 295.489 226.112 295.452 226.113C286.908 226.355 278.364 226.551 269.82 226.703L257.004 226.918L253.8 226.972C252.562 227.025 251.33 226.765 250.219 226.214C249.088 225.641 248.129 224.778 247.442 223.713C246.755 222.647 246.363 221.418 246.308 220.152L246.032 194.478L245.883 168.847L245.918 143.215L245.995 130.385C246.018 129.061 246.389 127.767 247.07 126.632C247.752 125.497 248.72 124.561 249.878 123.919C251.029 123.292 252.322 122.971 253.633 122.988L256.837 123.006C273.925 123.091 291.013 123.281 308.101 123.577C325.188 123.826 342.276 123.986 359.364 123.901C360.443 123.907 361.475 123.872 362.593 123.895C363.756 123.941 364.886 124.296 365.866 124.924C366.85 125.555 367.65 126.434 368.187 127.473C368.454 127.993 368.655 128.545 368.782 129.115C368.889 129.679 368.942 130.251 368.941 130.825L369.152 143.641L369.552 169.272C369.639 177.816 369.665 186.36 369.63 194.904L369.577 207.72L369.525 214.128L369.497 217.332L369.483 218.934L369.476 219.735C369.474 219.997 369.451 220.352 369.427 220.654C369.281 221.913 368.804 223.11 368.045 224.124C367.285 225.139 366.271 225.934 365.105 226.43C364.527 226.671 363.919 226.835 363.298 226.916C362.989 226.959 362.678 226.982 362.367 226.983C362.066 226.989 361.824 226.978 361.549 226.976L358.345 226.927L345.529 226.73C341.257 226.68 336.985 226.563 332.713 226.462C328.441 226.363 324.169 226.261 319.898 226.114C319.86 226.112 319.824 226.096 319.798 226.069C319.772 226.042 319.757 226.006 319.757 225.968C319.757 225.931 319.772 225.895 319.798 225.867C319.824 225.84 319.86 225.825 319.898 225.823V225.823Z" fill="#020202"/>
<path d="M318.36 173.159C318.389 176.312 317.327 179.379 315.354 181.838C314.293 183.092 312.96 184.087 311.456 184.747C309.952 185.407 308.317 185.715 306.675 185.647C303.446 185.436 300.423 183.984 298.239 181.595C296.04 179.311 294.716 176.324 294.5 173.159C294.389 171.528 294.621 169.891 295.183 168.356C295.745 166.82 296.623 165.42 297.761 164.245C298.912 163.045 300.287 162.081 301.809 161.411C303.34 160.74 304.996 160.401 306.668 160.415C308.339 160.429 309.989 160.795 311.509 161.491C313.005 162.176 314.326 163.193 315.371 164.465C317.349 166.926 318.406 170.001 318.36 173.159ZM318.141 173.159C318.129 171.66 317.77 170.183 317.092 168.845C316.421 167.547 315.487 166.403 314.35 165.485C312.183 163.718 309.472 162.753 306.675 162.754C303.908 162.765 301.246 163.818 299.22 165.704C297.172 167.673 295.919 170.327 295.701 173.159C295.605 174.616 295.818 176.077 296.327 177.446C296.851 178.826 297.676 180.072 298.742 181.093C299.811 182.061 301.065 182.802 302.429 183.271C303.793 183.74 305.237 183.927 306.675 183.821C309.491 183.68 312.187 182.638 314.366 180.85C315.504 179.929 316.438 178.782 317.109 177.481C317.785 176.141 318.139 174.661 318.141 173.159Z" fill="#020202"/>
<path d="M359.567 217.123C356.216 217.509 352.865 217.704 349.515 217.832C346.166 217.972 342.816 217.998 339.467 218.003C336.117 217.972 332.768 217.916 329.42 217.747C326.071 217.591 322.723 217.366 319.375 216.949C322.726 216.56 326.076 216.364 329.426 216.237C332.776 216.098 336.126 216.071 339.475 216.069C342.824 216.102 346.173 216.158 349.522 216.327C352.871 216.484 356.219 216.708 359.567 217.123Z" fill="#020202"/>
<path d="M295.335 216.842C292.073 217.229 288.812 217.425 285.551 217.553C282.289 217.694 279.029 217.722 275.768 217.727C272.508 217.696 269.247 217.642 265.987 217.474C262.727 217.318 259.468 217.094 256.208 216.678C259.471 216.288 262.732 216.092 265.993 215.964C269.255 215.823 272.515 215.796 275.776 215.793C279.037 215.826 282.297 215.881 285.557 216.049C288.817 216.205 292.077 216.428 295.335 216.842Z" fill="#020202"/>
<path d="M335.676 364.242C336.915 358.685 338.412 353.201 340.013 347.749C341.604 342.294 343.355 336.888 345.191 331.509C347.071 326.145 349.021 320.801 351.246 315.556C352.347 312.93 353.519 310.33 354.798 307.776C355.461 306.51 356.119 305.242 356.875 304.023C357.56 302.758 358.472 301.63 359.566 300.697C359.079 301.208 358.669 301.787 358.349 302.416C358.008 303.032 357.697 303.663 357.412 304.31C356.827 305.592 356.293 306.901 355.781 308.217C354.745 310.846 353.799 313.514 352.841 316.176L350.039 324.193L347.263 332.225C345.391 337.574 343.556 342.938 341.634 348.277C339.729 353.621 337.782 358.953 335.676 364.242Z" fill="#020202"/>
<path d="M353.715 374.481C353.067 369.76 352.634 365.03 352.277 360.297C351.907 355.565 351.665 350.828 351.448 346.089C351.272 341.349 351.123 336.607 351.102 331.861C351.068 327.114 351.11 322.365 351.371 317.607C352.023 322.327 352.457 327.057 352.812 331.79C353.182 336.522 353.424 341.26 353.638 345.999C353.812 350.739 353.961 355.481 353.981 360.227C354.015 364.973 353.973 369.723 353.715 374.481Z" fill="#020202"/>
<path d="M446.035 116.897C446.461 116.882 446.865 116.702 447.162 116.396C447.459 116.089 447.624 115.679 447.624 115.252C447.624 114.825 447.459 114.415 447.162 114.108C446.865 113.801 446.461 113.621 446.035 113.607C445.608 113.621 445.204 113.801 444.907 114.108C444.611 114.415 444.445 114.825 444.445 115.252C444.445 115.679 444.611 116.089 444.907 116.396C445.204 116.702 445.608 116.882 446.035 116.897Z" fill="#020202"/>
<path d="M455.806 116.897C456.233 116.882 456.637 116.702 456.934 116.396C457.23 116.089 457.396 115.679 457.396 115.252C457.396 114.825 457.23 114.415 456.934 114.108C456.637 113.801 456.233 113.621 455.806 113.607C455.38 113.621 454.975 113.801 454.679 114.108C454.382 114.415 454.216 114.825 454.216 115.252C454.216 115.679 454.382 116.089 454.679 116.396C454.975 116.702 455.38 116.882 455.806 116.897Z" fill="#020202"/>
<path d="M458.668 111.501C458.163 111.582 457.653 111.636 457.142 111.664C456.678 111.702 456.246 111.703 455.811 111.712C455.377 111.718 454.944 111.703 454.481 111.679C453.965 111.662 453.45 111.602 452.944 111.501C453.25 111.025 453.691 110.65 454.21 110.424C454.71 110.192 455.254 110.07 455.806 110.068C456.357 110.066 456.902 110.183 457.404 110.412C457.931 110.63 458.374 111.012 458.668 111.501Z" fill="#020202"/>
<path d="M447.318 111.501C446.89 111.629 446.453 111.719 446.01 111.769C445.641 111.819 445.269 111.844 444.896 111.844C444.527 111.843 444.158 111.819 443.792 111.77C443.347 111.723 442.908 111.633 442.481 111.501C442.718 111.065 443.09 110.718 443.542 110.511C443.963 110.298 444.43 110.191 444.902 110.199C445.372 110.196 445.835 110.304 446.255 110.514C446.708 110.718 447.082 111.064 447.318 111.501Z" fill="#020202"/>
<path d="M454.227 118.805C454.227 119.067 454.173 119.326 454.068 119.566C453.963 119.806 453.81 120.022 453.618 120.2C453.236 120.572 452.758 120.83 452.236 120.944C451.736 121.049 451.219 121.046 450.72 120.933C450.233 120.821 449.778 120.6 449.39 120.286C449.847 120.187 450.31 120.117 450.775 120.079C451.203 120.002 451.616 119.982 451.996 119.874C452.818 119.713 453.586 119.345 454.227 118.805Z" fill="#020202"/>
<path d="M447.963 125.47C448.066 125.229 448.217 125.011 448.407 124.831C448.597 124.651 448.822 124.513 449.069 124.424C449.566 124.23 450.107 124.18 450.632 124.28C451.133 124.378 451.608 124.584 452.022 124.883C452.427 125.176 452.759 125.557 452.993 125.999C452.534 125.911 452.082 125.794 451.638 125.647C451.215 125.551 450.827 125.408 450.435 125.358C449.615 125.185 448.764 125.223 447.963 125.47Z" fill="#020202"/>
<path d="M450.478 110.768C450.905 110.753 451.309 110.573 451.606 110.266C451.902 109.959 452.068 109.549 452.068 109.123C452.068 108.696 451.902 108.286 451.606 107.979C451.309 107.672 450.905 107.492 450.478 107.478C450.052 107.492 449.648 107.672 449.351 107.979C449.054 108.286 448.889 108.696 448.889 109.123C448.889 109.549 449.054 109.959 449.351 110.266C449.648 110.573 450.052 110.753 450.478 110.768Z" fill="#B21919"/>
<path d="M423.812 300.268V379.936C423.812 379.936 440.393 386.501 450.575 379.936V300.268" fill="#020202"/>
<path d="M475.091 380.34C475.052 380.747 474.93 381.143 474.733 381.502C474.535 381.861 474.267 382.176 473.943 382.428C473.317 382.955 472.629 383.404 471.893 383.763C470.423 384.483 468.891 385.067 467.315 385.507C464.169 386.407 460.966 387.095 457.728 387.566C451.249 388.543 444.712 389.083 438.161 389.183C431.593 389.332 425.022 389.022 418.497 388.255C415.21 387.857 411.955 387.226 408.758 386.365C407.123 385.921 405.534 385.328 404.008 384.593C403.198 384.203 402.44 383.715 401.75 383.138C401.293 382.829 400.918 382.412 400.659 381.924C400.4 381.436 400.264 380.892 400.264 380.339C400.264 379.787 400.399 379.243 400.658 378.755C400.917 378.267 401.292 377.849 401.749 377.54C402.439 376.963 403.197 376.474 404.007 376.085C405.533 375.35 407.123 374.756 408.757 374.312C411.954 373.449 415.209 372.816 418.496 372.42C425.021 371.651 431.592 371.341 438.161 371.492C444.712 371.592 451.249 372.133 457.728 373.112C460.966 373.583 464.169 374.271 467.315 375.172C468.891 375.612 470.423 376.196 471.893 376.916C472.629 377.275 473.317 377.724 473.944 378.252C474.267 378.503 474.536 378.818 474.733 379.177C474.93 379.536 475.052 379.932 475.091 380.34ZM475.091 380.34C475.049 379.933 474.925 379.539 474.726 379.183C474.526 378.826 474.256 378.514 473.931 378.265C473.303 377.744 472.613 377.302 471.876 376.949C470.404 376.241 468.871 375.67 467.294 375.243C464.141 374.394 460.932 373.772 457.69 373.381C451.21 372.621 444.684 372.314 438.161 372.464C431.656 372.565 425.164 373.102 418.731 374.073C415.538 374.538 412.38 375.216 409.278 376.102C407.76 376.525 406.284 377.087 404.868 377.78C404.206 378.102 403.585 378.504 403.021 378.977C402.772 379.108 402.565 379.304 402.42 379.544C402.275 379.784 402.198 380.059 402.198 380.34C402.198 380.62 402.274 380.896 402.419 381.136C402.564 381.376 402.771 381.572 403.019 381.703C403.584 382.176 404.205 382.579 404.867 382.901C406.283 383.594 407.759 384.156 409.277 384.579C412.379 385.468 415.537 386.146 418.73 386.61C425.163 387.584 431.655 388.121 438.161 388.22C444.684 388.369 451.21 388.062 457.69 387.3C460.932 386.909 464.142 386.286 467.295 385.437C468.871 385.009 470.404 384.438 471.876 383.731C472.613 383.378 473.303 382.936 473.931 382.414C474.256 382.165 474.526 381.853 474.726 381.497C474.925 381.14 475.05 380.746 475.091 380.34Z" fill="#020202"/>
<path d="M485.358 140.456L472.07 137.698V143.785C472.073 151.641 470.761 159.443 468.189 166.866L465.114 175.734L475.413 194.551C475.413 194.551 496.893 196.2 498.839 196.035C498.839 196.035 502.739 142.895 485.358 140.456ZM473.125 182.893C472.989 181.364 472.883 179.835 472.873 178.296C472.83 176.757 472.937 175.217 473.193 173.699C473.289 175.228 473.483 176.738 473.628 178.257L474.093 182.796C474.364 185.835 474.635 188.873 474.673 191.951C473.917 188.978 473.4 185.948 473.125 182.893ZM477.915 191.806C477.539 191.793 477.182 191.635 476.92 191.364C476.657 191.093 476.511 190.731 476.511 190.354C476.511 189.977 476.657 189.615 476.92 189.344C477.182 189.073 477.539 188.915 477.915 188.903C478.292 188.915 478.649 189.073 478.912 189.344C479.174 189.615 479.32 189.977 479.32 190.354C479.32 190.731 479.174 191.093 478.912 191.364C478.649 191.635 478.292 191.794 477.915 191.806V191.806ZM483.945 192.609C483.569 192.596 483.212 192.437 482.951 192.166C482.69 191.895 482.544 191.534 482.544 191.157C482.544 190.781 482.69 190.42 482.951 190.149C483.212 189.878 483.569 189.719 483.945 189.706C484.321 189.719 484.677 189.878 484.938 190.149C485.2 190.419 485.346 190.781 485.346 191.157C485.346 191.534 485.2 191.895 484.938 192.166C484.677 192.437 484.321 192.596 483.945 192.609V192.609ZM489.596 192.919C489.22 192.906 488.863 192.748 488.601 192.477C488.338 192.206 488.192 191.844 488.192 191.467C488.192 191.09 488.338 190.728 488.601 190.457C488.863 190.186 489.22 190.028 489.596 190.015C489.973 190.028 490.33 190.186 490.592 190.457C490.854 190.728 491.001 191.09 491.001 191.467C491.001 191.844 490.854 192.206 490.592 192.477C490.33 192.748 489.973 192.906 489.596 192.919V192.919ZM495.267 193.403C494.891 193.39 494.534 193.232 494.272 192.961C494.01 192.69 493.863 192.328 493.863 191.951C493.863 191.574 494.01 191.212 494.272 190.941C494.534 190.67 494.891 190.512 495.267 190.499C495.644 190.512 496.001 190.67 496.263 190.941C496.526 191.212 496.672 191.574 496.672 191.951C496.672 192.328 496.526 192.69 496.263 192.961C496.001 193.232 495.644 193.39 495.267 193.403Z" fill="#020202"/>
<path d="M463.382 134.354C464.894 134.735 466.375 135.227 467.814 135.828C469.245 136.411 470.64 136.999 472.073 137.702C470.484 137.688 468.913 137.356 467.454 136.726C465.98 136.154 464.606 135.354 463.382 134.354Z" fill="#020202"/>
<path d="M436.051 159.75C437.161 157.768 438.428 155.878 439.84 154.099C441.218 152.293 442.741 150.602 444.393 149.042C443.285 151.025 442.018 152.915 440.603 154.693C439.224 156.498 437.701 158.189 436.051 159.75Z" fill="#020202"/>
<path d="M300.214 344.643C300.591 344.63 300.947 344.471 301.209 344.2C301.471 343.929 301.617 343.567 301.617 343.191C301.617 342.814 301.471 342.453 301.209 342.182C300.947 341.911 300.591 341.752 300.214 341.739C299.838 341.752 299.482 341.911 299.22 342.182C298.958 342.453 298.812 342.814 298.812 343.191C298.812 343.567 298.958 343.929 299.22 344.2C299.482 344.471 299.838 344.63 300.214 344.643Z" fill="#020202"/>
<path d="M304.918 349.695C305.294 349.682 305.651 349.523 305.912 349.252C306.174 348.981 306.32 348.619 306.32 348.243C306.32 347.866 306.174 347.505 305.912 347.234C305.651 346.963 305.294 346.804 304.918 346.791C304.541 346.804 304.185 346.963 303.923 347.234C303.662 347.505 303.515 347.866 303.515 348.243C303.515 348.619 303.662 348.981 303.923 349.252C304.185 349.523 304.541 349.682 304.918 349.695Z" fill="#020202"/>
<path d="M310.318 354.746C310.694 354.733 311.051 354.575 311.312 354.304C311.574 354.033 311.72 353.671 311.72 353.295C311.72 352.918 311.574 352.556 311.312 352.285C311.051 352.015 310.694 351.856 310.318 351.843C309.942 351.856 309.585 352.015 309.323 352.285C309.062 352.556 308.916 352.918 308.916 353.295C308.916 353.671 309.062 354.033 309.323 354.304C309.585 354.575 309.942 354.733 310.318 354.746Z" fill="#020202"/>
<path d="M316.241 359.624C316.617 359.611 316.973 359.452 317.235 359.181C317.497 358.91 317.643 358.549 317.643 358.172C317.643 357.796 317.497 357.434 317.235 357.163C316.973 356.892 316.617 356.733 316.241 356.72C315.864 356.733 315.508 356.892 315.246 357.163C314.985 357.434 314.838 357.796 314.838 358.172C314.838 358.549 314.985 358.91 315.246 359.181C315.508 359.452 315.864 359.611 316.241 359.624Z" fill="#020202"/>
<path d="M323.034 363.979C323.411 363.966 323.767 363.807 324.029 363.536C324.291 363.265 324.437 362.904 324.437 362.527C324.437 362.151 324.291 361.789 324.029 361.518C323.767 361.247 323.411 361.088 323.034 361.075C322.658 361.088 322.302 361.247 322.04 361.518C321.778 361.789 321.632 362.151 321.632 362.527C321.632 362.904 321.778 363.265 322.04 363.536C322.302 363.807 322.658 363.966 323.034 363.979Z" fill="#020202"/>
<path d="M330.525 365.198C330.901 365.185 331.258 365.027 331.52 364.756C331.781 364.485 331.927 364.123 331.927 363.747C331.927 363.37 331.781 363.008 331.52 362.737C331.258 362.467 330.901 362.308 330.525 362.295C330.149 362.308 329.792 362.467 329.53 362.737C329.269 363.008 329.123 363.37 329.123 363.747C329.123 364.123 329.269 364.485 329.53 364.756C329.792 365.027 330.149 365.185 330.525 365.198Z" fill="#020202"/>
<path d="M338.19 361.888C338.566 361.875 338.923 361.717 339.184 361.446C339.446 361.175 339.592 360.813 339.592 360.437C339.592 360.06 339.446 359.698 339.184 359.428C338.923 359.157 338.566 358.998 338.19 358.985C337.813 358.998 337.457 359.157 337.195 359.428C336.934 359.698 336.787 360.06 336.787 360.437C336.787 360.813 336.934 361.175 337.195 361.446C337.457 361.717 337.813 361.875 338.19 361.888Z" fill="#020202"/>
<path d="M344.809 363.456C345.185 363.443 345.542 363.284 345.804 363.014C346.065 362.743 346.212 362.381 346.212 362.004C346.212 361.628 346.065 361.266 345.804 360.995C345.542 360.724 345.185 360.566 344.809 360.553C344.433 360.566 344.076 360.724 343.815 360.995C343.553 361.266 343.407 361.628 343.407 362.004C343.407 362.381 343.553 362.743 343.815 363.014C344.076 363.284 344.433 363.443 344.809 363.456Z" fill="#020202"/>
<path d="M350.732 366.766C351.108 366.753 351.465 366.594 351.727 366.324C351.988 366.053 352.134 365.691 352.134 365.314C352.134 364.938 351.988 364.576 351.727 364.305C351.465 364.034 351.108 363.876 350.732 363.863C350.356 363.876 349.999 364.034 349.737 364.305C349.476 364.576 349.33 364.938 349.33 365.314C349.33 365.691 349.476 366.053 349.737 366.324C349.999 366.594 350.356 366.753 350.732 366.766Z" fill="#020202"/>
<path d="M356.306 372.863C356.683 372.85 357.039 372.691 357.301 372.421C357.563 372.15 357.709 371.788 357.709 371.411C357.709 371.035 357.563 370.673 357.301 370.402C357.039 370.131 356.683 369.973 356.306 369.96C355.93 369.973 355.574 370.131 355.312 370.402C355.05 370.673 354.904 371.035 354.904 371.411C354.904 371.788 355.05 372.15 355.312 372.421C355.574 372.691 355.93 372.85 356.306 372.863Z" fill="#020202"/>
<path d="M363.449 371.818C363.825 371.805 364.181 371.646 364.443 371.375C364.705 371.105 364.851 370.743 364.851 370.366C364.851 369.99 364.705 369.628 364.443 369.357C364.181 369.086 363.825 368.928 363.449 368.915C363.072 368.928 362.716 369.086 362.454 369.357C362.192 369.628 362.046 369.99 362.046 370.366C362.046 370.743 362.192 371.105 362.454 371.375C362.716 371.646 363.072 371.805 363.449 371.818Z" fill="#020202"/>
<path d="M370.591 369.902C370.967 369.889 371.324 369.73 371.585 369.459C371.847 369.188 371.993 368.827 371.993 368.45C371.993 368.073 371.847 367.712 371.585 367.441C371.324 367.17 370.967 367.011 370.591 366.998C370.214 367.011 369.858 367.17 369.596 367.441C369.334 367.712 369.188 368.073 369.188 368.45C369.188 368.827 369.334 369.188 369.596 369.459C369.858 369.73 370.214 369.889 370.591 369.902Z" fill="#020202"/>
<path d="M376.339 367.289C376.716 367.276 377.072 367.117 377.334 366.846C377.595 366.575 377.742 366.213 377.742 365.837C377.742 365.46 377.595 365.099 377.334 364.828C377.072 364.557 376.716 364.398 376.339 364.385C375.963 364.398 375.606 364.557 375.345 364.828C375.083 365.099 374.937 365.46 374.937 365.837C374.937 366.213 375.083 366.575 375.345 366.846C375.606 367.117 375.963 367.276 376.339 367.289Z" fill="#020202"/>
<path d="M382.611 362.934C382.987 362.921 383.343 362.762 383.605 362.491C383.867 362.22 384.013 361.858 384.013 361.482C384.013 361.105 383.867 360.744 383.605 360.473C383.343 360.202 382.987 360.043 382.611 360.03C382.234 360.043 381.878 360.202 381.616 360.473C381.354 360.744 381.208 361.105 381.208 361.482C381.208 361.858 381.354 362.22 381.616 362.491C381.878 362.762 382.234 362.921 382.611 362.934Z" fill="#020202"/>
<path d="M388.011 357.707C388.387 357.694 388.743 357.536 389.005 357.265C389.267 356.994 389.413 356.632 389.413 356.256C389.413 355.879 389.267 355.517 389.005 355.247C388.743 354.976 388.387 354.817 388.011 354.804C387.634 354.817 387.278 354.976 387.016 355.247C386.754 355.517 386.608 355.879 386.608 356.256C386.608 356.632 386.754 356.994 387.016 357.265C387.278 357.536 387.634 357.694 388.011 357.707Z" fill="#020202"/>
<path d="M392.366 352.482C392.742 352.469 393.098 352.31 393.36 352.039C393.622 351.768 393.768 351.407 393.768 351.03C393.768 350.653 393.622 350.292 393.36 350.021C393.098 349.75 392.742 349.591 392.366 349.578C391.989 349.591 391.633 349.75 391.371 350.021C391.109 350.292 390.963 350.653 390.963 351.03C390.963 351.407 391.109 351.768 391.371 352.039C391.633 352.31 391.989 352.469 392.366 352.482Z" fill="#020202"/>
<path d="M495.703 195.859C495.142 198.539 494.446 201.19 493.619 203.802C492.809 206.435 491.793 209 490.582 211.474C489.376 213.989 487.867 216.346 486.088 218.493C484.276 220.715 481.97 222.482 479.354 223.655C476.655 224.83 473.65 225.108 470.781 224.449C467.925 223.77 465.336 222.259 463.339 220.107L462.59 219.312L461.948 218.488C461.525 217.936 461.08 217.397 460.693 216.822L459.499 215.118L458.383 213.367C456.936 211.016 455.623 208.586 454.449 206.088C452.096 201.12 450.137 195.975 448.592 190.7C447.032 185.447 445.808 180.1 444.929 174.691C444.064 169.28 443.56 163.819 443.421 158.341C443.334 155.591 443.416 152.838 443.668 150.098C443.824 148.725 443.984 147.35 444.275 145.984C444.53 144.569 444.956 143.189 445.544 141.876L445.484 142.007C445.819 141.068 446.232 140.159 446.72 139.29C447.202 138.421 447.759 137.596 448.384 136.825C449.017 136.04 449.734 135.326 450.522 134.695C451.328 134.056 452.213 133.524 453.155 133.111L452.922 133.25C453.712 132.551 454.444 131.789 455.11 130.97C455.764 130.18 456.314 129.309 456.746 128.378C456.941 127.949 457.079 127.497 457.157 127.033C457.2 126.448 457.274 125.866 457.378 125.289L457.552 124.753C457.638 124.555 457.742 124.365 457.862 124.184C458.02 123.954 458.223 123.759 458.459 123.611C458.695 123.463 458.959 123.364 459.235 123.323C459.756 123.26 460.282 123.384 460.72 123.672C460.927 123.803 461.113 123.964 461.272 124.151C461.527 124.437 461.674 124.802 461.689 125.184L459.614 125.126C459.642 124.713 459.723 124.304 459.855 123.911C459.997 123.46 460.236 123.045 460.555 122.695C460.96 122.271 461.512 122.016 462.098 121.983C462.583 121.964 463.066 122.056 463.51 122.25L462.041 123.035C462.1 122.73 462.185 122.432 462.295 122.143C462.422 121.792 462.61 121.467 462.85 121.182C463.041 120.961 463.282 120.789 463.553 120.682C463.883 120.553 464.246 120.537 464.586 120.636C465.017 120.774 465.4 121.03 465.692 121.375L464.274 121.195C464.633 120.956 465.031 120.784 465.451 120.686C465.73 120.623 466.019 120.615 466.301 120.661C466.664 120.721 467 120.891 467.264 121.147C467.64 121.547 467.866 122.064 467.905 122.612C467.924 122.808 467.932 123.005 467.93 123.203L467.912 123.661C467.85 124.866 467.725 126.065 467.535 127.256C467.246 129.767 466.366 132.173 464.967 134.278C464.522 134.866 464.172 135.21 463.777 135.671L462.622 136.978L460.312 139.591L455.663 144.791L455.93 143.837C457.485 153.171 460.129 162.292 463.807 171.011C465.652 175.365 467.773 179.628 469.964 183.852L473.278 190.181L476.69 196.529C476.701 196.549 476.704 196.573 476.697 196.596C476.691 196.619 476.677 196.638 476.657 196.65C476.637 196.662 476.613 196.666 476.59 196.661C476.567 196.656 476.547 196.642 476.534 196.623L476.47 196.529C475.205 194.637 473.925 192.529 472.693 190.515C471.456 188.475 470.216 186.435 469.034 184.361C466.662 180.217 464.345 176.034 462.295 171.684C460.287 167.316 458.563 162.823 457.133 158.233C456.416 155.939 455.766 153.624 455.182 151.291C454.621 148.953 454.12 146.601 453.681 144.237C453.65 144.071 453.656 143.9 453.7 143.737C453.745 143.574 453.825 143.423 453.936 143.296L453.948 143.282L458.558 138.029L460.878 135.416L462.037 134.109C462.401 133.688 462.869 133.2 463.118 132.851C464.272 131.044 465.014 129.006 465.292 126.88C465.484 125.774 465.617 124.659 465.69 123.539L465.713 123.126C465.722 123.013 465.703 122.941 465.706 122.845C465.697 122.692 465.625 122.588 465.724 122.718C465.78 122.769 465.848 122.805 465.921 122.821C465.974 122.821 465.944 122.822 465.905 122.825C465.757 122.863 465.616 122.922 465.486 123L465.452 123.021C465.235 123.158 464.976 123.213 464.722 123.176C464.468 123.139 464.236 123.012 464.067 122.819C463.99 122.731 463.858 122.65 464.005 122.72C464.114 122.741 464.225 122.733 464.329 122.697C464.374 122.679 464.416 122.654 464.452 122.621C464.385 122.713 464.331 122.813 464.292 122.92C464.228 123.084 464.176 123.253 464.138 123.424C464.104 123.576 464.039 123.719 463.946 123.843C463.853 123.968 463.735 124.071 463.599 124.146C463.463 124.222 463.313 124.267 463.158 124.28C463.003 124.293 462.847 124.273 462.701 124.221L462.668 124.209C462.529 124.144 462.378 124.107 462.224 124.098C462.141 124.105 462.146 124.094 462.071 124.155C461.963 124.282 461.882 124.43 461.833 124.589C461.76 124.801 461.711 125.02 461.688 125.243L459.612 125.185C459.622 125.489 459.708 125.481 459.679 125.476C459.657 125.45 459.632 125.428 459.604 125.41C459.529 125.357 459.467 125.359 459.507 125.358C459.55 125.36 459.583 125.297 459.522 125.373C459.497 125.407 459.467 125.477 459.432 125.533L459.344 125.791C459.238 126.212 459.244 126.609 459.136 127.356C459.022 127.989 458.827 128.605 458.554 129.188C458.03 130.271 457.364 131.279 456.573 132.186C455.811 133.078 454.976 133.903 454.076 134.655C454.015 134.706 453.947 134.748 453.874 134.78L453.842 134.794C453.041 135.124 452.285 135.555 451.592 136.075C450.887 136.611 450.243 137.223 449.67 137.898C449.089 138.586 448.561 139.317 448.091 140.086C447.623 140.851 447.218 141.654 446.881 142.486C446.864 142.53 446.842 142.576 446.821 142.617C446.265 143.784 445.843 145.011 445.563 146.274C445.251 147.58 445.005 148.901 444.828 150.232C444.492 152.92 444.321 155.626 444.317 158.334C444.33 163.775 444.754 169.208 445.585 174.586C446.469 179.955 447.805 185.24 449.578 190.385C451.319 195.524 453.456 200.521 455.969 205.33C457.216 207.73 458.564 210.067 460.013 212.341L461.116 214.03L462.278 215.673C462.655 216.229 463.084 216.741 463.493 217.27L464.112 218.059L464.768 218.751C466.487 220.65 468.731 221.994 471.216 222.614C473.705 223.21 476.319 223.012 478.689 222.047C481.09 221.011 483.232 219.458 484.965 217.499C486.749 215.504 488.282 213.297 489.53 210.929C490.8 208.539 491.922 206.073 492.89 203.546C493.864 201.01 494.699 198.417 495.49 195.805C495.495 195.791 495.501 195.778 495.51 195.767C495.519 195.756 495.531 195.747 495.543 195.74C495.556 195.733 495.57 195.728 495.584 195.727C495.598 195.725 495.613 195.727 495.627 195.731C495.653 195.739 495.675 195.756 495.689 195.78C495.704 195.804 495.708 195.832 495.703 195.859Z" fill="#020202"/>
<path d="M304.123 352.728C302.878 357.763 300.564 362.472 297.338 366.534C295.677 368.595 293.658 370.338 291.378 371.681C290.221 372.382 289.138 372.878 288.032 373.538L284.744 375.445C280.38 378.039 275.983 380.62 271.634 383.28C267.265 385.909 262.998 388.707 258.825 391.634L258.952 391.44C258.741 392.87 258.941 394.331 259.529 395.652C260.137 396.934 261.175 397.963 262.462 398.559C262.777 398.722 263.104 398.857 263.441 398.964L264.476 399.242C265.185 399.368 265.901 399.454 266.62 399.501C267.35 399.483 268.074 399.52 268.803 399.46L270.989 399.228L270.75 399.301C275.091 397.012 279.469 394.8 283.883 392.667C288.299 390.523 292.724 388.408 297.32 386.582C298.465 386.122 299.64 385.701 300.831 385.299L301.762 385.033C302.088 384.925 302.423 384.849 302.764 384.804L303.325 384.73L303.602 384.697L303.802 384.689C304.074 384.691 304.345 384.674 304.614 384.638C306.921 384.304 309.134 383.5 311.116 382.276C313.148 381.061 314.958 379.509 316.468 377.685C317.964 375.816 319.115 373.695 319.867 371.422L319.879 371.388L319.888 371.365C320.331 370.517 320.757 369.651 321.157 368.779C321.577 367.921 321.919 367.026 322.179 366.107L322.18 366.099C322.186 366.075 322.201 366.054 322.221 366.04C322.242 366.027 322.267 366.021 322.291 366.026C322.316 366.03 322.337 366.044 322.352 366.063C322.367 366.083 322.373 366.108 322.37 366.133C322.216 367.099 321.96 368.047 321.607 368.96C321.28 369.877 320.93 370.779 320.555 371.68L320.577 371.624C319.362 376.59 316.278 380.895 311.968 383.644C310.902 384.344 309.772 384.944 308.593 385.433C307.398 385.949 306.144 386.315 304.86 386.521C304.523 386.578 304.184 386.612 303.843 386.623L303.584 386.636L303.408 386.671L303.061 386.733C302.795 386.773 302.534 386.839 302.281 386.931L301.45 387.185C300.329 387.587 299.204 388.011 298.085 388.485C295.846 389.41 293.604 390.375 291.381 391.38C289.151 392.373 286.919 393.366 284.7 394.393L271.411 400.617L271.353 400.644C271.296 400.67 271.234 400.686 271.171 400.689L268.857 400.814C268.085 400.833 267.302 400.751 266.529 400.722C265.751 400.627 264.979 400.488 264.217 400.305L263.089 399.934C262.716 399.794 262.356 399.623 262.011 399.423C260.583 398.669 259.464 397.441 258.844 395.95C258.252 394.483 258.08 392.88 258.348 391.321C258.354 391.283 258.368 391.246 258.388 391.214C258.409 391.181 258.436 391.153 258.468 391.132L258.475 391.127C262.711 388.278 266.911 385.378 271.077 382.428C275.27 379.514 279.454 376.574 283.861 373.958C286.019 372.616 288.382 371.432 290.572 370.24C292.724 369.037 294.655 367.477 296.283 365.625C297.95 363.75 299.415 361.705 300.655 359.524C301.935 357.335 303.033 355.044 303.937 352.675L303.939 352.669C303.948 352.646 303.965 352.627 303.988 352.616C304.01 352.605 304.035 352.604 304.059 352.611C304.082 352.619 304.102 352.635 304.114 352.657C304.126 352.679 304.129 352.704 304.123 352.728L304.123 352.728Z" fill="#020202"/>
<path d="M258.65 391.38C258.65 391.38 251.252 402.932 266.866 407.829C266.866 407.829 276.058 410.265 290.848 395.441C290.848 395.441 297.604 388.991 299.42 389.228L297.213 395.216L305.152 397.951L314.786 393.506L319.589 373.393C318.143 376.602 315.925 379.402 313.132 381.543C310.34 383.685 307.061 385.102 303.588 385.667C291.339 387.911 281.784 395.371 271.08 399.959C271.08 399.959 257.26 402.385 258.65 391.38Z" fill="#020202"/>
<path d="M268.485 384.744C268.485 384.744 277.802 385.423 279.365 395.885L288.252 391.675C288.252 391.675 286.613 378.849 275.254 380.323C275.254 380.323 271.461 379.672 268.485 384.744Z" fill="#020202"/>
<path d="M364.834 364.825C366.221 369.822 366.521 375.059 365.715 380.182C365.279 382.792 364.377 385.302 363.052 387.592C362.357 388.751 361.689 389.735 361.046 390.851L359.126 394.132C356.6 398.536 354.04 402.945 351.559 407.399C349.053 411.841 346.693 416.365 344.528 420.98L344.544 420.736C345.06 422.086 345.943 423.264 347.094 424.137C348.251 424.965 349.665 425.355 351.084 425.236C352.515 425.104 353.905 424.682 355.168 423.995C356.46 423.31 357.688 422.51 358.838 421.605L358.664 421.786C362.212 416.268 365.898 410.853 369.677 405.485C371.58 402.81 373.521 400.162 375.596 397.588C376.637 396.268 377.756 395.01 378.946 393.822C379.298 393.478 379.687 393.174 380.106 392.916C380.421 392.742 380.723 392.548 381.011 392.333C381.615 391.868 382.177 391.351 382.689 390.786C384.787 388.423 386.311 385.607 387.139 382.557C388.009 379.466 388.194 376.222 387.682 373.052C386.67 366.565 385.87 360.074 385.074 353.571C385.07 353.546 385.077 353.521 385.093 353.5C385.108 353.48 385.131 353.467 385.157 353.464C385.182 353.46 385.207 353.467 385.228 353.482C385.248 353.497 385.262 353.52 385.265 353.545C386.281 360.01 387.226 366.499 388.401 372.922C389.171 376.199 389.199 379.606 388.481 382.894C387.741 386.23 386.217 389.342 384.035 391.973C383.472 392.643 382.85 393.262 382.177 393.822C381.82 394.112 381.442 394.375 381.047 394.609C380.779 394.796 380.528 395.007 380.299 395.239C379.195 396.387 378.159 397.598 377.195 398.866C375.19 401.414 373.254 404.044 371.314 406.668C367.434 411.921 363.671 417.276 359.89 422.609L359.869 422.639C359.827 422.698 359.775 422.749 359.716 422.791C358.454 423.693 357.106 424.469 355.692 425.107C354.256 425.775 352.702 426.151 351.119 426.214C349.499 426.265 347.913 425.741 346.642 424.736C345.406 423.744 344.467 422.43 343.927 420.94C343.913 420.9 343.907 420.858 343.91 420.816C343.913 420.774 343.924 420.733 343.943 420.696C346.262 416.147 348.48 411.555 350.658 406.934C352.877 402.334 355.075 397.716 357.627 393.271C358.85 391.044 360.318 388.846 361.681 386.759C362.951 384.643 363.856 382.328 364.356 379.912C364.9 377.461 365.17 374.958 365.16 372.448C365.198 369.912 365.026 367.377 364.646 364.87L364.645 364.864C364.641 364.84 364.647 364.815 364.661 364.794C364.675 364.774 364.697 364.76 364.721 364.755C364.745 364.75 364.77 364.754 364.791 364.767C364.812 364.78 364.828 364.801 364.834 364.825L364.834 364.825Z" fill="#020202"/>
<path d="M344.236 420.838C344.236 420.838 343.472 434.534 359.476 431.123C359.476 431.123 368.678 428.726 374.271 408.546C374.271 408.546 376.983 399.608 378.681 398.921L379.703 405.221L387.962 403.7L394.166 395.093L388.461 375.218C388.779 378.722 388.224 382.251 386.845 385.489C385.466 388.727 383.307 391.572 380.56 393.772C370.997 401.748 366.343 412.941 359.277 422.197C359.277 422.197 348.435 431.104 344.236 420.838Z" fill="#020202"/>
<path d="M349.538 410.224C349.538 410.224 357.985 406.235 364.489 414.578L370.159 406.543C370.159 406.543 362.427 396.179 353.259 403.046C353.259 403.046 349.636 404.344 349.538 410.224Z" fill="#020202"/>
<path d="M322.922 243.957C322.948 243.986 322.972 244.016 322.993 244.048L322.999 244.055L323.007 244.065L324.158 245.372C324.187 245.405 324.207 245.446 324.214 245.491C324.221 245.535 324.216 245.58 324.199 245.621C324.182 245.663 324.153 245.698 324.117 245.724C324.08 245.75 324.037 245.765 323.992 245.768L323.972 245.769C318.514 246.092 313.056 246.289 307.598 246.393L303.505 246.464C302.767 246.497 302.027 246.459 301.297 246.35C300.146 246.155 299.051 245.709 298.092 245.043C297.132 244.378 296.331 243.509 295.745 242.499C294.978 241.164 294.609 239.637 294.683 238.099C294.763 232.64 294.968 227.179 295.02 221.72C295.044 216.261 294.928 210.804 294.672 205.349C294.615 204.635 294.628 203.918 294.71 203.207C294.805 202.47 295.007 201.752 295.31 201.074C295.917 199.689 296.91 198.509 298.172 197.675C299.451 196.829 300.945 196.368 302.479 196.345L306.572 196.269L310.666 196.216C313.021 196.189 315.295 197.076 317.009 198.692C318.723 200.308 319.742 202.526 319.853 204.879C320.492 215.776 320.89 226.687 321.045 237.612L321.045 237.649L321.044 237.673C321.012 238.202 321.042 238.733 321.131 239.256C321.22 239.802 321.349 240.341 321.516 240.869C321.871 241.938 322.339 242.966 322.911 243.936C322.918 243.948 322.923 243.962 322.926 243.976C322.928 243.991 322.927 244.005 322.924 244.019C322.921 244.033 322.915 244.046 322.906 244.058C322.898 244.07 322.887 244.08 322.874 244.087C322.851 244.101 322.824 244.106 322.797 244.101C322.77 244.096 322.746 244.081 322.73 244.06C322.377 243.602 322.049 243.127 321.746 242.635C321.446 242.136 321.178 241.618 320.944 241.084C320.71 240.544 320.516 239.987 320.363 239.418C320.198 238.828 320.105 238.219 320.086 237.606L320.086 237.667C318.983 226.797 318.128 215.912 317.52 205.013C317.466 203.835 317.127 202.689 316.532 201.671C315.929 200.656 315.074 199.814 314.051 199.224C313.021 198.631 311.855 198.31 310.665 198.293L306.572 198.24L302.478 198.164C301.255 198.121 300.043 198.424 298.984 199.039C297.925 199.654 297.062 200.556 296.493 201.64C296.197 202.19 295.988 202.782 295.871 203.396C295.76 204.036 295.712 204.686 295.728 205.336C295.6 210.796 295.617 216.254 295.778 221.71C295.965 227.166 296.304 232.621 296.519 238.076C296.505 239.282 296.819 240.47 297.429 241.51C298.039 242.525 298.918 243.351 299.969 243.895C300.492 244.168 301.053 244.362 301.633 244.47C302.251 244.571 302.878 244.611 303.504 244.59L307.598 244.661C313.056 244.765 318.514 244.962 323.972 245.285L323.786 245.682L322.807 244.202L322.822 244.219C322.784 244.16 322.749 244.099 322.718 244.039C322.707 244.016 322.704 243.99 322.71 243.965C322.716 243.941 322.731 243.919 322.752 243.905C322.773 243.89 322.798 243.884 322.824 243.887C322.849 243.89 322.872 243.902 322.889 243.921L322.922 243.957Z" fill="#020202"/>
<path d="M349.501 270.307C349.942 271.011 350.28 271.774 350.504 272.573C350.726 273.333 350.879 274.111 350.962 274.898C351.048 275.684 351.063 276.477 351.006 277.266C350.956 278.095 350.785 278.913 350.499 279.693C350.056 278.99 349.717 278.227 349.493 277.427C349.272 276.667 349.119 275.889 349.038 275.102C348.954 274.316 348.94 273.523 348.996 272.734C349.047 271.905 349.217 271.088 349.501 270.307Z" fill="white"/>
</svg>
