<svg width="700" height="550" viewBox="0 0 700 550" fill="none" xmlns="http://www.w3.org/2000/svg">
<path d="M251.722 169.225C251.337 170.19 250.873 171.121 250.335 172.009C249.786 172.9 249.15 173.734 248.437 174.499C247.716 175.266 246.915 175.955 246.047 176.553C245.171 177.175 244.208 177.666 243.189 178.008L243.146 178.017C242.381 178.079 241.62 178.215 240.847 178.211C240.069 178.219 239.292 178.147 238.529 177.996C237.755 177.854 237 177.628 236.276 177.322C235.561 176.987 234.883 176.577 234.255 176.099C233.012 175.132 231.968 173.932 231.182 172.568C230.398 171.207 229.825 169.734 229.484 168.2L230.484 168.688C229.742 169.021 228.927 169.158 228.117 169.088C227.382 169.053 226.652 168.947 225.937 168.773C225.847 168.752 225.763 168.713 225.688 168.66C225.614 168.606 225.551 168.538 225.503 168.46C225.454 168.382 225.422 168.295 225.407 168.205C225.392 168.114 225.396 168.021 225.417 167.932L225.439 167.856L225.448 167.833L227.081 163.304L227.074 163.799C226.274 161.177 226.001 158.421 226.271 155.693C226.388 154.352 226.578 153.019 226.84 151.699C227.101 150.375 227.444 149.068 227.865 147.786C227.901 147.678 227.961 147.58 228.041 147.498C228.12 147.417 228.218 147.355 228.325 147.317C228.433 147.279 228.547 147.266 228.661 147.279C228.774 147.292 228.882 147.331 228.978 147.392L228.99 147.4C230.372 148.302 231.842 149.15 233.314 149.944C234.791 150.736 236.312 151.443 237.869 152.061C239.407 152.692 241.008 153.155 242.646 153.443C244.238 153.78 245.891 153.694 247.44 153.194L247.262 153.336C248.009 152.279 249.039 151.455 250.235 150.96C250.568 150.838 250.926 150.799 251.278 150.846C251.629 150.892 251.965 151.022 252.255 151.225C252.531 151.424 252.775 151.664 252.977 151.937C253.138 152.216 253.32 152.487 253.459 152.776C253.956 153.946 254.126 155.23 253.95 156.489C253.907 157.146 253.696 157.781 253.337 158.334C253.119 158.637 252.796 158.849 252.431 158.928C252.083 158.979 251.728 158.944 251.397 158.828L251.754 158.543C252.136 161.167 253.276 163.623 255.034 165.61C255.9 166.6 256.928 167.438 258.072 168.088C259.213 168.742 260.441 169.233 261.719 169.546H261.536C262.673 169.254 263.835 169.069 265.006 168.995C266.228 168.867 267.463 169.045 268.599 169.514C269.232 169.808 269.731 170.328 269.999 170.972C270.226 171.601 270.278 172.28 270.148 172.937C270.017 173.949 270.262 174.974 270.836 175.818C271.402 176.681 272.206 177.361 273.15 177.777C273.579 177.986 274.049 178.096 274.525 178.099C275.002 178.103 275.473 177.999 275.904 177.795C276.743 177.285 277.364 176.484 277.651 175.544C277.99 174.525 278.185 173.463 278.228 172.389L278.319 172.803C277.105 170.503 276.175 168.064 275.55 165.54C274.869 162.991 274.656 160.338 274.924 157.713C275.205 154.979 276.377 152.413 278.258 150.409C279.215 149.466 280.134 148.656 281.114 147.807C281.601 147.39 282.094 146.977 282.611 146.574C282.867 146.372 283.132 146.174 283.416 145.977C283.562 145.878 283.696 145.781 283.873 145.682C283.964 145.631 284.026 145.587 284.14 145.533C284.263 145.478 284.387 145.427 284.513 145.381L284.228 147.05C282.094 145.744 279.686 144.955 277.193 144.744C274.672 144.514 272.132 144.856 269.762 145.744L267.83 146.405C267.154 146.602 266.468 146.76 265.774 146.879C264.361 147.087 262.923 147.062 261.519 146.805C258.687 146.243 256.193 144.583 254.582 142.189C253.126 140.129 251.033 138.605 248.627 137.85C246.147 137.259 243.537 137.571 241.266 138.73C240.106 139.332 238.98 139.999 237.895 140.729C236.783 141.449 235.679 142.181 234.59 142.935C233.506 143.694 232.426 144.462 231.396 145.289C230.881 145.703 230.374 146.126 229.889 146.572C229.396 146.979 228.981 147.472 228.665 148.028L228.639 148.086C228.631 148.105 228.615 148.12 228.596 148.128C228.577 148.136 228.555 148.136 228.536 148.129C228.517 148.121 228.501 148.107 228.492 148.088C228.483 148.069 228.482 148.047 228.489 148.028C228.762 147.393 229.167 146.824 229.678 146.359C230.141 145.873 230.63 145.417 231.131 144.975C232.13 144.087 233.177 143.26 234.229 142.441C236.326 140.769 238.536 139.244 240.843 137.875C243.309 136.513 246.179 136.076 248.938 136.643C251.675 137.391 254.079 139.043 255.756 141.331C256.463 142.344 257.363 143.207 258.405 143.871C259.446 144.535 260.609 144.987 261.825 145.2C263.042 145.392 264.283 145.384 265.498 145.178C266.104 145.039 266.717 144.919 267.311 144.719L269.142 144.071C271.766 143.042 274.592 142.637 277.399 142.888C280.206 143.139 282.915 144.04 285.314 145.518C285.43 145.591 285.526 145.691 285.594 145.809C285.663 145.927 285.702 146.06 285.709 146.197C285.716 146.333 285.69 146.469 285.633 146.593C285.577 146.718 285.491 146.827 285.384 146.911L285.029 147.187C285.01 147.202 284.988 147.213 284.965 147.22C284.936 147.231 284.867 147.277 284.82 147.303C284.719 147.356 284.597 147.445 284.48 147.523C284.245 147.685 284.002 147.865 283.763 148.054C283.282 148.427 282.804 148.826 282.331 149.23C281.4 150.035 280.403 150.883 279.554 151.704C277.93 153.409 276.908 155.599 276.646 157.94C276.376 160.355 276.545 162.799 277.146 165.153C277.716 167.548 278.557 169.871 279.651 172.076L279.671 172.116C279.728 172.232 279.753 172.361 279.742 172.49C279.665 173.708 279.415 174.908 278.999 176.056C278.568 177.316 277.683 178.372 276.517 179.017C275.906 179.3 275.238 179.44 274.565 179.428C273.891 179.415 273.229 179.25 272.629 178.944C271.479 178.395 270.513 177.524 269.85 176.436C269.162 175.339 268.9 174.028 269.116 172.751C269.271 172.304 269.261 171.815 269.088 171.374C268.914 170.933 268.589 170.569 268.17 170.348C267.185 169.924 266.111 169.747 265.042 169.832C263.924 169.871 262.811 170.015 261.719 170.261L261.691 170.267C261.639 170.278 261.586 170.276 261.536 170.261C260.208 169.887 258.933 169.343 257.744 168.643C256.55 167.947 255.481 167.056 254.582 166.007C253.674 164.971 252.928 163.804 252.369 162.545C251.806 161.287 251.416 159.959 251.211 158.596C251.204 158.551 251.209 158.506 251.225 158.464C251.241 158.422 251.267 158.385 251.301 158.355C251.335 158.326 251.376 158.306 251.42 158.298C251.464 158.289 251.51 158.291 251.553 158.305L251.569 158.31C251.791 158.417 252.043 158.444 252.282 158.386C252.521 158.327 252.732 158.188 252.88 157.991C253.167 157.517 253.33 156.979 253.357 156.425C253.503 155.277 253.335 154.111 252.871 153.051C252.412 151.995 251.476 151.208 250.455 151.625C249.429 152.108 248.557 152.866 247.936 153.816C247.89 153.878 247.828 153.927 247.757 153.958C246.078 154.579 244.265 154.747 242.501 154.444C240.777 154.206 239.085 153.782 237.454 153.178C235.829 152.598 234.239 151.926 232.692 151.164C231.139 150.41 229.627 149.573 228.164 148.655L229.288 148.269C228.919 149.497 228.614 150.742 228.374 152.001C228.129 153.263 227.952 154.537 227.845 155.818C227.752 157.088 227.741 158.364 227.811 159.636C227.906 160.886 228.136 162.124 228.495 163.326L228.502 163.351C228.549 163.505 228.544 163.671 228.487 163.822L226.792 168.328L226.303 167.388C226.919 167.546 227.549 167.645 228.184 167.685C228.745 167.746 229.313 167.673 229.84 167.472C230.006 167.389 230.199 167.376 230.375 167.435C230.551 167.494 230.697 167.621 230.78 167.787C230.807 167.842 230.827 167.9 230.839 167.96C231.136 169.346 231.636 170.681 232.323 171.921C232.988 173.171 233.888 174.28 234.975 175.187C235.519 175.631 236.108 176.016 236.734 176.336C237.375 176.632 238.046 176.857 238.736 177.007C239.431 177.169 240.141 177.259 240.855 177.275C241.571 177.303 242.294 177.196 243.016 177.166L242.974 177.174C243.919 176.889 244.823 176.479 245.66 175.955C246.518 175.428 247.318 174.81 248.046 174.112C248.776 173.407 249.434 172.631 250.011 171.796C250.598 170.959 251.116 170.076 251.56 169.155C251.569 169.134 251.587 169.117 251.609 169.108C251.631 169.1 251.655 169.101 251.676 169.11C251.697 169.12 251.713 169.138 251.721 169.159C251.73 169.18 251.73 169.203 251.722 169.225Z" fill="black"/>
<path d="M252.974 163.145C253.225 163.654 253.304 164.231 253.199 164.788C253.152 165.062 253.064 165.327 252.94 165.575C252.872 165.708 252.788 165.833 252.69 165.947C252.635 166.008 252.574 166.063 252.507 166.112C252.473 166.143 252.43 166.163 252.384 166.171C252.338 166.178 252.291 166.171 252.249 166.151C252.349 166.049 252.284 165.915 252.288 165.788C252.284 165.662 252.27 165.53 252.274 165.405C252.271 165.149 252.29 164.893 252.331 164.641C252.412 164.095 252.634 163.579 252.974 163.145Z" fill="black"/>
<path d="M227.057 159.91C227.311 159.706 227.628 159.599 227.953 159.608C228.081 159.619 228.207 159.648 228.327 159.697C228.455 159.742 228.571 159.824 228.788 159.91C228.767 160.013 228.722 160.109 228.657 160.19C228.591 160.272 228.507 160.336 228.411 160.379C228.254 160.459 228.079 160.496 227.903 160.487C227.723 160.478 227.549 160.419 227.4 160.317C227.251 160.215 227.132 160.074 227.057 159.91Z" fill="black"/>
<path d="M231.853 158.754C232.61 158.181 233.428 157.693 234.292 157.299L235.529 156.714C235.954 156.531 236.352 156.293 236.714 156.006C236.612 156.516 236.327 156.97 235.913 157.284C235.536 157.603 235.121 157.874 234.677 158.09C233.8 158.528 232.833 158.756 231.853 158.754Z" fill="black"/>
<path d="M234.495 161.555C234.837 161.543 235.162 161.399 235.4 161.152C235.638 160.906 235.772 160.576 235.772 160.234C235.772 159.891 235.638 159.562 235.4 159.315C235.162 159.069 234.837 158.924 234.495 158.913C234.152 158.924 233.828 159.069 233.59 159.315C233.351 159.562 233.218 159.891 233.218 160.234C233.218 160.576 233.351 160.906 233.59 161.152C233.828 161.399 234.152 161.543 234.495 161.555Z" fill="black"/>
<path d="M234.838 172.836C234.622 172.251 234.541 171.625 234.601 171.004C234.65 170.372 234.82 169.755 235.1 169.187C235.383 168.609 235.796 168.105 236.306 167.714C236.8 167.322 237.386 167.066 238.009 166.971C237.572 167.356 237.161 167.77 236.78 168.211C236.426 168.628 236.125 169.089 235.887 169.582C235.402 170.618 235.05 171.711 234.838 172.836Z" fill="black"/>
<path d="M220.017 123.035C221.073 124.041 222.01 125.163 222.812 126.381C223.646 127.578 224.339 128.866 224.878 130.221C223.821 129.216 222.883 128.093 222.083 126.874C221.251 125.677 220.558 124.389 220.017 123.035Z" fill="black"/>
<path d="M234.818 118.596C235.128 119.912 235.276 121.26 235.258 122.612C235.278 123.964 235.13 125.313 234.818 126.628C234.506 125.313 234.358 123.964 234.378 122.612C234.36 121.26 234.508 119.912 234.818 118.596Z" fill="black"/>
<path d="M246.225 127.896C246.383 126.511 246.704 125.149 247.184 123.84C247.627 122.518 248.228 121.254 248.973 120.076C248.817 121.461 248.495 122.823 248.014 124.132C247.569 125.453 246.969 126.717 246.225 127.896Z" fill="black"/>
<path d="M248.863 173.638C250.378 173.697 251.875 173.976 253.308 174.468C254.081 174.712 254.786 175.131 255.369 175.693C255.536 175.857 255.666 176.054 255.753 176.271C255.801 176.388 255.836 176.51 255.856 176.634L255.885 176.888C255.89 176.924 255.907 176.903 255.841 176.857C255.821 176.838 255.795 176.828 255.768 176.828C255.773 176.819 255.762 176.827 255.778 176.823C255.901 176.779 256.018 176.719 256.124 176.642C256.697 176.223 257.224 175.744 257.696 175.213C258.206 174.689 258.675 174.122 259.152 173.561C259.62 172.992 260.076 172.411 260.506 171.811C260.963 171.227 261.34 170.586 261.628 169.903C261.277 171.38 260.62 172.767 259.701 173.974C258.86 175.267 257.816 176.416 256.61 177.376C256.41 177.514 256.188 177.615 255.953 177.675C255.864 177.69 255.775 177.695 255.685 177.691C255.567 177.676 255.453 177.635 255.352 177.571C255.189 177.447 255.079 177.266 255.044 177.064L255.019 176.857L255.011 176.762C255.002 176.703 254.987 176.644 254.965 176.588C254.914 176.457 254.837 176.338 254.74 176.237C254.258 175.748 253.682 175.362 253.048 175.101C251.689 174.515 250.291 174.027 248.863 173.638Z" fill="black"/>
<path d="M240.728 177.751C242.79 179.778 244.661 181.989 246.32 184.356C247.161 185.537 247.93 186.766 248.625 188.038C249.387 189.29 249.866 190.692 250.03 192.148C249.833 191.462 249.54 190.807 249.159 190.202C248.821 189.581 248.417 188.989 248.035 188.39C247.252 187.2 246.424 186.032 245.601 184.864C243.958 182.519 242.276 180.199 240.728 177.751Z" fill="black"/>
<path d="M277.156 154.009C276.43 155.364 275.945 156.834 275.724 158.355C275.83 157.049 276.134 155.766 276.624 154.551L277.156 154.009Z" fill="black"/>
<path d="M308.367 163.145C308.367 163.145 310.689 158.964 317.028 156.003C317.028 156.003 320.416 130.647 312.799 126.631C312.799 126.631 307.68 127.686 284.773 146.286L282.982 148.106C285.624 150.003 301.041 161.084 321.674 175.532C315.702 169.939 310.206 164.8 308.367 163.145ZM314.948 153.661C314.571 153.648 314.214 153.49 313.952 153.219C313.69 152.948 313.543 152.586 313.543 152.209C313.543 151.832 313.69 151.47 313.952 151.199C314.214 150.928 314.571 150.77 314.948 150.757C315.324 150.77 315.681 150.928 315.944 151.199C316.206 151.47 316.352 151.832 316.352 152.209C316.352 152.586 316.206 152.948 315.944 153.219C315.681 153.49 315.324 153.648 314.948 153.661ZM314.832 145.648C314.455 145.635 314.098 145.477 313.836 145.206C313.574 144.935 313.427 144.573 313.427 144.196C313.427 143.819 313.574 143.457 313.836 143.186C314.098 142.915 314.455 142.757 314.832 142.744C315.208 142.757 315.565 142.915 315.827 143.186C316.089 143.457 316.236 143.819 316.236 144.196C316.236 144.573 316.089 144.935 315.827 145.206C315.565 145.477 315.208 145.635 314.832 145.648ZM314.019 138.447C313.642 138.435 313.285 138.277 313.023 138.006C312.761 137.735 312.614 137.373 312.614 136.996C312.614 136.619 312.761 136.257 313.023 135.986C313.285 135.715 313.642 135.556 314.019 135.544C314.395 135.556 314.752 135.715 315.014 135.986C315.277 136.257 315.423 136.619 315.423 136.996C315.423 137.373 315.277 137.735 315.014 138.006C314.752 138.277 314.395 138.435 314.019 138.447ZM312.161 128.692C312.537 128.706 312.893 128.864 313.154 129.135C313.415 129.406 313.561 129.768 313.561 130.144C313.561 130.52 313.415 130.882 313.154 131.153C312.893 131.423 312.537 131.582 312.161 131.596C311.784 131.582 311.428 131.423 311.167 131.153C310.906 130.882 310.76 130.52 310.76 130.144C310.76 129.768 310.906 129.406 311.167 129.135C311.428 128.864 311.784 128.706 312.16 128.692H312.161Z" fill="black"/>
<path d="M275.647 159.913C275.627 166.29 278.985 172.436 278.985 172.436C278.269 183.217 268.679 178.068 269.637 172.832C270.508 168.032 263.036 169.571 261.798 169.861C261.198 171.594 258.081 175.397 256.804 176.684C255.43 178.058 255.449 176.829 255.449 176.829C255.449 176.829 254.123 179.839 252.614 184.02C253.901 183.011 255.355 182.235 256.91 181.726C258.467 181.188 260.094 180.879 261.74 180.807C264.206 180.71 266.666 181.118 268.969 182.007C269.724 182.317 270.45 182.694 271.166 183.062C269.638 182.588 268.079 182.219 266.501 181.958C263.373 181.454 260.174 181.599 257.104 182.384C255.553 182.769 254.048 183.317 252.614 184.02C250.984 188.376 249.727 192.864 248.859 197.433C248.859 197.433 247.494 206.095 247.281 229.35L274.543 231.673L276.237 218.143C276.355 213.91 277.065 209.715 278.347 205.679C278.311 207.795 278.103 209.905 277.727 211.988C277.392 214.076 276.894 216.134 276.237 218.143C276.237 218.143 285.111 220.466 287.86 220.05C288.859 219.696 289.907 219.497 290.966 219.46C291.489 219.431 292.002 219.421 292.524 219.44C293.037 219.44 293.55 219.508 294.102 219.518C293.662 219.856 293.148 220.085 292.602 220.185C292.084 220.311 291.556 220.388 291.024 220.418C290.293 220.461 289.56 220.422 288.837 220.302C291.315 221.782 293.783 229.35 293.783 229.35C293.783 229.35 310.273 219.663 323.745 210.024C298.273 185.123 276.982 163.59 275.647 159.913ZM250.494 227.869C250.117 227.857 249.76 227.699 249.498 227.428C249.236 227.157 249.09 226.795 249.09 226.418C249.09 226.041 249.236 225.679 249.498 225.408C249.76 225.137 250.117 224.979 250.494 224.966C250.871 224.979 251.228 225.137 251.49 225.408C251.752 225.679 251.899 226.041 251.899 226.418C251.899 226.795 251.752 227.157 251.49 227.428C251.228 227.699 250.871 227.857 250.494 227.869ZM257.114 228.102C256.737 228.089 256.38 227.931 256.118 227.66C255.856 227.389 255.709 227.027 255.709 226.65C255.709 226.273 255.856 225.911 256.118 225.64C256.38 225.369 256.737 225.211 257.114 225.199C257.49 225.211 257.847 225.369 258.11 225.64C258.372 225.911 258.518 226.273 258.518 226.65C258.518 227.027 258.372 227.389 258.11 227.66C257.847 227.931 257.49 228.089 257.114 228.102ZM264.546 228.799C264.17 228.786 263.812 228.628 263.55 228.357C263.288 228.086 263.142 227.724 263.142 227.347C263.142 226.97 263.288 226.608 263.55 226.337C263.812 226.066 264.17 225.908 264.546 225.895C264.923 225.908 265.28 226.066 265.542 226.337C265.804 226.608 265.951 226.97 265.951 227.347C265.951 227.724 265.804 228.086 265.542 228.357C265.28 228.628 264.923 228.786 264.546 228.799ZM270.933 229.263C270.557 229.251 270.2 229.092 269.938 228.821C269.676 228.55 269.529 228.188 269.529 227.811C269.529 227.435 269.676 227.072 269.938 226.802C270.2 226.531 270.557 226.372 270.933 226.36C271.31 226.372 271.667 226.531 271.929 226.802C272.191 227.072 272.338 227.435 272.338 227.811C272.338 228.188 272.191 228.55 271.929 228.821C271.667 229.092 271.31 229.251 270.933 229.263ZM278.695 194.704C278.604 195.197 278.488 195.685 278.347 196.165C278.298 195.662 278.289 195.169 278.269 194.685C278.201 194.201 278.182 193.717 278.124 193.243C278.008 192.299 277.801 191.369 277.505 190.465C276.917 188.642 275.819 187.027 274.34 185.81C275.307 186.144 276.163 186.737 276.817 187.523C277.494 188.302 278.01 189.206 278.337 190.184C278.657 191.155 278.817 192.172 278.811 193.194C278.811 193.707 278.743 194.21 278.695 194.704V194.704ZM295.437 225.663C295.061 225.651 294.704 225.492 294.442 225.221C294.179 224.95 294.033 224.588 294.033 224.211C294.033 223.834 294.179 223.472 294.442 223.201C294.704 222.931 295.061 222.772 295.437 222.76C295.814 222.772 296.171 222.931 296.433 223.202C296.695 223.472 296.841 223.834 296.841 224.211C296.841 224.588 296.695 224.95 296.433 225.221C296.171 225.492 295.814 225.65 295.437 225.663V225.663ZM302.173 221.25C301.796 221.238 301.439 221.079 301.177 220.808C300.915 220.537 300.768 220.175 300.768 219.798C300.768 219.421 300.915 219.059 301.177 218.788C301.439 218.518 301.796 218.359 302.173 218.347C302.55 218.359 302.907 218.518 303.169 218.788C303.431 219.059 303.577 219.421 303.577 219.798C303.577 220.175 303.431 220.537 303.169 220.808C302.907 221.079 302.55 221.237 302.173 221.25L302.173 221.25ZM310.651 216.14C310.274 216.128 309.917 215.969 309.655 215.698C309.393 215.428 309.246 215.065 309.246 214.688C309.246 214.312 309.393 213.949 309.655 213.679C309.917 213.408 310.274 213.249 310.651 213.237C311.027 213.249 311.384 213.408 311.646 213.679C311.908 213.95 312.055 214.312 312.055 214.688C312.055 215.065 311.908 215.427 311.646 215.698C311.384 215.969 311.027 216.128 310.651 216.14V216.14ZM319.245 210.566C318.868 210.553 318.511 210.395 318.249 210.124C317.987 209.853 317.84 209.491 317.84 209.114C317.84 208.737 317.987 208.375 318.249 208.104C318.511 207.833 318.868 207.675 319.245 207.662C319.621 207.675 319.978 207.833 320.24 208.104C320.502 208.375 320.649 208.737 320.649 209.114C320.649 209.491 320.502 209.853 320.24 210.124C319.978 210.395 319.621 210.553 319.245 210.566V210.566Z" fill="black"/>
<path d="M314.308 127.821C316.506 126.284 318.995 125.215 321.623 124.68C324.333 124.17 327.135 124.493 329.658 125.607C332.107 126.832 334.253 128.589 335.937 130.749C337.68 132.793 339.202 134.967 340.711 137.135C343.706 141.488 346.422 146.026 349.022 150.62C351.599 155.228 354.118 159.862 356.58 164.523L356.562 164.494L360.087 169.392C361.252 171.032 362.468 172.636 363.66 174.257L363.166 174.108C363.391 174.039 363.63 174.027 363.861 174.073C364.091 174.119 364.307 174.222 364.489 174.372C364.791 174.615 365.038 174.919 365.214 175.264C365.525 175.882 365.744 176.543 365.864 177.224C366.105 178.527 366.226 179.849 366.226 181.173C366.286 182.548 366.087 183.921 365.638 185.221C365.572 185.402 365.487 185.575 365.385 185.738C365.286 185.924 365.162 186.094 365.016 186.245C364.854 186.435 364.656 186.591 364.433 186.704C364.211 186.817 363.968 186.884 363.719 186.902C363.243 186.921 362.773 186.79 362.376 186.528C362.055 186.31 361.759 186.057 361.495 185.774L362.764 185.479C362.599 186.062 362.34 186.614 361.998 187.114C361.818 187.424 361.574 187.694 361.282 187.905C360.991 188.116 360.659 188.263 360.307 188.338C359.955 188.412 359.592 188.412 359.24 188.338C358.888 188.264 358.556 188.116 358.264 187.906C358.009 187.732 357.764 187.548 357.535 187.358L356.92 186.753L358.161 186.731C357.833 187.109 357.448 187.432 357.019 187.689C356.56 187.973 356.039 188.142 355.501 188.183C354.926 188.22 354.355 188.078 353.865 187.775C353.429 187.508 353.044 187.165 352.728 186.763L353.623 187.069C351.363 187.656 349.058 188.053 346.732 188.253C345.491 188.378 344.238 188.297 343.023 188.014C342.67 187.918 342.329 187.779 342.009 187.6C341.685 187.392 341.396 187.134 341.151 186.837C340.717 186.324 340.371 185.743 340.127 185.117C339.363 182.79 339.283 180.292 339.896 177.921C340.022 176.929 339.903 175.921 339.549 174.985C339.194 174.05 338.616 173.216 337.865 172.556C334.406 169.633 330.879 166.721 327.44 163.742C323.976 160.784 320.538 157.793 317.127 154.77C317.11 154.755 317.099 154.734 317.098 154.712C317.096 154.689 317.103 154.667 317.117 154.649C317.131 154.631 317.152 154.62 317.174 154.617C317.197 154.614 317.22 154.62 317.238 154.634C320.902 157.345 324.534 160.097 328.133 162.889C331.762 165.654 335.309 168.479 338.913 171.306C339.911 172.117 340.689 173.165 341.177 174.355C341.653 175.554 341.828 176.852 341.688 178.135L341.436 179.825C341.378 180.354 341.349 180.886 341.349 181.418C341.334 182.438 341.512 183.451 341.872 184.405C342.038 184.844 342.277 185.251 342.578 185.611C342.695 185.755 342.829 185.883 342.979 185.991C343.159 186.085 343.348 186.159 343.544 186.211C344.554 186.426 345.59 186.491 346.619 186.402C348.836 186.249 351.035 185.911 353.196 185.392C353.356 185.355 353.524 185.363 353.68 185.415C353.836 185.467 353.975 185.561 354.082 185.687L354.091 185.698C354.271 185.936 354.49 186.142 354.738 186.307C354.934 186.445 355.171 186.513 355.41 186.499C355.682 186.48 355.944 186.396 356.176 186.255C356.444 186.099 356.688 185.905 356.901 185.678C357.052 185.511 357.263 185.411 357.488 185.399C357.714 185.388 357.934 185.466 358.101 185.618C358.114 185.629 358.13 185.645 358.141 185.656L358.621 186.146C358.786 186.285 358.954 186.415 359.119 186.538C359.371 186.722 359.681 186.81 359.993 186.785C360.308 186.696 360.578 186.494 360.752 186.217C361.003 185.87 361.199 185.486 361.333 185.08L361.353 185.019C361.393 184.896 361.466 184.786 361.564 184.7C361.662 184.615 361.78 184.557 361.908 184.533C362.036 184.509 362.167 184.52 362.29 184.564C362.412 184.608 362.52 184.684 362.602 184.785C362.951 185.207 363.412 185.513 363.636 185.481C363.835 185.532 364.172 185.179 364.389 184.68C364.802 183.549 365.018 182.355 365.028 181.15C365.089 179.9 365.037 178.647 364.871 177.406C364.799 176.813 364.639 176.234 364.395 175.688C364.18 175.173 363.715 174.819 363.467 174.892L363.426 174.905C363.343 174.929 363.255 174.926 363.173 174.897C363.092 174.868 363.022 174.814 362.973 174.743C361.84 173.08 360.731 171.401 359.571 169.757L356.122 164.805L356.104 164.776C353.616 160.137 350.965 155.587 348.115 151.164C345.289 146.727 342.326 142.387 339.401 138.025C337.932 135.851 336.479 133.666 334.838 131.669C333.296 129.64 331.352 127.95 329.129 126.705C326.846 125.569 324.273 125.149 321.747 125.5C319.163 125.849 316.669 126.688 314.4 127.971C314.38 127.982 314.356 127.985 314.335 127.979C314.313 127.973 314.294 127.959 314.283 127.939C314.271 127.92 314.267 127.897 314.272 127.875C314.276 127.853 314.289 127.834 314.308 127.821L314.308 127.821Z" fill="black"/>
<path d="M326.541 145.967C324.867 147.642 323.109 149.171 321.411 150.756C320.563 151.546 319.711 152.336 318.925 153.175C318.081 153.958 317.431 154.927 317.029 156.006C317.009 155.398 317.151 154.796 317.442 154.262C317.711 153.723 318.031 153.21 318.399 152.733C319.126 151.79 319.933 150.913 320.812 150.111C322.544 148.499 324.468 147.107 326.541 145.967Z" fill="black"/>
<path d="M288.828 220.292C288.499 220.239 288.175 220.158 287.86 220.05C288.201 220.01 288.545 220.096 288.828 220.292Z" fill="white"/>
<path d="M248.952 229.482C249.073 232.678 249.138 235.873 249.226 239.069L249.226 239.087C249.228 239.157 249.207 239.226 249.167 239.283C249.127 239.34 249.069 239.382 249.002 239.404C247.299 239.882 245.532 240.091 243.765 240.025C242.028 240.037 240.305 239.898 238.586 239.738C235.159 239.36 231.756 238.795 228.391 238.045C225.038 237.276 221.703 236.432 218.4 235.484C216.755 234.992 215.096 234.537 213.46 234.016L208.564 232.414C208.389 232.357 208.24 232.238 208.146 232.079L208.142 232.073C205.676 227.911 203.268 223.714 200.872 219.511L200.952 219.617C200.368 219.039 199.707 218.546 198.986 218.153C198.257 217.749 197.471 217.456 196.656 217.285C195.841 217.104 195.001 217.06 194.172 217.156C193.333 217.248 192.511 217.452 191.726 217.762L191.798 217.723C191.562 217.937 191.38 218.204 191.267 218.502C191.132 218.839 191.047 219.194 191.016 219.555C190.948 220.315 191.005 221.08 191.185 221.821C191.204 221.907 191.189 221.998 191.142 222.074C191.096 222.15 191.023 222.205 190.937 222.229L190.924 222.232C190.423 222.374 189.96 222.629 189.571 222.976C189.175 223.328 188.859 223.761 188.645 224.247C188.44 224.748 188.318 225.279 188.283 225.819C188.264 226.092 188.28 226.37 188.276 226.646L188.366 227.476L188.37 227.509C188.376 227.566 188.362 227.624 188.33 227.672C187.931 228.399 187.285 228.959 186.508 229.249C186.399 229.28 186.287 229.297 186.174 229.301C186.038 229.307 186.036 229.322 185.958 229.325C185.821 229.374 185.696 229.451 185.59 229.55C185.344 229.784 185.15 230.066 185.019 230.378C184.486 231.718 184.432 233.201 184.866 234.577C184.878 234.617 184.881 234.658 184.874 234.699C184.786 235.266 184.647 235.824 184.458 236.366C184.281 236.952 183.954 237.481 183.509 237.902C183.373 238.014 183.217 238.101 183.051 238.158C182.889 238.198 182.623 238.226 182.643 238.226C182.484 238.33 182.365 238.485 182.305 238.665C182.119 239.153 182.001 239.664 181.956 240.184C181.843 241.255 181.879 242.337 182.064 243.398C182.145 243.91 182.295 244.409 182.51 244.881C182.602 245.081 182.733 245.26 182.897 245.407C183.088 245.54 183.297 245.644 183.517 245.718C184.539 246.006 185.598 246.148 186.66 246.138C187.746 246.161 188.84 246.109 189.931 246.025C192.115 245.853 194.292 245.532 196.454 245.141C196.596 245.115 196.743 245.142 196.867 245.217L196.891 245.231C204.461 249.765 212.309 253.818 220.388 257.366C224.436 259.105 228.535 260.726 232.716 262.067C236.868 263.461 241.121 264.537 245.437 265.285L248.675 265.708C249.212 265.791 249.754 265.832 250.297 265.831L251.921 265.883L253.546 265.943C254.084 265.951 254.6 265.899 255.127 265.865C257.768 265.581 260.297 264.648 262.491 263.15C264.684 261.652 266.473 259.635 267.699 257.279C268.636 255.325 269.341 253.268 269.8 251.151C270.325 249.015 270.741 246.854 271.046 244.676C271.658 240.299 271.998 235.888 272.062 231.469C272.063 231.446 272.072 231.424 272.088 231.408C272.104 231.392 272.126 231.382 272.149 231.382C272.172 231.382 272.194 231.39 272.211 231.406C272.228 231.422 272.238 231.444 272.238 231.467C272.443 235.908 272.327 240.357 271.892 244.782C271.663 247.002 271.321 249.209 270.868 251.395C270.641 252.49 270.378 253.578 270.078 254.66C269.779 255.766 269.381 256.843 268.887 257.878C267.862 259.958 266.435 261.815 264.689 263.341C262.943 264.867 260.913 266.033 258.714 266.771C257.612 267.143 256.476 267.405 255.322 267.555C254.748 267.608 254.157 267.676 253.589 267.681L251.893 267.651L250.196 267.613C249.632 267.618 249.067 267.581 248.508 267.502L245.154 267.099C240.729 266.385 236.372 265.297 232.131 263.848C227.901 262.434 223.747 260.8 219.687 258.953C211.569 255.302 203.726 251.065 196.222 246.277L196.658 246.366C194.45 246.703 192.225 246.929 189.994 247.044C188.876 247.092 187.754 247.11 186.627 247.056C185.473 247.032 184.328 246.841 183.229 246.488C182.927 246.377 182.643 246.22 182.389 246.023C182.141 245.798 181.944 245.522 181.811 245.215C181.58 244.672 181.423 244.1 181.346 243.515C181.189 242.386 181.178 241.241 181.311 240.108C181.37 239.524 181.51 238.952 181.73 238.407C181.792 238.236 181.889 238.078 182.014 237.945C182.139 237.812 182.289 237.705 182.457 237.632L182.868 237.568C182.962 237.534 183.05 237.484 183.128 237.421C183.791 236.624 184.199 235.647 184.302 234.616L184.31 234.738C183.853 233.23 183.933 231.611 184.536 230.156C184.699 229.779 184.933 229.437 185.226 229.15C185.392 228.992 185.59 228.872 185.807 228.797C186.1 228.735 186.221 228.763 186.364 228.711C186.988 228.447 187.503 227.976 187.821 227.377L187.785 227.572L187.677 226.684C187.675 226.384 187.654 226.084 187.671 225.782C187.702 225.17 187.833 224.566 188.058 223.996C188.303 223.419 188.669 222.903 189.131 222.481C189.6 222.05 190.163 221.735 190.775 221.561L190.515 221.973C190.313 221.161 190.231 220.325 190.272 219.49C190.295 219.054 190.382 218.625 190.531 218.215C190.685 217.757 190.96 217.349 191.328 217.035C191.344 217.022 191.362 217.011 191.381 217.003L191.4 216.996C192.249 216.624 193.143 216.369 194.06 216.235C194.986 216.096 195.929 216.112 196.851 216.281C197.775 216.441 198.67 216.739 199.505 217.165C200.355 217.59 201.138 218.136 201.83 218.787C201.853 218.808 201.872 218.832 201.889 218.859L201.91 218.893C204.463 223.003 207.005 227.119 209.488 231.271L209.066 230.93C212.315 231.979 215.556 233.053 218.824 234.033C222.091 235.019 225.385 235.902 228.697 236.708C232.021 237.445 235.35 238.173 238.716 238.638C240.399 238.852 242.089 239.044 243.778 239.089C244.623 239.128 245.467 239.115 246.304 239.071C247.12 239.045 247.932 238.932 248.724 238.735L248.501 239.069C248.589 235.873 248.653 232.678 248.775 229.482C248.776 229.459 248.786 229.438 248.802 229.422C248.819 229.406 248.84 229.397 248.863 229.397C248.886 229.397 248.908 229.406 248.924 229.422C248.941 229.438 248.951 229.459 248.951 229.482L248.952 229.482Z" fill="black"/>
<path d="M190.922 221.418L196.081 222.689L190.777 222.375C190.714 222.371 190.651 222.355 190.594 222.327C190.536 222.299 190.485 222.261 190.443 222.213C190.4 222.165 190.368 222.11 190.347 222.049C190.326 221.989 190.317 221.925 190.321 221.861C190.325 221.798 190.341 221.735 190.369 221.678C190.397 221.621 190.436 221.569 190.483 221.527C190.531 221.484 190.587 221.452 190.647 221.431C190.707 221.41 190.771 221.401 190.835 221.405C190.864 221.407 190.894 221.411 190.922 221.418Z" fill="black"/>
<path d="M403.382 318.085C400.248 319.594 396.659 319.865 393.333 318.845C390.007 317.824 387.188 315.586 385.44 312.579C378.588 300.733 369.733 280.313 372.423 257L332.077 218.144C328.109 223.215 301.389 236.744 301.389 236.744C301.389 236.744 207.138 351.299 181.559 390.61C181.559 390.61 208.812 437.954 247.281 426.544C285.75 415.133 327.596 403.298 347.464 405.833C367.333 408.369 433.703 404.14 446.806 382.578C459.91 361.025 462.862 304.798 462.862 303.53V302.262C462.862 302.262 450.358 295.643 403.382 318.085ZM188.943 392.197C188.567 392.185 188.21 392.027 187.947 391.756C187.685 391.485 187.539 391.123 187.539 390.746C187.539 390.369 187.685 390.007 187.947 389.736C188.21 389.465 188.567 389.306 188.943 389.294C189.32 389.307 189.677 389.465 189.939 389.736C190.201 390.007 190.348 390.369 190.348 390.746C190.348 391.122 190.201 391.485 189.939 391.755C189.677 392.026 189.32 392.185 188.943 392.197V392.197ZM194.169 399.165C193.793 399.153 193.436 398.994 193.173 398.724C192.911 398.453 192.765 398.09 192.765 397.714C192.765 397.337 192.911 396.975 193.173 396.704C193.436 396.433 193.793 396.274 194.169 396.262C194.546 396.274 194.903 396.433 195.165 396.704C195.427 396.975 195.574 397.337 195.574 397.714C195.574 398.09 195.427 398.453 195.165 398.723C194.903 398.994 194.546 399.153 194.169 399.165V399.165ZM199.744 406.133C199.367 406.121 199.01 405.962 198.748 405.692C198.486 405.421 198.339 405.058 198.339 404.682C198.339 404.305 198.486 403.943 198.748 403.672C199.01 403.401 199.367 403.242 199.744 403.23C200.12 403.243 200.477 403.401 200.739 403.672C201 403.943 201.147 404.305 201.147 404.682C201.147 405.058 201 405.42 200.739 405.691C200.477 405.962 200.12 406.12 199.744 406.133V406.133ZM206.015 412.404C205.638 412.392 205.281 412.234 205.019 411.963C204.757 411.692 204.611 411.33 204.611 410.953C204.611 410.576 204.757 410.214 205.019 409.943C205.281 409.672 205.638 409.514 206.015 409.501C206.392 409.514 206.748 409.672 207.01 409.943C207.272 410.214 207.419 410.576 207.419 410.953C207.419 411.329 207.272 411.691 207.01 411.962C206.748 412.233 206.392 412.392 206.015 412.404L206.015 412.404ZM213.331 417.979C212.955 417.966 212.598 417.808 212.335 417.537C212.073 417.266 211.927 416.904 211.927 416.527C211.927 416.15 212.073 415.788 212.335 415.517C212.598 415.246 212.955 415.088 213.331 415.075C213.708 415.088 214.065 415.247 214.327 415.518C214.588 415.788 214.735 416.15 214.735 416.527C214.735 416.904 214.588 417.266 214.327 417.537C214.065 417.808 213.708 417.966 213.331 417.979L213.331 417.979ZM222.39 421.811C222.013 421.799 221.656 421.64 221.394 421.369C221.132 421.099 220.985 420.736 220.985 420.36C220.985 419.983 221.132 419.62 221.394 419.35C221.656 419.079 222.013 418.92 222.39 418.908C222.766 418.92 223.123 419.079 223.385 419.35C223.647 419.621 223.794 419.983 223.794 420.36C223.794 420.736 223.647 421.098 223.385 421.369C223.123 421.64 222.766 421.799 222.39 421.811L222.39 421.811ZM232.145 423.553C231.768 423.541 231.411 423.382 231.149 423.111C230.887 422.841 230.74 422.478 230.74 422.102C230.74 421.725 230.887 421.362 231.149 421.092C231.411 420.821 231.768 420.662 232.145 420.65C232.521 420.663 232.878 420.821 233.14 421.092C233.401 421.363 233.548 421.725 233.548 422.101C233.548 422.478 233.401 422.84 233.14 423.111C232.878 423.382 232.521 423.54 232.145 423.553L232.145 423.553ZM242.248 422.508C241.872 422.495 241.515 422.337 241.253 422.066C240.99 421.795 240.844 421.433 240.844 421.056C240.844 420.679 240.99 420.317 241.253 420.046C241.515 419.776 241.872 419.617 242.248 419.605C242.625 419.618 242.981 419.776 243.243 420.047C243.505 420.318 243.651 420.68 243.651 421.056C243.651 421.433 243.505 421.795 243.243 422.066C242.981 422.336 242.625 422.495 242.248 422.508L242.248 422.508ZM252.7 419.024C252.324 419.012 251.967 418.853 251.704 418.582C251.442 418.311 251.296 417.949 251.296 417.572C251.296 417.195 251.442 416.833 251.704 416.562C251.967 416.292 252.324 416.133 252.7 416.121C253.077 416.133 253.434 416.292 253.695 416.563C253.957 416.834 254.103 417.196 254.103 417.572C254.103 417.949 253.957 418.311 253.695 418.582C253.434 418.853 253.077 419.011 252.7 419.024L252.7 419.024ZM263.501 415.192C263.124 415.179 262.767 415.021 262.505 414.75C262.243 414.479 262.096 414.117 262.096 413.74C262.096 413.363 262.243 413.001 262.505 412.73C262.767 412.459 263.124 412.301 263.501 412.288C263.877 412.301 264.234 412.46 264.495 412.731C264.757 413.001 264.904 413.363 264.904 413.74C264.904 414.117 264.757 414.478 264.495 414.749C264.234 415.02 263.877 415.179 263.501 415.192L263.501 415.192ZM274.649 411.359C274.273 411.347 273.916 411.188 273.654 410.918C273.391 410.647 273.245 410.285 273.245 409.908C273.245 409.531 273.391 409.169 273.654 408.898C273.916 408.627 274.273 408.468 274.649 408.456C275.026 408.469 275.382 408.628 275.644 408.898C275.906 409.169 276.052 409.531 276.052 409.908C276.052 410.284 275.906 410.646 275.644 410.917C275.382 411.188 275.026 411.346 274.649 411.359L274.649 411.359ZM285.798 408.224C285.421 408.211 285.064 408.053 284.802 407.782C284.54 407.511 284.394 407.149 284.394 406.772C284.394 406.395 284.54 406.033 284.802 405.762C285.064 405.491 285.421 405.333 285.798 405.32C286.175 405.333 286.531 405.492 286.793 405.763C287.055 406.033 287.201 406.395 287.201 406.772C287.201 407.149 287.055 407.511 286.793 407.781C286.531 408.052 286.174 408.211 285.798 408.224L285.798 408.224ZM296.25 406.133C295.873 406.121 295.516 405.962 295.254 405.692C294.992 405.421 294.846 405.059 294.846 404.682C294.846 404.305 294.992 403.943 295.254 403.672C295.516 403.401 295.873 403.242 296.25 403.23C296.626 403.243 296.983 403.402 297.245 403.672C297.506 403.943 297.652 404.305 297.652 404.682C297.652 405.058 297.506 405.42 297.245 405.691C296.983 405.962 296.626 406.12 296.25 406.133L296.25 406.133ZM307.747 404.043C307.37 404.03 307.013 403.872 306.751 403.601C306.489 403.33 306.343 402.968 306.343 402.591C306.343 402.214 306.489 401.852 306.751 401.581C307.013 401.31 307.37 401.152 307.747 401.14C308.124 401.152 308.48 401.311 308.742 401.582C309.004 401.853 309.15 402.215 309.15 402.591C309.15 402.968 309.004 403.33 308.742 403.601C308.48 403.871 308.124 404.03 307.747 404.043L307.747 404.043ZM294.856 339.357C288.75 347.477 282.604 355.567 276.304 363.532C270.004 371.506 263.646 379.423 257.113 387.204L266.433 375.155L275.724 363.077C281.888 355.015 288.043 346.944 294.082 338.776C300.179 330.666 306.144 322.453 311.976 314.137C314.918 310.004 317.754 305.795 320.57 301.575L324.712 295.188L328.651 288.665C323.767 297.581 318.404 306.226 312.586 314.563C306.866 322.963 300.905 331.189 294.856 339.357ZM317.851 402.998C317.474 402.985 317.117 402.827 316.855 402.556C316.593 402.285 316.446 401.923 316.446 401.546C316.446 401.169 316.593 400.807 316.855 400.536C317.117 400.265 317.474 400.107 317.851 400.094C318.227 400.107 318.584 400.265 318.847 400.536C319.109 400.807 319.255 401.169 319.255 401.546C319.255 401.923 319.109 402.285 318.847 402.556C318.584 402.827 318.227 402.985 317.851 402.998ZM322.632 338.941C322.225 341.157 321.751 343.364 321.267 345.56C320.764 347.757 320.26 349.944 319.689 352.122L318.818 355.393C318.489 356.477 318.199 357.561 317.851 358.635C317.986 357.512 318.189 356.399 318.354 355.286L318.964 351.967C319.37 349.751 319.844 347.544 320.328 345.347C320.831 343.151 321.335 340.963 321.906 338.786C322.477 336.599 323.057 334.421 323.744 332.273C323.444 334.518 323.048 336.734 322.632 338.941ZM328.651 401.604C328.274 401.592 327.917 401.433 327.655 401.162C327.393 400.891 327.247 400.529 327.247 400.152C327.247 399.775 327.393 399.413 327.655 399.142C327.917 398.872 328.274 398.713 328.651 398.701C329.028 398.713 329.385 398.872 329.647 399.142C329.909 399.413 330.055 399.775 330.055 400.152C330.055 400.529 329.909 400.891 329.647 401.162C329.385 401.433 329.028 401.592 328.651 401.604H328.651ZM339.451 401.604C339.075 401.592 338.718 401.433 338.455 401.162C338.193 400.891 338.047 400.529 338.047 400.152C338.047 399.775 338.193 399.413 338.455 399.142C338.718 398.872 339.075 398.713 339.451 398.701C339.828 398.713 340.185 398.872 340.447 399.142C340.709 399.413 340.856 399.775 340.856 400.152C340.856 400.529 340.709 400.891 340.447 401.162C340.185 401.433 339.828 401.592 339.451 401.604ZM350.6 401.604C350.223 401.592 349.866 401.433 349.604 401.162C349.342 400.891 349.196 400.529 349.196 400.152C349.196 399.775 349.342 399.413 349.604 399.142C349.866 398.872 350.223 398.713 350.6 398.701C350.977 398.713 351.334 398.872 351.596 399.142C351.858 399.413 352.004 399.775 352.004 400.152C352.004 400.529 351.858 400.891 351.596 401.162C351.334 401.433 350.977 401.592 350.6 401.604ZM360.007 401.952C359.63 401.94 359.273 401.782 359.011 401.511C358.749 401.24 358.602 400.878 358.602 400.501C358.602 400.124 358.749 399.762 359.011 399.491C359.273 399.22 359.63 399.062 360.007 399.049C360.383 399.062 360.741 399.22 361.003 399.491C361.265 399.762 361.411 400.124 361.411 400.501C361.411 400.878 361.265 401.24 361.003 401.511C360.741 401.782 360.383 401.94 360.007 401.952ZM369.413 401.952C369.037 401.94 368.68 401.782 368.418 401.511C368.156 401.24 368.009 400.878 368.009 400.501C368.009 400.124 368.156 399.762 368.418 399.491C368.68 399.22 369.037 399.062 369.413 399.049C369.79 399.062 370.147 399.22 370.409 399.491C370.671 399.762 370.818 400.124 370.818 400.501C370.818 400.878 370.671 401.24 370.409 401.511C370.147 401.782 369.79 401.94 369.413 401.952ZM378.123 401.256C377.747 401.243 377.39 401.085 377.127 400.814C376.865 400.543 376.719 400.181 376.719 399.804C376.719 399.427 376.865 399.065 377.127 398.794C377.39 398.523 377.747 398.365 378.123 398.352C378.5 398.365 378.857 398.523 379.119 398.794C379.381 399.065 379.528 399.427 379.528 399.804C379.528 400.181 379.381 400.543 379.119 400.814C378.857 401.085 378.5 401.243 378.123 401.256ZM387.879 400.559C387.502 400.546 387.145 400.388 386.883 400.117C386.621 399.846 386.474 399.484 386.474 399.107C386.474 398.73 386.621 398.368 386.883 398.097C387.145 397.826 387.502 397.668 387.879 397.656C388.255 397.668 388.612 397.826 388.874 398.097C389.137 398.368 389.283 398.73 389.283 399.107C389.283 399.484 389.137 399.846 388.874 400.117C388.612 400.388 388.255 400.546 387.879 400.559ZM396.937 399.514C396.56 399.501 396.203 399.343 395.941 399.072C395.679 398.801 395.532 398.439 395.532 398.062C395.532 397.685 395.679 397.323 395.941 397.052C396.203 396.781 396.56 396.623 396.937 396.61C397.314 396.623 397.671 396.781 397.933 397.052C398.195 397.323 398.342 397.685 398.342 398.062C398.342 398.439 398.195 398.801 397.933 399.072C397.671 399.343 397.314 399.501 396.937 399.514ZM405.299 397.772C404.922 397.759 404.565 397.601 404.303 397.33C404.041 397.059 403.894 396.697 403.894 396.32C403.894 395.943 404.041 395.581 404.303 395.31C404.565 395.039 404.922 394.881 405.299 394.868C405.675 394.881 406.032 395.039 406.294 395.31C406.556 395.581 406.702 395.943 406.702 396.32C406.702 396.697 406.556 397.059 406.294 397.33C406.032 397.601 405.675 397.759 405.299 397.772V397.772ZM382.42 362.225C377.486 362.33 372.577 361.5 367.952 359.777C363.332 358.023 359.074 355.435 355.39 352.141C351.757 348.824 348.572 345.047 345.916 340.905C343.246 336.798 340.953 332.457 339.064 327.937C335.283 318.919 332.681 309.45 331.322 299.765C332.169 304.563 333.31 309.305 334.738 313.963C336.116 318.623 337.79 323.191 339.751 327.637C343.681 336.473 348.79 344.98 356.029 351.415C363.23 357.992 372.659 361.589 382.411 361.48C383.62 361.471 384.82 361.335 386.03 361.277C386.63 361.229 387.24 361.219 387.84 361.132L389.63 360.822C390.821 360.6 392.03 360.454 393.201 360.174L396.724 359.225C397.305 359.061 397.895 358.935 398.476 358.751L400.189 358.132L403.624 356.903C404.766 356.477 405.85 355.925 406.973 355.441L410.312 353.961C401.747 358.548 392.282 361.867 382.42 362.225V362.225ZM414.008 395.681C413.632 395.669 413.275 395.51 413.013 395.24C412.751 394.969 412.604 394.607 412.604 394.23C412.604 393.853 412.751 393.491 413.013 393.22C413.275 392.949 413.632 392.79 414.008 392.778C414.385 392.791 414.742 392.949 415.004 393.22C415.266 393.491 415.412 393.853 415.412 394.23C415.412 394.606 415.266 394.968 415.004 395.239C414.742 395.51 414.385 395.669 414.008 395.681V395.681ZM422.022 392.894C421.645 392.882 421.288 392.723 421.026 392.452C420.764 392.182 420.617 391.819 420.617 391.442C420.617 391.066 420.764 390.703 421.026 390.433C421.288 390.162 421.645 390.003 422.022 389.991C422.398 390.003 422.755 390.162 423.017 390.433C423.279 390.704 423.426 391.066 423.426 391.442C423.426 391.819 423.279 392.181 423.017 392.452C422.755 392.723 422.398 392.882 422.022 392.894V392.894ZM430.035 390.107C429.658 390.094 429.301 389.936 429.039 389.665C428.777 389.394 428.63 389.032 428.63 388.655C428.63 388.278 428.777 387.916 429.039 387.645C429.301 387.374 429.658 387.216 430.035 387.204C430.411 387.216 430.768 387.375 431.03 387.645C431.292 387.916 431.439 388.278 431.439 388.655C431.439 389.032 431.292 389.394 431.03 389.665C430.768 389.936 430.411 390.094 430.035 390.107V390.107ZM437.699 386.275C437.323 386.262 436.966 386.104 436.704 385.833C436.442 385.562 436.295 385.2 436.295 384.823C436.295 384.446 436.442 384.084 436.704 383.813C436.966 383.542 437.323 383.384 437.699 383.371C438.076 383.384 438.433 383.542 438.695 383.813C438.957 384.084 439.103 384.446 439.103 384.823C439.103 385.2 438.957 385.562 438.695 385.833C438.433 386.103 438.076 386.262 437.699 386.274V386.275ZM443.971 378.958C443.594 378.946 443.237 378.787 442.975 378.516C442.713 378.246 442.566 377.883 442.566 377.507C442.566 377.13 442.713 376.768 442.975 376.497C443.237 376.226 443.594 376.067 443.971 376.055C444.347 376.067 444.704 376.226 444.966 376.497C445.228 376.768 445.374 377.13 445.374 377.507C445.374 377.883 445.228 378.245 444.966 378.516C444.704 378.787 444.347 378.946 443.971 378.958V378.958ZM448.151 370.597C447.775 370.584 447.418 370.426 447.156 370.155C446.893 369.884 446.747 369.522 446.747 369.145C446.747 368.768 446.893 368.406 447.156 368.135C447.418 367.864 447.775 367.706 448.151 367.693C448.528 367.706 448.885 367.864 449.147 368.135C449.409 368.406 449.555 368.768 449.555 369.145C449.555 369.522 449.409 369.884 449.147 370.155C448.885 370.426 448.528 370.584 448.151 370.597V370.597ZM450.242 361.538C449.865 361.526 449.508 361.367 449.246 361.097C448.984 360.826 448.837 360.464 448.837 360.087C448.837 359.71 448.984 359.348 449.246 359.077C449.508 358.806 449.865 358.647 450.242 358.635C450.618 358.648 450.975 358.806 451.237 359.077C451.499 359.348 451.646 359.71 451.646 360.087C451.646 360.463 451.499 360.825 451.237 361.096C450.975 361.367 450.618 361.526 450.242 361.538V361.538ZM452.681 352.132C452.304 352.119 451.947 351.961 451.685 351.69C451.423 351.419 451.276 351.057 451.276 350.68C451.276 350.303 451.423 349.941 451.685 349.67C451.947 349.399 452.304 349.241 452.681 349.228C453.057 349.241 453.414 349.399 453.676 349.67C453.938 349.941 454.084 350.303 454.084 350.68C454.084 351.057 453.938 351.419 453.676 351.69C453.414 351.96 453.057 352.119 452.681 352.132V352.132ZM454.074 342.028C453.698 342.016 453.34 341.857 453.078 341.586C452.816 341.315 452.67 340.953 452.67 340.576C452.67 340.199 452.816 339.837 453.078 339.566C453.34 339.296 453.698 339.137 454.074 339.125C454.451 339.137 454.808 339.296 455.07 339.567C455.332 339.838 455.478 340.2 455.478 340.576C455.478 340.953 455.332 341.315 455.07 341.586C454.808 341.857 454.451 342.015 454.074 342.028V342.028ZM455.468 332.273C455.091 332.26 454.734 332.102 454.472 331.831C454.21 331.56 454.063 331.198 454.063 330.821C454.063 330.444 454.21 330.082 454.472 329.811C454.734 329.54 455.091 329.382 455.468 329.37C455.844 329.382 456.201 329.541 456.463 329.811C456.725 330.082 456.872 330.444 456.872 330.821C456.872 331.198 456.725 331.56 456.463 331.831C456.201 332.102 455.844 332.26 455.468 332.273V332.273ZM456.861 321.821C456.485 321.809 456.128 321.65 455.865 321.379C455.603 321.108 455.457 320.746 455.457 320.369C455.457 319.992 455.603 319.63 455.865 319.359C456.128 319.088 456.485 318.93 456.861 318.918C457.238 318.93 457.595 319.089 457.857 319.36C458.119 319.63 458.265 319.992 458.265 320.369C458.265 320.746 458.119 321.108 457.857 321.379C457.595 321.65 457.238 321.808 456.861 321.821V321.821ZM457.558 311.717C457.181 311.705 456.824 311.547 456.562 311.276C456.3 311.005 456.154 310.643 456.154 310.266C456.154 309.889 456.3 309.527 456.562 309.256C456.824 308.985 457.181 308.827 457.558 308.814C457.935 308.827 458.292 308.985 458.554 309.256C458.816 309.527 458.962 309.889 458.962 310.266C458.962 310.643 458.816 311.005 458.554 311.275C458.292 311.546 457.935 311.705 457.558 311.717V311.717Z" fill="black"/>
<path d="M343.026 173.866C343.459 173.782 343.904 173.786 344.335 173.876C344.766 173.966 345.175 174.141 345.538 174.391C345.91 174.671 346.189 175.056 346.338 175.497C346.481 175.93 346.55 176.385 346.542 176.841L346.538 176.782C346.598 176.974 346.703 177.15 346.843 177.296C346.984 177.441 347.156 177.552 347.346 177.62C347.775 177.744 348.228 177.761 348.666 177.668C349.638 177.543 350.635 177.387 351.647 177.301C352.703 177.166 353.774 177.245 354.799 177.532C355.104 177.646 355.377 177.836 355.59 178.083C355.7 178.225 355.784 178.385 355.839 178.555C355.884 178.72 355.904 178.89 355.899 179.06C355.853 179.663 355.602 180.232 355.187 180.673C354.425 181.41 353.517 181.979 352.522 182.343C351.579 182.718 350.609 183.019 349.621 183.245C349.135 183.371 348.629 183.453 348.194 183.606C347.742 183.767 347.292 183.972 346.844 184.181C345.95 184.606 345.085 185.103 344.215 185.596C344.998 184.97 345.818 184.391 346.671 183.863C347.1 183.588 347.55 183.349 348.017 183.147C348.513 182.938 348.993 182.832 349.462 182.675C350.4 182.383 351.319 182.037 352.217 181.638C353.086 181.28 353.879 180.759 354.553 180.104C354.824 179.812 354.992 179.439 355.03 179.043C355.048 178.699 354.86 178.517 354.477 178.346C353.574 178.102 352.633 178.031 351.704 178.138C350.725 178.184 349.747 178.312 348.736 178.395C348.185 178.467 347.625 178.402 347.106 178.204C346.831 178.086 346.589 177.903 346.399 177.673C346.209 177.442 346.077 177.169 346.014 176.876C346.011 176.86 346.009 176.843 346.01 176.826L346.01 176.816C346.044 176.419 346.011 176.02 345.912 175.634C345.824 175.249 345.623 174.9 345.336 174.629C344.687 174.097 343.864 173.825 343.026 173.866Z" fill="black"/>
<path d="M363.317 174.5C363.101 174.568 362.907 174.69 362.753 174.855C362.598 175.02 362.489 175.222 362.435 175.441C362.283 175.87 362.183 176.315 362.137 176.768C362.036 177.694 361.996 178.626 362.017 179.557C362 180.027 362.025 180.499 362.036 180.972C362.026 181.445 362.062 181.919 362.065 182.395C362.07 183.349 362.117 184.303 362.048 185.279C361.459 183.429 361.152 181.5 361.137 179.558C361.119 178.573 361.229 177.589 361.466 176.631C361.585 176.138 361.784 175.667 362.056 175.238C362.328 174.831 362.799 174.388 363.317 174.5Z" fill="black"/>
<path d="M348.902 178.011C348.872 177.269 348.949 176.528 349.132 175.809C349.223 175.429 349.382 175.07 349.603 174.748C349.725 174.564 349.89 174.414 350.084 174.309C350.278 174.204 350.494 174.148 350.714 174.147C351.134 174.162 351.541 174.289 351.895 174.515C352.258 174.725 352.563 175.021 352.783 175.378C353.196 176.102 353.332 176.953 353.165 177.77C353.149 177.868 353.096 177.957 353.017 178.019C352.939 178.081 352.84 178.111 352.74 178.103C352.64 178.095 352.547 178.05 352.479 177.977C352.411 177.904 352.373 177.808 352.372 177.708V177.688C352.339 176.874 352.488 176.064 352.807 175.315C352.989 174.898 353.282 174.538 353.654 174.276C354.055 174.021 354.532 173.916 355.003 173.979C355.442 174.014 355.866 174.153 356.24 174.385C356.615 174.617 356.929 174.934 357.156 175.311C357.565 176.029 357.77 176.845 357.751 177.671H356.993C357.016 176.999 357.146 176.336 357.38 175.706C357.498 175.373 357.68 175.066 357.917 174.802C358.04 174.658 358.191 174.54 358.361 174.454C358.53 174.369 358.715 174.318 358.904 174.304C359.249 174.309 359.588 174.385 359.902 174.529C360.215 174.672 360.495 174.879 360.723 175.137C360.971 175.348 361.173 175.606 361.318 175.897C361.464 176.188 361.549 176.505 361.569 176.829C361.426 176.222 361.06 175.691 360.544 175.342C360.105 174.962 359.539 174.763 358.959 174.784C358.448 174.843 358.132 175.363 357.973 175.913C357.817 176.486 357.743 177.077 357.751 177.671C357.751 177.77 357.711 177.864 357.641 177.935C357.572 178.005 357.477 178.045 357.378 178.047C357.279 178.048 357.183 178.011 357.111 177.943C357.04 177.875 356.997 177.781 356.993 177.682L356.993 177.67C356.981 176.996 356.79 176.337 356.441 175.76C356.282 175.496 356.06 175.275 355.795 175.116C355.531 174.957 355.231 174.865 354.923 174.848C354.638 174.812 354.349 174.875 354.105 175.027C353.861 175.178 353.677 175.41 353.584 175.681C353.319 176.311 353.18 176.986 353.175 177.669L352.382 177.587C352.522 176.961 352.452 176.306 352.182 175.724C352.038 175.444 351.825 175.204 351.564 175.028C351.314 174.838 351.019 174.716 350.708 174.673C350.126 174.594 349.685 175.277 349.424 175.907C349.17 176.586 348.995 177.292 348.902 178.011Z" fill="black"/>
<path d="M349.252 183.04L349.692 187.049C349.699 187.107 349.695 187.166 349.679 187.223C349.663 187.279 349.636 187.332 349.6 187.378C349.564 187.424 349.518 187.463 349.467 187.491C349.416 187.52 349.359 187.538 349.301 187.544C349.242 187.55 349.183 187.545 349.127 187.529C349.071 187.512 349.018 187.484 348.973 187.447C348.927 187.41 348.889 187.364 348.862 187.313C348.834 187.261 348.817 187.204 348.811 187.146C348.808 187.113 348.808 187.081 348.811 187.049L349.252 183.04Z" fill="black"/>
<path d="M352.815 181.788L353.846 186.172C353.859 186.229 353.861 186.287 353.852 186.345C353.843 186.402 353.822 186.457 353.791 186.507C353.761 186.556 353.721 186.599 353.674 186.633C353.626 186.667 353.573 186.692 353.516 186.705C353.46 186.718 353.401 186.72 353.344 186.711C353.286 186.701 353.231 186.681 353.182 186.65C353.132 186.619 353.09 186.579 353.056 186.532C353.022 186.485 352.997 186.431 352.984 186.375C352.978 186.346 352.974 186.318 352.973 186.289L352.815 181.788Z" fill="black"/>
<path d="M357.09 186.213L357.372 177.67L357.971 186.196C357.975 186.254 357.968 186.312 357.949 186.367C357.931 186.422 357.902 186.473 357.864 186.516C357.826 186.56 357.78 186.596 357.728 186.622C357.676 186.648 357.62 186.663 357.562 186.667C357.504 186.671 357.446 186.664 357.391 186.645C357.336 186.627 357.286 186.598 357.242 186.56C357.198 186.522 357.162 186.476 357.136 186.424C357.111 186.372 357.095 186.316 357.091 186.258C357.09 186.243 357.09 186.227 357.09 186.213Z" fill="black"/>
<path d="M448.551 106.729C443.427 103.808 437.707 102.086 431.821 101.693C425.991 101.374 420.171 102.492 414.874 104.948C412.201 106.139 409.689 107.66 407.395 109.476C405.073 111.286 403.013 113.409 401.274 115.785C398.002 120.721 395.865 126.319 395.015 132.179C394.486 135.063 394.731 137.985 394.528 141.034C394.444 142.614 394.058 144.163 393.389 145.597C392.684 147.006 391.754 148.291 390.635 149.401C389.537 150.517 388.295 151.482 386.942 152.269C386.209 152.736 385.392 153.055 384.537 153.209L382.335 153.444C380.93 153.571 379.55 153.899 378.237 154.418L376.191 155.212C375.546 155.48 374.921 155.791 374.319 156.144C371.903 157.766 369.616 159.572 367.477 161.545C366.375 162.51 365.341 163.525 364.311 164.593C363.273 165.691 362.175 166.731 361.022 167.708C359.864 168.676 358.649 169.574 357.383 170.396C356.132 171.269 354.776 171.983 353.347 172.519C352.637 172.781 351.915 173.005 351.182 173.191C350.504 173.329 349.878 173.657 349.379 174.136C348.411 175.219 347.805 176.577 347.643 178.02C347.639 178.043 347.627 178.064 347.608 178.078C347.589 178.092 347.565 178.097 347.542 178.094C347.52 178.09 347.501 178.078 347.487 178.061C347.474 178.044 347.467 178.022 347.468 178C347.488 176.455 348.015 174.959 348.968 173.742C349.504 173.143 350.196 172.704 350.967 172.476C351.661 172.232 352.35 171.985 353.015 171.692C354.341 171.104 355.587 170.351 356.724 169.45C357.902 168.577 359.029 167.638 360.119 166.667C361.2 165.683 362.225 164.639 363.19 163.541C364.184 162.433 365.233 161.325 366.331 160.293C367.434 159.248 368.542 158.283 369.681 157.298C370.829 156.276 372.06 155.35 373.359 154.528C374.035 154.122 374.742 153.768 375.472 153.472L377.583 152.657C378.315 152.376 379.063 152.142 379.825 151.957C380.588 151.796 381.36 151.683 382.137 151.619L384.373 151.425C384.98 151.3 385.56 151.07 386.088 150.746C387.321 150.06 388.456 149.213 389.465 148.227C390.477 147.257 391.331 146.135 391.998 144.902C392.631 143.655 393.017 142.297 393.136 140.904C393.244 137.919 393.554 134.945 394.066 132.003C394.697 129.073 395.572 126.2 396.683 123.417C397.758 120.619 399.141 117.949 400.806 115.457C404.236 110.462 408.852 106.397 414.241 103.627C419.713 100.902 425.839 99.7606 431.926 100.332C437.952 100.908 443.719 103.064 448.646 106.58C448.665 106.594 448.678 106.615 448.682 106.638C448.686 106.661 448.681 106.684 448.667 106.703C448.654 106.721 448.635 106.733 448.614 106.738C448.593 106.743 448.57 106.739 448.551 106.729Z" fill="black"/>
<path d="M346.215 184.349C347.447 187.432 349.194 190.284 351.381 192.781C352.442 193.986 353.75 194.948 355.217 195.6C356.646 196.196 358.233 196.301 359.728 195.898C362.84 194.972 365.676 193.295 367.986 191.014C369.17 189.894 370.272 188.689 371.282 187.41C372.266 186.113 373.136 184.732 373.879 183.284L375.004 181.032C375.419 180.268 375.889 179.534 376.408 178.837C377.44 177.449 378.661 176.213 380.036 175.164C382.787 173.137 385.923 171.692 389.251 170.918C390.071 170.709 390.909 170.583 391.736 170.412C392.573 170.308 393.414 170.205 394.244 170.081L396.719 169.732C397.543 169.616 398.352 169.41 399.169 169.254C402.415 168.562 405.543 167.402 408.456 165.811C411.331 164.243 413.848 162.092 415.844 159.496C417.781 156.904 419.042 153.871 419.512 150.67C419.643 149.874 419.718 149.07 419.736 148.264C419.781 147.456 419.77 146.646 419.704 145.84C419.683 145.044 419.599 144.195 419.525 143.354C419.443 142.515 419.405 141.667 419.344 140.823C419.236 139.117 419.229 137.407 419.322 135.7C419.393 133.942 419.692 132.201 420.21 130.52C420.773 128.756 421.805 127.18 423.197 125.959C424.594 124.803 426.243 123.989 428.011 123.584C431.404 122.723 434.965 122.774 438.332 123.73C441.578 124.534 444.821 125.364 448.087 126.08C449.72 126.435 451.352 126.801 452.993 127.105C454.617 127.463 456.274 127.645 457.937 127.651L457.95 127.65C457.972 127.649 457.994 127.657 458.011 127.671C458.028 127.686 458.039 127.707 458.041 127.729C458.043 127.752 458.036 127.774 458.023 127.792C458.009 127.809 457.988 127.821 457.966 127.824C456.28 127.975 454.583 127.923 452.909 127.667C451.237 127.478 449.573 127.24 447.917 126.955C444.605 126.391 441.302 125.779 438.02 125.072C434.88 124.276 431.586 124.327 428.471 125.218C426.969 125.609 425.572 126.327 424.381 127.322C423.253 128.344 422.427 129.655 421.992 131.114C421.053 134.099 421.078 137.449 421.177 140.737C421.223 141.565 421.245 142.391 421.311 143.222C421.369 144.051 421.436 144.87 421.448 145.751C421.502 146.615 421.498 147.483 421.436 148.347C421.4 149.214 421.304 150.079 421.148 150.933C420.584 154.383 419.137 157.628 416.948 160.353C414.759 163.017 412.015 165.17 408.908 166.663C405.856 168.14 402.626 169.215 399.297 169.86C395.996 170.623 392.585 170.575 389.401 171.509C387.8 171.927 386.243 172.499 384.753 173.218C383.288 173.962 381.913 174.87 380.654 175.926C379.41 176.977 378.32 178.197 377.413 179.549C376.964 180.219 376.562 180.92 376.212 181.646C375.879 182.35 375.573 183.174 375.191 183.938C374.455 185.498 373.564 186.98 372.529 188.36C371.482 189.728 370.312 190.996 369.034 192.151C366.503 194.549 363.419 196.287 360.057 197.209C358.277 197.651 356.4 197.459 354.747 196.664C353.174 195.879 351.789 194.763 350.689 193.392C349.604 192.074 348.678 190.633 347.929 189.099C347.164 187.593 346.534 186.022 346.048 184.404C346.041 184.382 346.044 184.358 346.055 184.337C346.066 184.317 346.085 184.302 346.107 184.295C346.129 184.29 346.151 184.292 346.171 184.302C346.191 184.312 346.207 184.329 346.215 184.349Z" fill="black"/>
<path d="M460.442 111.33C459.475 111.63 458.497 111.911 457.52 112.182L458.275 113.024C458.337 113.086 458.375 113.169 458.381 113.256C458.42 113.508 458.449 113.769 458.488 114.021L458.768 113.905C459.523 113.595 460.268 113.314 461.014 113.063C460.81 112.492 460.626 111.911 460.442 111.33ZM460.442 111.33C459.475 111.63 458.497 111.911 457.52 112.182L458.275 113.024C458.337 113.086 458.375 113.169 458.381 113.256C458.42 113.508 458.449 113.769 458.488 114.021L458.768 113.905C459.523 113.595 460.268 113.314 461.014 113.063C460.81 112.492 460.626 111.911 460.442 111.33ZM460.442 111.33C459.475 111.63 458.497 111.911 457.52 112.182L458.275 113.024C458.337 113.086 458.375 113.169 458.381 113.256C458.42 113.508 458.449 113.769 458.488 114.021L458.768 113.905C459.523 113.595 460.268 113.314 461.014 113.063C460.81 112.492 460.626 111.911 460.442 111.33ZM457.539 113.498C457.22 113.14 456.91 112.782 456.61 112.424C456.233 112.53 455.855 112.627 455.478 112.714C455.633 113.44 455.778 114.205 455.971 115.047L457.655 114.359C457.617 114.069 457.578 113.788 457.539 113.498ZM460.442 111.33C459.475 111.63 458.497 111.911 457.52 112.182L458.275 113.024C458.337 113.086 458.375 113.169 458.381 113.256C458.42 113.508 458.449 113.769 458.488 114.021L458.768 113.905C459.523 113.595 460.268 113.314 461.014 113.063C460.81 112.492 460.626 111.911 460.442 111.33ZM467.459 89.5361L448.597 102.688C450.291 104.343 451.916 106.056 453.523 107.788C454.694 109.037 455.849 110.301 456.988 111.582C458.188 111.156 459.388 110.75 460.597 110.363C460.651 110.344 460.708 110.337 460.765 110.341C460.822 110.346 460.877 110.361 460.928 110.388C460.979 110.414 461.023 110.45 461.06 110.494C461.096 110.538 461.123 110.589 461.139 110.643L461.149 110.653C461.401 111.495 461.672 112.337 461.904 113.188V113.208C461.931 113.308 461.918 113.415 461.867 113.505C461.817 113.596 461.732 113.663 461.633 113.692C460.665 113.972 459.678 114.224 458.72 114.447C458.662 114.456 458.604 114.476 458.555 114.485C458.836 116.585 459.107 118.695 459.33 120.795L459.717 124.579C459.813 125.837 459.939 127.105 460.017 128.373L479.507 128.847L467.459 89.5361ZM458.759 102.862C456.298 103.392 453.806 103.757 451.297 103.956C453.678 103.146 456.109 102.493 458.575 102.001C461.034 101.463 463.527 101.095 466.036 100.898C463.656 101.713 461.225 102.369 458.759 102.862ZM461.014 113.063C460.81 112.492 460.626 111.911 460.442 111.33C459.475 111.63 458.497 111.911 457.52 112.182L458.275 113.024C458.337 113.086 458.375 113.169 458.381 113.256C458.42 113.508 458.449 113.769 458.488 114.021L458.768 113.905C459.523 113.595 460.268 113.314 461.014 113.063ZM456.61 112.424C456.233 112.53 455.855 112.627 455.478 112.714C455.633 113.44 455.778 114.205 455.971 115.047L457.655 114.359C457.617 114.069 457.578 113.788 457.539 113.498C457.22 113.14 456.91 112.782 456.61 112.424ZM460.442 111.33C459.475 111.63 458.497 111.911 457.52 112.182L458.275 113.024C458.337 113.086 458.375 113.169 458.381 113.256C458.42 113.508 458.449 113.769 458.488 114.021L458.768 113.905C459.523 113.595 460.268 113.314 461.014 113.063C460.81 112.492 460.626 111.911 460.442 111.33H460.442ZM457.539 113.498C457.22 113.14 456.91 112.782 456.61 112.424C456.233 112.53 455.855 112.627 455.478 112.714C455.633 113.44 455.778 114.205 455.971 115.047L457.655 114.359C457.617 114.069 457.578 113.788 457.539 113.498H457.539ZM460.442 111.33C459.475 111.63 458.497 111.911 457.52 112.182L458.275 113.024C458.337 113.086 458.375 113.169 458.381 113.256C458.42 113.508 458.449 113.769 458.488 114.021L458.768 113.905C459.523 113.595 460.268 113.314 461.014 113.063C460.81 112.492 460.626 111.911 460.442 111.33H460.442ZM460.442 111.33C459.475 111.63 458.497 111.911 457.52 112.182L458.275 113.024C458.337 113.086 458.375 113.169 458.381 113.256C458.42 113.508 458.449 113.769 458.488 114.021L458.768 113.905C459.523 113.595 460.268 113.314 461.014 113.063C460.81 112.492 460.626 111.911 460.442 111.33H460.442ZM457.539 113.498C457.22 113.14 456.91 112.782 456.61 112.424C456.233 112.53 455.855 112.627 455.478 112.714C455.633 113.44 455.778 114.205 455.971 115.047L457.655 114.359C457.617 114.069 457.578 113.788 457.539 113.498H457.539ZM459.281 124.637L458.642 120.892C458.294 118.821 457.984 116.74 457.704 114.669C457.104 114.805 456.533 114.931 455.971 115.047C455.652 114.311 455.284 113.479 454.936 112.608C454.914 112.549 454.916 112.483 454.941 112.426C454.966 112.368 455.013 112.322 455.071 112.298L455.1 112.288C455.449 112.153 455.797 112.018 456.146 111.892C455.091 110.682 454.045 109.463 453.029 108.224C451.52 106.404 450.029 104.575 448.597 102.688C448.597 102.688 446.7 123.137 460.017 128.373C459.736 127.134 459.523 125.886 459.281 124.637ZM457.539 113.498C457.22 113.14 456.91 112.782 456.61 112.424C456.233 112.53 455.855 112.627 455.478 112.714C455.633 113.44 455.778 114.205 455.971 115.047L457.655 114.359C457.617 114.069 457.578 113.788 457.539 113.498H457.539Z" fill="black"/>
<path d="M248.726 238.605C249.373 238.494 250.03 238.361 250.675 238.209C251.327 238.076 251.962 237.868 252.566 237.59C252.035 238.012 251.457 238.372 250.844 238.663C250.239 238.972 249.63 239.259 249.001 239.533C248.882 239.585 248.748 239.587 248.628 239.54C248.507 239.493 248.411 239.4 248.359 239.281C248.307 239.162 248.305 239.028 248.352 238.908C248.4 238.788 248.493 238.691 248.611 238.639C248.648 238.624 248.687 238.612 248.726 238.605Z" fill="black"/>
<path d="M189.289 401.536C187.277 405.894 185.167 410.199 182.959 414.449L182.138 416.047C181.268 417.731 180.095 419.239 178.676 420.496C176.759 422.148 174.474 423.315 172.012 423.9C167.395 425.179 162.765 426.416 158.096 427.512C155.764 428.068 153.42 428.583 151.067 429.056C149.886 429.277 148.704 429.493 147.517 429.686C146.336 429.923 145.134 430.039 143.929 430.03C146.275 429.573 148.59 428.968 150.86 428.217L157.744 426.184C162.33 424.82 166.933 423.512 171.537 422.206C172.65 421.942 173.733 421.562 174.766 421.071C175.779 420.573 176.728 419.957 177.594 419.233C178.468 418.513 179.249 417.686 179.918 416.773C180.254 416.311 180.565 415.832 180.849 415.337L181.76 413.789C184.171 409.65 186.681 405.566 189.289 401.536Z" fill="black"/>
<path d="M210.396 420.695C209.226 421.946 208.142 423.274 207.152 424.671C206.181 426.038 205.29 427.461 204.484 428.931C204.099 429.674 203.677 430.401 203.346 431.173L202.798 432.312C202.644 432.704 202.474 433.091 202.298 433.477C201.935 434.246 201.673 435.055 201.327 435.845C201.003 436.643 200.738 437.463 200.361 438.273C200.352 437.391 200.395 436.51 200.489 435.633C200.603 434.758 200.773 433.89 200.997 433.035C201.443 431.313 202.096 429.651 202.94 428.085C203.805 426.523 204.868 425.08 206.103 423.791C207.312 422.482 208.772 421.429 210.396 420.695Z" fill="black"/>
<path d="M144.678 429.989C144.678 429.989 121.51 429.118 122.052 432.882C122.052 432.882 117.929 453.176 178.173 446.518V458.567L183.244 460.464H189.292C189.292 460.464 198.883 438.486 201.738 438.273C201.738 438.273 138.968 435.882 144.678 429.989ZM129.368 435.747C128.991 435.734 128.634 435.576 128.372 435.305C128.11 435.034 127.963 434.672 127.963 434.295C127.963 433.918 128.11 433.556 128.372 433.285C128.634 433.014 128.991 432.856 129.368 432.843C129.745 432.856 130.102 433.014 130.364 433.285C130.626 433.556 130.772 433.918 130.772 434.295C130.772 434.672 130.626 435.034 130.364 435.305C130.102 435.576 129.745 435.734 129.368 435.747ZM137.033 439.579C136.656 439.567 136.299 439.408 136.037 439.137C135.775 438.867 135.628 438.504 135.628 438.127C135.628 437.751 135.775 437.388 136.037 437.117C136.299 436.847 136.656 436.688 137.033 436.676C137.409 436.688 137.766 436.847 138.029 437.117C138.291 437.388 138.437 437.751 138.437 438.127C138.437 438.504 138.291 438.867 138.029 439.137C137.766 439.408 137.409 439.567 137.033 439.579ZM145.743 442.366C145.366 442.354 145.009 442.196 144.747 441.925C144.485 441.654 144.338 441.292 144.338 440.915C144.338 440.538 144.485 440.176 144.747 439.905C145.009 439.634 145.366 439.475 145.743 439.463C146.119 439.475 146.476 439.634 146.738 439.905C147.001 440.176 147.147 440.538 147.147 440.915C147.147 441.292 147.001 441.654 146.738 441.925C146.476 442.196 146.119 442.354 145.743 442.366Z" fill="black"/>
<path d="M459.665 336.03C461.34 336.252 462.889 337.034 464.062 338.249C465.098 339.534 466.005 340.918 466.768 342.382C468.39 345.18 469.911 348.031 471.402 350.898C472.863 353.782 474.293 356.682 475.599 359.645C476.258 361.124 476.884 362.62 477.476 364.131C478.114 365.631 478.591 367.195 478.898 368.796C478.25 367.319 477.513 365.883 476.691 364.496L474.367 360.253C472.815 357.425 471.322 354.566 469.836 351.702C468.379 348.823 466.926 345.942 465.555 343.016C464.935 341.559 464.213 340.147 463.394 338.791C462.447 337.527 461.151 336.567 459.665 336.03Z" fill="black"/>
<path d="M462.487 309.705C462.997 309.903 463.528 310.039 464.07 310.108C464.591 310.21 465.126 310.257 465.649 310.331L468.825 310.691C469.891 310.804 470.958 310.949 472.036 311.123C473.141 311.289 474.231 311.541 475.297 311.878C473.135 312.529 470.861 312.72 468.621 312.44C467.493 312.311 466.383 312.053 465.314 311.67C464.772 311.465 464.25 311.21 463.755 310.909C463.24 310.617 462.805 310.204 462.487 309.705Z" fill="black"/>
<path d="M500.547 324.037L499.298 318.124C499.298 318.124 475.975 313.324 475.027 310.565C475.269 311.988 485.575 372.387 478.704 368.07C478.704 368.07 482.643 390.92 486.214 389.613C486.214 389.613 506.915 389.449 487.947 331.885L499.734 329.398L500.547 324.037ZM487.521 382.79C487.144 382.778 486.787 382.619 486.525 382.349C486.263 382.078 486.116 381.715 486.116 381.339C486.116 380.962 486.263 380.599 486.525 380.329C486.787 380.058 487.144 379.899 487.521 379.887C487.897 379.899 488.254 380.058 488.516 380.329C488.778 380.6 488.925 380.962 488.925 381.339C488.925 381.715 488.778 382.077 488.516 382.348C488.254 382.619 487.897 382.778 487.521 382.79V382.79ZM488.914 373.732C488.538 373.719 488.18 373.561 487.918 373.29C487.656 373.019 487.51 372.657 487.51 372.28C487.51 371.903 487.656 371.541 487.918 371.27C488.18 370.999 488.538 370.841 488.914 370.829C489.291 370.841 489.648 371 489.91 371.27C490.172 371.541 490.318 371.903 490.318 372.28C490.318 372.657 490.172 373.019 489.91 373.29C489.648 373.561 489.291 373.719 488.914 373.732V373.732ZM489.263 359.331C489.639 359.345 489.995 359.504 490.256 359.774C490.518 360.045 490.664 360.407 490.664 360.783C490.664 361.159 490.518 361.521 490.256 361.792C489.995 362.063 489.639 362.221 489.263 362.235C488.887 362.221 488.53 362.063 488.269 361.792C488.007 361.521 487.861 361.159 487.861 360.783C487.861 360.407 488.007 360.045 488.269 359.774C488.53 359.503 488.887 359.345 489.263 359.331V359.331Z" fill="black"/>
<path d="M446.68 176.736C450.606 174.336 454.587 172.036 458.539 169.683L470.486 162.791C478.453 158.198 486.486 153.727 494.519 149.256C502.573 144.821 510.628 140.39 518.75 136.078L530.935 129.615C535.028 127.517 539.091 125.367 543.21 123.315C539.285 125.716 535.304 128.017 531.353 130.371L519.406 137.263C511.439 141.855 503.406 146.327 495.371 150.796C487.317 155.228 479.261 159.66 471.139 163.971L458.954 170.434C454.862 172.533 450.798 174.683 446.68 176.736Z" fill="black"/>
<path d="M423.371 226.953C426.741 224.996 430.163 223.139 433.558 221.229L443.828 215.67C450.677 211.965 457.588 208.384 464.5 204.803C471.431 201.26 478.363 197.719 485.358 194.3L495.854 189.177C499.382 187.526 502.882 185.822 506.434 184.219C503.064 186.177 499.643 188.034 496.249 189.944L485.978 195.505C479.129 199.208 472.218 202.79 465.305 206.368C458.373 209.91 451.441 213.451 444.445 216.869L433.95 221.993C430.423 223.644 426.923 225.349 423.371 226.953Z" fill="black"/>
<path d="M494.945 236.886C498.315 234.929 501.737 233.073 505.132 231.163L515.402 225.603C522.251 221.899 529.162 218.318 536.074 214.737C543.005 211.193 549.938 207.653 556.932 204.233L567.428 199.11C570.956 197.46 574.456 195.755 578.008 194.152C574.639 196.11 571.217 197.967 567.823 199.878L557.552 205.438C550.703 209.141 543.792 212.723 536.879 216.302C529.947 219.843 523.015 223.384 516.019 226.802L505.525 231.926C501.997 233.578 498.497 235.282 494.945 236.886Z" fill="black"/>
<path d="M299.089 226.154C299.824 226.704 300.477 227.356 301.029 228.091C301.591 228.821 302.074 229.609 302.468 230.443C302.852 231.29 303.123 232.184 303.274 233.103C303.415 234.023 303.36 234.963 303.113 235.86C302.98 234.984 302.788 234.118 302.537 233.268C302.266 232.444 301.949 231.636 301.589 230.847C300.858 229.263 299.978 227.751 299.089 226.154Z" fill="black"/>
<path d="M276.705 154.585C276.416 156.072 276.274 157.585 276.279 159.101C276.338 160.593 276.503 162.08 276.771 163.55C277.058 165.02 277.33 166.504 277.674 167.997C278.005 169.493 278.524 170.942 279.22 172.308C279.243 172.352 279.255 172.403 279.252 172.453C279.194 173.624 279.015 174.786 278.719 175.921C278.401 177.173 277.634 178.264 276.564 178.988C275.965 179.32 275.297 179.508 274.612 179.536C273.928 179.564 273.246 179.432 272.622 179.15C271.398 178.652 270.349 177.802 269.607 176.708C268.822 175.573 268.506 174.179 268.725 172.816L268.811 172.106C268.809 171.912 268.794 171.718 268.768 171.525C268.661 171.168 268.432 170.861 268.122 170.655C267.217 170.18 266.214 169.926 265.192 169.912C264.068 169.847 262.941 169.858 261.818 169.947C261.806 169.948 261.794 169.947 261.783 169.944C261.772 169.94 261.762 169.934 261.753 169.927C261.744 169.92 261.736 169.91 261.731 169.9C261.725 169.89 261.722 169.878 261.721 169.867C261.72 169.848 261.725 169.828 261.735 169.812C261.745 169.796 261.76 169.783 261.778 169.776C262.865 169.347 264.001 169.053 265.161 168.901C266.415 168.692 267.703 168.838 268.878 169.324C269.569 169.678 270.106 170.275 270.385 170.999C270.498 171.356 270.564 171.725 270.584 172.099L270.52 173.089C270.437 174.006 270.67 174.924 271.179 175.692C272.133 177.323 274.251 178.509 275.938 177.782C276.85 177.337 277.565 176.571 277.947 175.631C278.394 174.615 278.656 173.527 278.719 172.418L278.751 172.564C278.039 171.161 277.335 169.778 276.677 168.341C275.993 166.907 275.5 165.389 275.212 163.826C274.95 162.244 274.895 160.635 275.049 159.039C275.231 157.445 275.739 155.906 276.542 154.518C276.555 154.498 276.574 154.483 276.597 154.477C276.62 154.472 276.644 154.475 276.665 154.487C276.68 154.498 276.692 154.513 276.7 154.53C276.707 154.547 276.709 154.566 276.705 154.585Z" fill="black"/>
<path d="M261.812 169.948L261.655 169.994C261.637 169.999 261.617 170 261.599 169.996C260.255 169.731 258.957 169.271 257.745 168.632C256.505 167.998 255.387 167.149 254.443 166.124C253.477 165.107 252.677 163.943 252.072 162.677C251.444 161.402 251.013 160.039 250.794 158.635C250.777 158.526 250.788 158.416 250.825 158.313C250.861 158.21 250.922 158.118 251.003 158.044C251.084 157.97 251.181 157.918 251.287 157.891C251.393 157.864 251.504 157.863 251.61 157.889L251.701 157.912C251.872 157.968 252.053 157.985 252.232 157.962C252.357 157.925 252.464 157.842 252.531 157.73C252.76 157.315 252.888 156.854 252.907 156.381C253.043 155.314 252.889 154.231 252.462 153.244C252.347 153.017 252.2 152.815 252.077 152.596C251.918 152.451 251.786 152.228 251.621 152.16C251.475 152.054 251.303 151.987 251.124 151.966C250.944 151.944 250.762 151.97 250.595 152.039C249.643 152.478 248.821 153.157 248.209 154.008L248.174 154.052C248.099 154.147 248 154.22 247.887 154.265C246.147 154.85 244.279 154.947 242.487 154.545C240.777 154.227 239.106 153.721 237.506 153.038C235.915 152.378 234.37 151.633 232.861 150.83C231.355 150.017 229.871 149.183 228.427 148.251L228.402 148.235C228.368 148.213 228.341 148.182 228.325 148.145C228.308 148.109 228.302 148.068 228.307 148.028C228.322 147.902 228.363 147.781 228.428 147.672C228.472 147.59 228.52 147.512 228.573 147.436C228.672 147.284 228.783 147.154 228.891 147.017C229.113 146.754 229.346 146.507 229.586 146.269C230.066 145.794 230.566 145.346 231.07 144.906C232.081 144.027 233.136 143.211 234.185 142.385C235.242 141.572 236.312 140.776 237.395 139.998C238.482 139.189 239.615 138.444 240.787 137.766C243.273 136.366 246.182 135.915 248.974 136.498C251.742 137.26 254.173 138.932 255.874 141.244C257.286 143.256 259.431 144.634 261.848 145.082C263.052 145.283 264.28 145.29 265.485 145.103C266.097 144.995 266.703 144.855 267.3 144.683L269.139 144.062C271.752 143.087 274.558 142.739 277.33 143.044C280.103 143.349 282.765 144.3 285.104 145.82C285.192 145.879 285.261 145.961 285.304 146.058C285.347 146.155 285.363 146.262 285.348 146.367C285.333 146.471 285.29 146.57 285.222 146.651C285.154 146.733 285.065 146.793 284.964 146.826L284.931 146.837C284.543 147.008 284.176 147.223 283.838 147.479C283.446 147.751 283.058 148.044 282.673 148.341C281.902 148.935 281.152 149.563 280.392 150.181L279.262 151.12C278.908 151.438 278.577 151.781 278.272 152.146C277.651 152.891 277.125 153.71 276.705 154.585C276.696 154.605 276.679 154.621 276.658 154.629C276.637 154.637 276.613 154.637 276.592 154.628C276.572 154.62 276.555 154.604 276.545 154.583C276.536 154.563 276.535 154.539 276.542 154.518C276.866 153.572 277.32 152.676 277.893 151.856C278.182 151.439 278.501 151.044 278.848 150.673L279.896 149.629C280.599 148.936 281.327 148.269 282.067 147.609C282.439 147.28 282.815 146.955 283.21 146.639C283.631 146.27 284.104 145.966 284.614 145.736L284.441 146.754C282.228 145.485 279.754 144.741 277.209 144.579C274.672 144.424 272.132 144.825 269.766 145.755L267.842 146.444C267.167 146.652 266.481 146.824 265.787 146.958C264.365 147.187 262.914 147.176 261.495 146.927C260.074 146.657 258.72 146.106 257.513 145.307C256.306 144.508 255.271 143.477 254.466 142.274C253.03 140.24 250.964 138.737 248.587 137.997C246.14 137.419 243.567 137.715 241.316 138.834C240.151 139.419 239.021 140.07 237.932 140.786C236.818 141.503 235.716 142.236 234.626 142.987C233.539 143.741 232.468 144.52 231.45 145.358C230.939 145.773 230.442 146.205 229.975 146.662C229.741 146.89 229.517 147.124 229.307 147.367C229.208 147.49 229.102 147.611 229.019 147.738C228.933 147.836 228.847 148.052 228.841 148.029L228.721 147.806C231.564 149.633 234.618 151.11 237.816 152.204C239.385 152.757 241.009 153.139 242.661 153.343C244.226 153.585 245.826 153.427 247.314 152.883L246.992 153.14C247.746 151.984 248.829 151.081 250.101 150.547C250.499 150.402 250.925 150.354 251.345 150.407C251.764 150.46 252.165 150.612 252.515 150.851C252.834 151.079 253.115 151.355 253.347 151.671C253.525 151.974 253.723 152.272 253.872 152.587C254.4 153.833 254.582 155.198 254.398 156.538C254.346 157.276 254.1 157.986 253.685 158.598C253.4 158.983 252.983 159.25 252.514 159.347C252.093 159.41 251.663 159.367 251.262 159.223L252.169 158.501C252.337 159.766 252.673 161.003 253.169 162.179C253.672 163.373 254.344 164.488 255.165 165.49C255.986 166.507 256.964 167.387 258.062 168.096C259.182 168.813 260.386 169.386 261.648 169.804L261.592 169.806L261.783 169.775C261.805 169.771 261.828 169.776 261.847 169.788C261.865 169.801 261.878 169.82 261.883 169.842C261.888 169.864 261.885 169.887 261.873 169.906C261.862 169.925 261.844 169.939 261.822 169.946L261.812 169.948Z" fill="black"/>
<path d="M275.705 158.577C275.666 159.022 275.647 159.468 275.647 159.913C275.621 159.467 275.64 159.019 275.705 158.577V158.577Z" stroke="black" stroke-width="0.96777" stroke-linecap="round" stroke-linejoin="round"/>
<path d="M282.576 147.806C282.576 147.806 282.711 147.902 282.982 148.106L277.156 154.009C278.489 151.571 280.339 149.454 282.576 147.806V147.806Z" stroke="black" stroke-width="0.96777" stroke-linecap="round" stroke-linejoin="round"/>
<path d="M323.812 209.954C331.404 216.99 338.953 224.069 346.459 231.189C354.02 238.255 361.461 245.444 368.991 252.54C372.762 256.082 376.471 259.689 380.204 263.27L385.8 268.646L391.355 274.066C398.783 281.27 406.135 288.555 413.647 295.67L413.332 295.584C415.598 294.984 417.782 294.107 419.834 292.973C421.904 291.861 423.818 290.479 425.525 288.863C427.244 287.267 428.708 285.416 429.868 283.377C430.177 282.881 430.448 282.361 430.679 281.824L431.431 280.227L432.202 278.596C432.449 278.046 432.797 277.554 433.09 277.03C435.623 272.959 438.729 269.275 442.313 266.09C445.84 262.855 449.625 259.914 453.632 257.296L453.972 258.563L452.655 258.421C452.219 258.366 451.826 258.234 451.409 258.143C450.597 257.94 449.796 257.694 449.011 257.404C447.452 256.839 445.931 256.206 444.438 255.525C441.449 254.167 438.526 252.694 435.647 251.149C429.885 248.065 424.254 244.765 418.664 241.406C407.478 234.696 396.541 227.599 385.675 220.406C374.786 213.246 364.09 205.802 353.385 198.378L337.439 187.082C332.142 183.291 326.883 179.447 321.618 175.612C321.598 175.597 321.584 175.574 321.58 175.549C321.576 175.524 321.581 175.499 321.596 175.478C321.61 175.457 321.633 175.443 321.657 175.438C321.682 175.434 321.708 175.439 321.729 175.453L354.21 197.172C365.007 204.452 375.906 211.576 386.761 218.758C392.2 222.333 397.663 225.87 403.149 229.368C408.638 232.861 414.112 236.378 419.656 239.776C425.195 243.182 430.783 246.506 436.464 249.644C439.297 251.224 442.169 252.731 445.087 254.113C446.545 254.808 448.023 255.45 449.515 256.019C450.266 256.274 451.013 256.587 451.768 256.761C452.143 256.852 452.526 256.992 452.895 257.044L454.003 257.197L454.079 257.207C454.218 257.226 454.348 257.288 454.451 257.384C454.554 257.479 454.624 257.605 454.653 257.742C454.682 257.88 454.668 258.023 454.613 258.152C454.557 258.281 454.463 258.39 454.343 258.464C450.337 260.941 446.541 263.745 442.996 266.848C439.406 269.898 436.278 273.453 433.708 277.402C433.418 277.91 433.071 278.39 432.828 278.922L432.066 280.502L431.29 282.12C431.047 282.67 430.764 283.202 430.442 283.71C429.236 285.794 427.718 287.681 425.941 289.306C422.398 292.577 418.129 294.961 413.486 296.262C413.433 296.277 413.377 296.277 413.324 296.264C413.271 296.251 413.222 296.225 413.182 296.187L413.17 296.176C405.631 289.087 397.964 282.134 390.391 275.08L384.7 269.802L379.06 264.471C375.301 260.914 371.532 257.369 367.824 253.759C360.399 246.551 352.92 239.398 345.582 232.098C338.215 224.83 330.913 217.495 323.677 210.093C323.66 210.075 323.65 210.05 323.65 210.025C323.65 210 323.66 209.976 323.677 209.958C323.695 209.94 323.719 209.929 323.744 209.928C323.769 209.928 323.794 209.937 323.812 209.954L323.812 209.954Z" fill="black"/>
<path d="M414.469 292.671C414.846 292.658 415.202 292.5 415.464 292.229C415.725 291.958 415.872 291.596 415.872 291.22C415.872 290.843 415.725 290.481 415.464 290.211C415.202 289.94 414.846 289.781 414.469 289.768C414.093 289.781 413.737 289.94 413.475 290.211C413.213 290.481 413.067 290.843 413.067 291.22C413.067 291.596 413.213 291.958 413.475 292.229C413.737 292.5 414.093 292.658 414.469 292.671Z" fill="black"/>
<path d="M420.044 290.117C420.42 290.104 420.777 289.945 421.038 289.674C421.3 289.403 421.446 289.042 421.446 288.665C421.446 288.288 421.3 287.927 421.038 287.656C420.777 287.385 420.42 287.226 420.044 287.213C419.667 287.226 419.311 287.385 419.049 287.656C418.788 287.927 418.641 288.288 418.641 288.665C418.641 289.042 418.788 289.403 419.049 289.674C419.311 289.945 419.667 290.104 420.044 290.117Z" fill="black"/>
<path d="M424.921 286.168C425.298 286.155 425.654 285.996 425.916 285.726C426.178 285.455 426.324 285.093 426.324 284.716C426.324 284.34 426.178 283.978 425.916 283.707C425.654 283.436 425.298 283.278 424.921 283.265C424.545 283.278 424.188 283.436 423.927 283.707C423.665 283.978 423.519 284.34 423.519 284.716C423.519 285.093 423.665 285.455 423.927 285.726C424.188 285.996 424.545 286.155 424.921 286.168Z" fill="black"/>
<path d="M428.87 279.897C429.246 279.884 429.603 279.725 429.864 279.455C430.126 279.184 430.272 278.822 430.272 278.445C430.272 278.069 430.126 277.707 429.864 277.436C429.603 277.165 429.246 277.007 428.87 276.994C428.494 277.007 428.137 277.165 427.875 277.436C427.614 277.707 427.467 278.069 427.467 278.445C427.467 278.822 427.614 279.184 427.875 279.455C428.137 279.725 428.494 279.884 428.87 279.897Z" fill="black"/>
<path d="M431.889 273.626C432.266 273.613 432.622 273.454 432.884 273.184C433.146 272.913 433.292 272.551 433.292 272.174C433.292 271.798 433.146 271.436 432.884 271.165C432.622 270.894 432.266 270.736 431.889 270.723C431.513 270.736 431.156 270.894 430.895 271.165C430.633 271.436 430.487 271.798 430.487 272.174C430.487 272.551 430.633 272.913 430.895 273.184C431.156 273.454 431.513 273.613 431.889 273.626Z" fill="black"/>
<path d="M436.767 268.284C437.143 268.271 437.5 268.112 437.761 267.841C438.023 267.57 438.169 267.209 438.169 266.832C438.169 266.455 438.023 266.094 437.761 265.823C437.5 265.552 437.143 265.393 436.767 265.38C436.391 265.393 436.034 265.552 435.772 265.823C435.511 266.094 435.365 266.455 435.365 266.832C435.365 267.209 435.511 267.57 435.772 267.841C436.034 268.112 436.391 268.271 436.767 268.284Z" fill="black"/>
<path d="M442.109 264.103C442.485 264.09 442.842 263.931 443.104 263.661C443.365 263.39 443.511 263.028 443.511 262.651C443.511 262.275 443.365 261.913 443.104 261.642C442.842 261.371 442.485 261.213 442.109 261.2C441.733 261.213 441.376 261.371 441.114 261.642C440.853 261.913 440.707 262.275 440.707 262.651C440.707 263.028 440.853 263.39 441.114 263.661C441.376 263.931 441.733 264.09 442.109 264.103Z" fill="black"/>
<path d="M447.219 260.619C447.595 260.606 447.952 260.448 448.213 260.177C448.475 259.906 448.621 259.544 448.621 259.167C448.621 258.791 448.475 258.429 448.213 258.158C447.952 257.887 447.595 257.729 447.219 257.716C446.843 257.729 446.486 257.887 446.224 258.158C445.963 258.429 445.816 258.791 445.816 259.167C445.816 259.544 445.963 259.906 446.224 260.177C446.486 260.448 446.843 260.606 447.219 260.619Z" fill="black"/>
</svg>
