<svg width="700" height="550" viewBox="0 0 700 550" fill="none" xmlns="http://www.w3.org/2000/svg">
<path d="M393.685 315.482C394.977 308.827 395.558 302.053 395.418 295.275C395.212 282.747 394.249 270.243 392.534 257.832C392.834 261.8 392.989 264.132 392.989 264.132C350.532 267.819 341.406 243.276 335.803 213.024C333.443 213.714 331.125 214.545 328.864 215.511C327.457 216.656 326.178 217.951 325.051 219.372C329.88 225.334 333.451 230.405 333.451 230.405L339.346 239.94C339.805 240.68 340.216 241.447 340.577 242.239C341.488 244.235 343.364 248.48 345.432 254.096C348.345 262.013 344.068 259.003 344.068 259.003C346.129 268.835 343.506 268.739 343.506 268.739C340.913 270.577 338.929 261.461 338.706 260.416C339.451 265.603 340.138 271.603 337.138 270.606C334.361 269.687 333.974 263.609 333.925 262.622C333.925 263.6 333.809 269.687 330.983 270.529C327.906 271.448 328.506 263.919 328.506 263.919C327.635 270.093 326.028 270.693 324.722 269.445C323.077 267.877 323.967 255.529 323.967 255.529C320.038 251.706 319.467 247.641 319.07 243.838C318.799 241.205 319.62 238.776 319.939 237.024C319.32 236.666 317.212 235.747 316.573 235.35L315.828 237.145C311.193 248.236 308.14 259.924 306.758 271.865C306.049 278.129 305.589 285.034 305.463 292.633C305.463 292.633 307.728 317.795 307.641 325.711C307.505 336.85 305.221 343.005 302.202 358.354C300.886 365.08 294.344 400.752 297.857 422.382C297.857 422.382 305.831 425.566 325.486 422.924C339.055 421.05 352.713 419.891 366.404 419.45C376.177 419.205 385.779 416.826 394.537 412.482C394.537 412.482 387.724 345.744 393.685 315.482ZM301.941 420.466C301.565 420.452 301.208 420.294 300.947 420.023C300.686 419.752 300.54 419.39 300.54 419.014C300.54 418.638 300.686 418.276 300.947 418.005C301.208 417.735 301.565 417.576 301.941 417.562C302.317 417.576 302.673 417.735 302.934 418.005C303.195 418.276 303.342 418.638 303.342 419.014C303.342 419.39 303.195 419.752 302.934 420.023C302.673 420.294 302.317 420.452 301.941 420.466ZM310.302 421.163C309.926 421.149 309.57 420.99 309.309 420.72C309.047 420.449 308.901 420.087 308.901 419.711C308.901 419.335 309.047 418.973 309.309 418.702C309.57 418.431 309.926 418.273 310.302 418.259C310.678 418.273 311.035 418.431 311.296 418.702C311.557 418.973 311.703 419.335 311.703 419.711C311.703 420.087 311.557 420.449 311.296 420.72C311.035 420.99 310.678 421.149 310.302 421.163ZM319.128 420.234C318.752 420.22 318.396 420.061 318.135 419.791C317.873 419.52 317.727 419.158 317.727 418.782C317.727 418.406 317.873 418.044 318.135 417.773C318.396 417.502 318.752 417.344 319.128 417.33C319.504 417.344 319.86 417.503 320.121 417.773C320.383 418.044 320.529 418.406 320.529 418.782C320.529 419.158 320.383 419.52 320.121 419.79C319.86 420.061 319.504 420.22 319.128 420.234L319.128 420.234ZM329.58 418.84C329.204 418.827 328.848 418.668 328.587 418.397C328.325 418.126 328.179 417.765 328.179 417.388C328.179 417.012 328.325 416.65 328.587 416.38C328.848 416.109 329.204 415.95 329.58 415.937C329.956 415.95 330.312 416.109 330.574 416.38C330.835 416.65 330.981 417.012 330.981 417.388C330.981 417.765 330.835 418.126 330.573 418.397C330.312 418.668 329.956 418.826 329.58 418.84L329.58 418.84ZM339.8 417.446C339.424 417.433 339.068 417.274 338.806 417.003C338.545 416.733 338.399 416.371 338.399 415.995C338.399 415.618 338.545 415.257 338.806 414.986C339.068 414.715 339.424 414.556 339.8 414.543C340.176 414.556 340.532 414.715 340.793 414.986C341.055 415.257 341.201 415.618 341.201 415.995C341.201 416.371 341.055 416.733 340.793 417.003C340.532 417.274 340.176 417.433 339.8 417.446H339.8ZM348.626 416.517C348.25 416.504 347.894 416.345 347.632 416.074C347.371 415.804 347.225 415.442 347.225 415.066C347.225 414.689 347.371 414.328 347.632 414.057C347.894 413.786 348.25 413.627 348.626 413.614C349.002 413.627 349.358 413.786 349.619 414.057C349.881 414.328 350.027 414.689 350.027 415.066C350.027 415.442 349.881 415.803 349.619 416.074C349.358 416.345 349.002 416.504 348.626 416.517H348.626ZM358.381 416.517C358.005 416.504 357.649 416.345 357.388 416.074C357.126 415.803 356.98 415.442 356.98 415.066C356.98 414.689 357.126 414.328 357.388 414.057C357.649 413.786 358.005 413.627 358.381 413.614C358.757 413.627 359.113 413.786 359.374 414.057C359.636 414.328 359.781 414.689 359.781 415.066C359.781 415.442 359.636 415.803 359.374 416.074C359.113 416.345 358.757 416.504 358.381 416.517H358.381ZM367.672 416.517C367.296 416.504 366.939 416.345 366.678 416.074C366.417 415.804 366.271 415.442 366.271 415.066C366.271 414.689 366.417 414.328 366.678 414.057C366.939 413.786 367.296 413.627 367.672 413.614C368.048 413.627 368.404 413.786 368.665 414.057C368.926 414.328 369.072 414.689 369.072 415.066C369.072 415.442 368.926 415.803 368.665 416.074C368.404 416.345 368.048 416.504 367.672 416.517ZM376.962 415.124C376.586 415.11 376.23 414.952 375.969 414.681C375.707 414.41 375.561 414.048 375.561 413.672C375.561 413.296 375.707 412.934 375.969 412.663C376.23 412.393 376.586 412.234 376.962 412.22C377.338 412.234 377.694 412.393 377.956 412.663C378.217 412.934 378.363 413.296 378.363 413.672C378.363 414.048 378.217 414.41 377.956 414.681C377.694 414.951 377.338 415.11 376.962 415.124V415.124ZM385.324 413.498C384.948 413.484 384.592 413.326 384.33 413.055C384.069 412.784 383.923 412.422 383.923 412.046C383.923 411.67 384.069 411.308 384.33 411.038C384.592 410.767 384.948 410.608 385.324 410.595C385.7 410.608 386.056 410.767 386.317 411.038C386.579 411.308 386.724 411.67 386.724 412.046C386.724 412.422 386.578 412.784 386.317 413.055C386.056 413.326 385.7 413.484 385.324 413.498H385.324ZM392.524 407.575C392.901 407.588 393.258 407.746 393.52 408.017C393.782 408.288 393.929 408.65 393.929 409.027C393.929 409.404 393.782 409.766 393.52 410.037C393.258 410.308 392.901 410.466 392.524 410.478C392.147 410.466 391.79 410.308 391.528 410.037C391.265 409.766 391.119 409.404 391.119 409.027C391.119 408.65 391.265 408.287 391.528 408.016C391.79 407.746 392.147 407.587 392.524 407.575L392.524 407.575Z" fill="#020202"/>
<path d="M378.221 167.019L365.957 157.078C361.859 153.782 357.786 150.457 353.643 147.226C349.498 144 345.337 140.794 341.1 137.732C338.977 136.214 336.823 134.725 334.63 133.405C333.6 132.752 332.508 132.204 331.369 131.769C331.144 131.697 330.912 131.649 330.677 131.626C330.375 131.6 330.069 131.582 329.758 131.574C329.139 131.551 328.507 131.56 327.874 131.582C325.313 131.702 322.765 132.01 320.249 132.503C317.766 132.92 315.343 133.638 313.035 134.642C312.547 134.869 312.088 135.154 311.668 135.49C311.547 135.588 311.445 135.707 311.366 135.841C311.32 135.918 311.353 135.833 311.343 135.87C311.358 135.888 311.344 135.919 311.409 135.982C311.43 136.011 311.449 136.041 311.466 136.072L311.624 136.266L312.261 137.046L313.533 138.607C313.952 139.13 314.389 139.64 314.794 140.173L315.921 141.837L317.047 143.5L317.607 144.332L318.106 145.201C323.636 154.386 326.89 164.619 329.255 174.878C331.684 185.154 333.224 195.585 335.108 205.93C337.028 216.248 339.058 226.635 343.002 236.256C344.878 241.051 347.487 245.526 350.736 249.522C352.359 251.475 354.19 253.245 356.195 254.802C358.206 256.342 360.371 257.669 362.655 258.763C364.97 259.813 367.372 260.663 369.832 261.305C372.317 261.919 374.844 262.352 377.391 262.6C382.535 263.075 387.711 263.071 392.854 262.589L391.442 264.234L390.983 257.949L390.979 257.832C390.975 257.927 390.988 258.021 391.015 258.112L390.973 257.851C390.439 250.391 389.853 242.934 389.215 235.479C388.607 228.023 387.92 220.575 387.155 213.134C386.353 205.699 385.578 198.259 384.523 190.859C383.601 183.442 382.206 176.092 380.347 168.853L380.345 168.847C380.335 168.811 380.339 168.772 380.357 168.739C380.375 168.706 380.406 168.681 380.441 168.67C380.477 168.658 380.516 168.662 380.55 168.678C380.584 168.695 380.61 168.725 380.622 168.76C381.862 172.308 382.897 175.924 383.721 179.59L384.365 182.334L384.938 185.091C385.331 186.927 385.676 188.773 385.999 190.621C387.315 198.01 388.502 205.424 389.442 212.866C390.399 220.306 391.268 227.755 392.048 235.214C392.816 242.674 393.476 250.143 394.073 257.618L394.031 257.358C394.065 257.514 394.084 257.672 394.087 257.831L394.083 257.715L394.534 264.029C394.562 264.433 394.432 264.831 394.169 265.139C393.907 265.446 393.535 265.639 393.132 265.675L393.122 265.675C387.78 266.188 382.4 266.152 377.066 265.567C374.379 265.267 371.718 264.773 369.102 264.088C366.478 263.367 363.92 262.422 361.458 261.262C356.531 258.869 352.202 255.403 348.79 251.117C345.478 246.859 342.856 242.107 341.021 237.034C339.228 232.033 337.807 226.907 336.77 221.697C335.684 216.522 334.851 211.314 334.045 206.111C332.397 195.716 330.874 185.292 328.254 175.123C326.994 170.04 325.375 165.052 323.41 160.197C323.165 159.592 322.942 158.979 322.679 158.382L321.863 156.605C321.303 155.429 320.822 154.215 320.176 153.085L318.338 149.648L316.279 146.349L315.765 145.525L315.192 144.742L314.046 143.178L312.901 141.615L311.653 140.138L310.401 138.664L309.776 137.927L309.619 137.742L309.381 137.436C309.206 137.211 309.069 136.959 308.975 136.689C308.756 136.076 308.787 135.401 309.06 134.81C309.271 134.353 309.575 133.945 309.951 133.611C310.537 133.098 311.191 132.668 311.894 132.334C314.405 131.214 317.046 130.411 319.756 129.942C322.407 129.429 325.095 129.125 327.794 129.034C328.475 129.017 329.16 129.014 329.855 129.046C330.201 129.058 330.552 129.081 330.905 129.116C331.324 129.161 331.737 129.249 332.137 129.379C333.459 129.881 334.724 130.521 335.91 131.289C338.214 132.702 340.347 134.275 342.476 135.855C346.72 139.022 350.801 142.366 354.826 145.771C362.895 152.556 370.757 159.566 378.412 166.801C378.44 166.826 378.456 166.862 378.458 166.899C378.459 166.937 378.447 166.974 378.422 167.002C378.397 167.03 378.362 167.048 378.325 167.051C378.287 167.054 378.25 167.043 378.221 167.019L378.221 167.019Z" fill="#020202"/>
<path d="M345.195 124.33C344.34 123.881 343.57 123.288 342.918 122.576C342.25 121.876 341.672 121.095 341.198 120.251C340.72 119.409 340.351 118.509 340.101 117.574C339.841 116.646 339.726 115.684 339.758 114.721C340.13 115.612 340.428 116.485 340.814 117.324C341.177 118.163 341.586 118.981 342.04 119.775C342.485 120.575 342.972 121.35 343.5 122.098C344.029 122.853 344.587 123.59 345.195 124.33Z" fill="#020202"/>
<path d="M348.407 126.272C350.045 127.134 351.875 127.566 353.726 127.527C354.597 127.498 355.451 127.284 356.233 126.899C357.014 126.513 357.705 125.966 358.258 125.293C359.359 123.882 360.15 122.254 360.578 120.516C361.064 118.74 361.389 116.924 361.55 115.089C361.747 113.237 361.851 111.39 361.88 109.515C361.938 107.641 361.932 105.763 361.837 103.89C361.762 102.017 361.552 100.151 361.208 98.3082C360.89 96.4755 360.222 94.7214 359.239 93.1417L359.688 93.1814C357.045 95.741 354.374 98.2591 351.515 100.6C348.623 102.916 345.693 105.161 341.88 106.418C340.847 106.668 339.77 106.668 338.737 106.417C338.212 106.288 337.707 106.089 337.235 105.826L336.67 105.49C336.574 105.436 336.468 105.402 336.359 105.389C336.288 105.382 336.293 105.394 336.265 105.41C336.202 105.46 336.149 105.522 336.11 105.592C335.942 105.888 335.82 106.208 335.751 106.541C335.582 107.371 335.493 108.216 335.488 109.064C335.462 110.846 335.37 112.691 336.004 113.962C336.065 114.103 336.146 114.234 336.243 114.353C336.312 114.457 336.401 114.545 336.505 114.613C336.586 114.705 336.703 114.683 336.79 114.757C336.918 114.753 337.032 114.78 337.171 114.781C337.905 114.646 338.601 114.351 339.209 113.918L339.294 113.868C339.401 113.805 339.52 113.764 339.643 113.747C339.767 113.731 339.892 113.738 340.012 113.77C340.133 113.801 340.246 113.856 340.345 113.932C340.444 114.007 340.527 114.101 340.59 114.208C340.636 114.287 340.67 114.371 340.692 114.459C340.998 115.726 341.233 117.008 341.394 118.3C341.566 119.592 341.65 120.894 341.647 122.197C341.666 123.533 341.483 124.864 341.107 126.146C340.93 126.834 340.619 127.481 340.192 128.049C339.765 128.617 339.23 129.095 338.618 129.455L338.856 128.854C339.238 130.055 339.606 131.263 339.958 132.478C340.318 133.692 340.682 134.906 341.021 136.132L341.023 136.138C341.029 136.161 341.026 136.186 341.015 136.208C341.004 136.23 340.985 136.246 340.962 136.255C340.939 136.263 340.914 136.262 340.891 136.252C340.869 136.243 340.851 136.225 340.841 136.203C340.325 135.043 339.833 133.87 339.338 132.697C338.837 131.526 338.349 130.348 337.875 129.163C337.835 129.061 337.831 128.947 337.865 128.843C337.9 128.739 337.969 128.65 338.063 128.592L338.113 128.56C338.565 128.233 338.949 127.82 339.241 127.345C339.533 126.869 339.729 126.34 339.817 125.789C340.054 124.615 340.141 123.416 340.075 122.22C340.016 120.994 339.874 119.774 339.652 118.567C339.435 117.359 339.157 116.162 338.82 114.982L340.304 115.524C339.428 116.175 338.409 116.606 337.332 116.781C337.002 116.792 336.672 116.775 336.346 116.73C336.007 116.642 335.683 116.502 335.386 116.317C335.104 116.138 334.854 115.912 334.649 115.648C334.452 115.416 334.286 115.16 334.152 114.887C333.712 113.925 333.467 112.886 333.432 111.829C333.418 111.582 333.41 111.314 333.414 111.074L333.411 110.385C333.403 109.931 333.414 109.456 333.436 108.978C333.472 107.994 333.605 107.015 333.834 106.057C333.971 105.497 334.203 104.964 334.521 104.483C334.733 104.169 335.015 103.91 335.346 103.726C335.722 103.522 336.152 103.444 336.575 103.502C336.92 103.548 337.254 103.66 337.557 103.833C337.688 103.904 337.822 103.996 337.929 104.063L338.163 104.214C338.487 104.406 338.834 104.554 339.197 104.654C339.947 104.857 340.735 104.878 341.494 104.716C343.168 104.221 344.774 103.524 346.279 102.64C347.84 101.753 349.369 100.776 350.858 99.7348C353.842 97.6375 356.656 95.3072 359.272 92.7657L359.278 92.7602C359.333 92.7064 359.407 92.6766 359.483 92.6773C359.56 92.6779 359.634 92.7091 359.688 92.7639L359.721 92.8054C360.742 94.4516 361.484 96.2552 361.917 98.1433C362.387 100.001 362.744 101.885 362.988 103.785C363.54 107.589 363.638 111.445 363.28 115.272C363.082 117.21 362.7 119.124 362.137 120.988C361.582 122.922 360.598 124.706 359.259 126.207C358.545 126.96 357.682 127.555 356.724 127.953C355.77 128.326 354.747 128.492 353.724 128.44C351.765 128.286 349.888 127.592 348.301 126.434C348.281 126.419 348.267 126.398 348.262 126.375C348.258 126.351 348.262 126.326 348.274 126.306C348.287 126.285 348.306 126.269 348.33 126.263C348.353 126.256 348.378 126.258 348.4 126.268L348.407 126.272Z" fill="#020202"/>
<path d="M356.419 148.284C356.148 146.538 355.986 144.83 355.858 143.119C355.728 141.409 355.616 139.702 355.565 137.991C355.505 136.281 355.494 134.566 355.533 132.846C355.553 131.108 355.678 129.372 355.907 127.649V127.649L355.908 127.644L355.91 127.649V127.649C356.436 129.314 356.815 131.023 357.041 132.754C357.29 134.469 357.442 136.196 357.498 137.927C357.557 139.662 357.512 141.399 357.362 143.128C357.232 144.876 356.916 146.604 356.419 148.284Z" fill="#020202"/>
<path d="M380.475 168.806C381.375 169.532 383.175 179.239 383.175 179.239C387.043 177.98 390.695 176.136 394.004 173.771L397.091 168.806H380.475ZM385.497 176.413C385.121 176.4 384.765 176.241 384.504 175.97C384.242 175.699 384.096 175.338 384.096 174.961C384.096 174.585 384.242 174.224 384.504 173.953C384.765 173.682 385.121 173.523 385.497 173.51C385.873 173.523 386.23 173.682 386.491 173.953C386.752 174.224 386.898 174.585 386.898 174.961C386.898 175.338 386.752 175.699 386.491 175.97C386.23 176.241 385.873 176.4 385.497 176.413ZM390.723 173.626C390.347 173.613 389.991 173.454 389.73 173.183C389.468 172.912 389.322 172.551 389.322 172.174C389.322 171.798 389.468 171.436 389.73 171.166C389.991 170.895 390.347 170.736 390.723 170.723C391.099 170.736 391.455 170.895 391.717 171.166C391.978 171.436 392.124 171.798 392.124 172.174C392.124 172.551 391.978 172.912 391.717 173.183C391.455 173.454 391.099 173.613 390.723 173.626Z" fill="#020202"/>
<path d="M338.933 128.606C336.325 128.996 332.95 129.371 330.627 129.887C330.627 129.887 339.337 134.55 339.773 135.682L341.079 137.184L338.933 128.606Z" fill="#020202"/>
<path d="M378.316 167.906V167.2C378.781 167.955 378.316 167.906 378.316 167.906Z" fill="#020202"/>
<path d="M378.317 162.884V167.2C377.446 165.758 373.275 161.403 356.416 148.28C351.422 144.399 356.087 129.883 356.087 129.883C356.087 129.883 370.894 129.796 376.584 134.915C382.275 140.044 382.749 143.925 382.749 143.925C378.868 144.312 378.326 146.199 378.326 146.199L378.317 162.884C378.194 161.567 377.924 160.269 377.513 159.013C376.726 156.525 375.613 154.153 374.204 151.958C373.502 150.837 372.678 149.798 371.745 148.861C372.011 150.148 372.383 151.41 372.858 152.635C373.303 153.845 373.797 155.035 374.339 156.196C374.881 157.358 375.481 158.5 376.13 159.622C376.768 160.767 377.5 161.858 378.317 162.884Z" fill="#020202"/>
<path d="M380.474 168.809C381.521 170.771 382.323 172.855 382.861 175.013C383.14 176.107 383.333 177.222 383.437 178.347C383.493 178.921 383.501 179.498 383.463 180.073C383.46 180.654 383.417 181.235 383.333 181.81C383.162 182.996 382.786 184.143 382.221 185.2C381.641 186.282 380.792 187.198 379.756 187.859C378.755 188.501 377.613 188.893 376.428 189.002C375.3 189.126 374.158 189.018 373.072 188.686C375.171 188.621 377.197 187.904 378.87 186.635C379.611 186.014 380.201 185.233 380.597 184.35C381.024 183.458 381.302 182.501 381.421 181.519C381.685 179.448 381.671 177.351 381.381 175.283C381.133 173.154 380.76 171.011 380.474 168.809Z" fill="#020202"/>
<path d="M330.971 190.583C332.458 191.101 333.984 191.497 335.535 191.769C337.013 192.016 338.516 192.065 340.007 191.915C341.492 191.776 342.948 191.42 344.329 190.856C345.048 190.577 345.752 190.26 346.437 189.905C347.146 189.561 347.795 189.11 348.56 188.76C348.094 189.441 347.57 190.082 346.995 190.674C346.391 191.256 345.725 191.77 345.008 192.205C343.556 193.124 341.906 193.685 340.194 193.841C338.49 194.011 336.77 193.801 335.157 193.225C333.571 192.69 332.136 191.784 330.971 190.583Z" fill="#020202"/>
<path d="M321.797 204.559C322.59 205.326 323.338 206.139 324.037 206.992C324.744 207.829 325.41 208.692 326.049 209.572C327.339 211.323 328.532 213.143 329.623 215.024L328.806 214.614C330.03 214.586 331.255 214.593 332.484 214.65C333.724 214.698 334.96 214.82 336.185 215.017C334.997 215.376 333.789 215.664 332.567 215.878C331.357 216.101 330.144 216.273 328.928 216.41C328.781 216.426 328.632 216.404 328.498 216.344C328.363 216.284 328.246 216.189 328.16 216.069L328.111 216C326.846 214.231 325.679 212.395 324.615 210.499C324.075 209.554 323.563 208.591 323.092 207.603C322.602 206.614 322.169 205.598 321.797 204.559Z" fill="#020202"/>
<path d="M388.531 198.264C388.444 194.913 388.657 191.56 389.17 188.247C389.649 184.914 390.407 181.627 391.437 178.421C392.451 175.166 393.947 172.081 395.875 169.269C396.863 167.856 398.058 166.599 399.42 165.541C400.775 164.485 402.383 163.801 404.083 163.557C400.921 164.777 398.783 167.36 397.137 170.099C396.313 171.493 395.591 172.945 394.977 174.443C394.347 175.941 393.761 177.464 393.274 179.026C392.235 182.129 391.421 185.319 390.648 188.529C389.892 191.745 389.214 194.988 388.531 198.264Z" fill="#020202"/>
<path d="M388.788 217.235C390.055 218.419 391.588 219.283 393.258 219.753C394.909 220.19 396.648 220.164 398.284 219.677C399.907 219.248 401.372 218.36 402.505 217.121C403.624 215.872 404.494 214.42 405.068 212.844C406.178 209.625 406.674 206.226 406.529 202.824C406.486 201.134 406.277 199.452 405.904 197.804C405.501 196.077 405.196 194.33 404.992 192.569C404.567 189.073 404.328 185.579 404.169 182.085L404.066 179.455C404.04 178.549 404.066 177.642 404.142 176.739C404.292 174.928 404.65 173.14 405.207 171.41C405.776 169.68 406.547 168.024 407.506 166.476C407.987 165.69 408.527 164.941 409.119 164.234C409.271 164.058 409.459 163.861 409.616 163.707C409.737 163.589 409.848 163.461 409.948 163.325C410.146 163.06 410.296 162.762 410.393 162.445C410.595 161.812 410.596 161.132 410.396 160.499C410.257 160.178 410.076 159.877 409.857 159.604C409.824 159.558 409.821 159.567 409.703 159.393C409.623 159.262 409.564 159.119 409.528 158.969C409.477 158.739 409.474 158.5 409.521 158.268C409.586 157.961 409.699 157.666 409.856 157.394C410.073 157.081 410.259 156.748 410.411 156.4C410.5 156.169 410.505 155.915 410.427 155.682C410.375 155.536 410.308 155.397 410.226 155.267C410.131 155.1 410.012 154.959 409.841 154.617C409.603 154.048 409.537 153.421 409.65 152.814C409.654 152.788 409.66 152.762 409.667 152.737L409.672 152.724C409.785 152.374 409.798 152 409.709 151.643C409.621 151.286 409.434 150.961 409.171 150.705C408.711 150.258 408.367 149.706 408.17 149.097C408.107 148.885 408.111 148.864 408.079 148.787C408.052 148.716 408.018 148.647 407.979 148.581C407.898 148.449 407.794 148.334 407.671 148.241C407.583 148.168 407.318 148.037 407.098 147.913L406.423 147.544L405.074 146.805L403.724 146.067L403.063 145.707C402.726 145.531 402.345 145.457 401.967 145.495C401.589 145.534 401.231 145.683 400.937 145.924L400.354 146.411L397.985 148.374L397.392 148.865C397.21 149.006 397.037 149.157 396.873 149.319C396.603 149.61 396.431 149.98 396.384 150.375C396.345 150.776 396.448 151.177 396.675 151.51C396.901 151.843 397.237 152.086 397.624 152.197C397.684 152.216 397.739 152.247 397.787 152.288C397.834 152.329 397.874 152.378 397.902 152.434C397.931 152.49 397.948 152.551 397.953 152.614C397.958 152.677 397.95 152.74 397.931 152.799C397.917 152.84 397.898 152.878 397.875 152.914C397.749 153.117 397.659 153.341 397.609 153.575C397.558 153.806 397.562 154.047 397.621 154.277C397.684 154.511 397.799 154.727 397.958 154.909C398.133 155.108 398.333 155.283 398.555 155.427L398.574 155.44C398.614 155.469 398.649 155.505 398.676 155.547C398.703 155.589 398.721 155.636 398.729 155.685C398.738 155.734 398.737 155.784 398.726 155.833C398.715 155.881 398.695 155.927 398.666 155.968L398.663 155.973C398.418 156.322 398.224 156.705 398.088 157.11C397.943 157.523 397.859 157.955 397.838 158.393C397.8 159.283 398.002 160.167 398.424 160.952L398.426 160.956C398.447 160.996 398.455 161.042 398.45 161.086C398.444 161.131 398.425 161.173 398.395 161.207C398.04 161.574 397.764 162.009 397.582 162.487C397.4 162.964 397.318 163.473 397.339 163.983C397.397 164.5 397.611 164.988 397.952 165.381C398.12 165.585 398.306 165.773 398.506 165.946C398.716 166.107 398.938 166.255 399.155 166.412C398.928 166.273 398.694 166.141 398.469 165.994C398.251 165.834 398.048 165.655 397.86 165.461C397.467 165.068 397.202 164.565 397.1 164.019C397.003 163.465 397.057 162.895 397.255 162.368C397.443 161.84 397.719 161.348 398.071 160.912L398.043 161.167C397.795 160.748 397.598 160.301 397.458 159.834C397.314 159.362 397.242 158.871 397.243 158.378C397.239 157.881 397.307 157.387 397.444 156.91C397.579 156.421 397.785 155.954 398.057 155.526L398.165 156.071C397.868 155.901 397.597 155.691 397.36 155.446C397.102 155.182 396.91 154.861 396.798 154.51C396.687 154.159 396.658 153.787 396.715 153.423C396.769 153.059 396.891 152.708 397.074 152.389L397.326 153.106C396.728 152.935 396.202 152.575 395.825 152.08C395.439 151.564 395.253 150.925 395.302 150.282C395.35 149.648 395.598 149.046 396.01 148.562C396.201 148.352 396.404 148.156 396.62 147.974L397.192 147.459L399.481 145.404L400.064 144.889C400.308 144.677 400.581 144.502 400.876 144.369C401.323 144.17 401.807 144.071 402.296 144.079C402.785 144.087 403.266 144.201 403.706 144.414L404.407 144.769L405.777 145.467L407.147 146.165L407.832 146.515C408.097 146.64 408.353 146.781 408.6 146.937C408.896 147.143 409.149 147.403 409.346 147.704C409.445 147.854 409.529 148.014 409.597 148.18C409.651 148.319 409.697 148.461 409.735 148.604C409.866 148.972 410.089 149.299 410.382 149.556C410.842 150.025 411.176 150.601 411.355 151.233C411.526 151.883 411.515 152.567 411.324 153.211L411.346 153.122C411.308 153.378 411.335 153.64 411.426 153.883C411.693 154.264 411.919 154.673 412.099 155.102C412.308 155.698 412.315 156.348 412.117 156.948C411.945 157.407 411.722 157.846 411.453 158.256C411.392 158.362 411.347 158.476 411.318 158.595C411.319 158.65 411.298 158.704 411.261 158.744C411.224 158.785 411.173 158.81 411.118 158.814C411.063 158.818 411.008 158.801 410.965 158.766C410.923 158.732 410.895 158.682 410.887 158.627C410.88 158.573 410.894 158.517 410.926 158.472C410.958 158.428 411.005 158.397 411.06 158.386C411.114 158.375 411.17 158.386 411.216 158.415C411.263 158.444 411.297 158.49 411.311 158.543C411.32 158.493 411.164 158.29 411.304 158.469C411.637 158.872 411.91 159.321 412.115 159.802C412.321 160.32 412.42 160.874 412.406 161.431C412.409 161.959 412.334 162.485 412.183 162.991C412.027 163.51 411.783 163.998 411.463 164.435C411.306 164.651 411.132 164.854 410.942 165.043C410.79 165.194 410.679 165.314 410.546 165.468C410.024 166.101 409.548 166.772 409.123 167.475C408.254 168.899 407.556 170.42 407.044 172.007C406.27 174.396 405.903 176.899 405.958 179.409L406.046 182.003C406.198 185.47 406.375 188.938 406.727 192.369C406.894 194.074 407.158 195.769 407.518 197.443C407.881 199.204 408.057 200.998 408.045 202.796C408.107 206.38 407.464 209.942 406.153 213.279C405.464 214.959 404.457 216.491 403.186 217.789C401.88 219.067 400.236 219.944 398.447 220.318C396.696 220.735 394.864 220.662 393.152 220.107C391.48 219.528 389.98 218.541 388.788 217.235Z" fill="#020202"/>
<path d="M407.181 150.029C406.725 149.823 406.294 149.582 405.862 149.344L405.226 148.97C405.043 148.862 404.847 148.778 404.643 148.72C404.248 148.61 403.831 148.613 403.438 148.728C403.247 148.783 403.064 148.863 402.894 148.966C402.709 149.09 402.533 149.226 402.366 149.373C400.843 150.617 399.205 151.715 397.477 152.652C398.776 151.176 400.211 149.825 401.763 148.617C401.969 148.448 402.186 148.292 402.413 148.153C402.788 147.934 403.209 147.808 403.641 147.784C404.074 147.76 404.506 147.839 404.903 148.014C405.158 148.127 405.394 148.278 405.603 148.463L406.144 148.964C406.497 149.309 406.852 149.652 407.181 150.029Z" fill="#020202"/>
<path d="M407.908 153.98C407.041 153.613 406.196 153.196 405.379 152.729C405.021 152.559 404.628 152.475 404.232 152.485C403.836 152.494 403.447 152.596 403.098 152.783C402.786 152.948 402.38 153.29 402.005 153.549C401.615 153.812 401.236 154.09 400.834 154.34C400.043 154.866 399.217 155.337 398.362 155.75C398.987 155.035 399.66 154.363 400.376 153.739C400.723 153.418 401.092 153.126 401.449 152.82C401.826 152.498 402.224 152.201 402.639 151.932C403.124 151.672 403.67 151.549 404.219 151.575C404.768 151.601 405.299 151.775 405.758 152.078C406.522 152.657 407.241 153.292 407.908 153.98Z" fill="#020202"/>
<path d="M407.181 158.532C406.75 158.408 406.341 158.248 405.93 158.089C405.567 157.909 405.181 157.777 404.783 157.698C404.42 157.648 404.049 157.68 403.699 157.792C403.341 157.913 403.01 158.106 402.728 158.358C401.329 159.414 399.824 160.32 398.235 161.06C399.416 159.765 400.73 158.599 402.155 157.579C402.539 157.267 402.984 157.039 403.461 156.91C403.956 156.794 404.474 156.814 404.959 156.967C405.402 157.128 405.811 157.369 406.165 157.679C406.51 157.952 406.856 158.223 407.181 158.532Z" fill="#020202"/>
<path d="M378.418 146.879C378.399 150.219 378.593 153.56 378.824 156.9C379.054 160.241 379.216 163.581 379.186 166.922C379.18 167.444 379.173 167.521 379.269 167.677C379.311 167.753 379.369 167.818 379.439 167.87C379.509 167.921 379.59 167.957 379.675 167.974L382.063 168.072L387.074 168.308C390.414 168.501 393.755 168.55 397.095 168.5L396.867 168.601C397.535 167.83 398.216 167.07 398.871 166.287L398.899 166.836L397.576 165.741L397.903 165.855C397.293 165.894 396.684 165.76 396.147 165.466C395.568 165.18 395.105 164.704 394.833 164.118C394.715 163.808 394.658 163.478 394.666 163.147L394.638 162.375L394.58 160.83L394.455 154.652L394.426 151.563C394.425 151.024 394.408 150.589 394.42 149.963C394.455 149.225 394.736 148.52 395.22 147.961C395.482 147.657 395.807 147.413 396.172 147.246C396.537 147.079 396.934 146.992 397.336 146.992L397.486 146.997L397.562 147C397.562 147 397.582 147.002 397.572 147L397.477 146.99C397.342 146.985 397.208 147.013 397.086 147.072L397.009 147.116L397.013 147.112L397.029 147.099L397.063 147.073L397.329 146.858L397.902 146.379L400.202 144.357L400.647 146.136C398.756 145.677 396.783 145.31 394.833 144.995C392.875 144.676 390.911 144.409 388.936 144.21C386.96 143.998 384.967 143.983 382.988 144.166C382.498 144.231 382.007 144.308 381.517 144.397C381.03 144.498 380.56 144.657 380.078 144.785C379.61 144.903 379.193 145.172 378.893 145.551C378.593 145.929 378.426 146.396 378.418 146.879ZM378.225 146.879C378.225 146.349 378.395 145.832 378.711 145.406C379.026 144.98 379.47 144.666 379.976 144.51C380.455 144.345 380.929 144.146 381.418 144.008L382.895 143.614C384.895 143.191 386.928 142.948 388.972 142.89C391.013 142.81 393.058 142.886 395.088 143.116C397.12 143.347 399.14 143.683 401.138 144.122C401.323 144.163 401.493 144.254 401.63 144.386C401.766 144.518 401.863 144.685 401.91 144.869C401.957 145.052 401.952 145.245 401.896 145.427C401.84 145.608 401.734 145.77 401.592 145.894L401.584 145.901L399.236 147.948L398.623 148.457L398.282 148.719L398.157 148.804L398.094 148.845L398.078 148.856L397.979 148.909C397.829 148.981 397.666 149.022 397.5 149.03L397.369 149.03L397.348 149.03L397.306 149.027C397.191 149.022 397.077 149.042 396.971 149.087C396.865 149.132 396.771 149.2 396.695 149.286C396.493 149.507 396.37 149.79 396.347 150.089L396.305 151.577L396.231 154.665L396.014 160.84L395.933 162.384C395.883 162.823 395.877 163.265 395.915 163.704C396.088 164.074 396.361 164.387 396.704 164.607C397.047 164.828 397.446 164.947 397.854 164.951L397.891 164.95C397.999 164.949 398.103 164.991 398.18 165.066L399.415 166.26L399.437 166.281C399.472 166.315 399.5 166.356 399.519 166.4C399.539 166.445 399.549 166.493 399.55 166.541C399.551 166.59 399.542 166.638 399.524 166.683C399.506 166.729 399.48 166.77 399.446 166.805L399.442 166.808C398.723 167.533 398.03 168.281 397.324 169.018L397.315 169.027C397.287 169.056 397.253 169.08 397.215 169.096C397.177 169.111 397.136 169.119 397.095 169.119C393.755 169.069 390.414 169.118 387.074 169.31L382.063 169.547L380.811 169.605L380.184 169.621C379.937 169.636 379.689 169.633 379.443 169.613C379.113 169.572 378.796 169.459 378.515 169.281C378.234 169.104 377.995 168.868 377.815 168.588C377.637 168.305 377.522 167.985 377.479 167.653C377.443 167.263 377.465 167.159 377.457 166.922C377.427 163.581 377.589 160.241 377.819 156.9C378.05 153.56 378.244 150.219 378.225 146.879Z" fill="#020202"/>
<path d="M293.059 178.472C292.565 181.738 292.201 185.022 291.848 188.302C291.52 191.585 291.259 194.874 291.11 198.164C290.953 201.448 291 204.738 291.252 208.016C291.387 209.642 291.659 211.253 292.068 212.832C292.389 214.4 293.197 215.827 294.377 216.908L294.387 216.916L294.416 216.942C296.244 218.953 298.124 220.922 300.124 222.768C302.114 224.621 304.174 226.404 306.326 228.069C308.466 229.75 310.68 231.329 312.968 232.806C314.108 233.547 315.261 234.267 316.428 234.965C317.566 235.653 318.847 236.113 320.087 236.768C320.14 236.796 320.183 236.84 320.209 236.894C320.235 236.948 320.244 237.008 320.233 237.067L320.231 237.078C319.85 238.677 319.574 240.3 319.404 241.936C319.364 242.742 319.399 243.55 319.509 244.349C319.604 245.168 319.714 245.981 319.862 246.783C320.133 248.38 320.644 249.927 321.378 251.371C322.131 252.799 323.11 254.095 324.276 255.211C324.321 255.256 324.357 255.311 324.38 255.371C324.403 255.432 324.413 255.496 324.409 255.56C324.282 257.404 324.2 259.261 324.168 261.111C324.117 262.953 324.173 264.797 324.336 266.632C324.386 267.085 324.452 267.533 324.543 267.966C324.605 268.363 324.744 268.744 324.954 269.087C325.058 269.223 325.189 269.338 325.339 269.423C325.488 269.508 325.653 269.562 325.824 269.582C325.995 269.557 326.158 269.492 326.3 269.394C326.442 269.296 326.56 269.166 326.644 269.015C327.112 268.263 327.449 267.437 327.642 266.572C327.868 265.683 328.047 264.782 328.178 263.873C328.191 263.789 328.236 263.713 328.304 263.661C328.372 263.609 328.457 263.585 328.541 263.595C328.626 263.604 328.704 263.646 328.759 263.711C328.813 263.776 328.841 263.86 328.835 263.945C328.718 265.327 328.759 266.718 328.956 268.091C329.036 268.751 329.271 269.383 329.642 269.935C329.837 270.169 330.111 270.323 330.412 270.367C330.713 270.412 331.02 270.344 331.275 270.177C331.856 269.846 332.323 269.345 332.612 268.741C332.929 268.124 333.173 267.471 333.337 266.796C333.67 265.429 333.853 264.029 333.883 262.622C333.883 262.611 333.888 262.601 333.896 262.593C333.904 262.585 333.915 262.581 333.926 262.581C333.937 262.581 333.947 262.586 333.955 262.593C333.962 262.601 333.967 262.611 333.967 262.622C333.998 264.043 333.874 265.463 333.598 266.857C333.457 267.564 333.234 268.251 332.932 268.905C332.63 269.595 332.119 270.174 331.471 270.558C331.124 270.753 330.728 270.845 330.331 270.824C329.914 270.781 329.531 270.576 329.265 270.252C328.818 269.646 328.525 268.94 328.41 268.195C328.155 266.776 328.077 265.331 328.176 263.893L328.833 263.965C328.715 264.901 328.548 265.829 328.332 266.747C328.136 267.705 327.775 268.623 327.266 269.458C327.117 269.711 326.911 269.925 326.663 270.084C326.416 270.243 326.135 270.341 325.843 270.371C325.537 270.376 325.235 270.294 324.972 270.136C324.725 269.999 324.506 269.818 324.324 269.603C324.019 269.168 323.815 268.671 323.726 268.147C323.624 267.671 323.553 267.197 323.499 266.726C323.325 264.855 323.259 262.976 323.304 261.098C323.329 259.227 323.404 257.366 323.525 255.497L323.658 255.846C322.432 254.657 321.409 253.275 320.63 251.755C319.875 250.231 319.353 248.602 319.084 246.923C318.941 246.094 318.837 245.262 318.75 244.433C318.641 243.589 318.62 242.735 318.688 241.886C318.899 240.228 319.22 238.586 319.647 236.971L319.791 237.281C318.637 236.638 317.345 236.142 316.163 235.394C315.008 234.669 313.867 233.92 312.74 233.147C310.492 231.599 308.296 229.979 306.154 228.287C304.026 226.581 301.932 224.832 299.913 222.996C297.903 221.152 295.924 219.27 294.039 217.293L294.077 217.327C292.761 216.207 291.837 214.696 291.438 213.015C290.98 211.404 290.677 209.753 290.533 208.085C290.248 204.775 290.215 201.447 290.433 198.132C290.601 194.822 290.934 191.526 291.368 188.246C291.784 184.964 292.341 181.702 292.976 178.457C292.977 178.452 292.979 178.447 292.982 178.442C292.985 178.438 292.989 178.434 292.994 178.431C292.998 178.428 293.004 178.425 293.009 178.424C293.014 178.423 293.02 178.423 293.025 178.424C293.036 178.427 293.045 178.433 293.051 178.442C293.058 178.451 293.06 178.462 293.059 178.472Z" fill="#020202"/>
<path d="M333.967 262.487C334.333 264.196 334.659 265.876 335.128 267.491C335.293 268.318 335.64 269.098 336.145 269.774C336.415 270.089 336.764 270.326 337.157 270.46C337.335 270.526 337.526 270.55 337.715 270.528C337.903 270.507 338.084 270.441 338.242 270.337C338.717 269.713 338.952 268.939 338.903 268.156C338.929 267.31 338.911 266.462 338.85 265.617C338.788 263.906 338.643 262.178 338.664 260.422C338.665 260.412 338.668 260.402 338.675 260.394C338.682 260.386 338.691 260.382 338.701 260.38C338.711 260.379 338.721 260.381 338.73 260.386C338.738 260.392 338.744 260.4 338.747 260.41C339.254 262.089 339.587 263.816 339.739 265.563C339.809 266.451 339.791 267.344 339.685 268.228C339.643 268.687 339.54 269.139 339.377 269.571C339.232 270.052 338.914 270.462 338.486 270.724C338.263 270.828 338.021 270.882 337.776 270.883C337.53 270.884 337.288 270.831 337.065 270.728C336.645 270.549 336.266 270.288 335.948 269.96C335.318 269.313 334.817 268.552 334.471 267.718C334.153 266.886 333.95 266.015 333.869 265.128C333.766 264.25 333.771 263.363 333.883 262.487C333.885 262.476 333.891 262.466 333.9 262.459C333.909 262.452 333.92 262.449 333.931 262.451C333.94 262.453 333.948 262.457 333.954 262.463C333.961 262.47 333.965 262.478 333.967 262.487Z" fill="#020202"/>
<path d="M338.727 260.306C339.136 262.041 339.672 263.744 340.329 265.401C340.638 266.221 341.037 267.004 341.518 267.737C341.738 268.08 342.032 268.37 342.378 268.586C342.528 268.674 342.7 268.713 342.872 268.698C343.044 268.683 343.208 268.615 343.339 268.503C343.374 268.479 343.415 268.463 343.457 268.458L343.517 268.45C343.662 268.389 343.792 268.297 343.899 268.181C344.006 268.065 344.087 267.928 344.137 267.779C344.29 267.409 344.391 267.021 344.437 266.623C344.538 265.793 344.551 264.954 344.477 264.12C344.419 263.273 344.318 262.43 344.174 261.593C344.052 260.751 343.864 259.917 343.701 259.08C343.687 259.006 343.695 258.931 343.724 258.862C343.753 258.793 343.802 258.734 343.864 258.693C343.926 258.652 344 258.631 344.074 258.631C344.149 258.632 344.222 258.655 344.283 258.697C344.77 259.027 345.535 259.343 345.814 259.116C345.901 259.029 345.969 258.925 346.013 258.81C346.056 258.695 346.075 258.572 346.068 258.45C346.09 258.127 346.076 257.803 346.027 257.484C345.763 256.125 345.383 254.792 344.89 253.498C343.948 250.851 342.973 248.212 341.893 245.616C341.336 244.328 340.822 243.01 340.18 241.767L339.178 239.924L338.059 238.136C336.575 235.746 335.038 233.39 333.533 231.015C331.948 228.718 330.187 226.506 328.461 224.294C326.728 222.082 324.97 219.889 323.161 217.742C319.616 213.398 315.76 209.317 311.625 205.531L311.617 205.524C311.573 205.485 311.539 205.436 311.518 205.382C311.496 205.328 311.488 205.27 311.493 205.212C312.044 199.307 312.649 193.406 313.309 187.51C313.31 187.499 313.316 187.489 313.324 187.483C313.332 187.476 313.343 187.472 313.354 187.473C313.365 187.474 313.375 187.479 313.382 187.487C313.389 187.496 313.393 187.506 313.392 187.517C313.075 193.442 312.693 199.361 312.247 205.275L312.115 204.956C314.274 206.786 316.319 208.748 318.236 210.83C320.167 212.892 322.034 215.011 323.817 217.197C327.388 221.568 330.808 226.041 333.953 230.739C335.408 233.152 336.831 235.584 338.307 237.981C339.815 240.367 341.112 242.88 342.185 245.491C343.317 248.071 344.426 250.663 345.452 253.289C346.019 254.604 346.446 255.975 346.727 257.379C346.788 257.755 346.808 258.136 346.784 258.515C346.787 258.743 346.74 258.969 346.645 259.176C346.55 259.383 346.41 259.567 346.235 259.713C346.037 259.835 345.812 259.908 345.58 259.927C345.348 259.946 345.115 259.911 344.899 259.824C344.527 259.703 344.175 259.53 343.852 259.309L344.434 258.926C344.587 259.778 344.765 260.624 344.878 261.486C345.014 262.345 345.105 263.211 345.153 264.08C345.218 264.96 345.19 265.845 345.071 266.72C345.012 267.176 344.886 267.622 344.699 268.043C344.604 268.299 344.443 268.526 344.231 268.699C344.02 268.872 343.766 268.985 343.496 269.027L343.673 268.974C343.451 269.138 343.184 269.233 342.908 269.247C342.632 269.26 342.358 269.192 342.12 269.051C341.711 268.784 341.368 268.428 341.116 268.01C340.64 267.233 340.253 266.404 339.963 265.539C339.398 263.838 338.958 262.098 338.647 260.332L338.646 260.323C338.644 260.313 338.646 260.302 338.652 260.293C338.658 260.284 338.667 260.278 338.678 260.276C338.688 260.274 338.699 260.275 338.708 260.281C338.717 260.287 338.724 260.296 338.726 260.306L338.727 260.306Z" fill="#020202"/>
<path d="M298.928 208.417C299.795 207.652 300.76 207.005 301.798 206.494C302.816 205.963 303.885 205.535 304.989 205.216C306.101 204.874 307.252 204.678 308.415 204.632C309.598 204.535 310.787 204.747 311.864 205.245C310.763 205.398 309.673 205.625 308.602 205.922C307.552 206.203 306.508 206.509 305.456 206.82C303.316 207.489 301.135 208.023 298.928 208.417Z" fill="#020202"/>
<path d="M328.509 270.403C328.214 268.313 328.074 266.203 328.092 264.092C328.072 261.981 328.211 259.872 328.509 257.782C328.807 259.872 328.947 261.981 328.927 264.092C328.945 266.203 328.805 268.313 328.509 270.403Z" fill="#020202"/>
<path d="M335.096 277.023C334.784 275.21 334.564 273.391 334.357 271.571C334.141 269.751 333.99 267.927 333.839 266.102C333.709 264.276 333.58 262.449 333.515 260.618C333.442 258.788 333.382 256.956 333.415 255.117C333.728 256.929 333.948 258.749 334.156 260.569C334.371 262.389 334.522 264.213 334.672 266.038C334.802 267.864 334.931 269.691 334.995 271.522C335.068 273.352 335.128 275.184 335.096 277.023Z" fill="#020202"/>
<path d="M340.086 268.983C339.471 266.615 338.981 264.217 338.618 261.798C338.435 260.593 338.252 259.389 338.095 258.181C337.911 256.977 337.834 255.758 337.535 254.573C338.096 255.674 338.5 256.848 338.736 258.061C339.025 259.255 339.245 260.46 339.443 261.667C339.842 264.086 340.057 266.531 340.086 268.983Z" fill="#020202"/>
<path d="M344.769 260.665C344.405 260.215 344.063 259.748 343.746 259.264C343.731 259.242 343.722 259.216 343.719 259.189L343.716 259.14C343.635 258.195 343.358 257.278 342.904 256.445L342.918 256.472C342.158 255.28 341.549 253.999 341.106 252.656C342.084 253.677 342.93 254.816 343.626 256.046L343.63 256.051L343.641 256.073C343.883 256.544 344.062 257.045 344.174 257.563C344.282 258.081 344.311 258.613 344.261 259.14L344.231 259.016C344.438 259.556 344.618 260.106 344.769 260.665Z" fill="#020202"/>
<path d="M324.636 251.281C325.265 251.421 325.91 251.475 326.554 251.44C326.831 251.425 327.103 251.361 327.358 251.253C327.563 251.154 327.743 251.012 327.887 250.835L327.845 250.883C328.073 250.596 328.379 250.382 328.725 250.265C329.072 250.148 329.445 250.133 329.8 250.223C330.177 250.303 330.564 250.33 330.949 250.304C331.661 250.246 332.326 249.923 332.812 249.399L332.861 249.348C332.879 249.329 332.9 249.312 332.921 249.297C333.036 249.214 333.162 249.147 333.294 249.097C333.388 249.06 333.483 249.028 333.581 249.002C333.756 248.956 333.935 248.927 334.116 248.915C334.445 248.891 334.775 248.898 335.102 248.936C335.437 248.97 335.689 249.028 335.937 249.067C336.186 249.107 336.437 249.129 336.689 249.132C337.182 249.156 337.674 249.068 338.127 248.874C338.616 248.634 339.045 248.289 339.386 247.865C339.275 248.47 338.976 249.025 338.532 249.451C338.048 249.889 337.452 250.183 336.81 250.299C336.501 250.356 336.187 250.391 335.872 250.402C335.557 250.42 335.249 250.394 335.02 250.397C334.784 250.397 334.549 250.419 334.318 250.464C334.218 250.485 334.12 250.511 334.024 250.543C333.985 250.555 333.947 250.569 333.91 250.586C333.896 250.588 333.82 250.641 333.909 250.581L334.018 250.479C333.648 250.913 333.196 251.269 332.687 251.526C332.166 251.77 331.6 251.903 331.025 251.918C330.484 251.932 329.945 251.847 329.435 251.667C329.244 251.595 329.032 251.599 328.843 251.678L328.801 251.726C328.472 252.014 328.07 252.206 327.639 252.282C327.254 252.339 326.863 252.323 326.485 252.233C325.802 252.066 325.168 251.74 324.636 251.281Z" fill="#020202"/>
<path d="M359.482 92.9738C358.12 90.207 355.952 87.9172 353.264 86.4056C350.625 84.9902 347.568 84.562 344.641 85.1979C341.747 85.818 339.105 87.2893 337.053 89.4228C335.074 91.6579 333.596 94.2908 332.719 97.1446C332.211 98.5802 331.78 100.041 331.426 101.522C331.25 102.264 331.085 103.01 330.945 103.757L330.845 104.315C330.813 104.488 330.789 104.662 330.774 104.837L330.632 106.01C330.206 109.121 329.691 112.216 328.958 115.271C328.272 118.345 327.314 121.352 326.096 124.256C325.466 125.711 324.683 127.093 323.758 128.38C323.291 129.023 322.752 129.611 322.152 130.132C321.535 130.628 320.825 130.995 320.062 131.209C321.461 130.551 322.609 129.458 323.333 128.092C324.108 126.769 324.738 125.366 325.213 123.908C326.186 120.984 326.944 117.993 327.48 114.959C328.026 111.922 328.499 108.865 328.811 105.795L328.927 104.648C328.937 104.491 328.974 104.189 329.007 104.014L329.106 103.422C329.246 102.638 329.409 101.862 329.585 101.088C329.939 99.5375 330.376 98.007 330.894 96.5033C331.428 94.987 332.08 93.5148 332.843 92.1002C333.61 90.6447 334.589 89.3114 335.748 88.144C336.032 87.8452 336.338 87.5677 336.663 87.314C336.985 87.0571 337.28 86.7655 337.624 86.5398C338.292 86.0605 338.995 85.6326 339.727 85.2601C341.181 84.4967 342.75 83.9757 344.372 83.7176C345.181 83.5911 345.999 83.5346 346.818 83.5488C347.635 83.546 348.451 83.6238 349.253 83.7811C350.852 84.0934 352.376 84.7086 353.744 85.5934C356.399 87.3734 358.412 89.9612 359.482 92.9738Z" fill="#020202"/>
<path d="M353.984 86.2602C355.369 86.1523 356.749 86.5189 357.897 87.2997C358.477 87.6835 359.012 88.131 359.492 88.6337C359.736 88.881 359.951 89.1531 360.182 89.4131L360.802 90.2479L360.745 90.179C362.243 91.7082 363.399 93.5379 364.137 95.5472C364.891 97.532 365.321 99.6249 365.411 101.746C365.464 103.853 365.23 105.957 364.716 108C364.493 109.022 364.122 110.006 363.801 110.995C363.402 111.958 362.978 112.909 362.543 113.847L363.451 110.882C363.646 109.867 363.965 108.888 364.115 107.874C364.298 106.87 364.414 105.854 364.463 104.834C364.54 103.822 364.55 102.805 364.493 101.792C364.365 99.7734 363.948 97.7839 363.256 95.8837C362.572 93.9915 361.551 92.2389 360.242 90.7113L360.21 90.6752L360.185 90.6422L359.65 89.8149C359.448 89.5579 359.261 89.2854 359.046 89.0381C358.622 88.5379 358.147 88.0826 357.63 87.6795C357.112 87.2704 356.541 86.9348 355.931 86.6823C355.313 86.4242 354.654 86.2811 353.984 86.2602Z" fill="#020202"/>
<path d="M364.177 419.415C365.264 420.731 366.062 422.261 366.519 423.906C366.99 425.596 366.985 427.384 366.505 429.072C366.263 429.92 365.913 430.734 365.465 431.494C365.047 432.182 364.681 432.9 364.371 433.642C363.77 435.157 363.278 436.713 362.898 438.297C362.515 439.854 362.334 441.453 362.358 443.055C362.361 444.601 362.739 446.123 363.461 447.49C364.293 448.778 365.411 449.856 366.729 450.639C368.047 451.422 369.529 451.889 371.058 452.003C372.636 452.177 374.233 452.07 375.774 451.687C377.43 451.316 379.11 451.058 380.802 450.915C384.17 450.631 387.561 450.789 390.888 451.385C394.213 451.962 397.435 453.026 400.449 454.543C403.356 456.101 406.564 457.012 409.855 457.213C413.122 457.435 416.405 457.174 419.596 456.438C421.163 456.089 422.684 455.559 424.129 454.859C425.501 454.168 426.879 453.209 427.29 452.062C427.377 451.787 427.405 451.497 427.373 451.211C427.341 450.925 427.25 450.648 427.104 450.4C426.935 450.104 426.728 449.832 426.488 449.59C426.245 449.313 425.972 449.064 425.674 448.849C424.404 447.908 423.016 447.139 421.545 446.56C420.059 445.945 418.503 445.405 416.918 444.848L412.198 443.175C409.064 442.018 405.91 440.903 402.812 439.566C399.597 438.344 396.614 436.582 393.991 434.358C391.532 431.924 389.713 428.92 388.697 425.612C388.184 424.001 387.814 422.347 387.591 420.671L386.799 415.724C386.795 415.699 386.801 415.674 386.815 415.654C386.829 415.633 386.851 415.619 386.875 415.614C386.899 415.609 386.925 415.613 386.946 415.627C386.967 415.64 386.982 415.661 386.988 415.685L388.203 420.546C388.558 422.157 389.031 423.74 389.618 425.282C390.759 428.322 392.606 431.048 395.007 433.235C397.563 435.24 400.442 436.798 403.52 437.84C406.599 439.03 409.74 440.142 412.89 441.231L417.606 442.902C419.167 443.454 420.768 444.007 422.348 444.709C423.972 445.388 425.498 446.28 426.887 447.362C427.257 447.646 427.595 447.969 427.898 448.324C428.234 448.686 428.523 449.089 428.756 449.525C429.014 450.005 429.169 450.534 429.211 451.078C429.253 451.622 429.182 452.168 429.001 452.683C428.618 453.608 427.991 454.411 427.187 455.009C426.476 455.566 425.698 456.032 424.872 456.397C423.287 457.102 421.625 457.619 419.92 457.939C416.568 458.584 413.135 458.695 409.749 458.267C408.063 458.054 406.399 457.693 404.777 457.188C403.169 456.657 401.615 455.973 400.137 455.148C397.218 453.582 394.056 452.519 390.784 452.004C387.517 451.5 384.192 451.494 380.923 451.986C379.297 452.216 377.689 452.554 376.109 452.999C374.427 453.517 372.665 453.723 370.91 453.607C369.121 453.491 367.381 452.974 365.818 452.096C364.189 451.235 362.85 449.914 361.966 448.298C361.15 446.684 360.738 444.896 360.766 443.088C360.775 441.35 361.006 439.621 361.456 437.942C361.887 436.288 362.471 434.677 363.2 433.13C363.575 432.35 364.007 431.6 364.494 430.884C364.929 430.227 365.28 429.516 365.535 428.77C366.05 427.252 366.168 425.627 365.877 424.05C365.551 422.439 364.921 420.904 364.02 419.528C364.006 419.507 364.002 419.482 364.006 419.458C364.011 419.433 364.025 419.412 364.045 419.397C364.065 419.383 364.09 419.377 364.114 419.38C364.139 419.383 364.161 419.396 364.177 419.415L364.177 419.415Z" fill="#020202"/>
<path d="M332.753 421.805C332.484 423.357 332.396 424.934 332.491 426.506C332.604 428.05 332.936 429.57 333.479 431.02C333.623 431.373 333.771 431.725 333.946 432.056C334.108 432.389 334.314 432.676 334.539 433.044C334.965 433.739 335.354 434.448 335.722 435.172C336.473 436.62 337.083 438.137 337.545 439.702C338.03 441.293 338.293 442.943 338.328 444.605C338.374 446.334 338.003 448.049 337.249 449.606C336.432 451.159 335.2 452.455 333.691 453.349C332.234 454.237 330.611 454.817 328.922 455.055C327.256 455.283 325.563 455.214 323.921 454.851C322.391 454.522 320.843 454.288 319.284 454.152C316.148 453.861 312.986 454.017 309.893 454.616C306.801 455.247 303.825 456.352 301.071 457.892L299.048 459.116L298.01 459.753C297.658 459.954 297.291 460.127 296.931 460.315C295.472 461.024 293.945 461.586 292.374 461.993C289.229 462.822 285.976 463.167 282.727 463.017C281.091 462.939 279.464 462.726 277.863 462.379C276.205 462.04 274.615 461.425 273.16 460.56C272.355 460.086 271.667 459.437 271.146 458.662C270.855 458.223 270.662 457.727 270.579 457.207C270.496 456.687 270.526 456.156 270.666 455.648C270.934 454.729 271.416 453.887 272.074 453.191L273.018 452.279L274.024 451.498C276.761 449.738 279.674 448.268 282.714 447.11L291.474 443.371C294.38 442.176 297.205 440.791 299.93 439.225C305.404 436.223 308.493 430.168 309.505 423.946C309.509 423.921 309.523 423.898 309.544 423.883C309.565 423.868 309.591 423.862 309.616 423.866C309.64 423.871 309.662 423.884 309.677 423.904C309.692 423.923 309.699 423.947 309.697 423.972C309.515 427.2 308.685 430.359 307.255 433.259C305.792 436.225 303.539 438.731 300.745 440.5C298.015 442.209 295.175 443.735 292.244 445.069C289.361 446.444 286.439 447.705 283.535 449.004C280.636 450.127 277.845 451.511 275.196 453.139C274.002 453.819 273.063 454.87 272.523 456.133C272.142 457.175 272.94 458.255 274.149 459.032C275.424 459.809 276.814 460.379 278.268 460.72C279.764 461.1 281.289 461.356 282.827 461.485C285.937 461.748 289.067 461.572 292.127 460.962C293.655 460.644 295.147 460.174 296.581 459.559C296.934 459.395 297.295 459.246 297.642 459.07L298.664 458.504L300.744 457.295C303.591 455.803 306.625 454.696 309.764 454.002C312.909 453.309 316.126 452.998 319.345 453.077C320.963 453.121 322.575 453.27 324.174 453.521C325.662 453.757 327.18 453.738 328.663 453.465C330.11 453.254 331.494 452.729 332.717 451.926C333.941 451.123 334.973 450.063 335.743 448.819C337.109 446.268 336.902 443.042 336.115 440.101C335.707 438.604 335.189 437.14 334.567 435.719C334.253 435.006 333.915 434.3 333.546 433.617C333.375 433.297 333.14 432.92 332.973 432.527C332.798 432.144 332.657 431.753 332.523 431.362C331.586 428.228 331.6 424.887 332.565 421.761C332.572 421.737 332.589 421.716 332.611 421.704C332.634 421.691 332.66 421.688 332.685 421.696C332.708 421.702 332.727 421.717 332.74 421.737C332.752 421.758 332.757 421.782 332.753 421.805Z" fill="#020202"/>
<path d="M336.157 449.788C331.97 457.939 318.809 451.359 310.498 454.172C309.307 454.575 309.07 454.473 309.07 454.473C309.07 454.473 303.213 439.686 296.101 440.398C296.101 440.398 284.454 443.107 282.964 446.612C282.964 446.612 292.597 454.816 292.083 461.522C274.214 464.009 271.495 457.482 271.495 457.482C268.187 464.502 282.111 467.733 291.411 464.563C299.231 461.898 314.423 455.999 314.423 455.999L314.578 460.483L320.352 462.701L336.63 462.139L333.961 456.821C338.544 452.864 336.157 449.788 336.157 449.788Z" fill="#020202"/>
<path d="M428.356 452.065C428.356 452.065 426.094 458.764 408.096 457.516C407.121 450.861 416.165 442.012 416.165 442.012C414.436 438.619 402.63 436.719 402.63 436.719C395.487 436.5 390.664 451.656 390.664 451.656C390.664 451.656 390.434 451.773 389.218 451.453C380.733 449.221 368.056 456.693 363.318 448.85C363.318 448.85 361.149 452.084 365.994 455.715L363.698 461.204L379.976 460.642L385.583 458.031L385.428 453.548C385.428 453.548 400.991 458.384 408.977 460.504C418.473 463.025 432.141 458.841 428.356 452.065Z" fill="#020202"/>
<path d="M291.926 213.025C292.691 222.155 293.063 231.315 293.203 240.479C293.331 249.644 293.2 258.818 292.695 267.988C292.466 272.575 292.072 277.155 291.593 281.732C291.11 286.309 290.485 290.88 289.586 295.421C288.766 300.021 287.487 304.527 285.766 308.871C284.863 311.134 283.607 313.239 282.045 315.108C281.185 316.105 280.133 316.92 278.952 317.503C277.697 318.096 276.295 318.307 274.921 318.108L275.742 315.929C276.881 316.663 278.089 317.286 279.347 317.79C283.232 319.373 287.426 320.05 291.612 319.77C293.015 319.668 294.409 319.462 295.782 319.154C297.18 318.835 298.619 318.503 300.063 318.302C301.516 318.07 302.992 318.017 304.459 318.142C305.205 318.208 305.928 318.434 306.579 318.804C306.908 318.982 307.174 319.257 307.342 319.592C307.509 319.927 307.57 320.305 307.516 320.675C307.533 320.323 307.441 319.974 307.252 319.677C307.063 319.379 306.787 319.147 306.461 319.013C305.817 318.739 305.123 318.604 304.424 318.616C303.006 318.627 301.595 318.809 300.222 319.16C298.829 319.48 297.48 319.89 296.094 320.322C294.682 320.762 293.235 321.083 291.77 321.281C288.812 321.677 285.81 321.596 282.878 321.04C281.408 320.757 279.962 320.359 278.554 319.85C277.11 319.343 275.72 318.694 274.405 317.913C274.175 317.774 274 317.562 273.908 317.31C273.815 317.059 273.811 316.783 273.895 316.529C273.98 316.275 274.148 316.057 274.373 315.91C274.597 315.764 274.865 315.699 275.131 315.725L275.225 315.734C276.135 315.83 277.054 315.665 277.873 315.259C278.737 314.8 279.499 314.174 280.117 313.416C281.449 311.731 282.509 309.847 283.258 307.834C284.83 303.635 286.01 299.298 286.781 294.881C288.343 285.924 289.417 276.888 289.998 267.815C290.662 258.721 291.061 249.596 291.353 240.463C291.635 231.328 291.826 222.182 291.926 213.025Z" fill="#020202"/>
<path d="M359.283 108.389C359.66 108.376 360.016 108.217 360.278 107.946C360.539 107.675 360.686 107.314 360.686 106.937C360.686 106.56 360.539 106.199 360.278 105.928C360.016 105.657 359.66 105.498 359.283 105.485C358.907 105.498 358.55 105.657 358.289 105.928C358.027 106.199 357.881 106.56 357.881 106.937C357.881 107.314 358.027 107.675 358.289 107.946C358.55 108.217 358.907 108.376 359.283 108.389Z" fill="#020202"/>
<path d="M349.293 108.982C349.669 108.969 350.026 108.81 350.288 108.539C350.549 108.269 350.695 107.907 350.695 107.53C350.695 107.154 350.549 106.792 350.288 106.521C350.026 106.25 349.669 106.092 349.293 106.079C348.917 106.092 348.56 106.25 348.298 106.521C348.037 106.792 347.891 107.154 347.891 107.53C347.891 107.907 348.037 108.269 348.298 108.539C348.56 108.81 348.917 108.969 349.293 108.982Z" fill="#020202"/>
<path d="M337.361 113.254C337.643 113.244 337.91 113.125 338.107 112.922C338.303 112.719 338.412 112.448 338.412 112.165C338.412 111.883 338.303 111.612 338.107 111.409C337.91 111.205 337.643 111.086 337.361 111.077C337.079 111.086 336.811 111.205 336.615 111.409C336.419 111.612 336.309 111.883 336.309 112.165C336.309 112.448 336.419 112.719 336.615 112.922C336.811 113.125 337.079 113.244 337.361 113.254Z" fill="#020202"/>
<path d="M363.201 102.83C362.14 102.741 361.075 102.715 360.011 102.752C359.498 102.77 358.985 102.811 358.463 102.875C357.937 102.927 357.414 103.026 356.828 103.068C357.683 102.269 358.802 101.813 359.972 101.785C360.553 101.761 361.134 101.834 361.691 102.001C362.253 102.153 362.771 102.437 363.201 102.83Z" fill="#020202"/>
<path d="M350.565 103.302C349.579 103.337 348.734 103.308 347.87 103.352C347.44 103.359 347.012 103.389 346.573 103.42C346.13 103.444 345.689 103.503 345.182 103.503C345.885 102.795 346.839 102.394 347.837 102.385C348.329 102.368 348.82 102.434 349.289 102.58C349.767 102.714 350.205 102.962 350.565 103.302Z" fill="#020202"/>
<path d="M358.56 111.145C358.536 111.715 358.291 112.253 357.879 112.646C357.47 113.053 356.96 113.343 356.401 113.486C355.86 113.621 355.298 113.646 354.748 113.56C354.212 113.474 353.698 113.282 353.238 112.994C353.782 112.894 354.281 112.856 354.768 112.805C355.235 112.751 355.698 112.666 356.153 112.551C357.077 112.332 357.915 111.842 358.56 111.145Z" fill="#020202"/>
<path d="M358.256 122.978C357.474 123.56 356.505 123.833 355.534 123.745C354.502 123.617 353.55 123.123 352.85 122.353C352.461 121.944 352.158 121.461 351.958 120.933C351.757 120.405 351.665 119.843 351.685 119.279C351.737 118.679 351.918 118.097 352.215 117.573C352.513 117.049 352.92 116.596 353.408 116.244C353.897 115.891 354.456 115.649 355.047 115.533C355.638 115.416 356.247 115.429 356.833 115.57C357.375 115.729 357.88 115.996 358.318 116.353C358.755 116.711 359.117 117.152 359.382 117.651C359.891 118.559 360.057 119.62 359.85 120.64C359.623 121.589 359.056 122.42 358.256 122.978ZM358.256 122.978C358.642 122.709 358.963 122.355 359.193 121.945C359.423 121.534 359.557 121.077 359.585 120.607C359.577 119.762 359.259 118.949 358.691 118.323C358.123 117.697 357.345 117.302 356.504 117.212C355.8 117.192 355.109 117.404 354.537 117.815C353.964 118.226 353.543 118.814 353.337 119.488C353.155 120.314 353.284 121.178 353.699 121.916C354.113 122.653 354.785 123.213 355.585 123.487C356.04 123.609 356.517 123.627 356.979 123.539C357.442 123.45 357.878 123.259 358.256 122.978Z" fill="#020202"/>
<path d="M353.984 104.313C354.361 104.3 354.717 104.141 354.979 103.871C355.241 103.6 355.387 103.238 355.387 102.861C355.387 102.485 355.241 102.123 354.979 101.852C354.717 101.581 354.361 101.423 353.984 101.41C353.608 101.423 353.252 101.581 352.99 101.852C352.728 102.123 352.582 102.485 352.582 102.861C352.582 103.238 352.728 103.6 352.99 103.871C353.252 104.141 353.608 104.3 353.984 104.313Z" fill="#B21919"/>
<path d="M364.48 107.713C364.499 111.782 364.407 115.821 364.533 119.848C364.575 121.853 364.726 123.855 364.984 125.845C365.116 126.83 365.339 127.8 365.648 128.744C365.764 129.225 365.978 129.678 366.278 130.072C366.578 130.466 366.956 130.794 367.389 131.034C366.894 130.864 366.442 130.587 366.066 130.223C365.69 129.86 365.398 129.418 365.211 128.929C364.775 127.987 364.45 126.998 364.241 125.981C363.838 123.97 363.612 121.928 363.566 119.877C363.451 115.802 363.758 111.725 364.48 107.713Z" fill="#020202"/>
<path d="M394.556 146.199C394.556 146.857 392.427 147.409 389.563 147.564C389.059 147.593 388.527 147.602 387.985 147.602C387.763 147.602 387.55 147.602 387.327 147.593C383.998 147.525 381.404 146.925 381.404 146.199C381.404 145.415 384.346 144.786 387.985 144.786C388.14 144.786 388.295 144.786 388.45 144.796C389.297 144.801 390.143 144.85 390.985 144.941C393.105 145.173 394.556 145.648 394.556 146.199Z" fill="#020202"/>
<path d="M310.785 137.18C309.253 137.896 307.76 138.694 306.314 139.57C292.281 147.719 289.813 185.268 289.813 185.268C293.087 188.978 297.115 191.946 301.628 193.974C306.141 196.002 311.034 197.043 315.982 197.027L317.115 200.569C317.495 201.778 318.274 202.823 319.326 203.531C320.377 204.24 321.638 204.57 322.902 204.469C325.689 204.246 329.618 203.917 334.157 203.491C327.586 150.332 310.785 137.18 310.785 137.18ZM293.52 185.646C293.144 185.632 292.788 185.473 292.527 185.203C292.265 184.932 292.119 184.57 292.119 184.194C292.119 183.818 292.265 183.456 292.527 183.185C292.788 182.915 293.144 182.756 293.52 182.742C293.896 182.756 294.252 182.914 294.514 183.185C294.775 183.456 294.921 183.818 294.921 184.194C294.921 184.57 294.775 184.932 294.514 185.203C294.252 185.474 293.896 185.632 293.52 185.646V185.646ZM298.92 189.478C298.544 189.465 298.188 189.306 297.927 189.035C297.666 188.764 297.52 188.403 297.52 188.026C297.52 187.65 297.666 187.289 297.927 187.018C298.188 186.747 298.544 186.588 298.92 186.575C299.296 186.588 299.652 186.747 299.914 187.018C300.175 187.289 300.321 187.65 300.321 188.026C300.321 188.403 300.175 188.764 299.914 189.035C299.652 189.306 299.296 189.465 298.92 189.478V189.478ZM305.366 192.614C304.99 192.6 304.633 192.441 304.372 192.171C304.111 191.9 303.965 191.538 303.965 191.162C303.965 190.786 304.111 190.424 304.372 190.153C304.633 189.883 304.99 189.724 305.366 189.71C305.742 189.724 306.098 189.882 306.359 190.153C306.621 190.424 306.767 190.786 306.767 191.162C306.767 191.538 306.621 191.9 306.359 192.171C306.098 192.442 305.742 192.6 305.366 192.614V192.614ZM311.985 194.53C311.609 194.516 311.253 194.358 310.992 194.087C310.731 193.816 310.585 193.454 310.585 193.078C310.585 192.702 310.731 192.34 310.992 192.07C311.253 191.799 311.609 191.64 311.985 191.626C312.361 191.64 312.718 191.799 312.979 192.069C313.24 192.34 313.386 192.702 313.386 193.078C313.386 193.454 313.24 193.816 312.979 194.087C312.718 194.358 312.361 194.516 311.985 194.53V194.53ZM315.992 197.036C315.305 194.085 314.811 191.114 314.385 188.143C313.95 185.171 313.621 182.191 313.321 179.2C313.05 176.21 312.808 173.219 312.682 170.219C312.537 167.219 312.459 164.21 312.575 161.19C313.253 164.132 313.747 167.103 314.172 170.074C314.618 173.045 314.937 176.036 315.247 179.016C315.508 182.007 315.76 184.997 315.885 187.997C316.03 190.997 316.108 194.007 315.992 197.036V197.036Z" fill="#020202"/>
<path d="M316.517 138.614C316.893 138.601 317.249 138.443 317.511 138.172C317.773 137.901 317.919 137.539 317.919 137.163C317.919 136.786 317.773 136.424 317.511 136.153C317.249 135.883 316.893 135.724 316.517 135.711C316.14 135.724 315.784 135.883 315.522 136.153C315.26 136.424 315.114 136.786 315.114 137.163C315.114 137.539 315.26 137.901 315.522 138.172C315.784 138.443 316.14 138.601 316.517 138.614Z" fill="#020202"/>
<path d="M321.046 144.363C321.422 144.35 321.779 144.191 322.04 143.92C322.302 143.65 322.448 143.288 322.448 142.911C322.448 142.535 322.302 142.173 322.04 141.902C321.779 141.631 321.422 141.472 321.046 141.459C320.67 141.472 320.313 141.631 320.051 141.902C319.79 142.173 319.644 142.535 319.644 142.911C319.644 143.288 319.79 143.65 320.051 143.92C320.313 144.191 320.67 144.35 321.046 144.363Z" fill="#020202"/>
<path d="M325.052 151.679C325.429 151.666 325.785 151.508 326.047 151.237C326.308 150.966 326.455 150.604 326.455 150.228C326.455 149.851 326.308 149.489 326.047 149.218C325.785 148.948 325.429 148.789 325.052 148.776C324.676 148.789 324.319 148.948 324.058 149.218C323.796 149.489 323.65 149.851 323.65 150.228C323.65 150.604 323.796 150.966 324.058 151.237C324.319 151.508 324.676 151.666 325.052 151.679Z" fill="#020202"/>
<path d="M328.711 160.041C329.087 160.028 329.443 159.869 329.705 159.598C329.967 159.327 330.113 158.966 330.113 158.589C330.113 158.213 329.967 157.851 329.705 157.58C329.443 157.309 329.087 157.15 328.711 157.137C328.334 157.15 327.978 157.309 327.716 157.58C327.454 157.851 327.308 158.213 327.308 158.589C327.308 158.966 327.454 159.327 327.716 159.598C327.978 159.869 328.334 160.028 328.711 160.041Z" fill="#020202"/>
<path d="M331.324 169.099C331.7 169.086 332.057 168.927 332.318 168.657C332.58 168.386 332.726 168.024 332.726 167.647C332.726 167.271 332.58 166.909 332.318 166.638C332.057 166.367 331.7 166.209 331.324 166.196C330.947 166.209 330.591 166.367 330.329 166.638C330.068 166.909 329.921 167.271 329.921 167.647C329.921 168.024 330.068 168.386 330.329 168.657C330.591 168.927 330.947 169.086 331.324 169.099Z" fill="#020202"/>
<path d="M333.588 177.983C333.965 177.97 334.321 177.811 334.583 177.541C334.844 177.27 334.991 176.908 334.991 176.531C334.991 176.155 334.844 175.793 334.583 175.522C334.321 175.252 333.965 175.093 333.588 175.08C333.212 175.093 332.855 175.252 332.594 175.522C332.332 175.793 332.186 176.155 332.186 176.531C332.186 176.908 332.332 177.27 332.594 177.541C332.855 177.811 333.212 177.97 333.588 177.983Z" fill="#020202"/>
<path d="M335.33 187.39C335.706 187.377 336.063 187.218 336.324 186.947C336.586 186.677 336.732 186.315 336.732 185.938C336.732 185.562 336.586 185.2 336.324 184.929C336.063 184.658 335.706 184.5 335.33 184.487C334.954 184.5 334.597 184.658 334.336 184.929C334.074 185.2 333.928 185.562 333.928 185.938C333.928 186.315 334.074 186.677 334.336 186.947C334.597 187.218 334.954 187.377 335.33 187.39Z" fill="#020202"/>
<path d="M337.247 199.236C337.623 199.223 337.98 199.064 338.241 198.793C338.503 198.522 338.649 198.16 338.649 197.784C338.649 197.407 338.503 197.046 338.241 196.775C337.98 196.504 337.623 196.345 337.247 196.332C336.87 196.345 336.514 196.504 336.252 196.775C335.99 197.046 335.844 197.407 335.844 197.784C335.844 198.16 335.99 198.522 336.252 198.793C336.514 199.064 336.87 199.223 337.247 199.236Z" fill="#020202"/>
<path d="M338.291 207.597C338.668 207.584 339.024 207.425 339.286 207.154C339.547 206.884 339.694 206.522 339.694 206.145C339.694 205.769 339.547 205.407 339.286 205.136C339.024 204.865 338.668 204.707 338.291 204.694C337.915 204.707 337.559 204.865 337.297 205.136C337.035 205.407 336.889 205.769 336.889 206.145C336.889 206.522 337.035 206.884 337.297 207.154C337.559 207.425 337.915 207.584 338.291 207.597Z" fill="#020202"/>
<path d="M339.859 216.481C340.236 216.468 340.592 216.31 340.854 216.039C341.116 215.768 341.262 215.406 341.262 215.03C341.262 214.653 341.116 214.291 340.854 214.02C340.592 213.75 340.236 213.591 339.859 213.578C339.483 213.591 339.127 213.75 338.865 214.02C338.603 214.291 338.457 214.653 338.457 215.03C338.457 215.406 338.603 215.768 338.865 216.039C339.127 216.31 339.483 216.468 339.859 216.481Z" fill="#020202"/>
<path d="M341.95 225.365C342.326 225.352 342.683 225.194 342.944 224.923C343.206 224.652 343.352 224.29 343.352 223.914C343.352 223.537 343.206 223.175 342.944 222.904C342.683 222.634 342.326 222.475 341.95 222.462C341.573 222.475 341.217 222.634 340.955 222.904C340.694 223.175 340.547 223.537 340.547 223.914C340.547 224.29 340.694 224.652 340.955 224.923C341.217 225.194 341.573 225.352 341.95 225.365Z" fill="#020202"/>
<path d="M344.389 233.553C344.765 233.54 345.122 233.381 345.383 233.11C345.645 232.839 345.791 232.478 345.791 232.101C345.791 231.725 345.645 231.363 345.383 231.092C345.122 230.821 344.765 230.662 344.389 230.649C344.012 230.662 343.656 230.821 343.394 231.092C343.133 231.363 342.986 231.725 342.986 232.101C342.986 232.478 343.133 232.839 343.394 233.11C343.656 233.381 344.012 233.54 344.389 233.553Z" fill="#020202"/>
<path d="M348.047 241.74C348.423 241.727 348.78 241.568 349.041 241.298C349.303 241.027 349.449 240.665 349.449 240.288C349.449 239.912 349.303 239.55 349.041 239.279C348.78 239.008 348.423 238.85 348.047 238.837C347.671 238.85 347.314 239.008 347.052 239.279C346.791 239.55 346.645 239.912 346.645 240.288C346.645 240.665 346.791 241.027 347.052 241.298C347.314 241.568 347.671 241.727 348.047 241.74Z" fill="#020202"/>
<path d="M353.447 249.753C353.823 249.74 354.18 249.581 354.441 249.311C354.703 249.04 354.849 248.678 354.849 248.302C354.849 247.925 354.703 247.563 354.441 247.292C354.18 247.022 353.823 246.863 353.447 246.85C353.07 246.863 352.714 247.022 352.452 247.292C352.191 247.563 352.044 247.925 352.044 248.302C352.044 248.678 352.191 249.04 352.452 249.311C352.714 249.581 353.07 249.74 353.447 249.753Z" fill="#020202"/>
<path d="M360.415 256.024C360.791 256.011 361.148 255.853 361.409 255.582C361.671 255.311 361.817 254.949 361.817 254.573C361.817 254.196 361.671 253.834 361.409 253.564C361.148 253.293 360.791 253.134 360.415 253.121C360.039 253.134 359.682 253.293 359.421 253.564C359.159 253.834 359.013 254.196 359.013 254.573C359.013 254.949 359.159 255.311 359.421 255.582C359.682 255.853 360.039 256.011 360.415 256.024Z" fill="#020202"/>
<path d="M368.254 259.857C368.63 259.844 368.987 259.685 369.248 259.414C369.51 259.143 369.656 258.782 369.656 258.405C369.656 258.028 369.51 257.667 369.248 257.396C368.987 257.125 368.63 256.966 368.254 256.953C367.878 256.966 367.521 257.125 367.259 257.396C366.998 257.667 366.852 258.028 366.852 258.405C366.852 258.782 366.998 259.143 367.259 259.414C367.521 259.685 367.878 259.844 368.254 259.857Z" fill="#020202"/>
<path d="M377.312 261.773C377.688 261.76 378.045 261.601 378.307 261.331C378.568 261.06 378.714 260.698 378.714 260.321C378.714 259.945 378.568 259.583 378.307 259.312C378.045 259.041 377.688 258.883 377.312 258.87C376.936 258.883 376.579 259.041 376.318 259.312C376.056 259.583 375.91 259.945 375.91 260.321C375.91 260.698 376.056 261.06 376.318 261.331C376.579 261.601 376.936 261.76 377.312 261.773Z" fill="#020202"/>
<path d="M385.674 261.599C386.05 261.586 386.407 261.427 386.668 261.156C386.93 260.885 387.076 260.524 387.076 260.147C387.076 259.77 386.93 259.409 386.668 259.138C386.407 258.867 386.05 258.708 385.674 258.695C385.298 258.708 384.941 258.867 384.679 259.138C384.418 259.409 384.271 259.77 384.271 260.147C384.271 260.524 384.418 260.885 384.679 261.156C384.941 261.427 385.298 261.586 385.674 261.599Z" fill="#020202"/>
<path d="M286.38 317.691C286.757 317.678 287.113 317.519 287.375 317.248C287.636 316.977 287.783 316.616 287.783 316.239C287.783 315.862 287.636 315.501 287.375 315.23C287.113 314.959 286.757 314.8 286.38 314.787C286.004 314.8 285.647 314.959 285.386 315.23C285.124 315.501 284.978 315.862 284.978 316.239C284.978 316.616 285.124 316.977 285.386 317.248C285.647 317.519 286.004 317.678 286.38 317.691Z" fill="#020202"/>
<path d="M290.039 310.374C290.415 310.361 290.772 310.203 291.033 309.932C291.295 309.661 291.441 309.299 291.441 308.923C291.441 308.546 291.295 308.184 291.033 307.914C290.772 307.643 290.415 307.484 290.039 307.471C289.662 307.484 289.306 307.643 289.044 307.914C288.782 308.184 288.636 308.546 288.636 308.923C288.636 309.299 288.782 309.661 289.044 309.932C289.306 310.203 289.662 310.361 290.039 310.374Z" fill="#020202"/>
<path d="M292.826 301.316C293.202 301.303 293.559 301.144 293.82 300.873C294.082 300.603 294.228 300.241 294.228 299.864C294.228 299.488 294.082 299.126 293.82 298.855C293.559 298.584 293.202 298.426 292.826 298.413C292.449 298.426 292.093 298.584 291.831 298.855C291.57 299.126 291.423 299.488 291.423 299.864C291.423 300.241 291.57 300.603 291.831 300.873C292.093 301.144 292.449 301.303 292.826 301.316Z" fill="#020202"/>
<path d="M294.394 291.909C294.77 291.896 295.127 291.738 295.388 291.467C295.65 291.196 295.796 290.834 295.796 290.458C295.796 290.081 295.65 289.719 295.388 289.448C295.127 289.177 294.77 289.019 294.394 289.006C294.017 289.019 293.661 289.177 293.399 289.448C293.137 289.719 292.991 290.081 292.991 290.458C292.991 290.834 293.137 291.196 293.399 291.467C293.661 291.738 294.017 291.896 294.394 291.909Z" fill="#020202"/>
<path d="M295.439 282.677C295.815 282.664 296.171 282.505 296.433 282.234C296.695 281.963 296.841 281.602 296.841 281.225C296.841 280.849 296.695 280.487 296.433 280.216C296.171 279.945 295.815 279.786 295.439 279.773C295.062 279.786 294.706 279.945 294.444 280.216C294.182 280.487 294.036 280.849 294.036 281.225C294.036 281.602 294.182 281.963 294.444 282.234C294.706 282.505 295.062 282.664 295.439 282.677Z" fill="#020202"/>
<path d="M295.961 273.27C296.338 273.257 296.694 273.098 296.956 272.828C297.217 272.557 297.364 272.195 297.364 271.818C297.364 271.442 297.217 271.08 296.956 270.809C296.694 270.538 296.338 270.38 295.961 270.367C295.585 270.38 295.228 270.538 294.967 270.809C294.705 271.08 294.559 271.442 294.559 271.818C294.559 272.195 294.705 272.557 294.967 272.828C295.228 273.098 295.585 273.257 295.961 273.27Z" fill="#020202"/>
<path d="M295.961 263.689C296.338 263.676 296.694 263.517 296.956 263.246C297.218 262.976 297.364 262.614 297.364 262.237C297.364 261.861 297.218 261.499 296.956 261.228C296.694 260.957 296.338 260.799 295.961 260.786C295.585 260.799 295.229 260.957 294.967 261.228C294.705 261.499 294.559 261.861 294.559 262.237C294.559 262.614 294.705 262.976 294.967 263.246C295.229 263.517 295.585 263.676 295.961 263.689Z" fill="#020202"/>
<path d="M296.31 254.108C296.686 254.095 297.043 253.937 297.304 253.666C297.566 253.395 297.712 253.033 297.712 252.656C297.712 252.28 297.566 251.918 297.304 251.647C297.043 251.376 296.686 251.218 296.31 251.205C295.933 251.218 295.577 251.376 295.315 251.647C295.053 251.918 294.907 252.28 294.907 252.656C294.907 253.033 295.053 253.395 295.315 253.666C295.577 253.937 295.933 254.095 296.31 254.108Z" fill="#020202"/>
<path d="M295.961 245.224C296.338 245.211 296.694 245.052 296.956 244.782C297.217 244.511 297.364 244.149 297.364 243.772C297.364 243.396 297.217 243.034 296.956 242.763C296.694 242.492 296.338 242.334 295.961 242.321C295.585 242.334 295.228 242.492 294.967 242.763C294.705 243.034 294.559 243.396 294.559 243.772C294.559 244.149 294.705 244.511 294.967 244.782C295.228 245.052 295.585 245.211 295.961 245.224Z" fill="#020202"/>
<path d="M295.265 237.908C295.641 237.895 295.998 237.736 296.259 237.465C296.521 237.194 296.667 236.833 296.667 236.456C296.667 236.08 296.521 235.718 296.259 235.447C295.998 235.176 295.641 235.017 295.265 235.004C294.888 235.017 294.532 235.176 294.27 235.447C294.009 235.718 293.862 236.08 293.862 236.456C293.862 236.833 294.009 237.194 294.27 237.465C294.532 237.736 294.888 237.895 295.265 237.908Z" fill="#020202"/>
<path d="M295.265 230.715C295.641 230.702 295.998 230.543 296.259 230.272C296.521 230.002 296.667 229.64 296.667 229.263C296.667 228.887 296.521 228.525 296.259 228.254C295.998 227.983 295.641 227.825 295.265 227.812C294.888 227.825 294.532 227.983 294.27 228.254C294.009 228.525 293.862 228.887 293.862 229.263C293.862 229.64 294.009 230.002 294.27 230.272C294.532 230.543 294.888 230.702 295.265 230.715Z" fill="#020202"/>
<path d="M294.974 222.76C295.35 222.747 295.707 222.588 295.968 222.317C296.23 222.046 296.376 221.685 296.376 221.308C296.376 220.932 296.23 220.57 295.968 220.299C295.707 220.028 295.35 219.869 294.974 219.856C294.598 219.869 294.241 220.028 293.98 220.299C293.718 220.57 293.572 220.932 293.572 221.308C293.572 221.685 293.718 222.046 293.98 222.317C294.241 222.588 294.598 222.747 294.974 222.76Z" fill="#020202"/>
<path d="M293.522 317.691C293.899 317.678 294.255 317.519 294.517 317.248C294.778 316.977 294.925 316.616 294.925 316.239C294.925 315.862 294.778 315.501 294.517 315.23C294.255 314.959 293.899 314.8 293.522 314.787C293.146 314.8 292.79 314.959 292.528 315.23C292.266 315.501 292.12 315.862 292.12 316.239C292.12 316.616 292.266 316.977 292.528 317.248C292.79 317.519 293.146 317.678 293.522 317.691Z" fill="#020202"/>
<path d="M301.013 315.252C301.39 315.239 301.746 315.08 302.008 314.81C302.269 314.539 302.416 314.177 302.416 313.8C302.416 313.424 302.269 313.062 302.008 312.791C301.746 312.52 301.39 312.362 301.013 312.349C300.637 312.362 300.28 312.52 300.019 312.791C299.757 313.062 299.611 313.424 299.611 313.8C299.611 314.177 299.757 314.539 300.019 314.81C300.28 315.08 300.637 315.239 301.013 315.252Z" fill="#020202"/>
<path d="M307.284 317.168C307.661 317.155 308.017 316.997 308.279 316.726C308.54 316.455 308.687 316.093 308.687 315.717C308.687 315.34 308.54 314.978 308.279 314.707C308.017 314.437 307.661 314.278 307.284 314.265C306.908 314.278 306.551 314.437 306.29 314.707C306.028 314.978 305.882 315.34 305.882 315.717C305.882 316.093 306.028 316.455 306.29 316.726C306.551 316.997 306.908 317.155 307.284 317.168Z" fill="#020202"/>
<path d="M274.535 319.955C278.271 319.955 278.277 314.149 274.535 314.149C270.799 314.149 270.793 319.955 274.535 319.955Z" fill="black"/>
<path d="M395.679 132.408C395.37 134.781 394.766 137.106 393.879 139.328C393.066 141.273 392.098 143.15 390.985 144.941C390.869 145.144 390.753 145.357 390.647 145.56C390.288 146.228 389.931 146.896 389.563 147.564C389.059 147.593 388.527 147.602 387.985 147.602C387.763 147.602 387.55 147.602 387.327 147.593C387.695 146.664 388.072 145.725 388.45 144.796C388.479 144.719 388.508 144.651 388.537 144.573C389.286 142.349 390.195 140.182 391.256 138.089C392.393 135.991 393.788 134.044 395.408 132.292C395.422 132.277 395.439 132.264 395.457 132.255C395.476 132.246 395.496 132.241 395.517 132.24C395.538 132.239 395.559 132.243 395.578 132.25C395.598 132.257 395.615 132.268 395.631 132.283C395.659 132.319 395.676 132.363 395.679 132.408Z" fill="#020202"/>
</svg>
