<svg width="600" height="600" viewBox="0 0 600 600" fill="none" xmlns="http://www.w3.org/2000/svg">
<path d="M265.931 91H368.977C368.977 91 364.548 150.16 368.977 187.638C372.67 218.88 385.801 262.989 390.548 278.287C393.461 286.403 395.049 295.152 395.049 304.271C395.049 328.663 383.692 350.402 365.979 364.49C364.972 374.519 367.365 385.273 367.365 385.273H267.906C267.906 385.273 270.357 373.828 269.144 363.539C252.104 349.433 241.248 328.12 241.248 304.271C241.248 296.045 242.539 288.12 244.931 280.689C248.596 268.239 262.189 220.668 265.931 187.638C270.178 150.139 265.931 91 265.931 91Z" fill="#FFB46E"/>
<path d="M367.877 395.014H268.419V405.349C258.908 409.558 250.115 414.986 242.383 421.517C222.289 438.486 211 461.502 211 485.5L425.296 485.5C425.296 461.502 414.008 438.486 393.913 421.517C386.181 414.986 377.388 409.558 367.877 405.349V395.014Z" fill="#FFB46E"/>
<path d="M347.377 409.514V418.977L348.865 419.636C358.171 423.753 366.76 429.058 374.301 435.427C393.188 451.377 403.999 472.714 404.753 495H195.544C196.298 472.713 207.109 451.377 225.996 435.427C233.537 429.058 242.125 423.753 251.431 419.636L252.919 418.977V409.514H347.377ZM348.299 105.5C348.186 107.197 348.03 109.644 347.858 112.688C347.511 118.838 347.095 127.428 346.817 137.193C346.263 156.69 346.258 181.002 348.495 199.932C352.218 231.434 365.42 275.752 370.16 291.028L370.177 291.08L370.195 291.132C373.013 298.981 374.549 307.444 374.549 316.271C374.549 339.868 363.566 360.9 346.423 374.534L345.597 375.19L345.491 376.241C344.962 381.51 345.328 386.907 345.812 390.939C345.988 392.409 346.181 393.71 346.356 394.772H252.895C253.078 393.616 253.283 392.175 253.465 390.54C253.936 386.303 254.265 380.658 253.627 375.246L253.51 374.251L252.738 373.612C236.247 359.962 225.748 339.343 225.748 316.271C225.748 308.308 226.998 300.642 229.311 293.455L229.32 293.425L229.329 293.396C232.986 280.973 246.646 233.199 250.415 199.92C252.56 180.987 252.554 156.682 252.022 137.188C251.756 127.425 251.357 118.838 251.024 112.691C250.859 109.644 250.711 107.196 250.603 105.5H348.299Z" stroke="#1E1E1E" stroke-width="5"/>
</svg>
