<svg width="153" height="158" viewBox="0 0 153 158" fill="none" xmlns="http://www.w3.org/2000/svg">
<path fill-rule="evenodd" clip-rule="evenodd" d="M127.801 24.4253L149.117 23.8499V60.6915L127.801 61.2677V24.4253Z" fill="#81F8F8"/>
<path fill-rule="evenodd" clip-rule="evenodd" d="M84.8081 10.4484L118.803 9.54639V54.0355L84.8081 54.9374V10.4484Z" fill="#81F8F8"/>
<path fill-rule="evenodd" clip-rule="evenodd" d="M130.059 27.0612L146.86 26.6074V58.0553L130.059 58.509V27.0612Z" fill="white"/>
<path fill-rule="evenodd" clip-rule="evenodd" d="M87.6865 13.0592L115.924 12.3103V51.4245L87.6865 52.1734V13.0592Z" fill="white"/>
<path d="M127.809 61.6593C127.708 61.6576 127.612 61.616 127.539 61.543C127.467 61.4699 127.425 61.3711 127.421 61.2668V24.4252C127.419 24.3238 127.456 24.2257 127.524 24.1522C127.592 24.0787 127.685 24.0358 127.783 24.0327C150.494 23.4298 149.203 23.3961 149.374 23.568C149.566 23.7603 149.497 21.2012 149.497 60.6914C149.499 60.7927 149.462 60.8907 149.394 60.9642C149.327 61.0376 149.234 61.0806 149.136 61.0839L127.809 61.6593ZM128.181 24.8075V60.8641L148.737 60.3091V24.2525L128.181 24.8075Z" fill="black"/>
<path d="M130.066 58.9017C129.965 58.9001 129.869 58.8585 129.797 58.7854C129.725 58.7123 129.683 58.6134 129.679 58.5092V27.0645C129.678 26.963 129.715 26.8649 129.783 26.7914C129.85 26.718 129.944 26.675 130.042 26.672C147.928 26.201 146.948 26.1578 147.117 26.3297C147.307 26.5197 147.24 24.4277 147.24 58.0586C147.241 58.1602 147.204 58.2583 147.136 58.3317C147.068 58.4052 146.975 58.448 146.877 58.4511L130.066 58.9017ZM130.439 27.4436V58.1057L146.48 57.6724V27.0111L130.439 27.4436Z" fill="black"/>
<path d="M142.159 43.6278C142.119 43.5839 142.069 43.5503 142.014 43.5296C141.959 43.5088 141.9 43.5015 141.841 43.5083C141.783 43.5151 141.727 43.5357 141.678 43.5686C141.628 43.6014 141.587 43.6456 141.557 43.6977C139.077 48.0003 139.348 51.7283 142.36 54.7796C142.399 54.8187 142.445 54.8488 142.496 54.868C142.547 54.8872 142.601 54.8949 142.655 54.8906C142.709 54.8864 142.762 54.8703 142.809 54.8434C142.857 54.8166 142.898 54.7795 142.93 54.7348C142.972 54.6744 147.05 48.9376 142.159 43.6278Z" fill="#FFD997"/>
<path d="M142.713 28.7553C142.672 28.7114 142.622 28.6777 142.567 28.657C142.512 28.6363 142.453 28.629 142.395 28.6358C142.336 28.6425 142.28 28.6631 142.231 28.696C142.182 28.7289 142.141 28.7731 142.111 28.8251C140.338 31.9008 140.535 34.569 142.694 36.7536C142.732 36.7928 142.778 36.8229 142.829 36.8421C142.88 36.8613 142.934 36.869 142.988 36.8647C143.042 36.8605 143.095 36.8444 143.142 36.8175C143.19 36.7907 143.231 36.7536 143.264 36.7089C143.293 36.6681 146.214 32.5594 142.713 28.7553Z" fill="#FFD997"/>
<path d="M133.63 48.3144C133.589 48.2705 133.54 48.2368 133.485 48.2161C133.429 48.1953 133.37 48.1881 133.312 48.1948C133.254 48.2016 133.198 48.2222 133.149 48.2551C133.099 48.2879 133.058 48.3321 133.028 48.3842C131.256 51.4591 131.452 54.1273 133.61 56.3127C133.649 56.3517 133.695 56.3818 133.746 56.4009C133.797 56.4199 133.851 56.4276 133.905 56.4234C133.958 56.4191 134.011 56.4031 134.058 56.3763C134.106 56.3495 134.147 56.3126 134.179 56.268C134.21 56.2264 137.131 52.1185 133.63 48.3144Z" fill="#FFD997"/>
<path d="M134.753 31.5819C134.714 31.5428 134.668 31.5127 134.617 31.4935C134.566 31.4743 134.512 31.4666 134.458 31.4709C134.404 31.4751 134.352 31.4912 134.304 31.5181C134.257 31.5449 134.216 31.582 134.183 31.6267C134.141 31.684 130.063 37.42 134.954 42.7344C134.995 42.7784 135.045 42.812 135.1 42.8327C135.155 42.8535 135.214 42.8607 135.272 42.854C135.33 42.8472 135.387 42.8266 135.436 42.7937C135.485 42.7609 135.526 42.7167 135.556 42.6646C138.036 38.362 137.766 34.6332 134.753 31.5819Z" fill="#FFD997"/>
<path d="M84.8082 55.3299C84.7074 55.3299 84.6108 55.2885 84.5395 55.2149C84.4683 55.1413 84.4282 55.0415 84.4282 54.9374V10.4475C84.4282 10.3451 84.4669 10.2468 84.536 10.1735C84.6051 10.1002 84.6993 10.0577 84.7983 10.055C121.224 9.0973 118.888 9.08552 119.068 9.2645C119.248 9.44348 119.183 6.32782 119.183 54.0354C119.183 54.1378 119.144 54.2361 119.075 54.3094C119.006 54.3827 118.912 54.4252 118.813 54.4279L84.8082 55.3299ZM85.1882 10.8298V54.5347L118.423 53.6531V9.95138L85.1882 10.8298Z" fill="black"/>
<path d="M87.6862 52.565C87.5854 52.565 87.4887 52.5236 87.4175 52.45C87.3462 52.3764 87.3062 52.2766 87.3062 52.1725V13.0591C87.3061 12.9567 87.3448 12.8584 87.4139 12.7851C87.4831 12.7117 87.5772 12.6692 87.6763 12.6666C117.734 11.8769 116.011 11.8494 116.19 12.0291C116.369 12.2089 116.304 9.48339 116.304 51.4236C116.304 51.5259 116.265 51.6242 116.196 51.6976C116.127 51.7709 116.033 51.8134 115.934 51.8161L87.6862 52.565ZM88.0662 13.4414V51.7705L115.544 51.0413V12.7129L88.0662 13.4414Z" fill="black"/>
<path d="M109.714 29.7246C107.61 28.5377 106.299 31.0018 105.382 30.5756C105.211 30.493 105.065 30.3624 104.962 30.1984C104.859 30.0345 104.802 29.8439 104.799 29.6485C104.744 28.9075 105.222 27.759 106.723 26.7566C107.429 26.3177 108.041 25.7336 108.519 25.0404C108.998 24.3473 109.334 23.5599 109.506 22.7272C109.585 22.3468 109.585 21.9536 109.508 21.5731C109.43 21.1925 109.275 20.8331 109.054 20.5182C108.323 19.5864 106.596 18.0234 104.732 18.0234C104.128 18.0432 103.537 18.2128 103.01 18.5181C102.483 18.8233 102.034 19.2551 101.702 19.7771C99.7308 22.4752 100.52 25.8829 100.061 26.1717C100.061 26.1717 99.9299 26.2502 99.4321 26.01C97.1855 24.933 96.9621 21.9225 94.79 24.7242C93.2958 26.6514 95.5629 30.9186 96.386 33.1166C93.9213 31.3245 92.4978 32.4305 92.8938 35.3712C93.2092 37.7167 95.3866 39.8873 96.1405 40.5765L94.5141 43.3664C94.4648 43.451 94.4481 43.5518 94.4676 43.6486C94.487 43.7454 94.5411 43.831 94.619 43.8884C97.0297 45.6633 96.9051 45.6076 97.0753 45.6076C97.1374 45.6075 97.1986 45.5918 97.2534 45.5617C97.3083 45.5315 97.3552 45.488 97.39 45.4349L99.518 42.1959C104.957 45.5126 109.778 42.1795 108.126 39.5105C107.284 38.1461 104.009 38.019 103.785 37.2206C103.736 37.0471 103.87 36.7606 104.165 36.4121C106.02 34.1984 108.177 36.9482 109.989 34.5053C111.602 32.3238 112.035 31.0348 109.714 29.7246Z" fill="black"/>
<path d="M97.6485 41.3146C97.5905 41.3145 97.5333 41.3008 97.4812 41.2744C97.4291 41.2481 97.3836 41.2097 97.3481 41.1624C97.3126 41.115 97.2881 41.0599 97.2764 41.0012C97.2647 40.9426 97.2661 40.8819 97.2806 40.8239C97.3764 40.4385 99.6739 31.3294 102.427 26.9797C102.454 26.9345 102.489 26.8952 102.53 26.8643C102.571 26.8333 102.618 26.8113 102.668 26.7995C102.718 26.7877 102.769 26.7864 102.82 26.7956C102.87 26.8049 102.918 26.8245 102.961 26.8533C103.003 26.8821 103.04 26.9196 103.068 26.9633C103.097 27.0071 103.117 27.0564 103.126 27.1082C103.136 27.16 103.135 27.2133 103.124 27.2648C103.114 27.3164 103.093 27.3652 103.063 27.4083C100.378 31.6473 98.0391 40.9268 98.0155 41.0202C97.9945 41.1043 97.9471 41.1788 97.8806 41.2321C97.8142 41.2854 97.7326 41.3144 97.6485 41.3146Z" fill="white"/>
<path fill-rule="evenodd" clip-rule="evenodd" d="M113.5 82.2168C112.955 82.573 112.363 82.8456 111.742 83.0262C110.265 83.3256 108.902 84.0543 107.813 85.1266C106.723 86.1989 105.952 87.5702 105.591 89.0793C105.151 90.968 104.755 94.4299 104.375 97.9184C105.591 96.514 109.011 97.4686 110.735 100.844C110.735 100.844 111.538 102.267 111.961 102.403L111.61 108.152H126.806L128.386 98.6375C128.386 98.6375 132.382 96.3523 134.846 101.329C134.846 101.329 137.367 91.658 136.459 88.277C135.183 83.527 127.947 81.9028 127.947 81.9028C127.947 81.9028 123.043 89.5566 119.077 89.712C115.111 89.8674 113.805 85.7274 113.5 82.2168Z" fill="#81F8F8"/>
<path fill-rule="evenodd" clip-rule="evenodd" d="M126.158 108.251H132.846L134.805 101.061C134.805 101.061 134.099 98.0527 131.775 97.9208C130.505 97.7929 129.231 98.1218 128.168 98.8518L126.158 108.251Z" fill="#FFD997"/>
<path fill-rule="evenodd" clip-rule="evenodd" d="M116.215 79.9678C113.19 79.9733 112.719 76.2485 111.995 74.8794C111.604 74.2761 111.383 73.5724 111.357 72.847C111.331 72.1215 111.501 71.403 111.848 70.7715C112.573 69.0822 112.359 70.2715 112.049 67.5154C111.929 65.7283 112.445 63.9573 113.499 62.5353C113.499 62.5353 119.395 60.7526 122.966 63.5558C126.14 66.045 125.644 71.5432 125.644 71.5432C126.123 72.8942 125.713 75.4344 124.138 75.4038C124.138 75.4038 124.057 80.6154 125.43 81.0794C126.802 81.5433 127.948 81.9036 127.948 81.9036C127.948 81.9036 123.16 90.0511 118.587 90.0943C113.875 90.1398 113.495 82.2027 113.495 82.2027L116.215 79.9678Z" fill="#FFD997"/>
<path d="M114.882 68.295C114.792 68.2954 114.705 68.2622 114.636 68.2016C114.469 68.0278 114.271 67.8898 114.052 67.7955C113.833 67.7012 113.598 67.6525 113.361 67.6521C113.102 67.6799 112.862 67.8071 112.689 68.0085C112.627 68.0894 112.536 68.1417 112.437 68.1541C112.338 68.1664 112.238 68.1378 112.159 68.0745C112.08 68.0111 112.028 67.9182 112.015 67.8157C112.002 67.7133 112.028 67.6097 112.089 67.5273C112.385 67.1592 112.808 66.9244 113.269 66.8726C113.611 66.8555 113.953 66.9119 114.273 67.0382C114.593 67.1646 114.884 67.3581 115.127 67.6066C115.185 67.6589 115.227 67.7281 115.246 67.8052C115.265 67.8823 115.261 67.9636 115.234 68.0382C115.208 68.1129 115.16 68.1774 115.097 68.2233C115.034 68.2692 114.959 68.2942 114.882 68.295Z" fill="black"/>
<path d="M120.658 69.7597C120.595 69.7598 120.532 69.7434 120.476 69.7122C120.421 69.6809 120.373 69.6357 120.339 69.5807C120.087 69.0999 119.677 68.7281 119.183 68.5326C118.689 68.3372 118.143 68.3311 117.645 68.5155C117.552 68.5525 117.449 68.5507 117.358 68.5105C117.267 68.4702 117.195 68.3948 117.157 68.3002C117.119 68.2057 117.118 68.0995 117.154 68.0044C117.191 67.9092 117.262 67.8326 117.353 67.7909C118.015 67.535 118.744 67.5315 119.408 67.7812C120.072 68.0309 120.629 68.5173 120.977 69.1529C121.014 69.2122 121.035 69.2807 121.038 69.3514C121.041 69.422 121.025 69.4921 120.992 69.5543C120.96 69.6164 120.911 69.6683 120.853 69.7045C120.794 69.7407 120.727 69.7597 120.658 69.7597Z" fill="black"/>
<path d="M115.503 74.2993C113.738 73.928 113.848 72.3808 115.024 71.0094C115.217 70.4315 115.235 69.8069 115.077 69.218C115.061 69.1179 115.083 69.0154 115.139 68.9319C115.195 68.8484 115.279 68.7905 115.376 68.7702C115.472 68.7499 115.572 68.7688 115.655 68.823C115.738 68.8772 115.797 68.9625 115.821 69.061C115.88 69.3601 116.149 70.8822 115.593 71.5314C115.175 72.0173 114.817 72.7089 114.939 73.0849C115.007 73.2961 115.248 73.4452 115.653 73.53C115.751 73.5524 115.835 73.6132 115.889 73.6993C115.944 73.7855 115.963 73.8902 115.943 73.9909C115.924 74.0916 115.866 74.1803 115.784 74.238C115.702 74.2956 115.601 74.3177 115.503 74.2993Z" fill="black"/>
<path fill-rule="evenodd" clip-rule="evenodd" d="M113.194 69.0415C113.194 69.0415 113.837 68.5014 114.562 70.1405C114.39 70.2543 114.196 70.3263 113.993 70.3512C113.79 70.3761 113.584 70.3532 113.391 70.2842L113.194 69.0415Z" fill="white"/>
<path fill-rule="evenodd" clip-rule="evenodd" d="M119.966 70.9631C119.419 71.16 118.822 71.1508 118.281 70.9372L118.221 69.777C118.221 69.777 118.818 69.0367 119.966 70.9631Z" fill="white"/>
<path d="M118.226 75.2202C118.176 75.2202 116.979 75.1723 116.25 75.1582C115.912 75.1526 115.576 75.2255 115.269 75.3717C115.131 75.2723 114.988 75.1811 114.839 75.0985C114.314 74.8221 113.723 74.7087 113.136 74.772C113.065 74.7818 112.998 74.8125 112.942 74.8603C112.887 74.9081 112.846 74.9712 112.824 75.0421C112.803 75.1131 112.801 75.1889 112.819 75.2609C112.837 75.3329 112.875 75.398 112.928 75.4486C113.215 75.7127 113.519 75.9548 113.84 76.1732C113.953 76.5254 114.168 76.8328 114.457 77.0527C114.746 77.2727 115.095 77.3944 115.454 77.4009C116.184 77.2468 116.867 76.9092 117.442 76.4181C117.766 76.2809 118.083 76.1265 118.392 75.9558C118.464 75.9144 118.521 75.8498 118.555 75.7718C118.589 75.6938 118.597 75.6065 118.578 75.5233C118.559 75.4401 118.515 75.3655 118.451 75.3108C118.388 75.2561 118.309 75.2243 118.226 75.2202Z" fill="black"/>
<path fill-rule="evenodd" clip-rule="evenodd" d="M110.765 100.723L109.603 108.024H103.016L104.399 97.7079C106.413 96.481 108.505 97.7307 110.765 100.723Z" fill="#FFD997"/>
<path d="M120.29 70.7584C120.127 70.3956 119.892 70.0722 119.601 69.8091C119.309 69.5461 118.967 69.3493 118.597 69.2316C118.456 69.2063 118.311 69.211 118.171 69.2456C118.032 69.2801 117.901 69.3438 117.786 69.4326C117.745 69.4684 117.711 69.5128 117.688 69.5628C117.665 69.6129 117.652 69.6675 117.651 69.723C117.65 69.7785 117.66 69.8336 117.681 69.8848C117.702 69.9359 117.733 69.9819 117.772 70.0197C117.62 70.5575 117.924 71.0324 118.296 71.0324C118.6 71.0324 118.898 70.7184 118.847 70.1885C119.547 70.72 119.544 71.3566 119.966 71.3566C120.034 71.3566 120.1 71.338 120.158 71.3027C120.217 71.2673 120.265 71.2166 120.298 71.1556C120.331 71.0947 120.348 71.0257 120.346 70.9559C120.345 70.8861 120.325 70.8179 120.29 70.7584Z" fill="black"/>
<path d="M114.911 69.9796C114.551 69.1679 114.134 68.7001 113.673 68.5886C113.265 68.492 112.733 68.6914 112.853 69.1263C112.76 69.2697 112.712 69.4384 112.713 69.6107C112.713 70.5864 113.816 70.6139 113.837 69.6326C114.237 70.1445 114.18 70.5354 114.566 70.5354C114.629 70.5353 114.692 70.5187 114.748 70.4872C114.804 70.4556 114.851 70.4101 114.885 70.3548C114.919 70.2994 114.94 70.2361 114.944 70.1706C114.949 70.105 114.937 70.0394 114.911 69.9796Z" fill="black"/>
<path d="M136.81 88.2309C135.87 83.9613 130.393 82.2508 127.121 81.2279C126.539 81.0466 126.034 80.8888 125.652 80.7451C124.419 80.2812 124.388 77.1522 124.491 75.736C126.006 75.5712 126.482 73.1141 126.058 71.5905C126.619 70.6342 126.977 69.5666 127.111 68.4574C127.244 67.3482 127.15 66.2224 126.834 65.1535C127.722 65.075 130.162 66.3522 130.43 65.0522C130.471 64.8544 130.471 64.8544 130.697 64.8253C130.949 64.8134 131.192 64.7257 131.396 64.5732C131.6 64.4206 131.756 64.2097 131.846 63.9665C132.281 63.0065 131.918 62.6132 131.542 62.318C131.249 62.0888 131.198 62.1116 131.613 61.4632C131.843 61.1245 132.04 60.7629 132.2 60.3838C132.639 59.2966 131.91 58.9512 131.474 58.7447C130.737 58.3985 130.79 58.3004 130.839 57.8914C131.067 56.0561 130.459 55.6361 129.142 55.5843C128.968 55.5829 128.794 55.5668 128.623 55.5364C128.661 55.1588 129.071 54.2569 128.319 53.7309C127.304 53.0331 126.647 54.5442 126.207 54.4264C126.055 54.3872 126.055 54.3872 125.994 54.2239C125.909 53.9755 125.768 53.7513 125.583 53.5693C125.398 53.3873 125.175 53.2526 124.93 53.1759C124.088 52.8078 123.36 53.0684 123.42 53.1469C122.214 52.1225 121.264 52.5267 120.738 53.6414C120.313 54.5434 119.928 54.5748 119.034 54.9108C117.853 55.3559 118.391 56.7626 118.128 57.4346C118.113 57.4715 118.101 57.495 118.098 57.5076C117.872 57.3921 117.625 57.3267 117.374 57.3156C117.122 57.3045 116.87 57.348 116.636 57.4432C115.8 57.8781 116.234 59.1286 116.672 59.985C115.501 60.3097 114.433 60.9445 113.572 61.8266C112.894 62.5972 112.375 63.5032 112.048 64.4888C111.721 65.4743 111.593 66.5186 111.672 67.5571C111.916 69.7269 112.079 69.3626 111.81 69.9278C110.842 71.9775 110.619 73.0867 111.658 75.0633C112.294 76.2691 112.808 79.7458 115.468 80.2828C114.648 80.9728 112.916 82.33 111.652 82.6378C110.105 82.9485 108.676 83.711 107.536 84.8348C106.396 85.9586 105.591 87.3966 105.218 88.9782C104.236 93.1952 103.465 105.247 102.65 107.897C102.632 107.956 102.628 108.018 102.637 108.079C102.647 108.14 102.67 108.198 102.706 108.248C102.741 108.298 102.787 108.338 102.841 108.366C102.894 108.394 102.953 108.409 103.013 108.409C103.545 108.409 103.726 107.467 104.724 98.2035C106.662 96.6335 108.862 98.5332 110.328 100.678C110.342 100.708 110.356 100.734 110.37 100.765C110.266 101.393 109.702 104.783 109.016 107.938C109.005 107.989 109.004 108.041 109.012 108.091C109.021 108.142 109.039 108.191 109.066 108.234C109.093 108.278 109.127 108.316 109.168 108.345C109.209 108.375 109.255 108.396 109.304 108.407C109.352 108.419 109.403 108.42 109.452 108.411C109.501 108.402 109.548 108.384 109.59 108.356C109.633 108.328 109.669 108.292 109.698 108.25C109.726 108.208 109.747 108.161 109.758 108.11C110.276 105.723 110.726 103.202 110.962 101.83C111.113 102.062 111.281 102.28 111.465 102.484L111.237 107.848C111.232 107.952 111.268 108.054 111.337 108.131C111.405 108.207 111.5 108.253 111.6 108.257C111.701 108.262 111.8 108.225 111.874 108.154C111.948 108.084 111.992 107.986 111.997 107.882C112.247 101.946 112.301 102.209 112.096 102.026C112.084 102.016 110.964 100.993 110.305 98.2436C109.646 95.4937 111.521 91.5797 111.539 91.5412C111.583 91.4484 111.59 91.3411 111.558 91.2428C111.527 91.1445 111.459 91.0632 111.369 91.0166C111.279 90.97 111.176 90.9618 111.08 90.9939C110.985 91.026 110.906 91.0958 110.86 91.188C109.887 93.1889 109.025 96.2607 109.606 98.5733C108.249 97.1815 106.515 96.3258 104.832 97.2034C105.184 93.981 105.551 90.8975 105.956 89.1643C106.299 87.7252 107.034 86.4179 108.074 85.3969C109.115 84.376 110.416 83.6841 111.825 83.4031C112.273 83.2803 112.704 83.1032 113.112 82.8756C113.55 86.2982 115.043 90.4438 118.371 90.4438C122.216 90.4438 126.199 85.8453 128.154 82.3748C131.248 83.3906 135.328 85.0548 136.065 88.4012C136.58 90.7358 135.685 95.6405 134.665 99.9627C133.525 97.3958 131.304 96.8675 128.837 97.9539C129.777 94.2463 130.542 91.7014 130.555 91.6566C130.585 91.5572 130.576 91.4495 130.53 91.3571C130.483 91.2647 130.403 91.1953 130.306 91.164C130.21 91.1328 130.106 91.1424 130.016 91.1906C129.927 91.2388 129.86 91.3217 129.829 91.4211C128.23 96.8631 126.898 102.385 125.84 107.967C125.83 108.023 125.831 108.082 125.845 108.138C125.859 108.194 125.885 108.246 125.921 108.29C125.956 108.335 126.001 108.371 126.052 108.395C126.102 108.42 126.157 108.433 126.213 108.433C126.837 108.433 126.311 108.13 128.588 98.9477C129.082 98.6698 130.766 97.8346 132.22 98.4061C133.81 99.0341 134.183 100.948 134.348 101.261C133.43 104.966 132.511 107.959 132.491 108.025C132.466 108.123 132.478 108.227 132.525 108.316C132.572 108.405 132.65 108.471 132.744 108.502C132.837 108.532 132.939 108.524 133.026 108.479C133.114 108.434 133.182 108.356 133.215 108.261C133.411 107.653 137.881 93.0869 136.81 88.2309ZM112.327 74.692C111.967 74.1407 111.763 73.4957 111.74 72.8306C111.716 72.1655 111.874 71.5071 112.196 70.9303C112.971 69.1248 112.741 70.2544 112.424 67.4708C112.316 65.8163 112.784 64.1765 113.744 62.8471C114.078 62.7686 115.652 62.4648 116.363 63.2883C116.414 63.3471 116.481 63.3886 116.555 63.4075C116.629 63.4264 116.707 63.4218 116.779 63.3943C116.814 63.3801 120.376 62.0519 121.58 64.2672C122.835 66.5704 122.128 68.109 122.099 68.1702C122.071 68.2257 122.057 68.2872 122.057 68.3496C122.057 68.412 122.071 68.4735 122.099 68.529C122.735 69.9254 122.96 71.4839 122.746 73.0113C122.73 73.1046 122.746 73.201 122.793 73.2826C122.84 73.3642 122.914 73.4255 123.001 73.4552C123.088 73.4849 123.183 73.4809 123.268 73.444C123.352 73.4072 123.421 73.3399 123.461 73.2547C123.805 72.5301 124.525 71.4492 124.968 71.4342C125.593 71.4028 125.662 74.0805 124.764 74.7964C124.588 74.9175 124.373 74.9634 124.165 74.9246C123.957 74.8859 123.771 74.7654 123.647 74.5884C123.601 74.5334 123.541 74.4927 123.474 74.4709C123.407 74.449 123.335 74.4469 123.267 74.4646C123.198 74.4823 123.136 74.5193 123.087 74.5714C123.038 74.6234 123.004 74.6886 122.989 74.7595C122.573 76.671 120.154 78.9765 116.825 79.5221C113.527 80.0732 113.141 76.2337 112.327 74.692ZM119.091 89.5897C118.65 89.6963 118.191 89.7003 117.748 89.6015C117.305 89.5027 116.889 89.3035 116.529 89.0182C114.456 87.3956 113.917 83.2595 113.831 82.4627C114.544 82.0057 115.227 81.5026 115.878 80.9563C115.994 81.9386 116.164 82.9133 116.387 83.8757C116.399 83.9265 116.421 83.9742 116.451 84.0163C116.481 84.0583 116.518 84.0938 116.562 84.1205C116.605 84.1473 116.653 84.1649 116.703 84.1722C116.753 84.1795 116.804 84.1764 116.853 84.1632C116.902 84.1499 116.948 84.1267 116.988 84.0949C117.028 84.0632 117.062 84.0234 117.087 83.9781C117.112 83.9328 117.128 83.8827 117.134 83.8309C117.14 83.7791 117.136 83.7265 117.122 83.6763C116.874 82.573 116.689 81.4556 116.568 80.3299C119.362 80.0944 122.572 78.1319 123.56 75.5115C123.618 75.5459 123.677 75.5771 123.737 75.6049C123.645 76.7228 123.452 80.753 125.39 81.4822C125.873 81.6644 126.564 81.8747 127.409 82.1401C126.615 83.4958 123.283 88.7568 119.093 89.5897H119.091Z" fill="black"/>
<path fill-rule="evenodd" clip-rule="evenodd" d="M58.7466 107.924H65.9559L65.9856 104.857C63.9138 105.44 60.6785 104.932 58.989 103.403L58.7466 107.924Z" fill="#FFD997"/>
<path fill-rule="evenodd" clip-rule="evenodd" d="M88.7689 107.924L88.7324 105.418C91.483 105.615 94.2454 105.296 96.8857 104.476L96.6144 108.051L88.7689 107.924Z" fill="#FFD997"/>
<path fill-rule="evenodd" clip-rule="evenodd" d="M88.7689 107.924L88.7324 105.418C93.4444 105.93 99.9744 103.534 99.9744 103.534C99.9744 103.534 97.4101 93.2683 95.3566 88.6863C93.3031 84.1042 86.6166 82.7093 84.0554 81.5059C82.7816 84.3782 81.7252 87.8 76.8514 87.9146C74.4627 87.9711 71.4371 86.8415 69.6998 82.1629C68.4116 83.0515 66.7798 84.1325 65.4035 84.8986C62.6523 86.4317 60.6003 87.8644 59.9664 91.6331C59.3326 95.4019 57.561 102.125 57.561 102.125C58.6218 103.287 59.9533 104.148 61.4282 104.627C62.9032 105.105 64.4724 105.185 65.9856 104.858L65.956 107.925L88.7689 107.924Z" fill="white"/>
<path fill-rule="evenodd" clip-rule="evenodd" d="M71.5621 60.0281C71.5621 60.0281 69.6348 61.8893 69.5177 64.1211C69.4007 66.3528 69.3543 66.3073 68.6133 67.1268C67.8723 67.9464 67.6352 68.9221 67.9917 71.5519C68.3321 74.0702 68.2523 77.0147 71.1563 77.6984L71.9923 80.5472L69.8172 82.1957C69.8172 82.1957 71.4656 87.7087 76.9939 87.8901C82.6787 88.0761 84.071 81.5065 84.071 81.5065C82.5931 80.5733 81.3813 79.252 80.559 77.6772C79.4403 75.2743 80.6867 74.4587 80.6867 74.4587C80.6867 74.4587 82.6551 73.5678 82.9082 71.7528C83.1407 70.0871 82.2865 70.1342 81.4421 70.3131C81.4421 70.3131 80.2847 63.2984 79.4403 62.2347C78.5959 61.171 71.5621 60.0281 71.5621 60.0281Z" fill="#FFD997"/>
<path fill-rule="evenodd" clip-rule="evenodd" d="M71.4297 57.944C70.4303 58.2925 68.3464 59.4951 69.6391 63.3008C69.7183 62.6484 69.933 62.0213 70.2683 61.4625C70.6037 60.9036 71.052 60.4262 71.5824 60.0627C71.7281 60.4547 71.9985 60.7838 72.3493 60.996C74.3291 62.1814 76.7611 63.6132 79.4378 62.3949L77.9178 67.2187C78.4244 69.0448 78.75 70.9194 78.8898 72.8134C78.8898 72.8134 80.213 70.2928 81.8782 70.1947C83.4742 70.1005 83.3982 73.0992 80.7952 74.3481C81.0739 74.2221 81.338 74.0641 81.5825 73.8771C83.321 72.739 84.5997 70.9869 85.1804 68.9473C85.7894 66.8685 85.6847 64.6363 84.884 62.6281C85.0385 61.9519 85.0205 61.2458 84.8319 60.5789C84.6433 59.912 84.2904 59.3071 83.8078 58.8232C82.1487 57.3026 79.719 58.6748 76.4662 57.5868C74.913 57.1342 73.4178 56.4911 72.0126 55.6714C71.7364 56.4039 71.5408 57.1662 71.4297 57.944Z" fill="#81F8F8"/>
<path d="M71.081 65.1299C70.5179 64.2483 70.2511 64.2428 70.2352 64.2452C70.204 64.2452 70.1402 64.3425 70.1151 64.421C70.0838 64.5195 70.016 64.6012 69.9266 64.6482C69.8372 64.6953 69.7333 64.7039 69.6378 64.6722C69.067 64.4846 69.5299 63.5567 70.1272 63.468C70.6319 63.4044 71.1327 63.782 71.7149 64.6973C71.767 64.7841 71.7842 64.8885 71.763 64.9882C71.7418 65.088 71.6838 65.1753 71.6013 65.2316C71.5189 65.2879 71.4184 65.3087 71.3212 65.2897C71.2241 65.2707 71.1379 65.2134 71.081 65.1299Z" fill="black"/>
<path d="M76.471 67.5578C76.4003 67.5578 76.331 67.5375 76.2708 67.4991C76.2107 67.4607 76.1621 67.4057 76.1305 67.3403C76.0047 66.9986 75.8129 66.6868 75.5668 66.4241C75.3206 66.1613 75.0253 65.953 74.6987 65.8119C74.3538 65.7046 73.9819 65.7413 73.6628 65.914C73.5763 65.9666 73.4731 65.9816 73.3758 65.9559C73.2786 65.9301 73.1951 65.8657 73.1437 65.7766C73.0928 65.6881 73.0775 65.5825 73.1013 65.4825C73.125 65.3825 73.1858 65.2961 73.2707 65.242C73.7678 64.961 74.3521 64.8936 74.8971 65.0544C75.3295 65.2207 75.7233 65.4789 76.053 65.8124C76.3826 66.1458 76.6408 66.5471 76.8107 66.9902C76.8396 67.05 76.8532 67.1164 76.8502 67.1832C76.8473 67.25 76.8279 67.3148 76.7938 67.3717C76.7598 67.4285 76.7123 67.4754 76.6558 67.508C76.5993 67.5406 76.5357 67.5577 76.471 67.5578Z" fill="black"/>
<path fill-rule="evenodd" clip-rule="evenodd" d="M75.5261 68.3241C74.9869 68.4742 74.4143 68.4311 73.902 68.2016L73.7241 67.1254C73.7241 67.1254 74.494 66.5837 75.5261 68.3241Z" fill="white"/>
<path d="M75.7627 68.16C74.3764 65.8191 72.8678 66.82 73.339 67.4158C73.2258 67.9166 73.5085 68.2864 73.8079 68.2864C74.0876 68.2864 74.3065 67.9912 74.3065 67.6136V67.6058C74.6406 67.8627 74.917 68.1913 75.1167 68.569C75.1412 68.6158 75.1748 68.6569 75.2153 68.6899C75.2557 68.7229 75.3023 68.747 75.3521 68.7608C75.4019 68.7746 75.4539 68.7778 75.5049 68.7702C75.5559 68.7626 75.6049 68.7444 75.6489 68.7166C75.6929 68.6888 75.7309 68.6521 75.7607 68.6086C75.7905 68.5652 75.8114 68.5159 75.8222 68.4639C75.833 68.4118 75.8334 68.358 75.8234 68.3058C75.8135 68.2535 75.7933 68.2039 75.7642 68.16H75.7627Z" fill="black"/>
<path d="M69.7335 70.6648C69.4836 70.505 69.2763 70.2833 69.1303 70.0199C68.9843 69.7564 68.9043 69.4595 68.8975 69.156C68.9773 68.141 70.2822 67.6096 70.6956 67.3168C70.8523 67.157 70.9727 66.9633 71.048 66.7496C71.1233 66.5359 71.1517 66.3076 71.1311 66.0812C71.1246 65.9771 71.1583 65.8746 71.2249 65.7962C71.2916 65.7178 71.3856 65.6699 71.4864 65.6632C71.5872 65.6564 71.6864 65.6913 71.7623 65.7601C71.8382 65.8289 71.8846 65.9261 71.8911 66.0302C71.9182 66.3914 71.8634 66.7542 71.7309 67.0897C71.5984 67.4252 71.392 67.7242 71.1281 67.9628C70.7177 68.2517 69.697 68.7211 69.6582 69.2188C69.6362 69.5046 69.9478 69.8319 70.2138 70.0564C70.2919 70.1222 70.3415 70.2174 70.3517 70.3209C70.3619 70.4245 70.3318 70.528 70.2681 70.6087C70.2044 70.6894 70.1123 70.7406 70.012 70.7511C69.9118 70.7616 69.8116 70.7306 69.7335 70.6648Z" fill="black"/>
<path d="M69.1299 72.1094C69.8197 72.6857 70.6622 73.033 71.5467 73.1055C72.621 73.138 73.6962 73.1097 74.7676 73.0208C74.7676 73.0208 72.6532 75.3232 70.6096 74.4801C70.169 74.2728 69.7953 73.9392 69.533 73.519C69.2707 73.0987 69.1308 72.6094 69.1299 72.1094Z" fill="white"/>
<path d="M71.5565 75.06C71.1803 75.0654 70.807 74.9917 70.4592 74.8434C70.1114 74.6951 69.7965 74.4753 69.5334 74.1974C69.2704 73.9195 69.0649 73.5893 68.9293 73.2268C68.7936 72.8643 68.7308 72.4771 68.7445 72.0888C68.7473 72.0146 68.7704 71.9428 68.8111 71.8816C68.8518 71.8205 68.9084 71.7725 68.9744 71.7432C69.0405 71.7139 69.1132 71.7046 69.1842 71.7163C69.2551 71.728 69.3214 71.7603 69.3753 71.8093C70.0016 72.3274 70.7625 72.6421 71.5618 72.7136C72.6189 72.7448 73.6769 72.7168 74.731 72.6296C74.8074 72.6239 74.8837 72.6421 74.95 72.6819C75.0162 72.7217 75.0692 72.7812 75.102 72.8527C75.1349 72.9241 75.1461 73.0042 75.1341 73.0823C75.1222 73.1605 75.0876 73.2331 75.035 73.2906C74.9613 73.3793 73.3904 75.06 71.5565 75.06ZM69.6641 72.9405C70.1779 74.2475 71.6629 74.8834 73.6298 73.4837C71.9418 73.5646 70.8778 73.6077 69.6618 72.9429L69.6641 72.9405Z" fill="black"/>
<path d="M80.776 70.3061L76.5907 67.8726C76.5816 67.2507 76.3659 66.651 75.9797 66.1738C75.5935 65.6966 75.0603 65.371 74.4694 65.2514C73.8785 65.1318 73.2658 65.2256 72.7338 65.517C72.2019 65.8084 71.783 66.2798 71.5474 66.8521C71.3593 66.7005 71.1233 66.6266 70.8854 66.6449V66.6362C70.8399 66.1597 70.6615 65.707 70.3718 65.3331C70.0821 64.9593 69.6936 64.6803 69.2533 64.5301C68.8131 64.3799 68.3401 64.3649 67.8918 64.487C67.4435 64.609 67.0391 64.8629 66.7278 65.2177C66.4164 65.5725 66.2115 66.013 66.1378 66.4858C66.0642 66.9586 66.125 67.4433 66.3128 67.8811C66.5007 68.3189 66.8076 68.691 67.1962 68.9521C67.5848 69.2133 68.0384 69.3523 68.502 69.3523C69.0249 69.3329 69.5275 69.1387 69.9344 68.799C70.3413 68.4593 70.6305 67.9923 70.7585 67.4683C71.0032 67.3506 71.1719 67.4895 71.311 67.7321C71.2478 68.1321 71.2679 68.5414 71.37 68.9327C71.4721 69.324 71.6538 69.6883 71.903 70.0013C72.1523 70.3143 72.4633 70.5688 72.8153 70.7478C73.1673 70.9268 73.5522 71.0262 73.9444 71.0393C74.5669 71.0237 75.1652 70.7873 75.6389 70.37C76.1126 69.9526 76.4328 69.3795 76.5459 68.7471L80.4029 70.9883C80.4903 71.035 80.5919 71.0448 80.6862 71.0156C80.7806 70.9865 80.8602 70.9207 80.9085 70.832C80.9568 70.7434 80.9699 70.6389 80.945 70.5405C80.9202 70.4421 80.8593 70.3575 80.7753 70.3045L80.776 70.3061ZM68.5028 68.5673C68.1219 68.623 67.7337 68.5572 67.39 68.3786C67.0464 68.2001 66.7637 67.9174 66.5799 67.5684C66.3961 67.2193 66.3199 66.8206 66.3616 66.4256C66.4032 66.0306 66.5606 65.6582 66.8128 65.3582C67.0651 65.0582 67.4 64.8449 67.7728 64.7469C68.1455 64.6489 68.5384 64.6709 68.8988 64.8099C69.2591 64.9489 69.5698 65.1983 69.7891 65.5247C70.0085 65.8511 70.1261 66.2389 70.1262 66.6362C70.1561 67.114 70.0025 67.5847 69.6986 67.9463C69.3947 68.3078 68.965 68.5309 68.5028 68.5673ZM73.9452 70.2559C73.528 70.2913 73.1103 70.1958 72.7466 69.9819C72.3829 69.7681 72.0901 69.4458 71.9067 69.0572C71.7232 68.6687 71.6576 68.232 71.7184 67.8043C71.7792 67.3766 71.9635 66.9778 72.2474 66.6601C72.5312 66.3424 72.9013 66.1206 73.3092 66.0237C73.717 65.9269 74.1437 65.9594 74.5334 66.1172C74.9231 66.2749 75.2576 66.5505 75.4931 66.9078C75.7286 67.2652 75.8543 67.6876 75.8535 68.1199C75.8727 68.664 75.6828 69.1938 75.3254 69.594C74.9679 69.9941 74.4718 70.232 73.9452 70.2559Z" fill="black"/>
<path d="M82.4688 74.1754C82.3237 73.9289 82.1952 73.9877 80.9382 73.9705C80.9501 73.8512 80.9379 73.7307 80.9023 73.6166C80.8667 73.5025 80.8084 73.3973 80.7313 73.3077C80.6541 73.2181 80.5598 73.1461 80.4542 73.0962C80.3486 73.0464 80.2341 73.0198 80.1181 73.0181C80.002 73.0165 79.8869 73.0399 79.78 73.0867C79.6732 73.1335 79.5769 73.2028 79.4974 73.2902C79.4179 73.3776 79.3569 73.4811 79.3183 73.5942C79.2797 73.7072 79.2642 73.8274 79.273 73.9469L77.8936 73.9273C77.8285 73.9263 77.7643 73.9427 77.707 73.9748C77.6498 74.0069 77.6015 74.0536 77.5668 74.1105C77.5321 74.1674 77.5121 74.2325 77.5088 74.2997C77.5055 74.3669 77.5189 74.4338 77.5478 74.4941L79.6834 78.9607C79.7145 79.0271 79.7631 79.083 79.8236 79.1222C79.8841 79.1614 79.954 79.1821 80.0254 79.1821C80.0968 79.1821 80.1668 79.1614 80.2272 79.1222C80.2877 79.083 80.3363 79.0271 80.3674 78.9607L82.4878 74.5537C82.5158 74.4941 82.5288 74.4282 82.5255 74.362C82.5221 74.2959 82.5027 74.2316 82.4688 74.1754Z" fill="black"/>
<path d="M100.342 103.435C100.237 103.014 97.7461 93.083 95.7009 88.5198C93.5729 83.7776 86.9829 82.4604 84.4932 81.2884C82.9297 80.442 81.6659 79.1059 80.8832 77.4717C80.8413 77.377 80.7646 77.3033 80.6701 77.267C80.5756 77.2306 80.471 77.2345 80.3793 77.2778C80.2876 77.3211 80.2163 77.4003 80.1811 77.4979C80.1459 77.5955 80.1496 77.7035 80.1916 77.7982C80.9587 79.41 82.1504 80.7655 83.6298 81.7091C81.0884 89.7868 72.5262 89.0096 70.2097 82.279C70.8983 81.8002 71.4637 81.3951 71.8057 81.1494C72.0729 81.8979 72.3825 82.6295 72.7329 83.3404C72.7792 83.4329 72.8591 83.5027 72.9552 83.5343C73.0513 83.566 73.1556 83.5569 73.2452 83.5091C73.3348 83.4613 73.4023 83.3788 73.433 83.2795C73.4636 83.1803 73.4548 83.0726 73.4086 82.98C72.6742 81.4509 72.104 79.8433 71.7085 78.186C75.038 78.6021 78.0073 76.9709 78.9285 75.2258C78.9767 75.1344 78.9879 75.0269 78.9594 74.9271C78.931 74.8272 78.8653 74.743 78.7768 74.6932C78.6884 74.6433 78.5843 74.6318 78.4876 74.6612C78.3909 74.6905 78.3094 74.7584 78.2612 74.8498C77.5635 76.1702 74.9681 77.8893 71.618 77.3861C68.9915 76.9936 68.746 74.7956 68.4861 72.4767C68.2337 70.2324 67.8553 68.5353 68.8919 67.3939C69.7127 66.4903 69.7788 66.4087 69.8981 64.1408C70.0633 62.8456 70.6193 61.637 71.4873 60.6868C71.6619 60.9527 71.892 61.1748 72.1607 61.3368C73.914 62.3863 76.2571 63.7907 78.838 63.0371C77.4465 67.4433 77.5065 67.1631 77.5506 67.3271C78.0474 69.1178 78.3684 70.9556 78.5089 72.8127C78.5083 72.9003 78.5361 72.9856 78.5879 73.055C78.6396 73.1244 78.7124 73.1739 78.7946 73.1957C78.8767 73.2174 78.9636 73.2102 79.0413 73.1751C79.119 73.14 79.1831 73.079 79.2233 73.0019C79.5646 72.3543 80.7091 70.6375 81.8985 70.5872C83.0271 70.5401 82.8105 72.9579 80.6331 73.9941C80.5548 74.032 80.4912 74.0963 80.453 74.1764C80.4148 74.2566 80.4043 74.3478 80.4231 74.435C80.4418 74.5222 80.4888 74.6002 80.5563 74.656C80.6238 74.7119 80.7078 74.7423 80.7943 74.7422C81.1334 74.6338 81.4521 74.4663 81.7367 74.2469C83.5713 73.0452 84.9244 71.1999 85.5473 69.0502C86.1557 66.9241 86.0624 64.6495 85.2821 62.5842C85.4322 61.857 85.3986 61.1022 85.1844 60.3923C84.9702 59.6825 84.5827 59.0415 84.0592 58.5312C82.239 56.8631 79.7987 58.2902 76.5823 57.2148C75.0636 56.7687 73.6004 56.1415 72.2222 55.3457C72.1753 55.3135 72.1221 55.2924 72.0663 55.2841C72.0106 55.2757 71.9538 55.2803 71.8999 55.2974C71.8461 55.3146 71.7966 55.3438 71.7551 55.3831C71.7136 55.4224 71.681 55.4708 71.6598 55.5247C71.3973 56.2206 71.205 56.9427 71.086 57.6795C69.3646 58.3255 68.2391 60.2095 69.24 63.3519C69.1862 63.5977 69.1516 63.8476 69.1366 64.0992C69.0272 66.1842 69.0234 66.0963 68.3348 66.8593C67.0223 68.3147 67.4798 70.3258 67.7268 72.567C67.9738 74.8082 68.2588 77.3092 70.8854 78.0322C70.9614 78.365 71.1719 79.2654 71.5359 80.3833C70.7691 80.9422 67.5908 83.232 65.2211 84.5524C62.438 86.1028 60.2568 87.6029 59.5895 91.5648C58.9655 95.2723 57.2092 101.954 57.1917 102.022C57.1758 102.082 57.1739 102.145 57.1864 102.206C57.1988 102.267 57.2251 102.324 57.2631 102.373C58.3097 103.541 59.6217 104.422 61.0805 104.935C62.5394 105.448 64.0991 105.578 65.6186 105.312L65.6467 106.107C65.6502 106.211 65.6936 106.309 65.7674 106.38C65.8412 106.451 65.9392 106.489 66.04 106.486C66.1408 106.482 66.236 106.437 66.3048 106.361C66.3736 106.285 66.4102 106.184 66.4067 106.079C66.3558 104.607 66.3945 104.98 66.3786 104.886C65.8853 102.004 66.0624 95.2684 66.0647 95.2001C66.0674 95.096 66.03 94.9951 65.9607 94.9195C65.8913 94.8439 65.7957 94.7998 65.695 94.797C65.5942 94.7942 65.4964 94.8329 65.4233 94.9045C65.3501 94.9761 65.3074 95.0748 65.3047 95.1789C65.2071 98.2952 65.2913 101.415 65.557 104.52C64.1927 104.762 62.7922 104.661 61.4734 104.226C60.1547 103.792 58.9563 103.037 57.9791 102.024C58.2831 100.866 59.7719 95.0745 60.3396 91.7006C60.9476 88.0794 62.897 86.741 65.5836 85.2448C66.8452 84.5383 68.3265 83.5711 69.5653 82.7249C72.3659 89.9642 81.3749 90.6738 84.3093 82.0624C87.0232 83.2854 93.066 84.5131 95.0101 88.851C96.812 92.8718 99.0441 101.437 99.5153 103.279C98.1762 103.734 93.0439 105.361 89.1079 105.053C88.7955 100.664 88.2909 94.8783 88.2863 94.8194C88.2819 94.7679 88.2677 94.7177 88.2445 94.6719C88.2213 94.626 88.1896 94.5853 88.1511 94.5521C88.1127 94.5189 88.0683 94.4938 88.0205 94.4783C87.9727 94.4629 87.9224 94.4572 87.8725 94.4618C87.8226 94.4664 87.7741 94.4811 87.7297 94.5051C87.6853 94.529 87.6459 94.5618 87.6137 94.6015C87.5816 94.6412 87.5573 94.687 87.5423 94.7364C87.5273 94.7858 87.5219 94.8377 87.5263 94.8893C88.4497 105.621 88.3365 104.753 88.3844 107.931C88.386 108.034 88.4267 108.132 88.4978 108.205C88.5689 108.277 88.6646 108.317 88.7644 108.317C88.8658 108.316 88.9627 108.274 89.0339 108.199C89.1051 108.124 89.1448 108.024 89.1444 107.919L89.114 105.847C91.5627 105.93 94.0103 105.648 96.3811 105.009C96.3811 105.616 96.3537 106.925 96.2329 108.006C96.2259 108.058 96.229 108.11 96.242 108.161C96.255 108.211 96.2776 108.259 96.3086 108.3C96.3395 108.341 96.3782 108.376 96.4222 108.402C96.4663 108.427 96.5149 108.444 96.5652 108.45C96.6154 108.456 96.6664 108.452 96.715 108.437C96.7636 108.422 96.8089 108.398 96.8483 108.365C96.8876 108.332 96.9202 108.292 96.9441 108.246C96.968 108.199 96.9828 108.149 96.9876 108.097C97.0922 107.006 97.143 105.911 97.1396 104.815C98.8078 104.37 99.9812 103.944 100.094 103.903C100.185 103.872 100.261 103.806 100.307 103.72C100.353 103.633 100.366 103.531 100.342 103.435ZM72.2093 56.2437C73.5371 56.9387 74.921 57.5129 76.3452 57.9597C79.6132 59.054 82.0619 57.7501 83.5523 59.1168C83.9858 59.5503 84.3024 60.093 84.4709 60.6914C84.6393 61.2898 84.6538 61.9232 84.5129 62.5292C84.4899 62.6222 84.5002 62.7206 84.5418 62.8063C85.2964 64.7291 85.3911 66.8608 84.8101 68.8469C84.5223 69.937 84.0013 70.9464 83.2855 71.8008C83.6351 69.5471 81.3035 68.8131 79.1914 71.6336C78.9916 70.1469 78.6976 68.6753 78.3113 67.2282L79.7994 62.5182C79.8224 62.4461 79.8246 62.3686 79.8057 62.2951C79.7869 62.2217 79.7478 62.1555 79.6932 62.1046C79.6387 62.0536 79.571 62.0201 79.4984 62.0081C79.4258 61.9962 79.3513 62.0062 79.2841 62.037C76.7594 63.1894 74.4201 61.7842 72.5399 60.6578C71.3095 59.9199 71.7898 57.5178 72.2093 56.2437ZM71.0001 58.5815C70.9804 59.0289 71.0274 59.4769 71.1392 59.9097C70.558 60.5356 70.0712 61.2482 69.6952 62.0237C69.392 60.2135 70.0083 59.1302 71.0001 58.5815Z" fill="black"/>
<path fill-rule="evenodd" clip-rule="evenodd" d="M7.30176 147.629V117.442L46.1849 108.036H142.394L141.792 147.629H7.30176Z" fill="white"/>
<path d="M142.394 117.54H9.79695L46.2291 108.429C126.581 108.429 140.16 108.606 142.364 108.543C142.433 108.549 142.502 108.541 142.568 108.519C142.633 108.497 142.694 108.461 142.745 108.414C142.797 108.367 142.839 108.309 142.868 108.245C142.897 108.18 142.913 108.111 142.916 108.039C142.918 107.968 142.906 107.897 142.881 107.831C142.855 107.765 142.817 107.705 142.768 107.655C142.72 107.604 142.662 107.564 142.598 107.538C142.534 107.512 142.465 107.499 142.396 107.501H46.5483C46.2783 107.469 46.0068 107.451 45.7351 107.448L7.21296 117.061C7.13002 117.081 7.05621 117.13 7.00342 117.199C6.95062 117.269 6.9219 117.354 6.92188 117.442V147.629C6.92188 148.149 8.09075 148.15 8.09075 147.629V118.5H142.394C142.461 118.51 142.529 118.506 142.594 118.486C142.659 118.467 142.72 118.434 142.771 118.388C142.822 118.342 142.863 118.286 142.891 118.222C142.92 118.159 142.934 118.09 142.934 118.02C142.934 117.95 142.92 117.881 142.891 117.818C142.863 117.754 142.822 117.698 142.771 117.652C142.72 117.607 142.659 117.573 142.594 117.554C142.529 117.535 142.461 117.53 142.394 117.54Z" fill="black"/>
<path d="M57.0599 112.435C56.5006 112.435 59.0215 112.575 50.2534 111.964C50.1681 111.958 50.0873 111.923 50.024 111.864C49.9607 111.805 49.9185 111.725 49.9042 111.638C49.89 111.551 49.9046 111.462 49.9456 111.384C49.9866 111.307 50.0516 111.246 50.1302 111.212L55.9496 108.652C55.9957 108.63 56.0456 108.618 56.0964 108.616C56.1471 108.615 56.1976 108.624 56.245 108.643C56.2923 108.662 56.3355 108.69 56.3719 108.727C56.4084 108.763 56.4374 108.807 56.4572 108.855C56.4771 108.903 56.4874 108.955 56.4875 109.008C56.4876 109.06 56.4776 109.112 56.458 109.16C56.4383 109.209 56.4095 109.253 56.3733 109.289C56.337 109.326 56.294 109.355 56.2467 109.374L51.8889 111.292L56.9991 111.646L60.106 110.367C60.1997 110.328 60.3044 110.33 60.3971 110.371C60.4897 110.412 60.5627 110.49 60.6 110.587C60.6373 110.684 60.6358 110.792 60.5959 110.887C60.556 110.983 60.4809 111.058 60.3872 111.097C56.9079 112.531 57.1648 112.435 57.0599 112.435Z" fill="black"/>
<path d="M102.398 112.44L95.9474 112.253C95.857 112.251 95.7704 112.215 95.7031 112.153C95.6358 112.091 95.5924 112.005 95.5805 111.913C95.5686 111.82 95.589 111.726 95.6382 111.648C95.6873 111.569 95.7619 111.512 95.8486 111.485L102.809 109.322C102.885 109.297 103.386 109.304 107.779 109.314C107.867 109.316 107.951 109.349 108.019 109.407C108.086 109.466 108.132 109.546 108.149 109.635C108.166 109.724 108.153 109.816 108.112 109.897C108.071 109.977 108.005 110.041 107.925 110.077C102.081 112.608 102.512 112.44 102.398 112.44ZM98.3201 111.536L102.327 111.652L105.906 110.096H102.973L98.3201 111.536Z" fill="black"/>
<path fill-rule="evenodd" clip-rule="evenodd" d="M36.1459 70.6099C36.75 69.8857 37.2508 69.0761 37.6332 68.2055C37.6332 68.2055 39.2679 69.6585 40.2278 68.7016C41.1877 67.7447 40.3798 67.5406 41.4066 66.7831C42.4333 66.0255 41.1512 65.0875 41.1512 65.0875C41.1512 65.0875 42.8468 65.3952 42.9433 64.8967C43.0398 64.3982 42.1993 63.6038 43.2207 63.1642C44.2421 62.7246 44.6282 62.409 44.4261 61.9231C44.2239 61.4372 42.3034 59.7463 43.0049 58.6583C43.7063 57.5703 44.9847 54.8754 43.7527 52.8297C42.5207 50.784 41.418 50.426 41.418 50.426C41.418 50.426 32.5739 52.1719 31.1473 58.123C30.3181 61.6343 29.1179 65.041 27.5685 68.2816C26.2148 67.5612 24.7362 67.1253 23.2183 66.9989C23.2183 66.9989 24.3735 76.3577 32.0099 76.9119C33.4504 77.0562 34.9023 76.8079 36.2209 76.1918C37.5395 75.5757 38.6786 74.6133 39.5248 73.4006L36.1459 70.6099Z" fill="#FFD997"/>
<path d="M41.8735 59.9559C41.808 59.9559 41.7437 59.9384 41.6867 59.9051C41.6297 59.8718 41.582 59.8239 41.5482 59.7659C41.4726 59.5966 41.3617 59.4467 41.2235 59.3267C41.0853 59.2068 40.9232 59.1198 40.7487 59.072C40.4556 59.0579 40.1688 59.163 39.9499 59.3648C39.8762 59.436 39.7782 59.4741 39.6774 59.4706C39.5765 59.4671 39.4811 59.4225 39.4122 59.3464C39.3433 59.2703 39.3064 59.169 39.3098 59.0648C39.3131 58.9607 39.3564 58.8622 39.4301 58.791C39.6208 58.6121 39.8451 58.4756 40.0891 58.3901C40.3331 58.3046 40.5915 58.2719 40.8482 58.2941C41.1376 58.3529 41.41 58.4798 41.6442 58.665C41.8784 58.8501 42.0682 59.0885 42.1988 59.3617C42.2333 59.4212 42.2519 59.4891 42.2528 59.5585C42.2536 59.6278 42.2366 59.6962 42.2036 59.7566C42.1705 59.817 42.1226 59.8673 42.0646 59.9023C42.0066 59.9373 41.9406 59.9558 41.8735 59.9559Z" fill="black"/>
<path d="M42.7579 57.2453C42.6942 57.2454 42.6316 57.229 42.5757 57.1976C42.5198 57.1662 42.4724 57.1208 42.4379 57.0655C41.7889 56.0246 39.5719 57.1118 39.5499 57.1228C39.4592 57.1687 39.3545 57.1755 39.259 57.1418C39.1634 57.108 39.0848 57.0363 39.0403 56.9427C38.9959 56.849 38.9893 56.7409 39.022 56.6422C39.0547 56.5435 39.124 56.4622 39.2147 56.4163C39.3295 56.3567 42.0549 54.9963 43.0771 56.6377C43.1147 56.697 43.136 56.7657 43.1389 56.8365C43.1417 56.9074 43.1259 56.9777 43.0932 57.04C43.0605 57.1023 43.012 57.1543 42.953 57.1904C42.8939 57.2266 42.8265 57.2455 42.7579 57.2453Z" fill="black"/>
<path d="M44.7712 61.7684C44.5432 61.2267 42.8142 59.6567 43.3181 58.8757C44.3965 57.2052 45.2409 54.5644 44.0712 52.6224C44.0165 52.5305 43.9633 52.4599 43.9086 52.3743C43.734 51.4186 43.3335 50.5222 42.7427 49.7648C42.1519 49.0075 41.3891 48.4127 40.522 48.0333C39.0113 47.3658 37.3771 47.0489 35.7349 47.105C34.0926 47.161 32.4823 47.5885 31.0175 48.3575C27.3588 50.5068 27.4409 54.7285 27.4713 56.5317C27.5055 58.5444 27.6849 59.9072 25.8639 61.8893C24.5332 63.3852 23.375 65.0355 22.4128 66.8073C22.2608 67.093 22.5184 67.44 22.7532 67.3866C26.3328 67.3081 27.6241 69.7 30.7135 69.0194C33.9184 68.3129 33.9389 62.6107 33.9382 62.3681C33.9382 62.264 33.8981 62.1642 33.8269 62.0906C33.7556 62.017 33.6589 61.9756 33.5582 61.9756C32.3346 61.9756 30.7355 58.7571 31.7699 57.8497C32.0777 57.5781 32.3384 57.465 32.5025 57.5278C32.7799 57.6354 32.9479 58.221 32.9859 58.4879C32.9965 58.564 33.0285 58.6352 33.0779 58.6927C33.1274 58.7502 33.1921 58.7915 33.264 58.8113C35.6466 59.4699 36.285 58.385 38.5574 56.8669C40.5084 55.5661 41.3869 52.3837 41.6734 51.0673C42.3854 51.5866 42.9814 52.2574 43.4214 53.0345C44.7134 55.176 42.8894 58.1119 42.6812 58.4392C41.7274 59.915 44.1944 61.8869 44.0849 62.179C44.0462 62.2786 43.8372 62.4686 43.0665 62.7999C42.9381 62.835 42.8178 62.896 42.7125 62.9796C42.6072 63.0631 42.519 63.1675 42.4531 63.2866C42.3872 63.4056 42.3449 63.537 42.3286 63.6731C42.3123 63.8093 42.3223 63.9474 42.3582 64.0794C41.7298 64.2015 41.08 64.1092 40.5068 63.8165C40.4443 63.7625 40.3665 63.7308 40.2852 63.726C40.2038 63.7212 40.1231 63.7435 40.0549 63.7897C39.9868 63.8359 39.9348 63.9035 39.9067 63.9825C39.8786 64.0615 39.8758 64.1478 39.8988 64.2286C39.9795 64.4883 40.1124 64.7275 40.2888 64.9304C40.4652 65.1333 40.6812 65.2954 40.9226 65.4061C41.0837 65.5262 41.4173 65.8575 41.4173 66.1126C41.4173 66.1558 41.4173 66.2853 41.1779 66.4611C40.9718 66.58 40.795 66.7464 40.6614 66.9473C40.5277 67.1483 40.4407 67.3784 40.4073 67.6198C40.3628 67.9359 40.2012 68.2219 39.9566 68.4173C39.2658 69.1011 37.8871 67.9173 37.8734 67.9047L37.859 67.8977L37.8522 67.8843C36.6457 66.8893 35.5221 65.7917 34.493 64.603C34.4256 64.5255 34.3312 64.4787 34.2305 64.4731C34.1299 64.4674 34.0311 64.5033 33.956 64.5728C33.8809 64.6423 33.8357 64.7398 33.8302 64.8439C33.8247 64.9479 33.8594 65.0499 33.9268 65.1274C34.9181 66.2689 35.9901 67.3329 37.134 68.3106C36.4175 69.5451 35.5796 70.6999 34.6336 71.7567C34.5639 71.8321 34.5261 71.933 34.5285 72.0371C34.5308 72.1413 34.5731 72.2402 34.6461 72.3121C34.7191 72.3841 34.8167 72.4231 34.9175 72.4207C35.0184 72.4182 35.1142 72.3745 35.1838 72.2992C36.1554 71.2239 37.0161 70.0471 37.7518 68.7879C38.3598 69.2126 39.6017 69.8672 40.4878 68.9841C40.8488 68.675 41.0876 68.2398 41.1589 67.7611C41.1977 67.5358 41.2212 67.3992 41.624 67.1025C41.8711 66.9542 42.0536 66.7136 42.1338 66.4303C42.214 66.147 42.1858 65.8427 42.055 65.5804C42.1885 65.5827 42.322 65.5762 42.4547 65.5607C42.9168 65.5607 43.2565 65.4744 43.3014 64.9955C43.344 64.7284 43.3055 64.4542 43.1912 64.2105C43.0331 63.7576 43.0171 63.6791 43.3629 63.5299C44.2194 63.1578 45.1497 62.6774 44.7712 61.7684Z" fill="black"/>
<path fill-rule="evenodd" clip-rule="evenodd" d="M23.2002 66.998C21.4889 67.0012 19.8019 67.4165 18.2731 68.2108C16.7444 69.0051 15.4159 70.1566 14.3933 71.5738C12.7213 73.8205 3.06019 89.5503 4.16143 92.8473C4.16143 92.8473 4.01627 91.7483 5.58111 90.6823C7.14595 89.6162 9.52703 88.3391 12.0092 90.6823L14.9078 85.7454C14.9078 85.7454 15.7674 92.4634 14.3348 95.5446L37.514 89.3148C37.514 89.3148 37.6926 95.2588 39.3798 97.5848C39.3798 97.5848 41.0967 91.3566 44.1405 92.8112C43.6959 91.5497 43.3974 90.2382 43.2513 88.9043C43.2513 87.5894 42.3826 77.9425 42.0307 76.9832C41.5147 75.5765 39.3798 73.3911 39.3798 73.3911C39.3798 73.3911 37.2024 77.3718 31.697 76.82C24.325 76.0821 23.2002 66.998 23.2002 66.998Z" fill="#81F8F8"/>
<path d="M32.5743 77.3194C31.8856 77.3171 31.1986 77.2485 30.5223 77.1145C24.2949 75.904 22.8995 67.4174 22.8463 67.0571C22.8318 66.9551 22.8568 66.8513 22.9157 66.7682C22.9747 66.6851 23.063 66.6292 23.1615 66.6127C23.26 66.5962 23.3608 66.6204 23.4422 66.6801C23.5236 66.7397 23.579 66.83 23.5964 66.9315C23.6093 67.0147 24.9644 75.2344 30.6583 76.3428C36.3697 77.452 39.0419 73.3598 39.0677 73.319C39.1236 73.2336 39.2097 73.1743 39.3075 73.1539C39.4054 73.1335 39.507 73.1537 39.5906 73.2101C39.6741 73.2664 39.7328 73.3545 39.754 73.4553C39.7752 73.556 39.7572 73.6613 39.7039 73.7484C38.8685 74.878 37.7884 75.7894 36.5502 76.4096C35.312 77.0298 33.9502 77.3414 32.5743 77.3194Z" fill="black"/>
<path fill-rule="evenodd" clip-rule="evenodd" d="M37.1525 71.4615L36.1462 70.6098L35.5056 71.3948C35.9616 74.0677 36.6714 81.2654 36.6714 81.2654C33.4133 83.0881 28.4535 80.7277 28.4535 80.7277C28.7241 75.7037 27.5727 68.2823 27.5727 68.2823C26.8975 67.8079 26.1437 67.4654 25.3489 67.272C25.3489 67.272 27.3249 77.6968 23.5356 84.772C19.7462 91.8472 17.4396 93.4439 14.3973 95.4236L11.165 100.854L13.1813 115.575L32.3174 110.799L32.4458 99.468C32.4458 99.468 32.9368 98.8769 33.1503 98.5621C34.1322 97.1177 37.9239 89.1578 38.4817 86.6418C39.0396 84.1259 37.1525 71.4615 37.1525 71.4615Z" fill="white"/>
<path fill-rule="evenodd" clip-rule="evenodd" d="M60.0565 110.536C59.488 109.116 60.5809 108.362 62.0036 107.741C62.0036 107.741 63.7866 109.354 64.0951 108.949C64.5276 108.383 62.4087 106.338 61.5309 105.114C60.6531 103.889 59.2418 104.028 57.1761 103.858C55.1104 103.688 48.9483 97.585 47.2961 95.5369C46.4612 94.4193 45.414 93.4897 44.2189 92.8051C41.1545 91.1864 39.3359 97.5551 39.3853 97.6368C39.642 98.0737 39.9613 98.4681 40.3322 98.8064C43.2572 101.23 46.5771 103.096 50.1362 104.316C51.9369 104.786 53.5608 105.8 54.8003 107.229C55.856 108.36 57.2179 111.545 60.0565 110.536Z" fill="#FFD997"/>
<path fill-rule="evenodd" clip-rule="evenodd" d="M24.4206 99.7984L21.9795 100.904C21.9795 100.904 21.313 101.418 22.7463 102.788C25.1244 105.055 41.301 106.764 41.7843 102.058C42.1187 98.8015 26.0136 99.2764 24.4206 99.7984Z" fill="white"/>
<path fill-rule="evenodd" clip-rule="evenodd" d="M12.0091 90.6832C9.02538 87.2779 3.7069 91.0584 4.27842 93.1128C5.98158 96.2033 11.8024 99.4532 13.5398 101.37C15.2771 103.287 16.8686 106.09 18.2016 105.845C19.7454 105.429 21.2631 104.915 22.7464 104.308C22.7464 104.308 24.8433 105.47 26.25 104.249C24.4881 103.712 22.8113 102.912 21.2728 101.875C21.1822 101.802 21.1147 101.703 21.0786 101.59C21.0426 101.477 21.0396 101.356 21.0702 101.242C21.1008 101.127 21.1635 101.025 21.2504 100.947C21.3373 100.87 21.4445 100.82 21.5585 100.806C22.1293 100.733 24.2056 100.779 24.4017 100.016C24.5978 99.253 24.157 99.4391 22.3299 99.6801C20.5029 99.9211 19.9527 98.7632 17.4895 98.6093C15.0263 98.4555 14.9655 96.8682 14.3279 95.5313C13.6059 94.0163 12.8299 91.3559 12.0091 90.6832Z" fill="#FFD997"/>
<path d="M26.3618 103.87C24.7212 103.349 23.1618 102.587 21.7319 101.606C21.2493 101.218 21.4172 101.2 22.0305 101.163C23.0892 101.099 24.5385 101.012 24.7665 100.116C24.8164 99.9828 24.8338 99.8394 24.8174 99.698C24.801 99.5566 24.7511 99.4215 24.6723 99.3047C24.3683 98.9538 23.945 99.0605 22.2798 99.2898C20.6147 99.519 20.0112 98.3721 17.5108 98.2174C15.4269 98.0871 15.3547 96.912 14.752 95.5484C16.2925 91.8464 15.3919 86.4958 15.2582 85.7642C17.2539 82.2922 19.7422 78.0233 20.9126 76.232C20.9691 76.1458 20.9902 76.0399 20.9712 75.9377C20.9521 75.8354 20.8946 75.7452 20.8111 75.6868C20.7698 75.6579 20.7234 75.6376 20.6745 75.6272C20.6256 75.6169 20.5752 75.6165 20.5262 75.6263C20.4272 75.6459 20.3398 75.7054 20.2833 75.7916C18.3833 78.6961 13.0694 88.0376 11.9081 90.0841C11.2014 89.4681 10.3346 89.0811 9.41605 88.9714C8.49752 88.8616 7.56805 89.034 6.74389 89.4671C5.92609 89.8775 5.18708 90.4376 4.56269 91.1203C5.57501 86.0923 13.0025 74.0858 14.6927 71.8163C18.1758 67.1393 22.6727 67.385 22.7191 67.3889C22.8199 67.396 22.9193 67.3614 22.9954 67.2928C23.0715 67.2242 23.1181 67.1272 23.1249 67.0231C23.1318 66.919 23.0983 66.8164 23.0319 66.7378C22.9655 66.6591 22.8716 66.611 22.7708 66.6039C22.5701 66.5882 17.8308 66.3135 14.0901 71.3367C13.1401 72.6123 2.90741 88.412 3.78141 92.8017C3.79585 94.4604 8.99729 98.2504 10.1343 99.0943C13.0511 101.26 13.0983 101.35 14.6844 103.371C15.6108 104.555 16.9644 106.463 18.2693 106.228C19.7854 105.829 21.2751 105.33 22.729 104.733C23.2853 104.996 25.1329 105.728 26.4948 104.546C26.5471 104.501 26.5867 104.442 26.6092 104.375C26.6317 104.308 26.6364 104.237 26.6228 104.167C26.6092 104.098 26.5778 104.034 26.5318 103.982C26.4859 103.929 26.4271 103.891 26.3618 103.87ZM14.6517 86.8208C14.8675 88.4693 15.1487 91.8597 14.312 94.5311C13.7579 93.1707 13.1469 91.3989 12.488 90.6171C12.814 90.0456 13.6303 88.602 14.6517 86.8208ZM22.9258 103.959C22.8775 103.932 22.8243 103.917 22.7697 103.914C22.7152 103.911 22.6606 103.92 22.6097 103.94C21.1483 104.537 19.6537 105.043 18.134 105.455C17.1065 105.658 15.4018 102.85 13.8165 101.102C12.0601 99.1657 5.45645 95.3059 4.54445 92.7531C4.57637 92.5105 4.84845 91.3722 7.09501 90.1626C7.85225 89.7602 8.71522 89.6217 9.55496 89.7679C10.3947 89.914 11.1661 90.337 11.7538 90.9735C12.4173 91.869 12.9252 92.8767 13.2548 93.9518C13.8628 95.5108 13.9783 95.6332 14.2869 96.4363C14.7231 97.573 15.2171 98.8627 17.4645 99.0032C18.3169 99.0589 19.1529 99.2716 19.9329 99.6312C20.9104 100.128 22.027 100.249 23.0831 99.9735C23.4738 99.9178 23.8477 99.8636 24.0453 99.8628C23.9321 100.355 22.0693 100.346 21.5092 100.419C21.3204 100.443 21.1428 100.524 20.9989 100.653C20.8549 100.781 20.7511 100.951 20.7005 101.14C20.3768 102.36 24.1373 103.899 25.2947 104.33C24.487 104.478 23.6546 104.348 22.9258 103.959Z" fill="black"/>
<path d="M33.1492 98.9515C33.0798 98.9513 33.0117 98.9314 32.9524 98.8941C32.8931 98.8567 32.8449 98.8033 32.8129 98.7396C32.781 98.676 32.7665 98.6045 32.7711 98.5329C32.7758 98.4613 32.7993 98.3924 32.8391 98.3337C33.8408 96.8595 37.5671 89.0016 38.1112 86.5508C38.6151 84.2798 37.007 73.0967 36.7987 71.6704L36.1907 71.1586L35.905 71.5079C36.3556 74.2939 37.0381 81.154 37.045 81.2246C37.0525 81.3016 37.0379 81.3793 37.0029 81.4477C36.9678 81.5161 36.914 81.5724 36.8481 81.6093C33.4608 83.5035 28.4995 81.183 28.2898 81.0833C28.2208 81.0503 28.163 80.9967 28.1238 80.9294C28.0847 80.862 28.066 80.7841 28.0701 80.7057C28.3126 76.1936 27.3861 69.6372 27.2174 68.51C26.7841 68.2184 26.3148 67.9884 25.8221 67.8262C26.1891 70.2166 27.1847 78.7621 23.8635 84.9612C19.9457 92.2719 17.4666 93.8859 14.5953 95.755C14.5531 95.7833 14.5059 95.8027 14.4563 95.812C14.4068 95.8213 14.356 95.8204 14.3068 95.8092C14.2576 95.798 14.2111 95.7769 14.1699 95.747C14.1287 95.7171 14.0936 95.6791 14.0668 95.6351C14.04 95.5911 14.0218 95.542 14.0135 95.4907C14.0052 95.4394 14.0068 95.3869 14.0183 95.3363C14.0298 95.2857 14.0509 95.2379 14.0804 95.1958C14.11 95.1536 14.1473 95.118 14.1903 95.0909C17.0874 93.2069 19.3757 91.7154 23.1985 84.5813C26.8769 77.7157 24.9906 67.4502 24.9708 67.3466C24.9586 67.2815 24.9626 67.2142 24.9823 67.1511C25.0021 67.088 25.037 67.0311 25.0839 66.9857C25.1307 66.9403 25.1879 66.9079 25.2501 66.8915C25.3124 66.8752 25.3776 66.8754 25.4398 66.8921C26.2786 67.0979 27.0738 67.4608 27.7859 67.9628C27.8274 67.993 27.8627 68.0315 27.8896 68.076C27.9165 68.1205 27.9344 68.1701 27.9424 68.2219C27.9538 68.2957 29.0566 75.4737 28.8408 80.4757C29.8128 80.8879 33.6029 82.3283 36.2614 81.0386C35.2156 70.6876 34.9694 71.4357 35.2096 71.1429L35.8502 70.3579C35.9146 70.2788 36.0065 70.229 36.1061 70.2195C36.2057 70.2099 36.3049 70.2413 36.3822 70.3068C37.4576 71.2104 37.4972 71.201 37.5268 71.4058C37.6028 71.9263 39.4184 84.1699 38.8507 86.7298C38.2936 89.2418 34.4838 97.2826 33.46 98.7882C33.4246 98.8391 33.3779 98.8805 33.3238 98.9089C33.2698 98.9373 33.2099 98.9519 33.1492 98.9515Z" fill="black"/>
<path fill-rule="evenodd" clip-rule="evenodd" d="M11.6122 101.019C11.8956 100.531 12.0811 100.264 12.0902 100.251C12.1403 100.167 12.1581 100.067 12.1402 99.9706C12.1223 99.874 12.07 99.7879 11.9936 99.7292C11.9171 99.6706 11.8221 99.6437 11.7274 99.654C11.6327 99.6642 11.5452 99.7108 11.4822 99.7845C8.94987 103.343 6.86063 110.311 7.61379 117.296C7.62277 117.347 7.64139 117.396 7.66857 117.439C7.69576 117.483 7.73098 117.521 7.77223 117.55C7.81348 117.58 7.85995 117.6 7.90898 117.611C7.95802 117.622 8.00866 117.623 8.05801 117.614C8.10736 117.605 8.15447 117.585 8.19663 117.557C8.23878 117.529 8.27518 117.493 8.30372 117.45C8.33227 117.408 8.35241 117.36 8.363 117.309C8.37359 117.258 8.37441 117.206 8.36543 117.155L12.8662 115.978C12.8932 116.065 12.9493 116.141 13.0246 116.19C13.0999 116.239 13.1896 116.26 13.2781 116.248C13.3665 116.236 13.4481 116.192 13.5084 116.124C13.5687 116.056 13.6039 115.968 13.6079 115.876C13.5464 112.728 11.847 102.424 11.6122 101.019Z" fill="black"/>
<path d="M22.489 103.073C22.2003 102.861 21.9583 102.589 21.7786 102.273C21.5989 101.958 21.4857 101.607 21.4463 101.243C21.4782 100.615 22.011 100.29 22.2823 100.669C22.3399 100.749 22.3661 100.848 22.3557 100.947C22.3452 101.045 22.2989 101.136 22.226 101.201C22.1721 101.275 22.1538 101.687 23.0035 102.497C25.3907 104.774 40.9836 106.108 41.4054 102.015C41.6524 99.5496 26.5854 99.4978 24.5334 100.173C24.4388 100.199 24.338 100.187 24.252 100.138C24.1661 100.089 24.1017 100.008 24.0723 99.9117C24.0429 99.8152 24.0507 99.7106 24.0941 99.6199C24.1376 99.5292 24.2133 99.4593 24.3054 99.4248C25.8254 98.9263 42.5697 98.1515 42.1654 102.098C41.6243 107.327 24.9674 105.436 22.489 103.073Z" fill="black"/>
<path fill-rule="evenodd" clip-rule="evenodd" d="M24.4863 101.368C24.4863 101.368 33.3943 105.264 40.2244 101.56C40.2244 101.56 38.6238 97.9435 34.4438 99.4232C34.4438 99.4232 32.0992 96.4245 28.8784 97.5839C27.0034 98.2259 25.4339 99.5783 24.4863 101.368Z" fill="#FFD997"/>
<path d="M40.5701 101.396C40.0331 100.298 39.1228 99.4442 38.0137 98.997C36.9047 98.5499 35.6748 98.5412 34.56 98.9727C33.9261 98.2843 31.6667 96.1608 28.7528 97.2135C26.7887 97.9049 25.1445 99.3275 24.1411 101.204C24.1199 101.251 24.1082 101.303 24.1066 101.355C24.1051 101.408 24.1137 101.46 24.1321 101.509C24.1504 101.558 24.1781 101.603 24.2135 101.641C24.2488 101.678 24.2912 101.708 24.338 101.729C27.1986 102.897 30.2409 103.518 33.3166 103.563C35.7732 103.612 38.2046 103.044 40.4013 101.907C40.4874 101.86 40.5529 101.781 40.5843 101.686C40.6157 101.591 40.6106 101.487 40.5701 101.396ZM30.3047 102.52C31.805 101.186 33.8927 99.7051 35.8717 99.4947C34.2423 100.439 32.6709 101.486 31.1666 102.63C30.8732 102.599 30.5867 102.562 30.3047 102.52ZM26.3938 99.5324C26.8984 99.4704 29.6762 99.2286 31.0001 100.945C30.76 101.128 30.5373 101.305 30.3359 101.473C29.0844 100.439 27.5071 99.9204 25.9074 100.016C26.0525 99.8558 26.2159 99.6949 26.3938 99.5324ZM28.16 98.3164C28.938 98.2 29.732 98.2974 30.4619 98.5988C31.1919 98.9002 31.8321 99.3949 32.318 100.033C32.0778 100.182 31.8437 100.335 31.6211 100.489C30.5365 99.0457 28.7148 98.727 27.4798 98.6987C27.6921 98.5658 27.9189 98.4384 28.16 98.3164ZM33.7764 99.2655C33.5074 99.3801 33.2444 99.5096 32.9815 99.6502C32.3202 98.6826 31.3411 97.996 30.2265 97.7183C30.8876 97.7226 31.5414 97.8614 32.1505 98.1269C32.7597 98.3924 33.3122 98.7793 33.7764 99.2655ZM25.2431 100.842C25.6596 100.852 28.0133 100.483 29.7454 101.979C29.5721 102.136 29.4315 102.267 29.335 102.359C27.8711 102.086 26.4319 101.687 25.0326 101.165C25.0896 101.072 25.1603 100.962 25.2431 100.842ZM32.3476 102.726C36.4417 99.7538 37.2337 99.7977 37.4396 99.6156C37.7288 99.6998 38.0068 99.8206 38.2673 99.9751C36.6449 100.766 35.0886 101.694 33.6145 102.75C33.1849 102.754 32.7621 102.745 32.3461 102.723L32.3476 102.726ZM35.114 102.669C36.3227 101.803 37.6247 101.084 38.9938 100.527C39.264 100.785 39.5011 101.077 39.6991 101.397C38.2549 102.095 36.7027 102.525 35.114 102.666V102.669Z" fill="black"/>
<path d="M32.3195 104.739C32.2187 104.739 32.122 104.78 32.0508 104.853C31.9795 104.927 31.9395 105.027 31.9395 105.131V111.272L32.6995 111.2V105.131C32.6995 105.027 32.6594 104.927 32.5882 104.853C32.5169 104.78 32.4202 104.739 32.3195 104.739Z" fill="black"/>
<path d="M63.0597 106.42C61.9402 105.383 61.7586 103.666 58.8348 103.644C56.2508 103.627 56.2144 103.107 53.467 101.038C49.002 97.6781 47.4698 94.3128 44.4921 92.5191C43.2184 90.3298 43.2959 80.1891 42.4705 77.1881C41.6094 74.0536 36.5615 70.4065 36.3472 70.2526C36.3062 70.2232 36.26 70.2025 36.2112 70.1915C36.1624 70.1806 36.112 70.1797 36.0629 70.1889C36.0138 70.1981 35.9669 70.2172 35.9249 70.2451C35.8829 70.273 35.8467 70.3091 35.8182 70.3515C35.7898 70.3939 35.7697 70.4416 35.7591 70.492C35.7485 70.5424 35.7477 70.5944 35.7566 70.6452C35.7655 70.6959 35.7839 70.7443 35.811 70.7877C35.838 70.831 35.873 70.8685 35.914 70.8979C35.9642 70.934 40.952 74.5356 41.7402 77.4024C42.5002 80.1703 42.4287 88.8854 43.53 92.1894C43.043 92.1582 42.5564 92.2554 42.1159 92.4718C41.6753 92.6883 41.2952 93.0168 41.0113 93.4266C40.281 94.385 39.7004 95.4556 39.2907 96.5996C37.9865 93.6691 37.9941 89.3619 37.9941 89.3077C37.9949 89.2036 37.9557 89.1034 37.885 89.0292C37.8143 88.955 37.7179 88.9129 37.6172 88.912C37.5164 88.9112 37.4194 88.9518 37.3476 89.0248C37.2757 89.0978 37.2349 89.1973 37.2341 89.3014C37.2341 89.5958 37.2121 96.5438 40.0864 99.0974C43.0535 101.557 46.422 103.449 50.0333 104.685C52.125 105.229 53.9569 106.533 55.1937 108.359C56.5457 110.247 57.938 111.705 60.18 110.907C60.2305 110.889 60.2767 110.86 60.3156 110.823C60.3546 110.785 60.3855 110.74 60.4063 110.689C60.4271 110.638 60.4373 110.583 60.4363 110.528C60.4353 110.473 60.4231 110.419 60.4004 110.369C60.0626 109.629 59.6724 108.916 59.2331 108.236C59.0389 107.876 58.9164 107.48 58.8728 107.071C59.4523 107.486 59.9599 107.999 60.3746 108.589C60.4045 108.63 60.442 108.665 60.485 108.691C60.5279 108.717 60.5755 108.735 60.6249 108.742C60.6743 108.749 60.7246 108.746 60.7729 108.734C60.8212 108.721 60.8667 108.698 60.9066 108.667C60.9465 108.636 60.9802 108.598 61.0056 108.553C61.031 108.509 61.0477 108.46 61.0548 108.409C61.0618 108.358 61.0591 108.306 61.0467 108.256C61.0343 108.206 61.0125 108.159 60.9826 108.118C60.7414 107.79 60.5374 107.435 60.3746 107.059C60.4217 107.079 60.4802 107.111 60.5372 107.137L60.5509 107.152C62.8788 108.755 63.9223 109.81 64.4193 109.14C64.9164 108.47 63.594 106.915 63.0597 106.42ZM59.5135 110.282C59.2384 110.34 58.9558 110.35 58.6775 110.311C58.6509 110.233 57.495 108.516 57.7146 107.882C57.9578 107.762 58.7976 108.833 59.5135 110.282ZM61.9235 107.184C61.4014 106.72 60.4688 106.019 59.8935 106.3C59.8264 106.334 59.7667 106.382 59.7179 106.441C59.6692 106.499 59.6325 106.568 59.61 106.641C59.2088 106.332 58.8219 106.17 58.5164 106.327C58.3693 106.41 58.2517 106.539 58.181 106.695C58.1102 106.852 58.0901 107.028 58.1235 107.197C58.0159 107.139 57.8977 107.106 57.7766 107.099C57.6555 107.092 57.5344 107.111 57.4212 107.156C56.4925 107.549 57.0063 108.892 57.4881 109.8C55.5524 108.379 55.2765 105.45 50.2461 103.932C46.7376 102.73 43.4652 100.89 40.5827 98.4992C40.2744 98.2162 40.0058 97.8902 39.7847 97.5306C40.1692 96.2247 40.7832 95.003 41.5958 93.9266C42.2592 93.1016 43.0914 92.6855 44.0392 93.1526C45.0765 93.7979 46.0122 94.6032 46.8139 95.5406C50.8039 100.069 51.0228 100.069 54.3098 102.674C55.9058 103.94 56.4994 104.413 58.8333 104.429C61.3558 104.447 61.2972 105.838 62.5573 107.004C62.9726 107.389 63.3268 107.84 63.6069 108.338C63.0126 107.948 62.4068 107.527 61.9235 107.184Z" fill="black"/>
<path d="M79.3572 108.77C77.3052 106.642 68.3782 106.066 63.6434 107.265C63.5947 107.277 63.5488 107.299 63.5083 107.329C63.4678 107.36 63.4335 107.398 63.4075 107.442C63.3814 107.486 63.3641 107.536 63.3564 107.587C63.3488 107.638 63.351 107.69 63.363 107.74C63.375 107.791 63.3964 107.838 63.4262 107.879C63.4559 107.921 63.4934 107.956 63.5363 107.983C63.5792 108.01 63.6269 108.027 63.6764 108.035C63.726 108.042 63.7765 108.04 63.8251 108.027C68.5713 106.825 77.1205 107.565 78.8191 109.324C79.6756 110.21 78.3548 110.811 77.192 111.149C72.429 112.535 62.0383 112.03 60.7288 110.696C60.5747 110.579 60.4525 110.423 60.3741 110.242C60.2958 110.062 60.2641 109.864 60.282 109.667C60.4484 108.942 61.7328 108.362 62.169 108.216C62.2608 108.181 62.3358 108.111 62.3786 108.02C62.4213 107.929 62.4284 107.824 62.3985 107.728C62.3685 107.632 62.3037 107.551 62.2177 107.503C62.1316 107.455 62.0309 107.443 61.9365 107.47C61.7229 107.54 59.8389 108.2 59.5432 109.484C59.4892 109.88 59.5522 110.284 59.7242 110.643C59.8962 111.001 60.169 111.298 60.5069 111.494C60.5208 111.519 60.5371 111.542 60.5556 111.564C60.668 111.673 63.3341 114.233 65.5153 114.508C67.2831 114.733 73.601 114.822 75.1156 114.17C76.4751 113.423 77.7194 112.47 78.8077 111.344C80.0739 110.626 80.1066 109.546 79.3572 108.77ZM74.8238 113.445C73.6458 113.951 67.7885 114.005 65.608 113.728C64.4747 113.466 63.4146 112.939 62.5088 112.188C67.2823 112.986 72.153 112.933 76.9092 112.031C76.2721 112.588 75.5718 113.063 74.8238 113.445Z" fill="black"/>
<path fill-rule="evenodd" clip-rule="evenodd" d="M62.0742 110.158C62.0742 110.158 73.8018 111.957 77.4384 109.706C77.4607 109.202 77.3809 108.698 77.204 108.227C77.0271 107.756 76.7571 107.329 76.4112 106.972C76.0653 106.615 75.6511 106.337 75.1951 106.155C74.7391 105.973 74.2514 105.891 73.763 105.914C69.9448 105.836 69.6765 107.563 69.6765 107.563C69.227 106.914 68.5846 106.434 67.8469 106.196C67.1092 105.958 66.3165 105.975 65.5892 106.245C62.7461 107.042 62.0742 110.158 62.0742 110.158Z" fill="#FFD997"/>
<path d="M76.7522 106.729C76.3613 106.329 75.8952 106.015 75.3824 105.807C74.8696 105.599 74.3211 105.502 73.7707 105.522C71.135 105.476 70.0467 106.264 69.6044 106.862C69.0757 106.318 68.4108 105.936 67.6841 105.76C66.9574 105.584 66.1976 105.62 65.4897 105.865C62.4634 106.715 61.733 109.935 61.7034 110.072C61.6924 110.124 61.692 110.178 61.7021 110.231C61.7122 110.284 61.7326 110.334 61.7621 110.378C61.7915 110.422 61.8295 110.459 61.8735 110.488C61.9175 110.516 61.9667 110.535 62.018 110.543C65.6174 111.1 74.5048 111.977 77.6338 110.04C77.6878 110.006 77.7329 109.959 77.765 109.903C77.7971 109.847 77.8152 109.784 77.8177 109.719C77.8295 108.621 77.4503 107.557 76.7522 106.729ZM74.5094 106.391L74.5223 106.385C74.8161 106.442 75.1013 106.539 75.3705 106.673C73.7491 107.056 72.2508 107.864 71.0202 109.02C70.8082 108.647 70.885 108.831 70.9564 108.684C70.964 108.668 71.7453 107.123 74.5094 106.391ZM76.2308 107.309C76.4005 107.503 76.5442 107.72 76.6579 107.954C75.0645 108.655 73.3967 109.159 71.689 109.457C72.9731 108.307 74.5492 107.562 76.2308 107.309ZM72.4186 106.367C71.6417 106.757 70.9659 107.333 70.4472 108.047C70.2952 107.804 70.1797 107.622 70.1014 107.503C70.2428 107.227 70.7542 106.573 72.4186 106.369V106.367ZM69.352 107.762C69.8915 108.577 70.3904 109.42 70.847 110.288C69.58 108.476 67.7336 107.185 65.6341 106.643C65.6531 106.638 65.6691 106.628 65.6881 106.623C66.3356 106.374 67.0441 106.35 67.7056 106.556C68.3672 106.762 68.9454 107.186 69.352 107.762ZM64.349 107.285C64.6188 107.273 67.354 107.207 69.9897 110.433C69.7092 110.427 69.4311 110.421 69.1537 110.411C68.4007 109.66 67.5091 109.074 66.5321 108.687C65.555 108.3 64.5124 108.12 63.4666 108.158C63.7217 107.83 64.0185 107.538 64.349 107.291V107.285ZM62.9369 108.986C64.7014 108.804 66.4699 109.29 67.9141 110.353C65.5391 110.213 63.4468 109.952 62.5706 109.832C62.6724 109.542 62.7949 109.26 62.9369 108.989V108.986ZM71.7848 110.431L71.6928 110.255C73.4907 109.945 75.2476 109.421 76.9285 108.693C76.9934 108.951 77.0349 109.213 77.0524 109.478C75.8637 110.117 73.9006 110.375 71.7848 110.431Z" fill="black"/>
<path d="M36.4113 97.6704C36.4158 97.4844 36.5944 93.0491 43.7521 88.6429L44.6185 88.1115C51.1097 84.126 57.2398 80.3627 55.5792 76.258C53.7476 71.7309 47.7109 68.7479 50.4158 61.9349C53.0636 55.2624 59.2447 54.6862 60.7328 47.7476C62.0423 41.6403 61.2648 41.1583 58.3593 39.3653C54.6079 37.0567 50.4272 33.7542 49.8473 29.2789C49.5068 26.6554 50.5062 24.0194 52.8181 21.4352C52.8867 21.3587 52.9818 21.3136 53.0826 21.3096C53.1833 21.3056 53.2815 21.3432 53.3555 21.414C53.4294 21.4847 53.4732 21.583 53.477 21.6871C53.4808 21.7911 53.4445 21.8925 53.376 21.969C47.5597 28.4617 51.3392 34.1294 58.7492 38.6918C61.9739 40.6834 62.8418 41.5406 61.4745 47.9171C59.9196 55.1674 53.6709 55.8103 51.118 62.2324C48.6161 68.5336 54.386 71.267 56.2799 75.9542C58.1959 80.6909 51.7891 84.6237 45.0069 88.7874L44.1412 89.3196C37.3833 93.4801 37.1728 97.6492 37.1713 97.6908C37.1686 97.7949 37.1261 97.8937 37.053 97.9654C36.9799 98.0371 36.8822 98.0758 36.7814 98.0731C36.6806 98.0704 36.585 98.0265 36.5156 97.951C36.4462 97.8754 36.4086 97.7745 36.4113 97.6704Z" fill="black"/>
<path d="M46.7724 91.0177C46.6885 91.018 46.6069 90.9896 46.5403 90.9369C46.4736 90.8843 46.4257 90.8103 46.404 90.7266C46.3823 90.6429 46.3881 90.5542 46.4203 90.4742C46.4526 90.3942 46.5096 90.3275 46.5824 90.2845C47.7293 89.6023 48.9817 88.9186 50.3064 88.2545C58.8184 83.9707 62.2795 79.34 60.5816 74.4879C58.4088 68.2864 55.4136 61.4444 60.3696 57.1473C65.1781 52.9797 74.7138 49.9378 72.2613 42.4811C69.7533 34.8556 54.9789 29.8238 61.4799 24.1349C61.5572 24.0704 61.6557 24.0397 61.7546 24.0493C61.8534 24.059 61.9447 24.1082 62.0089 24.1865C62.073 24.2648 62.105 24.3659 62.0979 24.4681C62.0908 24.5704 62.0452 24.6658 61.9709 24.7338C61.5855 25.0072 61.2642 25.3662 61.0308 25.7846C60.7974 26.203 60.6576 26.6701 60.6219 27.1516C60.6318 31.1834 70.8393 35.7152 72.981 42.2276C75.6517 50.3499 65.6235 53.621 60.8567 57.7486C56.2838 61.7112 59.2881 68.4905 61.2945 74.221C63.1474 79.5127 59.5617 84.4723 50.637 88.9602C47.29 90.6424 47.0567 91.0177 46.7724 91.0177Z" fill="black"/>
<path fill-rule="evenodd" clip-rule="evenodd" d="M83.3502 93.2014L90.0382 93.4055L91.0414 100.569C91.0414 100.569 91.4138 104.318 86.7413 104.288C81.869 104.257 82.1585 100.501 82.1585 100.501L83.3502 93.2014Z" fill="white"/>
<path fill-rule="evenodd" clip-rule="evenodd" d="M84.0057 97.895L83.5148 100.388C83.5148 100.388 83.2526 102.643 85.9422 102.941C88.6319 103.239 88.8979 102.364 89.3318 101.441C89.7954 100.455 89.2817 97.8408 89.2817 97.8408L84.0057 97.895Z" fill="#FFD997"/>
<path d="M90.514 103.307C91.1628 102.536 91.489 101.531 91.4207 100.512L90.4175 93.3491C90.4047 93.2577 90.3611 93.1739 90.2944 93.1125C90.2276 93.051 90.1421 93.0158 90.0527 93.0131L83.3647 92.809C83.2721 92.8024 83.1805 92.8326 83.1088 92.8935C83.037 92.9543 82.9904 93.0412 82.9786 93.1363L81.787 100.47C81.7529 101.476 82.0978 102.456 82.7491 103.205C83.5333 104.018 84.5738 104.515 85.682 104.604L85.628 108.828C84.0822 108.937 82.5333 109.394 82.5333 110.398C82.5333 112.528 90.2275 112.531 90.2275 110.398C90.2275 109.417 88.741 108.959 87.2331 108.837L87.2848 104.647C88.4906 104.66 89.6522 104.178 90.514 103.307ZM82.534 100.566L83.6664 93.6042L89.7084 93.7879L90.6638 100.607C90.7022 101.402 90.4438 102.182 89.9418 102.786C89.5151 103.195 89.0094 103.504 88.4581 103.696C87.9067 103.887 87.3224 103.955 86.7437 103.896C86.1213 103.948 85.4952 103.867 84.9044 103.658C84.3136 103.45 83.7708 103.117 83.31 102.682C82.8075 102.1 82.532 101.346 82.5371 100.566H82.534ZM89.1962 110.397C88.3015 110.781 87.3423 110.978 86.3736 110.978C85.4048 110.978 84.4456 110.781 83.5509 110.397C84.193 110.038 84.911 109.85 85.6409 109.847C85.6721 110.035 85.7664 110.205 85.9072 110.328C86.0479 110.451 86.2261 110.519 86.4105 110.52C86.5948 110.52 86.7735 110.454 86.9151 110.332C87.0566 110.21 87.152 110.04 87.1845 109.853C87.8891 109.861 88.5809 110.048 89.1993 110.397H89.1962Z" fill="black"/>
<path fill-rule="evenodd" clip-rule="evenodd" d="M120.373 93.7964L127.065 93.9997L128.068 101.163C128.068 101.163 128.441 104.913 123.768 104.883C118.896 104.852 119.185 101.095 119.185 101.095L120.373 93.7964Z" fill="white"/>
<path fill-rule="evenodd" clip-rule="evenodd" d="M121.032 98.4412L120.534 100.968C120.534 100.968 120.269 103.252 122.995 103.555C125.72 103.857 126.377 102.668 126.612 101.73C126.862 100.733 126.112 98.2764 126.112 98.2764L121.032 98.4412Z" fill="#FFD997"/>
<path d="M127.538 103.902C128.186 103.131 128.512 102.126 128.444 101.107L127.441 93.9439C127.428 93.8526 127.385 93.7688 127.318 93.7073C127.251 93.6459 127.166 93.6107 127.076 93.608L120.384 93.4039C120.291 93.3951 120.199 93.4245 120.126 93.4858C120.054 93.547 120.008 93.6352 119.998 93.7312L118.806 101.065C118.772 102.071 119.117 103.051 119.768 103.8C120.563 104.622 121.619 105.121 122.742 105.204L122.645 109.207C121.104 109.316 119.555 109.767 119.555 110.759C119.555 112.87 127.244 112.868 127.244 110.759C127.244 109.788 125.755 109.333 124.241 109.213L124.303 105.24C124.901 105.247 125.494 105.133 126.049 104.903C126.604 104.674 127.11 104.333 127.538 103.902ZM119.558 101.16L120.691 94.1983L126.733 94.3828L127.687 101.201C127.727 101.997 127.469 102.777 126.966 103.381C126.536 103.784 126.03 104.091 125.479 104.282C124.929 104.472 124.346 104.544 123.768 104.49C123.146 104.543 122.519 104.462 121.928 104.253C121.337 104.045 120.794 103.712 120.334 103.277C119.831 102.695 119.555 101.941 119.56 101.16H119.558ZM126.218 110.759C125.286 111.525 121.486 111.508 120.577 110.759C121.219 110.401 121.939 110.215 122.669 110.218C122.716 110.388 122.815 110.537 122.951 110.644C123.087 110.75 123.254 110.808 123.424 110.808C123.595 110.808 123.762 110.75 123.898 110.644C124.034 110.537 124.133 110.388 124.18 110.218C124.893 110.221 125.594 110.407 126.221 110.759H126.218Z" fill="black"/>
<path d="M137.29 38.6942C137.328 38.6601 137.36 38.6184 137.382 38.5715C137.405 38.5247 137.418 38.4736 137.421 38.4214C137.424 38.3692 137.417 38.3169 137.401 38.2675C137.384 38.2181 137.358 38.1727 137.324 38.1339C137.29 38.095 137.249 38.0636 137.203 38.0414C137.157 38.0193 137.107 38.0068 137.057 38.0047C137.006 38.0027 136.956 38.0111 136.908 38.0294C136.861 38.0478 136.818 38.0758 136.781 38.1118L135.657 39.159C135.625 38.4948 135.574 37.8292 135.514 37.18L136.971 35.8243C137.01 35.7905 137.043 35.7489 137.066 35.7018C137.09 35.6548 137.104 35.6032 137.108 35.5504C137.111 35.4976 137.105 35.4445 137.088 35.3944C137.072 35.3443 137.045 35.2982 137.011 35.2588C136.977 35.2195 136.935 35.1877 136.888 35.1655C136.842 35.1432 136.791 35.1309 136.74 35.1293C136.689 35.1277 136.638 35.1369 136.59 35.1562C136.542 35.1755 136.499 35.2047 136.462 35.2418L135.416 36.2152C135.163 33.9269 134.825 32.079 134.799 31.937C134.78 31.8346 134.723 31.7443 134.639 31.6857C134.556 31.6272 134.453 31.6053 134.354 31.6249C134.255 31.6445 134.168 31.7039 134.111 31.7901C134.055 31.8763 134.033 31.9822 134.052 32.0845C134.058 32.112 134.28 33.3193 134.498 34.989L133.358 34.5706C133.263 34.5359 133.158 34.5415 133.067 34.5863C132.976 34.6312 132.906 34.7115 132.872 34.8097C132.839 34.9078 132.844 35.0158 132.888 35.1098C132.931 35.2038 133.009 35.2761 133.104 35.3109L134.609 35.8604C134.699 36.625 134.782 37.4516 134.841 38.286L133.306 37.6455C133.212 37.6065 133.108 37.6076 133.015 37.6484C132.922 37.6891 132.849 37.7663 132.811 37.8629C132.774 37.9595 132.775 38.0676 132.814 38.1635C132.854 38.2593 132.928 38.335 133.022 38.374L134.894 39.159C134.961 40.2475 134.947 41.3397 134.853 42.4261C134.847 42.4781 134.85 42.5309 134.863 42.5815C134.877 42.6321 134.9 42.6794 134.931 42.7207C134.962 42.7619 135.002 42.7962 135.046 42.8216C135.09 42.847 135.139 42.863 135.19 42.8685C135.24 42.8741 135.291 42.8692 135.34 42.854C135.388 42.8388 135.434 42.8138 135.473 42.7803C135.512 42.7468 135.544 42.7056 135.567 42.659C135.591 42.6125 135.605 42.5616 135.609 42.5093C135.682 41.7378 135.71 40.9623 135.692 40.1873L137.29 38.6942Z" fill="black"/>
<path d="M144.567 32.4643C144.644 32.3971 144.692 32.301 144.701 32.1972C144.709 32.0934 144.677 31.9904 144.612 31.9109C144.547 31.8313 144.454 31.7818 144.354 31.7731C144.253 31.7644 144.153 31.7973 144.076 31.8646L143.154 32.6708C143.072 31.5914 142.949 30.1383 142.826 28.9946C142.814 28.8918 142.764 28.7981 142.685 28.7337C142.607 28.6693 142.507 28.6395 142.407 28.6508C142.308 28.6621 142.217 28.7135 142.154 28.7939C142.091 28.8743 142.061 28.9772 142.071 29.0802C142.071 29.0802 142.208 30.4366 142.299 31.4988L141.412 30.9493C141.325 30.8956 141.222 30.8797 141.124 30.905C141.026 30.9302 140.942 30.9946 140.89 31.0839C140.838 31.1732 140.823 31.2801 140.847 31.3812C140.872 31.4823 140.934 31.5692 141.02 31.6228L142.377 32.4635C142.426 33.0978 142.474 33.7658 142.512 34.3985L141.473 33.809C141.385 33.7588 141.281 33.747 141.184 33.7761C141.087 33.8051 141.006 33.8728 140.957 33.964C140.908 34.0553 140.897 34.1628 140.925 34.2629C140.953 34.3629 141.019 34.4473 141.107 34.4975L142.559 35.3217C142.577 35.7605 142.587 36.1569 142.582 36.4686C142.581 36.5727 142.619 36.6731 142.69 36.7479C142.76 36.8226 142.856 36.8654 142.957 36.867C143.057 36.8685 143.155 36.8287 143.227 36.7562C143.299 36.6837 143.341 36.5845 143.342 36.4804C143.352 35.7841 143.299 34.718 143.225 33.63C143.306 33.5672 142.982 33.8459 144.567 32.4643Z" fill="black"/>
<path d="M144.29 49.9903C142.086 49.0703 142.466 49.2281 142.383 49.2053C142.346 48.217 142.323 47.2099 142.307 46.2757L143.626 46.5764C143.725 46.5986 143.828 46.5796 143.913 46.5234C143.997 46.4673 144.057 46.3786 144.079 46.2769C144.1 46.1752 144.082 46.0688 144.028 45.9811C143.973 45.8935 143.887 45.8317 143.789 45.8094L142.298 45.4695C142.293 44.931 142.292 44.4286 142.298 43.9953C142.298 43.8912 142.258 43.7914 142.187 43.7177C142.115 43.6441 142.019 43.6028 141.918 43.6028C141.817 43.6028 141.72 43.6441 141.649 43.7177C141.578 43.7914 141.538 43.8912 141.538 43.9953C141.538 44.1342 141.533 45.5158 141.569 47.2546L140.066 48.29C140.023 48.3178 139.986 48.3543 139.957 48.3973C139.928 48.4402 139.907 48.4888 139.896 48.5401C139.886 48.5915 139.885 48.6445 139.894 48.6961C139.904 48.7477 139.923 48.7968 139.951 48.8405C139.98 48.8842 140.016 48.9216 140.058 48.9506C140.101 48.9795 140.148 48.9993 140.198 49.0089C140.248 49.0185 140.3 49.0176 140.349 49.0063C140.399 48.995 140.446 48.9735 140.487 48.9431L141.591 48.1833C141.616 49.0687 141.652 50.0013 141.703 50.8844L140.529 51.9732C140.456 52.0433 140.412 52.1402 140.408 52.2431C140.403 52.3461 140.438 52.4467 140.505 52.5234C140.571 52.6001 140.665 52.6466 140.764 52.653C140.864 52.6593 140.962 52.6249 141.037 52.5573L141.772 51.8767C141.813 52.8051 141.95 53.7263 142.182 54.6242C142.219 54.7182 142.289 54.7939 142.379 54.8354C142.468 54.877 142.57 54.8811 142.663 54.8471C142.755 54.813 142.831 54.7433 142.875 54.6526C142.919 54.5619 142.927 54.4572 142.897 54.3604C142.593 52.9483 142.433 51.5069 142.42 50.0602C142.971 50.3517 143.55 50.583 144.148 50.7502C144.237 50.7523 144.325 50.7215 144.395 50.6633C144.465 50.6051 144.512 50.5233 144.529 50.4323C144.546 50.3412 144.532 50.2469 144.488 50.166C144.444 50.0851 144.374 50.0229 144.29 49.9903Z" fill="black"/>
<path d="M135.108 51.7291C133.785 51.1662 133.918 51.2133 133.81 51.2031C133.744 49.7375 133.734 48.6048 133.734 48.582C133.733 48.4779 133.692 48.3784 133.62 48.3054C133.548 48.2324 133.451 48.1918 133.351 48.1926C133.25 48.1935 133.154 48.2356 133.083 48.3098C133.012 48.384 132.973 48.4842 132.974 48.5883C132.974 48.6409 132.978 49.0279 132.992 49.6088L131.786 50.7776C131.712 50.849 131.669 50.9475 131.666 51.0516C131.663 51.1556 131.7 51.2568 131.769 51.3326C131.838 51.4085 131.934 51.453 132.034 51.4562C132.135 51.4595 132.233 51.4212 132.306 51.3499L133.025 50.6536C133.051 51.3601 133.092 52.1804 133.152 53.0212C133.076 53.0793 133.38 52.7582 132.332 53.9632C132.283 54.0197 132.251 54.0896 132.24 54.1644C132.229 54.2393 132.239 54.3159 132.269 54.385C132.299 54.4541 132.348 54.5128 132.409 54.554C132.471 54.5952 132.542 54.6171 132.616 54.6171C132.821 54.6171 132.864 54.5268 133.242 54.0888C133.31 54.8008 133.394 55.4931 133.502 56.0992C133.511 56.1499 133.529 56.1983 133.556 56.2416C133.583 56.2849 133.618 56.3223 133.66 56.3517C133.701 56.381 133.747 56.4017 133.796 56.4126C133.844 56.4235 133.895 56.4243 133.944 56.4151C133.993 56.4059 134.04 56.3868 134.082 56.3588C134.124 56.3309 134.16 56.2947 134.188 56.2523C134.217 56.2099 134.237 56.1622 134.247 56.1118C134.258 56.0614 134.259 56.0094 134.25 55.9586C134.046 54.662 133.914 53.3544 133.853 52.0423L134.819 52.4528C134.912 52.4924 135.017 52.492 135.11 52.4518C135.203 52.4117 135.277 52.3349 135.315 52.2385C135.354 52.1421 135.353 52.034 135.314 51.9378C135.275 51.8417 135.201 51.7655 135.108 51.7259V51.7291Z" fill="black"/>
</svg>
