<svg width="152" height="158" viewBox="0 0 152 158" fill="none" xmlns="http://www.w3.org/2000/svg">
<path fill-rule="evenodd" clip-rule="evenodd" d="M136.58 153.308H11.2729L62.6756 84.5266H102.162L136.58 153.308Z" fill="white"/>
<path fill-rule="evenodd" clip-rule="evenodd" d="M57.2543 78.3587L15.271 115.942L14.208 10.406L57.2543 15.3217V78.3587Z" fill="white"/>
<path d="M57.4228 14.9315C11.0908 9.61784 14.141 9.93891 13.9545 10.1155C13.768 10.2922 13.777 2.58425 14.8929 115.946C14.8938 116.021 14.9152 116.094 14.9545 116.156C14.9939 116.219 15.0496 116.268 15.115 116.299C15.1805 116.33 15.2531 116.34 15.3242 116.33C15.3954 116.319 15.4621 116.288 15.5166 116.239L36.948 96.9868C37.0206 96.9178 37.0644 96.8221 37.0702 96.72C37.0759 96.618 37.0431 96.5176 36.9788 96.4403C36.9145 96.363 36.8237 96.3148 36.7257 96.306C36.6277 96.2972 36.5303 96.3286 36.4542 96.3933L15.6396 115.092L14.8899 40.674L50.4821 38.8936V78.168L43.9416 83.4337C43.9025 83.4656 43.8699 83.5051 43.8456 83.5501C43.8213 83.595 43.8057 83.6445 43.7998 83.6957C43.7939 83.7469 43.7977 83.7989 43.8111 83.8485C43.8245 83.8982 43.8471 83.9446 43.8778 83.9852C43.9084 84.0258 43.9464 84.0597 43.9897 84.085C44.0329 84.1102 44.0805 84.1264 44.1297 84.1326C44.179 84.1387 44.2289 84.1348 44.2767 84.1209C44.3245 84.1069 44.3691 84.0834 44.4082 84.0515C51.4621 78.3297 51.2364 78.5565 51.2364 78.3611V38.856L56.8234 38.5765V74.3772C56.8234 75.0602 57.6267 74.7148 57.629 74.3772V15.3232C57.632 15.1223 57.6154 14.9535 57.4228 14.9315ZM14.5894 10.8448L50.5901 14.9464V31.8483L14.8031 32.218L14.5894 10.8448ZM56.9177 37.7907L14.8824 39.8914L14.8129 33.003L56.9177 32.5673V37.7907ZM56.9683 31.7823L51.3451 31.8404V15.0328L56.9683 15.6733V31.7823Z" fill="black"/>
<path fill-rule="evenodd" clip-rule="evenodd" d="M112.573 48.4684V14.5948L140.277 4.29956L138.54 70.9814L112.573 48.4684Z" fill="#FFD997"/>
<path fill-rule="evenodd" clip-rule="evenodd" d="M115.2 18.3243L118.555 16.8846V24.861L115.2 26.3007V18.3243Z" fill="white"/>
<path fill-rule="evenodd" clip-rule="evenodd" d="M124.396 14.912L127.752 13.4723V21.4495L124.396 22.8884V14.912Z" fill="white"/>
<path fill-rule="evenodd" clip-rule="evenodd" d="M133.595 11.6959L136.951 10.257V18.2333L133.595 19.673V11.6959Z" fill="white"/>
<path fill-rule="evenodd" clip-rule="evenodd" d="M115.2 33.0895L118.555 32.1703V40.1475L115.2 41.0667V33.0895Z" fill="white"/>
<path fill-rule="evenodd" clip-rule="evenodd" d="M124.396 30.8905L127.752 29.9713V37.9485L124.396 38.8677V30.8905Z" fill="white"/>
<path fill-rule="evenodd" clip-rule="evenodd" d="M127.753 46.9172L124.396 47.5531V55.2822L127.753 54.8897V46.9172Z" fill="white"/>
<path fill-rule="evenodd" clip-rule="evenodd" d="M115.2 51.6657L118.563 54.5576V47.9982L115.2 48.634V51.6657Z" fill="white"/>
<path fill-rule="evenodd" clip-rule="evenodd" d="M133.595 28.6416L136.951 27.7224V35.6996L133.595 36.6188V28.6416Z" fill="white"/>
<path fill-rule="evenodd" clip-rule="evenodd" d="M133.595 46.0968L136.951 45.6007V53.5771L133.595 54.0732V46.0968Z" fill="white"/>
<path d="M115.199 26.6932C115.099 26.6932 115.003 26.6519 114.932 26.5783C114.862 26.5047 114.822 26.4048 114.822 26.3007V18.3236C114.822 18.2459 114.844 18.17 114.885 18.1054C114.927 18.0409 114.986 17.9906 115.055 17.9609L118.411 16.522C118.468 16.4975 118.531 16.4881 118.592 16.4945C118.654 16.501 118.713 16.5231 118.765 16.5589C118.816 16.5948 118.858 16.6432 118.887 16.7C118.917 16.7568 118.932 16.8202 118.932 16.8847V24.8611C118.932 24.9387 118.91 25.0146 118.868 25.0792C118.827 25.1438 118.768 25.1941 118.699 25.2237C115.035 26.7945 115.305 26.6932 115.199 26.6932ZM115.577 18.5865V25.7143L118.177 24.5981V17.4711L115.577 18.5865Z" fill="black"/>
<path d="M124.397 23.2817C124.297 23.2817 124.201 23.2403 124.13 23.1667C124.059 23.0931 124.02 22.9933 124.02 22.8892V14.912C124.02 14.8343 124.042 14.7583 124.084 14.6937C124.125 14.6292 124.184 14.5789 124.254 14.5494L127.609 13.1105C127.666 13.0858 127.728 13.0762 127.79 13.0826C127.852 13.089 127.911 13.111 127.963 13.1469C128.014 13.1828 128.057 13.2313 128.086 13.2882C128.115 13.3451 128.131 13.4086 128.131 13.4731V21.4495C128.13 21.5273 128.108 21.6032 128.066 21.6678C128.025 21.7324 127.966 21.7826 127.896 21.8122C124.23 23.383 124.503 23.2817 124.397 23.2817ZM124.775 15.175V22.3028L127.376 21.1865V14.0595L124.775 15.175Z" fill="black"/>
<path d="M133.595 20.0654C133.495 20.0654 133.399 20.0241 133.328 19.9505C133.258 19.8769 133.218 19.777 133.218 19.6729V11.6965C133.218 11.6188 133.24 11.5428 133.282 11.4782C133.323 11.4137 133.383 11.3634 133.452 11.3339L136.807 9.89419C136.864 9.86971 136.927 9.86027 136.988 9.86671C137.05 9.87315 137.109 9.89526 137.161 9.9311C137.212 9.96694 137.254 10.0154 137.283 10.0722C137.313 10.129 137.328 10.1924 137.328 10.2569V18.2332C137.328 18.3109 137.306 18.3868 137.264 18.4514C137.223 18.5159 137.164 18.5662 137.095 18.5959C133.428 20.1667 133.701 20.0654 133.595 20.0654ZM133.973 11.9595V19.0865L136.573 17.9703V10.8433L133.973 11.9595Z" fill="black"/>
<path d="M115.199 41.4591C115.099 41.4591 115.003 41.4178 114.932 41.3442C114.862 41.2706 114.822 41.1707 114.822 41.0666V33.0903C114.822 33.0035 114.849 32.9191 114.9 32.8504C114.951 32.7816 115.023 32.7324 115.103 32.7103C118.697 31.7283 118.576 31.6898 118.786 31.8594C118.995 32.0289 118.932 31.5454 118.932 40.1474C118.932 40.2341 118.904 40.3182 118.853 40.3868C118.802 40.4554 118.731 40.5045 118.65 40.5266C115.043 41.5125 115.275 41.4591 115.199 41.4591ZM115.577 33.3933V40.5572L118.177 39.8444V32.6797L115.577 33.3933Z" fill="black"/>
<path d="M124.397 39.2603C124.297 39.2603 124.201 39.2189 124.13 39.1453C124.059 39.0717 124.02 38.9719 124.02 38.8678V30.8906C124.02 30.804 124.047 30.7198 124.098 30.6512C124.149 30.5826 124.221 30.5335 124.301 30.5115C127.896 29.5287 127.774 29.491 127.983 29.6605C128.192 29.8301 128.131 29.3465 128.131 37.9486C128.131 38.0354 128.103 38.1197 128.052 38.1885C128.001 38.2572 127.93 38.3065 127.849 38.3285C124.242 39.3105 124.473 39.2603 124.397 39.2603ZM124.775 31.1936V38.3591L127.376 37.6456V30.4809L124.775 31.1936Z" fill="black"/>
<path d="M124.397 55.6739C124.297 55.6739 124.201 55.6325 124.13 55.5589C124.059 55.4853 124.02 55.3855 124.02 55.2814V47.5531C124.019 47.4609 124.05 47.3717 124.107 47.301C124.164 47.2302 124.243 47.1825 124.33 47.1661C127.93 46.4784 127.803 46.4509 127.995 46.6166C128.188 46.7822 128.131 46.2021 128.131 54.8944C128.132 54.9914 128.098 55.0852 128.036 55.1577C127.974 55.2302 127.888 55.2762 127.795 55.2869C124.861 55.6244 124.483 55.6739 124.397 55.6739ZM124.775 47.8804V54.8434L127.376 54.5396V47.3882L124.775 47.8804Z" fill="black"/>
<path d="M118.571 54.9501C118.47 54.9507 118.373 54.9099 118.301 54.8364C118.228 54.7629 118.187 54.6627 118.185 54.5576V48.4684L115.577 48.9613V51.6657C115.577 51.7698 115.537 51.8696 115.466 51.9432C115.395 52.0168 115.299 52.0582 115.199 52.0582C115.099 52.0582 115.003 52.0168 114.932 51.9432C114.862 51.8696 114.822 51.7698 114.822 51.6657V48.634C114.822 48.542 114.852 48.4528 114.909 48.3821C114.966 48.3114 115.044 48.2636 115.131 48.247C118.732 47.5593 118.604 47.5319 118.797 47.6975C119.023 47.8914 118.928 47.5405 118.94 54.5584C118.941 54.6094 118.932 54.6601 118.914 54.7075C118.896 54.7548 118.869 54.798 118.834 54.8344C118.8 54.8709 118.759 54.8999 118.714 54.9197C118.669 54.9396 118.62 54.9499 118.571 54.9501Z" fill="black"/>
<path d="M133.595 37.0113C133.495 37.0113 133.399 36.97 133.328 36.8964C133.258 36.8227 133.218 36.7229 133.218 36.6188V28.6416C133.218 28.5549 133.245 28.4705 133.296 28.4017C133.347 28.333 133.419 28.2838 133.499 28.2617C137.093 27.2797 136.972 27.2412 137.182 27.4108C137.391 27.5803 137.328 27.0968 137.328 35.6996C137.328 35.7862 137.3 35.8704 137.249 35.939C137.198 36.0076 137.127 36.0567 137.046 36.0787C133.44 37.0647 133.671 37.0113 133.595 37.0113ZM133.973 28.9447V36.1094L136.573 35.3966V28.2311L133.973 28.9447Z" fill="black"/>
<path d="M133.595 54.4657C133.495 54.4657 133.399 54.4244 133.328 54.3508C133.258 54.2772 133.218 54.1773 133.218 54.0732V46.0968C133.218 46.0023 133.251 45.9109 133.31 45.8395C133.37 45.7681 133.452 45.7215 133.542 45.7083C137.131 45.1768 137.015 45.1399 137.198 45.3032C137.381 45.4665 137.328 44.8738 137.328 53.5771C137.329 53.6722 137.297 53.7645 137.237 53.8367C137.177 53.9089 137.095 53.9561 137.004 53.9696C136.962 53.972 133.638 54.4657 133.595 54.4657ZM133.973 46.4375V53.6211L136.573 53.2372V46.0521L133.973 46.4375Z" fill="black"/>
<path d="M136.703 5.77374C136.669 5.6761 136.599 5.59649 136.509 5.55234C136.419 5.5082 136.315 5.50313 136.221 5.53824L112.573 14.2282C112.422 14.2831 112.195 14.4291 112.195 14.5948V48.4652C112.195 48.6818 112.232 48.8577 112.441 48.8577C112.649 48.8577 112.948 48.6834 112.95 48.4652V14.8672L120.789 12.0349V56.3623C120.789 56.4664 120.829 56.5662 120.9 56.6398C120.971 56.7134 121.067 56.7548 121.167 56.7548C121.267 56.7548 121.363 56.7134 121.434 56.6398C121.505 56.5662 121.544 56.4664 121.544 56.3623V11.7625L136.477 6.27535C136.571 6.23992 136.647 6.16722 136.69 6.0732C136.732 5.97918 136.737 5.87149 136.703 5.77374Z" fill="black"/>
<path d="M136.138 53.0763C136.042 52.9782 136.75 52.9193 124.624 54.5945C136.6 36.1015 135.798 37.3598 135.81 37.2813C135.946 36.0363 135.965 36.0402 135.863 35.9468C135.745 35.8432 136.398 35.7113 124.834 38.8513C136.211 18.7302 135.462 20.0859 135.462 20.0019C135.462 18.7459 135.49 18.7498 135.38 18.6674C135.252 18.5771 136.045 18.2867 122.753 23.5211C122.577 23.5909 122.627 23.7063 122.678 24.6044C122.68 24.6348 122.688 24.6645 122.703 24.6909C122.717 24.7174 122.738 24.74 122.762 24.7569C122.787 24.7738 122.815 24.7845 122.844 24.7883C122.873 24.7921 122.902 24.7888 122.93 24.7786L133.618 20.8207L122.702 39.488C122.637 39.8101 122.613 40.1398 122.631 40.4684C122.63 40.4989 122.635 40.5293 122.647 40.5573C122.659 40.5852 122.676 40.61 122.699 40.6295C122.722 40.649 122.748 40.6627 122.777 40.6697C122.805 40.6766 122.835 40.6765 122.864 40.6694L134.017 37.8661L122.661 54.932C122.61 55.0105 122.628 55.0192 122.628 55.9211C122.628 55.9488 122.634 55.9762 122.645 56.0014C122.656 56.0266 122.672 56.0492 122.692 56.0676C122.711 56.086 122.735 56.0998 122.76 56.1081C122.786 56.1164 122.812 56.119 122.839 56.1158L134.351 54.7232L128.639 63.1322C128.613 63.1719 128.601 63.2206 128.606 63.2689C128.612 63.3171 128.635 63.3615 128.67 63.3936C129.47 64.1165 129.441 64.1213 129.555 64.1087C129.67 64.0961 129.336 64.7367 136.055 54.4532C136.106 54.3747 136.093 54.3409 136.192 53.2412C136.196 53.2112 136.193 53.1808 136.184 53.1522C136.174 53.1236 136.159 53.0976 136.138 53.0763Z" fill="black"/>
<path fill-rule="evenodd" clip-rule="evenodd" d="M41.4844 70.6101L36.3716 71.9823C36.3716 71.9823 37.0035 76.0345 34.6267 76.8108C32.25 77.5872 24.6094 71.016 24.6094 71.016C24.367 71.1894 24.1081 71.3676 23.8302 71.5513C20.207 73.9471 16.6381 77.3352 15.375 89.1133L15.5562 107.103L25.7411 98.6511L26.5241 99.6198C27.27 98.9219 29.7275 95.4671 29.7275 95.4671L46.6509 74.9001L41.4844 70.6101Z" fill="#81F8F8"/>
<path fill-rule="evenodd" clip-rule="evenodd" d="M36.1151 48.8875C36.7464 49.2904 37.2691 49.8533 37.6342 50.5234C39.9619 56.4517 37.6568 55.7044 40.7297 56.5231C42.5175 56.9996 41.6561 58.3616 40.7297 59.0147C40.7297 59.0147 42.0072 59.8358 42.1144 60.3971C42.1495 60.5499 42.1414 60.7099 42.091 60.858C42.0407 61.006 41.9502 61.1358 41.8305 61.2316C41.8305 61.2316 42.5945 61.4176 42.618 61.9789C42.6414 62.5402 45.915 68.9104 45.915 68.9104C45.915 68.9104 62.7764 74.5852 60.0381 79.7819C59.6275 80.4495 59.0561 80.9938 58.3806 81.3608C57.7052 81.7278 56.9491 81.9047 56.1876 81.8739C51.8312 81.8237 44.1831 79.3164 44.1831 79.3164C44.1831 79.3164 44.6361 94.2848 41.5315 95.9812C37.0015 98.4531 30.4587 94.4496 30.4587 94.4496C32.0503 91.8209 33.3554 89.0161 34.3499 86.087L35.5179 86.5902C35.5179 86.5902 38.0849 80.3887 38.7312 78.3579C39.3775 76.3271 40.0147 75.0083 38.5802 73.9431C37.9591 73.3996 37.2267 73.0111 36.439 72.8072C36.439 72.8072 37.299 76.0547 34.0887 76.8727C30.054 77.901 24.6807 70.8934 24.6807 70.8934C25.4549 70.5052 26.1424 69.9526 26.6987 69.2713C27.255 68.59 27.6678 67.7951 27.9106 66.9377L27.8079 64.5827C27.8079 64.5827 25.7528 63.6054 25.4968 60.2715C24.6233 48.8757 36.1151 48.8875 36.1151 48.8875ZM43.9135 72.8378L44.1876 77.9474L46.6557 74.9031L43.9135 72.8378Z" fill="#FFD997"/>
<path d="M34.5074 55.9816C34.4408 55.9815 34.3755 55.9632 34.318 55.9284C34.2605 55.8936 34.2129 55.8437 34.18 55.7836C34.147 55.7235 34.1299 55.6554 34.1304 55.5863C34.1309 55.5171 34.1489 55.4493 34.1827 55.3897C34.2507 55.2704 35.8701 52.4711 38.0408 53.4822C38.0875 53.5022 38.1299 53.5318 38.1655 53.5691C38.2011 53.6065 38.229 53.651 38.2478 53.6998C38.2665 53.7486 38.2756 53.8009 38.2745 53.8534C38.2735 53.906 38.2623 53.9578 38.2416 54.0058C38.2209 54.0538 38.1911 54.0969 38.1541 54.1327C38.117 54.1685 38.0735 54.1962 38.0259 54.2141C37.9784 54.2321 37.9279 54.2399 37.8774 54.2371C37.8269 54.2344 37.7774 54.2211 37.732 54.1981C36.1774 53.4783 34.8456 55.7681 34.8328 55.7893C34.7993 55.848 34.7517 55.8966 34.6946 55.9304C34.6375 55.9641 34.573 55.9818 34.5074 55.9816Z" fill="black"/>
<path d="M35.2538 57.8664C35.1911 57.8664 35.1294 57.8502 35.0743 57.8191C35.0192 57.7881 34.9724 57.7434 34.9381 57.6888C34.9038 57.6343 34.883 57.5718 34.8778 57.5068C34.8725 57.4419 34.8829 57.3767 34.908 57.3169C35.0339 56.9932 35.2246 56.701 35.4673 56.4597C35.7101 56.2184 35.9994 56.0335 36.3161 55.9173C36.5764 55.8704 36.8439 55.8918 37.0944 55.9794C37.3448 56.0669 37.5703 56.218 37.7506 56.4189C37.8249 56.4887 37.8696 56.5865 37.8747 56.6905C37.8798 56.7946 37.8449 56.8965 37.7777 56.9739C37.7106 57.0512 37.6166 57.0977 37.5165 57.103C37.4164 57.1083 37.3183 57.072 37.244 57.0022C37.15 56.8888 37.0312 56.8007 36.8975 56.7454C36.7638 56.69 36.6193 56.6691 36.4761 56.6842C36.0405 56.7831 35.6894 57.4143 35.6011 57.6262C35.5723 57.6973 35.524 57.758 35.4622 57.8007C35.4005 57.8435 35.328 57.8663 35.2538 57.8664Z" fill="black"/>
<path d="M43.7728 90.7375C43.6958 90.7375 43.6207 90.713 43.5575 90.6673C43.4944 90.6216 43.4461 90.557 43.4192 90.482C43.3924 90.407 43.3882 90.3253 43.4073 90.2478C43.4263 90.1703 43.4677 90.1006 43.5259 90.0483L47.2715 86.6814C47.3087 86.646 47.3524 86.6188 47.3999 86.6012C47.4474 86.5837 47.4979 86.5762 47.5482 86.5793C47.5986 86.5824 47.6479 86.5959 47.6931 86.6191C47.7383 86.6423 47.7786 86.6747 47.8117 86.7143C47.8447 86.754 47.8697 86.8001 47.8852 86.85C47.9008 86.8999 47.9066 86.9525 47.9023 87.0048C47.8979 87.057 47.8836 87.1079 47.86 87.1542C47.8365 87.2006 47.8043 87.2416 47.7652 87.2749C43.6875 90.9377 43.9729 90.7375 43.7728 90.7375Z" fill="black"/>
<path d="M48.6707 86.3392C48.5938 86.3391 48.5187 86.3146 48.4555 86.269C48.3923 86.2233 48.3441 86.1586 48.3172 86.0837C48.2903 86.0087 48.2862 85.927 48.3052 85.8494C48.3243 85.7719 48.3657 85.7023 48.4239 85.6499L53.197 81.3591C53.2731 81.2944 53.3705 81.2631 53.4684 81.2718C53.5664 81.2806 53.6572 81.3288 53.7215 81.4061C53.7859 81.4834 53.8186 81.5838 53.8129 81.6859C53.8071 81.7879 53.7633 81.8836 53.6907 81.9526C48.6186 86.5079 48.8716 86.3392 48.6707 86.3392Z" fill="black"/>
<path fill-rule="evenodd" clip-rule="evenodd" d="M58.5284 74.9676C54.4083 71.6369 47.3129 69.026 46.1388 68.6091C44.2513 64.3309 43.1468 62.22 42.9882 61.9233C42.9668 61.7434 42.9039 61.5715 42.8049 61.4223C42.706 61.2731 42.5738 61.1509 42.4197 61.0661C42.7662 60.2151 42.1404 59.5699 41.3627 58.9874C41.8157 58.5604 42.4069 57.8397 42.1298 57.1552C41.79 56.3137 40.1902 55.922 39.3536 55.6307C39.2064 55.2223 39.1236 54.7918 39.1083 54.3559C39.02 52.9423 38.6273 51.5673 37.9592 50.3328C36.9777 48.5273 32.0007 44.2561 27.0464 45.5561C25.1657 46.0482 24.3979 46.4981 24.3971 47.1206C24.4069 47.2751 24.4565 47.4241 24.5408 47.5518C24.625 47.6796 24.7407 47.7814 24.8758 47.8467C22.7482 48.0688 19.3862 48.6113 18.2386 49.8696C17.091 51.128 16.7142 51.8722 16.9513 52.4272C17.0695 52.6221 17.2369 52.7794 17.4353 52.882C17.6337 52.9846 17.8555 53.0285 18.0762 53.0088C17.4039 53.6309 16.9482 54.4666 16.7799 55.3858C16.6886 56.3922 17.2888 56.9221 18.5844 56.2917C17.7297 57.6553 16.8758 59.5369 17.1816 61.2984C17.2971 61.9657 17.5258 62.8559 18.1699 62.8873C18.3479 62.8753 18.5203 62.8179 18.6719 62.7202C18.8234 62.6224 18.9495 62.4873 19.0389 62.3268C18.9694 64.1637 18.8161 68.482 20.5549 68.354C21.4322 68.2818 21.9267 67.215 22.2038 65.9425C22.4734 67.5989 22.9128 69.2819 23.6217 70.0512C23.7316 70.2122 23.8886 70.3319 24.0693 70.3925C24.25 70.4531 24.4447 70.4512 24.6244 70.3872C25.0411 70.2113 25.3084 69.5582 25.4775 68.7434C25.5461 69.0425 25.6293 69.3377 25.7267 69.6281C22.0158 72.9549 15.7652 73.6551 14.6833 93.025C14.6803 93.0765 14.6872 93.1282 14.7035 93.177C14.7198 93.2258 14.7451 93.2707 14.7781 93.3093C14.8111 93.3479 14.8511 93.3794 14.8957 93.4019C14.9404 93.4245 14.9889 93.4376 15.0385 93.4407C15.0881 93.4437 15.1377 93.4366 15.1847 93.4196C15.2316 93.4027 15.2748 93.3764 15.312 93.3421C15.3491 93.3078 15.3793 93.2662 15.401 93.2198C15.4227 93.1733 15.4353 93.1229 15.4383 93.0713C16.2688 78.2105 20.1381 74.4558 24.0309 71.8842C24.228 71.7539 24.4152 71.6259 24.5949 71.5003C26.6244 73.8051 31.0358 78.0896 33.9826 77.3831C36.2129 76.8509 37.1974 75.3217 37.0743 73.4283C38.2151 74.0563 38.9777 74.6301 39.0494 75.3342C39.1951 76.7535 36.5133 82.2666 35.3574 86.0644C34.5881 85.7669 32.5186 84.8021 29.0796 82.0358C26.3013 79.7726 22.864 78.5617 19.3348 78.603C19.2347 78.6099 19.1413 78.6578 19.0752 78.7363C19.0091 78.8147 18.9756 78.9173 18.9822 79.0214C18.9889 79.1255 19.035 79.2226 19.1104 79.2913C19.1859 79.3601 19.2845 79.3949 19.3847 79.388C22.7265 79.3796 25.9756 80.5304 28.6176 82.6583C30.2698 84.0354 32.0463 85.2431 33.9222 86.2646C33.4594 87.6415 31.1158 94.1271 26.5232 99.0043C26.413 98.8835 26.262 98.7163 26.0936 98.5294C26.079 98.4772 26.0529 98.4293 26.0172 98.3897C25.9815 98.35 25.9373 98.3196 25.8882 98.301C24.0951 96.293 20.071 91.6199 18.0287 87.9029C18.0039 87.8581 17.9709 87.8189 17.9315 87.7874C17.8921 87.756 17.8472 87.7329 17.7992 87.7195C17.7513 87.706 17.7013 87.7026 17.652 87.7093C17.6028 87.716 17.5553 87.7327 17.5123 87.7584C17.4692 87.7842 17.4315 87.8185 17.4012 87.8595C17.371 87.9004 17.3487 87.9471 17.3358 87.997C17.3229 88.0469 17.3196 88.0989 17.326 88.1501C17.3325 88.2013 17.3486 88.2506 17.3733 88.2954C19.3869 91.9605 23.2684 96.512 25.1589 98.6393L14.9513 107.056C14.8901 107.107 14.8456 107.176 14.8239 107.254C14.8022 107.332 14.8044 107.416 14.8302 107.492C14.856 107.569 14.9041 107.636 14.9678 107.683C15.0316 107.73 15.1079 107.755 15.1861 107.756C15.3718 107.756 14.5655 108.376 25.6746 99.2155C26.308 99.9165 26.3178 99.9613 26.5179 99.9613C26.6173 99.9614 26.7128 99.9208 26.7837 99.8482C28.2053 98.3667 29.475 96.7356 30.5722 94.9812C33.6262 96.6297 38.1653 97.9783 41.3499 96.5418C44.2045 95.2536 44.6794 87.3746 44.5443 79.7844C48.1162 81.0103 51.8018 81.8432 55.5408 82.2697C59.5959 82.6308 63.0976 78.6626 58.5284 74.9676ZM33.365 56.9024C33.9607 56.5233 34.3148 54.9313 34.5239 53.3009C34.7602 54.0129 35.1657 54.6738 35.8716 54.5215C37.0962 54.2578 37.0184 51.6916 36.8357 50.0353C37.0139 50.2464 37.1715 50.4754 37.3061 50.719C38.7119 53.2899 38.0875 55.0695 38.7836 56.1645C38.8901 56.331 39.0856 56.3663 39.4873 56.495C40.0233 56.6669 41.2804 57.0704 41.4367 57.4574C41.5348 57.7 41.029 58.3115 40.5111 58.6962C40.4604 58.7337 40.4195 58.7837 40.392 58.8417C40.3644 58.8996 40.351 58.9638 40.353 59.0284C40.355 59.093 40.3724 59.1561 40.4035 59.2121C40.4346 59.2681 40.4786 59.3152 40.5314 59.3493C40.8745 59.568 41.1944 59.8238 41.4858 60.1123C41.0024 60.6045 40.4134 60.9702 39.7674 61.1791C39.7078 61.1598 39.6496 61.1365 39.593 61.1093C39.5029 61.0627 39.3987 61.0553 39.3033 61.0887C39.208 61.122 39.1292 61.1934 39.0845 61.2871C39.0397 61.3807 39.0326 61.4891 39.0647 61.5882C39.0968 61.6874 39.1654 61.7692 39.2555 61.8158C39.6715 62.0093 40.1262 62.0961 40.5812 62.0688C41.0362 62.0415 41.4782 61.9008 41.8701 61.6588C42.0324 61.7255 42.2362 61.8479 42.2423 61.9979C42.1741 62.5361 42.0247 63.0599 41.7998 63.5498C41.7769 63.6038 41.7659 63.6624 41.7677 63.7214C41.7695 63.7804 41.7841 63.8382 41.8104 63.8905C42.0812 64.4299 42.158 65.052 42.0271 65.645C41.9265 65.8884 41.7424 66.0843 41.5107 66.1945C39.8837 63.9109 37.4337 61.3228 36.5481 61.2411C36.1608 61.209 35.929 61.512 35.926 61.9225C34.9565 60.873 33.9026 59.8776 33.3439 59.8776C32.9731 59.8776 32.6598 60.1861 32.7202 60.7796C32.4739 60.563 32.2055 60.3751 31.9199 60.2191C31.9403 58.9372 31.929 57.7024 31.9124 56.8357C32.1158 57.007 32.3666 57.1059 32.6281 57.1179C32.8896 57.1299 33.1479 57.0544 33.365 56.9024ZM33.8142 76.6177C31.0207 77.2928 26.4016 72.3677 25.2216 71.0442C25.5236 70.816 25.8004 70.5947 26.0521 70.3801C26.4764 71.1455 27.0049 71.2766 27.4866 71.0489C28.6108 70.523 28.9966 67.5651 29.1272 65.134C29.4292 65.9496 29.9418 66.8837 30.7512 66.6176C30.8763 66.564 30.989 66.4834 31.0818 66.3811C31.1746 66.2788 31.2454 66.1571 31.2895 66.0241C31.667 66.6309 31.2019 70.2231 35.6768 72.6864C35.4866 73.2309 35.2541 73.7583 34.9814 74.2635C34.955 74.3086 34.9375 74.3587 34.9301 74.411C34.9227 74.4632 34.9255 74.5165 34.9384 74.5676C34.9512 74.6187 34.9739 74.6665 35.0049 74.7083C35.036 74.7501 35.0749 74.7849 35.1192 74.8107C35.1635 74.8365 35.2124 74.8527 35.2629 74.8584C35.3134 74.8641 35.3645 74.8591 35.4131 74.8438C35.4617 74.8285 35.5068 74.8031 35.5458 74.7692C35.5847 74.7353 35.6167 74.6936 35.6398 74.6466C35.8862 74.184 36.1051 73.706 36.2951 73.2155C36.5149 74.846 35.7734 76.1499 33.8142 76.6177ZM41.0448 95.8125C37.3597 97.476 31.9781 94.8313 30.9799 94.3085C32.4437 91.8771 33.6584 89.2929 34.6039 86.5982C34.8191 86.6948 34.9958 86.767 35.1324 86.8196C34.7515 87.8878 34.6681 89.046 34.8916 90.1613C34.9078 90.2106 34.9332 90.2561 34.9664 90.2951C34.9996 90.3341 35.04 90.3658 35.0851 90.3884C35.1303 90.411 35.1793 90.424 35.2293 90.4267C35.2794 90.4295 35.3294 90.4218 35.3766 90.4042C35.4237 90.3866 35.467 90.3594 35.504 90.3242C35.5409 90.289 35.5707 90.2465 35.5917 90.1992C35.6127 90.1519 35.6244 90.1007 35.6262 90.0487C35.628 89.9966 35.6198 89.9447 35.6021 89.896C35.439 88.8301 35.557 87.7381 35.9433 86.7364C35.9569 86.7115 35.9677 86.6852 35.9758 86.6579C36.5941 83.9151 39.9826 77.0958 39.7931 75.2526C39.6692 74.0398 38.5179 73.298 36.7648 72.3866C34.5571 71.2405 32.9769 70.0598 32.3578 67.4332C34.3321 69.9146 34.194 69.8204 34.4348 69.8204C34.5065 69.8204 34.5767 69.7992 34.6372 69.7593C34.6976 69.7193 34.746 69.6623 34.7764 69.5949C34.8069 69.5275 34.8183 69.4524 34.8093 69.3785C34.8003 69.3046 34.7712 69.2349 34.7255 69.1775L32.0566 65.824C31.1106 64.338 29.9237 62.6392 30.3201 62.3244C30.7353 61.9971 31.2019 62.7758 34.9422 67.9984C34.9719 68.0397 35.0092 68.0744 35.0519 68.1007C35.0945 68.1269 35.1417 68.1442 35.1908 68.1515C35.2399 68.1588 35.2899 68.1559 35.3379 68.1431C35.3859 68.1303 35.431 68.1078 35.4707 68.0769C35.5103 68.046 35.5438 68.0072 35.569 67.9629C35.5943 67.9185 35.6109 67.8695 35.6179 67.8184C35.6249 67.7674 35.6222 67.7154 35.6099 67.6655C35.5976 67.6156 35.5759 67.5687 35.5462 67.5274C31.9048 62.443 30.9407 61.3047 31.3937 60.8377C31.7433 60.4773 33.0101 62.045 33.9947 63.2908C34.2725 63.6589 35.1634 65.0178 36.542 67.0682C36.5699 67.1116 36.6059 67.1488 36.6477 67.1776C36.6896 67.2064 36.7366 67.2263 36.786 67.2359C36.8353 67.2456 36.886 67.245 36.9352 67.234C36.9843 67.2231 37.0308 67.202 37.072 67.1722C37.1131 67.1423 37.1482 67.1042 37.175 67.06C37.2019 67.0159 37.22 66.9666 37.2283 66.9151C37.2366 66.8636 37.2349 66.8109 37.2234 66.7601C37.2119 66.7093 37.1907 66.6614 37.1611 66.6192C34.4831 62.6306 34.8418 63.1306 34.6032 62.8253C33.969 61.9775 33.1777 60.9868 33.4397 60.7003C33.7017 60.4137 35.5032 62.5552 36.7753 64.1001L38.348 66.3523C38.3771 66.394 38.4139 66.4294 38.4562 66.4564C38.4985 66.4833 38.5455 66.5014 38.5945 66.5095C38.6435 66.5176 38.6936 66.5155 38.7418 66.5035C38.7901 66.4915 38.8356 66.4697 38.8757 66.4394C38.9159 66.4091 38.9499 66.3709 38.9759 66.3269C39.0018 66.2829 39.0192 66.2341 39.0269 66.1831C39.0347 66.1321 39.0328 66.0801 39.0212 66.0299C39.0096 65.9798 38.9887 65.9324 38.9595 65.8907C38.6062 65.3655 36.9807 63.2107 36.6643 62.1093C38.5589 63.6388 40.195 65.4858 41.5054 67.5745C43.7998 71.2169 43.4125 70.4947 43.5937 74.3718C44.2226 87.5551 43.3627 94.7685 41.0448 95.8125ZM44.3215 73.5311L46.1237 74.9496L44.4627 76.9953C44.4016 75.1615 44.3601 74.4064 44.3215 73.5311ZM59.799 79.3542C59.2887 80.7131 57.4487 81.6511 55.608 81.4879C51.8372 81.0535 48.1218 80.2008 44.5254 78.9445C44.5194 78.6823 44.5088 78.4271 44.5012 78.1665L46.7277 75.419C48.3616 76.7009 50.3615 78.2654 51.8919 79.4508C51.972 79.5132 52.0727 79.5401 52.1718 79.5253C52.2709 79.5106 52.3604 79.4556 52.4204 79.3723C52.4805 79.289 52.5063 79.1843 52.4921 79.0813C52.478 78.9782 52.425 78.8852 52.3449 78.8228C49.4608 76.5887 44.9089 73.0075 44.2913 72.5216C44.2604 70.4853 43.9524 69.8785 41.9509 66.8405C43.0396 66.1945 43.0501 64.8835 42.5548 63.7005C42.6085 63.5663 42.6847 63.3661 42.7579 63.1432C45.5084 68.6382 45.3521 69.1602 45.7425 69.296C45.8217 69.3235 53.7598 72.1071 58.0625 75.5862C59.6231 76.8477 60.2392 78.1854 59.799 79.3542Z" fill="black"/>
<path d="M138.782 73.5255C102.684 41.8225 105.35 44.0542 105.048 44.1155H62.8643C62.7513 44.1335 62.6475 44.1907 62.5697 44.2777C62.4918 44.3648 62.4446 44.4766 62.4355 44.5951V84.3734L10.9755 153.066C10.9426 153.107 10.9179 153.154 10.903 153.204C10.888 153.255 10.883 153.308 10.8883 153.361C10.8936 153.413 10.909 153.464 10.9338 153.51C10.9585 153.557 10.9919 153.597 11.0321 153.63C11.0723 153.662 11.1184 153.686 11.1676 153.699C11.2168 153.713 11.2681 153.716 11.3185 153.708C11.3688 153.7 11.4172 153.682 11.4606 153.655C11.504 153.627 11.5416 153.591 11.5712 153.548L62.8643 85.0053H65.1444L20.4107 153.086C20.3541 153.172 20.3327 153.278 20.3512 153.38C20.3697 153.483 20.4265 153.573 20.5092 153.632C20.5919 153.691 20.6937 153.713 20.7922 153.694C20.8907 153.675 20.9778 153.616 21.0343 153.53L66.0625 84.9912H68.5268L29.6912 153.107C29.6421 153.197 29.6289 153.302 29.6542 153.402C29.6795 153.501 29.7414 153.587 29.8266 153.639C29.9117 153.692 30.0133 153.707 30.1094 153.683C30.2055 153.658 30.2885 153.595 30.3405 153.508L69.4026 84.9857H72.0066L41.4291 152.857C41.4061 152.904 41.3923 152.955 41.3887 153.008C41.3851 153.06 41.3917 153.113 41.4081 153.163C41.4245 153.213 41.4504 153.258 41.4843 153.298C41.5181 153.337 41.5592 153.369 41.6051 153.391C41.651 153.413 41.7007 153.426 41.7514 153.428C41.802 153.43 41.8525 153.421 41.8998 153.402C41.9472 153.383 41.9904 153.355 42.0269 153.318C42.0634 153.282 42.0925 153.238 42.1124 153.19L72.8409 84.9912H75.5589L55.0826 152.906C55.0677 152.955 55.0623 153.007 55.0666 153.059C55.071 153.11 55.085 153.16 55.108 153.206C55.1309 153.251 55.1623 153.292 55.2003 153.325C55.2383 153.358 55.2822 153.383 55.3294 153.398C55.3767 153.414 55.4265 153.42 55.4759 153.415C55.5253 153.41 55.5733 153.396 55.6173 153.372C55.6612 153.348 55.7002 153.316 55.7321 153.276C55.7639 153.237 55.788 153.191 55.8028 153.142L76.3449 85.0092H79.1384L65.7749 152.946C65.765 152.997 65.7647 153.049 65.7741 153.099C65.7836 153.15 65.8025 153.198 65.8298 153.241C65.8851 153.328 65.9712 153.389 66.0693 153.409C66.1674 153.43 66.2695 153.41 66.353 153.352C66.4366 153.295 66.4947 153.205 66.5148 153.103L79.9123 85.0352H82.7964L76.4355 153.27C76.4255 153.374 76.4556 153.478 76.5193 153.559C76.5831 153.64 76.6751 153.691 76.7752 153.701C76.8753 153.712 76.9753 153.68 77.0532 153.614C77.1311 153.548 77.1805 153.452 77.1905 153.348L83.5589 85.0595L86.6438 85.0885L89.4849 153.329C89.487 153.381 89.4989 153.432 89.5198 153.478C89.5408 153.525 89.5704 153.567 89.6069 153.602C89.6435 153.637 89.6863 153.664 89.7329 153.682C89.7795 153.699 89.829 153.707 89.8786 153.705C89.9282 153.703 89.9769 153.69 90.0219 153.669C90.0668 153.647 90.1073 153.616 90.1408 153.578C90.1744 153.54 90.2004 153.496 90.2174 153.447C90.2344 153.399 90.242 153.347 90.2399 153.296L87.4003 85.0956C88.4573 85.105 89.4864 85.1121 90.5079 85.1168L102.414 153.38C102.431 153.483 102.488 153.574 102.57 153.633C102.652 153.693 102.754 153.716 102.853 153.697C102.951 153.679 103.039 153.62 103.096 153.534C103.153 153.449 103.175 153.343 103.157 153.241L91.269 85.1152C92.4634 85.1152 93.654 85.1152 94.8703 85.1105L114.335 153.135C114.364 153.235 114.429 153.319 114.517 153.369C114.605 153.418 114.709 153.429 114.805 153.4C114.901 153.37 114.982 153.302 115.029 153.21C115.077 153.118 115.088 153.011 115.059 152.911L95.6555 85.1058C96.637 85.0972 97.6359 85.0854 98.6755 85.0673L125.582 153.457C125.62 153.553 125.693 153.63 125.786 153.67C125.878 153.71 125.982 153.711 126.075 153.671C126.168 153.632 126.241 153.556 126.28 153.46C126.319 153.364 126.319 153.255 126.281 153.159L99.4818 85.0532C100.237 85.0383 101.006 85.0218 101.806 85.0006C118.808 118.178 136.09 153.483 136.409 153.651C136.451 153.723 136.515 153.778 136.59 153.809C136.666 153.841 136.748 153.846 136.827 153.824C136.905 153.803 136.974 153.756 137.025 153.69C137.076 153.624 137.104 153.543 137.107 153.459C139.052 67.9747 138.996 73.7123 138.782 73.5255ZM64.8122 84.2015V46.231H70.9164V84.2015H64.8122ZM78.7843 84.163H72.6793V46.1941H78.785L78.7843 84.163ZM80.7156 46.1439H86.6635V84.1238H80.7156V46.1439ZM94.5744 84.0853H88.6219V46.1211H94.5744V84.0853ZM101.862 84.0476H96.4702V46.0709H102.945L101.862 84.0476ZM106.188 91.6315L103.243 85.744L104.625 47.5224L107.353 50.2361L106.188 91.6315ZM110.588 100.438L107.787 94.8335L109.005 51.8705L111.816 54.6651L110.588 100.438ZM115.126 109.521C111.813 102.892 112.186 103.696 112.191 103.538L113.525 56.3701L116.413 59.2424L115.126 109.521ZM120.947 121.172L116.659 112.589C116.853 112.4 116.687 116.064 118.164 60.9828L122.364 65.1597L120.947 121.172ZM129.821 72.6353L128.137 135.562L122.524 124.329L123.982 66.7682C130.379 73.1298 129.825 72.545 129.822 72.6353H129.821ZM135.433 150.163L129.846 138.987L131.549 74.2971L136.999 79.7136L135.433 150.163Z" fill="black"/>
<path fill-rule="evenodd" clip-rule="evenodd" d="M63.4863 79.7379L65.5324 90.2287C65.5324 90.2287 67.1133 91.8316 70.6664 91.8293C74.2194 91.8269 76.6822 90.3661 77.2107 88.7333L78.2292 79.4514C78.2292 79.4514 77.3481 81.6314 70.8106 81.8064C64.273 81.9815 63.4863 79.7379 63.4863 79.7379Z" fill="#FFD997"/>
<path fill-rule="evenodd" clip-rule="evenodd" d="M63.5562 80.0959C63.5562 80.0959 63.5712 77.8461 66.7506 76.6835C69.9299 75.5209 77.4051 75.5429 78.2107 79.6178C78.2107 79.6178 77.0971 81.9179 70.4138 81.8315C64.0877 81.7499 63.5562 80.0959 63.5562 80.0959Z" fill="white"/>
<path d="M70.8008 75.5924C64.0473 75.7706 63.1534 79.4931 63.1187 79.6516C65.2863 91.0074 65.1443 90.3842 65.2689 90.5113C68.0027 93.2777 76.344 92.6402 77.5678 88.8589C77.5943 88.7804 77.5241 89.3071 78.6037 79.497C78.7003 78.617 76.7849 75.4409 70.8008 75.5924ZM70.8196 76.3774C76.3017 76.2275 77.586 78.785 77.8162 79.4114C77.6177 80.1226 76.3395 81.242 70.3523 81.4281C65.4071 81.5851 64.1409 80.0936 63.8933 79.7011C64.1002 79.0951 65.3006 76.5195 70.8196 76.3774ZM76.84 88.6462C75.8261 91.5695 68.803 92.4715 65.8767 90.0207L64.1175 80.9979C64.9956 81.6047 66.6249 82.2241 69.6426 82.2241C71.746 82.2241 75.9808 82.0113 77.7045 80.7577L76.84 88.6462Z" fill="black"/>
<path d="M70.5873 81.2883C70.5352 81.0874 69.4782 77.1702 66.2959 75.4189C64.4582 74.4054 62.2996 74.3371 59.8784 75.2093C59.7868 75.2422 59.7109 75.3104 59.6664 75.3999C59.6219 75.4893 59.6122 75.5932 59.6393 75.6899C59.6663 75.7866 59.7281 75.8688 59.8118 75.9194C59.8955 75.9701 59.9948 75.9854 60.089 75.9621C60.3253 75.9056 65.0682 74.8121 68.2732 78.7583C67.422 78.3743 66.4837 78.2483 65.5665 78.3948C62.6847 78.7732 60.0346 82.8936 58.8886 85.5312C58.8667 85.5783 58.8541 85.6295 58.8516 85.6817C58.849 85.7339 58.8565 85.7862 58.8736 85.8353C58.8907 85.8845 58.9171 85.9296 58.9512 85.968C58.9853 86.0064 59.0265 86.0374 59.0722 86.059C59.118 86.0807 59.1675 86.0926 59.2178 86.0941C59.268 86.0956 59.3181 86.0866 59.365 86.0678C59.4119 86.0489 59.4546 86.0204 59.4908 85.9841C59.527 85.9478 59.5558 85.9043 59.5756 85.8562C60.1675 84.4655 61.0586 83.2347 62.1803 82.2587C63.302 81.2827 64.6243 80.5876 66.0452 80.227C66.7484 80.0424 67.488 80.0749 68.1737 80.3204C68.8594 80.5659 69.4615 81.0138 69.9063 81.6094C69.955 81.6894 70.0299 81.7484 70.1172 81.7755C70.2044 81.8026 70.2982 81.796 70.3811 81.7569C70.4641 81.7178 70.5306 81.6488 70.5685 81.5627C70.6064 81.4766 70.6131 81.3791 70.5873 81.2883Z" fill="#81F8F8"/>
<path d="M81.8647 73.5318C73.8005 73.6755 69.9236 81.0505 69.8851 81.1251C69.8413 81.2106 69.8295 81.3099 69.8519 81.404C69.8743 81.498 69.9294 81.5801 70.0065 81.6345C70.0836 81.6888 70.1773 81.7116 70.2696 81.6984C70.3619 81.6853 70.4463 81.6371 70.5065 81.5631C73.4868 77.9533 77.488 75.4149 81.9387 74.3105C82.0321 74.293 82.1158 74.2396 82.173 74.1609C82.2302 74.0821 82.2568 73.9839 82.2475 73.8856C82.2381 73.7874 82.1936 73.6965 82.1226 73.6309C82.0517 73.5653 81.9596 73.53 81.8647 73.5318Z" fill="#81F8F8"/>
<path d="M78.1646 63.5286C70.7702 68.4827 69.9759 80.4736 69.9457 80.9807C69.9392 81.0789 69.9685 81.176 70.0276 81.2529C70.0868 81.3297 70.1716 81.3806 70.2651 81.3955C70.3587 81.4104 70.4542 81.3883 70.5328 81.3334C70.6114 81.2785 70.6673 81.1949 70.6894 81.0992C73.4308 69.4742 78.5791 64.1927 78.6312 64.1432C78.7018 64.0764 78.7454 63.9841 78.7532 63.8852C78.7611 63.7862 78.7325 63.6878 78.6733 63.6099C78.6142 63.532 78.5288 63.4802 78.4344 63.4651C78.34 63.45 78.2436 63.4727 78.1646 63.5286Z" fill="#81F8F8"/>
<path d="M65.9273 64.5051C65.864 64.4325 65.7769 64.3871 65.683 64.3778C65.5892 64.3686 65.4954 64.3963 65.4201 64.4553C65.3449 64.5144 65.2936 64.6006 65.2764 64.6969C65.2592 64.7933 65.2773 64.8929 65.3271 64.9761C68.0527 69.5723 69.8171 79.7082 69.8352 79.8126C69.8509 79.9044 69.8975 79.9874 69.9666 80.0467C70.0358 80.106 70.123 80.1378 70.2126 80.1364C70.3023 80.135 70.3885 80.1004 70.4559 80.039C70.5232 79.9775 70.5674 79.8931 70.5804 79.8008C71.7733 71.293 66.1667 64.7791 65.9273 64.5051Z" fill="#81F8F8"/>
<path d="M70.4748 81.4697C70.3644 81.1559 70.1937 80.8687 69.973 80.6258C69.7523 80.3828 69.4863 80.1892 69.1913 80.0567C68.798 79.932 68.3827 79.9012 67.9764 79.9668C67.5701 80.0323 67.1832 80.1924 66.8447 80.4351C64.3683 81.8999 62.3593 89.1949 62.2755 89.5058C62.2492 89.6006 62.2583 89.7023 62.3009 89.7905C62.3435 89.8787 62.4165 89.947 62.5053 89.9817C62.5942 90.0165 62.6923 90.0151 62.7803 89.978C62.8683 89.9409 62.9395 89.8706 62.9799 89.7813C64.3064 86.8831 66.8304 82.1213 67.944 81.6801C69.2834 81.1494 69.7802 81.7892 69.8066 81.8269C69.8574 81.9087 69.9357 81.9679 70.0262 81.993C70.1167 82.0182 70.213 82.0074 70.2963 81.9629C70.3796 81.9184 70.444 81.8432 70.4769 81.7521C70.5099 81.661 70.5092 81.5603 70.4748 81.4697Z" fill="black"/>
<path d="M67.7054 72.586C65.8828 70.7153 63.2947 69.9028 60.0082 70.1815C59.9081 70.1844 59.8132 70.2286 59.7444 70.3042C59.6755 70.3799 59.6385 70.4809 59.6413 70.585C59.6441 70.6891 59.6865 70.7878 59.7593 70.8593C59.8321 70.9309 59.9292 70.9694 60.0293 70.9665C60.363 70.9751 68.2354 71.3072 69.8051 81.3222C69.8195 81.4178 69.8673 81.5044 69.9393 81.5656C70.0114 81.6267 70.1026 81.6581 70.1955 81.6536C70.2884 81.6491 70.3765 81.6091 70.4428 81.5413C70.5091 81.4735 70.549 81.3826 70.5548 81.2861C70.5691 81.0632 70.8674 75.8351 67.7054 72.586Z" fill="black"/>
<path d="M83.3429 82.4957C82.1062 79.9515 80.4271 78.4561 78.3599 78.0456C74.3176 77.2433 70.2814 80.8912 70.1122 81.0466C70.042 81.1101 69.9968 81.1984 69.9853 81.2945C69.9738 81.3905 69.9969 81.4876 70.0501 81.5671C70.1033 81.6465 70.1828 81.7027 70.2735 81.7249C70.3641 81.7471 70.4594 81.7336 70.5411 81.6872C73.8774 79.8134 76.7766 79.2537 79.1534 80.0175C80.6219 80.478 81.8742 81.4879 82.6687 82.8521C82.7142 82.9447 82.7932 83.0147 82.8884 83.0467C82.9835 83.0788 83.087 83.0702 83.1761 83.023C83.2652 82.9758 83.3327 82.8938 83.3636 82.7949C83.3946 82.696 83.3866 82.5884 83.3414 82.4957H83.3429Z" fill="black"/>
<path d="M81.6092 67.0211C72.9554 70.0088 70.1929 80.0395 70.1657 80.14C70.1398 80.235 70.1493 80.3368 70.1923 80.4249C70.2353 80.513 70.3087 80.5809 70.3979 80.6152C70.487 80.6495 70.5853 80.6476 70.6731 80.6099C70.7609 80.5721 70.8318 80.5013 70.8716 80.4116C74.2623 72.8756 81.8546 67.7731 81.9309 67.7252C82.0091 67.674 82.0665 67.5948 82.0923 67.5026C82.1181 67.4103 82.1105 67.3114 82.0708 67.2246C82.0312 67.1378 81.9623 67.0692 81.8772 67.0316C81.7922 66.9941 81.6968 66.9904 81.6092 67.0211Z" fill="black"/>
<path fill-rule="evenodd" clip-rule="evenodd" d="M48.3321 94.8838L49.6413 97.03C49.6413 97.03 50.3615 93.0328 53.1769 91.9793C55.9923 90.9259 62.4634 89.9941 64.3011 96.0739C64.8065 95.4734 65.1414 94.7387 65.2686 93.9518C65.3958 93.1649 65.3102 92.3567 65.0214 91.6174C64.1071 88.8001 59.1799 86.4914 51.3219 89.611C50.4128 90.1281 49.655 90.8912 49.1287 91.8193C48.6024 92.7475 48.3271 93.8064 48.3321 94.8838Z" fill="white"/>
<path fill-rule="evenodd" clip-rule="evenodd" d="M49.3145 96.9193C49.3145 96.9193 50.6153 92.5155 53.3492 91.7383C57.1461 90.6613 62.8063 90.3339 64.4431 96.0158C64.4431 96.0158 63.2117 98.9658 56.2514 99.5004C51.2571 99.885 49.3145 96.9193 49.3145 96.9193Z" fill="#FFD997"/>
<path d="M64.3843 89.9171C63.1257 88.3793 61.0623 87.6406 58.2605 87.7254C53.957 87.8526 50.937 88.9759 49.2715 91.0664C48.7887 91.6569 48.4254 92.3428 48.2036 93.0828C47.9818 93.8227 47.9058 94.6017 47.9804 95.3729C49.8022 106.967 49.6716 106.243 49.7169 106.333C49.8279 106.544 52.4606 111.447 57.4542 111.447H57.6474C62.823 111.317 64.3345 105.178 64.3564 105.074L65.6263 95.1766C65.7768 94.2583 65.7442 93.3175 65.5305 92.4128C65.3169 91.5081 64.9267 90.6586 64.3843 89.9171ZM57.2435 98.9187C53.236 99.3897 51.0586 98.1275 49.9095 96.895C50.1903 95.6657 51.2352 92.3718 54.4327 91.8812C58.6826 91.2273 62.5942 91.0821 63.9019 96.0566C62.9045 97.2027 60.9808 98.4807 57.2435 98.9187ZM49.8642 91.5531C51.3862 89.6534 54.2182 88.6305 58.2824 88.5104C62.191 88.3927 64.9475 90.031 64.9536 94.0345C64.8672 94.4764 64.7026 94.8977 64.4681 95.2771C62.6825 89.8261 57.4964 90.6181 54.3224 91.1041C51.1024 91.5986 49.806 94.5259 49.3273 96.154C49.062 95.7601 48.8525 95.3287 48.7052 94.8728C48.7029 93.6588 49.1134 92.4829 49.8642 91.5531Z" fill="black"/>
<path fill-rule="evenodd" clip-rule="evenodd" d="M56.4875 96.3243C56.4528 95.7887 56.3033 95.2679 56.05 94.8001C55.7967 94.3323 55.446 93.9294 55.0235 93.6207C53.5535 92.4943 51.5936 91.3505 51.2485 88.8511C51.8247 89.5622 52.5183 90.1606 53.2968 90.6181C55.4632 91.8862 57.1127 93.9294 57.9386 96.3674L56.4875 96.3243Z" fill="#81F8F8"/>
<path fill-rule="evenodd" clip-rule="evenodd" d="M56.755 93.8045C56.7102 92.9992 56.8982 92.1984 57.2949 91.5052C57.6916 90.812 58.2787 90.2581 58.9808 89.9148C58.9808 89.9148 60.6493 91.7022 57.2503 94.6821L56.755 93.8045Z" fill="#81F8F8"/>
<path fill-rule="evenodd" clip-rule="evenodd" d="M54.2709 96.8401C54.2709 96.8401 54.5917 95.3306 52.2022 96.1187C49.8126 96.9069 50.0776 99.9056 50.0776 99.9056C50.0776 99.9056 53.7944 99.6277 54.2709 96.8401Z" fill="#81F8F8"/>
<path fill-rule="evenodd" clip-rule="evenodd" d="M51.2715 88.8299C51.2715 88.8299 53.3659 85.3084 57.2896 86.2197C57.2896 86.2197 56.213 89.658 51.2715 88.8299Z" fill="#81F8F8"/>
<path fill-rule="evenodd" clip-rule="evenodd" d="M51.2259 88.9052C50.2516 88.6427 49.2252 88.6787 48.2701 89.0088C47.315 89.3388 46.4721 89.949 45.8428 90.7656C45.8428 90.7656 49.5106 92.4055 51.2259 88.9052Z" fill="#81F8F8"/>
<path fill-rule="evenodd" clip-rule="evenodd" d="M51.1402 88.8283C51.1402 88.8283 49.5773 84.8382 53.8582 82.5232C53.8597 82.5232 54.4297 85.8131 51.1402 88.8283Z" fill="#81F8F8"/>
<path fill-rule="evenodd" clip-rule="evenodd" d="M46.686 86.0611C46.686 86.0611 48.7721 88.7639 51.0431 88.8024C51.0431 88.8024 50.3478 84.9276 46.686 86.0611Z" fill="#81F8F8"/>
<path d="M57.6708 94.8171C59.0011 93.6035 59.7093 92.4189 59.7644 91.294C59.8086 90.6946 59.6245 90.1012 59.2518 89.6416C59.1952 89.581 59.1212 89.5409 59.041 89.5275C58.9607 89.5141 58.8784 89.5279 58.8063 89.567C58.1842 89.8735 57.6426 90.3319 57.2278 90.9031C56.813 91.4744 56.5374 92.1415 56.4243 92.8475C54.6486 90.5914 53.5289 90.56 52.2197 89.3284C52.3896 89.3386 52.561 89.3504 52.721 89.3504C56.6553 89.3504 57.6384 86.3744 57.6489 86.3415C57.6654 86.2894 57.6711 86.2343 57.6658 86.1797C57.6605 86.1252 57.6443 86.0724 57.6182 86.0248C57.5921 85.9772 57.5567 85.9358 57.5143 85.9032C57.4718 85.8707 57.4233 85.8478 57.3718 85.8359C56.0801 85.5161 54.7214 85.6752 53.5304 86.2857C54.1283 85.1105 54.3724 83.7755 54.231 82.4541C54.2206 82.3936 54.1965 82.3364 54.1609 82.2873C54.1253 82.2381 54.079 82.1984 54.0259 82.1713C53.9728 82.1442 53.9142 82.1304 53.8551 82.1311C53.7959 82.1319 53.7377 82.147 53.6852 82.1755C51.2692 83.4793 50.6093 85.3037 50.5142 86.7363C50.0497 86.1507 49.4184 85.7334 48.7113 85.5445C48.0041 85.3556 47.2576 85.4049 46.5791 85.6852C46.5197 85.7035 46.4656 85.7368 46.4214 85.7821C46.3773 85.8273 46.3446 85.8832 46.3262 85.9447C46.3077 86.0063 46.3042 86.0715 46.3158 86.1349C46.3273 86.1982 46.3538 86.2575 46.3926 86.3077C47.0752 87.1552 47.8855 87.8819 48.792 88.4594C47.5263 88.7512 46.3895 89.4716 45.5599 90.5074C45.5208 90.554 45.4928 90.6096 45.4783 90.6695C45.4637 90.7295 45.463 90.7922 45.4762 90.8525C45.4893 90.9128 45.516 90.969 45.5541 91.0165C45.5921 91.0641 45.6404 91.1016 45.695 91.126C46.3633 91.392 47.0723 91.53 47.7879 91.5334C48.4298 91.5524 49.0666 91.4091 49.6435 91.1159C50.2204 90.8226 50.7203 90.388 51.1001 89.8496C51.6867 91.6229 53.0948 92.6756 54.2643 93.5391C55.0696 93.997 55.6837 94.7483 55.9887 95.6484C55.3715 95.4002 54.686 95.4089 54.0748 95.6728C53.4282 95.4317 52.7173 95.4584 52.0891 95.7473C49.9698 96.4475 49.6021 98.7986 49.7026 99.9447C49.7116 100.047 49.7589 100.142 49.8343 100.208C49.9097 100.275 50.0071 100.308 50.1057 100.3C50.2696 100.288 54.1155 99.9651 54.6418 96.9185C54.6528 96.8566 54.6589 96.7939 54.6599 96.7309C55.0094 96.4421 55.9071 96.6077 56.0665 96.6383C56.6206 96.7458 55.9909 96.7309 57.9283 96.7631C57.9904 96.765 58.052 96.7508 58.1076 96.7219C58.1632 96.6931 58.2111 96.6504 58.2471 96.5977C58.283 96.5449 58.3058 96.4838 58.3136 96.4197C58.3213 96.3555 58.3137 96.2904 58.2914 96.2301C58.1118 95.7467 57.9045 95.2749 57.6708 94.8171ZM53.9011 96.7592C53.5991 98.4312 51.9902 99.188 50.4508 99.4588C50.4825 98.6777 50.7392 97.0127 52.3171 96.4923C52.974 96.2772 54.031 96.066 53.9011 96.7592ZM58.8607 90.4368C59.4428 91.6889 58.2824 93.1843 57.2926 94.1145C57.2367 94.0203 57.1801 93.9308 57.1234 93.8398C57.1282 93.8139 57.1305 93.7876 57.1302 93.7613C57.0934 93.0945 57.236 92.4302 57.5421 91.8429C57.8481 91.2557 58.3056 90.7688 58.863 90.4368H58.8607ZM56.7407 86.5118C56.3118 87.285 55.057 88.8252 51.9887 88.5261C52.1442 88.3597 52.2847 88.1925 52.4198 88.0253C52.978 87.4423 53.659 87.0023 54.4089 86.7401C55.1588 86.4778 55.9571 86.4005 56.7407 86.5142V86.5118ZM53.5229 83.1724C53.4856 84.8698 52.8267 86.4884 51.6807 87.6979C51.5485 87.8463 51.4285 87.9774 51.3303 88.0991C51.1288 87.142 51.234 86.1426 51.6299 85.2534C52.0258 84.3643 52.6906 83.6343 53.5229 83.1748V83.1724ZM50.5217 88.3463C49.3164 87.9766 48.234 87.2649 47.396 86.2912C48.0714 86.1524 48.7722 86.2885 49.3538 86.6714C49.9354 87.0542 50.3535 87.6547 50.5217 88.3487V88.3463ZM46.5285 90.5867C47.0603 90.0327 47.7094 89.6158 48.4239 89.3693C49.1384 89.1228 49.8985 89.0537 50.6433 89.1675C50.2016 89.8399 49.5598 90.3432 48.8166 90.6C48.0733 90.8568 47.2695 90.8529 46.5285 90.5891V90.5867ZM56.8313 95.9396C56.3662 92.9017 53.4224 92.8868 52.0665 90.2256C52.3945 90.502 52.7455 90.7476 53.1152 90.9596C55.0336 92.0799 56.5326 93.8403 57.3696 95.9561L56.8313 95.9396Z" fill="black"/>
<path fill-rule="evenodd" clip-rule="evenodd" d="M31.47 129.784L34.1684 138.078C34.1684 138.078 38.2959 142.701 42.7663 141.661C47.2366 140.622 50.04 137.469 50.9271 133.743L51.4813 127.347L53.8512 124.442L54.4084 118.122C54.4084 118.122 51.2321 110.586 41.4013 110.935C26.9249 111.45 26.5814 121.706 26.7422 122.061L29.0562 128.322C29.8115 128.892 30.6202 129.382 31.47 129.784Z" fill="#81F8F8"/>
<path fill-rule="evenodd" clip-rule="evenodd" d="M29.0893 124.154C29.0893 124.154 27.5506 118.835 33.4683 116.175C39.386 113.514 51.0273 113.382 52.7548 121.842C50.2021 124.965 46.0828 127.057 40.0564 127.839C36.1112 127.893 32.2581 126.598 29.0893 124.154Z" fill="#FFD997"/>
<path d="M54.7546 117.962C54.7213 117.884 51.3518 110.199 41.3911 110.539C33.1616 110.832 29.4553 114.255 27.8011 117.075C26.3839 119.485 26.2571 121.794 26.3968 122.198C28.7554 129.045 28.7108 128.531 28.8294 128.628C29.5628 129.188 30.3467 129.672 31.1699 130.075C34.0011 138.78 33.8124 138.254 33.8954 138.345C34.0509 138.52 37.3956 142.208 41.4145 142.208C41.8969 142.208 42.378 142.153 42.849 142.044C44.8686 141.645 46.737 140.656 48.2348 139.192C49.7326 137.728 50.7976 135.85 51.305 133.778L51.8531 127.446C52.7291 126.609 53.5082 125.669 54.1747 124.644C54.205 124.593 54.2236 124.535 54.2291 124.475C54.8421 117.667 54.8112 118.097 54.7546 117.962ZM50.5583 133.649C50.0754 135.566 49.0786 137.3 47.6841 138.651C46.2895 140.002 44.5546 140.912 42.6814 141.277C38.7448 142.199 34.9879 138.39 34.4964 137.869L32.1046 130.519C34.687 131.642 37.4595 132.215 40.2586 132.206C44.1954 132.271 48.0213 130.848 51.0256 128.202L50.5583 133.649ZM53.4809 124.307C52.0958 126.362 50.283 128.067 48.1772 129.293C46.0714 130.519 43.7269 131.237 41.3178 131.391C37.0945 131.656 32.9024 130.49 29.3699 128.069L27.6334 123.367C29.4576 125.16 31.6519 126.495 34.0486 127.27C36.4453 128.046 38.9808 128.241 41.4613 127.841C49.1109 126.774 52.4254 123.108 53.8025 120.71L53.4809 124.307ZM33.536 116.311C37.3948 114.576 43.8146 113.956 48.1075 116.233C49.1509 116.742 50.0688 117.492 50.7916 118.426C51.5144 119.36 52.0231 120.452 52.2789 121.621C49.7685 124.732 45.3118 126.514 41.3571 127.067C39.2574 127.403 37.1139 127.296 35.055 126.751C32.9961 126.206 31.0641 125.235 29.3745 123.896C29.0883 120.524 29.6448 118.059 33.536 116.311ZM52.8527 120.836C52.5157 119.682 51.9501 118.614 51.1923 117.7C50.4345 116.787 49.5012 116.048 48.4526 115.533C43.9535 113.148 37.2537 113.785 33.2363 115.591C28.5802 117.684 28.3341 121.415 28.4964 123.132C27.9912 122.671 27.5244 122.166 27.1012 121.623C27.2724 119.684 28.0077 117.846 29.2091 116.353C31.6614 113.213 35.7678 111.525 41.4145 111.324C50.399 110.978 53.6236 117.319 54.023 118.188C53.7829 119.134 53.3869 120.03 52.8527 120.836Z" fill="black"/>
<path d="M44.9059 123.09C44.1509 121.791 42.6922 121.09 40.5827 121.007C40.495 121.008 40.4098 121.038 40.3405 121.094C40.2711 121.15 40.2215 121.228 40.1992 121.316C40.1864 121.379 38.9602 127.587 44.1894 129.476C44.2774 129.507 44.3735 129.504 44.4594 129.467C44.5452 129.429 44.6147 129.36 44.6545 129.272C44.7239 129.121 46.3298 125.528 44.9059 123.09Z" fill="black"/>
<path d="M40.7142 122.944C40.677 122.894 40.6289 122.854 40.5738 122.826C40.5186 122.799 40.4581 122.786 40.3971 122.787C40.3548 122.787 36.1631 123.049 36.194 130.013C36.194 130.117 36.2338 130.217 36.3046 130.291C36.3754 130.364 36.4714 130.406 36.5715 130.406C36.9211 130.406 40.7391 129.125 41.5545 126.664C41.9411 125.503 41.658 124.247 40.7142 122.944Z" fill="black"/>
<path d="M33.6346 122.245C33.6303 122.186 33.6132 122.129 33.5847 122.078C33.5562 122.027 33.517 121.983 33.47 121.95C33.0505 121.673 32.5756 121.499 32.0817 121.443C31.5878 121.386 31.088 121.448 30.6206 121.623C29.1544 122.221 28.0778 124.024 27.4217 126.982C27.4095 127.038 27.4089 127.095 27.4201 127.151C27.4314 127.206 27.454 127.259 27.4866 127.304C27.621 127.492 27.8165 127.472 28.1087 127.472C31.4511 127.472 33.8935 125.739 33.6346 122.245Z" fill="black"/>
<path d="M42.1253 119.509C41.6389 118.978 41.0547 118.554 40.4075 118.263C39.7603 117.971 39.0632 117.818 38.3579 117.812C36.4341 117.812 34.4877 118.93 32.5738 121.137C32.5336 121.183 32.5046 121.238 32.4892 121.299C32.4738 121.359 32.4725 121.422 32.4852 121.483C32.498 121.544 32.5245 121.601 32.5626 121.649C32.6008 121.697 32.6494 121.735 32.7044 121.76C33.8594 122.215 35.0843 122.447 36.3194 122.446C37.388 122.465 38.4495 122.262 39.4423 121.851C40.435 121.439 41.3391 120.826 42.1019 120.048C42.1712 119.978 42.2122 119.884 42.2166 119.783C42.2209 119.683 42.1883 119.585 42.1253 119.509Z" fill="black"/>
<path d="M52.4723 118.526C52.4277 118.345 51.9219 116.756 47.9642 116.513C43.9868 116.269 42.0321 119.793 41.9513 119.943C41.9252 119.992 41.9093 120.046 41.9047 120.102C41.9001 120.157 41.907 120.213 41.9249 120.266C41.9427 120.318 41.9712 120.366 42.0083 120.407C42.0454 120.447 42.0903 120.478 42.1401 120.499C43.5075 121.099 44.9733 121.419 46.4572 121.441C47.5659 121.47 48.6679 121.256 49.6919 120.813C50.7159 120.37 51.639 119.709 52.4013 118.871C52.4383 118.823 52.4639 118.767 52.4763 118.707C52.4886 118.647 52.4872 118.585 52.4723 118.526Z" fill="black"/>
<path d="M39.2327 117.938C39.0462 117.727 34.6362 112.769 31.2229 112.49C31.1714 112.486 31.1196 112.492 31.0708 112.51C31.0219 112.527 30.977 112.555 30.9389 112.591C30.9007 112.627 30.8701 112.671 30.849 112.72C30.8278 112.769 30.8166 112.822 30.8159 112.876C30.751 118.225 33.9371 119.618 39.0265 118.589C39.0925 118.575 39.1538 118.544 39.2041 118.498C39.2545 118.452 39.2921 118.392 39.3131 118.326C39.3341 118.26 39.3378 118.189 39.3236 118.12C39.3095 118.052 39.2781 117.989 39.2327 117.938Z" fill="black"/>
<path d="M47.7441 113.06C41.051 110.793 38.6229 118.005 38.6003 118.077C38.5731 118.175 38.5823 118.281 38.626 118.373C38.6697 118.465 38.7448 118.537 38.8366 118.574C39.3588 118.834 39.9211 118.997 40.4976 119.054C44.3435 118.74 46.456 116.493 46.7331 115.35C46.948 114.714 47.3375 114.157 47.8535 113.749C47.9094 113.706 47.9527 113.648 47.9788 113.581C48.0049 113.514 48.0127 113.441 48.0014 113.37C47.99 113.298 47.96 113.232 47.9146 113.177C47.8692 113.122 47.8102 113.082 47.7441 113.06Z" fill="black"/>
<path d="M39.2081 106.626C39.134 106.558 39.0371 106.522 38.9383 106.528C38.8394 106.533 38.7465 106.578 38.6796 106.654C33.7223 112.278 37.2013 116.938 37.2383 116.986C37.2564 117.01 38.6728 118.483 38.6902 118.504C38.7326 118.548 38.7846 118.581 38.8418 118.601C38.8991 118.62 38.96 118.625 39.0193 118.614C39.2745 118.57 39.2307 118.54 40.1179 116.652C42.8094 110.058 39.3568 106.762 39.2081 106.626Z" fill="black"/>
<path fill-rule="evenodd" clip-rule="evenodd" d="M103.615 86.6233C100.544 88.8919 97.5319 89.2224 94.5836 87.4475C94.5836 87.4475 90.3299 79.1265 92.3805 69.7215L95.9834 80.9917C95.9834 80.9917 95.1181 75.9677 98.5164 65.6842C98.9101 69.0842 99.1003 72.5063 99.0857 75.9308C99.0857 75.9308 100.769 69.347 102.397 67.2008C102.397 67.2008 102.699 77.9624 102.137 81.6778C102.137 81.6778 103.936 75.609 105.222 73.8513C105.22 73.8506 105.246 82.546 103.615 86.6233Z" fill="#FFD997"/>
<path d="M104.724 84.09C105.307 80.7106 105.599 77.2838 105.597 73.8505C105.597 73.7681 105.572 73.6878 105.526 73.621C105.48 73.5541 105.414 73.5042 105.339 73.4781C105.264 73.4521 105.183 73.4513 105.107 73.4758C105.032 73.5004 104.965 73.5491 104.918 73.615C104.017 75.1468 103.296 76.7846 102.767 78.4937C102.957 73.9329 102.781 67.5344 102.772 67.1897C102.771 67.1087 102.745 67.0302 102.699 66.9648C102.653 66.8995 102.589 66.8506 102.515 66.8248C102.441 66.799 102.361 66.7975 102.287 66.8207C102.212 66.8439 102.146 66.8906 102.098 66.9542C101.103 68.266 100.108 71.1045 99.4553 73.2217C99.342 69.6633 98.8905 65.6857 98.8845 65.6339C98.8752 65.5536 98.8422 65.4782 98.7902 65.4181C98.7381 65.358 98.6694 65.3161 98.5935 65.2981C98.5176 65.2802 98.4383 65.287 98.3663 65.3178C98.2943 65.3485 98.2332 65.4016 98.1914 65.4698C96.4149 68.3672 95.9921 75.426 95.8124 79.5441C94.4496 74.4267 92.7479 69.6358 92.7282 69.5809C92.6999 69.5017 92.6477 69.4342 92.5795 69.3883C92.5113 69.3424 92.4307 69.3206 92.3496 69.3261C92.2686 69.3317 92.1914 69.3643 92.1296 69.4191C92.0677 69.4739 92.0246 69.548 92.0064 69.6303C91.088 74.2755 91.3387 79.0885 92.7343 83.6033C91.9619 84.4974 92.0027 84.6332 92.0027 84.8593C92.4851 93.5846 92.4406 93.0665 92.4964 93.1803C93.0823 94.1804 93.9082 95.0049 94.8932 95.5727C95.8781 96.1406 96.9882 96.4323 98.1144 96.4192C100.096 96.4192 103.717 95.5023 104.758 93.8217C104.844 93.6866 105.029 94.3421 105.021 84.9857C104.985 84.6683 104.884 84.3627 104.724 84.09ZM102.502 81.779C103.151 79.5903 103.924 77.4437 104.819 75.3506C104.743 77.9866 104.45 83.4518 103.286 86.4144C102.833 86.8679 102.304 87.2306 101.725 87.4844C101.85 85.5654 102.109 83.6585 102.502 81.779ZM102.049 68.5125C102.108 71.4845 102.2 78.7379 101.763 81.6133C101.334 83.6416 101.063 85.7027 100.955 87.7764C100.294 87.9653 99.6139 88.0707 98.929 88.0904C99.7271 77.2079 98.6618 75.185 102.049 68.5125ZM96.5296 80.5685C96.6693 77.193 96.9434 70.5762 98.279 67.0602C98.9887 74.3364 98.7207 80.8071 98.1725 88.0927C97.8034 88.0837 97.4351 88.0497 97.0702 87.9907C96.3575 81.1722 96.4406 82.721 96.5304 80.5693L96.5296 80.5685ZM92.4889 71.2027C93.2295 73.4007 94.701 77.9356 95.7052 82.2044L96.2918 87.8086C95.7944 87.6623 95.3175 87.4491 94.8732 87.1743C94.476 86.3492 91.2379 79.2984 92.4896 71.2034L92.4889 71.2027Z" fill="black"/>
<path d="M103.304 97.1054C101.638 97.1378 100.001 97.5668 98.5193 98.3593C97.0374 99.1518 95.7498 100.287 94.7554 101.677L96.9924 111.778C99.3234 113.152 101.975 113.827 104.653 113.729C108.724 113.415 109.605 110.551 109.605 110.551L110.757 100.603C109.854 99.467 108.712 98.5614 107.421 97.9553C106.129 97.3491 104.721 97.0584 103.304 97.1054Z" fill="#FFD997"/>
<path fill-rule="evenodd" clip-rule="evenodd" d="M110.887 99.4808C110.887 99.4808 111.021 93.0831 101.396 94.5C94.1278 95.57 94.3671 99.9252 94.3671 99.9252L95.2603 101.077C95.2603 101.077 96.9145 97.8716 102.012 97.2122C108.495 96.3738 110.393 100.431 110.393 100.431L110.887 99.4808Z" fill="white"/>
<path d="M92.9669 109.725C96.8408 107.87 95.7755 105.712 98.2277 102.542C99.3716 101.065 100.392 100.311 101.264 100.3C101.436 100.293 101.607 100.324 101.767 100.389C101.926 100.454 102.071 100.553 102.193 100.679C102.259 100.757 102.292 100.859 102.286 100.963C102.279 101.067 102.233 101.164 102.158 101.233C102.082 101.301 101.984 101.336 101.884 101.329C101.784 101.322 101.69 101.274 101.624 101.196C101.515 101.109 101.377 101.069 101.239 101.085C100.882 101.105 100.093 101.384 98.8166 103.034C96.4837 106.05 97.4576 108.438 93.2817 110.438C93.1916 110.476 93.0906 110.477 92.9999 110.44C92.9092 110.403 92.8359 110.331 92.7952 110.239C92.7545 110.146 92.7497 110.042 92.7817 109.946C92.8137 109.85 92.8801 109.771 92.9669 109.725Z" fill="black"/>
<path d="M109.538 95.6735C107.82 94.0893 105.062 93.5642 101.343 94.1105C93.8171 95.2174 93.9794 99.7547 93.9907 99.947C93.9907 100.025 93.9311 99.6856 96.6242 111.865C96.6357 111.916 96.6569 111.964 96.6864 112.007C96.716 112.049 96.7533 112.085 96.7963 112.113C99.187 113.549 101.922 114.245 104.681 114.119C108.957 113.788 109.926 110.796 109.98 110.596L111.264 99.4886C111.242 98.7638 111.078 98.0513 110.781 97.3951C110.484 96.7389 110.061 96.153 109.538 95.6735ZM101.449 94.8885C104.928 94.3743 107.48 94.8343 109.025 96.252C109.901 97.0551 110.435 98.186 110.511 99.3975C110.48 99.4713 110.414 99.6157 110.317 99.8026C109.713 98.6965 107.8 96.3588 102.6 96.7552C98.1161 97.0951 95.956 99.3206 95.1859 100.354C94.9715 100.066 94.8235 99.8371 94.7525 99.7209C94.8129 98.9383 95.4336 95.7739 101.449 94.8885ZM109.843 100.58C109.067 101.677 108.061 102.576 106.902 103.21C105.742 103.844 104.46 104.197 103.15 104.241C101.748 104.338 100.342 104.093 99.0465 103.526C97.7507 102.959 96.6002 102.085 95.6865 100.974C96.2641 100.164 98.2693 97.8707 102.655 97.5386C108.583 97.081 109.769 100.352 109.843 100.58ZM109.246 110.429C109.212 110.536 108.372 113.046 104.625 113.334C102.078 113.426 99.5546 112.8 97.3233 111.519L95.0938 101.452C96.037 102.599 97.2113 103.516 98.5335 104.139C99.8556 104.761 101.293 105.074 102.745 105.054C104.196 105.035 105.625 104.684 106.931 104.026C108.238 103.368 109.389 102.42 110.303 101.248L109.246 110.429Z" fill="black"/>
<path fill-rule="evenodd" clip-rule="evenodd" d="M93.125 110.084C93.125 110.084 91.8528 107.818 88.6758 109.534C88.6758 109.532 88.9204 112.736 93.125 110.084Z" fill="#81F8F8"/>
<path fill-rule="evenodd" clip-rule="evenodd" d="M94.7051 100.018C94.7051 100.018 98.203 99.8709 98.1509 103.509C98.1509 103.509 95.6315 105.105 94.7051 100.018Z" fill="#81F8F8"/>
<path fill-rule="evenodd" clip-rule="evenodd" d="M110.279 96.9012C111.163 96.1822 114.796 96.5221 115.149 102.774C115.149 102.774 110.183 101.142 109.527 99.6118C108.872 98.0819 109.396 97.6203 110.279 96.9012Z" fill="#81F8F8"/>
<path d="M89.374 111.295C89.0751 111.116 88.8218 110.864 88.6349 110.563C88.4481 110.261 88.3331 109.917 88.2996 109.56C88.2935 109.483 88.3094 109.406 88.3453 109.339C88.3812 109.271 88.4354 109.216 88.5012 109.18C91.9583 107.314 93.4359 109.857 93.4502 109.883C93.5003 109.972 93.5147 110.078 93.4904 110.177C93.4661 110.277 93.405 110.363 93.3203 110.417C92.1901 111.133 90.554 111.929 89.374 111.295ZM89.1014 109.747C89.5348 111.299 91.2041 110.755 92.5563 109.971C92.1131 109.515 91.0395 108.811 89.1014 109.75V109.747Z" fill="black"/>
<path d="M90.8569 104.27C94.1034 103.878 90.5398 97.8543 95.4956 96.1964C96.0984 95.9537 96.7451 95.852 97.39 95.8984C98.0348 95.9448 98.6619 96.1382 99.2268 96.4648C101.224 97.7028 101.746 100.503 101.767 100.625C101.786 100.728 101.764 100.833 101.708 100.919C101.651 101.005 101.564 101.064 101.466 101.083C101.367 101.103 101.266 101.08 101.183 101.021C101.1 100.963 101.044 100.872 101.025 100.77C101.021 100.744 100.541 98.1942 98.8357 97.1423C98.3626 96.8754 97.8389 96.7196 97.3016 96.686C96.7643 96.6523 96.2264 96.7416 95.7259 96.9476C93.4609 97.7051 93.3507 99.5617 93.245 101.357C93.1498 102.971 93.0411 104.8 90.9422 105.054C90.8422 105.066 90.7418 105.036 90.663 104.971C90.5843 104.906 90.5337 104.811 90.5224 104.707C90.5111 104.603 90.54 104.498 90.6027 104.416C90.6654 104.334 90.7569 104.282 90.8569 104.27Z" fill="black"/>
<path fill-rule="evenodd" clip-rule="evenodd" d="M90.8996 104.66C90.8996 104.66 90.5342 102.135 87.3345 102.927C87.3345 102.927 87.7422 105.345 90.8996 104.66Z" fill="#81F8F8"/>
<path fill-rule="evenodd" clip-rule="evenodd" d="M92.2928 103.779C92.2928 103.779 90.2769 105.238 92.3773 107.869C92.3773 107.869 94.2815 106.419 92.2928 103.779Z" fill="#81F8F8"/>
<path fill-rule="evenodd" clip-rule="evenodd" d="M94.4431 109.42C94.4431 109.42 92.1985 110.457 93.784 113.454C93.784 113.454 95.9169 112.403 94.4431 109.42Z" fill="#81F8F8"/>
<path fill-rule="evenodd" clip-rule="evenodd" d="M99.5047 109.968C99.5047 109.968 99.2027 107.434 95.9834 108.141C95.9834 108.141 96.3314 110.569 99.5047 109.968Z" fill="#81F8F8"/>
<path d="M88.0459 104.655C87.4965 104.263 87.1097 103.671 86.9632 102.995C86.9466 102.897 86.9667 102.795 87.0194 102.712C87.0722 102.628 87.1536 102.569 87.2471 102.545C87.7318 102.382 88.244 102.327 88.7505 102.384C89.257 102.44 89.7465 102.606 90.1871 102.872C90.752 103.278 91.1417 103.898 91.2728 104.599C91.2872 104.698 91.2647 104.799 91.2098 104.881C91.1549 104.964 91.0718 105.021 90.9776 105.042C90.4889 105.185 89.9776 105.224 89.474 105.158C88.9704 105.091 88.4847 104.92 88.0459 104.655ZM87.8323 103.224C88.3011 104.248 89.3166 104.497 90.4121 104.349C89.9644 103.277 88.9429 103.039 87.8323 103.224Z" fill="black"/>
<path d="M92.0869 108.12C91.7315 107.74 91.4569 107.287 91.2812 106.79C91.1054 106.293 91.0324 105.763 91.0669 105.235C91.1683 104.528 91.5307 103.89 92.0771 103.456C92.1561 103.399 92.2531 103.375 92.3484 103.389C92.4437 103.404 92.5301 103.456 92.5898 103.535C92.9317 103.925 93.1934 104.384 93.3589 104.884C93.5244 105.383 93.5902 105.912 93.5524 106.439C93.458 107.124 93.1182 107.747 92.6011 108.183C92.5237 108.243 92.4274 108.269 92.3319 108.258C92.2363 108.246 92.1487 108.197 92.0869 108.12ZM92.2379 104.371C91.5154 105.26 91.7532 106.316 92.4093 107.275C93.0911 106.379 92.8517 105.319 92.2417 104.371H92.2379Z" fill="black"/>
<path d="M93.7846 113.846C93.7169 113.846 93.6504 113.828 93.5921 113.792C93.5338 113.756 93.4858 113.705 93.4531 113.643C93.1728 113.201 92.9853 112.702 92.9028 112.179C92.8203 111.657 92.8447 111.122 92.9745 110.61C93.2022 109.935 93.6737 109.38 94.2889 109.061C94.3771 109.02 94.477 109.016 94.568 109.05C94.6589 109.083 94.7342 109.151 94.7782 109.241C95.0434 109.691 95.2174 110.194 95.2894 110.717C95.3615 111.24 95.3301 111.773 95.1972 112.283C95.0923 112.638 94.9104 112.964 94.6656 113.235C94.4207 113.506 94.1193 113.715 93.7846 113.846ZM94.2844 109.992C93.4086 110.727 93.4607 111.816 93.9265 112.876C94.7532 112.135 94.7125 111.042 94.2844 109.992Z" fill="black"/>
<path d="M96.6506 109.887C96.1113 109.48 95.7395 108.877 95.6095 108.198C95.5955 108.099 95.6182 107.999 95.6731 107.917C95.7279 107.835 95.8108 107.778 95.9047 107.757C96.3933 107.607 96.907 107.565 97.4122 107.635C97.9173 107.705 98.4026 107.885 98.8364 108.163C99.3909 108.585 99.765 109.216 99.879 109.921C99.891 110.02 99.8659 110.12 99.8089 110.201C99.7519 110.282 99.6673 110.337 99.5725 110.355C99.0801 110.485 98.5678 110.51 98.0658 110.429C97.5639 110.349 97.0827 110.164 96.6506 109.887ZM96.4725 108.451C96.9194 109.493 97.9319 109.764 99.0244 109.645C98.6046 108.566 97.5944 108.292 96.4725 108.451Z" fill="black"/>
<path d="M97.259 104.139C95.4546 104.139 94.6686 101.934 94.3341 100.09C94.3241 100.035 94.3257 99.9776 94.3387 99.9229C94.3518 99.8683 94.376 99.8171 94.4097 99.773C94.4435 99.729 94.4859 99.6929 94.5343 99.6674C94.5826 99.6419 94.6356 99.6275 94.6897 99.6252C96.9683 99.6488 98.5636 101.009 98.5282 103.515C98.527 103.581 98.5098 103.646 98.478 103.704C98.4461 103.761 98.4008 103.809 98.3462 103.844C98.0137 104.036 97.6396 104.138 97.259 104.139ZM95.1752 100.439C95.5255 102.009 96.3077 103.814 97.7709 103.259C97.7794 102.897 97.7191 102.536 97.5933 102.198C97.4675 101.86 97.2787 101.551 97.0378 101.289C96.797 101.027 96.5087 100.817 96.1896 100.671C95.8705 100.525 95.5268 100.446 95.1782 100.439H95.1752Z" fill="black"/>
<path d="M115.15 103.166C114.839 103.166 109.88 101.398 109.186 99.7712C108.398 97.9351 109.201 97.2835 110.05 96.592C110.425 96.3623 110.85 96.2373 111.285 96.2291C111.72 96.2208 112.15 96.3296 112.532 96.5449C113.547 97.0214 115.287 98.4618 115.529 102.751C115.532 102.805 115.525 102.858 115.507 102.909C115.489 102.959 115.462 103.005 115.426 103.044C115.391 103.083 115.348 103.114 115.301 103.135C115.253 103.156 115.202 103.167 115.15 103.166ZM110.512 97.2098C109.671 97.8904 109.326 98.1761 109.874 99.4517C110.262 100.358 112.864 101.548 114.73 102.216C114.403 98.7931 113.034 97.6431 112.219 97.26C111.959 97.1108 111.668 97.0284 111.371 97.0197C111.075 97.0109 110.78 97.0761 110.512 97.2098Z" fill="black"/>
<path d="M98.7088 110.382C100.592 108.932 100.315 108.258 101.026 104.583C101.155 103.513 101.681 102.539 102.492 101.868C103.303 101.197 104.334 100.882 105.365 100.991C105.464 101.005 105.554 101.059 105.615 101.141C105.676 101.224 105.703 101.328 105.69 101.432C105.677 101.535 105.625 101.629 105.546 101.692C105.466 101.755 105.366 101.783 105.267 101.77C105.15 101.753 102.406 101.43 101.767 104.737C101.052 108.436 101.277 109.381 99.1588 111.012C99.0783 111.069 98.9796 111.092 98.8834 111.075C98.7872 111.058 98.701 111.003 98.6429 110.922C98.5847 110.84 98.5591 110.739 98.5714 110.638C98.5837 110.538 98.6329 110.446 98.7088 110.382Z" fill="black"/>
<path d="M102.125 100.868C102.068 100.868 102.011 100.854 101.96 100.828C101.908 100.802 101.863 100.764 101.828 100.717C101.792 100.67 101.768 100.616 101.756 100.557C101.744 100.499 101.745 100.439 101.759 100.381C102.248 98.3159 104.103 94.646 107.642 95.5307C110.609 96.2772 111.223 98.1761 111.247 98.2562C111.278 98.3554 111.269 98.4632 111.223 98.5558C111.178 98.6484 111.098 98.7182 111.003 98.75C110.907 98.7817 110.804 98.7728 110.715 98.7251C110.626 98.6774 110.558 98.5948 110.528 98.4956C110.508 98.4352 109.991 96.9256 107.466 96.2937C103.762 95.3588 102.542 100.356 102.492 100.57C102.471 100.655 102.424 100.731 102.358 100.785C102.291 100.839 102.209 100.868 102.125 100.868Z" fill="black"/>
<path fill-rule="evenodd" clip-rule="evenodd" d="M119.003 120.144C120.396 109.283 111.576 107.461 102.945 109.062C94.314 110.664 92.687 119.45 92.687 119.45C93.8634 122.051 95.8021 124.198 98.2248 125.582C100.648 126.966 103.43 127.516 106.172 127.154C116.189 126.154 119.003 120.144 119.003 120.144Z" fill="white"/>
<path d="M117.268 111.365C113.697 107.48 107.01 108.002 104.298 108.406C96.9048 109.51 92.1792 115.77 92.3174 119.523C95.8893 138.991 95.6303 137.835 95.7949 137.971C98.7688 140.607 102.533 142.084 106.44 142.148C109.389 142.151 112.278 141.284 114.771 139.649C114.834 139.602 114.881 139.536 114.907 139.46C114.927 139.401 116.939 133.401 119.183 121.121C119.815 117.654 119.628 113.93 117.268 111.365ZM104.406 109.183C107 108.796 113.391 108.285 116.722 111.907C118.459 113.796 119.063 116.577 118.559 120.16C117.996 121.14 114.841 125.895 106.137 126.763C96.978 127.67 93.5035 120.381 93.0799 119.402C93.2611 118.42 94.9977 110.589 104.406 109.183Z" fill="black"/>
<path fill-rule="evenodd" clip-rule="evenodd" d="M99.4539 121.152C96.3493 126.697 89.4365 129.061 89.4365 129.061C89.4365 129.061 90.11 119.185 93.4237 116.825C94.2545 116.226 95.2681 115.964 96.2723 116.089C95.2538 114.412 93.5113 112.557 91.586 112.502C91.586 112.502 97.3021 110.083 101.159 112.063C101.002 110.455 101.154 108.832 101.605 107.286C102.057 105.74 102.799 104.303 103.788 103.057C103.788 103.057 105.827 105.797 106.376 111.216C107.536 108.855 109.314 106.882 111.505 105.525C111.505 105.525 113.282 109.874 111.646 114.019L111.57 114.05L111.778 114.207C112.501 114.021 113.249 113.968 113.99 114.05C118.369 114.438 122.931 120.251 122.931 120.251C122.931 120.251 117.593 122.23 113.72 120.251C115.866 124.171 114.941 129.94 114.941 129.94C114.941 129.94 108.599 125.754 106.728 122.561L106.266 121.601C106.718 122.722 106.837 123.958 106.609 125.151C105.867 128.707 97.5165 132.757 97.5165 132.757C97.5165 132.757 97.2712 125.755 99.4539 121.152Z" fill="#81F8F8"/>
<path d="M123.222 120.004C123.032 119.761 118.51 114.058 114.021 113.66C113.395 113.599 112.765 113.623 112.145 113.732C112.961 110.992 112.858 108.044 111.852 105.372C111.832 105.322 111.801 105.277 111.762 105.24C111.724 105.203 111.678 105.174 111.628 105.156C111.578 105.139 111.526 105.132 111.473 105.137C111.421 105.141 111.37 105.157 111.324 105.184C109.387 106.36 107.766 108.024 106.608 110.021C105.911 105.32 104.17 102.925 104.09 102.817C104.055 102.77 104.01 102.732 103.959 102.705C103.907 102.679 103.851 102.665 103.794 102.665C103.735 102.658 103.677 102.668 103.624 102.694C103.571 102.72 103.527 102.762 103.496 102.813C101.586 105.243 100.6 108.317 100.725 111.453C96.8188 109.918 91.6871 112.038 91.4478 112.139C91.3674 112.173 91.3008 112.235 91.259 112.314C91.2173 112.393 91.203 112.484 91.2186 112.573C91.2342 112.662 91.2787 112.742 91.3447 112.801C91.4106 112.859 91.4939 112.893 91.5806 112.895C93.3858 112.942 94.9026 114.762 95.5678 115.703C94.7262 115.731 93.9097 116.008 93.2145 116.502C89.789 118.941 89.0914 128.622 89.062 129.033C89.0576 129.097 89.0686 129.161 89.0938 129.22C89.119 129.279 89.1578 129.331 89.2066 129.37C89.2555 129.41 89.3129 129.436 89.374 129.447C89.435 129.458 89.4977 129.453 89.5565 129.433C92.8108 128.241 95.7511 126.272 98.1416 123.685C97.4083 126.651 97.0702 129.709 97.1367 132.771C97.1388 132.836 97.1564 132.899 97.1878 132.955C97.2192 133.011 97.2635 133.058 97.3166 133.092C97.3698 133.126 97.4302 133.146 97.4925 133.149C97.5548 133.153 97.617 133.141 97.6735 133.113C98.0216 132.945 106.205 128.937 106.975 125.234C107.075 124.748 107.116 124.251 107.095 123.754C109.476 126.779 114.501 130.117 114.737 130.269C114.79 130.304 114.85 130.324 114.912 130.329C114.974 130.333 115.036 130.322 115.093 130.296C115.15 130.269 115.199 130.229 115.237 130.177C115.275 130.126 115.301 130.066 115.311 130.002C115.356 129.729 116.1 124.863 114.502 120.999C115.581 121.36 116.709 121.538 117.843 121.526C119.616 121.506 121.375 121.199 123.058 120.618C123.114 120.597 123.165 120.562 123.206 120.516C123.246 120.47 123.276 120.415 123.292 120.355C123.308 120.295 123.31 120.232 123.298 120.171C123.285 120.11 123.26 120.052 123.222 120.004ZM111.307 106.103C111.685 107.27 112.565 110.656 111.296 113.87C111.286 113.9 111.281 113.931 111.279 113.962C110.716 114.163 110.206 114.499 109.792 114.944C109.379 115.388 109.072 115.928 108.898 116.52C108.094 116.555 107.332 116.901 106.761 117.49C107.057 116.131 107.864 113.119 109.452 111.57C109.492 111.536 109.524 111.493 109.547 111.446C109.571 111.398 109.584 111.346 109.588 111.292C109.591 111.239 109.583 111.185 109.566 111.135C109.548 111.085 109.521 111.039 109.486 111C109.451 110.961 109.408 110.929 109.361 110.908C109.314 110.887 109.263 110.876 109.212 110.876C109.16 110.875 109.109 110.886 109.062 110.907C109.015 110.929 108.972 110.959 108.937 110.998C106.672 113.208 105.909 117.863 105.878 118.063C105.868 118.131 105.876 118.201 105.9 118.265C105.924 118.329 105.965 118.385 106.017 118.428C105.826 118.733 105.66 119.055 105.52 119.389C105.311 119.087 105.116 118.84 104.962 118.653C104.939 118.08 104.876 117.51 104.774 116.946C104.833 116.602 106.135 109.436 111.307 106.103ZM103.766 103.734C105.006 106.005 105.762 108.527 105.983 111.128C105.542 111.991 105.159 112.886 104.839 113.805C104.742 112.11 104.493 110.428 104.096 108.781C104.083 108.731 104.061 108.684 104.031 108.643C104.001 108.602 103.963 108.568 103.92 108.542C103.877 108.516 103.83 108.499 103.781 108.492C103.732 108.485 103.682 108.488 103.634 108.502C103.586 108.515 103.541 108.538 103.501 108.569C103.462 108.6 103.429 108.639 103.404 108.684C103.379 108.728 103.363 108.778 103.356 108.829C103.35 108.88 103.353 108.932 103.365 108.982C103.813 110.842 104.059 112.748 104.099 114.665C103.565 113.445 102.653 112.447 101.51 111.828C101.292 108.935 102.094 106.058 103.766 103.734ZM92.9955 112.423C94.9849 111.812 98.8898 110.978 101.51 112.717C103.037 113.732 103.92 115.514 104.153 118.001C103.745 117.822 103.306 117.733 102.863 117.741C102.473 116.795 101.9 115.943 101.179 115.237C100.458 114.532 99.6054 113.988 98.6739 113.64C98.6261 113.626 98.5762 113.622 98.5269 113.629C98.4777 113.635 98.4302 113.651 98.387 113.677C98.3439 113.702 98.306 113.736 98.2754 113.777C98.2449 113.817 98.2224 113.864 98.2092 113.913C98.1959 113.963 98.1922 114.015 98.1983 114.066C98.2044 114.117 98.22 114.167 98.2445 114.212C98.2689 114.257 98.3016 114.296 98.3407 114.328C98.3798 114.359 98.4245 114.383 98.4723 114.397C100.062 115.021 101.356 116.264 102.082 117.862C101.666 117.99 101.277 118.198 100.935 118.476C100.935 118.46 100.944 118.444 100.949 118.428C100.966 118.361 100.965 118.29 100.947 118.223C100.929 118.156 100.894 118.095 100.846 118.046C99.6629 116.836 98.1495 116.034 96.5123 115.751C95.6645 114.32 94.4455 113.167 92.9955 112.423ZM89.866 128.476C90.0767 126.309 90.9736 119.046 93.6365 117.149C95.373 115.917 97.4191 116.49 99.1858 117.698C95.6327 118.514 93.2213 122.173 93.1103 122.338C93.0543 122.425 93.0336 122.531 93.0528 122.633C93.072 122.735 93.1295 122.825 93.2126 122.884C93.2957 122.942 93.3976 122.963 93.4959 122.943C93.5943 122.923 93.681 122.864 93.7369 122.777C93.7633 122.736 96.4111 118.72 100.037 118.351C100.077 118.385 100.128 118.429 100.16 118.456C98.8679 123.128 94.2722 126.666 89.866 128.476ZM106.236 125.067C105.645 127.893 99.7075 131.181 97.8826 132.132C97.8826 130.342 98.048 125.015 99.7882 121.335C99.902 121.13 100.011 120.92 100.114 120.707C100.337 120.219 100.649 119.781 101.035 119.418C101.42 119.055 101.87 118.775 102.36 118.593C102.658 118.514 102.968 118.498 103.272 118.545C103.576 118.592 103.868 118.702 104.13 118.868C104.187 118.929 104.346 119.107 104.551 119.371C101.931 121.392 99.8917 126.852 99.8026 127.094C99.7841 127.142 99.775 127.194 99.7759 127.246C99.7767 127.298 99.7875 127.349 99.8076 127.397C99.8277 127.444 99.8567 127.487 99.8929 127.523C99.9291 127.559 99.9718 127.587 100.019 127.606C100.065 127.624 100.115 127.633 100.165 127.632C100.215 127.63 100.264 127.618 100.31 127.596C100.355 127.575 100.396 127.544 100.43 127.506C100.464 127.468 100.491 127.423 100.508 127.374C100.529 127.318 102.561 121.874 105.002 120.002C105.524 120.717 105.902 121.534 106.114 122.404C106.326 123.274 106.368 124.18 106.236 125.067ZM114.639 129.268C113.114 128.214 108.545 124.92 107.045 122.36C107.001 122.287 106.934 122.232 106.855 122.203C106.661 121.502 106.382 120.83 106.025 120.202C106.28 119.396 106.712 118.661 107.285 118.056C107.307 118.074 107.331 118.089 107.356 118.102C107.393 118.116 111.126 119.633 113.21 125.371C113.245 125.468 113.316 125.547 113.408 125.59C113.499 125.633 113.603 125.636 113.696 125.6C113.79 125.563 113.866 125.489 113.907 125.394C113.949 125.299 113.952 125.191 113.917 125.094C112.086 120.056 109.077 118.107 108.011 117.551C109.182 116.978 110.427 117.509 111.497 118.271C115.177 120.884 114.843 127.27 114.639 129.272V129.268ZM113.985 119.946C113.298 118.702 112.268 117.7 111.028 117.071C112.132 116.747 113.295 116.703 114.419 116.941C115.543 117.179 116.596 117.694 117.491 118.441C117.572 118.498 117.671 118.519 117.767 118.502C117.863 118.484 117.949 118.428 118.007 118.346C118.064 118.264 118.089 118.162 118.075 118.061C118.062 117.961 118.011 117.869 117.935 117.807C113.875 114.745 110.355 116.479 110.208 116.555C110.154 116.584 110.107 116.627 110.073 116.68C109.936 116.64 109.801 116.606 109.668 116.582C109.93 115.81 110.852 114.169 113.956 114.443C117.429 114.751 121.107 118.708 122.265 120.055C120.856 120.473 116.957 121.398 113.985 119.946Z" fill="black"/>
<path fill-rule="evenodd" clip-rule="evenodd" d="M88.7383 98.7437C88.7383 98.7437 91.2547 96.0896 93.9878 97.2938C93.9878 97.2938 93.83 99.9573 88.7383 98.7437Z" fill="#81F8F8"/>
<path d="M88.6548 99.1276C88.5892 99.1121 88.5288 99.0788 88.4799 99.0309C88.4309 98.9831 88.3951 98.9225 88.3761 98.8554C88.3572 98.7884 88.3558 98.7173 88.3722 98.6495C88.3885 98.5817 88.4219 98.5196 88.4691 98.4698C88.58 98.3536 91.1991 95.6383 94.1316 96.9335C94.2028 96.9657 94.2627 97.0198 94.3032 97.0887C94.3438 97.1575 94.3629 97.2376 94.358 97.3182C94.3213 97.609 94.2269 97.8887 94.0808 98.1396C93.9348 98.3906 93.7402 98.6072 93.5094 98.7759C92.2576 99.7556 90.1806 99.4903 88.6548 99.1276ZM89.5819 98.5208C90.9319 98.7634 92.9998 98.8482 93.5366 97.5388C91.9164 97.0081 90.383 97.9054 89.5819 98.52V98.5208Z" fill="black"/>
<path d="M31.1615 55.0756C31.0716 55.0754 30.9847 55.0419 30.9165 54.981C30.8482 54.9201 30.8031 54.8359 30.7893 54.7436C30.6578 53.8683 30.7289 52.9732 30.9966 52.1322C31.2644 51.2913 31.721 50.5288 32.3287 49.9079C32.4033 49.8384 32.5014 49.8025 32.6015 49.8082C32.7015 49.8139 32.7953 49.8606 32.8621 49.9382C32.929 50.0157 32.9635 50.1177 32.9581 50.2217C32.9526 50.3257 32.9077 50.4232 32.8331 50.4928C32.3176 51.025 31.9308 51.6767 31.7047 52.3945C31.4786 53.1123 31.4194 53.8757 31.5322 54.6219C31.5407 54.6777 31.5375 54.7348 31.5228 54.7892C31.5081 54.8437 31.4822 54.8941 31.447 54.9372C31.4118 54.9803 31.3681 55.015 31.3188 55.0389C31.2695 55.0627 31.2159 55.0753 31.1615 55.0756Z" fill="white"/>
<path d="M28.9085 63.1173C28.8263 63.1173 28.7464 63.0894 28.6808 63.0378C28.6153 62.9863 28.5677 62.9138 28.5453 62.8316C27.6733 59.6202 28.112 54.4611 28.1346 54.2429C28.1391 54.1914 28.1533 54.1412 28.1764 54.0954C28.1994 54.0496 28.231 54.0089 28.2692 53.9757C28.3074 53.9426 28.3515 53.9175 28.399 53.9021C28.4466 53.8867 28.4965 53.8811 28.5461 53.8857C28.5957 53.8904 28.6439 53.9051 28.688 53.9291C28.7321 53.9531 28.7712 53.986 28.8031 54.0257C28.835 54.0654 28.859 54.1113 28.8739 54.1607C28.8887 54.2101 28.8941 54.262 28.8896 54.3136C28.8843 54.3654 28.4442 59.5472 29.2777 62.6181C29.2937 62.677 29.2963 62.7389 29.2851 62.799C29.274 62.8591 29.2496 62.9156 29.2137 62.9641C29.1778 63.0126 29.1316 63.0517 29.0786 63.0783C29.0256 63.105 28.9673 63.1183 28.9085 63.1173Z" fill="white"/>
<path d="M25.3671 66.4794C25.2851 66.4792 25.2053 66.4512 25.1399 66.3997C25.0745 66.3481 25.0271 66.2758 25.0047 66.1937C24.1214 62.9422 25.8088 57.1199 25.8813 56.8742C25.8943 56.8231 25.917 56.7754 25.9481 56.7337C25.9792 56.692 26.0181 56.6573 26.0625 56.6316C26.1068 56.6059 26.1557 56.5897 26.2061 56.5841C26.2566 56.5785 26.3076 56.5836 26.3562 56.5989C26.4048 56.6143 26.4498 56.6397 26.4887 56.6736C26.5276 56.7075 26.5596 56.7492 26.5826 56.7962C26.6057 56.8432 26.6193 56.8946 26.6229 56.9472C26.6264 56.9999 26.6196 57.0527 26.6031 57.1026C26.5857 57.1607 24.9081 62.9508 25.731 65.9802C25.7469 66.0386 25.7496 66.1 25.7387 66.1597C25.7279 66.2194 25.7039 66.2756 25.6686 66.324C25.6334 66.3724 25.5878 66.4116 25.5355 66.4386C25.4831 66.4655 25.4255 66.4795 25.3671 66.4794Z" fill="white"/>
<path d="M22.1497 64.0381C22.0549 64.0384 21.9635 64.0017 21.8936 63.9353C21.8236 63.8688 21.7803 63.7775 21.7722 63.6793C21.2437 57.353 23.6461 53.7569 23.7487 53.607C23.8067 53.522 23.8948 53.4645 23.9935 53.4471C24.0923 53.4296 24.1937 53.4537 24.2754 53.514C24.3571 53.5742 24.4124 53.6658 24.4292 53.7685C24.4459 53.8712 24.4228 53.9766 24.3648 54.0615C24.3414 54.096 22.0243 57.594 22.5241 63.6118C22.5286 63.6659 22.5223 63.7203 22.5055 63.7717C22.4888 63.823 22.4619 63.8702 22.4268 63.9103C22.3916 63.9503 22.3488 63.9824 22.3011 64.0044C22.2534 64.0264 22.2018 64.0378 22.1497 64.0381Z" fill="white"/>
<path d="M19.4227 61.1579C19.3711 61.158 19.32 61.1471 19.2726 61.1259C19.2252 61.1047 19.1825 61.0736 19.1471 61.0345C19.1117 60.9954 19.0844 60.9492 19.0669 60.8988C19.0494 60.8483 19.042 60.7946 19.0452 60.7411C19.3096 56.7892 21.0162 53.0918 23.816 50.405C23.8927 50.3387 23.9915 50.3067 24.0908 50.3159C24.1901 50.3251 24.2819 50.3747 24.3461 50.4541C24.4103 50.5334 24.4417 50.6359 24.4335 50.7392C24.4253 50.8425 24.3781 50.9383 24.3022 51.0055C21.6813 53.5695 20.0753 57.0584 19.7986 60.789C19.7929 60.8887 19.7508 60.9823 19.6809 61.0509C19.6111 61.1194 19.5187 61.1577 19.4227 61.1579Z" fill="white"/>
<path d="M41.5083 121.883C41.3082 121.852 41.1006 121.827 40.8831 121.81C40.865 121.944 40.8462 122.116 40.8311 122.312C42.0083 123.318 42.8872 124.65 43.3656 126.154C43.393 126.252 43.4559 126.335 43.5412 126.386C43.6264 126.436 43.7271 126.45 43.8221 126.425C43.9171 126.399 43.9989 126.337 44.0501 126.25C44.1013 126.163 44.1179 126.058 44.0964 125.959C43.6175 124.375 42.7208 122.963 41.5083 121.883Z" fill="white"/>
<path d="M40.238 123.598C39.9697 123.651 39.7098 123.742 39.4656 123.869C39.0287 124.701 38.7305 125.603 38.5838 126.538C38.5759 126.59 38.578 126.642 38.5899 126.693C38.6017 126.743 38.6232 126.791 38.653 126.833C38.6827 126.875 38.7203 126.91 38.7633 126.937C38.8064 126.964 38.8541 126.981 38.9037 126.988C38.9534 126.996 39.0039 126.993 39.0524 126.979C39.1009 126.966 39.1463 126.943 39.1861 126.911C39.2259 126.88 39.2593 126.84 39.2842 126.795C39.3091 126.75 39.3251 126.7 39.3312 126.648C39.4893 125.643 39.8495 124.685 40.3882 123.835C40.3384 123.757 40.2901 123.678 40.238 123.598Z" fill="white"/>
<path d="M31.9677 122.218C31.1892 122.576 30.5575 123.208 30.1844 124.003C30.1458 124.099 30.1456 124.207 30.1837 124.304C30.2217 124.4 30.2951 124.477 30.3875 124.517C30.4799 124.557 30.5838 124.557 30.6764 124.517C30.769 124.478 30.8427 124.402 30.8812 124.306C31.0779 123.902 31.3608 123.551 31.7083 123.279C32.0558 123.007 32.4585 122.821 32.8858 122.736C32.8858 122.657 32.8971 122.586 32.8941 122.506C32.604 122.354 32.2904 122.256 31.9677 122.218Z" fill="white"/>
<path d="M40.0565 118.969C38.7724 118.85 37.484 119.142 36.3645 119.807C36.2846 119.865 36.2297 119.954 36.2113 120.054C36.1929 120.154 36.2125 120.257 36.2659 120.342C36.3193 120.427 36.4024 120.487 36.4977 120.51C36.593 120.533 36.693 120.516 36.7767 120.464C38.0894 119.709 39.6349 119.52 41.0802 119.938C41.1489 119.878 41.2192 119.826 41.2879 119.764C40.9177 119.437 40.5026 119.169 40.0565 118.969Z" fill="white"/>
<path d="M42.8569 119.943C42.9324 119.972 42.9989 119.99 43.0714 120.016C44.4195 119.085 46.0028 118.591 47.621 118.595C47.6714 118.6 47.7222 118.593 47.7699 118.575C47.8175 118.557 47.861 118.529 47.8973 118.493C47.9336 118.456 47.962 118.412 47.9805 118.363C47.999 118.314 48.0072 118.261 48.0045 118.208C48.0059 118.105 47.9676 118.004 47.898 117.93C47.8283 117.855 47.7331 117.812 47.6331 117.81C46.4532 117.803 45.2839 118.043 44.1955 118.517C43.6872 118.925 43.2365 119.405 42.8569 119.943Z" fill="white"/>
<path d="M33.3159 115.137C33.2862 115.236 33.2955 115.344 33.3419 115.436C33.3884 115.528 33.4681 115.597 33.5636 115.628C35.089 116.212 36.5321 117.006 37.8542 117.99C37.9675 117.973 38.0755 117.964 38.1917 117.945C37.7229 117.457 36.9498 116.689 36.0377 115.916C35.3173 115.505 34.5646 115.158 33.7878 114.879C33.6923 114.848 33.589 114.858 33.5005 114.906C33.4121 114.955 33.3457 115.038 33.3159 115.137Z" fill="white"/>
<path d="M44.15 115.076C44.1277 115.03 44.0968 114.989 44.0592 114.956C44.0216 114.922 43.978 114.896 43.9309 114.88C43.8838 114.864 43.8341 114.858 43.7846 114.862C43.7352 114.866 43.6869 114.88 43.6427 114.903C42.1632 115.751 40.7795 116.768 39.5173 117.935C39.4418 118.006 39.623 117.928 40.3327 118.24C41.4567 117.23 42.6803 116.346 43.9832 115.604C44.0274 115.581 44.0669 115.549 44.0993 115.51C44.1316 115.47 44.1562 115.425 44.1717 115.376C44.1872 115.327 44.1933 115.275 44.1896 115.224C44.1858 115.173 44.1724 115.122 44.15 115.076Z" fill="white"/>
<path d="M39.1685 112.301C39.191 112.254 39.2041 112.202 39.2069 112.15C39.2097 112.097 39.2023 112.044 39.185 111.994C39.1677 111.945 39.1409 111.899 39.1063 111.86C39.0716 111.822 39.0298 111.791 38.9834 111.769C38.9369 111.748 38.8868 111.736 38.8359 111.735C38.7851 111.734 38.7346 111.744 38.6875 111.764C38.6404 111.784 38.5977 111.814 38.5619 111.851C38.5261 111.889 38.498 111.934 38.4792 111.983C37.9049 113.498 37.7638 115.153 38.073 116.749L38.8507 117.56L38.9866 117.272C38.5211 115.639 38.585 113.893 39.1685 112.301Z" fill="white"/>
</svg>
