<svg width="152" height="158" viewBox="0 0 152 158" fill="none" xmlns="http://www.w3.org/2000/svg">
<path fill-rule="evenodd" clip-rule="evenodd" d="M115.161 102.052L147.5 88.5842L123.893 126.571L92.5264 145.61L49.7436 131.917L49.2959 129.352L84.5823 117.256L104.98 121.866L115.161 102.052Z" fill="white"/>
<path d="M147.359 88.22L115.02 101.687C114.825 101.766 115.619 100.343 104.683 121.397C83.3391 116.573 84.6151 116.83 84.4649 116.883L49.1784 128.98C49.092 129.009 49.0188 129.07 48.9724 129.152C48.9259 129.233 48.9093 129.329 48.9255 129.422L49.3725 131.988C49.3849 132.058 49.4158 132.124 49.4617 132.178C49.5076 132.232 49.5669 132.271 49.6329 132.292C83.164 143.066 90.5841 145.454 92.2383 145.906C92.7283 146.039 92.572 146.04 93.0794 145.724C126.164 125.148 124.134 126.906 124.21 126.784L147.817 88.7977C147.861 88.7278 147.882 88.6452 147.877 88.5619C147.873 88.4786 147.843 88.399 147.792 88.3347C147.741 88.2703 147.671 88.2245 147.594 88.2038C147.516 88.1832 147.434 88.1889 147.359 88.22ZM84.603 117.662L104.309 122.116L93.8352 142.28L50.5737 129.327L84.603 117.662ZM92.3546 145.132L50.0746 131.612L49.7764 129.904L93.469 142.987L92.3546 145.132ZM123.625 126.279L93.5105 144.559C93.8533 143.898 115.348 102.516 115.428 102.363L146.539 89.4108L123.625 126.279Z" fill="black"/>
<path d="M97.7111 131.115L89.5073 128.972C89.4592 128.959 89.4092 128.956 89.3601 128.964C89.3111 128.971 89.2639 128.989 89.2214 129.015C89.1788 129.042 89.1417 129.077 89.1121 129.118C89.0826 129.16 89.0611 129.207 89.049 129.257C89.0369 129.307 89.0344 129.359 89.0416 129.41C89.0489 129.461 89.0657 129.51 89.0911 129.554C89.1166 129.598 89.1502 129.637 89.19 129.667C89.2298 129.698 89.275 129.72 89.3231 129.733L97.5269 131.876C97.624 131.901 97.7269 131.886 97.8128 131.832C97.8988 131.779 97.9608 131.692 97.9852 131.591C98.0096 131.49 97.9945 131.383 97.9431 131.294C97.8917 131.205 97.8082 131.14 97.7111 131.115Z" fill="black"/>
<path d="M100.473 123.608C100.456 123.559 100.429 123.515 100.395 123.477C100.362 123.439 100.321 123.409 100.276 123.387C100.231 123.366 100.182 123.354 100.132 123.352C100.083 123.35 100.033 123.359 99.9867 123.377L83.4076 129.814L76.9086 128.029L96.1271 120.84C96.1746 120.824 96.2183 120.797 96.2558 120.763C96.2933 120.728 96.3238 120.686 96.3455 120.639C96.3673 120.592 96.3798 120.541 96.3824 120.489C96.385 120.437 96.3776 120.385 96.3607 120.336C96.3438 120.287 96.3176 120.242 96.2838 120.204C96.2499 120.165 96.2091 120.134 96.1636 120.113C96.1181 120.091 96.0689 120.079 96.0188 120.077C95.9687 120.075 95.9188 120.083 95.8719 120.102L75.6236 127.675L73.2733 127.029C73.2253 127.015 73.1754 127.012 73.1262 127.019C73.0771 127.026 73.0297 127.043 72.9868 127.069C72.944 127.095 72.9064 127.129 72.8764 127.17C72.8463 127.211 72.8243 127.258 72.8116 127.308C72.7989 127.358 72.7958 127.409 72.8024 127.461C72.809 127.512 72.8253 127.561 72.8502 127.605C72.8751 127.65 72.9082 127.689 72.9477 127.72C72.9871 127.752 73.0321 127.775 73.08 127.788L74.3718 128.143L69.6727 129.899L66.6278 128.975C66.5802 128.961 66.5303 128.956 66.481 128.962C66.4318 128.968 66.384 128.983 66.3406 129.008C66.2971 129.033 66.2587 129.066 66.2277 129.106C66.1967 129.147 66.1735 129.193 66.1597 129.242C66.1458 129.292 66.1414 129.344 66.1468 129.395C66.1522 129.446 66.1672 129.496 66.1911 129.541C66.2149 129.586 66.2471 129.626 66.2857 129.658C66.3244 129.691 66.3688 129.715 66.4164 129.729L68.4662 130.351L66.3945 131.126C66.347 131.142 66.3033 131.169 66.2658 131.203C66.2283 131.238 66.1978 131.28 66.1761 131.327C66.1543 131.374 66.1418 131.425 66.1392 131.477C66.1366 131.529 66.144 131.581 66.1609 131.63C66.1778 131.679 66.204 131.724 66.2378 131.762C66.2717 131.801 66.3125 131.832 66.358 131.853C66.4035 131.875 66.4527 131.887 66.5028 131.889C66.5529 131.891 66.6028 131.883 66.6497 131.864L69.6976 130.724L76.0728 132.66L75.7972 132.767C75.7491 132.784 75.7046 132.81 75.6665 132.845C75.6284 132.88 75.5975 132.922 75.5756 132.97C75.5537 133.018 75.5412 133.069 75.539 133.122C75.5367 133.175 75.5448 133.228 75.5625 133.277C75.5803 133.326 75.6075 133.372 75.6425 133.41C75.6774 133.448 75.7195 133.479 75.7661 133.5C75.8126 133.521 75.8628 133.532 75.9136 133.532C75.9643 133.532 76.0146 133.522 76.0615 133.502L77.2838 133.031L91.3336 137.296C91.3812 137.31 91.4311 137.315 91.4804 137.309C91.5296 137.303 91.5774 137.288 91.6209 137.263C91.6643 137.238 91.7027 137.205 91.7337 137.165C91.7647 137.124 91.7879 137.078 91.8017 137.029C91.8156 136.979 91.82 136.927 91.8146 136.876C91.8092 136.825 91.7942 136.775 91.7703 136.73C91.7465 136.685 91.7143 136.645 91.6757 136.613C91.637 136.58 91.5926 136.556 91.545 136.542L78.4654 132.568L83.4484 130.636L93.9293 133.513C93.9779 133.529 94.0289 133.534 94.0793 133.528C94.1297 133.523 94.1786 133.507 94.2229 133.481C94.2672 133.455 94.3061 133.421 94.3372 133.379C94.3683 133.337 94.3911 133.29 94.4041 133.239C94.4171 133.188 94.42 133.134 94.4128 133.082C94.4056 133.03 94.3884 132.98 94.3621 132.935C94.3358 132.89 94.3011 132.85 94.2599 132.82C94.2188 132.789 94.1721 132.767 94.1226 132.755L84.6738 130.16L100.253 124.115C100.3 124.097 100.342 124.07 100.379 124.034C100.415 123.999 100.444 123.956 100.465 123.909C100.485 123.862 100.496 123.811 100.498 123.759C100.499 123.707 100.491 123.656 100.473 123.608ZM77.2544 132.201L70.9041 130.273L75.6568 128.496L82.183 130.288L77.2544 132.201Z" fill="black"/>
<path fill-rule="evenodd" clip-rule="evenodd" d="M99.7152 121.227C99.6578 120.494 94.9587 118.636 91.8111 116.845C88.5518 114.988 83.1135 116.445 80.924 116.022C78.3705 115.469 75.8805 114.637 73.4956 113.539C70.4135 112.044 67.521 110.159 64.884 107.927C63.3086 106.696 61.5804 105.693 59.7462 104.944C56.4997 94.7473 54.3102 87.5598 51.2819 82.8765C50.3415 81.5725 49.1889 80.4498 47.8761 79.5591C43.3937 76.2825 47.3567 106.906 47.3567 106.906C47.3567 106.906 48.7836 113.941 54.7096 116.64C60.6356 119.34 71.0486 120.537 71.0486 120.537L74.1124 120.694C79.488 120.936 80.7383 123.543 82.1486 124.28C83.8204 125.161 85.6409 125.697 87.5091 125.858C88.3502 125.873 89.6571 125.407 89.6918 124.63C89.7167 124.08 88.0519 123.965 86.6325 123.465C85.6496 123.043 84.7806 122.379 84.101 121.528C85.2471 120.918 87.3302 120.335 88.5593 120.936C89.9863 121.634 90.9564 125.451 91.3052 127.048C91.6427 128.596 92.7194 126.168 92.7194 126.168C92.7194 126.168 92.9647 127.176 93.7167 127.215C94.4408 127.253 94.4408 124.559 94.4408 124.559C94.4408 124.559 94.9202 126.29 95.7348 125.873C96.5495 125.456 95.46 120.936 95.46 120.936C95.46 120.936 99.7741 121.96 99.7152 121.227Z" fill="#FFD997"/>
<path fill-rule="evenodd" clip-rule="evenodd" d="M11.911 79.2671C7.99711 82.3364 4.33762 86.3109 4.07941 90.8411C3.52675 100.506 10.9152 126.414 19.8936 128.888C28.8721 131.361 52.8117 128.731 55.5553 128.525C55.5553 128.525 59.7275 130.352 62.296 130.513C64.8645 130.675 66.5036 129.576 68.6146 130.491C70.7255 131.405 73.8595 134.036 74.1585 132.957C74.4575 131.879 70.4107 127.844 70.4107 127.844C70.4107 127.844 74.0347 128.268 76.1555 129.694C78.2763 131.119 80.3963 133.933 81.3975 133.141C81.3975 133.141 83.4949 133.354 83.248 132.172C83.0011 130.99 80.1102 127.56 80.1102 127.56C80.1102 127.56 83.4088 129.737 83.9343 128.978C84.4597 128.219 83.6889 127.8 82.4907 126.507C81.2925 125.213 79.8716 123.348 78.5081 122.697C77.1445 122.046 75.9192 121.645 74.9271 121.057C73.935 120.469 72.7535 120.308 70.6115 120.638C68.4696 120.969 62.5451 121.49 60.5866 121.221C58.0536 120.771 55.4945 120.499 52.9264 120.406C50.1178 120.406 42.6584 118.569 39.233 117.869C36.1511 117.241 29.6052 115.111 25.6475 115.02C25.6475 115.02 22.25 100.639 20.0069 92.9669C17.7766 85.3383 11.911 79.2671 11.911 79.2671Z" fill="#FFD997"/>
<path fill-rule="evenodd" clip-rule="evenodd" d="M26.7542 63.2168C26.8622 60.0242 27.7916 46.2137 35.8104 45.5112C44.8818 44.7167 44.7761 50.0642 44.7761 50.0642C44.7761 50.0642 45.2947 52.6837 44.0346 57.389C44.4588 58.9105 44.4797 60.523 44.095 62.0558C43.6458 63.5128 41.6919 66.6748 40.5707 68.9159C39.5726 70.9106 38.7187 72.2914 37.0977 72.4657L36.9293 73.5121L39.8368 75.0052C38.8871 77.2236 38.0007 79.2041 31.4903 79.5456C24.98 79.8871 21.0864 73.509 21.0864 73.509C22.1047 73.0407 23.0564 72.4292 23.9147 71.6917C24.5942 70.9012 26.7421 63.2051 26.7421 63.2051L26.7542 63.2168Z" fill="#FFD997"/>
<path fill-rule="evenodd" clip-rule="evenodd" d="M32.3071 58.3357C33.7077 59.1992 34.9549 59.423 35.8103 58.0217C35.1557 56.7681 33.8352 57.2713 32.3071 58.3357Z" fill="white"/>
<path fill-rule="evenodd" clip-rule="evenodd" d="M40.6431 57.7518C41.8073 58.6427 42.8235 58.3798 43.4184 57.3859C42.7608 56.1307 42.1719 56.6873 40.6431 57.7518Z" fill="white"/>
<path fill-rule="evenodd" clip-rule="evenodd" d="M23.0434 62.717C25.0668 64.6701 27.6965 63.6519 28.7527 59.8957C30.5858 53.3755 31.661 48.6325 36.6296 47.3977C41.5983 46.1629 44.0815 47.5162 44.7761 50.0612C44.7761 50.0612 44.3986 46.3332 42.4688 44.2742C41.1946 42.9103 39.6614 41.8368 37.9668 41.1219C36.2722 40.407 34.4531 40.0663 32.6251 40.1215C32.2755 40.1412 31.9033 40.1718 31.5137 40.2181C31.5137 40.2181 31.2042 33.6005 23.8739 34.7702C16.5436 35.9398 10.4983 43.9884 11.0963 50.3281C11.6942 56.6678 13.1484 58.905 14.5353 61.2969C15.9222 63.6888 17.5153 68.3823 14.7618 70.4484C12.0083 72.5146 10.7671 72.4266 10.7671 72.4266C10.7671 72.4266 21.6096 76.6044 23.0434 62.717Z" fill="#81F8F8"/>
<path d="M45.1506 50.0202C45.1355 49.8632 44.7369 46.1329 42.7399 44.0001C41.7282 42.9207 38.0083 39.4157 32.604 39.7297C32.3662 39.743 32.1125 39.7572 31.849 39.7752C31.6373 38.1634 30.8687 36.6868 29.6867 35.621C28.2567 34.4066 26.2824 33.9882 23.8166 34.383C16.5557 35.5425 10.0695 43.4569 10.7203 50.3664C11.2572 56.0545 12.3625 58.3161 14.213 61.4993C15.4557 63.6368 17.119 68.1961 14.5422 70.1343C11.9653 72.0725 10.8034 72.0332 10.7943 72.0387C10.7036 72.032 10.6136 72.0596 10.5409 72.1164C10.4682 72.1732 10.4177 72.2553 10.3986 72.3478C10.3795 72.4402 10.3931 72.5367 10.437 72.6195C10.4808 72.7024 10.552 72.7659 10.6373 72.7986C11.8114 73.2098 13.042 73.4192 14.2809 73.4187C18.8343 73.4187 22.6214 70.4836 23.4164 62.7631C23.4229 62.7113 23.4194 62.6586 23.4061 62.6082C23.3927 62.5578 23.3699 62.5106 23.3387 62.4695C23.3076 62.4284 23.2689 62.3942 23.2249 62.3689C23.1809 62.3436 23.1325 62.3276 23.0825 62.322C23.0325 62.3165 22.9819 62.3213 22.9338 62.3363C22.8856 62.3513 22.8408 62.3762 22.802 62.4095C22.7632 62.4427 22.7311 62.4837 22.7078 62.53C22.6844 62.5763 22.6702 62.627 22.666 62.6792C22.219 67.0061 20.8041 69.9671 18.4606 71.479C16.577 72.569 14.3747 72.9041 12.2696 72.421C13.233 71.9782 14.1448 71.4231 14.9876 70.7662C17.8415 68.624 16.5233 63.9493 14.6698 60.763C13.3779 58.5422 12.0363 56.2484 11.4753 50.2895C10.9257 44.4601 16.5663 36.3322 23.9328 35.1578C26.1722 34.7991 27.9472 35.1578 29.2043 36.2223C30.2257 37.1549 30.8948 38.4348 31.0918 39.8333C26.7422 40.2258 20.0521 41.9528 20.0219 53.99C20.0219 54.0941 20.0617 54.1939 20.1325 54.2675C20.2033 54.3411 20.2993 54.3825 20.3994 54.3825C20.4996 54.3825 20.5956 54.3411 20.6664 54.2675C20.7372 54.1939 20.7769 54.0941 20.7769 53.99C20.8026 43.7065 25.3734 40.9205 32.6478 40.51C34.4216 40.4619 36.1858 40.7955 37.8297 41.4898C39.4736 42.1841 40.9618 43.2243 42.2008 44.5449C43.0157 45.5015 43.6082 46.64 43.9328 47.8725C42.7527 46.7476 40.5678 46.012 36.5436 47.009C31.6165 48.2336 30.3813 52.661 28.669 58.7895C28.2348 60.3461 28.2484 60.5848 26.7331 62.5575C26.6737 62.6391 26.6473 62.7415 26.6594 62.8431C26.6716 62.9447 26.7215 63.0373 26.7984 63.1011C26.8753 63.165 26.9732 63.1952 27.0711 63.1851C27.1691 63.175 27.2594 63.1256 27.3228 63.0473C28.9423 60.9474 28.9544 60.5832 29.3938 59.0116C31.0366 53.1383 32.219 48.8938 36.7173 47.7751C41.0336 46.7028 43.6935 47.5302 44.4122 50.1647C44.4385 50.2582 44.4973 50.3382 44.5772 50.3891C44.657 50.4401 44.7523 50.4583 44.8444 50.4403C44.9364 50.4223 45.0188 50.3693 45.0754 50.2917C45.132 50.214 45.1588 50.1173 45.1506 50.0202Z" fill="black"/>
<path d="M38.1512 55.0616C37.727 54.544 37.1272 54.2164 36.4766 54.1471C35.1508 53.9618 33.5714 54.5977 31.7956 56.0499C31.7148 56.1114 31.6608 56.2038 31.6455 56.3067C31.6303 56.4096 31.6549 56.5146 31.7141 56.5986C31.7732 56.6826 31.8621 56.7388 31.9611 56.7547C32.06 56.7706 32.161 56.7449 32.2418 56.6834C32.2765 56.6575 35.7843 54.2083 37.6242 55.6119C37.697 55.6678 37.7868 55.6947 37.8771 55.6876C37.9674 55.6805 38.0522 55.6399 38.1161 55.5732C38.18 55.5065 38.2187 55.4181 38.2251 55.3242C38.2316 55.2303 38.2053 55.1371 38.1512 55.0616Z" fill="black"/>
<path d="M44.2465 55.206C43.6236 54.494 42.0698 55.2437 42.057 55.2516C41.9714 55.2953 41.8732 55.3039 41.7818 55.2754C41.6905 55.247 41.6129 55.1837 41.5647 55.0982C41.5164 55.0127 41.501 54.9114 41.5216 54.8146C41.5422 54.7179 41.5972 54.6328 41.6757 54.5765C41.9756 54.3045 42.33 54.1055 42.7132 53.9938C43.0964 53.8822 43.4987 53.8608 43.8909 53.9312C44.1027 53.9938 44.2995 54.102 44.4686 54.2487C44.6377 54.3954 44.7752 54.5774 44.8724 54.7829C44.9098 54.8684 44.9164 54.9651 44.8911 55.0553C44.8658 55.1455 44.8103 55.2232 44.7345 55.2745C44.6587 55.3257 44.5678 55.3469 44.4783 55.3344C44.3887 55.3218 44.3065 55.2763 44.2465 55.206Z" fill="black"/>
<path d="M36.1228 57.732C35.3799 56.3378 33.4048 57.0443 32.1289 57.9228C32.0608 57.9692 32.009 58.0373 31.9812 58.1169C31.9534 58.1964 31.9511 58.2832 31.9746 58.3643C31.9981 58.4453 32.0462 58.5163 32.1117 58.5666C32.1772 58.6169 32.2566 58.6438 32.338 58.6434C32.5403 58.6434 32.6038 58.4801 33.3384 58.1284C33.3586 58.4085 33.4822 58.6696 33.6831 58.8573C33.8841 59.0449 34.147 59.1447 34.417 59.1356C34.687 59.1266 34.9432 59.0096 35.1322 58.8089C35.3211 58.6082 35.4283 58.3394 35.4312 58.0586C35.4418 58.0758 35.4524 58.0939 35.4622 58.1127C35.5107 58.2038 35.5921 58.2711 35.6884 58.2998C35.7847 58.3285 35.888 58.3163 35.9756 58.2658C36.0632 58.2153 36.1279 58.1307 36.1555 58.0306C36.1831 57.9305 36.1714 57.8231 36.1228 57.732Z" fill="black"/>
<path d="M43.6556 57.1105C42.9761 55.7618 41.4344 56.4197 40.3819 57.4684C40.3275 57.5226 40.29 57.5925 40.2741 57.6691C40.2582 57.7457 40.2648 57.8255 40.2928 57.8982C40.3209 57.9708 40.3693 58.0331 40.4318 58.077C40.4942 58.1209 40.5678 58.1443 40.6432 58.1443C40.85 58.1443 40.8848 58.0281 41.2102 57.7636C41.2828 57.9711 41.4201 58.1473 41.6002 58.2643C41.7803 58.3813 41.9929 58.4322 42.2041 58.409C42.4153 58.3858 42.6129 58.2898 42.7656 58.1363C42.9182 57.9827 43.017 57.7805 43.0463 57.5618C43.1088 57.631 43.1934 57.6743 43.2842 57.6837C43.3751 57.6931 43.4662 57.6679 43.5405 57.6128C43.6149 57.5577 43.6675 57.4764 43.6887 57.3841C43.7099 57.2917 43.6981 57.1945 43.6556 57.1105Z" fill="black"/>
<path d="M38.222 64.0859C38.2375 64.0369 38.2622 63.9916 38.2946 63.9525C38.327 63.9135 38.3665 63.8814 38.4108 63.8582C38.4551 63.8351 38.5034 63.8212 38.5529 63.8174C38.6023 63.8136 38.652 63.82 38.6991 63.8363C39.2057 64.0105 40.5391 63.5482 40.6621 63.0984C40.8131 62.5559 40.493 62.1925 39.9018 60.8085C39.5137 59.9232 39.3883 58.9376 39.5417 57.9778C39.5649 57.8778 39.625 57.7913 39.7089 57.7369C39.7929 57.6825 39.894 57.6645 39.9906 57.6868C40.0872 57.7092 40.1714 57.77 40.2253 57.8563C40.2792 57.9425 40.2983 58.0474 40.2786 58.1482C40.1634 58.944 40.2722 59.7576 40.5919 60.4906C41.1959 61.8965 41.6346 62.4272 41.3877 63.3166C41.0185 64.6432 37.8822 65.1488 38.222 64.0859Z" fill="black"/>
<path d="M41.2837 64.7029C41.2039 64.6491 41.107 64.6297 41.0136 64.6487C40.9202 64.6678 40.8376 64.7238 40.7832 64.805C40.7832 64.805 40.6669 64.9274 40.3422 64.8835C39.913 64.8436 39.4824 64.9417 39.1086 65.1645C38.8511 65.2383 38.6186 65.1394 38.2026 64.9384L38.1173 64.8976C37.4378 64.575 36.2645 65.3529 35.6031 65.2022L33.7964 64.7861C33.723 64.7693 33.6464 64.7756 33.5764 64.8042C33.5065 64.8329 33.4464 64.8827 33.4038 64.9471C33.3612 65.0115 33.3381 65.0877 33.3374 65.1659C33.3367 65.2441 33.3585 65.3207 33.4 65.3859C33.6205 65.7305 35.5948 68.7677 37.052 69.2614C38.38 69.7136 39.4227 68.8289 40.1535 67.5768C40.5589 66.8852 41.3796 65.3003 41.4143 65.2336C41.4613 65.1444 41.474 65.04 41.4497 64.9415C41.4255 64.843 41.3661 64.7577 41.2837 64.7029ZM37.7979 65.6135C38.6956 66.0437 39.0225 66.1049 39.7171 65.758C39.777 65.7263 39.8394 65.7 39.9036 65.6795C39.491 66.0952 38.9751 66.3829 38.4138 66.5104C37.8526 66.6378 37.2682 66.5999 36.7266 66.4009C36.3619 66.3093 36.0075 66.1777 35.6696 66.0084C36.3959 66.0445 37.545 65.5186 37.7979 65.6135ZM37.2837 68.518C36.5486 68.1169 35.9099 67.5486 35.4151 66.8554C36.183 67.4297 37.0639 67.8198 37.9942 67.9976C38.4924 67.929 38.9643 67.7248 39.3623 67.4057C38.7167 68.4058 38.0372 68.7724 37.2845 68.5125L37.2837 68.518Z" fill="black"/>
<path d="M100.091 121.195C100.005 120.096 95.7323 118.633 91.9913 116.501C88.6301 114.584 83.0929 116.042 80.9932 115.638C78.4666 115.09 76.0029 114.266 73.6433 113.179C70.5968 111.698 67.7373 109.833 65.1292 107.626C63.5755 106.395 61.8672 105.392 60.0518 104.643C57.3746 96.234 54.8159 87.6327 51.5958 82.6535C48.7857 78.3061 39.2259 74.254 37.3263 73.4753L37.4947 72.7923C39.0983 72.4422 39.9756 70.953 40.9073 69.0902C42.0292 66.8483 43.9877 63.6887 44.4558 62.1681C44.861 60.5984 44.851 58.944 44.4271 57.3796C45.6607 52.7049 45.1677 50.0885 45.1458 49.9786C45.1258 49.8766 45.0676 49.787 44.9841 49.7296C44.9006 49.6722 44.7985 49.6517 44.7004 49.6725C44.6023 49.6933 44.5161 49.7538 44.4609 49.8407C44.4057 49.9275 44.3859 50.0336 44.4059 50.1356C44.4112 50.1608 44.8869 52.7387 43.6721 57.2791C43.6515 57.3516 43.6515 57.4288 43.6721 57.5013C44.0712 58.9459 44.0923 60.4751 43.7332 61.931C43.3119 63.3009 41.3127 66.5735 40.2338 68.7307C39.0258 71.1469 38.1893 72.2036 36.4784 72.078C34.4709 71.9319 30.0458 69.7567 28.0451 67.054C27.5164 66.0282 27.1542 64.9187 26.973 63.7703C27.0258 63.5835 27.0689 63.4288 27.1006 63.315C27.1284 63.2151 27.1168 63.1078 27.0686 63.0166C27.0203 62.9255 26.9392 62.8581 26.8431 62.8291C26.6612 62.7733 26.1561 63.5215 26.1961 63.7318C25.355 66.6913 24.0504 70.9405 23.6291 71.4311C22.8062 72.1376 21.8911 72.7191 20.9111 73.1581C20.0466 73.5632 4.25428 81.0921 3.69709 90.8206C3.16104 100.2 10.3456 126.667 19.7914 129.27C27.8699 131.496 47.5513 129.662 54.0178 129.06C54.6807 128.998 55.182 128.95 55.4886 128.926C56.1145 129.195 59.8381 130.754 62.2685 130.907C63.2139 130.946 64.1606 130.877 65.0914 130.7C67.6033 130.304 68.0178 130.447 70.8876 132.216C72.5395 133.237 73.5006 133.796 74.1069 133.551C74.2064 133.509 74.2952 133.444 74.3662 133.361C74.4373 133.277 74.4886 133.178 74.5161 133.07C74.7826 132.109 72.8996 129.897 71.5082 128.428C73.0661 128.687 74.568 129.228 75.9453 130.028C78.125 131.494 80.1552 134.319 81.4908 133.547C82.6452 133.625 83.8524 133.244 83.6123 132.094C83.1445 130.944 82.4993 129.882 81.7022 128.949C82.7728 129.478 83.8388 129.788 84.2352 129.213C84.8392 128.342 84.2292 127.731 83.4576 126.96C82.8973 126.398 82.7584 126.253 81.974 125.36C79.3798 122.407 79.1956 122.567 76.4889 121.397C79.7618 122.152 80.7169 123.972 81.974 124.631C83.6957 125.541 85.5726 126.092 87.4983 126.25C88.5153 126.273 90.017 125.708 90.0653 124.648C90.1099 123.664 88.4043 123.676 86.7494 123.093C85.9811 122.776 85.2894 122.287 84.7237 121.661C85.826 121.19 87.447 120.827 88.3945 121.292C89.268 121.719 90.2405 123.961 90.9328 127.136C91.1457 128.113 91.9083 128.388 92.7063 127.029C93.0793 127.535 93.7686 127.834 94.208 127.399C94.5139 126.98 94.6934 126.476 94.7237 125.951C94.8596 126.129 95.0501 126.254 95.2636 126.304C95.4771 126.354 95.7006 126.326 95.8969 126.226C96.7425 125.793 96.3635 123.273 95.9641 121.455C97.6093 121.817 99.4281 122.09 99.9022 121.661C99.9672 121.605 100.018 121.533 100.051 121.452C100.084 121.371 100.098 121.283 100.091 121.195ZM24.1938 71.9531C24.7065 71.3558 25.8344 67.6929 26.5434 65.2673C26.7216 66.0695 27.0278 66.835 27.4494 67.532C29.6049 70.4467 34.4203 72.848 36.6944 72.87L35.4456 77.9246C35.421 78.0256 35.4359 78.1326 35.4872 78.2221C35.5384 78.3116 35.6218 78.3763 35.7189 78.4019C35.816 78.4275 35.9189 78.412 36.005 78.3587C36.0911 78.3054 36.1533 78.2187 36.1779 78.1177L37.1345 74.2438C37.5747 74.4259 38.3554 74.7564 39.3346 75.2038C38.4694 77.1812 37.4282 78.8384 31.4698 79.15C26.1485 79.4256 22.5864 74.9793 21.6502 73.655C22.5743 73.2214 23.4314 72.6479 24.1938 71.9531ZM76.7969 122.371C78.8415 123.235 79.0997 123.243 81.4213 125.887C83.45 128.195 83.9453 128.286 83.6448 128.734C83.3496 128.898 81.8026 128.204 80.3802 127.275C78.5682 124.406 74.1688 121.589 73.9808 121.466C73.8955 121.416 73.7947 121.402 73.6997 121.427C73.6047 121.453 73.523 121.516 73.4719 121.603C73.4207 121.69 73.4042 121.794 73.4258 121.894C73.4473 121.993 73.5053 122.08 73.5874 122.136C73.632 122.164 78.0842 125.04 79.7928 127.771C79.8811 127.913 83.2967 131.963 82.8415 132.497C82.5382 132.698 82.1801 132.791 81.8215 132.762C81.7112 130.878 78.3424 127.552 77.9219 127.143C76.3055 125.732 74.5048 124.566 72.5735 123.68C72.4824 123.642 72.3807 123.642 72.2899 123.681C72.1991 123.72 72.1264 123.794 72.0871 123.887C72.0479 123.981 72.0452 124.086 72.0796 124.182C72.114 124.277 72.1828 124.355 72.2715 124.399C74.1219 125.253 75.8496 126.37 77.4055 127.717C79.7543 129.998 81.1389 132.142 81.0755 132.873C80.3047 133.083 78.1529 130.569 76.3598 129.363C74.4723 128.097 71.5278 127.603 70.6807 127.479C70.5171 127.082 70.2178 126.761 69.8404 126.579C69.4631 126.398 69.0343 126.368 68.6369 126.495C68.5592 126.519 68.4909 126.568 68.4422 126.635C68.3935 126.703 68.3668 126.784 68.3662 126.869C68.3656 126.953 68.3911 127.035 68.4389 127.103C68.4867 127.171 68.5543 127.221 68.6316 127.246C69.1823 127.462 69.6989 127.762 70.1643 128.136C72.2398 130.209 73.9008 132.362 73.8336 132.811C73.3255 132.988 70.3908 130.83 68.7592 130.123C66.535 129.158 64.8249 130.276 62.3191 130.117C59.8442 129.96 55.7423 128.176 55.7015 128.154C55.287 127.974 29.4592 131.11 19.99 128.5C11.5015 126.161 3.88131 100.911 4.45587 90.8559C4.69822 86.6256 8.14857 82.7469 11.8586 79.7662C12.9255 80.9367 17.7076 86.4387 19.6457 93.0728C21.6298 99.8622 24.5585 112.07 25.1678 114.628C24.8998 114.634 24.6438 114.65 24.4045 114.679C24.3542 114.684 24.3054 114.699 24.2609 114.723C24.2163 114.748 24.177 114.782 24.1451 114.822C24.1132 114.863 24.0896 114.91 24.0754 114.96C24.0613 115.01 24.057 115.063 24.0628 115.115C24.0686 115.167 24.0844 115.218 24.1092 115.263C24.134 115.309 24.1674 115.349 24.2073 115.381C24.2473 115.413 24.293 115.436 24.3418 115.45C24.3905 115.463 24.4414 115.466 24.4913 115.459C27.1006 115.145 32.0005 116.427 35.5762 117.361C39.1104 118.286 38.03 117.983 42.0692 118.876C56.4897 122.06 49.3769 119.918 59.2545 121.412C59.7143 121.482 60.1439 121.547 60.538 121.6C62.5954 121.883 68.658 121.328 70.6679 121.017C72.6354 120.713 73.7777 120.817 74.7449 121.389C75.4076 121.763 76.0931 122.091 76.7969 122.371ZM46.3886 109.949C46.5297 109.661 46.8672 108.96 47.2719 108.055C47.9295 110.174 49.8653 114.862 54.5577 117.004C58.575 118.834 64.6807 119.987 68.2141 120.536C65.6991 120.84 63.1653 120.94 60.6354 120.835C58.0864 120.382 55.5107 120.108 52.9261 120.017C51.19 119.914 49.4641 119.673 47.7634 119.296C47.6243 116.139 47.1634 113.006 46.3886 109.949ZM93.7361 126.82C93.3737 126.801 93.1767 126.337 93.111 126.148C93.3977 124.734 93.2574 123.263 92.7093 121.936C92.2744 120.817 91.5911 119.822 90.7154 119.031C90.6757 119 90.6306 118.978 90.5826 118.965C90.5345 118.952 90.4846 118.949 90.4355 118.957C90.3364 118.971 90.2469 119.026 90.1869 119.11C90.1268 119.193 90.101 119.298 90.1152 119.401C90.1293 119.504 90.1823 119.597 90.2624 119.659C91.0316 120.374 91.6331 121.263 92.0208 122.258C92.514 123.452 92.6339 124.777 92.3635 126.046C92.1977 126.431 91.979 126.789 91.7142 127.109C91.5459 126.594 90.5878 121.498 88.7229 120.585C87.3179 119.899 85.0891 120.567 83.9324 121.183C83.8826 121.209 83.8391 121.247 83.8051 121.294C83.7711 121.34 83.7474 121.393 83.7358 121.45C83.7242 121.507 83.7249 121.566 83.7379 121.623C83.7508 121.68 83.7758 121.733 83.8109 121.778C84.5339 122.688 85.4633 123.397 86.5153 123.84C87.4877 124.184 89.0113 124.442 89.3088 124.672C89.194 125.164 88.0834 125.486 87.5179 125.469C85.7059 125.31 83.9404 124.788 82.3183 123.933C81.0242 123.256 79.6221 120.571 74.1846 120.308C73.2 120.049 72.1747 120.003 71.1722 120.173C70.911 120.08 60.914 119.045 54.8642 116.287C49.6117 113.894 47.9809 107.887 47.7566 106.953C48.5074 105.295 49.084 103.558 49.4765 101.772C49.971 98.7609 47.74 95.0879 47.3165 90.0254C47.1339 86.737 47.4026 83.4383 48.1145 80.2286C49.2123 81.0171 50.1773 81.9887 50.9707 83.1041C54.1462 88.0174 56.6853 96.5825 59.1805 104.419C58.3067 104.242 57.4185 104.152 56.5282 104.151C56.4281 104.151 56.3323 104.193 56.2618 104.267C56.1914 104.341 56.1521 104.441 56.1526 104.545C56.1531 104.649 56.1934 104.749 56.2645 104.822C56.3357 104.895 56.4319 104.936 56.532 104.936C59.1919 104.635 62.9623 106.769 64.6437 108.233C67.3068 110.494 70.2318 112.4 73.3504 113.905C75.7604 115.015 78.2768 115.855 80.8573 116.412C83.1306 116.853 88.4828 115.4 91.6312 117.197C92.4043 117.638 92.2963 117.533 92.2072 117.577C92.1621 117.598 92.1216 117.629 92.0879 117.667C92.0542 117.705 92.028 117.749 92.0109 117.798C91.9938 117.846 91.986 117.898 91.9881 117.949C91.9902 118.001 92.0021 118.052 92.023 118.099C92.0306 118.115 92.7954 119.83 93.3692 120.994C93.8553 121.849 94.1015 122.828 94.0796 123.82C94.0834 124.236 94.0359 126.546 93.7361 126.82ZM95.5685 125.518C95.2733 125.671 94.932 124.857 94.8301 124.535C94.8709 121.677 94.5621 121.928 92.7161 117.784C92.8935 117.877 93.0732 117.971 93.2544 118.062C93.962 119.004 94.5817 120.013 95.1049 121.076C95.604 123.163 95.8124 125.239 95.5685 125.518ZM95.7142 120.591C95.3458 119.866 94.9872 119.256 94.6814 118.774C96.2142 119.471 97.7125 120.247 99.1706 121.1C98.0049 121.052 96.8469 120.881 95.7142 120.591Z" fill="black"/>
<path fill-rule="evenodd" clip-rule="evenodd" d="M58.683 28.5804C57.6382 28.5769 56.6374 28.1426 55.9003 27.3727C55.1631 26.6029 54.7498 25.5604 54.751 24.4741V16.2497C54.7488 15.1627 55.1617 14.1192 55.8989 13.3485C56.6362 12.5778 57.6376 12.1429 58.683 12.1394H82.8083C83.8538 12.1427 84.8553 12.5775 85.5926 13.3483C86.3299 14.119 86.7427 15.1626 86.7403 16.2497V24.4741C86.7427 25.5612 86.3299 26.6048 85.5926 27.3755C84.8553 28.1462 83.8538 28.581 82.8083 28.5844H73.9061C74.5282 34.9696 78.2383 35.9799 77.8834 35.9225C70.8461 35.5952 68.1009 28.5844 68.1009 28.5844L58.683 28.5804Z" fill="white"/>
<path fill-rule="evenodd" clip-rule="evenodd" d="M131.65 47.3695C132.98 47.3652 134.255 46.8118 135.193 45.831C136.131 44.8503 136.656 43.5223 136.653 42.1391V31.6789C136.656 30.2957 136.131 28.9678 135.193 27.987C134.255 27.0062 132.98 26.4529 131.65 26.4485H100.952C99.6212 26.4529 98.3469 27.0062 97.4087 27.987C96.4706 28.9678 95.9452 30.2957 95.9483 31.6789V42.1367C95.9452 43.52 96.4706 44.8479 97.4087 45.8287C98.3469 46.8094 99.6212 47.3628 100.952 47.3672H112.277C111.485 55.4919 106.765 56.7777 107.218 56.7047C116.173 56.2871 119.665 47.3672 119.665 47.3672L131.65 47.3695Z" fill="white"/>
<path fill-rule="evenodd" clip-rule="evenodd" d="M79.3693 100.201C78.2542 100.198 77.1861 99.7339 76.3997 98.9118C75.6133 98.0898 75.1729 96.9767 75.1753 95.8173V87.048C75.1729 85.8886 75.6133 84.7756 76.3997 83.9535C77.1861 83.1314 78.2542 82.6676 79.3693 82.6638H105.103C106.219 82.6676 107.287 83.1314 108.073 83.9535C108.86 84.7756 109.3 85.8886 109.298 87.048V95.8173C109.3 96.9767 108.86 98.0898 108.073 98.9118C107.287 99.7339 106.219 100.198 105.103 100.201H95.6079C96.2708 107.012 100.228 108.09 99.8502 108.029C92.3432 107.679 89.4154 100.201 89.4154 100.201H79.3693Z" fill="white"/>
<path d="M96.5607 56.3169H80.6649C79.8761 56.3198 79.1206 56.6479 78.5641 57.2292C78.0076 57.8104 77.6955 58.5975 77.6963 59.4176V64.8341C77.6955 65.6543 78.0076 66.4414 78.5641 67.0226C79.1206 67.6039 79.8761 67.932 80.6649 67.9349H86.101C85.7099 70.7319 84.3546 71.7029 83.7695 72.0004C83.6824 72.0434 83.6115 72.1154 83.5682 72.205C83.5248 72.2945 83.5115 72.3966 83.5302 72.495C83.5576 72.576 83.6088 72.6461 83.6765 72.6954C83.7442 72.7447 83.825 72.7706 83.9077 72.7697C86.4309 72.7697 89.2078 70.9532 90.5977 67.9349H96.5622C97.351 67.932 98.1064 67.6039 98.6628 67.0226C99.2192 66.4413 99.5311 65.6543 99.5301 64.8341V59.4176C99.5311 58.5973 99.219 57.81 98.6623 57.2286C98.1056 56.6473 97.3497 56.3194 96.5607 56.3169Z" fill="black"/>
<path d="M135.377 76.9631H123.221C122.595 76.9654 121.994 77.2261 121.552 77.6881C121.11 78.15 120.862 78.7755 120.863 79.4272V83.5689C120.862 84.2207 121.11 84.8461 121.552 85.3081C121.994 85.77 122.595 86.0307 123.221 86.033H127.725C128.185 87.065 128.901 87.9508 129.799 88.5993C130.698 89.2478 131.746 89.6355 132.837 89.7225C132.928 89.7373 133.021 89.7183 133.1 89.6689C133.178 89.6195 133.238 89.5429 133.267 89.4525C133.289 89.3562 133.278 89.2554 133.236 89.1664C133.195 89.0775 133.126 89.0056 133.041 88.9626C132.613 88.7483 131.634 88.0434 131.323 86.0299H135.378C136.005 86.0276 136.606 85.7669 137.048 85.3049C137.49 84.843 137.738 84.2175 137.737 83.5658V79.4241C137.737 78.7726 137.489 78.1477 137.046 77.6864C136.604 77.2251 136.003 76.965 135.377 76.9631Z" fill="black"/>
<path d="M60.9473 41.1875C59.4337 41.1878 57.9541 41.6548 56.6956 42.5294C55.4372 43.404 54.4565 44.647 53.8775 46.1011C53.2985 47.5552 53.1472 49.1552 53.4427 50.6987C53.7383 52.2423 54.4674 53.66 55.5379 54.7727C56.6083 55.8854 57.9721 56.6431 59.4568 56.9499C60.9414 57.2567 62.4802 57.0989 63.8786 56.4965C65.2769 55.894 66.4721 54.874 67.3129 53.5653C68.1537 52.2566 68.6024 50.7181 68.6023 49.1443C68.6001 47.0343 67.7928 45.0114 66.3576 43.5197C64.9225 42.0279 62.9767 41.1892 60.9473 41.1875ZM60.9473 56.3168C59.583 56.3165 58.2494 55.8956 57.1152 55.1072C55.9809 54.3189 55.097 53.1986 54.5751 51.888C54.0532 50.5773 53.9168 49.1352 54.1831 47.744C54.4495 46.3528 55.1066 45.0749 56.0715 44.0719C57.0363 43.069 58.2655 42.386 59.6036 42.1094C60.9417 41.8328 62.3287 41.9749 63.5891 42.5178C64.8495 43.0608 65.9268 43.9801 66.6848 45.1596C67.4427 46.3391 67.8473 47.7257 67.8473 49.1443C67.8453 51.0462 67.1176 52.8696 65.824 54.2143C64.5304 55.559 62.7766 56.3151 60.9473 56.3168Z" fill="black"/>
<path d="M58.5538 49.5367C59.7618 49.5367 59.7731 46.1863 58.5538 46.1863C57.3344 46.1863 57.342 49.5367 58.5538 49.5367Z" fill="black"/>
<path d="M63.5266 49.5367C64.7452 49.5367 64.7399 46.1863 63.5266 46.1863C62.3133 46.1863 62.3148 49.5367 63.5266 49.5367Z" fill="black"/>
<path d="M65.0859 50.8171C64.9885 50.7935 64.8861 50.8111 64.8012 50.866C64.7163 50.9209 64.6557 51.0086 64.6329 51.1099C64.6171 51.1797 64.2033 52.8227 61.277 52.9436C58.2796 53.0716 57.2755 51.1491 57.2294 51.0596C57.1843 50.9667 57.1054 50.8962 57.0103 50.8636C56.9151 50.8311 56.8115 50.8392 56.7221 50.8862C56.6326 50.9331 56.5648 51.0151 56.5336 51.114C56.5023 51.2129 56.51 51.3207 56.5552 51.4137C56.6013 51.511 57.7149 53.7349 60.9984 53.7349C61.099 53.7349 61.2017 53.7326 61.3064 53.7279C64.8496 53.5818 65.3502 51.3729 65.3698 51.281C65.3904 51.1804 65.3722 51.0755 65.3191 50.9887C65.266 50.902 65.1823 50.8403 65.0859 50.8171Z" fill="black"/>
<path d="M126.239 57.3757C125.017 57.3757 123.822 57.7525 122.806 58.4584C121.79 59.1644 120.998 60.1677 120.53 61.3416C120.063 62.5156 119.94 63.8073 120.179 65.0535C120.417 66.2997 121.006 67.4445 121.87 68.3429C122.734 69.2414 123.835 69.8533 125.034 70.1012C126.232 70.3491 127.475 70.2218 128.604 69.7356C129.733 69.2493 130.698 68.4259 131.377 67.3694C132.056 66.3129 132.418 65.0708 132.418 63.8002C132.416 62.0969 131.764 60.4641 130.606 59.2597C129.448 58.0553 127.877 57.3778 126.239 57.3757ZM126.239 69.4396C125.166 69.4396 124.118 69.1089 123.226 68.4892C122.334 67.8695 121.638 66.9888 121.228 65.9583C120.817 64.9278 120.71 63.7939 120.919 62.7C121.129 61.606 121.645 60.6012 122.404 59.8125C123.162 59.0238 124.129 58.4867 125.181 58.2691C126.233 58.0515 127.324 58.1632 128.315 58.59C129.306 59.0168 130.153 59.7397 130.749 60.6671C131.345 61.5945 131.663 62.6848 131.663 63.8002C131.661 65.2953 131.089 66.7288 130.073 67.786C129.056 68.8433 127.677 69.438 126.239 69.4396Z" fill="black"/>
<path d="M124.1 64.2209C125.215 64.2209 125.217 61.2285 124.1 61.2285C122.984 61.2285 122.984 64.2209 124.1 64.2209Z" fill="black"/>
<path d="M128.381 64.2209C129.496 64.2209 129.498 61.2285 128.381 61.2285C127.265 61.2285 127.266 64.2209 128.381 64.2209Z" fill="black"/>
<path d="M126.529 65.0498C123.691 64.9384 122.708 66.8553 122.668 66.9393C122.622 67.0323 122.615 67.1401 122.646 67.2391C122.677 67.3381 122.745 67.4202 122.834 67.4672C122.924 67.5143 123.027 67.5225 123.123 67.49C123.218 67.4576 123.297 67.3871 123.342 67.2942C123.374 67.2306 124.163 65.7383 126.499 65.8341C128.764 65.9275 129.092 67.1819 129.103 67.2306C129.122 67.318 129.168 67.3963 129.235 67.4525C129.302 67.5087 129.385 67.5396 129.471 67.5399C129.527 67.5399 129.583 67.5268 129.634 67.5015C129.685 67.4763 129.73 67.4395 129.765 67.3938C129.8 67.3482 129.826 67.2949 129.839 67.2379C129.852 67.1808 129.852 67.1215 129.84 67.0642C129.825 66.9872 129.414 65.1692 126.529 65.0498Z" fill="black"/>
<path d="M82.8083 11.7468H58.6831C57.5377 11.7512 56.4408 12.2277 55.6329 13.0718C54.825 13.9159 54.3721 15.0587 54.3735 16.2496V24.474C54.3721 25.6649 54.825 26.8077 55.6329 27.6518C56.4408 28.4959 57.5377 28.9724 58.6831 28.9768H67.8586C68.4392 30.2454 71.4267 36.0143 77.8246 36.3103C77.917 36.3252 78.0115 36.3065 78.0921 36.2572C78.1727 36.208 78.2345 36.1314 78.267 36.0402C78.2814 35.9377 78.2639 35.8332 78.2168 35.7419C78.1698 35.6506 78.0958 35.5774 78.0058 35.5331C77.0726 35.0621 74.8907 33.4968 74.3282 28.9768H82.8076C83.953 28.9726 85.05 28.4962 85.8579 27.652C86.6659 26.8079 87.1187 25.6649 87.1171 24.474V16.2496C87.1187 15.0588 86.666 13.916 85.8582 13.0719C85.0504 12.2277 83.9536 11.7512 82.8083 11.7468ZM86.3629 24.474C86.3647 25.4568 85.9915 26.4002 85.3251 27.0972C84.6587 27.7942 83.7536 28.1878 82.8083 28.1918H73.9054C73.8525 28.1915 73.8001 28.2028 73.7516 28.2249C73.7032 28.2471 73.6598 28.2796 73.6242 28.3203C73.5886 28.361 73.5616 28.409 73.545 28.4613C73.5284 28.5135 73.5226 28.5688 73.5279 28.6235C73.885 32.2895 75.2417 34.2857 76.4075 35.3478C70.7918 34.208 68.4754 28.4948 68.4513 28.432C68.4229 28.3598 68.3745 28.298 68.3123 28.2545C68.25 28.2111 68.1767 28.1878 68.1017 28.1879H58.6831C57.7386 28.1837 56.8342 27.7905 56.1679 27.0944C55.5017 26.3983 55.1279 25.4561 55.1285 24.474V16.2496C55.1269 15.2669 55.5002 14.3236 56.1666 13.6267C56.8329 12.9297 57.7379 12.536 58.6831 12.5318H82.8083C83.7536 12.5358 84.6587 12.9294 85.3251 13.6264C85.9915 14.3234 86.3647 15.2668 86.3629 16.2496V24.474Z" fill="black"/>
<path d="M62.6747 19.56L61.4916 19.3551L60.9419 18.22C60.907 18.1595 60.8575 18.1095 60.7985 18.0747C60.7394 18.04 60.6727 18.0217 60.6048 18.0217C60.537 18.0217 60.4703 18.04 60.4112 18.0747C60.3521 18.1095 60.3027 18.1595 60.2677 18.22L59.7181 19.3543L58.535 19.5592C58.4672 19.5711 58.4037 19.602 58.3516 19.6486C58.2994 19.6953 58.2605 19.7559 58.239 19.8238C58.2176 19.8918 58.2144 19.9646 58.2298 20.0343C58.2453 20.104 58.2787 20.168 58.3266 20.2194L59.1745 21.1284L58.991 22.3954C58.9807 22.4668 58.9895 22.5398 59.0166 22.6064C59.0436 22.6729 59.0877 22.7304 59.1442 22.7725C59.2006 22.8147 59.2672 22.8398 59.3364 22.8451C59.4057 22.8505 59.4751 22.8358 59.5369 22.8028L60.6044 22.2305C61.7906 22.8656 61.7249 22.8468 61.8464 22.8468C61.9008 22.8467 61.9545 22.8345 62.0038 22.8109C62.0532 22.7873 62.0971 22.7529 62.1325 22.71C62.1679 22.6672 62.194 22.6169 62.209 22.5626C62.224 22.5083 62.2275 22.4512 62.2194 22.3954L62.0337 21.1292L62.8823 20.2201C62.9302 20.1688 62.9636 20.1049 62.9791 20.0352C62.9946 19.9656 62.9915 19.8928 62.9701 19.8249C62.9487 19.7569 62.9099 19.6964 62.8578 19.6497C62.8058 19.603 62.7424 19.572 62.6747 19.56Z" fill="black"/>
<path d="M67.7456 19.56L66.564 19.3552L66.0136 18.22C65.9787 18.1596 65.9294 18.1095 65.8704 18.0748C65.8114 18.04 65.7447 18.0217 65.6769 18.0217C65.6091 18.0217 65.5424 18.04 65.4834 18.0748C65.4244 18.1095 65.375 18.1596 65.3401 18.22L64.7905 19.3544L63.6074 19.5593C63.5395 19.571 63.476 19.6019 63.4237 19.6485C63.3715 19.6951 63.3325 19.7556 63.3109 19.8236C63.2894 19.8916 63.2862 19.9644 63.3016 20.0342C63.3169 20.104 63.3504 20.168 63.3983 20.2194L64.2469 21.1285L64.0627 22.3955C64.0523 22.467 64.0611 22.5401 64.0881 22.6068C64.1152 22.6735 64.1594 22.7311 64.216 22.7732C64.2726 22.8154 64.3392 22.8405 64.4086 22.8457C64.478 22.8509 64.5475 22.8361 64.6093 22.8029L65.6769 22.2306C66.863 22.8657 66.7965 22.8468 66.9189 22.8468C66.9732 22.8468 67.0269 22.8346 67.0763 22.811C67.1256 22.7874 67.1695 22.753 67.2049 22.7101C67.2403 22.6673 67.2664 22.617 67.2814 22.5627C67.2964 22.5084 67.3 22.4513 67.2918 22.3955L67.1076 21.1285L67.9562 20.2194C68.0039 20.1679 68.0372 20.1038 68.0524 20.034C68.0676 19.9642 68.0641 19.8915 68.0424 19.8236C68.0208 19.7557 67.9816 19.6953 67.9293 19.6488C67.877 19.6024 67.8135 19.5717 67.7456 19.56Z" fill="black"/>
<path d="M72.8159 19.56L71.6328 19.3552L71.0824 18.22C71.0475 18.1596 70.9982 18.1095 70.9392 18.0748C70.8802 18.04 70.8135 18.0217 70.7457 18.0217C70.6779 18.0217 70.6112 18.04 70.5522 18.0748C70.4932 18.1095 70.4438 18.1596 70.409 18.22L69.8593 19.3544L68.6777 19.56C68.6098 19.5718 68.5463 19.6027 68.4941 19.6493C68.4418 19.6959 68.4028 19.7564 68.3813 19.8244C68.3597 19.8924 68.3565 19.9652 68.3719 20.035C68.3873 20.1047 68.4207 20.1688 68.4686 20.2202L69.3165 21.1293L69.1307 22.3962C69.1203 22.4678 69.1291 22.5409 69.1562 22.6076C69.1832 22.6743 69.2275 22.7319 69.284 22.774C69.3406 22.8162 69.4073 22.8412 69.4767 22.8465C69.5461 22.8517 69.6155 22.8369 69.6774 22.8037L70.7449 22.2314C71.9303 22.8665 71.8646 22.8476 71.9861 22.8476C72.0406 22.8477 72.0943 22.8355 72.1438 22.812C72.1933 22.7884 72.2372 22.7541 72.2727 22.7112C72.3082 22.6683 72.3344 22.618 72.3494 22.5636C72.3645 22.5093 72.368 22.4522 72.3599 22.3962L72.1749 21.1293L73.0235 20.2202C73.0714 20.1689 73.1049 20.105 73.1203 20.0353C73.1358 19.9657 73.1327 19.8929 73.1113 19.825C73.09 19.757 73.0512 19.6964 72.9991 19.6498C72.947 19.6031 72.8837 19.572 72.8159 19.56Z" fill="black"/>
<path d="M77.8888 19.56L76.705 19.3551L76.1553 18.22C76.1203 18.1595 76.0709 18.1095 76.0119 18.0747C75.9528 18.04 75.8861 18.0217 75.8182 18.0217C75.7503 18.0217 75.6836 18.04 75.6246 18.0747C75.5655 18.1095 75.5161 18.1595 75.4811 18.22L74.9322 19.3543L73.7484 19.5592C73.6805 19.5711 73.6171 19.602 73.5649 19.6486C73.5128 19.6953 73.4739 19.7559 73.4524 19.8238C73.431 19.8918 73.4278 19.9646 73.4432 20.0343C73.4587 20.104 73.4921 20.168 73.54 20.2194L74.3879 21.1284L74.2044 22.3954C74.194 22.4669 74.2028 22.5401 74.2298 22.6067C74.2569 22.6734 74.3011 22.731 74.3577 22.7731C74.4143 22.8153 74.4809 22.8404 74.5503 22.8456C74.6197 22.8508 74.6892 22.836 74.751 22.8028L75.8186 22.2305C77.0039 22.8656 76.9383 22.8468 77.0598 22.8468C77.1141 22.8467 77.1678 22.8345 77.2172 22.8109C77.2666 22.7873 77.3105 22.7529 77.3459 22.71C77.3813 22.6672 77.4074 22.6169 77.4224 22.5626C77.4374 22.5083 77.4409 22.4512 77.4328 22.3954L77.2493 21.1284L78.0972 20.2194C78.1448 20.168 78.1781 20.104 78.1934 20.0344C78.2088 19.9648 78.2055 19.8922 78.1841 19.8244C78.1627 19.7565 78.1238 19.6961 78.0718 19.6495C78.0198 19.6029 77.9565 19.5719 77.8888 19.56Z" fill="black"/>
<path d="M82.9572 19.5599L81.7733 19.3551L81.2244 18.2207C81.193 18.1558 81.1448 18.1013 81.0853 18.0632C81.0258 18.0251 80.9572 18.0049 80.8873 18.0049C80.8174 18.0049 80.7489 18.0251 80.6894 18.0632C80.6298 18.1013 80.5817 18.1558 80.5502 18.2207L80.0006 19.3558L78.8167 19.5607C78.7489 19.5726 78.6855 19.6036 78.6333 19.6502C78.5811 19.6968 78.5422 19.7574 78.5208 19.8254C78.4993 19.8934 78.4961 19.9661 78.5116 20.0358C78.527 20.1055 78.5605 20.1695 78.6084 20.2209L79.457 21.1299L79.2728 22.3969C79.2646 22.4528 79.2681 22.5098 79.2831 22.5641C79.2981 22.6184 79.3242 22.6687 79.3596 22.7116C79.3951 22.7544 79.4389 22.7888 79.4883 22.8124C79.5377 22.836 79.5914 22.8483 79.6457 22.8483C79.7695 22.8483 79.7091 22.8632 80.8869 22.2321L81.9553 22.8044C82.0171 22.8374 82.0864 22.852 82.1557 22.8467C82.225 22.8413 82.2915 22.8162 82.348 22.7741C82.4044 22.732 82.4486 22.6745 82.4756 22.6079C82.5026 22.5414 82.5115 22.4684 82.5011 22.3969L82.3177 21.1299L83.1655 20.2209C83.2136 20.1696 83.2473 20.1055 83.2628 20.0357C83.2784 19.9659 83.2753 19.8929 83.2538 19.8248C83.2323 19.7567 83.1933 19.696 83.141 19.6493C83.0887 19.6027 83.0251 19.5717 82.9572 19.5599ZM81.6457 20.7217C81.6053 20.7652 81.575 20.8178 81.5574 20.8754C81.5397 20.933 81.535 20.994 81.5438 21.0538L81.6442 21.754C80.7556 21.2775 81.0176 21.2791 80.1297 21.754L80.2308 21.0538C80.2396 20.994 80.235 20.933 80.2173 20.8754C80.1996 20.8178 80.1694 20.7652 80.1289 20.7217L79.6518 20.2115L80.3131 20.0969C80.3716 20.0867 80.427 20.0624 80.4747 20.0258C80.5225 19.9893 80.5613 19.9415 80.588 19.8865L80.89 19.2695L81.192 19.8857C81.2186 19.9409 81.2573 19.9888 81.3051 20.0255C81.3528 20.0622 81.4082 20.0866 81.4668 20.0969L82.1282 20.2115L81.6457 20.7217Z" fill="black"/>
<path d="M131.65 26.0559H100.952C99.5216 26.0613 98.152 26.6563 97.1432 27.7102C96.1345 28.7642 95.569 30.1912 95.5708 31.6781V42.1366C95.5688 43.6237 96.1342 45.0508 97.143 46.105C98.1517 47.1591 99.5215 47.7542 100.952 47.7596H111.857C111.159 53.6549 108.318 55.6959 107.106 56.3051C107.014 56.3507 106.938 56.4251 106.888 56.518C106.838 56.6108 106.817 56.7175 106.828 56.8232C106.858 56.9046 106.912 56.9745 106.981 57.0235C107.051 57.0724 107.133 57.0981 107.217 57.0972H107.236C115.481 56.7133 119.253 49.2205 119.91 47.7604H131.65C133.08 47.7552 134.45 47.1602 135.459 46.106C136.468 45.0519 137.034 43.6246 137.032 42.1374V31.6781C137.033 30.191 136.468 28.764 135.459 27.71C134.45 26.656 133.08 26.0611 131.65 26.0559ZM136.277 42.1366C136.279 43.4156 135.793 44.6432 134.925 45.5502C134.058 46.4571 132.88 46.9694 131.65 46.9746H119.666C119.591 46.9746 119.518 46.9978 119.455 47.0413C119.393 47.0848 119.345 47.1465 119.316 47.2187C119.285 47.2972 116.231 54.8521 108.746 56.1442C110.251 54.896 112.174 52.3597 112.656 47.4063C112.662 47.3516 112.656 47.2963 112.639 47.2441C112.623 47.1918 112.596 47.1438 112.56 47.1031C112.525 47.0623 112.481 47.0299 112.433 47.0077C112.384 46.9856 112.332 46.9743 112.279 46.9746H100.954C99.7236 46.9698 98.5453 46.4577 97.6776 45.5507C96.81 44.6437 96.3238 43.4159 96.3258 42.1366V31.6781C96.3238 30.3993 96.8097 29.1719 97.6769 28.2651C98.5441 27.3583 99.7218 26.8461 100.952 26.8409H131.65C132.88 26.8459 134.058 27.358 134.925 28.2648C135.793 29.1716 136.279 30.3992 136.277 31.6781V42.1366Z" fill="black"/>
<path d="M131.822 35.9954L130.265 35.7269L129.543 34.2354C129.511 34.1705 129.463 34.1159 129.404 34.0778C129.344 34.0397 129.276 34.0195 129.206 34.0195C129.136 34.0195 129.067 34.0397 129.008 34.0778C128.948 34.1159 128.9 34.1705 128.869 34.2354L128.145 35.7269L126.589 35.9954C126.52 36.007 126.457 36.0379 126.404 36.0845C126.352 36.1312 126.313 36.1918 126.291 36.26C126.27 36.3281 126.267 36.401 126.282 36.4709C126.298 36.5408 126.331 36.6049 126.379 36.6563L127.495 37.8511L127.254 39.5153C127.246 39.5712 127.249 39.6282 127.264 39.6825C127.279 39.7368 127.305 39.7871 127.341 39.8299C127.376 39.8728 127.42 39.9072 127.469 39.9308C127.519 39.9544 127.572 39.9666 127.627 39.9667C127.75 39.9667 127.68 39.9871 129.206 39.1699L130.611 39.9227C130.673 39.9557 130.742 39.9704 130.812 39.965C130.881 39.9597 130.947 39.9346 131.004 39.8925C131.06 39.8503 131.104 39.7928 131.131 39.7263C131.159 39.6597 131.167 39.5867 131.157 39.5153L130.916 37.8511L132.031 36.6563C132.079 36.6049 132.113 36.5408 132.129 36.4709C132.144 36.401 132.141 36.3281 132.119 36.26C132.098 36.1918 132.059 36.1312 132.006 36.0845C131.954 36.0379 131.89 36.007 131.822 35.9954ZM130.245 37.4437C130.204 37.4868 130.174 37.5394 130.156 37.597C130.138 37.6547 130.133 37.7159 130.142 37.7757L130.302 38.8747L129.38 38.3794C129.326 38.3508 129.267 38.3358 129.207 38.3358C129.147 38.3358 129.087 38.3508 129.034 38.3794L128.11 38.8739L128.269 37.775C128.278 37.7152 128.273 37.6541 128.256 37.5965C128.238 37.5389 128.208 37.4863 128.167 37.4429L127.424 36.6469L128.459 36.4671C128.517 36.4571 128.573 36.4328 128.621 36.3962C128.669 36.3597 128.707 36.3119 128.734 36.2568L129.207 35.2826L129.679 36.2568C129.705 36.312 129.744 36.36 129.792 36.3965C129.839 36.4331 129.895 36.4573 129.954 36.4671L130.989 36.6469L130.245 37.4437Z" fill="black"/>
<path d="M125.37 35.9956L123.814 35.7271L123.091 34.2356C123.056 34.1751 123.006 34.1251 122.947 34.0903C122.888 34.0556 122.821 34.0374 122.754 34.0374C122.686 34.0374 122.619 34.0556 122.56 34.0903C122.501 34.1251 122.451 34.1751 122.416 34.2356L121.693 35.7271L120.136 35.9956C120.068 36.0072 120.005 36.0381 119.952 36.0847C119.9 36.1314 119.861 36.192 119.839 36.2602C119.818 36.3283 119.814 36.4013 119.83 36.4711C119.846 36.541 119.879 36.6051 119.927 36.6565L121.042 37.8513L120.802 39.5155C120.791 39.5868 120.8 39.6597 120.827 39.7261C120.854 39.7926 120.898 39.85 120.955 39.8921C121.011 39.9342 121.077 39.9593 121.146 39.9648C121.216 39.9702 121.285 39.9557 121.347 39.9229L122.754 39.1701L124.161 39.9229C124.222 39.9559 124.292 39.9706 124.361 39.9652C124.43 39.9599 124.497 39.9348 124.553 39.8927C124.61 39.8505 124.654 39.793 124.681 39.7265C124.708 39.6599 124.717 39.5869 124.706 39.5155L124.464 37.8513L125.579 36.6565C125.627 36.6051 125.661 36.541 125.676 36.4711C125.692 36.4013 125.689 36.3283 125.667 36.2602C125.646 36.192 125.607 36.1314 125.554 36.0847C125.502 36.0381 125.438 36.0072 125.37 35.9956ZM123.793 37.4439C123.752 37.4873 123.722 37.5398 123.704 37.5974C123.686 37.655 123.682 37.7161 123.69 37.7759L123.849 38.8749L122.926 38.3812C122.873 38.3527 122.814 38.3378 122.754 38.3378C122.694 38.3378 122.634 38.3527 122.581 38.3812L121.657 38.8757L121.816 37.7767C121.825 37.717 121.82 37.6559 121.803 37.5983C121.785 37.5407 121.755 37.4881 121.714 37.4447L120.971 36.6487L122.006 36.4689C122.064 36.4589 122.12 36.4346 122.168 36.398C122.216 36.3615 122.255 36.3137 122.281 36.2585L122.754 35.2836L123.227 36.2585C123.253 36.3138 123.292 36.3617 123.339 36.3983C123.387 36.4349 123.443 36.4591 123.501 36.4689L124.536 36.6487L123.793 37.4439Z" fill="black"/>
<path d="M118.918 35.9956L117.362 35.7271L116.638 34.2356C116.603 34.1751 116.554 34.1251 116.495 34.0903C116.436 34.0556 116.369 34.0374 116.301 34.0374C116.233 34.0374 116.167 34.0556 116.108 34.0903C116.049 34.1251 115.999 34.1751 115.964 34.2356L115.241 35.7271L113.684 35.9956C113.616 36.0073 113.552 36.0383 113.5 36.085C113.448 36.1317 113.409 36.1924 113.387 36.2605C113.366 36.3286 113.363 36.4015 113.378 36.4713C113.394 36.5411 113.428 36.6052 113.476 36.6565L114.591 37.8513L114.349 39.5155C114.339 39.5868 114.348 39.6597 114.375 39.7261C114.402 39.7926 114.446 39.85 114.502 39.8921C114.559 39.9342 114.625 39.9593 114.694 39.9648C114.763 39.9702 114.833 39.9557 114.894 39.9229L116.302 39.1701C117.75 39.9457 117.748 39.9669 117.881 39.9669C117.935 39.9668 117.989 39.9546 118.039 39.931C118.088 39.9074 118.132 39.873 118.167 39.8301C118.203 39.7873 118.229 39.737 118.244 39.6827C118.259 39.6284 118.262 39.5714 118.254 39.5155L118.012 37.8513L119.127 36.6565C119.175 36.6052 119.209 36.5411 119.224 36.4713C119.24 36.4015 119.237 36.3286 119.215 36.2605C119.194 36.1924 119.155 36.1317 119.102 36.085C119.05 36.0383 118.986 36.0073 118.918 35.9956Z" fill="black"/>
<path d="M112.468 35.9956L110.91 35.7272L110.187 34.2357C110.152 34.1752 110.103 34.1251 110.044 34.0904C109.985 34.0556 109.918 34.0374 109.85 34.0374C109.782 34.0374 109.716 34.0556 109.657 34.0904C109.598 34.1251 109.548 34.1752 109.513 34.2357L108.79 35.7272L107.233 35.9956C107.165 36.0074 107.102 36.0383 107.05 36.085C106.997 36.1317 106.958 36.1924 106.937 36.2605C106.915 36.3286 106.912 36.4016 106.928 36.4714C106.943 36.5412 106.977 36.6053 107.025 36.6566L108.139 37.8514L107.898 39.5156C107.887 39.587 107.896 39.66 107.923 39.7266C107.95 39.7931 107.995 39.8506 108.051 39.8928C108.107 39.9349 108.174 39.96 108.243 39.9653C108.312 39.9707 108.382 39.956 108.444 39.923L109.85 39.1702C111.299 39.9458 111.297 39.967 111.43 39.967C111.484 39.9669 111.538 39.9547 111.587 39.9311C111.636 39.9075 111.68 39.8731 111.716 39.8302C111.751 39.7874 111.777 39.7371 111.792 39.6828C111.807 39.6285 111.811 39.5714 111.803 39.5156L111.561 37.8514L112.676 36.6566C112.724 36.6053 112.758 36.5412 112.773 36.4714C112.789 36.4016 112.786 36.3286 112.764 36.2605C112.743 36.1924 112.704 36.1317 112.652 36.085C112.599 36.0383 112.536 36.0074 112.468 35.9956Z" fill="black"/>
<path d="M106.015 35.9956L104.457 35.7272L103.734 34.2357C103.699 34.1752 103.65 34.1251 103.591 34.0904C103.532 34.0556 103.465 34.0374 103.397 34.0374C103.329 34.0374 103.263 34.0556 103.204 34.0904C103.145 34.1251 103.095 34.1752 103.06 34.2357L102.337 35.7272L100.78 35.9956C100.712 36.0074 100.649 36.0383 100.596 36.085C100.544 36.1317 100.505 36.1924 100.484 36.2605C100.462 36.3286 100.459 36.4016 100.475 36.4714C100.49 36.5412 100.524 36.6053 100.572 36.6566L101.686 37.8514L101.445 39.5156C101.434 39.587 101.443 39.66 101.47 39.7266C101.497 39.7931 101.541 39.8506 101.598 39.8928C101.654 39.9349 101.721 39.96 101.79 39.9653C101.859 39.9707 101.929 39.956 101.991 39.923L103.397 39.1702C104.846 39.9458 104.844 39.967 104.977 39.967C105.031 39.9669 105.085 39.9547 105.134 39.9311C105.183 39.9075 105.227 39.8731 105.263 39.8302C105.298 39.7874 105.324 39.7371 105.339 39.6828C105.354 39.6285 105.358 39.5714 105.35 39.5156L105.109 37.8514L106.223 36.6566C106.271 36.6053 106.305 36.5412 106.32 36.4714C106.336 36.4016 106.333 36.3286 106.311 36.2605C106.29 36.1924 106.251 36.1317 106.199 36.085C106.146 36.0383 106.083 36.0074 106.015 35.9956Z" fill="black"/>
<path d="M105.104 82.2712H79.3701C78.155 82.2758 76.9913 82.7813 76.1342 83.6767C75.277 84.5722 74.7964 85.7846 74.7979 87.048V95.8172C74.7964 97.0806 75.277 98.293 76.1342 99.1884C76.9913 100.084 78.155 100.589 79.3701 100.594H89.1723C89.7763 101.911 92.9518 108.1 99.7921 108.416C99.8896 108.436 99.9904 108.415 100.074 108.359C100.157 108.303 100.216 108.216 100.239 108.115C100.262 108.015 100.247 107.909 100.197 107.82C100.147 107.731 100.066 107.666 99.9711 107.637C98.9692 107.134 96.6264 105.452 96.0307 100.594H105.104C106.319 100.589 107.483 100.084 108.34 99.1883C109.197 98.2928 109.677 97.0804 109.675 95.8172V87.048C109.677 85.7847 109.197 84.5724 108.34 83.6768C107.483 82.7813 106.319 82.2758 105.104 82.2712ZM108.92 95.8172C108.922 96.8723 108.521 97.8851 107.806 98.6335C107.091 99.3818 106.119 99.8046 105.104 99.8089H95.6079C95.555 99.8086 95.5026 99.8199 95.4542 99.8421C95.4057 99.8642 95.3623 99.8967 95.3267 99.9374C95.2911 99.9781 95.2641 100.026 95.2475 100.078C95.231 100.131 95.2251 100.186 95.2304 100.241C95.6177 104.217 97.1089 106.347 98.3637 107.463C92.2882 106.296 89.7899 100.123 89.7635 100.056C89.7351 99.984 89.6867 99.9222 89.6245 99.8787C89.5622 99.8353 89.4889 99.812 89.4139 99.8121H79.3724C78.3574 99.8079 77.3855 99.3853 76.6699 98.6369C75.9542 97.8886 75.5533 96.8756 75.5551 95.8203V87.048C75.5533 85.9927 75.9542 84.9797 76.6699 84.2314C77.3855 83.483 78.3574 83.0604 79.3724 83.0562H105.107C106.121 83.0606 107.093 83.4833 107.808 84.2317C108.524 84.98 108.924 85.9929 108.922 87.048L108.92 95.8172Z" fill="black"/>
<path d="M83.6264 90.6049L82.3512 90.3851L81.7593 89.1621C81.7244 89.1016 81.6749 89.0516 81.6159 89.0169C81.5568 88.9821 81.4901 88.9639 81.4222 88.9639C81.3544 88.9639 81.2876 88.9821 81.2286 89.0169C81.1695 89.0516 81.1201 89.1016 81.0851 89.1621L80.4932 90.3851L79.2187 90.6049C79.1508 90.6167 79.0873 90.6475 79.0351 90.6941C78.9828 90.7407 78.9438 90.8013 78.9223 90.8693C78.9007 90.9373 78.8975 91.0101 78.9129 91.0799C78.9283 91.1496 78.9617 91.2137 79.0096 91.2651L79.9232 92.244L79.7254 93.6091C79.7151 93.6804 79.724 93.7533 79.751 93.8198C79.778 93.8862 79.8221 93.9436 79.8784 93.9857C79.9347 94.0278 80.0011 94.053 80.0703 94.0584C80.1394 94.0638 80.2087 94.0493 80.2705 94.0165L81.4226 93.3995C82.6925 94.0801 82.6223 94.0597 82.7454 94.0597C82.8 94.0603 82.8541 94.0486 82.904 94.0254C82.9539 94.0021 82.9983 93.9679 83.0342 93.925C83.0701 93.8822 83.0966 93.8318 83.1119 93.7772C83.1272 93.7227 83.1309 93.6653 83.1229 93.6091L82.925 92.244L83.8386 91.2651C83.8865 91.2135 83.9199 91.1492 83.9352 91.0792C83.9504 91.0092 83.9469 90.9362 83.925 90.8681C83.9032 90.8001 83.8638 90.7396 83.8111 90.6932C83.7585 90.6467 83.6946 90.6162 83.6264 90.6049Z" fill="black"/>
<path d="M89.0327 90.605L87.7575 90.3852L87.1656 89.1621C87.1341 89.0972 87.0859 89.0427 87.0264 89.0046C86.9669 88.9665 86.8984 88.9463 86.8285 88.9463C86.7586 88.9463 86.69 88.9665 86.6305 89.0046C86.571 89.0427 86.5228 89.0972 86.4914 89.1621L85.8987 90.3852L84.625 90.605C84.5571 90.6167 84.4936 90.6476 84.4413 90.6942C84.3891 90.7408 84.3501 90.8014 84.3285 90.8693C84.307 90.9373 84.3037 91.0101 84.3191 91.0799C84.3345 91.1497 84.368 91.2137 84.4159 91.2652L85.3294 92.2441L85.1316 93.6092C85.1214 93.6805 85.1302 93.7534 85.1572 93.8198C85.1842 93.8862 85.2283 93.9437 85.2846 93.9858C85.341 94.0278 85.4073 94.053 85.4765 94.0584C85.5457 94.0639 85.6149 94.0494 85.6767 94.0166L86.8288 93.3996L87.9787 94.0166C88.0405 94.0498 88.11 94.0646 88.1794 94.0594C88.2488 94.0542 88.3155 94.0291 88.372 93.9869C88.4286 93.9448 88.4728 93.8872 88.4999 93.8205C88.5269 93.7539 88.5358 93.6807 88.5253 93.6092L88.3275 92.2441L89.2411 91.2652C89.2889 91.2138 89.3224 91.1498 89.3378 91.0801C89.3533 91.0104 89.3501 90.9376 89.3287 90.8696C89.3072 90.8017 89.2683 90.7411 89.2161 90.6944C89.164 90.6478 89.1005 90.6169 89.0327 90.605Z" fill="black"/>
<path d="M94.4409 90.6049L93.1665 90.3851L92.5738 89.1621C92.5388 89.1016 92.4894 89.0516 92.4303 89.0169C92.3712 88.9821 92.3045 88.9639 92.2367 88.9639C92.1688 88.9639 92.1021 88.9821 92.043 89.0169C91.984 89.0516 91.9345 89.1016 91.8996 89.1621L91.3076 90.3851L90.0332 90.6049C89.9653 90.6167 89.9018 90.6475 89.8495 90.6941C89.7973 90.7407 89.7583 90.8013 89.7367 90.8693C89.7152 90.9373 89.7119 91.0101 89.7273 91.0799C89.7427 91.1496 89.7762 91.2137 89.8241 91.2651L90.7376 92.244L90.5406 93.6091C90.5302 93.6806 90.5391 93.7536 90.5661 93.8201C90.5931 93.8867 90.6373 93.9442 90.6937 93.9863C90.7502 94.0284 90.8167 94.0535 90.886 94.0589C90.9553 94.0642 91.0246 94.0496 91.0864 94.0165L92.237 93.3995L93.3884 94.0165C93.4502 94.0496 93.5196 94.0642 93.5889 94.0589C93.6582 94.0535 93.7247 94.0284 93.7811 93.9863C93.8376 93.9442 93.8817 93.8867 93.9088 93.8201C93.9358 93.7536 93.9446 93.6806 93.9343 93.6091L93.7357 92.244L94.6493 91.2651C94.6972 91.2137 94.7306 91.1497 94.7461 91.08C94.7615 91.0103 94.7583 90.9376 94.7369 90.8696C94.7154 90.8016 94.6765 90.741 94.6243 90.6944C94.5722 90.6477 94.5087 90.6168 94.4409 90.6049Z" fill="black"/>
<path d="M99.8496 90.605L98.5744 90.3852L97.9825 89.1621C97.951 89.0972 97.9028 89.0427 97.8433 89.0046C97.7838 88.9665 97.7153 88.9463 97.6454 88.9463C97.5755 88.9463 97.5069 88.9665 97.4474 89.0046C97.3879 89.0427 97.3397 89.0972 97.3083 89.1621L96.7156 90.3852L95.4419 90.605C95.374 90.6167 95.3105 90.6476 95.2582 90.6942C95.206 90.7408 95.1669 90.8014 95.1454 90.8693C95.1239 90.9373 95.1206 91.0101 95.136 91.0799C95.1514 91.1497 95.1849 91.2137 95.2328 91.2652L96.1463 92.2441L95.9485 93.6092C95.9383 93.6805 95.9471 93.7534 95.9741 93.8198C96.0011 93.8862 96.0452 93.9437 96.1015 93.9858C96.1579 94.0278 96.2242 94.053 96.2934 94.0584C96.3626 94.0639 96.4318 94.0494 96.4936 94.0166L97.6457 93.3996L98.7956 94.0166C98.8574 94.0498 98.9269 94.0646 98.9963 94.0594C99.0657 94.0542 99.1324 94.0291 99.1889 93.9869C99.2455 93.9448 99.2897 93.8872 99.3168 93.8205C99.3438 93.7539 99.3526 93.6807 99.3422 93.6092L99.1444 92.2441L100.058 91.2652C100.106 91.2138 100.139 91.1498 100.155 91.0801C100.17 91.0104 100.167 90.9376 100.146 90.8696C100.124 90.8017 100.085 90.7411 100.033 90.6944C99.9809 90.6478 99.9174 90.6169 99.8496 90.605Z" fill="black"/>
<path d="M105.258 90.6048L103.983 90.385L103.391 89.1619C103.356 89.1015 103.306 89.0514 103.247 89.0167C103.188 88.9819 103.122 88.9636 103.054 88.9636C102.986 88.9636 102.919 88.9819 102.86 89.0167C102.801 89.0514 102.752 89.1015 102.717 89.1619L102.124 90.385L100.85 90.6048C100.782 90.6167 100.719 90.6476 100.667 90.6942C100.614 90.7409 100.575 90.8015 100.554 90.8694C100.533 90.9374 100.529 91.0102 100.545 91.0799C100.56 91.1496 100.594 91.2136 100.642 91.265L101.555 92.2439L101.357 93.609C101.347 93.6804 101.356 93.7534 101.383 93.82C101.41 93.8865 101.454 93.944 101.51 93.9861C101.567 94.0283 101.633 94.0534 101.703 94.0587C101.772 94.0641 101.841 94.0494 101.903 94.0164L103.054 93.3994L104.205 94.0164C104.267 94.0494 104.336 94.0641 104.406 94.0587C104.475 94.0534 104.541 94.0283 104.598 93.9861C104.654 93.944 104.698 93.8865 104.725 93.82C104.753 93.7534 104.761 93.6804 104.751 93.609L104.553 92.2439L105.467 91.265C105.515 91.2136 105.548 91.1496 105.564 91.0799C105.579 91.0102 105.576 90.9374 105.554 90.8694C105.533 90.8015 105.494 90.7409 105.442 90.6942C105.39 90.6476 105.326 90.6167 105.258 90.6048Z" fill="black"/>
<path fill-rule="evenodd" clip-rule="evenodd" d="M94.4619 60.9128C94.2052 60.9128 93.9542 60.992 93.7408 61.1403C93.5273 61.2886 93.361 61.4994 93.2628 61.746C93.1646 61.9927 93.1389 62.264 93.1891 62.5258C93.2392 62.7876 93.3629 63.028 93.5445 63.2167C93.726 63.4054 93.9574 63.5339 94.2092 63.5858C94.461 63.6378 94.722 63.611 94.9591 63.5087C95.1962 63.4065 95.3989 63.2334 95.5414 63.0114C95.6839 62.7894 95.7599 62.5284 95.7598 62.2615C95.7592 61.9038 95.6222 61.5611 95.3789 61.3083C95.1356 61.0554 94.8059 60.9133 94.4619 60.9128Z" fill="white"/>
<path fill-rule="evenodd" clip-rule="evenodd" d="M88.6099 60.9128C88.3531 60.9128 88.1022 60.992 87.8887 61.1403C87.6753 61.2886 87.5089 61.4994 87.4107 61.746C87.3125 61.9927 87.2869 62.264 87.337 62.5258C87.3871 62.7876 87.5108 63.028 87.6924 63.2167C87.874 63.4054 88.1053 63.5339 88.3571 63.5858C88.6089 63.6378 88.8699 63.611 89.107 63.5087C89.3442 63.4065 89.5468 63.2334 89.6893 63.0114C89.8319 62.7894 89.9079 62.5284 89.9077 62.2615C89.9073 61.9038 89.7704 61.5609 89.5271 61.308C89.2838 61.0552 88.9539 60.913 88.6099 60.9128Z" fill="white"/>
<path fill-rule="evenodd" clip-rule="evenodd" d="M82.7632 60.9128C82.5065 60.9128 82.2555 60.992 82.0421 61.1403C81.8286 61.2886 81.6623 61.4994 81.5641 61.746C81.4658 61.9927 81.4402 62.264 81.4903 62.5258C81.5405 62.7876 81.6641 63.028 81.8457 63.2167C82.0273 63.4054 82.2586 63.5339 82.5104 63.5858C82.7622 63.6378 83.0232 63.611 83.2604 63.5087C83.4975 63.4065 83.7001 63.2334 83.8427 63.0114C83.9852 62.7894 84.0612 62.5284 84.061 62.2615C84.0604 61.9038 83.9235 61.5611 83.6802 61.3083C83.4369 61.0554 83.1071 60.9133 82.7632 60.9128Z" fill="white"/>
<path fill-rule="evenodd" clip-rule="evenodd" d="M124.826 80.6165C124.638 80.6165 124.455 80.6743 124.299 80.7826C124.143 80.891 124.021 81.0449 123.95 81.2251C123.878 81.4053 123.859 81.6035 123.896 81.7948C123.932 81.986 124.023 82.1617 124.155 82.2996C124.288 82.4375 124.457 82.5314 124.641 82.5694C124.825 82.6075 125.015 82.5879 125.189 82.5133C125.362 82.4387 125.51 82.3123 125.614 82.1502C125.718 81.988 125.774 81.7974 125.774 81.6024C125.774 81.3409 125.674 81.0901 125.496 80.9052C125.318 80.7203 125.077 80.6165 124.826 80.6165Z" fill="white"/>
<path fill-rule="evenodd" clip-rule="evenodd" d="M129.299 80.6165C129.112 80.6163 128.928 80.674 128.772 80.7822C128.616 80.8905 128.494 81.0444 128.422 81.2246C128.351 81.4047 128.332 81.603 128.368 81.7943C128.405 81.9856 128.495 82.1613 128.628 82.2993C128.76 82.4373 128.929 82.5313 129.113 82.5694C129.297 82.6075 129.488 82.588 129.661 82.5134C129.834 82.4388 129.983 82.3124 130.087 82.1503C130.191 81.9881 130.247 81.7975 130.247 81.6024C130.247 81.3411 130.147 81.0904 129.969 80.9055C129.792 80.7206 129.551 80.6167 129.299 80.6165Z" fill="white"/>
<path fill-rule="evenodd" clip-rule="evenodd" d="M133.772 80.6165C133.585 80.6163 133.401 80.674 133.245 80.7822C133.089 80.8905 132.968 81.0444 132.896 81.2246C132.824 81.4047 132.805 81.603 132.841 81.7943C132.878 81.9856 132.968 82.1613 133.101 82.2993C133.233 82.4373 133.402 82.5313 133.586 82.5694C133.77 82.6075 133.961 82.588 134.134 82.5134C134.308 82.4388 134.456 82.3124 134.56 82.1503C134.664 81.9881 134.72 81.7975 134.72 81.6024C134.719 81.3412 134.619 81.0908 134.442 80.906C134.264 80.7212 134.024 80.6171 133.772 80.6165Z" fill="white"/>
<path d="M34.3476 112.652C34.2809 112.652 34.2153 112.634 34.1576 112.599C34.0999 112.564 34.0521 112.514 34.0191 112.454C33.9861 112.394 33.9691 112.325 33.9697 112.256C33.9704 112.186 33.9888 112.119 34.023 112.059C39.1441 103.124 34.2759 96.2851 34.2261 96.2168C34.1655 96.1336 34.1392 96.0287 34.153 95.9253C34.1668 95.8218 34.2196 95.7284 34.2997 95.6654C34.3798 95.6024 34.4806 95.5751 34.5801 95.5894C34.6796 95.6038 34.7695 95.6586 34.8301 95.7419C34.8822 95.8141 40.0531 103.076 34.6745 112.462C34.6406 112.521 34.5927 112.569 34.5353 112.603C34.478 112.636 34.4133 112.653 34.3476 112.652Z" fill="#81F8F8"/>
<path fill-rule="evenodd" clip-rule="evenodd" d="M36.8258 38.4879C35.3958 36.9242 28.9942 36.1149 24.782 40.1553C21.3181 43.479 21.0825 53.4822 21.0825 53.4822C20.2113 54.0726 19.5011 54.8864 19.0204 55.8452C18.5397 56.804 18.3047 57.8754 18.3381 58.956C18.3381 62.3182 20.5314 65.0476 23.2327 65.0476C25.9341 65.0476 28.1267 62.3182 28.1267 58.956C28.1267 55.8686 26.3041 53.3095 23.9107 52.9115C23.9107 52.9115 24.4498 42.0738 27.506 40.1207C30.5623 38.1677 34.218 38.2493 35.811 39.3742C35.9652 39.5076 36.0894 39.6745 36.1749 39.8631C36.2603 40.0518 36.3049 40.2576 36.3056 40.4661L38.5275 41.2912C38.1915 40.2251 37.6068 39.262 36.8258 38.4879Z" fill="white"/>
<path d="M38.8941 41.2046C38.5446 40.07 37.9274 39.0445 37.0987 38.2216C35.4068 36.3706 28.7839 35.7881 24.5257 39.8701C21.2264 43.0353 20.7681 51.7543 20.713 53.2646C19.8385 53.9043 19.1297 54.7588 18.6497 55.7522C18.1697 56.7455 17.9334 57.8469 17.9618 58.9582C17.9618 62.5339 20.3272 65.4431 23.2339 65.4431C26.1407 65.4431 28.5061 62.5339 28.5061 58.9582C28.5061 55.8347 26.7009 53.2206 24.3068 52.6091C24.5001 49.4299 25.4189 41.9198 27.7043 40.4589C30.5197 38.6605 34.0584 38.6141 35.5971 39.7022C35.6997 39.7994 35.782 39.9176 35.8386 40.0495C35.8953 40.1813 35.9251 40.3239 35.9262 40.4683C35.9259 40.5496 35.9498 40.6289 35.9947 40.6954C36.0396 40.7619 36.1033 40.8123 36.1769 40.8396L38.4019 41.6654C38.4658 41.6887 38.5346 41.6937 38.601 41.6799C38.6674 41.666 38.729 41.6339 38.7794 41.5868C38.8297 41.5396 38.8669 41.4793 38.8871 41.4121C38.9073 41.3448 38.9097 41.2732 38.8941 41.2046ZM27.7511 58.9551C27.7511 62.0951 25.7247 64.655 23.2339 64.655C20.7432 64.655 18.7168 62.0982 18.7168 58.9551C18.7168 55.8119 20.7432 53.256 23.2339 53.256C25.7247 53.256 27.7511 55.8127 27.7511 58.9551ZM36.6601 40.1802C36.6326 39.9573 36.5623 39.7425 36.4535 39.5483C36.3447 39.3541 36.1996 39.1846 36.0266 39.0498C34.3 37.8299 30.4782 37.7648 27.3139 39.7877C24.4374 41.6246 23.6967 50.4425 23.5631 52.4835C22.8565 52.4305 22.1478 52.5512 21.4944 52.836C21.6182 50.5807 22.2343 43.1365 25.0429 40.444C29.055 36.5881 35.1909 37.2694 36.5521 38.7609C37.0719 39.3163 37.5127 39.9459 37.8613 40.6308L36.6601 40.1802Z" fill="black"/>
</svg>
