<svg width="600" height="600" viewBox="0 0 600 600" fill="none" xmlns="http://www.w3.org/2000/svg">
<path d="M300.326 126.5C378.729 126.5 449.59 146.107 500.77 177.677C551.988 209.271 583.151 252.588 583.151 300C583.151 347.412 551.988 390.729 500.77 422.323C449.59 453.893 378.729 473.5 300.326 473.5C221.923 473.5 151.062 453.892 99.8828 422.323C48.6639 390.729 17.5 347.412 17.5 300C17.5 252.588 48.6639 209.271 99.8828 177.677C151.062 146.108 221.923 126.5 300.326 126.5Z" stroke="#1E1E1E" stroke-width="5"/>
<path d="M162.075 307.354C124.711 307.354 94.4209 285.844 94.4209 259.309C94.4209 232.775 124.711 211.265 162.075 211.265C199.44 211.265 229.73 232.775 229.73 259.309C192.366 259.309 162.075 280.82 162.075 307.354ZM162.075 307.354C162.075 307.354 162.076 307.354 162.075 307.354Z" stroke="#1E1E1E" stroke-width="5"/>
<path d="M297.385 307.354C297.385 333.888 267.095 355.398 229.73 355.398C192.366 355.398 162.076 333.888 162.076 307.354C162.076 280.819 192.366 259.309 229.73 259.309C267.095 259.309 297.385 280.819 297.385 307.354Z" stroke="#1E1E1E" stroke-width="5"/>
<path d="M162.115 309.013C156.477 307.931 150.546 307.354 144.426 307.354C107.061 307.354 76.7715 328.864 76.7715 355.398C76.7715 381.933 107.061 403.443 144.426 403.443C181.791 403.443 212.081 381.933 212.081 355.398C212.081 354.843 212.067 354.29 212.041 353.739C183.976 348.355 163.14 330.468 162.115 309.013Z" stroke="#1E1E1E" stroke-width="5"/>
<path d="M279.654 358.5C297.879 358.5 314.273 363.75 326.046 372.11C337.825 380.475 344.81 391.801 344.81 404.045C344.809 416.288 337.824 427.614 326.046 435.979C314.273 444.339 297.879 449.589 279.654 449.589C261.43 449.589 245.036 444.339 233.263 435.979C221.484 427.614 214.5 416.288 214.5 404.045C214.5 391.801 221.484 380.475 233.263 372.11C245.036 363.75 261.43 358.5 279.654 358.5Z" stroke="#1E1E1E" stroke-width="5"/>
<path d="M448.263 227.144L450.763 227.144L445.962 226.165L448.263 227.144ZM310.71 227.144L312.995 226.13L308.211 227.069L310.71 227.144ZM379.433 261.28V263.78H379.472L379.51 263.779L379.433 261.28ZM395.559 210.254L393.354 209.076C392.91 209.908 392.972 210.919 393.514 211.691C394.056 212.463 394.987 212.864 395.92 212.728L395.559 210.254ZM415.08 236.149L412.862 234.995C412.427 235.832 412.5 236.842 413.05 237.608C413.6 238.373 414.534 238.764 415.466 238.619L415.08 236.149ZM395.439 210.272L395.815 212.743C396.598 212.624 397.278 212.141 397.649 211.441L395.439 210.272ZM415.023 236.257L414.647 233.785C413.864 233.905 413.184 234.388 412.813 235.088L415.023 236.257ZM414.903 236.275L417.108 237.453C417.552 236.621 417.49 235.609 416.948 234.837C416.406 234.066 415.475 233.665 414.542 233.801L414.903 236.275ZM395.382 210.38L397.6 211.533C398.035 210.697 397.963 209.687 397.412 208.921C396.862 208.155 395.928 207.764 394.996 207.91L395.382 210.38ZM414.96 236.167L415.33 238.64C416.118 238.522 416.802 238.035 417.173 237.33L414.96 236.167ZM395.502 210.361L395.132 207.889C394.344 208.007 393.66 208.493 393.289 209.199L395.502 210.361ZM358.029 233.453C359.406 233.344 360.434 232.14 360.325 230.764C360.216 229.387 359.012 228.359 357.636 228.468L358.029 233.453ZM332.683 193.675L332.576 191.178C331.238 191.235 330.183 192.336 330.183 193.675H332.683ZM365.595 220.159C365.438 221.531 366.423 222.771 367.794 222.928C369.166 223.085 370.405 222.1 370.563 220.729L365.595 220.159ZM368.41 233.892C369.501 234.738 371.071 234.54 371.917 233.449C372.764 232.358 372.565 230.787 371.474 229.941L368.41 233.892ZM346.169 201.319C345.639 200.045 344.175 199.441 342.9 199.971C341.626 200.502 341.022 201.965 341.552 203.24L346.169 201.319ZM356.599 204.378C356.703 203.002 355.67 201.802 354.293 201.699C352.916 201.595 351.717 202.628 351.613 204.005L356.599 204.378ZM344.116 213.177C342.742 213.036 341.515 214.035 341.374 215.409C341.233 216.782 342.232 218.01 343.605 218.151L344.116 213.177ZM448.263 227.144C445.763 227.144 445.763 227.143 445.763 227.141C445.763 227.141 445.763 227.14 445.763 227.14C445.763 227.139 445.763 227.139 445.763 227.139C445.763 227.141 445.763 227.145 445.763 227.152C445.763 227.166 445.762 227.192 445.761 227.229C445.76 227.302 445.756 227.42 445.749 227.58C445.734 227.898 445.703 228.382 445.641 229.007C445.516 230.259 445.263 232.071 444.753 234.257C443.732 238.633 441.689 244.464 437.611 250.288C429.549 261.803 413.171 273.8 379.433 273.8V278.8C414.525 278.8 432.561 266.219 441.707 253.156C446.233 246.692 448.492 240.234 449.622 235.393C450.187 232.97 450.472 230.942 450.616 229.505C450.688 228.786 450.725 228.214 450.743 227.813C450.753 227.612 450.758 227.454 450.76 227.342C450.761 227.285 450.762 227.241 450.762 227.208C450.763 227.191 450.763 227.177 450.763 227.167C450.763 227.162 450.763 227.157 450.763 227.153C450.763 227.151 450.763 227.149 450.763 227.148C450.763 227.146 450.763 227.144 448.263 227.144ZM379.433 273.8C344.984 273.8 328.657 261.789 320.807 250.311C316.833 244.501 314.93 238.683 314.023 234.316C313.569 232.135 313.367 230.326 313.277 229.077C313.232 228.453 313.216 227.971 313.21 227.653C313.207 227.494 313.207 227.376 313.208 227.303C313.208 227.266 313.208 227.241 313.209 227.227C313.209 227.22 313.209 227.216 313.209 227.215C313.209 227.214 313.209 227.214 313.209 227.215C313.209 227.215 313.209 227.217 313.209 227.217C313.209 227.218 313.209 227.22 310.71 227.144C308.211 227.069 308.211 227.071 308.211 227.073C308.211 227.074 308.211 227.076 308.211 227.078C308.211 227.082 308.211 227.086 308.211 227.092C308.21 227.102 308.21 227.116 308.21 227.133C308.209 227.166 308.208 227.211 308.208 227.267C308.207 227.38 308.207 227.538 308.211 227.74C308.218 228.142 308.238 228.715 308.29 229.435C308.393 230.875 308.623 232.906 309.127 235.333C310.135 240.183 312.249 246.655 316.68 253.133C325.639 266.233 343.673 278.8 379.433 278.8V273.8ZM310.71 227.144C308.425 228.158 308.425 228.159 308.426 228.161C308.427 228.162 308.427 228.164 308.428 228.165C308.429 228.168 308.431 228.172 308.433 228.176C308.436 228.184 308.441 228.194 308.447 228.206C308.458 228.231 308.473 228.263 308.492 228.303C308.529 228.384 308.583 228.496 308.653 228.638C308.794 228.922 309.001 229.323 309.28 229.825C309.838 230.83 310.686 232.239 311.87 233.919C314.238 237.277 317.957 241.719 323.4 246.151C334.325 255.045 352.062 263.78 379.433 263.78V258.78C353.223 258.78 336.599 250.448 326.557 242.273C321.518 238.171 318.102 234.08 315.956 231.037C314.884 229.516 314.13 228.259 313.651 227.397C313.411 226.965 313.24 226.633 313.133 226.417C313.079 226.309 313.041 226.229 313.019 226.181C313.007 226.156 313 226.14 312.996 226.132C312.994 226.127 312.993 226.125 312.993 226.125C312.993 226.125 312.993 226.125 312.993 226.126C312.994 226.127 312.994 226.128 312.994 226.128C312.995 226.129 312.995 226.13 310.71 227.144ZM379.51 263.779C407.548 262.91 425.284 254.195 436.053 245.519C441.422 241.194 445.022 236.909 447.293 233.674C448.428 232.058 449.232 230.703 449.758 229.737C450.021 229.253 450.215 228.867 450.347 228.593C450.413 228.456 450.464 228.347 450.499 228.268C450.517 228.228 450.531 228.196 450.542 228.172C450.547 228.16 450.552 228.15 450.555 228.142C450.557 228.137 450.559 228.134 450.56 228.131C450.561 228.129 450.561 228.127 450.562 228.126C450.563 228.125 450.563 228.123 448.263 227.144C445.962 226.165 445.963 226.164 445.964 226.163C445.964 226.162 445.964 226.161 445.965 226.16C445.965 226.159 445.965 226.159 445.965 226.158C445.966 226.158 445.965 226.16 445.963 226.163C445.96 226.17 445.954 226.185 445.944 226.207C445.924 226.251 445.89 226.324 445.842 226.425C445.745 226.627 445.589 226.938 445.367 227.345C444.924 228.159 444.219 229.351 443.201 230.801C441.165 233.701 437.877 237.63 432.917 241.625C423.029 249.591 406.35 257.944 379.355 258.782L379.51 263.779ZM448.196 215.696C448.196 227.148 440.94 237.866 428.476 245.844C416.039 253.804 398.707 258.809 379.433 258.809V263.809C399.516 263.809 417.815 258.604 431.171 250.055C444.499 241.525 453.196 229.436 453.196 215.696H448.196ZM379.433 172.583C398.707 172.583 416.039 177.589 428.476 185.549C440.94 193.527 448.196 204.245 448.196 215.696H453.196C453.196 201.957 444.499 189.868 431.171 181.338C417.815 172.789 399.516 167.583 379.433 167.583V172.583ZM310.67 215.696C310.67 204.245 317.926 193.527 330.39 185.549C342.827 177.589 360.159 172.583 379.433 172.583V167.583C359.349 167.583 341.05 172.789 327.695 181.338C314.367 189.868 305.67 201.957 305.67 215.696H310.67ZM379.433 258.809C360.159 258.809 342.827 253.804 330.39 245.844C317.926 237.866 310.67 227.148 310.67 215.696H305.67C305.67 229.436 314.367 241.525 327.695 250.055C341.05 258.604 359.349 263.809 379.433 263.809V258.809ZM397.765 211.432C400.416 206.467 405.812 203.028 412.086 203.028V198.028C403.961 198.028 396.873 202.489 393.354 209.076L397.765 211.432ZM398.376 207.55C397.297 207.55 396.236 207.628 395.198 207.78L395.92 212.728C396.72 212.611 397.54 212.55 398.376 212.55V207.55ZM419.555 228.074C419.555 216.654 409.986 207.55 398.376 207.55V212.55C407.395 212.55 414.555 219.582 414.555 228.074H419.555ZM417.298 237.302C418.741 234.528 419.555 231.391 419.555 228.074H414.555C414.555 230.564 413.946 232.912 412.862 234.995L417.298 237.302ZM428.167 218.454C428.167 226.054 422.402 232.474 414.694 233.679L415.466 238.619C425.437 237.061 433.167 228.686 433.167 218.454H428.167ZM412.086 203.028C421.054 203.028 428.167 210.02 428.167 218.454H433.167C433.167 207.091 423.645 198.028 412.086 198.028V203.028ZM397.649 211.441C400.307 206.415 405.753 202.93 412.086 202.93V197.93C403.895 197.93 396.751 202.444 393.229 209.103L397.649 211.441ZM382.197 228.074C382.197 220.402 388.032 213.93 395.815 212.743L395.062 207.8C385.007 209.333 377.197 217.763 377.197 228.074H382.197ZM398.376 243.598C389.357 243.598 382.197 236.566 382.197 228.074H377.197C377.197 239.495 386.766 248.598 398.376 248.598V243.598ZM412.813 235.088C410.155 240.114 404.709 243.598 398.376 243.598V248.598C406.567 248.598 413.711 244.084 417.233 237.426L412.813 235.088ZM428.265 218.454C428.265 226.126 422.43 232.599 414.647 233.785L415.4 238.728C425.455 237.196 433.265 228.765 433.265 218.454H428.265ZM412.086 202.93C421.105 202.93 428.265 209.962 428.265 218.454H433.265C433.265 207.034 423.696 197.93 412.086 197.93V202.93ZM412.697 235.097C410.046 240.061 404.65 243.5 398.376 243.5V248.5C406.501 248.5 413.589 244.039 417.108 237.453L412.697 235.097ZM412.086 238.978C413.165 238.978 414.226 238.9 415.264 238.749L414.542 233.801C413.742 233.918 412.922 233.978 412.086 233.978V238.978ZM390.908 218.454C390.908 229.875 400.476 238.978 412.086 238.978V233.978C403.067 233.978 395.908 226.946 395.908 218.454H390.908ZM393.164 209.226C391.721 212 390.908 215.137 390.908 218.454H395.908C395.908 215.965 396.516 213.617 397.6 211.533L393.164 209.226ZM382.295 228.074C382.295 220.475 388.06 214.054 395.768 212.85L394.996 207.91C385.025 209.468 377.295 217.843 377.295 228.074H382.295ZM398.376 243.5C389.408 243.5 382.295 236.509 382.295 228.074H377.295C377.295 239.437 386.817 248.5 398.376 248.5V243.5ZM414.589 233.695C413.775 233.817 412.939 233.88 412.086 233.88V238.88C413.188 238.88 414.271 238.798 415.33 238.64L414.589 233.695ZM414.456 228.074C414.456 230.569 413.841 232.921 412.746 235.005L417.173 237.33C418.632 234.551 419.456 231.404 419.456 228.074H414.456ZM398.376 212.648C407.344 212.648 414.456 219.64 414.456 228.074H419.456C419.456 216.711 409.935 207.648 398.376 207.648V212.648ZM395.873 212.834C396.687 212.712 397.523 212.648 398.376 212.648V207.648C397.274 207.648 396.191 207.73 395.132 207.889L395.873 212.834ZM396.006 218.454C396.006 215.96 396.621 213.608 397.716 211.524L393.289 209.199C391.83 211.977 391.006 215.125 391.006 218.454H396.006ZM412.086 233.88C403.118 233.88 396.006 226.889 396.006 218.454H391.006C391.006 229.817 400.527 238.88 412.086 238.88V233.88ZM357.833 230.96C357.636 228.468 357.637 228.468 357.637 228.468C357.638 228.468 357.638 228.468 357.639 228.468C357.639 228.468 357.64 228.468 357.64 228.468C357.641 228.468 357.641 228.468 357.64 228.468C357.639 228.468 357.635 228.468 357.628 228.469C357.614 228.47 357.589 228.471 357.553 228.473C357.482 228.477 357.369 228.483 357.218 228.488C356.916 228.498 356.466 228.505 355.899 228.491C354.762 228.464 353.182 228.353 351.422 228.025C347.846 227.358 343.838 225.851 341.106 222.646L337.301 225.89C341.089 230.334 346.395 232.173 350.504 232.94C352.586 233.328 354.441 233.457 355.778 233.49C356.449 233.506 356.995 233.498 357.381 233.485C357.574 233.479 357.728 233.471 357.837 233.465C357.892 233.462 357.936 233.459 357.968 233.457C357.984 233.456 357.997 233.455 358.007 233.454C358.013 233.454 358.017 233.454 358.021 233.453C358.023 233.453 358.024 233.453 358.026 233.453C358.026 233.453 358.027 233.453 358.028 233.453C358.029 233.453 358.029 233.453 357.833 230.96ZM341.106 222.646C339.825 221.144 338.722 218.688 337.838 215.578C336.97 212.522 336.378 209.076 335.98 205.801C335.582 202.536 335.382 199.495 335.282 197.268C335.232 196.156 335.207 195.251 335.195 194.627C335.189 194.315 335.186 194.073 335.184 193.911C335.184 193.831 335.183 193.77 335.183 193.73C335.183 193.71 335.183 193.695 335.183 193.686C335.183 193.682 335.183 193.679 335.183 193.677C335.183 193.676 335.183 193.675 335.183 193.675C335.183 193.675 335.183 193.675 335.183 193.675C335.183 193.675 335.183 193.675 332.683 193.675C330.183 193.675 330.183 193.676 330.183 193.676C330.183 193.677 330.183 193.677 330.183 193.678C330.183 193.679 330.183 193.68 330.183 193.682C330.183 193.686 330.183 193.691 330.183 193.698C330.183 193.711 330.183 193.729 330.183 193.753C330.183 193.8 330.184 193.869 330.185 193.958C330.186 194.136 330.19 194.395 330.196 194.726C330.209 195.386 330.235 196.333 330.287 197.492C330.391 199.806 330.599 202.979 331.016 206.406C331.432 209.823 332.063 213.548 333.029 216.945C333.979 220.288 335.322 223.569 337.301 225.89L341.106 222.646ZM332.683 193.675C332.79 196.173 332.789 196.173 332.789 196.173C332.789 196.173 332.789 196.173 332.789 196.173C332.79 196.173 332.79 196.173 332.791 196.173C332.793 196.173 332.796 196.173 332.801 196.173C332.81 196.172 332.824 196.172 332.843 196.171C332.882 196.169 332.941 196.167 333.02 196.165C333.178 196.159 333.413 196.152 333.718 196.145C334.326 196.13 335.208 196.116 336.292 196.116C338.463 196.116 341.427 196.174 344.609 196.408C347.801 196.642 351.158 197.047 354.133 197.726C357.169 198.418 359.536 199.337 360.965 200.436L364.015 196.474C361.718 194.706 358.496 193.593 355.245 192.851C351.933 192.096 348.303 191.665 344.975 191.421C341.637 191.176 338.546 191.116 336.292 191.116C335.164 191.116 334.242 191.131 333.598 191.146C333.277 191.154 333.025 191.162 332.851 191.167C332.764 191.17 332.697 191.173 332.651 191.175C332.628 191.175 332.61 191.176 332.598 191.177C332.591 191.177 332.586 191.177 332.583 191.177C332.581 191.177 332.58 191.177 332.578 191.177C332.578 191.178 332.577 191.178 332.577 191.178C332.576 191.178 332.576 191.178 332.683 193.675ZM360.965 200.436C362.336 201.492 363.392 203.124 364.166 205.188C364.937 207.246 365.37 209.583 365.591 211.843C365.81 214.093 365.811 216.187 365.755 217.725C365.728 218.491 365.686 219.111 365.652 219.535C365.635 219.747 365.62 219.91 365.61 220.016C365.605 220.069 365.601 220.108 365.598 220.132C365.597 220.144 365.596 220.153 365.595 220.157C365.595 220.16 365.595 220.161 365.595 220.161C365.595 220.161 365.595 220.161 365.595 220.161C365.595 220.161 365.595 220.16 365.595 220.16C365.595 220.16 365.595 220.159 368.079 220.444C370.563 220.729 370.563 220.728 370.563 220.727C370.563 220.727 370.563 220.726 370.563 220.726C370.563 220.724 370.563 220.723 370.564 220.721C370.564 220.717 370.564 220.713 370.565 220.707C370.566 220.696 370.568 220.681 370.57 220.662C370.574 220.625 370.579 220.572 370.586 220.504C370.599 220.37 370.617 220.177 370.637 219.934C370.675 219.446 370.721 218.752 370.752 217.905C370.813 216.216 370.814 213.889 370.567 211.358C370.322 208.839 369.824 206.037 368.848 203.434C367.875 200.838 366.37 198.287 364.015 196.474L360.965 200.436ZM369.942 231.916C371.474 229.941 371.474 229.941 371.474 229.941C371.474 229.941 371.474 229.941 371.474 229.941C371.474 229.941 371.474 229.941 371.473 229.94C371.472 229.94 371.471 229.938 371.469 229.937C371.464 229.933 371.458 229.928 371.448 229.921C371.43 229.907 371.402 229.885 371.364 229.855C371.29 229.797 371.178 229.709 371.033 229.594C370.742 229.364 370.318 229.026 369.788 228.598C368.727 227.74 367.247 226.521 365.571 225.08C362.2 222.181 358.113 218.446 355.052 214.968L351.299 218.272C354.591 222.013 358.887 225.926 362.311 228.871C364.032 230.351 365.552 231.603 366.643 232.485C367.189 232.927 367.628 233.276 367.931 233.516C368.083 233.636 368.201 233.729 368.282 233.792C368.323 233.824 368.354 233.848 368.375 233.865C368.386 233.873 368.394 233.88 368.4 233.884C368.403 233.886 368.405 233.888 368.407 233.89C368.408 233.89 368.408 233.891 368.409 233.891C368.409 233.891 368.409 233.891 368.409 233.892C368.41 233.892 368.41 233.892 369.942 231.916ZM355.052 214.969C352.013 211.515 349.779 208.076 348.306 205.501C347.57 204.216 347.028 203.152 346.674 202.418C346.497 202.051 346.366 201.766 346.282 201.579C346.24 201.485 346.21 201.415 346.191 201.371C346.182 201.35 346.175 201.334 346.171 201.325C346.17 201.321 346.168 201.318 346.168 201.317C346.168 201.317 346.168 201.317 346.168 201.317C346.168 201.317 346.168 201.317 346.168 201.318C346.168 201.318 346.168 201.318 346.168 201.319C346.169 201.319 346.169 201.319 343.861 202.28C341.552 203.24 341.553 203.24 341.553 203.241C341.553 203.241 341.553 203.241 341.553 203.242C341.554 203.243 341.554 203.244 341.554 203.245C341.555 203.247 341.556 203.249 341.558 203.252C341.56 203.258 341.563 203.266 341.567 203.275C341.575 203.294 341.586 203.319 341.6 203.351C341.627 203.415 341.667 203.505 341.718 203.62C341.821 203.85 341.972 204.179 342.172 204.592C342.571 205.419 343.166 206.586 343.966 207.984C345.562 210.773 347.985 214.505 351.298 218.271L355.052 214.969ZM355.668 216.807L356.599 204.378L351.613 204.005L350.682 216.433L355.668 216.807ZM353.431 214.133L344.116 213.177L343.605 218.151L352.92 219.107L353.431 214.133Z" fill="#1E1E1E"/>
<path d="M537.03 279.282C536.153 281.444 534.798 284.27 532.888 286.905C532.144 287.931 531.182 288.966 530.146 289.95C533.704 296.991 531.546 311.509 503.3 335.996C471.748 363.348 398.393 412.378 393.237 406.431C389.802 402.47 418.694 379.727 447.696 356.897C462.239 345.449 476.811 333.979 487.348 324.844C492.283 320.566 498.205 314.002 504.039 307.536C514.845 295.558 525.347 283.919 528.695 287.782C529.033 288.171 529.353 288.6 529.647 289.067C530.575 288.172 531.425 287.244 532.084 286.335C533.934 283.784 535.254 281.034 536.114 278.915C536.543 277.857 536.856 276.96 537.061 276.328C537.163 276.013 537.239 275.764 537.289 275.594C537.314 275.51 537.332 275.445 537.344 275.402L537.357 275.354L537.361 275.342L537.361 275.34C537.361 275.34 537.361 275.339 537.838 275.466C538.316 275.592 538.316 275.592 538.315 275.593L538.314 275.598L538.31 275.612L538.295 275.666C538.282 275.713 538.263 275.782 538.237 275.87C538.184 276.048 538.106 276.306 538.001 276.631C537.79 277.28 537.469 278.199 537.03 279.282Z" stroke="#1E1E1E" stroke-width="5"/>
<path d="M517.117 276.006C515.352 276.866 512.996 278.123 510.621 279.707C508.466 281.145 505.945 283.329 503.952 285.166L503.778 285.326C507.646 290.679 503.163 294.82 473.478 320.555C441.927 347.907 378.913 390.466 373.757 384.518C369.576 379.695 403.018 351.299 432.64 326.147C439.55 320.28 446.252 314.589 452.22 309.415C466.295 297.213 497.798 278.348 502.954 284.296C503.028 284.381 503.1 284.466 503.17 284.55L503.276 284.452C505.276 282.609 507.843 280.382 510.066 278.899C512.488 277.283 514.885 276.005 516.676 275.132C517.572 274.695 518.317 274.358 518.839 274.131C519.101 274.017 519.306 273.93 519.447 273.872C519.517 273.843 519.571 273.821 519.608 273.806L519.65 273.789L519.662 273.784L519.666 273.782C519.666 273.782 519.666 273.782 519.852 274.235L520.038 274.687L520.035 274.688L520.026 274.692L519.987 274.707C519.953 274.721 519.901 274.742 519.833 274.77C519.697 274.827 519.497 274.911 519.242 275.022C518.731 275.245 517.998 275.576 517.117 276.006Z" stroke="#1E1E1E" stroke-width="5"/>
<path d="M189.692 322.115C190.438 322.136 191.705 322.556 193.758 323.592C197.479 325.47 203.327 329.185 209.839 331.858C216.351 334.532 223.121 335.997 227.089 337.275C229.278 337.981 230.475 338.572 231.02 339.081C231.129 339.184 231.179 339.255 231.2 339.289C231.21 339.305 231.214 339.315 231.216 339.319C231.217 339.323 231.218 339.325 231.219 339.327C231.219 339.327 231.226 339.36 231.215 339.441C231.203 339.528 231.171 339.675 231.082 339.892C230.416 341.513 228.048 343.076 223.242 343.324C218.65 343.561 212.685 342.499 206.511 339.964C200.336 337.429 195.346 333.994 192.245 330.599C189 327.046 188.414 324.269 189.079 322.647C189.168 322.431 189.248 322.303 189.301 322.233C189.347 322.172 189.374 322.153 189.378 322.15C189.38 322.149 189.382 322.148 189.385 322.146C189.388 322.145 189.399 322.141 189.418 322.136C189.457 322.126 189.542 322.111 189.692 322.115Z" stroke="#1E1E1E" stroke-width="5"/>
<path d="M88.7139 353.966C89.198 354.24 89.9548 355.008 91.1025 356.614C93.1501 359.479 96.1564 364.682 100.042 369.319C103.928 373.955 108.526 377.825 110.989 380.342C112.37 381.753 112.994 382.633 113.179 383.158C113.187 383.182 113.19 383.203 113.195 383.22C113.162 383.258 113.111 383.315 113.027 383.384C112.073 384.184 109.86 384.503 106.144 382.772C102.629 381.135 98.569 377.977 94.915 373.617C91.2611 369.257 88.8619 364.707 87.8643 360.96C86.8095 356.999 87.5096 354.876 88.4639 354.076C88.5461 354.007 88.6091 353.964 88.6523 353.938C88.6689 353.946 88.6908 353.953 88.7139 353.966Z" stroke="#1E1E1E" stroke-width="5"/>
<path d="M330.411 408.716C330.45 408.752 330.51 408.809 330.585 408.905C331.38 409.909 331.635 412.155 329.814 415.824C328.088 419.3 324.825 423.275 320.367 426.803C315.908 430.332 311.29 432.594 307.51 433.475C303.521 434.405 301.393 433.64 300.599 432.636C300.524 432.541 300.481 432.47 300.456 432.423C300.464 432.407 300.472 432.385 300.487 432.361C300.771 431.887 301.555 431.154 303.194 430.052C306.114 428.089 311.409 425.235 316.154 421.48C320.898 417.725 324.893 413.228 327.474 410.836C328.923 409.494 329.817 408.9 330.343 408.732C330.37 408.724 330.392 408.721 330.411 408.716Z" stroke="#1E1E1E" stroke-width="5"/>
<path d="M128.594 279.173C128.664 279.185 128.766 279.206 128.904 279.249C129.241 279.353 129.678 279.541 130.248 279.838C131.451 280.467 132.732 281.294 134.509 282.333C136.198 283.321 138.161 284.389 140.363 285.245C142.566 286.1 144.735 286.637 146.647 287.048C148.66 287.481 150.164 287.735 151.476 288.083C152.097 288.249 152.546 288.405 152.864 288.555C152.995 288.617 153.085 288.67 153.145 288.708C153.127 288.813 153.084 288.983 152.984 289.241C152.32 290.95 150.583 292.375 147.769 293.009C144.973 293.64 141.39 293.396 137.746 291.981C134.102 290.566 131.295 288.326 129.658 285.974C128.01 283.607 127.69 281.383 128.354 279.673C128.453 279.417 128.536 279.263 128.594 279.173Z" stroke="#1E1E1E" stroke-width="5"/>
</svg>
