<svg width="600" height="600" viewBox="0 0 600 600" fill="none" xmlns="http://www.w3.org/2000/svg">
<path d="M300.022 196.475C246.824 196.475 200.038 189.162 173.05 178.103L193.994 222.531C145.786 248.483 114.234 291.651 114.234 340.519C114.234 419.859 197.404 484.177 300 484.177C402.595 484.177 485.766 419.859 485.766 340.519C485.766 291.609 454.16 248.409 405.882 222.465L426.9 178.141C399.898 189.179 353.158 196.475 300.022 196.475ZM300.022 196.475C383.606 196.475 451.365 178.42 451.365 156.148C451.365 133.877 383.607 115.822 300.022 115.822M300.022 196.475C216.437 196.475 148.678 178.42 148.678 156.148C148.678 133.877 216.437 115.822 300.022 115.822M300.022 115.822C222.71 115.822 160.037 131.347 160.037 150.499C160.037 169.65 222.71 185.175 300.022 185.175C377.334 185.175 440.007 169.65 440.007 150.499C440.007 131.347 377.334 115.822 300.022 115.822Z" stroke="#1E1E1E" stroke-width="5"/>
</svg>
