<svg width="700" height="550" viewBox="0 0 700 550" fill="none" xmlns="http://www.w3.org/2000/svg">
<path fill-rule="evenodd" clip-rule="evenodd" d="M381.211 236.496C380.001 233.996 377.831 234.266 375.181 228.976C372.641 223.636 374.191 222.096 372.981 219.596C372.191 217.996 368.511 216.066 360.341 218.386C355.681 219.706 348.871 221.996 349.071 224.356C349.311 227.296 352.111 226.966 355.461 228.686C358.851 230.446 359.981 231.526 361.891 235.456C363.121 237.986 363.631 239.536 363.641 241.326C364.501 244.356 366.801 250.786 370.191 248.296C373.371 245.946 378.761 240.466 381.461 237.676C381.462 237.269 381.377 236.867 381.211 236.496ZM367.951 228.726C367.348 229.02 366.672 229.129 366.007 229.038C365.343 228.948 364.72 228.663 364.217 228.218C363.715 227.774 363.355 227.191 363.184 226.542C363.013 225.894 363.038 225.209 363.256 224.574C363.474 223.94 363.875 223.385 364.409 222.978C364.942 222.572 365.584 222.333 366.254 222.291C366.923 222.249 367.59 222.407 368.17 222.745C368.75 223.082 369.216 223.583 369.511 224.186C369.905 224.995 369.961 225.927 369.669 226.778C369.377 227.629 368.759 228.329 367.951 228.726L367.951 228.726ZM370.891 238.626C370.589 238.775 370.249 238.83 369.915 238.786C369.581 238.741 369.268 238.599 369.015 238.376C368.762 238.153 368.581 237.86 368.495 237.534C368.409 237.209 368.421 236.865 368.531 236.546C368.64 236.227 368.842 235.948 369.11 235.744C369.378 235.54 369.701 235.421 370.037 235.4C370.373 235.38 370.708 235.46 370.999 235.63C371.29 235.8 371.524 236.053 371.671 236.356C371.864 236.761 371.891 237.226 371.745 237.65C371.599 238.075 371.293 238.425 370.891 238.626H370.891ZM375.421 240.186C375.119 240.331 374.781 240.383 374.45 240.336C374.118 240.289 373.808 240.145 373.558 239.922C373.308 239.699 373.13 239.407 373.046 239.083C372.962 238.759 372.976 238.417 373.086 238.101C373.196 237.785 373.398 237.508 373.665 237.306C373.932 237.104 374.253 236.986 374.587 236.966C374.921 236.946 375.254 237.026 375.543 237.195C375.832 237.364 376.064 237.615 376.211 237.916C376.31 238.117 376.367 238.335 376.381 238.558C376.395 238.781 376.364 239.005 376.29 239.216C376.217 239.427 376.102 239.622 375.953 239.788C375.804 239.955 375.623 240.09 375.421 240.186H375.421Z" fill="black"/>
<path d="M275.505 154.221C276.3 155.569 276.986 156.978 277.556 158.435C278.14 159.907 278.577 161.433 278.859 162.991C278.997 163.802 279.049 164.624 279.013 165.445L278.979 165.997C278.974 166.152 278.981 166.308 279.001 166.463C279.035 166.781 279.114 167.093 279.236 167.389C279.831 168.691 280.848 169.753 282.123 170.403L282.171 170.427C282.238 170.461 282.292 170.516 282.324 170.585C282.356 170.653 282.364 170.729 282.348 170.803C282.242 171.231 282.081 171.643 281.869 172.029C281.664 172.414 281.398 172.762 281.08 173.06C280.767 173.369 280.389 173.604 279.974 173.75C279.566 173.895 279.137 173.973 278.704 173.981L278.947 173.7C279.279 175.817 279.502 177.951 279.614 180.092C279.661 181.185 279.609 182.28 279.46 183.364C279.332 184.531 278.94 185.654 278.314 186.647C277.56 187.62 276.52 188.332 275.342 188.685C274.283 189.041 273.191 189.288 272.083 189.421C269.922 189.665 267.741 189.675 265.578 189.45L266.205 189.077C265.958 189.596 265.76 190.137 265.613 190.692C265.46 191.251 265.386 191.829 265.394 192.409C265.413 192.982 265.545 193.547 265.781 194.069C266.062 194.597 266.454 195.058 266.93 195.421L266.937 195.426C266.952 195.439 266.961 195.456 266.964 195.475C266.967 195.494 266.963 195.514 266.952 195.53C266.941 195.546 266.925 195.558 266.907 195.563C266.888 195.568 266.868 195.566 266.851 195.557C266.252 195.286 265.73 194.871 265.331 194.348C264.935 193.798 264.674 193.162 264.57 192.492C264.471 191.83 264.466 191.157 264.556 190.494C264.634 189.825 264.796 189.169 265.038 188.54C265.08 188.431 265.154 188.337 265.25 188.271C265.347 188.204 265.461 188.168 265.578 188.168H265.665C267.736 188.181 269.805 188.045 271.857 187.761C272.852 187.624 273.834 187.404 274.793 187.104C275.674 186.897 276.471 186.425 277.076 185.751C277.6 184.955 277.958 184.06 278.127 183.122C278.334 182.113 278.477 181.093 278.555 180.066C278.737 177.97 278.706 175.861 278.461 173.772C278.457 173.739 278.459 173.706 278.468 173.674C278.477 173.642 278.492 173.612 278.513 173.586C278.533 173.56 278.558 173.538 278.587 173.522C278.616 173.506 278.648 173.496 278.681 173.492L278.698 173.49L278.704 173.49C279.079 173.496 279.452 173.43 279.803 173.298C280.149 173.167 280.462 172.96 280.718 172.692C280.97 172.418 281.174 172.103 281.322 171.76C281.469 171.422 281.563 171.063 281.601 170.696L281.826 171.096C281.047 170.817 280.321 170.407 279.679 169.884C279.004 169.355 278.444 168.695 278.031 167.943C277.827 167.536 277.686 167.101 277.613 166.652C277.58 166.424 277.566 166.193 277.571 165.962L277.598 165.356C277.636 164.631 277.608 163.904 277.516 163.184C277.018 160.169 276.298 157.195 275.361 154.287C275.358 154.277 275.357 154.266 275.358 154.256C275.358 154.246 275.361 154.235 275.366 154.226C275.371 154.217 275.377 154.209 275.385 154.202C275.393 154.195 275.402 154.19 275.412 154.186C275.429 154.181 275.448 154.182 275.464 154.188C275.481 154.195 275.495 154.206 275.505 154.221Z" fill="black"/>
<path d="M277.141 186.816C274.011 189.376 265.621 188.806 265.621 188.806C260.031 185.596 258.601 179.476 258.291 177.576C257.801 178.466 256.561 178.836 255.811 179.996C253.681 183.266 249.081 185.826 246.851 185.536C241.411 184.836 238.661 176.046 239.031 169.896C239.601 160.506 239.461 155.396 250.831 149.136C252.713 148.077 254.727 147.273 256.821 146.746C255.751 151.066 255.761 157.766 256.141 163.786H256.271C254.688 164.264 253.337 165.308 252.474 166.719C251.611 168.129 251.298 169.808 251.593 171.435C251.888 173.062 252.772 174.523 254.076 175.54C255.379 176.558 257.012 177.06 258.662 176.951C260.311 176.842 261.864 176.129 263.022 174.95C264.181 173.77 264.865 172.205 264.944 170.554C265.023 168.902 264.491 167.279 263.451 165.994C262.41 164.709 260.933 163.852 259.301 163.586C258.871 156.896 259.061 149.626 259.721 146.246C260.141 146.206 260.561 146.186 260.971 146.176C262.303 146.14 263.634 146.251 264.941 146.506C269.425 147.474 273.465 149.897 276.431 153.396C276.431 153.396 274.811 155.186 272.451 157.526C269.828 160.194 267.046 162.702 264.121 165.036C264.121 165.036 267.681 176.016 278.951 176.016C279.221 179.256 279.351 185.016 277.141 186.816Z" fill="black"/>
<path d="M200.02 217.391C200.02 217.391 216.704 195.018 229.787 194.07L277.202 195.883C282.249 196.076 287.126 197.761 291.216 200.724C295.306 203.688 298.425 207.797 300.181 212.533L310.858 241.339C311.336 242.63 312.174 243.757 313.273 244.587C314.372 245.417 315.685 245.915 317.057 246.023C326.39 246.756 347.349 248.201 355.634 247.111C355.634 247.111 357.483 258.061 354.639 261.331L302.593 266.877C302.593 266.877 280.837 216.965 275.575 215.685C275.575 215.685 214.334 214.547 200.02 217.391Z" fill="black"/>
<path d="M200.02 217.47L186.926 217.761C184.78 217.654 182.664 218.302 180.945 219.59C179.255 220.879 178.088 222.735 177.659 224.817C177.496 225.88 177.392 226.952 177.346 228.027C177.246 229.12 177.133 230.21 176.997 231.297C176.726 233.471 176.404 235.635 176.053 237.794C175.339 242.111 174.532 246.41 173.631 250.69C173.612 250.781 173.569 250.865 173.507 250.934L173.499 250.942L164.822 260.463C164.803 260.484 164.783 260.503 164.761 260.521L164.754 260.526C163.418 261.601 162.183 262.796 161.065 264.097C159.936 265.364 158.989 266.781 158.25 268.309C156.832 271.401 156.432 274.865 157.108 278.199L160.526 298.931C161.674 305.841 162.862 312.743 164.09 319.638C165.317 326.533 166.547 333.427 167.891 340.298C169.235 347.169 170.646 354.029 172.311 360.824C173.16 364.215 174.037 367.606 175.196 370.892C175.496 371.708 175.798 372.525 176.159 373.309C176.483 374.088 176.916 374.817 177.445 375.473C177.568 375.604 177.712 375.713 177.87 375.798C178.05 375.863 178.266 375.906 178.462 375.962C178.877 376.068 179.298 376.149 179.722 376.205C180.572 376.362 181.449 376.433 182.311 376.551C189.267 377.263 196.267 377.677 203.261 378.027C210.258 378.375 217.257 378.677 224.258 378.931C238.261 379.414 252.267 379.806 266.276 380.108L287.287 380.521L297.792 380.662L303.041 380.702C304.775 380.692 306.57 380.751 308.211 380.603C311.635 380.067 315.023 379.322 318.356 378.373C321.726 377.466 325.075 376.47 328.406 375.417C335.067 373.311 341.643 370.958 348.132 368.357C354.623 365.81 360.95 362.863 367.076 359.533C370.119 357.876 373.038 356.001 375.811 353.923C378.574 351.955 380.901 349.439 382.647 346.53L382.568 346.792C383.65 337.291 384.522 327.758 385.184 318.193C385.823 308.639 386.231 299.066 386.155 289.496C386.13 284.711 385.928 279.935 385.549 275.167C385.492 273.971 385.299 272.793 385.172 271.606C385.023 270.422 384.909 269.231 384.729 268.053L384.071 264.54C383.951 263.972 383.874 263.328 383.719 262.823C383.546 262.309 383.251 261.845 382.859 261.471C382.467 261.096 381.991 260.822 381.47 260.671C380.925 260.532 380.359 260.493 379.8 260.554L376.206 260.676L369.018 260.921L354.643 261.41C354.622 261.411 354.602 261.403 354.586 261.389C354.571 261.375 354.562 261.355 354.561 261.335C354.56 261.314 354.567 261.294 354.581 261.278C354.595 261.263 354.615 261.253 354.636 261.252L368.998 260.461L376.179 260.065L379.769 259.867C380.403 259.788 381.046 259.825 381.667 259.978C382.304 260.155 382.89 260.484 383.372 260.937C383.855 261.39 384.221 261.952 384.44 262.577C384.64 263.218 384.698 263.773 384.834 264.375L385.54 267.923C385.735 269.111 385.863 270.308 386.028 271.5C386.169 272.695 386.377 273.884 386.447 275.085C386.883 279.874 387.141 284.673 387.22 289.48C387.404 299.088 387.103 308.693 386.57 318.279C386.033 327.867 385.264 337.433 384.159 346.985L384.157 347.003C384.147 347.088 384.121 347.171 384.08 347.247C382.235 350.379 379.755 353.091 376.8 355.209C373.969 357.341 370.987 359.265 367.878 360.967C361.699 364.349 355.311 367.335 348.753 369.906C342.214 372.492 335.588 374.827 328.874 376.909C325.519 377.952 322.146 378.937 318.745 379.833C315.334 380.788 311.867 381.529 308.364 382.054C306.513 382.209 304.797 382.131 303.031 382.135L297.771 382.051L287.26 381.797L266.246 381.157C252.239 380.691 238.235 380.144 224.235 379.517C217.234 379.222 210.234 378.891 203.236 378.525C196.239 378.111 189.239 377.802 182.251 377.108C181.378 376.993 180.505 376.928 179.63 376.773C179.187 376.716 178.746 376.634 178.312 376.525C178.088 376.462 177.87 376.421 177.641 376.338C177.408 376.224 177.198 376.069 177.019 375.881C176.438 375.181 175.963 374.399 175.609 373.561C175.233 372.755 174.922 371.929 174.614 371.103C173.426 367.784 172.476 364.403 171.582 361.01C169.816 354.217 168.301 347.368 166.863 340.506C163.977 326.783 161.494 312.983 159.141 299.165C157.959 292.256 156.877 285.331 155.795 278.406C155.098 274.811 155.554 271.088 157.098 267.768C157.894 266.141 158.912 264.632 160.123 263.284C161.298 261.933 162.594 260.691 163.995 259.577L163.927 259.64L172.693 250.201L172.562 250.453C173.512 246.205 174.373 241.934 175.145 237.64C175.522 235.494 175.872 233.345 176.169 231.19C176.319 230.112 176.445 229.033 176.559 227.954L176.697 226.334C176.732 225.77 176.81 225.209 176.931 224.657C177.441 222.428 178.74 220.458 180.588 219.11C182.426 217.793 184.665 217.157 186.921 217.309L200.019 217.312C200.04 217.312 200.06 217.32 200.075 217.335C200.09 217.349 200.099 217.369 200.099 217.39C200.099 217.411 200.091 217.432 200.076 217.447C200.062 217.462 200.042 217.47 200.021 217.47L200.02 217.47Z" fill="black"/>
<path d="M183.145 224.975L192.459 224.783L201.773 224.673L220.402 224.581L239.03 224.671L248.344 224.782L257.658 224.975L248.344 225.169L239.03 225.279L220.402 225.37L201.773 225.278L192.459 225.167L183.145 224.975Z" fill="black"/>
<path d="M307.902 272.755L316.869 271.632L325.844 270.585L343.803 268.598L361.777 266.748L379.761 264.981C376.782 265.431 373.796 265.832 370.811 266.24L361.844 267.352C355.863 268.074 349.873 268.713 343.887 269.383C337.894 269.987 331.904 270.625 325.907 271.187L316.909 272.014L307.902 272.755Z" fill="black"/>
<path d="M264.294 227.061C266.175 230.142 267.98 233.265 269.773 236.395C271.568 239.524 273.301 242.686 275.068 245.831C276.779 249.005 278.52 252.164 280.203 255.354C281.885 258.545 283.556 261.742 285.15 264.981C283.268 261.9 281.464 258.776 279.67 255.647C277.877 252.517 276.142 249.356 274.376 246.211C272.667 243.035 270.924 239.878 269.243 236.686C267.56 233.496 265.889 230.299 264.294 227.061Z" fill="black"/>
<path d="M264.294 222.51C265.932 221.68 267.635 220.984 269.385 220.429C271.125 219.84 272.91 219.395 274.722 219.098C273.085 219.929 271.382 220.626 269.631 221.179C267.891 221.766 266.106 222.212 264.294 222.51Z" fill="black"/>
<path d="M173.096 250.571C172.991 251.961 172.802 253.335 172.599 254.705C172.405 256.078 172.151 257.439 171.896 258.8C171.622 260.157 171.348 261.513 171.013 262.859C170.685 264.205 170.346 265.549 169.921 266.877C170.024 265.487 170.214 264.113 170.416 262.742C170.611 261.37 170.865 260.009 171.121 258.649C171.395 257.292 171.67 255.935 172.005 254.59C172.332 253.243 172.672 251.899 173.096 250.571Z" fill="black"/>
<path d="M157.386 268.287C159.871 267.553 162.424 267.072 165.006 266.851C166.307 266.73 167.619 266.8 168.901 267.058C169.558 267.194 170.178 267.471 170.719 267.868C171.263 268.293 171.637 268.898 171.775 269.575C172.903 274.648 173.751 279.737 174.67 284.83C176.45 295.019 178.063 305.236 179.627 315.46C181.124 325.693 182.578 335.935 183.777 346.211C184.368 351.349 184.92 356.493 185.34 361.65C185.537 364.23 185.703 366.812 185.789 369.398C185.818 370.692 185.866 371.986 185.816 373.28C185.804 373.927 185.785 374.573 185.71 375.217C185.661 375.862 185.556 376.502 185.396 377.129C185.54 376.499 185.629 375.858 185.662 375.213C185.72 374.57 185.723 373.924 185.719 373.278C185.737 371.988 185.657 370.696 185.596 369.407C185.446 366.828 185.216 364.254 184.955 361.684C184.456 356.542 183.838 351.41 183.174 346.284C181.851 336.033 180.409 325.797 178.847 315.576C177.348 305.347 175.725 295.137 174.073 284.931C173.231 279.837 172.44 274.71 171.404 269.672C171.302 269.066 170.984 268.518 170.509 268.13C170.012 267.749 169.44 267.479 168.831 267.338C167.58 267.055 166.295 266.955 165.016 267.043C162.437 267.2 159.881 267.617 157.386 268.287Z" fill="black"/>
<path d="M302.207 381.413C302.535 381.394 302.724 381.08 302.871 380.826C303.013 380.552 303.131 380.265 303.222 379.969C303.408 379.379 303.561 378.779 303.679 378.172C303.924 376.959 304.1 375.733 304.254 374.505C304.557 372.048 304.764 369.58 304.941 367.111C305.287 362.171 305.498 357.222 305.661 352.273C306.012 342.375 306.17 332.47 306.22 322.565C306.263 312.66 306.209 302.754 305.972 292.854C305.819 287.914 305.744 282.935 305.235 278.053C305.019 275.646 304 273.382 302.342 271.624C301.489 270.793 300.481 270.139 299.375 269.699C298.268 269.259 297.086 269.042 295.895 269.061C293.489 269.114 291.19 270.066 289.449 271.728C287.695 273.394 286.593 275.631 286.341 278.037C285.681 282.93 285.394 287.866 285.48 292.803C285.501 302.718 285.278 312.622 285.191 322.528C285.096 332.432 285.07 342.339 285.395 352.237C285.546 357.185 285.781 362.133 286.287 367.058C286.522 369.521 286.88 371.972 287.36 374.4C287.899 376.784 288.441 379.316 290.076 381.218C288.415 379.335 287.836 376.802 287.265 374.42C286.753 371.994 286.362 369.544 286.095 367.079C285.524 362.153 285.224 357.202 285.009 352.251C284.628 342.345 284.618 332.432 284.666 322.524C284.708 312.616 284.887 302.707 284.822 292.807C284.712 287.834 284.981 282.86 285.624 277.928C285.892 275.358 287.062 272.966 288.928 271.177C290.801 269.373 293.283 268.336 295.884 268.273C297.177 268.258 298.46 268.499 299.66 268.982C300.859 269.465 301.952 270.18 302.874 271.087C304.642 272.968 305.726 275.389 305.951 277.961C306.236 280.455 306.315 282.926 306.421 285.406C306.513 287.884 306.577 290.362 306.628 292.839C306.821 302.75 306.831 312.659 306.744 322.568C306.647 332.477 306.455 342.386 306.045 352.288C305.817 357.238 305.542 362.187 305.132 367.126C304.923 369.594 304.684 372.062 304.349 374.517C304.179 375.745 303.987 376.97 303.726 378.182C303.6 378.789 303.439 379.388 303.245 379.977C303.149 380.272 303.027 380.558 302.881 380.832C302.731 381.085 302.536 381.399 302.207 381.413Z" fill="black"/>
<path d="M287.425 381.413C288.231 385.108 288.985 388.809 289.824 392.492C290.616 396.184 291.431 399.869 292.314 403.536C293.212 407.199 294.084 410.866 295.131 414.474C295.654 416.277 296.19 418.075 296.825 419.822C297.141 420.695 297.485 421.554 297.872 422.372C298.06 422.77 298.271 423.158 298.504 423.532C298.686 423.853 298.924 424.138 299.207 424.375C299.257 424.407 299.291 424.418 299.317 424.437C299.323 424.424 299.332 424.451 299.315 424.435C299.285 424.462 299.341 424.421 299.432 424.343C299.658 424.044 299.837 423.711 299.961 423.357C300.256 422.496 300.494 421.617 300.674 420.725C301.132 418.919 301.433 417.068 301.752 415.224C302.384 411.528 302.714 407.779 303.041 404.031C303.345 400.279 303.522 396.512 303.611 392.741C303.748 388.969 303.75 385.194 303.731 381.413C304.108 385.177 304.26 388.959 304.385 392.743C304.453 396.527 304.41 400.315 304.255 404.105C304.111 407.902 303.77 411.69 303.23 415.451C303.125 416.397 302.914 417.331 302.759 418.271C302.608 419.212 302.396 420.145 302.177 421.077C301.99 422.038 301.737 422.986 301.421 423.913C301.234 424.452 300.955 424.955 300.596 425.399C300.464 425.535 300.319 425.658 300.163 425.766C299.965 425.891 299.742 425.97 299.509 426C299.276 426.029 299.04 426.007 298.817 425.935C298.636 425.867 298.463 425.778 298.303 425.669C297.847 425.314 297.464 424.873 297.178 424.371C296.913 423.942 296.675 423.498 296.462 423.041C296.046 422.149 295.696 421.249 295.374 420.344C294.736 418.533 294.186 416.71 293.694 414.875C292.723 411.201 291.861 407.512 291.132 403.796C290.391 400.084 289.703 396.365 289.068 392.637C288.484 388.9 287.881 385.168 287.425 381.413Z" fill="black"/>
<path d="M196.779 377.129C196.325 380.884 195.721 384.616 195.137 388.353C194.501 392.081 193.813 395.8 193.073 399.512C192.344 403.228 191.482 406.917 190.511 410.59C190.019 412.426 189.469 414.25 188.831 416.06C188.509 416.965 188.159 417.865 187.743 418.757C187.53 419.213 187.292 419.658 187.028 420.087C186.741 420.589 186.358 421.03 185.902 421.385C185.742 421.494 185.569 421.583 185.388 421.651C185.165 421.723 184.929 421.745 184.696 421.715C184.463 421.686 184.24 421.606 184.042 421.481C183.886 421.373 183.741 421.251 183.609 421.115C183.25 420.671 182.971 420.168 182.784 419.629C182.468 418.702 182.215 417.754 182.028 416.793C181.809 415.861 181.597 414.928 181.446 413.987C181.291 413.047 181.08 412.113 180.975 411.167C180.435 407.406 180.094 403.618 179.951 399.821C179.792 396.032 179.749 392.244 179.82 388.458C179.945 384.675 180.097 380.893 180.474 377.129C180.455 380.91 180.457 384.685 180.594 388.457C180.683 392.227 180.86 395.994 181.164 399.747C181.491 403.495 181.821 407.244 182.453 410.94C182.772 412.783 183.073 414.635 183.531 416.441C183.711 417.333 183.949 418.212 184.244 419.072C184.368 419.427 184.547 419.759 184.773 420.059C184.864 420.137 184.92 420.178 184.89 420.151C184.873 420.167 184.882 420.14 184.888 420.153C184.914 420.134 184.948 420.123 184.998 420.091C185.281 419.854 185.519 419.569 185.701 419.248C185.934 418.874 186.145 418.486 186.333 418.088C186.721 417.27 187.064 416.41 187.38 415.537C188.015 413.791 188.551 411.993 189.074 410.19C190.121 406.582 190.993 402.915 191.892 399.252C192.774 395.585 193.589 391.899 194.381 388.208C195.22 384.524 195.974 380.823 196.779 377.129Z" fill="black"/>
<path d="M370.795 358.321L372.639 366.284C373.235 368.939 373.845 371.59 374.511 374.223C375.196 376.849 375.834 379.491 376.665 382.045C377.027 383.291 377.514 384.496 378.119 385.643C378.185 385.747 378.259 385.846 378.34 385.94C378.404 386.021 378.468 386.031 378.373 385.999C378.299 385.983 378.221 385.988 378.15 386.014C378.098 386.024 378.066 386.067 378.076 386.05C378.124 385.983 378.166 385.911 378.199 385.835C378.416 385.263 378.567 384.669 378.65 384.063C378.874 382.773 378.983 381.432 379.091 380.075C379.206 378.723 379.309 377.37 379.401 376.016C379.625 373.311 379.726 370.599 379.878 367.889C380.006 365.177 380.06 362.463 380.041 359.747C380.066 357.029 379.986 354.312 379.761 351.595C380.717 356.98 381.163 362.443 381.093 367.912C381.12 370.646 381.025 373.378 380.894 376.107C380.835 377.473 380.729 378.835 380.63 380.197C380.533 381.555 380.439 382.934 380.206 384.329C380.097 385.072 379.898 385.8 379.613 386.495C379.508 386.73 379.365 386.947 379.19 387.136C379.054 387.279 378.889 387.39 378.706 387.464C378.475 387.554 378.222 387.567 377.983 387.501C377.676 387.408 377.402 387.228 377.196 386.981C377.054 386.818 376.924 386.643 376.81 386.459C376.138 385.199 375.611 383.866 375.24 382.487C374.475 379.833 373.848 377.173 373.331 374.488C372.805 371.807 372.323 369.121 371.883 366.43C371.494 363.729 371.077 361.035 370.795 358.321Z" fill="black"/>
<path d="M270.598 163.924C271.461 163.331 272.469 162.985 273.514 162.922C274.045 162.879 274.58 162.929 275.094 163.071C275.62 163.203 276.088 163.502 276.429 163.924C275.962 163.779 275.477 163.696 274.988 163.678C274.514 163.658 274.04 163.669 273.567 163.709C272.607 163.762 271.645 163.905 270.598 163.924Z" fill="black"/>
<path d="M275.007 168.095C275.314 168.084 275.605 167.955 275.818 167.734C276.032 167.513 276.151 167.217 276.151 166.91C276.151 166.603 276.032 166.307 275.818 166.086C275.605 165.865 275.314 165.736 275.007 165.725C274.699 165.736 274.408 165.865 274.195 166.086C273.982 166.307 273.862 166.603 273.862 166.91C273.862 167.217 273.982 167.513 274.195 167.734C274.408 167.955 274.699 168.084 275.007 168.095Z" fill="black"/>
<path d="M245.892 180.851C246.025 182.122 246.062 183.402 246.005 184.679C245.962 185.96 245.829 187.236 245.609 188.499C245.399 189.779 245.024 191.027 244.493 192.211C244.219 192.816 243.847 193.37 243.391 193.853C243.162 194.095 242.88 194.281 242.568 194.397C242.255 194.513 241.92 194.555 241.589 194.522C241.892 194.484 242.185 194.381 242.446 194.222C242.707 194.062 242.931 193.848 243.103 193.594C243.465 193.103 243.745 192.556 243.933 191.975C244.329 190.796 244.629 189.586 244.832 188.359C245.061 187.127 245.222 185.878 245.402 184.627L245.892 180.851Z" fill="black"/>
<path d="M381.461 237.676C381.669 237.371 381.98 237.151 382.337 237.057C382.694 236.962 383.073 236.999 383.405 237.161C383.756 237.33 384.036 237.618 384.192 237.975C384.322 238.327 384.388 238.699 384.385 239.074C384.383 240.546 383.904 241.978 383.019 243.154L382.947 242.669C383.503 243.096 383.957 243.644 384.274 244.27C384.591 244.893 384.771 245.576 384.801 246.274C384.815 246.963 384.705 247.65 384.478 248.301C384.369 248.623 384.214 248.923 384.083 249.234L383.584 250.103L383.618 249.776C383.884 250.543 384.06 251.338 384.143 252.145C384.279 252.993 384.126 253.862 383.711 254.613L383.756 254.446C383.736 255.016 383.653 255.582 383.508 256.134C383.369 256.679 383.17 257.207 382.914 257.708C382.407 258.702 381.651 259.549 380.721 260.166C381.126 259.804 381.491 259.399 381.81 258.959C382.124 258.525 382.382 258.052 382.575 257.552C382.984 256.575 383.186 255.524 383.166 254.466C383.165 254.416 383.176 254.365 383.2 254.321L383.211 254.299C383.493 253.643 383.579 252.92 383.457 252.217C383.363 251.472 383.185 250.74 382.925 250.036C382.907 249.986 382.899 249.932 382.903 249.879C382.907 249.826 382.922 249.774 382.948 249.727L382.958 249.709L383.401 248.898C383.511 248.614 383.649 248.338 383.739 248.05C383.929 247.484 384.031 246.892 384.042 246.295C384.028 245.705 383.888 245.125 383.632 244.593C383.377 244.064 383.009 243.596 382.556 243.223L382.536 243.208C382.467 243.152 382.423 243.072 382.413 242.984C382.403 242.896 382.428 242.807 382.483 242.738C383.338 241.696 383.849 240.415 383.947 239.071C383.966 238.746 383.936 238.42 383.859 238.103C383.761 237.801 383.558 237.545 383.288 237.38C382.996 237.21 382.654 237.146 382.321 237.2C381.988 237.254 381.684 237.422 381.461 237.676Z" fill="black"/>
<path d="M356.031 250.286C357.037 249.854 357.903 249.15 358.532 248.254C358.823 247.822 359.032 247.341 359.15 246.833C359.211 246.581 359.252 246.325 359.271 246.066C359.309 245.798 359.329 245.489 359.38 245.206C359.574 244.053 359.993 242.95 360.614 241.96C360.921 241.465 361.283 241.005 361.693 240.591C361.899 240.378 362.127 240.188 362.373 240.024C362.627 239.824 362.938 239.709 363.261 239.696L363.274 239.696C363.309 239.697 363.342 239.71 363.369 239.733C363.395 239.756 363.412 239.787 363.418 239.822C363.494 240.32 363.584 240.817 363.641 241.326C363.445 240.856 363.281 240.373 363.105 239.891L363.261 240.016C362.795 240.22 362.396 240.55 362.109 240.969C361.776 241.392 361.479 241.843 361.222 242.316C360.711 243.263 360.347 244.283 360.143 245.339C360.09 245.606 360.07 245.857 360.026 246.143C359.989 246.441 359.926 246.736 359.836 247.023C359.67 247.603 359.382 248.141 358.993 248.601C358.233 249.492 357.185 250.088 356.031 250.286Z" fill="black"/>
<path d="M372.272 251.33C372.631 251.626 372.958 251.96 373.248 252.324C373.509 252.668 373.819 252.971 374.168 253.226C374.043 253.299 373.904 253.345 373.76 253.36C373.616 253.374 373.471 253.357 373.334 253.31C373.066 253.216 372.828 253.051 372.645 252.834C372.468 252.63 372.342 252.388 372.277 252.127C372.212 251.865 372.21 251.592 372.272 251.33Z" fill="black"/>
<path d="M375.779 255.027C376.113 255.498 376.308 255.872 376.536 256.229C376.747 256.599 376.978 256.903 377.296 257.397C377.009 257.424 376.721 257.366 376.466 257.232C376.211 257.097 376.001 256.891 375.861 256.639C375.707 256.401 375.619 256.127 375.605 255.844C375.59 255.561 375.651 255.279 375.779 255.027Z" fill="black"/>
<path d="M375.211 250.856L382.793 242.336C382.863 242.258 382.961 242.211 383.065 242.205C383.17 242.199 383.272 242.235 383.35 242.304C383.428 242.374 383.476 242.471 383.482 242.576C383.488 242.68 383.453 242.783 383.384 242.861L383.365 242.881L375.211 250.856Z" fill="black"/>
<path d="M379.145 253.226L383.021 249.6C383.098 249.528 383.2 249.49 383.305 249.493C383.41 249.497 383.509 249.542 383.581 249.619C383.653 249.695 383.691 249.797 383.687 249.902C383.684 250.007 383.639 250.107 383.562 250.179C383.548 250.192 383.532 250.204 383.516 250.216L379.145 253.226Z" fill="black"/>
<path d="M380.804 256.212C381.061 255.719 381.443 255.303 381.913 255.005C382.37 254.688 382.904 254.499 383.458 254.458C383.203 254.952 382.82 255.369 382.349 255.664C381.891 255.98 381.358 256.169 380.804 256.212Z" fill="black"/>
<path d="M383.738 253.219C383.784 253.036 383.951 253.06 384.044 253.074L384.282 253.186C384.428 253.273 384.55 253.377 384.687 253.473C384.94 253.68 385.173 253.903 385.414 254.122C385.863 254.584 386.313 255.048 386.73 255.536C387.592 256.494 388.396 257.495 389.206 258.492C390.802 260.503 392.329 262.565 393.838 264.638C396.885 268.766 399.71 273.043 402.586 277.284C404.018 279.408 405.403 281.564 406.778 283.725C408.162 285.88 409.521 288.052 410.854 290.239C413.548 294.594 416.156 299.004 418.913 303.319C421.611 307.672 424.43 311.946 427.186 316.266C428.58 318.416 429.948 320.586 431.288 322.777C431.927 323.896 432.615 324.98 433.192 326.149C433.507 326.722 433.791 327.311 434.043 327.914C434.171 328.219 434.311 328.517 434.428 328.828L434.717 329.806C434.814 330.142 434.876 330.488 434.901 330.838C434.928 331.014 434.944 331.191 434.95 331.37L434.905 331.919C434.88 332.285 434.802 332.644 434.672 332.987C434.566 333.322 434.428 333.647 434.259 333.955C433.645 335.159 432.846 336.259 431.891 337.215C430.018 339.019 428.013 340.68 425.893 342.185C421.726 345.227 417.419 348.02 412.977 350.63L413.368 349.768C413.698 351.592 413.964 353.401 414.149 355.246C414.233 356.17 414.312 357.094 414.314 358.045C414.322 358.531 414.301 359.017 414.251 359.5C414.213 360.071 414.059 360.628 413.798 361.137C413.655 361.351 413.455 361.521 413.221 361.628C413.083 361.696 412.941 361.754 412.795 361.8C412.551 361.877 412.302 361.94 412.051 361.989C411.571 362.086 411.106 362.151 410.641 362.209C409.714 362.319 408.796 362.392 407.879 362.45C406.045 362.566 404.219 362.628 402.393 362.671C398.742 362.771 395.094 362.715 391.449 362.671C387.803 362.627 384.16 362.47 380.518 362.325C380.508 362.325 380.498 362.322 380.488 362.318C380.479 362.313 380.47 362.307 380.463 362.3C380.456 362.292 380.451 362.283 380.447 362.273C380.444 362.263 380.442 362.253 380.442 362.243C380.444 362.223 380.452 362.204 380.467 362.19C380.481 362.176 380.5 362.168 380.52 362.167L391.442 361.848C395.081 361.748 398.717 361.576 402.346 361.408C404.159 361.315 405.971 361.204 407.769 361.04C408.668 360.958 409.564 360.862 410.442 360.732C410.879 360.666 411.315 360.592 411.725 360.497C411.919 360.453 412.111 360.399 412.3 360.335C412.37 360.311 412.439 360.282 412.505 360.247C412.573 360.227 412.546 360.184 412.46 360.324C412.579 360.005 412.652 359.671 412.675 359.331C412.715 358.908 412.731 358.484 412.721 358.059C412.715 357.188 412.634 356.295 412.548 355.407C412.359 353.63 412.085 351.834 411.756 350.076C411.725 349.911 411.745 349.741 411.813 349.588C411.881 349.435 411.994 349.307 412.137 349.219L412.146 349.214C416.496 346.574 420.836 343.863 424.991 340.938C427.071 339.509 429.042 337.929 430.888 336.211C431.771 335.379 432.515 334.412 433.093 333.346C433.383 332.86 433.571 332.32 433.647 331.76C433.724 331.199 433.686 330.629 433.538 330.084C432.787 327.692 431.767 325.393 430.495 323.232C429.259 321.001 427.96 318.797 426.648 316.601C423.986 312.231 421.249 307.905 418.437 303.624C415.661 299.322 412.734 295.117 409.896 290.854C408.455 288.737 407.037 286.607 405.643 284.461C404.247 282.317 402.801 280.206 401.435 278.042L397.239 271.618L392.991 265.23C391.58 263.097 390.122 260.998 388.65 258.911C387.91 257.871 387.174 256.824 386.385 255.824C386.004 255.311 385.587 254.833 385.181 254.343C384.967 254.112 384.755 253.873 384.531 253.655C384.413 253.557 384.299 253.442 384.178 253.355L383.99 253.244L383.896 253.232C383.895 253.242 383.892 253.253 383.887 253.262C383.882 253.271 383.876 253.279 383.868 253.286C383.86 253.293 383.851 253.298 383.841 253.301C383.831 253.304 383.821 253.305 383.81 253.304C383.8 253.303 383.79 253.3 383.781 253.296C383.771 253.291 383.763 253.284 383.757 253.276C383.75 253.269 383.745 253.259 383.742 253.249C383.738 253.24 383.737 253.229 383.738 253.219L383.738 253.219Z" fill="black"/>
<path d="M384.917 331.328C389.056 337.134 392.781 343.18 396.405 349.286L399.071 353.897L399.703 355.02C399.656 354.938 399.584 354.873 399.497 354.835C399.394 354.801 399.45 354.811 399.416 354.801C399.381 354.794 399.362 354.804 399.409 354.798C399.481 354.798 399.553 354.791 399.624 354.777C399.818 354.745 400.01 354.701 400.199 354.647C401.004 354.423 401.837 354.122 402.661 353.824C405.951 352.57 409.243 351.216 412.562 349.922C409.523 351.793 406.372 353.478 403.128 354.965C402.302 355.351 401.454 355.689 400.589 355.976C400.354 356.053 400.115 356.117 399.873 356.167C399.727 356.2 399.578 356.219 399.428 356.224C399.315 356.233 399.201 356.223 399.091 356.197C399.007 356.186 398.927 356.159 398.853 356.12C398.722 356.048 398.606 355.951 398.514 355.833L397.788 354.667L395.049 350.096C391.467 343.961 387.985 337.764 384.917 331.328Z" fill="black"/>
<path d="M395.621 392.986C397.035 394.278 398.107 395.899 398.741 397.706C395.121 398.836 381.581 399.236 380.521 391.636C380.246 389.388 380.246 387.114 380.521 384.866C382.351 385.536 384.131 386.276 385.901 387.046C387.657 387.812 389.37 388.673 391.031 389.626C392.687 390.564 394.227 391.692 395.621 392.986Z" fill="black"/>
<path d="M446.511 390.076H446.501C445.731 390.306 444.971 390.456 444.211 390.676C443.471 390.926 442.711 391.096 441.991 391.386C439.063 392.361 436.391 393.981 434.171 396.126C433.053 397.213 432.094 398.452 431.321 399.806C435.771 400.016 439.781 399.826 441.761 398.836C445.541 396.946 454.251 394.096 446.511 390.076ZM437.291 392.466C438.69 391.653 440.194 391.037 441.761 390.636C442.54 390.447 443.328 390.297 444.121 390.186C444.921 390.136 445.701 390.086 446.501 390.076C443.465 388.646 440.288 387.537 437.021 386.766C415.031 380.956 404.401 361.956 404.401 361.956H381.851C382.661 372.016 381.091 378.956 380.521 384.866C382.452 385.174 384.35 385.66 386.191 386.316C388.041 386.97 389.829 387.79 391.531 388.766C393.26 389.748 394.828 390.989 396.181 392.446C397.561 393.891 398.456 395.729 398.741 397.706C402.361 396.566 410.591 397.166 415.971 398.076C421.05 398.951 426.175 399.528 431.321 399.806C431.764 398.256 432.542 396.822 433.601 395.606C434.656 394.369 435.901 393.309 437.291 392.466ZM383.931 373.056C383.577 371.502 383.409 369.91 383.431 368.316C383.414 366.722 383.582 365.132 383.931 363.576C384.285 365.131 384.453 366.722 384.431 368.316C384.458 369.911 384.29 371.502 383.931 373.056ZM386.731 374.936C386.064 371.811 386.064 368.581 386.731 365.456C387.398 368.581 387.398 371.811 386.731 374.936ZM389.631 373.926C389.272 372.372 389.104 370.781 389.131 369.186C389.109 367.592 389.277 366.001 389.631 364.446C390.298 367.571 390.298 370.801 389.631 373.926ZM393.321 374.936C392.655 371.811 392.655 368.581 393.321 365.456C393.988 368.581 393.988 371.811 393.321 374.936ZM396.301 373.056C395.634 369.931 395.634 366.701 396.301 363.576C396.968 366.701 396.968 369.931 396.301 373.056ZM400.001 373.926C399.642 372.372 399.474 370.781 399.501 369.186C399.484 367.592 399.652 366.001 400.001 364.446C400.35 366.001 400.518 367.592 400.501 369.186C400.523 370.78 400.355 372.371 400.001 373.926V373.926ZM403.551 373.926C402.898 370.8 402.898 367.572 403.551 364.446C404.218 367.571 404.218 370.801 403.551 373.926Z" fill="black"/>
<path d="M440.981 366.296C439.157 366.058 437.312 366.024 435.481 366.196C433.635 366.364 431.799 366.631 429.981 366.996C428.151 367.376 426.341 367.776 424.511 368.266C425.543 370.198 426.806 371.998 428.271 373.626C433.341 379.056 443.851 371.206 446.081 368.286C444.569 367.216 442.818 366.533 440.981 366.296ZM479.681 335.656C479.211 336.276 478.681 336.816 478.211 337.406C477.761 338.026 477.251 338.586 476.841 339.216C476.41 339.825 476.009 340.456 475.641 341.106C475.26 341.742 474.916 342.4 474.611 343.076C474.017 344.437 473.574 345.859 473.291 347.316C473.007 348.798 472.933 350.313 473.071 351.816C472.548 350.343 472.36 348.771 472.521 347.216C472.668 345.649 473.066 344.116 473.701 342.676C474.356 341.251 475.208 339.924 476.231 338.736C476.738 338.151 477.279 337.597 477.851 337.076C478.451 336.586 479.061 336.106 479.681 335.656C476.482 336.219 473.348 337.111 470.331 338.316C449.671 345.956 430.671 336.816 430.671 336.816L412.801 349.366C419.051 356.896 421.671 363.256 424.501 368.266H424.511C426.205 367.422 427.976 366.746 429.801 366.246C431.631 365.724 433.506 365.375 435.401 365.206C437.317 365.021 439.249 365.132 441.131 365.536C443.028 365.912 444.759 366.874 446.081 368.286C448.321 365.376 455.171 361.266 459.951 358.996C466.001 356.116 478.541 349.446 480.801 345.246C482.741 341.646 488.061 334.536 479.681 335.656V335.656ZM417.581 353.536C416.679 352.28 415.93 350.92 415.351 349.486C416.506 350.513 417.531 351.678 418.401 352.956C419.311 354.207 420.06 355.568 420.631 357.006C419.481 355.973 418.458 354.809 417.581 353.536ZM420.851 353.466C419.947 352.211 419.198 350.851 418.621 349.416C419.771 350.448 420.795 351.613 421.671 352.886C422.573 354.139 423.322 355.495 423.901 356.926C422.744 355.905 421.719 354.742 420.851 353.466ZM422.581 351.056C421.681 349.798 420.933 348.439 420.351 347.006C421.504 348.036 422.528 349.201 423.401 350.476C424.307 351.726 425.056 353.083 425.631 354.516C424.477 353.492 423.452 352.33 422.581 351.056ZM426.061 349.796C425.159 348.545 424.413 347.188 423.841 345.756C426.118 347.851 427.915 350.412 429.111 353.266C427.959 352.236 426.935 351.071 426.061 349.796H426.061ZM427.391 346.646C426.482 345.398 425.732 344.041 425.161 342.606C427.438 344.701 429.236 347.263 430.431 350.116C429.28 349.088 428.258 347.923 427.391 346.646L427.391 346.646ZM430.801 345.276C429.895 344.026 429.146 342.669 428.571 341.236C430.855 343.327 432.657 345.889 433.851 348.746C432.691 347.723 431.666 346.557 430.801 345.276L430.801 345.276ZM433.621 343.296C432.712 342.048 431.962 340.691 431.391 339.256C432.54 340.286 433.561 341.451 434.431 342.726C435.341 343.974 436.09 345.331 436.661 346.766C435.507 345.741 434.486 344.575 433.621 343.296H433.621Z" fill="black"/>
<path d="M258.211 177.381C256.535 177.383 254.913 176.795 253.627 175.721C252.341 174.646 251.474 173.154 251.178 171.504C250.882 169.855 251.176 168.154 252.009 166.7C252.841 165.246 254.159 164.131 255.731 163.551C255.412 158.349 255.288 151.292 256.438 146.652C256.45 146.602 256.472 146.554 256.503 146.513C256.534 146.471 256.572 146.436 256.617 146.409C256.661 146.382 256.711 146.364 256.762 146.356C256.813 146.349 256.865 146.351 256.916 146.364C256.966 146.376 257.013 146.398 257.055 146.429C257.097 146.46 257.132 146.498 257.159 146.543C257.186 146.587 257.204 146.636 257.211 146.688C257.219 146.739 257.217 146.791 257.204 146.842C256.081 151.379 256.204 158.336 256.518 163.478C256.574 163.523 256.617 163.583 256.642 163.651C256.666 163.718 256.672 163.792 256.659 163.862C256.645 163.933 256.612 163.999 256.564 164.052C256.515 164.106 256.453 164.145 256.384 164.166C254.894 164.616 253.623 165.599 252.812 166.927C252 168.255 251.706 169.835 251.985 171.366C252.264 172.897 253.096 174.272 254.323 175.229C255.55 176.186 257.087 176.657 258.639 176.554C260.192 176.451 261.652 175.78 262.742 174.67C263.832 173.559 264.475 172.086 264.549 170.532C264.623 168.977 264.122 167.45 263.143 166.241C262.163 165.032 260.772 164.226 259.236 163.976C259.148 163.962 259.068 163.918 259.008 163.852C258.948 163.786 258.913 163.701 258.907 163.612C258.48 156.961 258.659 149.626 259.333 146.172C259.343 146.121 259.363 146.072 259.391 146.029C259.42 145.986 259.457 145.948 259.5 145.919C259.543 145.89 259.591 145.87 259.642 145.86C259.693 145.849 259.745 145.849 259.796 145.859C259.847 145.869 259.896 145.888 259.939 145.917C259.982 145.946 260.019 145.983 260.048 146.026C260.077 146.069 260.098 146.117 260.108 146.168C260.118 146.219 260.118 146.271 260.109 146.322C259.456 149.667 259.277 156.746 259.676 163.256C261.403 163.619 262.935 164.609 263.975 166.035C265.015 167.461 265.49 169.222 265.308 170.978C265.126 172.734 264.3 174.36 262.989 175.542C261.679 176.725 259.976 177.38 258.211 177.381H258.211Z" fill="black"/>
<path d="M256.821 147.142C256.789 147.142 256.757 147.138 256.726 147.131C256.625 147.105 256.537 147.041 256.483 146.951C256.429 146.861 256.413 146.754 256.438 146.652C257.052 144.158 257.945 142.657 259.168 142.061C261.947 140.716 264.098 144.328 265.017 145.873C265.112 146.032 265.192 146.167 265.256 146.265C265.314 146.336 265.346 146.425 265.346 146.516C265.346 146.621 265.305 146.721 265.231 146.795C265.157 146.869 265.056 146.911 264.951 146.911H261.151C261.084 146.911 261.019 146.894 260.96 146.862C260.902 146.83 260.853 146.784 260.817 146.727C260.729 146.599 260.657 146.461 260.601 146.316C260.557 146.209 260.525 146.131 260.461 145.988C260.447 145.959 260.425 145.935 260.397 145.919C260.369 145.903 260.337 145.896 260.305 145.899C260.271 145.902 260.239 145.915 260.214 145.938C260.188 145.961 260.172 145.992 260.166 146.025L260.11 146.317C260.09 146.42 260.031 146.51 259.945 146.57C259.859 146.63 259.753 146.653 259.651 146.636C259.599 146.626 259.551 146.607 259.507 146.579C259.463 146.551 259.426 146.515 259.396 146.472C259.367 146.429 259.346 146.381 259.335 146.331C259.324 146.28 259.323 146.228 259.332 146.177L259.388 145.885C259.424 145.686 259.523 145.505 259.669 145.367C259.816 145.228 260.002 145.14 260.202 145.116C260.402 145.091 260.605 145.13 260.781 145.229C260.956 145.327 261.096 145.479 261.18 145.662C261.251 145.818 261.286 145.904 261.312 145.969C261.337 146.031 261.356 146.076 261.378 146.122H264.246C263.393 144.693 261.565 141.776 259.513 142.772C258.529 143.251 257.752 144.62 257.204 146.842C257.183 146.927 257.134 147.003 257.065 147.058C256.995 147.112 256.91 147.142 256.821 147.142Z" fill="black"/>
<path d="M393.317 126.378V219.098H510.677V126.378H393.317ZM504.737 212.558H399.257V132.928H504.737V212.558Z" fill="black"/>
<path d="M410.147 140.887L410.311 154.823L410.097 154.608L429.721 154.462L429.36 154.823L429.319 143.163C429.319 143.11 429.329 143.058 429.349 143.009C429.369 142.961 429.398 142.916 429.435 142.879C429.472 142.842 429.516 142.812 429.565 142.792C429.613 142.771 429.665 142.761 429.718 142.761H429.721L443.088 142.723C443.204 142.722 443.316 142.768 443.398 142.85C443.481 142.932 443.527 143.044 443.528 143.16V143.163L443.499 163.355C443.5 163.409 443.489 163.462 443.469 163.512C443.449 163.561 443.419 163.607 443.382 163.645C443.344 163.683 443.299 163.713 443.25 163.734C443.2 163.755 443.147 163.766 443.093 163.767H443.088L421.473 163.608L421.726 163.355L421.666 172.74L421.473 172.547L437.115 172.585C437.156 172.586 437.194 172.602 437.223 172.63C437.252 172.658 437.269 172.696 437.27 172.737L437.601 184.396L437.4 184.199L450.197 184.148C450.264 184.149 450.328 184.175 450.376 184.223C450.423 184.27 450.45 184.334 450.45 184.401L450.508 196.345C450.509 196.386 450.501 196.426 450.486 196.464C450.47 196.502 450.448 196.536 450.419 196.565C450.39 196.594 450.356 196.617 450.319 196.632C450.281 196.648 450.241 196.656 450.201 196.656H450.197L410.097 196.836C409.968 196.837 409.843 196.786 409.751 196.695C409.659 196.603 409.607 196.479 409.606 196.35V196.345C409.567 186.012 409.558 175.679 409.581 165.346C409.582 165.209 409.636 165.078 409.733 164.981C409.829 164.885 409.96 164.83 410.097 164.83L415.785 164.836C415.852 164.836 415.918 164.849 415.98 164.875C416.042 164.9 416.098 164.938 416.146 164.985C416.193 165.033 416.231 165.089 416.256 165.151C416.282 165.213 416.295 165.279 416.295 165.346C416.302 173.309 416.253 181.272 416.202 189.235L415.785 188.819L426.592 188.883L426.24 189.235L426.295 179.85C426.296 179.772 426.327 179.696 426.383 179.641C426.438 179.585 426.514 179.554 426.592 179.553L432.849 179.59C432.917 179.59 432.983 179.616 433.032 179.664C433.081 179.712 433.109 179.778 433.109 179.846V179.85L433.019 190.657L432.849 190.488L443.656 190.608C443.67 190.608 443.682 190.613 443.692 190.622C443.701 190.632 443.706 190.644 443.706 190.658C443.706 190.671 443.701 190.684 443.692 190.693C443.682 190.702 443.67 190.708 443.656 190.708L432.849 190.827C432.827 190.827 432.805 190.823 432.785 190.815C432.764 190.807 432.746 190.795 432.73 190.779C432.714 190.764 432.702 190.746 432.693 190.725C432.684 190.705 432.68 190.683 432.68 190.661V190.657L432.589 179.85L432.849 180.11L426.592 180.147L426.889 179.85L426.945 189.235C426.945 189.329 426.907 189.418 426.841 189.484C426.775 189.551 426.686 189.588 426.592 189.588L415.785 189.652C415.731 189.653 415.677 189.642 415.627 189.622C415.576 189.601 415.53 189.571 415.492 189.533C415.453 189.494 415.422 189.449 415.401 189.399C415.38 189.349 415.369 189.295 415.368 189.24V189.235C415.317 181.272 415.268 173.309 415.275 165.346L415.785 165.856L410.097 165.862L410.613 165.346C410.636 175.679 410.627 186.012 410.588 196.346L410.097 195.855L450.197 196.035L449.887 196.346L449.945 184.401L450.197 184.653L437.4 184.602C437.347 184.602 437.297 184.581 437.259 184.545C437.222 184.508 437.2 184.458 437.198 184.406L436.96 172.744L437.115 172.895L421.473 172.933C421.422 172.933 421.373 172.913 421.337 172.877C421.301 172.841 421.28 172.791 421.28 172.74L421.22 163.355C421.22 163.288 421.247 163.224 421.294 163.176C421.342 163.129 421.406 163.102 421.473 163.102L443.088 162.943L442.676 163.355L442.648 143.163L443.088 143.603L429.721 143.564L430.123 143.163L430.082 154.823C430.083 154.918 430.046 155.01 429.979 155.077C429.912 155.145 429.821 155.184 429.726 155.184H429.721L410.097 155.038C410.041 155.038 409.987 155.017 409.946 154.977C409.906 154.938 409.883 154.884 409.882 154.828L409.883 154.823L410.047 140.887C410.047 140.874 410.052 140.861 410.062 140.852C410.071 140.843 410.084 140.837 410.097 140.837C410.11 140.837 410.123 140.843 410.132 140.852C410.142 140.861 410.147 140.874 410.147 140.887L410.147 140.887Z" fill="black"/>
<path d="M419.432 149.562C419.34 147.618 419.269 145.675 419.221 143.731C419.182 141.788 419.117 139.845 419.099 137.901C419.099 137.851 419.108 137.802 419.127 137.756C419.145 137.709 419.173 137.667 419.208 137.632C419.243 137.596 419.284 137.568 419.33 137.548C419.376 137.529 419.425 137.519 419.475 137.518H419.482L426.948 137.454C429.436 137.473 431.925 137.48 434.413 137.557C436.902 137.606 439.39 137.704 441.879 137.717C444.367 137.757 446.856 137.749 449.344 137.721C449.391 137.721 449.437 137.739 449.47 137.772C449.504 137.804 449.523 137.849 449.524 137.896V137.901L449.798 153.046L449.864 160.617C449.888 163.142 449.856 165.666 449.855 168.19C449.855 168.257 449.842 168.323 449.816 168.385C449.791 168.447 449.753 168.503 449.706 168.551C449.658 168.598 449.602 168.636 449.54 168.661C449.478 168.687 449.412 168.7 449.344 168.7C445.695 168.709 442.045 168.615 438.395 168.569C434.745 168.489 431.095 168.388 427.446 168.24C427.433 168.239 427.42 168.234 427.412 168.224C427.403 168.215 427.398 168.203 427.398 168.19C427.398 168.177 427.403 168.164 427.412 168.155C427.42 168.146 427.433 168.14 427.446 168.14C431.095 167.991 434.745 167.891 438.395 167.811C442.045 167.764 445.695 167.67 449.344 167.679L448.834 168.19C448.833 165.666 448.801 163.142 448.825 160.617L448.891 153.046L449.165 137.901L449.345 138.081C446.856 138.053 444.367 138.045 441.879 138.085C439.39 138.098 436.902 138.197 434.413 138.245C431.925 138.322 429.437 138.329 426.948 138.348L419.482 138.284L419.865 137.901C419.847 139.845 419.783 141.788 419.744 143.731C419.694 145.675 419.624 147.618 419.532 149.561C419.532 149.574 419.526 149.586 419.517 149.595C419.508 149.604 419.495 149.609 419.482 149.609C419.47 149.609 419.457 149.604 419.448 149.595C419.439 149.586 419.433 149.574 419.432 149.561L419.432 149.562Z" fill="black"/>
<path d="M410.097 159.374C412.242 159.246 414.387 159.139 416.532 159.083C418.676 159.03 420.821 158.943 422.966 158.926C427.256 158.86 431.546 158.858 435.835 158.922L435.383 159.373C435.402 157.193 435.484 155.013 435.54 152.832C435.593 150.652 435.707 148.471 435.835 146.291C435.964 148.471 436.077 150.652 436.13 152.832C436.187 155.013 436.269 157.193 436.287 159.373C436.288 159.492 436.242 159.606 436.16 159.69C436.077 159.775 435.964 159.824 435.846 159.825L435.835 159.825C431.546 159.887 427.256 159.885 422.966 159.821C420.821 159.804 418.676 159.717 416.532 159.664C414.387 159.608 412.242 159.501 410.097 159.374Z" fill="black"/>
<path d="M421.047 185.538C420.694 183.999 420.526 182.424 420.547 180.845C420.524 179.267 420.692 177.691 421.047 176.153C421.401 177.691 421.569 179.267 421.546 180.845C421.567 182.424 421.399 183.999 421.047 185.538Z" fill="black"/>
<path d="M412.657 137.951L404.694 138.121L404.914 137.901C404.985 143.222 405.079 148.543 405.09 153.863C405.114 159.184 405.164 164.505 405.12 169.825C405.115 175.146 405 180.466 404.941 185.787C404.868 191.108 404.84 196.428 404.856 201.749L404.694 201.586C412.578 201.581 420.462 201.437 428.347 201.376C436.231 201.275 444.115 201.267 451.999 201.222C452.068 201.222 452.136 201.235 452.2 201.261C452.264 201.287 452.322 201.325 452.371 201.374C452.42 201.422 452.459 201.48 452.485 201.543C452.512 201.607 452.526 201.675 452.526 201.743V201.749L452.523 206.868C452.524 207.007 452.469 207.14 452.371 207.238C452.273 207.336 452.14 207.392 452.001 207.392H451.999L440.173 207.37L428.347 207.254L416.52 207.127C412.578 207.103 408.636 206.986 404.694 206.918C404.68 206.918 404.668 206.913 404.658 206.904C404.649 206.894 404.644 206.882 404.644 206.868C404.644 206.855 404.649 206.842 404.658 206.833C404.668 206.824 404.68 206.818 404.694 206.818C408.636 206.751 412.578 206.634 416.52 206.61L428.347 206.483L440.173 206.366L451.999 206.345L451.476 206.868L451.473 201.749L451.999 202.276C444.115 202.232 436.231 202.224 428.347 202.123C420.462 202.061 412.578 201.917 404.694 201.912C404.651 201.912 404.609 201.895 404.579 201.865C404.548 201.835 404.531 201.793 404.531 201.75V201.749C404.549 196.428 404.521 191.108 404.446 185.787C404.387 180.467 404.272 175.146 404.267 169.825C404.223 164.505 404.273 159.184 404.297 153.863C404.309 148.543 404.402 143.222 404.473 137.901L404.474 137.894C404.474 137.865 404.48 137.837 404.491 137.811C404.502 137.785 404.518 137.762 404.539 137.742C404.559 137.722 404.583 137.707 404.609 137.696C404.636 137.686 404.664 137.681 404.692 137.681H404.694L412.657 137.851C412.67 137.851 412.682 137.857 412.691 137.866C412.701 137.876 412.706 137.888 412.706 137.901C412.706 137.914 412.701 137.927 412.691 137.936C412.682 137.946 412.67 137.951 412.657 137.951H412.657Z" fill="black"/>
<path d="M414.837 147.98C415.226 147.967 415.594 147.803 415.865 147.523C416.135 147.243 416.286 146.87 416.286 146.48C416.286 146.091 416.135 145.718 415.865 145.438C415.594 145.158 415.226 144.994 414.837 144.98C414.448 144.994 414.08 145.158 413.81 145.438C413.539 145.718 413.388 146.091 413.388 146.48C413.388 146.87 413.539 147.243 413.81 147.523C414.08 147.803 414.448 147.967 414.837 147.98Z" fill="black"/>
<path d="M439.485 159.925C439.874 159.912 440.242 159.748 440.513 159.468C440.783 159.188 440.934 158.814 440.934 158.425C440.934 158.036 440.783 157.662 440.513 157.383C440.242 157.103 439.874 156.939 439.485 156.925C439.096 156.939 438.728 157.103 438.458 157.383C438.187 157.662 438.036 158.036 438.036 158.425C438.036 158.814 438.187 159.188 438.458 159.468C438.728 159.748 439.096 159.912 439.485 159.925Z" fill="black"/>
<path d="M414.837 194.433C415.226 194.419 415.594 194.255 415.865 193.975C416.135 193.696 416.286 193.322 416.286 192.933C416.286 192.544 416.135 192.17 415.865 191.89C415.594 191.61 415.226 191.446 414.837 191.433C414.448 191.446 414.08 191.61 413.81 191.89C413.539 192.17 413.388 192.544 413.388 192.933C413.388 193.322 413.539 193.696 413.81 193.975C414.08 194.255 414.448 194.419 414.837 194.433Z" fill="black"/>
<path d="M420.146 194.433C420.535 194.419 420.903 194.255 421.173 193.975C421.444 193.696 421.595 193.322 421.595 192.933C421.595 192.544 421.444 192.17 421.173 191.89C420.903 191.61 420.535 191.446 420.146 191.433C419.757 191.446 419.389 191.61 419.118 191.89C418.848 192.17 418.697 192.544 418.697 192.933C418.697 193.322 418.848 193.696 419.118 193.975C419.389 194.255 419.757 194.419 420.146 194.433Z" fill="black"/>
<path d="M401.944 150.256C402.333 150.242 402.701 150.078 402.972 149.799C403.242 149.519 403.393 149.145 403.393 148.756C403.393 148.367 403.242 147.993 402.972 147.713C402.701 147.433 402.333 147.269 401.944 147.256C401.555 147.269 401.187 147.433 400.917 147.713C400.646 147.993 400.495 148.367 400.495 148.756C400.495 149.145 400.646 149.519 400.917 149.799C401.187 150.078 401.555 150.242 401.944 150.256Z" fill="black"/>
<path d="M452 170.922C452.388 170.909 452.757 170.745 453.027 170.465C453.297 170.185 453.449 169.811 453.449 169.422C453.449 169.033 453.297 168.659 453.027 168.38C452.757 168.1 452.388 167.936 452 167.922C451.611 167.936 451.242 168.1 450.972 168.38C450.702 168.659 450.551 169.033 450.551 169.422C450.551 169.811 450.702 170.185 450.972 170.465C451.242 170.745 451.611 170.909 452 170.922Z" fill="black"/>
<path d="M452.473 199.742C452.862 199.728 453.23 199.564 453.5 199.284C453.771 199.005 453.922 198.631 453.922 198.242C453.922 197.853 453.771 197.479 453.5 197.199C453.23 196.919 452.862 196.755 452.473 196.742C452.084 196.755 451.716 196.919 451.445 197.199C451.175 197.479 451.024 197.853 451.024 198.242C451.024 198.631 451.175 199.005 451.445 199.284C451.716 199.564 452.084 199.728 452.473 199.742Z" fill="black"/>
<path d="M423.938 141.74C424.29 143.167 424.458 144.632 424.438 146.101C424.46 147.57 424.292 149.036 423.938 150.462C423.584 149.036 423.416 147.57 423.438 146.101C423.418 144.632 423.586 143.167 423.938 141.74Z" fill="black"/>
<path d="M442 172.74C442.174 175.11 442.245 177.48 442.324 179.85L441.95 179.476C444.162 179.455 446.374 179.39 448.586 179.405C450.798 179.418 453.01 179.531 455.222 179.606L454.977 179.85C455.121 176.354 455.081 172.859 454.957 169.363C454.82 165.867 454.759 162.371 454.72 158.875C454.659 155.38 454.675 151.884 454.768 148.388C454.84 144.892 454.955 141.397 455.172 137.901C455.173 137.888 455.178 137.876 455.188 137.868C455.197 137.859 455.209 137.854 455.222 137.854C455.235 137.854 455.247 137.859 455.256 137.868C455.266 137.876 455.271 137.888 455.272 137.901C455.489 141.397 455.604 144.892 455.676 148.388C455.765 151.884 455.781 155.38 455.724 158.875C455.685 162.371 455.625 165.867 455.487 169.363C455.363 172.859 455.324 176.354 455.467 179.85C455.469 179.912 455.447 179.973 455.405 180.019C455.363 180.064 455.304 180.091 455.242 180.094L455.24 180.094L455.222 180.095C453.01 180.169 450.798 180.282 448.586 180.295C446.374 180.31 444.162 180.245 441.95 180.224L441.934 180.224C441.887 180.223 441.84 180.214 441.796 180.195C441.752 180.176 441.713 180.149 441.679 180.115C441.646 180.082 441.62 180.041 441.602 179.997C441.584 179.953 441.575 179.906 441.576 179.859L441.576 179.85C441.655 177.48 441.726 175.11 441.9 172.74C441.901 172.727 441.907 172.716 441.916 172.707C441.925 172.698 441.937 172.694 441.95 172.694C441.963 172.694 441.975 172.698 441.984 172.707C441.993 172.716 441.999 172.727 442 172.74H442Z" fill="black"/>
<path d="M445.363 174.352C446.433 174.002 447.555 173.833 448.681 173.852C449.808 173.831 450.93 174 452 174.352C450.93 174.704 449.808 174.873 448.681 174.852C447.555 174.871 446.433 174.702 445.363 174.352Z" fill="black"/>
<path d="M455.222 183.263C455.615 187.197 455.706 191.132 455.722 195.066C455.708 199 455.618 202.934 455.222 206.869C454.827 202.934 454.737 199 454.722 195.066C454.738 191.132 454.829 187.197 455.222 183.263Z" fill="black"/>
<path d="M498.866 162.253C493.145 162.416 487.275 162.552 481.356 162.601C478.405 162.648 475.432 162.657 472.46 162.631C469.488 162.613 466.517 162.529 463.565 162.474L463.554 162.474C463.521 162.473 463.488 162.466 463.458 162.453C463.428 162.44 463.401 162.421 463.378 162.397C463.355 162.374 463.337 162.346 463.325 162.315C463.313 162.284 463.307 162.252 463.308 162.219V162.217C463.347 160.59 463.377 158.963 463.383 157.335C463.389 155.708 463.428 154.08 463.407 152.453C463.399 149.198 463.36 145.944 463.291 142.689C463.289 142.618 463.316 142.549 463.365 142.498C463.415 142.446 463.482 142.417 463.553 142.415L463.565 142.415C469.442 142.28 475.32 142.229 481.197 142.189C484.136 142.157 487.075 142.151 490.014 142.17C492.953 142.187 495.891 142.167 498.83 142.22L498.846 142.221C498.906 142.221 498.966 142.234 499.021 142.258C499.077 142.282 499.127 142.317 499.169 142.361C499.211 142.404 499.244 142.456 499.267 142.512C499.289 142.568 499.3 142.628 499.299 142.689C499.249 145.996 499.217 149.309 499.122 152.574L498.866 162.253ZM498.795 162.182L498.538 152.332C498.443 149.088 498.411 145.891 498.362 142.689L498.83 143.157C495.891 143.211 492.953 143.19 490.014 143.207C487.075 143.224 484.136 143.218 481.197 143.188C475.32 143.149 469.442 143.097 463.565 142.962L463.838 142.689C463.773 145.943 463.734 149.198 463.722 152.453C463.701 154.08 463.74 155.708 463.746 157.335C463.752 158.963 463.782 160.59 463.821 162.217L463.565 161.961C466.49 161.906 469.396 161.822 472.302 161.805C475.207 161.778 478.112 161.787 481.038 161.834C486.875 161.883 492.761 162.019 498.795 162.182V162.182Z" fill="black"/>
<path d="M463.564 168.19C466.503 167.983 469.442 167.887 472.381 167.807C475.32 167.715 478.258 167.702 481.197 167.69C484.136 167.701 487.075 167.714 490.014 167.805L494.422 167.944C495.891 168.028 497.361 168.076 498.83 168.19C497.361 168.303 495.891 168.352 494.422 168.435L490.014 168.574C487.075 168.665 484.136 168.678 481.197 168.689C478.258 168.677 475.32 168.664 472.381 168.572C469.442 168.492 466.503 168.396 463.564 168.19Z" fill="black"/>
<path d="M463.564 175.11C466.503 174.904 469.442 174.807 472.381 174.727C475.32 174.636 478.258 174.623 481.197 174.61C484.136 174.622 487.075 174.635 490.014 174.725L494.422 174.865C495.891 174.948 497.361 174.997 498.83 175.11C497.361 175.223 495.891 175.272 494.422 175.355L490.014 175.495C487.075 175.585 484.136 175.599 481.197 175.61C478.258 175.597 475.32 175.584 472.381 175.493C469.442 175.413 466.503 175.316 463.564 175.11Z" fill="black"/>
<path d="M463.564 182.125C466.503 181.919 469.442 181.822 472.381 181.742C475.32 181.651 478.258 181.638 481.197 181.625C484.136 181.637 487.075 181.65 490.014 181.741L494.422 181.88C495.891 181.963 497.361 182.012 498.83 182.125C497.361 182.239 495.891 182.287 494.422 182.37L490.014 182.51C487.075 182.6 484.136 182.614 481.197 182.625C478.258 182.612 475.32 182.6 472.381 182.508C469.442 182.428 466.503 182.331 463.564 182.125Z" fill="black"/>
<path d="M484.456 206.904L479.643 207.091C478.008 207.133 476.378 207.212 474.71 207.228L469.716 207.308C468.042 207.3 466.369 207.302 464.702 207.258L464.682 207.258C464.581 207.255 464.486 207.213 464.416 207.14C464.347 207.067 464.309 206.969 464.312 206.868C464.388 203.914 464.525 200.959 464.535 198.004C464.568 196.527 464.532 195.05 464.524 193.572C464.518 192.095 464.458 190.618 464.428 189.141C464.427 189.07 464.453 189.002 464.502 188.951C464.551 188.899 464.618 188.869 464.688 188.867L464.702 188.867C467.989 188.767 471.275 188.691 474.561 188.665C477.848 188.626 481.134 188.583 484.42 188.616L484.428 188.616C484.566 188.618 484.698 188.674 484.794 188.772C484.891 188.87 484.945 189.003 484.945 189.141C484.934 192.159 484.841 195.17 484.773 198.15L484.456 206.904ZM484.385 206.833L484.068 197.858C484 194.93 483.908 192.031 483.896 189.141L484.42 189.665C481.134 189.698 477.848 189.655 474.561 189.616C471.275 189.59 467.988 189.514 464.702 189.414L464.976 189.141C464.946 190.618 464.887 192.095 464.88 193.572C464.872 195.05 464.836 196.527 464.869 198.004C464.879 200.959 465.016 203.914 465.092 206.868L464.702 206.478C466.322 206.435 467.935 206.437 469.548 206.428L474.412 206.508C476.031 206.525 477.687 206.603 479.34 206.645L484.385 206.833Z" fill="black"/>
<path d="M498.866 206.904C497.283 207.005 495.624 207.097 493.929 207.167C492.242 207.264 490.503 207.264 488.781 207.301C488.726 207.303 488.67 207.293 488.619 207.273C488.567 207.253 488.519 207.222 488.479 207.184C488.439 207.145 488.407 207.099 488.385 207.049C488.362 206.998 488.35 206.943 488.349 206.887L488.348 206.868C488.276 203.914 488.451 200.959 488.568 198.005C488.616 196.527 488.65 195.05 488.617 193.573C488.611 192.095 488.561 190.618 488.508 189.141C488.505 189.071 488.53 189.004 488.577 188.952C488.625 188.901 488.69 188.871 488.76 188.868L488.781 188.867C490.456 188.795 492.131 188.741 493.806 188.704L498.83 188.625C498.897 188.624 498.963 188.636 499.025 188.661C499.087 188.685 499.143 188.722 499.191 188.768C499.239 188.814 499.277 188.87 499.304 188.931C499.33 188.992 499.345 189.058 499.346 189.125L499.346 189.127V189.141C499.382 192.154 499.351 195.199 499.238 198.174C499.155 201.16 499.012 204.09 498.866 206.904ZM498.795 206.833C498.648 203.738 498.505 200.759 498.423 197.836C498.309 194.901 498.278 192.036 498.314 189.141L498.83 189.656L493.806 189.577C492.131 189.542 490.456 189.488 488.781 189.414L489.055 189.141C489.001 190.618 488.951 192.095 488.945 193.573C488.913 195.05 488.946 196.527 488.995 198.005C489.112 200.959 489.287 203.914 489.215 206.868L488.781 206.435C490.41 206.473 492.02 206.473 493.682 206.57C495.337 206.64 497.028 206.732 498.795 206.833Z" fill="black"/>
<path d="M375.177 228.979C379.086 227.882 383.113 227.257 387.171 227.116C389.213 227.041 391.256 227.178 393.269 227.524C395.319 227.855 397.282 228.592 399.043 229.692C400.817 230.865 402.165 232.58 402.886 234.58C403.551 236.553 404.065 238.463 404.689 240.399C405.892 244.256 407.161 248.091 408.495 251.904C411.194 259.515 414.036 267.082 417.423 274.395C419.093 278.053 420.951 281.622 422.99 285.089C424.963 288.55 427.356 291.755 430.113 294.631C431.453 296.025 433.028 297.173 434.767 298.019C436.445 298.842 438.373 298.996 440.161 298.451C441.997 297.943 443.668 296.966 445.011 295.615C446.372 294.224 447.504 292.626 448.364 290.88C449.225 289.094 449.948 287.245 450.525 285.348C451.072 283.43 451.578 281.494 451.943 279.52C452.71 275.583 453.225 271.585 453.613 267.573C454.372 259.542 454.622 251.454 454.793 243.37C455.008 235.283 455.041 227.19 455.222 219.098C455.497 235.277 455.999 251.473 454.824 267.677C454.543 271.738 454.029 275.78 453.284 279.781C452.924 281.79 452.419 283.776 451.868 285.751C451.279 287.73 450.537 289.66 449.649 291.525C448.729 293.419 447.512 295.154 446.045 296.665C444.53 298.202 442.64 299.319 440.563 299.906C439.51 300.242 438.402 300.366 437.301 300.272C436.207 300.169 435.138 299.885 434.138 299.431C432.221 298.521 430.482 297.276 429.004 295.753C426.169 292.768 423.713 289.444 421.693 285.856C419.649 282.334 417.789 278.708 416.119 274.994C412.79 267.59 409.863 260.013 407.35 252.294C406.077 248.445 404.873 244.576 403.737 240.686C403.155 238.761 402.647 236.751 402.053 234.88C401.421 233.033 400.214 231.438 398.608 230.328C396.956 229.232 395.102 228.476 393.154 228.106C391.187 227.709 389.184 227.517 387.177 227.533C385.16 227.536 383.145 227.668 381.145 227.926C379.137 228.164 377.145 228.515 375.177 228.979Z" fill="black"/>
<path d="M465.224 219.098H438.775V229.07H465.224V219.098Z" fill="black"/>
<path d="M534.057 256.218C534.057 256.878 534.047 257.538 534.037 258.198H532.077C532.067 257.538 532.057 256.878 532.057 256.218C532.057 254.138 532.137 252.068 532.277 249.988C532.409 247.894 532.67 245.81 533.057 243.748C533.455 245.809 533.715 247.893 533.837 249.988C533.987 252.068 534.067 254.138 534.057 256.218Z" fill="black"/>
<path d="M515.327 273.428C515.307 275.568 515.257 277.708 515.107 279.848C514.975 282.005 514.715 284.152 514.327 286.278C513.935 284.153 513.675 282.005 513.547 279.848C513.388 277.708 513.347 275.568 513.327 273.428C513.337 272.878 513.337 272.318 513.347 271.768H515.307C515.317 272.318 515.317 272.878 515.327 273.428Z" fill="black"/>
<path d="M525.427 266.148C525.417 268.018 525.397 269.898 525.357 271.768H523.497C523.457 269.898 523.437 268.018 523.427 266.148C523.447 263.498 523.467 260.848 523.567 258.198H525.287C525.387 260.848 525.407 263.498 525.427 266.148Z" fill="black"/>
<path d="M502.747 266.148C502.737 268.018 502.717 269.898 502.677 271.768H500.817C500.777 269.898 500.757 268.018 500.747 266.148C500.767 263.498 500.787 260.848 500.887 258.198H502.607C502.707 260.848 502.727 263.498 502.747 266.148Z" fill="black"/>
<path d="M494.807 273.428C494.787 275.568 494.737 277.708 494.587 279.848C494.455 282.005 494.195 284.152 493.807 286.278C493.415 284.153 493.155 282.005 493.027 279.848C492.867 277.708 492.827 275.568 492.807 273.428C492.817 272.878 492.817 272.318 492.827 271.768H494.787C494.797 272.318 494.797 272.878 494.807 273.428Z" fill="black"/>
<path d="M537.287 273.428C537.267 275.568 537.217 277.708 537.067 279.848C536.935 282.005 536.675 284.152 536.287 286.278C535.895 284.153 535.635 282.005 535.507 279.848C535.347 277.708 535.307 275.568 535.287 273.428C535.297 272.878 535.297 272.318 535.307 271.768H537.267C537.277 272.318 537.277 272.878 537.287 273.428Z" fill="black"/>
<path d="M514.707 256.068C514.707 256.778 514.697 257.488 514.677 258.198H512.737C512.717 257.488 512.707 256.778 512.707 256.068C512.697 253.998 512.777 251.918 512.927 249.838C513.054 247.747 513.314 245.666 513.707 243.608C514.101 245.666 514.361 247.747 514.487 249.838C514.627 251.918 514.707 253.998 514.707 256.068Z" fill="black"/>
<path d="M493.807 258.198C497.979 257.784 502.151 257.568 506.322 257.421C510.494 257.261 514.666 257.219 518.837 257.199C523.009 257.216 527.181 257.259 531.352 257.418C535.524 257.564 539.696 257.782 543.867 258.198C539.696 258.614 535.524 258.832 531.352 258.979C527.181 259.137 523.009 259.18 518.837 259.198C514.666 259.178 510.494 259.135 506.322 258.975C502.151 258.828 497.979 258.612 493.807 258.198Z" fill="black"/>
<path d="M539.867 271.768C535.696 272.182 531.524 272.398 527.352 272.545C523.181 272.705 519.009 272.747 514.837 272.767C510.666 272.75 506.494 272.707 502.322 272.548C498.151 272.402 493.979 272.184 489.807 271.768C493.979 271.352 498.151 271.134 502.322 270.988C506.494 270.829 510.666 270.786 514.837 270.769C519.009 270.789 523.181 270.831 527.352 270.991C531.524 271.138 535.696 271.354 539.867 271.768Z" fill="black"/>
<path d="M335.453 137.376C335.453 138.036 335.443 138.696 335.433 139.356H333.473C333.463 138.696 333.453 138.036 333.453 137.376C333.453 135.296 333.533 133.226 333.673 131.146C333.805 129.052 334.066 126.968 334.453 124.906C334.851 126.967 335.111 129.051 335.233 131.146C335.383 133.226 335.463 135.296 335.453 137.376Z" fill="black"/>
<path d="M316.723 154.586C316.703 156.726 316.653 158.866 316.503 161.006C316.371 163.163 316.111 165.31 315.723 167.436C315.331 165.311 315.071 163.164 314.943 161.006C314.784 158.866 314.743 156.726 314.723 154.586C314.733 154.036 314.733 153.476 314.743 152.926H316.703C316.713 153.476 316.713 154.036 316.723 154.586Z" fill="black"/>
<path d="M326.823 147.307C326.813 149.176 326.793 151.057 326.753 152.926H324.893C324.853 151.057 324.833 149.176 324.823 147.307C324.843 144.656 324.863 142.007 324.963 139.356H326.683C326.783 142.006 326.803 144.656 326.823 147.307Z" fill="black"/>
<path d="M304.143 147.307C304.133 149.176 304.113 151.057 304.073 152.926H302.213C302.173 151.057 302.153 149.176 302.143 147.307C302.163 144.656 302.183 142.007 302.283 139.356H304.003C304.103 142.006 304.123 144.656 304.143 147.307Z" fill="black"/>
<path d="M296.203 154.586C296.183 156.726 296.133 158.866 295.983 161.006C295.851 163.163 295.591 165.31 295.203 167.436C294.811 165.311 294.551 163.164 294.423 161.006C294.263 158.866 294.223 156.726 294.203 154.586C294.213 154.036 294.213 153.476 294.223 152.926H296.183C296.193 153.476 296.193 154.036 296.203 154.586Z" fill="black"/>
<path d="M338.683 154.586C338.663 156.726 338.613 158.866 338.463 161.006C338.331 163.163 338.071 165.31 337.683 167.436C337.291 165.311 337.031 163.164 336.903 161.006C336.743 158.866 336.703 156.726 336.683 154.586C336.693 154.036 336.693 153.476 336.703 152.926H338.663C338.673 153.476 338.673 154.036 338.683 154.586Z" fill="black"/>
<path d="M316.103 137.226C316.103 137.936 316.093 138.646 316.073 139.356H314.133C314.113 138.646 314.103 137.936 314.103 137.226C314.093 135.156 314.173 133.076 314.323 130.996C314.45 128.905 314.71 126.824 315.103 124.766C315.497 126.824 315.757 128.905 315.883 130.996C316.023 133.076 316.103 135.156 316.103 137.226Z" fill="black"/>
<path d="M295.203 139.356C299.375 138.942 303.547 138.726 307.718 138.579C311.89 138.419 316.062 138.377 320.233 138.357C324.405 138.374 328.577 138.417 332.748 138.576C336.92 138.723 341.092 138.94 345.263 139.356C341.092 139.773 336.92 139.99 332.748 140.137C328.577 140.296 324.405 140.338 320.233 140.356C316.062 140.336 311.89 140.293 307.718 140.134C303.547 139.987 299.375 139.77 295.203 139.356Z" fill="black"/>
<path d="M341.263 152.926C337.092 153.34 332.92 153.557 328.748 153.704C324.577 153.863 320.405 153.906 316.233 153.926C312.062 153.908 307.89 153.866 303.718 153.707C299.547 153.56 295.375 153.343 291.203 152.926C295.375 152.51 299.547 152.292 303.718 152.146C307.89 151.987 312.062 151.944 316.233 151.927C320.405 151.947 324.577 151.989 328.748 152.149C332.92 152.296 337.092 152.513 341.263 152.926Z" fill="black"/>
</svg>
