<svg width="700" height="550" viewBox="0 0 700 550" fill="none" xmlns="http://www.w3.org/2000/svg">
<path d="M323.919 132.021L321.185 155.777C320.529 155.328 320 154.717 319.648 154.004C318.946 152.764 318.452 151.417 318.187 150.017C315.926 139.04 311.974 141.091 311.974 141.091C307.913 143.202 313.693 156.928 313.693 156.928C315.358 162.139 314.166 163.783 312.88 164.25C312.433 164.396 311.954 164.413 311.497 164.298C311.041 164.183 310.627 163.941 310.302 163.601C308.452 161.669 306.354 159.992 304.062 158.613C303.409 158.223 302.669 158 301.91 157.963C301.615 157.914 301.314 157.93 301.026 158.008C300.738 158.087 300.471 158.227 300.242 158.418C300.013 158.61 299.828 158.848 299.7 159.118C299.572 159.387 299.504 159.682 299.5 159.98C299.456 160.521 299.522 161.065 299.696 161.58C299.869 162.094 300.146 162.568 300.509 162.971L309.618 173.577C310.816 176.785 314.755 181.509 318.22 181.488L317.902 184.25L317.638 195.444L314.085 234.244C294.594 235.95 295.812 231.456 295.812 231.456L294.167 168.947C296.915 146.045 309.172 133.862 309.172 133.862C309.172 133.862 317.726 135.981 323.919 132.021Z" fill="black"/>
<path d="M314.785 122.381C315.968 122.066 317.067 121.493 318.003 120.703C318.474 120.32 318.916 119.902 319.324 119.451C319.722 118.993 320.089 118.509 320.423 118.002C321.719 115.937 322.584 113.631 322.968 111.224C323.093 110.627 323.179 110.023 323.226 109.416C323.284 108.809 323.382 108.206 323.407 107.596C323.409 106.374 323.508 105.154 323.43 103.933C323.349 102.713 323.348 101.486 323.204 100.27L322.771 96.6192L322.97 96.8316C320.961 96.2443 319.049 95.3654 317.295 94.2231C312.903 91.3831 309.541 87.2038 307.71 82.3042C307.335 81.3365 307.096 80.3215 306.783 79.331L307.012 79.457C305.476 80.1652 304.097 81.1739 302.957 82.4237C301.802 83.6657 300.818 85.0558 300.029 86.5574C299.244 88.0619 298.604 89.6383 298.12 91.2651C297.876 92.0779 297.7 92.9116 297.487 93.7333L297.05 96.247L297.02 96.0486C297.504 97.5457 297.645 99.1323 297.434 100.691C297.354 101.454 297.237 102.209 297.082 102.957C296.931 103.682 296.821 104.414 296.751 105.151C296.453 108.113 296.604 111.104 297.196 114.022C297.507 115.471 298.006 116.873 298.683 118.192C299.368 119.502 300.321 120.653 301.48 121.571C303.955 123.282 306.991 123.98 309.964 123.521L309.972 123.588C308.475 123.821 306.951 123.827 305.452 123.606C303.933 123.376 302.492 122.782 301.251 121.876C300.023 120.948 299.004 119.771 298.26 118.424C297.531 117.078 296.982 115.643 296.628 114.154C295.939 111.182 295.746 108.117 296.059 105.082C296.128 104.321 296.24 103.565 296.392 102.816C296.54 102.089 296.65 101.359 296.725 100.624C296.909 99.191 296.797 97.7358 296.397 96.348L296.352 96.2244L296.366 96.1492L296.836 93.5925C297.062 92.7548 297.25 91.9071 297.507 91.0787C298.013 89.415 298.692 87.8088 299.532 86.2861C300.375 84.7616 301.417 83.3561 302.63 82.1064C303.841 80.8393 305.291 79.8255 306.897 79.1238L307.067 79.0542L307.126 79.2499C307.421 80.2307 307.641 81.2385 307.997 82.1998C308.34 83.1672 308.746 84.1108 309.214 85.0244C310.117 86.8728 311.296 88.5734 312.71 90.0683C315.521 93.0755 319.113 95.2417 323.084 96.3247L323.261 96.3698L323.284 96.5373L323.779 100.212C323.933 101.439 323.948 102.681 324.039 103.916C324.103 105.152 323.99 106.394 323.974 107.633C323.942 108.251 323.836 108.867 323.77 109.483C323.716 110.102 323.621 110.717 323.487 111.324L323.076 113.144C322.895 113.739 322.668 114.322 322.466 114.91C322.019 116.075 321.434 117.182 320.726 118.209C320.37 118.722 319.979 119.208 319.555 119.665C319.117 120.108 318.645 120.517 318.144 120.888C317.157 121.649 316.013 122.181 314.795 122.448L314.785 122.381Z" fill="black"/>
<path d="M309.526 112.147C309.537 113.073 309.212 113.972 308.611 114.676C308.29 115.039 307.891 115.325 307.444 115.512C306.997 115.698 306.514 115.781 306.03 115.753C305.084 115.677 304.198 115.262 303.532 114.585C302.854 113.944 302.434 113.077 302.351 112.147C302.314 111.662 302.386 111.175 302.561 110.721C302.736 110.267 303.01 109.858 303.363 109.524C304.075 108.828 305.034 108.44 306.03 108.445C306.519 108.444 307.003 108.547 307.45 108.748C307.896 108.949 308.295 109.242 308.619 109.608C309.22 110.316 309.542 111.219 309.526 112.147ZM309.445 112.147C309.434 111.72 309.321 111.302 309.114 110.929C308.907 110.555 308.613 110.238 308.256 110.003C307.602 109.55 306.825 109.309 306.03 109.313C305.245 109.314 304.486 109.588 303.881 110.087C303.266 110.607 302.877 111.346 302.797 112.147C302.759 112.567 302.823 112.989 302.982 113.38C303.141 113.77 303.391 114.117 303.711 114.391C304.364 114.914 305.197 115.16 306.03 115.076C306.831 115.025 307.604 114.757 308.265 114.3C308.621 114.063 308.914 113.743 309.119 113.368C309.325 112.993 309.436 112.574 309.445 112.147Z" fill="black"/>
<path d="M301.932 99.9028C301.583 100.478 301.261 101.042 300.972 101.6C300.683 102.121 300.496 102.692 300.421 103.283C300.394 103.549 300.431 103.818 300.53 104.066C300.629 104.314 300.787 104.535 300.991 104.708C301.212 104.917 301.454 105.103 301.714 105.262C301.986 105.432 302.285 105.555 302.574 105.745C302.235 105.727 301.897 105.689 301.562 105.632C301.218 105.543 300.891 105.399 300.594 105.204C300.268 104.999 300.001 104.712 299.823 104.37C299.658 104.011 299.585 103.616 299.61 103.222C299.696 102.505 299.982 101.826 300.436 101.264C300.845 100.72 301.352 100.259 301.932 99.9028Z" fill="black"/>
<path d="M299.672 99.4138C299.988 99.4028 300.288 99.2694 300.508 99.0416C300.728 98.8138 300.851 98.5094 300.851 98.1927C300.851 97.876 300.728 97.5717 300.508 97.3439C300.288 97.1161 299.988 96.9826 299.672 96.9717C299.355 96.9826 299.055 97.1161 298.835 97.3439C298.615 97.5717 298.492 97.876 298.492 98.1927C298.492 98.5094 298.615 98.8138 298.835 99.0416C299.055 99.2694 299.355 99.4028 299.672 99.4138Z" fill="black"/>
<path d="M313.685 99.6989C314.002 99.6879 314.301 99.5545 314.521 99.3267C314.741 99.0989 314.864 98.7946 314.864 98.4779C314.864 98.1612 314.741 97.8569 314.521 97.6291C314.301 97.4013 314.002 97.2678 313.685 97.2568C313.369 97.2678 313.069 97.4013 312.849 97.6291C312.629 97.8569 312.506 98.1612 312.506 98.4779C312.506 98.7946 312.629 99.0989 312.849 99.3267C313.069 99.5545 313.369 99.6879 313.685 99.6989Z" fill="black"/>
<path d="M297.306 93.0417C298.309 92.5208 299.438 92.2937 300.564 92.3865C301.133 92.4327 301.692 92.5636 302.222 92.775C302.751 92.9938 303.221 93.3373 303.589 93.7762C303.08 93.6172 302.561 93.4859 302.037 93.3829C301.525 93.3037 301.019 93.2338 300.503 93.1977C299.468 93.1178 298.427 93.1208 297.306 93.0417Z" fill="black"/>
<path d="M308.713 93.7759C309.826 93.1132 311.084 92.7288 312.377 92.6553C313.671 92.5308 314.975 92.7426 316.163 93.2702C314.869 93.3478 313.664 93.3576 312.438 93.4666C311.212 93.547 310.001 93.6912 308.713 93.7759Z" fill="black"/>
<path d="M292.893 94.9906C297.086 95.2535 301.295 95.0694 305.497 95.1913C309.7 95.3094 313.885 95.807 318.07 96.2156L318.344 96.2424L318.323 96.491C318.2 98.1799 317.774 99.8329 317.066 101.371C316.7 102.158 316.148 102.845 315.458 103.371C314.761 103.934 313.889 104.237 312.993 104.23C312.108 104.262 311.226 104.11 310.404 103.781C309.564 103.432 308.826 102.879 308.255 102.171C307.168 100.734 306.578 98.9821 306.573 97.1801L307.148 97.8255L302.509 97.4683L303.261 96.92C302.979 98.1716 302.562 99.3889 302.018 100.551C301.482 101.778 300.677 102.869 299.663 103.745C299.096 104.214 298.41 104.516 297.681 104.619C296.956 104.705 296.221 104.586 295.559 104.277C294.394 103.672 293.383 102.808 292.604 101.751L292.581 101.722C292.281 101.213 292.039 100.672 291.862 100.108C291.684 99.5619 291.554 99.002 291.472 98.434C291.395 97.8713 291.354 97.3044 291.349 96.7366C291.352 96.1725 291.386 95.6091 291.451 95.0488L291.458 94.9727L291.535 94.9737L292.893 94.9906ZM292.889 95.1259L291.535 95.1429L291.619 95.0679C291.446 96.7192 291.717 98.3866 292.402 99.899C292.613 100.384 292.881 100.843 293.201 101.265L293.178 101.236C293.976 102.073 294.937 102.737 296.002 103.186C296.47 103.369 296.98 103.418 297.474 103.328C297.968 103.237 298.427 103.01 298.799 102.673C299.618 101.901 300.269 100.968 300.709 99.9327C301.201 98.8651 301.595 97.7551 301.887 96.6163L302.051 96.0045L302.639 96.0678L307.264 96.5655L307.833 96.6267L307.838 97.2112C307.803 98.7461 308.235 100.255 309.077 101.539C309.513 102.155 310.089 102.659 310.758 103.008C311.452 103.352 312.213 103.543 312.987 103.567C313.772 103.586 314.545 103.367 315.203 102.94C315.862 102.512 316.376 101.895 316.678 101.171C317.398 99.7095 317.777 98.1042 317.787 96.4753L318.04 96.7505C313.837 96.6843 309.634 96.7068 305.448 96.35C301.263 95.9969 297.084 95.3379 292.889 95.1259V95.1259Z" fill="black"/>
<path d="M318.055 96.4834L323.027 96.5784" stroke="black" stroke-width="0.81402" stroke-miterlimit="10"/>
<path d="M306.209 123.687C306.826 125.347 307.38 127.025 307.922 128.706L308.706 131.237C308.978 132.078 309.195 132.935 309.442 133.783L309.24 133.589C310.837 134.002 312.47 134.262 314.117 134.364C315.769 134.476 317.429 134.338 319.04 133.955C320.63 133.58 322.135 132.909 323.477 131.977C324.746 130.989 325.758 129.709 326.428 128.247L326.986 128.662C326.693 128.825 326.357 128.895 326.023 128.862C325.688 128.83 325.372 128.696 325.116 128.48C324.663 128.161 324.262 127.776 323.925 127.337C323.28 126.499 322.729 125.592 322.281 124.634C321.817 123.7 321.407 122.741 321.053 121.76C320.663 120.796 320.388 119.791 320.064 118.808C320.061 118.799 320.061 118.79 320.065 118.782C320.069 118.774 320.077 118.768 320.085 118.765C320.093 118.763 320.102 118.763 320.11 118.767C320.118 118.771 320.124 118.777 320.127 118.785C320.549 119.732 320.955 120.683 321.397 121.615C321.826 122.553 322.292 123.472 322.783 124.369C323.263 125.262 323.822 126.11 324.453 126.903C324.75 127.283 325.102 127.618 325.498 127.894C325.674 128.017 325.871 128.105 326.08 128.156C326.228 128.189 326.383 128.176 326.523 128.118L326.563 128.09C326.627 128.046 326.704 128.024 326.782 128.028C326.86 128.032 326.934 128.061 326.993 128.112C327.053 128.162 327.094 128.231 327.11 128.307C327.126 128.384 327.116 128.463 327.082 128.533C326.345 130.098 325.224 131.45 323.824 132.466C322.389 133.379 320.783 133.991 319.105 134.265C317.455 134.545 315.781 134.662 314.108 134.613C312.429 134.605 310.754 134.445 309.103 134.136C309.057 134.126 309.014 134.104 308.979 134.072C308.944 134.04 308.918 134 308.905 133.954L308.901 133.942C308.649 133.096 308.367 132.258 308.139 131.404L307.426 128.853C306.97 127.146 306.525 125.435 306.144 123.706C306.142 123.698 306.144 123.689 306.148 123.682C306.152 123.674 306.159 123.669 306.168 123.666C306.176 123.664 306.185 123.665 306.192 123.669C306.2 123.673 306.206 123.679 306.209 123.687H306.209Z" fill="black"/>
<path d="M308.116 130.28C304.673 132.565 301.352 135.029 298.168 137.663C296.579 138.969 295.081 140.381 293.684 141.89C292.995 142.63 292.388 143.441 291.873 144.312C291.629 144.724 291.447 145.171 291.335 145.638C291.285 146.038 291.277 146.624 291.253 147.136C290.983 151.286 290.576 155.388 290.257 159.512C289.924 163.632 289.626 167.752 289.363 171.874C288.813 180.116 288.444 188.37 288.436 196.62C288.35 204.857 288.842 213.091 289.911 221.259L289.926 221.359L289.916 221.416C289.339 224.34 287.979 227.053 285.981 229.266C285.028 230.367 283.978 231.381 282.845 232.296C282.261 232.725 281.695 233.18 281.092 233.581C280.484 233.966 279.877 234.386 279.268 234.741C274.406 237.666 269.501 240.518 264.619 243.409L264.463 242.564C266.908 243.083 269.301 243.828 271.61 244.787C273.933 245.719 276.125 246.95 278.129 248.45C280.16 249.949 281.792 251.924 282.88 254.201C283.381 255.354 283.699 256.577 283.824 257.828C283.919 259.073 283.848 260.326 283.614 261.552L283.609 261.579L283.595 261.596C283.436 261.785 283.239 261.939 283.017 262.047C282.794 262.155 282.552 262.215 282.305 262.223C281.824 262.217 281.355 262.073 280.954 261.808C280.189 261.271 279.527 260.6 279 259.827C279.551 260.572 280.232 261.212 281.01 261.715C281.397 261.951 281.843 262.071 282.297 262.061C282.515 262.045 282.727 261.984 282.92 261.883C283.114 261.781 283.284 261.641 283.421 261.47L283.402 261.513C283.597 260.306 283.631 259.078 283.503 257.862C283.348 256.656 283.006 255.482 282.49 254.381C281.376 252.214 279.745 250.354 277.742 248.965C275.754 247.549 273.594 246.39 271.314 245.517C269.044 244.621 266.696 243.935 264.301 243.468L263.128 243.244L264.145 242.622C268.986 239.663 273.804 236.666 278.665 233.741C279.28 233.378 279.836 232.984 280.425 232.608C281.001 232.22 281.539 231.781 282.095 231.368C283.165 230.493 284.155 229.525 285.054 228.476C285.945 227.432 286.717 226.291 287.354 225.075C287.986 223.893 288.425 222.618 288.654 221.298L288.659 221.454C287.499 213.228 286.992 204.922 287.141 196.615C287.197 188.326 287.616 180.05 288.215 171.794C288.816 163.542 289.776 155.3 290.522 147.095C290.559 146.575 290.558 146.125 290.643 145.5C290.779 144.961 290.996 144.446 291.287 143.973C291.851 143.077 292.512 142.247 293.257 141.495C294.717 140.013 296.276 138.632 297.923 137.362C301.194 134.824 304.597 132.46 308.116 130.28Z" fill="black"/>
<path d="M265.478 247.158C264.753 246.577 264.109 245.902 263.564 245.15C263.241 244.746 263.075 244.239 263.096 243.722C263.112 243.569 263.17 243.424 263.264 243.303L263.405 243.116L263.582 242.994C263.81 242.848 264.062 242.743 264.326 242.682L264.437 243.35C264.04 243.409 263.677 243.522 263.593 243.825C263.546 244.228 263.639 244.635 263.856 244.978C264.297 245.774 264.843 246.507 265.478 247.158Z" fill="black"/>
<path d="M283.508 261.533C284.757 260.626 286.057 259.793 287.403 259.037C288.731 258.266 290.093 257.565 291.463 256.879C292.844 256.215 294.232 255.566 295.655 254.988C297.076 254.387 298.532 253.869 300.014 253.439C298.766 254.347 297.466 255.181 296.12 255.937C294.792 256.708 293.429 257.408 292.059 258.093C290.677 258.756 289.289 259.404 287.866 259.982C286.445 260.583 284.989 261.101 283.508 261.533Z" fill="black"/>
<path d="M289.285 221.356C289.486 222.758 289.576 224.166 289.69 225.575C289.774 226.984 289.818 228.396 289.823 229.811C289.826 231.226 289.775 232.645 289.669 234.066C289.583 235.53 289.32 236.977 288.886 238.378L288.864 238.441L288.808 238.527C288.553 238.879 288.447 239.316 288.511 239.746C288.594 239.942 288.721 240.117 288.882 240.257C289.042 240.397 289.233 240.499 289.438 240.556C290.567 240.907 291.746 241.071 292.927 241.044C294.18 241.088 295.432 241.16 296.684 241.24C297.936 241.344 299.189 241.41 300.441 241.554C299.189 241.698 297.936 241.763 296.684 241.868C295.432 241.947 294.18 242.02 292.927 242.064C291.606 242.201 290.271 242.085 288.993 241.722C288.627 241.604 288.284 241.422 287.982 241.185C287.633 240.908 287.379 240.531 287.252 240.105C287.136 239.692 287.132 239.255 287.241 238.839C287.336 238.456 287.494 238.09 287.71 237.759L287.632 237.907C288.013 236.614 288.262 235.284 288.375 233.94C288.53 232.562 288.634 231.17 288.735 229.774L289.001 225.575L289.285 221.356Z" fill="black"/>
<path d="M300.543 234.633L300.282 258.765L299.942 282.896L299.559 307.026L299.08 331.153L299.078 331.076L300.98 357.06L302.76 383.052C303.95 400.38 304.974 417.719 306.081 435.053L306.012 434.827C306.104 434.928 306.208 435.018 306.32 435.097C306.471 435.205 306.631 435.3 306.797 435.383C307.149 435.56 307.516 435.706 307.893 435.82C308.677 436.054 309.478 436.223 310.29 436.325C311.946 436.524 313.615 436.599 315.283 436.548C318.648 436.437 322.002 436.104 325.322 435.55C331.985 434.433 338.588 432.98 345.104 431.197L345.082 431.204C346.497 430.542 347.678 429.468 348.471 428.122C349.289 426.76 349.832 425.25 350.067 423.679C350.305 422.095 350.359 420.489 350.229 418.893C350.165 418.092 350.069 417.295 349.947 416.499C349.794 415.707 349.673 414.88 349.59 414.078C348.814 407.623 348.1 401.162 347.448 394.694C346.803 388.226 346.17 381.754 345.719 375.263C345.493 372.017 345.304 368.767 345.219 365.506C345.181 363.875 345.162 362.242 345.219 360.6C345.246 359.779 345.291 358.956 345.382 358.127C345.447 357.251 345.639 356.389 345.953 355.57L346.272 354.81L346.897 355.391L374.169 380.737L401.401 406.125L401.528 406.244L401.627 406.448C403.025 409.551 405.508 412.036 408.61 413.436C411.681 414.692 415.273 414.063 418.257 412.479C421.284 410.702 423.983 408.418 426.236 405.728C428.576 403.036 430.688 400.153 432.548 397.11C433.488 395.592 434.38 394.043 435.194 392.462C436.015 390.931 436.697 389.33 437.231 387.676C437.279 387.506 437.316 387.333 437.342 387.158L437.351 387.067C437.36 387.038 437.349 386.961 437.368 387.147C437.407 387.298 437.378 387.189 437.347 387.143C437.142 386.799 436.917 386.467 436.672 386.149C436.148 385.452 435.582 384.757 435.009 384.068C433.861 382.69 432.674 381.328 431.479 379.973C426.687 374.559 421.765 369.238 416.833 363.93C406.942 353.337 397.011 342.777 387.038 332.25L357.065 300.729L356.765 300.413L356.932 300.017C358.763 295.688 360.45 291.271 362.018 286.826C363.587 282.378 365.008 277.879 366.251 273.332C367.535 268.799 368.46 264.171 369.016 259.492C369.286 257.157 369.309 254.801 369.084 252.461C368.809 250.167 368.168 247.76 366.456 246.13L366.592 245.98C368.403 247.628 369.111 250.09 369.445 252.415C369.726 254.78 369.758 257.168 369.538 259.539C369.085 264.265 368.259 268.948 367.069 273.544C365.934 278.149 364.544 282.684 363.049 287.18C361.541 291.675 359.923 296.12 358.139 300.528L358.006 299.817C368.186 310.148 378.298 320.544 388.342 331.004C398.417 341.437 408.453 351.907 418.347 362.519C423.296 367.824 428.232 373.138 433.063 378.573C434.268 379.935 435.466 381.303 436.641 382.708C437.228 383.412 437.81 384.12 438.377 384.872C438.686 385.271 438.969 385.691 439.223 386.128C439.334 386.321 439.416 386.531 439.464 386.749C439.493 386.886 439.499 387.027 439.483 387.166L439.461 387.413C439.425 387.687 439.369 387.958 439.295 388.224C438.728 390.027 437.995 391.774 437.105 393.441C436.262 395.084 435.353 396.686 434.38 398.246C432.439 401.382 430.24 404.349 427.806 407.119C425.376 409.984 422.468 412.407 419.212 414.282C417.495 415.189 415.628 415.78 413.701 416.025C411.729 416.266 409.728 416.01 407.88 415.279C406.068 414.53 404.439 413.4 403.103 411.965C401.77 410.565 400.674 408.958 399.857 407.206L400.083 407.528L373.063 381.913L346.083 356.257L347.027 356.078C346.763 356.779 346.598 357.513 346.535 358.259C346.44 359.043 346.386 359.843 346.35 360.646C346.276 362.25 346.275 363.868 346.293 365.485C346.338 368.721 346.487 371.963 346.672 375.202C347.055 381.68 347.561 388.153 348.189 394.622C348.811 401.087 349.495 407.547 350.242 414C350.324 414.815 350.435 415.596 350.586 416.401C350.706 417.211 350.801 418.027 350.863 418.847C350.989 420.493 350.925 422.148 350.672 423.779C350.422 425.43 349.858 427.017 349.009 428.455C348.149 429.934 346.854 431.113 345.3 431.829L345.294 431.831L345.277 431.836C338.747 433.664 332.128 435.162 325.447 436.323C322.093 436.896 318.708 437.27 315.309 437.443C313.594 437.522 311.876 437.47 310.168 437.289C309.299 437.194 308.439 437.025 307.597 436.786C307.162 436.662 306.739 436.5 306.332 436.303C306.119 436.2 305.913 436.08 305.718 435.944C305.477 435.789 305.268 435.588 305.104 435.353L305.045 435.27L305.034 435.126C303.705 417.808 302.293 400.496 301.046 383.172L299.171 357.187L297.419 331.193L297.416 331.152L297.417 331.115L298.034 306.991L298.748 282.869L299.504 258.748L300.34 234.628L300.543 234.633Z" fill="black"/>
<path d="M321.214 155.716C321.356 155.789 321.517 155.814 321.674 155.789C321.831 155.764 321.976 155.689 322.088 155.576C322.313 155.332 322.486 155.045 322.594 154.731C322.831 154.096 322.93 153.417 322.886 152.741L322.765 148.545L322.602 140.154C322.474 138.626 322.913 137.103 323.835 135.877C324.098 135.529 324.44 135.248 324.832 135.056C325.061 134.951 325.311 134.896 325.563 134.897C325.816 134.898 326.065 134.953 326.293 135.06C327.006 135.46 327.59 136.054 327.978 136.773C328.737 138.071 329.14 139.546 329.147 141.049L329.31 145.241L329.461 149.434C329.496 150.115 329.484 150.871 329.527 151.492C329.579 152.114 329.775 152.715 330.101 153.247C330.404 153.753 330.98 154.281 331.222 154.169C331.317 154.139 331.402 154.083 331.467 154.008C331.514 153.96 331.558 153.908 331.597 153.853C331.642 153.787 331.615 153.831 331.653 153.731C331.748 153.414 331.827 153.092 331.888 152.767C332.154 151.41 332.378 150.03 332.548 148.65C332.735 147.263 332.901 145.874 333.061 144.485L333.305 142.401C333.344 141.681 333.49 140.972 333.736 140.295C334.013 139.607 334.47 139.005 335.058 138.552C335.366 138.312 335.736 138.163 336.124 138.123C336.521 138.095 336.915 138.194 337.252 138.405C337.863 138.827 338.359 139.394 338.696 140.055C339.033 140.717 339.2 141.452 339.182 142.194V142.202L339.181 142.212C339.057 143.952 338.98 145.695 338.877 147.436L338.732 150.049L338.658 151.355C338.632 151.759 338.655 152.165 338.728 152.564C338.797 152.953 338.926 153.329 339.108 153.68C339.258 154.002 339.486 154.282 339.772 154.495C340.089 154.799 340.685 154.073 341.017 153.342C341.698 151.82 342.342 150.119 343.173 148.56C343.58 147.746 344.063 146.973 344.616 146.251C345.209 145.436 346.04 144.824 346.994 144.499C347.508 144.368 348.043 144.345 348.566 144.433C348.939 144.482 349.279 144.671 349.518 144.961C349.722 145.226 349.85 145.542 349.888 145.875C349.942 146.843 349.805 147.813 349.483 148.728C348.409 152.155 346.826 155.285 345.518 158.468C344.392 161.72 343.564 165.068 343.044 168.47C342.461 172.058 340.816 175.39 338.32 178.033C337.081 179.363 335.595 180.439 333.945 181.201C333.103 181.568 332.206 181.792 331.29 181.865C330.406 181.966 329.516 182.006 328.627 181.984C326.872 181.907 325.124 181.719 323.392 181.423C322.538 181.299 321.676 181.244 320.813 181.259C320.383 181.267 319.954 181.312 319.532 181.394C319.103 181.502 318.662 181.557 318.22 181.556V181.421C318.65 181.395 319.076 181.314 319.486 181.182C319.915 181.072 320.352 180.999 320.794 180.963C321.673 180.893 322.558 180.894 323.437 180.967C325.189 181.091 326.911 181.296 328.627 181.255C329.482 181.24 330.336 181.165 331.18 181.032C332.005 180.934 332.807 180.699 333.552 180.334C335.047 179.564 336.388 178.526 337.508 177.272C339.764 174.739 341.224 171.597 341.704 168.238C342.219 164.737 343.054 161.29 344.199 157.942C345.498 154.657 347.155 151.568 348.206 148.34C348.475 147.609 348.61 146.837 348.604 146.058C348.599 145.955 348.569 145.855 348.515 145.768C348.488 145.723 348.485 145.729 348.347 145.692C348.008 145.63 347.66 145.637 347.325 145.714C346.618 145.961 346.004 146.417 345.562 147.022C345.037 147.672 344.572 148.369 344.175 149.105C343.316 150.602 342.678 152.156 341.883 153.791C341.666 154.228 341.383 154.627 341.044 154.977C340.83 155.187 340.568 155.342 340.28 155.428C340.116 155.466 339.945 155.471 339.778 155.442C339.611 155.413 339.452 155.35 339.31 155.258C338.888 154.953 338.556 154.54 338.348 154.063C338.14 153.632 337.999 153.172 337.929 152.698C337.86 152.235 337.847 151.766 337.892 151.3L338.007 149.996L338.24 147.39C338.39 145.652 338.565 143.916 338.692 142.176L338.692 142.194C338.717 141.532 338.578 140.874 338.288 140.278C337.997 139.683 337.564 139.168 337.026 138.781C336.765 138.612 336.457 138.531 336.147 138.55C335.836 138.569 335.54 138.686 335.301 138.885C334.773 139.289 334.37 139.833 334.138 140.456C333.917 141.1 333.793 141.773 333.77 142.453L333.56 144.539C333.416 145.93 333.279 147.322 333.163 148.715C333.05 150.118 332.885 151.51 332.671 152.909C332.618 153.273 332.544 153.634 332.451 153.99C332.417 154.116 332.363 154.235 332.291 154.342C332.232 154.432 332.166 154.517 332.093 154.596C331.93 154.788 331.717 154.932 331.478 155.013C331.236 155.072 330.983 155.07 330.742 155.008C330.501 154.945 330.279 154.824 330.096 154.655C329.788 154.404 329.519 154.109 329.295 153.78C328.86 153.132 328.582 152.391 328.484 151.616C328.407 150.844 328.379 150.199 328.341 149.484L328.136 145.293L327.943 141.102C327.967 139.792 327.641 138.5 327 137.357C326.732 136.834 326.331 136.389 325.838 136.068C325.752 136.021 325.655 135.995 325.557 135.992C325.458 135.989 325.36 136.01 325.271 136.053C325.034 136.172 324.827 136.343 324.666 136.554C323.883 137.584 323.503 138.864 323.598 140.155L323.435 148.546L323.314 152.741C323.316 153.468 323.165 154.186 322.871 154.85C322.724 155.19 322.506 155.494 322.231 155.742C322.084 155.868 321.901 155.945 321.708 155.962C321.515 155.979 321.322 155.936 321.155 155.838L321.214 155.716Z" fill="black"/>
<path d="M320.095 165.537C321.376 166.188 322.535 167.057 323.52 168.104C324.56 169.118 325.312 170.39 325.699 171.79C324.901 170.644 324.008 169.567 323.03 168.57C322.074 167.557 321.068 166.593 320.095 165.537Z" fill="black"/>
<path d="M322.532 160.258C323.507 160.556 324.485 160.8 325.458 161.033C326.429 161.259 327.41 161.435 328.399 161.561C329.382 161.676 330.372 161.716 331.361 161.68C332.36 161.611 333.348 161.433 334.308 161.151C333.422 161.686 332.44 162.044 331.417 162.205C330.389 162.343 329.348 162.352 328.318 162.232C326.274 161.981 324.304 161.308 322.532 160.258Z" fill="black"/>
<path d="M317.192 182.131C317.192 182.131 352.338 216.946 376.702 207.687" stroke="black" stroke-width="0.67679" stroke-miterlimit="10"/>
<path d="M341.806 170.823C344.598 171.76 347.471 172.434 350.388 172.837C351.826 173.022 353.275 173.108 354.725 173.095C355.445 173.072 356.163 173.049 356.874 172.959C357.215 172.921 357.616 172.897 358.011 172.873C358.402 172.833 358.795 172.825 359.187 172.847C360.728 172.942 362.249 173.244 363.708 173.747C365.134 174.252 366.518 174.87 367.846 175.596C370.471 177.035 372.901 178.803 375.078 180.858C372.611 179.243 370.036 177.801 367.37 176.54C364.796 175.249 362.002 174.454 359.134 174.199C358.787 174.173 358.439 174.176 358.092 174.208C357.748 174.223 357.408 174.234 357.013 174.273C356.253 174.352 355.489 174.385 354.726 174.373C353.211 174.336 351.703 174.17 350.217 173.875C347.275 173.289 344.439 172.26 341.806 170.823Z" fill="black"/>
<path d="M341.806 206.956C343.18 208.689 344.705 210.297 346.362 211.762C349.648 214.7 353.354 217.132 357.356 218.98C359.369 219.898 361.436 220.692 363.545 221.356C362.464 221.114 361.368 220.895 360.301 220.575C359.244 220.227 358.173 219.905 357.149 219.457C352.992 217.77 349.207 215.283 346.007 212.139C344.393 210.596 342.982 208.854 341.806 206.956Z" fill="black"/>
<path d="M346.279 164.806C346.853 166.095 347.31 167.434 347.644 168.806C348.007 170.171 348.244 171.566 348.353 172.974C347.777 171.684 347.32 170.345 346.988 168.973C346.627 167.608 346.389 166.213 346.279 164.806Z" fill="black"/>
<path d="M344.297 138.004C345.41 137.029 346.596 136.142 347.845 135.35C349.097 134.552 350.403 133.842 351.752 133.225C353.118 132.611 354.556 132.174 356.032 131.925C356.779 131.815 357.536 131.799 358.286 131.876C359.035 131.962 359.752 132.225 360.378 132.644C359.017 132.126 357.527 132.054 356.123 132.437C354.71 132.756 353.336 133.227 352.025 133.843C350.688 134.428 349.382 135.079 348.11 135.795C346.826 136.498 345.564 137.245 344.297 138.004Z" fill="black"/>
<path d="M324.378 188.39C324.453 190.856 324.442 193.32 324.477 195.786L324.434 203.178C324.404 208.105 324.267 213.03 324.131 217.954C323.962 222.878 323.79 227.801 323.513 232.721L323.094 240.101C322.905 242.56 322.762 245.02 322.532 247.477C322.455 245.01 322.466 242.546 322.431 240.081L322.473 232.689C322.504 227.761 322.64 222.836 322.778 217.912C322.949 212.989 323.121 208.065 323.398 203.145L323.817 195.765C324.006 193.307 324.148 190.847 324.378 188.39Z" fill="black"/>
<path d="M316.745 239.541C319.588 239.184 322.437 238.914 325.282 238.598L333.829 237.797C339.528 237.264 345.233 236.837 350.939 236.411C356.647 236.017 362.356 235.626 368.072 235.339L376.646 234.914C379.507 234.821 382.365 234.682 385.23 234.631C382.387 234.989 379.539 235.259 376.693 235.576L368.146 236.378C362.448 236.909 356.742 237.336 351.036 237.761C345.328 238.153 339.619 238.545 333.904 238.83L325.33 239.256C322.468 239.35 319.61 239.488 316.745 239.541Z" fill="black"/>
<path d="M320.907 207.484C321.171 207.475 321.42 207.364 321.603 207.175C321.786 206.985 321.888 206.732 321.888 206.469C321.888 206.205 321.786 205.952 321.603 205.763C321.42 205.574 321.171 205.463 320.907 205.454C320.644 205.463 320.395 205.574 320.212 205.763C320.029 205.952 319.927 206.205 319.927 206.469C319.927 206.732 320.029 206.985 320.212 207.175C320.395 207.364 320.644 207.475 320.907 207.484Z" fill="black"/>
<path d="M318.958 225.757C319.221 225.748 319.471 225.637 319.654 225.448C319.837 225.259 319.939 225.006 319.939 224.742C319.939 224.479 319.837 224.226 319.654 224.036C319.471 223.847 319.221 223.736 318.958 223.727C318.695 223.736 318.446 223.847 318.263 224.036C318.08 224.226 317.978 224.479 317.978 224.742C317.978 225.006 318.08 225.259 318.263 225.448C318.446 225.637 318.695 225.748 318.958 225.757Z" fill="black"/>
<path d="M317.253 240.133C317.516 240.124 317.765 240.013 317.948 239.824C318.131 239.634 318.233 239.381 318.233 239.118C318.233 238.854 318.131 238.601 317.948 238.412C317.765 238.223 317.516 238.112 317.253 238.103C316.99 238.112 316.74 238.223 316.557 238.412C316.374 238.601 316.272 238.854 316.272 239.118C316.272 239.381 316.374 239.634 316.557 239.824C316.74 240.013 316.99 240.124 317.253 240.133Z" fill="black"/>
<path d="M321.882 191.16C322.145 191.151 322.394 191.04 322.577 190.85C322.76 190.661 322.863 190.408 322.863 190.145C322.863 189.881 322.76 189.628 322.577 189.439C322.394 189.249 322.145 189.139 321.882 189.129C321.619 189.139 321.369 189.249 321.187 189.439C321.004 189.628 320.901 189.881 320.901 190.145C320.901 190.408 321.004 190.661 321.187 190.85C321.369 191.04 321.619 191.151 321.882 191.16Z" fill="black"/>
<path d="M319.933 247.738C320.594 249.215 321.301 250.63 322.07 251.993C322.819 253.344 323.701 254.617 324.703 255.793C325.692 256.94 326.863 257.918 328.168 258.687C329.556 259.399 331.056 259.867 332.602 260.071C330.966 260.397 329.271 260.248 327.717 259.642C326.167 258.97 324.787 257.958 323.682 256.68C321.569 254.14 320.263 251.026 319.933 247.738L319.933 247.738Z" fill="black"/>
<path d="M335.445 247.477C334.08 254.759 333.037 262.094 332.068 269.433C331.121 276.776 330.251 284.129 329.569 291.5C328.169 306.235 327.099 321.007 326.715 335.804C326.653 337.653 326.547 339.501 326.513 341.351L326.42 346.9C326.38 350.6 326.244 354.3 326.285 358L326.378 369.101C326.383 370.951 326.411 372.801 326.49 374.65L326.656 380.199C326.99 395.003 328.186 409.766 329.435 424.532L328.161 413.491C327.745 409.809 327.296 406.128 327.044 402.43L326.199 391.343C326.038 389.495 325.957 387.644 325.875 385.792L325.615 380.238C324.876 365.425 324.947 350.582 325.364 335.759C325.862 320.937 326.92 306.148 328.538 291.393C329.347 284.023 330.33 276.673 331.417 269.34C332.604 262.023 333.865 254.716 335.445 247.477Z" fill="black"/>
<path d="M346.49 355.824C346.677 353.464 346.971 351.118 347.222 348.766L348.157 341.735C348.799 337.05 349.596 332.388 350.437 327.734C351.305 323.085 352.255 318.447 353.394 313.852C353.958 311.553 354.579 309.267 355.215 306.987L356.302 303.603C356.683 302.481 357.114 301.375 357.535 300.272L356.646 303.703L355.858 307.153C355.354 309.458 354.849 311.759 354.41 314.078C353.515 318.708 352.603 323.336 351.767 327.981L349.18 341.903L347.874 348.867L346.49 355.824Z" fill="black"/>
<path d="M352.101 335.824C355.33 338.65 358.501 341.54 361.703 344.396L371.208 353.071C377.535 358.864 383.779 364.746 390.069 370.58C396.284 376.493 402.538 382.364 408.715 388.317L417.962 397.267C421.011 400.286 424.091 403.272 427.112 406.321C423.881 403.495 420.71 400.606 417.508 397.751L408.002 389.076C401.678 383.28 395.43 377.401 389.143 371.565C382.931 365.649 376.673 359.782 370.498 353.826L361.251 344.877C358.202 341.858 355.122 338.873 352.101 335.824Z" fill="black"/>
<path d="M270.905 244.986C268.174 246.193 265.511 247.548 262.928 249.045C260.343 250.534 257.827 252.133 255.342 253.774C252.884 255.459 250.478 257.215 248.124 259.043C245.758 260.853 243.434 262.722 241.155 264.65L241.192 264.611C240.85 264.994 240.538 265.402 240.258 265.832C240.132 266.021 240.033 266.227 239.963 266.443C239.931 266.532 239.959 266.586 239.93 266.538C239.919 266.534 239.918 266.519 239.919 266.535C239.952 266.536 239.985 266.541 240.017 266.552L240.889 266.837L240.169 267.198C239.367 267.589 238.651 268.136 238.063 268.807C237.77 269.122 237.558 269.504 237.447 269.92C237.335 270.336 237.327 270.773 237.423 271.192C237.467 271.394 237.547 271.586 237.659 271.76C237.781 271.923 237.934 272.061 238.108 272.167C238.487 272.363 238.915 272.442 239.339 272.394C240.237 272.269 241.096 271.949 241.856 271.455L242.655 270.995L242.145 271.77C241.483 272.735 240.954 273.785 240.571 274.891C240.381 275.41 240.325 275.969 240.409 276.515C240.467 276.753 240.595 276.967 240.776 277.131C240.958 277.295 241.184 277.401 241.426 277.435L241.61 277.558C241.715 277.607 241.83 277.631 241.946 277.63C242.123 277.627 242.299 277.6 242.469 277.549C242.842 277.425 243.201 277.262 243.54 277.062C244.24 276.636 244.901 276.148 245.514 275.604C246.796 274.482 248.157 273.454 249.588 272.53C252.423 270.658 255.356 268.984 258.359 267.404L261.002 266.015L259.164 268.405C258.211 269.596 257.41 270.901 256.779 272.291C256.493 272.858 256.379 273.496 256.452 274.127C256.476 274.22 256.523 274.306 256.587 274.377C256.651 274.449 256.732 274.504 256.822 274.537C257.103 274.641 257.399 274.696 257.699 274.699L258.257 274.985C258.204 274.915 258.138 274.855 258.063 274.809L258.006 274.777C257.97 274.759 257.931 274.746 257.892 274.736C257.869 274.728 257.845 274.723 257.82 274.721L257.774 274.718C257.752 274.722 257.798 274.712 257.806 274.712C257.866 274.699 257.926 274.683 257.985 274.664C258.12 274.624 258.272 274.565 258.42 274.507C258.722 274.383 259.029 274.245 259.335 274.096C259.947 273.8 260.56 273.477 261.171 273.152C262.384 272.504 263.609 271.773 264.809 271.091C267.205 269.688 269.506 268.13 271.699 266.427C273.897 264.727 275.947 262.846 277.83 260.802C279.73 258.761 281.288 256.426 282.443 253.888L282.57 253.935C281.629 256.614 280.211 259.1 278.386 261.275C276.593 263.473 274.588 265.489 272.4 267.294C270.223 269.111 267.921 270.773 265.51 272.267C264.283 272.99 263.11 273.714 261.859 274.408C261.238 274.752 260.615 275.093 259.962 275.402C259.637 275.559 259.304 275.709 258.957 275.85C258.779 275.919 258.603 275.988 258.402 276.048C258.294 276.082 258.184 276.11 258.073 276.132C257.997 276.146 257.921 276.156 257.844 276.16C257.785 276.164 257.726 276.163 257.667 276.157C257.621 276.152 257.575 276.144 257.53 276.134C257.48 276.12 257.432 276.102 257.385 276.08L257.313 276.042C257.233 275.993 257.163 275.931 257.106 275.857L257.664 276.143C257.168 276.136 256.677 276.035 256.219 275.846C255.943 275.724 255.697 275.542 255.498 275.315C255.3 275.087 255.154 274.818 255.07 274.528C254.901 273.579 255.049 272.602 255.491 271.746C255.833 270.986 256.238 270.255 256.699 269.561C257.148 268.875 257.631 268.212 258.148 267.575L258.953 268.575C255.974 270.088 253.012 271.687 250.159 273.424C248.731 274.282 247.357 275.229 246.046 276.258C245.371 276.799 244.649 277.28 243.89 277.696C243.494 277.907 243.075 278.076 242.642 278.197C242.406 278.257 242.162 278.282 241.918 278.273C241.764 278.275 241.612 278.243 241.472 278.181C241.332 278.119 241.207 278.027 241.104 277.913L241.288 278.036C240.95 277.945 240.637 277.779 240.372 277.55C240.113 277.304 239.94 276.981 239.878 276.628C239.803 275.99 239.88 275.343 240.103 274.741C240.516 273.596 241.083 272.512 241.788 271.519L242.076 271.833C241.251 272.339 240.332 272.671 239.374 272.808C238.865 272.868 238.349 272.775 237.893 272.539C237.665 272.406 237.466 272.229 237.306 272.018C237.161 271.802 237.054 271.562 236.99 271.309C236.861 270.819 236.853 270.305 236.966 269.812C237.08 269.318 237.311 268.859 237.641 268.474C238.248 267.703 239.004 267.062 239.864 266.588L240.017 267.234C239.917 267.227 239.816 267.215 239.716 267.197C239.586 267.155 239.469 267.079 239.379 266.976C239.309 266.88 239.262 266.769 239.24 266.652C239.218 266.536 239.222 266.416 239.253 266.301C239.324 265.999 239.44 265.711 239.597 265.444C239.877 264.958 240.195 264.495 240.547 264.059L240.56 264.043L240.585 264.02C241.695 263.008 242.788 261.974 243.915 260.978C245.064 260.009 246.186 259.003 247.386 258.095C249.732 256.208 252.232 254.523 254.738 252.861C257.263 251.222 259.873 249.719 262.558 248.359C265.226 246.968 268.003 245.797 270.861 244.858L270.905 244.986Z" fill="black"/>
<path d="M254.758 261.439C252.556 263.057 250.386 264.715 248.248 266.415C247.184 267.269 246.128 268.133 245.099 269.024C244.067 269.886 243.109 270.833 242.233 271.853L241.7 271.436C242.644 270.417 243.672 269.48 244.774 268.635C245.847 267.78 246.941 266.957 248.042 266.146C250.251 264.532 252.489 262.963 254.758 261.439Z" fill="black"/>
<path d="M239.834 266.608L250.616 260.085L240.2 267.178L239.834 266.608Z" fill="black"/>
<path d="M312.867 437.018C312.867 437.018 318.227 437.689 296.786 449.14C275.346 460.592 268.523 461.81 268.523 468.388C268.523 468.388 276.076 479.109 328.948 464.734H330.545V466.683L345.272 465.708C345.272 465.708 346.246 446.46 342.104 440.856C342.104 440.856 340.401 434.041 342.105 432.332" fill="black"/>
<path d="M421.667 411.488C421.667 411.488 425.736 411.415 423.912 435.654C422.087 459.892 419.459 466.305 425.013 469.831C425.013 469.831 438.112 469.2 454.314 416.86L455.17 415.512L456.815 416.557L462.899 405.41C462.899 405.41 443.107 392.446 436.156 392.939" fill="black"/>
<path d="M323.067 112.147C323.067 112.147 334.147 97.338 323.263 98.1929" stroke="black" stroke-width="0.81402" stroke-miterlimit="10"/>
<path d="M322.038 115.415C328.827 112.147 331.439 106.23 331.83 99.6475C332.201 94.1843 330.534 88.7776 327.15 84.4722C324.893 81.4176 321.652 79.2345 317.974 78.2906C314.295 77.3467 310.403 77.6997 306.955 79.2903C307.837 83.3483 309.795 87.0944 312.623 90.1359C315.451 93.1774 319.044 95.4025 323.027 96.578L323.263 98.1928C323.263 98.1928 330.69 96.4744 326.755 105.744C325.653 107.949 324.422 110.087 323.067 112.147L322.038 115.415Z" fill="black"/>
<path d="M326.749 128.342C331.868 127.748 337.001 127.284 342.147 126.949C347.301 126.577 352.475 126.551 357.632 126.87C358.938 126.965 360.233 127.17 361.503 127.484C361.823 127.579 362.142 127.677 362.459 127.795C362.771 127.933 363.097 128.073 363.369 128.217C363.934 128.509 364.511 128.786 365.093 129.056C366.326 129.55 367.473 130.237 368.49 131.093C369.45 132.025 370.229 133.126 370.788 134.342C371.894 136.692 372.83 139.118 373.59 141.602C374.38 144.062 375.124 146.533 375.819 149.015C378.681 158.926 381.032 168.978 382.865 179.131C383.306 181.672 383.693 184.224 383.979 186.791C384.315 189.358 384.434 191.949 384.337 194.536C384.289 195.191 384.179 195.84 384.008 196.474C383.826 197.099 383.59 197.707 383.304 198.293C382.781 199.473 382.221 200.639 381.605 201.776C380.998 202.92 380.308 204.019 379.542 205.064C378.793 206.138 377.86 207.072 376.786 207.822L376.846 207.62C381.141 216.774 385.457 225.914 389.368 235.254C389.84 236.436 390.318 237.591 390.686 238.857L390.79 239.373C390.831 239.586 390.791 239.805 390.677 239.989C390.585 240.154 390.466 240.302 390.326 240.428C390.205 240.551 390.073 240.662 389.933 240.761C389.402 241.143 388.834 241.472 388.239 241.741C385.903 242.769 383.476 243.576 380.99 244.152C376.056 245.334 371.052 246.199 366.007 246.741C355.935 247.822 345.809 248.323 335.679 248.241C330.618 248.221 325.556 248.092 320.504 247.9L318.64 247.874C317.956 247.913 317.27 247.847 316.606 247.677C315.933 247.449 315.324 247.067 314.828 246.56C314.332 246.053 313.962 245.436 313.749 244.759C313.335 243.499 313.158 242.173 313.227 240.848C313.268 239.56 313.404 238.277 313.634 237.009L314.118 237.544C314.029 237.524 313.945 237.488 313.869 237.437C313.761 237.359 313.683 237.245 313.648 237.116C313.626 237.031 313.62 236.941 313.631 236.854L313.642 236.632L313.668 236.193L313.723 235.321L313.841 233.581L314.089 230.103L314.602 223.152L315.667 209.252L316.793 195.357C317.223 190.729 317.579 186.097 318.173 181.481C318.174 181.468 318.181 181.457 318.191 181.449C318.201 181.441 318.214 181.438 318.227 181.439C318.24 181.442 318.251 181.449 318.259 181.46C318.266 181.471 318.27 181.484 318.268 181.497C317.778 186.11 317.524 190.756 317.197 195.388L316.251 209.294L315.351 223.203L314.92 230.159L314.714 233.636L314.617 235.374L314.572 236.242L314.552 236.672L314.544 236.886C314.533 236.898 314.561 237.035 314.52 236.841C314.501 236.792 314.471 236.748 314.433 236.712C314.395 236.675 314.35 236.647 314.3 236.629C314.22 236.6 314.132 236.6 314.052 236.631L314.537 237.166C314.33 238.388 314.213 239.623 314.188 240.862C314.131 242.069 314.292 243.276 314.664 244.425C314.825 244.959 315.111 245.447 315.499 245.849C315.886 246.251 316.363 246.556 316.89 246.737C317.453 246.877 318.034 246.928 318.612 246.889L320.539 246.911C325.589 247.093 330.634 247.211 335.682 247.221C345.775 247.322 355.865 246.866 365.908 245.855C370.921 245.348 375.898 244.539 380.814 243.431C383.261 242.893 385.653 242.129 387.959 241.147C388.518 240.902 389.051 240.603 389.551 240.253C389.779 240.105 389.976 239.913 390.129 239.689C390.252 239.574 390.131 239.268 390.087 238.993C389.762 237.829 389.292 236.635 388.839 235.467C386.968 230.782 384.906 226.164 382.848 221.55C380.782 216.938 378.685 212.34 376.559 207.755C376.543 207.72 376.54 207.68 376.551 207.643C376.562 207.606 376.586 207.574 376.618 207.553C377.668 206.834 378.578 205.932 379.307 204.889C380.058 203.851 380.733 202.761 381.327 201.626C381.931 200.494 382.481 199.333 382.994 198.156C383.27 197.583 383.497 196.987 383.672 196.375C383.831 195.764 383.933 195.14 383.976 194.51C384.064 191.947 383.918 189.38 383.541 186.843C383.218 184.294 382.794 181.757 382.316 179.23C381.36 174.176 380.217 169.157 378.97 164.165C377.737 159.17 376.41 154.199 374.989 149.251C374.279 146.779 373.573 144.305 372.793 141.859C372.061 139.411 371.154 137.019 370.081 134.7C369.57 133.565 368.854 132.534 367.968 131.659C367.013 130.852 365.934 130.202 364.774 129.734C364.189 129.458 363.607 129.174 363.029 128.872C362.733 128.712 362.465 128.602 362.19 128.476C361.905 128.368 361.607 128.275 361.311 128.184C360.083 127.869 358.83 127.655 357.567 127.544C352.444 127.156 347.3 127.111 342.171 127.409C337.028 127.617 331.891 127.96 326.76 128.439C326.747 128.44 326.735 128.436 326.725 128.428C326.715 128.42 326.709 128.408 326.707 128.396C326.706 128.383 326.709 128.37 326.717 128.36C326.725 128.35 326.737 128.344 326.749 128.342L326.749 128.342Z" fill="black"/>
</svg>
