<svg width="700" height="550" viewBox="0 0 700 550" fill="none" xmlns="http://www.w3.org/2000/svg">
<path d="M290.113 413.305C289.554 414.765 288.994 416.216 288.434 417.676C285.186 415.489 282.369 412.723 280.124 409.516C280.924 406.585 281.704 403.795 282.474 401.125C282.556 402.726 282.907 404.302 283.514 405.785C283.82 406.531 284.188 407.251 284.613 407.935C285.027 408.636 285.503 409.299 286.034 409.915C287.183 411.277 288.564 412.425 290.113 413.305Z" fill="black"/>
<path d="M308.514 415.735C310.083 415.425 311.654 415.135 313.204 414.785L308.824 423.415C301.578 423.817 294.405 421.797 288.434 417.675L290.264 413.385C291.5 414.09 292.811 414.654 294.174 415.065C295.723 415.542 297.313 415.877 298.924 416.065C299.724 416.175 300.524 416.135 301.333 416.185C302.133 416.195 302.944 416.275 303.744 416.205C305.333 416.045 306.934 415.975 308.514 415.735Z" fill="black"/>
<path d="M378.034 420.145C378.244 422.625 378.434 425.115 378.634 427.595C371.674 427.905 365.603 427.635 365.603 427.635C365.603 427.005 365.074 424.185 364.194 419.945C367.103 420.335 370.039 420.495 372.974 420.425C374.664 420.405 376.353 420.305 378.034 420.145Z" fill="black"/>
<path d="M377.144 410.075C377.434 413.115 377.707 416.155 377.964 419.195C376.293 419.385 374.624 419.535 372.944 419.665C371.494 419.785 370.034 419.845 368.583 419.875C367.123 419.945 365.664 419.945 364.194 419.945C359.984 399.615 347.784 346.695 347.784 346.695L313.204 414.785C311.614 414.915 310.034 415.095 308.464 415.255C306.884 415.395 305.304 415.365 303.724 415.435C302.944 415.455 302.154 415.335 301.374 415.305C300.594 415.245 299.804 415.255 299.034 415.125C297.487 414.921 295.962 414.583 294.474 414.115C293.141 413.715 291.854 413.175 290.634 412.505L300.074 390.325C303.954 381.205 307.793 372.075 311.754 362.995C315.634 353.885 319.607 344.815 323.674 335.785C325.704 331.265 327.774 326.765 329.934 322.315C331.024 320.095 332.113 317.865 333.284 315.695C333.874 314.595 334.474 313.525 335.124 312.465C335.739 311.394 336.459 310.385 337.274 309.455C336.42 310.355 335.656 311.337 334.994 312.385C334.313 313.425 333.674 314.485 333.054 315.565C331.813 317.705 330.654 319.905 329.494 322.095C327.234 326.505 325.094 330.975 322.974 335.455C318.764 344.435 314.793 353.515 310.834 362.595C306.954 371.715 303.104 380.845 299.364 390.025C296.344 397.465 293.377 404.929 290.464 412.415C289.029 411.617 287.727 410.602 286.604 409.405C284.461 407.099 283.027 404.224 282.474 401.125V401.105C297.864 347.325 305.984 344.285 309.594 326.155C311.778 315.446 313.383 304.627 314.404 293.745C315.511 294.631 316.923 295.044 318.333 294.895C318.333 294.895 317.583 298.965 321.504 298.965H327.244C327.244 298.965 326.494 302.135 330.414 301.985C332.864 301.895 334.604 300.745 336.624 299.855C338.378 299.084 339.869 297.816 340.912 296.208C341.955 294.6 342.505 292.722 342.494 290.805C342.482 289.976 342.429 289.149 342.334 288.325L345.074 287.795C348.564 288.105 352.124 288.275 355.684 288.235C356.793 299.971 358.498 311.643 360.793 323.205C361.934 329.005 363.324 334.775 364.974 340.465C365.744 343.315 366.814 346.125 367.614 348.935C368.534 351.725 369.154 354.615 369.854 357.475C372.26 369.033 374.083 380.704 375.314 392.445C376.014 398.315 376.594 404.195 377.144 410.075Z" fill="black"/>
<path d="M397.694 412.565C397.083 412.975 396.484 413.385 395.884 413.805C395.274 414.196 394.639 414.547 393.984 414.855C393.664 415.025 393.354 415.215 393.034 415.375L392.024 415.785C391.37 416.088 390.699 416.352 390.014 416.575C389.324 416.795 388.634 417.015 387.954 417.245L385.853 417.795C385.153 417.995 384.444 418.115 383.734 418.265C383.024 418.415 382.313 418.575 381.594 418.665C380.474 418.865 379.344 419.025 378.214 419.165C377.714 410.215 376.984 401.285 376.083 392.365C374.96 380.576 373.204 368.856 370.824 357.255C370.113 354.375 369.474 351.475 368.524 348.655C367.684 345.785 366.634 343.065 365.844 340.205C364.164 334.555 362.793 328.815 361.543 323.045C360.304 317.275 359.224 311.465 358.264 305.635C357.284 299.855 356.427 294.055 355.694 288.235C359.825 288.209 363.947 287.858 368.024 287.185C369.778 287.085 371.476 286.528 372.948 285.568C374.419 284.609 375.614 283.28 376.414 281.715C380.603 324.185 391.614 371.015 397.694 412.565Z" fill="black"/>
<path d="M378.634 427.595C378.524 425.105 378.4 422.612 378.264 420.115C379.434 419.995 380.604 419.855 381.764 419.655C384.683 419.19 387.541 418.398 390.284 417.295C393.034 416.208 395.55 414.603 397.694 412.565C398.103 415.295 398.483 418.005 398.833 420.695C399.484 425.605 388.224 427.155 378.634 427.595Z" fill="black"/>
<path d="M342.953 113.514C342.953 113.514 358.055 129.522 360.471 129.522C360.471 129.522 356.544 134.053 356.544 136.469C356.544 136.469 341.14 122.575 338.422 117.139L342.953 113.514Z" fill="black"/>
<path d="M342.235 287.412C344.391 287.529 346.538 287.677 348.69 287.716C350.842 287.757 352.99 287.765 355.136 287.713C357.281 287.655 359.42 287.525 361.549 287.306C363.676 287.075 365.799 286.829 367.899 286.446L367.928 286.441L368.036 286.436C369.544 286.338 371.001 285.853 372.267 285.028C373.554 284.197 374.628 283.075 375.402 281.752C376.938 278.977 377.769 275.867 377.82 272.696C377.966 269.445 377.78 266.187 377.264 262.974C377.023 261.36 376.71 259.74 376.43 258.105L375.645 253.204C374.606 246.664 374.09 240.068 373.331 233.517C372.571 226.96 371.678 220.418 370.861 213.871C369.222 200.777 367.446 187.707 365.532 174.664C364.571 168.144 363.566 161.631 362.305 155.171C361.699 151.936 361.008 148.718 360.163 145.545C359.961 144.748 359.742 143.958 359.5 143.175C359.281 142.382 359.006 141.612 358.733 140.84C358.241 139.283 357.478 137.825 356.478 136.534L356.609 136.397C357.749 137.628 358.645 139.065 359.248 140.631C359.577 141.395 359.908 142.16 360.182 142.944C360.476 143.722 360.762 144.503 361.004 145.296C362.012 148.458 362.865 151.664 363.632 154.886C365.118 161.34 366.353 167.843 367.434 174.367C369.581 187.418 371.066 200.556 372.39 213.699C373.054 220.271 373.543 226.86 374.097 233.44L374.966 243.305C375.276 246.584 375.746 249.848 376.341 253.088C376.906 256.346 377.719 259.504 378.394 262.777C379.086 266.059 379.424 269.406 379.4 272.76C379.437 276.223 378.549 279.633 376.829 282.639C375.909 284.179 374.622 285.468 373.084 286.392C371.546 287.316 369.803 287.846 368.011 287.935L368.148 287.925C365.998 288.274 363.831 288.514 361.656 288.643C359.484 288.768 357.309 288.804 355.14 288.766C352.972 288.735 350.808 288.615 348.65 288.406C346.494 288.216 344.347 287.933 342.213 287.599L342.235 287.412Z" fill="black"/>
<path d="M316.858 282.456C314.961 282.015 313.08 281.509 311.206 280.972C309.331 280.433 307.469 279.874 305.62 279.203L305.211 279.055L305.331 278.564C305.68 276.872 305.92 275.159 306.049 273.436L306.526 268.171L307.398 257.617C307.915 250.574 308.611 243.542 309.347 236.513C310.923 222.46 311.808 208.354 312.579 194.236C312.994 187.179 313.489 180.127 314.065 173.08C314.629 166.031 315.219 158.984 316.114 151.95C316.335 150.191 316.582 148.431 316.856 146.671C317.11 144.876 317.526 143.108 318.097 141.387C319.268 137.964 320.938 134.733 323.053 131.798C327.276 126.043 332.457 121.057 338.369 117.058L338.478 117.212C335.738 119.424 333.156 121.826 330.753 124.4C328.339 126.933 326.158 129.679 324.237 132.604C322.299 135.469 320.794 138.604 319.771 141.907C319.283 143.559 318.936 145.249 318.733 146.959C318.489 148.694 318.268 150.436 318.073 152.186C317.299 159.187 316.604 166.216 315.908 173.243L313.87 194.339C312.389 208.397 311.148 222.477 310.519 236.604C310.149 243.664 309.728 250.721 309.028 257.758L307.959 268.315C307.772 270.075 307.534 271.83 307.285 273.586C307.071 275.381 306.734 277.158 306.276 278.906L305.987 278.267C307.77 278.986 309.589 279.681 311.408 280.351C313.233 281.012 315.07 281.643 316.91 282.274L316.858 282.456Z" fill="black"/>
<path d="M336.006 124.992L342.35 132.146C344.459 134.527 346.563 136.908 348.72 139.238C350.854 141.589 353.036 143.893 355.289 146.122C357.516 148.388 359.893 150.502 362.403 152.45C359.597 150.893 356.984 149.01 354.619 146.84C353.395 145.801 352.269 144.663 351.107 143.559C349.992 142.413 348.87 141.27 347.793 140.088C345.639 137.724 343.563 135.292 341.598 132.772C339.62 130.264 337.743 127.675 336.006 124.992Z" fill="black"/>
<path d="M327.246 142.51C328.89 141.76 330.62 141.217 332.398 140.893C334.183 140.535 336.005 140.391 337.825 140.466C339.669 140.528 341.488 140.909 343.202 141.592C344.907 142.292 346.387 143.445 347.483 144.927C346.101 143.854 344.538 143.037 342.867 142.515C342.448 142.412 342.032 142.305 341.62 142.187C341.201 142.094 340.77 142.043 340.347 141.968C339.922 141.891 339.494 141.838 339.063 141.809C338.633 141.758 338.201 141.729 337.768 141.723C336.022 141.646 334.273 141.693 332.534 141.862C330.781 142.021 329.024 142.239 327.246 142.51Z" fill="black"/>
<path d="M322.716 260.307C324.661 261.051 326.599 261.744 328.546 262.39C330.499 263.016 332.454 263.616 334.44 264.064C336.419 264.527 338.427 264.854 340.451 265.042C342.494 265.186 344.547 265.117 346.577 264.838C344.615 265.61 342.527 266.012 340.418 266.023C338.31 266.013 336.209 265.767 334.155 265.289C332.116 264.801 330.124 264.137 328.199 263.305C326.273 262.497 324.435 261.492 322.716 260.307Z" fill="black"/>
<path d="M362.887 189.063C363.132 189.054 363.364 188.951 363.534 188.775C363.704 188.599 363.799 188.364 363.799 188.119C363.799 187.874 363.704 187.639 363.534 187.463C363.364 187.286 363.132 187.183 362.887 187.175C362.643 187.183 362.411 187.286 362.241 187.463C362.071 187.639 361.976 187.874 361.976 188.119C361.976 188.364 362.071 188.599 362.241 188.775C362.411 188.951 362.643 189.054 362.887 189.063Z" fill="black"/>
<path d="M366.512 216.548C366.757 216.54 366.988 216.437 367.159 216.261C367.329 216.085 367.424 215.849 367.424 215.605C367.424 215.36 367.329 215.124 367.159 214.948C366.988 214.772 366.757 214.669 366.512 214.661C366.267 214.669 366.035 214.772 365.865 214.948C365.695 215.124 365.6 215.36 365.6 215.605C365.6 215.849 365.695 216.085 365.865 216.261C366.035 216.437 366.267 216.54 366.512 216.548Z" fill="black"/>
<path d="M369.834 237.691C370.079 237.683 370.311 237.58 370.481 237.404C370.651 237.228 370.746 236.992 370.746 236.748C370.746 236.503 370.651 236.268 370.481 236.091C370.311 235.915 370.079 235.812 369.834 235.804C369.59 235.812 369.358 235.915 369.188 236.091C369.018 236.268 368.923 236.503 368.923 236.748C368.923 236.992 369.018 237.228 369.188 237.404C369.358 237.58 369.59 237.683 369.834 237.691Z" fill="black"/>
<path d="M373.761 263.365C374.006 263.357 374.237 263.254 374.408 263.078C374.578 262.902 374.673 262.666 374.673 262.421C374.673 262.177 374.578 261.941 374.408 261.765C374.237 261.589 374.006 261.486 373.761 261.478C373.516 261.486 373.284 261.589 373.114 261.765C372.944 261.941 372.849 262.177 372.849 262.421C372.849 262.666 372.944 262.902 373.114 263.078C373.284 263.254 373.516 263.357 373.761 263.365Z" fill="black"/>
<path d="M343.765 273.744C344.039 274.894 344.248 276.058 344.393 277.231C344.556 278.415 344.605 279.613 344.539 280.806C344.512 281.428 344.403 282.044 344.215 282.637C343.997 283.262 343.771 283.721 343.59 284.287C343.195 285.354 342.907 286.458 342.732 287.582L342.731 287.443C342.932 288.55 342.938 289.69 343.045 290.816C343.064 291.99 342.872 293.157 342.478 294.263C341.683 296.472 340.138 298.332 338.113 299.519C337.616 299.801 337.102 300.05 336.572 300.264L335.057 300.924C334.039 301.407 332.97 301.775 331.87 302.021C330.749 302.284 329.577 302.238 328.481 301.886C327.91 301.668 327.45 301.232 327.2 300.675C326.97 300.118 326.911 299.505 327.029 298.914L327.243 299.186C325.278 299.185 323.331 299.28 321.35 299.301C320.796 299.335 320.242 299.232 319.737 298.999C319.233 298.767 318.793 298.414 318.458 297.971C317.876 297.025 317.657 295.9 317.84 294.804L318.347 295.397C317.601 295.438 316.852 295.378 316.123 295.218C315.346 295.053 314.624 294.695 314.023 294.177C313.422 293.63 312.986 292.925 312.765 292.144C312.545 291.382 312.486 290.583 312.592 289.797L312.967 290.48C312.261 290.2 311.577 289.868 310.921 289.486C310.165 289.08 309.54 288.466 309.12 287.717C308.893 287.232 308.861 286.678 309.031 286.17C309.195 285.725 309.465 285.326 309.816 285.006C310.465 284.418 311.288 284.055 312.16 283.973C313.48 283.896 314.746 283.418 315.788 282.603C316.765 281.753 317.372 280.556 317.479 279.265L317.482 279.324L317.393 277.431C317.413 276.798 317.431 276.164 317.472 275.533C317.592 274.265 317.881 273.018 318.33 271.826C318.774 270.63 319.447 269.532 320.31 268.592C321.16 267.653 322.236 266.945 323.435 266.535L323.472 266.655C322.372 267.17 321.411 267.941 320.67 268.903C319.937 269.853 319.381 270.926 319.027 272.072C318.683 273.219 318.484 274.405 318.434 275.602C318.419 276.203 318.426 276.805 318.43 277.405L318.585 279.207L318.589 279.249L318.588 279.265C318.566 280.076 318.381 280.873 318.044 281.61C317.706 282.347 317.224 283.009 316.625 283.555C315.397 284.57 313.887 285.183 312.299 285.313C311.718 285.365 311.169 285.602 310.732 285.988C310.544 286.156 310.397 286.364 310.301 286.597C310.269 286.689 310.256 286.787 310.262 286.885C310.269 286.982 310.294 287.078 310.338 287.165C310.644 287.678 311.08 288.101 311.603 288.39C312.192 288.748 312.806 289.062 313.44 289.331L313.889 289.531L313.815 290.014C313.729 290.616 313.763 291.229 313.917 291.817C314.063 292.391 314.367 292.913 314.795 293.323C315.795 294.108 317.053 294.49 318.321 294.394L318.924 294.388L318.827 294.986C318.661 295.839 318.786 296.723 319.18 297.497C319.425 297.849 319.753 298.136 320.135 298.33C320.517 298.524 320.942 298.62 321.371 298.61C322.33 298.654 323.326 298.665 324.302 298.694C325.282 298.725 326.263 298.739 327.243 298.744L327.512 298.745L327.459 299.016C327.353 299.516 327.394 300.036 327.577 300.513C327.677 300.744 327.82 300.954 328.001 301.129C328.181 301.305 328.394 301.443 328.628 301.535C329.653 301.851 330.745 301.872 331.781 301.597C332.836 301.327 333.851 300.92 334.8 300.386C335.768 299.849 336.821 299.418 337.684 298.837C339.433 297.638 340.744 295.904 341.422 293.895C341.756 292.906 341.931 291.871 341.941 290.827C341.861 289.75 341.886 288.665 341.716 287.588L341.705 287.513L341.716 287.448C341.928 286.253 342.261 285.082 342.711 283.954C342.919 283.41 343.238 282.822 343.431 282.347C343.627 281.829 343.755 281.287 343.81 280.735C343.927 279.584 343.961 278.426 343.91 277.27C343.868 276.103 343.767 274.933 343.642 273.767L343.765 273.744Z" fill="black"/>
<path d="M313.201 289.593L315.888 289.672C316.761 289.761 317.643 289.682 318.487 289.439C319.327 289.167 320.092 288.704 320.723 288.087L322.716 286.283L320.832 288.201C320.213 288.878 319.446 289.404 318.591 289.736C317.724 290.042 316.807 290.18 315.888 290.144L313.201 290.222V289.593Z" fill="black"/>
<path d="M318.336 294.576L321.157 294.646C322.073 294.619 322.968 294.362 323.76 293.899C324.545 293.394 325.237 292.757 325.806 292.018L327.699 289.907L325.926 292.119C325.382 292.911 324.706 293.604 323.927 294.166C323.106 294.707 322.163 295.035 321.184 295.117L318.336 295.206L318.336 294.576Z" fill="black"/>
<path d="M327.172 298.663C328.014 298.472 328.92 298.33 329.708 298.098C330.514 297.832 331.247 297.384 331.852 296.789C332.434 296.15 332.927 295.435 333.316 294.663L334.646 292.399L333.454 294.739C333.102 295.554 332.639 296.316 332.08 297.006C331.471 297.681 330.714 298.207 329.868 298.541C328.993 298.854 328.171 299.026 327.32 299.275L327.172 298.663Z" fill="black"/>
<path d="M335.099 268.802C335.344 268.794 335.576 268.691 335.746 268.515C335.916 268.339 336.011 268.103 336.011 267.858C336.011 267.614 335.916 267.378 335.746 267.202C335.576 267.026 335.344 266.923 335.099 266.915C334.855 266.923 334.623 267.026 334.453 267.202C334.283 267.378 334.188 267.614 334.188 267.858C334.188 268.103 334.283 268.339 334.453 268.515C334.623 268.691 334.855 268.794 335.099 268.802Z" fill="black"/>
<path d="M351.367 232.76C353.163 232.384 354.933 231.891 356.666 231.285C357.498 230.977 358.299 230.592 359.059 230.135C359.755 229.774 360.28 229.153 360.521 228.407L361.463 223.438L361.64 228.506C361.771 232.248 361.384 235.996 361.456 239.737C361.488 243.478 361.855 247.216 361.937 250.96L362.028 256.581L362.012 257.989C362.018 258.481 361.997 258.974 361.948 259.464C361.798 260.52 361.345 261.51 360.646 262.315C359.944 263.103 359.026 263.668 358.007 263.941C357.066 264.169 356.106 264.31 355.138 264.36C354.168 264.426 353.192 264.348 352.245 264.127C351.764 264.021 351.311 263.818 350.912 263.531C350.512 263.244 350.176 262.878 349.924 262.456L350.03 262.388C350.619 263.076 351.456 263.504 352.358 263.579C353.255 263.685 354.163 263.659 355.052 263.502C355.946 263.364 356.83 263.166 357.697 262.91C358.473 262.638 359.157 262.156 359.673 261.516C360.188 260.877 360.515 260.106 360.616 259.291C360.66 258.915 360.658 258.43 360.669 257.965L360.692 256.567L360.808 250.964C360.865 247.226 361.149 243.482 361.077 239.742C361.044 236.001 360.531 232.268 360.51 228.529L361.629 228.628C361.475 229.146 361.216 229.626 360.868 230.039C360.52 230.452 360.092 230.789 359.608 231.029C358.763 231.494 357.864 231.855 356.931 232.103C355.12 232.594 353.256 232.857 351.38 232.886L351.367 232.76Z" fill="black"/>
<path d="M369.457 195.656C370.3 193.613 371.752 191.88 373.614 190.691C374.568 190.273 375.491 189.787 376.376 189.238C377.22 188.645 378.026 187.999 378.789 187.305C379.594 186.628 380.377 185.932 381.138 185.215C381.523 184.862 381.897 184.499 382.258 184.127L382.787 183.562C382.949 183.38 383.132 183.179 383.361 182.953C383.798 182.543 384.33 182.248 384.909 182.093C385.487 181.938 386.095 181.929 386.679 182.066C387.226 182.194 387.732 182.46 388.147 182.839C388.563 183.218 388.874 183.697 389.052 184.23C388.793 183.792 388.434 183.422 388.003 183.152C387.572 182.881 387.083 182.717 386.576 182.674C386.11 182.629 385.64 182.694 385.203 182.862C384.766 183.03 384.374 183.298 384.059 183.644C383.924 183.805 383.765 184.01 383.595 184.242C383.425 184.456 383.25 184.667 383.071 184.871C382.714 185.282 382.348 185.681 381.971 186.067C381.211 186.834 380.414 187.555 379.606 188.26C378.788 188.984 377.919 189.648 377.005 190.246C376.061 190.779 375.07 191.223 374.043 191.571C373.128 192.005 372.294 192.593 371.577 193.308C370.806 194.03 370.097 194.816 369.457 195.656Z" fill="black"/>
<path d="M385.312 182.407C385.528 184.414 385.823 186.402 386.165 188.373C386.501 190.335 386.941 192.279 387.482 194.195C387.995 196.08 388.759 197.888 389.754 199.57C390.183 200.387 390.785 201.101 391.517 201.663C392.25 202.225 393.096 202.62 393.997 202.822L394.029 202.827L394.076 202.839C394.446 202.947 394.835 202.975 395.217 202.919C395.599 202.864 395.964 202.728 396.289 202.519C396.9 201.959 397.29 201.197 397.388 200.374C397.51 199.471 397.532 198.558 397.452 197.651C397.4 196.725 397.215 195.811 397.094 194.877C397.411 195.765 397.666 196.673 397.858 197.595C398.075 198.535 398.161 199.499 398.113 200.462C398.083 201.52 397.643 202.525 396.885 203.263C396.457 203.62 395.943 203.858 395.393 203.952C394.854 204.045 394.302 204.029 393.769 203.905L393.848 203.922C392.738 203.788 391.688 203.348 390.813 202.652C389.977 201.973 389.261 201.157 388.695 200.24C387.631 198.456 386.851 196.518 386.381 194.495C385.895 192.516 385.569 190.502 385.406 188.472C385.229 186.455 385.198 184.428 385.312 182.407Z" fill="black"/>
<path d="M380.832 186.329C380.835 188.568 380.945 190.798 381.163 193.017C381.363 195.231 381.727 197.427 382.251 199.588C382.74 201.747 383.522 203.829 384.577 205.775C385.621 207.742 387.165 209.4 389.052 210.582C387.004 209.582 385.3 207.994 384.16 206.02C383.013 204.063 382.164 201.945 381.641 199.738C381.132 197.541 380.811 195.305 380.683 193.054C380.543 190.812 380.593 188.562 380.832 186.329Z" fill="black"/>
<path d="M384.408 196.274C384.653 196.266 384.884 196.162 385.055 195.986C385.225 195.81 385.32 195.575 385.32 195.33C385.32 195.085 385.225 194.85 385.055 194.674C384.884 194.498 384.653 194.395 384.408 194.386C384.163 194.395 383.931 194.498 383.761 194.674C383.591 194.85 383.496 195.085 383.496 195.33C383.496 195.575 383.591 195.81 383.761 195.986C383.931 196.162 384.163 196.266 384.408 196.274Z" fill="black"/>
<path d="M372.897 225.466C374.308 222.844 376.101 220.447 378.218 218.352C380.315 216.193 382.753 214.393 385.434 213.025C386.108 212.687 386.799 212.384 387.504 212.116L388.562 211.725L389.054 211.537L389.546 211.328C390.868 210.751 392.142 210.074 393.36 209.302C395.833 207.858 397.88 205.786 399.292 203.294L399.308 203.262C399.65 202.544 399.886 201.779 400.007 200.993C400.135 200.176 400.204 199.351 400.213 198.524C400.225 197.687 400.184 196.85 400.089 196.018C399.989 195.184 399.855 194.351 399.699 193.518L400.084 194.73C400.19 195.141 400.296 195.553 400.387 195.969C400.568 196.806 400.696 197.653 400.768 198.506C400.842 199.368 400.831 200.235 400.738 201.095C400.656 201.989 400.438 202.866 400.09 203.694L400.105 203.662C398.773 206.431 396.658 208.748 394.021 210.327C392.759 211.154 391.428 211.873 390.044 212.476L389.516 212.693L388.973 212.895L387.951 213.26C387.275 213.509 386.612 213.792 385.964 214.107C385.306 214.4 384.687 214.775 384.046 215.104C383.433 215.487 382.81 215.856 382.215 216.268C381.01 217.081 379.861 217.974 378.775 218.941C376.583 220.894 374.612 223.083 372.897 225.466Z" fill="black"/>
<path d="M385.686 188.101C385.931 187.26 386.298 186.46 386.775 185.725C387.253 184.97 387.89 184.329 388.642 183.847C389.421 183.356 390.338 183.13 391.256 183.204C392.16 183.274 393.041 183.523 393.849 183.934L393.853 183.936L393.896 183.964C394.008 184.037 394.135 184.083 394.269 184.096C394.317 184.099 394.365 184.09 394.409 184.069C394.453 184.048 394.49 184.016 394.519 183.977C394.691 183.706 394.787 183.394 394.797 183.074C394.834 182.304 394.805 181.533 394.71 180.769C394.576 179.164 394.572 177.551 394.698 175.945C394.756 175.115 394.903 174.294 395.135 173.496C395.207 173.271 395.303 173.055 395.421 172.851C395.502 172.696 395.617 172.562 395.758 172.457C395.898 172.353 396.06 172.282 396.232 172.25C396.428 172.231 396.625 172.27 396.799 172.362C396.91 172.416 397.017 172.478 397.118 172.548C397.312 172.679 397.49 172.831 397.651 173C398.774 174.316 399.407 175.98 399.443 177.71C399.473 179.317 399.497 180.889 399.677 182.396C399.699 182.565 399.732 182.732 399.777 182.896C399.779 182.944 399.859 183.042 399.751 182.915C399.727 182.892 399.7 182.874 399.67 182.861C399.616 182.83 399.555 182.811 399.492 182.807C399.394 182.799 399.296 182.822 399.212 182.874C399.127 182.937 399.145 182.931 399.145 182.931C399.306 182.61 399.449 182.28 399.575 181.944C399.848 181.221 400.081 180.484 400.274 179.735C400.697 178.277 400.847 176.752 400.717 175.239C400.577 174.413 400.562 173.57 400.675 172.739C400.761 171.884 401.03 171.057 401.462 170.315L401.677 170.032C401.769 169.944 401.871 169.859 401.97 169.777C402.095 169.705 402.227 169.644 402.363 169.598C402.514 169.577 402.666 169.573 402.817 169.587C403.289 169.737 403.69 170.051 403.949 170.473C404.418 171.147 404.803 171.875 405.096 172.642C405.383 173.412 405.559 174.219 405.618 175.038C405.649 175.445 405.649 175.852 405.648 176.25C405.635 176.661 405.587 177.07 405.503 177.472C405.225 179.036 404.774 180.598 404.579 182.11C404.577 182.144 404.578 182.179 404.581 182.214C404.564 182.203 404.62 182.211 404.486 182.123C404.434 182.108 404.465 182.11 404.452 182.112C404.525 182.089 404.597 182.059 404.664 182.022C404.827 181.931 404.982 181.827 405.129 181.71C405.429 181.472 405.704 181.204 405.95 180.91C406.435 180.31 406.81 179.629 407.057 178.899C407.433 177.378 407.598 175.813 407.549 174.247C407.533 172.649 407.608 171.052 407.772 169.462C407.843 168.597 408.22 167.785 408.835 167.173C409.153 166.851 409.542 166.608 409.97 166.463C410.399 166.318 410.856 166.277 411.304 166.341C411.776 166.445 412.196 166.712 412.491 167.095C412.759 167.449 412.958 167.851 413.077 168.279C413.3 169.072 413.435 169.887 413.477 170.71C413.576 172.316 413.563 173.926 413.438 175.529C413.376 176.33 413.301 177.128 413.185 177.931C413.132 178.354 413.048 178.771 412.936 179.182L412.903 179.32C412.905 179.309 412.904 179.298 412.9 179.288C412.893 179.289 412.893 179.267 412.869 179.199C412.817 179.111 412.736 179.045 412.639 179.012C412.507 178.988 412.555 179.012 412.599 178.981C412.658 178.954 412.716 178.923 412.771 178.889C413.338 178.478 413.804 177.944 414.134 177.326C414.457 176.683 414.642 175.98 414.677 175.261C414.823 173.732 414.822 172.149 414.83 170.567C414.84 169.764 414.822 168.997 414.889 168.128L414.911 167.95L414.922 167.861L414.964 167.704C415.004 167.575 415.058 167.452 415.126 167.336C415.217 167.16 415.321 166.966 415.437 166.778C415.683 166.351 416.018 165.982 416.419 165.695C416.674 165.53 416.965 165.429 417.268 165.403C417.571 165.377 417.875 165.426 418.155 165.545C418.626 165.751 419.035 166.077 419.34 166.491C419.837 167.24 420.157 168.093 420.273 168.984C420.52 170.592 420.628 172.218 420.595 173.844L420.593 175.031L420.603 175.583C420.622 175.75 420.653 175.916 420.695 176.08C420.879 176.907 420.958 177.755 420.932 178.602C420.902 179.484 420.695 180.351 420.323 181.152C419.941 181.964 419.351 182.661 418.613 183.172C417.239 184.138 415.863 184.88 414.473 185.672L406.129 190.258C403.346 191.775 400.56 193.287 397.825 194.884C396.463 195.69 395.097 196.488 393.763 197.339C393.113 197.785 392.44 198.206 391.814 198.685L390.88 199.41L390.046 200.239L389.945 200.163L390.753 199.27L391.658 198.487C392.265 197.968 392.917 197.511 393.55 197.026C394.849 196.107 396.162 195.209 397.507 194.36C400.193 192.66 402.922 191.034 405.659 189.427L413.889 184.659C415.241 183.858 416.631 183.032 417.847 182.169C418.413 181.752 418.872 181.207 419.185 180.577C419.498 179.948 419.657 179.253 419.647 178.55C419.666 177.81 419.591 177.07 419.426 176.349C419.37 176.128 419.33 175.904 419.307 175.677C419.294 175.442 419.291 175.241 419.291 175.039L419.287 173.848C419.311 172.301 419.203 170.755 418.964 169.227C418.871 168.542 418.64 167.883 418.286 167.289C418.122 167.06 417.904 166.875 417.65 166.751C417.567 166.708 417.474 166.688 417.38 166.693C417.287 166.698 417.196 166.729 417.119 166.782C416.876 166.963 416.673 167.192 416.522 167.454C416.428 167.602 416.341 167.756 416.248 167.932C416.208 168.002 416.113 168.179 416.166 168.103L416.167 168.089L416.159 168.147L416.144 168.264C416.08 168.975 416.08 169.797 416.063 170.58C416.033 172.167 416.018 173.762 415.842 175.39C415.781 176.259 415.54 177.107 415.135 177.878C414.705 178.661 414.09 179.326 413.344 179.817C413.229 179.885 413.109 179.943 412.985 179.991C412.792 180.076 412.577 180.097 412.371 180.051C412.273 180.03 412.181 179.986 412.103 179.924C412.025 179.861 411.962 179.782 411.919 179.692C411.876 179.623 411.851 179.546 411.847 179.465C411.84 179.405 411.837 179.345 411.838 179.285C411.84 179.199 411.854 179.114 411.881 179.032L411.934 178.845C412.036 178.492 412.116 178.133 412.173 177.769C412.304 177.006 412.399 176.226 412.481 175.447C412.646 173.891 412.701 172.325 412.648 170.761C412.63 169.998 412.528 169.239 412.343 168.498C412.297 168.168 412.161 167.857 411.952 167.598C411.743 167.338 411.467 167.14 411.154 167.025C410.814 166.976 410.467 167.005 410.141 167.111C409.814 167.216 409.515 167.395 409.268 167.634C408.734 168.138 408.4 168.819 408.328 169.55C408.113 171.11 408.004 172.683 408.002 174.258C408.035 175.867 407.846 177.472 407.438 179.029C407.168 179.801 406.762 180.52 406.24 181.15C405.982 181.469 405.691 181.76 405.373 182.019C405.211 182.152 405.038 182.272 404.856 182.376C404.751 182.437 404.638 182.483 404.521 182.513C404.461 182.524 404.4 182.521 404.341 182.504C404.158 182.391 404.211 182.343 404.178 182.287C404.169 182.223 404.165 182.159 404.168 182.095C404.354 180.456 404.778 178.953 405.03 177.389C405.103 177.014 405.144 176.633 405.151 176.251C405.152 175.862 405.132 175.473 405.09 175.086C405.008 174.324 404.817 173.576 404.523 172.867C404.224 172.162 403.839 171.495 403.379 170.882C403.159 170.625 402.896 170.335 402.686 170.319C402.515 170.284 402.296 170.445 402.121 170.744C401.784 171.394 401.586 172.106 401.538 172.836C401.463 173.583 401.502 174.338 401.655 175.073C401.879 176.72 401.759 178.396 401.304 179.994C401.11 180.784 400.873 181.563 400.593 182.327C400.448 182.736 400.275 183.135 400.075 183.52C400.009 183.63 399.919 183.725 399.813 183.799C399.689 183.88 399.542 183.918 399.395 183.906C399.308 183.897 399.224 183.872 399.146 183.833C399.097 183.804 399.05 183.77 399.007 183.732C398.868 183.592 398.768 183.417 398.718 183.225C398.655 183.007 398.607 182.786 398.575 182.561C398.394 180.964 398.32 179.356 398.353 177.749C398.344 176.278 397.835 174.854 396.912 173.71C396.802 173.589 396.679 173.481 396.545 173.388C396.485 173.344 396.421 173.305 396.354 173.271C396.279 173.23 396.331 173.267 396.351 173.251C396.429 173.228 396.342 173.247 396.272 173.376C396.191 173.515 396.125 173.662 396.074 173.815C395.857 174.538 395.716 175.283 395.653 176.036C395.507 177.592 395.467 179.157 395.535 180.719C395.607 181.532 395.608 182.35 395.538 183.163C395.503 183.638 395.327 184.09 395.031 184.463C394.929 184.574 394.804 184.66 394.664 184.715C394.524 184.77 394.373 184.793 394.223 184.781C393.959 184.754 393.708 184.655 393.496 184.497L393.542 184.526C393.163 184.365 392.794 184.163 392.406 184.032C392.019 183.901 391.619 183.814 391.213 183.771C390.4 183.66 389.573 183.818 388.858 184.222C388.131 184.639 387.503 185.21 387.019 185.894C386.513 186.582 386.104 187.337 385.806 188.137L385.686 188.101Z" fill="black"/>
<path d="M391.865 183.8L386.248 175.985L416.487 157.227L427.301 166.063L419.994 170.877L419.647 170.352L426.239 166.008L416.437 157.998L387.153 176.165L392.376 183.433L391.865 183.8Z" fill="black"/>
<path d="M393.649 171.765C394.048 170.468 394.578 169.214 395.23 168.025C395.869 166.81 396.638 165.67 397.525 164.623C397.998 164.069 398.549 163.587 399.161 163.192C399.527 162.959 399.945 162.824 400.378 162.799C400.632 162.793 400.884 162.848 401.113 162.959C401.311 163.066 401.487 163.209 401.632 163.381C401.918 163.646 402.143 163.97 402.293 164.33C402.443 164.69 402.514 165.078 402.502 165.467C402.442 165.832 402.288 166.174 402.054 166.46C401.821 166.747 401.516 166.967 401.171 167.098C401.404 166.894 401.589 166.64 401.712 166.356C401.835 166.072 401.894 165.764 401.884 165.454C401.758 164.899 401.426 164.411 400.955 164.092C400.89 164.02 400.809 163.966 400.719 163.932C400.628 163.899 400.531 163.888 400.436 163.901C400.201 163.948 399.981 164.052 399.794 164.202C399.299 164.56 398.853 164.982 398.468 165.455C397.617 166.41 396.849 167.484 396.059 168.546C395.277 169.617 394.498 170.701 393.649 171.765Z" fill="black"/>
<path d="M347.482 346.775C347.369 346.367 336.142 305.905 334.35 300.898L334.943 300.686C336.742 305.715 347.975 346.199 348.089 346.607L347.482 346.775Z" fill="black"/>
<path d="M280.946 410.654C280.663 411.904 280.298 413.128 279.912 414.345C279.527 415.563 279.076 416.757 278.633 417.956C278.142 419.136 277.657 420.321 277.075 421.465C276.781 422.034 276.472 422.599 276.129 423.145C275.95 423.415 275.758 423.676 275.552 423.926C275.367 424.198 275.087 424.391 274.766 424.468C275.34 424.198 275.572 423.533 275.861 422.993C276.143 422.428 276.398 421.849 276.636 421.261C277.12 420.09 277.606 418.918 278.048 417.726L279.459 414.181C279.939 413.002 280.417 411.821 280.946 410.654Z" fill="black"/>
<path d="M296.183 421.622C295.928 422.696 295.578 423.745 295.138 424.756C294.923 425.258 294.704 425.759 294.47 426.251C294.252 426.752 293.972 427.22 293.795 427.747C293.761 427.183 293.834 426.618 294.009 426.081C294.16 425.548 294.343 425.024 294.558 424.514C294.977 423.486 295.522 422.514 296.183 421.622Z" fill="black"/>
<path d="M331.524 458.515C330.477 456.478 328.681 454.926 326.514 454.185C314.444 449.805 300.124 431.275 296.184 427.745C292.004 424.005 287.904 430.815 282.474 432.165C277.054 433.525 277.714 425.605 273.404 424.685C269.104 423.765 266.384 441.235 266.384 441.235L263.664 446.665C266.614 448.935 274.764 451.875 274.764 451.875L277.854 450.065C299.974 464.795 325.964 466.605 325.964 466.605C332.844 464.695 332.844 461.205 331.524 458.515ZM275.064 446.955C274.181 446.645 273.322 446.271 272.494 445.835C270.843 444.971 269.322 443.881 267.974 442.595C269.685 443.276 271.352 444.064 272.964 444.955L275.364 446.235C276.156 446.683 276.99 447.055 277.854 447.345C276.906 447.442 275.948 447.309 275.064 446.955ZM308.294 445.625C307.704 445.965 307.124 446.225 306.554 446.505C305.984 446.785 305.424 447.065 304.874 447.355C303.754 447.915 302.684 448.535 301.494 449.155C301.817 448.561 302.248 448.032 302.764 447.595C303.263 447.149 303.817 446.769 304.414 446.465C305.6 445.821 306.947 445.529 308.293 445.625H308.294ZM304.894 441.235C303.365 441.765 301.892 442.442 300.494 443.255C299.074 444.035 297.704 444.885 296.184 445.625C296.691 444.953 297.279 444.345 297.934 443.815C298.582 443.275 299.278 442.797 300.014 442.385C300.752 441.97 301.538 441.645 302.354 441.415C303.176 441.166 304.044 441.105 304.894 441.235ZM295.164 437.805C296.157 437.363 297.187 437.012 298.244 436.755C299.303 436.449 300.425 436.432 301.494 436.705C300.45 436.824 299.43 437.093 298.464 437.505C297.494 437.885 296.534 438.285 295.574 438.725C293.644 439.565 291.744 440.475 289.714 441.235C291.354 439.832 293.19 438.677 295.164 437.805V437.805ZM323.214 461.435C322.294 461.365 321.364 461.325 320.454 461.195C318.634 460.955 316.804 460.735 314.994 460.355C307.725 458.994 300.69 456.596 294.104 453.235C292.454 452.405 290.844 451.495 289.264 450.545C287.696 449.581 286.183 448.53 284.734 447.395C287.855 449.315 291.095 451.035 294.434 452.545C301.086 455.587 308.028 457.952 315.154 459.605C318.704 460.475 322.324 461.025 325.964 461.595C325.043 461.555 324.124 461.495 323.214 461.435Z" fill="black"/>
<path d="M369.448 427.734C369.933 429.563 370.303 431.421 370.556 433.296C370.838 435.167 371 437.054 371.042 438.946C370.556 437.117 370.186 435.26 369.934 433.384C369.654 431.513 369.492 429.626 369.448 427.734Z" fill="black"/>
<path d="M386.862 426.904C387.28 428.602 387.556 430.304 387.863 431.998C388.008 432.846 388.165 433.689 388.342 434.525C388.43 434.94 388.539 435.35 388.668 435.754C388.728 435.955 388.81 436.148 388.912 436.33C388.953 436.424 389.02 436.505 389.105 436.564C389.189 436.622 389.289 436.656 389.392 436.66C389.279 436.688 389.16 436.681 389.051 436.641C388.942 436.6 388.848 436.527 388.781 436.432C388.629 436.264 388.497 436.079 388.387 435.88C388.179 435.488 388.005 435.078 387.869 434.656C387.6 433.822 387.391 432.971 387.243 432.108C386.934 430.391 386.807 428.647 386.862 426.904Z" fill="black"/>
<path d="M417.034 447.395C415.094 446.915 413.284 446.435 411.603 445.955C410.19 447.891 408.264 449.394 406.043 450.295C406.722 449.313 407.556 448.448 408.514 447.735C409.444 446.983 410.486 446.382 411.603 445.955C409.233 445.285 407.123 444.625 405.234 443.985C404.421 445.102 403.455 446.098 402.363 446.945C401.298 447.828 400.117 448.562 398.853 449.125C399.678 448.018 400.646 447.026 401.734 446.175C402.793 445.287 403.971 444.55 405.234 443.985C393.684 440.065 390.353 436.815 389.393 436.665C389.393 436.665 384.623 446.645 371.043 438.945C372.063 437.745 365.094 442.315 367.153 449.155C368.371 453.066 368.371 457.254 367.153 461.165H378.643C378.643 461.165 380.034 452.785 386.863 456.635L392.563 461.165C392.563 461.165 421.284 463.215 432.504 458.385C429.237 459.154 425.889 459.527 422.534 459.495C419.184 459.555 415.833 459.435 412.494 459.265C409.154 459.055 405.824 458.805 402.504 458.425C399.174 458.065 395.863 457.655 392.563 457.085C395.904 457.245 399.234 457.465 402.563 457.665L412.554 458.265C415.883 458.455 419.204 458.605 422.534 458.725C424.194 458.765 425.863 458.795 427.524 458.745C429.19 458.745 430.854 458.625 432.504 458.385C434.003 457.849 435.316 456.89 436.284 455.625C436.284 455.625 438.324 452.645 417.034 447.395ZM374.853 456.135C374.083 456.144 373.314 456.087 372.554 455.965C371.032 455.741 369.554 455.283 368.173 454.605C369.695 454.591 371.214 454.715 372.713 454.975C373.453 455.095 374.183 455.215 374.923 455.365C375.663 455.495 376.383 455.645 377.163 455.725C376.431 456.024 375.644 456.163 374.853 456.135ZM394.973 443.855C393.962 444.608 392.843 445.205 391.653 445.625C392.432 444.636 393.352 443.766 394.383 443.045C395.395 442.298 396.51 441.702 397.693 441.275C396.924 442.269 396.007 443.139 394.973 443.855V443.855Z" fill="black"/>
<path d="M342.952 113.514C343.293 112.482 343.689 111.469 344.14 110.479L344.767 109.007C344.986 108.518 345.137 108.002 345.218 107.473C345.38 108.019 345.387 108.6 345.237 109.149C345.113 109.691 344.939 110.22 344.717 110.73C344.282 111.747 343.687 112.687 342.952 113.514Z" fill="black"/>
<path d="M355.336 103.849C355.336 103.849 346.852 110.084 344.827 109.609C344.827 109.609 342.952 98.7138 345.243 94.4853C346.662 91.8634 349.295 81.7995 364.549 83.6117C379.802 85.4239 380.859 100.224 380.859 100.224C379.469 100.442 378.007 100.623 376.479 100.753C372.254 101.109 368.003 101.033 363.793 100.526C363.793 100.526 360.32 95.3915 356.544 99.6201C355.756 100.89 355.337 102.354 355.336 103.849Z" fill="black"/>
<path d="M380.859 100.224C380.548 102.249 380.165 104.265 379.938 106.284C379.857 106.745 379.838 107.215 379.881 107.681C380.037 108.131 380.249 108.559 380.512 108.957C381.035 109.809 381.639 110.631 382.203 111.51C382.519 111.97 382.778 112.467 382.974 112.99C383.037 113.179 383.063 113.379 383.049 113.577C383.018 113.799 382.932 114.009 382.799 114.188C382.565 114.462 382.26 114.666 381.918 114.777C381.639 114.879 381.379 114.944 381.153 115.014C380.943 115.062 380.699 115.209 380.792 115.15C380.813 115.118 380.827 115.081 380.833 115.043C380.831 114.988 380.825 115.097 380.818 115.139L380.794 115.305C380.757 115.457 380.724 115.593 380.684 115.725C380.607 115.985 380.523 116.238 380.434 116.485C379.708 118.454 378.751 120.329 377.582 122.072C376.422 123.899 374.825 125.408 372.935 126.461C371.918 126.911 370.809 127.114 369.698 127.054C368.587 126.995 367.506 126.675 366.542 126.119C366.076 125.854 365.641 125.536 365.248 125.171L364.064 124.155L363.474 123.648C363.243 123.465 363.145 123.337 362.983 123.295C362.568 123.208 362.136 123.289 361.78 123.521C360.917 124.009 360.16 124.665 359.554 125.45C358.916 126.242 358.37 127.105 357.927 128.021C358.249 127.039 358.706 126.106 359.286 125.251C359.856 124.355 360.602 123.583 361.478 122.983C361.723 122.807 362.003 122.684 362.298 122.622C362.594 122.559 362.899 122.558 363.195 122.62C363.362 122.662 363.518 122.74 363.653 122.848C363.805 122.954 363.868 123.01 363.98 123.093L364.581 123.552L365.78 124.469C366.693 125.229 367.8 125.717 368.976 125.878C370.153 126.039 371.351 125.867 372.434 125.381C374.106 124.389 375.516 123.011 376.544 121.361C377.668 119.71 378.599 117.935 379.32 116.072C379.411 115.841 379.494 115.611 379.57 115.382L379.665 115.063L379.67 115.04C379.675 115.019 379.677 115.065 379.688 114.947C379.7 114.781 379.76 114.621 379.86 114.487C380.001 114.303 380.19 114.162 380.407 114.081C380.548 114.023 380.693 113.975 380.84 113.936C381.104 113.864 381.343 113.81 381.547 113.741C381.696 113.701 381.833 113.628 381.949 113.526C381.968 113.499 381.982 113.468 381.991 113.437C381.986 113.38 381.976 113.324 381.962 113.269C381.815 112.827 381.619 112.404 381.377 112.006C380.885 111.133 380.323 110.271 379.825 109.35C379.549 108.877 379.337 108.369 379.194 107.84C379.15 107.286 379.197 106.728 379.333 106.189C379.769 104.171 380.271 102.19 380.859 100.224Z" fill="black"/>
<path d="M355.336 103.849C355.477 104.771 355.872 105.636 356.478 106.346C356.786 106.665 357.16 106.912 357.575 107.069C358.026 107.24 358.489 107.375 358.961 107.473C358.713 107.532 358.462 107.576 358.209 107.603C357.949 107.613 357.689 107.592 357.434 107.54C356.898 107.44 356.406 107.176 356.027 106.784C355.668 106.396 355.416 105.922 355.295 105.407C355.174 104.893 355.188 104.356 355.336 103.849Z" fill="black"/>
<path d="M363.793 100.526C365.161 100.831 366.508 101.201 367.852 101.581C369.196 101.96 370.522 102.392 371.858 102.796C373.179 103.247 374.508 103.673 375.82 104.149C377.133 104.625 378.442 105.111 379.73 105.663C378.362 105.359 377.016 104.989 375.672 104.609C374.328 104.229 373.001 103.798 371.666 103.394C370.345 102.941 369.016 102.517 367.704 102.04C366.391 101.564 365.082 101.078 363.793 100.526Z" fill="black"/>
<path d="M374.063 108.115C374.308 108.107 374.539 108.003 374.71 107.827C374.88 107.651 374.975 107.416 374.975 107.171C374.975 106.926 374.88 106.691 374.71 106.515C374.539 106.339 374.308 106.236 374.063 106.227C373.818 106.236 373.587 106.339 373.417 106.515C373.246 106.691 373.151 106.926 373.151 107.171C373.151 107.416 373.246 107.651 373.417 107.827C373.587 108.003 373.818 108.107 374.063 108.115Z" fill="black"/>
<path d="M378.295 103.581L375.875 111.735L377.684 112.272L380.104 104.118L378.295 103.581Z" fill="black"/>
<path d="M360.962 119.555C359.511 118.405 358.515 116.776 358.152 114.96C357.958 114.054 357.935 113.12 358.084 112.206C358.223 111.304 358.52 110.434 358.961 109.635C358.757 110.496 358.627 111.373 358.573 112.256C358.52 113.12 358.585 113.987 358.767 114.832C358.938 115.682 359.215 116.508 359.591 117.289C359.97 118.089 360.43 118.848 360.962 119.555Z" fill="black"/>
<path d="M358.011 102.492C358.245 102.602 358.446 102.771 358.594 102.982C358.671 103.131 358.73 103.277 358.593 103.398C358.454 103.518 358.135 103.616 358.061 103.744C357.977 103.872 358.061 104.021 358.219 104.18C358.365 104.301 358.476 104.458 358.539 104.637C358.607 104.767 358.629 104.916 358.602 105.06C358.478 105.321 358.228 105.566 357.59 105.76L357.403 105.736C356.835 105.386 356.656 105.086 356.602 104.803C356.612 104.656 356.671 104.518 356.77 104.409C356.876 104.253 357.023 104.128 357.194 104.048C357.387 103.935 357.507 103.812 357.458 103.667C357.419 103.523 357.135 103.349 357.031 103.197C356.929 103.045 357.023 102.919 357.135 102.795C357.332 102.628 357.57 102.515 357.823 102.468L358.011 102.492Z" fill="black"/>
<path d="M357.549 104.149C356.456 106.817 355.904 109.676 355.925 112.56C355.947 115.443 356.541 118.294 357.673 120.946C358.948 123.593 360.556 126.074 362.025 128.603C362.773 129.86 363.513 131.12 364.326 132.308C364.717 132.895 365.138 133.461 365.588 134.004C365.796 134.252 366.023 134.483 366.266 134.696C366.42 134.838 366.606 134.941 366.809 134.996L366.421 135.16C366.921 134.633 367.328 134.024 367.623 133.361C367.936 132.652 368.161 131.908 368.294 131.144C368.443 130.363 368.516 129.57 368.511 128.775C368.514 128.373 368.493 127.97 368.485 127.563L368.38 126.343L368.503 126.316C368.768 127.103 368.967 127.912 369.097 128.733C369.214 129.57 369.248 130.416 369.2 131.26C369.134 132.121 368.954 132.97 368.665 133.784C368.376 134.651 367.904 135.447 367.283 136.117L367.127 136.278L366.894 136.281C366.364 136.276 365.852 136.086 365.447 135.743C365.123 135.49 364.828 135.201 364.568 134.882C364.075 134.298 363.628 133.676 363.232 133.021C362.45 131.741 361.735 130.445 361.073 129.124C359.734 126.49 358.689 123.725 357.326 121.12C356.013 118.5 354.78 115.633 354.799 112.564C354.79 111.048 355.008 109.539 355.447 108.087C355.857 106.639 356.535 105.279 357.444 104.079L357.549 104.149Z" fill="black"/>
<path d="M366.915 135.639C367.37 140.88 367.736 146.099 367.926 151.334C367.991 153.954 368.002 156.582 368.227 159.194C368.311 160.503 368.516 161.8 368.655 163.103C368.838 164.401 369.054 165.694 369.267 166.986C369.756 169.541 370.154 172.195 370.7 174.656C371.003 175.844 371.547 176.957 372.298 177.927C373.049 178.896 373.991 179.701 375.066 180.291C377.322 181.434 379.83 181.987 382.358 181.898C384.953 181.78 387.528 181.37 390.031 180.674L390.068 180.795C387.632 181.871 385.046 182.57 382.4 182.869C379.665 183.142 376.908 182.654 374.433 181.458C373.184 180.799 372.095 179.874 371.242 178.748C370.422 177.612 369.838 176.324 369.522 174.959C369.217 173.591 369.103 172.33 368.918 171.011C368.746 169.706 368.632 168.394 368.511 167.084C368.307 164.46 368.091 161.844 367.833 159.231C367.566 156.62 367.18 154.016 366.909 151.399C366.648 148.782 366.559 146.153 366.531 143.525C366.524 140.896 366.56 138.266 366.789 135.639L366.915 135.639Z" fill="black"/>
<path d="M378.451 119.877C377.146 119.926 375.851 119.637 374.69 119.039C374.087 118.743 373.559 118.313 373.147 117.782C372.731 117.25 372.534 116.58 372.598 115.908C372.789 116.482 373.101 117.009 373.512 117.454C373.924 117.898 374.425 118.249 374.984 118.483C376.105 119.029 377.264 119.495 378.451 119.877Z" fill="black"/>
<path d="M349.232 150.911C349.467 151.146 349.645 151.432 349.752 151.746C349.884 152.037 349.993 152.338 350.078 152.645C350.275 153.25 350.436 153.866 350.562 154.489C350.872 155.724 351.011 156.985 351.244 158.234L351.71 162.008L352.045 165.795C352.268 168.32 352.346 170.852 352.503 173.381L352.765 180.974C352.835 186.037 352.913 191.102 352.853 196.163L352.799 203.757L352.602 211.348C352.525 213.877 352.485 216.409 352.377 218.937L352.036 226.521C351.827 231.578 351.548 236.631 351.26 241.683L349.677 272.002L349.669 272.139L349.551 272.194C347.04 273.342 344.355 274.064 341.607 274.329C338.848 274.61 336.06 274.344 333.404 273.547C332.733 273.375 332.078 273.142 331.45 272.85C330.798 272.613 330.168 272.32 329.566 271.976L327.765 270.933C327.198 270.537 326.662 270.095 326.11 269.677L325.286 269.041C325.024 268.816 324.793 268.558 324.544 268.317L323.077 266.847C322.156 265.818 321.358 264.685 320.493 263.607L320.413 263.508L320.407 263.343C320.027 253.601 319.846 243.858 319.688 234.112C319.528 224.366 319.562 214.618 319.657 204.87C319.781 195.122 320.129 185.378 320.7 175.639C321.01 170.772 321.38 165.907 321.965 161.06C322.268 158.639 322.643 156.223 323.145 153.831C323.387 152.632 323.693 151.447 324.061 150.28C324.385 149.091 324.938 147.975 325.69 146.998L325.782 147.084C325.078 148.066 324.573 149.176 324.293 150.351C323.965 151.519 323.7 152.704 323.497 153.9C323.07 156.291 322.789 158.707 322.544 161.125C322.043 165.962 321.756 170.822 321.53 175.683C321.088 185.407 321.006 195.146 320.928 204.882C320.831 214.62 320.922 224.358 320.977 234.097C321.042 243.836 321.22 253.577 321.4 263.312L321.314 263.049C322.136 264.103 322.893 265.219 323.768 266.229L325.162 267.673C325.398 267.909 325.618 268.165 325.868 268.386L326.651 269.01C327.177 269.42 327.686 269.857 328.226 270.248L329.943 271.279C330.517 271.62 331.119 271.912 331.743 272.15C332.344 272.442 332.971 272.677 333.616 272.852C336.178 273.668 338.877 273.971 341.556 273.745C344.244 273.539 346.877 272.876 349.342 271.783L349.216 271.975C349.794 261.874 350.377 251.772 350.698 241.659C350.877 236.603 351.044 231.547 351.15 226.49L351.513 211.321C351.748 201.21 351.918 191.099 351.834 180.989L351.726 173.408C351.62 170.886 351.593 168.355 351.421 165.837L351.199 162.055L350.863 158.282C350.674 157.038 350.578 155.772 350.312 154.541C350.209 153.921 350.07 153.307 349.896 152.702C349.823 152.397 349.727 152.099 349.607 151.809L349.427 151.377C349.356 151.252 349.271 151.133 349.176 151.024L349.232 150.911Z" fill="black"/>
</svg>
