<svg width="700" height="550" viewBox="0 0 700 550" fill="none" xmlns="http://www.w3.org/2000/svg">
<path d="M380.924 212.136C380.924 212.136 378.356 210.595 375.96 213.334C375.96 213.334 371.68 207.253 353.535 212.519C353.535 212.519 355.931 217.1 357.643 217.1C359.355 217.1 354.391 224.975 349.769 224.632C349.769 224.632 341.894 236.102 347.886 247.229C353.791 258.196 358.033 261.679 363.891 254.566C364.07 254.345 364.271 254.142 364.489 253.96C366.174 252.571 373.631 246.795 376.274 251.102C376.837 252.058 376.998 253.199 376.722 254.274C375.516 259.327 369.874 277.937 353.535 270.51C353.535 270.51 334.493 263.369 338.984 246.453C339.464 244.732 340.161 243.08 341.057 241.534C341.921 239.956 342.453 238.217 342.622 236.425C342.79 234.634 342.591 232.827 342.036 231.115C341.347 228.674 339.795 226.568 337.667 225.188C335.604 223.901 332.885 223.326 330.826 226.924C329.973 228.42 329.524 230.113 329.521 231.835C329.518 233.412 329.811 235.345 331.11 236.273L329.521 239.354C328.658 237.597 327.553 235.968 326.24 234.516C324.04 232.288 322.627 229.404 322.215 226.3C321.633 221.377 322.334 214.026 328.2 205.46C328.2 205.46 336.074 189.711 350.796 190.053C365.518 190.396 378.185 194.333 380.924 212.136Z" fill="black"/>
<path d="M356.274 232.678C358.831 232.093 361.458 231.877 364.077 232.035C365.396 232.101 366.704 232.299 367.983 232.628C369.289 232.908 370.502 233.514 371.509 234.39C370.346 233.85 369.104 233.5 367.83 233.354C366.572 233.173 365.302 233.041 364.021 232.984C361.461 232.825 358.888 232.813 356.274 232.678Z" fill="black"/>
<path d="M380.924 232.434C379.988 232.719 379.121 233.196 378.38 233.836C378.029 234.125 377.743 234.486 377.541 234.894C377.338 235.301 377.224 235.747 377.206 236.202C377.275 237.135 377.519 238.047 377.927 238.89L379.046 241.642C379.881 243.504 380.367 245.504 380.478 247.541C380.476 248.078 380.378 248.61 380.187 249.112C379.982 249.62 379.647 250.066 379.216 250.403C378.339 250.955 377.305 251.201 376.274 251.102C377.241 251.02 378.161 250.652 378.917 250.045C379.228 249.713 379.462 249.318 379.603 248.887C379.745 248.455 379.79 247.998 379.736 247.547C379.662 246.594 379.468 245.654 379.16 244.749C378.872 243.823 378.528 242.904 378.162 241.989C377.81 241.068 377.429 240.151 377.087 239.207C376.923 238.731 376.757 238.256 376.628 237.753C376.468 237.234 376.414 236.687 376.469 236.147C376.526 235.609 376.701 235.09 376.982 234.628C377.263 234.166 377.642 233.771 378.093 233.472C378.94 232.906 379.911 232.55 380.924 232.434Z" fill="black"/>
<path d="M380.924 212.136C381.245 214.055 381.483 215.984 381.639 217.923C381.818 219.86 381.928 221.802 381.97 223.75C382 225.697 381.971 227.649 381.819 229.601C381.73 231.591 381.285 233.55 380.506 235.383C380.495 235.406 380.481 235.427 380.463 235.446C379.863 236.093 379.299 236.773 378.774 237.483C378.514 237.839 378.282 238.215 378.082 238.607C377.859 238.99 377.769 239.435 377.828 239.874C377.691 239.433 377.716 238.957 377.898 238.532C378.056 238.104 378.247 237.689 378.471 237.291C378.918 236.498 379.435 235.747 380.015 235.046L379.972 235.108C380.304 234.233 380.525 233.319 380.63 232.388C380.778 231.449 380.838 230.491 380.909 229.535C381.022 227.618 381.042 225.688 381.053 223.758C381.053 219.895 380.968 216.024 380.924 212.136Z" fill="black"/>
<path d="M370.653 245.688C370.473 246.06 370.327 246.447 370.217 246.846C370.106 247.214 370.081 247.603 370.146 247.982C370.199 248.358 370.363 248.709 370.617 248.99C370.886 249.301 371.185 249.585 371.509 249.838C371.302 249.777 371.098 249.704 370.899 249.619C370.705 249.513 370.522 249.387 370.353 249.244C370 248.938 369.762 248.521 369.677 248.061C369.617 247.606 369.685 247.143 369.874 246.724C370.05 246.323 370.317 245.969 370.653 245.688Z" fill="black"/>
<path d="M331.11 236.273C331.702 237.017 332.175 237.848 332.511 238.738C332.691 239.192 332.821 239.664 332.899 240.146C332.941 240.399 332.958 240.655 332.949 240.911L332.944 241.108L332.956 241.215C332.951 241.285 332.967 241.354 333 241.416C333.147 241.729 333.406 241.975 333.726 242.106C334.106 242.3 334.507 242.452 334.92 242.558C335.8 242.795 336.704 242.927 337.615 242.949C336.715 243.302 335.741 243.418 334.784 243.288C334.284 243.237 333.795 243.112 333.333 242.916C333.061 242.81 332.812 242.652 332.602 242.45C332.391 242.248 332.223 242.006 332.106 241.739C332.044 241.588 332.014 241.427 332.018 241.264L332.014 241.024L332.021 240.874C332.032 240.667 332.027 240.459 332.008 240.253C331.97 239.814 331.901 239.379 331.803 238.95C331.608 238.07 331.353 237.186 331.11 236.273Z" fill="black"/>
<path d="M329.521 239.354C329.139 240.739 328.601 242.076 327.916 243.338C327.246 244.619 326.436 245.823 325.503 246.927C324.569 248.052 323.461 249.021 322.221 249.796C320.978 250.566 319.556 250.999 318.094 251.051C319.432 250.649 320.689 250.016 321.807 249.18C322.902 248.338 323.899 247.375 324.779 246.311C325.683 245.248 326.518 244.128 327.281 242.96C328.048 241.785 328.81 240.595 329.521 239.354Z" fill="black"/>
<path d="M342.065 279.411C343.147 278.937 344.17 278.338 345.113 277.628C346.049 276.929 346.937 276.168 347.771 275.349C348.631 274.556 349.402 273.668 350.202 272.799L351.368 271.453C351.747 270.994 352.126 270.531 352.544 270.088C352.305 270.643 352.028 271.18 351.752 271.719C351.439 272.234 351.131 272.758 350.787 273.256C350.092 274.256 349.303 275.186 348.43 276.034C347.553 276.889 346.573 277.633 345.515 278.248C344.465 278.886 343.287 279.283 342.065 279.411Z" fill="black"/>
<path d="M324.94 246.618C324.088 245.356 323.034 244.242 321.821 243.322C321.568 243.099 321.262 242.945 320.933 242.875C320.603 242.805 320.261 242.822 319.939 242.923C319.372 243.309 318.964 243.888 318.793 244.553C318.559 245.262 318.391 245.991 318.29 246.731C318.239 247.098 318.194 247.481 318.161 247.835C318.162 248.172 318.192 248.568 318.226 248.936C318.373 250.446 318.653 251.939 319.062 253.4C319.816 256.372 320.986 259.222 322.539 261.865C324.112 264.508 325.993 266.954 328.144 269.152C329.223 270.243 330.344 271.293 331.481 272.317C332.663 273.292 333.792 274.339 335.022 275.233C335.615 275.713 336.269 276.102 336.889 276.54C337.545 276.917 338.174 277.346 338.858 277.666C340.178 278.383 341.582 278.934 343.038 279.304C345.946 280.076 349.036 279.751 351.72 278.393C354.418 276.953 356.684 274.821 358.286 272.216C358.291 272.205 358.301 272.197 358.313 272.193C358.325 272.189 358.338 272.19 358.35 272.196C358.36 272.202 358.368 272.212 358.372 272.224C358.375 272.236 358.375 272.248 358.37 272.26C356.977 275.088 354.788 277.448 352.071 279.049C350.68 279.838 349.15 280.351 347.564 280.56C345.973 280.748 344.362 280.645 342.807 280.257C341.264 279.891 339.779 279.314 338.394 278.542C337.686 278.191 337.044 277.736 336.373 277.33C335.743 276.865 335.077 276.447 334.479 275.945C333.226 275.003 332.13 273.904 330.97 272.872C330.379 272.369 329.878 271.769 329.335 271.215C328.812 270.642 328.246 270.111 327.761 269.504C325.734 267.162 323.894 264.664 322.256 262.035C320.589 259.405 319.261 256.576 318.304 253.614C317.837 252.115 317.532 250.57 317.394 249.006C317.368 248.606 317.344 248.232 317.353 247.797C317.398 247.385 317.454 247.002 317.517 246.608C317.643 245.822 317.841 245.049 318.109 244.299C318.23 243.885 318.432 243.499 318.703 243.164C318.974 242.829 319.31 242.551 319.689 242.347C320.116 242.18 320.589 242.17 321.022 242.32C321.416 242.455 321.784 242.657 322.11 242.916C323.306 243.935 324.294 245.176 325.021 246.569C325.024 246.575 325.026 246.581 325.027 246.587C325.028 246.593 325.027 246.599 325.025 246.605C325.024 246.611 325.021 246.617 325.017 246.622C325.013 246.627 325.009 246.631 325.003 246.634C324.992 246.639 324.98 246.641 324.969 246.638C324.957 246.635 324.947 246.628 324.94 246.618Z" fill="black"/>
<path d="M280.87 259.554C282.117 259.908 283.248 260.584 284.15 261.515C285.079 262.431 285.822 263.518 286.338 264.717C286.856 265.908 287.146 267.186 287.196 268.484C287.221 269.122 287.188 269.762 287.098 270.395C286.989 271.023 286.823 271.64 286.602 272.238C286.38 271.619 286.28 271.022 286.117 270.439C285.942 269.859 285.837 269.282 285.643 268.73C285.333 267.634 284.952 266.56 284.504 265.513C284.055 264.472 283.529 263.465 282.932 262.501C282.307 261.477 281.618 260.493 280.87 259.554Z" fill="black"/>
<path d="M285.232 283.52C285.618 287.959 285.806 292.397 285.924 296.835C286.055 301.272 286.069 305.709 286.061 310.146C286.015 314.582 285.944 319.018 285.756 323.454C285.581 327.889 285.335 332.324 284.89 336.758C284.502 332.319 284.313 327.881 284.195 323.444C284.065 319.006 284.051 314.569 284.062 310.133C284.11 305.696 284.181 301.26 284.369 296.825C284.545 292.389 284.79 287.954 285.232 283.52Z" fill="black"/>
<path d="M376.781 254.193C380.443 256.485 384.038 258.872 387.566 261.354C389.332 262.593 391.084 263.854 392.82 265.138L395.405 267.113C395.859 267.453 396.286 267.826 396.682 268.231L397.297 268.872L397.814 269.528C399.154 271.255 400.376 273.071 401.472 274.962C402.576 276.826 403.651 278.702 404.697 280.591C406.763 284.384 408.89 288.136 411.08 291.845C412.175 293.701 413.291 295.545 414.427 297.376L416.128 300.122C416.632 301.02 417.231 301.861 417.915 302.631C418.639 303.341 419.502 304.046 420.253 304.93C421.142 305.857 421.677 307.066 421.765 308.347C421.698 309.66 421.126 310.896 420.168 311.798C419.759 312.211 419.329 312.603 418.879 312.973C418.477 313.297 418.086 313.638 417.703 313.989C416.933 314.696 416.226 315.438 415.505 316.237C414.772 317.047 414.013 317.833 413.243 318.61C411.688 320.162 410.037 321.616 408.3 322.961C406.528 324.333 404.6 325.489 402.555 326.405C401.483 326.858 400.356 327.17 399.203 327.332C397.992 327.512 396.756 327.404 395.594 327.019C395.409 326.963 395.251 326.84 395.151 326.675L395.145 326.664C394.394 325.42 393.572 324.18 392.741 322.967C391.91 321.748 391.041 320.558 390.132 319.397C389.219 318.246 388.244 317.145 387.21 316.101C386.215 315.026 384.997 314.183 383.64 313.631L383.633 313.629C383.609 313.62 383.589 313.603 383.578 313.581C383.566 313.558 383.563 313.533 383.57 313.508C383.576 313.484 383.592 313.463 383.614 313.45C383.635 313.436 383.661 313.432 383.686 313.437C385.168 313.819 386.538 314.547 387.684 315.562C388.86 316.512 389.961 317.551 390.979 318.669C393.025 320.884 394.905 323.248 396.604 325.739L396.154 325.385C398.059 325.773 400.039 325.485 401.753 324.571C403.625 323.678 405.385 322.567 406.996 321.26C408.665 319.965 410.26 318.578 411.775 317.105C412.542 316.373 413.3 315.629 414.034 314.86C414.777 314.078 415.579 313.28 416.417 312.552C416.838 312.186 417.269 311.83 417.715 311.49C418.119 311.153 418.502 310.865 418.84 310.522C419.495 309.958 419.923 309.175 420.044 308.319C419.992 307.431 419.638 306.587 419.04 305.928C418.428 305.14 417.654 304.426 416.903 303.569C416.705 303.345 416.52 303.11 416.348 302.865L415.915 302.131L415.135 300.7L413.61 297.845C412.604 295.937 411.576 294.043 410.527 292.163C408.423 288.404 406.205 284.708 403.803 281.133C401.421 277.564 399.005 273.95 396.425 270.652L395.937 270.042L395.428 269.522C395.08 269.149 394.701 268.804 394.297 268.492L391.783 266.495L386.707 262.509C383.316 259.855 379.968 257.137 376.663 254.355C376.644 254.339 376.631 254.316 376.628 254.291C376.625 254.265 376.632 254.24 376.647 254.22C376.662 254.199 376.684 254.185 376.709 254.18C376.734 254.175 376.759 254.18 376.781 254.194V254.193Z" fill="black"/>
<path d="M390.168 286.487C388.418 293.066 386.764 299.661 385.384 306.281C384.673 309.563 384.178 312.887 383.899 316.233C383.804 317.842 383.795 319.619 383.654 321.341C383.516 323.096 383.222 324.836 382.776 326.54C381.725 329.908 380.041 333.044 377.814 335.78C376.786 337.152 375.695 338.479 374.675 339.812C374.184 340.474 373.686 341.131 373.245 341.839C372.772 342.522 372.345 343.241 371.919 343.962C370.245 346.889 368.747 349.914 367.436 353.02C366.051 356.114 364.858 359.294 363.692 362.493C365.177 355.805 367.482 349.327 370.555 343.204C371.348 341.656 372.257 340.171 373.274 338.759C374.282 337.365 375.315 336.034 376.289 334.658C378.336 332.084 379.884 329.148 380.85 326.004C381.279 324.421 381.566 322.803 381.709 321.169C381.868 319.502 381.863 317.875 382.016 316.093C382.373 312.666 382.992 309.272 383.867 305.939C385.546 299.326 387.651 292.829 390.168 286.487Z" fill="black"/>
<path d="M465.612 375.57C465.215 375.571 464.833 375.413 464.551 375.132C464.27 374.851 464.112 374.469 464.111 374.071C464.111 373.673 464.269 373.292 464.55 373.01C464.831 372.729 465.212 372.571 465.61 372.57L500.528 372.524H500.53C500.727 372.524 500.922 372.563 501.104 372.638C501.286 372.713 501.452 372.824 501.591 372.963C501.731 373.102 501.841 373.268 501.917 373.449C501.992 373.631 502.031 373.826 502.031 374.023C502.031 374.22 501.993 374.415 501.917 374.598C501.842 374.78 501.732 374.945 501.593 375.084C501.453 375.224 501.288 375.334 501.106 375.41C500.924 375.485 500.729 375.524 500.532 375.524L465.614 375.57H465.612Z" fill="black"/>
<path d="M243.482 374.575L199.455 374.991L199.483 377.991L243.511 377.575L243.482 374.575Z" fill="black"/>
<path d="M365.518 239.069C365.887 239.057 366.238 238.901 366.495 238.635C366.752 238.368 366.896 238.013 366.896 237.643C366.896 237.273 366.752 236.917 366.495 236.651C366.238 236.385 365.887 236.229 365.518 236.216C365.148 236.229 364.797 236.385 364.54 236.651C364.283 236.917 364.139 237.273 364.139 237.643C364.139 238.013 364.283 238.368 364.54 238.635C364.797 238.901 365.148 239.057 365.518 239.069Z" fill="black"/>
<path d="M403.272 386.952C408.314 390.389 413.987 392.791 419.963 394.02C422.931 394.592 425.955 394.809 428.974 394.666C431.986 394.503 434.969 393.997 437.866 393.157C443.651 391.395 449.11 388.699 454.024 385.174C455.258 384.341 456.424 383.413 457.511 382.396C458.597 381.367 459.619 380.273 460.573 379.121C462.48 376.816 464.131 374.31 465.495 371.647L465.399 372.051L465.399 372.042L465.4 372.02C465.402 371.888 465.434 371.757 465.494 371.639C466.673 369.324 467.636 366.906 468.371 364.415C469.102 361.912 469.574 359.341 469.78 356.743L469.784 356.688L469.79 356.653C469.804 356.602 469.787 356.626 469.804 356.719L469.795 356.562C470.206 351.301 469.467 346.014 467.628 341.068C465.75 336.13 462.842 331.649 459.098 327.922C455.397 324.259 451 321.375 446.166 319.44C441.331 317.505 436.159 316.559 430.953 316.657C425.747 316.755 420.613 317.896 415.855 320.011C411.097 322.127 406.812 325.174 403.252 328.974C399.681 332.788 396.903 337.271 395.076 342.166C393.256 347.124 392.41 352.387 392.585 357.665C392.586 357.679 392.584 357.692 392.579 357.705C392.574 357.718 392.567 357.729 392.557 357.739C392.548 357.749 392.537 357.757 392.525 357.762C392.512 357.768 392.499 357.771 392.486 357.771C392.46 357.771 392.434 357.762 392.415 357.744C392.396 357.727 392.383 357.703 392.38 357.677C391.743 352.324 392.255 346.896 393.881 341.756C395.519 336.561 398.239 331.772 401.862 327.705C405.495 323.606 409.948 320.316 414.933 318.047C419.928 315.784 425.349 314.612 430.833 314.611C436.281 314.557 441.68 315.651 446.678 317.821C451.676 319.99 456.161 323.188 459.842 327.205C463.487 331.17 466.33 335.803 468.213 340.849C470.093 345.904 471.001 351.269 470.89 356.661L470.882 356.504C470.904 356.625 470.902 356.75 470.876 356.87L470.886 356.781C470.813 359.483 470.458 362.171 469.828 364.8C469.206 367.44 468.295 370.004 467.111 372.444L467.206 372.042L467.206 372.051C467.208 372.186 467.178 372.318 467.119 372.439L467.11 372.456C465.725 375.271 463.994 377.901 461.957 380.286C460.943 381.479 459.859 382.61 458.709 383.673C457.539 384.724 456.292 385.686 454.979 386.552C449.887 390.128 444.221 392.806 438.225 394.47C432.202 396.106 425.872 396.261 419.776 394.921C413.76 393.487 408.103 390.832 403.155 387.122C403.133 387.106 403.119 387.082 403.114 387.056C403.11 387.029 403.116 387.002 403.131 386.98C403.146 386.958 403.169 386.943 403.196 386.937C403.222 386.932 403.249 386.938 403.272 386.952L403.272 386.952Z" fill="black"/>
<path d="M412.093 320.881C411.818 321.617 411.587 322.362 411.355 323.104C411.127 323.848 410.905 324.591 410.705 325.34C410.482 326.08 410.302 326.834 410.125 327.589L409.546 329.832L409.575 329.644C409.573 329.729 409.557 329.813 409.527 329.893C409.491 329.99 409.435 330.079 409.364 330.154C409.292 330.229 409.206 330.289 409.11 330.331C409.015 330.372 408.912 330.394 408.809 330.395L409.537 329.841C409.116 332.013 408.596 334.15 408.153 336.308C407.747 338.474 407.338 340.641 406.996 342.823C406.639 345.003 406.286 347.185 405.987 349.384C405.647 351.578 405.325 353.782 404.943 355.991C404.743 353.759 404.677 351.517 404.745 349.277C404.783 347.035 404.937 344.796 405.205 342.57C405.485 340.346 405.822 338.123 406.311 335.93C406.534 334.829 406.833 333.743 407.14 332.661C407.449 331.58 407.734 330.493 408.068 329.422L408.797 328.868C408.696 328.869 408.596 328.89 408.503 328.931C408.41 328.971 408.326 329.03 408.256 329.103C408.186 329.177 408.132 329.263 408.097 329.358C408.068 329.435 408.052 329.516 408.05 329.599L408.079 329.411C408.632 327.931 409.142 326.446 409.797 325.008C410.434 323.565 411.203 322.184 412.093 320.881Z" fill="black"/>
<path d="M450.907 320.881C452.27 323.227 453.396 325.703 454.268 328.272C454.752 329.544 455.095 330.856 455.513 332.15C455.884 333.456 456.192 334.778 456.533 336.094C457.718 341.395 458.48 346.782 458.811 352.204C459.153 357.614 459.158 363.041 458.824 368.451C458.658 371.152 458.355 373.844 458.097 376.532C457.682 379.208 457.322 381.884 456.846 384.542C456.89 381.835 457.062 379.149 457.158 376.459L457.326 368.399C457.312 367.056 457.305 365.715 457.315 364.374L457.322 362.363L457.251 360.354L457.144 356.337L456.896 352.33C456.578 346.988 455.968 341.668 455.069 336.392L454.298 332.454C453.988 331.155 453.739 329.833 453.373 328.547C452.752 325.931 451.928 323.368 450.907 320.881Z" fill="black"/>
<path d="M430.623 373.711C431.241 373.09 431.766 372.383 432.183 371.611C432.173 372.511 432.153 373.401 432.133 374.301C432.003 380.801 431.753 387.301 431.383 393.801C431.013 387.301 430.763 380.801 430.633 374.301C430.633 374.101 430.623 373.911 430.623 373.711Z" fill="black"/>
<path d="M430.893 367.282C430.893 367.282 431.553 366.492 432.273 365.452C432.263 366.462 432.253 367.482 432.233 368.492C431.886 367.989 431.427 367.575 430.893 367.282Z" fill="black"/>
<path d="M432.343 353.831V355.751L432.313 360.461C431.681 360.513 431.057 360.637 430.453 360.831C430.443 359.131 430.433 357.441 430.423 355.751V353.831C430.463 341.141 430.643 328.461 431.383 315.771C432.113 328.461 432.303 341.141 432.343 353.831Z" fill="black"/>
<path d="M395.917 338.536C401.472 336.067 407.287 334.228 413.252 333.054C419.226 331.833 425.302 331.188 431.399 331.127C434.449 331.036 437.495 331.28 440.538 331.45C442.054 331.619 443.565 331.839 445.076 332.032C445.831 332.138 446.589 332.216 447.34 332.346L449.576 332.826C455.541 334.023 461.338 335.941 466.841 338.536C465.38 338.12 463.931 337.688 462.494 337.239L460.336 336.576C459.614 336.367 458.867 336.24 458.135 336.068L453.748 335.047C452.275 334.765 450.788 334.552 449.311 334.301L447.095 333.938C446.353 333.84 445.605 333.781 444.861 333.701C443.371 333.557 441.884 333.385 440.393 333.263C437.401 333.153 434.415 332.925 431.42 333.046C425.424 333.098 419.441 333.592 413.517 334.523L409.078 335.292C407.609 335.603 406.128 335.879 404.663 336.219C401.715 336.845 398.809 337.645 395.917 338.536Z" fill="black"/>
<path d="M430.493 376.952L439.69 375.765C442.733 375.336 445.769 374.88 448.785 374.333C451.806 373.814 454.814 373.202 457.818 372.558C459.305 372.183 460.806 371.845 462.315 371.513L463.452 371.279L464.571 370.988C465.319 370.798 466.077 370.62 466.843 370.452C466.154 370.808 465.457 371.154 464.751 371.49C464.051 371.836 463.334 372.143 462.601 372.412C461.145 372.959 459.681 373.501 458.203 374.006C455.226 374.94 452.191 375.681 449.119 376.224C442.977 377.357 436.704 377.602 430.493 376.952Z" fill="black"/>
<path d="M392.373 354.792C394.343 354.672 396.313 354.572 398.283 354.492C397.745 354.635 397.218 354.812 396.703 355.022C395.253 354.952 393.813 354.872 392.373 354.792Z" fill="black"/>
<path d="M470.393 354.792C463.893 355.162 457.393 355.412 450.893 355.542C444.703 355.682 438.523 355.731 432.343 355.752H430.423C429.643 355.752 428.873 355.742 428.093 355.742C428.173 354.912 427.763 354.362 426.603 354.302C425.582 354.274 424.583 354.606 423.783 355.242C423.603 355.382 423.403 355.532 423.173 355.702C417.103 355.662 411.036 355.545 404.973 355.352C404.948 355.136 404.881 354.928 404.774 354.739C404.668 354.55 404.524 354.384 404.353 354.252C413.043 353.952 421.733 353.862 430.423 353.832H432.343C438.523 353.852 444.703 353.902 450.893 354.042C457.393 354.162 463.893 354.412 470.393 354.792Z" fill="black"/>
<path d="M408.813 329.621C408.813 329.623 408.812 329.624 408.812 329.625C408.811 329.627 408.811 329.628 408.81 329.629C408.809 329.63 408.808 329.63 408.806 329.631C408.805 329.631 408.804 329.632 408.803 329.631C407.877 331.38 407.156 333.228 406.653 335.141C406.643 335.161 406.643 335.191 406.633 335.211C405.883 338.101 406.253 338.631 405.263 341.481C404.703 343.091 404.203 344.021 404.483 345.352C404.749 346.189 405.087 347.002 405.493 347.781C405.613 348.031 405.733 348.302 405.873 348.602C406.563 350.122 406.733 350.481 406.583 350.941C406.393 351.501 405.953 351.571 405.143 352.061C404.857 352.228 404.586 352.419 404.333 352.632C403.852 352.992 403.41 353.401 403.013 353.852C400.015 353.82 397.063 354.59 394.463 356.082C393.843 356.432 393.173 356.781 392.453 357.151H392.443C392.413 356.721 392.403 356.292 392.383 355.862C392.373 355.502 392.373 355.152 392.373 354.792C392.365 349.18 393.573 343.633 395.913 338.531L395.923 338.521H395.933C396.873 336.455 397.998 334.477 399.293 332.612C403.643 328.372 408.333 326.171 409.893 326.181C410.061 326.166 410.23 326.216 410.363 326.322C410.713 326.671 409.873 327.631 408.813 329.621Z" fill="black"/>
<path d="M470.393 354.792C470.393 355.122 470.393 355.452 470.373 355.782C470.373 356.062 470.353 356.332 470.343 356.612C470.343 356.662 470.333 356.712 470.333 356.762C470.331 357.052 470.314 357.343 470.283 357.632C469.93 362.629 468.609 367.509 466.393 372.002C466.365 372.019 466.334 372.033 466.303 372.042V372.052C466.041 372.176 465.76 372.257 465.473 372.292C465.136 372.326 464.797 372.288 464.476 372.182C464.155 372.075 463.861 371.901 463.613 371.672C463.603 371.662 463.593 371.642 463.573 371.632C462.763 370.742 463.413 369.502 463.153 367.642C462.933 366.102 462.123 365.012 460.513 362.842C459.812 361.845 459.029 360.909 458.173 360.042C457.583 359.472 457.033 359.122 456.643 359.282C456.153 359.502 456.003 360.542 456.183 361.302C456.453 362.442 457.373 362.542 457.573 363.462C457.843 364.672 456.613 366.072 455.563 366.712C454.976 367.106 454.298 367.342 453.593 367.396C452.889 367.451 452.182 367.322 451.543 367.022C450.103 366.182 450.143 364.392 449.372 364.392C448.762 364.402 448.222 365.522 448.132 366.402C448.062 366.952 448.156 367.511 448.404 368.008C448.651 368.505 449.04 368.917 449.522 369.192C450.512 369.612 451.152 368.742 452.312 369.192C452.66 369.306 452.971 369.509 453.215 369.781C453.459 370.053 453.627 370.384 453.702 370.742C453.752 371.692 452.452 372.432 450.762 373.372C448.832 374.442 448.232 374.392 445.962 375.542C445.742 375.652 445.542 375.752 445.352 375.852C444.465 376.26 443.632 376.778 442.872 377.392C441.312 378.672 441.462 379.242 439.932 380.492C438.933 381.419 437.704 382.061 436.372 382.352C435.162 382.552 434.912 382.182 432.812 382.042C432.337 382.007 431.859 381.997 431.382 382.012C430.463 382.024 429.545 382.084 428.632 382.192C427.564 382.297 426.504 382.481 425.462 382.742C430.822 380.012 431.532 375.882 429.302 374.902C429.302 374.902 435.642 370.092 430.892 367.282C430.892 367.282 438.572 358.142 429.902 361.002C429.182 361.249 428.496 361.588 427.862 362.012C427.592 362.182 427.283 362.392 426.932 362.612L425.902 359.992V359.982C427.932 357.222 429.292 354.432 426.602 354.302C425.581 354.274 424.583 354.607 423.782 355.242C423.162 355.712 422.272 356.372 421.152 357.132L418.882 354.792C418.364 353.948 418.046 352.997 417.952 352.012C417.911 350.924 418.096 349.84 418.495 348.828C418.895 347.816 419.5 346.898 420.272 346.132C421.698 344.622 423.521 343.547 425.532 343.032C427.11 342.422 428.813 342.209 430.492 342.412C430.772 342.462 431.072 342.522 431.382 342.602C432.362 342.832 433.372 343.172 433.892 343.342C434.777 343.743 435.718 344.006 436.682 344.122C437.942 344.182 438.293 343.802 438.842 344.122C439.532 344.502 439.422 345.302 439.932 347.212C440.442 349.102 440.862 350.702 441.942 351.082C442.752 351.362 443.192 350.702 444.112 351.082C444.712 351.332 444.712 351.692 445.652 352.632C446.482 353.452 446.902 353.862 447.512 354.022C448.094 354.154 448.702 354.107 449.256 353.885C449.81 353.664 450.283 353.279 450.612 352.782C450.732 352.572 450.952 352.132 450.762 350.312C450.532 348.012 450.422 346.862 449.682 346.132C448.782 345.242 448.082 345.892 445.962 345.202C443.532 344.412 443.712 343.312 441.012 342.262C439.202 341.562 438.722 341.892 437.302 341.022C436.152 340.322 434.692 339.022 434.972 338.232C435.282 337.392 437.282 338.042 438.072 336.842C438.692 335.912 437.832 335.002 438.532 333.742C438.942 333.022 439.792 332.332 440.392 332.512C441.052 332.702 440.802 333.772 441.632 335.142C442.401 336.313 443.548 337.185 444.882 337.612C445.892 337.982 447.142 338.442 448.132 337.772C449.012 337.182 449.502 335.832 449.062 335.142C448.492 334.252 446.762 335.012 446.272 334.212C446.192 334.02 446.151 333.814 446.153 333.606C446.154 333.398 446.199 333.192 446.282 333.002C446.412 332.559 446.648 332.155 446.971 331.825C447.293 331.495 447.692 331.25 448.132 331.112C448.642 331.032 449.162 331.222 452.162 333.742C452.322 333.882 452.482 334.012 452.622 334.132L452.632 334.142C454.222 335.492 454.512 335.792 455.102 335.762C455.298 335.749 455.491 335.706 455.672 335.632C455.989 335.499 456.28 335.313 456.533 335.082C457.24 334.392 457.804 333.57 458.193 332.662C458.703 331.482 458.503 331.002 458.813 330.802C459.533 330.342 462.103 331.882 464.803 334.652C465.559 335.903 466.24 337.199 466.843 338.532C468.805 342.792 469.977 347.373 470.303 352.052C470.333 352.502 470.353 352.962 470.373 353.422C470.383 353.872 470.393 354.332 470.393 354.792Z" fill="black"/>
<path d="M356.274 148.932C356.833 151.207 357.263 153.511 357.562 155.835C357.893 158.143 358.106 160.46 358.297 162.779C358.451 165.1 358.58 167.423 358.592 169.755C358.638 172.097 358.55 174.44 358.328 176.772C357.766 174.498 357.334 172.193 357.036 169.87C356.706 167.561 356.493 165.244 356.304 162.926C356.153 160.604 356.024 158.281 356.012 155.949C355.967 153.607 356.054 151.264 356.274 148.932Z" fill="black"/>
<path d="M370.692 178.692C371.226 176.321 371.889 173.981 372.678 171.682C373.432 169.382 374.294 167.126 375.178 164.879C376.096 162.645 377.038 160.421 378.087 158.241C379.111 156.036 380.257 153.89 381.517 151.812C380.986 154.184 380.324 156.525 379.535 158.824C378.78 161.123 377.918 163.379 377.032 165.625C376.111 167.858 375.17 170.082 374.12 172.262C373.095 174.466 371.951 176.613 370.692 178.692Z" fill="black"/>
<path d="M334.362 154.212C335.6 156.08 336.726 158.021 337.735 160.022C338.767 161.998 339.693 164.022 340.598 166.054C341.468 168.101 342.316 170.158 343.056 172.261C343.832 174.364 344.481 176.511 345 178.692C343.76 176.825 342.633 174.885 341.625 172.883C340.593 170.906 339.667 168.883 338.765 166.85C337.896 164.802 337.049 162.745 336.309 160.642C335.534 158.539 334.884 156.392 334.362 154.212Z" fill="black"/>
<path d="M241.228 316.785C240.334 316.558 239.423 316.398 238.504 316.309C238.069 316.254 237.628 316.298 237.212 316.438C236.819 316.581 236.943 317.012 237.161 317.388C237.668 318.138 238.276 318.816 238.968 319.401C239.642 320.021 240.356 320.612 241.082 321.166C241.148 321.216 241.19 321.29 241.201 321.371C241.212 321.452 241.19 321.535 241.141 321.6C241.107 321.643 241.063 321.676 241.013 321.697C240.962 321.718 240.908 321.726 240.854 321.719C238.962 321.51 237.179 320.726 235.745 319.474C235.018 318.847 234.415 318.089 233.966 317.24C233.729 316.799 233.56 316.325 233.465 315.834C233.409 315.549 233.415 315.255 233.482 314.972C233.531 314.79 233.621 314.622 233.744 314.48C233.782 314.411 233.818 314.388 233.875 314.28C234.709 312.761 235.421 311.044 236.146 309.396L238.274 304.385C238.987 302.71 239.71 301.056 240.322 299.361C240.951 297.666 241.462 295.949 242.054 294.217L243.789 289.035C244.379 287.313 245.102 285.637 245.752 283.938C248.351 277.126 251.679 270.616 255.678 264.521C257.697 261.462 260.08 258.66 262.776 256.177C263.116 255.868 263.447 255.55 263.796 255.249L264.886 254.401C265.61 253.826 266.367 253.295 267.155 252.813C268.737 251.779 270.486 251.026 272.324 250.588L272.221 250.612C275.347 249.681 278.57 249.121 281.826 248.942C285.046 248.681 288.272 248.597 291.491 248.594C294.711 248.595 297.929 248.658 301.144 248.782C304.358 248.934 307.565 249.127 310.777 249.389L310.44 249.503C311.682 248.231 312.828 246.867 313.867 245.424L315.472 243.246C315.986 242.45 316.659 241.77 317.451 241.248C319.094 240.312 321.027 240.02 322.874 240.428C324.678 240.752 326.396 241.442 327.924 242.456C327.93 242.46 327.935 242.465 327.939 242.471C327.943 242.477 327.946 242.484 327.948 242.491C327.949 242.498 327.949 242.505 327.948 242.513C327.946 242.52 327.944 242.527 327.94 242.533C327.931 242.544 327.918 242.552 327.903 242.555C327.889 242.558 327.874 242.555 327.861 242.548C326.318 241.627 324.602 241.031 322.82 240.798C321.081 240.502 319.293 240.837 317.78 241.743C317.071 242.244 316.476 242.89 316.034 243.637L314.493 245.88C313.468 247.409 312.315 248.847 311.046 250.18C311.005 250.22 310.957 250.251 310.904 250.271C310.851 250.291 310.795 250.299 310.738 250.296L310.708 250.294C307.514 250.099 304.307 249.971 301.104 249.885C297.901 249.784 294.698 249.731 291.496 249.747C288.295 249.755 285.098 249.887 281.914 250.086C278.75 250.223 275.612 250.728 272.564 251.591L272.496 251.609L272.461 251.616C270.76 252.029 269.134 252.706 267.643 253.623C266.87 254.07 266.125 254.565 265.412 255.104L264.331 255.902C263.985 256.187 263.653 256.491 263.313 256.784C262.62 257.358 261.962 257.971 261.34 258.621C260.721 259.276 260.062 259.894 259.475 260.579C258.327 261.97 257.125 263.324 256.116 264.83C251.96 270.783 248.616 277.263 246.171 284.099C245.579 285.815 244.915 287.503 244.384 289.237L242.822 294.449C242.289 296.171 241.837 297.963 241.201 299.677C240.595 301.408 239.879 303.094 239.185 304.769C238.493 306.451 237.751 308.112 237.015 309.778C236.253 311.444 235.56 313.089 234.623 314.745C234.546 314.87 234.459 314.99 234.363 315.101C234.369 315.157 234.322 315.12 234.321 315.21C234.288 315.371 234.287 315.537 234.318 315.698C234.394 316.1 234.53 316.489 234.72 316.852C235.117 317.617 235.644 318.308 236.276 318.894C237.566 320.087 239.191 320.859 240.931 321.104L240.703 321.657C239.971 321.062 239.271 320.447 238.599 319.789C237.9 319.14 237.298 318.395 236.81 317.576C236.685 317.345 236.61 317.09 236.592 316.828C236.592 316.678 236.639 316.532 236.725 316.409C236.811 316.287 236.933 316.194 237.074 316.143C237.545 315.999 238.043 315.969 238.528 316.056C239.452 316.193 240.365 316.401 241.257 316.678C241.264 316.68 241.271 316.683 241.276 316.688C241.282 316.692 241.287 316.698 241.29 316.704C241.294 316.711 241.296 316.718 241.297 316.725C241.298 316.732 241.297 316.74 241.295 316.747C241.291 316.76 241.282 316.772 241.269 316.779C241.257 316.786 241.242 316.789 241.228 316.785Z" fill="black"/>
<path d="M432.19 365.395C432.631 364.743 433.024 364.06 433.367 363.352C433.535 363.004 433.669 362.64 433.768 362.266C433.883 361.921 433.89 361.549 433.786 361.2C433.715 361.049 433.603 360.921 433.463 360.83C433.322 360.74 433.159 360.691 432.992 360.689C432.619 360.646 432.242 360.658 431.873 360.725C431.11 360.863 430.362 361.075 429.64 361.358C428.925 361.661 428.246 362.043 427.616 362.498C426.958 362.941 426.283 363.366 425.602 363.78C424.918 364.191 424.227 364.592 423.509 364.956C422.783 365.354 422.007 365.655 421.202 365.85C421.127 365.865 421.05 365.856 420.98 365.824C420.911 365.793 420.854 365.74 420.817 365.673C420.78 365.607 420.765 365.53 420.774 365.455C420.783 365.379 420.816 365.309 420.868 365.253L420.885 365.235C422.552 363.499 424.106 361.657 425.538 359.722L425.449 359.991L425.449 359.981C425.448 359.889 425.476 359.798 425.53 359.723L425.537 359.713C425.981 359.089 426.404 358.452 426.776 357.799C427.155 357.19 427.426 356.521 427.579 355.82C427.673 355.138 427.454 354.931 426.762 354.833C426.084 354.775 425.404 354.914 424.803 355.232C424.488 355.398 424.192 355.595 423.918 355.822C423.605 356.067 423.288 356.297 422.97 356.524C422.33 356.976 421.708 357.451 421.053 357.884C419.751 358.762 418.421 359.596 417.05 360.368C414.309 361.95 411.388 363.197 408.35 364.084C406.802 364.51 405.215 364.779 403.613 364.886C401.979 364.972 400.342 364.809 398.757 364.404C398.638 364.372 398.529 364.311 398.439 364.227C398.349 364.143 398.282 364.037 398.243 363.92C398.204 363.803 398.195 363.679 398.217 363.557C398.238 363.436 398.289 363.322 398.365 363.225L398.377 363.211L402.174 358.455L404.039 356.114C404.119 356 404.173 355.868 404.195 355.73C404.218 355.592 404.208 355.45 404.168 355.316C404.132 355.189 404.068 355.073 403.979 354.976C403.926 354.92 403.868 354.87 403.805 354.824C403.754 354.786 403.698 354.754 403.639 354.729C403.492 354.669 403.334 354.642 403.176 354.65C402.979 354.641 402.698 354.645 402.468 354.65C401.985 354.661 401.503 354.696 401.024 354.751C400.063 354.86 399.116 355.069 398.197 355.374C397.739 355.535 397.288 355.674 396.822 355.849C396.377 356.026 395.94 356.226 395.511 356.447L392.832 357.89C392.722 357.949 392.599 357.981 392.474 357.982L392.453 357.982H392.443L392.818 357.892C387.776 360.411 382.688 362.634 377.89 365.408L376.084 366.46C374.188 367.567 372.119 368.348 369.963 368.768C368.534 369.056 367.079 369.197 365.621 369.189C364.142 369.179 362.762 369.003 361.373 368.902L344.673 367.504L327.978 366.038C316.848 365.076 305.717 364.095 294.581 363.242L290.406 362.968C289.707 362.921 289.02 362.898 288.334 362.879C287.92 362.886 287.511 362.791 287.143 362.601C286.794 362.401 286.493 362.126 286.262 361.796C285.496 360.556 284.996 359.171 284.795 357.728C284.548 356.34 284.379 354.938 284.291 353.53C284.007 347.932 284.106 342.32 284.587 336.735L284.806 337.056C280.961 335.874 277.12 334.66 273.385 333.151C269.635 331.681 265.963 330.022 262.382 328.179C258.803 326.334 255.315 324.314 251.855 322.287C248.393 320.28 244.9 318.27 241.107 317.236L241.765 316.737C241.772 327.801 242.006 338.864 242.467 349.926C242.707 355.452 243.013 360.975 243.466 366.48C243.564 367.858 243.702 369.231 243.831 370.605C243.951 371.981 244.095 373.352 244.26 374.72C244.418 376.092 244.541 377.471 244.794 378.765C245.04 380.074 245.404 381.359 245.881 382.603C247.86 387.603 251.449 391.801 256.08 394.535C258.376 395.917 260.857 396.967 263.448 397.651C264.744 397.996 266.061 398.255 267.39 398.428C268.729 398.593 270.126 398.702 271.49 398.842L275.607 399.237L279.733 399.504C282.482 399.719 285.239 399.778 287.993 399.89C290.747 400.016 293.505 399.965 296.261 400.012C299.016 399.944 301.775 399.953 304.528 399.806C315.551 399.356 326.528 398.119 337.375 396.104C342.789 395.099 348.235 393.953 353.715 393.042C359.192 392.114 364.683 391.336 370.176 390.591C381.159 389.087 392.164 387.81 403.15 386.439C408.638 385.736 414.137 385.048 419.564 384.074L421.582 383.666C422.257 383.533 422.883 383.313 423.539 383.143C424.165 382.897 424.785 382.625 425.399 382.344C426.002 382.039 426.583 381.693 427.138 381.309C428.249 380.567 429.162 379.565 429.798 378.39C430.102 377.825 430.238 377.184 430.19 376.544C430.163 376.243 430.057 375.954 429.884 375.705C429.711 375.457 429.476 375.258 429.203 375.129C429.166 375.111 429.133 375.085 429.109 375.053C429.084 375.02 429.067 374.982 429.061 374.942C429.054 374.902 429.057 374.86 429.07 374.821C429.084 374.783 429.106 374.748 429.136 374.72L429.151 374.705C429.75 374.21 430.322 373.683 430.864 373.126C431.39 372.56 431.827 371.917 432.16 371.219C432.331 370.885 432.436 370.522 432.466 370.148C432.497 369.774 432.454 369.398 432.338 369.042C432.034 368.338 431.502 367.757 430.828 367.392C430.813 367.384 430.8 367.372 430.79 367.358C430.78 367.345 430.773 367.329 430.768 367.313C430.764 367.296 430.764 367.279 430.766 367.262C430.769 367.245 430.774 367.229 430.783 367.214L430.794 367.199L432.191 365.394L432.196 365.388C432.212 365.367 432.235 365.354 432.261 365.35C432.287 365.347 432.314 365.354 432.335 365.369C432.356 365.385 432.369 365.409 432.373 365.435C432.377 365.461 432.371 365.487 432.355 365.508L430.992 367.364L430.958 367.17C431.699 367.55 432.289 368.169 432.634 368.927C432.774 369.322 432.835 369.742 432.813 370.161C432.791 370.58 432.686 370.99 432.505 371.368C432.175 372.113 431.732 372.802 431.193 373.413C430.645 374.007 430.065 374.569 429.454 375.098L429.403 374.674C429.761 374.834 430.072 375.083 430.305 375.398C430.538 375.713 430.686 376.083 430.734 376.473C430.814 377.219 430.678 377.973 430.342 378.644C429.691 379.935 428.733 381.046 427.552 381.879C426.979 382.297 426.378 382.676 425.753 383.013C425.119 383.324 424.475 383.626 423.822 383.901C423.143 384.1 422.463 384.352 421.782 384.504L419.74 384.968C414.28 386.045 408.795 386.827 403.311 387.627L370.409 392.243C364.934 393.044 359.464 393.879 354.031 394.859C351.309 395.317 348.606 395.904 345.898 396.429C343.193 396.988 340.473 397.567 337.741 398.075C326.804 400.132 315.734 401.405 304.615 401.884C293.496 402.386 282.354 402.049 271.285 400.877C269.897 400.725 268.532 400.612 267.123 400.43C265.707 400.238 264.306 399.953 262.927 399.577C260.159 398.828 257.512 397.689 255.065 396.195C250.09 393.214 246.251 388.661 244.153 383.254C243.646 381.908 243.261 380.519 243.004 379.104C242.737 377.677 242.622 376.292 242.475 374.913C242.324 373.529 242.198 372.145 242.095 370.76C241.983 369.376 241.863 367.992 241.782 366.606C241.398 361.066 241.162 355.524 240.993 349.982C240.659 338.896 240.568 327.811 240.721 316.726L240.721 316.716C240.722 316.648 240.736 316.581 240.763 316.519C240.789 316.457 240.828 316.401 240.876 316.353C240.925 316.306 240.982 316.269 241.045 316.244C241.108 316.219 241.175 316.206 241.243 316.207C241.289 316.208 241.334 316.215 241.379 316.227C245.351 317.373 248.861 319.476 252.301 321.529C255.745 323.599 259.167 325.68 262.721 327.526C266.272 329.376 269.914 331.044 273.634 332.523C277.34 334.043 281.158 335.27 284.98 336.467C285.047 336.488 285.106 336.531 285.145 336.589C285.185 336.648 285.204 336.718 285.199 336.788C284.721 342.339 284.649 347.917 284.983 353.479C285.079 354.859 285.253 356.233 285.504 357.593C285.697 358.922 286.158 360.198 286.86 361.343C287.029 361.586 287.25 361.789 287.506 361.937C287.762 362.066 288.046 362.127 288.332 362.115C289.042 362.129 289.751 362.149 290.446 362.191L294.635 362.426C305.794 363.091 316.94 363.876 328.087 364.659L344.805 365.859L361.514 367.17C362.911 367.266 364.31 367.431 365.626 367.43C366.963 367.43 368.297 367.294 369.607 367.023C370.914 366.752 372.189 366.347 373.411 365.813C374.022 365.546 374.617 365.246 375.195 364.915L377.016 363.87C381.918 361.079 387.102 358.853 392.068 356.411L392.079 356.405C392.193 356.35 392.317 356.321 392.443 356.321H392.453L392.074 356.413L394.764 354.986C395.239 354.746 395.726 354.525 396.226 354.331C396.71 354.152 397.23 353.991 397.73 353.822C398.742 353.496 399.785 353.274 400.843 353.161C401.372 353.103 401.903 353.068 402.435 353.059C402.712 353.056 402.939 353.052 403.249 353.065C403.6 353.068 403.946 353.14 404.269 353.278C404.443 353.354 404.607 353.45 404.758 353.565C404.9 353.671 405.031 353.789 405.15 353.92C405.403 354.201 405.586 354.538 405.685 354.903C405.783 355.259 405.801 355.632 405.738 355.996C405.675 356.36 405.533 356.705 405.321 357.007L403.379 359.417L399.549 364.152L399.169 362.959C400.597 363.332 402.072 363.496 403.548 363.448C405.051 363.369 406.542 363.14 407.999 362.763C410.947 361.951 413.788 360.789 416.461 359.301C417.811 358.569 419.129 357.772 420.418 356.932C421.065 356.518 421.687 356.059 422.323 355.624C422.642 355.405 422.956 355.184 423.259 354.954C423.591 354.692 423.948 354.465 424.325 354.274C425.114 353.875 426.002 353.712 426.882 353.806C427.405 353.842 427.895 354.077 428.25 354.464C428.408 354.677 428.518 354.923 428.572 355.183C428.626 355.443 428.624 355.712 428.565 355.971C428.384 356.791 428.06 357.573 427.607 358.281C427.198 358.961 426.751 359.618 426.269 360.249L426.357 359.981L426.357 359.991L426.356 360.005C426.355 360.098 426.324 360.188 426.268 360.261C424.765 362.192 423.139 364.025 421.401 365.747L421.084 365.133C422.569 364.708 423.986 364.076 425.294 363.255C425.977 362.863 426.654 362.459 427.321 362.034C427.99 361.577 428.708 361.197 429.462 360.9C430.224 360.623 431.011 360.421 431.812 360.297C432.226 360.236 432.646 360.238 433.06 360.301C433.29 360.32 433.511 360.402 433.697 360.539C433.884 360.675 434.03 360.86 434.118 361.074C434.237 361.492 434.222 361.938 434.074 362.347C433.958 362.736 433.805 363.113 433.616 363.473C433.245 364.181 432.823 364.861 432.355 365.508C432.34 365.529 432.317 365.544 432.291 365.548C432.265 365.553 432.238 365.547 432.217 365.532C432.195 365.517 432.18 365.495 432.175 365.469C432.17 365.443 432.176 365.416 432.19 365.395V365.395Z" fill="black"/>
<path d="M421.457 365.95C419.948 366.834 418.426 367.65 416.861 368.399C415.312 369.174 413.69 369.792 412.019 370.246C413.618 369.621 415.151 368.839 416.595 367.91C418.05 367.011 419.472 366.038 420.836 365.028L420.844 365.022C420.962 364.934 421.111 364.897 421.257 364.919C421.403 364.941 421.534 365.02 421.622 365.139C421.71 365.257 421.747 365.406 421.726 365.552C421.704 365.698 421.625 365.829 421.507 365.917C421.491 365.929 421.474 365.94 421.457 365.95Z" fill="black"/>
<path d="M431.223 367.734C428.638 369.492 426.021 371.178 423.338 372.769C421.994 373.559 420.64 374.335 419.241 375.026C418.546 375.382 417.834 375.702 417.107 375.986C416.747 376.137 416.376 376.261 415.997 376.357C415.622 376.466 415.235 376.526 414.845 376.535C415.232 376.503 415.612 376.421 415.977 376.29C416.346 376.173 416.706 376.029 417.053 375.857C417.756 375.534 418.443 375.174 419.11 374.781C420.455 374.013 421.754 373.163 423.041 372.299C425.608 370.563 428.117 368.726 430.566 366.837L430.571 366.833C430.688 366.743 430.836 366.703 430.982 366.722C431.128 366.741 431.261 366.817 431.351 366.934C431.441 367.051 431.481 367.199 431.462 367.345C431.443 367.491 431.367 367.624 431.25 367.714L431.223 367.734Z" fill="black"/>
<path d="M429.661 375.332C428.653 376.069 427.594 376.736 426.492 377.325C425.408 377.918 424.291 378.447 423.145 378.91C420.872 379.844 418.493 380.498 416.062 380.858C418.438 380.321 420.74 379.496 422.916 378.403C424 377.866 425.052 377.267 426.066 376.608C427.074 375.966 428.037 375.254 428.947 374.479L428.965 374.464C429.02 374.415 429.084 374.379 429.154 374.355C429.223 374.332 429.297 374.322 429.37 374.328C429.443 374.333 429.514 374.352 429.58 374.385C429.646 374.418 429.704 374.463 429.752 374.518C429.8 374.574 429.837 374.638 429.86 374.708C429.883 374.777 429.892 374.851 429.887 374.924C429.881 374.997 429.861 375.068 429.828 375.134C429.795 375.199 429.75 375.258 429.694 375.305C429.684 375.314 429.672 375.324 429.661 375.332Z" fill="black"/>
<path d="M402.612 333.531C402.53 333.531 402.449 333.511 402.376 333.472C402.303 333.433 402.241 333.376 402.195 333.307L397.878 326.786C397.842 326.731 397.817 326.67 397.804 326.605C397.791 326.541 397.792 326.474 397.805 326.41C397.818 326.346 397.843 326.285 397.88 326.23C397.917 326.176 397.964 326.129 398.019 326.093C398.073 326.056 398.135 326.031 398.199 326.019C398.264 326.006 398.33 326.006 398.394 326.019C398.459 326.032 398.52 326.058 398.574 326.095C398.629 326.131 398.676 326.178 398.712 326.233L403.029 332.755C403.102 332.865 403.129 333 403.102 333.13C403.076 333.26 402.999 333.375 402.889 333.448C402.807 333.503 402.711 333.531 402.612 333.531Z" fill="black"/>
<path d="M424.842 317.231C424.759 317.231 424.678 317.211 424.605 317.172C424.532 317.133 424.471 317.076 424.425 317.008L420.106 310.486C420.07 310.431 420.045 310.37 420.032 310.306C420.02 310.241 420.02 310.175 420.033 310.11C420.046 310.046 420.072 309.985 420.109 309.93C420.145 309.876 420.192 309.829 420.247 309.793C420.302 309.756 420.363 309.731 420.428 309.719C420.492 309.706 420.559 309.706 420.623 309.719C420.687 309.733 420.748 309.758 420.803 309.795C420.857 309.832 420.904 309.879 420.94 309.933L425.259 316.455C425.309 316.53 425.337 316.618 425.342 316.708C425.346 316.798 425.326 316.888 425.283 316.968C425.24 317.048 425.176 317.114 425.099 317.16C425.021 317.207 424.932 317.231 424.842 317.231Z" fill="black"/>
</svg>
