<svg width="700" height="550" viewBox="0 0 700 550" fill="none" xmlns="http://www.w3.org/2000/svg">
<path d="M422.027 455.408C422.067 454.224 422.349 453.06 422.857 451.989C423.055 451.551 423.418 451.209 423.867 451.038C424.071 450.975 424.283 450.941 424.497 450.938C424.737 450.978 424.977 450.999 425.217 451.059C426.281 451.459 427.295 451.982 428.237 452.618C429.287 453.229 430.347 453.858 431.507 454.428C432.721 455.019 434.04 455.363 435.387 455.438C436.736 455.455 438.071 455.161 439.287 454.578C439.347 454.548 439.417 454.518 439.477 454.489C434.047 457.789 427.417 459.819 422.027 455.408Z" fill="black"/>
<path d="M464.557 415.658C463.507 415.288 462.147 414.298 460.557 412.018C456.587 406.328 453.977 412.368 453.977 412.368C448.457 420.898 442.577 416.209 441.407 415.618C441.173 415.523 440.915 415.498 440.667 415.548C440.339 415.585 440.016 415.662 439.707 415.778C437.727 416.458 434.907 418.508 434.747 421.388C434.595 422.731 434.195 424.033 433.567 425.228C434.47 424.708 435.454 424.343 436.477 424.148C437.483 423.94 438.511 423.856 439.537 423.898C440.592 423.936 441.633 424.149 442.617 424.528C443.142 424.7 443.626 424.975 444.042 425.337C444.458 425.7 444.796 426.142 445.037 426.638C444.145 426.284 443.197 426.087 442.237 426.058C441.317 425.988 440.387 425.938 439.437 425.898C438.497 425.858 437.537 425.798 436.567 425.708C435.556 425.628 434.553 425.467 433.567 425.228C432.657 427.105 431.611 428.913 430.437 430.638C431.247 430.039 432.179 429.626 433.167 429.428C434.155 429.208 435.173 429.158 436.177 429.278C437.2 429.389 438.192 429.698 439.097 430.188C440.015 430.667 440.786 431.386 441.327 432.268C440.297 432.068 439.447 431.798 438.557 431.668C437.677 431.508 436.817 431.358 435.947 431.258C434.187 431.038 432.437 430.958 430.417 430.658C429.527 431.998 428.837 432.898 428.837 432.898C427.997 433.798 427.247 434.658 426.547 435.498C427.498 435.083 428.512 434.832 429.547 434.758C430.581 434.673 431.621 434.734 432.637 434.938C433.687 435.133 434.691 435.523 435.597 436.088C436.548 436.635 437.277 437.499 437.657 438.528C436.793 438.094 435.885 437.756 434.947 437.518C434.067 437.268 433.157 437.088 432.247 436.898C430.314 436.568 428.406 436.104 426.537 435.508H426.527C426.497 435.548 426.467 435.578 426.437 435.618C426.137 441.718 425.987 446.638 425.987 446.638C424.265 448.792 422.054 450.503 419.537 451.628C419.674 452.568 420.077 453.449 420.697 454.168C421.11 454.613 421.555 455.027 422.027 455.408C421.653 454.172 421.629 452.857 421.957 451.608C422.157 450.874 422.638 450.249 423.297 449.868C423.642 449.671 424.023 449.545 424.417 449.498C424.784 449.482 425.152 449.495 425.517 449.538C425.857 449.608 426.207 449.678 426.537 449.768L427.467 450.148C428.067 450.408 428.607 450.688 429.157 450.958C430.257 451.528 431.297 452.148 432.347 452.618C433.319 453.142 434.389 453.458 435.489 453.544C436.59 453.63 437.696 453.485 438.737 453.118C440.996 452.293 443.184 451.283 445.277 450.098C447.897 447.52 450.043 444.5 451.617 441.178C455.707 432.748 463.467 428.488 467.007 422.948C467.087 422.828 467.157 422.718 467.227 422.598C467.606 421.986 467.839 421.294 467.906 420.577C467.973 419.86 467.874 419.138 467.615 418.465C467.357 417.793 466.946 417.19 466.416 416.703C465.885 416.216 465.249 415.859 464.557 415.658ZM455.627 422.228C455.198 423.317 454.697 424.376 454.127 425.398C453.569 426.428 452.944 427.42 452.257 428.368C451.56 429.349 450.762 430.254 449.877 431.068C450.092 429.887 450.427 428.731 450.877 427.618C451.316 426.531 451.817 425.469 452.377 424.438C452.937 423.41 453.562 422.418 454.247 421.468C454.944 420.488 455.741 419.583 456.627 418.768C456.414 419.953 456.078 421.113 455.627 422.228Z" fill="black"/>
<path d="M428.597 213.148C427.897 212.213 426.953 211.49 425.867 211.058L425.857 211.048C425.768 211.004 425.684 210.951 425.607 210.888C426.38 212.998 427.552 214.94 429.057 216.608C429.087 216.498 429.107 216.398 429.127 216.288C429.254 215.756 429.272 215.204 429.181 214.664C429.09 214.125 428.891 213.609 428.597 213.148ZM428.597 213.148C427.897 212.213 426.953 211.49 425.867 211.058L425.857 211.048C425.768 211.004 425.684 210.951 425.607 210.888C426.38 212.998 427.552 214.94 429.057 216.608C429.087 216.498 429.107 216.398 429.127 216.288C429.254 215.756 429.272 215.204 429.181 214.664C429.09 214.125 428.891 213.609 428.597 213.148ZM428.597 213.148C427.897 212.213 426.953 211.49 425.867 211.058L425.857 211.048C425.768 211.004 425.684 210.951 425.607 210.888C426.38 212.998 427.552 214.94 429.057 216.608C429.087 216.498 429.107 216.398 429.127 216.288C429.254 215.756 429.272 215.204 429.181 214.664C429.09 214.125 428.891 213.609 428.597 213.148ZM428.597 213.148C427.897 212.213 426.953 211.49 425.867 211.058L425.857 211.048C425.768 211.004 425.684 210.951 425.607 210.888C426.38 212.998 427.552 214.94 429.057 216.608C429.087 216.498 429.107 216.398 429.127 216.288C429.254 215.756 429.272 215.204 429.181 214.664C429.09 214.125 428.891 213.609 428.597 213.148ZM428.597 213.148C427.897 212.213 426.953 211.49 425.867 211.058L425.857 211.048C425.768 211.004 425.684 210.951 425.607 210.888C426.38 212.998 427.552 214.94 429.057 216.608C429.087 216.498 429.107 216.398 429.127 216.288C429.254 215.756 429.272 215.204 429.181 214.664C429.09 214.125 428.891 213.609 428.597 213.148ZM428.597 213.148C427.897 212.213 426.953 211.49 425.867 211.058L425.857 211.048C425.768 211.004 425.684 210.951 425.607 210.888C426.38 212.998 427.552 214.94 429.057 216.608C429.087 216.498 429.107 216.398 429.127 216.288C429.254 215.756 429.272 215.204 429.181 214.664C429.09 214.125 428.891 213.609 428.597 213.148ZM428.597 213.148C427.897 212.213 426.953 211.49 425.867 211.058L425.857 211.048C425.768 211.004 425.684 210.951 425.607 210.888C426.38 212.998 427.552 214.94 429.057 216.608C429.087 216.498 429.107 216.398 429.127 216.288C429.254 215.756 429.272 215.204 429.181 214.664C429.09 214.125 428.891 213.609 428.597 213.148ZM428.597 213.148C427.897 212.213 426.953 211.49 425.867 211.058L425.857 211.048C425.768 211.004 425.684 210.951 425.607 210.888C426.38 212.998 427.552 214.94 429.057 216.608C429.087 216.498 429.107 216.398 429.127 216.288C429.254 215.756 429.272 215.204 429.181 214.664C429.09 214.125 428.891 213.609 428.597 213.148ZM471.407 211.488C469.917 190.038 469.027 180.508 460.977 167.708C452.937 154.898 425.207 159.028 425.207 159.028C412.137 177.458 403.857 164.788 403.857 164.788C399.667 166.988 397.667 163.408 397.667 163.408C373.967 173.408 374.607 185.868 374.607 190.338C374.607 194.808 373.117 210.888 373.117 210.888C369.247 231.738 373.117 257.658 373.117 259.438C373.117 261.228 377.887 284.158 377.887 284.158C380.857 287.438 387.117 283.868 387.117 283.868C385.957 276.518 385.12 269.128 384.607 261.698C384.337 257.988 384.197 254.268 384.107 250.538C384.047 246.818 384.147 243.048 384.367 239.338C384.567 235.668 384.577 231.99 384.397 228.318C384.287 224.628 383.987 220.938 383.717 217.248C383.417 213.558 383.057 209.868 382.677 206.178C382.327 202.478 381.867 198.798 381.457 195.108C383.099 202.365 384.367 209.701 385.257 217.088C386.265 224.5 386.633 231.984 386.357 239.458C385.847 246.818 385.977 254.208 386.167 261.618C386.417 269.028 386.734 276.445 387.117 283.868C426.427 293.688 460.087 279.098 460.087 279.098L457.407 249.908C456.292 250.271 455.114 250.397 453.947 250.278C452.785 250.176 451.63 250.009 450.487 249.778C448.223 249.278 445.99 248.651 443.797 247.898C439.429 246.401 435.14 244.682 430.947 242.748C426.767 240.818 422.641 238.785 418.567 236.648L417.037 235.868L416.277 235.478L415.487 235.018C414.41 234.396 413.498 233.525 412.827 232.478C412.185 231.422 411.888 230.192 411.977 228.958C412.062 227.785 412.421 226.647 413.027 225.638C412.587 226.653 412.412 227.762 412.519 228.862C412.626 229.963 413.011 231.018 413.637 231.928C414.917 233.668 417.127 234.268 419.237 235.248C423.457 237.098 427.597 239.048 431.777 240.928C435.937 242.838 440.117 244.698 444.337 246.438C446.457 247.288 448.577 248.128 450.737 248.828C451.818 249.183 452.916 249.484 454.027 249.728C455.133 249.998 456.279 250.059 457.407 249.908C471.997 248.418 472.897 232.928 471.407 211.488ZM414.447 187.488C415.296 186.627 416.274 185.905 417.347 185.348C416.771 186.41 416.028 187.372 415.147 188.198C414.297 189.057 413.318 189.779 412.247 190.338C412.826 189.278 413.568 188.317 414.447 187.488H414.447ZM403.967 185.278C404.124 184.088 404.468 182.93 404.987 181.848C405.167 183.036 405.157 184.244 404.957 185.428C404.8 186.614 404.459 187.767 403.947 188.848C403.769 187.664 403.775 186.46 403.967 185.278H403.967ZM394.627 185.928C395.274 187.024 395.753 188.21 396.047 189.448C394.255 187.628 392.972 185.37 392.327 182.898C393.239 183.789 394.014 184.81 394.627 185.928L394.627 185.928ZM448.667 219.558C446.177 218.538 443.657 217.578 441.137 216.628C437.637 215.318 434.127 214.028 430.607 212.758C431.163 213.987 431.293 215.367 430.977 216.678C430.614 218.094 429.997 219.432 429.157 220.628C428.367 221.785 427.451 222.852 426.427 223.808C424.556 225.816 422.428 227.568 420.097 229.018C419.465 229.376 418.78 229.629 418.067 229.768C417.68 229.834 417.283 229.81 416.907 229.698C416.52 229.574 416.19 229.315 415.977 228.968C415.617 228.343 415.441 227.629 415.467 226.908C415.477 226.228 415.557 225.551 415.707 224.888C415.657 225.555 415.677 226.226 415.767 226.888C415.824 227.522 416.048 228.129 416.417 228.648C416.603 228.854 416.847 228.998 417.116 229.063C417.386 229.127 417.668 229.108 417.927 229.008C418.523 228.828 419.085 228.547 419.587 228.178C420.121 227.81 420.635 227.412 421.127 226.988C412.857 222.128 412.567 226.398 406.477 225.638C400.257 224.848 399.177 211.788 399.177 211.788C397.453 211.667 395.752 211.321 394.117 210.758C392.665 210.329 391.375 209.471 390.417 208.298C389.277 206.858 388.987 205.228 394.707 206.128L395.427 206.248L391.607 195.108H409.647L413.537 206.628C413.745 206.131 413.847 205.596 413.837 205.057C413.826 204.518 413.704 203.987 413.477 203.498L412.507 200.618C412.507 200.618 420.767 197.338 424.047 206.868C424.467 208.098 424.887 209.188 425.277 210.138C425.277 209.993 425.308 209.85 425.367 209.718C425.474 209.495 425.66 209.319 425.889 209.225C426.118 209.131 426.374 209.125 426.607 209.208C431.717 211.038 436.767 212.988 441.727 215.178C443.387 215.908 445.034 216.675 446.667 217.478C446.567 214.988 446.177 212.588 445.847 210.158L444.727 202.618C444.377 200.098 444.017 197.578 443.747 195.038C443.457 192.498 443.207 189.948 443.107 187.358C443.991 189.778 444.716 192.254 445.277 194.768C445.867 197.268 446.317 199.798 446.707 202.338C447.071 204.885 447.305 207.448 447.407 210.018C447.558 212.537 447.335 215.064 446.747 217.518C447.527 217.898 448.307 218.268 449.077 218.668C451.508 219.878 453.845 221.268 456.067 222.828C453.647 221.608 451.167 220.558 448.667 219.558L448.667 219.558ZM425.867 211.058L425.857 211.048C425.768 211.004 425.684 210.951 425.607 210.888C426.38 212.998 427.552 214.94 429.057 216.608C429.087 216.498 429.107 216.398 429.127 216.288C429.254 215.756 429.272 215.204 429.181 214.664C429.09 214.125 428.891 213.609 428.597 213.148C427.897 212.213 426.953 211.49 425.867 211.058L425.867 211.058ZM428.597 213.148C427.897 212.213 426.953 211.49 425.867 211.058L425.857 211.048C425.768 211.004 425.684 210.951 425.607 210.888C426.38 212.998 427.552 214.94 429.057 216.608C429.087 216.498 429.107 216.398 429.127 216.288C429.254 215.756 429.272 215.204 429.181 214.664C429.09 214.125 428.891 213.609 428.597 213.148H428.597ZM428.597 213.148C427.897 212.213 426.953 211.49 425.867 211.058L425.857 211.048C425.768 211.004 425.684 210.951 425.607 210.888C426.38 212.998 427.552 214.94 429.057 216.608C429.087 216.498 429.107 216.398 429.127 216.288C429.254 215.756 429.272 215.204 429.181 214.664C429.09 214.125 428.891 213.609 428.597 213.148H428.597ZM428.597 213.148C427.897 212.213 426.953 211.49 425.867 211.058L425.857 211.048C425.768 211.004 425.684 210.951 425.607 210.888C426.38 212.998 427.552 214.94 429.057 216.608C429.087 216.498 429.107 216.398 429.127 216.288C429.254 215.756 429.272 215.204 429.181 214.664C429.09 214.125 428.891 213.609 428.597 213.148H428.597ZM428.597 213.148C427.897 212.213 426.953 211.49 425.867 211.058L425.857 211.048C425.768 211.004 425.684 210.951 425.607 210.888C426.38 212.998 427.552 214.94 429.057 216.608C429.087 216.498 429.107 216.398 429.127 216.288C429.254 215.756 429.272 215.204 429.181 214.664C429.09 214.125 428.891 213.609 428.597 213.148H428.597ZM428.597 213.148C427.897 212.213 426.953 211.49 425.867 211.058L425.857 211.048C425.768 211.004 425.684 210.951 425.607 210.888C426.38 212.998 427.552 214.94 429.057 216.608C429.087 216.498 429.107 216.398 429.127 216.288C429.254 215.756 429.272 215.204 429.181 214.664C429.09 214.125 428.891 213.609 428.597 213.148H428.597ZM428.597 213.148C427.897 212.213 426.953 211.49 425.867 211.058L425.857 211.048C425.768 211.004 425.684 210.951 425.607 210.888C426.38 212.998 427.552 214.94 429.057 216.608C429.087 216.498 429.107 216.398 429.127 216.288C429.254 215.756 429.272 215.204 429.181 214.664C429.09 214.125 428.891 213.609 428.597 213.148H428.597Z" fill="black"/>
<path d="M391.136 138.366C391.543 142.855 392.24 147.313 393.222 151.712C393.714 153.865 394.392 155.972 395.249 158.008C395.994 159.973 397.228 161.715 398.835 163.07C399.592 163.664 400.503 164.032 401.46 164.13C402.418 164.228 403.384 164.052 404.246 163.623C406.239 162.676 408.156 161.575 409.977 160.329C410.884 159.705 411.752 159.025 412.575 158.294C413.386 157.605 414.049 156.759 414.524 155.807C415.018 154.838 415.324 153.784 415.426 152.701C415.514 151.584 415.601 150.441 415.709 149.312C415.812 150.447 415.914 151.569 415.98 152.716C416.034 153.914 415.84 155.111 415.412 156.232C414.984 157.353 414.33 158.374 413.492 159.232C412.688 160.076 411.825 160.861 410.908 161.581C409.079 163.018 407.116 164.276 405.047 165.339C403.874 165.912 402.571 166.167 401.268 166.077C399.945 165.974 398.682 165.484 397.635 164.669C395.761 163.09 394.337 161.044 393.508 158.738C392.674 156.569 392.067 154.318 391.698 152.023C390.949 147.511 390.761 142.924 391.136 138.366Z" fill="black"/>
<path d="M402.412 202.627C402.895 202.61 403.352 202.407 403.687 202.059C404.023 201.712 404.21 201.248 404.21 200.765C404.21 200.283 404.023 199.819 403.687 199.471C403.352 199.124 402.895 198.921 402.412 198.904C401.929 198.921 401.472 199.124 401.137 199.471C400.801 199.819 400.614 200.283 400.614 200.765C400.614 201.248 400.801 201.712 401.137 202.059C401.472 202.407 401.929 202.61 402.412 202.627Z" fill="black"/>
<path d="M415.709 142.618C415.709 142.618 417.154 135.841 420.129 137.716C420.621 138.049 421.025 138.495 421.309 139.017C421.592 139.539 421.746 140.121 421.757 140.715C421.864 142.999 421.858 147.201 420.4 147.525C420.4 147.525 423.645 155.531 423.961 134.703C423.975 133.903 423.926 133.104 423.816 132.312C423.298 128.662 421.269 119.043 414.368 120.496C414.368 120.496 403.72 112.677 394.189 123.4C393.126 124.554 391.999 125.648 390.814 126.676C390.128 127.243 389.574 127.954 389.193 128.758C388.811 129.563 388.61 130.441 388.605 131.331V131.401C388.605 133.922 387.992 136.405 386.819 138.636L385.552 141.047C385.552 141.047 389.424 143.605 394.189 133.391C394.189 133.391 396.2 127.867 401.487 130.548C401.487 130.548 408.337 125.41 411.018 130.324C411.018 130.324 411.782 131.428 412.658 132.759C413.778 134.466 414.452 136.426 414.618 138.461L415.709 142.618Z" fill="black"/>
<path d="M421.66 149.031C421.549 149.915 421.633 150.814 421.907 151.662C422.151 152.509 422.458 153.336 422.824 154.137C423.179 154.95 423.587 155.746 423.991 156.555C424.401 157.362 424.833 158.163 425.203 159.029C424.503 158.412 423.874 157.719 423.326 156.964C423.038 156.596 422.812 156.185 422.553 155.795C422.328 155.385 422.109 154.969 421.911 154.541C421.518 153.672 421.259 152.749 421.143 151.803C420.976 150.847 421.16 149.863 421.66 149.031Z" fill="black"/>
<path d="M391.134 143.771C391.661 143.156 392.353 142.704 393.128 142.468C393.898 142.216 394.706 142.101 395.516 142.13C396.315 142.164 397.106 142.314 397.862 142.575C398.233 142.711 398.596 142.866 398.951 143.039C399.295 143.232 399.628 143.445 399.948 143.676C399.547 143.644 399.17 143.571 398.795 143.504L397.676 143.333C396.949 143.226 396.216 143.158 395.482 143.129C394.004 143.046 392.525 143.265 391.134 143.771Z" fill="black"/>
<path d="M401.487 143.429C402.204 142.907 403.004 142.509 403.853 142.252C404.708 141.969 405.603 141.826 406.504 141.827C407.43 141.826 408.345 142.036 409.177 142.444C409.988 142.875 410.635 143.562 411.018 144.398C410.379 143.864 409.651 143.445 408.869 143.161C408.098 142.935 407.299 142.822 406.496 142.827C405.67 142.822 404.844 142.883 404.028 143.009C403.195 143.129 402.356 143.276 401.487 143.429Z" fill="black"/>
<path d="M395.604 148.025C395.993 148.011 396.361 147.848 396.632 147.568C396.902 147.288 397.053 146.914 397.053 146.525C397.053 146.136 396.902 145.762 396.632 145.482C396.361 145.202 395.993 145.038 395.604 145.025C395.215 145.038 394.847 145.202 394.576 145.482C394.306 145.762 394.155 146.136 394.155 146.525C394.155 146.914 394.306 147.288 394.576 147.568C394.847 147.848 395.215 148.011 395.604 148.025Z" fill="black"/>
<path d="M403.646 148.025C404.035 148.011 404.403 147.848 404.673 147.568C404.944 147.288 405.095 146.914 405.095 146.525C405.095 146.136 404.944 145.762 404.673 145.482C404.403 145.202 404.035 145.038 403.646 145.025C403.257 145.038 402.889 145.202 402.618 145.482C402.348 145.762 402.197 146.136 402.197 146.525C402.197 146.914 402.348 147.288 402.618 147.568C402.889 147.848 403.257 148.011 403.646 148.025Z" fill="black"/>
<path d="M396.051 150.429C396.107 150.836 396.258 151.225 396.492 151.563C396.594 151.669 396.718 151.752 396.856 151.806C396.993 151.86 397.141 151.884 397.288 151.876C397.686 151.881 398.084 151.86 398.479 151.812C398.933 151.755 399.391 151.733 399.848 151.745C399.512 152.103 399.106 152.389 398.655 152.583C398.203 152.777 397.717 152.876 397.226 152.873C396.934 152.847 396.651 152.764 396.391 152.63C396.119 152.468 395.911 152.217 395.801 151.921C395.714 151.671 395.691 151.404 395.735 151.143C395.778 150.882 395.887 150.637 396.051 150.429Z" fill="black"/>
<path d="M395.983 154.785C396.397 155.425 396.909 155.995 397.501 156.475C398.032 156.885 398.696 157.084 399.364 157.034C400.072 156.953 400.757 156.734 401.38 156.39C401.7 156.192 402.055 156.038 402.385 155.83C402.717 155.625 403.051 155.415 403.422 155.232C403.199 155.571 402.956 155.897 402.697 156.209C402.417 156.509 402.117 156.79 401.799 157.049C401.121 157.598 400.298 157.939 399.43 158.031C398.973 158.062 398.516 157.99 398.091 157.82C397.666 157.649 397.285 157.386 396.976 157.048C396.408 156.421 396.06 155.627 395.983 154.785Z" fill="black"/>
<path d="M403.758 212.642C404.268 214.058 404.579 215.452 404.949 216.822C405.121 217.509 405.327 218.177 405.549 218.835C405.752 219.514 406.093 220.143 406.55 220.683C405.811 220.416 405.202 219.877 404.846 219.175C404.464 218.519 404.173 217.813 403.983 217.078C403.592 215.632 403.515 214.119 403.758 212.642Z" fill="black"/>
<path d="M399.178 211.785C400.086 211.853 400.97 212.107 401.775 212.531C402.598 212.922 403.329 213.481 403.924 214.17C403.016 214.105 402.131 213.851 401.327 213.424C400.505 213.031 399.774 212.473 399.178 211.785Z" fill="black"/>
<path d="M400.011 216.663C400.823 216.495 401.662 216.513 402.466 216.716C403.279 216.884 404.042 217.235 404.697 217.742C403.886 217.912 403.046 217.894 402.242 217.69C401.431 217.52 400.668 217.169 400.011 216.663Z" fill="black"/>
<path d="M401.333 220.684C402.158 220.602 402.991 220.708 403.769 220.993C404.559 221.245 405.281 221.674 405.88 222.247C405.055 222.331 404.222 222.225 403.444 221.938C402.655 221.684 401.933 221.255 401.333 220.684Z" fill="black"/>
<path d="M388.117 284.079L390.536 305.269C391.335 312.332 392.18 319.388 393.073 326.437C393.962 333.486 394.851 340.535 395.922 347.549C396.458 351.056 397.027 354.557 397.695 358.029C398.031 359.763 398.396 361.493 398.804 363.195C399.137 364.85 399.664 366.459 400.374 367.991L400.405 368.049C400.485 368.199 400.517 368.369 400.499 368.538C399.789 375.05 399.148 381.568 398.378 388.074L396.142 407.598C395.391 414.106 394.639 420.613 393.957 427.128C393.263 433.641 392.531 440.151 391.908 446.671L391.765 446.369C394.418 448.006 397.226 449.377 400.148 450.463C403.049 451.586 406.088 452.312 409.183 452.621C412.246 452.952 415.344 452.588 418.247 451.557C421.129 450.523 423.654 448.684 425.523 446.258L425.388 446.62C425.576 441.007 425.663 435.387 425.99 429.776C426.143 426.969 426.316 424.163 426.556 421.354C426.673 419.949 426.811 418.544 426.986 417.133C427.128 415.664 427.413 414.211 427.837 412.797C427.9 412.608 428.029 412.448 428.2 412.345C428.371 412.243 428.573 412.206 428.77 412.24L428.85 412.254C431.331 412.669 433.851 412.811 436.364 412.678C438.873 412.563 441.357 412.126 443.754 411.378C446.121 410.635 448.334 409.473 450.289 407.948C452.217 406.41 453.825 404.51 455.025 402.355L454.99 403.295C448.809 390.373 442.792 377.375 436.684 364.418C436.584 364.204 436.562 363.961 436.621 363.731C438.378 356.944 440.141 350.143 441.799 343.322C443.477 336.505 445.045 329.661 446.572 322.81C448.115 315.961 449.541 309.087 450.792 302.181C452.158 295.295 453.138 288.339 453.727 281.343C453.729 281.317 453.741 281.293 453.761 281.276C453.78 281.259 453.806 281.25 453.832 281.251C453.858 281.252 453.882 281.264 453.9 281.283C453.918 281.302 453.927 281.327 453.927 281.353C453.586 288.383 452.844 295.389 451.706 302.335C450.619 309.287 449.356 316.209 447.976 323.106C446.596 330.003 445.091 336.874 443.523 343.73C441.939 350.583 440.354 357.431 438.573 364.245L438.51 363.558C444.616 376.515 450.812 389.429 456.844 402.421L456.851 402.437C456.918 402.583 456.949 402.743 456.942 402.904C456.935 403.065 456.89 403.221 456.81 403.361C455.462 405.736 453.663 407.824 451.515 409.509C449.363 411.162 446.931 412.415 444.335 413.208C441.775 413.986 439.125 414.431 436.451 414.532C433.784 414.655 431.112 414.478 428.485 414.003L429.497 413.459C429.113 414.733 428.845 416.039 428.696 417.361C428.506 418.732 428.35 420.117 428.214 421.507C427.936 424.285 427.724 427.077 427.53 429.87C427.345 432.665 427.155 435.461 427.022 438.26L426.587 446.656L426.586 446.676C426.579 446.802 426.532 446.922 426.451 447.018C424.402 449.552 421.676 451.454 418.591 452.503C415.538 453.525 412.295 453.847 409.101 453.444C405.948 453.061 402.856 452.283 399.897 451.128C396.935 450.005 394.092 448.591 391.41 446.907C391.36 446.875 391.32 446.83 391.295 446.776C391.27 446.723 391.26 446.664 391.266 446.605C391.983 440.094 392.591 433.572 393.237 427.053C393.895 420.536 394.483 414.012 395.072 407.488L396.856 387.917C397.426 381.391 398.125 374.878 398.756 368.359L398.88 368.905C398.055 367.227 397.445 365.451 397.065 363.621C396.62 361.872 396.296 360.113 395.962 358.356C395.319 354.841 394.78 351.318 394.272 347.793C393.273 340.74 392.394 333.678 391.636 326.605C390.89 319.53 390.2 312.451 389.564 305.368C388.967 298.281 388.375 291.195 387.917 284.097C387.916 284.071 387.924 284.045 387.941 284.025C387.958 284.005 387.983 283.993 388.009 283.991C388.035 283.988 388.061 283.996 388.081 284.013C388.101 284.03 388.114 284.053 388.117 284.079L388.117 284.079Z" fill="black"/>
<path d="M408.988 287.1C408.372 295.831 407.63 304.548 406.761 313.251C405.92 321.956 404.962 330.649 403.982 339.338C402.965 348.024 401.923 356.706 400.765 365.375C399.635 374.048 398.377 382.706 396.99 391.348C397.603 382.616 398.345 373.899 399.214 365.197C400.056 356.491 401.014 347.799 401.996 339.11C403.016 330.425 404.058 321.742 405.216 313.073C406.347 304.401 407.604 295.743 408.988 287.1Z" fill="black"/>
<path d="M426.534 433.759C426.699 426.918 427.155 420.088 427.827 413.281C428.468 406.469 429.365 399.682 430.433 392.919C430.971 389.538 431.605 386.171 432.243 382.807C432.981 379.46 433.627 376.094 434.534 372.784C436.098 366.1 438.377 359.603 441.331 353.407C440.804 355.04 440.262 356.658 439.704 358.262L438.352 363.191C437.53 366.495 436.722 369.798 436.054 373.138C434.662 379.799 433.446 386.499 432.407 393.237C431.304 399.961 430.327 406.709 429.37 413.464L426.534 433.759Z" fill="black"/>
<path d="M399.625 296.076C401.04 296.171 402.442 296.399 403.814 296.758C405.168 297.09 406.503 297.498 407.812 297.977C409.123 298.456 410.405 299.009 411.653 299.635C412.935 300.249 414.146 301.004 415.262 301.884C413.858 301.728 412.467 301.465 411.103 301.096C409.757 300.749 408.428 300.335 407.123 299.854C405.817 299.375 404.535 298.829 403.284 298.219C402.002 297.617 400.777 296.9 399.625 296.076Z" fill="black"/>
<path d="M433.133 380.01C434.79 382.357 436.25 384.836 437.498 387.424C438.772 389.993 439.905 392.63 440.893 395.323C441.385 396.669 441.827 398.034 442.271 399.397C442.652 400.781 443.099 402.144 443.402 403.549C444.106 406.334 444.583 409.172 444.83 412.034C443.771 409.354 442.88 406.662 441.907 403.996C440.951 401.327 440.01 398.66 439.016 396.011C438.066 393.347 437.054 390.704 436.072 388.042C435.078 385.384 434.085 382.723 433.133 380.01Z" fill="black"/>
<path d="M421.66 450.499C420.107 436.335 420.849 422.017 422.077 407.844C423.366 393.645 425.541 379.54 428.591 365.611C430.168 358.659 431.949 351.759 433.933 344.911C435.921 338.09 437.785 331.238 439.685 324.394C441.556 317.544 443.335 310.667 444.937 303.751C446.661 296.86 447.954 289.868 448.808 282.816C448.644 286.373 448.281 289.918 447.72 293.434C447.209 296.959 446.552 300.458 445.895 303.957C444.483 310.936 442.868 317.869 441.174 324.781C439.505 331.7 437.583 338.554 435.684 345.409C433.772 352.238 432.057 359.117 430.54 366.046C428.967 372.958 427.61 379.915 426.469 386.916C425.892 390.412 425.423 393.93 424.92 397.441C424.486 400.961 423.991 404.475 423.6 408.001C422.78 415.048 422.162 422.12 421.802 429.208C421.341 436.296 421.294 443.405 421.66 450.499Z" fill="black"/>
<path d="M377.882 284.162C378.512 287.614 379.05 291.062 379.633 294.494C380.209 297.924 380.809 301.351 381.596 304.682C381.805 305.508 382.021 306.334 382.292 307.118C382.514 307.867 382.825 308.586 383.219 309.261C383.293 309.384 383.382 309.499 383.483 309.602C383.591 309.719 383.807 309.894 383.957 310.038L384.923 310.947C385.507 311.537 386.121 312.096 386.762 312.623C386.884 312.718 387.015 312.802 387.152 312.874C387.187 312.892 387.247 312.913 387.2 312.902C387.112 312.91 387.027 312.938 386.951 312.983C386.749 313.15 386.854 313.164 386.859 313.011C386.885 312.85 386.895 312.687 386.889 312.524C386.861 311.7 386.764 310.88 386.598 310.073C386.268 308.393 385.891 306.692 385.479 305L385.467 304.953C385.442 304.849 385.454 304.74 385.5 304.643C385.547 304.547 385.626 304.47 385.723 304.425C385.82 304.38 385.93 304.371 386.034 304.398C386.137 304.425 386.228 304.488 386.29 304.574C386.743 305.296 387.408 305.859 388.193 306.187C388.385 306.24 388.589 306.237 388.779 306.178C388.97 306.12 389.14 306.008 389.269 305.856C389.428 305.699 389.567 305.523 389.683 305.332L389.99 304.709L389.812 305.392C389.73 305.62 389.62 305.838 389.485 306.04C389.341 306.268 389.136 306.451 388.894 306.568C388.651 306.686 388.381 306.733 388.113 306.705C387.597 306.638 387.106 306.439 386.688 306.129C386.277 305.845 385.898 305.517 385.558 305.15L386.369 304.725C386.981 306.37 387.577 308.025 388.038 309.745C388.295 310.633 388.473 311.541 388.572 312.459C388.594 312.731 388.588 313.006 388.555 313.277C388.538 313.507 388.471 313.73 388.36 313.931C388.248 314.133 388.095 314.308 387.909 314.445C387.653 314.616 387.345 314.692 387.039 314.658C386.929 314.653 386.821 314.633 386.717 314.599C386.629 314.577 386.543 314.548 386.46 314.513C386.201 314.402 385.953 314.265 385.722 314.104C384.98 313.567 384.274 312.981 383.61 312.349L382.655 311.479C382.488 311.324 382.357 311.229 382.159 311.037C381.946 310.836 381.758 310.611 381.597 310.367C380.673 308.742 380.029 306.973 379.694 305.135C379.291 303.399 378.998 301.657 378.765 299.912C378.513 298.169 378.344 296.421 378.198 294.673C377.904 291.177 377.799 287.669 377.882 284.162Z" fill="black"/>
<path d="M385.492 305.114C385.072 304.269 384.705 303.399 384.393 302.508C384.081 301.628 383.819 300.73 383.61 299.819C383.171 298.011 383.047 296.14 383.243 294.289C383.213 296.123 383.5 297.95 384.091 299.687C384.375 300.552 384.708 301.399 385.088 302.226C385.461 303.046 385.885 303.842 386.356 304.61L386.365 304.624C386.435 304.737 386.457 304.873 386.427 305.002C386.397 305.132 386.317 305.244 386.204 305.314C386.091 305.384 385.955 305.407 385.826 305.377C385.697 305.347 385.585 305.266 385.514 305.154C385.507 305.141 385.499 305.127 385.492 305.114Z" fill="black"/>
<path d="M434.976 285.732C436.076 288.878 437.458 291.918 439.105 294.815C439.941 296.194 440.912 297.485 442.005 298.671C443.175 299.863 444.458 300.939 445.836 301.884C444.069 301.622 442.396 300.92 440.972 299.841C439.54 298.749 438.326 297.395 437.395 295.852C436.49 294.324 435.816 292.671 435.396 290.945C434.95 289.246 434.807 287.481 434.976 285.732Z" fill="black"/>
<path d="M364.887 489.588C365.385 488.419 366.09 487.348 366.967 486.429C367.324 486.052 367.81 485.823 368.327 485.789C368.809 485.812 369.27 485.995 369.637 486.309C370.507 487.157 371.273 488.108 371.917 489.139C372.657 490.199 373.417 491.279 374.267 492.339C375.157 493.457 376.254 494.394 377.497 495.099C378.785 495.757 380.222 496.071 381.667 496.009C382.142 496.009 382.616 495.979 383.087 495.919C376.267 497.259 368.497 496.819 364.887 489.588Z" fill="black"/>
<path d="M421.687 466.639C420.817 465.809 419.907 464.199 419.287 461.159C417.717 453.559 412.807 458.699 412.807 458.699C405.075 465.644 403.525 459.345 399.397 456.689C398.194 455.915 392.477 455.799 390.687 459.819C390.011 461.12 389.11 462.291 388.027 463.279C389.123 463.186 390.226 463.267 391.297 463.519C392.364 463.762 393.397 464.131 394.377 464.619C395.383 465.116 396.299 465.779 397.087 466.579C397.944 467.376 398.454 468.479 398.507 469.649C397.813 468.897 396.994 468.271 396.087 467.799C395.237 467.309 394.367 466.849 393.467 466.399C392.567 465.949 391.667 465.479 390.747 464.989C389.803 464.48 388.894 463.909 388.027 463.279H388.017C386.399 464.836 384.664 466.267 382.827 467.559C383.878 467.327 384.968 467.33 386.017 467.569C387.073 467.795 388.084 468.197 389.007 468.759C389.946 469.32 390.768 470.056 391.427 470.929C392.095 471.791 392.532 472.81 392.697 473.889C391.807 473.239 391.107 472.579 390.307 472.039C389.555 471.476 388.774 470.952 387.967 470.469C386.367 469.469 384.687 468.639 382.827 467.559H382.817C381.427 468.559 380.417 469.199 380.417 469.199C379.247 469.779 378.167 470.349 377.157 470.919C378.27 470.938 379.37 471.155 380.407 471.559C381.454 471.934 382.441 472.459 383.337 473.119C384.271 473.77 385.075 474.591 385.707 475.539C386.379 476.493 386.716 477.643 386.667 478.809C386.031 477.989 385.31 477.238 384.517 476.569C383.777 475.909 382.967 475.329 382.157 474.729C380.547 473.529 378.837 472.429 377.157 470.919H377.147C360.947 480.019 364.107 487.739 364.107 487.739C364.325 488.372 364.586 488.99 364.887 489.589C365.017 488.23 365.48 486.924 366.237 485.789C366.693 485.127 367.383 484.663 368.167 484.489C368.378 484.447 368.593 484.43 368.807 484.439L369.427 484.549C369.81 484.673 370.179 484.837 370.527 485.039L371.407 485.709C371.667 485.959 371.897 486.219 372.147 486.479C372.637 486.999 373.007 487.499 373.437 488.019C374.247 489.059 374.997 490.109 375.807 491.059C376.481 492.029 377.364 492.837 378.389 493.423C379.415 494.01 380.559 494.36 381.737 494.449C384.298 494.577 386.865 494.44 389.397 494.039H389.407C392.991 492.46 396.262 490.251 399.067 487.519C406.357 480.539 415.527 479.439 421.147 475.229C421.267 475.139 421.377 475.049 421.497 474.959C422.111 474.46 422.61 473.833 422.958 473.122C423.306 472.412 423.496 471.634 423.514 470.843C423.532 470.051 423.378 469.266 423.062 468.54C422.747 467.814 422.278 467.165 421.687 466.639ZM410.467 469.519C408.766 471.375 406.853 473.027 404.767 474.439C403.714 475.175 402.588 475.802 401.407 476.309C402.083 475.216 402.867 474.195 403.747 473.259C404.6 472.332 405.505 471.454 406.457 470.629C407.406 469.805 408.405 469.04 409.447 468.339C410.498 467.599 411.624 466.972 412.807 466.469C412.131 467.561 411.347 468.582 410.467 469.519Z" fill="black"/>
<path d="M398.508 450.205C398.65 451.621 398.604 453.05 398.371 454.453C398.18 455.864 397.801 457.242 397.245 458.552C397.101 457.136 397.147 455.707 397.383 454.304C397.575 452.894 397.954 451.516 398.508 450.205Z" fill="black"/>
<path d="M416.021 460.866C415.957 459.394 416.082 457.921 416.392 456.481C416.659 455.033 417.113 453.626 417.741 452.294C417.808 453.765 417.683 455.239 417.371 456.678C417.102 458.126 416.648 459.533 416.021 460.866Z" fill="black"/>
<path d="M441.837 419.938C440.994 418.624 440.28 417.231 439.707 415.778C439.617 415.538 439.517 415.288 439.417 415.038C439.217 414.498 439.017 413.958 438.837 413.408C439.147 413.368 439.457 413.328 439.767 413.278C439.967 413.738 440.157 414.208 440.347 414.678C440.457 414.968 440.567 415.258 440.667 415.548C441.201 416.97 441.592 418.44 441.837 419.938Z" fill="black"/>
<path d="M453.92 405.768C454.8 406.719 455.537 407.793 456.108 408.956C456.717 410.1 457.155 411.327 457.407 412.598C456.525 411.648 455.788 410.574 455.218 409.41C454.611 408.265 454.174 407.038 453.92 405.768Z" fill="black"/>
<path d="M394.71 206.126C398.037 206.481 401.308 206.991 404.588 207.338C406.216 207.535 407.854 207.645 409.494 207.667C410.301 207.679 411.108 207.609 411.901 207.457C412.292 207.389 412.668 207.253 413.013 207.057C413.353 206.839 413.608 206.511 413.732 206.126C413.718 206.344 413.662 206.556 413.567 206.752C413.471 206.948 413.338 207.122 413.174 207.267C412.839 207.55 412.456 207.773 412.044 207.926C411.233 208.21 410.388 208.385 409.531 208.446C407.848 208.57 406.156 208.532 404.48 208.332C401.151 207.969 397.873 207.229 394.71 206.126Z" fill="black"/>
<path d="M347.592 131.183L342.39 128.516C342.23 128.433 342.095 128.309 341.999 128.157C341.903 128.004 341.851 127.829 341.847 127.649C341.842 127.469 341.887 127.291 341.976 127.134C342.064 126.977 342.193 126.847 342.35 126.758L347.439 123.845C347.59 123.759 347.76 123.713 347.934 123.713C348.107 123.713 348.278 123.757 348.429 123.843C348.58 123.928 348.706 124.052 348.795 124.201C348.884 124.35 348.932 124.519 348.936 124.693L347.992 127.503L349.048 130.273C349.052 130.445 349.01 130.616 348.928 130.769C348.845 130.921 348.725 131.049 348.578 131.141C348.432 131.232 348.264 131.284 348.091 131.292C347.918 131.299 347.746 131.261 347.592 131.183Z" fill="black"/>
<path d="M287.689 60.4937C286.694 60.4936 285.71 60.6894 284.791 61.07C283.872 61.4505 283.037 62.0083 282.334 62.7115C281.631 63.4146 281.073 64.2495 280.693 65.1682C280.312 66.087 280.116 67.0717 280.116 68.0662C280.116 71.4011 284.93 78.7248 286.882 81.5569C286.961 81.7019 287.078 81.8228 287.22 81.9071C287.362 81.9914 287.524 82.0359 287.689 82.0359C287.854 82.0359 288.016 81.9914 288.158 81.9071C288.3 81.8228 288.417 81.7019 288.496 81.5569C290.446 78.7248 295.261 71.4011 295.261 68.0662C295.261 67.0717 295.066 66.087 294.685 65.1682C294.305 64.2495 293.747 63.4147 293.044 62.7115C292.34 62.0083 291.506 61.4505 290.587 61.07C289.668 60.6894 288.683 60.4936 287.689 60.4937ZM287.689 64.0275C288.488 64.0275 289.268 64.2644 289.933 64.7081C290.597 65.1519 291.114 65.7827 291.42 66.5206C291.726 67.2586 291.806 68.0707 291.65 68.8541C291.494 69.6375 291.109 70.3571 290.545 70.922C289.98 71.4868 289.26 71.8714 288.477 72.0273C287.693 72.1831 286.881 72.1031 286.143 71.7975C285.405 71.4918 284.775 70.9741 284.331 70.31C283.887 69.6458 283.65 68.865 283.65 68.0662C283.65 66.9951 284.076 65.9679 284.833 65.2105C285.59 64.4531 286.618 64.0275 287.689 64.0275Z" fill="black"/>
<path d="M279.311 87.2861C279.444 90.2208 279.524 93.1555 279.58 96.0902C279.662 99.0249 279.656 101.96 279.691 104.894C279.732 107.829 279.689 110.764 279.646 113.698L279.454 122.503V122.51C279.453 122.56 279.432 122.607 279.396 122.642C279.36 122.677 279.311 122.696 279.261 122.695C275.534 122.643 271.806 122.65 268.079 122.714L256.896 122.923L245.713 123.027L234.53 122.998L235.025 122.503L234.868 132.27C234.803 135.526 234.707 138.782 234.58 142.038C234.58 142.051 234.574 142.063 234.565 142.072C234.556 142.081 234.543 142.086 234.53 142.086C234.517 142.086 234.505 142.081 234.496 142.072C234.486 142.063 234.481 142.051 234.48 142.038C234.358 138.782 234.262 135.526 234.193 132.27L234.036 122.503C234.035 122.439 234.046 122.375 234.07 122.316C234.093 122.257 234.128 122.202 234.173 122.156C234.217 122.11 234.27 122.074 234.329 122.048C234.388 122.023 234.451 122.009 234.515 122.008L234.519 122.008H234.53L245.713 121.979L256.896 122.083L268.078 122.292C271.806 122.353 275.534 122.36 279.261 122.31L279.069 122.503L278.876 113.698C278.834 110.764 278.79 107.829 278.832 104.894C278.867 101.96 278.861 99.0249 278.943 96.0902C278.999 93.1555 279.079 90.2208 279.211 87.2861C279.212 87.2733 279.217 87.2611 279.227 87.2522C279.236 87.2433 279.248 87.2383 279.261 87.2383C279.274 87.2383 279.287 87.2433 279.296 87.2522C279.305 87.2611 279.311 87.2733 279.311 87.2861L279.311 87.2861Z" fill="black"/>
<path d="M367.489 133.724C357.761 134.057 348.033 134.134 338.305 134.1C333.441 134.078 328.577 133.938 323.713 133.87C318.849 133.817 313.985 133.822 309.121 133.885C299.393 134.066 289.665 134.173 279.937 134.205C270.209 134.196 260.481 134.15 250.753 133.938L251.016 133.674L250.803 142.037C250.802 142.05 250.797 142.063 250.788 142.072C250.778 142.081 250.766 142.086 250.753 142.086C250.74 142.086 250.727 142.081 250.718 142.072C250.708 142.063 250.703 142.05 250.703 142.037L250.489 133.674C250.488 133.606 250.513 133.54 250.56 133.491C250.607 133.442 250.671 133.413 250.739 133.411H250.74L250.753 133.411C260.481 133.199 270.209 133.152 279.937 133.143C289.665 133.189 299.393 133.296 309.121 133.463C313.985 133.53 318.849 133.534 323.713 133.478C328.577 133.411 333.441 133.27 338.305 133.248C348.033 133.214 357.761 133.292 367.489 133.624C367.502 133.624 367.515 133.63 367.524 133.639C367.534 133.648 367.539 133.661 367.539 133.674C367.539 133.688 367.534 133.7 367.524 133.71C367.515 133.719 367.502 133.724 367.489 133.724Z" fill="black"/>
<path d="M304.046 73.0711C304.114 73.9176 304.187 74.7398 304.234 75.5308C304.279 76.3221 304.35 77.1121 304.377 77.8735C304.47 79.3832 304.476 80.8969 304.396 82.4073L304.011 82.0222C305.391 82.098 306.77 82.2314 308.151 82.249C308.841 82.2692 309.53 82.2374 310.22 82.229C310.91 82.2217 311.6 82.1638 312.29 82.1336L312.017 82.4073C311.916 80.8454 311.839 79.2835 311.814 77.7217C311.774 76.1598 311.732 74.5979 311.768 73.0359L312.29 73.5589C309.654 73.5086 307.02 73.3059 304.046 73.0711ZM303.975 73.0004C306.52 72.7657 309.407 72.5629 312.29 72.5128C312.426 72.5104 312.557 72.5619 312.655 72.6559C312.753 72.75 312.81 72.8789 312.813 73.0146L312.813 73.0358C312.849 74.5978 312.807 76.1597 312.767 77.7216C312.742 79.2835 312.665 80.8454 312.564 82.4073L312.562 82.4371C312.558 82.5052 312.527 82.5689 312.476 82.6145C312.425 82.6601 312.359 82.684 312.29 82.6811C311.6 82.6511 310.91 82.5932 310.22 82.5859C309.53 82.5773 308.84 82.5455 308.151 82.5657C306.77 82.5834 305.391 82.7169 304.011 82.7925C303.915 82.7978 303.822 82.7652 303.75 82.7019C303.678 82.6385 303.635 82.5495 303.628 82.4542L303.625 82.4073C303.545 80.7955 303.551 79.1806 303.644 77.5695C303.671 76.7691 303.742 75.9971 303.786 75.2265C303.833 74.4555 303.907 73.7159 303.975 73.0004H303.975Z" fill="black"/>
<path d="M325.79 67.4542C325.893 69.5711 325.966 71.6278 326.027 73.6633C326.107 75.7091 326.113 77.6965 326.159 79.7055C326.179 81.7022 326.18 83.6827 326.102 85.6638C326.049 87.6473 325.937 89.6457 325.93 91.6572L325.755 91.482C327.135 91.5147 328.515 91.5018 329.895 91.4823C331.275 91.4797 332.655 91.4165 334.035 91.3835L333.761 91.6572C333.686 89.6373 333.631 87.6174 333.594 85.5976L333.515 79.5381C333.493 77.5182 333.496 75.4983 333.521 73.4785C333.534 71.4587 333.602 69.4388 333.641 67.4189L334.035 67.8132C331.374 67.7447 328.661 67.5757 325.79 67.4542ZM325.719 67.3835C328.368 67.2621 331.175 67.093 334.035 67.0245C334.137 67.0221 334.236 67.0603 334.31 67.1308C334.384 67.2013 334.426 67.2982 334.429 67.4002V67.4022L334.429 67.4189C334.467 69.4388 334.536 71.4587 334.549 73.4785C334.575 75.4984 334.577 77.5183 334.555 79.5381L334.475 85.5976C334.438 87.6174 334.383 89.6373 334.309 91.6572L334.308 91.6739C334.305 91.7441 334.275 91.8104 334.224 91.8585C334.173 91.9066 334.105 91.9326 334.035 91.931C332.655 91.898 331.275 91.8347 329.895 91.8323C328.515 91.8127 327.135 91.7998 325.755 91.8325C325.709 91.8335 325.665 91.8165 325.633 91.7852C325.6 91.7538 325.581 91.7108 325.58 91.6654V91.6572C325.572 89.6289 325.46 87.5875 325.407 85.5313C325.33 83.4726 325.331 81.4136 325.35 79.3705C325.397 77.3398 325.403 75.2876 325.483 73.2937C325.544 71.2894 325.617 69.3062 325.719 67.3835Z" fill="black"/>
<path d="M265.042 110.78C265.274 113.308 265.456 115.477 265.455 117.688L265.007 117.24C266.627 117.235 268.247 117.416 269.867 117.499C271.488 117.564 273.11 117.535 274.727 117.414L274.454 117.688C274.275 115.373 274.243 113.059 274.195 110.744L274.727 111.276C273.949 111.284 273.174 111.276 272.393 111.248C271.616 111.235 270.824 111.171 270.029 111.134C268.439 111.053 266.79 110.913 265.042 110.78ZM264.972 110.709C266.464 110.576 268.056 110.436 269.706 110.355C270.53 110.317 271.358 110.254 272.201 110.241C273.041 110.212 273.886 110.205 274.727 110.212L274.743 110.212C274.881 110.214 275.013 110.27 275.11 110.368C275.207 110.467 275.261 110.6 275.26 110.739L275.259 110.745C275.212 113.059 275.18 115.373 275.001 117.688L274.998 117.727C274.993 117.794 274.962 117.856 274.911 117.9C274.86 117.944 274.794 117.966 274.727 117.961C273.11 117.84 271.488 117.811 269.867 117.876C268.247 117.959 266.627 118.141 265.007 118.136C264.888 118.136 264.774 118.088 264.69 118.004C264.606 117.92 264.559 117.806 264.559 117.688C264.571 115.356 264.708 113.026 264.972 110.709Z" fill="black"/>
<path d="M299.185 135.71C299.417 138.238 299.6 140.407 299.598 142.618L299.15 142.17C300.77 142.165 302.39 142.346 304.01 142.43C305.631 142.495 307.253 142.466 308.871 142.345L308.597 142.618C308.418 140.304 308.386 137.99 308.339 135.675L308.871 136.207C308.092 136.215 307.317 136.207 306.537 136.178C305.759 136.165 304.967 136.102 304.172 136.064C302.582 135.984 300.933 135.843 299.185 135.71ZM299.115 135.64C300.608 135.507 302.199 135.366 303.849 135.286C304.674 135.248 305.501 135.185 306.344 135.172C307.184 135.143 308.029 135.135 308.871 135.143L308.886 135.143C309.025 135.144 309.157 135.201 309.254 135.299C309.35 135.398 309.404 135.531 309.403 135.669L309.403 135.675C309.355 137.99 309.323 140.304 309.144 142.618L309.142 142.657C309.136 142.724 309.105 142.787 309.054 142.83C309.003 142.874 308.937 142.897 308.871 142.892C307.253 142.771 305.631 142.742 304.01 142.807C302.39 142.89 300.77 143.071 299.15 143.066C299.091 143.066 299.033 143.055 298.979 143.032C298.924 143.01 298.875 142.977 298.833 142.935C298.792 142.893 298.759 142.844 298.736 142.79C298.714 142.735 298.702 142.677 298.702 142.618C298.714 140.286 298.852 137.957 299.115 135.64Z" fill="black"/>
<path d="M257.491 136.287C257.579 138.679 257.706 140.954 257.751 143.195L257.456 142.9C260.606 142.804 263.757 142.794 266.907 142.76C270.058 142.737 273.208 142.771 276.359 142.862C279.509 142.953 282.66 143.025 285.81 143.04C288.96 143.04 292.111 143.001 295.261 142.921L294.988 143.195C294.93 140.88 294.872 138.566 294.843 136.252L295.261 136.67L285.907 136.76C282.796 136.78 279.672 136.732 276.551 136.717L267.107 136.545L257.491 136.287ZM257.421 136.216L266.708 135.958L276.166 135.786C279.346 135.771 282.523 135.723 285.713 135.743L295.261 135.833L295.27 135.833C295.38 135.834 295.485 135.879 295.561 135.957C295.638 136.035 295.681 136.141 295.68 136.25V136.252C295.65 138.566 295.592 140.88 295.535 143.195L295.535 143.208C295.534 143.243 295.526 143.278 295.512 143.31C295.498 143.342 295.477 143.371 295.452 143.395C295.426 143.419 295.397 143.438 295.364 143.451C295.331 143.463 295.296 143.469 295.261 143.468C292.111 143.391 288.96 143.351 285.81 143.35C282.66 143.364 279.509 143.436 276.359 143.528C273.208 143.619 270.058 143.652 266.907 143.63C263.757 143.595 260.606 143.586 257.456 143.49L257.441 143.489C257.365 143.487 257.293 143.455 257.241 143.399C257.188 143.344 257.16 143.271 257.161 143.195C257.206 140.807 257.332 138.452 257.421 136.216Z" fill="black"/>
<path d="M337.862 59.0661L338.047 66.9957L338.158 74.9252L338.26 90.7843L338.224 98.7139L338.11 106.643C338.017 111.93 337.968 117.216 337.965 122.502C337.965 122.543 337.949 122.582 337.92 122.611C337.891 122.64 337.852 122.656 337.811 122.656C334.331 122.679 330.851 122.669 327.371 122.723L316.932 122.844C309.972 122.938 303.012 122.993 296.052 123.011C295.985 123.011 295.919 122.998 295.858 122.973C295.796 122.948 295.74 122.911 295.693 122.864C295.646 122.817 295.608 122.761 295.583 122.7C295.557 122.639 295.544 122.573 295.543 122.506V122.502L295.537 109.654C295.539 105.37 295.552 101.088 295.618 96.8045L295.769 83.9557C295.801 79.6727 295.907 75.3897 296.002 71.1067C296.002 71.0936 296.007 71.0811 296.017 71.0719C296.026 71.0627 296.039 71.0576 296.052 71.0576C296.065 71.0576 296.077 71.0627 296.087 71.0719C296.096 71.0811 296.101 71.0936 296.102 71.1067C296.196 75.3897 296.302 79.6727 296.335 83.9557L296.486 96.8045C296.552 101.087 296.565 105.37 296.566 109.654L296.56 122.502L296.052 121.994C303.012 122.021 309.972 122.076 316.932 122.161L327.371 122.282C330.851 122.336 334.331 122.326 337.811 122.349L337.658 122.502C337.649 117.216 337.601 111.93 337.513 106.643L337.4 98.7139L337.363 90.7843L337.465 74.9252L337.576 66.9957L337.762 59.0661C337.762 59.053 337.767 59.0406 337.777 59.0314C337.786 59.0222 337.799 59.0171 337.812 59.0171C337.825 59.0171 337.837 59.0222 337.847 59.0314C337.856 59.0406 337.862 59.053 337.862 59.0661H337.862Z" fill="black"/>
<path d="M259.37 115.947C259.759 115.934 260.128 115.77 260.398 115.49C260.668 115.21 260.819 114.836 260.819 114.447C260.819 114.058 260.668 113.684 260.398 113.405C260.128 113.125 259.759 112.961 259.37 112.947C258.982 112.961 258.613 113.125 258.343 113.405C258.073 113.684 257.922 114.058 257.922 114.447C257.922 114.836 258.073 115.21 258.343 115.49C258.613 115.77 258.982 115.934 259.37 115.947Z" fill="black"/>
<path d="M307.97 89.6675C308.359 89.654 308.728 89.4901 308.998 89.2102C309.268 88.9304 309.419 88.5565 309.419 88.1675C309.419 87.7784 309.268 87.4046 308.998 87.1247C308.728 86.8449 308.359 86.681 307.97 86.6675C307.582 86.681 307.213 86.8449 306.943 87.1247C306.673 87.4046 306.522 87.7784 306.522 88.1675C306.522 88.5565 306.673 88.9304 306.943 89.2102C307.213 89.4901 307.582 89.654 307.97 89.6675Z" fill="black"/>
<path d="M333.999 117.4C333.931 116.554 333.858 115.731 333.811 114.941C333.766 114.149 333.695 113.359 333.668 112.598C333.575 111.088 333.569 109.574 333.65 108.064L334.035 108.449C332.655 108.373 331.275 108.24 329.895 108.222C329.205 108.202 328.515 108.234 327.825 108.242C327.135 108.25 326.445 108.308 325.755 108.338L326.028 108.064C326.129 109.626 326.206 111.188 326.231 112.75C326.271 114.312 326.314 115.874 326.278 117.435L325.755 116.913C328.391 116.963 331.025 117.166 333.999 117.4ZM334.07 117.471C331.525 117.706 328.638 117.908 325.755 117.959C325.619 117.961 325.488 117.909 325.39 117.815C325.292 117.721 325.235 117.592 325.232 117.457L325.232 117.435C325.196 115.874 325.239 114.312 325.278 112.75C325.304 111.188 325.38 109.626 325.481 108.064L325.483 108.034C325.488 107.966 325.518 107.902 325.569 107.857C325.62 107.811 325.687 107.787 325.755 107.79C326.445 107.82 327.135 107.878 327.825 107.885C328.515 107.894 329.205 107.926 329.895 107.906C331.275 107.888 332.655 107.755 334.035 107.679C334.13 107.674 334.224 107.706 334.295 107.77C334.367 107.833 334.411 107.922 334.417 108.017L334.42 108.064C334.5 109.676 334.494 111.291 334.402 112.902C334.375 113.702 334.304 114.474 334.259 115.245C334.212 116.016 334.139 116.755 334.07 117.471V117.471Z" fill="black"/>
<path d="M330.075 103.804C330.464 103.79 330.832 103.626 331.102 103.346C331.373 103.067 331.524 102.693 331.524 102.304C331.524 101.915 331.373 101.541 331.102 101.261C330.832 100.981 330.464 100.817 330.075 100.804C329.686 100.817 329.318 100.981 329.047 101.261C328.777 101.541 328.626 101.915 328.626 102.304C328.626 102.693 328.777 103.067 329.047 103.346C329.318 103.626 329.686 103.79 330.075 103.804Z" fill="black"/>
<path d="M229.642 121.612C231.573 121.115 233.442 120.404 235.215 119.493C236.984 118.606 238.627 117.489 240.1 116.169C241.564 114.863 242.812 113.333 243.798 111.638C244.722 109.902 245.418 108.055 245.868 106.141C246.381 104.217 246.821 102.27 247.219 100.305C247.572 98.3182 248.078 96.362 248.732 94.4533C249.468 92.5335 250.813 90.9078 252.561 89.8251C254.327 88.8396 256.209 88.0758 258.163 87.5511C260.024 86.9344 261.721 85.9064 263.13 84.5434C264.514 83.1555 265.67 81.5587 266.557 79.8115C267.442 78.0509 268.138 76.2012 268.632 74.2936C269.144 72.3975 269.419 70.4455 269.452 68.4819C269.349 66.418 269.659 64.3543 270.364 62.4119C271.118 60.4668 272.344 58.7393 273.931 57.3845C277.142 54.7074 281.29 53.7397 285.256 53.4342C285.263 53.4337 285.269 53.4345 285.275 53.4365C285.282 53.4386 285.288 53.4418 285.293 53.4461C285.298 53.4504 285.302 53.4556 285.305 53.4614C285.308 53.4673 285.309 53.4737 285.31 53.4802C285.311 53.4929 285.307 53.5055 285.299 53.5154C285.291 53.5253 285.279 53.5318 285.267 53.5337C281.341 54.1421 277.362 55.342 274.447 57.9719C273.008 59.2758 271.916 60.9166 271.268 62.7468C270.946 63.6573 270.723 64.5996 270.603 65.5576C270.497 66.5359 270.457 67.52 270.483 68.5035C270.474 70.5541 270.19 72.5942 269.638 74.5691C269.092 76.5368 268.338 78.4408 267.39 80.2492C266.43 82.0694 265.174 83.7168 263.672 85.1233C262.143 86.512 260.311 87.523 258.321 88.0752C256.377 88.4988 254.5 89.1886 252.744 90.125C251.897 90.6275 251.139 91.2682 250.503 92.0205C250.351 92.2134 250.183 92.395 250.044 92.5973L249.674 93.2371C249.435 93.6681 249.228 94.1164 249.055 94.5781C248.432 96.4724 248.001 98.4242 247.767 100.404C247.46 102.386 247.122 104.373 246.672 106.341C246.248 108.344 245.537 110.275 244.56 112.074C243.496 113.831 242.161 115.409 240.604 116.748C237.463 119.348 233.684 121.061 229.659 121.711C229.646 121.713 229.632 121.71 229.622 121.702C229.611 121.695 229.604 121.683 229.601 121.67C229.6 121.657 229.604 121.644 229.611 121.633C229.618 121.623 229.629 121.615 229.642 121.612Z" fill="black"/>
<path d="M356.57 88.8608C356.716 91.6643 356.828 94.4678 356.886 97.2712C356.965 100.075 357.018 102.878 357.044 105.682L357.058 114.092C357.049 116.895 357.02 119.699 356.95 122.502L356.57 122.123C360.21 122.202 363.849 122.3 367.489 122.502C363.85 122.705 360.21 122.803 356.57 122.882C356.522 122.883 356.473 122.874 356.428 122.856C356.383 122.839 356.341 122.812 356.306 122.779C356.271 122.745 356.243 122.705 356.223 122.66C356.203 122.616 356.193 122.568 356.192 122.519L356.191 122.502C356.121 119.699 356.092 116.895 356.083 114.092L356.097 105.682C356.121 102.878 356.173 100.075 356.255 97.2713C356.312 94.4677 356.425 91.6643 356.57 88.8608Z" fill="black"/>
<path d="M228.004 53.4132L264.356 53.0098L282.631 52.839L300.973 52.7384C313.212 52.6949 325.448 52.5699 337.723 52.6296L356.114 52.6837L374.489 52.8463H374.5C374.668 52.8478 374.828 52.9158 374.945 53.0353C375.063 53.1549 375.128 53.3162 375.127 53.4838V53.484L374.902 77.4502L374.805 101.416L374.844 125.382L374.992 149.348C374.992 149.414 374.98 149.479 374.955 149.54C374.93 149.601 374.894 149.656 374.848 149.703C374.801 149.75 374.747 149.787 374.686 149.812C374.626 149.838 374.561 149.851 374.495 149.851H374.489L353.85 150.067L354.568 149.349L354.69 165.124C354.691 165.266 354.656 165.406 354.587 165.531C354.519 165.656 354.42 165.761 354.299 165.837C354.179 165.913 354.041 165.957 353.899 165.964C353.757 165.972 353.615 165.943 353.487 165.881L353.476 165.875L321.757 150.18L322.17 150.277L298.647 150.354L275.123 150.404L228.075 150.329L228.067 150.329C227.809 150.328 227.561 150.225 227.379 150.042C227.197 149.859 227.094 149.612 227.095 149.353L227.095 149.348C227.201 133.261 227.276 117.167 227.458 101.161L228.004 53.4132ZM228.146 53.5547L228.692 101.672L229.055 149.348L228.075 148.369L275.123 148.294L298.647 148.343L322.17 148.42H322.176C322.317 148.421 322.457 148.455 322.584 148.518L354.225 164.372L353.011 165.123L353.132 149.349L353.133 149.336C353.133 149.242 353.152 149.15 353.189 149.064C353.225 148.978 353.278 148.9 353.345 148.835C353.411 148.769 353.49 148.718 353.576 148.683C353.663 148.648 353.755 148.63 353.849 148.631H353.851L374.489 148.846L373.986 149.348L374.134 125.382L374.173 101.416L374.076 77.4501L373.851 53.4839L374.489 54.1215L356.261 54.2841L338.048 54.3381C325.921 54.3979 313.754 54.2729 301.591 54.2294L283.329 54.1289L265.001 53.958L228.146 53.5547Z" fill="black"/>
<path d="M288.189 82.0278L287.189 82.0444L287.197 82.5444L288.197 82.5278L288.189 82.0278Z" fill="black"/>
<path d="M287.917 123.908L287.899 122.875L288.899 122.857L288.917 123.891L287.917 123.908ZM287.845 119.772L287.827 118.738L288.827 118.721L288.845 119.755L287.845 119.772ZM287.773 115.636L287.755 114.602L288.755 114.584L288.773 115.618L287.773 115.636ZM287.701 111.499L287.683 110.465L288.683 110.447L288.701 111.481L287.701 111.499ZM287.629 107.363L287.612 106.329L288.612 106.312L288.629 107.346L287.629 107.363ZM287.557 103.227L287.539 102.192L288.539 102.175L288.557 103.209L287.557 103.227ZM287.486 99.0898L287.467 98.0557L288.467 98.0381L288.486 99.0723L287.486 99.0898ZM287.413 94.9531L287.396 93.919L288.396 93.9014L288.413 94.9355L287.413 94.9531ZM287.341 90.8174L287.323 89.7832L288.323 89.7656L288.341 90.7998L287.341 90.8174ZM287.27 86.6807L287.252 85.6465L288.252 85.6289L288.27 86.6631L287.27 86.6807Z" fill="black"/>
<path d="M288.98 128.003H287.988L287.971 127.012L288.971 126.994L288.98 128.003Z" fill="black"/>
<path d="M338.778 128.003H337.74V127.003H338.778V128.003ZM334.628 128.003H333.591V127.003H334.628V128.003ZM330.478 128.003H329.441V127.003H330.478V128.003ZM326.328 128.003H325.291V127.003H326.328V128.003ZM322.178 128.003H321.141V127.003H322.178V128.003ZM318.029 128.003H316.991V127.003H318.029V128.003ZM313.879 128.003H312.841V127.003H313.879L313.879 128.003ZM309.729 128.003H308.692V127.003H309.729V128.003ZM305.579 128.003H304.542V127.003H305.579V128.003ZM301.429 128.003H300.392V127.003H301.429V128.003ZM297.279 128.003H296.242V127.003H297.279V128.003ZM293.13 128.003H292.092V127.003H293.13L293.13 128.003Z" fill="black"/>
<path d="M342.39 127.003H341.89V128.003H342.39V127.003Z" fill="black"/>
</svg>
