<svg width="153" height="158" viewBox="0 0 153 158" fill="none" xmlns="http://www.w3.org/2000/svg">
<path d="M22.5552 15.2307H126.25V100.282H22.5552V15.2307Z" fill="white"/>
<path d="M28.8945 30.3702C28.8945 30.8557 29.0813 31.3213 29.4136 31.6646C29.746 32.0079 30.1968 32.2008 30.6669 32.2008C31.1369 32.2008 31.5877 32.0079 31.9201 31.6646C32.2524 31.3213 32.4392 30.8557 32.4392 30.3702C32.4392 29.8847 32.2524 29.419 31.9201 29.0757C31.5877 28.7324 31.1369 28.5396 30.6669 28.5396C30.1968 28.5396 29.746 28.7324 29.4136 29.0757C29.0813 29.419 28.8945 29.8847 28.8945 30.3702Z" fill="#FFD997"/>
<path d="M28.8945 39.4354C28.8945 39.9209 29.0813 40.3865 29.4136 40.7298C29.746 41.0731 30.1968 41.266 30.6669 41.266C31.1369 41.266 31.5877 41.0731 31.9201 40.7298C32.2524 40.3865 32.4392 39.9209 32.4392 39.4354C32.4392 38.9498 32.2524 38.4842 31.9201 38.1409C31.5877 37.7976 31.1369 37.6047 30.6669 37.6047C30.1968 37.6047 29.746 37.7976 29.4136 38.1409C29.0813 38.4842 28.8945 38.9498 28.8945 39.4354Z" fill="#FFD997"/>
<path d="M28.8945 48.5013C28.8945 48.9868 29.0813 49.4525 29.4136 49.7958C29.746 50.1391 30.1968 50.332 30.6669 50.332C31.1369 50.332 31.5877 50.1391 31.9201 49.7958C32.2524 49.4525 32.4392 48.9868 32.4392 48.5013C32.4392 48.0158 32.2524 47.5502 31.9201 47.2069C31.5877 46.8636 31.1369 46.6707 30.6669 46.6707C30.1968 46.6707 29.746 46.8636 29.4136 47.2069C29.0813 47.5502 28.8945 48.0158 28.8945 48.5013Z" fill="#FFD997"/>
<path fill-rule="evenodd" clip-rule="evenodd" d="M103.308 47.0883C102.08 49.4732 100.216 51.4445 97.9365 52.7687C95.6571 54.0929 93.0579 54.7145 90.447 54.5598C87.8361 54.4052 85.3228 53.4807 83.2049 51.896C81.087 50.3113 79.4532 48.1328 78.4972 45.6185C77.5411 43.1043 77.3029 40.3596 77.8106 37.7098C78.3183 35.0599 79.5507 32.6159 81.3619 30.6673C83.1731 28.7187 85.487 27.3472 88.0297 26.7152C90.5723 26.0832 93.237 26.2172 95.7082 27.1014C94.7316 30.0601 91.2242 40.455 91.2242 40.455L103.308 47.0883Z" fill="#81F8F8"/>
<path d="M126.296 14.7777H22.5997C22.4989 14.7777 22.4023 14.8191 22.331 14.8927C22.2598 14.9663 22.2197 15.0661 22.2197 15.1702V100.222C22.2197 100.326 22.2598 100.426 22.331 100.499C22.4023 100.573 22.4989 100.614 22.5997 100.614H126.296C126.396 100.614 126.493 100.573 126.564 100.499C126.636 100.426 126.676 100.326 126.676 100.222V15.1702C126.676 15.0661 126.636 14.9663 126.564 14.8927C126.493 14.8191 126.396 14.7777 126.296 14.7777ZM125.916 99.8293H22.9797V15.5627H125.916V99.8293Z" fill="black"/>
<path d="M30.667 32.5925C31.0927 32.5925 31.5088 32.4621 31.8627 32.2178C32.2167 31.9735 32.4925 31.6263 32.6555 31.2201C32.8184 30.8139 32.861 30.3669 32.7779 29.9357C32.6949 29.5044 32.4899 29.1083 32.1889 28.7974C31.8879 28.4865 31.5044 28.2747 31.0869 28.189C30.6694 28.1032 30.2366 28.1472 29.8433 28.3155C29.45 28.4837 29.1139 28.7687 28.8774 29.1343C28.6409 29.4999 28.5146 29.9297 28.5146 30.3694C28.5153 30.9588 28.7422 31.5239 29.1457 31.9407C29.5492 32.3574 30.0963 32.5919 30.667 32.5925ZM30.667 28.9312C30.9423 28.9312 31.2115 29.0156 31.4405 29.1736C31.6695 29.3316 31.8479 29.5562 31.9533 29.819C32.0587 30.0818 32.0863 30.371 32.0325 30.6499C31.9788 30.9289 31.8462 31.1851 31.6515 31.3863C31.4568 31.5874 31.2087 31.7244 30.9386 31.7798C30.6685 31.8353 30.3886 31.8069 30.1342 31.698C29.8797 31.5892 29.6623 31.4048 29.5093 31.1683C29.3563 30.9318 29.2746 30.6538 29.2746 30.3694C29.2751 29.9881 29.4219 29.6225 29.6829 29.3529C29.9439 29.0833 30.2978 28.9317 30.667 28.9312Z" fill="black"/>
<path d="M30.667 41.6585C31.0927 41.6585 31.5088 41.5281 31.8627 41.2838C32.2167 41.0395 32.4925 40.6923 32.6555 40.2861C32.8184 39.8799 32.861 39.4329 32.7779 39.0016C32.6949 38.5704 32.4899 38.1743 32.1889 37.8634C31.8879 37.5524 31.5044 37.3407 31.0869 37.2549C30.6694 37.1692 30.2366 37.2132 29.8433 37.3814C29.45 37.5497 29.1139 37.8347 28.8774 38.2002C28.6409 38.5658 28.5146 38.9956 28.5146 39.4353C28.5153 40.0248 28.7422 40.5899 29.1457 41.0066C29.5492 41.4234 30.0963 41.6578 30.667 41.6585ZM30.667 37.9972C30.9423 37.9972 31.2115 38.0816 31.4405 38.2396C31.6695 38.3976 31.8479 38.6222 31.9533 38.885C32.0587 39.1478 32.0863 39.4369 32.0325 39.7159C31.9788 39.9949 31.8462 40.2511 31.6515 40.4522C31.4568 40.6534 31.2087 40.7903 30.9386 40.8458C30.6685 40.9013 30.3886 40.8728 30.1342 40.764C29.8797 40.6551 29.6623 40.4708 29.5093 40.2343C29.3563 39.9978 29.2746 39.7198 29.2746 39.4353C29.2751 39.0541 29.4219 38.6885 29.6829 38.4189C29.9439 38.1493 30.2978 37.9976 30.667 37.9972Z" fill="black"/>
<path d="M30.667 50.7244C31.0927 50.7244 31.5088 50.5941 31.8627 50.3498C32.2167 50.1055 32.4925 49.7583 32.6555 49.3521C32.8184 48.9458 32.861 48.4989 32.7779 48.0676C32.6949 47.6364 32.4899 47.2402 32.1889 46.9293C31.8879 46.6184 31.5044 46.4067 31.0869 46.3209C30.6694 46.2351 30.2366 46.2792 29.8433 46.4474C29.45 46.6157 29.1139 46.9006 28.8774 47.2662C28.6409 47.6318 28.5146 48.0616 28.5146 48.5013C28.5153 49.0907 28.7422 49.6558 29.1457 50.0726C29.5492 50.4894 30.0963 50.7238 30.667 50.7244ZM30.667 47.0632C30.9423 47.0632 31.2115 47.1475 31.4405 47.3056C31.6695 47.4636 31.8479 47.6882 31.9533 47.951C32.0587 48.2138 32.0863 48.5029 32.0325 48.7819C31.9788 49.0609 31.8462 49.3171 31.6515 49.5182C31.4568 49.7194 31.2087 49.8563 30.9386 49.9118C30.6685 49.9673 30.3886 49.9388 30.1342 49.83C29.8797 49.7211 29.6623 49.5368 29.5093 49.3003C29.3563 49.0638 29.2746 48.7858 29.2746 48.5013C29.2751 48.12 29.4219 47.7545 29.6829 47.4849C29.9439 47.2153 30.2978 47.0636 30.667 47.0632Z" fill="black"/>
<path d="M36.7545 30.5256H65.2348C65.3386 30.5182 65.4358 30.4701 65.5064 30.3912C65.577 30.3122 65.6158 30.2084 65.6148 30.1009C65.6141 30.051 65.6035 30.0019 65.5838 29.9563C65.564 29.9108 65.5355 29.87 65.4999 29.8362C65.4643 29.8025 65.4225 29.7766 65.3769 29.7602C65.3313 29.7437 65.283 29.7371 65.2348 29.7406H36.7545C36.6507 29.7474 36.5533 29.7952 36.4826 29.8741C36.4118 29.953 36.3732 30.057 36.3745 30.1645C36.3753 30.2144 36.3858 30.2636 36.4056 30.3092C36.4253 30.3547 36.4538 30.3957 36.4894 30.4295C36.5249 30.4632 36.5668 30.4892 36.6124 30.5057C36.658 30.5223 36.7063 30.529 36.7545 30.5256Z" fill="black"/>
<path d="M36.7545 39.7964H65.2348C65.3386 39.7894 65.4359 39.7415 65.5066 39.6627C65.5773 39.5838 65.616 39.48 65.6148 39.3725C65.6141 39.3226 65.6035 39.2734 65.5838 39.2278C65.564 39.1823 65.5355 39.1414 65.5 39.1076C65.4644 39.0738 65.4225 39.0478 65.377 39.0313C65.3314 39.0148 65.283 39.008 65.2348 39.0114H36.7545C36.6506 39.0185 36.5532 39.0664 36.4825 39.1454C36.4118 39.2245 36.3732 39.3285 36.3745 39.4361C36.3753 39.486 36.3858 39.5352 36.4056 39.5807C36.4253 39.6262 36.4538 39.6671 36.4894 39.7008C36.525 39.7345 36.5668 39.7604 36.6124 39.7768C36.658 39.7933 36.7064 39.8 36.7545 39.7964Z" fill="black"/>
<path d="M36.7545 48.9244H65.2348C65.3386 48.9174 65.4359 48.8695 65.5066 48.7907C65.5773 48.7118 65.616 48.608 65.6148 48.5005C65.6141 48.4506 65.6035 48.4014 65.5838 48.3558C65.564 48.3103 65.5355 48.2694 65.5 48.2356C65.4644 48.2018 65.4225 48.1758 65.377 48.1593C65.3314 48.1428 65.283 48.136 65.2348 48.1394H36.7545C36.6506 48.1464 36.5532 48.1944 36.4825 48.2734C36.4118 48.3525 36.3732 48.4565 36.3745 48.5641C36.3753 48.614 36.3858 48.6632 36.4056 48.7087C36.4253 48.7542 36.4538 48.7951 36.4894 48.8288C36.525 48.8625 36.5668 48.8884 36.6124 48.9048C36.658 48.9213 36.7064 48.9279 36.7545 48.9244Z" fill="black"/>
<path d="M71.7032 28.0929H79.7592L81.1151 30.3694C79.4699 32.1289 78.2816 34.2892 77.6606 36.6498C77.0396 39.0103 77.0059 41.4947 77.5627 43.8723C78.1195 46.2499 79.2487 48.4437 80.8456 50.2501C82.4424 52.0566 84.4552 53.4171 86.6971 54.2055C88.939 54.9939 91.3374 55.1846 93.6697 54.7599C96.002 54.3352 98.1926 53.3089 100.038 51.7762C101.884 50.2434 103.325 48.254 104.228 45.9924C105.13 43.7308 105.465 41.2704 105.201 38.8395H109.775C109.875 38.8395 109.972 38.7981 110.043 38.7245C110.115 38.6509 110.155 38.5511 110.155 38.447C110.155 38.3429 110.115 38.2431 110.043 38.1695C109.972 38.0959 109.875 38.0545 109.775 38.0545H105.095C104.733 35.8203 103.868 33.7054 102.568 31.8805C102.553 31.8517 102.533 31.8253 102.511 31.802C101.734 30.724 100.817 29.7617 99.7852 28.9422L101.108 26.7199H109.168C109.269 26.7199 109.366 26.6785 109.437 26.6049C109.508 26.5313 109.548 26.4315 109.548 26.3274C109.548 26.2233 109.508 26.1235 109.437 26.0498C109.366 25.9762 109.269 25.9349 109.168 25.9349H100.899C100.834 25.9349 100.77 25.952 100.713 25.9847C100.657 26.0174 100.609 26.0646 100.575 26.1217L99.1712 28.4767C96.5426 26.6122 93.3775 25.7284 90.1974 25.9709C87.0174 26.2135 84.0123 27.568 81.6775 29.8112L80.3004 27.4994C80.2664 27.4424 80.2189 27.3953 80.1624 27.3626C80.1058 27.3299 80.0422 27.3127 79.9774 27.3126H71.7032C71.6025 27.3126 71.5058 27.3539 71.4345 27.4275C71.3633 27.5011 71.3232 27.601 71.3232 27.7051C71.3232 27.8092 71.3633 27.909 71.4345 27.9826C71.5058 28.0562 71.6025 28.0976 71.7032 28.0976V28.0929ZM99.7921 42.1286C99.8298 42.1625 99.8736 42.1884 99.921 42.2047C99.9684 42.2211 100.018 42.2276 100.068 42.224C100.118 42.2203 100.167 42.2066 100.211 42.1835C100.256 42.1604 100.296 42.1284 100.329 42.0894L103.059 38.8395H104.436C104.743 41.5077 104.284 44.2103 103.116 46.611L91.936 40.4024L102.15 32.6231C103.248 34.2492 103.99 36.1026 104.324 38.0545H102.885C102.831 38.0544 102.777 38.0665 102.727 38.0897C102.678 38.113 102.634 38.1471 102.598 38.1895L99.7541 41.576C99.6883 41.6546 99.6554 41.7569 99.6626 41.8604C99.6697 41.964 99.7163 42.0605 99.7921 42.1286ZM97.2841 32.3947C97.3266 32.4217 97.3738 32.4398 97.4231 32.4479C97.4724 32.4561 97.5228 32.4541 97.5713 32.4422C97.6199 32.4302 97.6657 32.4085 97.7061 32.3783C97.7466 32.348 97.7808 32.3098 97.807 32.2659L99.3855 29.6134C100.248 30.307 101.025 31.1068 101.699 31.9951L91.9762 39.3969L95.8606 27.5763C96.8898 27.9733 97.8672 28.5007 98.7706 29.1463L97.1587 31.853C97.1061 31.9416 97.0897 32.0482 97.113 32.1493C97.1364 32.2504 97.1976 32.3378 97.2833 32.3923L97.2841 32.3947ZM95.1416 27.3259L90.8666 40.331C90.8443 40.4016 90.8418 40.4772 90.8594 40.5492C90.877 40.6212 90.9141 40.6865 90.9662 40.7376C91.0422 40.8106 90.4076 40.4433 102.755 47.301C101.823 48.9856 100.555 50.4469 99.0356 51.5888C97.5164 52.7306 95.7802 53.527 93.9414 53.9255C92.1026 54.324 90.2029 54.3156 88.3674 53.9008C86.532 53.486 84.8025 52.6743 83.2928 51.519C81.7832 50.3638 80.5276 48.8913 79.6088 47.1985C78.6901 45.5057 78.129 43.631 77.9625 41.698C77.796 39.765 78.028 37.8175 78.643 35.9838C79.258 34.15 80.2423 32.4717 81.5308 31.0594L83.066 33.6373C83.0915 33.6825 83.1254 33.7221 83.1659 33.7535C83.2064 33.785 83.2525 33.8078 83.3017 33.8206C83.3508 33.8334 83.4019 33.8359 83.452 33.828C83.5021 33.8201 83.5501 33.8019 83.5933 33.7745C83.6365 33.7471 83.6739 33.7111 83.7034 33.6686C83.7329 33.626 83.7539 33.5778 83.7651 33.5268C83.7763 33.4757 83.7775 33.4229 83.7686 33.3714C83.7598 33.3199 83.741 33.2707 83.7135 33.2267L82.0818 30.4871C83.7907 28.81 85.9011 27.6329 88.1962 27.077C90.4912 26.521 92.8882 26.6061 95.1409 27.3236L95.1416 27.3259Z" fill="black"/>
<path d="M71.3224 63.6455L73.9824 62.4869C70.3853 66.163 65.3784 70.9256 64.1336 71.1446C63.4496 71.264 63.353 71.0159 63.163 70.5166C63.1249 70.3196 63.046 70.1334 62.9316 69.9709C62.8172 69.8083 62.6701 69.6733 62.5005 69.575C62.3308 69.4767 62.1425 69.4175 61.9486 69.4014C61.7547 69.3854 61.5597 69.4129 61.377 69.482C58.7801 70.0661 53.5893 76.047 50.433 76.423C48.9776 76.598 48.856 76.1482 48.6303 75.3365C48.5547 74.8122 48.3168 74.3272 47.9521 73.9542C47.5874 73.5812 47.1156 73.3402 46.6072 73.2673C44.0148 72.7303 34.8447 81.7382 31.9202 84.6914V82.3364C31.9461 82.2831 31.9602 82.2246 31.9615 82.165C31.9628 82.1054 31.9513 82.0462 31.9278 81.9918C31.9278 72.9062 31.9278 93.0351 31.9567 57.4668C31.9579 57.416 31.9493 57.3654 31.9314 57.318C31.9135 57.2707 31.8866 57.2275 31.8524 57.1909C31.8182 57.1544 31.7772 57.1253 31.732 57.1052C31.6867 57.0852 31.6381 57.0747 31.5888 57.0743C31.5386 57.0738 31.4888 57.0836 31.4423 57.103C31.3957 57.1225 31.3534 57.1514 31.3177 57.1879C31.282 57.2244 31.2537 57.2678 31.2343 57.3157C31.215 57.3636 31.205 57.4149 31.205 57.4668V60.9608H29.6995C29.5973 60.9631 29.5001 61.0069 29.4289 61.0827C29.3578 61.1586 29.3185 61.2603 29.3195 61.3659C29.3199 61.417 29.33 61.4674 29.3494 61.5144C29.3687 61.5614 29.3968 61.604 29.4321 61.6398C29.4674 61.6755 29.5092 61.7037 29.5551 61.7227C29.601 61.7417 29.6501 61.7512 29.6995 61.7505H31.1974V65.9063H29.6995C29.5973 65.9086 29.5001 65.9524 29.4289 66.0282C29.3578 66.1041 29.3185 66.2058 29.3195 66.3114C29.3199 66.3625 29.33 66.4129 29.3494 66.4599C29.3687 66.5069 29.3968 66.5495 29.4321 66.5852C29.4674 66.621 29.5092 66.6492 29.5551 66.6682C29.601 66.6872 29.6501 66.6967 29.6995 66.696H31.1914V71.1957H29.6995C29.5973 71.1979 29.5001 71.2417 29.4289 71.3176C29.3578 71.3934 29.3185 71.4951 29.3195 71.6007C29.3213 71.7036 29.3621 71.8016 29.4332 71.8737C29.5042 71.9458 29.5999 71.9862 29.6995 71.9862H31.1784V76.4858H29.6964C29.5941 76.4876 29.4967 76.5313 29.4254 76.6072C29.3542 76.6832 29.315 76.7851 29.3164 76.8908C29.3168 76.9419 29.327 76.9924 29.3463 77.0394C29.3657 77.0864 29.3938 77.129 29.4291 77.1647C29.4644 77.2004 29.5062 77.2286 29.5521 77.2476C29.5979 77.2666 29.647 77.2761 29.6964 77.2755H31.1655V81.779H29.6995C29.5973 81.7813 29.5001 81.8251 29.4289 81.9009C29.3578 81.9768 29.3185 82.0785 29.3195 82.1841C29.3199 82.2352 29.33 82.2856 29.3494 82.3326C29.3687 82.3796 29.3968 82.4222 29.4321 82.458C29.4674 82.4937 29.5092 82.5219 29.5551 82.5409C29.601 82.5599 29.6501 82.5694 29.6995 82.5687H31.1587V85.4732C31.0848 85.5333 31.0356 85.6198 31.0209 85.7157C31.0062 85.8116 31.027 85.9096 31.0792 85.9903C31.1314 86.071 31.2112 86.1284 31.3025 86.151C31.3939 86.1736 31.4902 86.1597 31.5721 86.1122H35.7954V87.7191C35.7976 87.8243 35.8397 87.9243 35.9126 87.9978C35.9856 88.0712 36.0835 88.1121 36.1853 88.1116C36.2853 88.1104 36.3808 88.0685 36.4511 87.995C36.5214 87.9215 36.5608 87.8224 36.5608 87.7191V86.0965H40.9156V87.7199C40.9179 87.8251 40.9602 87.9252 41.0333 87.9986C41.1063 88.072 41.2043 88.1129 41.3062 88.1124C41.4061 88.111 41.5014 88.069 41.5715 87.9955C41.6416 87.9221 41.6809 87.8231 41.6809 87.7199V86.0714H46.038V87.7246C46.0402 87.8298 46.0822 87.9298 46.1552 88.0033C46.2281 88.0767 46.326 88.1176 46.4278 88.1171C46.5277 88.1157 46.623 88.0737 46.6931 88.0002C46.7632 87.9268 46.8025 87.8278 46.8025 87.7246V86.0337H51.1581V87.716C51.1605 87.8212 51.2027 87.9213 51.2758 87.9947C51.3488 88.0681 51.4468 88.1089 51.5487 88.1085C51.6486 88.107 51.7439 88.0651 51.814 87.9916C51.8841 87.9182 51.9234 87.8191 51.9234 87.716V86.0094H55.9461V87.7215C55.9485 87.8267 55.9907 87.9268 56.0638 88.0002C56.1368 88.0736 56.2348 88.1144 56.3367 88.114C56.4366 88.1125 56.5319 88.0706 56.602 87.9971C56.6721 87.9236 56.7114 87.8246 56.7114 87.7215V85.9874H61.0746V87.727C61.077 87.8322 61.1192 87.9323 61.1923 88.0057C61.2653 88.0791 61.3633 88.1199 61.4652 88.1195C61.5651 88.118 61.6604 88.0761 61.7305 88.0026C61.8006 87.9291 61.8399 87.8301 61.8399 87.727V85.9474H66.1947V87.716C66.1973 87.8213 66.2397 87.9214 66.3129 87.9947C66.386 88.0681 66.4841 88.1089 66.5861 88.1085C66.6859 88.107 66.7812 88.0651 66.8513 87.9916C66.9215 87.9182 66.9608 87.8191 66.9608 87.716V85.923H71.3156V87.7215C71.3181 87.8268 71.3606 87.9268 71.4337 88.0002C71.5069 88.0736 71.605 88.1144 71.707 88.114C71.8067 88.1123 71.9018 88.0703 71.9717 87.9968C72.0417 87.9234 72.0809 87.8245 72.0809 87.7215V85.8987H75.3002C75.4032 85.8946 75.5005 85.8492 75.5715 85.7721C75.6425 85.6949 75.6815 85.5922 75.6802 85.4858C75.6802 85.2699 75.5092 85.2189 75.3002 85.2189H32.3732C37.1543 80.3802 44.6487 73.6873 46.459 74.0507C47.5405 74.2737 47.7069 74.8726 47.903 75.5665C48.1378 76.4136 48.4282 77.4686 50.5227 77.215C54.0309 76.7966 59.1176 70.8063 61.5427 70.2607C62.1895 70.1132 62.2693 70.3204 62.46 70.8181C62.5015 71.017 62.5824 71.205 62.6977 71.37C62.813 71.535 62.9602 71.6736 63.1299 71.7769C63.2997 71.8803 63.4883 71.9461 63.684 71.9704C63.8796 71.9947 64.078 71.9768 64.2666 71.9179C66.0275 71.6086 72.4343 65.1834 74.7356 62.8252L74.1648 65.4801C74.1461 65.5805 74.1661 65.6844 74.2204 65.7698C74.2748 65.8552 74.3592 65.9154 74.4558 65.9375C74.5525 65.9596 74.6536 65.9418 74.7378 65.8881C74.822 65.8343 74.8825 65.7488 74.9066 65.6496L75.795 61.5213C75.8101 61.4511 75.8061 61.3779 75.7836 61.3097C75.7611 61.2416 75.7209 61.1812 75.6674 61.1351C75.6139 61.089 75.5492 61.059 75.4803 61.0483C75.4113 61.0376 75.3409 61.0468 75.2767 61.0747L71.0306 62.921C70.9376 62.9614 70.8641 63.0382 70.826 63.1347C70.788 63.2311 70.7885 63.3392 70.8276 63.4352C70.8667 63.5311 70.9412 63.6071 71.0345 63.6464C71.1279 63.6858 71.2325 63.6851 71.3254 63.6448L71.3224 63.6455Z" fill="black"/>
<path fill-rule="evenodd" clip-rule="evenodd" d="M109.767 93.3971C112.008 90.8529 113.046 78.5982 113.046 78.5982C109.998 73.4062 106.834 75.8649 106.834 75.8649C105.945 79.7899 105.226 83.2023 105.226 83.2023C104.432 82.7421 103.613 82.3293 102.773 81.9659C101.781 81.5734 96.6776 76.6695 95.8629 75.357C95.0482 74.0444 94.485 72.4281 93.4081 71.421C92.4299 70.4768 91.1536 69.9308 89.8156 69.8839C88.5114 69.8314 86.1972 68.9043 85.6553 68.9129C85.1134 68.9215 84.9675 69.7536 85.6865 70.3455C86.4054 70.9374 89.4348 71.7279 89.4348 71.7279C88.3103 71.807 87.1807 71.744 86.071 71.5403C84.7578 71.209 81.8447 70.1885 81.5794 70.7553C81.3142 71.3221 82.5917 72.454 86.5057 73.3458C86.3824 73.7394 86.395 74.165 86.5415 74.55C86.5415 74.55 85.9715 75.3625 86.4206 75.8554C86.3716 76.1693 86.4168 76.4911 86.5502 76.7776C86.6837 77.064 86.8989 77.3014 87.167 77.4576C88.7877 78.1637 90.5193 78.559 92.2772 78.6241C92.2772 78.6241 94.3999 81.1573 96.6282 83.7329C98.8565 86.3085 104.151 95.5166 109.767 93.3971Z" fill="#FFD997"/>
<path fill-rule="evenodd" clip-rule="evenodd" d="M119.686 58.5823L119.571 55.7186C119.571 55.7186 120.804 56.7564 124.055 56.3859C126.222 56.1101 128.282 55.2559 130.033 53.9077L130.273 55.8403C130.273 55.8403 141.999 60.1508 143.877 63.0403C145.755 65.9299 147.363 74.415 148.009 80.8441C146.641 80.286 145.642 80.1541 142.749 80.4202C139.856 80.6864 139.39 82.2163 139.39 82.2163L138.762 77.891C138.762 77.891 135.183 85.3916 134.159 88.1023L135.192 91.4691L110.145 92.0783C110.078 88.209 112.467 81.3104 112.467 81.3104C110.076 77.7348 109.559 75.5674 109.559 75.5674C108.799 74.6112 106.848 75.788 106.848 75.788C107.843 71.4022 109.044 66.4041 109.685 64.8341C110.936 61.7812 119.686 58.5823 119.686 58.5823Z" fill="#81F8F8"/>
<path fill-rule="evenodd" clip-rule="evenodd" d="M119.42 54.8677L119.492 55.5562C119.492 55.5562 122.485 58.7244 130.172 53.8935L129.8 50.1554L127.605 47.966C128.034 47.6729 128.378 47.2662 128.602 46.7885C129.797 44.468 129.637 42.7756 128.442 42.6892C128.045 42.6208 127.638 42.6757 127.271 42.8471C126.905 43.0185 126.596 43.2985 126.384 43.6516C125.866 44.2757 125.199 35.8126 122.057 34.4334C118.914 33.0541 117.215 34.347 117.215 34.347C117.215 34.347 112.314 38.9095 113.472 43.5009C112.905 44.2006 112.438 44.9814 112.087 45.819C112.011 46.4345 113.201 46.9133 113.201 46.9133C113.201 46.9133 112.597 48.5901 112.763 48.9732C113.131 49.5442 113.54 50.0855 113.988 50.5926C113.794 51.0647 113.717 51.5792 113.764 52.0896C113.93 52.5559 114.336 52.3455 114.578 52.8307C114.821 53.3158 114.177 55.2642 116.183 55.5389C117.295 55.542 118.396 55.3137 119.42 54.8677Z" fill="#FFD997"/>
<path fill-rule="evenodd" clip-rule="evenodd" d="M113.135 49.4025C113.096 49.3507 113.074 49.2881 113.071 49.223C113.067 49.1579 113.083 49.0932 113.116 49.0375C113.149 48.9818 113.197 48.9377 113.255 48.9109C113.313 48.8842 113.377 48.876 113.439 48.8875C114.466 49.0423 115.448 49.4265 116.317 50.0132C116.181 50.54 115.913 51.0208 115.541 51.4078C115.169 51.7948 114.706 52.0745 114.197 52.2191C113.767 52.2034 113.752 51.7285 113.871 51.438C113.958 51.1761 114.018 50.9053 114.049 50.6302L113.135 49.4025Z" fill="white"/>
<path fill-rule="evenodd" clip-rule="evenodd" d="M129.147 32.4025C128.987 32.0577 128.903 31.6804 128.901 31.2979C128.899 30.9153 128.979 30.5371 129.136 30.1905C129.292 29.8439 129.522 29.5376 129.807 29.2938C130.093 29.05 130.427 28.8747 130.786 28.7806C133.574 27.815 134.733 29.2225 136.313 31.5963C137.892 33.9702 139.143 33.6483 138.616 36.4445C138.118 39.0907 136.108 40.2533 133.54 40.0555C133.578 40.7871 133.583 41.5666 133.558 42.3862C133.46 45.5199 129.767 50.2919 129.767 50.2919C128.892 49.4732 127.535 48.0154 127.535 48.0154C128.243 47.4313 128.773 46.6492 129.061 45.7625C129.543 44.3495 129.65 43.0895 128.789 42.7795C127.774 42.4097 126.384 43.6602 126.384 43.6602C122.471 43.2489 123.354 38.9125 123.354 38.9125C122.707 38.3687 122.199 37.6693 121.874 36.8755C121.549 36.0817 121.418 35.2179 121.492 34.3595C120.08 34.0738 118.627 34.0738 117.215 34.3595C117.215 34.3595 116.573 33.182 121.746 31.6623C122.965 31.2661 124.248 31.1274 125.52 31.2546C126.791 31.3818 128.025 31.7722 129.147 32.4025Z" fill="#81F8F8"/>
<path fill-rule="evenodd" clip-rule="evenodd" d="M148.012 80.8441C148.658 87.2733 148.806 92.8601 146.958 94.6444C145.11 96.4287 143.049 96.8927 140.177 96.8102C136.008 96.6326 131.857 96.1388 127.757 95.3329C127.361 95.2844 126.959 95.3233 126.578 95.447C126.197 95.5707 125.846 95.7763 125.547 96.0504C124.461 96.9924 121.736 99.9126 119.211 99.8969C116.686 99.8812 116.693 98.7924 116.693 98.7924C116.693 98.7924 115.325 98.7382 114.945 97.7295C114.512 97.639 114.118 97.4086 113.82 97.0714C113.522 96.7343 113.335 96.3079 113.288 95.8541C113.288 95.8541 112.314 95.3494 112.28 94.6334C112.28 94.6334 116.612 94.3116 119.177 92.0775L117.642 89.9321C118.743 89.5735 119.899 89.4318 121.051 89.5145C122.37 89.7649 124.564 90.4094 126.244 90.378C127.924 90.3466 132.335 89.8402 134.197 89.6189C136.06 89.3975 139.074 88.3189 140.633 88.2059C140.065 86.1895 139.637 84.1335 139.354 82.0538C141.034 79.6721 146.166 80.3449 148.012 80.8441Z" fill="#FFD997"/>
<path fill-rule="evenodd" clip-rule="evenodd" d="M112.321 94.5487C115.223 95.0778 119.249 92.1576 119.249 92.1576C119.249 92.1576 115.796 87.7726 115.092 86.9616C114.939 86.7451 114.711 86.5971 114.456 86.5477C114.201 86.4984 113.938 86.5516 113.719 86.6963L109.247 89.3653C109.06 89.4838 108.925 89.6735 108.871 89.8936C108.817 90.1137 108.849 90.3467 108.96 90.5428C110.014 91.9363 111.136 93.2733 112.321 94.5487Z" fill="white"/>
<path fill-rule="evenodd" clip-rule="evenodd" d="M116.403 43.4781C115.747 43.0111 116.136 41.978 116.136 41.978C116.136 41.978 116.294 41.6232 118.604 42.6539L116.403 43.4781Z" fill="white"/>
<path d="M148.424 80.6133C147.758 73.9793 146.09 65.7368 144.195 62.8213C142.395 60.0511 132.329 56.1881 130.63 55.5554L130.159 50.4066C130.76 49.609 133.846 45.37 133.937 42.3933C133.958 41.6779 133.957 41.0072 133.933 40.3813C136.795 40.6317 138.61 39.2957 139.059 36.085C139.417 33.5306 138.071 33.5463 136.627 31.3703C134.983 28.9007 133.68 27.3605 130.666 28.4046C129.979 28.5664 129.378 28.9944 128.988 29.6003C128.598 30.2061 128.447 30.9437 128.568 31.6608C126.381 30.6734 123.922 30.5341 121.643 31.2683C120.288 31.667 116.834 32.7464 116.811 34.1971C115.975 35.0261 112.122 39.1183 113.061 43.4051C112.478 44.1021 112.021 44.9013 111.711 45.7649C111.63 46.418 112.286 46.8819 112.726 47.1166C112.444 47.7447 112.337 48.4417 112.416 49.1294C112.749 49.6795 113.131 50.1966 113.556 50.6742C113.365 51.1646 113.314 51.7013 113.41 52.2207C113.458 52.3593 113.537 52.4847 113.639 52.5872C113.741 52.6898 113.865 52.7669 114.001 52.8126C114.274 52.9311 114.262 52.9649 114.271 53.4367C114.287 54.2217 114.316 55.6747 116.135 55.9243C117.154 55.9392 118.167 55.7579 119.123 55.3897L119.291 58.3076C117.779 58.883 110.521 61.7741 109.335 64.6786C108.226 67.39 105.542 79.8645 104.96 82.6018C104.293 82.2263 103.606 81.8896 102.903 81.593C101.997 81.2366 96.9685 76.412 96.1781 75.1395C95.368 73.8341 94.7972 72.1879 93.6595 71.1251C92.6146 70.12 91.2537 69.5383 89.8268 69.4868C88.9174 69.3764 88.0211 69.1712 87.1516 68.8745C86.6625 68.7026 86.1578 68.5821 85.6453 68.5149C84.7743 68.5291 84.3981 69.7851 85.4462 70.647C85.8125 70.9013 86.2102 71.1036 86.6287 71.2483C86.1248 71.1551 85.6273 71.0284 85.1391 70.8691C82.7208 70.1689 81.5459 69.9114 81.2335 70.5771C81.1834 70.6898 81.1593 70.8129 81.163 70.9369C81.1667 71.0608 81.1981 71.1822 81.2548 71.2915C81.6553 72.1456 83.3957 72.9926 86.0534 73.6355C86.0091 73.9271 86.0281 74.2253 86.1089 74.5084C85.9695 74.7215 85.8882 74.9695 85.8736 75.2263C85.859 75.4831 85.9117 75.7392 86.0261 75.9677C85.9902 76.3404 86.0645 76.7155 86.2391 77.0437C86.4137 77.3718 86.6804 77.6377 87.0042 77.8062C88.6202 78.5116 90.3439 78.9174 92.0962 79.0049C92.5605 79.5544 94.4218 81.7681 96.3415 83.9873C98.7287 86.7466 103.568 95.2662 109.2 93.9717C106.864 102.105 98.2233 132.554 97.062 141.753C97.0551 141.809 97.0597 141.865 97.0757 141.919C97.0917 141.972 97.1185 142.022 97.1545 142.064C97.1905 142.106 97.2348 142.139 97.2844 142.162C97.334 142.185 97.3877 142.196 97.442 142.196L109.591 142.047C109.66 142.046 109.728 142.025 109.787 141.988C109.846 141.95 109.894 141.896 109.925 141.832C110.001 141.682 116.725 128.067 118.927 124.269L122.131 141.09C122.146 141.182 122.191 141.267 122.259 141.331C122.326 141.394 122.411 141.433 122.502 141.441H135.612C135.655 141.449 135.699 141.448 135.741 141.438C135.784 141.428 135.823 141.409 135.858 141.382C135.894 141.356 135.923 141.322 135.945 141.284C135.967 141.245 135.982 141.202 135.988 141.158C136.159 140.233 140.18 118.428 139.256 111.398C138.463 105.349 137.022 98.6958 136.638 96.9712C138.086 97.0968 139.346 97.1761 140.164 97.1996C143.411 97.2891 145.447 96.6336 147.215 94.9278C148.886 93.3186 149.257 88.9053 148.424 80.6133ZM133.889 39.5893C133.829 38.5184 133.633 37.4603 133.306 36.4422C134.778 37.2806 136.619 37.7767 138.107 36.9532C137.54 38.9793 136.185 39.8232 133.889 39.5893ZM129.452 30.3443C129.598 30.0498 129.804 29.7909 130.054 29.5848C130.305 29.3787 130.596 29.23 130.906 29.1488C133.347 28.3033 134.333 29.312 135.998 31.8178C137.505 34.0833 138.563 33.8635 138.327 35.8291C136.297 37.812 133.04 35.3699 132.637 35.0535C132.332 34.6111 131.988 34.1986 131.61 33.8211C132.854 33.92 134.377 33.796 135.278 32.8963C135.35 32.8235 135.392 32.7239 135.393 32.6194C135.394 32.515 135.356 32.4142 135.285 32.3394C135.215 32.2645 135.118 32.2217 135.017 32.2203C134.916 32.2189 134.818 32.2591 134.746 32.3319C133.613 33.4647 130.999 32.9733 130.548 32.8814C130.197 32.608 129.83 32.3578 129.449 32.1325C129.241 31.5555 129.242 30.9206 129.452 30.3443ZM121.852 32.025C123.669 31.4463 125.615 31.461 127.424 32.0669C129.233 32.6728 130.817 33.8406 131.96 35.4107C132.885 36.7452 133.284 39.0178 133.183 42.3689C133.107 44.8723 130.544 48.5814 129.724 49.7071C129.164 49.1576 128.502 48.4668 128.122 48.0657C128.46 47.7558 128.738 47.383 128.941 46.9667C129.802 45.2962 130.034 43.851 129.579 43.0017C129.469 42.7957 129.309 42.6225 129.115 42.4987C128.922 42.375 128.7 42.3049 128.473 42.2952C128.056 42.2641 127.638 42.3329 127.251 42.4963C126.865 42.6598 126.52 42.9133 126.244 43.2372C124.317 42.9577 123.548 41.5321 123.664 39.5657C125.052 40.034 126.537 40.1013 127.96 39.7604C128.009 39.7501 128.055 39.7299 128.097 39.701C128.138 39.6722 128.174 39.6351 128.201 39.5921C128.229 39.5491 128.248 39.5008 128.257 39.4502C128.267 39.3995 128.267 39.3474 128.257 39.2968C128.247 39.2463 128.227 39.1982 128.199 39.1555C128.171 39.1127 128.135 39.076 128.094 39.0476C128.052 39.0191 128.005 38.9994 127.956 38.9896C127.907 38.9797 127.857 38.98 127.808 38.9903C126.953 39.1693 124.535 39.4417 123.607 38.6088L123.585 38.59C122.992 38.0848 122.528 37.4393 122.229 36.7084C121.931 35.9775 121.808 35.183 121.871 34.3926C121.883 34.2923 121.857 34.1913 121.798 34.1106C121.739 34.0299 121.652 33.9757 121.556 33.9592C120.323 33.7344 119.065 33.6936 117.821 33.8383C118.211 33.4498 119.227 32.7951 121.85 32.025H121.852ZM129.703 53.7106C128.01 54.9251 126.062 55.7079 124.02 55.995C121.436 56.2917 120.201 55.6606 119.89 55.4659L119.87 55.1244C122.057 54.2923 124.268 53.0308 124.487 52.3337C124.701 51.6524 125.496 49.4135 125.82 48.5045C126.35 48.6998 126.93 48.6923 127.454 48.4833C127.84 48.8939 128.728 49.8296 129.406 50.4749L129.703 53.7106ZM114.123 51.9656C114.09 51.5421 114.164 51.1172 114.338 50.7323C114.364 50.6652 114.37 50.5921 114.358 50.5212C114.346 50.4503 114.315 50.3843 114.268 50.3304C113.986 50.0015 113.609 49.5383 113.361 49.2039C114.334 49.2542 115.277 49.5724 116.091 50.1255C115.673 50.8108 114.822 51.9601 114.123 51.9656ZM116.23 55.148C114.552 54.9172 115.247 53.3181 114.912 52.6485C114.896 52.6157 114.878 52.5837 114.859 52.5527C115.732 51.9608 116.445 51.1507 116.934 50.1977C116.979 50.1133 116.993 50.0146 116.972 49.9204C116.951 49.8263 116.897 49.7434 116.821 49.6875C115.762 48.8718 114.478 48.4268 113.157 48.4174C113.258 47.952 113.391 47.4946 113.554 47.0483C113.574 46.9911 113.581 46.9298 113.575 46.8693C114.056 47.0059 114.084 47.316 114.381 47.316C114.456 47.3162 114.53 47.2931 114.593 47.2498C114.656 47.2065 114.704 47.1449 114.733 47.0728C114.762 47.0007 114.769 46.9215 114.754 46.8451C114.739 46.7688 114.702 46.6988 114.648 46.6441C114.473 46.4518 114.261 46.2999 114.025 46.1982C113.79 46.0964 113.536 46.0472 113.28 46.0537C113.202 46.061 113.127 46.0936 113.068 46.147C113.008 46.2004 112.966 46.2719 112.948 46.3512C112.66 46.177 112.444 45.9744 112.457 45.8669C112.789 45.0974 113.229 44.3831 113.764 43.7474C114.054 43.3514 114.258 42.8949 114.361 42.4095C114.464 41.9242 114.463 41.4215 114.36 40.9363C114.332 40.8462 114.274 40.7694 114.196 40.72C114.118 40.6705 114.026 40.6517 113.936 40.6671C113.895 40.6741 113.86 40.682 113.821 40.6898C114.462 37.7021 116.944 35.1501 117.393 34.7073C118.614 34.4869 119.862 34.4784 121.086 34.6822C121.058 35.5097 121.21 36.333 121.53 37.0922C121.85 37.8513 122.33 38.5271 122.935 39.0704C122.631 41.361 123.467 43.4106 125.707 43.9374C125.695 44.0214 125.71 44.1073 125.749 44.182C125.788 44.2567 125.85 44.3162 125.925 44.3516C126 44.387 126.084 44.3964 126.164 44.3783C126.244 44.3602 126.317 44.3157 126.371 44.2514C126.958 43.5449 127.462 43.0087 128.408 43.0794C128.51 43.079 128.61 43.1075 128.697 43.1616C128.784 43.2157 128.855 43.2934 128.902 43.3863C129.141 43.8306 129.116 44.9398 128.259 46.6048C128.143 46.8816 127.974 47.131 127.761 47.3377C127.548 47.5443 127.297 47.7039 127.022 47.8066C126.606 47.9114 126.167 47.8556 125.788 47.6496C125.74 47.6198 125.686 47.6013 125.631 47.5954C125.575 47.5895 125.519 47.5964 125.466 47.6155C125.413 47.6346 125.365 47.6655 125.325 47.706C125.285 47.7465 125.255 47.7956 125.235 47.8498C125.186 47.9872 124.028 51.2253 123.757 52.0888C123.37 52.9178 117.974 55.3882 116.233 55.148H116.23ZM110.035 64.9871C110.947 62.7562 116.673 60.1578 119.34 59.1287L119.376 59.7339C119.379 59.7855 119.392 59.8359 119.414 59.8823C119.436 59.9287 119.467 59.9702 119.504 60.0044C119.542 60.0387 119.585 60.0649 119.632 60.0818C119.68 60.0986 119.73 60.1056 119.78 60.1025C119.829 60.0993 119.878 60.0861 119.923 60.0634C119.968 60.0408 120.008 60.0093 120.041 59.9706C120.075 59.9319 120.1 59.8869 120.116 59.8381C120.133 59.7892 120.139 59.7376 120.136 59.686L119.939 56.3686C121.273 56.8484 122.7 56.9882 124.098 56.776C126.122 56.4887 128.061 55.7485 129.779 54.6071C129.802 55.0629 129.848 55.5172 129.915 55.9683V55.9769C129.933 56.0241 129.958 56.0675 129.991 56.1049L130 56.1143C130.035 56.1525 130.078 56.1824 130.126 56.2022C130.82 56.506 141.804 60.5558 143.56 63.2594C145.317 65.9629 146.946 73.9354 147.618 80.2468C146.297 79.9088 144.93 79.8052 143.575 79.9406C141.334 80.0568 140.187 80.6848 139.603 81.2508C139.147 78.3212 138.854 75.4504 138.599 72.4957C138.59 72.3916 138.542 72.2954 138.464 72.2282C138.387 72.1611 138.286 72.1285 138.186 72.1377C138.085 72.1469 137.992 72.197 137.927 72.2771C137.862 72.3572 137.83 72.4606 137.839 72.5647C137.986 74.2753 138.153 76.0321 138.366 77.8242C137.91 78.7859 134.765 85.4081 133.801 87.9602C133.734 88.1407 133.789 88.209 134.075 89.2374C132.21 89.4587 127.872 89.9541 126.226 89.9855C124.5 89.8613 122.789 89.5746 121.115 89.129C119.972 89.0251 118.822 89.1501 117.726 89.4972C117.163 88.8197 115.912 87.3196 115.373 86.6995C115.164 86.4132 114.858 86.219 114.516 86.1554C114.174 86.0919 113.821 86.1636 113.528 86.3564L110.987 87.8754C111.387 85.6744 112.004 83.5214 112.828 81.4502C112.856 81.386 112.866 81.3153 112.858 81.2456C112.85 81.1759 112.824 81.1096 112.783 81.0537C112.759 81.0208 110.339 77.7034 109.983 75.5187C109.694 73.7462 112.851 67.9631 114.092 65.8844C114.119 65.8405 114.137 65.7916 114.146 65.7403C114.154 65.6891 114.153 65.6366 114.142 65.586C114.13 65.5353 114.109 65.4875 114.08 65.4452C114.051 65.403 114.014 65.3672 113.971 65.3399C113.928 65.3126 113.88 65.2944 113.831 65.2862C113.781 65.2781 113.73 65.2803 113.681 65.2926C113.632 65.3049 113.586 65.3271 113.546 65.358C113.505 65.3888 113.471 65.4277 113.445 65.4723C113.015 66.1921 109.553 72.0663 109.232 74.9072C108.611 74.7663 107.961 74.8471 107.39 75.1364C108.103 71.7083 108.986 68.3207 110.038 64.9871H110.035ZM140.147 87.8652C138.74 88.0724 136.439 88.8142 134.836 89.1212L134.56 88.1242C135.363 86.0393 137.524 81.4148 138.547 79.2396C138.918 82.1445 139.454 85.0246 140.15 87.8652H140.147ZM112.534 94.2127C111.914 93.529 110.203 91.6222 109.494 90.6668L114.072 87.9193L117.93 92.4943C116.255 93.4182 114.425 94.0016 112.537 94.2127H112.534ZM86.4099 72.9164C83.0377 72.1267 82.0779 71.246 81.9395 70.9759C82.9596 71.0776 83.9654 71.2963 84.9385 71.6282C85.8576 71.9474 86.8183 72.12 87.7877 72.1401C87.2932 72.3258 86.8287 72.5875 86.4099 72.9164ZM89.4499 72.6582C90.7122 72.7406 90.9889 73.0467 90.9965 73.104C90.9965 73.104 90.8695 73.3631 89.8466 73.5978C88.8267 73.3197 87.7436 73.4347 86.7997 73.9212C86.8049 73.8016 86.8199 73.6826 86.8446 73.5656C87.5843 72.9619 88.5035 72.6413 89.4461 72.6582H89.4499ZM86.8529 74.7777C88.5561 73.7705 90.2463 74.3922 90.2813 74.8075C90.2859 74.8624 90.2053 74.9716 89.9925 75.072C89.484 74.7796 88.897 74.6663 88.3205 74.7494C87.7296 74.8939 87.1631 75.1294 86.6401 75.4481C86.6394 75.2069 86.7126 74.9717 86.8491 74.7761L86.8529 74.7777ZM98.3715 85.3587C96.6691 83.0571 97.6427 84.3868 93.031 78.9154C93.2063 78.8848 93.3793 78.8413 93.5485 78.7851C93.5964 78.769 93.6406 78.7433 93.6788 78.7094C93.7169 78.6755 93.7481 78.6342 93.7707 78.5877C93.7932 78.5413 93.8066 78.4907 93.8101 78.4389C93.8135 78.3871 93.807 78.335 93.7909 78.2858C93.7747 78.2366 93.7493 78.1912 93.716 78.1523C93.6828 78.1133 93.6423 78.0816 93.5971 78.0588C93.5519 78.0361 93.5027 78.0229 93.4525 78.02C93.4023 78.017 93.352 78.0244 93.3046 78.0417C92.9662 78.1382 92.6195 78.2008 92.2695 78.2285C90.5706 78.1598 88.8975 77.7769 87.3295 77.0981C87.1761 77.0195 87.0459 76.8999 86.9524 76.7518C86.8588 76.6037 86.8054 76.4325 86.7975 76.2558C87.3064 75.9321 87.8577 75.6854 88.4345 75.5234C88.8681 75.4609 89.3092 75.5591 89.6794 75.8005C89.7379 75.8515 89.7554 75.8884 89.7273 75.9497C89.1408 76.2411 88.4921 76.373 87.8425 76.3327C87.7926 76.3322 87.743 76.3419 87.6967 76.3611C87.6505 76.3804 87.6083 76.4089 87.5726 76.4449C87.537 76.481 87.5086 76.524 87.489 76.5714C87.4695 76.6188 87.4592 76.6698 87.4587 76.7213C87.4582 76.7729 87.4675 76.824 87.4861 76.8718C87.5048 76.9196 87.5323 76.9632 87.5673 77C87.6022 77.0368 87.6438 77.0662 87.6897 77.0864C87.7356 77.1066 87.785 77.1172 87.8349 77.1177C88.5477 77.1177 89.7691 77.0235 90.2669 76.5015C90.3701 76.3983 90.4447 76.2685 90.4832 76.1256C90.5217 75.9826 90.5225 75.8317 90.4857 75.6883C90.731 75.5537 90.9165 75.3265 91.0033 75.054C92.1189 75.0417 93.2002 75.4516 94.0433 76.2064C94.1174 76.2746 94.2145 76.3102 94.3136 76.3055C94.4128 76.3007 94.5063 76.2561 94.574 76.1811C94.6417 76.1061 94.6784 76.0067 94.6761 75.9042C94.6737 75.8017 94.6327 75.7042 94.5616 75.6325C93.5422 74.7078 92.2193 74.2203 90.8635 74.2698C90.8339 74.2252 90.8011 74.1829 90.7654 74.1434C91.2769 73.9456 91.7831 73.6166 91.7489 73.0719C91.7055 72.4187 91.0428 72.0247 89.7767 71.8944C89.8009 71.842 89.8136 71.7848 89.8138 71.7268C89.8141 71.6688 89.8019 71.6115 89.7781 71.559C89.7543 71.5064 89.7196 71.46 89.6764 71.4229C89.6332 71.3859 89.5825 71.3593 89.5281 71.3449C88.2796 71.0614 87.0691 70.622 85.9235 70.0363C85.6012 69.7717 85.5435 69.4868 85.5891 69.3596C85.6065 69.307 85.6286 69.3031 85.6613 69.3031C86.0793 69.2638 88.3669 70.216 89.801 70.2741C91.0493 70.3205 92.2395 70.8303 93.1533 71.7099C94.171 72.6613 94.7113 74.2274 95.5428 75.5666C96.34 76.8516 101.502 81.8843 102.637 82.3301C104.803 83.1827 106.513 84.2612 107.248 86.5511C107.279 86.65 107.348 86.7318 107.438 86.7787C107.528 86.8255 107.632 86.8334 107.728 86.8007C107.824 86.768 107.903 86.6974 107.948 86.6044C107.993 86.5113 108.001 86.4035 107.97 86.3046C107.533 84.9966 106.725 83.8545 105.652 83.0264C105.832 82.1786 106.439 79.3432 107.164 76.1365C107.526 75.9143 108.608 75.3232 109.258 75.7801C109.655 77.8556 111.525 80.6063 112.046 81.3442C111.161 83.6136 110.518 85.9757 110.127 88.3888L109.046 89.0348C108.776 89.2057 108.581 89.4791 108.502 89.7966C108.424 90.1141 108.469 90.4506 108.628 90.7344C108.957 91.242 109.323 91.723 109.723 92.1733C109.668 92.3609 109.579 92.671 109.458 93.0894C105.154 94.5204 100.913 88.797 98.3677 85.3571L98.3715 85.3587ZM146.702 94.3595C145.075 95.9295 143.256 96.5065 140.191 96.4193C136.042 96.2449 131.912 95.7537 127.834 94.9498C127.381 94.8893 126.922 94.9296 126.486 95.068C126.05 95.2064 125.648 95.4397 125.307 95.7521C123.869 97.0002 121.522 99.5138 119.217 99.5067C118.614 99.5403 118.012 99.4296 117.457 99.1833C118.232 99.1883 118.995 98.9849 119.671 98.593C119.712 98.5646 119.748 98.528 119.776 98.4853C119.804 98.4426 119.824 98.3946 119.834 98.3441C119.844 98.2936 119.844 98.2415 119.834 98.1909C119.825 98.1402 119.806 98.092 119.778 98.049C119.751 98.0059 119.715 97.9689 119.674 97.94C119.633 97.9111 119.586 97.8909 119.537 97.8806C119.489 97.8702 119.438 97.8699 119.389 97.8797C119.34 97.8895 119.293 97.9091 119.252 97.9375C118.306 98.582 116.673 98.3583 116.538 98.3826C116.262 98.3441 115.996 98.2522 115.753 98.1118C116.776 98.1484 117.787 97.8756 118.662 97.3268C118.738 97.2619 118.787 97.169 118.798 97.0677C118.809 96.9664 118.781 96.8646 118.721 96.784C118.661 96.7033 118.572 96.65 118.475 96.6354C118.377 96.6209 118.278 96.6461 118.198 96.7058C117.194 97.5065 114.953 97.3032 114.873 97.3079C114.622 97.2329 114.391 97.0998 114.197 96.9188C114.004 96.7377 113.852 96.5135 113.755 96.2631C115.078 96.376 116.409 96.1751 117.645 95.6759C117.737 95.6323 117.808 95.5529 117.842 95.4553C117.877 95.3576 117.873 95.2496 117.831 95.1551C117.789 95.0606 117.712 94.9872 117.617 94.9512C117.523 94.9153 117.418 94.9195 117.327 94.9632C116.052 95.4331 114.69 95.5974 113.345 95.4436C113.143 95.3187 112.963 95.1595 112.813 94.9726C114.055 94.8156 117.288 94.237 119.425 92.3821C119.499 92.3178 119.546 92.2268 119.558 92.1276C119.569 92.0284 119.543 91.9285 119.486 91.8483L118.28 90.1644C119.535 89.7524 120.882 89.7491 122.138 90.155C123.485 90.5109 124.865 90.7182 126.254 90.7736C127.954 90.7406 132.41 90.2304 134.243 90.0122C135.355 89.8357 136.456 89.5906 137.54 89.2782C138.554 88.9645 139.593 88.738 140.643 88.6007C140.664 88.6003 140.684 88.5979 140.704 88.5937C141.809 88.3852 142.948 88.5044 143.989 88.9375C144.038 88.9609 144.091 88.973 144.146 88.9728C144.232 88.9727 144.316 88.9421 144.384 88.886C144.451 88.8299 144.498 88.7517 144.516 88.6643C144.535 88.5769 144.524 88.4857 144.485 88.4056C144.447 88.3255 144.383 88.2614 144.304 88.2239C143.232 87.7739 142.065 87.6163 140.917 87.7663C140.456 85.9302 140.088 84.1082 139.785 82.3105C139.892 82.0436 140.533 80.8881 143.623 80.728C146.35 80.5859 147.413 80.9744 147.718 81.126C148.192 86.0581 148.558 92.5618 146.698 94.3579L146.702 94.3595Z" fill="black"/>
<path d="M118.12 40.6514C118.157 40.6873 118.2 40.7153 118.248 40.7337C118.295 40.7521 118.346 40.7605 118.396 40.7584C118.447 40.7564 118.497 40.7439 118.542 40.7217C118.588 40.6995 118.629 40.6681 118.663 40.6293C118.697 40.5905 118.723 40.545 118.74 40.4956C118.757 40.4463 118.764 40.3939 118.761 40.3417C118.757 40.2895 118.744 40.2385 118.722 40.1916C118.699 40.1448 118.668 40.1031 118.629 40.0689C117.185 38.7258 115.016 40.1937 114.924 40.2573C114.842 40.3157 114.785 40.4051 114.766 40.5061C114.747 40.6072 114.768 40.7118 114.823 40.7976C114.878 40.8833 114.963 40.9433 115.061 40.9645C115.158 40.9858 115.26 40.9666 115.344 40.9112C115.361 40.8994 117.119 39.7188 118.12 40.6514Z" fill="black"/>
<path d="M118.759 42.2936C116.378 41.2315 115.567 41.6562 115.425 41.7512C115.341 41.8093 115.281 41.899 115.259 42.0014C115.237 42.1039 115.255 42.2111 115.308 42.3007C115.333 42.3439 115.368 42.3813 115.408 42.4106C115.448 42.44 115.493 42.4607 115.541 42.4716C115.589 42.4825 115.639 42.4834 115.687 42.4741C115.736 42.4648 115.782 42.4456 115.823 42.4177C115.855 42.4046 115.888 42.3952 115.922 42.3894C115.846 42.8604 116.065 43.4586 116.47 43.4586C116.874 43.4586 117.01 42.8941 116.926 42.4702C117.451 42.6024 117.964 42.7837 118.457 43.0119C118.503 43.0325 118.552 43.0436 118.602 43.0446C118.652 43.0455 118.702 43.0363 118.748 43.0174C118.795 42.9985 118.837 42.9703 118.873 42.9345C118.909 42.8987 118.938 42.8559 118.958 42.8086C118.978 42.7613 118.989 42.7104 118.989 42.6587C118.99 42.6071 118.981 42.5559 118.963 42.5078C118.945 42.4598 118.918 42.4159 118.883 42.3788C118.848 42.3416 118.807 42.3119 118.761 42.2913L118.759 42.2936Z" fill="black"/>
<path d="M124.802 82.272C124.846 82.2966 124.894 82.3121 124.944 82.3174C124.994 82.3228 125.044 82.318 125.092 82.3034C125.139 82.2887 125.184 82.2645 125.223 82.232C125.262 82.1996 125.294 82.1596 125.318 82.1143C125.341 82.0689 125.356 82.0192 125.361 81.968C125.367 81.9167 125.362 81.8649 125.348 81.8155C125.334 81.766 125.31 81.72 125.279 81.6799C125.247 81.6399 125.209 81.6066 125.165 81.582C122.949 80.3394 121.717 78.8282 121.505 77.091C121.125 74.0154 124.052 71.1604 124.081 71.1321C124.12 71.0977 124.152 71.0556 124.175 71.0082C124.197 70.9608 124.211 70.9091 124.214 70.8562C124.217 70.8034 124.209 70.7505 124.192 70.7007C124.175 70.6509 124.148 70.6052 124.113 70.5664C124.078 70.5276 124.036 70.4965 123.989 70.475C123.942 70.4535 123.892 70.4419 123.84 70.4411C123.789 70.4403 123.738 70.4501 123.691 70.4701C123.643 70.4901 123.6 70.5199 123.564 70.5575C123.431 70.6839 120.325 73.7093 120.752 77.186C120.995 79.1886 122.358 80.9006 124.802 82.272Z" fill="black"/>
<path d="M116.589 113.246C116.398 111.258 116.893 100.058 116.893 99.9479C116.897 99.8512 116.867 99.7563 116.807 99.6818C116.771 99.6519 116.736 99.6213 116.704 99.5899C116.647 99.5561 116.583 99.538 116.518 99.5371C116.453 99.5363 116.388 99.5529 116.331 99.5852C116.274 99.6175 116.225 99.6646 116.191 99.7218C116.156 99.779 116.137 99.8444 116.134 99.9118C116.113 100.375 115.635 111.279 115.846 113.398L117.315 118.418C115.756 121.48 106.078 139.242 104.945 141.322L105.823 141.311C107.521 138.193 115.415 123.696 117.625 119.481L118.703 123.171C118.771 123.047 118.866 122.94 118.98 122.86C119.094 122.78 119.225 122.728 119.361 122.708L116.589 113.246Z" fill="#81F8F8"/>
<path d="M111.604 94.3297C111.439 94.1452 111.24 93.9223 111.023 93.6774C110.297 95.6093 108.792 102.634 107.935 104.681C107.613 105.149 107.176 105.52 106.669 105.755C106.576 106.092 106.482 106.434 106.386 106.776C106.898 106.54 108.279 105.834 108.632 104.991C109.461 103.012 110.867 96.5968 111.604 94.3297Z" fill="#81F8F8"/>
<path d="M138.017 108.176C137.976 107.918 137.935 107.66 137.892 107.404C137.154 107.744 133.788 108.018 131.036 107.551C129.177 107.237 128.725 106.748 128.616 106.552C127.833 105.147 127.476 98.5106 127.39 95.7003C127.131 95.7063 126.874 95.7556 126.63 95.8463C126.693 97.7366 126.997 105.227 127.954 106.944C128.942 108.719 134.552 108.698 136.629 108.457C136.447 111.06 135.088 130.092 133.564 141.022C133.557 141.073 133.559 141.125 133.572 141.174C133.584 141.224 133.606 141.271 133.636 141.313C133.665 141.354 133.703 141.389 133.746 141.415C133.789 141.441 133.836 141.459 133.886 141.466C133.935 141.474 133.985 141.471 134.034 141.458C134.082 141.445 134.128 141.423 134.168 141.392C134.208 141.361 134.241 141.323 134.267 141.278C134.292 141.234 134.309 141.185 134.316 141.134C135.885 129.883 137.28 110.089 137.399 108.34C137.608 108.3 137.815 108.245 138.017 108.176Z" fill="#81F8F8"/>
<path fill-rule="evenodd" clip-rule="evenodd" d="M36.4142 125.631L33.356 142.565L34.9869 142.438L37.8012 125.125L36.4142 125.631Z" fill="white"/>
<path fill-rule="evenodd" clip-rule="evenodd" d="M24.9254 142.546H23.7588L18.4259 125.148C18.4259 125.148 14.0825 130.458 10.7643 131.619C7.44618 132.779 8.11498 132.207 8.31334 131.305C8.5117 130.402 11.8162 120.91 16.1771 119.694C20.5379 118.479 24.9254 142.546 24.9254 142.546Z" fill="white"/>
<path fill-rule="evenodd" clip-rule="evenodd" d="M27.2956 142.546H26.3213C26.3213 142.546 28.8893 115.361 31.9871 112.201C35.0849 109.041 43.8834 102.938 44.5902 103.923C45.297 104.908 38.9168 112.957 32.9622 115.351L27.2956 142.546Z" fill="white"/>
<path fill-rule="evenodd" clip-rule="evenodd" d="M29.4261 119.282L28.4769 111.757C28.4769 111.757 28.9283 110.629 27.5649 100.99C25.9339 89.476 15.4429 83.9739 15.4429 83.9739C15.4429 83.9739 17.4447 102.201 26.8809 112.425L28.4769 125.77L29.4261 119.282Z" fill="white"/>
<path fill-rule="evenodd" clip-rule="evenodd" d="M50.6162 110.196C47.3824 112.282 43.9058 113.935 40.2695 115.118C40.2695 115.118 43.4129 106.665 48.8902 101.834C54.3675 97.0033 67.6387 90.3732 69.0614 91.9001C70.4841 93.4269 55.547 106.919 50.6162 110.196Z" fill="white"/>
<path fill-rule="evenodd" clip-rule="evenodd" d="M30.2944 142.553H28.478L32.1838 125.792C32.1838 125.792 31.7802 121.042 40.2709 115.12C49.3317 108.802 52.8391 110.275 55.9064 109.687C58.9738 109.099 60.3327 108.359 58.7602 110.911C57.0685 113.659 55.0187 117.196 49.1082 120.396C44.0922 123.112 33.9249 126.501 33.9249 126.501L30.2944 142.553Z" fill="white"/>
<path fill-rule="evenodd" clip-rule="evenodd" d="M25.5865 142.546L24.0034 125.339C24.0034 125.339 6.78031 115.354 4.07471 95.314C4.07471 95.314 28.0846 102.43 25.683 125.149L26.5707 138.64L25.5865 142.546Z" fill="white"/>
<path d="M48.6434 101.538C43.4389 106.129 40.3723 113.784 39.9596 114.864C31.9219 120.505 31.7782 125.121 31.7995 125.758L28.1743 142.164H27.7639L33.2944 115.635C38.8135 113.312 44.3843 106.596 44.9627 104.523C45.1588 103.816 44.8441 103.46 44.3935 103.424C42.5915 103.267 34.5021 109.076 31.7197 111.918C30.9688 112.684 30.2552 114.75 29.6016 117.469L28.8636 111.775C28.9662 111.262 29.1038 109.158 27.9387 100.931C26.2979 89.3496 15.7194 83.6772 15.613 83.6207C15.552 83.5885 15.4836 83.574 15.4152 83.5788C15.3468 83.5835 15.281 83.6072 15.2246 83.6474C15.1682 83.6876 15.1234 83.7429 15.0949 83.8073C15.0664 83.8716 15.0553 83.9428 15.0628 84.0132C15.0833 84.1968 17.1748 102.377 26.5167 112.597L28.0641 125.515C27.5321 128.881 27.0761 132.348 26.7288 135.267L26.0607 125.19C28.4692 102.406 4.42278 95.0063 4.17958 94.9341C4.11871 94.916 4.05445 94.914 3.99263 94.9282C3.93081 94.9423 3.87339 94.9722 3.82559 95.0151C3.77779 95.058 3.74113 95.1125 3.71893 95.1738C3.69674 95.235 3.68971 95.3011 3.6985 95.3658C5.17442 106.296 10.9945 114.303 15.9968 119.333C11.4368 120.709 8.16882 130.174 7.94462 131.214C7.8481 131.656 7.56918 132.134 7.90738 132.478C8.21138 132.788 8.68562 132.758 10.8881 131.988C13.672 131.014 17.0608 127.322 18.2692 125.929L23.2442 142.155H18.4281C18.3273 142.155 18.2306 142.196 18.1594 142.27C18.0881 142.344 18.0481 142.443 18.0481 142.547C18.0472 142.653 18.0865 142.755 18.1575 142.832C18.2285 142.908 18.3256 142.953 18.4281 142.956H40.9773C41.0263 142.958 41.0752 142.95 41.121 142.932C41.1668 142.914 41.2087 142.886 41.2441 142.851C41.2795 142.816 41.3078 142.774 41.3272 142.728C41.3467 142.681 41.3569 142.631 41.3573 142.58C41.3573 142.476 41.3172 142.376 41.246 142.303C41.1747 142.229 41.078 142.188 40.9773 142.188H35.3145L38.1189 125.447C41.9303 124.119 45.6591 122.55 49.2841 120.75C53.3508 118.719 56.7157 115.447 58.9239 111.377C59.1572 110.979 60.1232 109.695 59.6839 109.04C59.2446 108.384 58.1495 108.858 55.8398 109.3C54.8252 109.495 53.5021 109.457 52.1379 109.59C57.489 105.576 69.2265 94.989 69.5305 92.3106C69.972 88.3919 53.9809 96.8291 48.6434 101.538ZM27.1536 112.154C19.0148 103.335 16.4376 88.2898 15.9208 84.7079C18.2153 86.1327 25.8388 91.5319 27.1871 101.048C27.6757 104.502 27.9296 106.848 28.0565 108.435C25.9916 101.979 21.1002 93.8202 20.8563 93.4159C20.802 93.3298 20.7173 93.2691 20.6202 93.2468C20.5232 93.2245 20.4215 93.2424 20.337 93.2966C20.2526 93.3509 20.1921 93.4371 20.1685 93.5369C20.145 93.6367 20.1602 93.7421 20.211 93.8304C20.2809 93.9458 27.1749 105.448 28.1013 111.815L29.1167 119.651C28.9062 120.672 28.704 121.743 28.5087 122.847C27.1529 111.523 27.2859 112.297 27.1536 112.154ZM32.254 112.48C35.4118 109.261 42.9745 104.212 44.262 104.203C44.1267 105.476 38.5787 112.673 32.8278 114.985C32.7691 115.008 32.717 115.046 32.6761 115.096C32.6353 115.145 32.6069 115.204 32.5937 115.268L26.9864 142.165H26.7394C27.1209 138.202 29.5301 115.259 32.254 112.48ZM4.54058 95.8824C8.1407 97.1525 27.4379 104.942 25.3038 125.176L26.2485 139.514C25.9338 142.456 26.0098 142.164 25.9331 142.164L24.3819 125.303C24.3761 125.239 24.3556 125.179 24.3221 125.125C24.2886 125.072 24.2432 125.028 24.1896 124.997C22.2547 123.784 20.426 122.398 18.7245 120.856C18.3381 120.223 17.7896 119.714 17.1399 119.384C12.1961 114.587 6.18826 106.733 4.54058 95.8824ZM25.1039 141.449C24.4708 138.195 22.393 128.187 19.8234 122.802C21.0406 123.807 22.3165 124.733 23.6439 125.576L25.1039 141.449ZM18.7898 125.033C18.7692 124.966 18.7316 124.906 18.681 124.859C18.6304 124.813 18.5686 124.781 18.5021 124.767C18.4355 124.753 18.3666 124.758 18.3026 124.781C18.2385 124.804 18.1816 124.845 18.1377 124.898C18.0952 124.95 13.8263 130.137 10.6449 131.25C9.96387 131.514 9.26377 131.722 8.5511 131.872C9.6455 128.183 12.7144 121.068 16.2765 120.073C16.4314 120.03 16.5947 120.032 16.7485 120.079C17.2508 120.564 17.7425 121.016 18.2168 121.439C21.2446 125.919 23.9548 139.498 24.4655 142.163H24.0414L18.7898 125.033ZM30.7682 142.176L34.2467 126.806C34.5363 126.708 35.1192 126.508 35.9035 126.234L33.0429 142.169L30.7682 142.176ZM34.5431 142.176H33.815L36.7281 125.942L37.2973 125.738L34.5431 142.176ZM53.8213 110.275C55.0186 110.255 56.2096 110.091 57.3697 109.784C57.9141 109.634 58.4722 109.543 59.0349 109.512C58.8476 110.028 58.5945 110.515 58.2825 110.961C56.1133 114.886 52.8581 118.052 48.9345 120.053C44.0059 122.722 33.9123 126.098 33.8105 126.131C33.7479 126.152 33.6916 126.189 33.6471 126.239C33.6027 126.289 33.5715 126.35 33.5566 126.416L29.9907 142.17H28.9533C32.7943 124.785 32.5686 125.854 32.5603 125.758C32.5603 125.712 32.2722 121.171 40.4825 115.446C47.4973 110.555 51.1521 110.391 53.8213 110.275ZM50.4719 109.832C48.3389 110.279 46.282 111.051 44.3691 112.123C47.0747 108.883 56.2867 99.7987 64.2264 95.6688C64.3165 95.6221 64.385 95.5403 64.4167 95.4414C64.4484 95.3426 64.4408 95.2348 64.3955 95.1417C64.3503 95.0486 64.2711 94.978 64.1754 94.9452C64.0797 94.9124 63.9753 94.9203 63.8852 94.967C55.2569 99.4541 43.4936 111.169 42.8697 112.973C42.3088 113.309 41.7228 113.678 41.1118 114.082C42.1879 111.601 45.0045 105.784 49.1366 102.139C55.1741 96.8126 67.7695 91.0884 68.7743 92.1567C69.2257 93.7385 56.2229 105.978 50.4719 109.828V109.832Z" fill="black"/>
<path d="M33.8769 124.398C33.9057 124.441 33.9424 124.477 33.9848 124.504C34.0273 124.532 34.0746 124.551 34.124 124.559C34.1735 124.568 34.2241 124.567 34.273 124.555C34.3219 124.543 34.3681 124.522 34.4089 124.492C34.5426 124.394 47.9255 114.636 53.3686 112.795C53.4173 112.78 53.4626 112.755 53.5018 112.722C53.5411 112.689 53.5734 112.648 53.597 112.601C53.6206 112.555 53.6349 112.504 53.6392 112.452C53.6434 112.399 53.6374 112.347 53.6216 112.297C53.6058 112.247 53.5805 112.201 53.5472 112.161C53.5138 112.122 53.4731 112.089 53.4275 112.066C53.3819 112.043 53.3322 112.03 53.2815 112.027C53.2308 112.024 53.18 112.032 53.1322 112.049C47.5842 113.924 34.5229 123.444 33.9696 123.849C33.9284 123.878 33.8932 123.916 33.8662 123.96C33.8392 124.004 33.8209 124.052 33.8123 124.104C33.8037 124.155 33.8049 124.207 33.816 124.258C33.8271 124.308 33.8478 124.356 33.8769 124.398Z" fill="black"/>
<path d="M24.5058 124.109C24.5708 124.109 24.6346 124.091 24.6913 124.059C24.748 124.026 24.7956 123.979 24.8296 123.922C24.8636 123.864 24.8828 123.799 24.8855 123.732C24.8882 123.665 24.8741 123.598 24.8448 123.539C20.8981 115.453 10.1517 102.563 10.0438 102.434C10.0111 102.395 9.97139 102.363 9.92678 102.34C9.88217 102.317 9.83359 102.303 9.7838 102.299C9.73401 102.295 9.68399 102.302 9.6366 102.318C9.58921 102.334 9.54538 102.36 9.5076 102.393C9.46983 102.427 9.43885 102.468 9.41644 102.514C9.39403 102.56 9.38062 102.611 9.37699 102.662C9.37335 102.713 9.37956 102.765 9.39525 102.814C9.41095 102.863 9.43583 102.908 9.46846 102.947C9.57562 103.076 20.2605 115.888 24.1669 123.893C24.1985 123.958 24.2469 124.012 24.3068 124.05C24.3666 124.088 24.4355 124.108 24.5058 124.109Z" fill="black"/>
</svg>
