<svg width="153" height="157" viewBox="0 0 153 157" fill="none" xmlns="http://www.w3.org/2000/svg">
<path d="M99.3859 94.7076C98.0328 92.3609 96.8491 89.9155 95.8443 87.3912C94.531 84.2 92.4366 81.4111 89.7643 79.2948L86.7243 81.9C85.7971 80.1606 81.2903 77.4696 80.4695 77.9532C79.6487 78.4368 77.8703 82.6878 77.8703 82.6878L76.5859 82.0638C76.3267 82.4551 75.9964 82.7914 75.6131 83.0544C75.0963 83.3664 74.9747 82.9842 74.9747 82.9842C74.8946 83.3165 74.7665 83.6346 74.5947 83.928C74.1804 84.2371 73.7344 84.4986 73.2647 84.708C73.3232 85.3423 73.3053 85.9815 73.2115 86.6112C73.0519 86.9934 72.1171 87.3912 72.1171 87.3912C72.1171 87.3912 70.1335 87.2352 70.1031 87.2196L68.9251 86.8686L68.3399 86.3616L66.1055 92.7576C64.8971 96.2208 63.2859 98.9274 63.6127 102.781C63.7875 104.902 65.1327 105.323 66.9947 105.994C68.8567 106.665 70.4831 107.281 72.2615 107.819C74.069 108.178 75.9011 108.392 77.7411 108.459V106.291L80.0211 107.149L81.9211 108.225L81.6247 108.67L90.5243 109.309V108.67L92.6979 109.551C94.1115 109.73 93.2755 109.551 96.4979 110.542C96.8631 109.75 97.1385 108.918 97.3187 108.061L107.199 113.802L110.147 106.244L99.3859 94.7076ZM82.6659 98.0226C81.0641 97.3511 79.3683 96.9457 77.6423 96.8214L80.9635 92.6718L86.8003 99.7932C86.8003 99.7932 85.1435 99.0678 82.6659 98.0226Z" fill="#81F8F8"/>
<path d="M75.0587 82.8516C75.0587 82.8516 72.6343 80.2464 72.1935 80.2776C71.7527 80.3088 68.6139 82.0794 68.1579 82.8516C67.7019 83.6238 67.2307 84.513 67.4815 85.0044C67.7323 85.4958 68.4619 86.7282 68.8115 86.7984C69.1611 86.8686 70.1871 87.165 70.1871 87.165L72.1023 87.321C72.1023 87.321 73.1739 86.7906 73.2803 86.2914C73.3536 85.741 73.379 85.185 73.3563 84.63C73.8108 84.4126 74.2414 84.1459 74.6407 83.8344C74.8162 83.5243 74.9565 83.1946 75.0587 82.8516Z" fill="#FFD997"/>
<path d="M54.5382 52.4393C54.5382 52.4393 56.0202 50.8793 55.2526 50.4035C54.6823 50.0997 54.0277 50.0061 53.3982 50.1383C53.3982 50.1383 54.3862 48.3989 54.105 47.9933C53.8238 47.5877 52.775 47.4317 52.2886 47.2991C51.5223 46.9651 50.7785 46.5795 50.0618 46.1447C49.2638 45.9627 48.4849 45.7015 47.7362 45.3647C47.2301 45.911 46.9125 46.6124 46.8318 47.3615C46.8318 48.2195 47.0218 49.0541 46.6038 49.5767C46.1858 50.0993 45.3118 50.5751 45.4334 51.0275C45.555 51.4799 46.2998 51.8075 46.2998 51.8075C46.2998 51.8075 46.6494 56.8697 47.7362 57.0647C48.4732 57.1789 49.221 57.1998 49.963 57.1271L52.0302 64.0223C52.0302 64.0223 54.181 64.0223 55.3666 61.2377C56.0801 59.5658 56.6127 57.8185 56.955 56.0273C56.0292 54.9215 55.2191 53.7189 54.5382 52.4393ZM47.8958 48.6719C48.215 48.4769 49.4158 49.7795 49.4158 49.7795C47.3334 50.5127 47.5766 48.8747 47.8958 48.6719Z" fill="#FFD997"/>
<path d="M24.511 31.7538C25.3946 31.3881 26.2358 30.9224 27.019 30.3654L28.273 29.2344C28.273 29.2344 27.6878 26.5668 27.399 25.506C26.9658 23.8992 27.0874 24.258 24.815 23.5092C24.815 23.5092 24.055 22.2456 23.6066 22.3548C23.2352 22.515 22.9199 22.7869 22.7022 23.1348C22.5394 23.0088 22.345 22.933 22.1417 22.9164C21.9384 22.8999 21.7347 22.9432 21.5546 23.0412C20.9846 23.3688 20.9314 23.673 21.1214 23.9382C21.3114 24.2034 20.5362 24.453 20.4602 24.804C20.3842 25.155 20.8402 25.8024 20.8402 25.8024C20.6933 25.9354 20.5908 26.1123 20.5472 26.3082C20.5036 26.5042 20.521 26.7092 20.597 26.8944C20.8554 27.4638 23.8346 31.356 24.511 31.7538Z" fill="#FFD997"/>
<path d="M54.5387 52.4394C54.9044 53.0647 55.3107 53.664 55.7547 54.2334C55.8763 54.2334 56.9555 51.8934 57.5483 51.285C58.1411 50.6766 59.0683 50.115 58.8479 48.7812C58.4045 46.7416 57.6036 44.8017 56.4843 43.056C55.4507 41.7144 53.6647 39.195 51.9547 39.2184C51.4543 39.1892 50.9534 39.2655 50.4829 39.4426C50.0123 39.6197 49.5821 39.8938 49.2187 40.248C48.8967 40.5552 48.6247 40.9133 48.4131 41.3088C48.3756 40.8206 48.4351 40.3297 48.5879 39.8658C48.8235 39.4134 49.4163 38.3838 49.4163 38.3838C48.8732 38.4963 48.3717 38.7627 47.9687 39.1529C47.5657 39.543 47.2773 40.0413 47.1363 40.5912C46.6955 42.4788 46.5739 44.3664 47.7899 45.2712C48.4664 45.7594 49.2493 46.0701 50.0699 46.176C50.679 46.6567 51.3394 47.0649 52.0383 47.3928C52.6083 47.5488 52.9275 47.346 53.5583 47.7906C54.1891 48.2352 54.0599 48.3756 53.9003 48.8124C53.6632 49.3187 53.3941 49.8086 53.0947 50.2788C53.0947 50.2788 55.0479 49.8186 55.4735 50.4972C55.8991 51.1758 54.8123 52.4004 54.5387 52.4394Z" fill="#81F8F8"/>
<path d="M87.3478 125.05C87.3478 125.05 82.5978 132.194 84.6346 137.233C86.6714 142.272 91.923 144.901 104.873 139.745C117.824 134.589 133.563 120.065 137.189 107.344C139.332 99.8166 137.067 95.9868 133.829 94.5984C131.762 93.717 129.193 94.0212 127.461 94.3878C124.046 95.0848 120.69 96.0523 117.421 97.2816C115.263 98.1006 115.833 98.9118 115.833 98.9118L116.859 99.021L116.752 100.386C116.752 100.386 124.352 96.3378 131.04 99.9336C137.728 103.529 127.415 119.434 119.997 125.05C112.58 130.666 107.533 134.534 99.4926 136.196C91.4518 137.857 87.3326 135.814 88.161 131.032C88.528 128.495 89.2982 126.036 90.441 123.755L87.3478 125.05Z" fill="#FFD997"/>
<path d="M94.8868 124.176C94.8868 124.176 92.3408 131.547 97.7748 131.882C103.209 132.218 114.176 125.915 121.456 118.412C128.737 110.908 130.105 104.965 125.872 103.405C121.639 101.845 115.908 105.019 115.908 105.019C115.908 105.019 116.212 105.55 116.402 105.635C116.592 105.721 118.629 106.72 118.629 106.72L118.249 107.593C118.249 107.593 121.616 105.877 122.809 108.108C124.002 110.339 121.221 116.345 115.521 120.806C109.821 125.268 105.838 127.163 102.092 126.898C98.3448 126.633 100.002 122.6 100.002 122.6L94.8868 124.176Z" fill="#FFD997"/>
<path d="M108.612 116.673L113.491 119.301C113.491 119.301 108.217 122.874 105.245 122.569C102.274 122.265 105.8 117.679 105.8 117.679L108.612 116.673Z" fill="#FFD997"/>
<path d="M114.608 111.852L114 118.872C114 118.872 116.524 116.688 117.268 114.8C118.013 112.913 117.496 110.978 114.608 111.852Z" fill="#FFD997"/>
<path d="M53.5655 33.1813C53.9911 33.4933 54.6979 33.0799 55.3439 32.5963C55.7771 32.2687 56.1799 31.7773 56.6055 31.4029C63.6692 40.5507 71.2975 49.2239 79.4435 57.3691C79.4899 57.4135 79.551 57.4382 79.6145 57.4382C79.6779 57.4382 79.7391 57.4135 79.7855 57.3691C79.8075 57.3466 79.825 57.3199 79.837 57.2904C79.8489 57.261 79.8551 57.2294 79.8551 57.1975C79.8551 57.1656 79.8489 57.134 79.837 57.1046C79.825 57.0751 79.8075 57.0484 79.7855 57.0259C71.5953 48.8342 63.9287 40.1087 56.8335 30.9037C56.8116 30.8811 56.7855 30.8631 56.7568 30.8508C56.7281 30.8386 56.6974 30.8322 56.6663 30.8322C56.6352 30.8322 56.6044 30.8386 56.5757 30.8508C56.547 30.8631 56.521 30.8811 56.4991 30.9037C55.9595 31.3327 55.5339 31.8943 55.0551 32.2531C54.2495 32.8537 53.9607 32.8537 53.8771 32.8381C53.4439 31.7071 52.0303 17.7061 52.1899 16.2007C53.0791 16.1227 57.5099 17.1601 58.4067 17.3473C66.9567 19.2661 69.2519 19.9915 69.6167 20.2567C69.5635 20.6311 67.7775 21.8167 67.2151 22.3783C67.1728 22.4233 67.1492 22.4835 67.1492 22.546C67.1492 22.6085 67.1728 22.6686 67.2151 22.7137C70.2551 26.5591 69.6319 25.5919 73.1507 29.9131C80.9331 39.4525 74.3439 30.5761 92.0671 51.6361C96.9995 57.4861 98.1471 58.9291 106.689 68.2423C110.869 72.8209 110.489 72.5167 110.679 72.5167C110.725 72.5137 110.768 72.4977 110.805 72.4706C110.842 72.4435 110.871 72.4063 110.888 72.3633C110.906 72.3203 110.911 72.2732 110.904 72.2272C110.896 72.1813 110.877 72.1383 110.847 72.1033C106.195 66.9631 101.407 61.8307 96.8703 56.5345C93.2299 52.3147 82.5595 39.3745 79.3903 36.2545C76.2211 33.1345 73.5535 29.4841 70.6579 26.1145C69.6319 24.9289 68.6439 23.7043 67.7243 22.5499C68.7655 21.6685 70.3159 20.7637 70.0955 20.0383C69.8751 19.3129 64.3575 18.1507 57.8823 16.6921C52.2431 15.4129 51.9999 15.6469 51.8479 15.7951C51.6959 15.9433 51.6579 15.9823 51.8479 18.4471C52.0379 20.9119 53.0335 32.7991 53.5655 33.1813Z" fill="black"/>
<path d="M47.0751 54.1008C47.209 54.2313 47.3682 54.3315 47.5424 54.3946C47.7166 54.4578 47.9017 54.4826 48.0859 54.4674C48.8403 54.4037 49.5681 54.152 50.2062 53.7342C50.2822 53.7966 50.3886 54.1164 50.6394 53.9292C50.69 53.8903 50.7239 53.8327 50.7338 53.7686C50.7437 53.7046 50.729 53.6391 50.6926 53.586L50.2594 52.9776C50.2183 52.9369 50.1646 52.9124 50.1076 52.9083C50.0507 52.9042 49.9941 52.9209 49.9479 52.9553C49.9017 52.9897 49.8687 53.0397 49.8548 53.0965C49.8409 53.1534 49.8469 53.2134 49.8719 53.2662L49.9251 53.3364C48.0783 54.4362 47.4551 53.8122 47.4399 53.7888C47.4199 53.7642 47.3954 53.7439 47.3678 53.729C47.3402 53.7141 47.31 53.705 47.2789 53.7021C47.2479 53.6992 47.2166 53.7026 47.1868 53.7121C47.1571 53.7216 47.1294 53.7371 47.1055 53.7576C47.0815 53.7781 47.0617 53.8032 47.0472 53.8315C47.0327 53.8599 47.0238 53.8909 47.021 53.9227C47.0182 53.9546 47.0215 53.9867 47.0308 54.0173C47.04 54.0478 47.0551 54.0762 47.0751 54.1008Z" fill="black"/>
<path d="M49.2868 54.6547C48.4584 55.2319 48.1088 54.8263 48.0708 54.7795C48.0307 54.7304 47.9742 54.6984 47.9124 54.6897C47.8505 54.6811 47.7878 54.6964 47.7364 54.7327C47.6875 54.7713 47.6553 54.8281 47.6468 54.8908C47.6383 54.9535 47.6541 55.0172 47.6908 55.0681C47.7924 55.1886 47.9186 55.2846 48.0605 55.3493C48.2023 55.414 48.3563 55.4458 48.5116 55.4425C48.8859 55.4256 49.2464 55.2923 49.5452 55.0603C49.572 55.0437 49.5952 55.0216 49.6133 54.9953C49.6314 54.9691 49.6441 54.9393 49.6505 54.9079C49.6569 54.8764 49.657 54.8439 49.6506 54.8124C49.6443 54.7809 49.6316 54.7511 49.6136 54.7249C49.5966 54.6982 49.5747 54.6752 49.5491 54.6572C49.5235 54.6393 49.4947 54.6266 49.4644 54.6201C49.434 54.6136 49.4027 54.6133 49.3722 54.6192C49.3417 54.6252 49.3127 54.6372 49.2868 54.6547Z" fill="black"/>
<path d="M53.3376 51.402C53.3868 51.4009 53.4345 51.3846 53.4744 51.3552C54.0292 50.9652 54.3332 51.0744 54.4244 51.1992C54.4598 51.2518 54.514 51.2879 54.5753 51.2996C54.6365 51.3113 54.6998 51.2976 54.7512 51.2616C54.778 51.245 54.8012 51.2229 54.8194 51.1967C54.8375 51.1704 54.8502 51.1407 54.8566 51.1092C54.863 51.0777 54.863 51.0452 54.8567 51.0137C54.8503 50.9823 54.8377 50.9525 54.8196 50.9262C54.7016 50.7593 54.524 50.6471 54.3256 50.6142C54.1253 50.5921 53.9227 50.611 53.7296 50.6699C53.5365 50.7288 53.3568 50.8265 53.2008 50.9574C53.1575 50.9862 53.1246 51.0287 53.1072 51.0786C53.0897 51.1284 53.0887 51.1827 53.1042 51.2332C53.1197 51.2837 53.151 51.3275 53.1931 51.358C53.2353 51.3885 53.2861 51.404 53.3376 51.402Z" fill="black"/>
<path d="M50.4345 48.7813C50.4489 48.7818 50.4631 48.7777 50.4751 48.7696C50.487 48.7614 50.4962 48.7496 50.5013 48.7358C50.5063 48.7219 50.507 48.7068 50.5032 48.6926C50.4994 48.6784 50.4913 48.6657 50.4801 48.6565C49.7557 48.2228 49.1144 47.6572 48.5877 46.9873C47.9493 46.0357 47.5161 48.0715 50.4345 48.7813Z" fill="black"/>
<path d="M47.9265 48.8439C47.9894 48.8325 48.0537 48.8325 48.1165 48.8439C47.7973 49.1637 47.8961 49.9047 48.2533 49.9281C48.6105 49.9515 48.6865 49.5459 48.6637 49.2261C48.8516 49.4035 49.0222 49.5995 49.1729 49.8111C49.2102 49.8628 49.266 49.8972 49.328 49.9067C49.39 49.9162 49.4531 49.9 49.5035 49.8618C49.5539 49.8235 49.5874 49.7662 49.5967 49.7026C49.606 49.639 49.5902 49.5742 49.5529 49.5225C48.4889 48.0249 47.5541 48.2043 47.6453 48.6411C47.6498 48.6738 47.6609 48.7052 47.6777 48.7334C47.6945 48.7616 47.7168 48.786 47.7431 48.805C47.7695 48.824 47.7994 48.8372 47.8309 48.8439C47.8624 48.8506 47.895 48.8506 47.9265 48.8439Z" fill="black"/>
<path d="M62.3059 112.57C62.1463 112.523 61.9715 112.812 62.1387 112.983C63.4383 114.317 66.5163 117.429 66.9571 117.562C67.5271 117.733 73.9643 113.818 74.0859 113.365C74.0934 113.326 74.0933 113.286 74.0854 113.248C74.0776 113.209 74.0623 113.172 74.0403 113.139C73.9947 113.03 73.7439 112.734 62.3059 112.57ZM67.0711 117.078C66.6987 116.852 64.7379 114.941 62.8911 113.061C66.5847 113.124 71.8439 113.256 73.3487 113.428C72.1175 114.309 67.7399 116.953 67.0711 117.078Z" fill="black"/>
<path d="M65.8322 122.405C65.3382 122.639 64.6618 125.853 64.6238 126.344C64.5858 126.836 64.7606 126.844 65.057 126.758C65.6726 126.571 70.377 124.355 70.5746 123.786C70.6037 123.72 70.6105 123.646 70.594 123.575C70.5775 123.504 70.5386 123.441 70.4834 123.396C69.9742 122.889 66.273 122.195 65.8322 122.405ZM65.0722 126.227C65.2664 125.065 65.5824 123.927 66.0146 122.834C67.3863 122.899 68.7422 123.162 70.0426 123.614C68.4622 124.607 66.8138 125.48 65.1102 126.227H65.0722Z" fill="black"/>
<path d="M106.188 73.5464C104.854 73.6423 103.543 73.9556 102.305 74.4746C101.91 74.7944 101.925 77.6804 102.122 78.2576C102.206 78.5072 102.343 78.5618 102.449 78.5618C102.974 78.5618 105.869 74.8724 106.249 74.2484C106.409 73.9988 106.477 73.8428 106.409 73.6946C106.385 73.6549 106.353 73.621 106.315 73.5954C106.277 73.5698 106.233 73.5531 106.188 73.5464ZM102.533 78.0002C102.403 76.9628 102.424 75.9114 102.594 74.8802C103.649 74.4797 104.742 74.1896 105.854 74.0144C104.848 75.4287 103.738 76.7612 102.533 78.0002Z" fill="black"/>
<path d="M110.558 78.0079C110.71 78.6553 114.738 83.9749 116.213 84.8641C116.294 84.925 116.386 84.9688 116.484 84.9929C116.582 85.017 116.683 85.021 116.783 85.0045C117.041 84.9343 117.641 84.7627 116.608 76.8691C115.848 71.1829 115.65 71.1829 115.445 71.1829C115.24 71.1829 115.179 71.1829 113.515 73.3591C112.101 75.2077 110.475 77.5165 110.558 78.0079ZM115.339 71.8459C115.772 73.7335 117.132 83.5459 116.623 84.5287C115.734 84.3961 111.235 78.6085 111.022 77.9221C111.067 77.3683 114.351 72.9145 115.339 71.8459Z" fill="black"/>
<path d="M147.859 101.252L143.762 95.3317C140.859 88.8109 131.602 89.0215 124.762 91.4941C125.342 90.0629 125.809 88.5866 126.161 87.0793C126.161 86.9935 126.161 86.7517 126.001 86.6503C125.522 86.4241 120.028 87.6409 119.23 88.1557C119.17 88.1873 119.119 88.2339 119.082 88.2912C119.045 88.3486 119.022 88.4147 119.017 88.4833C119.017 88.9279 120.856 91.0261 122.14 92.3287C119.221 93.3423 116.372 94.5593 113.613 95.9713C114.761 86.4865 114.632 86.3305 114.556 86.2447C114.533 86.2179 114.505 86.1964 114.473 86.1816C114.442 86.1668 114.408 86.1591 114.373 86.1589C114.297 86.1589 107.594 89.4583 106.37 90.4801C106.333 90.4789 106.295 90.4867 106.261 90.503C106.227 90.5192 106.196 90.5434 106.173 90.5737C105.892 90.9325 105.268 91.8217 105.55 92.2975C105.679 92.5159 107.51 95.7763 109.122 98.6311L107.67 99.6919C107.503 99.8245 107.503 99.9571 107.571 100.066C110.923 103.748 110.687 103.537 110.832 103.537C110.976 103.537 111.303 103.467 115.794 102.757C115.384 104.497 115.354 104.505 115.414 104.622C115.946 105.604 115.939 105.62 116.03 105.667L118.234 106.759L114.974 110.659C115.232 107.843 115.437 105.292 115.369 105.027C115.3 104.762 115.171 104.622 114.305 104.247C113.438 103.873 111.516 103.296 111.006 103.608C110.61 104.168 110.298 104.786 110.079 105.441L99.6064 94.8403C98.3227 91.7143 96.8636 88.6671 95.2364 85.7143C92.7664 81.1981 90.7372 79.5757 89.9772 79.0843L90.4332 78.6709C91.2614 79.18 91.9822 79.8536 92.5536 80.6521C92.5915 80.704 92.6476 80.7388 92.71 80.749C92.7725 80.7592 92.8363 80.744 92.888 80.7067C94.3244 79.6225 97.8204 76.7443 96.574 75.4339C94.1883 72.0792 90.9415 69.4706 87.1956 67.8991C88.1532 64.2019 85.0752 60.7621 81.716 59.1319C77.0504 57.021 72.2035 55.3602 67.238 54.1711C67.0932 53.8132 66.9015 53.4773 66.668 53.1727C65.528 51.4723 64.1372 53.0635 63.0656 50.7079C62.4652 49.3897 60.0256 49.8343 58.764 50.1931C59.4252 49.1791 59.1364 48.1183 58.4904 46.8859C57.7304 45.4585 55.6404 39.1717 51.6504 38.8675C51.6414 38.8194 51.6174 38.7756 51.582 38.7427C51.5212 38.6803 45.2436 32.3701 39.5208 25.9585C34.2008 20.0071 29.5192 14.0323 29.3216 13.6189C29.124 13.2055 30.7048 12.3865 31.4496 11.9575C32.7416 11.1775 33.4104 10.7953 33.2888 10.3273C33.2628 10.2618 33.2225 10.2032 33.1712 10.1559C33.1199 10.1086 33.0587 10.0739 32.9924 10.0543C30.7884 9.04033 5.02442 3.62713 4.27202 4.01713C3.51962 4.40713 6.10362 26.2315 6.88642 30.7711C7.35002 33.4231 7.53242 33.4465 7.73762 33.4777C8.65722 33.6103 10.5572 31.0597 11.2868 30.3577C12.1912 31.0597 18.788 37.5571 36.1084 58.7107C54.7284 81.4399 65.5356 92.6173 65.6724 92.7499C64.8516 94.9729 63.6052 97.4767 63.2252 99.9649C58.3004 93.1945 52.76 88.5145 45.1144 78.3745C45.8288 77.8831 47.1512 77.3215 47.098 76.8145C47.098 76.6195 46.9384 76.5259 46.0948 76.2841C44.5748 75.8629 33.3876 73.3201 32.8252 74.0845C32.2628 74.8489 33.1368 85.1995 33.4864 87.2275C33.5776 87.7579 33.646 87.8827 33.7524 87.9529C34.3452 88.3429 35.5384 86.6815 36.2452 86.1199C37.2788 87.1495 45.0992 96.5485 50.1 103.179C55.42 110.199 65.642 120.479 65.7484 120.588C65.7703 120.611 65.7964 120.629 65.8251 120.641C65.8538 120.653 65.8845 120.66 65.9156 120.66C65.9467 120.66 65.9775 120.653 66.0062 120.641C66.0349 120.629 66.0609 120.611 66.0828 120.588C66.1049 120.566 66.1224 120.539 66.1343 120.509C66.1463 120.48 66.1524 120.448 66.1524 120.417C66.1524 120.385 66.1463 120.353 66.1343 120.324C66.1224 120.294 66.1049 120.267 66.0828 120.245C65.984 120.144 55.762 109.871 50.4876 102.882C47.174 98.4985 43.1232 93.5221 41.5348 91.6033C36.5264 85.5193 36.382 85.5583 36.2148 85.6051C35.812 85.7221 34.4592 87.3757 34.0488 87.5395C33.646 86.3695 32.9468 75.3637 33.2052 74.4199C34.2008 74.1859 44.9092 76.2217 46.5508 76.9315C46.213 77.1867 45.8574 77.4161 45.4868 77.6179C44.818 78.0157 44.6204 78.1327 44.5824 78.3277C44.5444 78.5227 44.666 78.5851 44.7496 78.6865C46.1632 80.5741 49.9936 85.5349 54.8956 90.8701C57.8657 94.0035 60.6353 97.3306 63.1872 100.831C63.1242 101.535 63.1652 102.245 63.3088 102.937C63.818 105.277 65.3684 105.776 67.1544 106.338C67.9144 106.564 68.0588 106.618 69.4876 107.118C73.1432 108.444 73.6144 108.444 77.346 108.678C77.3674 109.924 77.4537 111.169 77.6044 112.406C77.6044 112.562 77.6728 112.718 77.8248 112.773C77.9768 112.827 78.1136 112.734 78.2428 112.64C79.5955 111.526 80.8424 110.283 81.9668 108.927C88.8068 109.294 89.5668 109.481 90.3268 109.536C90.608 110.885 91.71 113.872 94.18 120.947C94.4021 121.219 94.6575 121.46 94.94 121.665C94.9811 121.698 95.0318 121.717 95.0844 121.719C95.3746 121.66 95.6508 121.543 95.8976 121.376C96.9996 120.791 105.018 115.971 105.018 115.198C104.987 114.783 104.827 114.389 104.562 114.075C103.976 113.743 103.363 113.463 102.73 113.241L102.198 111.166L106.978 113.982L106.933 114.114C106.735 114.379 106.234 115.113 106.393 115.588C106.852 116.021 107.386 116.362 107.966 116.595L101.544 118.693C101.499 118.708 101.46 118.738 101.432 118.777C101.403 118.816 101.387 118.862 101.385 118.911L101.18 121.953L93.6328 124.293L92.3028 122.952C92.2697 122.92 92.2289 122.898 92.1847 122.889C92.1406 122.879 92.0947 122.882 92.052 122.897L91.5732 123.076L93.1464 119.527C93.1682 119.48 93.174 119.427 93.163 119.376C93.152 119.325 93.1248 119.28 93.0856 119.247C89.9468 116.322 90.0456 116.345 89.8708 116.431C89.7948 116.431 89.7492 116.517 87.5908 118.17C86.352 117.765 76.5632 114.754 76.0996 114.894C75.9172 114.949 75.902 115.159 75.8944 115.23C76.2027 118.363 76.7259 121.47 77.46 124.527C77.5892 124.847 77.9388 125.604 78.3948 125.604C78.4328 125.604 81.07 124.48 83.806 123.264C82.1112 126.04 75.5752 137.686 81.07 143.856C82.6356 146.196 85.3792 150.096 86.808 151.57C87.34 152.108 89.3996 152.677 92.5992 152.677C100.427 152.677 115.065 149.277 130.835 133.723C152.73 112.117 148.087 101.712 147.859 101.252ZM119.526 88.5145C121.534 87.8229 123.604 87.3344 125.705 87.0559C125.327 88.657 124.819 90.2226 124.185 91.7359C124.152 91.772 124.133 91.8192 124.132 91.8685C123.987 92.2482 123.809 92.6137 123.6 92.9605C122.086 91.6376 120.72 90.1465 119.526 88.5145ZM87.606 125.019L89.9392 124.168C89.1336 125.775 87.0436 130.408 88.138 133.638C89.0576 136.344 91.938 136.921 94.674 136.921C102.494 136.921 116.296 131.617 127.21 117.421C134.589 107.835 134.05 103.069 132.271 100.761C129.497 97.1413 122.391 97.5079 116.934 99.9805L117.178 98.9431C117.185 98.9074 117.186 98.8703 117.178 98.8345C117.17 98.7988 117.155 98.7652 117.133 98.7362C117.111 98.7071 117.084 98.6834 117.052 98.6666C117.02 98.6498 116.985 98.6403 116.95 98.6389H115.977L115.893 98.2177C119.951 96.234 124.288 94.9179 128.745 94.3177C132.454 93.7639 135.273 94.8871 136.702 97.4923C138.936 101.556 137.736 109.972 130.014 119.582C118.523 133.887 104.174 141.235 94.978 142.202C85.782 143.169 80.6748 136.297 87.6212 125.05L87.606 125.019ZM114.145 86.7127C114.062 88.2727 113.172 95.7217 112.496 101.112C110.216 97.0711 107.039 91.5097 106.682 90.7531C107.472 90.2071 112.914 87.3211 114.16 86.7439L114.145 86.7127ZM106.348 91.1041C106.75 91.8841 108.065 94.3255 112.344 101.814C111.865 102.297 112.01 102.188 111.759 102.321C110.748 100.519 106.165 92.3677 105.96 92.0167C105.914 91.9543 106.082 91.5643 106.363 91.1353L106.348 91.1041ZM109.388 99.0211C109.912 99.9649 110.406 100.831 110.786 101.509C110.71 101.572 110.786 101.548 110.634 101.587L108.194 99.9181L109.388 99.0211ZM116.342 105.261L116.25 105.105C117.55 104.505 124.056 101.704 127.073 104.325C127.396 104.627 127.648 105.002 127.807 105.42C127.967 105.838 128.03 106.288 127.992 106.735C127.878 110.916 122.551 117.983 115.027 123.895C109.365 128.373 99.2112 133.427 95.6848 130.915C94.2636 129.886 94.0584 127.671 95.092 124.317L99.5988 122.928C98.6792 125.268 99.5988 127.132 102.92 127.132C111.82 127.132 126.161 112.617 122.946 107.82C122.186 106.735 120.666 106.494 118.561 107.125L118.819 106.806C118.843 106.777 118.859 106.744 118.868 106.708C118.877 106.673 118.878 106.635 118.871 106.599C118.863 106.563 118.848 106.529 118.826 106.5C118.804 106.471 118.776 106.447 118.743 106.431L116.342 105.261ZM114.92 112C117.892 111.158 119.047 114.099 114.244 118.365C114.335 117.999 114.86 112.281 114.89 112.008L114.92 112ZM111.272 104.115C111.728 103.912 114.7 104.832 114.928 105.23C114.996 105.714 114.335 112.858 113.841 117.78L107.434 114.06C108.719 110.355 110.854 104.551 111.272 104.115ZM92.812 80.2621C92.2563 79.5406 91.5856 78.9209 90.8284 78.4291C91.7981 77.5443 92.8641 76.7774 94.0052 76.1437C95.2212 75.5353 96.0952 75.5821 96.2852 75.9331C96.4752 76.2841 96.0952 77.7193 92.812 80.2309V80.2621ZM95.7608 75.1999C93.1996 75.0517 88.7308 79.5913 86.7852 81.6817C85.3363 79.6787 83.2216 78.291 80.842 77.7817C84.9764 71.5885 86.4508 70.2157 87.0664 68.4217C90.4861 69.8579 93.4826 72.1832 95.7608 75.1687V75.1999ZM62.6476 51.0199C63.8104 53.5705 65.3608 52.1509 66.2956 53.5549C66.9644 54.5533 66.7516 54.3349 66.8124 54.5377C66.7288 54.7873 65.5812 55.0915 63.8408 55.9729C62.4811 56.6614 61.294 57.6619 60.3715 58.8968C59.4489 60.1317 58.8157 61.5679 58.5208 63.0943C58.346 62.8213 58.2548 62.6575 58.2472 62.6497C58.2168 62.594 58.1662 62.553 58.1064 62.5354C58.0466 62.5179 57.9825 62.5253 57.928 62.5561C57.9004 62.5708 57.876 62.5911 57.8563 62.6158C57.8366 62.6405 57.822 62.669 57.8135 62.6997C57.8049 62.7304 57.8026 62.7625 57.8066 62.7942C57.8106 62.8258 57.8209 62.8563 57.8368 62.8837C58.0027 63.1872 58.188 63.4791 58.3916 63.7573C58.2647 64.4777 58.2087 65.2094 58.2244 65.9413C58.2345 65.999 58.264 66.0512 58.3077 66.0888C58.3515 66.1264 58.4067 66.147 58.4638 66.147C58.5209 66.147 58.5761 66.1264 58.6199 66.0888C58.6637 66.0512 58.6932 65.999 58.7032 65.9413C58.6844 65.3781 58.7149 64.8142 58.7944 64.2565C60.5431 66.5473 62.9283 68.2392 65.6344 69.1081C65.7312 69.3449 65.8853 69.5523 66.0822 69.7106C66.2791 69.869 66.5121 69.9731 66.7592 70.0129C66.8096 70.0227 66.8617 70.016 66.9081 69.9935C66.9546 69.9711 66.9929 69.9342 67.0176 69.8881L67.352 69.2407C67.3679 69.2079 67.3765 69.1718 67.3772 69.1352C67.378 69.0985 67.3708 69.0621 67.3563 69.0286C67.3418 68.9951 67.3203 68.9653 67.2933 68.9413C67.2662 68.9173 67.2344 68.8997 67.2 68.8897C66.7758 68.7583 66.3359 68.6874 65.8928 68.6791C63.0918 67.8044 60.6434 66.0197 58.916 63.5935C59.1522 62.0554 59.743 60.5974 60.6393 59.3411C61.5356 58.0847 62.7114 57.0663 64.0688 56.3707C66.098 55.3411 67.01 55.2319 67.2456 54.7327C72.1459 55.9178 76.929 57.5654 81.5336 59.6545C83.5856 60.6607 86.0328 62.6497 86.7244 65.2315C86.9279 65.9763 86.9652 66.7585 86.8337 67.5202C86.7021 68.2818 86.405 69.0032 85.9644 69.6307C84.6876 71.5963 78.4328 79.8487 77.6728 82.3681C76.7912 81.9625 73.8272 80.4961 72.5124 78.3823C73.8348 76.6741 74.6024 74.6617 75.6968 72.4075C76.6696 70.4185 77.5056 68.7025 77.3384 67.0723C77.3314 67.0082 77.2998 66.9496 77.2506 66.9093C77.2014 66.8691 77.1387 66.8506 77.0762 66.8578C77.0137 66.8651 76.9566 66.8975 76.9174 66.948C76.8782 66.9984 76.8602 67.0628 76.8672 67.1269C76.8787 67.3087 76.8787 67.4911 76.8672 67.6729C75.6512 67.6729 69.4344 67.6729 66.7516 65.0209C63.8788 62.1817 63.5292 58.7809 66.7516 56.2381C66.7998 56.197 66.8307 56.1383 66.8378 56.0744C66.8449 56.0104 66.8276 55.9461 66.7896 55.8949C66.752 55.8448 66.6966 55.8118 66.6355 55.803C66.5744 55.7943 66.5124 55.8105 66.4628 55.8481C63.3012 58.3363 63.0732 62.0413 66.4628 65.3719C68.796 67.7119 73.66 68.2267 76.852 68.1643C76.5395 69.5749 76.0274 70.9308 75.332 72.1891C74.572 73.6789 74.1616 74.7631 73.698 75.6445C63.818 73.6633 58.8096 70.8085 57.9432 66.6667C57.0768 62.5249 58.156 60.4813 59.3036 58.3675C60.1776 56.8075 61.5836 54.2179 60.4512 52.8451C59.6912 51.9559 58.1712 51.9091 57.4112 51.9559C57.6534 51.5974 57.931 51.2654 58.2396 50.9653C59.2884 50.5597 62.1384 49.8577 62.6476 50.9809V51.0199ZM71.8968 85.7845C71.8676 85.8414 71.8616 85.9079 71.8801 85.9693C71.8986 86.0308 71.9402 86.0821 71.9956 86.1121C72.0511 86.1421 72.1158 86.1483 72.1757 86.1293C72.2355 86.1103 72.2856 86.0676 72.3148 86.0107C72.5168 85.6515 72.7734 85.3276 73.0748 85.0513V85.7143C73.0876 85.8935 73.0876 86.0734 73.0748 86.2525C72.9532 86.5099 72.1628 87.2197 71.9728 87.1417C71.6571 86.3993 71.462 85.6089 71.3952 84.8017C71.3862 84.7376 71.3526 84.6798 71.302 84.641C71.2514 84.6023 71.1879 84.5857 71.1254 84.595C71.0629 84.6043 71.0066 84.6387 70.9688 84.6907C70.9311 84.7426 70.9149 84.8078 70.924 84.8719C71.0164 85.6086 71.1767 86.3347 71.4028 87.0403C71.2848 87.0637 71.1636 87.0637 71.0456 87.0403C70.5268 86.3833 70.0807 85.6691 69.7156 84.9109C69.7011 84.853 69.6663 84.8027 69.6178 84.7696C69.5693 84.7366 69.5106 84.7231 69.453 84.7318C69.3954 84.7405 69.343 84.7708 69.3059 84.8169C69.2688 84.8629 69.2496 84.9214 69.252 84.9811C69.54 85.6468 69.8913 86.2817 70.3008 86.8765C70.1484 86.9134 69.9897 86.9134 69.8372 86.8765C69.3663 86.2872 68.9563 85.6494 68.6136 84.9733C68.5775 84.9273 68.5266 84.8959 68.4701 84.8847C68.4135 84.8736 68.3549 84.8834 68.3048 84.9124C68.2546 84.9414 68.2161 84.9878 68.1961 85.0432C68.1761 85.0987 68.1759 85.1596 68.1956 85.2151C68.4008 85.5817 68.6896 86.0809 68.9556 86.5099C68.5148 86.4163 67.6104 84.6145 67.5724 84.4507C68.0603 83.3034 68.9048 82.3544 69.974 81.7519C70.7708 81.4079 71.5342 80.9874 72.254 80.4961C73.1915 81.0947 74.0347 81.8364 74.7544 82.6957C74.7215 82.7379 74.7029 82.7899 74.7012 82.8439C74.6921 83.1259 74.598 83.3981 74.432 83.623C74.2659 83.8479 74.0361 84.0144 73.774 84.0997C72.9632 84.3975 72.2924 84.9995 71.8968 85.7845ZM25.0504 31.9645C25.248 31.5979 26.122 31.3483 27.2696 30.4435C27.9612 29.8975 28.2728 29.3983 28.5008 29.4139C28.7288 29.4295 29.0936 29.9755 29.2608 30.1939C27.9943 30.9891 26.8708 32.0023 25.9396 33.1891C25.3544 32.6665 24.9972 32.1283 25.0504 31.9957V31.9645ZM21.3112 23.7745C21.3112 23.5951 21.9572 23.0491 22.2384 23.1037C22.6752 23.4577 23.0416 23.8947 23.3176 24.3907C23.0744 24.7339 22.8084 25.1239 22.6032 25.3735C22.1393 24.8698 21.7077 24.3357 21.3112 23.7745ZM23.5912 23.9617C23.4217 23.6846 23.2284 23.4236 23.0136 23.1817C23.1795 22.9235 23.4304 22.7352 23.7204 22.6513C23.8344 22.6513 24.108 22.9399 24.3664 23.3143C24.2448 23.3028 24.1227 23.33 24.0168 23.3923C23.8681 23.57 23.731 23.7576 23.6064 23.9539L23.5912 23.9617ZM22.3144 25.7479C22.1396 26.1925 22.6564 26.5981 23.2036 26.6059C23.6216 27.1129 24.2068 28.0021 23.5608 28.0021C23.1048 27.9397 20.7792 25.4047 20.7336 24.9367C20.7716 24.7183 21.0148 24.5389 21.1972 24.4375C21.5544 24.9289 22.1548 25.5763 22.3144 25.7479ZM23.7432 26.5279C23.907 26.4708 24.0628 26.3922 24.2068 26.2939C23.994 27.4015 24.4424 27.4405 23.7356 26.5201L23.7432 26.5279ZM20.9084 26.1145C21.5089 26.87 22.181 27.5624 22.9148 28.1815C22.9275 28.2577 22.9159 28.3361 22.8816 28.405C22.8474 28.4739 22.7924 28.5295 22.7248 28.5637C22.4436 28.7665 21.9116 28.2595 21.7672 28.1035C20.9236 26.8945 20.4448 26.5981 20.9084 26.1145ZM23.3708 28.4545C23.4734 28.482 23.5804 28.4871 23.6851 28.4696C23.7897 28.4521 23.8896 28.4123 23.9784 28.3528C24.0671 28.2933 24.1427 28.2154 24.2004 28.1241C24.2581 28.0328 24.2965 27.9302 24.3132 27.8227C24.4381 28.0938 24.6214 28.3322 24.8491 28.52C25.0769 28.7078 25.3432 28.8401 25.628 28.9069C25.658 28.9156 25.6893 28.9182 25.7202 28.9145C25.7511 28.9108 25.781 28.9008 25.8082 28.8853C25.8353 28.8697 25.8592 28.8488 25.8785 28.8237C25.8978 28.7987 25.9121 28.77 25.9206 28.7392C25.9291 28.7085 25.9316 28.6764 25.928 28.6446C25.9244 28.6129 25.9147 28.5822 25.8995 28.5543C25.8843 28.5265 25.864 28.5019 25.8396 28.4821C25.8151 28.4623 25.7872 28.4476 25.7572 28.4389C25.5454 28.39 25.3463 28.295 25.1733 28.1605C25.0002 28.026 24.8573 27.8549 24.754 27.6589C24.555 27.0005 24.5983 26.29 24.8756 25.6621L25.0048 25.4905C25.0242 25.4651 25.0384 25.4359 25.0466 25.4048C25.0548 25.3736 25.0568 25.341 25.0526 25.3091C25.0483 25.2771 25.0379 25.2463 25.0218 25.2185C25.0058 25.1907 24.9845 25.1665 24.9592 25.1473C24.9075 25.11 24.8437 25.0949 24.7812 25.1051C24.7188 25.1153 24.6627 25.15 24.6248 25.2019C23.8648 26.2471 23.2112 26.1613 23.0212 26.1145C22.9144 26.0891 22.8184 26.0289 22.7476 25.9429C23.1732 25.5373 24.0396 24.1489 24.3208 23.7979C25.0989 23.9055 25.8633 24.099 26.6008 24.3751C26.9352 24.5077 27.0264 24.5467 27.3152 26.5201C27.4155 27.4345 27.6407 28.3299 27.984 29.1799C27.7712 29.3515 27.4064 29.7649 26.9808 30.1081C25.894 30.9583 25.1948 31.1377 24.7996 31.5589C23.8958 30.8533 23.0903 30.024 22.4056 29.0941C22.6151 29.1287 22.8296 29.0825 23.0078 28.9644C23.186 28.8463 23.3153 28.6647 23.3708 28.4545ZM31.1152 29.9287C33.4552 33.3517 36.1654 36.4918 39.194 39.2887C41.7096 41.7145 44.3544 44.3275 46.6344 46.9405C46.5526 47.3245 46.527 47.7188 46.5584 48.1105C46.5584 49.3039 46.4292 49.5613 45.7072 50.1619C45.3728 50.4427 45.0232 50.7313 45.1904 51.1213C45.3988 51.4385 45.6916 51.6876 46.034 51.8389C46.034 52.6189 46.034 55.7389 47.1892 56.9947C47.7668 57.6187 48.9828 57.5641 49.8036 57.4081C49.8036 57.4861 51.3616 61.8853 51.7264 63.7885C51.6768 63.7789 51.6258 63.7809 51.5771 63.7944C51.5284 63.808 51.4833 63.8326 51.4452 63.8665C51.4226 63.893 51.4056 63.924 51.3951 63.9576C51.3847 63.9911 51.381 64.0265 51.3844 64.0615C51.3844 64.0615 51.4604 64.6387 51.6352 65.5357C49.4464 63.2581 40.942 54.4285 37.7956 49.9981C34.3376 45.1153 26.3956 35.9581 25.5444 35.0221C25.7724 33.3139 29.276 30.2329 31.1152 29.9287ZM47.782 45.6145C48.4274 46.1447 49.2358 46.4213 50.062 46.3945C50.0965 46.4064 50.1339 46.4064 50.1684 46.3945C50.5239 46.7877 50.9558 47.0999 51.4363 47.3109C51.9168 47.5218 52.4351 47.6268 52.9576 47.6191C53.3061 47.755 53.6337 47.9415 53.9304 48.1729C54.0976 48.3835 53.5048 49.3819 52.6916 50.2633C52.6572 50.3044 52.6373 50.356 52.6349 50.4101C52.6325 50.4642 52.6479 50.5175 52.6786 50.5615C52.7092 50.6055 52.7534 50.6377 52.804 50.653C52.8545 50.6682 52.9087 50.6656 52.9576 50.6455C53.3832 50.4505 54.5764 50.0449 55.0932 50.5987C55.61 51.1525 54.9412 51.9169 54.4092 52.2601C54.1224 52.4462 53.7762 52.5106 53.444 52.4395C53.3825 52.4282 53.3192 52.4423 53.2679 52.4789C53.2166 52.5155 53.1815 52.5714 53.1704 52.6345C53.1626 52.6654 53.1613 52.6976 53.1664 52.729C53.1716 52.7604 53.1831 52.7903 53.2004 52.8168C53.2176 52.8433 53.2401 52.8658 53.2663 52.8828C53.2926 52.8998 53.3221 52.9109 53.3528 52.9153C53.7269 52.9957 54.1163 52.9492 54.4624 52.7827C55.0224 53.988 55.741 55.1087 56.598 56.1133C56.4916 56.9635 55.5948 63.2113 52.228 63.7729C51.6957 61.5876 51.0539 59.432 50.3052 57.3145C51.8252 56.9245 54.1508 55.7545 53.8392 54.1945C53.8327 54.1633 53.8203 54.1337 53.8027 54.1073C53.785 54.081 53.7625 54.0585 53.7364 54.0412C53.7103 54.0238 53.6811 54.0118 53.6505 54.006C53.6199 54.0002 53.5885 54.0007 53.558 54.0073C53.5276 54.014 53.4987 54.0267 53.4731 54.0448C53.4474 54.0629 53.4255 54.0861 53.4086 54.1129C53.3916 54.1397 53.38 54.1696 53.3744 54.201C53.3687 54.2324 53.3691 54.2647 53.3756 54.2959C53.7252 56.0275 48.6408 57.8059 47.5616 56.6359C46.6344 55.6453 46.5432 53.0011 46.5356 52.0339C46.5961 52.0515 46.6609 52.0437 46.7158 52.0123C46.7706 51.9808 46.8111 51.9283 46.8282 51.8662C46.8454 51.8042 46.8378 51.7377 46.8071 51.6813C46.7765 51.625 46.7253 51.5835 46.6648 51.5659C46.4292 51.4723 45.7604 51.1369 45.654 50.9029C45.654 50.6923 46.4824 50.3023 46.8168 49.6627C47.1512 49.0231 47.022 48.2041 47.0676 47.3227C47.1973 46.7117 47.4398 46.1319 47.782 45.6145ZM56.9932 52.4941C57.4568 52.4395 59.2732 52.2913 60.0332 53.1805C60.6184 53.8825 60.2992 54.9355 59.98 55.7935C58.9765 55.5886 57.9435 55.5886 56.94 55.7935L55.9292 54.4519C56.2438 53.7646 56.5991 53.0978 56.9932 52.4551V52.4941ZM51.9544 64.2721C55.9368 64.0693 56.9476 57.3925 57.092 56.2147C57.9888 56.0442 58.9084 56.0442 59.8052 56.2147C58.5284 59.1787 56.2788 61.1599 57.4416 66.7447C58.346 71.0815 63.4228 74.0455 73.4016 76.1047C72.1856 78.3199 71.8816 78.1951 72.0184 78.4915C72.1172 78.6631 72.2236 78.8269 72.3376 78.9907C72.102 79.2793 71.6536 79.8721 71.8208 80.2153C71.1718 80.6466 70.4878 81.0198 69.7764 81.3307C68.8412 81.8454 68.0547 82.6041 67.4964 83.5303C65.0416 81.1903 63.3924 81.7831 58.2016 77.4151C53.4744 73.4215 52.152 65.7931 51.9544 64.2721ZM72.254 79.9345C72.3592 79.7209 72.4866 79.5195 72.634 79.3339C73.6574 80.4815 74.8722 81.4324 76.2212 82.1419C76.1403 82.3049 76.0278 82.4492 75.8905 82.5659C75.7533 82.6825 75.5943 82.7692 75.4232 82.8205C74.8152 81.6427 73.2344 80.5975 72.254 79.9345ZM58.0952 47.1745C58.8096 48.5395 59.0072 49.5145 57.8976 50.5363C56.9644 51.5221 56.1943 52.6577 55.6176 53.8981L54.8576 52.5409C55.496 51.8701 56.0356 50.9029 55.4048 50.2009C55.155 49.9879 54.856 49.8444 54.5366 49.7843C54.2171 49.7242 53.888 49.7495 53.5808 49.8577C54.0976 49.1869 54.6448 48.2977 54.2648 47.7985C53.7252 47.1199 52.2736 47.3461 51.6656 45.0997C51.6485 45.0377 51.608 44.9851 51.5532 44.9537C51.4983 44.9222 51.4335 44.9144 51.373 44.932C51.3126 44.9496 51.2614 44.9911 51.2307 45.0474C51.2001 45.1038 51.1925 45.1703 51.2096 45.2323C51.3657 45.8931 51.6911 46.499 52.152 46.9873C51.6713 46.8738 51.2216 46.6509 50.8361 46.3349C50.4507 46.019 50.1394 45.6182 49.9252 45.1621C49.6278 44.6434 49.4598 44.0573 49.4359 43.4559C49.412 42.8545 49.5331 42.2564 49.7884 41.7145C49.8051 41.6874 49.8164 41.6572 49.8216 41.6256C49.8268 41.5941 49.8258 41.5617 49.8188 41.5305C49.8117 41.4993 49.7987 41.4699 49.7804 41.4439C49.7621 41.4179 49.739 41.3959 49.7124 41.3791C49.6586 41.3466 49.5947 41.3365 49.5338 41.351C49.473 41.3655 49.4199 41.4035 49.3856 41.4571C49.0833 42.0758 48.9386 42.763 48.9652 43.4545C48.9918 44.1461 49.1887 44.8195 49.5376 45.4117C49.6147 45.5728 49.701 45.7291 49.796 45.8797C48.504 45.7783 47.0904 45.0217 47.0752 42.1981C47.0564 41.5413 47.211 40.8914 47.5228 40.3174C47.8345 39.7435 48.2918 39.2667 48.846 38.9377C48.5342 39.337 48.3058 39.7979 48.175 40.2918C48.0443 40.7856 48.014 41.3018 48.086 41.8081C48.0992 41.8599 48.1287 41.9058 48.1699 41.9385C48.2112 41.9712 48.2619 41.989 48.314 41.989C48.3662 41.989 48.4168 41.9712 48.4581 41.9385C48.4994 41.9058 48.5289 41.8599 48.542 41.8081C48.5876 41.6755 49.682 38.6335 52.4104 39.5305C55.6784 40.6537 57.3808 45.8329 58.0952 47.1745ZM11.2944 29.9365C11.0968 29.9365 10.884 30.1705 10.124 31.0129C9.49322 31.7071 8.35322 32.9629 7.84402 33.0487C7.11442 31.4263 4.22642 6.75493 4.56842 4.52413C6.74962 4.52413 30.8948 9.72673 32.8024 10.5535C32.3157 10.9561 31.7883 11.3039 31.2292 11.5909C29.8536 12.3709 28.554 13.1509 28.9036 13.8919C29.162 14.4379 34.0868 20.6389 39.1864 26.3719C44.286 32.1049 49.9252 37.8145 51.0576 38.9455C50.5314 39.0413 50.0323 39.2553 49.5961 39.5722C49.1599 39.8891 48.7973 40.301 48.5344 40.7785C48.7602 39.8985 49.2024 39.0927 49.8188 38.4385C49.8538 38.4 49.8756 38.3507 49.8809 38.2983C49.8861 38.2459 49.8745 38.1931 49.8478 38.1481C49.8211 38.103 49.7809 38.0681 49.7331 38.0488C49.6853 38.0294 49.6327 38.0266 49.5832 38.0407C48.7227 38.3232 47.9725 38.8804 47.4421 39.631C46.9117 40.3816 46.6287 41.2865 46.6344 42.2137C46.5716 43.2808 46.8666 44.3378 47.4704 45.2089C47.2268 45.5845 47.0157 45.9812 46.8396 46.3945C46.2696 45.7315 44.2556 43.4695 39.5208 38.9299C33.8208 33.4699 31.4572 29.5699 31.4344 29.5699C31.4144 29.5343 31.3856 29.5048 31.3509 29.4842C31.3162 29.4637 31.2769 29.4529 31.2368 29.4529C30.6759 29.5135 30.1342 29.697 29.6484 29.9911C29.4964 29.6635 28.8884 28.9381 28.4172 28.9927C28.0889 28.1861 27.8764 27.3348 27.7864 26.4655C27.49 24.4375 27.3836 24.1801 26.768 23.9383C26.1905 23.7318 25.6018 23.5599 25.0048 23.4235C24.7616 23.0179 24.1992 22.1521 23.6976 22.1911C23.2931 22.2785 22.9321 22.5107 22.6792 22.8463C22.5783 22.7453 22.452 22.6751 22.3144 22.6435C22.0588 22.6507 21.8082 22.7177 21.5817 22.8393C21.3552 22.961 21.1587 23.1341 21.0072 23.3455C20.9174 23.4399 20.86 23.5618 20.8436 23.6926C20.8271 23.8234 20.8525 23.9562 20.916 24.0709C20.7535 24.1486 20.6099 24.2623 20.4955 24.404C20.3812 24.5456 20.299 24.7116 20.2548 24.8899C20.2548 24.9835 20.2168 25.1629 20.6196 25.7479C19.7456 26.6371 20.6196 27.3079 21.3796 28.4233C22.2011 29.8249 23.2862 31.0446 24.5716 32.0113C24.5716 32.5339 25.2024 33.2281 25.628 33.6337C25.2977 34.0729 25.0996 34.6016 25.058 35.1547C25.0599 35.2101 25.0816 35.2628 25.1188 35.3029C25.2024 35.3965 33.7904 45.2167 37.408 50.3179C41.0256 55.4191 51.4148 66.0115 51.848 66.4483C52.5396 69.4747 54.2116 74.7007 57.89 77.7973C63.0504 82.1341 64.8972 81.6973 67.2456 83.9671C67.1364 84.1474 67.0785 84.3554 67.0784 84.5677C67.3354 85.2016 67.6618 85.8035 68.0512 86.3617C67.2912 88.3585 66.5312 90.3787 65.8624 92.3755C64.4792 90.9325 53.9 79.7863 36.4808 58.5157C18.8184 36.9097 11.7656 29.9365 11.2944 29.9365ZM78.0224 112.133C77.8204 110.229 77.7543 108.313 77.8248 106.4C78.5848 106.486 81.6248 107.788 81.83 108.171C81.7084 108.678 78.7976 111.556 78.0224 112.133ZM95.1148 121.15C94.998 121.055 94.8864 120.953 94.7804 120.846L104.318 114.504C104.43 114.686 104.5 114.891 104.524 115.105C103.976 115.815 96.2092 120.783 95.1148 121.15ZM94.522 120.44C93.002 116.306 90.722 109.91 90.646 108.787C92.166 109.021 102.418 113.576 103.87 114.247L94.522 120.44ZM102.122 112.929C100.678 112.289 99.2188 111.649 97.8356 111.064L97.1972 110.043C97.4371 109.533 97.5741 108.978 97.6 108.412L101.567 110.752L102.122 112.929ZM90.9956 103.912C88.6396 102.461 79.9452 90.9793 79.6564 90.6517C79.3676 90.3241 75.7196 89.3647 73.5764 88.7875C73.546 88.7794 73.5142 88.7776 73.4831 88.7823C73.452 88.7869 73.4221 88.798 73.3951 88.8147C73.3682 88.8314 73.3448 88.8535 73.3264 88.8796C73.3079 88.9058 73.2947 88.9355 73.2876 88.9669C73.2796 88.9977 73.2775 89.0297 73.2816 89.0613C73.2857 89.0928 73.2957 89.1232 73.3113 89.1507C73.3268 89.1783 73.3475 89.2024 73.3721 89.2217C73.3967 89.241 73.4249 89.2552 73.4548 89.2633C75.5752 89.8249 79.0408 90.8233 79.3296 90.9949C79.3904 91.0573 79.8616 91.6657 80.6292 92.6485L77.2016 96.8527C77.1817 96.8773 77.1666 96.9057 77.1573 96.9362C77.1481 96.9668 77.1447 96.9989 77.1476 97.0308C77.1504 97.0627 77.1593 97.0936 77.1738 97.122C77.1883 97.1503 77.2081 97.1754 77.232 97.1959C77.256 97.2164 77.2836 97.2319 77.3134 97.2414C77.3432 97.2509 77.3745 97.2543 77.4055 97.2514C77.4366 97.2485 77.4668 97.2394 77.4944 97.2245C77.522 97.2096 77.5465 97.1893 77.5664 97.1647L77.726 96.9619C78.3112 96.9619 81.45 97.2271 86.7472 100.199C87.9346 101.716 89.2831 103.092 90.7676 104.302C91.6796 104.863 94.2864 106.408 97.1516 108.108C97.1946 108.839 96.9817 109.561 96.5512 110.144C95.5235 109.579 94.3925 109.239 93.23 109.146C93.1464 109.146 90.608 108.1 90.2964 108.319C90.2432 108.319 90.152 108.428 90.2128 108.943C87.5148 108.662 84.794 108.498 82.2252 108.366C82.2577 108.302 82.2783 108.234 82.286 108.163C82.286 108.007 82.286 107.648 80.2492 106.735C79.132 106.236 77.7336 105.698 77.46 105.955C77.2672 106.647 77.2078 107.37 77.2852 108.085C73.6828 107.874 73.2572 107.898 69.6016 106.572C68.2184 106.072 67.9828 106.002 67.2532 105.792C65.5356 105.246 64.2132 104.824 63.7268 102.75C63.1872 100.222 64.3576 97.3441 65.3912 94.8013C66.4248 92.2585 66.3032 92.3287 68.3856 86.7283C68.4582 86.8312 68.5586 86.9098 68.6744 86.9545C68.8323 86.9941 68.9922 87.0254 69.1532 87.0481C69.2002 87.0631 69.2506 87.0631 69.2976 87.0481C69.3731 87.182 69.4857 87.2898 69.621 87.3578C69.7563 87.4259 69.9083 87.4511 70.0576 87.4303C70.2394 87.4267 70.4203 87.4032 70.5972 87.3601C70.67 87.4488 70.7644 87.5161 70.8708 87.5551C71.1171 87.6419 71.3845 87.6419 71.6308 87.5551C72.1096 88.0621 73.3332 86.9467 73.508 86.5099C73.5688 86.2549 73.5842 85.9906 73.5536 85.7299C73.5076 85.3912 73.5283 85.0464 73.6144 84.7159C73.7141 84.668 73.8186 84.6314 73.926 84.6067C74.2266 84.529 74.5006 84.3678 74.7178 84.1407C74.935 83.9137 75.087 83.6296 75.1572 83.3197C75.37 83.4913 76.1908 83.2651 76.6772 82.4149C77.2928 82.7425 77.726 82.9219 77.7792 82.9453C77.8131 82.9585 77.8494 82.9638 77.8855 82.9608C77.9216 82.9578 77.9566 82.9465 77.9879 82.9278C78.0193 82.9091 78.0461 82.8835 78.0665 82.8528C78.087 82.8221 78.1005 82.7871 78.106 82.7503C78.1972 82.0249 79.2612 80.2387 80.5836 78.2419C83.0212 78.6952 85.1865 80.116 86.6104 82.1965C86.7016 82.3213 86.8612 82.3525 87.0512 82.1497C87.2412 81.9469 87.8112 81.2293 89.658 79.5211C90.2052 79.8487 92.3104 81.3385 94.8792 86.0419C96.9815 89.8259 98.7712 93.7839 100.23 97.8745C100.244 97.9225 100.274 97.9644 100.313 97.9939C100.353 98.0234 100.401 98.039 100.45 98.0383C100.488 98.0391 100.525 98.0306 100.559 98.0134C100.593 97.9961 100.623 97.9707 100.645 97.9394C100.668 97.908 100.682 97.8715 100.688 97.8331C100.694 97.7946 100.69 97.7553 100.678 97.7185C100.678 97.7185 100.48 97.1179 100.078 96.0805L109.889 106.018C109.008 108.202 107.852 111.423 107.13 113.482C105.618 112.562 93.268 105.285 91.0336 103.912H90.9956ZM85.8656 99.2317C81.7616 97.0789 79.1244 96.6421 78.0908 96.5485L80.918 93.0775C82.2556 94.7545 84.11 97.0945 85.9036 99.2161L85.8656 99.2317ZM106.788 115.386C106.743 115.245 106.933 114.847 107.161 114.504L113.735 118.279C113.682 118.502 113.609 118.719 113.514 118.927C111.218 117.879 108.985 116.691 106.826 115.37L106.788 115.386ZM113.165 119.286C110.938 120.986 108.217 122.304 105.831 122.406C105.018 122.445 104.493 122.257 104.311 121.867C103.832 120.877 105.314 118.669 105.983 117.819C107.662 117.273 108.422 117.039 108.514 116.992C110.201 117.827 112.336 118.841 113.203 119.247L113.165 119.286ZM101.438 122.406C101.484 122.39 101.524 122.361 101.554 122.322C101.584 122.284 101.602 122.236 101.605 122.187L101.81 119.145L105.192 118.038C103.422 120.549 102.912 122.952 105.854 122.85C111.675 122.624 119.746 115.23 117.58 112.211C117.245 111.838 116.811 111.575 116.331 111.455C115.851 111.334 115.347 111.361 114.882 111.532C114.974 111.532 114.738 111.759 117.922 107.913C120.202 107.079 121.821 107.133 122.482 108.186C125.363 112.367 111.736 126.735 102.874 126.735C101.81 126.735 100.45 126.547 99.9256 125.604C99.4012 124.66 99.9864 123.186 100.154 122.827L101.438 122.406ZM92.0368 123.427L93.3592 124.769C93.3905 124.798 93.4286 124.819 93.4699 124.828C93.5113 124.838 93.5543 124.836 93.5948 124.824L94.4916 124.551C93.2452 128.833 93.8684 132.14 98.2232 132.14C102.95 132.14 110.497 128.146 115.262 124.379C122.862 118.357 128.296 111.119 128.41 106.821C128.452 106.3 128.376 105.776 128.187 105.29C127.999 104.804 127.703 104.37 127.324 104.021C124.033 101.119 117.254 104.099 115.969 104.707L115.855 104.497L116.775 100.597C121.973 98.1553 129.216 97.6639 131.868 101.119C133.525 103.288 133.996 107.835 126.807 117.18C113.788 134.074 96.7184 138.24 90.8208 135.861C90.295 135.669 89.8175 135.36 89.423 134.955C89.0286 134.55 88.7272 134.06 88.5408 133.521C87.378 130.096 90.1824 124.675 90.5624 123.966L92.0368 123.427ZM88.6244 119.083C86.9752 120.019 79.0028 123.708 77.7488 124.106C77.0818 121.245 76.5944 118.342 76.2896 115.417C77.84 115.69 86.846 118.373 88.6624 119.075L88.6244 119.083ZM77.9008 124.543C79.968 123.927 88.9512 119.449 89.0424 119.395C89.1126 119.352 89.1788 119.302 89.24 119.247C89.3996 119.488 89.5592 119.816 89.4604 119.98C88.9284 120.51 78.8204 125.026 78.3264 125.136C78.2732 125.112 78.0908 124.839 77.9388 124.535L77.9008 124.543ZM84.49 122.983C84.5508 122.897 84.3076 123.092 87.2716 121.68L86.6636 125.026C86.6583 125.06 86.6598 125.095 86.6682 125.128C86.6766 125.162 86.6916 125.193 86.7123 125.22C86.733 125.247 86.7589 125.27 86.7885 125.286C86.818 125.302 86.8506 125.312 86.884 125.315C80.196 136.594 85.5844 143.723 95.0008 142.748C104.258 141.796 118.781 134.386 130.356 119.98C142.144 105.316 139.826 92.2351 128.654 93.9277C119.488 95.3005 114.563 98.3191 113.188 99.2785C113.309 98.3191 113.416 97.4221 113.514 96.5953C115.984 95.0353 121.586 93.0541 122.49 92.6953C122.741 92.9371 122.961 93.1321 123.106 93.2491C123.25 93.3661 123.47 93.5221 123.66 93.4675C123.85 93.4129 124.139 92.8591 124.474 92.0869C130.554 89.7937 137.356 89.0917 141.824 93.7171C148.072 100.176 139.864 112.843 134.285 119.925C119.769 138.341 103.125 145.743 92.3408 146.539C84.3988 147.124 81.9972 144.558 80.2188 141.859C76.852 134.854 84.4444 123.092 84.528 122.959L84.49 122.983ZM130.432 133.411C108.825 154.713 88.7764 152.989 87.0664 151.258C85.3998 149.334 83.8563 147.302 82.4456 145.174C90.8664 150.844 115.278 144.87 134.665 120.268C144.089 108.319 145.222 101.096 144.256 96.9697L147.418 101.525C147.502 101.603 152.153 112.016 130.47 133.388L130.432 133.411Z" fill="black"/>
</svg>
