<svg width="391" height="461" viewBox="0 0 391 461" fill="none" xmlns="http://www.w3.org/2000/svg">
<g filter="url(#filter0_ddddd_6_1951)">
<path d="M234.69 37.4876C247.499 26.4032 266.503 26.4032 279.312 37.4876L303.312 58.2561C306.583 61.0868 310.363 63.2692 314.45 64.6867L344.436 75.0871C352.626 77.9278 359.114 83.6251 363.068 90.7409L367.349 86.4603V106.277C367.421 108.734 367.228 111.23 366.748 113.731L360.762 144.9C359.946 149.148 359.946 153.513 360.762 157.761L364.854 179.069L367.349 176.574V194.38C367.368 195.05 367.368 195.719 367.349 196.384V197.654L367.289 197.622C366.403 211.011 357.629 222.999 344.436 227.575L314.45 237.975C310.363 239.392 306.583 241.575 303.312 244.406L279.312 265.174C266.503 276.258 247.499 276.258 234.69 265.174L210.69 244.406C207.418 241.575 203.638 239.392 199.551 237.975L169.565 227.575C156.376 223 147.603 211.017 146.713 197.633L146.674 197.654V196.934C146.627 195.906 146.626 194.87 146.674 193.829V176.574L149.151 179.052L153.24 157.761C154.056 153.513 154.056 149.148 153.24 144.9L147.254 113.731C146.665 110.665 146.508 107.605 146.743 104.618V86.4603L150.966 90.6833C154.923 83.5944 161.397 77.9201 169.565 75.0871L199.551 64.6867C203.638 63.2692 207.418 61.0868 210.69 58.2561L234.69 37.4876Z" fill="#0C3855"/>
<g style="mix-blend-mode:color">
<path d="M234.69 37.4876C247.499 26.4032 266.503 26.4032 279.312 37.4876L303.312 58.2561C306.583 61.0868 310.363 63.2692 314.45 64.6867L344.436 75.0871C352.626 77.9278 359.114 83.6251 363.068 90.7409L367.349 86.4603V106.277C367.421 108.734 367.228 111.23 366.748 113.731L360.762 144.9C359.946 149.148 359.946 153.513 360.762 157.761L364.854 179.069L367.349 176.574V194.38C367.368 195.05 367.368 195.719 367.349 196.384V197.654L367.289 197.622C366.403 211.011 357.629 222.999 344.436 227.575L314.45 237.975C310.363 239.392 306.583 241.575 303.312 244.406L279.312 265.174C266.503 276.258 247.499 276.258 234.69 265.174L210.69 244.406C207.418 241.575 203.638 239.392 199.551 237.975L169.565 227.575C156.376 223 147.603 211.017 146.713 197.633L146.674 197.654V196.934C146.627 195.906 146.626 194.87 146.674 193.829V176.574L149.151 179.052L153.24 157.761C154.056 153.513 154.056 149.148 153.24 144.9L147.254 113.731C146.665 110.665 146.508 107.605 146.743 104.618V86.4603L150.966 90.6833C154.923 83.5944 161.397 77.9201 169.565 75.0871L199.551 64.6867C203.638 63.2692 207.418 61.0868 210.69 58.2561L234.69 37.4876Z" fill="url(#paint0_linear_6_1951)"/>
</g>
<path d="M234.689 19.8198C247.498 8.73538 266.502 8.73537 279.311 19.8197L303.311 40.5882C306.582 43.4189 310.362 45.6013 314.449 47.0189L344.435 57.4193C360.439 62.9701 369.941 79.4283 366.747 96.0634L360.761 127.232C359.945 131.481 359.945 135.845 360.761 140.094L366.747 171.262C369.941 187.898 360.439 204.356 344.435 209.907L314.449 220.307C310.362 221.725 306.582 223.907 303.311 226.738L279.311 247.506C266.502 258.591 247.498 258.591 234.689 247.506L210.689 226.738C207.417 223.907 203.637 221.725 199.55 220.307L169.564 209.907C153.56 204.356 144.058 187.898 147.253 171.263L153.239 140.094C154.055 135.845 154.055 131.481 153.239 127.232L147.253 96.0635C144.058 79.4283 153.56 62.9701 169.564 57.4193L199.55 47.0189C203.637 45.6013 207.417 43.4189 210.689 40.5882L234.689 19.8198Z" fill="url(#paint1_radial_6_1951)"/>
<path d="M234.689 19.8198C247.498 8.73538 266.502 8.73537 279.311 19.8197L303.311 40.5882C306.582 43.4189 310.362 45.6013 314.449 47.0189L344.435 57.4193C360.439 62.9701 369.941 79.4283 366.747 96.0634L360.761 127.232C359.945 131.481 359.945 135.845 360.761 140.094L366.747 171.262C369.941 187.898 360.439 204.356 344.435 209.907L314.449 220.307C310.362 221.725 306.582 223.907 303.311 226.738L279.311 247.506C266.502 258.591 247.498 258.591 234.689 247.506L210.689 226.738C207.417 223.907 203.637 221.725 199.55 220.307L169.564 209.907C153.56 204.356 144.058 187.898 147.253 171.263L153.239 140.094C154.055 135.845 154.055 131.481 153.239 127.232L147.253 96.0635C144.058 79.4283 153.56 62.9701 169.564 57.4193L199.55 47.0189C203.637 45.6013 207.417 43.4189 210.689 40.5882L234.689 19.8198Z" fill="white" fill-opacity="0.1" style="mix-blend-mode:color-dodge"/>
<path d="M240.814 38.4049C250.107 30.3638 263.893 30.3638 273.185 38.4049L295.474 57.6927C297.848 59.7463 300.59 61.3295 303.555 62.3579L331.403 72.0168C343.013 76.0436 349.906 87.9831 347.589 100.051L342.029 128.998C341.437 132.08 341.437 135.246 342.029 138.328L347.589 167.275C349.906 179.343 343.013 191.282 331.403 195.309L303.555 204.968C300.59 205.996 297.848 207.58 295.474 209.633L273.185 228.921C263.893 236.962 250.107 236.962 240.814 228.921L218.525 209.633C216.152 207.58 213.41 205.996 210.445 204.968L182.597 195.309C170.987 191.282 164.094 179.343 166.411 167.275L171.97 138.328C172.562 135.246 172.562 132.08 171.97 128.998L166.411 100.051C164.094 87.9831 170.987 76.0436 182.597 72.0168L210.445 62.3579C213.41 61.3295 216.152 59.7463 218.525 57.6927L240.814 38.4049Z" fill="white" fill-opacity="0.2" style="mix-blend-mode:screen"/>
<g filter="url(#filter1_i_6_1951)">
<path fill-rule="evenodd" clip-rule="evenodd" d="M259.309 103.399C259.018 102.983 258.632 102.644 258.183 102.41C257.733 102.175 257.234 102.053 256.727 102.053C256.22 102.053 255.721 102.175 255.271 102.41C254.822 102.644 254.436 102.983 254.146 103.399L234.263 131.807L218.031 115.569C217.591 115.128 217.029 114.827 216.418 114.705C215.807 114.583 215.173 114.646 214.597 114.885C214.021 115.123 213.529 115.528 213.183 116.046C212.837 116.565 212.653 117.175 212.654 117.798V158.723C212.654 162.063 213.981 165.266 216.342 167.627C218.704 169.989 221.907 171.315 225.247 171.315H288.208C291.547 171.315 294.75 169.989 297.112 167.627C299.473 165.266 300.8 162.063 300.8 158.723V117.798C300.801 117.175 300.617 116.565 300.271 116.046C299.925 115.528 299.433 115.123 298.857 114.885C298.281 114.646 297.648 114.583 297.036 114.705C296.425 114.827 295.863 115.128 295.423 115.569L279.192 131.807L259.309 103.399Z" fill="#124344"/>
</g>
<g style="mix-blend-mode:multiply" opacity="0.3">
<path d="M253.15 273.316C246.367 272.634 239.746 269.92 234.262 265.174L210.262 244.406C206.991 241.575 203.211 239.393 199.124 237.975L169.138 227.575C155.948 223 147.175 211.018 146.285 197.633L146.246 197.654V196.934C146.199 195.906 146.198 194.87 146.246 193.829V181.389L166.454 164.829C164.009 178.373 171.788 191.709 184.821 196.229L209.427 204.764C212.781 205.927 215.883 207.718 218.568 210.041L238.262 227.084C242.598 230.836 247.798 233.04 253.15 233.697V273.316Z" fill="#124344"/>
</g>
<g style="mix-blend-mode:soft-light">
<path d="M255.813 33.4305C262.59 33.2473 269.421 35.5179 274.881 40.2422L294.575 57.285C297.26 59.6079 300.362 61.3988 303.715 62.562L328.322 71.0967C336.152 73.8123 342.085 79.7092 345.045 86.9216L366.261 82.8804C363.929 71.3597 355.705 61.4762 344.008 57.4193L314.022 47.0189C309.935 45.6013 306.155 43.4189 302.884 40.5882L278.884 19.8197C272.276 14.101 264.018 11.3327 255.813 11.5149V33.4305Z" fill="white"/>
</g>
<g style="mix-blend-mode:color">
<path d="M234.689 19.8198C247.498 8.73538 266.502 8.73537 279.311 19.8197L303.311 40.5882C306.582 43.4189 310.362 45.6013 314.449 47.0189L344.435 57.4193C360.439 62.9701 369.941 79.4283 366.747 96.0634L360.761 127.232C359.945 131.481 359.945 135.845 360.761 140.094L366.747 171.262C369.941 187.898 360.439 204.356 344.435 209.907L314.449 220.307C310.362 221.725 306.582 223.907 303.311 226.738L279.311 247.506C266.502 258.591 247.498 258.591 234.689 247.506L210.689 226.738C207.417 223.907 203.637 221.725 199.55 220.307L169.564 209.907C153.56 204.356 144.058 187.898 147.253 171.263L153.239 140.094C154.055 135.845 154.055 131.481 153.239 127.232L147.253 96.0635C144.058 79.4283 153.56 62.9701 169.564 57.4193L199.55 47.0189C203.637 45.6013 207.417 43.4189 210.689 40.5882L234.689 19.8198Z" fill="url(#paint2_linear_6_1951)"/>
</g>
<path d="M197.139 31.7149C197.968 29.4762 201.134 29.4762 201.963 31.7149L204.887 39.6189C205.148 40.3227 205.703 40.8776 206.407 41.1381L214.31 44.0628C216.549 44.8912 216.549 48.0575 214.31 48.8859L206.407 51.8106C205.703 52.0711 205.148 52.626 204.887 53.3299L201.963 61.2338C201.134 63.4725 197.968 63.4725 197.139 61.2338L194.215 53.3299C193.954 52.626 193.399 52.0711 192.696 51.8106L184.792 48.8859C182.553 48.0575 182.553 44.8912 184.792 44.0628L192.696 41.1381C193.399 40.8776 193.954 40.3227 194.215 39.6189L197.139 31.7149Z" fill="white"/>
<path d="M314.549 191.018C315.086 189.568 317.137 189.568 317.674 191.018L319.569 196.139C319.737 196.595 320.097 196.954 320.553 197.123L325.673 199.018C327.123 199.554 327.123 201.605 325.673 202.142L320.553 204.037C320.097 204.205 319.737 204.565 319.569 205.021L317.674 210.141C317.137 211.591 315.086 211.591 314.549 210.141L312.655 205.021C312.486 204.565 312.127 204.205 311.671 204.037L306.55 202.142C305.1 201.605 305.1 199.554 306.55 199.018L311.671 197.123C312.127 196.954 312.486 196.595 312.655 196.139L314.549 191.018Z" fill="white"/>
</g>
<defs>
<filter id="filter0_ddddd_6_1951" x="0.210449" y="2.50647" width="378.153" height="457.981" filterUnits="userSpaceOnUse" color-interpolation-filters="sRGB">
<feFlood flood-opacity="0" result="BackgroundImageFix"/>
<feColorMatrix in="SourceAlpha" type="matrix" values="0 0 0 0 0 0 0 0 0 0 0 0 0 0 0 0 0 0 127 0" result="hardAlpha"/>
<feOffset dx="-4" dy="6"/>
<feGaussianBlur stdDeviation="7.5"/>
<feColorMatrix type="matrix" values="0 0 0 0 0.101961 0 0 0 0 0.0313726 0 0 0 0 0.168627 0 0 0 0.98 0"/>
<feBlend mode="normal" in2="BackgroundImageFix" result="effect1_dropShadow_6_1951"/>
<feColorMatrix in="SourceAlpha" type="matrix" values="0 0 0 0 0 0 0 0 0 0 0 0 0 0 0 0 0 0 127 0" result="hardAlpha"/>
<feOffset dx="-16" dy="22"/>
<feGaussianBlur stdDeviation="13.5"/>
<feColorMatrix type="matrix" values="0 0 0 0 0.101961 0 0 0 0 0.0313726 0 0 0 0 0.168627 0 0 0 0.85 0"/>
<feBlend mode="normal" in2="effect1_dropShadow_6_1951" result="effect2_dropShadow_6_1951"/>
<feColorMatrix in="SourceAlpha" type="matrix" values="0 0 0 0 0 0 0 0 0 0 0 0 0 0 0 0 0 0 127 0" result="hardAlpha"/>
<feOffset dx="-35" dy="50"/>
<feGaussianBlur stdDeviation="18.5"/>
<feColorMatrix type="matrix" values="0 0 0 0 0.101961 0 0 0 0 0.0313726 0 0 0 0 0.168627 0 0 0 0.5 0"/>
<feBlend mode="normal" in2="effect2_dropShadow_6_1951" result="effect3_dropShadow_6_1951"/>
<feColorMatrix in="SourceAlpha" type="matrix" values="0 0 0 0 0 0 0 0 0 0 0 0 0 0 0 0 0 0 127 0" result="hardAlpha"/>
<feOffset dx="-63" dy="89"/>
<feGaussianBlur stdDeviation="22"/>
<feColorMatrix type="matrix" values="0 0 0 0 0.101961 0 0 0 0 0.0313726 0 0 0 0 0.168627 0 0 0 0.15 0"/>
<feBlend mode="normal" in2="effect3_dropShadow_6_1951" result="effect4_dropShadow_6_1951"/>
<feColorMatrix in="SourceAlpha" type="matrix" values="0 0 0 0 0 0 0 0 0 0 0 0 0 0 0 0 0 0 127 0" result="hardAlpha"/>
<feOffset dx="-98" dy="139"/>
<feGaussianBlur stdDeviation="24"/>
<feColorMatrix type="matrix" values="0 0 0 0 0.101961 0 0 0 0 0.0313726 0 0 0 0 0.168627 0 0 0 0.02 0"/>
<feBlend mode="normal" in2="effect4_dropShadow_6_1951" result="effect5_dropShadow_6_1951"/>
<feBlend mode="normal" in="SourceGraphic" in2="effect5_dropShadow_6_1951" result="shape"/>
</filter>
<filter id="filter1_i_6_1951" x="209.121" y="102.053" width="91.6793" height="72.796" filterUnits="userSpaceOnUse" color-interpolation-filters="sRGB">
<feFlood flood-opacity="0" result="BackgroundImageFix"/>
<feBlend mode="normal" in="SourceGraphic" in2="BackgroundImageFix" result="shape"/>
<feColorMatrix in="SourceAlpha" type="matrix" values="0 0 0 0 0 0 0 0 0 0 0 0 0 0 0 0 0 0 127 0" result="hardAlpha"/>
<feOffset dx="-3.53356" dy="3.53356"/>
<feGaussianBlur stdDeviation="2.65017"/>
<feComposite in2="hardAlpha" operator="arithmetic" k2="-1" k3="1"/>
<feColorMatrix type="matrix" values="0 0 0 0 0 0 0 0 0 0 0 0 0 0 0 0 0 0 0.25 0"/>
<feBlend mode="normal" in2="shape" result="effect1_innerShadow_6_1951"/>
</filter>
<linearGradient id="paint0_linear_6_1951" x1="257.001" y1="29.1743" x2="257.001" y2="273.487" gradientUnits="userSpaceOnUse">
<stop stop-color="#1A2FE9"/>
<stop offset="1" stop-color="#C64DBA"/>
</linearGradient>
<radialGradient id="paint1_radial_6_1951" cx="0" cy="0" r="1" gradientUnits="userSpaceOnUse" gradientTransform="translate(257 0.512695) rotate(90) scale(266.301)">
<stop stop-color="#95CCEA"/>
<stop offset="1" stop-color="#104D7D"/>
</radialGradient>
<linearGradient id="paint2_linear_6_1951" x1="257" y1="0.512695" x2="257" y2="266.813" gradientUnits="userSpaceOnUse">
<stop stop-color="#1A2FE9"/>
<stop offset="1" stop-color="#C64DBA"/>
</linearGradient>
</defs>
</svg>
