<svg width="39" height="12" viewBox="0 0 39 12" fill="none" xmlns="http://www.w3.org/2000/svg">
<path d="M0.232955 0.818182H1.70455L5.16477 9.26989H5.28409L8.74432 0.818182H10.2159V11H9.0625V3.2642H8.96307L5.78125 11H4.66761L1.4858 3.2642H1.38636V11H0.232955V0.818182ZM15.7306 11.1591C14.9949 11.1591 14.3601 10.9967 13.8265 10.6719C13.2962 10.3438 12.8869 9.88636 12.5985 9.29972C12.3135 8.70975 12.171 8.02367 12.171 7.24148C12.171 6.45928 12.3135 5.76989 12.5985 5.1733C12.8869 4.57339 13.2879 4.10606 13.8017 3.77131C14.3187 3.43324 14.9219 3.2642 15.6113 3.2642C16.0091 3.2642 16.4018 3.33049 16.7896 3.46307C17.1774 3.59564 17.5304 3.81108 17.8485 4.10938C18.1667 4.40436 18.4203 4.79545 18.6092 5.28267C18.7981 5.76989 18.8926 6.36979 18.8926 7.08239V7.57955H13.0062V6.56534H17.6994C17.6994 6.13447 17.6132 5.75 17.4409 5.41193C17.2718 5.07386 17.0299 4.80705 16.715 4.61151C16.4035 4.41596 16.0356 4.31818 15.6113 4.31818C15.144 4.31818 14.7396 4.43419 14.3983 4.66619C14.0602 4.89489 13.8 5.19318 13.6177 5.56108C13.4354 5.92898 13.3443 6.32339 13.3443 6.74432V7.42045C13.3443 7.99716 13.4437 8.48603 13.6426 8.88707C13.8448 9.2848 14.1248 9.58807 14.4828 9.79688C14.8407 10.0024 15.2567 10.1051 15.7306 10.1051C16.0389 10.1051 16.3173 10.062 16.5659 9.97585C16.8178 9.88636 17.0349 9.75379 17.2172 9.57812C17.3994 9.39915 17.5403 9.17708 17.6397 8.91193L18.7733 9.23011C18.6539 9.61458 18.4534 9.95265 18.1717 10.2443C17.89 10.5327 17.542 10.758 17.1277 10.9205C16.7134 11.0795 16.2477 11.1591 15.7306 11.1591ZM23.5609 11.1591C22.9245 11.1591 22.3627 10.9983 21.8755 10.6768C21.3883 10.352 21.0072 9.89465 20.7321 9.30469C20.457 8.71141 20.3194 8.01042 20.3194 7.2017C20.3194 6.39962 20.457 5.7036 20.7321 5.11364C21.0072 4.52367 21.39 4.06794 21.8805 3.74645C22.371 3.42495 22.9378 3.2642 23.5808 3.2642C24.0779 3.2642 24.4707 3.34706 24.7591 3.51278C25.0507 3.67519 25.2728 3.8608 25.4252 4.0696C25.581 4.27509 25.702 4.44413 25.7882 4.5767H25.8876V0.818182H27.0609V11H25.9274V9.8267H25.7882C25.702 9.96591 25.5794 10.1416 25.4203 10.3537C25.2612 10.5625 25.0342 10.7498 24.7392 10.9155C24.4442 11.0779 24.0514 11.1591 23.5609 11.1591ZM23.72 10.1051C24.1906 10.1051 24.5884 9.98248 24.9132 9.73722C25.238 9.48864 25.4849 9.1456 25.6539 8.7081C25.823 8.26728 25.9075 7.75852 25.9075 7.18182C25.9075 6.61174 25.8246 6.11293 25.6589 5.68537C25.4932 5.2545 25.2479 4.91974 24.9231 4.68111C24.5983 4.43916 24.1973 4.31818 23.72 4.31818C23.2228 4.31818 22.8085 4.44579 22.4771 4.70099C22.149 4.95289 21.902 5.29593 21.7363 5.73011C21.5739 6.16098 21.4927 6.64489 21.4927 7.18182C21.4927 7.72538 21.5756 8.21922 21.7413 8.66335C21.9103 9.10417 22.1589 9.45549 22.487 9.71733C22.8185 9.97585 23.2295 10.1051 23.72 10.1051ZM29.3727 11V3.36364H30.546V11H29.3727ZM29.9693 2.09091C29.7406 2.09091 29.5434 2.01302 29.3777 1.85724C29.2153 1.70147 29.1341 1.5142 29.1341 1.29545C29.1341 1.0767 29.2153 0.889441 29.3777 0.733664C29.5434 0.577888 29.7406 0.5 29.9693 0.5C30.198 0.5 30.3935 0.577888 30.5559 0.733664C30.7217 0.889441 30.8045 1.0767 30.8045 1.29545C30.8045 1.5142 30.7217 1.70147 30.5559 1.85724C30.3935 2.01302 30.198 2.09091 29.9693 2.09091ZM34.9421 11.179C34.4582 11.179 34.0191 11.0878 33.6246 10.9055C33.2302 10.7199 32.917 10.4531 32.685 10.1051C32.453 9.75379 32.337 9.32955 32.337 8.83239C32.337 8.39489 32.4232 8.04025 32.5955 7.76847C32.7679 7.49337 32.9982 7.27794 33.2866 7.12216C33.5749 6.96638 33.8931 6.85038 34.2411 6.77415C34.5924 6.6946 34.9454 6.63163 35.3001 6.58523C35.7641 6.52557 36.1403 6.48082 36.4286 6.45099C36.7203 6.41785 36.9324 6.36316 37.065 6.28693C37.2009 6.2107 37.2688 6.07812 37.2688 5.8892V5.84943C37.2688 5.3589 37.1346 4.97775 36.8661 4.70597C36.601 4.43419 36.1983 4.2983 35.658 4.2983C35.0979 4.2983 34.6587 4.42093 34.3406 4.66619C34.0224 4.91146 33.7987 5.1733 33.6694 5.4517L32.5558 5.05398C32.7546 4.58996 33.0198 4.22869 33.3512 3.97017C33.686 3.70833 34.0505 3.52604 34.445 3.4233C34.8427 3.31723 35.2338 3.2642 35.6183 3.2642C35.8635 3.2642 36.1452 3.29403 36.4634 3.35369C36.7849 3.41004 37.0948 3.5277 37.3931 3.70668C37.6947 3.88565 37.945 4.15578 38.1438 4.51705C38.3427 4.87831 38.4421 5.36222 38.4421 5.96875V11H37.2688V9.96591H37.2092C37.1296 10.1316 36.997 10.3089 36.8114 10.4979C36.6258 10.6868 36.3789 10.8475 36.0707 10.9801C35.7624 11.1127 35.3862 11.179 34.9421 11.179ZM35.1211 10.125C35.5851 10.125 35.9762 10.0339 36.2944 9.85156C36.6159 9.66927 36.8578 9.43395 37.0202 9.1456C37.186 8.85724 37.2688 8.55398 37.2688 8.2358V7.16193C37.2191 7.22159 37.1097 7.27628 36.9407 7.32599C36.775 7.3724 36.5827 7.41383 36.364 7.45028C36.1486 7.48343 35.9381 7.51326 35.7326 7.53977C35.5304 7.56297 35.3664 7.58286 35.2404 7.59943C34.9355 7.6392 34.6504 7.70384 34.3853 7.79332C34.1235 7.8795 33.9113 8.01042 33.7489 8.18608C33.5898 8.35843 33.5103 8.59375 33.5103 8.89205C33.5103 9.29972 33.6611 9.60795 33.9627 9.81676C34.2676 10.0223 34.6538 10.125 35.1211 10.125Z" fill="#A1A7C4"/>
</svg>
