<svg width="66" height="15" viewBox="0 0 66 15" fill="none" xmlns="http://www.w3.org/2000/svg">
<path d="M0.232955 0.818182H1.70455L5.16477 9.26989H5.28409L8.74432 0.818182H10.2159V11H9.0625V3.2642H8.96307L5.78125 11H4.66761L1.4858 3.2642H1.38636V11H0.232955V0.818182ZM15.7306 11.1591C14.9949 11.1591 14.3601 10.9967 13.8265 10.6719C13.2962 10.3438 12.8869 9.88636 12.5985 9.29972C12.3135 8.70975 12.171 8.02367 12.171 7.24148C12.171 6.45928 12.3135 5.76989 12.5985 5.1733C12.8869 4.57339 13.2879 4.10606 13.8017 3.77131C14.3187 3.43324 14.9219 3.2642 15.6113 3.2642C16.0091 3.2642 16.4018 3.33049 16.7896 3.46307C17.1774 3.59564 17.5304 3.81108 17.8485 4.10938C18.1667 4.40436 18.4203 4.79545 18.6092 5.28267C18.7981 5.76989 18.8926 6.36979 18.8926 7.08239V7.57955H13.0062V6.56534H17.6994C17.6994 6.13447 17.6132 5.75 17.4409 5.41193C17.2718 5.07386 17.0299 4.80705 16.715 4.61151C16.4035 4.41596 16.0356 4.31818 15.6113 4.31818C15.144 4.31818 14.7396 4.43419 14.3983 4.66619C14.0602 4.89489 13.8 5.19318 13.6177 5.56108C13.4354 5.92898 13.3443 6.32339 13.3443 6.74432V7.42045C13.3443 7.99716 13.4437 8.48603 13.6426 8.88707C13.8448 9.2848 14.1248 9.58807 14.4828 9.79688C14.8407 10.0024 15.2567 10.1051 15.7306 10.1051C16.0389 10.1051 16.3173 10.062 16.5659 9.97585C16.8178 9.88636 17.0349 9.75379 17.2172 9.57812C17.3994 9.39915 17.5403 9.17708 17.6397 8.91193L18.7733 9.23011C18.6539 9.61458 18.4534 9.95265 18.1717 10.2443C17.89 10.5327 17.542 10.758 17.1277 10.9205C16.7134 11.0795 16.2477 11.1591 15.7306 11.1591ZM26.0865 5.07386L25.0325 5.37216C24.9662 5.1965 24.8684 5.0258 24.7392 4.86009C24.6132 4.69105 24.4409 4.55185 24.2221 4.44247C24.0034 4.3331 23.7233 4.27841 23.3819 4.27841C22.9146 4.27841 22.5252 4.38613 22.2136 4.60156C21.9054 4.81368 21.7512 5.08381 21.7512 5.41193C21.7512 5.7036 21.8573 5.93395 22.0694 6.10298C22.2815 6.27202 22.613 6.41288 23.0637 6.52557L24.1973 6.80398C24.88 6.9697 25.3888 7.22325 25.7235 7.56463C26.0583 7.9027 26.2257 8.33854 26.2257 8.87216C26.2257 9.30966 26.0997 9.70076 25.8478 10.0455C25.5993 10.3902 25.2512 10.6619 24.8038 10.8608C24.3564 11.0597 23.836 11.1591 23.2427 11.1591C22.4638 11.1591 21.8192 10.9901 21.3088 10.652C20.7984 10.3139 20.4752 9.82008 20.3393 9.17045L21.4529 8.89205C21.559 9.30303 21.7595 9.61127 22.0545 9.81676C22.3528 10.0223 22.7422 10.125 23.2228 10.125C23.7697 10.125 24.2039 10.009 24.5254 9.77699C24.8502 9.54167 25.0126 9.25994 25.0126 8.93182C25.0126 8.66667 24.9198 8.4446 24.7342 8.26562C24.5486 8.08333 24.2636 7.94744 23.8791 7.85795L22.6064 7.55966C21.907 7.39394 21.3933 7.13707 21.0652 6.78906C20.7404 6.43774 20.5779 5.99858 20.5779 5.47159C20.5779 5.04072 20.6989 4.65956 20.9409 4.32812C21.1861 3.99669 21.5192 3.73651 21.9402 3.54758C22.3644 3.35866 22.845 3.2642 23.3819 3.2642C24.1376 3.2642 24.7309 3.42992 25.1618 3.76136C25.5959 4.0928 25.9042 4.5303 26.0865 5.07386ZM33.4009 5.07386L32.3469 5.37216C32.2807 5.1965 32.1829 5.0258 32.0536 4.86009C31.9277 4.69105 31.7553 4.55185 31.5366 4.44247C31.3178 4.3331 31.0378 4.27841 30.6964 4.27841C30.229 4.27841 29.8396 4.38613 29.5281 4.60156C29.2198 4.81368 29.0657 5.08381 29.0657 5.41193C29.0657 5.7036 29.1718 5.93395 29.3839 6.10298C29.596 6.27202 29.9274 6.41288 30.3782 6.52557L31.5117 6.80398C32.1945 6.9697 32.7032 7.22325 33.038 7.56463C33.3728 7.9027 33.5401 8.33854 33.5401 8.87216C33.5401 9.30966 33.4142 9.70076 33.1623 10.0455C32.9137 10.3902 32.5657 10.6619 32.1183 10.8608C31.6708 11.0597 31.1504 11.1591 30.5572 11.1591C29.7783 11.1591 29.1336 10.9901 28.6232 10.652C28.1128 10.3139 27.7897 9.82008 27.6538 9.17045L28.7674 8.89205C28.8735 9.30303 29.074 9.61127 29.369 9.81676C29.6673 10.0223 30.0567 10.125 30.5373 10.125C31.0842 10.125 31.5183 10.009 31.8398 9.77699C32.1647 9.54167 32.3271 9.25994 32.3271 8.93182C32.3271 8.66667 32.2343 8.4446 32.0487 8.26562C31.863 8.08333 31.578 7.94744 31.1935 7.85795L29.9208 7.55966C29.2215 7.39394 28.7077 7.13707 28.3796 6.78906C28.0548 6.43774 27.8924 5.99858 27.8924 5.47159C27.8924 5.04072 28.0134 4.65956 28.2553 4.32812C28.5006 3.99669 28.8337 3.73651 29.2546 3.54758C29.6789 3.35866 30.1594 3.2642 30.6964 3.2642C31.4521 3.2642 32.0453 3.42992 32.4762 3.76136C32.9104 4.0928 33.2186 4.5303 33.4009 5.07386ZM37.5534 11.179C37.0695 11.179 36.6304 11.0878 36.236 10.9055C35.8416 10.7199 35.5283 10.4531 35.2963 10.1051C35.0643 9.75379 34.9483 9.32955 34.9483 8.83239C34.9483 8.39489 35.0345 8.04025 35.2069 7.76847C35.3792 7.49337 35.6096 7.27794 35.8979 7.12216C36.1863 6.96638 36.5044 6.85038 36.8525 6.77415C37.2038 6.6946 37.5568 6.63163 37.9114 6.58523C38.3754 6.52557 38.7516 6.48082 39.04 6.45099C39.3316 6.41785 39.5437 6.36316 39.6763 6.28693C39.8122 6.2107 39.8801 6.07812 39.8801 5.8892V5.84943C39.8801 5.3589 39.7459 4.97775 39.4775 4.70597C39.2123 4.43419 38.8096 4.2983 38.2694 4.2983C37.7092 4.2983 37.2701 4.42093 36.9519 4.66619C36.6337 4.91146 36.41 5.1733 36.2807 5.4517L35.1671 5.05398C35.3659 4.58996 35.6311 4.22869 35.9625 3.97017C36.2973 3.70833 36.6619 3.52604 37.0563 3.4233C37.454 3.31723 37.8451 3.2642 38.2296 3.2642C38.4748 3.2642 38.7566 3.29403 39.0748 3.35369C39.3962 3.41004 39.7061 3.5277 40.0044 3.70668C40.306 3.88565 40.5563 4.15578 40.7551 4.51705C40.954 4.87831 41.0534 5.36222 41.0534 5.96875V11H39.8801V9.96591H39.8205C39.7409 10.1316 39.6084 10.3089 39.4228 10.4979C39.2372 10.6868 38.9902 10.8475 38.682 10.9801C38.3738 11.1127 37.9976 11.179 37.5534 11.179ZM37.7324 10.125C38.1964 10.125 38.5875 10.0339 38.9057 9.85156C39.2272 9.66927 39.4692 9.43395 39.6316 9.1456C39.7973 8.85724 39.8801 8.55398 39.8801 8.2358V7.16193C39.8304 7.22159 39.7211 7.27628 39.552 7.32599C39.3863 7.3724 39.1941 7.41383 38.9753 7.45028C38.7599 7.48343 38.5494 7.51326 38.3439 7.53977C38.1417 7.56297 37.9777 7.58286 37.8517 7.59943C37.5468 7.6392 37.2618 7.70384 36.9966 7.79332C36.7348 7.8795 36.5227 8.01042 36.3603 8.18608C36.2012 8.35843 36.1216 8.59375 36.1216 8.89205C36.1216 9.29972 36.2724 9.60795 36.574 9.81676C36.879 10.0223 37.2651 10.125 37.7324 10.125ZM46.2773 14.0227C45.7106 14.0227 45.2234 13.9498 44.8157 13.804C44.408 13.6615 44.0683 13.4725 43.7965 13.2372C43.5281 13.0052 43.3143 12.7566 43.1552 12.4915L44.0898 11.8352C44.1959 11.9744 44.3301 12.1335 44.4925 12.3125C44.6549 12.4948 44.877 12.6522 45.1587 12.7848C45.4438 12.9207 45.8166 12.9886 46.2773 12.9886C46.8938 12.9886 47.4026 12.8395 47.8036 12.5412C48.2047 12.2429 48.4052 11.7756 48.4052 11.1392V9.58807H48.3058C48.2196 9.72727 48.0969 9.89962 47.9379 10.1051C47.7821 10.3073 47.5567 10.4879 47.2617 10.647C46.9701 10.8028 46.5756 10.8807 46.0785 10.8807C45.462 10.8807 44.9085 10.7348 44.418 10.4432C43.9308 10.1515 43.5446 9.72727 43.2596 9.17045C42.9779 8.61364 42.837 7.9375 42.837 7.14205C42.837 6.35985 42.9746 5.67874 43.2496 5.09872C43.5247 4.51539 43.9076 4.06463 44.3981 3.74645C44.8886 3.42495 45.4554 3.2642 46.0984 3.2642C46.5955 3.2642 46.9899 3.34706 47.2816 3.51278C47.5766 3.67519 47.802 3.8608 47.9577 4.0696C48.1168 4.27509 48.2395 4.44413 48.3256 4.5767H48.445V3.36364H49.5785V11.2188C49.5785 11.875 49.4293 12.4086 49.131 12.8196C48.8361 13.2339 48.4383 13.5372 47.9379 13.7294C47.4407 13.925 46.8872 14.0227 46.2773 14.0227ZM46.2376 9.8267C46.7082 9.8267 47.1059 9.71899 47.4308 9.50355C47.7556 9.28812 48.0025 8.97822 48.1715 8.57386C48.3406 8.16951 48.4251 7.68561 48.4251 7.12216C48.4251 6.57197 48.3422 6.08641 48.1765 5.66548C48.0108 5.24455 47.7655 4.91477 47.4407 4.67614C47.1159 4.4375 46.7148 4.31818 46.2376 4.31818C45.7404 4.31818 45.3261 4.44413 44.9947 4.69602C44.6665 4.94792 44.4196 5.28598 44.2539 5.71023C44.0915 6.13447 44.0103 6.60511 44.0103 7.12216C44.0103 7.65246 44.0932 8.12145 44.2589 8.52912C44.4279 8.93348 44.6765 9.25166 45.0046 9.48366C45.3361 9.71236 45.747 9.8267 46.2376 9.8267ZM54.9279 11.1591C54.1921 11.1591 53.5574 10.9967 53.0238 10.6719C52.4935 10.3438 52.0842 9.88636 51.7958 9.29972C51.5108 8.70975 51.3683 8.02367 51.3683 7.24148C51.3683 6.45928 51.5108 5.76989 51.7958 5.1733C52.0842 4.57339 52.4852 4.10606 52.9989 3.77131C53.516 3.43324 54.1192 3.2642 54.8086 3.2642C55.2063 3.2642 55.5991 3.33049 55.9869 3.46307C56.3746 3.59564 56.7276 3.81108 57.0458 4.10938C57.364 4.40436 57.6175 4.79545 57.8065 5.28267C57.9954 5.76989 58.0898 6.36979 58.0898 7.08239V7.57955H52.2035V6.56534H56.8967C56.8967 6.13447 56.8105 5.75 56.6381 5.41193C56.4691 5.07386 56.2272 4.80705 55.9123 4.61151C55.6007 4.41596 55.2328 4.31818 54.8086 4.31818C54.3413 4.31818 53.9369 4.43419 53.5955 4.66619C53.2575 4.89489 52.9973 5.19318 52.815 5.56108C52.6327 5.92898 52.5415 6.32339 52.5415 6.74432V7.42045C52.5415 7.99716 52.641 8.48603 52.8398 8.88707C53.042 9.2848 53.3221 9.58807 53.68 9.79688C54.038 10.0024 54.454 10.1051 54.9279 10.1051C55.2362 10.1051 55.5146 10.062 55.7631 9.97585C56.015 9.88636 56.2321 9.75379 56.4144 9.57812C56.5967 9.39915 56.7376 9.17708 56.837 8.91193L57.9705 9.23011C57.8512 9.61458 57.6507 9.95265 57.369 10.2443C57.0872 10.5327 56.7392 10.758 56.3249 10.9205C55.9106 11.0795 55.445 11.1591 54.9279 11.1591ZM65.2837 5.07386L64.2298 5.37216C64.1635 5.1965 64.0657 5.0258 63.9364 4.86009C63.8105 4.69105 63.6381 4.55185 63.4194 4.44247C63.2006 4.3331 62.9206 4.27841 62.5792 4.27841C62.1119 4.27841 61.7224 4.38613 61.4109 4.60156C61.1026 4.81368 60.9485 5.08381 60.9485 5.41193C60.9485 5.7036 61.0546 5.93395 61.2667 6.10298C61.4788 6.27202 61.8103 6.41288 62.261 6.52557L63.3945 6.80398C64.0773 6.9697 64.5861 7.22325 64.9208 7.56463C65.2556 7.9027 65.4229 8.33854 65.4229 8.87216C65.4229 9.30966 65.297 9.70076 65.0451 10.0455C64.7965 10.3902 64.4485 10.6619 64.0011 10.8608C63.5536 11.0597 63.0333 11.1591 62.44 11.1591C61.6611 11.1591 61.0165 10.9901 60.506 10.652C59.9956 10.3139 59.6725 9.82008 59.5366 9.17045L60.6502 8.89205C60.7563 9.30303 60.9568 9.61127 61.2518 9.81676C61.5501 10.0223 61.9395 10.125 62.4201 10.125C62.967 10.125 63.4012 10.009 63.7227 9.77699C64.0475 9.54167 64.2099 9.25994 64.2099 8.93182C64.2099 8.66667 64.1171 8.4446 63.9315 8.26562C63.7459 8.08333 63.4608 7.94744 63.0763 7.85795L61.8036 7.55966C61.1043 7.39394 60.5906 7.13707 60.2624 6.78906C59.9376 6.43774 59.7752 5.99858 59.7752 5.47159C59.7752 5.04072 59.8962 4.65956 60.1381 4.32812C60.3834 3.99669 60.7165 3.73651 61.1374 3.54758C61.5617 3.35866 62.0423 3.2642 62.5792 3.2642C63.3349 3.2642 63.9281 3.42992 64.359 3.76136C64.7932 4.0928 65.1014 4.5303 65.2837 5.07386Z" fill="#A1A7C4"/>
</svg>
