<svg width="152" height="157" viewBox="0 0 152 157" fill="none" xmlns="http://www.w3.org/2000/svg">
<path d="M123.851 87.9392C123.931 88.006 123.989 88.0956 124.018 88.1966C124.048 88.2976 124.048 88.4054 124.019 88.5064C123.989 88.6075 123.931 88.6972 123.852 88.7642C123.773 88.8311 123.677 88.8724 123.575 88.8828C123.473 88.8932 123.371 88.8722 123.281 88.8224C123.191 88.7727 123.117 88.6964 123.069 88.6033C123.021 88.5103 123 88.4045 123.01 88.2995C123.02 88.1944 123.06 88.0948 123.125 88.0133C123.212 87.904 123.337 87.8348 123.473 87.8209C123.61 87.807 123.746 87.8496 123.851 87.9392Z" fill="black"/>
<path d="M126.072 89.8319C126.151 89.8994 126.209 89.9894 126.238 90.0906C126.267 90.1918 126.267 90.2998 126.237 90.4007C126.206 90.5017 126.148 90.5912 126.069 90.6578C125.989 90.7245 125.893 90.7654 125.791 90.7753C125.689 90.7852 125.587 90.7637 125.497 90.7136C125.407 90.6634 125.333 90.5868 125.285 90.4934C125.237 90.4 125.217 90.2941 125.228 90.189C125.238 90.0839 125.279 89.9844 125.344 89.9029C125.387 89.8487 125.44 89.8039 125.5 89.771C125.56 89.738 125.626 89.7177 125.694 89.7111C125.761 89.7045 125.83 89.7118 125.895 89.7325C125.96 89.7533 126.02 89.7871 126.072 89.8319Z" fill="black"/>
<path d="M128.293 91.7251C128.372 91.7926 128.43 91.8827 128.459 91.9841C128.488 92.0855 128.488 92.1936 128.458 92.2948C128.428 92.3959 128.369 92.4855 128.29 92.5523C128.21 92.6191 128.113 92.66 128.011 92.6699C127.909 92.6799 127.807 92.6583 127.717 92.6081C127.627 92.5578 127.553 92.481 127.505 92.3875C127.457 92.294 127.437 92.1878 127.448 92.0826C127.458 91.9773 127.498 91.8776 127.564 91.7961C127.652 91.6871 127.778 91.6185 127.914 91.6052C128.051 91.5919 128.187 91.635 128.293 91.7251Z" fill="black"/>
<path d="M73.1782 71.1652C73.1782 71.3069 73.2327 71.4428 73.3297 71.543C73.4267 71.6432 73.5582 71.6995 73.6954 71.6995C73.8326 71.6995 73.9641 71.6432 74.0611 71.543C74.1581 71.4428 74.2126 71.3069 74.2126 71.1652C74.2126 71.0235 74.1581 70.8876 74.0611 70.7874C73.9641 70.6872 73.8326 70.6309 73.6954 70.6309C73.5582 70.6309 73.4267 70.6872 73.3297 70.7874C73.2327 70.8876 73.1782 71.0235 73.1782 71.1652Z" fill="black"/>
<path d="M73.1782 74.1385C73.1782 74.2803 73.2327 74.4162 73.3297 74.5164C73.4267 74.6166 73.5582 74.6728 73.6954 74.6728C73.8326 74.6728 73.9641 74.6166 74.0611 74.5164C74.1581 74.4162 74.2126 74.2803 74.2126 74.1385C74.2126 73.9968 74.1581 73.8609 74.0611 73.7607C73.9641 73.6605 73.8326 73.6042 73.6954 73.6042C73.5582 73.6042 73.4267 73.6605 73.3297 73.7607C73.2327 73.8609 73.1782 73.9968 73.1782 74.1385Z" fill="black"/>
<path d="M73.1782 77.1119C73.1782 77.2536 73.2327 77.3895 73.3297 77.4897C73.4267 77.5899 73.5582 77.6462 73.6954 77.6462C73.8326 77.6462 73.9641 77.5899 74.0611 77.4897C74.1581 77.3895 74.2126 77.2536 74.2126 77.1119C74.2126 76.9702 74.1581 76.8343 74.0611 76.7341C73.9641 76.6339 73.8326 76.5776 73.6954 76.5776C73.5582 76.5776 73.4267 76.6339 73.3297 76.7341C73.2327 76.8343 73.1782 76.9702 73.1782 77.1119Z" fill="black"/>
<path d="M73.1782 80.0853C73.1782 80.227 73.2327 80.3629 73.3297 80.4631C73.4267 80.5633 73.5582 80.6196 73.6954 80.6196C73.8326 80.6196 73.9641 80.5633 74.0611 80.4631C74.1581 80.3629 74.2126 80.227 74.2126 80.0853C74.2126 79.9436 74.1581 79.8077 74.0611 79.7075C73.9641 79.6073 73.8326 79.551 73.6954 79.551C73.5582 79.551 73.4267 79.6073 73.3297 79.7075C73.2327 79.8077 73.1782 79.9436 73.1782 80.0853Z" fill="black"/>
<path d="M143.03 88.2525L137.575 95.0807C137.454 95.2309 137.376 95.4131 137.35 95.6067C137.323 95.8004 137.35 95.9977 137.427 96.1763C137.504 96.3549 137.628 96.5077 137.785 96.6173C137.941 96.7269 138.125 96.7891 138.314 96.7967H138.335C139.015 96.8128 139.677 97.0262 140.245 97.4127C140.813 97.7991 141.264 98.3429 141.547 98.9819C141.83 99.6209 141.934 100.329 141.845 101.026C141.757 101.723 141.481 102.38 141.048 102.922C140.615 103.464 140.043 103.869 139.398 104.092C138.753 104.314 138.06 104.344 137.399 104.178C136.738 104.013 136.135 103.659 135.66 103.156C135.184 102.654 134.856 102.023 134.711 101.336C134.71 101.329 134.708 101.322 134.706 101.314C134.663 101.124 134.569 100.95 134.435 100.812C134.301 100.674 134.132 100.577 133.948 100.533C133.764 100.488 133.571 100.498 133.392 100.561C133.213 100.624 133.054 100.737 132.934 100.889L127.431 107.774L120.571 101.924C120.48 101.783 120.424 101.621 120.406 101.452C120.389 101.284 120.411 101.114 120.471 100.956C120.531 100.798 120.628 100.658 120.752 100.547C120.876 100.436 121.024 100.358 121.184 100.319H121.205C121.87 100.17 122.481 99.8309 122.967 99.3401C123.454 98.8492 123.798 98.2267 123.958 97.5437C124.119 96.8607 124.09 96.1447 123.875 95.4778C123.66 94.8109 123.268 94.22 122.743 93.7726C122.219 93.3252 121.583 93.0394 120.908 92.948C120.234 92.8566 119.548 92.9631 118.929 93.2555C118.31 93.5479 117.784 94.0143 117.41 94.6014C117.036 95.1885 116.829 95.8725 116.814 96.5751V96.5939C116.808 96.7633 116.763 96.9288 116.682 97.0761C116.6 97.2234 116.486 97.3481 116.347 97.4394C116.209 97.5306 116.051 97.5858 115.888 97.6001C115.724 97.6143 115.56 97.5873 115.409 97.5213L108.483 91.6159L108.39 91.5379L114.107 84.383C114.171 84.2268 114.197 84.057 114.183 83.8881C114.169 83.7192 114.116 83.5563 114.028 83.4132C113.94 83.2702 113.82 83.1514 113.678 83.0669C113.535 82.9825 113.375 82.9349 113.212 82.9283H113.19C112.51 82.9123 111.848 82.6989 111.28 82.3124C110.712 81.9259 110.26 81.3819 109.977 80.7428C109.694 80.1036 109.591 79.395 109.68 78.6981C109.768 78.0012 110.045 77.3442 110.478 76.8021C110.911 76.26 111.483 75.8548 112.128 75.6328C112.774 75.4109 113.467 75.3811 114.128 75.547C114.789 75.7128 115.392 76.0676 115.867 76.5707C116.342 77.0738 116.67 77.7049 116.814 78.3918C116.817 78.3989 116.819 78.4062 116.82 78.4136C116.857 78.5786 116.932 78.7317 117.039 78.86C117.146 78.9883 117.282 79.0879 117.434 79.1502C117.586 79.2124 117.751 79.2356 117.914 79.2176C118.077 79.1996 118.233 79.1411 118.37 79.047L123.989 72.0168L130.746 77.7779C130.892 77.9022 131.002 78.0663 131.063 78.2515C131.124 78.4368 131.133 78.636 131.09 78.8266C131.048 79.0173 130.954 79.1918 130.821 79.3305C130.687 79.4692 130.519 79.5666 130.334 79.6117H130.313C129.648 79.7607 129.037 80.1 128.55 80.5908C128.063 81.0816 127.72 81.7042 127.559 82.3872C127.399 83.0702 127.428 83.7861 127.643 84.453C127.857 85.1199 128.25 85.7109 128.774 86.1582C129.299 86.6056 129.935 86.8914 130.61 86.9828C131.284 87.0743 131.97 86.9677 132.589 86.6753C133.207 86.3829 133.734 85.9165 134.108 85.3295C134.482 84.7424 134.689 84.0584 134.704 83.3557C134.703 83.3495 134.703 83.3432 134.704 83.337C134.711 83.1415 134.771 82.952 134.877 82.7899C134.983 82.6278 135.131 82.4996 135.304 82.4198C135.477 82.34 135.668 82.3118 135.855 82.3384C136.043 82.365 136.219 82.4453 136.365 82.5702L143.03 88.2525ZM128.362 92.4786C128.427 92.3971 128.468 92.2974 128.478 92.1921C128.489 92.0868 128.469 91.9807 128.421 91.8872C128.373 91.7936 128.299 91.7169 128.209 91.6666C128.119 91.6163 128.017 91.5948 127.915 91.6047C127.813 91.6146 127.716 91.6556 127.636 91.7224C127.557 91.7891 127.498 91.8788 127.468 91.9799C127.438 92.081 127.438 92.1891 127.467 92.2905C127.496 92.3919 127.554 92.4821 127.633 92.5496C127.739 92.6397 127.875 92.6828 128.012 92.6695C128.148 92.6562 128.274 92.5876 128.362 92.4786ZM126.141 90.5855C126.206 90.5041 126.247 90.4044 126.258 90.2991C126.268 90.1938 126.249 90.0876 126.201 89.994C126.153 89.9003 126.079 89.8234 125.989 89.773C125.899 89.7226 125.797 89.7009 125.695 89.7108C125.592 89.7206 125.496 89.7615 125.416 89.8282C125.336 89.895 125.278 89.9846 125.248 90.0858C125.217 90.187 125.217 90.2951 125.246 90.3966C125.276 90.498 125.333 90.5882 125.412 90.6557C125.465 90.7007 125.525 90.7345 125.59 90.7553C125.655 90.7761 125.723 90.7835 125.791 90.7769C125.858 90.7704 125.924 90.7501 125.984 90.7173C126.044 90.6845 126.098 90.6397 126.141 90.5855ZM123.923 88.6917C123.988 88.6103 124.028 88.5109 124.039 88.4061C124.049 88.3012 124.029 88.1956 123.981 88.1025C123.933 88.0094 123.86 87.9331 123.77 87.8831C123.68 87.8331 123.578 87.8117 123.476 87.8216C123.375 87.8314 123.278 87.8722 123.199 87.9386C123.12 88.0051 123.062 88.0942 123.031 88.1949C123.001 88.2956 123.001 88.4032 123.03 88.5043C123.059 88.6053 123.116 88.6952 123.194 88.7627C123.246 88.8077 123.307 88.8416 123.372 88.8624C123.437 88.8832 123.505 88.8905 123.573 88.8839C123.641 88.8773 123.707 88.8569 123.767 88.8239C123.827 88.7909 123.88 88.746 123.923 88.6917Z" fill="#81F8F8"/>
<path d="M117.998 50.0067C118.078 50.7397 117.947 51.4809 117.622 52.1374C117.296 52.7939 116.79 53.3363 116.166 53.6965C115.543 54.0567 114.831 54.2187 114.119 54.1622C113.407 54.1056 112.727 53.833 112.164 53.3786C112.158 53.3738 112.152 53.3694 112.146 53.3653C111.995 53.2468 111.815 53.1742 111.627 53.1557C111.439 53.1372 111.249 53.1735 111.079 53.2606C110.91 53.3477 110.767 53.4821 110.668 53.6485C110.569 53.8149 110.516 54.0067 110.517 54.2023V63.1309H101.621C101.464 63.0821 101.321 62.9947 101.204 62.8763C101.087 62.7579 100.999 62.612 100.949 62.4511C100.898 62.2901 100.886 62.1189 100.913 61.952C100.941 61.7852 101.007 61.6277 101.106 61.4929C101.111 61.4875 101.114 61.482 101.119 61.4766C101.559 60.8955 101.824 60.1929 101.879 59.457C101.934 58.7211 101.778 57.9848 101.429 57.3406C101.08 56.6964 100.555 56.173 99.9192 55.8362C99.2835 55.4995 98.5656 55.3644 97.8557 55.4479C97.2162 55.5251 96.6082 55.7768 96.0941 56.1773C95.58 56.5777 95.1785 57.1125 94.9308 57.7265C94.6831 58.3404 94.5983 59.0115 94.6849 59.6706C94.7716 60.3297 95.0266 60.9531 95.4239 61.4766C95.4292 61.482 95.4314 61.4875 95.4367 61.4929C95.5362 61.6276 95.6025 61.7851 95.6301 61.952C95.6577 62.119 95.6456 62.2903 95.595 62.4514C95.5444 62.6125 95.4567 62.7585 95.3394 62.8768C95.2221 62.9952 95.0788 63.0824 94.9218 63.1309H85.8225V53.8536C85.7752 53.6916 85.6907 53.5438 85.5761 53.4229C85.4615 53.302 85.3202 53.2115 85.1645 53.1592C85.0087 53.107 84.8429 53.0944 84.6814 53.1227C84.5199 53.151 84.3674 53.2193 84.237 53.3217C84.2317 53.3271 84.2265 53.3295 84.2212 53.3349C83.6867 53.7695 83.0446 54.0399 82.3683 54.1152C81.692 54.1905 81.0089 54.0677 80.3971 53.7607C79.7852 53.4538 79.2693 52.9752 78.9083 52.3796C78.5474 51.784 78.356 51.0955 78.356 50.3928C78.356 49.6901 78.5474 49.0015 78.9083 48.4059C79.2693 47.8103 79.7852 47.3317 80.3971 47.0248C81.0089 46.7178 81.692 46.595 82.3683 46.6703C83.0446 46.7456 83.6867 47.016 84.2212 47.4506C84.2265 47.4561 84.2317 47.4592 84.237 47.4646C84.3674 47.567 84.5199 47.6353 84.6814 47.6636C84.8429 47.6919 85.0087 47.6793 85.1645 47.6271C85.3202 47.5748 85.4615 47.4843 85.5761 47.3634C85.6907 47.2425 85.7752 47.0947 85.8225 46.9327V37.8145H94.5805C94.77 37.8135 94.9559 37.8674 95.1173 37.9701C95.2786 38.0727 95.4088 38.22 95.4933 38.3953C95.5777 38.5705 95.6129 38.7667 95.5949 38.9615C95.5769 39.1564 95.5064 39.3421 95.3914 39.4977C95.3881 39.5039 95.3837 39.5094 95.3786 39.5141C94.9578 40.0663 94.6959 40.7296 94.623 41.4283C94.55 42.127 94.6688 42.8329 94.9659 43.4651C95.263 44.0973 95.7262 44.6303 96.3028 45.0033C96.8793 45.3762 97.5458 45.574 98.2261 45.574C98.9063 45.574 99.5728 45.3762 100.149 45.0033C100.726 44.6303 101.189 44.0973 101.486 43.4651C101.783 42.8329 101.902 42.127 101.829 41.4283C101.756 40.7296 101.494 40.0663 101.074 39.5141C101.068 39.5086 101.066 39.5032 101.061 39.4977C100.946 39.3418 100.876 39.1559 100.858 38.9608C100.84 38.7658 100.876 38.5695 100.96 38.3943C101.045 38.2191 101.176 38.0719 101.337 37.9694C101.499 37.8669 101.685 37.8132 101.875 37.8145H110.517V46.6706C110.516 46.8662 110.568 47.0581 110.668 47.2247C110.767 47.3912 110.91 47.5257 111.079 47.6129C111.249 47.7 111.438 47.7365 111.627 47.718C111.815 47.6995 111.995 47.6269 112.146 47.5083L112.161 47.4943C112.668 47.0837 113.272 46.82 113.91 46.7304C114.548 46.6407 115.197 46.7284 115.792 46.9843C116.386 47.2402 116.904 47.6551 117.292 48.1863C117.679 48.7175 117.923 49.3458 117.998 50.0067Z" fill="#81F8F8"/>
<path d="M92.0263 112.946L92.1101 112.957C93.5733 113.102 96.0135 115.838 96.5707 117.78C97.1279 119.722 96.2906 120.917 95.8232 125.282C95.3559 129.646 91.1309 136.188 91.1309 136.188L93.9455 152.916H72.006L70.7165 142.491C70.7165 142.491 70.339 142.556 67.4345 140.47C64.53 138.383 62.074 128.324 60.456 125.64C59.8871 124.752 59.5162 123.744 59.3701 122.69C59.224 121.635 59.3063 120.561 59.6112 119.543C59.9275 118.311 63.1936 115.806 64.4243 114.137C65.4883 112.782 66.6331 111.497 67.852 110.29L67.9471 110.309C68.5078 107.597 68.7253 104.822 68.5941 102.052C68.4937 100.202 69.0902 95.6415 69.9403 91.3773C70.3495 89.3345 70.8146 87.3595 71.2925 85.7855C72.7633 80.9183 77.1543 82.752 76.7874 86.4945C76.6628 87.7386 76.3993 89.6667 76.2091 91.3531C76.1109 92.1986 76.0324 92.9817 76.0007 93.5901C75.9835 95.6035 76.0654 97.6164 76.2461 99.6211C76.3435 101.395 75.2767 106.125 75.6421 106.463C75.8837 106.617 76.1553 106.714 76.4374 106.746C76.7195 106.779 77.0051 106.746 77.2736 106.651C77.4903 106.463 78.1449 102.529 78.9769 100.131C79.8089 97.7335 84.6009 98.8926 85.636 100.505C86.2566 101.471 86.0618 103.326 85.8051 104.835L85.8368 104.84C86.4997 103.711 88.1871 103.951 90.0724 104.395C91.9576 104.84 92.3804 106.378 92.4967 107.671C92.4514 109.438 92.2942 111.2 92.0263 112.946Z" fill="#FFD997"/>
<path d="M85.8229 82.1014V91.3788H76.4148L76.2064 91.3546C76.3967 89.6682 76.6594 87.7401 76.7848 86.496C77.1517 82.752 72.7606 80.9197 71.2899 85.7869C70.812 87.361 70.3469 89.3359 69.9377 91.3788H61.3193V82.4501C61.3186 82.2544 61.3708 82.0624 61.4703 81.8959C61.5697 81.7293 61.7123 81.5949 61.8819 81.5078C62.0515 81.4206 62.2413 81.3844 62.4298 81.403C62.6184 81.4216 62.7981 81.4944 62.9486 81.6132C62.9543 81.6181 62.9604 81.6226 62.9668 81.6264C63.5013 82.061 64.1434 82.3314 64.8196 82.4067C65.4959 82.482 66.179 82.3592 66.7909 82.0522C67.4027 81.7453 67.9187 81.2667 68.2796 80.6711C68.6406 80.0755 68.832 79.387 68.832 78.6843C68.832 77.9816 68.6406 77.293 68.2796 76.6974C67.9187 76.1019 67.4027 75.6232 66.7909 75.3163C66.179 75.0094 65.4959 74.8865 64.8196 74.9618C64.1434 75.0371 63.5013 75.3075 62.9668 75.7421C62.9615 75.7476 62.9562 75.7507 62.9509 75.7561C62.8002 75.8746 62.6205 75.9472 62.432 75.9656C62.2435 75.9841 62.0537 75.9476 61.8842 75.8605C61.7147 75.7733 61.5722 75.6389 61.4727 75.4724C61.3733 75.3059 61.321 75.114 61.3216 74.9184V65.9898H69.8901C70.0795 65.9904 70.2652 65.9363 70.4264 65.8336C70.5875 65.7309 70.7176 65.5837 70.802 65.4085C70.8863 65.2334 70.9216 65.0374 70.9037 64.8426C70.8859 64.6479 70.8157 64.4622 70.701 64.3065C70.6957 64.3011 70.6927 64.2956 70.6874 64.2901C70.2667 63.7379 70.005 63.0746 69.9321 62.3759C69.8592 61.6773 69.9781 60.9715 70.2752 60.3394C70.5723 59.7073 71.0356 59.1743 71.6121 58.8014C72.1886 58.4285 72.8551 58.2307 73.5352 58.2307C74.2154 58.2307 74.8819 58.4285 75.4584 58.8014C76.0349 59.1743 76.4982 59.7073 76.7953 60.3394C77.0924 60.9715 77.2113 61.6773 77.1384 62.3759C77.0655 63.0746 76.8038 63.7379 76.3831 64.2901C76.3779 64.2948 76.3736 64.3003 76.3703 64.3065C76.2553 64.462 76.1849 64.6477 76.1668 64.8425C76.1488 65.0373 76.1839 65.2334 76.2683 65.4086C76.3526 65.5838 76.4827 65.7311 76.6439 65.8339C76.8051 65.9366 76.991 65.9906 77.1804 65.9898H85.8229V75.1805C85.7756 75.3425 85.691 75.4903 85.5764 75.6112C85.4618 75.7322 85.3206 75.8226 85.1648 75.8749C85.009 75.9272 84.8433 75.9397 84.6818 75.9114C84.5203 75.8831 84.3678 75.8149 84.2374 75.7125C84.2321 75.707 84.2268 75.7039 84.2215 75.6984C83.687 75.2638 83.0449 74.9934 82.3686 74.9181C81.6924 74.8428 81.0093 74.9657 80.3974 75.2726C79.7855 75.5795 79.2696 76.0582 78.9087 76.6538C78.5477 77.2494 78.3563 77.9379 78.3563 78.6406C78.3563 79.3433 78.5477 80.0318 78.9087 80.6274C79.2696 81.223 79.7855 81.7016 80.3974 82.0086C81.0093 82.3155 81.6924 82.4383 82.3686 82.363C83.0449 82.2877 83.687 82.0173 84.2215 81.5827C84.2268 81.5773 84.2321 81.5749 84.2374 81.5695C84.3678 81.4671 84.5203 81.3988 84.6818 81.3705C84.8433 81.3423 85.009 81.3548 85.1648 81.4071C85.3206 81.4593 85.4618 81.5498 85.5764 81.6707C85.691 81.7916 85.7756 81.9394 85.8229 82.1014ZM74.2125 71.1651C74.2126 71.0592 74.1824 70.9556 74.1255 70.8675C74.0687 70.7794 73.9878 70.7107 73.8931 70.6701C73.7984 70.6295 73.6942 70.6188 73.5937 70.6394C73.4932 70.6601 73.4008 70.711 73.3283 70.7859C73.2558 70.8608 73.2065 70.9562 73.1865 71.0601C73.1666 71.164 73.1769 71.2716 73.2162 71.3694C73.2555 71.4672 73.322 71.5508 73.4073 71.6095C73.4926 71.6682 73.5928 71.6995 73.6953 71.6994C73.8324 71.6992 73.9638 71.6428 74.0608 71.5426C74.1577 71.4425 74.2123 71.3067 74.2125 71.1651ZM74.2125 74.1384C74.2126 74.0325 74.1824 73.929 74.1255 73.8409C74.0687 73.7527 73.9878 73.684 73.8931 73.6434C73.7984 73.6028 73.6942 73.5922 73.5937 73.6128C73.4932 73.6334 73.4008 73.6844 73.3283 73.7593C73.2558 73.8342 73.2065 73.9296 73.1865 74.0334C73.1666 74.1373 73.1769 74.245 73.2162 74.3428C73.2555 74.4406 73.322 74.5241 73.4073 74.5829C73.4926 74.6416 73.5928 74.6729 73.6953 74.6727C73.8324 74.6725 73.9638 74.6162 74.0608 74.516C74.1577 74.4158 74.2123 74.2801 74.2125 74.1384ZM74.2125 77.1118C74.2125 77.0059 74.1821 76.9024 74.1251 76.8144C74.0682 76.7264 73.9873 76.6578 73.8926 76.6174C73.7979 76.5769 73.6937 76.5663 73.5932 76.587C73.4927 76.6078 73.4005 76.6588 73.328 76.7337C73.2556 76.8086 73.2064 76.904 73.1865 77.0079C73.1666 77.1117 73.1769 77.2193 73.2163 77.3171C73.2556 77.4148 73.3221 77.4984 73.4074 77.5571C73.4926 77.6158 73.5928 77.647 73.6953 77.6469C73.7633 77.6469 73.8306 77.633 73.8934 77.6061C73.9562 77.5792 74.0132 77.5398 74.0613 77.4901C74.1093 77.4404 74.1474 77.3814 74.1733 77.3165C74.1993 77.2516 74.2126 77.182 74.2125 77.1118ZM74.2125 80.0851C74.2125 79.9793 74.1821 79.8758 74.1251 79.7878C74.0682 79.6998 73.9873 79.6312 73.8926 79.5907C73.7979 79.5502 73.6937 79.5397 73.5932 79.5604C73.4927 79.5811 73.4005 79.6322 73.328 79.7071C73.2556 79.782 73.2064 79.8774 73.1865 79.9812C73.1666 80.0851 73.1769 80.1927 73.2163 80.2905C73.2556 80.3882 73.3221 80.4717 73.4074 80.5304C73.4926 80.5891 73.5928 80.6204 73.6953 80.6202C73.8325 80.62 73.9641 80.5635 74.0611 80.4632C74.158 80.3629 74.2125 80.2269 74.2125 80.0851Z" fill="#81F8F8"/>
<path d="M72.399 26.0748C72.5463 26.293 72.7394 26.4739 72.9639 26.6042C73.1883 26.7346 73.4383 26.8109 73.6953 26.8275C75.0634 26.8275 76.1694 24.5476 76.1694 21.7349C76.2347 20.2137 75.8336 18.7099 75.0233 17.4379C74.8759 17.2089 74.6794 17.0179 74.4492 16.8798C74.2189 16.7417 73.961 16.6602 73.6953 16.6415C72.3272 16.6415 71.2212 18.9222 71.2212 21.7349C71.1512 23.2748 71.5643 24.7969 72.399 26.0748ZM85.8229 28.5794V37.7421H77.1804C76.991 37.7429 76.8051 37.6889 76.6439 37.5862C76.4827 37.4835 76.3526 37.3361 76.2683 37.1609C76.1839 36.9857 76.1488 36.7896 76.1668 36.5948C76.1849 36.4 76.2553 36.2144 76.3703 36.0588C76.3741 36.0523 76.3784 36.046 76.3831 36.0401C76.8038 35.4879 77.0655 34.8245 77.1384 34.1259C77.2113 33.4272 77.0924 32.7215 76.7953 32.0894C76.4982 31.4572 76.0349 30.9242 75.4584 30.5513C74.8819 30.1784 74.2154 29.9807 73.5352 29.9807C72.8551 29.9807 72.1886 30.1784 71.6121 30.5513C71.0356 30.9242 70.5723 31.4572 70.2752 32.0894C69.9781 32.7215 69.8592 33.4272 69.9321 34.1259C70.005 34.8245 70.2667 35.4879 70.6874 36.0401C70.6927 36.0456 70.6957 36.051 70.701 36.0565C70.8157 36.2122 70.8859 36.3979 70.9037 36.5926C70.9216 36.7874 70.8863 36.9834 70.802 37.1585C70.7176 37.3336 70.5875 37.4809 70.4264 37.5836C70.2652 37.6863 70.0795 37.7404 69.8901 37.7397H61.3193V28.9257C61.3186 28.7301 61.3708 28.5381 61.4703 28.3715C61.5697 28.205 61.7123 28.0705 61.8819 27.9834C62.0515 27.8963 62.2413 27.86 62.4298 27.8786C62.6184 27.8972 62.7981 27.97 62.9486 28.0888C62.955 28.0927 62.9611 28.0971 62.9668 28.1021C63.5013 28.5366 64.1434 28.807 64.8196 28.8823C65.4959 28.9576 66.179 28.8348 66.7909 28.5279C67.4027 28.2209 67.9187 27.7423 68.2796 27.1467C68.6406 26.5511 68.832 25.8626 68.832 25.1599C68.832 24.4572 68.6406 23.7687 68.2796 23.1731C67.9187 22.5775 67.4027 22.0989 66.7909 21.7919C66.179 21.485 65.4959 21.3622 64.8196 21.4375C64.1434 21.5128 63.5013 21.7832 62.9668 22.2177C62.9615 22.2177 62.9562 22.2263 62.9509 22.2287C62.8005 22.3473 62.621 22.4201 62.4327 22.4388C62.2443 22.4575 62.0547 22.4214 61.8852 22.3346C61.7156 22.2477 61.573 22.1136 61.4734 21.9474C61.3738 21.7812 61.3213 21.5895 61.3216 21.3941V12.4646H69.8901C70.0795 12.4653 70.2652 12.4112 70.4264 12.3085C70.5875 12.2058 70.7176 12.0585 70.802 11.8834C70.8863 11.7083 70.9216 11.5122 70.9037 11.3175C70.8859 11.1227 70.8157 10.937 70.701 10.7814C70.6957 10.7759 70.6927 10.7705 70.6874 10.765C70.2667 10.2128 70.005 9.54943 69.9321 8.85077C69.8592 8.15212 69.9781 7.44637 70.2752 6.81424C70.5723 6.18212 71.0356 5.64913 71.6121 5.27623C72.1886 4.90332 72.8551 4.70557 73.5352 4.70557C74.2154 4.70557 74.8819 4.90332 75.4584 5.27623C76.0349 5.64913 76.4982 6.18212 76.7953 6.81424C77.0924 7.44637 77.2113 8.15212 77.1384 8.85077C77.0655 9.54943 76.8038 10.2128 76.3831 10.765C76.3779 10.7705 76.3735 10.7768 76.3703 10.7837C76.2553 10.9392 76.1849 11.1249 76.1668 11.3197C76.1488 11.5145 76.1839 11.7106 76.2683 11.8858C76.3526 12.061 76.4827 12.2083 76.6439 12.311C76.8051 12.4138 76.991 12.4678 77.1804 12.467H85.8229V21.6585C85.7756 21.8205 85.691 21.9683 85.5764 22.0892C85.4618 22.2101 85.3206 22.3006 85.1648 22.3529C85.009 22.4051 84.8433 22.4177 84.6818 22.3894C84.5203 22.3611 84.3678 22.2928 84.2374 22.1904C84.2321 22.185 84.2268 22.1819 84.2215 22.1764C83.6871 21.7414 83.045 21.4707 82.3686 21.3951C81.6922 21.3195 81.0089 21.4422 80.3968 21.749C79.7847 22.0558 79.2686 22.5345 78.9075 23.1302C78.5464 23.7259 78.3549 24.4145 78.3549 25.1174C78.3549 25.8203 78.5464 26.5089 78.9075 27.1046C79.2686 27.7003 79.7847 28.1789 80.3968 28.4858C81.0089 28.7926 81.6922 28.9153 82.3686 28.8397C83.045 28.7641 83.6871 28.4933 84.2215 28.0584C84.2273 28.0556 84.2326 28.0519 84.2374 28.0475C84.3677 27.9447 84.5202 27.8761 84.6818 27.8476C84.8434 27.8191 85.0092 27.8316 85.1651 27.8839C85.3211 27.9362 85.4624 28.0268 85.5769 28.148C85.6915 28.2691 85.7759 28.4172 85.8229 28.5794Z" fill="#81F8F8"/>
<path d="M75.0233 17.4377C75.8336 18.7098 76.2347 20.2135 76.1694 21.7348C76.1694 24.5474 75.0633 26.8274 73.6953 26.8274C73.4383 26.8107 73.1883 26.7344 72.9638 26.6041C72.7394 26.4738 72.5463 26.2928 72.3989 26.0747L75.0233 17.4377Z" fill="#81F8F8"/>
<path d="M75.0232 17.4377L72.3988 26.0747C71.5641 24.7968 71.151 23.2747 71.221 21.7348C71.221 18.9221 72.3271 16.6414 73.6951 16.6414C73.9608 16.66 74.2187 16.7416 74.449 16.8797C74.6793 17.0177 74.8757 17.2087 75.0232 17.4377Z" fill="#81F8F8"/>
<path d="M68.7996 50.0066C68.8802 50.7397 68.7494 51.4809 68.4236 52.1374C68.0978 52.7939 67.5915 53.3363 66.9684 53.6965C66.3452 54.0567 65.6329 54.2187 64.921 54.1622C64.209 54.1056 63.529 53.833 62.9665 53.3786C62.9608 53.3737 62.9548 53.3692 62.9484 53.3653C62.7979 53.2466 62.6181 53.1738 62.4296 53.1551C62.241 53.1365 62.0512 53.1728 61.8816 53.2599C61.712 53.347 61.5694 53.4815 61.47 53.648C61.3706 53.8146 61.3183 54.0066 61.3191 54.2023V63.1309H52.3414C52.1843 63.0824 52.041 62.9952 51.9238 62.8768C51.8065 62.7585 51.7188 62.6125 51.6682 62.4514C51.6175 62.2903 51.6055 62.119 51.6331 61.952C51.6606 61.7851 51.727 61.6275 51.8265 61.4929C51.8265 61.4875 51.834 61.482 51.8371 61.4765C52.2581 60.9244 52.5202 60.261 52.5933 59.5622C52.6665 58.8635 52.5478 58.1575 52.2508 57.5252C51.9538 56.8928 51.4905 56.3596 50.9139 55.9865C50.3373 55.6135 49.6707 55.4156 48.9903 55.4156C48.31 55.4156 47.6434 55.6135 47.0668 55.9865C46.4902 56.3596 46.0269 56.8928 45.7299 57.5252C45.4329 58.1575 45.3142 58.8635 45.3873 59.5622C45.4605 60.261 45.7226 60.9244 46.1436 61.4765C46.1475 61.4826 46.152 61.4881 46.1572 61.4929C46.2561 61.6277 46.3221 61.7852 46.3493 61.952C46.3766 62.1188 46.3645 62.29 46.3139 62.4509C46.2633 62.6118 46.1758 62.7576 46.0589 62.876C45.9419 62.9945 45.799 63.0819 45.6423 63.1309H36.7408V54.2023C36.7416 54.0066 36.6893 53.8146 36.5899 53.648C36.4905 53.4815 36.3479 53.347 36.1783 53.2599C36.0087 53.1728 35.8189 53.1365 35.6304 53.1551C35.4418 53.1738 35.2621 53.2466 35.1115 53.3653C35.1056 53.3688 35.1002 53.3732 35.0957 53.3786C34.5612 53.8132 33.9191 54.0836 33.2428 54.1589C32.5666 54.2342 31.8834 54.1113 31.2716 53.8044C30.6597 53.4975 30.1438 53.0188 29.7828 52.4232C29.4219 51.8276 29.2305 51.1391 29.2305 50.4364C29.2305 49.7337 29.4219 49.0452 29.7828 48.4496C30.1438 47.854 30.6597 47.3754 31.2716 47.0684C31.8834 46.7615 32.5666 46.6387 33.2428 46.714C33.9191 46.7893 34.5612 47.0597 35.0957 47.4943C35.0957 47.4997 35.1032 47.5028 35.1085 47.5083C35.2592 47.6277 35.4392 47.701 35.6282 47.7199C35.8172 47.7389 36.0075 47.7026 36.1776 47.6154C36.3476 47.5281 36.4905 47.3933 36.5901 47.2263C36.6897 47.0593 36.7419 46.8667 36.7408 46.6706V37.8145H45.3863C45.5757 37.8137 45.7616 37.8677 45.9228 37.9704C46.084 38.0731 46.2141 38.2204 46.2985 38.3956C46.3828 38.5708 46.4179 38.7669 46.3999 38.9617C46.3819 39.1565 46.3114 39.3422 46.1965 39.4977C46.1965 39.5032 46.1889 39.5086 46.1859 39.5141C45.7663 40.0659 45.5054 40.7285 45.433 41.4262C45.3606 42.1239 45.4797 42.8286 45.7766 43.4597C46.0736 44.0908 46.5363 44.6229 47.1121 44.9951C47.6879 45.3674 48.3534 45.5648 49.0326 45.5648C49.7118 45.5648 50.3773 45.3674 50.9531 44.9951C51.5289 44.6229 51.9917 44.0908 52.2886 43.4597C52.5855 42.8286 52.7046 42.1239 52.6322 41.4262C52.5599 40.7285 52.299 40.0659 51.8793 39.5141C51.8755 39.5081 51.8709 39.5026 51.8657 39.4977C51.7514 39.342 51.6814 39.1563 51.6637 38.9617C51.646 38.767 51.6813 38.5711 51.7656 38.3961C51.8499 38.2211 51.9799 38.0739 52.1409 37.9711C52.3018 37.8684 52.4874 37.8141 52.6766 37.8145H61.3191V46.6706C61.3185 46.8662 61.3708 47.0581 61.4702 47.2246C61.5697 47.3911 61.7122 47.5255 61.8817 47.6126C62.0512 47.6998 62.241 47.7362 62.4295 47.7178C62.618 47.6993 62.7977 47.6268 62.9484 47.5083L62.9642 47.4943C63.7024 46.8912 64.64 46.6111 65.5758 46.7143C66.3949 46.804 67.1602 47.1787 67.746 47.777C68.3318 48.3752 68.7034 49.1615 68.7996 50.0066Z" fill="#81F8F8"/>
<path d="M20.9456 82.8353L23.9271 85.6363L26.6391 82.5592L23.6576 79.7582L20.9456 82.8353ZM42.8142 80.0032L37.0475 86.5505C36.9197 86.6949 36.8335 86.8734 36.7986 87.0658C36.7638 87.2582 36.7816 87.4568 36.8503 87.6392C36.9189 87.8217 37.0355 87.9807 37.187 88.0983C37.3384 88.2158 37.5187 88.2873 37.7074 88.3047H37.7263C38.4047 88.3546 39.0559 88.6008 39.6053 89.0151C40.1547 89.4294 40.5801 89.995 40.833 90.6474C41.0858 91.2997 41.1559 92.0124 41.0351 92.7039C40.9144 93.3954 40.6077 94.0379 40.1501 94.5578C39.6926 95.0778 39.1026 95.4542 38.4478 95.644C37.7929 95.8338 37.0995 95.8295 36.4469 95.6313C35.7943 95.4332 35.2089 95.0493 34.7576 94.5237C34.3062 93.998 34.0072 93.3517 33.8946 92.6587V92.6368C33.8604 92.4444 33.7747 92.2658 33.6473 92.121C33.5199 91.9763 33.3558 91.8713 33.1737 91.8179C32.9915 91.7645 32.7985 91.7649 32.6165 91.8189C32.4345 91.8729 32.2708 91.9784 32.1438 92.1236L26.3303 98.7278L8.14764 81.6404L8.06006 81.5585L14.1001 74.6945C14.1709 74.5418 14.2049 74.3737 14.199 74.2045C14.193 74.0353 14.1475 73.8702 14.0662 73.7232C13.9849 73.5762 13.8702 73.4518 13.7321 73.3607C13.594 73.2695 13.4366 73.2144 13.2733 73.2C13.2674 73.2017 13.2611 73.2017 13.2552 73.2C12.5764 73.1507 11.9248 72.905 11.3748 72.491C10.8249 72.0769 10.3989 71.5113 10.1456 70.8588C9.89234 70.2064 9.82198 69.4934 9.94261 68.8015C10.0632 68.1097 10.37 67.4669 10.8277 66.9467C11.2854 66.4265 11.8757 66.05 12.5309 65.8602C13.1861 65.6704 13.8798 65.6751 14.5325 65.8736C15.1853 66.0721 15.7708 66.4564 16.222 66.9827C16.6732 67.5089 16.9719 68.1557 17.0838 68.8492C17.0862 68.8563 17.088 68.8636 17.0891 68.871C17.1184 69.0376 17.1864 69.1943 17.2873 69.3277C17.3882 69.4611 17.5189 69.5673 17.6682 69.637C17.8175 69.7067 17.981 69.738 18.1446 69.7281C18.3082 69.7181 18.467 69.6673 18.6074 69.58L24.5462 62.8369L31.0287 68.9287C31.1692 69.0598 31.2714 69.2289 31.3238 69.4169C31.3761 69.6049 31.3764 69.8042 31.3247 69.9924C31.273 70.1806 31.1713 70.35 31.0312 70.4816C30.8911 70.6131 30.7181 70.7015 30.5319 70.7368C30.5249 70.7381 30.5177 70.7381 30.5107 70.7368C29.8397 70.8524 29.2136 71.161 28.7043 71.627C28.195 72.093 27.823 72.6978 27.6308 73.372C27.4386 74.0463 27.434 74.7628 27.6176 75.4397C27.8011 76.1165 28.1653 76.7263 28.6686 77.1993C29.1719 77.6722 29.7939 77.9893 30.4634 78.1141C31.133 78.239 31.823 78.1666 32.4546 77.9053C33.0862 77.644 33.6338 77.2042 34.0348 76.6364C34.4358 76.0686 34.674 75.3956 34.7221 74.6945C34.7238 74.6883 34.7238 74.6819 34.7221 74.6758C34.7383 74.4808 34.807 74.2944 34.9204 74.1378C35.0339 73.9811 35.1876 73.8604 35.3641 73.7895C35.5406 73.7185 35.7328 73.7 35.9189 73.7362C36.105 73.7723 36.2776 73.8617 36.4171 73.994L42.8142 80.0032Z" fill="#81F8F8"/>
<path d="M20.9404 82.8332L23.6511 79.7573L26.6306 82.5599L23.9199 85.6357L20.9404 82.8332Z" fill="#81F8F8"/>
<path d="M93.945 152.916L91.1304 136.188C91.1304 136.188 95.3523 129.644 95.8227 125.281C96.2931 120.919 97.1266 119.725 96.5694 117.78C96.0122 115.836 93.5728 113.1 92.1096 112.957" stroke="black" stroke-width="0.980065" stroke-linecap="round" stroke-linejoin="round"/>
<path d="M67.8471 110.291C66.6282 111.499 65.4835 112.784 64.4194 114.138C63.1887 115.807 59.9226 118.312 59.6063 119.544C59.3014 120.562 59.2191 121.637 59.3652 122.691C59.5113 123.746 59.8822 124.753 60.4511 125.642C62.0668 128.326 64.5281 138.384 67.4296 140.471C70.331 142.558 70.7161 142.49 70.7161 142.49L72.0079 152.914" stroke="black" stroke-width="0.980065" stroke-linecap="round" stroke-linejoin="round"/>
<path d="M92.4933 115.485C92.1977 115.062 91.9982 114.576 91.9097 114.062C91.9097 113.917 91.9573 113.503 92.026 112.946C92.2927 111.201 92.4488 109.441 92.4933 107.675C92.3771 106.38 91.9543 104.842 90.069 104.399C88.1838 103.957 86.4964 103.715 85.8335 104.844" stroke="black" stroke-width="0.980065" stroke-linecap="round" stroke-linejoin="round"/>
<path d="M85.8333 108.974C85.4324 108.712 85.4324 107.85 85.4324 107.024C85.4324 106.694 85.6302 105.843 85.8016 104.834C86.0583 103.325 86.2546 101.47 85.6325 100.504C84.5974 98.8919 79.8077 97.7304 78.9734 100.13C78.1391 102.531 77.4868 106.463 77.2701 106.651C77.0016 106.746 76.716 106.778 76.4339 106.746C76.1518 106.713 75.8802 106.617 75.6386 106.463C75.2739 106.124 76.3407 101.393 76.2426 99.6204C76.0619 97.6157 75.98 95.6027 75.9972 93.5894C76.0289 92.981 76.1074 92.1979 76.2056 91.3524C76.3958 89.666 76.6586 87.7379 76.7839 86.4938C77.1508 82.7498 72.7597 80.9175 71.289 85.7847C70.8111 87.3588 70.346 89.3337 69.9368 91.3766C69.0867 95.6408 68.4902 100.201 68.5906 102.051C68.7218 104.821 68.5043 107.597 67.9436 110.309C67.6889 111.556 67.3653 112.787 66.9742 113.997C65.3955 118.888 62.8896 119.174 63.631 122.628" stroke="black" stroke-width="0.980065" stroke-linecap="round" stroke-linejoin="round"/>
<path d="M70.7163 142.49C71.5132 142.792 72.3283 143.04 73.1565 143.232" stroke="black" stroke-width="0.980065" stroke-linecap="round" stroke-linejoin="round"/>
<path d="M72.7103 84.7449C72.1984 86.223 71.6125 87.5108 72.1244 88.3812C72.6363 89.2517 75.0583 89.1394 75.5332 88.3812C76.0081 87.6231 75.9741 85.503 75.8262 85.0093" stroke="black" stroke-width="0.980065" stroke-linecap="round" stroke-linejoin="round"/>
<path d="M76.4146 91.3788H85.8227V82.1014C85.7754 81.9394 85.6908 81.7916 85.5762 81.6707C85.4616 81.5498 85.3204 81.4593 85.1646 81.4071C85.0088 81.3548 84.8431 81.3423 84.6816 81.3705C84.5201 81.3988 84.3676 81.4671 84.2372 81.5695C84.2319 81.5749 84.2266 81.5773 84.2213 81.5827C83.6868 82.0173 83.0447 82.2877 82.3685 82.363C81.6922 82.4383 81.0091 82.3155 80.3972 82.0086C79.7853 81.7016 79.2694 81.223 78.9085 80.6274C78.5475 80.0318 78.3561 79.3433 78.3561 78.6406C78.3561 77.9379 78.5475 77.2494 78.9085 76.6538C79.2694 76.0582 79.7853 75.5795 80.3972 75.2726C81.0091 74.9657 81.6922 74.8428 82.3685 74.9181C83.0447 74.9934 83.6868 75.2638 84.2213 75.6984C84.2266 75.7039 84.2319 75.707 84.2372 75.7125C84.3676 75.8149 84.5201 75.8831 84.6816 75.9114C84.8431 75.9397 85.0088 75.9272 85.1646 75.8749C85.3204 75.8226 85.4616 75.7322 85.5762 75.6112C85.6908 75.4903 85.7754 75.3425 85.8227 75.1805V65.9898H77.1802C76.9908 65.9906 76.805 65.9366 76.6438 65.8339C76.4825 65.7311 76.3524 65.5838 76.2681 65.4086C76.1837 65.2334 76.1486 65.0373 76.1666 64.8425C76.1847 64.6477 76.2552 64.462 76.3701 64.3065C76.3734 64.3003 76.3778 64.2948 76.3829 64.2901C76.8036 63.7379 77.0653 63.0746 77.1382 62.3759C77.2111 61.6773 77.0922 60.9715 76.7951 60.3394C76.498 59.7073 76.0347 59.1743 75.4582 58.8014C74.8817 58.4285 74.2152 58.2307 73.5351 58.2307C72.8549 58.2307 72.1884 58.4285 71.6119 58.8014C71.0354 59.1743 70.5721 59.7073 70.275 60.3394C69.9779 60.9715 69.8591 61.6773 69.9319 62.3759C70.0048 63.0746 70.2666 63.7379 70.6872 64.2901C70.6925 64.2956 70.6955 64.3011 70.7008 64.3065C70.8155 64.4622 70.8857 64.6479 70.9036 64.8426C70.9214 65.0374 70.8862 65.2334 70.8018 65.4085C70.7174 65.5837 70.5873 65.7309 70.4262 65.8336C70.265 65.9363 70.0793 65.9904 69.8899 65.9898H61.3192V74.9184C61.3185 75.114 61.3709 75.3059 61.4703 75.4724C61.5697 75.6389 61.7123 75.7733 61.8818 75.8605C62.0513 75.9476 62.241 75.9841 62.4295 75.9656C62.618 75.9472 62.7978 75.8746 62.9485 75.7561C62.9537 75.7507 62.959 75.7476 62.9643 75.7421C63.4988 75.3075 64.1409 75.0371 64.8172 74.9618C65.4935 74.8865 66.1766 75.0094 66.7884 75.3163C67.4003 75.6232 67.9162 76.1019 68.2772 76.6974C68.6381 77.293 68.8295 77.9816 68.8295 78.6843C68.8295 79.387 68.6381 80.0755 68.2772 80.6711C67.9162 81.2667 67.4003 81.7453 66.7884 82.0522C66.1766 82.3592 65.4935 82.482 64.8172 82.4067C64.1409 82.3314 63.4988 82.061 62.9643 81.6264C62.9579 81.6226 62.9518 81.6181 62.9462 81.6132C62.7957 81.4944 62.6159 81.4216 62.4274 81.403C62.2388 81.3844 62.049 81.4206 61.8794 81.5078C61.7098 81.5949 61.5672 81.7293 61.4678 81.8959C61.3684 82.0624 61.3161 82.2544 61.3169 82.4501V91.3788H69.9375" stroke="black" stroke-width="0.980065" stroke-linecap="round" stroke-linejoin="round"/>
<path d="M61.3192 37.8567V46.6707C61.3185 46.8663 61.3709 47.0582 61.4703 47.2247C61.5697 47.3912 61.7123 47.5256 61.8818 47.6127C62.0513 47.6999 62.241 47.7363 62.4295 47.7179C62.618 47.6994 62.7978 47.6269 62.9485 47.5084L62.9643 47.4944C63.4988 47.0598 64.1409 46.7894 64.8172 46.7141C65.4935 46.6388 66.1766 46.7616 66.7884 47.0686C67.4003 47.3755 67.9162 47.8541 68.2772 48.4497C68.6381 49.0453 68.8295 49.7338 68.8295 50.4365C68.8295 51.1392 68.6381 51.8277 68.2772 52.4233C67.9162 53.0189 67.4003 53.4976 66.7884 53.8045C66.1766 54.1114 65.4935 54.2343 64.8172 54.159C64.1409 54.0837 63.4988 53.8133 62.9643 53.3787C62.9586 53.3738 62.9526 53.3693 62.9462 53.3654C62.7957 53.2467 62.6159 53.1739 62.4274 53.1552C62.2388 53.1366 62.049 53.1729 61.8794 53.26C61.7098 53.3472 61.5672 53.4816 61.4678 53.6482C61.3684 53.8147 61.3161 54.0067 61.3169 54.2024V63.131" stroke="black" stroke-width="0.980065" stroke-linecap="round" stroke-linejoin="round"/>
<path d="M85.8229 37.7421H77.1804C76.991 37.7429 76.8051 37.6889 76.6439 37.5862C76.4827 37.4835 76.3526 37.3362 76.2682 37.161C76.1839 36.9857 76.1488 36.7896 76.1668 36.5948C76.1848 36.4001 76.2553 36.2144 76.3703 36.0589C76.3741 36.0523 76.3783 36.046 76.3831 36.0401C76.8037 35.4879 77.0655 34.8246 77.1384 34.1259C77.2113 33.4273 77.0924 32.7215 76.7953 32.0894C76.4982 31.4573 76.0349 30.9243 75.4584 30.5514C74.8819 30.1785 74.2154 29.9807 73.5352 29.9807C72.8551 29.9807 72.1886 30.1785 71.6121 30.5514C71.0356 30.9243 70.5723 31.4573 70.2752 32.0894C69.9781 32.7215 69.8592 33.4273 69.9321 34.1259C70.005 34.8246 70.2667 35.4879 70.6874 36.0401C70.6927 36.0456 70.6957 36.0511 70.701 36.0565C70.8156 36.2122 70.8859 36.3979 70.9037 36.5926C70.9216 36.7874 70.8863 36.9834 70.802 37.1585C70.7176 37.3337 70.5875 37.4809 70.4263 37.5836C70.2652 37.6863 70.0794 37.7404 69.8901 37.7398H61.3193" stroke="black" stroke-width="0.980065" stroke-linecap="round" stroke-linejoin="round"/>
<path d="M85.8225 63.131V53.8537C85.7752 53.6917 85.6907 53.5439 85.5761 53.423C85.4615 53.3021 85.3202 53.2116 85.1645 53.1593C85.0087 53.107 84.8429 53.0945 84.6814 53.1228C84.5199 53.1511 84.3674 53.2193 84.237 53.3217C84.2317 53.3272 84.2265 53.3295 84.2212 53.335C83.6867 53.7696 83.0446 54.04 82.3683 54.1153C81.692 54.1906 81.0089 54.0678 80.3971 53.7608C79.7852 53.4539 79.2693 52.9753 78.9083 52.3797C78.5474 51.7841 78.356 51.0955 78.356 50.3928C78.356 49.6901 78.5474 49.0016 78.9083 48.406C79.2693 47.8104 79.7852 47.3318 80.3971 47.0249C81.0089 46.7179 81.692 46.5951 82.3683 46.6704C83.0446 46.7457 83.6867 47.0161 84.2212 47.4507C84.2265 47.4561 84.2317 47.4593 84.237 47.4647C84.3674 47.5671 84.5199 47.6354 84.6814 47.6637C84.8429 47.692 85.0087 47.6794 85.1645 47.6272C85.3202 47.5749 85.4615 47.4844 85.5761 47.3635C85.6907 47.2426 85.7752 47.0948 85.8225 46.9328V37.8567" stroke="black" stroke-width="0.980065" stroke-linecap="round" stroke-linejoin="round"/>
<path d="M85.8227 37.8569V28.5796C85.7757 28.4173 85.6913 28.2693 85.5767 28.1481C85.4622 28.027 85.3209 27.9364 85.165 27.884C85.009 27.8317 84.8432 27.8193 84.6816 27.8478C84.52 27.8763 84.3675 27.9448 84.2372 28.0476C84.2325 28.052 84.2271 28.0557 84.2213 28.0585C83.6872 28.492 83.0459 28.7616 82.3705 28.8363C81.6952 28.9111 81.0131 28.7881 80.4022 28.4813C79.7913 28.1746 79.2763 27.6965 78.916 27.1016C78.5556 26.5068 78.3646 25.8192 78.3646 25.1175C78.3646 24.4158 78.5556 23.7283 78.916 23.1334C79.2763 22.5386 79.7913 22.0605 80.4022 21.7537C81.0131 21.447 81.6952 21.324 82.3705 21.3987C83.0459 21.4735 83.6872 21.743 84.2213 22.1765C84.2266 22.182 84.2319 22.1851 84.2372 22.1906C84.3676 22.293 84.5201 22.3612 84.6816 22.3895C84.8431 22.4178 85.0088 22.4053 85.1646 22.353C85.3204 22.3007 85.4616 22.2103 85.5762 22.0894C85.6908 21.9684 85.7754 21.8206 85.8227 21.6586V12.4648H77.1802C76.9908 12.4656 76.805 12.4116 76.6438 12.3088C76.4825 12.2061 76.3524 12.0588 76.2681 11.8836C76.1837 11.7084 76.1486 11.5123 76.1666 11.3175C76.1847 11.1227 76.2552 10.937 76.3701 10.7815C76.3733 10.7746 76.3777 10.7683 76.3829 10.7628C76.8036 10.2106 77.0653 9.54723 77.1382 8.84858C77.2111 8.14992 77.0922 7.44417 76.7951 6.81205C76.498 6.17992 76.0347 5.64693 75.4582 5.27403C74.8817 4.90113 74.2152 4.70337 73.5351 4.70337C72.8549 4.70337 72.1884 4.90113 71.6119 5.27403C71.0354 5.64693 70.5721 6.17992 70.275 6.81205C69.9779 7.44417 69.8591 8.14992 69.9319 8.84858C70.0048 9.54723 70.2666 10.2106 70.6872 10.7628C70.6925 10.7683 70.6955 10.7737 70.7008 10.7792C70.8161 10.9348 70.8869 11.1208 70.9051 11.3159C70.9233 11.511 70.8882 11.7075 70.8038 11.883C70.7193 12.0586 70.5889 12.2061 70.4274 12.3089C70.2659 12.4118 70.0797 12.4658 69.8899 12.4648H61.3192V21.3965C61.3188 21.592 61.3714 21.7837 61.471 21.9499C61.5706 22.1161 61.7132 22.2502 61.8827 22.337C62.0522 22.4239 62.2419 22.46 62.4302 22.4413C62.6186 22.4226 62.7981 22.3498 62.9485 22.2311C62.9537 22.2311 62.959 22.2233 62.9643 22.2202C63.4988 21.7856 64.1409 21.5152 64.8172 21.4399C65.4935 21.3646 66.1766 21.4875 66.7884 21.7944C67.4003 22.1013 67.9162 22.58 68.2772 23.1756C68.6381 23.7712 68.8295 24.4597 68.8295 25.1624C68.8295 25.8651 68.6381 26.5536 68.2772 27.1492C67.9162 27.7448 67.4003 28.2234 66.7884 28.5304C66.1766 28.8373 65.4935 28.9601 64.8172 28.8848C64.1409 28.8095 63.4988 28.5391 62.9643 28.1045C62.9586 28.0996 62.9526 28.0952 62.9462 28.0913C62.7957 27.9725 62.6159 27.8997 62.4274 27.8811C62.2388 27.8625 62.049 27.8988 61.8794 27.9859C61.7098 28.073 61.5672 28.2075 61.4678 28.374C61.3684 28.5406 61.3161 28.7325 61.3169 28.9282V37.8569" stroke="black" stroke-width="0.980065" stroke-linecap="round" stroke-linejoin="round"/>
<path d="M61.3191 63.1309H52.3414C52.1843 63.0824 52.041 62.9952 51.9238 62.8768C51.8065 62.7585 51.7188 62.6125 51.6682 62.4514C51.6175 62.2903 51.6055 62.119 51.6331 61.952C51.6606 61.7851 51.727 61.6275 51.8265 61.4929C51.8265 61.4875 51.834 61.482 51.8371 61.4765C52.2581 60.9244 52.5202 60.261 52.5933 59.5622C52.6665 58.8635 52.5478 58.1575 52.2508 57.5252C51.9538 56.8928 51.4905 56.3596 50.9139 55.9865C50.3373 55.6135 49.6707 55.4156 48.9903 55.4156C48.31 55.4156 47.6434 55.6135 47.0668 55.9865C46.4902 56.3596 46.0269 56.8928 45.7299 57.5252C45.4329 58.1575 45.3142 58.8635 45.3873 59.5622C45.4605 60.261 45.7226 60.9244 46.1436 61.4765C46.1475 61.4826 46.152 61.4881 46.1572 61.4929C46.2561 61.6277 46.3221 61.7852 46.3493 61.952C46.3766 62.1188 46.3645 62.29 46.3139 62.4509C46.2633 62.6118 46.1758 62.7576 46.0589 62.876C45.9419 62.9945 45.799 63.0819 45.6423 63.1309H36.7408V54.2023C36.7416 54.0066 36.6893 53.8146 36.5899 53.648C36.4905 53.4815 36.3479 53.347 36.1783 53.2599C36.0087 53.1728 35.8189 53.1365 35.6304 53.1551C35.4418 53.1738 35.2621 53.2466 35.1115 53.3653C35.1056 53.3688 35.1002 53.3732 35.0957 53.3786C34.5612 53.8132 33.9191 54.0836 33.2428 54.1589C32.5666 54.2342 31.8834 54.1113 31.2716 53.8044C30.6597 53.4975 30.1438 53.0188 29.7828 52.4232C29.4219 51.8276 29.2305 51.1391 29.2305 50.4364C29.2305 49.7337 29.4219 49.0452 29.7828 48.4496C30.1438 47.854 30.6597 47.3754 31.2716 47.0684C31.8834 46.7615 32.5666 46.6387 33.2428 46.714C33.9191 46.7893 34.5612 47.0597 35.0957 47.4943C35.0957 47.4997 35.1032 47.5028 35.1085 47.5083C35.2592 47.6277 35.4392 47.701 35.6282 47.7199C35.8172 47.7389 36.0075 47.7026 36.1776 47.6154C36.3476 47.5281 36.4905 47.3933 36.5901 47.2263C36.6897 47.0593 36.7419 46.8667 36.7408 46.6706V37.8145H45.3863C45.5757 37.8137 45.7616 37.8677 45.9228 37.9704C46.084 38.0731 46.2141 38.2204 46.2985 38.3956C46.3828 38.5708 46.4179 38.7669 46.3999 38.9617C46.3819 39.1565 46.3114 39.3422 46.1965 39.4977C46.1965 39.5032 46.1889 39.5086 46.1859 39.5141C45.7663 40.0659 45.5054 40.7285 45.433 41.4262C45.3606 42.1239 45.4797 42.8286 45.7766 43.4597C46.0736 44.0908 46.5363 44.6229 47.1121 44.9951C47.6879 45.3674 48.3534 45.5648 49.0326 45.5648C49.7118 45.5648 50.3773 45.3674 50.9531 44.9951C51.5289 44.6229 51.9917 44.0908 52.2886 43.4597C52.5855 42.8286 52.7046 42.1239 52.6322 41.4262C52.5599 40.7285 52.299 40.0659 51.8793 39.5141C51.8755 39.5081 51.8709 39.5026 51.8657 39.4977C51.7514 39.342 51.6814 39.1563 51.6637 38.9617C51.646 38.767 51.6813 38.5711 51.7656 38.3961C51.8499 38.2211 51.9799 38.0739 52.1409 37.9711C52.3018 37.8684 52.4874 37.8141 52.6766 37.8145H61.3191" stroke="black" stroke-width="0.980065" stroke-linecap="round" stroke-linejoin="round"/>
<path d="M85.9424 63.1309H94.9224C95.0794 63.0824 95.2227 62.9952 95.34 62.8769C95.4572 62.7585 95.5449 62.6125 95.5956 62.4514C95.6462 62.2904 95.6582 62.119 95.6307 61.9521C95.6031 61.7851 95.5367 61.6276 95.4373 61.4929C95.432 61.4875 95.4297 61.482 95.4244 61.4766C95.0037 60.9244 94.7418 60.261 94.6688 59.5623C94.5958 58.8636 94.7147 58.1578 95.0117 57.5256C95.3088 56.8934 95.7721 56.3603 96.3486 55.9874C96.9252 55.6144 97.5917 55.4166 98.2719 55.4166C98.9521 55.4166 99.6186 55.6144 100.195 55.9874C100.772 56.3603 101.235 56.8934 101.532 57.5256C101.829 58.1578 101.948 58.8636 101.875 59.5623C101.802 60.261 101.54 60.9244 101.119 61.4766C101.114 61.482 101.112 61.4875 101.107 61.4929C101.007 61.6277 100.941 61.7852 100.914 61.9521C100.887 62.1189 100.899 62.2901 100.949 62.4511C101 62.612 101.087 62.7579 101.205 62.8763C101.322 62.9947 101.465 63.0821 101.621 63.1309H110.518V54.2023C110.517 54.0068 110.569 53.8149 110.669 53.6485C110.768 53.4821 110.911 53.3477 111.08 53.2606C111.249 53.1735 111.439 53.1372 111.628 53.1557C111.816 53.1742 111.996 53.2468 112.146 53.3653C112.153 53.3694 112.159 53.3738 112.165 53.3786C112.7 53.8132 113.342 54.0836 114.018 54.1589C114.694 54.2342 115.377 54.1114 115.989 53.8044C116.601 53.4975 117.117 53.0189 117.478 52.4233C117.839 51.8277 118.03 51.1392 118.03 50.4364C118.03 49.7337 117.839 49.0452 117.478 48.4496C117.117 47.854 116.601 47.3754 115.989 47.0685C115.377 46.7615 114.694 46.6387 114.018 46.714C113.342 46.7893 112.7 47.0597 112.165 47.4943L112.149 47.5083C111.999 47.6269 111.819 47.6995 111.63 47.718C111.442 47.7365 111.252 47.7001 111.083 47.6129C110.913 47.5257 110.771 47.3912 110.671 47.2247C110.572 47.0582 110.52 46.8662 110.521 46.6706V37.8145H101.875C101.686 37.8142 101.5 37.8686 101.339 37.9717C101.178 38.0747 101.048 38.2222 100.964 38.3975C100.88 38.5728 100.845 38.7689 100.864 38.9636C100.882 39.1583 100.952 39.3439 101.067 39.4993C101.073 39.5047 101.076 39.5102 101.081 39.5157C101.502 40.0679 101.763 40.7312 101.836 41.4299C101.909 42.1286 101.79 42.8343 101.493 43.4664C101.196 44.0986 100.733 44.6315 100.156 45.0044C99.5797 45.3773 98.9132 45.5751 98.233 45.5751C97.5528 45.5751 96.8864 45.3773 96.3099 45.0044C95.7334 44.6315 95.2701 44.0986 94.973 43.4664C94.6759 42.8343 94.557 42.1286 94.6299 41.4299C94.7028 40.7312 94.9645 40.0679 95.3852 39.5157C95.3903 39.511 95.3947 39.5055 95.398 39.4993C95.5135 39.3436 95.5844 39.1574 95.6026 38.9621C95.6207 38.7668 95.5854 38.5702 95.5007 38.3946C95.4159 38.219 95.2852 38.0715 95.1232 37.9689C94.9613 37.8664 94.7748 37.8129 94.5849 37.8145H85.9424" stroke="black" stroke-width="0.980065" stroke-linecap="round" stroke-linejoin="round"/>
<path d="M108.479 91.6114L115.404 97.5168C115.555 97.5828 115.72 97.6098 115.883 97.5956C116.047 97.5813 116.205 97.5261 116.343 97.4349C116.481 97.3436 116.596 97.2189 116.677 97.0716C116.758 96.9243 116.804 96.7588 116.809 96.5894V96.5707C116.825 95.868 117.031 95.184 117.405 94.5969C117.78 94.0098 118.306 93.5434 118.925 93.251C119.543 92.9586 120.229 92.8521 120.904 92.9435C121.578 93.035 122.214 93.3207 122.739 93.7681C123.264 94.2155 123.656 94.8065 123.871 95.4733C124.086 96.1402 124.115 96.8562 123.954 97.5392C123.794 98.2222 123.45 98.8447 122.963 99.3356C122.476 99.8264 121.865 100.166 121.2 100.315H121.179C121.02 100.354 120.871 100.432 120.747 100.543C120.623 100.654 120.527 100.794 120.467 100.951C120.407 101.109 120.384 101.279 120.402 101.448C120.419 101.616 120.476 101.778 120.567 101.919L127.427 107.769L132.93 100.884C133.05 100.733 133.209 100.62 133.388 100.557C133.567 100.494 133.76 100.484 133.944 100.528C134.128 100.573 134.297 100.669 134.431 100.807C134.564 100.946 134.658 101.12 134.701 101.31C134.704 101.317 134.705 101.324 134.707 101.332C134.851 102.018 135.18 102.649 135.655 103.152C136.131 103.654 136.733 104.009 137.395 104.174C138.056 104.339 138.748 104.309 139.394 104.087C140.039 103.865 140.611 103.459 141.043 102.917C141.476 102.375 141.753 101.718 141.841 101.022C141.929 100.325 141.826 99.6164 141.543 98.9774C141.26 98.3384 140.809 97.7946 140.241 97.4082C139.672 97.0217 139.011 96.8083 138.331 96.7922H138.309C138.12 96.7846 137.937 96.7225 137.78 96.6128C137.624 96.5032 137.5 96.3504 137.423 96.1718C137.346 95.9932 137.319 95.7959 137.345 95.6022C137.371 95.4086 137.449 95.2264 137.57 95.0762L143.025 88.248L136.361 82.5634C136.215 82.4385 136.038 82.3581 135.851 82.3315C135.663 82.3049 135.472 82.3331 135.299 82.4129C135.127 82.4927 134.979 82.6209 134.873 82.7831C134.767 82.9452 134.707 83.1347 134.7 83.3301C134.699 83.3363 134.699 83.3427 134.7 83.3489C134.684 84.0516 134.478 84.7356 134.104 85.3226C133.73 85.9097 133.203 86.3761 132.584 86.6685C131.966 86.9609 131.28 87.0674 130.605 86.976C129.931 86.8846 129.295 86.5988 128.77 86.1514C128.245 85.704 127.853 85.1131 127.638 84.4462C127.423 83.7793 127.395 83.0634 127.555 82.3803C127.716 81.6973 128.059 81.0748 128.546 80.584C129.033 80.0931 129.644 79.7538 130.309 79.6049H130.33C130.514 79.5597 130.683 79.4623 130.816 79.3236C130.95 79.1849 131.043 79.0104 131.086 78.8198C131.129 78.6292 131.119 78.43 131.058 78.2447C130.997 78.0594 130.888 77.8954 130.741 77.7711L123.985 72.01L118.365 79.0401C118.229 79.1343 118.073 79.1928 117.91 79.2108C117.747 79.2287 117.582 79.2056 117.43 79.1433C117.277 79.081 117.142 78.9815 117.035 78.8532C116.928 78.7249 116.852 78.5717 116.815 78.4068C116.814 78.3994 116.812 78.3921 116.81 78.385C116.658 77.6634 116.303 77.0045 115.789 76.4914C115.275 75.9782 114.625 75.6337 113.922 75.5013C113.219 75.3689 112.494 75.4546 111.838 75.7474C111.182 76.0403 110.624 76.5274 110.236 77.1471C109.885 77.705 109.685 78.3495 109.656 79.014C109.627 79.6785 109.77 80.3389 110.071 80.9272C110.371 81.5154 110.818 82.0102 111.366 82.3603C111.913 82.7105 112.541 82.9034 113.185 82.9191H113.206C113.37 82.9257 113.53 82.9733 113.672 83.0578C113.814 83.1422 113.934 83.2611 114.022 83.4041C114.11 83.5471 114.164 83.71 114.177 83.8789C114.191 84.0478 114.165 84.2176 114.101 84.3738L108.384 91.5287L108.479 91.6114Z" stroke="black" stroke-width="0.980065" stroke-linecap="round" stroke-linejoin="round"/>
<path d="M8.14759 81.6403L26.322 98.7278L32.1355 92.1235C32.2624 91.9784 32.4261 91.8728 32.6081 91.8188C32.7901 91.7648 32.9831 91.7645 33.1653 91.8179C33.3475 91.8713 33.5115 91.9763 33.639 92.121C33.7664 92.2657 33.852 92.4444 33.8863 92.6368V92.6586C33.9988 93.3516 34.2979 93.9979 34.7492 94.5236C35.2006 95.0493 35.786 95.4332 36.4386 95.6313C37.0911 95.8294 37.7845 95.8338 38.4394 95.644C39.0943 95.4541 39.6842 95.0777 40.1418 94.5578C40.5993 94.0379 40.906 93.3954 41.0268 92.7039C41.1475 92.0123 41.0775 91.2996 40.8246 90.6473C40.5718 89.995 40.1463 89.4293 39.5969 89.0151C39.0475 88.6008 38.3964 88.3546 37.7179 88.3046H37.7074C37.5186 88.2873 37.3384 88.2158 37.1869 88.0982C37.0355 87.9806 36.9189 87.8216 36.8502 87.6392C36.7816 87.4567 36.7637 87.2581 36.7986 87.0657C36.8334 86.8734 36.9196 86.6949 37.0475 86.5504L42.8142 80.0031L36.4216 73.9971C36.2821 73.8647 36.1095 73.7754 35.9234 73.7392C35.7373 73.7031 35.5451 73.7215 35.3686 73.7925C35.1921 73.8635 35.0384 73.9842 34.9249 74.1408C34.8114 74.2975 34.7427 74.4839 34.7266 74.6788C34.7283 74.6849 34.7283 74.6914 34.7266 74.6975C34.6785 75.3987 34.4403 76.0716 34.0393 76.6395C33.6383 77.2073 33.0907 77.647 32.4591 77.9084C31.8275 78.1697 31.1375 78.2421 30.4679 78.1172C29.7984 77.9924 29.1764 77.6753 28.6731 77.2023C28.1698 76.7294 27.8056 76.1196 27.622 75.4427C27.4385 74.7659 27.4431 74.0494 27.6353 73.3751C27.8275 72.7009 28.1995 72.0961 28.7088 71.6301C29.2181 71.164 29.8441 70.8555 30.5152 70.7398C30.5222 70.7412 30.5294 70.7412 30.5364 70.7398C30.7226 70.7044 30.8955 70.6159 31.0356 70.4843C31.1757 70.3527 31.2773 70.1831 31.329 69.9949C31.3807 69.8068 31.3804 69.6074 31.3281 69.4193C31.2758 69.2313 31.1736 69.0622 31.0332 68.931L24.5477 62.8337L18.6089 69.5768C18.4685 69.6642 18.3097 69.715 18.1461 69.7249C17.9825 69.7348 17.819 69.7036 17.6697 69.6338C17.5203 69.5641 17.3896 69.458 17.2888 69.3245C17.1879 69.1911 17.1199 69.0344 17.0906 68.8678C17.0894 68.8604 17.0877 68.8531 17.0853 68.846C16.9672 68.1176 16.6429 67.4418 16.1534 66.9037C15.6638 66.3656 15.031 65.9893 14.3347 65.8224C13.6383 65.6555 12.9098 65.7055 12.2409 65.966C11.572 66.2264 10.9929 66.6858 10.5764 67.286C10.1991 67.8259 9.96839 68.4603 9.90809 69.1233C9.84778 69.7864 9.96012 70.454 10.2335 71.0571C10.5068 71.6602 10.9312 72.1769 11.4627 72.5537C11.9943 72.9304 12.6136 73.1535 13.2567 73.1999C13.2626 73.2016 13.2689 73.2016 13.2748 73.1999C13.4381 73.2143 13.5955 73.2695 13.7336 73.3606C13.8717 73.4517 13.9863 73.5761 14.0676 73.7231C14.149 73.8701 14.1945 74.0353 14.2004 74.2045C14.2063 74.3736 14.1724 74.5418 14.1015 74.6944L8.06152 81.5584L8.14759 81.6403Z" stroke="black" stroke-width="0.980065" stroke-linecap="round" stroke-linejoin="round"/>
<path d="M96.2342 47.8953L92.3633 50.2064L96.2342 52.5136" stroke="black" stroke-width="0.980065" stroke-linecap="round" stroke-linejoin="round"/>
<path d="M100.264 52.5136L104.138 50.2064L100.264 47.8953" stroke="black" stroke-width="0.980065" stroke-linecap="round" stroke-linejoin="round"/>
<path d="M99.3394 46.8315L97.1265 54.1152" stroke="black" stroke-width="0.980065" stroke-linecap="round" stroke-linejoin="round"/>
<path d="M47.3059 47.8953L43.4351 50.2064L47.3059 52.5136" stroke="black" stroke-width="0.980065" stroke-linecap="round" stroke-linejoin="round"/>
<path d="M51.3354 52.5136L55.2094 50.2064L51.3354 47.8953" stroke="black" stroke-width="0.980065" stroke-linecap="round" stroke-linejoin="round"/>
<path d="M50.4111 46.8315L48.1982 54.1152" stroke="black" stroke-width="0.980065" stroke-linecap="round" stroke-linejoin="round"/>
<path d="M75.4539 16.0198L75.0235 17.4378L72.3991 26.0748L71.9922 27.4117" stroke="black" stroke-width="0.980065" stroke-linecap="round" stroke-linejoin="round"/>
<path d="M124.961 83.7598L118.766 87.9226" stroke="black" stroke-width="0.980065" stroke-linecap="round" stroke-linejoin="round"/>
<path d="M133.841 91.3328L127.643 95.4956" stroke="black" stroke-width="0.980065" stroke-linecap="round" stroke-linejoin="round"/>
<path d="M73.1782 71.1652C73.1782 71.3069 73.2327 71.4428 73.3297 71.543C73.4267 71.6432 73.5582 71.6995 73.6954 71.6995C73.8326 71.6995 73.9641 71.6432 74.0611 71.543C74.1581 71.4428 74.2126 71.3069 74.2126 71.1652C74.2126 71.0235 74.1581 70.8876 74.0611 70.7874C73.9641 70.6872 73.8326 70.6309 73.6954 70.6309C73.5582 70.6309 73.4267 70.6872 73.3297 70.7874C73.2327 70.8876 73.1782 71.0235 73.1782 71.1652Z" stroke="black" stroke-width="0.980065" stroke-linecap="round" stroke-linejoin="round"/>
<path d="M73.1782 74.1385C73.1782 74.2803 73.2327 74.4162 73.3297 74.5164C73.4267 74.6166 73.5582 74.6728 73.6954 74.6728C73.8326 74.6728 73.9641 74.6166 74.0611 74.5164C74.1581 74.4162 74.2126 74.2803 74.2126 74.1385C74.2126 73.9968 74.1581 73.8609 74.0611 73.7607C73.9641 73.6605 73.8326 73.6042 73.6954 73.6042C73.5582 73.6042 73.4267 73.6605 73.3297 73.7607C73.2327 73.8609 73.1782 73.9968 73.1782 74.1385Z" stroke="black" stroke-width="0.980065" stroke-linecap="round" stroke-linejoin="round"/>
<path d="M73.1782 77.1119C73.1782 77.2536 73.2327 77.3895 73.3297 77.4897C73.4267 77.5899 73.5582 77.6462 73.6954 77.6462C73.8326 77.6462 73.9641 77.5899 74.0611 77.4897C74.1581 77.3895 74.2126 77.2536 74.2126 77.1119C74.2126 76.9702 74.1581 76.8343 74.0611 76.7341C73.9641 76.6339 73.8326 76.5776 73.6954 76.5776C73.5582 76.5776 73.4267 76.6339 73.3297 76.7341C73.2327 76.8343 73.1782 76.9702 73.1782 77.1119Z" stroke="black" stroke-width="0.980065" stroke-linecap="round" stroke-linejoin="round"/>
<path d="M73.1782 80.0853C73.1782 80.227 73.2327 80.3629 73.3297 80.4631C73.4267 80.5633 73.5582 80.6196 73.6954 80.6196C73.8326 80.6196 73.9641 80.5633 74.0611 80.4631C74.1581 80.3629 74.2126 80.227 74.2126 80.0853C74.2126 79.9436 74.1581 79.8077 74.0611 79.7075C73.9641 79.6073 73.8326 79.551 73.6954 79.551C73.5582 79.551 73.4267 79.6073 73.3297 79.7075C73.2327 79.8077 73.1782 79.9436 73.1782 80.0853Z" stroke="black" stroke-width="0.980065" stroke-linecap="round" stroke-linejoin="round"/>
<path d="M73.1772 83.0586C73.1774 82.9409 73.2152 82.8265 73.2847 82.7333C73.3541 82.64 73.4514 82.5729 73.5615 82.5425C73.6716 82.5122 73.7882 82.5201 73.8935 82.5652C73.9987 82.6103 74.0867 82.6899 74.1436 82.7918" stroke="black" stroke-width="0.980065" stroke-linecap="round" stroke-linejoin="round"/>
<path d="M123.851 87.9392C123.931 88.006 123.989 88.0956 124.018 88.1966C124.048 88.2976 124.048 88.4054 124.019 88.5064C123.989 88.6075 123.931 88.6972 123.852 88.7642C123.773 88.8311 123.677 88.8724 123.575 88.8828C123.473 88.8932 123.371 88.8722 123.281 88.8224C123.191 88.7727 123.117 88.6964 123.069 88.6033C123.021 88.5103 123 88.4045 123.01 88.2995C123.02 88.1944 123.06 88.0948 123.125 88.0133C123.212 87.904 123.337 87.8348 123.473 87.8209C123.61 87.807 123.746 87.8496 123.851 87.9392Z" stroke="black" stroke-width="0.980065" stroke-linecap="round" stroke-linejoin="round"/>
<path d="M126.072 89.8319C126.151 89.8994 126.209 89.9894 126.238 90.0906C126.267 90.1918 126.267 90.2998 126.237 90.4007C126.206 90.5017 126.148 90.5912 126.069 90.6578C125.989 90.7245 125.893 90.7654 125.791 90.7753C125.689 90.7852 125.587 90.7637 125.497 90.7136C125.407 90.6634 125.333 90.5868 125.285 90.4934C125.237 90.4 125.217 90.2941 125.228 90.189C125.238 90.0839 125.279 89.9844 125.344 89.9029C125.387 89.8487 125.44 89.8039 125.5 89.771C125.56 89.738 125.626 89.7177 125.694 89.7111C125.761 89.7045 125.83 89.7118 125.895 89.7325C125.96 89.7533 126.02 89.7871 126.072 89.8319Z" stroke="black" stroke-width="0.980065" stroke-linecap="round" stroke-linejoin="round"/>
<path d="M128.293 91.7251C128.372 91.7926 128.43 91.8827 128.459 91.9841C128.488 92.0855 128.488 92.1936 128.458 92.2948C128.428 92.3959 128.369 92.4855 128.29 92.5523C128.21 92.6191 128.113 92.66 128.011 92.6699C127.909 92.6799 127.807 92.6583 127.717 92.6081C127.627 92.5578 127.553 92.481 127.505 92.3875C127.457 92.294 127.437 92.1878 127.448 92.0826C127.458 91.9773 127.498 91.8776 127.564 91.7961C127.652 91.6871 127.778 91.6185 127.914 91.6052C128.051 91.5919 128.187 91.635 128.293 91.7251Z" stroke="black" stroke-width="0.980065" stroke-linecap="round" stroke-linejoin="round"/>
<path d="M21.4185 77.6523L23.6578 79.7583L26.6393 82.5593L28.8779 84.6653" stroke="black" stroke-width="0.980065" stroke-linecap="round" stroke-linejoin="round"/>
<path d="M18.7061 80.7319L20.9454 82.8356L23.9269 85.6366L26.1655 87.7426" stroke="black" stroke-width="0.980065" stroke-linecap="round" stroke-linejoin="round"/>
<path d="M28.6769 80.2434L26.6391 82.5592L23.9272 85.6363L21.8887 87.9529" stroke="black" stroke-width="0.980065" stroke-linecap="round" stroke-linejoin="round"/>
<path d="M25.6962 77.4417L23.6577 79.7583L20.9457 82.8354L18.9072 85.1512" stroke="black" stroke-width="0.980065" stroke-linecap="round" stroke-linejoin="round"/>
<path d="M75.0232 17.4377C75.8335 18.7097 76.2345 20.2135 76.1693 21.7348C76.1693 24.5474 75.0632 26.8274 73.6951 26.8274C73.4382 26.8107 73.1882 26.7344 72.9637 26.6041C72.7393 26.4737 72.5462 26.2928 72.3988 26.0747C71.5641 24.7968 71.151 23.2747 71.221 21.7348C71.221 18.9221 72.3271 16.6414 73.6951 16.6414C73.9608 16.66 74.2187 16.7416 74.449 16.8797C74.6793 17.0177 74.8757 17.2087 75.0232 17.4377Z" stroke="black" stroke-width="0.980065" stroke-linecap="round" stroke-linejoin="round"/>
<path d="M101.629 22.3433L98.4312 24.6177" stroke="black" stroke-width="0.980065" stroke-linecap="round" stroke-linejoin="round"/>
<path d="M101.13 25.1334L98.9307 21.8301" stroke="black" stroke-width="0.980065" stroke-linecap="round" stroke-linejoin="round"/>
<path d="M97.9268 81.1851V85.195" stroke="black" stroke-width="0.980065" stroke-linecap="round" stroke-linejoin="round"/>
<path d="M99.8684 83.1897H95.9839" stroke="black" stroke-width="0.980065" stroke-linecap="round" stroke-linejoin="round"/>
<path d="M53.2022 102.193L49.4688 103.284" stroke="black" stroke-width="0.980065" stroke-linecap="round" stroke-linejoin="round"/>
<path d="M51.8639 104.667L50.8076 100.807" stroke="black" stroke-width="0.980065" stroke-linecap="round" stroke-linejoin="round"/>
<path d="M50.5485 28.0825L49.3442 31.8959" stroke="black" stroke-width="0.980065" stroke-linecap="round" stroke-linejoin="round"/>
<path d="M51.7923 30.6144L48.1011 29.3672" stroke="black" stroke-width="0.980065" stroke-linecap="round" stroke-linejoin="round"/>
</svg>
