<svg width="152" height="158" viewBox="0 0 152 158" fill="none" xmlns="http://www.w3.org/2000/svg">
<path d="M89.1531 102.346C87.2354 105.666 71.6975 133.259 71.6975 133.259C71.6975 133.259 63.9663 145.207 51.1917 147.719C38.4171 150.231 27.7867 144.618 26.1181 135.253C24.3967 130.904 25.2499 125.833 26.6391 122.411C27.1298 121.194 28.7078 118.737 29.6213 117.104C33.872 109.521 40.6896 99.8967 40.6896 99.8967C41.6049 99.827 42.5054 99.6181 43.3623 99.2766C61.6862 93.6167 54.2041 94.9198 69.0323 90.0293C82.1618 90.2412 81.5351 90.2098 81.9504 90.1392C83.0829 90.4924 86.4804 91.7092 87.628 93.8365C87.6733 93.915 91.0708 99.0254 89.1531 102.346Z" fill="#81F8F8"/>
<path d="M132.701 43.0471V76.5823C132.701 83.2234 128.231 83.7179 128.231 83.7179L82.569 89.9979C82.9574 89.855 83.3162 89.6366 83.626 89.3542C85.136 87.9648 85.355 85.4292 85.355 85.4292C85.4078 80.2011 85.7551 44.6092 84.8567 39.3968C84.1835 35.325 82.2824 31.5813 79.4282 28.7069C76.574 25.8324 72.9146 23.9761 68.979 23.4064H115.162C130.663 23.4221 132.701 43.0471 132.701 43.0471Z" fill="#81F8F8"/>
<path d="M99.6548 61.1414C99.6548 61.1414 100.078 65.2391 96.9897 65.2391C93.9017 65.2391 93.796 61.3691 93.796 61.3691C93.796 61.3691 93.041 5.9559 93.041 4.84905C93.041 4.119 108.217 4.31525 108.36 4.55075C108.503 4.78625 108.972 18.1941 108.707 18.3511C108.443 18.5081 98.3109 18.2412 98.1373 18.4531C97.9636 18.6651 99.6548 61.1414 99.6548 61.1414Z" fill="#FFD997"/>
<path d="M97.1031 60.8195C96.8807 60.7826 96.6528 60.8174 96.45 60.9192C96.2473 61.0211 96.0794 61.185 95.9689 61.389C95.8584 61.5931 95.8107 61.8274 95.8322 62.0604C95.8536 62.2935 95.9432 62.5141 96.0889 62.6927C96.2345 62.8712 96.4293 62.9991 96.6469 63.0591C96.8646 63.1191 97.0947 63.1084 97.3063 63.0283C97.5179 62.9483 97.7009 62.8028 97.8306 62.6114C97.9603 62.42 98.0305 62.1919 98.0317 61.9577C98.0506 61.6795 97.9641 61.4046 97.7905 61.1918C97.617 60.9791 97.3702 60.8455 97.1031 60.8195Z" fill="black"/>
<path d="M132.95 43.0235C132.95 42.8272 130.685 23.3985 115.132 23.3985H98.5223C98.4468 20.8943 98.4015 19.1752 98.409 18.6414C99.7982 18.5079 108.526 18.7356 108.858 18.5472C108.92 18.4957 108.967 18.4279 108.994 18.3509C109.19 17.5659 108.82 4.78613 108.594 4.40148C108.247 3.82843 94.5887 4.07178 93.2599 4.40148C93.1391 4.40148 92.8447 4.51923 92.8296 4.77828C92.8296 5.21788 92.9126 13.2563 93.0485 23.1551C93.0485 23.1551 68.2996 22.8961 67.4993 22.9432C63.39 22.9313 59.3459 24.0122 55.7515 26.0832C52.9465 27.5306 50.5185 29.6598 48.6732 32.2904C46.828 34.9209 45.6199 37.9752 45.1513 41.1944C44.0037 41.5555 20.9309 48.9424 20.0325 49.7195C19.9371 49.8003 19.8685 49.9101 19.8362 50.0335C19.5417 50.6458 19.1718 52.2472 21.248 54.6807C22.758 56.4313 24.3284 58.4252 25.8988 60.5996C25.5213 60.7802 24.3888 61.3375 21.4217 62.8918C19.6776 63.8024 18.7339 64.7444 18.6131 65.5765C18.5857 65.7521 18.5988 65.9318 18.6513 66.1011C18.7038 66.2703 18.7942 66.4242 18.9151 66.5499C21.2339 68.3529 23.3153 70.4642 25.1061 72.8299C28.1261 76.7 33.8188 95.3673 37.4654 99.41C37.6761 99.7046 37.9564 99.9375 38.2792 100.086C38.602 100.235 38.9563 100.294 39.3076 100.258C39.5953 100.258 39.8828 100.239 40.1683 100.203C38.7565 102.228 33.094 110.408 29.4247 116.963C28.5111 118.572 26.9181 121.06 26.4047 122.301C25.7327 123.965 23.7169 129.813 25.8686 135.292C26.2326 137.211 26.9642 139.034 28.0201 140.652C29.0759 142.271 30.4343 143.651 32.0143 144.712C36.4009 147.852 43.1732 149.517 51.2215 147.939C63.9433 145.442 71.8028 133.495 71.8859 133.361C72.0444 133.087 87.4464 105.737 89.349 102.456C90.859 99.8418 89.2056 96.1758 88.3222 94.5116C87.4389 92.8474 86.5178 91.5208 82.8636 90.1706L94.9436 88.5142V153.449C94.9536 153.507 94.9829 153.56 95.0263 153.598C95.0698 153.636 95.1247 153.656 95.1814 153.656C95.2381 153.656 95.293 153.636 95.3365 153.598C95.3799 153.56 95.4092 153.507 95.4192 153.449V88.4671L104.623 87.2033V153.449C104.623 153.516 104.648 153.58 104.693 153.627C104.739 153.674 104.8 153.701 104.864 153.701C104.928 153.701 104.99 153.674 105.035 153.627C105.08 153.58 105.106 153.516 105.106 153.449V87.1405L111.01 86.3555V153.449C111.02 153.507 111.049 153.56 111.093 153.598C111.136 153.636 111.191 153.656 111.248 153.656C111.305 153.656 111.359 153.636 111.403 153.598C111.446 153.56 111.476 153.507 111.486 153.449V86.2534L128.254 83.9534C128.307 83.9534 132.943 83.3568 132.943 76.5744L132.95 43.0235ZM93.2901 4.92743C94.4604 4.44858 106.669 4.50353 108.164 4.71548C108.307 6.06568 108.685 16.7103 108.534 18.0605C107.99 18.0997 105.914 18.0605 104.064 18.0605C98.1372 18.0605 98.0995 18.0605 97.9787 18.2332C97.7295 18.555 99.4132 61.0549 99.4207 61.1334C99.4283 61.2119 99.617 63.1509 98.6657 64.2734C98.4513 64.5112 98.1895 64.6976 97.8988 64.8196C97.608 64.9416 97.2952 64.9963 96.9821 64.9799C94.1584 64.9799 94.03 61.5024 94.0225 61.3532C93.9923 58.5351 93.275 7.68278 93.2901 4.92743ZM38.7791 99.41C38.379 99.6612 38.0241 99.41 37.8354 99.1353C34.385 95.4458 28.5791 76.5194 25.476 72.5316C23.6635 70.1341 21.5568 67.9938 19.2095 66.1653C19.155 66.0929 19.116 66.0092 19.0951 65.9199C19.0743 65.8305 19.0721 65.7375 19.0887 65.6472C19.1416 65.2547 19.5417 64.4226 21.6331 63.2922C24.9022 61.5652 25.9819 61.0628 26.1631 60.9372C30.3986 66.911 34.3926 74.1644 35.7591 81.6141C37.6617 92.2901 37.7146 96.0031 37.4579 96.584C37.3475 96.4598 37.2512 96.3229 37.171 96.1758C36.9973 95.8618 36.6198 94.857 36.0989 93.4597C32.3239 83.4667 31.7501 83.0035 29.3869 77.2809C27.4541 72.5944 25.4307 67.7981 20.9611 65.0898C20.9059 65.0585 20.841 65.0508 20.7804 65.0683C20.7198 65.0859 20.6681 65.1274 20.6365 65.184C20.6202 65.2118 20.6095 65.2426 20.6048 65.2747C20.6002 65.3068 20.6018 65.3396 20.6096 65.371C20.6173 65.4025 20.631 65.432 20.6499 65.4579C20.6688 65.4837 20.6925 65.5054 20.7195 65.5216C25.0532 68.1435 27.0162 72.8927 28.9113 77.4771C31.282 83.2155 31.8633 83.6551 35.6157 93.6403C36.1668 95.1082 36.5292 96.0738 36.7255 96.4192C36.9218 96.7646 37.2163 97.2042 37.5711 97.0864C38.6508 96.6782 37.4126 88.3965 36.1895 81.5199C34.3171 71.0244 27.2201 60.9293 21.6029 54.3353C20.2288 52.7653 20.0174 51.5564 20.0929 50.8499C20.9611 52.1295 23.8679 54.5708 28.9037 61.4003C36.1442 71.1893 38.7791 84.0554 39.3907 96.3799C39.5341 98.6015 39.0509 99.2295 38.7791 99.41ZM39.1113 99.7711C39.9494 99.1274 39.9116 97.267 39.8663 96.1837C39.1566 81.4257 35.593 69.6193 29.2963 61.102C22.9996 52.5848 19.9041 50.6851 20.3571 50.0649C22.0106 48.9345 67.1218 34.3649 81.2026 31.1307C84.0036 35.0557 85.0984 39.9541 85.1059 44.7662L34.7323 61.314C34.6953 61.3248 34.6614 61.3449 34.6336 61.3726C34.6058 61.4003 34.585 61.4347 34.5731 61.4727C34.5611 61.5108 34.5584 61.5513 34.5651 61.5907C34.5718 61.6301 34.5878 61.6672 34.6115 61.6986L35.8195 63.3942C35.841 63.4255 35.8693 63.4511 35.9021 63.4688C35.9349 63.4866 35.9713 63.496 36.0083 63.4963C36.0838 63.4963 33.7433 64.2813 85.0833 47.498V50.4496C81.7386 51.5407 76.3102 53.3462 76.0233 53.6367C75.7364 53.9271 75.8572 53.8172 77.0274 56.7767C79.4736 62.9625 85.189 77.3986 84.0112 83.8592L83.2562 84.1653C83.5053 83.0428 83.8904 80.0676 82.3351 75.7658C82.3242 75.7359 82.3077 75.7085 82.2867 75.6853C82.2656 75.662 82.2403 75.6432 82.2122 75.6301C82.1842 75.617 82.1539 75.6097 82.1232 75.6088C82.0925 75.6078 82.0618 75.6132 82.0331 75.6245C69.6511 80.0127 69.6511 80.1304 69.6511 80.3345C70.2704 83.2247 70.6019 86.1736 70.6401 89.1344L69.636 89.5269C69.6556 86.1702 69.3521 82.8198 68.73 79.526C67.9523 75.2242 65.5816 67.0994 64.8266 67.0994C64.7134 67.0994 53.4261 70.6633 53.4261 71.4719C53.4261 72.0528 58.5903 83.4117 57.6164 93.97L56.4763 94.386C56.5587 90.6196 56.2805 86.854 55.6458 83.1448C54.9437 79.1492 52.6258 71.5818 52.0898 71.5818C51.9992 71.5818 40.7119 75.2556 40.4779 75.758C40.1759 76.3938 44.1321 81.7161 44.2529 98.7506C42.5954 99.3471 40.8636 99.6908 39.1113 99.7711ZM70.1871 80.5072C71.1913 80.0519 77.5861 77.744 82.0029 76.174C83.6186 80.7898 82.9089 83.8121 82.7579 84.4008C80.0927 85.4763 75.6609 87.2504 71.1837 88.9931C71.1473 86.1353 70.8132 83.2901 70.1871 80.5072ZM84.5774 83.6472C85.7628 75.444 77.1558 56.1094 76.5291 53.935C77.3596 53.5503 82.018 51.9882 85.1361 50.9755V83.4353L84.5774 83.6472ZM53.9395 71.5504C57.4687 70.0364 61.0755 68.7261 64.7436 67.6254C65.2117 68.324 67.2955 74.3371 68.2996 79.6908C68.9279 83.0127 69.2264 86.3928 69.1905 89.7781C61.9803 92.557 60.6137 92.9181 58.1147 93.8208C58.7413 86.2927 56.5216 78.5133 53.9395 71.5504ZM48.3827 97.8871C49.8927 97.3455 55.2306 95.3594 56.2649 94.9826L87.3407 97.1021C87.3407 97.1021 70.2173 127.419 70.089 127.654C69.9606 127.89 57.8278 145.058 40.7119 143.637C38.2884 143.433 34.2718 142.852 32.4069 141.196C25.8837 135.536 30.8139 126.697 31.0404 126.281L48.3827 97.8871ZM44.7512 98.6015C44.6606 89.4091 43.445 81.9359 41.1196 76.3703C41.0592 76.2211 40.9988 76.0798 40.9611 75.9778C42.1389 75.4126 50.7761 72.4531 51.969 72.0999C53.3728 75.6945 54.4471 79.4188 55.1777 83.2233C55.8202 86.9683 56.0934 90.7717 55.9931 94.5744C49.2585 97.0315 47.5145 97.7144 44.7512 98.6015ZM26.8577 122.505C27.3333 121.343 28.9415 118.807 29.8399 117.23C33.8188 110.11 40.1608 101.066 40.8252 100.124C43.1499 99.6448 45.4365 98.9835 47.6655 98.1462L30.6251 126.053C30.5647 126.147 25.544 135.128 31.5689 141.094C29.2118 139.808 27.3611 137.706 26.3367 135.151C24.2303 129.844 26.2084 124.13 26.8577 122.505ZM88.2996 95.5007C89.1452 97.2513 90.1493 100.148 88.9564 102.22C87.0538 105.502 71.6443 132.835 71.5008 133.118C71.4178 133.236 63.6715 145.011 51.1158 147.468C43.9282 148.881 37.0653 147.735 32.2408 144.328C29.7865 142.657 27.9025 140.223 26.8577 137.373C30.074 142.475 36.8539 144.226 42.7127 144.226C58.9905 144.226 70.3155 128.117 70.4438 127.929C70.5722 127.741 84.9549 102.275 87.688 97.4004C88.0413 96.8303 88.2516 96.1772 88.2996 95.5007ZM87.454 93.9778C87.6805 94.3737 87.8093 94.8217 87.8291 95.2819C87.8488 95.742 87.7589 96.2001 87.5672 96.6154C87.4917 96.6154 87.9447 96.6154 57.4125 94.5587C60.9988 93.2635 61.5726 93.2085 69.3038 90.2334C69.3868 90.2883 68.5488 90.2334 81.5574 90.2334C83.5129 90.7907 86.4272 92.1174 87.454 93.9778ZM132.467 76.5822C132.467 82.9093 128.39 83.451 128.209 83.4745C113.494 85.335 96.2573 87.847 83.6639 89.574C84.2188 89.1493 84.6784 88.6044 85.0108 87.9768C85.3433 87.3492 85.5406 86.6541 85.5891 85.9394V44.9467C85.642 35.04 80.5533 25.7456 71.2441 23.4534L93.0863 23.6732C93.2977 39.5852 93.5846 59.9873 93.5997 61.3532C93.5997 61.4003 93.7431 65.4666 97.0349 65.4666C97.4146 65.4845 97.7934 65.4166 98.1453 65.2675C98.4973 65.1185 98.8139 64.8918 99.0734 64.6031C100.13 63.3707 99.9568 61.2826 99.9417 61.1099C99.5264 50.481 98.8545 32.7478 98.5676 23.8616H115.178C130.315 23.8616 132.497 42.8665 132.543 43.0313L132.467 76.5822Z" fill="black"/>
<path d="M66.8052 69.5801C69.3495 77.4301 69.0098 79.4318 69.6213 79.4318C69.9309 79.4318 78.2812 76.2918 81.8599 74.9416C81.9121 74.9193 81.9555 74.8792 81.983 74.8278C82.0104 74.7765 82.0202 74.7169 82.0109 74.659C81.6784 72.8744 81.2499 71.1107 80.7274 69.376C80.5537 68.8343 79.2174 65.0585 78.6889 65.0585C78.334 65.0585 70.3839 68.0022 66.9562 69.2661C66.8977 69.2891 66.8497 69.3342 66.8217 69.3924C66.7937 69.4506 66.7878 69.5176 66.8052 69.5801ZM69.7346 78.8745C69.6289 78.5055 69.2967 76.8335 69.0475 75.7345C69.6948 74.1715 70.4284 72.6487 71.2446 71.1736L71.5843 71.3463C76.6051 73.9054 76.8014 73.8348 76.9675 73.772C77.1336 73.7092 77.3903 73.2617 77.8433 72.202C78.0063 71.7853 78.1928 71.379 78.402 70.9852C79.0588 71.2364 80.9614 72.359 81.0445 72.3825C81.2181 73.1126 81.3691 73.8348 81.5126 74.5648C77.1562 76.1898 70.8595 78.5448 69.7346 78.8745ZM78.5983 65.5295C79.2823 66.7728 79.8366 68.0886 80.2517 69.4545C80.4682 70.1767 80.672 70.9067 80.8633 71.6446C80.0585 71.1349 79.206 70.7115 78.3189 70.3808C78.0471 70.3808 77.9037 70.6712 77.3827 71.9508C77.2141 72.4007 77.0122 72.8364 76.7787 73.2539C76.0237 73.0733 71.4937 70.734 71.2823 70.6241C71.2169 70.5966 71.1438 70.5966 71.0785 70.6241C70.8067 70.734 70.0592 72.1941 68.8588 74.9809C68.4435 73.3559 67.8244 71.2443 67.3488 69.635C71.5919 68.0729 77.7829 65.8042 78.6134 65.5766L78.5983 65.5295Z" fill="black"/>
<path d="M65.8312 66.4637C66.5862 68.9443 66.4956 68.8187 66.5862 68.8972C66.6768 68.9757 65.8916 69.2347 78.3717 64.6582C78.4296 64.6367 78.4775 64.5931 78.5056 64.5362C78.5336 64.4793 78.5398 64.4134 78.5227 64.352C78.345 63.5927 78.0437 62.8705 77.6318 62.2168C77.6004 62.1803 77.5593 62.1541 77.5137 62.1415C77.468 62.129 77.4199 62.1306 77.3751 62.1462L65.9595 66.1575C65.9046 66.1819 65.8607 66.2272 65.8369 66.2841C65.813 66.341 65.811 66.4052 65.8312 66.4637ZM77.3902 62.6721C77.6567 63.1705 77.8719 63.6967 78.032 64.2421L66.8882 68.3555L66.3521 66.55L77.3902 62.6721Z" fill="black"/>
<path d="M77.2844 61.3689C77.0014 60.0837 76.5168 58.8557 75.8499 57.7343C75.8212 57.6891 75.7792 57.6548 75.7303 57.6364C75.6813 57.618 75.6279 57.6166 75.5781 57.6323C38.115 69.682 38.3868 69.9725 38.3868 70.2394C38.8668 71.6901 39.4212 73.113 40.0478 74.5019C40.0649 74.5473 40.0952 74.586 40.1344 74.6127C40.1736 74.6394 40.2199 74.6528 40.2667 74.6511C40.3422 74.6511 39.6778 74.8709 77.1409 61.6279C77.1891 61.6075 77.2294 61.5709 77.2554 61.524C77.2814 61.4771 77.2916 61.4225 77.2844 61.3689ZM40.3951 74.1173C39.8515 72.822 39.0889 70.9773 38.8851 70.3964C41.0444 69.5329 63.4528 62.1303 75.5554 58.1661C76.1058 59.1277 76.5203 60.1667 76.7861 61.2511L40.3951 74.1173Z" fill="black"/>
<path d="M43.3771 48.5813C43.5471 48.5456 43.712 48.4875 43.8679 48.4086L46.601 53.3698L46.3216 53.4954C46.2725 53.519 46.2325 53.5591 46.208 53.6092C46.1834 53.6593 46.1757 53.7166 46.1862 53.7718C46.1966 53.827 46.2246 53.8769 46.2655 53.9136C46.3065 53.9503 46.3582 53.9717 46.4122 53.9742C46.4877 53.9742 46.4122 53.9742 47.5674 53.4875C47.5966 53.4747 47.6232 53.4559 47.6455 53.4324C47.6678 53.4089 47.6854 53.381 47.6973 53.3504C47.7093 53.3197 47.7153 53.287 47.715 53.2539C47.7147 53.2209 47.7082 53.1882 47.6957 53.1578C47.6834 53.1284 47.6656 53.1017 47.6434 53.0794C47.6211 53.0572 47.5949 53.0397 47.5661 53.028C47.5373 53.0163 47.5066 53.0107 47.4757 53.0114C47.4449 53.0121 47.4144 53.0192 47.3862 53.0322L47.0464 53.1814L44.7059 48.9345L50.5647 52.365C50.6089 52.3884 50.6589 52.3971 50.708 52.39C50.7571 52.3828 50.8029 52.3601 50.8392 52.325C50.8755 52.2898 50.9005 52.2439 50.9108 52.1935C50.9211 52.1431 50.9163 52.0906 50.8969 52.0431L48.4809 46.7758L48.7225 46.6894C48.7827 46.6663 48.832 46.6199 48.8601 46.56C48.8882 46.5 48.8931 46.4311 48.8735 46.3676C48.8634 46.337 48.8475 46.3088 48.8267 46.2846C48.806 46.2605 48.7808 46.2409 48.7527 46.227C48.7245 46.2131 48.694 46.2052 48.6629 46.2037C48.6318 46.2023 48.6007 46.2073 48.5715 46.2184L47.4013 46.6345C47.344 46.649 47.2942 46.6855 47.2617 46.7366C47.2291 46.7878 47.2164 46.8497 47.2259 46.9102C47.2355 46.9707 47.2666 47.0252 47.3131 47.0629C47.3596 47.1005 47.418 47.1185 47.4768 47.1133C47.6666 47.0756 47.8516 47.015 48.0279 46.9328L50.1419 51.5486L44.4115 48.1888L44.6606 48.0946C44.7193 48.0701 44.7663 48.0226 44.7917 47.9625C44.8171 47.9023 44.8189 47.8342 44.7965 47.7727C44.7856 47.7428 44.7692 47.7154 44.7481 47.6921C44.727 47.6689 44.7017 47.6501 44.6737 47.637C44.6456 47.6239 44.6154 47.6166 44.5846 47.6157C44.5539 47.6147 44.5233 47.6201 44.4945 47.6314L43.3092 48.1024C43.2531 48.1174 43.2044 48.1534 43.1724 48.2034C43.1404 48.2535 43.1274 48.3142 43.1358 48.3737C43.1443 48.4331 43.1736 48.4873 43.2181 48.5256C43.2627 48.564 43.3193 48.5838 43.3771 48.5813Z" fill="black"/>
<path d="M53.2073 51.2504C53.2333 51.3026 53.2771 51.3429 53.3302 51.3632C53.3833 51.3836 53.4418 51.3825 53.4942 51.3603C57.3749 49.9002 57.1408 50.0101 57.1937 49.8609C57.2465 49.7118 57.239 49.7589 56.6878 48.5578C56.6601 48.4992 56.6115 48.454 56.5523 48.4321C56.4931 48.4101 56.4279 48.4129 56.3707 48.4401C56.3421 48.4535 56.3164 48.4729 56.2951 48.4969C56.2738 48.5209 56.2574 48.5492 56.2468 48.5799C56.2362 48.6107 56.2317 48.6434 56.2336 48.676C56.2354 48.7086 56.2435 48.7405 56.2575 48.7698L56.6501 49.6333L53.5093 50.8265L52.3692 48.8797L53.8792 48.3694C53.9774 48.55 54.0151 48.6677 54.1812 48.6677C54.2232 48.6668 54.2642 48.6544 54.3002 48.632C54.3361 48.6096 54.3659 48.5778 54.3865 48.5397C54.407 48.5017 54.4177 48.4588 54.4175 48.4151C54.4172 48.3715 54.4061 48.3287 54.3851 48.2909L53.8792 47.4745C53.8439 47.4246 53.7921 47.39 53.7338 47.3774C53.6754 47.3648 53.6146 47.3751 53.5631 47.4063C53.5116 47.4374 53.473 47.4873 53.4547 47.5462C53.4364 47.6052 53.4397 47.6691 53.464 47.7257L53.5923 47.9534L52.0823 48.4558L50.7233 46.1008L53.8792 45.1195L54.37 45.9045C54.4042 45.9606 54.4583 46.0003 54.5205 46.015C54.5828 46.0297 54.6481 46.0182 54.7022 45.983C54.728 45.9655 54.7503 45.9429 54.7677 45.9165C54.7851 45.89 54.7973 45.8603 54.8036 45.8289C54.8099 45.7976 54.8102 45.7652 54.8045 45.7337C54.7987 45.7022 54.787 45.6723 54.7701 45.6455L54.1888 44.6721C54.1601 44.6269 54.1182 44.5925 54.0692 44.5741C54.0202 44.5557 53.9668 44.5543 53.917 44.57L50.3534 45.7083C50.3186 45.7185 50.2866 45.737 50.2599 45.7622C50.2331 45.7874 50.2124 45.8188 50.1992 45.8537C50.186 45.8887 50.1808 45.9264 50.184 45.9638C50.1872 46.0012 50.1986 46.0373 50.2175 46.0694L53.2073 51.2504Z" fill="black"/>
<path d="M55.6991 44.7347C55.856 44.7036 56.01 44.659 56.1597 44.6013C60.3046 49.3113 60.0932 49.1621 60.2442 49.1621C60.278 49.1623 60.3114 49.1551 60.3422 49.141C60.3731 49.1269 60.4009 49.1063 60.4236 49.0804C60.4464 49.0545 60.4637 49.024 60.4744 48.9908C60.4851 48.9575 60.489 48.9223 60.4858 48.8874L59.9196 44.2873L62.9396 47.8904C62.9746 47.9289 63.0204 47.9549 63.0705 47.9647C63.1206 47.9745 63.1723 47.9676 63.2184 47.945C63.2645 47.9223 63.3025 47.8851 63.327 47.8387C63.3515 47.7922 63.3612 47.7389 63.3548 47.6863L62.4941 42.3091L62.8339 42.1756C62.8631 42.1643 62.89 42.1471 62.9128 42.125C62.9357 42.1028 62.9541 42.0763 62.9671 42.0467C62.98 42.0172 62.9873 41.9853 62.9884 41.9529C62.9895 41.9205 62.9845 41.8881 62.9736 41.8577C62.9627 41.8273 62.9461 41.7994 62.9248 41.7757C62.9036 41.7519 62.878 41.7327 62.8496 41.7192C62.8212 41.7058 62.7905 41.6982 62.7594 41.6971C62.7282 41.6959 62.697 41.7011 62.6678 41.7125L61.5202 42.1521C61.4616 42.1766 61.4145 42.224 61.3891 42.2842C61.3637 42.3443 61.362 42.4125 61.3843 42.4739C61.3952 42.5038 61.4116 42.5312 61.4327 42.5545C61.4538 42.5778 61.4791 42.5965 61.5071 42.6097C61.5352 42.6228 61.5654 42.63 61.5962 42.631C61.6269 42.6319 61.6575 42.6266 61.6863 42.6152L62.0411 42.4818L62.7508 46.9092L59.9196 43.5023L60.1612 43.4238C60.2194 43.4008 60.2669 43.3552 60.2936 43.2967C60.3203 43.2382 60.3243 43.1712 60.3046 43.1098C60.2953 43.0785 60.2799 43.0494 60.2595 43.0245C60.2391 42.9995 60.214 42.979 60.1858 42.9644C60.1576 42.9497 60.1268 42.9411 60.0954 42.9391C60.0639 42.9371 60.0324 42.9418 60.0026 42.9528L58.7418 43.3924C58.6833 43.4154 58.6353 43.4606 58.6073 43.5187C58.5794 43.5769 58.5735 43.6439 58.5908 43.7064C58.6002 43.7377 58.6155 43.7667 58.6359 43.7917C58.6563 43.8167 58.6814 43.8371 58.7096 43.8518C58.7378 43.8664 58.7686 43.875 58.8001 43.877C58.8315 43.879 58.8631 43.8744 58.8928 43.8634L59.3986 43.6907L59.9271 48.173L56.6655 44.4364L56.8996 44.3344C56.9543 44.3104 56.9987 44.2663 57.0241 44.2105C57.0496 44.1546 57.0543 44.091 57.0375 44.0318C57.0207 43.9725 56.9835 43.9218 56.933 43.8893C56.8825 43.8568 56.8222 43.8448 56.7637 43.8555L55.6387 44.2166C55.5727 44.225 55.5125 44.2602 55.4714 44.3147C55.4303 44.3692 55.4118 44.4384 55.4198 44.5071C55.4278 44.5758 55.4617 44.6384 55.5141 44.6811C55.5665 44.7237 55.6331 44.7431 55.6991 44.7347Z" fill="black"/>
<path d="M68.979 45.0644C69.0409 45.1734 69.0803 45.2947 69.0946 45.4204C69.1089 45.5461 69.0978 45.6735 69.0621 45.7945C68.7525 46.7679 67.2274 46.6737 66.2761 46.4303L65.959 45.8102C65.9263 45.7617 65.8781 45.7269 65.823 45.7118C65.7679 45.6967 65.7095 45.7023 65.658 45.7277C65.6065 45.753 65.5653 45.7965 65.5416 45.8504C65.518 45.9042 65.5134 45.9651 65.5287 46.0221C65.5287 46.0221 65.5287 46.0849 66.48 47.5921C66.5141 47.6482 66.5683 47.6879 66.6305 47.7026C66.6927 47.7173 66.7581 47.7058 66.8122 47.6706C66.8646 47.6338 66.9016 47.5776 66.9156 47.5134C66.9296 47.4493 66.9196 47.382 66.8877 47.3252L66.6763 46.9877C67.3766 47.1434 68.1053 47.0862 68.7752 46.8228C68.9545 46.748 69.1164 46.6343 69.2501 46.4893C69.3838 46.3442 69.4862 46.1712 69.5505 45.9818C69.6148 45.7924 69.6395 45.5908 69.623 45.3907C69.6065 45.1905 69.5491 44.9964 69.4547 44.8211C68.3146 42.4661 65.121 44.5934 64.6076 42.6859C64.556 42.4551 64.5915 42.2126 64.7066 42.0082C64.8218 41.8038 65.0079 41.653 65.2267 41.5869C65.6464 41.416 66.1012 41.3592 66.5479 41.422L66.8197 42.0265C66.8404 42.0685 66.8717 42.1039 66.9103 42.1289C66.9489 42.1538 66.9933 42.1672 67.0387 42.1678C67.0789 42.1682 67.1185 42.1579 67.1538 42.1378C67.1891 42.1177 67.2187 42.0885 67.24 42.053C67.2612 42.0175 67.2733 41.9769 67.2751 41.9351C67.2769 41.8934 67.2682 41.8518 67.2501 41.8145L66.6914 40.5978C66.6586 40.5493 66.6104 40.5145 66.5553 40.4994C66.5003 40.4843 66.4418 40.4899 66.3903 40.5153C66.3389 40.5406 66.2976 40.5841 66.274 40.638C66.2503 40.6918 66.2457 40.7527 66.261 40.8097L66.3063 40.9039C65.8694 40.8819 65.4333 40.9624 65.0304 41.1394C64.703 41.2466 64.4281 41.4813 64.2635 41.7945C64.0988 42.1077 64.0571 42.4749 64.147 42.8193C64.7812 45.2764 68.0126 43.0548 68.979 45.0644Z" fill="black"/>
<path d="M72.3993 56.4393L71.7576 55.3246C71.73 55.278 71.6885 55.242 71.6394 55.2222C71.5904 55.2023 71.5364 55.1997 71.4858 55.2147C34.4077 67.3822 36.7558 66.3852 36.7029 66.5658C36.6879 66.6003 36.6802 66.6378 36.6802 66.6757C36.6802 66.7136 36.6879 66.751 36.7029 66.7856L37.541 68.1436C37.5705 68.1879 37.6125 68.2215 37.6612 68.2398C37.7099 68.2581 37.7629 68.2601 37.8128 68.2457C74.8078 56.1724 72.3314 56.8239 72.3993 56.6434C72.4131 56.6112 72.4202 56.5765 72.4202 56.5413C72.4202 56.5061 72.4131 56.4714 72.3993 56.4393Z" fill="black"/>
</svg>
