<svg width="153" height="158" viewBox="0 0 153 158" fill="none" xmlns="http://www.w3.org/2000/svg">
<path d="M73.1529 105.725C72.5197 103.373 71.5046 101.148 70.1509 99.1464L71.4117 98.2044L71.3236 97.9524L91.3784 84.3342C92.273 76.2204 93.5672 68.1224 94.8919 61.5629C95.2043 59.8152 95.9871 58.1937 97.1506 56.8843C98.5955 55.4782 100.237 54.305 102.021 53.4044L111.581 47.699L111.677 48.0209L116.258 48.2313L119.553 28.7248C131.561 32.8531 129.523 32.1003 131.287 32.8853L130.762 34.5935L131.35 34.6775L131.94 47.7972C134.614 48.9062 137.11 50.4275 139.343 52.3093C141.175 53.7468 142.732 55.5249 143.933 57.5524C145.326 59.7667 146.06 62.3549 146.042 64.9957C145.981 66.926 145.504 68.818 144.648 70.5347C143.842 72.0346 142.835 73.4089 141.655 74.6167C140.688 75.718 139.653 76.7537 138.557 77.7174C139.201 86.7324 139.508 93.4284 139.541 95.6861C139.536 98.2576 139.261 100.821 138.72 103.331C138.539 105.069 140.001 108.341 140.812 109.876C141.293 110.671 141.734 111.492 142.132 112.335C142.563 113.129 142.81 114.016 142.852 114.926C142.839 115.306 142.74 116.206 140.816 118.424C139.83 119.562 138.748 120.606 137.583 121.546V128.146L112.59 133.046L94.2102 121.814C94.2383 120.473 94.617 119.164 95.3061 118.027C92.7069 114.102 92.9342 114.293 92.1141 112.978C91.3967 111.834 91.1474 111.494 91.0501 110.888C90.9548 110.208 91.0429 109.515 91.3047 108.884C91.9218 107.323 92.9007 103.154 94.2885 96.9625C91.1877 98.1753 76.9916 104.042 73.1529 105.725Z" fill="white"/>
<path d="M39.1981 87.5441L60.6005 96.7725C61.7868 97.4585 62.876 98.3102 63.8373 99.3034C64.7889 100.108 65.8118 100.817 66.8925 101.423C69.3245 102.984 71.1295 104.071 73.3981 106.978C74.9521 108.811 76.136 110.946 76.8804 113.258C77.2977 114.44 77.4558 115.702 77.3433 116.955C77.3433 119.193 75.7647 120.813 75.2069 121.429C73.6223 123.172 70.4774 124.524 66.9229 124.715C62.1851 124.971 58.5933 123.067 55.4963 121.411C54.3198 120.783 53.1091 120.047 47.3856 115.73C44.0651 113.225 41.3223 111.099 39.3645 109.564C39.1107 101.326 39.0932 94.5533 39.1981 87.5441Z" fill="white"/>
<path d="M23.2378 61.2466L17.9178 61.9939C13.5501 64.4923 10.2118 68.5467 8.52574 73.4007C6.3263 79.4759 6.32782 85.8461 6.69262 90.1864L39.3772 109.568C39.1682 102.788 39.1089 92.6489 39.1385 89.841C39.2145 81.1016 41.5508 71.9728 49.5771 69.2002C50.5318 68.8839 51.5279 68.7213 52.5305 68.7182L23.2378 61.2466Z" fill="#81F8F8"/>
<path d="M22.2133 86.1601C21.7657 86.3535 21.3861 86.6837 21.1254 87.1063C20.8647 87.5289 20.7354 88.0238 20.7548 88.5245C20.7689 88.8346 20.8423 89.1388 20.9706 89.4195C21.0989 89.7002 21.2797 89.9519 21.5025 90.1602C21.7253 90.3685 21.9859 90.5292 22.269 90.6331C22.5522 90.737 22.8525 90.7821 23.1526 90.7657C23.7843 90.7455 24.3848 90.4773 24.8318 90.0159C25.2788 89.5545 25.5388 88.9344 25.5588 88.282C25.5671 87.8095 25.4304 87.3465 25.1683 86.9593C24.9061 86.572 24.532 86.2805 24.0996 86.1264L23.522 55.2209L21.6851 55.9211L22.2133 86.1601Z" fill="white"/>
<path d="M120.527 53.972C118.602 54.2648 116.64 53.8202 115.01 52.722C113.381 51.6237 112.197 49.9477 111.681 48.0099L114.153 46.8191L114.286 45.22C113.697 45.3262 113.094 45.3156 112.51 45.1886C111.756 45.0053 111.051 44.6502 110.447 44.1493C108.338 42.4131 106.604 40.2412 105.355 37.7727C103.634 34.5111 104.818 33.9631 104.28 32.3029C103.773 30.7415 102.728 30.9252 102.129 29.261C101.792 28.3268 101.943 27.7695 101.977 26.1854C102.007 24.5565 101.9 22.928 101.657 21.3184C104.131 17.1048 107.664 13.6623 111.881 11.3571C116.098 9.05179 120.841 7.9698 125.605 8.22613C125.94 7.9947 126.35 7.91 126.745 7.99063C127.196 8.1233 127.184 8.46791 127.894 9.15636C128.506 9.74903 128.829 9.78907 129.202 10.3912C129.333 10.6028 129.438 10.8303 129.515 11.0686C130.087 11.2437 130.587 11.6069 130.941 12.1028C131.294 12.5988 131.481 13.2004 131.473 13.8161C131.724 13.7769 131.979 13.8421 132.184 13.9975C132.43 14.2078 132.463 14.5297 132.498 14.9709C132.534 15.4325 132.499 15.8972 132.391 16.347C132.572 16.4499 132.731 16.5896 132.859 16.7577C132.986 16.9258 133.08 17.1188 133.133 17.3251C133.2 17.7458 132.981 18.0473 132.687 18.7726C132.529 19.1651 132.58 19.1109 132.226 20.2578C131.992 21.0177 131.513 22.5194 130.467 25.7049C130.427 28.0168 130.269 30.3364 130.043 32.3123C125.11 30.7745 123.238 31.5273 123.162 31.5218V33.478L122.491 33.3791C121.997 40.1976 121.359 46.9447 120.527 53.972Z" fill="#FFD997"/>
<path d="M25.7451 101.585L33.0791 105.853V152.16L25.7451 151.798V101.585Z" fill="#FFD997"/>
<path d="M60.6004 96.7726C60.7334 93.6326 60.8633 91.1449 60.9469 89.6071C61.1696 85.5133 61.7829 79.7161 59.6861 75.0759C58.996 73.5468 57.3924 70.0292 53.9861 69.0448C45.9438 66.722 39.6593 77.4537 39.2109 87.5472L60.6004 96.7726Z" fill="#FFD997"/>
<path d="M124.085 27.4414C123.183 27.6775 122.243 27.7218 121.323 27.5717C120.05 22.5477 122.331 20.005 120.977 17.9907C120.611 17.465 120.102 17.0635 119.515 16.8376C116.815 15.7456 114.347 18.7875 109.777 20.4541C109.169 20.677 102.814 22.9967 100.961 20.7743C99.0143 18.4398 101.994 11.0254 107.117 7.29512C107.479 7.03136 113.925 2.41477 120.934 5.16384C122.676 5.84938 124.263 6.89609 125.598 8.23947C124.436 9.00744 123.21 9.66784 121.934 10.213C120.512 10.7915 120.008 10.7263 119.958 11.0294C119.875 11.5239 121.12 12.3011 122.296 12.502C123.255 12.6611 124.237 12.502 125.103 12.0475C124.205 13.6176 123.59 15.3434 123.29 17.1406C123.062 18.3016 123.138 18.1925 122.634 23.0822C122.508 23.7964 122.532 24.5304 122.706 25.2339C122.955 26.0894 123.433 26.8546 124.085 27.4414Z" fill="#81F8F8"/>
<path d="M116.736 36.7514C115.748 36.6869 114.757 36.7769 113.796 37.0183C113.764 37.0262 113.735 37.0424 113.711 37.0652C113.688 37.088 113.67 37.1167 113.66 37.1487C113.614 37.2866 113.541 37.4136 113.447 37.5219C113.352 37.6302 113.237 37.7176 113.109 37.7789C112.981 37.8401 112.842 37.8739 112.701 37.8782C112.559 37.8826 112.419 37.8574 112.287 37.8041C112.253 37.7925 112.216 37.791 112.18 37.7999C112.145 37.8087 112.113 37.8276 112.087 37.8544C111.614 38.3686 111.196 38.9339 110.839 39.5406C110.809 39.5932 110.794 39.6542 110.797 39.7157C110.8 39.7772 110.821 39.8363 110.857 39.8854C110.893 39.9345 110.942 39.9713 110.998 39.9912C111.055 40.011 111.116 40.0129 111.173 39.9966C113.202 39.4216 115.128 38.509 116.873 37.2947C116.923 37.2605 116.961 37.211 116.983 37.1532C117.004 37.0954 117.007 37.0321 116.992 36.9723C116.977 36.9124 116.944 36.859 116.898 36.8194C116.852 36.7798 116.795 36.756 116.736 36.7514Z" fill="black"/>
<path d="M72.7481 106.146C72.8467 106.122 72.9367 106.069 73.0082 105.995C73.0797 105.921 73.1299 105.827 73.1532 105.725C72.4235 103.546 71.4867 101.447 70.3564 99.458L69.699 99.8348C69.1581 99.1718 68.5692 98.5522 67.9373 97.9814C66.8528 97.001 66.5116 96.9609 66.3201 96.9672C65.8884 96.9853 65.7295 97.2553 64.5888 98.3386C64.1465 98.7586 61.6833 100.957 61.0928 101.457C61.3719 101.768 61.734 101.986 62.1332 102.085C63.144 102.328 63.7885 101.45 66.3497 101.094C68.807 102.287 70.9887 104.01 72.7481 106.146Z" fill="#FFD997"/>
<path d="M24.4764 85.9592L23.9018 55.2131C23.9006 55.1505 23.8849 55.0892 23.8561 55.0341C23.8272 54.9791 23.7861 54.932 23.736 54.8967C23.686 54.8615 23.6285 54.8391 23.5683 54.8314C23.5082 54.8238 23.4472 54.8311 23.3903 54.8528L12.8742 58.6781C12.8056 58.7029 12.7452 58.7475 12.7004 58.8067C12.6555 58.8658 12.6281 58.9371 12.6213 59.0119C12.6145 59.0867 12.6286 59.1619 12.662 59.2287C12.6954 59.2955 12.7466 59.3509 12.8096 59.3885L21.4782 64.5781L21.9076 85.9395C21.3867 86.2304 20.9743 86.6919 20.7354 87.2514C20.4964 87.811 20.4445 88.4367 20.5877 89.0301C20.731 89.6235 21.0613 90.1508 21.5266 90.5289C21.992 90.9071 22.5659 91.1146 23.1579 91.1187C23.75 91.1229 24.3266 90.9235 24.7968 90.5519C25.2671 90.1803 25.6043 89.6577 25.7554 89.0664C25.9065 88.4751 25.8628 87.8487 25.6312 87.2858C25.3996 86.723 24.9934 86.2557 24.4764 85.9576V85.9592ZM22.0702 56.192L23.1502 55.7799L23.708 85.6507C23.362 85.5777 23.0053 85.5777 22.6592 85.6507L22.0702 56.192ZM23.176 90.3198C22.7987 90.3198 22.4299 90.2043 22.1162 89.9878C21.8025 89.7713 21.558 89.4635 21.4136 89.1035C21.2693 88.7435 21.2315 88.3473 21.3051 87.9651C21.3787 87.5829 21.5604 87.2318 21.8271 86.9562C22.0939 86.6807 22.4338 86.493 22.8039 86.417C23.1739 86.341 23.5575 86.38 23.906 86.5291C24.2546 86.6783 24.5525 86.9308 24.7621 87.2548C24.9717 87.5789 25.0836 87.9598 25.0836 88.3495C25.083 88.8719 24.8819 89.3727 24.5242 89.7421C24.1666 90.1114 23.6818 90.3192 23.176 90.3198Z" fill="black"/>
<path d="M17.9727 59.5785C17.9727 60.0561 18.0843 60.5141 18.283 60.8518C18.4816 61.1895 18.7511 61.3793 19.0321 61.3793C19.3131 61.3793 19.5825 61.1895 19.7812 60.8518C19.9799 60.5141 20.0915 60.0561 20.0915 59.5785C20.0915 59.1009 19.9799 58.6428 19.7812 58.3051C19.5825 57.9674 19.3131 57.7777 19.0321 57.7777C18.7511 57.7777 18.4816 57.9674 18.283 58.3051C18.0843 58.6428 17.9727 59.1009 17.9727 59.5785Z" fill="white"/>
<path d="M41.839 82.878C41.7382 82.8821 41.64 82.8446 41.5659 82.7739C41.4919 82.7032 41.4481 82.6049 41.4441 82.5008C41.4402 82.3967 41.4765 82.2953 41.545 82.2188C41.6134 82.1423 41.7085 82.0971 41.8093 82.093C42.1609 82.0625 42.5138 82.0515 42.8665 82.0601C42.9671 82.0623 43.0628 82.1058 43.1325 82.1808C43.2022 82.2559 43.2402 82.3564 43.2381 82.4604C43.2385 82.5124 43.2286 82.5639 43.209 82.6117C43.1895 82.6596 43.1607 82.7029 43.1244 82.7389C43.0882 82.7749 43.0452 82.8029 42.9981 82.8211C42.951 82.8394 42.9008 82.8475 42.8505 82.8451C42.513 82.8366 42.1753 82.8476 41.839 82.878Z" fill="black"/>
<path d="M58.1108 114.047C57.4033 114.033 56.6998 113.933 56.0147 113.751C55.9656 113.738 55.9193 113.716 55.8786 113.685C55.8379 113.654 55.8036 113.615 55.7777 113.57C55.7518 113.525 55.7348 113.476 55.7277 113.424C55.7206 113.372 55.7235 113.32 55.7364 113.269C55.7492 113.219 55.7717 113.171 55.8024 113.13C55.8332 113.089 55.8717 113.054 55.9156 113.028C55.9594 113.002 56.0079 112.986 56.0581 112.979C56.1082 112.973 56.1591 112.977 56.2077 112.991C56.8325 113.158 57.474 113.249 58.1191 113.262C58.2199 113.263 58.3161 113.306 58.3866 113.38C58.4571 113.455 58.4961 113.555 58.4949 113.659C58.4938 113.763 58.4527 113.863 58.3807 113.935C58.3086 114.008 58.2116 114.048 58.1108 114.047ZM59.7493 113.568C59.7415 113.517 59.7435 113.465 59.7552 113.415C59.7669 113.365 59.788 113.318 59.8173 113.276C59.8467 113.235 59.8837 113.199 59.9263 113.172C59.9689 113.145 60.0162 113.127 60.0655 113.119C60.7138 113.01 61.354 112.855 61.9815 112.654C62.0298 112.636 62.0812 112.628 62.1325 112.632C62.1838 112.635 62.2339 112.649 62.2798 112.673C62.3258 112.696 62.3665 112.729 62.3997 112.77C62.4329 112.81 62.4578 112.858 62.4728 112.908C62.4879 112.959 62.4928 113.012 62.4874 113.065C62.4819 113.118 62.4662 113.169 62.441 113.215C62.4159 113.262 62.382 113.302 62.3413 113.334C62.3005 113.367 62.2539 113.39 62.2041 113.404C61.5428 113.616 60.8678 113.78 60.1841 113.895C60.0849 113.911 59.9836 113.886 59.9021 113.826C59.8207 113.765 59.7657 113.674 59.7493 113.572V113.568ZM54.2454 112.973C54.179 112.973 54.1137 112.955 54.0562 112.921C53.4462 112.553 52.8822 112.109 52.3766 111.599C52.3405 111.563 52.3116 111.52 52.2915 111.473C52.2715 111.426 52.2607 111.375 52.2597 111.323C52.2588 111.271 52.2677 111.22 52.286 111.172C52.3043 111.124 52.3317 111.08 52.3664 111.043C52.4012 111.006 52.4427 110.976 52.4886 110.955C52.5345 110.935 52.5839 110.924 52.6339 110.923C52.6839 110.922 52.7336 110.932 52.7801 110.951C52.8266 110.97 52.8689 110.998 52.9048 111.034C53.3656 111.499 53.8793 111.904 54.4347 112.24C54.5074 112.283 54.5644 112.35 54.5967 112.43C54.6289 112.51 54.6347 112.598 54.6131 112.682C54.5915 112.766 54.5438 112.84 54.4773 112.892C54.4107 112.945 54.3292 112.974 54.2454 112.973ZM63.6428 112.466C63.6039 112.37 63.6034 112.262 63.6415 112.166C63.6795 112.07 63.753 111.993 63.8457 111.953C64.4499 111.691 65.0342 111.383 65.5937 111.03C65.6797 110.976 65.783 110.959 65.881 110.984C65.979 111.008 66.0636 111.072 66.1162 111.16C66.1688 111.249 66.1851 111.356 66.1616 111.457C66.138 111.558 66.0764 111.646 65.9905 111.7C65.398 112.073 64.7794 112.399 64.1398 112.677C64.0469 112.717 63.9424 112.717 63.8492 112.678C63.756 112.638 63.6817 112.562 63.6428 112.466ZM67.4337 110.541C67.3556 110.541 67.2795 110.516 67.2156 110.469C67.1517 110.423 67.1031 110.358 67.0765 110.282C67.05 110.206 67.0467 110.124 67.067 110.046C67.0874 109.968 67.1305 109.898 67.1905 109.847C67.6943 109.411 68.1698 108.941 68.614 108.44C68.6831 108.368 68.7767 108.326 68.8751 108.323C68.9734 108.321 69.0689 108.358 69.1413 108.427C69.2138 108.496 69.2576 108.591 69.2636 108.692C69.2696 108.793 69.2372 108.893 69.1733 108.971C68.7066 109.497 68.207 109.991 67.6777 110.45C67.6092 110.509 67.5228 110.541 67.4337 110.541ZM51.3468 110.106C51.284 110.106 51.2222 110.09 51.1669 110.059C51.1116 110.028 51.0645 109.984 51.0298 109.93C50.6359 109.321 50.3204 108.661 50.0912 107.967C50.0644 107.87 50.0748 107.766 50.1203 107.677C50.1658 107.587 50.2429 107.52 50.3356 107.487C50.4284 107.455 50.5295 107.461 50.618 107.504C50.7065 107.547 50.7757 107.624 50.811 107.718C51.02 108.345 51.3066 108.942 51.6637 109.493C51.7024 109.553 51.7248 109.622 51.7284 109.693C51.7319 109.764 51.7166 109.835 51.684 109.898C51.6514 109.961 51.6027 110.014 51.5433 110.05C51.4839 110.087 51.4159 110.106 51.3468 110.106ZM70.1765 107.485C70.106 107.485 70.0368 107.465 69.9768 107.427C69.9167 107.389 69.8682 107.334 69.8366 107.268C69.8051 107.203 69.7917 107.13 69.7981 107.058C69.8044 106.985 69.8302 106.916 69.8725 106.857C70.3285 106.22 70.7177 105.613 71.0042 105.157C71.0589 105.07 71.145 105.008 71.2436 104.986C71.3421 104.965 71.4451 104.984 71.5297 105.041C71.6144 105.097 71.6738 105.186 71.695 105.288C71.7161 105.39 71.6973 105.496 71.6426 105.583C71.35 106.05 70.954 106.67 70.4828 107.325C70.4477 107.375 70.4018 107.415 70.3489 107.443C70.2959 107.471 70.2374 107.485 70.178 107.485H70.1765ZM50.1384 106.184C50.0379 106.177 49.9441 106.13 49.8776 106.052C49.8111 105.974 49.7772 105.872 49.7834 105.768C49.8049 104.987 50.0663 104.234 50.5298 103.617C50.5594 103.573 50.5974 103.536 50.6413 103.508C50.6853 103.48 50.7343 103.462 50.7854 103.454C50.8366 103.446 50.8887 103.449 50.9386 103.463C50.9886 103.476 51.0353 103.5 51.0759 103.533C51.1166 103.566 51.1503 103.608 51.1749 103.654C51.1996 103.701 51.2148 103.753 51.2195 103.806C51.2242 103.859 51.2184 103.913 51.2024 103.964C51.1864 104.014 51.1605 104.061 51.1264 104.101C50.7588 104.594 50.554 105.195 50.5419 105.817C50.5388 105.868 50.5259 105.918 50.504 105.965C50.482 106.011 50.4514 106.053 50.4139 106.087C50.3764 106.121 50.3328 106.147 50.2855 106.164C50.2382 106.18 50.1882 106.187 50.1384 106.184ZM72.4102 104C72.3426 104 72.2762 103.981 72.2178 103.946C72.1595 103.911 72.1114 103.86 72.0784 103.799C72.0454 103.738 72.0287 103.669 72.0301 103.599C72.0316 103.53 72.051 103.461 72.0864 103.402C72.4892 102.727 72.8016 102.158 73.0744 101.613C73.0961 101.565 73.1268 101.523 73.1647 101.488C73.2026 101.453 73.2469 101.426 73.295 101.409C73.3431 101.392 73.3941 101.385 73.4448 101.389C73.4956 101.392 73.5451 101.406 73.5904 101.43C73.6357 101.454 73.676 101.487 73.7088 101.527C73.7416 101.567 73.7662 101.614 73.7812 101.664C73.7962 101.714 73.8014 101.767 73.7963 101.819C73.7912 101.872 73.776 101.922 73.7516 101.968C73.4734 102.534 73.1512 103.12 72.7377 103.813C72.7034 103.871 72.6552 103.918 72.5978 103.951C72.5404 103.984 72.4757 104.001 72.4102 104ZM52.217 102.739C52.1433 102.738 52.0713 102.716 52.0096 102.675C51.9479 102.633 51.8993 102.574 51.8695 102.504C51.8398 102.435 51.8303 102.358 51.8422 102.283C51.8541 102.208 51.8869 102.138 51.9365 102.082C52.3778 101.581 52.7842 101.048 53.1525 100.488C53.1797 100.443 53.2154 100.404 53.2574 100.374C53.2995 100.344 53.347 100.323 53.3972 100.312C53.4474 100.301 53.4992 100.301 53.5494 100.311C53.5997 100.322 53.6474 100.342 53.6897 100.372C53.7319 100.402 53.7679 100.441 53.7954 100.485C53.8229 100.53 53.8414 100.58 53.8497 100.632C53.858 100.684 53.8561 100.738 53.8439 100.789C53.8317 100.841 53.8095 100.889 53.7788 100.931C53.3899 101.522 52.9609 102.083 52.4951 102.611C52.4598 102.651 52.4169 102.683 52.369 102.705C52.3211 102.727 52.2694 102.738 52.217 102.739ZM74.2144 100.271C74.1536 100.271 74.0937 100.256 74.0398 100.228C73.9858 100.199 73.9392 100.157 73.9041 100.106C73.869 100.055 73.8462 99.9954 73.8378 99.9332C73.8294 99.871 73.8355 99.8077 73.8557 99.7485C74.0744 99.115 74.236 98.462 74.3383 97.7978C74.3538 97.6951 74.4082 97.6029 74.4894 97.5416C74.5706 97.4802 74.672 97.4546 74.7715 97.4704C74.871 97.4863 74.9604 97.5423 75.02 97.6262C75.0796 97.7101 75.1045 97.815 75.0892 97.9179C74.98 98.6299 74.8073 99.33 74.5731 100.009C74.5469 100.086 74.4983 100.152 74.434 100.199C74.3698 100.246 74.293 100.271 74.2144 100.271V100.271ZM54.5532 99.3395C54.4859 99.3395 54.4199 99.321 54.3618 99.2859C54.3037 99.2509 54.2556 99.2005 54.2225 99.14C54.1895 99.0795 54.1725 99.011 54.1735 98.9415C54.1744 98.872 54.1932 98.804 54.2279 98.7445C54.5768 98.1744 54.8774 97.5743 55.1262 96.9507C55.1445 96.9028 55.1718 96.859 55.2064 96.8218C55.2411 96.7847 55.2824 96.755 55.3282 96.7344C55.374 96.7138 55.4232 96.7028 55.4731 96.7018C55.5231 96.7009 55.5727 96.7101 55.6191 96.729C55.6656 96.7478 55.708 96.776 55.7439 96.8118C55.7798 96.8476 55.8086 96.8903 55.8285 96.9376C55.8485 96.9849 55.8592 97.0357 55.8601 97.0873C55.861 97.1388 55.8521 97.1901 55.8338 97.238C55.5693 97.9027 55.2496 98.5425 54.8785 99.1503C54.8445 99.2079 54.7967 99.2556 54.7398 99.2886C54.6828 99.3216 54.6185 99.3388 54.5532 99.3387V99.3395ZM46.4828 96.9547C46.3822 96.9488 46.288 96.9019 46.2209 96.8243C46.1538 96.7468 46.1192 96.6448 46.1248 96.541C46.126 96.4889 46.1375 96.4376 46.1586 96.3903C46.1797 96.343 46.2101 96.3007 46.2477 96.2661C46.2853 96.2314 46.3295 96.2051 46.3774 96.1888C46.4252 96.1725 46.4759 96.1665 46.5261 96.1712C47.1231 96.2231 47.7205 96.0762 48.2308 95.752C48.3152 95.6986 48.4165 95.6814 48.513 95.7039C48.6096 95.7265 48.6938 95.787 48.7478 95.8728C48.8018 95.9585 48.8212 96.0626 48.802 96.1629C48.7828 96.2632 48.7265 96.3518 48.645 96.4099L48.5044 96.4994C47.8851 96.8438 47.1846 97.0016 46.4828 96.9547ZM44.6512 96.223C44.5532 96.2231 44.459 96.184 44.3882 96.1139C44.1115 95.821 43.9046 95.4656 43.7839 95.0757C43.6632 94.6859 43.632 94.2725 43.6928 93.868C43.7064 93.766 43.7567 93.6729 43.8338 93.6074C43.9108 93.542 44.0089 93.5089 44.1085 93.5148C44.1582 93.5198 44.2065 93.5349 44.2506 93.5592C44.2947 93.5835 44.3337 93.6165 44.3653 93.6564C44.397 93.6963 44.4208 93.7422 44.4353 93.7916C44.4498 93.841 44.4547 93.8928 44.4498 93.9442C44.402 94.2301 44.4189 94.5235 44.4994 94.8015C44.5798 95.0795 44.7215 95.3345 44.9134 95.5464C44.9684 95.6005 45.0064 95.6704 45.0225 95.747C45.0387 95.8237 45.0323 95.9036 45.004 95.9764C44.9758 96.0492 44.9271 96.1116 44.8642 96.1556C44.8013 96.1996 44.7271 96.2231 44.6512 96.223ZM74.4287 95.8007C74.3863 95.1314 74.2721 94.469 74.0882 93.8257C74.061 93.7254 74.0735 93.6181 74.1229 93.5273C74.1723 93.4366 74.2545 93.3698 74.3516 93.3417C74.4486 93.3136 74.5525 93.3265 74.6404 93.3775C74.7283 93.4285 74.7929 93.5135 74.8201 93.6137C75.0178 94.3102 75.1409 95.027 75.1872 95.7513C75.1936 95.8554 75.1596 95.9578 75.0928 96.036C75.0261 96.1143 74.9319 96.1619 74.8312 96.1685C74.7304 96.175 74.6312 96.14 74.5554 96.071C74.4797 96.002 74.4336 95.9048 74.4272 95.8007H74.4287ZM55.8308 95.4459C55.7344 95.4461 55.6416 95.4086 55.5711 95.3408C55.5005 95.273 55.4575 95.1801 55.4508 95.0809C55.407 94.4442 55.2165 93.8276 54.8952 93.2824C54.8698 93.2381 54.853 93.1889 54.8459 93.1379C54.8389 93.0868 54.8416 93.0348 54.854 92.9848C54.8664 92.9349 54.8882 92.8879 54.9181 92.8466C54.9481 92.8054 54.9856 92.7706 55.0286 92.7443C55.0716 92.718 55.1191 92.7007 55.1685 92.6934C55.218 92.6861 55.2683 92.689 55.3167 92.7018C55.3651 92.7145 55.4105 92.7371 55.4505 92.768C55.4905 92.7989 55.5241 92.8377 55.5496 92.8821C55.9299 93.5333 56.1559 94.2681 56.2093 95.0267C56.2128 95.0803 56.2056 95.1341 56.1882 95.1847C56.1708 95.2354 56.1435 95.2818 56.108 95.3211C56.0726 95.3604 56.0296 95.3917 55.9819 95.4132C55.9343 95.4347 55.8828 95.4458 55.8308 95.4459ZM49.7052 94.8783C49.6405 94.8783 49.5769 94.8613 49.5204 94.8288C49.4639 94.7964 49.4164 94.7495 49.3823 94.6928C49.3482 94.636 49.3287 94.5712 49.3256 94.5045C49.3225 94.4378 49.336 94.3714 49.3647 94.3116C49.6418 93.7143 49.8375 93.0803 49.9461 92.4276C49.9643 92.325 50.0213 92.2342 50.1044 92.175C50.1875 92.1158 50.2899 92.0932 50.3892 92.112C50.4884 92.1308 50.5764 92.1896 50.6337 92.2755C50.691 92.3613 50.7129 92.4671 50.6947 92.5697C50.5721 93.2924 50.3537 93.9942 50.0456 94.6554C50.0148 94.7219 49.9664 94.7781 49.9061 94.8176C49.8457 94.857 49.7758 94.8781 49.7044 94.8783H49.7052ZM70.2084 93.1301C70.1056 93.1179 70.0112 93.0653 69.9449 92.9831C69.8785 92.901 69.8453 92.7957 69.852 92.689C69.8549 92.6388 69.8677 92.5898 69.8895 92.5449C69.9114 92.5 69.9419 92.4602 69.9792 92.428C70.0165 92.3957 70.0598 92.3716 70.1064 92.3573C70.153 92.3429 70.2019 92.3385 70.2502 92.3444C70.8563 92.4267 71.4725 92.3275 72.0256 92.0586C72.1174 92.0218 72.2194 92.0231 72.3102 92.0624C72.401 92.1017 72.4735 92.1759 72.5124 92.2693C72.5513 92.3627 72.5536 92.4681 72.5188 92.5632C72.484 92.6583 72.4148 92.7358 72.3258 92.7792C71.6629 93.0898 70.9314 93.2109 70.2077 93.1301H70.2084ZM44.7629 92.3569C44.6933 92.3568 44.6251 92.337 44.5657 92.2996C44.5063 92.2622 44.458 92.2087 44.426 92.1449C44.394 92.0811 44.3796 92.0094 44.3843 91.9377C44.389 91.866 44.4127 91.7971 44.4528 91.7383C44.8859 91.1219 45.4549 90.6209 46.1127 90.2767C46.2016 90.2311 46.3042 90.2233 46.3986 90.2549C46.493 90.2865 46.5717 90.355 46.6179 90.4458C46.664 90.5365 46.674 90.6423 46.6456 90.7405C46.6172 90.8387 46.5528 90.9216 46.4661 90.9714C45.915 91.2584 45.4376 91.6762 45.073 92.1905C45.0379 92.2419 44.9913 92.2839 44.9372 92.3129C44.8831 92.3419 44.8231 92.357 44.7621 92.3569H44.7629ZM68.3525 92.331C68.2719 92.33 68.1936 92.3025 68.1291 92.2525C67.4945 91.7752 66.8067 90.9769 66.9321 90.1888C66.9384 90.1363 66.9549 90.0857 66.9806 90.04C67.0062 89.9943 67.0406 89.9544 67.0816 89.9228C67.1225 89.8911 67.1693 89.8683 67.219 89.8558C67.2687 89.8432 67.3203 89.8412 67.3708 89.8497C67.4213 89.8583 67.4696 89.8773 67.5128 89.9056C67.556 89.9339 67.5932 89.971 67.6222 90.0145C67.6512 90.058 67.6714 90.1072 67.6816 90.159C67.6918 90.2108 67.6917 90.2641 67.6814 90.3159C67.6796 90.3352 67.6796 90.3547 67.6814 90.374C67.7397 90.6341 67.8496 90.8789 68.0041 91.0929C68.1585 91.3069 68.3543 91.4855 68.579 91.6175C68.6457 91.6659 68.6956 91.7351 68.7212 91.815C68.7469 91.895 68.747 91.9813 68.7215 92.0613C68.6961 92.1412 68.6464 92.2107 68.5798 92.2592C68.5132 92.3078 68.4333 92.333 68.3518 92.331H68.3525ZM73.7333 92.1583C73.6628 92.1583 73.5937 92.138 73.5337 92.0998C73.4737 92.0615 73.4252 92.0068 73.3936 91.9417C73.1189 91.3497 72.7548 90.8065 72.3152 90.3324C72.2751 90.2971 72.2426 90.2536 72.2197 90.2047C72.1967 90.1557 72.1839 90.1024 72.182 90.0481C72.1801 89.9937 72.1891 89.9396 72.2085 89.889C72.2279 89.8385 72.2573 89.7927 72.2948 89.7545C72.3322 89.7163 72.377 89.6865 72.4261 89.6671C72.4753 89.6477 72.5279 89.6391 72.5804 89.6417C72.633 89.6444 72.6845 89.6583 72.7316 89.6826C72.7787 89.7069 72.8204 89.7411 72.854 89.7829C73.1783 90.1251 73.4641 90.504 73.706 90.9125C74.1583 90.4891 74.5731 90.0249 74.9455 89.5254C75.0082 89.4459 75.0986 89.3948 75.1973 89.3832C75.296 89.3717 75.3952 89.4005 75.4736 89.4635C75.552 89.5265 75.6034 89.6187 75.6168 89.7204C75.6301 89.822 75.6044 89.9251 75.5452 90.0074C75.1115 90.5926 74.6213 91.1308 74.0822 91.6135C74.1065 91.6731 74.1161 91.738 74.1103 91.8024C74.1044 91.8668 74.0833 91.9288 74.0487 91.9827C74.0141 92.0366 73.9671 92.0808 73.912 92.1115C73.8568 92.1421 73.7952 92.1582 73.7326 92.1583H73.7333ZM53.8973 91.9118C53.8099 91.9119 53.725 91.8809 53.6572 91.8239C53.1592 91.4089 52.6081 91.0671 52.0194 90.8081C51.9735 90.7879 51.9319 90.7585 51.8969 90.7216C51.862 90.6847 51.8345 90.6411 51.8159 90.5933C51.7973 90.5454 51.788 90.4943 51.7886 90.4427C51.7891 90.3911 51.7995 90.3402 51.8191 90.2928C51.8387 90.2453 51.8672 90.2024 51.9029 90.1663C51.9386 90.1303 51.9808 90.1018 52.0271 90.0826C52.0734 90.0634 52.123 90.0538 52.1729 90.0544C52.2228 90.0549 52.2721 90.0657 52.318 90.0859C52.9724 90.3727 53.5846 90.753 54.1367 91.2155C54.1975 91.2669 54.2413 91.3364 54.2623 91.4145C54.2833 91.4926 54.2803 91.5755 54.2538 91.6518C54.2273 91.7281 54.1786 91.7941 54.1144 91.8406C54.0501 91.8872 53.9735 91.9121 53.8951 91.9118H53.8973ZM50.0928 90.4329C50.0928 90.3868 50.0912 90.3413 50.0882 90.2963C49.4799 90.2378 48.8669 90.2603 48.2642 90.363C48.215 90.3715 48.1646 90.3699 48.1159 90.3583C48.0673 90.3467 48.0213 90.3253 47.9806 90.2953C47.94 90.2654 47.9055 90.2275 47.879 90.1837C47.8525 90.14 47.8347 90.0913 47.8265 90.0404C47.8182 89.9895 47.8198 89.9375 47.831 89.8872C47.8422 89.8369 47.863 89.7895 47.892 89.7475C47.921 89.7055 47.9577 89.6698 48.0001 89.6425C48.0424 89.6152 48.0896 89.5967 48.1388 89.5882C48.7613 89.4827 49.3938 89.4539 50.0229 89.5027C49.9809 89.1467 49.9198 88.7934 49.8397 88.4445C49.826 88.3936 49.8223 88.3405 49.829 88.2881C49.8356 88.2358 49.8524 88.1854 49.8784 88.1399C49.9043 88.0945 49.9388 88.0549 49.9799 88.0235C50.021 87.9921 50.0678 87.9697 50.1175 87.9574C50.1672 87.9452 50.2188 87.9434 50.2692 87.9522C50.3196 87.961 50.3677 87.9802 50.4107 88.0087C50.4538 88.0372 50.4908 88.0743 50.5196 88.1179C50.5484 88.1615 50.5684 88.2106 50.5784 88.2624C50.74 88.967 50.8309 89.687 50.8497 90.4109C50.8511 90.4624 50.8427 90.5138 50.8249 90.5619C50.8071 90.6101 50.7803 90.6542 50.746 90.6917C50.7117 90.7291 50.6705 90.7593 50.625 90.7803C50.5794 90.8014 50.5303 90.813 50.4804 90.8144C50.4305 90.8158 50.3808 90.8071 50.3341 90.7887C50.2875 90.7703 50.2448 90.7426 50.2086 90.7072C50.1353 90.6357 50.0926 90.537 50.0897 90.4329H50.0928ZM68.4909 89.1683C68.4656 89.0677 68.48 88.9609 68.5309 88.8713C68.5817 88.7817 68.6649 88.7166 68.7622 88.6902C69.4769 88.4972 70.2256 88.48 70.9479 88.6399C71.0429 88.6667 71.1241 88.7304 71.1745 88.8178C71.2248 88.9051 71.2405 89.0092 71.218 89.1082C71.1955 89.2072 71.1368 89.2933 71.0541 89.3484C70.9714 89.4035 70.8712 89.4234 70.7746 89.4038C70.1714 89.2732 69.5471 89.2888 68.9506 89.4493C68.8533 89.4751 68.75 89.46 68.6634 89.4073C68.5768 89.3546 68.514 89.2687 68.4886 89.1683H68.4909ZM76.3538 88.4084C76.2878 88.4086 76.2228 88.391 76.1653 88.3573C76.1079 88.3237 76.0599 88.2751 76.0261 88.2165C75.9924 88.1578 75.974 88.0911 75.9728 88.0229C75.9717 87.9547 75.9877 87.8873 76.0194 87.8275C76.3344 87.2386 76.5945 86.6201 76.7961 85.9804C76.8097 85.9292 76.8331 85.8815 76.865 85.8399C76.8969 85.7984 76.9366 85.764 76.9817 85.7388C77.0269 85.7135 77.0765 85.698 77.1276 85.6931C77.1787 85.6882 77.2302 85.694 77.2791 85.7103C77.3279 85.7265 77.3731 85.7528 77.4118 85.7876C77.4506 85.8223 77.4821 85.8648 77.5045 85.9125C77.5269 85.9602 77.5398 86.0121 77.5422 86.065C77.5447 86.118 77.5368 86.1709 77.5189 86.2206C77.303 86.9072 77.0246 87.5711 76.6874 88.2035C76.6546 88.2659 76.6059 88.318 76.5466 88.3541C76.4873 88.3901 76.4196 88.4089 76.3508 88.4084H76.3538ZM49.5205 86.7889C49.4506 86.7889 49.382 86.769 49.3223 86.7313C49.2626 86.6936 49.2142 86.6397 49.1823 86.5754C48.8938 85.987 48.5236 85.4454 48.0833 84.9677C48.0136 84.8925 47.9757 84.7917 47.9779 84.6875C47.9801 84.5833 48.0222 84.4844 48.0951 84.4123C48.168 84.3403 48.2656 84.3011 48.3664 84.3034C48.4672 84.3057 48.5631 84.3492 48.6328 84.4245C49.1238 84.9573 49.5368 85.5613 49.8587 86.2174C49.8885 86.2774 49.9028 86.3444 49.9002 86.4118C49.8977 86.4791 49.8783 86.5447 49.8441 86.6021C49.8099 86.6596 49.762 86.7069 49.7049 86.7396C49.6478 86.7723 49.5835 86.7893 49.5182 86.7889H49.5205ZM77.6124 84.4606C77.5577 84.4612 77.5035 84.4495 77.4535 84.4264C77.4036 84.4034 77.359 84.3694 77.323 84.327C77.2869 84.2845 77.2601 84.2344 77.2445 84.1803C77.2288 84.1261 77.2247 84.0691 77.2324 84.0132C77.3253 83.3444 77.3634 82.6687 77.3464 81.9934C77.3442 81.8893 77.3821 81.7885 77.4518 81.7133C77.5215 81.6381 77.6172 81.5945 77.718 81.5922C77.8188 81.5899 77.9163 81.6291 77.9892 81.7011C78.062 81.7731 78.1042 81.872 78.1064 81.9761C78.1241 82.6943 78.0835 83.4127 77.9848 84.1238C77.9718 84.2171 77.9269 84.3024 77.8581 84.3642C77.7893 84.426 77.7013 84.4602 77.6101 84.4606H77.6124ZM46.7511 83.8326C46.6871 83.8328 46.6241 83.8164 46.5679 83.7847C46.0082 83.4668 45.4072 83.2334 44.7834 83.0916C44.733 83.0823 44.6849 83.0627 44.6421 83.0338C44.5992 83.0049 44.5624 82.9673 44.5339 82.9234C44.5055 82.8794 44.4859 82.83 44.4764 82.778C44.4669 82.7261 44.4676 82.6727 44.4786 82.621C44.4895 82.5694 44.5105 82.5205 44.5402 82.4775C44.5699 82.4344 44.6077 82.398 44.6513 82.3704C44.695 82.3427 44.7436 82.3245 44.7943 82.3168C44.8449 82.3091 44.8965 82.312 44.9461 82.3254C45.6412 82.483 46.311 82.7426 46.935 83.0963C47.0087 83.1386 47.0666 83.205 47.0998 83.2851C47.1329 83.3652 47.1393 83.4544 47.118 83.5386C47.0966 83.6229 47.0488 83.6974 46.9819 83.7505C46.9151 83.8036 46.8331 83.8322 46.7488 83.8318L46.7511 83.8326ZM77.506 80.3001C77.4185 80.2999 77.3338 80.2686 77.2661 80.2114C77.1983 80.1542 77.1518 80.0746 77.1343 79.9861C77.0066 79.3274 76.8181 78.6828 76.5712 78.0613C76.5502 78.0133 76.5388 77.9615 76.5377 77.9089C76.5365 77.8563 76.5456 77.804 76.5644 77.7551C76.5832 77.7062 76.6113 77.6616 76.6471 77.6242C76.6829 77.5867 76.7256 77.5571 76.7727 77.537C76.8198 77.517 76.8703 77.5069 76.9213 77.5074C76.9722 77.5079 77.0225 77.519 77.0693 77.54C77.116 77.561 77.1581 77.5915 77.1932 77.6297C77.2283 77.6679 77.2555 77.7129 77.2734 77.7622C77.5396 78.4298 77.7432 79.1222 77.8814 79.8299C77.8932 79.8876 77.8922 79.9472 77.8786 80.0044C77.865 80.0616 77.8391 80.115 77.8028 80.1604C77.7665 80.2059 77.7208 80.2423 77.669 80.2671C77.6172 80.2918 77.5607 80.3042 77.5037 80.3032L77.506 80.3001ZM75.9586 76.4724C75.5786 76.4724 75.7306 76.1694 74.3839 74.7666C74.3438 74.7314 74.3113 74.6879 74.2884 74.6389C74.2655 74.59 74.2526 74.5366 74.2507 74.4823C74.2488 74.428 74.2578 74.3738 74.2772 74.3233C74.2967 74.2727 74.326 74.2269 74.3635 74.1887C74.401 74.1505 74.4457 74.1207 74.4949 74.1013C74.544 74.0819 74.5966 74.0733 74.6492 74.076C74.7017 74.0787 74.7532 74.0926 74.8003 74.1169C74.8474 74.1412 74.8891 74.1753 74.9227 74.2171C75.4186 74.7223 75.8698 75.2721 76.271 75.8602C76.3104 75.9192 76.3335 75.9883 76.3376 76.0599C76.3417 76.1315 76.3267 76.2029 76.2942 76.2664C76.2618 76.3298 76.2132 76.3829 76.1536 76.4197C76.094 76.4566 76.0258 76.4759 75.9563 76.4756L75.9586 76.4724ZM73.2165 73.4149C73.1645 73.4149 73.1131 73.4039 73.0654 73.3826C73.0177 73.3612 72.9747 73.33 72.9391 73.2908C72.4416 72.7645 72.025 72.1625 71.7041 71.5058C71.6821 71.4594 71.6692 71.409 71.666 71.3574C71.6629 71.3058 71.6696 71.2541 71.6858 71.2053C71.702 71.1564 71.7274 71.1113 71.7604 71.0725C71.7935 71.0338 71.8336 71.0021 71.8785 70.9794C71.9235 70.9567 71.9723 70.9433 72.0222 70.9401C72.0721 70.9368 72.1221 70.9438 72.1695 70.9605C72.2168 70.9772 72.2604 71.0034 72.298 71.0376C72.3355 71.0717 72.3661 71.1132 72.3881 71.1596C72.6765 71.7461 73.05 72.2838 73.4955 72.7539C73.5474 72.8099 73.5822 72.8805 73.5953 72.9568C73.6085 73.0332 73.5994 73.1118 73.5693 73.1829C73.5393 73.2539 73.4895 73.3141 73.4263 73.356C73.3631 73.3979 73.2893 73.4194 73.2142 73.418L73.2165 73.4149ZM71.4579 69.7356C71.3681 69.7354 71.2812 69.7023 71.2128 69.6422C71.1443 69.5821 71.0987 69.499 71.084 69.4075C70.9583 68.6757 70.9565 67.9269 71.0787 67.1945C71.0987 67.0933 71.156 67.004 71.2385 66.9454C71.321 66.8869 71.4222 66.8636 71.521 66.8805C71.6199 66.8996 71.7074 66.9584 71.7644 67.0441C71.8214 67.1297 71.8432 67.2352 71.825 67.3374C71.7179 67.9805 71.72 68.6379 71.831 69.2803C71.8404 69.3367 71.8376 69.3945 71.823 69.4496C71.8084 69.5048 71.7823 69.556 71.7466 69.5997C71.7108 69.6434 71.6662 69.6784 71.616 69.7025C71.5657 69.7265 71.511 69.7388 71.4556 69.7387L71.4579 69.7356ZM72.208 65.7321C72.139 65.7322 72.0713 65.713 72.0121 65.6764C71.9529 65.6398 71.9045 65.5873 71.872 65.5245C71.8395 65.4616 71.8242 65.3908 71.8277 65.3197C71.8312 65.2485 71.8534 65.1797 71.8919 65.1206C72.3003 64.5034 72.8156 63.9696 73.4119 63.5459C73.4944 63.4861 73.5965 63.4627 73.6958 63.4807C73.7951 63.4987 73.8833 63.5568 73.9412 63.642C73.999 63.7273 74.0217 63.8328 74.0043 63.9353C73.9868 64.0378 73.9306 64.129 73.8481 64.1888C73.3299 64.5575 72.8819 65.0216 72.5264 65.5578C72.492 65.6133 72.4445 65.6589 72.3885 65.6905C72.3324 65.7221 72.2696 65.7385 72.2057 65.7384L72.208 65.7321Z" fill="black"/>
<path d="M108.579 38.0373C107.776 37.9085 106.679 37.735 106.319 36.888C106.232 36.6012 106.208 36.2979 106.249 36.0003C106.291 35.7028 106.396 35.4186 106.558 35.1689C107.22 33.8878 107.238 31.6128 106.627 28.381C106.614 28.3293 106.612 28.2755 106.62 28.2229C106.628 28.1704 106.647 28.12 106.675 28.0751C106.702 28.0301 106.738 27.9914 106.781 27.9614C106.824 27.9313 106.872 27.9105 106.922 27.9003C106.973 27.8901 107.025 27.8906 107.075 27.9018C107.126 27.913 107.173 27.9347 107.216 27.9656C107.258 27.9965 107.293 28.0359 107.32 28.0814C107.347 28.1269 107.364 28.1775 107.372 28.2303C108.027 31.6921 107.985 34.0738 107.242 35.5135C107.128 35.7309 106.867 36.2247 107.014 36.5709C107.207 37.0246 108.101 37.1659 108.692 37.2601C109.293 37.458 109.944 37.4139 110.516 37.1369C110.902 36.8645 111.181 36.4569 111.299 35.9892C111.325 35.8885 111.388 35.8026 111.476 35.7503C111.563 35.6979 111.666 35.6835 111.764 35.7101C111.861 35.7368 111.945 35.8023 111.995 35.8924C112.046 35.9824 112.06 36.0895 112.034 36.1902C111.867 36.846 111.474 37.4167 110.93 37.7955C110.206 38.1861 109.364 38.2728 108.579 38.0373Z" fill="black"/>
<path d="M105.735 29.4046C105.821 29.3704 105.908 29.3416 105.997 29.3183C106.048 29.311 106.097 29.2931 106.141 29.2658C106.185 29.2384 106.223 29.2021 106.253 29.159C106.283 29.1159 106.304 29.067 106.315 29.0152C106.327 28.9634 106.328 28.9098 106.318 28.8576C106.309 28.8054 106.289 28.7557 106.261 28.7116C106.232 28.6674 106.195 28.6297 106.152 28.6007C106.109 28.5717 106.061 28.552 106.01 28.5429C105.96 28.5337 105.908 28.5353 105.858 28.5474C105.399 28.6351 104.966 28.8317 104.594 29.1216C104.222 29.4114 103.919 29.7868 103.711 30.2179C103.667 30.3116 103.66 30.4198 103.692 30.5188C103.724 30.6178 103.794 30.6995 103.884 30.7458C103.975 30.7921 104.08 30.7993 104.176 30.7658C104.272 30.7324 104.351 30.6609 104.395 30.5672C104.49 30.3773 104.61 30.2021 104.753 30.0468C104.817 30.2167 104.901 30.3781 105.003 30.5272C105.106 30.7079 105.246 30.8638 105.413 30.9846C105.579 31.1053 105.769 31.1881 105.969 31.2274C106.074 31.2289 106.176 31.1894 106.255 31.1166C106.333 31.0439 106.383 30.9434 106.393 30.8349C106.387 30.562 106.326 30.2934 106.213 30.0469C106.099 29.8003 105.937 29.5814 105.735 29.4046Z" fill="black"/>
<path d="M115.74 27.6658C115.119 27.4618 114.457 27.4247 113.818 27.558C113.179 27.6914 112.584 27.9909 112.088 28.4281C112.029 28.4802 111.987 28.5498 111.967 28.6275C111.948 28.7051 111.952 28.7871 111.979 28.8624C112.006 28.9376 112.054 29.0026 112.118 29.0484C112.182 29.0943 112.257 29.1189 112.335 29.1189C112.573 29.1189 112.563 28.9744 113.061 28.6793C113.037 28.8087 113.025 28.9401 113.024 29.0718C113.024 29.8167 113.354 30.3788 113.791 30.3788C114.228 30.3788 114.557 29.8167 114.557 29.0718C114.562 28.7991 114.51 28.5286 114.405 28.2781C114.78 28.2541 115.156 28.2998 115.515 28.4132C115.563 28.4286 115.613 28.4342 115.663 28.4297C115.712 28.4251 115.761 28.4105 115.805 28.3866C115.849 28.3628 115.889 28.3301 115.921 28.2906C115.953 28.251 115.977 28.2053 115.992 28.1561C116.007 28.1069 116.012 28.0551 116.008 28.0037C116.003 27.9523 115.989 27.9023 115.966 27.8565C115.943 27.8108 115.911 27.7702 115.873 27.7371C115.835 27.704 115.791 27.679 115.743 27.6635L115.74 27.6658Z" fill="black"/>
<path d="M110.402 25.2802C110.306 25.2485 110.226 25.1786 110.18 25.0859C110.134 24.9932 110.125 24.8854 110.156 24.7861C110.187 24.6868 110.254 24.6041 110.344 24.5564C110.434 24.5086 110.538 24.4996 110.634 24.5313C112.699 25.2109 114.9 25.321 117.018 24.8508C117.117 24.8289 117.219 24.8481 117.304 24.9044C117.389 24.9606 117.448 25.0492 117.47 25.1507C117.491 25.2524 117.472 25.3586 117.418 25.4461C117.363 25.5335 117.277 25.595 117.179 25.617C114.93 26.1181 112.594 26.002 110.402 25.2802Z" fill="black"/>
<path d="M103.128 27.804C103.062 27.8041 102.997 27.7863 102.939 27.7523C102.882 27.7183 102.834 27.6693 102.8 27.6103C102.767 27.5513 102.749 27.4842 102.748 27.4157C102.747 27.3472 102.764 27.2797 102.796 27.22C103.479 25.961 104.473 24.912 105.678 24.1805C105.764 24.1277 105.868 24.1127 105.966 24.1388C106.063 24.165 106.147 24.2301 106.198 24.3198C106.249 24.4095 106.263 24.5165 106.238 24.6173C106.213 24.7181 106.15 24.8043 106.063 24.8571C104.975 25.5183 104.077 26.4666 103.461 27.6046C103.427 27.6653 103.379 27.7158 103.321 27.7509C103.262 27.7859 103.196 27.8042 103.128 27.804Z" fill="black"/>
<path d="M112.765 40.3546C112.757 40.2509 112.789 40.1481 112.854 40.0688C112.919 39.9895 113.012 39.9401 113.113 39.9315C113.78 39.872 114.411 39.5927 114.912 39.1347C114.988 39.0656 115.087 39.0302 115.187 39.0364C115.288 39.0426 115.382 39.0898 115.449 39.1677C115.516 39.2455 115.55 39.3477 115.544 39.4516C115.538 39.5555 115.492 39.6528 115.417 39.7219C114.792 40.2929 114.006 40.6406 113.175 40.7133C113.075 40.7218 112.975 40.6888 112.898 40.6215C112.822 40.5542 112.774 40.4582 112.765 40.3546Z" fill="black"/>
<path d="M143.839 56.6324C142.419 54.5208 140.624 52.7063 138.55 51.2849C136.618 49.7919 134.525 48.5341 132.313 47.5366C132.306 47.2673 131.967 38.5876 131.731 34.6516C131.726 34.5613 131.69 34.4757 131.63 34.4093C131.571 34.3429 131.491 34.2998 131.404 34.2873L131.271 34.2685L131.66 33.0023C131.689 32.9103 131.683 32.8108 131.645 32.7227C131.607 32.6347 131.538 32.5643 131.453 32.525C131.118 32.368 130.777 32.2299 130.434 32.0995C130.648 30.0585 130.789 28.0128 130.827 25.7881C131.439 24.2726 131.956 22.7186 132.377 21.1354C132.567 20.2656 132.843 19.4181 133.2 18.6062C133.395 18.2232 133.473 17.7876 133.421 17.358C133.33 16.912 133.105 16.5068 132.779 16.1994C132.8 16.0588 132.828 15.9191 132.845 15.7786C132.981 14.5571 132.841 14.1254 132.562 13.8271C132.347 13.6344 132.084 13.5065 131.802 13.4574C131.809 13.0522 131.717 12.6519 131.534 12.2932C131.354 11.9957 131.124 11.7342 130.854 11.5215C130.531 11.2309 130.184 10.9711 129.816 10.7452C129.539 9.91858 129.139 9.93506 128.195 9.05743C127.251 8.1798 127.359 7.93488 126.86 7.72293C126.669 7.6469 126.466 7.61219 126.261 7.62097C126.057 7.62975 125.857 7.68182 125.673 7.77396C124.343 6.4815 122.782 5.4705 121.076 4.79802C113.819 1.96574 107.178 6.77858 106.903 6.98503C102.923 9.93271 100.395 14.828 100.037 17.9374C99.9315 18.4718 99.9336 19.0231 100.044 19.5567C100.154 20.0902 100.369 20.5946 100.677 21.0381C100.865 21.2541 101.087 21.4354 101.334 21.5743C101.536 23.477 101.62 25.391 101.586 27.3048C101.515 28.1279 101.632 28.9569 101.93 29.7241C102.504 31.0979 103.236 31.0665 103.787 32.1035C104.388 33.2401 103.838 33.898 104.211 35.7702C104.495 37.0134 105.025 38.1828 105.766 39.2054C107.666 42.2567 110.36 45.859 113.872 45.6643L113.796 46.5702L111.928 47.5295C111.906 47.4796 111.875 47.4351 111.835 47.3989C111.796 47.3628 111.749 47.3359 111.699 47.3201C111.648 47.3043 111.595 47.2999 111.543 47.3073C111.49 47.3148 111.44 47.3338 111.396 47.3631C101.201 53.9704 98.0295 54.2656 95.7944 58.1333C95.1382 59.2944 94.6818 60.5642 94.4454 61.8864C92.9915 68.8061 91.6934 78.6995 91.0353 84.1019C87.9953 86.1593 74.6823 95.2724 71.1233 97.7428C71.0817 97.7717 71.0461 97.8087 71.0184 97.8518C70.9908 97.8949 70.9717 97.9432 70.9621 97.994C70.9606 98.0147 70.9606 98.0354 70.9621 98.056L69.9331 98.8238C69.8608 98.8787 69.81 98.9585 69.7898 99.0488C69.7695 99.1391 69.7813 99.2338 69.8229 99.316L69.8039 99.3269C69.1798 98.5227 68.4544 97.8083 67.647 97.2027C67.3357 96.9081 66.9579 96.6987 66.5481 96.5936C65.4757 96.4421 64.9665 97.4414 63.7923 98.6299L60.994 96.5724C61.4021 86.4121 61.7335 85.0549 61.4956 81.9714C61.4626 79.9835 61.125 78.0137 60.4954 76.1349C58.8781 71.8174 56.5434 69.2716 53.5597 68.5738L23.7281 60.9679C23.6303 60.9429 23.5268 60.9591 23.4405 61.0129C23.3542 61.0667 23.2922 61.1538 23.268 61.2548C23.2438 61.3559 23.2595 61.4628 23.3115 61.5519C23.3636 61.6411 23.4479 61.7052 23.5457 61.7302L50.3585 68.5683C48.0071 69.2051 45.8759 70.5105 44.2071 72.3363C42.443 74.2676 41.1277 76.5883 40.3607 79.1226C39.3918 81.9909 38.8665 84.999 38.8043 88.0363C38.6279 92.3028 38.8803 104.702 38.9882 108.982L7.05374 89.9478C6.12654 79.0512 8.77134 67.4261 18.1665 62.3793C18.2133 62.3572 18.2552 62.3254 18.2898 62.286C18.3244 62.2465 18.3508 62.2003 18.3675 62.15C18.3842 62.0996 18.3909 62.0463 18.387 61.9933C18.3832 61.9403 18.3689 61.8886 18.3452 61.8414C18.3214 61.7942 18.2886 61.7525 18.2488 61.7188C18.2089 61.6851 18.1628 61.6602 18.1134 61.6454C18.0639 61.6307 18.012 61.6265 17.9609 61.6331C17.9098 61.6397 17.8605 61.657 17.8161 61.6838C8.05314 66.919 5.3065 78.9978 6.31426 90.2225C6.31987 90.285 6.33991 90.3452 6.3727 90.3981C6.4055 90.451 6.45009 90.4949 6.50274 90.5263L25.3644 101.83V151.795C25.3644 152.002 25.4488 152.175 25.6494 152.187C31.6238 152.58 33.0214 152.803 35.876 152.187C36.0523 152.15 36.1146 151.989 36.1139 151.801V108.17C38.1286 109.374 39.3233 110.132 39.3363 110.138V111.44C39.3363 111.536 39.3591 111.63 39.4025 111.714C39.446 111.798 39.5088 111.87 39.5855 111.924C55.2415 122.842 55.2271 123.098 57.5633 124.06C59.7552 124.962 66.4113 127.703 72.1713 124.396C73.4762 123.631 74.6401 122.634 75.6095 121.451C76.2378 120.827 76.7477 120.087 77.1128 119.27C78.6123 115.858 77.394 111.549 73.4838 106.449C73.3926 106.332 73.2946 106.221 73.2011 106.106C73.3189 106.09 71.8209 106.713 93.7971 97.41C93.0318 101.218 92.0824 104.984 90.9524 108.694C90.6612 109.365 90.5577 110.107 90.6538 110.836C90.7498 111.565 91.0415 112.251 91.4958 112.818C92.8144 114.592 93.8214 116.769 94.7851 118.056C94.3286 118.835 94.05 119.71 93.9704 120.617C93.0417 121.154 92.2391 123.129 92.0939 124.43C90.8073 139.323 90.8392 142.358 90.8392 142.358C90.862 144.351 90.8886 147.652 90.8886 151.84C100.341 152.598 104.93 152.672 114.243 152.829C120.703 152.939 123.99 152.993 126.591 152.881C131.314 152.682 135.172 152.221 137.74 151.855C138.582 141.138 139.226 133.306 139.492 130.564C139.603 129.291 139.486 128.007 139.146 126.778C138.977 126.127 138.629 124.861 137.972 124.369V121.728C139.252 120.765 140.398 119.625 141.379 118.34C142.88 116.509 143.203 115.559 143.221 114.696C143.2 113.768 142.915 112.867 142.4 112.106C141.723 110.9 139.664 107.23 139.208 104.37C138.953 102.812 139.393 102.683 139.756 99.3073C139.908 97.8943 140.015 96.256 139.772 90.5695C139.594 86.4349 139.316 82.17 138.946 77.8854C143.743 73.2689 144.709 71.4799 145.283 70.0417C145.896 68.3805 146.266 66.6345 146.383 64.8607C146.561 61.2042 144.295 57.3656 143.839 56.6324ZM26.1244 151.428V102.283L32.6992 106.109V151.781C31.5941 151.81 30.594 151.723 26.1244 151.428ZM130.831 33.1028L130.507 34.157L129.905 34.0691L130.176 32.8421C130.396 32.9254 130.615 33.0094 130.831 33.1028ZM126.575 8.45377C126.807 8.55268 126.733 8.75364 127.686 9.64383C129.107 10.9666 129.151 10.2192 129.282 12.6841C129.314 13.2745 129.316 13.7604 129.312 14.0869C129.311 14.1385 129.32 14.1897 129.339 14.2376C129.357 14.2855 129.385 14.3291 129.419 14.3661C129.454 14.403 129.496 14.4326 129.542 14.453C129.587 14.4733 129.637 14.4842 129.687 14.4849C129.737 14.4882 129.788 14.4806 129.835 14.4625C129.883 14.4443 129.926 14.4161 129.962 14.3797C129.999 14.3432 130.027 14.2993 130.046 14.2508C130.065 14.2023 130.074 14.1502 130.072 14.0979C130.082 13.3373 130.041 12.4902 129.991 11.8214C130.844 12.4895 131.037 12.7375 131.044 13.5068C131.026 14.3675 130.936 15.225 130.776 16.0698C130.766 16.1204 130.766 16.1725 130.776 16.2232C130.785 16.2738 130.805 16.3219 130.832 16.3648C130.86 16.4077 130.896 16.4445 130.937 16.4731C130.979 16.5018 131.026 16.5217 131.075 16.5317C131.124 16.5417 131.174 16.5416 131.223 16.5315C131.272 16.5213 131.319 16.5013 131.36 16.4726C131.402 16.4438 131.437 16.4069 131.465 16.3639C131.492 16.321 131.512 16.2728 131.521 16.2221C131.642 15.5716 131.723 14.9142 131.765 14.2533C131.866 14.281 131.96 14.3305 132.04 14.3986C132.094 14.4567 132.204 14.6969 132.093 15.6938C132.024 16.2971 131.906 16.8932 131.739 17.4758C131.711 17.5756 131.722 17.6831 131.77 17.7746C131.818 17.8661 131.899 17.9341 131.996 17.9637C132.092 17.9932 132.197 17.9819 132.285 17.9322C132.374 17.8825 132.44 17.7985 132.468 17.6987C132.513 17.5417 132.544 17.3792 132.584 17.2199C132.624 17.3061 132.655 17.3966 132.676 17.4899C132.7 17.7547 132.647 18.0212 132.524 18.2545C132.141 19.1146 131.846 20.0136 131.644 20.9368C131.224 22.518 130.705 24.0697 130.092 25.5825C130.016 25.7976 130.138 27.5277 129.695 31.8515C128.009 31.3128 126.252 31.048 124.487 31.0665C124.487 29.8581 124.483 28.6508 124.475 27.4445C124.474 27.3444 124.436 27.2483 124.369 27.176C123.93 26.7032 123.573 26.1553 123.315 25.5566C122.947 24.7127 122.831 23.8492 123.345 19.5906C123.443 18.1425 123.689 16.7092 124.079 15.3147C124.439 14.2217 124.929 13.1792 125.538 12.2116C125.584 12.139 125.605 12.0529 125.599 11.9666C125.592 11.8804 125.558 11.7988 125.502 11.7346C125.446 11.6704 125.37 11.6272 125.288 11.6116C125.206 11.5961 125.121 11.6091 125.046 11.6487C124.275 12.0624 123.402 12.2325 122.538 12.1378C121.715 12.073 120.929 11.7559 120.282 11.2272C120.44 11.0545 121.498 10.8778 123.001 10.1729C125.126 9.17597 125.916 8.18294 126.571 8.44984L126.575 8.45377ZM129.453 32.6043L129.149 33.9631L127.645 33.7441L127.842 32.1788C128.385 32.2899 128.921 32.4306 129.449 32.6004L129.453 32.6043ZM127.097 32.0391L126.897 33.635L125.647 33.4529L125.596 31.8829C126.095 31.9056 126.595 31.9567 127.093 32.0352L127.097 32.0391ZM124.883 33.3414L123.535 33.1452V31.8892C123.968 31.853 124.401 31.8499 124.834 31.8523L124.883 33.3414ZM101.254 20.5302C101.018 20.1679 100.856 19.7598 100.776 19.3308C100.697 18.9017 100.703 18.4606 100.794 18.0339C101.132 15.0909 103.544 10.4437 107.346 7.62638C107.612 7.43091 113.926 2.85436 120.808 5.53435C122.336 6.13948 123.741 7.03223 124.953 8.16724C124.228 8.65057 123.473 9.08303 122.692 9.46171C120.681 10.4076 119.607 10.282 119.55 11.1228C119.481 12.148 121.411 12.8003 122.462 12.922C123.09 12.9906 123.726 12.9398 124.336 12.7721C123.949 13.5063 123.624 14.2734 123.364 15.065C122.961 16.5111 122.703 17.9959 122.594 19.4964C122.087 23.6898 122.162 24.8147 122.625 25.8776C122.835 26.3468 123.099 26.7882 123.41 27.1925C122.823 27.2905 122.225 27.3032 121.634 27.2302C120.523 22.4566 122.726 19.9697 121.291 17.7725C120.881 17.1905 120.316 16.744 119.664 16.4875C116.709 15.2943 114.182 18.446 109.654 20.0985C106.557 21.2289 102.499 22.0233 101.25 20.5263L101.254 20.5302ZM113.806 44.884C110.31 45.0615 107.568 40.6545 106.402 38.7807C105.716 37.8376 105.223 36.7605 104.952 35.6148C104.61 33.8878 105.174 33.0965 104.452 31.7274C104.207 31.2806 103.882 30.8865 103.494 30.5664C103.115 30.2669 102.818 29.872 102.629 29.4195C102.376 28.7607 102.278 28.0496 102.342 27.344C102.374 25.5331 102.302 23.7218 102.127 21.9197C104.591 22.6301 108.541 21.3301 109.903 20.8301C114.418 19.1816 116.861 16.1931 119.383 17.2112C119.894 17.4104 120.339 17.7586 120.662 18.2137C121.835 20.0113 119.69 22.6952 120.956 27.6737C120.974 27.7467 121.013 27.8127 121.067 27.8636C121.121 27.9146 121.188 27.9484 121.26 27.961C122.073 28.0992 122.905 28.0856 123.714 27.921C123.721 28.9765 123.725 30.0334 123.725 31.0916C123.52 31.1042 123.315 31.1128 123.111 31.134C123.017 31.1438 122.93 31.1894 122.867 31.262C122.803 31.3345 122.769 31.4288 122.769 31.5265V33.0305L122.529 32.996C122.477 32.9886 122.425 32.9921 122.375 33.0065C122.324 33.0209 122.278 33.0458 122.237 33.0797C122.197 33.1136 122.163 33.1557 122.139 33.2034C122.115 33.2511 122.101 33.3034 122.097 33.3571C121.985 34.9891 121.852 36.6478 121.717 38.3112C120.705 40.1428 119.327 41.7305 117.675 42.9686C116.233 44.0441 115.193 44.8205 113.806 44.884ZM114.322 47.1755C114.38 47.1459 114.43 47.1015 114.467 47.0466C114.503 46.9916 114.526 46.9279 114.532 46.8615L114.64 45.5568C115.918 45.1622 117.102 44.4989 118.119 43.6084C119.452 42.6108 120.617 41.3951 121.57 40.0092C121.425 41.6483 120.478 51.1562 120.184 53.6329C116.503 54.1533 113.534 51.9216 112.181 48.2784L114.322 47.1755ZM120.088 54.4289C120.005 55.104 119.919 55.7712 119.828 56.4432C119.409 56.4669 118.989 56.4595 118.572 56.4212L118.735 54.472C119.186 54.4944 119.639 54.4795 120.088 54.4273V54.4289ZM117.98 54.3833L117.818 56.3097C117.229 56.2133 116.654 56.0353 116.111 55.7806L116.586 54.0434C117.04 54.1993 117.507 54.3128 117.98 54.3826V54.3833ZM114.84 53.1336C115.17 53.3655 115.517 53.5697 115.878 53.7443L115.415 55.4329C114.944 55.1667 114.499 54.8544 114.085 54.5003L114.84 53.1336ZM113.508 53.9618C113.158 53.605 112.833 53.2228 112.536 52.818L113.403 51.8321C113.66 52.1251 113.936 52.3995 114.23 52.6532L113.508 53.9618ZM112.23 50.1757C112.435 50.54 112.662 50.8908 112.909 51.2261L112.087 52.1618C111.831 51.759 111.597 51.3417 111.385 50.9121L112.23 50.1757ZM111.379 48.2972C111.518 48.6975 111.68 49.0893 111.862 49.4708L111.052 50.1773C110.863 49.732 110.698 49.2766 110.557 48.813C110.83 48.6364 111.107 48.4707 111.379 48.2957V48.2972ZM71.3125 98.7602C71.505 99.0611 71.6935 99.3646 71.8779 99.6708L71.1575 100.051C70.9971 99.7791 70.8436 99.5012 70.6726 99.2375L71.3125 98.7602ZM72.2101 102.036C72.0074 101.592 71.7878 101.154 71.5511 100.724L72.2724 100.344C72.5034 100.748 72.7274 101.155 72.9442 101.566L72.2101 102.036ZM73.2999 102.261C73.7757 103.21 73.6541 102.977 73.8144 103.321L72.945 103.833C72.8135 103.471 72.6668 103.116 72.5179 102.762L73.2999 102.261ZM66.4439 97.3731C66.7216 97.475 66.9769 97.6329 67.1948 97.8378C68.0311 98.4652 68.7725 99.2173 69.395 100.07C69.4504 100.145 69.5305 100.198 69.6205 100.217C69.7105 100.237 69.8043 100.222 69.8845 100.176L70.2173 99.9832C71.2821 101.687 72.1099 103.537 72.6767 105.478C70.9284 103.501 68.8244 101.894 66.4819 100.747C66.4145 100.715 66.3397 100.703 66.2661 100.713C64.0758 101.033 63.4427 101.705 62.5786 101.694C62.199 101.698 61.825 101.598 61.4956 101.403C61.6772 101.211 62.343 100.838 63.0034 100.343C65.1329 98.7484 65.6292 97.253 66.4439 97.3731ZM41.0759 79.384C41.8041 76.9633 43.0551 74.7451 44.7345 72.8968C47.2213 70.4209 49.6396 69.1751 51.9439 69.1751C55.9187 69.1751 58.353 72.611 59.7803 76.4214C60.38 78.2329 60.7011 80.1302 60.7318 82.0444C60.8507 84.0487 60.82 86.0596 60.6398 88.059C60.6398 88.059 60.3465 93.6388 60.2423 96.1901L39.6015 87.2929C39.7123 84.5959 40.2091 81.9307 41.0759 79.384ZM39.5605 88.1258L59.7529 96.8291L39.7459 108.988C39.6365 104.726 39.3872 92.3954 39.5605 88.1258ZM76.4205 118.945C74.9005 122.404 70.6984 123.415 69.1176 123.795C63.8501 125.062 59.2832 122.846 56.2592 121.378C53.5232 120.044 42.4903 111.582 40.056 109.71L60.5805 97.2365L63.2147 99.1731C61.7053 100.508 60.5775 100.699 60.7189 101.528C60.8427 102.246 61.9751 102.476 62.5619 102.483C63.2278 102.436 63.8788 102.257 64.4793 101.956C65.0596 101.755 65.6557 101.606 66.2608 101.512C68.836 102.792 71.1025 104.648 72.8956 106.947C77.5187 112.975 77.3644 116.799 76.4205 118.945ZM73.3934 105.172C73.3349 104.974 73.2611 104.78 73.1973 104.586L74.1405 104.031C74.2324 104.239 74.3236 104.457 74.4148 104.674L73.3934 105.172ZM94.7425 120.502C94.8262 119.865 95.023 119.249 95.3232 118.685C95.6451 119.004 95.991 119.296 96.3575 119.559L95.9145 121.358C95.5588 121.097 95.3171 120.651 94.7425 120.502ZM98.8397 122.998C97.8593 122.493 97.116 122.097 96.5924 121.79L97.0294 120.015C97.7219 120.446 98.4409 120.831 99.1817 121.166L98.8397 122.998ZM99.5457 123.36L99.8976 121.48C101.07 121.97 102.266 122.396 103.481 122.757L103.078 125.139C101.7 124.45 100.521 123.857 99.5419 123.36H99.5457ZM110.884 127.578C109.903 127.417 108.832 127.201 107.736 126.908V123.846C108.793 124.073 109.886 124.277 111.004 124.459L110.884 127.578ZM106.976 126.695C105.887 126.373 104.822 125.968 103.79 125.484L104.215 122.972C105.099 123.223 106.022 123.458 106.976 123.678V126.695ZM111.64 127.694L111.758 124.576C112.817 124.733 113.895 124.876 114.984 124.992L114.864 128.022C114.164 127.979 113.017 127.892 111.637 127.694H111.64ZM115.624 128.062L115.742 125.067C116.891 125.178 118.051 125.263 119.211 125.32L119.46 128.056C118.173 128.117 116.887 128.122 115.62 128.062H115.624ZM120.22 128.015L119.978 125.351C122.388 125.444 123.349 125.391 124.178 125.37L124.816 127.528C123.326 127.746 121.779 127.917 120.216 128.016L120.22 128.015ZM125.577 127.41L124.968 125.353C126.492 125.312 128.012 125.189 129.523 124.984L129.903 126.563C128.566 126.872 127.109 127.165 125.573 127.41H125.577ZM130.275 124.855C131.473 124.636 132.653 124.319 133.803 123.907L134.063 125.434C133.107 125.739 131.946 126.068 130.643 126.387L130.275 124.855ZM134.793 125.191L134.526 123.627C135.46 123.249 136.36 122.787 137.215 122.247V124.194C136.452 124.634 135.637 124.969 134.789 125.19L134.793 125.191ZM139.001 99.2186C138.642 102.556 138.174 102.759 138.458 104.498C138.943 107.499 141.052 111.261 141.764 112.531C142.195 113.161 142.438 113.907 142.464 114.678C142.45 115.28 142.236 116.08 140.802 117.833C139.82 119.13 138.659 120.271 137.357 121.221C134.554 123.035 131.365 124.117 128.067 124.373C115.38 125.575 99.263 122.307 95.539 117.779C94.6741 116.726 93.4657 114.178 92.1015 112.341C91.7286 111.884 91.4889 111.327 91.41 110.735C91.3312 110.143 91.4166 109.54 91.6562 108.996C92.7612 106.152 95.7944 92.2392 96.7968 86.3752C97.3288 83.28 97.1768 82.7273 98.1078 76.4277C98.6398 72.8261 99.2433 69.212 99.8961 65.6881C99.9069 65.6369 99.9077 65.584 99.8984 65.5324C99.8891 65.4809 99.8699 65.4318 99.8419 65.3881C99.8139 65.3443 99.7777 65.3068 99.7355 65.2778C99.6932 65.2487 99.6458 65.2287 99.5959 65.2189C99.5461 65.2091 99.4948 65.2097 99.4452 65.2207C99.3956 65.2317 99.3486 65.2528 99.307 65.2829C99.2654 65.3129 99.2301 65.3513 99.2031 65.3957C99.1761 65.4401 99.1579 65.4896 99.1498 65.5413C98.4947 69.0738 97.8912 72.6974 97.3562 76.3092C96.052 85.1137 96.9336 82.9817 94.0038 96.4766C89.893 98.2177 77.2747 103.473 75.1178 104.361C74.1901 102.215 73.101 100.147 71.8605 98.1761C75.3139 95.7795 88.5045 86.7497 91.5961 84.66C91.6421 84.6289 91.681 84.5879 91.7101 84.5398C91.7392 84.4917 91.7579 84.4376 91.7649 84.3813C92.287 80.0748 93.6649 69.2803 95.1849 62.0418C95.4041 60.8055 95.8297 59.6179 96.4427 58.5321C98.3799 55.1817 101.135 54.7099 109.889 49.2275C111.368 53.9013 114.86 57.4252 119.719 57.2345C119.611 58.003 119.496 58.7848 119.369 59.6036C118.465 65.4283 118.305 71.3582 117.44 77.208C117.135 78.8001 117.309 80.4506 117.938 81.9376C118.941 83.8961 120.637 85.3794 122.672 86.0785C125.606 87.0354 128.403 85.7739 131.102 84.3868C133.243 83.2878 135.001 81.6574 138.237 78.5629C138.606 82.9644 139.472 94.8203 138.997 99.2186H139.001ZM145.625 64.8136C145.514 66.5028 145.161 68.1657 144.578 69.7481C143.471 72.5247 140.175 75.6427 137.786 77.9278C134.554 81.0192 132.831 82.6237 130.754 83.6913C128.527 84.8343 125.76 86.2583 122.926 85.3398C121.082 84.7099 119.543 83.3721 118.627 81.6032C118.057 80.248 117.906 78.7436 118.197 77.2967C119.056 71.5042 119.227 65.4785 120.121 59.7292C120.856 54.9831 121.215 51.4435 121.865 45.0167C122.087 42.836 122.722 35.3612 122.829 33.8336L130.995 35.0205C131.658 46.2397 131.889 57.3412 131.648 68.719C131.646 68.8231 131.684 68.9238 131.754 68.9991C131.823 69.0743 131.919 69.1178 132.02 69.1201C132.121 69.1224 132.218 69.0833 132.291 69.0113C132.364 68.9393 132.406 68.8404 132.408 68.7363C132.418 68.277 132.421 67.8139 132.429 67.3531C133.263 68.04 133.928 68.921 134.369 69.924C134.389 69.9716 134.418 70.0147 134.454 70.0507C134.491 70.0867 134.533 70.1148 134.58 70.1336C134.627 70.1523 134.677 70.1613 134.728 70.1599C134.778 70.1585 134.827 70.1468 134.873 70.1255C134.919 70.1042 134.96 70.0737 134.995 70.0358C135.029 69.9979 135.056 69.9533 135.074 69.9046C135.091 69.8559 135.099 69.8041 135.097 69.7522C135.095 69.7002 135.083 69.6493 135.062 69.6021C134.492 68.3012 133.586 67.1877 132.444 66.3836C132.535 60.4176 132.506 54.3888 132.342 48.4071C134.379 49.3557 136.309 50.5313 138.099 51.9129C140.103 53.2774 141.835 55.0245 143.205 57.0602C143.467 57.4872 145.794 61.3322 145.622 64.8136H145.625Z" fill="black"/>
<path d="M79.2887 63.7311C79.1708 63.2853 78.9636 62.87 78.6807 62.512C78.7712 62.4427 78.8401 62.3475 78.8788 62.2382C78.9176 62.1289 78.9245 62.0103 78.8987 61.897C78.8729 61.7837 78.8156 61.6807 78.7337 61.6007C78.6519 61.5206 78.5492 61.4671 78.4382 61.4467C78.7004 60.6428 78.7311 59.7775 78.5264 58.9559C78.4405 58.5956 78.23 57.9802 77.7664 57.97C77.3028 57.9598 77.0528 58.5517 76.9502 58.8123C76.7411 59.4256 76.6941 60.0854 76.8141 60.7238C76.6271 60.4604 76.4023 60.228 76.1476 60.0345C75.7243 59.7284 74.6519 59.2283 74.2218 59.7205C73.8136 60.1876 74.3175 61.0166 74.4809 61.2583C74.8551 61.785 75.3908 62.1654 76.0009 62.3377C75.7919 62.395 75.5799 62.4437 75.377 62.5183C75.2819 62.553 75.2041 62.6254 75.1607 62.7194C75.1173 62.8134 75.1119 62.9213 75.1455 63.0195C75.1792 63.1177 75.2492 63.198 75.3402 63.2428C75.4312 63.2876 75.5358 63.2933 75.6308 63.2585C75.7919 63.2004 75.9584 63.1628 76.1233 63.1157C75.8374 63.7527 75.732 64.4603 75.8193 65.1567C75.9424 66.0052 76.1947 66.4448 76.5914 66.499C77.1918 66.572 77.5962 65.6622 77.7953 65.0719C77.8234 64.9847 77.8401 64.8945 77.8629 64.8058C77.8804 64.823 77.8926 64.8426 77.9108 64.8583C78.2391 65.1433 78.7278 65.3804 79.0903 65.1362C79.56 64.823 79.3632 64.0333 79.2887 63.7311ZM77.7276 58.9355C77.9729 59.7014 77.9654 60.5296 77.7064 61.2905C77.4273 60.5305 77.4349 59.69 77.7276 58.9355ZM75.1049 60.8117C74.9992 60.6564 74.9143 60.4872 74.8526 60.3085C75.2104 60.3784 75.5459 60.5388 75.8291 60.7754C76.1122 61.012 76.3342 61.3173 76.4752 61.6642C75.9297 61.5713 75.4394 61.2663 75.1049 60.8117ZM77.0763 64.823C76.9843 65.1019 76.8586 65.3678 76.7024 65.6143C76.6385 65.4276 76.5939 65.2345 76.5694 65.0381C76.4942 64.3682 76.6335 63.6913 76.9661 63.1109C77.0468 63.1207 77.1281 63.1251 77.2093 63.1243C77.2964 63.6934 77.2508 64.2758 77.0763 64.823ZM78.4018 64.2649C78.2567 64.0879 78.1516 63.8797 78.0941 63.6556C78.0365 63.4314 78.0279 63.1969 78.0689 62.9689C78.2967 63.2487 78.4625 63.5766 78.5545 63.9297C78.5992 64.0899 78.6262 64.2547 78.6351 64.4211C78.5516 64.3792 78.4734 64.3267 78.4025 64.2649H78.4018Z" fill="black"/>
<path d="M146.006 152.132H140.145C140.044 152.132 139.948 152.09 139.876 152.017C139.805 151.943 139.765 151.843 139.765 151.739C139.765 151.635 139.805 151.535 139.876 151.461C139.948 151.388 140.044 151.347 140.145 151.347H146.006C146.106 151.347 146.203 151.388 146.274 151.461C146.345 151.535 146.386 151.635 146.386 151.739C146.386 151.843 146.345 151.943 146.274 152.017C146.203 152.09 146.106 152.132 146.006 152.132Z" fill="black"/>
<path d="M88.2984 152.132H39.3727C39.2719 152.132 39.1752 152.09 39.104 152.017C39.0327 151.943 38.9927 151.843 38.9927 151.739C38.9927 151.635 39.0327 151.535 39.104 151.461C39.1752 151.388 39.2719 151.347 39.3727 151.347H88.2984C88.3992 151.347 88.4959 151.388 88.5671 151.461C88.6384 151.535 88.6784 151.635 88.6784 151.739C88.6784 151.843 88.6384 151.943 88.5671 152.017C88.4959 152.09 88.3992 152.132 88.2984 152.132Z" fill="black"/>
<path d="M23.0197 152.132H13.0006C12.8998 152.132 12.8032 152.09 12.7319 152.017C12.6606 151.943 12.6206 151.843 12.6206 151.739C12.6206 151.635 12.6606 151.535 12.7319 151.461C12.8032 151.388 12.8998 151.347 13.0006 151.347H23.0197C23.1205 151.347 23.2171 151.388 23.2884 151.461C23.3596 151.535 23.3997 151.635 23.3997 151.739C23.3997 151.843 23.3596 151.943 23.2884 152.017C23.2171 152.09 23.1205 152.132 23.0197 152.132Z" fill="black"/>
<path d="M110.465 153.501C109.833 149.185 109.517 144.825 109.519 140.459C106.014 138.017 102.815 135.137 99.9937 131.885C99.9283 131.807 99.895 131.706 99.9011 131.603C99.9072 131.5 99.9523 131.404 100.027 131.335C100.101 131.266 100.198 131.23 100.298 131.235C100.398 131.24 100.491 131.285 100.559 131.36C103.384 134.616 106.592 137.493 110.11 139.924C110.162 139.96 110.205 140.008 110.234 140.065C110.263 140.122 110.279 140.186 110.279 140.251C110.264 144.645 110.577 149.034 111.216 153.378L110.465 153.501Z" fill="white"/>
<path d="M126.653 148.892C126.556 148.892 126.462 148.853 126.391 148.784C126.32 148.714 126.278 148.619 126.273 148.518C125.994 142.445 125.437 136.218 124.546 129.83C124.532 129.727 124.557 129.622 124.618 129.539C124.678 129.456 124.768 129.4 124.867 129.385C124.967 129.373 125.067 129.4 125.147 129.462C125.228 129.524 125.282 129.616 125.298 129.718C126.167 135.964 126.748 142.263 127.032 148.48C127.036 148.583 127.001 148.685 126.933 148.762C126.866 148.838 126.771 148.884 126.671 148.889L126.653 148.892Z" fill="white"/>
<path d="M129.823 153.842C129.722 153.842 129.625 153.801 129.554 153.727C129.483 153.653 129.443 153.554 129.443 153.45C129.508 145.208 128.951 136.974 127.777 128.823C127.763 128.72 127.788 128.615 127.848 128.532C127.908 128.448 127.997 128.393 128.097 128.377C128.196 128.362 128.298 128.388 128.379 128.45C128.46 128.512 128.514 128.605 128.528 128.708C129.708 136.9 130.267 145.174 130.2 153.456C130.199 153.558 130.158 153.656 130.088 153.728C130.017 153.801 129.922 153.841 129.823 153.842Z" fill="white"/>
</svg>
