<svg width="153" height="157" viewBox="0 0 153 157" fill="none" xmlns="http://www.w3.org/2000/svg">
<path d="M24.6201 28.0239C28.8854 28.0239 32.3432 24.4751 32.3432 20.0975C32.3432 15.7199 28.8854 12.1711 24.6201 12.1711C20.3547 12.1711 16.897 15.7199 16.897 20.0975C16.897 24.4751 20.3547 28.0239 24.6201 28.0239Z" fill="#FFD997"/>
<path d="M24.6195 28.2972C20.2138 28.2972 16.6304 24.6195 16.6304 20.0978C16.6304 15.5761 20.2138 11.8984 24.6195 11.8984C29.0252 11.8984 32.6086 15.5761 32.6086 20.0978C32.6086 24.6195 29.0252 28.2972 24.6195 28.2972ZM24.6195 12.4444C20.5079 12.4444 17.1624 15.878 17.1624 20.0978C17.1624 24.3176 20.5079 27.7512 24.6195 27.7512C28.7311 27.7512 32.0766 24.3176 32.0766 20.0978C32.0766 15.878 28.7311 12.4444 24.6195 12.4444Z" fill="black"/>
<path d="M20.2884 35.6406C20.4305 29.3726 16.6883 27.0677 10.6676 27.9693C10.3841 28.0099 10.2465 27.6285 10.4844 27.4694C12.7264 25.978 13.8968 24.2417 13.9644 22.3112C14.1035 18.3324 9.53288 14.7437 9.48652 14.7078C9.25852 14.5307 9.42876 14.1579 9.70464 14.2234C16.1525 15.7085 20.6114 12.1291 20.7224 4.2706C20.7239 4.12006 20.8766 3.99448 20.9914 4.0015C21.1381 4.00384 21.2559 4.12708 21.2536 4.27762C21.154 11.3561 17.4148 16.0151 10.5954 14.9504C14.8286 18.8683 16.2543 23.6403 11.6373 27.3009C17.8587 26.726 20.9511 29.885 20.8196 35.6523C20.8128 36.0127 20.2793 36.001 20.2884 35.6406Z" fill="black"/>
<path d="M22.6115 32.8779C26.2557 29.7197 30.9578 29.1479 34.8672 31.3015C32.2262 26.3961 35.1416 22.3643 40.0915 20.0547C37.5189 19.3238 35.7192 17.9775 34.7358 16.0431C33.3343 13.2882 33.9583 10.1058 34.4029 8.57621C29.5974 12.2757 25.2358 10.5855 22.6844 7.64645C22.4504 7.37735 22.8494 7.01387 23.0819 7.28375C25.5922 10.1768 29.9827 11.7726 34.7798 7.56533C34.9942 7.37969 35.3058 7.61525 35.1986 7.87811C35.1811 7.92179 33.4392 12.3163 35.2092 15.7928C36.2147 17.7669 38.1618 19.0883 40.9951 19.7201C41.2558 19.7786 41.2794 20.1498 41.0301 20.2434C40.9784 20.2622 35.837 22.2246 34.6446 26.0521C34.0738 27.8851 34.4948 29.8733 35.8955 31.9645C36.062 32.2125 35.7701 32.5113 35.5284 32.3451C31.6517 29.6635 26.7185 30.0356 22.9558 33.2944C22.6943 33.523 22.3402 33.1142 22.613 32.8771L22.6115 32.8779Z" fill="black"/>
<path d="M131.868 26.2051C129.569 24.0921 127.717 25.1708 127.641 25.2168C127.338 25.4001 127.069 24.9314 127.369 24.7481C127.456 24.6942 129.42 23.5274 131.852 25.4789C132.268 23.3113 133.618 22.3067 135.068 22.3808C135.406 22.3839 135.444 22.926 135.025 22.926C132.525 22.926 132.318 25.8908 132.312 26.0179C132.297 26.2457 132.032 26.3556 131.868 26.2051Z" fill="black"/>
<path d="M139.141 10.602C136.845 8.49208 134.993 9.5677 134.914 9.61372C134.611 9.79702 134.342 9.32824 134.642 9.14494C134.729 9.09112 136.692 7.92502 139.124 9.87502C139.315 8.88286 139.992 6.77686 142.296 6.77686C142.709 6.77686 142.707 7.32286 142.298 7.32286C139.798 7.32286 139.591 10.2876 139.585 10.4148C139.57 10.6425 139.305 10.7517 139.141 10.6012V10.602Z" fill="black"/>
<path d="M118.413 15.336C115.189 12.3743 112.586 13.8977 112.476 13.9648C112.171 14.1473 111.904 13.6793 112.204 13.496C112.232 13.478 115.027 11.8143 118.39 14.5997C118.81 12.1162 120.294 10.1591 122.748 10.2527C123.081 10.2559 123.136 10.798 122.688 10.798C119.154 10.798 118.866 14.9702 118.856 15.148C118.841 15.3781 118.575 15.4858 118.413 15.336Z" fill="black"/>
<path d="M88.0371 42.7505L17.4658 84.5187L72.3272 117.062L142.902 75.2437L88.0371 42.7505Z" fill="#FFD997"/>
<path d="M72.3272 117.062L17.4658 84.5186V152.048L142.902 152.475V75.2437L72.3272 117.062Z" fill="white"/>
<path d="M143.168 75.243C143.168 74.9903 143.177 75.2173 88.1748 42.4994C88.0327 42.4152 64.4271 56.3501 17.3572 84.3043C17.2569 84.3503 17.2007 84.4494 17.2007 84.5523V152.047C17.2007 152.408 17.7319 152.408 17.7319 152.047V85.0258L72.0605 117.218V152.474C72.0605 152.835 72.5925 152.835 72.5925 152.474V117.22L142.636 75.7157V152.474C142.636 152.835 143.168 152.835 143.168 152.474V75.243ZM88.0418 43.0516L142.37 75.2438L72.328 116.746L17.9994 84.5547L88.0418 43.0516Z" fill="black"/>
<path d="M67.7712 119.325L22.2859 92.3734C22.1339 92.2829 21.9531 92.2759 21.9424 92.9381C21.9067 95.1439 21.8877 105.583 21.8877 152.474C21.8877 152.835 22.4189 152.835 22.4189 152.474V93.0816L31.8262 98.6555V152.473C31.8262 152.834 32.3575 152.834 32.3575 152.473V98.9698L43.5393 105.595V152.472C43.5393 152.833 44.0706 152.833 44.0706 152.472V105.91L55.2532 112.536V152.473C55.2532 152.834 55.7845 152.834 55.7845 152.473V112.851L67.3722 119.718V152.473C67.3722 152.834 67.9034 152.834 67.9034 152.473V119.56C67.9034 119.463 67.8532 119.373 67.7704 119.324L67.7712 119.325Z" fill="black"/>
<path d="M77.1468 133.236C76.9705 133.341 76.7485 133.21 76.7485 133V119.84C76.7485 119.588 76.763 119.815 138.081 83.341C138.258 83.2365 138.48 83.3668 138.48 83.5774V96.7367C138.48 96.9895 138.465 96.7625 77.1468 133.236ZM77.2798 119.998V132.526L137.948 96.5784V84.05L77.2798 119.998Z" fill="black"/>
<path d="M85.3183 152.239L137.948 121.053V108.525L77.2798 144.472V152.475C77.2798 152.836 76.7485 152.836 76.7485 152.475V144.314C76.7485 144.217 76.7987 144.127 76.8815 144.078C141.551 105.785 138.48 107.359 138.48 108.052V121.21C138.48 121.462 138.406 121.088 85.5843 152.71C85.2811 152.892 85.0143 152.418 85.3183 152.239Z" fill="black"/>
<path d="M127.298 152.748C127.027 152.748 126.931 152.378 127.166 152.239L137.948 145.849V133.321L105.221 152.712C104.92 152.894 104.65 152.42 104.955 152.24L138.081 132.612C138.257 132.507 138.479 132.638 138.479 132.848V146.008C138.479 146.105 138.429 146.195 138.346 146.244C127.313 152.777 127.409 152.749 127.297 152.749L127.298 152.748Z" fill="black"/>
<path d="M40.6792 92.3108L58.8082 81.4041L91.1531 100.262L73.024 111.169L40.6792 92.3108Z" fill="white"/>
<path d="M91.4193 100.261C91.4193 100.084 91.4839 100.072 58.9399 81.167C58.8571 81.1187 58.756 81.1195 58.6739 81.1694L40.5449 92.0761C40.4613 92.126 40.4278 92.1627 40.4157 92.3366C40.402 92.5277 40.4142 92.885 40.4142 93.6073C40.4142 93.7055 40.4651 93.796 40.5487 93.8452L72.8935 112.703C72.9733 112.749 73.0759 112.751 73.1595 112.701L91.2886 101.794C91.4641 101.69 91.42 101.644 91.42 100.261L91.4193 100.261ZM90.6213 100.266L73.022 110.854L41.2122 92.3078L58.8107 81.7201L90.6213 100.266Z" fill="black"/>
<path d="M73.0094 109.002L87.4942 100.288L58.8225 83.571L44.3369 92.2852L73.0094 109.002Z" fill="#81F8F8"/>
<path d="M73.0093 109.274L44.2061 92.5221C44.0267 92.4161 44.0283 92.154 44.2031 92.0495L58.6887 83.3353C58.7707 83.2862 58.8718 83.2854 58.9547 83.333L87.6264 100.05C87.8058 100.156 87.8043 100.418 87.6295 100.523C73.0314 109.301 73.1249 109.274 73.0109 109.274H73.0093ZM44.8696 92.2811L73.0071 108.686L86.9614 100.291L58.8247 83.886L44.8696 92.2811Z" fill="black"/>
<path d="M49.7871 92.3858C49.9056 92.3 50.0728 92.3273 50.1579 92.4514C50.3023 92.6627 50.5904 92.5247 50.7074 92.4553C50.9559 92.3071 51.4408 92.0723 51.7319 91.3016C51.8033 91.1129 52.0625 91.0513 52.197 91.2431C52.3414 91.4545 52.6295 91.3165 52.7465 91.247C53.0003 91.0957 53.4784 90.8641 53.771 90.0934C53.8462 89.8953 54.1099 89.8524 54.2361 90.0349C54.3805 90.2463 54.6693 90.1075 54.7863 90.0381C55.0349 89.8899 55.5114 89.673 55.8101 88.8852C55.8838 88.6918 56.1445 88.6395 56.2752 88.8267C56.4196 89.0381 56.7084 88.9 56.8254 88.8306C57.0793 88.6793 57.5573 88.4469 57.8491 87.677C57.9244 87.4781 58.1904 87.436 58.3143 87.6193C58.4587 87.8306 58.7467 87.6918 58.8637 87.6224C59.1168 87.4726 59.5956 87.2402 59.8882 86.4695C60.0151 86.1326 60.5114 86.3307 60.3837 86.6677C60.1747 87.2199 59.7955 87.7004 59.3699 87.9531L59.1305 88.0951C58.7953 88.294 58.4579 88.3267 58.1965 88.2058C57.8415 88.8743 57.4441 89.095 57.0922 89.3033C56.757 89.5014 56.4219 89.5357 56.1581 89.414C55.8063 90.0794 55.4095 90.3009 55.0539 90.5115C54.7187 90.7104 54.3835 90.744 54.1198 90.6223C53.7679 91.2845 53.3765 91.5052 53.0148 91.7197C52.6811 91.9178 52.3467 91.9529 52.0807 91.8305C51.7273 92.495 51.3359 92.7142 50.9757 92.9279C50.0827 93.4583 49.4033 92.6666 49.7893 92.3866L49.7871 92.3858Z" fill="black"/>
<path d="M54.872 95.278C54.9906 95.1915 55.157 95.2188 55.2429 95.3436C55.3873 95.5549 55.6753 95.4169 55.7924 95.3475C56.0409 95.1993 56.5258 94.9645 56.8169 94.1938C56.8913 93.9988 57.1528 93.9497 57.282 94.1353C57.4264 94.3467 57.7144 94.2087 57.8315 94.1392C58.0853 93.9879 58.5633 93.7563 58.8559 92.9856C58.9274 92.7969 59.1865 92.7352 59.3211 92.9271C59.4655 93.1393 59.7543 92.9989 59.8713 92.9302C60.1191 92.7844 60.6024 92.548 60.895 91.7774C60.9703 91.5793 61.234 91.5364 61.3601 91.7189C61.5053 91.9318 61.7933 91.7907 61.9096 91.722C62.1589 91.5738 62.643 91.339 62.9341 90.5684C63.0101 90.3679 63.2761 90.3297 63.3992 90.5107C63.5436 90.7205 63.8309 90.584 63.9495 90.5138C64.1965 90.3672 64.6806 90.1316 64.9732 89.361C65.1016 89.0224 65.5964 89.2237 65.4687 89.5591C65.2597 90.1113 64.8805 90.5918 64.4541 90.8437L64.2155 90.9857C63.8803 91.1846 63.5429 91.2181 63.2814 91.0972C62.9295 91.7602 62.5359 91.9825 62.1771 92.1947C61.8412 92.3936 61.5045 92.4264 61.2431 92.3055C60.8897 92.97 60.4968 93.1915 60.1388 93.4029C59.8029 93.6018 59.467 93.6354 59.2048 93.5137C58.8529 94.1759 58.4615 94.3966 58.0997 94.6111C57.7661 94.8093 57.4317 94.8444 57.1657 94.7219C56.8123 95.3865 56.4209 95.6056 56.0607 95.8194C55.1677 96.3498 54.4882 95.5581 54.8743 95.278H54.872Z" fill="black"/>
<path d="M59.958 98.1702C60.0765 98.0844 60.2437 98.1117 60.3288 98.2357C60.4725 98.4471 60.7605 98.309 60.8783 98.2396C61.1276 98.0922 61.6117 97.8566 61.9028 97.086C61.978 96.8879 62.2418 96.845 62.3679 97.0275C62.5116 97.2389 62.7996 97.1008 62.9174 97.0314C63.172 96.8808 63.65 96.6476 63.9419 95.8778C64.0179 95.6773 64.2839 95.6391 64.407 95.82C64.5506 96.0299 64.8387 95.8934 64.9572 95.8232C65.2042 95.6765 65.6884 95.441 65.981 94.6703C66.0562 94.4722 66.3199 94.4293 66.4461 94.6118C66.5912 94.824 66.8785 94.6844 66.9956 94.6149C67.2448 94.4675 67.729 94.232 68.02 93.4613C68.0968 93.2601 68.3636 93.2226 68.4852 93.4036C68.6288 93.6134 68.9176 93.4761 69.0354 93.4067C69.2847 93.2601 69.7665 93.0237 70.0591 92.2531C70.1876 91.9146 70.6816 92.1166 70.5546 92.4512C70.3456 93.0042 69.9664 93.4847 69.54 93.7367L69.3014 93.8786C68.9662 94.0767 68.6288 94.1111 68.3674 93.9902C68.0155 94.6532 67.6218 94.8755 67.2631 95.0876C66.9272 95.2865 66.5905 95.3201 66.329 95.1984C65.9756 95.8629 65.5827 96.0837 65.2248 96.2958C64.8888 96.4947 64.5529 96.5283 64.2907 96.4066C63.9373 97.0712 63.5459 97.2903 63.1857 97.5041C62.852 97.7022 62.5176 97.7373 62.2516 97.6148C61.8982 98.2794 61.5068 98.4986 61.1466 98.7123C60.2536 99.2427 59.5742 98.451 59.9602 98.171L59.958 98.1702Z" fill="black"/>
<path d="M65.0431 101.062C65.1617 100.977 65.3289 101.003 65.414 101.128C65.5584 101.34 65.8472 101.201 65.9642 101.132C66.2128 100.984 66.6954 100.749 66.988 99.9783C67.0602 99.7887 67.3193 99.7287 67.4531 99.9198C67.5975 100.132 67.8863 99.9931 68.0033 99.9237C68.2572 99.7723 68.7344 99.5399 69.0278 98.77C69.103 98.5727 69.3652 98.529 69.4929 98.7115C69.6366 98.9229 69.9254 98.7849 70.0424 98.7154C70.2917 98.5672 70.7758 98.3325 71.0669 97.5618C71.1406 97.3676 71.402 97.3169 71.532 97.5033C71.6756 97.7147 71.9644 97.5766 72.0815 97.5072C72.3308 97.359 72.8149 97.1242 73.106 96.3536C73.182 96.1539 73.4457 96.1141 73.5711 96.2951C73.7147 96.5065 74.0035 96.3684 74.1206 96.299C74.3744 96.1477 74.8524 95.916 75.145 95.1454C75.2742 94.8069 75.7682 95.0081 75.6406 95.3435C75.4316 95.8965 75.0523 96.377 74.626 96.6289L74.3866 96.7717C74.0506 96.9698 73.717 97.0026 73.4525 96.8817C73.0991 97.5462 72.7077 97.7654 72.3475 97.9791C72.0138 98.1772 71.6794 98.2123 71.4134 98.0899C71.06 98.7544 70.6686 98.9736 70.3084 99.1873C69.9748 99.3855 69.6373 99.419 69.3744 99.2981C69.0194 99.9666 68.622 100.187 68.2701 100.396C67.9342 100.594 67.5998 100.628 67.336 100.506C66.9842 101.172 66.5874 101.393 66.2318 101.604C65.3418 102.132 64.6578 101.344 65.0446 101.062H65.0431Z" fill="black"/>
<path d="M70.1284 103.955C70.2477 103.869 70.4134 103.896 70.4993 104.02C70.6429 104.231 70.9317 104.093 71.0487 104.024C71.2973 103.876 71.7821 103.641 72.0732 102.87C72.1469 102.676 72.4084 102.625 72.5383 102.812C72.6827 103.023 72.9708 102.885 73.0878 102.816C73.3363 102.668 73.8205 102.433 74.1123 101.662C74.1837 101.473 74.4436 101.412 74.5774 101.604C74.721 101.816 75.0106 101.677 75.1276 101.608C75.3762 101.46 75.8588 101.225 76.1514 100.454C76.2251 100.26 76.4865 100.209 76.6165 100.395C76.7609 100.608 77.0497 100.469 77.1667 100.399C77.4153 100.252 77.8979 100.016 78.1905 99.2457C78.2642 99.0523 78.5256 98.9992 78.6556 99.1872C78.8 99.3994 79.0888 99.2605 79.2058 99.1911C79.4597 99.0398 79.9369 98.8073 80.2303 98.0375C80.3587 97.699 80.8543 97.9002 80.7258 98.2356C80.5161 98.7886 80.1361 99.2699 79.7105 99.521L79.4718 99.663C79.1359 99.8619 78.8015 99.8954 78.5378 99.7737C78.1859 100.439 77.7892 100.661 77.4335 100.871C77.0983 101.069 76.7632 101.103 76.4994 100.982C76.1476 101.647 75.7509 101.869 75.3952 102.079C75.06 102.278 74.7248 102.312 74.4611 102.19C74.1077 102.856 73.711 103.078 73.3561 103.288C73.0217 103.485 72.6888 103.521 72.4221 103.398C72.0687 104.063 71.6772 104.282 71.317 104.496C70.424 105.026 69.7446 104.235 70.1307 103.955H70.1284Z" fill="black"/>
<path d="M105.041 46.3503C84.683 34.9303 85.3845 35.1768 84.5728 35.1354C84.1419 35.1136 83.7064 35.2173 83.3211 35.4459L32.0917 65.7988L17.4663 57.1314V84.5515L32.0917 93.2173L84.4284 62.2077L105.041 73.7688L122.785 63.3246V35.9061L105.041 46.3503Z" fill="#FFD997"/>
<path d="M33.9668 66.9104L82.739 37.9802V63.2085L33.9668 92.1068V66.9104Z" fill="#81F8F8"/>
<path d="M122.784 35.9062L89.1814 15.992C88.4754 15.5739 87.6052 15.5747 86.8991 15.992L17.4663 57.1323L32.0917 65.7996L83.3211 35.4467C84.0104 35.0388 84.8547 35.0279 85.5524 35.4194L105.041 46.3511L122.785 35.9069L122.784 35.9062Z" fill="white"/>
<path d="M123.05 35.8983C123.047 35.8031 122.996 35.7173 122.916 35.6689L89.3148 15.7555C88.529 15.2883 87.5531 15.2907 86.7665 15.7555C40.3731 43.2365 17.1845 57.0287 17.2007 57.1322V84.5531C17.2007 84.6506 17.2509 84.7395 17.3337 84.7887C32.0762 93.5184 31.9797 93.4903 32.0921 93.4903L84.4326 62.5212L105.041 74.0418C105.13 74.0418 105.059 74.0496 122.917 63.5617C123 63.5126 123.051 63.4221 123.051 63.3246V35.8983H123.05ZM17.7327 57.6049L31.8269 65.9571V92.7447L17.7327 84.3948V57.6049ZM84.3079 61.9651L32.3589 92.7447V65.9571C84.2046 35.2384 83.589 35.4708 84.3079 35.4147V61.9651ZM104.776 73.3086L84.8399 62.1273V35.4443C85.3301 35.5387 84.8924 35.3577 104.776 46.5117V73.3086ZM105.039 46.0375L85.6828 35.1791C84.9083 34.7446 83.953 34.7563 83.1892 35.2103L32.0937 65.4837L18.0002 57.1314L87.0325 16.229C87.6542 15.8601 88.4256 15.8601 89.0488 16.229L122.251 35.9068L105.038 46.0383L105.039 46.0375ZM122.52 63.1663L105.308 73.2969V46.5086L122.52 36.378V63.1663Z" fill="black"/>
<path d="M133.767 42.2999L116.024 52.7441L105.041 46.3504L122.784 35.9062L133.767 42.2999Z" fill="white"/>
<path d="M33.8342 66.6738C33.7521 66.723 33.7012 66.8127 33.7012 66.9102V92.1065C33.7012 92.2578 33.8205 92.3795 33.9672 92.3795C83.0632 63.3323 83.0046 63.461 83.0046 63.2098V37.9808C83.0046 37.2741 85.3812 36.1345 33.8342 66.6738ZM54.0829 55.2936L63.5046 49.7049V74.2905L54.0829 79.873V55.2936ZM53.5516 80.1873L44.1299 85.7698V61.1974L53.5516 55.6088V80.1873ZM34.2332 67.0677L43.5979 61.5126V86.0841L34.2332 91.6331V67.0677ZM73.4583 68.393L64.0366 73.9754V49.4507C64.0366 49.3555 64.0107 49.4046 73.4583 43.8003V68.393ZM82.4734 63.0515L73.9895 68.0778V43.4852L82.4734 38.4527V63.0515Z" fill="black"/>
<path d="M86.2915 63.2903V38.094L103.322 47.5733V72.7681L86.2915 63.2903Z" fill="#81F8F8"/>
<path d="M89.8857 65.3138V44.0955L99.7277 49.5742V70.7917L89.8857 65.3138Z" fill="white"/>
<path d="M103.449 47.3332L86.4193 37.8538C86.2422 37.7548 86.0264 37.8874 86.0264 38.0941V63.2912C86.0264 63.391 86.0796 63.4831 86.1654 63.5314L103.196 73.0092C103.376 73.1083 103.588 72.9741 103.588 72.769V47.5734C103.588 47.4736 103.535 47.3815 103.449 47.3332ZM99.4624 70.3096L97.9698 69.4789V51.1957C97.9698 50.879 97.801 50.5881 97.5297 50.4376L91.9886 47.3534C91.7788 47.2364 91.5227 47.3932 91.5227 47.6381V65.8909L90.1524 65.1281V44.554L99.4624 49.7356V70.3096ZM103.056 72.3103L99.9936 70.606V49.5741C99.9936 49.4743 99.9404 49.3822 99.8546 49.3339L90.0133 43.8567C89.8302 43.7561 89.6204 43.8949 89.6204 44.0969V64.834L86.5576 63.1297V38.5535L103.056 47.7364V72.3103Z" fill="black"/>
<path d="M109.456 43.7998L114.065 41.0784L124.987 47.4362L120.373 50.1552L109.456 43.7998Z" fill="#81F8F8"/>
<path d="M118.723 38.4061L122.784 35.9062L133.768 42.2999L129.558 44.7132L118.723 38.4061Z" fill="#81F8F8"/>
<path d="M116.024 52.7441C117.084 55.3298 120.373 53.9118 120.373 50.1553L116.024 52.7441Z" fill="white"/>
<path d="M120.61 50.1506C121.67 52.7363 124.959 51.3182 124.959 47.5618L120.61 50.1506Z" fill="#81F8F8"/>
<path d="M125.208 47.614C126.269 50.1997 129.558 48.4696 129.558 44.7131L125.208 47.614Z" fill="white"/>
<path d="M129.558 44.713C130.618 47.2987 133.768 46.1303 133.768 42.373L129.558 44.713Z" fill="#81F8F8"/>
<path d="M133.9 42.0619L122.916 35.669C122.835 35.6214 122.734 35.6214 122.652 35.669L104.909 46.1132C104.73 46.2177 104.731 46.4829 104.909 46.5874L115.815 52.9358C116.961 55.5192 120.277 54.343 120.612 50.7378C121.92 52.7939 124.865 51.5435 125.194 48.1747C125.578 48.7855 126.133 49.1193 126.769 49.1193C127.976 49.1193 129.445 47.8541 129.762 45.5921C131.207 47.376 134.032 46.004 134.032 42.3715C134.032 42.2452 134.023 42.1344 133.897 42.0611L133.9 42.0619ZM122.785 36.2212L133.231 42.3013L129.613 44.4307L119.168 38.3506L122.785 36.2212ZM116.024 52.4288L105.578 46.3487L109.416 44.0899L119.862 50.17L116.024 52.4288ZM116.369 52.8547L120.086 50.6676C119.821 53.6589 117.328 54.722 116.369 52.8547ZM120.398 49.8541L109.953 43.774L114.032 41.3731L124.478 47.4532L120.398 49.8541ZM120.915 50.1793L124.681 47.9626C124.468 51.0794 121.858 52.1808 120.915 50.1793ZM125.014 47.1373L114.569 41.0572L118.631 38.6665L129.077 44.7466L125.014 47.1373ZM125.454 47.5078L129.268 45.263C128.985 48.3182 126.345 49.6778 125.454 47.5078ZM131.584 45.7973C130.917 45.9377 130.313 45.5929 129.929 44.8738L133.488 42.7787C133.368 44.6031 132.446 45.6194 131.584 45.7973Z" fill="black"/>
<path d="M110.542 76.24V49.7528C110.542 49.3916 111.074 49.3916 111.074 49.7528V76.24C111.074 76.6012 110.542 76.6012 110.542 76.24Z" fill="black"/>
<path d="M126.861 67.6615V48.837C126.861 48.4759 127.393 48.4759 127.393 48.837V67.6615C127.393 68.0227 126.861 68.0227 126.861 67.6615Z" fill="black"/>
<path d="M84.5735 81.2928C85.8032 81.2928 86.8003 80.7016 86.8003 79.9731C86.8003 79.2446 85.8032 78.6533 84.5735 78.6533C83.3438 78.6533 82.3467 79.2446 82.3467 79.9731C82.3467 80.7016 83.3438 81.2928 84.5735 81.2928Z" fill="white"/>
<path d="M87.0659 79.9721C87.0659 79.5181 86.7862 79.1032 86.2801 78.8036C84.7388 77.8887 82.0811 78.5338 82.0811 79.9721V80.1897C82.0811 81.2661 83.4985 81.784 84.5731 81.784C85.6477 81.784 87.0644 81.2669 87.0659 80.1897V79.9721ZM86.5339 79.9721C86.5339 80.9151 84.3322 81.3784 83.1314 80.6694C82.4398 80.2583 82.4398 79.6866 83.1314 79.2755C84.3869 78.533 86.5339 79.0805 86.5339 79.9729V79.9721Z" fill="black"/>
<path d="M84.5735 75.2493C87.6135 75.2493 90.0782 73.7889 90.0782 71.9873C90.0782 70.1857 87.6135 68.7253 84.5735 68.7253C81.5335 68.7253 79.0688 70.1857 79.0688 71.9873C79.0688 73.7889 81.5335 75.2493 84.5735 75.2493Z" fill="white"/>
<path d="M90.3431 71.9865C90.3431 68.7627 84.0716 67.3541 80.5467 69.4445C79.4219 70.1106 78.8018 71.0138 78.8018 71.9865V72.5231C78.8018 73.4958 79.4212 74.399 80.5475 75.0659C81.518 75.6416 82.7553 75.9653 84.0252 76.037V79.54C84.0252 79.8497 84.27 80.1016 84.5724 80.1016C84.8749 80.1016 85.1196 79.8504 85.1196 79.54V76.0362C86.3904 75.9645 87.6276 75.64 88.5982 75.0651C89.723 74.399 90.3431 73.495 90.3431 72.5223V71.9865ZM88.3322 74.0574C85.0748 75.9871 79.3315 74.651 79.3338 71.9865C79.3338 69.3485 85.0254 67.9593 88.3322 69.9171C90.3028 71.0848 90.3059 72.8866 88.3322 74.0582V74.0574Z" fill="black"/>
<path d="M119.468 72.598C120.698 72.598 121.695 72.0072 121.695 71.2783C121.695 70.5493 120.698 69.9585 119.468 69.9585C118.239 69.9585 117.242 70.5493 117.242 71.2783C117.242 72.0072 118.239 72.598 119.468 72.598Z" fill="white"/>
<path d="M121.961 71.2773C121.961 70.8233 121.682 70.4083 121.176 70.1088C119.634 69.1939 116.977 69.8389 116.977 71.2773V71.4949C116.977 72.5713 118.394 73.0892 119.469 73.0892C120.543 73.0892 121.96 72.5721 121.961 71.4949V71.2773ZM121.429 71.2773C121.429 72.2203 119.228 72.6836 118.027 71.9746C117.335 71.5635 117.335 70.9918 118.027 70.5807C119.282 69.8382 121.429 70.3849 121.429 71.2773Z" fill="black"/>
<path d="M119.469 66.5544C122.509 66.5544 124.973 65.094 124.973 63.2925C124.973 61.4909 122.509 60.0305 119.469 60.0305C116.429 60.0305 113.964 61.4909 113.964 63.2925C113.964 65.094 116.429 66.5544 119.469 66.5544Z" fill="white"/>
<path d="M125.239 63.2917C125.239 60.0679 118.968 58.6592 115.443 60.7496C114.318 61.4158 113.698 62.319 113.698 63.2917V63.8283C113.698 64.801 114.317 65.7042 115.443 66.3711C116.414 66.9467 117.651 67.2704 118.921 67.3422V70.8452C118.921 71.1548 119.166 71.4068 119.468 71.4068C119.771 71.4068 120.016 71.1556 120.016 70.8452V67.3414C121.286 67.2697 122.524 66.9452 123.494 66.3703C124.619 65.7042 125.239 64.8002 125.239 63.8275V63.2917ZM123.228 65.3626C119.971 67.2923 114.227 65.9561 114.23 63.2917C114.23 60.6537 119.921 59.2645 123.228 61.2223C125.199 62.39 125.202 64.191 123.228 65.3626Z" fill="black"/>
<path d="M81.165 67.6965L81.6264 71.3407C81.6264 71.5092 81.735 71.6784 81.9524 71.8071C82.6364 72.212 83.8532 71.9358 83.8532 71.3407L84.3145 67.6965H81.165Z" fill="#81F8F8"/>
<path d="M82.7398 68.6294C83.6092 68.6294 84.3145 68.2117 84.3145 67.6966C84.3145 67.1814 83.6092 66.7637 82.7398 66.7637C81.8703 66.7637 81.165 67.1814 81.165 67.6966C81.165 68.2117 81.8703 68.6294 82.7398 68.6294Z" fill="white"/>
<path d="M83.9851 66.8003C83.2882 66.3869 82.193 66.3862 81.4931 66.8003C80.9846 67.1014 80.8364 67.5249 80.9223 67.8923L81.3608 71.3399C81.3608 71.6137 81.528 71.8695 81.8199 72.0419C82.0889 72.2018 82.4096 72.2697 82.7228 72.2697C83.0807 72.2697 83.4265 72.1808 83.6705 72.0365C83.9593 71.8649 84.1181 71.6176 84.1158 71.3743L84.5574 67.8908C84.6425 67.5249 84.4958 67.0998 83.9859 66.7988L83.9851 66.8003ZM82.7387 67.0374C83.2213 67.0374 84.0474 67.2597 84.0474 67.6965C84.0474 68.5374 81.4308 68.5787 81.4308 67.6965C81.4308 67.2519 82.2668 67.0374 82.7387 67.0374ZM83.5861 71.3407C83.5861 71.4421 83.4721 71.524 83.4037 71.5646C83.0822 71.7557 82.4758 71.8017 82.0851 71.5708C81.9658 71.4998 81.8913 71.4117 81.889 71.3056L81.5501 68.6248C81.8906 68.8104 82.3146 68.9032 82.7387 68.9032C83.1628 68.9032 83.5884 68.8104 83.9281 68.624L83.5861 71.3407Z" fill="black"/>
<path d="M82.4452 70.6192L83.0615 65.9221C83.1322 65.3823 83.5859 64.9744 84.1172 64.9744H85.717C86.0689 64.9744 86.0689 65.5196 85.717 65.5196H84.1172C83.8512 65.5196 83.6247 65.7239 83.589 65.9946L82.9726 70.6918C82.9255 71.0552 82.3981 70.9741 82.4459 70.6184L82.4452 70.6192Z" fill="black"/>
<path d="M77.0845 76.5521L75.1359 70.4072L69.5947 73.691L71.5434 79.8351L83.3857 86.8527L88.9268 83.5689L77.0845 76.5521Z" fill="white"/>
<path d="M89.0587 83.3333L77.306 76.3686L75.3893 70.3229C75.3369 70.1598 75.1507 70.0818 75.0032 70.1715L69.4613 73.4546C69.3519 73.5185 69.3025 73.6527 69.3412 73.7751L71.2192 79.6977V83.0213C71.2192 83.2794 71.4236 83.4893 71.6752 83.4893C71.9267 83.4893 72.1312 83.2794 72.1312 83.0213V80.4987L82.93 86.8979V90.2347C82.93 90.4929 83.1345 90.7027 83.386 90.7027C83.6376 90.7027 83.842 90.4929 83.842 90.2347V86.8986L88.2713 84.2739V87.1997C88.2713 87.4579 88.4757 87.6677 88.7273 87.6677C88.9789 87.6677 89.1833 87.4579 89.1833 87.1997L89.1803 83.6531C89.2205 83.5236 89.1643 83.3949 89.0609 83.334L89.0587 83.3333ZM71.6934 79.4301L69.9135 73.8165L74.9842 70.8127L76.7641 76.4264L71.6934 79.4301ZM72.0749 79.8357L77.0841 76.8678L88.3937 83.5696L83.3845 86.5375L72.0749 79.8357Z" fill="black"/>
<path d="M130.009 69.3609L131.957 63.2161L137.499 66.4991L135.55 72.6439L123.708 79.6608L118.167 76.3778L130.009 69.3609Z" fill="white"/>
<path d="M117.914 76.4613L117.911 80.0079C117.911 80.2661 118.116 80.4759 118.367 80.4759C118.619 80.4759 118.823 80.2661 118.823 80.0079V77.0821L123.252 79.7068V83.0429C123.252 83.3011 123.457 83.5109 123.708 83.5109C123.96 83.5109 124.164 83.3011 124.164 83.0429V79.7061L134.963 73.3069V75.8295C134.963 76.0876 135.168 76.2975 135.419 76.2975C135.671 76.2975 135.875 76.0876 135.875 75.8295V72.5059L137.753 66.5833C137.792 66.4609 137.742 66.3267 137.633 66.2628L132.091 62.9797C131.944 62.89 131.758 62.9688 131.705 63.1311L129.788 69.1768L118.036 76.1415C117.932 76.2031 117.876 76.3318 117.916 76.4605L117.914 76.4613ZM130.328 69.2353L132.108 63.6217L137.179 66.6255L135.399 72.2391L130.328 69.2353ZM123.708 79.3457L118.698 76.3778L130.008 69.676L135.017 72.6439L123.708 79.3457Z" fill="black"/>
<path d="M143.168 65.7706C143.168 65.6169 143.115 65.542 143.035 65.4952C142.949 65.4438 142.925 65.613 123.025 53.6751C122.724 53.4942 122.453 53.9661 122.759 54.147L142.339 65.7495L72.326 107.235L32.2246 83.4727C31.9259 83.2894 31.6508 83.7628 31.9586 83.9446L72.06 107.706V117.195C72.06 117.556 72.5912 117.556 72.5912 117.195V107.707L142.636 66.2043V75.3771C142.636 75.7382 143.167 75.7382 143.167 75.3771L143.168 65.7706Z" fill="black"/>
<path d="M35.861 56.5565C36.0487 56.3397 36.7783 54.5082 36.6203 53.5683C36.5937 53.4084 35.4954 54.5277 35.4354 54.5808C35.75 53.7158 36.0312 52.4615 35.8739 51.818C35.6756 51.8851 35.2332 52.1792 35.1816 52.3874C35.2842 51.7252 35.6733 50.3906 35.5068 49.4967C35.3001 49.535 34.9133 49.9468 34.6389 50.1714C34.6123 49.3797 34.5158 48.3665 34.2095 47.6388C33.942 47.8463 33.7649 48.1715 33.7315 48.5139C33.5954 47.1489 32.9966 45.8378 32.061 44.8573L31.8406 47.3135C31.6354 46.3097 31.0935 45.3386 30.6603 44.415C30.0386 45.5967 29.971 46.9563 30.0683 48.2955C29.6936 47.5397 29.0316 46.9875 28.6577 46.2317C28.1364 47.7402 28.1637 49.1387 28.1812 50.7393L27.2844 49.7456C27.0564 50.953 27.0784 52.2096 27.3467 53.4084L26.4362 52.2923C26.2386 53.7945 26.7471 54.5402 27.0746 55.6236C26.7456 55.3717 26.551 55.3701 26.0874 54.8686C25.8906 55.3218 25.9377 56.5043 26.5624 57.9239C26.174 57.7819 25.8161 57.6493 25.2529 57.6797C26.7311 60.8637 30.4255 61.6351 32.0207 61.4705C36.149 61.0439 36.9083 58.1766 37.3035 55.5285C36.776 55.6002 36.7023 55.7843 35.8618 56.5573L35.861 56.5565Z" fill="black"/>
<path d="M47.7004 49.9388C47.8881 49.722 48.6177 47.8906 48.4596 46.9507C48.433 46.7908 47.3348 47.9101 47.2748 47.9631C47.5894 47.0981 47.8706 45.8438 47.7133 45.2003C47.5149 45.2674 47.0726 45.5615 47.0209 45.7697C47.1235 45.1075 47.5126 43.7729 47.3462 42.8791C47.1395 42.9173 46.7526 43.3291 46.4783 43.5538C46.4517 42.7621 46.3552 41.7488 46.0489 41.0211C45.7814 41.2286 45.6043 41.5538 45.5708 41.8963C45.4348 40.5313 44.8359 39.2201 43.9004 38.2396L43.68 40.6958C43.4748 39.692 42.9329 38.7209 42.4997 37.7974C41.878 38.9791 41.8104 40.3386 41.9076 41.6779C41.533 40.922 40.871 40.3698 40.4971 39.614C39.9757 41.1225 40.0031 42.521 40.0206 44.1216L39.1238 43.1279C38.8958 44.3353 38.9178 45.5919 39.1861 46.7908L38.2756 45.6746C38.078 47.1769 38.5864 47.9225 38.914 49.006C38.5849 48.754 38.3904 48.7525 37.9268 48.2509C37.7299 48.7041 37.777 49.8866 38.4018 51.3062C38.0134 51.1642 37.6554 51.0316 37.0923 51.062C38.5705 54.246 42.2648 55.0174 43.8601 54.8528C47.9884 54.4262 48.7476 51.5589 49.1428 48.9108C48.6154 48.9826 48.5417 49.1666 47.7011 49.9396L47.7004 49.9388Z" fill="black"/>
<path d="M59.5387 43.3207C59.7264 43.1038 60.4561 41.2724 60.298 40.3325C60.2714 40.1726 59.1732 41.2919 59.1131 41.3449C59.4278 40.4799 59.709 39.2257 59.5517 38.5822C59.3533 38.6493 58.911 38.9433 58.8593 39.1516C58.9619 38.4894 59.351 37.1548 59.1846 36.2609C58.9779 36.2991 58.591 36.711 58.3167 36.9356C58.2901 36.1439 58.1935 35.1307 57.8873 34.4029C57.6197 34.6104 57.4427 34.9357 57.4092 35.2781C57.2732 33.9131 56.6742 32.6019 55.7387 31.6215L55.5183 34.0777C55.3131 33.0738 54.7713 32.1027 54.3381 31.1792C53.7164 32.3609 53.6487 33.7204 53.746 35.0597C53.3713 34.3039 52.7094 33.7516 52.3355 32.9958C51.8141 34.5043 51.8415 35.9029 51.8589 37.5034L50.9621 36.5097C50.7341 37.7172 50.7562 38.9737 51.0245 40.1726L50.114 39.0564C49.9164 40.5587 50.4248 41.3044 50.7524 42.3878C50.4233 42.1359 50.2287 42.1343 49.7651 41.6328C49.5683 42.0859 49.6154 43.2684 50.2401 44.688C49.8518 44.5461 49.4938 44.4135 48.9307 44.4439C50.4089 47.6278 54.1032 48.3993 55.6985 48.2347C59.8268 47.808 60.586 44.9407 60.9812 42.2926C60.4538 42.3644 60.3801 42.5485 59.5395 43.3215L59.5387 43.3207Z" fill="black"/>
</svg>
