<svg width="152" height="158" viewBox="0 0 152 158" fill="none" xmlns="http://www.w3.org/2000/svg">
<path d="M63.0998 58.8775C62.2379 58.1428 61.3138 57.4909 60.3387 56.9299C60.1076 56.8403 59.8976 56.7006 59.7225 56.52C59.5474 56.3395 59.4113 56.1222 59.3232 55.8827C59.3232 55.8827 59.6736 53.563 60.7789 53.0488C61.8842 52.5347 65.7581 50.1443 65.7581 50.1443C65.7581 50.1443 66.2708 50.025 66.19 52.3463C66.1092 54.6675 66.2579 56.411 65.4637 57.3561C64.9512 57.9615 64.4081 58.538 63.8366 59.0831L63.0998 58.8775Z" fill="#81F8F8"/>
<path d="M83.7381 58.6138C84.6002 57.8792 85.5246 57.2273 86.4999 56.6662C86.7309 56.5765 86.9408 56.4366 87.1158 56.2559C87.2908 56.0752 87.4267 55.8578 87.5146 55.6182C87.5146 55.6182 86.521 53.2083 85.4157 52.6933C83.9262 51.8308 82.4793 50.891 81.0805 49.8775C81.0805 49.8775 79.7826 49.1459 79.8868 52.0795C79.9691 54.4015 79.8189 56.1442 80.6131 57.0893C81.3112 57.7992 82.1183 58.3828 83.0012 58.8163L83.7381 58.6138Z" fill="#81F8F8"/>
<path d="M60.085 90.466L60.6482 89.8003C60.6482 89.8003 60.1786 86.771 60.4647 85.9617C60.8964 84.9838 61.3801 84.0317 61.9136 83.1098C61.8203 81.733 61.6608 80.362 61.4357 79.0019C61.2363 78.4241 62.9049 77.6909 63.5753 79.1675C64.2458 80.6441 64.513 84.6389 64.513 84.6389L69.2605 81.9574C69.2605 81.9574 72.6368 78.7883 73.2295 78.7836C73.8222 78.7789 75.5323 78.9532 74.1446 81.8349C74.1446 81.8349 74.8603 83.5619 74.2956 84.1161C74.454 84.2616 74.581 84.4405 74.6679 84.6408C74.7548 84.8412 74.7998 85.0585 74.7998 85.2783C74.7998 85.4981 74.7548 85.7154 74.6679 85.9158C74.581 86.1162 74.454 86.295 74.2956 86.4405C74.5032 86.6819 74.6427 86.9782 74.6988 87.2968C74.7549 87.6153 74.7253 87.9438 74.6134 88.246C74.1861 89.21 70.4896 93.5173 69.2605 93.9765C68.0313 94.4357 66.8384 94.8196 66.8384 94.8196L63.8592 97.6637L60.085 90.466Z" fill="#FFD997"/>
<path d="M73.9038 76.0564C73.9038 76.0564 74.4723 77.8321 75.5037 78.4444C76.4594 79.0557 77.2583 79.8988 77.8321 80.9015C77.9536 81.3246 78.4172 83.7557 79.0303 84.277C79.6433 84.7982 81.3134 86.0511 81.3134 86.0511L82.5455 87.3141L88.0495 84.5831L86.926 82.7564C86.926 82.7564 88.0585 77.9993 88.0495 77.1335C88.0404 76.2676 87.3096 75.2338 87.1231 74.6293C86.9366 74.0249 86.7358 72.3128 86.0895 72.3128H85.4425C85.4425 72.3128 85.6131 71.0638 85.1359 70.6988C84.6676 70.4266 84.1562 70.2437 83.6259 70.1587C83.6259 70.1587 83.4395 69.0142 82.6316 69.0354C82.1368 69.0501 81.6451 69.1217 81.1654 69.2489C81.1654 69.2489 80.5267 66.7228 80.0684 66.3633C79.5105 65.9573 78.8352 65.7633 78.156 65.8138C77.2983 65.8255 74.9804 65.7533 74.6467 66.0548C74.313 66.3562 74.1771 67.4481 75.6426 67.5329C77.108 67.6177 78.156 67.7339 78.156 67.7339L78.6029 69.8487C78.6029 69.8487 78.7909 71.5113 78.7909 71.8214C78.7909 72.1314 78.7796 75.6506 78.948 77.1358C78.959 77.683 79.0528 78.225 79.2258 78.7419C79.2258 78.7419 78.6611 78.1202 78.3349 77.7214C78.0087 77.3226 76.4565 75.4834 75.481 75.3735C74.5055 75.2636 73.9257 75.4441 73.9038 76.0564Z" fill="#FFD997"/>
<path d="M86.2577 42.2599L85.1063 40.3986H82.5899L81.6363 34.7835C79.9957 33.8282 78.2747 33.0305 76.4948 32.4003C74.8194 31.9936 71.431 31.0289 64.6881 34.8448C64.6881 34.8448 64.0524 39.5092 64.2026 40.5823C64.2348 40.9068 64.1815 41.2343 64.0486 41.5298C63.9156 41.8253 63.7078 42.0776 63.4476 42.2599L61.3766 40.3986C61.3766 40.3986 60.6896 42.4561 59.7051 42.5236C59.7051 42.5236 60.6632 45.341 61.4476 46.1919C62.2321 47.0429 63.474 48.1113 64.6881 47.656L66.5635 50.9883C66.5635 50.9883 66.2615 55.8733 65.8613 56.6136C65.2504 57.4896 64.5733 58.3136 63.8364 59.0777C64.278 60.3232 64.6066 61.6088 64.8179 62.9179C65.9098 63.1584 67.0239 63.2721 68.1399 63.257C69.2724 63.1322 73.816 62.0489 75.8817 60.7521C77.7331 59.7357 79.6747 58.9078 81.6793 58.2801C81.1074 57.8958 80.6135 57.3984 80.226 56.8161C79.6665 55.922 79.8825 50.2433 79.8825 50.2433L80.7265 48.8531L81.2769 47.656C81.2769 47.656 81.1916 47.8624 82.1278 47.8671C83.064 47.8718 84.528 46.1652 85.6461 44.4029C86.7643 42.6406 86.2577 42.2599 86.2577 42.2599ZM70.8013 40.3986L69.8266 40.7126C69.2695 40.7805 68.7092 40.817 68.1482 40.8217C67.3094 40.8217 66.383 39.762 66.383 39.762C66.383 39.762 68.4971 38.3867 69.8342 38.9134C71.1713 39.4401 70.8013 40.3986 70.8013 40.3986ZM78.4721 40.8202C77.9112 40.8154 77.3509 40.779 76.7937 40.7111L75.819 40.3971C75.819 40.3971 75.4498 39.437 76.7862 38.9103C78.1225 38.3835 80.2373 39.7589 80.2373 39.7589C80.2373 39.7589 79.3109 40.8202 78.4721 40.8202Z" fill="#FFD997"/>
<path d="M64.0239 32.934L65.6019 29.1236C67.8805 28.3139 70.2441 27.7905 72.6423 27.5646C75.3874 27.457 78.128 27.8791 80.7253 28.8096C81.2608 29.9239 81.7396 31.0666 82.1598 32.233C82.1598 32.233 75.0084 30.1324 72.6423 30.2831C69.2727 30.5037 64.0239 32.934 64.0239 32.934Z" fill="black"/>
<path d="M92.0619 29.6771C91.0049 28.0859 86.1352 22.8735 82.3089 21.4008C84.7498 20.9 86.5874 18.5191 82.5505 18.2742C81.0057 18.18 74.5663 19.4587 73.8128 21.4927C72.9688 21.8357 72.7309 21.6763 72.666 21.5861L72.6418 21.539C72.6418 21.539 69.1817 18.994 66.6992 19.8355C64.2168 20.677 56.2953 26.9178 54.4584 29.6771C52.6215 32.4363 54.275 33.3619 55.1553 33.3454C55.9902 33.1575 56.774 32.7774 57.449 32.233L56.6305 33.6853C54.0107 39.6513 56.2991 42.3203 56.885 42.6123C57.4709 42.9043 58.7113 42.2598 58.7113 42.2598C58.6777 42.8906 58.7928 43.5204 59.0466 44.0944C59.4468 45.002 60.1716 45.7116 61.0669 46.0726C60.6894 45.9525 59.7079 42.5236 59.7079 42.5236L60.6253 41.8579C61.5418 41.1914 61.3803 39.1614 61.3803 39.1614C61.3803 39.1614 62.5248 40.3193 63.1032 40.3986C63.6815 40.4779 63.7072 36.7672 63.84 34.0919C63.9729 31.4166 67.0631 26.8888 67.0631 26.8888L71.9457 25.767H73.4323L79.8627 27.4155C79.8627 27.4155 82.5512 31.4135 82.6871 34.088C82.823 36.7625 82.8457 40.474 83.424 40.3947C84.0023 40.3154 85.1469 39.1575 85.1469 39.1575C85.1469 39.1575 85.1393 41.0023 85.9019 41.854C86.0023 41.9507 86.0832 42.0672 86.1398 42.1967C86.1965 42.3262 86.2278 42.4662 86.2318 42.6084C86.2318 42.6084 85.1303 46.0687 84.7498 46.188C84.7498 46.188 87.0284 45.4524 87.4783 44.0905C87.7315 43.5163 87.8466 42.8866 87.8136 42.2559C87.8136 42.2559 89.0533 42.9043 89.6391 42.6084C90.225 42.3124 92.5134 39.6505 89.8936 33.6814L89.0752 32.2291C89.7486 32.7738 90.5308 33.1549 91.3643 33.3446C92.2447 33.3619 93.8943 32.4356 92.0619 29.6771Z" fill="#81F8F8"/>
<path d="M63.5752 79.1674L63.7609 71.0725L73.1124 71.3033L73.2294 78.7836C73.2294 78.7836 69.7866 81.9181 68.8549 82.2972C67.9232 82.6764 64.5129 84.6389 64.5129 84.6389C64.5129 84.6389 64.115 79.8355 63.5752 79.1674Z" fill="#81F8F8"/>
<path d="M66.3833 39.7486C67.0478 39.158 67.8733 38.7982 68.7442 38.7195C69.3751 38.7291 69.9933 38.9058 70.5403 39.2329" stroke="black" stroke-width="0.980065" stroke-linecap="round" stroke-linejoin="round"/>
<path d="M70.0219 40.266C70.0239 40.1015 69.9905 39.9387 69.9242 39.7893C69.858 39.64 69.7604 39.5079 69.6388 39.4028C69.5171 39.2977 69.3744 39.2221 69.2211 39.1817C69.0678 39.1412 68.9077 39.1368 68.7525 39.1689C68.5974 39.201 68.4511 39.2687 68.3243 39.3671C68.1975 39.4655 68.0935 39.5921 68.0198 39.7376C67.9461 39.8831 67.9046 40.0439 67.8983 40.2083C67.892 40.3726 67.9211 40.5364 67.9834 40.6875C68.0108 40.7511 68.0564 40.8043 68.114 40.8398C68.1716 40.8754 68.2383 40.8915 68.3051 40.8861L69.6943 40.7904C69.7602 40.7868 69.8235 40.7624 69.8756 40.7203C69.9277 40.6781 69.9662 40.6204 69.9857 40.5549C70.0107 40.4608 70.0229 40.3635 70.0219 40.266Z" fill="black"/>
<path d="M80.1333 39.7486C79.469 39.1582 78.6438 38.7984 77.7732 38.7195C77.1422 38.7289 76.524 38.9056 75.9771 39.2329" stroke="black" stroke-width="0.980065" stroke-linecap="round" stroke-linejoin="round"/>
<path d="M76.4951 40.266C76.4945 40.0994 76.5302 39.9348 76.5995 39.7846C76.6687 39.6343 76.7698 39.5023 76.8951 39.3985C77.0203 39.2946 77.1666 39.2215 77.3229 39.1847C77.4791 39.1479 77.6414 39.1484 77.7975 39.186C77.9536 39.2237 78.0994 39.2976 78.2242 39.4021C78.3489 39.5067 78.4493 39.6393 78.5178 39.7899C78.5863 39.9405 78.6211 40.1053 78.6196 40.2719C78.6182 40.4385 78.5805 40.6026 78.5095 40.7519C78.489 40.7956 78.4566 40.832 78.4163 40.8566C78.376 40.8811 78.3296 40.8928 78.283 40.89L76.7609 40.7864C76.715 40.7829 76.6711 40.7655 76.6346 40.7364C76.5981 40.7072 76.5706 40.6676 76.5555 40.6224C76.5157 40.5081 76.4953 40.3875 76.4951 40.266Z" fill="black"/>
<path d="M71.6151 37.0616C72.1693 37.9543 72.4684 38.9923 72.4773 40.0549C72.3956 41.0863 72.0855 42.0842 71.5713 42.9703C71.2565 43.7169 70.7408 44.6738 72.0432 45.111" stroke="black" stroke-width="0.980065" stroke-linecap="round" stroke-linejoin="round"/>
<path d="M74.1309 45.111C74.1309 45.111 75.6409 45.111 74.9266 43.698" stroke="black" stroke-width="0.980065" stroke-linecap="round" stroke-linejoin="round"/>
<path d="M68.96 46.7445C69.7497 47.1838 70.6009 47.4914 71.4824 47.6559H72.6421" stroke="black" stroke-width="0.980065" stroke-linecap="round" stroke-linejoin="round"/>
<path d="M77.721 46.7445C76.9315 47.1837 76.0806 47.4913 75.1993 47.6559H74.0381" stroke="black" stroke-width="0.980065" stroke-linecap="round" stroke-linejoin="round"/>
<path d="M72.2148 48.7731C72.661 49.0052 73.1507 49.1325 73.6493 49.1459" stroke="black" stroke-width="0.980065" stroke-linecap="round" stroke-linejoin="round"/>
<path d="M81.678 45.4132C81.678 45.4132 81.2944 49.7511 78.6089 51.3996C75.9233 53.0481 74.5213 54.3826 72.9313 54.3826C71.3413 54.3826 69.9581 53.0481 67.2688 51.3996C64.5795 49.7511 64.1997 45.4163 64.1997 45.4163" stroke="black" stroke-width="0.980065" stroke-linecap="round" stroke-linejoin="round"/>
<path d="M66.1294 50.402C66.1294 50.402 66.4314 55.2336 65.7187 56.8664C65.2502 57.8712 64.4395 58.6593 63.4438 59.0778" stroke="black" stroke-width="0.980065" stroke-linecap="round" stroke-linejoin="round"/>
<path d="M79.8448 50.402C79.8448 50.402 79.5428 55.2337 80.2555 56.8665C80.9682 58.4993 83.2914 58.814 83.2914 58.814" stroke="black" stroke-width="0.980065" stroke-linecap="round" stroke-linejoin="round"/>
<path d="M65.6796 37.1126C66.2707 36.6775 66.9456 36.3809 67.6577 36.2433C68.3698 36.1058 69.1021 36.1305 69.8041 36.3158C69.9861 36.3786 70.2783 36.461 70.2035 36.9964C70.1288 37.5318 70.1016 37.5718 69.4168 37.5969C68.693 37.4991 67.9583 37.5344 67.2462 37.7013C66.0254 38.2194 64.9585 37.6236 65.6796 37.1126Z" fill="black"/>
<path d="M70.809 36.7562L70.6255 37.4823" stroke="black" stroke-width="0.980065" stroke-linecap="round" stroke-linejoin="round"/>
<path d="M80.2183 37.1126C79.6271 36.6776 78.9522 36.381 78.2402 36.2435C77.5281 36.1059 76.7958 36.1306 76.0937 36.3159C75.9118 36.3787 75.6189 36.4611 75.6936 36.9965C75.7683 37.5318 75.7955 37.5719 76.4811 37.597C77.2049 37.4992 77.9396 37.5345 78.6517 37.7014C79.8718 38.2195 80.9386 37.6237 80.2183 37.1126Z" fill="black"/>
<path d="M75.0889 36.7562L75.2716 37.4823" stroke="black" stroke-width="0.980065" stroke-linecap="round" stroke-linejoin="round"/>
<path d="M63.6758 35.5104C63.6758 35.5104 68.7063 31.8343 73.3964 31.861C77.5648 31.8845 82.806 35.5104 82.806 35.5104" stroke="black" stroke-width="0.980065" stroke-linecap="round" stroke-linejoin="round"/>
<path d="M66.6997 27.3214C68.4897 26.4493 70.4174 25.9232 72.3886 25.7686C75.0968 25.7113 79.8586 27.4171 79.8586 27.4171" stroke="black" stroke-width="0.980065" stroke-linecap="round" stroke-linejoin="round"/>
<path d="M64.6881 47.656C64.6881 47.656 63.6114 48.5195 61.9293 46.7446C60.2472 44.9697 59.7051 43.2569 59.7051 42.5237" stroke="black" stroke-width="0.980065" stroke-linecap="round" stroke-linejoin="round"/>
<path d="M62.2656 46.1919C62.2656 46.2993 62.286 46.4055 62.3255 46.5047C62.3649 46.6038 62.4228 46.6939 62.4958 46.7698C62.5688 46.8457 62.6554 46.9059 62.7508 46.9469C62.8462 46.988 62.9484 47.0091 63.0516 47.0091C63.1548 47.0091 63.257 46.988 63.3523 46.9469C63.4477 46.9059 63.5344 46.8457 63.6073 46.7698C63.6803 46.6939 63.7382 46.6038 63.7777 46.5047C63.8172 46.4055 63.8375 46.2993 63.8375 46.1919C63.8375 46.0846 63.8172 45.9784 63.7777 45.8792C63.7382 45.7801 63.6803 45.69 63.6073 45.6141C63.5344 45.5382 63.4477 45.478 63.3523 45.437C63.257 45.3959 63.1548 45.3748 63.0516 45.3748C62.9484 45.3748 62.8462 45.3959 62.7508 45.437C62.6554 45.478 62.5688 45.5382 62.4958 45.6141C62.4228 45.69 62.3649 45.7801 62.3255 45.8792C62.286 45.9784 62.2656 46.0846 62.2656 46.1919Z" fill="black"/>
<path d="M81.2754 47.6559C81.2754 47.6559 82.352 48.5194 84.0334 46.7445C85.2447 45.5568 86.0294 43.9745 86.2576 42.2598" stroke="black" stroke-width="0.980065" stroke-linecap="round" stroke-linejoin="round"/>
<path d="M82.1265 46.1919C82.1265 46.4087 82.2093 46.6165 82.3567 46.7698C82.5041 46.923 82.704 47.0091 82.9124 47.0091C83.1209 47.0091 83.3208 46.923 83.4682 46.7698C83.6156 46.6165 83.6984 46.4087 83.6984 46.1919C83.6984 45.9752 83.6156 45.7674 83.4682 45.6141C83.3208 45.4609 83.1209 45.3748 82.9124 45.3748C82.704 45.3748 82.5041 45.4609 82.3567 45.6141C82.2093 45.7674 82.1265 45.9752 82.1265 46.1919Z" fill="black"/>
<path d="M67.3232 53.8409C67.3232 53.8409 69.2938 57.5846 70.2866 59.0777" stroke="black" stroke-width="0.980065" stroke-linecap="round" stroke-linejoin="round"/>
<path d="M66.1035 55.3692L71.3764 53.9782L66.145 50.7275L66.1035 55.3692Z" fill="black"/>
<path d="M61.4474 46.1919C58.4018 45.4022 58.7204 42.0126 58.7204 42.0126C58.7204 42.0126 55.7396 44.4029 55.4935 39.8357C55.2669 36.9824 56.0617 34.1425 57.7253 31.8609C54.919 34.8314 52.4056 32.8767 54.0771 30.2321C56.1239 26.9924 63.0571 21.3616 66.1911 20.0192C69.3251 18.6769 72.3882 21.4204 72.3882 21.4204C72.3882 21.4204 73.227 21.9589 73.7185 21.2838C75.2715 19.1549 80.9415 18.1878 83.4444 18.2796C85.9472 18.3715 85.1212 20.7131 83.2073 21.0821C81.2934 21.451 76.7717 22.0005 76.7717 22.0005" stroke="black" stroke-width="0.980065" stroke-linecap="round" stroke-linejoin="round"/>
<path d="M60.7431 27.3212C58.8441 30.5033 57.7949 34.1539 57.7035 37.8975C57.5525 44.3997 61.9956 43.4279 61.3765 37.8975C61.0149 34.6657 62.7001 28.6777 64.4343 26.2795" stroke="black" stroke-width="0.980065" stroke-linecap="round" stroke-linejoin="round"/>
<path d="M67.3614 26.0292C67.3614 26.0292 63.1024 32.2723 63.6754 37.0616C64.2485 41.8508 61.5501 40.8908 61.3765 37.8976" stroke="black" stroke-width="0.980065" stroke-linecap="round" stroke-linejoin="round"/>
<path d="M64.78 34.7834C64.78 34.7834 64.0763 39.8231 64.7339 41.0234C64.7879 41.1179 64.818 41.2249 64.8215 41.3347C64.8251 41.4445 64.802 41.5534 64.7543 41.6514L64.2258 42.697C64.181 42.7856 64.1168 42.862 64.0383 42.92C63.9598 42.9779 63.8693 43.0159 63.7741 43.0307C63.6789 43.0455 63.5816 43.0368 63.4903 43.0053C63.3989 42.9738 63.3159 42.9204 63.2481 42.8493L61.3765 40.8868L61.7102 39.5421L62.521 40.3193L63.4029 40.0241L63.7283 38.1197L63.6754 35.5104L64.78 34.7834Z" fill="black"/>
<path d="M81.291 34.5692C81.291 34.5692 82.4235 39.8232 81.7659 41.0235C81.712 41.1179 81.6819 41.225 81.6783 41.3348C81.6747 41.4445 81.6979 41.5535 81.7455 41.6515L82.274 42.6971C82.3187 42.7864 82.3831 42.8634 82.4619 42.9219C82.5407 42.9803 82.6317 43.0186 82.7274 43.0334C82.8232 43.0483 82.9209 43.0393 83.0127 43.0074C83.1045 42.9754 83.1877 42.9212 83.2555 42.8494L85.1264 40.8869L84.7935 39.5422L83.9826 40.3193C83.9826 40.3193 83.2434 40.2141 83.1008 40.0242C82.4311 39.1324 82.8086 35.5104 82.8086 35.5104L81.291 34.5692Z" fill="black"/>
<path d="M65.1918 41.8579L64.3696 43.3667" stroke="black" stroke-width="0.980065" stroke-linecap="round" stroke-linejoin="round"/>
<path d="M65.7581 43.0394L65.1919 43.9602" stroke="black" stroke-width="0.980065" stroke-linecap="round" stroke-linejoin="round"/>
<path d="M82.1167 21.3396C85.2507 22.6819 90.3613 26.9916 92.4089 30.2321C94.0797 32.8767 91.567 34.8314 88.7607 31.861C90.4236 34.1428 91.218 36.9825 90.9917 39.8358C90.7463 44.4029 87.7649 42.0126 87.7649 42.0126C87.7649 42.0126 88.0835 45.4022 85.0378 46.1919" stroke="black" stroke-width="0.980065" stroke-linecap="round" stroke-linejoin="round"/>
<path d="M85.7405 27.3212C87.6392 30.5033 88.6882 34.154 88.7794 37.8975C88.9304 44.3997 84.4872 43.4279 85.1063 37.8975C85.468 34.6657 83.7828 28.6777 82.0493 26.2795" stroke="black" stroke-width="0.980065" stroke-linecap="round" stroke-linejoin="round"/>
<path d="M79.1211 26.0292C79.1211 26.0292 83.3801 32.2723 82.807 37.0616C82.234 41.8508 84.9331 40.8908 85.106 37.9007" stroke="black" stroke-width="0.980065" stroke-linecap="round" stroke-linejoin="round"/>
<path d="M81.291 41.8579L82.114 43.3667" stroke="black" stroke-width="0.980065" stroke-linecap="round" stroke-linejoin="round"/>
<path d="M80.7251 43.0394L81.2913 43.9602" stroke="black" stroke-width="0.980065" stroke-linecap="round" stroke-linejoin="round"/>
<path d="M59.0246 51.566C58.5594 52.2384 58.3091 53.0457 58.3091 53.8739C58.3091 54.7022 58.5594 55.5095 59.0246 56.1818C59.68 57.1937 63.7275 56.8648 64.6871 62.8434C65.6467 68.8219 65.4421 71.0513 65.4421 71.0513" stroke="black" stroke-width="0.980065" stroke-linecap="round" stroke-linejoin="round"/>
<path d="M59.288 56.3499C59.288 56.3499 58.798 55.6748 60.0536 53.8379C61.3091 52.001 65.7576 50.1437 65.7576 50.1437" stroke="black" stroke-width="0.980065" stroke-linecap="round" stroke-linejoin="round"/>
<path d="M63.0995 47.656C63.0995 47.656 57.2512 50.2347 56.2139 52.2687C54.8858 54.8717 53.8281 58.1624 57.1115 60.8079C57.6484 61.2412 58.0931 61.8802 57.0527 61.8111C56.0123 61.742 55.3471 60.3848 54.9787 61.2546C54.6102 62.1243 57.3192 62.5757 56.8518 63.0279C56.3845 63.48 54.9787 62.2633 54.7446 63.0279" stroke="black" stroke-width="0.980065" stroke-linecap="round" stroke-linejoin="round"/>
<path d="M87.6152 51.566C88.0806 52.2383 88.331 53.0457 88.331 53.8739C88.331 54.7022 88.0806 55.5096 87.6152 56.1818C86.9599 57.1937 82.9123 56.8648 81.9527 62.8434C80.9931 68.8219 81.1683 69.2458 81.1683 69.2458" stroke="black" stroke-width="0.980065" stroke-linecap="round" stroke-linejoin="round"/>
<path d="M87.0993 56.6136C87.0993 56.6136 87.8437 55.6716 86.5874 53.841C85.331 52.0104 80.376 49.8776 80.376 49.8776" stroke="black" stroke-width="0.980065" stroke-linecap="round" stroke-linejoin="round"/>
<path d="M83.5405 47.656C83.5405 47.656 89.3888 50.2347 90.4261 52.2687C91.7542 54.8717 92.8119 58.1624 89.5292 60.8079C88.9916 61.2412 88.5477 61.8802 89.5873 61.8111C90.627 61.742 91.2936 60.3848 91.6613 61.2546C92.029 62.1243 89.3208 62.5757 89.7881 63.0279C90.2555 63.48 91.6613 62.2633 91.8954 63.0279" stroke="black" stroke-width="0.980065" stroke-linecap="round" stroke-linejoin="round"/>
<path d="M81.5366 58.2047C81.5366 58.2047 72.9296 62.6133 69.2723 63.1322C65.7238 63.6346 64.688 62.8433 64.688 62.8433" stroke="black" stroke-width="0.980065" stroke-linecap="round" stroke-linejoin="round"/>
<path d="M82.4189 58.5941C82.4189 58.5941 75.1331 62.7546 72.3857 63.6707C70.0468 64.3404 67.6061 64.5376 65.1958 64.2516" stroke="black" stroke-width="0.980065" stroke-linecap="round" stroke-linejoin="round"/>
<path d="M55.1259 58.5941C55.1259 58.5941 54.1202 61.9971 51.6695 63.1322C49.2188 64.2673 48.4487 63.5396 48.3792 64.3764C48.3097 65.2132 49.2188 87.2702 50.759 90.4L52.2999 93.5305" stroke="black" stroke-width="0.980065" stroke-linecap="round" stroke-linejoin="round"/>
<path d="M48.3787 64.8552C48.3787 64.8552 46.6724 64.626 46.2315 65.6567C45.7906 66.6874 39.512 82.8325 38.523 84.149C37.5339 85.4654 33.238 86.8965 35.2765 90.0459C34.7675 90.2276 34.3301 90.5782 34.0316 91.0437C33.7331 91.5092 33.5901 92.0639 33.6245 92.6222C33.7574 94.1828 29.0636 98.8143 28.5577 105.648C28.2217 110.189 27.7876 111.916 29.9356 113.232C32.0836 114.549 37.0386 116.038 39.3512 115.408C41.6638 114.779 43.5362 110.599 45.7385 110.713" stroke="black" stroke-width="0.980065" stroke-linecap="round" stroke-linejoin="round"/>
<path d="M66.4808 121.553C66.6695 119.152 66.0791 116.389 66.1033 114.095C66.1471 110.096 66.517 95.1312 66.517 95.1312" stroke="black" stroke-width="0.980065" stroke-linecap="round" stroke-linejoin="round"/>
<path d="M42.6975 115.361C42.6975 115.361 41.0841 123.253 43.938 125.059C46.7919 126.866 49.1475 128.414 49.1475 128.414C49.1475 128.414 48.0308 130.477 49.1475 131.123C50.2641 131.768 60.52 128.414 64.2014 125.962" stroke="black" stroke-width="0.980065" stroke-linecap="round" stroke-linejoin="round"/>
<path d="M91.436 58.5941C91.436 58.5941 92.6954 61.9971 95.1461 63.1322C97.5968 64.2673 98.3662 63.5396 98.4364 64.3764C98.5066 65.2132 97.5961 86.4781 96.0559 89.6087" stroke="black" stroke-width="0.980065" stroke-linecap="round" stroke-linejoin="round"/>
<path d="M98.437 64.8552C98.437 64.8552 100.144 64.626 100.584 65.6567C101.024 66.6874 107.304 82.8325 108.294 84.149C109.283 85.4654 113.579 86.8965 111.54 90.0459C112.049 90.2276 112.486 90.5782 112.785 91.0437C113.083 91.5092 113.226 92.0639 113.192 92.6222C113.059 94.1828 117.753 98.8143 118.259 105.648C118.595 110.189 119.029 111.916 116.881 113.232C114.733 114.549 109.778 116.038 107.465 115.408C105.153 114.779 103.28 110.599 101.078 110.713" stroke="black" stroke-width="0.980065" stroke-linecap="round" stroke-linejoin="round"/>
<path d="M104.119 114.569C104.119 114.569 105.732 123.253 102.879 125.059C100.025 126.866 97.6691 128.414 97.6691 128.414C97.6691 128.414 98.7857 130.477 97.6691 131.123C96.5524 131.768 86.2965 128.414 82.6151 125.962C78.9337 123.51 80.7578 118.093 80.714 114.094C80.6702 110.094 80.3003 85.3673 80.3003 85.3673" stroke="black" stroke-width="0.980065" stroke-linecap="round" stroke-linejoin="round"/>
<path d="M65.1914 100.806C65.1914 100.806 64.7286 110.82 64.8139 113.167C64.8993 115.513 65.3341 119.641 64.6841 120.286" stroke="black" stroke-width="0.980065" stroke-linecap="round" stroke-linejoin="round"/>
<path d="M81.9438 100.806C81.9438 100.806 82.4067 110.82 82.3213 113.167C82.236 115.513 81.8012 119.641 82.4512 120.286" stroke="black" stroke-width="0.980065" stroke-linecap="round" stroke-linejoin="round"/>
<path d="M34.769 98.25C37.8011 97.0184 41.0115 96.3284 44.2647 96.209C48.9819 96.209 57.8645 90.7862 59.641 89.6056C59.641 89.6056 63.7935 97.6738 64.6882 99.7117C64.6882 99.7117 58.8445 102.133 57.6191 103.852C56.3938 105.571 52.473 111.71 48.7365 113.163C45.0001 114.616 42.1816 116.428 37.034 115.554" stroke="black" stroke-width="0.980065" stroke-linecap="round" stroke-linejoin="round"/>
<path d="M46.8169 88.8049C46.8169 88.8049 48.5934 93.6397 50.2461 94.6406" stroke="black" stroke-width="0.980065" stroke-linecap="round" stroke-linejoin="round"/>
<path d="M48.1327 95.1296C48.1327 95.1296 43.7092 89.3599 41.9161 89.2688C40.1229 89.1777 38.6877 91.0578 43.4102 93.0941" stroke="black" stroke-width="0.980065" stroke-linecap="round" stroke-linejoin="round"/>
<path d="M40.541 93.9019C40.541 93.9019 45.9136 94.9318 47.5316 95.6289" stroke="black" stroke-width="0.980065" stroke-linecap="round" stroke-linejoin="round"/>
<path d="M81.1763 87.946C81.1763 87.946 91.0668 108.321 94.4326 110.546C97.7983 112.771 106.211 114.736 106.211 114.736" stroke="black" stroke-width="0.980065" stroke-linecap="round" stroke-linejoin="round"/>
<path d="M90.3745 82.4377C90.3745 82.4377 93.8203 88.9289 94.9385 89.2672C96.0566 89.6056 108.83 93.1922 111.068 96.0842" stroke="black" stroke-width="0.980065" stroke-linecap="round" stroke-linejoin="round"/>
<path d="M105.663 92.9089C105.663 92.9089 114.462 93.3799 115.43 101.341C116.159 107.34 112.694 101.272 112.512 100.04" stroke="black" stroke-width="0.980065" stroke-linecap="round" stroke-linejoin="round"/>
<path d="M98.4404 90.3285C98.4404 90.3285 100.932 87.9861 103.121 87.946" stroke="black" stroke-width="0.980065" stroke-linecap="round" stroke-linejoin="round"/>
<path d="M100.361 90.9517C100.361 90.9517 105.989 89.5285 107.424 90.195" stroke="black" stroke-width="0.980065" stroke-linecap="round" stroke-linejoin="round"/>
<path d="M81.7284 86.7019C81.7284 86.7019 80.6246 87.4775 81.1765 87.9461C81.7284 88.4148 91.5109 82.9795 90.3747 82.4378C89.7631 82.1466 87.5857 83.2016 87.5857 83.2016" stroke="black" stroke-width="0.980065" stroke-linecap="round" stroke-linejoin="round"/>
<path d="M60.3724 91.0358L57.0293 92.8444" stroke="black" stroke-width="0.980065" stroke-linecap="round" stroke-linejoin="round"/>
<path d="M61.2943 92.8477C59.8001 93.6498 58.3734 94.5812 57.0293 95.632" stroke="black" stroke-width="0.980065" stroke-linecap="round" stroke-linejoin="round"/>
<path d="M62.1374 95.1296C62.1374 95.1296 59.8672 96.0858 58.7007 96.647" stroke="black" stroke-width="0.980065" stroke-linecap="round" stroke-linejoin="round"/>
<path d="M63.2095 96.6471C61.763 97.5078 60.2557 98.2531 58.7007 98.8765" stroke="black" stroke-width="0.980065" stroke-linecap="round" stroke-linejoin="round"/>
<path d="M64.0318 98.3182L59.8672 100.123" stroke="black" stroke-width="0.980065" stroke-linecap="round" stroke-linejoin="round"/>
<path d="M83.1025 87.6541L85.0406 91.0139" stroke="black" stroke-width="0.980065" stroke-linecap="round" stroke-linejoin="round"/>
<path d="M84.7832 86.588C85.6435 88.0901 86.6239 89.5142 87.7141 90.8451" stroke="black" stroke-width="0.980065" stroke-linecap="round" stroke-linejoin="round"/>
<path d="M86.9258 85.5737C86.9258 85.5737 87.9828 87.8722 88.5868 89.0489" stroke="black" stroke-width="0.980065" stroke-linecap="round" stroke-linejoin="round"/>
<path d="M88.3179 84.6333C89.2452 85.9818 90.0539 87.4145 90.7339 88.9139" stroke="black" stroke-width="0.980065" stroke-linecap="round" stroke-linejoin="round"/>
<path d="M89.8721 83.415L91.857 87.6274" stroke="black" stroke-width="0.980065" stroke-linecap="round" stroke-linejoin="round"/>
<path d="M89.7375 129.227C89.7375 129.227 86.7242 133.318 82.1958 133.726C77.6673 134.133 58.9546 128.591 58.9546 128.591" stroke="black" stroke-width="0.980065" stroke-linecap="round" stroke-linejoin="round"/>
<path d="M61.8154 127.274C61.8154 127.274 65.2794 127.799 66.5176 128.064C67.7558 128.328 73.0929 131.21 75.2272 131.169C77.3616 131.128 85.2385 130.908 81.6304 129.221C79.5374 128.224 77.3092 127.567 75.0241 127.274" stroke="black" stroke-width="0.980065" stroke-linecap="round" stroke-linejoin="round"/>
<path d="M51.1436 130.999C51.1436 130.999 50.8336 136.586 51.1436 138.158" stroke="black" stroke-width="0.980065" stroke-linecap="round" stroke-linejoin="round"/>
<path d="M95.6724 130.999C95.6724 130.999 96.6154 136.023 96.4342 138.158" stroke="black" stroke-width="0.980065" stroke-linecap="round" stroke-linejoin="round"/>
<path d="M60.085 90.4739L60.6572 90.0539C60.6348 89.3456 60.5553 88.6406 60.4194 87.9462C59.9513 85.3557 61.5481 84.1287 61.8849 83.2024C62.2216 82.2761 61.5972 79.5482 61.5972 79.5482C61.5972 79.5482 61.074 78.6062 61.8849 78.209C62.6957 77.8118 63.798 79.005 64.0102 80.3725C64.2224 81.7399 64.5387 84.8854 64.5387 84.8854" stroke="black" stroke-width="0.980065" stroke-linecap="round" stroke-linejoin="round"/>
<path d="M63.7612 97.7617L67.0304 94.6405C67.7179 94.5407 68.3931 94.3639 69.044 94.113C69.8375 93.7597 74.5759 89.0615 74.7065 87.9774C74.8371 86.8933 74.0964 86.6814 74.0964 86.6814C74.0964 86.6814 74.9647 85.8085 74.7216 84.9622C74.4785 84.116 74.2995 84.116 74.2995 84.116C74.4872 83.728 74.563 83.2919 74.5179 82.8602C74.4728 82.4285 74.3086 82.0195 74.0451 81.6825C74.2522 81.4551 74.4094 81.1837 74.506 80.8871C74.6026 80.5904 74.6362 80.2756 74.6045 79.9641C74.4264 79.0386 73.842 78.139 72.3667 79.2498C70.8915 80.3606 69.6668 81.7618 69.0009 82.1323C68.335 82.5028 65.423 83.8876 64.0361 85.3657" stroke="black" stroke-width="0.980065" stroke-linecap="round" stroke-linejoin="round"/>
<path d="M74.041 81.6833L71.332 83.8233" stroke="black" stroke-width="0.980065" stroke-linecap="round" stroke-linejoin="round"/>
<path d="M74.2956 84.116L73.2295 85.1608" stroke="black" stroke-width="0.980065" stroke-linecap="round" stroke-linejoin="round"/>
<path d="M63.7612 79.534V71.0725H73.1127V78.7365" stroke="black" stroke-width="0.980065" stroke-linecap="round" stroke-linejoin="round"/>
<path d="M66.0122 77.4004C66.0122 79.1148 67.5977 79.8425 68.8057 79.841C69.7117 79.841 71.5131 78.7365 71.3327 77.1547C71.2225 76.1891 70.3217 74.4205 68.6728 74.4205C66.8019 74.4205 66.013 76.3838 66.0122 77.4004Z" stroke="black" stroke-width="0.980065" stroke-linecap="round" stroke-linejoin="round"/>
<path d="M86.0897 74.9724L85.4261 76.5055C85.4261 76.5055 86.1629 78.176 85.7575 78.4594C85.3521 78.7428 84.5042 78.9948 83.9229 76.8784" stroke="black" stroke-width="0.980065" stroke-linecap="round" stroke-linejoin="round"/>
<path d="M84.5326 77.4004C84.0518 76.9753 83.6587 76.4535 83.3767 75.8665C83.1177 75.131 84.8157 72.261 85.6651 72.3104C86.5145 72.3599 87.1509 74.5422 87.2219 75.1058C87.2929 75.6695 88.0463 76.3092 88.0463 77.4004C87.7839 79.2081 87.4087 80.9962 86.9229 82.7533L88.0463 84.58" stroke="black" stroke-width="0.980065" stroke-linecap="round" stroke-linejoin="round"/>
<path d="M85.4422 72.3096C85.5187 72.0347 85.5308 71.7447 85.4775 71.4639C85.4241 71.1831 85.3069 70.9197 85.1356 70.6957C84.9252 70.4883 84.6724 70.3329 84.3962 70.241C84.1201 70.1491 83.8275 70.1231 83.5403 70.165C83.5403 70.165 83.0118 68.9427 82.3006 68.9427C80.8752 68.9427 79.1583 72.2625 79.3886 73.0593C79.6189 73.8561 81.1764 74.9723 81.1764 74.9723" stroke="black" stroke-width="0.980065" stroke-linecap="round" stroke-linejoin="round"/>
<path d="M82.8712 70.8025C82.0705 72.0756 81.4966 73.488 81.177 74.9724C81.0879 75.6491 81.7138 75.9678 82.1087 76.2496C82.6532 76.6121 83.2759 76.8279 83.9207 76.8776" stroke="black" stroke-width="0.980065" stroke-linecap="round" stroke-linejoin="round"/>
<path d="M85.5095 79.8409C85.5095 79.8409 84.5764 81.3623 84.7545 82.4377C84.8496 83.0598 85.1112 83.6415 85.5095 84.1161" stroke="black" stroke-width="0.980065" stroke-linecap="round" stroke-linejoin="round"/>
<path d="M81.1685 69.2459C81.1685 69.2459 80.4332 66.1232 79.614 66.0015C78.7948 65.8798 75.759 65.6365 74.7609 66.0015C73.7627 66.3665 74.2324 67.694 75.947 67.7199C77.6616 67.7458 78.6385 67.7199 78.6385 67.7199" stroke="black" stroke-width="0.980065" stroke-linecap="round" stroke-linejoin="round"/>
<path d="M78.0532 67.7275C78.0532 67.7275 79.0302 70.8016 78.7788 71.9571" stroke="black" stroke-width="0.980065" stroke-linecap="round" stroke-linejoin="round"/>
<path d="M78.779 71.958C78.6174 73.5726 78.6512 75.2019 78.8795 76.8077C79.1726 78.066 79.3434 79.3518 79.3891 80.6456" stroke="black" stroke-width="0.980065" stroke-linecap="round" stroke-linejoin="round"/>
<path d="M82.4186 87.3109L81.1592 85.8673C80.4067 85.4027 79.6955 84.8694 79.0339 84.2738C77.8493 83.2242 78.3416 80.8983 77.3163 80.0999C76.2291 79.2025 75.2186 78.2089 74.2963 77.1303C73.456 76.0642 73.9588 74.5649 75.8818 75.5422C77.8048 76.5195 78.5288 78.2779 79.0845 78.4467" stroke="black" stroke-width="0.980065" stroke-linecap="round" stroke-linejoin="round"/>
<path d="M95.6725 130.999L89.7374 129.226C87.6997 131.726 84.8336 133.339 81.7065 133.746C76.5725 134.336 58.9546 128.59 58.9546 128.59L51.1426 130.999V138.158C51.1426 138.158 62.337 139.035 66.3105 138.816C68.4117 138.701 73.249 138.922 78.013 139.138C78.0931 138.25 78.1127 136.862 77.5812 136.16C77.4891 136.034 77.3706 135.931 77.2347 135.86C77.0987 135.788 76.949 135.75 76.7967 135.748C74.6533 135.642 66.574 134.849 66.4932 134.841C66.4267 134.834 66.3655 134.8 66.3231 134.746C66.2807 134.692 66.2604 134.623 66.2667 134.554C66.2692 134.519 66.2785 134.485 66.2939 134.455C66.3093 134.424 66.3306 134.397 66.3564 134.375C66.3823 134.353 66.4121 134.336 66.4442 134.327C66.4763 134.317 66.5099 134.314 66.5431 134.318C66.6239 134.326 74.6918 135.117 76.8231 135.223C77.0482 135.229 77.2691 135.287 77.4697 135.393C77.6704 135.499 77.8457 135.65 77.9828 135.836C78.6155 136.673 78.608 138.191 78.5242 139.164C82.5906 139.349 86.5317 139.522 88.5921 139.473C91.2535 139.427 93.8949 138.985 96.4358 138.16L95.6725 130.999Z" fill="black"/>
<path d="M64.2909 126.253C64.2909 126.253 63.0995 121.556 65.8258 121.556C68.4683 121.556 67.7442 126.223 67.7442 126.223L64.2909 126.253Z" stroke="black" stroke-width="0.980065" stroke-linecap="round" stroke-linejoin="round"/>
<path d="M65.2196 124.661C65.2196 124.661 64.7016 122.883 65.887 122.883C67.0369 122.883 66.7213 124.649 66.7213 124.649L65.2196 124.661Z" stroke="black" stroke-width="0.980065" stroke-linecap="round" stroke-linejoin="round"/>
<path d="M97.2737 44.4029C103.723 45.1094 121.084 43.7906 123.119 43.9602C128.41 44.4029 123.605 28.4274 116.991 35.3809C112.894 39.6874 117.897 39.9135 119.176 36.3669C119.79 34.6634 116.578 26.1195 105.939 28.5632C95.2994 31.0069 96.4538 37.4392 99.7116 39.1536C102.969 40.868 103.296 37.9918 100.413 37.7406C98.4644 37.5679 90.5791 43.6674 97.2737 44.4029Z" stroke="black" stroke-width="0.980065" stroke-linecap="round" stroke-linejoin="round"/>
<path d="M136.157 45.0638C134.703 45.4647 133.327 46.1227 132.088 47.0091C129.747 48.5893 114.166 56.6135 114.166 56.6135V65.8083" stroke="black" stroke-width="0.980065" stroke-linecap="round" stroke-linejoin="round"/>
<path d="M139.274 45.0638H147.499" stroke="black" stroke-width="0.980065" stroke-linecap="round" stroke-linejoin="round"/>
<path d="M136.157 46.6622C136.157 46.6622 136.215 78.1282 136.157 81.2682C136.1 84.4082 136.157 98.3184 136.157 98.3184" stroke="black" stroke-width="0.980065" stroke-linecap="round" stroke-linejoin="round"/>
<path d="M105.059 73.8404C105.059 73.8404 113.259 65.5296 121.674 65.8082" stroke="black" stroke-width="0.980065" stroke-linecap="round" stroke-linejoin="round"/>
<path d="M103.893 71.0725C103.893 71.0725 104.195 68.1068 105.059 66.649" stroke="black" stroke-width="0.980065" stroke-linecap="round" stroke-linejoin="round"/>
<path d="M114.166 69.2457C114.166 69.2457 114.535 87.1437 114.535 88.7137" stroke="black" stroke-width="0.980065" stroke-linecap="round" stroke-linejoin="round"/>
<path d="M106.785 75.3029C106.785 75.3029 109.692 73.2132 111.982 73.8405" stroke="black" stroke-width="0.980065" stroke-linecap="round" stroke-linejoin="round"/>
<path d="M122.401 59.8988C122.401 59.8988 128.419 57.2855 129.562 57.2855" stroke="black" stroke-width="0.980065" stroke-linecap="round" stroke-linejoin="round"/>
<path d="M128.419 65.4433C129.628 64.9651 130.878 64.6079 132.152 64.3765" stroke="black" stroke-width="0.980065" stroke-linecap="round" stroke-linejoin="round"/>
<path d="M121.674 80.6323C121.674 80.6323 129.638 77.6987 131.314 77.6697" stroke="black" stroke-width="0.980065" stroke-linecap="round" stroke-linejoin="round"/>
<path d="M119.506 86.7732C119.506 86.7732 126.972 85.4199 129.562 84.58" stroke="black" stroke-width="0.980065" stroke-linecap="round" stroke-linejoin="round"/>
<path d="M125.161 91.5021C125.161 91.5021 129.638 90.418 131.847 90.4816" stroke="black" stroke-width="0.980065" stroke-linecap="round" stroke-linejoin="round"/>
<path d="M121.674 68.5197V78.1916H125.981" stroke="black" stroke-width="0.980065" stroke-linecap="round" stroke-linejoin="round"/>
<path d="M121.674 67.4403H125.379L125.161 78.1917" stroke="black" stroke-width="0.980065" stroke-linecap="round" stroke-linejoin="round"/>
<path d="M122.931 70.4375C122.931 70.6457 122.993 70.8453 123.104 70.9925C123.215 71.1398 123.365 71.2225 123.522 71.2225C123.678 71.2225 123.828 71.1398 123.939 70.9925C124.05 70.8453 124.112 70.6457 124.112 70.4375C124.112 70.2293 124.05 70.0296 123.939 69.8824C123.828 69.7352 123.678 69.6525 123.522 69.6525C123.365 69.6525 123.215 69.7352 123.104 69.8824C122.993 70.0296 122.931 70.2293 122.931 70.4375Z" fill="black"/>
<path d="M122.931 74.6584C122.931 74.8666 122.993 75.0663 123.104 75.2135C123.215 75.3607 123.365 75.4434 123.522 75.4434C123.678 75.4434 123.828 75.3607 123.939 75.2135C124.05 75.0663 124.112 74.8666 124.112 74.6584C124.112 74.4502 124.05 74.2505 123.939 74.1033C123.828 73.9561 123.678 73.8734 123.522 73.8734C123.365 73.8734 123.215 73.9561 123.104 74.1033C122.993 74.2505 122.931 74.4502 122.931 74.6584Z" fill="black"/>
<path d="M107.424 119.616C107.424 119.616 117.499 119.751 120.858 119.616" stroke="black" stroke-width="0.980065" stroke-linecap="round" stroke-linejoin="round"/>
<path d="M106.41 124.368C106.41 124.368 122.575 124.503 125.934 124.368" stroke="black" stroke-width="0.980065" stroke-linecap="round" stroke-linejoin="round"/>
<path d="M114.142 92.9089H122.401C122.401 92.9089 121.307 96.1471 120.485 97.0961H116.651" stroke="black" stroke-width="0.980065" stroke-linecap="round" stroke-linejoin="round"/>
<path d="M119.506 98.4282C119.506 98.4282 120.605 113.155 120.605 116.387" stroke="black" stroke-width="0.980065" stroke-linecap="round" stroke-linejoin="round"/>
<path d="M125.161 100.806C125.161 100.806 136.383 100.624 138.218 100.806" stroke="black" stroke-width="0.980065" stroke-linecap="round" stroke-linejoin="round"/>
<path d="M128.166 105.229C128.166 105.229 139.646 104.699 141.277 105.229" stroke="black" stroke-width="0.980065" stroke-linecap="round" stroke-linejoin="round"/>
<path d="M127.944 102.512L127.88 113.626" stroke="black" stroke-width="0.980065" stroke-linecap="round" stroke-linejoin="round"/>
<path d="M125.378 113.977H131.313" stroke="black" stroke-width="0.980065" stroke-linecap="round" stroke-linejoin="round"/>
<path d="M132.861 113.976C132.861 113.976 140.628 113.96 142.323 113.976" stroke="black" stroke-width="0.980065" stroke-linecap="round" stroke-linejoin="round"/>
<path d="M143.489 113.626C145.268 108.614 140.428 109.903 140.428 109.903C141.78 106.943 138.577 104.993 138.577 104.993L138.218 102.512" stroke="black" stroke-width="0.980065" stroke-linecap="round" stroke-linejoin="round"/>
<path d="M131.847 105.094C131.847 105.094 131.545 108.771 132.861 109.961C134.177 111.151 138.577 110.589 138.577 110.589" stroke="black" stroke-width="0.980065" stroke-linecap="round" stroke-linejoin="round"/>
<path d="M130.764 114.736C130.775 115.119 130.864 115.495 131.026 115.84C131.188 116.184 131.42 116.488 131.704 116.732C131.989 116.975 132.321 117.152 132.677 117.251C133.033 117.351 133.405 117.369 133.769 117.306C136.714 117.111 136.185 115.029 136.185 115.029" stroke="black" stroke-width="0.980065" stroke-linecap="round" stroke-linejoin="round"/>
<path d="M138.377 114.736C138.388 115.119 138.477 115.495 138.639 115.84C138.801 116.184 139.033 116.488 139.318 116.732C139.602 116.975 139.934 117.152 140.29 117.251C140.646 117.351 141.019 117.369 141.383 117.306C144.327 117.111 143.799 115.029 143.799 115.029" stroke="black" stroke-width="0.980065" stroke-linecap="round" stroke-linejoin="round"/>
<path d="M35.8169 34.7834C35.8169 34.7834 36.2941 57.3326 36.2941 60.8454" stroke="black" stroke-width="0.980065" stroke-linecap="round" stroke-linejoin="round"/>
<path d="M38.3266 60.6697C38.3266 60.6697 36.2926 64.0907 35.8154 66.0721" stroke="black" stroke-width="0.980065" stroke-linecap="round" stroke-linejoin="round"/>
<path d="M36.0555 67.7323L35.8169 84.116" stroke="black" stroke-width="0.980065" stroke-linecap="round" stroke-linejoin="round"/>
<path d="M8.86621 60.1336C8.86621 60.1336 22.6465 60.4766 26.4177 60.1422C29.1453 59.9442 31.8815 59.9062 34.6132 60.0284" stroke="black" stroke-width="0.980065" stroke-linecap="round" stroke-linejoin="round"/>
<path d="M11.0425 68.8604L28.2769 71.0725" stroke="black" stroke-width="0.980065" stroke-linecap="round" stroke-linejoin="round"/>
<path d="M28.9131 72.3096L31.8062 84.116" stroke="black" stroke-width="0.980065" stroke-linecap="round" stroke-linejoin="round"/>
<path d="M12.0591 82.7533L31.3946 82.4377" stroke="black" stroke-width="0.980065" stroke-linecap="round" stroke-linejoin="round"/>
<path d="M28.9132 85.3673C28.9132 85.3673 28.017 96.3809 28.2767 98.8764" stroke="black" stroke-width="0.980065" stroke-linecap="round" stroke-linejoin="round"/>
<path d="M8.86621 58.5941C8.86621 58.5941 9.47776 48.4974 9.47776 46.4941C9.46918 45.1942 9.36823 43.8967 9.17576 42.6123" stroke="black" stroke-width="0.980065" stroke-linecap="round" stroke-linejoin="round"/>
<path d="M7.45068 42.6118L12.8225 42.5237" stroke="black" stroke-width="0.980065" stroke-linecap="round" stroke-linejoin="round"/>
<path d="M16.4712 43.9602C16.4712 43.9602 16.5738 54.425 16.4712 58.2048" stroke="black" stroke-width="0.980065" stroke-linecap="round" stroke-linejoin="round"/>
<path d="M21.4902 43.3667C21.4902 43.3667 25.5967 43.5617 26.9142 43.4993" stroke="black" stroke-width="0.980065" stroke-linecap="round" stroke-linejoin="round"/>
<path d="M21.7271 44.403C21.7271 44.403 22.4503 56.1293 22.3499 58.2048" stroke="black" stroke-width="0.980065" stroke-linecap="round" stroke-linejoin="round"/>
<path d="M28.9131 46.4941C28.9131 46.4941 29.6469 55.4659 29.6469 56.4636" stroke="black" stroke-width="0.980065" stroke-linecap="round" stroke-linejoin="round"/>
<path d="M9.47754 40.887C9.47754 40.887 14.6047 37.1535 17.4987 39.16" stroke="black" stroke-width="0.980065" stroke-linecap="round" stroke-linejoin="round"/>
<path d="M20.9185 41.858C20.9185 41.858 27.8539 38.6253 29.647 40.3987" stroke="black" stroke-width="0.980065" stroke-linecap="round" stroke-linejoin="round"/>
<path d="M25.8647 120.844C28.018 120.962 30.1758 120.962 32.3291 120.844C33.3593 120.69 34.4056 120.69 35.4359 120.844L35.3747 117.755" stroke="black" stroke-width="0.980065" stroke-linecap="round" stroke-linejoin="round"/>
<path d="M27.771 124.661C27.771 124.661 37.2085 123.96 39.2961 123.905" stroke="black" stroke-width="0.980065" stroke-linecap="round" stroke-linejoin="round"/>
<path d="M24.4839 127.538C24.4839 127.538 31.7757 127.695 35.4359 127.274C39.0962 126.853 42.243 126.748 42.243 126.748" stroke="black" stroke-width="0.980065" stroke-linecap="round" stroke-linejoin="round"/>
<path d="M20.0993 115.557C18.7554 112.944 18.6987 108.506 18.6987 108.506C18.6987 108.506 20.547 108.855 21.2748 107.516C21.7116 106.576 21.8489 105.516 21.6666 104.489" stroke="black" stroke-width="0.980065" stroke-linecap="round" stroke-linejoin="round"/>
<path d="M21.106 103.46C21.106 103.46 18.6605 102.989 18.2075 104.496" stroke="black" stroke-width="0.980065" stroke-linecap="round" stroke-linejoin="round"/>
<path d="M18.6987 105.08L21.7436 105.504" stroke="black" stroke-width="0.980065" stroke-linecap="round" stroke-linejoin="round"/>
<path d="M17.413 105.974C17.0056 105.324 16.3696 104.867 15.6414 104.7C14.9133 104.533 14.1512 104.669 13.5187 105.08C11.0272 106.493 11.7067 108.045 11.7067 108.045" stroke="black" stroke-width="0.980065" stroke-linecap="round" stroke-linejoin="round"/>
<path d="M13.5166 106.333C14.0136 106.801 14.6051 107.147 15.2478 107.345C15.8904 107.544 16.5677 107.59 17.2297 107.48" stroke="black" stroke-width="0.980065" stroke-linecap="round" stroke-linejoin="round"/>
<path d="M17.0029 109.034C17.0029 109.034 17.5428 113.499 18.6987 115.785" stroke="black" stroke-width="0.980065" stroke-linecap="round" stroke-linejoin="round"/>
<path d="M10.1191 108.045C10.1191 108.045 13.0501 111.264 14.7903 111.549" stroke="black" stroke-width="0.980065" stroke-linecap="round" stroke-linejoin="round"/>
<path d="M9.9624 111.549C9.9624 111.549 12.0621 115.225 11.8499 118.478C11.6377 121.731 10.9145 123.022 10.9145 123.022" stroke="black" stroke-width="0.980065" stroke-linecap="round" stroke-linejoin="round"/>
<path d="M11.6206 111.125C11.6206 111.125 13.5995 115.291 13.5164 117.285C13.439 118.635 13.239 119.974 12.9192 121.284" stroke="black" stroke-width="0.980065" stroke-linecap="round" stroke-linejoin="round"/>
<path d="M12.4551 123.557C13.3535 122.889 14.184 122.127 14.9337 121.284" stroke="black" stroke-width="0.980065" stroke-linecap="round" stroke-linejoin="round"/>
<path d="M14.5151 116.7C15.7984 116.979 17.0973 117.175 18.4041 117.285" stroke="black" stroke-width="0.980065" stroke-linecap="round" stroke-linejoin="round"/>
<path d="M18.4043 119.183C18.4043 119.183 16.1008 120.383 17.003 124.285C17.4741 126.322 20.4798 127.643 22.9614 126.333C25.4431 125.024 25.7051 122.514 24.5469 120.113C23.3888 117.713 19.9286 118.34 19.9286 118.34" stroke="black" stroke-width="0.980065" stroke-linecap="round" stroke-linejoin="round"/>
<path d="M18.6963 118.046C18.6963 118.046 20.4668 122.058 21.4528 122.424" stroke="black" stroke-width="0.980065" stroke-linecap="round" stroke-linejoin="round"/>
<path d="M9.75057 113.572C8.90611 113.858 8.02356 114.005 7.13525 114.006" stroke="black" stroke-width="0.980065" stroke-linecap="round" stroke-linejoin="round"/>
<path d="M8.44287 114.828C8.44287 114.828 9.64559 118.526 9.5414 119.885" stroke="black" stroke-width="0.980065" stroke-linecap="round" stroke-linejoin="round"/>
<path d="M8.9952 118.046C8.9952 118.046 6.55957 118.824 6.55957 122.17" stroke="black" stroke-width="0.980065" stroke-linecap="round" stroke-linejoin="round"/>
<path d="M4.0498 125.43C4.86543 125.849 5.77226 126.04 6.68045 125.982C7.58865 125.925 8.46669 125.622 9.22759 125.103" stroke="black" stroke-width="0.980065" stroke-linecap="round" stroke-linejoin="round"/>
<path d="M10.1191 125.996C11.4007 125.956 12.6769 125.806 13.9349 125.549" stroke="black" stroke-width="0.980065" stroke-linecap="round" stroke-linejoin="round"/>
</svg>
