<svg width="140" height="140" viewBox="0 0 140 140" fill="none" xmlns="http://www.w3.org/2000/svg">
<rect opacity="0.01" width="140" height="140" fill="white"/>
<path fill-rule="evenodd" clip-rule="evenodd" d="M46 41V46V60C46 61.7982 44.0913 63.8234 42.5149 64.6967L34.4097 69.1879C36.9182 84.1251 48.3687 96.0406 63.0858 99.2752L67.2363 91.8241C68.112 90.2521 69.6967 89 71.5 89H91C91 89 91 91.4941 91 94.2287V106.607C91 107.533 90.5336 111.076 88.8438 112.758C87.154 114.439 78.0678 115 71.1379 115C42.3429 115 19 91.7229 19 63.0092C19 56.3868 20.2459 49.926 22.64 43.8913L22.9588 43.1066L23.4812 43.3224C24.3594 41.9274 25.9159 41 27.6897 41C33.8966 41 39.7931 41 46 41Z" fill="#336DFF"/>
<path fill-rule="evenodd" clip-rule="evenodd" d="M63.8571 26H118.143C119.721 26 121 27.2872 121 28.875V63.3749C121 64.9627 119.578 66 118 66H72L61 75V69.1248V28.875C61 27.2872 62.2792 26 63.8571 26Z" fill="#D7DBEC"/>
<circle cx="81" cy="47" r="3" fill="#131523"/>
<circle cx="91" cy="47" r="3" fill="#131523"/>
<circle cx="101" cy="47" r="3" fill="#131523"/>
</svg>
