<svg width="140" height="140" viewBox="0 0 140 140" fill="none" xmlns="http://www.w3.org/2000/svg">
<rect opacity="0.01" width="140" height="140" fill="white"/>
<circle cx="70" cy="98" r="31" fill="#D7DBEC"/>
<circle cx="70" cy="98" r="19" fill="#A1A7C4"/>
<path fill-rule="evenodd" clip-rule="evenodd" d="M70.5 103C89.0015 103 104 82.4051 104 57C104 31.5949 89.0015 11 70.5 11C51.9985 11 37 31.5949 37 57C37 82.4051 51.9985 103 70.5 103ZM70.5 59C79.0604 59 86 52.2843 86 44C86 35.7157 79.0604 29 70.5 29C61.9396 29 55 35.7157 55 44C55 52.2843 61.9396 59 70.5 59Z" fill="#336DFF"/>
</svg>
