<svg width="153" height="158" viewBox="0 0 153 158" fill="none" xmlns="http://www.w3.org/2000/svg">
<path d="M97.1822 142.434C97.126 142.434 96.9618 141.363 96.518 133.544C96.1995 127.94 91.9238 125.38 87.0879 124.806V124.79H126.679L126.701 124.692C129.356 125.333 131.635 125.493 132.939 124.927C136.254 123.486 136.08 115.559 135.731 108.354C135.382 101.15 128.836 74.7407 123.744 69.7685C120.127 66.236 112.42 65.9534 108.268 66.0837C106.576 66.1387 105.473 66.2635 105.473 66.2635L105.437 66.2156C105.955 65.8283 106.43 65.3823 106.852 64.8858C106.991 64.8325 111.408 63.0678 111.331 59.9655C111.295 58.474 109.24 52.3188 106.65 45.9728C106.65 45.9728 123.723 44.9523 136.146 49.7008C139.666 51.0615 142.699 53.4994 144.841 56.6888C146.983 59.8781 148.132 63.6669 148.133 67.5486L148.369 142.286L148.305 142.438L97.1822 142.434Z" fill="black"/>
<path d="M48.7979 108.726C49.9903 106.439 55.1819 94.7363 56.9116 91.6418C56.9398 91.5939 56.9656 91.5468 56.9876 91.5013C58.6292 88.6423 63.475 78.2748 65.812 74.8782C67.104 73.0028 70.6418 71.6275 73.5564 70.7742L73.6324 71.0419C73.6324 71.0419 72.8215 75.1458 73.9455 77.1115C75.0696 79.0771 101.895 78.99 105.443 74.8782C106.476 73.7187 107.261 72.3481 107.748 70.8551C108.235 69.3622 108.412 67.7802 108.269 66.2118L108.27 66.0791C112.426 65.9488 120.126 66.2275 123.746 69.7639C128.838 74.7376 135.387 101.143 135.736 108.349C136.085 115.555 136.259 123.481 132.944 124.922C131.639 125.489 129.361 125.33 126.706 124.686C122.2 123.526 117.892 121.661 113.932 119.155C107.827 115.191 93.3103 104.813 93.3103 104.813L90.8479 103.086L85.6799 103.597C85.6799 103.597 87.6962 96.1116 88.1993 93.7166C88.1993 93.7166 85.1411 92.8107 83.2403 93.054C81.3396 93.2974 78.0898 93.9175 77.6558 93.9175C76.6627 93.7975 75.6616 94.0596 74.8438 94.6539C73.6821 95.4987 72.4725 96.2713 71.2217 96.9673L71.2141 96.9728C70.3871 97.2647 69.6212 97.716 68.9569 98.3026C67.9837 99.3953 67.1908 100.646 66.61 102.004V102.009C66.45 102.237 66.327 102.49 66.246 102.759L66.2893 103.003C60.9799 105.014 53.0121 113.49 49.3489 125.588L49.2774 125.563C48.648 125.344 48.0481 125.044 47.4922 124.668C43.3722 122.087 35.8976 115.116 34.6892 113.415C33.2734 111.423 24.6367 100.979 24.6367 100.979L24.8366 100.743C25.3149 100.987 25.8567 101.064 26.3809 100.963C29.4566 100.107 29.9104 95.0943 29.9104 95.0943C29.9104 95.0943 36.2799 101.954 37.5316 103.088C38.5888 104.057 44.817 106.109 48.7979 108.726Z" fill="white"/>
<path d="M126.704 124.692L126.681 124.79H87.0907V124.806C80.5426 124.021 72.9722 126.867 72.8134 130.693C72.5899 136.022 72.8825 142.28 72.8825 142.28V142.431H47.513C47.0684 136.749 47.6893 131.031 49.3415 125.591C53.0047 113.493 60.9695 105.017 66.2819 103.006C66.879 102.77 67.5048 102.62 68.1417 102.561C68.1475 102.666 68.1759 102.768 68.2248 102.859C68.2737 102.951 68.3419 103.03 68.4244 103.091C68.7284 103.34 71.1125 102.815 73.2542 102.521C74.4242 102.365 75.6017 102.276 76.7813 102.253C77.4703 102.178 78.1666 102.284 78.8052 102.561C80.0493 103.032 85.6771 103.602 85.6771 103.602L90.8451 103.091L93.3075 104.818C93.3075 104.818 107.824 115.196 113.929 119.16C117.89 121.666 122.198 123.532 126.704 124.692Z" fill="white"/>
<path d="M106.855 64.8819C106.433 65.3783 105.958 65.8244 105.439 66.2117C101.222 69.3964 93.8371 69.8871 93.3704 69.9161C90.5664 70.1178 87.7492 69.8547 85.0256 69.1366C85.0256 69.1366 85.5181 68.6468 86.2622 67.8021C87.9093 65.95 89.3816 63.9396 90.6588 61.7984C91.7388 60.0309 92.5251 58.0892 92.9851 56.0538C93.3431 53.6159 93.1059 51.1243 92.295 48.8051C87.5443 47.5012 84.7969 37.7138 84.7969 37.7138C84.3272 39.4094 83.8583 42.0777 83.8583 42.0777C81.6702 42.0777 78.1507 43.5299 78.1507 43.5299C76.899 42.7237 77.1323 38.7657 77.1323 38.7657C75.9596 41.0258 76.6626 44.176 76.6626 44.176L73.1256 45.0214L71.579 45.3896C71.579 45.3896 67.6695 42.4804 76.5858 33.0297C85.5022 23.5791 93.9214 27.5818 98.0665 30.2477C100.244 31.6489 103.782 38.9243 106.654 45.9642C109.245 52.3101 111.3 58.4622 111.336 59.9568C111.411 63.0638 106.993 64.8285 106.855 64.8819Z" fill="#81F8F8"/>
<path d="M108.27 66.2117C108.413 67.7802 108.235 69.3622 107.748 70.8551C107.262 72.3481 106.476 73.7187 105.444 74.8781C101.896 78.99 75.0718 79.0803 73.9463 77.1115C72.8207 75.1427 73.6332 71.0419 73.6332 71.0419L73.5572 70.7742C75.8372 70.1014 77.741 69.749 77.8686 69.7278C80.753 69.6011 83.5932 68.9506 86.259 67.8061C85.515 68.6484 85.0225 69.1406 85.0225 69.1406C87.746 69.8586 90.5633 70.1218 93.3673 69.9201C93.834 69.891 101.219 69.4004 105.436 66.2157L105.472 66.2636C105.472 66.2636 106.575 66.1387 108.268 66.083L108.27 66.2117Z" fill="#FFD997"/>
<path d="M97.1823 142.434H72.8798V142.282C72.8798 142.282 72.5872 136.024 72.8106 130.696C72.9695 126.867 80.5398 124.023 87.088 124.808C91.9239 125.386 96.1996 127.943 96.5181 133.547C96.9619 141.361 97.1261 142.434 97.1823 142.434Z" fill="#81F8F8"/>
<path d="M83.1096 48.7352C82.7622 48.9863 82.5015 49.3455 82.3656 49.7604C82.6586 50.1139 83.0441 50.3725 83.4759 50.5054C83.581 50.6408 83.7211 50.7426 83.88 50.7989C84.039 50.8552 84.2101 50.8636 84.3735 50.8233C84.5034 50.777 84.6201 50.698 84.713 50.5935C84.8059 50.4889 84.872 50.362 84.9055 50.2243C85.641 49.8469 86.3518 49.4203 87.0335 48.9471C87.0335 48.9471 85.4732 48.7273 84.3651 48.6449C84.2761 48.5809 84.176 48.5351 84.0702 48.5099C83.9446 48.4804 83.8137 48.485 83.6902 48.5232C83.647 48.5372 83.6051 48.5551 83.5648 48.5766H83.5595C83.4835 48.5955 83.4007 48.6167 83.3232 48.6426C83.248 48.6626 83.1761 48.6938 83.1096 48.7352ZM73.8376 48.1017C73.7656 47.8965 73.68 47.6966 73.5815 47.5035C73.3325 46.7 73.1793 45.868 73.1255 45.0261L76.6625 44.1806C76.6625 44.1806 75.9595 41.0304 77.1322 38.7704C77.1322 38.7704 76.8989 42.7284 78.1506 43.5346C78.1506 43.5346 81.6702 42.0823 83.8582 42.0823C83.8582 42.0823 84.3271 39.4133 84.7968 37.7185C84.7968 37.7185 87.5442 47.5059 92.295 48.8098C93.1058 51.129 93.343 53.6206 92.985 56.0585C92.525 58.0939 91.7387 60.0355 90.6587 61.8031L90.5827 61.7576C89.0758 63.3408 87.2487 64.5604 85.2323 65.3293C84.2739 65.7224 83.2538 65.9307 82.2227 65.944C79.704 65.8725 78.7267 62.9979 77.6414 60.9867C77.0212 59.8398 76.2438 58.9041 75.6023 57.937C75.1045 57.2348 74.7394 56.442 74.5262 55.6C74.2949 54.1514 74.4236 52.6658 74.9001 51.2825C74.9001 51.2825 74.8849 51.2323 74.8545 51.1397C74.6979 50.6537 74.1826 49.0264 73.8361 48.1025L73.8376 48.1017ZM75.5537 50.0226C75.5463 50.0237 75.5392 50.0266 75.5332 50.0312C75.4787 50.0536 75.4276 50.0837 75.3812 50.1207C75.3682 50.1317 75.3553 50.1396 75.3424 50.1498C75.1104 50.3972 74.9799 50.7277 74.9784 51.0721C75.1059 51.3403 75.301 51.568 75.543 51.7315C75.6158 51.8768 75.7311 51.9948 75.8724 52.0686C76.0137 52.1424 76.174 52.1684 76.3304 52.1429C76.4104 52.114 76.4833 52.0672 76.5436 52.0057C76.6039 51.9442 76.6503 51.8696 76.6792 51.7873C77.2556 51.4602 77.7197 50.9567 78.0077 50.346C77.323 50.1566 76.6233 50.0308 75.917 49.97C75.8435 49.9571 75.7681 49.9616 75.6966 49.9833H75.6859H75.673C75.632 49.9938 75.5916 50.0069 75.5522 50.0226H75.5537ZM82.6901 59.3146C83.4645 58.7 85.2376 57.2611 85.2376 57.2611C85.2376 57.2611 81.3152 57.3969 80.2482 57.4864C79.4242 57.6529 78.654 58.0308 78.0085 58.5854C77.3906 58.4951 79.1758 59.8861 80.043 60.1554C80.5169 60.2342 81.0019 60.1994 81.4607 60.0536C81.9194 59.9078 82.3396 59.655 82.6886 59.3146H82.6901Z" fill="#FFD997"/>
<path d="M90.5868 61.7576L90.6628 61.8031C89.3856 63.9443 87.9134 65.9546 86.2662 67.8068L85.2402 65.3293C87.2553 64.5599 89.081 63.3403 90.5868 61.7576Z" fill="#FFD997"/>
<path d="M72.8793 100.462C72.7204 99.7391 72.5152 97.9666 72.5152 97.9666C71.4362 98.2994 70.3923 98.7433 69.3992 99.2917C68.3359 100.04 67.3931 100.956 66.6055 102.007C67.1869 100.649 67.9799 99.3986 68.9531 98.3057C69.6174 97.7191 70.3833 97.2679 71.2103 96.9759L71.2179 96.9704C72.4688 96.2744 73.6783 95.5019 74.8401 94.657C75.6579 94.0628 76.659 93.8007 77.6521 93.9207C78.086 93.9207 81.3358 93.306 83.2365 93.0572C85.1373 92.8084 88.1955 93.7197 88.1955 93.7197C87.6924 96.1148 85.6761 103.6 85.6761 103.6C85.6761 103.6 80.0483 103.03 78.8042 102.559C78.1656 102.281 77.4693 102.176 76.7803 102.251C75.6008 102.273 74.4232 102.363 73.2532 102.519C71.1115 102.813 68.7304 103.338 68.4226 103.089C68.3402 103.028 68.2721 102.949 68.2234 102.857C68.1746 102.765 68.1463 102.663 68.1407 102.559C68.1255 102.153 68.4842 101.716 69.1515 101.499C69.6987 101.326 71.4353 100.855 72.8793 100.462Z" fill="#FFD997"/>
<path d="M77.8742 69.7277C75.5067 69.8674 73.1316 69.6954 70.8062 69.2159C74.5362 66.1324 75.6033 57.937 75.6033 57.937C76.2447 58.9041 77.0222 59.8398 77.6424 60.9867C78.7299 62.9979 79.705 65.8726 82.2236 65.944C83.2548 65.9307 84.2748 65.7224 85.2332 65.3294L86.2592 67.8068C83.595 68.9505 80.7567 69.6007 77.8742 69.7277Z" fill="#81F8F8"/>
<path d="M87.0346 48.9472C86.353 49.4204 85.6421 49.847 84.9066 50.2244C84.9816 49.9557 84.9781 49.6701 84.8967 49.4033C84.8114 49.0937 84.623 48.8252 84.3647 48.645C85.4743 48.7306 87.0346 48.9472 87.0346 48.9472Z" fill="white"/>
<path d="M85.2364 57.261L85.2129 57.2696C84.9028 57.3701 81.5755 58.4377 80.9447 58.5727C79.967 58.6474 78.9855 58.6511 78.0073 58.5837C78.6528 58.0291 79.423 57.6512 80.247 57.4847C81.3141 57.3968 85.2364 57.261 85.2364 57.261Z" fill="black"/>
<path d="M84.8949 49.4034C84.9762 49.6701 84.9797 49.9557 84.9047 50.2245C84.6536 50.3511 84.3906 50.4506 84.1197 50.5212C84.0227 50.5766 83.9135 50.6049 83.8027 50.6034C83.6919 50.6019 83.5834 50.5706 83.4879 50.5126C83.3924 50.4546 83.3132 50.3719 83.258 50.2727C83.2029 50.1734 83.1737 50.061 83.1735 49.9466C83.0869 49.7164 83.0722 49.4639 83.1315 49.2246C83.1908 48.9853 83.321 48.7711 83.5041 48.6121C83.7906 48.6045 84.0774 48.6142 84.3629 48.6412C84.6218 48.8223 84.8103 49.0924 84.8949 49.4034Z" fill="black"/>
<path d="M84.9051 50.2222C84.8717 50.3598 84.8055 50.4867 84.7126 50.5913C84.6197 50.6959 84.5031 50.7749 84.3731 50.8211C84.2097 50.8615 84.0386 50.853 83.8797 50.7967C83.7208 50.7404 83.5806 50.6386 83.4756 50.5032C83.686 50.5602 83.9065 50.5655 84.1193 50.5189C84.3905 50.4483 84.6538 50.3488 84.9051 50.2222Z" fill="black"/>
<path d="M84.0712 48.51C84.177 48.535 84.2771 48.5806 84.3661 48.6442C84.0807 48.6174 83.7939 48.6078 83.5073 48.6153C83.5248 48.602 83.5453 48.5919 83.5636 48.5787H83.5689C83.7345 48.5434 83.9024 48.5205 84.0712 48.51Z" fill="black"/>
<path d="M83.6941 48.5231C83.8176 48.485 83.9485 48.4805 84.0741 48.5098C83.9054 48.5195 83.7375 48.5417 83.5718 48.5761C83.611 48.5549 83.652 48.5371 83.6941 48.5231Z" fill="black"/>
<path d="M83.5634 48.5789C83.5452 48.5921 83.5246 48.6023 83.5072 48.6155L83.3818 48.6311C83.3643 48.6345 83.347 48.639 83.3301 48.6444C83.4046 48.6186 83.4836 48.5976 83.5634 48.5789Z" fill="#FFD997"/>
<path d="M83.3787 48.6317L83.5041 48.616C83.3211 48.775 83.1909 48.9891 83.1316 49.2284C83.0723 49.4677 83.087 49.7202 83.1736 49.9505C83.2333 50.1578 83.3372 50.3488 83.4775 50.5094C83.0458 50.3765 82.6602 50.1179 82.3672 49.7644C82.5031 49.3495 82.7638 48.9904 83.1112 48.7392C83.1818 48.7044 83.2544 48.6743 83.3286 48.6489C83.345 48.6422 83.3617 48.6364 83.3787 48.6317Z" fill="white"/>
<path d="M83.3272 48.645C83.253 48.6702 83.1804 48.7001 83.1099 48.7347C83.1776 48.694 83.2509 48.6638 83.3272 48.645Z" fill="white"/>
<path d="M78.0073 50.346C77.7192 50.9566 77.2551 51.4601 76.6788 51.7872C76.7868 51.4853 76.7914 51.1542 76.6917 50.8492C76.6486 50.6452 76.5542 50.4566 76.4181 50.3023C76.2821 50.148 76.1091 50.0334 75.9165 49.97C76.6229 50.0307 77.3226 50.1566 78.0073 50.346Z" fill="white"/>
<path d="M76.6919 50.8499C76.7916 51.155 76.787 51.486 76.679 51.788C76.5934 51.8277 76.5039 51.8579 76.4122 51.8783C76.2652 51.915 76.1125 51.921 75.9632 51.8959C75.8139 51.8708 75.671 51.8152 75.5428 51.7323C75.4502 51.5927 75.3791 51.4391 75.3322 51.277C75.1574 50.6859 75.314 50.1136 75.6834 49.9864C75.7589 49.9755 75.8351 49.9702 75.9114 49.9707C76.1049 50.0333 76.279 50.1476 76.4161 50.3019C76.5531 50.4563 76.6483 50.6454 76.6919 50.8499Z" fill="black"/>
<path d="M70.8094 69.2191C73.1328 69.6982 75.5058 69.8702 77.8713 69.7309C77.7436 69.7521 75.8429 70.1046 73.5598 70.7773C70.6452 71.6306 67.1059 73.0059 65.8154 74.8813C63.4784 78.278 58.6327 88.6455 56.9911 91.5044C56.966 91.55 56.9401 91.5971 56.9151 91.645L56.7144 91.5044C56.7144 91.5044 55.6915 69.2191 56.7144 62.8519C57.7374 56.4848 74.5493 51.2426 74.5493 51.2426L74.8533 51.1421C74.8837 51.2347 74.8997 51.285 74.8997 51.285C74.4228 52.6681 74.2939 54.1537 74.525 55.6025C74.7401 56.4449 75.1072 57.2378 75.6073 57.9394C75.6073 57.9394 74.5395 66.1325 70.8094 69.2191Z" fill="black"/>
<path d="M76.4119 51.8777C76.5037 51.8574 76.5931 51.8271 76.6787 51.7874C76.6497 51.8697 76.6034 51.9443 76.543 52.0058C76.4827 52.0673 76.4099 52.1142 76.3298 52.143C76.1734 52.1686 76.0131 52.1426 75.8718 52.0688C75.7305 51.9949 75.6153 51.877 75.5425 51.7317C75.6707 51.8146 75.8136 51.8703 75.9629 51.8953C76.1122 51.9204 76.2649 51.9144 76.4119 51.8777Z" fill="black"/>
<path d="M75.914 49.9699C75.8378 49.9694 75.7616 49.9745 75.686 49.985H75.6967C75.7671 49.9638 75.8414 49.9587 75.914 49.9699Z" fill="black"/>
<path d="M75.6704 49.9866H75.6833C75.3139 50.1137 75.1574 50.686 75.3322 51.2771C75.3791 51.4392 75.4501 51.5928 75.5427 51.7324C75.3006 51.5689 75.1056 51.3412 74.978 51.073C74.9796 50.7285 75.11 50.398 75.3421 50.1506C75.355 50.1404 75.3679 50.1326 75.3808 50.1216C75.4288 50.0871 75.4797 50.0572 75.5328 50.0321C75.5389 50.0275 75.5459 50.0245 75.5534 50.0235C75.5916 50.0087 75.6307 49.9964 75.6704 49.9866Z" fill="white"/>
<path d="M75.5319 50.0312C75.4787 50.0562 75.4279 50.0859 75.3799 50.1202C75.4263 50.0834 75.4774 50.0535 75.5319 50.0312Z" fill="white"/>
<path d="M72.5155 97.9688C72.5155 97.9688 72.7207 99.7413 72.8795 100.464C71.4355 100.851 69.6989 101.328 69.1555 101.504C68.489 101.72 68.1295 102.158 68.1447 102.563C67.5079 102.622 66.8821 102.772 66.285 103.008L66.2417 102.764C66.3227 102.496 66.4457 102.242 66.6057 102.015V102.009C67.3929 100.958 68.3355 100.042 69.3987 99.2938C70.3921 98.7454 71.4362 98.3015 72.5155 97.9688Z" fill="#FFD997"/>
<path d="M38.1829 142.434C38.1267 142.434 37.9625 141.363 37.5187 133.544C37.201 127.94 32.9245 125.38 28.0894 124.806V124.79H47.4177L47.4846 124.674C48.0405 125.049 48.6404 125.35 49.2698 125.569L49.3412 125.593C47.689 131.033 47.0681 136.751 47.5127 142.434H38.1829Z" fill="black"/>
<path d="M38.183 142.434H13.9839L13.8813 142.282C13.8813 142.282 13.5887 136.024 13.8121 130.696C13.9709 126.867 21.5405 124.023 28.0895 124.808C32.9246 125.386 37.2011 127.943 37.5188 133.547C37.9626 141.361 38.1268 142.434 38.183 142.434Z" fill="#81F8F8"/>
<path d="M36.1751 68.8421C39.2531 74.7061 38.3548 81.3535 34.1717 83.6849C29.9887 86.0164 24.1032 83.1582 21.0275 77.2919C17.9518 71.4256 18.8448 64.7837 23.0286 62.4491C27.2124 60.1145 33.0963 62.979 36.1751 68.8421ZM32.5423 82.0584L34.6923 81.1627C34.364 80.384 32.5886 80.0127 32.4784 79.9915L33.0864 79.7772C33.253 79.7185 33.4062 79.6254 33.5367 79.5034C33.6671 79.3814 33.7721 79.2331 33.8451 79.0678C33.9181 78.9024 33.9576 78.7233 33.9613 78.5416C33.9649 78.3599 33.9326 78.1793 33.8662 78.0109C33.791 77.8144 33.6707 77.6397 33.5157 77.5017C33.3607 77.3637 33.1756 77.2667 32.9762 77.2189C33.3975 76.7819 33.6928 76.2325 33.8292 75.6321C33.9655 75.0317 33.9376 74.404 33.7484 73.819C33.5352 73.3389 33.2093 72.9215 32.8003 72.6045C32.3912 72.2876 31.912 72.0812 31.4061 72.0041L31.422 71.9256C31.422 71.9256 31.9145 70.0872 30.9729 66.2509C30.0312 62.4146 27.6616 61.8235 27.4176 64.4964C27.1736 67.1693 29.4286 71.8754 29.4286 71.8754L29.4491 72.0002C28.5737 72.1705 27.7461 72.54 27.0262 73.0819L26.8856 72.9383C26.8856 72.9383 26.6416 72.1839 24.9202 70.1727C24.7181 69.9351 24.4884 69.7242 24.2362 69.5447L24.18 69.5078L24.1694 69.5023C23.4512 69.0203 22.7406 68.9779 22.397 69.3626C22.397 69.3626 20.6088 71.1987 21.7176 73.2303C22.4404 74.5577 23.3896 74.0938 23.8236 73.0529C24.2962 73.5976 24.8568 74.0533 25.4804 74.3999L25.681 74.5797C25.4297 74.9787 25.2719 75.4327 25.2202 75.9057C25.1685 76.3787 25.2243 76.8576 25.3831 77.3044C25.635 77.8504 26.0268 78.3146 26.5161 78.6468C27.0054 78.9789 27.5735 79.1662 28.1586 79.1884L28.2126 79.2198C28.1091 79.3959 28.0471 79.5946 28.0316 79.7999C28.016 80.0053 28.0473 80.2115 28.1229 80.4021C28.1888 80.5703 28.2873 80.7228 28.4122 80.8504C28.5372 80.9779 28.686 81.0778 28.8496 81.144C29.0133 81.2101 29.1882 81.2411 29.3638 81.235C29.5394 81.2289 29.7119 81.1859 29.8709 81.1086L30.605 80.7561V80.7647C30.5488 80.8495 29.5099 82.3967 29.8025 83.1912L31.9518 82.2955L31.5512 80.5999C31.5955 80.5819 31.6384 80.5606 31.6797 80.5363L31.685 80.5441L32.5423 82.0584Z" fill="#81F8F8"/>
<path d="M34.6925 81.1627L32.5425 82.0584L31.686 80.5504L31.6807 80.5425C31.8528 80.4448 31.9964 80.3011 32.0964 80.1265L32.4764 79.9915C32.5889 80.0127 34.3642 80.384 34.6925 81.1627Z" fill="#FFD997"/>
<path d="M32.184 79.0746C32.15 78.9918 32.1077 78.9128 32.0578 78.8391C32.0254 78.7906 31.9885 78.7453 31.9476 78.7041C31.834 78.5818 31.6961 78.4863 31.5434 78.4241C31.3907 78.3619 31.2269 78.3345 31.063 78.3438L31.712 77.6121C31.8688 77.4341 32.0696 77.3035 32.2928 77.2344C32.516 77.1652 32.7532 77.1601 32.9789 77.2196C33.1778 77.2677 33.3624 77.3648 33.5169 77.5026C33.6715 77.6404 33.7915 77.8148 33.8666 78.0109C33.9327 78.1793 33.9647 78.3599 33.9608 78.5416C33.9569 78.7232 33.9171 78.9022 33.8439 79.0674C33.7707 79.2326 33.6656 79.3807 33.535 79.5024C33.4044 79.6242 33.2512 79.7172 33.0846 79.7756L32.4766 79.9899L32.0966 80.1249C32.1331 80.0649 32.1632 80.0009 32.1863 79.9342C32.1863 79.924 32.1946 79.913 32.1992 79.9004C32.2074 79.8768 32.2143 79.8527 32.2197 79.8282C32.2894 79.5799 32.2768 79.3147 32.184 79.0746Z" fill="#FFD997"/>
<path d="M32.0015 52.9161L33.2935 56.2626L9.97217 59.4685C9.97217 59.4685 28.39 52.5032 32.0015 52.9161Z" fill="#FFD997"/>
<path d="M32.184 79.0748C32.2779 79.315 32.2913 79.5809 32.222 79.8299C32.217 79.8545 32.2101 79.8787 32.2015 79.9022C32.1969 79.9147 32.1916 79.9257 32.1885 79.9359C32.1634 80.0022 32.1327 80.066 32.0966 80.1267C31.9966 80.3013 31.853 80.445 31.6809 80.5427C31.6396 80.5671 31.5967 80.5883 31.5524 80.6063C31.3241 80.7012 31.0721 80.7171 30.8342 80.6518C30.7934 80.6411 30.7533 80.6277 30.7141 80.6118C30.6739 80.5982 30.6352 80.5803 30.5986 80.5584L30.5682 80.5427C30.5389 80.5261 30.5107 80.5075 30.4839 80.487C30.4462 80.4631 30.4108 80.4355 30.3782 80.4046C30.3726 80.4011 30.3675 80.3969 30.363 80.392C30.3364 80.3672 30.311 80.341 30.287 80.3135C30.2565 80.2792 30.2281 80.2431 30.2019 80.2052C30.1814 80.1785 30.1662 80.1518 30.1479 80.1227C30.1372 80.106 30.1278 80.0884 30.1198 80.0702C30.1007 80.0341 30.0837 79.9969 30.0689 79.9587C30.0147 79.8189 29.9869 79.6697 29.9868 79.5191C29.9866 79.4781 29.9892 79.4372 29.9944 79.3966C29.9967 79.3602 30.0018 79.3239 30.0096 79.2883C30.0272 79.195 30.0557 79.1043 30.0947 79.0183C30.1091 78.9864 30.1254 78.9555 30.1434 78.9256C30.1639 78.8911 30.1867 78.8542 30.2095 78.822C30.2313 78.7907 30.2547 78.7606 30.2794 78.7317L30.287 78.7239C30.3151 78.6948 30.3433 78.6634 30.3737 78.6367C30.565 78.4595 30.81 78.3566 31.0668 78.3455C31.2307 78.3363 31.3945 78.3637 31.5472 78.4258C31.6999 78.488 31.8378 78.5835 31.9514 78.7058C31.991 78.7483 32.0278 78.7934 32.0616 78.8408C32.1101 78.9143 32.1511 78.9927 32.184 79.0748Z" fill="#FFD997"/>
<path d="M30.6059 80.7711V80.7624L30.8339 80.6517C31.0717 80.717 31.3237 80.7011 31.5521 80.6062L31.9526 82.3018L29.8033 83.1975C29.5107 82.407 30.5496 80.8558 30.6059 80.7711Z" fill="#FFD997"/>
<path d="M31.8552 74.4786C31.8915 74.5705 31.9006 74.6715 31.8813 74.7687C31.862 74.866 31.8153 74.9552 31.7469 75.025C31.6785 75.0947 31.5916 75.142 31.4972 75.1607C31.4028 75.1795 31.3051 75.1688 31.2166 75.1302C31.1281 75.0916 31.0526 75.0267 30.9998 74.9437C30.947 74.8607 30.9192 74.7635 30.9199 74.6642C30.9207 74.5649 30.95 74.4681 31.004 74.386C31.0581 74.3039 31.1345 74.2402 31.2236 74.203C31.3428 74.1533 31.4761 74.1544 31.5945 74.206C31.7129 74.2577 31.8066 74.3557 31.8552 74.4786Z" fill="black"/>
<path d="M32.0013 52.9163C28.3898 52.5034 9.97193 59.4687 9.97193 59.4687C9.58296 59.6939 9.15965 59.8489 8.72021 59.9271C8.94821 59.8423 16.3461 57.076 21.8355 54.2414C27.4124 51.3612 32.0013 52.9163 32.0013 52.9163Z" fill="#FFD997"/>
<path d="M30.0665 79.9548C30.0813 79.993 30.0983 80.0302 30.1174 80.0662C30.1254 80.0845 30.1348 80.1021 30.1456 80.1188C30.1865 80.1865 30.233 80.2503 30.2846 80.3096C30.3087 80.3371 30.334 80.3633 30.3606 80.3881C30.3651 80.393 30.3702 80.3972 30.3758 80.4007C30.409 80.4309 30.4443 80.4584 30.4815 80.4831C30.5074 80.505 30.5357 80.5237 30.5658 80.5388L30.5962 80.5545C30.6333 80.5754 30.672 80.5933 30.7118 80.6079C30.7509 80.6238 30.791 80.6372 30.8318 80.6479L30.6038 80.7586L29.8697 81.1111C29.7107 81.1884 29.5382 81.2314 29.3626 81.2375C29.187 81.2436 29.012 81.2126 28.8484 81.1465C28.6848 81.0804 28.536 80.9805 28.411 80.8529C28.2861 80.7253 28.1876 80.5728 28.1217 80.4046C28.0406 80.1954 28.0119 79.9685 28.0384 79.7449C28.0648 79.5213 28.1454 79.3081 28.2728 79.1253C28.4002 78.9424 28.5703 78.7957 28.7672 78.6988C28.9641 78.6019 29.1815 78.5579 29.3992 78.5708L30.3682 78.6321C30.3377 78.6593 30.3088 78.6884 30.2816 78.7192L30.274 78.727C30.2485 78.7553 30.2252 78.7855 30.2041 78.8173C30.1782 78.8491 30.156 78.8839 30.138 78.9209C30.1199 78.9508 30.1037 78.9817 30.0893 79.0136C30.0503 79.0996 30.0217 79.1903 30.0042 79.2836C29.9964 79.3192 29.9913 79.3555 29.989 79.3919C29.9838 79.4325 29.9813 79.4734 29.9814 79.5144C29.9823 79.6655 30.0112 79.8149 30.0665 79.9548Z" fill="#FFD997"/>
<path d="M21.228 89.4266C21.5107 89.1722 21.8185 88.8441 22.216 88.5317C22.3737 88.4085 22.5389 88.296 22.7107 88.1949C24.3108 87.1615 25.9908 86.2664 27.7336 85.5188C28.9496 85.1428 29.6906 86.1892 28.847 86.8698C29.4732 86.8698 29.7293 87.6941 28.6494 88.5741C28.2997 88.851 27.9272 89.0956 27.536 89.3049C27.0722 89.5545 26.5934 89.7732 26.1026 89.9596L26.1125 89.991L27.9745 89.7021C28.6999 90.3247 29.2728 91.1155 29.6465 92.01C29.8398 93.0273 29.9257 94.0633 29.9026 95.0998C29.9026 95.0998 29.4466 100.113 26.3732 100.968L25.1496 99.3443L23.7512 98.6236C22.3558 97.8999 17.757 94.2944 17.1741 93.3908C16.5912 92.4873 17.1741 90.2029 17.1741 89.4823C17.1741 89.2358 17.2129 88.7059 17.2722 88.0834C17.3527 86.9971 17.5069 85.918 17.7335 84.854C17.7897 84.6734 18.0519 84.4615 18.4342 84.244C18.8446 84.0188 19.2677 83.8191 19.7011 83.6458C20.7664 83.2128 21.8541 82.8412 22.9592 82.5327C24.4747 82.1198 24.4162 83.7699 23.7056 84.0721C23.4388 84.1836 22.0336 84.9442 21.3427 85.1876C21.0289 85.2945 20.7264 85.4339 20.4398 85.6036C20.2349 85.7094 20.0537 85.8584 19.9078 86.0409V88.5301L21.0235 89.1872L21.228 89.4266Z" fill="#FFD997"/>
<path d="M27.9894 76.0894C28.0254 76.181 28.0342 76.2816 28.0148 76.3785C27.9954 76.4753 27.9487 76.564 27.8805 76.6334C27.8123 76.7028 27.7257 76.7497 27.6317 76.7683C27.5376 76.7869 27.4404 76.7762 27.3522 76.7377C27.264 76.6992 27.1889 76.6345 27.1363 76.5519C27.0837 76.4693 27.056 76.3724 27.0567 76.2736C27.0573 76.1747 27.0864 76.0782 27.1402 75.9964C27.1939 75.9146 27.2699 75.851 27.3586 75.8138C27.4777 75.7644 27.6109 75.7656 27.7291 75.8172C27.8473 75.8688 27.9409 75.9667 27.9894 76.0894Z" fill="black"/>
<path d="M22.0666 88.2607L22.2186 88.5316C21.8188 88.8456 21.511 89.1721 21.2306 89.4265L21.0307 89.1831L19.915 88.5261V86.0408C20.0609 85.8582 20.2421 85.7093 20.447 85.6035L20.8886 85.6271L22.0666 88.2607Z" fill="#FFD997"/>
<path d="M17.6389 82.4267L17.6982 82.4667L18.3822 84.0029L18.4362 84.2439C18.0562 84.4645 17.7917 84.6733 17.7355 84.8539C17.5088 85.9179 17.3547 86.9971 17.2741 88.0834C17.3691 86.6869 16.0171 84.3711 15.7351 83.3278C15.4532 82.2846 15.8476 81.7429 16.9177 79.523C17.0029 79.3422 17.1015 79.1684 17.2126 79.0033C18.2006 77.533 19.2083 78.6532 19.1361 79.4429C18.9791 80.0729 18.7223 80.6719 18.3761 81.2154C18.1033 81.6903 17.8213 82.1409 17.6389 82.4267Z" fill="#FFD997"/>
<path d="M5.08838 51.7717C5.08838 51.7717 10.8393 54.0396 8.7151 59.9294C9.89006 56.3184 5.8803 53.8755 5.8803 53.8755L5.08838 51.7717Z" fill="#FFD997"/>
<path d="M5.88037 53.8755C5.88037 53.8755 9.89013 56.3161 8.71517 59.9294C8.03801 60.0173 7.85333 59.6327 7.81001 59.3305C7.79371 59.2172 7.79371 59.1022 7.81001 58.989L5.88037 53.8755Z" fill="#FFD997"/>
<path d="M86.2595 67.806C85.5154 68.6483 85.0229 69.1405 85.0229 69.1405C87.7465 69.8586 90.5637 70.1217 93.3677 69.92C95.3587 69.8169 97.2649 69.056 98.8055 67.7495C103.092 63.6722 102.318 58.8366 101.478 52.7615" stroke="black" stroke-width="0.980065" stroke-linecap="round" stroke-linejoin="round"/>
<path d="M87.8346 39.5625C89.7077 42.4292 91.2074 45.5381 92.2951 48.809C93.1059 51.1282 93.3431 53.6198 92.9852 56.0577C92.5251 58.0931 91.7388 60.0348 90.6588 61.8023C89.3816 63.9435 87.9094 65.9539 86.2622 67.806" stroke="black" stroke-width="0.980065" stroke-linecap="round" stroke-linejoin="round"/>
<path d="M106.856 64.882C110.631 60.3698 105.681 54.1487 105.681 54.1487" stroke="black" stroke-width="0.980065" stroke-linecap="round" stroke-linejoin="round"/>
<path d="M93.3447 69.9185H93.3675C93.8342 69.8894 101.219 69.3988 105.436 66.2141C105.955 65.8267 106.43 65.3807 106.852 64.8843" stroke="black" stroke-width="0.980065" stroke-linecap="round" stroke-linejoin="round"/>
<path d="M106.852 64.8843C106.991 64.8309 111.408 63.0662 111.331 59.9639C111.295 58.4724 109.24 52.3172 106.649 45.9712C103.777 38.9314 100.239 31.656 98.0614 30.2548C93.9164 27.5858 85.4971 23.5823 76.5808 33.0368C67.6644 42.4913 71.5769 45.3943 71.5769 45.3943L73.1235 45.0261L76.6606 44.1807C76.6606 44.1807 75.9576 41.0304 77.1302 38.7704C77.1302 38.7704 76.8969 42.7284 78.1486 43.5346C78.1486 43.5346 81.6682 42.0824 83.8562 42.0824C83.8562 42.0824 84.3252 39.4133 84.7948 37.7185C84.7948 37.7185 87.5422 47.5059 92.293 48.8098" stroke="black" stroke-width="0.980065" stroke-linecap="round" stroke-linejoin="round"/>
<path d="M75.5319 50.0312C75.4774 50.0535 75.4263 50.0834 75.3799 50.1202" stroke="black" stroke-width="0.980065" stroke-linecap="round" stroke-linejoin="round"/>
<path d="M73.1235 45.0261C73.1774 45.868 73.3305 46.7 73.5795 47.5036C73.6781 47.6967 73.7637 47.8965 73.8357 48.1018C74.1822 49.0265 74.6975 50.6538 74.8518 51.1436C74.8822 51.2363 74.8981 51.2865 74.8981 51.2865C74.4212 52.6697 74.2923 54.1553 74.5235 55.604C74.7385 56.4464 75.1057 57.2393 75.6057 57.9409C76.2471 58.9081 77.0246 59.8438 77.6448 60.9907C78.7323 63.0018 79.7074 65.8765 82.2261 65.9479C83.2572 65.9347 84.2772 65.7263 85.2357 65.3333C87.2521 64.5644 89.0791 63.3447 90.5861 61.7615" stroke="black" stroke-width="0.980065" stroke-linecap="round" stroke-linejoin="round"/>
<path d="M86.2625 46.6111C85.0287 46.0187 83.6426 45.8535 82.3105 46.1401C80.8665 46.5907 80.8506 47.1284 80.8506 47.1543" stroke="black" stroke-width="0.980065" stroke-linecap="round" stroke-linejoin="round"/>
<path d="M73.8364 48.1025C74.5169 47.8215 75.2503 47.704 75.9811 47.7587C77.5179 47.9157 77.5999 48.4652 77.5999 48.4652" stroke="black" stroke-width="0.980065" stroke-linecap="round" stroke-linejoin="round"/>
<path d="M77.8203 51.0723C77.8243 51.9178 77.6032 52.7483 77.1812 53.4728C76.4972 54.5616 76.7199 56.1418 79.0052 56.2391" stroke="black" stroke-width="0.980065" stroke-linecap="round" stroke-linejoin="round"/>
<path d="M79.5288 55.12C79.7809 55.0428 80.0521 55.0654 80.2888 55.1832" stroke="black" stroke-width="0.980065" stroke-linecap="round" stroke-linejoin="round"/>
<path d="M85.2364 57.261C85.2364 57.261 83.4633 58.6999 82.6888 59.3145C82.3394 59.6546 81.9189 59.907 81.4599 60.0522C81.0008 60.1974 80.5156 60.2316 80.0418 60.1521C79.1746 59.8845 77.3894 58.4934 78.0072 58.5821C78.7544 58.7603 79.5257 58.8041 80.2872 58.7117C81.9709 58.3949 83.6211 57.9115 85.2151 57.268" stroke="black" stroke-width="0.980065" stroke-linecap="round" stroke-linejoin="round"/>
<path d="M83.5632 48.5789C83.4872 48.5977 83.4043 48.6189 83.3268 48.6448C83.2526 48.6701 83.18 48.7003 83.1095 48.7351C82.8724 48.8493 82.6642 49.0189 82.5015 49.2304" stroke="black" stroke-width="0.980065" stroke-linecap="round" stroke-linejoin="round"/>
<path d="M86.8856 48.7407C86.0162 48.7218 84.9743 48.4651 84.0737 48.5099C83.9049 48.5196 83.737 48.5419 83.5713 48.5766" stroke="black" stroke-width="0.980065" stroke-linecap="round" stroke-linejoin="round"/>
<path d="M75.3419 50.1499C75.1527 50.3008 74.9904 50.4846 74.8623 50.6931" stroke="black" stroke-width="0.980065" stroke-linecap="round" stroke-linejoin="round"/>
<path d="M75.5319 50.0312C75.4787 50.0562 75.4279 50.0859 75.3799 50.1202" stroke="black" stroke-width="0.980065" stroke-linecap="round" stroke-linejoin="round"/>
<path d="M78.2198 50.28C77.1019 50.2588 76.291 49.6654 75.5522 50.0226" stroke="black" stroke-width="0.980065" stroke-linecap="round" stroke-linejoin="round"/>
<path d="M77.874 69.7277C80.7566 69.6005 83.5949 68.95 86.2591 67.8061L85.2331 65.3286" stroke="black" stroke-width="0.980065" stroke-linecap="round" stroke-linejoin="round"/>
<path d="M75.6067 57.937C75.6067 57.937 74.5427 66.1324 70.8096 69.2159C73.133 69.695 75.506 69.867 77.8715 69.7277" stroke="black" stroke-width="0.980065" stroke-linecap="round" stroke-linejoin="round"/>
<path d="M73.6364 71.0418C73.6364 71.0418 72.8255 75.1458 73.9495 77.1114C75.0736 79.077 101.899 78.9899 105.447 74.8781C106.48 73.7186 107.265 72.348 107.752 70.8551C108.239 69.3621 108.416 67.7801 108.273 66.2117" stroke="black" stroke-width="0.980065" stroke-linecap="round" stroke-linejoin="round"/>
<path d="M77.8788 69.7246H77.8742C77.7465 69.7458 75.8458 70.0983 73.5627 70.771C70.6481 71.6243 67.1088 72.9996 65.8183 74.875C63.4813 78.2717 58.6356 88.6392 56.994 91.4982C56.9689 91.5437 56.943 91.5908 56.918 91.6387C55.1859 94.7331 49.9966 106.436 48.8042 108.723" stroke="black" stroke-width="0.980065" stroke-linecap="round" stroke-linejoin="round"/>
<path d="M65.5789 85.2456C65.5789 85.2456 61.313 91.9864 61.9392 97.1713C62.5655 102.356 64.2299 103.79 64.2299 103.79" stroke="black" stroke-width="0.980065" stroke-linecap="round" stroke-linejoin="round"/>
<path d="M105.472 66.2618C105.472 66.2618 106.576 66.137 108.268 66.0813C112.424 65.9518 120.124 66.2304 123.744 69.7669C128.836 74.7406 135.385 101.146 135.734 108.352C136.083 115.558 136.257 123.484 132.943 124.925C131.637 125.492 129.359 125.333 126.705 124.689C122.198 123.529 117.89 121.664 113.93 119.157C107.825 115.194 93.3086 104.816 93.3086 104.816L90.8462 103.089L85.6782 103.6C85.6782 103.6 87.6945 96.1146 88.1976 93.7196C88.1976 93.7196 94.7663 94.3868 97.288 96.1915C99.8097 97.9962 114.605 102.672 117.63 103.089C120.655 103.505 127.506 105.484 129.422 108.398" stroke="black" stroke-width="0.980065" stroke-linecap="round" stroke-linejoin="round"/>
<path d="M109.667 82.8984L113.999 87.1665C113.999 87.1665 115.812 100.595 117.628 103.093C117.628 103.093 121.557 101.636 123.877 101.636" stroke="black" stroke-width="0.980065" stroke-linecap="round" stroke-linejoin="round"/>
<path d="M47.8716 142.434H72.8794H97.1819H148.308" stroke="black" stroke-width="0.980065" stroke-linecap="round" stroke-linejoin="round"/>
<path d="M68.1421 102.563C67.5053 102.623 66.8795 102.772 66.2824 103.009C60.9731 105.019 53.0052 113.495 49.342 125.593C47.6898 131.033 47.0689 136.751 47.5135 142.434" stroke="black" stroke-width="0.980065" stroke-linecap="round" stroke-linejoin="round"/>
<path d="M85.6771 103.602C85.6771 103.602 80.0493 103.032 78.8051 102.561C78.1665 102.284 77.4702 102.178 76.7813 102.253C75.6017 102.275 74.4241 102.365 73.2541 102.521C71.1124 102.815 68.7321 103.34 68.4243 103.091C68.3417 103.03 68.2735 102.951 68.2245 102.859C68.1756 102.768 68.1472 102.666 68.1416 102.561C68.1264 102.155 68.4859 101.718 69.1524 101.501C69.6988 101.323 71.4324 100.849 72.8764 100.462C74.0415 100.148 75.0135 99.8928 75.0135 99.8928" stroke="black" stroke-width="0.980065" stroke-linecap="round" stroke-linejoin="round"/>
<path d="M88.1964 93.7243C88.1964 93.7243 85.1382 92.8184 83.2374 93.0618C81.3366 93.3051 78.0869 93.9253 77.6529 93.9253C76.6598 93.8052 75.6587 94.0674 74.8409 94.6616C73.6792 95.5065 72.4696 96.279 71.2188 96.975" stroke="black" stroke-width="0.980065" stroke-linecap="round" stroke-linejoin="round"/>
<path d="M66.6023 102.015C66.4423 102.242 66.3193 102.496 66.2383 102.764" stroke="black" stroke-width="0.980065" stroke-linecap="round" stroke-linejoin="round"/>
<path d="M74.2746 97.3943C74.2746 97.3943 73.4797 97.6376 72.5152 97.9689C71.4362 98.3017 70.3923 98.7456 69.3992 99.294C68.3359 100.042 67.3931 100.958 66.6055 102.009" stroke="black" stroke-width="0.980065" stroke-linecap="round" stroke-linejoin="round"/>
<path d="M73.6905 96.0347C73.6905 96.0347 72.4463 96.4452 71.2174 96.9767L71.2098 96.9822C70.3828 97.2741 69.6169 97.7254 68.9526 98.312C67.9794 99.4048 67.1864 100.655 66.605 102.013V102.019" stroke="black" stroke-width="0.980065" stroke-linecap="round" stroke-linejoin="round"/>
<path d="M72.5156 97.9688C72.5156 97.9688 72.7208 99.7413 72.8797 100.464" stroke="black" stroke-width="0.980065" stroke-linecap="round" stroke-linejoin="round"/>
<path d="M90.8457 103.093C90.8457 103.093 92.2259 101.62 92.2259 100.464" stroke="black" stroke-width="0.980065" stroke-linecap="round" stroke-linejoin="round"/>
<path d="M21.4736 91.7107C21.4736 91.7107 24.2393 88.6634 24.8648 88.4279C25.4902 88.1924 27.6844 86.8696 28.8487 86.8696C29.4749 86.8696 29.731 87.6939 28.6511 88.5739C28.3015 88.8508 27.9289 89.0954 27.5377 89.3047C27.0739 89.5543 26.5951 89.773 26.1043 89.9594L25.9782 90.0041L24.4984 92.63C24.4984 92.63 27.3431 93.101 27.4556 95.5101" stroke="black" stroke-width="0.980065" stroke-linecap="round" stroke-linejoin="round"/>
<path d="M20.7124 89.8001C20.9015 89.7032 21.0752 89.5772 21.2277 89.4265C21.5104 89.1721 21.8182 88.844 22.2157 88.5316C22.3734 88.4084 22.5386 88.2959 22.7104 88.1948C24.3105 87.1614 25.9905 86.2663 27.7333 85.5188C28.9493 85.1427 29.6903 86.1891 28.8467 86.8697" stroke="black" stroke-width="0.980065" stroke-linecap="round" stroke-linejoin="round"/>
<path d="M18.3802 84.0028L17.6978 82.4666" stroke="black" stroke-width="0.980065" stroke-linecap="round" stroke-linejoin="round"/>
<path d="M17.2107 79.0032C17.0996 79.1683 17.001 79.342 16.9158 79.5228C15.8457 81.7428 15.4536 82.2837 15.7333 83.3277C16.0129 84.3718 17.3673 86.6868 17.2723 88.0833" stroke="black" stroke-width="0.980065" stroke-linecap="round" stroke-linejoin="round"/>
<path d="M17.4413 82.7312C17.4413 82.7312 17.5173 82.615 17.6389 82.4266C17.8213 82.1408 18.1032 81.6903 18.373 81.213C18.7192 80.6694 18.976 80.0705 19.133 79.4404C19.209 78.6507 18.1967 77.5305 17.2095 79.0008" stroke="black" stroke-width="0.980065" stroke-linecap="round" stroke-linejoin="round"/>
<path d="M27.5374 89.3049C27.5374 89.3049 27.7198 89.4556 27.9759 89.7021C28.7014 90.3247 29.2743 91.1155 29.6479 92.01C29.8413 93.0273 29.9272 94.0633 29.9041 95.0998C29.9041 95.0998 29.4481 100.113 26.3746 100.968L25.151 99.3443L23.7526 98.6236C22.3573 97.8999 17.7585 94.2944 17.1756 93.3908C16.5927 92.4873 17.1756 90.2029 17.1756 89.4823C17.1756 89.2358 17.2143 88.7059 17.2736 88.0834C17.3542 86.9971 17.5083 85.918 17.7349 84.854C17.7912 84.6734 18.0534 84.4615 18.4357 84.244C18.8461 84.0188 19.2691 83.8191 19.7026 83.6458C20.7678 83.2128 21.8556 82.8412 22.9607 82.5327C24.4761 82.1198 24.4176 83.7699 23.707 84.0721C23.4403 84.1836 22.035 84.9442 21.3442 85.1876C21.0304 85.2945 20.7279 85.4339 20.4413 85.6036C20.2364 85.7094 20.0551 85.8584 19.9093 86.0409V88.5301L21.025 89.1872" stroke="black" stroke-width="0.980065" stroke-linecap="round" stroke-linejoin="round"/>
<path d="M20.8818 85.627L22.0667 88.2606" stroke="black" stroke-width="0.980065" stroke-linecap="round" stroke-linejoin="round"/>
<path d="M18.4111 81.2373L19.0708 82.4666L19.7016 83.6457" stroke="black" stroke-width="0.980065" stroke-linecap="round" stroke-linejoin="round"/>
<path d="M8.72021 59.9269C9.15965 59.8487 9.58296 59.6937 9.97194 59.4685L33.2918 56.2626L33.8306 56.188" stroke="black" stroke-width="0.980065" stroke-linecap="round" stroke-linejoin="round"/>
<path d="M17.2109 79.0034L7.54748 60.7412C7.54748 60.7412 6.59064 60.6352 7.07856 59.4671L3.97168 51.1304L4.7028 50.7544L5.08812 51.7749L5.88004 53.8787L7.80664 58.9922C7.79033 59.1054 7.79033 59.2205 7.80664 59.3337C7.84996 59.6359 8.03464 60.0205 8.7118 59.9326" stroke="black" stroke-width="0.980065" stroke-linecap="round" stroke-linejoin="round"/>
<path d="M33.8306 56.188L48.1999 86.5549" stroke="black" stroke-width="0.980065" stroke-linecap="round" stroke-linejoin="round"/>
<path d="M25.15 99.3442C25.15 99.3442 24.238 100.293 24.8293 100.749C25.3076 100.992 25.8494 101.069 26.3736 100.968" stroke="black" stroke-width="0.980065" stroke-linecap="round" stroke-linejoin="round"/>
<path d="M24.6294 100.984C24.6294 100.984 33.266 111.429 34.6819 113.421C35.8903 115.122 43.3649 122.093 47.4849 124.674C48.0408 125.049 48.6407 125.35 49.2701 125.569" stroke="black" stroke-width="0.980065" stroke-linecap="round" stroke-linejoin="round"/>
<path d="M29.9033 95.0996C29.9033 95.0996 36.2729 101.959 37.5246 103.093C38.5886 104.057 44.8206 106.108 48.7984 108.726C49.4639 109.154 50.0922 109.64 50.6764 110.18" stroke="black" stroke-width="0.980065" stroke-linecap="round" stroke-linejoin="round"/>
<path d="M26.1143 89.9909L27.9763 89.702L48.1999 86.5549" stroke="black" stroke-width="0.980065" stroke-linecap="round" stroke-linejoin="round"/>
<path d="M9.97217 59.4685C9.97217 59.4685 28.39 52.5032 32.0015 52.9161" stroke="black" stroke-width="0.980065" stroke-linecap="round" stroke-linejoin="round"/>
<path d="M5.08838 51.7717C5.08838 51.7717 10.8393 54.0396 8.7151 59.9294H8.72042C8.94842 59.8447 16.3463 57.0783 21.8357 54.2437C27.4126 51.3635 32.0015 52.9186 32.0015 52.9186L33.2935 56.2651" stroke="black" stroke-width="0.980065" stroke-linecap="round" stroke-linejoin="round"/>
<path d="M5.88037 53.8755C5.88037 53.8755 9.89013 56.3161 8.71517 59.9294" stroke="black" stroke-width="0.980065" stroke-linecap="round" stroke-linejoin="round"/>
<path d="M9.97217 61.4475L16.6875 74.3349" stroke="black" stroke-width="0.980065" stroke-linecap="round" stroke-linejoin="round"/>
<path d="M28.1591 79.1884C27.574 79.1662 27.0059 78.9789 26.5166 78.6467C26.0273 78.3146 25.6355 77.8503 25.3836 77.3044C25.2249 76.8577 25.1692 76.3789 25.2209 75.9061C25.2726 75.4332 25.4303 74.9793 25.6815 74.5804C26.027 73.9922 26.484 73.4822 27.0252 73.0811C27.7464 72.5398 28.5754 72.1713 29.4519 72.0025C30.098 71.8712 30.7627 71.8712 31.4089 72.0025C31.9147 72.0796 32.394 72.286 32.803 72.6029C33.2121 72.9199 33.538 73.3373 33.7512 73.8174C33.9404 74.4023 33.9685 75.0301 33.8321 75.6305C33.6957 76.2309 33.4004 76.7803 32.979 77.2173C32.9737 77.2251 32.9661 77.2306 32.9608 77.2385" stroke="black" stroke-width="0.980065" stroke-linecap="round" stroke-linejoin="round"/>
<path d="M29.4313 71.8787C29.4313 71.8787 27.1764 67.1687 27.4203 64.4997C27.6643 61.8307 30.034 62.4147 30.9756 66.2534C31.9172 70.092 31.4248 71.9289 31.4248 71.9289" stroke="black" stroke-width="0.980065" stroke-linecap="round" stroke-linejoin="round"/>
<path d="M23.8213 73.0498C24.2943 73.5958 24.8557 74.0527 25.4804 74.4" stroke="black" stroke-width="0.980065" stroke-linecap="round" stroke-linejoin="round"/>
<path d="M24.1673 69.4993C23.4491 69.0173 22.7385 68.9749 22.395 69.3595" stroke="black" stroke-width="0.980065" stroke-linecap="round" stroke-linejoin="round"/>
<path d="M26.8838 72.9383C26.8838 72.9383 26.6399 72.1839 24.9185 70.1727C24.7163 69.9351 24.4866 69.7242 24.2345 69.5447L24.1782 69.5078" stroke="black" stroke-width="0.980065" stroke-linecap="round" stroke-linejoin="round"/>
<path d="M22.395 69.3596C22.395 69.3596 20.6068 71.1957 21.7156 73.2273C22.4384 74.5548 23.3876 74.0908 23.8216 73.0499C24.0755 72.4293 24.1241 71.7395 23.9599 71.0874C23.4879 69.2356 24.0777 69.4577 24.1674 69.5001L24.178 69.5056" stroke="black" stroke-width="0.980065" stroke-linecap="round" stroke-linejoin="round"/>
<path d="M31.9473 78.7019C31.9884 78.7429 32.0255 78.7878 32.0582 78.8361" stroke="black" stroke-width="0.980065" stroke-linecap="round" stroke-linejoin="round"/>
<path d="M30.2832 78.7175C30.3104 78.6867 30.3393 78.6576 30.3698 78.6303C30.5612 78.4531 30.8062 78.3502 31.063 78.3391" stroke="black" stroke-width="0.980065" stroke-linecap="round" stroke-linejoin="round"/>
<path d="M30.0903 79.0143C30.1047 78.9824 30.121 78.9515 30.139 78.9217C30.1571 78.8846 30.1793 78.8498 30.2051 78.8181C30.2262 78.7862 30.2496 78.756 30.275 78.7278" stroke="black" stroke-width="0.980065" stroke-linecap="round" stroke-linejoin="round"/>
<path d="M29.9824 79.515C29.9823 79.474 29.9849 79.4331 29.9901 79.3925C29.9924 79.356 29.9975 79.3198 30.0054 79.2842" stroke="black" stroke-width="0.980065" stroke-linecap="round" stroke-linejoin="round"/>
<path d="M30.1162 80.0653C30.0969 80.0295 30.0798 79.9925 30.0649 79.9546" stroke="black" stroke-width="0.980065" stroke-linecap="round" stroke-linejoin="round"/>
<path d="M30.3596 80.3896C30.333 80.3648 30.3076 80.3386 30.2836 80.3111C30.232 80.2518 30.1854 80.188 30.1445 80.1204" stroke="black" stroke-width="0.980065" stroke-linecap="round" stroke-linejoin="round"/>
<path d="M30.5645 80.5394C30.5344 80.5243 30.5061 80.5058 30.4802 80.484C30.443 80.4595 30.4077 80.4321 30.3745 80.4021" stroke="black" stroke-width="0.980065" stroke-linecap="round" stroke-linejoin="round"/>
<path d="M30.712 80.6089C30.6719 80.5944 30.633 80.5767 30.5957 80.5559" stroke="black" stroke-width="0.980065" stroke-linecap="round" stroke-linejoin="round"/>
<path d="M32.0963 80.1306C31.9963 80.3052 31.8527 80.4489 31.6806 80.5467C31.6393 80.571 31.5964 80.5922 31.5521 80.6103C31.3238 80.7051 31.0718 80.7211 30.8339 80.6558C30.7932 80.645 30.753 80.6317 30.7139 80.6157" stroke="black" stroke-width="0.980065" stroke-linecap="round" stroke-linejoin="round"/>
<path d="M32.1889 79.9358C32.1657 80.0026 32.1354 80.0665 32.0986 80.1265" stroke="black" stroke-width="0.980065" stroke-linecap="round" stroke-linejoin="round"/>
<path d="M32.2218 79.8298C32.2164 79.8542 32.2095 79.8781 32.2012 79.9016" stroke="black" stroke-width="0.980065" stroke-linecap="round" stroke-linejoin="round"/>
<path d="M30.0661 79.9547C30.012 79.8149 29.9841 79.6657 29.984 79.5151C29.9839 79.4741 29.9864 79.4332 29.9916 79.3926C29.9939 79.3562 29.999 79.3199 30.0068 79.2843C30.0244 79.191 30.053 79.1003 30.092 79.0143C30.1064 78.9824 30.1226 78.9515 30.1406 78.9216C30.1611 78.8871 30.1839 78.8502 30.2067 78.818C30.2285 78.7867 30.2519 78.7566 30.2766 78.7277L30.2842 78.7199C30.3124 78.6908 30.3405 78.6594 30.3709 78.6327L29.4019 78.5715C29.2058 78.5599 29.0098 78.5947 28.8287 78.6731C28.6476 78.7515 28.4862 78.8715 28.3567 79.024C28.2272 79.1765 28.1331 79.3575 28.0815 79.5532C28.0299 79.7489 28.0222 79.9542 28.0589 80.1535C28.0957 80.3527 28.1759 80.5407 28.2935 80.7031C28.4111 80.8656 28.5631 80.9982 28.7377 81.0909C28.9124 81.1835 29.1052 81.2339 29.3016 81.2381C29.4979 81.2422 29.6926 81.2001 29.8708 81.1149L30.605 80.7624L30.833 80.6518C30.7922 80.641 30.7521 80.6277 30.7129 80.6117C30.6727 80.5981 30.634 80.5802 30.5974 80.5583L30.567 80.5426C30.5377 80.526 30.5095 80.5074 30.4826 80.4869C30.4449 80.463 30.4095 80.4354 30.377 80.4045C30.3714 80.401 30.3663 80.3968 30.3618 80.3919C30.3351 80.3671 30.3098 80.3409 30.2858 80.3134C30.2553 80.2792 30.2268 80.243 30.2006 80.2051C30.1801 80.1784 30.1649 80.1517 30.1467 80.1227C30.136 80.1059 30.1266 80.0884 30.1186 80.0701C30.0988 80.0328 30.0813 79.9942 30.0661 79.9547Z" stroke="black" stroke-width="0.980065" stroke-linecap="round" stroke-linejoin="round"/>
<path d="M32.9789 77.2206C32.7532 77.1611 32.516 77.1662 32.2928 77.2353C32.0696 77.3045 31.8688 77.4351 31.712 77.6131L31.063 78.3447C31.2269 78.3355 31.3907 78.3629 31.5434 78.4251C31.6961 78.4873 31.834 78.5828 31.9476 78.705C31.9872 78.7475 32.024 78.7926 32.0578 78.8401C32.1077 78.9138 32.15 78.9927 32.184 79.0756C32.2779 79.3158 32.2913 79.5817 32.222 79.8307C32.217 79.8553 32.2101 79.8795 32.2015 79.903C32.1969 79.9155 32.1916 79.9265 32.1885 79.9367C32.1634 80.003 32.1327 80.0668 32.0966 80.1275L32.4766 79.9925L33.0846 79.7781C33.2514 79.7197 33.405 79.6267 33.5358 79.5048C33.6665 79.3828 33.7718 79.2345 33.845 79.069C33.9183 78.9035 33.958 78.7243 33.9617 78.5424C33.9654 78.3604 33.933 78.1797 33.8666 78.0111C33.7914 77.8151 33.6714 77.6409 33.5168 77.5032C33.3622 77.3656 33.1777 77.2686 32.9789 77.2206Z" stroke="black" stroke-width="0.980065" stroke-linecap="round" stroke-linejoin="round"/>
<path d="M30.0663 79.9546C30.0663 79.9546 28.8731 79.5017 28.8913 79.9178" stroke="black" stroke-width="0.980065" stroke-linecap="round" stroke-linejoin="round"/>
<path d="M32.1836 79.0747C32.1836 79.0747 32.635 78.2057 32.9436 78.2112" stroke="black" stroke-width="0.980065" stroke-linecap="round" stroke-linejoin="round"/>
<path d="M30.6081 80.7679C30.5496 80.8558 29.5107 82.4031 29.8033 83.1975L31.9526 82.3018L31.5521 80.6062" stroke="black" stroke-width="0.980065" stroke-linecap="round" stroke-linejoin="round"/>
<path d="M32.4729 79.9893H32.4782C32.5884 80.0105 34.3638 80.3818 34.6921 81.1605L32.5421 82.0562L31.6855 80.5482" stroke="black" stroke-width="0.980065" stroke-linecap="round" stroke-linejoin="round"/>
<path d="M36.1751 68.8421C39.2531 74.7061 38.3548 81.3535 34.1717 83.6849C29.9887 86.0164 24.1032 83.1582 21.0275 77.2919C17.9518 71.4256 18.8448 64.7837 23.0286 62.4491C27.2124 60.1145 33.0963 62.979 36.1751 68.8421Z" stroke="black" stroke-width="0.980065" stroke-linecap="round" stroke-linejoin="round"/>
<path d="M74.5493 51.2424C74.5493 51.2424 57.7351 56.4862 56.7113 62.8502C55.6876 69.2142 56.7113 91.5027 56.7113 91.5027" stroke="black" stroke-width="0.980065" stroke-linecap="round" stroke-linejoin="round"/>
<path d="M106.652 45.9689C106.652 45.9689 123.726 44.9484 136.149 49.6969C139.668 51.0575 142.702 53.4955 144.844 56.6849C146.986 59.8742 148.135 63.663 148.136 67.5447L148.372 142.282" stroke="black" stroke-width="0.980065" stroke-linecap="round" stroke-linejoin="round"/>
<path d="M72.8798 142.282C72.8798 142.282 72.5872 136.024 72.8106 130.696C72.9695 126.867 80.5398 124.023 87.088 124.808C91.9239 125.386 96.1996 127.943 96.5181 133.547C96.9619 141.365 97.1261 142.436 97.1823 142.436C97.2051 142.436 97.2104 142.285 97.2104 142.285" stroke="black" stroke-width="0.980065" stroke-linecap="round" stroke-linejoin="round"/>
<path d="M87.0903 124.79H126.681" stroke="black" stroke-width="0.980065" stroke-linecap="round" stroke-linejoin="round"/>
<path d="M13.8783 142.282C13.8783 142.282 13.5857 136.024 13.8092 130.696C13.968 126.867 21.5376 124.023 28.0865 124.808C32.9217 125.386 37.1982 127.943 37.5159 133.547C37.9597 141.365 38.1239 142.436 38.1801 142.436C38.2037 142.436 38.2082 142.285 38.2082 142.285" stroke="black" stroke-width="0.980065" stroke-linecap="round" stroke-linejoin="round"/>
<path d="M28.0918 124.79H47.4178" stroke="black" stroke-width="0.980065" stroke-linecap="round" stroke-linejoin="round"/>
<path d="M139.668 62.0332V138.629" stroke="#81F8F8" stroke-width="0.980065" stroke-linecap="round" stroke-linejoin="round"/>
<path d="M47.8715 142.434H47.5128H38.183H13.9839" stroke="black" stroke-width="0.980065" stroke-linecap="round" stroke-linejoin="round"/>
<path d="M48.7979 108.726C48.7979 108.726 51.7322 107.391 53.1998 107.631" stroke="black" stroke-width="0.980065" stroke-linecap="round" stroke-linejoin="round"/>
<path d="M76.9097 72.4329C76.9097 72.4329 82.4037 71.6879 84.2125 72.4329" stroke="black" stroke-width="0.980065" stroke-linecap="round" stroke-linejoin="round"/>
<path d="M102.169 71.9029C102.169 71.9029 96.6745 71.1579 94.8657 71.9029" stroke="black" stroke-width="0.980065" stroke-linecap="round" stroke-linejoin="round"/>
<path d="M57.5939 35.4428L41.0981 21.9431" stroke="black" stroke-width="0.980065" stroke-linecap="round" stroke-linejoin="round"/>
<path d="M68.5496 30.1888L65.4199 16.679" stroke="black" stroke-width="0.980065" stroke-linecap="round" stroke-linejoin="round"/>
<path d="M51.9432 46.9651L36.2241 44.5442" stroke="black" stroke-width="0.980065" stroke-linecap="round" stroke-linejoin="round"/>
</svg>
