<svg width="600" height="600" viewBox="0 0 600 600" fill="none" xmlns="http://www.w3.org/2000/svg">
<path d="M133.071 248.445C133.232 248.01 133.43 247.568 133.669 247.12M133.071 248.445C133.232 248.01 133.43 247.568 133.669 247.12M133.071 248.445C133.037 248.535 133.004 248.625 132.974 248.714C133.004 248.625 133.037 248.535 133.071 248.445ZM133.669 247.12C133.676 247.106 133.685 247.093 133.693 247.08C133.685 247.093 133.676 247.106 133.669 247.12ZM140.889 239.691C140.821 239.739 140.755 239.788 140.688 239.836C140.755 239.788 140.821 239.739 140.889 239.691ZM140.889 239.691C141.033 239.589 141.179 239.486 141.326 239.384C141.179 239.486 141.033 239.589 140.889 239.691ZM340.165 380.932C340.165 380.937 340.164 380.952 340.163 380.977C340.161 381.027 340.157 381.116 340.147 381.243C340.126 381.495 340.083 381.895 339.991 382.42C339.809 383.472 339.434 385.028 338.666 386.925C337.136 390.706 334.017 395.91 327.619 401.209C314.797 411.831 288.565 423.016 235.044 423.402C181.537 423.787 155.329 412.598 142.522 401.804C136.129 396.416 133.004 391.073 131.468 387.167C130.697 385.206 130.32 383.592 130.136 382.497C130.044 381.949 130 381.532 129.979 381.266C129.968 381.133 129.964 381.039 129.962 380.985C129.961 380.958 129.96 380.941 129.96 380.935V306.888C149.434 313.46 182.223 319.789 235.686 319C288.612 318.218 320.955 312.012 340.165 305.912V380.932ZM127.58 259.328C127.928 264.351 130.987 268.834 135.806 272.646C140.935 276.704 148.338 280.246 157.639 283.176C176.266 289.045 203.094 292.644 236.255 292.644C269.416 292.644 296.295 289.046 314.971 283.177C324.296 280.247 331.724 276.705 336.871 272.649C341.696 268.847 344.768 264.374 345.128 259.359C350.531 261.889 354.805 264.536 357.848 267.196C361.623 270.496 363.189 273.529 363.189 276.162C363.189 279.709 360.894 283.579 355.32 287.501C349.786 291.396 341.438 295.024 330.409 298.119C308.385 304.299 276.269 308.187 236.234 308.187C196.199 308.187 164.144 304.299 142.182 298.12C131.185 295.025 122.869 291.397 117.359 287.504C111.81 283.584 109.523 279.715 109.523 276.162C109.523 273.519 111.09 270.478 114.865 267.172C117.907 264.509 122.18 261.86 127.58 259.328ZM137.264 260.162C137.768 260.629 138.314 261.099 138.907 261.568C138.315 261.099 137.768 260.63 137.264 260.162ZM334.352 261.099C334.165 261.254 333.973 261.41 333.777 261.565C333.973 261.41 334.165 261.254 334.352 261.099ZM335.423 260.162C335.393 260.189 335.364 260.217 335.334 260.245C335.364 260.217 335.393 260.189 335.423 260.162ZM135.319 258.101C135.579 258.421 135.859 258.742 136.159 259.063C135.859 258.742 135.579 258.421 135.319 258.101ZM337.157 258.366C337.07 258.469 336.98 258.572 336.888 258.675C336.98 258.572 337.07 258.469 337.157 258.366ZM337.946 257.365C337.865 257.476 337.783 257.588 337.698 257.699C337.783 257.588 337.865 257.476 337.946 257.365ZM133.571 255.413C133.772 255.825 134.004 256.24 134.269 256.656C134.004 256.24 133.772 255.825 133.571 255.413ZM338.876 255.911C338.79 256.066 338.7 256.222 338.605 256.378C338.7 256.222 338.79 256.066 338.876 255.911ZM133.301 254.818C133.333 254.894 133.365 254.97 133.399 255.045C133.365 254.97 133.333 254.894 133.301 254.818ZM339.408 254.811C339.376 254.889 339.343 254.967 339.308 255.045C339.343 254.967 339.376 254.888 339.408 254.81V254.811ZM132.552 251.519C132.554 251.589 132.559 251.659 132.563 251.729V251.73C132.559 251.66 132.555 251.589 132.552 251.519ZM132.547 251.209C132.547 251.114 132.548 251.019 132.552 250.922C132.548 251.019 132.547 251.114 132.547 251.209ZM132.56 250.799C132.563 250.745 132.566 250.69 132.571 250.635C132.566 250.69 132.563 250.745 132.56 250.799ZM340.14 250.636C340.144 250.69 340.147 250.744 340.151 250.797C340.147 250.744 340.144 250.69 340.14 250.636ZM132.582 250.516C132.589 250.446 132.596 250.376 132.605 250.305C132.596 250.376 132.589 250.446 132.582 250.516ZM340.109 250.322C340.117 250.387 340.123 250.452 340.129 250.516C340.123 250.452 340.117 250.387 340.109 250.322ZM340.068 250.043C340.078 250.104 340.086 250.165 340.094 250.226C340.086 250.165 340.078 250.104 340.068 250.043ZM132.618 250.209C132.627 250.149 132.636 250.089 132.646 250.028C132.636 250.089 132.627 250.149 132.618 250.209ZM132.659 249.945C132.674 249.864 132.689 249.784 132.706 249.703C132.689 249.784 132.674 249.864 132.659 249.945ZM340.004 249.703C340.021 249.783 340.036 249.862 340.05 249.942C340.036 249.862 340.021 249.783 340.004 249.703ZM132.725 249.618C132.738 249.557 132.752 249.497 132.767 249.436C132.752 249.497 132.738 249.557 132.725 249.618ZM339.944 249.436C339.958 249.497 339.972 249.557 339.986 249.618C339.972 249.557 339.958 249.497 339.944 249.436ZM339.865 249.141C339.881 249.197 339.897 249.253 339.911 249.309C339.897 249.253 339.881 249.197 339.865 249.141ZM132.801 249.299C132.817 249.238 132.833 249.176 132.851 249.115C132.833 249.176 132.817 249.238 132.801 249.299ZM132.875 249.028C132.9 248.945 132.927 248.862 132.954 248.779C132.927 248.862 132.9 248.945 132.875 249.028ZM339.74 248.736C339.563 248.206 339.328 247.664 339.031 247.114C339.328 247.665 339.563 248.206 339.74 248.736ZM133.742 246.989C133.776 246.928 133.808 246.867 133.843 246.806C133.808 246.867 133.776 246.928 133.742 246.989ZM134.257 246.133C134.144 246.307 134.036 246.48 133.935 246.652C134.036 246.48 134.144 246.307 134.257 246.133ZM338.656 246.462C338.694 246.526 338.732 246.589 338.77 246.652C338.732 246.589 338.694 246.526 338.656 246.462ZM338.458 246.152C338.496 246.21 338.534 246.269 338.571 246.327C338.534 246.269 338.496 246.21 338.458 246.152ZM134.326 246.026C134.38 245.946 134.435 245.867 134.49 245.787C134.435 245.867 134.38 245.946 134.326 246.026ZM338.237 245.823C338.28 245.886 338.323 245.949 338.365 246.012C338.323 245.949 338.28 245.886 338.237 245.823ZM134.551 245.7C134.605 245.623 134.66 245.547 134.716 245.47C134.66 245.547 134.605 245.623 134.551 245.7ZM337.985 245.47C338.041 245.547 338.097 245.623 338.151 245.7C338.097 245.623 338.041 245.547 337.985 245.47ZM248.401 245.631C248.4 245.63 248.399 245.627 248.398 245.625C248.397 245.624 248.396 245.622 248.396 245.621L248.401 245.631ZM337.712 245.11C337.779 245.196 337.845 245.282 337.909 245.368C337.845 245.282 337.779 245.196 337.712 245.11ZM134.792 245.366C134.845 245.295 134.899 245.225 134.953 245.154C134.899 245.225 134.845 245.295 134.792 245.366ZM337.476 244.812C337.539 244.89 337.601 244.968 337.662 245.045C337.601 244.968 337.539 244.89 337.476 244.812ZM135.559 244.407C135.389 244.605 135.228 244.802 135.073 244.999C135.228 244.802 135.389 244.605 135.559 244.407ZM337.156 244.428C337.227 244.512 337.298 244.596 337.367 244.679C337.298 244.596 337.227 244.512 337.156 244.428ZM135.593 244.367C135.686 244.258 135.782 244.15 135.88 244.042C135.782 244.15 135.686 244.258 135.593 244.367ZM336.911 244.149C336.974 244.22 337.037 244.29 337.098 244.361C337.037 244.29 336.974 244.22 336.911 244.149ZM336.168 243.354C336.204 243.391 336.24 243.428 336.276 243.465C336.24 243.428 336.204 243.391 336.168 243.354ZM335.841 243.028C335.864 243.05 335.887 243.073 335.909 243.095C335.887 243.073 335.864 243.05 335.841 243.028ZM335.457 242.659C335.501 242.7 335.543 242.741 335.586 242.782C335.543 242.741 335.501 242.7 335.457 242.659ZM137.111 242.776C137.146 242.742 137.181 242.707 137.217 242.673C137.181 242.707 137.146 242.742 137.111 242.776ZM335.082 242.314C335.154 242.379 335.224 242.444 335.294 242.508C335.224 242.444 335.154 242.379 335.082 242.314ZM137.524 242.389C137.537 242.377 137.549 242.364 137.563 242.352C137.549 242.364 137.537 242.377 137.524 242.389ZM334.691 241.965C334.74 242.009 334.789 242.052 334.838 242.095C334.789 242.052 334.74 242.009 334.691 241.965ZM334.305 241.633C334.373 241.691 334.44 241.748 334.506 241.805C334.44 241.748 334.373 241.691 334.305 241.633ZM138.237 241.756C138.278 241.721 138.319 241.684 138.361 241.649C138.319 241.684 138.278 241.721 138.237 241.756ZM334.017 241.392C334.025 241.399 334.034 241.407 334.042 241.414C334.002 241.38 333.961 241.347 333.92 241.313C333.952 241.339 333.985 241.366 334.017 241.392ZM138.646 241.41C138.66 241.398 138.675 241.386 138.69 241.374C138.714 241.354 138.738 241.334 138.762 241.314C138.723 241.346 138.684 241.378 138.646 241.41ZM333.37 240.872C333.474 240.953 333.577 241.034 333.678 241.116C333.577 241.034 333.474 240.953 333.37 240.872ZM139.049 241.081C139.129 241.016 139.211 240.952 139.292 240.887C139.21 240.952 139.129 241.016 139.049 241.081ZM332.796 240.429C332.489 240.197 332.174 239.965 331.849 239.735C332.174 239.966 332.489 240.197 332.796 240.429ZM139.49 240.732C139.583 240.659 139.678 240.587 139.773 240.514C139.677 240.587 139.583 240.659 139.49 240.732ZM139.919 240.402C140.02 240.325 140.123 240.25 140.226 240.173C140.123 240.25 140.02 240.325 139.919 240.402ZM331.371 239.401C331.418 239.433 331.465 239.466 331.512 239.499C331.465 239.466 331.418 239.433 331.371 239.401ZM330.333 238.706C330.395 238.746 330.456 238.786 330.517 238.826C330.456 238.786 330.395 238.746 330.333 238.706ZM142.201 238.793C142.244 238.765 142.287 238.738 142.33 238.709C142.287 238.738 142.244 238.765 142.201 238.793ZM329.322 238.063C329.376 238.097 329.43 238.131 329.485 238.165C329.43 238.131 329.376 238.097 329.322 238.063ZM143.253 238.121C143.284 238.101 143.315 238.082 143.346 238.063C143.315 238.082 143.284 238.101 143.253 238.121ZM144.309 237.478C144.346 237.456 144.384 237.434 144.421 237.412C144.384 237.434 144.346 237.456 144.309 237.478ZM327.132 236.774C327.186 236.804 327.241 236.834 327.295 236.865C327.241 236.834 327.186 236.804 327.132 236.774ZM145.401 236.845C145.451 236.817 145.501 236.789 145.552 236.76C145.501 236.789 145.451 236.817 145.401 236.845ZM326.016 236.162C326.067 236.189 326.118 236.216 326.168 236.244C326.118 236.216 326.067 236.189 326.016 236.162ZM324.87 235.562C324.9 235.577 324.929 235.592 324.958 235.607C324.929 235.592 324.9 235.577 324.87 235.562ZM147.753 235.577C147.775 235.565 147.797 235.554 147.819 235.542C147.797 235.554 147.775 235.565 147.753 235.577ZM323.517 234.886C323.812 235.03 324.102 235.176 324.39 235.321C324.102 235.176 323.812 235.03 323.517 234.886ZM148.298 235.302C148.569 235.165 148.842 235.026 149.119 234.89C148.842 235.026 148.569 235.165 148.298 235.302ZM322.159 234.238C322.46 234.378 322.757 234.521 323.051 234.663C322.757 234.521 322.46 234.378 322.159 234.238ZM149.728 234.599C149.99 234.473 150.255 234.346 150.523 234.221C150.255 234.346 149.99 234.473 149.728 234.599ZM151.024 233.991C151.317 233.856 151.612 233.72 151.911 233.586C151.612 233.72 151.317 233.856 151.024 233.991ZM320.79 233.615C321.062 233.736 321.33 233.858 321.596 233.98C321.33 233.858 321.062 233.736 320.79 233.615ZM152.49 233.332C152.768 233.21 153.048 233.089 153.33 232.968C153.048 233.089 152.768 233.21 152.49 233.332ZM319.294 232.963C319.577 233.084 319.857 233.205 320.134 233.327C319.856 233.205 319.577 233.084 319.294 232.963ZM317.79 232.338C318.11 232.469 318.427 232.6 318.741 232.731C318.427 232.6 318.11 232.469 317.79 232.338ZM154.012 232.681C154.27 232.573 154.529 232.465 154.791 232.358C154.529 232.465 154.27 232.573 154.012 232.681ZM316.324 231.753C316.613 231.866 316.899 231.979 317.183 232.092C316.899 231.979 316.613 231.866 316.324 231.753ZM155.505 232.069C155.803 231.95 156.103 231.831 156.406 231.712C156.103 231.831 155.803 231.95 155.505 232.069ZM157.043 231.465C157.161 231.42 157.28 231.374 157.399 231.329C157.58 231.26 157.764 231.193 157.948 231.125C157.644 231.238 157.342 231.351 157.043 231.465ZM315.298 231.357C315.37 231.384 315.442 231.413 315.514 231.44C315.282 231.351 315.048 231.264 314.813 231.176C314.975 231.237 315.137 231.296 315.298 231.357ZM313.074 230.541C313.374 230.648 313.672 230.754 313.967 230.862C313.672 230.754 313.374 230.648 313.074 230.541ZM158.701 230.843C158.96 230.749 159.22 230.656 159.482 230.562C159.22 230.656 158.96 230.749 158.701 230.843ZM311.323 229.927C311.661 230.043 311.998 230.158 312.331 230.275C311.998 230.158 311.661 230.043 311.323 229.927ZM160.365 230.247C160.643 230.149 160.924 230.053 161.205 229.957C160.923 230.053 160.643 230.149 160.365 230.247ZM310.175 229.541C310.332 229.593 310.489 229.643 310.645 229.696C310.489 229.643 310.332 229.593 310.175 229.541ZM162.014 229.68C162.232 229.607 162.452 229.534 162.672 229.461C162.452 229.534 162.232 229.607 162.014 229.68ZM163.515 229.185C163.792 229.095 164.071 229.006 164.351 228.917C164.071 229.006 163.792 229.095 163.515 229.185ZM308.572 229.019C308.732 229.07 308.893 229.121 309.053 229.172C308.893 229.121 308.732 229.07 308.572 229.019ZM165.177 228.658C165.406 228.586 165.636 228.515 165.867 228.445C165.636 228.515 165.406 228.586 165.177 228.658ZM306.983 228.522C307.111 228.561 307.24 228.6 307.368 228.64C307.24 228.6 307.111 228.561 306.983 228.522ZM166.861 228.145C167.091 228.076 167.322 228.008 167.554 227.94C167.322 228.008 167.091 228.076 166.861 228.145ZM305.258 228.003C305.409 228.048 305.56 228.093 305.71 228.137C305.56 228.093 305.409 228.048 305.258 228.003ZM168.474 227.673C168.729 227.6 168.984 227.527 169.241 227.455C168.984 227.527 168.729 227.6 168.474 227.673ZM303.474 227.49C303.678 227.547 303.881 227.605 304.084 227.663C303.881 227.605 303.678 227.547 303.474 227.49ZM301.797 227.026C301.958 227.07 302.119 227.114 302.28 227.158C302.119 227.114 301.958 227.07 301.797 227.026ZM170.357 227.145C170.539 227.095 170.723 227.044 170.906 226.995C170.723 227.044 170.539 227.095 170.357 227.145ZM171.966 226.712C172.232 226.642 172.498 226.571 172.766 226.501C172.498 226.571 172.232 226.642 171.966 226.712ZM299.967 226.541C300.173 226.594 300.378 226.649 300.583 226.703C300.378 226.649 300.173 226.594 299.967 226.541ZM173.598 226.29C173.919 226.208 174.241 226.126 174.565 226.045C174.241 226.126 173.919 226.208 173.598 226.29ZM298.215 226.094C298.374 226.134 298.533 226.175 298.692 226.215C298.533 226.175 298.374 226.134 298.215 226.094ZM176.789 225.508C176.334 225.616 175.88 225.724 175.43 225.833C175.88 225.724 176.334 225.616 176.789 225.508ZM178.152 225.19C178.256 225.166 178.36 225.143 178.464 225.12C178.36 225.143 178.256 225.166 178.152 225.19ZM292.082 224.674C292.272 224.715 292.462 224.755 292.652 224.796C292.462 224.755 292.272 224.715 292.082 224.674ZM180.027 224.772C180.257 224.722 180.488 224.673 180.719 224.624C180.488 224.673 180.257 224.722 180.027 224.772ZM289.978 224.232C290.244 224.286 290.509 224.34 290.774 224.395C290.509 224.34 290.244 224.286 289.978 224.232ZM181.828 224.388C182.121 224.327 182.415 224.267 182.71 224.207C182.415 224.267 182.121 224.327 181.828 224.388ZM287.998 223.835C288.302 223.895 288.605 223.954 288.906 224.014C288.605 223.954 288.302 223.895 287.998 223.835ZM183.803 223.985C184.09 223.928 184.378 223.871 184.666 223.815C184.378 223.871 184.09 223.928 183.803 223.985ZM285.97 223.45C286.313 223.513 286.655 223.577 286.995 223.642C286.655 223.577 286.313 223.513 285.97 223.45ZM185.707 223.614C186.023 223.554 186.339 223.495 186.656 223.436C186.339 223.495 186.023 223.554 185.707 223.614ZM284.193 223.126C284.435 223.169 284.676 223.213 284.917 223.256C284.676 223.213 284.435 223.169 284.193 223.126ZM187.726 223.24C188.003 223.19 188.28 223.141 188.559 223.091C188.28 223.141 188.003 223.19 187.726 223.24ZM282.159 222.775C282.359 222.808 282.558 222.842 282.756 222.876C282.558 222.842 282.359 222.808 282.159 222.775ZM189.842 222.869C190.083 222.827 190.324 222.785 190.566 222.745C190.324 222.785 190.083 222.827 189.842 222.869ZM280.041 222.427C280.299 222.468 280.555 222.511 280.812 222.552C280.555 222.511 280.299 222.468 280.041 222.427ZM191.986 222.511C192.178 222.48 192.371 222.448 192.565 222.417C192.371 222.448 192.178 222.48 191.986 222.511ZM277.938 222.101C278.262 222.15 278.584 222.201 278.906 222.25C278.584 222.201 278.262 222.15 277.938 222.101ZM194.238 222.158C194.378 222.136 194.518 222.114 194.658 222.093C194.518 222.114 194.378 222.136 194.238 222.158ZM275.543 221.753C276.032 221.822 276.518 221.893 277.003 221.964C276.518 221.893 276.032 221.822 275.543 221.753ZM197.597 221.67C197.016 221.751 196.437 221.833 195.862 221.917C196.437 221.833 197.016 221.751 197.597 221.67ZM273.368 221.458C273.508 221.477 273.648 221.494 273.787 221.512C273.648 221.494 273.508 221.477 273.368 221.458ZM198.906 221.492C199.08 221.469 199.255 221.446 199.429 221.423C199.255 221.446 199.08 221.469 198.906 221.492ZM270.759 221.127C271.099 221.169 271.439 221.21 271.778 221.252C271.439 221.21 271.099 221.169 270.759 221.127ZM200.924 221.231C201.315 221.182 201.706 221.136 202.099 221.088C201.706 221.136 201.315 221.182 200.924 221.231ZM268.677 220.883C268.967 220.916 269.256 220.948 269.544 220.982C269.256 220.948 268.967 220.916 268.677 220.883ZM203.07 220.972C203.439 220.929 203.81 220.888 204.181 220.846C203.81 220.888 203.439 220.929 203.07 220.972ZM266.49 220.644C266.796 220.676 267.102 220.708 267.406 220.741C267.102 220.708 266.796 220.676 266.49 220.644ZM205.26 220.726C205.586 220.691 205.913 220.657 206.24 220.623C205.913 220.657 205.586 220.691 205.26 220.726ZM264.304 220.422C264.578 220.449 264.851 220.476 265.123 220.503C264.851 220.476 264.578 220.449 264.304 220.422ZM207.609 220.482C207.848 220.458 208.087 220.435 208.327 220.412C208.087 220.435 207.848 220.458 207.609 220.482ZM262.062 220.213C262.369 220.241 262.676 220.269 262.982 220.297C262.676 220.269 262.369 220.241 262.062 220.213ZM209.868 220.267C210.138 220.242 210.409 220.219 210.68 220.195C210.409 220.219 210.138 220.242 209.868 220.267ZM211.815 220.097C212.217 220.063 212.62 220.03 213.024 219.998C212.62 220.03 212.217 220.063 211.815 220.097ZM259.821 220.024C260.089 220.046 260.356 220.068 260.623 220.09C260.356 220.068 260.089 220.046 259.821 220.024ZM257.613 219.853C257.824 219.868 258.036 219.885 258.247 219.901C258.036 219.885 257.824 219.868 257.613 219.853ZM214.333 219.897C214.598 219.877 214.862 219.857 215.127 219.837C214.862 219.857 214.598 219.877 214.333 219.897ZM255.258 219.69C255.49 219.705 255.722 219.722 255.953 219.738C255.722 219.722 255.49 219.705 255.258 219.69ZM217.005 219.708C217.143 219.699 217.28 219.689 217.418 219.68C217.28 219.689 217.143 219.699 217.005 219.708ZM252.55 219.53C252.819 219.545 253.087 219.559 253.355 219.575C253.087 219.559 252.819 219.545 252.55 219.53ZM219.74 176.588H253.057C256.198 176.589 258.744 179.136 258.744 182.277V201.623C258.744 202.814 258.528 203.794 258.187 204.424C257.897 204.96 257.569 205.19 257.065 205.257C253.773 205.694 247.559 206.101 236.035 206.185C224.673 206.268 218.607 205.904 215.443 205.462C215.055 205.408 214.797 205.251 214.535 204.675C214.22 203.981 214.052 202.918 214.052 201.629V182.277C214.052 179.135 216.598 176.588 219.74 176.588ZM224.556 214.833H248.189V245.127C248.167 245.147 248.144 245.17 248.115 245.193C247.3 245.864 244.473 247.174 236.208 247.279C232.165 247.33 229.407 247.04 227.55 246.624C225.678 246.203 224.877 245.69 224.576 245.42C224.537 245.385 224.507 245.352 224.484 245.326L224.556 245.169V214.833ZM338.851 246.789C338.908 246.887 338.962 246.985 339.015 247.083C338.962 246.985 338.908 246.887 338.851 246.789ZM339.749 248.761C339.776 248.842 339.801 248.922 339.825 249.002C339.801 248.922 339.776 248.842 339.749 248.761ZM332.87 240.486C333 240.585 333.129 240.683 333.256 240.782C333.13 240.683 333.001 240.585 332.87 240.486Z" stroke="#1E1E1E" stroke-width="5"/>
<path d="M490.459 273.652C490.434 274.407 490.379 275.283 490.258 276.221C489.874 279.183 488.923 282.356 486.911 284.449C486.413 284.967 485.287 285.569 483.427 286.087C481.658 286.58 479.567 286.908 477.514 287.119C475.475 287.329 473.541 287.418 472.114 287.453C471.402 287.471 470.821 287.476 470.421 287.476C470.22 287.476 470.066 287.475 469.963 287.474C469.911 287.473 469.873 287.472 469.848 287.472H469.816L469.63 287.468L469.444 287.492C451.882 289.783 429.361 293.908 401.432 304.421C384.116 310.939 370.413 318.353 361.029 324.146C356.533 326.922 353.026 329.328 350.584 331.087V303.58C351.101 303.329 351.78 303.007 352.634 302.627C354.992 301.577 358.671 300.067 363.881 298.26C374.302 294.646 390.848 289.849 415.209 285.198C439.626 280.537 459.122 277.585 472.506 275.799C479.197 274.906 484.361 274.305 487.847 273.927C488.861 273.817 489.733 273.726 490.459 273.652ZM475.004 237.249C475.285 237.299 475.688 237.376 476.179 237.481C477.213 237.704 478.626 238.052 480.144 238.556C483.33 239.612 486.398 241.164 487.863 243.179C489.909 245.992 490.532 250.802 490.472 255.434C490.444 257.659 490.261 259.684 490.086 261.154C490.067 261.31 490.045 261.46 490.027 261.603C489.192 261.678 488.1 261.781 486.76 261.922C483.31 262.284 478.21 262.886 471.582 263.853C458.326 265.785 438.958 269.169 414.453 274.981C393.605 279.926 380.954 283.292 373.288 285.533C374.792 283.263 375.917 280.531 375.917 277.414C375.917 272.873 373.884 268.829 371.141 265.435C368.397 262.037 364.803 259.112 361.317 256.743C359.69 255.637 358.065 254.642 356.532 253.762C358.288 253.699 360.244 253.624 362.379 253.528C372.246 253.086 385.929 252.246 401.194 250.661C430.58 247.609 458.49 241.196 475.004 237.249Z" stroke="#1E1E1E" stroke-width="5"/>
</svg>
