<svg width="152" height="157" viewBox="0 0 152 157" fill="none" xmlns="http://www.w3.org/2000/svg">
<path fill-rule="evenodd" clip-rule="evenodd" d="M36.3846 23.2887C36.7129 23.6733 36.9596 24.1245 37.1092 24.6135C37.2587 25.1024 37.3076 25.6182 37.2529 26.1279C37.009 26.9428 36.9857 27.8111 37.1857 28.6387C37.3012 29.016 37.3289 29.4162 37.2664 29.8067C37.204 30.1972 37.0532 30.567 36.8263 30.8859C36.3378 31.7743 35.4394 34.4317 34.0192 34.5207C33.7179 34.5381 33.4158 34.5118 33.1215 34.4427C33.1215 34.4427 32.8044 37.8068 29.8539 37.707C25.6885 37.5666 24.8784 33.2773 24.8784 33.2773C25.5189 33.0764 26.1373 32.8069 26.7236 32.4732C27.4137 32.0325 31.7836 20.3114 36.3846 23.2887Z" fill="#FFD997"/>
<path d="M31.5464 26.4642C31.9607 26.1306 32.4592 25.9273 32.9823 25.8788C33.5054 25.8302 34.031 25.9384 34.4962 26.1904C34.5395 26.2154 34.5776 26.249 34.6083 26.2892C34.639 26.3294 34.6618 26.3754 34.6753 26.4247C34.6888 26.474 34.6927 26.5256 34.687 26.5764C34.6812 26.6273 34.6657 26.6765 34.6415 26.7212C34.6174 26.7659 34.5849 26.8053 34.546 26.837C34.5071 26.8688 34.4625 26.8923 34.4148 26.9062C34.367 26.9202 34.3172 26.9243 34.2679 26.9183C34.2187 26.9123 34.171 26.8964 34.1278 26.8714C33.7943 26.6949 33.4191 26.6201 33.046 26.6556C32.6729 26.6911 32.3173 26.8354 32.0206 27.0718C31.9426 27.1368 31.8428 27.1671 31.7432 27.156C31.6436 27.145 31.5523 27.0935 31.4894 27.0129C31.4265 26.9324 31.3972 26.8293 31.4079 26.7264C31.4186 26.6235 31.4684 26.5292 31.5464 26.4642Z" fill="black"/>
<path d="M35.6425 25.9657C37.126 24.9517 37.9905 25.9906 37.5118 26.4103C37.4358 26.4761 37.3377 26.5084 37.2388 26.5C37.1398 26.4917 37.0481 26.4435 36.9833 26.3658C36.8625 26.2192 36.3574 26.4165 36.063 26.6162C36.0216 26.6447 35.9753 26.6646 35.9265 26.6746C35.8777 26.6846 35.8275 26.6846 35.7788 26.6745C35.6803 26.6543 35.5936 26.5944 35.5379 26.5082C35.4821 26.4219 35.4618 26.3163 35.4814 26.2145C35.501 26.1128 35.559 26.0233 35.6425 25.9657Z" fill="black"/>
<path d="M34.1097 30.2611C34.1205 30.211 34.1409 30.1637 34.1697 30.1219C34.1984 30.0801 34.235 30.0446 34.2772 30.0176C34.3194 29.9906 34.3664 29.9725 34.4154 29.9645C34.4644 29.9565 34.5145 29.9587 34.5627 29.9709C34.9103 29.9852 35.25 29.8613 35.5118 29.6246C35.2033 29.0005 34.9971 28.3278 34.9017 27.634C34.8909 27.5335 34.9183 27.4326 34.9781 27.3525C35.038 27.2725 35.1256 27.2196 35.2225 27.205C35.3194 27.1904 35.418 27.2153 35.4974 27.2744C35.5769 27.3335 35.631 27.4222 35.6484 27.5217C35.7264 28.1061 35.893 28.6742 36.1422 29.205C36.9334 30.5364 33.8643 31.3406 34.1097 30.2611Z" fill="black"/>
<path fill-rule="evenodd" clip-rule="evenodd" d="M36.0419 50.6684C36.0419 50.6684 41.7557 48.5319 43.3654 45.5336C43.3654 45.5336 38.8807 39.0799 37.2921 37.6307C35.9809 36.5167 34.5872 35.5105 33.1238 34.6214C33.1238 34.6214 32.2117 37.8569 29.9143 37.7313C28.7161 37.6818 27.5687 37.2181 26.656 36.4144C25.7434 35.6107 25.1185 34.5137 24.8814 33.2993C22.4836 34.2759 19.912 33.3305 17.1729 35.768C14.8264 37.8561 8.52588 42.9526 8.52588 42.9526L14.1733 48.7964C14.1733 48.7964 15.5459 47.4704 17.2356 45.9806C17.2356 45.9806 17.4923 53.8258 19.3352 54.9404C21.7716 56.4 24.6102 56.9766 27.4001 56.5784C30.5334 56.0387 35.4092 55.1456 35.9188 52.3095L36.0419 50.6684Z" fill="#81F8F8"/>
<path fill-rule="evenodd" clip-rule="evenodd" d="M16.6231 60.2631C19.8484 56.2071 20.5627 55.6455 20.5627 55.6455C24.469 57.1532 28.2637 57.3404 31.8937 55.6455C36.3587 72.4523 38.474 89.8325 38.1753 107.258L32.0598 108.302L25.2089 79.0681L22.9545 108.224C22.9545 108.224 18.34 112.31 15.8288 107.806C14.1595 104.817 13.8643 70.3742 13.8643 70.3742C13.8643 70.3742 13.3977 64.3175 16.6231 60.2631Z" fill="white"/>
<path fill-rule="evenodd" clip-rule="evenodd" d="M43.1781 45.8486C42.3046 47.3306 39.835 48.7978 39.835 48.7978C39.835 48.7978 41.7768 51.1784 42.4261 51.9326C43.0754 52.6869 44.9524 53.665 46.8436 54.4435C48.7349 55.2219 54.5726 56.5346 55.4899 58.0166C56.4072 59.4986 56.2449 60.8395 57.8176 61.1281C58.2283 61.2349 58.6594 61.2254 59.0654 61.1006C59.4714 60.9759 59.8374 60.7404 60.1248 60.419C60.1248 60.419 63.9323 63.3121 64.3143 62.8097C64.6964 62.3074 61.8123 59.8457 61.6409 58.8965C61.4695 57.9472 61.314 57.0128 60.0984 56.622C58.3566 56.0755 56.6641 55.3737 55.0399 54.5246C53.7926 53.7009 50.6179 50.2861 49.0603 49.6457C47.5027 49.0053 45.6409 48.9179 43.1781 45.8486Z" fill="#FFD997"/>
<path fill-rule="evenodd" clip-rule="evenodd" d="M12.9717 47.5545L9.0064 43.4517C9.0064 43.4517 5.9177 47.2011 5.7599 48.7962C5.60211 50.3913 10.7429 54.7242 12.0128 56.0502C13.2827 57.3762 15.328 60.5415 16.1495 60.412C16.9709 60.2825 18.0807 59.242 18.9951 59.327C19.9094 59.412 21.6104 60.6101 21.8852 60.2287C22.16 59.8473 19.3688 58.2787 19.3688 58.2787C20.1002 58.1293 20.851 58.1106 21.5885 58.2233C22.6206 58.4292 23.5892 58.6593 23.6096 58.2607C23.6753 58.2419 23.7361 58.2081 23.7874 58.1616C23.8387 58.1152 23.8792 58.0573 23.9058 57.9925C23.9324 57.9276 23.9446 57.8574 23.9412 57.787C23.9379 57.7166 23.9193 57.6479 23.8867 57.586C23.6451 57.1024 20.8727 55.8966 19.9078 55.941C20.482 55.5433 21.0882 55.1976 21.7198 54.9075C22.8237 54.3904 23.0479 53.8935 21.8323 53.9505C20.6168 54.0074 17.02 56.0713 16.3593 56.7288C16.3593 56.7288 13.9615 54.1182 13.587 53.0722C13.2125 52.0262 11.5485 48.7947 11.5485 48.7947L12.9717 47.5545Z" fill="#FFD997"/>
<path fill-rule="evenodd" clip-rule="evenodd" d="M21.1317 109.461C20.5171 109.813 19.8217 109.989 19.1189 109.968C18.416 109.947 17.7316 109.73 17.1378 109.341C17.117 110.385 17.0208 111.425 16.8501 112.454C17.4881 114.163 17.9977 115.903 19.6489 117.368C20.7534 115.544 21.9328 115.106 23.1536 115.434C22.3118 114.201 20.7935 111.617 21.1317 109.461Z" fill="#FFD997"/>
<path fill-rule="evenodd" clip-rule="evenodd" d="M33.5124 108.043C33.6621 109.469 33.5154 110.913 33.082 112.276L39.8234 114.059L41.2443 112.454C39.8341 110.947 38.5952 109.278 37.5516 107.48L33.5124 108.043Z" fill="#FFD997"/>
<path d="M63.3502 60.6243C62.8097 60.091 62.356 59.4713 62.0063 58.7889C61.8296 57.8108 61.6288 56.7016 60.2101 56.2461C58.4987 55.7117 56.8353 55.0254 55.2385 54.1947C54.5129 53.6418 53.8196 53.0451 53.1622 52.4077C50.0486 49.5506 49.6749 49.4125 48.2449 48.943C46.4227 48.4388 44.8072 47.3395 43.6394 45.809C43.6552 45.7809 43.6756 45.7536 43.6907 45.7255C43.7256 45.6608 43.7419 45.5872 43.7377 45.5133C43.7336 45.4394 43.7091 45.3683 43.6673 45.3082C43.4831 45.0445 39.1373 38.8022 37.5375 37.3413C36.4947 36.4349 35.3892 35.6085 34.2298 34.8687C34.3993 34.837 34.5632 34.7792 34.716 34.6971L37.7602 36.0168C37.8643 36.061 37.9775 36.0778 38.0894 36.0657C38.2014 36.0536 38.3087 36.0129 38.4017 35.9473C38.4946 35.8817 38.5704 35.7933 38.6221 35.69C38.6738 35.5867 38.6999 35.4717 38.6979 35.3554C38.6571 33.5669 38.5273 29.7878 38.1226 25.8534C37.5647 20.4168 34.7953 18.2633 31.1139 18.1057C27.4326 17.9481 25.5413 22.6242 25.0113 24.6023C24.6187 26.0773 23.9762 29.0117 23.6795 30.4047C23.6335 30.6165 23.662 30.8382 23.7598 31.0303C23.8576 31.2223 24.0183 31.3722 24.2132 31.4531C24.7304 31.6668 25.4628 31.9834 26.1657 32.3235C22.9614 34.2564 20.174 32.5856 16.9275 35.4747C14.6149 37.5332 8.35673 42.5969 8.29407 42.6507C8.25214 42.685 8.21764 42.728 8.1928 42.7769C8.16796 42.8258 8.15333 42.8795 8.14986 42.9346C8.13703 43.1491 8.25481 43.2287 8.49792 43.4806C7.74292 44.4276 5.53152 47.3026 5.38958 48.7628C5.25746 50.0904 7.61155 52.4179 10.467 55.098C11.4664 55.964 12.3687 56.9431 13.157 58.0167C14.3258 59.4987 15.1457 60.4971 15.8048 60.7413C13.0966 64.8129 13.4688 70.1621 13.4862 70.3751C13.4983 71.7853 13.8025 104.956 15.499 107.998C15.8282 108.615 16.2791 109.155 16.8225 109.581C16.8103 110.508 16.6986 111.432 16.4896 112.334C16.1717 113.255 15.7346 114.518 16.7335 115.421C17.4628 116.081 18.2178 118.189 18.9418 119.385C19.7233 120.67 20.3197 122.442 23.0241 122.442C23.1313 122.442 23.2423 122.442 23.3563 122.433C27.4877 122.215 27.8727 121.402 27.9988 121.134C28.065 120.99 28.0906 120.83 28.0727 120.671C28.0548 120.513 27.9941 120.363 27.8976 120.238C27.2566 119.293 24.0834 116.026 23.9716 115.912C23.9437 115.877 21.1645 112.367 21.4937 109.643C22.1017 109.337 22.6731 108.959 23.1963 108.516C23.3805 108.354 23.1849 110.094 25.3933 81.5283L31.6892 108.391C31.7105 108.488 31.7669 108.572 31.8468 108.627C31.9266 108.682 32.0238 108.702 32.1181 108.685L33.1479 108.509C33.1926 109.51 33.1142 110.513 32.9146 111.494C32.5877 112.607 32.2042 113.834 32.6466 114.686C32.7362 114.856 32.8585 115.006 33.006 115.125C33.1534 115.245 33.323 115.332 33.5043 115.381C34.5143 115.623 35.564 115.628 36.5764 115.397C37.5177 115.403 38.4433 115.647 39.2732 116.106C40.898 116.953 46.001 118.84 47.0542 117.181C48.0418 115.621 44.1354 114.961 41.6235 112.298C40.2963 110.885 39.1153 109.332 38.0999 107.666L38.2381 107.642C38.3248 107.627 38.4037 107.582 38.4615 107.513C38.5192 107.445 38.5521 107.358 38.5545 107.267C38.8224 89.9315 36.738 72.6421 32.362 55.9037C35.1404 54.7782 36.2698 53.1737 36.3046 52.1152L36.3423 50.9686C37.5174 50.4997 38.6575 49.942 39.7534 49.3002C40.2721 49.9344 41.6183 51.5794 42.146 52.1925C43.0309 53.2213 45.6296 54.364 46.7054 54.807C47.2664 55.041 48.1399 55.3054 49.1456 55.6151C55.1433 57.459 55.1041 57.7991 55.7896 59.5151C56.1482 60.4183 56.4857 61.2717 57.7564 61.5049C58.1746 61.6019 58.6086 61.5999 59.026 61.499C59.4434 61.3981 59.8332 61.2009 60.1663 60.9222C62.6941 62.82 63.7367 63.2505 64.2094 63.2505C64.2888 63.2561 64.3682 63.2399 64.4397 63.2036C64.5111 63.1673 64.572 63.1122 64.6163 63.0438C65.0089 62.5236 64.349 61.7677 63.3502 60.6243ZM33.1796 24.1101C34.1936 22.7467 34.8451 22.9401 35.1222 23.139C35.4348 23.3668 35.6575 22.8832 36.1286 23.0837C36.4568 23.4998 36.6935 23.9847 36.8225 24.5046C36.9514 25.0246 36.9694 25.5673 36.8753 26.0952C36.6324 26.9411 36.6107 27.8384 36.8127 28.6957C37.0195 30.1309 36.8927 29.8034 36.1581 31.3946C35.696 32.3969 34.9222 34.0731 33.9973 34.1308C32.1724 34.2291 30.8837 32.4702 30.8708 32.453L30.5945 32.063C30.8089 29.2325 31.6969 26.5006 33.1796 24.1101ZM26.8988 32.6964C27.8597 33.245 28.7671 33.8881 29.6085 34.6167C29.7066 34.6969 29.8256 34.7452 29.9504 34.7555C30.0751 34.7658 30.2001 34.7377 30.3093 34.6747C30.4186 34.6116 30.5073 34.5165 30.5642 34.4014C30.6212 34.2862 30.6438 34.1562 30.6292 34.0278C30.6013 33.786 30.5847 33.5396 30.5756 33.2907C31.1554 33.9412 31.8815 34.4339 32.6896 34.7252C32.4533 35.3952 31.5986 37.4239 29.9346 37.3405C28.8804 37.2923 27.8681 36.9 27.0433 36.22C26.2185 35.5399 25.6236 34.6072 25.3442 33.5559C25.9182 33.3933 26.4494 33.0995 26.8988 32.6964ZM13.7421 57.5269C12.9308 56.4222 12.0035 55.4138 10.9773 54.52C9.37296 53.0154 6.03511 49.886 6.13779 48.8354C6.245 47.7371 8.07059 45.2403 9.03095 44.0298L12.4141 47.5304L11.5942 48.2457L11.1004 47.4883C11.0437 47.4044 10.9573 47.347 10.86 47.3283C10.7626 47.3096 10.662 47.3311 10.5799 47.3883C10.4978 47.4455 10.4408 47.5338 10.421 47.634C10.4013 47.7343 10.4205 47.8385 10.4745 47.9243L11.4024 49.3478C11.8456 50.2183 12.9464 52.4038 13.2348 53.2096C13.6244 54.3016 15.8358 56.7258 16.0864 56.9988C16.1207 57.0361 16.1618 57.066 16.2073 57.0868C16.2528 57.1076 16.3018 57.1189 16.3516 57.1201C16.4013 57.1212 16.4508 57.1122 16.4971 57.0936C16.5435 57.0749 16.5858 57.0469 16.6217 57.0113C17.2302 56.4068 20.7689 54.3593 21.9739 54.3382C21.1859 54.713 20.4234 55.1425 19.6915 55.6237C19.3578 55.8671 19.6077 56.4037 19.9263 56.3311C20.2869 56.3529 20.6426 56.4267 20.9833 56.5503C20.5117 56.5014 20.0356 56.5309 19.573 56.6377C19.4762 56.6641 19.3935 56.7291 19.3431 56.8185C19.2927 56.9078 19.2787 57.0142 19.3042 57.1143C19.3298 57.2143 19.3927 57.2997 19.4792 57.3518C19.5657 57.4039 19.6687 57.4183 19.7655 57.3919C20.3213 57.282 20.8925 57.2864 21.4466 57.4049C22.0007 57.5233 22.5268 57.7535 22.9947 58.0823C21.9377 57.9738 21.089 57.5269 19.2899 57.8989C19.2142 57.9154 19.1453 57.9554 19.0924 58.0137C19.0395 58.0719 19.0052 58.1455 18.9941 58.2245C18.983 58.3035 18.9956 58.3842 19.0303 58.4555C19.0649 58.5269 19.12 58.5856 19.188 58.6236C19.6651 58.8911 20.1763 59.2047 20.6013 59.4902C20.1062 59.2279 19.5766 59.0418 19.0294 58.9379C17.9286 58.8396 16.8505 59.9059 16.0985 60.0252C15.7074 60.0166 14.4775 58.4582 13.7421 57.5269ZM12.9494 48.0842C13.9769 49.1481 13.9619 49.1863 14.171 49.1863C14.4405 49.1863 14.2593 49.1536 16.9464 46.7504C17.0611 48.8361 17.4386 53.4795 18.5749 54.8421C17.8204 55.244 17.0925 55.6972 16.396 56.1985C15.4536 55.2181 14.629 54.1239 13.94 52.9397C13.6221 52.0513 12.436 49.7058 12.0207 48.8915L12.9494 48.0842ZM22.4254 115.016C21.2098 114.938 20.2246 115.84 19.5564 116.892C18.7425 116.144 17.7399 113.976 17.2159 112.561C17.4294 111.731 17.546 110.877 17.5632 110.019C18.5791 110.419 19.7039 110.407 20.7115 109.985C20.6647 111.796 21.6334 113.738 22.4254 115.016ZM40.5869 112.305C40.2043 112.536 39.8724 112.848 39.6122 113.219C38.7107 113.281 34.4609 112.138 33.5881 111.893C33.8643 110.746 33.9699 109.563 33.9014 108.383L37.2989 107.804C38.2453 109.415 39.3469 110.923 40.5869 112.305ZM37.8078 106.923C35.4899 107.318 41.9467 106.221 32.3416 107.854L25.5881 79.0401C25.984 75.7681 26.6555 72.5381 27.5949 69.3868C27.6249 69.2879 27.6157 69.1807 27.5693 69.0889C27.5228 68.997 27.443 68.928 27.3472 68.8969C27.2515 68.8659 27.1478 68.8754 27.0589 68.9234C26.97 68.9714 26.9031 69.0539 26.8731 69.1528C25.9079 72.3729 25.2256 75.6763 24.8346 79.0229L22.5915 108.019C22.1098 108.409 20.2344 109.792 18.4677 109.48C17.9698 109.37 17.5028 109.143 17.1023 108.818C16.7017 108.493 16.3781 108.078 16.1559 107.604C14.8293 105.227 14.3258 79.9144 14.2427 70.3376C14.2382 70.2783 13.8373 64.4549 16.8686 60.572C17.5851 60.2413 18.3786 59.6586 18.9645 59.7085C19.9188 59.8006 21.647 61.2124 22.1929 60.4542C22.2343 60.3963 22.2631 60.3297 22.277 60.2591C22.291 60.1885 22.2898 60.1156 22.2736 60.0455C22.1981 59.7 21.6289 59.193 20.5719 58.5315C21.7044 58.5089 22.2903 58.8584 23.1804 58.8623C23.7718 58.977 24.3702 59.0497 24.9713 59.0799C24.9828 59.1613 25.0193 59.2368 25.0754 59.2952C25.1315 59.3536 25.2043 59.3919 25.2831 59.4043C26.6685 59.6149 29.1789 59.6844 30.3484 58.8427C30.4019 58.8028 30.4443 58.749 30.4714 58.6868C31.0517 58.5418 31.6169 58.3386 32.1589 58.0799C36.1242 74.0311 38.0238 90.4554 37.8078 106.923ZM24.2246 57.4091C24.0997 57.2206 23.9357 57.0634 23.7444 56.9489C24.1974 57.0152 24.6579 57.0573 25.1291 57.0854L25.0196 58.3077C24.7115 58.2866 24.4405 58.2624 24.2072 58.2382C24.2844 58.1154 24.327 57.9727 24.33 57.8262C24.3331 57.6798 24.2966 57.5353 24.2246 57.4091ZM26.1755 58.5292V57.2968L29.3993 56.963L29.5503 58.3069C28.4528 58.6241 27.3031 58.6998 26.1755 58.5292ZM30.4178 56.5285C30.8547 56.4182 31.2647 56.2981 31.6477 56.1681C31.7232 56.4302 31.8244 56.8132 31.9543 57.3085C31.4824 57.553 30.9879 57.7477 30.4782 57.8896L30.4178 56.5285ZM36.3718 50.1169C36.639 43.3995 37.2023 40.6134 37.6402 39.4707C37.6585 39.4231 37.6677 39.3722 37.6671 39.321C37.6664 39.2698 37.656 39.2192 37.6365 39.1721C37.6169 39.125 37.5886 39.0824 37.5531 39.0466C37.5175 39.0109 37.4756 38.9827 37.4295 38.9637C37.3835 38.9447 37.3342 38.9352 37.2846 38.9359C37.2351 38.9365 37.1861 38.9473 37.1405 38.9675C37.0949 38.9877 37.0537 39.017 37.0191 39.0537C36.9844 39.0903 36.9572 39.1337 36.9388 39.1813C35.8886 41.9074 35.6402 49.1653 35.5488 52.0895C35.5262 52.8024 34.5416 54.2392 31.8712 55.2633C31.8358 55.2608 31.8003 55.2656 31.7668 55.2773C31.7332 55.2891 31.7022 55.3077 31.6757 55.332C31.1985 55.5051 30.7132 55.6533 30.2215 55.7758C30.1488 55.7236 30.0604 55.7004 29.9724 55.7103C25.9497 56.2734 25.5488 56.2875 25.4726 56.3194C24.0639 56.295 22.6692 56.0276 21.3457 55.5285C21.9792 55.1962 23.1774 54.761 23.0151 54.0574C22.8897 53.5153 22.1091 53.5481 21.8176 53.5614C20.9357 53.7154 20.0849 54.0206 19.3005 54.4646C18.1272 53.6846 17.7346 47.5437 17.6742 46.11C19.1427 44.7513 20.7357 43.5434 22.4307 42.5033C22.5169 42.455 22.5816 42.3739 22.611 42.2772C22.6403 42.1805 22.6321 42.0758 22.5881 41.9852C22.544 41.8947 22.4675 41.8254 22.3749 41.7921C22.2822 41.7588 22.1807 41.7641 22.0917 41.8068C19.721 43.0384 15.3216 47.1669 14.1823 48.255L9.09286 42.9885C10.43 41.9027 15.4039 37.8561 17.4182 36.0636C19.8478 33.9015 21.9195 34.5957 24.6232 33.7938C24.9443 34.9992 25.6278 36.068 26.5752 36.8458C27.5226 37.6237 28.6847 38.0703 29.8939 38.1213C31.9074 38.2414 32.9509 36.1611 33.3231 35.2009C34.6283 36.0096 35.8718 36.9199 37.043 37.9239C38.4238 39.1828 42.1362 44.4432 42.9153 45.5554C41.5292 47.812 37.69 49.5654 36.3718 50.1169ZM58.6208 58.9215C58.5572 58.8781 58.4824 58.8556 58.4062 58.857C58.33 58.8584 58.256 58.8836 58.1939 58.9292C58.1318 58.9749 58.0845 59.0389 58.0583 59.1129C58.0321 59.1868 58.0282 59.2672 58.047 59.3435C58.1216 59.6283 58.2545 59.8933 58.4369 60.1203C58.6193 60.3473 58.8468 60.5312 59.104 60.6594C58.7109 60.7951 58.2903 60.822 57.884 60.7374C56.5642 60.494 56.7364 59.2998 55.8085 57.7999C54.793 56.158 48.9032 54.871 46.984 54.0785C44.8791 53.2119 43.2407 52.29 42.7092 51.6714C42.2192 51.1012 40.9727 49.5802 40.4103 48.8915C41.4626 48.2467 42.4047 47.4268 43.1985 46.4649C44.4428 48.0272 46.1268 49.1508 48.0169 49.6801C49.2694 50.0919 49.5269 50.1099 52.6631 52.9857C53.3483 53.6521 54.0733 54.2734 54.8338 54.846C56.4871 55.7152 58.2114 56.4319 59.9866 56.9879C60.9681 57.3038 61.1003 58.0206 61.2701 58.9605C61.4279 59.8333 63.0723 61.3325 63.7888 62.3559C62.6986 61.8645 61.403 60.8341 58.6208 58.9215Z" fill="black"/>
<path fill-rule="evenodd" clip-rule="evenodd" d="M56.0918 76.9807L57.0733 92.5978L104.61 95.604L122.68 82.8783V70.0769L104.145 81.4789L56.0918 76.9807Z" fill="white"/>
<path fill-rule="evenodd" clip-rule="evenodd" d="M56.1641 76.9705L86.9296 67.0356L122.807 70.282L103.977 81.4742L56.1641 76.9705Z" fill="#81F8F8"/>
<path fill-rule="evenodd" clip-rule="evenodd" d="M104.146 118.999L117.736 108.121L122.691 106.881L122.807 116.493L104.146 132.507L60.3848 125.556L58.8823 110.25L104.146 118.999Z" fill="white"/>
<path fill-rule="evenodd" clip-rule="evenodd" d="M68.6186 93.4441L63.6499 93.1165L64.1603 101.547L79.4181 117.714L122.691 106.88L122.807 93.5657L79.0209 102.278L68.6186 93.4441Z" fill="white"/>
<path d="M123.015 93.058L114.397 89.2361C123.538 82.7238 123.062 83.1606 123.062 82.8642C123.062 68.9802 123.127 69.9428 122.937 69.7696C122.778 69.6261 86.8185 66.6395 86.7219 66.6707C54.204 77.2787 55.9096 76.6008 55.788 76.8107C55.6664 77.0205 55.6846 76.2935 56.694 92.6493C56.7001 92.7439 56.7393 92.833 56.8043 92.8999C56.8694 92.9668 56.9557 93.0069 57.0473 93.0128L63.218 93.4106C63.6453 102.311 63.5698 101.559 63.7117 101.708L67.1636 105.349L58.7076 109.898C58.6405 109.934 58.5854 109.99 58.5495 110.059C58.5136 110.128 58.4984 110.206 58.506 110.284L60.0085 125.59C60.017 125.675 60.053 125.756 60.1106 125.818C60.1683 125.881 60.2444 125.922 60.3271 125.935C105.849 133.244 104.186 133.016 104.389 132.84C124.259 115.61 123.156 116.647 123.156 116.481C123.156 91.7515 123.234 93.1548 123.015 93.058ZM111.669 90.2305L110.871 77.7162L116.259 74.4309L117.124 86.3446L111.669 90.2305ZM96.0325 75.8708L81.2232 74.558L88.2945 71.4809L102.615 72.7937L96.0325 75.8708ZM104.145 72.9333L115.522 73.9761L110.335 77.139L97.5705 76.0072L104.145 72.9333ZM94.6244 76.5291L88.2069 79.529L72.971 78.1476L79.7283 75.2078L94.6244 76.5291ZM87.495 80.2473L87.2194 94.1766L71.2527 93.1485L71.609 78.8075L87.495 80.2473ZM79.1235 116.847L72.404 109.745V97.1086L78.5822 102.257L79.1235 116.847ZM71.649 96.4791V108.951L67.3455 104.474V93.6766L68.3912 93.7468L71.649 96.4791ZM75.1681 113.795C79.4875 118.35 79.1885 118.106 79.4142 118.106C79.4897 118.106 78.9612 118.23 87.3047 116.142L87.9276 116.262V129.561L72.9205 127.161L72.2296 113.225L75.1681 113.795ZM79.8884 117.196L79.341 102.385L94.441 99.4938L94.6539 113.5L79.8884 117.196ZM87.9669 94.2265C88.2643 79.2232 88.1934 80.3893 88.3308 80.3253L103.775 81.7293L104.272 95.2803L87.9669 94.2265ZM104.048 80.9665L89.7419 79.6686L96.1594 76.6656L109.211 77.8231L104.048 80.9665ZM110.133 78.1624L110.935 90.7477L105.013 94.9667L104.522 81.5835L110.133 78.1624ZM122.297 82.6575L117.834 85.8329L116.974 73.9902L122.297 70.7407V82.6575ZM121.466 70.346C116.478 73.388 116.683 73.3147 116.608 73.2929L105.537 72.2788L111.468 69.5052L121.466 70.346ZM95.8574 68.1917L109.928 69.3749L104.017 72.1384L89.7834 70.8343L95.8574 68.1917ZM86.8797 67.4366L94.2273 68.0544L88.176 70.6869L79.3531 69.878L86.8797 67.4366ZM77.4701 70.4888L86.6879 71.3335L79.6067 74.4145L68.4267 73.4231L77.4701 70.4888ZM66.5324 74.0378L78.1149 75.0642L71.3637 78.0017L58.0379 76.7935L66.5324 74.0378ZM64.3542 101.271L63.9767 93.4621L66.5913 93.6282V103.672L64.3542 101.271ZM57.4279 92.2586L56.5136 77.4386L70.854 78.7388L70.4962 93.1002L57.4279 92.2586ZM59.3063 110.725L71.4618 113.076L72.1534 127.038L60.7257 125.213L59.3063 110.725ZM103.767 132.088L88.6849 129.68V116.407L103.767 119.323V132.088ZM95.4044 113.31L95.1922 99.348L107.317 97.0259L107.547 110.27L95.4044 113.31ZM104.522 131.709V119.19L110.593 114.354V126.43L104.522 131.709ZM111.345 125.777V113.751L116.531 109.578L116.959 120.939L111.345 125.777ZM122.312 116.303L117.69 120.305L117.264 108.99L117.9 108.481L122.312 107.377V116.303ZM122.312 106.572L108.295 110.082L108.069 96.8816L122.477 94.122L122.312 106.572Z" fill="black"/>
<path fill-rule="evenodd" clip-rule="evenodd" d="M112.899 52.881C112.899 52.881 124.586 49.5886 133.625 62.4508C141.317 73.3966 133.781 87.6909 133.781 87.6909L128.698 86.4592L128.938 101.366L145.79 90.9606L138.383 88.6479C138.383 88.6479 143.913 72.2469 138.825 62.3261C132 49.0177 115.495 49.8211 115.495 49.8211L112.899 52.881Z" fill="white"/>
<path fill-rule="evenodd" clip-rule="evenodd" d="M94.9618 138.303C94.9618 138.303 90.7474 149.493 75.6036 148.833C62.7165 148.274 55.5206 133.572 55.5206 133.572L59.1446 132.006L48.2998 121.63L49.1877 139.249L52.478 135.691C52.478 135.691 62.564 150.227 73.165 152.126C87.5326 154.7 95.8195 142.194 95.8195 142.194L94.9618 138.303Z" fill="white"/>
<path d="M128.939 101.757C128.839 101.757 128.744 101.716 128.674 101.644C128.603 101.572 128.562 101.475 128.561 101.372C128.303 85.2261 128.248 86.3337 128.461 86.1559C128.662 85.9882 128.393 85.9851 133.58 87.2417C134.536 85.2573 140.217 72.4934 133.32 62.6802C124.549 50.2002 113.114 53.2251 112.998 53.2578C112.92 53.2798 112.837 53.2751 112.762 53.2445C112.686 53.2139 112.622 53.159 112.579 53.088C112.536 53.017 112.517 52.9335 112.523 52.85C112.53 52.7666 112.562 52.6875 112.615 52.6245C115.404 49.3485 115.247 49.4429 115.475 49.4327C115.641 49.4195 132.301 48.7713 139.159 62.1428C143.892 71.3726 139.688 85.7955 138.865 88.3922L145.9 90.5871C145.97 90.609 146.032 90.6514 146.079 90.7092C146.126 90.7669 146.156 90.8375 146.165 90.9124C146.173 90.9873 146.161 91.0633 146.129 91.1311C146.097 91.1989 146.047 91.2557 145.984 91.2945C127.945 102.434 129.099 101.757 128.939 101.757ZM129.084 86.9546L129.304 100.683L144.862 91.0754C137.702 88.8399 138.15 89.0341 138.047 88.8219C138.024 88.7752 138.01 88.7242 138.007 88.672C138.003 88.6197 138.01 88.5673 138.027 88.5177C138.081 88.3547 143.442 72.1604 138.491 62.5055C132.211 50.2595 117.364 50.1581 115.668 50.2041L113.895 52.2945C117.059 51.846 126.454 51.5816 133.93 62.2185C141.673 73.2368 134.188 87.7292 134.112 87.875C134.073 87.9506 134.01 88.0106 133.935 88.0455C133.859 88.0804 133.774 88.0882 133.694 88.0677L129.084 86.9546Z" fill="black"/>
<path d="M76.9899 152.865C75.6872 152.863 74.3871 152.746 73.1039 152.514C63.3055 150.759 54.1444 138.659 52.4403 136.301L49.4604 139.523C49.4094 139.578 49.344 139.616 49.2722 139.633C49.2004 139.65 49.1254 139.645 49.0564 139.618C48.9874 139.592 48.9274 139.545 48.8838 139.484C48.8402 139.422 48.8149 139.349 48.8111 139.273L47.9224 121.651C47.9184 121.573 47.9368 121.496 47.9755 121.429C48.0142 121.362 48.0712 121.309 48.1394 121.276C48.2076 121.243 48.2837 121.232 48.3581 121.244C48.4324 121.256 48.5016 121.291 48.5566 121.344L59.3969 131.727C59.4433 131.771 59.4781 131.827 59.4982 131.889C59.5183 131.95 59.523 132.017 59.512 132.081C59.5009 132.145 59.4745 132.206 59.435 132.256C59.3955 132.307 59.3442 132.347 59.2859 132.373L56.0492 133.773C57.2769 136.035 64.2418 147.951 75.6234 148.446C90.2968 149.09 94.5739 138.27 94.6139 138.161C94.6433 138.083 94.6961 138.017 94.7644 137.973C94.8327 137.929 94.913 137.908 94.9934 137.914C95.0739 137.92 95.1503 137.953 95.2115 138.007C95.2727 138.062 95.3154 138.135 95.3334 138.216C96.2817 142.506 96.2681 142.218 96.1382 142.415C96.0582 142.53 89.0563 152.865 76.9899 152.865ZM52.4781 135.301C52.538 135.301 52.5971 135.316 52.6504 135.344C52.7037 135.372 52.7497 135.413 52.7846 135.464C52.885 135.608 62.9016 149.894 73.233 151.742C86.3942 154.098 94.4636 143.446 95.4172 142.11L94.8291 139.453C93.3296 142.235 88.0997 149.749 75.5879 149.226C62.6291 148.663 55.2542 133.901 55.1818 133.751C55.1582 133.703 55.1445 133.65 55.1415 133.597C55.1385 133.543 55.1463 133.489 55.1644 133.439C55.2399 133.218 55.144 133.313 58.4532 131.879L48.725 122.569L49.5193 138.325C52.3996 135.211 52.2471 135.301 52.4781 135.301Z" fill="black"/>
<path fill-rule="evenodd" clip-rule="evenodd" d="M106.427 4.35973C107.461 4.24663 108.504 4.24663 109.538 4.35973L109.804 8.24881C110.677 8.39923 111.529 8.65771 112.342 9.01867L114.601 5.89867C115.53 6.38106 116.408 6.9633 117.218 7.63573L115.406 11.0568C116.062 11.6708 116.643 12.364 117.138 13.1215L120.673 11.7565C121.203 12.6808 121.636 13.6605 121.965 14.6791L118.652 16.5457C118.882 17.4283 119.009 18.3362 119.03 19.2499L122.718 20.0759C122.679 21.1494 122.531 22.2155 122.275 23.2568L118.511 22.976C118.243 23.8469 117.874 24.6813 117.412 25.4611L120.083 28.216C119.488 29.0977 118.805 29.9119 118.044 30.6449L115.024 28.3049C114.342 28.8869 113.595 29.3824 112.799 29.7807L113.604 33.5902C112.643 33.9998 111.643 34.3031 110.62 34.495L109.304 30.8415C108.426 30.9505 107.539 30.9505 106.661 30.8415L105.344 34.495C104.322 34.3031 103.322 33.9998 102.361 33.5902L103.165 29.7807C102.369 29.3819 101.622 28.8862 100.941 28.3042L97.9205 30.6442C97.1604 29.9107 96.4771 29.0966 95.882 28.2152L98.5525 25.4603C98.0913 24.6804 97.7224 23.846 97.4539 22.9752L93.6903 23.256C93.4346 22.2148 93.2861 21.1486 93.2471 20.0752L96.9352 19.2491C96.9565 18.3354 97.0832 17.4276 97.3127 16.5449L93.9991 14.6783C94.329 13.6598 94.7622 12.6801 95.2916 11.7557L98.8265 13.1207C99.3216 12.3635 99.9029 11.6703 100.558 11.056L98.7457 7.63495C99.5562 6.96217 100.433 6.37991 101.363 5.89789L103.622 9.01789C104.436 8.65692 105.288 8.39844 106.161 8.24803L106.427 4.35973ZM107.982 14.3663C106.998 14.3663 106.036 14.6679 105.218 15.2328C104.399 15.7977 103.762 16.6006 103.385 17.54C103.008 18.4793 102.91 19.513 103.102 20.5103C103.294 21.5075 103.768 22.4236 104.464 23.1425C105.16 23.8615 106.046 24.3512 107.012 24.5495C107.977 24.7479 108.977 24.6461 109.887 24.257C110.796 23.8679 111.573 23.2089 112.12 22.3635C112.667 21.5181 112.959 20.5241 112.959 19.5073C112.958 18.1438 112.433 16.8363 111.5 15.8722C110.567 14.9082 109.301 14.3666 107.981 14.3663H107.982Z" fill="#FFD997"/>
<path fill-rule="evenodd" clip-rule="evenodd" d="M81.2321 22.4964C81.9369 22.4254 82.6466 22.4254 83.3514 22.4964L83.7002 24.2514C84.3757 24.3579 85.0378 24.541 85.6745 24.7974L86.8267 23.4573C87.471 23.7591 88.0854 24.1248 88.6613 24.5493L88.1147 26.2497C88.648 26.691 89.1326 27.1917 89.5598 27.7426L91.2057 27.1771C91.6165 27.7724 91.9705 28.4075 92.2627 29.0733L90.9656 30.2628C91.2137 30.9206 91.391 31.6046 91.4941 32.3025L93.1936 32.6629C93.2615 33.391 93.2615 34.1242 93.1936 34.8523L91.4941 35.2127C91.391 35.9106 91.2137 36.5946 90.9656 37.2524L92.2627 38.4427C91.9703 39.1082 91.6163 39.7429 91.2057 40.3381L89.5598 39.7726C89.1326 40.3235 88.648 40.8242 88.1147 41.2655L88.6613 42.9667C88.0853 43.3909 87.4709 43.7566 86.8267 44.0587L85.6745 42.7288C85.0378 42.9851 84.3757 43.1682 83.7002 43.2748L83.3514 45.0298C82.6466 45.1007 81.9369 45.1007 81.2321 45.0298L80.8833 43.2748C80.208 43.1682 79.5462 42.9851 78.9097 42.7288L77.7576 44.0688C77.1131 43.7669 76.4984 43.4012 75.9222 42.9768L76.4696 41.2756C75.9359 40.8345 75.451 40.3338 75.0238 39.7827L73.3779 40.3482C72.9675 39.7529 72.6135 39.1182 72.3209 38.4528L73.6179 37.2625C73.3701 36.6046 73.1929 35.9206 73.0894 35.2228L71.3914 34.8625C71.322 34.1344 71.322 33.4011 71.3914 32.673L73.0894 32.3126C73.1929 31.6148 73.3701 30.9308 73.6179 30.273L72.3186 29.0788C72.6111 28.4131 72.9651 27.7781 73.3756 27.1826L75.0215 27.7481C75.4487 27.197 75.9336 26.6963 76.4673 26.2552L75.9252 24.5548C76.5013 24.1301 77.116 23.7644 77.7606 23.4628L78.9128 24.8028C79.55 24.5465 80.2126 24.3634 80.8886 24.2568L81.2321 22.4964ZM82.2891 31.4976C81.8561 31.4976 81.4328 31.6302 81.0727 31.8788C80.7126 32.1273 80.432 32.4806 80.2663 32.8939C80.1006 33.3072 80.0572 33.7621 80.1417 34.2008C80.2262 34.6396 80.4347 35.0427 80.7409 35.359C81.0471 35.6754 81.4372 35.8908 81.862 35.9781C82.2867 36.0654 82.7269 36.0206 83.127 35.8494C83.5271 35.6782 83.869 35.3882 84.1096 35.0163C84.3502 34.6443 84.4786 34.2069 84.4786 33.7595C84.4788 33.16 84.2486 32.585 83.8387 32.1607C83.4287 31.7364 82.8724 31.4976 82.2921 31.4968L82.2891 31.4976Z" fill="#FFD997"/>
<path d="M107.981 13.9761C106.923 13.9762 105.888 14.3007 105.007 14.9086C104.127 15.5164 103.441 16.3803 103.036 17.391C102.631 18.4016 102.525 19.5137 102.731 20.5866C102.938 21.6594 103.448 22.6449 104.197 23.4183C104.946 24.1918 105.899 24.7185 106.938 24.9318C107.976 25.1452 109.053 25.0356 110.031 24.6169C111.009 24.1983 111.845 23.4894 112.434 22.5798C113.022 21.6703 113.336 20.6009 113.336 19.5071C113.334 18.0406 112.769 16.6347 111.766 15.5978C110.762 14.561 109.401 13.9777 107.981 13.9761ZM107.981 24.258C107.072 24.2579 106.183 23.9791 105.427 23.457C104.671 22.9348 104.081 22.1928 103.733 21.3246C103.385 20.4565 103.294 19.5013 103.472 18.5797C103.649 17.6582 104.087 16.8117 104.731 16.1473C105.374 15.483 106.193 15.0306 107.085 14.8473C107.977 14.6641 108.902 14.7582 109.742 15.1178C110.582 15.4774 111.301 16.0864 111.806 16.8676C112.311 17.6489 112.581 18.5674 112.581 19.5071C112.579 20.7667 112.094 21.9741 111.232 22.8647C110.369 23.7553 109.201 24.2564 107.981 24.258Z" fill="black"/>
<path d="M122.796 19.692L119.399 18.9299C119.364 18.1917 119.263 17.4585 119.097 16.7397L122.151 15.0175C122.23 14.9736 122.29 14.9026 122.323 14.8169C122.355 14.7313 122.357 14.6366 122.329 14.5495C121.991 13.5046 121.546 12.4996 121.004 11.5511C120.959 11.4722 120.888 11.4122 120.804 11.3817C120.721 11.3511 120.629 11.352 120.546 11.3842L117.287 12.6431C116.871 12.0422 116.401 11.4826 115.884 10.9716L117.554 7.81727C117.597 7.73696 117.611 7.6437 117.594 7.55385C117.576 7.464 117.529 7.38329 117.46 7.32587C116.628 6.63578 115.729 6.03836 114.776 5.54357C114.697 5.50242 114.606 5.49135 114.52 5.51232C114.433 5.53328 114.357 5.58494 114.304 5.65823L112.22 8.53955C111.556 8.26538 110.868 8.05646 110.165 7.91555L109.92 4.32755C109.913 4.2362 109.876 4.15003 109.815 4.08415C109.753 4.01826 109.671 3.97686 109.583 3.96719C108.523 3.85176 107.453 3.85176 106.393 3.96719C106.305 3.97686 106.223 4.01826 106.161 4.08415C106.1 4.15003 106.063 4.2362 106.056 4.32755L105.81 7.91555C105.108 8.05658 104.42 8.2655 103.755 8.53955L101.671 5.65823C101.618 5.58494 101.542 5.53328 101.456 5.51232C101.369 5.49135 101.279 5.50242 101.199 5.54357C100.247 6.03873 99.3475 6.63613 98.5161 7.32587C98.4471 7.38329 98.3997 7.464 98.3825 7.55385C98.3652 7.6437 98.3791 7.73696 98.4218 7.81727L100.086 10.9747C99.5693 11.4858 99.0999 12.0453 98.6838 12.6463L95.4237 11.3873C95.3407 11.3554 95.2494 11.3546 95.1659 11.3851C95.0824 11.4156 95.012 11.4755 94.9669 11.5543C94.4242 12.5025 93.9798 13.5072 93.6411 14.5518C93.6125 14.6389 93.6147 14.7336 93.6471 14.8193C93.6796 14.9049 93.7403 14.9759 93.8185 15.0198L96.874 16.742C96.7074 17.4608 96.6063 18.1941 96.572 18.9323L93.17 19.6943C93.0836 19.7138 93.0066 19.764 92.9524 19.8361C92.8982 19.9082 92.8702 19.9977 92.8733 20.089C92.9124 21.1901 93.0643 22.2837 93.3263 23.3518C93.349 23.4401 93.4005 23.5175 93.4722 23.571C93.544 23.6244 93.6314 23.6506 93.7196 23.645L97.1926 23.3853C97.4271 24.0838 97.7249 24.7578 98.082 25.3985L95.6185 27.9397C95.5558 28.0045 95.5172 28.0901 95.5094 28.1814C95.5017 28.2726 95.5253 28.3638 95.5762 28.4389C96.1862 29.3421 96.8864 30.1767 97.6653 30.9287C97.73 30.9912 97.814 31.0282 97.9024 31.0332C97.9909 31.0381 98.0783 31.0108 98.1492 30.956L100.934 28.7985C101.497 29.2547 102.1 29.6555 102.736 29.9958L101.994 33.5058C101.975 33.5954 101.988 33.6889 102.029 33.7699C102.07 33.8509 102.138 33.9142 102.22 33.9488C103.206 34.3683 104.232 34.6794 105.281 34.877C105.368 34.8922 105.457 34.8759 105.534 34.8308C105.611 34.7858 105.67 34.7148 105.702 34.6298L106.916 31.2602C107.629 31.3288 108.346 31.3288 109.058 31.2602L110.272 34.6298C110.299 34.7042 110.347 34.7683 110.411 34.8136C110.474 34.8589 110.549 34.8832 110.626 34.8833C111.699 34.6937 112.748 34.3797 113.754 33.9473C113.836 33.9127 113.903 33.8493 113.945 33.7683C113.986 33.6873 113.999 33.5938 113.98 33.5042L113.239 29.9942C113.872 29.6536 114.474 29.2525 115.035 28.7962L117.82 30.9536C117.891 31.0085 117.978 31.0358 118.067 31.0308C118.155 31.0258 118.239 30.9888 118.304 30.9263C119.083 30.1743 119.783 29.3398 120.392 28.4366C120.443 28.3615 120.467 28.2703 120.459 28.179C120.451 28.0877 120.413 28.0022 120.35 27.9374L117.887 25.3961C118.244 24.7553 118.542 24.0813 118.777 23.383L122.25 23.6427C122.338 23.6493 122.426 23.6236 122.498 23.57C122.57 23.5163 122.621 23.4383 122.643 23.3494C122.904 22.2813 123.056 21.1877 123.096 20.0867C123.099 19.995 123.07 19.9051 123.016 19.8329C122.961 19.7608 122.883 19.7108 122.796 19.692ZM121.981 22.8385L118.536 22.5811C118.451 22.5747 118.367 22.5979 118.297 22.647C118.226 22.6961 118.174 22.7683 118.148 22.8518C117.458 25.0904 116.741 25.3166 117.143 25.7315L119.587 28.2533C119.114 28.9215 118.587 29.5476 118.013 30.1253L115.25 27.985C115.182 27.9325 115.099 27.9052 115.014 27.9075C114.929 27.9097 114.848 27.9414 114.783 27.9974C113.035 29.4919 112.309 29.2868 112.43 29.8577L113.166 33.3436C112.418 33.6437 111.647 33.8786 110.861 34.0456L109.653 30.7009C109.624 30.6189 109.568 30.5496 109.496 30.504C109.424 30.4585 109.339 30.4394 109.255 30.4498C106.983 30.7321 106.502 30.1495 106.301 30.7009L105.097 34.0456C104.31 33.8786 103.539 33.6438 102.791 33.3436L103.528 29.8577C103.546 29.7721 103.536 29.6827 103.498 29.6038C103.461 29.525 103.4 29.4614 103.323 29.4233C101.273 28.3984 101.161 27.6293 100.708 27.985L97.9446 30.1253C97.3703 29.5477 96.8438 28.9215 96.3704 28.2533L98.8151 25.7315C98.8751 25.6696 98.9132 25.5886 98.9232 25.5016C98.9332 25.4145 98.9146 25.3266 98.8702 25.2518C97.6879 23.2535 97.9808 22.5289 97.4221 22.5811L93.9778 22.8385C93.7976 22.0305 93.6829 21.2084 93.6351 20.3807L97.0107 19.6257C97.0935 19.6072 97.1678 19.5604 97.2218 19.4929C97.2758 19.4254 97.3062 19.3411 97.3081 19.2536C97.3617 16.9004 97.9876 16.4776 97.4878 16.1984L94.4603 14.4925C94.7315 13.7124 95.0654 12.9571 95.4584 12.2344L98.6928 13.4824C98.7723 13.5131 98.8595 13.5153 98.9403 13.4886C99.0211 13.4618 99.0909 13.4077 99.1383 13.335C100.414 11.385 101.16 11.3788 100.888 10.864L99.2311 7.73459C99.8673 7.22957 100.543 6.78054 101.252 6.39221L103.32 9.25091C103.371 9.32129 103.444 9.37183 103.526 9.39434C103.608 9.41685 103.695 9.41001 103.773 9.37493C105.861 8.44829 106.498 8.85623 106.538 8.27435L106.782 4.71521C107.582 4.64579 108.385 4.64579 109.185 4.71521L109.429 8.27435C109.435 8.36168 109.469 8.44439 109.526 8.50919C109.583 8.57399 109.659 8.6171 109.743 8.63159C111.996 9.02159 112.302 9.72359 112.645 9.25091L114.713 6.39221C115.422 6.78064 116.098 7.22967 116.734 7.73459L115.077 10.864C115.036 10.9406 115.021 11.0293 115.035 11.1158C115.049 11.2022 115.09 11.2814 115.153 11.3405C116.834 12.9177 116.738 13.6852 117.267 13.4824L120.503 12.2344C120.895 12.9571 121.229 13.7124 121.501 14.4925L118.469 16.2015C118.394 16.2433 118.336 16.3097 118.302 16.3901C118.269 16.4704 118.262 16.56 118.284 16.6445C118.875 18.9065 118.392 19.5048 118.945 19.6288L122.321 20.3846C122.274 21.2109 122.16 22.0318 121.981 22.8385Z" fill="black"/>
<path d="M93.5724 32.6299C93.5647 32.5464 93.5311 32.4677 93.4767 32.4055C93.4223 32.3432 93.35 32.3007 93.2704 32.2843L91.8245 31.9778C91.7292 31.4348 91.5909 30.9007 91.4108 30.3811L92.5138 29.3671C92.5742 29.3118 92.6157 29.2379 92.6325 29.1563C92.6492 29.0748 92.6401 28.9898 92.6067 28.914C92.3036 28.225 91.9365 27.568 91.5105 26.9523C91.4635 26.8847 91.3969 26.8343 91.3202 26.8086C91.2436 26.783 91.1611 26.7833 91.0846 26.8095L89.6841 27.29C89.3384 26.8684 88.9596 26.4771 88.5516 26.12L89.0167 24.6723C89.042 24.5933 89.0422 24.5079 89.0172 24.4288C88.9922 24.3496 88.9433 24.2808 88.8778 24.2324C88.2822 23.7931 87.6471 23.4141 86.9812 23.1006C86.9078 23.0661 86.8255 23.0568 86.7466 23.074C86.6677 23.0913 86.5961 23.1342 86.5426 23.1966L85.5611 24.3369C85.058 24.1502 84.5408 24.007 84.0148 23.9087L83.7173 22.415C83.7015 22.3329 83.6605 22.2582 83.6004 22.202C83.5403 22.1458 83.4643 22.1111 83.3836 22.103C82.6554 22.0321 81.9224 22.0321 81.1941 22.103C81.1135 22.1111 81.0374 22.1458 80.9773 22.202C80.9172 22.2582 80.8763 22.3329 80.8604 22.415L80.563 23.9087C80.0372 24.0071 79.5203 24.1503 79.0175 24.3369L78.0397 23.1989C77.9862 23.1366 77.9146 23.0936 77.8357 23.0764C77.7567 23.0591 77.6745 23.0684 77.6011 23.103C76.9345 23.416 76.2989 23.7951 75.703 24.2347C75.6373 24.2832 75.5883 24.3521 75.5633 24.4315C75.5383 24.5108 75.5386 24.5963 75.5641 24.6754L76.0299 26.1223C75.6217 26.4793 75.2429 26.8706 74.8974 27.2923L73.4969 26.8119C73.4205 26.7856 73.3379 26.7853 73.2613 26.811C73.1847 26.8367 73.118 26.887 73.0711 26.9546C72.6454 27.5705 72.2782 28.2274 71.9748 28.9163C71.9414 28.9922 71.9324 29.0771 71.9491 29.1587C71.9658 29.2402 72.0074 29.3141 72.0677 29.3695L73.1707 30.3835C72.99 30.9022 72.8509 31.4355 72.7547 31.9778L71.3097 32.2851C71.2303 32.3014 71.1581 32.3437 71.1037 32.4056C71.0493 32.4675 71.0157 32.5459 71.0077 32.6291C70.9369 33.3813 70.9369 34.1389 71.0077 34.8911C71.0157 34.9743 71.0493 35.0527 71.1037 35.1146C71.1581 35.1765 71.2303 35.2188 71.3097 35.2351L72.7547 35.5447C72.8502 36.088 72.9886 36.6223 73.1685 37.1422L72.0654 38.1562C72.0051 38.2115 71.9635 38.2854 71.9468 38.367C71.9301 38.4485 71.9391 38.5335 71.9726 38.6094C72.2761 39.2979 72.6433 39.9546 73.0688 40.5703C73.1157 40.638 73.1823 40.6885 73.2589 40.7143C73.3355 40.7402 73.4181 40.74 73.4946 40.7138L74.8952 40.2333C75.2409 40.6549 75.6196 41.0462 76.0277 41.4033L75.5618 42.8487C75.5362 42.9277 75.5359 43.0132 75.5607 43.0925C75.5856 43.1718 75.6344 43.2408 75.7 43.2894C76.296 43.7294 76.9319 44.1087 77.5988 44.4219C77.6723 44.4565 77.7545 44.4658 77.8334 44.4485C77.9124 44.4313 77.9839 44.3883 78.0375 44.326L79.019 43.1864C79.5222 43.3725 80.0394 43.5157 80.5652 43.6146L80.8627 45.1075C80.8785 45.1895 80.9194 45.2641 80.9793 45.3203C81.0393 45.3765 81.1151 45.4113 81.1956 45.4195C81.9238 45.4927 82.657 45.4927 83.3851 45.4195C83.4657 45.4113 83.5415 45.3765 83.6015 45.3203C83.6614 45.2641 83.7023 45.1895 83.7181 45.1075L84.0156 43.6146C84.5415 43.5159 85.0586 43.3727 85.5618 43.1864L86.5433 44.326C86.5968 44.3881 86.6682 44.431 86.747 44.4482C86.8258 44.4655 86.9079 44.4563 86.9812 44.4219C87.6478 44.1086 88.2835 43.7293 88.8793 43.2894C88.9447 43.2409 88.9934 43.172 89.0183 43.0928C89.0431 43.0137 89.0429 42.9284 89.0174 42.8494L88.5524 41.4033C88.9602 41.046 89.339 40.6547 89.6849 40.2333L91.0854 40.7138C91.1619 40.74 91.2445 40.7402 91.3211 40.7143C91.3978 40.6885 91.4644 40.638 91.5112 40.5703C91.937 39.9547 92.3042 39.298 92.6075 38.6094C92.6409 38.5335 92.6499 38.4485 92.6332 38.367C92.6165 38.2854 92.5749 38.2115 92.5146 38.1562L91.4115 37.1422C91.5914 36.6223 91.7298 36.088 91.8253 35.5447L93.2711 35.2382C93.3506 35.2218 93.4229 35.1795 93.4773 35.1174C93.5317 35.0553 93.5653 34.9768 93.5731 34.8934C93.6431 34.1406 93.6428 33.3826 93.5724 32.6299ZM92.8438 34.5331L91.4214 34.8342C91.3459 34.8503 91.2771 34.8899 91.224 34.9476C91.171 35.0053 91.1363 35.0784 91.1246 35.1571C90.7094 37.9581 89.897 36.7951 91.8042 38.5438C91.5862 39.0067 91.3367 39.4529 91.0575 39.8792L89.6803 39.4065C89.6071 39.3814 89.5282 39.38 89.4543 39.4026C89.3803 39.4252 89.3148 39.4707 89.2666 39.5329C87.5497 41.7418 87.4131 40.3215 88.2156 42.8159C87.8028 43.1041 87.3709 43.3618 86.9231 43.5873L85.9574 42.4657C85.9063 42.4062 85.8387 42.3642 85.7638 42.3456C85.6889 42.3269 85.6102 42.3323 85.5384 42.3612C82.9835 43.3915 83.5528 42.0819 83.0394 44.6622C82.5424 44.6988 82.0436 44.6988 81.5467 44.6622L81.2545 43.1934C81.2391 43.1153 81.2008 43.044 81.1449 42.9891C81.0891 42.9341 81.0182 42.8982 80.942 42.8861C78.2323 42.454 79.3565 41.6217 77.6638 43.5881C77.2158 43.3628 76.7839 43.105 76.3712 42.8167L76.8295 41.394C76.854 41.3182 76.8554 41.2366 76.8335 41.16C76.8116 41.0834 76.7675 41.0156 76.7072 40.9657C74.5652 39.1951 75.9522 39.0485 73.5286 39.88C73.2494 39.4537 72.9999 39.0075 72.7819 38.5446L73.8676 37.5486C73.9251 37.4956 73.9655 37.4257 73.9835 37.3484C74.0014 37.271 73.996 37.1898 73.968 37.1157C72.9744 34.4746 74.2376 35.0627 71.7415 34.5331C71.7068 34.0194 71.7068 33.5039 71.7415 32.9902L73.164 32.6884C73.2394 32.6725 73.3084 32.6331 73.3616 32.5755C73.4147 32.5179 73.4496 32.4449 73.4614 32.3662C73.8759 29.566 74.6883 30.7282 72.7819 28.9803C72.9998 28.5172 73.2494 28.0706 73.5286 27.6441L74.9065 28.1168C74.9803 28.1419 75.0597 28.1428 75.134 28.1195C75.2084 28.0962 75.2739 28.0497 75.3217 27.9865C77.0371 25.776 77.179 27.2065 76.3735 24.7027C76.7863 24.4147 77.2182 24.1569 77.666 23.9313L78.6302 25.0537C78.6814 25.1131 78.749 25.1549 78.8239 25.1734C78.8988 25.192 78.9774 25.1864 79.0492 25.1575C81.6056 24.1302 81.0363 25.4352 81.549 22.8565C82.046 22.8222 82.5446 22.8222 83.0416 22.8565L83.3338 24.3268C83.3494 24.4047 83.3877 24.4759 83.4436 24.5307C83.4995 24.5855 83.5702 24.6213 83.6464 24.6333C86.3576 25.0615 85.2319 25.9024 86.9246 23.9313C87.3724 24.1574 87.8045 24.4152 88.2179 24.7027L87.7596 26.1278C87.7355 26.2033 87.7342 26.2847 87.7561 26.3609C87.778 26.4372 87.8219 26.5047 87.8819 26.5545C90.0231 28.3243 88.6369 28.4725 91.0597 27.6402C91.339 28.0668 91.5885 28.5133 91.8064 28.9764L90.7207 29.9716C90.6631 30.0247 90.6226 30.0947 90.6046 30.1722C90.5866 30.2497 90.5921 30.3311 90.6203 30.4053C91.6154 33.0456 90.3515 32.4575 92.8468 32.9863C92.8807 33.5014 92.8797 34.0182 92.8438 34.5331Z" fill="black"/>
<path d="M82.2916 31.1067C81.7839 31.1067 81.2876 31.2622 80.8655 31.5536C80.4433 31.845 80.1143 32.2592 79.92 32.7438C79.7257 33.2284 79.6749 33.7616 79.7739 34.2761C79.873 34.7905 80.1175 35.263 80.4765 35.6339C80.8355 36.0048 81.2929 36.2574 81.7908 36.3597C82.2888 36.4621 82.8049 36.4095 83.274 36.2088C83.743 36.0081 84.1439 35.6682 84.426 35.2321C84.7081 34.7959 84.8586 34.2832 84.8586 33.7587C84.8572 33.0558 84.5863 32.3821 84.1052 31.885C83.6241 31.388 82.972 31.1081 82.2916 31.1067ZM82.2916 35.6346C81.9332 35.6346 81.5829 35.5248 81.2849 35.3191C80.9869 35.1134 80.7547 34.821 80.6175 34.479C80.4804 34.1369 80.4445 33.7605 80.5144 33.3974C80.5843 33.0342 80.7569 32.7007 81.0103 32.4389C81.2637 32.1771 81.5866 31.9988 81.9381 31.9266C82.2896 31.8543 82.6539 31.8914 82.985 32.0331C83.3161 32.1748 83.5991 32.4147 83.7982 32.7226C83.9973 33.0304 84.1036 33.3923 84.1036 33.7626C84.1028 34.2589 83.9117 34.7346 83.5721 35.0857C83.2324 35.4367 82.772 35.6343 82.2916 35.6354V35.6346Z" fill="black"/>
<path d="M33.7813 27.3463C33.5294 27.2507 33.2585 27.2214 32.9929 27.261C32.7273 27.3007 32.4754 27.408 32.26 27.5733C32.1758 27.6294 32.1166 27.7177 32.0954 27.8188C32.0743 27.92 32.0929 28.0257 32.1471 28.1127C32.2014 28.1997 32.2869 28.2608 32.3848 28.2827C32.4827 28.3046 32.585 28.2853 32.6692 28.2293C32.7209 28.196 32.7746 28.1663 32.83 28.1404C32.8265 28.2438 32.8629 28.3444 32.9313 28.4201C32.9996 28.4958 33.0942 28.5404 33.1943 28.544C33.2944 28.5476 33.3918 28.51 33.4651 28.4394C33.5384 28.3689 33.5815 28.2711 33.585 28.1677V28.0725C33.6683 28.0736 33.7496 28.0463 33.8163 27.9947C33.8829 27.9432 33.9312 27.8703 33.9536 27.7874C33.976 27.7046 33.9713 27.6164 33.9401 27.5366C33.9089 27.4568 33.8531 27.3899 33.7813 27.3463Z" fill="black"/>
<path d="M36.6965 26.8511C36.0744 26.4572 35.3602 27.1374 35.2809 27.2162C35.2126 27.2886 35.1743 27.3855 35.1738 27.4866C35.1734 27.5876 35.211 27.6849 35.2786 27.7579C35.3462 27.8309 35.4387 27.874 35.5364 27.878C35.6342 27.8819 35.7296 27.8466 35.8026 27.7793C35.8526 27.7308 35.9067 27.687 35.9642 27.6483C35.989 27.7427 36.0473 27.824 36.1275 27.8761C36.2077 27.9282 36.3039 27.9473 36.397 27.9295C36.4901 27.9117 36.5734 27.8584 36.6303 27.7802C36.6872 27.7019 36.7135 27.6045 36.7041 27.5071C36.7568 27.4711 36.8 27.4221 36.8296 27.3644C36.8592 27.3067 36.8743 27.2423 36.8736 27.177C36.8728 27.1117 36.8562 27.0476 36.8253 26.9907C36.7943 26.9338 36.7501 26.8858 36.6965 26.8511Z" fill="black"/>
<path d="M33.0042 32.3546C32.9114 32.3157 32.8374 32.2403 32.7984 32.145C32.7594 32.0497 32.7586 31.9423 32.7962 31.8464C32.8339 31.7505 32.9069 31.674 32.9991 31.6337C33.0914 31.5934 33.1953 31.5926 33.2881 31.6315C33.3032 31.6386 34.6954 32.2033 35.5267 31.3695C35.5987 31.2978 35.6952 31.2586 35.7951 31.2603C35.895 31.2621 35.9902 31.3047 36.0597 31.3788C36.6252 31.9786 34.8276 33.1128 33.0042 32.3546Z" fill="black"/>
<path d="M34.5846 22.2349C34.5191 22.2349 34.4547 22.2172 34.3978 22.1837C34.3408 22.1502 34.2933 22.102 34.2599 22.0438C33.5776 20.9793 32.6145 20.1389 31.4845 19.6219C31.3924 19.5826 31.319 19.5073 31.2804 19.4123C31.2418 19.3174 31.2411 19.2105 31.2785 19.1151C31.3159 19.0196 31.3883 18.9433 31.4799 18.9028C31.5716 18.8623 31.675 18.8608 31.7677 18.8988C33.0535 19.4752 34.1461 20.4308 34.9085 21.646C34.9424 21.7051 34.9606 21.7725 34.9612 21.8413C34.9619 21.91 34.9449 21.9778 34.912 22.0375C34.8791 22.0973 34.8315 22.1471 34.774 22.1817C34.7165 22.2164 34.6511 22.2347 34.5846 22.2349Z" fill="white"/>
</svg>
