<svg width="152" height="158" viewBox="0 0 152 158" fill="none" xmlns="http://www.w3.org/2000/svg">
<path fill-rule="evenodd" clip-rule="evenodd" d="M103.914 99.1541C103.914 89.5693 84.2964 81.7986 60.0964 81.7986C35.8964 81.7986 16.2808 89.5701 16.2808 99.1557V118.095C16.2808 127.672 35.9145 135.241 60.0987 135.241C84.2829 135.241 103.917 127.461 103.917 117.883L103.914 99.1541Z" fill="white"/>
<path d="M104.291 99.1541C104.291 89.3675 84.4659 81.4069 60.096 81.4069C35.7261 81.4069 15.9028 89.3675 15.9028 99.1541V118.095C15.9028 127.929 35.3161 135.634 60.0983 135.634C84.4681 135.634 104.294 127.672 104.294 117.885L104.291 99.1541ZM60.096 82.1919C84.0469 82.1919 103.533 89.8009 103.536 99.1526V99.1651C103.521 108.514 84.0393 116.116 60.096 116.116C36.1527 116.116 16.6578 108.507 16.6578 99.1541C16.6578 89.8009 36.1436 82.1919 60.096 82.1919ZM103.536 117.883C103.536 127.238 84.0491 134.849 60.096 134.849C36.1429 134.849 16.6578 127.333 16.6578 118.095V102.402C20.4706 110.645 38.4924 116.901 60.0983 116.901C81.7041 116.901 99.7244 110.643 103.539 102.404L103.536 117.883Z" fill="black"/>
<path fill-rule="evenodd" clip-rule="evenodd" d="M118.305 73.5035L117.522 77.3461C115.563 82.4815 114.565 88.9264 114.264 97.6045C116.579 87.792 117.309 84.3867 120.693 73.9682C123.223 63.3982 129.248 57.6331 129.248 57.6331V56.2123C128.363 56.8491 127.521 57.5486 126.729 58.3059C125.617 58.2757 124.512 58.4837 123.481 58.9168C122.45 59.3499 121.516 59.9989 120.736 60.8234C117.885 63.6792 112.925 68.4763 110.339 68.7472C110.339 68.7472 104.878 62.0558 103.417 59.0767C102.942 59.9848 102.238 60.7418 101.381 61.267C100.524 61.7923 99.5468 62.0663 98.5522 62.0597C98.5522 62.0597 105.234 76.7102 110.324 76.4205C113.21 76.3282 115.998 75.3092 118.305 73.5035Z" fill="#81F8F8"/>
<path fill-rule="evenodd" clip-rule="evenodd" d="M101.92 58.5743C100.863 59.3468 99.0512 60.4858 99.0512 60.4858C98.3256 59.4116 97.4151 58.4862 96.3657 57.7564C94.8391 56.7971 93.9588 56.8881 93.2921 55.0222C90.5439 52.5526 91.6839 48.9855 92.3408 49.9754C92.3408 49.9754 92.3551 47.819 93.4129 48.8403C93.8984 49.3113 94.1868 52.2347 95.5548 53.493C93.4657 49.3631 95.1101 49.1865 95.4318 50.3483C96.1736 51.9575 97.3449 53.3109 98.8059 54.2474C98.8204 53.6064 98.6548 52.9748 98.3294 52.4301C97.7707 51.4096 97.918 50.5289 98.2351 50.1952C98.5522 49.8616 99.2422 50.9622 99.5382 51.9968C99.7785 52.8833 100.253 53.6822 100.907 54.3031C101.503 54.884 101.961 56.3088 101.92 58.5743Z" fill="#FFD997"/>
<path fill-rule="evenodd" clip-rule="evenodd" d="M97.6045 81.1887C97.6045 73.4117 80.811 67.1042 60.0961 67.1042C39.3811 67.1042 22.5869 73.4101 22.5869 81.1879V96.555C22.5869 104.327 39.394 110.468 60.0961 110.468C80.7982 110.468 97.6045 104.155 97.6045 96.3831V81.1887Z" fill="white"/>
<path d="M97.9823 81.1855C97.9823 73.2044 80.9864 66.7117 60.0956 66.7117C39.2047 66.7117 22.2104 73.2044 22.2104 81.1855V96.5542C22.2104 104.576 38.8522 110.86 60.0956 110.86C80.9857 110.86 97.9823 104.367 97.9823 96.3855V81.1855ZM60.0956 67.4967C80.5682 67.4967 97.2235 73.6377 97.2265 81.1847V81.1965C97.2106 88.7403 80.5606 94.8759 60.0956 94.8759C39.6306 94.8759 22.9654 88.7348 22.9654 81.1855C22.9654 73.6362 39.6215 67.4967 60.0956 67.4967ZM97.2265 96.3847C97.2265 103.934 80.5704 110.076 60.0956 110.076C39.6208 110.076 22.9654 104.011 22.9654 96.555V84.0657C26.4694 90.673 41.7853 95.6617 60.0956 95.6617C78.4059 95.6617 93.721 90.6738 97.2265 84.0672V96.3847Z" fill="black"/>
<path fill-rule="evenodd" clip-rule="evenodd" d="M61.5133 38.9965L32.7568 41.4025V50.1945L34.2774 50.5014L34.9433 78.0997L59.4748 85.4685L84.004 78.0997L84.6691 50.5713L86.5151 50.1945V41.3907L61.5133 38.9965Z" fill="#FFD997"/>
<path d="M86.5852 40.9998C71.2662 39.4737 75.0103 39.8026 61.4822 38.6039L32.7008 41.0123C32.6086 41.0213 32.5234 41.0674 32.4633 41.1407C32.4033 41.214 32.3731 41.3087 32.3792 41.4048V50.1968C32.3854 50.2899 32.4213 50.3781 32.4812 50.4475C32.5411 50.5169 32.6216 50.5635 32.7099 50.5799L33.9073 50.8217L34.5664 78.1091C34.5684 78.1925 34.5959 78.273 34.6449 78.3391C34.6939 78.4052 34.7619 78.4533 34.839 78.4764C60.1851 86.0839 59.3908 85.8609 59.4754 85.8609C59.56 85.8609 57.8318 86.3633 84.111 78.4757C84.1881 78.4525 84.2561 78.4044 84.3051 78.3383C84.3541 78.2723 84.3816 78.1917 84.3836 78.1083L85.0404 50.9002L86.5587 50.5783C86.6472 50.5618 86.728 50.5156 86.7888 50.4466C86.8495 50.3777 86.8867 50.2899 86.8947 50.1968V41.3938C86.9026 41.2992 86.8747 41.2051 86.8169 41.1315C86.7591 41.0579 86.6759 41.0106 86.5852 40.9998ZM73.6309 40.5492L83.4459 41.4912L76.8925 42.2895L69.0646 41.1159L73.6309 40.5492ZM51.7147 43.2865L61.1605 42.109L69.0933 43.2354L60.2598 44.3117L51.7147 43.2865ZM59.874 45.0574V55.2577L48.7144 53.0079L48.8593 43.7339L59.874 45.0574ZM60.6358 45.0574L71.7207 43.7064L71.8581 52.8909L60.6358 55.2664V45.0574ZM49.2897 40.4094C49.3924 40.4369 48.7544 40.3419 54.019 41.0916L43.2165 42.2691L36.6012 41.4755L49.2897 40.4094ZM33.1327 49.8718V41.8436L42.839 43.0117L42.9318 51.8414L33.1327 49.8718ZM35.3139 77.8021L34.6661 50.9748L42.9401 52.6437L43.2263 80.1791L35.3139 77.8021ZM59.1107 84.9511L48.2682 81.6942L48.7023 53.8055L59.8438 56.0537L59.1107 84.9511ZM60.5988 56.0749L71.8672 53.6893L72.2794 81.2129L59.8665 84.9433L60.5988 56.0749ZM83.6331 77.8021L76.9197 79.8188L77.1726 52.566L84.2786 51.0611L83.6331 77.8021ZM86.1359 49.8734L77.1801 51.7629L77.2609 43.0321L86.1359 41.948V49.8734Z" fill="black"/>
<path d="M80.0819 34.0847C79.2678 35.833 77.9572 37.2795 76.3273 38.2287C76.5681 37.2283 76.6733 36.1979 76.6398 35.1672C76.6356 35.0884 76.6085 35.0127 76.5623 34.9501C76.516 34.8875 76.4526 34.8408 76.3805 34.8162C76.3083 34.7917 76.2307 34.7903 76.1578 34.8123C76.0848 34.8343 76.02 34.8786 75.9717 34.9395C73.4281 38.1667 68.4972 38.7421 65.6659 38.786C70.5374 37.1688 74.6573 33.7278 77.2265 29.1305C77.2573 29.0678 77.2713 28.9976 77.2671 28.9273C77.2628 28.857 77.2404 28.7892 77.2023 28.731C75.2446 25.7401 70.8097 24.7102 70.6225 24.6678C70.5633 24.6548 70.502 24.6565 70.4435 24.6725C65.1933 26.1444 62.6761 32.1379 61.8577 34.5635C60.7252 31.9511 57.302 24.8091 52.7547 21.9093C52.6944 21.8691 52.6239 21.8486 52.5523 21.8505C50.9894 21.9405 49.4784 22.4651 48.1769 23.3693C46.8755 24.2736 45.8313 25.5245 45.1533 26.9914C45.1226 27.0566 45.1099 27.1293 45.1166 27.2015C45.1233 27.2737 45.149 27.3425 45.1911 27.4004C45.5112 27.8416 53.0491 38.1549 58.43 38.4155C58.4262 38.6061 58.4429 38.7964 58.4798 38.9831C57.3624 39.0035 51.367 38.892 48.2171 34.4874C48.1717 34.4235 48.1088 34.3754 48.0366 34.3495C47.9644 34.3235 47.8863 34.321 47.8127 34.3422C47.7391 34.3634 47.6734 34.4073 47.6243 34.4681C47.5751 34.5289 47.5449 34.6038 47.5376 34.6829C47.4571 35.7109 47.5156 36.7457 47.7113 37.7569C46.1253 36.7289 44.8811 35.2194 44.1469 33.4323C44.1181 33.3486 44.0629 33.2776 43.9902 33.2308C43.9176 33.184 43.8318 33.1642 43.7469 33.1747C43.662 33.1851 43.583 33.2253 43.5229 33.2885C43.4628 33.3517 43.4252 33.4342 43.4161 33.5226C43.2001 35.7779 44.4731 39.2775 47.2575 41.3216C50.8581 43.9678 55.3737 43.1773 59.3639 41.225C59.4457 41.1844 59.5104 41.1141 59.546 41.0274C59.5815 40.9407 59.5855 40.8436 59.5572 40.754C60.0034 41.103 60.5419 41.3012 61.1 41.3219C61.658 41.3425 62.2087 41.1846 62.6776 40.8694C62.6975 40.8912 62.7198 40.9105 62.7441 40.9267C68.242 43.9521 72.9887 43.5235 76.3862 41.269C79.3903 39.2751 80.9078 36.1422 80.8105 34.2079C80.8061 34.1183 80.7723 34.0329 80.7148 33.966C80.6572 33.8991 80.5793 33.8547 80.494 33.8403C80.4088 33.8259 80.3214 33.8423 80.2464 33.8867C80.1714 33.9312 80.1133 34.0011 80.0819 34.0847Z" fill="black"/>
<path fill-rule="evenodd" clip-rule="evenodd" d="M129.439 55.9979C129.197 57.3277 128.835 60.0281 129.429 62.0558C129.429 62.0558 134.423 61.2496 135.922 59.1262C136.497 58.2251 136.984 57.2672 137.378 56.2664C137.612 56.1224 137.826 55.9457 138.014 55.7412C138.014 55.7412 140.08 56.2978 141.15 54.9609C142.219 53.6241 141.05 52.8414 141.05 52.8414C141.87 47.2028 140.937 43.1632 135.689 43.0572C135.689 43.0572 134.21 42.3829 132.493 44.1311C132.269 44.1601 132.054 44.2402 131.864 44.3658C131.674 44.4914 131.513 44.6593 131.392 44.8574C131.272 45.0555 131.195 45.2789 131.168 45.5115C131.14 45.7441 131.163 45.9802 131.233 46.2027C130.754 46.3319 130.315 46.5871 129.958 46.9439C129.601 47.3006 129.338 47.7469 129.195 48.2398C128.805 49.8749 129.067 50.5359 128.509 52.5314C127.986 54.4154 128.001 55.2608 129.439 55.9979Z" fill="#FFD997"/>
<path d="M133.286 46.0073C133.232 46.0073 133.178 45.995 133.129 45.9715C133.079 45.9479 133.035 45.9135 133 45.8707C132.321 45.0504 131.722 45.5111 131.606 45.6108C131.531 45.6771 131.433 45.7099 131.335 45.7023C131.236 45.6947 131.145 45.6472 131.079 45.57C131.014 45.4928 130.981 45.3921 130.986 45.2896C130.991 45.187 131.035 45.0907 131.108 45.0213C131.287 44.8641 131.495 44.7475 131.72 44.6789C131.944 44.6103 132.18 44.5913 132.412 44.6231C132.644 44.6549 132.867 44.7368 133.067 44.8635C133.267 44.9902 133.439 45.1589 133.572 45.3589C133.619 45.4158 133.65 45.4856 133.66 45.56C133.67 45.6344 133.659 45.7102 133.629 45.7785C133.599 45.8467 133.551 45.9046 133.49 45.9451C133.429 45.9857 133.358 46.0072 133.286 46.0073Z" fill="black"/>
<path d="M137.888 48.6355C137.805 48.6355 137.725 48.6074 137.659 48.5556C137.594 48.5037 137.546 48.4308 137.524 48.3481C137.146 46.9351 135.538 46.8504 135.47 46.848C135.37 46.8442 135.276 46.7991 135.207 46.7228C135.139 46.6465 135.103 46.5451 135.107 46.441C135.11 46.3369 135.154 46.2386 135.227 46.1677C135.301 46.0968 135.398 46.0592 135.498 46.063C135.589 46.0669 137.722 46.1658 138.251 48.137C138.267 48.1953 138.269 48.2566 138.258 48.3161C138.247 48.3756 138.224 48.4317 138.188 48.48C138.153 48.5282 138.108 48.5674 138.056 48.5944C138.003 48.6213 137.946 48.6354 137.888 48.6355Z" fill="black"/>
<path d="M132.277 47.173C132.258 47.0968 132.22 47.0269 132.168 46.9694C132.116 46.9119 132.051 46.8686 131.979 46.8434C131.907 46.8181 131.83 46.8117 131.755 46.8247C131.68 46.8377 131.61 46.8697 131.55 46.9179C131.507 46.944 131.46 46.961 131.41 46.9681C131.361 46.9752 131.311 46.9721 131.263 46.9591C131.215 46.9461 131.17 46.9234 131.131 46.8923C131.091 46.8612 131.058 46.8223 131.033 46.7778C131.008 46.7333 130.991 46.6841 130.985 46.633C130.978 46.5819 130.981 46.53 130.993 46.4801C131.006 46.4302 131.028 46.3833 131.057 46.3422C131.087 46.3011 131.125 46.2665 131.168 46.2404C132.431 45.4845 133.448 47.067 132.774 47.3755C132.683 47.4171 132.579 47.4192 132.486 47.3812C132.392 47.3432 132.318 47.2683 132.277 47.173Z" fill="black"/>
<path d="M136.947 49.765C136.872 49.765 136.798 49.7415 136.735 49.6976C136.673 49.6537 136.625 49.5913 136.597 49.5185C136.539 49.3155 136.441 49.127 136.31 48.965C136.178 48.8029 136.017 48.6707 135.834 48.5765C135.582 48.4858 135.308 48.493 135.061 48.597C135.016 48.6224 134.967 48.6381 134.916 48.643C134.865 48.648 134.813 48.6421 134.765 48.6258C134.716 48.6095 134.671 48.583 134.632 48.548C134.594 48.5131 134.562 48.4703 134.54 48.4224C134.518 48.3745 134.505 48.3223 134.503 48.2692C134.501 48.216 134.509 48.163 134.527 48.1132C134.546 48.0635 134.573 48.0181 134.609 47.9798C134.644 47.9415 134.687 47.9111 134.734 47.8904C135.17 47.6939 135.662 47.6787 136.109 47.8481C136.389 47.9786 136.64 48.1691 136.845 48.4069C137.05 48.6448 137.204 48.9249 137.298 49.2289C137.321 49.2884 137.329 49.3527 137.322 49.4162C137.315 49.4797 137.293 49.5406 137.259 49.5934C137.224 49.6463 137.178 49.6895 137.123 49.7194C137.069 49.7493 137.008 49.765 136.947 49.765Z" fill="black"/>
<path d="M131.99 49.9417C131.676 49.9417 130.981 49.2273 130.981 48.243C130.981 47.0788 132.85 46.6941 133.223 46.629C133.272 46.6198 133.322 46.6209 133.371 46.6321C133.42 46.6434 133.465 46.6647 133.506 46.6947C133.546 46.7247 133.581 46.7628 133.607 46.8068C133.633 46.8508 133.651 46.8997 133.658 46.9508C133.675 47.0535 133.652 47.1588 133.593 47.2436C133.535 47.3284 133.447 47.3857 133.349 47.403C132.69 47.5192 131.736 47.8842 131.736 48.243C131.734 48.4307 131.773 48.6165 131.852 48.7856C131.931 48.9547 132.046 49.1024 132.189 49.2171C132.258 49.2624 132.311 49.3297 132.34 49.4089C132.369 49.4882 132.373 49.5751 132.351 49.6568C132.328 49.7384 132.281 49.8103 132.216 49.8616C132.151 49.913 132.072 49.9411 131.99 49.9417Z" fill="black"/>
<path fill-rule="evenodd" clip-rule="evenodd" d="M130.021 50.2031C130.944 50.8358 131.599 50.4182 132.623 51.6161C133.091 52.1035 133.702 52.413 134.36 52.4945C134.36 52.4945 131.85 52.949 130.927 52.0949C130.661 51.8596 130.444 51.5707 130.288 51.2455C130.132 50.9203 130.042 50.5657 130.021 50.2031Z" fill="white"/>
<path d="M130.677 52.387C130.371 52.1145 130.121 51.7796 129.943 51.4029C129.765 51.0263 129.664 50.6158 129.645 50.1968C129.646 50.1266 129.665 50.0579 129.7 49.9981C129.735 49.9382 129.786 49.8893 129.845 49.8564C129.905 49.8235 129.972 49.8079 130.04 49.8112C130.107 49.8144 130.172 49.8364 130.229 49.8749C131.116 50.4723 131.789 50.05 132.905 51.3539C133.309 51.7679 133.834 52.0313 134.397 52.1028C134.487 52.1121 134.572 52.1552 134.634 52.2242C134.697 52.2933 134.733 52.3836 134.737 52.4783C134.74 52.5731 134.711 52.666 134.653 52.7399C134.596 52.8137 134.515 52.8634 134.425 52.8799C133.355 53.0785 131.501 53.15 130.677 52.387ZM130.551 50.8915C130.691 51.2407 130.906 51.552 131.179 51.8013C131.631 52.104 132.163 52.2505 132.699 52.2197C132.113 51.7574 132.089 51.2927 130.829 50.9747C130.731 50.9504 130.638 50.9221 130.551 50.8915Z" fill="black"/>
<path fill-rule="evenodd" clip-rule="evenodd" d="M129.162 57.4392C128.949 58.983 129.078 60.557 129.54 62.0409C132.848 61.5291 134.869 60.4418 136.419 58.5822L123.71 93.6324C121.362 93.4645 119.142 92.4556 117.429 90.7774L117.033 92.9754C115.823 94.2734 114.939 95.8622 114.461 97.6006C114.461 97.6006 115.19 93.9621 116.047 89.8369C118.019 82.2625 121.204 72.2098 122.492 68.2667C124.349 62.5731 129.162 57.4392 129.162 57.4392Z" fill="white"/>
<path fill-rule="evenodd" clip-rule="evenodd" d="M136.751 101.331C136.676 97.6046 132.51 92.338 132.51 92.338C128.295 95.2488 119.838 94.3617 117.428 90.14C116.765 93.9717 116.621 97.8809 117 101.754C117.698 108.299 119.601 120.726 119.979 124.842C120.357 128.957 119.319 140.031 119.319 140.031C119.319 140.031 122.717 142.561 125.737 141.287C125.737 141.287 125.653 131.498 126.582 126.921C127.512 122.345 125.425 118.492 125.425 114.966C125.589 111.68 125.976 108.411 126.582 105.182C126.582 105.182 130.84 119.737 133.243 125.66C135.647 131.583 137.276 142.6 137.276 142.6C137.276 142.6 140.023 144.987 143.327 142.175C143.327 142.175 141.418 132.858 141.213 127.831C141.007 122.804 139.669 121.841 138.128 117.798C136.588 113.754 136.786 103.007 136.751 101.331Z" fill="#81F8F8"/>
<path d="M129.721 55.9147C129.675 55.8227 129.595 55.7536 129.5 55.7225C129.405 55.6915 129.301 55.701 129.213 55.7491C128.245 56.339 127.36 57.0637 126.581 57.9032C125.446 57.8994 124.321 58.1307 123.273 58.5837C122.224 59.0367 121.273 59.7022 120.474 60.5415C118.656 62.362 113.21 67.8154 110.492 68.328C109.647 67.2823 105.051 61.5463 103.753 58.8985C103.73 58.8516 103.698 58.81 103.659 58.7763C103.62 58.7425 103.575 58.7173 103.527 58.702C103.478 58.6868 103.427 58.6819 103.377 58.6876C103.326 58.6933 103.277 58.7095 103.233 58.7353C102.613 58.0225 102.554 57.8718 102.292 57.9086C102.241 56.0772 101.839 54.6776 101.166 54.0174C100.561 53.4435 100.122 52.7046 99.9005 51.8846C99.6899 51.1474 99.1274 49.9221 98.5158 49.7603C97.7782 49.5759 97.1093 50.9959 98.0017 52.6248C98.1503 52.8922 98.2647 53.1785 98.3422 53.4765C97.2723 52.6082 96.4022 51.5024 95.7956 50.24C95.5049 49.1904 94.5408 49.0696 94.2305 49.8114C94.1431 49.3579 93.9557 48.9318 93.6831 48.5664C92.9643 47.8026 92.1618 48.0067 91.9941 49.4299C91.1825 49.579 91.1183 51.0894 91.2029 51.9419C91.422 53.2185 92.0445 54.3826 92.9719 55.2499C94.0455 58.1245 95.7714 56.6935 98.5083 60.3814L98.3482 60.4882C98.2716 60.5392 98.2153 60.6172 98.1897 60.7079C98.164 60.7986 98.1707 60.8959 98.2086 60.9819L98.5106 61.6743C98.4507 61.6791 98.3928 61.699 98.3421 61.7324C98.2913 61.7658 98.2492 61.8116 98.2194 61.8658C98.1896 61.92 98.1731 61.981 98.1712 62.0434C98.1693 62.1058 98.1821 62.1677 98.2086 62.2238C100.142 66.4549 105.807 77.0603 110.342 76.8083C113.024 76.6929 115.626 75.8329 117.88 74.3175C117.574 75.86 117.153 77.3752 116.619 78.8493C114.905 83.462 113.913 90.6957 114.028 97.7278C114.032 97.8166 114.065 97.9015 114.122 97.9683C114.178 98.0351 114.255 98.08 114.339 98.0956C114.423 98.1112 114.51 98.0966 114.585 98.0542C114.66 98.0117 114.72 97.944 114.753 97.862C114.766 97.8267 116.023 94.3295 117.281 93.2219C117.318 93.1885 117.35 93.1478 117.372 93.1019C117.395 93.056 117.409 93.006 117.413 92.9546C117.417 92.9032 117.411 92.8515 117.396 92.8024C117.381 92.7533 117.356 92.7078 117.324 92.6684C117.292 92.6291 117.253 92.5967 117.209 92.5732C117.165 92.5496 117.117 92.5353 117.067 92.5311C117.018 92.5268 116.968 92.5328 116.921 92.5485C116.874 92.5643 116.83 92.5896 116.792 92.6229C116.153 93.2718 115.625 94.0305 115.234 94.8657C116.922 86.5816 122.571 69.2315 122.844 68.397C124.656 62.8518 129.382 57.7634 129.43 57.7124C129.5 57.6379 129.539 57.5374 129.538 57.4332C129.537 57.329 129.496 57.2295 129.424 57.1566C129.352 57.0838 129.256 57.0435 129.155 57.0447C129.055 57.0458 128.96 57.0884 128.889 57.1629C127.659 58.5191 126.528 59.9686 125.505 61.4992C125.398 61.2899 125.264 61.0966 125.107 60.9246C126.287 59.1345 127.802 57.61 129.561 56.4423C129.65 56.3941 129.716 56.3116 129.746 56.2128C129.776 56.114 129.767 56.0068 129.721 55.9147ZM92.7831 52.4333C92.6953 52.8605 92.6699 53.299 92.7076 53.734C92.3064 53.1875 92.0465 52.5432 91.9526 51.8626C91.8695 51.3514 91.9121 50.8267 92.0764 50.3373C93.0368 52.7072 92.9522 52.0478 92.7831 52.4333ZM93.6544 54.9037C93.4579 54.2072 93.4001 53.4764 93.4845 52.7559C93.573 52.8692 93.6464 52.9943 93.7027 53.128C94.6155 55.1141 94.7982 56.4564 95.4256 56.0168C95.4671 55.9877 95.5026 55.9504 95.5301 55.9069C95.5576 55.8634 95.5764 55.8147 95.5856 55.7636C95.5948 55.7124 95.5942 55.6599 95.5837 55.6091C95.5732 55.5582 95.5531 55.51 95.5245 55.4673C95.4824 55.3999 95.4444 55.3299 95.4105 55.2577C96.7159 55.5309 98.8473 56.1275 99.6023 56.991C99.6351 57.0308 99.6754 57.0634 99.7205 57.0868C99.7657 57.1102 99.815 57.124 99.8653 57.1273C99.9157 57.1305 99.9662 57.1233 100.014 57.1059C100.061 57.0885 100.105 57.0614 100.143 57.0261C100.18 56.9908 100.21 56.9481 100.231 56.9005C100.253 56.8528 100.264 56.8013 100.266 56.7488C100.268 56.6963 100.259 56.6441 100.241 56.5951C100.223 56.546 100.196 56.5013 100.161 56.4635C99.0368 55.1784 95.902 54.5418 95.0489 54.3903C94.8458 53.8651 94.6178 53.2913 94.3837 52.7857C94.2946 52.5911 94.0379 52.0416 93.6038 51.9387C93.2497 51.1993 92.8375 50.1874 92.722 49.9016C92.7177 49.5635 92.7725 49.2273 92.8835 48.9094C92.8835 48.9094 92.9666 48.9243 93.1599 49.1276C93.5117 49.4793 93.8869 52.4788 95.3056 53.7835C95.3717 53.8443 95.4563 53.8792 95.5446 53.8819C95.6328 53.8846 95.7192 53.8551 95.7887 53.7984C95.8582 53.7418 95.9064 53.6615 95.9249 53.5718C95.9434 53.482 95.931 53.3883 95.8899 53.307C95.5879 52.7096 94.7038 50.795 94.9084 50.1544C94.9849 50.2384 95.0392 50.3414 95.0662 50.4535C95.8358 52.1692 97.0765 53.6098 98.6321 54.5936C98.6866 54.6223 98.7469 54.6368 98.808 54.6359C98.869 54.635 98.9289 54.6188 98.9826 54.5885C99.0363 54.5582 99.0821 54.5149 99.1161 54.4622C99.1501 54.4095 99.1714 54.349 99.178 54.2859C99.201 53.5623 99.019 52.8477 98.6548 52.2307C98.4982 51.9956 98.396 51.7261 98.3561 51.4431C98.3161 51.1602 98.3395 50.8715 98.4245 50.5995C99.3192 51.5368 98.9764 52.9545 100.65 54.5889C100.867 54.8008 101.556 55.6926 101.543 58.3569L99.1478 59.9559C96.3143 56.0686 94.58 57.4706 93.6544 54.9037ZM102.275 58.8043L102.789 59.3954C102.389 59.9934 101.873 60.4985 101.275 60.8787C100.678 61.2589 100.011 61.506 99.3161 61.6044L99.0345 60.9654L102.275 58.8043ZM121.784 69.2189C122.335 66.575 122.96 63.8951 123.111 63.2529C123.612 62.902 124.188 62.6862 124.789 62.6249C123.487 64.661 122.475 66.8819 121.784 69.2189ZM124.276 60.8037C124.238 60.8522 124.213 60.9096 124.203 60.9707C124.192 61.0318 124.197 61.0947 124.216 61.1536C124.235 61.2125 124.267 61.2655 124.311 61.3077C124.355 61.35 124.408 61.3802 124.466 61.3956C124.62 61.5047 124.742 61.6543 124.822 61.8289C124.008 61.8941 123.227 62.1912 122.565 62.6877C122.49 62.7421 122.436 62.823 122.414 62.9154C122.326 63.289 120.256 72.0465 120.126 74.4635C118.438 79.8871 116.113 87.6413 114.871 93.0146C115.148 87.6931 116.027 82.6369 117.327 79.1366C118.878 74.9581 118.767 71.9986 120.406 67.8405C120.427 67.7924 120.438 67.7404 120.439 67.6876C120.44 67.6348 120.431 67.5823 120.413 67.5332C120.394 67.4841 120.366 67.4394 120.33 67.4019C120.294 67.3644 120.252 67.3347 120.205 67.3147C120.158 67.2948 120.107 67.2849 120.056 67.2856C120.006 67.2864 119.956 67.2978 119.909 67.3192C119.863 67.3406 119.821 67.3715 119.786 67.4101C119.751 67.4486 119.725 67.4941 119.707 67.5437C119.013 69.3645 118.484 71.2485 118.126 73.1714C115.853 74.9163 113.128 75.9117 110.304 76.0288C106.049 76.2643 100.399 65.0302 99.1463 62.4248C99.9929 62.3478 100.813 62.0781 101.548 61.6349C102.283 61.1917 102.916 60.5858 103.401 59.8602C105.189 63.0347 109.842 68.7479 110.052 69.0054C110.092 69.0539 110.142 69.0916 110.199 69.1154C110.255 69.1392 110.317 69.1483 110.378 69.142C112.98 68.8696 117.687 64.432 120.999 61.1107C122.306 59.7684 124.013 58.9273 125.84 58.725C125.276 59.3811 124.752 60.0741 124.273 60.7998L124.276 60.8037Z" fill="black"/>
<path fill-rule="evenodd" clip-rule="evenodd" d="M143.463 74.0718C143.972 72.6962 144.143 71.2108 143.962 69.7492C143.781 68.2876 143.253 66.8958 142.426 65.699C141.397 64.0261 137.718 59.0767 137.718 59.0767L137.794 55.9124C137.219 56.4947 136.8 57.222 136.577 58.0232C135.292 60.629 133.853 63.15 132.269 65.5718C130.822 67.6293 126.221 75.199 124.316 83.2594C121.847 82.8579 119.359 82.5982 116.862 82.4815C116.862 82.4815 115.343 85.2926 114.263 87.9443C114.263 87.9443 118.762 89.8126 123.527 91.2272C123.536 91.3732 123.542 91.52 123.554 91.6652C124.485 102.177 124.881 103.449 132.257 102.45C139.632 101.452 140.297 99.0638 140.297 99.0638L137.599 87.9396C137.641 87.8603 142.696 76.2258 143.463 74.0718Z" fill="#81F8F8"/>
<path d="M115.968 82.4854C115.355 82.1821 114.782 81.798 114.264 81.3424C113.697 80.6553 112.953 80.152 112.119 79.8926C110.876 79.4789 110.628 78.8038 109.93 77.6647C109.232 76.5257 108.712 77.1152 108.712 77.1152C107.311 75.1716 106.502 76.8538 106.502 76.8538C105.238 75.4864 105.39 77.255 105.39 77.255C104.384 76.3043 104.249 78.9765 106.996 81.472C106.513 82.151 108.116 82.8944 108.116 82.8944C111.322 83.9149 109.786 83.2476 114.495 85.8224L115.968 82.4854Z" fill="#FFD997"/>
<path fill-rule="evenodd" clip-rule="evenodd" d="M127.709 61.7779C127.268 62.9515 126.89 64.1497 126.576 65.3669C126.576 65.3669 121.276 73.8316 119.076 82.4799L124.314 83.2578C124.314 83.2578 127.489 67.5578 128.437 65.8897L130.497 63.1069C130.497 63.1069 130.193 61.7779 127.709 61.7779Z" fill="#FFD997"/>
<path d="M129.898 61.8761C128.782 61.1413 126.651 61.3093 125.283 61.8698C125.192 61.9094 125.119 61.9846 125.081 62.0792C125.043 62.1739 125.041 62.2804 125.078 62.376C125.114 62.4715 125.185 62.5485 125.275 62.5903C125.365 62.6322 125.468 62.6356 125.56 62.5998C126.073 62.4086 126.605 62.279 127.146 62.2136C126.787 63.1955 126.479 64.1968 126.224 65.2131C125.744 65.9934 120.805 74.1511 118.712 82.381C118.699 82.4341 118.697 82.4894 118.705 82.5435C118.714 82.5976 118.733 82.6492 118.762 82.695C118.897 82.9054 118.59 82.852 124.261 83.6449C124.356 83.6587 124.452 83.6346 124.53 83.5773C124.609 83.52 124.663 83.4339 124.683 83.3364C125.562 78.9883 128.011 67.4134 128.737 66.1276L130.437 63.8417C130.79 64.7506 131.009 65.7101 131.085 66.6873C131.092 66.7914 131.139 66.8883 131.215 66.9566C131.291 67.0249 131.39 67.0591 131.49 67.0516C131.59 67.0441 131.683 66.9955 131.749 66.9166C131.815 66.8377 131.847 66.7349 131.84 66.6308C131.734 65.1715 131.133 62.5951 129.898 61.8761ZM124.019 82.8183L119.555 82.1557C121.564 74.6142 125.897 67.229 126.749 65.8215L127.916 66.1496C126.871 68.9568 124.48 80.5622 124.019 82.8183ZM128.298 65.4447L127.035 65.0883C127.288 64.0913 127.766 62.7333 127.968 62.1759C129.287 62.2301 129.704 62.6155 130.035 63.0936L128.298 65.4447Z" fill="black"/>
<path fill-rule="evenodd" clip-rule="evenodd" d="M8.0859 48.8262C8.0859 48.8262 6.58873 54.0253 10.4777 56.2249L9.46604 58.8884C9.46604 58.8884 5.05835 56.6637 5.51059 50.1011L8.0859 48.8262Z" fill="#81F8F8"/>
<path fill-rule="evenodd" clip-rule="evenodd" d="M96.596 104.4C96.596 104.4 96.9478 108.675 100.422 109.118V111.382C100.422 111.382 96.5597 111.077 95.061 106.115L96.596 104.4Z" fill="#81F8F8"/>
<path d="M9.46589 59.2808C9.40865 59.2807 9.35215 59.2673 9.30055 59.2416C9.25525 59.218 4.66862 56.8222 5.1337 50.0728C5.13922 50.0043 5.16193 49.9385 5.19956 49.8821C5.23719 49.8256 5.28841 49.7804 5.34812 49.7509L7.92343 48.4761C7.98926 48.4436 8.06273 48.4316 8.13496 48.4416C8.2072 48.4516 8.27511 48.4831 8.33051 48.5323C8.38591 48.5815 8.42643 48.6463 8.44717 48.719C8.46791 48.7916 8.46799 48.8689 8.4474 48.9416C8.39002 49.1418 7.0884 53.8651 10.658 55.8841C10.739 55.9299 10.801 56.005 10.8325 56.095C10.8639 56.1851 10.8626 56.2841 10.8287 56.3732C9.78073 59.123 9.81697 59.2808 9.46589 59.2808ZM5.87285 50.3562C5.61464 55.3315 8.29413 57.641 9.27714 58.3161L10.0072 56.3944C7.15106 54.5559 7.31339 51.0901 7.55801 49.5209L5.87285 50.3562Z" fill="black"/>
<path d="M100.392 111.774C100.225 111.76 96.2581 111.389 94.6983 106.234C94.6781 106.168 94.6752 106.097 94.6899 106.029C94.7046 105.961 94.7365 105.899 94.7821 105.848L96.3193 104.133C96.3692 104.078 96.4335 104.038 96.5045 104.02C96.5755 104.002 96.6501 104.005 96.7192 104.03C96.7883 104.055 96.8489 104.1 96.8937 104.161C96.9385 104.221 96.9656 104.293 96.9716 104.369C96.9859 104.531 97.3438 108.332 100.466 108.73C100.559 108.742 100.643 108.788 100.705 108.861C100.766 108.933 100.799 109.026 100.799 109.123C100.799 111.514 100.846 111.515 100.678 111.674C100.639 111.71 100.594 111.738 100.545 111.755C100.496 111.772 100.444 111.778 100.392 111.774ZM95.485 106.214C96.6409 109.753 99.0773 110.683 100.043 110.916V109.453C97.5393 108.946 96.6545 106.526 96.3585 105.24L95.485 106.214Z" fill="black"/>
<path fill-rule="evenodd" clip-rule="evenodd" d="M9.88631 91.2688C9.88631 91.2688 16.0698 93.8389 19.3095 89.5716L17.9233 86.9756C17.9233 86.9756 14.7712 89.8016 9.55713 88.1445L9.88631 91.2688Z" fill="#81F8F8"/>
<path fill-rule="evenodd" clip-rule="evenodd" d="M12.6182 124.203C12.6182 124.203 18.8756 122.92 20.6922 119.038L18.7631 118.175C18.7631 118.175 16.6491 121.192 11.5068 122.567L12.6182 124.203Z" fill="#81F8F8"/>
<path fill-rule="evenodd" clip-rule="evenodd" d="M129.162 25.2425C129.162 25.2425 130.005 28.7985 133.004 29.6762L133.736 28.5246C132.195 27.6788 131.028 26.2471 130.478 24.5281L129.162 25.2425Z" fill="#81F8F8"/>
<path fill-rule="evenodd" clip-rule="evenodd" d="M128.522 11.0175C128.522 11.0175 128.501 6.0924 123.905 4.59619L122.26 6.08769C123.29 6.66651 124.173 7.49088 124.838 8.49324C125.503 9.49559 125.929 10.6474 126.083 11.8543L128.522 11.0175Z" fill="#81F8F8"/>
<path fill-rule="evenodd" clip-rule="evenodd" d="M87.4823 10.7505C86.7609 10.9526 86.1348 11.4202 85.7202 12.0664C85.3056 12.7126 85.1309 13.4933 85.2286 14.2634L86.3105 15.0759C86.3691 14.432 86.5945 13.8166 86.9626 13.2952C87.3307 12.7739 87.8278 12.366 88.4011 12.1149L87.4823 10.7505Z" fill="#81F8F8"/>
<path fill-rule="evenodd" clip-rule="evenodd" d="M42.91 9.93495C42.91 9.93495 42.7393 5.52168 38.611 4.29944L37.1938 5.68104C38.1296 6.17624 38.9405 6.89293 39.5613 7.77344C40.1821 8.65395 40.5954 9.67368 40.768 10.7506L42.91 9.93495Z" fill="#81F8F8"/>
<path d="M13.9339 92.4133C12.5059 92.3993 11.0904 92.1355 9.74667 91.633C9.68312 91.6067 9.62763 91.563 9.58614 91.5064C9.54465 91.4499 9.51872 91.3827 9.51112 91.312L9.18194 88.1869C9.17513 88.1224 9.18382 88.0571 9.20723 87.997C9.23064 87.9368 9.26803 87.8836 9.31605 87.8421C9.36408 87.8007 9.42124 87.7723 9.48243 87.7594C9.54361 87.7465 9.60691 87.7497 9.66664 87.7685C14.6051 89.3385 17.5549 86.7865 17.6779 86.6766C17.7205 86.6388 17.7706 86.6113 17.8246 86.5961C17.8787 86.581 17.9353 86.5785 17.9903 86.5889C18.0454 86.5992 18.0975 86.6222 18.143 86.6561C18.1885 86.69 18.2261 86.734 18.2533 86.7849L19.6394 89.3817C19.6755 89.4493 19.6915 89.5266 19.6854 89.6037C19.6794 89.6808 19.6516 89.7543 19.6055 89.815C18.9197 90.677 18.0499 91.3607 17.0653 91.8118C16.0807 92.2629 15.0085 92.4688 13.9339 92.4133ZM10.2344 90.9831C11.2959 91.3591 16.1234 92.8262 18.8527 89.5285L17.801 87.5581C16.6518 88.3137 15.3603 88.8047 14.0133 88.998C12.6664 89.1914 11.2952 89.0826 9.99205 88.6791L10.2344 90.9831Z" fill="black"/>
<path d="M11.1987 122.788C11.1636 122.736 11.141 122.676 11.1331 122.613C11.1251 122.55 11.132 122.486 11.1531 122.427C11.1742 122.367 11.2089 122.314 11.2541 122.271C11.2994 122.228 11.354 122.198 11.4131 122.182C16.3471 120.863 18.4384 117.968 18.4588 117.939C18.5092 117.868 18.5814 117.816 18.6637 117.793C18.7459 117.769 18.8334 117.776 18.9118 117.81C20.9888 118.743 20.9692 118.688 21.0447 118.902C21.0626 118.951 21.0705 119.004 21.0679 119.057C21.0653 119.111 21.0523 119.162 21.0296 119.21C19.1526 123.221 12.9511 124.533 12.6898 124.587C12.3773 124.656 12.3893 124.547 11.1987 122.788ZM12.1251 122.794L12.7819 123.762C13.8774 123.494 18.4663 122.213 20.1651 119.229L18.8771 118.649C17.0547 120.673 14.7126 122.111 12.1281 122.794H12.1251Z" fill="black"/>
<path d="M132.902 30.0545C129.731 29.1251 128.832 25.4905 128.796 25.3367C128.775 25.2513 128.783 25.1612 128.818 25.0809C128.852 25.0006 128.912 24.9348 128.987 24.8939L130.304 24.1804C130.352 24.1541 130.405 24.1391 130.46 24.1363C130.514 24.1335 130.568 24.1429 130.619 24.1641C130.67 24.1852 130.715 24.2174 130.753 24.2586C130.79 24.2997 130.818 24.3488 130.836 24.4025C131.357 26.0166 132.45 27.3639 133.892 28.1705C133.942 28.1944 133.986 28.229 134.021 28.2721C134.057 28.3152 134.083 28.3656 134.098 28.4201C134.162 28.6509 134.098 28.6643 133.32 29.8967C133.275 29.9655 133.211 30.0179 133.136 30.0462C133.061 30.0746 132.979 30.0775 132.902 30.0545ZM129.615 25.4395C129.876 26.2386 130.771 28.4531 132.846 29.2122L133.195 28.6627C131.877 27.8249 130.853 26.5689 130.273 25.08L129.615 25.4395Z" fill="black"/>
<path d="M126.083 12.2491C125.99 12.2497 125.9 12.2145 125.83 12.1501C125.761 12.0858 125.716 11.9969 125.706 11.9006C125.555 10.7609 125.15 9.67374 124.523 8.726C123.896 7.77825 123.064 6.99624 122.094 6.44248C122.038 6.41412 121.99 6.37178 121.953 6.31926C121.917 6.26673 121.893 6.20565 121.885 6.14145C121.877 6.07725 121.884 6.01193 121.906 5.95132C121.928 5.89071 121.964 5.83669 122.011 5.79407L123.657 4.29944C123.706 4.25536 123.764 4.225 123.827 4.21126C123.891 4.19752 123.956 4.20085 124.018 4.22094C128.823 5.78544 128.9 10.9625 128.9 11.0151C128.9 11.0978 128.875 11.1785 128.828 11.2456C128.782 11.3127 128.716 11.3628 128.641 11.3888C127.807 11.733 126.953 12.0204 126.083 12.2491ZM122.906 6.02643C123.809 6.61354 124.585 7.38875 125.185 8.30316C125.785 9.21758 126.196 10.2514 126.393 11.3393L128.129 10.7404C128.055 9.47254 127.622 8.2558 126.886 7.24219C126.149 6.22857 125.142 5.46304 123.99 5.04126L122.906 6.02643Z" fill="black"/>
<path d="M86.3101 15.4692C86.15 15.4692 86.2014 15.4794 85.0077 14.5822C84.9628 14.5486 84.9255 14.5052 84.8985 14.455C84.8715 14.4048 84.8554 14.3491 84.8514 14.2917C84.7519 13.4285 84.9545 12.5568 85.4222 11.8361C85.89 11.1154 86.5916 10.5938 87.3988 10.3667C87.4718 10.3494 87.5482 10.3551 87.6181 10.3831C87.688 10.4111 87.7483 10.46 87.7914 10.5237L88.7102 11.8873C88.7435 11.9365 88.7655 11.9931 88.7744 12.0525C88.7833 12.112 88.779 12.1728 88.7617 12.2302C88.7444 12.2877 88.7146 12.3402 88.6746 12.3838C88.6347 12.4274 88.5857 12.4608 88.5313 12.4815C88.0241 12.7038 87.5846 13.0653 87.2597 13.5272C86.9348 13.9892 86.7368 14.5343 86.6868 15.1042C86.6801 15.2033 86.6375 15.2961 86.5676 15.3639C86.4977 15.4316 86.4057 15.4693 86.3101 15.4692ZM85.5966 14.0562L86.0496 14.3961C86.1679 13.8829 86.3869 13.4007 86.6931 12.9797C86.9992 12.5588 87.3857 12.2082 87.8284 11.9501L87.3324 11.2129C86.7833 11.4236 86.316 11.8159 86.0024 12.3296C85.6888 12.8434 85.5462 13.45 85.5966 14.0562Z" fill="black"/>
<path d="M40.7704 11.1431C40.6798 11.1432 40.5922 11.1093 40.5236 11.0478C40.455 10.9863 40.4099 10.9011 40.3967 10.8079C40.2325 9.79664 39.8439 8.83908 39.2617 8.01116C38.6796 7.18324 37.9199 6.50774 37.043 6.03824C36.9867 6.01142 36.9376 5.97064 36.9001 5.91947C36.8626 5.86829 36.8377 5.80831 36.8277 5.7448C36.8177 5.68128 36.8229 5.61619 36.8428 5.55524C36.8627 5.4943 36.8967 5.43938 36.9418 5.39532L38.3574 4.01372C38.4044 3.96661 38.4626 3.93334 38.526 3.91734C38.5894 3.90134 38.6558 3.90317 38.7183 3.92266C43.0596 5.20692 43.2899 9.87296 43.2921 9.91928C43.2954 10.0024 43.2731 10.0845 43.2286 10.1536C43.1841 10.2227 43.1196 10.2754 43.0445 10.3039C42.3088 10.6452 41.5484 10.9258 40.7704 11.1431ZM37.8335 5.59628C38.6432 6.10166 39.3464 6.77182 39.901 7.56658C40.4557 8.36135 40.8502 9.26436 41.0611 10.2215L42.5084 9.672C42.4002 8.55696 41.9842 7.49827 41.3103 6.62356C40.6365 5.74885 39.7337 5.09547 38.7108 4.7422L37.8335 5.59628Z" fill="black"/>
<path fill-rule="evenodd" clip-rule="evenodd" d="M99.4668 39.4784C99.4668 39.4784 104.848 38.4344 105.565 32.718L103.602 31.0915C103.173 32.4259 102.448 33.6364 101.485 34.6251C100.523 35.6137 99.3496 36.3527 98.061 36.782L99.4668 39.4784Z" fill="#81F8F8"/>
<path fill-rule="evenodd" clip-rule="evenodd" d="M16.6504 14.378C16.6504 14.378 17.4937 17.9341 20.4926 18.8117L21.2234 17.6593C19.6827 16.8138 18.5156 15.3824 17.9656 13.6637L16.6504 14.378Z" fill="#81F8F8"/>
<path d="M99.1347 39.6653L97.7281 36.9688C97.7013 36.9173 97.6859 36.8602 97.6831 36.8017C97.6803 36.7432 97.6901 36.6848 97.7118 36.6307C97.7335 36.5767 97.7666 36.5284 97.8086 36.4893C97.8506 36.4503 97.9005 36.4215 97.9546 36.4052C99.1798 35.9896 100.295 35.2833 101.212 34.3421C102.13 33.4009 102.824 32.2507 103.24 30.9824C103.257 30.9204 103.289 30.8638 103.332 30.8176C103.375 30.7714 103.429 30.737 103.488 30.7175C103.547 30.6979 103.61 30.6938 103.671 30.7055C103.732 30.7172 103.789 30.7444 103.838 30.7846L105.801 32.4119C105.851 32.454 105.891 32.509 105.915 32.5715C105.939 32.6341 105.948 32.7021 105.939 32.7691C105.196 38.6997 99.5922 39.8529 99.5363 39.8639C99.4578 39.8793 99.3766 39.8683 99.3044 39.8326C99.2322 39.7969 99.1728 39.7383 99.1347 39.6653ZM98.6062 37.0081L99.6632 39.0286C101.06 38.6815 102.327 37.9133 103.305 36.8204C104.283 35.7275 104.93 34.3585 105.163 32.8852L103.781 31.7407C103.322 32.9465 102.624 34.0385 101.733 34.9459C100.841 35.8534 99.7768 36.5559 98.6077 37.0081H98.6062Z" fill="black"/>
<path d="M20.4926 19.2035C20.4582 19.2035 20.4239 19.1987 20.3907 19.1893C17.2197 18.2607 16.3205 14.6261 16.2835 14.4723C16.2632 14.3869 16.2711 14.297 16.3059 14.2168C16.3406 14.1367 16.4003 14.071 16.4752 14.0303L17.7912 13.3152C17.8394 13.2897 17.8923 13.2752 17.9463 13.2728C18.0004 13.2704 18.0543 13.2801 18.1044 13.3013C18.1545 13.3224 18.1996 13.3545 18.2368 13.3953C18.2739 13.4362 18.3022 13.4849 18.3197 13.5381C18.8374 15.1529 19.931 16.4998 21.3752 17.3014C21.425 17.3248 21.4694 17.3592 21.5052 17.4022C21.541 17.4452 21.5674 17.4958 21.5826 17.5504C21.5977 17.6051 21.6013 17.6625 21.593 17.7187C21.5847 17.7749 21.5647 17.8286 21.5345 17.876C20.7561 19.1053 20.7576 19.2035 20.4926 19.2035ZM17.1026 14.572C17.3639 15.3703 18.2585 17.5856 20.334 18.3447L20.6813 17.7952C19.3642 16.9566 18.3406 15.7008 17.761 14.2124L17.1026 14.572Z" fill="black"/>
<path d="M146.378 148.642C146.027 146.07 144.078 142.324 143.541 141.328C143.088 139.006 141.755 131.92 141.585 127.812C141.374 122.696 140.008 121.673 138.474 117.652C137.083 113.998 136.798 104.21 137.071 101.758C140.123 100.672 140.606 99.3684 140.66 99.173C140.702 99.0207 140.852 99.746 137.95 87.7748C138.489 86.6051 142.536 77.8053 143.818 74.2084C144.348 72.7761 144.527 71.2293 144.34 69.707C144.152 68.1847 143.604 66.7346 142.745 65.4871C141.725 63.8307 138.215 59.1074 138.024 58.8467C138.195 55.8747 138.013 56.2853 138.135 56.1683C141.207 56.7484 142.765 54.1705 141.558 52.7873C142.224 51.821 144.139 48.6904 142.677 46.4728C142.798 45.929 142.806 45.3647 142.701 44.8174C142.596 44.27 142.381 43.7522 142.068 43.2983C141.352 42.4018 140.155 41.9999 138.477 42.0925C138.003 41.2841 137.254 40.6909 136.379 40.4313C135.504 40.1718 134.566 40.2649 133.754 40.6921C130.641 42.171 130.497 43.9655 130.786 45.5339C130.779 45.6684 130.784 45.8032 130.801 45.9366C128.083 47.0411 128.954 49.5586 128.152 52.4192C127.627 54.2898 127.624 55.3559 128.983 56.1872C128.558 58.1617 128.588 60.2125 129.069 62.1728C129.096 62.2634 129.153 62.3411 129.23 62.3914C129.307 62.4418 129.399 62.4614 129.489 62.4468C131.343 62.1387 133.136 61.5217 134.801 60.6193C133.939 62.2462 132.993 63.8232 131.967 65.3434C128.413 70.6752 125.735 76.5826 124.04 82.8254C121.398 82.3816 118.729 82.1366 116.054 82.0922C114.031 81.0654 114.355 80.3149 111.999 79.5284C110.887 79.1602 110.811 78.6782 110.119 77.5525C109.809 77.0431 109.346 76.532 108.803 76.7353C108.27 76.0822 107.78 75.7933 107.303 75.8679C107.09 75.8999 106.893 76.0039 106.743 76.1638C106.021 75.5775 105.427 75.8695 105.268 76.6757C104.599 76.5626 104.06 76.9802 104.262 78.1271C104.664 79.5003 105.461 80.7127 106.545 81.6015C106.416 82.3504 107.34 82.9674 108.009 83.2705C111.165 84.2753 109.716 83.6473 114.043 86.018L113.92 86.3021C113.881 86.3953 113.877 86.5009 113.911 86.5966C113.945 86.6922 114.013 86.7705 114.102 86.8147L114.293 86.9121C113.874 87.8729 113.845 87.9231 113.915 88.1021C113.934 88.1503 113.963 88.1941 113.998 88.2307C114.034 88.2674 114.077 88.2963 114.123 88.3157C114.281 88.3808 115.454 88.8652 117.165 89.5034C116.406 93.5535 116.224 97.6975 116.624 101.803C117.308 108.2 119.232 120.866 119.602 124.882C119.943 128.592 119.106 138.18 118.964 139.766C116.877 140.695 114.915 141.901 113.127 143.354C111.549 144.796 110.641 146.774 110.969 148.058C111.271 149.244 112.403 149.528 113.602 149.528C116.959 149.528 119.34 146.309 122.075 145.116C122.01 145.648 121.953 145.815 122.155 145.979C122.206 146.021 122.267 146.049 122.331 146.059C122.396 146.07 122.462 146.062 122.523 146.038L125.48 144.861C125.84 144.818 125.849 144.767 125.802 141.673C125.968 141.606 126.113 141.516 126.111 141.28C126.111 141.183 126.035 131.483 126.948 127.002C127.899 122.33 125.799 118.419 125.799 114.965C125.908 112.24 126.201 109.527 126.677 106.846C127.845 110.764 130.973 121.082 132.892 125.811C134.756 130.403 136.635 140.238 136.886 142.725C136.89 142.773 137.368 147.653 137.904 150.43C138.508 153.548 141.916 153.842 143.179 153.842C145.71 153.842 146.732 151.247 146.378 148.642ZM139.899 99.0301C138.911 100.836 134.355 101.778 132.209 102.065C125.432 102.986 124.854 101.872 123.949 91.7681C126.296 92.444 130.399 93.4951 132.804 93.0877C134.994 92.7164 136.655 90.213 137.424 88.8228L139.899 99.0301ZM128.574 54.3244C128.538 53.358 129.12 52.4364 129.315 50.0854C129.351 49.4953 129.436 48.9096 129.569 48.3348C129.693 47.9108 129.919 47.527 130.227 47.2205C130.534 46.9139 130.913 46.6948 131.325 46.5843C131.374 46.572 131.421 46.5497 131.461 46.5186C131.502 46.4874 131.536 46.4482 131.562 46.4031C131.587 46.358 131.604 46.3081 131.611 46.2561C131.618 46.2042 131.615 46.1513 131.602 46.1007C131.554 45.9254 131.534 45.7433 131.542 45.5614C131.586 45.2944 131.711 45.0488 131.898 44.8604C132.085 44.672 132.325 44.5504 132.583 44.5134C132.834 44.453 133.867 42.9693 135.584 43.4333C135.683 43.478 135.713 43.6397 135.659 43.8682C135.643 43.9425 135.648 44.0202 135.673 44.0917C135.699 44.1632 135.743 44.2255 135.802 44.2708C135.861 44.3162 135.932 44.3428 136.005 44.3472C136.078 44.3517 136.151 44.3339 136.215 44.296C136.265 44.2669 137.449 43.5809 138.044 44.4098C138.511 45.0574 137.839 47.4556 137.214 48.951C137.192 49.0037 137.181 49.0608 137.182 49.1183C137.184 49.1757 137.198 49.2321 137.222 49.2834C137.247 49.3348 137.282 49.3799 137.326 49.4155C137.369 49.4511 137.419 49.4764 137.473 49.4896C138.065 49.6307 138.678 49.651 139.278 49.5492C138.411 52.8808 137.611 52.5471 137.789 53.1013C138.166 54.2741 138.145 54.3723 138.383 54.4515C138.44 54.4703 138.5 54.4748 138.558 54.4649C138.617 54.4549 138.673 54.4307 138.721 54.3942C139.388 53.8794 140.14 53.4951 140.939 53.2599C141.392 53.7019 141.251 54.22 140.857 54.7129C139.957 55.8386 138.126 55.3692 138.107 55.3637C138.041 55.3457 137.973 55.3465 137.908 55.366C137.843 55.3855 137.784 55.423 137.738 55.4744C136.455 56.8811 133.393 56.761 131.27 56.2366C131.533 55.5558 131.585 54.807 131.421 54.0936C131.395 53.9735 131.34 53.8624 131.26 53.7711C131.181 53.6798 131.08 53.6113 130.968 53.5723C130.704 53.4877 130.458 53.3522 130.242 53.1728C130.142 53.0934 130.018 53.0521 129.892 53.0558C129.766 53.0595 129.645 53.108 129.55 53.1932C129.169 53.5127 128.839 53.8932 128.573 54.3204L128.574 54.3244ZM129.701 61.6045C129.36 59.9344 129.354 58.2092 129.682 56.5365C131.488 57.3003 134.563 57.7258 136.622 57.035C136.35 57.6882 136.014 58.3103 135.618 58.8915C134.443 60.5588 130.814 61.3878 129.701 61.6045ZM137.331 57.3152C137.284 59.7241 137.017 62.123 136.536 64.4799C135.57 64.2088 134.561 64.141 133.569 64.2805C134.939 62.0293 136.195 59.7052 137.331 57.3176V57.3152ZM132.986 65.1958C133.589 65.9015 134.138 66.6556 134.627 67.4511C132.388 68.7729 130.386 70.4893 128.712 72.5238C129.954 69.9716 131.383 67.5225 132.986 65.1982V65.1958ZM127.216 75.8004C127.283 75.8007 127.348 75.7827 127.406 75.7481C127.464 75.7134 127.512 75.6635 127.545 75.6034C129.451 72.3906 132.134 69.7531 135.325 67.9535C135.372 67.9296 135.413 67.896 135.446 67.8549C135.479 67.8137 135.504 67.7659 135.519 67.7144C135.534 67.6629 135.538 67.6087 135.532 67.5554C135.526 67.502 135.509 67.4505 135.483 67.404C135.004 66.5698 134.459 65.7782 133.854 65.0373C134.792 64.9016 135.748 65.0095 136.636 65.3513C136.687 65.378 136.743 65.3925 136.8 65.3935C136.857 65.3946 136.913 65.3822 136.965 65.3574C137.017 65.3326 137.062 65.2959 137.098 65.2501C137.135 65.2043 137.16 65.1506 137.174 65.093C137.549 63.4236 137.806 61.7275 137.941 60.0188C138.989 61.4412 141.331 64.644 142.109 65.9063C142.678 66.7999 143.111 67.7796 143.392 68.8108C142.897 68.314 142.283 67.9642 141.614 67.7978C140.945 67.6315 140.245 67.6546 139.587 67.8648C135.929 68.6985 129.902 81.4916 128.942 83.5837C128.303 83.4761 126.686 83.2077 124.789 82.9274C125.414 80.489 126.226 78.1065 127.216 75.8027V75.8004ZM104.998 77.4489C105.114 77.4293 105.233 77.448 105.338 77.5023C107.949 82.0867 108.011 80.2992 106.991 80.9563C104.91 79.026 104.899 77.6075 104.998 77.452V77.4489ZM111.082 83.4212L108.273 82.5294C107.833 82.3253 107.315 81.9446 107.281 81.7444C107.281 81.7271 107.294 81.7005 107.329 81.6659C107.583 81.4084 108.311 81.6785 108.89 81.8959C109.47 82.2118 110.135 82.3142 110.778 82.1864C111.201 82.076 111.643 82.0731 112.067 82.1777C112.491 82.2824 112.885 82.4916 113.215 82.7877C113.293 82.8527 113.393 82.8828 113.493 82.8714C113.592 82.8599 113.683 82.8077 113.746 82.7264C113.808 82.6451 113.837 82.5413 113.826 82.4378C113.815 82.3343 113.765 82.2397 113.687 82.1746C113.277 81.8135 112.792 81.5563 112.27 81.4232C111.748 81.2901 111.203 81.2848 110.679 81.4076C110.207 81.472 110.173 81.5387 109.144 81.1564C108.935 81.0779 108.719 80.9995 108.503 80.9343C108.546 80.8464 108.556 80.7449 108.53 80.6499C108.505 80.5549 108.446 80.4734 108.365 80.4217C107.796 80.0669 106.625 78.23 105.978 77.0901C105.993 76.6027 105.972 76.4378 106.507 77.0038C106.925 77.737 108.877 80.9202 109.69 80.9202C109.773 80.9199 109.854 80.8909 109.92 80.8377C109.986 80.7845 110.033 80.7102 110.054 80.6263C110.075 80.5424 110.069 80.4536 110.036 80.3739C110.003 80.2941 109.946 80.2278 109.873 80.1854C109.089 79.7317 107.803 77.7095 107.245 76.7557C107.284 76.6982 107.342 76.6576 107.408 76.6419C107.496 76.6372 107.818 76.6623 108.422 77.4984C108.471 77.5769 109.073 78.5055 109.95 79.6963C109.989 79.751 110.042 79.7939 110.102 79.8206C110.162 79.8473 110.229 79.8569 110.294 79.8484C110.359 79.8398 110.421 79.8135 110.473 79.772C110.525 79.7306 110.566 79.6755 110.591 79.6124C110.931 79.9199 111.332 80.1454 111.766 80.2725C113.83 80.961 113.54 81.589 115.475 82.6629L114.351 85.2856C113.486 84.7879 111.165 83.451 111.082 83.4275V83.4212ZM114.765 87.7238C115.64 85.6412 116.74 83.524 117.084 82.8732C120.516 82.9368 129.014 84.3922 129.1 84.4071C129.181 84.421 129.265 84.407 129.338 84.3672C129.41 84.3274 129.469 84.264 129.503 84.1865C131.358 80.0881 136.815 69.303 139.753 68.6333C140.197 68.4981 140.663 68.4586 141.122 68.5174C141.581 68.5761 142.024 68.7317 142.424 68.9748C143.044 69.4386 143.483 70.1195 143.66 70.8926C143.655 73.2774 142.955 74.8631 137.208 87.5621C137.189 87.6052 135.271 91.867 132.683 92.3058C128.303 93.05 116.938 88.603 114.765 87.7269V87.7238ZM123.319 93.1465C119.067 92.2187 118.005 90.4673 117.822 90.085C117.847 89.9492 117.867 89.8417 117.883 89.7593C119.411 90.3182 121.259 90.9572 123.168 91.5318C123.22 92.1001 123.269 92.6331 123.319 93.1497V93.1465ZM137.623 142.381C137.411 141.007 135.826 131.019 133.589 125.503C131.535 120.446 128.081 108.915 127.171 105.833C126.522 103.641 123.895 99.6777 122.459 97.9884C122.391 97.9142 122.299 97.8701 122.201 97.8655C122.103 97.8609 122.007 97.8962 121.933 97.9639C121.86 98.0315 121.815 98.1263 121.807 98.228C121.8 98.3298 121.831 98.4305 121.894 98.5089C123.568 100.581 125.008 102.846 126.185 105.26C125.582 108.463 125.203 111.707 125.052 114.966C125.113 116.442 125.332 117.906 125.707 119.331C127.619 127.954 125.291 123.379 125.362 141.013C123.72 141.589 121.044 140.708 119.724 139.836C119.875 138.171 120.713 128.629 120.363 124.806C119.99 120.767 118.073 108.169 117.383 101.713C117.042 98.2051 117.132 94.6661 117.652 91.1817C118.38 92.0358 119.987 93.269 123.406 93.9716C123.847 98.3621 124.346 100.872 125.848 102.122C126.855 102.848 128.071 103.191 129.293 103.092C131.661 103.023 134.014 102.661 136.3 102.014C136.074 105.075 136.382 114.272 137.78 117.944C138.233 119.132 138.672 120.063 139.063 120.891C141.857 126.826 139.662 124.811 142.56 140.174C142.732 141.086 142.932 142.098 142.917 142.02C140.289 144.108 138.126 142.755 137.623 142.381Z" fill="black"/>
<path d="M118.104 144.794C118.025 144.794 117.948 144.768 117.884 144.721C117.82 144.673 117.772 144.605 117.747 144.528C117.68 144.221 117.552 143.931 117.371 143.678C117.189 143.426 116.959 143.215 116.695 143.061C116.546 142.998 116.387 142.967 116.226 142.97C116.066 142.972 115.907 143.008 115.76 143.075C115.671 143.118 115.57 143.123 115.477 143.089C115.385 143.055 115.308 142.985 115.264 142.894C115.221 142.803 115.213 142.697 115.242 142.6C115.272 142.503 115.337 142.422 115.423 142.373C115.665 142.259 115.927 142.196 116.193 142.189C116.458 142.181 116.723 142.229 116.971 142.329C117.34 142.521 117.665 142.795 117.922 143.131C118.18 143.467 118.364 143.857 118.462 144.274C118.481 144.334 118.487 144.397 118.478 144.459C118.469 144.52 118.447 144.579 118.412 144.63C118.377 144.681 118.33 144.722 118.277 144.751C118.223 144.779 118.164 144.794 118.104 144.794Z" fill="white"/>
<path d="M119.758 143.094C119.68 143.095 119.605 143.07 119.541 143.024C119.478 142.978 119.429 142.913 119.403 142.837C119.342 142.592 119.232 142.364 119.081 142.166C118.929 141.969 118.74 141.807 118.524 141.691C118.242 141.586 117.932 141.597 117.657 141.721C117.567 141.768 117.463 141.775 117.367 141.742C117.272 141.709 117.193 141.638 117.148 141.544C117.102 141.45 117.095 141.342 117.127 141.243C117.159 141.143 117.227 141.061 117.317 141.014C118.303 140.543 119.521 140.893 120.111 142.562C120.133 142.622 120.14 142.686 120.133 142.749C120.126 142.812 120.104 142.873 120.069 142.925C120.034 142.977 119.988 143.02 119.933 143.05C119.879 143.079 119.819 143.095 119.758 143.094Z" fill="white"/>
<path d="M139.396 145.886C139.326 145.886 139.258 145.866 139.199 145.829C139.14 145.791 139.092 145.738 139.06 145.674C139.028 145.61 139.014 145.538 139.019 145.466C139.024 145.394 139.047 145.325 139.088 145.267C139.648 144.488 140.461 143.948 141.377 143.748C141.81 143.688 142.251 143.722 142.672 143.847C143.092 143.972 143.484 144.186 143.821 144.475C143.901 144.538 143.954 144.631 143.969 144.734C143.983 144.837 143.957 144.942 143.897 145.025C143.837 145.108 143.747 145.163 143.648 145.178C143.549 145.193 143.448 145.166 143.368 145.103C143.111 144.879 142.812 144.712 142.491 144.612C142.169 144.511 141.832 144.48 141.498 144.519C140.782 144.687 140.145 145.112 139.701 145.72C139.666 145.771 139.62 145.813 139.567 145.841C139.514 145.87 139.455 145.885 139.396 145.886Z" fill="white"/>
<path d="M139.978 148.233C139.906 148.233 139.835 148.212 139.774 148.171C139.714 148.131 139.665 148.073 139.635 148.005C139.605 147.937 139.594 147.862 139.604 147.787C139.613 147.713 139.643 147.643 139.69 147.586C139.744 147.521 141.023 145.98 142.588 145.947C142.975 145.942 143.358 146.027 143.709 146.197C144.061 146.367 144.371 146.616 144.616 146.927C144.683 147.004 144.718 147.105 144.714 147.208C144.709 147.311 144.666 147.409 144.593 147.479C144.519 147.549 144.423 147.586 144.323 147.583C144.224 147.579 144.13 147.535 144.062 147.459C143.886 147.233 143.665 147.05 143.413 146.924C143.161 146.799 142.885 146.733 142.606 146.732C141.695 146.883 140.865 147.366 140.265 148.096C140.23 148.139 140.186 148.174 140.136 148.197C140.086 148.221 140.032 148.233 139.978 148.233Z" fill="white"/>
<path d="M75.7651 28.6564C71.3303 29.4194 66.382 34.5839 64.1072 37.2176C63.9119 36.7148 63.5993 36.2704 63.1975 35.9247C62.7957 35.5789 62.3174 35.3427 61.8058 35.2373C61.2942 35.1319 60.7654 35.1606 60.2672 35.3209C59.7689 35.4812 59.3169 35.7681 58.952 36.1555C53.4715 29.7389 48.675 27.5558 47.3009 27.0354C47.2079 27.0041 47.1068 27.0115 47.019 27.0561C46.9312 27.1007 46.8634 27.179 46.8299 27.2745C46.7965 27.37 46.8 27.4752 46.8396 27.5681C46.8793 27.661 46.9521 27.7343 47.0427 27.7725C48.3828 28.2804 53.0827 30.4234 58.4907 36.8C58.2391 37.2424 58.0917 37.7403 58.0604 38.2532C58.029 38.7661 58.1148 39.2795 58.3106 39.7514C58.5064 40.2233 58.8067 40.6404 59.187 40.9687C59.5673 41.297 60.0169 41.5272 60.499 41.6404C60.9812 41.7537 61.4822 41.7469 61.9614 41.6206C62.4405 41.4942 62.8841 41.2519 63.2561 40.9134C63.628 40.5749 63.9177 40.1498 64.1016 39.6727C64.2854 39.1956 64.3582 38.6801 64.314 38.1682C66.3352 35.7873 71.4865 30.1911 75.8889 29.4343C75.9882 29.4173 76.0768 29.3599 76.1353 29.2749C76.1939 29.1899 76.2176 29.0842 76.2011 28.981C76.1847 28.8778 76.1296 28.7857 76.0478 28.7248C75.966 28.6639 75.8643 28.6393 75.7651 28.6564ZM61.1936 40.9338C60.7204 40.9338 60.2578 40.7879 59.8643 40.5145C59.4708 40.2411 59.1642 39.8525 58.9831 39.3979C58.802 38.9433 58.7547 38.4431 58.8471 37.9605C58.9394 37.4779 59.1674 37.0347 59.5021 36.6868C59.8368 36.3389 60.2631 36.1021 60.7273 36.0062C61.1915 35.9103 61.6726 35.9596 62.1098 36.1481C62.5469 36.3365 62.9205 36.6554 63.1834 37.0646C63.4462 37.4738 63.5864 37.9549 63.5862 38.4469C63.5854 39.1064 63.3331 39.7385 62.8845 40.2048C62.436 40.671 61.8279 40.9332 61.1936 40.9338Z" fill="white"/>
</svg>
