<svg width="153" height="158" viewBox="0 0 153 158" fill="none" xmlns="http://www.w3.org/2000/svg">
<path fill-rule="evenodd" clip-rule="evenodd" d="M69.6617 73.5012C69.2589 71.9492 68.8834 71.3636 67.3277 71.3636C57.1977 71.3636 20.3514 71.5991 7.50735 71.5991C6.97824 71.5994 6.45633 71.7258 5.98225 71.9685C5.50817 72.2112 5.09471 72.5636 4.77407 72.9983C4.45342 73.4331 4.23424 73.9384 4.13359 74.4749C4.03293 75.0114 4.05352 75.5647 4.19375 76.0917C8.02491 90.4509 18.7447 132.583 18.7447 132.583L81.5101 145.529L141.558 137.74L83.7688 128.251L69.6617 73.5012Z" fill="white"/>
<path fill-rule="evenodd" clip-rule="evenodd" d="M67.2758 78.2928L66.5758 75.2988H7.71533L8.55817 78.2928H67.2758Z" fill="#FFD997"/>
<path fill-rule="evenodd" clip-rule="evenodd" d="M81.594 145.521L18.748 132.583V133.196C18.7474 133.973 19.0078 134.727 19.4848 135.328C19.9618 135.929 20.6259 136.341 21.364 136.493L81.594 148.886V145.521Z" fill="white"/>
<path d="M66.9437 75.0461C66.9277 74.9864 66.8813 74.9464 66.1837 74.9048C64.1887 74.787 54.621 74.7478 7.71382 74.9048C7.62718 74.9048 7.28974 75.1175 7.40982 75.6654C7.78982 77.4333 10.0881 86.208 21.273 129.736C21.2958 129.825 21.348 129.903 21.4205 129.956C21.493 130.009 21.5811 130.034 21.6697 130.027C70.3097 126.102 78.2836 125.507 79.5361 125.321C79.7094 125.296 79.8583 125.301 79.7915 124.939C79.565 123.736 77.7007 116.669 66.9437 75.0461ZM19.1701 118.5L32.4701 117.709L33.6997 122.517L20.4598 123.518L19.1701 118.5ZM17.6911 112.743L31.001 111.952L32.2755 116.935L18.9702 117.725L17.6911 112.743ZM16.3049 107.346L29.633 106.603L30.8026 111.177L17.492 111.968L16.3049 107.346ZM13.7087 97.2435L27.0976 96.694L29.4346 105.834L16.1057 106.577L13.7087 97.2435ZM11.2767 87.7615L24.7097 87.3392L26.8985 95.909L13.5088 96.4585L11.2767 87.7615ZM9.00582 78.8675H22.5255L24.5068 86.5605L11.073 86.9828L9.00582 78.8675ZM68.773 85.1686L25.2903 86.5353L23.3143 78.6288H67.0349L68.773 85.1686ZM71.0765 94.0933L27.6805 95.8815L25.4895 87.3148L68.9736 85.9482L71.0765 94.0933ZM73.4721 103.374L30.2136 105.788L27.8797 96.6595L71.2757 94.8712L73.4721 103.374ZM74.8135 108.568L31.5809 111.135L30.412 106.563L73.6727 104.148L74.8135 108.568ZM76.2993 114.324L33.0553 116.892L31.7807 111.909L75.0149 109.342L76.2993 114.324ZM33.2513 117.667L76.4953 115.098L77.5593 119.204L34.4742 122.459L33.2513 117.667ZM66.284 75.6859L66.8327 77.9003H8.80062L8.20858 75.6859H66.284ZM20.6581 124.291L33.9004 123.29L35.143 128.149L21.919 129.216L20.6581 124.291ZM35.9136 128.087L34.6718 123.232L77.7547 119.973L78.9524 124.615L35.9136 128.087Z" fill="black"/>
<path d="M141.617 137.352L84.0726 127.903L70.0323 73.3999C69.5969 71.7208 69.1036 70.9719 67.3313 70.9719C62.5661 70.9719 14.3129 71.2074 7.51017 71.2074C6.9228 71.2084 6.34357 71.3493 5.81746 71.6191C5.29135 71.8888 4.83253 72.2802 4.47664 72.7629C4.12075 73.2455 3.87736 73.8064 3.76539 74.402C3.65342 74.9975 3.67587 75.6117 3.83101 76.1969C7.56185 90.1777 17.9564 131.019 18.369 132.638V133.197C18.3706 134.064 18.6621 134.904 19.1944 135.574C19.7267 136.245 20.4669 136.705 21.2897 136.876C72.0699 147.321 80.0902 148.981 81.3571 149.237C81.5227 149.29 81.6994 149.295 81.8671 149.249L141.638 141.51C141.73 141.498 141.815 141.452 141.876 141.379C141.937 141.307 141.971 141.214 141.97 141.118V137.75C141.968 137.65 141.931 137.555 141.867 137.482C141.802 137.409 141.713 137.362 141.617 137.352ZM138.913 137.703L81.6086 145.122L21.6576 132.783L83.7496 128.644L138.913 137.703ZM4.56441 75.9881C4.43994 75.5195 4.42177 75.0276 4.51131 74.5506C4.60085 74.0736 4.79569 73.6244 5.08068 73.2378C5.36566 72.8513 5.73312 72.5378 6.15449 72.3218C6.57585 72.1058 7.03977 71.9931 7.51017 71.9924C14.3144 71.9924 62.5676 71.7569 67.3313 71.7569C68.6446 71.7569 68.9151 72.1274 69.2974 73.6025L83.2814 127.888L19.0348 132.171C18.046 128.281 8.17821 89.5348 4.56441 75.9881ZM19.129 133.062L81.2142 145.841V148.408L21.4387 136.101C20.7667 135.961 20.1651 135.578 19.7418 135.021C19.3185 134.464 19.1012 133.77 19.129 133.062Z" fill="black"/>
<path fill-rule="evenodd" clip-rule="evenodd" d="M33.9189 133.545L81.4303 130.405L105.199 134.095L58.1044 137.313L33.9189 133.545Z" fill="#81F8F8"/>
<path d="M57.9399 137.681C57.2696 137.581 53.6839 137.016 33.8631 133.934C33.7707 133.919 33.6868 133.87 33.6274 133.795C33.568 133.72 33.5374 133.626 33.5414 133.529C33.5453 133.433 33.5836 133.341 33.6488 133.272C33.7141 133.203 33.8018 133.161 33.8951 133.154C72.6155 130.57 79.8378 130.099 81.18 130.023C81.4043 129.996 81.6315 130.012 81.8503 130.07L105.258 133.706C105.351 133.721 105.435 133.77 105.494 133.845C105.553 133.919 105.584 134.014 105.58 134.11C105.576 134.207 105.538 134.298 105.473 134.367C105.408 134.437 105.32 134.479 105.227 134.485L58.2926 137.689C58.1756 137.71 58.0559 137.707 57.9399 137.681ZM37.4823 133.704L58.1208 136.915L101.669 133.941L81.4179 130.796L37.4823 133.704Z" fill="black"/>
<path d="M93.5796 141.91C92.6144 141.7 89.5083 141.01 79.4026 138.763C79.3128 138.743 79.233 138.691 79.1779 138.615C79.1227 138.539 79.096 138.445 79.1025 138.351C79.1091 138.256 79.1486 138.167 79.2137 138.101C79.2787 138.034 79.365 137.994 79.4566 137.987L105.254 136.163L119.385 137.99C119.477 138.002 119.562 138.048 119.623 138.12C119.684 138.191 119.717 138.284 119.717 138.379C119.717 138.475 119.684 138.567 119.623 138.639C119.562 138.71 119.477 138.756 119.385 138.768C101.671 141.006 96.3688 141.693 94.7614 141.904C93.87 142.016 94.1428 142.028 93.5796 141.91ZM82.1979 138.58L94.0486 141.207L116.263 138.375L105.23 136.94L82.1979 138.58Z" fill="black"/>
<path d="M122.65 8.46944H86.4166C80.8276 8.46944 76.2812 12.9282 76.2812 18.4083V37.4987C76.2812 42.978 80.8276 47.4368 86.4166 47.4368H94.2651C92.6433 52.6854 88.7452 58.1207 82.3673 64.0325C82.3018 64.0931 82.2586 64.1754 82.2452 64.2652C82.2318 64.355 82.249 64.4468 82.2938 64.525C82.3387 64.6032 82.4084 64.6629 82.4911 64.6939C82.5738 64.7249 82.6644 64.7253 82.7473 64.6951C93.3546 60.8446 100.11 55.1966 103.39 47.4368H122.65C128.239 47.4368 132.785 42.978 132.785 37.4987V18.4083C132.785 12.9282 128.239 8.46944 122.65 8.46944Z" fill="black"/>
<path fill-rule="evenodd" clip-rule="evenodd" d="M89.6494 20.8065V39.2721L98.3727 30.0389L89.6494 20.8065Z" fill="white"/>
<path fill-rule="evenodd" clip-rule="evenodd" d="M111.645 20.235H90.1709L104.47 35.3706L114.122 25.1585C113.401 24.5602 112.809 23.8134 112.383 22.9658C111.956 22.1182 111.705 21.1882 111.645 20.235Z" fill="white"/>
<path fill-rule="evenodd" clip-rule="evenodd" d="M114.74 25.6272L110.572 30.0389L119.295 39.2721V26.8432C117.689 26.9611 116.09 26.5341 114.74 25.6272Z" fill="white"/>
<path fill-rule="evenodd" clip-rule="evenodd" d="M110.041 30.6009C106.195 34.672 105.101 35.8604 104.736 36.1988C104.559 36.3621 104.423 36.3856 104.245 36.2286C103.912 35.9374 102.888 34.8156 98.9041 30.6009L90.1709 39.8435H118.773L110.041 30.6009Z" fill="white"/>
<path fill-rule="evenodd" clip-rule="evenodd" d="M118.785 13.6088C117.138 13.5644 115.542 14.1952 114.344 15.3634C113.146 16.5315 112.445 18.1419 112.394 19.8425C112.488 21.5276 113.202 23.1117 114.39 24.2703C115.579 25.4289 117.151 26.0743 118.785 26.0743C120.419 26.0743 121.992 25.4289 123.18 24.2703C124.368 23.1117 125.083 21.5276 125.177 19.8425C125.125 18.1419 124.424 16.5315 123.226 15.3634C122.029 14.1952 120.432 13.5644 118.785 13.6088Z" fill="#FFD997"/>
<path d="M119.334 16.1978C116.602 19.3134 116.663 19.1619 116.665 19.428V20.5396C116.666 20.632 116.693 20.7222 116.742 20.7991C116.792 20.8761 116.862 20.9365 116.944 20.9731C117.026 21.0096 117.117 21.0208 117.205 21.0052C117.293 20.9895 117.375 20.9478 117.441 20.885L118.229 20.1243L118.199 23.1631C118.197 23.226 118.209 23.2885 118.231 23.3469C118.254 23.4053 118.288 23.4584 118.33 23.5031C118.373 23.5478 118.424 23.5832 118.481 23.6072C118.537 23.6312 118.597 23.6432 118.658 23.6427L119.678 23.6333C119.8 23.6323 119.916 23.5818 120.001 23.4928C120.086 23.4039 120.134 23.2836 120.134 23.1584V16.5165C120.134 16.4206 120.106 16.3271 120.053 16.248C120.001 16.169 119.926 16.1083 119.84 16.0738C119.753 16.0393 119.659 16.0327 119.568 16.0548C119.478 16.077 119.396 16.1268 119.334 16.1978Z" fill="black"/>
<path fill-rule="evenodd" clip-rule="evenodd" d="M101.658 70.8675C101.658 70.8675 93.9638 78.2614 92.8793 80.7805C91.7948 83.2996 97.4013 81.9243 97.4013 81.9243L89.7944 93.1725C89.7944 93.1725 102.334 81.7625 101.64 79.939C100.738 77.5691 95.9193 79.8314 95.9193 79.8314L101.658 70.8675Z" fill="white"/>
<path fill-rule="evenodd" clip-rule="evenodd" d="M116.336 79.0315C116.336 79.0315 106.345 82.3992 104.336 84.2125C102.327 86.0259 107.974 87.2136 107.974 87.2136L96.498 94.1216C96.498 94.1216 112.518 89.2106 112.631 87.256C112.777 84.7134 107.484 84.6749 107.484 84.6749L116.336 79.0315Z" fill="white"/>
<path d="M89.4831 92.948L96.5465 82.5075C95.2925 82.7304 93.2785 82.9243 92.6021 82.0781C92.4517 81.8708 92.3646 81.6219 92.352 81.3631C92.3394 81.1044 92.4019 80.8477 92.5315 80.6259C93.635 78.0628 101.083 70.8919 101.399 70.5857C101.467 70.5213 101.556 70.4847 101.648 70.4828C101.741 70.481 101.831 70.514 101.901 70.5757C101.972 70.6374 102.018 70.7236 102.032 70.818C102.045 70.9125 102.025 71.0088 101.974 71.0889L96.8916 79.0284C98.7232 78.3917 101.283 77.9333 101.994 79.8C102.728 81.7288 93.0346 90.7516 90.0455 93.4708C89.9759 93.537 89.8849 93.5739 89.7903 93.5745C89.6957 93.575 89.6043 93.5391 89.534 93.4737C89.4637 93.4083 89.4195 93.3182 89.4101 93.221C89.4007 93.1238 89.4267 93.0265 89.4831 92.948ZM97.4023 81.5325C97.4717 81.5326 97.5399 81.5522 97.5992 81.5894C97.6586 81.6266 97.707 81.6799 97.7391 81.7435C97.7712 81.8071 97.7859 81.8786 97.7814 81.9502C97.777 82.0217 97.7536 82.0907 97.7139 82.1495L92.0025 90.5946C97.0071 85.8508 101.531 80.9807 101.287 80.0811C100.692 78.5205 97.5125 79.5151 96.0776 80.1894C96.0025 80.2247 95.9184 80.2337 95.8379 80.2153C95.7574 80.1968 95.6848 80.1517 95.6313 80.0869C95.5777 80.0221 95.5461 79.9411 95.541 79.8561C95.536 79.771 95.5579 79.6866 95.6034 79.6156L99.4543 73.6001C98.5879 74.4801 92.4532 80.658 93.1881 81.5734C93.8197 82.3623 97.3217 81.5325 97.4023 81.5325Z" fill="black"/>
<path d="M96.4959 94.5086C96.4124 94.5086 96.3312 94.4802 96.2648 94.4278C96.1985 94.3754 96.1507 94.3018 96.1289 94.2185C96.1071 94.1352 96.1125 94.0468 96.1442 93.967C96.1759 93.8872 96.2322 93.8204 96.3044 93.777L106.963 87.3651C105.734 87.022 103.832 86.3273 103.559 85.2652C103.506 85.0116 103.529 84.7477 103.623 84.5073C103.717 84.2669 103.878 84.0609 104.086 83.9158C106.13 82.0679 115.807 78.7929 116.218 78.6563C116.306 78.627 116.402 78.632 116.487 78.6704C116.571 78.7088 116.64 78.7779 116.679 78.8646C116.718 78.9514 116.725 79.05 116.698 79.1417C116.672 79.2334 116.614 79.3121 116.536 79.3628L108.692 84.3601C110.614 84.5791 113.122 85.2723 113.008 87.2748C112.874 89.5984 96.6418 94.5086 96.4959 94.5086ZM113.224 80.5489C112.107 80.9611 103.996 83.9142 104.294 85.0642C104.475 85.7707 106.599 86.5212 108.05 86.8266C108.126 86.8424 108.195 86.8816 108.248 86.9389C108.302 86.9962 108.337 87.0689 108.349 87.1473C108.362 87.2258 108.351 87.3064 108.318 87.3784C108.285 87.4503 108.232 87.5103 108.166 87.5503L99.5466 92.7313C106.019 90.5993 112.106 88.143 112.25 87.2214C112.345 85.5517 109.058 85.0713 107.479 85.058C107.396 85.0575 107.316 85.0292 107.25 84.9775C107.185 84.9258 107.137 84.8533 107.115 84.7712C107.093 84.689 107.097 84.6017 107.127 84.5222C107.157 84.4428 107.211 84.3757 107.282 84.3311L113.224 80.5489Z" fill="black"/>
<path fill-rule="evenodd" clip-rule="evenodd" d="M29.944 39.2187C29.944 39.2187 29.0061 36.793 30.1902 36.2985C31.3743 35.8039 32.0727 38.3316 32.0727 38.3316L32.0408 38.345C36.4207 37.9572 39.0997 46.1361 39.8073 48.0005C40.5543 49.97 43.7311 50.1435 43.7311 50.1435L36.9497 52.5464C36.9611 52.5849 37.81 55.4109 36.6966 55.9219C35.5832 56.4329 34.4607 53.4758 34.4455 53.4358L27.2627 55.9808C28.3662 54.6031 29.5746 53.4758 29.2919 51.3689C29.2919 51.3681 26.4183 42.215 29.944 39.2187Z" fill="#FFD997"/>
<path d="M43.7512 49.751C43.7215 49.751 40.8047 49.5665 40.1609 47.8529C38.7367 44.0606 36.3093 37.9446 32.3459 37.9383C31.9499 36.7726 31.1603 35.4734 30.0453 35.9342C28.9304 36.395 29.1417 38.038 29.4943 39.1033C29.1333 39.4601 28.8327 39.877 28.6051 40.3365C26.6694 44.1767 28.8331 51.1923 28.9137 51.4215C29.1683 53.3259 28.0929 54.3205 26.9673 55.7304C26.9149 55.7963 26.8846 55.8781 26.8812 55.9633C26.8778 56.0486 26.9013 56.1327 26.9483 56.2029C26.9953 56.2731 27.0632 56.3255 27.1416 56.3523C27.2201 56.3791 27.3048 56.3787 27.3831 56.3513L34.2299 53.9249C34.7353 55.0953 35.7165 56.7964 36.8473 56.2799C38.001 55.7523 37.6271 53.6776 37.4097 52.7976L43.8515 50.5148C43.9352 50.4857 44.0064 50.4273 44.0529 50.3498C44.0995 50.2723 44.1185 50.1805 44.1066 50.0901C44.0947 49.9998 44.0528 49.9165 43.9879 49.8546C43.923 49.7927 43.8393 49.7561 43.7512 49.751ZM30.3326 36.6627C30.8646 36.4359 31.3571 37.4658 31.5669 38.0184C31.0637 38.1206 30.582 38.3141 30.1441 38.5899C29.9655 37.9179 29.8067 36.8817 30.3326 36.6627ZM29.2823 40.6984C29.563 40.1097 29.9968 39.6134 30.5352 39.2651C31.0737 38.9168 31.6954 38.7303 32.3307 38.7265C35.87 38.7265 38.1827 44.7545 39.4534 48.1418C39.4671 48.1787 39.4823 48.214 39.4975 48.2501L29.7011 51.8485C29.697 51.6473 29.681 51.4465 29.6532 51.2472C29.6319 51.1774 27.4925 44.2466 29.2823 40.6984ZM36.5426 55.56C36.0106 55.7955 35.2133 54.2538 34.9542 53.6658L36.6908 53.0504C36.9317 54.0544 37.0275 55.341 36.5426 55.56ZM28.4364 55.1455C29.0366 54.4525 29.4513 53.6096 29.6395 52.7003L39.9162 48.926C40.5387 49.5919 41.3346 50.0576 42.2076 50.2668L28.4364 55.1455Z" fill="black"/>
<path d="M40.4979 38.7241C40.4207 38.7242 40.3453 38.6999 40.2818 38.6546C40.2182 38.6093 40.1696 38.5451 40.1423 38.4705C40.1149 38.3959 40.1103 38.3145 40.1289 38.2371C40.1475 38.1597 40.1884 38.09 40.2463 38.0373L44.6216 34.051C44.6972 33.9821 44.7962 33.947 44.8969 33.9535C44.9975 33.96 45.0915 34.0075 45.1582 34.0856C45.2249 34.1636 45.2589 34.2659 45.2526 34.3698C45.2463 34.4738 45.2004 34.5709 45.1248 34.6398C40.466 38.8843 40.7061 38.7241 40.4979 38.7241Z" fill="black"/>
<path d="M36.2485 32.7887L40.1618 25.1805C40.2109 25.0925 40.2913 25.0276 40.3859 24.9995C40.4805 24.9714 40.5819 24.9822 40.6689 25.0299C40.7558 25.0775 40.8215 25.1581 40.8521 25.2547C40.8827 25.3513 40.8758 25.4564 40.8328 25.5479L36.9196 33.1561C36.8704 33.2442 36.7901 33.3091 36.6955 33.3372C36.6009 33.3653 36.4995 33.3544 36.4125 33.3068C36.3255 33.2592 36.2598 33.1786 36.2293 33.082C36.1987 32.9853 36.2056 32.8802 36.2485 32.7887Z" fill="black"/>
<path d="M28.8095 32.5313L25.2915 24.7244C25.2685 24.6775 25.2548 24.6262 25.2514 24.5737C25.2479 24.5212 25.2547 24.4685 25.2714 24.4188C25.288 24.369 25.3142 24.3233 25.3483 24.2842C25.3825 24.2451 25.4239 24.2135 25.47 24.1913C25.5162 24.1691 25.5663 24.1567 25.6172 24.1548C25.6681 24.153 25.7189 24.1618 25.7665 24.1806C25.814 24.1994 25.8575 24.228 25.8942 24.2645C25.9308 24.301 25.9601 24.3448 25.98 24.3932L29.4981 32.2C29.5368 32.2937 29.5387 32.3993 29.5034 32.4944C29.4681 32.5895 29.3984 32.6667 29.309 32.7097C29.2196 32.7527 29.1175 32.7582 29.0243 32.7249C28.9311 32.6916 28.8541 32.6221 28.8095 32.5313Z" fill="black"/>
<path d="M23.6176 38.7241C23.4853 38.7241 23.8828 38.8937 16.9425 35.4271C16.8962 35.4056 16.8545 35.3747 16.8199 35.3363C16.7853 35.2979 16.7586 35.2527 16.7412 35.2034C16.7238 35.1541 16.7162 35.1017 16.7187 35.0493C16.7213 34.9969 16.734 34.9455 16.7561 34.8983C16.7782 34.8511 16.8093 34.8089 16.8474 34.7743C16.8856 34.7396 16.9301 34.7133 16.9783 34.6967C17.0265 34.6801 17.0774 34.6737 17.128 34.6778C17.1787 34.6819 17.228 34.6965 17.2731 34.7206L23.7832 37.976C23.862 38.014 23.9257 38.0787 23.9639 38.1593C24.002 38.24 24.0123 38.3317 23.9929 38.4192C23.9735 38.5067 23.9257 38.5847 23.8574 38.6402C23.7891 38.6956 23.7045 38.7253 23.6176 38.7241Z" fill="black"/>
<path d="M18.0887 45.136C17.9961 45.1363 17.9066 45.1017 17.837 45.0387C17.7674 44.9757 17.7225 44.8886 17.7106 44.7938C17.6988 44.6989 17.7209 44.6029 17.7727 44.5237C17.8245 44.4445 17.9026 44.3876 17.9922 44.3636L23.031 42.9961C23.0796 42.9818 23.1305 42.9777 23.1806 42.984C23.2308 42.9903 23.2792 43.0069 23.3231 43.0328C23.367 43.0586 23.4055 43.0933 23.4363 43.1347C23.467 43.1761 23.4895 43.2235 23.5023 43.274C23.5152 43.3244 23.5181 43.3771 23.511 43.4288C23.5039 43.4804 23.4869 43.5301 23.461 43.575C23.4351 43.6198 23.4008 43.6588 23.3601 43.6897C23.3194 43.7207 23.2731 43.7429 23.224 43.7552C17.844 45.2153 18.1654 45.136 18.0887 45.136Z" fill="black"/>
<path fill-rule="evenodd" clip-rule="evenodd" d="M137.914 121.156C137.513 122.482 136.863 123.713 136.002 124.78C130.9 126.187 125.529 126.187 120.427 124.78C115.925 119.548 117.345 105.295 117.317 103.255C117.29 101.215 117.174 99.6982 116.625 98.7656C115.762 97.2985 116.978 96.0707 118.304 95.661C124.808 93.9978 131.608 93.9978 138.112 95.661C139.439 96.0707 140.666 97.2993 139.803 98.7656C139.35 99.7448 139.126 100.82 139.149 101.906C139.921 101.31 140.827 100.928 141.782 100.796C142.737 100.664 143.709 100.786 144.606 101.15C147.559 102.465 149.143 107.186 148.204 111.111C147.266 115.036 144.964 118.508 137.914 121.156ZM139.282 108.113C139.282 108.113 140.089 107.949 140.089 106.421C140.089 104.893 141.401 103.663 143.191 105.018C144.982 106.373 145.253 111.759 143.191 113.816C141.901 115.15 140.43 116.282 138.823 117.175C139.224 114.173 139.378 111.142 139.284 108.113H139.282Z" fill="#81F8F8"/>
<path fill-rule="evenodd" clip-rule="evenodd" d="M128.401 96.632C126.395 96.6234 119.038 96.9539 119.061 98.1298C119.082 99.2539 137.741 100.099 137.741 98.403C137.74 97.1493 131.51 96.6446 128.401 96.632Z" fill="white"/>
<path d="M144.756 100.786C143.926 100.428 143.026 100.275 142.128 100.337C141.23 100.4 140.358 100.677 139.581 101.147C139.607 100.389 139.794 99.6454 140.129 98.9697C141.063 97.3785 140.1 95.8643 138.381 95.332C135.104 94.5173 131.749 94.088 128.38 94.0525C125.002 94.0946 121.639 94.524 118.353 95.3328C116.614 95.8705 115.353 97.3565 116.301 98.9697C117.044 100.231 116.954 103.253 116.887 104.73C116.689 109.019 116.161 120.414 120.144 125.04C120.192 125.097 120.255 125.138 120.326 125.157C125.49 126.592 130.93 126.592 136.094 125.157C136.168 125.138 136.236 125.096 136.287 125.037C137.142 123.983 137.794 122.769 138.207 121.461C145.874 118.534 147.752 114.631 148.574 111.199C149.576 107.005 147.79 102.138 144.756 100.786ZM137.565 121.003C137.557 121.021 137.551 121.04 137.546 121.06C137.17 122.285 136.576 123.427 135.794 124.428C130.828 125.788 125.604 125.788 120.638 124.428C116.942 119.983 117.452 108.938 117.645 104.763C117.721 103.06 117.803 100.007 116.95 98.5576C116.27 97.4013 117.395 96.4444 118.572 96.0809C125.003 94.4178 131.732 94.4178 138.163 96.0809C139.363 96.4514 140.158 97.3997 139.479 98.5576C138.624 100.007 138.704 103.064 138.783 104.763C138.935 108.091 139.29 115.77 137.565 121.003ZM139.667 108.365C139.957 108.145 140.184 107.849 140.326 107.508C140.467 107.167 140.517 106.793 140.471 106.425C140.471 105.064 141.545 104.261 142.969 105.338C144.561 106.543 144.826 111.645 142.93 113.538C141.852 114.665 140.633 115.638 139.304 116.43C139.614 113.753 139.735 111.056 139.667 108.361V108.365ZM147.835 111.017C147.082 114.168 145.37 117.741 138.505 120.511C138.786 119.498 139.006 118.469 139.163 117.428C140.743 116.539 142.189 115.419 143.458 114.102C145.709 111.856 145.384 106.193 143.419 104.705C141.453 103.217 139.711 104.485 139.711 106.425C139.714 106.653 139.689 106.88 139.635 107.101C139.539 103.951 139.445 103.868 139.518 102.112C140.226 101.593 141.049 101.265 141.912 101.16C142.774 101.055 143.648 101.176 144.454 101.511C147.178 102.719 148.756 107.161 147.835 111.013V111.017Z" fill="black"/>
<path fill-rule="evenodd" clip-rule="evenodd" d="M132.64 96.4656C132.59 96.4618 132.54 96.4686 132.492 96.4856C132.445 96.5025 132.401 96.5292 132.364 96.5641C132.327 96.5989 132.297 96.6412 132.276 96.6884C132.255 96.7356 132.244 96.7866 132.243 96.8385C132.238 96.9422 132.273 97.0436 132.341 97.1206C132.408 97.1975 132.503 97.2437 132.603 97.249C133.421 97.2906 134.183 97.3707 134.849 97.4727C134.933 97.9107 134.888 98.3645 134.72 98.7758C130.408 99.0855 126.08 99.0509 121.773 98.6722C121.571 98.2907 121.52 97.8436 121.63 97.4241C122.677 97.2576 124.219 97.0928 126.494 96.9601C126.595 96.9543 126.689 96.9074 126.757 96.8296C126.824 96.7519 126.858 96.6497 126.853 96.5457C126.847 96.4416 126.802 96.344 126.726 96.2745C126.651 96.2051 126.552 96.1693 126.452 96.1751C120.405 96.6501 119.21 97.1022 118.827 97.6666C118.757 97.7673 118.71 97.8838 118.692 98.0066C118.673 98.1295 118.683 98.2551 118.721 98.3731C119.207 100.012 131.553 99.7335 133.45 99.6228C137.95 99.3559 138.054 98.7766 138.116 98.4304C138.396 96.8754 134.172 96.5425 132.64 96.4656Z" fill="black"/>
</svg>
