<svg width="120" height="107" viewBox="0 0 120 107" fill="none" xmlns="http://www.w3.org/2000/svg">
<path d="M11.1429 0H60C60 18.2697 60 24.7252 60 45.5602C40.5001 45.5602 32.6386 45.5602 11.1429 45.5602V0Z" fill="#B9FFD0"/>
<path d="M17.1429 45.5602H11.1429V32.6658H17.1429V45.5602Z" fill="#94F4BE"/>
<path d="M60 32.6658V45.5602H43.7143V32.6658H60Z" fill="#94F4BE"/>
<path d="M43.7143 0H60V6.01738H43.7143V0Z" fill="#94F4BE"/>
<path d="M17.1429 0H11.1429V6.01738H17.1429V32.6658H43.7143V6.01738H17.1429V0Z" fill="#94F4BE"/>
<path d="M60.0465 45.683H109.714V57.165C109.714 66.8405 104.913 75.8997 96.8669 81.404L60.0465 106.594V45.683Z" fill="#B9FFD0"/>
<path d="M60.0465 0H109.714V45.683H90.0556L90.7288 48.6111C91.6637 52.6776 88.5867 56.5599 84.4289 56.5599C80.271 56.5599 77.194 52.6776 78.129 48.6111L78.8022 45.683H60.0465V30.3298L58.0323 30.7964C53.9809 31.7348 50.113 28.6463 50.113 24.473C50.113 20.2997 53.9809 17.2113 58.0323 18.1497L60.0465 18.6162V0Z" fill="#DFFFEC"/>
<path d="M100.393 45.683H90.0556L90.7288 48.6111C91.6637 52.6776 88.5867 56.5599 84.4289 56.5599C80.271 56.5599 77.194 52.6776 78.129 48.6111L78.8022 45.683H62.9431C71.6165 33.1331 80.8987 25.8616 89.7067 18.9617C96.8866 13.3372 103.751 7.9595 109.714 0.170872V27.5273C106.664 33.8471 103.815 39.5767 100.393 45.683Z" fill="#C6FCD5"/>
<path d="M71.9783 0L60.0465 0V13.3258C63.1857 8.99526 67.0814 4.67848 71.9783 0Z" fill="#C6FCD5"/>
<path d="M56.9585 17.9928C54.8742 21.4713 53.2101 25.0427 51.8445 28.8941C50.7776 27.7466 50.113 26.203 50.113 24.473C50.113 20.6708 53.3237 17.7691 56.9585 17.9928Z" fill="#C6FCD5"/>
<path d="M35.9008 34.385C31.7562 34.385 28.689 38.2268 29.621 42.2508L30.292 45.1483L11.1429 45.2297V57.5714C11.1429 67.2469 15.8706 76.3061 23.7926 81.8103L60.0465 107V45.2297L41.5095 45.1483L42.1805 42.2508C43.1125 38.2268 40.0453 34.385 35.9008 34.385Z" fill="#DFFFEC"/>
<path d="M60.0465 47.2807C60.0311 47.2799 60.0156 47.2794 60 47.2794C59.5266 47.2794 59.1429 47.6643 59.1429 48.1391C59.1429 48.6138 59.5266 48.9987 60 48.9987C60.0156 48.9987 60.0311 48.9983 60.0465 48.9974V47.2807Z" fill="#59CEEE"/>
<path d="M60.0465 67.9117C60.0311 67.9109 60.0156 67.9105 60 67.9105C59.5266 67.9105 59.1429 68.2953 59.1429 68.7701C59.1429 69.2448 59.5266 69.6297 60 69.6297C60.0156 69.6297 60.0311 69.6293 60.0465 69.6285V67.9117Z" fill="#59CEEE"/>
<path d="M60.0465 88.5427C60.0311 88.5419 60.0156 88.5415 60 88.5415C59.5266 88.5415 59.1429 88.9264 59.1429 89.4011C59.1429 89.8759 59.5266 90.2607 60 90.2607C60.0156 90.2607 60.0311 90.2603 60.0465 90.2595V88.5427Z" fill="#59CEEE"/>
<path d="M35.1429 37.8235C35.1429 38.2983 34.7591 38.6832 34.2857 38.6832C33.8123 38.6832 33.4286 38.2983 33.4286 37.8235C33.4286 37.3488 33.8123 36.9639 34.2857 36.9639C34.7591 36.9639 35.1429 37.3488 35.1429 37.8235Z" fill="#59CEEE"/>
<path d="M14.5714 58.4546C14.5714 58.9293 14.1877 59.3142 13.7143 59.3142C13.2409 59.3142 12.8571 58.9293 12.8571 58.4546C12.8571 57.9798 13.2409 57.5949 13.7143 57.5949C14.1877 57.5949 14.5714 57.9798 14.5714 58.4546Z" fill="#59CEEE"/>
<path d="M35.1429 58.4546C35.1429 58.9293 34.7591 59.3142 34.2857 59.3142C33.8123 59.3142 33.4286 58.9293 33.4286 58.4546C33.4286 57.9798 33.8123 57.5949 34.2857 57.5949C34.7591 57.5949 35.1429 57.9798 35.1429 58.4546Z" fill="#59CEEE"/>
<path d="M44.5714 59.3142C45.0448 59.3142 45.4286 58.9293 45.4286 58.4546C45.4286 57.9798 45.0448 57.5949 44.5714 57.5949C44.098 57.5949 43.7143 57.9798 43.7143 58.4546C43.7143 58.9293 44.098 59.3142 44.5714 59.3142Z" fill="#59CEEE"/>
<path d="M55.7143 58.4546C55.7143 58.9293 55.3305 59.3142 54.8571 59.3142C54.3838 59.3142 54 58.9293 54 58.4546C54 57.9798 54.3838 57.5949 54.8571 57.5949C55.3305 57.5949 55.7143 57.9798 55.7143 58.4546Z" fill="#59CEEE"/>
<path d="M24 59.3142C24.4734 59.3142 24.8571 58.9293 24.8571 58.4546C24.8571 57.9798 24.4734 57.5949 24 57.5949C23.5266 57.5949 23.1429 57.9798 23.1429 58.4546C23.1429 58.9293 23.5266 59.3142 24 59.3142Z" fill="#59CEEE"/>
<path d="M34.2857 79.9452C34.7591 79.9452 35.1429 79.5604 35.1429 79.0856C35.1429 78.6108 34.7591 78.226 34.2857 78.226C33.8123 78.226 33.4286 78.6108 33.4286 79.0856C33.4286 79.5604 33.8123 79.9452 34.2857 79.9452Z" fill="#59CEEE"/>
<path d="M44.5714 79.9452C45.0448 79.9452 45.4286 79.5604 45.4286 79.0856C45.4286 78.6108 45.0448 78.226 44.5714 78.226C44.098 78.226 43.7143 78.6108 43.7143 79.0856C43.7143 79.5604 44.098 79.9452 44.5714 79.9452Z" fill="#59CEEE"/>
<path d="M55.7143 79.0856C55.7143 79.5604 55.3305 79.9452 54.8571 79.9452C54.3838 79.9452 54 79.5604 54 79.0856C54 78.6108 54.3838 78.226 54.8571 78.226C55.3305 78.226 55.7143 78.6108 55.7143 79.0856Z" fill="#59CEEE"/>
<path d="M24 79.9452C24.4734 79.9452 24.8571 79.5604 24.8571 79.0856C24.8571 78.6108 24.4734 78.226 24 78.226C23.5266 78.226 23.1429 78.6108 23.1429 79.0856C23.1429 79.5604 23.5266 79.9452 24 79.9452Z" fill="#59CEEE"/>
<path d="M54.8571 100.576C55.3305 100.576 55.7143 100.191 55.7143 99.7166C55.7143 99.2419 55.3305 98.857 54.8571 98.857C54.3838 98.857 54 99.2419 54 99.7166C54 100.191 54.3838 100.576 54.8571 100.576Z" fill="#59CEEE"/>
<path d="M39.4286 69.6297C39.902 69.6297 40.2857 69.2448 40.2857 68.7701C40.2857 68.2953 39.902 67.9105 39.4286 67.9105C38.9552 67.9105 38.5714 68.2953 38.5714 68.7701C38.5714 69.2448 38.9552 69.6297 39.4286 69.6297Z" fill="#59CEEE"/>
<path d="M19.7143 68.7701C19.7143 69.2448 19.3305 69.6297 18.8571 69.6297C18.3838 69.6297 18 69.2448 18 68.7701C18 68.2953 18.3838 67.9105 18.8571 67.9105C19.3305 67.9105 19.7143 68.2953 19.7143 68.7701Z" fill="#59CEEE"/>
<path d="M49.7143 69.6297C50.1877 69.6297 50.5714 69.2448 50.5714 68.7701C50.5714 68.2953 50.1877 67.9105 49.7143 67.9105C49.2409 67.9105 48.8571 68.2953 48.8571 68.7701C48.8571 69.2448 49.2409 69.6297 49.7143 69.6297Z" fill="#59CEEE"/>
<path d="M29.1429 69.6297C29.6162 69.6297 30 69.2448 30 68.7701C30 68.2953 29.6162 67.9105 29.1429 67.9105C28.6695 67.9105 28.2857 68.2953 28.2857 68.7701C28.2857 69.2448 28.6695 69.6297 29.1429 69.6297Z" fill="#59CEEE"/>
<path d="M40.2857 48.1391C40.2857 48.6138 39.902 48.9987 39.4286 48.9987C38.9552 48.9987 38.5714 48.6138 38.5714 48.1391C38.5714 47.6643 38.9552 47.2794 39.4286 47.2794C39.902 47.2794 40.2857 47.6643 40.2857 48.1391Z" fill="#59CEEE"/>
<path d="M18.8571 48.9987C19.3305 48.9987 19.7143 48.6138 19.7143 48.1391C19.7143 47.6643 19.3305 47.2794 18.8571 47.2794C18.3838 47.2794 18 47.6643 18 48.1391C18 48.6138 18.3838 48.9987 18.8571 48.9987Z" fill="#59CEEE"/>
<path d="M50.5714 48.1391C50.5714 48.6138 50.1877 48.9987 49.7143 48.9987C49.2409 48.9987 48.8571 48.6138 48.8571 48.1391C48.8571 47.6643 49.2409 47.2794 49.7143 47.2794C50.1877 47.2794 50.5714 47.6643 50.5714 48.1391Z" fill="#59CEEE"/>
<path d="M30 48.1391C30 48.6138 29.6162 48.9987 29.1429 48.9987C28.6695 48.9987 28.2857 48.6138 28.2857 48.1391C28.2857 47.6643 28.6695 47.2794 29.1429 47.2794C29.6162 47.2794 30 47.6643 30 48.1391Z" fill="#59CEEE"/>
<path d="M39.4286 90.2607C39.902 90.2607 40.2857 89.8759 40.2857 89.4011C40.2857 88.9264 39.902 88.5415 39.4286 88.5415C38.9552 88.5415 38.5714 88.9264 38.5714 89.4011C38.5714 89.8759 38.9552 90.2607 39.4286 90.2607Z" fill="#59CEEE"/>
<path d="M49.7143 90.2607C50.1877 90.2607 50.5714 89.8759 50.5714 89.4011C50.5714 88.9264 50.1877 88.5415 49.7143 88.5415C49.2409 88.5415 48.8571 88.9264 48.8571 89.4011C48.8571 89.8759 49.2409 90.2607 49.7143 90.2607Z" fill="#59CEEE"/>
<path d="M21.5312 55.3503C32.5598 55.3504 41.5625 64.5218 41.5625 75.9128C41.5625 87.3037 32.5597 96.4752 21.5312 96.4753C10.5027 96.4753 1.50003 87.3037 1.5 75.9128C1.5 64.5218 10.5027 55.3503 21.5312 55.3503Z" stroke="#17191C" stroke-width="3"/>
<ellipse cx="21.531" cy="75.913" rx="5.45454" ry="5.58914" fill="#17191C"/>
<ellipse cx="98.469" cy="75.913" rx="5.45454" ry="5.58914" fill="#17191C"/>
<path d="M98.4691 55.3503C109.498 55.3504 118.5 64.5218 118.5 75.9128C118.5 87.3037 109.498 96.4752 98.4691 96.4753C87.4405 96.4753 78.4379 87.3037 78.4378 75.9128C78.4378 64.5218 87.4405 55.3503 98.4691 55.3503Z" stroke="#17191C" stroke-width="3"/>
<path fill-rule="evenodd" clip-rule="evenodd" d="M32.9307 27.3465C31.3814 27.3465 29.9469 28.1633 29.1563 29.4957C27.4202 32.4214 29.5288 36.1244 32.9307 36.1244H37.2857V33.1244H32.9307C31.8541 33.1244 31.1868 31.9525 31.7362 31.0266C31.9865 30.605 32.4404 30.3465 32.9307 30.3465H42.1368L20.1835 75.2542L22.8787 76.5718L34.7878 52.2105L55.1209 77.7304L56.294 78.2956H99.3301L100.512 75.8726L80.8811 50.7278L85.5161 40.9364H89.734V37.9364H84.5665H75.0929V40.9364H82.1969L78.4647 48.8207H36.4449L45.8873 29.5053C46.1146 29.0404 46.0862 28.4911 45.8121 28.0522C45.5381 27.6132 45.0572 27.3465 44.5397 27.3465H32.9307ZM79.4445 53.7627L69.2514 75.2956H96.256L79.4445 53.7627Z" fill="#006FFF"/>
<path d="M53.096 63.6497L59.0911 54.3045C59.65 53.4332 61.0021 53.8811 60.9304 54.9137L60.5954 59.7355H66.595L61.0015 69.4396C60.4733 70.356 59.0698 69.9321 59.1371 68.8766L59.4705 63.6497H53.096Z" fill="white"/>
</svg>
