<svg width="153" height="158" viewBox="0 0 153 158" fill="none" xmlns="http://www.w3.org/2000/svg">
<path d="M96.2677 25.4796C96.1736 25.4506 96.0723 25.4605 95.985 25.507C95.8977 25.5535 95.8313 25.6332 95.7996 25.7292C92.6152 24.62 68.4715 16.4859 57.4796 21.0082C45.6996 25.8548 37.4156 50.0532 37.4156 50.0532C37.4156 50.0532 27.0796 51.1664 24.3983 51.4348C24.3918 51.3414 24.3524 51.2537 24.2876 51.1882C24.2228 51.1227 24.137 51.084 24.0465 51.0792C23.9302 51.0753 21.144 50.9583 15.2305 53.2772C6.70023 56.6253 11.1584 74.4471 10.0389 75.612C8.34881 76.2838 6.91699 77.5067 5.96075 79.0951C1.36503 87.8321 4.75159 100.75 7.17675 107.673C9.93555 115.54 35.8394 145.415 47.7448 151.642C49.3274 152.423 51.0664 152.807 52.8201 152.763C66.2607 152.763 87.9503 135.045 91.9532 131.198C96.1332 127.181 100.802 115.131 100.997 114.619C101.018 114.563 101.026 114.502 101.02 114.442C101.014 114.382 100.995 114.324 100.963 114.273L111.332 107.74C111.366 107.8 111.416 107.85 111.475 107.884C111.535 107.918 111.602 107.934 111.67 107.931C111.738 107.928 111.804 107.906 111.86 107.867C111.917 107.828 111.962 107.774 111.991 107.711C121.076 88.4719 131.723 54.4092 132.087 45.8417C132.467 36.972 97.7459 25.9451 96.2677 25.4796Z" fill="black"/>
<path d="M31.292 75.5634C30.8709 75.4307 22.0489 72.7075 13.9214 74.4479C14.2011 71.9767 15.8541 65.6559 15.7067 61.1916C15.5402 56.1676 12.8187 55.3936 12.7024 55.363C12.654 55.3502 12.6037 55.3474 12.5543 55.3547C12.5049 55.362 12.4574 55.3793 12.4144 55.4055C12.3277 55.4586 12.2649 55.5451 12.2399 55.646C12.2149 55.7468 12.2298 55.8538 12.2811 55.9434C12.3325 56.033 12.4162 56.0978 12.5139 56.1236C12.5367 56.1299 14.8 56.7775 14.9459 61.2183C15.0979 65.7046 13.2937 72.5293 13.1409 74.6292C12.2688 74.8467 11.4116 75.1239 10.5751 75.459C10.4812 75.4968 10.4057 75.5715 10.3651 75.6669C10.3246 75.7622 10.3223 75.8702 10.3589 75.9673C10.3955 76.0643 10.4679 76.1423 10.5602 76.1842C10.6525 76.2261 10.7571 76.2284 10.851 76.1906C19.4428 72.7248 30.9545 76.2777 31.067 76.3138C31.1634 76.3446 31.2676 76.3347 31.3568 76.2861C31.4461 76.2375 31.513 76.1543 31.5428 76.0548C31.5726 75.9553 31.563 75.8476 31.5159 75.7554C31.4689 75.6633 31.3883 75.5942 31.292 75.5634Z" fill="white"/>
<path d="M35.5387 94.8634C35.4759 94.8633 35.414 94.8471 35.3587 94.8163C35.3034 94.7855 35.2564 94.741 35.2218 94.6868C30.56 87.3863 20.5994 80.505 20.4991 80.4359C20.4566 80.4078 20.4199 80.3713 20.3912 80.3284C20.3625 80.2855 20.3423 80.2372 20.3319 80.1862C20.3215 80.1352 20.321 80.0826 20.3305 80.0314C20.34 79.9802 20.3592 79.9315 20.3871 79.8881C20.415 79.8446 20.4511 79.8074 20.493 79.7785C20.535 79.7496 20.5822 79.7296 20.6317 79.7198C20.6813 79.7099 20.7322 79.7103 20.7816 79.721C20.831 79.7317 20.8778 79.7524 20.9194 79.782C21.0212 79.8518 31.1079 86.8179 35.8557 94.2542C35.8936 94.3134 35.9152 94.382 35.9184 94.4529C35.9215 94.5238 35.906 94.5942 35.8735 94.6567C35.841 94.7192 35.7927 94.7714 35.7338 94.8078C35.6748 94.8442 35.6074 94.8634 35.5387 94.8634Z" fill="white"/>
<path d="M31.1816 102.319C31.1057 102.318 31.0317 102.294 30.9693 102.249C30.9068 102.204 30.8587 102.142 30.8311 102.069C30.8035 101.995 30.7978 101.916 30.8146 101.839C30.8314 101.763 30.8701 101.693 30.9255 101.64C31.2249 101.358 38.2846 94.7794 42.4653 96.8612C42.5102 96.8837 42.5504 96.9151 42.5836 96.9536C42.6168 96.9921 42.6423 97.037 42.6586 97.0857C42.675 97.1344 42.6819 97.1859 42.679 97.2374C42.6761 97.2888 42.6634 97.3392 42.6416 97.3856C42.6199 97.432 42.5895 97.4735 42.5522 97.5077C42.5149 97.542 42.4715 97.5683 42.4243 97.5853C42.3772 97.6022 42.3273 97.6093 42.2775 97.6063C42.2276 97.6033 42.1789 97.5902 42.134 97.5677C38.4191 95.7135 31.5107 102.151 31.4347 102.216C31.3654 102.282 31.2753 102.318 31.1816 102.319Z" fill="white"/>
<path d="M55.2687 141.293C55.597 127.667 64.7101 117.293 67.0251 111.635C69.2002 106.32 62.8132 102.304 62.7486 102.263C62.7036 102.238 62.6639 102.203 62.6321 102.162C62.6002 102.12 62.5768 102.073 62.5633 102.022C62.5497 101.971 62.5463 101.917 62.5532 101.865C62.5601 101.813 62.5772 101.762 62.6034 101.717C62.6297 101.671 62.6645 101.632 62.7059 101.601C62.7473 101.569 62.7944 101.547 62.8443 101.535C62.8942 101.523 62.9459 101.522 62.9963 101.531C63.0467 101.541 63.0948 101.56 63.1377 101.589C63.2084 101.632 70.1586 105.995 67.7258 111.941C65.3607 117.713 56.3509 127.936 56.0287 141.312C56.0262 141.416 55.9839 141.515 55.9109 141.587C55.8379 141.658 55.7403 141.697 55.6395 141.695C55.5388 141.692 55.4431 141.649 55.3735 141.573C55.304 141.498 55.2662 141.397 55.2687 141.293Z" fill="white"/>
<path d="M97.1571 121.394C97.129 121.351 97.0928 121.314 97.0508 121.285C97.0087 121.257 96.9616 121.237 96.9121 121.227C96.8626 121.218 96.8117 121.218 96.7624 121.229C96.7131 121.24 96.6665 121.261 96.6251 121.29C96.4077 121.447 74.7682 136.614 64.4132 140.938C59.7385 142.89 55.7925 142.805 51.9295 141.34C51.9378 140.268 52.0153 134.712 52.7366 118.314C53.5011 100.96 70.9675 94.2997 72.9571 93.5972C73.0044 93.5804 73.0479 93.5542 73.0853 93.5201C73.1227 93.486 73.1532 93.4445 73.1752 93.3982C73.1971 93.3519 73.2099 93.3016 73.213 93.2501C73.2161 93.1986 73.2093 93.1471 73.1931 93.0983C73.1769 93.0495 73.1515 93.0046 73.1185 92.9659C73.0854 92.9273 73.0454 92.8957 73.0005 92.8731C72.9557 92.8505 72.9069 92.8372 72.8571 92.834C72.8073 92.8308 72.7573 92.8378 72.7101 92.8546C70.6771 93.5728 52.8582 100.374 51.988 118.146C47.7852 114.305 34.929 108.821 33.52 108.255C26.664 97.699 18.4787 88.1325 9.17946 79.8071C9.14087 79.7731 9.09608 79.7475 9.04774 79.7317C8.9994 79.7158 8.94848 79.7102 8.89799 79.715C8.84751 79.7198 8.79846 79.7351 8.75376 79.7598C8.70905 79.7845 8.66958 79.8182 8.63768 79.8589C8.60577 79.8996 8.58208 79.9465 8.56799 79.9968C8.5539 80.0471 8.54971 80.0998 8.55565 80.1518C8.56159 80.2038 8.57754 80.2541 8.60258 80.2996C8.62762 80.3452 8.66122 80.3851 8.70142 80.417C17.9723 88.7199 26.1291 98.2633 32.9561 108.795C32.999 108.862 33.0612 108.913 33.1339 108.942C47.8916 114.857 50.7811 118.296 51.9416 119.077C51.2667 134.52 51.1687 139.853 51.1543 141.032C46.7067 139.132 42.3117 135.452 36.9749 130.979C26.8403 122.484 5.48966 96.8471 5.27534 96.5888C5.20904 96.5121 5.11622 96.4653 5.01685 96.4585C4.91748 96.4517 4.81951 96.4855 4.74402 96.5526C4.66852 96.6196 4.62153 96.7147 4.61316 96.8171C4.60479 96.9196 4.63571 97.0214 4.69926 97.1006C4.91358 97.3589 26.3083 123.05 36.4954 131.588C45.9954 139.552 53.6182 146.297 64.6967 141.669C75.1262 137.314 96.8333 122.096 97.0514 121.943C97.0936 121.914 97.1298 121.877 97.1579 121.834C97.1861 121.791 97.2057 121.742 97.2155 121.691C97.2253 121.64 97.2252 121.588 97.2152 121.537C97.2052 121.486 97.1854 121.437 97.1571 121.394Z" fill="white"/>
<path d="M110.748 80.5018C110.689 80.5017 110.63 80.4874 110.578 80.4601C110.525 80.4327 110.479 80.3931 110.444 80.3443C110.408 80.2954 110.385 80.2388 110.374 80.1788C110.364 80.1188 110.367 80.0571 110.384 79.9986C119.912 46.5152 129.242 48.2462 129.637 48.3341C129.735 48.3561 129.821 48.4178 129.876 48.5054C129.93 48.5929 129.949 48.6993 129.928 48.8012C129.906 48.903 129.847 48.9918 129.762 49.0482C129.677 49.1046 129.574 49.1239 129.476 49.1018C129.356 49.079 120.369 47.6951 111.112 80.22C111.089 80.3014 111.041 80.3728 110.975 80.4236C110.91 80.4744 110.83 80.5019 110.748 80.5018Z" fill="white"/>
<path fill-rule="evenodd" clip-rule="evenodd" d="M23.595 49.437C23.595 49.437 23.3784 51.858 26.2664 53.8503C29.1544 55.8426 36.2224 55.8426 36.2224 55.8426C36.2224 55.8426 29.7046 43.4106 23.595 49.437Z" fill="#81F8F8"/>
<path fill-rule="evenodd" clip-rule="evenodd" d="M46.8459 28.0717C46.8459 28.0717 46.8315 7.4395 54.4786 7.29114C62.1546 7.14199 63.819 17.066 63.819 17.066C63.6616 18.6684 63.2373 20.2308 62.565 21.6841C62.565 21.6841 62.9534 24.4167 62.1767 25.7433C61.3999 27.07 59.0865 29.5192 58.2133 31.1418C57.8444 31.8298 57.3753 32.4551 56.8225 32.996C50.9841 42.8603 39.6738 32.627 39.6738 32.627C40.9293 31.8899 46.5199 30.0883 46.5199 30.0883L46.8459 28.0717Z" fill="#FFD997"/>
<path fill-rule="evenodd" clip-rule="evenodd" d="M59.7765 50.9057C60.9105 54.4751 62.1964 58.3036 63.8342 62.7318C64.5493 65.3764 65.4955 68.4623 66.3049 71.0528C66.3049 71.0528 54.6283 72.5443 46.1399 76.6082C46.1399 76.6082 35.1867 77.4937 31.3632 84.4299C30.8855 78.2404 31.4853 72.0125 33.134 66.0413C33.8028 63.673 36.2272 55.8363 36.2272 55.8363C36.2272 55.8363 32.5625 50.6804 29.5909 48.6873C26.6193 46.6942 23.5952 49.4284 23.5952 49.4284C24.2374 45.8268 28.3133 38.8254 30.6336 36.6972C32.9539 34.5691 39.6776 32.6207 39.6776 32.6207C39.6776 32.6207 49.0256 38.3661 52.4843 36.8001C55.9431 35.234 56.7312 33.08 56.7312 33.08L61.0906 27.2521C64.4044 25.6329 67.8708 24.3702 71.4349 23.4841C70.1749 28.6047 72.3074 32.7063 70.3466 37.6699C68.8943 41.3374 62.5946 48.1535 59.7765 50.9057Z" fill="white"/>
<path fill-rule="evenodd" clip-rule="evenodd" d="M59.1647 54.461L71.3733 47.4502L68.0878 60.4105L57.21 66.3436L59.1647 54.461Z" fill="white"/>
<path fill-rule="evenodd" clip-rule="evenodd" d="M70.7501 36.7891C70.7501 36.7891 87.879 31.8648 90.8141 30.3521C93.7492 28.8394 97.1692 24.7299 97.6594 22.6936C98.1496 20.6573 96.6517 20.2169 93.5851 18.3855C90.5424 16.64 87.1772 15.5777 83.7096 15.2683C80.5754 14.9857 72.7132 14.2195 69.2362 13.495C65.7592 12.7704 64.4186 14.897 64.4186 14.897L60.877 27.6972C61.2732 27.8173 61.6909 27.8415 62.0977 27.7678C62.5044 27.6942 62.8892 27.5247 63.2223 27.2725C64.1951 26.409 64.0416 25.7394 64.9224 24.9631C66.185 23.8098 67.1291 22.3314 67.6584 20.6785C70.2302 21.0853 72.7771 21.6449 75.2866 22.3545L71.428 23.4951C70.6293 25.4702 71.276 30.3529 71.216 31.7698C71.0959 34.679 71.4311 32.7275 70.7501 36.7891Z" fill="#FFD997"/>
<path d="M65.7568 44.1775C65.6603 44.1777 65.5672 44.1399 65.4966 44.0718C65.426 44.0037 65.3832 43.9104 65.3768 43.8109C65.3236 42.9655 64.2976 40.4911 63.4411 34.5534C63.1613 32.446 62.5392 30.4025 61.6012 28.5089C61.5508 28.4186 61.5371 28.3114 61.5633 28.2108C61.5895 28.1102 61.6532 28.0244 61.7406 27.9724C61.828 27.9203 61.9318 27.9062 62.0292 27.9333C62.1266 27.9603 62.2097 28.0261 62.2601 28.1164C63.2515 30.0932 63.9046 32.2322 64.1905 34.4388C65.3411 42.3798 66.8505 44.1775 65.7568 44.1775Z" fill="black"/>
<path fill-rule="evenodd" clip-rule="evenodd" d="M78.072 73.6778C78.072 73.6778 99.1179 63.768 105.782 69.303C112.445 74.838 110.475 88.3659 110.475 88.3659C107.824 86.5114 104.743 85.4212 101.548 85.2078C98.354 84.9945 95.1623 85.6658 92.303 87.1523C92.1834 86.4769 92.2012 85.7832 92.3554 85.1152L89.4956 86.1593L89.1513 85.9795L89.6369 86.5549C89.6369 86.5549 87.9778 84.51 82.8387 86.8548C77.6996 89.1996 75.8528 97.3864 75.8528 97.3864C73.9786 95.7073 72.193 93.9254 70.5039 92.0484C70.5039 92.0484 62.7284 96.957 47.672 97.0111C32.6156 97.0653 31.3062 84.5453 31.3062 84.5453C35.8335 77.2872 46.5822 76.4426 46.5822 76.4426C52.0207 73.6951 59.4938 72.0364 65.0448 71.2616C75.8893 69.7536 78.4208 74.4361 78.072 73.6778Z" fill="#81F8F8"/>
<path fill-rule="evenodd" clip-rule="evenodd" d="M92.865 90.0772C92.5885 89.1075 92.4352 88.1048 92.409 87.0942C92.409 87.0942 101.95 82.1354 110.544 88.4122L110.83 100.245C110.83 100.245 104.194 95.1884 100.601 98.5764C100.601 98.5764 100.331 98.3951 99.8882 98.0693C91.2759 97.278 89.9124 108.461 89.9124 108.461C84.8734 105.271 80.1612 101.561 75.8486 97.3864C78.0458 87.9891 83.8119 85.901 86.3176 85.7126C88.8233 85.5242 89.6328 86.5549 89.6328 86.5549L92.865 90.0772Z" fill="#FFD997"/>
<path fill-rule="evenodd" clip-rule="evenodd" d="M55.0122 67.4088L57.2101 66.3436L59.6421 50.8249C59.6421 50.8249 57.8006 49.565 55.738 51.9443L52.8317 48.9158L49.8389 64.666L55.0122 67.4088Z" fill="#81F8F8"/>
<path fill-rule="evenodd" clip-rule="evenodd" d="M26.7699 48.1096C26.5511 50.9783 26.1466 53.8288 25.5593 56.6417C24.7993 59.5509 24.2794 65.5122 24.5591 67.1034C24.6467 67.8987 24.9666 68.6476 25.4762 69.2506C25.9858 69.8535 26.6611 70.282 27.4121 70.4789C29.1487 70.9641 39.1367 72.8096 42.5247 73.1299C45.9128 73.4502 45.5974 74.4283 48.2422 74.5201C50.887 74.612 52.8782 73.5962 53.3699 72.9956C53.466 72.8584 53.5271 72.6984 53.5477 72.5304C53.5683 72.3623 53.5477 72.1917 53.4877 72.034C53.4877 72.034 54.5244 71.3911 54.6536 70.9641C54.6918 70.5821 54.612 70.1973 54.4256 69.8651C54.6837 69.6443 54.8594 69.3376 54.9226 68.9976C54.905 68.5896 54.8191 68.1877 54.6688 67.8099C54.8671 67.7912 55.0568 67.7171 55.2174 67.5956C55.3781 67.474 55.5037 67.3096 55.5808 67.1199C55.8088 66.4778 55.2768 65.5695 53.4703 64.9706C51.6637 64.3716 48.0682 63.3503 47.3219 64.0867C46.5905 64.8928 45.9044 65.7414 45.2668 66.6285C45.2668 66.6285 37.736 64.7445 35.6148 63.3135C35.2227 63.0497 34.7826 62.764 34.3084 62.4743C35.3123 60.3939 35.9619 58.1506 36.2289 55.8426C36.0024 56.1966 30.7295 47.1173 26.7699 48.1096Z" fill="#FFD997"/>
<path d="M64.1965 17.1005C64.2054 16.9968 64.174 16.8938 64.1093 16.814C64.0446 16.7342 63.9519 16.6842 63.8515 16.675C63.7515 16.6675 63.6526 16.7006 63.5757 16.7671C63.4988 16.8336 63.45 16.9284 63.4396 17.0314C63.2854 18.5808 62.8765 20.0916 62.2304 21.4989C62.1916 21.573 62.177 21.658 62.1886 21.7414C62.2912 22.4628 62.4303 24.5509 61.8504 25.54C61.0745 26.8683 58.7945 29.2625 57.8825 30.9511C57.0647 32.4685 55.6078 33.8877 54.4055 33.6624C53.0831 33.4152 51.2735 33.0776 47.1421 27.8244C47.096 27.7658 47.0345 27.7222 46.965 27.6989C46.8955 27.6755 46.8209 27.6733 46.7502 27.6926C46.6795 27.7119 46.6158 27.7519 46.5665 27.8077C46.5173 27.8635 46.4847 27.9328 46.4726 28.0073L46.1853 29.7853C43.9268 30.4851 41.7068 31.3114 39.5353 32.2604C39.0352 32.4064 32.6953 34.2865 30.3819 36.4099C27.4049 39.1417 23.1945 47.5028 23.2234 49.3813L23.2189 49.3978C23.209 49.5014 23.0365 51.8737 25.7124 53.9186C25.5604 54.8786 25.3879 55.8026 25.1941 56.5389C24.4531 59.3594 23.8793 65.422 24.1863 67.1741C24.2865 68.0431 24.6387 68.8606 25.1969 69.5191C25.755 70.1776 26.493 70.6462 27.3137 70.8636C29.0002 71.3346 38.9904 73.195 42.4909 73.5263C45.8045 73.8403 45.6069 74.9236 48.577 74.9236C51.1124 74.9236 53.0929 73.9494 53.6607 73.2547C53.773 73.1115 53.8547 72.9453 53.9001 72.7671C53.9456 72.5888 53.9539 72.4026 53.9244 72.2209C54.9587 71.5144 55.3159 71.0292 54.8858 69.9561C55.1068 69.7088 55.2513 69.3989 55.3007 69.0661C55.3502 68.7334 55.3023 68.393 55.1632 68.0886C55.3348 68.0222 55.4909 67.9193 55.6213 67.7864C55.7518 67.6535 55.8536 67.4937 55.9203 67.3174C55.9869 67.1411 56.0168 66.9523 56.008 66.7632C55.9992 66.5742 55.9519 66.3892 55.8692 66.2203C55.6503 65.7556 55.0765 65.0978 53.5892 64.6056C51.0858 63.7774 47.9204 62.9665 47.0623 63.8119C46.3678 64.5626 45.7173 65.3556 45.1145 66.1866C43.8156 65.8514 37.6543 64.2194 35.8189 62.9845C35.5734 62.8189 35.236 62.592 34.8309 62.3401C35.5816 60.2585 36.1699 58.1183 36.5903 55.94C36.7727 55.3025 40.2056 43.2277 39.0861 39.9793C37.8534 36.399 35.6046 36.019 35.5088 36.0041C35.4092 35.9886 35.3076 36.0146 35.2265 36.0764C35.1454 36.1383 35.0914 36.2308 35.0764 36.3338C35.0614 36.4367 35.0866 36.5416 35.1464 36.6254C35.2063 36.7092 35.2959 36.7649 35.3956 36.7805C35.4716 36.7938 37.3017 37.1368 38.371 40.2423C39.2632 42.8328 36.8115 52.2528 36.0659 54.9799C34.9829 53.5308 32.1983 49.9779 29.7929 48.3647C28.9438 47.8393 27.9672 47.5749 26.9777 47.6027C25.9883 47.6305 25.027 47.9493 24.2069 48.5217C25.2777 44.8471 28.8125 38.8945 30.8797 36.9979C32.6277 35.3965 37.0425 33.8697 38.9106 33.2723C39.704 34.2983 43.3277 38.6441 48.2023 39.3254C51.8929 39.8404 55.5857 39.3254 57.4515 35.9798C58.112 34.7736 58.3508 33.3695 58.1279 32.003C58.8753 30.6743 59.7548 29.4299 60.7522 28.2899C61.3801 27.5472 61.9624 26.7646 62.4957 25.9467C63.242 24.6734 63.0208 22.3357 62.9517 21.7571C63.618 20.2886 64.0389 18.7141 64.1965 17.1005ZM29.3825 49.0233C32.0029 50.7801 35.2291 55.1259 35.8166 55.9313C35.4259 57.9749 34.8753 59.9825 34.1705 61.9342C32.2705 60.8179 29.4471 59.5266 27.2697 60.3258C27.2227 60.3431 27.1794 60.3698 27.1424 60.4044C27.1054 60.4389 27.0753 60.4807 27.0539 60.5273C27.0326 60.5739 27.0203 60.6244 27.0178 60.6758C27.0153 60.7273 27.0226 60.7788 27.0394 60.8274C27.0562 60.8759 27.082 60.9206 27.1155 60.9588C27.149 60.997 27.1894 61.0281 27.2345 61.0502C27.2796 61.0723 27.3285 61.085 27.3783 61.0875C27.4282 61.0901 27.478 61.0825 27.525 61.0652C29.8909 60.1954 33.3109 62.2309 35.41 63.6424C37.2462 64.8772 42.8223 66.3969 44.6167 66.8656C44.1097 67.5525 43.7632 68.0501 43.7632 68.0501C43.7223 68.1088 43.698 68.1779 43.6927 68.25C43.6875 68.322 43.7016 68.3941 43.7335 68.4584C43.7654 68.5227 43.8139 68.5766 43.8735 68.6143C43.9332 68.652 44.0018 68.6719 44.0717 68.6719C44.3605 68.6719 44.28 68.5997 45.5727 66.8664C46.1992 65.9981 46.8721 65.1665 47.5883 64.3756C47.9401 64.027 50.0377 64.2507 53.3589 65.349C54.7049 65.7948 55.0864 66.3443 55.1883 66.5602C55.2299 66.6523 55.2485 66.7537 55.2423 66.8551C55.2361 66.9566 55.2053 67.0548 55.1528 67.1407C55.1003 67.2267 55.0277 67.2976 54.9418 67.3471C54.8558 67.3965 54.7592 67.4229 54.6608 67.4237C53.2353 67.1928 51.838 66.804 50.493 66.2643C50.3987 66.2275 50.2941 66.231 50.2022 66.2739C50.1103 66.3168 50.0387 66.3957 50.0032 66.4931C49.9676 66.5905 49.9709 66.6986 50.0125 66.7935C50.054 66.8883 50.1304 66.9623 50.2247 66.999C51.5751 67.5363 52.9734 67.9352 54.3994 68.1899C54.6449 68.9607 54.5765 69.1625 54.2664 69.493C52.7454 69.4569 51.2365 69.2041 49.7824 68.7417C49.6858 68.7119 49.5818 68.7228 49.493 68.7722C49.4043 68.8216 49.3382 68.9054 49.3093 69.0051C49.2804 69.1048 49.291 69.2123 49.3388 69.304C49.3866 69.3956 49.4677 69.4639 49.5643 69.4938C51.0615 69.9862 52.6201 70.2506 54.1911 70.2788C54.2747 70.4565 54.3099 70.6543 54.293 70.851C54.0255 71.1903 53.6957 71.4715 53.3225 71.6784C52.1243 71.9096 50.9018 71.9769 49.6866 71.8786C49.5864 71.8751 49.4889 71.9121 49.4147 71.9817C49.3404 72.0514 49.2954 72.1481 49.2891 72.2515C49.2867 72.303 49.2941 72.3546 49.311 72.4032C49.3278 72.4518 49.3538 72.4964 49.3874 72.5347C49.421 72.5729 49.4616 72.6038 49.5068 72.6258C49.552 72.6478 49.601 72.6604 49.6509 72.6628C50.823 72.738 51.9993 72.6933 53.1629 72.5294C53.1544 72.6087 53.1241 72.6839 53.0755 72.746C52.659 73.2563 50.762 74.21 48.2517 74.1315C45.7415 74.053 45.9831 73.0663 42.5563 72.7421C39.0816 72.414 29.1803 70.57 27.5083 70.1037C26.8263 69.9254 26.2135 69.5356 25.7525 68.9867C25.2914 68.4378 25.0043 67.7562 24.9296 67.0336C24.6705 65.5295 25.1645 59.642 25.926 56.7446C26.5145 53.9826 26.9168 51.1818 27.1298 48.3624C27.9289 48.3361 28.7161 48.5671 29.3825 49.0233ZM26.3577 48.455C26.2893 49.2298 26.1107 51.1185 25.8416 53.0268C25.312 52.6313 24.871 52.1228 24.5483 51.5358C24.2256 50.9488 24.0288 50.297 23.9713 49.6246C24.6748 49.0589 25.4899 48.6597 26.3592 48.455H26.3577ZM46.6345 30.4628C46.7021 30.4408 46.7623 30.3998 46.8085 30.3443C46.8547 30.2888 46.885 30.2211 46.8959 30.1488L47.0844 28.9815C51.025 33.8249 52.8908 34.1735 54.2694 34.431C54.6462 34.4977 55.0331 34.4647 55.3942 34.3352C54.5143 35.2361 53.4733 35.9519 52.3291 36.4429C49.581 37.6863 42.6179 33.8838 40.4944 32.6553C42.3549 31.8444 46.5851 30.4785 46.6345 30.4628ZM56.7987 35.5873C55.3547 38.1778 52.5784 39.1425 48.311 38.5459C44.2541 37.9799 41.015 34.573 39.8378 33.1797C41.5926 34.2198 49.3834 38.6386 52.6339 37.1659C55.9163 35.6799 56.8952 33.6734 57.0571 33.2904C57.1916 33.1624 57.3216 33.0258 57.4477 32.8853C57.4748 33.8304 57.25 34.7651 56.7979 35.5873H56.7987Z" fill="black"/>
<path fill-rule="evenodd" clip-rule="evenodd" d="M59.1646 54.461L59.6396 50.8217C59.597 49.9582 72.7116 42.1082 72.6356 42.8336C72.6242 42.9474 71.4332 47.4502 71.4332 47.4502L59.1646 54.461Z" fill="#FFD997"/>
<path fill-rule="evenodd" clip-rule="evenodd" d="M72.1812 42.7425C63.9587 46.9815 59.7764 50.9065 59.7764 50.9065C57.6211 49.638 55.7203 51.9451 55.7203 51.9451C51.5057 47.6384 47.0183 43.6261 42.2881 39.9346C42.2881 39.9346 45.5029 37.684 47.7601 37.1392C47.7601 37.1392 55.7682 44.3824 57.9441 50.3719C61.3736 46.4314 65.6542 43.3814 70.4385 41.4692L72.1812 42.7425Z" fill="white"/>
<path d="M44.1745 60.0518C43.9663 60.0518 44.1547 60.1719 41.0395 57.2069C40.9913 57.1613 40.9554 57.1035 40.9352 57.0393C40.9149 56.9751 40.9111 56.9066 40.924 56.8403L41.4073 54.388C41.4208 54.3197 41.4516 54.2563 41.4966 54.2044C41.5416 54.1525 41.5991 54.1139 41.6634 54.0925C41.7276 54.0712 41.7962 54.0679 41.862 54.083C41.9279 54.0981 41.9887 54.131 42.0381 54.1784L45.2058 57.2085C45.2609 57.2613 45.2996 57.3297 45.317 57.4051C45.3345 57.4806 45.3299 57.5597 45.3039 57.6324L44.5302 59.7974C44.503 59.8722 44.4543 59.9365 44.3908 59.982C44.3272 60.0274 44.2518 60.0518 44.1745 60.0518ZM41.7113 56.7799L44.0149 58.9732L44.5066 57.601L42.0214 55.2248L41.7113 56.7799Z" fill="black"/>
<path d="M48.5698 58.5548C48.3851 58.5548 48.8845 58.8931 41.4114 53.143C41.3582 53.1024 41.3162 53.0482 41.2896 52.9857C41.2629 52.9232 41.2525 52.8545 41.2594 52.7866L42.0597 45.0238C42.0662 44.9594 42.0879 44.8978 42.123 44.8442C42.1582 44.7907 42.2055 44.747 42.261 44.7169C42.3164 44.6869 42.3781 44.6714 42.4407 44.6719C42.5033 44.6725 42.5648 44.689 42.6198 44.72C45.4248 46.2648 47.9597 48.2837 50.1195 50.693C50.3026 50.9003 50.3247 50.4246 48.9437 58.229C48.9285 58.3201 48.8827 58.4027 48.8143 58.4623C48.7459 58.5219 48.6593 58.5547 48.5698 58.5548ZM42.0391 52.6469L48.3069 57.4691L49.4317 51.0855C47.4892 48.9449 45.2385 47.1268 42.7589 45.6957L42.0391 52.6469Z" fill="black"/>
<path d="M58.73 40.831C59.8394 37.9507 60.375 34.8688 60.3048 31.7698C60.2996 31.6657 60.3347 31.5638 60.4024 31.4864C60.47 31.409 60.5646 31.3626 60.6654 31.3573C60.7662 31.352 60.8649 31.3882 60.9398 31.4581C61.0147 31.5279 61.0596 31.6257 61.0648 31.7298C61.1527 34.9505 60.5959 38.1553 59.4292 41.1435C59.3891 41.2393 59.3138 41.3146 59.2199 41.3531C59.126 41.3915 59.0211 41.3898 58.9284 41.3484C58.8357 41.3069 58.7627 41.2292 58.7255 41.1321C58.6883 41.0351 58.6899 40.9268 58.73 40.831Z" fill="black"/>
<path d="M62.1387 8.93964C59.2507 6.15524 55.9705 2.99797 48.733 6.5344C41.6027 10.0222 39.4519 22.8812 39.9041 24.1537C40.3328 25.3595 46.6256 30.2343 48.4678 29.2468C49.0826 28.9179 48.9998 27.8534 48.7422 25.2629C48.448 22.3153 48.0118 17.9499 49.3502 15.0705C49.791 15.5518 50.3235 15.9336 50.9142 16.192C51.5049 16.4503 52.1409 16.5795 52.7823 16.5714C52.8698 16.5764 52.9561 16.5491 53.0257 16.4943C53.0954 16.4394 53.1438 16.3607 53.1623 16.2723C53.4583 15.0585 53.8393 13.8684 54.3023 12.7116C54.2042 14.0289 54.2552 15.3535 54.4543 16.6585C54.4729 16.7488 54.5216 16.8294 54.5919 16.8862C56.0625 17.9199 57.7699 18.5369 59.5436 18.6758C61.3173 18.8146 63.0953 18.4704 64.6999 17.6775C64.763 17.6472 64.8168 17.5997 64.8555 17.54C64.8943 17.4804 64.9164 17.4109 64.9195 17.3391C64.9362 17.1154 65.1414 11.8261 62.1387 8.93964Z" fill="black"/>
<path d="M49.8793 13.2414C49.8187 13.2415 49.759 13.2266 49.7052 13.1979C49.6513 13.1693 49.6048 13.1278 49.5697 13.0769C49.5345 13.026 49.5116 12.9671 49.5029 12.9052C49.4943 12.8433 49.5 12.7801 49.5198 12.721C50.83 8.80541 53.4216 7.68678 53.5303 7.64047C53.5766 7.62109 53.6261 7.61131 53.676 7.61169C53.7259 7.61207 53.7753 7.6226 53.8212 7.64268C53.8672 7.66277 53.9089 7.69201 53.9439 7.72873C53.979 7.76546 54.0067 7.80896 54.0254 7.85674C54.0442 7.90452 54.0537 7.95565 54.0533 8.00721C54.0529 8.05877 54.0427 8.10975 54.0233 8.15724C54.0039 8.20473 53.9755 8.2478 53.94 8.28399C53.9044 8.32018 53.8623 8.34878 53.8161 8.36816C53.7925 8.37837 51.4289 9.4185 50.238 12.9769C50.2122 13.054 50.1638 13.121 50.0995 13.1684C50.0353 13.2158 49.9583 13.2413 49.8793 13.2414Z" fill="white"/>
<path d="M54.623 26.9122C54.5438 26.8514 54.4907 26.7612 54.4747 26.6607C54.4588 26.5601 54.4813 26.4571 54.5376 26.3734C54.5938 26.2897 54.6794 26.2319 54.7762 26.2122C54.8729 26.1925 54.9734 26.2124 55.0562 26.2677C55.535 26.6108 56.2007 26.957 56.6605 26.6406C57.1925 26.2787 57.3734 25.1664 57.2108 24.3539C57.0655 23.1995 57.193 22.026 57.5824 20.9337C57.6177 20.8361 57.689 20.757 57.7807 20.7138C57.8725 20.6706 57.977 20.6668 58.0715 20.7033C58.1659 20.7397 58.2425 20.8134 58.2843 20.9081C58.3261 21.0028 58.3298 21.1109 58.2945 21.2084C57.9581 22.1619 57.8417 23.1833 57.9548 24.1914C58.3895 26.358 57.1021 28.6942 54.623 26.9122Z" fill="black"/>
<path d="M55.6674 19.8967C55.5867 19.8968 55.5081 19.8704 55.4429 19.8213C55.3777 19.7721 55.3294 19.7029 55.3048 19.6235C54.4308 16.7857 51.2396 17.2214 51.1043 17.2418C51.0045 17.2568 50.9031 17.2302 50.8223 17.168C50.7415 17.1057 50.6879 17.0128 50.6734 16.9098C50.6589 16.8067 50.6846 16.7019 50.7449 16.6184C50.8052 16.535 50.8951 16.4796 50.9949 16.4647C51.0359 16.4592 54.9583 15.9089 56.0291 19.3849C56.0473 19.4437 56.0518 19.5061 56.0422 19.567C56.0326 19.628 56.0093 19.6857 55.974 19.7356C55.9388 19.7855 55.8926 19.8261 55.8393 19.854C55.7861 19.882 55.7271 19.8966 55.6674 19.8967Z" fill="black"/>
<path d="M62.9617 20.3747C62.8871 20.3748 62.8141 20.3521 62.7519 20.3096C62.3041 20.0403 61.7966 19.8948 61.2785 19.8871C60.7604 19.8794 60.2491 20.0098 59.794 20.2656C59.7063 20.3147 59.6035 20.3262 59.5077 20.2977C59.412 20.2692 59.3308 20.203 59.2819 20.1133C59.2329 20.0236 59.2201 19.9176 59.2461 19.8182C59.272 19.7188 59.3348 19.6339 59.4208 19.5819C59.9982 19.2559 60.648 19.0912 61.306 19.1041C61.9639 19.1171 62.6072 19.3072 63.1722 19.6557C63.24 19.7024 63.2915 19.7704 63.319 19.8497C63.3466 19.9289 63.3487 20.0152 63.3251 20.0959C63.3015 20.1765 63.2534 20.2471 63.188 20.2973C63.1225 20.3475 63.0432 20.3747 62.9617 20.3747Z" fill="black"/>
<path fill-rule="evenodd" clip-rule="evenodd" d="M54.4116 20.7963C52.7304 21.2971 51.6991 20.3072 51.0493 19.3323C51.6874 19.1928 52.3515 19.2584 52.9525 19.5201C53.5535 19.7818 54.0627 20.2271 54.4116 20.7963Z" fill="white"/>
<path fill-rule="evenodd" clip-rule="evenodd" d="M61.5003 22.4165C61.2793 22.6108 61.0204 22.7536 60.7412 22.8352C60.4619 22.9168 60.169 22.9353 59.8822 22.8894C59.5954 22.8435 59.3216 22.7344 59.0794 22.5693C58.8371 22.4042 58.6322 22.1872 58.4785 21.933C58.9721 21.6961 59.5225 21.6156 60.0604 21.7017C60.5982 21.7877 61.0992 22.0365 61.5003 22.4165Z" fill="white"/>
<path d="M54.714 20.5577C54.3024 19.9473 53.7301 19.4716 53.0649 19.1868C52.3996 18.902 51.6693 18.8201 50.9604 18.9508C50.8651 18.9775 50.7836 19.0416 50.7333 19.1294C50.6829 19.2172 50.6676 19.3218 50.6906 19.421C50.7137 19.5202 50.7732 19.6062 50.8566 19.6609C50.94 19.7156 51.0408 19.7345 51.1375 19.7138C51.4773 19.649 51.826 19.6533 52.1642 19.7263C52.1484 19.7483 52.1337 19.7711 52.1201 19.7946C52.0745 19.9087 52.053 20.0316 52.0572 20.1549C52.0614 20.2783 52.0912 20.3993 52.1445 20.5098C52.2154 20.665 52.3247 20.7981 52.4613 20.8958C52.598 20.9934 52.7572 21.052 52.9228 21.0657C53.0885 21.0794 53.2547 21.0477 53.4047 20.9738C53.5546 20.8999 53.683 20.7864 53.7769 20.6448C53.8959 20.7681 54.0071 20.8992 54.1098 21.0373C54.171 21.1206 54.2617 21.1753 54.362 21.1895C54.4116 21.1966 54.4621 21.1934 54.5106 21.1803C54.5591 21.1672 54.6046 21.1443 54.6445 21.113C54.6844 21.0818 54.718 21.0426 54.7433 20.998C54.7686 20.9533 54.7851 20.9039 54.7919 20.8526C54.7987 20.8013 54.7957 20.7492 54.783 20.6991C54.7702 20.649 54.7481 20.602 54.7178 20.5608L54.714 20.5577Z" fill="black"/>
<path d="M61.7517 22.1229C61.2942 21.6882 60.7212 21.4048 60.1065 21.3091C59.4917 21.2134 58.8633 21.3098 58.3021 21.586C58.2169 21.6365 58.1539 21.7192 58.1265 21.8166C58.099 21.9141 58.1092 22.0187 58.1548 22.1086C58.2004 22.1985 58.278 22.2666 58.3712 22.2987C58.4644 22.3308 58.566 22.3243 58.6547 22.2807C58.7256 22.2464 58.7985 22.2166 58.8728 22.1912C58.8907 22.4011 58.9741 22.5993 59.1104 22.756C59.2468 22.9127 59.4287 23.0195 59.6288 23.0602C59.829 23.1009 60.0365 23.0734 60.2202 22.9818C60.4039 22.8902 60.5538 22.7395 60.6474 22.5523C60.6712 22.4791 60.6847 22.4027 60.6877 22.3255C61.2835 22.6347 61.2319 22.8098 61.5001 22.8098C61.5773 22.8098 61.6527 22.7856 61.7163 22.7403C61.7798 22.695 61.8285 22.6308 61.8558 22.5562C61.8831 22.4816 61.8878 22.4002 61.8692 22.3228C61.8506 22.2454 61.8096 22.1757 61.7517 22.1229Z" fill="black"/>
<path d="M57.8427 28.1925C57.7043 28.2987 57.557 28.392 57.4027 28.4712C57.0494 28.2349 56.6503 28.0814 56.2334 28.0214C55.8165 27.9615 55.392 27.9966 54.9897 28.1243C54.5733 27.7972 54.0967 27.5611 53.5891 27.4304C53.0815 27.2998 52.5534 27.2773 52.0371 27.3644C51.7133 27.1406 51.5127 26.9766 51.5051 26.9719C51.427 26.906 51.3267 26.8748 51.2264 26.8853C51.126 26.8957 51.0338 26.9469 50.97 27.0276C50.9062 27.1083 50.8761 27.2118 50.8862 27.3155C50.8963 27.4191 50.9459 27.5144 51.024 27.5802C51.0605 27.6109 51.274 27.7867 51.6077 28.0206C51.7597 29.0121 52.4019 30.5523 54.7997 31.0704C55.112 31.1537 55.4375 31.1706 55.7564 31.1201C56.0753 31.0696 56.3809 30.9528 56.6547 30.7766C56.9286 30.6004 57.1649 30.3686 57.3494 30.0952C57.5338 29.8219 57.6626 29.5127 57.7279 29.1864C57.928 29.0806 58.1189 28.9574 58.2987 28.8182C58.3714 28.7531 58.4175 28.6619 58.4276 28.563C58.4377 28.4642 58.4112 28.3651 58.3533 28.2856C58.2954 28.2062 58.2105 28.1525 58.1158 28.1352C58.021 28.1179 57.9234 28.1384 57.8427 28.1925ZM54.9547 30.2995C54.4584 30.2365 53.9838 30.052 53.5704 29.7613C53.157 29.4706 52.8169 29.0821 52.5782 28.6282C53.8275 29.4218 55.3062 29.7392 56.7582 29.5255C56.5918 29.8505 56.321 30.1056 55.9923 30.2468C55.6636 30.3881 55.2975 30.4067 54.957 30.2995H54.9547Z" fill="black"/>
<path d="M95.0665 18.793C94.6744 18.5692 94.245 18.322 93.7783 18.0441C90.6878 16.2697 87.2691 15.19 83.7463 14.8758C81.9922 14.7188 73.0554 13.8883 69.3154 13.1088C65.6302 12.3411 64.1642 14.5877 64.1034 14.6835C64.0515 14.7705 64.0345 14.875 64.056 14.9747C64.0776 15.0744 64.1359 15.1615 64.2186 15.2176C64.3013 15.2736 64.402 15.2941 64.4991 15.2747C64.5962 15.2553 64.6822 15.1975 64.7387 15.1137C64.7904 15.0352 66.011 13.221 69.1657 13.8781C72.8502 14.6466 81.2064 15.4347 83.6817 15.6577C87.0945 15.9613 90.4067 17.0062 93.4014 18.7239C96.4581 20.549 97.7083 20.8905 97.2964 22.5979C96.8312 24.5368 93.4599 28.5513 90.6509 29.9988C88.0669 31.3333 74.0829 35.4153 71.182 36.2576C72.3091 31.6638 70.745 28.6997 71.7535 23.8138L75.3476 22.7823C76.9398 23.3248 87.4627 28.8347 90.9808 27.154C91.0276 27.1334 91.0699 27.1033 91.1052 27.0655C91.1406 27.0276 91.1682 26.9829 91.1865 26.9338C91.2047 26.8847 91.2133 26.8324 91.2116 26.7799C91.2099 26.7273 91.198 26.6757 91.1766 26.628C91.1552 26.5803 91.1248 26.5375 91.0871 26.5022C91.0494 26.4669 91.0052 26.4398 90.9572 26.4224C90.9092 26.4051 90.8582 26.3979 90.8075 26.4012C90.7567 26.4046 90.7071 26.4185 90.6616 26.442C88.868 27.2977 84.1917 25.971 76.7589 22.5225C74.5374 21.491 70.0511 20.673 67.7286 20.2923C67.6401 20.2777 67.5495 20.2959 67.4728 20.3436C67.396 20.3912 67.338 20.4654 67.309 20.5529C66.8025 22.1403 65.8959 23.5598 64.6825 24.6656C63.7348 25.4945 63.8708 26.183 62.9748 26.9766C62.69 27.1843 62.3637 27.3233 62.02 27.3832C61.6762 27.4432 61.3239 27.4225 60.9889 27.3228C60.9412 27.3073 60.891 27.3017 60.8412 27.3063C60.7914 27.3108 60.7429 27.3255 60.6986 27.3494C60.6543 27.3733 60.615 27.406 60.5829 27.4456C60.5508 27.4852 60.5266 27.531 60.5116 27.5803C60.4966 27.6295 60.4912 27.6814 60.4956 27.7328C60.5001 27.7843 60.5143 27.8343 60.5374 27.8801C60.5605 27.9259 60.5922 27.9665 60.6305 27.9996C60.6689 28.0328 60.7132 28.0578 60.7609 28.0732C61.065 28.1607 61.3793 28.2043 61.6949 28.2028C63.0895 28.2028 63.8434 27.406 64.497 26.1618C66.5886 25.277 68.7413 24.5554 70.9373 24.003C69.9645 29.3316 71.828 32.8821 69.9926 37.5223C69.0178 39.5406 67.7692 41.4049 66.2846 43.0589C66.249 43.0971 66.2214 43.1423 66.2032 43.1919C66.1851 43.2415 66.1768 43.2943 66.179 43.3472C66.1811 43.4002 66.1936 43.4521 66.2157 43.4999C66.2378 43.5477 66.2691 43.5904 66.3076 43.6254C66.3461 43.6604 66.3911 43.687 66.4398 43.7036C66.4885 43.7202 66.54 43.7264 66.5911 43.7218C66.6422 43.7173 66.6919 43.7022 66.7372 43.6773C66.7825 43.6524 66.8224 43.6183 66.8546 43.577C68.3961 41.8581 69.69 39.9189 70.6964 37.819C70.7845 37.5953 70.8484 37.3716 70.9244 37.1478C72.2232 36.7742 88.1102 32.1859 90.9884 30.7022C94.0116 29.1432 97.519 24.9222 98.032 22.7878C98.5177 20.7696 97.291 20.067 95.0665 18.793ZM65.5534 24.9003C66.6014 23.8358 67.4078 22.5447 67.9148 21.1197C68.8572 21.2822 71.7452 21.7979 73.9385 22.3702C71.315 23.123 71.4305 23.112 71.3545 23.1073C69.3794 23.5513 67.44 24.1507 65.5534 24.9003Z" fill="black"/>
<path d="M147.152 114.116C144.892 113.017 137.743 115.861 132.701 115.454C126.993 114.843 121.455 113.09 116.395 110.293C114.951 109.468 112.899 108.16 110.974 106.879C110.693 103.052 110.711 100.372 110.711 100.372C110.711 100.372 103.989 94.8579 100.578 98.549C100.454 98.399 100.339 98.2514 100.236 98.1101C91.133 96.9774 89.917 108.451 89.9155 108.463C94.6876 111.475 96.314 111.935 100.597 114.194V114.608C100.597 114.608 102.678 119.056 100.236 121.966C97.7929 124.875 95.364 127.853 98.3401 130.342C100.012 131.802 102.139 132.589 104.328 132.557C104.328 132.557 106.415 138.177 110.462 139.411C114.509 140.645 118.942 139.444 118.229 136.685C117.515 133.926 115.363 132.82 114.174 131.341C112.985 129.862 113.529 127.912 112.976 126.59C112.95 126.519 112.929 126.447 112.915 126.372C116.991 132.376 119.549 130.04 122.513 129.323C125.577 128.579 125.64 128.519 128.631 128.808C131.621 129.098 137.846 128.787 143.489 122.663C149.132 116.54 149.411 115.215 147.152 114.116Z" fill="white"/>
<path d="M117.11 123.211C114.994 123.211 114.057 121.641 113.462 120.639C112.919 119.828 112.235 119.128 111.446 118.574C111.364 118.516 111.307 118.427 111.287 118.326C111.268 118.225 111.288 118.12 111.343 118.034C111.398 117.948 111.483 117.888 111.581 117.866C111.678 117.845 111.78 117.864 111.864 117.919C112.735 118.523 113.488 119.291 114.082 120.184C114.821 121.422 115.706 122.91 118.218 122.277C118.266 122.265 118.316 122.263 118.366 122.271C118.415 122.279 118.462 122.297 118.505 122.323C118.548 122.35 118.585 122.385 118.614 122.427C118.644 122.469 118.665 122.516 118.677 122.566C118.688 122.616 118.691 122.668 118.683 122.719C118.675 122.77 118.658 122.819 118.632 122.863C118.606 122.907 118.572 122.945 118.531 122.976C118.491 123.006 118.445 123.028 118.397 123.04C117.976 123.15 117.544 123.207 117.11 123.211Z" fill="black"/>
<path d="M148.828 115.342C148.715 114.974 148.519 114.638 148.256 114.363C147.993 114.088 147.671 113.882 147.315 113.761C144.883 112.575 137.767 115.469 132.732 115.063C127.078 114.454 121.592 112.716 116.579 109.948C115.059 109.084 113.225 107.941 111.335 106.681C111.289 105.886 110.847 88.428 110.847 88.428C110.929 87.8659 112.779 74.612 106.022 68.9968C99.5317 63.6063 80.442 72.1541 78.1301 73.2217C74.8568 70.3541 69.2457 70.2827 64.9905 70.8754C61.5758 71.3511 52.9544 72.8065 46.4761 76.0564C45.4798 76.1458 36.2784 77.1412 31.6014 83.4354C31.4061 79.4394 31.7077 75.4341 32.499 71.5175C32.5181 71.4152 32.4971 71.3092 32.4406 71.2228C32.3841 71.1365 32.2967 71.0769 32.1976 71.0571C32.0986 71.0373 31.9959 71.059 31.9123 71.1174C31.8287 71.1757 31.771 71.266 31.7519 71.3683C30.8624 75.6978 30.5834 80.1373 30.9235 84.5493L30.9296 84.5689V84.5877C30.9432 84.7165 32.4442 97.4036 47.5736 97.4036C56.1486 97.4036 63.475 95.7151 68.5184 93.4786C69.195 93.2529 69.8428 92.944 70.448 92.5586C76.1821 98.7797 82.6514 104.231 89.7034 108.783C92.2486 110.606 97.7533 113.143 100.254 114.455C100.231 114.506 100.219 114.562 100.219 114.618C100.219 114.674 100.231 114.73 100.254 114.78C100.273 114.823 102.193 119.034 99.9497 121.71C97.3376 124.825 94.9124 127.986 98.1022 130.65C99.783 132.098 101.89 132.913 104.079 132.962C104.556 134.118 106.639 138.656 110.356 139.791C114.688 141.114 119.41 139.732 118.598 136.588C118.08 134.889 117.061 133.4 115.684 132.328C113.916 130.688 113.86 130.465 113.642 127.989C117.317 132.448 119.852 130.376 122.601 129.708C125.635 128.972 125.685 128.923 128.596 129.203C131.823 129.517 138.074 129.115 143.767 122.938C147.791 118.57 149.065 116.653 148.828 115.342ZM110.546 106.15C108.709 104.904 106.857 103.567 105.221 102.275C107.991 102.353 110.413 104.787 110.441 104.816C110.53 104.908 110.479 104.589 110.546 106.15ZM91.9674 103.117C92.3898 102.29 92.9157 101.525 93.5315 100.84C97.6781 103.935 97.1119 103.535 97.2783 103.595C96.7116 104.239 96.1961 104.928 95.737 105.658C95.6474 105.584 94.7901 105.015 91.9674 103.117ZM95.3472 106.304C95.0006 106.897 94.6974 107.481 94.4412 108.013C90.6998 105.401 91.0539 105.639 90.9528 105.599C91.1423 104.993 91.3669 104.4 91.6254 103.823C95.9164 106.707 95.2073 106.24 95.351 106.304H95.3472ZM94.0878 100.291C94.8961 99.5635 95.8473 99.0255 96.8759 98.7139C97.9046 98.4022 98.9864 98.3243 100.047 98.4854C100.719 99.3285 101.463 100.108 102.268 100.816C100.541 100.977 98.9305 101.79 97.7457 103.099C97.6804 102.936 97.935 103.162 94.0878 100.291ZM92.9714 89.6219C92.9281 89.3762 92.7936 88.541 92.7062 87.3941C95.4568 86.0321 98.5006 85.4245 101.544 85.6296C104.588 85.8347 107.53 86.8457 110.086 88.5653C110.105 89.4406 110.222 94.7951 110.345 99.5279C108.573 98.2381 103.566 95.0691 100.582 97.9257C100.523 97.8472 100.926 98.2915 92.9714 89.6219ZM101.082 98.5388C102.962 96.7191 105.972 97.826 108.089 99.016C108 99.0434 107.925 99.1035 107.877 99.1847C107.828 99.2659 107.811 99.3627 107.827 99.4564L108.35 102.355C107.686 102.004 106.977 101.749 106.246 101.598C106.358 101.429 106.329 101.588 106.155 98.4579C106.149 98.3538 106.104 98.2564 106.028 98.187C105.953 98.1177 105.854 98.0821 105.753 98.0882C105.652 98.0942 105.558 98.1413 105.491 98.2192C105.424 98.2971 105.389 98.3993 105.395 98.5034C105.395 99.5056 105.457 100.507 105.582 101.501C105.155 101.462 104.726 101.474 104.301 101.536C103.157 100.622 102.08 99.6203 101.082 98.5388ZM110.464 103.788C109.976 103.37 109.456 102.994 108.908 102.665C108.979 102.626 109.036 102.565 109.071 102.491C109.106 102.416 109.118 102.333 109.104 102.251C108.503 98.9258 108.599 99.3748 108.566 99.2939C109.189 99.668 109.791 100.077 110.371 100.52C110.405 101.801 110.436 102.888 110.464 103.788ZM105.543 69.6115C111.156 74.272 110.447 84.9834 110.169 87.6838C107.56 86.0131 104.59 85.037 101.526 84.8429C98.4625 84.6488 95.3998 85.2427 92.6127 86.5714C92.7629 84.0064 93.4888 81.5127 94.7331 79.2874C94.7794 79.209 94.7977 79.1163 94.7846 79.0254C94.7716 78.9345 94.7281 78.8512 94.6618 78.79C94.5954 78.7289 94.5103 78.6937 94.4214 78.6906C94.3325 78.6875 94.2454 78.7168 94.1752 78.7732C94.0232 78.8926 90.623 81.6683 90.4512 85.3939L89.4587 85.7558C87.7418 83.7234 81.7447 76.6749 78.7488 73.7995C82.0054 72.3394 99.7073 64.7602 105.543 69.6115ZM70.7756 91.7791C69.632 90.4668 68.7604 88.9267 68.2144 87.2536C68.1877 87.1703 68.1347 87.0986 68.0639 87.0501C67.9931 87.0015 67.9086 86.9788 67.8239 86.9857C67.7392 86.9926 67.6592 87.0286 67.5966 87.0879C67.534 87.1473 67.4925 87.2267 67.4787 87.3133C67.4552 87.4616 66.9467 90.761 67.9066 92.9001C63.0228 95.0023 55.9396 96.6186 47.569 96.6186C33.8016 96.6186 31.8894 86.0392 31.6979 84.6395C34.5768 80.1399 39.9971 78.1939 43.4483 77.3822C41.5434 78.3766 39.779 79.6354 38.2043 81.1235C38.1685 81.1596 38.14 81.2026 38.1203 81.2501C38.1006 81.2976 38.0901 81.3486 38.0895 81.4002C38.0889 81.4519 38.0982 81.5031 38.1168 81.5511C38.1353 81.599 38.1629 81.6427 38.1978 81.6797C38.2328 81.7167 38.2744 81.7461 38.3204 81.7665C38.3663 81.7868 38.4157 81.7976 38.4657 81.7982C38.5157 81.7988 38.5653 81.7893 38.6118 81.7701C38.6582 81.7509 38.7005 81.7225 38.7363 81.6864C41.046 79.5291 43.7524 77.8739 46.6942 76.8194C46.7026 76.8194 46.7079 76.81 46.7155 76.8068C46.7231 76.8037 46.7338 76.8068 46.7421 76.7997C53.1261 73.5758 61.6989 72.129 65.0878 71.6572C70.3508 70.924 74.6531 71.5701 77.2098 73.4737C79.1584 74.9236 85.528 82.3222 88.1758 85.4355C87.0358 85.2157 85.2718 85.317 82.6802 86.4992C78.1909 88.5473 76.1701 94.7339 75.6297 96.7042C73.8133 95.1122 70.809 91.8152 70.7756 91.7791ZM89.6236 107.808C84.8634 104.733 80.3941 101.202 76.275 97.2616C76.6071 95.9749 78.536 89.2467 82.9918 87.2136C87.694 85.0682 89.2953 86.7528 89.3454 86.8069L99.2931 97.6446C93.7352 97.479 90.563 102.213 89.6266 107.808H89.6236ZM93.53 110.146C92.429 109.533 91.3607 108.902 90.3251 108.252C90.4243 107.617 90.5578 106.988 90.7248 106.368L94.1076 108.729C93.8477 109.322 93.6562 109.814 93.533 110.146H93.53ZM113.879 131.594C115.109 133.123 117.178 134.153 117.859 136.788C117.942 137.066 117.947 137.363 117.872 137.644C117.797 137.925 117.646 138.178 117.437 138.374C116.256 139.562 113.24 139.852 110.568 139.037C106.751 137.873 104.7 132.474 104.681 132.419C104.653 132.34 104.123 130.84 104.065 130.761C102.819 127.738 101.709 126.96 101.654 126.924C101.57 126.868 101.469 126.849 101.372 126.871C101.274 126.892 101.189 126.952 101.134 127.037C101.078 127.124 101.058 127.23 101.078 127.331C101.097 127.433 101.155 127.523 101.239 127.581C101.249 127.588 102.189 128.282 103.294 130.897C103.066 131.336 102.832 131.77 102.686 132.03C101.176 131.73 99.7626 131.045 98.5726 130.039C95.8822 127.793 98.106 125.098 100.517 122.225C102.633 119.702 101.615 116.204 101.134 114.925C108.633 118.986 108.901 121.15 112.591 126.585C112.776 127.174 112.882 127.786 112.906 128.404C112.889 129.549 113.231 130.668 113.882 131.594H113.879ZM143.215 122.395C137.743 128.332 131.755 128.718 128.667 128.421C126.708 128.084 124.699 128.232 122.805 128.851C119.131 129.743 116.953 132.047 112.81 125.514C108.545 118.79 107.926 117.237 96.5814 111.742C95.7773 111.349 94.99 110.941 94.2117 110.52C94.8425 108.827 98.0657 100.962 103.207 101.642C107.307 104.988 111.656 107.995 116.213 110.636C121.321 113.456 126.911 115.225 132.672 115.846C137.563 116.238 144.954 113.48 146.991 114.47C147.687 114.809 148.013 115.113 148.081 115.487C148.285 116.615 146.283 119.067 143.215 122.395Z" fill="black"/>
<path d="M72.8859 42.35C72.6784 42.1687 72.4823 42.2912 72.3265 42.3681C70.5253 41.0509 70.561 41.0045 70.3049 41.1019C65.6655 42.978 61.4865 45.8934 58.0689 49.638C55.6118 43.7622 48.328 37.1314 48.0095 36.8425C47.9641 36.8013 47.9097 36.7718 47.851 36.7567C47.7923 36.7415 47.731 36.7411 47.6721 36.7553C45.6701 37.4216 43.7748 38.3909 42.0481 39.6316C42.0055 39.6135 41.9561 39.5845 41.9143 39.568C41.8643 39.5486 41.8108 39.5404 41.7575 39.5439C41.7041 39.5473 41.6521 39.5623 41.6048 39.588C41.5574 39.6136 41.5158 39.6493 41.4828 39.6926C41.4497 39.736 41.4258 39.7861 41.4127 39.8396C41.3854 39.9487 41.5883 38.2877 39.1837 57.8318C39.1753 57.9002 39.1845 57.9696 39.2104 58.0332C39.2363 58.0967 39.2779 58.152 39.3311 58.1937C47.7451 64.7877 47.1082 64.3481 47.2959 64.3481C47.3756 64.3481 47.4534 64.3222 47.5181 64.274C47.5828 64.2258 47.6312 64.1579 47.6564 64.0797C47.6816 64.0016 47.6824 63.9172 47.6586 63.8386C47.6348 63.7599 47.5877 63.691 47.5239 63.6416L39.9695 57.7062L42.0929 40.5053C44.8289 41.8657 49.3669 46.107 52.3841 49.094L49.6481 63.6887C49.6288 63.7909 49.6497 63.8968 49.7061 63.9832C49.7624 64.0695 49.8497 64.1292 49.9487 64.1491C50.0476 64.169 50.1502 64.1474 50.2338 64.0892C50.3174 64.031 50.3752 63.9408 50.3944 63.8386L53.04 49.7439C54.1686 50.8751 55.0008 51.7433 55.3139 52.073L53.1137 64.4219C53.0955 64.5244 53.1174 64.6302 53.1747 64.7161C53.232 64.8019 53.3199 64.8607 53.4192 64.8795C53.5185 64.8984 53.6209 64.8757 53.704 64.8165C53.7871 64.7573 53.8441 64.6665 53.8623 64.564L56.0724 52.1382C57.6023 50.5431 58.7878 50.8406 59.2324 51.0486L56.865 66.0869L55.421 66.8758C55.3319 66.9243 55.265 67.0074 55.2351 67.1069C55.2053 67.2063 55.2149 67.3139 55.2618 67.4061C55.3088 67.4982 55.3893 67.5673 55.4855 67.5981C55.5818 67.6289 55.686 67.619 55.7752 67.5705C69.0859 60.325 68.3965 60.7599 68.4589 60.5118C68.4908 60.3838 71.6569 47.7014 73.0074 42.7559C73.027 42.6833 73.026 42.6065 73.0044 42.5345C72.9828 42.4625 72.9417 42.3985 72.8859 42.35ZM56.8947 50.5227C54.7302 45.7287 53.2246 44.1689 49.8054 40.7102C49.7704 40.6716 49.7281 40.6408 49.6813 40.6195C49.6344 40.5983 49.5838 40.587 49.5326 40.5864C49.4814 40.5859 49.4307 40.596 49.3834 40.6162C49.336 40.6363 49.2932 40.6662 49.2573 40.7039C49.2214 40.7417 49.1933 40.7865 49.1746 40.8357C49.156 40.885 49.1471 40.9376 49.1486 40.9904C49.1501 41.0433 49.162 41.0953 49.1834 41.1433C49.2048 41.1913 49.2355 41.2344 49.2734 41.2699C52.7345 44.7835 54.1176 46.2052 56.2449 50.9426C56.2114 50.9685 56.1788 50.9937 56.1461 51.0211C53.5146 46.5666 50.0564 42.6935 45.9705 39.6245C45.8906 39.5609 45.7896 39.5327 45.6896 39.546C45.5897 39.5593 45.4989 39.6131 45.4373 39.6956C45.3757 39.778 45.3484 39.8823 45.3613 39.9856C45.3742 40.0889 45.4263 40.1826 45.5061 40.2462C49.3138 43.0939 52.5698 46.6549 55.1049 50.744C52.8104 48.3694 46.6149 42.1365 42.8438 40.0264C44.3392 38.9959 45.9576 38.1698 47.6584 37.5686C48.7391 38.5742 55.4165 44.9264 57.4898 50.262C57.2847 50.3317 57.0857 50.4189 56.8947 50.5227ZM58.6723 50.1184C61.9535 46.5369 65.9501 43.736 70.3847 41.9104L71.5467 42.7645C69.3176 43.9035 63.5614 46.9886 59.6041 50.3727C59.3111 50.2331 58.9969 50.147 58.6754 50.1184H58.6723ZM67.7627 60.1475L57.7064 65.6284L59.424 54.7169L70.7768 48.2415C69.4848 53.2631 68.0272 59.0925 67.7627 60.1475ZM71.0482 47.1911L59.579 53.7325L60.0016 51.0518C63.9999 47.6025 69.9614 44.4397 72.0476 43.3799C71.7588 44.4578 71.4107 45.7742 71.0482 47.1911Z" fill="black"/>
</svg>
