<svg width="153" height="158" viewBox="0 0 153 158" fill="none" xmlns="http://www.w3.org/2000/svg">
<path d="M75.814 147.564C75.4978 147.566 75.4925 147.071 75.8087 147.071C76.4843 147.068 77.1675 147.045 77.8417 147.018C78.1571 147.005 78.1776 147.495 77.8622 147.51C77.185 147.543 76.4949 147.561 75.814 147.564ZM73.7643 147.546C73.0833 147.538 72.3902 147.498 71.713 147.456C71.3969 147.436 71.4295 146.945 71.7419 146.965C72.4145 147.009 73.0985 147.037 73.7749 147.055C74.0857 147.063 74.0797 147.55 73.765 147.546H73.7643ZM79.8883 147.385C79.5874 147.385 79.5669 146.917 79.8716 146.893C80.5442 146.84 81.2252 146.776 81.8955 146.696C82.2063 146.659 82.2656 147.15 81.9479 147.187C81.4106 147.25 80.0479 147.385 79.8876 147.385H79.8883ZM69.6899 147.296C69.4779 147.279 68.4921 147.173 67.6295 147.059C67.3164 147.017 67.378 146.528 67.6911 146.57C68.3584 146.659 69.0378 146.739 69.7119 146.804C70.0114 146.832 69.9901 147.296 69.6899 147.296ZM83.9467 146.913C83.6481 146.913 83.6253 146.467 83.911 146.424C84.5821 146.322 85.2577 146.206 85.9182 146.081C86.229 146.022 86.3134 146.505 86.0048 146.564C85.7783 146.607 84.0881 146.913 83.9467 146.913ZM65.6376 146.749C65.5061 146.749 63.9413 146.44 63.5825 146.366C63.274 146.303 63.3652 145.819 63.676 145.883C64.3387 146.019 65.0129 146.146 65.6763 146.261C65.9629 146.311 65.9279 146.75 65.6376 146.75V146.749ZM87.9611 146.155C87.6829 146.155 87.6305 145.733 87.9117 145.668C88.5706 145.517 89.2363 145.355 89.8899 145.183C90.1955 145.103 90.3125 145.579 90.0077 145.659C89.8694 145.695 88.1062 146.155 87.9611 146.155ZM61.6331 145.921C61.5625 145.921 59.8418 145.458 59.5918 145.387C59.2878 145.3 59.4132 144.827 59.7179 144.912C60.367 145.094 61.0289 145.271 61.6879 145.434C61.9622 145.501 61.9143 145.921 61.6331 145.921V145.921ZM91.9176 145.109C91.6486 145.109 91.5878 144.706 91.853 144.625C92.4998 144.427 93.1549 144.22 93.7941 143.997C94.0927 143.893 94.244 144.363 93.9438 144.465C93.7447 144.533 92.0103 145.109 91.9176 145.109ZM57.6971 144.801C57.5443 144.801 55.8313 144.179 55.6725 144.121C55.3753 144.012 55.5349 143.547 55.8328 143.657C56.4674 143.888 57.1195 144.113 57.7685 144.321C58.0285 144.405 57.9692 144.801 57.6971 144.801ZM95.7929 143.777C95.5314 143.777 95.463 143.397 95.7108 143.301C96.3423 143.058 96.9807 142.799 97.6039 142.534C97.8935 142.412 98.0789 142.864 97.7863 142.989C97.6503 143.047 95.9152 143.777 95.7929 143.777ZM53.8325 143.396C53.7284 143.396 52.0123 142.645 51.8459 142.569C51.5555 142.439 51.7455 141.99 52.0351 142.117C52.6591 142.393 53.2929 142.667 53.9199 142.921C54.1631 143.019 54.0947 143.396 53.8333 143.396H53.8325ZM99.5678 142.174C99.3101 142.174 99.2326 141.814 99.4675 141.704C100.082 141.415 100.698 141.113 101.301 140.805C101.585 140.661 101.796 141.101 101.514 141.247C101.382 141.316 99.719 142.173 99.5685 142.173L99.5678 142.174ZM50.0735 141.715C49.9732 141.715 48.2085 140.787 48.1325 140.746C47.8528 140.596 48.0702 140.159 48.3521 140.308C48.9533 140.626 49.5659 140.946 50.1769 141.245C50.4064 141.357 50.3266 141.715 50.0728 141.715H50.0735ZM103.218 140.302C102.97 140.302 102.886 139.96 103.104 139.838C103.696 139.507 104.292 139.16 104.873 138.81C105.146 138.645 105.388 139.071 105.115 139.235C104.999 139.305 103.353 140.303 103.219 140.303L103.218 140.302ZM46.4423 139.769C46.3093 139.769 44.7148 138.761 44.5559 138.662C44.2861 138.492 44.5339 138.072 44.8029 138.243C45.3767 138.608 45.9695 138.964 46.5601 139.309C46.7721 139.433 46.6877 139.77 46.4423 139.77V139.769ZM106.606 137.719C107.175 137.347 107.747 136.96 108.303 136.565C108.562 136.382 108.835 136.787 108.572 136.973C108.011 137.37 107.432 137.757 106.862 138.136C106.598 138.311 106.341 137.892 106.606 137.719ZM42.8209 137.525C42.2471 137.144 41.6809 136.734 41.1268 136.328C40.8692 136.139 41.1466 135.738 41.4027 135.927C41.9522 136.332 42.5184 136.73 43.0831 137.115C43.343 137.293 43.0907 137.704 42.8209 137.525ZM109.96 135.351C110.502 134.938 111.046 134.511 111.577 134.08C111.827 133.877 112.121 134.266 111.874 134.467C111.339 134.902 110.793 135.336 110.244 135.749C109.992 135.938 109.702 135.548 109.96 135.351ZM39.4738 135.068C38.9373 134.635 38.3916 134.197 37.8649 133.752C37.6209 133.546 37.9249 133.165 38.1681 133.372C38.6872 133.816 39.2276 134.252 39.7634 134.677C40.0157 134.877 39.7178 135.264 39.4738 135.067V135.068ZM113.149 132.748C113.663 132.298 114.178 131.833 114.678 131.363C114.912 131.143 115.233 131.508 114.998 131.727C114.493 132.198 113.975 132.67 113.458 133.123C113.222 133.33 112.907 132.961 113.15 132.749L113.149 132.748ZM36.3016 132.381C35.7901 131.915 35.2794 131.437 34.7846 130.955C34.5543 130.73 34.8834 130.374 35.1114 130.596C35.6016 131.075 36.107 131.549 36.6162 132.011C36.8518 132.225 36.5395 132.598 36.3016 132.38V132.381ZM116.16 129.926C116.646 129.44 117.127 128.935 117.593 128.435C117.813 128.199 118.155 128.541 117.938 128.776C117.467 129.282 116.979 129.784 116.492 130.279C116.269 130.507 115.934 130.152 116.16 129.926ZM33.3171 129.474C32.8405 128.971 32.3587 128.461 31.9004 127.944C31.6876 127.705 32.0357 127.369 32.2508 127.61C32.7098 128.121 33.1818 128.63 33.6568 129.127C33.881 129.362 33.5344 129.704 33.3163 129.473L33.3171 129.474ZM118.977 126.891C119.427 126.372 119.873 125.834 120.308 125.301C120.513 125.05 120.874 125.368 120.674 125.616C120.239 126.156 119.788 126.697 119.333 127.219C119.124 127.459 118.766 127.134 118.977 126.891H118.977ZM30.5355 126.363C30.0893 125.833 29.6493 125.284 29.2245 124.737C29.0269 124.482 29.397 124.174 29.5953 124.427C30.0194 124.969 30.4572 125.512 30.8957 126.041C31.1017 126.289 30.7369 126.603 30.5347 126.363H30.5355ZM121.769 124.063C121.586 124.063 121.457 123.835 121.583 123.666C121.996 123.115 122.41 122.55 122.804 121.983C122.986 121.721 123.376 122.007 123.189 122.273C121.935 124.054 121.916 124.063 121.769 124.063ZM27.9697 123.064C27.5661 122.501 27.1595 121.925 26.7712 121.348C26.5911 121.082 26.9825 120.8 27.1626 121.067C27.5487 121.64 27.9484 122.211 28.3512 122.769C28.5427 123.035 28.1521 123.32 27.9697 123.064ZM123.972 120.257C124.349 119.676 124.722 119.082 125.079 118.491C125.246 118.214 125.651 118.475 125.484 118.751C125.125 119.348 124.749 119.947 124.369 120.531C124.196 120.795 123.794 120.531 123.972 120.257ZM25.6304 119.592C25.258 119.001 24.8985 118.395 24.5489 117.795C24.3863 117.516 24.7952 117.263 24.9578 117.541C25.3036 118.135 25.6623 118.735 26.0287 119.322C26.2012 119.599 25.7976 119.856 25.6304 119.592ZM126.122 116.685C126.457 116.079 126.79 115.461 127.108 114.842C127.255 114.554 127.676 114.785 127.528 115.072C127.209 115.694 126.875 116.321 126.536 116.929C126.381 117.207 125.966 116.966 126.122 116.685ZM23.5298 115.962C23.1992 115.35 22.8815 114.72 22.5729 114.093C22.4308 113.804 22.8549 113.579 22.9985 113.871C23.3033 114.492 23.6248 115.116 23.947 115.725C24.0967 116.008 23.6818 116.244 23.5298 115.962ZM128.031 112.967C128.329 112.338 128.619 111.695 128.889 111.057C129.015 110.761 129.455 110.957 129.326 111.257C129.048 111.899 128.757 112.545 128.459 113.183C128.321 113.479 127.896 113.254 128.032 112.967H128.031ZM21.6815 112.191C21.3934 111.556 21.1168 110.904 20.8538 110.26C20.7315 109.96 21.1707 109.769 21.2931 110.07C21.5538 110.711 21.8289 111.355 22.1139 111.986C22.2469 112.279 21.8167 112.49 21.6815 112.191ZM129.685 109.116C129.935 108.465 130.184 107.805 130.412 107.148C130.519 106.843 130.968 107.008 130.86 107.315C130.629 107.976 130.38 108.644 130.126 109.299C130.008 109.602 129.57 109.417 129.685 109.116ZM20.0915 108.3C19.8506 107.642 19.6135 106.973 19.3939 106.308C19.292 105.999 19.7427 105.839 19.8453 106.148C20.0634 106.807 20.2945 107.473 20.5369 108.124C20.6501 108.428 20.204 108.605 20.0923 108.3H20.0915ZM131.074 105.154C131.283 104.49 131.482 103.812 131.665 103.144C131.751 102.833 132.209 102.965 132.123 103.279C131.938 103.954 131.736 104.637 131.527 105.307C131.429 105.622 130.979 105.458 131.074 105.154ZM18.7638 104.292C18.567 103.618 18.377 102.932 18.2022 102.254C18.1209 101.939 18.5807 101.815 18.662 102.128C18.8368 102.801 19.0245 103.48 19.2191 104.148C19.3103 104.463 18.855 104.602 18.7646 104.293L18.7638 104.292ZM132.186 101.111C132.349 100.434 132.501 99.7445 132.639 99.0623C132.704 98.7444 133.17 98.8441 133.106 99.1644C132.966 99.852 132.813 100.547 132.65 101.229C132.575 101.54 132.109 101.432 132.187 101.111H132.186ZM17.7112 100.197C17.5638 99.5098 17.4186 98.8127 17.2887 98.1235C17.2286 97.804 17.6968 97.7106 17.7568 98.03C17.886 98.7138 18.0251 99.4046 18.1756 100.086C18.2463 100.405 17.7789 100.515 17.7105 100.197H17.7112ZM133.024 96.9993C133.138 96.3133 133.243 95.6154 133.337 94.9246C133.38 94.6035 133.853 94.6687 133.809 94.9929C133.714 95.6892 133.61 96.3941 133.492 97.0857C133.437 97.4083 132.971 97.3188 133.024 96.9993ZM16.9383 96.0377C16.8319 95.343 16.7377 94.6381 16.6571 93.9402C16.6199 93.6152 17.0933 93.5579 17.1306 93.8805C17.2104 94.5721 17.3054 95.2731 17.4095 95.9608C17.4581 96.2826 16.9869 96.3596 16.9375 96.0385L16.9383 96.0377ZM133.582 92.8388C133.652 92.148 133.711 91.4423 133.756 90.746C133.777 90.4187 134.251 90.4572 134.231 90.7798C134.186 91.4831 134.123 92.1936 134.055 92.8899C134.022 93.2219 133.55 93.1513 133.582 92.8388H133.582ZM16.4481 91.8333C16.3911 91.1354 16.3432 90.4226 16.3083 89.7193C16.2923 89.3927 16.7688 89.3707 16.7848 89.6949C16.819 90.3928 16.8646 91.0985 16.9246 91.7909C16.9535 92.1229 16.4739 92.1488 16.4481 91.8333ZM133.861 88.6469C133.905 87.4459 133.909 85.8547 133.861 84.4778C133.85 84.1473 134.327 84.1403 134.338 84.4605C134.382 85.7236 134.385 87.3022 134.336 88.6619C134.324 88.9955 133.85 88.9602 133.861 88.6477V88.6469ZM16.2368 87.6021C16.2323 87.2504 16.2323 85.8351 16.2368 85.4795C16.2414 85.1521 16.7179 85.1639 16.7133 85.4865C16.7088 85.8382 16.7088 87.2434 16.7133 87.5911C16.7179 87.92 16.2406 87.9192 16.2368 87.6013V87.6021ZM16.3067 83.3623C16.3417 82.6605 16.3873 81.9485 16.4481 81.2468C16.4762 80.9202 16.9505 80.9689 16.9231 81.2891C16.8638 81.9854 16.819 82.6904 16.7833 83.3867C16.7665 83.7171 16.2908 83.6787 16.3067 83.3623ZM133.757 82.3811C133.707 81.6848 133.654 80.9799 133.585 80.2883C133.553 79.9641 134.028 79.913 134.06 80.2372C134.13 80.9335 134.189 81.644 134.234 82.3457C134.256 82.6778 133.781 82.6974 133.758 82.3811H133.757ZM16.6586 79.1382C16.7392 78.438 16.8357 77.7331 16.9413 77.0384C16.9907 76.7149 17.4612 76.7927 17.4125 77.1137C17.3084 77.803 17.2157 78.5032 17.1336 79.1955C17.0956 79.515 16.6206 79.4648 16.6586 79.1375V79.1382ZM133.343 78.2049C133.254 77.5133 133.145 76.8162 133.03 76.1301C132.976 75.8091 133.446 75.7251 133.499 76.0461C133.614 76.7377 133.719 77.4411 133.814 78.1389C133.858 78.4616 133.384 78.5291 133.343 78.2057V78.2049ZM17.2917 74.9503C17.4217 74.261 17.563 73.5632 17.7143 72.8755C17.7842 72.5592 18.2508 72.6667 18.1794 72.9862C18.0259 73.6676 17.8875 74.3599 17.7606 75.0437C17.7006 75.3663 17.2324 75.269 17.2925 74.9503H17.2917ZM132.88 74.2665C132.587 74.2665 132.704 74.1213 132.195 72.023C132.119 71.7059 132.583 71.592 132.657 71.9052C132.818 72.5882 132.974 73.2821 133.113 73.9698C133.144 74.1213 133.033 74.2673 132.879 74.2673L132.88 74.2665ZM18.4393 71.1312C18.2873 71.1312 18.1665 70.9805 18.2075 70.8204C18.3838 70.1421 18.5738 69.456 18.7691 68.7825C18.8588 68.4732 19.3186 68.6122 19.2251 68.927C18.6073 71.0096 18.7182 71.132 18.4385 71.132L18.4393 71.1312ZM131.903 70.1696C131.63 70.1696 131.736 70.0644 131.084 67.9802C130.988 67.671 131.439 67.5202 131.537 67.8287C131.748 68.4968 131.945 69.1789 132.131 69.8564C132.174 70.011 132.062 70.1696 131.903 70.1696H131.903ZM19.4015 66.7635C19.6211 66.101 19.8544 65.4298 20.0991 64.7712C20.2124 64.4666 20.6562 64.6416 20.5453 64.947C20.3066 65.6025 20.071 66.2666 19.8521 66.9236C19.748 67.2361 19.3004 67.0673 19.4007 66.7635H19.4015ZM130.652 66.1551C130.391 66.1551 130.493 66.0562 129.703 64.0309C129.586 63.7303 130.028 63.5442 130.146 63.848C130.4 64.5003 130.647 65.166 130.877 65.8262C130.931 65.9832 130.823 66.1551 130.652 66.1551ZM21.0871 63.1501C20.9215 63.1501 20.7983 62.9735 20.8675 62.8071C21.1365 62.1618 21.4109 61.5071 21.6997 60.8689C21.8342 60.573 22.2651 60.7826 22.1321 61.0762C21.249 63.0269 21.3402 63.1494 21.0864 63.1494L21.0871 63.1501ZM129.133 62.2427C128.89 62.2427 128.991 62.1665 128.061 60.1883C127.923 59.8963 128.352 59.6797 128.49 59.974C128.787 60.6052 129.078 61.252 129.351 61.8957C129.421 62.0606 129.305 62.2419 129.133 62.2419V62.2427ZM22.8085 59.3201C22.6322 59.3201 22.5159 59.1286 22.5973 58.963C22.9051 58.3365 23.2303 57.7085 23.5571 57.0899C23.7076 56.8058 24.1271 57.0413 23.9744 57.327C22.9339 59.2715 23.0365 59.3193 22.8085 59.3193V59.3201ZM127.353 58.4441C127.13 58.4441 127.238 58.4229 126.159 56.4729C126.003 56.1903 126.417 55.9454 126.573 56.2288C126.91 56.8395 127.245 57.4636 127.562 58.0838C127.645 58.2462 127.533 58.4441 127.353 58.4441ZM24.7853 55.6251C24.5983 55.6251 24.4843 55.4155 24.5793 55.2523C24.9297 54.6517 25.293 54.0441 25.6639 53.453C25.8356 53.1791 26.2369 53.446 26.0659 53.7199C24.878 55.6189 24.9973 55.6243 24.7853 55.6243V55.6251ZM125.318 54.7844C125.107 54.7844 125.235 54.7797 124.014 52.9028C123.838 52.6327 124.234 52.3587 124.409 52.6288C124.789 53.2128 125.162 53.8126 125.521 54.4084C125.621 54.574 125.504 54.7844 125.318 54.7844ZM27.0022 52.0816C26.8099 52.0816 26.6975 51.8579 26.8061 51.6946C27.1922 51.1184 27.6011 50.5423 28.0085 49.9786C28.1954 49.7196 28.58 50.0116 28.39 50.2738C27.0744 52.0942 27.1998 52.0816 27.0022 52.0816ZM123.043 51.2817C122.847 51.2817 122.929 51.2299 121.632 49.4951C121.44 49.2376 121.816 48.9369 122.008 49.1944C122.425 49.751 122.84 50.3209 123.237 50.8916C123.35 51.0533 123.24 51.2817 123.043 51.2817ZM29.4517 48.7069C29.2571 48.7069 29.1401 48.4691 29.2678 48.3058C29.6957 47.7602 30.1342 47.2099 30.5818 46.6793C30.7901 46.432 31.1457 46.7578 30.9413 47.0011C29.587 48.6057 29.6607 48.7069 29.4517 48.7069ZM120.542 47.9439C120.338 47.9439 120.427 47.8795 119.031 46.2664C118.82 46.023 119.175 45.6949 119.386 45.9374C119.844 46.4618 120.292 47.0043 120.725 47.5412C120.851 47.6982 120.745 47.9439 120.542 47.9439ZM32.1231 45.5151C31.927 45.5151 31.8047 45.2631 31.9498 45.0999C32.4104 44.5825 32.8907 44.0707 33.3695 43.5699C33.5891 43.3407 33.9311 43.6845 33.7062 43.9184C32.2173 45.4633 32.3131 45.5151 32.1231 45.5151ZM117.823 44.7992C117.65 44.7992 117.75 44.7756 116.219 43.2284C115.994 43.0008 116.328 42.6491 116.553 42.8767C117.039 43.3681 117.527 43.8729 117.995 44.3824C118.138 44.5386 118.033 44.7992 117.823 44.7992ZM35.0035 42.5203C34.7892 42.5203 34.6805 42.2464 34.8386 42.0933C35.3333 41.6105 35.8448 41.1332 36.3571 40.6685C36.5934 40.4542 36.9111 40.8232 36.6717 41.0398C35.0901 42.4756 35.1775 42.5203 35.0035 42.5203ZM114.898 41.8523C114.727 41.8523 114.839 41.8264 113.211 40.3977C112.97 40.1873 113.278 39.8129 113.518 40.0233C114.038 40.4786 114.556 40.9496 115.059 41.4229C115.221 41.5752 115.114 41.8523 114.897 41.8523H114.898ZM38.0709 39.7383C37.8535 39.7383 37.7441 39.4494 37.9211 39.3003C38.4471 38.856 38.9882 38.4132 39.5301 37.9885C39.7816 37.7907 40.0689 38.1816 39.8196 38.3787C38.1157 39.7273 38.2282 39.7383 38.0709 39.7383ZM111.783 39.1213C111.62 39.1213 111.684 39.0648 110.018 37.7915C109.762 37.5968 110.047 37.202 110.3 37.3943C110.851 37.8119 111.398 38.2468 111.931 38.6817C112.109 38.8269 112.009 39.1213 111.783 39.1213ZM41.3191 37.1831C41.0957 37.1831 40.9877 36.877 41.1815 36.7349C41.7356 36.3275 42.3056 35.924 42.8741 35.5409C43.1385 35.3627 43.4 35.7725 43.1363 35.9522C41.443 37.1062 41.4749 37.1831 41.3199 37.1831H41.3191ZM108.359 36.5748C107.806 36.176 107.231 35.7898 106.66 35.4177C106.394 35.2442 106.65 34.8273 106.915 35.0024C107.489 35.3816 108.067 35.7717 108.628 36.1681C108.889 36.3526 108.616 36.7584 108.359 36.574V36.5748ZM44.7307 34.8658C44.4951 34.8658 44.3971 34.54 44.6061 34.4089C45.1837 34.0463 45.7795 33.6852 46.3754 33.3382C46.6497 33.1781 46.8846 33.6067 46.6102 33.7676C44.7824 34.836 44.8683 34.8666 44.7307 34.8666V34.8658ZM105.046 34.3579C104.935 34.3579 104.372 33.9748 103.151 33.2903C102.875 33.1357 103.101 32.7016 103.379 32.8578C103.977 33.1922 104.577 33.5431 105.167 33.8987C105.376 34.0251 105.29 34.3579 105.046 34.3579ZM48.1796 32.3303C48.7838 32.0061 49.4017 31.6897 50.0165 31.3898C50.3 31.2517 50.509 31.6936 50.221 31.8349C49.6115 32.1332 48.9981 32.4464 48.3993 32.7691C48.1181 32.9206 47.9007 32.481 48.1796 32.331V32.3303ZM101.345 32.3193C100.743 32.0092 100.123 31.7062 99.5062 31.4157C99.2174 31.2799 99.4181 30.8333 99.7023 30.9675C100.323 31.2603 100.948 31.5672 101.557 31.8781C101.833 32.0194 101.633 32.4676 101.345 32.3193H101.345ZM51.9751 30.9903C51.7227 30.9903 51.6414 30.6252 51.8816 30.5169C52.5025 30.2382 53.1409 29.9674 53.7763 29.7115C54.0711 29.593 54.2414 30.0514 53.9495 30.1684C52.1027 30.9125 52.0997 30.9895 51.9743 30.9895L51.9751 30.9903ZM97.7324 30.6017C97.6267 30.6017 97.7385 30.5836 95.7435 29.812C95.4486 29.6982 95.6158 29.235 95.9099 29.3512C96.5468 29.6016 97.1913 29.8591 97.8221 30.1268C98.0615 30.2288 97.9908 30.6017 97.7316 30.6017H97.7324ZM55.7773 29.4517C55.5091 29.4517 55.4467 29.0654 55.6991 28.9736C56.339 28.7405 56.9926 28.5159 57.6431 28.3071C57.9441 28.2106 58.0855 28.68 57.7845 28.7766C56.7539 29.1078 55.8488 29.4517 55.7773 29.4517ZM93.8967 29.1267C93.7857 29.1267 93.9027 29.1047 91.8773 28.4845C91.5733 28.3911 91.7109 27.9193 92.0119 28.0112C92.667 28.2114 93.3259 28.4257 93.9711 28.6463C94.2257 28.7334 94.1665 29.1267 93.8959 29.1267H93.8967ZM59.6693 28.1949C59.3927 28.1949 59.3395 27.7859 59.6062 27.7113C60.2621 27.5276 60.9294 27.3494 61.5898 27.1854C61.8961 27.1092 62.0086 27.5896 61.7008 27.6658C60.5175 27.9586 59.7529 28.1949 59.6693 28.1949ZM89.9743 27.935C89.8778 27.935 89.6103 27.8259 87.9314 27.4389C87.6213 27.3675 87.7262 26.8871 88.0333 26.9569C88.699 27.1092 89.3709 27.2749 90.0321 27.4491C90.3019 27.5206 90.2525 27.9343 89.9743 27.9343V27.935ZM63.638 27.2207C63.3485 27.2207 63.3105 26.7913 63.5901 26.734C64.2544 26.5974 64.9315 26.4687 65.6041 26.3525C65.9135 26.2991 65.9948 26.7834 65.6824 26.8376C63.733 27.1767 63.7231 27.2207 63.638 27.2207ZM85.9767 27.0276C85.8901 27.0276 85.5215 26.9208 83.9232 26.6798C83.6123 26.6327 83.68 26.1437 83.9931 26.1923C84.6665 26.2983 85.3497 26.4121 86.0208 26.5385C86.3043 26.5919 86.2647 27.0276 85.9767 27.0276ZM67.6622 26.5338C67.3658 26.5338 67.3362 26.0824 67.6318 26.0432C68.3044 25.9529 68.9907 25.8768 69.6701 25.8077C69.984 25.7755 70.0304 26.2661 69.7157 26.2983C67.9905 26.4765 67.7382 26.5338 67.6622 26.5338ZM81.9244 26.409C81.7519 26.409 81.4988 26.3407 79.8747 26.2104C79.56 26.1853 79.5957 25.697 79.9104 25.7198C80.5913 25.77 81.2776 25.8391 81.9517 25.9184C82.2481 25.9529 82.2215 26.409 81.9244 26.409ZM71.7297 26.1343C71.4235 26.1343 71.409 25.6617 71.7145 25.6436C72.394 25.6044 73.0833 25.5628 73.7627 25.5541C74.0827 25.5502 74.0865 26.0385 73.7764 26.0448C72.6334 26.0675 71.8346 26.1343 71.7297 26.1343ZM77.8538 26.0832C77.6661 26.0832 76.9145 26.0346 75.8109 26.0291C75.4971 26.0275 75.4986 25.5353 75.8125 25.5369C76.4949 25.5392 77.1865 25.5628 77.8637 25.591C78.17 25.6036 78.1647 26.0832 77.8538 26.0832Z" fill="black"/>
<path d="M27.6002 26.9504C28.3602 26.9504 28.9758 27.5863 28.9758 28.3713C28.9758 29.1563 28.3602 29.7921 27.6002 29.7921C26.8402 29.7921 26.2246 29.1563 26.2246 28.3713C26.2246 27.5863 26.8402 26.9504 27.6002 26.9504Z" fill="white"/>
<path d="M27.6001 30.0366C26.7094 30.0366 25.9858 29.2893 25.9858 28.3692C25.9858 27.4492 26.7094 26.7019 27.6001 26.7019C28.4908 26.7019 29.2143 27.4492 29.2143 28.3692C29.2143 29.2893 28.4908 30.0366 27.6001 30.0366ZM27.6001 27.1949C26.9738 27.1949 26.4631 27.7224 26.4631 28.3692C26.4631 29.0161 26.9738 29.5436 27.6001 29.5436C28.2263 29.5436 28.737 29.0161 28.737 28.3692C28.737 27.7224 28.2263 27.1949 27.6001 27.1949Z" fill="black"/>
<path d="M123.168 17.1427C124.3 19.5558 124.219 19.4192 124.31 19.4357L126.677 19.8227C126.777 19.8384 126.816 19.9687 126.743 20.0409C124.87 21.8982 124.969 21.7789 124.984 21.8731L125.359 24.3176C125.374 24.4212 125.268 24.5005 125.179 24.451C122.888 23.1966 123.03 23.2445 122.948 23.2884L120.813 24.4118C120.723 24.4589 120.617 24.3804 120.635 24.2768C121.056 21.7546 121.093 21.8064 121.016 21.7271L119.322 19.9773C119.251 19.9035 119.292 19.7748 119.392 19.7591C121.961 19.3697 121.816 19.431 121.859 19.3462L122.947 17.1411C122.992 17.0477 123.124 17.0485 123.168 17.1427Z" fill="#81F8F8"/>
<path d="M126.714 19.5788L124.407 19.2004L123.382 17.0322C123.257 16.7685 122.878 16.7379 122.734 17.0267L121.673 19.1776L119.359 19.5136C119.066 19.5552 118.941 19.9297 119.154 20.1487L120.805 21.8545L120.4 24.2307C120.349 24.5337 120.655 24.7708 120.921 24.6295L123.004 23.5336C125.25 24.7668 125.111 24.7095 125.237 24.7095C125.446 24.7095 125.634 24.5117 125.597 24.2754L125.23 21.8929L126.911 20.217C127.124 20.005 127.012 19.6282 126.716 19.5788H126.714ZM124.855 21.5797C124.67 21.7666 124.718 21.7187 125.087 24.1192C123.007 22.977 123.131 23.0257 123.004 23.0257C122.874 23.0257 123.036 22.9605 120.909 24.0807C121.319 21.6826 121.364 21.7312 121.185 21.5468L119.653 19.9642L121.798 19.6533C122.05 19.6188 121.991 19.6157 123.055 17.4585C124.092 19.6549 124.025 19.6345 124.274 19.6761L126.414 20.0262L124.856 21.5805L124.855 21.5797Z" fill="black"/>
<path d="M79.7653 133.543L78.2909 133.302L77.635 131.917C77.5218 131.674 77.1859 131.668 77.0627 131.914L76.3848 133.289L74.9051 133.503C74.6429 133.542 74.5373 133.872 74.7235 134.065L75.7791 135.155L75.5199 136.674C75.4721 136.94 75.7464 137.148 75.9797 137.024L77.3113 136.324C78.7325 137.104 78.6694 137.087 78.7803 137.087C78.9536 137.087 79.1277 136.918 79.095 136.7L78.8617 135.177L79.9363 134.106C80.1255 133.923 80.0267 133.586 79.7645 133.543H79.7653Z" fill="black"/>
<path d="M106.856 86.5502C106.856 104.549 92.7287 119.14 75.3019 119.14C57.8751 119.14 43.7505 104.549 43.7505 86.5502C43.7505 68.5518 57.8781 53.9595 75.3034 53.9595C92.7287 53.9595 106.856 68.5526 106.856 86.5502Z" fill="white"/>
<path d="M75.3148 53.6431C57.7816 53.6361 43.5544 68.2528 43.445 86.3399C43.3355 104.453 57.5103 119.428 75.254 119.455C84.4903 119.469 93.7311 115.365 100.136 107.142C100.191 107.105 100.234 107.051 100.259 106.982C104.811 101.063 107.154 93.8343 107.167 86.5612C107.198 68.6115 93.1117 53.6494 75.3156 53.6423L75.3148 53.6431ZM106.547 86.2339H91.2452C91.2163 79.9076 90.3316 73.8624 88.7045 68.6735C92.9681 68.1962 96.7818 67.4889 99.8529 66.5862C104.17 72.239 106.481 79.0221 106.546 86.2339H106.547ZM75.6082 54.2828C80.6842 54.4932 85.1636 59.9239 87.8822 68.1248C84.0647 68.5228 79.9052 68.7387 75.6082 68.7481V54.2828ZM74.9948 68.7481C70.6978 68.7387 66.5376 68.5228 62.7208 68.1256C65.4394 59.9247 69.9188 54.4932 74.9948 54.2828V68.7481ZM74.9948 69.3831V86.2339H59.9712C60.0008 79.7765 60.9364 73.7666 62.5217 68.7418C66.3985 69.1516 70.6271 69.3737 74.9948 69.3831ZM74.9948 86.8666V103.716C70.6271 103.726 66.3977 103.948 62.521 104.358C60.9356 99.3332 60.0008 93.324 59.9712 86.8666H74.9948ZM74.9948 104.35V118.818C69.918 118.607 65.4386 113.176 62.7201 104.974C66.5376 104.576 70.6978 104.36 74.9948 104.35ZM75.6082 104.35C79.906 104.36 84.0654 104.575 87.8829 104.973C85.1644 113.175 80.6842 118.607 75.6082 118.818V104.35ZM75.6082 103.715V86.8658H90.6318C90.6022 93.3224 89.6674 99.3308 88.082 104.356C84.2053 103.947 79.9759 103.724 75.6074 103.715H75.6082ZM75.6082 86.2331V69.3824C79.9766 69.3722 84.2053 69.1499 88.082 68.7402C89.6674 73.7657 90.603 79.7749 90.6318 86.2331H75.6082ZM99.4349 66.0485C96.4063 66.9159 92.6717 67.5965 88.5069 68.0565C86.8098 62.9061 83.7044 56.7572 78.937 54.4909C86.9367 55.4455 94.2472 59.5353 99.4357 66.0477L99.4349 66.0485ZM71.6668 54.4917C66.9001 56.758 63.7924 62.9061 62.0961 68.0581C57.9321 67.5981 54.1982 66.9183 51.1696 66.05C56.3596 59.5361 63.6686 55.447 71.6676 54.4925L71.6668 54.4917ZM50.7508 66.5862C53.8228 67.4889 57.6357 68.1954 61.8978 68.6727C60.2706 73.8608 59.386 79.9068 59.3578 86.2331H44.0583C44.1236 79.0213 46.434 72.239 50.7508 66.5862ZM44.0583 86.8666H59.3578C59.3867 93.1929 60.2714 99.2374 61.8978 104.425C57.6418 104.902 53.8334 105.608 50.7645 106.509C46.624 101.09 44.1274 94.2731 44.0583 86.8674V86.8666ZM51.1833 107.045C54.2088 106.179 57.9382 105.501 62.0954 105.041C63.7902 110.19 66.8955 116.335 71.6577 118.604C63.4428 117.614 56.1902 113.32 51.1833 107.045ZM78.9446 118.604C83.7067 116.334 86.8128 110.189 88.5076 105.04C92.6648 105.499 96.3942 106.178 99.4205 107.044C94.4136 113.319 87.1602 117.613 78.9446 118.603V118.604ZM99.84 106.507C96.7704 105.607 92.9612 104.901 88.7052 104.425C90.3316 99.2366 91.2163 93.1921 91.2452 86.8666H106.546C106.477 94.2723 103.98 101.089 99.84 106.507Z" fill="black"/>
<path d="M37.7562 46.4211H6.01562V79.2051H37.7562V46.4211Z" fill="white"/>
<path d="M37.9943 46.421C37.9943 46.286 37.8871 46.1746 37.7564 46.1746H4.31335C4.18187 46.1746 4.07471 46.2852 4.07471 46.421V79.205C4.07471 79.3408 4.18187 79.4515 4.31335 79.4515H37.7556C37.8863 79.4515 37.9935 79.3408 37.9935 79.205V46.421H37.9943ZM37.5177 78.9593H6.25439V46.6668H37.5177V78.9593Z" fill="black"/>
<path d="M27.699 59.1121C27.5273 59.0336 27.354 59.0219 27.186 59.0642C27.2392 57.7054 27.2157 56.5601 27.186 56.0663C26.9801 52.6006 25.1447 50.6655 21.7399 50.6655C18.3351 50.6655 16.1166 53.0009 15.9798 56.3968C15.9601 56.8882 15.9814 57.8757 16.071 59.0595C15.9084 59.0218 15.7427 59.0375 15.577 59.1129C14.4264 59.6326 15.1112 62.1776 16.4723 62.355C16.7573 63.9721 17.0081 65.1221 18.0759 66.2242C18.161 67.0375 18.3548 69.7159 17.3197 70.53C18.2234 72.005 20.4623 72.6557 21.9914 73.98C23.0843 72.9438 25.3233 71.9696 26.2733 70.53C25.0565 69.7269 25.1675 67.375 25.2594 66.4699C26.3333 65.389 26.6639 63.8991 26.8942 62.3612C28.0129 62.2906 28.9188 59.664 27.6983 59.1121H27.699Z" fill="#FFD997"/>
<path d="M19.8743 64.0522C21.2104 64.2437 22.4963 64.3246 23.5345 63.896C23.5345 63.896 22.4028 65.9982 21.3396 65.5704C20.4253 65.2022 19.8735 64.053 19.8735 64.053L19.8743 64.0522Z" fill="white"/>
<path d="M20.6111 60.0739C21.0443 58.6962 20.792 58.2479 21.1165 58.2786C21.21 58.2872 21.2791 58.3735 21.27 58.4701C21.1971 59.2221 21.0504 59.8187 20.9349 60.1845C20.7319 60.8251 21.8172 61.3479 22.5385 60.38C22.676 60.1955 22.9451 60.4075 22.809 60.5927C21.8826 61.855 20.2805 61.1242 20.6111 60.0739Z" fill="black"/>
<path d="M23.8227 63.5756C22.4486 64.2562 20.3882 64.0662 19.4299 63.7216C19.2178 63.6463 19.1061 63.9775 19.3189 64.0537C19.4268 64.0921 19.5598 64.1322 19.7118 64.1698C19.8836 64.4948 20.3358 65.0899 20.8761 65.5169C21.9728 66.3796 22.9882 65.166 23.7527 63.9901C23.8257 63.9595 23.8971 63.9273 23.9678 63.892C24.1707 63.7915 24.0248 63.4743 23.8211 63.5756H23.8227ZM21.0851 65.2374C20.6679 64.9077 20.3571 64.5176 20.1815 64.268C21.1475 64.436 22.2654 64.4422 23.2124 64.1785C22.6226 65.0177 21.8634 65.8529 21.0851 65.2374Z" fill="black"/>
<path d="M19.1355 58.5833C19.3726 58.5833 19.5649 58.8195 19.5649 59.1108C19.5649 59.402 19.3726 59.6383 19.1355 59.6383C18.8983 59.6383 18.7061 59.402 18.7061 59.1108C18.7061 58.8195 18.8983 58.5833 19.1355 58.5833Z" fill="black"/>
<path d="M24.1545 58.5833C24.3916 58.5833 24.5839 58.8195 24.5839 59.1108C24.5839 59.402 24.3916 59.6383 24.1545 59.6383C23.9174 59.6383 23.7251 59.402 23.7251 59.1108C23.7251 58.8195 23.9174 58.5833 24.1545 58.5833Z" fill="black"/>
<path d="M17.2677 57.2919C17.3224 57.2369 18.6038 55.9597 20.2917 56.638C20.5646 56.7479 20.4042 57.1733 20.1314 57.0634C18.7125 56.4943 17.6234 57.5713 17.5778 57.6176C17.3711 57.8272 17.0602 57.5015 17.2677 57.2927V57.2919Z" fill="black"/>
<path d="M25.7118 57.6177C25.6647 57.5698 24.5748 56.4959 23.1582 57.0635C22.8853 57.1726 22.7257 56.7471 22.9978 56.638C24.6865 55.9613 25.9687 57.2377 26.0234 57.2919C26.2309 57.5007 25.9215 57.8296 25.7118 57.6169V57.6177Z" fill="black"/>
<path d="M37.8579 78.9328L36.9049 76.3886C36.1198 74.1655 34.3171 72.5217 32.0918 71.9926L26.3614 70.3826C25.0739 69.5308 25.403 67.1711 25.4555 66.4803C26.4883 65.4112 26.809 64.0217 27.0446 62.5208C27.6063 62.3991 28.0121 61.797 28.2424 61.2569C28.7896 59.9688 28.2143 58.8556 27.3661 58.8658C27.4094 57.5777 27.3843 56.5132 27.357 56.0571C27.1411 52.4155 25.1986 50.4915 21.7406 50.4915C18.2826 50.4915 15.9555 52.8072 15.8103 56.3915C15.7936 56.8154 15.808 57.7331 15.8871 58.8666C15.0336 58.88 14.5069 60.0127 15.0359 61.2569C15.3421 61.9776 15.8643 62.396 16.3271 62.509C16.6045 64.0311 16.8507 65.1364 17.838 66.2268C17.9657 66.6994 18.2856 69.5049 17.2414 70.3724L11.3742 71.9926C9.14206 72.5233 7.34085 74.1678 6.55425 76.391L5.65213 78.9391C5.61109 79.0545 5.69545 79.1738 5.81097 79.1746C5.98045 79.1738 5.91585 79.2146 6.87269 76.5103C7.61901 74.4002 9.32978 72.8388 11.454 72.3317L15.4356 71.2335C16.3339 74.1145 18.1161 77.0763 18.1344 77.1061C18.1602 77.1493 18.2043 77.1783 18.2514 77.187C18.3555 77.2089 18.088 77.4036 21.7619 74.2636V77.2623C21.7619 77.4939 22.1023 77.4955 22.1023 77.2607V74.4151L25.2966 77.1461C25.381 77.2183 25.498 77.1901 25.5505 77.1037C25.5672 77.0739 27.3334 74.1412 28.2355 71.2735L32.0074 72.3333C34.1271 72.8381 35.8386 74.3994 36.5857 76.5134L37.541 79.0615C37.6208 79.2798 37.9377 79.1487 37.8579 78.9336V78.9328ZM27.3524 59.2191C27.4512 59.2144 27.5439 59.234 27.6313 59.274C28.5851 59.7097 27.9756 61.7593 27.1024 62.1338C27.2377 61.1573 27.3137 60.1422 27.3532 59.2191H27.3524ZM15.9129 59.2191C15.9836 60.1171 16.0938 61.1251 16.2595 62.1189C14.9257 61.5647 14.8253 59.172 15.9129 59.2191ZM17.0347 64.1057C16.2921 61.4328 16.1052 57.5674 16.1508 56.4072C16.2868 53.027 18.4817 50.8431 21.7398 50.8431C24.9979 50.8431 26.8128 52.6526 27.0157 56.0783C27.0773 57.1106 27.1297 61.8551 26.2291 64.5406C25.3863 67.0573 22.9277 67.7285 21.6068 67.7285C20.1119 67.7285 17.6913 66.4693 17.0339 64.1057H17.0347ZM18.2598 66.6444C19.3154 67.588 20.6424 68.0778 21.6083 68.0778C22.5211 68.0778 23.9438 67.7756 25.08 66.8289C24.9888 67.6916 24.9181 69.6667 26.0262 70.5678C24.7806 72.1229 22.8965 72.9063 21.9709 73.7612C20.2555 72.6222 18.5395 71.8599 17.5507 70.5592C18.4703 69.6462 18.3487 67.4914 18.2598 66.6444ZM18.3236 76.7474C17.9353 76.0809 16.53 73.5822 15.7662 71.1425L17.2528 70.7327C18.2461 72.0711 19.9553 72.8663 21.6099 73.9378L18.3236 76.7474ZM25.362 76.7458L22.1867 74.0313C23.1223 73.1583 25.0268 72.4 26.3287 70.7382L27.9065 71.1817C27.1404 73.6066 25.7481 76.0817 25.362 76.7458Z" fill="black"/>
<path d="M16.6904 63.0176C16.6904 63.0176 17.5675 61.968 21.2155 61.9201C24.8642 61.873 26.5727 62.0151 26.6654 63.5411C26.7581 65.0672 25.8803 66.9755 25.0041 67.7385C24.127 68.5016 21.2633 68.741 19.9698 68.5016C18.6778 68.2629 16.6904 66.6411 16.6904 63.0168V63.0176ZM23.9401 65.9841C24.3755 65.6057 24.9585 64.5036 25.0793 63.5129C25.1135 63.2334 24.9296 62.9728 24.6606 62.9218C24.3011 62.8543 23.2918 63.1604 22.3828 63.14C22.1563 63.1353 21.9397 62.7318 21.6715 62.7318C21.3629 62.7318 21.3629 63.1149 21.0194 63.1188C19.792 63.1329 19.0305 62.9328 18.4757 63.0803C18.2119 63.1502 18.047 63.4195 18.0995 63.6974C18.4696 65.6575 19.4173 66.3114 20.0831 66.4229C20.2161 66.4449 20.5155 66.488 21.0232 66.488C22.4178 66.488 23.3032 66.616 23.9416 65.9833L23.9401 65.9841Z" fill="#81F8F8"/>
<path d="M24.6858 62.7467C24.2876 62.6682 23.2616 62.9846 22.3807 62.961C22.3351 62.9595 22.2379 62.8747 22.1664 62.8119C21.4155 62.1517 21.2917 62.9422 21.0135 62.9422C19.7777 62.9587 19.0246 62.7514 18.431 62.9108C18.0822 63.0058 17.8625 63.3661 17.9302 63.7319C18.3831 66.1411 19.6706 66.5351 20.0551 66.5979C20.5134 66.6733 21.0196 66.6772 22.1003 66.6772C22.9264 66.6772 23.5527 66.6066 24.0512 66.116C24.5262 65.6991 25.1167 64.5648 25.2429 63.5325C25.2893 63.1581 25.0438 62.8135 24.6866 62.7467H24.6858ZM24.6296 63.0968C24.8082 63.1322 24.9328 63.3041 24.9093 63.4925C24.8226 64.1974 24.3476 65.4314 23.8232 65.8608C23.3307 66.346 22.6513 66.3373 21.6253 66.3216C20.9861 66.3153 20.5575 66.3271 20.1099 66.2533C19.7808 66.1984 18.6757 65.8506 18.2661 63.6668C18.1597 63.0898 19.0489 63.1934 19.6569 63.2397C21.1511 63.3551 21.2354 63.3378 21.4923 63.034C21.6177 62.8857 21.6641 62.8323 21.9506 63.0851C22.2591 63.3567 22.3161 63.4187 23.8384 63.1746C24.1736 63.122 24.4905 63.0709 24.6303 63.0968H24.6296Z" fill="black"/>
<path d="M26.836 63.5333C26.7288 61.7639 24.6297 61.7026 21.2143 61.7466C17.5321 61.7937 16.5988 62.8582 16.5615 62.9037C16.5357 62.9351 16.5205 62.976 16.5205 63.0184C16.5205 66.7079 18.5649 68.4239 19.939 68.6774C21.1846 68.9051 24.1403 68.7237 25.1131 67.8774C26.0053 67.1003 26.9333 65.1268 26.836 63.534V63.5333ZM24.8934 67.6058C24.0711 68.3218 21.2606 68.5628 19.999 68.3304C18.7481 68.1004 16.8883 66.514 16.861 63.0937C17.0738 62.9053 18.1363 62.1367 21.2181 62.0967C25.0454 62.0473 26.418 62.2601 26.4963 63.5545C26.5867 65.0421 25.7249 66.8836 24.8942 67.6058H24.8934Z" fill="black"/>
<path d="M19.8301 50.6553C19.8301 50.6553 23.165 50.9207 24.4851 49.9363L19.8301 50.6553Z" fill="#81F8F8"/>
<path d="M21.6895 52.2152C22.6889 52.344 25.7805 52.3275 26.7936 51.2214L21.6895 52.2152Z" fill="#81F8F8"/>
<path d="M26.9294 51.1431C26.5562 50.227 25.3311 50.088 24.4966 49.9522C24.8797 49.1068 18.0678 48.6295 17.269 51.1407C13.4706 51.8637 15.5773 59.1132 15.5773 59.1132C16.4042 58.7615 15.9656 59.1171 16.1435 57.2904C16.2917 55.7714 17.706 56.299 19.1128 52.6338C20.024 53.8984 22.2318 53.6394 24.2732 53.5538C24.5848 54.2854 25.0514 54.8938 26.3845 56.0509C27.1825 56.7433 27.1802 57.657 27.1384 58.7325C27.1316 58.9177 27.2433 58.9342 27.6681 59.1155C27.6681 59.1155 29.9002 52.7406 26.9294 51.1423V51.1431Z" fill="#81F8F8"/>
<path d="M27.0582 51.0111C26.6493 50.1107 25.5139 49.9317 24.6817 49.7975H24.6695C24.4066 48.784 18.0591 48.5847 17.1395 50.9844C14.1998 51.6454 14.5593 56.2172 15.4127 59.1617C15.4264 59.2112 15.4606 59.2497 15.5032 59.2709C15.5944 59.3164 15.6271 59.2811 16.0397 59.1037C16.4304 58.9357 16.1811 58.6217 16.3126 57.3044C16.4494 55.9566 17.923 56.167 19.1679 52.9642C20.2463 54.0694 22.5081 53.801 24.1664 53.7311C24.5175 54.4957 25.067 55.1323 26.2762 56.1811C27.0217 56.8311 27.0088 57.715 26.9693 58.7221C26.9625 58.8878 27.0582 59.0424 27.2057 59.1052L27.6039 59.2756C27.7012 59.3172 27.8 59.2489 27.8266 59.168C28.6611 56.5265 29.4157 52.3487 27.059 51.0103L27.0582 51.0111ZM27.5659 58.8784L27.3364 58.7802C27.1661 58.7088 27.7187 56.9724 26.4958 55.9118C24.1695 53.8936 24.5981 53.3677 24.2736 53.3739C22.5507 53.4101 20.1301 53.7366 19.2545 52.523C19.1793 52.4147 19.0091 52.4343 18.9597 52.5638C18.4581 53.8873 17.8759 54.9824 16.6135 56.0312C15.5716 56.8939 16.0724 58.7127 15.9136 58.7779L15.6924 58.8729C14.9735 56.0987 14.5707 51.8306 17.3013 51.311C17.3629 51.2984 17.4138 51.2544 17.4328 51.1932C17.904 49.7072 20.637 49.4874 21.4623 49.4537C23.0143 49.394 24.1254 49.6617 24.3169 49.8399C23.0188 50.7183 19.8747 50.4812 19.8428 50.4789C19.6193 50.4624 19.592 50.8078 19.8169 50.829C20.9934 50.9404 23.411 50.8792 24.5107 50.1288L24.6315 50.1484C25.3923 50.2701 26.3271 50.4176 26.7018 51.0645C25.8217 52.1054 22.8045 52.1807 21.7116 52.0402C21.4874 52.0112 21.4449 52.3605 21.6691 52.3903C23.0348 52.5693 25.9433 52.417 26.9214 51.3361C29.3587 52.7616 27.8866 57.8657 27.5644 58.8776L27.5659 58.8784Z" fill="black"/>
<path d="M94.1977 10.4304H61.1841V44.53H94.1977V10.4304Z" fill="white"/>
<path d="M81.8969 36.3306L87.4571 37.8943C89.5326 38.3889 91.2267 39.9345 91.9571 42.0007L92.8713 44.4412H62.333C62.333 44.4412 63.4875 40.0327 65.4536 38.8756C67.4197 37.7185 74.2407 36.1077 74.2407 36.1077L81.8969 36.3306Z" fill="#81F8F8"/>
<path d="M94.4363 10.4303C94.4363 10.2953 94.3291 10.1846 94.1984 10.1846H59.4139C59.2832 10.1846 59.1753 10.2953 59.1753 10.4303V44.5307C59.1753 44.6657 59.2825 44.7772 59.4139 44.7772H94.1984C94.3291 44.7772 94.4363 44.6665 94.4363 44.5307V10.4303ZM93.9597 44.2843H61.4226V10.6768H93.9597V44.2843Z" fill="black"/>
<path d="M82.8791 25.3712C83.0797 24.1136 83.1891 23.057 83.1618 22.5892C82.9642 19.2694 80.8468 17.303 77.5841 17.303C74.3215 17.303 71.9404 19.6737 71.8089 22.9267C71.7899 23.3899 71.9206 24.2903 72.1327 25.372C71.1675 25.0517 70.6461 26.219 71.1378 27.3753C71.4958 28.2168 72.2413 28.691 72.8037 28.4358L72.8205 28.428C73.259 30.1864 73.4558 31.1567 74.3253 32.1779C74.3465 33.0179 74.3253 35.5644 73.3494 36.3322C75.8536 43.08 79.3253 43.2135 81.9268 36.3322C80.7009 35.522 80.7708 32.9936 80.8225 32.2211C81.6243 31.2281 81.9511 29.8198 82.2665 28.4814C82.8152 28.647 83.4992 28.1799 83.8374 27.3855C84.3291 26.23 83.8093 25.0972 82.8775 25.372L82.8791 25.3712Z" fill="#FFD997"/>
<path d="M75.7754 29.2505C76.8668 29.4444 78.0037 29.4742 79.225 29.2136C79.225 29.2136 77.2095 32.5145 75.7754 29.2505Z" fill="white"/>
<path d="M76.3809 26.8729C76.2281 26.7002 76.4805 26.4647 76.6309 26.6359C77.1462 27.2207 77.8393 27.2474 78.3417 26.5723C78.4793 26.3878 78.7483 26.5998 78.6123 26.785C77.967 27.6634 77.0155 27.5928 76.3801 26.8729H76.3809Z" fill="black"/>
<path d="M79.4603 28.8583C78.1205 29.4581 76.1589 29.1959 75.2553 28.8301C75.0447 28.7461 74.9209 29.0734 75.1314 29.159C75.2332 29.1998 75.3579 29.243 75.5023 29.2846C75.6573 29.6826 76.2927 30.3828 76.567 30.6183C77.5885 31.4857 78.6015 30.3718 79.3821 29.2689C79.4543 29.2422 79.5257 29.2131 79.5964 29.1817C79.7985 29.0915 79.6724 28.7641 79.4619 28.8583H79.4603ZM76.7821 30.3475C76.4021 30.0225 76.1224 29.6457 75.9621 29.4C76.8779 29.5947 77.9236 29.641 78.8333 29.4322C78.239 30.2085 77.4995 30.9551 76.7821 30.3475Z" fill="black"/>
<path d="M75.0892 24.3955C75.3164 24.3955 75.5011 24.6216 75.5011 24.9003C75.5011 25.1789 75.3164 25.405 75.0892 25.405C74.8619 25.405 74.6772 25.1789 74.6772 24.9003C74.6772 24.6216 74.8619 24.3955 75.0892 24.3955Z" fill="black"/>
<path d="M79.8968 24.3955C80.124 24.3955 80.3087 24.6216 80.3087 24.9003C80.3087 25.1789 80.124 25.405 79.8968 25.405C79.6695 25.405 79.4849 25.1789 79.4849 24.9003C79.4849 24.6216 79.6695 24.3955 79.8968 24.3955Z" fill="black"/>
<path d="M80.8349 24.8382C80.6996 24.8382 79.9974 24.2008 79.109 24.7416C78.9129 24.861 78.7426 24.5564 78.9349 24.4394C79.5505 24.065 80.2566 24.0869 80.9238 24.5116C81.0713 24.6058 81.0044 24.839 80.8349 24.839V24.8382Z" fill="black"/>
<path d="M74.1421 24.8382C73.9688 24.8382 73.9064 24.6035 74.0516 24.5109C74.7204 24.0862 75.4272 24.0618 76.0405 24.4386C76.2351 24.558 76.0588 24.8594 75.8665 24.7409C74.9826 24.1969 74.2644 24.8374 74.1421 24.8374V24.8382Z" fill="black"/>
<path d="M81.3152 17.2691L81.3319 17.2706C82.8329 14.6362 80.7718 11.4075 77.4772 11.4075C74.2023 11.4075 72.1139 14.6158 73.624 17.2738H73.6567C72.1792 18.3445 70.2967 20.6202 71.6358 24.579C71.686 24.7266 71.8912 24.7203 71.9337 24.5704C72.8647 21.2922 75.2777 21.5293 75.356 18.1655C75.3598 17.9913 75.676 17.8853 75.7831 18.1129C77.4133 21.5764 80.9671 20.8856 83.1346 23.6543C83.2175 23.7602 83.3771 23.7171 83.409 23.593C84.131 20.7694 83.0259 18.602 81.3152 17.2691Z" fill="black"/>
<path d="M73.2925 23.1504C73.3441 23.0978 74.5761 21.87 76.2002 22.5208C76.4731 22.6299 76.3128 23.0562 76.0399 22.9463C74.6879 22.403 73.6459 23.4314 73.6033 23.4754C73.4019 23.6834 73.0819 23.3639 73.2917 23.1504H73.2925Z" fill="black"/>
<path d="M81.3812 23.4754C81.334 23.4275 80.2936 22.4046 78.9446 22.9463C78.6718 23.0562 78.5122 22.6299 78.785 22.5208C80.4076 21.87 81.6403 23.0978 81.6928 23.1504C81.901 23.36 81.5902 23.6881 81.3812 23.4754Z" fill="black"/>
<path d="M93.0299 44.3792L92.1172 41.9418C91.3633 39.8105 89.635 38.2327 87.5017 37.7248L82.0213 36.1846C80.7217 35.3258 80.9581 32.5202 80.9794 32.2981C81.7386 31.3435 82.0381 30.1731 82.3983 28.6808C82.6719 28.7082 82.9364 28.6188 83.1689 28.472C84.5727 27.5818 84.5164 25.0706 83.0891 25.1538C83.2655 23.9998 83.3589 23.039 83.3323 22.579C83.1294 19.1658 80.8943 17.1279 77.5845 17.1279C74.2747 17.1279 71.7758 19.5654 71.639 22.922C71.6223 23.353 71.7325 24.1631 71.9194 25.1569C70.4633 25.0227 70.3857 27.5661 71.8047 28.472C72.0775 28.6447 72.3914 28.7349 72.703 28.6596C73.086 30.1793 73.2753 31.1684 74.1439 32.2282C74.1553 32.4252 74.3013 35.3093 73.276 36.1705L67.652 37.724C65.5119 38.2342 63.7836 39.8113 63.0297 41.9426L62.1648 44.3831C62.1238 44.4985 62.2081 44.6186 62.3252 44.6186C62.4886 44.6186 62.4232 44.6736 63.3481 42.0595C64.0625 40.0413 65.6996 38.5459 67.7326 38.0623L73.2471 36.541C75.8106 43.321 79.4176 43.3124 82.0267 36.5512L87.4189 38.0654C89.4465 38.5474 91.0661 40.0491 91.7995 42.0642C92.7503 44.6767 92.7085 44.6178 92.8719 44.6178C92.9889 44.6178 93.0733 44.4946 93.0299 44.3784V44.3792ZM83.6797 27.3109C83.4638 27.8196 82.9926 28.3448 82.4804 28.333C82.6993 27.3879 82.8885 26.4035 83.0329 25.5109C83.821 25.3948 84.0445 26.4553 83.6797 27.3109ZM71.9833 28.1705C70.8075 27.4216 70.86 25.2786 71.9893 25.5157C72.1596 26.3768 72.3785 27.3478 72.6179 28.3165C72.4241 28.3597 72.2029 28.3095 71.9833 28.1697V28.1705ZM73.4561 30.1738C72.6969 27.4413 71.9377 23.9873 71.9802 22.9354C72.1079 19.7734 74.4662 17.4788 77.5852 17.4788C80.781 17.4788 82.8019 19.3934 82.9926 22.6017C83.0572 23.7117 82.3489 28.0779 81.5061 30.5907C80.7537 32.8381 78.9213 33.6381 77.4575 33.6381C76.1959 33.6381 74.1204 32.5634 73.4569 30.1738H73.4561ZM73.5549 36.3871C74.4396 35.5534 74.5125 33.5132 74.4996 32.6199C75.3835 33.5022 76.4977 33.9905 77.4568 33.9905C78.4835 33.9905 79.6798 33.6255 80.6131 32.7063C80.5804 33.6027 80.6419 35.5574 81.7211 36.3981C79.1273 43.1311 75.9117 42.6341 73.5542 36.3879L73.5549 36.3871Z" fill="black"/>
<path d="M148.236 45.783H116.489V78.574H148.236V45.783Z" fill="white"/>
<path d="M148.475 45.7829C148.475 45.6478 148.367 45.5364 148.236 45.5364H114.786C114.655 45.5364 114.547 45.6471 114.547 45.7829V78.5739C114.547 78.7089 114.655 78.8204 114.786 78.8204H148.236C148.367 78.8204 148.475 78.7097 148.475 78.5739V45.7829ZM147.998 78.3282H116.728V46.0286H147.998V78.3282Z" fill="black"/>
<path d="M142.349 67.1873C142.261 67.6936 141.432 68.1277 140.15 68.4692C140.077 68.4888 139.998 68.4574 139.956 68.3915C138.806 66.593 138.856 66.5742 138.78 66.5891C138.702 66.604 138.741 66.5938 138.41 68.6639C138.393 68.7714 138.312 68.8538 138.207 68.8711C134.951 69.4096 130.375 69.5533 126.794 69.1702C126.698 69.16 126.622 69.0838 126.61 68.9873L126.331 66.889C126.323 66.8223 126.233 66.8058 126.202 66.8646C125.093 68.9669 125.129 68.948 124.976 68.9221C122.95 68.5783 121.504 67.9888 121.242 67.1567C120.857 65.9344 122.496 64.3589 124.129 55.9265C125.477 48.9659 131.085 50.9519 131.085 50.9519C131.085 50.9519 133.348 49.4063 136.365 51.2581C138.526 52.5839 139.902 55.8519 140.816 59.0994C141.797 62.5872 142.546 66.0687 142.349 67.1865V67.1873Z" fill="black"/>
<path d="M137.623 60.2934C137.817 59.0821 137.922 58.064 137.895 57.6142C137.706 54.4208 135.669 52.5305 132.533 52.5305C129.397 52.5305 127.106 54.8133 126.981 57.9415C126.963 58.3858 127.087 59.2485 127.29 60.2863C126.361 59.9802 125.863 61.1027 126.336 62.2135C126.68 63.022 127.397 63.4797 127.938 63.234L127.951 63.2269C128.371 64.9068 128.559 65.8473 129.399 66.834C129.415 67.7564 129.364 70.1208 128.462 70.8312C130.87 77.32 134.209 77.4464 136.71 70.8312C135.634 70.1216 135.578 67.9087 135.608 66.9243C136.404 65.9689 136.715 64.6454 137.036 63.2827C137.565 63.4452 138.224 62.9953 138.55 62.2292C139.024 61.1168 138.523 60.0249 137.624 60.2934H137.623Z" fill="#FFD997"/>
<path d="M130.723 64.5515C131.879 64.7046 133.025 64.7132 134.159 64.4973C134.159 64.4973 133.126 66.408 131.939 65.9535C130.987 65.5893 130.723 64.5523 130.723 64.5523V64.5515Z" fill="white"/>
<path d="M131.476 62.1751C131.335 61.9954 131.599 61.7717 131.742 61.9538C132.171 62.5001 132.724 62.5308 133.138 61.8941C133.264 61.701 133.547 61.898 133.421 62.0912C132.858 62.9515 132.03 62.8809 131.476 62.1751Z" fill="black"/>
<path d="M134.334 64.2068C133.048 64.7838 131.164 64.5318 130.295 64.1801C130.082 64.0953 129.962 64.4242 130.17 64.509C130.268 64.5483 130.387 64.5891 130.524 64.6299C130.676 65.0169 131.281 65.6849 131.549 65.9142C132.513 66.7368 133.438 65.6661 134.166 64.648C134.268 64.6126 134.369 64.5742 134.467 64.5302C134.669 64.4399 134.543 64.1134 134.332 64.2068H134.334ZM131.766 65.6433C131.408 65.3364 131.143 64.9816 130.987 64.7453C131.831 64.9235 132.776 64.9706 133.631 64.7948C133.08 65.513 132.425 66.2093 131.766 65.6441L131.766 65.6433Z" fill="black"/>
<path d="M132.372 52.1021C129.691 52.1068 128.034 51.9067 126.769 54.9619C126.253 56.2069 126.136 57.8577 126.984 59.9843C127.796 56.3458 130.314 56.7477 130.393 53.3636C130.396 53.1901 130.7 53.0959 130.802 53.3126C132.406 56.7454 135.999 55.9274 138.051 58.8869C138.44 57.5806 138.427 56.4149 138.137 55.4078C137.177 52.0731 135.647 52.0966 132.373 52.1021H132.372Z" fill="black"/>
<path d="M129.069 57.6857C128.905 57.6857 128.835 57.4581 128.977 57.3623C129.026 57.3285 130.202 56.5593 131.444 57.3058C131.639 57.4228 131.468 57.7273 131.272 57.6104C130.166 56.9463 129.179 57.6857 129.069 57.6857Z" fill="black"/>
<path d="M135.769 57.7312C135.729 57.7006 134.754 56.9941 133.663 57.5711C133.463 57.677 133.306 57.3662 133.507 57.2579C134.783 56.5702 135.92 57.4109 135.968 57.4463C136.152 57.5821 135.947 57.867 135.769 57.7312Z" fill="black"/>
<path d="M147.394 78.5669L146.515 76.2229C145.788 74.1709 144.126 72.6535 142.071 72.1645L136.804 70.6839C135.818 69.9767 135.684 68.1798 135.801 66.9544C136.531 66.0367 136.82 64.9079 137.166 63.4784C137.802 63.5349 138.414 62.9666 138.699 62.2939C139.211 61.0944 138.676 60.0331 137.834 60.0747C138.003 58.967 138.093 58.0454 138.066 57.6043C137.872 54.3175 135.719 52.355 132.533 52.355C129.347 52.355 126.941 54.7006 126.811 57.9332C126.793 58.3642 126.902 59.1476 127.077 60.077C126.114 59.9962 125.719 61.2121 126.179 62.2931C126.474 62.9878 127.145 63.6142 127.836 63.4596C128.198 64.9016 128.382 65.8625 129.218 66.8838C129.228 67.0682 129.371 69.8526 128.381 70.6737L122.979 72.1637C120.919 72.6543 119.256 74.1717 118.53 76.2237L117.7 78.5716C117.659 78.6862 117.742 78.8063 117.859 78.8071C118.024 78.8063 117.965 78.8385 118.849 76.343C119.535 74.4048 121.106 72.9699 123.061 72.5044L128.359 71.0427C130.826 77.559 134.297 77.5496 136.807 71.0498L141.989 72.5059C143.937 72.9683 145.491 74.4103 146.196 76.3469C147.107 78.8503 147.069 78.8071 147.234 78.8071C147.353 78.8071 147.438 78.6847 147.394 78.5677L147.394 78.5669ZM138.385 62.151C138.136 62.739 137.657 63.1315 137.247 63.1315C137.456 62.2256 137.638 61.2836 137.777 60.4279C138.514 60.3259 138.743 61.3103 138.385 62.1518L138.385 62.151ZM126.49 62.151C126.137 61.3158 126.361 60.2678 127.147 60.4397C127.316 61.2875 127.53 62.2279 127.75 63.1197C127.312 63.2147 126.769 62.8104 126.489 62.151H126.49ZM128.569 64.9048C127.838 62.2774 127.108 58.9576 127.149 57.9465C127.271 54.9094 129.536 52.7059 132.532 52.7059C135.6 52.7059 137.543 54.5467 137.725 57.6263C137.788 58.6923 137.107 62.8897 136.296 65.3059C135.574 67.4639 133.814 68.2324 132.41 68.2324C131.197 68.2324 129.205 67.2001 128.569 64.9056V64.9048ZM128.664 70.8841C129.509 70.0826 129.582 68.1398 129.571 67.2739C130.421 68.1178 131.489 68.5841 132.41 68.5841C133.394 68.5841 134.538 68.2355 135.436 67.3595C135.405 68.2292 135.471 70.0881 136.501 70.8951C134.009 77.3564 130.927 76.8807 128.664 70.8849L128.664 70.8841Z" fill="black"/>
<path d="M129.912 58.3052C130.842 58.3052 131.596 59.0839 131.596 60.0447C131.596 61.0056 130.842 61.7835 129.912 61.7835C128.983 61.7835 128.228 61.0048 128.228 60.0447C128.228 59.0847 128.982 58.3052 129.912 58.3052Z" fill="white"/>
<path d="M135.021 58.3052C135.951 58.3052 136.705 59.0839 136.705 60.0447C136.705 61.0056 135.951 61.7835 135.021 61.7835C134.091 61.7835 133.337 61.0048 133.337 60.0447C133.337 59.0847 134.091 58.3052 135.021 58.3052Z" fill="white"/>
<path d="M137.815 59.7317L136.912 59.8008C136.795 58.8305 135.992 58.0769 135.021 58.0769C134.094 58.0769 133.32 58.7654 133.151 59.6728C132.696 59.4577 132.238 59.4585 131.783 59.6752C131.615 58.7661 130.841 58.0769 129.912 58.0769C128.94 58.0769 128.137 58.8329 128.022 59.8055L126.996 59.7544C126.7 59.7458 126.685 60.1948 126.975 60.2113L128.019 60.2631C128.124 61.2452 128.933 62.0121 129.912 62.0121C130.92 62.0121 131.747 61.1989 131.813 60.1744C132.251 59.9067 132.681 59.9067 133.121 60.1736C133.185 61.1989 134.013 62.0129 135.021 62.0129C136.002 62.0129 136.811 61.2436 136.915 60.2592L137.848 60.1878C138.134 60.1674 138.112 59.7152 137.816 59.7325L137.815 59.7317ZM129.912 61.5552C129.105 61.5552 128.45 60.8778 128.45 60.0449C128.45 59.212 129.105 58.5346 129.912 58.5346C130.719 58.5346 131.374 59.2112 131.374 60.0449C131.374 60.8786 130.718 61.5552 129.912 61.5552ZM135.021 61.5552C134.214 61.5552 133.559 60.8778 133.559 60.0449C133.559 59.212 134.214 58.5346 135.021 58.5346C135.829 58.5346 136.484 59.2112 136.484 60.0449C136.484 60.8786 135.829 61.5552 135.021 61.5552Z" fill="black"/>
<path d="M140.913 110.746H108.037V144.704H140.913V110.746Z" fill="white"/>
<path d="M140.868 144.178C140.984 144.407 140.827 144.702 140.56 144.702C108.092 144.702 108.18 144.764 108.071 144.597C107.977 144.454 107.996 144.507 108.66 142.863H140.204L140.868 144.178L140.868 144.178Z" fill="#81F8F8"/>
<path d="M138.973 140.015C139.029 140.163 139.235 140.564 139.114 140.564L109.876 140.645C109.8 140.645 109.617 140.425 109.846 140.057C110.074 139.692 111.896 138.153 111.896 138.153L136.819 138.102L138.973 140.015Z" fill="#81F8F8"/>
<path d="M141.151 110.746C141.151 110.611 141.043 110.5 140.912 110.5H106.272C106.141 110.5 106.033 110.61 106.033 110.746V144.704C106.033 144.839 106.14 144.95 106.272 144.95H140.912C141.043 144.95 141.151 144.84 141.151 144.704V110.746ZM140.674 144.457H108.274V110.993H140.674V144.457Z" fill="black"/>
<path d="M130.795 123.992C130.644 123.924 130.482 123.904 130.316 123.927C130.447 122.579 130.492 121.45 130.462 120.947C130.249 117.357 127.958 115.232 124.431 115.232C120.905 115.232 118.329 117.796 118.188 121.313C118.168 121.808 118.236 122.762 118.379 123.911C117.405 123.745 116.978 124.97 117.466 126.118C117.787 126.872 118.397 127.354 118.943 127.339C119.319 129.153 119.522 130.168 120.691 131.296C120.754 132.581 120.935 134.956 119.853 135.809C122.56 143.105 126.315 143.248 129.127 135.809C127.983 135.053 127.979 132.713 128.063 131.492C128.568 131.016 128.995 130.415 129.247 129.661C129.475 128.982 129.668 128.186 129.829 127.356C131.242 127.225 132.011 124.545 130.794 123.992H130.795Z" fill="#FFD997"/>
<path d="M122.407 128.773C123.724 128.982 124.99 128.979 126.192 128.699C126.192 128.699 124.748 130.908 123.747 130.375C123.018 129.987 122.407 128.773 122.407 128.773Z" fill="white"/>
<path d="M123.141 125.862C122.987 125.689 123.242 125.456 123.391 125.625C123.956 126.266 124.715 126.29 125.262 125.554C125.4 125.37 125.669 125.582 125.533 125.767C124.84 126.711 123.816 126.629 123.141 125.862Z" fill="black"/>
<path d="M126.466 128.38C125.014 129.031 122.888 128.746 121.909 128.351C121.697 128.267 121.575 128.595 121.784 128.679C121.895 128.724 122.032 128.771 122.189 128.818C122.346 129.238 123.051 130.015 123.34 130.263C124.442 131.203 125.539 129.974 126.369 128.8C126.447 128.771 126.524 128.739 126.6 128.705C126.805 128.614 126.675 128.289 126.466 128.382L126.466 128.38ZM123.556 129.991C123.129 129.625 122.818 129.198 122.647 128.933C123.655 129.152 124.817 129.205 125.82 128.965C125.171 129.819 124.347 130.667 123.556 129.991Z" fill="black"/>
<path d="M121.733 122.901C121.979 122.901 122.178 123.145 122.178 123.446C122.178 123.747 121.979 123.991 121.733 123.991C121.488 123.991 121.289 123.747 121.289 123.446C121.289 123.145 121.488 122.901 121.733 122.901Z" fill="black"/>
<path d="M126.932 122.901C127.178 122.901 127.377 123.145 127.377 123.446C127.377 123.747 127.178 123.991 126.932 123.991C126.687 123.991 126.488 123.747 126.488 123.446C126.488 123.145 126.687 122.901 126.932 122.901Z" fill="black"/>
<path d="M119.804 121.567C119.86 121.51 121.185 120.19 122.928 120.889C123.201 120.998 123.041 121.425 122.768 121.315C121.287 120.72 120.126 121.879 120.116 121.892C119.915 122.099 119.591 121.782 119.804 121.567Z" fill="black"/>
<path d="M128.549 121.893C128.502 121.845 127.368 120.726 125.895 121.316C125.623 121.425 125.463 121 125.735 120.891C127.479 120.191 128.803 121.511 128.859 121.567C129.067 121.776 128.758 122.104 128.549 121.892V121.893Z" fill="black"/>
<path d="M129.804 115.723C130.498 115.176 130.599 114.299 130.038 113.229C129.076 114.138 128.151 114.633 127.287 114.491C127.683 113.615 127.702 112.764 127.185 111.945C125.598 113.441 120.628 113.122 119.801 115.722C115.868 116.471 117.863 123.98 117.863 123.98L118.42 123.741C118.385 123.136 118.399 122.582 118.45 122.076C118.496 121.622 118.714 121.205 119.058 120.917C120.694 119.548 121.44 117.967 121.709 117.265C123.003 117.821 125.443 117.921 127.009 117.509C127.331 118.265 128.044 119.602 129.421 120.799C130.26 121.528 130.267 122.52 130.2 123.741L130.756 123.98C130.756 123.98 132.882 117.379 129.804 115.722V115.723Z" fill="black"/>
<path d="M141.122 144.514L140.135 141.878C139.321 139.578 137.456 137.875 135.153 137.327L129.213 135.657C127.876 134.763 128.23 131.958 128.296 131.506C129.338 130.458 129.628 129.264 129.979 127.497C131.708 127.113 132.199 123.844 130.506 123.735C130.624 122.448 130.66 121.393 130.633 120.937C130.415 117.255 128.003 115.057 124.432 115.057C120.862 115.057 118.165 117.686 118.019 121.308C118 121.797 118.06 122.677 118.185 123.732C116.375 123.781 116.988 127.331 118.807 127.519C119.169 129.229 119.371 130.218 120.506 131.349C120.658 132.537 120.687 134.891 119.774 135.649L113.697 137.326C111.387 137.877 109.522 139.577 108.709 141.877L107.774 144.516C107.733 144.632 107.817 144.752 107.933 144.752C108.098 144.752 108.056 144.745 108.696 142.937H140.166L140.804 144.639C140.883 144.856 141.204 144.73 141.123 144.512L141.122 144.514ZM138.965 140.341H126.776C127.272 139.82 127.753 139.129 128.213 138.273H136.656C137.573 138.767 138.362 139.474 138.965 140.341ZM129.229 136.026C129.229 136.026 135.623 137.82 135.889 137.921H128.396C128.683 137.354 128.96 136.722 129.229 136.026ZM130.052 127.117C130.239 126.095 130.378 125.038 130.473 124.084C131.69 124.136 131.344 126.642 130.052 127.117ZM117.617 126.058C117.249 125.188 117.423 124.083 118.213 124.083H118.228C118.35 125.039 118.521 126.11 118.731 127.155C118.31 127.062 117.87 126.651 117.617 126.058V126.058ZM119.553 129.154C118.788 126.401 118.31 122.566 118.36 121.323C118.497 117.896 121.052 115.409 124.433 115.409C127.895 115.409 130.087 117.482 130.293 120.959C130.369 122.234 129.981 126.94 129.089 129.604C128.177 132.323 125.026 132.91 124.295 132.91C123.434 132.91 120.272 131.739 119.553 129.154ZM120.884 131.697C122.092 132.724 123.586 133.261 124.295 133.261C125.103 133.261 126.674 132.875 127.908 131.859C127.811 132.82 127.743 134.965 128.921 135.876C126.201 142.949 122.699 142.877 120.058 135.863C121.043 134.938 120.96 132.613 120.884 131.696L120.884 131.697ZM119.75 136.019C120.014 136.718 120.288 137.352 120.572 137.921H112.958C113.335 137.778 113.248 137.815 119.75 136.019ZM112.227 138.253C112.303 138.294 112.239 138.273 120.752 138.273C121.207 139.129 121.683 139.82 122.177 140.341H109.877C110.488 139.462 111.293 138.747 112.227 138.252V138.253ZM108.819 142.587C109.068 141.884 109.22 141.395 109.647 140.692H122.544C123.798 141.784 125.153 141.782 126.41 140.692H139.195C139.598 141.353 139.741 141.801 140.035 142.587H108.819Z" fill="black"/>
<path d="M46.9305 113.458H14.7681V146.678H46.9305V113.458Z" fill="white"/>
<path d="M47.1688 113.456C47.1688 113.321 47.0617 113.209 46.9302 113.209H13.0433C12.9126 113.209 12.8047 113.32 12.8047 113.456V146.678C12.8047 146.813 12.9118 146.924 13.0433 146.924H46.931C47.0617 146.924 47.1696 146.814 47.1696 146.678V113.456H47.1688ZM46.6923 146.432H15.0064V113.704H46.6923V146.432Z" fill="black"/>
<path d="M38.5988 134.537C38.7349 134.393 38.7805 134.5 36.7498 124.366C36.7163 124.199 37.1837 124.456 30.8126 121.136C30.7275 121.092 30.6257 121.104 30.552 121.166L24.3291 126.471C24.266 126.524 24.2341 126.609 24.244 126.691C25.3262 135.573 25.2122 137.471 26.4791 137.471C27.1456 137.471 26.8842 135.925 30.9639 136.085C33.934 136.121 34.1886 136.873 35.0854 137.079C35.9449 137.275 37.9916 135.183 38.5973 134.538L38.5988 134.537Z" fill="black"/>
<path d="M33.2337 136.621C33.0596 135.649 33.0771 134.24 33.0999 133.539C34.1305 132.118 34.9034 127.947 34.7605 125.038C34.6123 122.023 33.7079 120.439 30.5311 120.439C27.3543 120.439 26.554 122.355 26.4263 125.523C26.3268 127.933 26.5373 131.828 27.9973 133.711C28.0284 134.419 28.0816 136.115 27.9334 137.108C27.8042 137.98 27.7305 138.59 26.532 138.831C28.9716 145.405 32.3528 145.534 34.8882 138.831C33.6539 138.563 33.4206 137.658 33.2337 136.62V136.621Z" fill="#FFD997"/>
<path d="M29.0693 131.943C30.0125 132.098 30.9982 132.122 32.0539 131.914C32.0539 131.914 30.3104 134.557 29.0693 131.943Z" fill="white"/>
<path d="M29.744 129.866C29.5722 129.716 29.7918 129.446 29.9636 129.597C30.3398 129.928 30.8361 129.913 31.1705 129.566C31.3301 129.4 31.5687 129.651 31.4106 129.814C30.9273 130.308 30.2517 130.314 29.744 129.866Z" fill="black"/>
<path d="M32.2533 131.597C31.0989 132.075 29.4049 131.867 28.6251 131.574C28.4154 131.495 28.296 131.824 28.5096 131.905C28.5955 131.937 28.7004 131.97 28.8204 132.003C28.9762 132.348 29.4976 132.875 29.7454 133.071C30.6353 133.779 31.5238 132.86 32.2047 131.991C32.2632 131.97 32.3218 131.948 32.3788 131.925C32.5908 131.836 32.4586 131.51 32.2526 131.597H32.2533ZM29.3023 132.112C30.044 132.25 30.8975 132.285 31.6385 132.142C30.6726 133.272 30.1223 133.218 29.3023 132.112Z" fill="black"/>
<path d="M28.6097 127.39C29.0536 127.39 29.0536 128.186 28.6097 128.186C28.1659 128.186 28.1659 127.39 28.6097 127.39Z" fill="black"/>
<path d="M32.5301 127.39C32.974 127.39 32.974 128.186 32.5301 128.186C32.0863 128.186 32.0863 127.39 32.5301 127.39Z" fill="black"/>
<path d="M27.2563 126.46C27.2662 126.449 28.2367 125.375 29.5257 126.014C29.7294 126.115 29.5797 126.43 29.379 126.33C28.3257 125.802 27.5421 126.66 27.5079 126.697C27.3529 126.866 27.1005 126.627 27.2556 126.46H27.2563Z" fill="black"/>
<path d="M33.6341 126.697C33.5991 126.658 32.789 125.783 31.5981 126.432C31.3997 126.539 31.2393 126.23 31.44 126.121C32.8665 125.345 33.8743 126.448 33.8834 126.459C34.0354 126.64 33.7785 126.858 33.6349 126.698L33.6341 126.697Z" fill="black"/>
<path d="M27.8449 127.839C27.6723 127.839 27.61 127.61 27.7514 127.516C28.1587 127.243 28.8017 126.997 29.5442 127.366C29.7479 127.468 29.5982 127.783 29.3975 127.683C28.5562 127.261 27.9771 127.839 27.8449 127.839Z" fill="black"/>
<path d="M33.2831 127.893C32.9266 127.613 32.3574 127.357 31.7045 127.681C31.5016 127.781 31.3557 127.465 31.5579 127.364C32.1856 127.053 32.8734 127.14 33.4868 127.612C33.6699 127.754 33.4594 128.033 33.2823 127.893H33.2831Z" fill="black"/>
<path d="M45.7149 146.673L44.8249 144.298C44.0892 142.219 42.4058 140.682 40.3249 140.187L35.0452 138.702C34.1005 138.437 33.6939 138.216 33.4044 136.592C33.2379 135.662 33.2509 134.306 33.2721 133.597C33.4667 133.319 33.6286 133.013 33.7418 132.682C34.4532 130.593 35.0885 128.22 34.932 125.03C34.7906 122.169 33.9052 120.264 30.5323 120.264C27.1595 120.264 26.385 122.364 26.2573 125.517C26.1585 127.958 26.3729 131.853 27.8321 133.777C27.8769 134.842 27.9027 136.135 27.7629 137.121C27.6443 137.958 27.5691 138.424 26.575 138.645L20.9837 140.187C18.896 140.683 17.2126 142.22 16.4769 144.298L15.6341 146.676C15.593 146.791 15.6774 146.911 15.7944 146.911C15.9548 146.911 15.8925 146.977 16.7969 144.42C17.4923 142.454 19.0852 140.999 21.065 140.528L26.4329 139.046C28.9341 145.65 32.4475 145.638 34.9913 139.052L40.2406 140.528C42.2158 140.998 43.7913 142.459 44.5057 144.422C45.4306 146.963 45.3911 146.912 45.5545 146.912C45.686 146.912 45.7567 146.783 45.7164 146.675L45.7149 146.673ZM27.2051 131.717C26.7149 129.951 26.5036 127.813 26.5955 125.53C26.7179 122.497 27.4194 120.615 30.5316 120.615C32.9035 120.615 34.4099 121.354 34.5923 125.043C34.7458 128.173 34.1203 130.506 33.4211 132.561C32.9089 134.07 31.2369 135.033 30.3515 135.002C29.4151 134.974 27.8214 133.936 27.2051 131.717ZM26.7658 138.96C27.8777 138.67 27.9818 138.006 28.0988 137.175C28.2303 136.243 28.2174 135.138 28.1877 134.196C28.9143 134.961 29.7457 135.346 30.3408 135.354C30.7239 135.36 31.8646 135.173 32.9195 134.031C32.9089 134.788 32.9263 135.857 33.0685 136.654C33.2592 137.713 33.5131 138.62 34.6599 138.954C32.2211 145.234 29.1218 145.136 26.765 138.959L26.7658 138.96Z" fill="black"/>
<path d="M23.7116 131.706C23.7116 131.706 23.6211 135.694 24.2952 137.409L23.7116 131.706Z" fill="#81F8F8"/>
<path d="M31.2264 119.101C28.821 118.716 28.5991 119.786 27.2258 120.309C26.1671 120.712 23.6401 123.196 22.2797 128.085C21.5303 130.778 21.142 134.625 21.9544 136.305C22.7661 137.982 25.9095 137.55 26.6467 137.269C25.9026 134.963 26.0979 131.038 26.0812 128.08C26.0675 125.63 28.4144 124.413 28.4904 121.134C28.4942 120.959 28.802 120.863 28.9038 121.083C30.4755 124.465 35.0637 123.779 35.1229 127.681C35.167 130.602 35.2118 134.657 34.9512 136.89C37.216 137.536 39.5872 136.885 39.5978 136.306C39.8152 124.005 35.0842 119.719 31.2264 119.101Z" fill="#81F8F8"/>
<path d="M24.7522 137.709C23.6016 137.709 22.3111 137.426 21.8049 136.382C20.9758 134.671 21.3489 130.804 22.1181 128.036C23.521 122.991 26.1278 120.54 27.1675 120.143C28.5066 119.633 28.7855 118.528 31.2571 118.923C33.5507 119.289 35.6225 120.817 37.0901 123.224C38.9695 126.306 39.8853 130.709 39.7736 136.303C39.7561 137.179 36.9806 137.639 34.9111 137.052C34.8298 137.029 34.7766 136.949 34.7865 136.862C35.0305 134.796 35.0107 131.226 34.9567 127.678C34.899 123.872 30.2919 124.59 28.7544 121.154C28.7407 121.123 28.7012 121.11 28.6624 121.15C28.5773 122.906 27.8918 124.098 27.2868 125.151C26.083 127.248 26.2692 127.357 26.2502 129.769C26.2297 132.384 26.2122 135.349 26.8118 137.208C26.8407 137.297 26.7943 137.395 26.71 137.427C26.3877 137.549 25.6087 137.708 24.7522 137.708V137.709ZM30.2995 119.189C28.8038 119.189 28.4777 120.024 27.2861 120.475C26.8263 120.648 25.9538 121.316 25.003 122.622C21.773 127.056 21.0913 134.127 22.1089 136.226C22.796 137.643 25.4666 137.437 26.4349 137.154C25.7417 134.795 25.931 130.949 25.9135 128.08C25.8983 125.57 28.1623 124.354 28.3227 121.124C28.3409 120.757 28.8859 120.63 29.0614 121.004C30.6202 124.322 35.2364 123.631 35.298 127.675C35.3504 131.151 35.3679 134.649 35.1429 136.755C36.8947 137.211 38.7362 136.895 39.3093 136.451C39.3997 136.381 39.4324 136.325 39.4339 136.298C39.6657 130.775 38.6458 126.436 36.802 123.411C35.0092 120.471 32.4784 119.189 30.3002 119.189H30.2995Z" fill="black"/>
<path d="M24.1375 137.475C23.4474 135.752 23.5386 131.866 23.5417 131.702C23.5462 131.469 23.8844 131.479 23.8822 131.71C23.8822 131.748 23.7955 135.682 24.4522 137.342C24.538 137.559 24.2211 137.685 24.1375 137.475Z" fill="black"/>
<path d="M37.1883 135.079C37.4034 132.07 37.0128 129.195 36.7544 127.749C36.7141 127.522 37.0469 127.457 37.088 127.686C37.3487 129.148 37.7484 132.057 37.5273 135.105C37.5105 135.336 37.1723 135.309 37.1883 135.078V135.079Z" fill="black"/>
<path d="M24.0812 128.451C24.1784 126.491 25.3937 123.9 25.4446 123.791C25.5404 123.585 25.8497 123.731 25.7509 123.946C25.7387 123.972 24.5151 126.579 24.4209 128.466C24.4095 128.693 24.0682 128.691 24.0804 128.451H24.0812Z" fill="black"/>
<path d="M34.9893 123.573C33.5712 122.023 31.7023 121.078 31.2532 121.078C31.0274 121.078 31.0267 120.726 31.2524 120.726C31.8878 120.726 33.879 121.846 35.2378 123.332C35.3929 123.502 35.1413 123.739 34.9893 123.573Z" fill="black"/>
</svg>
