<svg width="153" height="158" viewBox="0 0 153 158" fill="none" xmlns="http://www.w3.org/2000/svg">
<path d="M62.8363 46.1904L63.6746 58.1114L96.3067 27.3865L59.9005 4.45752L60.7547 16.6038C-7.22349 34.187 -11.8329 107.547 35.0378 123.23L37.0359 108.326C14.8963 94.8086 20.2779 61.7531 62.8363 46.1904Z" fill="white"/>
<path d="M34.9567 123.491C15.0538 116.832 3.1294 99.3325 3.83696 77.8236C4.55136 56.0971 19.8175 26.9988 60.4744 16.3942L59.6354 4.47786C59.6194 4.2557 59.8528 4.10655 60.039 4.22352C96.652 27.1636 96.5509 27.1424 96.5714 27.3606C96.5919 27.5781 96.6071 27.403 63.8526 58.3156C63.6885 58.471 63.4232 58.3587 63.4088 58.1327L62.5956 46.5712C40.2562 54.827 26.0715 68.9021 24.6275 84.2684C23.714 93.9827 28.2854 102.666 37.1706 108.091C37.2633 108.147 37.3134 108.255 37.299 108.365L35.301 123.268C35.2782 123.435 35.1163 123.545 34.9559 123.492L34.9567 123.491ZM60.2031 4.97005L61.0201 16.5842C61.03 16.7168 60.9449 16.8385 60.8195 16.8707C20.2879 27.3544 5.07728 56.2675 4.3682 77.8416C3.67356 98.9871 15.3327 116.21 34.8184 122.866L36.748 108.469C27.7785 102.925 23.1698 94.0942 24.0978 84.215C25.5707 68.5551 40.0175 54.2438 62.7468 45.9314C62.8259 45.9023 62.9118 45.9133 62.9817 45.9604C63.1527 46.075 63.0858 45.9518 63.9005 57.5274L95.8661 27.4305L60.2031 4.97005Z" fill="black"/>
<path d="M97.4169 34.9534C97.4169 34.9534 87.6494 94.5686 84.7637 100.76C99.3488 105.74 117.389 108.858 135.821 111.766C135.821 111.766 147.143 53.984 148.474 43.2076C133.241 41.6658 115.98 38.7504 97.4169 34.9534Z" fill="white"/>
<path d="M101.364 40.6446C100.782 43.878 99.8937 48.5856 99.0205 53.2156C102.746 54.291 107.194 55.0595 112.093 55.6365C112.944 50.9791 113.769 46.4112 114.347 42.6926C109.957 41.9406 105.815 41.3809 101.365 40.6438L101.364 40.6446Z" fill="#FFD997"/>
<path d="M101.518 53.6873C102.702 47.6412 109.674 44.7877 108.819 55.1819C106.157 54.9715 103.708 54.4919 101.518 53.6873Z" fill="white"/>
<path d="M106.846 48.2527C108.117 48.2527 109.148 47.249 109.148 46.0108C109.148 44.7726 108.117 43.7688 106.846 43.7688C105.574 43.7688 104.543 44.7726 104.543 46.0108C104.543 47.249 105.574 48.2527 106.846 48.2527Z" fill="white"/>
<path d="M135.782 112.037C118.066 109.242 99.5288 106.09 84.6814 101.02C84.5256 100.967 84.4565 100.786 84.5249 100.64C87.495 94.2694 97.055 34.8794 97.2663 34.7271C97.3256 34.6848 97.3978 34.6691 97.47 34.684C117.563 38.7942 134.255 41.4923 148.501 42.9343C148.65 42.9492 148.758 43.089 148.739 43.2428C147.421 53.9055 136.196 111.243 136.083 111.82C136.056 111.959 135.93 112.059 135.782 112.038V112.037ZM85.1276 100.593C99.8191 105.57 118.106 108.691 135.611 111.454C136.427 107.285 146.757 54.3914 148.176 43.4532C134.037 42.0096 117.496 39.3335 97.6341 35.2774C96.8323 40.1586 88.0566 93.3329 85.1276 100.593Z" fill="black"/>
<path d="M131.206 46.0415C131.075 46.0415 125.012 45.1913 118.089 43.9887C117.742 43.9283 117.83 43.3835 118.177 43.447C131.433 45.7479 131.539 45.2573 131.469 45.8028C131.452 45.941 131.337 46.0415 131.205 46.0415H131.206Z" fill="black"/>
<path d="M134.46 67.7617C133.764 67.7617 98.5248 61.5076 98.0308 61.422C97.682 61.3616 97.7732 60.8137 98.1182 60.8804C99.2263 61.0727 131.304 66.7742 134.495 67.2145C134.822 67.2593 134.79 67.7617 134.46 67.7617Z" fill="black"/>
<path d="M128.562 72.2149C128.327 72.2149 97.7673 66.4664 97.3896 66.3965C97.0422 66.3321 97.1365 65.7897 97.483 65.8556C98.5888 66.0597 122.115 70.4942 128.607 71.6701C128.926 71.7274 128.885 72.2157 128.561 72.2157L128.562 72.2149Z" fill="black"/>
<path d="M131.575 77.9132C131.064 77.9132 96.2467 71.3066 96.0696 71.2737C95.7246 71.2093 95.815 70.6676 96.1646 70.7336C97.2727 70.9393 127.031 76.5975 131.617 77.3676C131.938 77.4218 131.899 77.914 131.574 77.914L131.575 77.9132Z" fill="black"/>
<path d="M126.028 81.8438C125.792 81.8438 95.172 76.1023 94.7928 76.0324C94.4492 75.9688 94.5351 75.4311 94.8862 75.4915C95.9966 75.6956 119.598 80.1301 126.074 81.2982C126.392 81.3555 126.352 81.8438 126.028 81.8438Z" fill="black"/>
<path d="M125.803 48.2337C125.541 48.2337 119.447 47.2203 117.459 46.8749C117.11 46.8145 117.202 46.2681 117.547 46.3333C120.393 46.827 123.183 47.2831 125.842 47.6874C126.166 47.7368 126.131 48.2337 125.803 48.2337Z" fill="black"/>
<path d="M128.952 52.9321C128.663 52.9321 116.629 50.8463 116.287 50.7867C115.937 50.7262 116.03 50.1791 116.374 50.245C116.374 50.245 126.551 52.0144 128.991 52.3865C129.315 52.4359 129.28 52.9321 128.952 52.9321Z" fill="black"/>
<path d="M125.168 55.8021C125.085 55.8021 118.657 54.6921 115.475 54.1387C115.127 54.0783 115.219 53.5311 115.563 53.5971C115.563 53.5971 122.412 54.7879 125.21 55.2565C125.532 55.3107 125.494 55.8029 125.168 55.8029L125.168 55.8021Z" fill="black"/>
<path d="M114.391 42.4226C112.005 42.0136 103.441 40.7105 101.407 40.3737C101.259 40.3486 101.13 40.4491 101.104 40.5951C100.544 43.7068 98.7594 53.1637 98.7594 53.1637C98.7328 53.3042 98.8156 53.4424 98.9486 53.4809C104.521 55.0901 111.961 55.9128 112.094 55.9128C112.22 55.9128 112.331 55.8202 112.355 55.6891C113.212 50.9971 114.029 46.4771 114.611 42.7381C114.633 42.589 114.535 42.4477 114.392 42.4234L114.391 42.4226ZM108.573 54.8986C106.056 54.532 103.81 54.1183 101.797 53.6512C102.463 50.4327 104.778 48.3062 106.421 48.5534C108.039 48.7929 108.837 51.1581 108.573 54.8986ZM104.809 46.0108C104.809 44.9259 105.722 44.0436 106.845 44.0436C107.968 44.0436 108.882 44.9259 108.882 46.0108C108.882 47.0957 107.968 47.978 106.845 47.978C105.722 47.978 104.809 47.0957 104.809 46.0108ZM111.878 55.335C110.918 55.2204 109.993 55.1003 109.101 54.9747C109.404 50.815 108.438 49.1226 107.517 48.4404C108.608 48.1499 109.413 47.171 109.413 46.0116C109.413 44.6237 108.261 43.4949 106.845 43.4949C104.346 43.4949 103.304 46.6875 105.4 48.0911C103.613 48.5942 101.842 50.8236 101.279 53.5295C100.602 53.3663 99.9518 53.1959 99.3278 53.0193C99.3278 53.0193 101.018 44.0624 101.578 40.9586C103.524 41.2788 111.751 42.5309 114.041 42.9203C113.475 46.5321 112.696 50.8503 111.878 55.335Z" fill="black"/>
<path d="M141.339 46.1976C138.988 45.5696 139.069 45.5539 138.931 45.6426C138.79 45.7337 138.835 45.6991 138.418 47.901C138.351 48.2582 138.872 48.3626 138.941 48.0062L139.232 46.4692C140.383 47.8681 140.796 49.179 140.426 50.278C140.019 51.4877 138.75 52.2052 137.979 52.3284C137.634 52.3826 137.709 52.9282 138.06 52.8709C138.899 52.7367 140.421 51.9626 140.928 50.4578C141.223 49.5825 141.242 48.1907 139.835 46.3625L141.204 46.729C141.545 46.8209 141.679 46.2879 141.338 46.1968L141.339 46.1976Z" fill="black"/>
<path d="M137.632 54.8554C137.548 54.5006 137.033 54.6349 137.116 54.9873L137.479 56.5087C135.861 55.7394 134.95 54.7267 134.842 53.5657C134.722 52.2948 135.58 51.0945 136.226 50.6486C136.52 50.4461 136.22 49.9892 135.93 50.1918C135.225 50.6777 134.163 52.0373 134.312 53.6191C134.399 54.5422 134.946 55.8178 136.973 56.8674L135.582 57.1304C135.233 57.1963 135.333 57.7372 135.677 57.6705C138.075 57.2081 138.001 57.2662 138.088 57.1272C138.179 56.9836 138.151 57.0338 137.632 54.8554Z" fill="black"/>
<path d="M127.013 102.597C129.11 98.7479 128.728 98.2572 128.677 98.2141C128.583 98.134 127.913 97.9103 123.99 101.301C123.752 101.502 123.43 101.198 123.598 100.938C126.257 96.8168 125.84 96.3505 125.821 96.3324C125.71 96.2264 124.825 95.9697 118.362 101.429C118.09 101.655 117.758 101.241 118.021 101.008C122.399 97.1363 122.837 95.2311 122.457 94.7648C121.748 93.8942 117.722 95.2884 112.004 100.165C111.73 100.396 111.395 99.9709 111.665 99.7409C116.979 95.2091 121.689 92.9679 122.865 94.4107C123.432 95.1078 122.974 96.4062 121.627 98.0947C124.895 95.6204 125.788 95.5631 126.179 95.925C126.542 96.2641 126.612 96.9965 124.944 99.7927C127.815 97.4675 128.626 97.455 129.017 97.7917C129.366 98.0908 129.519 98.7675 128.287 101.301C129.455 100.214 131.361 98.6403 133.637 97.5154C133.958 97.36 134.183 97.8545 133.867 98.0115C130.168 99.839 127.468 102.886 127.441 102.917C127.229 103.156 126.857 102.882 127.013 102.597Z" fill="black"/>
<path d="M31.9261 85.099C44.0816 78.8307 55.9953 73.466 67.7214 68.7599C67.9319 68.6751 68.1629 68.6681 68.3788 68.7395C79.6914 72.4973 92.5171 78.0786 106.023 84.4796C106.343 84.6311 106.562 84.9483 106.594 85.3101C107.837 99.5783 107.66 115.81 106.775 133.021C106.759 133.351 106.589 133.652 106.318 133.828C95.4135 140.924 83.6001 147.324 71.1034 153.199C70.8655 153.312 70.5934 153.322 70.3487 153.227C57.6043 148.278 43.6317 140.946 31.8448 133.4C31.572 133.225 31.4002 132.925 31.3827 132.594C30.7193 119.761 30.5984 102.702 31.3827 85.9593C31.4002 85.5927 31.6077 85.263 31.9261 85.099Z" fill="#FFD997"/>
<path d="M86.0686 145.691C87.0034 128.514 87.3986 111.339 86.5801 93.6491C73.5203 87.5246 60.4513 81.7674 47.7988 77.3337L58.9077 72.5413C69.5956 75.8414 82.714 82.0437 96.5164 89.0608C97.2346 103.342 96.8013 121.039 95.8475 140.279L86.0686 145.691Z" fill="#81F8F8"/>
<path d="M98.4776 126.115C98.4776 126.115 98.4252 131.562 98.1182 135.849C98.1182 135.849 104.455 132.412 104.729 132.196C105.022 131.966 105.244 124.439 105.138 122.987L98.4776 126.115Z" fill="white"/>
<path d="M57.5021 135.165C57.5021 135.165 57.3744 142.036 57.5021 144.614C57.5021 144.614 65.8826 148.512 67.8654 149.107L68.0569 139.13C64.7091 137.999 61.1926 136.68 57.5021 135.165Z" fill="white"/>
<path d="M67.865 149.382C67.1788 149.382 58.0375 145.164 57.393 144.865C57.3018 144.823 57.2418 144.732 57.2364 144.629C57.1095 142.072 57.2349 135.229 57.2364 135.16C57.2395 134.967 57.431 134.84 57.6005 134.91C67.7754 139.086 68.3332 138.617 68.3233 139.135C68.1326 149.269 68.2511 149.382 67.865 149.382ZM57.7601 144.432C58.8324 144.929 65.3836 147.955 67.6059 148.733L67.7868 139.328C64.591 138.243 61.2204 136.98 57.7608 135.567C57.7373 137.03 57.6628 142.156 57.7608 144.432L57.7601 144.432Z" fill="black"/>
<path d="M63.3172 144.303C63.7816 141.511 63.3795 141.087 63.245 141.025C63.1029 140.956 62.4949 140.923 60.5865 143.334C60.4026 143.568 60.0378 143.364 60.1275 143.075C61.1018 139.992 60.7385 139.652 60.6929 139.624C60.6815 139.614 60.3562 139.433 58.9039 140.912C58.6508 141.166 58.2807 140.773 58.5299 140.52C59.768 139.261 60.4968 138.852 60.9733 139.157C61.307 139.371 61.5494 139.897 60.9962 142.001C62.1346 140.723 62.9159 140.266 63.4646 140.525C63.9921 140.773 64.1699 141.599 64.0118 143.152C64.6654 142.176 65.6747 140.857 66.5054 140.586C66.8413 140.478 67.0009 141 66.6657 141.11C65.7477 141.409 64.2907 143.652 63.8066 144.49C63.6569 144.751 63.267 144.602 63.3157 144.304L63.3172 144.303Z" fill="black"/>
<path d="M39.6449 92.9347C39.2953 92.9347 34.0064 90.6103 32.9804 90.1284C32.6612 89.9792 32.8778 89.4784 33.2001 89.6275C34.2565 90.1236 37.244 91.455 39.7368 92.4017C40.0142 92.5077 39.9398 92.9347 39.6449 92.9347Z" fill="black"/>
<path d="M40.8676 96.4743C40.4473 96.4743 35.068 94.2033 32.9803 93.2228C32.6626 93.0745 32.8754 92.5736 33.1999 92.722C34.723 93.4371 38.5595 95.1147 40.9512 95.9381C41.2362 96.0363 41.1678 96.4743 40.8676 96.4743Z" fill="black"/>
<path d="M37.7154 98.3585C37.514 98.3585 33.7338 96.6715 32.9814 96.3175C32.6607 96.1683 32.8818 95.6644 33.201 95.8174C34.1465 96.261 35.9933 97.0797 37.8135 97.8286C38.0848 97.9401 38.0073 98.3585 37.7154 98.3585Z" fill="black"/>
<path d="M98.1185 136.124C97.9635 136.124 97.8419 135.987 97.8533 135.829C98.1558 131.6 98.212 126.167 98.2128 126.113C98.2128 126.006 98.2743 125.909 98.3686 125.865C105.465 122.525 105.101 122.645 105.275 122.751C105.349 122.798 105.398 122.878 105.404 122.967C105.456 123.689 105.393 132.021 104.89 132.416C104.683 132.58 98.2644 136.124 98.1185 136.124ZM98.7425 126.293C98.7303 127.221 98.6634 131.651 98.4172 135.376C100.813 134.076 104.068 132.295 104.526 132.006C104.738 131.298 104.949 125.437 104.891 123.404L98.7417 126.292L98.7425 126.293Z" fill="black"/>
<path d="M99.7184 133.3C99.8764 131.272 99.9745 129.46 100.025 127.597C100.035 127.23 100.567 127.251 100.557 127.613C100.506 129.485 100.408 131.306 100.248 133.344C100.219 133.712 99.6902 133.652 99.7184 133.3Z" fill="black"/>
<path d="M101.404 132.31C101.507 130.982 101.579 129.823 101.634 128.666C101.65 128.295 102.181 128.332 102.165 128.692C102.111 129.856 102.038 131.02 101.934 132.354C101.905 132.723 101.376 132.661 101.404 132.31Z" fill="black"/>
<path d="M103.013 131.55C103.171 129.52 103.269 127.707 103.319 125.848C103.328 125.477 103.861 125.505 103.85 125.864C103.8 127.733 103.702 129.554 103.543 131.594C103.514 131.963 102.985 131.902 103.013 131.55Z" fill="black"/>
<path d="M43.7724 140.554C43.2997 128.433 43.5224 107.878 44.306 91.1362C46.8664 88.1924 76.8583 73.8725 79.8291 72.9226L89.8816 77.2009C76.9738 83.3827 64.6854 89.5332 55.636 95.518C54.8289 112.418 54.759 129.425 55.0858 146.491L43.7724 140.554Z" fill="#81F8F8"/>
<path d="M70.2545 153.484C58.0694 148.752 44.0185 141.517 31.7035 133.633C31.3577 133.412 31.138 133.029 31.1167 132.608C30.3879 118.52 30.3871 101.512 31.1167 85.9459C31.138 85.4804 31.4033 85.0612 31.8076 84.8524C43.4287 78.855 55.1464 73.5115 67.6256 68.5032C67.8939 68.3957 68.1888 68.387 68.4609 68.4773C78.5833 71.8395 90.5548 76.8446 106.134 84.2291C106.541 84.4215 106.818 84.8257 106.859 85.2842C107.976 98.093 108.035 113.712 107.041 133.035C107.02 133.453 106.803 133.836 106.459 134.059C95.9622 140.891 84.4338 147.233 71.2128 153.449C70.9111 153.59 70.5638 153.604 70.2545 153.483V153.484ZM32.0447 85.3446C31.8121 85.4647 31.6601 85.7057 31.648 85.9726C30.9199 101.522 30.9207 118.509 31.648 132.579C31.6609 132.82 31.7863 133.04 31.9839 133.167C44.2693 141.033 58.2867 148.25 70.4414 152.97C70.6185 153.039 70.8191 153.031 70.9932 152.95C84.1906 146.745 95.6993 140.414 106.176 133.596C106.373 133.467 106.497 133.248 106.509 133.007C107.501 113.711 107.443 98.1181 106.329 85.3352C106.306 85.073 106.146 84.8406 105.912 84.73C90.3511 77.3541 78.3994 72.3568 68.2967 69.0009C68.1424 68.9499 67.9722 68.9538 67.8179 69.0166C55.3554 74.0179 43.6469 79.348 32.0447 85.3446Z" fill="black"/>
<path d="M96.9184 88.8676C96.9138 88.7671 96.8561 88.6769 96.7687 88.6329C91.4791 85.9953 86.438 83.5861 81.6622 81.4125C84.2834 80.0913 86.9852 78.7576 89.7744 77.409C90.0951 77.2536 89.8641 76.7559 89.5487 76.9113C76.4957 83.2243 65.3541 89.1934 55.4862 95.1586C55.408 95.2057 55.3593 95.2897 55.3548 95.3823C54.5347 112.901 54.255 134.793 54.7042 146.305C54.7186 146.673 55.2499 146.643 55.2354 146.283C54.7886 134.818 55.0652 113.039 55.8799 95.5582C60.6314 92.689 65.6801 89.8183 71.0959 86.9075C75.779 88.9579 80.814 91.2485 86.3232 93.8304C87.0414 109.497 86.8765 125.976 85.8042 145.675C85.7844 146.037 86.3149 146.07 86.3354 145.706C87.4116 125.917 87.5742 109.372 86.8469 93.6357C86.8423 93.5329 86.7823 93.441 86.6911 93.3986C81.2784 90.86 76.3224 88.6031 71.7084 86.5786C74.7021 84.9764 77.8074 83.3616 81.0367 81.7288C85.8855 83.9292 91.0109 86.3745 96.3948 89.0576C97.2034 106.76 96.4457 123.391 95.5268 140.286C95.5071 140.651 96.0383 140.678 96.0581 140.317C96.9807 123.356 97.7407 106.657 96.9184 88.8676Z" fill="black"/>
<path d="M79.9079 73.1848C80.2438 73.0773 80.0865 72.5521 79.7506 72.6597C78.8743 72.9399 75.3281 74.5303 70.7841 76.6789C66.6109 74.955 62.6947 73.4533 59.0512 72.1816C58.7199 72.0654 58.5458 72.5851 58.8802 72.7021C62.3777 73.9227 66.1283 75.3562 70.1161 76.9952C67.0852 78.4341 63.6621 80.0961 60.3151 81.7697C55.9436 80.0074 51.8449 78.46 47.8838 77.0722C47.7447 77.0235 47.5935 77.1004 47.5471 77.2441C47.3655 77.7951 47.7211 77.303 59.6623 82.097C58.6089 82.6261 44.099 89.8874 44.0405 91.1222C43.2356 108.307 42.9947 128.531 43.4545 140.305C43.4689 140.667 44.0002 140.645 43.9857 140.283C43.5275 128.547 43.7676 108.399 44.5679 91.2509C47.4871 88.2028 77.2228 74.0436 79.9079 73.1848Z" fill="black"/>
<path d="M105.908 84.2321C94.6937 89.7334 81.564 95.7473 70.7666 100.329C57.7258 96.373 44.514 90.7704 31.6327 85.3869C31.3067 85.2503 31.1076 85.7598 31.4336 85.8956C44.1218 91.1833 57.5122 96.873 70.5234 100.827C71.1573 116.317 70.8236 137.863 70.43 153.243C70.4208 153.611 70.9528 153.615 70.9612 153.258C71.3549 137.869 71.6893 116.306 71.0547 100.8C81.8444 96.2199 94.943 90.2193 106.137 84.7283C106.456 84.5728 106.224 84.0744 105.908 84.2321Z" fill="black"/>
</svg>
