<svg width="152" height="158" viewBox="0 0 152 158" fill="none" xmlns="http://www.w3.org/2000/svg">
<path d="M147.308 108.917H4.24043C3.88861 108.917 3.88861 109.471 4.24043 109.471H147.308C147.66 109.471 147.66 108.917 147.308 108.917Z" fill="black"/>
<path d="M38.5871 142.573C37.3836 142.793 37.1337 141.199 38.2685 140.991L124.163 120.283C125.623 120.024 127.008 121.047 127.256 122.565C127.503 124.082 126.52 125.523 125.061 125.781L38.5856 142.573H38.5871Z" fill="#81F8F8"/>
<path d="M127.521 122.518C127.25 120.86 125.74 119.728 124.106 120.013L38.2253 140.717C37.1374 140.916 36.963 142.244 37.798 142.716C38.0298 142.848 38.3242 142.902 38.6376 142.846L125.108 126.053C126.713 125.771 127.795 124.186 127.521 122.518ZM38.0532 142.229C37.7655 142.064 37.7421 141.702 37.9105 141.49C38.1068 141.236 37.8924 141.365 124.209 120.555C125.54 120.322 126.772 121.249 126.996 122.61C127.219 123.974 126.335 125.263 125.015 125.508C38.0019 141.643 38.405 142.425 38.0532 142.229Z" fill="black"/>
<path d="M50.9242 137.768C49.9276 138.127 49.8823 138.116 49.8876 138.203C49.8937 138.297 49.6007 138.205 55.6324 139.429C55.6513 139.429 55.6422 139.43 55.6649 139.427C58.3451 138.747 58.207 138.811 58.2009 138.718C58.1956 138.622 58.5845 138.699 50.9235 137.768L50.9242 137.768Z" fill="black"/>
<path d="M36.2371 136.275C35.0322 136.132 35.2126 134.527 36.3678 134.664L124.372 140.324C125.843 140.511 126.889 141.901 126.71 143.43C126.53 144.959 125.193 146.047 123.723 145.86L36.2371 136.275Z" fill="#81F8F8"/>
<path d="M126.368 141.2C125.883 140.555 125.182 140.145 124.387 140.045L36.3974 134.386C34.8964 134.208 34.6427 136.362 36.2086 136.548L123.69 146.133C126.287 146.456 127.98 143.344 126.368 141.2ZM123.75 145.582C36.0146 135.304 36.115 136.067 35.8371 135.803C35.5072 135.49 35.7005 134.86 36.3505 134.938L124.34 140.597C124.978 140.677 125.55 141.012 125.949 141.541C127.268 143.292 125.888 145.831 123.751 145.581L123.75 145.582Z" fill="black"/>
<path d="M127.755 74.3923C123.362 69.7066 101.489 66.2354 75.7746 66.2354C48.0366 66.2354 24.8966 70.3032 23.0952 75.4952C22.8619 76.168 23.0137 77.2097 23.022 77.4412C24.3024 103.618 47.4741 124.122 75.7746 124.122C104.075 124.122 126.851 103.662 128.521 77.5849C128.619 76.0502 128.583 75.277 127.755 74.3931V74.3923Z" fill="black"/>
<path d="M117.55 75.58C119.099 74.2384 119.58 73.0288 115.79 72.3191C118.655 70.3715 118.378 68.4459 114.138 68.9405C116.947 66.7645 117.95 64.276 111.549 65.6757C116.341 62.3535 112.907 61.3244 109.511 62.6974C111.965 59.4459 110.11 58.92 104.885 60.5214C108.3 58.5738 106.427 56.2258 101.526 57.3712C103.784 54.9094 102.759 53.038 98.167 54.7932C99.0217 51.833 97.779 51.3847 94.6963 53.1322C97.5049 49.9254 95.6031 48.0493 91.8318 51.1846C95.3124 46.8859 92.8534 44.4948 88.9674 49.467C88.5476 46.232 87.5336 46.1119 85.7722 49.9254C85.3011 47.2188 84.1716 46.451 82.0259 48.6663C81.3721 45.195 80.2992 43.8495 78.1701 47.864C76.7492 45.1903 75.0784 44.6557 72.8459 48.9246C73.5495 45.491 71.1667 44.1973 68.7862 49.0933C68.9486 45.0977 66.3597 43.1815 64.1301 49.5997C63.2642 46.0538 60.8217 44.0505 60.3952 50.1625C58.9886 46.5044 56.032 44.797 56.8225 51.5692C55.5239 49.3736 52.7228 48.1191 53.4122 53.2585C51.4084 50.0502 47.9127 49.7873 49.6772 55.7917C46.0502 52.4712 43.2227 53.6871 46.2668 58.3249C40.1498 56.3546 39.5451 58.3712 43.1268 61.8143C38.0373 60.0127 34.0849 62.2578 39.5541 64.685C37.1208 65.2164 36.1219 66.3147 36.1151 67.2064C33.2552 68.7372 32.7116 71.3575 33.8652 72.0844C31.3624 72.6551 31.2725 74.7762 32.2548 76.4906C28.3228 77.3573 29.604 80.2798 31.749 81.3301C55.1607 87.4045 105.067 86.9641 121.345 80.6613C121.181 79.5513 120.14 78.9021 120.14 78.9021C122.869 77.4789 122.433 76.3344 117.551 75.58H117.55Z" fill="white"/>
<path d="M122.064 77.2198C121.943 76.427 120.696 75.85 118.145 75.408C119.838 73.7211 118.736 72.71 116.447 72.1817C118.808 70.3322 118.414 68.4474 114.975 68.6005C115.919 67.759 116.877 66.6341 116.501 65.7722C116.173 65.0131 114.881 64.8168 112.658 65.1842C115.715 62.6494 113.727 61.1312 110.208 62.1682C110.845 61.1626 110.999 60.4334 110.679 59.9427C110.206 59.2174 108.788 59.1876 106.227 59.8556C106.805 59.2567 107.011 58.6326 106.809 58.0768C106.502 57.2314 105.117 56.4416 102.222 56.9503C103.784 54.8222 102.876 52.8668 98.5481 54.363C99.1159 51.8682 97.8996 51.3038 95.6316 52.3416C97.2201 49.8578 95.769 48.331 92.9679 50.0274C93.6542 48.8593 93.9086 47.8192 93.6678 47.1402C93.5304 46.7524 93.2397 46.502 92.8471 46.4345C91.8996 46.2688 90.5542 47.1441 89.1325 48.8326C88.903 47.5295 88.5474 46.8803 88.0166 46.7924C87.3907 46.6888 86.7097 47.4298 85.8618 49.1121C85.2752 46.8646 83.991 46.4517 82.1827 48.1316C81.3447 44.2035 79.8551 44.3165 78.1609 47.3168C76.5874 44.6721 74.8947 45.0552 73.2322 47.6991C73.1997 45.2436 71.1039 44.4531 69.0261 48.0578C68.7392 44.6415 66.2258 43.497 64.1563 48.7471C63.7939 47.6387 62.9536 45.8818 61.8385 45.9737C61.2715 46.0255 60.5399 46.6221 60.222 49.1247C59.3908 47.4597 58.3059 46.4926 57.5003 46.7163C56.9046 46.8741 56.25 47.6842 56.4569 50.6162C54.7657 48.6458 52.8683 48.9308 53.0465 52.3039C50.8933 49.7111 48.0635 50.1789 49.193 55.0341C45.7011 52.2717 43.307 53.848 45.6483 57.8562C42.9122 57.0555 41.2776 57.0932 40.7891 57.9685C40.3852 58.6977 40.8525 59.7999 42.1775 61.2466C37.2104 59.9671 34.4947 62.4171 38.7498 64.6182C37.532 64.9879 35.9933 65.7792 35.8537 67.0643C33.3893 68.4357 32.5309 70.5873 33.1485 71.797C33.1862 71.8716 33.2293 71.9415 33.2776 72.0058C31.3433 72.6448 30.9575 74.4645 31.8559 76.3069C30.8322 76.5942 29.6272 77.2065 29.4815 78.5001C29.3471 79.7036 30.2916 81.1236 31.6747 81.8019C31.9949 81.9589 32.2236 81.4572 31.9043 81.3002C30.7151 80.717 29.9012 79.5403 30.0107 78.5629C30.1081 77.6963 30.9039 77.073 32.312 76.7606C32.4924 76.7206 32.5785 76.5117 32.4856 76.35C31.4626 74.5657 31.7835 72.8803 33.8046 72.4329C34.1625 72.5962 34.614 72.6244 35.1221 72.5059C32.8389 75.3115 33.7918 77.3352 35.3425 77.3352L35.3622 77.3321C36.0666 77.325 36.8291 76.8925 37.4588 76.142C37.6868 75.8696 37.2904 75.5014 37.0571 75.7793C36.4267 76.5298 35.6876 76.8901 35.0745 76.748C34.7098 76.664 34.4524 76.3979 34.3474 76.0046C34.0771 74.9936 34.8095 73.4981 36.3082 72.0035C36.5294 71.7829 36.2719 71.4077 35.9994 71.5584C32.811 73.3121 32.5181 69.6822 35.9126 67.6609C35.9911 67.9058 36.136 68.1295 36.3437 68.3156C36.9333 68.8415 38.1692 69.1343 39.871 68.3823C40.1987 68.2378 39.982 67.7284 39.6641 67.8728C36.0432 69.4711 34.6094 66.0579 39.606 64.966C39.8604 64.9102 39.8952 64.5476 39.6566 64.44C37.5962 63.5247 37.0503 62.6965 37.2104 62.2648C37.5018 61.4751 39.9752 61.0017 43.0382 62.0874C43.3116 62.1855 43.5162 61.8205 43.3055 61.6211C41.7261 60.1029 40.9393 58.8092 41.2519 58.244C41.6121 57.5987 43.5011 57.7345 46.1843 58.598C46.4297 58.6734 46.6245 58.3908 46.4841 58.1773C45.0669 56.0185 45.0639 54.7947 45.4927 54.4022C46.0484 53.8865 47.6045 54.2735 49.4965 56.006C49.6928 56.1928 50.0099 55.984 49.9276 55.7187C49.2443 53.3872 49.307 51.7685 50.096 51.3862C50.8834 51.0016 52.2379 51.8973 53.1862 53.417C53.3425 53.6643 53.7132 53.5175 53.6739 53.2271C53.4308 51.4122 53.6301 50.2009 54.2107 49.9842C54.8147 49.7637 55.9042 50.5565 56.5935 51.7222C56.7453 51.9766 57.1205 51.8337 57.0858 51.5425C56.6388 47.7132 57.467 47.2948 57.6377 47.2493C58.2319 47.0978 59.3772 48.2682 60.1465 50.2708C60.2522 50.54 60.6396 50.4811 60.6599 50.1876C60.7264 49.2408 61.0193 46.52 61.9329 46.52C62.5807 46.52 63.4414 47.9111 63.871 49.6718C63.9344 49.934 64.2892 49.9544 64.3791 49.6977C65.7592 45.7272 66.9778 45.6518 67.3115 45.7185C68.0839 45.8771 68.592 47.2925 68.5195 49.0854C68.5074 49.3837 68.8985 49.485 69.0231 49.2212C71.1945 44.7569 73.2481 45.6408 72.5852 48.8711C72.5233 49.1804 72.931 49.3421 73.0797 49.0619C75.1552 45.0921 76.5716 45.4305 77.9381 48.0021C78.034 48.185 78.3088 48.185 78.4047 48.0021C78.7497 47.3513 79.7433 45.5702 80.4493 45.6879C80.7996 45.7445 81.313 46.3175 81.7652 48.7243C81.8113 48.9488 82.0687 49.0171 82.216 48.8664C84.071 46.9471 85.0442 47.3003 85.5108 49.978C85.5568 50.2409 85.8981 50.2927 86.0128 50.0494C87.2201 47.4361 87.8007 47.3074 87.9419 47.3349C88.0566 47.3529 88.4523 47.5657 88.7044 49.5077C88.7354 49.7503 89.0328 49.8335 89.1748 49.6451C90.8486 47.5036 92.1563 46.8686 92.7693 46.9777C92.9717 47.013 93.1046 47.1276 93.177 47.3294C93.3786 47.8969 93.094 49.2016 91.6293 51.011C91.4232 51.263 91.7486 51.6139 92 51.4059C93.8165 49.8955 95.1997 49.5847 95.6278 50.0572C95.9819 50.4513 95.7078 51.5723 94.5021 52.9508C94.2997 53.1713 94.5542 53.5309 94.8252 53.3809C96.9604 52.1712 97.6852 52.3322 97.9252 52.5339C98.2461 52.8055 98.2408 53.5811 97.9116 54.7194C97.8482 54.9415 98.0589 55.1378 98.259 55.0585C100.762 54.1016 102.009 54.3245 102.314 54.8081C102.611 55.2783 102.226 56.2109 101.334 57.1843C101.151 57.3829 101.33 57.7055 101.585 57.6458C104.311 57.0084 106.03 57.4778 106.319 58.2707C106.526 58.8445 105.928 59.6162 104.759 60.2834C104.482 60.4404 104.655 60.884 104.963 60.7905C109.052 59.5393 110.029 59.9168 110.248 60.252C110.383 60.4577 110.44 61.0276 109.305 62.5309C109.139 62.7546 109.358 63.06 109.611 62.9587C111.514 62.1902 113.323 62.2601 113.608 62.8331C113.676 62.9681 113.887 63.728 111.405 65.4487C111.16 65.6191 111.329 66.0163 111.607 65.9496C115.335 65.1363 115.932 65.78 116.027 65.9967C116.244 66.4991 115.403 67.6185 113.982 68.7206C113.763 68.8878 113.9 69.2442 114.17 69.2183C115.952 69.048 117.183 69.2411 117.385 69.822C117.571 70.3566 116.889 71.246 115.648 72.0898C115.448 72.2256 115.508 72.5475 115.746 72.593C117.911 72.9989 118.354 73.528 118.426 73.8082C118.516 74.1677 118.167 74.6937 117.385 75.3711C117.206 75.5258 117.291 75.8241 117.517 75.8578C121.04 76.4026 121.511 77.0495 121.55 77.3015C121.574 77.4585 121.474 77.9043 120.025 78.6587C119.843 78.7561 119.824 79.0292 120.009 79.1438C120.105 79.2066 120.95 79.7868 121.086 80.706C121.103 80.8261 121.193 80.9187 121.305 80.9376C121.395 80.9878 121.64 80.8646 121.604 80.6291C121.487 79.8346 120.98 79.2608 120.636 78.9531C121.699 78.34 122.155 77.7882 122.067 77.2198H122.064Z" fill="black"/>
<path d="M57.3398 64.2295C57.1496 64.7664 53.8789 67.123 53.5845 66.2328C53.287 65.3041 55.0303 63.4092 56.1998 62.4326C56.4754 62.1948 56.1341 61.7646 55.8465 62.0166C54.7804 62.9491 52.6392 65.0286 53.0786 66.4102C53.6653 68.2243 57.5996 65.1314 57.8419 64.414C57.9529 64.0764 57.4652 63.8825 57.3398 64.2303V64.2295Z" fill="black"/>
<path d="M65.542 54.8255C65.2159 55.788 64.7289 56.6719 64.4971 56.7174C64.3695 56.6891 63.7912 55.6529 63.3835 54.0484C63.3155 53.7925 62.9901 53.7752 62.8867 53.9989C62.1 55.6702 61.1208 57.1091 60.7697 57.1005C60.5228 57.095 60.0237 54.7832 61.7112 52.33C61.9135 52.0302 61.4824 51.7122 61.2778 52.009C60.6783 52.8811 59.7202 54.6466 60.0358 56.6727C60.1121 57.1727 60.2774 57.6084 60.7493 57.6555C61.5058 57.6555 62.4881 55.9795 63.0573 54.8648C63.2619 55.5242 63.6236 56.5329 64.0509 57.044C64.254 57.2889 64.4813 57.2842 64.596 57.2622C65.3004 57.1217 65.9256 55.3609 66.0434 55.0108C66.1611 54.6725 65.6628 54.4746 65.5413 54.8255H65.542Z" fill="black"/>
<path d="M64.6012 78.847C64.5974 78.8282 64.2479 76.9073 63.4883 75.2698C63.0217 74.2595 62.0176 72.7021 61.166 73.3889C59.8198 74.4644 60.8911 78.3148 61.6061 79.877C61.6499 79.9766 61.7413 80.0394 61.8455 80.0402C61.9625 80.0724 62.1867 79.8762 62.0878 79.6454C61.5155 78.3046 60.4223 74.6818 61.4891 73.8262C61.5457 73.7814 61.6008 73.7704 61.6756 73.7877C62.0335 73.8772 62.5808 74.5853 63.0089 75.5084C63.7171 77.0368 64.075 78.931 64.078 78.9507C64.1422 79.3008 64.6639 79.2136 64.6005 78.847H64.6012Z" fill="black"/>
<path d="M51.92 78.3613C51.3447 78.2946 50.9521 78.5725 50.8389 79.1109C50.5512 80.4862 52.4387 82.4699 52.5218 82.5547C52.5724 82.6057 52.6396 82.6332 52.7083 82.6332L52.7249 82.6317C52.9589 82.6152 53.0563 82.3239 52.897 82.1591C52.4395 81.6826 51.1733 80.1212 51.3598 79.2271C51.4051 79.0034 51.5071 78.9037 51.7675 78.9037C52.7747 78.9037 54.9385 80.6833 55.1703 80.9643C55.2934 81.2265 55.6754 81.1339 55.6754 80.8426C55.6754 80.4941 53.2315 78.5097 51.9193 78.3621L51.92 78.3613Z" fill="black"/>
<path d="M82.8797 77.1625C81.6891 76.2543 79.0028 78.2325 77.7465 78.9931C77.9375 78.1336 78.4366 75.5415 77.6687 74.8735C77.4913 74.718 77.175 74.5932 76.6752 74.8758C74.8662 75.9018 74.426 79.9383 74.4086 80.1102C74.3709 80.4831 74.9047 80.5278 74.9394 80.1667C74.9432 80.1275 75.3758 76.2433 76.9311 75.3609C77.2165 75.1992 77.3011 75.2738 77.3282 75.2974C77.8296 75.7354 77.3826 78.4829 77.1221 79.2969C77.0534 79.512 77.1742 79.6368 77.2142 79.6706C77.4339 79.8511 77.671 79.6996 78.5672 79.1274C79.6227 78.4523 81.8212 77.0455 82.5679 77.6107C83.4256 78.2741 80.7227 80.6605 79.865 81.323C79.5834 81.5452 79.8967 81.984 80.1814 81.7665C81.5555 80.7036 84.2652 78.2183 82.8797 77.1625Z" fill="black"/>
<path d="M87.1699 66.0125C87.0197 65.8665 86.7539 65.7315 86.3379 65.9167C85.4855 66.2998 84.6973 67.6233 83.9967 69.8496C83.5535 71.2587 83.2349 73.1191 84.4165 73.4056C85.8366 73.7503 86.6112 71.7705 87.0793 70.352C87.3896 69.4123 87.8978 66.7174 87.1692 66.0125H87.1699ZM84.5003 72.8459C83.7868 72.6175 84.2715 70.7563 84.5033 70.0184C85.3141 67.4428 86.0639 66.6413 86.5486 66.4231C87.7921 65.8893 86.4044 73.4559 84.5003 72.8459Z" fill="black"/>
<path d="M92.5619 59.9002C91.3961 60.2943 87.7004 61.2803 87.7684 60.0164C87.8582 58.3177 91.0632 57.4706 91.0964 57.462C91.4392 57.3717 91.3078 56.8395 90.9696 56.9235C90.8216 56.9612 87.3471 57.8561 87.2346 59.985C87.1289 61.9616 90.9228 61.0283 92.7257 60.4254C93.0602 60.3123 92.8986 59.7872 92.5611 59.8994L92.5619 59.9002Z" fill="black"/>
<path d="M82.4675 53.9424C82.0877 53.2885 80.8125 53.3513 79.7986 53.7901C78.5098 54.349 77.4566 55.4229 77.4467 55.4339C77.1923 55.6945 77.5706 56.0839 77.8197 55.8303C77.8295 55.8201 78.8367 54.8091 80.0047 54.3035C80.9915 53.8773 81.8673 53.977 82.0137 54.2305C82.0341 54.2658 82.1882 54.6002 81.1614 55.4842C80.2576 56.2613 79.0209 57.0023 79.0066 57.0102C78.7997 57.1358 78.8276 57.4898 79.1372 57.5283C79.3478 57.5283 80.8828 56.4395 81.4973 55.9104C82.4305 55.1058 82.7574 54.444 82.4675 53.9424Z" fill="black"/>
<path d="M102.058 64.2899C102.102 64.045 102.108 63.446 101.234 63.1893C98.7349 62.4577 95.7761 64.7585 95.6515 64.8559C95.3676 65.0819 95.6938 65.5176 95.9739 65.297C96.0924 65.206 98.9131 63.0841 101.088 63.7247C101.59 63.8723 101.55 64.0968 101.533 64.1933C101.351 65.2264 98.1294 67.3812 95.7293 67.1779C95.3759 67.1496 95.3322 67.696 95.6825 67.7298C96.9954 67.8475 97.6545 67.3537 99.1978 67.2352C100.017 67.1724 100.975 67.2305 101.302 67.7188C101.349 67.7863 101.38 67.8679 101.29 68.0131C100.712 68.9496 97.8448 69.5345 96.3212 69.2848C95.9732 69.2283 95.881 69.7645 96.2276 69.8312C97.8773 70.1421 101.012 69.4897 101.738 68.3099C101.926 68.0037 101.926 67.6803 101.737 67.3985C101.34 66.8089 100.47 66.6574 99.6674 66.6606C100.943 65.9478 101.93 65.0152 102.057 64.2891L102.058 64.2899Z" fill="black"/>
<path d="M110.2 73.3341C108.467 71.9407 104.532 73.4534 104.332 73.5923C104.039 73.7988 104.334 74.2572 104.617 74.061C104.842 73.9322 108.444 72.6181 109.873 73.7713C110.198 74.0319 110.157 74.2266 110.084 74.3671C109.668 75.1765 107.041 76.0564 105.292 75.4496C104.964 75.3272 104.788 75.8602 105.123 75.9764C107.715 76.8807 112.171 74.9213 110.2 73.3348V73.3341Z" fill="black"/>
<path d="M69.4817 60.2873C66.8701 61.4358 65.4349 61.1265 65.1442 60.661C64.6263 59.8391 67.0076 58.1607 68.9623 58.1223C69.3194 58.1152 69.3096 57.5688 68.9623 57.5688C68.8754 57.5688 66.815 57.5861 65.1986 59.1553C63.49 60.8101 65.154 62.7954 69.6893 60.7983C70.0155 60.6531 69.8048 60.146 69.4824 60.2889L69.4817 60.2873Z" fill="black"/>
<path d="M68.9153 64.766C68.864 64.4018 68.3362 64.4889 68.3898 64.8477C68.6548 66.7262 68.6435 68.8975 68.2048 69.1385C68.0886 69.2021 67.8613 69.0796 67.5888 68.8158C65.6386 66.9358 66.762 64.6545 66.8111 64.5588C66.975 64.2377 66.5076 63.974 66.3415 64.2982C66.3264 64.3248 64.9629 67.0417 67.2249 69.2217C67.5737 69.5584 68.0297 69.8575 68.454 69.6283C69.4393 69.0882 69.0572 65.7708 68.9161 64.7668L68.9153 64.766Z" fill="black"/>
<path d="M74.5348 59.8534C74.3438 59.5496 73.8961 59.8455 74.0879 60.1564C75.1487 61.8575 74.9161 62.3803 74.8195 62.4996C74.5703 62.8065 73.7595 62.7045 72.7032 62.2335C72.4458 62.1197 72.2177 62.4392 72.3914 62.6629C73.1086 63.5813 74.0056 65.1176 73.7512 65.6561C73.6583 65.8531 73.3593 65.8806 73.123 65.8814C72.2328 65.8602 71.5269 65.4284 71.0264 64.5979C70.6406 63.9574 70.5258 63.3105 70.5243 63.3019C70.4616 62.9361 69.9376 63.0428 70.0003 63.3992C70.0056 63.4291 70.5439 66.4066 73.1139 66.4348C74.969 66.4552 74.3921 64.6631 73.3367 63.0585C75.2317 63.6261 76.3121 62.7014 74.5356 59.8526L74.5348 59.8534Z" fill="black"/>
<path d="M54.5319 70.7703C54.0887 69.9437 52.2526 69.9971 50.9691 70.5968C49.9091 71.0906 49.151 71.6424 48.6837 72.2641C47.7316 72.5821 44.9525 73.1897 44.4134 72.6347C44.3809 72.6017 44.2956 72.5146 44.4338 72.2163C45.0635 70.8645 47.7966 70.3221 47.8253 70.3166C48.1658 70.2553 48.0804 69.7058 47.7271 69.771C47.604 69.7953 44.6965 70.3762 43.9529 71.9753C43.6871 72.5467 43.891 72.8812 44.0359 73.0303C44.7524 73.7729 47.3103 73.2407 48.2866 72.9746C47.7883 74.28 48.3643 75.1522 49.1843 75.0666C50.4006 75.0564 52.2828 73.7721 52.649 73.5131C54.2639 72.378 54.8973 71.4556 54.5312 70.7703H54.5319ZM51.1873 71.1039C52.4504 70.5159 53.8532 70.647 54.0661 71.0427C54.5289 71.9062 49.8071 75.0737 48.8324 74.4386C48.6641 74.3295 48.6074 74.0602 48.6648 73.6371C48.7977 72.6629 49.6222 71.834 51.1865 71.1031L51.1873 71.1039Z" fill="black"/>
<path d="M96.8495 75.9875C95.3078 75.9875 93.828 79.5679 93.6113 81.123C93.5645 81.4896 94.0938 81.561 94.1398 81.2007C94.3135 79.9337 95.6702 76.5182 96.8707 76.5418C96.9869 76.5441 97.0549 76.5842 97.1032 76.6721C97.4626 77.3173 96.6396 79.7854 95.9156 81.2007C95.751 81.521 96.2221 81.7832 96.3837 81.4614C97.2013 79.8725 98.6366 75.9875 96.8495 75.9875Z" fill="black"/>
<path d="M68.8011 102.469C68.3421 102.469 68.074 101.908 68.367 101.527C69.8732 99.5633 72.5882 98.8655 74.9838 98.8655C78.1344 98.8655 81.0404 100.068 81.9268 101.184C82.1223 101.43 82.0891 101.796 81.852 101.999C81.615 102.203 81.2631 102.168 81.0676 101.921C80.5587 101.281 78.179 100.023 74.9838 100.023C72.94 100.023 70.5248 100.581 69.2375 102.252C69.128 102.394 68.9657 102.469 68.8011 102.469Z" fill="#FFD997"/>
<path d="M64.5748 98.955C64.1203 98.955 63.8485 98.3969 64.1422 98.0138C66.7273 94.643 70.7779 93.2402 74.984 93.2402C79.5669 93.2402 84.0198 94.9845 86.0976 97.6017C86.2931 97.8482 86.2599 98.214 86.0229 98.4173C85.7858 98.6206 85.434 98.5861 85.2384 98.3396C83.369 95.9854 79.0957 94.3612 74.8466 94.3981C72.4057 94.4193 67.884 95.0088 65.0104 98.7384C64.901 98.8805 64.7387 98.955 64.5741 98.955H64.5748Z" fill="#FFD997"/>
<path d="M111.188 103.48C111.048 103.48 110.908 103.425 110.8 103.316C106.415 98.8884 102.044 98.7965 97.6902 103.258C97.4705 103.483 97.1187 103.479 96.9028 103.251C96.6868 103.024 96.6898 102.657 96.9088 102.433C101.691 97.5335 106.762 97.6214 111.576 102.485C111.936 102.849 111.684 103.48 111.188 103.48Z" fill="#FFD997"/>
<path d="M114.96 99.4441C114.82 99.4441 114.678 99.3892 114.57 99.2801C108.279 92.9294 100.548 92.4325 93.8938 99.2502C93.6741 99.4755 93.3223 99.4716 93.1064 99.2439C92.8904 99.0163 92.8935 98.6497 93.1124 98.4252C99.9957 91.3727 108.416 91.4489 115.348 98.4503C115.707 98.813 115.456 99.4449 114.96 99.4449V99.4441Z" fill="#FFD997"/>
<path d="M53.3194 103.514C53.1813 103.514 53.0393 103.461 52.9314 103.354C50.2594 100.69 43.4093 99.8999 40.4663 103.066C40.2526 103.296 39.9001 103.301 39.6788 103.079C39.4576 102.858 39.4523 102.49 39.666 102.26C43.0862 98.5795 50.6596 99.4697 53.7045 102.519C54.0669 102.881 53.817 103.515 53.3194 103.515V103.514Z" fill="#FFD997"/>
<path d="M57.0701 99.4612C56.9319 99.4612 56.7915 99.4094 56.6835 99.3011C52.001 94.5942 41.7051 93.6365 36.5786 99.1535C36.3649 99.3835 36.0124 99.3882 35.7911 99.1668C35.5699 98.9455 35.5647 98.5773 35.7783 98.3481C41.3517 92.3499 52.3324 93.3351 57.4559 98.4658C57.8183 98.8293 57.5684 99.462 57.0708 99.462L57.0701 99.4612Z" fill="#FFD997"/>
<path d="M118.505 95.6486C118.366 95.6486 118.227 95.5921 118.119 95.483C109.612 86.8943 98.6988 86.888 90.3198 95.4798C90.0737 95.7326 89.6584 95.6957 89.4621 95.3856C84.8491 88.0851 68.184 86.0928 61.0341 95.4304C60.8318 95.6949 60.4513 95.7247 60.2127 95.4869C53.6646 88.9502 40.1908 87.6471 32.9194 95.472C32.7058 95.702 32.3532 95.7067 32.132 95.4853C31.9108 95.264 31.9055 94.8958 32.1191 94.6666C39.6095 86.6054 53.3663 87.5796 60.5471 94.2301C68.1462 85.1108 84.5599 86.7781 90.0057 94.1869C98.9661 85.4216 110.31 85.9876 118.894 94.6548C119.253 95.0175 119.002 95.6494 118.505 95.6494V95.6486Z" fill="#FFD997"/>
<path d="M98.1553 117.993C98.0157 117.993 97.8737 117.941 97.7658 117.831C92.7246 112.742 87.2305 112.656 82.2263 117.785C82.0066 118.01 81.6548 118.006 81.4389 117.778C81.223 117.551 81.226 117.184 81.4449 116.96C86.9519 111.317 93.1489 111.552 98.5442 117C98.9036 117.362 98.6521 117.994 98.1561 117.994L98.1553 117.993Z" fill="#FFD997"/>
<path d="M101.037 114.911C100.897 114.911 100.755 114.857 100.647 114.747C94.0147 108.051 85.9565 107.924 79.3201 114.725C79.1004 114.95 78.7486 114.946 78.5326 114.718C78.3167 114.491 78.3197 114.124 78.5387 113.9C85.5798 106.684 94.3333 106.756 101.425 113.918C101.784 114.28 101.533 114.912 101.037 114.912V114.911Z" fill="#FFD997"/>
<path d="M54.0768 117.213C53.6147 117.213 53.3535 116.651 53.6442 116.273C55.361 114.035 58.8031 112.762 62.6181 112.949C67.1179 113.17 70.9767 115.573 69.6547 116.472C69.3972 116.647 69.0515 116.572 68.8831 116.304C68.5335 115.75 66.1409 114.282 62.5653 114.106C59.1006 113.934 56.0164 115.045 54.5132 116.996C54.4037 117.138 54.2414 117.213 54.0768 117.213Z" fill="#FFD997"/>
<path d="M50.8462 114.529C50.397 114.529 50.1169 113.973 50.4136 113.586C52.9821 110.237 57.6223 108.399 62.8152 108.654C67.3875 108.879 71.6902 110.795 73.2765 113.315C73.4449 113.583 73.3739 113.942 73.1157 114.117C72.8575 114.292 72.5124 114.218 72.3441 113.95C70.9413 111.722 67.0002 110.022 62.7609 109.812C57.9243 109.573 53.6359 111.257 51.2826 114.313C51.1731 114.455 51.0108 114.529 50.8462 114.529Z" fill="#FFD997"/>
<path d="M47.7384 111.943C47.2839 111.943 47.0121 111.385 47.3058 111.001C54.4685 101.662 70.827 103.181 76.2155 110.48C84.8187 102.078 95.7941 102.462 104.196 110.948C104.417 111.172 104.422 111.537 104.207 111.767C103.993 111.997 103.641 112.002 103.42 111.779C95.1917 103.469 84.633 103.465 76.5273 111.775C76.2812 112.028 75.8659 111.991 75.6696 111.681C71.2166 104.637 55.1374 102.691 48.174 111.726C48.0646 111.868 47.9022 111.943 47.7376 111.943H47.7384Z" fill="#FFD997"/>
<path d="M126.162 78.4538C119.924 82.5154 98.7317 85.4631 75.7729 85.4631C53.1101 85.4631 33.1184 82.8011 26.0252 78.8392C25.6764 78.643 25.3827 79.198 25.7375 79.395C32.913 83.4009 53.0119 86.0919 75.754 86.0942L75.7721 86.0958C99.2051 86.0958 120.059 83.1732 126.485 78.9892C126.825 78.7655 126.504 78.2332 126.162 78.453L126.162 78.4538Z" fill="white"/>
<path d="M65.875 31.2061C65.875 28.5999 62.6919 28.5623 62.6919 26.3274C62.6919 24.1035 65.875 24.0509 65.875 21.4478C65.875 21.0812 65.3427 21.0812 65.3427 21.4478C65.3427 23.6811 62.1597 23.718 62.1597 26.3274C62.1597 28.9367 65.3427 28.9712 65.3427 31.2061C65.3427 33.43 62.1597 33.4826 62.1597 36.0857C62.1597 38.6888 65.3427 38.7311 65.3427 40.9653C65.3427 41.3318 65.875 41.3318 65.875 40.9653C65.875 38.3591 62.6919 38.3214 62.6919 36.0857C62.6919 33.85 65.875 33.8186 65.875 31.2061Z" fill="black"/>
<path d="M94.3472 32.1959C94.3472 29.5937 91.1641 29.5528 91.1641 27.3164C91.1641 25.0925 94.3472 25.0399 94.3472 22.4368C94.3472 22.0702 93.8149 22.0702 93.8149 22.4368C93.8149 24.6576 90.6318 24.7165 90.6318 27.3164C90.6318 29.9163 93.8149 29.965 93.8149 32.1959C93.8149 34.4269 90.6318 34.463 90.6318 37.0755C90.6318 39.6401 93.8149 39.7484 93.8149 41.9543C93.8149 42.3209 94.3472 42.3209 94.3472 41.9543C94.3472 39.3512 91.1641 39.3127 91.1641 37.0755C91.1641 34.8508 94.3472 34.7998 94.3472 32.1959Z" fill="black"/>
<path d="M79.9888 21.1237C79.9888 18.6274 76.8057 18.6101 76.8057 16.4969C76.8057 14.3837 79.9888 14.3625 79.9888 11.8709C79.9888 11.5043 79.4565 11.5043 79.4565 11.8709C79.4565 13.9794 76.2734 14.0037 76.2734 16.4969C76.2734 18.9901 79.4565 19.0065 79.4565 21.1237C79.4565 23.2408 76.2734 23.2543 76.2734 25.7498C76.2734 28.2453 79.4565 28.2594 79.4565 30.3766C79.4565 32.4937 76.2734 32.507 76.2734 35.0025C76.2734 37.498 79.4565 37.5184 79.4565 39.6269C79.4565 39.9935 79.9888 39.9935 79.9888 39.6269C79.9888 37.1338 76.8057 37.1102 76.8057 35.0025C76.8057 32.8948 79.9888 32.8721 79.9888 30.3766C79.9888 27.881 76.8057 27.8646 76.8057 25.7498C76.8057 23.6515 79.9888 23.6082 79.9888 21.1237Z" fill="black"/>
</svg>
