<svg width="153" height="158" viewBox="0 0 153 158" fill="none" xmlns="http://www.w3.org/2000/svg">
<path d="M64.3109 13.8364H4.19873V64.8756H64.3109V13.8364Z" fill="white"/>
<path d="M64.3113 65.1495H4.19911C4.05243 65.1495 3.93311 65.0272 3.93311 64.8749V13.8365C3.93311 13.685 4.05243 13.5618 4.19911 13.5618H64.3113C64.458 13.5618 64.5773 13.6842 64.5773 13.8365V64.8756C64.5773 65.0271 64.458 65.1504 64.3113 65.1504V65.1495ZM4.46511 64.6009H64.0453V14.1113H4.46511V64.6009Z" fill="black"/>
<path d="M47.9803 17.2551C40.9891 17.2551 35.3013 23.1293 35.3013 30.3513C35.3013 37.5733 40.9891 43.4474 47.9803 43.4474C54.9716 43.4474 60.6594 37.5733 60.6594 30.3513C60.6594 23.1293 54.9739 17.2551 47.9803 17.2551ZM48.2463 17.807C51.3593 17.8768 54.1873 19.1611 56.3023 21.2202L48.2463 29.6801V17.807ZM56.6816 21.6048C58.7549 23.8052 60.0552 26.7866 60.1244 30.0765H48.6149L56.6816 21.6048ZM47.9803 42.8979C41.2825 42.8979 35.8333 37.2695 35.8333 30.3513C35.8333 23.5241 41.1388 17.9546 47.7143 17.8078L47.7159 30.3795C47.7235 30.4643 47.7698 30.546 47.8534 30.5931C47.934 30.6331 47.8557 30.619 60.1251 30.6268C59.983 37.4194 54.5901 42.8995 47.9811 42.8995L47.9803 42.8979Z" fill="black"/>
<path d="M44.3608 56.8749H10.8988C10.7521 56.8749 10.6328 56.7525 10.6328 56.6002V25.7968C10.6328 25.4333 11.1648 25.4333 11.1648 25.7968V56.3262H44.3608C44.7127 56.3262 44.7127 56.8749 44.3608 56.8749Z" fill="black"/>
<path d="M13.338 61.6039C13.7249 56.3711 15.9205 32.2818 21.0011 32.9537C23.8876 33.3399 25.1211 40.6145 26.4268 48.3162C27.5128 54.7233 28.6361 61.3503 30.5817 61.3503C33.9971 61.3503 34.6097 50.7826 36.5887 43.311C36.6814 42.9633 37.1952 43.1053 37.1017 43.457C34.998 51.4028 34.5846 61.8998 30.5817 61.8998C28.1892 61.8998 27.1298 55.6496 25.9024 48.4112C24.7441 41.5785 23.4316 33.8337 20.9327 33.4985C16.5004 32.9702 14.2067 57.0501 13.8693 61.6455C13.8419 62.0144 13.313 61.9556 13.3388 61.6039H13.338Z" fill="black"/>
<path d="M148.35 15.4551H89.4917V64.8755H148.35V15.4551Z" fill="white"/>
<path d="M148.35 65.1496H89.4921C89.3454 65.1496 89.2261 65.0271 89.2261 64.8748V15.4552C89.2261 15.3037 89.3454 15.1804 89.4921 15.1804H148.35C148.497 15.1804 148.616 15.3029 148.616 15.4552V64.8756C148.616 65.0271 148.498 65.1496 148.35 65.1496ZM89.7581 64.6009H148.085V15.7291H89.7581V64.6009Z" fill="black"/>
<path d="M103.833 62.5843H93.4325C93.2858 62.5843 93.1665 62.4619 93.1665 62.3096V37.0868C93.1665 36.9353 93.2858 36.812 93.4325 36.812H103.833C103.98 36.812 104.099 36.9345 104.099 37.0868V62.3096C104.099 62.4611 103.98 62.5843 103.833 62.5843ZM93.6985 62.0356H103.567V37.3615H93.6985V62.0356Z" fill="black"/>
<path d="M117.412 62.5841H107.011C106.864 62.5841 106.745 62.4617 106.745 62.3094V21.6056C106.745 21.4541 106.864 21.3308 107.011 21.3308H117.412C117.559 21.3308 117.678 21.4533 117.678 21.6056V62.3094C117.678 62.4609 117.559 62.5841 117.412 62.5841ZM107.277 62.0354H117.146V21.8803H107.277V62.0354Z" fill="black"/>
<path d="M130.991 62.5842H120.59C120.443 62.5842 120.324 62.4617 120.324 62.3094V37.9933C120.324 37.8418 120.443 37.7185 120.59 37.7185H130.991C131.138 37.7185 131.257 37.841 131.257 37.9933V62.3094C131.257 62.4609 131.139 62.5842 130.991 62.5842ZM120.856 62.0355H130.726V38.2688H120.856V62.0355Z" fill="black"/>
<path d="M144.569 62.5843H134.168C134.021 62.5843 133.902 62.4618 133.902 62.3095V28.2264C133.902 28.0749 134.02 27.9517 134.168 27.9517H144.569C144.716 27.9517 144.835 28.0741 144.835 28.2264V62.3095C144.835 62.461 144.717 62.5843 144.569 62.5843ZM134.434 62.0356H144.303V28.5012H134.434V62.0356Z" fill="black"/>
<path d="M101.666 27.705H93.4325C93.2858 27.705 93.1665 27.5826 93.1665 27.4303V21.6056C93.1665 21.4541 93.2858 21.3308 93.4325 21.3308H101.666C101.812 21.3308 101.932 21.4533 101.932 21.6056V27.4303C101.932 27.5818 101.812 27.705 101.666 27.705ZM93.6985 27.1563H101.4V21.8803H93.6985V27.1563Z" fill="black"/>
<path d="M99.9866 30.6254H93.4324C93.0805 30.6254 93.0805 30.0767 93.4324 30.0767H99.9866C100.338 30.0767 100.338 30.6254 99.9866 30.6254Z" fill="black"/>
<path d="M98.9424 32.5682H93.4324C93.0805 32.5682 93.0805 32.0195 93.4324 32.0195H98.9424C99.2942 32.0195 99.2942 32.5682 98.9424 32.5682Z" fill="black"/>
<path d="M108.874 134.286L117.342 132.149C118.451 126.168 118.549 120.262 117.715 114.379L107.728 114.155C106.581 120.317 106.093 128.696 108.874 134.286Z" fill="white"/>
<path d="M108.873 134.56C108.775 134.56 108.683 134.504 108.636 134.411C105.816 128.742 106.301 120.361 107.466 114.103C107.49 113.971 107.574 113.88 107.733 113.88L117.72 114.104C117.85 114.106 117.959 114.206 117.977 114.339C118.825 120.317 118.703 126.266 117.603 132.2C117.583 132.306 117.506 132.39 117.404 132.415L108.873 134.56ZM107.947 114.434C106.857 120.427 106.384 128.472 109.015 133.966L117.112 131.923C118.157 126.184 118.281 120.428 117.483 114.647L107.947 114.434Z" fill="black"/>
<path d="M117.78 129.41C116.734 127.651 114.758 126.585 112.64 126.851C109.031 127.305 106.952 131.292 108.529 134.636C108.863 130.702 113.479 128.307 117.78 129.41Z" fill="#81F8F8"/>
<path d="M117.98 129.463C113.3 128.14 108.302 131.018 108.517 135.304C108.589 136.731 109.45 138.006 110.756 138.622C114.306 140.297 121.393 140.748 129.052 140.566C127.982 139.613 129.154 134.924 130.871 134.772C126.247 132.59 122.344 130.697 117.981 129.464L117.98 129.463Z" fill="white"/>
<path d="M130.98 134.522C127.121 132.695 122.237 130.32 117.946 129.17C116.833 127.382 114.791 126.305 112.609 126.578C108.868 127.049 106.653 131.17 108.259 134.692C108.119 136.619 109.14 138.161 110.646 138.872C115.009 140.931 124.253 140.955 129.058 140.84C129.734 140.826 130.686 138.953 130.998 138.007C131.352 136.933 131.604 134.817 130.98 134.522ZM112.673 127.123C114.446 126.9 116.119 127.665 117.17 128.999C113.568 128.375 109.453 130.022 108.445 133.63C107.629 130.56 109.661 127.503 112.673 127.123ZM110.866 138.372C107.176 136.63 108.376 130.277 114.619 129.481C115.683 129.345 116.824 129.422 117.909 129.728C122.201 130.941 126.081 132.817 130.178 134.747C128.803 135.667 127.996 138.921 128.559 140.302C120.021 140.471 113.911 139.808 110.865 138.372H110.866Z" fill="black"/>
<path d="M114.299 119.165C118.07 118.662 120.656 114.494 120.076 109.857C119.496 105.219 115.969 101.868 112.198 102.371C108.428 102.874 105.842 107.041 106.422 111.679C107.001 116.316 110.529 119.668 114.299 119.165Z" fill="#81F8F8"/>
<path d="M113.552 119.489C107.519 119.489 103.947 110.977 107.454 105.326C111.216 99.2634 119.377 102.133 120.34 109.822C120.972 114.877 117.894 119.489 113.552 119.489ZM107.902 105.623C104.433 111.213 108.364 119.671 114.265 118.892C117.884 118.409 120.372 114.371 119.812 109.891C118.911 102.688 111.401 99.9848 107.903 105.623H107.902Z" fill="black"/>
<path d="M103.118 121.35C96.7762 122.467 91.6804 128.432 86.6705 128.547C85.7136 133.798 84.9111 139.154 85.1763 143.889H109.021L110.379 126.093C110.428 123.571 107.716 120.541 103.118 121.35Z" fill="#81F8F8"/>
<path d="M83.9332 103.978C86.7254 102.039 93.874 99.6475 99.9912 100.764C102.321 101.188 109.174 99.2692 114.057 104.34C119.028 110.697 115.882 122.902 110.379 126.094C110.429 123.572 107.717 120.542 103.118 121.351C96.7589 122.471 92.6891 127.77 87.0758 128.517C79.7053 129.496 77.9702 108.12 83.934 103.978L83.9332 103.978Z" fill="white"/>
<path d="M114.246 104.146C109.286 98.9959 102.212 100.886 100.037 100.493C93.788 99.3531 86.6463 101.762 83.7849 103.75C77.9131 107.827 79.2264 128.358 86.3529 128.815C85.3596 133.509 84.6816 137.413 84.8656 143.834C84.8694 143.981 84.9872 144.1 85.1308 144.1L109.021 144.163C109.16 144.163 109.275 144.053 109.287 143.911L110.633 126.26C116.239 122.857 119.287 110.583 114.246 104.146ZM109.864 129.328C106.521 122.507 103.111 124.297 97.2429 127.618C93.3875 129.799 90.2471 131.606 86.3787 131.364C86.5383 130.527 86.7131 129.683 86.8978 128.811C92.2938 128.368 96.8629 122.731 103.162 121.622C107.461 120.867 110.152 123.619 110.112 126.078L109.864 129.328V129.328ZM95.0458 143.578C98.3875 142.158 100.989 140.481 103.118 139.625C105.259 138.77 106.375 141.704 107.524 143.611L95.0458 143.578ZM108.774 143.614L108.159 143.612C106.975 141.818 105.697 137.997 102.925 139.113C100.441 140.111 97.5705 142.059 93.5919 143.574L85.3884 143.552C85.3725 142.91 85.3649 142.293 85.3664 141.698C92.841 141.294 97.6769 136.894 103.036 134.797C105.355 133.891 107.327 136.837 108.507 138.597C108.728 138.926 108.923 139.219 109.092 139.444L108.774 143.614ZM109.157 138.599C107.558 136.236 105.538 133.23 102.848 134.282C97.4626 136.388 92.6845 140.741 85.3695 141.147C85.3862 139.547 85.4637 138.105 85.5906 136.749C92.6518 136.926 97.8274 131.723 102.887 130.116C105.881 129.161 107.999 132.573 109.138 134.404C109.249 134.582 109.349 134.744 109.439 134.882L109.156 138.598L109.157 138.599ZM102.731 129.59C97.5925 131.223 92.5226 136.35 85.6453 136.201C85.8019 134.709 86.0177 133.311 86.2761 131.906C92.3273 132.676 99.1422 126.122 103.59 125.298C107.023 124.665 108.682 128.107 109.575 129.958L109.782 130.384L109.508 133.983C108.351 132.127 106.035 128.542 102.731 129.59ZM110.623 125.619C110.343 122.955 107.461 120.303 103.072 121.079C96.6349 122.212 92.5917 127.503 87.0407 128.243C80.0342 129.148 78.2817 108.231 84.0805 104.204C86.9807 102.192 94.1057 99.9701 99.944 101.033C102.238 101.451 109.087 99.5674 113.849 104.512C118.548 110.523 115.855 122.128 110.623 125.62V125.619Z" fill="black"/>
<path d="M94.1263 116.599L112.736 116.187C113.934 116.161 114.869 115.114 114.798 113.879L114.585 110.136C114.521 109.015 113.62 108.114 112.533 108.084L94.0853 108.327C92.9141 108.343 91.9801 109.337 92.0013 110.548L92.0713 114.46C92.0925 115.629 92.9947 116.57 94.1263 116.599V116.599Z" fill="#FFD997"/>
<path d="M115.064 113.863L114.851 110.119C114.779 108.856 113.764 107.842 112.54 107.809L94.0816 108.052C93.0123 108.067 92.1489 108.796 91.8503 109.749C91.5774 110.263 91.3046 110.978 91.3137 111.509L91.3836 115.42C91.4072 116.728 92.4172 117.78 93.6819 117.815L112.304 117.404C113.871 117.369 115.156 115.502 115.063 113.864L115.064 113.863ZM112.527 108.358C113.477 108.383 114.264 109.171 114.32 110.151L114.533 113.895C114.596 114.975 113.777 115.889 112.731 115.913L94.1333 116.323C93.1445 116.297 92.3564 115.476 92.3382 114.453L92.2683 110.541C92.2493 109.502 93.048 108.615 94.0892 108.6L112.527 108.358Z" fill="black"/>
<path d="M112.702 114.474C112.96 114.468 113.158 114.246 113.143 113.979L112.93 110.236C112.917 110.003 112.716 109.802 112.491 109.796L94.1076 110.039C93.9829 110.041 93.8758 110.089 93.7891 110.182C93.609 110.375 93.6561 110.174 93.7321 114.428C93.7367 114.677 93.929 114.877 94.1706 114.885L112.702 114.474Z" fill="white"/>
<path d="M113.408 113.964L113.195 110.22C113.173 109.845 112.861 109.532 112.487 109.522L94.1035 109.765C93.7136 109.77 93.3868 110.099 93.3952 110.52L93.4651 114.433C93.4719 114.829 93.779 115.148 94.1757 115.159L112.708 114.749C113.117 114.739 113.432 114.385 113.408 113.964ZM112.828 114.138C112.742 114.234 112.806 114.692 94.1772 114.611C94.0784 114.611 93.9994 114.526 93.9971 114.424L93.9272 110.511C93.9249 110.398 94.0115 110.317 94.1103 110.316L112.483 110.072C112.569 110.075 112.658 110.164 112.663 110.253C112.891 114.368 112.906 114.051 112.828 114.138H112.828Z" fill="black"/>
<path d="M112.144 111.865L110.312 111.898L109.102 110.879C108.968 110.769 108.791 110.815 108.71 110.944L107.544 112.813L105.935 111.098C105.815 110.969 105.598 110.991 105.51 111.159L105.077 111.988L104.034 112.009C103.879 112.012 103.904 112.025 103.085 112.982C102.347 112.058 102.308 111.955 102.167 111.999L100.825 112.029L99.8584 110.773C99.736 110.614 99.5012 110.644 99.4138 110.818L98.27 113.102L97.8398 112.244C97.7935 112.152 97.6977 112.092 97.5974 112.097L94.4282 112.178C94.2815 112.182 94.1652 112.307 94.169 112.459C94.1728 112.61 94.3074 112.76 94.4419 112.726L97.4454 112.65L98.0352 113.826C98.134 114.023 98.4083 114.023 98.5079 113.826L99.6996 111.448L100.493 112.477C100.599 112.616 100.637 112.583 102.052 112.55C102.943 113.666 102.911 113.677 103.075 113.679C103.249 113.679 103.238 113.634 104.162 112.555C105.277 112.532 105.375 112.576 105.473 112.389L105.807 111.75L107.396 113.443C107.512 113.565 107.715 113.554 107.811 113.401L108.997 111.499L110.052 112.387C110.151 112.471 110.095 112.448 112.154 112.413C112.468 112.408 112.538 111.897 112.144 111.864V111.865Z" fill="black"/>
<path d="M90.8046 103.012C91.2234 106.665 89.3165 116.734 86.6816 118.461C82.7805 121.018 81.7629 111.133 82.7205 105.251L90.8046 103.012Z" fill="black"/>
<path d="M84.2163 95.5099C86.035 91.807 91.8764 98.3398 90.6064 103.136L84.2163 95.5099Z" fill="#81F8F8"/>
<path d="M90.6067 103.411C90.4167 103.411 90.5254 103.482 84.016 95.6894C83.9453 95.6046 83.9309 95.4845 83.9803 95.3848C85.989 91.2973 92.2119 98.1189 90.8636 103.209C90.834 103.322 90.7329 103.411 90.6067 103.411ZM84.5389 95.4743L90.4585 102.54C91.1137 98.2367 86.1927 92.6122 84.5389 95.4743Z" fill="black"/>
<path d="M74.1108 96.4997C74.1108 96.4997 75.4697 105.19 84.8322 112.823C85.3132 113.216 85.7442 113.503 86.1363 113.34C89.529 111.92 90.463 104.975 90.6515 103.149C90.6804 102.872 90.6082 102.594 90.4486 102.368C87.9786 98.872 84.1915 92.2427 81.7306 91.2732L74.1108 96.4997Z" fill="white"/>
<path d="M86.2359 113.593C85.6842 113.825 85.1339 113.42 84.6673 113.038C75.3314 105.427 73.8616 96.6315 73.8479 96.5428C73.832 96.436 73.8768 96.33 73.9634 96.2696L81.5832 91.0431C81.6554 90.9944 81.7451 90.9834 81.8249 91.0156C84.3891 92.0251 88.1283 98.6168 90.6629 102.206C90.8613 102.486 90.951 102.831 90.916 103.177C90.7017 105.251 89.7319 112.131 86.2359 113.593ZM74.4058 96.6268C74.6596 97.8781 76.549 105.719 84.9971 112.607C85.4402 112.968 85.7845 113.186 86.0368 113.084C89.3413 111.701 90.2404 104.54 90.387 103.119C90.4083 102.909 90.3543 102.7 90.2335 102.529C87.8798 99.1977 84.1254 92.6884 81.7595 91.5824L74.4058 96.6268Z" fill="black"/>
<path d="M81.3266 89.7666C80.9367 92.1883 79.913 93.6979 76.2369 94.3251C74.8141 94.5684 73.1786 93.8604 72.294 92.7834C71.4086 96.2201 74.1347 99.5406 77.8435 99.5406C80.9998 99.5406 83.5587 97.1001 83.5587 94.0888C83.5587 92.3281 82.6839 90.7628 81.3266 89.7666Z" fill="#81F8F8"/>
<path d="M80.2523 71.4729C80.2523 79.2468 82.5269 87.1234 80.9203 91.342C80.2462 93.1114 78.4837 93.942 76.2372 94.325C75.6847 94.4192 75.1185 94.3886 74.5819 94.2238C70.6459 93.0164 70.8708 89.2029 71.7418 84.4756C72.3726 81.0538 73.5384 77.9986 74.0742 71.6181C74.0742 71.6181 74.5933 72.5193 77.4038 72.4887C79.9179 72.4612 80.2523 71.4729 80.2523 71.4729Z" fill="white"/>
<path d="M81.6154 89.648C82.2614 85.2301 80.5369 78.2765 80.5195 71.5789C80.7589 70.4265 78.3428 70.3716 77.2051 70.3716C76.1244 70.3716 73.7243 70.5027 73.8087 71.6064C73.2744 77.957 72.1123 80.9942 71.4808 84.4247C70.8659 87.7609 70.4875 90.904 72.0014 92.8626C71.1829 96.4383 74.042 99.8161 77.8443 99.8161C81.1419 99.8161 83.8255 97.2476 83.8255 94.0896C83.8255 92.2998 82.9629 90.6992 81.6154 89.648ZM72.0029 84.5267C72.6132 81.2132 73.7258 78.2498 74.2852 72.2501C75.3264 72.8459 78.6803 72.9393 79.9928 72.1889C80.1205 79.7296 82.2006 87.2295 80.673 91.2408C80.1037 92.7354 78.6803 93.6296 76.1935 94.0535C75.676 94.1437 75.1447 94.1108 74.6576 93.96C71.1631 92.8885 71.0278 89.8184 72.0029 84.5267ZM72.4498 93.3548C73.1817 94.0385 74.2753 94.5103 75.1204 94.6194C75.2618 96.1965 76.0507 98.1182 77.3761 99.247C74.2973 98.9974 72.0029 96.326 72.4498 93.3548ZM78.3185 99.2462C76.7863 98.3859 75.8325 96.2891 75.6593 94.6516C75.8667 94.6493 76.0742 94.6304 76.2802 94.5959C79.9928 93.9616 81.0651 92.3806 81.5075 90.2596C85.0301 93.3069 83.0115 98.8592 78.3185 99.2462Z" fill="black"/>
<path d="M81.4264 65.6546C81.2934 65.4144 81.0563 65.1585 80.7629 64.9937L80.7895 62.9126C78.7087 62.5813 76.7517 62.4801 75.1093 62.9676C75.1093 62.9676 74.5522 65.4073 74.6579 66.449C74.7498 67.3502 74.629 68.6007 75.294 69.1165L75.1025 72.229C75.7644 72.6325 78.5893 72.4637 79.0127 72.3358C79.436 72.2078 79.3478 71.6426 79.3478 71.6426L79.4337 69.6942C79.7757 69.589 80.0964 69.37 80.3381 68.9705C81.2668 67.435 81.7449 66.2292 81.4264 65.653V65.6546Z" fill="white"/>
<path d="M83.9028 62.2688C83.0661 62.2751 81.7931 62.9824 81.0414 64.0225C81.0513 63.2508 81.0414 62.991 81.0848 62.6982C81.1767 62.0678 81.404 60.508 81.4458 60.1038C81.499 59.5935 81.6396 57.536 81.6396 57.0077C81.6396 56.4794 81.41 56.2243 81.0574 56.2792C80.7048 56.3342 80.5991 56.7165 80.4752 57.299C80.3514 57.8814 80.1051 60.0127 80.0344 60.3039C79.9835 60.5127 79.7791 61.7805 79.6674 62.4807C79.5883 62.4721 79.51 62.4635 79.4325 62.4548C79.4211 61.9391 79.4181 61.0772 79.4842 60.1728C79.5222 59.6618 79.0966 56.6757 79.0966 56.1481C79.0966 55.6206 78.8671 55.3647 78.5144 55.4197C78.1618 55.4746 78.0334 55.8271 77.9855 56.4213C77.9148 57.2958 78.1162 60.0763 78.0736 60.373C77.9862 60.9822 77.9391 61.8143 77.9163 62.3598C77.8608 62.3591 77.8061 62.3583 77.7514 62.3583C77.7438 61.8881 77.7468 61.1878 77.8008 60.4562C77.8342 59.997 77.452 57.3139 77.452 56.8389C77.452 56.364 77.2232 56.1207 76.9063 56.1701C76.5894 56.2196 76.4738 56.5359 76.4313 57.0705C76.3682 57.8563 76.5491 60.355 76.5103 60.6219C76.4305 61.1784 76.3887 61.943 76.3682 62.4321C76.2884 62.4415 76.2101 62.4525 76.1326 62.4635C76.1288 62.0906 76.1349 61.5819 76.1736 61.052C76.201 60.6823 75.9221 58.5212 75.8932 58.1405C75.8582 57.6883 75.5915 57.4489 75.2974 57.602C75.0671 57.7221 74.9493 57.8963 74.9143 58.3265C74.8634 58.9592 75.0093 60.9704 74.9782 61.1855C74.9227 61.5725 74.89 62.0843 74.871 62.4705C74.8353 63.2226 74.2744 65.3201 74.3922 66.4764C74.4766 67.2991 74.3732 68.5182 74.9614 69.176L74.8353 72.2147C74.8292 72.367 74.9934 72.5162 75.191 72.557C76.2246 72.7666 78.0022 72.8003 79.1962 72.4911C79.4956 72.4133 79.5587 72.2752 79.5625 72.1574L79.6339 69.9139C79.9828 69.7805 80.3096 69.534 80.5634 69.1148C81.6586 67.3046 82.0074 66.1632 81.6601 65.5226C82.5227 64.5743 83.4491 63.5201 84.241 63.3105C84.8521 63.1496 84.7867 62.2586 83.9013 62.2657L83.9028 62.2688ZM79.0381 71.9706C77.9353 72.2477 76.3256 72.2124 75.3779 72.0318L75.4813 69.5277C76.2496 69.8119 77.0689 69.5921 77.5348 69.7765C78.022 69.9681 78.5798 70.089 79.0989 70.0395L79.0381 71.9706ZM80.1135 68.8267C79.5275 69.7962 78.3655 69.5167 77.7256 69.2639C77.037 68.9907 76.6448 69.2867 75.7366 69.0363C74.8695 68.7953 75.0291 67.471 74.9234 66.4214C74.8383 65.587 75.2153 63.7407 75.3346 63.1904C76.6623 62.8301 78.3206 62.8167 80.5216 63.1503L80.5034 64.5924C80.0823 64.4739 79.5944 64.561 79.1635 64.9213C77.9361 65.9504 77.6815 66.956 77.6716 66.9984C77.5865 67.3485 78.0987 67.4828 78.1869 67.1334C78.1892 67.124 78.4202 66.2527 79.4986 65.3483C79.7532 65.1356 80.0253 65.0587 80.3058 65.1097C80.6698 65.1819 81.0247 65.4818 81.1972 65.7927C81.3318 66.036 81.3698 66.7535 80.1142 68.8275L80.1135 68.8267Z" fill="black"/>
<path d="M96.262 95.0818L95.5499 101.515C95.4784 102.157 95.7353 102.791 96.2278 103.191C98.8635 105.331 102.872 105.769 105.443 103.212C105.64 103.016 105.757 102.747 105.764 102.463L105.957 95.9249L96.262 95.0811V95.0818Z" fill="#81F8F8"/>
<path d="M101.065 76.9861C97.709 76.9861 95.1067 78.6825 94.1727 80.6921C93.2386 82.7017 92.4551 85.2082 92.4551 85.2082L93.5221 87.4776L92.4938 89.6591L94.3551 97.4919L101.381 97.9016L106.741 95.4666C107.51 92.365 108.578 85.8542 108.668 82.4144C108.668 79.4164 105.264 76.9861 101.065 76.9861Z" fill="white"/>
<path d="M108.669 82.4153C108.578 85.8701 107.502 92.4154 106.742 95.4675L101.381 97.9025L103.078 89.9379L103.984 87.882C104.082 87.6591 104.056 87.7132 103.033 85.454C103.033 85.454 103.323 82.4757 104.434 80.087C105.037 78.7886 106.675 78.2092 107.963 80.1301C108.415 80.8249 108.669 81.5989 108.669 82.4137V82.4153Z" fill="#81F8F8"/>
<path d="M92.4385 85.1611L94.0056 85.1454C94.0056 85.1454 94.2898 84.0919 95.3379 84.0181C96.585 83.9302 96.9255 85.1744 96.9255 85.1744L98.3528 85.2011C98.3528 85.2011 98.8111 83.9498 100.14 84.0707C101.468 84.1916 101.625 85.2812 101.625 85.2812L103.025 85.3927L104.079 87.6228L103.044 89.9237L92.5563 89.6207L93.5526 87.4815L92.4385 85.1611Z" fill="#FFD997"/>
<path d="M95.3514 93.0167C95.1888 92.6949 95.6615 92.4413 95.8234 92.7639C96.6252 94.3551 98.7965 94.1024 99.9874 92.7836C100.23 92.5167 100.616 92.8942 100.377 93.158C98.9478 94.7421 96.3349 94.9698 95.3514 93.0167Z" fill="black"/>
<path d="M101.066 76.7122C97.3792 76.7122 94.8271 78.6519 93.9334 80.5744C93.0024 82.5777 92.2105 85.0999 92.2029 85.125C92.1565 85.2726 92.1421 85.176 93.203 87.4274C93.2403 87.5067 93.2813 87.3779 92.2553 89.5398C92.1899 89.678 92.1983 89.5603 94.0968 97.5578C94.1249 97.6748 94.2237 97.7604 94.34 97.7674L95.6882 97.8459L95.2854 101.484C95.2049 102.216 95.5028 102.953 96.0629 103.408C98.8141 105.641 102.979 106.043 105.627 103.41C105.878 103.162 106.02 102.828 106.03 102.473L106.22 96.0051C106.881 95.7044 106.957 95.7052 106.998 95.5365C107.724 92.6115 108.886 86.0505 108.934 82.4238C108.98 78.9384 104.89 76.7129 101.064 76.7129L101.066 76.7122ZM94.4129 80.8122C96.1465 77.0842 102.257 76.1886 106.025 78.6205C105.206 78.6668 104.539 79.2257 104.194 79.9691C103.257 81.9842 102.898 84.3683 102.799 85.1603C102.47 85.1313 102.135 85.1054 101.789 85.0826C101.213 83.4004 98.6963 83.3219 98.2441 84.946C98.2441 84.946 97.4309 84.9264 97.1603 84.9217C96.6223 83.46 94.2921 83.2347 93.7882 84.9217C93.4888 84.924 93.1354 84.9272 92.8268 84.9311C93.0784 84.1657 93.7054 82.3343 94.4129 80.8122ZM93.6818 87.7705C93.7677 87.5891 93.7685 87.3709 93.6818 87.1872L92.8785 85.479C93.2509 85.4743 93.6811 85.4704 93.998 85.468C94.1249 85.468 94.2343 85.3738 94.2571 85.2443C94.5087 83.8643 96.4209 84.0503 96.7051 85.2577C96.734 85.3793 96.8389 85.4657 96.9597 85.4673C97.2842 85.472 98.2297 85.4947 98.2297 85.4947C98.4607 85.4885 98.6613 85.3495 98.7282 85.1258C99.0816 83.9577 100.963 84.0841 101.313 85.3542C101.356 85.5057 101.486 85.6141 101.637 85.6235C102.056 85.6502 102.462 85.6816 102.857 85.7177L103.741 87.67C103.775 87.7485 103.805 87.6244 102.914 89.6615L92.9135 89.397L93.6803 87.7705H93.6818ZM94.568 97.2297L92.8367 89.9441L102.75 90.2063L101.171 97.6151L94.568 97.2297ZM105.26 103.014C102.686 105.574 98.7708 104.905 96.3935 102.975C95.977 102.637 95.7551 102.09 95.8151 101.546L95.8797 100.966C98.4637 103.328 102.557 104.16 105.514 101.984C105.498 102.52 105.525 102.751 105.26 103.015L105.26 103.014ZM105.536 101.223C105.488 101.299 105.427 101.367 105.354 101.422C102.433 103.71 98.4227 102.633 96.1305 100.458C96.0682 100.399 96.0097 100.334 95.9573 100.265L96.1594 98.4402C98.6743 100.874 102.706 101.695 105.589 99.4458L105.536 101.223ZM105.615 98.5697C105.566 98.7126 105.479 98.8374 105.362 98.9324C102.544 101.223 98.6857 100.163 96.4839 98.0014C96.4459 97.9645 96.4102 97.9252 96.3768 97.8852L101.382 98.1764C101.467 98.1764 101.188 98.2902 105.682 96.2492L105.614 98.5697H105.615ZM106.517 95.2696L101.754 97.433L103.321 90.0517L104.226 87.9965C104.304 87.8191 104.304 87.6166 104.225 87.4376L103.306 85.4084C103.359 84.9374 103.693 82.3171 104.674 80.2062C104.95 79.6127 105.456 79.2171 105.996 79.1731C107.296 79.053 108.402 80.9472 108.403 82.412C108.316 85.6808 107.326 91.9467 106.516 95.2703L106.517 95.2696Z" fill="black"/>
<path d="M95.337 87.8725C95.7626 87.8725 96.1077 87.5161 96.1077 87.0765C96.1077 86.6369 95.7626 86.2805 95.337 86.2805C94.9114 86.2805 94.5664 86.6369 94.5664 87.0765C94.5664 87.5161 94.9114 87.8725 95.337 87.8725Z" fill="white"/>
<path d="M95.3345 88.1472C94.8443 88.1472 94.3936 87.779 94.3131 87.2405C94.2257 86.6573 94.614 86.1093 95.1787 86.0183C95.7411 85.928 96.2739 86.3299 96.362 86.9124C96.4585 87.5545 95.9813 88.1472 95.3345 88.1472ZM95.3368 86.5552C95.0282 86.5552 94.7911 86.8418 94.8382 87.1565C94.8793 87.4297 95.1209 87.6338 95.4143 87.5922C96.0269 87.4933 95.9569 86.556 95.3368 86.556V86.5552Z" fill="black"/>
<path d="M99.8473 87.8725C100.273 87.8725 100.618 87.5161 100.618 87.0765C100.618 86.6369 100.273 86.2805 99.8473 86.2805C99.4217 86.2805 99.0767 86.6369 99.0767 87.0765C99.0767 87.5161 99.4217 87.8725 99.8473 87.8725Z" fill="white"/>
<path d="M98.8241 87.2404C98.7359 86.6579 99.122 86.1092 99.6897 86.0181C100.601 85.8721 101.226 86.9436 100.685 87.709C100.14 88.476 98.9639 88.1792 98.8248 87.2396L98.8241 87.2404ZM99.8478 86.5551C99.3621 86.5551 99.1577 87.2011 99.5499 87.4971C99.7695 87.6627 100.088 87.6203 100.254 87.384C100.499 87.0378 100.257 86.5543 99.847 86.5543L99.8478 86.5551Z" fill="black"/>
<path d="M96.6999 88.4352C96.7599 88.3567 96.8815 88.3842 96.9035 88.4823C97.0464 89.1292 97.1163 90.0414 96.9993 90.9606C96.9697 91.1961 96.7538 91.3578 96.5289 91.3146C96.1101 91.2346 95.5158 91.0462 95.5036 90.6191C95.4884 90.0916 96.3495 88.8976 96.6999 88.4352Z" fill="#81F8F8"/>
<path d="M96.4802 91.5838C95.4701 91.3922 95.2467 90.9573 95.2376 90.6268C95.2216 90.0671 95.9079 89.0309 96.4908 88.2648C96.6884 88.0049 97.0905 88.0976 97.1627 88.4194C97.3359 89.1997 97.3717 90.1386 97.263 90.9966C97.2136 91.3859 96.8571 91.656 96.4802 91.5838ZM96.7074 88.8771C96.0105 89.8387 95.7635 90.4078 95.7688 90.6104C95.7741 90.7815 96.0911 90.9518 96.5767 91.0445C96.6588 91.0586 96.7257 91.0005 96.7348 90.9259C96.8191 90.261 96.8077 89.52 96.7067 88.8779L96.7074 88.8771Z" fill="black"/>
<path d="M107.437 92.6859C105.951 92.6859 104.747 90.7611 104.747 88.3873C104.747 86.0134 105.951 84.0886 107.437 84.0886H109.498V92.6867L107.437 92.6859Z" fill="white"/>
<path d="M109.478 92.6859C110.797 92.6859 111.865 90.7611 111.865 88.3873C111.865 86.0134 110.797 84.0886 109.478 84.0886C108.159 84.0886 107.091 86.0134 107.091 88.3873C107.091 90.7611 108.159 92.6859 109.478 92.6859Z" fill="#FFD997"/>
<path d="M112.131 88.3873C112.131 85.8416 110.983 83.8437 109.512 83.8147H107.437C105.807 83.8147 104.48 85.8651 104.48 88.3873C104.48 90.9095 105.807 92.9607 107.437 92.9607H109.512C110.984 92.9301 112.131 90.9331 112.131 88.3873ZM107.437 92.412C106.1 92.412 105.012 90.6065 105.012 88.3873C105.012 86.1681 106.1 84.3626 107.437 84.3626H108.199C106.368 86.0653 106.368 90.7094 108.199 92.412H107.437ZM109.479 92.412C108.329 92.412 107.358 90.5688 107.358 88.3873C107.358 86.2058 108.329 84.3626 109.479 84.3626C110.629 84.3626 111.6 86.2058 111.6 88.3873C111.6 90.5688 110.629 92.412 109.479 92.412Z" fill="black"/>
<path d="M109.478 90.6481C108.323 90.6481 108.324 86.1257 109.478 86.1265C110.633 86.1272 110.633 90.6489 109.478 90.6481Z" fill="white"/>
<path d="M109.479 90.9221C108.642 90.9221 108.346 89.5546 108.346 88.3834C108.346 87.2161 108.644 85.8518 109.479 85.8518C110.996 85.8518 111.007 90.9221 109.479 90.9221ZM109.08 89.849C109.191 90.1772 109.341 90.3726 109.479 90.3734C110.081 90.375 110.324 87.6597 109.758 86.6454C109.146 85.5543 108.551 88.2916 109.08 89.849Z" fill="black"/>
<path d="M113.51 89.2022C113.801 89.2092 114.039 88.9643 114.034 88.6645L113.832 76.7859L113.205 76.771L112.681 87.5097C112.678 87.5788 112.622 87.6322 112.555 87.6306L109.518 87.5584C109.311 87.5537 109.276 89.1009 109.484 89.1064L113.511 89.2022H113.51Z" fill="white"/>
<path d="M114.264 74.6459C113.805 74.4175 113.335 74.4049 112.866 74.613C112.764 74.6585 112.703 74.7684 112.717 74.8838C112.976 76.9829 112.943 76.6657 112.939 76.7576L112.422 87.3527L109.524 87.2844C109.129 87.3245 109.09 87.8528 109.079 88.3136C109.062 89.0452 109.184 89.3741 109.477 89.3812L113.519 89.4777C113.954 89.4777 114.307 89.1064 114.297 88.6574C114.028 74.956 113.972 77.4523 114.402 74.9238C114.421 74.81 114.366 74.697 114.265 74.6459H114.264ZM113.693 88.8536C113.586 88.9635 113.901 88.9376 109.635 88.8356C109.593 88.597 109.604 88.0734 109.657 87.8379L112.549 87.9062C112.754 87.8991 112.936 87.7437 112.946 87.5246L113.457 77.0527L113.569 77.0559C113.768 88.8513 113.808 88.7351 113.693 88.8536Z" fill="black"/>
<path d="M78.4342 65.1906C78.2465 64.6867 77.6833 64.8421 77.0457 65.423C76.1268 66.2606 75.0567 67.245 75.0567 67.245C75.0567 67.245 75.7324 62.67 75.8076 61.3912C75.8829 60.1117 76.1078 58.7937 75.6199 58.716C75.132 58.6382 74.9055 59.2435 74.7558 60.1352C74.6053 61.027 73.9312 64.9575 73.9312 64.9575C74.0452 63.7062 74.2945 60.2216 74.1561 58.9868C74.0437 57.9788 73.2168 58.2968 73.1415 58.723C73.1225 58.829 73.0762 59.2372 73.0169 59.7906C72.9044 59.2804 72.4857 58.8423 72.1444 59.0135C71.8556 59.1587 71.9841 59.8032 71.8412 60.7876C71.5835 62.5664 71.8245 61.8096 71.4711 60.4854C71.3601 60.0709 70.5287 59.928 70.4967 60.6863C70.4511 61.7704 70.5773 64.2188 70.3995 64.9528C70.1745 65.883 71.0037 67.9797 70.9664 68.7553C70.9284 69.5309 70.8152 69.5811 70.7415 70.1895C70.591 71.4298 70.7042 71.159 70.5537 72.3216C70.2414 74.7449 64.8598 84.5958 62.7349 90.8421C64.4335 91.1129 65.5218 91.1734 66.7537 92.0329C68.2327 93.0652 69.299 95.4595 69.7398 96.8301C72.6301 91.4952 74.2352 73.861 75.1327 70.4603C75.1327 70.4603 76.0645 68.508 76.6717 67.7466C77.7228 66.4286 78.6234 65.6923 78.4357 65.1875L78.4342 65.1906Z" fill="#FFD997"/>
<path d="M69.956 97.6872C69.8572 96.899 68.6419 93.3547 66.7518 92.0352C65.4522 91.1277 64.313 91.1112 62.4479 90.798C60.269 90.4314 60.7387 91.5861 57.8788 94.2284C55.8253 96.1258 52.6895 96.1556 49.9452 96.4037C45.2583 96.8276 48.3902 96.585 37.4105 98.8152C36.7767 98.9439 35.6815 98.6268 34.5841 99.2148C33.9502 99.5539 33.3225 100.705 32.1741 101.981C30.9741 103.314 29.8926 103.701 29.1683 106.284C28.5261 108.577 28.8749 111.29 29.2489 113.999C29.8097 118.052 29.0247 129.126 31.2294 133.182C31.6011 136.333 31.386 139.852 31.9636 143.723L59.848 143.775C59.11 138.338 57.0147 130.664 56.9554 127.313C56.8969 123.962 56.9782 120.808 56.9782 120.808C57.7375 114.179 57.3575 111.379 55.7759 108.821C61.7434 105.127 60.0889 106.861 62.5969 105.912C63.5347 105.558 64.2529 104.781 65.0798 104.202C66.2852 103.357 67.7892 102.878 68.6594 101.672C69.1109 101.045 70.1072 98.8921 69.9567 97.6872H69.956Z" fill="#81F8F8"/>
<path d="M78.6817 65.0918C78.567 64.7833 78.3603 64.6726 78.2067 64.6341C77.7591 64.5203 77.2309 64.8876 76.8691 65.2173C76.3675 65.6741 75.8211 66.175 75.4282 66.5361C76.4618 59.3486 76.3333 58.5518 75.6592 58.4451C74.7829 58.2967 74.5823 59.5551 74.4919 60.0889C74.3991 60.6392 74.5253 59.9052 74.4189 58.9569C74.2722 57.6397 73.0083 57.9411 72.8784 58.6759C72.8708 58.719 72.8586 58.8085 72.8434 58.9357C72.582 58.6829 72.278 58.6414 72.0257 58.7694C71.6297 58.9688 71.6852 59.4986 71.6327 60.2161C71.2558 59.6635 70.267 59.7513 70.229 60.6784C70.191 61.5615 70.2989 64.2305 70.1393 64.8899C69.8817 65.9544 70.7359 67.979 70.6987 68.7451C70.6622 69.5035 70.5543 69.5058 70.4753 70.1589C70.3309 71.3466 70.4297 71.1911 70.2875 72.2901C69.9904 74.5988 64.7053 84.3485 62.5553 90.539C61.0079 90.2863 60.6355 90.6552 59.741 91.788C56.5741 95.8024 55.2053 95.6871 49.0638 96.2044C47.4974 96.3362 43.5393 96.5097 43.3364 98.0264L43.9117 97.9494C44.5349 97.1315 47.0688 96.9234 49.1056 96.7523C55.0898 96.2491 56.812 96.3692 60.1529 92.1357C61.2724 90.7172 61.3469 90.919 63.3419 91.2173C64.6924 91.4206 65.5847 91.5548 66.6023 92.2645C68.4225 93.5346 69.599 96.9823 69.6917 97.7241C69.8285 98.8153 68.8929 100.888 68.4453 101.509C67.5181 102.795 66.0437 103.039 64.1391 104.587C63.2537 105.306 62.4709 105.909 61.0383 105.994C60.2745 106.039 59.6962 106.073 55.6287 108.592C55.729 108.746 55.824 108.901 55.9152 109.056C61.8227 105.401 60.1172 107.144 62.6875 106.172C63.6778 105.797 64.4082 105.003 65.2282 104.43C66.4207 103.593 67.9551 103.108 68.8709 101.837C69.3474 101.176 70.381 98.9542 70.2184 97.6527C70.1963 97.4761 70.1295 97.195 70.0231 96.8473C72.9209 91.2581 74.4896 73.9881 75.3803 70.56C76.458 68.3282 76.8387 67.931 77.715 66.9301C78.4119 66.1342 78.8733 65.6083 78.6817 65.0918ZM77.3213 66.5613C76.4793 67.5245 75.9936 68.0339 74.8947 70.3363C74.2221 71.6991 72.5972 90.0531 69.7859 96.1533C69.2463 94.7129 68.2371 92.7409 66.9002 91.8076C65.6895 90.9629 64.6081 90.8522 63.0911 90.6222C64.1483 87.6063 65.913 83.8116 67.509 80.3827C70.4509 74.0595 70.8401 73.0744 70.9115 71.2925C71.0057 68.8912 71.5491 69.6486 70.9594 67.223C70.7724 66.4544 70.5399 65.4999 70.6554 65.021C70.7785 64.5139 70.7663 63.3498 70.7557 62.2242C70.7405 60.6863 70.7086 60.4563 70.9396 60.4242C71.0605 60.4077 71.1927 60.4861 71.2125 60.5599C71.2869 60.8378 71.3622 61.2767 71.4313 61.8309C71.3181 62.7061 71.1783 63.8161 71.1129 64.342C71.0513 64.8303 71.5856 64.8492 71.6441 64.3806C72.1708 60.1753 72.1419 60.7334 72.186 59.8706C72.1989 59.6242 72.2141 59.3164 72.259 59.2623C72.2795 59.2521 72.3266 59.2302 72.411 59.2804C72.6679 59.439 72.7165 59.8276 72.7294 59.9657C72.5531 61.6205 72.2901 64.2612 72.2749 64.4159C72.2597 64.5666 72.3661 64.7048 72.5121 64.7181C72.6519 64.7307 72.7887 64.623 72.8039 64.4731C72.9855 62.6456 73.3443 59.1029 73.402 58.774C73.4218 58.6657 73.8139 58.3337 73.8907 59.0198C74.0207 60.1839 73.7949 63.506 73.665 64.9323C73.6338 65.2777 74.1324 65.3539 74.1917 65.0069C75.0178 60.1784 75.1128 58.9201 75.5718 58.9852C75.9556 59.3244 74.8764 66.6618 74.7928 67.205C74.7556 67.4593 75.0467 67.6217 75.2329 67.4514C77.1777 65.6796 77.7416 65.08 78.0798 65.1679C78.0996 65.1726 78.1459 65.1843 78.1855 65.2895C78.2607 65.4905 77.7827 66.0345 77.3213 66.5613Z" fill="black"/>
<path d="M59.5899 143.84C59.0442 141.545 57.1108 130.346 56.7186 128.663C56.3584 127.114 56.6981 121.05 56.7125 120.792C57.6975 112.187 56.7125 110.097 53.8595 106.709C51.4191 103.148 50.3916 100.936 48.9393 99.4646C47.4413 97.9433 46.9838 97.7557 45.4395 98.0218C45.0868 98.0744 45.0093 97.539 45.3521 97.4793C47.1555 97.1724 47.781 97.5186 49.3117 99.0721C50.8286 100.61 51.8341 102.801 54.2775 106.371C57.2263 109.87 58.2515 112.032 57.243 120.842C57.2407 120.888 56.8949 127.066 57.2362 128.536C57.3965 129.227 59.8331 142.56 60.1067 143.711C60.1903 144.065 59.6735 144.193 59.5899 143.841V143.84Z" fill="black"/>
<path d="M45.7433 126.595C44.8123 125.228 43.6017 124.986 42.7345 125.21C42.9853 123.534 41.9471 122.639 41.5314 121.174C41.0298 119.41 40.9417 117.21 41.2616 114.451C41.5945 111.573 41.216 108.529 40.1946 105.878C40.0646 105.543 39.5699 105.742 39.7006 106.082C40.6901 108.649 41.0572 111.597 40.7334 114.385C39.7515 122.86 42.793 122.758 42.1516 125.419C41.1947 125.758 40.9189 125.55 40.567 125.035C40.3648 124.74 39.9286 125.054 40.1323 125.352C40.7289 126.223 41.3627 126.342 42.6471 125.814C43.3379 125.531 44.4491 125.648 45.3086 126.91C46.0063 127.936 45.5222 130.17 45.2022 130.929L43.2445 135.571C42.7953 136.635 41.9228 137.772 41.1681 138.273C39.1959 139.579 37.0961 137.718 35.209 136.569C31.5131 134.319 30.6771 132.322 30.3184 128.096C30.2614 127.42 30.2021 126.722 30.0972 126.005C29.5211 122.049 29.8023 117.936 29.3585 113.933C28.5103 106.273 29.5493 104.904 31.789 102.764C32.3362 102.242 32.9943 101.426 33.6913 100.562C34.7651 99.228 34.7408 98.9407 36.6553 99.1472C36.9965 99.1833 37.2914 99.2139 37.5156 99.1754C37.8637 99.1142 37.7694 98.571 37.4251 98.6345C37.2754 98.662 37.0011 98.6314 36.7107 98.6008C34.5668 98.3676 34.4406 98.7751 33.2831 100.21C32.5976 101.06 31.9509 101.862 31.4287 102.361C29.1199 104.567 27.9555 106.086 28.8318 113.995C29.2734 117.986 28.9899 122.079 29.5728 126.085C29.946 128.645 29.7332 130.994 31.0199 133.284C31.1491 136.737 31.2547 140.697 31.7297 143.872C31.7829 144.231 32.3096 144.146 32.2549 143.788C31.8103 140.815 31.6978 137.215 31.5838 134.149C32.3179 135.129 33.3812 136.092 34.9392 137.041C36.0746 137.734 36.8886 138.422 38.1502 138.934C39.2849 139.395 40.4492 139.403 41.4569 138.733C42.3028 138.171 43.2391 136.96 43.7331 135.789L45.6909 131.147C46.0131 130.382 46.6242 127.884 45.7449 126.592L45.7433 126.595Z" fill="black"/>
<path d="M47.8196 78.632C48.4094 79.4963 49.1808 81.0106 49.5388 81.9573C49.7576 82.5413 49.8367 82.7706 49.5502 83.3216C49.2842 83.835 49.117 83.981 49.465 84.8861C50.377 87.2749 52.027 88.0858 49.9872 88.7413C49.9887 90.2861 49.636 91.7988 49.6231 93.7449C49.6231 93.7449 49.4369 94.6853 48.452 94.7088C47.4678 94.7324 44.2545 94.1876 44.2545 94.1876C44.2545 94.1876 44.4734 97.8834 46.8795 98.6731C44.7637 100.898 38.8965 100.562 35.5259 99.7854C35.5259 99.7854 37.3575 97.724 36.4265 90.4479C35.4955 83.1725 38.9299 74.1654 47.8196 78.632Z" fill="#FFD997"/>
<path d="M50.5607 86.9712C50.623 86.9586 51.0813 87.0881 51.3161 86.0865C51.3815 85.8078 51.5327 85.4294 51.608 85.0134C51.8322 83.7841 51.364 83.547 50.9688 83.423C50.0652 83.1404 49.4762 83.3908 49.2915 84.3085C49.445 85.1704 50.2962 86.5308 50.5607 86.9712Z" fill="white"/>
<path d="M47.8898 89.2612C47.6975 88.8702 47.6625 88.5311 47.7864 88.254C47.9916 87.7971 48.5137 87.6951 48.9659 87.5758C49.3117 87.4847 49.444 88.0091 49.1088 88.1049C48.4187 88.305 48.0311 88.3356 48.364 89.0131C48.5229 89.3349 48.0471 89.5838 47.8898 89.2612Z" fill="black"/>
<path d="M48.4493 83.9482C48.4402 83.8108 48.368 83.686 48.2547 83.6122C47.4993 83.1185 45.4093 83.1161 44.6972 83.6216C44.5923 83.6962 44.5269 83.8171 44.5216 83.949C44.5041 84.3509 44.5269 85.3934 44.6812 86.1289C44.8089 86.7357 45.1501 86.8645 45.8334 86.9665C46.7598 87.1047 47.9728 87.1439 48.2494 86.3715C48.526 85.5991 48.4789 84.3988 48.4485 83.949L48.4493 83.9482Z" fill="white"/>
<path d="M47.5955 85.1169C47.5606 85.0839 46.7747 84.3986 45.6286 85.1405C45.3269 85.332 45.0495 84.8665 45.3459 84.6742C46.5452 83.8994 47.5742 84.3563 47.9512 84.7071C48.2126 84.9497 47.8577 85.3532 47.5963 85.1161L47.5955 85.1169Z" fill="black"/>
<path d="M47.1996 85.1823C47.2785 84.9562 47.1788 84.712 46.9771 84.6367C46.7754 84.5621 46.5478 84.6838 46.4689 84.9099C46.39 85.1359 46.4897 85.3801 46.6915 85.4554C46.8932 85.53 47.1207 85.4083 47.1996 85.1823Z" fill="black"/>
<path d="M51.046 83.1608C50.27 82.9167 49.6202 83.0635 49.3086 83.551C49.2524 83.6381 49.0989 83.9066 49.0616 84.0966C49.0168 84.3266 49.0951 84.1499 48.7325 84.2787C48.7196 83.9066 48.728 83.5949 48.3974 83.3799C47.5409 82.8202 45.3452 82.828 44.5472 83.3948C44.3739 83.5172 44.2652 83.7198 44.2561 83.9364C44.2485 84.1028 44.2478 84.3886 44.2614 84.723L41.793 84.9506C41.4578 84.982 41.4791 85.4986 41.8165 85.4986L44.2957 85.2709C44.4173 86.7012 44.605 87.0607 45.7966 87.2373C46.7862 87.3834 48.1549 87.4281 48.5 86.4657C48.6664 86.0033 48.7234 85.4075 48.7363 84.8886C48.8268 84.8329 48.9658 84.767 49.0874 84.7724C49.26 84.7929 48.9628 84.8439 50.3346 87.1157C50.403 87.2295 50.5003 87.2648 50.5862 87.2444C51.1402 87.2986 51.4435 86.709 51.5742 86.1501C51.6403 85.8691 51.7877 85.5119 51.8691 85.0629C52.1206 83.6821 51.5613 83.3202 51.046 83.1593V83.1608ZM48.0014 86.2757C47.7947 86.8527 46.7307 86.8229 45.8727 86.6941C45.194 86.5929 45.029 86.4822 44.9424 86.0708C44.7904 85.3463 44.7729 84.3187 44.7881 83.9608C44.8056 83.5376 47.2505 83.2794 48.1139 83.8446C48.1549 83.8713 48.1815 83.9176 48.1846 83.967C48.2081 84.3226 48.2651 85.5402 48.0014 86.2757ZM51.3469 84.9632C51.2732 85.3683 51.1303 85.7121 51.0574 86.023C50.97 86.3982 50.8491 86.618 50.6971 86.6792C50.3278 86.0716 50.0139 85.5622 49.735 84.8439C49.7737 84.7536 49.7646 84.6461 49.7015 84.5629C49.5875 84.4113 49.6027 84.5008 49.5624 84.3109C49.6764 83.7394 50.0374 83.4183 50.8917 83.6876C51.166 83.7731 51.5415 83.8909 51.3469 84.964V84.9632Z" fill="black"/>
<path d="M46.1909 90.7712C46.5717 91.0743 46.9585 91.3835 47.2336 91.7902C47.3568 91.9723 47.4723 92.1866 47.676 92.258C48.2224 92.4504 48.7985 91.8632 48.7681 91.5131C48.4884 91.3576 47.6007 91.2501 47.2937 91.1504C46.9243 91.0303 46.5618 90.8851 46.1909 90.7712Z" fill="white"/>
<path d="M47.8989 92.5712C47.4748 92.5712 47.275 92.342 47.0614 92.0186C46.7741 91.5837 46.4808 91.3497 46.0278 90.9886C45.7968 90.8057 45.9814 90.4227 46.2657 90.5074C46.6381 90.6228 46.9976 90.7673 47.3722 90.8889C47.68 90.9894 48.551 91.0805 48.893 91.272C49.3224 91.5115 48.7288 92.5704 47.8982 92.5704L47.8989 92.5712ZM47.3084 91.4408C47.5189 91.7014 47.6208 91.9495 47.7606 91.9989C48.016 92.0853 48.3124 91.8969 48.4454 91.6857C48.1087 91.5907 47.6253 91.5224 47.3084 91.4408Z" fill="black"/>
<path d="M44.7635 82.3004C47.1461 80.7077 48.2633 82.0233 48.3105 82.0814C48.5347 82.3554 48.1372 82.7133 47.9054 82.4378C47.8666 82.3923 47.0154 81.4487 45.0531 82.762C44.7582 82.9583 44.4694 82.4983 44.7635 82.3004Z" fill="black"/>
<path d="M49.7119 84.7848C49.4133 84.0077 49.5326 83.93 49.7841 83.4519C50.136 82.7839 50.0099 82.4542 49.7864 81.8584C49.43 80.9164 48.7262 79.5363 48.1608 78.6618C48.7726 77.9914 48.4534 76.6255 47.302 76.5871C47.2214 76.1969 46.9623 75.828 46.5792 75.576C45.5813 74.9213 44.4877 75.2235 43.4723 74.5068C42.878 74.0876 42.0747 74.0241 41.4097 74.3538C41.2035 74.4553 41.0109 74.4456 40.8321 74.3247C39.9573 73.7328 38.7573 73.7603 37.9015 74.3734C37.2213 73.9597 36.2166 74.2038 35.8313 74.9527C35.6611 75.284 35.5813 75.7456 35.354 75.8194C34.9976 75.9363 34.99 75.6953 34.5355 76.3288C34.1623 76.8485 33.4077 76.3406 32.729 77.8454C31.6338 80.2727 30.4201 84.8139 32.8194 86.4357C33.1705 86.6735 33.169 86.6735 33.2329 86.9404C33.4343 87.7804 33.736 88.0913 34.4679 88.7624C34.9596 89.213 35.5075 89.6958 35.4688 90.3505C35.4224 91.1143 35.6253 91.6975 36.3511 91.8498C36.4872 93.3924 36.7205 97.6926 35.3533 99.6551C35.297 99.7352 35.2218 100.022 35.5562 100.092C39.2239 100.852 43.1235 101.271 46.4812 99.3976C46.6735 99.2908 46.8467 99.166 46.9972 99.0247C47.1241 98.907 47.1105 98.695 46.9683 98.5946C45.0676 97.2506 44.8753 96.5017 44.5508 94.522C45.9119 94.8156 48.2003 95.5605 49.3783 94.5918C49.6945 94.3328 49.8723 93.9717 49.8685 93.6012C49.8389 91.4016 50.2075 90.1739 50.2135 88.9508C50.4028 88.8825 50.5897 88.7985 50.7478 88.691C52.0109 87.8346 50.5289 86.9295 49.7104 84.7833L49.7119 84.7848ZM50.4575 88.2333C50.0418 88.5152 49.4049 88.574 49.0264 88.7483C48.7087 88.8975 48.92 89.3967 49.2453 89.2499C49.3737 89.1895 49.468 89.1714 49.6793 89.1149C49.6093 90.6315 49.3076 91.2736 49.338 93.6106C49.3388 93.704 49.3137 93.9466 49.05 94.1632C48.7308 94.4246 47.8765 94.7826 45.7409 94.2394C42.5406 93.4253 41.5359 93.7079 40.8937 92.7699C40.6915 92.4723 40.256 92.7903 40.4597 93.087C41.1209 94.0533 42.0557 94.0282 43.9983 94.4089C44.2688 96.4311 44.5409 97.4657 46.3695 98.8308C43.4723 100.726 39.0849 100.165 36.0099 99.6158C37.1947 97.4775 37.0465 93.6954 36.8885 91.8702C37.4737 91.7949 38.1767 91.4346 38.3955 91.1292C38.7573 90.6252 38.4799 90.0655 38.4229 89.611C39.5363 90.3725 40.4909 90.137 40.9104 89.516C41.1125 89.2177 40.6748 88.9037 40.4749 89.202C40.2477 89.5364 39.6845 89.746 38.8447 89.2366C37.8567 88.636 37.0944 87.227 37.2137 86.2222C37.3726 84.8861 39.2635 84.9026 39.8783 86.3431C39.9216 86.4451 40.0189 86.5307 40.1253 86.5071C42.1081 86.4789 42.4912 85.4678 41.5807 84.182C41.3747 83.8923 41.3048 83.795 41.51 83.4409C41.6924 83.1253 41.5875 82.754 41.2395 82.4236C41.5936 82.0201 41.621 81.3175 41.2433 80.9116C41.8931 80.8065 42.2807 80.2083 42.1857 79.6604C43.7657 79.8417 44.0743 81.0153 45.6551 79.5952C46.2365 79.6627 47.1424 79.4806 47.5323 79.001C47.5946 78.9892 47.6539 78.9727 47.7116 78.9531C48.2527 79.7883 48.9519 81.1566 49.2917 82.0554C49.5447 82.7328 49.5333 82.7862 49.2415 83.331C49.0827 83.6277 48.9428 83.8829 49.0295 84.3578C49.1853 85.2378 49.9468 86.4734 50.3344 87.1155C50.8314 87.9382 50.779 88.0159 50.4575 88.2333Z" fill="black"/>
<path d="M43.8947 129.035C43.8947 129.035 51.874 133.391 54.9968 135.256C58.1196 137.119 60.9643 137.638 62.5618 137.622C66.1338 137.583 66.5526 136.693 67.3962 137.385C68.4838 138.276 68.5149 138.199 69.278 138.915C69.5941 139.212 69.7226 139.906 70.0813 140.551C70.5897 141.464 71.4713 142.308 71.8779 142.603C71.8779 142.603 72.2176 142.998 71.998 143.427C71.7784 143.855 70.6057 143.73 69.8974 143.25C69.8974 143.25 69.3312 144.633 67.5725 143.22C65.8139 141.808 64.9551 141.069 64.9551 141.069C64.9551 141.069 62.7906 141.762 61.9842 141.686C61.1779 141.611 58.8827 140.753 58.8827 140.753L47.4287 139.29C47.4287 139.29 43.6675 138.886 39.1128 136.767C40.6495 133.852 42.1627 130.459 43.8947 129.035Z" fill="#FFD997"/>
<path d="M71.9192 142.375C71.8599 142.295 70.8925 141.643 70.0337 139.703C69.697 138.945 69.662 138.783 68.4916 137.899C67.1381 136.881 67.2741 136.675 65.859 136.979C62.3888 137.727 59.1543 137.419 55.1301 135.018C52.3918 133.383 45.8527 129.796 44.3365 128.966C44.4855 128.863 44.5775 128.815 44.5775 128.815C44.8944 128.655 44.6618 128.162 44.3472 128.319C44.2909 128.347 42.9511 129.027 41.8156 131.191C41.1309 132.496 39.0477 136.47 38.4678 136.869C38.2527 137.016 38.3485 137.372 38.6153 137.372C38.7741 137.372 38.9398 137.177 39.0629 137.028C44.6603 139.417 46.9958 139.561 52.407 140.152C58.4034 140.803 58.6648 140.873 60.0237 141.474C61.5809 142.164 62.1236 142.018 63.9787 141.565C65.27 141.25 65.1415 141.31 65.6963 141.834C66.4761 142.57 67.9999 144.072 69.1141 144.072C69.4637 144.072 69.8604 143.818 69.9265 143.442C70.4266 143.689 71.0414 143.987 71.4305 143.987C72.4239 143.987 73.0098 142.85 71.9192 142.375ZM71.9701 143.132C71.9291 143.287 71.6745 143.476 71.312 143.43C71.0361 143.391 70.0504 142.905 69.4789 142.6C68.7546 142.047 67.588 140.931 67.1533 140.302C66.9488 140.005 66.5156 140.324 66.7208 140.62C67.2338 141.362 68.4985 142.538 69.1802 143.055C69.3565 143.189 69.4181 143.302 69.4013 143.356C69.3763 143.436 69.2265 143.524 69.1156 143.524C68.2074 143.524 66.6843 142.021 66.0581 141.43C65.3893 140.798 65.3787 140.66 63.8587 141.032C62.0149 141.478 61.6136 141.581 60.2357 140.97C58.9027 140.38 58.7872 140.294 52.4647 139.607C47.2625 139.039 44.9924 138.936 39.3996 136.577C39.9954 135.705 40.9074 134.08 42.2838 131.454C42.8302 130.413 43.4276 129.742 43.876 129.337C44.8298 129.859 51.9745 133.77 54.8641 135.494C58.6603 137.761 61.7147 137.929 62.5651 137.897C66.011 137.86 66.5498 137.041 67.2315 137.601C68.2864 138.465 68.3715 138.436 69.1004 139.12C69.3504 139.356 69.586 140.103 69.9235 140.707C70.1279 141.073 70.3605 141.431 70.5976 141.748C69.9143 141.343 69.2706 140.731 68.3092 139.299C68.1086 139 67.6708 139.314 67.8722 139.612C69.3823 141.86 70.1089 142.174 71.7984 142.918C71.9359 142.978 71.9945 143.051 71.9724 143.133L71.9701 143.132Z" fill="black"/>
<path d="M116.528 141.363L121.928 114.945H143.702L137.941 143.844H103.444V141.363H116.528Z" fill="white"/>
<path d="M103.179 141.364V143.844C103.179 143.996 103.298 144.119 103.445 144.119H137.942C138.073 144.119 138.185 144.02 138.205 143.885L143.962 115.003C144.063 114.512 144.739 114.671 121.928 114.671C121.802 114.671 121.694 114.762 121.668 114.889L116.313 141.089H103.445C103.298 141.089 103.179 141.212 103.179 141.364ZM143.374 115.22L138.086 141.089H116.856L122.143 115.22H143.374ZM137.713 143.57H116.477L116.758 141.638H137.994L137.712 143.57H137.713ZM103.711 141.638H116.22L115.939 143.57H103.711V141.638Z" fill="black"/>
<path d="M130.235 132.967C127.949 132.967 126.509 130.245 127.27 127.598C127.85 125.582 129.539 124.295 131.19 124.601C131.349 124.631 131.448 124.798 131.396 124.96C130.753 126.917 131.749 128.507 133.555 128.154C133.725 128.124 133.869 128.254 133.87 128.421C133.894 130.757 132.304 132.967 130.236 132.967H130.235ZM127.78 127.754C127.221 129.7 127.979 131.73 129.471 132.28C131.374 132.988 133.201 130.995 133.331 128.74C131.384 128.899 130.273 127.188 130.798 125.107C129.599 125.052 128.278 126.027 127.78 127.754Z" fill="black"/>
<path d="M132.233 127.022C131.999 127.02 131.899 126.864 131.923 126.705C132.11 125.456 133.034 123.138 135.167 123.254C135.32 123.263 135.436 123.403 135.416 123.565C135.129 125.879 134.061 127.037 132.233 127.022ZM134.846 123.804C133.302 123.919 132.702 125.709 132.517 126.46C134.2 126.322 134.67 124.956 134.846 123.804Z" fill="black"/>
<path d="M36.0197 141.363L30.6207 114.945H8.84668L14.6067 143.845L49.1039 143.844V141.363H36.0197Z" fill="white"/>
<path d="M49.1036 141.089H36.2353L30.8803 114.889C30.8545 114.762 30.7458 114.672 30.6204 114.672H8.84642C8.67542 114.672 8.55154 114.833 8.5865 115.003L14.3435 143.885C14.3633 144.02 14.475 144.119 14.6065 144.119H49.1036C49.2503 144.119 49.3696 143.997 49.3696 143.845V141.364C49.3696 141.212 49.2503 141.089 49.1036 141.089ZM30.4046 115.22L35.6919 141.089H14.4613L9.17398 115.22H30.4046ZM14.554 141.638H35.7899L36.0704 143.57H14.8345L14.554 141.638ZM48.8369 143.57H36.6085L36.328 141.638H48.8369V143.57Z" fill="black"/>
<path d="M22.0894 133.227C20.3946 133.227 18.7735 131.69 18.3562 129.594C17.9474 127.534 18.8449 125.577 20.4432 125.041C20.5922 124.987 20.7609 125.089 20.7875 125.256C21.1188 127.305 22.7262 128.209 24.1505 127.02C24.2736 126.917 24.4689 126.948 24.551 127.102C26.0132 129.858 24.6946 133.226 22.0886 133.226L22.0894 133.227ZM20.3284 125.679C19.1656 126.255 18.5485 127.826 18.8776 129.484C19.2736 131.473 20.8741 132.884 22.4352 132.651C24.4332 132.344 25.14 129.708 24.2219 127.648C22.7019 128.675 20.8483 127.907 20.3284 125.679Z" fill="black"/>
<path d="M22.05 126.538C21.6449 125.345 21.3934 122.847 23.3344 121.914C23.4796 121.843 23.6437 121.922 23.6954 122.066C24.5063 124.267 24.0709 125.803 22.4239 126.69C22.2856 126.765 22.104 126.699 22.05 126.538ZM23.3025 122.556C21.9748 123.417 22.2735 125.282 22.4604 126.034C23.8839 125.093 23.6734 123.658 23.3025 122.556Z" fill="black"/>
<path d="M148.474 144.119H4.07446C3.72258 144.119 3.72258 143.57 4.07446 143.57H148.474C148.826 143.57 148.826 144.119 148.474 144.119Z" fill="black"/>
</svg>
