<svg width="153" height="157" viewBox="0 0 153 157" fill="none" xmlns="http://www.w3.org/2000/svg">
<path d="M43.4274 13.7092L34.5763 89.0177C34.5128 89.5582 34.8883 90.0496 35.4151 90.1144L108.792 99.1982C109.319 99.2638 109.798 98.8784 109.861 98.3379L118.713 23.0294C118.776 22.4888 118.4 21.9977 117.873 21.9325L44.4962 12.8485C43.9695 12.7833 43.4909 13.1687 43.4274 13.7092Z" fill="white"/>
<path d="M115.303 52.0413L86.0812 48.4236L89.6061 18.4326L72.7621 16.3469L69.2373 46.3378L40.0191 42.7203L37.9868 60.0082L67.2058 63.6243L63.6809 93.6121L80.5249 95.6978L84.0497 65.71L113.272 69.3284L115.303 52.0413Z" fill="#81F8F8"/>
<path d="M108.75 99.4588L35.5655 90.4085C34.7918 90.3125 34.2416 89.5926 34.3351 88.7986L43.1427 13.864C43.2339 13.0887 43.9156 12.506 44.7106 12.6004L117.724 21.6398C118.497 21.7357 119.048 22.4564 118.955 23.2497L110.147 98.1843C110.06 98.9245 109.447 99.458 108.75 99.458L108.75 99.4588ZM44.5403 13.1362C44.1087 13.1362 43.7256 13.4662 43.6709 13.9295L34.8633 88.8641C34.8047 89.3594 35.149 89.8071 35.6293 89.8664L108.643 98.9058C109.105 98.9682 109.559 98.6281 109.619 98.1196L118.427 23.185C118.485 22.692 118.143 22.2419 117.66 22.1827L44.5403 13.1362Z" fill="black"/>
<path d="M115.513 51.8727C115.468 51.8158 115.405 51.7791 115.335 51.7706L86.3772 48.1857L89.8701 18.4661C89.8876 18.3164 89.7835 18.1806 89.6376 18.1619C72.6303 16.0403 72.7344 16.0224 72.5984 16.1324C72.5429 16.1768 72.5072 16.2423 72.4981 16.3141L69.0051 46.0344L40.0506 42.4496C39.8986 42.434 39.7725 42.5385 39.7542 42.6882C37.687 60.1431 37.6696 60.037 37.7767 60.1774C37.8208 60.2343 37.8846 60.271 37.9538 60.2796L66.9083 63.8645L63.4161 93.5801C63.3986 93.7299 63.5027 93.8656 63.6486 93.8843L80.5237 95.9716C80.6567 95.9716 80.7714 95.8702 80.7881 95.7313L84.2811 66.0157L113.271 69.6029C113.404 69.6029 113.518 69.5015 113.535 69.3627C115.589 51.9063 115.62 52.0131 115.513 51.8727ZM72.9951 16.6511L89.31 18.6713L85.849 48.1194L69.5341 46.1L72.9951 16.6511ZM80.2926 95.3944L63.9777 93.3742L67.438 63.93L83.7537 65.9502L80.2926 95.3944ZM113.04 69.0257L38.2836 59.7702L40.252 43.0244L115.008 52.2799L113.04 69.0257Z" fill="black"/>
<path d="M112.726 41.9377L94.9918 39.7444C94.8466 39.7264 94.7417 39.5899 94.7592 39.4402L96.6098 23.6935C96.6281 23.5438 96.7603 23.4369 96.9062 23.4548C114.762 25.6934 114.678 25.6084 114.786 25.7496C114.893 25.8884 114.865 25.759 112.99 41.6967C112.974 41.8355 112.859 41.9377 112.726 41.9377ZM95.3201 39.235L112.494 41.3613L114.281 26.1575L97.1069 24.0313L95.3201 39.235Z" fill="black"/>
<path d="M62.2958 19.5899L47.0176 17.6242C46.6718 17.5798 46.728 17.0385 47.0844 17.0829L62.3293 19.0462C62.6576 19.0883 62.6272 19.5899 62.2958 19.5899Z" fill="black"/>
<path d="M56.7792 22.6374L46.4766 21.288C46.1286 21.2427 46.1924 20.7053 46.5435 20.7467L56.8126 22.0937C57.1425 22.1366 57.109 22.6374 56.7792 22.6374Z" fill="black"/>
<path d="M59.9671 26.763L45.9367 24.9519C45.5909 24.9074 45.6494 24.3661 46.0036 24.4106L60.0005 26.2194C60.3288 26.2615 60.2984 26.763 59.9671 26.763Z" fill="black"/>
<path d="M55.7482 29.971L45.3947 28.6154C45.0451 28.5701 45.112 28.0304 45.4616 28.074L55.7816 29.4273C56.1115 29.4702 56.078 29.971 55.7482 29.971Z" fill="black"/>
<path d="M97.7666 36.7006L98.5646 29.9084C98.6079 29.5473 99.1354 29.6175 99.0928 29.9739L98.2948 36.7662C98.2522 37.125 97.724 37.0594 97.7666 36.7006Z" fill="black"/>
<path d="M100.249 37.0082L100.89 31.5505C100.931 31.1956 101.462 31.2549 101.419 31.616L100.777 37.0737C100.735 37.4325 100.206 37.367 100.249 37.0082Z" fill="black"/>
<path d="M102.729 37.3154L103.661 29.3937C103.702 29.0333 104.232 29.102 104.189 29.4592L103.258 37.3809C103.215 37.7397 102.687 37.6742 102.729 37.3154Z" fill="black"/>
<path d="M105.211 37.6227L105.61 34.2266C105.653 33.8709 106.182 33.9318 106.139 34.2921L105.74 37.6882C105.697 38.047 105.169 37.9815 105.211 37.6227Z" fill="black"/>
<path d="M107.694 37.9302L108.492 31.138C108.533 30.7792 109.063 30.8447 109.02 31.2035L108.222 37.9957C108.179 38.3545 107.651 38.289 107.694 37.9302Z" fill="black"/>
<path d="M110.175 38.2375L111.106 30.3158C111.149 29.9586 111.678 30.0225 111.634 30.3813L110.703 38.303C110.661 38.6618 110.133 38.5963 110.175 38.2375Z" fill="black"/>
<path d="M19.1353 78.0379C18.7569 72.6793 16.8926 46.4416 11.7557 46.6304C7.80147 46.7139 4.33131 62.6259 3.85783 82.8544C3.67847 90.5015 4.18159 99.5737 5.27447 108.407C5.44471 110.016 7.04451 124.25 10.8795 128.284C17.3037 135.038 19.3945 108.885 19.8323 99.4356C19.8361 99.3576 19.3846 81.5697 19.1353 78.0379Z" fill="black"/>
<path d="M68.0809 82.2367C65.7522 80.8967 60.5508 80.1775 58.7982 79.8811C56.7143 79.5285 54.0627 78.6705 51.636 78.2532C49.2093 77.8359 48.8483 75.836 49.473 75.1449C51.8845 72.4797 51.845 72.2449 52.5009 72.1131C55.4231 71.5242 56.7173 70.4618 57.2668 69.2832C57.7943 68.1538 57.7251 66.7311 56.6254 67.0485C55.5523 67.3582 53.9137 67.5197 52.6475 67.7365C50.9109 68.0337 50.1395 67.6374 48.9821 68.8254C47.8246 70.0133 46.9559 69.9143 45.1235 71.3994C43.2904 72.8845 42.0364 72.9836 39.9145 75.3594C37.7926 77.7361 37.1831 79.183 32.2932 80.4092C26.0293 81.9793 10.7601 79.7586 6.04053 79.0091C4.62009 88.8987 5.64609 94.5272 6.07397 97.0458C13.1944 96.0911 27.563 95.134 30.0695 95.0895C33.7995 95.0232 41.1313 96.8391 43.2539 97.2681C45.3759 97.6971 49.5885 97.8289 49.5885 97.8289C51.7751 97.3336 53.8977 97.3671 57.7243 96.8055C61.5509 96.2447 61.326 94.3298 61.326 94.3298C66.8573 93.769 64.2201 90.1716 64.2201 90.1716C67.9821 89.5773 66.0562 85.9479 66.0562 85.9479C67.3064 86.0961 68.7003 85.7997 68.9404 84.5666C69.1806 83.3334 68.853 82.6797 68.0809 82.2351V82.2367Z" fill="#FFD997"/>
<path d="M68.2099 81.9989C65.9862 80.7189 61.2901 80.0201 58.8406 79.6121C56.7643 79.2666 54.0709 78.3961 51.6792 77.9842C49.5534 77.6184 49.1461 75.9055 49.6674 75.3314C52.0622 72.6833 52.0082 72.4906 52.5516 72.3814C55.1987 71.8479 56.8198 70.8729 57.5068 69.4018C58.1604 68.001 57.8838 66.4043 56.553 66.7865C55.8409 66.9916 54.8598 67.1328 53.9105 67.2693C52.2264 67.5111 52.4148 67.5314 51.3394 67.6032C50.4176 67.6656 49.6895 67.7139 48.7934 68.6335C48.2295 69.2123 47.7484 69.4635 47.1389 69.7825C44.9623 70.9236 45.4487 71.032 43.1102 72.4345C37.5644 75.7557 39.3748 78.3547 32.2285 80.1456C24.9135 81.9779 4.87152 78.5443 4.67012 78.5092C4.32128 78.4445 4.2354 78.9873 4.5812 79.0474C5.40884 79.1909 24.9317 82.5356 32.3546 80.6753C39.7388 78.8251 37.9049 76.1886 43.3784 72.9056C45.8218 71.4423 45.2017 71.4096 47.3814 70.2692C48.0061 69.9424 48.5464 69.6592 49.1696 69.0196C49.9243 68.2451 50.47 68.2084 51.3744 68.1484C52.4802 68.0735 52.2628 68.0579 53.985 67.8099C54.951 67.671 55.9504 67.5275 56.6967 67.3122C57.0356 67.2147 57.1413 67.3465 57.1762 67.3902C57.4149 67.6819 57.3488 68.4791 57.0273 69.1663C56.4178 70.472 54.9206 71.3487 52.4498 71.8471C51.689 72 51.7217 72.2605 49.2776 74.9609C48.4583 75.868 49.0389 78.0848 51.5925 78.524C53.9561 78.9312 56.6929 79.8087 58.7555 80.1519C61.1039 80.5427 65.7977 81.2369 67.9515 82.4755C68.5595 82.8257 68.916 83.3062 68.6811 84.5152C68.4744 85.5744 67.2082 85.8123 66.088 85.679C65.8896 85.6556 65.5484 85.6049 65.1137 85.5362C65.8402 84.5035 65.7544 82.8733 65.7498 82.7976C65.73 82.4318 65.1988 82.4724 65.2186 82.8304C65.2201 82.8483 65.312 84.633 64.4973 85.4372C62.3822 85.094 57.8625 84.3062 57.1648 84.2952C56.8213 84.2898 56.8092 84.8241 57.1519 84.8412C57.9264 84.8795 64.9944 86.0729 65.0726 86.0885C65.6898 86.2117 66.3084 86.8653 66.275 87.746C66.2111 89.4479 65.2041 89.8169 63.6378 89.7638C64.3347 88.7295 64.2503 87.1391 64.2458 87.065C64.2252 86.6883 63.6856 86.7499 63.7145 87.0978C63.716 87.1157 63.8133 88.9409 62.9636 89.7326C60.9147 89.6211 56.5188 89.2046 55.584 90.0399C55.3173 90.2771 55.6699 90.6866 55.9329 90.4518C56.7423 89.7287 62.1489 90.2864 63.8627 90.3161C64.0801 90.4861 64.8408 91.178 64.4897 92.3316C64.1553 93.429 63.1377 93.9321 61.3509 93.8877C62.1064 92.9267 62.0524 91.3425 62.0486 91.2677C62.0425 91.1171 61.9004 90.9908 61.772 91.0064C61.6253 91.0126 61.5113 91.1397 61.5174 91.2903C61.5174 91.309 61.585 93.227 60.5955 93.8596C58.6544 93.7676 54.7192 93.4267 53.7198 94.2161C53.4424 94.436 53.7631 94.8681 54.045 94.649C54.8993 93.9735 59.5011 94.3744 61.1001 94.4274C61.1138 95.8268 59.3202 96.2199 58.1118 96.4359C58.3808 95.9336 58.4986 95.3486 58.5496 94.8884C58.5883 94.532 58.0624 94.4641 58.0214 94.8268C57.9613 95.3666 57.8002 96.0998 57.3792 96.5561C55.2504 96.8743 52.3449 97.0241 50.6174 97.3493C48.6574 97.719 43.2067 97.0295 35.2768 95.4079C28.6352 94.0507 23.0598 94.9883 4.5318 96.9219C4.38588 96.9375 4.27872 97.0709 4.29392 97.2214C4.30912 97.3712 4.44288 97.4819 4.58576 97.4648C22.8303 95.5608 28.5888 94.5967 35.1735 95.943C38.2325 96.5685 47.6724 98.4593 50.714 97.886C55.0938 97.0623 61.6405 97.6605 61.6306 94.4329C63.4827 94.3986 64.6083 93.7746 64.9982 92.4946C65.2908 91.5321 64.9784 90.7669 64.5931 90.2817C66.0067 90.1055 66.7507 89.2623 66.807 87.767C66.8298 87.161 66.617 86.6352 66.2909 86.2452C67.6012 86.3349 68.9464 85.9379 69.2032 84.6221C69.4518 83.3452 69.1462 82.5363 68.2122 81.9989H68.2099Z" fill="black"/>
<path d="M51.4462 95.6294C51.5617 95.3361 51.3124 94.2511 51.5959 93.8432C52.0489 93.1934 52.9669 93.0335 52.7154 91.5351C52.6591 91.2107 52.4836 90.5118 52.5277 90.1857C52.6037 89.6163 53.0855 89.3059 53.4632 88.9697C54.0887 88.4128 54.4543 87.5392 54.4147 86.6898C54.4056 86.4846 54.3752 86.2787 54.3463 86.0736C54.1761 84.8919 54.2741 84.5495 54.8707 83.6977C55.101 83.3693 55.3184 83.0589 55.3374 82.7133C55.3678 82.1705 55.0691 81.2446 54.7461 80.878C54.5105 80.6097 54.9049 80.2431 55.1413 80.5114C55.6003 81.0317 55.9043 82.1198 55.8694 82.7445C55.8405 83.2484 55.5677 83.6384 55.3032 84.0159C54.7879 84.7523 54.7233 84.9551 54.873 85.994C54.9049 86.2179 54.9369 86.4417 54.9467 86.664C54.9939 87.6913 54.5698 88.7076 53.8128 89.3816C52.8149 90.2669 53.0042 89.9993 53.2398 91.4415C53.5445 93.2465 52.3825 93.6505 52.0299 94.1598C51.9235 94.347 52.0808 95.4796 51.9394 95.8345C51.8049 96.1699 51.3139 95.9609 51.4469 95.6286L51.4462 95.6294Z" fill="black"/>
<path d="M12.4449 123.955C9.18526 123.955 7.74737 102.728 7.51937 99.3771C7.49657 99.0183 8.0255 98.9722 8.05058 99.3388C9.32586 118.067 11.3885 123.279 12.4046 123.406C12.7261 123.454 13.1304 122.83 13.4686 121.755C13.5773 121.412 14.0835 121.58 13.9748 121.923C13.5454 123.288 13.043 123.954 12.4441 123.954L12.4449 123.955ZM14.1382 118.89C14.9681 114.321 15.567 106.869 15.8231 97.9068C15.8322 97.5448 16.365 97.5636 16.3543 97.9231C16.0975 106.913 15.4963 114.395 14.6603 118.99C14.5965 119.345 14.0721 119.245 14.1374 118.89L14.1382 118.89ZM14.8328 77.5862C14.3662 66.5866 13.6259 58.8483 12.6927 55.2064C12.6037 54.8586 13.1167 54.7166 13.2079 55.0676C14.1503 58.7453 14.8967 66.5242 15.3648 77.562C15.3808 77.9232 14.848 77.9466 14.8336 77.5854L14.8328 77.5862ZM7.35597 77.1049C8.95422 47.9649 12.4502 52.6059 11.5671 53.0365C10.3997 53.6074 8.74978 61.3926 7.88718 77.1354C7.86669 77.502 7.33697 77.4552 7.35597 77.1049Z" fill="white"/>
<path d="M12.5885 115.532C12.4631 115.532 12.3514 115.441 12.3271 115.31C11.7852 112.358 11.2981 106.773 10.9165 99.1596C10.8991 98.8008 11.428 98.7673 11.4478 99.1316C12.2693 115.545 13.2794 115.532 12.5885 115.532ZM10.0425 73.1551C10.3291 68.1499 10.7136 64.161 11.1537 61.6174C11.1795 61.4692 11.3057 61.3694 11.4622 61.3959C12.0489 61.5027 11.2395 61.562 10.5738 73.1863C10.5533 73.5506 10.0228 73.5093 10.0425 73.1551Z" fill="white"/>
<path d="M140.846 65.0554C137.979 66.4399 135.684 76.4574 134.317 93.4217C134.082 96.3459 133.924 114.592 134.072 117.522C134.282 121.692 135.839 141.671 139.056 143.658C140.146 144.329 141.505 144.442 142.361 143.447C145.905 139.325 147.367 124.213 147.428 123.571C150.849 93.0122 146.673 62.2412 140.846 65.0554Z" fill="black"/>
<path d="M146.93 97.3794C142.448 97.7835 128.17 98.8591 122.065 96.7968C117.284 95.1814 116.788 93.6892 114.854 91.1488C112.92 88.6091 111.677 88.4094 109.963 86.7816C108.249 85.1537 107.376 85.1818 106.313 83.9041C105.25 82.6265 104.45 82.9588 102.742 82.5236C101.496 82.2061 99.875 81.912 98.8292 81.5173C97.7568 81.1125 97.579 82.5243 98.0183 83.6936C98.4766 84.9127 99.685 86.0765 102.554 86.8986C103.196 87.0827 103.136 87.3088 105.341 90.1652C105.911 90.9039 105.398 92.8687 102.947 93.0894C100.496 93.3102 97.7865 93.9521 95.682 94.1354C94.7062 94.2204 90.5604 94.6432 86.3409 94.8569C82.9064 95.0308 79.3139 94.938 78.2264 95.4536C77.4223 95.8343 77.1107 96.4926 77.4732 97.6945C77.6434 98.2593 79.1475 98.6851 81.0718 98.9683C80.1643 99.2499 79.7897 99.8154 79.887 100.953C79.9721 101.947 82.6503 102.72 82.6503 102.72C82.5249 103.107 81.7087 105.426 84.8893 106.349C84.7996 107.439 85.4653 108.525 86.7931 109.077C99.5132 114.363 112.455 112.337 115.439 111.971C121.271 111.255 117.599 111.451 146.422 115.606C146.924 112.252 147.681 104.961 146.93 97.3802L146.93 97.3794Z" fill="#FFD997"/>
<path d="M147.911 97.0112C147.726 97.0307 129.301 98.9542 122.15 96.537C117.48 94.9598 117.005 93.5301 115.064 90.981C113.107 88.4102 111.829 88.1808 110.145 86.5811C108.358 84.883 107.562 84.9836 106.517 83.727C105.382 82.3636 104.474 82.685 102.808 82.2583C101.581 81.9455 99.9441 81.6468 98.9227 81.2607C97.6375 80.7771 97.2149 82.3082 97.772 83.7918C98.3435 85.3143 99.8848 86.4165 102.483 87.1614C103.019 87.315 102.95 87.5046 105.133 90.3344C105.314 90.5708 105.335 90.9725 105.183 91.3586C104.646 92.7267 102.897 92.8195 101.88 92.9654C94.1073 94.0792 89.7988 94.6073 83.348 94.6899C79.4636 94.7391 77.1183 94.7695 76.9138 96.8451C76.8355 97.6391 77.1973 98.2171 77.9307 98.4729C78.6337 98.7186 79.4355 98.9152 80.2282 99.0735C79.1459 99.7974 79.285 101.334 80.352 102.001C80.8985 102.343 81.587 102.632 82.3478 102.877C81.7618 104.752 82.9041 105.882 84.6916 106.597C84.5108 108.364 85.897 108.995 87.3957 109.587C92.8275 111.731 96.8478 112.149 102.406 112.742C104.392 112.954 108.36 113.011 115.975 112.085C120.549 111.527 121.206 112.085 124.602 112.554C125.035 112.614 147.164 115.844 147.627 115.844C147.962 115.844 147.987 115.334 147.654 115.3C146.049 115.132 123.199 111.783 122.606 111.676C120.713 111.336 119.462 111.112 115.912 111.543C107.945 112.513 104.064 112.371 102.46 112.199C96.9428 111.61 92.9589 111.177 87.5857 109.077C86.3849 108.607 85.1583 108.129 85.2107 106.792C86.8577 107.368 89.5663 107.973 91.9063 108.112C93.8793 108.23 98.4993 108.505 99.292 109.239C99.5474 109.479 99.9114 109.078 99.6485 108.834C98.6187 107.88 93.171 107.642 91.5142 107.541C89.7495 107.434 85.5238 106.62 83.9165 105.617C82.8502 104.952 82.5105 104.127 82.8578 103.031C89.0883 104.814 96.6358 103.758 97.7294 104.902C97.9726 105.158 98.3557 104.779 98.1094 104.52C97.142 103.509 91.7566 103.719 89.789 103.578C87.7879 103.434 82.8897 102.947 80.6279 101.534C79.7038 100.956 79.7402 99.6008 81.207 99.2529C81.7687 99.3473 82.3007 99.423 82.7613 99.4854C85.9054 99.9089 96.1122 99.2061 96.9436 99.2108C97.0865 99.2373 97.2126 99.0969 97.2172 98.9464C97.2218 98.7959 97.1063 98.6703 96.9596 98.6656C96.1494 98.6375 85.9578 99.3668 82.8304 98.9441C80.748 98.664 79.2014 98.3411 78.1002 97.9558C77.5971 97.7803 77.3873 97.4449 77.442 96.8997C77.5917 95.3732 79.3618 95.2866 83.3525 95.2352C90.5748 95.1431 95.1386 94.4676 102.98 93.3585C105.592 92.9888 106.264 90.9257 105.547 89.9943C103.325 87.1161 103.375 86.8494 102.622 86.6349C100.198 85.9391 98.7722 84.9446 98.2645 83.5944C97.997 82.8823 97.9917 82.0828 98.2516 81.8114C98.2896 81.7708 98.4074 81.6483 98.7349 81.7724C99.8103 82.178 101.414 82.465 102.676 82.7871C104.42 83.231 105.121 82.8932 106.109 84.0804C107.188 85.3767 108.109 85.3923 109.782 86.9804C111.553 88.6652 112.723 88.7939 114.642 91.3157C116.807 94.1619 117.246 95.4551 121.98 97.0541C129.24 99.5072 147.202 97.6337 147.963 97.5533C148.311 97.5159 148.262 96.9738 147.908 97.0104L147.911 97.0112Z" fill="black"/>
<path d="M101.554 110.781C100.95 110.781 101.496 109.252 101.337 108.912C100.99 108.321 99.8276 107.902 100.414 105.84C100.693 104.861 100.743 104.81 100.109 104.189C99.196 103.297 98.8761 102.238 99.003 101.206C99.0843 100.55 99.3519 99.915 99.228 99.3503C99.079 98.674 98.3661 98.0781 98.3836 97.2248C98.3958 96.5992 98.7819 95.5384 99.2804 95.0564C99.5327 94.8091 99.9036 95.2038 99.6452 95.4542C99.2941 95.7935 98.9262 96.6928 98.9148 97.2365C98.908 97.582 99.1011 97.9089 99.3055 98.2552C99.4826 98.5563 99.6673 98.8683 99.7471 99.2302C99.9059 99.9501 99.6095 100.63 99.532 101.275C99.4286 102.115 99.6855 103.019 100.477 103.795C101.311 104.612 101.241 104.887 100.925 105.994C100.597 107.123 100.8 107.524 101.393 108.142C101.911 108.685 101.951 108.75 101.841 109.765C101.816 109.99 101.779 110.332 101.808 110.426C101.863 110.602 101.734 110.782 101.554 110.782L101.554 110.781Z" fill="black"/>
<path d="M140.789 138.834C140.207 138.834 139.719 138.176 139.298 136.827C139.19 136.482 139.7 136.317 139.804 136.66C140.291 138.218 140.7 138.299 140.822 138.286C141.066 138.257 143.254 137.425 144.847 117.356C144.875 116.978 145.404 117.053 145.377 117.401C145.127 120.54 143.709 138.834 140.789 138.834ZM138.882 134.115C138.756 134.115 138.644 134.023 138.62 133.891C137.912 129.938 137.387 123.947 137.1 116.564C137.087 116.211 137.617 116.17 137.632 116.543C138.268 132.94 139.678 134.115 138.882 134.115ZM137.188 95.4483C137.594 86.4026 138.167 79.6697 138.888 75.4366C138.912 75.2876 139.047 75.1878 139.196 75.2143C139.921 75.3438 138.624 75.3516 137.719 95.4732C137.702 95.8398 137.172 95.7993 137.188 95.4483ZM145.258 94.6917C144.726 84.5056 143.566 74.9748 142.304 70.4103C142.208 70.0632 142.72 69.9134 142.816 70.2613C144.089 74.8617 145.255 84.4401 145.789 94.6636C145.808 95.0271 145.276 95.0505 145.258 94.6917Z" fill="white"/>
<path d="M140.442 130.115C140.913 127.578 141.34 123.22 141.708 117.162C141.731 116.79 142.26 116.843 142.239 117.196C141.869 123.277 141.44 127.658 140.964 130.217C140.898 130.572 140.376 130.47 140.442 130.115ZM142.114 94.9185C141.912 88.1075 141.502 82.3675 140.988 79.1711C140.932 78.8193 141.454 78.7187 141.513 79.0822C142.038 82.3488 142.44 87.9672 142.645 94.9021C142.656 95.2563 142.124 95.2835 142.114 94.9185Z" fill="white"/>
</svg>
