<svg width="700" height="550" viewBox="0 0 700 550" fill="none" xmlns="http://www.w3.org/2000/svg">
<path d="M253.249 197.666L253.24 197.666C253.225 197.667 253.211 197.664 253.198 197.657L253.191 197.653C251.987 197.043 250.751 196.499 249.488 196.024C248.235 195.548 246.937 195.087 245.675 194.717L245.778 194.732L245.759 194.733C245.728 194.734 245.696 194.73 245.666 194.721L245.641 194.713C238.972 192.621 232.047 191.455 225.061 191.247C221.579 191.144 218.094 191.255 214.626 191.579L204.114 192.468C197.103 193.033 190.079 193.437 183.059 193.884C176.037 194.31 169.018 194.771 162.009 195.355L162.159 194.818C163.399 195.719 164.534 196.758 165.541 197.913C166.538 199.083 167.388 200.37 168.071 201.746C168.732 203.132 169.256 204.578 169.635 206.066C169.995 207.556 170.225 209.075 170.325 210.605C170.495 213.663 170.289 216.73 169.712 219.738C169.166 222.759 168.31 225.715 167.156 228.56L166.321 227.486C171.253 226.554 176.183 225.614 181.121 224.718L195.929 222L195.12 222.729L195.227 222.411L195.195 222.498C195.911 220.231 197.387 218.28 199.373 216.974C201.347 215.671 203.689 215.039 206.05 215.172C208.422 215.324 210.672 216.275 212.434 217.87C212.664 218.055 212.872 218.265 213.053 218.498L213.625 219.171C213.968 219.644 214.285 220.137 214.573 220.646C214.847 221.151 215.034 221.671 215.266 222.183C215.375 222.44 215.493 222.695 215.592 222.955L215.837 223.748C217.015 227.946 217.468 232.314 217.176 236.664C216.982 240.956 216.38 245.219 215.378 249.396L214.637 248.653L224.592 246.571L234.567 244.577C234.592 244.572 234.618 244.577 234.64 244.591C234.662 244.605 234.677 244.627 234.682 244.651C234.688 244.676 234.684 244.703 234.671 244.725C234.657 244.746 234.636 244.762 234.611 244.769L224.773 247.349L214.917 249.855C214.818 249.88 214.714 249.88 214.615 249.855C214.516 249.829 214.425 249.779 214.35 249.709C214.276 249.639 214.22 249.551 214.188 249.454C214.156 249.357 214.15 249.253 214.169 249.152L214.176 249.112C214.972 244.99 215.426 240.809 215.535 236.612C215.714 232.47 215.187 228.327 213.977 224.362L213.744 223.637C213.651 223.403 213.541 223.178 213.441 222.948C213.228 222.498 213.05 222.014 212.813 221.592C212.545 221.2 212.334 220.764 212.03 220.402L211.563 219.869C211.42 219.682 211.251 219.515 211.063 219.372C209.636 218.115 207.827 217.375 205.928 217.273C204.02 217.164 202.127 217.671 200.53 218.72C198.939 219.769 197.749 221.325 197.151 223.135L197.118 223.221C197.113 223.246 197.106 223.27 197.096 223.294L197.03 223.444C196.963 223.594 196.86 223.725 196.73 223.826C196.601 223.927 196.448 223.995 196.286 224.023L181.442 226.536C176.495 227.385 171.541 228.189 166.588 229.001C166.451 229.023 166.31 229.009 166.18 228.958C166.051 228.907 165.937 228.822 165.851 228.712C165.766 228.602 165.712 228.471 165.695 228.333C165.677 228.194 165.698 228.054 165.753 227.926C166.93 225.207 167.848 222.382 168.495 219.491C169.167 216.594 169.469 213.624 169.394 210.652C169.346 209.171 169.17 207.696 168.869 206.244C168.55 204.798 168.071 203.392 167.441 202.052C166.798 200.719 165.994 199.47 165.047 198.332C164.086 197.203 163 196.186 161.811 195.3L161.802 195.293C161.755 195.256 161.72 195.206 161.702 195.149C161.683 195.092 161.683 195.031 161.7 194.974C161.717 194.916 161.751 194.865 161.798 194.828C161.844 194.79 161.901 194.767 161.96 194.763C168.971 194.193 175.971 193.505 182.968 192.774C189.966 192.065 196.961 191.314 203.97 190.724L214.486 189.879C218.025 189.577 221.581 189.522 225.129 189.716C228.674 189.912 232.2 190.375 235.676 191.102C239.149 191.804 242.56 192.783 245.877 194.029L245.759 194.009L245.778 194.01L245.805 194.011C245.831 194.012 245.856 194.016 245.88 194.025C247.195 194.494 248.425 195.016 249.676 195.575C250.921 196.131 252.128 196.768 253.289 197.482L253.24 197.469L253.249 197.47C253.275 197.471 253.299 197.481 253.316 197.5C253.334 197.518 253.344 197.542 253.344 197.568C253.344 197.593 253.334 197.618 253.316 197.636C253.299 197.654 253.275 197.665 253.249 197.666L253.249 197.666Z" fill="black"/>
<path d="M296.237 223.866C295.677 221.06 294.553 218.396 292.932 216.037C292.124 214.907 291.194 213.868 290.159 212.939C289.111 212.024 287.987 211.198 286.801 210.471C284.363 209.045 281.762 207.92 279.055 207.118C276.309 206.286 273.501 205.675 270.659 205.289L270.604 205.284C269.632 205.013 268.664 204.724 267.699 204.417C268.711 204.466 269.719 204.538 270.723 204.627L270.669 204.622C273.637 204.492 276.609 204.775 279.5 205.462C282.436 206.123 285.244 207.259 287.815 208.823C290.436 210.403 292.618 212.615 294.16 215.258C295.644 217.877 296.363 220.859 296.237 223.866Z" fill="black"/>
<path d="M203.189 215.772C204.901 215.109 206.632 214.532 208.375 214.009C210.117 213.478 211.867 212.989 213.627 212.539C215.381 212.067 217.155 211.681 218.922 211.264C220.699 210.891 222.472 210.502 224.262 210.189L224.676 210.116L224.936 210.315C225.67 210.882 226.347 211.519 226.958 212.216C227.564 212.88 228.121 213.587 228.624 214.332C229.129 215.068 229.581 215.838 229.979 216.637C230.38 217.427 230.719 218.247 230.993 219.089C230.48 218.372 229.952 217.677 229.409 217.006C228.858 216.335 228.302 215.666 227.722 215.059C227.13 214.443 226.524 213.847 225.895 213.287C225.28 212.746 224.636 212.239 223.966 211.769L224.64 211.895C222.885 212.365 221.114 212.76 219.347 213.178C217.57 213.55 215.801 213.954 214.012 214.27C212.228 214.613 210.436 214.912 208.633 215.168C206.833 215.433 205.02 215.646 203.189 215.772Z" fill="black"/>
<path d="M178.266 193.72C180.364 195.661 182.016 198.035 183.105 200.677C184.245 203.319 184.963 206.124 185.236 208.988C185.463 211.845 185.288 214.721 184.715 217.529C184.646 217.878 184.593 218.23 184.51 218.575L184.217 219.601L183.601 221.635C183.104 222.96 182.522 224.253 181.913 225.514C182.111 224.107 182.439 222.758 182.667 221.394L182.955 219.343L183.114 218.327C183.157 217.987 183.17 217.643 183.199 217.302C183.246 216.619 183.301 215.939 183.373 215.262C183.423 214.583 183.397 213.901 183.413 213.223C183.444 211.869 183.399 210.514 183.28 209.165C183.031 206.467 182.494 203.803 181.678 201.22C180.856 198.588 179.71 196.069 178.266 193.72Z" fill="black"/>
<path d="M231.522 214.164C232.991 213.616 234.468 213.077 235.955 212.566C235.873 213.173 235.829 213.784 235.825 214.397C234.552 214.796 233.269 215.177 231.978 215.549C231.104 215.8 230.231 216.051 229.348 216.302C229.227 216.116 229.106 215.939 228.985 215.772C228.865 215.595 228.735 215.428 228.623 215.27C229.589 214.889 230.556 214.527 231.522 214.164Z" fill="black"/>
<path d="M246.168 211.023C245.034 211.414 243.919 211.804 242.785 212.185H242.776C242.423 211.626 242.012 211.106 241.549 210.633L241.967 210.494C243.222 210.085 244.477 209.676 245.731 209.276C245.88 209.908 246.038 210.494 246.168 211.023Z" fill="black"/>
<path d="M239.784 204.9C241.652 204.295 243.52 203.691 245.397 203.106C245.194 203.73 245.096 204.383 245.109 205.039C243.538 205.596 241.949 206.126 240.369 206.665C236.866 207.808 233.344 208.933 229.794 209.945C228.149 210.429 226.495 210.89 224.832 211.33C222.918 211.841 221.003 212.324 219.061 212.743C219.832 212.399 220.604 212.055 221.384 211.72C221.394 211.72 221.394 211.72 221.403 211.711C224.023 210.596 226.681 209.564 229.339 208.57C232.796 207.269 236.29 206.08 239.784 204.9Z" fill="black"/>
<path d="M254.401 201.61C254.243 201.675 254.086 201.74 253.928 201.796C253.521 201.456 253.063 201.183 252.571 200.987C253.073 200.848 253.574 200.708 254.076 200.569C254.197 200.959 254.309 201.312 254.401 201.61Z" fill="black"/>
<path d="M166.456 228.24C145.477 209.091 161.988 195.062 161.988 195.062C176.652 205.68 166.456 228.24 166.456 228.24Z" fill="black"/>
<path d="M214.775 249.25C197.463 254.414 196.108 223.01 196.108 223.01C196.129 222.945 196.149 222.881 196.17 222.818C198.773 214.822 209.93 213.788 213.779 221.264C218.995 231.395 214.775 249.25 214.775 249.25Z" fill="black"/>
<path d="M227.834 245.5C224.967 252.565 222.033 259.557 219.334 266.614C216.575 273.584 214.251 280.718 212.373 287.975C211.93 289.756 211.59 291.561 211.354 293.381C211.098 295.143 211.106 296.933 211.378 298.692C211.521 299.52 211.801 300.318 212.209 301.052C212.624 301.75 213.2 302.339 213.888 302.77C215.459 303.566 217.245 303.834 218.981 303.532C222.666 302.892 226.213 301.615 229.46 299.758C230.285 299.301 231.111 298.85 231.925 298.373L234.333 296.875C235.958 295.911 237.48 294.783 239.039 293.724C240.592 292.654 242.069 291.475 243.584 290.36L245.783 288.587C246.515 287.997 247.268 287.435 247.974 286.813C249.394 285.578 250.872 284.421 252.252 283.146L254.357 281.277L256.408 279.349C259.131 276.769 261.751 274.086 264.267 271.302C266.801 268.539 269.233 265.684 271.607 262.781C276.367 256.961 280.8 250.881 284.884 244.568C286.933 241.406 288.899 238.184 290.782 234.904C292.668 231.627 294.473 228.288 296.117 224.866L296.487 224.998C294.263 232.344 291.266 239.434 287.545 246.147C283.872 252.913 279.633 259.356 274.873 265.406C270.062 271.433 264.721 277.017 258.913 282.091L256.733 283.986L254.492 285.808C253.008 287.034 251.454 288.174 249.901 289.309C248.346 290.44 246.73 291.49 245.13 292.55C243.481 293.544 241.877 294.596 240.201 295.534C238.528 296.475 236.877 297.444 235.17 298.316C233.479 299.211 231.792 300.112 230.063 300.948C226.621 302.727 222.949 304.021 219.152 304.795C217.127 305.222 215.019 305.01 213.121 304.187C212.14 303.695 211.292 302.976 210.647 302.088C210.041 301.211 209.577 300.242 209.275 299.22C208.739 297.258 208.504 295.227 208.578 293.196C208.631 291.226 208.829 289.262 209.169 287.32C209.863 283.506 210.881 279.757 212.211 276.114C213.486 272.48 214.943 268.928 216.524 265.44C217.299 263.689 218.141 261.969 218.989 260.256C219.83 258.539 220.716 256.845 221.629 255.166C223.448 251.806 225.365 248.5 227.488 245.314L227.834 245.5Z" fill="black"/>
<path d="M181.646 199.132C186.998 198.327 192.364 197.715 197.735 197.171C203.106 196.614 208.485 196.173 213.865 195.753C219.248 195.37 224.633 195.012 230.027 194.768C235.419 194.511 240.817 194.324 246.229 194.332C240.878 195.14 235.511 195.753 230.14 196.297C224.77 196.852 219.391 197.294 214.011 197.711C208.627 198.092 203.242 198.45 197.849 198.694C192.456 198.949 187.058 199.137 181.646 199.132Z" fill="black"/>
<path d="M247.376 289.286C246.607 282.461 245.867 275.625 245.204 268.782L244.95 266.216L244.823 264.933C244.81 264.833 244.806 264.704 244.786 264.627C244.763 264.567 244.744 264.504 244.73 264.441C244.666 264.269 244.592 264.101 244.511 263.937C243.752 262.5 242.757 261.063 241.834 259.628C239.95 256.757 238.132 253.812 236.508 250.747C235.704 249.209 234.947 247.641 234.285 246.023C233.63 244.384 233.081 242.752 232.513 241.141C231.371 237.906 230.239 234.668 229.15 231.415L227.496 226.542L227.083 225.324C226.922 224.863 226.814 224.385 226.761 223.9C226.646 222.912 226.785 221.912 227.165 220.993C227.544 220.015 228.264 219.208 229.192 218.72C230.151 218.299 231.235 218.256 232.225 218.599C233.927 219.238 235.481 220.218 236.79 221.481L235.768 222.055C235.532 220.397 235.38 218.729 235.314 217.057C235.282 216.222 235.277 215.378 235.31 214.543C235.381 213.7 235.415 212.844 235.557 212.008C235.679 211.118 235.997 210.266 236.487 209.513C236.78 209.09 237.212 208.784 237.708 208.647C238.184 208.549 238.677 208.576 239.139 208.726C240.809 209.293 242.209 210.457 243.073 211.994L242.776 211.832H242.785L242.978 211.833L243.08 211.991C243.651 212.906 244.167 213.853 244.627 214.829C244.841 215.293 245.091 215.738 245.376 216.162C245.552 216.37 245.55 216.367 245.8 216.382C245.878 216.39 245.957 216.374 246.026 216.335C246.095 216.297 246.151 216.239 246.186 216.168C246.359 215.723 246.429 215.244 246.389 214.768C246.376 214.246 246.335 213.726 246.266 213.208C246.133 212.162 245.927 211.126 245.65 210.109C245.367 209.073 245.139 208.022 244.967 206.962C244.772 205.878 244.757 204.769 244.923 203.68C245.027 203.116 245.236 202.576 245.541 202.089C245.861 201.597 246.297 201.191 246.812 200.909C247.827 200.412 248.957 200.194 250.084 200.278L250.026 200.281C250.507 200.234 250.992 200.25 251.469 200.328C251.94 200.404 252.402 200.535 252.844 200.717C253.737 201.091 254.512 201.703 255.084 202.485L255.048 202.443C255.122 202.522 255.165 202.625 255.17 202.733L255.163 204.318L254.436 202.907L254.427 202.889L254.417 202.871L254.402 202.827C253.1 199.377 252.224 195.782 251.791 192.12C251.699 191.171 251.712 190.216 251.829 189.27C251.917 188.215 252.374 187.225 253.12 186.474C253.555 186.098 254.087 185.85 254.656 185.761C255.207 185.696 255.765 185.753 256.292 185.927C257.233 186.28 258.093 186.82 258.82 187.513C260.186 188.811 261.386 190.273 262.394 191.865C263.41 193.412 264.343 195.011 265.19 196.657C266.954 199.919 268.347 203.369 269.34 206.943C270.287 210.481 271.181 213.987 272.396 217.37C273.621 220.711 275.099 224.073 277.451 226.51C278.542 227.705 280.004 228.498 281.602 228.759C282.422 228.845 283.25 228.811 284.061 228.66C284.924 228.54 285.779 228.365 286.62 228.134C288.307 227.677 289.934 227.022 291.466 226.181C292.981 225.353 294.381 224.33 295.63 223.137L296.633 222.141L297.167 223.359C297.747 224.729 298.099 226.183 298.209 227.666C298.33 229.104 298.278 230.551 298.056 231.976C297.583 234.796 296.563 237.496 295.052 239.924C294.302 241.157 293.389 242.284 292.339 243.273C291.27 244.223 290.103 245.055 288.857 245.756C287.631 246.445 286.374 247.017 285.223 247.659C284.099 248.203 283.137 249.033 282.434 250.065C281.848 251.184 281.538 252.427 281.53 253.69C281.44 255.034 281.389 256.389 281.373 257.749C281.339 260.468 281.391 263.196 281.488 265.922C281.593 268.649 281.699 271.377 281.876 274.102C282.069 276.822 282.219 279.561 282.677 282.241L282.496 282.283C281.912 279.593 281.642 276.869 281.326 274.149C281.038 271.427 280.775 268.701 280.595 265.968C280.414 263.235 280.277 260.498 280.226 257.751C280.2 256.377 280.211 254.998 280.259 253.613C280.235 252.136 280.569 250.674 281.232 249.353C282.038 248.094 283.162 247.068 284.489 246.38C285.713 245.669 286.938 245.084 288.083 244.411C289.209 243.75 290.261 242.971 291.222 242.087C292.146 241.182 292.943 240.156 293.593 239.039C294.936 236.786 295.828 234.293 296.218 231.699C296.412 230.421 296.454 229.124 296.341 227.836C296.242 226.588 295.949 225.364 295.475 224.206L297.013 224.428C294.241 227.091 290.841 229.008 287.129 230.003C286.213 230.258 285.28 230.453 284.338 230.588C283.857 230.64 283.416 230.73 282.901 230.749L282.128 230.772C281.87 230.757 281.611 230.727 281.352 230.702C279.313 230.4 277.442 229.404 276.053 227.881C273.348 224.992 271.906 221.453 270.658 217.983C269.444 214.484 268.573 210.902 267.671 207.388C267.442 206.512 267.212 205.64 266.935 204.814C266.653 203.972 266.334 203.132 266.001 202.298C265.334 200.628 264.598 198.979 263.795 197.367C263.002 195.754 262.124 194.184 261.166 192.664C260.245 191.156 259.151 189.761 257.906 188.508C257.328 187.921 256.64 187.454 255.882 187.134C255.543 187.011 255.183 186.961 254.824 186.986C254.487 187.031 254.168 187.168 253.903 187.382C253.354 187.937 253.013 188.665 252.938 189.443C252.808 190.305 252.773 191.179 252.833 192.049C253.171 195.648 253.947 199.193 255.144 202.604L255.12 202.542L255.129 202.561L254.395 202.735C254.394 202.783 254.403 202.829 254.42 202.873C254.438 202.916 254.465 202.956 254.499 202.989L254.462 202.947C253.987 202.256 253.33 201.71 252.564 201.368C251.794 201.03 250.954 200.887 250.116 200.951L250.079 200.954L250.057 200.953C249.051 200.866 248.04 201.046 247.125 201.475C246.701 201.717 246.337 202.052 246.061 202.455C245.784 202.857 245.603 203.318 245.53 203.8C245.369 204.82 245.376 205.86 245.552 206.877C245.712 207.921 245.927 208.956 246.196 209.977C246.48 211.015 246.699 212.069 246.852 213.133C246.929 213.671 246.978 214.212 246.998 214.755C247.053 215.343 246.962 215.936 246.731 216.48C246.636 216.639 246.504 216.771 246.345 216.865C246.187 216.96 246.007 217.014 245.823 217.022C245.638 217.03 245.455 216.993 245.288 216.913C245.122 216.833 244.978 216.714 244.869 216.565C244.55 216.111 244.27 215.631 244.032 215.13C243.572 214.184 243.058 213.266 242.491 212.38L242.785 212.538L242.776 212.538L242.585 212.539L242.48 212.376C241.708 211.002 240.441 209.973 238.938 209.499C238.632 209.367 238.289 209.348 237.97 209.444C237.651 209.541 237.377 209.747 237.195 210.027C236.811 210.68 236.571 211.408 236.494 212.162C236.384 212.958 236.38 213.759 236.334 214.562C236.326 215.377 236.356 216.185 236.412 216.999C236.526 218.624 236.721 220.243 236.997 221.849L237.282 223.504L235.975 222.423C234.776 221.327 233.369 220.482 231.837 219.94C231.185 219.721 230.474 219.756 229.846 220.038C229.259 220.392 228.813 220.938 228.583 221.583C228.311 222.262 228.217 222.999 228.31 223.724C228.353 224.092 228.439 224.454 228.565 224.803L228.99 226.019L230.691 230.882C231.837 234.12 232.941 237.373 234.035 240.629C234.59 242.261 235.119 243.891 235.721 245.446C236.341 247.013 237.06 248.548 237.828 250.061C239.374 253.087 241.167 255.992 242.967 258.91C243.856 260.388 244.791 261.802 245.591 263.424C245.695 263.647 245.785 263.876 245.86 264.109C245.895 264.255 245.926 264.403 245.952 264.549C245.973 264.683 245.971 264.77 245.981 264.883L246.072 266.165L246.253 268.729C246.751 275.568 247.171 282.413 247.561 289.27L247.376 289.286Z" fill="black"/>
<path d="M258.573 212.742L254.35 202.901L255.219 202.572L258.573 212.742Z" fill="black"/>
<path d="M396.17 179.124C392.744 180.575 389.174 181.796 385.598 182.915C382.005 184.024 378.352 184.932 374.658 185.636C370.943 186.396 367.16 186.773 363.369 186.761C361.445 186.743 359.527 186.546 357.64 186.173C355.695 185.802 353.834 185.082 352.147 184.047L352.229 184.094C349.393 182.679 346.541 181.293 343.72 179.846L342.779 179.364L343.345 178.549C343.413 178.439 343.499 178.341 343.598 178.259C343.645 178.214 343.697 178.173 343.751 178.136C343.836 178.078 343.937 178.001 344.012 177.961C344.169 177.875 344.336 177.769 344.485 177.705C344.792 177.553 345.095 177.423 345.393 177.31C345.993 177.076 346.588 176.869 347.186 176.692C348.378 176.314 349.577 176.028 350.776 175.748C353.174 175.195 355.58 174.727 357.994 174.344C360.407 173.939 362.823 173.583 365.242 173.255C367.659 172.912 370.081 172.627 372.501 172.324L372.174 172.504L377.123 166.84C378.776 164.949 380.368 163.029 382.077 161.16C385.528 157.461 389.526 154.313 393.931 151.826C396.142 150.597 398.439 149.53 400.804 148.633C403.179 147.761 405.61 147.048 408.08 146.499C413.029 145.24 418.156 144.833 423.241 145.297C428.389 145.933 433.296 147.845 437.516 150.861C441.714 153.92 445.134 157.924 447.499 162.549C448.671 164.859 449.584 167.292 450.223 169.803L450.637 171.7C450.752 172.329 450.863 172.953 450.958 173.583C451.159 174.84 451.322 176.103 451.447 177.374C451.72 179.926 451.782 182.495 451.634 185.056C451.495 187.657 451.021 190.229 450.223 192.707L449.902 193.671L448.932 193.38L435.822 189.439L422.676 185.612C418.294 184.336 413.901 183.098 409.489 181.943C407.287 181.348 405.077 180.787 402.86 180.261C401.747 180.03 400.64 179.732 399.52 179.556L397.841 179.255L396.17 179.124ZM396.124 178.923L397.875 178.941L399.584 179.136C400.729 179.257 401.846 179.497 402.98 179.672C405.232 180.085 407.479 180.527 409.712 181.02C414.178 182.012 418.623 183.085 423.058 184.196C427.494 185.304 431.904 186.503 436.317 187.694C440.726 188.899 445.137 190.091 449.528 191.373L448.237 192.046C449.71 187.476 449.7 182.467 449.256 177.59C449.139 176.365 448.983 175.143 448.789 173.923C448.698 173.313 448.59 172.702 448.48 172.098L448.095 170.321C447.523 167.962 446.696 165.672 445.629 163.493C443.463 159.122 440.3 155.321 436.396 152.396C432.457 149.495 427.868 147.6 423.03 146.878C418.118 146.297 413.144 146.536 408.311 147.583C403.407 148.458 398.672 150.105 394.285 152.465C389.898 154.843 385.935 157.932 382.558 161.605C379.274 165.354 376.144 169.303 372.972 173.178L372.852 173.325L372.644 173.359C370.242 173.75 367.838 174.126 365.444 174.553C363.048 174.966 360.658 175.407 358.281 175.894C355.902 176.377 353.534 176.892 351.194 177.471C350.026 177.764 348.863 178.083 347.732 178.438C347.163 178.609 346.607 178.806 346.074 179.016C345.803 179.12 345.547 179.231 345.308 179.351C345.176 179.407 345.089 179.472 344.978 179.529C344.937 179.554 344.898 179.58 344.86 179.608C344.839 179.621 344.822 179.634 344.834 179.626C344.847 179.604 344.8 179.68 344.926 179.498L344.551 178.2C347.39 179.611 350.198 181.083 353.022 182.525L353.067 182.548L353.104 182.572C356.034 184.481 359.78 185.031 363.405 185.162C365.245 185.207 367.086 185.152 368.921 184.999C370.763 184.866 372.605 184.643 374.439 184.357C378.112 183.808 381.745 182.974 385.364 182.078C388.988 181.168 392.55 180.11 396.124 178.923Z" fill="black"/>
<path d="M418.814 150.833C417.055 152.9 415.252 154.91 413.441 156.908L408.013 162.895C406.204 164.887 404.409 166.891 402.629 168.908C400.862 170.937 399.114 172.978 397.377 175.067C398.666 172.674 400.145 170.388 401.798 168.231C403.424 166.055 405.191 163.995 406.995 161.973C408.824 159.972 410.71 158.026 412.677 156.163C414.629 154.281 416.677 152.502 418.814 150.833Z" fill="black"/>
<path d="M428.211 151.822C429.667 154.463 430.954 157.193 432.065 159.996C433.194 162.792 434.181 165.642 435.024 168.546C435.861 171.453 436.513 174.409 436.977 177.397C437.439 180.389 437.568 183.422 437.361 186.442C437.035 183.468 436.555 180.513 435.922 177.589C435.28 174.678 434.525 171.794 433.705 168.926C432.895 166.054 431.977 163.211 431.061 160.362C430.119 157.522 429.19 154.671 428.211 151.822Z" fill="black"/>
<path d="M372.573 172.841C374.196 172.863 375.818 172.977 377.428 173.181C379.035 173.362 380.627 173.621 382.216 173.896C383.801 174.197 385.382 174.514 386.949 174.91C388.529 175.286 390.086 175.751 391.613 176.303C389.99 176.282 388.368 176.169 386.757 175.965C385.151 175.784 383.559 175.524 381.97 175.247C380.386 174.945 378.805 174.628 377.237 174.232C375.658 173.856 374.1 173.391 372.573 172.841Z" fill="black"/>
<path d="M372.573 185.313C372.599 186.692 372.526 188.069 372.428 189.447C372.339 190.839 372.141 192.221 371.834 193.582C371.683 194.317 371.405 195.02 371.015 195.661C370.664 196.185 370.322 196.798 369.981 197.382C369.295 198.561 368.632 199.761 367.97 200.959C366.633 203.35 365.317 205.752 364.024 208.166C363.39 209.377 362.733 210.578 362.125 211.796C361.82 212.404 361.53 213.018 361.246 213.627C361.108 213.933 360.975 214.239 360.861 214.541C360.81 214.689 360.749 214.845 360.719 214.977C360.7 215.033 360.688 215.091 360.681 215.149C360.679 215.16 360.67 215.216 360.67 215.191C360.67 215.168 360.664 215.145 360.653 215.125C360.642 215.105 360.626 215.088 360.606 215.076L360.354 214.899C360.823 215.01 361.305 215.056 361.786 215.034C362.3 215.013 362.812 214.944 363.313 214.828C363.824 214.708 364.326 214.557 364.818 214.375C365.315 214.186 365.801 213.969 366.274 213.727L366.343 213.692L366.389 213.701C366.872 213.792 367.324 214.002 367.706 214.311C368.071 214.618 368.331 215.031 368.452 215.492C368.271 215.075 367.966 214.723 367.578 214.486C367.208 214.253 366.788 214.113 366.352 214.078L366.468 214.053C365.556 214.685 364.56 215.186 363.509 215.541C362.97 215.715 362.415 215.837 361.853 215.907C361.257 215.99 360.653 215.97 360.064 215.848L359.895 215.811L359.812 215.671C359.746 215.559 359.7 215.436 359.677 215.308C359.669 215.237 359.668 215.165 359.675 215.094C359.678 214.981 359.693 214.869 359.719 214.759C359.757 214.573 359.804 214.388 359.861 214.206C359.969 213.858 360.089 213.525 360.214 213.197C360.464 212.541 360.747 211.906 361.033 211.275C361.611 210.015 362.207 208.77 362.846 207.548C364.102 205.093 365.444 202.689 366.827 200.307C367.529 199.121 368.244 197.944 368.981 196.774C369.357 196.187 369.725 195.623 370.173 195.029C370.518 194.507 370.779 193.933 370.946 193.329C371.681 190.7 372.224 188.021 372.573 185.313Z" fill="black"/>
<path d="M376.035 218.918C372.079 212.818 366.371 215.492 366.371 215.492C366.371 215.492 364.166 245.789 377.684 246.613C387.971 247.241 396.823 240.994 403.047 234.266C406.271 230.765 408.311 226.337 408.879 221.611C409.723 214.711 410.992 204.286 411.314 201.279C411.808 196.663 413.679 184.577 420.381 185.313C420.381 185.313 434.393 185.453 427.14 209.686C427.14 209.686 425.162 224.853 438.02 223.039C438.02 223.039 435.382 215.456 438.844 209.686C442.306 203.916 446.858 196.622 446.643 191.614C446.643 191.614 401.258 178.199 396.147 179.023C399.293 180.684 401.823 183.309 403.366 186.514C404.909 189.718 405.383 193.333 404.72 196.828C403.212 206.627 395.96 219.778 392.594 225.48C392.061 226.39 391.291 227.138 390.366 227.645C389.441 228.152 388.396 228.398 387.342 228.359C385.393 228.28 383.157 227.995 382.093 227.161C379.992 225.512 376.035 218.918 376.035 218.918Z" fill="black"/>
<path d="M375.55 189.855C376.513 189.113 377.616 188.572 378.793 188.264C379.99 187.927 381.24 187.823 382.477 187.957C383.741 188.108 384.943 188.587 385.964 189.347C386.957 190.088 387.719 191.096 388.162 192.253C387.329 191.47 386.397 190.798 385.392 190.253C384.427 189.76 383.382 189.444 382.306 189.319C381.205 189.197 380.094 189.195 378.992 189.313C377.866 189.431 376.728 189.616 375.55 189.855Z" fill="black"/>
<path d="M414.446 206.718C416.656 207.585 419.213 207.487 420.85 206.036C421.675 205.305 422.334 204.405 422.783 203.397C423.265 202.361 423.652 201.283 423.937 200.176C424.575 197.945 424.952 195.647 425.06 193.329C425.111 192.165 425.082 191 424.973 189.84C424.918 189.257 424.834 188.677 424.72 188.103C424.668 187.813 424.595 187.53 424.518 187.245C424.457 186.957 424.34 186.684 424.172 186.441C424.586 186.886 424.898 187.416 425.084 187.994C425.305 188.558 425.49 189.136 425.637 189.724C425.918 190.907 426.084 192.114 426.132 193.328C426.22 195.764 425.926 198.2 425.26 200.545C424.599 202.824 423.638 205.346 421.496 206.887C420.442 207.642 419.159 208.006 417.866 207.919C416.638 207.837 415.455 207.422 414.446 206.718Z" fill="black"/>
<path d="M398.454 238.666C399.262 239.159 400.009 239.746 400.68 240.415C401.354 241.065 401.976 241.767 402.539 242.516C403.11 243.272 403.602 244.084 404.007 244.94C404.48 245.802 404.671 246.791 404.555 247.767C404.159 246.952 403.666 246.187 403.087 245.49C402.543 244.774 401.974 244.07 401.439 243.338C400.895 242.611 400.365 241.867 399.859 241.098C399.332 240.323 398.862 239.51 398.454 238.666Z" fill="black"/>
<path d="M438.02 223.039C438.893 224.39 439.689 225.79 440.403 227.232C440.764 227.921 441.121 228.602 441.523 229.25C441.92 229.933 442.405 230.56 442.965 231.117C442.093 230.995 441.29 230.575 440.693 229.928C440.082 229.329 439.574 228.634 439.188 227.871C438.8 227.13 438.501 226.345 438.298 225.533C438.076 224.721 437.982 223.88 438.02 223.039Z" fill="black"/>
<path d="M458.136 219.573C458.136 219.573 442.236 220.734 439.551 227.081L440.034 227.992L441.809 227.081C450.34 222.834 455.162 228.475 449.234 229.469C443.296 230.454 407.937 246.652 407.937 246.652C392.604 250.991 383.617 274.307 383.617 274.307C386.089 273.248 388.608 272.3 391.107 271.287C393.672 270.46 396.218 269.568 398.811 268.834C404.017 267.364 409.326 266.286 414.692 265.609C420.069 264.917 425.499 264.749 430.908 265.107C432.256 265.256 433.603 265.339 434.951 265.535C436.28 265.767 437.627 265.925 438.947 266.241C441.601 266.762 444.186 267.589 446.65 268.703C444.087 267.937 441.458 267.411 438.798 267.133C437.478 266.929 436.14 266.863 434.821 266.743C433.492 266.659 432.163 266.613 430.834 266.548C425.513 266.467 420.193 266.768 414.915 267.449L410.957 267.96L407.017 268.657L405.047 268.982L403.095 269.41C401.785 269.698 400.484 269.977 399.174 270.246C396.572 270.85 393.988 271.538 391.377 272.16C388.794 272.867 386.229 273.647 383.617 274.307C343.398 280.905 304.155 305.633 301.525 304.973C298.886 304.313 296.572 283.544 296.572 278.201C296.572 272.867 295.587 262.765 287.67 262.765C279.761 262.765 280.746 269.689 280.746 269.689C295.587 273.647 261.297 276.621 251.075 277.931C240.853 279.251 246.456 275.301 246.456 275.301C246.456 275.301 243.492 272.133 240.314 276.073C239.322 277.344 238.653 278.836 238.365 280.422C238.077 282.009 238.178 283.641 238.659 285.18C239.672 288.562 241.169 293.692 242.172 297.716C243.826 304.313 249.755 351.79 251.734 356.409C253.714 361.018 294.593 373.219 381.638 366.956C388.691 365.85 395.717 364.679 402.742 363.508C409.758 362.31 416.774 361.083 423.734 359.661C427.219 358.964 430.704 358.239 434.152 357.412C437.618 356.622 441.056 355.746 444.467 354.782C447.879 353.824 451.241 352.695 454.54 351.4C457.881 350.198 460.992 348.435 463.74 346.187C462.529 347.512 461.14 348.663 459.614 349.606C458.104 350.582 456.533 351.46 454.912 352.236C451.657 353.752 448.311 355.065 444.894 356.167C438.072 358.335 431.131 360.11 424.106 361.483C417.09 362.877 410.04 364.029 402.956 364.939C395.875 365.878 388.766 366.566 381.638 366.956C381.638 366.956 378.469 386.22 376.815 403.551H500.799C500.669 386.629 500.641 364.205 501.162 344.04C502.147 305.141 501.162 286.834 501.162 286.834C499.379 286.637 497.618 286.276 495.902 285.756C494.183 285.263 492.501 284.678 490.819 284.074C487.464 282.866 484.193 281.453 480.941 280.004C477.707 278.526 474.51 276.983 471.36 275.32C468.21 273.675 465.096 271.937 462.086 270.023C465.44 271.25 468.721 272.616 471.982 274.019C475.244 275.404 478.469 276.872 481.712 278.312L491.367 282.736C494.61 284.167 497.779 285.709 501.162 286.834C501.162 286.834 517.48 294.259 518.967 275.459C520.444 256.669 502.639 216.116 458.136 219.573ZM464.985 280.626C466.625 282.174 468.056 283.93 469.241 285.849C469.826 286.806 470.328 287.819 470.858 288.822C471.313 289.854 471.685 290.913 472.112 291.963C472.314 292.489 472.476 293.03 472.596 293.58L473.023 295.216C473.311 296.302 473.523 297.408 473.655 298.524L473.878 300.197L473.99 301.033L474.027 301.869L474.138 305.224L474.166 306.06L474.11 306.897L473.99 308.57C473.915 309.685 473.841 310.79 473.72 311.896C473.348 314.089 472.995 316.283 472.521 318.448C471.917 320.585 471.332 322.713 470.663 324.813C470.932 322.611 471.276 320.446 471.62 318.28C471.88 316.106 472.029 313.922 472.28 311.757L472.363 308.495L472.41 306.869L472.438 306.06L472.382 305.252L472.215 302.009L472.177 301.2L472.057 300.401L471.815 298.803C471.27 294.531 469.977 290.388 467.996 286.564C466.97 284.669 465.742 282.89 464.334 281.258C462.93 279.588 461.286 278.135 459.456 276.946C461.508 277.825 463.382 279.072 464.985 280.626ZM488.412 242.99C487.747 244.39 486.608 245.509 485.197 246.15C484.498 246.468 483.766 246.705 483.013 246.856C482.261 246.963 481.504 247.028 480.745 247.051C479.993 247.014 479.231 247.014 478.487 246.921L476.276 246.559C475.541 246.41 474.835 246.196 474.11 246.011L472.019 245.444C470.656 245.088 469.268 244.839 467.866 244.7C465.026 244.435 462.167 244.426 459.326 244.672C453.583 245.191 447.892 246.179 442.311 247.627C439.504 248.334 436.698 249.096 433.919 249.923C431.122 250.713 428.371 251.623 425.602 252.543C430.867 250.007 436.327 247.897 441.929 246.234C447.545 244.501 453.325 243.358 459.177 242.823C462.139 242.588 465.116 242.631 468.07 242.953C469.557 243.144 471.027 243.452 472.466 243.873L476.601 245.146L478.673 245.592C479.37 245.713 480.067 245.741 480.764 245.834C481.461 245.88 482.158 245.825 482.846 245.806C483.527 245.714 484.197 245.549 484.844 245.314C486.158 244.861 487.269 243.955 487.975 242.758C488.34 242.15 488.616 241.493 488.793 240.806C489.002 240.113 489.115 239.394 489.128 238.669C489.289 240.148 489.042 241.643 488.412 242.99H488.412Z" fill="black"/>
<path d="M324.601 403.554C342.899 403.023 361.198 402.667 379.497 402.486C388.646 402.36 397.796 402.331 406.945 402.257L434.393 402.181L461.842 402.253C470.991 402.33 480.14 402.354 489.29 402.482C507.589 402.662 525.887 403.019 544.186 403.554C525.887 404.088 507.589 404.445 489.29 404.626C480.14 404.754 470.991 404.778 461.842 404.855L434.393 404.927L406.945 404.851C397.796 404.777 388.646 404.749 379.497 404.622C361.198 404.441 342.899 404.085 324.601 403.554Z" fill="black"/>
<path d="M378.631 199.806C382.219 199.806 382.225 194.23 378.631 194.23C375.044 194.23 375.038 199.806 378.631 199.806Z" fill="black"/>
</svg>
