<svg width="152" height="158" viewBox="0 0 152 158" fill="none" xmlns="http://www.w3.org/2000/svg">
<path fill-rule="evenodd" clip-rule="evenodd" d="M19.9048 140.07V135.582C19.9048 135.582 15.3446 123.503 4.0498 126.172C4.30114 129.206 5.40489 132.097 7.2238 134.484C9.04271 136.872 11.4965 138.651 14.2801 139.6L19.9048 140.07Z" fill="white"/>
<path fill-rule="evenodd" clip-rule="evenodd" d="M24.9081 142.332C24.9081 142.332 21.9425 138.881 18.542 138.675C15.1415 138.469 11.7153 140.631 9.88818 142.146C8.06108 143.66 6.84326 144.771 6.84326 144.771C8.97085 147.289 11.9506 148.856 15.1619 149.146C20.8221 149.829 24.9081 145.172 24.9081 142.332Z" fill="white"/>
<path d="M25.1899 142.072C25.0789 141.941 22.7021 139.212 19.7033 138.461C19.6957 138.448 19.6874 138.435 19.6791 138.423C14.3186 131.075 10.1223 130.312 9.94716 130.283C9.86229 130.269 9.77532 130.286 9.70063 130.33C9.62594 130.374 9.56801 130.444 9.53641 130.527C9.5048 130.61 9.50142 130.702 9.52683 130.787C9.55223 130.872 9.60489 130.946 9.67611 130.996C12.5302 133.173 15.1911 135.61 17.627 138.28C16.4234 138.364 15.2406 138.649 14.1238 139.123C11.5348 138.17 9.25556 136.479 7.54583 134.244C5.83611 132.009 4.76471 129.32 4.45378 126.482C15.054 124.212 19.3733 135.25 19.5538 135.726C19.5717 135.774 19.5987 135.818 19.633 135.855C19.6674 135.893 19.7085 135.923 19.754 135.943C19.7995 135.964 19.8485 135.975 19.8982 135.976C19.9479 135.977 19.9973 135.968 20.0435 135.949C20.0898 135.93 20.132 135.902 20.1678 135.866C20.2036 135.831 20.2322 135.788 20.252 135.74C20.2718 135.693 20.2824 135.642 20.2832 135.59C20.284 135.539 20.275 135.487 20.2567 135.439C20.2099 135.314 15.4405 123.077 3.9668 125.789C3.881 125.809 3.80469 125.86 3.75107 125.933C3.69745 126.005 3.66987 126.095 3.67311 126.186C3.92776 129.103 4.94504 131.892 6.61481 134.251C8.28458 136.61 10.5432 138.449 13.1461 139.569C11.9058 140.19 10.7348 140.951 9.65422 141.839C7.84222 143.341 6.60628 144.465 6.5942 144.476C6.52259 144.541 6.47728 144.632 6.46734 144.731C6.4574 144.829 6.48356 144.928 6.5406 145.007C6.65309 145.164 9.36203 148.842 15.1182 149.536C16.4974 149.702 17.8947 149.563 19.2186 149.128C20.5425 148.693 21.763 147.972 22.8003 147.012C25.1491 144.835 25.4919 142.424 25.1899 142.072ZM22.2967 146.424C21.339 147.31 20.2121 147.976 18.9897 148.378C17.7674 148.78 16.4771 148.909 15.2035 148.757C12.225 148.453 9.44811 147.056 7.37185 144.814C7.8324 144.403 8.829 143.526 10.1231 142.453C11.1499 141.601 14.7927 138.837 18.5194 139.068C20.5474 139.191 22.4454 140.559 23.5711 141.555C21.7727 141.118 18.6961 140.582 16.5957 141.363C14.8884 141.95 13.3043 142.869 11.9283 144.073C11.8625 144.137 11.8211 144.224 11.8115 144.317C11.8019 144.41 11.8248 144.504 11.876 144.581C11.9273 144.659 12.0034 144.714 12.0907 144.738C12.178 144.762 12.2706 144.753 12.3518 144.712C12.3934 144.69 16.5406 142.614 18.3798 142.606C19.9653 142.597 23.3514 142.684 24.5036 142.714C24.1855 144.171 23.4092 145.477 22.2974 146.424H22.2967Z" fill="black"/>
<path fill-rule="evenodd" clip-rule="evenodd" d="M138.391 67.9544C138.391 67.3634 138.279 66.7782 138.061 66.2323C137.844 65.6863 137.525 65.1902 137.123 64.7724C136.721 64.3545 136.244 64.0231 135.719 63.797C135.194 63.571 134.631 63.4547 134.062 63.4548H24.2317C23.0841 63.455 21.9835 63.9291 21.1721 64.7729C20.3606 65.6168 19.9048 66.7611 19.9048 67.9544V137.985C19.9047 138.576 20.0166 139.161 20.234 139.707C20.4514 140.253 20.7702 140.749 21.1721 141.167C21.5739 141.585 22.051 141.917 22.5761 142.143C23.1013 142.369 23.6641 142.485 24.2324 142.485H134.061C134.629 142.486 135.192 142.369 135.717 142.143C136.243 141.917 136.72 141.585 137.122 141.167C137.524 140.75 137.842 140.253 138.06 139.707C138.277 139.161 138.389 138.576 138.389 137.985L138.391 67.9544Z" fill="white"/>
<path fill-rule="evenodd" clip-rule="evenodd" d="M138.391 70.5637V67.9544C138.391 67.3634 138.279 66.7782 138.061 66.2323C137.844 65.6863 137.525 65.1902 137.123 64.7724C136.721 64.3545 136.244 64.0231 135.719 63.797C135.194 63.571 134.631 63.4547 134.062 63.4548H24.2317C23.0841 63.455 21.9835 63.9291 21.1721 64.7729C20.3606 65.6168 19.9048 66.7611 19.9048 67.9544V70.5637H138.391Z" fill="#81F8F8"/>
<path fill-rule="evenodd" clip-rule="evenodd" d="M51.0901 111.436V97.2592H40.7791C38.9835 97.2789 37.2678 98.0343 36.0047 99.3615C34.7417 100.689 34.0332 102.48 34.0332 104.347C34.0332 106.214 34.7417 108.006 36.0047 109.333C37.2678 110.66 38.9835 111.416 40.7791 111.436H51.0901Z" fill="#FFD997"/>
<path d="M115.836 96.8667H40.7792C38.8838 96.8869 37.0726 97.6839 35.7391 99.0846C34.4057 100.485 33.6577 102.377 33.6577 104.347C33.6577 106.318 34.4057 108.209 35.7391 109.61C37.0726 111.011 38.8838 111.808 40.7792 111.828H115.836C117.731 111.808 119.543 111.011 120.876 109.61C122.209 108.209 122.957 106.318 122.957 104.347C122.957 102.377 122.209 100.485 120.876 99.0846C119.543 97.6839 117.731 96.8869 115.836 96.8667ZM34.3398 104.347C34.3418 102.572 35.0208 100.87 36.228 99.615C37.4352 98.3598 39.0719 97.6538 40.7792 97.6517H50.6976V111.043H40.7792C39.0718 111.041 37.435 110.335 36.2278 109.079C35.0206 107.824 34.3416 106.122 34.3398 104.347ZM115.836 111.043H51.4526V97.6517H115.836C117.532 97.6708 119.152 98.3846 120.345 99.6382C121.537 100.892 122.206 102.584 122.206 104.347C122.206 106.111 121.537 107.803 120.345 109.056C119.152 110.31 117.532 111.024 115.836 111.043Z" fill="black"/>
<path d="M43.8166 105.311C44.1273 104.939 44.3523 104.498 44.4746 104.022C44.5969 103.546 44.6133 103.047 44.5225 102.563C44.388 101.941 44.0726 101.377 43.6192 100.947C43.1658 100.518 42.5962 100.244 41.9878 100.162C41.3794 100.081 40.7616 100.196 40.2182 100.491C39.6748 100.787 39.2321 101.25 38.9502 101.817C38.6682 102.383 38.5607 103.026 38.6422 103.658C38.7237 104.29 38.9902 104.881 39.4057 105.35C39.8211 105.82 40.3653 106.145 40.9645 106.281C41.5637 106.418 42.1888 106.36 42.7551 106.115C43.4014 107.227 44.9861 109.804 45.606 109.449C46.2832 109.056 44.4916 106.302 43.8166 105.311ZM41.8816 104.746C41.5767 104.817 41.2583 104.792 40.9671 104.674C40.6759 104.557 40.4252 104.351 40.2471 104.084C40.0691 103.817 39.9718 103.501 39.9677 103.176C39.9636 102.851 40.053 102.532 40.2242 102.26C40.3955 101.989 40.641 101.776 40.9291 101.65C41.2173 101.525 41.535 101.491 41.8415 101.554C42.1481 101.618 42.4295 101.774 42.6497 102.005C42.8699 102.236 43.0188 102.529 43.0775 102.848C43.1605 103.265 43.0813 103.699 42.857 104.054C42.6328 104.41 42.282 104.659 41.8816 104.746Z" fill="white"/>
<path d="M44.2917 105.323C46.1196 102.709 43.9542 99.0043 40.9372 99.6064C40.4849 99.7077 40.0566 99.9024 39.6779 100.179C39.2991 100.455 38.9775 100.808 38.7321 101.216C38.4868 101.624 38.3226 102.079 38.2493 102.554C38.176 103.029 38.195 103.515 38.3054 103.982C38.4157 104.449 38.6151 104.889 38.8916 105.275C39.1682 105.66 39.5164 105.985 39.9156 106.228C40.3148 106.471 40.7569 106.629 41.2157 106.692C41.6745 106.754 42.1408 106.721 42.5869 106.593C43.1683 107.595 44.8036 110.357 45.7896 109.789C45.8738 109.74 45.9466 109.672 46.0027 109.591C46.0588 109.509 46.0969 109.416 46.1143 109.318C46.2932 108.46 45.0588 106.46 44.2917 105.323ZM42.0969 105.912C41.57 106.038 41.0189 105.998 40.5143 105.796C40.0096 105.594 39.5746 105.24 39.265 104.779C38.9554 104.318 38.7854 103.772 38.7767 103.209C38.7681 102.647 38.9213 102.095 39.2166 101.624C39.5119 101.154 39.9358 100.785 40.434 100.567C40.9321 100.348 41.4818 100.289 42.0123 100.398C42.5428 100.506 43.03 100.777 43.4112 101.176C43.7925 101.575 44.0505 102.083 44.152 102.635C44.2971 103.353 44.1621 104.101 43.7766 104.716C43.3911 105.331 42.7867 105.761 42.0962 105.912H42.0969ZM43.2891 106.273C43.4584 106.169 43.6186 106.049 43.7677 105.916C44.4714 106.86 45.0175 107.919 45.3834 109.051C44.5415 108.251 43.8334 107.312 43.2883 106.271L43.2891 106.273Z" fill="black"/>
<path d="M43.448 102.775C43.3687 102.396 43.1838 102.05 42.9162 101.779C42.6487 101.509 42.3105 101.327 41.9439 101.256C41.5774 101.185 41.1987 101.227 40.8554 101.379C40.5121 101.53 40.2193 101.783 40.0137 102.107C39.8082 102.431 39.6989 102.81 39.6997 103.198C39.7005 103.585 39.8112 103.964 40.0181 104.287C40.2249 104.609 40.5187 104.862 40.8626 105.011C41.2065 105.161 41.5853 105.202 41.9516 105.13C42.4499 105.023 42.8872 104.715 43.1677 104.274C43.4482 103.832 43.549 103.293 43.448 102.775ZM41.8104 104.36C41.579 104.417 41.3365 104.401 41.1142 104.313C40.8918 104.225 40.6998 104.071 40.5628 103.868C40.4258 103.666 40.3501 103.426 40.3454 103.179C40.3407 102.932 40.4073 102.689 40.5365 102.481C40.6658 102.274 40.8518 102.111 41.0706 102.015C41.2895 101.918 41.5312 101.892 41.7646 101.939C41.9979 101.986 42.2124 102.105 42.3803 102.28C42.5481 102.455 42.6618 102.679 42.7066 102.921C42.7386 103.077 42.7409 103.238 42.7132 103.394C42.6855 103.551 42.6284 103.7 42.5452 103.834C42.4619 103.967 42.3542 104.083 42.2281 104.173C42.1021 104.263 41.9601 104.327 41.8104 104.36Z" fill="black"/>
<path d="M57.1348 104.893C57.1348 105.311 57.2943 105.711 57.5781 106.006C57.862 106.301 58.2471 106.467 58.6485 106.467C59.05 106.467 59.4351 106.301 59.7189 106.006C60.0028 105.711 60.1623 105.311 60.1623 104.893C60.1623 104.476 60.0028 104.076 59.7189 103.78C59.4351 103.485 59.05 103.319 58.6485 103.319C58.2471 103.319 57.862 103.485 57.5781 103.78C57.2943 104.076 57.1348 104.476 57.1348 104.893Z" fill="black"/>
<path d="M65.8438 104.893C65.8437 105.311 66.0032 105.711 66.2871 106.006C66.571 106.301 66.956 106.467 67.3575 106.467C67.759 106.467 68.144 106.301 68.4279 106.006C68.7118 105.711 68.8713 105.311 68.8713 104.893C68.8713 104.476 68.7118 104.076 68.4279 103.78C68.144 103.485 67.759 103.319 67.3575 103.319C66.956 103.319 66.571 103.485 66.2871 103.78C66.0032 104.076 65.8438 104.476 65.8438 104.893Z" fill="black"/>
<path d="M76.0657 103.319C75.7672 103.319 75.4754 103.411 75.2271 103.584C74.9789 103.756 74.7854 104.001 74.671 104.288C74.5566 104.574 74.5264 104.89 74.5844 105.194C74.6424 105.499 74.7858 105.778 74.9966 105.998C75.2074 106.218 75.4761 106.368 75.7688 106.429C76.0614 106.49 76.3649 106.459 76.6409 106.341C76.9169 106.223 77.153 106.022 77.3193 105.765C77.4857 105.507 77.5749 105.204 77.5757 104.893C77.5753 104.477 77.4162 104.077 77.1332 103.782C76.8502 103.487 76.4664 103.321 76.0657 103.319Z" fill="black"/>
<path d="M84.7738 103.319C84.4755 103.32 84.1841 103.413 83.9363 103.586C83.6886 103.758 83.4956 104.004 83.3818 104.29C83.268 104.577 83.2384 104.892 83.2968 105.197C83.3552 105.501 83.4989 105.78 83.7099 106C83.9208 106.219 84.1895 106.368 84.4821 106.429C84.7746 106.49 85.0779 106.459 85.3537 106.341C85.6294 106.222 85.8653 106.022 86.0315 105.764C86.1977 105.507 86.2868 105.204 86.2876 104.893C86.2872 104.476 86.1276 104.076 85.8438 103.781C85.56 103.486 85.1752 103.32 84.7738 103.319Z" fill="black"/>
<path d="M91.9688 104.893C91.9687 105.311 92.1282 105.711 92.4121 106.006C92.696 106.301 93.0811 106.467 93.4825 106.467C93.884 106.467 94.269 106.301 94.5529 106.006C94.8368 105.711 94.9963 105.311 94.9963 104.893C94.9963 104.476 94.8368 104.076 94.5529 103.78C94.269 103.485 93.884 103.319 93.4825 103.319C93.0811 103.319 92.696 103.485 92.4121 103.78C92.1282 104.076 91.9688 104.476 91.9688 104.893Z" fill="black"/>
<path d="M100.677 104.893C100.677 105.311 100.837 105.711 101.121 106.006C101.405 106.301 101.79 106.467 102.191 106.467C102.593 106.467 102.978 106.301 103.261 106.006C103.545 105.711 103.705 105.311 103.705 104.893C103.705 104.476 103.545 104.076 103.261 103.78C102.978 103.485 102.593 103.319 102.191 103.319C101.79 103.319 101.405 103.485 101.121 103.78C100.837 104.076 100.677 104.476 100.677 104.893Z" fill="black"/>
<path d="M109.385 104.893C109.385 105.1 109.424 105.305 109.5 105.496C109.577 105.687 109.688 105.86 109.829 106.006C109.969 106.152 110.136 106.268 110.32 106.347C110.503 106.427 110.7 106.467 110.899 106.467C111.098 106.467 111.295 106.427 111.478 106.347C111.662 106.268 111.829 106.152 111.969 106.006C112.11 105.86 112.221 105.687 112.298 105.496C112.374 105.305 112.413 105.1 112.413 104.893C112.413 104.687 112.374 104.482 112.298 104.291C112.221 104.1 112.11 103.927 111.969 103.78C111.829 103.634 111.662 103.518 111.478 103.439C111.295 103.36 111.098 103.319 110.899 103.319C110.7 103.319 110.503 103.36 110.32 103.439C110.136 103.518 109.969 103.634 109.829 103.78C109.688 103.927 109.577 104.1 109.5 104.291C109.424 104.482 109.385 104.687 109.385 104.893Z" fill="black"/>
<path d="M44.1616 65.5782H129.707V68.5588H44.1616V65.5782Z" fill="white"/>
<path d="M134.061 63.0615H24.2317C22.9843 63.0631 21.7884 63.5792 20.9065 64.4965C20.0245 65.4138 19.5285 66.6573 19.5273 67.9544V137.989C19.5287 139.286 20.0248 140.529 20.9067 141.446C21.7887 142.363 22.9844 142.879 24.2317 142.881H134.061C135.308 142.88 136.504 142.364 137.387 141.447C138.269 140.53 138.765 139.286 138.767 137.989V67.9544C138.765 66.6571 138.269 65.4135 137.387 64.4962C136.505 63.5789 135.308 63.0629 134.061 63.0615ZM24.2302 63.8465H134.061C135.108 63.8479 136.112 64.2812 136.853 65.0513C137.594 65.8213 138.01 66.8653 138.012 67.9544V70.2065H20.2823V67.9544C20.2833 66.8655 20.6997 65.8215 21.4401 65.0513C22.1805 64.2812 23.1845 63.8479 24.2317 63.8465H24.2302ZM134.061 142.096H24.2317C23.1846 142.095 22.1808 141.661 21.4404 140.891C20.7 140.122 20.2835 139.078 20.2823 137.989V70.9915H138.013V137.989C138.012 139.078 137.595 140.122 136.854 140.892C136.113 141.662 135.108 142.095 134.061 142.096Z" fill="black"/>
<path d="M44.1607 68.9513H129.707C129.807 68.9513 129.903 68.91 129.974 68.8364C130.044 68.7628 130.084 68.6629 130.084 68.5588V65.5758C130.084 65.4717 130.044 65.3719 129.974 65.2983C129.903 65.2247 129.807 65.1833 129.707 65.1833H44.1607C44.0606 65.1833 43.9646 65.2247 43.8938 65.2983C43.823 65.3719 43.7832 65.4717 43.7832 65.5758V68.5588C43.7832 68.6629 43.823 68.7628 43.8938 68.8364C43.9646 68.91 44.0606 68.9513 44.1607 68.9513ZM44.5382 65.9683H129.329V68.1663H44.5382V65.9683Z" fill="black"/>
<path d="M23.7704 67.806C26.9829 69.4726 26.7587 69.376 26.8855 69.376C26.9704 69.3758 27.0528 69.3459 27.1194 69.291C27.1859 69.2361 27.2327 69.1594 27.2522 69.0735C27.2716 68.9875 27.2627 68.8972 27.2267 68.8172C27.1907 68.7372 27.1298 68.6722 27.0539 68.6326L24.7254 67.4237L27.0086 66.0107C27.0946 65.9574 27.1567 65.8708 27.1812 65.7699C27.2058 65.6689 27.1908 65.562 27.1396 65.4726C27.0883 65.3832 27.005 65.3186 26.9079 65.293C26.8108 65.2675 26.708 65.2831 26.622 65.3364L23.7455 67.1168C23.687 67.1528 23.6391 67.2045 23.6066 67.2666C23.5741 67.3286 23.5583 67.3985 23.5608 67.4691C23.5634 67.5397 23.5842 67.6082 23.6211 67.6675C23.6579 67.7268 23.7095 67.7746 23.7704 67.806Z" fill="black"/>
<path d="M33.2278 69.1617C33.2725 69.2547 33.3509 69.3254 33.4458 69.3584C33.5406 69.3914 33.6441 69.3839 33.7337 69.3375L36.6782 67.8076C36.7388 67.7761 36.7902 67.7283 36.827 67.6691C36.8637 67.6099 36.8845 67.5415 36.887 67.471C36.8896 67.4006 36.8738 67.3308 36.8415 67.2689C36.8091 67.2069 36.7613 67.1552 36.7031 67.1191L33.8265 65.3388C33.7407 65.2894 33.6398 65.2767 33.5452 65.3034C33.4505 65.3301 33.3696 65.394 33.3194 65.4816C33.2693 65.5692 33.2539 65.6737 33.2766 65.7729C33.2992 65.8721 33.3581 65.9582 33.4407 66.0131L35.7231 67.4261L33.3947 68.635C33.3054 68.6819 33.2377 68.7637 33.2064 68.8624C33.1752 68.9612 33.1828 69.0688 33.2278 69.1617Z" fill="black"/>
<path fill-rule="evenodd" clip-rule="evenodd" d="M142.819 138.063H128.507V148.33C128.507 148.575 128.553 148.818 128.643 149.045C128.733 149.272 128.866 149.478 129.033 149.652C129.2 149.825 129.398 149.963 129.616 150.057C129.834 150.151 130.068 150.199 130.304 150.199H141.018C141.254 150.199 141.488 150.151 141.706 150.057C141.924 149.963 142.122 149.825 142.289 149.652C142.456 149.478 142.589 149.272 142.679 149.045C142.769 148.818 142.816 148.575 142.816 148.33L142.819 138.063Z" fill="white"/>
<path d="M145.523 115.416C145.511 115.351 145.484 115.29 145.444 115.238C145.403 115.187 145.351 115.147 145.292 115.123C145.232 115.098 145.168 115.089 145.105 115.098C145.041 115.106 144.981 115.131 144.929 115.17C136.379 121.646 137.312 134.037 137.323 134.161C137.329 134.237 137.356 134.309 137.401 134.369C137.446 134.429 137.506 134.474 137.575 134.499C137.644 134.524 137.718 134.528 137.789 134.509C137.86 134.491 137.924 134.452 137.974 134.397C146.985 124.367 145.586 115.777 145.523 115.416Z" fill="black"/>
<path d="M134.439 135.832C130.834 121.513 123.598 119.293 123.292 119.205C123.222 119.185 123.148 119.187 123.079 119.209C123.009 119.232 122.948 119.275 122.901 119.333C122.855 119.391 122.826 119.461 122.817 119.536C122.808 119.611 122.82 119.687 122.852 119.755C124.455 123.221 133.392 135.64 133.771 136.167C133.824 136.24 133.899 136.292 133.984 136.313C134.069 136.335 134.159 136.325 134.238 136.286C134.317 136.246 134.38 136.179 134.417 136.096C134.453 136.013 134.461 135.92 134.439 135.832Z" fill="black"/>
<path fill-rule="evenodd" clip-rule="evenodd" d="M134.655 138.064C134.655 138.064 131.163 136.415 125.111 131.163C119.059 125.912 117.311 122.575 117.311 122.575C121.46 122.898 125.366 124.735 128.338 127.762C130.767 130.227 132.721 133.152 134.094 136.38C132.767 132.19 129.693 121.112 131.634 113.76C134.483 116.101 136.609 119.259 137.749 122.844C138.889 126.429 138.992 130.282 138.046 133.927C140.03 129.652 143.055 125.99 146.82 123.306C146.82 123.306 147.923 131.059 137.886 138.064H134.655Z" fill="white"/>
<path d="M142.819 137.671H139.087C148.151 130.815 147.241 123.565 147.195 123.25C147.185 123.183 147.16 123.121 147.12 123.068C147.081 123.015 147.029 122.973 146.969 122.947C146.91 122.92 146.845 122.91 146.781 122.917C146.717 122.925 146.656 122.949 146.603 122.988C143.498 125.236 140.87 128.123 138.882 131.47C139.126 129.68 139.121 127.864 138.869 126.076C138.088 121.119 135.596 116.627 131.859 113.443C131.81 113.405 131.753 113.38 131.692 113.37C131.631 113.36 131.569 113.366 131.511 113.387C131.453 113.408 131.401 113.443 131.359 113.489C131.317 113.536 131.287 113.592 131.27 113.654C129.743 119.439 131.228 127.359 132.608 132.626C131.45 130.772 130.109 129.049 128.607 127.484C125.576 124.37 121.573 122.489 117.323 122.181C117.256 122.179 117.191 122.196 117.132 122.229C117.074 122.262 117.025 122.31 116.99 122.369C116.956 122.427 116.936 122.495 116.935 122.564C116.933 122.633 116.949 122.701 116.981 122.762C117.056 122.9 118.832 126.223 124.87 131.463C127.456 133.77 130.225 135.846 133.147 137.669H128.508C128.408 137.669 128.312 137.711 128.241 137.784C128.17 137.858 128.13 137.958 128.13 138.062V148.328C128.13 148.625 128.186 148.919 128.296 149.194C128.405 149.468 128.565 149.717 128.767 149.928C128.969 150.138 129.209 150.304 129.472 150.418C129.736 150.531 130.019 150.59 130.305 150.59H141.02C141.305 150.59 141.588 150.532 141.852 150.418C142.116 150.305 142.356 150.138 142.558 149.928C142.76 149.718 142.92 149.468 143.029 149.194C143.139 148.919 143.195 148.625 143.194 148.328V138.064C143.194 137.96 143.155 137.86 143.084 137.787C143.014 137.713 142.919 137.672 142.819 137.671ZM146.475 124.057C146.453 125.972 145.741 131.55 138.855 136.873C140.305 134.203 142.045 131.714 144.039 129.455C144.075 129.418 144.103 129.374 144.122 129.325C144.14 129.276 144.15 129.224 144.149 129.172C144.148 129.119 144.137 129.068 144.117 129.02C144.096 128.972 144.067 128.928 144.03 128.892C143.993 128.856 143.95 128.829 143.903 128.81C143.855 128.792 143.805 128.784 143.755 128.786C143.704 128.789 143.655 128.801 143.609 128.824C143.564 128.846 143.523 128.878 143.489 128.917C143.323 129.1 139.483 133.372 137.64 137.671H137.301C137.761 136.486 138.136 135.267 138.423 134.025C140.274 130.061 143.039 126.636 146.472 124.053L146.475 124.057ZM131.857 114.458C135.167 117.519 137.376 121.659 138.124 126.199C138.9 131.327 136.942 136.536 136.478 137.671H136.447C135.791 126.929 133.644 120.25 133.622 120.184C133.59 120.085 133.522 120.004 133.432 119.957C133.342 119.911 133.238 119.904 133.143 119.937C133.048 119.971 132.97 120.042 132.926 120.136C132.881 120.229 132.874 120.337 132.907 120.436C132.928 120.501 135.039 127.072 135.69 137.671H134.946C134.804 137.175 134.635 136.688 134.441 136.212C133.155 132.127 130.264 121.637 131.854 114.454L131.857 114.458ZM122.283 126.46C126.172 129.429 129.737 132.831 132.915 136.605C128.321 133.7 121.163 127.711 118.047 123.033C121.824 123.516 125.345 125.273 128.071 128.034C130.391 130.4 132.275 133.187 133.631 136.258C127.498 129.184 122.752 125.842 122.701 125.807C122.66 125.777 122.614 125.756 122.565 125.745C122.516 125.734 122.465 125.734 122.416 125.743C122.366 125.753 122.32 125.773 122.278 125.801C122.236 125.83 122.2 125.867 122.172 125.911C122.144 125.954 122.125 126.003 122.115 126.054C122.106 126.105 122.106 126.158 122.116 126.209C122.126 126.26 122.146 126.308 122.175 126.351C122.203 126.394 122.239 126.431 122.281 126.459L122.283 126.46ZM142.441 148.326C142.442 148.52 142.405 148.712 142.334 148.891C142.263 149.07 142.158 149.233 142.026 149.37C141.895 149.507 141.738 149.616 141.566 149.69C141.393 149.765 141.209 149.803 141.022 149.802H130.304C130.118 149.803 129.933 149.764 129.761 149.69C129.588 149.616 129.432 149.507 129.3 149.37C129.168 149.233 129.064 149.07 128.992 148.891C128.921 148.712 128.884 148.52 128.885 148.326V138.456H142.441V148.326Z" fill="black"/>
<path d="M40.6377 20.3629L39.0877 19.512C39.1511 18.8713 39.1511 18.2255 39.0877 17.5848L40.6377 16.7339C40.7098 16.6944 40.7677 16.6316 40.8026 16.5551C40.8376 16.4785 40.8478 16.3923 40.8317 16.3092C40.6646 15.443 40.4011 14.6 40.0465 13.7972C40.0127 13.7202 39.9558 13.6567 39.8843 13.6161C39.8129 13.5755 39.7308 13.56 39.6502 13.5719L37.9137 13.831C37.6023 13.2738 37.237 12.7511 36.8234 12.2712L37.5966 10.6352C37.6324 10.5593 37.6437 10.4733 37.6287 10.3901C37.6138 10.3069 37.5734 10.231 37.5135 10.1736C36.8886 9.57554 36.1989 9.05499 35.4584 8.62248C35.3875 8.58105 35.3056 8.56456 35.2249 8.57545C35.1442 8.58634 35.0691 8.62404 35.0107 8.68293L33.7544 9.95149C33.1878 9.69059 32.5971 9.49068 31.9914 9.35489L31.6894 7.55959C31.6755 7.4763 31.6361 7.3999 31.5771 7.34176C31.518 7.28363 31.4425 7.24687 31.3618 7.23696C30.5177 7.13491 29.6652 7.13491 28.8212 7.23696C28.7403 7.24671 28.6646 7.2834 28.6054 7.34155C28.5462 7.39969 28.5067 7.47618 28.4928 7.55959L28.1908 9.35489C27.5853 9.49045 26.9948 9.69037 26.4286 9.95149L25.17 8.68136C25.1116 8.62247 25.0365 8.58477 24.9558 8.57388C24.8751 8.56299 24.7932 8.57948 24.7223 8.62091C23.9822 9.05399 23.2928 9.57478 22.6679 10.1729C22.6081 10.2302 22.5677 10.3061 22.5527 10.3893C22.5377 10.4725 22.549 10.5585 22.5849 10.6344L23.3573 12.2704C22.9439 12.7503 22.5789 13.273 22.2678 13.8302L20.5313 13.5711C20.4507 13.5592 20.3685 13.5747 20.2971 13.6153C20.2257 13.6559 20.1688 13.7194 20.1349 13.7964C19.781 14.5995 19.5175 15.4424 19.3497 16.3084C19.3336 16.3915 19.3438 16.4778 19.3788 16.5543C19.4138 16.6309 19.4716 16.6936 19.5437 16.7331L21.0945 17.584C21.0303 18.2247 21.0303 18.8706 21.0945 19.5112L19.5437 20.3622C19.4716 20.4017 19.4138 20.4644 19.3788 20.541C19.3438 20.6175 19.3336 20.7038 19.3497 20.7868C19.5175 21.6528 19.7809 22.4958 20.1349 23.2988C20.1688 23.3758 20.2257 23.4393 20.2971 23.4799C20.3685 23.5205 20.4507 23.536 20.5313 23.5241L22.2678 23.2651C22.5791 23.8219 22.9441 24.3443 23.3573 24.8241L22.5849 26.46C22.549 26.536 22.5377 26.622 22.5527 26.7052C22.5677 26.7883 22.6081 26.8643 22.6679 26.9216C23.2938 27.5216 23.9848 28.0437 24.7268 28.4775C24.7978 28.5189 24.8797 28.5354 24.9603 28.5245C25.041 28.5136 25.1161 28.4759 25.1745 28.417L26.4331 27.143C26.9994 27.4037 27.5898 27.6034 28.1953 27.7388L28.4973 29.5341C28.5111 29.6177 28.5506 29.6943 28.6098 29.7526C28.669 29.8109 28.7447 29.8477 28.8257 29.8575C29.6697 29.9596 30.5223 29.9596 31.3663 29.8575C31.4472 29.8476 31.5227 29.8107 31.5818 29.7524C31.6409 29.6941 31.6802 29.6175 31.694 29.5341L31.996 27.7388C32.6016 27.6033 33.1923 27.4036 33.7589 27.143L35.0167 28.4131C35.0751 28.472 35.1503 28.5097 35.2309 28.5206C35.3116 28.5315 35.3935 28.515 35.4644 28.4736C36.2052 28.0408 36.8949 27.5197 37.5195 26.9208C37.5794 26.8635 37.6198 26.7876 37.6348 26.7044C37.6497 26.6212 37.6385 26.5352 37.6026 26.4593L36.8249 24.8249C37.2383 24.3451 37.6036 23.8227 37.9152 23.2659L39.6517 23.5249C39.7322 23.5359 39.814 23.5201 39.8852 23.4796C39.9565 23.4391 40.0135 23.376 40.048 23.2996C40.4023 22.4967 40.6658 21.6537 40.8332 20.7876C40.8492 20.7044 40.8388 20.618 40.8035 20.5414C40.7683 20.4648 40.7101 20.4022 40.6377 20.3629ZM33.8729 18.5488C33.8729 19.326 33.6512 20.0858 33.2359 20.732C32.8206 21.3783 32.2303 21.882 31.5397 22.1794C30.8491 22.4768 30.0892 22.5546 29.356 22.403C28.6229 22.2514 27.9494 21.8771 27.4208 21.3275C26.8923 20.778 26.5323 20.0777 26.3865 19.3155C26.2406 18.5532 26.3155 17.763 26.6015 17.045C26.8876 16.3269 27.372 15.7132 27.9936 15.2814C28.6151 14.8496 29.3458 14.6191 30.0934 14.6191C31.0954 14.6201 32.0562 15.0345 32.7648 15.7712C33.4734 16.508 33.8719 17.5069 33.8729 18.5488Z" fill="black"/>
<path d="M58.6683 31.9315L57.4384 31.2556C57.4844 30.7573 57.4844 30.2554 57.4384 29.7571L58.6683 29.082C58.7404 29.0424 58.7983 28.9797 58.8332 28.9032C58.8682 28.8266 58.8784 28.7404 58.8623 28.6573C58.7241 27.9419 58.5064 27.2457 58.2138 26.5825C58.1797 26.5056 58.1227 26.4421 58.0511 26.4016C57.9795 26.3612 57.8973 26.3459 57.8166 26.358L56.4403 26.5637C56.1961 26.1318 55.9124 25.7254 55.5932 25.3501L56.2062 24.0525C56.2421 23.9765 56.2534 23.8905 56.2384 23.8073C56.2235 23.7242 56.183 23.6482 56.1232 23.5909C55.6069 23.0963 55.0371 22.6658 54.4252 22.3082C54.3543 22.2668 54.2724 22.2503 54.1917 22.2612C54.111 22.2721 54.0359 22.3098 53.9775 22.3686L52.9801 23.3766C52.5382 23.1766 52.0788 23.0215 51.6083 22.9134L51.3712 21.491C51.3573 21.4076 51.3177 21.3311 51.2585 21.273C51.1994 21.2148 51.1237 21.1781 51.0428 21.1684C50.3458 21.0836 49.6416 21.0836 48.9446 21.1684C48.8639 21.1783 48.7884 21.2151 48.7293 21.2732C48.6703 21.3313 48.6309 21.4077 48.617 21.491L48.3791 22.9166C47.9086 23.0247 47.4492 23.1798 47.0073 23.3797L46.01 22.3718C45.9516 22.3129 45.8764 22.2752 45.7957 22.2643C45.7151 22.2534 45.6332 22.2699 45.5622 22.3113C44.9503 22.669 44.3805 23.0994 43.8642 23.594C43.8045 23.6515 43.7642 23.7274 43.7494 23.8106C43.7346 23.8938 43.746 23.9797 43.7819 24.0556L44.395 25.3532C44.0757 25.7286 43.7917 26.135 43.5471 26.5668L42.1708 26.358C42.0901 26.3459 42.0079 26.3612 41.9363 26.4016C41.8647 26.4421 41.8077 26.5056 41.7736 26.5825C41.4813 27.2458 41.2637 27.942 41.1251 28.6573C41.109 28.7404 41.1192 28.8266 41.1542 28.9032C41.1892 28.9797 41.247 29.0424 41.3191 29.082L42.5498 29.7571C42.503 30.2554 42.503 30.7573 42.5498 31.2556L41.3191 31.9315C41.247 31.971 41.1892 32.0338 41.1542 32.1103C41.1192 32.1869 41.109 32.2731 41.1251 32.3562C41.2636 33.0712 41.4812 33.7672 41.7736 34.4302C41.8076 34.507 41.8646 34.5704 41.936 34.6108C42.0074 34.6513 42.0895 34.6666 42.17 34.6547L43.5471 34.4498C43.7919 34.8813 44.0758 35.2874 44.395 35.6626L43.7819 36.961C43.746 37.0369 43.7346 37.1228 43.7494 37.206C43.7642 37.2892 43.8045 37.3651 43.8642 37.4226C44.3805 37.9165 44.9501 38.3467 45.5615 38.7045C45.6325 38.7461 45.7146 38.7627 45.7954 38.7518C45.8762 38.7409 45.9515 38.7031 46.01 38.6441L47.0096 37.6385C47.4514 37.8385 47.9108 37.9936 48.3814 38.1016L48.6192 39.5264C48.633 39.6098 48.6723 39.6864 48.7314 39.7447C48.7904 39.803 48.866 39.8399 48.9469 39.8498C49.6439 39.9346 50.348 39.9346 51.0451 39.8498C51.126 39.84 51.2018 39.8032 51.261 39.7449C51.3202 39.6866 51.3597 39.61 51.3735 39.5264L51.6105 38.1016C52.0812 37.9938 52.5406 37.8386 52.9824 37.6385L53.9797 38.6464C54.0382 38.7055 54.1135 38.7433 54.1943 38.7542C54.2751 38.7651 54.3572 38.7485 54.4282 38.7069C55.0389 38.3496 55.6077 37.9199 56.1232 37.4265C56.183 37.3692 56.2235 37.2932 56.2384 37.2101C56.2534 37.1269 56.2421 37.0409 56.2062 36.9649L55.5932 35.6665C55.9122 35.2914 56.1959 34.8852 56.4403 34.4537L57.8174 34.6586C57.8979 34.6706 57.98 34.6552 58.0514 34.6147C58.1228 34.5743 58.1798 34.5109 58.2138 34.4341C58.5065 33.7712 58.7242 33.0752 58.8623 32.3601C58.8793 32.2765 58.8695 32.1893 58.8345 32.112C58.7995 32.0346 58.7411 31.9712 58.6683 31.9315ZM53.0239 30.5067C53.0241 31.13 52.8464 31.7393 52.5135 32.2576C52.1805 32.7759 51.7072 33.1799 51.1534 33.4185C50.5996 33.6571 49.9902 33.7196 49.4023 33.598C48.8143 33.4765 48.2743 33.1763 47.8504 32.7356C47.4265 32.2949 47.1379 31.7334 47.021 31.1221C46.904 30.5108 46.9641 29.8771 47.1936 29.3013C47.4231 28.7255 47.8116 28.2334 48.3101 27.8872C48.8086 27.5411 49.3946 27.3564 49.9941 27.3565C50.7977 27.3576 51.5681 27.6901 52.1362 28.2812C52.7042 28.8723 53.0235 29.6735 53.0239 30.5091V30.5067Z" fill="black"/>
<path d="M70.6525 12.4824C70.6446 12.3985 70.611 12.3194 70.5566 12.257C70.5023 12.1945 70.43 12.1518 70.3505 12.1354L69.7797 12.0137C69.7433 11.8302 69.6967 11.6491 69.64 11.4713L70.0756 11.0701C70.1361 11.0144 70.1778 10.9399 70.1945 10.8576C70.2113 10.7754 70.2021 10.6897 70.1685 10.6133C70.0166 10.2673 69.8333 9.93713 69.6211 9.62731C69.5742 9.55896 69.5075 9.50805 69.4307 9.48205C69.354 9.45606 69.2712 9.45634 69.1946 9.48287L68.6427 9.67362C68.5222 9.53425 68.3947 9.40165 68.2606 9.27641L68.4441 8.70258C68.4696 8.62292 68.4699 8.53686 68.4449 8.45703C68.4199 8.3772 68.3709 8.30781 68.3052 8.25905C68.0072 8.03803 67.6894 7.84744 67.3561 7.68993C67.2828 7.65535 67.2007 7.64607 67.1219 7.66344C67.0432 7.68081 66.9718 7.72392 66.9182 7.78648L66.5317 8.23943C66.3606 8.18059 66.1864 8.13184 66.01 8.09342L65.893 7.50153C65.8772 7.41899 65.8363 7.34392 65.7763 7.28738C65.7164 7.23085 65.6405 7.19584 65.56 7.18753C65.1954 7.15063 64.8283 7.15063 64.4637 7.18753C64.3832 7.19584 64.3074 7.23085 64.2474 7.28738C64.1875 7.34392 64.1466 7.41899 64.1308 7.50153L64.0138 8.09342C63.8373 8.13184 63.6632 8.18059 63.4921 8.23943L63.1055 7.78648C63.052 7.72392 62.9806 7.68081 62.9018 7.66344C62.823 7.64607 62.7409 7.65535 62.6676 7.68993C62.3344 7.84757 62.0166 8.03815 61.7186 8.25905C61.6528 8.30781 61.6039 8.3772 61.5789 8.45703C61.5539 8.53686 61.5541 8.62292 61.5796 8.70258L61.7631 9.2772C61.6291 9.40217 61.5015 9.5345 61.3811 9.67362L60.8292 9.48287C60.7526 9.45634 60.6698 9.45606 60.593 9.48205C60.5162 9.50805 60.4495 9.55896 60.4026 9.62731C60.1904 9.93713 60.0071 10.2673 59.8552 10.6133C59.8216 10.6897 59.8125 10.7754 59.8292 10.8576C59.8459 10.9399 59.8876 11.0144 59.9481 11.0701L60.3837 11.4713C60.327 11.6491 60.2804 11.8302 60.244 12.0137L59.6733 12.1354C59.5938 12.1518 59.5215 12.1945 59.4671 12.257C59.4127 12.3194 59.3791 12.3985 59.3713 12.4824C59.3365 12.8609 59.3365 13.242 59.3713 13.6206C59.3791 13.7045 59.4127 13.7835 59.4671 13.846C59.5215 13.9085 59.5938 13.9511 59.6733 13.9676L60.244 14.0892C60.2804 14.2727 60.327 14.4539 60.3837 14.6317L59.9481 15.0328C59.8878 15.0885 59.8462 15.1629 59.8295 15.245C59.8128 15.3271 59.8218 15.4125 59.8552 15.4889C60.0068 15.8353 60.1901 16.1658 60.4026 16.4756C60.4495 16.544 60.5162 16.5949 60.593 16.6209C60.6698 16.6469 60.7526 16.6466 60.8292 16.6201L61.3818 16.4293C61.5021 16.5671 61.6294 16.6981 61.7631 16.8218L61.5796 17.3965C61.5542 17.4759 61.5539 17.5618 61.5788 17.6414C61.6036 17.7211 61.6524 17.7904 61.7178 17.8392C62.016 18.0606 62.334 18.2515 62.6676 18.4091C62.741 18.4439 62.8233 18.4532 62.9022 18.4359C62.9811 18.4185 63.0527 18.3753 63.1062 18.3125L63.4921 17.8596C63.6631 17.9185 63.8373 17.967 64.0138 18.0048L64.1308 18.5983C64.1466 18.6809 64.1876 18.7561 64.2477 18.8126C64.3078 18.8692 64.3838 18.9041 64.4645 18.9123C64.8285 18.9492 65.1952 18.9492 65.5592 18.9123C65.6399 18.9041 65.7159 18.8692 65.776 18.8126C65.8361 18.7561 65.8771 18.6809 65.893 18.5983L66.01 18.0048C66.1865 17.967 66.3607 17.9185 66.5317 17.8596L66.9175 18.3125C66.9711 18.3754 67.0428 18.4188 67.1219 18.4362C67.201 18.4535 67.2834 18.4441 67.3569 18.4091C67.6898 18.2511 68.0073 18.0602 68.3052 17.8392C68.3708 17.7905 68.4196 17.7212 68.4446 17.6416C68.4696 17.5619 68.4694 17.476 68.4441 17.3965L68.2606 16.8226C68.3944 16.6974 68.5217 16.5648 68.6419 16.4254L69.1946 16.6162C69.2712 16.6427 69.354 16.643 69.4307 16.617C69.5075 16.591 69.5742 16.5401 69.6211 16.4717C69.8336 16.1618 70.0169 15.8314 70.1685 15.485C70.2019 15.4086 70.211 15.3231 70.1943 15.241C70.1775 15.159 70.136 15.0846 70.0756 15.0289L69.64 14.6278C69.6967 14.4499 69.7433 14.2688 69.7797 14.0853L70.3505 13.9636C70.43 13.9472 70.5023 13.9046 70.5566 13.8421C70.611 13.7796 70.6446 13.7006 70.6525 13.6167C70.687 13.2394 70.687 12.8596 70.6525 12.4824ZM66.5838 13.0515C66.5838 13.3743 66.4917 13.6898 66.3192 13.9582C66.1468 14.2266 65.9016 14.4357 65.6148 14.5593C65.328 14.6828 65.0124 14.7151 64.7079 14.6521C64.4034 14.5892 64.1237 14.4337 63.9042 14.2055C63.6847 13.9772 63.5352 13.6864 63.4746 13.3699C63.4141 13.0533 63.4452 12.7251 63.564 12.4269C63.6828 12.1287 63.884 11.8738 64.1421 11.6945C64.4002 11.5152 64.7037 11.4195 65.0141 11.4195C65.4303 11.4199 65.8293 11.592 66.1236 11.8979C66.4179 12.2039 66.5834 12.6188 66.5838 13.0515Z" fill="black"/>
<path d="M137.465 12.8089C137.403 12.7276 137.313 12.675 137.214 12.6626C137.115 12.6503 137.015 12.6791 136.936 12.743L107.355 36.921L101.406 21.3552C101.383 21.2951 101.346 21.2418 101.298 21.2001C101.251 21.1583 101.194 21.1295 101.133 21.1162C101.072 21.1028 101.009 21.1053 100.949 21.1234C100.89 21.1416 100.835 21.1748 100.791 21.2202L77.6296 44.9036L73.5594 32.9002C73.5385 32.8389 73.5033 32.784 73.457 32.7403C73.4107 32.6967 73.3546 32.6657 73.2939 32.6501C73.2332 32.6346 73.1697 32.6349 73.1092 32.6512C73.0487 32.6674 72.9929 32.699 72.9471 32.7432L48.43 56.3387L41.8214 44.5441C41.7936 44.4941 41.7554 44.4512 41.7097 44.4183C41.664 44.3854 41.6119 44.3634 41.5571 44.3539C41.5023 44.3444 41.4461 44.3475 41.3926 44.3632C41.3391 44.3788 41.2896 44.4066 41.2476 44.4444L29.8471 54.7185C29.7715 54.7867 29.7249 54.8833 29.7178 54.9872C29.7106 55.091 29.7434 55.1936 29.809 55.2723C29.8746 55.351 29.9676 55.3994 30.0674 55.4068C30.1673 55.4143 30.266 55.3801 30.3417 55.3119L41.3979 45.3479L48.014 57.1559C48.0472 57.2154 48.0949 57.2648 48.1523 57.2991C48.2096 57.3334 48.2747 57.3515 48.3409 57.3514C48.5674 57.3514 46.8799 58.8994 73.0384 33.7229L77.1154 45.7452C77.1365 45.8075 77.1723 45.8633 77.2197 45.9073C77.267 45.9514 77.3242 45.9824 77.3861 45.9973C77.448 46.0123 77.5125 46.0107 77.5737 45.9929C77.6349 45.975 77.6907 45.9414 77.736 45.8951L100.915 22.1881L106.84 37.6926C106.862 37.7493 106.896 37.7999 106.939 37.8404C106.983 37.8809 107.036 37.9103 107.092 37.9261C107.149 37.942 107.208 37.9439 107.266 37.9317C107.323 37.9195 107.377 37.8936 107.423 37.8559L137.403 13.3568C137.48 13.2923 137.531 13.1987 137.542 13.0961C137.554 12.9935 137.526 12.8903 137.465 12.8089Z" fill="black"/>
<path d="M38.4751 45.0096C38.4751 45.8424 38.7933 46.6411 39.3596 47.2299C39.926 47.8188 40.6941 48.1496 41.4951 48.1496C42.2961 48.1496 43.0642 47.8188 43.6306 47.2299C44.1969 46.6411 44.5151 45.8424 44.5151 45.0096C44.5151 44.1768 44.1969 43.3782 43.6306 42.7893C43.0642 42.2004 42.2961 41.8696 41.4951 41.8696C40.6941 41.8696 39.926 42.2004 39.3596 42.7893C38.7933 43.3782 38.4751 44.1768 38.4751 45.0096Z" fill="#FFD997"/>
<path d="M40.1738 45.0096C40.1738 45.19 40.208 45.3686 40.2744 45.5353C40.3408 45.702 40.4381 45.8534 40.5608 45.981C40.6835 46.1086 40.8292 46.2097 40.9895 46.2788C41.1498 46.3478 41.3216 46.3834 41.4951 46.3834C41.6686 46.3834 41.8404 46.3478 42.0007 46.2788C42.161 46.2097 42.3067 46.1086 42.4293 45.981C42.552 45.8534 42.6494 45.702 42.7158 45.5353C42.7822 45.3686 42.8163 45.19 42.8163 45.0096C42.8163 44.8292 42.7822 44.6506 42.7158 44.4839C42.6494 44.3172 42.552 44.1658 42.4293 44.0382C42.3067 43.9107 42.161 43.8095 42.0007 43.7404C41.8404 43.6714 41.6686 43.6359 41.4951 43.6359C41.3216 43.6359 41.1498 43.6714 40.9895 43.7404C40.8292 43.8095 40.6835 43.9107 40.5608 44.0382C40.4381 44.1658 40.3408 44.3172 40.2744 44.4839C40.208 44.6506 40.1738 44.8292 40.1738 45.0096Z" fill="white"/>
<path d="M41.4976 41.4771C40.8256 41.4771 40.1688 41.6843 39.61 42.0724C39.0513 42.4606 38.6159 43.0123 38.3587 43.6578C38.1016 44.3033 38.0343 45.0135 38.1654 45.6988C38.2965 46.384 38.6201 47.0134 39.0952 47.5075C39.5704 48.0015 40.1757 48.3379 40.8348 48.4742C41.4938 48.6105 42.177 48.5406 42.7978 48.2732C43.4186 48.0058 43.9492 47.5531 44.3225 46.9722C44.6958 46.3912 44.8951 45.7083 44.8951 45.0096C44.8951 44.0727 44.5371 43.1742 43.9 42.5117C43.2628 41.8493 42.3987 41.4771 41.4976 41.4771ZM41.4976 47.7571C40.975 47.7571 40.4641 47.596 40.0295 47.2941C39.5949 46.9922 39.2563 46.5631 39.0562 46.061C38.8562 45.559 38.8039 45.0066 38.9059 44.4736C39.0078 43.9406 39.2595 43.4511 39.6291 43.0668C39.9986 42.6826 40.4695 42.4209 40.9821 42.3149C41.4947 42.2089 42.026 42.2633 42.5088 42.4712C42.9917 42.6792 43.4044 43.0313 43.6948 43.4832C43.9851 43.935 44.1401 44.4662 44.1401 45.0096C44.1401 45.7383 43.8617 46.4371 43.3661 46.9524C42.8706 47.4676 42.1984 47.7571 41.4976 47.7571Z" fill="black"/>
<path d="M41.4971 43.2434C41.1611 43.2434 40.8327 43.3469 40.5533 43.541C40.274 43.7351 40.0562 44.0109 39.9276 44.3337C39.7991 44.6564 39.7654 45.0116 39.831 45.3542C39.8965 45.6968 40.0583 46.0115 40.2959 46.2585C40.5335 46.5055 40.8362 46.6738 41.1657 46.7419C41.4952 46.8101 41.8368 46.7751 42.1472 46.6414C42.4576 46.5077 42.7229 46.2813 42.9095 45.9909C43.0962 45.7004 43.1958 45.3589 43.1958 45.0096C43.1954 44.5413 43.0163 44.0923 42.6978 43.7611C42.3794 43.43 41.9475 43.2438 41.4971 43.2434ZM41.4971 45.9909C41.3104 45.9909 41.128 45.9333 40.9728 45.8255C40.8176 45.7177 40.6966 45.5644 40.6252 45.3851C40.5537 45.2058 40.5351 45.0085 40.5715 44.8182C40.6079 44.6278 40.6978 44.453 40.8298 44.3158C40.9617 44.1785 41.1299 44.0851 41.313 44.0472C41.496 44.0093 41.6858 44.0288 41.8582 44.103C42.0307 44.1773 42.1781 44.3031 42.2818 44.4645C42.3855 44.6258 42.4408 44.8155 42.4408 45.0096C42.4406 45.2698 42.3411 45.5192 42.1642 45.7032C41.9873 45.8872 41.7473 45.9906 41.4971 45.9909Z" fill="black"/>
<path d="M45.4189 56.5836C45.4189 57.4164 45.7371 58.2151 46.3035 58.804C46.8698 59.3928 47.638 59.7236 48.4389 59.7236C49.2399 59.7236 50.0081 59.3928 50.5744 58.804C51.1408 58.2151 51.4589 57.4164 51.4589 56.5836C51.4589 55.7509 51.1408 54.9522 50.5744 54.3633C50.0081 53.7745 49.2399 53.4436 48.4389 53.4436C47.638 53.4436 46.8698 53.7745 46.3035 54.3633C45.7371 54.9522 45.4189 55.7509 45.4189 56.5836Z" fill="#FFD997"/>
<path d="M47.1177 56.5836C47.1177 56.948 47.2569 57.2974 47.5047 57.555C47.7524 57.8127 48.0885 57.9574 48.4389 57.9574C48.7893 57.9574 49.1254 57.8127 49.3732 57.555C49.621 57.2974 49.7602 56.948 49.7602 56.5836C49.7602 56.2193 49.621 55.8699 49.3732 55.6123C49.1254 55.3546 48.7893 55.2099 48.4389 55.2099C48.0885 55.2099 47.7524 55.3546 47.5047 55.6123C47.2569 55.8699 47.1177 56.2193 47.1177 56.5836Z" fill="white"/>
<path d="M48.439 53.048C47.767 53.048 47.1102 53.2552 46.5515 53.6433C45.9927 54.0315 45.5573 54.5832 45.3001 55.2287C45.043 55.8742 44.9757 56.5844 45.1068 57.2697C45.2379 57.9549 45.5615 58.5843 46.0366 59.0784C46.5118 59.5724 47.1171 59.9088 47.7762 60.0451C48.4352 60.1814 49.1184 60.1115 49.7392 59.8441C50.36 59.5767 50.8906 59.124 51.2639 58.5431C51.6372 57.9621 51.8365 57.2792 51.8365 56.5805C51.8365 55.6436 51.4786 54.7451 50.8414 54.0826C50.2042 53.4202 49.3401 53.048 48.439 53.048ZM48.439 59.328C47.9164 59.328 47.4055 59.1669 46.9709 58.865C46.5364 58.5631 46.1977 58.134 45.9977 57.6319C45.7976 57.1299 45.7453 56.5775 45.8473 56.0445C45.9492 55.5115 46.2009 55.022 46.5705 54.6377C46.94 54.2535 47.4109 53.9918 47.9235 53.8858C48.4361 53.7798 48.9674 53.8342 49.4502 54.0421C49.9331 54.2501 50.3458 54.6022 50.6362 55.0541C50.9265 55.5059 51.0815 56.0371 51.0815 56.5805C51.0815 57.3092 50.8031 58.008 50.3075 58.5233C49.812 59.0385 49.1398 59.328 48.439 59.328Z" fill="black"/>
<path d="M48.439 54.8166C48.103 54.8166 47.7746 54.9202 47.4952 55.1143C47.2159 55.3084 46.9981 55.5842 46.8695 55.9069C46.741 56.2297 46.7073 56.5848 46.7729 56.9274C46.8384 57.2701 47.0002 57.5848 47.2378 57.8318C47.4754 58.0788 47.778 58.247 48.1076 58.3152C48.4371 58.3833 48.7787 58.3483 49.0891 58.2147C49.3995 58.081 49.6648 57.8546 49.8514 57.5641C50.0381 57.2737 50.1377 56.9322 50.1377 56.5829C50.1371 56.1146 49.958 55.6657 49.6395 55.3346C49.3211 55.0035 48.8893 54.8172 48.439 54.8166ZM48.439 57.5641C48.2523 57.5641 48.0699 57.5066 47.9147 57.3987C47.7595 57.2909 47.6385 57.1377 47.5671 56.9584C47.4956 56.7791 47.477 56.5818 47.5134 56.3914C47.5498 56.2011 47.6397 56.0262 47.7717 55.889C47.9036 55.7518 48.0718 55.6583 48.2549 55.6205C48.4379 55.5826 48.6277 55.602 48.8001 55.6763C48.9726 55.7506 49.12 55.8763 49.2237 56.0377C49.3274 56.1991 49.3827 56.3888 49.3827 56.5829C49.3827 56.8431 49.2833 57.0927 49.1063 57.2767C48.9293 57.4607 48.6893 57.5641 48.439 57.5641Z" fill="black"/>
<path d="M70.1572 33.2205C70.1572 34.0533 70.4754 34.8519 71.0418 35.4408C71.6081 36.0297 72.3763 36.3605 73.1772 36.3605C73.9782 36.3605 74.7463 36.0297 75.3127 35.4408C75.8791 34.8519 76.1972 34.0533 76.1972 33.2205C76.1972 32.3877 75.8791 31.589 75.3127 31.0002C74.7463 30.4113 73.9782 30.0805 73.1772 30.0805C72.3763 30.0805 71.6081 30.4113 71.0418 31.0002C70.4754 31.589 70.1572 32.3877 70.1572 33.2205Z" fill="#FFD997"/>
<path d="M71.856 33.2205C71.856 33.5848 71.9952 33.9342 72.2429 34.1919C72.4907 34.4495 72.8268 34.5942 73.1772 34.5942C73.5276 34.5942 73.8637 34.4495 74.1115 34.1919C74.3593 33.9342 74.4985 33.5848 74.4985 33.2205C74.4985 32.8561 74.3593 32.5067 74.1115 32.2491C73.8637 31.9915 73.5276 31.8467 73.1772 31.8467C72.8268 31.8467 72.4907 31.9915 72.2429 32.2491C71.9952 32.5067 71.856 32.8561 71.856 33.2205Z" fill="white"/>
<path d="M73.1773 29.688C72.5053 29.688 71.8485 29.8952 71.2897 30.2833C70.731 30.6715 70.2956 31.2232 70.0384 31.8686C69.7813 32.5141 69.714 33.2244 69.8451 33.9096C69.9762 34.5949 70.2997 35.2243 70.7749 35.7183C71.25 36.2124 71.8554 36.5488 72.5145 36.6851C73.1735 36.8214 73.8566 36.7514 74.4775 36.4841C75.0983 36.2167 75.6289 35.7639 76.0022 35.183C76.3755 34.6021 76.5748 33.9191 76.5748 33.2205C76.5748 32.2836 76.2168 31.3851 75.5797 30.7226C74.9425 30.0602 74.0784 29.688 73.1773 29.688ZM73.1773 35.968C72.6546 35.968 72.1437 35.8068 71.7092 35.5049C71.2746 35.203 70.9359 34.7739 70.7359 34.2719C70.5359 33.7699 70.4836 33.2174 70.5856 32.6845C70.6875 32.1515 70.9392 31.6619 71.3088 31.2777C71.6783 30.8935 72.1492 30.6318 72.6618 30.5258C73.1744 30.4198 73.7057 30.4742 74.1885 30.6821C74.6714 30.8901 75.0841 31.2422 75.3744 31.694C75.6648 32.1459 75.8198 32.6771 75.8198 33.2205C75.8198 33.9492 75.5414 34.648 75.0458 35.1633C74.5503 35.6785 73.8781 35.968 73.1773 35.968Z" fill="black"/>
<path d="M73.1773 31.4542C72.8413 31.4542 72.5128 31.5578 72.2335 31.7519C71.9541 31.946 71.7364 32.2218 71.6078 32.5446C71.4793 32.8673 71.4456 33.2224 71.5112 33.5651C71.5767 33.9077 71.7385 34.2224 71.9761 34.4694C72.2136 34.7164 72.5163 34.8846 72.8459 34.9528C73.1754 35.0209 73.5169 34.986 73.8273 34.8523C74.1378 34.7186 74.4031 34.4922 74.5897 34.2017C74.7764 33.9113 74.876 33.5698 74.876 33.2205C74.8756 32.7522 74.6965 32.3032 74.378 31.972C74.0595 31.6409 73.6277 31.4546 73.1773 31.4542ZM73.1773 34.2017C72.9906 34.2017 72.8081 34.1442 72.6529 34.0364C72.4977 33.9285 72.3768 33.7753 72.3054 33.596C72.2339 33.4167 72.2152 33.2194 72.2516 33.029C72.2881 32.8387 72.3779 32.6639 72.5099 32.5266C72.6419 32.3894 72.8101 32.2959 72.9932 32.2581C73.1762 32.2202 73.366 32.2396 73.5384 32.3139C73.7109 32.3882 73.8583 32.514 73.962 32.6753C74.0657 32.8367 74.121 33.0264 74.121 33.2205C74.1208 33.4807 74.0213 33.7301 73.8444 33.9141C73.6674 34.0981 73.4275 34.2015 73.1773 34.2017Z" fill="black"/>
<path d="M74.4565 45.0567C74.4565 45.8895 74.7747 46.6882 75.3411 47.277C75.9074 47.8659 76.6756 48.1967 77.4765 48.1967C78.2775 48.1967 79.0456 47.8659 79.612 47.277C80.1784 46.6882 80.4965 45.8895 80.4965 45.0567C80.4965 44.2239 80.1784 43.4253 79.612 42.8364C79.0456 42.2475 78.2775 41.9167 77.4765 41.9167C76.6756 41.9167 75.9074 42.2475 75.3411 42.8364C74.7747 43.4253 74.4565 44.2239 74.4565 45.0567Z" fill="#FFD997"/>
<path d="M76.1548 45.0567C76.1548 45.421 76.294 45.7705 76.5418 46.0281C76.7896 46.2857 77.1256 46.4305 77.476 46.4305C77.8265 46.4305 78.1625 46.2857 78.4103 46.0281C78.6581 45.7705 78.7973 45.421 78.7973 45.0567C78.7973 44.6924 78.6581 44.3429 78.4103 44.0853C78.1625 43.8277 77.8265 43.683 77.476 43.683C77.1256 43.683 76.7896 43.8277 76.5418 44.0853C76.294 44.3429 76.1548 44.6924 76.1548 45.0567Z" fill="white"/>
<path d="M77.4766 41.5242C76.8046 41.5242 76.1478 41.7314 75.5891 42.1195C75.0303 42.5077 74.5949 43.0594 74.3377 43.7049C74.0806 44.3504 74.0133 45.0606 74.1444 45.7459C74.2755 46.4311 74.5991 47.0605 75.0742 47.5546C75.5494 48.0486 76.1547 48.385 76.8138 48.5213C77.4728 48.6576 78.156 48.5877 78.7768 48.3203C79.3976 48.0529 79.9282 47.6002 80.3015 47.0193C80.6748 46.4383 80.8741 45.7554 80.8741 45.0567C80.8731 44.1201 80.5148 43.2222 79.8779 42.56C79.241 41.8977 78.3774 41.5252 77.4766 41.5242ZM77.4766 47.8042C76.954 47.8042 76.4431 47.6431 76.0085 47.3412C75.5739 47.0393 75.2353 46.6102 75.0353 46.1081C74.8352 45.6061 74.7829 45.0537 74.8849 44.5207C74.9868 43.9877 75.2385 43.4982 75.6081 43.1139C75.9776 42.7297 76.4485 42.468 76.9611 42.362C77.4737 42.256 78.005 42.3104 78.4878 42.5183C78.9707 42.7263 79.3834 43.0784 79.6738 43.5303C79.9641 43.9821 80.1191 44.5133 80.1191 45.0567C80.1191 45.7854 79.8407 46.4842 79.3451 46.9995C78.8496 47.5147 78.1774 47.8042 77.4766 47.8042Z" fill="black"/>
<path d="M77.4761 43.2905C77.1401 43.2905 76.8117 43.394 76.5323 43.5881C76.253 43.7822 76.0352 44.0581 75.9067 44.3808C75.7781 44.7035 75.7444 45.0587 75.81 45.4013C75.8755 45.7439 76.0373 46.0586 76.2749 46.3056C76.5125 46.5526 76.8152 46.7209 77.1447 46.789C77.4742 46.8572 77.8158 46.8222 78.1262 46.6885C78.4366 46.5548 78.7019 46.3284 78.8886 46.038C79.0752 45.7475 79.1748 45.406 79.1748 45.0567C79.1744 44.5884 78.9953 44.1394 78.6769 43.8082C78.3584 43.4771 77.9265 43.2909 77.4761 43.2905ZM77.4761 46.038C77.2894 46.038 77.107 45.9804 76.9518 45.8726C76.7966 45.7648 76.6756 45.6115 76.6042 45.4322C76.5328 45.2529 76.5141 45.0556 76.5505 44.8653C76.5869 44.6749 76.6768 44.5001 76.8088 44.3629C76.9407 44.2256 77.1089 44.1322 77.292 44.0943C77.475 44.0564 77.6648 44.0759 77.8373 44.1501C78.0097 44.2244 78.1571 44.3502 78.2608 44.5116C78.3645 44.6729 78.4198 44.8626 78.4198 45.0567C78.4196 45.3169 78.3201 45.5663 78.1432 45.7503C77.9663 45.9343 77.7263 46.0377 77.4761 46.038Z" fill="black"/>
<path d="M98.1182 21.6276C98.1182 22.4604 98.4364 23.259 99.0027 23.8479C99.5691 24.4368 100.337 24.7676 101.138 24.7676C101.939 24.7676 102.707 24.4368 103.274 23.8479C103.84 23.259 104.158 22.4604 104.158 21.6276C104.158 20.7948 103.84 19.9961 103.274 19.4073C102.707 18.8184 101.939 18.4876 101.138 18.4876C100.337 18.4876 99.5691 18.8184 99.0027 19.4073C98.4364 19.9961 98.1182 20.7948 98.1182 21.6276Z" fill="#FFD997"/>
<path d="M99.8169 21.6276C99.8169 21.9919 99.9561 22.3414 100.204 22.599C100.452 22.8566 100.788 23.0013 101.138 23.0013C101.489 23.0013 101.825 22.8566 102.072 22.599C102.32 22.3414 102.459 21.9919 102.459 21.6276C102.459 21.2633 102.32 20.9138 102.072 20.6562C101.825 20.3986 101.489 20.2538 101.138 20.2538C100.788 20.2538 100.452 20.3986 100.204 20.6562C99.9561 20.9138 99.8169 21.2633 99.8169 21.6276Z" fill="white"/>
<path d="M101.138 18.0951C100.466 18.0951 99.8094 18.3023 99.2507 18.6904C98.692 19.0786 98.2565 19.6303 97.9993 20.2758C97.7422 20.9212 97.6749 21.6315 97.806 22.3167C97.9371 23.002 98.2607 23.6314 98.7358 24.1254C99.211 24.6195 99.8164 24.9559 100.475 25.0922C101.134 25.2285 101.818 25.1586 102.438 24.8912C103.059 24.6238 103.59 24.1711 103.963 23.5901C104.336 23.0092 104.536 22.3263 104.536 21.6276C104.536 20.6907 104.178 19.7922 103.541 19.1297C102.903 18.4673 102.039 18.0951 101.138 18.0951ZM101.138 24.3751C100.616 24.3751 100.105 24.214 99.6701 23.9121C99.2356 23.6102 98.8969 23.1811 98.6969 22.679C98.4969 22.177 98.4445 21.6245 98.5465 21.0916C98.6485 20.5586 98.9001 20.0691 99.2697 19.6848C99.6393 19.3006 100.11 19.0389 100.623 18.9329C101.135 18.8269 101.667 18.8813 102.149 19.0892C102.632 19.2972 103.045 19.6493 103.335 20.1012C103.626 20.553 103.781 21.0842 103.781 21.6276C103.781 22.3563 103.502 23.0551 103.007 23.5704C102.511 24.0856 101.839 24.3751 101.138 24.3751Z" fill="black"/>
<path d="M101.138 19.8613C100.802 19.8613 100.473 19.9649 100.194 20.159C99.9146 20.3531 99.6968 20.6289 99.5683 20.9517C99.4397 21.2744 99.4061 21.6295 99.4716 21.9722C99.5372 22.3148 99.6989 22.6295 99.9365 22.8765C100.174 23.1235 100.477 23.2917 100.806 23.3599C101.136 23.4281 101.477 23.3931 101.788 23.2594C102.098 23.1257 102.364 22.8993 102.55 22.6089C102.737 22.3184 102.836 21.9769 102.836 21.6276C102.836 21.1593 102.657 20.7103 102.338 20.3791C102.02 20.048 101.588 19.8618 101.138 19.8613ZM101.138 22.6088C100.951 22.6088 100.769 22.5513 100.613 22.4435C100.458 22.3356 100.337 22.1824 100.266 22.0031C100.194 21.8238 100.176 21.6265 100.212 21.4362C100.249 21.2458 100.338 21.071 100.47 20.9337C100.602 20.7965 100.771 20.7031 100.954 20.6652C101.137 20.6273 101.326 20.6468 101.499 20.721C101.671 20.7953 101.819 20.9211 101.922 21.0824C102.026 21.2438 102.081 21.4335 102.081 21.6276C102.081 21.8878 101.982 22.1374 101.805 22.3214C101.628 22.5055 101.388 22.6088 101.138 22.6088Z" fill="black"/>
<path d="M134.082 13.1292C134.082 13.962 134.4 14.7606 134.966 15.3495C135.532 15.9384 136.301 16.2692 137.102 16.2692C137.902 16.2692 138.671 15.9384 139.237 15.3495C139.803 14.7606 140.122 13.962 140.122 13.1292C140.122 12.2964 139.803 11.4977 139.237 10.9089C138.671 10.32 137.902 9.98918 137.102 9.98918C136.301 9.98918 135.532 10.32 134.966 10.9089C134.4 11.4977 134.082 12.2964 134.082 13.1292Z" fill="#FFD997"/>
<path d="M135.78 13.1292C135.78 13.4935 135.919 13.8429 136.167 14.1006C136.415 14.3582 136.751 14.5029 137.101 14.5029C137.451 14.5029 137.788 14.3582 138.035 14.1006C138.283 13.8429 138.422 13.4935 138.422 13.1292C138.422 12.7648 138.283 12.4154 138.035 12.1578C137.788 11.9002 137.451 11.7554 137.101 11.7554C136.751 11.7554 136.415 11.9002 136.167 12.1578C135.919 12.4154 135.78 12.7648 135.78 13.1292Z" fill="white"/>
<path d="M137.101 9.59668C136.429 9.59668 135.772 9.80386 135.214 10.192C134.655 10.5802 134.219 11.1319 133.962 11.7774C133.705 12.4228 133.638 13.1331 133.769 13.8183C133.9 14.5036 134.224 15.133 134.699 15.627C135.174 16.1211 135.779 16.4575 136.438 16.5938C137.097 16.7301 137.78 16.6602 138.401 16.3928C139.022 16.1254 139.553 15.6727 139.926 15.0917C140.299 14.5108 140.499 13.8278 140.499 13.1292C140.499 12.1923 140.141 11.2938 139.504 10.6313C138.866 9.96886 138.002 9.59668 137.101 9.59668ZM137.101 15.8767C136.578 15.8767 136.068 15.7155 135.633 15.4136C135.198 15.1117 134.86 14.6826 134.66 14.1806C134.46 13.6786 134.407 13.1261 134.509 12.5932C134.611 12.0602 134.863 11.5707 135.233 11.1864C135.602 10.8022 136.073 10.5405 136.586 10.4345C137.098 10.3285 137.63 10.3829 138.112 10.5908C138.595 10.7988 139.008 11.1509 139.298 11.6028C139.589 12.0546 139.744 12.5858 139.744 13.1292C139.744 13.8579 139.465 14.5567 138.97 15.072C138.474 15.5872 137.802 15.8767 137.101 15.8767Z" fill="black"/>
<path d="M137.101 11.3645C136.765 11.3645 136.437 11.4681 136.157 11.6622C135.878 11.8562 135.66 12.1321 135.532 12.4548C135.403 12.7776 135.369 13.1327 135.435 13.4753C135.501 13.818 135.662 14.1327 135.9 14.3797C136.137 14.6267 136.44 14.7949 136.77 14.8631C137.099 14.9312 137.441 14.8962 137.751 14.7626C138.062 14.6289 138.327 14.4025 138.514 14.112C138.7 13.8216 138.8 13.4801 138.8 13.1308C138.799 12.6624 138.62 12.2134 138.302 11.8823C137.983 11.5511 137.552 11.3649 137.101 11.3645ZM137.101 14.112C136.914 14.112 136.732 14.0545 136.577 13.9466C136.422 13.8388 136.301 13.6856 136.229 13.5063C136.158 13.327 136.139 13.1297 136.175 12.9393C136.212 12.749 136.302 12.5741 136.434 12.4369C136.566 12.2997 136.734 12.2062 136.917 12.1684C137.1 12.1305 137.29 12.1499 137.462 12.2242C137.635 12.2985 137.782 12.4242 137.886 12.5856C137.989 12.747 138.045 12.9367 138.045 13.1308C138.045 13.3909 137.945 13.6404 137.768 13.8244C137.591 14.0083 137.351 14.1118 137.101 14.112Z" fill="black"/>
<path d="M104.313 37.3598C104.313 38.1926 104.632 38.9912 105.198 39.5801C105.764 40.169 106.533 40.4998 107.333 40.4998C108.134 40.4998 108.903 40.169 109.469 39.5801C110.035 38.9912 110.353 38.1926 110.353 37.3598C110.353 36.527 110.035 35.7283 109.469 35.1395C108.903 34.5506 108.134 34.2198 107.333 34.2198C106.533 34.2198 105.764 34.5506 105.198 35.1395C104.632 35.7283 104.313 36.527 104.313 37.3598Z" fill="#FFD997"/>
<path d="M106.012 37.3598C106.012 37.7241 106.151 38.0735 106.399 38.3312C106.647 38.5888 106.983 38.7335 107.333 38.7335C107.684 38.7335 108.02 38.5888 108.268 38.3312C108.515 38.0735 108.655 37.7241 108.655 37.3598C108.655 36.9954 108.515 36.646 108.268 36.3884C108.02 36.1308 107.684 35.986 107.333 35.986C106.983 35.986 106.647 36.1308 106.399 36.3884C106.151 36.646 106.012 36.9954 106.012 37.3598Z" fill="white"/>
<path d="M107.334 33.8273C106.662 33.8273 106.005 34.0345 105.446 34.4226C104.887 34.8108 104.452 35.3625 104.195 36.008C103.938 36.6534 103.87 37.3637 104.001 38.0489C104.132 38.7342 104.456 39.3636 104.931 39.8576C105.406 40.3517 106.012 40.6881 106.671 40.8244C107.33 40.9607 108.013 40.8908 108.634 40.6234C109.255 40.356 109.785 39.9033 110.158 39.3223C110.532 38.7414 110.731 38.0584 110.731 37.3598C110.731 36.4229 110.373 35.5244 109.736 34.8619C109.099 34.1995 108.235 33.8273 107.334 33.8273ZM107.334 40.1073C106.811 40.1073 106.3 39.9461 105.865 39.6442C105.431 39.3423 105.092 38.9132 104.892 38.4112C104.692 37.9092 104.64 37.3567 104.742 36.8238C104.844 36.2908 105.095 35.8013 105.465 35.417C105.835 35.0328 106.305 34.7711 106.818 34.6651C107.331 34.5591 107.862 34.6135 108.345 34.8214C108.828 35.0294 109.24 35.3815 109.531 35.8334C109.821 36.2852 109.976 36.8164 109.976 37.3598C109.976 38.0885 109.698 38.7873 109.202 39.3026C108.707 39.8178 108.034 40.1073 107.334 40.1073Z" fill="black"/>
<path d="M107.334 35.5935C106.998 35.5935 106.669 35.6971 106.39 35.8912C106.11 36.0853 105.893 36.3611 105.764 36.6839C105.636 37.0066 105.602 37.3617 105.667 37.7044C105.733 38.047 105.895 38.3617 106.132 38.6087C106.37 38.8557 106.673 39.0239 107.002 39.0921C107.332 39.1602 107.673 39.1253 107.984 38.9916C108.294 38.8579 108.559 38.6315 108.746 38.3411C108.933 38.0506 109.032 37.7091 109.032 37.3598C109.032 36.8915 108.853 36.4425 108.534 36.1113C108.216 35.7802 107.784 35.5939 107.334 35.5935ZM107.334 38.341C107.147 38.341 106.964 38.2835 106.809 38.1757C106.654 38.0678 106.533 37.9146 106.462 37.7353C106.39 37.556 106.371 37.3587 106.408 37.1683C106.444 36.978 106.534 36.8032 106.666 36.6659C106.798 36.5287 106.966 36.4352 107.149 36.3974C107.332 36.3595 107.522 36.379 107.695 36.4532C107.867 36.5275 108.015 36.6533 108.118 36.8146C108.222 36.976 108.277 37.1657 108.277 37.3598C108.277 37.62 108.178 37.8694 108.001 38.0534C107.824 38.2374 107.584 38.3408 107.334 38.341Z" fill="black"/>
<path d="M27.0728 55.2923C27.0728 56.1251 27.3909 56.9238 27.9573 57.5126C28.5237 58.1015 29.2918 58.4323 30.0928 58.4323C30.8937 58.4323 31.6619 58.1015 32.2282 57.5126C32.7946 56.9238 33.1128 56.1251 33.1128 55.2923C33.1128 54.4595 32.7946 53.6609 32.2282 53.072C31.6619 52.4831 30.8937 52.1523 30.0928 52.1523C29.2918 52.1523 28.5237 52.4831 27.9573 53.072C27.3909 53.6609 27.0728 54.4595 27.0728 55.2923Z" fill="#FFD997"/>
<path d="M28.7715 55.2923C28.7715 55.6567 28.9107 56.0061 29.1585 56.2637C29.4063 56.5213 29.7423 56.6661 30.0927 56.6661C30.4432 56.6661 30.7792 56.5213 31.027 56.2637C31.2748 56.0061 31.414 55.6567 31.414 55.2923C31.414 54.928 31.2748 54.5786 31.027 54.3209C30.7792 54.0633 30.4432 53.9186 30.0927 53.9186C29.7423 53.9186 29.4063 54.0633 29.1585 54.3209C28.9107 54.5786 28.7715 54.928 28.7715 55.2923Z" fill="white"/>
<path d="M30.0928 51.7598C29.4209 51.7598 28.764 51.967 28.2053 52.3552C27.6465 52.7433 27.2111 53.295 26.9539 53.9405C26.6968 54.586 26.6295 55.2962 26.7606 55.9815C26.8917 56.6667 27.2153 57.2961 27.6904 57.7902C28.1656 58.2842 28.7709 58.6206 29.43 58.7569C30.089 58.8932 30.7722 58.8233 31.393 58.5559C32.0138 58.2886 32.5444 57.8358 32.9177 57.2549C33.2911 56.674 33.4903 55.991 33.4903 55.2923C33.4893 54.3558 33.131 53.4579 32.4941 52.7956C31.8572 52.1334 30.9936 51.7609 30.0928 51.7598ZM30.0928 58.0398C29.5702 58.0398 29.0593 57.8787 28.6247 57.5768C28.1902 57.2749 27.8515 56.8458 27.6515 56.3437C27.4515 55.8417 27.3991 55.2893 27.5011 54.7563C27.6031 54.2233 27.8547 53.7338 28.2243 53.3495C28.5938 52.9653 29.0647 52.7036 29.5773 52.5976C30.0899 52.4916 30.6212 52.546 31.1041 52.754C31.5869 52.9619 31.9996 53.3141 32.29 53.7659C32.5803 54.2177 32.7353 54.7489 32.7353 55.2923C32.7353 56.021 32.4569 56.7198 31.9613 57.2351C31.4658 57.7504 30.7936 58.0398 30.0928 58.0398Z" fill="black"/>
<path d="M30.0923 53.5261C29.7563 53.5261 29.4279 53.6297 29.1485 53.8237C28.8692 54.0178 28.6514 54.2937 28.5229 54.6164C28.3943 54.9391 28.3606 55.2943 28.4262 55.6369C28.4917 55.9795 28.6535 56.2942 28.8911 56.5412C29.1287 56.7883 29.4314 56.9565 29.7609 57.0246C30.0904 57.0928 30.432 57.0578 30.7424 56.9241C31.0528 56.7904 31.3181 56.5641 31.5048 56.2736C31.6914 55.9831 31.7911 55.6417 31.7911 55.2923C31.7907 54.824 31.6116 54.375 31.2931 54.0438C30.9746 53.7127 30.5427 53.5265 30.0923 53.5261ZM30.0923 56.2736C29.9056 56.2736 29.7232 56.216 29.568 56.1082C29.4128 56.0004 29.2918 55.8471 29.2204 55.6678C29.149 55.4885 29.1303 55.2912 29.1667 55.1009C29.2031 54.9105 29.293 54.7357 29.425 54.5985C29.557 54.4612 29.7251 54.3678 29.9082 54.3299C30.0913 54.2921 30.281 54.3115 30.4535 54.3858C30.6259 54.46 30.7733 54.5858 30.877 54.7472C30.9807 54.9085 31.0361 55.0982 31.0361 55.2923C31.0357 55.5524 30.9361 55.8018 30.7592 55.9857C30.5823 56.1696 30.3425 56.2732 30.0923 56.2736Z" fill="black"/>
<path fill-rule="evenodd" clip-rule="evenodd" d="M146.804 67.3586C146.636 58.6937 142.135 48.9652 139.631 46.1369C137.14 43.3242 127.675 39.0358 127.675 39.0358L114.336 40.8059C114.336 40.8059 107.98 45.1384 105.014 49.817C102.386 54.5183 102.913 63.527 102.913 63.527H108.41L108.87 55.9666L134.258 56.6786L137.541 64.5176C137.244 64.6742 136.981 64.8918 136.767 65.1572C136.553 65.4226 136.394 65.7304 136.298 66.0617C139.01 64.418 142.771 67.5815 143.885 69.2653C144.999 70.9492 144.277 71.0237 144.277 71.0237C145.67 72.0662 147.501 68.1192 147.501 68.1192C147.282 67.8525 147.049 67.5986 146.804 67.3586Z" fill="white"/>
<path fill-rule="evenodd" clip-rule="evenodd" d="M116.111 37.3519C115.594 36.0378 114.245 33.9403 113.809 32.5705C113.512 31.5146 113.53 30.3898 113.862 29.3449C112.768 27.6807 113.267 26.4734 113.267 26.4734C113.219 24.6212 113.445 22.7723 113.936 20.991C114.456 20.0998 115.146 19.3291 115.965 18.7264C116.783 18.1237 117.711 17.7017 118.692 17.4867C122.942 16.5251 126.201 18.0723 127.843 21.2068C129.484 24.3413 127.489 27.3149 127.489 27.3149C129.587 27.3149 128.329 30.495 127.606 31.2831C127.361 31.6174 127.053 31.8953 126.7 32.0993C126.347 32.3034 125.958 32.4291 125.556 32.4685C125.611 32.5729 125.587 31.9613 125.655 37.885C124.286 39.9239 122.461 41.5863 120.336 42.7292C118.97 42.9107 117.581 42.7589 116.281 42.2857L116.111 37.3519Z" fill="#FFD997"/>
<path fill-rule="evenodd" clip-rule="evenodd" d="M116.391 43.0628C116.206 41.3993 116.236 39.7175 116.48 38.0624L115.903 36.928C115.903 36.928 113.014 39.1818 113.198 44.2152C113.198 44.2152 115.426 41.9277 116.391 43.0628Z" fill="white"/>
<path fill-rule="evenodd" clip-rule="evenodd" d="M117.149 49.6725C117.688 48.0621 118.456 46.545 119.429 45.1721C120.739 43.5801 121.902 42.2582 123.19 42.7433C124.479 43.2284 125.047 45.7192 125.047 45.7192C125.047 45.7192 127.403 40.5547 127.672 39.0326C127.101 38.0314 126.448 37.0833 125.72 36.1988L125.579 37.7593C125.183 38.5165 124.617 39.1629 123.929 39.6433C122.993 40.1567 118.075 43.9137 117.489 46.494C116.903 49.0743 117.149 49.6725 117.149 49.6725Z" fill="white"/>
<path d="M116.722 33.1184C116.457 33.1555 116.187 33.0991 115.957 32.9584C115.727 32.8177 115.548 32.6007 115.45 32.3421C115.213 31.4676 116.322 30.0397 115.853 29.1848C115.828 29.1401 115.812 29.0907 115.805 29.0395C115.799 28.9883 115.802 28.9363 115.815 28.8864C115.828 28.8366 115.85 28.7898 115.88 28.7489C115.911 28.708 115.948 28.6736 115.992 28.6479C116.035 28.6221 116.082 28.6054 116.131 28.5987C116.181 28.592 116.231 28.5955 116.278 28.6089C116.326 28.6223 116.371 28.6454 116.411 28.6769C116.45 28.7083 116.483 28.7476 116.508 28.7923C117.159 29.9761 116.055 31.678 116.176 32.1246C116.198 32.2031 116.279 32.2604 116.419 32.2965C116.811 32.3775 117.218 32.3105 117.567 32.1073C117.635 32.0341 117.727 31.9901 117.825 31.984C117.923 31.9779 118.02 32.0102 118.096 32.0744C118.17 32.1377 118.217 32.2288 118.227 32.3279C118.237 32.427 118.209 32.5263 118.149 32.6043C117.755 32.9606 117.243 33.1448 116.722 33.1184Z" fill="black"/>
<path fill-rule="evenodd" clip-rule="evenodd" d="M118.86 29.0521C118.86 29.0521 119.115 28.4555 119.498 28.4736C119.886 28.5246 120.268 28.6102 120.641 28.7295C120.555 28.8846 120.437 29.0181 120.296 29.1206C120.154 29.2231 119.993 29.2922 119.823 29.323C119.653 29.3537 119.479 29.3454 119.313 29.2986C119.147 29.2518 118.992 29.1677 118.86 29.0521Z" fill="white"/>
<path fill-rule="evenodd" clip-rule="evenodd" d="M114.517 29.5106C114.517 29.5106 114.771 28.914 115.155 28.932C115.542 28.983 115.925 29.0687 116.298 29.1879C116.212 29.343 116.094 29.4765 115.952 29.579C115.811 29.6816 115.65 29.7506 115.48 29.7814C115.31 29.8122 115.136 29.8039 114.97 29.7571C114.803 29.7103 114.649 29.6261 114.517 29.5106Z" fill="white"/>
<path d="M120.734 28.2742C120.355 28.1381 119.957 28.0691 119.556 28.0701C119.369 28.0817 119.187 28.1341 119.021 28.2241C118.855 28.3141 118.71 28.4395 118.594 28.5921C118.125 29.133 118.753 29.6479 119.086 29.2036C119.121 29.1555 119.159 29.1096 119.2 29.0663C119.396 29.5954 120.06 29.3881 119.844 28.8708C120.055 28.8917 120.263 28.9375 120.465 29.0074C120.558 29.0429 120.661 29.0388 120.751 28.996C120.841 28.9533 120.912 28.8753 120.947 28.779C120.983 28.6826 120.98 28.5756 120.94 28.4812C120.901 28.3867 120.827 28.3124 120.734 28.2742Z" fill="black"/>
<path d="M116.062 28.713C115.769 28.6064 115.459 28.5597 115.149 28.5756C114.932 28.5844 114.723 28.6625 114.55 28.7991C114.377 28.9358 114.249 29.1244 114.183 29.3394C114.159 29.434 114.17 29.5343 114.214 29.6209C114.257 29.7075 114.33 29.7741 114.419 29.8077C114.507 29.8413 114.604 29.8394 114.691 29.8024C114.778 29.7655 114.849 29.6961 114.889 29.6079C115.064 29.9148 115.545 29.9337 115.54 29.5098C115.54 29.4655 115.533 29.4216 115.52 29.3795C115.609 29.3884 115.697 29.409 115.781 29.4407C115.827 29.4628 115.878 29.4749 115.929 29.4762C115.98 29.4775 116.031 29.4681 116.078 29.4484C116.125 29.4287 116.169 29.3992 116.205 29.3616C116.241 29.3241 116.269 29.2793 116.288 29.23C116.307 29.1807 116.317 29.1279 116.315 29.0748C116.314 29.0217 116.303 28.9694 116.282 28.921C116.26 28.8727 116.23 28.8293 116.192 28.7936C116.154 28.7578 116.11 28.7304 116.062 28.713Z" fill="black"/>
<path d="M115.337 27.9084C115.387 27.9169 115.437 27.9151 115.486 27.9031C115.535 27.891 115.581 27.8691 115.621 27.8384C115.662 27.8077 115.696 27.769 115.722 27.7244C115.748 27.6799 115.765 27.6304 115.772 27.5789C115.78 27.5273 115.777 27.4748 115.765 27.4243C115.752 27.3739 115.73 27.3264 115.7 27.2849C115.67 27.2433 115.632 27.2083 115.589 27.1821C115.546 27.1559 115.498 27.1388 115.448 27.132C115.157 27.0585 114.854 27.0566 114.562 27.1267C114.27 27.1967 113.998 27.3367 113.768 27.5355C113.601 27.7178 113.473 27.9344 113.393 28.1714C113.312 28.4083 113.28 28.6602 113.299 28.9108C113.308 29.0149 113.357 29.1108 113.435 29.1775C113.512 29.2441 113.612 29.2759 113.712 29.266C113.812 29.2562 113.904 29.2053 113.969 29.1247C114.033 29.0441 114.063 28.9404 114.054 28.8363C114.045 28.703 114.063 28.5694 114.104 28.4431C114.145 28.3167 114.21 28.2001 114.295 28.0999C114.445 27.9902 114.616 27.9161 114.796 27.883C114.976 27.8499 115.161 27.8586 115.337 27.9084Z" fill="black"/>
<path d="M121.452 27.5355C120.23 25.6586 117.459 26.6901 117.342 26.7348C117.248 26.7707 117.172 26.844 117.13 26.9385C117.088 27.033 117.083 27.141 117.118 27.2388C117.152 27.3365 117.223 27.416 117.314 27.4597C117.405 27.5035 117.509 27.5078 117.603 27.4719C117.626 27.4633 119.932 26.6014 120.826 27.9759C120.883 28.0622 120.969 28.1218 121.068 28.1415C121.166 28.1612 121.268 28.1395 121.351 28.0811C121.434 28.0227 121.491 27.9324 121.51 27.8301C121.529 27.7278 121.509 27.6218 121.452 27.5355Z" fill="black"/>
<path d="M117.239 34.8007C116.756 34.7938 116.286 34.636 115.891 34.3477C115.807 34.2909 115.748 34.2017 115.727 34.0999C115.707 33.998 115.726 33.8918 115.78 33.8045C115.835 33.7173 115.921 33.6562 116.019 33.6347C116.117 33.6132 116.219 33.6331 116.303 33.6899C117.018 34.175 117.696 34.2166 119.421 33.1059C119.463 33.0788 119.51 33.0606 119.559 33.0523C119.608 33.044 119.658 33.0459 119.706 33.0577C119.755 33.0696 119.8 33.0912 119.84 33.1213C119.881 33.1515 119.915 33.1896 119.941 33.2334C119.967 33.2773 119.984 33.3261 119.992 33.377C120 33.4279 119.999 33.4799 119.987 33.5301C119.976 33.5803 119.955 33.6276 119.926 33.6695C119.897 33.7113 119.86 33.7468 119.818 33.7739C119.064 34.3532 118.173 34.7081 117.239 34.8007Z" fill="black"/>
<path d="M117.757 36.1022C117.526 36.1057 117.296 36.06 117.082 35.9679C116.868 35.8759 116.675 35.7394 116.513 35.5668C116.446 35.4895 116.411 35.3876 116.417 35.2836C116.422 35.1796 116.466 35.082 116.541 35.0122C116.615 34.9425 116.713 34.9063 116.813 34.9117C116.913 34.9171 117.007 34.9636 117.074 35.0409C117.136 35.1092 117.691 35.6689 118.669 34.9797C118.752 34.9214 118.854 34.8998 118.952 34.9197C119.051 34.9395 119.137 34.9992 119.193 35.0856C119.25 35.172 119.27 35.2781 119.251 35.3804C119.232 35.4827 119.175 35.5729 119.092 35.6312C118.703 35.9245 118.238 36.0887 117.757 36.1022Z" fill="black"/>
<path fill-rule="evenodd" clip-rule="evenodd" d="M127.486 27.3149C128.52 25.7709 128.934 23.8694 128.643 22.013C127.754 18.5849 123.825 17.6484 123.825 17.6484C119.007 14.7141 114.908 17.9844 113.153 21.0239C111.399 24.0635 113.153 27.7577 113.153 27.7577C115.15 26.3769 116.929 24.682 118.426 22.7337C118.002 23.3391 117.794 24.079 117.837 24.8265C119.312 23.654 120.711 22.383 122.026 21.0216C122.026 21.0216 121.316 22.8844 122.453 25.7135C123.454 27.7545 124.265 28.2098 124.744 29.1605C125.393 30.4565 125.101 31.1308 125.101 31.1308C125.101 31.1308 127.516 29.4305 127.486 27.3149Z" fill="#81F8F8"/>
<path d="M139.908 45.8715C138.113 43.8439 132.892 41.2039 129.959 39.6865C129.36 39.3725 129.384 39.3608 129.275 39.3553C128.624 39.0413 128.147 38.823 127.935 38.7273C127.362 37.705 126.687 36.7479 125.923 35.8714L125.865 32.7895C126.262 32.7336 126.645 32.5957 126.99 32.384C127.336 32.1722 127.637 31.8908 127.877 31.5563C128.485 30.893 129.337 28.9658 128.902 27.8111C128.835 27.626 128.729 27.4589 128.592 27.3222C128.454 27.1855 128.289 27.0827 128.109 27.0213C128.982 25.4833 129.301 23.6725 129.008 21.9126C128.121 18.49 124.494 17.42 123.968 17.2811C119.326 14.4927 114.945 17.1555 112.83 20.823C110.99 24.0109 112.74 27.7742 112.815 27.9327C112.83 27.961 112.847 27.9874 112.868 28.0112C112.985 28.5048 113.181 28.9745 113.447 29.4007C113.141 30.4742 113.143 31.6172 113.452 32.6898C114.037 34.1031 114.707 35.4769 115.457 36.8032C114.27 37.9829 113.447 39.5038 113.095 41.1718C112.556 41.5493 107.357 45.2663 104.808 49.4629C102.159 53.8291 102.451 63.0387 102.468 63.4281C102.471 63.5298 102.513 63.6263 102.583 63.697C102.653 63.7678 102.748 63.8073 102.845 63.8072H108.377C108.435 63.8348 108.5 63.8462 108.564 63.8405C108.628 63.8347 108.69 63.8119 108.744 63.7743C108.797 63.7366 108.84 63.6854 108.869 63.6255C108.898 63.5656 108.912 63.499 108.909 63.432C108.909 63.5105 108.223 63.4477 134.414 63.4477C134.424 63.5364 134.462 63.6189 134.523 63.6816C134.585 63.7443 134.664 63.7834 134.75 63.7926C134.835 63.8017 134.921 63.7803 134.993 63.7319C135.065 63.6835 135.12 63.6109 135.147 63.5262C135.39 62.6865 135.578 61.8308 135.71 60.9647C136.894 63.7907 137.051 64.3559 137.058 64.3834C137.07 64.4335 137.091 64.4806 137.121 64.5221C137.15 64.5636 137.187 64.5987 137.23 64.6253C137.272 64.652 137.319 64.6696 137.368 64.6774C137.417 64.6851 137.467 64.6827 137.515 64.6703C137.564 64.658 137.609 64.6359 137.649 64.6053C137.689 64.5747 137.722 64.5362 137.748 64.4921C137.774 64.448 137.791 64.399 137.798 64.348C137.806 64.2971 137.803 64.2451 137.791 64.195C137.557 63.1957 134.639 56.5475 134.231 55.6197C130.52 47.1746 133.841 43.7513 134.684 43.0597C136.38 43.9483 137.952 45.0725 139.357 46.4014C141.71 49.0586 146.212 58.5501 146.428 67.222C146.429 67.2735 146.44 67.3243 146.461 67.3714C146.481 67.4185 146.51 67.4609 146.546 67.4964C146.582 67.5319 146.624 67.5596 146.67 67.5781C146.717 67.5965 146.766 67.6053 146.816 67.6039C146.865 67.6025 146.914 67.591 146.959 67.5699C147.005 67.5489 147.045 67.5189 147.08 67.4814C147.114 67.444 147.14 67.3999 147.158 67.3518C147.176 67.3036 147.184 67.2523 147.183 67.2008C146.957 58.3381 142.327 48.6033 139.908 45.8715ZM126.016 37.158C126.469 37.7908 126.997 38.637 127.275 39.1048C126.672 40.9997 125.95 42.8516 125.114 44.6485C124.976 44.1652 124.746 43.7156 124.438 43.3259C124.13 42.9362 123.75 42.6143 123.321 42.3791C121.728 41.7793 120.356 43.4498 119.144 44.9225C118.575 45.6568 118.092 46.4592 117.705 47.3128C117.764 46.9236 117.859 46.5415 117.991 46.1722C118.356 45.5288 118.756 44.9067 119.187 44.3086C120.635 42.6508 122.29 41.2015 124.107 39.999C124.863 39.4823 125.484 38.7782 125.914 37.9501C125.969 37.8418 125.955 37.8017 126.015 37.1612L126.016 37.158ZM116.688 42.04V38.4148C117.604 38.7116 118.582 38.7361 119.511 38.4855C121.003 37.9759 122.394 37.188 123.616 36.1603C124.189 35.6505 124.701 35.0707 125.141 34.4333L125.203 37.6604C124.852 38.3184 124.356 38.88 123.755 39.2987C122.47 40.1389 121.262 41.1016 120.148 42.1742C119.002 42.4367 117.811 42.3916 116.687 42.0431L116.688 42.04ZM113.318 27.1509C112.941 26.1304 112.186 23.4614 113.478 21.2233C114.972 18.6328 118.79 15.0336 123.635 17.9844C123.668 18.0042 123.704 18.019 123.742 18.0284C123.779 18.037 127.46 18.9484 128.272 22.0743C128.482 23.3701 128.32 24.7015 127.808 25.9027C127.739 24.9227 127.509 23.9622 127.129 23.0626C127.107 23.0162 127.076 22.9747 127.039 22.9405C127.002 22.9063 126.959 22.8801 126.912 22.8633C126.865 22.8465 126.815 22.8394 126.766 22.8426C126.716 22.8457 126.668 22.859 126.623 22.8816C126.578 22.9043 126.539 22.9358 126.506 22.9745C126.473 23.0131 126.448 23.0581 126.431 23.1069C126.415 23.1558 126.408 23.2074 126.411 23.2589C126.415 23.3104 126.427 23.3608 126.449 23.4072C126.937 24.6426 127.162 25.9734 127.107 27.3079C127.055 27.8914 126.886 28.4572 126.611 28.9689C126.337 29.4807 125.962 29.9272 125.512 30.2799C125.437 29.8242 125.29 29.3845 125.077 28.9783C124.574 27.9735 123.762 27.5206 122.799 25.5612C122.157 24.1956 122.007 22.6361 122.376 21.1652C122.398 21.1057 122.407 21.0413 122.4 20.9777C122.393 20.914 122.372 20.8531 122.337 20.8001C122.302 20.7472 122.256 20.7038 122.201 20.6739C122.147 20.6439 122.086 20.6283 122.025 20.6283C121.631 20.6283 121.679 21.126 118.288 23.9567C118.375 23.5991 118.526 23.2614 118.731 22.9605C118.763 22.9187 118.785 22.8707 118.798 22.8195C118.811 22.7683 118.814 22.715 118.806 22.6626C118.799 22.6103 118.781 22.5601 118.754 22.515C118.728 22.47 118.693 22.431 118.651 22.4003C118.61 22.3697 118.563 22.3482 118.513 22.337C118.463 22.3257 118.412 22.3251 118.362 22.335C118.312 22.3449 118.264 22.3653 118.222 22.3948C118.18 22.4243 118.144 22.4624 118.116 22.5068C116.743 24.291 115.126 25.8567 113.317 27.154L113.318 27.1509ZM114.169 32.4441C113.9 31.4721 113.917 30.4388 114.217 29.4768C114.238 29.4183 114.245 29.3555 114.237 29.2936C114.23 29.2318 114.208 29.1727 114.174 29.1212C113.922 28.7484 113.734 28.333 113.619 27.8935C114.991 26.8804 116.275 25.7438 117.455 24.4968C117.443 24.7904 117.432 25.0761 117.694 25.1884C117.756 25.2152 117.823 25.2244 117.89 25.2152C117.956 25.206 118.019 25.1785 118.072 25.1358C119.545 23.9528 120.714 22.8679 121.447 22.1528C121.39 23.4353 121.62 24.7142 122.119 25.8886C123.111 27.9123 123.987 28.4901 124.413 29.3426C124.725 29.8189 124.849 30.4012 124.76 30.9699C124.726 31.0479 124.718 31.1352 124.736 31.2185C124.754 31.3019 124.798 31.3768 124.861 31.4318C124.924 31.4868 125.003 31.5189 125.085 31.5233C125.167 31.5276 125.249 31.5039 125.317 31.4558C125.415 31.3867 127.582 29.834 127.842 27.753C127.924 27.7748 128 27.8173 128.063 27.8769C128.126 27.9365 128.174 28.0112 128.202 28.0944C128.489 28.859 127.805 30.4973 127.334 31.0115C126.442 31.9833 126.481 31.7761 125.311 32.1317C124.628 32.3397 125.836 33.0549 123.116 35.5723C121.993 36.5076 120.723 37.2325 119.361 37.7146C117.815 38.0451 116.675 37.8363 116.457 37.1839C116.161 36.304 114.589 33.7708 114.168 32.4473L114.169 32.4441ZM115.79 37.5678C115.828 37.6557 115.874 37.7396 115.927 37.8182C115.949 37.8967 115.933 37.6675 115.933 42.3759C115.056 42.3795 114.213 42.7294 113.575 43.3548C113.593 41.2061 114.383 39.142 115.79 37.5678ZM108.516 54.965C107.53 53.4763 106.903 51.7637 106.685 49.9708C106.683 49.9192 106.671 49.8686 106.65 49.8219C106.629 49.7752 106.599 49.7333 106.562 49.6989C106.525 49.6644 106.482 49.638 106.435 49.6212C106.388 49.6044 106.338 49.5976 106.288 49.6011C106.188 49.6066 106.095 49.653 106.028 49.7303C105.961 49.8076 105.926 49.9093 105.931 50.0132C106.144 51.9418 106.811 53.7859 107.874 55.3818L106.463 54.8535C106.416 54.8337 106.366 54.824 106.315 54.8249C106.264 54.8258 106.214 54.8374 106.168 54.859C106.121 54.8805 106.08 54.9116 106.045 54.9503C106.011 54.989 105.984 55.0345 105.967 55.0842C105.949 55.1339 105.942 55.1867 105.945 55.2394C105.948 55.2921 105.961 55.3437 105.983 55.3911C106.006 55.4384 106.037 55.4806 106.076 55.515C106.114 55.5494 106.159 55.5754 106.208 55.5914L108.342 56.3905C108.116 58.5938 108.046 60.8114 108.134 63.0254H103.212C103.186 61.2371 103.212 53.5669 105.447 49.8845C107.468 46.5537 111.36 43.4365 112.901 42.2778C112.867 42.5557 112.885 42.4905 112.855 42.5314C112.688 42.7527 109.644 46.8787 108.515 54.965H108.516ZM124.64 53.9327L112.334 54.1855C112.703 50.5327 113.505 46.9413 114.722 43.493C115.129 43.2473 115.761 42.9498 116.088 43.3022C116.314 44.3201 116.68 45.2984 117.176 46.2067C116.984 46.852 116.535 49.1811 116.805 49.8303C116.835 49.903 116.885 49.9646 116.95 50.0069C117.014 50.0492 117.089 50.0703 117.166 50.0673C117.242 50.0643 117.315 50.0375 117.376 49.9903C117.438 49.9431 117.484 49.8777 117.508 49.8028C118.032 48.2405 118.776 46.7679 119.716 45.4335C121.03 43.8353 122.038 42.7323 123.062 43.1186C123.959 43.4553 124.534 45.18 124.679 45.8158C124.697 45.8949 124.738 45.9662 124.797 46.02C124.856 46.0737 124.929 46.1072 125.007 46.1158C125.084 46.1244 125.163 46.1077 125.231 46.0681C125.299 46.0284 125.354 45.9677 125.388 45.8943C126.341 43.8399 127.189 41.7348 127.93 39.5876C128.133 39.6826 128.405 39.8106 128.731 39.9668C126.486 44.7914 124.957 52.2905 124.639 53.9327H124.64ZM133.318 55.4242L128.833 54.4767C129.005 49.9639 129.871 45.5089 131.4 41.2817C132.218 41.7016 133.099 42.1687 133.973 42.657C132.777 43.7944 130.016 47.4886 133.317 55.4258L133.318 55.4242Z" fill="black"/>
<path d="M118.537 20.6974C118.489 20.6062 118.408 20.5385 118.313 20.5091C118.217 20.4796 118.114 20.4909 118.026 20.5404C115.886 21.6684 114.23 23.5887 113.383 25.9231C113.354 26.0228 113.365 26.1304 113.412 26.2222C113.459 26.314 113.54 26.3825 113.636 26.4126C113.732 26.4427 113.835 26.4319 113.924 26.3826C114.012 26.3334 114.078 26.2497 114.107 26.15C114.908 24.0227 116.429 22.2733 118.384 21.2312C118.428 21.2067 118.467 21.1734 118.498 21.1332C118.53 21.0931 118.553 21.0469 118.567 20.9973C118.582 20.9477 118.586 20.8956 118.581 20.8441C118.576 20.7927 118.561 20.7428 118.537 20.6974Z" fill="black"/>
<path d="M124.373 28.0065C124.348 27.9058 124.285 27.8195 124.199 27.7666C124.113 27.7138 124.01 27.6987 123.913 27.7247L121.909 28.2663L121.878 27.8315C121.875 27.7794 121.861 27.7287 121.838 27.6822C121.816 27.6356 121.784 27.5943 121.746 27.5605C121.708 27.5267 121.664 27.5012 121.616 27.4855C121.568 27.4697 121.518 27.4641 121.468 27.4688L117.65 27.8346C117.551 27.8442 117.459 27.8943 117.395 27.974C117.331 28.0538 117.3 28.1566 117.309 28.2601L117.328 28.4783C117.016 28.4272 116.697 28.5016 116.436 28.6863L116.408 28.348C116.4 28.2443 116.353 28.1483 116.276 28.0811C116.2 28.0138 116.101 27.9808 116.001 27.9892L112.401 28.2954C112.35 28.2997 112.3 28.3148 112.254 28.3399C112.209 28.3649 112.169 28.3993 112.137 28.441C112.105 28.4826 112.081 28.5307 112.067 28.5822C112.054 28.6337 112.05 28.6876 112.057 28.7405L112.331 30.8035C112.343 30.8979 112.389 30.9844 112.458 31.0466C112.527 31.1089 112.616 31.1427 112.708 31.1418C112.784 31.1418 113.068 31.1033 116.236 30.7493C116.334 30.7384 116.424 30.688 116.487 30.6089C116.55 30.5299 116.58 30.4284 116.572 30.3262L116.524 29.7288C116.744 29.6095 116.768 29.0812 117.401 29.2955L117.477 30.2006C117.485 30.3032 117.532 30.3982 117.608 30.465C117.683 30.5319 117.781 30.5652 117.88 30.5578L121.67 30.2705C121.769 30.2628 121.862 30.2145 121.927 30.1361C121.993 30.0577 122.026 29.9556 122.019 29.852L121.965 29.06L124.105 28.4822C124.201 28.4555 124.283 28.3906 124.333 28.3015C124.383 28.2125 124.397 28.1065 124.373 28.0065ZM113.028 30.3183L112.86 29.0435L115.687 28.808L115.785 30.0161L113.028 30.3183ZM118.194 29.7492L118.094 28.5804L121.154 28.2875L121.237 29.5184L118.194 29.7492Z" fill="black"/>
<path fill-rule="evenodd" clip-rule="evenodd" d="M117.324 70.117L112.898 63.465C112.898 63.465 113.765 61.7317 113.322 60.6688C112.969 59.9803 112.445 59.402 111.805 58.9935C111.166 58.585 110.433 58.361 109.682 58.3444L111.192 61.351L109.141 62.6855L107.404 59.5878C107.404 59.5878 105.609 62.0684 107.116 64.1503C107.456 64.6484 107.953 65.0066 108.521 65.1624C109.089 65.3182 109.691 65.2617 110.223 65.0028L115.402 72.5937L117.324 70.117Z" fill="white"/>
<path fill-rule="evenodd" clip-rule="evenodd" d="M144.504 70.632C141.949 72.1728 139.181 73.2952 136.297 73.9596C133.3 74.4989 129.548 75.2674 127.674 76.2291C125.8 77.1907 125.086 77.8917 124.111 77.9631C124.111 77.9631 122.592 76.5595 122.072 76.6129C121.193 77.0134 120.496 77.7489 120.123 78.668C119.808 78.6723 119.498 78.5964 119.218 78.447C118.939 78.2975 118.699 78.0791 118.519 77.8108C118.216 77.7934 117.923 77.6897 117.672 77.5112C117.421 77.3326 117.223 77.086 117.097 76.7982C117.097 76.7982 115.867 76.3523 115.755 75.5571C115.421 75.4331 115.133 75.2049 114.929 74.9036C114.726 74.6024 114.617 74.2431 114.617 73.8748C114.617 73.8748 117.15 69.4192 118.422 69.504C119.695 69.5887 123.405 71.9445 124.289 72.5066C124.289 72.5066 130.531 69.701 132.305 68.562C134.078 67.4229 136.295 66.0657 136.295 66.0657C136.295 66.0657 138.274 64.5169 141.661 67.0901C145.047 69.6633 144.504 70.632 144.504 70.632Z" fill="#FFD997"/>
<path d="M147.787 67.8657C146.625 66.5321 145.197 65.4779 143.603 64.7762C142.009 64.0745 140.287 63.7422 138.557 63.8025C137.988 63.84 137.441 64.0487 136.984 64.4033C136.526 64.7578 136.178 65.2429 135.981 65.7995C131.482 68.5596 131.969 68.5973 124.32 72.0607C122.218 70.7262 119.559 69.1813 118.448 69.1075C118.061 69.1218 117.691 69.2753 117.402 69.5416L113.334 63.4296C113.572 62.8864 114.085 61.5119 113.669 60.5126C113.285 59.7506 112.711 59.1105 112.007 58.6598C111.303 58.2091 110.494 57.9645 109.667 57.9519C109.604 57.9548 109.542 57.9743 109.488 58.0086C109.434 58.0429 109.389 58.0909 109.357 58.1481C109.325 58.2053 109.308 58.2699 109.307 58.3359C109.305 58.4019 109.32 58.4672 109.349 58.5257L110.698 61.2104L109.273 62.136L107.736 59.3885C107.705 59.3326 107.661 59.2856 107.608 59.2517C107.555 59.2178 107.495 59.198 107.432 59.1941C107.37 59.1902 107.308 59.2023 107.252 59.2294C107.195 59.2565 107.146 59.2976 107.109 59.3492C107.028 59.4607 105.161 62.0967 106.82 64.3842C107.177 64.9122 107.689 65.305 108.28 65.5033C108.87 65.7016 109.507 65.6946 110.093 65.4832L114.942 72.5945C114.663 73.0365 114.438 73.4227 114.295 73.6754C114.266 73.7258 114.248 73.7825 114.243 73.8411C114.226 74.2604 114.33 74.6755 114.543 75.0321C114.756 75.3887 115.067 75.6702 115.436 75.8397C115.72 76.4304 116.213 76.8835 116.812 77.1035C116.96 77.3934 117.174 77.642 117.433 77.8288C117.693 78.0157 117.992 78.1352 118.305 78.1774C118.488 78.4176 118.715 78.6176 118.973 78.7658C119.231 78.9141 119.515 79.0076 119.808 79.0409C120.857 83.0091 125.234 81.4784 124.504 78.303C125.123 78.1221 125.712 77.8433 126.249 77.4764C128.326 76.2432 129.449 75.5924 136.362 74.349C139.056 73.7498 141.649 72.7351 144.055 71.3385C145.461 72.392 147.088 69.9059 147.839 68.2872C147.871 68.2192 147.882 68.1432 147.873 68.0685C147.864 67.9937 147.834 67.9233 147.787 67.8657ZM110.535 64.7751C110.483 64.6986 110.406 64.644 110.319 64.6211C110.231 64.5982 110.139 64.6086 110.058 64.6503C109.606 64.8733 109.093 64.9215 108.609 64.7863C108.126 64.6511 107.705 64.3412 107.422 63.9124C107.088 63.384 106.907 62.7663 106.903 62.1338C106.899 61.5013 107.071 60.881 107.398 60.3477L108.815 62.8817C108.84 62.9274 108.874 62.9673 108.915 62.999C108.956 63.0307 109.002 63.0536 109.052 63.0662C109.101 63.0788 109.152 63.0809 109.202 63.0724C109.253 63.0639 109.301 63.045 109.343 63.0167L111.396 61.6822C111.476 61.6298 111.535 61.5478 111.56 61.4525C111.584 61.3572 111.574 61.2556 111.53 61.168L110.333 58.7864C110.888 58.9115 111.41 59.1578 111.865 59.5091C112.321 59.8603 112.7 60.3083 112.976 60.8234C113.278 61.5519 112.781 62.8456 112.564 63.2836C112.532 63.3468 112.518 63.4178 112.522 63.4888C112.526 63.5599 112.549 63.6285 112.588 63.6871L116.831 70.0629C116.305 70.6312 115.825 71.2441 115.396 71.8951L110.535 64.7751ZM120.508 78.7128C120.852 77.9806 121.411 77.3808 122.104 76.9999C122.666 77.2491 123.18 77.6015 123.623 78.04C124.707 80.523 121.269 82.0145 120.508 78.7128ZM136.234 73.5695C129.367 74.8035 128.015 75.5194 125.875 76.788C125.377 77.1414 124.821 77.3992 124.236 77.5494C123.605 76.9795 122.575 76.1568 122.038 76.2149C121.411 76.2785 120.302 77.3571 119.879 78.2504C119.538 78.2085 119.22 78.0452 118.98 77.7881C119.544 76.9398 120.203 76.1643 120.943 75.4778C121.016 75.4078 121.059 75.3108 121.064 75.2079C121.068 75.105 121.034 75.0043 120.968 74.9276C120.901 74.851 120.809 74.8044 120.71 74.7981C120.611 74.7918 120.514 74.8261 120.439 74.8938C119.644 75.6299 118.938 76.4643 118.338 77.3783C118.176 77.3481 118.021 77.2843 117.884 77.1907C117.746 77.0971 117.628 76.9756 117.536 76.8335C118.11 75.9679 118.791 75.185 119.562 74.5052C119.604 74.4754 119.639 74.4372 119.666 74.393C119.693 74.3488 119.711 74.2994 119.72 74.2477C119.728 74.1961 119.726 74.1432 119.715 74.0922C119.703 74.0412 119.682 73.9932 119.652 73.9509C119.622 73.9086 119.585 73.8729 119.542 73.846C119.498 73.819 119.45 73.8013 119.401 73.7939C119.351 73.7866 119.3 73.7896 119.251 73.803C119.202 73.8164 119.157 73.8397 119.117 73.8717C118.299 74.5789 117.577 75.3974 116.969 76.3052C116.636 76.1638 116.354 75.9166 116.163 75.5987C116.727 74.5296 117.411 73.5345 118.202 72.6345C118.241 72.5995 118.273 72.5564 118.295 72.508C118.318 72.4596 118.331 72.407 118.333 72.3532C118.335 72.2995 118.326 72.2459 118.308 72.1958C118.289 72.1456 118.261 72.1 118.225 72.0617C118.188 72.0234 118.145 71.9932 118.097 71.9731C118.049 71.953 117.998 71.9433 117.946 71.9447C117.894 71.9461 117.843 71.9585 117.796 71.9811C117.75 72.0038 117.708 72.0362 117.673 72.0764C116.874 72.9701 116.181 73.9596 115.607 75.0241C115.426 74.9203 115.275 74.7696 115.167 74.5868C115.06 74.4039 115 74.1951 114.993 73.9808C115.707 72.7002 116.561 71.5098 117.538 70.4334C117.614 70.3792 118.077 69.8611 118.402 69.8839C118.761 69.9074 120.034 70.2426 124.095 72.83C124.147 72.8627 124.205 72.8821 124.266 72.8865C124.326 72.8908 124.386 72.8801 124.442 72.8551C132.344 69.3093 131.962 69.1491 136.488 66.3938C139.201 64.7453 143.434 68.5259 144.078 70.4224C141.63 71.876 138.986 72.937 136.234 73.5695ZM144.876 70.7961C145.087 69.0526 140.561 64.5208 137.155 65.2971C137.555 64.8833 138.082 64.6302 138.644 64.5828C140.208 64.5463 141.762 64.847 143.208 65.4661C144.654 66.0852 145.961 67.0091 147.047 68.1797C146.669 68.9356 145.67 70.6359 144.876 70.7961Z" fill="black"/>
<path d="M123.322 78.3941C123.273 78.165 123.166 77.9536 123.012 77.7817C122.858 77.6099 122.663 77.4838 122.447 77.4165C122.231 77.3491 122.001 77.3429 121.782 77.3986C121.563 77.4543 121.362 77.5697 121.2 77.7331C120.954 77.95 120.799 78.2581 120.768 78.5917C120.738 78.9254 120.833 79.2584 121.035 79.5199C121.237 79.7814 121.528 79.9509 121.848 79.9922C122.168 80.0335 122.491 79.9434 122.748 79.7411C122.954 79.5932 123.116 79.3892 123.217 79.1515C123.318 78.9139 123.355 78.6518 123.322 78.3941ZM122.295 79.1139C122.24 79.1691 122.172 79.2088 122.098 79.2292C122.024 79.2497 121.946 79.2502 121.872 79.2309C121.783 79.1843 121.706 79.117 121.647 79.0343C121.588 78.9516 121.548 78.8558 121.531 78.7544C121.465 78.449 121.838 78.0189 122.381 78.2198C122.61 78.303 122.712 78.7889 122.295 79.1139Z" fill="black"/>
</svg>
