<svg width="600" height="600" viewBox="0 0 600 600" fill="none" xmlns="http://www.w3.org/2000/svg">
<path d="M84 408H548V430H84V408Z" fill="#FFE790"/>
<path d="M179.287 216C149.608 212.94 104 203 104 203V345C104 345 119.955 345 121.949 339C123.944 333 142.703 280.449 158.845 279C177.904 277.288 319.5 258.5 342.847 290.457C356.264 308.824 358.713 322.841 358.5 345C358.275 368.416 339.886 402 339.886 402H458C458 402 447.247 351.114 446 318C445.461 303.698 446.268 281.354 446.268 281.354L447.5 252.25C447.5 252.25 448.82 221.093 436.5 208.5C423.081 194.784 388.5 198 388.5 198C388.5 198 260.859 224.41 179.287 216Z" fill="#FFE790"/>
<path d="M458 212C458 203.716 464.716 197 473 197C481.284 197 488 203.716 488 212V306C488 314.284 481.284 321 473 321C464.716 321 458 314.284 458 306V212Z" fill="#FFE790"/>
<path d="M94 203C88.4772 203 84 207.477 84 213V379H94V401H97V379H100V203H94Z" fill="#FFE790"/>
<path d="M352.241 153C352.241 150.239 354.48 148 357.241 148H368.135C370.896 148 373.135 150.239 373.135 153V192.162C373.135 194.923 370.896 197.162 368.135 197.162H357.241C354.48 197.162 352.241 194.923 352.241 192.162V153Z" fill="#FFE790"/>
<path d="M498 296C498 291.582 501.582 288 506 288H540C544.418 288 548 291.582 548 296C548 300.418 544.418 304 540 304H506C501.582 304 498 300.418 498 296Z" fill="#FFE790"/>
<path d="M529.5 421.5V438.5H70.5V421.5H529.5ZM378.176 211.211C381.562 211.125 386.206 211.152 391.248 211.597C396.3 212.042 401.686 212.902 406.583 214.456C411.5 216.016 415.752 218.221 418.713 221.248C421.436 224.031 423.508 227.958 425.052 232.459C426.588 236.94 427.549 241.839 428.141 246.418C428.731 250.989 428.947 255.185 429.015 258.24C429.048 259.766 429.045 261.002 429.033 261.853C429.027 262.277 429.019 262.606 429.013 262.825C429.01 262.934 429.007 263.017 429.005 263.07C429.004 263.097 429.003 263.118 429.003 263.13C429.003 263.136 429.002 263.14 429.002 263.143V263.145L427.771 292.248L427.77 292.256V292.281C427.769 292.292 427.768 292.309 427.768 292.33C427.766 292.373 427.764 292.437 427.761 292.521C427.755 292.69 427.746 292.939 427.735 293.26C427.714 293.902 427.685 294.833 427.651 295.996C427.584 298.321 427.5 301.571 427.433 305.269C427.298 312.651 427.23 321.87 427.502 329.094C428.132 345.82 431.156 366.953 434.003 383.833C435.429 392.288 436.816 399.705 437.847 405.009C438.28 407.239 438.652 409.096 438.936 410.5H328.005C328.311 409.894 328.647 409.222 329.007 408.489C330.753 404.937 333.084 399.953 335.423 394.227C340.066 382.86 344.882 368.236 345 356.024C345.107 344.866 344.55 335.559 342.202 326.668C339.845 317.742 335.721 309.367 328.865 299.982C325.57 295.472 320.337 292.041 313.975 289.409C307.588 286.767 299.86 284.846 291.323 283.476C274.248 280.735 253.59 280.144 233.182 280.604C192.37 281.522 152.024 286.665 142.621 287.51C139.961 287.749 137.458 289.015 135.182 290.768C132.894 292.529 130.682 294.899 128.576 297.608C124.366 303.026 120.359 310.091 116.851 317.186C109.825 331.393 104.596 346.147 103.577 349.211C103.399 349.748 102.778 350.476 101.23 351.211C99.744 351.917 97.8111 352.431 95.791 352.788C93.8532 353.131 91.9527 353.309 90.5 353.401V217.09C91.7124 217.346 93.2585 217.671 95.084 218.049C99.8335 219.031 106.476 220.372 114.048 221.809C129.172 224.679 148.08 227.945 163.03 229.486C204.123 233.723 256.669 229.187 298.81 223.632C319.908 220.85 338.45 217.806 351.718 215.457C358.352 214.282 363.67 213.281 367.331 212.573C369.162 212.219 370.578 211.939 371.538 211.746C372.018 211.65 372.384 211.576 372.631 211.525C372.727 211.506 372.804 211.489 372.863 211.477C372.92 211.472 372.995 211.466 373.088 211.459C373.332 211.44 373.697 211.413 374.169 211.384C375.113 211.324 376.485 211.254 378.176 211.211ZM78 216.5H81.5V387.5H70.5V224C70.5 219.858 73.8579 216.5 78 216.5ZM457 210.5C463.904 210.5 469.5 216.096 469.5 223V317C469.5 323.904 463.904 329.5 457 329.5C450.096 329.5 444.5 323.904 444.5 317V223C444.5 216.096 450.096 210.5 457 210.5ZM490 301.5H524C527.038 301.5 529.5 303.962 529.5 307C529.5 310.038 527.038 312.5 524 312.5H490C486.962 312.5 484.5 310.038 484.5 307C484.5 303.962 486.962 301.5 490 301.5ZM341.241 161.5H352.135C353.515 161.5 354.635 162.619 354.635 164V203.162C354.635 204.543 353.515 205.662 352.135 205.662H341.241C339.861 205.662 338.741 204.543 338.741 203.162V164C338.741 162.619 339.861 161.5 341.241 161.5Z" stroke="#1E1E1E" stroke-width="5"/>
</svg>
