<svg width="4944" height="3377" viewBox="0 0 4944 3377" fill="none" xmlns="http://www.w3.org/2000/svg">
<rect width="4944" height="3377" rx="340" fill="white"/>
<g filter="url(#filter0_d_1732_62)">
<path d="M4089.71 2357.54C4104.7 2343.24 4128.3 2343.24 4143.29 2357.54C4154.96 2368.66 4172.3 2371.42 4186.84 2364.45C4205.51 2355.5 4227.94 2362.84 4237.78 2381.05C4245.45 2395.24 4261.1 2403.25 4277.08 2401.13C4297.6 2398.4 4316.66 2412.35 4320.41 2432.7C4323.32 2448.56 4335.74 2461.05 4351.6 2463.99C4371.96 2467.75 4385.79 2486.9 4383.08 2507.43C4380.96 2523.43 4388.92 2539.15 4403.1 2546.86C4421.31 2556.76 4428.57 2579.23 4419.65 2597.94C4412.71 2612.52 4415.43 2629.91 4426.55 2641.64C4440.82 2656.7 4440.82 2680.3 4426.55 2695.36C4415.43 2707.09 4412.71 2724.48 4419.65 2739.06C4428.57 2757.77 4421.31 2780.24 4403.1 2790.14C4388.92 2797.85 4380.96 2813.57 4383.08 2829.57C4385.79 2850.1 4371.96 2869.25 4351.6 2873.01C4335.74 2875.95 4323.32 2888.44 4320.41 2904.3C4316.66 2924.65 4297.6 2938.6 4277.08 2935.87C4261.1 2933.75 4245.45 2941.76 4237.78 2955.95C4227.94 2974.16 4205.51 2981.5 4186.84 2972.55C4172.3 2965.58 4154.96 2968.34 4143.29 2979.46C4128.3 2993.76 4104.7 2993.76 4089.71 2979.46C4078.04 2968.34 4060.7 2965.58 4046.16 2972.55C4027.49 2981.5 4005.06 2974.16 3995.22 2955.95C3987.55 2941.76 3971.9 2933.75 3955.92 2935.87C3935.4 2938.6 3916.34 2924.65 3912.59 2904.3C3909.68 2888.44 3897.26 2875.95 3881.4 2873.01C3861.04 2869.25 3847.21 2850.1 3849.92 2829.57C3852.04 2813.57 3844.08 2797.85 3829.9 2790.14C3811.69 2780.24 3804.43 2757.77 3813.35 2739.06C3820.29 2724.48 3817.57 2707.09 3806.45 2695.36C3792.18 2680.3 3792.18 2656.7 3806.45 2641.64C3817.57 2629.91 3820.29 2612.52 3813.35 2597.94C3804.43 2579.23 3811.69 2556.76 3829.9 2546.86C3844.08 2539.15 3852.04 2523.43 3849.92 2507.43C3847.21 2486.9 3861.04 2467.75 3881.4 2463.99C3897.26 2461.05 3909.68 2448.56 3912.59 2432.7C3916.34 2412.35 3935.4 2398.4 3955.92 2401.13C3971.9 2403.25 3987.55 2395.24 3995.22 2381.05C4005.06 2362.84 4027.49 2355.5 4046.16 2364.45C4060.7 2371.42 4078.04 2368.66 4089.71 2357.54Z" fill="#8D83FF"/>
<path d="M4094.54 2362.61C4106.83 2350.89 4126.17 2350.89 4138.46 2362.61C4152.24 2375.74 4172.7 2378.99 4189.87 2370.76C4205.15 2363.43 4223.55 2369.44 4231.62 2384.38C4240.66 2401.11 4259.13 2410.57 4278 2408.07C4294.8 2405.84 4310.45 2417.26 4313.52 2433.96C4316.96 2452.67 4331.6 2467.4 4350.33 2470.87C4367 2473.96 4378.36 2489.66 4376.14 2506.51C4373.65 2525.37 4383.02 2543.91 4399.76 2553.01C4414.69 2561.13 4420.66 2579.56 4413.33 2594.93C4405.14 2612.12 4408.36 2632.62 4421.46 2646.45C4433.18 2658.82 4433.18 2678.18 4421.46 2690.55C4408.36 2704.38 4405.14 2724.88 4413.33 2742.07C4420.66 2757.44 4414.69 2775.87 4399.76 2783.99C4383.02 2793.09 4373.65 2811.63 4376.14 2830.49C4378.36 2847.34 4367 2863.04 4350.33 2866.13C4331.6 2869.6 4316.96 2884.33 4313.52 2903.04C4310.45 2919.74 4294.8 2931.16 4278 2928.93C4259.13 2926.43 4240.66 2935.89 4231.62 2952.62C4223.55 2967.56 4205.15 2973.57 4189.87 2966.24C4172.7 2958.01 4152.24 2961.26 4138.46 2974.39C4126.17 2986.11 4106.83 2986.11 4094.54 2974.39C4080.76 2961.26 4060.3 2958.01 4043.13 2966.24C4027.85 2973.57 4009.45 2967.56 4001.38 2952.62C3992.34 2935.89 3973.87 2926.43 3955 2928.93C3938.2 2931.16 3922.55 2919.74 3919.48 2903.04C3916.04 2884.33 3901.4 2869.6 3882.67 2866.13C3866 2863.04 3854.64 2847.34 3856.86 2830.49C3859.35 2811.63 3849.98 2793.09 3833.24 2783.99C3818.31 2775.87 3812.34 2757.44 3819.67 2742.07C3827.86 2724.88 3824.64 2704.38 3811.54 2690.55C3799.82 2678.18 3799.82 2658.82 3811.54 2646.45C3824.64 2632.62 3827.86 2612.12 3819.67 2594.93C3812.34 2579.56 3818.31 2561.13 3833.24 2553.01C3849.98 2543.91 3859.35 2525.37 3856.86 2506.51C3854.64 2489.66 3866 2473.96 3882.67 2470.87C3901.4 2467.4 3916.04 2452.67 3919.48 2433.96C3922.55 2417.26 3938.2 2405.84 3955 2408.07C3973.87 2410.57 3992.34 2401.11 4001.38 2384.38C4009.45 2369.44 4027.85 2363.43 4043.13 2370.76C4060.3 2378.99 4080.76 2375.74 4094.54 2362.61Z" stroke="#19154A" stroke-width="14"/>
</g>
<g filter="url(#filter1_d_1732_62)">
<path d="M2998.57 2391.17C3012.98 2378.04 3035.02 2378.04 3049.43 2391.17C3060.4 2401.17 3076.21 2403.81 3089.84 2397.91C3107.73 2390.17 3128.57 2397.33 3137.93 2414.43C3145.06 2427.45 3159.17 2435.08 3173.97 2433.93C3193.4 2432.41 3210.79 2445.95 3214.1 2465.16C3216.61 2479.79 3227.47 2491.59 3241.85 2495.3C3260.72 2500.18 3272.77 2518.63 3269.66 2537.87C3267.29 2552.53 3273.73 2567.21 3286.12 2575.4C3302.38 2586.14 3307.79 2607.5 3298.6 2624.69C3291.6 2637.78 3292.92 2653.76 3301.98 2665.52C3313.88 2680.96 3312.06 2702.92 3297.78 2716.2C3286.91 2726.31 3282.98 2741.85 3287.73 2755.92C3293.96 2774.39 3285.11 2794.56 3267.3 2802.48C3253.73 2808.52 3244.96 2821.94 3244.89 2836.79C3244.79 2856.28 3229.87 2872.49 3210.45 2874.2C3195.66 2875.5 3183.01 2885.35 3178.12 2899.36C3171.7 2917.77 3152.32 2928.26 3133.4 2923.56C3118.99 2919.99 3103.82 2925.2 3094.64 2936.87C3082.59 2952.19 3060.86 2955.82 3044.49 2945.24C3032.02 2937.18 3015.98 2937.18 3003.51 2945.24C2987.14 2955.82 2965.41 2952.19 2953.36 2936.87C2944.18 2925.2 2929.01 2919.99 2914.6 2923.56C2895.68 2928.26 2876.3 2917.77 2869.88 2899.36C2864.99 2885.35 2852.34 2875.5 2837.55 2874.2C2818.13 2872.49 2803.21 2856.28 2803.11 2836.79C2803.04 2821.94 2794.27 2808.52 2780.7 2802.48C2762.89 2794.56 2754.04 2774.39 2760.27 2755.92C2765.02 2741.85 2761.09 2726.31 2750.22 2716.2C2735.94 2702.92 2734.12 2680.96 2746.02 2665.52C2755.08 2653.76 2756.4 2637.78 2749.4 2624.69C2740.21 2607.5 2745.62 2586.14 2761.88 2575.4C2774.27 2567.21 2780.71 2552.53 2778.34 2537.87C2775.23 2518.63 2787.28 2500.18 2806.15 2495.3C2820.53 2491.59 2831.39 2479.79 2833.9 2465.16C2837.21 2445.95 2854.6 2432.41 2874.03 2433.93C2888.83 2435.08 2902.94 2427.45 2910.07 2414.43C2919.43 2397.33 2940.27 2390.17 2958.16 2397.91C2971.79 2403.81 2987.6 2401.17 2998.57 2391.17Z" fill="#8D83FF"/>
<path d="M3003.29 2396.34C3015.03 2385.65 3032.97 2385.65 3044.71 2396.34C3057.72 2408.2 3076.47 2411.33 3092.62 2404.34C3107.19 2398.03 3124.17 2403.86 3131.79 2417.79C3140.25 2433.22 3156.96 2442.27 3174.51 2440.91C3190.34 2439.67 3204.51 2450.7 3207.2 2466.35C3210.18 2483.69 3223.05 2497.68 3240.09 2502.08C3255.47 2506.06 3265.28 2521.08 3262.75 2536.76C3259.94 2554.13 3267.57 2571.54 3282.26 2581.24C3295.51 2589.99 3299.91 2607.39 3292.43 2621.39C3284.13 2636.91 3285.7 2655.85 3296.44 2669.79C3306.13 2682.37 3304.64 2700.26 3293.02 2711.07C3280.13 2723.06 3275.46 2741.48 3281.09 2758.16C3286.17 2773.2 3278.96 2789.64 3264.46 2796.09C3248.37 2803.24 3237.98 2819.15 3237.89 2836.75C3237.81 2852.63 3225.65 2865.83 3209.84 2867.22C3192.31 2868.76 3177.31 2880.44 3171.51 2897.06C3166.28 2912.05 3150.49 2920.59 3135.08 2916.77C3118 2912.54 3100.02 2918.71 3089.14 2932.54C3079.33 2945.02 3061.62 2947.98 3048.29 2939.36C3033.5 2929.81 3014.5 2929.81 2999.71 2939.36C2986.38 2947.98 2968.67 2945.02 2958.86 2932.54C2947.98 2918.71 2930 2912.54 2912.92 2916.77C2897.51 2920.59 2881.72 2912.05 2876.49 2897.06C2870.69 2880.44 2855.69 2868.76 2838.16 2867.22C2822.35 2865.83 2810.19 2852.63 2810.11 2836.75C2810.02 2819.15 2799.63 2803.24 2783.54 2796.09C2769.04 2789.64 2761.83 2773.2 2766.91 2758.16C2772.54 2741.48 2767.87 2723.06 2754.98 2711.07C2743.35 2700.26 2741.87 2682.37 2751.56 2669.79C2762.3 2655.85 2763.87 2636.91 2755.57 2621.39C2748.09 2607.39 2752.49 2589.99 2765.74 2581.24C2780.43 2571.54 2788.06 2554.13 2785.25 2536.76C2782.72 2521.08 2792.53 2506.06 2807.91 2502.08C2824.95 2497.68 2837.82 2483.69 2840.8 2466.35C2843.49 2450.7 2857.66 2439.67 2873.49 2440.91C2891.04 2442.27 2907.75 2433.22 2916.21 2417.79C2923.83 2403.86 2940.81 2398.03 2955.38 2404.34C2971.53 2411.33 2990.28 2408.2 3003.29 2396.34Z" stroke="#19154A" stroke-width="14"/>
</g>
<g filter="url(#filter2_d_1732_62)">
<path d="M1897.13 2393.78C1917.14 2378.55 1944.86 2378.55 1964.87 2393.78C1978.18 2403.9 1995.32 2407.55 2011.59 2403.71C2036.07 2397.93 2061.39 2409.21 2073.48 2431.26C2081.52 2445.93 2095.69 2456.22 2112.12 2459.34C2136.83 2464.02 2155.38 2484.62 2157.45 2509.68C2158.83 2526.35 2167.59 2541.52 2181.33 2551.04C2202 2565.37 2210.57 2591.74 2202.27 2615.48C2196.75 2631.26 2198.58 2648.68 2207.26 2662.97C2220.32 2684.47 2217.42 2712.04 2200.18 2730.35C2188.72 2742.53 2183.3 2759.19 2185.42 2775.77C2188.6 2800.72 2174.74 2824.73 2151.55 2834.45C2136.12 2840.91 2124.4 2853.93 2119.59 2869.94C2112.35 2894.03 2089.92 2910.32 2064.78 2909.76C2048.06 2909.39 2032.06 2916.52 2021.15 2929.19C2004.74 2948.25 1977.62 2954.01 1954.88 2943.27C1939.76 2936.14 1922.24 2936.14 1907.12 2943.27C1884.38 2954.01 1857.26 2948.25 1840.85 2929.19C1829.94 2916.52 1813.94 2909.39 1797.22 2909.76C1772.08 2910.32 1749.65 2894.03 1742.41 2869.94C1737.6 2853.93 1725.88 2840.91 1710.45 2834.45C1687.26 2824.73 1673.4 2800.72 1676.58 2775.77C1678.7 2759.19 1673.28 2742.53 1661.82 2730.35C1644.58 2712.04 1641.68 2684.47 1654.74 2662.97C1663.42 2648.68 1665.25 2631.26 1659.73 2615.48C1651.43 2591.74 1660 2565.37 1680.67 2551.04C1694.41 2541.52 1703.17 2526.35 1704.55 2509.68C1706.62 2484.62 1725.17 2464.02 1749.88 2459.34C1766.31 2456.22 1780.48 2445.93 1788.52 2431.26C1800.61 2409.21 1825.93 2397.93 1850.41 2403.71C1866.68 2407.55 1883.82 2403.9 1897.13 2393.78Z" fill="#8D83FF"/>
<path d="M1901.36 2399.35C1918.87 2386.02 1943.13 2386.02 1960.64 2399.35C1975.61 2410.74 1994.89 2414.84 2013.2 2410.52C2034.61 2405.47 2056.77 2415.33 2067.34 2434.63C2076.39 2451.12 2092.33 2462.71 2110.82 2466.21C2132.44 2470.31 2148.66 2488.33 2150.48 2510.26C2152.03 2529.01 2161.88 2546.08 2177.34 2556.8C2195.43 2569.33 2202.92 2592.4 2195.66 2613.17C2189.45 2630.92 2191.51 2650.53 2201.28 2666.61C2212.7 2685.42 2210.16 2709.53 2195.08 2725.55C2182.19 2739.25 2176.1 2758 2178.48 2776.66C2181.26 2798.49 2169.14 2819.49 2148.84 2827.99C2131.49 2835.26 2118.3 2849.91 2112.89 2867.92C2106.55 2889 2086.93 2903.25 2064.93 2902.76C2046.13 2902.35 2028.12 2910.36 2015.84 2924.62C2001.49 2941.29 1977.77 2946.34 1957.87 2936.94C1940.86 2928.91 1921.14 2928.91 1904.13 2936.94C1884.23 2946.34 1860.51 2941.29 1846.16 2924.62C1833.88 2910.36 1815.87 2902.35 1797.07 2902.76C1775.07 2903.25 1755.45 2889 1749.12 2867.92C1743.7 2849.91 1730.51 2835.26 1713.16 2827.99C1692.86 2819.49 1680.74 2798.49 1683.52 2776.66C1685.9 2758 1679.81 2739.25 1666.92 2725.55C1651.84 2709.53 1649.3 2685.42 1660.72 2666.61C1670.49 2650.53 1672.55 2630.92 1666.34 2613.17C1659.08 2592.4 1666.57 2569.33 1684.66 2556.8C1700.12 2546.08 1709.97 2529.01 1711.52 2510.26C1713.34 2488.33 1729.56 2470.31 1751.18 2466.21C1769.67 2462.71 1785.61 2451.12 1794.66 2434.63C1805.23 2415.33 1827.39 2405.47 1848.8 2410.52C1867.11 2414.84 1886.39 2410.74 1901.36 2399.35Z" stroke="#19154A" stroke-width="14"/>
</g>
<g filter="url(#filter3_d_1732_62)">
<path d="M793.243 2399.64C818.711 2383.39 851.289 2383.39 876.757 2399.64C891.117 2408.8 908.092 2412.98 925.065 2411.54C955.165 2408.99 984.011 2424.13 999.012 2450.35C1007.47 2465.14 1020.56 2476.73 1036.25 2483.35C1064.09 2495.08 1082.6 2521.89 1083.7 2552.08C1084.31 2569.1 1090.51 2585.45 1101.34 2598.6C1120.53 2621.92 1124.46 2654.26 1111.4 2681.5C1104.04 2696.86 1101.93 2714.22 1105.41 2730.89C1111.57 2760.47 1100.01 2790.93 1075.79 2808.98C1062.14 2819.16 1052.2 2833.55 1047.53 2849.93C1039.24 2878.97 1014.85 2900.58 985.019 2905.31C968.195 2907.97 952.715 2916.1 940.964 2928.43C920.124 2950.3 888.493 2958.09 859.877 2948.41C843.741 2942.96 826.259 2942.96 810.123 2948.41C781.507 2958.09 749.876 2950.3 729.036 2928.43C717.285 2916.1 701.805 2907.97 684.981 2905.31C655.146 2900.58 630.761 2878.97 622.471 2849.93C617.796 2833.55 607.864 2819.16 594.207 2808.98C569.986 2790.93 558.434 2760.47 564.593 2730.89C568.065 2714.22 565.958 2696.86 558.595 2681.5C545.538 2654.26 549.465 2621.92 568.662 2598.6C579.487 2585.45 585.686 2569.1 586.305 2552.08C587.403 2521.89 605.909 2495.08 633.746 2483.35C649.443 2476.73 662.529 2465.14 670.988 2450.35C685.989 2424.13 714.835 2408.99 744.935 2411.54C761.908 2412.98 778.883 2408.8 793.243 2399.64Z" fill="#8D83FF"/>
<path d="M797.008 2405.54C820.18 2390.76 849.82 2390.76 872.992 2405.54C888.648 2415.52 907.153 2420.08 925.656 2418.52C953.043 2416.2 979.288 2429.97 992.937 2453.83C1002.16 2469.95 1016.42 2482.59 1033.54 2489.8C1058.86 2500.47 1075.7 2524.86 1076.7 2552.33C1077.37 2570.89 1084.13 2588.71 1095.93 2603.05C1113.4 2624.27 1116.97 2653.69 1105.09 2678.48C1097.07 2695.22 1094.77 2714.14 1098.55 2732.32C1104.16 2759.23 1093.65 2786.94 1071.61 2803.37C1056.72 2814.46 1045.89 2830.15 1040.8 2848.01C1033.25 2874.43 1011.07 2894.09 983.923 2898.39C965.583 2901.3 948.707 2910.16 935.896 2923.6C916.935 2943.5 888.156 2950.59 862.12 2941.78C844.53 2935.83 825.47 2935.83 807.88 2941.78C781.844 2950.59 753.065 2943.5 734.104 2923.6C721.293 2910.16 704.417 2901.3 686.077 2898.39C658.932 2894.09 636.745 2874.43 629.202 2848.01C624.106 2830.15 613.279 2814.46 598.39 2803.37C576.353 2786.94 565.842 2759.23 571.445 2732.32C575.231 2714.14 572.935 2695.22 564.908 2678.48C553.028 2653.69 556.601 2624.27 574.066 2603.05C585.867 2588.71 592.626 2570.89 593.301 2552.33C594.3 2524.86 611.138 2500.47 636.465 2489.8C653.577 2482.59 667.842 2469.95 677.063 2453.83C690.712 2429.97 716.957 2416.2 744.344 2418.52C762.847 2420.08 781.352 2415.52 797.008 2405.54Z" stroke="#19154A" stroke-width="14"/>
</g>
<g filter="url(#filter4_d_1732_62)">
<path d="M4070.36 1399.41C4099 1381.96 4135 1381.96 4163.64 1399.41C4178.31 1408.35 4195.23 1412.88 4212.4 1412.48C4245.93 1411.69 4277.1 1429.68 4293.19 1459.12C4301.42 1474.19 4313.81 1486.58 4328.88 1494.81C4358.32 1510.9 4376.31 1542.07 4375.52 1575.6C4375.12 1592.77 4379.65 1609.69 4388.59 1624.36C4406.04 1653 4406.04 1689 4388.59 1717.64C4379.65 1732.31 4375.12 1749.23 4375.52 1766.4C4376.31 1799.93 4358.32 1831.1 4328.88 1847.19C4313.81 1855.42 4301.42 1867.81 4293.19 1882.88C4277.1 1912.32 4245.93 1930.31 4212.4 1929.52C4195.23 1929.12 4178.31 1933.65 4163.64 1942.59C4135 1960.04 4099 1960.04 4070.36 1942.59C4055.69 1933.65 4038.77 1929.12 4021.6 1929.52C3988.07 1930.31 3956.9 1912.32 3940.81 1882.88C3932.58 1867.81 3920.19 1855.42 3905.12 1847.19C3875.68 1831.1 3857.69 1799.93 3858.48 1766.4C3858.88 1749.23 3854.35 1732.31 3845.41 1717.64C3827.96 1689 3827.96 1653 3845.41 1624.36C3854.35 1609.69 3858.88 1592.77 3858.48 1575.6C3857.69 1542.07 3875.68 1510.9 3905.12 1494.81C3920.19 1486.58 3932.58 1474.19 3940.81 1459.12C3956.9 1429.68 3988.07 1411.69 4021.6 1412.48C4038.77 1412.88 4055.69 1408.35 4070.36 1399.41Z" fill="#8D83FF"/>
<path d="M4074 1405.39C4100.41 1389.3 4133.59 1389.3 4160 1405.39C4175.81 1415.02 4194.06 1419.91 4212.56 1419.48C4243.48 1418.75 4272.22 1435.34 4287.04 1462.48C4295.92 1478.72 4309.28 1492.08 4325.52 1500.96C4352.66 1515.78 4369.25 1544.52 4368.52 1575.44C4368.09 1593.94 4372.98 1612.19 4382.61 1628C4398.7 1654.41 4398.7 1687.59 4382.61 1714C4372.98 1729.81 4368.09 1748.06 4368.52 1766.56C4369.25 1797.48 4352.66 1826.22 4325.52 1841.04C4309.28 1849.92 4295.92 1863.28 4287.04 1879.52C4272.22 1906.66 4243.48 1923.25 4212.56 1922.52C4194.06 1922.09 4175.81 1926.98 4160 1936.61C4133.59 1952.7 4100.41 1952.7 4074 1936.61C4058.19 1926.98 4039.94 1922.09 4021.44 1922.52C3990.52 1923.25 3961.78 1906.66 3946.96 1879.52C3938.08 1863.28 3924.72 1849.92 3908.48 1841.04C3881.34 1826.22 3864.75 1797.48 3865.48 1766.56C3865.91 1748.06 3861.02 1729.81 3851.39 1714C3835.3 1687.59 3835.3 1654.41 3851.39 1628C3861.02 1612.19 3865.91 1593.94 3865.48 1575.44C3864.75 1544.52 3881.34 1515.78 3908.48 1500.96C3924.72 1492.08 3938.08 1478.72 3946.96 1462.48C3961.78 1435.34 3990.52 1418.75 4021.44 1419.48C4039.94 1419.91 4058.19 1415.02 4074 1405.39Z" stroke="#19154A" stroke-width="14"/>
</g>
<g filter="url(#filter5_d_1732_62)">
<path d="M2976.26 1411.72C3004.4 1390.07 3043.6 1390.07 3071.74 1411.72C3087.25 1423.64 3106.68 1429.33 3126.17 1427.67C3161.51 1424.66 3194.52 1445.81 3206.47 1479.21C3213.06 1497.61 3226.33 1512.89 3243.62 1522.01C3274.98 1538.56 3291.3 1574.2 3283.28 1608.74C3278.86 1627.77 3281.73 1647.77 3291.34 1664.78C3308.79 1695.67 3303.2 1734.45 3277.75 1759.17C3263.74 1772.78 3255.33 1791.17 3254.2 1810.68C3252.15 1846.08 3226.44 1875.67 3191.69 1882.73C3172.53 1886.61 3155.48 1897.54 3143.97 1913.35C3123.07 1942.03 3085.45 1953.05 3052.36 1940.21C3034.13 1933.13 3013.87 1933.13 2995.64 1940.21C2962.55 1953.05 2924.93 1942.03 2904.03 1913.35C2892.52 1897.54 2875.47 1886.61 2856.31 1882.73C2821.56 1875.67 2795.85 1846.08 2793.8 1810.68C2792.67 1791.17 2784.26 1772.78 2770.25 1759.17C2744.8 1734.45 2739.21 1695.67 2756.66 1664.78C2766.27 1647.77 2769.14 1627.77 2764.72 1608.74C2756.7 1574.2 2773.02 1538.56 2804.38 1522.01C2821.67 1512.89 2834.94 1497.61 2841.53 1479.21C2853.48 1445.81 2886.49 1424.66 2921.83 1427.67C2941.32 1429.33 2960.75 1423.64 2976.26 1411.72Z" fill="#8D83FF"/>
<path d="M2980.52 1417.27C3006.16 1397.55 3041.84 1397.55 3067.48 1417.27C3084.37 1430.26 3105.54 1436.45 3126.76 1434.64C3158.95 1431.9 3189 1451.17 3199.88 1481.57C3207.06 1501.62 3221.52 1518.27 3240.35 1528.21C3268.91 1543.27 3283.76 1575.72 3276.46 1607.15C3271.64 1627.89 3274.78 1649.68 3285.25 1668.22C3301.13 1696.34 3296.04 1731.64 3272.88 1754.15C3257.61 1768.98 3248.44 1789.02 3247.21 1810.27C3245.35 1842.49 3221.94 1869.44 3190.3 1875.87C3169.42 1880.1 3150.85 1892 3138.31 1909.22C3119.28 1935.34 3085.02 1945.37 3054.89 1933.68C3035.03 1925.97 3012.97 1925.97 2993.11 1933.68C2962.98 1945.37 2928.72 1935.34 2909.69 1909.22C2897.15 1892 2878.58 1880.1 2857.7 1875.87C2826.06 1869.44 2802.65 1842.49 2800.79 1810.27C2799.56 1789.02 2790.39 1768.98 2775.12 1754.15C2751.96 1731.64 2746.87 1696.34 2762.75 1668.22C2773.22 1649.68 2776.36 1627.89 2771.54 1607.15C2764.24 1575.72 2779.09 1543.27 2807.65 1528.21C2826.48 1518.27 2840.94 1501.62 2848.12 1481.57C2859 1451.17 2889.05 1431.9 2921.24 1434.64C2942.46 1436.45 2963.63 1430.26 2980.52 1417.27Z" stroke="#19154A" stroke-width="14"/>
</g>
<g filter="url(#filter6_d_1732_62)">
<path d="M1886.64 1395.77C1914.21 1380.38 1947.79 1380.38 1975.36 1395.77L1997.81 1408.3C2008.17 1414.09 2019.57 1417.79 2031.36 1419.2L2056.89 1422.26C2088.24 1426.01 2115.41 1445.75 2128.67 1474.41L2139.46 1497.74C2144.44 1508.52 2151.49 1518.21 2160.2 1526.28L2179.05 1543.76C2202.21 1565.22 2212.59 1597.16 2206.47 1628.14L2201.49 1653.36C2199.18 1665.01 2199.18 1676.99 2201.49 1688.64L2206.47 1713.86C2212.59 1744.84 2202.21 1776.78 2179.05 1798.24L2160.2 1815.72C2151.49 1823.79 2144.44 1833.48 2139.46 1844.26L2128.67 1867.59C2115.41 1896.25 2088.24 1915.99 2056.89 1919.74L2031.36 1922.8C2019.57 1924.21 2008.17 1927.91 1997.81 1933.7L1975.36 1946.23C1947.79 1961.62 1914.21 1961.62 1886.64 1946.23L1864.19 1933.7C1853.83 1927.91 1842.43 1924.21 1830.64 1922.8L1805.11 1919.74C1773.76 1915.99 1746.59 1896.25 1733.33 1867.59L1722.54 1844.26C1717.56 1833.48 1710.51 1823.79 1701.8 1815.72L1682.95 1798.24C1659.79 1776.78 1649.41 1744.84 1655.53 1713.86L1660.51 1688.64C1662.82 1676.99 1662.82 1665.01 1660.51 1653.36L1655.53 1628.14C1649.41 1597.16 1659.79 1565.22 1682.95 1543.76L1701.8 1526.28C1710.51 1518.21 1717.56 1508.52 1722.54 1497.74L1733.33 1474.41C1746.59 1445.75 1773.76 1426.01 1805.11 1422.26L1830.64 1419.2C1842.43 1417.79 1853.83 1414.09 1864.19 1408.3L1886.64 1395.77Z" fill="#8D83FF"/>
<path d="M1890.05 1401.88C1915.5 1387.67 1946.5 1387.67 1971.95 1401.88L1994.4 1414.41C2005.56 1420.65 2017.83 1424.64 2030.53 1426.15L2056.05 1429.21C2085 1432.67 2110.08 1450.89 2122.31 1477.35L2133.11 1500.68C2138.47 1512.29 2146.06 1522.73 2155.44 1531.42L2174.29 1548.89C2195.67 1568.71 2205.25 1598.19 2199.6 1626.78L2194.62 1652C2192.14 1664.55 2192.14 1677.45 2194.62 1690L2199.6 1715.22C2205.25 1743.81 2195.67 1773.29 2174.29 1793.11L2155.44 1810.58C2146.06 1819.27 2138.47 1829.71 2133.11 1841.32L2122.31 1864.65C2110.08 1891.11 2085 1909.33 2056.05 1912.79L2030.53 1915.85C2017.83 1917.36 2005.56 1921.35 1994.4 1927.59L1971.95 1940.12C1946.5 1954.33 1915.5 1954.33 1890.05 1940.12L1867.6 1927.59C1856.44 1921.35 1844.17 1917.36 1831.47 1915.85L1805.95 1912.79C1777 1909.33 1751.92 1891.11 1739.69 1864.65L1728.89 1841.32C1723.53 1829.71 1715.94 1819.27 1706.56 1810.58L1687.71 1793.11C1666.33 1773.29 1656.75 1743.81 1662.4 1715.22L1667.38 1690C1669.86 1677.45 1669.86 1664.55 1667.38 1652L1662.4 1626.78C1656.75 1598.19 1666.33 1568.71 1687.71 1548.89L1706.56 1531.42C1715.94 1522.73 1723.53 1512.29 1728.89 1500.68L1739.69 1477.35C1751.92 1450.89 1777 1432.67 1805.95 1429.21L1831.47 1426.15C1844.17 1424.64 1856.44 1420.65 1867.6 1414.41L1890.05 1401.88Z" stroke="#19154A" stroke-width="14"/>
</g>
<g filter="url(#filter7_d_1732_62)">
<path d="M808.973 1380.49C825.783 1374.36 844.217 1374.36 861.027 1380.49L1001.84 1431.81C1018.63 1437.94 1032.73 1449.78 1041.66 1465.26L1116.65 1595.34C1125.56 1610.8 1128.75 1628.9 1125.65 1646.48L1099.6 1794.44C1096.5 1812.03 1087.32 1827.96 1073.65 1839.45L958.807 1935.95C945.113 1947.46 927.8 1953.76 909.913 1953.76H760.087C742.2 1953.76 724.887 1947.46 711.193 1935.95L596.354 1839.45C582.684 1827.96 573.495 1812.03 570.399 1794.44L544.348 1646.48C541.253 1628.9 544.442 1610.8 553.354 1595.34L628.345 1465.26C637.271 1449.78 651.368 1437.94 668.159 1431.81L808.973 1380.49Z" fill="#BC7AFF"/>
<path d="M811.37 1387.06C826.632 1381.5 843.368 1381.5 858.63 1387.06L999.443 1438.39C1014.69 1443.95 1027.49 1454.7 1035.59 1468.76L1110.58 1598.83C1118.67 1612.87 1121.57 1629.31 1118.76 1645.26L1092.71 1793.23C1089.9 1809.19 1081.55 1823.66 1069.14 1834.09L954.304 1930.59C941.871 1941.04 926.152 1946.76 909.913 1946.76H760.087C743.848 1946.76 728.129 1941.04 715.696 1930.59L600.857 1834.09C588.447 1823.66 580.104 1809.19 577.293 1793.23L551.241 1645.26C548.432 1629.31 551.327 1612.87 559.419 1598.83L634.409 1468.76C642.513 1454.7 655.312 1443.95 670.557 1438.39L811.37 1387.06Z" stroke="#26103D" stroke-width="14"/>
</g>
<g filter="url(#filter8_d_1732_62)">
<path d="M4087.92 384.047C4106.54 376.333 4127.46 376.333 4146.08 384.047L4300.76 448.114C4319.38 455.827 4334.17 470.623 4341.89 489.245L4405.95 643.916C4413.67 662.538 4413.67 683.462 4405.95 702.084L4341.89 856.755C4334.17 875.377 4319.38 890.173 4300.76 897.886L4146.08 961.953C4127.46 969.667 4106.54 969.667 4087.92 961.953L3933.24 897.886C3914.62 890.173 3899.83 875.377 3892.11 856.755L3828.05 702.084C3820.33 683.462 3820.33 662.538 3828.05 643.916L3892.11 489.245C3899.83 470.623 3914.62 455.827 3933.24 448.114L4087.92 384.047Z" fill="#BC7AFF"/>
<path d="M4090.59 390.514C4107.5 383.511 4126.5 383.511 4143.41 390.514L4298.08 454.581C4314.98 461.584 4328.42 475.017 4335.42 491.924L4399.49 646.595C4406.49 663.502 4406.49 682.498 4399.49 699.405L4335.42 854.076C4328.42 870.983 4314.98 884.416 4298.08 891.419L4143.41 955.486C4126.5 962.489 4107.5 962.489 4090.59 955.486L3935.92 891.419C3919.02 884.416 3905.58 870.983 3898.58 854.076L3834.51 699.405C3827.51 682.498 3827.51 663.502 3834.51 646.595L3898.58 491.924C3905.58 475.017 3919.02 461.584 3935.92 454.581L4090.59 390.514Z" stroke="#26103D" stroke-width="14"/>
</g>
<g filter="url(#filter9_d_1732_62)">
<path d="M2990.94 388.967C3011.83 378.88 3036.17 378.88 3057.06 388.967L3225.62 470.386C3246.43 480.44 3261.54 499.419 3266.66 521.958L3308.38 705.274C3313.5 727.771 3308.12 751.375 3293.76 769.435L3176.99 916.311C3162.57 934.446 3140.66 945.014 3117.5 945.014H2930.5C2907.34 945.014 2885.43 934.446 2871.01 916.311L2754.24 769.435C2739.88 751.375 2734.5 727.771 2739.62 705.274L2781.34 521.958C2786.46 499.419 2801.57 480.44 2822.38 470.386L2990.94 388.967Z" fill="#BC7AFF"/>
<path d="M2993.99 395.271C3012.95 386.112 3035.05 386.112 3054.01 395.271L3222.57 476.689C3241.47 485.817 3255.18 503.048 3259.84 523.511L3301.55 706.827C3306.2 727.252 3301.32 748.682 3288.28 765.078L3171.51 911.955C3158.42 928.419 3138.53 938.014 3117.5 938.014H2930.5C2909.47 938.014 2889.58 928.419 2876.49 911.955L2759.72 765.078C2746.68 748.682 2741.8 727.252 2746.45 706.827L2788.16 523.511C2792.82 503.048 2806.53 485.817 2825.43 476.689L2993.99 395.271Z" stroke="#26103D" stroke-width="14"/>
</g>
<g filter="url(#filter10_d_1732_62)">
<path d="M1892.5 395.939C1916.01 382.363 1944.99 382.363 1968.5 395.939L2151.87 501.811C2175.39 515.387 2189.87 540.476 2189.87 567.629V779.371C2189.87 806.524 2175.39 831.613 2151.87 845.189L1968.5 951.061C1944.99 964.637 1916.01 964.637 1892.5 951.061L1709.13 845.189C1685.61 831.613 1671.13 806.524 1671.13 779.371V567.629C1671.13 540.476 1685.61 515.387 1709.13 501.811L1892.5 395.939Z" fill="#BC7AFF"/>
<path d="M1896 402.002C1917.02 389.869 1942.83 389.679 1964 401.433L1965 402.002L2148.38 507.873C2169.72 520.199 2182.88 542.978 2182.88 567.629V779.371C2182.88 804.022 2169.72 826.801 2148.38 839.127L1965 944.998C1943.98 957.131 1918.17 957.321 1897 945.567L1896 944.998L1712.62 839.127C1691.28 826.801 1678.12 804.022 1678.12 779.371V567.629C1678.12 542.978 1691.28 520.199 1712.62 507.873L1896 402.002Z" stroke="#26103D" stroke-width="14"/>
</g>
<g filter="url(#filter11_d_1732_62)">
<path d="M793.731 405.635C820.409 386.188 856.591 386.188 883.269 405.635L1078.84 548.201C1105.39 567.554 1116.5 601.775 1106.38 633.03L1031.57 864.024C1021.42 895.374 992.22 916.61 959.268 916.61H717.732C684.78 916.61 655.581 895.374 645.429 864.024L570.624 633.03C560.503 601.775 571.61 567.554 598.159 548.201L793.731 405.635Z" fill="#BC7AFF"/>
<path d="M797.854 411.292C822.075 393.636 854.925 393.636 879.146 411.292L1074.72 553.858C1098.82 571.429 1108.91 602.497 1099.72 630.874L1024.91 861.867C1015.69 890.329 989.185 909.609 959.268 909.609H717.732C687.815 909.609 661.306 890.329 652.089 861.867L577.284 630.874C568.095 602.497 578.179 571.429 602.282 553.858L797.854 411.292Z" stroke="#26103D" stroke-width="14"/>
</g>
<defs>
<filter id="filter0_d_1732_62" x="3795.75" y="2346.82" width="663.504" height="688.364" filterUnits="userSpaceOnUse" color-interpolation-filters="sRGB">
<feFlood flood-opacity="0" result="BackgroundImageFix"/>
<feColorMatrix in="SourceAlpha" type="matrix" values="0 0 0 0 0 0 0 0 0 0 0 0 0 0 0 0 0 0 127 0" result="hardAlpha"/>
<feOffset dx="22" dy="45"/>
<feComposite in2="hardAlpha" operator="out"/>
<feColorMatrix type="matrix" values="0 0 0 0 0.0980392 0 0 0 0 0.0823529 0 0 0 0 0.290196 0 0 0 1 0"/>
<feBlend mode="normal" in2="BackgroundImageFix" result="effect1_dropShadow_1732_62"/>
<feBlend mode="normal" in="SourceGraphic" in2="effect1_dropShadow_1732_62" result="shape"/>
</filter>
<filter id="filter1_d_1732_62" x="2738.17" y="2381.32" width="593.653" height="614.96" filterUnits="userSpaceOnUse" color-interpolation-filters="sRGB">
<feFlood flood-opacity="0" result="BackgroundImageFix"/>
<feColorMatrix in="SourceAlpha" type="matrix" values="0 0 0 0 0 0 0 0 0 0 0 0 0 0 0 0 0 0 127 0" result="hardAlpha"/>
<feOffset dx="22" dy="45"/>
<feComposite in2="hardAlpha" operator="out"/>
<feColorMatrix type="matrix" values="0 0 0 0 0.0980392 0 0 0 0 0.0823529 0 0 0 0 0.290196 0 0 0 1 0"/>
<feBlend mode="normal" in2="BackgroundImageFix" result="effect1_dropShadow_1732_62"/>
<feBlend mode="normal" in="SourceGraphic" in2="effect1_dropShadow_1732_62" result="shape"/>
</filter>
<filter id="filter2_d_1732_62" x="1646.61" y="2382.35" width="590.775" height="611.274" filterUnits="userSpaceOnUse" color-interpolation-filters="sRGB">
<feFlood flood-opacity="0" result="BackgroundImageFix"/>
<feColorMatrix in="SourceAlpha" type="matrix" values="0 0 0 0 0 0 0 0 0 0 0 0 0 0 0 0 0 0 127 0" result="hardAlpha"/>
<feOffset dx="22" dy="45"/>
<feComposite in2="hardAlpha" operator="out"/>
<feColorMatrix type="matrix" values="0 0 0 0 0.0980392 0 0 0 0 0.0823529 0 0 0 0 0.290196 0 0 0 1 0"/>
<feBlend mode="normal" in2="BackgroundImageFix" result="effect1_dropShadow_1732_62"/>
<feBlend mode="normal" in="SourceGraphic" in2="effect1_dropShadow_1732_62" result="shape"/>
</filter>
<filter id="filter3_d_1732_62" x="550.967" y="2387.45" width="590.066" height="610.058" filterUnits="userSpaceOnUse" color-interpolation-filters="sRGB">
<feFlood flood-opacity="0" result="BackgroundImageFix"/>
<feColorMatrix in="SourceAlpha" type="matrix" values="0 0 0 0 0 0 0 0 0 0 0 0 0 0 0 0 0 0 127 0" result="hardAlpha"/>
<feOffset dx="22" dy="45"/>
<feComposite in2="hardAlpha" operator="out"/>
<feColorMatrix type="matrix" values="0 0 0 0 0.0980392 0 0 0 0 0.0823529 0 0 0 0 0.290196 0 0 0 1 0"/>
<feBlend mode="normal" in2="BackgroundImageFix" result="effect1_dropShadow_1732_62"/>
<feBlend mode="normal" in="SourceGraphic" in2="effect1_dropShadow_1732_62" result="shape"/>
</filter>
<filter id="filter4_d_1732_62" x="3832.33" y="1386.33" width="591.348" height="614.348" filterUnits="userSpaceOnUse" color-interpolation-filters="sRGB">
<feFlood flood-opacity="0" result="BackgroundImageFix"/>
<feColorMatrix in="SourceAlpha" type="matrix" values="0 0 0 0 0 0 0 0 0 0 0 0 0 0 0 0 0 0 127 0" result="hardAlpha"/>
<feOffset dx="22" dy="45"/>
<feComposite in2="hardAlpha" operator="out"/>
<feColorMatrix type="matrix" values="0 0 0 0 0.0980392 0 0 0 0 0.0823529 0 0 0 0 0.290196 0 0 0 1 0"/>
<feBlend mode="normal" in2="BackgroundImageFix" result="effect1_dropShadow_1732_62"/>
<feBlend mode="normal" in="SourceGraphic" in2="effect1_dropShadow_1732_62" result="shape"/>
</filter>
<filter id="filter5_d_1732_62" x="2746.57" y="1395.48" width="576.859" height="595.035" filterUnits="userSpaceOnUse" color-interpolation-filters="sRGB">
<feFlood flood-opacity="0" result="BackgroundImageFix"/>
<feColorMatrix in="SourceAlpha" type="matrix" values="0 0 0 0 0 0 0 0 0 0 0 0 0 0 0 0 0 0 127 0" result="hardAlpha"/>
<feOffset dx="22" dy="45"/>
<feComposite in2="hardAlpha" operator="out"/>
<feColorMatrix type="matrix" values="0 0 0 0 0.0980392 0 0 0 0 0.0823529 0 0 0 0 0.290196 0 0 0 1 0"/>
<feBlend mode="normal" in2="BackgroundImageFix" result="effect1_dropShadow_1732_62"/>
<feBlend mode="normal" in="SourceGraphic" in2="effect1_dropShadow_1732_62" result="shape"/>
</filter>
<filter id="filter6_d_1732_62" x="1653.8" y="1384.22" width="576.393" height="618.552" filterUnits="userSpaceOnUse" color-interpolation-filters="sRGB">
<feFlood flood-opacity="0" result="BackgroundImageFix"/>
<feColorMatrix in="SourceAlpha" type="matrix" values="0 0 0 0 0 0 0 0 0 0 0 0 0 0 0 0 0 0 127 0" result="hardAlpha"/>
<feOffset dx="22" dy="45"/>
<feComposite in2="hardAlpha" operator="out"/>
<feColorMatrix type="matrix" values="0 0 0 0 0.0980392 0 0 0 0 0.0823529 0 0 0 0 0.290196 0 0 0 1 0"/>
<feBlend mode="normal" in2="BackgroundImageFix" result="effect1_dropShadow_1732_62"/>
<feBlend mode="normal" in="SourceGraphic" in2="effect1_dropShadow_1732_62" result="shape"/>
</filter>
<filter id="filter7_d_1732_62" x="543.196" y="1375.89" width="605.607" height="622.873" filterUnits="userSpaceOnUse" color-interpolation-filters="sRGB">
<feFlood flood-opacity="0" result="BackgroundImageFix"/>
<feColorMatrix in="SourceAlpha" type="matrix" values="0 0 0 0 0 0 0 0 0 0 0 0 0 0 0 0 0 0 127 0" result="hardAlpha"/>
<feOffset dx="22" dy="45"/>
<feComposite in2="hardAlpha" operator="out"/>
<feColorMatrix type="matrix" values="0 0 0 0 0.14902 0 0 0 0 0.0627451 0 0 0 0 0.239216 0 0 0 1 0"/>
<feBlend mode="normal" in2="BackgroundImageFix" result="effect1_dropShadow_1732_62"/>
<feBlend mode="normal" in="SourceGraphic" in2="effect1_dropShadow_1732_62" result="shape"/>
</filter>
<filter id="filter8_d_1732_62" x="3822.26" y="378.262" width="611.477" height="634.476" filterUnits="userSpaceOnUse" color-interpolation-filters="sRGB">
<feFlood flood-opacity="0" result="BackgroundImageFix"/>
<feColorMatrix in="SourceAlpha" type="matrix" values="0 0 0 0 0 0 0 0 0 0 0 0 0 0 0 0 0 0 127 0" result="hardAlpha"/>
<feOffset dx="22" dy="45"/>
<feComposite in2="hardAlpha" operator="out"/>
<feColorMatrix type="matrix" values="0 0 0 0 0.14902 0 0 0 0 0.0627451 0 0 0 0 0.239216 0 0 0 1 0"/>
<feBlend mode="normal" in2="BackgroundImageFix" result="effect1_dropShadow_1732_62"/>
<feBlend mode="normal" in="SourceGraphic" in2="effect1_dropShadow_1732_62" result="shape"/>
</filter>
<filter id="filter9_d_1732_62" x="2737.73" y="381.402" width="594.55" height="608.612" filterUnits="userSpaceOnUse" color-interpolation-filters="sRGB">
<feFlood flood-opacity="0" result="BackgroundImageFix"/>
<feColorMatrix in="SourceAlpha" type="matrix" values="0 0 0 0 0 0 0 0 0 0 0 0 0 0 0 0 0 0 127 0" result="hardAlpha"/>
<feOffset dx="22" dy="45"/>
<feComposite in2="hardAlpha" operator="out"/>
<feColorMatrix type="matrix" values="0 0 0 0 0.14902 0 0 0 0 0.0627451 0 0 0 0 0.239216 0 0 0 1 0"/>
<feBlend mode="normal" in2="BackgroundImageFix" result="effect1_dropShadow_1732_62"/>
<feBlend mode="normal" in="SourceGraphic" in2="effect1_dropShadow_1732_62" result="shape"/>
</filter>
<filter id="filter10_d_1732_62" x="1671.12" y="385.757" width="540.75" height="620.485" filterUnits="userSpaceOnUse" color-interpolation-filters="sRGB">
<feFlood flood-opacity="0" result="BackgroundImageFix"/>
<feColorMatrix in="SourceAlpha" type="matrix" values="0 0 0 0 0 0 0 0 0 0 0 0 0 0 0 0 0 0 127 0" result="hardAlpha"/>
<feOffset dx="22" dy="45"/>
<feComposite in2="hardAlpha" operator="out"/>
<feColorMatrix type="matrix" values="0 0 0 0 0.14902 0 0 0 0 0.0627451 0 0 0 0 0.239216 0 0 0 1 0"/>
<feBlend mode="normal" in2="BackgroundImageFix" result="effect1_dropShadow_1732_62"/>
<feBlend mode="normal" in="SourceGraphic" in2="effect1_dropShadow_1732_62" result="shape"/>
</filter>
<filter id="filter11_d_1732_62" x="566.923" y="391.05" width="565.154" height="570.56" filterUnits="userSpaceOnUse" color-interpolation-filters="sRGB">
<feFlood flood-opacity="0" result="BackgroundImageFix"/>
<feColorMatrix in="SourceAlpha" type="matrix" values="0 0 0 0 0 0 0 0 0 0 0 0 0 0 0 0 0 0 127 0" result="hardAlpha"/>
<feOffset dx="22" dy="45"/>
<feComposite in2="hardAlpha" operator="out"/>
<feColorMatrix type="matrix" values="0 0 0 0 0.14902 0 0 0 0 0.0627451 0 0 0 0 0.239216 0 0 0 1 0"/>
<feBlend mode="normal" in2="BackgroundImageFix" result="effect1_dropShadow_1732_62"/>
<feBlend mode="normal" in="SourceGraphic" in2="effect1_dropShadow_1732_62" result="shape"/>
</filter>
</defs>
</svg>
