<svg width="4944" height="3425" viewBox="0 0 4944 3425" fill="none" xmlns="http://www.w3.org/2000/svg">
<rect width="4944" height="3425" rx="340" fill="white"/>
<g filter="url(#filter0_d_1619_590)">
<path d="M4051.33 2443.75C4080.64 2393.42 4153.36 2393.42 4182.67 2443.75L4221.7 2510.76C4232.44 2529.19 4250.43 2542.27 4271.29 2546.78L4347.07 2563.19C4404 2575.52 4426.47 2644.68 4387.66 2688.11L4335.99 2745.93C4321.78 2761.84 4314.9 2783 4317.05 2804.23L4324.86 2881.37C4330.73 2939.32 4271.9 2982.06 4218.6 2958.57L4147.65 2927.31C4128.12 2918.7 4105.88 2918.7 4086.35 2927.31L4015.4 2958.57C3962.1 2982.06 3903.27 2939.32 3909.14 2881.37L3916.95 2804.23C3919.1 2783 3912.22 2761.84 3898.01 2745.93L3846.34 2688.11C3807.53 2644.68 3830 2575.52 3886.93 2563.19L3962.71 2546.78C3983.57 2542.27 4001.56 2529.19 4012.3 2510.76L4051.33 2443.75Z" fill="#E681FF"/>
<path d="M4057.38 2447.28C4083.99 2401.58 4150.01 2401.58 4176.62 2447.28L4215.65 2514.28C4227.38 2534.41 4247.03 2548.69 4269.8 2553.62L4345.59 2570.04C4397.27 2581.23 4417.67 2644.01 4382.44 2683.45L4330.77 2741.27C4315.25 2758.64 4307.74 2781.75 4310.09 2804.93L4317.9 2882.08C4323.23 2934.69 4269.82 2973.49 4221.43 2952.17L4150.47 2920.9C4129.15 2911.5 4104.85 2911.5 4083.53 2920.9L4012.57 2952.17C3964.18 2973.49 3910.77 2934.69 3916.1 2882.08L3923.91 2804.93C3926.26 2781.75 3918.75 2758.64 3903.23 2741.27L3851.56 2683.45C3816.33 2644.01 3836.73 2581.23 3888.41 2570.04L3964.2 2553.62C3986.97 2548.69 4006.62 2534.41 4018.35 2514.28L4057.38 2447.28Z" stroke="#3B0F46" stroke-width="14"/>
</g>
<g filter="url(#filter1_d_1619_590)">
<path d="M2969.88 2414.39C2999.53 2384.87 3047.47 2384.87 3077.12 2414.39L3316.91 2653.14C3346.75 2682.85 3346.75 2731.15 3316.91 2760.86L3077.12 2999.61C3047.47 3029.13 2999.53 3029.13 2969.88 2999.61L2730.09 2760.86C2700.25 2731.15 2700.25 2682.85 2730.09 2653.14L2969.88 2414.39Z" fill="#E681FF"/>
<path d="M2974.82 2419.35C3001.74 2392.55 3045.26 2392.55 3072.18 2419.35L3311.97 2658.1C3339.06 2685.07 3339.06 2728.93 3311.97 2755.9L3072.18 2994.65C3045.26 3021.45 3001.74 3021.45 2974.82 2994.65L2735.03 2755.9C2707.94 2728.93 2707.94 2685.07 2735.03 2658.1L2974.82 2419.35Z" stroke="#3B0F46" stroke-width="14"/>
</g>
<g filter="url(#filter2_d_1619_590)">
<rect x="1636" y="2413" width="589.021" height="588" rx="76" fill="#E681FF"/>
<rect x="1643" y="2420" width="575.021" height="574" rx="69" stroke="#3B0F46" stroke-width="14"/>
</g>
<g filter="url(#filter3_d_1619_590)">
<path d="M771.626 2408.49C800.853 2357.69 874.147 2357.69 903.374 2408.49L1150.85 2838.6C1180 2889.26 1143.43 2952.5 1084.98 2952.5H590.025C531.57 2952.5 494.998 2889.26 524.151 2838.6L771.626 2408.49Z" fill="#E681FF"/>
<path d="M777.693 2411.98C804.229 2365.86 870.771 2365.86 897.307 2411.98L1144.78 2842.09C1171.25 2888.09 1138.05 2945.5 1084.97 2945.5H590.025C536.955 2945.5 503.751 2888.09 530.218 2842.09L777.693 2411.98Z" stroke="#3B0F46" stroke-width="14"/>
</g>
<g filter="url(#filter4_d_1619_590)">
<path d="M3988.13 1428.54C3944.21 1384.15 3868.55 1415.13 3868.37 1477.57L3867.2 1891.15C3867.09 1929.81 3898.34 1961.23 3937 1961.34L4348.58 1962.52C4410.86 1962.7 4442.34 1887.55 4398.54 1843.28L3988.13 1428.54Z" fill="#8D83FF"/>
<path d="M3875.38 1477.59C3875.53 1421.39 3943.63 1393.51 3983.16 1433.46L4393.56 1848.21C4432.99 1888.05 4404.65 1955.68 4348.6 1955.52L3937.02 1954.34C3902.23 1954.25 3874.1 1925.96 3874.2 1891.17L3875.38 1477.59Z" stroke="#19154A" stroke-width="14"/>
</g>
<g filter="url(#filter5_d_1619_590)">
<path d="M3238.16 1423.86C2974.58 1457.92 2765.78 1667.11 2731.84 1931.16C2726.49 1972.8 2761.03 2007 2803 2007H3237.99C3279.96 2007 3313.99 1972.97 3313.99 1931V1495C3313.99 1453.03 3279.78 1418.48 3238.16 1423.86Z" fill="#8D83FF"/>
<path d="M3239.05 1430.8C3275.89 1426.04 3306.99 1456.61 3306.99 1495V1931C3306.99 1969.11 3276.1 2000 3237.99 2000H2803C2764.62 2000 2734.04 1968.9 2738.78 1932.06C2772.32 1671.15 2978.64 1464.45 3239.05 1430.8Z" stroke="#19154A" stroke-width="14"/>
</g>
<g filter="url(#filter6_d_1619_590)">
<path d="M1697 1486C1697 1447.34 1728.34 1416 1767 1416H1876.19C1952.79 1416 2026.25 1446.97 2080.41 1502.11C2134.57 1557.25 2165 1632.03 2165 1710C2165 1787.97 2134.57 1862.75 2080.41 1917.89C2026.25 1973.03 1952.79 2004 1876.19 2004H1767C1728.34 2004 1697 1972.66 1697 1934V1486Z" fill="#8D83FF"/>
<path d="M1767 1423H1876.19C1950.89 1423 2022.56 1453.21 2075.42 1507.02C2128.28 1560.83 2158 1633.84 2158 1710C2158 1786.16 2128.28 1859.17 2075.42 1912.98C2022.56 1966.79 1950.89 1997 1876.19 1997H1767C1732.21 1997 1704 1968.79 1704 1934V1486L1704 1485.19C1704.44 1451.04 1732.04 1423.44 1766.19 1423L1767 1423Z" stroke="#19154A" stroke-width="14"/>
</g>
<g filter="url(#filter7_d_1619_590)">
<path d="M838 1416C915.443 1416 989.715 1443.82 1044.48 1493.34C1099.24 1542.86 1130 1610.02 1130 1680.06V1934C1130 1972.66 1098.66 2004 1060 2004H616C577.34 2004 546 1972.66 546 1934V1680.06C546 1610.02 576.764 1542.86 631.525 1493.34C686.285 1443.82 760.557 1416 838 1416Z" fill="#8D83FF"/>
<path d="M838 1423C913.801 1423 986.374 1450.24 1039.78 1498.53C1093.16 1546.81 1123 1612.12 1123 1680.06V1934C1123 1968.79 1094.79 1997 1060 1997H616C581.206 1997 553 1968.79 553 1934V1680.06C553 1612.12 582.837 1546.81 636.22 1498.53C689.626 1450.24 762.199 1423 838 1423Z" stroke="#19154A" stroke-width="14"/>
</g>
<g filter="url(#filter8_d_1619_590)">
<path d="M4374.31 756.851C4394.83 729.727 4394.83 692.273 4374.31 665.149L4177.61 405.123C4147.2 364.924 4086.8 364.924 4056.39 405.123L3859.69 665.149C3839.17 692.273 3839.17 729.727 3859.69 756.851L4056.39 1016.88C4086.8 1057.08 4147.2 1057.08 4177.61 1016.88L4374.31 756.851Z" fill="#E681FF"/>
<path d="M4061.97 409.346C4089.58 372.85 4144.42 372.85 4172.03 409.346L4368.73 669.372C4387.36 693.998 4387.36 728.002 4368.73 752.628L4172.03 1012.65C4144.42 1049.15 4089.58 1049.15 4061.97 1012.65L3865.27 752.628C3846.64 728.002 3846.64 693.998 3865.27 669.372L4061.97 409.346Z" stroke="#3B0F46" stroke-width="14"/>
</g>
<g filter="url(#filter9_d_1619_590)">
<path d="M3022 419C2964.25 419 2907.79 436.243 2859.77 468.548C2811.75 500.853 2774.33 546.769 2752.23 600.491C2730.13 654.212 2724.34 713.326 2735.61 770.357C2746.88 827.387 2774.69 879.773 2815.52 920.89C2856.36 962.006 2908.39 990.007 2965.03 1001.35C3021.68 1012.7 3080.39 1006.87 3133.74 984.62C3187.1 962.368 3232.7 924.686 3264.79 876.338C3296.87 827.99 3314 771.147 3314 713C3314 635.026 3283.24 560.246 3228.47 505.111C3173.71 449.975 3099.44 419 3022 419ZM3022 844.075C2996.25 844.083 2971.08 836.402 2949.66 822.005C2928.25 807.607 2911.56 787.139 2901.7 763.189C2891.84 739.239 2889.25 712.883 2894.27 687.454C2899.29 662.025 2911.69 638.666 2929.89 620.33C2948.1 601.995 2971.29 589.507 2996.55 584.447C3021.8 579.386 3047.98 581.979 3071.77 591.899C3095.56 601.818 3115.89 618.619 3130.2 640.175C3144.51 661.731 3152.14 687.074 3152.14 713C3152.14 747.756 3138.43 781.089 3114.03 805.669C3089.62 830.249 3056.52 844.064 3022 844.075Z" fill="#BC7AFF"/>
<path d="M3022 426C3097.57 426 3170.06 456.226 3223.51 510.044C3276.96 563.863 3307 636.868 3307 713C3307 769.774 3290.28 825.269 3258.96 872.467C3227.63 919.664 3183.12 956.443 3131.05 978.159C3078.98 999.875 3021.68 1005.56 2966.41 994.487C2911.13 983.417 2860.35 956.091 2820.49 915.957C2780.63 875.822 2753.48 824.682 2742.48 769C2731.48 713.318 2737.12 655.603 2758.7 603.154C2780.28 550.707 2816.81 505.887 2863.68 474.356C2910.55 442.827 2965.64 426 3022 426ZM3074.46 585.438C3049.39 574.982 3021.79 572.248 2995.17 577.583C2968.55 582.918 2944.1 596.081 2924.92 615.398C2905.74 634.716 2892.69 659.321 2887.41 686.099C2882.12 712.876 2884.84 740.63 2895.22 765.854C2905.61 791.077 2923.19 812.641 2945.76 827.813C2968.32 842.986 2994.86 851.084 3022 851.075C3058.39 851.064 3093.28 836.499 3118.99 810.602C3144.71 784.705 3159.14 749.597 3159.14 713C3159.14 685.7 3151.1 659.01 3136.03 636.304C3120.96 613.597 3099.54 595.893 3074.46 585.438Z" stroke="#26103D" stroke-width="14"/>
</g>
<g filter="url(#filter10_d_1619_590)">
<path d="M2255 914C2296.97 914 2331.73 879.676 2323.86 838.445C2308.9 759.939 2270.81 687.075 2213.7 629.744C2138.59 554.354 2036.72 512 1930.5 512C1824.28 512 1722.41 554.354 1647.3 629.744C1590.19 687.075 1552.1 759.939 1537.14 838.445C1529.27 879.676 1564.03 914 1606 914H2255Z" fill="#BC7AFF"/>
<path d="M1930.5 519C2034.85 519 2134.94 560.611 2208.74 634.685C2264.86 691.015 2302.28 762.612 2316.99 839.756C2323.85 875.766 2293.56 907 2255 907H1606C1567.44 907 1537.15 875.766 1544.01 839.756C1558.72 762.612 1596.14 691.015 1652.26 634.685C1726.06 560.611 1826.15 519 1930.5 519Z" stroke="#26103D" stroke-width="14"/>
</g>
<g filter="url(#filter11_d_1619_590)">
<ellipse cx="838" cy="713" rx="292" ry="294" fill="#BC7AFF"/>
<path d="M838 426C995.356 426 1123 554.449 1123 713C1123 871.551 995.356 1000 838 1000C680.644 1000 553 871.551 553 713C553 554.449 680.644 426 838 426Z" stroke="#26103D" stroke-width="14"/>
</g>
<defs>
<filter id="filter0_d_1619_590" x="3826.95" y="2406" width="602.094" height="604.135" filterUnits="userSpaceOnUse" color-interpolation-filters="sRGB">
<feFlood flood-opacity="0" result="BackgroundImageFix"/>
<feColorMatrix in="SourceAlpha" type="matrix" values="0 0 0 0 0 0 0 0 0 0 0 0 0 0 0 0 0 0 127 0" result="hardAlpha"/>
<feOffset dx="22" dy="45"/>
<feComposite in2="hardAlpha" operator="out"/>
<feColorMatrix type="matrix" values="0 0 0 0 0.231373 0 0 0 0 0.0588235 0 0 0 0 0.27451 0 0 0 1 0"/>
<feBlend mode="normal" in2="BackgroundImageFix" result="effect1_dropShadow_1619_590"/>
<feBlend mode="normal" in="SourceGraphic" in2="effect1_dropShadow_1619_590" result="shape"/>
</filter>
<filter id="filter1_d_1619_590" x="2707.71" y="2392.25" width="639.573" height="674.503" filterUnits="userSpaceOnUse" color-interpolation-filters="sRGB">
<feFlood flood-opacity="0" result="BackgroundImageFix"/>
<feColorMatrix in="SourceAlpha" type="matrix" values="0 0 0 0 0 0 0 0 0 0 0 0 0 0 0 0 0 0 127 0" result="hardAlpha"/>
<feOffset dx="8" dy="45"/>
<feComposite in2="hardAlpha" operator="out"/>
<feColorMatrix type="matrix" values="0 0 0 0 0.231373 0 0 0 0 0.0588235 0 0 0 0 0.27451 0 0 0 1 0"/>
<feBlend mode="normal" in2="BackgroundImageFix" result="effect1_dropShadow_1619_590"/>
<feBlend mode="normal" in="SourceGraphic" in2="effect1_dropShadow_1619_590" result="shape"/>
</filter>
<filter id="filter2_d_1619_590" x="1636" y="2413" width="611.021" height="633" filterUnits="userSpaceOnUse" color-interpolation-filters="sRGB">
<feFlood flood-opacity="0" result="BackgroundImageFix"/>
<feColorMatrix in="SourceAlpha" type="matrix" values="0 0 0 0 0 0 0 0 0 0 0 0 0 0 0 0 0 0 127 0" result="hardAlpha"/>
<feOffset dx="22" dy="45"/>
<feComposite in2="hardAlpha" operator="out"/>
<feColorMatrix type="matrix" values="0 0 0 0 0.231373 0 0 0 0 0.0588235 0 0 0 0 0.27451 0 0 0 1 0"/>
<feBlend mode="normal" in2="BackgroundImageFix" result="effect1_dropShadow_1619_590"/>
<feBlend mode="normal" in="SourceGraphic" in2="effect1_dropShadow_1619_590" result="shape"/>
</filter>
<filter id="filter3_d_1619_590" x="513.912" y="2370.39" width="669.176" height="627.109" filterUnits="userSpaceOnUse" color-interpolation-filters="sRGB">
<feFlood flood-opacity="0" result="BackgroundImageFix"/>
<feColorMatrix in="SourceAlpha" type="matrix" values="0 0 0 0 0 0 0 0 0 0 0 0 0 0 0 0 0 0 127 0" result="hardAlpha"/>
<feOffset dx="22" dy="45"/>
<feComposite in2="hardAlpha" operator="out"/>
<feColorMatrix type="matrix" values="0 0 0 0 0.231373 0 0 0 0 0.0588235 0 0 0 0 0.27451 0 0 0 1 0"/>
<feBlend mode="normal" in2="BackgroundImageFix" result="effect1_dropShadow_1619_590"/>
<feBlend mode="normal" in="SourceGraphic" in2="effect1_dropShadow_1619_590" result="shape"/>
</filter>
<filter id="filter4_d_1619_590" x="3867.2" y="1407.63" width="573.723" height="599.886" filterUnits="userSpaceOnUse" color-interpolation-filters="sRGB">
<feFlood flood-opacity="0" result="BackgroundImageFix"/>
<feColorMatrix in="SourceAlpha" type="matrix" values="0 0 0 0 0 0 0 0 0 0 0 0 0 0 0 0 0 0 127 0" result="hardAlpha"/>
<feOffset dx="22" dy="45"/>
<feComposite in2="hardAlpha" operator="out"/>
<feColorMatrix type="matrix" values="0 0 0 0 0.0980392 0 0 0 0 0.0823529 0 0 0 0 0.290196 0 0 0 1 0"/>
<feBlend mode="normal" in2="BackgroundImageFix" result="effect1_dropShadow_1619_590"/>
<feBlend mode="normal" in="SourceGraphic" in2="effect1_dropShadow_1619_590" result="shape"/>
</filter>
<filter id="filter5_d_1619_590" x="2731.29" y="1423.31" width="604.702" height="628.692" filterUnits="userSpaceOnUse" color-interpolation-filters="sRGB">
<feFlood flood-opacity="0" result="BackgroundImageFix"/>
<feColorMatrix in="SourceAlpha" type="matrix" values="0 0 0 0 0 0 0 0 0 0 0 0 0 0 0 0 0 0 127 0" result="hardAlpha"/>
<feOffset dx="22" dy="45"/>
<feComposite in2="hardAlpha" operator="out"/>
<feColorMatrix type="matrix" values="0 0 0 0 0.0980392 0 0 0 0 0.0823529 0 0 0 0 0.290196 0 0 0 1 0"/>
<feBlend mode="normal" in2="BackgroundImageFix" result="effect1_dropShadow_1619_590"/>
<feBlend mode="normal" in="SourceGraphic" in2="effect1_dropShadow_1619_590" result="shape"/>
</filter>
<filter id="filter6_d_1619_590" x="1697" y="1416" width="490" height="633" filterUnits="userSpaceOnUse" color-interpolation-filters="sRGB">
<feFlood flood-opacity="0" result="BackgroundImageFix"/>
<feColorMatrix in="SourceAlpha" type="matrix" values="0 0 0 0 0 0 0 0 0 0 0 0 0 0 0 0 0 0 127 0" result="hardAlpha"/>
<feOffset dx="22" dy="45"/>
<feComposite in2="hardAlpha" operator="out"/>
<feColorMatrix type="matrix" values="0 0 0 0 0.0980392 0 0 0 0 0.0823529 0 0 0 0 0.290196 0 0 0 1 0"/>
<feBlend mode="normal" in2="BackgroundImageFix" result="effect1_dropShadow_1619_590"/>
<feBlend mode="normal" in="SourceGraphic" in2="effect1_dropShadow_1619_590" result="shape"/>
</filter>
<filter id="filter7_d_1619_590" x="546" y="1416" width="606" height="633" filterUnits="userSpaceOnUse" color-interpolation-filters="sRGB">
<feFlood flood-opacity="0" result="BackgroundImageFix"/>
<feColorMatrix in="SourceAlpha" type="matrix" values="0 0 0 0 0 0 0 0 0 0 0 0 0 0 0 0 0 0 127 0" result="hardAlpha"/>
<feOffset dx="22" dy="45"/>
<feComposite in2="hardAlpha" operator="out"/>
<feColorMatrix type="matrix" values="0 0 0 0 0.0980392 0 0 0 0 0.0823529 0 0 0 0 0.290196 0 0 0 1 0"/>
<feBlend mode="normal" in2="BackgroundImageFix" result="effect1_dropShadow_1619_590"/>
<feBlend mode="normal" in="SourceGraphic" in2="effect1_dropShadow_1619_590" result="shape"/>
</filter>
<filter id="filter8_d_1619_590" x="3844.3" y="374.974" width="567.406" height="717.053" filterUnits="userSpaceOnUse" color-interpolation-filters="sRGB">
<feFlood flood-opacity="0" result="BackgroundImageFix"/>
<feColorMatrix in="SourceAlpha" type="matrix" values="0 0 0 0 0 0 0 0 0 0 0 0 0 0 0 0 0 0 127 0" result="hardAlpha"/>
<feOffset dx="22" dy="45"/>
<feComposite in2="hardAlpha" operator="out"/>
<feColorMatrix type="matrix" values="0 0 0 0 0.116667 0 0 0 0 0.116667 0 0 0 0 0.116667 0 0 0 1 0"/>
<feBlend mode="normal" in2="BackgroundImageFix" result="effect1_dropShadow_1619_590"/>
<feBlend mode="normal" in="SourceGraphic" in2="effect1_dropShadow_1619_590" result="shape"/>
</filter>
<filter id="filter9_d_1619_590" x="2730" y="419" width="606" height="633" filterUnits="userSpaceOnUse" color-interpolation-filters="sRGB">
<feFlood flood-opacity="0" result="BackgroundImageFix"/>
<feColorMatrix in="SourceAlpha" type="matrix" values="0 0 0 0 0 0 0 0 0 0 0 0 0 0 0 0 0 0 127 0" result="hardAlpha"/>
<feOffset dx="22" dy="45"/>
<feComposite in2="hardAlpha" operator="out"/>
<feColorMatrix type="matrix" values="0 0 0 0 0.14902 0 0 0 0 0.0627451 0 0 0 0 0.239216 0 0 0 1 0"/>
<feBlend mode="normal" in2="BackgroundImageFix" result="effect1_dropShadow_1619_590"/>
<feBlend mode="normal" in="SourceGraphic" in2="effect1_dropShadow_1619_590" result="shape"/>
</filter>
<filter id="filter10_d_1619_590" x="1536.02" y="512" width="810.963" height="447" filterUnits="userSpaceOnUse" color-interpolation-filters="sRGB">
<feFlood flood-opacity="0" result="BackgroundImageFix"/>
<feColorMatrix in="SourceAlpha" type="matrix" values="0 0 0 0 0 0 0 0 0 0 0 0 0 0 0 0 0 0 127 0" result="hardAlpha"/>
<feOffset dx="22" dy="45"/>
<feComposite in2="hardAlpha" operator="out"/>
<feColorMatrix type="matrix" values="0 0 0 0 0.14902 0 0 0 0 0.0627451 0 0 0 0 0.239216 0 0 0 1 0"/>
<feBlend mode="normal" in2="BackgroundImageFix" result="effect1_dropShadow_1619_590"/>
<feBlend mode="normal" in="SourceGraphic" in2="effect1_dropShadow_1619_590" result="shape"/>
</filter>
<filter id="filter11_d_1619_590" x="546" y="419" width="606" height="633" filterUnits="userSpaceOnUse" color-interpolation-filters="sRGB">
<feFlood flood-opacity="0" result="BackgroundImageFix"/>
<feColorMatrix in="SourceAlpha" type="matrix" values="0 0 0 0 0 0 0 0 0 0 0 0 0 0 0 0 0 0 127 0" result="hardAlpha"/>
<feOffset dx="22" dy="45"/>
<feComposite in2="hardAlpha" operator="out"/>
<feColorMatrix type="matrix" values="0 0 0 0 0.14902 0 0 0 0 0.0627451 0 0 0 0 0.239216 0 0 0 1 0"/>
<feBlend mode="normal" in2="BackgroundImageFix" result="effect1_dropShadow_1619_590"/>
<feBlend mode="normal" in="SourceGraphic" in2="effect1_dropShadow_1619_590" result="shape"/>
</filter>
</defs>
</svg>
