<svg width="4944" height="3398" viewBox="0 0 4944 3398" fill="none" xmlns="http://www.w3.org/2000/svg">
<rect width="4944" height="3398" rx="340" fill="white"/>
<g filter="url(#filter0_d_1732_116)">
<path d="M4413.72 2713.69L4415.22 2711.71C4415.81 2710.91 4416.41 2710.22 4416.91 2709.42L4418.5 2706.84L4419.7 2704.76C4420.2 2703.86 4420.6 2702.97 4420.99 2702.07C4421.39 2701.18 4421.69 2700.58 4422.09 2699.79L4422.99 2697.21C4422.99 2696.31 4423.68 2695.52 4423.88 2694.73C4424.16 2693.81 4424.4 2692.88 4424.58 2691.94C4424.83 2691.13 4425.03 2690.3 4425.18 2689.46C4425.43 2688.35 4425.63 2687.22 4425.78 2686.08V2684.1C4426.07 2680.43 4426.07 2676.74 4425.78 2673.07V2670.99C4425.78 2669.9 4425.78 2668.8 4425.18 2667.71C4425.03 2666.84 4424.83 2665.98 4424.58 2665.13C4424.39 2664.22 4424.16 2663.33 4423.88 2662.45C4423.64 2661.6 4423.35 2660.77 4422.99 2659.96L4422.09 2657.28L4420.99 2655C4420.62 2654.11 4420.19 2653.25 4419.7 2652.42L4418.5 2650.23C4418.5 2649.44 4417.51 2648.54 4416.91 2647.75C4416.4 2646.95 4415.83 2646.18 4415.22 2645.46L4413.72 2643.38C4412.53 2641.99 4411.33 2640.6 4410.04 2639.31L4233 2462.82C4222.52 2452.6 4208.41 2446.91 4193.74 2447C4179.08 2447.09 4165.04 2452.94 4154.67 2463.29C4144.31 2473.63 4138.46 2487.64 4138.39 2502.26C4138.32 2516.88 4144.04 2530.94 4154.3 2541.38L4236.29 2623.02H3866.69C3851.92 2623.02 3837.76 2628.87 3827.31 2639.28C3816.87 2649.69 3811 2663.81 3811 2678.54C3811 2693.26 3816.87 2707.38 3827.31 2717.79C3837.76 2728.21 3851.92 2734.05 3866.69 2734.05H4236.29L4154.3 2815.79C4148.81 2820.87 4144.41 2827 4141.35 2833.81C4138.3 2840.63 4136.65 2847.99 4136.51 2855.45C4136.37 2862.91 4137.74 2870.33 4140.54 2877.25C4143.35 2884.17 4147.52 2890.46 4152.81 2895.74C4158.11 2901.02 4164.41 2905.18 4171.36 2907.97C4178.3 2910.76 4185.74 2912.13 4193.23 2911.99C4200.71 2911.85 4208.09 2910.21 4214.93 2907.16C4221.76 2904.11 4227.91 2899.72 4233 2894.25L4410.04 2717.77C4411.34 2716.48 4412.57 2715.12 4413.72 2713.69Z" fill="#BC7AFF"/>
<path d="M4193.78 2454C4206.6 2453.92 4218.94 2458.89 4228.1 2467.82L4405.09 2644.26C4406.11 2645.28 4407.08 2646.39 4408.22 2647.71L4409.53 2649.54L4409.71 2649.79L4409.91 2650.02C4410.31 2650.49 4410.67 2650.98 4411 2651.5L4411.15 2651.74L4411.32 2651.96C4411.48 2652.18 4411.66 2652.39 4411.8 2652.57L4412.36 2653.59L4413.56 2655.78L4413.61 2655.88L4413.67 2655.98C4414 2656.53 4414.29 2657.1 4414.53 2657.69L4414.6 2657.86L4414.68 2658.03L4415.59 2659.92L4416.35 2662.18L4416.46 2662.5L4416.59 2662.81C4416.81 2663.31 4417 2663.82 4417.14 2664.34L4417.17 2664.45L4417.21 2664.56C4417.42 2665.21 4417.59 2665.87 4417.72 2666.53L4417.78 2666.81L4417.86 2667.08C4418.03 2667.68 4418.17 2668.29 4418.28 2668.91L4418.48 2670.05L4418.77 2670.59C4418.77 2670.61 4418.78 2670.62 4418.78 2670.64C4418.78 2670.74 4418.78 2670.85 4418.78 2670.99V2673.36L4418.8 2673.64C4419.07 2676.93 4419.07 2680.24 4418.8 2683.53L4418.78 2683.81V2685.6C4418.67 2686.37 4418.53 2687.14 4418.36 2687.89L4418.32 2688.05L4418.29 2688.21C4418.19 2688.79 4418.05 2689.36 4417.88 2689.92L4417.78 2690.25L4417.71 2690.59C4417.58 2691.24 4417.42 2691.89 4417.23 2692.53C4417.19 2692.61 4417.13 2692.74 4417.07 2692.87C4416.89 2693.23 4416.39 2694.23 4416.14 2695.59L4415.62 2697.08C4415.3 2697.72 4414.99 2698.36 4414.6 2699.22C4414.19 2700.16 4413.91 2700.77 4413.58 2701.35L4412.49 2703.25L4410.98 2705.71C4410.76 2706.06 4410.65 2706.17 4410.2 2706.75L4409.62 2707.5L4408.21 2709.37C4407.25 2710.56 4406.21 2711.7 4405.12 2712.78L4405.11 2712.8L4405.09 2712.81L4228.06 2889.3L4227.97 2889.39L4227.88 2889.48C4223.43 2894.26 4218.05 2898.1 4212.08 2900.77C4206.1 2903.43 4199.64 2904.87 4193.1 2904.99C4186.55 2905.11 4180.04 2903.92 4173.97 2901.47C4167.9 2899.03 4162.38 2895.39 4157.75 2890.78C4153.13 2886.17 4149.48 2880.67 4147.03 2874.62C4144.59 2868.58 4143.39 2862.1 4143.51 2855.58C4143.63 2849.06 4145.07 2842.63 4147.74 2836.68C4150.41 2830.73 4154.26 2825.37 4159.06 2820.93L4159.15 2820.84L4159.24 2820.75L4241.23 2739.01L4253.23 2727.05H3866.69C3853.77 2727.05 3841.38 2721.94 3832.25 2712.84C3823.13 2703.74 3818 2691.4 3818 2678.54C3818 2665.68 3823.13 2653.34 3832.25 2644.24C3841.38 2635.14 3853.77 2630.02 3866.69 2630.02H4253.24L4241.23 2618.06L4159.29 2536.47C4150.32 2527.34 4145.33 2515.06 4145.39 2502.29C4145.45 2489.52 4150.56 2477.28 4159.62 2468.24C4168.68 2459.2 4180.95 2454.08 4193.78 2454Z" stroke="#26103D" stroke-width="14"/>
</g>
<g filter="url(#filter1_d_1732_116)">
<path d="M3372 2630.83C3372 2511.63 3217.08 2415 3026 2415C2834.92 2415 2680 2511.63 2680 2630.83C2680 2750.03 2834.92 2846.64 3026 2846.64C3097.16 2846.64 3100.35 2846.64 3176.91 2833.94C3197.79 2846.87 3205.69 2871.2 3208.13 2893.7C3210.59 2916.33 3233.14 2935.27 3251.65 2922.02C3321.92 2871.71 3296.17 2784.05 3296.17 2784.05C3353.5 2745.72 3372 2687.59 3372 2630.83Z" fill="#BC7AFF"/>
<path d="M3026 2422C3120.44 2422 3205.61 2445.89 3266.95 2484.16C3328.39 2522.48 3365 2574.52 3365 2630.83C3365 2686.05 3347.08 2741.59 3292.28 2778.23L3288.01 2781.09L3289.46 2786.02C3289.46 2786.02 3289.46 2786.03 3289.46 2786.04C3289.47 2786.07 3289.48 2786.11 3289.5 2786.18C3289.54 2786.32 3289.6 2786.53 3289.67 2786.82C3289.83 2787.41 3290.05 2788.3 3290.32 2789.47C3290.85 2791.81 3291.54 2795.25 3292.17 2799.55C3293.43 2808.16 3294.41 2820.14 3293.29 2833.59C3291.05 2860.42 3280.55 2892.71 3247.57 2916.33C3241.26 2920.85 3234.31 2920.18 3227.95 2915.62C3221.35 2910.9 3216.11 2902.32 3215.09 2892.95C3212.58 2869.78 3204.28 2842.66 3180.6 2827.99L3178.36 2826.61L3175.77 2827.04C3137.42 2833.4 3117.78 2836.51 3098.86 2838.07C3079.94 2839.63 3061.67 2839.64 3026 2839.64C2931.56 2839.64 2846.39 2815.75 2785.05 2777.49C2723.61 2739.18 2687 2687.14 2687 2630.83C2687 2574.52 2723.61 2522.48 2785.05 2484.16C2846.39 2445.89 2931.56 2422 3026 2422Z" stroke="#26103D" stroke-width="14"/>
</g>
<g filter="url(#filter2_d_1732_116)">
<path d="M2233 2679.37C2233 2672.78 2226.96 2667.96 2220.42 2668.77C2208.18 2670.29 2195.68 2670.93 2183 2671.35C1941.12 2679.37 1905 2607.78 1905 2392.76C1905 2386.01 1899.28 2380.54 1892.59 2381.44C1746.02 2401.21 1633 2527.06 1633 2679.37C1633 2845.4 1767.31 2980 1933 2980C2098.69 2980 2233 2845.4 2233 2679.37Z" fill="#BC7AFF"/>
<path d="M1893.53 2388.38C1895.61 2388.09 1898 2389.83 1898 2392.76C1898 2446.63 1900.25 2491.96 1907.55 2529.47C1914.86 2567.03 1927.32 2597.22 1948.09 2620.37C1989.68 2666.73 2062.26 2682.36 2183.23 2678.35C2195.98 2677.92 2208.72 2677.27 2221.28 2675.71C2224.1 2675.36 2226 2677.43 2226 2679.37C2226 2841.55 2094.81 2973 1933 2973C1771.19 2973 1640 2841.55 1640 2679.37C1640 2530.6 1750.39 2407.69 1893.53 2388.38Z" stroke="#26103D" stroke-width="14"/>
</g>
<g filter="url(#filter3_d_1732_116)">
<mask id="path-8-inside-1_1732_116" fill="white">
<path fill-rule="evenodd" clip-rule="evenodd" d="M794.145 2451C689.299 2451 602.746 2529.15 589.501 2630.35C588.57 2637.47 583.865 2643.55 577.317 2646.49C529.386 2668 496 2716.15 496 2772.09C496 2848.08 557.61 2909.69 633.599 2909.69C633.599 2909.69 633.6 2909.69 633.6 2909.69C633.6 2909.69 633.6 2909.69 633.6 2909.69H1000.54C1000.54 2909.69 1000.54 2909.69 1000.54 2909.69C1000.54 2909.69 1000.54 2909.69 1000.54 2909.69C1101.86 2909.69 1184 2827.55 1184 2726.2C1184 2624.88 1101.86 2542.74 1000.54 2542.74C993.459 2542.74 986.468 2543.15 979.592 2543.93C972.368 2544.75 965.205 2541.65 960.917 2535.78C923.374 2484.39 862.655 2451 794.145 2451Z"/>
</mask>
<path fill-rule="evenodd" clip-rule="evenodd" d="M794.145 2451C689.299 2451 602.746 2529.15 589.501 2630.35C588.57 2637.47 583.865 2643.55 577.317 2646.49C529.386 2668 496 2716.15 496 2772.09C496 2848.08 557.61 2909.69 633.599 2909.69C633.599 2909.69 633.6 2909.69 633.6 2909.69C633.6 2909.69 633.6 2909.69 633.6 2909.69H1000.54C1000.54 2909.69 1000.54 2909.69 1000.54 2909.69C1000.54 2909.69 1000.54 2909.69 1000.54 2909.69C1101.86 2909.69 1184 2827.55 1184 2726.2C1184 2624.88 1101.86 2542.74 1000.54 2542.74C993.459 2542.74 986.468 2543.15 979.592 2543.93C972.368 2544.75 965.205 2541.65 960.917 2535.78C923.374 2484.39 862.655 2451 794.145 2451Z" fill="#BC7AFF"/>
<path d="M960.917 2535.78L949.612 2544.03L960.917 2535.78ZM633.599 2909.69L633.599 2895.69L633.599 2909.69ZM577.317 2646.49L571.584 2633.72L577.317 2646.49ZM603.383 2632.17C615.728 2537.84 696.421 2465 794.145 2465V2437C682.176 2437 589.765 2520.45 575.62 2628.53L603.383 2632.17ZM510 2772.09C510 2721.86 539.965 2678.6 583.05 2659.26L571.584 2633.72C518.808 2657.41 482 2710.44 482 2772.09H510ZM633.599 2895.69C565.342 2895.69 510 2840.35 510 2772.09H482C482 2855.81 549.878 2923.69 633.599 2923.69L633.599 2895.69ZM1000.54 2895.69H633.6V2923.69H1000.54V2895.69ZM1000.54 2895.69V2923.69V2895.69ZM1170 2726.2C1170 2819.82 1094.13 2895.69 1000.54 2895.69V2923.69C1109.6 2923.69 1198 2835.28 1198 2726.2H1170ZM1000.54 2556.74C1094.13 2556.74 1170 2632.61 1170 2726.2H1198C1198 2617.15 1109.6 2528.74 1000.54 2528.74V2556.74ZM981.173 2557.84C987.525 2557.12 993.988 2556.74 1000.54 2556.74V2528.74C992.93 2528.74 985.411 2529.18 978.011 2530.02L981.173 2557.84ZM794.145 2465C857.997 2465 914.591 2496.1 949.612 2544.03L972.221 2527.52C932.156 2472.68 867.313 2437 794.145 2437V2465ZM978.011 2530.02C975.73 2530.28 973.509 2529.28 972.221 2527.52L949.612 2544.03C956.902 2554.01 969.007 2559.22 981.173 2557.84L978.011 2530.02ZM1014.54 2909.69C1014.54 2917.42 1008.28 2923.69 1000.54 2923.69V2895.69C992.812 2895.69 986.544 2901.96 986.544 2909.69H1014.54ZM619.6 2909.69C619.6 2917.73 626.18 2923.69 633.6 2923.69V2895.69C641.019 2895.69 647.6 2901.65 647.6 2909.69H619.6ZM633.599 2923.69C625.973 2923.69 619.6 2917.53 619.6 2909.69H647.6C647.6 2901.85 641.225 2895.69 633.599 2895.69L633.599 2923.69ZM1000.54 2923.69C1008.28 2923.69 1014.54 2917.42 1014.54 2909.69H986.544C986.544 2901.96 992.812 2895.69 1000.54 2895.69V2923.69ZM575.62 2628.53C575.347 2630.62 573.903 2632.68 571.584 2633.72L583.05 2659.26C593.828 2654.42 601.792 2644.32 603.383 2632.17L575.62 2628.53Z" fill="#26103D" mask="url(#path-8-inside-1_1732_116)"/>
</g>
<g filter="url(#filter4_d_1732_116)">
<path d="M4059.65 1486.53C3999.89 1435.09 3909.77 1441.91 3858.42 1501.76C3807.14 1561.53 3813.94 1651.59 3873.62 1702.97L4116.07 1911.68C4116.52 1912.07 4116.95 1912.5 4117.34 1912.96L4118.66 1914.5C4118.82 1914.74 4119.18 1914.74 4119.34 1914.5L4120.66 1912.96C4121.05 1912.5 4121.48 1912.07 4121.93 1911.68L4364.38 1702.97C4424.06 1651.59 4430.86 1561.53 4379.58 1501.76C4328.23 1441.91 4238.11 1435.09 4178.35 1486.53L4126.83 1530.88C4122.33 1534.76 4115.67 1534.76 4111.17 1530.88L4059.65 1486.53Z" fill="#8D83FF"/>
<path d="M4182.92 1491.83C4239.74 1442.92 4325.44 1449.4 4374.27 1506.31C4423.04 1563.16 4416.57 1648.8 4359.81 1697.66L4119 1904.97L3878.19 1697.66C3821.43 1648.8 3814.96 1563.16 3863.73 1506.31C3912.56 1449.4 3998.26 1442.92 4055.08 1491.83L4106.6 1536.19C4113.73 1542.32 4124.27 1542.32 4131.4 1536.19L4182.92 1491.83Z" stroke="#19154A" stroke-width="14"/>
</g>
<g filter="url(#filter5_d_1732_116)">
<path d="M3001.56 1377.93C3012.13 1360.93 3036.87 1360.93 3047.44 1377.93L3094.41 1453.57C3100.56 1463.47 3112.36 1468.3 3123.69 1465.57L3212.27 1444.15C3232.1 1439.35 3249.88 1457.43 3244.75 1477.18L3223.31 1559.73C3220.26 1571.47 3225.42 1583.81 3235.93 1589.89L3311.57 1633.63C3329.55 1644.02 3329.55 1669.98 3311.57 1680.37L3235.93 1724.11C3225.42 1730.19 3220.26 1742.53 3223.31 1754.27L3244.75 1836.82C3249.88 1856.57 3232.1 1874.65 3212.27 1869.85L3123.69 1848.43C3112.36 1845.7 3100.56 1850.53 3094.41 1860.43L3047.44 1936.07C3036.87 1953.07 3012.13 1953.07 3001.56 1936.07L2954.59 1860.43C2948.44 1850.53 2936.64 1845.7 2925.31 1848.43L2836.73 1869.85C2816.9 1874.65 2799.12 1856.57 2804.25 1836.82L2825.69 1754.27C2828.74 1742.53 2823.58 1730.19 2813.07 1724.11L2737.43 1680.37C2719.45 1669.98 2719.45 1644.02 2737.43 1633.63L2813.07 1589.89C2823.58 1583.81 2828.74 1571.47 2825.69 1559.73L2804.25 1477.18C2799.12 1457.43 2816.9 1439.35 2836.73 1444.15L2925.31 1465.57C2936.64 1468.3 2948.44 1463.47 2954.59 1453.57L3001.56 1377.93Z" fill="#8D83FF"/>
<path d="M3007.51 1381.63C3015.33 1369.03 3033.67 1369.03 3041.49 1381.63L3088.46 1457.26C3096.2 1469.73 3111.07 1475.82 3125.34 1472.37L3213.91 1450.95C3228.6 1447.4 3241.77 1460.79 3237.97 1475.42L3216.53 1557.97C3212.69 1572.76 3219.19 1588.3 3232.42 1595.95L3308.07 1639.69C3321.39 1647.39 3321.39 1666.61 3308.07 1674.31L3232.42 1718.05C3219.19 1725.7 3212.69 1741.24 3216.53 1756.03L3237.97 1838.58C3241.77 1853.21 3228.6 1866.6 3213.91 1863.05L3125.34 1841.63C3111.07 1838.18 3096.2 1844.27 3088.46 1856.74L3041.49 1932.37C3033.67 1944.97 3015.33 1944.97 3007.51 1932.37L2960.54 1856.74C2952.92 1844.47 2938.39 1838.37 2924.33 1841.48L2923.66 1841.63L2835.09 1863.05C2820.4 1866.6 2807.23 1853.21 2811.03 1838.58L2832.47 1756.03C2836.31 1741.24 2829.81 1725.7 2816.58 1718.05L2740.93 1674.31C2727.61 1666.61 2727.61 1647.39 2740.93 1639.69L2816.58 1595.95C2829.81 1588.3 2836.31 1572.76 2832.47 1557.97L2811.03 1475.42C2807.23 1460.79 2820.4 1447.4 2835.09 1450.95L2923.66 1472.37C2937.93 1475.82 2952.8 1469.73 2960.54 1457.26L3007.51 1381.63Z" stroke="#19154A" stroke-width="14"/>
</g>
<g filter="url(#filter6_d_1732_116)">
<path d="M1621.68 1637.58C1602.22 1640.79 1601.58 1671.26 1620.89 1675.25C1784.99 1709.19 1856.37 1756.53 1895.93 1930.1C1900.41 1949.74 1935.59 1949.44 1939.22 1929.62C1970.81 1757.38 2022.4 1705.75 2194.62 1674.19C2214.43 1670.56 2214.44 1637.41 2194.62 1633.78C2022.38 1602.19 1970.75 1550.6 1939.19 1378.38C1935.56 1358.57 1902.41 1358.56 1898.78 1378.38C1865.9 1557.65 1811.36 1606.26 1621.68 1637.58Z" fill="#8D83FF"/>
<path d="M1918.98 1370.52C1926.11 1370.52 1931.31 1374.2 1932.31 1379.64C1948.14 1466.06 1969.24 1523.82 2009.2 1563.77C2049.16 1603.72 2106.94 1624.81 2193.36 1640.66C2198.8 1641.66 2202.48 1646.86 2202.48 1653.98C2202.48 1661.11 2198.8 1666.31 2193.36 1667.31C2106.94 1683.14 2049.18 1704.24 2009.23 1744.2C1969.28 1784.16 1948.19 1841.94 1932.34 1928.36C1931.38 1933.59 1925.91 1937.58 1917.82 1937.66C1909.74 1937.74 1903.96 1933.84 1902.75 1928.54C1882.82 1841.07 1854.6 1784.2 1809.71 1745.04C1764.98 1706.01 1704.58 1685.41 1622.31 1668.4C1616.83 1667.26 1613.62 1662.39 1613.75 1656.27C1613.87 1650.15 1617.29 1645.4 1622.82 1644.49C1717.81 1628.8 1780.7 1608.58 1823.79 1568.59C1866.99 1528.5 1889.17 1469.59 1905.66 1379.64C1906.66 1374.2 1911.86 1370.52 1918.98 1370.52Z" stroke="#19154A" stroke-width="14"/>
</g>
<g filter="url(#filter7_d_1732_116)">
<path d="M1061.63 1582.57C1060.5 1580.5 1058.82 1578.79 1056.79 1577.6C1054.75 1576.42 1052.43 1575.81 1050.08 1575.85L856.8 1580.1L950.919 1354.79C951.755 1352.84 952.084 1350.72 951.877 1348.61C951.67 1346.5 950.933 1344.48 949.734 1342.73C948.578 1340.96 946.995 1339.51 945.131 1338.51C943.268 1337.5 941.183 1336.99 939.068 1337H690.188C687.111 1336.97 684.125 1338.05 681.783 1340.05C679.441 1342.05 677.901 1344.82 677.448 1347.87L617.104 1737.03C616.877 1738.79 617.023 1740.58 617.533 1742.28C618.044 1743.98 618.907 1745.56 620.067 1746.91C621.276 1748.35 622.789 1749.5 624.497 1750.29C626.204 1751.07 628.064 1751.47 629.943 1751.45H806.332L751.223 2008.39C750.79 2010.27 750.788 2012.22 751.218 2014.1C751.649 2015.98 752.499 2017.74 753.707 2019.24C754.914 2020.74 756.447 2021.95 758.19 2022.78C759.932 2023.6 761.838 2024.02 763.766 2024C765.869 2024.01 767.941 2023.5 769.801 2022.51C771.661 2021.53 773.251 2020.11 774.432 2018.37L1060.84 1595.42C1062.1 1593.54 1062.84 1591.36 1062.98 1589.1C1063.11 1586.84 1062.65 1584.59 1061.63 1582.57Z" fill="#8D83FF"/>
<path d="M690.112 1344L690.15 1344H939.113C940.056 1343.99 940.987 1344.22 941.818 1344.67C942.65 1345.12 943.357 1345.77 943.873 1346.56L943.917 1346.63L943.963 1346.69C944.493 1347.47 944.819 1348.36 944.911 1349.29C945.003 1350.22 944.857 1351.17 944.487 1352.03L944.46 1352.09L850.341 1577.4L846.191 1587.33L856.953 1587.1L1050.19 1582.85L1050.19 1582.85C1051.27 1582.83 1052.33 1583.11 1053.27 1583.65C1054.17 1584.18 1054.91 1584.93 1055.43 1585.83C1055.86 1586.71 1056.05 1587.69 1055.99 1588.67C1055.93 1589.68 1055.6 1590.66 1055.03 1591.51L768.639 2014.44C768.101 2015.23 767.377 2015.88 766.532 2016.32C765.687 2016.77 764.745 2017 763.789 2017H763.742L763.695 2017C762.828 2017.01 761.969 2016.82 761.185 2016.45C760.399 2016.08 759.708 2015.53 759.164 2014.85C758.62 2014.18 758.236 2013.38 758.042 2012.54C757.848 2011.69 757.848 2010.81 758.044 2009.96L758.057 2009.91L758.067 2009.85L813.176 1752.92L814.992 1744.45H629.876C629.03 1744.46 628.192 1744.28 627.423 1743.93C626.654 1743.57 625.973 1743.05 625.428 1742.41L625.399 1742.37L625.37 1742.34L625.182 1742.11C624.758 1741.56 624.438 1740.94 624.238 1740.27C624.013 1739.52 623.947 1738.73 624.043 1737.96L684.365 1348.94L684.368 1348.92L684.372 1348.9C684.576 1347.53 685.27 1346.27 686.326 1345.37C687.382 1344.47 688.727 1343.98 690.112 1344Z" stroke="#19154A" stroke-width="14"/>
</g>
<g filter="url(#filter8_d_1732_116)">
<mask id="path-18-inside-2_1732_116" fill="white">
<path d="M4406.68 708.54L4381.34 724.121C4377.95 726.166 4375.01 728.896 4372.69 732.145C4370.37 735.394 4368.72 739.093 4367.85 743.016C4366.97 746.939 4366.89 751.002 4367.6 754.959C4368.31 758.916 4369.81 762.684 4371.99 766.03L4388.18 791.273C4391.01 795.559 4392.69 800.529 4393.06 805.688C4393.42 810.847 4392.46 816.014 4390.27 820.673C4388.07 825.333 4384.72 829.323 4380.55 832.245C4376.38 835.166 4371.54 836.918 4366.5 837.325L4337.16 840.037C4333.23 840.373 4329.42 841.524 4325.95 843.421C4322.48 845.318 4319.42 847.921 4316.97 851.069C4314.52 854.217 4312.72 857.844 4311.68 861.729C4310.64 865.614 4310.39 869.674 4310.95 873.662L4314.85 903.59C4315.59 908.707 4315 913.931 4313.14 918.743C4311.29 923.554 4308.24 927.785 4304.29 931.012C4300.34 934.24 4295.64 936.352 4290.64 937.138C4285.65 937.924 4280.54 937.355 4275.82 935.49L4248.12 924.939C4244.45 923.509 4240.53 922.858 4236.61 923.029C4232.68 923.2 4228.83 924.188 4225.29 925.932C4221.75 927.677 4218.6 930.141 4216.02 933.174C4213.44 936.208 4211.5 939.748 4210.3 943.577L4201.1 972.271C4199.58 977.201 4196.84 981.641 4193.13 985.146C4189.42 988.653 4184.88 991.104 4179.96 992.256C4175.04 993.408 4169.91 993.219 4165.08 991.712C4160.25 990.204 4155.89 987.429 4152.44 983.661L4132.01 961.869C4129.31 958.944 4126.05 956.614 4122.44 955.022C4118.82 953.43 4114.93 952.608 4111 952.608C4107.07 952.608 4103.18 953.43 4099.56 955.022C4095.95 956.614 4092.69 958.944 4089.99 961.869L4069.56 983.661C4066.11 987.429 4061.75 990.204 4056.92 991.712C4052.09 993.219 4046.96 993.408 4042.04 992.256C4037.12 991.104 4032.58 988.653 4028.87 985.146C4025.16 981.641 4022.42 977.201 4020.9 972.271L4011.7 943.577C4010.5 939.748 4008.56 936.208 4005.98 933.174C4003.4 930.141 4000.25 927.677 3996.71 925.932C3993.17 924.188 3989.32 923.2 3985.39 923.029C3981.47 922.858 3977.55 923.509 3973.88 924.939L3946.18 935.49C3941.46 937.355 3936.35 937.924 3931.36 937.138C3926.36 936.352 3921.66 934.24 3917.71 931.012C3913.76 927.785 3910.71 923.554 3908.86 918.743C3907 913.931 3906.41 908.707 3907.15 903.59L3911.05 873.662C3911.61 869.674 3911.36 865.614 3910.32 861.729C3909.28 857.844 3907.48 854.217 3905.03 851.069C3902.58 847.921 3899.52 845.318 3896.05 843.421C3892.58 841.524 3888.77 840.373 3884.84 840.037L3855.5 837.275C3850.46 836.868 3845.62 835.117 3841.45 832.195C3837.28 829.274 3833.93 825.284 3831.73 820.624C3829.54 815.964 3828.58 810.797 3828.94 805.639C3829.31 800.48 3830.99 795.51 3833.82 791.224L3850.01 766.03C3852.19 762.684 3853.69 758.916 3854.4 754.959C3855.11 751.002 3855.03 746.939 3854.15 743.016C3853.28 739.093 3851.63 735.394 3849.31 732.145C3846.99 728.896 3844.05 726.166 3840.66 724.121L3815.32 708.54C3810.96 705.933 3807.35 702.204 3804.83 697.723C3802.32 693.242 3801 688.166 3801 683C3801 677.834 3802.32 672.758 3804.83 668.277C3807.35 663.796 3810.96 660.067 3815.32 657.46L3840.66 641.879C3844.05 639.834 3846.99 637.104 3849.31 633.855C3851.63 630.606 3853.28 626.907 3854.15 622.984C3855.03 619.061 3855.11 614.998 3854.4 611.041C3853.69 607.084 3852.19 603.316 3850.01 599.97L3833.82 574.727C3830.99 570.441 3829.31 565.471 3828.94 560.312C3828.58 555.153 3829.54 549.986 3831.73 545.327C3833.93 540.667 3837.28 536.677 3841.45 533.755C3845.62 530.834 3850.46 529.082 3855.5 528.675L3884.84 525.963C3888.77 525.627 3892.58 524.476 3896.05 522.579C3899.52 520.682 3902.58 518.079 3905.03 514.931C3907.48 511.783 3909.28 508.156 3910.32 504.271C3911.36 500.386 3911.61 496.326 3911.05 492.338L3907.15 462.41C3906.41 457.293 3907 452.069 3908.86 447.257C3910.71 442.446 3913.76 438.215 3917.71 434.988C3921.66 431.76 3926.36 429.648 3931.36 428.862C3936.35 428.076 3941.46 428.645 3946.18 430.51L3973.88 441.061C3977.55 442.491 3981.47 443.142 3985.39 442.971C3989.32 442.8 3993.17 441.812 3996.71 440.068C4000.25 438.323 4003.4 435.86 4005.98 432.826C4008.56 429.792 4010.5 426.252 4011.7 422.423L4020.9 393.729C4022.42 388.799 4025.16 384.36 4028.87 380.853C4032.58 377.347 4037.12 374.896 4042.04 373.744C4046.96 372.592 4052.09 372.781 4056.92 374.288C4061.75 375.796 4066.11 378.571 4069.56 382.339L4089.99 404.131C4092.69 407.056 4095.95 409.386 4099.56 410.978C4103.18 412.57 4107.07 413.392 4111 413.392C4114.93 413.392 4118.82 412.57 4122.44 410.978C4126.05 409.386 4129.31 407.056 4132.01 404.131L4152.44 382.339C4155.89 378.571 4160.25 375.796 4165.08 374.288C4169.91 372.781 4175.04 372.592 4179.96 373.744C4184.88 374.896 4189.42 377.347 4193.13 380.853C4196.84 384.36 4199.58 388.799 4201.1 393.729L4210.3 422.423C4211.5 426.252 4213.44 429.792 4216.02 432.826C4218.6 435.86 4221.75 438.323 4225.29 440.068C4228.83 441.812 4232.68 442.8 4236.61 442.971C4240.53 443.142 4244.45 442.491 4248.12 441.061L4275.82 430.51C4280.54 428.645 4285.65 428.076 4290.64 428.862C4295.64 429.648 4300.34 431.76 4304.29 434.988C4308.24 438.215 4311.29 442.446 4313.14 447.257C4315 452.069 4315.59 457.293 4314.85 462.41L4310.95 492.338C4310.39 496.326 4310.64 500.386 4311.68 504.271C4312.72 508.156 4314.52 511.783 4316.97 514.931C4319.42 518.079 4322.48 520.682 4325.95 522.579C4329.42 524.476 4333.23 525.627 4337.16 525.963L4366.5 528.725C4371.54 529.132 4376.38 530.883 4380.55 533.805C4384.72 536.726 4388.07 540.716 4390.27 545.376C4392.46 550.036 4393.42 555.203 4393.06 560.361C4392.69 565.52 4391.01 570.49 4388.18 574.776L4371.99 599.97C4369.81 603.316 4368.31 607.084 4367.6 611.041C4366.89 614.998 4366.97 619.061 4367.85 622.984C4368.72 626.907 4370.37 630.606 4372.69 633.855C4375.01 637.104 4377.95 639.834 4381.34 641.879L4406.68 657.46C4411.04 660.067 4414.65 663.796 4417.17 668.277C4419.68 672.758 4421 677.834 4421 683C4421 688.166 4419.68 693.242 4417.17 697.723C4414.65 702.204 4411.04 705.933 4406.68 708.54Z"/>
</mask>
<path d="M4406.68 708.54L4381.34 724.121C4377.95 726.166 4375.01 728.896 4372.69 732.145C4370.37 735.394 4368.72 739.093 4367.85 743.016C4366.97 746.939 4366.89 751.002 4367.6 754.959C4368.31 758.916 4369.81 762.684 4371.99 766.03L4388.18 791.273C4391.01 795.559 4392.69 800.529 4393.06 805.688C4393.42 810.847 4392.46 816.014 4390.27 820.673C4388.07 825.333 4384.72 829.323 4380.55 832.245C4376.38 835.166 4371.54 836.918 4366.5 837.325L4337.16 840.037C4333.23 840.373 4329.42 841.524 4325.95 843.421C4322.48 845.318 4319.42 847.921 4316.97 851.069C4314.52 854.217 4312.72 857.844 4311.68 861.729C4310.64 865.614 4310.39 869.674 4310.95 873.662L4314.85 903.59C4315.59 908.707 4315 913.931 4313.14 918.743C4311.29 923.554 4308.24 927.785 4304.29 931.012C4300.34 934.24 4295.64 936.352 4290.64 937.138C4285.65 937.924 4280.54 937.355 4275.82 935.49L4248.12 924.939C4244.45 923.509 4240.53 922.858 4236.61 923.029C4232.68 923.2 4228.83 924.188 4225.29 925.932C4221.75 927.677 4218.6 930.141 4216.02 933.174C4213.44 936.208 4211.5 939.748 4210.3 943.577L4201.1 972.271C4199.58 977.201 4196.84 981.641 4193.13 985.146C4189.42 988.653 4184.88 991.104 4179.96 992.256C4175.04 993.408 4169.91 993.219 4165.08 991.712C4160.25 990.204 4155.89 987.429 4152.44 983.661L4132.01 961.869C4129.31 958.944 4126.05 956.614 4122.44 955.022C4118.82 953.43 4114.93 952.608 4111 952.608C4107.07 952.608 4103.18 953.43 4099.56 955.022C4095.95 956.614 4092.69 958.944 4089.99 961.869L4069.56 983.661C4066.11 987.429 4061.75 990.204 4056.92 991.712C4052.09 993.219 4046.96 993.408 4042.04 992.256C4037.12 991.104 4032.58 988.653 4028.87 985.146C4025.16 981.641 4022.42 977.201 4020.9 972.271L4011.7 943.577C4010.5 939.748 4008.56 936.208 4005.98 933.174C4003.4 930.141 4000.25 927.677 3996.71 925.932C3993.17 924.188 3989.32 923.2 3985.39 923.029C3981.47 922.858 3977.55 923.509 3973.88 924.939L3946.18 935.49C3941.46 937.355 3936.35 937.924 3931.36 937.138C3926.36 936.352 3921.66 934.24 3917.71 931.012C3913.76 927.785 3910.71 923.554 3908.86 918.743C3907 913.931 3906.41 908.707 3907.15 903.59L3911.05 873.662C3911.61 869.674 3911.36 865.614 3910.32 861.729C3909.28 857.844 3907.48 854.217 3905.03 851.069C3902.58 847.921 3899.52 845.318 3896.05 843.421C3892.58 841.524 3888.77 840.373 3884.84 840.037L3855.5 837.275C3850.46 836.868 3845.62 835.117 3841.45 832.195C3837.28 829.274 3833.93 825.284 3831.73 820.624C3829.54 815.964 3828.58 810.797 3828.94 805.639C3829.31 800.48 3830.99 795.51 3833.82 791.224L3850.01 766.03C3852.19 762.684 3853.69 758.916 3854.4 754.959C3855.11 751.002 3855.03 746.939 3854.15 743.016C3853.28 739.093 3851.63 735.394 3849.31 732.145C3846.99 728.896 3844.05 726.166 3840.66 724.121L3815.32 708.54C3810.96 705.933 3807.35 702.204 3804.83 697.723C3802.32 693.242 3801 688.166 3801 683C3801 677.834 3802.32 672.758 3804.83 668.277C3807.35 663.796 3810.96 660.067 3815.32 657.46L3840.66 641.879C3844.05 639.834 3846.99 637.104 3849.31 633.855C3851.63 630.606 3853.28 626.907 3854.15 622.984C3855.03 619.061 3855.11 614.998 3854.4 611.041C3853.69 607.084 3852.19 603.316 3850.01 599.97L3833.82 574.727C3830.99 570.441 3829.31 565.471 3828.94 560.312C3828.58 555.153 3829.54 549.986 3831.73 545.327C3833.93 540.667 3837.28 536.677 3841.45 533.755C3845.62 530.834 3850.46 529.082 3855.5 528.675L3884.84 525.963C3888.77 525.627 3892.58 524.476 3896.05 522.579C3899.52 520.682 3902.58 518.079 3905.03 514.931C3907.48 511.783 3909.28 508.156 3910.32 504.271C3911.36 500.386 3911.61 496.326 3911.05 492.338L3907.15 462.41C3906.41 457.293 3907 452.069 3908.86 447.257C3910.71 442.446 3913.76 438.215 3917.71 434.988C3921.66 431.76 3926.36 429.648 3931.36 428.862C3936.35 428.076 3941.46 428.645 3946.18 430.51L3973.88 441.061C3977.55 442.491 3981.47 443.142 3985.39 442.971C3989.32 442.8 3993.17 441.812 3996.71 440.068C4000.25 438.323 4003.4 435.86 4005.98 432.826C4008.56 429.792 4010.5 426.252 4011.7 422.423L4020.9 393.729C4022.42 388.799 4025.16 384.36 4028.87 380.853C4032.58 377.347 4037.12 374.896 4042.04 373.744C4046.96 372.592 4052.09 372.781 4056.92 374.288C4061.75 375.796 4066.11 378.571 4069.56 382.339L4089.99 404.131C4092.69 407.056 4095.95 409.386 4099.56 410.978C4103.18 412.57 4107.07 413.392 4111 413.392C4114.93 413.392 4118.82 412.57 4122.44 410.978C4126.05 409.386 4129.31 407.056 4132.01 404.131L4152.44 382.339C4155.89 378.571 4160.25 375.796 4165.08 374.288C4169.91 372.781 4175.04 372.592 4179.96 373.744C4184.88 374.896 4189.42 377.347 4193.13 380.853C4196.84 384.36 4199.58 388.799 4201.1 393.729L4210.3 422.423C4211.5 426.252 4213.44 429.792 4216.02 432.826C4218.6 435.86 4221.75 438.323 4225.29 440.068C4228.83 441.812 4232.68 442.8 4236.61 442.971C4240.53 443.142 4244.45 442.491 4248.12 441.061L4275.82 430.51C4280.54 428.645 4285.65 428.076 4290.64 428.862C4295.64 429.648 4300.34 431.76 4304.29 434.988C4308.24 438.215 4311.29 442.446 4313.14 447.257C4315 452.069 4315.59 457.293 4314.85 462.41L4310.95 492.338C4310.39 496.326 4310.64 500.386 4311.68 504.271C4312.72 508.156 4314.52 511.783 4316.97 514.931C4319.42 518.079 4322.48 520.682 4325.95 522.579C4329.42 524.476 4333.23 525.627 4337.16 525.963L4366.5 528.725C4371.54 529.132 4376.38 530.883 4380.55 533.805C4384.72 536.726 4388.07 540.716 4390.27 545.376C4392.46 550.036 4393.42 555.203 4393.06 560.361C4392.69 565.52 4391.01 570.49 4388.18 574.776L4371.99 599.97C4369.81 603.316 4368.31 607.084 4367.6 611.041C4366.89 614.998 4366.97 619.061 4367.85 622.984C4368.72 626.907 4370.37 630.606 4372.69 633.855C4375.01 637.104 4377.95 639.834 4381.34 641.879L4406.68 657.46C4411.04 660.067 4414.65 663.796 4417.17 668.277C4419.68 672.758 4421 677.834 4421 683C4421 688.166 4419.68 693.242 4417.17 697.723C4414.65 702.204 4411.04 705.933 4406.68 708.54Z" fill="#E681FF"/>
<path d="M4406.68 708.54L4381.34 724.121C4377.95 726.166 4375.01 728.896 4372.69 732.145C4370.37 735.394 4368.72 739.093 4367.85 743.016C4366.97 746.939 4366.89 751.002 4367.6 754.959C4368.31 758.916 4369.81 762.684 4371.99 766.03L4388.18 791.273C4391.01 795.559 4392.69 800.529 4393.06 805.688C4393.42 810.847 4392.46 816.014 4390.27 820.673C4388.07 825.333 4384.72 829.323 4380.55 832.245C4376.38 835.166 4371.54 836.918 4366.5 837.325L4337.16 840.037C4333.23 840.373 4329.42 841.524 4325.95 843.421C4322.48 845.318 4319.42 847.921 4316.97 851.069C4314.52 854.217 4312.72 857.844 4311.68 861.729C4310.64 865.614 4310.39 869.674 4310.95 873.662L4314.85 903.59C4315.59 908.707 4315 913.931 4313.14 918.743C4311.29 923.554 4308.24 927.785 4304.29 931.012C4300.34 934.24 4295.64 936.352 4290.64 937.138C4285.65 937.924 4280.54 937.355 4275.82 935.49L4248.12 924.939C4244.45 923.509 4240.53 922.858 4236.61 923.029C4232.68 923.2 4228.83 924.188 4225.29 925.932C4221.75 927.677 4218.6 930.141 4216.02 933.174C4213.44 936.208 4211.5 939.748 4210.3 943.577L4201.1 972.271C4199.58 977.201 4196.84 981.641 4193.13 985.146C4189.42 988.653 4184.88 991.104 4179.96 992.256C4175.04 993.408 4169.91 993.219 4165.08 991.712C4160.25 990.204 4155.89 987.429 4152.44 983.661L4132.01 961.869C4129.31 958.944 4126.05 956.614 4122.44 955.022C4118.82 953.43 4114.93 952.608 4111 952.608C4107.07 952.608 4103.18 953.43 4099.56 955.022C4095.95 956.614 4092.69 958.944 4089.99 961.869L4069.56 983.661C4066.11 987.429 4061.75 990.204 4056.92 991.712C4052.09 993.219 4046.96 993.408 4042.04 992.256C4037.12 991.104 4032.58 988.653 4028.87 985.146C4025.16 981.641 4022.42 977.201 4020.9 972.271L4011.7 943.577C4010.5 939.748 4008.56 936.208 4005.98 933.174C4003.4 930.141 4000.25 927.677 3996.71 925.932C3993.17 924.188 3989.32 923.2 3985.39 923.029C3981.47 922.858 3977.55 923.509 3973.88 924.939L3946.18 935.49C3941.46 937.355 3936.35 937.924 3931.36 937.138C3926.36 936.352 3921.66 934.24 3917.71 931.012C3913.76 927.785 3910.71 923.554 3908.86 918.743C3907 913.931 3906.41 908.707 3907.15 903.59L3911.05 873.662C3911.61 869.674 3911.36 865.614 3910.32 861.729C3909.28 857.844 3907.48 854.217 3905.03 851.069C3902.58 847.921 3899.52 845.318 3896.05 843.421C3892.58 841.524 3888.77 840.373 3884.84 840.037L3855.5 837.275C3850.46 836.868 3845.62 835.117 3841.45 832.195C3837.28 829.274 3833.93 825.284 3831.73 820.624C3829.54 815.964 3828.58 810.797 3828.94 805.639C3829.31 800.48 3830.99 795.51 3833.82 791.224L3850.01 766.03C3852.19 762.684 3853.69 758.916 3854.4 754.959C3855.11 751.002 3855.03 746.939 3854.15 743.016C3853.28 739.093 3851.63 735.394 3849.31 732.145C3846.99 728.896 3844.05 726.166 3840.66 724.121L3815.32 708.54C3810.96 705.933 3807.35 702.204 3804.83 697.723C3802.32 693.242 3801 688.166 3801 683C3801 677.834 3802.32 672.758 3804.83 668.277C3807.35 663.796 3810.96 660.067 3815.32 657.46L3840.66 641.879C3844.05 639.834 3846.99 637.104 3849.31 633.855C3851.63 630.606 3853.28 626.907 3854.15 622.984C3855.03 619.061 3855.11 614.998 3854.4 611.041C3853.69 607.084 3852.19 603.316 3850.01 599.97L3833.82 574.727C3830.99 570.441 3829.31 565.471 3828.94 560.312C3828.58 555.153 3829.54 549.986 3831.73 545.327C3833.93 540.667 3837.28 536.677 3841.45 533.755C3845.62 530.834 3850.46 529.082 3855.5 528.675L3884.84 525.963C3888.77 525.627 3892.58 524.476 3896.05 522.579C3899.52 520.682 3902.58 518.079 3905.03 514.931C3907.48 511.783 3909.28 508.156 3910.32 504.271C3911.36 500.386 3911.61 496.326 3911.05 492.338L3907.15 462.41C3906.41 457.293 3907 452.069 3908.86 447.257C3910.71 442.446 3913.76 438.215 3917.71 434.988C3921.66 431.76 3926.36 429.648 3931.36 428.862C3936.35 428.076 3941.46 428.645 3946.18 430.51L3973.88 441.061C3977.55 442.491 3981.47 443.142 3985.39 442.971C3989.32 442.8 3993.17 441.812 3996.71 440.068C4000.25 438.323 4003.4 435.86 4005.98 432.826C4008.56 429.792 4010.5 426.252 4011.7 422.423L4020.9 393.729C4022.42 388.799 4025.16 384.36 4028.87 380.853C4032.58 377.347 4037.12 374.896 4042.04 373.744C4046.96 372.592 4052.09 372.781 4056.92 374.288C4061.75 375.796 4066.11 378.571 4069.56 382.339L4089.99 404.131C4092.69 407.056 4095.95 409.386 4099.56 410.978C4103.18 412.57 4107.07 413.392 4111 413.392C4114.93 413.392 4118.82 412.57 4122.44 410.978C4126.05 409.386 4129.31 407.056 4132.01 404.131L4152.44 382.339C4155.89 378.571 4160.25 375.796 4165.08 374.288C4169.91 372.781 4175.04 372.592 4179.96 373.744C4184.88 374.896 4189.42 377.347 4193.13 380.853C4196.84 384.36 4199.58 388.799 4201.1 393.729L4210.3 422.423C4211.5 426.252 4213.44 429.792 4216.02 432.826C4218.6 435.86 4221.75 438.323 4225.29 440.068C4228.83 441.812 4232.68 442.8 4236.61 442.971C4240.53 443.142 4244.45 442.491 4248.12 441.061L4275.82 430.51C4280.54 428.645 4285.65 428.076 4290.64 428.862C4295.64 429.648 4300.34 431.76 4304.29 434.988C4308.24 438.215 4311.29 442.446 4313.14 447.257C4315 452.069 4315.59 457.293 4314.85 462.41L4310.95 492.338C4310.39 496.326 4310.64 500.386 4311.68 504.271C4312.72 508.156 4314.52 511.783 4316.97 514.931C4319.42 518.079 4322.48 520.682 4325.95 522.579C4329.42 524.476 4333.23 525.627 4337.16 525.963L4366.5 528.725C4371.54 529.132 4376.38 530.883 4380.55 533.805C4384.72 536.726 4388.07 540.716 4390.27 545.376C4392.46 550.036 4393.42 555.203 4393.06 560.361C4392.69 565.52 4391.01 570.49 4388.18 574.776L4371.99 599.97C4369.81 603.316 4368.31 607.084 4367.6 611.041C4366.89 614.998 4366.97 619.061 4367.85 622.984C4368.72 626.907 4370.37 630.606 4372.69 633.855C4375.01 637.104 4377.95 639.834 4381.34 641.879L4406.68 657.46C4411.04 660.067 4414.65 663.796 4417.17 668.277C4419.68 672.758 4421 677.834 4421 683C4421 688.166 4419.68 693.242 4417.17 697.723C4414.65 702.204 4411.04 705.933 4406.68 708.54Z" stroke="#3B0F46" stroke-width="28" mask="url(#path-18-inside-2_1732_116)"/>
</g>
<path d="M4111.5 525C4196.11 525 4265 595.352 4265 682.5C4265 769.648 4196.11 840 4111.5 840C4026.89 840 3958 769.648 3958 682.5C3958 595.352 4026.89 525 4111.5 525Z" fill="#8D83FF" stroke="#3B0F46" stroke-width="14"/>
<g filter="url(#filter9_d_1732_116)">
<path d="M3025.44 993C3196.89 993 3335.88 854.208 3335.88 683C3335.88 511.792 3196.89 373 3025.44 373C2853.99 373 2715 511.792 2715 683C2715 854.208 2853.99 993 3025.44 993Z" fill="#E681FF"/>
<path d="M3025.44 380C3193.04 380 3328.88 515.667 3328.88 683C3328.88 850.333 3193.04 986 3025.44 986C2857.85 986 2722 850.333 2722 683C2722 515.667 2857.85 380 3025.44 380Z" stroke="#3B0F46" stroke-width="14"/>
</g>
<path d="M3216.42 662.196C3218.18 661.871 3219.99 661.917 3221.72 662.332C3225.23 663.238 3228.3 665.391 3230.36 668.398C3232.39 671.368 3233.29 674.969 3232.9 678.548C3223.14 726.216 3197.49 769.127 3160.17 800.204C3122.79 831.326 3075.95 848.718 3027.38 849.508C2978.82 850.297 2931.44 834.437 2893.08 804.547C2854.73 774.669 2827.69 732.56 2816.42 685.175C2815.7 681.729 2816.34 678.138 2818.21 675.161C2820.09 672.17 2823.06 670.04 2826.48 669.218L2826.63 669.181L2826.78 669.135C2828.52 668.597 2830.37 668.434 2832.18 668.656C2834 668.879 2835.74 669.481 2837.31 670.425C2838.88 671.37 2840.23 672.636 2841.28 674.142C2842.34 675.647 2843.06 677.359 2843.41 679.165L2843.43 679.284L2843.46 679.402C2853.49 720.443 2877.11 756.853 2910.47 782.667C2943.83 808.481 2984.94 822.167 3027.06 821.479C3069.19 820.792 3109.83 805.771 3142.33 778.883C3174.83 751.994 3197.26 714.831 3205.96 673.485L3205.99 673.312L3206.02 673.135C3206.26 671.345 3206.88 669.629 3207.82 668.097L3207.82 668.096C3208.77 666.564 3210.02 665.248 3211.5 664.231C3212.98 663.215 3214.66 662.522 3216.42 662.196Z" fill="#3B0F46" stroke="#3B0F46" stroke-width="10"/>
<path d="M2944.3 518.228C2952.59 518.228 2960.56 521.481 2966.55 527.319C2972.49 533.119 2976 541.021 2976.34 549.387C2976 557.753 2972.49 565.655 2966.55 571.454C2960.56 577.293 2952.59 580.546 2944.3 580.546C2936.02 580.546 2928.04 577.293 2922.06 571.454C2916.12 565.654 2912.61 557.752 2912.27 549.387C2912.61 541.021 2916.12 533.119 2922.06 527.319C2928.04 521.481 2936.02 518.228 2944.3 518.228Z" fill="#3B0F46" stroke="#3B0F46" stroke-width="10"/>
<path d="M3100.91 518.232C3105.1 518.161 3109.27 518.916 3113.17 520.454C3117.08 521.992 3120.63 524.282 3123.65 527.192C3126.66 530.103 3129.06 533.576 3130.72 537.413C3132.37 541.212 3133.25 545.294 3133.33 549.431C3132.99 557.767 3129.45 565.658 3123.42 571.457C3117.36 577.286 3109.27 580.546 3100.85 580.546C3092.42 580.546 3084.33 577.286 3078.27 571.457C3072.24 565.655 3068.7 557.759 3068.37 549.419C3068.44 545.288 3069.32 541.209 3070.96 537.412C3072.61 533.576 3075.01 530.103 3078.02 527.192C3081.03 524.282 3084.58 521.992 3088.48 520.454C3092.38 518.916 3096.55 518.161 3100.74 518.232L3100.82 518.233L3100.91 518.232Z" fill="#3B0F46" stroke="#3B0F46" stroke-width="10"/>
<g filter="url(#filter10_d_1732_116)">
<path d="M2184.52 606.444C2226.22 539.753 2196.68 485.141 2124.08 486.86C2124.08 412.764 2066.3 384.995 1998.94 432.291C1961.3 353.215 1891.39 353.523 1856.43 431.497C1789.74 389.799 1735.13 419.331 1736.85 491.928C1662.75 491.928 1634.98 549.716 1682.28 617.067C1603.2 654.71 1603.55 724.619 1681.48 759.573C1639.78 826.263 1669.32 880.876 1741.91 879.157C1741.91 953.252 1799.7 981.021 1867.06 933.725C1904.7 1012.8 1974.61 1012.45 2009.57 934.519C2076.26 976.217 2130.87 946.685 2129.15 874.088C2203.25 874.088 2231.02 816.301 2183.72 748.949C2262.8 711.306 2262.45 641.398 2184.52 606.444Z" fill="#E681FF"/>
<path d="M1926.66 380C1949.43 380.052 1974.4 397.026 1992.62 435.3L1996.18 442.782L2002.97 438.021C2035.55 415.143 2064.15 411.549 2083.9 420.437C2103.41 429.22 2117.08 451.508 2117.08 486.859V494.027L2124.25 493.857C2158.9 493.037 2181.34 505.61 2190.94 524.21C2200.63 542.969 2198.7 570.561 2178.58 602.732L2174.32 609.543L2181.65 612.831C2219.27 629.703 2236.05 653.973 2236 676.674C2235.95 699.441 2218.99 724.41 2180.71 742.629L2173.23 746.19L2178 752.972C2200.87 785.55 2204.47 814.158 2195.58 833.902C2186.79 853.416 2164.51 867.088 2129.15 867.088H2121.99L2122.16 874.254C2122.98 908.903 2110.4 931.338 2091.8 940.944C2073.04 950.633 2045.45 948.699 2013.28 928.584L2006.47 924.326L2003.18 931.654C1986.31 969.269 1962.04 986.047 1939.33 986C1916.57 985.953 1891.6 968.989 1873.38 930.717L1869.82 923.234L1863.03 927.996C1830.45 950.873 1801.85 954.467 1782.1 945.58C1762.59 936.797 1748.92 914.508 1748.92 879.157V871.989L1741.75 872.159C1707.1 872.98 1684.66 860.407 1675.06 841.807C1665.37 823.047 1667.3 795.455 1687.42 763.284L1691.68 756.473L1684.35 753.186C1646.73 736.314 1629.95 712.043 1630 689.343C1630.05 666.575 1647.01 641.607 1685.29 623.388L1692.77 619.826L1688 613.044C1665.13 580.466 1661.53 551.859 1670.42 532.114C1679.21 512.6 1701.49 498.929 1736.85 498.929H1744.01L1743.84 491.763C1743.02 457.114 1755.6 434.678 1774.2 425.071C1792.96 415.383 1820.55 417.318 1852.72 437.433L1859.53 441.691L1862.82 434.36C1879.69 396.723 1903.96 379.948 1926.66 380Z" stroke="#3B0F46" stroke-width="14"/>
</g>
<path d="M1933 587.369C1986.43 587.369 2029.68 630.454 2029.68 683.527C2029.68 736.6 1986.43 779.684 1933 779.685C1879.57 779.685 1836.32 736.6 1836.32 683.527C1836.32 630.454 1879.57 587.369 1933 587.369Z" fill="#8D83FF" stroke="#3B0F46" stroke-width="14"/>
<g filter="url(#filter11_d_1732_116)">
<path d="M892.721 425.721C892.721 396.604 869.117 373 840 373C810.883 373 787.279 396.604 787.279 425.721V483.517L758.724 433.268C744.338 407.953 712.154 399.093 686.839 413.479C661.524 427.864 652.664 460.048 667.05 485.363L699.544 542.544L642.363 510.05C617.048 495.664 584.864 504.524 570.479 529.839C556.093 555.154 564.953 587.338 590.268 601.724L640.517 630.279H582.721C553.604 630.279 530 653.883 530 683C530 712.117 553.604 735.721 582.721 735.721H640.517L590.268 764.276C564.953 778.662 556.093 810.846 570.479 836.161C584.864 861.476 617.048 870.336 642.363 855.95L699.544 823.456L667.05 880.637C652.664 905.952 661.524 938.135 686.839 952.521C712.154 966.907 744.338 958.047 758.724 932.732L787.279 882.483V940.279C787.279 969.396 810.883 993 840 993C869.117 993 892.721 969.396 892.721 940.279V882.483L921.276 932.732C935.662 958.047 967.846 966.907 993.161 952.521C1018.48 938.135 1027.34 905.952 1012.95 880.637L980.456 823.456L1037.64 855.95C1062.95 870.336 1095.14 861.476 1109.52 836.161C1123.91 810.846 1115.05 778.662 1089.73 764.276L1039.48 735.721H1097.28C1126.4 735.721 1150 712.117 1150 683C1150 653.883 1126.4 630.279 1097.28 630.279H1039.48L1089.73 601.724C1115.05 587.338 1123.91 555.154 1109.52 529.839C1095.14 504.524 1062.95 495.664 1037.64 510.05L980.456 542.544L1012.95 485.363C1027.34 460.048 1018.48 427.864 993.161 413.479C967.846 399.093 935.662 407.953 921.276 433.268L892.721 483.517V425.721Z" fill="#E681FF"/>
<path d="M840 380C865.251 380 885.72 400.47 885.721 425.721V510.003L898.807 486.976L927.362 436.727C939.838 414.773 967.748 407.089 989.702 419.564C1011.66 432.04 1019.34 459.951 1006.86 481.905L974.37 539.085L961.807 561.192L983.915 548.63L1041.09 516.136C1063.05 503.66 1090.96 511.344 1103.44 533.298C1115.91 555.252 1108.23 583.162 1086.27 595.638L1036.02 624.193L1013 637.279H1097.28C1122.53 637.279 1143 657.749 1143 683C1143 708.251 1122.53 728.721 1097.28 728.721H1013L1036.02 741.807L1086.27 770.362C1108.23 782.838 1115.91 810.748 1103.44 832.702C1090.96 854.656 1063.05 862.34 1041.09 849.864L983.915 817.37L961.808 804.807L974.37 826.914L1006.86 884.095C1019.34 906.049 1011.66 933.96 989.702 946.436C967.748 958.911 939.838 951.227 927.362 929.273L898.807 879.024L885.721 855.997V940.279C885.721 965.53 865.251 986 840 986C814.749 986 794.279 965.53 794.279 940.279V855.997L781.193 879.024L752.638 929.273C740.162 951.227 712.252 958.911 690.298 946.436C668.344 933.96 660.66 906.049 673.136 884.095L705.63 826.914L718.192 804.807L696.086 817.37L638.905 849.864C616.951 862.34 589.04 854.656 576.564 832.702C564.089 810.748 571.773 782.838 593.727 770.362L643.976 741.807L667.003 728.721H582.721C557.47 728.72 537 708.251 537 683C537 657.749 557.47 637.28 582.721 637.279H667.003L643.976 624.193L593.727 595.638C571.773 583.162 564.089 555.252 576.564 533.298C589.04 511.344 616.951 503.66 638.905 516.136L696.085 548.63L718.192 561.192L705.63 539.085L673.136 481.905C660.66 459.951 668.344 432.04 690.298 419.564C712.252 407.089 740.162 414.773 752.638 436.727L781.193 486.976L794.279 510.003V425.721C794.28 400.47 814.749 380 840 380Z" stroke="#3B0F46" stroke-width="14"/>
</g>
<circle cx="839.452" cy="673.934" r="109.204" fill="#8D83FF" stroke="#3B0F46" stroke-width="14"/>
<defs>
<filter id="filter0_d_1732_116" x="3811" y="2447" width="637" height="510" filterUnits="userSpaceOnUse" color-interpolation-filters="sRGB">
<feFlood flood-opacity="0" result="BackgroundImageFix"/>
<feColorMatrix in="SourceAlpha" type="matrix" values="0 0 0 0 0 0 0 0 0 0 0 0 0 0 0 0 0 0 127 0" result="hardAlpha"/>
<feOffset dx="22" dy="45"/>
<feComposite in2="hardAlpha" operator="out"/>
<feColorMatrix type="matrix" values="0 0 0 0 0.14902 0 0 0 0 0.0627451 0 0 0 0 0.239216 0 0 0 1 0"/>
<feBlend mode="normal" in2="BackgroundImageFix" result="effect1_dropShadow_1732_116"/>
<feBlend mode="normal" in="SourceGraphic" in2="effect1_dropShadow_1732_116" result="shape"/>
</filter>
<filter id="filter1_d_1732_116" x="2680" y="2415" width="714" height="556.403" filterUnits="userSpaceOnUse" color-interpolation-filters="sRGB">
<feFlood flood-opacity="0" result="BackgroundImageFix"/>
<feColorMatrix in="SourceAlpha" type="matrix" values="0 0 0 0 0 0 0 0 0 0 0 0 0 0 0 0 0 0 127 0" result="hardAlpha"/>
<feOffset dx="22" dy="45"/>
<feComposite in2="hardAlpha" operator="out"/>
<feColorMatrix type="matrix" values="0 0 0 0 0.14902 0 0 0 0 0.0627451 0 0 0 0 0.239216 0 0 0 1 0"/>
<feBlend mode="normal" in2="BackgroundImageFix" result="effect1_dropShadow_1732_116"/>
<feBlend mode="normal" in="SourceGraphic" in2="effect1_dropShadow_1732_116" result="shape"/>
</filter>
<filter id="filter2_d_1732_116" x="1633" y="2381.34" width="622" height="643.66" filterUnits="userSpaceOnUse" color-interpolation-filters="sRGB">
<feFlood flood-opacity="0" result="BackgroundImageFix"/>
<feColorMatrix in="SourceAlpha" type="matrix" values="0 0 0 0 0 0 0 0 0 0 0 0 0 0 0 0 0 0 127 0" result="hardAlpha"/>
<feOffset dx="22" dy="45"/>
<feComposite in2="hardAlpha" operator="out"/>
<feColorMatrix type="matrix" values="0 0 0 0 0.14902 0 0 0 0 0.0627451 0 0 0 0 0.239216 0 0 0 1 0"/>
<feBlend mode="normal" in2="BackgroundImageFix" result="effect1_dropShadow_1732_116"/>
<feBlend mode="normal" in="SourceGraphic" in2="effect1_dropShadow_1732_116" result="shape"/>
</filter>
<filter id="filter3_d_1732_116" x="496" y="2451" width="710" height="503.69" filterUnits="userSpaceOnUse" color-interpolation-filters="sRGB">
<feFlood flood-opacity="0" result="BackgroundImageFix"/>
<feColorMatrix in="SourceAlpha" type="matrix" values="0 0 0 0 0 0 0 0 0 0 0 0 0 0 0 0 0 0 127 0" result="hardAlpha"/>
<feOffset dx="22" dy="45"/>
<feComposite in2="hardAlpha" operator="out"/>
<feColorMatrix type="matrix" values="0 0 0 0 0.14902 0 0 0 0 0.0627451 0 0 0 0 0.239216 0 0 0 1 0"/>
<feBlend mode="normal" in2="BackgroundImageFix" result="effect1_dropShadow_1732_116"/>
<feBlend mode="normal" in="SourceGraphic" in2="effect1_dropShadow_1732_116" result="shape"/>
</filter>
<filter id="filter4_d_1732_116" x="3824" y="1452" width="612" height="507.676" filterUnits="userSpaceOnUse" color-interpolation-filters="sRGB">
<feFlood flood-opacity="0" result="BackgroundImageFix"/>
<feColorMatrix in="SourceAlpha" type="matrix" values="0 0 0 0 0 0 0 0 0 0 0 0 0 0 0 0 0 0 127 0" result="hardAlpha"/>
<feOffset dx="22" dy="45"/>
<feComposite in2="hardAlpha" operator="out"/>
<feColorMatrix type="matrix" values="0 0 0 0 0.0980392 0 0 0 0 0.0823529 0 0 0 0 0.290196 0 0 0 1 0"/>
<feBlend mode="normal" in2="BackgroundImageFix" result="effect1_dropShadow_1732_116"/>
<feBlend mode="normal" in="SourceGraphic" in2="effect1_dropShadow_1732_116" result="shape"/>
</filter>
<filter id="filter5_d_1732_116" x="2723.94" y="1365.18" width="623.117" height="628.646" filterUnits="userSpaceOnUse" color-interpolation-filters="sRGB">
<feFlood flood-opacity="0" result="BackgroundImageFix"/>
<feColorMatrix in="SourceAlpha" type="matrix" values="0 0 0 0 0 0 0 0 0 0 0 0 0 0 0 0 0 0 127 0" result="hardAlpha"/>
<feOffset dx="22" dy="45"/>
<feComposite in2="hardAlpha" operator="out"/>
<feColorMatrix type="matrix" values="0 0 0 0 0.0980392 0 0 0 0 0.0823529 0 0 0 0 0.290196 0 0 0 1 0"/>
<feBlend mode="normal" in2="BackgroundImageFix" result="effect1_dropShadow_1732_116"/>
<feBlend mode="normal" in="SourceGraphic" in2="effect1_dropShadow_1732_116" result="shape"/>
</filter>
<filter id="filter6_d_1732_116" x="1606.74" y="1363.52" width="624.739" height="626.14" filterUnits="userSpaceOnUse" color-interpolation-filters="sRGB">
<feFlood flood-opacity="0" result="BackgroundImageFix"/>
<feColorMatrix in="SourceAlpha" type="matrix" values="0 0 0 0 0 0 0 0 0 0 0 0 0 0 0 0 0 0 127 0" result="hardAlpha"/>
<feOffset dx="22" dy="45"/>
<feComposite in2="hardAlpha" operator="out"/>
<feColorMatrix type="matrix" values="0 0 0 0 0.0980392 0 0 0 0 0.0823529 0 0 0 0 0.290196 0 0 0 1 0"/>
<feBlend mode="normal" in2="BackgroundImageFix" result="effect1_dropShadow_1732_116"/>
<feBlend mode="normal" in="SourceGraphic" in2="effect1_dropShadow_1732_116" result="shape"/>
</filter>
<filter id="filter7_d_1732_116" x="617" y="1337" width="468" height="732" filterUnits="userSpaceOnUse" color-interpolation-filters="sRGB">
<feFlood flood-opacity="0" result="BackgroundImageFix"/>
<feColorMatrix in="SourceAlpha" type="matrix" values="0 0 0 0 0 0 0 0 0 0 0 0 0 0 0 0 0 0 127 0" result="hardAlpha"/>
<feOffset dx="22" dy="45"/>
<feComposite in2="hardAlpha" operator="out"/>
<feColorMatrix type="matrix" values="0 0 0 0 0.0980392 0 0 0 0 0.0823529 0 0 0 0 0.290196 0 0 0 1 0"/>
<feBlend mode="normal" in2="BackgroundImageFix" result="effect1_dropShadow_1732_116"/>
<feBlend mode="normal" in="SourceGraphic" in2="effect1_dropShadow_1732_116" result="shape"/>
</filter>
<filter id="filter8_d_1732_116" x="3801" y="373" width="642" height="665" filterUnits="userSpaceOnUse" color-interpolation-filters="sRGB">
<feFlood flood-opacity="0" result="BackgroundImageFix"/>
<feColorMatrix in="SourceAlpha" type="matrix" values="0 0 0 0 0 0 0 0 0 0 0 0 0 0 0 0 0 0 127 0" result="hardAlpha"/>
<feOffset dx="22" dy="45"/>
<feComposite in2="hardAlpha" operator="out"/>
<feColorMatrix type="matrix" values="0 0 0 0 0.231373 0 0 0 0 0.0588235 0 0 0 0 0.27451 0 0 0 1 0"/>
<feBlend mode="normal" in2="BackgroundImageFix" result="effect1_dropShadow_1732_116"/>
<feBlend mode="normal" in="SourceGraphic" in2="effect1_dropShadow_1732_116" result="shape"/>
</filter>
<filter id="filter9_d_1732_116" x="2715" y="373" width="642.883" height="665" filterUnits="userSpaceOnUse" color-interpolation-filters="sRGB">
<feFlood flood-opacity="0" result="BackgroundImageFix"/>
<feColorMatrix in="SourceAlpha" type="matrix" values="0 0 0 0 0 0 0 0 0 0 0 0 0 0 0 0 0 0 127 0" result="hardAlpha"/>
<feOffset dx="22" dy="45"/>
<feComposite in2="hardAlpha" operator="out"/>
<feColorMatrix type="matrix" values="0 0 0 0 0.231373 0 0 0 0 0.0588235 0 0 0 0 0.27451 0 0 0 1 0"/>
<feBlend mode="normal" in2="BackgroundImageFix" result="effect1_dropShadow_1732_116"/>
<feBlend mode="normal" in="SourceGraphic" in2="effect1_dropShadow_1732_116" result="shape"/>
</filter>
<filter id="filter10_d_1732_116" x="1623" y="373" width="642" height="665" filterUnits="userSpaceOnUse" color-interpolation-filters="sRGB">
<feFlood flood-opacity="0" result="BackgroundImageFix"/>
<feColorMatrix in="SourceAlpha" type="matrix" values="0 0 0 0 0 0 0 0 0 0 0 0 0 0 0 0 0 0 127 0" result="hardAlpha"/>
<feOffset dx="22" dy="45"/>
<feComposite in2="hardAlpha" operator="out"/>
<feColorMatrix type="matrix" values="0 0 0 0 0.231373 0 0 0 0 0.0588235 0 0 0 0 0.27451 0 0 0 1 0"/>
<feBlend mode="normal" in2="BackgroundImageFix" result="effect1_dropShadow_1732_116"/>
<feBlend mode="normal" in="SourceGraphic" in2="effect1_dropShadow_1732_116" result="shape"/>
</filter>
<filter id="filter11_d_1732_116" x="530" y="373" width="642" height="665" filterUnits="userSpaceOnUse" color-interpolation-filters="sRGB">
<feFlood flood-opacity="0" result="BackgroundImageFix"/>
<feColorMatrix in="SourceAlpha" type="matrix" values="0 0 0 0 0 0 0 0 0 0 0 0 0 0 0 0 0 0 127 0" result="hardAlpha"/>
<feOffset dx="22" dy="45"/>
<feComposite in2="hardAlpha" operator="out"/>
<feColorMatrix type="matrix" values="0 0 0 0 0.231373 0 0 0 0 0.0588235 0 0 0 0 0.27451 0 0 0 1 0"/>
<feBlend mode="normal" in2="BackgroundImageFix" result="effect1_dropShadow_1732_116"/>
<feBlend mode="normal" in="SourceGraphic" in2="effect1_dropShadow_1732_116" result="shape"/>
</filter>
</defs>
</svg>
