<svg width="4944" height="4258" viewBox="0 0 4944 4258" fill="none" xmlns="http://www.w3.org/2000/svg">
<rect width="4944" height="4258" rx="340" fill="white"/>
<g filter="url(#filter0_d_1737_206)">
<mask id="path-2-inside-1_1737_206" fill="white">
<path fill-rule="evenodd" clip-rule="evenodd" d="M4159.99 3885.7C4175.44 3885.7 4190.4 3883.62 4204.6 3879.71C4208.13 3878.74 4211.85 3878.74 4215.37 3879.71C4229.57 3883.62 4244.54 3885.7 4259.98 3885.7C4290.61 3885.7 4319.31 3877.5 4344.03 3863.18C4347.5 3861.17 4351.49 3860.23 4355.5 3860.46C4358.26 3860.62 4361.05 3860.7 4363.85 3860.7C4442.91 3860.7 4507 3796.61 4507 3717.55C4507 3638.5 4442.91 3574.41 4363.85 3574.41C4360.77 3574.41 4357.71 3574.5 4354.68 3574.69C4350.68 3574.95 4346.68 3574.04 4343.2 3572.05C4318.67 3558.02 4290.26 3550 4259.98 3550C4244.54 3550 4229.57 3552.09 4215.37 3555.99C4211.85 3556.96 4208.13 3556.96 4204.6 3555.99C4190.4 3552.09 4175.44 3550 4159.99 3550C4143.38 3550 4127.34 3552.41 4112.19 3556.9C4108.43 3558.02 4104.41 3558.02 4100.64 3556.9C4085.5 3552.41 4069.45 3550 4052.85 3550C4012.69 3550 3975.83 3564.1 3946.94 3587.62C3944.34 3589.74 3941.26 3591.17 3937.98 3591.83C3879.23 3603.7 3835 3655.61 3835 3717.85C3835 3780.09 3879.23 3832.01 3937.98 3843.87C3941.26 3844.53 3944.34 3845.96 3946.94 3848.08C3975.83 3871.6 4012.69 3885.7 4052.85 3885.7C4069.45 3885.7 4085.5 3883.29 4100.64 3878.8C4104.41 3877.68 4108.43 3877.68 4112.19 3878.8C4127.34 3883.29 4143.38 3885.7 4159.99 3885.7Z"/>
</mask>
<path fill-rule="evenodd" clip-rule="evenodd" d="M4159.99 3885.7C4175.44 3885.7 4190.4 3883.62 4204.6 3879.71C4208.13 3878.74 4211.85 3878.74 4215.37 3879.71C4229.57 3883.62 4244.54 3885.7 4259.98 3885.7C4290.61 3885.7 4319.31 3877.5 4344.03 3863.18C4347.5 3861.17 4351.49 3860.23 4355.5 3860.46C4358.26 3860.62 4361.05 3860.7 4363.85 3860.7C4442.91 3860.7 4507 3796.61 4507 3717.55C4507 3638.5 4442.91 3574.41 4363.85 3574.41C4360.77 3574.41 4357.71 3574.5 4354.68 3574.69C4350.68 3574.95 4346.68 3574.04 4343.2 3572.05C4318.67 3558.02 4290.26 3550 4259.98 3550C4244.54 3550 4229.57 3552.09 4215.37 3555.99C4211.85 3556.96 4208.13 3556.96 4204.6 3555.99C4190.4 3552.09 4175.44 3550 4159.99 3550C4143.38 3550 4127.34 3552.41 4112.19 3556.9C4108.43 3558.02 4104.41 3558.02 4100.64 3556.9C4085.5 3552.41 4069.45 3550 4052.85 3550C4012.69 3550 3975.83 3564.1 3946.94 3587.62C3944.34 3589.74 3941.26 3591.17 3937.98 3591.83C3879.23 3603.7 3835 3655.61 3835 3717.85C3835 3780.09 3879.23 3832.01 3937.98 3843.87C3941.26 3844.53 3944.34 3845.96 3946.94 3848.08C3975.83 3871.6 4012.69 3885.7 4052.85 3885.7C4069.45 3885.7 4085.5 3883.29 4100.64 3878.8C4104.41 3877.68 4108.43 3877.68 4112.19 3878.8C4127.34 3883.29 4143.38 3885.7 4159.99 3885.7Z" fill="#BC7AFF"/>
<path d="M4100.64 3878.8L4104.62 3892.22L4100.64 3878.8ZM4112.19 3878.8L4108.21 3892.22L4112.19 3878.8ZM3937.98 3843.87L3935.2 3857.59L3937.98 3843.87ZM3946.94 3848.08L3955.78 3837.22L3946.94 3848.08ZM3946.94 3587.62L3938.1 3576.77L3946.94 3587.62ZM4204.6 3879.71L4208.32 3893.21L4204.6 3879.71ZM4215.37 3879.71L4219.08 3866.21L4215.37 3879.71ZM4112.19 3556.9L4108.21 3543.48L4112.19 3556.9ZM4100.64 3556.9L4096.66 3570.32L4100.64 3556.9ZM4215.37 3555.99L4211.66 3542.5L4215.37 3555.99ZM4204.6 3555.99L4208.32 3542.5L4204.6 3555.99ZM4343.2 3572.05L4336.25 3584.2L4343.2 3572.05ZM4344.03 3863.18L4351.05 3875.29L4344.03 3863.18ZM4355.5 3860.46L4356.3 3846.49L4355.5 3860.46ZM4200.89 3866.21C4187.88 3869.79 4174.17 3871.7 4159.99 3871.7V3899.7C4176.7 3899.7 4192.91 3897.44 4208.32 3893.21L4200.89 3866.21ZM4259.98 3871.7C4245.8 3871.7 4232.09 3869.79 4219.08 3866.21L4211.66 3893.21C4227.06 3897.44 4243.27 3899.7 4259.98 3899.7V3871.7ZM4337.01 3851.07C4314.37 3864.19 4288.07 3871.7 4259.98 3871.7V3899.7C4293.14 3899.7 4324.26 3890.82 4351.05 3875.29L4337.01 3851.07ZM4363.85 3846.7C4361.31 3846.7 4358.8 3846.63 4356.3 3846.49L4354.69 3874.44C4357.72 3874.62 4360.78 3874.7 4363.85 3874.7V3846.7ZM4493 3717.55C4493 3788.88 4435.18 3846.7 4363.85 3846.7V3874.7C4450.64 3874.7 4521 3804.35 4521 3717.55H4493ZM4363.85 3588.41C4435.18 3588.41 4493 3646.23 4493 3717.55H4521C4521 3630.76 4450.64 3560.41 4363.85 3560.41V3588.41ZM4355.56 3588.67C4358.3 3588.49 4361.07 3588.41 4363.85 3588.41V3560.41C4360.48 3560.41 4357.12 3560.51 4353.8 3560.72L4355.56 3588.67ZM4259.98 3564C4287.76 3564 4313.78 3571.35 4336.25 3584.2L4350.15 3559.89C4323.56 3544.69 4292.76 3536 4259.98 3536V3564ZM4219.08 3569.49C4232.09 3565.92 4245.8 3564 4259.98 3564V3536C4243.27 3536 4227.06 3538.26 4211.66 3542.5L4219.08 3569.49ZM4159.99 3564C4174.17 3564 4187.88 3565.92 4200.89 3569.49L4208.32 3542.5C4192.91 3538.26 4176.7 3536 4159.99 3536V3564ZM4116.17 3570.32C4130.04 3566.21 4144.74 3564 4159.99 3564V3536C4142.02 3536 4124.64 3538.61 4108.21 3543.48L4116.17 3570.32ZM4052.85 3564C4068.09 3564 4082.79 3566.21 4096.66 3570.32L4104.62 3543.48C4088.2 3538.61 4070.82 3536 4052.85 3536V3564ZM3955.78 3598.48C3982.26 3576.92 4016.03 3564 4052.85 3564V3536C4009.36 3536 3969.39 3551.29 3938.1 3576.77L3955.78 3598.48ZM3849 3717.85C3849 3662.4 3888.41 3616.13 3940.75 3605.55L3935.21 3578.11C3870.06 3591.27 3821 3648.81 3821 3717.85H3849ZM3940.75 3830.15C3888.41 3819.58 3849 3773.3 3849 3717.85H3821C3821 3786.89 3870.06 3844.44 3935.2 3857.59L3940.75 3830.15ZM4052.85 3871.7C4016.03 3871.7 3982.26 3858.78 3955.78 3837.22L3938.1 3858.93C3969.39 3884.42 4009.36 3899.7 4052.85 3899.7V3871.7ZM4096.66 3865.38C4082.79 3869.49 4068.09 3871.7 4052.85 3871.7V3899.7C4070.82 3899.7 4088.2 3897.09 4104.62 3892.22L4096.66 3865.38ZM4159.99 3871.7C4144.74 3871.7 4130.04 3869.49 4116.17 3865.38L4108.21 3892.22C4124.64 3897.09 4142.02 3899.7 4159.99 3899.7V3871.7ZM4104.62 3892.22C4105.79 3891.87 4107.04 3891.87 4108.21 3892.22L4116.17 3865.38C4109.81 3863.49 4103.03 3863.49 4096.66 3865.38L4104.62 3892.22ZM3935.2 3857.59C3936.33 3857.82 3937.32 3858.3 3938.1 3858.93L3955.78 3837.22C3951.37 3833.63 3946.18 3831.25 3940.75 3830.15L3935.2 3857.59ZM3938.1 3576.77C3937.32 3577.4 3936.33 3577.88 3935.21 3578.11L3940.75 3605.55C3946.19 3604.46 3951.37 3602.07 3955.78 3598.48L3938.1 3576.77ZM4208.32 3893.21C4209.41 3892.91 4210.56 3892.91 4211.66 3893.21L4219.08 3866.21C4213.13 3864.57 4206.84 3864.57 4200.89 3866.21L4208.32 3893.21ZM4108.21 3543.48C4107.04 3543.83 4105.79 3543.83 4104.62 3543.48L4096.66 3570.32C4103.03 3572.21 4109.81 3572.21 4116.17 3570.32L4108.21 3543.48ZM4211.66 3542.5C4210.56 3542.8 4209.41 3542.8 4208.32 3542.5L4200.89 3569.49C4206.84 3571.13 4213.13 3571.13 4219.08 3569.49L4211.66 3542.5ZM4353.8 3560.72C4352.48 3560.81 4351.21 3560.5 4350.15 3559.89L4336.25 3584.2C4342.14 3587.57 4348.87 3589.09 4355.56 3588.67L4353.8 3560.72ZM4351.05 3875.29C4352.11 3874.67 4353.38 3874.37 4354.69 3874.44L4356.3 3846.49C4349.6 3846.1 4342.88 3847.66 4337.01 3851.07L4351.05 3875.29Z" fill="#26103D" mask="url(#path-2-inside-1_1737_206)"/>
</g>
<g filter="url(#filter1_d_1737_206)">
<path d="M3419 3855C3419 3864.94 3410.91 3873.12 3401.01 3872.28C3350.15 3867.97 3344.2 3845.69 3282.6 3845.69C3214.4 3845.69 3214.39 3873 3146.19 3873C3077.99 3873 3077.99 3845.69 3009.8 3845.69C2941.6 3845.69 2941.59 3873 2873.39 3873C2811.79 3873 2805.83 3850.71 2754.99 3846.4C2745.09 3845.56 2737 3837.63 2737 3827.69V3581C2737 3571.06 2745.09 3562.88 2754.99 3563.72C2805.83 3568.03 2811.79 3590.31 2873.39 3590.31C2941.59 3590.31 2941.59 3563 3009.8 3563C3078.01 3563 3077.99 3590.31 3146.19 3590.31C3214.39 3590.31 3214.39 3563 3282.6 3563C3344.21 3563 3350.16 3585.29 3401.01 3589.6C3410.91 3590.44 3419 3598.37 3419 3608.31V3855Z" fill="#BC7AFF"/>
<path d="M3282.6 3570C3312.31 3570 3328.31 3575.32 3343.28 3581.2C3358.67 3587.25 3373.81 3594.32 3400.42 3596.57C3407.1 3597.14 3412 3602.4 3412 3608.31V3855C3412 3861.27 3407.01 3865.77 3401.6 3865.31C3377.36 3863.25 3364.09 3857.03 3348.39 3850.85C3332.27 3844.52 3314.49 3838.69 3282.6 3838.69C3247.23 3838.69 3229.22 3845.87 3211.79 3852.85C3195.12 3859.52 3179.02 3866 3146.19 3866C3113.36 3866 3097.27 3859.52 3080.6 3852.85C3063.17 3845.87 3045.17 3838.69 3009.8 3838.69C2974.43 3838.69 2956.43 3845.87 2938.99 3852.85C2922.32 3859.52 2906.22 3866 2873.39 3866C2843.69 3866 2827.68 3860.69 2812.72 3854.8C2797.33 3848.75 2782.19 3841.68 2755.58 3839.43C2748.9 3838.86 2744 3833.6 2744 3827.69V3581C2744 3574.73 2748.99 3570.23 2754.4 3570.69C2778.64 3572.75 2791.9 3578.97 2807.6 3585.15C2823.72 3591.48 2841.5 3597.31 2873.39 3597.31C2908.76 3597.31 2926.76 3590.13 2944.19 3583.15C2960.86 3576.48 2976.97 3570 3009.8 3570C3042.63 3570 3058.73 3576.48 3075.4 3583.15C3092.82 3590.13 3110.82 3597.31 3146.19 3597.31C3181.56 3597.31 3199.56 3590.13 3216.99 3583.15C3233.66 3576.48 3249.76 3570 3282.6 3570Z" stroke="#26103D" stroke-width="14"/>
</g>
<g filter="url(#filter2_d_1737_206)">
<path d="M2332 3633.42C2332 3609.71 2322.66 3586.96 2306.02 3570.19C2289.39 3553.42 2266.83 3544 2243.3 3544H1726.7C1703.17 3544 1680.61 3553.42 1663.98 3570.19C1647.34 3586.96 1638 3609.71 1638 3633.42C1638 3650.66 1642.95 3667.54 1652.24 3682.01C1661.53 3696.48 1674.78 3707.94 1690.38 3715C1674.78 3722.06 1661.53 3733.52 1652.24 3747.99C1642.95 3762.46 1638 3779.34 1638 3796.58C1638 3820.29 1647.34 3843.04 1663.98 3859.81C1680.61 3876.58 1703.17 3886 1726.7 3886H2243.3C2266.83 3886 2289.39 3876.58 2306.02 3859.81C2322.66 3843.04 2332 3820.29 2332 3796.58C2332 3779.34 2327.05 3762.46 2317.76 3747.99C2308.47 3733.52 2295.22 3722.06 2279.62 3715C2295.22 3707.94 2308.47 3696.48 2317.76 3682.01C2327.05 3667.54 2332 3650.66 2332 3633.42Z" fill="#BC7AFF"/>
<path d="M1726.7 3551H2243.3C2264.95 3551 2285.73 3559.67 2301.05 3575.12C2316.38 3590.57 2325 3611.54 2325 3633.42L2324.99 3634.91C2324.71 3650.3 2320.17 3665.3 2311.87 3678.23C2303.31 3691.57 2291.1 3702.12 2276.74 3708.62L2262.64 3715L2276.74 3721.38C2291.1 3727.88 2303.31 3738.43 2311.87 3751.77C2320.44 3765.11 2325 3780.67 2325 3796.58L2324.99 3797.6C2324.73 3819.11 2316.14 3839.67 2301.05 3854.88C2285.73 3870.33 2264.95 3879 2243.3 3879H1726.7C1705.05 3879 1684.27 3870.33 1668.95 3854.88C1653.62 3839.43 1645 3818.46 1645 3796.58L1645.01 3795.09C1645.29 3779.7 1649.83 3764.7 1658.13 3751.77C1666.69 3738.43 1678.9 3727.88 1693.26 3721.38L1707.36 3715L1693.26 3708.62C1678.9 3702.12 1666.69 3691.57 1658.13 3678.23C1649.56 3664.89 1645 3649.33 1645 3633.42L1645.01 3632.4C1645.27 3610.89 1653.86 3590.33 1668.95 3575.12C1684.27 3559.67 1705.05 3551 1726.7 3551Z" stroke="#26103D" stroke-width="14"/>
</g>
<g filter="url(#filter3_d_1737_206)">
<path d="M1156.63 3866C1161.64 3866 1166.46 3863.94 1169.71 3860.12C1191.2 3834.81 1197.02 3813.1 1198.43 3798.08C1203.08 3748.85 1165.12 3722.36 1178.84 3677.94C1185.67 3655.83 1197.7 3653.86 1199.73 3633.53C1202.28 3608.05 1186.06 3585.03 1169.62 3568.1C1166.38 3564.77 1161.89 3563 1157.25 3563H625.752C621.109 3563 616.617 3564.77 613.383 3568.1C596.938 3585.04 580.718 3608.1 583.265 3633.53C585.298 3653.86 597.33 3655.83 604.158 3677.94C617.877 3722.36 579.864 3748.85 584.569 3798.08C585.983 3813.1 591.797 3834.81 613.294 3860.12C616.537 3863.94 621.364 3866 626.373 3866H1156.63Z" fill="#BC7AFF"/>
<path d="M625.752 3570H1157.25C1160.14 3570 1162.77 3571.1 1164.6 3572.97C1180.82 3589.68 1194.99 3610.67 1192.77 3632.83C1191.93 3641.25 1189.19 3645.65 1185.38 3651.01C1181.32 3656.73 1175.94 3663.6 1172.15 3675.87C1164.53 3700.57 1171.48 3720.32 1178.72 3738.77C1186.04 3757.42 1193.6 3774.76 1191.46 3797.42L1191.46 3797.43C1190.17 3811.09 1184.89 3831.43 1164.37 3855.59C1162.56 3857.72 1159.75 3859 1156.63 3859H626.373C623.252 3859 620.439 3857.72 618.63 3855.59C598.111 3831.43 592.825 3811.09 591.539 3797.43L591.538 3797.42L591.443 3796.36C589.608 3774.21 597.047 3757.13 604.259 3738.77C611.506 3720.32 618.474 3700.57 610.847 3675.87C607.057 3663.6 601.683 3656.73 597.622 3651.01C593.814 3645.65 591.073 3641.25 590.23 3632.83V3632.83C588.016 3610.71 602.181 3589.69 618.405 3572.97C620.228 3571.1 622.863 3570 625.752 3570Z" stroke="#26103D" stroke-width="14"/>
</g>
<g filter="url(#filter4_d_1737_206)">
<path d="M4487.71 2731.54C4477.27 2722 4477.27 2704 4487.71 2694.46C4500.2 2683.06 4507 2670.78 4507 2657.99C4507 2597.78 4356.57 2549 4171 2549C3985.43 2549 3835 2597.81 3835 2657.99C3835 2670.78 3841.8 2683.06 3854.29 2694.46C3864.73 2704 3864.73 2722 3854.29 2731.54C3841.8 2742.94 3835 2755.22 3835 2768.01C3835 2828.22 3985.43 2877 4171 2877C4356.57 2877 4507 2828.19 4507 2768.01C4507 2755.22 4500.2 2742.94 4487.71 2731.54Z" fill="#E681FF"/>
<path d="M4171 2556C4263.26 2556 4346.49 2568.14 4406.43 2587.58C4436.43 2597.31 4460.21 2608.75 4476.34 2621.11C4492.56 2633.56 4500 2646.08 4500 2657.99C4500 2668.11 4494.65 2678.65 4482.99 2689.29C4469.51 2701.6 4469.51 2724.4 4482.99 2736.71C4494.65 2747.35 4500 2757.89 4500 2768.01C4500 2779.91 4492.56 2792.43 4476.34 2804.88C4460.21 2817.24 4436.43 2828.68 4406.43 2838.42C4346.49 2857.86 4263.26 2870 4171 2870C4078.74 2870 3995.51 2857.86 3935.57 2838.42C3905.57 2828.69 3881.79 2817.25 3865.66 2804.89C3849.44 2792.44 3842 2779.92 3842 2768.01C3842 2757.89 3847.35 2747.35 3859.01 2736.71C3872.49 2724.4 3872.49 2701.6 3859.01 2689.29C3847.35 2678.65 3842 2668.11 3842 2657.99C3842 2646.09 3849.44 2633.57 3865.66 2621.12C3881.79 2608.76 3905.57 2597.32 3935.57 2587.58C3995.51 2568.14 4078.74 2556 4171 2556Z" stroke="#3B0F46" stroke-width="14"/>
</g>
<g filter="url(#filter5_d_1737_206)">
<path d="M2755 2561C2745.06 2561 2737 2569.06 2737 2579V2847C2737 2856.94 2745.06 2865 2755 2865H3332.88C3339.79 2865 3346.09 2861.04 3349.09 2854.82L3414.88 2718.41C3417.46 2713.06 3417.23 2706.77 3414.27 2701.62L3338.67 2570.03C3335.46 2564.45 3329.51 2561 3323.07 2561H2755Z" fill="#E681FF"/>
<path d="M2755 2568H3323.07C3327 2568 3330.64 2570.11 3332.6 2573.52L3408.2 2705.11C3410.01 2708.26 3410.15 2712.1 3408.57 2715.37L3342.79 2851.78C3340.95 2855.58 3337.1 2858 3332.88 2858H2755C2748.92 2858 2744 2853.08 2744 2847V2579C2744 2572.92 2748.92 2568 2755 2568Z" stroke="#3B0F46" stroke-width="14"/>
</g>
<g filter="url(#filter6_d_1737_206)">
<path d="M1652.78 2618.81C1647.33 2622 1644 2627.88 1644 2634.19V2803.36C1644 2810.51 1648.21 2816.97 1654.8 2819.76C1702.75 2840.01 1898.47 2920 1999.11 2920C2099.13 2920 2271.8 2845.67 2315.64 2826.04C2322.03 2823.19 2326 2816.87 2326 2809.87V2640.12C2326 2633.66 2322.61 2627.74 2316.95 2624.63C2274.32 2601.14 2091.14 2503.86 1985.55 2506.04C1985.17 2506.04 1984.83 2506.06 1984.46 2506.1C1974.12 2507.08 1815.79 2523.44 1652.78 2618.81Z" fill="#E681FF"/>
<path d="M1985.69 2513.03C2036.86 2511.98 2107.83 2535.18 2172.15 2562.17C2236.15 2589.01 2292.36 2619.07 2313.58 2630.76C2316.93 2632.6 2319 2636.13 2319 2640.12V2809.87C2319 2814.19 2316.57 2817.96 2312.78 2819.65C2290.95 2829.43 2237.04 2852.82 2176.17 2873.76C2115.05 2894.79 2047.85 2913 1999.11 2913C1950.06 2913 1876.96 2893.38 1809.41 2870.83C1742.15 2848.39 1681.42 2823.4 1657.52 2813.31C1653.57 2811.64 1651 2807.75 1651 2803.36V2634.19C1651 2630.33 1653.04 2626.76 1656.31 2624.85C1818.06 2530.23 1975.21 2514.01 1985.12 2513.07C1985.31 2513.05 1985.48 2513.04 1985.69 2513.03Z" stroke="#3B0F46" stroke-width="14"/>
</g>
<g filter="url(#filter7_d_1737_206)">
<path d="M871.378 2503.15C884.856 2499.36 899.121 2499.36 912.6 2503.15C926.424 2507.04 947.733 2509.26 979.142 2504.29C1042.53 2494.25 1151.05 2464.81 1196.46 2530.63C1220.39 2565.4 1206.99 2634.77 1230.27 2677.76C1236 2688.44 1239 2700.37 1239 2712.49C1239 2724.61 1236 2736.54 1230.27 2747.23C1206.99 2790.11 1220.39 2859.58 1196.46 2894.35C1151.19 2960.22 1042.46 2930.73 979.142 2920.69C947.733 2915.73 926.424 2917.94 912.6 2921.84C899.121 2925.62 884.856 2925.62 871.378 2921.84C857.589 2917.94 836.279 2915.73 804.835 2920.69C741.443 2930.73 632.927 2960.22 587.514 2894.35C563.626 2859.58 577.02 2790.22 553.705 2747.23C547.99 2736.54 545 2724.61 545 2712.49C545 2700.38 547.99 2688.45 553.705 2677.76C577.02 2634.87 563.626 2565.4 587.514 2530.63C632.784 2464.81 741.515 2494.25 804.835 2504.29C836.279 2509.26 857.589 2506.97 871.378 2503.15Z" fill="#E681FF"/>
<path d="M1094.61 2496.01C1134.58 2495.63 1170 2504.61 1190.7 2534.6V2534.6C1195.92 2542.19 1199.32 2552.01 1201.71 2563.65C1204.09 2575.28 1205.36 2588.18 1206.64 2601.77C1209.11 2627.97 1211.58 2657.15 1223.54 2680.01L1224.12 2681.09C1229.29 2690.75 1232 2701.54 1232 2712.49C1232 2723.46 1229.29 2734.25 1224.1 2743.92C1211.65 2766.88 1209.15 2796.57 1206.64 2823.18C1205.36 2836.78 1204.09 2849.68 1201.71 2861.32C1199.32 2872.97 1195.92 2882.79 1190.7 2890.39L1190.69 2890.39C1170.07 2920.39 1134.64 2929.37 1094.64 2928.99C1054.57 2928.6 1012.59 2918.91 980.238 2913.78H980.235C949.038 2908.85 927.086 2910.75 912.127 2914.71L910.706 2915.1C898.466 2918.54 885.511 2918.54 873.271 2915.1C858.324 2910.88 835.971 2908.69 803.742 2913.78L803.739 2913.78C771.353 2918.91 729.405 2928.6 689.365 2928.99C649.4 2929.37 613.979 2920.4 593.283 2890.39C588.067 2882.8 584.672 2872.98 582.291 2861.34C579.912 2849.71 578.646 2836.81 577.364 2823.22C574.855 2796.6 572.339 2766.9 559.858 2743.89C554.698 2734.23 552 2723.44 552 2712.49C552 2701.55 554.697 2690.76 559.854 2681.1L559.855 2681.1C572.34 2658.14 574.855 2628.43 577.364 2601.81C578.646 2588.21 579.911 2575.3 582.291 2563.66C584.672 2552.01 588.067 2542.19 593.282 2534.6C613.904 2504.61 649.336 2495.63 689.339 2496.01C729.405 2496.39 771.393 2506.08 803.738 2511.21L803.742 2511.21C836 2516.3 858.338 2514.03 873.248 2509.89L873.271 2509.89C885.511 2506.45 898.466 2506.45 910.706 2509.89V2509.89C925.684 2514.11 948.036 2516.3 980.235 2511.21H980.237C1012.62 2506.08 1054.57 2496.39 1094.61 2496.01Z" stroke="#3B0F46" stroke-width="14"/>
</g>
<g filter="url(#filter8_d_1737_206)">
<path d="M3946.55 1496.37C3946.55 1498.14 3946.2 1499.9 3945.53 1501.54C3944.85 1503.18 3943.86 1504.67 3942.61 1505.92C3941.37 1507.18 3939.89 1508.17 3938.26 1508.85C3936.63 1509.53 3934.88 1509.88 3933.11 1509.88H3907.89C3905.15 1509.88 3902.47 1510.72 3900.21 1512.3C3897.96 1513.88 3896.25 1516.12 3895.3 1518.72C3887.98 1538.86 3884.32 1541.29 3866.02 1577.11C3846.8 1615.11 3836 1661.8 3836 1713.35C3836 1764.9 3846.98 1811.7 3866.02 1849.59C3884.14 1885.42 3887.98 1887.85 3895.3 1907.99C3896.25 1910.58 3897.96 1912.82 3900.21 1914.4C3902.47 1915.98 3905.15 1916.83 3907.89 1916.83H3933.11C3934.88 1916.83 3936.63 1917.18 3938.26 1917.85C3939.89 1918.53 3941.37 1919.53 3942.61 1920.78C3943.86 1922.04 3944.85 1923.53 3945.53 1925.17C3946.2 1926.81 3946.55 1928.56 3946.55 1930.34C3946.53 1932.11 3946.86 1933.88 3947.52 1935.52C3948.17 1937.17 3949.15 1938.67 3950.38 1939.94C3951.61 1941.21 3953.08 1942.22 3954.71 1942.91C3956.33 1943.61 3958.07 1943.98 3959.84 1944H4381.05C4382.82 1944 4384.57 1943.65 4386.2 1942.97C4387.83 1942.29 4389.31 1941.3 4390.55 1940.04C4391.8 1938.79 4392.79 1937.3 4393.47 1935.66C4394.14 1934.02 4394.49 1932.26 4394.49 1930.49C4394.49 1926.9 4395.9 1923.47 4398.42 1920.93C4400.94 1918.4 4404.36 1916.97 4407.92 1916.97H4433.14C4435.89 1916.98 4438.57 1916.13 4440.82 1914.55C4443.08 1912.97 4444.79 1910.73 4445.74 1908.14C4453.06 1888 4456.72 1885.56 4475.02 1849.74C4494.24 1811.74 4505 1765.05 4505 1713.5C4505 1661.95 4494.24 1615.15 4475.02 1577.26C4456.9 1541.43 4453.06 1539 4445.74 1518.86C4444.79 1516.27 4443.08 1514.03 4440.82 1512.45C4438.57 1510.87 4435.89 1510.02 4433.14 1510.03H4407.92C4406.16 1510.03 4404.41 1509.68 4402.78 1509C4401.15 1508.32 4399.67 1507.32 4398.42 1506.07C4397.18 1504.81 4396.19 1503.32 4395.51 1501.68C4394.84 1500.05 4394.49 1498.29 4394.49 1496.51C4394.49 1492.93 4393.07 1489.49 4390.55 1486.96C4388.03 1484.42 4384.62 1483 4381.05 1483H3959.84C3956.32 1483.04 3952.97 1484.46 3950.48 1486.96C3948 1489.46 3946.59 1492.83 3946.55 1496.37Z" fill="#8D83FF"/>
<path d="M4381.05 1490C4382.75 1490 4384.38 1490.68 4385.59 1491.89C4386.8 1493.11 4387.49 1494.77 4387.49 1496.51C4387.49 1499.2 4388.01 1501.86 4389.04 1504.35C4390.06 1506.84 4391.56 1509.1 4393.46 1511C4395.36 1512.91 4397.61 1514.43 4400.09 1515.46C4402.57 1516.49 4405.23 1517.03 4407.92 1517.03H4433.15C4434.45 1517.03 4435.73 1517.43 4436.8 1518.18C4437.88 1518.94 4438.7 1520.01 4439.16 1521.26C4442.97 1531.73 4445.92 1537.7 4450.18 1545.53C4454.37 1553.22 4459.78 1562.63 4468.77 1580.42L4468.78 1580.43C4487.43 1617.21 4498 1662.9 4498 1713.5C4498 1764.1 4487.43 1809.68 4468.77 1846.58C4459.68 1864.38 4454.29 1873.77 4450.1 1881.49C4445.86 1889.33 4442.96 1895.29 4439.16 1905.74C4438.7 1906.99 4437.88 1908.06 4436.8 1908.82C4435.73 1909.57 4434.45 1909.97 4433.15 1909.97H4407.92C4402.49 1909.97 4397.29 1912.14 4393.46 1916C4389.63 1919.85 4387.49 1925.06 4387.49 1930.49C4387.49 1931.35 4387.32 1932.2 4386.99 1932.99C4386.67 1933.78 4386.19 1934.5 4385.59 1935.11C4384.99 1935.71 4384.28 1936.19 4383.5 1936.51C4382.73 1936.83 4381.89 1937 4381.05 1937H3959.91C3959.07 1936.99 3958.24 1936.82 3957.47 1936.48C3956.69 1936.15 3955.99 1935.67 3955.4 1935.06C3954.81 1934.45 3954.34 1933.73 3954.02 1932.93C3953.7 1932.13 3953.54 1931.28 3953.55 1930.42V1930.34C3953.55 1927.65 3953.02 1924.99 3952 1922.5C3950.97 1920.02 3949.47 1917.76 3947.58 1915.85C3945.68 1913.94 3943.43 1912.43 3940.95 1911.39C3938.47 1910.36 3935.8 1909.83 3933.11 1909.83H3907.89C3906.59 1909.83 3905.31 1909.43 3904.24 1908.67C3903.23 1907.96 3902.44 1906.98 3901.97 1905.82L3901.88 1905.59C3898.07 1895.12 3895.12 1889.15 3890.86 1881.32C3886.67 1873.63 3881.26 1864.23 3872.27 1846.45C3853.78 1809.64 3843 1763.93 3843 1713.35C3843 1662.77 3853.6 1617.19 3872.25 1580.3C3881.35 1562.49 3886.75 1553.09 3890.93 1545.37C3895.18 1537.52 3898.08 1531.56 3901.88 1521.11C3902.33 1519.86 3903.16 1518.79 3904.24 1518.03C3905.31 1517.28 3906.58 1516.88 3907.89 1516.88H3933.11C3935.8 1516.88 3938.47 1516.35 3940.95 1515.31C3943.43 1514.28 3945.68 1512.76 3947.58 1510.86C3949.47 1508.95 3950.97 1506.69 3952 1504.2C3953.01 1501.74 3953.54 1499.1 3953.55 1496.44L3953.55 1496.44C3953.57 1494.73 3954.25 1493.09 3955.45 1491.89C3956.57 1490.77 3958.04 1490.1 3959.6 1490.01L3959.91 1490H4381.05Z" stroke="#19154A" stroke-width="14"/>
</g>
<g filter="url(#filter9_d_1737_206)">
<path d="M3357.59 1947.04C3359.35 1964.61 3344.61 1979.41 3327.03 1977.71L3079.74 1953.78C3078.59 1953.67 3077.43 1953.67 3076.27 1953.78L2828.97 1977.71C2811.39 1979.41 2796.65 1964.62 2798.41 1947.04L2821.38 1718.3C2821.5 1717.1 2821.5 1715.9 2821.38 1714.7L2798.41 1485.96C2796.65 1468.38 2811.39 1453.59 2828.97 1455.29L3076.27 1479.22C3077.43 1479.33 3078.59 1479.33 3079.74 1479.22L3327.04 1455.29C3344.61 1453.59 3359.36 1468.38 3357.6 1485.95L3334.63 1715.03C3334.51 1716.23 3334.51 1717.43 3334.63 1718.63L3357.59 1947.04Z" fill="#8D83FF"/>
<path d="M3327.71 1462.25C3340.89 1460.98 3351.95 1472.07 3350.63 1485.25L3327.67 1714.33C3327.52 1715.79 3327.5 1717.25 3327.61 1718.71L3327.67 1719.33L3350.62 1947.74C3351.95 1960.92 3340.89 1972.02 3327.7 1970.75L3080.42 1946.81H3080.42C3078.81 1946.66 3077.2 1946.66 3075.6 1946.81L2828.29 1970.75C2815.11 1972.02 2804.05 1960.92 2805.38 1947.74L2828.35 1719C2828.51 1717.34 2828.51 1715.66 2828.35 1714L2805.38 1485.26C2804.05 1472.08 2815.11 1460.98 2828.29 1462.25L3075.6 1486.19C3077.2 1486.34 3078.81 1486.34 3080.42 1486.19L3327.71 1462.25Z" stroke="#19154A" stroke-width="14"/>
</g>
<g filter="url(#filter10_d_1737_206)">
<path d="M2236.37 1959.01C2228.04 1967.93 2216.39 1973 2204.19 1973H1765.27C1753.07 1973 1741.42 1967.93 1733.09 1959.01L1655.83 1876.18C1648.23 1868.04 1644 1857.31 1644 1846.17V1579.71C1644 1568.57 1648.23 1557.85 1655.83 1549.7L1732.05 1467.99C1740.37 1459.07 1752.03 1454 1764.23 1454H2223.71C2224.12 1454 2224.52 1454.17 2224.81 1454.48L2314.17 1550.28C2321.77 1558.43 2326 1569.15 2326 1580.29V1862.26C2326 1862.69 2325.84 1863.1 2325.55 1863.41L2236.37 1959.01Z" fill="#8D83FF"/>
<path d="M1764.23 1461H2221.32L2309.06 1555.05C2315.45 1561.91 2319 1570.92 2319 1580.29V1860.17L2231.25 1954.24V1954.24C2224.25 1961.74 2214.45 1966 2204.19 1966H1765.27C1755.01 1966 1745.21 1961.74 1738.21 1954.24L1660.94 1871.41C1654.55 1864.56 1651 1855.54 1651 1846.17V1579.71C1651 1570.35 1654.55 1561.33 1660.94 1554.47L1737.17 1472.76C1744.17 1465.26 1753.97 1461 1764.23 1461Z" stroke="#19154A" stroke-width="14"/>
</g>
<g filter="url(#filter11_d_1737_206)">
<path d="M1239 1791.72L1238.74 1627.46C1238.72 1609.95 1234.09 1592.76 1225.33 1577.62C1216.56 1562.47 1203.97 1549.91 1188.82 1541.19L1046.71 1459.28C1031.56 1450.55 1014.39 1445.97 996.914 1446C979.439 1446.03 962.279 1450.66 947.158 1459.43L935.566 1466.16C920.452 1474.94 903.297 1479.58 885.827 1479.61C868.356 1479.64 851.184 1475.07 836.038 1466.35L-nan -nanL836.038 1466.35C820.891 1457.61 803.716 1453.03 786.241 1453.06C768.765 1453.09 751.604 1457.72 736.484 1466.5L594.635 1548.85C579.517 1557.63 566.97 1570.23 558.257 1585.4C549.545 1600.58 544.972 1617.78 545 1635.28L545.26 1799.54C545.283 1817.04 549.906 1834.23 558.665 1849.37C567.423 1864.52 580.008 1877.09 595.153 1885.81L737.288 1967.72C752.437 1976.45 769.611 1981.03 787.086 1981C804.561 1980.97 821.721 1976.34 836.842 1967.57L848.434 1960.84C863.548 1952.06 880.703 1947.42 898.173 1947.39C915.644 1947.36 932.816 1951.93 947.962 1960.65L-nan -nanL947.962 1960.65C963.109 1969.39 980.284 1973.97 997.759 1973.94C1015.24 1973.91 1032.4 1969.28 1047.52 1960.5L1189.37 1878.15C1204.48 1869.37 1217.03 1856.77 1225.74 1841.6C1234.46 1826.42 1239.03 1809.22 1239 1791.72Z" fill="#8D83FF"/>
<path d="M996.925 1453C1013.17 1452.97 1029.13 1457.23 1043.22 1465.34V1465.34L1185.33 1547.25L1185.33 1547.25C1199.41 1555.36 1211.12 1567.04 1219.27 1581.12C1227.42 1595.21 1231.72 1611.19 1231.74 1627.47V1627.47L1232 1791.73C1232.03 1808.01 1227.77 1824 1219.67 1838.11C1211.57 1852.22 1199.91 1863.94 1185.85 1872.09L1185.85 1872.09L1044 1954.45C1029.95 1962.61 1013.99 1966.92 997.748 1966.94C981.504 1966.97 965.539 1962.71 951.458 1954.59L948.369 1959.95L951.456 1954.59C935.244 1945.25 916.863 1940.35 898.161 1940.39C879.46 1940.42 861.097 1945.39 844.92 1954.78L833.328 1961.51C819.271 1969.67 803.319 1973.97 787.075 1974C770.831 1974.03 754.865 1969.77 740.782 1961.66H740.781L598.648 1879.75H598.647C584.568 1871.64 572.868 1859.95 564.725 1845.87C556.581 1831.79 552.281 1815.81 552.26 1799.53V1799.53L552 1635.27C551.974 1618.99 556.227 1603 564.328 1588.89C572.429 1574.78 584.094 1563.06 598.148 1554.91L598.149 1554.91L739.999 1472.55C754.055 1464.39 770.008 1460.08 786.252 1460.06C802.496 1460.03 818.461 1464.29 832.542 1472.41L836.038 1466.35L832.544 1472.41C848.756 1481.75 867.137 1486.65 885.839 1486.61C904.541 1486.58 922.903 1481.61 939.081 1472.22L950.672 1465.49L950.671 1465.49C964.728 1457.33 980.681 1453.03 996.925 1453Z" stroke="#19154A" stroke-width="14"/>
</g>
<g filter="url(#filter12_d_1737_206)">
<path d="M3958.3 452C3958.3 452 3958.3 452 3958.3 452H4383.7C4396.78 452 4409.32 457.194 4418.56 466.439C4427.81 475.684 4433 488.223 4433 501.298V714.012C4433 748.418 4426.22 782.488 4413.06 814.276C4399.89 846.063 4380.59 874.946 4356.26 899.274C4331.93 923.602 4303.05 942.899 4271.26 956.064C4239.47 969.229 4205.41 976.003 4171 976L-nan -nanL4171 976C4136.59 976.003 4102.53 969.229 4070.74 956.064C4038.95 942.899 4010.07 923.602 3985.74 899.274C3961.41 874.946 3942.11 846.063 3928.94 814.276C3915.78 782.488 3909 748.418 3909 714.012V501.298C3909 488.223 3914.19 475.684 3923.44 466.439C3932.68 457.194 3945.22 452 3958.3 452C3958.3 452 3958.3 452 3958.3 452Z" fill="#BC7AFF"/>
<path d="M3958.3 459H4383.7C4394.92 459 4405.68 463.456 4413.61 471.389C4421.54 479.321 4426 490.08 4426 501.298V714.012C4426 747.499 4419.4 780.659 4406.59 811.597C4393.77 842.535 4374.99 870.646 4351.31 894.324C4327.63 918.002 4299.52 936.784 4268.58 949.597C4237.65 962.41 4204.49 969.003 4171 969L4171 972.674L4171 969C4137.51 969.003 4104.35 962.41 4073.42 949.597C4042.48 936.784 4014.37 918.002 3990.69 894.324C3967.01 870.646 3948.23 842.535 3935.41 811.597C3922.6 780.659 3916 747.499 3916 714.012V501.298C3916 490.08 3920.46 479.321 3928.39 471.389C3936.32 463.456 3947.08 459 3958.3 459Z" stroke="#26103D" stroke-width="14"/>
</g>
<g filter="url(#filter13_d_1737_206)">
<path d="M3412 626.934C3412 529.768 3262.24 451 3077.5 451C2892.76 451 2743 529.768 2743 626.934V805.066C2743 902.232 2892.76 981 3077.5 981C3262.24 981 3412 902.232 3412 805.066V626.934Z" fill="#BC7AFF"/>
<path d="M3077.5 458C3168.97 458 3251.43 477.514 3310.77 508.725C3370.43 540.106 3405 582.245 3405 626.934V805.066C3405 849.755 3370.43 891.894 3310.77 923.274C3251.43 954.485 3168.97 974 3077.5 974C2986.03 974 2903.57 954.485 2844.23 923.274C2784.57 891.894 2750 849.755 2750 805.066V626.934C2750 582.245 2784.57 540.106 2844.23 508.725C2903.57 477.514 2986.03 458 3077.5 458Z" stroke="#26103D" stroke-width="14"/>
</g>
<g filter="url(#filter14_d_1737_206)">
<path d="M1921.82 398.306C1937.93 387.272 1959.17 387.272 1975.29 398.306C1986.79 406.179 2001.17 408.583 2014.61 404.874C2033.42 399.678 2053.51 406.596 2065.16 422.256C2073.48 433.438 2086.32 440.4 2100.23 441.26C2119.71 442.464 2136.47 455.543 2142.41 474.136C2146.65 487.416 2156.54 498.181 2169.41 503.518C2187.45 510.994 2199.06 528.805 2198.65 548.327C2198.36 562.271 2204.21 575.663 2214.66 584.899C2229.31 597.838 2234.51 618.446 2227.79 636.791C2222.99 649.891 2224.19 664.454 2231.08 676.587C2240.73 693.583 2238.98 714.762 2226.66 729.939C2217.87 740.772 2214.3 754.941 2216.88 768.65C2220.49 787.845 2211.97 807.32 2195.41 817.669C2183.58 825.056 2175.6 837.303 2173.6 851.102C2170.79 870.422 2156.42 886.082 2137.4 890.482C2123.82 893.623 2112.3 902.61 2105.93 915.009C2097.02 932.372 2078.34 942.509 2058.92 940.486C2045.06 939.042 2031.26 943.789 2021.22 953.448C2007.14 966.98 1986.19 970.487 1968.49 962.261C1955.85 956.388 1941.26 956.388 1928.62 962.261C1910.92 970.487 1889.96 966.98 1875.89 953.448C1865.85 943.789 1852.05 939.042 1838.18 940.486C1818.77 942.509 1800.09 932.372 1791.17 915.009C1784.81 902.61 1773.29 893.623 1759.71 890.482C1740.69 886.082 1726.31 870.422 1723.51 851.102C1721.51 837.303 1713.53 825.056 1701.7 817.669C1685.13 807.32 1676.61 787.845 1680.23 768.65C1682.81 754.941 1679.23 740.772 1670.44 729.939C1658.13 714.762 1656.38 693.583 1666.03 676.587C1672.92 664.454 1674.12 649.891 1669.32 636.791C1662.6 618.446 1667.8 597.838 1682.44 584.899C1692.89 575.663 1698.75 562.271 1698.46 548.327C1698.05 528.805 1709.65 510.994 1727.69 503.518C1740.57 498.181 1750.46 487.416 1754.7 474.136C1760.64 455.543 1777.4 442.464 1796.88 441.26C1810.79 440.4 1823.62 433.438 1831.94 422.256C1843.6 406.595 1863.69 399.678 1882.5 404.874C1895.94 408.583 1910.32 406.179 1921.82 398.306Z" fill="#BC7AFF"/>
<path d="M1925.78 404.081C1939.5 394.68 1957.6 394.68 1971.33 404.081C1984.53 413.12 2001.05 415.879 2016.47 411.621C2032.5 407.196 2049.62 413.088 2059.55 426.435C2069.1 439.268 2083.83 447.259 2099.8 448.246C2116.39 449.272 2130.68 460.417 2135.74 476.267C2140.61 491.504 2151.95 503.857 2166.74 509.984C2182.1 516.353 2192 531.536 2191.65 548.181C2191.32 564.178 2198.03 579.543 2210.03 590.145C2222.51 601.172 2226.95 618.741 2221.22 634.383C2215.71 649.413 2217.09 666.121 2224.99 680.043C2233.22 694.534 2231.73 712.59 2221.23 725.528C2211.14 737.96 2207.04 754.218 2210 769.945C2213.08 786.311 2205.81 802.913 2191.7 811.731C2178.12 820.212 2168.97 834.264 2166.67 850.097C2164.28 866.567 2152.02 879.914 2135.82 883.662C2120.23 887.269 2107.01 897.583 2099.71 911.812C2092.1 926.611 2076.18 935.247 2059.65 933.523C2043.74 931.865 2027.89 937.315 2016.36 948.402C2004.37 959.934 1986.52 962.921 1971.44 955.913C1956.93 949.172 1940.18 949.172 1925.67 955.913C1910.59 962.921 1892.74 959.934 1880.74 948.402C1869.21 937.315 1853.37 931.865 1837.46 933.523C1820.92 935.247 1805 926.611 1797.4 911.812C1790.09 897.583 1776.88 887.269 1761.29 883.662C1745.09 879.914 1732.83 866.567 1730.44 850.097C1728.14 834.264 1718.99 820.212 1705.41 811.731C1691.29 802.914 1684.03 786.311 1687.11 769.945C1690.07 754.218 1685.97 737.96 1675.88 725.528C1665.38 712.59 1663.89 694.534 1672.12 680.043C1680.02 666.121 1681.4 649.413 1675.89 634.383C1670.16 618.741 1674.6 601.173 1687.08 590.145C1699.07 579.543 1705.79 564.178 1705.46 548.181C1705.11 531.536 1715 516.353 1730.37 509.984C1745.16 503.857 1756.5 491.504 1761.37 476.267C1766.43 460.417 1780.72 449.272 1797.31 448.246C1813.28 447.259 1828.01 439.268 1837.56 426.435C1847.49 413.088 1864.61 407.196 1880.64 411.621C1896.06 415.879 1912.58 413.12 1925.78 404.081Z" stroke="#26103D" stroke-width="14"/>
</g>
<g filter="url(#filter15_d_1737_206)">
<path d="M899.155 973.916C1061.54 970.116 1192 837.294 1192 674C1192 508.315 1057.69 374 892 374C728.706 374 595.884 504.465 592.084 666.845L592.015 919.971C592.007 949.806 616.195 973.993 646.029 973.985L899.155 973.916Z" fill="#BC7AFF"/>
<path d="M892 381C1053.82 381 1185 512.181 1185 674C1185 833.458 1057.62 963.166 899.064 966.916L646.027 966.985C620.06 966.992 599.008 945.94 599.015 919.973L599.083 666.935C602.833 508.381 732.542 381 892 381Z" stroke="#26103D" stroke-width="14"/>
</g>
<defs>
<filter id="filter0_d_1737_206" x="3835" y="3550" width="694" height="380.702" filterUnits="userSpaceOnUse" color-interpolation-filters="sRGB">
<feFlood flood-opacity="0" result="BackgroundImageFix"/>
<feColorMatrix in="SourceAlpha" type="matrix" values="0 0 0 0 0 0 0 0 0 0 0 0 0 0 0 0 0 0 127 0" result="hardAlpha"/>
<feOffset dx="22" dy="45"/>
<feComposite in2="hardAlpha" operator="out"/>
<feColorMatrix type="matrix" values="0 0 0 0 0.14902 0 0 0 0 0.0627451 0 0 0 0 0.239216 0 0 0 1 0"/>
<feBlend mode="normal" in2="BackgroundImageFix" result="effect1_dropShadow_1737_206"/>
<feBlend mode="normal" in="SourceGraphic" in2="effect1_dropShadow_1737_206" result="shape"/>
</filter>
<filter id="filter1_d_1737_206" x="2737" y="3563" width="704" height="355" filterUnits="userSpaceOnUse" color-interpolation-filters="sRGB">
<feFlood flood-opacity="0" result="BackgroundImageFix"/>
<feColorMatrix in="SourceAlpha" type="matrix" values="0 0 0 0 0 0 0 0 0 0 0 0 0 0 0 0 0 0 127 0" result="hardAlpha"/>
<feOffset dx="22" dy="45"/>
<feComposite in2="hardAlpha" operator="out"/>
<feColorMatrix type="matrix" values="0 0 0 0 0.14902 0 0 0 0 0.0627451 0 0 0 0 0.239216 0 0 0 1 0"/>
<feBlend mode="normal" in2="BackgroundImageFix" result="effect1_dropShadow_1737_206"/>
<feBlend mode="normal" in="SourceGraphic" in2="effect1_dropShadow_1737_206" result="shape"/>
</filter>
<filter id="filter2_d_1737_206" x="1638" y="3544" width="716" height="387" filterUnits="userSpaceOnUse" color-interpolation-filters="sRGB">
<feFlood flood-opacity="0" result="BackgroundImageFix"/>
<feColorMatrix in="SourceAlpha" type="matrix" values="0 0 0 0 0 0 0 0 0 0 0 0 0 0 0 0 0 0 127 0" result="hardAlpha"/>
<feOffset dx="22" dy="45"/>
<feComposite in2="hardAlpha" operator="out"/>
<feColorMatrix type="matrix" values="0 0 0 0 0.14902 0 0 0 0 0.0627451 0 0 0 0 0.239216 0 0 0 1 0"/>
<feBlend mode="normal" in2="BackgroundImageFix" result="effect1_dropShadow_1737_206"/>
<feBlend mode="normal" in="SourceGraphic" in2="effect1_dropShadow_1737_206" result="shape"/>
</filter>
<filter id="filter3_d_1737_206" x="583" y="3563" width="639" height="348" filterUnits="userSpaceOnUse" color-interpolation-filters="sRGB">
<feFlood flood-opacity="0" result="BackgroundImageFix"/>
<feColorMatrix in="SourceAlpha" type="matrix" values="0 0 0 0 0 0 0 0 0 0 0 0 0 0 0 0 0 0 127 0" result="hardAlpha"/>
<feOffset dx="22" dy="45"/>
<feComposite in2="hardAlpha" operator="out"/>
<feColorMatrix type="matrix" values="0 0 0 0 0.14902 0 0 0 0 0.0627451 0 0 0 0 0.239216 0 0 0 1 0"/>
<feBlend mode="normal" in2="BackgroundImageFix" result="effect1_dropShadow_1737_206"/>
<feBlend mode="normal" in="SourceGraphic" in2="effect1_dropShadow_1737_206" result="shape"/>
</filter>
<filter id="filter4_d_1737_206" x="3835" y="2549" width="694" height="373" filterUnits="userSpaceOnUse" color-interpolation-filters="sRGB">
<feFlood flood-opacity="0" result="BackgroundImageFix"/>
<feColorMatrix in="SourceAlpha" type="matrix" values="0 0 0 0 0 0 0 0 0 0 0 0 0 0 0 0 0 0 127 0" result="hardAlpha"/>
<feOffset dx="22" dy="45"/>
<feComposite in2="hardAlpha" operator="out"/>
<feColorMatrix type="matrix" values="0 0 0 0 0.231373 0 0 0 0 0.0588235 0 0 0 0 0.27451 0 0 0 1 0"/>
<feBlend mode="normal" in2="BackgroundImageFix" result="effect1_dropShadow_1737_206"/>
<feBlend mode="normal" in="SourceGraphic" in2="effect1_dropShadow_1737_206" result="shape"/>
</filter>
<filter id="filter5_d_1737_206" x="2737" y="2561" width="701.662" height="349" filterUnits="userSpaceOnUse" color-interpolation-filters="sRGB">
<feFlood flood-opacity="0" result="BackgroundImageFix"/>
<feColorMatrix in="SourceAlpha" type="matrix" values="0 0 0 0 0 0 0 0 0 0 0 0 0 0 0 0 0 0 127 0" result="hardAlpha"/>
<feOffset dx="22" dy="45"/>
<feComposite in2="hardAlpha" operator="out"/>
<feColorMatrix type="matrix" values="0 0 0 0 0.231373 0 0 0 0 0.0588235 0 0 0 0 0.27451 0 0 0 1 0"/>
<feBlend mode="normal" in2="BackgroundImageFix" result="effect1_dropShadow_1737_206"/>
<feBlend mode="normal" in="SourceGraphic" in2="effect1_dropShadow_1737_206" result="shape"/>
</filter>
<filter id="filter6_d_1737_206" x="1644" y="2506" width="704" height="459" filterUnits="userSpaceOnUse" color-interpolation-filters="sRGB">
<feFlood flood-opacity="0" result="BackgroundImageFix"/>
<feColorMatrix in="SourceAlpha" type="matrix" values="0 0 0 0 0 0 0 0 0 0 0 0 0 0 0 0 0 0 127 0" result="hardAlpha"/>
<feOffset dx="22" dy="45"/>
<feComposite in2="hardAlpha" operator="out"/>
<feColorMatrix type="matrix" values="0 0 0 0 0.231373 0 0 0 0 0.0588235 0 0 0 0 0.27451 0 0 0 1 0"/>
<feBlend mode="normal" in2="BackgroundImageFix" result="effect1_dropShadow_1737_206"/>
<feBlend mode="normal" in="SourceGraphic" in2="effect1_dropShadow_1737_206" result="shape"/>
</filter>
<filter id="filter7_d_1737_206" x="545" y="2489" width="716" height="492" filterUnits="userSpaceOnUse" color-interpolation-filters="sRGB">
<feFlood flood-opacity="0" result="BackgroundImageFix"/>
<feColorMatrix in="SourceAlpha" type="matrix" values="0 0 0 0 0 0 0 0 0 0 0 0 0 0 0 0 0 0 127 0" result="hardAlpha"/>
<feOffset dx="22" dy="45"/>
<feComposite in2="hardAlpha" operator="out"/>
<feColorMatrix type="matrix" values="0 0 0 0 0.231373 0 0 0 0 0.0588235 0 0 0 0 0.27451 0 0 0 1 0"/>
<feBlend mode="normal" in2="BackgroundImageFix" result="effect1_dropShadow_1737_206"/>
<feBlend mode="normal" in="SourceGraphic" in2="effect1_dropShadow_1737_206" result="shape"/>
</filter>
<filter id="filter8_d_1737_206" x="3836" y="1483" width="691" height="506" filterUnits="userSpaceOnUse" color-interpolation-filters="sRGB">
<feFlood flood-opacity="0" result="BackgroundImageFix"/>
<feColorMatrix in="SourceAlpha" type="matrix" values="0 0 0 0 0 0 0 0 0 0 0 0 0 0 0 0 0 0 127 0" result="hardAlpha"/>
<feOffset dx="22" dy="45"/>
<feComposite in2="hardAlpha" operator="out"/>
<feColorMatrix type="matrix" values="0 0 0 0 0.0980392 0 0 0 0 0.0823529 0 0 0 0 0.290196 0 0 0 1 0"/>
<feBlend mode="normal" in2="BackgroundImageFix" result="effect1_dropShadow_1737_206"/>
<feBlend mode="normal" in="SourceGraphic" in2="effect1_dropShadow_1737_206" result="shape"/>
</filter>
<filter id="filter9_d_1737_206" x="2798.27" y="1455.15" width="581.474" height="567.693" filterUnits="userSpaceOnUse" color-interpolation-filters="sRGB">
<feFlood flood-opacity="0" result="BackgroundImageFix"/>
<feColorMatrix in="SourceAlpha" type="matrix" values="0 0 0 0 0 0 0 0 0 0 0 0 0 0 0 0 0 0 127 0" result="hardAlpha"/>
<feOffset dx="22" dy="45"/>
<feComposite in2="hardAlpha" operator="out"/>
<feColorMatrix type="matrix" values="0 0 0 0 0.0980392 0 0 0 0 0.0823529 0 0 0 0 0.290196 0 0 0 1 0"/>
<feBlend mode="normal" in2="BackgroundImageFix" result="effect1_dropShadow_1737_206"/>
<feBlend mode="normal" in="SourceGraphic" in2="effect1_dropShadow_1737_206" result="shape"/>
</filter>
<filter id="filter10_d_1737_206" x="1644" y="1454" width="704" height="564" filterUnits="userSpaceOnUse" color-interpolation-filters="sRGB">
<feFlood flood-opacity="0" result="BackgroundImageFix"/>
<feColorMatrix in="SourceAlpha" type="matrix" values="0 0 0 0 0 0 0 0 0 0 0 0 0 0 0 0 0 0 127 0" result="hardAlpha"/>
<feOffset dx="22" dy="45"/>
<feComposite in2="hardAlpha" operator="out"/>
<feColorMatrix type="matrix" values="0 0 0 0 0.0980392 0 0 0 0 0.0823529 0 0 0 0 0.290196 0 0 0 1 0"/>
<feBlend mode="normal" in2="BackgroundImageFix" result="effect1_dropShadow_1737_206"/>
<feBlend mode="normal" in="SourceGraphic" in2="effect1_dropShadow_1737_206" result="shape"/>
</filter>
<filter id="filter11_d_1737_206" x="545" y="1446" width="716" height="580" filterUnits="userSpaceOnUse" color-interpolation-filters="sRGB">
<feFlood flood-opacity="0" result="BackgroundImageFix"/>
<feColorMatrix in="SourceAlpha" type="matrix" values="0 0 0 0 0 0 0 0 0 0 0 0 0 0 0 0 0 0 127 0" result="hardAlpha"/>
<feOffset dx="22" dy="45"/>
<feComposite in2="hardAlpha" operator="out"/>
<feColorMatrix type="matrix" values="0 0 0 0 0.0980392 0 0 0 0 0.0823529 0 0 0 0 0.290196 0 0 0 1 0"/>
<feBlend mode="normal" in2="BackgroundImageFix" result="effect1_dropShadow_1737_206"/>
<feBlend mode="normal" in="SourceGraphic" in2="effect1_dropShadow_1737_206" result="shape"/>
</filter>
<filter id="filter12_d_1737_206" x="3909" y="452" width="546" height="569" filterUnits="userSpaceOnUse" color-interpolation-filters="sRGB">
<feFlood flood-opacity="0" result="BackgroundImageFix"/>
<feColorMatrix in="SourceAlpha" type="matrix" values="0 0 0 0 0 0 0 0 0 0 0 0 0 0 0 0 0 0 127 0" result="hardAlpha"/>
<feOffset dx="22" dy="45"/>
<feComposite in2="hardAlpha" operator="out"/>
<feColorMatrix type="matrix" values="0 0 0 0 0.14902 0 0 0 0 0.0627451 0 0 0 0 0.239216 0 0 0 1 0"/>
<feBlend mode="normal" in2="BackgroundImageFix" result="effect1_dropShadow_1737_206"/>
<feBlend mode="normal" in="SourceGraphic" in2="effect1_dropShadow_1737_206" result="shape"/>
</filter>
<filter id="filter13_d_1737_206" x="2743" y="451" width="691" height="575" filterUnits="userSpaceOnUse" color-interpolation-filters="sRGB">
<feFlood flood-opacity="0" result="BackgroundImageFix"/>
<feColorMatrix in="SourceAlpha" type="matrix" values="0 0 0 0 0 0 0 0 0 0 0 0 0 0 0 0 0 0 127 0" result="hardAlpha"/>
<feOffset dx="22" dy="45"/>
<feComposite in2="hardAlpha" operator="out"/>
<feColorMatrix type="matrix" values="0 0 0 0 0.14902 0 0 0 0 0.0627451 0 0 0 0 0.239216 0 0 0 1 0"/>
<feBlend mode="normal" in2="BackgroundImageFix" result="effect1_dropShadow_1737_206"/>
<feBlend mode="normal" in="SourceGraphic" in2="effect1_dropShadow_1737_206" result="shape"/>
</filter>
<filter id="filter14_d_1737_206" x="1659.84" y="390.031" width="599.434" height="621.632" filterUnits="userSpaceOnUse" color-interpolation-filters="sRGB">
<feFlood flood-opacity="0" result="BackgroundImageFix"/>
<feColorMatrix in="SourceAlpha" type="matrix" values="0 0 0 0 0 0 0 0 0 0 0 0 0 0 0 0 0 0 127 0" result="hardAlpha"/>
<feOffset dx="22" dy="45"/>
<feComposite in2="hardAlpha" operator="out"/>
<feColorMatrix type="matrix" values="0 0 0 0 0.14902 0 0 0 0 0.0627451 0 0 0 0 0.239216 0 0 0 1 0"/>
<feBlend mode="normal" in2="BackgroundImageFix" result="effect1_dropShadow_1737_206"/>
<feBlend mode="normal" in="SourceGraphic" in2="effect1_dropShadow_1737_206" result="shape"/>
</filter>
<filter id="filter15_d_1737_206" x="592.015" y="374" width="621.985" height="644.985" filterUnits="userSpaceOnUse" color-interpolation-filters="sRGB">
<feFlood flood-opacity="0" result="BackgroundImageFix"/>
<feColorMatrix in="SourceAlpha" type="matrix" values="0 0 0 0 0 0 0 0 0 0 0 0 0 0 0 0 0 0 127 0" result="hardAlpha"/>
<feOffset dx="22" dy="45"/>
<feComposite in2="hardAlpha" operator="out"/>
<feColorMatrix type="matrix" values="0 0 0 0 0.14902 0 0 0 0 0.0627451 0 0 0 0 0.239216 0 0 0 1 0"/>
<feBlend mode="normal" in2="BackgroundImageFix" result="effect1_dropShadow_1737_206"/>
<feBlend mode="normal" in="SourceGraphic" in2="effect1_dropShadow_1737_206" result="shape"/>
</filter>
</defs>
</svg>
