<svg width="152" height="158" viewBox="0 0 152 158" fill="none" xmlns="http://www.w3.org/2000/svg">
<path fill-rule="evenodd" clip-rule="evenodd" d="M126.58 32.9952L120.452 33.3987C118.933 33.1091 117.383 33.0456 115.847 33.2103C114.238 33.5674 107.33 40.9033 107.33 40.9033C107.33 40.9033 111.619 45.9273 114.351 46.6338C114.351 46.6338 114.495 51.9184 114.729 53.7074C114.962 55.4964 114.285 61.8431 114.285 61.8431C114.285 61.8431 127.128 63.2922 131.277 62.446C131.277 62.446 131.172 50.4724 133.385 47.2516C133.385 47.2516 139.148 45.501 142.128 40.5461C142.128 40.5461 134.026 32.7856 131.385 32.4041C129.762 32.3002 128.134 32.5005 126.58 32.9952Z" fill="white"/>
<path fill-rule="evenodd" clip-rule="evenodd" d="M119.432 21.0537C118.828 21.6761 118.44 22.4892 118.328 23.3656C118.242 24.6734 118.89 24.7919 118.357 25.9561C118.122 26.451 118.002 26.9956 118.005 27.5471C118.009 28.0986 118.135 28.6418 118.375 29.1337C118.788 29.8347 119.271 31.5774 120.158 31.7965C120.311 32.7824 120.557 33.7503 120.893 34.686C121.204 35.1523 122.758 35.3023 126.597 32.981C126.597 32.981 125.415 30.783 126.575 28.8684C126.575 28.8684 128.085 27.9884 128.129 26.9844C128.181 25.7284 127.263 26.0581 127.263 26.0581C127.263 26.0581 126.149 27.3063 125.441 27.0488C124.734 26.7913 125.261 25.646 125.361 25.0619C125.423 24.6118 125.443 24.1564 125.42 23.7023L124.9 23.6552C124.9 23.6552 124.841 21.0129 123.294 21.3709C121.416 21.8066 121.029 20.8214 120.399 20.8386C119.614 20.863 119.432 21.0537 119.432 21.0537Z" fill="#FFD997"/>
<path fill-rule="evenodd" clip-rule="evenodd" d="M127.545 26.0063C127.613 25.3705 127.696 24.525 127.696 24.525C126.968 24.1664 126.207 23.8888 125.423 23.6968C125.518 24.2231 125.471 24.7665 125.288 25.2668C124.979 26.0063 124.812 27.0943 125.749 27.0378C126.687 26.9813 126.892 25.9992 127.545 26.0063Z" fill="#81F8F8"/>
<path d="M118.274 23.375C118.381 23.1302 118.546 22.917 118.752 22.7544C118.959 22.5918 119.201 22.4849 119.457 22.4432C119.688 22.4398 119.917 22.4906 120.128 22.5916C120.338 22.6927 120.523 22.8416 120.671 23.0272C120.729 23.1001 120.761 23.1926 120.759 23.2875C120.757 23.3825 120.722 23.4735 120.66 23.5437C120.598 23.6138 120.514 23.6584 120.424 23.6691C120.333 23.6798 120.241 23.6559 120.166 23.6019C119.958 23.4778 119.715 23.4338 119.478 23.4778C119.242 23.5217 119.028 23.6507 118.875 23.8421C118.811 23.9125 118.725 23.9561 118.632 23.9646C118.54 23.973 118.448 23.9458 118.373 23.888C118.299 23.8302 118.248 23.7459 118.229 23.6513C118.211 23.5566 118.227 23.4583 118.274 23.375Z" fill="black"/>
<path d="M123.45 24.2095C123.383 24.0804 123.291 23.9678 123.179 23.8796C123.067 23.7913 122.937 23.7294 122.8 23.6981C122.662 23.6668 122.52 23.6669 122.383 23.6984C122.245 23.7299 122.116 23.7921 122.004 23.8805C121.934 23.9376 121.846 23.967 121.757 23.9634C121.668 23.9599 121.583 23.9236 121.517 23.861C121.451 23.7985 121.409 23.7137 121.397 23.6217C121.386 23.5297 121.406 23.4365 121.454 23.3585C122.204 22.159 123.361 22.5735 124.071 23.7651C124.122 23.8509 124.14 23.9537 124.12 24.0524C124.1 24.1511 124.044 24.238 123.964 24.2951C123.884 24.3523 123.786 24.3752 123.69 24.3593C123.595 24.3433 123.508 24.2897 123.45 24.2095Z" fill="black"/>
<path d="M120.003 27.1053C119.588 27.1414 119.087 26.9538 119.078 26.5221C119.078 26.3886 119.066 25.9796 120.459 24.7652C120.536 24.7024 120.634 24.6732 120.731 24.6838C120.829 24.6944 120.919 24.744 120.981 24.8221C121.044 24.9001 121.076 25.0006 121.069 25.1022C121.062 25.2038 121.017 25.2986 120.944 25.3665C120.605 25.6592 120.287 25.9769 119.993 26.3172C120.018 26.3139 120.044 26.3084 120.068 26.3007C120.161 26.2708 120.262 26.2796 120.349 26.3253C120.436 26.3709 120.503 26.4499 120.536 26.5456C120.611 26.6916 120.864 26.5943 121.01 26.5197C121.183 26.4302 121.436 26.5354 121.841 26.4365C121.847 26.3493 121.881 26.2666 121.937 26.2016C121.993 26.1367 122.069 26.0931 122.152 26.0779C122.235 26.0626 122.32 26.0766 122.394 26.1175C122.469 26.1585 122.528 26.224 122.562 26.3038C122.605 26.3956 122.624 26.4975 122.617 26.5994C122.61 26.7012 122.578 26.7993 122.523 26.8839C122.289 27.238 121.671 27.2764 121.257 27.2678C121.06 27.3885 120.83 27.4379 120.603 27.4085C120.377 27.3792 120.166 27.2725 120.003 27.1053Z" fill="black"/>
<path d="M121.55 28.0065C120.893 27.8238 120.208 27.7706 119.531 27.8495C119.435 27.8356 119.342 27.8015 119.258 27.7493C119.174 27.6971 119.102 27.6278 119.044 27.5457C119.276 27.8895 119.484 28.2502 119.667 28.6251C119.878 29.1008 120.473 29.2868 121.343 29.0804C121.917 28.8789 122.411 28.4853 122.747 27.961C122.61 28.0889 122.289 28.2239 121.55 28.0065Z" fill="white"/>
<path d="M120.687 29.5584C120.412 29.5884 120.134 29.5311 119.891 29.3939C119.647 29.2567 119.45 29.0462 119.323 28.7899C119.151 28.4359 118.954 28.0953 118.734 27.771C118.705 27.729 118.684 27.6816 118.673 27.6313C118.662 27.5811 118.66 27.529 118.668 27.4781C118.676 27.4271 118.694 27.3784 118.72 27.3346C118.746 27.2907 118.781 27.2527 118.821 27.2227C118.861 27.1926 118.907 27.1711 118.955 27.1594C119.004 27.1477 119.054 27.146 119.103 27.1544C119.152 27.1629 119.199 27.1812 119.241 27.2085C119.283 27.2358 119.319 27.2714 119.348 27.3133C119.619 27.676 120.044 27.1563 121.65 27.6273C121.91 27.7413 122.2 27.7601 122.472 27.6807C122.491 27.6525 122.507 27.6266 122.52 27.6022C122.807 27.1234 123.577 27.643 123.028 28.2177C122.778 28.6284 122.433 28.9667 122.023 29.2011C121.614 29.4355 121.154 29.5584 120.687 29.5584ZM119.896 28.2287C119.937 28.3072 119.972 28.3857 120.009 28.4642C120.143 28.7656 120.607 28.8567 121.258 28.6997C121.433 28.6538 121.599 28.5739 121.745 28.4642C121.149 28.2629 120.522 28.1829 119.896 28.2287Z" fill="black"/>
<path d="M108.617 42.3076L106.862 44.5119C106.114 44.4291 105.36 44.4325 104.613 44.5221C103.279 44.6665 95.166 42.215 95.1584 42.0541C95.1424 41.2875 94.9811 40.5317 94.6835 39.8302C94.2192 38.8803 93.4385 38.6527 93.5442 37.673C93.6499 36.6933 93.5442 36.2247 93.1818 36.2262C92.8194 36.2278 92.0992 37.1148 92.4963 39.0593C92.0499 38.9448 91.5882 38.9093 91.1305 38.9541C90.9938 38.9708 90.8618 39.0166 90.7428 39.0885C90.6238 39.1604 90.5202 39.257 90.4386 39.3723C90.357 39.4876 90.299 39.619 90.2683 39.7586C90.2376 39.8981 90.2347 40.0427 90.26 40.1834C90.26 40.1834 89.6469 41.2471 90.6337 41.6027C90.6337 41.6027 89.7783 42.5015 90.7636 42.9655C90.7636 42.9655 90.2796 43.4137 90.9267 43.88C91.9799 44.5254 93.0848 45.0751 94.229 45.523C95.2913 45.9547 102.768 50.2267 105.293 50.4261C106.641 50.598 108.001 50.6557 109.358 50.5988C110.558 50.5266 113.729 46.4108 113.729 46.4108L108.617 42.3076Z" fill="#FFD997"/>
<path d="M97.5012 42.2715C97.5392 42.0162 97.4993 41.7549 97.387 41.5244C97.2747 41.2938 97.0958 41.1057 96.8753 40.9865C96.7825 40.9314 96.6787 40.8995 96.572 40.8932C96.4653 40.887 96.3587 40.9066 96.2605 40.9505C96.1624 40.9944 96.0753 41.0615 96.0063 41.1463C95.9373 41.2311 95.8882 41.3315 95.8629 41.4394C95.8124 41.7116 95.8521 41.9936 95.9755 42.2393C96.0989 42.4851 96.2987 42.6802 96.5424 42.7927C96.5086 42.9549 96.5065 43.1224 96.536 43.2854C96.5656 43.4484 96.6263 43.6036 96.7145 43.7418C96.5411 43.8995 96.4148 44.1058 96.3508 44.336C96.2869 44.5661 96.2878 44.8106 96.3536 45.0402C96.1743 45.1184 96.0159 45.2405 95.8916 45.396C95.7674 45.5515 95.6812 45.7359 95.6402 45.9335C95.3723 45.8583 95.0874 45.8843 94.8363 46.0071C94.5852 46.1299 94.3842 46.3414 94.2691 46.6039C94.0146 47.2932 94.7221 47.8489 95.4952 47.487C95.7573 47.3741 95.9669 47.1596 96.0796 46.8889C96.7417 47.1189 97.471 46.2546 97.2951 45.5293C97.5371 45.3935 97.7247 45.1725 97.8242 44.9059C97.9237 44.6393 97.9286 44.3446 97.838 44.0747C97.9555 43.9437 98.0416 43.7856 98.0891 43.6134C98.1367 43.4412 98.1443 43.2597 98.1115 43.0839C98.0786 42.908 98.0062 42.7427 97.9002 42.6015C97.7941 42.4603 97.6574 42.3472 97.5012 42.2715Z" fill="black"/>
<path fill-rule="evenodd" clip-rule="evenodd" d="M109.788 116.989C109.813 117.58 109.96 118.158 110.217 118.686C110.603 119.33 115.712 118.981 117.21 118.341C118.707 117.701 122.193 117.622 122.193 117.622C122.349 117.137 122.344 116.612 122.177 116.131C121.497 114.513 117.269 113.392 115.592 113.079C115.59 113.078 109.636 115.971 109.788 116.989Z" fill="white"/>
<path fill-rule="evenodd" clip-rule="evenodd" d="M122.099 119.735C122.098 120.405 122.212 121.07 122.436 121.698C122.807 122.734 127.01 122.971 128.976 121.944C130.942 120.916 134.257 119.667 134.257 119.667L134.138 118.4C130.773 116.292 128.153 115.678 126.225 116.449C126.225 116.449 122.159 118.803 122.099 119.735Z" fill="white"/>
<path fill-rule="evenodd" clip-rule="evenodd" d="M131.382 62.7945C131.023 62.7875 130.667 62.7172 130.331 62.5865C125.31 63.2734 114.282 61.88 114.282 61.88C114.282 61.88 113.998 78.2975 114.765 84.645C115.531 90.9925 115.865 93.2918 115.789 93.806C115.714 94.3202 116.001 109.035 115.47 113.072C115.47 113.072 120.473 113.644 122.457 116.566C122.457 116.566 121.512 106.797 121.929 102.785C122.346 98.7727 121.686 90.6291 122.408 86.7959C122.408 86.7959 123.398 94.2785 124.446 97.1469C125.54 100.139 126.409 114.191 126.223 116.449C126.223 116.449 128.888 114.858 134.136 118.4C134.136 118.4 132.792 105.329 131.837 100.317C130.978 95.8077 129.297 93.0508 129.297 86.8689C129.299 80.1085 131.382 66.2203 131.382 62.7945Z" fill="#81F8F8"/>
<path fill-rule="evenodd" clip-rule="evenodd" d="M142.121 40.5217C140.942 42.3849 139.426 43.9911 137.656 45.2506L139.66 46.6934C138.749 47.7853 137.775 48.8184 136.743 49.7871C135.498 50.8767 132.9 53.2003 131.586 54.1305C130.41 54.9278 129.42 55.9883 128.689 57.2344C127.999 58.419 127.819 59.5894 128.559 60.0926C129.299 60.5958 130.243 63.2718 131.586 62.72C132.93 62.1681 134.02 57.4809 134.944 56.436C135.867 55.3912 147.694 49.8334 147.497 47.801C147.348 46.3041 142.121 40.5217 142.121 40.5217Z" fill="#FFD997"/>
<path fill-rule="evenodd" clip-rule="evenodd" d="M85.2876 6.87428L87.237 9.60687L90.4699 9.08327L88.5726 11.8551L90.0509 14.8899L86.9289 13.8694L84.6081 16.2699L84.5756 12.8685L81.6636 11.3158L84.7674 10.2333L85.2876 6.87428Z" fill="white"/>
<path fill-rule="evenodd" clip-rule="evenodd" d="M105.808 22.075L106.071 24.6899L108.42 25.6633L106.111 26.7316L105.946 29.3551L104.254 27.4013L101.804 28.0489L103.069 25.7724L101.719 23.55L104.191 24.0995L105.808 22.075Z" fill="white"/>
<path d="M84.608 16.6625C84.5086 16.6625 84.4131 16.6217 84.3424 16.5489C84.2717 16.4761 84.2315 16.3773 84.2305 16.2739L84.2003 13.1095L81.4921 11.6659C81.4261 11.6306 81.3715 11.5759 81.3352 11.5085C81.2989 11.441 81.2826 11.364 81.2882 11.287C81.2938 11.21 81.3212 11.1364 81.3669 11.0755C81.4126 11.0145 81.4745 10.969 81.545 10.9445L84.4298 9.93658L84.913 6.81228C84.9241 6.73508 84.957 6.66306 85.0076 6.60542C85.0583 6.54778 85.1242 6.50714 85.1972 6.48868C85.2701 6.47023 85.3467 6.4748 85.4171 6.50182C85.4875 6.52884 85.5486 6.57708 85.5925 6.64037L87.4045 9.1822L90.4125 8.6955C90.4858 8.68367 90.5609 8.69459 90.6283 8.72691C90.6958 8.75922 90.7525 8.81149 90.7915 8.87718C90.8305 8.94286 90.85 9.01904 90.8476 9.09619C90.8452 9.17335 90.8209 9.24804 90.7779 9.31093L89.0135 11.8897L90.3883 14.7157C90.4211 14.7844 90.4338 14.8617 90.4248 14.9378C90.4158 15.014 90.3855 15.0857 90.3377 15.1442C90.2899 15.2027 90.2267 15.2453 90.1558 15.2668C90.085 15.2883 90.0096 15.2877 89.9391 15.2652L87.0346 14.3169C84.7394 16.6891 84.8292 16.6625 84.608 16.6625ZM82.6337 11.392L84.7477 12.5192C84.8088 12.552 84.8602 12.6014 84.8962 12.6623C84.9323 12.7232 84.9517 12.7931 84.9523 12.8646L84.9757 15.335L86.6609 13.5923C86.7095 13.5421 86.7702 13.5066 86.8367 13.4896C86.9032 13.4726 86.9729 13.4747 87.0384 13.4958L89.3034 14.236L88.2298 12.0325C88.1987 11.9686 88.185 11.8971 88.1902 11.8257C88.1954 11.7543 88.2192 11.6858 88.2592 11.6275L89.6371 9.61473L87.289 9.99467C87.2207 10.0054 87.1508 9.99647 87.0871 9.96879C87.0233 9.9411 86.9681 9.89575 86.9274 9.83767L85.5118 7.85319L85.1343 10.2922C85.1233 10.3627 85.094 10.4288 85.0496 10.4833C85.0051 10.5378 84.9472 10.5787 84.8821 10.6015L82.6337 11.392Z" fill="black"/>
<path d="M105.946 29.7476C105.719 29.7476 105.825 29.8018 104.126 27.8393L101.897 28.4288C101.825 28.4477 101.749 28.4442 101.679 28.4187C101.609 28.3931 101.548 28.3467 101.503 28.2853C101.458 28.2238 101.432 28.15 101.427 28.0731C101.423 27.9961 101.44 27.9195 101.477 27.8526L102.627 25.7818L101.398 23.7588C101.359 23.6935 101.338 23.6174 101.34 23.5401C101.342 23.4628 101.365 23.3877 101.408 23.3243C101.45 23.2609 101.51 23.212 101.579 23.1838C101.649 23.1555 101.724 23.1491 101.797 23.1654L104.047 23.6639L105.518 21.8238C105.565 21.7646 105.628 21.7213 105.699 21.6993C105.77 21.6773 105.846 21.6775 105.917 21.6999C105.988 21.7224 106.051 21.766 106.098 21.8255C106.146 21.8849 106.175 21.9575 106.183 22.0342L106.423 24.4128L108.56 25.2982C108.629 25.3268 108.689 25.376 108.731 25.4396C108.773 25.5032 108.797 25.5784 108.798 25.6557C108.799 25.733 108.779 25.809 108.739 25.8742C108.699 25.9394 108.641 25.9908 108.573 26.022L106.472 26.9938L106.321 29.3802C106.315 29.4795 106.273 29.5727 106.203 29.6409C106.133 29.7091 106.041 29.7472 105.946 29.7476ZM104.254 27.0087C104.507 27.0087 104.537 27.1414 105.627 28.4006L105.733 26.7065C105.738 26.6347 105.762 26.5655 105.802 26.5067C105.842 26.4478 105.896 26.4015 105.96 26.3729L107.451 25.6829L105.934 25.0549C105.87 25.0282 105.814 24.9839 105.773 24.9268C105.731 24.8696 105.706 24.8018 105.699 24.7307L105.528 23.0429L104.485 24.3484C104.441 24.4035 104.383 24.4451 104.318 24.4687C104.253 24.4922 104.183 24.4967 104.116 24.4818L102.519 24.1286L103.391 25.5643C103.428 25.6246 103.448 25.6943 103.449 25.7658C103.451 25.8373 103.433 25.9077 103.398 25.9694L102.577 27.4397C103.128 27.2644 103.688 27.1205 104.254 27.0087Z" fill="black"/>
<path d="M124.019 24.788C123.216 23.9347 122.344 24.0744 121.924 24.6074C121.867 24.6813 121.838 24.774 121.841 24.8687C121.845 24.9633 121.881 25.0534 121.944 25.1223C122.006 25.1913 122.09 25.2344 122.181 25.2438C122.272 25.2532 122.362 25.2282 122.437 25.1734V25.2857C122.439 25.3898 122.481 25.4886 122.554 25.5603C122.626 25.6321 122.723 25.671 122.824 25.6684C122.924 25.6658 123.019 25.6219 123.088 25.5465C123.157 25.471 123.194 25.3702 123.192 25.2661L123.189 25.102C123.295 25.1694 123.393 25.251 123.48 25.3446C123.514 25.3846 123.555 25.4171 123.602 25.4399C123.648 25.4628 123.699 25.4756 123.75 25.4775C123.801 25.4794 123.852 25.4705 123.9 25.4512C123.948 25.4318 123.992 25.4026 124.028 25.3652C124.065 25.3277 124.094 25.283 124.113 25.2335C124.132 25.1841 124.142 25.1311 124.141 25.0778C124.14 25.0244 124.128 24.9718 124.107 24.9232C124.086 24.8746 124.056 24.831 124.018 24.7951L124.019 24.788Z" fill="black"/>
<path d="M119.338 23.9716C119.201 23.9741 119.065 24.0059 118.939 24.0652C118.814 24.1245 118.702 24.2099 118.61 24.3162C118.562 24.3756 118.531 24.4485 118.523 24.5257C118.515 24.6029 118.529 24.6809 118.564 24.7498C118.598 24.8187 118.651 24.8755 118.717 24.9129C118.782 24.9503 118.857 24.9666 118.931 24.9599C118.956 25.046 119.008 25.1209 119.079 25.172C119.149 25.2231 119.235 25.2474 119.321 25.2408C119.407 25.2342 119.489 25.1971 119.552 25.1357C119.615 25.0743 119.656 24.9923 119.667 24.9034C119.818 25.0243 120.086 25.4599 120.416 25.1554C120.889 24.722 119.898 23.9245 119.338 23.9716Z" fill="black"/>
<path d="M147.872 47.761C147.721 46.2106 143.284 41.2345 142.396 40.2525C141.716 39.5075 134.005 32.386 131.441 32.0163C129.879 31.8938 128.309 32.0642 126.806 32.5195C126.562 31.9932 126.439 31.4155 126.447 30.8316C126.454 30.2478 126.591 29.6736 126.848 29.1542C127.219 28.9187 128.461 28.0685 128.509 26.9962C128.551 26.7489 128.52 26.4942 128.419 26.2658C128.319 26.0374 128.154 25.8462 127.946 25.7174C128.103 24.715 128.465 21.9534 127.961 20.6094C127.584 19.6031 125.894 18.6328 124.186 18.446C123.154 18.3128 122.106 18.491 121.168 18.9595C120.23 19.4279 119.441 20.1669 118.895 21.0883C118.474 21.5583 118.179 22.1356 118.04 22.7619C117.901 23.3882 117.923 24.0416 118.104 24.6561C118.175 24.838 118.205 25.0346 118.19 25.2303C118.175 25.4261 118.116 25.6154 118.018 25.7834C117.754 26.3365 117.62 26.9466 117.626 27.564C117.633 28.1813 117.779 28.7883 118.054 29.3355C118.438 29.9831 118.89 31.6269 119.828 32.083C119.868 32.3059 119.925 32.6034 119.992 32.9237C118.598 32.6757 117.176 32.6421 115.773 32.824C114.1 33.1953 107.78 39.8694 107.064 40.6293C106.997 40.7004 106.959 40.7951 106.956 40.8945C106.954 40.9939 106.988 41.0904 107.052 41.1647C107.104 41.2259 107.501 41.6883 108.109 42.3304L106.702 44.0966C105.994 44.0388 105.282 44.0496 104.575 44.1288C103.494 44.2317 96.7498 42.2817 95.5267 41.8005C95.4903 41.0567 95.3187 40.3269 95.0208 39.6496C94.5256 38.6354 93.8385 38.4721 93.9208 37.7138C94.0152 36.8464 93.9503 36.3534 93.7034 36.0653C93.0563 35.3133 91.7834 36.3134 92.0371 38.5687C91.7157 38.518 91.389 38.5156 91.0669 38.5616C90.7158 38.6073 90.3953 38.7929 90.1731 39.0793C89.9509 39.3657 89.8442 39.7305 89.8755 40.0971C89.723 40.351 89.6601 40.6522 89.6976 40.949C89.735 41.2458 89.8705 41.5199 90.0809 41.7244C89.943 41.9338 89.8845 42.1888 89.9165 42.4403C89.9486 42.6919 90.069 42.9223 90.2545 43.0871C90.1978 43.2987 90.2122 43.524 90.2954 43.7258C90.3786 43.9277 90.5256 44.094 90.7121 44.1971C91.7899 44.8598 92.9211 45.4237 94.093 45.8825C95.1205 46.2993 102.651 50.6059 105.267 50.8123C106.633 50.9822 108.009 51.04 109.384 50.985C110.58 50.9128 113.038 47.9102 113.852 46.8747C113.9 46.8928 113.946 46.9093 113.993 46.9258C114.027 48.0625 114.161 52.1853 114.363 53.7553C114.562 55.286 114.081 60.2496 113.92 61.7882C113.856 62.0496 113.667 78.661 114.395 84.6882C115.08 90.3622 115.49 93.2957 115.425 93.7416C115.342 94.3107 115.627 108.65 115.123 112.871C113.515 113.667 109.671 115.674 109.43 116.789C109.517 117.519 109.722 118.228 110.034 118.888C110.665 119.941 116.318 119.202 117.49 118.699C118.904 118.096 122.302 118.011 122.336 118.01C122.418 117.999 122.496 117.964 122.56 117.91C122.625 117.855 122.673 117.783 122.7 117.701C122.853 117.389 122.897 117.032 122.826 116.69C122.905 116.454 121.878 107.04 122.314 102.822C122.639 99.6762 122.314 93.9889 122.492 89.8778C122.837 92.3872 123.373 94.8642 124.094 97.2859C125.146 100.164 125.982 113.519 125.861 116.211C124.971 116.733 121.83 118.632 121.724 119.695C121.695 120.446 121.805 121.196 122.046 121.905C122.575 123.371 127.129 123.397 129.034 122.397C130.784 121.556 132.573 120.806 134.395 120.151C134.475 120.122 134.544 120.065 134.59 119.991C134.636 119.916 134.656 119.827 134.647 119.739C134.198 115.296 133.035 104.596 132.205 100.241C131.915 98.7248 131.531 97.3911 131.16 96.1005C129.133 89.0693 129.272 86.5643 130.972 71.2757C131.368 67.7251 131.713 64.6307 131.752 63.0709C133.293 62.3848 134.34 57.696 135.218 56.7014C136.19 55.6071 148.113 50.2267 147.872 47.761ZM141.642 40.612C139.198 44.4389 135.006 46.2428 133.69 46.735C133.406 46.0678 132.666 44.3376 131.831 42.485C133.139 40.9935 136.394 37.7656 138.482 37.7554C139.733 38.8395 140.869 39.8788 141.642 40.612ZM128.354 60.4207C128.84 61.0022 129.294 61.6121 129.713 62.2474C125.817 62.5284 118.545 61.9044 114.708 61.4938C114.806 60.5369 115.045 58.0484 115.13 56.0373C118.861 56.1338 125.416 56.2021 129.161 55.8701C128.051 57.265 126.963 59.474 128.352 60.4207H128.354ZM115.154 55.2531C115.148 54.0177 115.076 52.7836 114.939 51.5565C118.875 51.7598 127.911 52.0275 131.746 50.9772C130.949 55.191 132.013 52.9467 129.934 55.0073C126.564 55.4203 119.353 55.3677 115.152 55.2531H115.154ZM114.897 50.7676C114.821 49.2949 114.772 47.7516 114.75 47.0341C118.012 47.0993 129.575 47.2492 132.723 46.3983C132.854 46.7036 132.957 46.9478 133.025 47.1095C132.496 48.0352 132.125 49.0481 131.925 50.1042C128.171 51.3728 116.984 50.8735 114.895 50.7676H114.897ZM131.154 42.8281C131.625 43.8721 132.065 44.8777 132.41 45.6729C129.185 46.4799 117.099 46.2938 114.76 46.2491C114.802 45.6156 114.911 44.3117 115.143 42.9066C119.167 43.0243 127.123 43.157 131.152 42.8281H131.154ZM115.286 42.1216C115.459 41.1706 115.733 40.2424 116.102 39.3537C117.551 39.2469 125.188 38.739 129.634 39.5656C129.807 39.9479 130.017 40.3318 130.809 42.0635C126.143 42.4105 117.148 42.1789 115.284 42.1255L115.286 42.1216ZM133.628 47.5836C135.007 47.1032 136.328 46.4561 137.563 45.6556L139.098 46.7609C138.131 47.9287 137.07 49.0083 135.927 49.9881C134.839 50.9458 133.309 52.292 132.166 53.2018C132.504 50.5022 133.003 48.5735 133.626 47.5875L133.628 47.5836ZM137.7 37.0779C135.348 37.684 132.509 40.5971 131.487 41.7173C131.123 40.9213 130.337 39.2759 130.308 39.2108C130.86 38.4509 132.887 35.9028 135.61 35.3729C136.298 35.9146 137.005 36.497 137.698 37.0819L137.7 37.0779ZM125.632 25.427C125.792 25.0176 125.865 24.5765 125.844 24.1349C126.365 24.2437 126.863 24.4475 127.315 24.737C127.273 25.091 127.228 25.4105 127.187 25.6664C126.614 25.8336 126.393 26.6084 125.724 26.65C125.592 26.6571 125.508 26.6351 125.472 26.5825C125.378 26.1905 125.435 25.7756 125.632 25.427ZM119.592 30.3324C119.559 30.4109 119.524 30.4942 119.49 30.5884C119.212 30.0781 118.915 29.2978 118.695 28.9249C118.49 28.4887 118.383 28.0094 118.383 27.5237C118.383 27.038 118.49 26.5587 118.695 26.1225C119.299 24.8084 118.62 24.5862 118.701 23.3923C118.78 22.7239 119.048 22.0951 119.473 21.5868C119.64 21.4452 119.832 21.3402 120.039 21.2781C120.246 21.216 120.462 21.1982 120.676 21.2257C120.782 21.2771 120.883 21.3389 120.978 21.4101C122.291 22.316 123.193 21.6103 123.669 21.772C124.005 21.8984 124.281 22.1537 124.442 22.4856C124.602 22.8174 124.634 23.2006 124.532 23.5563C124.517 23.6158 124.517 23.6778 124.53 23.7376C124.543 23.7973 124.57 23.8529 124.607 23.9002C124.746 24.0729 124.883 24.0336 125.078 24.0383C125.112 24.4028 125.063 24.7705 124.934 25.1114C124.781 25.4035 124.694 25.7279 124.679 26.0602C124.665 26.3924 124.723 26.7238 124.849 27.0292C124.954 27.1746 125.094 27.2884 125.255 27.3589C125.415 27.4294 125.591 27.4541 125.764 27.4303C126.887 27.3628 127.268 26.1382 127.638 26.4388C127.668 26.4624 127.763 26.5699 127.746 26.9585C127.72 27.5991 126.73 28.3189 126.387 28.5199C126.042 28.9512 125.818 29.4738 125.742 30.0294C124.676 30.5899 123.523 30.9513 122.337 31.097C122.274 30.85 122.189 30.6099 122.081 30.3803C122.019 30.2451 121.914 30.1358 121.785 30.0702C121.655 30.0046 121.508 29.9867 121.367 30.0192C120.99 30.1105 120.598 30.1083 120.222 30.0129C120.098 29.9813 119.967 29.9959 119.852 30.0543C119.737 30.1127 119.645 30.2111 119.593 30.3324H119.592ZM126.104 32.8185C122.583 34.8925 121.324 34.639 121.201 34.4592C120.921 33.6983 120.719 32.909 120.597 32.1042C121.022 32.167 121.939 32.2062 122.242 31.9001C123.424 31.739 124.581 31.4224 125.687 30.9581C125.72 31.599 125.862 32.2287 126.106 32.8185H126.104ZM115.928 33.5941C117.344 33.4339 118.775 33.4868 120.177 33.7511C120.259 34.1543 120.395 34.5435 120.581 34.9074C120.718 35.0719 120.892 35.1985 121.088 35.2758C121.283 35.3531 121.494 35.3786 121.702 35.3502C122.582 35.3502 124.102 34.931 126.705 33.3665C128.203 32.8898 129.772 32.6962 131.336 32.795C132.603 33.2202 133.781 33.8906 134.809 34.7708C132.902 35.4594 131.228 36.706 129.986 38.3606C129.542 36.732 129.59 35.0009 130.122 33.401C130.153 33.3057 130.149 33.2014 130.108 33.1096C130.068 33.0179 129.995 32.9457 129.905 32.9082C129.815 32.8706 129.715 32.8705 129.625 32.9079C129.535 32.9453 129.462 33.0173 129.422 33.109C128.798 34.9159 128.756 36.8846 129.302 38.7186C124.998 38.0294 118.47 38.4046 116.423 38.5483C116.413 38.4846 116.387 38.4245 116.35 38.3733C116.312 38.3222 116.262 38.2815 116.206 38.255C116.149 38.2284 116.087 38.2168 116.025 38.2211C115.963 38.2254 115.903 38.2456 115.851 38.2798C113.9 34.9875 114.076 35.1209 113.894 35.026C114.491 34.4336 115.178 33.9496 115.929 33.5941H115.928ZM113.361 35.4907C113.407 35.6477 115.248 38.7673 115.407 39.0318C115.085 39.7939 114.834 40.5868 114.658 41.3994C113.53 40.0662 112.254 38.8761 110.857 37.8535C111.725 37.0057 112.591 36.1838 113.366 35.4907H113.361ZM92.7845 39.9236C92.666 40.1159 92.5226 39.7281 90.6517 39.7729C90.8253 39.2139 91.6045 39.272 92.1956 39.3945C92.3326 39.4155 92.461 39.4763 92.5661 39.57C92.6712 39.6636 92.7488 39.7861 92.7898 39.9236H92.7845ZM90.4984 40.5633C90.9589 40.5445 92.3557 40.5531 92.6879 40.8444C92.7883 40.9331 92.8389 41.0163 92.6554 41.2565C92.0033 41.1879 91.347 41.1713 90.6924 41.207C90.4682 41.1066 90.3716 40.9464 90.5037 40.5665L90.4984 40.5633ZM90.8072 41.9873C91.539 41.9465 92.2728 41.9857 92.9967 42.1043C93.4255 42.204 93.187 42.4458 92.7944 42.551C92.1401 42.4286 91.4699 42.4305 90.8163 42.5565C90.6569 42.4505 90.5724 42.3335 90.8125 41.9873H90.8072ZM91.307 43.657C91.2542 43.6484 91.2919 43.6712 91.1341 43.5573C91.0669 43.5095 90.9371 43.405 90.9657 43.3265C91.5964 43.1875 92.2506 43.2164 92.8676 43.4105C92.8877 43.4543 92.8963 43.5028 92.8925 43.5511C92.389 43.7557 91.8369 43.7928 91.3123 43.657H91.307ZM109.329 50.2063C107.988 50.2591 106.646 50.2017 105.314 50.0344C102.862 49.8397 95.4791 45.6133 94.358 45.1572C93.8581 44.9539 93.2843 44.6995 92.7491 44.4436C93.5758 44.2638 93.8159 43.6963 93.5433 43.0565C93.6046 43.0133 93.6617 42.9642 93.7139 42.9097C94.4621 43.6327 94.2002 44.1916 94.6954 44.1916C94.7549 44.1916 94.8135 44.177 94.8666 44.149C94.9196 44.1209 94.9655 44.0803 95.0005 44.0303C95.0355 43.9804 95.0587 43.9225 95.0681 43.8614C95.0776 43.8004 95.073 43.7379 95.0548 43.679C94.8564 43.0485 94.474 42.4978 93.9608 42.1035C93.9511 41.9485 93.8949 41.8005 93.8001 41.6804C93.7053 41.5603 93.5767 41.4741 93.4323 41.4339C93.5102 41.2769 93.5438 41.1003 93.5293 40.9243C93.5147 40.7483 93.4526 40.5802 93.35 40.4393C93.7781 39.9251 93.4006 39.177 92.8215 38.8049C92.5671 37.3386 93.0329 36.6729 93.1281 36.5936C93.1333 36.5999 93.2511 36.7671 93.1575 37.629C92.9725 39.338 94.6909 38.9431 94.7702 42.0745C94.7776 42.1851 94.8271 42.2882 94.9076 42.361C95.2927 42.7033 103.275 45.07 104.64 44.9115C107.764 44.5723 108.144 45.6439 108.566 45.6439C108.644 45.6442 108.721 45.6192 108.785 45.5725C108.849 45.5257 108.897 45.4594 108.923 45.3828C108.95 45.3062 108.952 45.223 108.931 45.1448C108.91 45.0665 108.866 44.9971 108.805 44.946C108.417 44.6506 107.983 44.4268 107.521 44.2842L108.632 42.8893C109.961 44.3159 111.471 45.5476 113.12 46.5505C111.848 48.159 109.992 50.167 109.334 50.2063H109.329ZM114.004 46.1062C112.016 45.3095 109.287 42.5329 107.847 40.9166C108.574 40.1497 109.425 39.2759 110.3 38.4046C111.084 38.9918 113.511 40.8805 114.447 42.4356C114.235 43.6497 114.089 44.8752 114.009 46.1062H114.004ZM115.627 113.491C117.533 113.762 119.358 114.47 120.968 115.565C120.019 115.61 119.08 115.782 118.174 116.078C116.445 116.702 110.985 117.427 110.184 116.901C110.493 116.3 113.164 114.7 115.632 113.493L115.627 113.491ZM122.04 117.238C120.398 117.258 118.767 117.507 117.188 117.978C115.74 118.598 111.145 118.836 110.66 118.478C110.525 118.258 110.434 118.013 110.392 117.756C112.359 118.149 117.191 117.263 118.418 116.82C119.51 116.486 120.643 116.318 121.781 116.321C121.91 116.428 122.004 116.573 122.051 116.737C122.098 116.901 122.096 117.076 122.045 117.238H122.04ZM126.404 116.791C126.43 116.779 128.72 115.529 133.176 118.247C132.357 118.482 130.975 118.917 129.043 119.669C125.956 120.869 123.144 120.263 122.489 119.709C122.697 119.234 124.436 117.934 126.409 116.79L126.404 116.791ZM128.69 121.697C126.941 122.408 125.014 122.497 123.211 121.951C122.815 121.789 122.758 121.647 122.749 121.631C122.638 121.307 122.559 120.972 122.513 120.631C123.414 121.008 124.38 121.187 125.351 121.158C128.469 121.158 129.926 119.917 133.801 118.887L133.864 119.515C132.106 120.148 130.381 120.877 128.695 121.697H128.69ZM129.265 91.4518C129.114 91.4125 129.397 91.3332 125.483 92.7863C125.434 92.802 125.389 92.8278 125.351 92.8621C125.312 92.8964 125.28 92.9384 125.258 92.9858C125.235 93.0331 125.222 93.0847 125.219 93.1375C125.215 93.1902 125.223 93.2431 125.24 93.2929C125.257 93.3427 125.284 93.3884 125.318 93.4272C125.353 93.4661 125.394 93.4973 125.441 93.5189C125.487 93.5406 125.537 93.5523 125.588 93.5533C125.639 93.5544 125.689 93.5447 125.737 93.5249L128.644 92.4471L127.376 97.895C127.365 97.9451 127.363 97.9971 127.37 98.0481C127.378 98.099 127.395 98.1478 127.421 98.1918C127.447 98.2358 127.481 98.2741 127.521 98.3044C127.561 98.3348 127.606 98.3567 127.655 98.3688C127.703 98.3809 127.753 98.383 127.802 98.375C127.851 98.3671 127.898 98.3491 127.94 98.3223C127.982 98.2954 128.019 98.2601 128.048 98.2185C128.078 98.1768 128.099 98.1296 128.11 98.0795L129.433 92.393C130.716 98.9446 131.226 94.5188 133.672 117.641C130.016 115.371 127.65 115.586 126.621 115.875C126.676 112.331 125.84 99.8677 124.796 97.0072C123.565 93.645 122.531 84.8727 120.664 71.7302C120.647 71.628 120.594 71.5364 120.514 71.4745C120.434 71.4125 120.334 71.3852 120.236 71.3981C120.186 71.4055 120.139 71.423 120.096 71.4494C120.054 71.4758 120.017 71.5107 119.987 71.5522C119.957 71.5936 119.936 71.6407 119.924 71.6908C119.911 71.7409 119.909 71.7929 119.916 71.844L122.02 86.7857C121.791 88.3009 121.677 89.8324 121.679 91.3662L117.892 91.4368C117.842 91.4378 117.794 91.4488 117.748 91.4694C117.703 91.49 117.662 91.5197 117.627 91.5568C117.593 91.5939 117.566 91.6377 117.547 91.6857C117.529 91.7336 117.52 91.7849 117.521 91.8364C117.522 91.888 117.533 91.9388 117.553 91.9861C117.572 92.0333 117.601 92.0761 117.637 92.1119C117.672 92.1477 117.715 92.1758 117.761 92.1947C117.807 92.2135 117.856 92.2228 117.906 92.2218L121.21 92.1606C120.362 93.6255 119.397 95.0133 118.325 96.3093C118.233 96.3502 118.16 96.4275 118.123 96.5242C118.085 96.6208 118.086 96.7289 118.126 96.8247C118.165 96.9205 118.239 96.9961 118.332 97.0348C118.425 97.0736 118.529 97.0724 118.621 97.0315C119.122 96.8086 120.569 94.62 121.665 92.871C121.657 96.4499 121.796 100.344 121.549 102.736C121.217 105.948 121.734 112.658 121.971 115.402C120.031 113.543 116.96 112.903 115.888 112.733C116.36 108.193 116.096 94.379 116.16 93.8617C116.236 93.2337 115.908 91.0098 115.134 84.5909C114.445 78.8878 114.612 64.8041 114.648 62.2741C115.364 62.3526 116.929 62.5096 118.855 62.6737C118.632 64.2154 118.621 65.7821 118.821 67.3271C118.828 67.3781 118.845 67.4271 118.871 67.4712C118.896 67.5154 118.93 67.5539 118.97 67.5845C119.01 67.6151 119.055 67.6373 119.103 67.6497C119.151 67.6621 119.201 67.6645 119.25 67.6568C119.299 67.6492 119.346 67.6315 119.389 67.6049C119.431 67.5783 119.468 67.5433 119.498 67.5018C119.527 67.4603 119.549 67.4132 119.561 67.3632C119.572 67.3131 119.575 67.2611 119.567 67.2102C119.38 65.724 119.394 64.2177 119.61 62.7357C121.827 62.9107 124.405 63.0701 126.682 63.0976L129.665 67.4936C129.692 67.5384 129.728 67.577 129.77 67.607C129.812 67.637 129.86 67.6578 129.91 67.6681C129.96 67.6784 130.012 67.678 130.062 67.667C130.112 67.6559 130.159 67.6344 130.201 67.6037C130.243 67.5731 130.278 67.5339 130.305 67.4887C130.332 67.4434 130.349 67.3929 130.357 67.3403C130.364 67.2878 130.361 67.2341 130.348 67.1828C130.335 67.1314 130.312 67.0833 130.281 67.0414L127.613 63.1038C128.571 63.1076 129.528 63.061 130.482 62.9641C130.64 63.0652 130.816 63.135 130.999 63.1698C130.793 69.336 128.039 83.7682 129.271 91.4518H129.265ZM134.664 56.1707C133.752 57.2038 132.542 61.9012 131.446 62.3549C130.442 62.7679 129.591 60.3265 128.764 59.7644C128.178 59.3657 128.531 58.2612 129.01 57.4369C129.716 56.2408 130.667 55.222 131.797 54.4539C132.948 53.6391 135.031 51.803 136.41 50.5909C137.694 49.492 138.879 48.2733 139.949 46.9501C140.063 46.819 141.772 44.9162 143.33 45.103C143.427 45.1087 143.522 45.0751 143.596 45.0095C143.67 44.9438 143.717 44.851 143.726 44.7504C143.736 44.6498 143.708 44.5492 143.648 44.4696C143.588 44.3899 143.501 44.3373 143.405 44.3227C141.777 44.1602 140.198 45.5866 139.616 46.1816L138.243 45.198C139.788 44.1243 141.126 42.7595 142.189 41.1741C144.18 43.4113 147.031 46.9046 147.122 47.8411C147.282 49.4919 135.608 55.1047 134.664 56.1707Z" fill="black"/>
<path fill-rule="evenodd" clip-rule="evenodd" d="M61.8224 60.0533C61.8224 60.0533 52.9353 53.077 55.198 46.4273C57.4608 39.7776 65.8012 33.9168 61.6314 21.9C57.4615 9.88319 46.0338 5.382 46.0338 5.382L4.0498 10.7726C4.0498 10.7726 25.2208 20.6016 22.9022 36.2718C21.0811 48.5798 9.80743 59.3798 19.294 70.8526L61.8224 60.0533Z" fill="white"/>
<path fill-rule="evenodd" clip-rule="evenodd" d="M12.9536 74.491C12.9536 74.491 15.2337 71.1093 19.6512 74.0326C24.0687 76.9559 74.4838 138.834 74.4838 138.834C74.4838 138.834 78.3963 143.119 78.7118 146.793C78.9502 148.655 78.8408 150.547 78.3895 152.366L118.788 129.652C118.907 127.708 118.542 125.764 117.727 124.01C116.386 121.29 73.642 65.3026 73.642 65.3026C72.194 63.5223 70.4891 61.9864 68.5881 60.7496C66.0346 59.3107 62.9391 59.759 60.8516 60.27C58.764 60.781 16.8517 71.4798 16.8517 71.4798C15.3037 72.0785 13.9517 73.1229 12.9536 74.491Z" fill="#FFD997"/>
<path fill-rule="evenodd" clip-rule="evenodd" d="M28.3936 74.5641L66.2017 65.2273L85.0699 86.9757L47.9224 99.2845L28.3936 74.5641Z" fill="white"/>
<path fill-rule="evenodd" clip-rule="evenodd" d="M51.2769 102.928L87.7841 90.1848L91.76 95.1546L56.7317 108.478L51.2769 102.928Z" fill="white"/>
<path fill-rule="evenodd" clip-rule="evenodd" d="M57.8354 110.685L92.4462 97.2113L109.192 119.51L78.2816 135.053L57.8354 110.685Z" fill="white"/>
<path d="M28.1014 74.8129C28.0614 74.7614 28.0346 74.7003 28.0234 74.6352C28.0123 74.57 28.0171 74.503 28.0375 74.4404C28.0579 74.3777 28.0933 74.3214 28.1402 74.2768C28.1871 74.2321 28.2442 74.2005 28.306 74.1849L66.1149 64.8458C66.1806 64.8295 66.2494 64.832 66.3139 64.8528C66.3785 64.8737 66.4364 64.9122 66.4818 64.9643C81.575 82.3913 84.7362 85.9371 85.3379 86.7567C85.6142 87.1335 85.3908 87.2277 85.1779 87.3227C84.0386 87.8204 78.1043 89.775 48.0372 99.6613C47.9518 99.6896 47.9133 99.7359 47.6597 99.4776C46.808 98.6157 43.5494 94.3712 28.1014 74.8129ZM29.0685 74.8011L48.0523 98.8331L84.3972 86.7865L66.0711 65.6629L29.0685 74.8011Z" fill="black"/>
<path d="M88.0749 89.9343C88.0262 89.8735 87.9609 89.8293 87.8876 89.8077C87.8143 89.7862 87.7364 89.7882 87.6642 89.8135C59.1131 99.6471 52.6994 101.89 51.2883 102.512C50.7825 102.735 50.8444 103.037 51.0128 103.209L56.4676 108.759C56.5185 108.811 56.5824 108.846 56.652 108.862C56.7216 108.878 56.794 108.873 56.861 108.847C84.9017 98.1902 90.6782 96.044 91.8424 95.5102C92.1799 95.3532 92.2335 95.2041 92.0394 94.9144C91.7654 94.5062 90.8579 93.4205 88.0749 89.9343ZM66.4359 104.369L61.9716 99.6095L70.4057 96.6649L75.1622 101.05L66.4359 104.369ZM56.824 108.025L51.9799 103.096L61.1758 99.8866L65.6575 104.665L56.824 108.025ZM75.9655 100.744L71.2309 96.38L79.2513 93.5807L83.742 97.7898L75.9655 100.744ZM84.5423 97.4821L80.0712 93.291L87.6582 90.6424L91.1259 94.978L84.5423 97.4821Z" fill="black"/>
<path d="M83.9694 144.639C83.8001 144.639 83.6357 144.579 83.5026 144.471C83.3696 144.362 83.2755 144.21 83.2356 144.039C83.1957 143.868 83.2123 143.687 83.2827 143.527C83.353 143.367 83.4731 143.236 83.6236 143.156L111.444 128.3C111.532 128.253 111.628 128.225 111.727 128.216C111.826 128.208 111.925 128.22 112.02 128.251C112.114 128.283 112.202 128.333 112.277 128.4C112.353 128.467 112.415 128.548 112.46 128.64C112.506 128.732 112.533 128.832 112.541 128.934C112.55 129.037 112.538 129.141 112.508 129.239C112.477 129.337 112.429 129.428 112.365 129.506C112.301 129.585 112.222 129.65 112.134 129.697C82.35 145.592 84.2533 144.639 83.9694 144.639Z" fill="black"/>
<path d="M92.7445 96.9695C92.6949 96.9035 92.6263 96.8557 92.5487 96.8331C92.4712 96.8105 92.3887 96.8143 92.3133 96.8439C66.6048 106.9 59.8317 109.475 58.0703 110.209C57.2919 110.534 57.273 110.552 57.763 111.188C58.7868 112.516 62.8215 117.279 77.997 135.314C78.0514 135.379 78.1249 135.423 78.2061 135.441C78.2873 135.458 78.3717 135.447 78.4463 135.409C103.141 123.052 108.262 120.494 109.304 119.873C109.606 119.691 109.681 119.6 109.441 119.229C108.833 118.294 105.899 114.435 92.7445 96.9695ZM94.6576 126.383L89.9336 120.675L97.6497 117.002L102.162 122.609L94.6576 126.383ZM86.521 130.476L81.5433 124.667L89.2194 121.013L93.9547 126.736L86.521 130.476ZM68.4893 122.783L76.0197 119.401L80.299 124.393L72.8245 127.95L68.4893 122.783ZM63.4014 116.718L70.928 113.461L75.4904 118.783L67.9684 122.159L63.4014 116.718ZM75.3696 104.274L79.2783 108.997L71.1341 112.521L66.8933 107.576L75.3696 104.274ZM84.5384 100.705L88.1299 105.166L80.0114 108.68L76.1231 103.981L84.5384 100.705ZM99.9298 107.809L93.547 110.675L89.3681 105.481L96.0204 102.603L99.9298 107.809ZM92.8237 111L84.8819 114.566L80.5293 109.307L88.6373 105.798L92.8237 111ZM79.7962 109.624L84.1556 114.892L76.2213 118.455L71.6664 113.141L79.7962 109.624ZM76.7498 119.073L84.672 115.515L88.706 120.391L81.017 124.05L76.7498 119.073ZM89.4209 120.051L85.3976 115.189L93.3288 111.628L97.1469 116.373L89.4209 120.051ZM94.0529 111.303L100.41 108.449L103.935 113.143L97.8596 116.034L94.0529 111.303ZM92.3164 97.6752L95.5349 101.961L88.8577 104.85L85.2858 100.413L92.3164 97.6752ZM66.1352 107.873L70.3965 112.845C60.4954 117.129 63.4059 115.832 62.8782 116.099L58.478 110.854L66.1352 107.873ZM78.3768 134.572L73.3425 128.571L80.8245 125.01L85.8143 130.831L78.3768 134.572ZM102.864 122.257L98.3624 116.663L104.413 113.783L108.607 119.368L102.864 122.257Z" fill="black"/>
<path d="M57.7301 93.0233C49.1231 93.0233 42.1152 88.1029 42.1152 82.0537C42.1152 76.0045 49.1231 71.0834 57.7301 71.0834C66.3371 71.0834 73.3451 76.0045 73.3451 82.0537C73.3451 88.1029 66.3432 93.0233 57.7301 93.0233ZM57.7301 71.8684C49.5361 71.8684 42.8702 76.4378 42.8702 82.0537C42.8702 87.6696 49.5361 92.2383 57.7301 92.2383C65.9242 92.2383 72.5901 87.6696 72.5901 82.0537C72.5901 76.4378 65.9272 71.8684 57.7301 71.8684Z" fill="black"/>
<path d="M62.0014 88.0174C61.978 87.8989 59.6987 76.1545 59.6609 74.4816C59.6586 74.3836 59.6211 74.29 59.5557 74.2193C59.4903 74.1486 59.4019 74.1059 59.3078 74.0996C59.2136 74.0933 59.1207 74.1238 59.0471 74.1852C58.9736 74.2467 58.9248 74.3345 58.9104 74.4314C58.8689 74.7061 57.9712 80.8331 58.7081 84.6074C57.4246 84.1795 54.5888 83.3364 53.2087 83.652C53.1337 83.6693 53.0656 83.71 53.0134 83.7687C52.9613 83.8273 52.9275 83.9011 52.9168 83.9802C52.9061 84.0593 52.9188 84.1399 52.9532 84.2113C52.9877 84.2827 53.0423 84.3414 53.1098 84.3797C53.3831 84.5367 59.8293 88.1846 61.5695 88.4821C61.6299 88.4925 61.6917 88.4875 61.7498 88.4676C61.8078 88.4477 61.8603 88.4133 61.9028 88.3676C61.9453 88.3219 61.9765 88.2662 61.9936 88.2051C62.0108 88.1441 62.0135 88.0797 62.0014 88.0174Z" fill="black"/>
<path d="M118.062 123.831C116.719 121.109 75.6831 67.346 73.9308 65.0514C72.4549 63.2311 70.7124 61.6639 68.7673 60.4074C66.9553 59.3869 64.7092 59.131 61.924 59.6373C60.8633 58.7604 53.5533 52.4357 55.5533 46.5584C57.7957 39.9699 66.2305 33.9984 61.9859 21.7665C58.0698 10.4798 47.7089 5.67874 46.3204 5.079C46.2599 5.03975 46.1923 5.01392 46.1218 5.00311C46.0512 4.9923 45.9793 4.99676 45.9105 5.0162C44.8195 5.13238 38.7267 5.937 4.00269 10.3832C3.92181 10.3951 3.8468 10.4338 3.78892 10.4937C3.73103 10.5537 3.6934 10.6315 3.68166 10.7155C3.66991 10.7995 3.6847 10.8853 3.7238 10.9598C3.7629 11.0344 3.8242 11.0937 3.8985 11.129C4.10764 11.2263 24.7803 21.02 22.5319 36.2097C20.735 48.338 9.63046 59.0925 18.6165 70.6218L16.7373 71.1022C15.3182 71.6258 14.0572 72.5294 13.0814 73.7218C12.1056 74.9141 11.4497 76.353 11.1797 77.8932C9.22578 90.1016 14.8445 97.9367 14.9019 98.0144C14.9593 98.0921 74.9372 150.002 78.2887 152.65C78.3777 152.721 78.3966 152.792 78.6745 152.637L118.967 129.997C119.021 129.966 119.068 129.922 119.102 129.869C119.136 129.816 119.157 129.754 119.163 129.691C119.293 127.671 118.914 125.651 118.062 123.831ZM23.2748 36.3314C25.2914 22.7046 9.77013 13.3631 5.35263 11.001L45.9837 5.78393C47.0264 6.22588 57.4023 10.8707 61.2755 22.0334C65.3661 33.821 57.123 39.5955 54.8421 46.2962C52.8527 52.1421 58.9191 58.0571 60.9622 59.8375C60.8965 59.8524 28.7335 68.0384 19.4304 70.4138C10.4043 59.2385 21.4553 48.623 23.2748 36.3314ZM118.424 129.41L78.9523 151.604C79.2057 150.003 79.2512 148.373 79.0874 146.759C78.7643 142.991 74.9214 138.743 74.7719 138.581C72.7122 136.052 24.2684 76.6231 19.8539 73.7014C18.6454 72.7976 17.168 72.3685 15.684 72.4901C16.0832 72.2378 16.5046 72.026 16.9426 71.8574C17.3617 71.7506 58.8799 61.1484 60.938 60.6484C64.078 59.8846 66.5212 60.0306 68.4065 61.0974C70.2618 62.3094 71.9276 63.81 73.3457 65.5468C73.7836 66.0963 116.079 121.536 117.389 124.19C118.141 125.816 118.496 127.608 118.424 129.41Z" fill="black"/>
<path d="M47.8585 9.44438C46.7411 8.75515 46.2979 8.47019 46.0865 8.35637C46.049 8.32793 46.0063 8.30758 45.9611 8.29652C45.9158 8.28547 45.8689 8.28393 45.8231 8.292L17.5491 12.4376C17.4746 12.4486 17.4049 12.4825 17.3491 12.5349C17.2933 12.5873 17.2538 12.6559 17.2357 12.7318C17.2176 12.8077 17.2217 12.8875 17.2476 12.961C17.2734 13.0344 17.3198 13.0982 17.3807 13.1441C18.2557 13.8027 18.6687 14.1253 18.8907 14.2784C19.1127 14.4315 19.1376 14.4181 19.241 14.4048L47.7219 10.1697C47.7988 10.1576 47.8703 10.1211 47.9265 10.0651C47.9827 10.0092 48.0209 9.93649 48.0359 9.85708C48.0508 9.77768 48.0418 9.6954 48.0101 9.62152C47.9783 9.54764 47.9254 9.48577 47.8585 9.44438Z" fill="black"/>
<path d="M24.6072 23.0516C24.5128 23.0507 24.4222 23.0132 24.3531 22.9463C24.284 22.8794 24.2416 22.788 24.2341 22.6902C24.2266 22.5924 24.2546 22.4952 24.3127 22.4178C24.3707 22.3404 24.4545 22.2884 24.5475 22.2721L52.9771 17.4961C53.026 17.4871 53.0763 17.4883 53.1247 17.4998C53.1732 17.5113 53.219 17.5328 53.2594 17.5631C53.2997 17.5933 53.3338 17.6317 53.3596 17.6758C53.3854 17.72 53.4025 17.7692 53.4097 17.8203C53.4256 17.9231 53.4016 18.0282 53.343 18.1125C53.2844 18.1969 53.1959 18.2536 53.0971 18.2701C23.5019 23.2329 24.6834 23.0516 24.6072 23.0516Z" fill="black"/>
<path d="M27.5514 31.791C27.4566 31.7915 27.365 31.7549 27.295 31.6885C27.2249 31.622 27.1815 31.5306 27.1733 31.4324C27.1651 31.3341 27.1928 31.2363 27.2508 31.1583C27.3088 31.0803 27.393 31.0279 27.4865 31.0115L55.4758 25.9043C55.5744 25.8863 55.6759 25.9097 55.7579 25.9695C55.8399 26.0293 55.8956 26.1204 55.913 26.223C55.9303 26.3255 55.9077 26.431 55.8502 26.5162C55.7927 26.6015 55.7051 26.6595 55.6064 26.6775C26.2324 32.0438 27.6276 31.791 27.5514 31.791Z" fill="black"/>
<path d="M27.551 42.0682C27.4569 42.0676 27.3664 42.0305 27.2973 41.9642C27.2282 41.8978 27.1853 41.8071 27.1772 41.7096C27.1691 41.6121 27.1962 41.5151 27.2534 41.4373C27.3105 41.3596 27.3935 41.3069 27.4861 41.2895L55.4754 36.1705C55.574 36.1525 55.6755 36.1759 55.7575 36.2357C55.8395 36.2955 55.8952 36.3867 55.9126 36.4892C55.9299 36.5917 55.9073 36.6972 55.8498 36.7825C55.7924 36.8677 55.7047 36.9257 55.606 36.9437C26.2313 42.3178 27.6272 42.0682 27.551 42.0682Z" fill="black"/>
<path d="M24.6074 60.8847C24.5138 60.8848 24.4234 60.8487 24.354 60.7834C24.2845 60.7182 24.2408 60.6284 24.2314 60.5316C24.222 60.4348 24.2475 60.3377 24.3031 60.2594C24.3586 60.181 24.4401 60.1269 24.5319 60.1075L37.6024 57.3788C37.6511 57.3685 37.7012 57.3683 37.7499 57.3781C37.7986 57.3879 37.845 57.4077 37.8864 57.4361C37.9278 57.4646 37.9634 57.5012 37.9912 57.544C38.0189 57.5868 38.0383 57.6348 38.0483 57.6854C38.0582 57.736 38.0584 57.7881 38.049 57.8387C38.0395 57.8894 38.0206 57.9376 37.9932 57.9807C37.9658 58.0237 37.9305 58.0607 37.8894 58.0896C37.8483 58.1185 37.8021 58.1386 37.7534 58.1489C23.9415 61.0417 24.6836 60.8847 24.6074 60.8847Z" fill="black"/>
<path d="M43.7623 57.4997L42.5966 54.3597C44.0635 54.2663 44.8676 55.9745 44.9053 56.0569C44.9528 56.1426 45.0295 56.2065 45.1203 56.2359C45.2111 56.2653 45.3092 56.258 45.395 56.2155C45.4808 56.1729 45.548 56.0983 45.5832 56.0065C45.6184 55.9147 45.619 55.8124 45.5848 55.7201C45.1734 54.815 43.9993 53.3337 42.3112 53.6006L42.1058 53.0511C42.0696 52.954 41.9977 52.8758 41.906 52.8338C41.8143 52.7918 41.7103 52.7893 41.6169 52.827C41.5235 52.8647 41.4483 52.9394 41.4079 53.0348C41.3675 53.1301 41.3651 53.2382 41.4014 53.3353L41.5826 53.822C39.2345 54.8959 40.5762 58.5548 43.2572 58.3263L44.4138 61.4365C43.9362 61.49 43.4569 61.3521 43.0736 61.0509C42.6904 60.7497 42.432 60.3079 42.3512 59.8155C42.3443 59.7632 42.3272 59.7128 42.3012 59.6675C42.2751 59.6222 42.2405 59.5828 42.1995 59.5517C42.1584 59.5206 42.1117 59.4985 42.0623 59.4866C42.0128 59.4747 41.9615 59.4733 41.9115 59.4825C41.8614 59.4917 41.8137 59.5113 41.7712 59.5401C41.7286 59.5689 41.6921 59.6064 41.6638 59.6502C41.6355 59.6941 41.616 59.7434 41.6064 59.7953C41.5969 59.8471 41.5975 59.9005 41.6083 59.9521C41.7364 60.6741 42.1322 61.3148 42.7103 61.7364C43.2885 62.1579 44.0027 62.3265 44.6992 62.2058C44.8502 62.6172 44.8948 62.8652 45.2036 62.8652C45.2648 62.8652 45.3252 62.8496 45.3794 62.8199C45.4336 62.7901 45.48 62.7471 45.5146 62.6946C45.5492 62.642 45.5711 62.5815 45.5782 62.5182C45.5853 62.455 45.5775 62.3909 45.5554 62.3314L45.4482 62.0418C45.7352 61.9647 46.0002 61.8168 46.2207 61.6108C46.4412 61.4047 46.6108 61.1465 46.7151 60.858C47.2202 58.9724 46.142 57.4267 43.7623 57.4997ZM41.8597 54.5552L42.9741 57.5531C41.3078 57.5225 40.4123 55.246 41.8597 54.5552ZM45.9918 60.6492C45.9151 60.8171 45.8018 60.9642 45.661 61.0786C45.5201 61.1931 45.3554 61.2718 45.1802 61.3086L44.0552 58.2832C45.526 58.3256 46.3859 59.1639 45.9918 60.6492Z" fill="black"/>
<path d="M50.2824 56.2563L49.1152 53.1163C50.5822 53.0197 51.387 54.7326 51.4247 54.815C51.4722 54.9007 51.5489 54.9646 51.6397 54.994C51.7305 55.0234 51.8286 55.0161 51.9144 54.9736C52.0002 54.9311 52.0674 54.8564 52.1026 54.7646C52.1378 54.6728 52.1384 54.5705 52.1042 54.4783C51.6928 53.5724 50.5187 52.0942 48.8313 52.3588L48.626 51.8093C48.6081 51.7612 48.5812 51.7172 48.547 51.6799C48.5128 51.6426 48.4718 51.6127 48.4264 51.5918C48.3811 51.571 48.3322 51.5596 48.2826 51.5584C48.233 51.5572 48.1837 51.5662 48.1375 51.5848C48.0912 51.6034 48.0489 51.6313 48.0131 51.6669C47.9772 51.7025 47.9484 51.745 47.9283 51.7922C47.9083 51.8394 47.8974 51.8902 47.8962 51.9417C47.895 51.9933 47.9036 52.0446 47.9215 52.0927L48.1027 52.5794C45.7509 53.654 47.0986 57.3113 49.7773 57.0837L50.9347 60.1915C50.4574 60.2464 49.9779 60.1092 49.5946 59.8083C49.2114 59.5073 48.9534 59.0653 48.8736 58.5728C48.8667 58.5205 48.8497 58.4702 48.8236 58.4249C48.7975 58.3795 48.7629 58.3402 48.7219 58.3091C48.6808 58.278 48.6342 58.2558 48.5847 58.2439C48.5352 58.232 48.4839 58.2306 48.4339 58.2398C48.3839 58.249 48.3362 58.2686 48.2936 58.2974C48.251 58.3262 48.2145 58.3637 48.1862 58.4075C48.1579 58.4514 48.1384 58.5007 48.1288 58.5526C48.1193 58.6045 48.1199 58.6578 48.1307 58.7094C48.2587 59.4315 48.6544 60.0724 49.2326 60.494C49.8108 60.9155 50.5251 61.084 51.2216 60.9632C51.3726 61.3745 51.4172 61.6226 51.726 61.6226C51.7873 61.6225 51.8476 61.6069 51.9018 61.5772C51.956 61.5475 52.0024 61.5045 52.037 61.4519C52.0717 61.3994 52.0935 61.3389 52.1006 61.2756C52.1077 61.2123 52.0999 61.1482 52.0778 61.0888L51.9706 60.7991C52.2574 60.7215 52.5222 60.5735 52.7426 60.3675C52.9631 60.1616 53.1328 59.9036 53.2375 59.6153C53.7396 57.7203 52.6546 56.188 50.2824 56.2563ZM48.3776 53.311L49.4919 56.3081C47.8302 56.2743 46.9257 54.0041 48.3776 53.311ZM52.5097 59.4065C52.4327 59.5742 52.3191 59.7209 52.1779 59.8348C52.0367 59.9488 51.8719 60.0268 51.6965 60.0628L50.5731 57.0405C52.0748 57.0829 52.8977 57.9472 52.5097 59.4065Z" fill="black"/>
<path fill-rule="evenodd" clip-rule="evenodd" d="M64.354 52.7199C64.354 52.7199 67.3061 50.5784 68.2279 45.2812L70.3291 45.3597C70.3291 45.3597 68.6016 52.42 65.3642 54.0151L64.354 52.7199Z" fill="#81F8F8"/>
<path fill-rule="evenodd" clip-rule="evenodd" d="M71.085 50.4096C71.085 50.4096 77.7954 45.6996 73.2495 33.4199L75.4617 32.7086C75.4617 32.7086 80.5813 44.9641 72.8094 51.1907L71.085 50.4096Z" fill="#81F8F8"/>
<path d="M65.3647 54.4076C65.1239 54.4076 65.1495 54.3589 64.0616 52.9663C64.0289 52.9246 64.0049 52.8763 63.991 52.8245C63.9771 52.7727 63.9735 52.7184 63.9806 52.6651C63.9877 52.6118 64.0052 52.5606 64.0321 52.5147C64.0591 52.4687 64.0948 52.429 64.1371 52.398C64.1658 52.3776 66.9766 50.2683 67.8562 45.2113C67.8742 45.1193 67.9225 45.0367 67.9928 44.9778C68.0631 44.9189 68.151 44.8874 68.2413 44.8887C70.5289 44.9672 70.4851 44.9193 70.6308 45.1242C70.6646 45.1711 70.6878 45.2253 70.6987 45.2827C70.7097 45.3402 70.7082 45.3995 70.6943 45.4563C70.6225 45.7522 68.8823 52.7144 65.5255 54.3723C65.475 54.3961 65.4201 54.4081 65.3647 54.4076ZM64.8875 52.7795L65.4629 53.5174C67.8789 52.0495 69.404 47.2594 69.8366 45.7318L68.5387 45.6855C68.1048 48.4032 66.8216 50.8965 64.8875 52.7795Z" fill="black"/>
<path d="M70.9341 50.7715C70.8722 50.7434 70.8187 50.6986 70.7791 50.6417C70.7396 50.5848 70.7154 50.5179 70.7091 50.448C70.7029 50.3781 70.7148 50.3077 70.7436 50.2442C70.7724 50.1807 70.8171 50.1264 70.873 50.087C71.1357 49.9009 77.2716 45.377 72.8971 33.5635C72.8785 33.513 72.87 33.4591 72.8724 33.405C72.8747 33.351 72.8878 33.298 72.9107 33.2495C73.0074 33.0423 72.9281 33.1286 75.3501 32.3358C75.4389 32.3073 75.5346 32.3138 75.619 32.354C75.7034 32.3943 75.7706 32.4655 75.8077 32.554C75.8605 32.6796 80.953 45.1634 73.0398 51.5031C72.8028 51.6907 72.7658 51.5957 70.9341 50.7715ZM71.7948 50.306L72.7537 50.7393C79.2814 45.2883 75.9579 35.1374 75.2407 33.1946L73.745 33.675C77.3441 43.7991 73.2829 48.8726 71.7948 50.3005V50.306Z" fill="black"/>
</svg>
