<svg width="700" height="550" viewBox="0 0 700 550" fill="none" xmlns="http://www.w3.org/2000/svg">
<path d="M400.556 140.886C400.982 142.357 401.244 143.422 401.282 143.576C401.477 144.314 401.767 145.023 402.144 145.686C402.24 145.86 402.327 146.044 402.415 146.228C416.06 146.006 429.709 145.741 443.361 145.435C443.961 144.747 444.532 144.138 445.064 143.576C445.713 142.889 446.313 142.299 446.864 141.796C431.428 141.438 415.992 141.135 400.556 140.886ZM434.554 413.023C400.247 411.601 365.949 410.827 331.651 410.43L305.928 410.198C297.363 410.101 288.788 410.091 280.214 410.091C271.64 410.101 263.065 410.043 254.491 410.101L228.777 410.314L203.054 410.711L196.628 410.807L193.415 410.865L192.021 410.885L192.011 409.675L191.934 403.239C191.731 386.09 191.576 368.951 191.189 351.802L189.853 300.365C189.447 283.216 189.098 266.067 189.098 248.918C189.011 240.344 189.156 231.779 189.185 223.205C189.331 214.63 189.427 206.056 189.689 197.481L191.227 147.225C191.247 147.192 191.276 147.166 191.31 147.149C191.344 147.132 191.383 147.125 191.421 147.128C191.438 147.127 191.455 147.13 191.469 147.138H191.489L191.721 147.148L193.327 147.167L199.753 147.225L212.615 147.341L225.477 147.448L238.338 147.477C255.487 147.554 272.627 147.448 289.776 147.37L315.499 147.254L341.213 147.012C350.968 146.944 360.723 146.841 370.478 146.702C370.362 146.383 370.255 146.054 370.159 145.725C369.948 145.024 369.802 144.305 369.723 143.576C369.59 142.524 369.696 141.456 370.033 140.451C360.423 140.315 350.816 140.212 341.213 140.141L315.499 139.899L289.776 139.783C272.627 139.705 255.487 139.599 238.338 139.676L225.477 139.705L212.615 139.812L199.753 139.928L193.327 139.986L191.721 140.005L191.518 140.015L191.15 140.025C190.368 140.085 189.599 140.257 188.866 140.538C187.903 140.928 187.034 141.52 186.319 142.275C185.605 143.029 185.061 143.929 184.724 144.912C184.554 145.401 184.44 145.907 184.385 146.422C184.354 146.675 184.338 146.931 184.337 147.186L184.346 147.448V147.651L184.385 149.257L184.472 152.47L184.647 158.906L185.043 171.758L185.817 197.481C186.079 206.056 186.176 214.63 186.33 223.205C186.35 231.779 186.495 240.344 186.418 248.918C186.418 266.067 186.069 283.216 185.663 300.365L184.327 351.802C183.93 368.951 183.776 386.09 183.572 403.239L183.505 409.675L183.485 411.282V411.475L183.495 411.891C183.505 412.172 183.534 412.453 183.572 412.743C183.659 413.312 183.808 413.871 184.017 414.407C184.43 415.489 185.072 416.468 185.899 417.279C186.726 418.089 187.718 418.71 188.808 419.101C189.352 419.299 189.917 419.435 190.492 419.508C190.778 419.545 191.065 419.568 191.353 419.575L191.856 419.585H193.463L196.676 419.595L203.112 419.604L228.835 419.614L254.549 419.459C263.123 419.382 271.698 419.208 280.272 419.082C288.847 418.956 297.411 418.82 305.986 418.608L331.709 417.988C365.997 417.088 400.276 415.82 434.564 413.894C434.675 413.887 434.779 413.837 434.855 413.755C434.931 413.674 434.972 413.566 434.971 413.454C434.97 413.343 434.926 413.236 434.848 413.156C434.771 413.076 434.666 413.028 434.554 413.023L434.554 413.023ZM393.956 140.78C393.521 140.77 393.095 140.77 392.659 140.76C391.527 140.741 390.395 140.731 389.262 140.712C389.427 140.944 389.605 141.167 389.795 141.38C391.585 143.422 393.637 142.735 393.956 141.254C393.981 141.097 393.981 140.937 393.956 140.78H393.956Z" fill="black"/>
<path d="M453.776 93.0582C453.786 93.1122 453.842 93.0797 453.807 93.116L453.745 93.2114L453.625 93.4041C453.547 93.535 453.465 93.6622 453.394 93.7967C453.243 94.0603 453.103 94.33 452.97 94.6025C452.703 95.1475 452.462 95.702 452.245 96.2659C451.824 97.3912 451.538 98.5628 451.394 99.7558C451.096 102.109 451.441 104.5 452.393 106.672L452.401 106.693C452.414 106.725 452.423 106.759 452.429 106.793C452.679 107.915 452.673 109.079 452.411 110.198C452.313 110.496 452.18 110.781 452.013 111.047L451.629 111.714L450.882 113.056C450.638 113.503 450.402 113.954 450.191 114.401C450.087 114.625 449.988 114.849 449.911 115.059C449.875 115.153 449.845 115.249 449.819 115.346C449.813 115.379 449.808 115.415 449.808 115.415C449.794 115.419 449.851 115.382 449.72 115.133C449.632 114.996 449.496 114.897 449.338 114.858L449.414 114.874L449.575 114.904L449.917 114.951C450.149 114.976 450.383 114.989 450.616 114.991C451.059 115.002 451.5 114.949 451.928 114.835C452.11 114.781 452.305 114.796 452.477 114.875C452.649 114.954 452.786 115.093 452.864 115.265L452.876 115.293C453.506 116.688 454.24 118.034 455.072 119.319C455.888 120.595 456.832 121.785 457.889 122.869C458.87 123.925 460.092 124.726 461.45 125.206C462.105 125.406 462.793 125.474 463.475 125.406C464.156 125.338 464.817 125.136 465.42 124.81L465.47 124.786C465.625 124.71 465.802 124.691 465.969 124.732C466.137 124.773 466.285 124.871 466.388 125.009C467.249 126.166 468.048 127.368 468.781 128.609C469.151 129.239 469.488 129.888 469.79 130.554C470.14 131.266 470.345 132.04 470.392 132.832L470.196 132.406L475.994 137.608C477.935 139.332 479.892 141.038 481.864 142.725L487.816 147.747C489.792 149.43 491.813 151.06 493.818 152.709L493.046 153.025L493.769 141.986L494.581 130.956L494.921 131.733C493.619 130.723 492.408 129.675 491.208 128.578C490.016 127.481 488.855 126.346 487.761 125.136C486.644 123.932 485.613 122.651 484.675 121.302C483.697 119.92 482.911 118.41 482.341 116.815L482.823 117.398C481.219 116.502 479.662 115.525 478.157 114.471C477.409 113.927 476.672 113.356 475.96 112.722C475.148 112.05 474.483 111.219 474.006 110.28C473.924 110.107 473.898 109.914 473.931 109.726C473.964 109.537 474.054 109.364 474.189 109.229L474.247 109.171C474.731 108.665 475.123 108.078 475.406 107.438C475.7 106.78 475.885 106.079 475.953 105.362C476.007 104.633 475.948 103.9 475.777 103.19C475.684 102.826 475.567 102.47 475.427 102.122C475.308 101.787 475.156 101.464 474.974 101.159C474.653 100.608 474.145 100.191 473.541 99.9847C472.938 99.7788 472.28 99.7979 471.69 100.038C470.564 100.539 470.075 102.122 469.941 103.653L469.937 103.697C469.929 103.786 469.904 103.873 469.862 103.953C469.821 104.032 469.764 104.103 469.695 104.161C469.626 104.218 469.547 104.262 469.461 104.289C469.376 104.316 469.286 104.326 469.196 104.318C469.165 104.315 469.134 104.31 469.104 104.303C467.475 103.921 465.878 103.415 464.327 102.789C462.775 102.183 461.282 101.435 459.868 100.555C458.445 99.6761 457.157 98.5959 456.044 97.3483C454.951 96.1233 454.173 94.6509 453.776 93.0582ZM453.813 92.8682C454.428 94.388 455.329 95.7753 456.468 96.9544C457.621 98.066 458.921 99.0133 460.332 99.7694C461.737 100.545 463.21 101.19 464.733 101.695C466.242 102.215 467.789 102.62 469.36 102.906L468.524 103.556C468.551 102.645 468.726 101.743 469.042 100.887C469.386 99.9187 470.074 99.1104 470.976 98.617C471.443 98.3794 471.952 98.2363 472.475 98.1958C472.997 98.1553 473.523 98.2182 474.021 98.3809C474.995 98.7019 475.838 99.3325 476.421 100.177C476.683 100.574 476.904 100.997 477.08 101.44C477.263 101.858 477.419 102.287 477.545 102.726C477.793 103.627 477.898 104.562 477.855 105.495C477.798 106.439 477.575 107.365 477.197 108.232C476.82 109.122 476.282 109.935 475.609 110.629L475.85 109.52C476.233 110.164 476.728 110.734 477.312 111.203C477.952 111.755 478.644 112.278 479.357 112.78C480.797 113.791 482.286 114.729 483.819 115.591C484.046 115.72 484.218 115.928 484.302 116.175C484.818 117.586 485.507 118.928 486.351 120.171C487.215 121.459 488.168 122.686 489.203 123.842C490.23 125.02 491.335 126.139 492.473 127.225C493.61 128.303 494.798 129.366 496.002 130.334L496.025 130.353C496.137 130.443 496.224 130.56 496.279 130.692C496.334 130.825 496.356 130.969 496.342 131.111L495.206 142.113L493.981 153.108L493.979 153.127C493.969 153.212 493.937 153.292 493.885 153.36C493.833 153.427 493.763 153.479 493.684 153.509C493.604 153.54 493.518 153.548 493.434 153.533C493.35 153.518 493.272 153.48 493.208 153.423C491.266 151.7 489.341 149.958 487.37 148.268L481.481 143.173C479.502 141.493 477.512 139.826 475.511 138.173L469.468 133.258C469.412 133.213 469.367 133.158 469.334 133.094C469.301 133.031 469.281 132.962 469.275 132.891L469.271 132.832C469.183 132.215 468.982 131.619 468.678 131.074C468.365 130.468 468.021 129.878 467.647 129.307C466.885 128.151 466.062 127.036 465.182 125.967L466.15 126.166C465.376 126.602 464.529 126.894 463.65 127.028C462.754 127.151 461.842 127.083 460.973 126.828C459.329 126.297 457.846 125.358 456.664 124.098C455.515 122.925 454.507 121.622 453.659 120.215C452.802 118.836 452.052 117.393 451.415 115.899L452.363 116.356C451.783 116.504 451.186 116.566 450.589 116.542C450.303 116.535 450.018 116.513 449.734 116.476L449.305 116.409L449.085 116.364L448.971 116.336C448.866 116.307 448.766 116.261 448.675 116.2C448.579 116.135 448.498 116.049 448.437 115.95C448.316 115.753 448.266 115.52 448.295 115.29C448.305 115.184 448.324 115.08 448.351 114.977C448.393 114.823 448.443 114.671 448.502 114.523C448.61 114.248 448.727 114 448.847 113.755C449.089 113.267 449.344 112.802 449.606 112.343C449.866 111.883 450.139 111.433 450.421 110.99L450.847 110.326C450.968 110.158 451.067 109.976 451.142 109.784C451.38 108.879 451.421 107.934 451.262 107.012L451.299 107.132C450.611 105.34 450.293 103.428 450.362 101.511C450.407 100.88 450.49 100.252 450.612 99.6315C450.853 98.4012 451.241 97.2041 451.766 96.0656C452.026 95.5011 452.319 94.9522 452.644 94.4217C452.807 94.1576 452.975 93.8976 453.155 93.6448C453.24 93.516 453.337 93.3938 453.428 93.269L453.57 93.0849L453.643 92.9938C453.685 92.9355 453.745 92.8917 453.813 92.8682Z" fill="black"/>
<path d="M472.979 113.047C472.913 114.774 472.569 116.478 471.962 118.096C471.666 118.915 471.285 119.702 470.826 120.443C470.59 120.822 470.309 121.173 469.991 121.487C469.841 121.66 469.655 121.799 469.446 121.894C469.238 121.989 469.012 122.039 468.783 122.04C469.152 121.862 469.449 121.561 469.622 121.188C469.824 120.833 470.003 120.465 470.159 120.088C470.475 119.326 470.772 118.548 471.055 117.761C471.613 116.157 472.256 114.584 472.979 113.047Z" fill="black"/>
<path d="M451.345 105.497C451.738 105.181 452.188 104.943 452.67 104.797C453.144 104.643 453.637 104.553 454.135 104.529C454.642 104.512 455.149 104.574 455.637 104.711C456.134 104.852 456.585 105.123 456.942 105.497L455.521 105.458C455.068 105.471 454.623 105.473 454.172 105.496C453.231 105.555 452.287 105.555 451.345 105.497Z" fill="black"/>
<path d="M454.865 120.526C455.708 119.949 456.518 119.325 457.291 118.656C457.636 118.33 457.944 117.968 458.21 117.576C458.48 117.138 458.708 116.676 458.89 116.195C459.078 116.745 459.08 117.341 458.896 117.892C458.705 118.45 458.382 118.954 457.955 119.36C457.532 119.744 457.042 120.047 456.509 120.253C455.989 120.467 455.427 120.56 454.865 120.526Z" fill="black"/>
<path d="M454.993 110.106C455.358 110.093 455.703 109.94 455.956 109.677C456.209 109.415 456.351 109.065 456.351 108.701C456.351 108.336 456.209 107.986 455.956 107.724C455.703 107.462 455.358 107.308 454.993 107.295C454.629 107.308 454.284 107.462 454.031 107.724C453.778 107.986 453.636 108.336 453.636 108.701C453.636 109.065 453.778 109.415 454.031 109.677C454.284 109.94 454.629 110.093 454.993 110.106Z" fill="black"/>
<path d="M483.321 116.495C498.448 110.539 486.019 89.5158 486.019 89.5158C488.417 91.9139 499.958 79.6235 486.019 76.4759C472.08 73.3284 476.127 84.4198 476.127 84.4198C460.389 79.7734 453.794 92.9631 453.794 92.9631C453.794 92.9631 454.961 99.7664 469.232 103.605C469.232 103.605 470.038 96.0137 475.668 100.625C476.635 102.019 477.089 103.704 476.955 105.395C476.82 107.086 476.104 108.677 474.928 109.9C474.928 109.9 481.811 117.089 483.321 116.495Z" fill="black"/>
<path d="M469.841 132.928C466.724 133.394 463.637 134.04 460.595 134.863C459.09 135.261 457.614 135.761 456.177 136.361C454.808 136.841 453.606 137.707 452.715 138.853L452.461 137.952C454.135 138.975 455.577 140.337 456.693 141.95C457.259 142.732 457.765 143.556 458.209 144.413C458.613 145.284 458.994 146.174 459.316 147.078C460.483 150.732 460.811 154.603 460.273 158.401C460.222 158.872 460.19 159.347 460.121 159.815L459.835 161.202L459.235 163.969C458.645 165.752 458.135 167.568 457.429 169.301C456.667 171.01 456 172.761 455.161 174.426L452.561 179.37L452.567 178.932C454.087 182.119 455.636 185.292 457.216 188.449L457.051 188.301C459.129 189.057 461.251 189.686 463.406 190.184C465.557 190.711 467.732 191.133 469.916 191.489C474.287 192.147 478.707 192.427 483.126 192.324L486.424 192.171L489.701 191.814C491.874 191.53 494.031 191.137 496.163 190.635L499.328 189.776C500.373 189.463 501.379 189.035 502.407 188.671L503.94 188.103C504.439 187.886 504.919 187.627 505.41 187.392L508.337 185.948L507.901 186.454C509.428 182.002 510.721 177.473 511.774 172.885C512.863 168.316 513.606 163.671 513.995 158.99C514.33 154.347 514.258 149.583 512.802 145.22C512.126 143.043 510.963 141.048 509.403 139.386C507.776 137.765 505.751 136.601 503.532 136.012L503.502 136.004C503.475 135.996 503.45 135.985 503.425 135.971L495.414 131.118C495.393 131.105 495.377 131.084 495.371 131.059C495.365 131.035 495.368 131.009 495.38 130.987C495.393 130.966 495.413 130.949 495.437 130.942C495.461 130.935 495.487 130.937 495.509 130.949L503.835 135.238L503.729 135.197C506.154 135.711 508.398 136.863 510.229 138.534C512.026 140.253 513.391 142.373 514.212 144.72C515.907 149.366 516.103 154.311 515.901 159.109C515.604 163.907 514.897 168.67 513.79 173.348C512.72 178.023 511.355 182.624 509.702 187.126L509.685 187.173C509.61 187.375 509.46 187.539 509.266 187.631L506.19 189.089C505.675 189.326 505.17 189.586 504.647 189.804L503.045 190.369C501.973 190.731 500.919 191.156 499.832 191.462L496.54 192.27C492.135 193.211 487.636 193.64 483.133 193.548C478.659 193.456 474.199 193.004 469.798 192.196C465.396 191.428 461.061 190.318 456.833 188.876C456.764 188.852 456.707 188.803 456.673 188.739L456.668 188.728C455.055 185.587 453.407 182.465 451.724 179.36C451.691 179.299 451.673 179.231 451.671 179.161C451.669 179.092 451.683 179.023 451.712 178.96L451.73 178.921L454.069 173.922C454.821 172.247 455.395 170.501 456.066 168.8C456.377 167.941 456.645 167.068 456.867 166.182L457.635 163.559L458.149 160.887L458.419 159.555C458.482 159.108 458.508 158.657 458.554 158.209C459.068 154.65 458.812 151.023 457.805 147.571C457.522 146.732 457.185 145.907 456.829 145.097C456.436 144.304 455.985 143.541 455.479 142.815C454.5 141.364 453.263 140.106 451.83 139.103L451.757 139.054C451.622 138.964 451.527 138.824 451.494 138.665C451.46 138.506 451.489 138.34 451.576 138.202C452.076 137.457 452.745 136.841 453.528 136.403C454.24 135.985 454.985 135.628 455.757 135.336C457.264 134.777 458.81 134.33 460.382 133.998C463.495 133.355 466.65 132.933 469.822 132.736C469.848 132.734 469.873 132.743 469.892 132.76C469.911 132.777 469.923 132.801 469.925 132.826C469.926 132.851 469.918 132.874 469.902 132.893C469.887 132.912 469.865 132.924 469.841 132.928Z" fill="black"/>
<path d="M404.021 158.548C406.866 158.354 409.721 158.199 412.566 158.074C417.715 157.832 422.854 157.696 428.002 157.59C430.044 157.561 432.086 157.541 434.128 157.532C433.703 158.141 433.286 158.761 432.851 159.409C431.244 159.458 429.638 159.496 428.031 159.525C422.893 159.593 417.744 159.641 412.595 159.583C409.895 159.554 407.205 159.506 404.505 159.429L404.021 158.548Z" fill="black"/>
<path d="M423.754 173.829C423.628 174.033 423.502 174.236 423.386 174.449L421.286 174.555C419.593 174.642 417.899 174.71 416.205 174.768C415.944 174.478 415.683 174.178 415.412 173.868C417.367 173.829 419.312 173.8 421.267 173.81L423.754 173.829Z" fill="black"/>
<path d="M377.054 156.363C374.425 156.428 371.8 156.47 369.184 156.607C367.877 156.672 366.572 156.776 365.281 156.895C364.637 156.96 363.994 157.037 363.375 157.151C363.076 157.203 362.78 157.274 362.49 157.363C362.37 157.399 362.254 157.446 362.144 157.505C362.121 157.517 362.099 157.533 362.08 157.551C362.109 157.525 362.133 157.494 362.149 157.458C362.164 157.423 362.172 157.384 362.172 157.345L361.541 157.932C361.352 157.947 361.166 157.983 360.986 158.04C360.837 158.083 360.698 158.155 360.577 158.252C360.544 158.281 360.517 158.316 360.498 158.356C360.479 158.395 360.468 158.438 360.465 158.482C360.459 158.62 360.48 158.758 360.527 158.889C360.565 159.037 360.558 159.192 360.506 159.336C360.454 159.479 360.359 159.604 360.234 159.692C359.991 159.866 359.762 160.062 359.552 160.275C359.354 160.472 359.183 160.694 359.046 160.937C358.946 161.101 358.9 161.291 358.914 161.482C358.955 161.65 359.048 161.799 359.18 161.91C359.324 162.05 359.409 162.24 359.416 162.441C359.424 162.642 359.353 162.838 359.22 162.988L359.19 163.022C358.628 163.652 358.175 164.637 358.382 165.069C358.516 165.355 358.753 165.579 359.046 165.698C359.222 165.788 359.407 165.861 359.597 165.919L360.361 166.111C362.407 166.61 364.457 167.09 366.514 167.55C368.569 168.001 370.631 168.416 372.693 168.745C373.722 168.915 374.752 169.067 375.773 169.166C376.738 169.287 377.715 169.295 378.682 169.19L378.693 169.188C378.898 169.156 379.107 169.193 379.289 169.291C379.471 169.39 379.616 169.546 379.701 169.735C379.786 169.924 379.806 170.136 379.758 170.338C379.711 170.539 379.599 170.72 379.439 170.851C378.355 171.756 377.381 172.783 376.535 173.913C375.693 174.98 375.112 176.229 374.839 177.561C374.742 178.181 374.777 178.815 374.939 179.422C375.102 180.028 375.39 180.594 375.784 181.083C375.938 181.277 376.142 181.425 376.374 181.511C376.606 181.597 376.857 181.619 377.1 181.574C377.664 181.452 378.16 181.123 378.492 180.652C378.674 180.408 378.817 180.136 378.916 179.848C378.968 179.702 379.008 179.553 379.037 179.401L379.176 178.772C379.44 177.948 379.924 177.212 380.577 176.644C381.819 175.593 383.349 174.94 384.968 174.771C385.768 174.632 386.59 174.696 387.359 174.956C387.549 175.03 387.735 175.114 387.915 175.209C388.076 175.31 388.248 175.391 388.428 175.449C388.76 175.581 389.107 175.671 389.461 175.719C390.931 175.9 392.42 175.603 393.709 174.873C392.467 175.783 390.951 176.239 389.413 176.165C388.633 176.148 387.866 175.763 387.183 175.814C386.491 175.799 385.799 175.825 385.111 175.89C383.737 176.058 382.445 176.632 381.4 177.539C380.923 177.964 380.572 178.512 380.385 179.123L380.294 179.591C380.268 179.809 380.224 180.025 380.164 180.236C380.044 180.664 379.855 181.069 379.604 181.436C379.092 182.221 378.301 182.781 377.391 183.004C376.898 183.113 376.386 183.092 375.904 182.941C375.422 182.791 374.988 182.517 374.644 182.148C374.058 181.498 373.619 180.73 373.358 179.895C373.108 179.063 373.037 178.187 373.15 177.325C373.422 175.704 374.075 174.17 375.054 172.85C375.971 171.56 377.051 170.393 378.266 169.38L379.023 171.041C377.887 171.19 376.736 171.199 375.598 171.067C374.51 170.97 373.442 170.824 372.382 170.655C370.265 170.298 368.179 169.858 366.102 169.385C364.025 168.915 361.962 168.394 359.913 167.823L359.142 167.608C358.825 167.511 358.52 167.381 358.229 167.222C357.552 166.887 357.032 166.303 356.777 165.592C356.581 164.878 356.656 164.116 356.988 163.455C357.253 162.888 357.611 162.37 358.047 161.921L358.057 163.033C357.681 162.66 357.442 162.17 357.38 161.644C357.347 161.135 357.474 160.629 357.744 160.196C357.963 159.84 358.23 159.517 358.538 159.234C358.828 158.963 359.141 158.72 359.475 158.506L359.183 159.309C359.078 158.966 359.052 158.605 359.108 158.251C359.18 157.846 359.396 157.48 359.715 157.22C359.985 157.01 360.297 156.86 360.63 156.781C360.928 156.705 361.234 156.667 361.541 156.668L360.911 157.255C360.936 157.013 361.053 156.789 361.236 156.629C361.342 156.54 361.458 156.465 361.583 156.406C361.767 156.32 361.96 156.252 362.158 156.205C362.501 156.121 362.849 156.058 363.2 156.018C363.879 155.935 364.545 155.896 365.21 155.869C366.538 155.81 367.859 155.846 369.176 155.88C371.81 155.965 374.436 156.105 377.054 156.363Z" fill="black"/>
<path d="M374.956 159.436C372.684 159.365 370.422 159.128 368.185 158.726C367.071 158.529 365.96 158.325 364.855 158.079C363.746 157.847 362.657 157.557 361.541 157.3C362.682 157.192 363.831 157.203 364.969 157.333C366.104 157.427 367.227 157.592 368.346 157.773C370.594 158.134 372.805 158.69 374.956 159.436Z" fill="black"/>
<path d="M359.855 159.099C362.095 159.164 364.326 159.432 366.518 159.898C367.611 160.129 368.701 160.382 369.776 160.701C370.314 160.859 370.848 161.035 371.378 161.229C371.921 161.402 372.433 161.661 372.895 161.996C372.359 161.846 371.812 161.743 371.259 161.689L369.609 161.437C368.508 161.27 367.417 161.059 366.325 160.846C364.129 160.421 361.966 159.837 359.855 159.099Z" fill="black"/>
<path d="M358.618 162.471C361.292 162.492 363.96 162.746 366.589 163.232C367.902 163.473 369.212 163.747 370.503 164.115C371.827 164.402 373.08 164.951 374.187 165.731C373.583 165.463 372.944 165.283 372.289 165.196L370.336 164.852L366.419 164.184C363.811 163.702 361.201 163.215 358.618 162.471Z" fill="black"/>
<path d="M469.334 131.033C473.67 131.195 477.878 131.609 482.081 131.723C484.167 131.817 486.256 131.785 488.338 131.625C490.438 131.527 492.503 131.041 494.426 130.192C492.816 131.738 490.773 132.758 488.57 133.117C486.418 133.569 484.218 133.75 482.021 133.656C479.849 133.577 477.687 133.321 475.557 132.891C473.425 132.485 471.339 131.863 469.334 131.033Z" fill="black"/>
<path d="M459.594 189.466C459.937 191.487 460.099 193.535 460.078 195.585C460.101 197.635 459.939 199.682 459.594 201.703C459.25 199.682 459.088 197.635 459.111 195.585C459.09 193.535 459.252 191.487 459.594 189.466Z" fill="black"/>
<path d="M502.998 189.466C503.34 191.071 503.502 192.708 503.482 194.348C503.504 195.989 503.342 197.626 502.998 199.23C502.655 197.626 502.492 195.989 502.515 194.348C502.494 192.708 502.657 191.071 502.998 189.466Z" fill="black"/>
<path d="M436.408 440.243C435.508 451.934 408.529 463.625 402.234 464.749C395.939 465.873 399.536 467.447 399.536 467.447C399.536 467.447 428.539 474.416 462.263 446.088C462.263 446.088 464.511 441.142 462.263 438.219C460.014 435.297 461.928 432.007 461.928 432.007" stroke="black" stroke-width="1.24903" stroke-linecap="round" stroke-linejoin="round"/>
<path d="M462.263 438.219C467.658 445.189 460.464 470.144 460.464 470.144H455.293V459.802C455.293 459.802 447.199 460.252 434.853 468.204C425.202 474.421 409.747 474.302 403.458 473.954C402.359 473.909 401.285 473.607 400.324 473.072C399.362 472.536 398.54 471.783 397.923 470.872C394.801 466.083 402.234 464.749 402.234 464.749C402.234 464.749 404.016 465.359 411.69 463.95C428.063 460.899 443.394 453.742 456.248 443.151L462.263 438.219Z" fill="black"/>
<path d="M420.233 457.104C421.209 457.326 422.089 457.851 422.749 458.603C423.412 459.335 423.889 460.216 424.14 461.17C424.411 462.144 424.412 463.173 424.144 464.147C423.894 465.134 423.305 466.001 422.479 466.596C422.179 465.571 422.075 464.781 421.864 464.028C421.693 463.284 421.525 462.604 421.333 461.91L420.773 459.731C420.58 458.95 420.389 458.132 420.233 457.104Z" fill="black"/>
<path d="M430.234 450.106C431.473 450.492 432.599 451.176 433.512 452.098C434.441 453.006 435.189 454.082 435.716 455.269C436.247 456.504 436.483 457.846 436.405 459.188C436.318 460.534 435.77 461.809 434.853 462.798C434.676 461.644 434.435 460.5 434.13 459.373C433.814 458.353 433.457 457.396 433.051 456.418C432.621 455.449 432.16 454.468 431.675 453.441C431.192 452.408 430.698 451.345 430.234 450.106Z" fill="black"/>
<path d="M505.696 434.361C504.797 446.051 477.818 457.742 471.523 458.866C465.228 459.991 468.825 461.564 468.825 461.564C468.825 461.564 497.828 468.534 531.551 440.206C531.551 440.206 533.8 435.26 531.551 432.337C529.303 429.414 531.216 426.125 531.216 426.125" stroke="black" stroke-width="1.24903" stroke-linecap="round" stroke-linejoin="round"/>
<path d="M531.551 432.337C536.947 439.307 529.753 464.263 529.753 464.263H524.582V453.921C524.582 453.921 516.488 454.37 504.141 462.323C494.49 468.539 479.035 468.42 472.747 468.072C471.648 468.027 470.574 467.725 469.612 467.19C468.651 466.655 467.829 465.901 467.211 464.99C464.089 460.202 471.523 458.867 471.523 458.867C471.523 458.867 473.305 459.478 480.979 458.068C497.352 455.017 512.683 447.86 525.536 437.269L531.551 432.337Z" fill="black"/>
<path d="M489.521 451.223C490.497 451.444 491.378 451.969 492.037 452.722C492.7 453.453 493.178 454.334 493.429 455.289C493.7 456.262 493.701 457.291 493.432 458.265C493.183 459.252 492.593 460.119 491.768 460.714C491.467 459.689 491.364 458.899 491.152 458.146C490.982 457.402 490.813 456.722 490.622 456.028L490.061 453.849C489.869 453.068 489.677 452.25 489.521 451.223Z" fill="black"/>
<path d="M499.522 444.224C500.762 444.609 501.887 445.293 502.8 446.216C503.73 447.124 504.478 448.2 505.005 449.387C505.536 450.622 505.772 451.964 505.694 453.306C505.607 454.652 505.059 455.926 504.141 456.915C503.965 455.761 503.724 454.618 503.419 453.491C503.103 452.471 502.746 451.514 502.339 450.536C501.909 449.566 501.449 448.586 500.964 447.559C500.481 446.526 499.986 445.463 499.522 444.224Z" fill="black"/>
<path d="M159.274 466.223C157.981 454.629 157.31 443.036 156.827 431.442C156.714 428.544 156.605 425.646 156.528 422.747L156.496 421.661L156.48 421.117C156.476 420.927 156.464 420.796 156.475 420.471C156.496 419.329 156.769 418.206 157.275 417.183C157.788 416.153 158.519 415.246 159.417 414.527C160.315 413.807 161.359 413.291 162.476 413.015C163.029 412.884 163.593 412.807 164.161 412.786L165.248 412.747L167.423 412.678L171.774 412.539L180.476 412.33L189.179 412.201C190.628 412.185 192.081 412.184 193.542 412.213L195.729 412.241L196.294 412.249C196.582 412.264 196.87 412.272 197.157 412.311C197.731 412.386 198.296 412.523 198.841 412.719C199.925 413.109 200.911 413.73 201.729 414.541C202.547 415.351 203.179 416.33 203.58 417.41C203.781 417.945 203.92 418.501 203.993 419.068C204.06 419.567 204.082 420.071 204.059 420.574L203.994 422.747C203.917 425.646 203.812 428.544 203.696 431.442C203.214 443.036 202.541 454.629 201.241 466.223C199.94 454.629 199.267 443.036 198.785 431.442C198.67 428.544 198.565 425.646 198.487 422.747L198.423 420.574C198.428 420.352 198.408 420.13 198.365 419.913C198.338 419.761 198.292 419.614 198.226 419.474C198.104 419.197 197.923 418.95 197.695 418.75C197.467 418.55 197.199 418.403 196.908 418.318C196.768 418.278 196.624 418.252 196.479 418.242L196.257 418.236L195.735 418.241L193.575 418.269C192.137 418.278 190.692 418.316 189.243 418.369L180.56 418.573L163.806 418.773C163.507 418.829 163.225 418.95 162.977 419.126C162.729 419.301 162.523 419.529 162.371 419.792C162.219 420.065 162.123 420.366 162.09 420.677C162.074 420.823 162.066 420.97 162.066 421.117L162.051 421.661L162.018 422.747C161.942 425.646 161.833 428.544 161.72 431.442C161.236 443.036 160.566 454.629 159.274 466.223Z" fill="black"/>
<path d="M159.873 476.265C174.339 476.265 174.363 453.782 159.873 453.782C145.407 453.782 145.383 476.265 159.873 476.265Z" fill="black"/>
<path d="M201.84 476.864C216.307 476.864 216.331 454.382 201.84 454.382C187.374 454.382 187.35 476.864 201.84 476.864Z" fill="black"/>
<path d="M203.939 140.751C204.103 139.249 204.41 137.767 204.857 136.324C205.088 135.588 205.37 134.869 205.701 134.172C206.044 133.408 206.536 132.72 207.147 132.149C207.529 131.792 208.008 131.557 208.524 131.474C209.082 131.4 209.648 131.527 210.121 131.832C210.852 132.335 211.46 132.995 211.902 133.764C212.69 135.126 213.299 136.584 213.716 138.101C214.11 139.606 214.341 141.148 214.404 142.702C214.43 144.274 214.361 145.722 214.286 147.22C214.145 150.197 213.934 153.174 213.531 156.151C213.128 153.174 212.918 150.197 212.776 147.22C212.672 145.743 212.703 144.212 212.575 142.809C212.473 141.388 212.23 139.981 211.849 138.608C211.497 137.246 210.986 135.93 210.325 134.687C210.058 134.143 209.682 133.659 209.222 133.264C209.077 133.144 208.894 133.079 208.706 133.08C208.479 133.093 208.262 133.178 208.088 133.323C207.574 133.734 207.138 134.232 206.798 134.795C206.404 135.399 206.048 136.028 205.734 136.677C205.069 137.984 204.505 139.361 203.939 140.751Z" fill="black"/>
<path d="M234.884 140.751C235.049 139.249 235.356 137.767 235.803 136.324C236.034 135.588 236.316 134.869 236.646 134.172C236.99 133.408 237.481 132.72 238.093 132.149C238.475 131.792 238.954 131.557 239.47 131.474C240.028 131.4 240.594 131.527 241.067 131.832C241.797 132.335 242.406 132.995 242.848 133.764C243.635 135.126 244.245 136.584 244.662 138.101C245.056 139.606 245.287 141.148 245.35 142.702C245.376 144.274 245.307 145.722 245.232 147.22C245.09 150.197 244.88 153.174 244.477 156.151C244.074 153.174 243.864 150.197 243.722 147.22C243.618 145.743 243.648 144.212 243.52 142.809C243.419 141.388 243.176 139.981 242.795 138.608C242.443 137.246 241.931 135.93 241.271 134.687C241.004 134.143 240.628 133.659 240.167 133.264C240.023 133.144 239.84 133.079 239.652 133.08C239.425 133.093 239.208 133.178 239.033 133.323C238.52 133.734 238.083 134.232 237.744 134.795C237.35 135.399 236.994 136.028 236.68 136.677C236.014 137.984 235.451 139.361 234.884 140.751Z" fill="black"/>
<path d="M269.894 140.751C270.058 139.249 270.366 137.767 270.812 136.324C271.044 135.588 271.326 134.869 271.656 134.172C271.999 133.408 272.491 132.72 273.103 132.149C273.485 131.792 273.964 131.557 274.479 131.474C275.038 131.4 275.604 131.527 276.077 131.832C276.807 132.335 277.415 132.995 277.858 133.764C278.645 135.126 279.255 136.584 279.672 138.101C280.066 139.606 280.296 141.148 280.359 142.702C280.386 144.274 280.316 145.722 280.242 147.22C280.1 150.197 279.89 153.174 279.487 156.151C279.084 153.174 278.873 150.197 278.731 147.22C278.627 145.743 278.658 144.212 278.53 142.809C278.429 141.388 278.186 139.981 277.805 138.608C277.453 137.246 276.941 135.93 276.281 134.687C276.013 134.143 275.638 133.659 275.177 133.264C275.032 133.144 274.85 133.079 274.662 133.08C274.435 133.093 274.218 133.178 274.043 133.323C273.529 133.734 273.093 134.232 272.754 134.795C272.359 135.399 272.004 136.028 271.689 136.677C271.024 137.984 270.461 139.361 269.894 140.751Z" fill="black"/>
<path d="M306.696 140.751C306.86 139.249 307.168 137.767 307.614 136.324C307.846 135.588 308.128 134.869 308.458 134.172C308.801 133.408 309.293 132.72 309.905 132.149C310.287 131.792 310.766 131.557 311.281 131.474C311.839 131.4 312.405 131.527 312.879 131.832C313.609 132.335 314.217 132.995 314.66 133.764C315.447 135.126 316.056 136.584 316.473 138.101C316.867 139.606 317.098 141.148 317.161 142.702C317.187 144.274 317.118 145.722 317.044 147.22C316.902 150.197 316.691 153.174 316.288 156.151C315.886 153.174 315.675 150.197 315.533 147.22C315.429 145.743 315.46 144.212 315.332 142.809C315.23 141.388 314.987 139.981 314.607 138.608C314.254 137.246 313.743 135.93 313.082 134.687C312.815 134.143 312.44 133.659 311.979 133.264C311.834 133.144 311.652 133.079 311.464 133.08C311.237 133.093 311.02 133.178 310.845 133.323C310.331 133.734 309.895 134.232 309.556 134.795C309.161 135.399 308.806 136.028 308.491 136.677C307.826 137.984 307.263 139.361 306.696 140.751Z" fill="black"/>
<path d="M198.543 167.979C200.744 165.396 203.103 162.991 205.501 160.627C206.714 159.461 207.915 158.282 209.157 157.148C210.394 156.009 211.626 154.864 212.896 153.761L212.913 153.746C213.007 153.664 213.115 153.602 213.233 153.563C213.35 153.524 213.475 153.508 213.598 153.516C213.722 153.525 213.843 153.558 213.954 153.613C214.064 153.669 214.163 153.745 214.245 153.839C214.272 153.871 214.298 153.904 214.321 153.94C215.807 156.2 217.239 158.497 218.616 160.831C219.312 161.992 219.976 163.175 220.635 164.361C221.289 165.551 221.93 166.749 222.524 167.979C221.62 166.956 220.762 165.902 219.917 164.84C219.077 163.773 218.243 162.704 217.44 161.613C215.819 159.442 214.253 157.234 212.742 154.991L214.166 155.17C212.938 156.319 211.672 157.426 210.411 158.539C209.155 159.658 207.858 160.73 206.573 161.817C203.975 163.957 201.339 166.056 198.543 167.979Z" fill="black"/>
<path d="M227.69 167.979C229.891 165.397 232.25 162.991 234.648 160.627C235.861 159.461 237.062 158.282 238.304 157.148C239.541 156.009 240.774 154.864 242.043 153.761L242.06 153.746C242.154 153.664 242.262 153.602 242.38 153.563C242.497 153.524 242.622 153.508 242.745 153.516C242.869 153.525 242.99 153.558 243.101 153.613C243.211 153.669 243.31 153.745 243.392 153.839C243.419 153.871 243.445 153.905 243.468 153.94C244.954 156.2 246.386 158.497 247.763 160.831C248.459 161.992 249.123 163.175 249.783 164.361C250.436 165.551 251.077 166.749 251.671 167.979C250.767 166.956 249.909 165.902 249.064 164.84C248.224 163.773 247.39 162.704 246.587 161.613C244.966 159.442 243.4 157.234 241.889 154.991L243.314 155.17C242.085 156.319 240.819 157.426 239.558 158.539C238.302 159.658 237.005 160.73 235.721 161.817C233.122 163.957 230.485 166.056 227.69 167.979Z" fill="black"/>
<path d="M262.7 167.979C264.9 165.396 267.26 162.991 269.657 160.627C270.871 159.461 272.072 158.282 273.314 157.148C274.551 156.009 275.783 154.864 277.053 153.761L277.07 153.746C277.163 153.664 277.272 153.602 277.39 153.563C277.507 153.524 277.631 153.508 277.755 153.516C277.879 153.525 277.999 153.558 278.11 153.613C278.221 153.669 278.32 153.745 278.401 153.839C278.429 153.871 278.454 153.905 278.478 153.94C279.964 156.2 281.395 158.497 282.772 160.831C283.469 161.992 284.133 163.175 284.792 164.361C285.446 165.551 286.087 166.749 286.681 167.979C285.776 166.956 284.919 165.902 284.073 164.84C283.234 163.773 282.4 162.704 281.597 161.613C279.976 159.442 278.41 157.234 276.898 154.991L278.323 155.17C277.095 156.319 275.829 157.426 274.568 158.539C273.312 159.658 272.015 160.73 270.73 161.817C268.131 163.957 265.495 166.056 262.7 167.979Z" fill="black"/>
<path d="M301.139 167.979C303.34 165.396 305.7 162.991 308.097 160.627C309.31 159.461 310.511 158.282 311.753 157.148C312.991 156.009 314.223 154.864 315.492 153.761L315.509 153.746C315.603 153.664 315.712 153.602 315.829 153.563C315.947 153.524 316.071 153.508 316.194 153.516C316.318 153.525 316.439 153.558 316.55 153.613C316.661 153.669 316.76 153.745 316.841 153.839C316.868 153.871 316.894 153.905 316.917 153.94C318.403 156.2 319.835 158.497 321.212 160.831C321.908 161.992 322.572 163.175 323.232 164.361C323.885 165.551 324.526 166.749 325.12 167.979C324.216 166.956 323.358 165.902 322.513 164.84C321.673 163.773 320.839 162.704 320.036 161.613C318.416 159.442 316.849 157.234 315.338 154.991L316.763 155.17C315.534 156.319 314.268 157.426 313.008 158.539C311.752 159.658 310.454 160.73 309.17 161.817C306.571 163.957 303.935 166.056 301.139 167.979Z" fill="black"/>
<path d="M205.804 227.463H205.572C205.683 227.825 205.828 228.175 206.007 228.508C205.896 228.17 205.828 227.819 205.804 227.463ZM205.804 227.463H205.572C205.683 227.825 205.828 228.175 206.007 228.508C205.896 228.17 205.828 227.819 205.804 227.463ZM205.804 227.463H205.572C205.683 227.825 205.828 228.175 206.007 228.508C205.896 228.17 205.828 227.819 205.804 227.463ZM205.804 227.463H205.572C205.683 227.825 205.828 228.175 206.007 228.508C205.896 228.17 205.828 227.819 205.804 227.463ZM205.804 227.463H205.572C205.683 227.825 205.828 228.175 206.007 228.508C205.896 228.17 205.828 227.819 205.804 227.463ZM224.627 272.271C223.33 266.009 222.156 259.725 221.104 253.419C220.03 247.128 219.062 240.809 218.124 234.489C217.214 228.17 216.333 221.84 215.559 215.501C214.766 209.163 214.088 202.807 213.527 196.436C214.824 202.698 215.998 208.982 217.05 215.289C218.124 221.579 219.092 227.899 220.03 234.208C220.94 240.538 221.821 246.857 222.595 253.206C223.398 259.545 224.076 265.9 224.627 272.271H234.886C242.144 265.38 244.476 241.699 242.308 235.399C241.476 232.979 236.018 218.618 234.886 216.518C233.753 214.418 231.818 195.236 233.318 181.146C234.818 167.055 213.527 167.974 213.527 167.974C213.888 170.985 213.551 174.038 212.54 176.897C212.012 178.422 211.114 179.792 209.927 180.884C208.625 182.009 206.952 182.609 205.233 182.568C205.078 182.558 204.923 182.549 204.769 182.529C205.078 186.12 205.253 189.72 205.378 193.31C205.523 197.23 205.581 201.149 205.64 205.069C205.669 208.979 205.688 212.898 205.669 216.808L205.659 222.673C205.649 223.65 205.678 224.627 205.698 225.605C205.717 226.099 205.727 226.582 205.775 227.066C205.785 227.202 205.794 227.328 205.804 227.463C206.621 227.469 207.436 227.537 208.243 227.666C208.971 227.781 209.682 227.983 210.362 228.266C211.074 228.532 211.668 229.044 212.037 229.708C211.451 229.379 210.792 229.199 210.12 229.186C209.46 229.144 208.797 229.141 208.136 229.176C206.81 229.224 205.475 229.36 204.12 229.457C202.775 229.563 201.41 229.66 200.036 229.718C198.64 229.802 197.241 229.799 195.846 229.708C197.105 229.061 198.437 228.567 199.814 228.237C201.177 227.881 202.57 227.644 203.975 227.531C204.507 227.482 205.03 227.463 205.572 227.463C205.398 226.873 205.291 226.263 205.165 225.663C204.982 224.695 204.846 223.718 204.71 222.74C204.469 220.785 204.285 218.824 204.159 216.856C203.868 212.937 203.762 209.008 203.704 205.088C203.685 201.159 203.714 197.24 203.868 193.31C204.014 189.71 204.207 186.11 204.594 182.51C203.119 182.27 201.757 181.568 200.704 180.507C199.602 179.39 198.707 178.086 198.062 176.655C196.796 173.922 196.045 170.979 195.846 167.974C177.003 179.762 161.374 250.99 160.474 262.98C160.146 266.305 160.828 269.65 162.432 272.58C164.036 275.511 166.487 277.888 169.464 279.403C169.455 274.671 169.658 269.958 169.948 265.245C170.219 260.542 170.626 255.838 171.09 251.144C171.593 246.451 172.145 241.757 172.88 237.092C173.239 234.76 173.664 232.428 174.138 230.105C174.39 228.953 174.651 227.792 174.961 226.65C175.126 226.069 175.29 225.498 175.484 224.937C175.59 224.656 175.697 224.385 175.822 224.105C175.958 223.853 176.084 223.534 176.364 223.408C176.152 223.61 176.01 223.874 175.958 224.163C175.88 224.444 175.822 224.724 175.764 225.015C175.648 225.595 175.571 226.176 175.484 226.757C175.329 227.918 175.193 229.089 175.077 230.26C174.826 232.592 174.613 234.934 174.38 237.276L173.016 251.338C172.513 256.022 172.029 260.706 171.439 265.39C170.868 270.064 170.248 274.739 169.464 279.403C171.864 290.736 164.074 352.015 164.074 352.015C232.118 411.069 251.599 378.387 251.599 378.387C242.908 369.096 224.627 272.271 224.627 272.271ZM221.608 182.394C222.19 181.271 222.944 180.245 223.843 179.355C224.756 178.418 225.867 177.697 227.095 177.245C228.327 176.781 229.686 176.781 230.918 177.245C229.795 177.528 228.726 177.992 227.753 178.62C226.831 179.233 225.975 179.94 225.198 180.729C223.582 182.307 222.169 184.136 220.427 185.936C220.609 184.695 221.008 183.496 221.608 182.394ZM205.804 227.463H205.572C205.683 227.825 205.828 228.175 206.007 228.508C205.896 228.17 205.828 227.819 205.804 227.463ZM195.855 167.984C196.767 170.746 197.95 173.41 199.388 175.939C200.075 177.136 200.94 178.223 201.952 179.162C202.854 180.04 204.044 180.562 205.301 180.633C206.555 180.679 207.784 180.266 208.756 179.471C209.781 178.604 210.601 177.52 211.156 176.297C212.333 173.648 213.132 170.846 213.527 167.974C205.601 175.629 196.242 168.294 195.855 167.984ZM205.804 227.463H205.572C205.683 227.825 205.828 228.175 206.007 228.508C205.896 228.17 205.828 227.819 205.804 227.463ZM205.804 227.463H205.572C205.683 227.825 205.828 228.175 206.007 228.508C205.896 228.17 205.828 227.819 205.804 227.463ZM205.804 227.463H205.572C205.683 227.825 205.828 228.175 206.007 228.508C205.896 228.17 205.828 227.819 205.804 227.463Z" fill="black"/>
<path d="M206.007 228.508C205.828 228.175 205.683 227.825 205.572 227.463H205.804C205.828 227.818 205.896 228.17 206.007 228.508Z" fill="white"/>
<path d="M206.007 228.508C205.828 228.175 205.683 227.825 205.572 227.463H205.804C205.828 227.818 205.896 228.17 206.007 228.508Z" fill="white"/>
<path d="M225.672 169.758C230.887 169.591 236.098 169.51 241.307 169.389L256.932 169.169L257.909 169.155L258.152 169.152C258.331 169.155 258.505 169.21 258.653 169.31C258.877 169.495 258.803 169.47 258.862 169.536C258.913 169.614 258.955 169.697 258.986 169.785C259.055 169.974 259.108 170.169 259.147 170.367C259.292 171.057 259.367 171.706 259.446 172.364C259.599 173.673 259.718 174.975 259.833 176.278L260.45 184.085C260.822 189.289 261.235 194.488 261.551 199.692L263.476 230.915C263.805 236.118 264.161 241.32 264.611 246.514C265.04 251.71 265.491 256.905 266.06 262.087C267.126 272.46 268.468 282.802 269.993 293.112C271.528 303.419 273.196 313.704 275.195 323.918C277.133 334.126 279.638 344.218 282.7 354.147C284.227 359.078 286.158 363.875 288.473 368.488C289.627 370.759 290.986 372.919 292.532 374.942C294.009 376.935 295.919 378.567 298.118 379.714L298.176 379.742C298.316 379.808 298.434 379.912 298.518 380.042C298.601 380.172 298.646 380.323 298.648 380.478C298.65 380.632 298.608 380.784 298.528 380.916C298.448 381.048 298.332 381.155 298.194 381.225C296.351 382.122 294.403 382.785 292.395 383.199C291.421 383.453 290.426 383.576 289.443 383.77C288.452 383.894 287.461 384.027 286.468 384.126C282.504 384.446 278.517 384.38 274.565 383.929C270.631 383.518 266.73 382.839 262.888 381.897C260.979 381.395 259.08 380.859 257.184 380.33L251.571 378.483C251.559 378.479 251.548 378.473 251.538 378.464C251.529 378.456 251.521 378.446 251.515 378.435C251.509 378.423 251.506 378.411 251.505 378.398C251.504 378.386 251.506 378.373 251.51 378.361C251.519 378.337 251.536 378.317 251.559 378.306C251.581 378.295 251.608 378.292 251.632 378.299L257.307 379.889C259.219 380.332 261.13 380.78 263.045 381.193C266.882 381.958 270.762 382.495 274.663 382.8C278.545 383.115 282.448 383.066 286.321 382.654C287.282 382.539 288.239 382.392 289.196 382.254C290.138 382.048 291.099 381.914 292.024 381.652C293.865 381.235 295.649 380.598 297.337 379.754L297.413 381.264C294.941 380.048 292.779 378.283 291.092 376.104C289.417 374.022 287.961 371.773 286.746 369.393C284.361 364.69 282.367 359.799 280.786 354.769C277.654 344.773 275.183 334.582 273.388 324.263C269.545 303.704 267.472 282.909 265.427 262.151L262.429 230.998L261.02 215.411C260.567 210.213 260.225 205.008 259.841 199.807C259.458 194.605 259.197 189.396 258.857 184.195L258.33 176.4C258.231 175.104 258.127 173.808 257.993 172.526C257.926 171.889 257.85 171.241 257.747 170.651C257.726 170.528 257.699 170.407 257.664 170.288C257.652 170.245 257.663 170.291 257.685 170.315C257.728 170.362 257.773 170.406 257.821 170.448C257.925 170.58 258.318 170.563 258.212 170.559L257.967 170.555L256.988 170.541L241.325 170.321C236.105 170.2 230.887 170.12 225.672 169.952C225.646 169.951 225.622 169.941 225.605 169.923C225.587 169.905 225.578 169.88 225.578 169.855C225.578 169.83 225.588 169.806 225.605 169.788C225.623 169.77 225.647 169.759 225.672 169.758H225.672Z" fill="black"/>
<path d="M248.604 181.551C250.293 184.821 251.703 188.082 253.434 191.129C254.254 192.646 255.224 194.077 256.329 195.401C257.418 196.76 258.911 197.737 260.592 198.191C259.649 198.378 258.673 198.297 257.774 197.959C256.865 197.616 256.022 197.119 255.282 196.489C253.847 195.245 252.65 193.751 251.749 192.079C250.849 190.46 250.128 188.746 249.599 186.971C249.041 185.213 248.707 183.392 248.604 181.551Z" fill="black"/>
<path d="M230.918 173.215C235.738 173.379 240.441 173.97 245.145 174.455C247.492 174.721 249.838 174.956 252.175 175.121C253.337 175.206 254.503 175.233 255.668 175.2C256.244 175.192 256.818 175.129 257.381 175.011C257.958 174.931 258.492 174.663 258.901 174.25C258.626 174.821 258.151 175.271 257.566 175.515C257.005 175.789 256.415 175.999 255.807 176.14C254.611 176.413 253.394 176.577 252.17 176.632C249.756 176.737 247.338 176.652 244.937 176.378C242.553 176.111 240.184 175.719 237.84 175.205C235.487 174.711 233.173 174.046 230.918 173.215Z" fill="black"/>
<path d="M243.508 169.855C243.7 170.728 243.801 171.619 243.808 172.513C243.821 173.359 243.791 174.206 243.718 175.05C243.644 175.885 243.547 176.706 243.425 177.529C243.301 178.362 243.148 179.159 243.058 180.095C242.433 179.386 242.032 178.509 241.904 177.573C241.744 176.687 241.706 175.783 241.79 174.887C241.866 174.004 242.039 173.133 242.308 172.289C242.574 171.418 242.98 170.596 243.508 169.855Z" fill="black"/>
<path d="M248.117 169.855C248.413 170.72 248.58 171.624 248.612 172.537C248.649 173.424 248.593 174.313 248.446 175.188C248.293 176.026 248.085 176.852 247.823 177.662C247.707 178.015 247.646 178.383 247.641 178.754C247.616 179.164 247.686 179.611 247.667 180.095C247.295 179.792 246.977 179.428 246.728 179.018C246.473 178.563 246.329 178.055 246.306 177.534C246.293 176.639 246.371 175.746 246.538 174.868C246.679 174.021 246.869 173.184 247.106 172.359C247.345 171.488 247.684 170.648 248.117 169.855Z" fill="black"/>
<path d="M258.196 169.855V158.961C258.196 158.961 259.995 180.245 290.871 166.156C290.871 166.156 289.672 221.912 307.958 284.863C307.958 284.863 310.336 298.231 267.629 279.407" fill="black"/>
<path d="M352.692 212.917C344.785 213.443 336.851 213.443 328.943 212.917C329.859 210.388 330.122 207.669 329.708 205.011C329.558 203.681 329.325 202.362 329.011 201.062C328.672 199.785 328.314 198.498 327.879 197.249C327.014 194.75 325.966 192.317 324.743 189.971C323.546 187.617 322.144 185.373 320.553 183.265C322.392 188.21 324.395 192.991 326.05 197.878C326.915 200.292 327.638 202.755 328.218 205.253C328.853 207.755 329.098 210.34 328.943 212.917C328.943 212.917 322.517 217.911 311.494 213.324C311.763 212.689 311.986 212.036 312.162 211.369C312.288 210.701 312.452 210.014 312.52 209.327C312.569 208.64 312.617 207.953 312.656 207.266L312.627 205.204C312.487 202.474 312.151 199.757 311.62 197.075C311.083 194.406 310.408 191.767 309.598 189.168C308.813 186.564 307.842 184.018 306.694 181.552C307.101 184.252 307.614 186.904 308.146 189.546L309.723 197.443C310.246 200.075 310.714 202.707 311.127 205.34L311.388 207.324L311.562 209.308C311.64 209.975 311.601 210.624 311.63 211.301C311.645 211.635 311.625 211.969 311.572 212.298L311.494 213.324C300.462 208.727 293.833 214.088 293.833 214.088L291.065 178.726C293.949 167.616 297.762 162.854 297.762 162.854C297.762 162.854 298.062 176.674 332.834 167.964C332.834 167.964 350.36 200.627 352.692 212.917Z" fill="black"/>
<path d="M346.286 212.961C344.517 218.038 343.449 223.332 343.111 228.698C343.055 230.036 342.969 231.373 342.962 232.71C342.998 234.048 342.946 235.386 343.053 236.72C343.164 239.39 343.424 242.051 343.831 244.693C344.073 246.006 344.275 247.327 344.549 248.634L345.492 252.527L347.813 260.254C348.632 262.859 349.206 265.514 349.816 268.16C350.356 270.818 350.877 273.479 351.335 276.148C351.755 278.823 352.231 281.488 352.575 284.171L353.16 288.185L353.703 292.204C354.432 297.56 355.146 302.918 355.785 308.286C357.126 319.017 358.31 329.765 359.054 340.571C359.067 340.765 359.015 340.958 358.906 341.119C358.797 341.28 358.638 341.4 358.453 341.46L358.446 341.462C351.829 343.585 345.103 345.353 338.298 346.759C331.49 348.179 324.593 349.135 317.655 349.62C310.697 350.137 303.703 349.868 296.806 348.817C293.36 348.231 289.984 347.297 286.727 346.028C283.475 344.759 280.456 342.956 277.796 340.695C277.786 340.687 277.778 340.677 277.773 340.665C277.767 340.654 277.764 340.641 277.763 340.629C277.762 340.616 277.764 340.603 277.768 340.591C277.772 340.579 277.778 340.568 277.787 340.558C277.803 340.54 277.826 340.529 277.85 340.526C277.874 340.524 277.899 340.531 277.918 340.545C280.687 342.58 283.76 344.164 287.024 345.238C290.265 346.332 293.607 347.1 297.001 347.532C300.4 347.936 303.82 348.151 307.243 348.175C310.669 348.2 314.096 348.003 317.513 347.718C324.356 347.107 331.158 346.113 337.89 344.741C344.636 343.427 351.312 341.771 357.89 339.778L357.283 340.669C357.016 335.29 356.668 329.899 356.309 324.515C355.97 319.127 355.527 313.746 355.038 308.368C354.05 297.616 352.437 286.93 350.209 276.365C349.643 273.73 349.019 271.109 348.375 268.498C347.644 265.912 347.041 263.288 346.176 260.756C345.415 258.215 344.551 255.592 343.839 252.961L342.938 248.964C342.679 247.624 342.493 246.269 342.268 244.923C341.896 242.218 341.675 239.494 341.605 236.764C341.546 235.401 341.655 234.035 341.672 232.673C341.732 231.311 341.873 229.953 341.985 228.596C342.518 223.172 343.911 217.866 346.111 212.879C346.121 212.856 346.14 212.838 346.163 212.829C346.186 212.82 346.212 212.821 346.235 212.83C346.258 212.84 346.277 212.858 346.287 212.881C346.297 212.903 346.297 212.929 346.289 212.953L346.286 212.961Z" fill="black"/>
<path d="M452.229 179.199C448.97 183.852 445.452 188.317 441.691 192.574C437.953 196.896 433.798 200.838 429.286 204.345C426.97 206.125 424.384 207.525 421.626 208.492C420.161 208.965 418.611 209.114 417.083 208.928C415.564 208.623 414.135 207.974 412.905 207.032C410.617 205.218 408.591 203.098 406.884 200.729C405.195 198.415 403.632 196.012 402.201 193.531C399.353 188.599 396.791 183.509 394.526 178.284C393.374 175.687 392.265 173.072 391.2 170.44L389.632 166.482L388.87 164.494C388.61 163.859 388.387 163.097 388.109 162.581C387.798 162.028 387.324 161.584 386.752 161.31C386.215 161.053 385.438 160.937 384.773 160.68C383.419 160.203 382.102 159.627 380.833 158.957C379.542 158.322 378.315 157.564 377.17 156.694C376.045 155.79 375.039 154.748 374.176 153.591C372.337 151.378 370.906 148.855 369.95 146.14C369.462 144.755 369.269 143.284 369.383 141.821C369.427 141.055 369.637 140.309 369.999 139.633C370.361 138.957 370.867 138.368 371.48 137.908L371.296 138.231C371.302 137.491 371.262 136.754 371.321 136.008C371.346 135.255 371.437 134.505 371.595 133.768C371.715 132.948 372.086 132.185 372.658 131.585C372.846 131.426 373.064 131.308 373.3 131.238C373.536 131.168 373.784 131.148 374.028 131.178C374.48 131.245 374.906 131.433 375.26 131.723L374.496 131.955L374.693 131.351C374.783 131.146 374.886 130.947 375.002 130.756C375.266 130.323 375.681 130.003 376.167 129.858C376.646 129.741 377.15 129.78 377.607 129.968C378.023 130.128 378.41 130.354 378.754 130.638L377.967 130.742C378.276 130.249 378.685 129.825 379.166 129.497C379.648 129.168 380.192 128.943 380.764 128.835C381.634 128.67 382.533 128.769 383.346 129.119C384.159 129.469 384.849 130.055 385.326 130.801C385.488 131.048 385.622 131.312 385.725 131.589C385.846 131.868 385.902 132.074 385.994 132.319C386.334 133.262 386.696 134.197 387.087 135.115C387.818 136.941 388.76 138.675 389.895 140.282C390.336 140.998 391.011 141.54 391.806 141.816C391.942 141.864 392.088 141.883 392.233 141.871C392.377 141.86 392.518 141.818 392.645 141.748C392.773 141.679 392.884 141.583 392.972 141.468C393.06 141.353 393.123 141.22 393.157 141.079C393.15 140.924 393.131 140.769 393.1 140.616C393.06 140.397 393.005 140.164 392.945 139.928L392.548 138.49C392.27 137.52 391.977 136.539 391.724 135.537C391.455 134.518 391.253 133.482 391.119 132.436C391.053 131.875 391.039 131.309 391.078 130.745C391.107 130.056 391.339 129.392 391.746 128.835C392.266 128.293 392.979 127.978 393.73 127.961C394.481 127.944 395.209 128.225 395.753 128.743C396.601 129.49 397.312 130.38 397.852 131.372C398.866 133.198 399.712 135.113 400.379 137.093C401.063 139.038 401.652 141.002 402.17 142.993C402.397 143.919 402.761 144.807 403.25 145.625C403.706 146.673 403.964 147.796 404.009 148.937C404.066 150.01 404.028 151.087 403.894 152.153C403.836 152.669 403.747 153.227 403.663 153.699C403.596 154.103 403.589 154.514 403.642 154.919C403.697 155.341 403.821 155.751 404.01 156.132C404.208 156.567 404.363 157.011 404.594 157.442L405.282 158.737C405.522 159.165 405.791 159.584 406.045 160.008C408.207 163.386 410.585 166.621 413.166 169.691C415.731 172.795 418.379 175.859 421.097 178.824L419.669 178.991C424.156 171.476 428.742 164.005 433.848 156.877C436.367 153.285 439.064 149.822 441.93 146.5C443.375 144.844 444.91 143.27 446.529 141.784C447.344 141.042 448.207 140.355 449.111 139.725C449.566 139.41 450.043 139.127 450.539 138.879C451.038 138.601 451.597 138.446 452.168 138.43C452.193 138.431 452.216 138.441 452.233 138.459C452.251 138.477 452.26 138.501 452.26 138.526C452.26 138.55 452.25 138.574 452.232 138.592C452.215 138.609 452.191 138.619 452.166 138.62L452.132 138.62C451.61 138.673 451.107 138.843 450.66 139.117C450.189 139.379 449.737 139.675 449.308 140.001C448.447 140.66 447.63 141.374 446.861 142.138C445.326 143.678 443.878 145.301 442.523 147.002C439.798 150.393 437.26 153.937 434.844 157.564C430.029 164.828 425.535 172.309 421.223 179.893C421.154 180.013 421.059 180.116 420.943 180.193C420.828 180.27 420.696 180.32 420.558 180.337C420.42 180.354 420.28 180.339 420.149 180.293C420.019 180.247 419.9 180.171 419.804 180.071L419.794 180.061C416.974 177.103 414.252 174.085 411.657 170.935C409.007 167.806 406.562 164.508 404.34 161.062C404.072 160.617 403.791 160.184 403.533 159.729L402.79 158.341C402.54 157.88 402.351 157.365 402.13 156.878C401.878 156.345 401.709 155.775 401.631 155.189C401.55 154.588 401.558 153.979 401.653 153.38C401.744 152.854 401.812 152.41 401.867 151.919C401.982 150.972 402.013 150.017 401.96 149.065C401.926 148.176 401.738 147.299 401.403 146.475L401.268 146.198L401.078 145.835C400.953 145.589 400.837 145.336 400.728 145.075C400.516 144.56 400.349 144.027 400.229 143.482C399.748 141.544 399.19 139.615 398.549 137.729C397.942 135.856 397.166 134.043 396.231 132.312C395.811 131.513 395.26 130.792 394.599 130.178C394.363 129.965 394.069 129.826 393.755 129.781C393.44 129.772 393.252 129.827 393.149 129.977C392.971 130.255 392.872 130.576 392.864 130.905C392.831 131.353 392.838 131.803 392.887 132.249C393.001 133.216 393.179 134.175 393.418 135.118C393.648 136.085 393.914 137.054 394.178 138.036C394.31 138.528 394.442 139.024 394.562 139.537C394.622 139.794 394.679 140.055 394.726 140.336C394.798 140.68 394.811 141.034 394.764 141.383C394.691 141.749 394.538 142.094 394.316 142.395C394.095 142.695 393.81 142.943 393.482 143.122C392.853 143.456 392.121 143.539 391.433 143.352C390.288 142.979 389.312 142.215 388.674 141.194C387.489 139.47 386.522 137.606 385.796 135.643C385.419 134.685 385.076 133.718 384.756 132.744C384.64 132.3 384.47 131.871 384.25 131.468C384.038 131.101 383.748 130.784 383.401 130.54C383.054 130.286 382.659 130.103 382.241 130.003C381.822 129.903 381.387 129.887 380.962 129.957C380.534 130.025 380.124 130.182 379.759 130.418C379.395 130.654 379.084 130.963 378.846 131.326C378.766 131.443 378.644 131.523 378.505 131.55C378.366 131.576 378.223 131.547 378.106 131.467L378.058 131.431C377.811 131.221 377.534 131.051 377.235 130.926C376.982 130.808 376.698 130.772 376.424 130.824C376.167 130.898 375.947 131.067 375.809 131.296C375.725 131.432 375.647 131.572 375.578 131.716L375.406 132.204L375.399 132.223C375.357 132.343 375.269 132.442 375.153 132.497C375.038 132.552 374.906 132.559 374.786 132.517C374.734 132.498 374.685 132.471 374.642 132.436C374.429 132.259 374.175 132.139 373.903 132.086C373.785 132.068 373.665 132.074 373.549 132.105C373.434 132.136 373.326 132.19 373.233 132.264C372.798 132.737 372.511 133.327 372.409 133.961C372.245 134.65 372.143 135.352 372.103 136.059C372.028 136.771 372.051 137.498 372.026 138.219C372.024 138.282 372.007 138.343 371.976 138.399C371.946 138.454 371.902 138.501 371.85 138.537L371.842 138.542C371.325 138.943 370.9 139.449 370.594 140.027C370.288 140.605 370.109 141.242 370.068 141.894C369.952 143.265 370.123 144.644 370.571 145.944C371.475 148.597 372.853 151.064 374.637 153.226C375.483 154.334 376.466 155.33 377.564 156.19C378.686 157.021 379.886 157.742 381.147 158.342C382.392 158.981 383.682 159.528 385.008 159.977C385.338 160.084 385.67 160.185 386.004 160.271C386.374 160.348 386.734 160.464 387.079 160.616C387.798 160.949 388.403 161.487 388.816 162.164C389.001 162.491 389.16 162.834 389.289 163.187L389.692 164.168L390.511 166.125L392.192 170.021C393.335 172.608 394.515 175.177 395.733 177.727C396.954 180.275 398.223 182.798 399.54 185.294C400.847 187.792 402.194 190.269 403.636 192.683C405.061 195.097 406.61 197.435 408.277 199.689C409.86 201.943 411.746 203.97 413.881 205.712C414.895 206.513 416.077 207.075 417.339 207.357C418.63 207.519 419.94 207.402 421.182 207.014C423.789 206.123 426.239 204.827 428.442 203.172C432.98 199.841 437.178 196.073 440.978 191.92C444.87 187.826 448.558 183.525 452.072 179.085C452.087 179.065 452.11 179.051 452.136 179.048C452.161 179.044 452.187 179.051 452.208 179.067C452.227 179.082 452.24 179.104 452.244 179.129C452.248 179.153 452.242 179.178 452.229 179.199Z" fill="black"/>
<path d="M521.986 275.236C520.911 287.434 520.565 299.686 520.95 311.926C521.259 324.164 522.085 336.386 523.362 348.556C524.655 360.722 526.402 372.846 528.877 384.809C530.091 390.786 531.613 396.695 533.436 402.515C534.351 405.403 535.431 408.236 536.671 411C537.813 413.73 539.406 416.25 541.383 418.452L541.402 418.472C541.572 418.645 541.665 418.879 541.662 419.122C541.659 419.364 541.56 419.595 541.386 419.765L541.324 419.82C537.703 422.731 533.836 425.321 529.766 427.56C525.707 429.838 521.421 431.687 516.979 433.078C512.492 434.508 507.797 435.182 503.088 435.072C500.713 434.989 498.354 434.636 496.058 434.018C495.482 433.868 494.913 433.688 494.349 433.499C493.772 433.294 493.237 433.116 492.723 432.95C491.688 432.575 490.608 432.328 489.537 432.055C487.356 431.606 485.146 431.315 482.923 431.184C480.683 431.082 478.438 431.098 476.199 431.23C471.693 431.539 467.218 432.189 462.81 433.173C453.963 435.152 445.323 437.964 437.006 441.571L436.982 441.582C436.806 441.657 436.618 441.697 436.427 441.7C436.235 441.703 436.046 441.668 435.868 441.597C435.69 441.526 435.528 441.421 435.391 441.288C435.254 441.155 435.145 440.996 435.069 440.82C435.008 440.676 434.97 440.524 434.956 440.369C434.451 434.473 434.001 428.584 433.606 422.703C433.232 416.812 432.898 410.92 432.606 405.026C431.996 393.238 431.698 381.436 431.463 369.636C431.207 357.836 431.299 346.029 431.537 334.23L431.781 325.381C431.85 322.432 432.049 319.485 432.176 316.538C432.417 310.643 432.879 304.758 433.299 298.876C433.3 298.857 433.305 298.838 433.314 298.821C433.322 298.804 433.334 298.789 433.348 298.777C433.363 298.764 433.379 298.755 433.398 298.749C433.416 298.743 433.435 298.74 433.454 298.742C433.491 298.745 433.526 298.762 433.551 298.79C433.576 298.819 433.59 298.855 433.588 298.893C433.249 310.681 433.11 322.464 433.172 334.243C433.169 337.188 433.243 340.134 433.275 343.078C433.312 346.023 433.355 348.967 433.445 351.911L433.646 360.743L433.917 369.574C434.302 381.347 434.921 393.11 435.541 404.872C435.867 410.752 436.227 416.63 436.62 422.505C436.992 428.38 437.392 434.262 437.859 440.116L435.81 438.914C440.072 437.095 444.423 435.491 448.846 434.109C453.255 432.707 457.734 431.532 462.264 430.59C466.81 429.628 471.423 429.011 476.062 428.745C478.396 428.632 480.735 428.642 483.069 428.775C485.418 428.939 487.752 429.273 490.053 429.775C491.198 430.079 492.349 430.355 493.467 430.768C494.041 430.961 494.59 431.15 495.091 431.333C495.609 431.511 496.132 431.682 496.662 431.825C498.789 432.416 500.976 432.763 503.181 432.859C507.648 432.998 512.107 432.394 516.377 431.07C520.694 429.758 524.863 428 528.818 425.826C532.796 423.681 536.58 421.196 540.129 418.398L540.07 419.766C537.954 417.392 536.257 414.677 535.052 411.735C533.808 408.898 532.728 405.991 531.818 403.03C530.028 397.14 528.544 391.161 527.37 385.118C525.039 373.063 523.322 360.898 522.226 348.669C521.088 336.455 520.402 324.201 520.234 311.94C519.991 299.677 520.48 287.411 521.697 275.206C521.701 275.168 521.72 275.133 521.75 275.109C521.78 275.085 521.818 275.073 521.856 275.077C521.894 275.081 521.929 275.1 521.954 275.13C521.978 275.16 521.989 275.198 521.986 275.236L521.986 275.236Z" fill="black"/>
<path d="M433.299 300.903C434.116 286.76 435.718 272.674 438.098 258.709C439.309 251.715 440.876 244.787 442.794 237.953C444.699 231.086 447.168 224.388 450.176 217.926L450.127 218.046C450.731 216.236 451.408 214.505 452.162 212.776C452.913 211.04 453.763 209.349 454.71 207.712C455.665 206.019 456.826 204.451 458.168 203.044C458.897 202.297 459.74 201.671 460.666 201.19C461.694 200.653 462.864 200.449 464.013 200.606L463.768 200.594L503.99 197.765L504.018 197.763C504.249 197.748 504.48 197.79 504.691 197.886C504.902 197.982 505.085 198.128 505.226 198.312C509.231 203.792 512.527 209.757 515.035 216.064L515.994 218.4C516.318 219.177 516.558 219.985 516.845 220.776C517.38 222.37 517.99 223.94 518.419 225.567C518.874 227.185 519.382 228.789 519.791 230.417L520.905 235.33C521.283 236.965 521.484 238.636 521.781 240.285L522.193 242.766C522.312 243.595 522.366 244.434 522.456 245.266L522.943 250.266L523.128 255.281C523.352 258.619 523.078 261.964 522.981 265.295L522.931 266.543L522.8 267.788L522.539 270.275L521.986 275.236C521.982 275.273 521.963 275.308 521.934 275.332C521.906 275.356 521.869 275.368 521.832 275.365C521.794 275.362 521.759 275.345 521.734 275.318C521.709 275.29 521.696 275.254 521.697 275.216L521.697 275.206L521.846 270.23L521.936 267.748L521.981 266.508L521.946 265.266L521.804 260.307C521.774 259.482 521.802 258.655 521.726 257.832L521.519 255.364L521.096 250.436L520.378 245.546C520.25 244.733 520.157 243.915 520.002 243.107L519.515 240.688C519.169 239.081 518.918 237.453 518.494 235.865C516.969 229.481 514.909 223.237 512.336 217.198C511.73 215.676 511.022 214.201 510.314 212.726C509.641 211.233 508.831 209.813 508.079 208.363C506.541 205.518 504.823 202.774 502.934 200.149L504.17 200.696L463.905 202.813L463.87 202.815C463.8 202.818 463.729 202.814 463.659 202.801C462.344 202.556 460.876 203.391 459.665 204.571C458.433 205.832 457.361 207.24 456.474 208.763C455.543 210.318 454.703 211.926 453.959 213.578C453.207 215.231 452.509 216.941 451.916 218.635L451.908 218.657C451.896 218.69 451.882 218.723 451.867 218.755C448.805 225.081 446.27 231.649 444.288 238.392C442.264 245.136 440.612 252.001 439.237 258.924C436.578 272.808 434.692 286.83 433.588 300.924C433.585 300.962 433.567 300.998 433.538 301.023C433.509 301.048 433.471 301.06 433.433 301.057C433.395 301.055 433.359 301.037 433.334 301.008C433.309 300.979 433.296 300.941 433.299 300.903H433.299Z" fill="black"/>
<path d="M512.578 314.446C512.617 288.946 512.075 252.054 509.249 207.44C507.478 179.481 507.904 149.238 506.094 136.444C505.465 131.934 496.765 129.844 496.281 131.034C492.293 140.886 491.181 147.912 482.654 216.701C482.094 221.201 481.851 225.735 481.929 230.27C482.48 267.422 483.038 304.569 483.603 341.709C483.603 341.709 498.013 331.731 504.642 338.825C510.178 344.738 526.562 340.025 531.875 338.302C515.539 342.986 512.578 314.446 512.578 314.446ZM486.526 337.441C486.149 337.428 485.792 337.27 485.53 336.999C485.268 336.728 485.121 336.366 485.121 335.989C485.121 335.612 485.268 335.25 485.53 334.979C485.792 334.708 486.149 334.55 486.526 334.537C486.902 334.55 487.259 334.708 487.521 334.979C487.784 335.25 487.93 335.612 487.93 335.989C487.93 336.366 487.784 336.728 487.521 336.999C487.259 337.27 486.902 337.428 486.526 337.441ZM493.726 334.189C493.349 334.176 492.992 334.018 492.73 333.747C492.468 333.476 492.321 333.114 492.321 332.737C492.321 332.36 492.468 331.998 492.73 331.727C492.992 331.457 493.349 331.298 493.726 331.286C494.102 331.298 494.459 331.457 494.722 331.727C494.984 331.998 495.13 332.36 495.13 332.737C495.13 333.114 494.984 333.476 494.722 333.747C494.459 334.018 494.102 334.176 493.726 334.189ZM502.9 334.653C502.524 334.641 502.167 334.483 501.904 334.212C501.642 333.941 501.496 333.579 501.496 333.202C501.496 332.825 501.642 332.463 501.904 332.192C502.167 331.921 502.524 331.763 502.9 331.75C503.277 331.763 503.634 331.921 503.896 332.192C504.158 332.463 504.305 332.825 504.305 333.202C504.305 333.579 504.158 333.941 503.896 334.212C503.634 334.483 503.277 334.641 502.9 334.653ZM509.984 338.834C509.608 338.822 509.25 338.663 508.988 338.392C508.726 338.122 508.58 337.759 508.58 337.383C508.58 337.006 508.726 336.644 508.988 336.373C509.25 336.102 509.608 335.943 509.984 335.931C510.361 335.943 510.718 336.102 510.98 336.373C511.242 336.644 511.389 337.006 511.389 337.383C511.389 337.759 511.242 338.122 510.98 338.392C510.718 338.663 510.361 338.822 509.984 338.834H509.984ZM519.159 339.879C518.782 339.867 518.425 339.709 518.163 339.438C517.901 339.167 517.754 338.805 517.754 338.428C517.754 338.051 517.901 337.689 518.163 337.418C518.425 337.147 518.782 336.989 519.159 336.976C519.535 336.989 519.893 337.147 520.155 337.418C520.417 337.689 520.563 338.051 520.563 338.428C520.563 338.805 520.417 339.167 520.155 339.438C519.893 339.709 519.535 339.867 519.159 339.879Z" fill="black"/>
<path d="M533.433 337.77C532.901 337.982 532.379 338.157 531.875 338.302C532.659 338.04 533.201 337.847 533.433 337.77Z" fill="black"/>
<path d="M459.232 187.284C459.608 187.271 459.964 187.113 460.226 186.842C460.488 186.571 460.634 186.209 460.634 185.833C460.634 185.456 460.488 185.094 460.226 184.823C459.964 184.552 459.608 184.394 459.232 184.381C458.855 184.394 458.499 184.552 458.237 184.823C457.975 185.094 457.829 185.456 457.829 185.833C457.829 186.209 457.975 186.571 458.237 186.842C458.499 187.113 458.855 187.271 459.232 187.284Z" fill="black"/>
<path d="M466.664 188.562C467.04 188.549 467.397 188.39 467.659 188.12C467.92 187.849 468.066 187.487 468.066 187.11C468.066 186.734 467.92 186.372 467.659 186.101C467.397 185.83 467.04 185.672 466.664 185.659C466.288 185.672 465.931 185.83 465.67 186.101C465.408 186.372 465.262 186.734 465.262 187.11C465.262 187.487 465.408 187.849 465.67 188.12C465.931 188.39 466.288 188.549 466.664 188.562Z" fill="black"/>
<path d="M474.909 189.259C475.286 189.246 475.642 189.087 475.904 188.816C476.166 188.545 476.312 188.184 476.312 187.807C476.312 187.431 476.166 187.069 475.904 186.798C475.642 186.527 475.286 186.368 474.909 186.355C474.533 186.368 474.177 186.527 473.915 186.798C473.653 187.069 473.507 187.431 473.507 187.807C473.507 188.184 473.653 188.545 473.915 188.816C474.177 189.087 474.533 189.246 474.909 189.259Z" fill="black"/>
<path d="M483.155 189.723C483.531 189.71 483.888 189.551 484.149 189.281C484.411 189.01 484.557 188.648 484.557 188.271C484.557 187.895 484.411 187.533 484.149 187.262C483.888 186.991 483.531 186.833 483.155 186.82C482.779 186.833 482.422 186.991 482.16 187.262C481.899 187.533 481.753 187.895 481.753 188.271C481.753 188.648 481.899 189.01 482.16 189.281C482.422 189.551 482.779 189.71 483.155 189.723Z" fill="black"/>
<path d="M468.638 137.463C469.015 137.45 469.371 137.292 469.633 137.021C469.894 136.75 470.041 136.388 470.041 136.012C470.041 135.635 469.894 135.273 469.633 135.003C469.371 134.732 469.015 134.573 468.638 134.56C468.262 134.573 467.905 134.732 467.644 135.003C467.382 135.273 467.236 135.635 467.236 136.012C467.236 136.388 467.382 136.75 467.644 137.021C467.905 137.292 468.262 137.45 468.638 137.463Z" fill="black"/>
<path d="M474.213 142.806C474.589 142.793 474.946 142.634 475.207 142.363C475.469 142.092 475.615 141.731 475.615 141.354C475.615 140.977 475.469 140.616 475.207 140.345C474.946 140.074 474.589 139.915 474.213 139.902C473.836 139.915 473.48 140.074 473.218 140.345C472.957 140.616 472.81 140.977 472.81 141.354C472.81 141.731 472.957 142.092 473.218 142.363C473.48 142.634 473.836 142.793 474.213 142.806Z" fill="black"/>
<path d="M480.832 148.729C481.209 148.716 481.565 148.557 481.827 148.286C482.088 148.015 482.235 147.653 482.235 147.277C482.235 146.9 482.088 146.538 481.827 146.268C481.565 145.997 481.209 145.838 480.832 145.825C480.456 145.838 480.099 145.997 479.838 146.268C479.576 146.538 479.43 146.9 479.43 147.277C479.43 147.653 479.576 148.015 479.838 148.286C480.099 148.557 480.456 148.716 480.832 148.729Z" fill="black"/>
<path d="M487.568 153.257C487.944 153.244 488.301 153.086 488.562 152.815C488.824 152.544 488.97 152.182 488.97 151.806C488.97 151.429 488.824 151.067 488.562 150.796C488.301 150.526 487.944 150.367 487.568 150.354C487.192 150.367 486.835 150.526 486.573 150.796C486.312 151.067 486.166 151.429 486.166 151.806C486.166 152.182 486.312 152.544 486.573 152.815C486.835 153.086 487.192 153.244 487.568 153.257Z" fill="black"/>
<path d="M441.231 433.718C441.607 433.705 441.964 433.546 442.225 433.275C442.487 433.004 442.633 432.643 442.633 432.266C442.633 431.89 442.487 431.528 442.225 431.257C441.964 430.986 441.607 430.827 441.231 430.814C440.855 430.827 440.498 430.986 440.237 431.257C439.975 431.528 439.829 431.89 439.829 432.266C439.829 432.643 439.975 433.004 440.237 433.275C440.498 433.546 440.855 433.705 441.231 433.718Z" fill="black"/>
<path d="M450.405 430.582C450.782 430.569 451.138 430.41 451.4 430.14C451.662 429.869 451.808 429.507 451.808 429.13C451.808 428.754 451.662 428.392 451.4 428.121C451.138 427.85 450.782 427.692 450.405 427.679C450.029 427.692 449.673 427.85 449.411 428.121C449.149 428.392 449.003 428.754 449.003 429.13C449.003 429.507 449.149 429.869 449.411 430.14C449.673 430.41 450.029 430.569 450.405 430.582Z" fill="black"/>
<path d="M461.438 428.144C461.814 428.131 462.171 427.972 462.433 427.701C462.694 427.43 462.84 427.068 462.84 426.692C462.84 426.315 462.694 425.953 462.433 425.683C462.171 425.412 461.814 425.253 461.438 425.24C461.062 425.253 460.705 425.412 460.444 425.683C460.182 425.953 460.036 426.315 460.036 426.692C460.036 427.068 460.182 427.43 460.444 427.701C460.705 427.972 461.062 428.131 461.438 428.144Z" fill="black"/>
<path d="M472.819 426.75C473.195 426.737 473.552 426.578 473.814 426.308C474.075 426.037 474.221 425.675 474.221 425.298C474.221 424.922 474.075 424.56 473.814 424.289C473.552 424.018 473.195 423.86 472.819 423.847C472.443 423.86 472.086 424.018 471.825 424.289C471.563 424.56 471.417 424.922 471.417 425.298C471.417 425.675 471.563 426.037 471.825 426.308C472.086 426.578 472.443 426.737 472.819 426.75Z" fill="black"/>
<path d="M485.594 426.634C485.97 426.621 486.327 426.462 486.588 426.191C486.85 425.92 486.996 425.559 486.996 425.182C486.996 424.806 486.85 424.444 486.588 424.173C486.327 423.902 485.97 423.743 485.594 423.73C485.217 423.743 484.861 423.902 484.599 424.173C484.337 424.444 484.191 424.806 484.191 425.182C484.191 425.559 484.337 425.92 484.599 426.191C484.861 426.462 485.217 426.621 485.594 426.634Z" fill="black"/>
<path d="M496.975 429.537C497.351 429.524 497.708 429.365 497.969 429.095C498.231 428.824 498.377 428.462 498.377 428.085C498.377 427.709 498.231 427.347 497.969 427.076C497.708 426.805 497.351 426.647 496.975 426.634C496.598 426.647 496.242 426.805 495.98 427.076C495.719 427.347 495.572 427.709 495.572 428.085C495.572 428.462 495.719 428.824 495.98 429.095C496.242 429.365 496.598 429.524 496.975 429.537Z" fill="black"/>
<path d="M508.472 430.931C508.848 430.918 509.205 430.759 509.466 430.488C509.728 430.217 509.874 429.856 509.874 429.479C509.874 429.102 509.728 428.741 509.466 428.47C509.205 428.199 508.848 428.04 508.472 428.027C508.095 428.04 507.739 428.199 507.477 428.47C507.216 428.741 507.07 429.102 507.07 429.479C507.07 429.856 507.216 430.217 507.477 430.488C507.739 430.759 508.095 430.918 508.472 430.931Z" fill="black"/>
<path d="M519.388 427.679C519.765 427.666 520.121 427.507 520.383 427.236C520.644 426.965 520.791 426.604 520.791 426.227C520.791 425.85 520.644 425.489 520.383 425.218C520.121 424.947 519.765 424.788 519.388 424.775C519.012 424.788 518.655 424.947 518.394 425.218C518.132 425.489 517.986 425.85 517.986 426.227C517.986 426.604 518.132 426.965 518.394 427.236C518.655 427.507 519.012 427.666 519.388 427.679Z" fill="black"/>
<path d="M528.214 423.149C528.591 423.136 528.947 422.978 529.209 422.707C529.47 422.436 529.617 422.074 529.617 421.698C529.617 421.321 529.47 420.959 529.209 420.689C528.947 420.418 528.591 420.259 528.214 420.246C527.838 420.259 527.481 420.418 527.22 420.689C526.958 420.959 526.812 421.321 526.812 421.698C526.812 422.074 526.958 422.436 527.22 422.707C527.481 422.978 527.838 423.136 528.214 423.149Z" fill="black"/>
<path d="M535.995 417.575C536.372 417.562 536.728 417.404 536.99 417.133C537.251 416.862 537.397 416.5 537.397 416.124C537.397 415.747 537.251 415.385 536.99 415.114C536.728 414.844 536.372 414.685 535.995 414.672C535.619 414.685 535.262 414.844 535.001 415.114C534.739 415.385 534.593 415.747 534.593 416.124C534.593 416.5 534.739 416.862 535.001 417.133C535.262 417.404 535.619 417.562 535.995 417.575Z" fill="black"/>
<path d="M281.142 338.257C281.519 338.244 281.875 338.085 282.137 337.814C282.398 337.544 282.544 337.182 282.544 336.805C282.544 336.429 282.398 336.067 282.137 335.796C281.875 335.525 281.519 335.367 281.142 335.354C280.766 335.367 280.409 335.525 280.148 335.796C279.886 336.067 279.74 336.429 279.74 336.805C279.74 337.182 279.886 337.544 280.148 337.814C280.409 338.085 280.766 338.244 281.142 338.257Z" fill="black"/>
<path d="M291.246 342.612C291.622 342.599 291.979 342.44 292.24 342.169C292.502 341.898 292.648 341.537 292.648 341.16C292.648 340.784 292.502 340.422 292.24 340.151C291.979 339.88 291.622 339.722 291.246 339.708C290.869 339.722 290.513 339.88 290.251 340.151C289.99 340.422 289.844 340.784 289.844 341.16C289.844 341.537 289.99 341.898 290.251 342.169C290.513 342.44 290.869 342.599 291.246 342.612Z" fill="black"/>
<path d="M304.137 344.528C304.513 344.515 304.869 344.356 305.131 344.085C305.393 343.815 305.539 343.453 305.539 343.076C305.539 342.7 305.393 342.338 305.131 342.067C304.869 341.796 304.513 341.638 304.137 341.625C303.76 341.638 303.404 341.796 303.142 342.067C302.88 342.338 302.734 342.7 302.734 343.076C302.734 343.453 302.88 343.815 303.142 344.085C303.404 344.356 303.76 344.515 304.137 344.528Z" fill="black"/>
<path d="M318.072 343.831C318.449 343.818 318.805 343.659 319.067 343.389C319.329 343.118 319.475 342.756 319.475 342.379C319.475 342.003 319.329 341.641 319.067 341.37C318.805 341.099 318.449 340.941 318.072 340.928C317.696 340.941 317.339 341.099 317.078 341.37C316.816 341.641 316.67 342.003 316.67 342.379C316.67 342.756 316.816 343.118 317.078 343.389C317.339 343.659 317.696 343.818 318.072 343.831Z" fill="black"/>
<path d="M332.531 341.392C332.907 341.379 333.264 341.22 333.525 340.95C333.787 340.679 333.933 340.317 333.933 339.94C333.933 339.564 333.787 339.202 333.525 338.931C333.264 338.66 332.907 338.502 332.531 338.489C332.155 338.502 331.798 338.66 331.536 338.931C331.275 339.202 331.129 339.564 331.129 339.94C331.129 340.317 331.275 340.679 331.536 340.95C331.798 341.22 332.155 341.379 332.531 341.392Z" fill="black"/>
<path d="M346.293 338.779C346.669 338.766 347.026 338.608 347.287 338.337C347.549 338.066 347.695 337.704 347.695 337.328C347.695 336.951 347.549 336.589 347.287 336.318C347.026 336.048 346.669 335.889 346.293 335.876C345.916 335.889 345.56 336.048 345.298 336.318C345.036 336.589 344.89 336.951 344.89 337.328C344.89 337.704 345.036 338.066 345.298 338.337C345.56 338.608 345.916 338.766 346.293 338.779Z" fill="black"/>
<path d="M352.912 325.018C353.289 325.005 353.645 324.846 353.907 324.575C354.168 324.304 354.315 323.942 354.315 323.566C354.315 323.189 354.168 322.828 353.907 322.557C353.645 322.286 353.289 322.127 352.912 322.114C352.536 322.127 352.179 322.286 351.918 322.557C351.656 322.828 351.51 323.189 351.51 323.566C351.51 323.942 351.656 324.304 351.918 324.575C352.179 324.846 352.536 325.005 352.912 325.018Z" fill="black"/>
<path d="M351.693 311.082C352.069 311.069 352.426 310.91 352.687 310.639C352.949 310.368 353.095 310.006 353.095 309.63C353.095 309.253 352.949 308.892 352.687 308.621C352.426 308.35 352.069 308.191 351.693 308.178C351.316 308.191 350.96 308.35 350.698 308.621C350.437 308.892 350.291 309.253 350.291 309.63C350.291 310.006 350.437 310.368 350.698 310.639C350.96 310.91 351.316 311.069 351.693 311.082Z" fill="black"/>
<path d="M354.132 335.47C354.508 335.457 354.864 335.298 355.126 335.027C355.388 334.756 355.534 334.395 355.534 334.018C355.534 333.642 355.388 333.28 355.126 333.009C354.864 332.738 354.508 332.579 354.132 332.566C353.755 332.579 353.399 332.738 353.137 333.009C352.875 333.28 352.729 333.642 352.729 334.018C352.729 334.395 352.875 334.756 353.137 335.027C353.399 335.298 353.755 335.457 354.132 335.47Z" fill="black"/>
<path d="M350.648 299.41C351.024 299.397 351.38 299.239 351.642 298.968C351.904 298.697 352.05 298.335 352.05 297.958C352.05 297.582 351.904 297.22 351.642 296.949C351.38 296.678 351.024 296.52 350.648 296.507C350.271 296.52 349.915 296.678 349.653 296.949C349.391 297.22 349.245 297.582 349.245 297.958C349.245 298.335 349.391 298.697 349.653 298.968C349.915 299.239 350.271 299.397 350.648 299.41Z" fill="black"/>
<path d="M349.254 288.61C349.63 288.597 349.987 288.438 350.249 288.167C350.51 287.897 350.656 287.535 350.656 287.158C350.656 286.782 350.51 286.42 350.249 286.149C349.987 285.878 349.63 285.72 349.254 285.707C348.878 285.72 348.521 285.878 348.259 286.149C347.998 286.42 347.852 286.782 347.852 287.158C347.852 287.535 347.998 287.897 348.259 288.167C348.521 288.438 348.878 288.597 349.254 288.61Z" fill="black"/>
<path d="M346.641 276.242C347.017 276.229 347.374 276.07 347.636 275.799C347.897 275.528 348.043 275.167 348.043 274.79C348.043 274.413 347.897 274.052 347.636 273.781C347.374 273.51 347.017 273.351 346.641 273.338C346.265 273.351 345.908 273.51 345.646 273.781C345.385 274.052 345.239 274.413 345.239 274.79C345.239 275.167 345.385 275.528 345.646 275.799C345.908 276.07 346.265 276.229 346.641 276.242Z" fill="black"/>
<path d="M342.809 266.661C343.185 266.648 343.542 266.49 343.803 266.219C344.065 265.948 344.211 265.586 344.211 265.209C344.211 264.833 344.065 264.471 343.803 264.2C343.542 263.929 343.185 263.771 342.809 263.758C342.432 263.771 342.076 263.929 341.814 264.2C341.552 264.471 341.406 264.833 341.406 265.209C341.406 265.586 341.552 265.948 341.814 266.219C342.076 266.49 342.432 266.648 342.809 266.661Z" fill="black"/>
<path d="M339.325 255.512C339.701 255.499 340.058 255.341 340.319 255.07C340.581 254.799 340.727 254.437 340.727 254.061C340.727 253.684 340.581 253.322 340.319 253.051C340.058 252.781 339.701 252.622 339.325 252.609C338.948 252.622 338.592 252.781 338.33 253.051C338.069 253.322 337.922 253.684 337.922 254.061C337.922 254.437 338.069 254.799 338.33 255.07C338.592 255.341 338.948 255.499 339.325 255.512Z" fill="black"/>
<path d="M337.408 243.144C337.785 243.131 338.141 242.972 338.403 242.702C338.665 242.431 338.811 242.069 338.811 241.692C338.811 241.316 338.665 240.954 338.403 240.683C338.141 240.412 337.785 240.254 337.408 240.241C337.032 240.254 336.676 240.412 336.414 240.683C336.152 240.954 336.006 241.316 336.006 241.692C336.006 242.069 336.152 242.431 336.414 242.702C336.676 242.972 337.032 243.131 337.408 243.144Z" fill="black"/>
<path d="M337.408 229.731C337.785 229.718 338.141 229.559 338.403 229.288C338.665 229.018 338.811 228.656 338.811 228.279C338.811 227.903 338.665 227.541 338.403 227.27C338.141 226.999 337.785 226.841 337.408 226.828C337.032 226.841 336.676 226.999 336.414 227.27C336.152 227.541 336.006 227.903 336.006 228.279C336.006 228.656 336.152 229.018 336.414 229.288C336.676 229.559 337.032 229.718 337.408 229.731Z" fill="black"/>
<path d="M452.131 138.62C451.61 138.678 451.109 138.851 450.663 139.127C450.195 139.393 449.746 139.691 449.318 140.019C448.459 140.679 447.644 141.394 446.878 142.159C445.349 143.703 443.901 145.324 442.539 147.017C439.811 150.406 437.268 153.943 434.848 157.569C433.619 159.367 432.492 161.234 431.357 163.098L427.908 168.657L424.45 174.208L421.162 179.857L421.153 179.871C421.044 180.059 420.865 180.195 420.655 180.251C420.445 180.306 420.222 180.276 420.034 180.167C419.963 180.125 419.899 180.073 419.843 180.012L415.72 175.518C414.344 174.01 413.058 172.437 411.763 170.868C409.143 167.732 406.727 164.432 404.53 160.987C403.978 160.108 403.488 159.191 403.066 158.243L402.427 156.802C402.181 156.296 402.02 155.753 401.951 155.195C401.878 154.625 401.889 154.048 401.984 153.482C402.081 152.958 402.16 152.503 402.225 152.006C402.36 151.039 402.412 150.062 402.382 149.085C402.366 148.145 402.183 147.215 401.841 146.339C401.333 145.423 400.951 144.443 400.706 143.425C400.221 141.474 399.719 139.521 399.081 137.615C398.488 135.703 397.711 133.854 396.759 132.093C396.31 131.231 395.719 130.451 395.011 129.786C394.841 129.636 394.653 129.51 394.45 129.411L394.155 129.269L393.849 129.222C393.651 129.182 393.446 129.192 393.253 129.251C393.06 129.31 392.884 129.416 392.742 129.56C392.27 130.361 392.113 131.308 392.302 132.219C392.41 133.211 392.586 134.195 392.83 135.163C393.065 136.14 393.35 137.108 393.625 138.083L394.027 139.557C394.187 140.079 394.269 140.623 394.269 141.17C394.238 141.468 394.141 141.755 393.982 142.009C393.824 142.264 393.61 142.479 393.356 142.638C392.849 142.95 392.241 143.054 391.659 142.93C390.594 142.638 389.674 141.962 389.079 141.031C387.886 139.355 386.898 137.544 386.134 135.634C385.732 134.695 385.363 133.744 385.018 132.785L384.762 132.068C384.683 131.857 384.585 131.654 384.47 131.461C384.246 131.074 383.943 130.739 383.58 130.478C382.854 129.95 381.948 129.73 381.06 129.865C380.628 129.934 380.215 130.09 379.847 130.325C379.478 130.56 379.162 130.868 378.918 131.23L378.857 131.303L378.83 131.354C378.794 131.409 378.748 131.456 378.694 131.493C378.64 131.53 378.579 131.556 378.515 131.57C378.45 131.584 378.384 131.584 378.32 131.572C378.255 131.56 378.194 131.536 378.139 131.5L378.099 131.471L378.053 131.434C377.801 131.234 377.521 131.074 377.221 130.958C376.974 130.852 376.7 130.827 376.438 130.887C376.203 130.966 376.006 131.131 375.887 131.349C375.81 131.482 375.74 131.618 375.678 131.758L375.525 132.237C375.495 132.33 375.443 132.414 375.374 132.484C375.305 132.553 375.221 132.604 375.128 132.634C375.034 132.664 374.936 132.671 374.839 132.655C374.743 132.639 374.652 132.6 374.573 132.542L374.558 132.53C374.36 132.378 374.127 132.278 373.88 132.238C373.785 132.228 373.689 132.237 373.597 132.266C373.506 132.294 373.421 132.341 373.348 132.403C372.964 132.863 372.719 133.423 372.64 134.017C372.498 134.696 372.417 135.386 372.398 136.079C372.342 136.779 372.384 137.502 372.378 138.213C372.377 138.332 372.347 138.45 372.291 138.556C372.235 138.662 372.155 138.753 372.056 138.822L372.014 138.85C371.563 139.196 371.202 139.644 370.96 140.159C370.693 140.719 370.528 141.322 370.473 141.94C370.387 143.251 370.575 144.565 371.024 145.8C371.946 148.38 373.323 150.773 375.089 152.867C375.906 153.94 376.857 154.903 377.918 155.735C379.012 156.543 380.181 157.245 381.409 157.831C382.627 158.458 383.89 158.994 385.188 159.433C385.509 159.537 385.829 159.634 386.152 159.717C386.555 159.803 386.948 159.931 387.324 160.1C388.143 160.483 388.829 161.102 389.293 161.878C389.409 162.072 389.51 162.273 389.596 162.482L389.807 162.983L390.219 163.959L391.043 165.909L392.69 169.81C393.796 172.408 394.85 175.026 396.05 177.58C398.405 182.706 400.922 187.761 403.763 192.608C405.167 195.029 406.699 197.374 408.351 199.633C409.918 201.89 411.793 203.916 413.921 205.653C414.916 206.469 416.088 207.04 417.344 207.32C418.629 207.474 419.931 207.359 421.169 206.982C423.778 206.103 426.231 204.816 428.439 203.171C432.981 199.846 437.185 196.082 440.991 191.934C444.877 187.836 448.597 183.556 452.07 179.085C452.085 179.065 452.108 179.051 452.134 179.047C452.159 179.044 452.185 179.05 452.205 179.065C452.225 179.081 452.239 179.103 452.243 179.128C452.246 179.153 452.241 179.178 452.227 179.199C448.945 183.834 445.422 188.294 441.674 192.561C437.942 196.887 433.792 200.835 429.285 204.347C426.972 206.137 424.389 207.547 421.633 208.524C420.161 209 418.605 209.158 417.068 208.987C415.538 208.691 414.1 208.036 412.872 207.078C410.564 205.276 408.522 203.159 406.805 200.788C405.097 198.482 403.516 196.086 402.068 193.609C399.157 188.688 396.597 183.594 394.2 178.434C392.972 175.865 391.903 173.227 390.832 170.594L389.214 166.647L388.405 164.674L388.001 163.687L387.804 163.208C387.757 163.088 387.7 162.972 387.635 162.861C387.372 162.409 386.979 162.047 386.508 161.822C386.13 161.623 385.271 161.476 384.593 161.22C383.21 160.736 381.866 160.15 380.571 159.467C379.925 159.132 379.298 158.787 378.666 158.416C378.021 158.035 377.402 157.612 376.814 157.148C375.652 156.218 374.611 155.145 373.718 153.954C371.861 151.672 370.432 149.073 369.501 146.283C369.01 144.835 368.826 143.3 368.962 141.777C369.023 140.952 369.264 140.15 369.669 139.428C370.073 138.707 370.631 138.082 371.303 137.6L370.94 138.237C370.965 137.487 370.944 136.746 371.023 135.989C371.068 135.221 371.18 134.46 371.36 133.712C371.509 132.853 371.921 132.062 372.538 131.446C372.747 131.275 372.989 131.15 373.248 131.078C373.508 131.006 373.78 130.988 374.047 131.025C374.525 131.105 374.972 131.314 375.34 131.629L374.374 131.922L374.589 131.309C374.686 131.1 374.797 130.898 374.921 130.704C375.204 130.26 375.641 129.936 376.149 129.795C376.64 129.684 377.155 129.734 377.617 129.936C378.032 130.106 378.416 130.342 378.755 130.634L377.978 130.715L378.106 130.553L378.046 130.625C378.38 130.154 378.808 129.757 379.303 129.458C379.797 129.159 380.348 128.965 380.921 128.888C382.062 128.74 383.215 129.049 384.129 129.747C384.581 130.091 384.956 130.526 385.23 131.023C385.368 131.269 385.483 131.526 385.575 131.791L385.812 132.51C386.129 133.464 386.47 134.41 386.842 135.342C387.54 137.212 388.476 138.985 389.625 140.618C390.117 141.419 390.885 142.012 391.785 142.284C391.987 142.341 392.198 142.355 392.406 142.324C392.613 142.293 392.811 142.218 392.987 142.104C393.163 141.99 393.312 141.84 393.426 141.664C393.539 141.488 393.613 141.289 393.644 141.082C393.631 140.615 393.558 140.153 393.427 139.705L393.043 138.245C392.774 137.271 392.507 136.291 392.261 135.302C391.999 134.309 391.805 133.299 391.683 132.279C391.62 131.755 391.61 131.226 391.654 130.7C391.682 130.121 391.893 129.566 392.256 129.115C392.706 128.726 393.288 128.523 393.882 128.548C394.476 128.573 395.038 128.825 395.453 129.251C396.236 129.961 396.892 130.798 397.392 131.728C398.378 133.525 399.212 135.402 399.884 137.338C400.59 139.253 401.157 141.209 401.708 143.171C401.965 144.117 402.353 145.023 402.86 145.862C403.294 146.86 403.544 147.929 403.595 149.017C403.659 150.064 403.634 151.115 403.52 152.158C403.47 152.666 403.391 153.211 403.316 153.685C403.256 154.121 403.261 154.563 403.329 154.997C403.398 155.444 403.545 155.875 403.762 156.272L404.394 157.589C404.821 158.479 405.312 159.337 405.862 160.157C408.068 163.51 410.476 166.727 413.073 169.788C415.641 172.895 418.352 175.865 421.045 178.872L419.727 179.028L423.098 173.386L426.634 167.851L430.179 162.323C431.368 160.487 432.552 158.646 433.84 156.87C436.353 153.274 439.046 149.808 441.91 146.486C443.363 144.835 444.899 143.26 446.513 141.767C447.324 141.021 448.188 140.332 449.096 139.707C449.555 139.396 450.035 139.116 450.532 138.87C451.034 138.596 451.594 138.444 452.166 138.43C452.191 138.431 452.214 138.441 452.231 138.459C452.248 138.477 452.257 138.501 452.257 138.525C452.257 138.55 452.247 138.573 452.23 138.591C452.213 138.608 452.189 138.619 452.165 138.619L452.131 138.62Z" fill="black"/>
<path d="M340.718 218.06C341.095 218.047 341.451 217.888 341.713 217.617C341.974 217.346 342.121 216.984 342.121 216.608C342.121 216.231 341.974 215.87 341.713 215.599C341.451 215.328 341.095 215.169 340.718 215.156C340.342 215.169 339.985 215.328 339.724 215.599C339.462 215.87 339.316 216.231 339.316 216.608C339.316 216.984 339.462 217.346 339.724 217.617C339.985 217.888 340.342 218.047 340.718 218.06Z" fill="black"/>
<path d="M378.403 131.033C378.804 132.169 379.131 133.293 379.541 134.387C379.948 135.48 380.381 136.557 380.882 137.603C381.366 138.656 381.914 139.679 382.498 140.688C383.084 141.699 383.727 142.677 384.361 143.698C382.5 142.155 381.012 140.211 380.006 138.013C378.967 135.832 378.42 133.449 378.403 131.033Z" fill="black"/>
<path d="M374.956 132.083C375.151 133.507 375.217 134.925 375.495 136.277C375.764 137.631 376.183 138.951 376.743 140.213C377.305 141.474 378.003 142.669 378.825 143.779C379.683 144.868 380.578 146.007 381.382 147.183C380.284 146.266 379.236 145.29 378.242 144.26C376.26 142.081 375.035 139.319 374.75 136.386C374.648 134.949 374.717 133.504 374.956 132.083Z" fill="black"/>
<path d="M371.658 138.228C372.045 139.188 372.377 140.17 372.652 141.169C372.947 142.123 373.315 143.053 373.753 143.95C374.203 144.851 374.704 145.726 375.253 146.57C375.798 147.455 376.287 148.373 376.717 149.319C375.975 148.591 375.28 147.817 374.634 147.003C373.945 146.201 373.357 145.318 372.883 144.373C372.419 143.413 372.095 142.392 371.919 141.34C371.763 140.31 371.676 139.27 371.658 138.228Z" fill="black"/>
</svg>
