<svg width="153" height="158" viewBox="0 0 153 158" fill="none" xmlns="http://www.w3.org/2000/svg">
<path fill-rule="evenodd" clip-rule="evenodd" d="M94.4043 124.832C94.818 117.312 96.3078 109.896 98.8252 102.826C100.707 97.3691 102.641 77.7245 103.562 75.145C103.562 75.145 105.276 82.6111 117.274 77.9592C115.58 84.8823 114.261 91.8975 113.322 98.9721C112.17 108.033 112.211 114.464 113.425 130.838C102.653 133.711 94.4043 124.832 94.4043 124.832Z" fill="white"/>
<path fill-rule="evenodd" clip-rule="evenodd" d="M121.087 61.7615C122.348 63.8753 123.328 66.155 124 68.5392C124 68.5392 129.678 71.6549 132.268 72.7358C134.858 73.8168 139.524 75.5155 140.006 80.8095C140.488 86.1036 134.451 95.8886 133.951 99.2845C133.46 101.952 132.75 104.571 131.829 107.114C131.829 107.114 132.087 111.542 131.18 112.731C130.273 113.919 127.284 116.759 125.696 116.514C125.696 116.514 125.696 120.876 126.36 123.089C126.36 123.089 116.87 132.415 113.936 135.367C113.936 135.367 112.049 116.969 112.802 104.059C113.452 92.9245 117.165 77.4584 120.392 67.7134C120.577 65.294 120.935 63.4791 121.087 61.7615Z" fill="#81F8F8"/>
<path fill-rule="evenodd" clip-rule="evenodd" d="M105.507 69.2661L105.552 64.52L104.58 64.2586C103.886 65.0755 103.27 65.9593 102.74 66.8978C102.74 66.8978 96.5289 69 94.6669 69.5723C92.8049 70.1445 87.8535 71.3605 85.217 77.1287C82.5806 82.8969 82.5829 85.5674 80.9162 88.2631C79.7517 90.1823 78.7918 92.226 78.0533 94.3586C78.0358 94.5415 75.7102 95.1279 75.0171 96.8589C75.0171 96.8589 80.996 100.084 80.6586 105.616C80.3211 111.147 79.2609 111.676 78.6871 112.499C78.2775 113.086 81.3752 113.216 83.4234 110.757C85.2196 108.394 86.8922 105.934 88.4341 103.388C88.4341 103.388 83.4242 116.948 83.4242 118.748C83.4242 120.548 87.554 131.141 93.8582 130.975C93.8582 130.975 94.4153 125.488 94.6699 121.153C94.9245 116.818 97.0662 107.926 98.8256 102.826C100.585 97.7255 102.616 78.8321 103.347 75.7479C103.914 73.5363 104.636 71.37 105.507 69.2661Z" fill="#81F8F8"/>
<path fill-rule="evenodd" clip-rule="evenodd" d="M107.267 78.9585C107.437 79.782 107.614 80.5851 107.776 81.3135C108.384 84.061 109.059 102.028 118.48 114.276C122.768 119.85 124.408 118.1 125.695 116.508C126.916 114.999 129.538 110.326 129.248 106.674C128.959 103.021 123.776 96.2183 122.768 94.4481C121.759 92.678 115.95 80.8677 115.95 80.8677C115.95 80.8677 116.229 79.7216 116.6 78.1202C116.828 78.0668 117.056 78.0118 117.274 77.9561L120.377 67.9489L121.305 60.1146C121.305 60.1146 124.038 59.0242 125.012 57.9755C125.553 57.4 125.887 56.6507 125.959 55.8521C126.03 55.0534 125.836 54.2534 125.406 53.585C122.869 53.585 120.466 55.0576 118.664 54.37C116.861 53.6823 119.272 47.2814 119.272 47.2814C119.272 47.2814 117.613 47.1126 117.884 45.8629C118.154 44.6132 118.737 44.3549 117.637 43.6484C116.536 42.9419 116.485 42.9835 116.44 42.5102C116.395 42.0368 116.662 40.2667 115.887 40.0877C115.113 39.9087 113.474 40.393 112.804 39.4699C112.804 39.4699 110.708 37.8332 108.838 38.8756C106.967 39.9181 105.562 43.2442 104.338 44.2498C103.115 45.2553 103.561 46.0129 103.458 46.9643C103.419 47.9923 103.056 48.979 102.425 49.7754C101.994 50.2941 101.7 50.92 101.574 51.5915C101.448 52.2629 101.493 52.9567 101.706 53.6046C102.129 55.0882 102.21 56.6538 101.942 58.1757C101.681 59.6609 100.519 63.6934 105.602 64.4439C105.494 66.0489 105.489 67.6597 105.588 69.2654C104.792 71.1729 104.112 73.1295 103.55 75.1238C104.209 76.5792 105.665 78.6728 107.267 78.9585Z" fill="#FFD997"/>
<path fill-rule="evenodd" clip-rule="evenodd" d="M130.087 42.708C130.087 42.708 131.839 42.0384 131.518 41.2165C131.196 40.3946 129.794 40.3083 130.588 39.4895C131.383 38.6708 130.938 37.6903 129.644 37.7437C128.351 37.7971 127.805 38.1589 127.921 37.2421C128.03 36.3896 126.728 36.0551 125.596 37.235C125.631 37.1761 125.655 37.1106 125.666 37.0421C125.677 36.9737 125.675 36.9037 125.659 36.8362C125.644 36.7687 125.616 36.705 125.577 36.6487C125.538 36.5924 125.488 36.5446 125.431 36.5081C124.839 35.9994 124.088 36.7569 124.367 35.2725C124.646 33.7881 124.54 33.5526 123.51 33.2276C122.479 32.9026 121.61 33.6923 121.059 33.3555C120.508 33.0188 122.006 31.079 119.882 31.1858C117.758 31.2926 117.477 29.1362 115.609 30.0978C113.742 31.0594 115.516 31.5304 114.393 31.4417C113.271 31.353 112.525 29.4133 111.455 30.1284C110.385 30.8435 110.984 31.4755 109.707 31.2321C108.43 30.9888 108.055 30.2344 107.336 31.2753C106.617 32.3162 107.205 32.5697 106.212 32.8806C105.219 33.1915 103.456 33.9545 103.817 35.0825C104.178 36.2106 103.654 36.4304 103.219 37.2146C102.784 37.9988 102.623 37.8991 103.219 38.9549C103.816 40.0108 102.079 39.8334 103.219 40.7118C104.359 41.5902 102.656 43.8369 104.635 43.734C105.51 43.6885 106.155 40.9747 108.367 39.1928C110.578 37.4108 112.775 39.444 112.775 39.444C112.909 39.6231 113.078 39.7714 113.271 39.8795C113.464 39.9877 113.677 40.0532 113.896 40.072C114.732 40.207 115.802 39.4982 116.322 40.5783C116.843 41.6585 115.816 42.6193 117.066 43.285C118.317 43.9507 118.485 44.103 118.107 44.9037C117.979 45.1301 117.907 45.3858 117.899 45.6478C117.89 45.9098 117.944 46.17 118.057 46.405C118.169 46.64 118.336 46.8425 118.543 46.9944C118.75 47.1462 118.99 47.2427 119.242 47.2752C119.242 47.2752 116.861 53.6792 118.665 54.3676C120.468 55.0561 122.806 53.563 125.344 53.563C126.4 51.7936 127.106 49.8257 127.422 47.7728C128.942 47.7564 128.718 46.7241 129.592 46.874C130.466 47.024 131.657 47.0499 131.564 46.3418C131.471 45.6337 131.114 45.3825 131.652 44.6328C132.19 43.8832 131.924 42.4976 130.087 42.708Z" fill="#81F8F8"/>
<path d="M107.806 45.757C107.745 45.7004 106.331 44.3863 104.889 44.6281C104.511 44.7044 104.155 44.8714 103.851 45.1157C103.546 45.3601 103.302 45.6749 103.137 46.0348C103.095 46.1108 103.078 46.1992 103.09 46.2859C103.102 46.3726 103.142 46.4527 103.203 46.5133C103.264 46.574 103.344 46.6118 103.428 46.6206C103.512 46.6295 103.597 46.609 103.669 46.5624C104.227 46.2292 104.854 46.0396 105.498 46.0097C106.142 45.9798 106.784 46.1104 107.368 46.3905C107.45 46.4346 107.544 46.4469 107.633 46.4249C107.723 46.4029 107.801 46.3481 107.855 46.2708C107.908 46.1935 107.933 46.0988 107.923 46.0043C107.914 45.9098 107.873 45.822 107.806 45.757Z" fill="black"/>
<path d="M115.4 46.476C114.352 45.7146 112.845 45.7075 110.921 46.4556C110.835 46.4894 110.763 46.5543 110.72 46.6384C110.677 46.7224 110.665 46.8198 110.686 46.9124C110.707 47.0051 110.76 47.0866 110.835 47.142C110.91 47.1973 111.002 47.2226 111.093 47.2131C111.132 47.2076 114.992 46.8316 116.084 49.7565C116.115 49.8419 116.175 49.9131 116.252 49.9581C116.329 50.003 116.418 50.0188 116.505 50.0027C116.593 49.9866 116.671 49.9397 116.729 49.8699C116.786 49.8002 116.818 49.7121 116.819 49.6207C116.822 49.0208 116.697 48.4275 116.452 47.8836C116.207 47.3398 115.847 46.859 115.4 46.476Z" fill="black"/>
<path d="M106.63 50.3743C106.553 50.3743 106.477 50.3498 106.414 50.3042C106.35 50.2587 106.302 50.1942 106.275 50.1193C106.247 50.0445 106.243 49.9629 106.262 49.8854C106.281 49.808 106.323 49.7384 106.381 49.6859C106.638 49.5014 106.846 49.2524 106.985 48.9623C107.124 48.6722 107.189 48.3505 107.175 48.0272C107.157 47.9251 107.179 47.8198 107.236 47.7343C107.293 47.6489 107.38 47.5902 107.479 47.5711C107.577 47.552 107.677 47.5731 107.76 47.6299C107.843 47.6867 107.901 47.7746 107.921 47.8749C107.966 48.3343 107.893 48.7977 107.71 49.2192C107.528 49.6406 107.242 50.0056 106.881 50.2778C106.811 50.3403 106.722 50.3746 106.63 50.3743Z" fill="black"/>
<path d="M108.18 53.782C107.635 53.6022 107.616 53.8056 106.892 53.8181C105.694 53.8016 105.547 53.0582 105.068 53.0378C103.462 52.9593 104.095 50.6601 104.823 51.1397C104.907 51.1956 104.966 51.2836 104.988 51.3846C105.01 51.4856 104.992 51.5914 104.939 51.679C104.903 51.7386 104.745 52.0629 104.863 52.1602C105.117 52.3729 105.3 52.1037 105.841 52.5401C106.363 52.9609 106.431 53.026 106.905 53.0331C107.462 53.0449 107.575 52.7599 108.412 53.0331C109.291 53.3236 109.786 53.8558 110.165 53.0119C110.186 52.9651 110.215 52.923 110.252 52.8881C110.289 52.8531 110.332 52.826 110.379 52.8082C110.425 52.7904 110.475 52.7823 110.525 52.7844C110.575 52.7865 110.624 52.7987 110.669 52.8204C110.715 52.842 110.755 52.8727 110.789 52.9106C110.823 52.9485 110.849 52.9929 110.866 53.0413C110.884 53.0897 110.892 53.1412 110.889 53.1927C110.887 53.2442 110.876 53.2948 110.855 53.3416C110.151 54.9085 108.879 54.0112 108.18 53.782Z" fill="black"/>
<path fill-rule="evenodd" clip-rule="evenodd" d="M103.696 55.02C103.696 55.02 103.31 57.5791 105.439 57.9708C106.747 58.1957 108.09 58.006 109.292 57.4268L110.229 56.8255C107.923 56.9308 105.642 56.3004 103.696 55.02Z" fill="white"/>
<path d="M111.654 56.4487L111.256 55.7021C111.205 55.6146 111.124 55.5508 111.029 55.5242C110.934 55.4975 110.832 55.5102 110.746 55.5594C110.659 55.6086 110.595 55.6906 110.566 55.788C110.537 55.8854 110.546 55.9905 110.591 56.0813L110.735 56.3521C110.562 56.3764 110.34 56.3992 110.08 56.4149C108.573 54.7476 107.612 54.2444 106.195 54.4194C105.93 54.1747 105.614 53.9957 105.271 53.8959C104.929 53.796 104.569 53.778 104.219 53.8432C104.221 53.7712 104.204 53.6999 104.169 53.6375C104.134 53.5751 104.083 53.5241 104.021 53.4902C103.96 53.4563 103.89 53.4408 103.82 53.4457C103.751 53.4505 103.684 53.4754 103.627 53.5175L102.867 54.067C102.813 54.117 102.772 54.1796 102.746 54.2494C102.721 54.3193 102.712 54.3944 102.72 54.4686C102.728 54.5429 102.753 54.614 102.793 54.6763C102.832 54.7386 102.886 54.7902 102.949 54.8268C103.061 54.9544 103.18 55.0757 103.305 55.1903C103.288 55.8089 103.373 57.6324 104.892 58.2518C106.624 58.9583 109.219 58.0532 110.744 57.1591C110.754 57.1536 110.76 57.1442 110.768 57.1379C110.988 57.1116 111.206 57.0707 111.421 57.0154C111.476 56.9998 111.527 56.9714 111.571 56.9325C111.614 56.8935 111.648 56.8449 111.67 56.7904C111.693 56.7359 111.703 56.6768 111.7 56.6176C111.697 56.5584 111.682 56.5007 111.654 56.4487ZM105.719 55.0584C105.759 55.1223 105.816 55.1724 105.884 55.2023C105.951 55.2322 106.026 55.2406 106.099 55.2264C107.152 55.0506 107.837 55.2178 109.031 56.4204C107.182 56.4516 105.377 55.8391 103.906 54.6816C104.505 54.5639 105.364 54.5128 105.719 55.0584ZM105.174 57.5218C104.862 57.3622 104.598 57.1187 104.409 56.8168C104.22 56.5149 104.113 56.1658 104.101 55.8065C105.518 56.7036 107.146 57.1841 108.808 57.196C107.714 57.6081 106.262 57.9637 105.174 57.5225V57.5218Z" fill="black"/>
<path fill-rule="evenodd" clip-rule="evenodd" d="M106.725 49.1678C104.584 50.0493 103.693 48.5539 103.693 48.5539C103.693 48.5539 106.044 46.611 106.725 49.1678Z" fill="white"/>
<path fill-rule="evenodd" clip-rule="evenodd" d="M114.818 51.0942C111.722 51.4992 111.018 50.0486 111.018 50.0486C111.018 50.0486 113.153 47.7203 114.818 51.0942Z" fill="white"/>
<path fill-rule="evenodd" clip-rule="evenodd" d="M49.9689 78.6037C49.9689 78.6037 45.6688 71.2169 44.7941 71.8676C43.9193 72.5184 40.9629 76.2424 40.8839 77.3085C40.8048 78.3745 49.0159 89.7978 49.0159 89.7978C49.2358 89.7849 49.4508 89.7249 49.6471 89.6215C49.8433 89.5181 50.0166 89.3736 50.1559 89.1973C50.5222 88.6313 52.6213 83.4432 52.5286 82.8105C52.4336 82.1276 51.3673 80.6667 49.9689 78.6037Z" fill="white"/>
<path fill-rule="evenodd" clip-rule="evenodd" d="M49.02 89.7978C49.4329 89.6727 49.8195 89.469 50.16 89.1973C50.5993 88.8001 52.5357 82.8584 52.5357 82.8584L51.4657 80.8127C51.4657 80.8127 49.3567 80.7107 49.3734 79.5096C49.3901 78.3086 51.851 77.854 52.5768 77.9655C53.3026 78.077 54.5353 80.7083 55.3272 82.9746C56.1192 85.2409 55.6259 85.5368 56.3791 87.9578C57.4826 91.5044 71.5449 95.8148 75.015 96.8589C75.015 96.8589 79.689 98.8567 80.5539 103.87C80.9957 106.889 80.3584 109.971 78.7611 112.541C71.6733 109.049 68.8203 108.807 63.7419 104.394C59.0299 100.298 55.0019 96.1438 53.4819 95.2795C51.9619 94.4152 44.9205 91.5798 44.7936 88.8943C44.7936 88.8943 42.3768 85.3131 42.0493 83.5798C41.7217 81.8466 41.8456 80.4728 42.1382 80.056C42.4308 79.6391 43.6012 82.1802 43.6012 82.1802C43.6012 82.1802 44.3726 81.9447 45.4594 83.9755C46.453 86.0354 47.6459 87.9861 49.02 89.7978Z" fill="#FFD997"/>
<path d="M115.064 50.7409C114.883 50.2694 114.595 49.8495 114.225 49.5161C113.855 49.1828 113.413 48.9457 112.936 48.8247C112.558 48.7907 112.177 48.841 111.819 48.9721C111.461 49.1032 111.134 49.312 110.861 49.5846C110.792 49.6586 110.754 49.7578 110.754 49.8607C110.755 49.9636 110.795 50.0621 110.866 50.1348C110.936 50.2076 111.031 50.2489 111.131 50.2498C111.231 50.2507 111.327 50.2111 111.398 50.1396C111.53 50.0159 111.676 49.9087 111.832 49.8201C111.598 50.328 112.042 50.8351 112.615 50.8351C113.143 50.8351 113.607 50.3955 113.409 49.8688C113.829 50.1934 114.165 50.6185 114.39 51.1075C114.437 51.1996 114.517 51.2687 114.614 51.2995C114.71 51.3302 114.814 51.3202 114.904 51.2716C114.993 51.223 115.06 51.1397 115.089 51.0402C115.119 50.9407 115.109 50.8331 115.062 50.7409H115.064Z" fill="black"/>
<path d="M106.982 48.8561C106.927 48.5434 106.795 48.2506 106.598 48.0058C106.402 47.761 106.148 47.5724 105.861 47.4581C104.842 47.1205 103.707 48.0076 103.581 48.112C103.502 48.1765 103.45 48.2709 103.439 48.3744C103.427 48.4779 103.455 48.582 103.518 48.6638C103.58 48.7456 103.672 48.7985 103.772 48.8107C103.872 48.8229 103.973 48.7935 104.052 48.729C104.098 48.6905 104.168 48.6418 104.245 48.59C104.264 48.8032 104.363 49.0002 104.522 49.1385C104.68 49.2768 104.884 49.3454 105.091 49.3295C105.605 49.3295 106.073 48.9095 105.889 48.3804C106.067 48.5731 106.192 48.8113 106.251 49.0704C106.282 49.1664 106.348 49.2463 106.434 49.2936C106.521 49.3408 106.622 49.3518 106.716 49.3242C106.81 49.2966 106.89 49.2325 106.94 49.1453C106.989 49.0581 107.004 48.9545 106.982 48.8561Z" fill="black"/>
<path fill-rule="evenodd" clip-rule="evenodd" d="M26.085 33.2982L39.2816 51.7528L56.8186 41.182L62.0732 28.9069L47.8552 9.95544L30.4208 18.194L26.085 33.2982Z" fill="#FFD997"/>
<path d="M62.4363 28.8292C62.4021 28.6565 63.5703 30.3113 48.1552 9.71447C48.1028 9.64512 48.0293 9.59597 47.9466 9.5749C47.8639 9.55384 47.7768 9.56207 47.6992 9.59829L44.1272 11.2868C44.7603 10.2216 45.312 8.6665 44.3993 7.23858C43.4637 5.77534 42.5502 4.12056 40.8546 3.92431C39.5299 3.78301 38.0046 4.5845 36.1913 6.40884C34.933 7.58551 33.9543 9.04591 33.3311 10.6766C32.708 12.3073 32.4571 14.0645 32.598 15.8116C29.9866 14.1686 21.8979 9.46955 19.6438 12.783C17.1092 16.5102 21.2398 25.7811 24.5078 24.6153C26.0334 24.0543 27.4854 23.2987 28.8299 22.3663L25.7207 33.1875C25.6379 33.4772 24.8977 32.2597 38.9759 51.9867C38.982 51.9954 38.9911 51.9985 38.9979 52.0056C39.0545 52.0755 39.1332 52.1227 39.22 52.1386C39.3069 52.1545 39.3965 52.1383 39.4729 52.0927C58.2814 40.7518 57.0859 41.5227 57.1634 41.3382C62.811 28.1824 62.4797 29.0482 62.4363 28.8292ZM47.7395 10.4414L52.9424 17.3769L46.8731 20.2869L41.9688 13.17L47.7395 10.4414ZM38.2395 14.93L43.0905 22.101L35.9465 25.5244L30.9974 18.351L38.2395 14.93ZM26.5058 33.2205L30.5657 19.0717L35.4092 26.0911L31.6313 40.3931L26.5058 33.2205ZM39.1651 50.9285L34.4471 44.3345L37.9818 29.8293L43.6529 38.0483L39.1651 50.9285ZM46.7689 46.7845L39.9935 50.8665L44.3833 38.2641L51.0128 34.9193L46.7689 46.7845ZM44.2024 37.4862L38.3877 29.0616L45.4648 25.6131L51.1313 33.989L44.2024 37.4862ZM56.5197 40.9072L51.1519 44.143L55.1586 32.8319L61.3024 29.7335L56.5197 40.9072ZM54.9769 32.0501L49.2655 23.7613L55.4649 20.7414L61.4841 28.7656L54.9769 32.0501Z" fill="black"/>
<path d="M46.3301 77.9325C46.3346 77.8242 46.511 75.2219 52.2801 69.756C57.7848 64.5365 62.0279 62.5913 61.8158 57.2478C61.8173 56.2016 61.605 55.1669 61.1927 54.2113C60.7805 53.2558 60.1775 52.4009 59.4234 51.7025C56.0474 48.6669 50.2137 49.2141 50.1559 49.2204C50.0551 49.2308 49.9545 49.1994 49.8761 49.1332C49.7977 49.0669 49.748 48.9712 49.7379 48.8671C49.7278 48.763 49.7582 48.6591 49.8223 48.5781C49.8865 48.4971 49.9791 48.4458 50.0799 48.4354C50.3315 48.4126 56.2922 47.8482 59.9181 51.1044C60.7525 51.8715 61.4204 52.8122 61.8781 53.8647C62.3357 54.9173 62.5727 56.0579 62.5736 57.2117C62.8016 62.9877 58.2894 65.1229 52.7916 70.3298C47.3325 75.503 47.0916 77.9443 47.0878 77.9702C47.0773 78.0696 47.0305 78.1611 46.9569 78.226C46.8833 78.2909 46.7885 78.3244 46.6918 78.3196C46.5951 78.3148 46.5038 78.2721 46.4366 78.2001C46.3694 78.1282 46.3313 78.0325 46.3301 77.9325Z" fill="black"/>
<path d="M47.3051 77.7755C47.4115 77.5534 49.997 72.3151 58.2027 68.3163C66.9473 64.0545 69.966 59.8116 68.9583 53.1815C67.645 44.5112 56.058 44.1673 55.9395 44.165C55.8387 44.163 55.7428 44.1197 55.6729 44.0447C55.603 43.9697 55.5648 43.8691 55.5667 43.765C55.5686 43.6609 55.6105 43.5619 55.6831 43.4897C55.7557 43.4174 55.8531 43.378 55.9539 43.38C56.077 43.38 68.2963 43.7371 69.7099 53.0598C70.764 60.0165 67.5241 64.6417 58.5273 69.0259C50.5807 72.8991 48.0119 78.0723 47.9868 78.1241C47.9421 78.2174 47.8632 78.2886 47.7677 78.322C47.6721 78.3553 47.5676 78.3481 47.4772 78.3019C47.3868 78.2556 47.3179 78.1742 47.2856 78.0755C47.2533 77.9768 47.2603 77.8689 47.3051 77.7755Z" fill="black"/>
<path fill-rule="evenodd" clip-rule="evenodd" d="M37.2864 97.1454C36.5519 98.5597 36.2218 100.161 36.3346 101.761C36.4474 103.362 36.9983 104.897 37.9233 106.186L39.7944 104.726C38.9724 103.775 38.4865 102.564 38.4157 101.291C38.3449 100.017 38.6934 98.757 39.4046 97.7145L37.2864 97.1454Z" fill="white"/>
<path fill-rule="evenodd" clip-rule="evenodd" d="M14.5371 119.576C14.5371 119.576 16.9805 122.507 16.3839 126.178L19.2157 124.616C19.2157 124.616 19.278 120.469 16.8331 118.085L14.5371 119.576Z" fill="white"/>
<path fill-rule="evenodd" clip-rule="evenodd" d="M18.6329 54.8606C15.8009 56.3922 13.6207 58.956 12.5156 62.0543L15.5602 63.5239C15.795 60.4945 17.7178 58.2055 20.7586 56.4078L18.6329 54.8606Z" fill="white"/>
<path fill-rule="evenodd" clip-rule="evenodd" d="M81.3931 13.9629C81.3931 13.9629 78.2065 21.7273 84.2872 23.6451L85.07 22.0751C85.07 22.0751 80.4667 20.9698 83.4239 13.9323L81.3931 13.9629Z" fill="white"/>
<path fill-rule="evenodd" clip-rule="evenodd" d="M58.4318 142.554C60.0194 140.528 60.8226 137.967 60.686 135.365L58.0351 135.286C58.7822 137.558 58.0822 139.839 56.4224 142.122L58.4318 142.554Z" fill="white"/>
<path d="M84.1783 24.0203C83.4359 23.8243 82.7439 23.4633 82.1504 22.9626C81.557 22.4619 81.0764 21.8335 80.7423 21.1213C79.3447 18.0284 80.9756 13.9778 81.0463 13.8098C81.0756 13.7405 81.1237 13.6813 81.1848 13.6395C81.2458 13.5978 81.3173 13.5751 81.3906 13.5743L83.4198 13.5406C83.4834 13.5394 83.5464 13.5548 83.6027 13.5853C83.6591 13.6158 83.7072 13.6605 83.7426 13.7152C83.7779 13.7699 83.7994 13.8329 83.805 13.8984C83.8106 13.9639 83.8002 14.0298 83.7747 14.0901C82.7206 16.6021 82.5306 18.5881 83.2108 19.9995C83.4052 20.4053 83.6788 20.7653 84.0142 21.0568C84.3497 21.3483 84.7398 21.5651 85.1602 21.6936C85.2161 21.7076 85.2682 21.7345 85.3125 21.7723C85.3569 21.8101 85.3924 21.8578 85.4163 21.9118C85.5197 22.1426 85.4725 22.1253 84.6274 23.828C84.5861 23.9092 84.5186 23.9729 84.4365 24.0081C84.3545 24.0432 84.2631 24.0475 84.1783 24.0203ZM81.6551 14.3515C81.3419 15.2338 80.3532 18.4131 81.4271 20.7885C81.6914 21.3514 82.0645 21.8525 82.5234 22.2609C82.9823 22.6693 83.5173 22.9763 84.0954 23.1631L84.5294 22.2894C83.6643 21.9089 82.9571 21.225 82.5329 20.3583C81.7934 18.8409 81.8998 16.814 82.8483 14.3279L81.6551 14.3515Z" fill="black"/>
<path d="M37.9216 106.579C37.8626 106.579 37.8045 106.565 37.7517 106.537C37.6989 106.51 37.653 106.47 37.6176 106.422C36.6568 105.066 36.0854 103.459 35.969 101.783C35.8526 100.107 36.1959 98.4316 36.9595 96.9484C37.0014 96.8751 37.0651 96.8179 37.1412 96.7854C37.2173 96.7528 37.3015 96.7466 37.3813 96.7678C39.6848 97.3864 39.6613 97.3173 39.7586 97.5669C39.7808 97.6239 39.7898 97.6855 39.7847 97.7467C39.7797 97.808 39.7609 97.8671 39.7297 97.9194C39.0679 98.8893 38.7414 100.061 38.8026 101.246C38.8638 102.431 39.3092 103.56 40.0671 104.451C40.1054 104.491 40.1351 104.539 40.154 104.591C40.173 104.644 40.1808 104.7 40.177 104.756C40.1732 104.812 40.1578 104.866 40.1319 104.916C40.106 104.965 40.0702 105.008 40.0268 105.042C38.0075 106.611 38.0987 106.579 37.9216 106.579ZM37.4786 97.6023C36.8701 98.8684 36.5982 100.279 36.6908 101.689C36.7833 103.099 37.2369 104.459 38.0052 105.629L39.2486 104.66C38.5436 103.713 38.127 102.57 38.0517 101.377C37.9763 100.185 38.2455 98.9961 38.8253 97.9618L37.4786 97.6023Z" fill="black"/>
<path d="M16.3865 126.57C16.3313 126.57 16.2767 126.558 16.2266 126.534C16.1765 126.51 16.1321 126.475 16.0964 126.431C16.0607 126.388 16.0347 126.337 16.0201 126.282C16.0055 126.227 16.0027 126.169 16.0118 126.113C16.5727 122.663 14.2752 119.859 14.2524 119.833C14.2168 119.79 14.1904 119.74 14.1752 119.686C14.16 119.631 14.1563 119.574 14.1643 119.519C14.2 119.275 14.1757 119.354 16.6335 117.754C16.7049 117.708 16.7892 117.687 16.8731 117.696C16.9571 117.704 17.0359 117.741 17.0971 117.801C19.6348 120.275 19.6051 124.448 19.599 124.624C19.5981 124.694 19.579 124.762 19.5437 124.822C19.5084 124.882 19.4583 124.931 19.3984 124.964C16.3485 126.644 16.5195 126.57 16.3865 126.57ZM15.0945 119.678C16.2927 121.353 16.9086 123.397 16.8425 125.479L18.8299 124.38C18.7995 123.535 18.5624 120.52 16.7779 118.58L15.0945 119.678Z" fill="black"/>
<path d="M15.56 63.9156C15.4293 63.9156 15.6155 63.9823 12.3551 62.4099C12.2699 62.3689 12.2024 62.2966 12.1658 62.2072C12.1291 62.1177 12.1259 62.0174 12.1567 61.9256C13.2955 58.7404 15.5348 56.1028 18.4435 54.5207C18.5062 54.4834 18.5779 54.4653 18.6502 54.4687C18.7225 54.472 18.7923 54.4966 18.8516 54.5395L20.9796 56.0868C21.0317 56.1248 21.0737 56.1759 21.1017 56.2351C21.1297 56.2944 21.1428 56.36 21.1397 56.4259C21.1367 56.4917 21.1177 56.5557 21.0844 56.612C21.051 56.6683 21.0046 56.7149 20.9492 56.7477C17.7899 58.616 16.1513 60.8423 15.9408 63.5545C15.9331 63.6532 15.8896 63.7452 15.819 63.8122C15.7484 63.8792 15.6559 63.9161 15.56 63.9156ZM12.992 61.8502L15.2461 62.939C15.6261 60.3485 17.2047 58.1984 20.0638 56.3819L18.6129 55.3245C16.067 56.7655 14.0813 59.0708 12.992 61.8502Z" fill="black"/>
<path d="M58.432 142.946C58.356 142.946 58.3948 142.946 56.3451 142.503C56.2824 142.49 56.224 142.461 56.1752 142.418C56.1265 142.375 56.089 142.32 56.0663 142.259C56.0436 142.197 56.0363 142.13 56.0452 142.065C56.054 141.999 56.0788 141.937 56.1171 141.884C57.824 139.529 58.334 137.415 57.6735 135.41C57.6536 135.35 57.648 135.286 57.6574 135.223C57.6668 135.16 57.6908 135.101 57.7273 135.05C57.7639 134.999 57.8119 134.957 57.8673 134.93C57.9226 134.902 57.9837 134.889 58.0452 134.891L60.6953 134.969C60.7893 134.972 60.8789 135.011 60.9468 135.078C61.0148 135.145 61.0562 135.236 61.0631 135.333C61.2042 138.029 60.3748 140.683 58.7345 142.785C58.6997 142.835 58.6542 142.875 58.6017 142.903C58.5492 142.931 58.4911 142.946 58.432 142.946ZM57.0724 141.858L58.2709 142.117C59.6317 140.294 60.3549 138.048 60.3229 135.746L58.5437 135.692C59.0127 137.649 58.5278 139.676 57.0724 141.858Z" fill="black"/>
<path d="M140.383 80.7758C139.9 75.4716 135.426 73.6237 132.753 72.5168C130.362 71.5269 126.58 69.5048 124.326 68.2778C123.659 65.9546 122.7 63.7318 121.474 61.6666C121.562 61.0943 121.638 60.6398 121.684 60.376C124.123 59.7818 125.758 58.1867 126.158 56.6575C126.215 56.4353 126.261 56.2102 126.296 55.9832C126.554 55.888 126.772 55.7048 126.916 55.4638C127.059 55.2228 127.119 54.9384 127.085 54.6577C127.051 54.377 126.925 54.1168 126.728 53.92C126.531 53.7232 126.275 53.6017 126.002 53.5756C125.869 53.5638 125.926 53.6203 125.816 53.49C126.715 51.8225 127.361 50.0221 127.731 48.152C127.996 48.1431 128.257 48.0769 128.497 47.9577C128.736 47.8385 128.949 47.6688 129.121 47.4596C129.295 47.2689 129.328 47.2241 129.525 47.2626C130.274 47.3905 131.26 47.451 131.708 47.0012C132.058 46.6503 131.95 46.2115 131.812 45.7303C131.744 45.5894 131.721 45.4299 131.746 45.2748C131.772 45.1196 131.844 44.9768 131.953 44.8668C132.101 44.6771 132.204 44.454 132.253 44.2157C132.301 43.9774 132.295 43.7306 132.234 43.4952C132.174 43.2598 132.06 43.0426 131.903 42.8611C131.745 42.6796 131.549 42.5389 131.329 42.4505C132.148 41.7959 132.221 41.0077 131.046 40.174C130.929 40.0908 130.752 39.9652 130.727 39.9433C130.757 39.8758 130.801 39.8161 130.856 39.7682C131.898 38.6935 131.262 37.2845 129.629 37.352C129.298 37.3661 129.013 37.3991 128.775 37.4265C128.614 37.4538 128.45 37.4672 128.287 37.4666C128.348 37.2144 128.32 36.948 128.209 36.7149C128.097 36.4818 127.91 36.297 127.679 36.1933C127.383 36.0917 127.069 36.0641 126.761 36.1128C126.453 36.1615 126.161 36.2852 125.909 36.4736C125.787 36.2956 125.625 36.1504 125.437 36.0503C125.249 35.9502 125.041 35.898 124.83 35.8981C124.773 35.8919 124.694 35.8832 124.697 35.9107C124.674 35.7223 124.689 35.531 124.74 35.3486C125.033 33.7786 124.922 33.2637 123.621 32.8523C122.594 32.5305 121.682 33.1318 121.308 33.04C121.314 32.6475 121.676 31.773 121.2 31.2062C121.024 31.0338 120.811 30.9067 120.579 30.8352C120.347 30.7637 120.102 30.7499 119.863 30.7949C117.912 30.9001 117.555 28.6518 115.44 29.7477C114.68 30.1402 114.314 30.5507 114.328 31.0374C113.433 30.8435 112.559 28.9226 111.246 29.7995C110.898 30.0228 110.61 30.3344 110.41 30.7046C110.286 30.9189 110.274 30.9401 109.775 30.8467C108.623 30.6269 107.924 29.7477 107.025 31.0484C106.793 31.3701 106.628 31.7379 106.54 32.1286C106.481 32.3688 106.476 32.3876 106.1 32.5062C104.751 32.9269 103.01 33.8242 103.455 35.2066C103.75 36.1258 103.355 36.1768 102.888 37.0215C102.392 37.9093 102.209 37.9509 102.888 39.1535C103.015 39.3781 102.994 39.3969 102.793 39.5782C102.224 40.0885 102.375 40.5548 102.99 41.0266C103.76 41.6208 102.537 43.5911 103.986 44.0512C102.751 45.1502 103.17 46.0843 103.081 46.9219C103.049 47.875 102.715 48.7908 102.13 49.5289C101.66 50.096 101.34 50.7793 101.201 51.5122C101.063 52.245 101.11 53.0024 101.34 53.7106C101.782 55.2447 101.839 56.8698 101.507 58.4331C101.292 59.5565 100.924 61.4366 101.948 62.9351C102.456 63.6268 103.155 64.143 103.953 64.4156C103.401 65.0898 102.905 65.8115 102.472 66.5728C101.52 66.8947 94.248 69.2881 94.248 69.2881C92.2127 69.8981 87.4445 71.3291 84.8704 76.9591C82.2864 82.6111 82.1899 85.4701 80.5939 88.0496C79.4364 89.9671 78.474 92.0029 77.7218 94.1247C77.6618 94.1554 77.5797 94.1923 77.4817 94.237C76.3995 94.651 75.4695 95.4038 74.8217 96.3903C73.8162 96.0841 70.3734 95.0212 67.6777 94.0423C61.3188 91.7344 57.2292 89.4108 56.7382 87.8353C56.0041 85.4803 56.4912 85.1514 55.6818 82.8396C55.2661 81.6503 53.8175 77.7575 52.6304 77.5801C51.7613 77.5343 50.8944 77.7081 50.105 78.0864C49.0204 76.2464 46.2388 71.7028 45.0616 71.4524C44.977 71.4315 44.8891 71.4296 44.8037 71.4468C44.7184 71.464 44.6376 71.4999 44.5668 71.5521C43.6769 72.2146 40.5943 76.0109 40.5008 77.2826C40.4826 77.5228 40.5814 77.9632 41.7875 79.9053C41.4189 80.5333 41.3672 82.0444 41.6728 83.6591C41.9859 85.3186 44.0341 88.4563 44.4186 89.0348C44.7264 91.9534 51.5543 94.6334 53.2947 95.6288C54.7546 96.4578 58.832 100.647 63.4946 104.7C68.2568 108.838 71.9473 109.785 74.8566 111.137C79.6727 113.378 77.8609 112.531 78.4742 113.029C79.0875 113.527 81.8342 113.265 83.7061 111.016C84.8314 109.595 85.8849 108.115 86.8623 106.583C85.356 110.777 83.038 117.448 83.038 118.75C83.3261 120.528 83.9246 122.238 84.8043 123.795C84.7017 125.865 84.1286 140.158 87.0083 153.537C87.0269 153.624 87.0739 153.702 87.1413 153.758C87.2088 153.814 87.2926 153.844 87.3791 153.844L122.625 153.373C122.716 153.372 122.803 153.338 122.871 153.276C122.939 153.214 122.984 153.129 122.997 153.036C123.023 152.836 125.651 133.17 125.106 124.864L126.619 123.372C126.671 123.322 126.708 123.258 126.725 123.187C126.743 123.116 126.742 123.041 126.721 122.971C126.288 120.982 126.073 118.949 126.078 116.911C128.021 116.735 130.803 113.856 131.474 112.973C132.399 111.759 132.247 107.92 132.209 107.172C133.131 104.63 133.837 102.01 134.321 99.3418C134.813 96.0362 140.874 86.1962 140.383 80.7758ZM123.622 68.6138C123.93 71.3522 124.077 74.1074 124.061 76.8642C121.604 76.8442 119.226 77.762 117.384 79.4413C118.309 75.5948 120.218 69.6838 120.672 68.2943C121.059 68.0227 120.57 68.0682 121.289 62.9069C122.29 64.703 123.074 66.6197 123.622 68.6138ZM125.112 53.1791C122.636 53.2576 120.39 54.6157 118.793 54.0042C117.645 53.5669 119.065 48.9802 119.536 47.6677C120.72 47.5821 121.038 46.8827 121.588 47.5695C122.3 48.4456 121.697 49.8586 123.592 49.5831C125.4 49.3146 124.498 47.1496 125.125 47.0035C125.438 46.9321 125.521 47.0279 125.761 47.3175C126.054 47.7281 126.483 48.0123 126.967 48.1151C126.592 49.8874 125.968 51.5935 125.115 53.1791H125.112ZM125.398 37.9132C125.593 37.8866 125.802 37.6306 125.892 37.4838C126.639 36.7287 127.605 36.72 127.542 37.1934C127.507 37.3391 127.505 37.4911 127.537 37.6377C127.568 37.7842 127.631 37.9215 127.721 38.0388C128.09 38.4258 128.656 38.1786 129.657 38.1385C130.512 38.0993 130.915 38.5962 130.317 39.2148C130.205 39.3097 130.115 39.4297 130.055 39.5657C129.994 39.7017 129.965 39.8502 129.968 39.9998C130.003 40.3923 130.328 40.6215 130.614 40.8232C130.812 40.9638 131.256 41.2683 131.156 41.5007C130.843 41.8958 130.425 42.1878 129.953 42.3406C129.866 42.3738 129.793 42.4388 129.749 42.5234C129.705 42.6079 129.693 42.7061 129.714 42.7995C129.736 42.8928 129.79 42.9748 129.866 43.03C129.942 43.0852 130.035 43.1097 130.127 43.099C130.774 43.0205 131.238 43.1672 131.424 43.5017C131.494 43.6444 131.523 43.8046 131.508 43.9637C131.493 44.1227 131.435 44.2742 131.34 44.4005C130.673 45.3315 131.104 45.7436 131.183 46.4313C131.135 46.5098 130.686 46.6668 129.647 46.4878C129.446 46.4477 129.237 46.4672 129.046 46.5442C128.855 46.6211 128.688 46.7523 128.566 46.9227C128.418 47.0776 128.24 47.1985 128.044 47.2775C127.848 47.3564 127.638 47.3916 127.428 47.3808C127.218 47.37 127.012 47.3134 126.825 47.2147C126.637 47.1159 126.472 46.9774 126.34 46.8081C126.197 46.5754 125.987 46.3951 125.739 46.2928C125.491 46.1905 125.218 46.1714 124.96 46.2382C124.169 46.4203 124.124 47.1872 124.085 47.7477C124.041 48.4581 123.977 48.7337 123.484 48.8059C122.866 48.8993 122.855 48.8577 122.743 48.3608C122.659 47.8872 122.464 47.4424 122.173 47.0663C121.126 45.7719 120.384 47.0247 119.118 46.8795C118.968 46.8784 118.821 46.8383 118.69 46.7628C118.56 46.6873 118.45 46.5789 118.37 46.4478C118.287 46.2278 118.25 45.9918 118.263 45.7558C118.276 45.5198 118.339 45.2896 118.446 45.0811C119.01 43.8847 118.38 43.5495 117.238 42.942C116.734 42.6735 116.762 42.4262 116.822 41.8861C116.916 41.3887 116.86 40.8732 116.662 40.4095C116.541 40.1396 116.342 39.9154 116.092 39.7682C122.287 37.4784 125.114 37.9533 125.4 37.9132H125.398ZM104.005 42.3626C104.09 42.0136 104.083 41.6473 103.984 41.3021C103.886 40.9569 103.699 40.6454 103.444 40.4001C103.371 40.346 103.303 40.2858 103.24 40.2204C103.357 40.1494 103.459 40.054 103.538 39.9402C103.618 39.8264 103.674 39.6967 103.703 39.5594C103.731 39.4221 103.732 39.2801 103.704 39.1426C103.677 39.005 103.622 38.8748 103.544 38.7603C103.075 37.9305 103.164 38.1087 103.544 37.4132C103.945 36.6934 104.598 36.2922 104.172 34.9624C103.919 34.1704 105.545 33.5008 106.317 33.2598C107.518 32.883 107.013 32.4135 107.64 31.5061C107.962 31.0351 108.034 31.0657 108.597 31.2941C108.931 31.4385 109.278 31.5479 109.633 31.6207C111.145 31.9135 110.762 31.0571 111.654 30.4612C112.372 29.9785 113.117 31.7384 114.355 31.8366C114.628 31.8585 114.929 31.8813 115.093 31.6411C115.446 31.1277 114.524 31.0916 115.774 30.4518C116.584 30.035 116.955 30.3042 117.571 30.7501C118.221 31.3114 119.048 31.6069 119.895 31.5806C120.422 31.5579 120.579 31.6709 120.62 31.7235C120.914 32.0713 120.144 33.2551 120.859 33.6954C121.61 34.1554 122.468 33.3155 123.393 33.6059C124.19 33.8571 124.238 33.8728 123.988 35.2011C123.641 37.0521 124.824 36.5018 125.182 36.8135C125.351 36.9571 125.288 36.9971 125.169 37.1353C120.972 36.9634 115.669 39.0829 115.445 39.1763C115.367 39.208 115.302 39.2658 115.26 39.3404C115.217 39.4149 115.201 39.502 115.212 39.5876C114.794 39.656 114.372 39.6907 113.95 39.6913C113.643 39.6607 113.356 39.5221 113.137 39.2988C113.103 39.2285 113.05 39.1699 112.985 39.13C112.648 38.878 110.579 37.4627 108.653 38.5357C106.99 39.462 105.782 41.9112 104.646 43.3517C103.922 43.3517 103.949 43.1743 104.007 42.3626H104.005ZM104.022 56.911C104.044 56.8111 104.028 56.706 103.977 56.6182C103.926 56.5304 103.843 56.4668 103.747 56.4412C103.651 56.4155 103.548 56.4298 103.462 56.4809C103.376 56.5321 103.313 56.616 103.286 56.7148C103.078 57.5319 103.168 58.3994 103.538 59.153C103.578 59.2118 103.623 59.2681 103.67 59.3218C102.972 59.8152 102.431 60.5105 102.114 61.3204C101.688 59.1035 103.161 57.5147 102.077 53.501C101.881 52.9134 101.838 52.2831 101.952 51.673C102.066 51.0629 102.333 50.4944 102.727 50.0242C103.405 49.1711 103.796 48.1135 103.842 47.0106C103.952 45.9768 103.524 45.428 104.581 44.5591C105.873 43.4954 107.254 40.2086 109.024 39.2211C110.482 38.4086 112.164 39.4887 112.512 39.7337C112.848 40.1441 113.323 40.405 113.84 40.4621C114.727 40.605 115.618 39.9911 115.985 40.7557C116.413 41.6404 115.397 42.8391 116.897 43.6359C118.009 44.2278 118.009 44.2278 117.772 44.7349C117.226 45.892 117.445 47.2555 118.76 47.5907C118.091 49.4967 116.696 54.0379 118.535 54.7342C120.35 55.429 122.497 54.1525 124.875 53.9814C124.586 54.2269 124.352 54.5351 124.191 54.8842C124.158 54.9561 124.146 55.0368 124.158 55.1156C124.17 55.1944 124.205 55.2676 124.259 55.3253C124.312 55.383 124.381 55.4226 124.457 55.4387C124.533 55.4549 124.611 55.4468 124.682 55.4156C124.938 55.285 125.232 55.2552 125.508 55.3316C125.552 55.3689 125.582 55.4226 125.589 55.4815C125.565 55.8075 125.51 56.1303 125.426 56.4455C125.057 57.8546 123.016 59.7425 119.632 59.8289C119.531 59.8289 119.435 59.8702 119.363 59.9438C119.292 60.0174 119.252 60.1173 119.252 60.2214C119.252 60.3255 119.292 60.4253 119.363 60.4989C119.435 60.5725 119.531 60.6139 119.632 60.6139C120.052 60.6139 120.471 60.5846 120.888 60.526C120.469 62.8861 120.203 65.2726 120.093 67.6695C119.896 68.0203 118.012 74.185 117.349 76.5737C118.018 73.9311 118.524 71.2473 118.863 68.5385C118.863 67.5965 118.842 60.6578 118.232 57.7235C118.241 57.6267 118.22 57.5293 118.171 57.4464C118.123 57.0795 117.968 56.7364 117.726 56.4636C117.52 56.2919 117.272 56.1826 117.01 56.148C116.748 56.1133 116.481 56.1546 116.24 56.2673C116.017 56.1067 115.766 55.9932 115.5 55.9334C115.235 55.8736 114.96 55.8686 114.693 55.9188C114.387 56.0041 114.115 56.1853 113.914 56.4373C113.713 56.6893 113.592 56.9997 113.569 57.3255C112.868 57.2492 112.167 57.4622 111.618 57.9182C111.229 58.3437 110.712 62.0284 110.295 65.557C110.266 64.8505 110.295 63.987 109.628 63.5859C109.442 63.4845 109.234 63.4338 109.024 63.4386C108.814 63.4434 108.609 63.5035 108.427 63.6134C108.394 63.6358 108.364 63.6622 108.336 63.6919C108.516 62.9965 108.485 62.2611 108.249 61.5841C108.013 60.9071 107.582 60.3207 107.015 59.9035C107.557 59.7715 108.078 59.5578 108.56 59.2692C108.605 59.2426 108.643 59.2071 108.674 59.1648C108.704 59.1225 108.726 59.0743 108.738 59.023C108.751 58.9717 108.752 58.9184 108.744 58.8663C108.736 58.8142 108.718 58.7644 108.69 58.7198C108.663 58.6752 108.627 58.6368 108.585 58.6068C108.543 58.5768 108.495 58.5559 108.445 58.5454C108.395 58.5348 108.344 58.5348 108.293 58.5453C108.243 58.5558 108.196 58.5767 108.154 58.6066C107.197 59.173 106.083 59.3914 104.991 59.2268C104.829 59.2084 104.673 59.1538 104.533 59.0667C104.393 58.9797 104.273 58.8624 104.181 58.7228C103.928 58.1556 103.873 57.5156 104.024 56.911H104.022ZM117.173 58.1772C116.932 58.1772 116.749 57.981 116.655 57.6372C116.638 57.3404 116.625 57.1104 116.615 56.9542C116.728 56.9175 116.848 56.9118 116.964 56.9375C117.08 56.9632 117.187 57.0196 117.275 57.101C117.375 57.269 117.441 57.4558 117.47 57.6505C117.47 57.9637 117.432 58.1749 117.176 58.1772H117.173ZM115.876 57.342L115.872 57.3553C115.706 58.6765 114.474 58.7252 114.315 57.4896C114.362 57.1968 114.488 56.758 114.825 56.6952C115.004 56.6612 115.188 56.6665 115.365 56.7105C115.543 56.7546 115.709 56.8365 115.853 56.9511C115.86 57.0447 115.869 57.1751 115.878 57.342H115.876ZM113.537 59.2166C113.036 60.6217 111.972 59.9105 111.972 59.2888C111.97 59.2659 111.965 59.2432 111.958 59.2213C111.998 58.9599 112.068 58.7043 112.167 58.4598C112.569 58.1822 113.054 58.0604 113.535 58.116L113.537 59.2166ZM109.41 65.6865C109.285 65.7821 109.134 65.8337 108.978 65.8337C108.823 65.8337 108.672 65.7821 108.547 65.6865C108.398 65.506 108.447 65.2203 108.44 65.097C108.506 64.8209 108.617 64.5584 108.768 64.3206C109.285 64.0459 109.486 64.4219 109.51 65.0201C109.557 65.2474 109.521 65.4844 109.41 65.6865ZM103.933 74.999C104.362 73.4117 104.927 71.8213 105.333 70.7474C105.424 71.6089 105.561 72.4646 105.744 73.3105C105.764 73.3986 105.812 73.4769 105.881 73.5323C105.951 73.5876 106.036 73.6166 106.124 73.6143C106.207 75.2163 106.42 76.8083 106.76 78.3737C105.46 77.63 104.457 76.4335 103.931 74.9974L103.933 74.999ZM106.954 79.3102C107.106 80.0293 107.258 80.7177 107.392 81.334C105.879 81.1927 104 79.1281 103.306 78.2057C103.433 77.3697 103.544 76.6883 103.639 76.2118C104.347 77.6221 105.523 78.7216 106.952 79.3087L106.954 79.3102ZM106.262 71.9359C105.92 69.4404 105.824 66.9154 105.976 64.3999C106.632 64.4388 107.289 64.4204 107.941 64.345C107.222 66.0257 106.527 70.092 106.261 71.9344L106.262 71.9359ZM103.063 67.0995C103.542 66.2302 104.107 65.4147 104.75 64.666C104.902 64.7045 105.039 64.754 105.201 64.7838C105.12 66.2083 105.118 67.6365 105.196 69.0613C104.177 71.4338 103.383 73.9022 102.823 76.4324C101.72 75.1379 99.3651 74.1795 98.2494 73.7807C99.8067 71.903 102.901 67.3798 103.063 67.0995ZM85.5605 77.2959C87.9879 71.9846 92.3609 70.6737 94.4631 70.0433C94.4631 70.0433 99.9039 68.2661 101.772 67.6373C100.675 69.2379 98.4698 72.403 97.3017 73.6904C97.2574 73.7391 97.2259 73.7986 97.2101 73.8633C97.1942 73.9281 97.1947 73.9959 97.2114 74.0605C97.228 74.125 97.2603 74.1841 97.3053 74.2321C97.3502 74.2801 97.4063 74.3155 97.4681 74.3349C98.7959 74.7541 102.274 76.1498 102.628 77.6005C102.443 78.7843 102.225 80.3331 101.976 82.1307L99.0307 81.8167L100.053 75.8162C100.064 75.7645 100.065 75.711 100.055 75.659C100.046 75.6069 100.026 75.5574 99.9975 75.5134C99.969 75.4694 99.9322 75.4318 99.8892 75.4029C99.8462 75.374 99.7981 75.3544 99.7476 75.3452C99.6971 75.3361 99.6453 75.3376 99.5954 75.3496C99.5455 75.3616 99.4984 75.384 99.4571 75.4153C99.4158 75.4466 99.381 75.4862 99.3548 75.5318C99.3287 75.5773 99.3118 75.6279 99.3051 75.6804C99.2944 75.7393 98.8491 78.3439 98.2722 81.7359L92.12 81.0796C91.1434 74.8852 91.1723 73.513 91.0385 73.0852C91.0161 73.0135 90.9739 72.9502 90.9172 72.9029C90.8605 72.8556 90.7917 72.8264 90.7191 72.8188C90.6466 72.8112 90.5735 72.8256 90.5088 72.8602C90.444 72.8949 90.3904 72.9482 90.3545 73.0137C90.2094 73.2853 87.0326 79.2317 85.9845 83.5327C84.974 83.4882 83.9662 83.6737 83.0327 84.076C83.7168 81.7562 84.5615 79.4904 85.5605 77.2959ZM94.3392 120.517C94.323 120.513 94.3065 120.511 94.2898 120.509C92.7776 120.553 91.306 120.001 90.1744 118.964C91.0005 116.287 91.9604 113.139 92.8937 109.99C93.9613 110.398 95.1064 110.543 96.2377 110.413C95.3732 113.73 94.7388 117.107 94.3392 120.517ZM83.1452 92.7926C84.7277 90.2048 85.8868 87.3654 86.5758 84.3884C88.7798 84.7809 90.2679 86.6115 91.2665 88.7059C90.1638 90.9926 88.6027 93.9089 87.1375 96.5653C86.2901 94.8521 84.8725 93.5124 83.1452 92.7926ZM86.6769 97.3958C85.4898 99.5342 84.4136 101.423 83.7577 102.566C83.6489 100.174 82.712 97.9027 81.1175 96.165C81.3561 95.7968 81.9945 94.7951 82.7515 93.4857C83.6282 93.8287 84.4283 94.3521 85.1031 95.0243C85.7779 95.6965 86.3133 96.5033 86.6769 97.3958ZM95.1615 85.2032C95.1946 85.1057 95.1892 84.9986 95.1463 84.9052C95.1034 84.8118 95.0266 84.7397 94.9325 84.7044C94.8385 84.6692 94.7347 84.6737 94.6439 84.7169C94.553 84.7602 94.4823 84.8388 94.4471 84.9355L93.4295 87.84C92.9872 86.0683 92.5882 83.9527 92.2492 81.8842L98.1415 82.5122C95.7262 96.782 96.1655 94.978 95.5575 97.5206C94.2315 96.757 92.9596 95.8971 91.7514 94.9474L95.1615 85.2032ZM92.6482 90.0702C92.4772 89.5992 92.2994 89.1439 92.1101 88.72C92.288 88.3448 92.4514 87.9897 92.6003 87.6548C92.7166 88.1423 92.8367 88.6101 92.9591 89.045C92.9879 89.1431 93.0738 88.8519 92.6482 90.0679V90.0702ZM92.3115 86.3807C92.1403 86.8093 91.9288 87.2966 91.6769 87.8424C90.5696 85.7472 89.001 84.0571 86.7461 83.6269C87.6903 80.4678 88.931 77.4114 90.4503 74.5013C90.73 76.8626 91.4071 82.1472 92.31 86.3752L92.3115 86.3807ZM91.6671 89.6369C91.87 90.1401 92.063 90.6676 92.2401 91.2399C90.6578 95.7607 88.7213 101.314 88.1779 102.947C88.347 101.092 88.123 99.2222 87.5213 97.4665C88.9478 94.8885 90.5035 91.9982 91.6671 89.629V89.6369ZM91.4809 95.7261C92.7121 96.6869 94.0101 97.5528 95.3645 98.3166C94.6645 101.132 93.5701 104.995 92.4043 108.948C90.7543 108.142 89.2653 107.024 88.0145 105.651C89.286 102.129 88.2372 105.021 91.4809 95.7206V95.7261ZM93.1171 109.238C94.2663 105.342 95.3485 101.523 96.0591 98.6825C97.0541 99.2115 98.1161 99.5939 99.2139 99.8183C98.4539 103.361 98.045 103.323 96.4383 109.626C95.3167 109.777 94.1765 109.641 93.1171 109.232V109.238ZM96.2506 97.9014C96.9133 95.146 96.4452 97.0975 98.8992 82.5939L101.869 82.9079C101.229 87.5551 100.292 94.4858 99.3742 99.0436C98.2843 98.8209 97.2319 98.4342 96.2506 97.8959V97.9014ZM81.2368 88.4814C81.8498 87.4193 82.3451 86.2894 82.7135 85.1129C83.6654 84.5817 84.7324 84.3094 85.8143 84.3217C85.2907 87.128 83.8254 90.0247 82.4194 92.5194C81.448 92.189 80.4364 92.0017 79.4143 91.9628C79.9482 90.7605 80.557 89.5952 81.2368 88.4743V88.4814ZM79.0739 92.7439C80.0725 92.7553 81.0642 92.9164 82.0181 93.222C81.3653 94.3477 80.8143 95.223 80.5566 95.6241C79.9356 95.058 79.2424 94.5826 78.4963 94.2111C78.5951 93.9206 78.7965 93.397 79.0739 92.7369V92.7439ZM44.9575 72.2319C45.6149 72.4784 47.7459 75.5846 49.4704 78.5119C48.6009 79.3393 48.7605 80.7837 51.1591 81.0404C51.5734 81.5938 51.9096 82.2051 52.1577 82.8561C51.7363 84.4553 51.1849 86.0149 50.5093 87.5182C50.4718 87.5613 50.444 87.6125 50.4279 87.6681C50.4006 87.767 50.5039 87.5464 50.244 88.1391C47.964 85.4332 42.8295 77.1923 42.0026 75.8601C42.8575 74.5438 43.8482 73.3272 44.9575 72.2319ZM41.2631 77.3383C41.3152 77.0753 41.4147 76.8247 41.5565 76.5996C42.8485 78.6807 47.7702 86.5259 49.8853 88.9076C49.8107 89.0358 49.7088 89.1448 49.5874 89.2264C49.466 89.308 49.3283 89.3601 49.1846 89.3786C46.267 85.4874 47.657 87.2693 45.7919 83.7863C44.9666 82.2453 44.2552 81.8646 43.8425 81.7932C43.5416 81.0427 43.1202 80.35 42.5962 79.7443C42.0554 79.0036 41.6075 78.1952 41.2631 77.3383ZM42.4229 83.5045C42.2135 82.5606 42.1807 81.584 42.3264 80.6275C42.6148 81.0762 42.8745 81.544 43.1038 82.0279C42.8629 82.3419 42.8926 82.8796 43.2019 83.7141C43.5691 84.7924 43.8584 85.8973 44.0675 87.0197C43.3598 85.9356 42.8059 84.7523 42.4229 83.506V83.5045ZM78.5745 112.017C67.4611 106.692 69.0746 108.956 58.5364 99.1385C53.9764 94.8893 54.1109 95.128 52.3538 94.2755C50.0533 93.16 45.266 90.8395 45.1733 88.8747C44.8971 87.0285 44.4749 85.2088 43.9109 83.4338C43.7918 83.1613 43.7213 82.8688 43.7027 82.5703C43.8904 82.5892 44.4346 82.8741 45.1269 84.167C46.1909 86.1538 47.0095 88.1399 47.0178 88.1595C47.056 88.2495 47.1254 88.3213 47.2123 88.361C47.2993 88.4007 47.3975 88.4053 47.4875 88.3738C48.186 89.3362 48.7134 90.0325 48.721 90.042C48.7565 90.0887 48.8019 90.1264 48.8536 90.1524C48.9054 90.1784 48.9621 90.1919 49.0197 90.1919C49.3027 90.1807 49.5799 90.1055 49.8318 89.9717C50.0837 89.8378 50.304 89.6485 50.4773 89.4171C50.5009 89.381 50.5442 89.2946 50.5959 89.1894C50.6142 89.1787 50.6317 89.1666 50.6483 89.1533C50.686 89.1131 50.7149 89.0651 50.7331 89.0124C50.7513 88.9598 50.7585 88.9037 50.754 88.848C50.83 88.6847 50.9151 88.4877 51.0078 88.2733C51.9487 88.6865 52.7837 89.32 53.4468 90.1238C54.1099 90.9276 54.5829 91.8797 54.8283 92.9049C54.8415 92.9546 54.8641 93.0012 54.8947 93.0419C54.9253 93.0827 54.9633 93.1168 55.0067 93.1423C55.0501 93.1679 55.0979 93.1844 55.1474 93.1908C55.1969 93.1973 55.2472 93.1936 55.2954 93.18C55.3435 93.1664 55.3886 93.1431 55.4281 93.1115C55.4675 93.0799 55.5005 93.0406 55.5253 92.9958C55.55 92.951 55.566 92.9016 55.5722 92.8504C55.5785 92.7993 55.5749 92.7474 55.5618 92.6976C55.2861 91.5592 54.7589 90.5022 54.0216 89.6095C53.2842 88.7168 52.3568 88.0125 51.3118 87.5519C52.0528 85.7747 52.9914 83.3004 52.9078 82.7501C52.7188 82.1147 52.4261 81.5173 52.0422 80.9838C52.1047 80.9343 52.1506 80.8657 52.1733 80.7878C52.196 80.7098 52.1943 80.6264 52.1686 80.5495C52.1429 80.4726 52.0944 80.4059 52.0299 80.3591C51.9655 80.3122 51.8884 80.2874 51.8096 80.2883C51.1306 80.3196 50.4573 80.1482 49.8701 79.7946C49.6467 79.5591 49.7652 79.2702 50.0092 79.0559C50.7531 78.5553 51.6302 78.3083 52.5172 78.3494C52.866 78.4279 53.9399 80.1667 54.9667 83.1041C55.6894 85.1718 55.2874 85.7354 56.014 88.074C57.1897 91.8522 71.1873 96.1061 74.8619 97.22C75.188 97.4021 80.5794 100.511 80.2709 105.587C79.9859 110.261 79.2069 111.22 78.6361 111.921C78.6194 111.957 78.5989 111.987 78.5745 112.017ZM81.2741 111.836C81.2158 111.881 81.1715 111.942 81.1464 112.013C80.5376 112.305 79.8745 112.457 79.2031 112.458C80.6471 110.83 80.9017 107.868 81.0385 105.64C81.3425 100.616 76.8037 97.4838 75.5186 96.7003C76.1076 95.6798 77.3069 95.2025 78.0266 94.8462C78.8345 95.1963 83.0426 97.3213 83.0426 103.547C83.0426 110.361 81.2855 111.827 81.2741 111.836ZM82.6915 110.965C83.2121 109.749 83.7471 107.624 83.7935 104.039C84.0747 103.554 85.4191 101.233 87.0212 98.3598C87.5366 100.385 87.6144 102.502 87.2492 104.561C86.3653 105.957 83.8801 109.828 82.6915 110.965ZM87.7189 106.467C88.9988 107.822 90.5109 108.92 92.1785 109.705C91.2802 112.737 90.3545 115.774 89.5505 118.391C87.9246 116.602 86.6171 114.53 85.6881 112.272C86.3493 110.319 87.0835 108.234 87.7189 106.467ZM85.3294 113.342C86.2716 115.55 87.617 117.549 89.2921 119.23C88.1049 123.076 87.234 125.824 87.2081 125.902C87.1809 126 87.1913 126.105 87.2372 126.194C87.2831 126.284 87.3609 126.352 87.4542 126.384C87.5476 126.416 87.6492 126.409 87.7378 126.365C87.8264 126.321 87.8951 126.243 87.9294 126.148C88.0305 125.83 88.8353 123.292 89.9244 119.773C91.148 120.812 92.697 121.353 94.2799 121.295C94.0618 124.914 93.6393 129.318 93.5154 130.581C91.6968 130.42 90.0041 129.556 88.7753 128.162C85.9519 125.318 83.8026 120.113 83.8026 118.748C84.1592 116.904 84.6701 115.095 85.3294 113.342ZM94.7679 125.117C94.8735 123.813 94.9738 122.448 95.0483 121.18C95.3021 116.875 97.4408 108.011 99.1827 102.961C100.637 98.7429 102.355 84.744 103.151 79.2427C104.006 80.2459 105.824 82.1174 107.525 82.1331C108.123 86.4223 108.807 95.0581 112.417 104.143C112.142 112.984 112.383 121.835 113.137 130.647C107.549 132.091 102.005 130.816 94.7679 125.111V125.117ZM114.235 134.52C114.052 132.587 113.593 127.392 113.291 121.276C115.112 120.316 116.875 119.245 118.573 118.068C118.972 121.069 119.717 125.154 121.014 127.81C118.576 130.209 115.846 132.907 114.235 134.517V134.52ZM113.247 120.413C113.027 115.663 112.911 110.435 113.095 105.776C114.418 108.906 116.126 111.847 118.178 114.526C118.25 114.618 118.115 114.348 118.456 117.187C116.786 118.371 115.048 119.447 113.25 120.41L113.247 120.413ZM121.586 127.242C120.354 124.573 119.646 120.452 119.276 117.549C119.596 117.305 119.902 117.059 120.188 116.812C121.922 118.472 123.636 119.213 125.328 117.511C125.347 119.347 125.547 121.176 125.926 122.97L121.586 127.242ZM125.4 116.262C124.761 117.052 124.13 117.724 123.301 117.695C119.772 117.65 114.617 107.384 113.139 103.897C108.992 94.1106 108.696 83.7227 108.144 81.2311C107.612 78.8306 106.722 74.8145 106.905 72.8544C107.176 70.6582 107.575 68.4808 108.1 66.3342C108.311 66.4876 108.556 66.5833 108.812 66.6123C109.069 66.6412 109.328 66.6025 109.566 66.4998L109.732 70.7176C109.735 70.817 109.775 70.9111 109.844 70.9811C109.912 71.051 110.004 71.0915 110.1 71.0944C110.195 71.095 110.288 71.0596 110.359 70.9948C110.431 70.93 110.477 70.8403 110.489 70.7427C110.875 66.9339 111.366 62.8142 111.745 60.4318C111.985 60.6625 112.295 60.7998 112.623 60.8203C112.95 60.8408 113.274 60.7431 113.54 60.544C113.54 63.4736 113.54 67.8665 113.525 69.4428C113.524 69.4943 113.533 69.5455 113.552 69.5934C113.57 69.6413 113.597 69.685 113.632 69.7219C113.667 69.7589 113.708 69.7884 113.754 69.8088C113.8 69.8292 113.849 69.84 113.899 69.8408C113.949 69.8415 113.999 69.8321 114.045 69.813C114.092 69.7939 114.134 69.7656 114.17 69.7297C114.205 69.6938 114.234 69.6509 114.254 69.6036C114.273 69.5562 114.284 69.5053 114.285 69.4538C114.308 67.5415 114.301 61.5041 114.298 58.9301C114.547 59.1028 114.844 59.1862 115.143 59.1674C115.443 59.1485 115.728 59.0284 115.955 58.8256C116.161 62.0755 116.205 65.3342 116.084 68.5887C116.08 68.6402 116.086 68.6921 116.101 68.7413C116.117 68.7906 116.141 68.8362 116.174 68.8757C116.206 68.9151 116.246 68.9475 116.29 68.9712C116.335 68.9948 116.383 69.0092 116.433 69.0134C116.483 69.0176 116.533 69.0116 116.581 68.9958C116.629 68.98 116.673 68.9546 116.711 68.9212C116.749 68.8877 116.781 68.8468 116.803 68.8008C116.826 68.7548 116.84 68.7046 116.844 68.6531C116.97 65.3917 116.93 62.1258 116.724 58.8688C116.872 58.9351 117.032 58.9679 117.193 58.9649C117.355 58.9619 117.514 58.9233 117.66 58.8515C117.964 62.0732 118.111 65.3086 118.101 68.5455C118.101 70.384 115.607 80.6738 115.582 80.7774C115.56 80.8695 115.571 80.9668 115.612 81.0514C123.488 97.1164 122.111 94.0823 125.121 98.7445C125.202 98.9289 128.646 103.908 128.87 106.711C129.16 110.368 126.434 114.989 125.403 116.259L125.4 116.262ZM122.639 93.4112C121.798 91.7996 120.212 88.6227 118.833 85.8477L124.505 87.7914C123.834 89.6016 123.118 91.6638 122.642 93.408L122.639 93.4112ZM125.278 87.902C127.444 87.6494 129.636 87.9639 131.653 88.8166C129.998 93.4057 128.494 98.0529 128.3 100.261C127.517 99.5153 126.66 98.8574 125.743 98.2986C125.222 97.4908 123.407 94.7794 123.174 94.3893C123.757 92.1877 124.461 90.0218 125.281 87.902H125.278ZM130.879 112.487C129.701 113.976 128.219 115.176 126.539 116.003C127.964 113.883 129.875 109.825 129.624 106.646C129.48 104.834 128.209 102.329 126.812 100.002C128.439 101.305 130.856 103.775 131.448 107.303C131.45 107.311 131.453 107.319 131.456 107.328C131.52 108.643 131.518 111.649 130.882 112.484L130.879 112.487ZM131.867 105.822C131.289 104.008 130.316 102.356 129.022 100.993C129.164 100.46 128.325 100.277 132.344 89.151C133.851 89.9288 135.169 91.048 136.199 92.4252C131.759 102.439 134.984 96.4413 131.871 105.819L131.867 105.822ZM136.547 91.6339C135.473 90.2822 134.132 89.1824 132.614 88.4076C134.702 82.6849 136.937 77.2198 136.98 77.1154C137.016 77.0202 137.015 76.9142 136.977 76.8198C136.938 76.7255 136.866 76.6504 136.775 76.6104C136.684 76.5703 136.581 76.5687 136.489 76.6057C136.396 76.6427 136.322 76.7154 136.281 76.8084C136.107 77.23 133.949 82.5091 131.917 88.0857C129.911 87.2473 127.744 86.903 125.587 87.0802C126.347 85.0965 126.966 83.6073 126.98 83.5751C127.02 83.4796 127.022 83.3714 126.985 83.2744C126.948 83.1773 126.875 83.0995 126.783 83.0578C126.69 83.0162 126.586 83.0142 126.492 83.0523C126.398 83.0905 126.322 83.1656 126.282 83.2611C126.268 83.2949 125.587 84.9245 124.779 87.0566C117.946 84.7157 118.466 84.8814 118.351 84.8767C116.648 81.4321 116.888 82.0083 116.918 81.7673C116.945 81.5514 116.985 81.308 117.034 81.0419C119.618 77.3862 124.33 77.6554 124.38 77.6594C124.477 77.6673 124.574 77.6355 124.649 77.5709C124.725 77.5062 124.772 77.4137 124.783 77.3132C125.002 75.364 124.617 70.9814 124.447 69.234C126.654 70.4303 130.147 72.2876 132.467 73.2477C135.141 74.3537 139.182 76.0234 139.622 80.8512C139.886 83.6575 138.191 87.8871 136.552 91.6308L136.547 91.6339Z" fill="black"/>
<path d="M24.6262 17.9585C25.7934 17.3039 27.0858 16.9225 28.4117 16.8415C26.8773 16.0329 24.4506 15.0477 22.7239 15.7378C22.6773 15.7564 22.6277 15.7653 22.5778 15.7641C22.5278 15.7629 22.4787 15.7515 22.433 15.7307C22.3873 15.7098 22.3461 15.6799 22.3116 15.6426C22.2772 15.6053 22.2502 15.5613 22.2322 15.5133C22.2141 15.4652 22.2055 15.4139 22.2066 15.3623C22.2078 15.3108 22.2188 15.26 22.239 15.2128C22.2592 15.1656 22.2882 15.123 22.3243 15.0875C22.3604 15.0519 22.403 15.024 22.4495 15.0054C25.5192 13.7831 30.1042 16.9176 30.298 17.0526C30.3702 17.1043 30.4228 17.1802 30.447 17.2674C30.4711 17.3546 30.4653 17.4477 30.4304 17.531C30.3956 17.6142 30.3339 17.6825 30.2559 17.7241C30.1778 17.7656 30.0883 17.778 30.0024 17.7591C28.2894 17.472 26.5326 17.7804 25.0077 18.636C24.9212 18.6814 24.8211 18.6909 24.728 18.6625C24.6349 18.6341 24.5559 18.57 24.5071 18.4834C24.4583 18.3968 24.4435 18.2941 24.4656 18.1965C24.4877 18.0989 24.5452 18.0138 24.6262 17.9585Z" fill="white"/>
<path d="M34.0805 15.0022C34.266 12.3811 36.0565 9.1053 36.1325 8.96714C36.1838 8.87978 36.2661 8.81653 36.3618 8.79082C36.4576 8.76512 36.5592 8.77899 36.6452 8.82948C36.7312 8.87997 36.7948 8.96311 36.8224 9.06123C36.85 9.15935 36.8394 9.26471 36.793 9.35492C36.1299 10.6029 35.5892 11.9162 35.1787 13.2752C35.8982 12.2644 36.7787 11.3871 37.7825 10.6808C37.8249 10.6519 37.8725 10.6321 37.9225 10.6225C37.9725 10.613 38.0238 10.6139 38.0734 10.6252C38.1231 10.6365 38.17 10.6579 38.2115 10.6883C38.2529 10.7187 38.2881 10.7573 38.3148 10.8019C38.3415 10.8466 38.3593 10.8963 38.3672 10.9482C38.375 11 38.3726 11.053 38.3603 11.1039C38.3479 11.1548 38.3258 11.2027 38.2952 11.2446C38.2646 11.2865 38.2262 11.3217 38.1823 11.348C36.378 12.502 34.8048 15.2047 34.7889 15.2314C34.7458 15.3091 34.6784 15.3692 34.5978 15.4018C34.5171 15.4345 34.4281 15.4377 34.3455 15.4109C34.2628 15.3842 34.1915 15.3291 34.1433 15.2548C34.0952 15.1804 34.073 15.0913 34.0805 15.0022Z" fill="white"/>
<path d="M103.701 152.476C103.648 152.476 103.596 152.465 103.548 152.443C103.5 152.422 103.456 152.39 103.421 152.35C103.385 152.31 103.357 152.262 103.34 152.211C103.323 152.16 103.317 152.105 103.321 152.051L104.558 136.932C104.567 136.828 104.615 136.732 104.692 136.664C104.77 136.597 104.87 136.564 104.97 136.573C105.071 136.582 105.164 136.631 105.23 136.711C105.295 136.791 105.327 136.894 105.318 136.998L104.079 152.115C104.071 152.213 104.028 152.305 103.958 152.372C103.888 152.439 103.797 152.476 103.701 152.476Z" fill="white"/>
</svg>
