<svg width="153" height="157" viewBox="0 0 153 157" fill="none" xmlns="http://www.w3.org/2000/svg">
<path fill-rule="evenodd" clip-rule="evenodd" d="M112.543 139.426C112.652 140.03 112.97 140.573 113.438 140.955C114.118 141.423 126.673 142.515 129.043 140.877C129.105 140.239 129.126 139.596 129.107 138.955C129.107 138.955 127.796 139.935 124.489 139.777C122.492 139.69 120.493 139.847 118.533 140.245C114.104 140.728 112.543 139.426 112.543 139.426Z" fill="white"/>
<path fill-rule="evenodd" clip-rule="evenodd" d="M127.337 135.143C127.506 135.458 127.692 135.763 127.895 136.057C128.497 136.95 128.9 137.969 129.075 139.04C128.316 139.514 127.454 139.785 126.567 139.829C124.811 140.013 112.127 141.33 112.572 139.049C113.017 136.768 122.405 135.406 122.405 135.406C122.955 136.484 126.259 136.362 127.337 135.143Z" fill="#FFD997"/>
<path fill-rule="evenodd" clip-rule="evenodd" d="M123.996 40.72C123.962 41.2803 124.032 41.8422 124.205 42.3752C120.693 43.7979 116.605 48.6893 116.605 48.6893C115.566 46.3767 115.03 43.8599 115.034 41.3136C114.92 41.3362 114.806 41.3557 114.7 41.3729C114.438 41.7489 114.23 42.1619 114.083 42.599C114.083 43.0787 113.23 43.776 113.23 44.783C113.23 45.79 112 47.3157 110.613 48.8531C110.613 48.8531 109.03 56.3208 108.736 58.5836C108.035 59.3642 107.283 60.094 106.484 60.7676C108.035 63.3735 110.523 65.2136 113.442 66.6269C113.442 66.6269 106.959 73.6352 104.046 72.3092C101.402 71.1065 101.766 70.0893 101.44 65.8438C101.115 61.5983 107.178 47.864 107.178 47.864C106.961 46.1691 106.83 44.4638 106.784 42.755C106.86 41.6318 108.372 40.5125 109.14 39.9868C109.867 39.4915 111.504 37.9861 111.96 38.0711C111.827 37.9256 111.657 37.8228 111.469 37.7755C111.528 37.2818 112.159 36.8301 112.159 36.8301C110.949 36.5431 111.145 35.831 111.579 35.4815C112.013 35.1321 111.095 34.5174 110.439 33.9574C109.783 33.3974 111.165 32.4754 111.92 32.0542C112.675 31.633 112.388 31.1697 112.178 30.4014C111.967 29.6331 111.96 29.2033 112.431 28.7244C112.868 28.2094 113.263 27.6585 113.612 27.077H114.911C114.911 27.077 119.167 28.3157 117.842 29.9724C116.517 31.6291 115.612 32.3717 117.153 33.3911C118.695 34.4106 119.241 35.7888 116.514 36.561C116.514 36.561 120.922 36.1437 120.751 34.058C120.687 33.278 120.632 32.8053 120.636 32.4551C121.496 32.1751 122.536 32.0511 122.916 32.8911C123.062 33.3345 123.074 33.8129 122.95 34.2633C122.826 34.7137 122.572 35.115 122.222 35.4144C122.222 35.4144 121.538 37.9159 122.418 39.5282C122.568 39.825 122.781 40.0838 123.04 40.2861C123.3 40.4885 123.6 40.6292 123.919 40.6982L123.996 40.72ZM111.811 39.5882C111.448 40.1953 111.134 40.8318 110.872 41.4914C110.748 42.1947 110.842 42.92 111.139 43.5662C111.139 43.5662 112.368 43.06 112.63 42.4056C112.792 42.0456 113.013 41.7169 113.283 41.4337C113.068 41.4124 112.86 41.3478 112.669 41.2433C112.479 41.1389 112.31 40.9969 112.173 40.8254C112.036 40.6538 111.934 40.4562 111.872 40.2439C111.81 40.0316 111.789 39.8087 111.811 39.5882Z" fill="#FFD997"/>
<path d="M114.677 31.1346C114.363 30.8756 113.417 30.2664 112.819 30.5402C112.732 30.5789 112.635 30.5831 112.545 30.5518C112.456 30.5206 112.381 30.4563 112.335 30.3714C112.289 30.2865 112.276 30.1872 112.298 30.0928C112.32 29.9984 112.375 29.9157 112.453 29.8608C112.937 29.5262 114.135 29.2454 115.208 30.5823C115.267 30.6568 115.298 30.7512 115.293 30.8473C115.289 30.9433 115.25 31.0344 115.184 31.1029C115.118 31.1714 115.03 31.2125 114.937 31.2183C114.843 31.2242 114.751 31.1944 114.677 31.1346Z" fill="black"/>
<path fill-rule="evenodd" clip-rule="evenodd" d="M127.099 35.3755C127.261 35.1453 127.403 34.9007 127.523 34.6446C128.675 32.2126 128.994 30.5106 128.184 27.8188C127.374 25.127 119.701 17.5579 114.914 24.6895C114.914 24.6895 107.39 24.2909 107.636 25.6847C107.881 27.0786 117.051 27.0786 117.051 27.0786L127.099 35.3755Z" fill="#81F8F8"/>
<path fill-rule="evenodd" clip-rule="evenodd" d="M114.35 32.4505C113.963 32.0239 113.501 31.6762 112.988 31.4255C112.988 31.4255 112.617 31.8444 112.672 32.1697C112.748 32.6041 113.349 32.9317 114.35 32.4505Z" fill="white"/>
<path d="M114.449 31.9747C114.019 31.51 113.493 31.1499 112.91 30.9209C112.831 30.8938 112.746 30.894 112.667 30.9215C112.589 30.949 112.521 31.0023 112.474 31.0731C112.428 31.144 112.405 31.2285 112.41 31.3137C112.415 31.399 112.447 31.4802 112.501 31.5449C112.469 31.6833 112.465 31.8271 112.491 31.9669C112.637 32.7797 113.337 32.7836 113.331 32.0223C113.534 32.1563 113.72 32.3168 113.884 32.4997C113.917 32.5402 113.957 32.5735 114.002 32.5977C114.048 32.6218 114.098 32.6363 114.149 32.6401C114.2 32.644 114.251 32.6373 114.3 32.6203C114.348 32.6033 114.393 32.5764 114.431 32.5412C114.469 32.5061 114.5 32.4634 114.521 32.4157C114.543 32.368 114.555 32.3164 114.557 32.2638C114.558 32.2113 114.55 32.1589 114.531 32.1099C114.512 32.0609 114.484 32.0162 114.449 31.9786V31.9747Z" fill="black"/>
<path fill-rule="evenodd" clip-rule="evenodd" d="M125.323 74.7085C128.981 69.1425 129.588 66.7791 129.588 66.7791C134.503 62.8143 138.824 63.1981 138.824 63.1981C139.022 63.6661 139.197 64.1341 139.341 64.5865C140.591 68.527 135.147 72.4512 133.014 73.9597C130.881 75.4683 127.639 78.2443 127.382 79.3636C127.124 80.4829 128.702 83.2488 127.844 85.1676C126.986 87.0864 125.775 89.7571 125.775 89.7571C125.775 89.7571 126.748 85.3696 124.974 82.2332C124.974 82.2309 124.611 80.0734 125.323 74.7085Z" fill="#FFD997"/>
<path fill-rule="evenodd" clip-rule="evenodd" d="M124.974 82.1848C120.145 81.2316 116.171 83.0576 111.176 87.7594C111.176 87.7594 109.298 102.189 110.969 114.726C110.969 114.726 117.25 116.119 125.81 114.006C125.81 114.006 124.772 95.2856 125.754 90.1158C126.736 84.946 124.974 82.1848 124.974 82.1848Z" fill="#81F8F8"/>
<path fill-rule="evenodd" clip-rule="evenodd" d="M138.823 63.1958C135.422 63.1944 132.137 64.4679 129.586 66.7768C129.372 65.9018 129.048 65.0589 128.623 64.2691C124.187 72.4809 124.941 82.2504 124.941 82.2504C124.941 82.2504 119.271 79.5282 111.158 87.8469C111.158 87.8469 111.549 83.4087 110.521 80.9447C109.438 77.7526 108.691 74.4504 108.295 71.0949C110.087 69.7242 111.767 68.206 113.319 66.5553C110.428 65.5086 108.025 63.3875 106.583 60.6109C108.151 59.6562 109.804 57.3169 110.915 55.2749C111.952 53.374 112.428 51.3102 116.169 49.4343C117.309 47.5849 122.461 42.6186 124.139 42.3651C125.991 45.9617 125.077 45.4071 129.069 47.7963C130.11 48.4203 132.218 48.978 133.383 52.5012C134.415 55.6189 137.303 59.593 138.823 63.1958Z" fill="white"/>
<path d="M120.895 57.4215C120.794 57.4215 120.697 57.3804 120.626 57.3072C120.555 57.2341 120.515 57.1349 120.515 57.0315C120.515 54.6259 119.95 52.9107 118.836 51.9365C118.448 51.6096 118.001 51.3653 117.521 51.218C117.04 51.0707 116.536 51.0232 116.037 51.0785C115.938 51.0948 115.836 51.0699 115.754 51.0092C115.673 50.9485 115.618 50.857 115.602 50.7548C115.586 50.6526 115.61 50.5481 115.669 50.4643C115.729 50.3805 115.818 50.3242 115.917 50.3079C116.524 50.2346 117.14 50.2885 117.726 50.4663C118.312 50.644 118.857 50.942 119.328 51.3421C120.62 52.4716 121.275 54.3841 121.275 57.0307C121.275 57.082 121.265 57.1328 121.246 57.1802C121.227 57.2276 121.199 57.2707 121.164 57.307C121.128 57.3433 121.086 57.3721 121.04 57.3917C120.994 57.4114 120.945 57.4215 120.895 57.4215Z" fill="black"/>
<path d="M122.786 96.2599C122.618 96.0813 123.156 96.1172 112.694 96.3426C112.644 96.3436 112.595 96.3548 112.549 96.3755C112.503 96.3961 112.462 96.4259 112.427 96.4631C112.392 96.5003 112.365 96.5442 112.347 96.5922C112.329 96.6401 112.321 96.6913 112.322 96.7427L112.675 110.681C112.677 110.766 112.707 110.848 112.758 110.915C112.81 110.981 112.881 111.029 112.962 111.049C114.577 111.469 116.236 111.691 117.902 111.71C119.294 111.75 120.682 111.545 122.006 111.103C122.074 111.075 122.134 111.028 122.176 110.967C122.219 110.906 122.244 110.833 122.248 110.758C122.943 95.4682 122.964 96.4479 122.786 96.2599ZM122.115 96.9299L121.963 100.254L113.178 100.509L113.091 97.1148L122.115 96.9299ZM113.197 101.289L114.813 101.242L114.977 110.68C114.483 110.599 113.966 110.494 113.428 110.364L113.197 101.289ZM115.738 110.788L115.573 101.219L119.559 101.104L118.875 110.89C117.828 110.953 116.777 110.919 115.737 110.788H115.738ZM119.638 110.82L120.322 101.082L121.928 101.035L121.498 110.453C120.889 110.63 120.266 110.754 119.637 110.823L119.638 110.82Z" fill="black"/>
<path fill-rule="evenodd" clip-rule="evenodd" d="M124.838 126.483C126.842 133.574 126.565 133.686 127.334 135.141C126.867 135.552 126.305 135.834 125.702 135.961C125.702 135.961 124.286 128.607 124.838 126.483Z" fill="white"/>
<path fill-rule="evenodd" clip-rule="evenodd" d="M127.08 141.571C127.013 141.395 126.943 141.221 126.874 141.055C125.962 138.884 125.022 131.622 124.827 129.089C122.746 130.274 120.333 130.696 117.987 130.286C118.972 133.499 119.742 136.777 120.293 140.098C120.811 140.224 121.284 140.496 121.658 140.883C122.032 141.271 122.293 141.759 122.411 142.291C122.931 145.515 127.08 141.571 127.08 141.571Z" fill="white"/>
<path fill-rule="evenodd" clip-rule="evenodd" d="M128.653 147.055C124.432 148.501 120.082 149.511 115.666 150.071C108.236 151.03 107.11 148.678 107.11 148.678C106.96 149.56 107.143 150.467 107.623 151.214C108.437 152.66 112.969 152.953 117.883 151.615C122.796 150.277 128.278 149.353 128.653 148.67C128.862 148.153 128.861 147.572 128.653 147.055Z" fill="white"/>
<path fill-rule="evenodd" clip-rule="evenodd" d="M120.296 140.098C120.296 140.098 115.66 143.171 113.421 145.012C111.182 146.853 106.443 147.945 107.189 148.876C107.934 149.806 112.519 151.138 119.234 149.514C125.948 147.89 128.653 147.055 128.653 147.055C128.241 145.195 127.716 143.363 127.08 141.571C127.08 141.571 125.18 143.521 123.366 143.54C122.515 143.549 122.302 141.841 121.77 141.032C121.609 140.772 121.393 140.553 121.137 140.391C120.882 140.229 120.594 140.129 120.296 140.098Z" fill="#FFD997"/>
<path fill-rule="evenodd" clip-rule="evenodd" d="M124.827 129.089C124.81 128.881 125.083 118.964 123.827 114.553C120.703 115.153 117.522 115.378 114.347 115.222C114.347 115.222 116.657 125.128 117.989 130.286C120.334 130.754 122.765 130.328 124.827 129.089Z" fill="#FFD997"/>
<path d="M139.703 64.4633C138.445 60.5095 134.884 55.8225 133.746 52.3733C132.53 48.6964 130.336 48.0974 129.262 47.4593C128.326 46.8993 126.906 45.9968 126.637 45.8213C126.609 45.7909 124.38 43.4096 124.38 40.7209C124.38 38.0322 126.676 37.3185 127.863 34.8132C128.982 32.449 129.423 30.6152 128.547 27.7027C127.995 25.8697 124.536 21.9876 120.768 21.3964C118.401 21.0306 116.314 22.0251 114.725 24.2879C113.281 24.22 108.341 24.0695 107.445 25.1115C107.369 25.1966 107.312 25.2987 107.281 25.4097C107.249 25.5208 107.243 25.6379 107.262 25.7519C107.435 26.7464 110.15 27.1754 112.986 27.3525C112.744 27.7392 112.47 28.1045 112.168 28.4445C111.908 28.7078 111.735 29.0476 111.671 29.4168C111.608 29.786 111.659 30.1661 111.816 30.5045C112.049 31.35 112.196 31.4568 111.74 31.7096C110.934 32.1596 109.96 32.8421 109.893 33.5371C109.881 33.6731 109.903 33.8101 109.956 33.9354C110.009 34.0606 110.092 34.1701 110.197 34.2539C110.584 34.5463 110.947 34.8714 111.282 35.2258C111.139 35.328 111.025 35.4676 110.952 35.6301C110.878 35.7925 110.849 35.9721 110.866 36.1502C110.883 36.3284 110.946 36.4986 111.048 36.6435C111.15 36.7884 111.289 36.9027 111.448 36.9746C111.23 37.2413 110.963 37.714 111.159 37.9971C110.428 38.4191 109.469 39.2927 108.93 39.6601C107.296 40.7739 106.469 41.7762 106.402 42.7255C106.438 44.4232 106.565 46.1176 106.782 47.801C106.19 49.1519 100.739 61.7208 101.055 65.872C101.377 70.0731 101.004 71.3523 103.885 72.6642C105.147 73.2383 106.8 72.4716 107.983 71.7548C108.263 73.9122 109.199 78.7794 110.168 81.0937C111.145 83.4384 110.776 87.765 110.776 87.8087C110.804 87.9351 108.904 102.133 110.589 114.774C110.6 114.853 110.634 114.927 110.687 114.986C110.74 115.045 110.809 115.085 110.885 115.102C111.919 115.299 112.965 115.426 114.015 115.482C118.284 133.76 118.322 132.53 119.031 135.624C117.328 136.033 112.135 137.396 112.204 139.189C112.177 139.501 112.212 139.816 112.309 140.113C112.405 140.41 112.561 140.684 112.765 140.917C113.366 141.693 115.554 141.853 117.017 141.864C112.052 145.339 113.449 144.944 109.462 146.73C107.058 147.805 106.794 148.035 106.697 148.812C106.611 149.72 106.82 150.631 107.29 151.405C107.832 152.369 109.582 152.869 111.915 152.869C113.963 152.839 116 152.544 117.976 151.989C123.478 150.49 128.478 149.77 128.979 148.859C129.111 148.557 129.182 148.232 129.188 147.902C129.194 147.572 129.135 147.244 129.013 146.938C128.628 145.201 128.145 143.487 127.569 141.807C128.064 141.714 129.38 141.393 129.448 140.884C129.675 139.097 129.23 137.289 128.202 135.828C126.935 133.982 127.315 133.843 125.202 126.371C125.084 125.95 125.393 119.064 124.266 114.744C124.798 114.635 125.342 114.517 125.895 114.381C125.982 114.36 126.058 114.308 126.111 114.234C126.164 114.161 126.191 114.071 126.185 113.979C126.185 113.946 126.149 113.312 126.1 112.277L128.314 111.185C128.389 111.149 128.449 111.088 128.487 111.012C128.525 110.937 128.538 110.851 128.524 110.767L125.77 94.4426C125.787 92.8669 125.931 91.2953 126.201 89.7439C126.483 89.1199 127.461 86.9593 128.19 85.3314C129.102 83.2941 127.536 80.3878 127.751 79.4557C127.955 78.5681 130.811 75.9925 133.229 74.2827C135.166 72.9084 141.062 68.7385 139.703 64.4633ZM132.363 51.0887C133.385 52.924 132.449 52.3304 135.859 58.3294C136.708 59.8239 137.574 61.3519 138.239 62.8214C134.501 62.6654 131.055 65.0912 129.816 66.0818C129.62 65.4521 129.366 64.8432 129.056 64.2636C132.211 58.3356 132.471 53.4279 132.363 51.0887ZM129.198 66.7612C128.379 68.9178 127.32 70.9697 126.04 72.8756C126.552 70.177 127.421 67.5631 128.624 65.1068C128.879 65.6327 129.071 66.1882 129.196 66.7612H129.198ZM125.626 45.8073C123.525 46.0811 120.998 46.8993 117.246 48.5201C118.561 46.9258 121.099 44.2052 124.01 42.8659C124.386 43.9309 124.931 44.9248 125.623 45.8073H125.626ZM120.656 22.1686C124.203 22.7255 127.376 26.4469 127.825 27.9344C128.631 30.6152 128.242 32.24 127.184 34.4739C127.131 34.587 127.074 34.697 127.015 34.803L117.328 26.8073C116.794 25.9989 116.16 25.2648 115.442 24.6233C116.859 22.6826 118.607 21.8511 120.653 22.1686H120.656ZM121.031 32.6924C123.341 31.9685 123.588 35.53 119.638 36.1337C121.628 35.1361 121.074 33.9926 121.028 32.6924H121.031ZM108.009 25.6412C108.205 25.2636 110.225 25.0218 112.739 25.0218C113.394 25.0218 114.084 25.0398 114.782 25.0741C115.348 25.5488 115.858 26.0891 116.302 26.684C115.367 26.6731 108.431 26.4758 108.006 25.6412H108.009ZM110.655 33.6229C110.64 33.4872 111.053 32.988 112.109 32.3991C113.781 31.4631 111.747 29.9811 112.705 29.003C113.138 28.5046 113.528 27.9686 113.87 27.4008C114.189 27.4149 114.506 27.4274 114.819 27.4367C115.857 27.7573 117.486 28.4905 117.7 29.2011C117.787 29.4897 117.635 29.634 117.143 30.2322C116.015 31.6035 115.279 32.612 116.954 33.7204C117.701 34.2149 118.113 34.7406 118.056 35.1244C117.997 35.5214 117.401 35.9083 116.42 36.1852C116.331 36.2097 116.253 36.2667 116.202 36.3456C116.151 36.4245 116.129 36.5199 116.142 36.6138C116.154 36.7078 116.199 36.794 116.269 36.8562C116.339 36.9184 116.428 36.9525 116.52 36.9519C117.399 36.8683 118.265 36.6742 119.098 36.374C119.064 36.4324 119.046 36.4989 119.046 36.5668C119.045 36.6346 119.062 36.7014 119.095 36.7602C119.128 36.819 119.176 36.8677 119.234 36.9014C119.291 36.9351 119.356 36.9525 119.422 36.9519C120.209 36.8783 120.975 36.6475 121.676 36.2726C121.392 38.3006 121.752 40.3403 123.639 41.0025C123.657 41.3748 123.708 41.7447 123.791 42.1077C120.697 43.4961 118.076 46.2948 116.704 47.9577C116.046 46.3364 115.636 44.6208 115.488 42.8714L117.562 40.9994C117.627 40.9416 117.671 40.8631 117.687 40.7766C117.702 40.69 117.689 40.6006 117.649 40.5228C117.609 40.4449 117.545 40.3833 117.466 40.3479C117.387 40.3125 117.3 40.3054 117.217 40.3278L115.26 40.8465C115.259 40.7681 115.242 40.6906 115.212 40.6187C115.182 40.5468 115.137 40.4818 115.082 40.4276C115.027 40.3733 114.962 40.3309 114.891 40.3028C114.819 40.2747 114.743 40.2614 114.667 40.2638C114.092 40.3026 113.555 40.5708 113.17 41.0111C111.64 40.717 112.48 39.0813 112.492 38.5026C112.492 38.313 112.444 38.1266 112.351 37.9623C112.259 37.7979 112.127 37.6615 111.967 37.5666C112.06 37.4385 112.17 37.3237 112.293 37.2249C112.925 37.2538 113.875 36.9839 113.562 36.4317C113.511 36.3424 113.428 36.2776 113.33 36.2514C113.233 36.2252 113.129 36.2398 113.042 36.2921C112.789 36.4265 112.502 36.4777 112.22 36.4387C111.795 36.3318 111.648 36.1805 111.632 36.1064C111.577 35.8506 112.076 35.7601 112.077 35.2687C112.075 34.6595 111.235 34.1486 110.652 33.6229H110.655ZM116.169 48.6309C115.941 48.9281 115.779 49.1472 115.713 49.2408C111.504 51.4724 111.843 53.4489 109.362 57.0939C109.854 54.321 110.806 49.7814 110.965 49.0388C112.349 47.4983 113.612 45.9235 113.612 44.7816C113.612 43.9033 114.465 43.2442 114.465 42.6101C114.516 42.4602 114.586 42.3176 114.672 42.1857C114.773 44.4111 115.279 46.5973 116.166 48.6309H116.169ZM112.618 41.6647C112.485 41.8489 112.372 42.0477 112.281 42.2575C112.049 42.6022 111.726 42.8726 111.351 43.0375C111.189 42.6693 111.132 42.2617 111.186 41.8616C111.24 41.4615 111.402 41.0851 111.655 40.7755C111.744 40.9852 111.876 41.1729 112.041 41.3263C112.207 41.4796 112.402 41.595 112.615 41.6647H112.618ZM104.199 71.9552C101.786 70.8562 102.142 70.0832 101.818 65.8143C101.506 61.7177 107.464 48.1629 107.524 48.0264C107.552 47.961 107.562 47.8891 107.554 47.8181C107.341 46.1484 107.211 44.4687 107.162 42.7856C107.195 42.3176 107.603 41.5064 109.353 40.3137C110.108 39.6943 110.894 39.1162 111.709 38.5821C111.619 38.923 111.553 39.2699 111.511 39.6203C111.1 40.1485 110.764 40.7335 110.513 41.3582C110.346 42.1579 110.444 42.9918 110.789 43.7286C110.83 43.8199 110.903 43.8917 110.994 43.9289C111.085 43.9661 111.186 43.9658 111.277 43.9283C111.419 43.8705 112.666 43.3378 112.979 42.5531C113.276 41.904 113.786 41.3824 114.419 41.0789C114.343 41.2349 114.219 41.4408 114.134 41.582C113.408 42.798 113.965 42.2458 113.45 43.0952C113.095 43.5859 112.887 44.1717 112.85 44.7816C112.85 45.7956 111.086 47.7518 110.334 48.5872C110.288 48.6382 110.256 48.7009 110.241 48.7689C110.177 49.07 108.699 56.0596 108.374 58.4191C107.813 59.1419 107.144 59.7685 106.391 60.2755C104.699 61.3059 102.807 64.2707 102.727 64.3962C102.698 64.4391 102.678 64.4875 102.668 64.5385C102.658 64.5896 102.657 64.6422 102.667 64.6933C102.677 64.7444 102.697 64.793 102.725 64.8361C102.754 64.8793 102.79 64.9162 102.833 64.9446C102.875 64.973 102.923 64.9923 102.973 65.0015C103.023 65.0107 103.074 65.0095 103.124 64.998C103.173 64.9865 103.22 64.965 103.261 64.9346C103.303 64.9043 103.338 64.8658 103.364 64.8213C104.194 63.522 105.181 62.3362 106.302 61.2926C106.861 62.2793 108.615 64.7979 112.737 66.7269C110.883 68.7026 106.301 72.9084 104.199 71.9552ZM108.699 71.3008C110.429 70.0567 112.032 68.6347 113.482 67.0568C114.753 67.5876 116.065 68.0086 117.404 68.3157C117.489 68.3355 117.578 68.3249 117.656 68.2858C117.734 68.2466 117.796 68.1812 117.833 68.1005L121.239 60.5836C121.263 60.5369 121.277 60.4857 121.281 60.4332C121.285 60.3807 121.278 60.3279 121.262 60.2781C121.245 60.2282 121.219 60.1824 121.185 60.1432C121.15 60.104 121.109 60.0724 121.062 60.0502C121.016 60.028 120.965 60.0157 120.914 60.0141C120.863 60.0124 120.812 60.0215 120.764 60.0406C120.716 60.0598 120.672 60.0887 120.636 60.1255C120.599 60.1624 120.57 60.2065 120.551 60.2552L117.274 67.4843C110.159 65.7363 107.542 61.9151 106.932 60.8433C108.93 59.5267 110.732 56.4106 111.251 55.466C112.381 53.392 112.802 51.2977 117.2 49.382C121.436 47.5373 124.085 46.7012 126.285 46.5155C126.665 46.7597 127.993 47.6028 128.88 48.1332C129.837 48.5578 130.717 49.1448 131.484 49.8695C131.609 50.6955 132.316 56.6306 128.292 64.0803C125.536 69.1815 124.34 75.9738 124.535 81.692C122.929 81.231 118.081 80.6054 111.596 86.8696C111.65 85.3876 111.629 82.6085 110.871 80.7918C109.826 77.7149 109.097 74.5338 108.699 71.3008ZM120.674 133.241L120.006 130.816C120.341 130.816 120.703 130.799 121.082 130.763L121.731 133.103C121.745 133.153 121.768 133.199 121.799 133.239C121.83 133.279 121.868 133.312 121.912 133.337C121.955 133.362 122.003 133.378 122.053 133.384C122.102 133.39 122.153 133.386 122.201 133.372C122.249 133.358 122.294 133.334 122.333 133.302C122.372 133.27 122.404 133.231 122.429 133.186C122.453 133.141 122.468 133.092 122.474 133.041C122.48 132.99 122.476 132.939 122.462 132.89L121.843 130.657C122.216 130.595 122.585 130.509 122.947 130.401L123.319 132.979C123.325 133.031 123.342 133.08 123.367 133.125C123.393 133.169 123.426 133.209 123.467 133.24C123.507 133.271 123.553 133.293 123.602 133.306C123.651 133.319 123.701 133.322 123.751 133.314C123.801 133.306 123.849 133.289 123.892 133.262C123.935 133.235 123.973 133.2 124.003 133.158C124.032 133.116 124.054 133.069 124.065 133.018C124.077 132.968 124.079 132.916 124.07 132.865L123.678 130.143C123.962 130.023 124.238 129.884 124.503 129.727C124.754 132.351 125.558 138.794 126.616 141.438C125.704 142.201 123.395 143.863 123.015 142.722C122.613 141.516 121.875 139.882 120.629 139.775C120.122 136.715 119.411 133.694 118.501 130.733C118.694 130.755 118.931 130.777 119.211 130.794L119.943 133.446C119.955 133.497 119.977 133.544 120.007 133.586C120.038 133.628 120.076 133.663 120.12 133.69C120.164 133.716 120.213 133.733 120.264 133.739C120.314 133.746 120.366 133.742 120.415 133.728C120.464 133.714 120.51 133.69 120.549 133.657C120.589 133.624 120.622 133.584 120.646 133.538C120.67 133.491 120.685 133.441 120.69 133.389C120.695 133.337 120.689 133.284 120.674 133.234V133.241ZM112.962 139.122C113.028 138.336 116.2 137.114 119.205 136.392C119.503 137.771 119.729 139.032 119.842 139.689C117.83 140.02 113.942 140.201 113.078 139.386C113.038 139.356 113.006 139.316 112.986 139.27C112.965 139.223 112.957 139.172 112.962 139.122ZM113.328 140.381C114.792 140.899 117.321 140.759 118.865 140.596C118.643 140.747 118.417 140.901 118.181 141.064C117.357 141.165 113.869 141.119 113.328 140.385V140.381ZM109.77 147.448C111.05 146.93 112.275 146.277 113.423 145.498C114.018 145.779 114.539 146.202 114.943 146.731C115.003 146.814 115.093 146.869 115.193 146.884C115.293 146.898 115.394 146.872 115.475 146.809C115.555 146.747 115.609 146.655 115.623 146.553C115.637 146.45 115.611 146.346 115.551 146.263C115.156 145.735 114.659 145.297 114.091 144.975C114.584 144.585 115.155 144.159 115.749 143.727C116.438 144.082 116.963 144.701 117.212 145.449C117.231 145.497 117.259 145.54 117.295 145.577C117.331 145.613 117.373 145.642 117.42 145.662C117.466 145.681 117.516 145.691 117.567 145.691C117.617 145.69 117.667 145.679 117.713 145.659C117.759 145.639 117.801 145.609 117.836 145.572C117.871 145.535 117.899 145.491 117.917 145.443C117.936 145.395 117.944 145.343 117.943 145.292C117.942 145.24 117.931 145.189 117.91 145.142C117.619 144.366 117.105 143.7 116.436 143.232C116.917 142.888 117.397 142.551 117.853 142.234C118.199 142.282 119.265 142.569 119.399 144.325C119.407 144.429 119.455 144.525 119.532 144.592C119.608 144.659 119.708 144.693 119.809 144.685C119.91 144.677 120.003 144.628 120.069 144.549C120.135 144.47 120.167 144.368 120.159 144.264C120.167 143.733 120.029 143.21 119.761 142.755C119.494 142.3 119.107 141.931 118.645 141.69C119.32 141.228 119.879 140.85 120.201 140.635C120.283 140.588 120.374 140.56 120.467 140.553C120.561 140.546 120.655 140.56 120.742 140.594C121.064 140.704 121.695 141.161 122.301 142.982C122.929 144.872 125.368 143.446 126.907 142.21C126.998 142.467 127.085 142.732 127.17 142.998C125.915 144.374 124.977 146.021 124.424 147.819C123.049 148.177 121.308 148.617 119.152 149.139C112.625 150.718 108.253 149.464 107.515 148.664C108.21 148.156 108.968 147.747 109.77 147.448ZM128.335 148.458C127.845 148.989 122.027 150.083 117.784 151.238C112.963 152.549 108.618 152.204 107.951 151.019C107.69 150.573 107.522 150.076 107.457 149.561C108.436 150.137 110.404 150.674 113.164 150.674C115.239 150.658 117.304 150.396 119.32 149.894C124.621 148.611 127.446 147.814 128.391 147.539C128.475 147.843 128.455 148.167 128.335 148.458ZM125.283 147.587C125.785 146.23 126.513 144.973 127.434 143.872C127.793 145.09 128.07 146.227 128.199 146.783C127.737 146.919 126.79 147.189 125.285 147.587H125.283ZM128.715 140.619C128.267 140.849 127.785 141.001 127.289 141.069C127.165 140.773 127.059 140.47 126.973 140.162C127.585 140.078 128.184 139.909 128.752 139.66C128.758 139.98 128.746 140.3 128.715 140.619ZM127.232 135.715C127.906 136.649 128.39 137.713 128.657 138.843C128.063 139.138 127.425 139.328 126.769 139.403C126.552 138.512 126.337 137.414 126.139 136.244C126.525 136.119 126.894 135.942 127.233 135.716L127.232 135.715ZM126.862 135.019C126.6 135.209 126.313 135.358 126.01 135.464C125.636 133.124 125.341 130.688 125.224 129.294C126.396 133.588 126.218 133.667 126.863 135.02L126.862 135.019ZM124.43 128.864C122.203 130.373 119.001 130.023 118.287 129.92C117.112 125.344 115.243 117.384 114.807 115.526C117.725 115.639 120.646 115.427 123.519 114.892C124.729 119.442 124.307 126.961 124.432 128.865L124.43 128.864ZM125.41 113.7C120.796 114.853 116.009 115.088 111.308 114.393C109.832 102.934 111.308 89.8289 111.524 88.024C119.026 80.3979 124.379 82.4345 124.76 82.5944C125.824 84.7004 125.818 87.7307 125.379 90.0403C124.459 94.888 125.275 111.105 125.412 113.701L125.41 113.7ZM132.796 73.6353C131.048 74.8732 127.329 77.8785 127.009 79.2708C126.714 80.5563 128.294 83.2208 127.496 85.0007C127.162 85.7487 126.775 86.6091 126.426 87.3828C126.546 85.517 126.159 83.6537 125.307 82.0008C125.217 79.6014 125.349 77.1987 125.701 74.8248C128.893 69.9537 129.748 67.5474 129.917 67.0014C130.504 66.4991 134.477 63.2465 138.581 63.6342C138.727 63.9961 138.863 64.3557 138.975 64.7067C140.163 68.4273 134.62 72.3476 132.798 73.6361L132.796 73.6353Z" fill="black"/>
<path fill-rule="evenodd" clip-rule="evenodd" d="M21.1196 4.45227C21.1196 4.45227 13.0742 5.03883 13.0256 10.6595C12.9769 16.2802 13.6222 138.147 13.6222 138.147C13.6222 138.147 13.4572 143.721 22.7528 143.335C22.7916 143.35 21.2617 143.499 19.3389 141.759C18.6463 141.188 18.0752 140.477 17.6608 139.67C17.2465 138.864 16.9976 137.979 16.9297 137.069V10.7851C16.9084 6.73065 17.7444 5.86719 21.1196 4.45227Z" fill="white"/>
<path d="M83.7984 15.5845C83.7308 13.8854 83.0569 12.271 81.905 11.0485C80.7531 9.82601 79.2036 9.08077 77.5512 8.95455C32.8852 4.95081 24.7904 3.90795 22.3486 3.89625C18.6382 3.87753 12.6867 5.88369 12.6456 10.6557C12.5978 16.2156 13.2354 136.931 13.2415 138.135C13.2865 139.404 13.8154 140.604 14.7144 141.477C16.9389 143.739 21.3864 144.026 24.1756 143.681L78.3545 137.002C79.9121 136.792 81.3362 135.99 82.3442 134.753C83.3522 133.516 83.8704 131.936 83.7961 130.326L83.7984 15.5845ZM15.2654 140.931C14.5045 140.207 14.0507 139.206 14.0015 138.142C13.9954 136.923 13.3578 16.214 13.4056 10.6596C13.4322 7.54509 16.1842 6.07557 18.3996 5.39619C18.2985 5.48043 18.1952 5.55999 18.0994 5.65125C16.8925 6.79239 16.5391 8.66361 16.5498 10.7852V137.067C16.5627 139.395 18.3365 141.803 20.2738 142.891C18.0401 142.693 16.3613 142.037 15.2654 140.931Z" fill="black"/>
<path fill-rule="evenodd" clip-rule="evenodd" d="M80.7659 19.2459L20.3003 16.7701V137.392L80.7659 130.294V19.2459Z" fill="white"/>
<path d="M50.5332 13.2843C50.5332 13.8658 50.726 14.4235 51.0692 14.8346C51.4124 15.2458 51.8779 15.4768 52.3633 15.4768C52.8487 15.4768 53.3141 15.2458 53.6573 14.8346C54.0006 14.4235 54.1934 13.8658 54.1934 13.2843C54.1934 12.7027 54.0006 12.1451 53.6573 11.7339C53.3141 11.3227 52.8487 11.0917 52.3633 11.0917C51.8779 11.0917 51.4124 11.3227 51.0692 11.7339C50.726 12.1451 50.5332 12.7027 50.5332 13.2843Z" fill="white"/>
<path fill-rule="evenodd" clip-rule="evenodd" d="M68.1657 49.3163C66.2946 48.7048 62.7553 47.7563 59.9273 46.1027C59.3611 46.988 58.4278 48.2087 57.7347 47.8788C57.0659 47.5629 57.4558 46.584 57.8365 45.9023C57.3927 46.4865 56.7171 47.1136 56.0885 46.8383C55.1765 46.4397 56.2459 44.3103 56.5863 43.6816L56.4199 43.549C56.1205 44.1683 55.0663 46.1807 54.2714 45.6277C53.4491 45.0552 54.529 42.9757 54.8923 42.3306L54.7753 42.237C54.4713 42.9063 53.4916 44.8945 52.5781 44.5583C51.5202 44.1683 53.1375 41.2152 53.2469 41.0171L53.0265 40.8416C52.7179 41.5811 51.7558 43.6715 50.8514 43.3259C49.76 42.9086 51.5149 39.6646 51.5263 39.6443L51.4001 39.5437C51.4001 39.5437 50.2198 42.9086 49.1247 42.4601C48.3692 42.1481 49.1611 39.8175 49.7251 38.4041C48.1359 37.5461 46.7755 37.1304 46.1067 37.6124C44.3032 38.9127 42.9474 43.3064 39.7045 42.7799C36.4615 42.2534 33.6313 39.6599 32.6281 40.3276C31.6492 40.9781 30.7152 46.6674 30.7 50.0136C30.5999 52.0088 30.7064 54.0093 31.0177 55.9814C31.0177 55.9814 37.6563 57.3386 42.0377 56.7856C47.4777 56.0976 51.0193 56.7333 53.0577 56.7801C55.096 56.8269 66.7293 58.0328 72.047 53.0611C71.7377 51.0822 69.8696 49.8732 68.1657 49.3163Z" fill="#81F8F8"/>
<path d="M72.1956 52.1666C71.4059 50.1534 69.1951 49.2408 68.2808 48.9428C67.97 48.8414 67.6135 48.7299 67.2214 48.6082C57.7343 45.6645 59.2581 44.6692 53.3985 40.3176C53.3753 40.2966 53.3498 40.2785 53.3225 40.2638C50.4672 38.1578 47.2372 36.3185 45.8882 37.2904C44.0019 38.6507 42.7342 42.8682 39.7633 42.3916C36.4695 41.8589 33.7084 39.1398 32.421 39.997C31.1624 40.8347 30.3234 47.042 30.3165 50.0091C30.3082 53.9185 30.1425 59.5056 34.0018 59.795C38.0199 60.0953 43.6675 59.9369 49.2915 60.2045C54.8037 60.4673 69.1008 61.2902 71.7297 56.3185C72.1085 55.7078 72.3473 55.0168 72.428 54.2976C72.5087 53.5783 72.4292 52.8497 72.1956 52.1666ZM68.0505 49.6862C69.6101 50.1955 71.2425 51.2516 71.6225 52.9021C69.5705 54.7328 66.5723 55.6586 63.5772 56.1188C63.7729 53.4594 63.7116 50.7865 63.394 48.1394C65.2629 48.8524 66.8991 49.3118 68.0505 49.6885V49.6862ZM61.814 47.4905C62.0739 47.6059 62.3343 47.7167 62.5953 47.8228C62.9454 50.6111 63.0136 53.4292 62.7989 56.2319C62.4189 56.2811 62.0389 56.3263 61.6589 56.3614C61.9708 53.416 62.0226 50.4478 61.814 47.4928V47.4905ZM61.1763 51.3218C59.2095 52.4918 53.2723 51.7633 51.2811 52.7079C49.9719 53.4445 48.9755 54.6536 48.4851 56.1009C48.2571 56.0923 48.023 56.0884 47.7859 56.0837C48.1155 54.9755 48.7279 53.9778 49.5597 53.1942C50.3914 52.4105 51.4121 51.8694 52.5161 51.6268C56.3921 50.8905 59.1281 51.7181 61.1733 50.9014C61.1748 51.0426 61.1756 51.1822 61.1763 51.3242V51.3218ZM61.171 52.197C61.1648 53.613 61.0683 55.027 60.8822 56.4301C57.7001 56.599 54.5104 56.5469 51.3351 56.2741C50.7431 56.2273 50.0545 56.175 49.2899 56.1344C49.7249 54.9775 50.5425 54.0145 51.5996 53.4138C53.2427 52.6385 58.8051 53.1993 61.171 52.1993V52.197ZM61.1505 49.6394C60.4384 49.1659 59.6449 48.6472 58.8097 48.1075C59.3328 47.7172 59.7596 47.2067 60.0561 46.6169C60.3745 46.7939 60.6998 46.9648 61.0297 47.1254C61.0471 47.4086 61.1102 48.3649 61.1505 49.6394ZM58.4738 45.599C58.7702 45.8169 59.0785 46.0249 59.3987 46.223C59.0886 46.7978 58.3826 47.8313 57.8415 47.4835C57.5025 47.2003 58.1949 46.0046 58.4715 45.599H58.4738ZM57.7077 44.982C57.4159 45.6146 56.7729 46.6457 56.2751 46.4843C56.171 46.418 56.1467 46.4164 56.1231 46.347C55.9916 45.9125 56.4271 44.8876 56.8337 44.1763C56.9857 44.3229 57.1453 44.4711 57.2897 44.6146C57.4189 44.7425 57.5663 44.8595 57.7054 44.982H57.7077ZM49.9998 38.9939C50.3175 39.1772 50.6427 39.3722 50.9764 39.5852C50.6389 40.4876 49.9831 41.8331 49.4442 42.0812C48.6789 42.4275 49.4571 40.1382 49.9998 38.9939ZM52.6598 40.7294C52.1551 41.954 51.3792 43.1194 50.9878 42.9602C50.9688 42.9528 50.952 42.9406 50.9387 42.9248C50.9254 42.909 50.9162 42.8901 50.9118 42.8698C50.737 42.383 51.2553 41.0297 51.7364 40.0813C52.0373 40.2903 52.3467 40.5048 52.6575 40.7294H52.6598ZM54.4275 42.0781C53.9715 43.1108 53.1591 44.3596 52.7077 44.1919C52.6888 44.1856 52.6718 44.1744 52.6585 44.1594C52.6451 44.1443 52.6359 44.1259 52.6317 44.1061C52.4591 43.624 53.0117 42.2614 53.5026 41.3542C53.8122 41.5913 54.1197 41.8326 54.4253 42.0781H54.4275ZM56.0456 43.4485C55.6656 44.2231 55.0477 45.2012 54.6213 45.3205C54.5991 45.3292 54.575 45.3321 54.5514 45.3288C54.5277 45.3255 54.5053 45.3163 54.4861 45.3018C54.1243 45.0499 54.5286 43.7792 55.145 42.6638C55.4535 42.9264 55.753 43.188 56.0433 43.4485H56.0456ZM46.3244 37.9285C46.8237 37.5673 47.9455 37.9019 49.3279 38.6234C48.8578 39.5408 48.5423 40.5332 48.3947 41.5586C46.8032 40.575 45.5561 39.8098 44.9747 39.4526C45.349 38.8791 45.8038 38.3655 46.3244 37.9285ZM32.8329 40.6522C33.5169 40.199 36.5622 42.6631 39.644 43.1623C41.9278 43.5234 43.3726 41.6803 44.5232 40.0813C49.9724 43.4165 55.3152 46.6925 60.6679 50.2493C58.8142 50.8445 56.095 50.1542 52.3771 50.8632C48.6386 51.5746 47.3109 55.0448 46.994 56.0806C43.3399 56.0806 42.3276 56.4808 40.0825 56.5182C38.0533 49.7408 32.7903 44.6903 31.7712 43.7597C32.1003 42.1327 32.4939 40.8776 32.8329 40.6522ZM31.6017 44.6638C33.0708 46.0826 37.4583 50.6822 39.2838 56.5198C39.0246 56.5198 38.7639 56.5104 38.5025 56.4995C36.5835 51.0574 32.329 45.9063 31.5462 44.9875C31.5645 44.8775 31.5865 44.7714 31.6017 44.6638ZM31.0758 50.6698C31.0652 49.111 31.1714 47.5537 31.3935 46.0116C32.69 47.6098 36.0105 51.9614 37.6764 56.4574C35.5529 56.3103 33.4392 56.0398 31.3456 55.6469C31.1051 53.9996 31.0148 52.3328 31.0758 50.6682V50.6698ZM71.0609 55.9465C68.5172 60.7583 52.6902 59.5228 47.5951 59.3488C43.3118 59.2037 37.5707 59.2794 34.0573 59.0165C32.6893 58.9144 31.9437 57.877 31.5386 56.4753C33.2661 56.7935 38.4022 57.6367 42.0798 57.1695C50.9718 56.0463 64.3159 59.7022 71.6985 53.8568C71.6376 54.5929 71.4199 55.3062 71.0609 55.9465Z" fill="black"/>
<path d="M27.2909 95.2718C27.1901 95.2745 27.0924 95.2359 27.0193 95.1647C26.9462 95.0935 26.9036 94.9953 26.901 94.8919C26.8984 94.7885 26.9359 94.6882 27.0053 94.6132C27.0747 94.5381 27.1703 94.4945 27.2711 94.4918L65.0971 92.3912C65.1977 92.3855 65.2963 92.4209 65.3714 92.4898C65.4465 92.5587 65.4919 92.6554 65.4976 92.7586C65.5004 92.8098 65.4933 92.8611 65.4767 92.9095C65.4601 92.9579 65.4344 93.0025 65.401 93.0407C65.3676 93.0789 65.3272 93.1099 65.2821 93.1321C65.237 93.1542 65.1881 93.167 65.1381 93.1697L27.2909 95.2718Z" fill="black"/>
<path d="M27.2913 114.906C27.1905 114.909 27.0926 114.871 27.019 114.8C26.9455 114.73 26.9023 114.632 26.8991 114.528C26.8959 114.425 26.9328 114.324 27.0018 114.249C27.0708 114.173 27.1662 114.129 27.267 114.126L65.3164 111.581C65.3664 111.577 65.4169 111.583 65.4647 111.599C65.5124 111.615 65.5565 111.641 65.5943 111.675C65.6321 111.709 65.6628 111.75 65.6845 111.797C65.7062 111.844 65.7185 111.894 65.7207 111.946C65.7239 111.997 65.7172 112.048 65.7011 112.097C65.685 112.145 65.6598 112.19 65.6268 112.228C65.5938 112.267 65.5538 112.298 65.509 112.321C65.4642 112.343 65.4156 112.357 65.3658 112.36L27.2913 114.906Z" fill="black"/>
<path d="M60.0398 80.7231C58.8717 80.7107 53.7318 80.9392 30.4903 81.8206C30.3937 81.8241 30.3021 81.8653 30.234 81.9357C30.166 82.0061 30.1266 82.1005 30.124 82.1997L29.9948 87.0606C29.9934 87.1127 30.0023 87.1645 30.0208 87.213C30.0393 87.2615 30.0671 87.3057 30.1025 87.343C30.1379 87.3803 30.1803 87.4099 30.227 87.4301C30.2738 87.4504 30.324 87.4608 30.3748 87.4608C42.4223 87.1987 42.0742 86.9343 42.1502 86.9546H42.1578C42.1684 86.9546 42.1776 86.9491 42.189 86.9483L60.15 86.1636C60.2489 86.1597 60.3427 86.1171 60.412 86.0446C60.4814 85.9721 60.5211 85.8752 60.5232 85.7736C60.5285 82.7527 60.5437 81.624 60.5232 81.1716C60.5027 80.7192 60.3636 80.727 60.0398 80.7231ZM42.6275 82.1427L47.8312 81.9462L47.7499 85.9242L42.5454 86.1512L42.6275 82.1427ZM41.7846 86.1824L36.5786 86.4101L36.6615 82.3682L41.8667 82.1716L41.7846 86.1824ZM48.592 81.9173L53.7964 81.7208L53.7159 85.6613L48.5114 85.8883L48.592 81.9173ZM30.8741 82.5866L35.9007 82.397L35.8179 86.4429L30.7662 86.6636L30.8741 82.5866ZM59.7624 85.3946L54.4774 85.6286L54.5572 81.6927L59.7624 81.4946V85.3946Z" fill="black"/>
<path d="M33.2289 86.5084C32.9941 86.5084 33.01 86.4577 31.9726 85.2035C31.9402 85.1644 31.9157 85.1192 31.9003 85.0705C31.8849 85.0217 31.8791 84.9703 31.8831 84.9192C31.8911 84.816 31.9388 84.7203 32.0156 84.6532C32.0924 84.586 32.192 84.553 32.2925 84.5612C32.3931 84.5695 32.4863 84.6184 32.5517 84.6972L33.1704 85.4445L34.8424 82.4742C34.8661 82.4276 34.8988 82.3864 34.9385 82.3531C34.9782 82.3198 35.024 82.2951 35.0732 82.2805C35.1224 82.2658 35.174 82.2615 35.2249 82.2679C35.2758 82.2742 35.3249 82.291 35.3693 82.3174C35.4136 82.3437 35.4524 82.379 35.4831 82.421C35.5139 82.4631 35.536 82.5111 35.5482 82.5622C35.5604 82.6133 35.5624 82.6664 35.5541 82.7183C35.5457 82.7702 35.5273 82.8198 35.4998 82.8642L33.5542 86.3126C33.5213 86.3715 33.4739 86.4205 33.4169 86.4548C33.3598 86.4892 33.295 86.5076 33.2289 86.5084Z" fill="black"/>
<path d="M38.6396 104.547C38.6396 105.516 38.9749 106.446 39.5717 107.131C40.1684 107.817 40.9778 108.202 41.8218 108.202C42.6657 108.202 43.4751 107.817 44.0719 107.131C44.6686 106.446 45.0039 105.516 45.0039 104.547C45.0039 103.577 44.6686 102.648 44.0719 101.962C43.4751 101.277 42.6657 100.892 41.8218 100.892C40.9778 100.892 40.1684 101.277 39.5717 101.962C38.9749 102.648 38.6396 103.577 38.6396 104.547Z" fill="#81F8F8"/>
<path d="M30.3047 104.819C30.3047 105.788 30.6399 106.718 31.2367 107.403C31.8335 108.089 32.6429 108.474 33.4868 108.474C34.3308 108.474 35.1401 108.089 35.7369 107.403C36.3337 106.718 36.6689 105.788 36.6689 104.819C36.6689 103.85 36.3337 102.92 35.7369 102.234C35.1401 101.549 34.3308 101.164 33.4868 101.164C32.6429 101.164 31.8335 101.549 31.2367 102.234C30.6399 102.92 30.3047 103.85 30.3047 104.819Z" fill="#FFD997"/>
<path d="M33.4864 108.864C32.5105 108.762 31.6062 108.291 30.9487 107.544C30.2912 106.797 29.9272 105.826 29.9272 104.819C29.9272 103.812 30.2912 102.841 30.9487 102.094C31.6062 101.346 32.5105 100.876 33.4864 100.774C34.4624 100.876 35.3666 101.346 36.0241 102.094C36.6816 102.841 37.0456 103.812 37.0456 104.819C37.0456 105.826 36.6816 106.797 36.0241 107.544C35.3666 108.291 34.4624 108.762 33.4864 108.864ZM33.4864 101.554C32.7125 101.655 32.0011 102.043 31.4855 102.644C30.9699 103.245 30.6855 104.018 30.6855 104.819C30.6855 105.62 30.9699 106.393 31.4855 106.994C32.0011 107.595 32.7125 107.983 33.4864 108.084C34.2604 107.983 34.9717 107.595 35.4873 106.994C36.0029 106.393 36.2873 105.62 36.2873 104.819C36.2873 104.018 36.0029 103.245 35.4873 102.644C34.9717 102.043 34.2604 101.655 33.4864 101.554Z" fill="black"/>
<path d="M41.8224 108.592C41.0258 108.675 40.2234 108.508 39.5209 108.114C38.8184 107.72 38.2488 107.116 37.8871 106.383C37.5255 105.65 37.3888 104.821 37.495 104.007C37.6012 103.192 37.9454 102.43 38.4822 101.82C39.0191 101.211 39.7233 100.782 40.5021 100.591C41.2809 100.401 42.0978 100.456 42.845 100.752C43.5923 101.047 44.2348 101.567 44.688 102.245C45.1412 102.922 45.3838 103.725 45.3837 104.547C45.4303 105.567 45.0821 106.564 44.415 107.322C43.7479 108.08 42.8159 108.536 41.8224 108.592ZM41.8224 101.282C41.1759 101.197 40.5197 101.316 39.9411 101.624C39.3625 101.932 38.8889 102.413 38.5835 103.004C38.278 103.595 38.1552 104.267 38.2313 104.931C38.3074 105.595 38.5788 106.22 39.0095 106.722C39.4402 107.224 40.0096 107.579 40.642 107.741C41.2743 107.902 41.9397 107.862 42.5493 107.626C43.159 107.39 43.6841 106.969 44.0546 106.419C44.4252 105.868 44.6237 105.215 44.6237 104.547C44.6698 103.733 44.4015 102.934 43.877 102.323C43.3525 101.712 42.6142 101.337 41.8224 101.282Z" fill="black"/>
<path d="M58.4905 107.729C57.6941 107.812 56.892 107.645 56.1898 107.25C55.4877 106.856 54.9184 106.253 54.557 105.52C54.1956 104.787 54.0591 103.958 54.1655 103.144C54.2718 102.33 54.616 101.568 55.1527 100.958C55.6895 100.349 56.3935 99.9206 57.1721 99.7299C57.9507 99.5392 58.7673 99.5951 59.5143 99.8902C60.2613 100.185 60.9037 100.706 61.3568 101.383C61.81 102.06 62.0525 102.862 62.0526 103.684C62.0994 104.704 61.7512 105.702 61.0838 106.46C60.4165 107.218 59.4843 107.674 58.4905 107.729ZM58.4905 100.42C57.8442 100.335 57.1883 100.455 56.61 100.763C56.0317 101.071 55.5584 101.552 55.2533 102.143C54.9481 102.733 54.8255 103.405 54.9018 104.069C54.9781 104.733 55.2496 105.358 55.6803 105.86C56.1109 106.361 56.6802 106.716 57.3124 106.878C57.9446 107.039 58.6097 106.999 59.2192 106.763C59.8286 106.526 60.3535 106.105 60.7239 105.555C61.0943 105.005 61.2927 104.352 61.2926 103.684C61.3387 102.871 61.0703 102.072 60.5456 101.46C60.0209 100.849 59.2824 100.475 58.4905 100.42Z" fill="black"/>
<path d="M65.687 120.933L62.7625 119.223C62.7192 119.198 62.6713 119.181 62.6217 119.174C62.5721 119.168 62.5217 119.171 62.4734 119.185C62.4251 119.198 62.3798 119.221 62.3401 119.252C62.3005 119.284 62.2673 119.323 62.2423 119.367C62.2174 119.412 62.2012 119.461 62.1947 119.512C62.1883 119.563 62.1916 119.614 62.2047 119.664C62.2177 119.713 62.2401 119.76 62.2706 119.801C62.3011 119.841 62.3392 119.875 62.3825 119.901L64.2346 120.984L59.7506 121.347V117.266C59.7473 117.161 59.704 117.061 59.63 116.988C59.556 116.916 59.4572 116.875 59.3547 116.876C59.3057 116.877 59.2574 116.887 59.2125 116.907C59.1676 116.927 59.127 116.956 59.0932 116.993C59.0593 117.029 59.0329 117.072 59.0154 117.119C58.9979 117.166 58.9898 117.216 58.9914 117.266V121.4L53.5787 121.84V119.738C53.5769 119.634 53.5351 119.534 53.4625 119.461C53.3898 119.388 53.292 119.348 53.1903 119.348C53.141 119.348 53.0922 119.359 53.0468 119.379C53.0013 119.398 52.9602 119.427 52.9257 119.464C52.8912 119.5 52.8641 119.543 52.8459 119.59C52.8276 119.637 52.8186 119.687 52.8194 119.738V121.904L47.7335 122.317V118.495C47.7252 118.391 47.6801 118.294 47.6067 118.222C47.5333 118.15 47.4367 118.108 47.3353 118.105C47.2865 118.105 47.2383 118.116 47.1935 118.136C47.1488 118.156 47.1084 118.185 47.0747 118.222C47.0411 118.258 47.0148 118.301 46.9974 118.348C46.98 118.395 46.9719 118.445 46.9735 118.495V122.372L41.5638 122.812V120.36C41.5617 120.255 41.5196 120.156 41.4466 120.083C41.3737 120.01 41.2758 119.969 41.174 119.97C41.1246 119.97 41.0758 119.98 41.0304 120C40.985 120.02 40.9438 120.049 40.9094 120.085C40.875 120.121 40.8479 120.164 40.8298 120.211C40.8116 120.259 40.8028 120.309 40.8038 120.36V122.867L35.3843 123.307V119.719C35.3811 119.614 35.3381 119.515 35.2644 119.442C35.1907 119.369 35.0922 119.329 34.9898 119.329C34.9408 119.33 34.8923 119.34 34.8473 119.36C34.8023 119.38 34.7616 119.409 34.7275 119.446C34.6935 119.482 34.6669 119.525 34.6492 119.572C34.6314 119.619 34.623 119.669 34.6243 119.719V123.363L28.4166 123.869L29.9244 122.835C30.0083 122.777 30.0665 122.688 30.0861 122.586C30.1058 122.485 30.0854 122.379 30.0293 122.293C29.9733 122.207 29.8862 122.147 29.7873 122.127C29.6884 122.107 29.5857 122.128 29.5019 122.186L26.7712 124.058C26.7157 124.096 26.6709 124.148 26.6414 124.21C26.612 124.271 26.5989 124.34 26.6034 124.408C26.608 124.477 26.63 124.543 26.6674 124.6C26.7047 124.656 26.756 124.702 26.816 124.732C29.8994 126.269 29.6805 126.18 29.8036 126.18C29.8895 126.18 29.9728 126.15 30.04 126.095C30.1073 126.04 30.1544 125.964 30.1738 125.878C30.1932 125.792 30.1837 125.702 30.1468 125.623C30.11 125.543 30.0479 125.479 29.9708 125.44L28.3946 124.678L34.6646 124.17V128.156C34.6677 128.262 34.711 128.362 34.785 128.434C34.859 128.507 34.9579 128.548 35.0605 128.546C35.1095 128.546 35.1579 128.535 35.2029 128.515C35.2478 128.495 35.2884 128.466 35.3223 128.43C35.3562 128.394 35.3827 128.351 35.4003 128.304C35.4178 128.257 35.4261 128.207 35.4246 128.156V124.115L40.8342 123.674V126.326C40.8364 126.43 40.8786 126.53 40.9517 126.603C41.0248 126.676 41.1229 126.716 41.2249 126.716C41.2741 126.715 41.3228 126.705 41.3681 126.685C41.4134 126.665 41.4544 126.636 41.4887 126.6C41.5231 126.564 41.5501 126.521 41.5682 126.474C41.5863 126.427 41.5952 126.376 41.5942 126.326V123.618L47.0138 123.179V126.933C47.017 127.038 47.0601 127.137 47.134 127.21C47.2078 127.283 47.3065 127.324 47.409 127.323C47.458 127.322 47.5065 127.311 47.5514 127.291C47.5964 127.271 47.6371 127.242 47.671 127.206C47.705 127.17 47.7316 127.127 47.7492 127.08C47.7669 127.033 47.7752 126.983 47.7738 126.933V123.123L52.8491 122.711V125.703C52.8517 125.808 52.8942 125.908 52.9675 125.981C53.0409 126.054 53.1391 126.094 53.2412 126.093C53.2905 126.093 53.3391 126.083 53.3844 126.063C53.4296 126.043 53.4706 126.014 53.5048 125.977C53.539 125.941 53.5659 125.898 53.5838 125.851C53.6017 125.804 53.6103 125.754 53.6091 125.703V122.655L59.0309 122.215V125.709C59.0339 125.814 59.0769 125.914 59.1506 125.986C59.2243 126.059 59.323 126.1 59.4254 126.099C59.4745 126.098 59.523 126.088 59.568 126.068C59.6131 126.048 59.6539 126.019 59.6879 125.983C59.7219 125.946 59.7486 125.903 59.7663 125.856C59.784 125.809 59.7923 125.759 59.7909 125.709V122.158L63.8554 121.828L62.2594 122.774C62.1767 122.828 62.1175 122.912 62.0942 123.01C62.0709 123.108 62.0852 123.211 62.1343 123.298C62.1833 123.385 62.2633 123.449 62.3574 123.477C62.4515 123.505 62.5526 123.495 62.6394 123.448L65.69 121.64C65.7556 121.609 65.811 121.559 65.8497 121.496C65.8884 121.433 65.9088 121.36 65.9085 121.286C65.9082 121.211 65.8872 121.139 65.8479 121.076C65.8087 121.014 65.7528 120.964 65.687 120.933Z" fill="black"/>
<path d="M24.3855 71.4223C24.3163 32.4543 24.3292 26.5169 24.3771 25.6184C24.3923 25.3454 24.4227 25.3742 24.8567 25.3711C26.6123 25.361 35.1881 25.6332 76.3581 26.8383C76.457 26.8411 76.551 26.8835 76.6199 26.9563C76.6889 27.0292 76.7275 27.1267 76.7274 27.2283V70.7047C76.7275 70.8069 76.6884 70.9051 76.6186 70.978C76.5488 71.051 76.4539 71.0929 76.3543 71.0947C34.3263 71.8833 26.3736 72.0767 24.9023 72.0494C24.3452 72.0393 24.3862 71.6423 24.3855 71.4223ZM25.1455 26.1371V71.2928L75.9705 70.3217V27.6074L25.1455 26.1371Z" fill="black"/>
<path d="M50.1573 100.089C49.3608 100.006 48.5586 100.173 47.8564 100.567C47.1541 100.961 46.5847 101.565 46.2232 102.298C45.8617 103.031 45.7252 103.859 45.8315 104.673C45.9378 105.488 46.282 106.25 46.8187 106.859C47.3555 107.469 48.0596 107.897 48.8382 108.088C49.6169 108.279 50.4335 108.223 51.1806 107.927C51.9277 107.632 52.5701 107.112 53.0231 106.434C53.4762 105.757 53.7187 104.955 53.7186 104.133C53.7652 103.113 53.417 102.116 52.7498 101.358C52.0827 100.6 51.1508 100.144 50.1573 100.089ZM52.3704 102.155L47.6455 105.554C47.5007 105.202 47.4119 104.828 47.3825 104.448L51.6089 101.356C51.9085 101.572 52.1667 101.843 52.3704 102.155ZM50.823 100.973L47.4144 103.469C47.4575 103.065 47.5831 102.676 47.7829 102.326C47.9828 101.976 48.2525 101.673 48.5743 101.437C48.8961 101.202 49.2627 101.039 49.6503 100.958C50.0378 100.878 50.4374 100.883 50.823 100.973ZM48.0277 106.231L52.7306 102.848C52.8403 103.159 52.9078 103.484 52.9313 103.814C52.8416 103.876 53.1843 103.606 48.8881 107.028C48.552 106.824 48.2594 106.554 48.0277 106.231ZM49.7271 107.348L52.8918 104.827C52.8457 105.206 52.7273 105.572 52.5433 105.904C52.3592 106.236 52.1131 106.527 51.8191 106.762C51.5251 106.996 51.189 107.168 50.83 107.269C50.471 107.369 50.0962 107.396 49.7271 107.348Z" fill="black"/>
</svg>
