<svg width="300" height="286" viewBox="0 0 300 286" fill="none" xmlns="http://www.w3.org/2000/svg">
<path d="M98.5291 142.662H200.219C201.813 142.662 203.106 143.955 203.106 145.55V278.912C203.106 281.003 200.952 282.401 199.043 281.549L151.727 260.434C150.23 259.765 148.518 259.765 147.02 260.434L99.7058 281.549C97.796 282.401 95.6414 281.004 95.6414 278.912V145.55C95.6414 143.955 96.9344 142.662 98.5291 142.662Z" fill="url(#paint0_linear_6_2979)" stroke="url(#paint1_linear_6_2979)" stroke-width="2.88738"/>
<g clip-path="url(#clip0_6_2979)">
<path d="M82.7671 116.401L18.4749 79.2817C18.2721 79.1646 18.0129 79.2341 17.8958 79.4368C8.26175 96.1235 13.979 117.461 30.6657 127.095L65.1111 146.982L82.7671 116.401Z" fill="#22323A"/>
<path d="M90.4705 161.838L25.8112 124.507C16.06 141.397 21.8468 162.993 38.7362 172.744L72.8145 192.419L90.4705 161.838Z" fill="#22323A"/>
</g>
<g clip-path="url(#clip1_6_2979)">
<path d="M82.7671 101.964L18.1078 64.6328C8.35665 81.5222 14.1434 103.119 31.0329 112.87L65.1111 132.545L82.7671 101.964Z" fill="url(#paint2_linear_6_2979)"/>
<path d="M82.7671 101.964L18.1078 64.6328C8.35665 81.5222 14.1434 103.119 31.0329 112.87L65.1111 132.545L82.7671 101.964Z" fill="#E8F7FF" style="mix-blend-mode:color"/>
<path d="M90.4705 147.401L25.8112 110.07C16.06 126.96 21.8468 148.556 38.7362 158.307L72.8145 177.983L90.4705 147.401Z" fill="url(#paint3_linear_6_2979)"/>
<path d="M90.4705 147.401L25.8112 110.07C16.06 126.96 21.8468 148.556 38.7362 158.307L72.8145 177.983L90.4705 147.401Z" fill="#E8F7FF" style="mix-blend-mode:color"/>
</g>
<g clip-path="url(#clip2_6_2979)">
<path d="M216.928 116.401L281.221 79.2817C281.423 79.1646 281.683 79.2341 281.8 79.4368C291.434 96.1235 285.717 117.461 269.03 127.095L234.584 146.982L216.928 116.401Z" fill="#22323A"/>
<path d="M209.225 161.838L273.884 124.507C283.636 141.397 277.849 162.993 260.959 172.744L226.881 192.419L209.225 161.838Z" fill="#22323A"/>
</g>
<g clip-path="url(#clip3_6_2979)">
<path d="M216.928 101.964L281.588 64.6328C291.339 81.5222 285.552 103.119 268.662 112.87L234.584 132.545L216.928 101.964Z" fill="url(#paint4_linear_6_2979)"/>
<path d="M216.928 101.964L281.588 64.6328C291.339 81.5222 285.552 103.119 268.662 112.87L234.584 132.545L216.928 101.964Z" fill="#E8F7FF" style="mix-blend-mode:color"/>
<path d="M209.225 147.401L273.884 110.07C283.636 126.96 277.849 148.556 260.959 158.307L226.881 177.983L209.225 147.401Z" fill="url(#paint5_linear_6_2979)"/>
<path d="M209.225 147.401L273.884 110.07C283.636 126.96 277.849 148.556 260.959 158.307L226.881 177.983L209.225 147.401Z" fill="#E8F7FF" style="mix-blend-mode:color"/>
</g>
<g filter="url(#filter0_d_6_2979)">
<path d="M138.298 35.5171C145.445 31.3909 154.251 31.3909 161.397 35.5171L234.349 77.6357C241.496 81.7619 245.898 89.3875 245.898 97.64V181.877C245.898 190.13 241.496 197.755 234.349 201.881L161.397 244C154.25 248.126 145.445 248.126 138.298 244L65.3469 201.881C58.2 197.755 53.7974 190.13 53.7974 181.877V97.64C53.7974 89.3875 58.2 81.7619 65.3469 77.6357L138.298 35.5171Z" fill="black" style="mix-blend-mode:multiply" shape-rendering="crispEdges"/>
</g>
<path d="M138.298 35.5171C145.445 31.3909 154.251 31.3909 161.397 35.5171L234.349 77.6357C241.496 81.7619 245.898 89.3875 245.898 97.64V181.877C245.898 190.13 241.496 197.755 234.349 201.881L161.397 244C154.25 248.126 145.445 248.126 138.298 244L65.3469 201.881C58.2 197.755 53.7974 190.13 53.7974 181.877V97.64C53.7974 89.3875 58.2 81.7619 65.3469 77.6357L138.298 35.5171Z" fill="#0C3855"/>
<g style="mix-blend-mode:color">
<path d="M138.298 35.5171C145.445 31.3909 154.251 31.3909 161.397 35.5171L234.349 77.6357C241.496 81.7619 245.898 89.3875 245.898 97.64V181.877C245.898 190.13 241.496 197.755 234.349 201.881L161.397 244C154.25 248.126 145.445 248.126 138.298 244L65.3469 201.881C58.2 197.755 53.7974 190.13 53.7974 181.877V97.64C53.7974 89.3875 58.2 81.7619 65.3469 77.6357L138.298 35.5171Z" fill="#E8F7FF"/>
</g>
<path d="M138.298 21.0802C145.445 16.954 154.251 16.954 161.397 21.0802L234.349 63.1988C241.496 67.325 245.898 74.9506 245.898 83.2031V167.44C245.898 175.693 241.496 183.318 234.349 187.445L161.397 229.563C154.25 233.689 145.445 233.689 138.298 229.563L65.3469 187.445C58.2 183.318 53.7974 175.693 53.7974 167.44V83.2031C53.7974 74.9506 58.2 67.325 65.3469 63.1988L138.298 21.0802Z" fill="url(#paint6_radial_6_2979)"/>
<path d="M138.298 21.0802C145.445 16.954 154.251 16.954 161.397 21.0802L234.349 63.1988C241.496 67.325 245.898 74.9506 245.898 83.2031V167.44C245.898 175.693 241.496 183.318 234.349 187.445L161.397 229.563C154.25 233.689 145.445 233.689 138.298 229.563L65.3469 187.445C58.2 183.318 53.7974 175.693 53.7974 167.44V83.2031C53.7974 74.9506 58.2 67.325 65.3469 63.1988L138.298 21.0802Z" fill="white" fill-opacity="0.1" style="mix-blend-mode:color-dodge"/>
<path d="M142.629 42.8042C147.096 40.2253 152.6 40.2253 157.067 42.8042L217.701 77.811C222.168 80.3899 224.92 85.1562 224.92 90.314V160.33C224.92 165.487 222.168 170.253 217.701 172.832L157.067 207.839C152.6 210.418 147.096 210.418 142.629 207.839L81.9944 172.832C77.5278 170.253 74.7757 165.487 74.7756 160.33V90.314C74.7757 85.1562 77.5276 80.3899 81.9944 77.811L142.629 42.8042Z" fill="url(#paint7_radial_6_2979)"/>
<path d="M142.629 42.8042C147.096 40.2253 152.6 40.2253 157.067 42.8042L217.701 77.811C222.168 80.3899 224.92 85.1562 224.92 90.314V160.33C224.92 165.487 222.168 170.253 217.701 172.832L157.067 207.839C152.6 210.418 147.096 210.418 142.629 207.839L81.9944 172.832C77.5278 170.253 74.7757 165.487 74.7756 160.33V90.314C74.7757 85.1562 77.5276 80.3899 81.9944 77.811L142.629 42.8042Z" fill="url(#paint8_linear_6_2979)" fill-opacity="0.2" style="mix-blend-mode:multiply"/>
<path d="M142.629 42.8042C147.096 40.2253 152.6 40.2253 157.067 42.8042L217.701 77.811C222.168 80.3899 224.92 85.1562 224.92 90.314V160.33C224.92 165.487 222.168 170.253 217.701 172.832L157.067 207.839C152.6 210.418 147.096 210.418 142.629 207.839L81.9944 172.832C77.5278 170.253 74.7757 165.487 74.7756 160.33V90.314C74.7757 85.1562 77.5276 80.3899 81.9944 77.811L142.629 42.8042Z" stroke="url(#paint9_linear_6_2979)" stroke-width="5.77476"/>
<path d="M144.863 96.5876C146.864 92.3957 152.831 92.3957 154.832 96.5876L161.315 110.176C161.7 110.981 162.465 111.536 163.35 111.653L178.275 113.621C182.881 114.228 184.725 119.903 181.356 123.101L170.438 133.467C169.79 134.081 169.498 134.981 169.66 135.858L172.401 150.662C173.247 155.229 168.419 158.737 164.337 156.521L151.104 149.34C150.321 148.914 149.375 148.914 148.591 149.34L135.358 156.521C131.276 158.737 126.449 155.229 127.294 150.662L130.035 135.858C130.198 134.981 129.905 134.081 129.258 133.467L118.339 123.101C114.97 119.903 116.815 114.228 121.42 113.621L136.346 111.653C137.23 111.536 137.996 110.981 138.38 110.176L144.863 96.5876Z" fill="url(#paint10_linear_6_2979)" stroke="url(#paint11_linear_6_2979)" stroke-width="2.88738"/>
<circle cx="131.657" cy="120.053" r="2.65958" fill="#FDFBCD"/>
<path d="M139.067 118.216C142.559 116.611 144.237 115.041 145.862 111.088" stroke="#FEFDCF" stroke-width="3.68489" stroke-linecap="round"/>
<g style="mix-blend-mode:color">
<path d="M138.298 21.0802C145.445 16.954 154.251 16.954 161.397 21.0802L234.349 63.1988C241.496 67.325 245.898 74.9506 245.898 83.2031V167.44C245.898 175.693 241.496 183.318 234.349 187.445L161.397 229.563C154.25 233.689 145.445 233.689 138.298 229.563L65.3469 187.445C58.2 183.318 53.7974 175.693 53.7974 167.44V83.2031C53.7974 74.9506 58.2 67.325 65.3469 63.1988L138.298 21.0802Z" fill="#E8F7FF"/>
</g>
<path d="M192.748 189.763C194.192 187.476 199.246 186.157 202.654 185.604C203.548 185.459 204.358 186.119 204.182 187.008C203.648 189.712 201.415 193.016 199.514 195.46C197.211 198.422 190.624 193.126 192.748 189.763Z" fill="#23343C"/>
<path d="M204.101 187.364C203.453 189.997 201.332 193.123 199.514 195.46C197.254 198.366 190.868 193.322 192.637 189.954C192.277 193.222 197.746 197.158 199.802 194.514C201.407 192.452 203.245 189.774 204.101 187.364Z" fill="white"/>
<path d="M212.047 190.726C211.808 191.945 207.509 193.566 204.765 193.256C202.129 192.114 206.099 187.668 207.523 187.423C208.946 187.177 212.346 189.203 212.047 190.726Z" fill="#23343C"/>
<path d="M210.841 188.714C211.623 189.333 212.173 190.075 212.045 190.727C211.805 191.945 207.507 193.565 204.763 193.255C204.539 193.158 204.363 193.037 204.228 192.897C204.317 192.956 204.417 193.011 204.529 193.06C207.273 193.37 211.57 191.749 211.81 190.531C211.925 189.947 211.494 189.29 210.841 188.714Z" fill="white"/>
<path d="M180.293 37.1419C178.958 39.6851 181.207 46.9159 184.95 52.9997C186.121 54.9025 187.991 56.2478 190.105 56.9711C196.241 59.0708 200.886 60.2321 205.78 60.1278C210.393 60.0293 212.584 56.0148 209.292 52.7801C202.064 45.6759 187.162 36.2917 181.92 36.2814C181.261 36.2801 180.6 36.5585 180.293 37.1419Z" fill="white"/>
<g style="mix-blend-mode:soft-light" opacity="0.2" filter="url(#filter1_f_6_2979)">
<path d="M138.719 20.8459C145.789 16.9578 154.389 17.0346 161.397 21.0803L192.001 38.7493C194.595 51.6388 195.074 64.5918 193.288 76.9006C189.61 102.246 176.633 122.784 157.211 133.997C137.79 145.21 113.515 146.179 89.7261 136.692C76.7751 131.526 64.5468 123.491 53.7974 113.268V83.2034C53.7974 75.1095 58.0336 67.6205 64.939 63.4426L138.719 20.8459Z" fill="url(#paint12_linear_6_2979)"/>
</g>
<defs>
<filter id="filter0_d_6_2979" x="42.2478" y="32.4225" width="215.2" height="237.771" filterUnits="userSpaceOnUse" color-interpolation-filters="sRGB">
<feFlood flood-opacity="0" result="BackgroundImageFix"/>
<feColorMatrix in="SourceAlpha" type="matrix" values="0 0 0 0 0 0 0 0 0 0 0 0 0 0 0 0 0 0 127 0" result="hardAlpha"/>
<feOffset dy="11.5495"/>
<feGaussianBlur stdDeviation="5.77476"/>
<feComposite in2="hardAlpha" operator="out"/>
<feColorMatrix type="matrix" values="0 0 0 0 0 0 0 0 0 0 0 0 0 0 0 0 0 0 0.25 0"/>
<feBlend mode="normal" in2="BackgroundImageFix" result="effect1_dropShadow_6_2979"/>
<feBlend mode="normal" in="SourceGraphic" in2="effect1_dropShadow_6_2979" result="shape"/>
</filter>
<filter id="filter1_f_6_2979" x="36.4731" y="0.662539" width="175.204" height="159.83" filterUnits="userSpaceOnUse" color-interpolation-filters="sRGB">
<feFlood flood-opacity="0" result="BackgroundImageFix"/>
<feBlend mode="normal" in="SourceGraphic" in2="BackgroundImageFix" result="shape"/>
<feGaussianBlur stdDeviation="8.66214" result="effect1_foregroundBlur_6_2979"/>
</filter>
<linearGradient id="paint0_linear_6_2979" x1="149.374" y1="207.608" x2="149.374" y2="285.588" gradientUnits="userSpaceOnUse">
<stop stop-color="#7B1012"/>
<stop offset="1" stop-color="#EA1140"/>
</linearGradient>
<linearGradient id="paint1_linear_6_2979" x1="149.374" y1="191.174" x2="149.374" y2="285.588" gradientUnits="userSpaceOnUse">
<stop stop-color="#E67D2D"/>
<stop offset="1" stop-color="#FCDC60"/>
</linearGradient>
<linearGradient id="paint2_linear_6_2979" x1="73.9391" y1="117.254" x2="9.2798" y2="79.9233" gradientUnits="userSpaceOnUse">
<stop stop-color="#22323A"/>
<stop offset="1" stop-color="#AFBFC7"/>
</linearGradient>
<linearGradient id="paint3_linear_6_2979" x1="81.6425" y1="162.692" x2="16.9832" y2="125.361" gradientUnits="userSpaceOnUse">
<stop stop-color="#22323A"/>
<stop offset="1" stop-color="#AFBFC7"/>
</linearGradient>
<linearGradient id="paint4_linear_6_2979" x1="225.756" y1="117.254" x2="290.416" y2="79.9233" gradientUnits="userSpaceOnUse">
<stop stop-color="#22323A"/>
<stop offset="1" stop-color="#AFBFC7"/>
</linearGradient>
<linearGradient id="paint5_linear_6_2979" x1="218.053" y1="162.692" x2="282.712" y2="125.361" gradientUnits="userSpaceOnUse">
<stop stop-color="#22323A"/>
<stop offset="1" stop-color="#AFBFC7"/>
</linearGradient>
<radialGradient id="paint6_radial_6_2979" cx="0" cy="0" r="1" gradientUnits="userSpaceOnUse" gradientTransform="translate(149.848 14.4121) rotate(90) scale(221.819 192.101)">
<stop stop-color="#95CCEA"/>
<stop offset="1" stop-color="#104D7D"/>
</radialGradient>
<radialGradient id="paint7_radial_6_2979" cx="0" cy="0" r="1" gradientUnits="userSpaceOnUse" gradientTransform="translate(149.848 41.9702) rotate(90) scale(166.703 144.369)">
<stop stop-color="#95CCEA"/>
<stop offset="1" stop-color="#104D7D"/>
</radialGradient>
<linearGradient id="paint8_linear_6_2979" x1="149.848" y1="41.9702" x2="149.848" y2="208.673" gradientUnits="userSpaceOnUse">
<stop stop-opacity="0"/>
<stop offset="1"/>
</linearGradient>
<linearGradient id="paint9_linear_6_2979" x1="99.4892" y1="41.9702" x2="198.587" y2="208.673" gradientUnits="userSpaceOnUse">
<stop stop-color="#0C3855"/>
<stop offset="1" stop-color="#90DDFF"/>
</linearGradient>
<linearGradient id="paint10_linear_6_2979" x1="129.456" y1="102.671" x2="152.544" y2="149.746" gradientUnits="userSpaceOnUse">
<stop stop-color="#FFE49B"/>
<stop offset="1" stop-color="#99895D"/>
</linearGradient>
<linearGradient id="paint11_linear_6_2979" x1="154.828" y1="184.098" x2="110.513" y2="94.8875" gradientUnits="userSpaceOnUse">
<stop stop-color="#63141C"/>
<stop offset="1" stop-color="#F98B96"/>
</linearGradient>
<linearGradient id="paint12_linear_6_2979" x1="157.211" y1="133.997" x2="103.593" y2="41.1274" gradientUnits="userSpaceOnUse">
<stop stop-color="white"/>
<stop offset="1" stop-color="white" stop-opacity="0.2"/>
</linearGradient>
<clipPath id="clip0_6_2979">
<rect width="53.5184" height="102.755" fill="white" transform="matrix(-1 0 0 1 53.7974 78.9404)"/>
</clipPath>
<clipPath id="clip1_6_2979">
<rect width="53.5184" height="102.755" fill="white" transform="matrix(-1 0 0 1 53.7974 64.5035)"/>
</clipPath>
<clipPath id="clip2_6_2979">
<rect width="53.5184" height="102.755" fill="white" transform="translate(245.898 78.9404)"/>
</clipPath>
<clipPath id="clip3_6_2979">
<rect width="53.5184" height="102.755" fill="white" transform="translate(245.898 64.5035)"/>
</clipPath>
</defs>
</svg>
