<svg width="222" height="286" viewBox="0 0 222 286" fill="none" xmlns="http://www.w3.org/2000/svg">
<path d="M53.5205 117.746H174.705C180.286 117.746 184.811 122.271 184.811 127.852V232.659C184.811 236.075 183.085 239.259 180.224 241.125L119.632 280.624C116.278 282.81 111.948 282.81 108.594 280.624L48.001 241.125C45.1397 239.259 43.4141 236.075 43.4141 232.659V127.852C43.4141 122.271 47.9392 117.746 53.5205 117.746Z" fill="url(#paint0_linear_6_2946)" stroke="url(#paint1_linear_6_2946)" stroke-width="2.88738"/>
<g filter="url(#filter0_d_6_2946)">
<path d="M102.679 35.1599C109.826 31.0337 118.631 31.0337 125.778 35.1599L198.73 77.2785C205.877 81.4047 210.279 89.0303 210.279 97.2828V181.52C210.279 189.772 205.877 197.398 198.73 201.524L125.778 243.643C118.631 247.769 109.826 247.769 102.679 243.643L29.7277 201.524C22.5809 197.398 18.1782 189.772 18.1782 181.52V97.2828C18.1782 89.0303 22.5809 81.4047 29.7277 77.2785L102.679 35.1599Z" fill="black" style="mix-blend-mode:multiply" shape-rendering="crispEdges"/>
</g>
<path d="M102.679 35.1599C109.826 31.0337 118.631 31.0337 125.778 35.1599L198.73 77.2785C205.877 81.4047 210.279 89.0303 210.279 97.2828V181.52C210.279 189.772 205.877 197.398 198.73 201.524L125.778 243.643C118.631 247.769 109.826 247.769 102.679 243.643L29.7277 201.524C22.5809 197.398 18.1782 189.772 18.1782 181.52V97.2828C18.1782 89.0303 22.5809 81.4047 29.7277 77.2785L102.679 35.1599Z" fill="#0C3855"/>
<g style="mix-blend-mode:color">
<path d="M102.679 35.1599C109.826 31.0337 118.631 31.0337 125.778 35.1599L198.73 77.2785C205.877 81.4047 210.279 89.0303 210.279 97.2828V181.52C210.279 189.772 205.877 197.398 198.73 201.524L125.778 243.643C118.631 247.769 109.826 247.769 102.679 243.643L29.7277 201.524C22.5809 197.398 18.1782 189.772 18.1782 181.52V97.2828C18.1782 89.0303 22.5809 81.4047 29.7277 77.2785L102.679 35.1599Z" fill="#E8F7FF"/>
</g>
<path d="M102.679 20.723C109.826 16.5968 118.631 16.5968 125.778 20.723L198.73 62.8416C205.877 66.9678 210.279 74.5935 210.279 82.8459V167.083C210.279 175.336 205.877 182.961 198.73 187.087L125.778 229.206C118.631 233.332 109.826 233.332 102.679 229.206L29.7277 187.087C22.5809 182.961 18.1782 175.336 18.1782 167.083V82.8459C18.1782 74.5934 22.5809 66.9678 29.7277 62.8416L102.679 20.723Z" fill="url(#paint2_radial_6_2946)"/>
<path d="M102.679 20.723C109.826 16.5968 118.631 16.5968 125.778 20.723L198.73 62.8416C205.877 66.9678 210.279 74.5935 210.279 82.8459V167.083C210.279 175.336 205.877 182.961 198.73 187.087L125.778 229.206C118.631 233.332 109.826 233.332 102.679 229.206L29.7277 187.087C22.5809 182.961 18.1782 175.336 18.1782 167.083V82.8459C18.1782 74.5934 22.5809 66.9678 29.7277 62.8416L102.679 20.723Z" fill="white" fill-opacity="0.1" style="mix-blend-mode:color-dodge"/>
<path d="M107.01 42.447C111.477 39.8681 116.981 39.8681 121.448 42.447L182.082 77.4539C186.549 80.0327 189.301 84.799 189.301 89.9568V159.972C189.301 165.13 186.549 169.895 182.082 172.474L121.448 207.482C116.981 210.061 111.477 210.061 107.01 207.482L46.3752 172.474C41.9087 169.895 39.1566 165.13 39.1565 159.972V89.9568C39.1565 84.799 41.9085 80.0327 46.3752 77.4539L107.01 42.447Z" fill="url(#paint3_radial_6_2946)"/>
<path d="M107.01 42.447C111.477 39.8681 116.981 39.8681 121.448 42.447L182.082 77.4539C186.549 80.0327 189.301 84.799 189.301 89.9568V159.972C189.301 165.13 186.549 169.895 182.082 172.474L121.448 207.482C116.981 210.061 111.477 210.061 107.01 207.482L46.3752 172.474C41.9087 169.895 39.1566 165.13 39.1565 159.972V89.9568C39.1565 84.799 41.9085 80.0327 46.3752 77.4539L107.01 42.447Z" fill="url(#paint4_linear_6_2946)" fill-opacity="0.2" style="mix-blend-mode:multiply"/>
<path d="M107.01 42.447C111.477 39.8681 116.981 39.8681 121.448 42.447L182.082 77.4539C186.549 80.0327 189.301 84.799 189.301 89.9568V159.972C189.301 165.13 186.549 169.895 182.082 172.474L121.448 207.482C116.981 210.061 111.477 210.061 107.01 207.482L46.3752 172.474C41.9087 169.895 39.1566 165.13 39.1565 159.972V89.9568C39.1565 84.799 41.9085 80.0327 46.3752 77.4539L107.01 42.447Z" stroke="url(#paint5_linear_6_2946)" stroke-width="5.77476"/>
<path d="M109.244 96.2305C111.245 92.0385 117.212 92.0385 119.213 96.2305L125.696 109.818C126.08 110.623 126.846 111.179 127.73 111.296L142.656 113.264C147.262 113.871 149.106 119.546 145.737 122.744L134.818 133.109C134.171 133.724 133.879 134.624 134.041 135.501L136.782 150.305C137.628 154.872 132.8 158.379 128.718 156.164L115.485 148.982C114.701 148.557 113.756 148.557 112.972 148.982L99.7393 156.164C95.6567 158.379 90.8294 154.872 91.6748 150.305L94.416 135.501C94.5784 134.624 94.2857 133.724 93.6387 133.109L82.7197 122.744C79.3512 119.546 81.1955 113.871 85.8008 113.264L100.727 111.296C101.611 111.179 102.377 110.623 102.761 109.818L109.244 96.2305Z" fill="url(#paint6_linear_6_2946)" stroke="url(#paint7_linear_6_2946)" stroke-width="2.88738"/>
<circle cx="96.0375" cy="119.695" r="2.65958" fill="#FDFBCD"/>
<path d="M103.448 117.859C106.94 116.254 108.618 114.684 110.243 110.731" stroke="#FEFDCF" stroke-width="3.68489" stroke-linecap="round"/>
<g style="mix-blend-mode:color">
<path d="M102.679 20.723C109.826 16.5968 118.631 16.5968 125.778 20.723L198.73 62.8416C205.877 66.9678 210.279 74.5935 210.279 82.8459V167.083C210.279 175.336 205.877 182.961 198.73 187.087L125.778 229.206C118.631 233.332 109.826 233.332 102.679 229.206L29.7277 187.087C22.5809 182.961 18.1782 175.336 18.1782 167.083V82.8459C18.1782 74.5934 22.5809 66.9678 29.7277 62.8416L102.679 20.723Z" fill="#E8F7FF"/>
</g>
<path d="M157.128 189.406C158.573 187.119 163.627 185.799 167.035 185.247C167.929 185.102 168.739 185.762 168.563 186.651C168.029 189.354 165.796 192.659 163.895 195.103C161.591 198.065 155.004 192.769 157.128 189.406Z" fill="#23343C"/>
<path d="M168.483 187.003C167.836 189.637 165.713 192.764 163.895 195.102C161.634 198.009 155.249 192.964 157.018 189.597C156.658 192.864 162.127 196.8 164.183 194.157C165.788 192.093 167.628 189.414 168.483 187.003Z" fill="white"/>
<path d="M176.428 190.369C176.188 191.588 171.89 193.208 169.145 192.898C166.51 191.757 170.48 187.311 171.903 187.066C173.327 186.82 176.727 188.846 176.428 190.369Z" fill="#23343C"/>
<path d="M175.226 188.359C176.005 188.977 176.553 189.719 176.426 190.369C176.186 191.588 171.887 193.208 169.143 192.898C168.919 192.801 168.743 192.68 168.609 192.539C168.698 192.599 168.798 192.654 168.909 192.703C171.653 193.012 175.951 191.392 176.191 190.174C176.305 189.59 175.877 188.934 175.226 188.359Z" fill="white"/>
<path d="M144.674 36.7847C143.339 39.3279 145.588 46.5588 149.331 52.6425C150.502 54.5453 152.372 55.8907 154.486 56.614C160.622 58.7136 165.267 59.875 170.16 59.7706C174.774 59.6722 176.964 55.6576 173.673 52.4229C166.445 45.3187 151.543 35.9345 146.301 35.9242C145.642 35.9229 144.981 36.2013 144.674 36.7847Z" fill="white"/>
<g style="mix-blend-mode:soft-light" opacity="0.2" filter="url(#filter1_f_6_2946)">
<path d="M103.1 20.4888C110.17 16.6006 118.77 16.6775 125.778 20.7231L156.382 38.3921C158.976 51.2817 159.454 64.2346 157.668 76.5435C153.991 101.889 141.014 122.427 121.592 133.64C102.171 144.853 77.8954 145.822 54.1069 136.334C41.1559 131.169 28.9276 123.134 18.1782 112.911V82.8462C18.1782 74.7524 22.4145 67.2633 29.3198 63.0854L103.1 20.4888Z" fill="url(#paint8_linear_6_2946)"/>
</g>
<defs>
<filter id="filter0_d_6_2946" x="6.6287" y="32.0653" width="215.2" height="237.771" filterUnits="userSpaceOnUse" color-interpolation-filters="sRGB">
<feFlood flood-opacity="0" result="BackgroundImageFix"/>
<feColorMatrix in="SourceAlpha" type="matrix" values="0 0 0 0 0 0 0 0 0 0 0 0 0 0 0 0 0 0 127 0" result="hardAlpha"/>
<feOffset dy="11.5495"/>
<feGaussianBlur stdDeviation="5.77476"/>
<feComposite in2="hardAlpha" operator="out"/>
<feColorMatrix type="matrix" values="0 0 0 0 0 0 0 0 0 0 0 0 0 0 0 0 0 0 0.25 0"/>
<feBlend mode="normal" in2="BackgroundImageFix" result="effect1_dropShadow_6_2946"/>
<feBlend mode="normal" in="SourceGraphic" in2="effect1_dropShadow_6_2946" result="shape"/>
</filter>
<filter id="filter1_f_6_2946" x="0.853945" y="0.305361" width="175.204" height="159.83" filterUnits="userSpaceOnUse" color-interpolation-filters="sRGB">
<feFlood flood-opacity="0" result="BackgroundImageFix"/>
<feBlend mode="normal" in="SourceGraphic" in2="BackgroundImageFix" result="shape"/>
<feGaussianBlur stdDeviation="8.66214" result="effect1_foregroundBlur_6_2946"/>
</filter>
<linearGradient id="paint0_linear_6_2946" x1="114.113" y1="194.314" x2="114.113" y2="285.945" gradientUnits="userSpaceOnUse">
<stop stop-color="#7B1012"/>
<stop offset="1" stop-color="#EA1140"/>
</linearGradient>
<linearGradient id="paint1_linear_6_2946" x1="114.113" y1="175.003" x2="114.113" y2="285.945" gradientUnits="userSpaceOnUse">
<stop stop-color="#E67D2D"/>
<stop offset="1" stop-color="#FCDC60"/>
</linearGradient>
<radialGradient id="paint2_radial_6_2946" cx="0" cy="0" r="1" gradientUnits="userSpaceOnUse" gradientTransform="translate(114.229 14.0549) rotate(90) scale(221.819 192.101)">
<stop stop-color="#95CCEA"/>
<stop offset="1" stop-color="#104D7D"/>
</radialGradient>
<radialGradient id="paint3_radial_6_2946" cx="0" cy="0" r="1" gradientUnits="userSpaceOnUse" gradientTransform="translate(114.229 41.613) rotate(90) scale(166.703 144.369)">
<stop stop-color="#95CCEA"/>
<stop offset="1" stop-color="#104D7D"/>
</radialGradient>
<linearGradient id="paint4_linear_6_2946" x1="114.229" y1="41.613" x2="114.229" y2="208.316" gradientUnits="userSpaceOnUse">
<stop stop-opacity="0"/>
<stop offset="1"/>
</linearGradient>
<linearGradient id="paint5_linear_6_2946" x1="63.87" y1="41.613" x2="162.968" y2="208.316" gradientUnits="userSpaceOnUse">
<stop stop-color="#0C3855"/>
<stop offset="1" stop-color="#90DDFF"/>
</linearGradient>
<linearGradient id="paint6_linear_6_2946" x1="93.8366" y1="102.314" x2="116.924" y2="149.389" gradientUnits="userSpaceOnUse">
<stop stop-color="#FFE49B"/>
<stop offset="1" stop-color="#99895D"/>
</linearGradient>
<linearGradient id="paint7_linear_6_2946" x1="119.209" y1="183.741" x2="74.8942" y2="94.5303" gradientUnits="userSpaceOnUse">
<stop stop-color="#63141C"/>
<stop offset="1" stop-color="#F98B96"/>
</linearGradient>
<linearGradient id="paint8_linear_6_2946" x1="121.592" y1="133.64" x2="67.9743" y2="40.7702" gradientUnits="userSpaceOnUse">
<stop stop-color="white"/>
<stop offset="1" stop-color="white" stop-opacity="0.2"/>
</linearGradient>
</defs>
</svg>
