<svg width="600" height="600" viewBox="0 0 600 600" fill="none" xmlns="http://www.w3.org/2000/svg">
<mask id="path-1-outside-1_6_2559" maskUnits="userSpaceOnUse" x="87.2227" y="86.5916" width="401" height="445" fill="black">
<rect fill="white" x="87.2227" y="86.5916" width="401" height="445"/>
<path d="M399.447 123.839C397.297 125.245 394.394 125.126 392.352 123.364C389.88 121.231 389.605 117.498 391.738 115.026C393.871 112.554 397.604 112.279 400.076 114.412C402.031 116.099 402.612 118.788 401.713 121.061L412.349 130.294L410 133L399.447 123.839Z"/>
<path d="M376.867 149.962C374.726 151.307 371.875 151.167 369.861 149.43C367.389 147.297 367.114 143.563 369.247 141.091C371.38 138.619 375.113 138.345 377.585 140.478C379.569 142.19 380.138 144.932 379.182 147.226L389.385 156.326L387 159L376.867 149.962Z"/>
<path d="M354.637 175.854C352.472 177.381 349.467 177.305 347.37 175.495C344.898 173.362 344.623 169.629 346.756 167.157C348.889 164.685 352.622 164.41 355.094 166.543C356.993 168.182 357.595 170.764 356.806 172.993L367.659 182.338L365.321 185.053L354.637 175.854Z"/>
<path d="M332.113 201.942C329.95 203.446 326.965 203.361 324.878 201.561C322.406 199.428 322.132 195.695 324.265 193.223C326.398 190.751 330.131 190.476 332.603 192.609C334.513 194.258 335.111 196.862 334.3 199.101L345.291 208.246L343 211L332.113 201.942Z"/>
<path d="M309.537 228.066C307.382 229.51 304.447 229.404 302.387 227.627C299.915 225.494 299.641 221.761 301.774 219.289C303.907 216.817 307.64 216.542 310.112 218.675C312.05 220.347 312.637 223.003 311.773 225.263L322.327 234.275L320 237L309.537 228.066Z"/>
<path d="M286.957 254.19C284.811 255.572 281.928 255.445 279.896 253.692C277.424 251.56 277.15 247.826 279.283 245.354C281.416 242.882 285.149 242.608 287.621 244.741C289.587 246.437 290.163 249.147 289.243 251.429L299.363 260.307L297 263L286.957 254.19Z"/>
<path d="M264.582 280.179C262.424 281.642 259.473 281.543 257.405 279.758C254.933 277.625 254.658 273.892 256.791 271.42C258.924 268.948 262.657 268.673 265.129 270.806C267.058 272.471 267.649 275.11 266.802 277.364L277.315 286.266L275 289L264.582 280.179Z"/>
<path d="M242.003 306.303C239.853 307.705 236.954 307.584 234.914 305.824C232.442 303.691 232.167 299.958 234.3 297.486C236.433 295.014 240.166 294.739 242.638 296.872C244.596 298.561 245.175 301.254 244.273 303.529L254.352 312.297L252 315L242.003 306.303Z"/>
<path d="M268.428 329.619L174.295 438.713L182.164 445.502L276.297 336.408L268.428 329.619Z"/>
<path d="M278.257 334.137L270.388 327.347L282.979 312.755L290.848 319.545L278.257 334.137Z"/>
<path d="M304.892 303.269L292.807 317.273L284.939 310.484L297.023 296.479L304.892 303.269Z"/>
<path d="M306.851 300.997L298.983 294.208L311.067 280.203L318.936 286.993L306.851 300.997Z"/>
<path d="M332.979 270.717L320.895 284.721L313.027 277.932L325.111 263.927L332.979 270.717Z"/>
<path d="M334.939 268.445L327.071 261.656L339.155 247.651L347.024 254.44L334.939 268.445Z"/>
<path d="M361.068 238.164L348.984 252.169L341.115 245.379L353.199 231.375L361.068 238.164Z"/>
<path d="M363.027 235.893L355.159 229.103L366.737 215.685L374.605 222.475L363.027 235.893Z"/>
<path d="M388.649 206.199L376.565 220.204L368.697 213.414L380.781 199.409L388.649 206.199Z"/>
<path fill-rule="evenodd" clip-rule="evenodd" d="M475.125 96.8134C466.136 89.0571 452.561 90.0564 444.805 99.0455L208.656 372.727C175.471 366.684 128.001 389.417 107.04 413.71C81.1858 443.673 94.2901 477.596 124.254 503.451C154.217 529.305 189.693 537.3 215.548 507.337C236.509 483.044 252.046 432.757 241.208 400.815L477.357 127.134C485.113 118.145 484.114 104.57 475.125 96.8134ZM456.907 109.653C457.325 110.014 457.371 110.645 457.011 111.064L382.74 197.138L390.609 203.928L463.036 119.99C463.396 119.572 464.028 119.525 464.446 119.886C464.864 120.247 464.911 120.879 464.55 121.297L392.123 205.234L396.512 209.021L394.552 211.292L390.164 207.506L378.08 221.51L382.468 225.297L380.508 227.568L376.12 223.781L364.542 237.2L369.912 241.834L367.953 244.105L362.582 239.471L350.498 253.475L355.869 258.11L353.909 260.381L348.538 255.747L336.454 269.752L341.824 274.386L339.864 276.657L334.494 272.023L322.41 286.028L327.781 290.662L325.821 292.934L320.45 288.299L308.366 302.304L313.736 306.938L311.777 309.21L306.406 304.575L294.322 318.58L299.693 323.214L297.733 325.486L292.362 320.851L279.771 335.443L284.159 339.23L282.199 341.501L277.811 337.715L183.678 446.809L205.103 465.296L185.343 488.197L163.918 469.71L150.707 485.021C150.346 485.439 149.714 485.485 149.296 485.124C148.878 484.764 148.832 484.132 149.192 483.714L162.403 468.403L154.535 461.614L143.167 474.788C142.807 475.206 142.175 475.252 141.757 474.891C141.339 474.531 141.292 473.899 141.653 473.481L153.021 460.307L130.398 440.787L150.158 417.886L172.781 437.406L266.914 328.312L261 323.209L262.96 320.938L268.874 326.041L281.465 311.449L276.534 307.194L278.493 304.922L283.424 309.177L295.509 295.173L290.577 290.918L292.537 288.646L297.468 292.901L309.553 278.896L304.622 274.642L306.582 272.37L311.513 276.625L323.597 262.62L318.665 258.366L320.625 256.094L325.556 260.349L337.641 246.344L332.71 242.089L334.67 239.818L339.601 244.073L351.685 230.068L346.753 225.813L348.713 223.542L353.645 227.797L365.223 214.379L359.309 209.276L361.269 207.005L367.182 212.107L379.266 198.103L373.353 193L375.312 190.729L381.226 195.831L455.496 109.757C455.857 109.339 456.489 109.292 456.907 109.653Z"/>
</mask>
<path d="M399.447 123.839C397.297 125.245 394.394 125.126 392.352 123.364C389.88 121.231 389.605 117.498 391.738 115.026C393.871 112.554 397.604 112.279 400.076 114.412C402.031 116.099 402.612 118.788 401.713 121.061L412.349 130.294L410 133L399.447 123.839Z" stroke="#1E1E1E" stroke-width="10" mask="url(#path-1-outside-1_6_2559)"/>
<path d="M376.867 149.962C374.726 151.307 371.875 151.167 369.861 149.43C367.389 147.297 367.114 143.563 369.247 141.091C371.38 138.619 375.113 138.345 377.585 140.478C379.569 142.19 380.138 144.932 379.182 147.226L389.385 156.326L387 159L376.867 149.962Z" stroke="#1E1E1E" stroke-width="10" mask="url(#path-1-outside-1_6_2559)"/>
<path d="M354.637 175.854C352.472 177.381 349.467 177.305 347.37 175.495C344.898 173.362 344.623 169.629 346.756 167.157C348.889 164.685 352.622 164.41 355.094 166.543C356.993 168.182 357.595 170.764 356.806 172.993L367.659 182.338L365.321 185.053L354.637 175.854Z" stroke="#1E1E1E" stroke-width="10" mask="url(#path-1-outside-1_6_2559)"/>
<path d="M332.113 201.942C329.95 203.446 326.965 203.361 324.878 201.561C322.406 199.428 322.132 195.695 324.265 193.223C326.398 190.751 330.131 190.476 332.603 192.609C334.513 194.258 335.111 196.862 334.3 199.101L345.291 208.246L343 211L332.113 201.942Z" stroke="#1E1E1E" stroke-width="10" mask="url(#path-1-outside-1_6_2559)"/>
<path d="M309.537 228.066C307.382 229.51 304.447 229.404 302.387 227.627C299.915 225.494 299.641 221.761 301.774 219.289C303.907 216.817 307.64 216.542 310.112 218.675C312.05 220.347 312.637 223.003 311.773 225.263L322.327 234.275L320 237L309.537 228.066Z" stroke="#1E1E1E" stroke-width="10" mask="url(#path-1-outside-1_6_2559)"/>
<path d="M286.957 254.19C284.811 255.572 281.928 255.445 279.896 253.692C277.424 251.56 277.15 247.826 279.283 245.354C281.416 242.882 285.149 242.608 287.621 244.741C289.587 246.437 290.163 249.147 289.243 251.429L299.363 260.307L297 263L286.957 254.19Z" stroke="#1E1E1E" stroke-width="10" mask="url(#path-1-outside-1_6_2559)"/>
<path d="M264.582 280.179C262.424 281.642 259.473 281.543 257.405 279.758C254.933 277.625 254.658 273.892 256.791 271.42C258.924 268.948 262.657 268.673 265.129 270.806C267.058 272.471 267.649 275.11 266.802 277.364L277.315 286.266L275 289L264.582 280.179Z" stroke="#1E1E1E" stroke-width="10" mask="url(#path-1-outside-1_6_2559)"/>
<path d="M242.003 306.303C239.853 307.705 236.954 307.584 234.914 305.824C232.442 303.691 232.167 299.958 234.3 297.486C236.433 295.014 240.166 294.739 242.638 296.872C244.596 298.561 245.175 301.254 244.273 303.529L254.352 312.297L252 315L242.003 306.303Z" stroke="#1E1E1E" stroke-width="10" mask="url(#path-1-outside-1_6_2559)"/>
<path d="M268.428 329.619L174.295 438.713L182.164 445.502L276.297 336.408L268.428 329.619Z" stroke="#1E1E1E" stroke-width="10" mask="url(#path-1-outside-1_6_2559)"/>
<path d="M278.257 334.137L270.388 327.347L282.979 312.755L290.848 319.545L278.257 334.137Z" stroke="#1E1E1E" stroke-width="10" mask="url(#path-1-outside-1_6_2559)"/>
<path d="M304.892 303.269L292.807 317.273L284.939 310.484L297.023 296.479L304.892 303.269Z" stroke="#1E1E1E" stroke-width="10" mask="url(#path-1-outside-1_6_2559)"/>
<path d="M306.851 300.997L298.983 294.208L311.067 280.203L318.936 286.993L306.851 300.997Z" stroke="#1E1E1E" stroke-width="10" mask="url(#path-1-outside-1_6_2559)"/>
<path d="M332.979 270.717L320.895 284.721L313.027 277.932L325.111 263.927L332.979 270.717Z" stroke="#1E1E1E" stroke-width="10" mask="url(#path-1-outside-1_6_2559)"/>
<path d="M334.939 268.445L327.071 261.656L339.155 247.651L347.024 254.44L334.939 268.445Z" stroke="#1E1E1E" stroke-width="10" mask="url(#path-1-outside-1_6_2559)"/>
<path d="M361.068 238.164L348.984 252.169L341.115 245.379L353.199 231.375L361.068 238.164Z" stroke="#1E1E1E" stroke-width="10" mask="url(#path-1-outside-1_6_2559)"/>
<path d="M363.027 235.893L355.159 229.103L366.737 215.685L374.605 222.475L363.027 235.893Z" stroke="#1E1E1E" stroke-width="10" mask="url(#path-1-outside-1_6_2559)"/>
<path d="M388.649 206.199L376.565 220.204L368.697 213.414L380.781 199.409L388.649 206.199Z" stroke="#1E1E1E" stroke-width="10" mask="url(#path-1-outside-1_6_2559)"/>
<path fill-rule="evenodd" clip-rule="evenodd" d="M475.125 96.8134C466.136 89.0571 452.561 90.0564 444.805 99.0455L208.656 372.727C175.471 366.684 128.001 389.417 107.04 413.71C81.1858 443.673 94.2901 477.596 124.254 503.451C154.217 529.305 189.693 537.3 215.548 507.337C236.509 483.044 252.046 432.757 241.208 400.815L477.357 127.134C485.113 118.145 484.114 104.57 475.125 96.8134ZM456.907 109.653C457.325 110.014 457.371 110.645 457.011 111.064L382.74 197.138L390.609 203.928L463.036 119.99C463.396 119.572 464.028 119.525 464.446 119.886C464.864 120.247 464.911 120.879 464.55 121.297L392.123 205.234L396.512 209.021L394.552 211.292L390.164 207.506L378.08 221.51L382.468 225.297L380.508 227.568L376.12 223.781L364.542 237.2L369.912 241.834L367.953 244.105L362.582 239.471L350.498 253.475L355.869 258.11L353.909 260.381L348.538 255.747L336.454 269.752L341.824 274.386L339.864 276.657L334.494 272.023L322.41 286.028L327.781 290.662L325.821 292.934L320.45 288.299L308.366 302.304L313.736 306.938L311.777 309.21L306.406 304.575L294.322 318.58L299.693 323.214L297.733 325.486L292.362 320.851L279.771 335.443L284.159 339.23L282.199 341.501L277.811 337.715L183.678 446.809L205.103 465.296L185.343 488.197L163.918 469.71L150.707 485.021C150.346 485.439 149.714 485.485 149.296 485.124C148.878 484.764 148.832 484.132 149.192 483.714L162.403 468.403L154.535 461.614L143.167 474.788C142.807 475.206 142.175 475.252 141.757 474.891C141.339 474.531 141.292 473.899 141.653 473.481L153.021 460.307L130.398 440.787L150.158 417.886L172.781 437.406L266.914 328.312L261 323.209L262.96 320.938L268.874 326.041L281.465 311.449L276.534 307.194L278.493 304.922L283.424 309.177L295.509 295.173L290.577 290.918L292.537 288.646L297.468 292.901L309.553 278.896L304.622 274.642L306.582 272.37L311.513 276.625L323.597 262.62L318.665 258.366L320.625 256.094L325.556 260.349L337.641 246.344L332.71 242.089L334.67 239.818L339.601 244.073L351.685 230.068L346.753 225.813L348.713 223.542L353.645 227.797L365.223 214.379L359.309 209.276L361.269 207.005L367.182 212.107L379.266 198.103L373.353 193L375.312 190.729L381.226 195.831L455.496 109.757C455.857 109.339 456.489 109.292 456.907 109.653Z" stroke="#1E1E1E" stroke-width="10" mask="url(#path-1-outside-1_6_2559)"/>
</svg>
