<svg width="338" height="458" viewBox="0 0 338 458" fill="none" xmlns="http://www.w3.org/2000/svg">
<g filter="url(#filter0_ddddd_6_1732)">
<path d="M220.931 31.5551C229.556 25.3562 241.176 25.3562 249.802 31.5552L313.876 77.605C320.342 82.2521 324.176 89.7279 324.176 97.6907V199.977C324.176 207.94 320.342 215.416 313.876 220.063L249.802 266.113C241.176 272.312 229.556 272.312 220.931 266.113L156.856 220.063C150.39 215.416 146.557 207.94 146.557 199.977V97.6907C146.557 89.728 150.39 82.2521 156.856 77.605L220.931 31.5551Z" fill="#0C3855"/>
<g style="mix-blend-mode:color">
<path d="M220.931 31.5552C229.556 25.3562 241.176 25.3562 249.802 31.5552L313.876 77.6051C320.342 82.2522 324.176 89.728 324.176 97.6908V199.977C324.176 207.94 320.342 215.416 313.876 220.063L249.802 266.113C241.176 272.312 229.556 272.312 220.931 266.113L156.856 220.063C150.39 215.416 146.557 207.94 146.557 199.977V97.6908C146.557 89.728 150.39 82.2522 156.856 77.6051L220.931 31.5552Z" fill="#E8F7FF"/>
</g>
<path d="M220.931 13.8874C229.556 7.68837 241.176 7.68838 249.802 13.8874L313.876 59.9372C320.342 64.5844 324.176 72.0602 324.176 80.0229V182.309C324.176 190.272 320.342 197.748 313.876 202.395L249.802 248.445C241.176 254.644 229.556 254.644 220.931 248.445L156.856 202.395C150.39 197.748 146.557 190.272 146.557 182.309V80.0229C146.557 72.0602 150.39 64.5843 156.856 59.9372L220.931 13.8874Z" fill="url(#paint0_radial_6_1732)"/>
<path d="M220.931 13.8874C229.556 7.68837 241.176 7.68838 249.802 13.8874L313.876 59.9372C320.342 64.5844 324.176 72.0602 324.176 80.0229V182.309C324.176 190.272 320.342 197.748 313.876 202.395L249.802 248.445C241.176 254.644 229.556 254.644 220.931 248.445L156.856 202.395C150.39 197.748 146.557 190.272 146.557 182.309V80.0229C146.557 72.0602 150.39 64.5843 156.856 59.9372L220.931 13.8874Z" fill="white" fill-opacity="0.1" style="mix-blend-mode:color-dodge"/>
<path d="M220.929 41.7241C229.555 35.5251 241.175 35.5251 249.8 41.7241L294.509 73.8557C300.975 78.5028 304.808 85.9786 304.808 93.9414V168.391C304.808 176.354 300.975 183.83 294.509 188.477L249.8 220.608C241.175 226.807 229.555 226.807 220.929 220.608L176.221 188.477C169.755 183.83 165.922 176.354 165.922 168.391V93.9414C165.922 85.9786 169.755 78.5028 176.221 73.8557L220.929 41.7241Z" fill="white" fill-opacity="0.2" style="mix-blend-mode:screen"/>
<path d="M230.863 91.0697C232.671 87.2802 238.065 87.2802 239.873 91.0697L247.808 107.698C248.536 109.223 249.985 110.276 251.661 110.497L269.927 112.905C274.09 113.454 275.757 118.584 272.711 121.475L259.349 134.159C258.123 135.323 257.57 137.027 257.877 138.689L261.232 156.805C261.996 160.934 257.632 164.104 253.942 162.101L237.749 153.313C236.264 152.507 234.472 152.507 232.987 153.313L216.794 162.101C213.103 164.104 208.739 160.934 209.504 156.805L212.858 138.689C213.166 137.027 212.612 135.323 211.387 134.159L198.024 121.475C194.979 118.584 196.646 113.454 200.809 112.905L219.075 110.497C220.75 110.276 222.2 109.223 222.928 107.698L230.863 91.0697Z" fill="#124344"/>
<g style="mix-blend-mode:soft-light">
<path d="M235.367 9.23816C240.429 9.23789 245.49 10.7879 249.803 13.8876L313.878 59.9374C318.593 63.3265 321.907 68.2209 323.356 73.7108L301.427 80.5028C300.067 78.4346 298.328 76.6018 296.263 75.118L247.34 39.9559C243.763 37.3852 239.565 36.0989 235.367 36.0985V9.23816Z" fill="white"/>
</g>
<g style="mix-blend-mode:multiply" opacity="0.3">
<path d="M165.992 172.234C166.483 178.199 169.56 183.689 174.466 187.214L223.39 222.376C226.969 224.948 231.169 226.232 235.369 226.231V270.759C230.308 270.76 225.246 269.211 220.933 266.112L156.859 220.062C150.393 215.415 146.559 207.939 146.559 199.976V182.538L165.992 172.234Z" fill="#124344"/>
</g>
<g style="mix-blend-mode:color">
<path d="M220.931 13.8874C229.556 7.68837 241.176 7.68838 249.802 13.8874L313.876 59.9372C320.342 64.5844 324.176 72.0602 324.176 80.0229V182.309C324.176 190.272 320.342 197.748 313.876 202.395L249.802 248.445C241.176 254.644 229.556 254.644 220.931 248.445L156.856 202.395C150.39 197.748 146.557 190.272 146.557 182.309V80.0229C146.557 72.0602 150.39 64.5843 156.856 59.9372L220.931 13.8874Z" fill="#E8F7FF"/>
</g>
<path d="M181.428 29.0832C182.256 26.8445 185.423 26.8445 186.251 29.0832L189.176 36.9871C189.436 37.6909 189.991 38.2459 190.695 38.5063L198.599 41.431C200.838 42.2594 200.838 45.4258 198.599 46.2542L190.695 49.1789C189.991 49.4393 189.436 49.9943 189.176 50.6981L186.251 58.6021C185.423 60.8407 182.256 60.8407 181.428 58.6021L178.503 50.6981C178.243 49.9943 177.688 49.4393 176.984 49.1789L169.08 46.2542C166.841 45.4258 166.841 42.2594 169.08 41.431L176.984 38.5063C177.688 38.2459 178.243 37.6909 178.503 36.9871L181.428 29.0832Z" fill="white"/>
<path d="M277.593 191.68C278.13 190.23 280.181 190.23 280.718 191.68L282.612 196.8C282.781 197.256 283.14 197.616 283.596 197.784L288.717 199.679C290.167 200.216 290.167 202.267 288.717 202.804L283.596 204.698C283.14 204.867 282.781 205.226 282.612 205.682L280.718 210.803C280.181 212.253 278.13 212.253 277.593 210.803L275.698 205.682C275.53 205.226 275.17 204.867 274.714 204.698L269.594 202.804C268.144 202.267 268.144 200.216 269.594 199.679L274.714 197.784C275.17 197.616 275.53 197.256 275.698 196.8L277.593 191.68Z" fill="white"/>
</g>
<defs>
<filter id="filter0_ddddd_6_1732" x="0.556641" y="0.238129" width="334.619" height="457.524" filterUnits="userSpaceOnUse" color-interpolation-filters="sRGB">
<feFlood flood-opacity="0" result="BackgroundImageFix"/>
<feColorMatrix in="SourceAlpha" type="matrix" values="0 0 0 0 0 0 0 0 0 0 0 0 0 0 0 0 0 0 127 0" result="hardAlpha"/>
<feOffset dx="-4" dy="6"/>
<feGaussianBlur stdDeviation="7.5"/>
<feColorMatrix type="matrix" values="0 0 0 0 0.101961 0 0 0 0 0.0313726 0 0 0 0 0.168627 0 0 0 0.98 0"/>
<feBlend mode="normal" in2="BackgroundImageFix" result="effect1_dropShadow_6_1732"/>
<feColorMatrix in="SourceAlpha" type="matrix" values="0 0 0 0 0 0 0 0 0 0 0 0 0 0 0 0 0 0 127 0" result="hardAlpha"/>
<feOffset dx="-16" dy="22"/>
<feGaussianBlur stdDeviation="13.5"/>
<feColorMatrix type="matrix" values="0 0 0 0 0.101961 0 0 0 0 0.0313726 0 0 0 0 0.168627 0 0 0 0.85 0"/>
<feBlend mode="normal" in2="effect1_dropShadow_6_1732" result="effect2_dropShadow_6_1732"/>
<feColorMatrix in="SourceAlpha" type="matrix" values="0 0 0 0 0 0 0 0 0 0 0 0 0 0 0 0 0 0 127 0" result="hardAlpha"/>
<feOffset dx="-35" dy="50"/>
<feGaussianBlur stdDeviation="18.5"/>
<feColorMatrix type="matrix" values="0 0 0 0 0.101961 0 0 0 0 0.0313726 0 0 0 0 0.168627 0 0 0 0.5 0"/>
<feBlend mode="normal" in2="effect2_dropShadow_6_1732" result="effect3_dropShadow_6_1732"/>
<feColorMatrix in="SourceAlpha" type="matrix" values="0 0 0 0 0 0 0 0 0 0 0 0 0 0 0 0 0 0 127 0" result="hardAlpha"/>
<feOffset dx="-63" dy="89"/>
<feGaussianBlur stdDeviation="22"/>
<feColorMatrix type="matrix" values="0 0 0 0 0.101961 0 0 0 0 0.0313726 0 0 0 0 0.168627 0 0 0 0.15 0"/>
<feBlend mode="normal" in2="effect3_dropShadow_6_1732" result="effect4_dropShadow_6_1732"/>
<feColorMatrix in="SourceAlpha" type="matrix" values="0 0 0 0 0 0 0 0 0 0 0 0 0 0 0 0 0 0 127 0" result="hardAlpha"/>
<feOffset dx="-98" dy="139"/>
<feGaussianBlur stdDeviation="24"/>
<feColorMatrix type="matrix" values="0 0 0 0 0.101961 0 0 0 0 0.0313726 0 0 0 0 0.168627 0 0 0 0.02 0"/>
<feBlend mode="normal" in2="effect4_dropShadow_6_1732" result="effect5_dropShadow_6_1732"/>
<feBlend mode="normal" in="SourceGraphic" in2="effect5_dropShadow_6_1732" result="shape"/>
</filter>
<radialGradient id="paint0_radial_6_1732" cx="0" cy="0" r="1" gradientUnits="userSpaceOnUse" gradientTransform="translate(235.366 3.51273) rotate(90) scale(255.307 205.096)">
<stop stop-color="#95CCEA"/>
<stop offset="1" stop-color="#104D7D"/>
</radialGradient>
</defs>
</svg>
