<svg width="1720" height="280" viewBox="0 0 1720 280" fill="none" xmlns="http://www.w3.org/2000/svg">
<path d="M234.507 117.752C234.507 117.752 200.02 137.466 222.498 199.314C242.46 254.241 170.909 261.704 143.09 250.132C107.054 235.14 95.1721 183.308 63.4061 192.49C31.64 201.672 17.0872 127.761 63.9465 111.206C122.238 90.6118 92.5983 65.6991 101.922 43.789C108.614 28.0639 161.426 12.4062 181.217 46.5785C197.871 75.3345 210.247 68.7825 220.79 67.546C235.994 65.762 262.128 96.4879 234.507 117.752Z" fill="#DEE9FF"/>
<path d="M145.637 113.523C145.637 113.523 91.1898 174.681 90.5607 181.463C90.5607 181.463 93.02 182.553 95.7631 185.732C98.9383 189.413 102.743 190.817 104.649 189.781C107.394 188.289 107.158 186.233 107.158 186.233L149.179 201.455C149.179 201.455 164.019 196.802 194.114 165.431L202.12 153.993L145.637 113.523Z" fill="#0E84E5"/>
<path d="M83.2432 122.358C83.2432 122.358 89.9444 127.165 97.9531 122.633L123.141 108.176C123.141 108.176 131.718 101.846 140.537 107.935C140.537 107.935 132.524 127.399 149.033 130.73C149.033 130.73 165.144 138.114 173.669 145.694C177.955 149.507 187.123 155.975 191.482 159.628C192.652 160.607 195.045 162.07 196.259 163.537C197.945 165.574 201.168 170.017 195.997 174.327C195.997 174.327 192.552 178.375 185.648 174.114C179.231 170.155 168.045 160.971 161.265 156.698C160.897 156.467 159.217 156.124 161.56 158.411C164.452 161.229 177.954 171.21 177.954 171.21C177.954 171.21 183.005 174.717 184.205 176.498C185.259 178.059 186.881 181.488 183.861 185.211C183.861 185.211 179.571 190.865 172.217 186.372L155.334 174.586C155.334 174.586 151.743 172.268 154.63 175.651C154.63 175.651 171.765 187.69 172.439 189.522C174.36 194.744 170.643 201.461 162.293 198.219L142.948 187.642C142.948 187.642 141.18 187.383 142.627 188.793C142.627 188.793 160.576 198.056 161.819 199.074C163.446 200.405 159.497 206.678 151.314 204.165C139.644 200.583 116.055 194.133 104.648 189.78C100.635 188.249 92.3909 184.159 89.2135 182.236C89.2135 182.236 76.4679 174.215 59.0145 173.882L71.5889 120.285L83.2432 122.358Z" fill="#699CFF"/>
<path d="M102.739 193.393C102.739 193.393 106.425 188.525 108.703 186.763C113.325 183.192 121.665 186.653 122.07 191.03C122.07 191.03 123.868 195.331 116.412 201.674C115.034 202.845 110.654 205.63 104.25 200.368C104.25 200.368 100.429 196.854 102.739 193.393Z" fill="#0E84E5"/>
<path d="M110.125 150.116C110.125 150.116 120.805 158.574 131.86 133.413C131.86 133.413 137.742 135.462 146.881 130.163L148.785 127.202C148.785 127.202 130.224 129.177 130.306 129.542C130.388 129.907 110.125 150.116 110.125 150.116Z" fill="#0E84E5"/>
<path d="M118.62 202.915C118.489 199.686 123.015 193.762 124.997 191.671C127.331 189.207 136.523 186.852 137.591 196.638C137.591 196.638 137.021 203.496 131.915 207.405C129.488 209.265 118.898 209.761 118.62 202.915Z" fill="#0E84E5"/>
<path d="M139.224 198.031C140.789 195.543 148.543 194.356 148.716 201.501C148.782 204.207 147.372 208.667 143.354 210.435C140.433 211.72 132.724 209.628 134.189 206.495C135.196 204.341 135.688 203.653 139.224 198.031Z" fill="#0E84E5"/>
<path d="M89.0374 187.013C89.7112 185.532 90.8246 184.112 93.048 182.321C94.3932 181.238 98.1732 180.817 100.446 182.237C102.078 183.256 105.294 185.645 104.573 187.771C103.202 191.809 100.877 197.28 95.8443 195.699C95.8441 195.698 86.0333 193.616 89.0374 187.013Z" fill="#0E84E5"/>
<path d="M81.2333 117.084L70.9608 183.863L37.9756 177.515L52.5942 109.487L81.2333 117.084Z" fill="#0E84E5"/>
<path d="M92.6697 184.763C92.6697 184.763 91.057 189.339 93.9204 191.261C93.9204 191.261 97.6052 195.683 102.166 188.379C102.927 187.162 101.227 185.013 98.2166 184.21C98.2168 184.21 95.3647 183.111 92.6697 184.763Z" fill="#D4E5FF"/>
<path d="M107.267 192.991C107.267 192.991 109.144 188.789 110.739 188.143C112.381 187.478 117.315 187.371 119.388 192.217C119.744 193.051 118.456 194.791 117.877 195.714C116.808 197.417 114.05 199.966 110.843 198.215C110.843 198.215 106.74 196.734 107.267 192.991Z" fill="#D4E5FF"/>
<path d="M124.054 196.588C124.5 195.367 126.228 193.142 127.802 192.985C130.39 192.727 136.368 194.647 134.788 198.474C134.788 198.474 133.432 201.719 130.522 202.476C130.522 202.476 125.475 204.285 123.608 199.589C123.327 198.884 123.796 197.3 124.054 196.588Z" fill="#D4E5FF"/>
<path d="M137.758 203.927C138.504 205.786 141.7 207.707 143.651 205.935C144.442 205.218 146.071 202.819 146.16 201.756C146.309 199.957 142.77 196.16 139.67 199.696C138.938 200.531 137.346 202.896 137.758 203.927Z" fill="#D4E5FF"/>
<path d="M152.933 106.202C152.933 106.202 142.14 102.798 133.884 111.087L120.046 119.56C120.046 119.56 114.143 121.517 112.318 129.413L106.032 142.483C106.032 142.483 100.953 151.452 115.763 150.223C115.763 150.223 124.24 146.641 130.97 133.029L130.923 131.292C130.923 131.292 131.882 133.435 136.773 132.575C136.773 132.575 141.825 130.826 148.812 128.512C148.812 128.512 149.946 129.892 156.659 133.578C156.659 133.578 173.069 142.165 176.884 146.742L196.543 161.705C196.543 161.705 199.595 160.486 207.189 148.677L224.134 142.654L206.357 94.1557C206.357 94.1557 179.293 104.755 171.345 105.547L152.933 106.202Z" fill="#208AF2"/>
<path d="M194.529 95.3352L217.944 150.457L242.862 140.786L218.384 84.993L194.529 95.3352Z" fill="#699CFF"/>
<path d="M109.154 135.991C109.154 135.991 115.102 133.74 116.856 137.857C116.856 137.857 115.049 145.199 113.016 146.826C111.444 148.087 106.226 148.602 105.199 145.916C105.199 145.916 104.554 143.148 109.154 135.991Z" fill="#D4E5FF"/>
<path d="M162.787 136.955C162.787 136.955 173.852 141.501 185.03 132.547C185.03 132.547 177.351 142.894 167.016 139.454L162.787 136.955Z" fill="#0E84E5"/>
<path d="M59.7897 171C59.862 171.724 59.7181 172.452 59.3763 173.094C59.0344 173.736 58.51 174.262 57.8692 174.605C57.2285 174.949 56.5003 175.094 55.7766 175.024C55.053 174.954 54.3665 174.67 53.8039 174.21C53.2414 173.749 52.828 173.132 52.6161 172.437C52.4042 171.741 52.4033 170.999 52.6136 170.303C52.8238 169.607 53.2357 168.989 53.7972 168.527C54.3587 168.065 55.0445 167.78 55.768 167.708C56.7378 167.612 57.7063 167.904 58.4605 168.522C59.2147 169.139 59.6928 170.031 59.7897 171Z" fill="white"/>
<path d="M230.799 135.419C230.871 136.142 230.727 136.871 230.385 137.512C230.043 138.153 229.518 138.679 228.878 139.022C228.237 139.366 227.509 139.512 226.786 139.441C226.062 139.371 225.376 139.087 224.813 138.627C224.251 138.167 223.838 137.55 223.626 136.854C223.414 136.159 223.413 135.417 223.623 134.721C223.833 134.025 224.245 133.407 224.806 132.945C225.368 132.483 226.053 132.198 226.777 132.126C227.257 132.078 227.742 132.126 228.204 132.265C228.666 132.405 229.096 132.634 229.47 132.94C229.843 133.245 230.153 133.622 230.381 134.047C230.609 134.473 230.751 134.939 230.799 135.419Z" fill="white"/>
<path d="M412.663 127.029C412.663 127.029 451.434 125.477 459.812 61.7456C467.253 5.14629 532.631 30.9083 551.529 53.4701C576.01 82.6971 562.96 132.974 594.629 139.325C626.299 145.676 605.618 216.292 557.546 209.533C497.746 201.125 512.214 236.069 494.262 250.859C481.379 261.475 428.551 251.256 426.791 212.723C425.309 180.297 411.631 180.4 401.937 176.723C387.954 171.421 379.144 133.017 412.663 127.029Z" fill="#DEE9FF"/>
<path d="M544.462 197.807L506.371 160.168L498.828 167.801L536.92 205.44L544.462 197.807Z" fill="#699CFF"/>
<path d="M559.013 207.92L529.378 178.637C529.213 178.474 528.947 178.476 528.784 178.641L517.568 189.992C517.405 190.157 517.406 190.423 517.571 190.586L547.206 219.869C547.371 220.032 547.637 220.031 547.8 219.866L559.017 208.514C559.18 208.349 559.178 208.083 559.013 207.92Z" fill="#0E84E5"/>
<path d="M472.611 179.097C498.816 179.097 520.06 157.853 520.06 131.648C520.06 105.442 498.816 84.1982 472.611 84.1982C446.405 84.1982 425.161 105.442 425.161 131.648C425.161 157.853 446.405 179.097 472.611 179.097Z" fill="#0E84E5"/>
<path d="M472.611 171.355C494.54 171.355 512.318 153.578 512.318 131.648C512.318 109.718 494.54 91.9407 472.611 91.9407C450.681 91.9407 432.904 109.718 432.904 131.648C432.904 153.578 450.681 171.355 472.611 171.355Z" fill="#D4E5FF"/>
<path d="M552.83 88.7531C541.7 85.1454 529.672 91.247 526.049 102.423C522.442 113.553 528.543 125.581 539.719 129.203C550.895 132.825 562.892 126.664 566.5 115.533C570.108 104.403 563.96 92.3606 552.83 88.7531ZM549.471 99.1145C550.717 99.5183 551.815 100.283 552.626 101.312C553.436 102.34 553.923 103.587 554.024 104.892C554.126 106.198 553.837 107.504 553.195 108.646C552.552 109.787 551.586 110.712 550.417 111.303C549.249 111.894 547.931 112.125 546.631 111.966C545.331 111.807 544.107 111.266 543.115 110.411C542.124 109.556 541.408 108.425 541.06 107.163C540.711 105.9 540.746 104.563 541.158 103.32C542.273 99.8813 546.032 97.9999 549.471 99.1145ZM541.068 125.041C537.37 123.848 534.202 121.407 532.106 118.136C536.029 115.907 540.13 115.286 543.84 116.489C547.55 117.692 550.567 120.569 552.377 124.706C548.76 126.126 544.762 126.244 541.068 125.041Z" fill="#418DF9"/>
<path d="M460.191 190.176C458.258 191.163 456.661 192.701 455.602 194.595C454.542 196.49 454.069 198.656 454.241 200.82C454.413 202.983 455.222 205.047 456.567 206.751C457.912 208.455 459.732 209.721 461.797 210.39C463.862 211.06 466.078 211.101 468.167 210.511C470.256 209.92 472.122 208.723 473.531 207.072C474.939 205.42 475.826 203.388 476.08 201.233C476.333 199.077 475.942 196.895 474.955 194.961C473.629 192.371 471.331 190.413 468.563 189.516C465.795 188.618 462.784 188.856 460.191 190.176ZM462.747 195.184C463.349 194.876 464.029 194.755 464.701 194.834C465.372 194.914 466.005 195.191 466.518 195.63C467.032 196.07 467.403 196.652 467.585 197.303C467.768 197.954 467.752 198.645 467.541 199.287C467.331 199.93 466.934 200.495 466.401 200.911C465.869 201.328 465.225 201.577 464.55 201.626C463.876 201.676 463.202 201.525 462.614 201.191C462.027 200.857 461.551 200.356 461.248 199.752C460.847 198.946 460.779 198.015 461.06 197.16C461.34 196.305 461.947 195.594 462.747 195.183V195.184ZM469.143 207.714C467.358 208.628 465.311 208.893 463.352 208.464C463.97 206.219 465.24 204.496 467.034 203.581C468.827 202.665 470.978 202.615 473.149 203.464C472.347 205.302 470.931 206.804 469.143 207.713V207.714Z" fill="#418DF9"/>
<path d="M821.791 242.485C836.648 251.44 847.247 247.723 851.304 240.542C859.151 226.655 885.242 198.258 926.587 188.66C981.348 175.948 969.912 142.196 936.248 124.484C902.585 106.773 877.414 82.2652 881.224 55.6178C885.034 28.9703 847.288 19.7841 830.502 71.0448C819.655 104.171 800.215 113.046 787.819 115.179C776.136 117.19 763.356 119.713 757.124 129.797C749.562 142.033 752.2 154.411 783.862 162.9C828.729 174.93 788.491 222.413 821.791 242.485Z" fill="#DEE9FF"/>
<path d="M783.191 184.424C783.819 184.064 790.916 181.06 826.219 197.518C826.116 197.658 826.072 197.724 826.072 197.724C826.072 197.724 789.371 210.084 782.18 194.858C780.033 190.325 780.648 187.203 783.129 184.459L783.191 184.424Z" fill="#0E84E5"/>
<path d="M901.847 190.652C894.177 197.1 882.149 201.78 870.543 195.557C872.377 194.385 874.271 193.178 876.203 191.929C887.858 184.44 898.125 189.451 901.847 190.652Z" fill="#0E84E5"/>
<path d="M915.585 111.349C923.421 176.601 904.799 188.443 902.726 190.242C902.125 190.763 901.882 190.725 900.975 190.491L900.959 190.5C897.118 189.482 887.859 184.44 876.203 191.928C874.271 193.177 872.376 194.384 870.542 195.556C858.652 203.097 849.05 208.411 842.133 205.327C836.265 202.333 830.975 199.743 826.219 197.518C790.916 181.06 783.819 184.064 783.191 184.424C783.92 184.027 790.613 180.317 799.624 173.793C799.655 173.776 799.685 173.758 799.692 173.734C811.737 165.005 827.867 151.249 839.461 133.554C847.354 121.521 855.076 91.0171 869.975 85.0318C900.594 73.6092 914.314 98.0763 915.585 111.349Z" fill="#699CFF"/>
<path d="M881.728 110.204C882.679 107.694 882.586 105.333 881.521 104.93C880.457 104.526 878.823 106.234 877.872 108.744C876.922 111.254 877.015 113.615 878.079 114.018C879.144 114.422 880.778 112.714 881.728 110.204Z" fill="white"/>
<path d="M901.224 113.406C901.898 110.808 901.551 108.471 900.448 108.185C899.346 107.899 897.907 109.774 897.233 112.371C896.56 114.969 896.907 117.307 898.009 117.593C899.111 117.878 900.551 116.004 901.224 113.406Z" fill="white"/>
<path d="M889.357 122.945C889.197 122.944 889.042 122.89 888.918 122.789C888.794 122.689 888.708 122.549 888.674 122.393C888.549 121.828 887.994 120.156 887.113 119.908C886.233 119.659 884.506 120.624 883.807 121.13C883.657 121.239 883.47 121.284 883.286 121.254C883.103 121.225 882.939 121.124 882.83 120.974C882.721 120.823 882.676 120.636 882.706 120.453C882.735 120.269 882.836 120.105 882.986 119.996C883.262 119.797 885.728 118.062 887.493 118.56C889.335 119.08 889.975 121.788 890.041 122.095C890.064 122.198 890.063 122.304 890.039 122.406C890.015 122.507 889.968 122.603 889.902 122.684C889.837 122.765 889.754 122.831 889.659 122.876C889.565 122.921 889.461 122.945 889.357 122.945H889.357Z" fill="white"/>
<path d="M1232.66 53.5887C1232.66 53.5887 1213.91 95.6702 1164.33 86.0301C1114.75 76.3899 1084.87 144.212 1131.75 168.942C1178.63 193.671 1146.14 222.079 1177.4 236.59C1212.94 253.082 1226.19 197.935 1252.36 203.057C1310.14 214.361 1345.88 194.974 1330.07 168.884C1302.33 123.086 1282.19 124.772 1290.38 95.1974C1298.56 65.6225 1252.34 20.2201 1232.66 53.5887Z" fill="#DEE9FF"/>
<path d="M1223.61 149.634C1219.26 157.983 1218.16 162.42 1204.94 170.705C1204.84 170.772 1204.76 170.872 1204.72 170.988C1202.61 177.533 1199.04 183.512 1194.27 188.471C1194.21 188.537 1194.16 188.619 1194.14 188.709C1194.12 188.798 1194.12 188.892 1194.15 188.98C1195.63 193.902 1197.23 202.777 1192.78 210.052C1186.23 220.762 1181.38 214.295 1182.39 211.87C1183.26 209.793 1190.64 205.331 1188.94 194.185C1188.92 194.096 1188.89 194.012 1188.83 193.942C1188.77 193.871 1188.7 193.816 1188.62 193.782C1188.53 193.748 1188.44 193.736 1188.35 193.747C1188.26 193.758 1188.18 193.792 1188.1 193.846C1182.75 197.732 1176.6 200.39 1170.1 201.63C1170.03 201.642 1169.96 201.669 1169.9 201.709C1169.84 201.75 1169.79 201.803 1169.75 201.865C1169.71 201.926 1169.69 201.996 1169.68 202.068C1169.67 202.141 1169.67 202.214 1169.69 202.285C1171.35 208.217 1172.13 217.489 1165.21 226.016C1161.52 230.461 1156.62 223.962 1161.52 219.534C1164.56 216.793 1164.33 208.913 1162.9 202.843C1162.88 202.725 1162.81 202.62 1162.71 202.546C1162.62 202.473 1162.5 202.435 1162.38 202.439C1162.09 202.447 1161.8 202.447 1161.52 202.447C1151.52 202.462 1141.8 199.158 1133.89 193.054C1133.81 192.997 1133.73 192.96 1133.64 192.947C1133.55 192.934 1133.45 192.944 1133.37 192.978C1133.28 193.011 1133.21 193.066 1133.15 193.138C1133.09 193.209 1133.05 193.294 1133.04 193.385C1131.14 205.929 1138.68 210.27 1139.75 213.487C1140.95 217.084 1138.2 220.284 1134.82 219.379C1134.74 219.357 1134.67 219.322 1134.61 219.274C1123.57 210.981 1124.53 193.603 1125.75 185.238C1125.76 185.169 1125.75 185.099 1125.74 185.033C1125.72 184.966 1125.69 184.903 1125.64 184.85C1119.47 176.904 1116.12 167.124 1116.14 157.062C1116.14 138.609 1127.16 122.726 1142.98 115.638C1142.98 115.638 1142.98 115.638 1142.98 115.637C1142.98 115.637 1142.98 115.636 1142.98 115.635C1142.99 115.635 1142.99 115.634 1142.99 115.633C1142.99 115.632 1142.99 115.631 1142.99 115.63C1145.42 112.55 1148.39 108.194 1148.84 105.138C1148.85 105.035 1148.9 104.938 1148.97 104.861C1149.04 104.783 1149.13 104.728 1149.23 104.703C1149.33 104.678 1149.44 104.684 1149.54 104.719C1149.64 104.755 1149.72 104.819 1149.78 104.904C1150.95 106.472 1152.75 109.463 1152.36 112.615C1152.34 112.72 1152.33 112.825 1152.31 112.93C1152.28 113.108 1152.24 113.278 1152.2 113.455C1152.16 113.593 1152.13 113.73 1152.08 113.868C1152.65 113.396 1153.18 112.894 1153.7 112.364C1154.88 111.144 1156.39 109.309 1157.03 107.345C1157.06 107.24 1157.13 107.147 1157.21 107.08C1157.3 107.012 1157.4 106.972 1157.51 106.966C1157.62 106.96 1157.73 106.987 1157.82 107.045C1157.91 107.103 1157.99 107.188 1158.03 107.289C1158.45 108.324 1158.94 109.77 1159.11 111.249C1159.13 111.382 1159.19 111.504 1159.29 111.593C1159.39 111.681 1159.52 111.729 1159.65 111.726C1160.28 111.702 1160.9 111.686 1161.52 111.686C1186.58 111.686 1206.9 132.006 1206.9 157.062C1206.9 157.636 1206.9 158.202 1206.87 158.767C1206.87 158.854 1206.89 158.94 1206.92 159.018C1206.96 159.096 1207.02 159.164 1207.08 159.216C1207.15 159.267 1207.23 159.301 1207.32 159.315C1207.41 159.328 1207.49 159.321 1207.58 159.293C1210.27 158.347 1213.68 156.068 1215.73 150.644C1219.57 140.541 1219.97 137.712 1218.76 129.831C1217.55 121.951 1223.41 122.355 1224.62 124.982C1225.83 127.608 1228.46 140.338 1223.61 149.634Z" fill="#0E84E5"/>
<path d="M1143.79 161.042C1143.64 161.042 1143.49 160.991 1143.37 160.896C1143.24 160.802 1143.16 160.669 1143.12 160.52C1142.81 159.189 1142.75 157.814 1142.92 156.46C1143.32 153.517 1144.92 151.354 1147.56 150.204C1149.28 149.453 1150.9 149.409 1152.39 150.076C1155.44 151.441 1156.73 155.313 1156.79 155.477C1156.84 155.652 1156.82 155.84 1156.74 156.002C1156.65 156.163 1156.51 156.286 1156.33 156.342C1156.16 156.399 1155.97 156.386 1155.81 156.306C1155.64 156.226 1155.52 156.084 1155.46 155.913C1155.45 155.879 1154.29 152.459 1151.81 151.351C1150.7 150.855 1149.46 150.901 1148.12 151.487C1145.94 152.439 1144.66 154.161 1144.32 156.606C1144.16 157.793 1144.21 158.998 1144.47 160.166C1144.52 160.346 1144.49 160.537 1144.4 160.697C1144.31 160.857 1144.15 160.973 1143.97 161.02C1143.91 161.035 1143.85 161.042 1143.79 161.042Z" fill="white"/>
<path d="M1164.9 154.632C1164.75 154.632 1164.61 154.586 1164.49 154.5C1164.37 154.414 1164.28 154.293 1164.23 154.154C1163.84 152.851 1163.69 151.489 1163.78 150.132C1163.98 147.181 1165.44 144.927 1167.99 143.614C1169.66 142.754 1171.29 142.606 1172.82 143.176C1175.94 144.338 1177.48 148.093 1177.54 148.252C1177.61 148.424 1177.61 148.615 1177.54 148.785C1177.46 148.954 1177.33 149.088 1177.15 149.157C1176.98 149.226 1176.79 149.224 1176.62 149.153C1176.45 149.081 1176.32 148.946 1176.25 148.775C1176.23 148.743 1174.86 145.428 1172.32 144.486C1171.18 144.062 1169.94 144.188 1168.63 144.859C1166.52 145.945 1165.36 147.738 1165.18 150.188C1165.1 151.376 1165.23 152.568 1165.56 153.711C1165.6 153.817 1165.6 153.929 1165.59 154.038C1165.57 154.148 1165.53 154.251 1165.46 154.341C1165.4 154.431 1165.31 154.504 1165.21 154.555C1165.12 154.605 1165.01 154.632 1164.9 154.632H1164.9Z" fill="white"/>
<path d="M1163.11 169.276C1158.35 169.276 1154.72 166.105 1154.54 165.944C1154.47 165.883 1154.41 165.809 1154.37 165.727C1154.33 165.644 1154.31 165.554 1154.3 165.462C1154.3 165.371 1154.31 165.279 1154.34 165.192C1154.37 165.105 1154.42 165.025 1154.48 164.956C1154.54 164.887 1154.61 164.831 1154.69 164.791C1154.78 164.751 1154.87 164.728 1154.96 164.722C1155.05 164.717 1155.14 164.729 1155.23 164.76C1155.32 164.79 1155.4 164.837 1155.47 164.898C1155.51 164.94 1160.31 169.109 1165.71 167.499C1171.09 165.897 1172.56 159.071 1172.58 159.003C1172.62 158.823 1172.72 158.665 1172.88 158.565C1173.03 158.464 1173.22 158.429 1173.4 158.466C1173.58 158.503 1173.74 158.61 1173.84 158.763C1173.94 158.917 1173.98 159.104 1173.95 159.285C1173.61 160.699 1173.09 162.061 1172.4 163.337C1170.86 166.17 1168.69 168.073 1166.11 168.841C1165.14 169.131 1164.13 169.278 1163.11 169.276Z" fill="white"/>
<path d="M1314.01 138.119C1313.95 139.639 1313.8 141.154 1313.55 142.655C1310.17 163.299 1290.71 177.292 1270.07 173.917C1249.43 170.543 1235.43 151.08 1238.8 130.436C1239.02 129.12 1239.3 127.832 1239.64 126.576C1224.33 116.178 1225.22 96.1279 1228.16 93.905C1231.12 91.6541 1234.36 93.5508 1234.02 99.7773C1233.67 108.819 1239.24 116.297 1242.33 119.554C1249.56 105.142 1265.53 96.4355 1282.29 99.1739C1298.54 101.831 1310.67 114.469 1313.45 129.796C1316.48 128.694 1321.83 125.515 1326.16 116.478C1326.77 114.677 1326.94 113.353 1326.97 112.555C1326.99 111.81 1327.28 111.098 1327.79 110.551C1328.74 109.56 1330.42 108.507 1332.58 110.123C1333.08 110.492 1333.47 110.974 1333.74 111.528C1334.01 112.082 1334.14 112.692 1334.13 113.308C1333.99 118.192 1330.08 130.075 1314.01 138.119Z" fill="#699CFF"/>
<path d="M1291.49 144.815C1290.53 150.662 1282.49 154.212 1273.53 152.748C1264.57 151.282 1258.08 145.356 1259.03 139.509C1259.21 138.42 1259.64 137.387 1260.28 136.485C1260.45 136.241 1260.71 136.073 1261.01 136.016C1261.3 135.959 1261.61 136.016 1261.86 136.177C1265.07 138.187 1270.15 139.959 1276.01 140.917C1281.4 141.799 1286.39 141.812 1290.03 141.123C1290.32 141.066 1290.63 141.125 1290.88 141.288C1291.14 141.451 1291.32 141.705 1291.39 141.998C1291.61 142.921 1291.64 143.878 1291.49 144.815Z" fill="white"/>
<path d="M1274.49 133.214C1274.39 133.214 1274.29 133.192 1274.2 133.149C1274.1 133.107 1274.02 133.045 1273.96 132.967C1273.89 132.89 1273.84 132.799 1273.82 132.701C1273.79 132.603 1273.78 132.501 1273.8 132.401C1274.03 130.963 1273.69 129.491 1272.84 128.309C1271.99 127.126 1270.7 126.33 1269.27 126.095C1267.83 125.86 1266.36 126.206 1265.17 127.056C1263.99 127.906 1263.2 129.192 1262.96 130.629C1262.93 130.812 1262.83 130.976 1262.68 131.084C1262.53 131.193 1262.34 131.237 1262.16 131.207C1261.97 131.177 1261.81 131.075 1261.7 130.925C1261.59 130.774 1261.55 130.586 1261.58 130.403C1261.87 128.599 1262.87 126.986 1264.36 125.919C1265.84 124.852 1267.69 124.419 1269.49 124.714C1271.3 125.008 1272.91 126.008 1273.98 127.492C1275.04 128.976 1275.48 130.823 1275.18 132.626C1275.15 132.79 1275.07 132.939 1274.94 133.047C1274.82 133.154 1274.66 133.213 1274.49 133.214Z" fill="white"/>
<path d="M1291.28 135.959C1291.18 135.959 1291.08 135.936 1290.99 135.894C1290.9 135.851 1290.82 135.789 1290.75 135.712C1290.68 135.634 1290.64 135.544 1290.61 135.446C1290.58 135.348 1290.58 135.246 1290.59 135.146C1290.82 133.711 1290.47 132.244 1289.62 131.066C1288.77 129.888 1287.49 129.095 1286.05 128.86C1284.62 128.626 1283.15 128.969 1281.97 129.815C1280.79 130.661 1279.99 131.941 1279.75 133.374C1279.74 133.465 1279.71 133.552 1279.66 133.63C1279.61 133.709 1279.55 133.777 1279.47 133.831C1279.4 133.885 1279.31 133.923 1279.22 133.945C1279.13 133.966 1279.04 133.969 1278.95 133.954C1278.86 133.939 1278.77 133.907 1278.69 133.858C1278.61 133.809 1278.55 133.746 1278.49 133.671C1278.44 133.596 1278.4 133.511 1278.38 133.422C1278.36 133.332 1278.36 133.239 1278.37 133.148C1278.67 131.349 1279.67 129.742 1281.15 128.679C1282.64 127.617 1284.48 127.186 1286.28 127.48C1288.08 127.774 1289.69 128.77 1290.76 130.249C1291.82 131.729 1292.26 133.57 1291.97 135.371C1291.95 135.535 1291.86 135.684 1291.74 135.792C1291.61 135.899 1291.45 135.958 1291.28 135.959Z" fill="white"/>
<path d="M1621.01 72.4165C1621.01 72.4165 1607.02 108.1 1661.34 140.972C1709.58 170.165 1660.33 219.072 1632.43 227.21C1596.27 237.752 1555.98 205.995 1537.67 232.118C1519.35 258.241 1463.69 211.51 1488.88 170.713C1520.22 119.963 1482.88 119.179 1476.62 97.0729C1472.13 81.2075 1502.34 37.4827 1537.89 51.1841C1567.81 62.7133 1573.15 50.3014 1580.32 42.992C1590.66 32.4499 1628.9 39.7232 1621.01 72.4165Z" fill="#DEE9FF"/>
<path d="M1559.97 190.27C1550.94 189.86 1540.68 179.048 1545.19 176.174C1549.71 173.3 1549.16 167.279 1547.52 166.458C1537.39 162.49 1534.93 153.594 1532.74 142.235C1530.55 130.876 1531.78 94.7474 1531.78 94.7474L1544.51 88.3152L1579.68 86.2624L1589.67 102.822C1589.67 102.822 1586.01 112.708 1585.7 122.6C1588.1 120.684 1592.29 118.045 1595.42 119.928C1597.44 121.144 1598.66 123.043 1599.18 125.167C1599.86 127.921 1599.35 131.063 1597.88 133.614C1596.86 135.387 1595.67 137.156 1594.02 138.514C1591.68 140.435 1588.42 141.525 1583.38 140.638C1583.59 143.337 1588.85 143.452 1588.85 146.205C1588.85 148.805 1588.75 152.774 1588.85 154.279C1589.67 166.596 1596.38 170.839 1599.8 174.944C1603.22 179.05 1569.01 190.681 1559.97 190.27Z" fill="#A2BDFF"/>
<path d="M1533.84 139.36C1539.35 139.36 1543.82 134.498 1543.82 128.499C1543.82 122.5 1539.35 117.637 1533.84 117.637C1528.32 117.637 1523.85 122.5 1523.85 128.499C1523.85 134.498 1528.32 139.36 1533.84 139.36Z" fill="#0E84E5"/>
<path d="M1533.84 137.208C1538.29 137.208 1541.91 133.309 1541.91 128.499C1541.91 123.689 1538.29 119.79 1533.84 119.79C1529.38 119.79 1525.76 123.689 1525.76 128.499C1525.76 133.309 1529.38 137.208 1533.84 137.208Z" fill="#D4E5FF"/>
<path d="M1560.18 140.181C1565.51 140.181 1569.83 135.647 1569.83 130.054C1569.83 124.461 1565.51 119.927 1560.18 119.927C1554.85 119.927 1550.53 124.461 1550.53 130.054C1550.53 135.647 1554.85 140.181 1560.18 140.181Z" fill="#0E84E5"/>
<path d="M1560.18 138.608C1564.42 138.608 1567.86 134.779 1567.86 130.055C1567.86 125.331 1564.42 121.501 1560.18 121.501C1555.94 121.501 1552.5 125.331 1552.5 130.055C1552.5 134.779 1555.94 138.608 1560.18 138.608Z" fill="#D4E5FF"/>
<path d="M1543.34 125.166C1543.34 125.166 1548.31 123.28 1551.57 126.838C1551.57 127.454 1551.08 128.499 1551.08 128.499C1551.08 128.499 1546.69 125.059 1543.34 127.659C1542.8 126.583 1542.47 125.416 1543.34 125.166Z" fill="#0E84E5"/>
<path d="M1569.02 127.412L1585.55 121.501L1585.39 122.964L1569.54 129.586L1569.02 127.412Z" fill="#0E84E5"/>
<path d="M1501.85 200.274C1501.48 199.283 1501.34 198.224 1501.43 197.172C1501.52 196.119 1501.83 195.099 1502.36 194.183L1506.6 186.712C1506.6 186.712 1507.15 183.793 1519.56 182.059C1531.96 180.326 1543.9 177.208 1545.19 176.175C1545.19 176.175 1567.12 195.008 1599.4 174.483C1599.4 174.483 1625.75 189.358 1631.78 189.906C1635.31 190.228 1638.06 197.191 1639.73 202.884C1640.01 203.828 1640.09 204.82 1639.96 205.797C1639.84 206.774 1639.52 207.715 1639.02 208.562C1638.52 209.41 1637.85 210.145 1637.05 210.723C1636.25 211.301 1635.35 211.709 1634.39 211.923C1607.74 217.849 1515.1 235.67 1501.85 200.274Z" fill="#0E84E5"/>
<path d="M1594.02 138.512C1590.89 145.952 1588.76 149.082 1586.25 148.804C1583.63 148.514 1582.81 144.282 1582.98 140.56C1588.24 141.583 1591.62 140.483 1594.02 138.512Z" fill="#418DF9"/>
<path d="M1599.25 124.991C1599.23 125.051 1599.21 125.111 1599.18 125.166C1598.66 123.042 1597.44 121.143 1595.42 119.927C1592.21 117.995 1587.88 120.825 1585.51 122.757C1585.96 114.141 1585.2 104.392 1580.5 102.273C1572.29 98.5781 1571.96 99.3993 1566.85 99.673C1562.06 99.9302 1550.32 100.669 1548.33 99.5142C1549.64 100.746 1555.85 106.034 1565.74 106.516C1566.85 107.337 1566.13 108.021 1565.04 107.884C1563.94 107.747 1549.03 107.474 1537.8 93.3776C1537.8 93.3776 1531.3 105.552 1531.44 116.506C1531.44 116.506 1527.27 108.294 1529.87 96.5248C1531.44 87.7663 1535.48 88.5868 1535.48 88.5868C1535.48 88.5868 1532.74 69.0176 1551.49 70.7967C1556.96 71.481 1566.27 79.5554 1572.56 79.4185C1578.86 79.2816 1584.61 79.6923 1584.61 79.6923C1584.61 79.6923 1593.5 78.3237 1595.01 90.3669C1595.07 92.7913 1596.82 93.8839 1601.58 94.4726C1606.48 95.0792 1605.68 107.747 1599.25 124.991Z" fill="#418DF9"/>
<path d="M1644.01 229.061C1656.6 229.061 1666.8 218.86 1666.8 206.275C1666.8 193.69 1656.6 183.489 1644.01 183.489C1631.43 183.489 1621.22 193.69 1621.22 206.275C1621.22 218.86 1631.43 229.061 1644.01 229.061Z" fill="#418DF9" stroke="white" stroke-width="15" stroke-miterlimit="10"/>
<path d="M1652.79 204.366H1646.3C1646.25 204.366 1646.2 204.357 1646.16 204.337C1646.11 204.318 1646.07 204.29 1646.03 204.255C1646 204.219 1645.97 204.177 1645.95 204.131C1645.93 204.085 1645.92 204.035 1645.92 203.985V197.496C1645.92 196.993 1645.71 196.512 1645.35 196.157C1645 195.803 1644.51 195.604 1644.01 195.604C1643.51 195.604 1643.02 195.803 1642.67 196.157C1642.31 196.512 1642.11 196.993 1642.1 197.496V203.985C1642.1 204.086 1642.06 204.183 1641.99 204.255C1641.92 204.326 1641.82 204.366 1641.72 204.366H1635.23C1634.73 204.366 1634.24 204.568 1633.88 204.925C1633.53 205.283 1633.32 205.769 1633.32 206.275C1633.32 206.781 1633.53 207.266 1633.88 207.624C1634.24 207.982 1634.73 208.183 1635.23 208.183H1641.72C1641.77 208.183 1641.82 208.193 1641.87 208.212C1641.91 208.231 1641.96 208.26 1641.99 208.295C1642.03 208.33 1642.05 208.373 1642.07 208.419C1642.09 208.465 1642.1 208.515 1642.1 208.565V215.054C1642.11 215.557 1642.31 216.038 1642.67 216.393C1643.02 216.747 1643.51 216.946 1644.01 216.946C1644.51 216.946 1645 216.747 1645.35 216.393C1645.71 216.038 1645.92 215.557 1645.92 215.054V208.565C1645.92 208.515 1645.93 208.465 1645.95 208.419C1645.97 208.373 1646 208.33 1646.03 208.295C1646.07 208.26 1646.11 208.231 1646.16 208.212C1646.2 208.193 1646.25 208.183 1646.3 208.183H1652.79C1653.3 208.183 1653.78 207.982 1654.14 207.624C1654.5 207.266 1654.7 206.781 1654.7 206.275C1654.7 205.769 1654.5 205.283 1654.14 204.925C1653.78 204.568 1653.3 204.366 1652.79 204.366Z" fill="white"/>
</svg>
