<svg width="153" height="158" viewBox="0 0 153 158" fill="none" xmlns="http://www.w3.org/2000/svg">
<path d="M72.2167 33.5469L69.7262 23.2909C69.5767 22.676 69.2285 22.1322 68.7391 21.7495C68.2498 21.3668 67.6486 21.1681 67.035 21.1863L4.55544 23.0554C4.2884 23.0629 4.02542 23.1248 3.78153 23.2374C3.53765 23.35 3.31765 23.5111 3.13412 23.7116C2.95059 23.9121 2.80714 24.148 2.71196 24.4059C2.61678 24.6637 2.57175 24.9384 2.57944 25.2142C2.58552 25.43 2.06264 21.9125 11.9039 87.1931C11.9391 87.4313 12.0245 87.6587 12.154 87.8592C12.2835 88.0597 12.454 88.2285 12.6535 88.3535C12.853 88.4786 13.0766 88.557 13.3086 88.5831C13.5406 88.6092 13.7753 88.5825 13.9962 88.5048L41.7362 78.8438L72.2167 33.5469Z" fill="white"/>
<path d="M28.7266 87.1444L44.3066 80.6006L59.141 84.6826L41.224 91.9831L28.7266 87.1444Z" fill="white"/>
<path d="M15.8276 102.26L75.5629 78.0172L94.4299 82.8599L94.7179 83.6096L32.7589 113.05L15.8276 102.26Z" fill="white"/>
<path d="M103.026 70.5989C105.819 72.7158 109.236 73.7665 112.694 73.5717C114.573 73.6123 116.429 73.1461 118.08 72.2192C118.849 71.753 119.548 71.1745 120.157 70.5016C120.486 75.4903 120.425 78.3736 120.482 80.194C120.564 82.7964 120.846 85.388 121.325 87.9443C120.721 89.2404 120.309 90.6231 120.103 92.0459C118.377 91.0822 116.474 90.508 114.517 90.3613C113.377 90.2404 111.663 90.0049 109.408 89.6862C108.142 91.1059 107.041 92.6734 106.127 94.357L102.251 88.6264C102.981 82.6488 103.24 76.6199 103.026 70.5989Z" fill="white"/>
<path d="M77.2347 63.9155C83.9097 65.374 90.79 67.0664 97.3245 68.8358C98.5973 64.3327 99.5426 59.7376 100.152 55.0889C93.7715 53.5408 87.2598 52.638 80.7094 52.3932L84.8636 50.1952C84.749 43.6664 82.8083 37.3112 79.2753 31.8961C74.3497 33.5956 70.9229 34.2158 61.5186 38.2781C62.5998 35.2751 63.52 32.2129 64.2752 29.1054C58.7013 27.4038 52.9108 26.5804 47.0992 26.6633C45.8101 33.2563 44.0971 39.7532 41.9714 46.1109C40.8117 45.7969 35.1048 44.2575 33.4268 43.8218C32.1226 46.5081 31.2228 48.6888 30.2013 51.3861C29.3896 48.6386 28.4396 45.7906 27.3642 42.9866C23.7299 45.2356 21.5024 46.5976 10.2148 53.2324L14.277 80.0794L32.0892 74.6338L56.1667 83.5193C57.5801 79.2599 58.7296 74.9119 59.608 70.5016L67.9505 78.0894C70.5327 77.1898 72.9067 75.7479 74.9232 73.8545C76.9397 71.9612 78.555 69.6572 79.6674 67.0876C76.209 63.6457 72.5753 60.3967 68.782 57.3544L76.958 54.1265L77.2347 63.9155Z" fill="#81F8F8"/>
<path d="M104.856 71.8754C106.829 72.9187 109 73.5042 111.215 73.591C113.431 73.6778 115.638 73.2637 117.682 72.3778V64.1502C118.235 64.0725 118.781 63.9515 119.315 63.7883C121.09 63.2545 121.849 62.5268 124.626 60.9623C127.876 59.1278 126.846 59.5313 134.46 59.5493C135.35 58.8546 135.328 57.7234 134.881 56.6684C134.045 54.7059 130.66 53.6195 128.654 54.6462C128.068 55.0667 127.434 55.4095 126.765 55.6667C126.039 55.8908 125.277 55.9647 124.524 55.8842C123.704 55.5769 122.995 55.0175 122.492 54.2812C122.049 53.4103 121.764 52.4628 121.652 51.4858C121.191 49.7187 121.171 47.8595 121.596 46.0827C121.865 45.1595 121.999 45.3997 122.647 43.8847C123.419 42.0792 123.211 41.7848 123.953 40.2595C124.398 39.3474 124.573 39.2602 124.949 38.3386C125.597 36.4882 126.08 34.5806 126.393 32.6395C126.481 32.1827 127.093 29.0937 126.856 28.2341C126.653 27.6566 126.246 27.1798 125.716 26.8996C125.487 26.7544 125.214 26.7021 124.95 26.7528C124.122 26.9797 124.07 28.6078 123.4 30.794C123.032 31.9966 123.065 31.4503 122.064 34.051C121.582 35.307 121.014 36.9775 120.205 38.8395C119.903 39.4992 119.559 40.1378 119.176 40.7509C118.786 41.4504 118.22 42.0285 117.539 42.4246C117.877 38.8552 118.49 37.7931 118.93 34.4317C119.114 33.0258 119.027 32.9253 119.207 31.6638C119.569 29.1172 119.916 28.797 120.24 26.6327C120.325 26.2804 120.329 25.9126 120.254 25.5581C120.08 25.0615 119.759 24.6346 119.335 24.3384C118.912 24.0423 118.409 23.8922 117.898 23.9096C117.714 23.9605 117.55 24.0685 117.428 24.219C117.305 24.3696 117.231 24.5553 117.214 24.7511C117.001 26.2426 116.538 27.7003 116.385 29.2028C115.832 34.6193 114.749 35.0464 113.466 41.2455H112.421C112.511 36.457 112.07 32.5948 112.048 31.1292C112.012 28.8244 111.989 27.6752 112.062 27.0715C112.336 24.8382 111.433 24.0885 110.151 23.9936C109.914 23.9811 109.678 24.0182 109.456 24.1025C109.234 24.1868 109.031 24.3166 108.859 24.4842C108.6 24.8092 108.469 25.2221 108.489 25.6421C108.478 27.4907 108.135 29.3418 108.284 31.1849C108.612 35.2473 108.943 38.0239 107.654 41.8688L106.28 42.3217C103.838 38.6526 102.084 35.8996 101.51 34.9529C101.119 34.4189 100.826 33.8155 100.646 33.1726C100.631 32.7945 100.521 32.4271 100.326 32.1065C100.113 31.8222 99.8174 31.6161 99.4825 31.5186C99.1291 31.486 98.7759 31.5827 98.4846 31.7917C98.1206 32.0586 97.663 32.7471 98.0377 35.1916C98.6866 39.0106 100.398 42.5519 102.963 45.3832C102.408 48.7888 102.36 52.2619 102.82 55.6824C103.07 57.0642 103.388 58.4321 103.771 59.7809C103.876 60.3049 104.092 60.7984 104.403 61.2256C104.715 61.6528 105.115 62.0032 105.574 62.2513L104.856 71.8754Z" fill="#FFD997"/>
<path d="M103.026 74.0774C99.85 75.5956 96.2141 77.2268 92.7979 78.639C93.3223 79.9892 95.1851 84.8295 95.5886 85.8916C88.7061 89.3849 81.6274 93.2298 74.4888 97.4092C69.0527 93.9381 63.4038 90.8358 57.578 88.1218C55.0357 92.2525 52.053 96.0758 48.686 99.52C49.9438 100.321 51.1518 101.203 52.3028 102.16C55.773 105.019 55.5199 105.75 59.5228 110.689C54.1243 111.882 48.6437 112.638 43.1312 112.95L42.7132 121.217L39.3608 121.138L41.0381 116.87C32.2656 115.638 23.6806 113.257 15.49 109.786C14.692 111.724 11.4126 120.09 10.6062 122.245C13.1153 124.221 15.8472 125.876 18.742 127.173C16.4839 130.819 13.7278 134.108 10.5591 136.939C15.5855 140.819 21.337 143.578 27.4493 145.043C29.3509 142.698 30.9779 140.13 32.2966 137.392C35.0037 137.29 37.7846 137.136 40.535 136.921C40.3941 137.162 40.2543 137.405 40.1155 137.65C47.1899 140.146 54.515 141.806 61.951 142.601C61.8068 140.194 62.343 137.795 63.4946 135.698C69.3573 134.767 75.17 133.527 80.91 131.983C81.0928 134.531 81.4846 137.059 82.0812 139.539C86.8973 139.418 91.7005 138.97 96.4596 138.197C96.7684 140.673 97.5128 143.07 98.656 145.27C101.553 145.354 104.45 145.092 107.29 144.491C110.615 143.785 112.173 142.949 116.209 141.822C118.876 141.076 121.584 140.496 124.318 140.086C123.235 137.611 122.123 134.836 121.236 132.33C124.458 131.107 127.562 129.576 130.508 127.755C131.492 128.674 132.71 129.284 134.019 129.512C139.518 128.26 144.535 125.353 148.434 121.157C144.06 118.866 140.049 115.899 136.54 112.359L140.214 112.995C142.221 106.166 144.12 98.9195 145.8 91.5083L136.237 89.6C136.395 86.8664 136.363 84.1246 136.139 81.3959C128.668 79.9201 126.539 81.4909 120.444 79.4209C120.464 82.3402 120.726 85.2523 121.23 88.125C120.728 89.3883 120.34 90.6963 120.069 92.0327C117.623 90.6982 115.884 90.4705 113.141 90.111C112.188 89.9862 110.906 89.8292 109.376 89.6706C108.165 91.1367 107.07 92.7013 106.102 94.3492L102.226 88.6187C102.821 83.7968 103.088 78.9378 103.026 74.0774Z" fill="#81F8F8"/>
<path d="M118.536 50.5806C118.484 50.5806 118.434 50.57 118.387 50.5494C118.34 50.5287 118.297 50.4985 118.262 50.4605C116.763 48.7636 114.823 47.5483 112.673 46.9602C110.524 46.372 108.255 46.4358 106.14 47.1439C106.045 47.1732 105.943 47.1633 105.855 47.1161C105.768 47.0689 105.701 46.9882 105.67 46.8912C105.639 46.7942 105.646 46.6885 105.689 46.5966C105.732 46.5047 105.808 46.4338 105.901 46.3989C108.153 45.6446 110.567 45.575 112.855 46.1986C115.144 46.8222 117.211 48.1125 118.809 49.9157C118.861 49.9712 118.896 50.0411 118.909 50.1169C118.923 50.1926 118.914 50.2708 118.885 50.3417C118.856 50.4125 118.807 50.473 118.745 50.5155C118.683 50.558 118.61 50.5806 118.536 50.5806Z" fill="black"/>
<path d="M111.757 60.1435C111.69 60.1435 111.625 60.1258 111.568 60.0919C111.511 60.058 111.463 60.0092 111.429 59.9504C110.797 58.8408 110.464 57.5771 110.464 56.2899C110.464 55.0028 110.797 53.739 111.429 52.6295C111.454 52.5851 111.488 52.5462 111.528 52.5152C111.568 52.4842 111.613 52.4615 111.661 52.4486C111.71 52.4357 111.76 52.4328 111.81 52.44C111.859 52.4472 111.907 52.4644 111.95 52.4905C111.993 52.5167 112.03 52.5514 112.06 52.5926C112.09 52.6338 112.112 52.6807 112.125 52.7306C112.137 52.7806 112.14 52.8325 112.133 52.8836C112.126 52.9347 112.109 52.9838 112.084 53.0283C111.521 54.0168 111.224 55.1429 111.224 56.2899C111.224 57.4369 111.521 58.5631 112.084 59.5516C112.118 59.6112 112.136 59.6791 112.137 59.7483C112.137 59.8176 112.12 59.8857 112.087 59.9458C112.053 60.0059 112.005 60.0558 111.947 60.0906C111.889 60.1253 111.824 60.1435 111.757 60.1435Z" fill="black"/>
<path d="M35.6195 122.34C35.5237 122.34 35.865 122.455 31.6515 120.874C31.6037 120.856 31.5598 120.829 31.5224 120.794C31.4849 120.758 31.4547 120.716 31.4334 120.668C31.4122 120.621 31.4003 120.569 31.3987 120.517C31.397 120.464 31.4054 120.412 31.4235 120.363L32.5742 117.297C32.6093 117.204 32.6776 117.128 32.7652 117.085C32.8528 117.042 32.9531 117.035 33.0454 117.066L36.0816 118.077C36.1646 118.104 36.2359 118.16 36.2835 118.236C36.3311 118.311 36.3521 118.402 36.343 118.491L35.9942 121.988C35.9845 122.084 35.9409 122.173 35.8718 122.238C35.8027 122.303 35.7129 122.339 35.6195 122.34ZM32.2755 120.273L35.2912 121.407L35.5587 118.727L33.1563 117.927L32.2755 120.273Z" fill="black"/>
<path d="M29.2697 118.124C27.248 117.75 25.2695 117.16 23.366 116.363C23.3197 116.344 23.2775 116.315 23.2419 116.279C23.2062 116.243 23.1778 116.2 23.1583 116.152C23.1387 116.105 23.1284 116.054 23.1279 116.002C23.1275 115.951 23.1368 115.9 23.1555 115.852C23.1742 115.804 23.2018 115.76 23.2367 115.724C23.2717 115.687 23.3133 115.658 23.3593 115.637C23.4052 115.617 23.4546 115.606 23.5045 115.606C23.5544 115.605 23.6039 115.615 23.6503 115.634C25.5057 116.412 27.4346 116.988 29.4057 117.352C29.4548 117.361 29.5017 117.38 29.5436 117.408C29.5856 117.436 29.6218 117.472 29.6502 117.515C29.6786 117.557 29.6987 117.605 29.7092 117.655C29.7197 117.706 29.7206 117.758 29.7116 117.808C29.7027 117.859 29.6842 117.908 29.6571 117.951C29.6301 117.994 29.5951 118.032 29.554 118.061C29.513 118.09 29.4667 118.111 29.418 118.122C29.3692 118.133 29.3188 118.134 29.2697 118.124Z" fill="black"/>
<path d="M28.1152 120.087C27.3596 119.957 26.6116 119.784 25.8747 119.567C25.0212 119.319 24.1824 119.019 23.3629 118.668C23.3146 118.65 23.2703 118.623 23.2327 118.586C23.1951 118.55 23.165 118.506 23.1443 118.458C23.1235 118.409 23.1125 118.357 23.1118 118.304C23.1112 118.251 23.121 118.198 23.1407 118.149C23.1603 118.1 23.1894 118.056 23.2262 118.019C23.2629 117.981 23.3066 117.952 23.3545 117.933C23.4024 117.914 23.4536 117.905 23.5049 117.907C23.5563 117.909 23.6067 117.921 23.6532 117.944C25.1109 118.566 26.6297 119.024 28.1828 119.308C28.2762 119.326 28.3599 119.379 28.4174 119.457C28.4749 119.535 28.5021 119.632 28.4936 119.73C28.4851 119.827 28.4416 119.918 28.3716 119.984C28.3016 120.05 28.2101 120.087 28.1152 120.087Z" fill="black"/>
<path d="M84.42 121.798C84.325 121.798 84.6563 121.916 80.2445 120.297C80.1951 120.279 80.1498 120.251 80.1115 120.214C80.0732 120.177 80.0428 120.132 80.0221 120.082C80.0014 120.032 79.9909 119.979 79.9912 119.925C79.9916 119.87 80.0028 119.817 80.0241 119.767L81.5259 116.27C81.5642 116.181 81.6332 116.11 81.7197 116.07C81.8061 116.031 81.9036 116.026 81.9933 116.057L85.5524 117.284C85.645 117.315 85.7223 117.383 85.7681 117.472C85.8139 117.561 85.8249 117.665 85.7986 117.762L84.7863 121.511C84.764 121.594 84.7162 121.666 84.65 121.718C84.5838 121.77 84.503 121.798 84.42 121.798ZM80.8852 119.698L84.1631 120.895L84.9695 117.912L82.0815 116.916L80.8852 119.698Z" fill="black"/>
<path d="M91.9032 123.95C90.0635 123.476 88.2758 122.808 86.568 121.958C86.5216 121.936 86.48 121.905 86.4454 121.867C86.4108 121.828 86.384 121.783 86.3667 121.734C86.3493 121.684 86.3417 121.632 86.3442 121.58C86.3468 121.527 86.3595 121.476 86.3816 121.429C86.4037 121.381 86.4348 121.339 86.4729 121.305C86.5111 121.27 86.5556 121.244 86.6038 121.227C86.652 121.211 86.7029 121.204 86.7535 121.208C86.8042 121.212 86.8535 121.227 86.8986 121.251C88.5594 122.079 90.2983 122.728 92.0879 123.188C92.1363 123.201 92.1819 123.223 92.222 123.254C92.2622 123.285 92.296 123.323 92.3217 123.367C92.3474 123.412 92.3644 123.461 92.3717 123.512C92.3791 123.563 92.3766 123.615 92.3645 123.665C92.3524 123.715 92.3308 123.762 92.3011 123.803C92.2713 123.845 92.234 123.88 92.1911 123.906C92.1483 123.933 92.1008 123.951 92.0514 123.958C92.002 123.966 91.9516 123.963 91.9032 123.951V123.95Z" fill="black"/>
<path d="M91.9954 121.997C91.349 121.88 90.7134 121.706 90.0954 121.478C89.3594 121.213 88.6473 120.881 87.9674 120.487C87.8794 120.436 87.8146 120.351 87.7872 120.251C87.7599 120.151 87.7722 120.044 87.8214 119.953C87.8707 119.862 87.9529 119.795 88.05 119.767C88.1471 119.738 88.251 119.751 88.339 119.802C89.4999 120.474 90.757 120.951 92.063 121.215C92.1568 121.232 92.2408 121.286 92.2984 121.364C92.3559 121.443 92.3828 121.541 92.3737 121.639C92.3646 121.737 92.3202 121.827 92.2493 121.893C92.1784 121.959 92.0861 121.995 91.9908 121.994L91.9954 121.997Z" fill="black"/>
<path d="M93.8471 119.066C93.0979 119.011 92.3547 118.889 91.6256 118.702C90.6524 118.456 89.708 118.101 88.809 117.643C88.7183 117.597 88.6491 117.516 88.6165 117.417C88.5839 117.318 88.5907 117.21 88.6354 117.116C88.68 117.022 88.7589 116.951 88.8546 116.917C88.9503 116.884 89.055 116.891 89.1457 116.937C90.6251 117.691 92.2303 118.147 93.8752 118.28C93.976 118.284 94.0712 118.329 94.1398 118.405C94.2084 118.481 94.2449 118.583 94.2411 118.687C94.2374 118.791 94.1938 118.889 94.1199 118.96C94.046 119.031 93.9479 119.069 93.8471 119.065V119.066Z" fill="black"/>
<path d="M93.1832 136.239C93.1092 136.239 93.0367 136.217 92.9747 136.175C92.9128 136.133 92.864 136.074 92.8344 136.004L91.5249 132.893C91.5014 132.837 91.4909 132.776 91.4943 132.715C91.4976 132.654 91.5148 132.595 91.5443 132.542C91.5738 132.489 91.6149 132.444 91.6643 132.41C91.7138 132.376 91.7701 132.355 91.8289 132.348L94.9168 131.947C95.004 131.935 95.0924 131.956 95.1668 132.004C95.2412 132.052 95.2971 132.126 95.3249 132.212L96.2946 135.208C96.3119 135.262 96.3178 135.318 96.312 135.374C96.3063 135.43 96.289 135.484 96.2613 135.532C96.2337 135.581 96.1963 135.622 96.1517 135.654C96.1071 135.687 96.0563 135.708 96.0028 135.719C93.2493 136.238 93.2592 136.239 93.1832 136.239ZM92.4232 133.061L93.4112 135.405L95.432 135.026L94.7002 132.765L92.4232 133.061Z" fill="black"/>
<path d="M92.6072 130.857C92.5376 130.857 92.4693 130.837 92.4098 130.8C92.3502 130.763 92.3018 130.709 92.2698 130.645L91.2484 128.617C91.2223 128.571 91.2056 128.52 91.1992 128.467C91.1928 128.414 91.1969 128.361 91.2112 128.31C91.2254 128.259 91.2496 128.211 91.2822 128.17C91.3148 128.129 91.3552 128.095 91.4009 128.07C91.4466 128.046 91.4966 128.031 91.548 128.027C91.5993 128.023 91.6509 128.03 91.6996 128.047C91.7483 128.065 91.7931 128.092 91.8313 128.128C91.8695 128.163 91.9002 128.207 91.9217 128.255L92.9439 130.283C92.9741 130.343 92.9888 130.41 92.9867 130.477C92.9846 130.545 92.9657 130.61 92.9319 130.668C92.898 130.726 92.8504 130.773 92.7935 130.807C92.7367 130.84 92.6725 130.857 92.6072 130.857Z" fill="black"/>
<path d="M90.4328 131.534C90.3615 131.534 90.2917 131.513 90.2312 131.474C90.1707 131.435 90.1221 131.379 90.0908 131.313L89.023 129.041C89.0012 128.994 88.9885 128.944 88.9855 128.892C88.9826 128.841 88.9895 128.789 89.0058 128.741C89.0221 128.692 89.0476 128.647 89.0807 128.608C89.1139 128.57 89.1541 128.538 89.199 128.516C89.2439 128.493 89.2927 128.48 89.3425 128.477C89.3923 128.474 89.4423 128.481 89.4895 128.498C89.5366 128.515 89.5801 128.541 89.6175 128.575C89.6548 128.61 89.6852 128.651 89.707 128.698L90.771 130.969C90.7991 131.029 90.8122 131.095 90.809 131.161C90.8057 131.227 90.7863 131.292 90.7526 131.348C90.7188 131.404 90.6718 131.451 90.6159 131.483C90.56 131.516 90.497 131.533 90.4328 131.534Z" fill="black"/>
<path d="M141.039 99.5882C140.95 99.5882 141.26 99.6761 136.428 98.1642C136.334 98.1349 136.255 98.0697 136.207 97.9821C136.159 97.8944 136.145 97.7909 136.169 97.6932L137.146 93.5829C137.169 93.4874 137.226 93.4042 137.305 93.3496C137.384 93.2951 137.48 93.2733 137.574 93.2885L142.111 94.028C142.162 94.0363 142.211 94.0553 142.255 94.0838C142.298 94.1124 142.336 94.1498 142.365 94.1939C142.395 94.238 142.415 94.2878 142.425 94.3403C142.435 94.3928 142.434 94.4468 142.423 94.499L141.411 99.2765C141.393 99.3646 141.346 99.4436 141.278 99.5004C141.211 99.5571 141.126 99.5881 141.039 99.5882ZM136.993 97.5213L140.756 98.6988L141.592 94.7424L137.799 94.1246L136.993 97.5213Z" fill="black"/>
<path d="M135.908 93.8201C135.794 93.8201 131.789 93.2706 127.304 92.1857C127.254 92.1751 127.207 92.1544 127.165 92.1246C127.123 92.0949 127.087 92.0568 127.06 92.0126C127.032 91.9683 127.014 91.9189 127.005 91.8671C126.997 91.8154 126.998 91.7624 127.01 91.7113C127.022 91.6602 127.043 91.612 127.073 91.5696C127.103 91.5272 127.141 91.4915 127.185 91.4645C127.228 91.4375 127.277 91.4198 127.327 91.4125C127.377 91.4052 127.429 91.4084 127.478 91.4219C130.223 92.0868 132.867 92.5994 135.96 93.039C136.01 93.0425 136.059 93.0561 136.103 93.0791C136.148 93.102 136.188 93.1339 136.221 93.1728C136.254 93.2117 136.279 93.257 136.295 93.3059C136.311 93.3549 136.318 93.4066 136.314 93.4582C136.311 93.5097 136.298 93.5601 136.275 93.6063C136.253 93.6526 136.222 93.6939 136.185 93.7279C136.147 93.7619 136.103 93.7878 136.056 93.8043C136.008 93.8208 135.958 93.8275 135.908 93.824V93.8201Z" fill="black"/>
<path d="M133.282 95.6522C131.545 95.6531 129.824 95.3066 128.214 94.6317C128.12 94.5927 128.046 94.5169 128.006 94.421C127.967 94.3251 127.966 94.2169 128.004 94.1203C128.042 94.0237 128.115 93.9466 128.208 93.9059C128.301 93.8652 128.405 93.8642 128.499 93.9032C130.02 94.5402 131.646 94.867 133.287 94.8657C133.388 94.8657 133.484 94.907 133.556 94.9806C133.627 95.0542 133.667 95.1541 133.667 95.2582C133.669 95.3107 133.66 95.3632 133.642 95.4122C133.623 95.4612 133.595 95.5056 133.559 95.5427C133.522 95.5798 133.479 95.6086 133.432 95.6275C133.384 95.6464 133.333 95.6548 133.282 95.6522Z" fill="black"/>
<path d="M132.728 98.0818C131.39 97.899 130.068 97.6036 128.776 97.1986C128.68 97.1681 128.599 97.0993 128.552 97.0073C128.504 96.9153 128.494 96.8076 128.524 96.708C128.554 96.6084 128.62 96.525 128.709 96.4761C128.798 96.4272 128.903 96.4169 128.999 96.4474C130.236 96.8319 131.5 97.1172 132.78 97.3007C132.83 97.3042 132.879 97.3179 132.923 97.3409C132.968 97.3639 133.008 97.3958 133.041 97.4348C133.074 97.4738 133.099 97.519 133.115 97.568C133.131 97.617 133.137 97.6687 133.134 97.7203C133.13 97.7718 133.117 97.8221 133.095 97.8684C133.073 97.9147 133.042 97.9559 133.004 97.9899C132.966 98.0238 132.922 98.0497 132.875 98.0662C132.828 98.0826 132.777 98.0892 132.728 98.0857L132.728 98.0818Z" fill="black"/>
<path d="M128.446 102.917C128.351 102.881 128.274 102.808 128.232 102.713C128.19 102.618 128.186 102.51 128.221 102.413C128.257 102.315 128.328 102.236 128.419 102.192C128.511 102.149 128.616 102.145 128.71 102.181C131.638 103.306 134.758 103.801 137.878 103.634C137.928 103.63 137.979 103.637 138.026 103.654C138.074 103.67 138.118 103.697 138.155 103.732C138.192 103.767 138.222 103.809 138.243 103.856C138.264 103.903 138.276 103.954 138.277 104.006C138.28 104.058 138.272 104.109 138.255 104.158C138.238 104.206 138.213 104.251 138.179 104.289C138.146 104.327 138.105 104.358 138.06 104.38C138.015 104.402 137.966 104.415 137.916 104.418C134.693 104.592 131.47 104.081 128.446 102.917Z" fill="black"/>
<path d="M139.059 109.579C137.327 109.488 135.602 109.295 133.891 109.002C132.249 108.73 130.607 108.374 129.013 107.939C128.962 107.928 128.914 107.907 128.872 107.877C128.83 107.846 128.794 107.807 128.767 107.762C128.739 107.716 128.721 107.666 128.714 107.613C128.706 107.561 128.709 107.507 128.722 107.455C128.735 107.404 128.758 107.355 128.79 107.313C128.822 107.271 128.861 107.236 128.906 107.211C128.952 107.185 129.001 107.169 129.053 107.164C129.104 107.159 129.156 107.165 129.205 107.181C132.436 108.056 135.744 108.597 139.079 108.795C139.18 108.798 139.275 108.842 139.345 108.917C139.414 108.993 139.451 109.094 139.448 109.198C139.446 109.302 139.403 109.401 139.33 109.473C139.256 109.544 139.159 109.583 139.058 109.58L139.059 109.579Z" fill="black"/>
<path d="M39.3298 69.0666C39.2857 69.0666 36.0436 68.5556 36.0003 68.5493C35.9431 68.5404 35.8887 68.5181 35.8411 68.4841C35.7936 68.4501 35.7541 68.4054 35.7258 68.3533C35.6975 68.3012 35.6811 68.2432 35.6779 68.1836C35.6746 68.1239 35.6845 68.0643 35.7069 68.0093L37.3287 64.0058C37.3648 63.917 37.4311 63.845 37.5152 63.8034C37.5993 63.7619 37.6952 63.7537 37.7847 63.7805L40.1742 64.5089C40.265 64.5368 40.3425 64.5987 40.3914 64.6825C40.4403 64.7663 40.4572 64.8659 40.4387 64.9619L39.7015 68.7479C39.6849 68.8373 39.6388 68.918 39.571 68.9761C39.5032 69.0343 39.4179 69.0663 39.3298 69.0666ZM36.5938 67.8483L39.0258 68.2291L39.6194 65.1628L37.8965 64.6345L36.5938 67.8483Z" fill="black"/>
<path d="M48.2053 67.4621C48.1247 67.4621 48.4736 67.5556 42.6854 65.9165C42.5882 65.8891 42.5054 65.8229 42.4554 65.7326C42.4054 65.6422 42.3921 65.5349 42.4186 65.4345C42.4452 65.334 42.5092 65.2486 42.5967 65.1969C42.6842 65.1452 42.788 65.1316 42.8853 65.159L48.3064 66.6905C48.3955 66.7151 48.473 66.7725 48.5242 66.8518C48.5755 66.9311 48.597 67.027 48.5848 67.1215C48.5726 67.216 48.5275 67.3027 48.458 67.3654C48.3884 67.4281 48.2991 67.4625 48.2068 67.4621H48.2053Z" fill="black"/>
<path d="M47.5233 69.3108C47.4473 69.3108 47.8273 69.3893 42.1273 68.0548C42.0777 68.0444 42.0306 68.0239 41.9887 67.9944C41.9469 67.965 41.9112 67.9272 41.8837 67.8832C41.8562 67.8393 41.8374 67.7902 41.8286 67.7387C41.8197 67.6871 41.821 67.6343 41.8322 67.5833C41.8434 67.5323 41.8643 67.4841 41.8938 67.4416C41.9233 67.3991 41.9607 67.3631 42.0038 67.3357C42.047 67.3083 42.095 67.2901 42.145 67.2821C42.1951 67.2742 42.2462 67.2767 42.2953 67.2894L47.6069 68.536C47.6976 68.5578 47.7774 68.6131 47.8311 68.6916C47.8849 68.7701 47.9089 68.8662 47.8985 68.9618C47.8882 69.0573 47.8443 69.1456 47.7752 69.21C47.706 69.2743 47.6164 69.3102 47.5233 69.3108Z" fill="black"/>
<path d="M46.7102 71.3384C46.6342 71.3384 46.9101 71.409 42.4542 70.2182C42.4059 70.2053 42.3604 70.1827 42.3205 70.1517C42.2806 70.1207 42.247 70.0818 42.2217 70.0374C42.1963 69.993 42.1797 69.9438 42.1727 69.8927C42.1657 69.8417 42.1685 69.7897 42.181 69.7397C42.1935 69.6898 42.2154 69.6429 42.2454 69.6017C42.2754 69.5604 42.313 69.5257 42.356 69.4995C42.399 69.4733 42.4466 69.4561 42.4961 69.4489C42.5455 69.4417 42.5959 69.4446 42.6442 69.4575L46.806 70.5659C46.8955 70.5899 46.9734 70.6467 47.0252 70.7258C47.0771 70.8048 47.0992 70.9006 47.0876 70.9953C47.0759 71.0901 47.0313 71.1771 46.962 71.2403C46.8926 71.3034 46.8034 71.3383 46.711 71.3384H46.7102Z" fill="black"/>
<path d="M148.648 120.841C144.646 118.708 140.925 116.056 137.574 112.948C138.467 113.105 139.36 113.272 140.252 113.41C140.343 113.424 140.435 113.403 140.513 113.352C140.59 113.301 140.647 113.223 140.673 113.132C142.649 106.115 144.549 98.6658 146.177 91.6071C146.189 91.5559 146.19 91.5028 146.182 91.4509C146.174 91.399 146.155 91.3494 146.128 91.305C146.1 91.2607 146.065 91.2224 146.023 91.1926C145.981 91.1628 145.933 91.1419 145.883 91.1314C142.888 90.494 139.781 89.8754 136.627 89.2851C136.753 86.6683 136.709 84.0458 136.495 81.4351C136.503 81.343 136.478 81.2511 136.424 81.1774C136.37 81.1036 136.291 81.0533 136.203 81.0363L136.186 81.0261C134.361 80.6599 132.513 80.4273 130.657 80.3298C128.248 80.205 127.189 80.3792 125.141 80.1304C123.675 79.9491 122.231 79.6186 120.828 79.1437C120.784 76.4747 120.759 74.0043 120.525 70.1947V70.1845C120.476 69.2888 119.511 68.4574 118.038 68.0084V64.5168C119.259 64.3943 120.233 63.8534 122.907 62.3651C124.959 61.2252 126.716 60.2385 127.109 60.1302C128.705 59.6969 130.839 59.8845 132.913 60.0187C133.967 60.0878 134.496 60.1223 134.955 59.6749C135.812 58.8326 135.573 56.9839 134.823 55.8551C133.57 53.9287 130.598 53.4318 128.714 54.1948C127.675 54.6195 127.527 55.0952 126.364 55.3684C125.608 55.603 124.799 55.5877 124.051 55.3244C122.561 54.6477 122.193 52.3689 121.836 50.167C121.564 49.0156 121.561 47.814 121.827 46.6611C122.05 45.8424 122.302 45.7796 122.962 44.1641C123.603 42.5988 123.575 42.134 124.192 40.7053C124.713 39.487 124.841 39.6001 125.316 38.4932C125.841 37.0675 126.235 35.5938 126.493 34.0917C126.503 34.0407 126.767 32.813 127.111 30.4525C127.294 29.2177 127.377 28.4813 126.98 27.7105C126.547 26.8721 125.596 26.1091 124.82 26.3453C123.936 26.6115 123.743 28.1014 123.604 28.7325C123.159 30.7225 122.16 32.6049 121.453 34.558C120.028 38.5144 119.541 39.3332 119.356 39.6432C118.952 40.3323 118.502 40.9917 118.01 41.6167C118.346 39.4619 118.636 38.3433 118.959 36.902C119.516 34.412 119.2 34.0862 119.643 31.4212C120.266 27.6618 121.155 26.4238 120.274 24.9292C119.736 24.0194 118.661 23.2407 117.795 23.5162C117.047 23.7517 116.799 24.5924 116.275 27.5535C115.682 30.9454 115.692 31.9275 115.135 33.8947C114.331 36.1679 113.679 38.495 113.182 40.86C113.045 40.8465 112.908 40.8405 112.77 40.8419C112.834 38.59 112.777 36.3362 112.598 34.0909C112.323 29.5646 112.462 32.9919 112.414 26.434C112.502 25.7683 112.363 25.0918 112.021 24.5202C111.639 24.049 111.108 23.7338 110.521 23.6311C109.935 23.5283 109.333 23.6449 108.822 23.9597C108.295 24.3687 108.189 24.9763 108.07 26.2621C107.917 27.8993 107.864 29.5448 107.912 31.1888C108.168 33.4649 108.23 35.76 108.097 38.0473C107.969 39.229 107.723 40.3937 107.361 41.5225C107.038 41.5912 106.723 41.6965 106.422 41.8365C105.866 41.0625 105.334 40.2665 104.84 39.476C102.418 35.5974 101.083 33.4614 100.837 32.5413C100.787 32.2701 100.681 32.0131 100.526 31.7877C100.371 31.5624 100.172 31.3739 99.9407 31.2351C99.6664 31.1293 99.3715 31.0936 99.081 31.131C98.7905 31.1685 98.5131 31.278 98.2725 31.4502C96.4842 32.7274 98.3082 38.1698 99.1845 40.1967C100.044 42.1253 101.179 43.9097 102.552 45.4899C102.157 48.0427 102.037 50.6327 102.193 53.2128C102.446 57.272 103.462 61.5777 105.179 62.4883L104.804 68.0045C103.353 68.5744 102.506 69.4057 102.544 70.2606C102.596 71.4428 102.631 72.636 102.651 73.8292C99.4068 75.4909 96.075 76.9632 92.6713 78.2393C92.6234 78.2573 92.5796 78.2849 92.5423 78.3207C92.505 78.3565 92.475 78.3996 92.4542 78.4476C92.4333 78.4955 92.422 78.5473 92.421 78.5999C92.4199 78.6524 92.429 78.7047 92.4478 78.7535L93.8105 82.3088L75.6799 77.7048C75.6044 77.6844 75.5244 77.6896 75.4519 77.7197L59.2396 84.2783L56.5583 83.5499C57.8965 79.5236 58.9925 75.4157 59.84 71.2497C67.855 78.529 67.7075 78.412 67.8063 78.4529C67.8888 78.488 67.9808 78.4913 68.0655 78.4623C70.7175 77.5615 73.1575 76.0974 75.2287 74.1641C77.3 72.2308 78.9565 69.8711 80.0917 67.2368C80.1214 67.1618 80.1289 67.0795 80.1133 67.0002C80.0978 66.9209 80.0598 66.848 80.0043 66.7909C79.1592 65.9761 78.307 65.1712 77.4477 64.3762C80.699 65.122 93.9876 68.3758 97.2282 69.2134C97.3233 69.2378 97.4238 69.2233 97.5087 69.173C97.5937 69.1226 97.6566 69.0404 97.6842 68.9434C98.9651 64.407 99.917 59.7784 100.532 55.096C100.545 54.9988 100.522 54.9001 100.468 54.8193C100.415 54.7385 100.333 54.6815 100.241 54.6595C94.2529 53.231 88.1506 52.3736 82.0107 52.0981C83.0497 51.5815 84.0749 51.0776 85.0333 50.5485C85.1017 50.503 85.1568 50.4392 85.1927 50.3638C85.2286 50.2884 85.2439 50.2043 85.2369 50.1206C85.088 43.5451 83.1483 37.146 79.6403 31.6567C79.5841 31.4997 79.3994 31.4518 79.2041 31.4698C76.9469 32.1363 74.7581 32.8365 72.6149 33.5721L70.0947 23.1951C69.9196 22.4962 69.5211 21.8788 68.9638 21.443C68.4065 21.0071 67.7231 20.7784 67.0243 20.7938L4.54394 22.6629C4.20152 22.6729 3.86509 22.7581 3.55707 22.9129C3.24905 23.0678 2.97651 23.2886 2.7576 23.5607C2.5387 23.8329 2.37847 24.1501 2.28758 24.4913C2.19669 24.8324 2.17723 25.1896 2.2305 25.5391L11.5314 87.2535C11.6054 87.7344 11.8429 88.1724 12.2013 88.4889C12.5596 88.8053 13.0154 88.9796 13.4869 88.9805C13.9725 88.9805 12.3469 89.4703 40.7298 79.6037L40.2685 81.8841L28.5774 86.7095C28.5014 86.7511 28.2407 86.8437 28.2407 87.1138V89.1328C28.2407 89.2121 28.2639 89.2896 28.3073 89.3551C28.3507 89.4205 28.4123 89.4708 28.4839 89.4994L37.4641 93.0829C18.8114 100.628 16.08 101.718 15.6665 101.912C15.5982 101.949 15.5416 102.006 15.5035 102.076C15.4654 102.145 15.4474 102.225 15.4515 102.304C15.4591 102.427 15.4955 102.932 15.6331 104.895C15.6375 104.958 15.6565 105.019 15.6887 105.073C15.7209 105.127 15.7651 105.172 15.8178 105.204L30.0207 113.964C30.6438 114.348 31.3486 114.568 32.0732 114.604C32.7978 114.641 33.52 114.493 34.1763 114.173L54.1583 104.501C55.7497 106.253 56.8061 107.895 58.8201 110.416C53.6351 111.475 48.385 112.161 43.1079 112.468C42.9042 112.48 42.7651 112.605 42.7453 112.893C42.5173 116.202 42.4269 118.502 42.3486 120.808L39.8786 120.751C40.4289 119.464 40.9426 118.206 41.3948 116.996C41.4154 116.941 41.4237 116.882 41.4191 116.823C41.4145 116.765 41.3972 116.708 41.3683 116.657C41.3395 116.606 41.2999 116.562 41.2525 116.529C41.2051 116.496 41.1511 116.475 41.0946 116.466C32.3581 115.189 23.8041 112.82 15.6209 109.411C15.5746 109.392 15.5251 109.382 15.4752 109.382C15.4252 109.383 15.3759 109.394 15.3299 109.414C15.284 109.434 15.2423 109.463 15.2074 109.5C15.1724 109.537 15.1448 109.58 15.1262 109.628C15.0737 109.763 10.2059 122.065 10.2059 122.065C10.1737 122.147 10.1691 122.237 10.1929 122.322C10.2166 122.407 10.2672 122.481 10.3367 122.532C12.8123 124.358 15.436 125.96 18.1783 127.321C15.9638 130.774 13.3168 133.909 10.3063 136.646C10.2636 136.685 10.2299 136.733 10.2077 136.787C10.1855 136.841 10.1753 136.9 10.178 136.958C10.1806 137.017 10.1959 137.074 10.2229 137.126C10.2498 137.178 10.2877 137.223 10.3336 137.257C15.4443 141.117 21.2433 143.896 27.3971 145.434C27.4685 145.452 27.5434 145.448 27.6127 145.423C27.682 145.398 27.7429 145.352 27.7878 145.292C29.568 142.92 31.1709 140.411 32.5826 137.788C34.9979 137.726 37.4276 137.587 39.8315 137.38C39.7912 137.449 39.7084 137.6 39.7084 137.6C39.6807 137.651 39.6643 137.707 39.6603 137.765C39.6563 137.823 39.6647 137.881 39.6851 137.935C39.7054 137.989 39.7372 138.038 39.778 138.078C39.8188 138.118 39.8677 138.148 39.9212 138.166C47.0884 140.529 54.4616 142.165 61.9361 143.05C62.031 143.058 62.1256 143.03 62.2012 142.97C62.2768 142.91 62.3278 142.823 62.3442 142.726C62.2541 140.4 62.7576 138.089 63.8042 136.027C69.9837 134.997 75.1996 133.861 80.5629 132.481C80.7484 134.897 81.1347 137.292 81.7174 139.639C81.7383 139.723 81.7858 139.798 81.8524 139.852C81.919 139.905 82.0009 139.934 82.0852 139.934C83.4456 139.934 88.9769 139.583 93.8652 138.957C94.6252 138.859 95.3959 138.744 96.1627 138.633C96.5217 141.013 97.2538 143.317 98.3302 145.454C98.3613 145.516 98.408 145.569 98.4653 145.606C98.5226 145.643 98.5886 145.664 98.6563 145.666C101.919 145.764 105.18 145.428 108.36 144.665C112.388 143.684 114.136 142.596 119.456 141.424C121.077 141.066 122.744 140.77 124.413 140.546C124.471 140.538 124.527 140.516 124.576 140.481C124.625 140.447 124.666 140.401 124.695 140.348C124.724 140.294 124.74 140.235 124.743 140.174C124.745 140.113 124.734 140.052 124.71 139.996C123.668 137.627 122.646 135.076 121.736 132.547C124.715 131.313 127.614 129.885 130.417 128.271C131.457 129.091 132.667 129.651 133.952 129.906C134.005 129.915 134.059 129.913 134.11 129.899C139.643 128.523 144.704 125.607 148.746 121.469C148.789 121.425 148.821 121.372 148.839 121.313C148.858 121.253 148.862 121.191 148.853 121.129C148.843 121.068 148.82 121.01 148.784 120.96C148.749 120.91 148.702 120.869 148.648 120.841ZM145.346 91.8183C143.765 98.6478 141.931 105.832 140.036 112.582C134.696 111.738 129.413 110.551 124.216 109.029C124.279 107.071 124.733 95.7888 124.733 95.7888C124.742 95.5698 124.615 95.3633 124.266 95.3963C123.844 95.4387 122.677 95.6656 119.098 96.3383C120.756 92.3858 120.335 91.2876 121.848 87.5965C129.499 88.7371 137.53 90.1627 145.346 91.8183ZM64.3506 120.205C65.7373 118.051 66.7973 115.691 67.494 113.206C68.0123 112.717 68.5423 112.24 69.0839 111.775C69.2785 113.533 69.6159 115.41 69.7763 116.099C70.4578 119.158 71.425 122.141 72.6643 125.006C69.9821 123.247 67.2066 121.644 64.3506 120.205ZM72.3717 125.743C62.7769 126.398 53.1525 126.449 43.5517 125.896C47.3034 122.472 51.5028 119.611 56.0263 117.396C61.7553 119.549 67.2368 122.348 72.3717 125.743ZM65.3857 102.524C69.8515 102.539 74.3107 102.171 78.7177 101.425C77.7675 103.031 76.6265 104.508 75.3212 105.821C72.9797 108.155 69.5863 109.776 65.1889 114.435C66.2776 110.553 66.3456 106.442 65.3857 102.524ZM48.3762 99.8959C48.5631 100.006 48.744 100.131 48.9302 100.241L31.3795 108.319L22.5787 102.562L57.0235 88.1767C54.5981 92.2218 51.6671 95.919 48.3063 99.1729C48.2521 99.2183 48.2097 99.2769 48.1829 99.3434C48.156 99.4099 48.1456 99.4822 48.1526 99.5539C48.1595 99.6256 48.1836 99.6943 48.2226 99.754C48.2616 99.8137 48.3144 99.8625 48.3762 99.8959ZM57.3001 89.1924C57.6378 91.4956 58.1592 93.7659 58.8589 95.9803C56.0117 97.731 52.8137 98.784 49.5109 99.0583C52.4687 96.0926 55.0826 92.7818 57.3001 89.1924ZM58.0039 88.7489C65.1585 92.0719 72.0046 96.0624 78.457 100.671C73.0019 101.581 67.471 101.913 61.9505 101.661C59.9587 97.6097 58.6254 93.2474 58.0039 88.7489ZM57.8693 87.8226L66.2293 84.3302L76.3799 88.0377L67.0083 92.4863C64.0185 90.8064 60.9641 89.249 57.8693 87.8234V87.8226ZM112.236 82.903C112.354 84.63 112.498 86.3473 112.668 88.055C110.613 88.0772 108.576 87.6678 106.68 86.8516C106.724 85.0217 106.774 83.1927 106.815 81.3629C108.499 82.2584 110.345 82.7829 112.236 82.903ZM106.836 80.4891L106.988 73.1839C108.555 73.72 110.195 73.9922 111.846 73.9901C111.922 79.0385 112.158 81.6831 112.186 82.1196C110.31 81.9795 108.485 81.4233 106.836 80.4891ZM99.4976 101.763C101.821 104.033 104.454 105.939 107.312 107.422C104.508 110.068 102.006 113.036 99.8517 116.267C99.3425 110.577 99.7765 109.482 99.4976 101.762V101.763ZM98.8257 105.121C94.6 107.741 90.2426 110.127 85.772 112.27C87.0649 108.459 88.0358 104.539 88.6737 100.555C89.9657 100.387 91.2501 100.185 92.5261 99.9148C92.5881 99.9016 92.646 99.8727 92.6944 99.8306C92.7429 99.7885 92.7804 99.7346 92.8035 99.6738C93.3796 98.165 93.9944 96.6547 94.6313 95.1498C98.9767 96.0821 103.273 97.2455 107.502 98.6352C105.965 98.9492 99.2643 100.35 98.9694 100.449C98.9229 100.465 98.8798 100.489 98.8425 100.522C98.5879 100.732 98.7551 100.576 98.8257 105.12V105.121ZM98.8356 108.554L95.5866 107.959C96.6856 107.324 97.7688 106.678 98.8364 106.024C98.8463 106.663 98.8463 107.291 98.8356 108.554V108.554ZM84.9687 112.268C82.3993 109.336 80.4251 105.901 79.163 102.168C79.825 101.095 79.8333 101.051 79.8364 100.919V100.91C82.5203 101.057 85.2114 100.973 87.8817 100.658C87.2399 104.608 86.2651 108.492 84.9687 112.267V112.268ZM108.048 107.783C109.636 108.562 111.284 109.205 112.975 109.704C113.028 109.72 113.084 109.723 113.139 109.714C113.193 109.706 113.245 109.684 113.291 109.653C114.274 108.969 115.22 108.23 116.126 107.441C117.945 110.7 120.174 113.696 122.754 116.351C115.389 116.895 108.32 117.122 100.293 116.986C102.518 113.614 105.121 110.524 108.048 107.782V107.783ZM113.013 108.899C108.084 107.416 103.575 104.723 99.8715 101.049C103.23 100.316 119.221 97.1021 123.678 96.2928C121.24 101.378 117.565 105.721 113.013 108.898V108.899ZM109.201 98.2843C108.542 97.3266 107.639 96.0078 106.568 94.4048C107.425 92.8659 108.43 91.4196 109.566 90.0873C115.735 90.8559 117.394 91.0812 119.65 92.2524C119.303 93.7164 118.82 95.1421 118.206 96.5094C115.471 97.0315 109.457 98.2317 109.201 98.2835V98.2843ZM112.602 73.9634C114.306 73.9147 115.986 73.5422 117.559 72.8644C117.571 76.2211 117.659 78.5329 117.787 81.0394C116.667 81.5583 115.48 81.9038 114.263 82.0646C113.825 82.1153 113.385 82.1399 112.944 82.1384C112.88 81.0991 112.678 78.8571 112.602 73.9634ZM112.741 88.8384C112.771 89.1336 112.8 89.4298 112.826 89.727C111.59 89.5567 110.457 89.413 109.457 89.2874C109.397 89.2787 109.335 89.2858 109.277 89.3082C109.22 89.3305 109.168 89.3674 109.128 89.4154C108.161 90.5232 107.291 91.7169 106.527 92.9824L106.657 87.6868C108.592 88.4833 110.66 88.8748 112.743 88.8384H112.741ZM108.06 97.9813C103.75 96.5671 99.3744 95.3781 94.949 94.419C96.1787 91.5592 97.3521 88.9295 99.585 84.685C102.193 89.2613 105.022 93.699 108.062 97.9813H108.06ZM94.0963 94.4574C94.0616 94.5038 94.037 94.5574 94.0241 94.6144C93.3788 96.1318 92.7541 97.6595 92.1697 99.1824C90.8822 99.4493 89.5857 99.6573 88.283 99.819C88.2706 99.8182 88.2582 99.8182 88.2458 99.819C85.1663 100.2 82.0591 100.283 78.9647 100.068C77.7289 99.1839 76.4437 98.3 75.1206 97.4247C82.8376 93.0028 91.0046 88.6249 98.6897 84.7478C96.6134 88.7403 95.4035 91.3975 94.0985 94.4574H94.0963ZM74.391 96.9522C73.3118 96.2457 73.4205 96.3422 72.6141 95.8351L94.8859 85.1254L95.1078 85.7055C88.2184 89.2482 81.1747 93.057 74.3933 96.9522H74.391ZM69.7808 111.201C72.5928 108.887 73.8172 108.411 75.8471 106.382C76.8818 105.34 77.817 104.198 78.6401 102.971C79.4052 105.097 80.3973 107.128 81.5981 109.027C80.6899 110.919 79.752 112.76 78.8051 114.513L78.2966 113.151C78.2645 113.065 78.2041 112.994 78.126 112.949C78.0479 112.905 77.9571 112.89 77.8695 112.907C75.2901 113.417 72.7851 114.268 70.4162 115.439C70.1365 114.038 69.9252 112.624 69.7831 111.201H69.7808ZM82.0791 109.781C82.9122 111.021 83.8353 112.195 84.8402 113.292C84.8863 113.329 84.9354 113.362 84.9869 113.391C85.0808 113.426 85.1843 113.421 85.2749 113.378C88.9617 111.633 91.7228 110.152 94.5249 108.562L98.8273 109.347C98.7851 112.039 98.9065 114.732 99.1905 117.408C99.2491 117.605 99.3311 117.73 99.5303 117.752C99.7294 117.774 104.808 117.809 106.854 117.79C104.865 121.166 103.192 124.731 101.857 128.435C92.8985 127.174 84.1175 124.816 75.6989 121.411C78.027 117.655 80.1576 113.773 82.0814 109.781H82.0791ZM107.743 117.788C109.192 117.769 110.636 117.739 112.075 117.697L110.924 123.108C110.903 123.209 110.921 123.314 110.974 123.402C111.027 123.489 111.111 123.551 111.208 123.575C112.846 123.967 114.487 124.333 116.12 124.663C114.598 128.393 112.646 131.919 110.308 135.167C107.993 131.904 105.914 128.471 104.086 124.894C105.145 122.44 106.367 120.065 107.745 117.786L107.743 117.788ZM111.747 122.898L112.858 117.673C116.158 117.562 119.51 117.376 122.843 117.13C125.465 120.343 128.353 123.314 131.475 126.008C124.832 125.5 118.237 124.46 111.75 122.896L111.747 122.898ZM116.713 106.927C119.629 104.283 122.061 101.119 123.893 97.5857C123.81 99.4218 123.361 111.614 123.262 115.773C120.708 113.138 118.507 110.163 116.715 106.926L116.713 106.927ZM135.865 89.1461C135.409 89.0629 130.724 88.2277 128.85 87.9152C131.314 86.2394 133.633 84.3485 135.784 82.2633C135.951 84.5529 135.98 86.8512 135.87 89.1446L135.865 89.1461ZM125.047 80.9099C128.07 81.2781 130.114 80.7301 135.292 81.6619C132.967 83.9257 130.441 85.9581 127.747 87.7323C125.695 87.3964 123.662 87.0784 121.667 86.7841C121.59 86.7765 121.513 86.7917 121.444 86.828C121.105 84.5578 120.905 82.2679 120.844 79.9718C122.215 80.4188 123.624 80.7323 125.052 80.9083L125.047 80.9099ZM120.626 86.5282C120.697 87.0329 120.778 87.5353 120.858 88.0354C120.442 89.1618 120.099 90.3157 119.831 91.4894C119.679 91.4109 119.521 91.3324 119.366 91.2593C119.225 89.9824 119.099 88.7002 118.986 87.4128C119.551 87.1507 120.1 86.8548 120.631 86.5266L120.626 86.5282ZM120.101 80.61C120.16 82.18 120.287 83.8285 120.519 85.6804C120.003 86.0107 119.469 86.3093 118.919 86.5745C118.779 84.8935 118.662 83.2118 118.57 81.5293C119.101 81.2584 119.614 80.9508 120.106 80.6085L120.101 80.61ZM119.837 71.5417C120.046 75.5499 120.035 77.9112 120.075 79.6704C119.583 80.0408 119.066 80.3737 118.528 80.6666C118.413 78.3257 118.318 75.9126 118.313 72.5159C118.861 72.2599 119.375 71.9319 119.841 71.5401L119.837 71.5417ZM118.568 90.9147C116.956 90.3641 115.289 90.0026 113.599 89.8369C113.564 89.4962 113.535 89.1524 113.499 88.8117C115.128 88.7042 116.732 88.338 118.253 87.7261C118.352 88.7913 118.46 89.8534 118.573 90.9132L118.568 90.9147ZM118.184 86.9057C116.666 87.5413 115.058 87.9183 113.423 88.022C113.256 86.3343 113.113 84.6368 112.995 82.9297C114.657 82.9094 116.298 82.5525 117.827 81.8794C117.922 83.553 118.047 85.2329 118.188 86.9042L118.184 86.9057ZM102.95 53.1625C102.794 50.5783 102.921 47.9841 103.33 45.4295C103.34 45.3704 103.336 45.3098 103.32 45.2524C103.303 45.1949 103.274 45.1422 103.235 45.0982C102.198 43.9417 101.3 42.6602 100.561 41.2815C101.369 41.2537 102.155 41.0024 102.837 40.5538C102.922 40.4981 102.983 40.4098 103.005 40.3081C103.027 40.2065 103.009 40.0999 102.955 40.0118C102.929 39.9682 102.894 39.9304 102.853 39.9007C102.812 39.871 102.766 39.8498 102.717 39.8385C102.619 39.8156 102.516 39.834 102.43 39.8897C101.76 40.3312 100.971 40.5422 100.177 40.4926C100.077 40.2862 99.968 40.0852 99.873 39.874C99.5719 39.1711 99.3053 38.453 99.0743 37.7223C99.6311 37.7447 100.181 37.5884 100.648 37.2749C100.692 37.2481 100.731 37.2124 100.761 37.1698C100.792 37.1273 100.814 37.0789 100.826 37.0274C100.837 36.9759 100.839 36.9225 100.83 36.8703C100.822 36.8182 100.803 36.7683 100.775 36.7239C100.748 36.6794 100.711 36.6411 100.669 36.6115C100.627 36.5818 100.579 36.5613 100.529 36.5511C100.478 36.541 100.427 36.5415 100.376 36.5526C100.326 36.5636 100.279 36.585 100.237 36.6155C99.8218 36.8977 99.3159 37.0006 98.828 36.902C98.2018 34.6459 98.0179 32.5845 98.7034 32.0947C98.8357 32.0008 98.9869 31.939 99.1455 31.9137C99.3042 31.8884 99.4664 31.9004 99.6199 31.9487C99.9239 32.0939 100.049 32.5547 100.109 32.7776C100.379 33.7856 101.655 35.8297 104.198 39.9015C104.759 40.8019 105.366 41.7015 106.004 42.5705C106.059 42.6463 106.139 42.6989 106.229 42.7184C106.319 42.7379 106.413 42.723 106.493 42.6765C107.224 42.254 108.072 42.0983 108.899 42.2345C108.996 42.246 109.093 42.2184 109.171 42.1575C109.249 42.0966 109.301 42.007 109.317 41.9074C109.333 41.8078 109.311 41.7058 109.255 41.6226C109.2 41.5394 109.116 41.4813 109.02 41.4605C108.744 41.4167 108.464 41.4004 108.184 41.4118C108.804 39.3254 109.053 37.1403 108.919 34.9623C109.697 35.0678 110.487 35.0458 111.259 34.8971C111.309 34.8883 111.356 34.8695 111.398 34.8417C111.441 34.8139 111.477 34.7778 111.506 34.7353C111.535 34.6929 111.555 34.645 111.566 34.5944C111.577 34.5438 111.577 34.4915 111.569 34.4405C111.56 34.3895 111.541 34.3409 111.514 34.2974C111.487 34.2539 111.451 34.2164 111.41 34.187C111.369 34.1576 111.322 34.137 111.273 34.1263C111.224 34.1156 111.173 34.1151 111.124 34.1247C110.387 34.2598 109.634 34.2738 108.893 34.1663C108.723 32.5929 108.647 31.0103 108.665 29.4273C109.235 29.6164 109.831 29.712 110.43 29.7106C110.531 29.7061 110.626 29.6636 110.698 29.5912C110.77 29.5188 110.814 29.4217 110.821 29.3181C110.821 29.214 110.781 29.1142 110.71 29.0406C110.638 28.967 110.542 28.9256 110.441 28.9256C110.439 28.9244 110.437 28.9238 110.435 28.9238C110.433 28.9238 110.431 28.9244 110.429 28.9256C109.83 28.9291 109.235 28.8173 108.675 28.5959C108.702 27.84 108.751 27.0848 108.821 26.3344C108.932 25.1231 109.021 24.7801 109.276 24.583C109.626 24.394 110.027 24.3319 110.415 24.4066C110.802 24.4814 111.154 24.6887 111.414 24.9951C111.634 25.2903 111.642 25.6294 111.65 26.4364C111.704 33.8154 111.591 30.1078 111.835 34.1373C112.016 36.3932 112.072 38.6579 112.005 40.9204C111.884 40.9463 111.763 40.9746 111.644 41.0115C111.547 41.0419 111.466 41.1107 111.419 41.2027C111.372 41.2947 111.361 41.4024 111.391 41.5021C111.42 41.6018 111.487 41.6854 111.576 41.7344C111.665 41.7835 111.769 41.7939 111.866 41.7635C112.32 41.6188 112.799 41.5806 113.269 41.6516C113.739 41.7226 114.188 41.9011 114.583 42.1741C114.667 42.2282 114.768 42.2464 114.864 42.2248C114.961 42.2033 115.046 42.1437 115.1 42.0587C115.155 41.9737 115.176 41.87 115.158 41.7696C115.14 41.6692 115.085 41.58 115.004 41.521C114.671 41.2939 114.307 41.1197 113.925 41.0044C114.326 39.0184 114.859 37.0633 115.521 35.153C115.729 34.581 115.904 33.9961 116.042 33.4017C116.235 33.6694 116.488 33.885 116.779 34.03C117.07 34.175 117.391 34.2452 117.714 34.2346C117.815 34.2354 117.912 34.1949 117.984 34.1219C118.055 34.0488 118.096 33.9493 118.097 33.8452C118.098 33.7411 118.059 33.641 117.988 33.5668C117.917 33.4926 117.821 33.4504 117.72 33.4496C117.482 33.4478 117.248 33.3889 117.036 33.2777C116.936 33.2243 116.475 32.9276 116.193 32.7282C116.386 31.8027 116.485 31.0271 116.684 29.7303C117.229 30.0896 117.838 30.3317 118.475 30.4423C118.574 30.4594 118.676 30.4351 118.758 30.3746C118.84 30.3141 118.896 30.2224 118.913 30.1196C118.929 30.0169 118.906 29.9115 118.847 29.8267C118.788 29.7419 118.7 29.6846 118.6 29.6675C117.953 29.5524 117.342 29.2759 116.821 28.8621C116.88 28.5025 116.943 28.1218 117.018 27.6893C117.458 25.1945 117.702 24.3616 118.011 24.2627C118.444 24.1261 119.207 24.638 119.619 25.3343C120.293 26.4804 119.506 27.5558 118.887 31.2838C118.438 33.9857 118.754 34.2997 118.211 36.7246C117.753 38.5988 117.389 40.4963 117.122 42.4096C116.768 42.3361 116.405 42.32 116.047 42.3617C115.95 42.3798 115.865 42.4355 115.807 42.5171C115.75 42.5987 115.725 42.7001 115.738 42.8001C115.751 42.9001 115.801 42.9911 115.877 43.0542C115.954 43.1172 116.05 43.1476 116.148 43.1388C116.626 43.0738 117.113 43.1426 117.557 43.3381C118.001 43.5337 118.386 43.8487 118.672 44.2504C118.7 44.2962 118.736 44.3355 118.78 44.3659C118.823 44.3963 118.872 44.4171 118.923 44.427C118.975 44.437 119.028 44.4358 119.079 44.4236C119.13 44.4114 119.178 44.3884 119.22 44.3562C119.262 44.3239 119.297 44.283 119.323 44.236C119.349 44.189 119.365 44.137 119.371 44.0832C119.377 44.0294 119.371 43.975 119.356 43.9234C119.34 43.8718 119.314 43.8241 119.28 43.7833C118.961 43.34 118.549 42.9782 118.073 42.7259C118.792 41.8957 119.436 40.9995 119.997 40.0483C120.852 38.6149 121.908 35.4042 122.548 33.8272C123.18 34.1357 123.779 34.5133 124.334 34.9537C124.412 35.0202 124.512 35.0521 124.612 35.0425C124.713 35.0328 124.805 34.9824 124.87 34.9022C124.934 34.8221 124.965 34.7188 124.956 34.6151C124.946 34.5114 124.898 34.4157 124.82 34.3492C124.197 33.8787 123.528 33.4767 122.824 33.1497C122.87 33.0383 122.916 32.9268 122.962 32.8177C124.791 28.4562 124.475 27.2599 125.025 27.095C125.366 26.993 125.994 27.4789 126.301 28.0763C126.573 28.6022 126.529 29.1384 126.351 30.3308C126.013 32.6615 125.743 33.9041 125.743 33.9159C125.495 35.3671 125.117 36.7914 124.614 38.1706C124.194 39.1503 124.056 39.082 123.529 40.2901C123.399 40.1598 123.28 40.0185 123.141 39.8976C122.792 39.5979 122.414 39.3349 122.014 39.1126C121.925 39.0646 121.822 39.0548 121.726 39.0851C121.631 39.1155 121.55 39.1836 121.503 39.2747C121.456 39.3657 121.445 39.4724 121.473 39.5716C121.502 39.6707 121.567 39.7543 121.655 39.8042C122.242 40.1236 122.77 40.549 123.213 41.0602C122.782 42.2039 122.825 42.4504 122.254 43.8469C121.585 45.4829 121.354 45.4601 121.088 46.4374C120.791 47.7007 120.787 49.019 121.079 50.2839C121.468 52.6923 121.872 55.1831 123.739 56.0317C124.618 56.3618 125.575 56.3969 126.475 56.1322C126.286 56.7308 126.217 57.3624 126.269 57.9895C126.274 58.041 126.288 58.0911 126.311 58.137C126.335 58.1828 126.366 58.2235 126.405 58.2567C126.443 58.2898 126.488 58.3149 126.536 58.3303C126.583 58.3457 126.634 58.3513 126.684 58.3467C126.733 58.342 126.782 58.3273 126.826 58.3033C126.871 58.2792 126.91 58.2464 126.942 58.2067C126.974 58.167 126.999 58.1211 127.014 58.0717C127.028 58.0223 127.034 57.9704 127.029 57.9188C126.967 57.1928 127.102 56.4631 127.418 55.8119C128.062 55.505 128.363 55.1682 128.989 54.9123C130.6 54.2615 133.169 54.7082 134.192 56.2837C134.808 57.2123 134.925 58.6041 134.428 59.0932C134.221 59.2957 133.911 59.2855 132.959 59.2227C130.914 59.0885 128.647 58.8867 126.912 59.3585C126.011 59.7084 125.145 60.1489 124.328 60.6734C120.376 62.8518 118.372 64.6455 115.072 63.2639C114.979 63.2288 114.877 63.2322 114.787 63.2734C114.697 63.3146 114.626 63.3904 114.588 63.4847C114.551 63.579 114.551 63.6845 114.588 63.7789C114.625 63.8734 114.696 63.9493 114.786 63.9908C115.579 64.3211 116.422 64.5014 117.277 64.523V72.125C115.671 72.8207 113.949 73.1832 112.208 73.1918C109.822 73.2432 107.458 72.7131 105.308 71.6446C105.348 71.0794 105.923 62.7018 105.923 62.7018C107.784 63.0849 108.257 63.3495 108.887 63.2231C109.507 63.0805 110.057 62.7125 110.437 62.1861C110.501 62.1056 110.531 62.0022 110.522 61.8985C110.512 61.7949 110.462 61.6996 110.385 61.6334C110.307 61.5673 110.207 61.5359 110.106 61.5461C110.006 61.5562 109.914 61.6071 109.85 61.6876C109.582 62.0698 109.191 62.3409 108.747 62.4522C107.712 62.3109 106.685 62.1088 105.672 61.847C104.406 61.4953 103.235 57.7579 102.95 53.1625ZM106.232 72.9084L106.087 80.0456C105.121 79.4427 104.222 78.7319 103.407 77.9261C103.443 75.9267 103.407 73.2813 103.338 71.464C104.254 72.0432 105.223 72.5271 106.232 72.9084ZM103.38 78.9639C104.209 79.7154 105.108 80.3799 106.065 80.9476C106.023 82.8033 105.973 84.6591 105.927 86.514C104.917 86.0105 103.963 85.3934 103.083 84.674C103.228 82.7554 103.33 80.8479 103.38 78.9623V78.9639ZM103.013 85.5956C103.915 86.2908 104.884 86.8857 105.907 87.3705L105.763 93.2022C104.485 91.29 103.684 90.0716 102.737 88.5354C102.841 87.5547 102.933 86.5742 103.013 85.594V85.5956ZM93.2983 78.8383C96.487 77.6286 99.6116 76.2458 102.659 74.6959C102.705 78.952 102.513 83.2073 102.082 87.4403C101.346 86.2165 100.615 84.9637 99.9072 83.6786C99.8592 83.5923 99.7812 83.5281 99.6891 83.499C99.5969 83.4698 99.4975 83.4779 99.4109 83.5216C98.2152 84.1213 97.0098 84.7329 95.7949 85.3562L93.2983 78.8383ZM55.9283 83.0271C48.0076 80.1445 39.4439 76.9488 31.2427 73.8276C32.5951 69.5358 34.3781 65.4018 36.5627 61.4929L53.7251 65.6982L59.1864 70.6578C58.3466 74.8459 57.2585 78.9768 55.9283 83.0271ZM30.6378 74.4337L30.9904 74.5663L29.4149 75.0475C28.537 71.0303 27.2524 67.1197 25.5823 63.3801L29.1543 61.1146C30.9002 62.0901 32.7394 62.8762 34.6422 63.4601C32.9346 66.821 31.5151 70.3297 30.3999 73.9462C30.3706 74.0434 30.379 74.1487 30.4234 74.2396C30.4677 74.3306 30.5446 74.4002 30.6378 74.4337ZM23.2658 56.0505C23.3307 56.0435 23.3928 56.0193 23.4461 55.9802C23.4993 55.9412 23.5419 55.8886 23.5698 55.8276C25.2515 52.1375 26.5682 48.2813 27.4997 44.3179C28.4026 46.7962 29.1953 49.327 29.8147 51.6059C28.8983 54.2682 28.1198 56.9789 27.4823 59.7267C27.4472 59.8278 27.4513 59.939 27.4938 60.037C27.5363 60.1351 27.6139 60.2123 27.7103 60.2526C27.9383 60.3979 28.1822 60.529 28.4163 60.6695L25.2707 62.6626C25.2334 62.5841 24.4658 60.9246 24.3936 60.8453C24.3486 60.7666 24.2784 60.7066 24.1952 60.6757C24.1119 60.6447 24.0209 60.6448 23.9376 60.6757C19.8709 62.1539 16.1491 63.7569 12.4274 65.5294L10.8474 55.2208C14.9143 56.2077 19.1119 56.4881 23.2681 56.0505H23.2658ZM10.7189 54.3824L10.5799 53.471C13.6472 51.6655 24.1763 45.3949 26.8302 43.7896C25.9385 47.7516 24.647 51.6061 22.977 55.2899C18.8706 55.6984 14.7269 55.3916 10.7189 54.3824ZM52.2773 59.2416C51.5522 60.1396 50.8515 61.0588 50.1842 62.0079C50.0489 62.2002 50.1257 62.3761 50.3119 62.5982L52.5091 64.5937L36.4594 60.6624C36.3801 60.6418 36.2964 60.6485 36.2212 60.6817C36.1459 60.7149 36.0833 60.7726 36.0429 60.8461C35.6895 61.4741 35.3528 62.1147 35.0184 62.756C32.8181 62.0925 30.7052 61.1521 28.7271 59.9559C32.4307 58.5569 35.8943 56.5561 38.9871 54.0292C39.6051 54.7053 40.2554 55.349 40.9358 55.9579C41.0068 56.0207 41.0977 56.0542 41.1911 56.0521C44.5491 55.9932 47.8986 55.686 51.214 55.1329L52.2773 59.2416ZM51.9733 55.0175C53.7311 54.7207 55.5133 54.3259 57.2591 53.8918C55.7079 55.3385 54.2445 56.8823 52.8769 58.5146L51.9733 55.0175ZM60.8159 51.8414C61.6008 54.7343 62.0448 57.7145 62.1383 60.7174C58.5559 61.4546 54.9124 61.8279 51.2596 61.8321C53.9917 58.0696 57.2066 54.7086 60.8159 51.8414ZM61.2437 50.8507C61.1845 50.809 61.1148 50.7858 61.0431 50.784C60.8561 50.7777 60.8835 50.7565 59.1613 52.2229C57.6447 48.8128 56.6293 45.188 56.1487 41.4684C59.8225 42.7388 63.5695 43.7712 67.3678 44.5597C66.0398 47.3136 65.0198 50.2148 64.3278 53.2073C64.0063 52.9553 61.3228 50.8766 61.2437 50.8499V50.8507ZM57.9408 51.3044C52.8093 49.2752 48.0653 47.6267 43.2728 46.1556C47.0632 44.9379 50.6646 43.1643 53.9667 40.889C54.0328 40.8427 54.083 40.776 54.1103 40.6985C54.1376 40.621 54.1405 40.5366 54.1187 40.4573C52.8148 35.6366 50.6924 31.0933 47.8503 27.0393C53.2523 27.0345 58.6278 27.8189 63.8171 29.3692C63.0959 32.2808 62.2286 35.1518 61.2187 37.9704C59.3012 38.7962 57.3928 39.6456 55.5316 40.5499C55.4611 40.5859 55.4028 40.6431 55.3644 40.714C55.326 40.785 55.3093 40.8662 55.3165 40.9471C55.7085 44.5112 56.5922 47.9989 57.9408 51.3044ZM53.3139 40.3929C49.9887 42.6479 46.3646 44.393 42.5546 45.5739C44.4926 39.6877 46.0791 33.6843 47.3053 27.5974C50.0065 31.4737 52.0392 35.8028 53.3139 40.3937V40.3929ZM58.3664 52.3084C58.4272 52.4489 58.4865 52.5895 58.5495 52.7292C58.3428 52.9105 50.546 55.0489 41.3226 55.264C38.0371 52.3189 35.5196 48.5693 34.0008 44.3587C42.2783 46.47 50.4168 49.1256 58.3664 52.3092V52.3084ZM38.462 53.4585C35.4222 55.932 32.0187 57.887 28.3806 59.2494C29.5684 54.2758 31.2339 49.4372 33.3525 44.8054C34.5248 47.9906 36.2571 50.9245 38.462 53.4592V53.4585ZM23.2399 61.7724C21.6591 64.7114 20.2379 67.5955 18.7248 71.1743C16.8364 71.0811 14.9647 70.7626 13.1471 70.2253L12.5505 66.3293C16.4699 64.4587 19.6839 63.103 23.2399 61.7724ZM18.9558 71.9703C19.0322 71.9733 19.1076 71.9524 19.1723 71.9104C19.2369 71.8683 19.2878 71.8072 19.3183 71.7348C20.7293 68.369 22.3082 65.0809 24.0486 61.8839C26.1186 66.1338 27.6773 70.6294 28.6899 75.2705L14.582 79.5809L13.2779 71.0739C15.1272 71.6149 17.0345 71.916 18.9558 71.9703ZM67.7813 77.4174L51.4853 62.6186C55.0715 62.5967 58.6478 62.2272 62.1671 61.5149C62.1793 62.6662 62.14 63.8226 62.0493 64.9838C62.0433 65.0665 62.0628 65.149 62.105 65.2195C62.1472 65.29 62.2099 65.3449 62.2842 65.3763C64.4925 66.3076 66.7931 66.9854 69.1447 67.3977C69.4134 70.8007 68.9477 74.2228 67.7813 77.4174ZM68.5861 77.4339C69.6998 74.2683 70.1522 70.895 69.9138 67.5359C72.9576 67.9985 76.0498 68.0078 79.0961 67.5633C76.9401 72.1179 73.1802 75.649 68.5861 77.4339ZM78.8864 66.7901C73.4537 67.5566 67.9215 66.857 62.8283 64.7593C63.1304 60.5225 62.7451 56.2634 61.6883 52.1577C67.6841 56.6956 73.426 61.5809 78.8864 66.7901ZM69.5384 57.4141C71.9043 56.5639 74.2679 55.6266 76.5836 54.621C76.7356 57.615 76.8215 60.5792 76.8275 63.8055C74.5407 61.6931 72.2683 59.6906 69.5422 57.4141H69.5384ZM77.2775 53.376C79.0264 55.1134 80.9192 56.6895 82.9341 58.086C80.9085 59.3383 79.0988 60.93 77.5792 62.796C77.5587 59.6097 77.4713 56.6942 77.2813 53.376H77.2775ZM77.8953 63.6721C79.4866 61.6181 81.4339 59.8878 83.6379 58.5696C85.2345 59.6273 86.8989 60.5715 88.6197 61.3956C88.7009 61.4341 88.7925 61.4422 88.8789 61.4184C89.9426 61.1138 90.99 60.7517 92.0169 60.3335C93.8054 62.7995 95.3441 65.4486 96.6088 68.2392C89.7589 66.4785 83.8743 65.0458 77.8991 63.6721H77.8953ZM97.2138 67.7329C95.9718 65.0263 94.4764 62.4518 92.7488 60.0462C95.2137 59.0024 97.5304 57.6187 99.6359 55.9328C99.0856 59.9175 98.2777 63.8597 97.2176 67.7329H97.2138ZM99.2658 55.2388C96.1575 57.7253 92.6064 59.5564 88.8143 60.6279C84.7412 58.6602 81.0118 56.0092 77.7775 52.7826C85.007 52.7809 92.2146 53.6046 99.2688 55.2388H99.2658ZM80.3699 52.0337C79.1957 52.0015 78.0207 51.9842 76.8465 51.996C76.6641 51.996 76.5083 52.102 76.4627 52.4215C76.4909 52.8705 76.5129 53.3336 76.5387 53.7905C74.0102 54.8966 71.4224 55.921 68.8369 56.8371C67.5631 55.7831 66.2777 54.7451 64.9807 53.723C65.6779 50.5973 66.7396 47.5705 68.1423 44.7088C69.2564 44.9318 70.3721 45.1398 71.4863 45.3196C71.5659 45.3323 71.6474 45.3186 71.719 45.2803C71.7906 45.2421 71.8485 45.1813 71.8845 45.1068C72.1406 44.5801 72.4066 44.0557 72.6734 43.5321C74.5772 44.6924 82.241 49.1708 84.0468 50.1827C82.8665 50.8004 81.6414 51.4214 80.3729 52.0337H80.3699ZM79.2854 32.5508C82.4232 37.6369 84.2032 43.4896 84.445 49.5154C82.6294 48.4996 74.9336 44.0016 73.0245 42.8374C74.8772 39.2616 76.9703 35.8243 79.2884 32.5508H79.2854ZM71.3251 44.4993C66.3799 43.6897 61.5067 42.4658 56.7537 40.8396C63.7555 37.5429 70.9773 34.7694 78.3635 32.5406C75.7125 36.3266 73.3589 40.3256 71.3251 44.4993ZM13.6753 88.1837C13.3558 88.2343 13.0298 88.1521 12.7688 87.9552C12.5077 87.7582 12.3328 87.4624 12.2823 87.1326L2.98138 25.4159C2.94464 25.1764 2.95779 24.9317 3.01994 24.6979C3.0821 24.4641 3.19183 24.2467 3.34181 24.0602C3.49179 23.8737 3.67857 23.7224 3.88967 23.6164C4.10078 23.5104 4.33134 23.4522 4.56598 23.4456L67.0456 21.5765C67.5715 21.5644 68.086 21.7361 68.5056 22.0638C68.9253 22.3915 69.2254 22.856 69.3575 23.382L71.8913 33.817C71.4589 33.9677 71.0249 34.1168 70.5993 34.2715L67.8003 23.8043C67.779 23.7182 67.7295 23.6424 67.6602 23.5898C67.5909 23.5371 67.5062 23.5108 67.4203 23.5154L6.03886 26.0706C5.98529 26.0729 5.93281 26.0869 5.88485 26.1116C5.83689 26.1364 5.79454 26.1713 5.76059 26.2142C5.72664 26.257 5.70185 26.3068 5.68785 26.3603C5.67386 26.4137 5.67097 26.4696 5.67938 26.5243C11.3353 63.2608 -0.181742 -11.8912 13.8988 80.1469C13.9129 80.2392 13.9585 80.3234 14.0273 80.3841C14.0961 80.4448 14.1837 80.4782 14.2742 80.4782C14.3593 80.4782 13.0681 80.8565 32.1897 75.0185C35.1203 76.1311 38.0528 77.2369 40.9875 78.3359L40.9115 78.7158C12.1561 88.6649 13.8289 88.1594 13.6753 88.1837ZM29.7167 87.0847L40.0823 82.8065L39.4097 86.1325C39.3963 86.1988 39.3998 86.2676 39.4198 86.3321C39.4398 86.3966 39.4756 86.4547 39.5237 86.5007C40.7369 87.6502 42.3234 88.2879 43.9697 88.2879C45.616 88.2879 47.2025 87.6502 48.4157 86.5007C48.477 86.4421 48.5178 86.3643 48.532 86.2793L49.216 82.3645L58.032 84.7603L41.752 91.3465C41.6411 91.2578 42.7263 91.6573 29.7167 87.0879V87.0847ZM33.9423 111.238C33.4504 111.47 32.9138 111.581 32.3737 111.565C31.8335 111.549 31.3042 111.405 30.8263 111.144L16.6827 102.336L75.6153 78.4968L93.8485 83.1283L70.2573 94.3687C69.4555 93.8875 68.6446 93.4267 67.8322 92.9557L77.5518 88.3431C77.6204 88.3104 77.6779 88.2573 77.7172 88.1907C77.7564 88.124 77.7755 88.0468 77.7721 87.9689C77.7687 87.891 77.7429 87.8159 77.698 87.7532C77.653 87.6905 77.591 87.6431 77.5199 87.6169L66.3479 83.5349C66.2604 83.5036 66.1649 83.5059 66.0789 83.5412L21.6075 102.12C21.5425 102.147 21.486 102.192 21.4442 102.25C21.4024 102.308 21.377 102.377 21.3707 102.449C21.3644 102.521 21.3775 102.593 21.4086 102.658C21.4396 102.723 21.4874 102.778 21.5467 102.816L31.1455 109.096C31.1984 109.131 31.2587 109.151 31.3212 109.156C31.3836 109.161 31.4462 109.149 31.5034 109.123L49.7275 100.734C50.5786 101.282 51.3912 101.891 52.1595 102.557L33.9423 111.238ZM49.7503 99.8284C53.0513 99.5255 56.2463 98.4703 59.1051 96.7387C59.7363 98.6195 60.4951 100.452 61.376 102.223C61.4065 102.284 61.4522 102.336 61.5083 102.373C61.5645 102.411 61.6292 102.432 61.6959 102.435C62.6634 102.482 63.6339 102.504 64.6052 102.514C65.6708 106.724 65.4999 111.167 64.1143 115.277C56.4649 107.39 56.2315 103.925 49.7503 99.8284ZM59.3703 111.108C60.8402 112.906 62.3929 114.641 64.0063 116.278C64.0433 116.314 64.0869 116.343 64.1346 116.362C64.1822 116.38 64.233 116.389 64.284 116.388C64.335 116.386 64.3852 116.374 64.4317 116.353C64.4783 116.331 64.5202 116.3 64.5551 116.262C65.1243 115.608 65.7194 114.978 66.3259 114.36C65.6651 116.299 64.7714 118.145 63.6659 119.855C61.1753 118.624 58.6263 117.532 56.1358 116.602C56.0888 116.584 56.0389 116.576 55.989 116.578C55.939 116.581 55.89 116.593 55.8447 116.615C54.0403 117.492 52.2841 118.471 50.584 119.548C48.8658 117.051 46.7296 114.89 44.276 113.168C49.3477 112.847 54.3913 112.159 59.3696 111.108H59.3703ZM43.462 113.558C45.9909 115.259 48.189 117.434 49.9425 119.971C47.4915 121.572 45.1686 123.373 42.9961 125.357C43.0455 121.458 43.1915 117.677 43.4613 113.558H43.462ZM11.0237 122.073L15.6878 110.285C23.6714 113.578 32.0023 115.89 40.5087 117.173C38.6059 122.106 36.3163 126.87 33.6626 131.418C25.5105 130.183 17.7548 126.981 11.0237 122.073ZM27.3371 144.61C21.5221 143.124 16.0335 140.511 11.1635 136.908C14.1049 134.179 16.696 131.073 18.8737 127.665C20.0933 128.249 21.3346 128.785 22.5977 129.273C22.4153 131.942 22.3257 134.637 22.3279 137.253C22.3278 137.353 22.3649 137.45 22.4316 137.523C22.4983 137.596 22.5896 137.639 22.6867 137.645C25.8407 137.822 28.7271 137.867 31.6965 137.812C30.4015 140.182 28.9447 142.454 27.3371 144.61ZM23.0811 136.88C23.0872 134.351 23.1753 131.969 23.3349 129.556C26.7263 130.813 30.2332 131.71 33.8009 132.232C33.8749 132.244 33.9504 132.232 34.0179 132.199C34.0855 132.166 34.1422 132.113 34.1809 132.047C36.1718 128.656 37.9608 125.144 39.5381 121.528L42.3175 121.593C42.3114 121.793 42.1776 126.187 42.2453 126.372C42.2613 126.416 42.2844 126.456 42.3137 126.491C42.4261 126.679 42.6177 126.622 44.7365 126.731C43.5562 130.142 42.0705 133.432 40.2989 136.558C34.5752 137.079 28.8232 137.187 23.0849 136.88H23.0811ZM45.533 126.769C48.5928 126.916 51.6639 127.02 54.7222 127.047C55.0057 127.625 55.3173 128.187 55.6251 128.751C51.2028 132.371 46.2168 135.188 40.8803 137.082C42.7549 133.81 44.3145 130.355 45.5368 126.769H45.533ZM41.2641 137.775C45.2567 136.342 49.0607 134.401 52.5881 131.996C56.0531 134.811 58.9876 138.26 61.2453 142.171C54.4721 141.326 47.7861 139.855 41.2679 137.775H41.2641ZM61.6063 141.272C59.3833 137.554 56.555 134.261 53.2463 131.538C54.1864 130.874 55.1067 130.177 55.999 129.452C57.3927 131.904 59.0185 134.207 60.8523 136.327C60.888 136.368 60.9317 136.401 60.9805 136.424C61.0294 136.446 61.0823 136.458 61.1358 136.458C61.2118 136.458 62.2758 136.278 62.8785 136.18C62.1384 137.776 61.7063 139.505 61.6063 141.272ZM61.2787 135.642C59.0475 133.033 57.1369 130.148 55.5901 127.055C61.5652 127.081 67.3564 126.903 73.5884 126.449C73.6644 126.387 74.0444 126.274 73.9084 125.916C72.4329 122.832 71.315 119.578 70.5781 116.222C72.8426 115.091 75.2359 114.258 77.7015 113.743L78.3209 115.399C77.1551 117.513 75.9756 119.53 74.809 121.391C74.7785 121.439 74.7588 121.495 74.7514 121.552C74.744 121.61 74.749 121.668 74.7661 121.723C74.7832 121.779 74.8119 121.829 74.8502 121.872C74.8885 121.914 74.9354 121.947 74.9876 121.969C77.2972 122.916 79.6585 123.791 82.0366 124.583C83.1717 126.459 84.1362 128.439 84.9177 130.499C77.1455 132.699 69.2527 134.417 61.2817 135.642H61.2787ZM82.3755 139.137C81.8357 136.886 81.4775 134.593 81.3047 132.28C82.716 131.911 84.1289 131.539 85.5273 131.14C85.5785 131.126 85.6262 131.1 85.6672 131.066C85.7083 131.031 85.7418 130.987 85.7657 130.938C85.7895 130.889 85.8032 130.836 85.8057 130.781C85.8082 130.726 85.7996 130.671 85.7803 130.62C85.0596 128.646 84.1694 126.742 83.1203 124.931C86.8576 126.139 90.6537 127.144 94.493 127.941C96.594 130.891 98.5027 133.983 100.207 137.194C94.3114 138.243 88.356 138.892 82.3786 139.137H82.3755ZM123.796 139.838C122.276 140.055 120.762 140.33 119.285 140.655C113.737 141.879 112.19 142.923 108.177 143.901C105.135 144.631 102.016 144.962 98.8934 144.887C97.9123 142.889 97.2417 140.743 96.906 138.529C98.2253 138.33 99.5455 138.115 100.858 137.877C100.917 137.866 100.973 137.841 101.021 137.803C101.069 137.766 101.108 137.717 101.134 137.661C101.16 137.606 101.173 137.544 101.172 137.482C101.171 137.42 101.155 137.359 101.127 137.304C99.4755 134.135 97.6205 131.082 95.5745 128.168C97.7557 128.602 102.049 129.267 102.11 129.267C102.189 129.267 102.265 129.242 102.329 129.195C102.393 129.148 102.441 129.082 102.468 129.006C102.842 127.924 103.256 126.856 103.694 125.798C105.543 129.356 107.638 132.771 109.964 136.018C110.006 136.094 110.07 136.156 110.148 136.193C110.225 136.231 110.312 136.243 110.396 136.227C114.014 135.371 117.566 134.241 121.023 132.845C121.904 135.281 122.854 137.656 123.802 139.838H123.796ZM111.216 135.206C113.491 131.983 115.393 128.495 116.883 124.816C121.672 125.761 126.51 126.42 131.372 126.789C125.089 130.595 118.3 133.43 111.222 135.203L111.216 135.206ZM134.007 129.114C132.973 128.896 131.994 128.461 131.13 127.836C131.694 127.501 132.261 127.172 132.818 126.823C132.866 126.793 132.907 126.753 132.938 126.704C132.969 126.656 132.989 126.601 132.996 126.543C133.003 126.486 132.998 126.427 132.98 126.372C132.962 126.317 132.933 126.267 132.893 126.226C129.6 123.443 126.548 120.369 123.773 117.037C123.839 117.008 123.896 116.959 123.936 116.898C123.976 116.837 123.999 116.765 124.002 116.691C124.054 114.429 124.117 112.138 124.189 109.832C128.425 111.064 132.316 111.976 136.19 112.708C139.684 116.092 143.6 118.977 147.835 121.286C143.972 125.106 139.202 127.806 134.007 129.114Z" fill="black"/>
<path d="M79.9359 86.9599C79.4853 86.8241 77.5039 86.1937 68.4333 83.3717C68.3588 83.3482 68.293 83.3017 68.245 83.2383C68.1969 83.175 68.1689 83.0979 68.1646 83.0175C68.1604 82.9371 68.1802 82.8574 68.2213 82.789C68.2625 82.7206 68.3229 82.667 68.3946 82.6353L75.4155 79.5628C75.4934 79.5293 75.5798 79.5227 75.6617 79.544L87.7199 82.8622C87.7961 82.8833 87.8641 82.9283 87.9144 82.9912C87.9647 83.054 87.9948 83.1314 88.0006 83.2127C88.0064 83.294 87.9875 83.3751 87.9466 83.4448C87.9057 83.5145 87.8448 83.5693 87.7723 83.6017C82.26 86.0548 80.7446 86.7417 80.3015 86.9277C80.0978 87.0172 80.1107 87.0156 79.9359 86.9599ZM69.6623 82.9376L80.0659 86.1875L86.4697 83.3332L75.5903 80.3408L69.6623 82.9376Z" fill="black"/>
<path d="M96.8998 23.2023C96.8161 23.2025 96.7347 23.1741 96.6682 23.1215C96.6017 23.069 96.5538 22.9953 96.5321 22.9118C96.5103 22.8283 96.5159 22.7397 96.5479 22.6598C96.5799 22.5799 96.6365 22.5131 96.709 22.4699C102.674 18.8774 109.7 17.6496 116.477 19.0159C116.572 19.0399 116.655 19.1009 116.708 19.1861C116.76 19.2713 116.779 19.3742 116.76 19.4734C116.741 19.5725 116.686 19.6603 116.605 19.7184C116.525 19.7765 116.427 19.8004 116.33 19.7852C109.734 18.4557 102.895 19.6511 97.0905 23.1481C97.0327 23.1833 96.9669 23.202 96.8998 23.2023Z" fill="black"/>
<path d="M132.297 24.4347C132.07 23.5957 131.756 22.7843 131.36 22.0146C126.72 12.9871 112.056 12.7335 107.669 12.8748C107.569 12.8735 107.474 12.8337 107.401 12.7632C107.329 12.6927 107.285 12.5966 107.278 12.4941C107.276 12.4425 107.284 12.3912 107.302 12.343C107.32 12.2947 107.346 12.2506 107.381 12.213C107.415 12.1755 107.456 12.1453 107.502 12.1241C107.547 12.103 107.596 12.0913 107.646 12.0898C112.14 11.9446 127.186 12.2178 132.031 21.6472C132.453 22.4669 132.787 23.3312 133.029 24.2251C133.051 24.324 133.036 24.4281 132.986 24.5156C132.936 24.6031 132.855 24.6672 132.76 24.6943C132.666 24.7214 132.564 24.7096 132.478 24.6612C132.391 24.6127 132.326 24.5316 132.297 24.4347Z" fill="black"/>
</svg>
