<svg width="152" height="157" viewBox="0 0 152 157" fill="none" xmlns="http://www.w3.org/2000/svg">
<path d="M111.064 93.8442C110.903 97.4396 110.991 101.042 111.328 104.625C111.507 106.538 111.856 108.431 112.371 110.279C112.793 112.055 113.678 113.678 114.929 114.972C115.776 115.73 116.72 116.363 117.734 116.853C123.829 119.813 131.618 117.551 134.248 116.11C134.248 116.11 141.892 120.899 143.691 125.314C145.49 129.729 143.691 131.424 143.691 131.424C144.55 131.346 145.411 131.557 146.143 132.027C146.876 132.497 147.442 133.199 147.755 134.029C148.888 136.985 110.937 139.907 99.4429 136.773L102.473 92.1087H102.495C102.495 92.1087 109.074 81.5787 111.022 80.8065C112.837 80.1446 114.762 79.8641 116.684 79.9813C116.046 79.9641 112.65 79.9727 112.147 82.1598C111.804 84.1535 111.558 86.1638 111.41 88.183C111.355 88.8421 111.301 89.5363 111.25 90.2617C111.176 91.4005 111.108 92.6017 111.064 93.8442Z" fill="white"/>
<path d="M142.288 98.6654L140.801 103.495L137.422 114.449L137.414 114.446L131.07 103.669L142.288 98.6654Z" fill="white"/>
<path d="M128.759 102.742L128.762 102.74L124.615 99.4672L131.806 95.2155L136.036 96.6093L142.288 98.6654L131.07 103.669L126.6 105.661L128.759 102.742Z" fill="white"/>
<path d="M140.801 103.495C141.748 105.206 142.406 106.782 142.406 107.857C142.406 110.821 140.75 112.844 137.498 114.612L137.417 114.456L137.412 114.447H137.42L140.801 103.495Z" fill="black"/>
<path d="M131.193 76.49L139.16 90.8677L139.154 90.8709L127.176 88.4139L131.193 76.49Z" fill="#81F8F8"/>
<path d="M134.072 93.8763L131.806 95.2155L124.616 99.4673L119.648 95.5494L120.776 92.1977L125.568 93.1797L127.177 88.4139L139.154 90.8709L134.072 93.8763Z" fill="#81F8F8"/>
<path d="M137.419 114.455L137.501 114.611C136.445 115.172 135.359 115.673 134.248 116.109C131.618 117.55 123.829 119.812 117.734 116.853L118.369 116.795L123.494 109.865L137.414 114.446L137.419 114.455Z" fill="black"/>
<path d="M131.07 103.669L137.415 114.446L123.495 109.866L126.601 105.661L131.07 103.669Z" fill="white"/>
<path d="M136.084 96.4558L136.036 96.6118L131.808 95.2179L134.073 93.8787C134.122 93.9403 134.959 94.9629 136.084 96.4558Z" fill="black"/>
<path d="M131.191 76.49L127.175 88.4139L125.567 93.1797L120.774 92.1976L111.412 90.2781L111.252 90.2664C111.303 89.541 111.356 88.8468 111.412 88.1877L122.307 81.7433L131.191 76.49Z" fill="#81F8F8"/>
<path d="M128.762 102.74L128.759 102.743L119.249 104.764H119.246L118.63 94.7452L119.648 95.5494L124.615 99.4674L128.762 102.74Z" fill="#81F8F8"/>
<path d="M126.601 105.661L123.495 109.866L118.37 116.796L117.735 116.854C117.13 116.56 116.549 116.216 115.998 115.825L115.691 109.575L119.494 108.767L119.247 104.763L128.76 102.741L126.601 105.661Z" fill="#81F8F8"/>
<path d="M122.125 81.4165L122.308 81.7472L111.411 88.1877C111.678 85.0973 111.999 82.8182 112.148 82.1645C112.65 79.9805 116.046 79.9688 116.684 79.986C118.572 80.0841 120.422 80.5704 122.125 81.4165Z" fill="black"/>
<path d="M120.773 92.1976L119.645 95.5516L118.628 94.7475L114.588 100.207L111.061 93.8442C111.109 92.6017 111.174 91.3997 111.249 90.2664L111.409 90.2781L120.773 92.1976Z" fill="#81F8F8"/>
<path d="M119.247 104.764L119.494 108.769L115.691 109.575L112.369 110.277C111.854 108.429 111.505 106.536 111.326 104.622L114.589 100.205L118.629 94.7452L119.247 104.764Z" fill="#81F8F8"/>
<path d="M115.691 109.574L115.997 115.824C115.626 115.56 115.27 115.275 114.929 114.971C113.678 113.676 112.794 112.053 112.371 110.277L115.691 109.574Z" fill="#81F8F8"/>
<path d="M114.591 100.207L111.328 104.625C110.991 101.042 110.903 97.4396 111.064 93.8442L114.591 100.207Z" fill="black"/>
<path d="M86.7007 25.2098C100.18 33.4396 109.95 40.5867 109.262 41.8324C108.837 42.6022 104.5 40.9525 98.0121 37.7319C94.6146 35.8818 82.8638 29.5716 79.0518 27.3213C63.1357 17.9176 50.8594 9.16753 51.628 7.77679C52.3135 6.53659 63.1417 11.566 76.7612 19.3372C78.4166 20.2815 80.1096 21.2651 81.84 22.2879C83.5048 23.2723 85.1296 24.2481 86.7007 25.2098Z" fill="#81F8F8"/>
<path d="M109.262 41.8323L107.668 44.7105C107.337 45.3119 99.3451 41.8035 95.0695 39.8519C93.9476 39.2505 92.3991 38.4261 90.6505 37.4877C88.7449 36.4628 86.6052 35.31 84.5282 34.1743C82.3749 32.9957 80.2889 31.8343 78.6022 30.864C78.1945 30.63 77.8125 30.4077 77.4584 30.1986C75.9069 29.2813 74.3863 28.3695 72.9103 27.4686C72.4973 27.2019 72.0722 26.9226 71.6426 26.641C70.0096 25.5724 68.2632 24.411 66.498 23.22C62.0337 20.2084 57.4494 17.0026 54.2572 14.5705C51.5536 12.5145 49.8443 11.013 50.0436 10.6557L51.6283 7.77673C50.8605 9.16747 63.136 17.9167 79.0522 27.3212C82.8642 29.5715 94.6165 35.8817 98.0125 37.7319C104.5 40.9525 108.838 42.6022 109.262 41.8323Z" fill="#81F8F8"/>
<path d="M67.0043 50.6462H67.0066H76.7808H86.7906H95.0691H105.287L105.13 52.955L104.963 52.9433H39.0459L38.8911 50.6462H45.1402H53.9352H65.0277H66.7876H67.0013H67.0043Z" fill="#81F8F8"/>
<path d="M40.6087 76.1531L39.0459 52.9465H104.963L105.13 52.9582L103.558 76.1562L103.332 79.4665C102.382 79.4954 79.8657 80.1319 72.1436 80.1319C64.2591 80.1319 40.9281 79.4665 40.9281 79.4665L40.8322 79.472L40.6087 76.1531Z" fill="#81F8F8"/>
<path d="M45.0643 142.381L41.0364 82.5039L40.8311 79.472L40.9269 79.4666C40.9269 79.4666 64.2564 80.1319 72.1424 80.1319C79.8646 80.1319 102.381 79.4954 103.331 79.4666L102.474 92.1111L99.4432 136.775L98.8672 146.005L93.7928 147.263C79.5256 150.794 64.6528 150.794 50.3856 147.263L45.309 146.005L45.0643 142.381ZM93.7437 105.865C93.7422 102.223 92.8884 98.6351 91.2552 95.4075C89.6219 92.1799 87.2576 89.408 84.3636 87.3282C84.3326 87.3048 84.31 87.2759 84.279 87.2556C84.2481 87.2354 84.2285 87.2291 84.2035 87.2143C79.4299 83.8113 73.5432 82.5068 67.8385 83.5878C62.1339 84.6688 57.0785 88.0467 53.7846 92.9785C50.4907 97.9102 49.228 103.992 50.2743 109.885C51.3207 115.779 54.5904 121.002 59.364 124.405C59.395 124.427 59.4199 124.457 59.4509 124.483C59.4818 124.508 59.5098 124.515 59.5377 124.535C62.8242 126.853 66.6608 128.201 70.6341 128.434C74.6074 128.666 78.5667 127.774 82.0855 125.853C85.6042 123.933 88.549 121.057 90.6026 117.535C92.6562 114.013 93.7407 109.979 93.7392 105.868L93.7437 105.865Z" fill="#81F8F8"/>
<path d="M98.0061 45.1138L98.0038 45.12L86.5459 49.4849L83.9487 37.1484L91.2798 41.3012L98.0061 45.1138Z" fill="white"/>
<path d="M98.0043 45.12L95.0696 50.6463H86.791L86.5464 49.4849L98.0043 45.12Z" fill="white"/>
<path d="M84.3621 87.3282C89.1378 90.7288 92.4103 95.9499 93.4598 101.843C94.5093 107.736 93.2497 113.819 89.9582 118.753C86.6666 123.687 81.6128 127.068 75.9084 128.152C70.2041 129.236 64.3164 127.935 59.5407 124.534C59.5128 124.514 59.4818 124.502 59.4539 124.482C59.426 124.462 59.398 124.43 59.3671 124.404C54.5934 121.001 51.3237 115.778 50.2774 109.885C49.231 103.991 50.4937 97.9095 53.7876 92.9778C57.0815 88.046 62.1369 84.6681 67.8416 83.5871C73.5462 82.5061 79.4329 83.8106 84.2066 87.2136C84.2285 87.2284 84.2541 87.237 84.2821 87.2549C84.31 87.2729 84.3311 87.3048 84.3621 87.3282ZM88.4716 105.865C88.4723 103.487 87.9932 101.136 87.0649 98.9599C86.1366 96.7843 84.7795 94.8324 83.0801 93.2289L64.4241 121.197C66.9553 122.51 69.7698 123.132 72.5995 123.004C75.4293 122.876 78.1803 122.002 80.5907 120.465C83.001 118.928 84.9906 116.779 86.3701 114.223C87.7496 111.668 88.473 108.79 88.4716 105.863V105.865ZM60.6483 118.509L79.3051 90.534C75.7242 88.6752 71.6132 88.2176 67.7312 89.2457C63.8492 90.2738 60.4583 92.7182 58.1845 96.1275C55.9108 99.5369 54.9077 103.681 55.3606 107.795C55.8134 111.908 57.6916 115.714 60.6483 118.509Z" fill="#FFD997"/>
<path d="M90.6249 37.5344L91.3671 41.138L91.2803 41.3011L83.9492 37.1483L82.7208 39.4626L81.3618 38.7161L84.4732 34.285L84.5298 34.1742C86.6068 35.3099 88.7465 36.4627 90.6521 37.4876L90.6249 37.5344Z" fill="#81F8F8"/>
<path d="M83.0799 93.2257C86.0342 96.021 87.9102 99.8258 88.3618 103.938C88.8134 108.051 87.8101 112.193 85.5371 115.601C83.264 119.009 79.8746 121.452 75.9941 122.481C72.1137 123.509 68.0042 123.053 64.4238 121.197L83.0799 93.2257Z" fill="#81F8F8"/>
<path d="M86.5464 49.4849L86.791 50.6463H76.7812L78.175 48.0209L82.7208 39.4627L83.9492 37.1484L86.5464 49.4849Z" fill="white"/>
<path d="M84.5279 34.1743L84.4713 34.285L81.3615 38.7162L78.4925 42.8065L74.038 40.4384L63.4536 34.8131L67.092 33.8669L69.6529 33.1985L78.5997 30.8725V30.8671C80.2886 31.8366 82.3747 32.9957 84.5279 34.1743Z" fill="#81F8F8"/>
<path d="M82.7206 39.4626L78.1748 48.0208L78.1159 47.9888L67.0068 50.6463L73.897 40.7231L74.0404 40.4384L78.4896 42.8026L81.3601 38.7162L82.7206 39.4626Z" fill="#81F8F8"/>
<path d="M79.3051 90.5339L60.6483 118.509C57.6902 115.714 55.8107 111.908 55.3571 107.794C54.9036 103.68 55.9065 99.5346 58.1806 96.1246C60.4548 92.7147 63.8466 90.2701 67.7295 89.2425C71.6124 88.2148 75.7241 88.6736 79.3051 90.5339Z" fill="#81F8F8"/>
<path d="M78.1748 48.0207L76.7811 50.6462H67.0068L78.1159 47.9888L78.1748 48.0207Z" fill="black"/>
<path d="M74.0402 40.4385L73.8968 40.7232L67.0066 50.6463H67.0044H67.0014L63.4536 34.8131L74.0402 40.4385Z" fill="#81F8F8"/>
<path d="M71.642 26.641L69.6125 33.0448L69.6488 33.2008L67.0878 33.8693L67.0372 33.6626L61.1709 25.9086L61.0894 25.7175L66.4499 23.2948L66.4974 23.2223C68.2634 24.411 70.0089 25.5724 71.642 26.641Z" fill="white"/>
<path d="M50.7983 27.4397L50.7931 27.4343L47.5322 29.8328L47.462 29.7314L43.1895 28.3492L54.377 23.2925L56.938 27.5934L61.0898 25.7152L61.1713 25.9063L67.0376 33.6602L67.0882 33.8669L63.4537 34.8131L54.026 31.8569L53.9021 31.9474L50.7983 27.4397Z" fill="white"/>
<path d="M63.4538 34.8131L67.0016 50.6463H66.7879L63.2659 45.5327L53.9023 31.9474L54.0262 31.8569L63.4538 34.8131Z" fill="black"/>
<path d="M63.2657 45.5327L66.7878 50.6464H65.0279V50.6089L54.1687 47.9078L54.6867 42.4283L49.5059 41.1382L50.7984 27.4398L53.9022 31.9474L63.2657 45.5327Z" fill="white"/>
<path d="M66.4977 23.2199L66.4502 23.2924L61.0897 25.7151L56.9372 27.5934L54.3762 23.2924L47.9761 12.5425L54.2501 14.5705C57.4491 17.0025 62.0334 20.2083 66.4977 23.2199Z" fill="white"/>
<path d="M65.028 50.6089V50.6463H53.9355V50.3881L54.1688 47.9077L65.028 50.6089Z" fill="white"/>
<path d="M54.6866 42.4281L54.1687 47.9076L53.9354 50.388V50.6462H45.1404V50.388L36.5439 37.915L49.5058 41.138L54.6866 42.4281Z" fill="white"/>
<path d="M47.9758 12.5394L54.3767 23.2925L43.1891 28.3492L43.1831 28.3461L47.9758 12.5394Z" fill="white"/>
<path d="M50.7983 27.4398L49.5058 41.1381L36.5439 37.9152L47.5322 29.8328L50.7931 27.4343L50.7983 27.4398Z" fill="white"/>
<path d="M36.249 84.3509C36.3181 83.9236 36.3219 83.4878 36.2603 83.0593C37.8293 82.7028 39.43 82.5167 41.0364 82.5039L45.0643 142.381C44.8114 142.381 32.862 142.207 28.5382 140.638C24.1727 139.052 13.044 140.827 8.79717 141.34C4.5503 141.853 3.24792 140.638 5.25471 139.052C6.71664 138.005 8.36038 137.259 10.0958 136.856C10.0958 136.856 9.5333 128.684 15.4366 124.172C21.34 119.659 13.3113 109.82 16.3811 99.5711C19.451 89.3227 31.0281 84.769 31.0281 84.769C31.8019 85.2036 32.4927 85.7801 33.0666 86.4702C35.3973 86.7097 36.0776 85.4141 36.249 84.3509Z" fill="white"/>
<path d="M28.9093 77.6865C28.5077 76.6265 27.5232 73.4145 30.1928 72.8365C33.3978 72.1423 39.1887 75.6156 37.3895 78.9291C35.5903 82.2425 36.257 83.0631 36.257 83.0631C36.3186 83.4916 36.3148 83.9274 36.2457 84.3547C36.0743 85.4179 35.394 86.7135 33.0641 86.4748C32.4901 85.7846 31.7994 85.2082 31.0256 84.7736C29.6982 83.9944 28.1411 83.7423 26.6466 84.0646C24.1619 84.5958 23.4643 88.2259 22.2925 88.3078C21.1208 88.3897 20.5719 80.7106 24.2487 77.5594C27.2061 75.0205 28.5115 76.8675 28.9093 77.6865ZM28.9093 77.6951C28.9796 77.8776 29.0324 77.9938 29.0437 78.0204C29.007 77.909 28.9631 77.8004 28.9124 77.6951H28.9093Z" fill="white"/>
<path d="M67.0068 50.6462H76.7811H86.7909H95.0694H105.288L105.13 52.955L103.556 76.1561L103.331 79.4665L102.474 92.111L99.4431 136.775" stroke="black" stroke-width="0.980065" stroke-linecap="round" stroke-linejoin="round"/>
<path d="M99.443 136.775L98.8669 146.005L93.7926 147.263C79.5254 150.794 64.6526 150.794 50.3854 147.263L45.3087 146.005L45.0641 142.381L41.0362 82.5038L40.8308 79.472L40.6089 76.1531L39.046 52.9465L38.895 50.6494H67.0014" stroke="black" stroke-width="0.980065" stroke-linecap="round" stroke-linejoin="round"/>
<path d="M96.6963 133.364L93.7925 134.003C79.5253 137.534 64.6525 137.534 50.3853 134.003L44.6685 132.74" stroke="black" stroke-width="0.980065" stroke-linecap="round" stroke-linejoin="round"/>
<path d="M39.001 52.9434H39.0463H104.964" stroke="black" stroke-width="0.980065" stroke-linecap="round" stroke-linejoin="round"/>
<path d="M57.4355 73.2609C63.1781 73.3911 68.9523 73.4949 72.1422 73.4949C80.0304 73.4949 103.682 72.8326 103.682 72.8326" stroke="black" stroke-width="0.980065" stroke-linecap="round" stroke-linejoin="round"/>
<path d="M40.606 72.8365C40.606 72.8365 45.6403 72.9785 51.8358 73.1298" stroke="black" stroke-width="0.980065" stroke-linecap="round" stroke-linejoin="round"/>
<path d="M86.6162 76.5805C94.5347 76.4034 102.464 76.1858 103.555 76.1538H103.682" stroke="black" stroke-width="0.980065" stroke-linecap="round" stroke-linejoin="round"/>
<path d="M40.606 76.1531C40.908 76.1617 64.3084 76.8153 72.1423 76.8153C73.835 76.8153 76.2525 76.7833 79.0075 76.7373" stroke="black" stroke-width="0.980065" stroke-linecap="round" stroke-linejoin="round"/>
<path d="M40.9268 79.4666C40.9268 79.4666 64.2563 80.1319 72.1422 80.1319C79.8644 80.1319 102.381 79.4954 103.331 79.4666H103.361" stroke="black" stroke-width="0.980065" stroke-linecap="round" stroke-linejoin="round"/>
<path d="M69.0552 132.01C70.1061 132.063 71.1239 132.088 72.091 132.088C80.0714 132.088 89.4092 130.56 95.0007 129.48" stroke="black" stroke-width="0.980065" stroke-linecap="round" stroke-linejoin="round"/>
<path d="M44.1958 128.444C44.1958 128.444 53.7979 130.494 63.1644 131.522" stroke="black" stroke-width="0.980065" stroke-linecap="round" stroke-linejoin="round"/>
<path d="M84.3617 87.3282C84.3308 87.3048 84.3081 87.2759 84.2772 87.2557C84.2462 87.2354 84.2266 87.2291 84.2017 87.2143C79.428 83.8113 73.5413 82.5068 67.8367 83.5878C62.132 84.6688 57.0767 88.0468 53.7827 92.9785C50.4888 97.9103 49.2261 103.992 50.2725 109.885C51.3188 115.779 54.5885 121.002 59.3622 124.405C59.3931 124.427 59.4181 124.457 59.449 124.483C59.48 124.508 59.5079 124.515 59.5358 124.535C61.9005 126.219 64.5631 127.405 67.3714 128.026C70.1798 128.646 73.079 128.689 75.9035 128.153C78.7281 127.616 81.4226 126.509 83.8332 124.897C86.2439 123.284 88.3235 121.197 89.9533 118.754C91.5831 116.311 92.7311 113.56 93.332 110.659C93.9328 107.757 93.9745 104.762 93.4549 101.844C92.9353 98.9259 91.8644 96.1422 90.3034 93.6517C88.7424 91.1612 86.7219 89.0127 84.3572 87.329L84.3617 87.3282Z" stroke="black" stroke-width="0.980065" stroke-linecap="round" stroke-linejoin="round"/>
<path d="M55.2544 105.865C55.2525 102.938 55.9758 100.06 57.3554 97.5033C58.735 94.9471 60.725 92.7982 63.136 91.2614C65.5469 89.7245 68.2985 88.8508 71.1288 88.7235C73.9591 88.5962 76.7738 89.2195 79.3049 90.534L60.6481 118.509C58.948 116.904 57.5903 114.951 56.6616 112.774C55.733 110.597 55.2537 108.244 55.2544 105.865Z" stroke="black" stroke-width="0.980065" stroke-linecap="round" stroke-linejoin="round"/>
<path d="M71.8613 123.022C69.2781 123.024 66.7306 122.399 64.4238 121.198L83.0799 93.2257C85.5481 95.5599 87.2758 98.6103 88.0364 101.977C88.7969 105.343 88.5548 108.869 87.3417 112.091C86.1286 115.312 84.0013 118.08 81.2388 120.031C78.4763 121.982 75.2075 123.024 71.8613 123.022Z" stroke="black" stroke-width="0.980065" stroke-linecap="round" stroke-linejoin="round"/>
<path d="M45.0674 142.381C44.8114 142.381 32.862 142.207 28.5382 140.638C24.1727 139.052 13.044 140.827 8.79717 141.34C4.5503 141.853 3.24792 140.638 5.25471 139.052C6.71664 138.005 8.36038 137.259 10.0958 136.856C10.0958 136.856 9.5333 128.684 15.4366 124.172C21.34 119.659 13.3113 109.82 16.3811 99.5711C19.451 89.3227 31.0281 84.769 31.0281 84.769" stroke="black" stroke-width="0.980065" stroke-linecap="round" stroke-linejoin="round"/>
<path d="M26.6469 118.254C26.6469 118.254 19.6699 124.991 19.6699 129.78" stroke="black" stroke-width="0.980065" stroke-linecap="round" stroke-linejoin="round"/>
<path d="M26.6465 95.9644C26.6465 95.9644 32.7235 97.2428 33.064 101.381" stroke="black" stroke-width="0.980065" stroke-linecap="round" stroke-linejoin="round"/>
<path d="M23.0176 84.0607C23.0176 82.9453 25.4804 79.4868 28.8424 80.1319C32.2044 80.7769 32.2656 83.0678 32.2656 83.0678" stroke="black" stroke-width="0.980065" stroke-linecap="round" stroke-linejoin="round"/>
<path d="M33.7052 75.8099C31.7853 75.8099 29.2017 78.1858 28.8423 80.1319" stroke="black" stroke-width="0.980065" stroke-linecap="round" stroke-linejoin="round"/>
<path d="M28.9093 77.6865C28.5076 76.6265 27.5231 73.4145 30.1928 72.8365C33.3978 72.1423 39.1886 75.6156 37.3894 78.9291C35.5903 82.2425 36.2569 83.0631 36.2569 83.0631C37.8259 82.7066 39.4266 82.5204 41.0331 82.5077" stroke="black" stroke-width="0.980065" stroke-linecap="round" stroke-linejoin="round"/>
<path d="M29.0508 78.0259V78.0205C29.0394 77.9939 28.9862 77.8777 28.9155 77.6952" stroke="black" stroke-width="0.980065" stroke-linecap="round" stroke-linejoin="round"/>
<path d="M28.9121 77.6952C28.9642 77.8004 29.0094 77.909 29.0474 78.0205" stroke="black" stroke-width="0.980065" stroke-linecap="round" stroke-linejoin="round"/>
<path d="M28.9121 77.6964V77.6865" stroke="black" stroke-width="0.980065" stroke-linecap="round" stroke-linejoin="round"/>
<path d="M36.2599 83.0591C36.3215 83.4876 36.3177 83.9235 36.2486 84.3508C36.0772 85.4139 35.397 86.7095 33.067 86.4708C32.4931 85.7807 31.8023 85.2043 31.0285 84.7697C29.7011 83.9904 28.1441 83.7383 26.6495 84.0606C24.1648 84.5918 23.4672 88.2219 22.2955 88.3038C21.1237 88.3857 20.5748 80.7066 24.2517 77.5554C27.209 75.0228 28.5129 76.8675 28.9123 77.6865" stroke="black" stroke-width="0.980065" stroke-linecap="round" stroke-linejoin="round"/>
<path d="M102.495 92.1135C102.495 92.1135 109.073 81.5835 111.021 80.8113C112.837 80.1494 114.762 79.8688 116.684 79.986C118.57 80.0835 120.418 80.5685 122.12 81.4127" stroke="black" stroke-width="0.980065" stroke-linecap="round" stroke-linejoin="round"/>
<path d="M140.801 103.495C141.749 105.206 142.406 106.782 142.406 107.857C142.406 110.821 140.75 112.844 137.499 114.612C136.442 115.173 135.356 115.673 134.246 116.11C134.246 116.11 141.89 120.899 143.689 125.314C145.488 129.729 143.689 131.424 143.689 131.424" stroke="black" stroke-width="0.980065" stroke-linecap="round" stroke-linejoin="round"/>
<path d="M134.069 93.8739C134.119 93.9379 134.957 94.9604 136.082 96.4534" stroke="black" stroke-width="0.980065" stroke-linecap="round" stroke-linejoin="round"/>
<path d="M99.4429 136.776C110.937 139.91 148.895 136.988 147.755 134.031C147.442 133.202 146.876 132.499 146.143 132.03C145.411 131.56 144.55 131.348 143.691 131.426" stroke="black" stroke-width="0.980065" stroke-linecap="round" stroke-linejoin="round"/>
<path d="M36.249 84.351C36.249 84.351 40.5669 86.5903 40.6061 89.6479" stroke="black" stroke-width="0.980065" stroke-linecap="round" stroke-linejoin="round"/>
<path d="M29.9552 85.3766C29.2526 86.1805 28.857 87.2209 28.8423 88.3039" stroke="black" stroke-width="0.980065" stroke-linecap="round" stroke-linejoin="round"/>
<path d="M116.787 79.9891H116.686C116.048 79.9719 112.652 79.9805 112.149 82.1676C111.998 82.8213 111.679 85.1004 111.412 88.1908C111.356 88.8499 111.303 89.5441 111.252 90.2695C111.177 91.4028 111.112 92.6048 111.064 93.8474C110.903 97.4427 110.991 101.045 111.328 104.628C111.507 106.542 111.856 108.434 112.371 110.282C112.793 112.058 113.678 113.681 114.929 114.975C115.776 115.733 116.72 116.366 117.734 116.857C123.829 119.816 131.618 117.554 134.249 116.113" stroke="black" stroke-width="0.980065" stroke-linecap="round" stroke-linejoin="round"/>
<path d="M67.0044 50.6463H67.0014L63.4536 34.8131" stroke="black" stroke-width="0.980065" stroke-linecap="round" stroke-linejoin="round"/>
<path d="M78.1159 47.9888L67.0068 50.6462" stroke="black" stroke-width="0.980065" stroke-linecap="round" stroke-linejoin="round"/>
<path d="M90.6245 37.5344L91.3667 41.138" stroke="black" stroke-width="0.980065" stroke-linecap="round" stroke-linejoin="round"/>
<path d="M63.4536 34.8131L67.0882 33.8669L69.6491 33.1985L78.5997 30.8694" stroke="black" stroke-width="0.980065" stroke-linecap="round" stroke-linejoin="round"/>
<path d="M63.4536 34.8131L74.0402 40.4385L78.4894 42.8026L81.36 38.7162L84.4713 34.285" stroke="black" stroke-width="0.980065" stroke-linecap="round" stroke-linejoin="round"/>
<path d="M73.8969 40.7233L67.0068 50.6464H67.0045L67.0015 50.6527" stroke="black" stroke-width="0.980065" stroke-linecap="round" stroke-linejoin="round"/>
<path d="M82.7204 39.4626L81.3599 38.7162" stroke="black" stroke-width="0.980065" stroke-linecap="round" stroke-linejoin="round"/>
<path d="M63.4536 34.8131L54.0259 31.8569" stroke="black" stroke-width="0.980065" stroke-linecap="round" stroke-linejoin="round"/>
<path d="M47.4617 29.7314L43.1891 28.3493L43.1831 28.3461L47.9758 12.5394L54.2499 14.569" stroke="black" stroke-width="0.980065" stroke-linecap="round" stroke-linejoin="round"/>
<path d="M69.6128 33.0449L71.6422 26.6411" stroke="black" stroke-width="0.980065" stroke-linecap="round" stroke-linejoin="round"/>
<path d="M47.9761 12.5394L54.377 23.2925L56.9379 27.5934L61.0897 25.7152L66.4502 23.2925" stroke="black" stroke-width="0.980065" stroke-linecap="round" stroke-linejoin="round"/>
<path d="M54.377 23.2925L43.1895 28.3492L43.1812 28.3516" stroke="black" stroke-width="0.980065" stroke-linecap="round" stroke-linejoin="round"/>
<path d="M61.1714 25.9064L67.0377 33.6604" stroke="black" stroke-width="0.980065" stroke-linecap="round" stroke-linejoin="round"/>
<path d="M98.0063 45.1138L98.004 45.12L95.0693 50.6463" stroke="black" stroke-width="0.980065" stroke-linecap="round" stroke-linejoin="round"/>
<path d="M76.7812 50.6463L78.175 48.0209L82.7208 39.4627L83.9492 37.1484L91.2803 41.3012L98.0066 45.1138" stroke="black" stroke-width="0.980065" stroke-linecap="round" stroke-linejoin="round"/>
<path d="M86.7906 50.6463L86.5459 49.4849L83.9487 37.1484" stroke="black" stroke-width="0.980065" stroke-linecap="round" stroke-linejoin="round"/>
<path d="M98.0126 45.1168L98.0043 45.1199L86.5464 49.4848" stroke="black" stroke-width="0.980065" stroke-linecap="round" stroke-linejoin="round"/>
<path d="M63.2656 45.5326L66.7877 50.6463" stroke="black" stroke-width="0.980065" stroke-linecap="round" stroke-linejoin="round"/>
<path d="M45.1404 50.3882L36.5439 37.9152L47.5322 29.8328L50.7931 27.4343L50.7983 27.4398L53.9021 31.9474L63.2657 45.5327" stroke="black" stroke-width="0.980065" stroke-linecap="round" stroke-linejoin="round"/>
<path d="M53.9354 50.388L54.1687 47.9076L54.6866 42.4281L49.5058 41.138L36.5439 37.915" stroke="black" stroke-width="0.980065" stroke-linecap="round" stroke-linejoin="round"/>
<path d="M54.1685 47.9077L65.0276 50.6089" stroke="black" stroke-width="0.980065" stroke-linecap="round" stroke-linejoin="round"/>
<path d="M50.7984 27.4313V27.4399L49.5059 41.1382" stroke="black" stroke-width="0.980065" stroke-linecap="round" stroke-linejoin="round"/>
<path d="M131.806 95.2155L136.037 96.6093L142.289 98.6654L140.801 103.495L137.423 114.449L137.415 114.446L123.495 109.866" stroke="black" stroke-width="0.980065" stroke-linecap="round" stroke-linejoin="round"/>
<path d="M126.583 105.67L126.6 105.661L131.07 103.669L142.289 98.6654" stroke="black" stroke-width="0.980065" stroke-linecap="round" stroke-linejoin="round"/>
<path d="M137.419 114.455L137.414 114.446L131.07 103.669" stroke="black" stroke-width="0.980065" stroke-linecap="round" stroke-linejoin="round"/>
<path d="M111.412 88.1877L122.308 81.7433L131.193 76.49L139.16 90.8677L139.154 90.8709L134.072 93.8762L131.806 95.2155L124.616 99.4672" stroke="black" stroke-width="0.980065" stroke-linecap="round" stroke-linejoin="round"/>
<path d="M114.591 100.208L111.064 93.8443L111.058 93.8334" stroke="black" stroke-width="0.980065" stroke-linecap="round" stroke-linejoin="round"/>
<path d="M111.412 90.2781L120.776 92.1976L125.568 93.1797L127.177 88.4139L131.193 76.49" stroke="black" stroke-width="0.980065" stroke-linecap="round" stroke-linejoin="round"/>
<path d="M120.776 92.1978L119.648 95.5494" stroke="black" stroke-width="0.980065" stroke-linecap="round" stroke-linejoin="round"/>
<path d="M139.163 90.8741L139.154 90.8709L127.176 88.4139" stroke="black" stroke-width="0.980065" stroke-linecap="round" stroke-linejoin="round"/>
<path d="M111.328 104.625L114.591 100.208L118.63 94.7452L119.648 95.5494L124.615 99.4674L128.762 102.74L128.759 102.743L126.6 105.661L123.494 109.866L118.369 116.796" stroke="black" stroke-width="0.980065" stroke-linecap="round" stroke-linejoin="round"/>
<path d="M112.371 110.279L115.691 109.576L119.494 108.769L119.247 104.764L118.631 94.7452" stroke="black" stroke-width="0.980065" stroke-linecap="round" stroke-linejoin="round"/>
<path d="M115.691 109.576L115.997 115.825" stroke="black" stroke-width="0.980065" stroke-linecap="round" stroke-linejoin="round"/>
<path d="M128.765 102.743H128.759L119.25 104.764" stroke="black" stroke-width="0.980065" stroke-linecap="round" stroke-linejoin="round"/>
<path d="M98.0121 37.7319C94.6146 35.8818 82.8638 29.5716 79.0518 27.3213C63.1357 17.9176 50.8594 9.16753 51.628 7.77679C52.3135 6.53659 63.1417 11.566 76.7612 19.3372C78.4166 20.2815 80.1096 21.2651 81.84 22.2879C83.501 23.2723 85.1296 24.2481 86.7007 25.2098C100.18 33.4396 109.95 40.5867 109.262 41.8324C108.837 42.6022 104.5 40.9525 98.0121 37.7319Z" stroke="black" stroke-width="0.980065" stroke-linecap="round" stroke-linejoin="round"/>
<path d="M72.9103 27.4685C72.4973 27.2018 72.0722 26.9225 71.6426 26.641C70.0096 25.5724 68.264 24.4109 66.498 23.2199C62.0337 20.2083 57.4494 17.0025 54.2572 14.5705C51.5536 12.5144 49.8443 11.0129 50.0436 10.6556" stroke="black" stroke-width="0.980065" stroke-linecap="round" stroke-linejoin="round"/>
<path d="M95.0694 39.8519C93.9475 39.2505 92.399 38.4261 90.6504 37.4877C88.7448 36.4628 86.6051 35.31 84.5281 34.1743C82.3748 32.9957 80.2888 31.8343 78.6021 30.864C78.1944 30.63 77.8124 30.4077 77.4583 30.1986C75.9068 29.2813 74.3862 28.3695 72.9102 27.4686" stroke="black" stroke-width="0.980065" stroke-linecap="round" stroke-linejoin="round"/>
<path d="M107.668 44.7105C107.337 45.3119 99.3449 41.8035 95.0693 39.8519" stroke="black" stroke-width="0.980065" stroke-linecap="round" stroke-linejoin="round"/>
<path d="M50.0366 10.6542L51.6282 7.77673" stroke="black" stroke-width="0.980065" stroke-linecap="round" stroke-linejoin="round"/>
<path d="M107.668 44.7105L109.262 41.8323" stroke="black" stroke-width="0.980065" stroke-linecap="round" stroke-linejoin="round"/>
<path d="M75.7993 20.6381C76.0636 20.1629 76.3869 19.7255 76.7612 19.3371C77.5933 18.4823 78.652 17.9012 79.8035 17.6674C80.9549 17.4335 82.1477 17.5573 83.2311 18.0231C84.3146 18.4889 85.2402 19.2758 85.8912 20.2846C86.5421 21.2933 86.8893 22.4787 86.8888 23.6911C86.8861 24.7565 86.6161 25.803 86.1051 26.7284" stroke="black" stroke-width="0.980065" stroke-linecap="round" stroke-linejoin="round"/>
<path d="M134.249 116.691C134.249 116.691 133.979 120.49 131.193 122.189" stroke="black" stroke-width="0.980065" stroke-linecap="round" stroke-linejoin="round"/>
<path d="M10.0955 136.857C10.0955 136.857 9.83349 140.801 25.8146 136.648" stroke="black" stroke-width="0.980065" stroke-linecap="round" stroke-linejoin="round"/>
<path d="M133.993 116.505C131.917 118.785 129.39 120.576 126.583 121.756" stroke="black" stroke-width="0.980065" stroke-linecap="round" stroke-linejoin="round"/>
<path d="M122.62 134.156C122.62 134.156 138.345 134 141.549 132.742" stroke="black" stroke-width="0.980065" stroke-linecap="round" stroke-linejoin="round"/>
<path d="M33.0674 86.4709C33.0674 86.4709 33.6321 91.8436 35.2569 93.4668" stroke="black" stroke-width="0.980065" stroke-linecap="round" stroke-linejoin="round"/>
</svg>
