<svg width="153" height="158" viewBox="0 0 153 158" fill="none" xmlns="http://www.w3.org/2000/svg">
<path d="M117.679 120.958C116.223 119.067 114.864 117.1 113.606 115.063C111.721 112.009 110.444 109.945 109.654 107.558C109.35 106.632 107.465 100.635 110.011 94.5353C111.44 91.3284 113.723 88.608 116.594 86.6924C119.465 84.7767 122.804 83.745 126.222 83.718C134.004 83.6473 141.103 88.9539 143.261 95.7913C145.001 101.286 143.193 106.609 142.972 107.252C142.364 108.979 141.536 110.322 139.932 112.936C138.206 115.72 136.326 118.398 134.301 120.958H117.679Z" fill="#81F8F8"/>
<path d="M33.5782 137.224L29.8238 131.595C29.1246 130.551 24.861 123.274 28.1594 116.468C29.3292 114.199 31.0845 112.308 33.2308 111.005C35.3771 109.703 37.8305 109.04 40.3194 109.089C45.6394 109.176 50.7466 112.582 52.4186 117.324C53.7334 121.045 52.6466 124.781 51.8486 127.45C50.7207 131.135 48.7529 134.487 46.1106 137.224H33.5782Z" fill="#81F8F8"/>
<path d="M67.4972 90.0294C75.7508 90.2413 84.2172 90.2335 92.3492 90.0294C92.9161 86.441 94.0538 82.9743 95.716 79.7694C97.0261 77.3363 98.6047 75.0682 100.42 73.0106C102.784 70.0904 109.077 62.3267 110.969 54.6494C113.12 45.9359 109.449 37.9996 108.446 35.8722C103.59 25.4396 92.3796 16.7182 78.806 16.9773C57.4576 17.3933 43.2456 39.7423 47.646 56.6669C49.432 63.4493 54.2352 69.5487 56.6596 72.6887C58.9168 75.5697 63.6592 80.3582 67.4972 90.0294Z" fill="#FFD997"/>
<path d="M92.3488 90.0294L93.1088 90.4219L90.7148 94.6687C87.1808 94.6687 72.8396 94.7315 69.1992 94.7629L66.8584 90.4219L67.5044 90.0294C75.4084 90.2256 84.1104 90.2413 92.3488 90.0294Z" fill="#81F8F8"/>
<path d="M66.6992 97.6517L69.1084 100.941C76.3349 100.423 83.5875 100.423 90.814 100.941L92.4936 98.0678C88.648 97.9422 71.3276 97.6439 66.6992 97.6517Z" fill="#81F8F8"/>
<path d="M68.3022 103.453C68.7859 104.761 69.4571 105.986 70.2934 107.087C76.7002 106.93 83.3578 106.93 89.7874 107.087C90.5532 105.988 91.1244 104.758 91.4746 103.453C84.1102 103.712 76.0238 103.728 68.3022 103.453Z" fill="#81F8F8"/>
<path d="M13.1947 46.5639C12.3055 46.5639 9.49348 51.0855 8.32308 53.0323C8.29978 53.076 8.2888 53.1256 8.29139 53.1754C8.29398 53.2252 8.31003 53.2733 8.33773 53.3141C8.36542 53.355 8.40365 53.387 8.44808 53.4066C8.49251 53.4262 8.54135 53.4325 8.58907 53.4248L11.6291 52.8282V63.7083C11.6291 63.7791 11.6563 63.847 11.7048 63.897C11.7532 63.9471 11.8189 63.9752 11.8875 63.9752C11.9204 63.9742 11.9528 63.9665 11.9829 63.9525C12.0129 63.9386 12.04 63.9186 12.0626 63.8938C12.0852 63.869 12.1028 63.8399 12.1145 63.8081C12.1262 63.7762 12.1317 63.7423 12.1307 63.7083V52.5142C12.1291 52.4751 12.1194 52.4369 12.1024 52.402C12.0853 52.367 12.0612 52.3363 12.0317 52.3118C12.0022 52.2873 11.968 52.2695 11.9313 52.2598C11.8946 52.25 11.8564 52.2484 11.8191 52.2552L9.07548 52.7968C10.7703 50.0336 12.7463 47.1841 13.2099 47.0899C13.6735 46.9957 15.7407 50.9207 16.8579 52.734L14.5095 52.1845C14.4726 52.1765 14.4345 52.1769 14.3979 52.1856C14.3612 52.1944 14.3268 52.2113 14.2971 52.2353C14.2674 52.2592 14.2432 52.2895 14.226 52.3242C14.2089 52.3588 14.1993 52.3969 14.1979 52.4357L14.1067 61.3376C14.1057 61.3723 14.1114 61.4068 14.1235 61.4392C14.1357 61.4715 14.154 61.501 14.1774 61.5259C14.2008 61.5508 14.2288 61.5706 14.2597 61.5841C14.2906 61.5976 14.3239 61.6045 14.3575 61.6045C14.424 61.6045 14.4878 61.5772 14.5348 61.5286C14.5819 61.4801 14.6083 61.4142 14.6083 61.3455L14.7147 52.7811L17.3519 53.3856C17.4028 53.3977 17.4561 53.3931 17.5044 53.3724C17.5527 53.3517 17.5935 53.3159 17.6211 53.2701C17.6488 53.2242 17.6618 53.1706 17.6585 53.1167C17.6552 53.0628 17.6357 53.0114 17.6027 52.9695C16.0599 50.6616 14.2511 46.5639 13.1947 46.5639Z" fill="black"/>
<path d="M117.209 57.4283L120.53 56.7689L120.75 71.0559C120.761 71.1179 120.792 71.174 120.838 71.2145C120.885 71.255 120.944 71.2772 121.005 71.2772C121.066 71.2772 121.125 71.255 121.171 71.2145C121.218 71.174 121.249 71.1179 121.259 71.0559C121.016 55.458 121.069 56.3764 120.933 56.2587C120.904 56.2359 120.871 56.2193 120.835 56.2098C120.8 56.2004 120.763 56.1983 120.727 56.2037L117.687 56.8003C119.618 53.8644 121.723 50.8893 122.247 50.5203C122.825 50.9128 124.983 54.7122 126.275 56.7297L123.669 56.1095C123.632 56.1012 123.593 56.1017 123.556 56.1109C123.519 56.1201 123.485 56.1379 123.456 56.1628C123.427 56.1878 123.403 56.2193 123.387 56.2549C123.372 56.2905 123.364 56.3294 123.365 56.3686V68.6695C123.365 68.7382 123.391 68.8041 123.438 68.8527C123.485 68.9013 123.549 68.9286 123.615 68.9286C123.682 68.9286 123.746 68.9013 123.793 68.8527C123.84 68.8041 123.866 68.7382 123.866 68.6695V56.714L126.777 57.3812C126.827 57.3936 126.88 57.3897 126.928 57.37C126.976 57.3503 127.017 57.3157 127.045 57.271C127.074 57.2264 127.088 57.1738 127.086 57.1204C127.084 57.0671 127.067 57.0156 127.035 56.973C125.211 54.2569 123.023 49.9787 122.24 49.9787C121.769 49.9787 119.96 52.3337 116.92 57.0437C116.896 57.0891 116.886 57.1405 116.891 57.1917C116.895 57.2429 116.913 57.2918 116.944 57.3324C116.974 57.3731 117.016 57.4037 117.063 57.4207C117.11 57.4377 117.16 57.4404 117.209 57.4283Z" fill="black"/>
<path d="M30.318 52.8361C30.318 52.8701 30.3245 52.9038 30.3371 52.9352C30.3497 52.9666 30.3681 52.9952 30.3914 53.0193C30.4147 53.0433 30.4424 53.0624 30.4728 53.0754C30.5032 53.0884 30.5358 53.0951 30.5688 53.0951C30.6017 53.0951 30.6343 53.0884 30.6647 53.0754C30.6952 53.0624 30.7228 53.0433 30.7461 53.0193C30.7694 52.9952 30.7879 52.9666 30.8005 52.9352C30.8131 52.9038 30.8196 52.8701 30.8196 52.8361C30.356 31.9708 30.318 28.14 30.2572 27.4413C30.2557 27.4055 30.2461 27.3705 30.2291 27.3393C30.212 27.308 30.1881 27.2813 30.1592 27.2614C30.1303 27.2415 30.0973 27.229 30.0628 27.2248C30.0283 27.2206 29.9934 27.2248 29.9608 27.2372L24.9448 28.8072C27.6732 24.3092 32.3244 15.9018 33.2364 15.1796C34.1256 15.894 38.5564 24.1993 41.11 28.4697L35.7444 27.1509C35.5848 27.1509 35.4632 27.1509 35.448 27.4335C35.4024 28.5246 35.448 34.577 35.448 67.1074C35.448 67.1761 35.4744 67.242 35.5214 67.2906C35.5685 67.3391 35.6322 67.3664 35.6988 67.3664C35.7653 67.3664 35.8291 67.3391 35.8761 67.2906C35.9231 67.242 35.9496 67.1761 35.9496 67.1074V27.771L41.604 29.1526C41.653 29.166 41.7048 29.1636 41.7525 29.1459C41.8003 29.1282 41.8417 29.096 41.8713 29.0535C41.901 29.011 41.9174 28.9602 41.9185 28.9078C41.9196 28.8554 41.9054 28.8039 41.8776 28.7601C38.6324 23.3672 34.1788 14.6301 33.2516 14.6301C32.3244 14.6301 27.5744 23.6105 24.1544 29.1526C24.1241 29.1976 24.1083 29.2513 24.1094 29.3061C24.1105 29.3608 24.1284 29.4138 24.1605 29.4574C24.1926 29.501 24.2372 29.533 24.288 29.5488C24.3388 29.5645 24.3931 29.5633 24.4432 29.5451L29.7632 27.8338L30.318 52.8361Z" fill="black"/>
<path d="M133.716 24.788L136.376 23.9324L136.65 36.932C136.65 37.0007 136.676 37.0666 136.723 37.1151C136.77 37.1637 136.834 37.191 136.9 37.191C136.967 37.191 137.031 37.1637 137.078 37.1151C137.125 37.0666 137.151 37.0007 137.151 36.932L136.87 23.587C136.871 23.5459 136.863 23.5052 136.845 23.4684C136.827 23.4315 136.801 23.3997 136.769 23.3757C136.737 23.3517 136.699 23.3362 136.66 23.3306C136.621 23.325 136.58 23.3295 136.543 23.3436L134.218 24.0894C135.548 21.8207 137.721 17.6524 138.314 17.252C138.892 17.6445 140.959 21.7658 142.205 23.9402L139.659 23.3122C139.622 23.3005 139.582 23.2986 139.543 23.3068C139.505 23.3151 139.469 23.3331 139.439 23.3593C139.294 23.4771 139.348 22.1269 139.348 44.4601C139.348 44.5288 139.374 44.5947 139.421 44.6433C139.468 44.6919 139.532 44.7192 139.598 44.7192C139.665 44.7192 139.729 44.6919 139.776 44.6433C139.823 44.5947 139.849 44.5288 139.849 44.4601V23.9245L142.676 24.6232C142.725 24.6365 142.777 24.6342 142.825 24.6165C142.873 24.5988 142.914 24.5665 142.944 24.524C142.973 24.4815 142.99 24.4307 142.991 24.3783C142.992 24.326 142.978 24.2745 142.95 24.2307C141.149 21.232 139.15 16.7496 138.314 16.7496C137.478 16.7496 135.221 21.5303 133.427 24.4348C133.409 24.4789 133.403 24.5273 133.41 24.5747C133.417 24.622 133.436 24.6665 133.466 24.7031C133.496 24.7397 133.536 24.767 133.58 24.782C133.624 24.797 133.671 24.7991 133.716 24.788Z" fill="black"/>
<path d="M78.798 13.8059C78.8652 13.8038 78.929 13.7748 78.9758 13.725C79.0227 13.6751 79.0488 13.6084 79.0488 13.539V4.29952C79.0386 4.23953 79.0082 4.18518 78.963 4.14602C78.9179 4.10686 78.8608 4.0854 78.8018 4.0854C78.7428 4.0854 78.6857 4.10686 78.6406 4.14602C78.5954 4.18518 78.565 4.23953 78.5548 4.29952V13.539C78.5538 13.573 78.5593 13.6069 78.571 13.6387C78.5826 13.6706 78.6003 13.6997 78.6229 13.7245C78.6454 13.7493 78.6725 13.7692 78.7026 13.7832C78.7326 13.7971 78.7651 13.8049 78.798 13.8059Z" fill="black"/>
<path d="M95.898 16.4906C95.9555 16.5248 96.0238 16.5341 96.0879 16.5164C96.152 16.4988 96.2067 16.4556 96.24 16.3964L99.8348 9.83377C99.8508 9.80388 99.8609 9.77103 99.8646 9.73709C99.8683 9.70316 99.8654 9.66882 99.8563 9.63601C99.8471 9.60321 99.8317 9.5726 99.8111 9.54592C99.7905 9.51924 99.765 9.49702 99.736 9.48052C99.7071 9.46403 99.6753 9.45359 99.6424 9.44979C99.6096 9.44599 99.5763 9.44891 99.5446 9.45839C99.5128 9.46786 99.4832 9.48371 99.4573 9.50502C99.4315 9.52632 99.41 9.55268 99.394 9.58257L95.7992 16.1373C95.7831 16.1672 95.7729 16.2 95.7692 16.234C95.7654 16.268 95.7682 16.3024 95.7774 16.3352C95.7866 16.368 95.802 16.3987 95.8227 16.4253C95.8434 16.452 95.869 16.4742 95.898 16.4906Z" fill="black"/>
<path d="M110.931 25.8478C111.075 25.8478 110.756 26.1147 114.852 22.0562C114.876 22.0321 114.895 22.0034 114.908 21.9717C114.92 21.9401 114.927 21.9061 114.927 21.8717C114.927 21.8374 114.92 21.8034 114.908 21.7718C114.895 21.7401 114.876 21.7114 114.852 21.6873C114.804 21.6398 114.74 21.6133 114.674 21.6133C114.607 21.6133 114.543 21.6398 114.495 21.6873L110.748 25.4003C110.715 25.438 110.693 25.4848 110.684 25.5352C110.676 25.5856 110.681 25.6374 110.7 25.6846C110.72 25.7317 110.752 25.7722 110.792 25.8011C110.833 25.83 110.881 25.8462 110.931 25.8478Z" fill="black"/>
<path d="M60.8698 16.3964C60.8862 16.4263 60.9082 16.4525 60.9345 16.4736C60.9608 16.4947 60.9909 16.5103 61.023 16.5194C61.0551 16.5285 61.0886 16.531 61.1217 16.5267C61.1547 16.5225 61.1866 16.5115 61.2156 16.4945C61.2445 16.4775 61.2699 16.4548 61.2904 16.4276C61.3108 16.4004 61.3259 16.3694 61.3347 16.3362C61.3435 16.3031 61.3459 16.2684 61.3418 16.2343C61.3376 16.2002 61.327 16.1672 61.3106 16.1373L57.7158 9.58257C57.6998 9.55268 57.6783 9.52632 57.6525 9.50502C57.6266 9.48371 57.597 9.46786 57.5652 9.45839C57.5335 9.44891 57.5002 9.44599 57.4674 9.44979C57.4345 9.45359 57.4027 9.46403 57.3738 9.48052C57.3448 9.49702 57.3193 9.51924 57.2987 9.54592C57.2781 9.5726 57.2627 9.60321 57.2535 9.63601C57.2444 9.66882 57.2415 9.70316 57.2452 9.73709C57.2489 9.77103 57.259 9.80388 57.275 9.83377L60.8698 16.3964Z" fill="black"/>
<path d="M49.0287 26.1068C49.0771 26.1547 49.1419 26.1808 49.2089 26.1793C49.2759 26.1778 49.3396 26.1489 49.3859 26.099C49.4323 26.049 49.4575 25.9821 49.4561 25.9129C49.4547 25.8437 49.4267 25.7779 49.3783 25.73L45.6315 22.017C45.5832 21.9691 45.5184 21.943 45.4514 21.9445C45.3844 21.946 45.3207 21.9749 45.2743 22.0248C45.228 22.0748 45.2027 22.1417 45.2042 22.2109C45.2056 22.2801 45.2336 22.3459 45.2819 22.3938L49.0287 26.1068Z" fill="black"/>
<path d="M85.0228 125.975C84.996 125.91 84.946 125.86 84.8835 125.833C84.821 125.807 84.751 125.807 84.6884 125.833C84.3996 125.967 84.0956 126.084 83.7992 126.194C83.7992 125.409 83.8524 124.624 83.8676 123.839C83.8741 123.801 83.8723 123.762 83.8625 123.724C83.8527 123.687 83.835 123.652 83.8108 123.622C83.7865 123.592 83.7562 123.568 83.7221 123.552C83.6879 123.535 83.6507 123.527 83.613 123.527C83.5754 123.527 83.5382 123.535 83.504 123.552C83.4699 123.568 83.4396 123.592 83.4153 123.622C83.3911 123.652 83.3734 123.687 83.3636 123.724C83.3538 123.762 83.352 123.801 83.3584 123.839C83.3584 124.624 83.3584 125.504 83.2824 126.359C82.4423 126.621 81.5794 126.797 80.706 126.885L80.5692 125.04C80.56 124.972 80.5272 124.91 80.4768 124.865C80.4265 124.821 80.3621 124.796 80.2956 124.797C80.2627 124.8 80.2306 124.81 80.2012 124.825C80.1719 124.841 80.1458 124.863 80.1246 124.889C80.1035 124.916 80.0875 124.946 80.0777 124.979C80.0679 125.011 80.0645 125.046 80.0676 125.08L80.2044 126.924C79.4262 126.971 78.6455 126.948 77.8712 126.854C77.704 125.731 77.5824 124.585 77.4988 123.439C77.493 123.372 77.462 123.309 77.4123 123.265C77.3626 123.221 77.2982 123.199 77.2328 123.203C77.1999 123.205 77.1676 123.214 77.1379 123.229C77.1083 123.244 77.0817 123.265 77.0598 123.29C77.0379 123.316 77.0211 123.346 77.0104 123.378C76.9997 123.41 76.9952 123.444 76.9972 123.478C77.0732 124.585 77.1948 125.692 77.3468 126.783C76.7666 126.688 76.1929 126.554 75.6292 126.383C75.5658 126.363 75.4973 126.37 75.439 126.403C75.3806 126.435 75.337 126.49 75.3176 126.555C75.3004 126.622 75.308 126.693 75.339 126.754C75.3699 126.815 75.422 126.862 75.4848 126.885C76.1236 127.074 76.7735 127.221 77.4304 127.325C77.5748 128.235 77.742 129.146 77.932 130.041C77.3578 129.912 76.7957 129.731 76.2524 129.499C76.191 129.473 76.122 129.474 76.0608 129.5C75.9995 129.526 75.9509 129.577 75.9256 129.64C75.9002 129.705 75.9003 129.777 75.9259 129.842C75.9515 129.907 76.0005 129.958 76.0624 129.986C76.7062 130.26 77.3762 130.462 78.0612 130.59C78.0992 130.763 78.1372 130.936 78.1828 131.108C78.2006 131.173 78.242 131.228 78.2984 131.262C78.3549 131.296 78.4218 131.306 78.485 131.289C78.5483 131.273 78.6029 131.232 78.6373 131.175C78.6717 131.117 78.6831 131.049 78.6692 130.983L78.6008 130.685C79.2287 130.763 79.8624 130.778 80.4932 130.732V131.124C80.4983 131.193 80.5295 131.257 80.5801 131.302C80.6307 131.346 80.6965 131.369 80.763 131.364C80.8296 131.358 80.8914 131.326 80.9348 131.274C80.9783 131.222 80.9999 131.154 80.9948 131.085V130.685C81.6946 130.595 82.3828 130.427 83.0468 130.182V130.575C83.0426 130.644 83.0649 130.713 83.1089 130.765C83.153 130.818 83.2152 130.851 83.2824 130.857C83.3156 130.86 83.3491 130.857 83.3808 130.846C83.4124 130.835 83.4416 130.818 83.4666 130.795C83.4915 130.772 83.5117 130.744 83.5257 130.713C83.5398 130.682 83.5476 130.648 83.5484 130.614C83.5484 130.402 83.5484 130.19 83.6016 129.978C83.8752 129.86 84.1412 129.727 84.3996 129.586C84.4291 129.57 84.4552 129.548 84.4765 129.521C84.4978 129.495 84.5138 129.464 84.5237 129.432C84.5336 129.399 84.5371 129.364 84.5341 129.33C84.531 129.296 84.5215 129.263 84.506 129.232C84.4906 129.202 84.4695 129.175 84.4439 129.153C84.4183 129.131 84.3888 129.114 84.3571 129.104C84.3253 129.094 84.2919 129.09 84.2588 129.093C84.2257 129.097 84.1935 129.106 84.164 129.122L83.6472 129.389C83.6472 128.832 83.7916 127.034 83.8068 126.744C84.1792 126.618 84.5668 126.469 84.924 126.304C84.9782 126.273 85.0186 126.221 85.0369 126.16C85.0553 126.098 85.0503 126.032 85.0228 125.975ZM78.4792 130.143C78.274 129.248 78.0992 128.322 77.9548 127.395C78.712 127.48 79.4747 127.498 80.2348 127.45L80.4476 130.221C79.791 130.272 79.1309 130.248 78.4792 130.151V130.143ZM83.0924 129.617C82.405 129.891 81.6879 130.078 80.9568 130.174L80.7516 127.411C81.6003 127.324 82.4397 127.159 83.2596 126.916C83.2292 127.599 83.1836 128.432 83.1152 129.625L83.0924 129.617Z" fill="black"/>
<path d="M108.674 35.7623C104.167 26.0833 93.1772 16.4513 78.7904 16.7182C57.1456 17.1343 42.9716 39.7423 47.41 56.7532C49.2036 63.5984 53.9232 69.6351 56.4616 72.8771C58.7948 75.813 63.3548 80.4445 67.1548 89.9195L66.6988 90.1942C66.6414 90.2287 66.5996 90.2852 66.5825 90.3514C66.5655 90.4176 66.5744 90.4881 66.6076 90.5475L68.8876 94.7315C67.0104 96.8981 66.5468 97.4241 66.486 97.5026C66.4673 97.5402 66.4576 97.5819 66.4576 97.6242C66.4576 97.6666 66.4673 97.7083 66.486 97.7459C66.486 97.8244 66.486 97.7459 68.8496 100.988L68.0896 103.398V103.516V103.555C68.5772 104.857 69.2426 106.081 70.0656 107.189C70.153 108.093 70.4474 108.962 70.9244 109.725L73.5692 118.493C72.8928 118.776 72.1632 119.278 72.5204 119.946C72.5204 120.024 75.302 131.14 75.4312 131.258C76.7866 132.494 78.5326 133.176 80.3408 133.176C82.149 133.176 83.8949 132.494 85.2504 131.258C85.3416 131.171 87.2872 119.954 87.2112 119.781C87.3404 119.271 86.892 118.894 86.4512 118.65L89.3392 108.485L90.0232 107.252C90.5083 106.557 90.9186 105.81 91.2468 105.023C91.4606 104.515 91.6335 103.99 91.7636 103.453L91.1404 101.059L92.744 98.319C92.776 98.2763 92.7934 98.2238 92.7934 98.1698C92.7934 98.1158 92.776 98.0633 92.744 98.0207L91.0188 94.7551L93.2988 90.6338C93.331 90.5714 93.3379 90.4982 93.318 90.4305C93.298 90.3628 93.2528 90.306 93.1924 90.2727L92.63 89.9666C93.2004 86.47 94.317 83.0924 95.936 79.9657C97.2286 77.5232 98.7921 75.2445 100.595 73.1754C102.996 70.2395 109.304 62.4445 111.235 54.7201C112.656 48.864 111.805 42.4898 108.674 35.7623ZM71.502 109.976C72.423 110.196 73.3618 110.328 74.3064 110.369C74.3898 110.938 74.5066 111.502 74.656 112.056C74.6697 112.107 74.6982 112.153 74.7376 112.186C74.777 112.22 74.8254 112.24 74.8764 112.245C75.1297 112.276 75.383 112.3 75.6364 112.316L76.4724 117.811C75.6463 117.903 74.8299 118.071 74.0328 118.313L71.502 109.976ZM76.9664 117.748L76.1532 112.355C78.7308 112.538 81.3196 112.459 83.8824 112.119L83.0692 117.795C81.0417 117.566 78.997 117.551 76.9664 117.748ZM73.1664 120.542C74.352 121.194 76.7536 121.547 79.2464 121.602C79.0714 121.77 78.9317 121.973 78.836 122.199C78.4515 122.38 78.0314 122.465 77.6092 122.449C77.1869 122.433 76.7742 122.315 76.404 122.104C76.2466 121.87 76.0365 121.678 75.7916 121.545C75.5468 121.413 75.2744 121.344 74.998 121.344C74.7215 121.344 74.4492 121.413 74.2043 121.545C73.9594 121.678 73.7493 121.87 73.592 122.104L73.1664 120.542ZM84.8248 130.92C83.5735 132.043 81.9717 132.661 80.3142 132.661C78.6567 132.661 77.0549 132.043 75.8036 130.92L74.2304 124.734C74.5171 124.874 74.8355 124.929 75.1505 124.894C75.4656 124.858 75.7652 124.734 76.0165 124.535C76.2677 124.335 76.4609 124.068 76.5748 123.763C76.6888 123.457 76.7191 123.125 76.6624 122.803C77.3176 123.035 78.0287 123.035 78.684 122.803C78.6578 123.274 78.8136 123.736 79.1172 124.087C79.4208 124.439 79.8472 124.652 80.3028 124.679C80.7583 124.706 81.2056 124.545 81.5462 124.232C81.8869 123.918 82.093 123.478 82.1192 123.007C82.6693 123.202 83.2692 123.182 83.8064 122.952C83.8244 123.205 83.9015 123.45 84.0309 123.665C84.1604 123.88 84.3384 124.06 84.5498 124.189C84.7611 124.318 84.9995 124.392 85.2446 124.405C85.4897 124.418 85.7342 124.369 85.9572 124.263L84.8248 130.92ZM86.6032 120.48L86.3752 121.853C86.1993 121.674 85.9837 121.542 85.7472 121.468C85.5106 121.394 85.2603 121.381 85.0177 121.43C84.7752 121.479 84.5478 121.588 84.3553 121.748C84.1627 121.908 84.0109 122.114 83.9128 122.348C83.6399 122.527 83.3282 122.633 83.0057 122.656C82.6833 122.679 82.3603 122.619 82.066 122.481C81.9838 122.133 81.7977 121.82 81.534 121.586C83.6924 121.422 85.6532 121.053 86.6032 120.48ZM85.9496 118.47C85.1784 118.193 84.381 118.001 83.5708 117.897L84.3992 112.072C84.8932 112.002 84.9844 112.009 85.0604 111.884C85.364 111.391 85.5515 110.832 85.6076 110.251C86.6791 110.15 87.7076 109.766 88.5944 109.136L85.9496 118.47ZM91.1328 103.759C90.7974 104.876 90.3003 105.935 89.6584 106.899C82.9856 106.734 76.4648 106.75 70.4152 106.899C69.709 105.934 69.1265 104.878 68.6824 103.759C75.8188 103.995 83.6772 103.995 91.1328 103.728V103.759ZM92.06 98.3425L90.6768 100.698C83.5333 100.199 76.3654 100.199 69.222 100.698L67.208 97.9422C71.6692 97.9186 88.3664 98.1934 92.06 98.3111V98.3425ZM92.7288 90.5632L90.5628 94.4411C87.082 94.4411 72.9308 94.496 69.336 94.5353L67.1928 90.5475L67.5652 90.3277C68.272 90.3277 84.2852 90.5318 92.2956 90.3277L92.7288 90.5632ZM70.1948 58.2055C70.6995 58.7643 71.3069 59.2137 71.9815 59.5278C72.656 59.8418 73.3843 60.014 74.124 60.0345C74.9304 59.9985 75.7183 59.7733 76.428 59.3762C77.1377 58.9791 77.7507 58.4203 78.2204 57.7423C78.7904 58.3202 79.4705 58.7694 80.2176 59.0613C80.9647 59.3532 81.7623 59.4815 82.56 59.4379C83.5664 59.3262 84.5248 58.9356 85.334 58.3075C85.7642 58.7289 86.2734 59.0549 86.8302 59.2655C87.387 59.4761 87.9796 59.5668 88.5716 59.5321C89.1717 59.4457 89.7469 59.2271 90.2583 58.8912C90.7696 58.5554 91.2052 58.11 91.5356 57.5853C92.1222 57.973 92.8089 58.1678 93.505 58.144C94.2011 58.1202 94.8738 57.8788 95.4344 57.4519C92.3032 68.1122 89.4912 79.3141 87.31 89.841H73.7972C69.906 78.3564 65.5284 66.9425 60.7556 55.8976C63.2484 58.7864 66.3948 59.7519 70.1948 58.2055ZM70.0732 56.714C70.1416 56.3215 70.6888 55.929 70.8864 55.9996C71.084 56.0703 71.1448 56.4942 71.0384 56.8553C70.9756 57.0154 70.8819 57.1606 70.763 57.2821C70.6441 57.4035 70.5025 57.4987 70.3468 57.5618C70.1574 57.3237 70.0599 57.0218 70.0732 56.714ZM85.106 56.8553C85.1817 56.5402 85.3619 56.2625 85.6152 56.0703C85.7349 56.3266 85.7645 56.6181 85.6988 56.8945C85.6441 57.1544 85.5294 57.3968 85.3644 57.601C85.206 57.4009 85.1152 57.1528 85.106 56.8945V56.8553ZM110.726 54.5866C109.038 61.424 103.969 68.2692 99.7056 73.4737C95.72 78.0465 93.083 83.7008 92.1056 89.7703C90.6844 89.8096 89.248 89.841 87.804 89.8645C89.9472 79.5182 92.8048 68.018 96.164 56.7768C96.1812 56.7203 96.1792 56.6595 96.1583 56.6045C96.1374 56.5494 96.0989 56.5033 96.0492 56.474C95.9995 56.4446 95.9415 56.4337 95.885 56.4431C95.8284 56.4525 95.7767 56.4816 95.7384 56.5256C95.2417 57.1359 94.5389 57.5282 93.7726 57.6229C93.0062 57.7177 92.2336 57.5078 91.6116 57.0358C91.5832 57.0144 91.5508 56.9993 91.5165 56.9917C91.4822 56.984 91.4466 56.9838 91.4123 56.9912C91.3779 56.9986 91.3454 57.0134 91.3169 57.0346C91.2883 57.0558 91.2645 57.083 91.2468 57.1143C90.9589 57.6241 90.5646 58.0613 90.0927 58.3939C89.6207 58.7266 89.0829 58.9465 88.5184 59.0376C88.0027 59.0631 87.4872 58.9825 87.0019 58.8006C86.5165 58.6187 86.071 58.339 85.6912 57.9778C85.9428 57.6986 86.1162 57.354 86.1928 56.9809C86.3524 56.1095 86.0104 55.1754 85.2808 55.6699C85.0945 55.8017 84.9374 55.9726 84.8195 56.1715C84.7016 56.3703 84.6257 56.5926 84.5968 56.8239C84.5905 57.2379 84.731 57.6399 84.992 57.9543C84.2654 58.5114 83.4069 58.8558 82.5068 58.9512C81.7341 58.9867 80.9633 58.8478 80.2479 58.5441C79.5326 58.2404 78.8899 57.7793 78.3648 57.1928C78.3405 57.1644 78.3107 57.1417 78.2773 57.1261C78.2439 57.1105 78.2076 57.1025 78.171 57.1025C78.1343 57.1025 78.0981 57.1105 78.0647 57.1261C78.0312 57.1417 78.0014 57.1644 77.9772 57.1928C77.6048 57.7345 76.2368 59.5478 74.1316 59.5478C72.8228 59.5094 71.5798 58.9464 70.666 57.9778C70.8626 57.883 71.0391 57.7488 71.1852 57.5831C71.3313 57.4173 71.4441 57.2233 71.5172 57.0123C71.6137 56.7476 71.622 56.4572 71.5407 56.187C71.4595 55.9169 71.2935 55.6825 71.0688 55.5208C70.5064 55.2931 69.6856 55.9761 69.5488 56.6198C69.5059 57.0302 69.6145 57.4423 69.8528 57.7737C68.1458 58.5326 66.2289 58.6191 64.4644 58.0171C61.6144 56.9495 59.9804 54.0371 59.6764 53.4641C59.6452 53.4002 59.5923 53.3504 59.5277 53.3243C59.4632 53.2983 59.3917 53.2977 59.3268 53.3228C59.2677 53.3575 59.2238 53.4143 59.204 53.4815C59.1842 53.5486 59.1901 53.621 59.2204 53.6839C64.4872 65.6237 69.2068 77.8854 73.2348 89.8645C71.35 89.8645 69.4804 89.8017 67.6488 89.7546C66.2906 86.3689 64.6131 83.1296 62.6404 80.0834C61.4145 78.1913 60.0662 76.3869 58.6048 74.6826C54.288 69.4545 49.6748 63.2609 47.904 56.5962C43.5188 39.8365 57.5636 17.6445 78.798 17.2442C92.9948 16.9694 103.787 26.4601 108.195 35.99C111.296 42.5997 112.139 48.864 110.726 54.5866Z" fill="black"/>
<path d="M26.6694 73.1283C25.8717 71.6885 24.7342 70.4806 23.3628 69.6172C21.9914 68.7539 20.4307 68.2631 18.8262 68.1907C17.214 68.1522 15.6187 68.5358 14.1888 69.3058C12.7589 70.0759 11.541 71.2072 10.6486 72.5945C7.98858 76.8178 9.01458 83.4275 13.7494 87.9962C13.7038 87.9962 13.149 88.4358 13.2174 88.9382C13.2589 89.1301 13.3524 89.3057 13.487 89.4447C13.6216 89.5837 13.7917 89.6803 13.9774 89.7232C16.0598 95.9169 15.9306 95.4694 15.8546 95.4773C15.7306 95.5479 15.6311 95.6569 15.5703 95.7889C15.5094 95.921 15.4902 96.0695 15.5154 96.2134C15.5406 96.3573 15.6089 96.4895 15.7106 96.5912C15.8124 96.6929 15.9425 96.7591 16.0826 96.7804C16.1814 97.3142 16.6146 99.2139 17.0478 99.52C17.2758 99.6927 17.7014 99.6849 18.4842 99.6535C19.267 99.6221 19.6698 99.6535 19.8826 99.418C20.217 99.0883 20.4374 97.2592 20.483 96.7804C20.6183 96.7563 20.7435 96.6907 20.8423 96.5921C20.941 96.4935 21.0087 96.3665 21.0366 96.2276C21.0645 96.0886 21.0512 95.9443 20.9986 95.8133C20.9459 95.6823 20.8563 95.5706 20.7414 95.493H20.6806L22.4438 89.4328C22.8466 89.2601 23.0822 88.9932 23.0974 88.742C23.1126 88.4908 22.7706 88.1689 22.6034 88.059C27.5738 83.9142 29.0178 77.4929 26.6694 73.1283ZM14.5094 89.8017C14.6579 89.8019 14.8059 89.7835 14.9502 89.7468C15.2123 90.0384 15.4418 90.3597 15.6342 90.7045C16.0294 91.4188 15.9458 91.7014 16.303 91.9212L16.9946 95.3595H16.4474L14.5094 89.8017ZM17.481 95.3595L16.873 92.0704C17.7741 92.1254 18.6775 92.1254 19.5786 92.0704L18.963 95.3595H17.481ZM20.179 95.4223L19.4722 95.3674L20.1182 91.9448C20.483 91.6936 20.483 91.1598 21.4254 89.5898C21.5797 89.6024 21.7347 89.6024 21.889 89.5898L20.179 95.4223Z" fill="black"/>
<path d="M143.519 57.8051C143.106 56.937 142.472 56.2015 141.685 55.6774C140.897 55.1532 139.987 54.8603 139.051 54.83C138.085 54.8331 137.138 55.1109 136.315 55.6329C135.492 56.155 134.824 56.9011 134.384 57.7894C133.199 60.1444 133.913 63.4022 136.299 65.4667C136.165 65.5414 136.055 65.6562 135.985 65.7962C135.914 65.9363 135.886 66.095 135.904 66.2517C135.938 66.3766 136.01 66.4869 136.109 66.5657C136.527 67.649 136.945 68.7245 137.356 69.8078H137.204C137.135 69.8663 137.088 69.9466 137.068 70.0362C137.048 70.1257 137.058 70.2194 137.095 70.3027C137.133 70.386 137.196 70.4542 137.274 70.4967C137.353 70.5393 137.443 70.5537 137.531 70.5378C137.563 70.7712 137.612 71.002 137.675 71.2286C137.804 71.6761 137.865 71.9037 138.047 72.0136C138.23 72.1235 138.199 72.0136 138.807 72.0136C139.567 72.0136 139.567 72.1392 139.795 71.2286C139.864 70.9225 139.909 70.6713 139.947 70.4907C140.032 70.4984 140.118 70.48 140.193 70.4378C140.268 70.3957 140.329 70.3315 140.369 70.2536C140.408 70.1756 140.425 70.0872 140.416 69.9995C140.408 69.9118 140.374 69.8287 140.32 69.7607H140.229L141.255 66.4558C141.855 66.1811 141.703 65.7179 141.095 65.4432C143.725 63.5513 144.675 60.2308 143.519 57.8051ZM136.733 66.7384C137.28 66.7384 136.869 66.4166 137.394 67.2644C137.492 67.4771 137.638 67.6628 137.819 67.806L137.933 69.7842C137.515 68.7637 137.12 67.7511 136.733 66.7384ZM138.435 69.7842L138.329 67.8845H139.339L139.096 69.7764L138.435 69.7842ZM139.643 69.7842L139.871 67.7825C140.13 67.4099 140.344 67.0067 140.51 66.5814H140.669L139.689 69.7764L139.643 69.7842Z" fill="black"/>
<path d="M41.8772 150.592H41.71L41.7936 150.223C41.8014 150.19 41.8027 150.155 41.7974 150.121C41.7921 150.087 41.7802 150.054 41.7625 150.025C41.7448 149.996 41.7216 149.97 41.6943 149.95C41.667 149.931 41.6362 149.917 41.6036 149.909C41.5382 149.895 41.47 149.907 41.4133 149.944C41.3566 149.981 41.3158 150.038 41.2996 150.105L41.1932 150.592H40.0912V150.16C40.0912 150.092 40.0648 150.026 40.0177 149.977C39.9707 149.929 39.9069 149.901 39.8404 149.901C39.7739 149.901 39.7101 149.929 39.663 149.977C39.616 150.026 39.5896 150.092 39.5896 150.16V150.592H38.5332L38.4268 150.105C38.4205 150.072 38.4078 150.04 38.3893 150.012C38.3708 149.984 38.347 149.96 38.3193 149.942C38.2915 149.923 38.2605 149.911 38.2281 149.905C38.1956 149.9 38.1624 149.901 38.1304 149.909C38.0979 149.916 38.0669 149.929 38.0394 149.948C38.0118 149.967 37.9882 149.991 37.9698 150.02C37.9514 150.048 37.9387 150.08 37.9323 150.114C37.926 150.147 37.9261 150.182 37.9328 150.215L38.0164 150.592H37.91C37.8729 150.585 37.8348 150.587 37.7984 150.597C37.762 150.608 37.7283 150.626 37.6994 150.651C37.6706 150.676 37.6475 150.707 37.6316 150.742C37.6157 150.778 37.6074 150.816 37.6074 150.855C37.6074 150.894 37.6157 150.932 37.6316 150.968C37.6475 151.003 37.6706 151.034 37.6994 151.059C37.7283 151.084 37.762 151.103 37.7984 151.113C37.8348 151.123 37.8729 151.125 37.91 151.118H38.1228L38.4344 152.617C38.4506 152.684 38.4914 152.742 38.5481 152.779C38.6048 152.815 38.673 152.828 38.7384 152.814C38.7707 152.807 38.8014 152.794 38.8286 152.775C38.8559 152.756 38.8791 152.731 38.8968 152.703C38.9146 152.674 38.9266 152.642 38.932 152.608C38.9374 152.575 38.9362 152.541 38.9284 152.508V152.405H39.6124V152.665C39.6124 152.733 39.6388 152.799 39.6858 152.848C39.7329 152.896 39.7967 152.924 39.8632 152.924C39.9297 152.924 39.9935 152.896 40.0405 152.848C40.0875 152.799 40.114 152.733 40.114 152.665V152.405H40.8132L40.7676 152.61C40.7598 152.643 40.7585 152.677 40.764 152.71C40.7694 152.744 40.7813 152.776 40.7991 152.805C40.8169 152.833 40.8401 152.858 40.8673 152.877C40.8945 152.896 40.9253 152.909 40.9576 152.916C40.9895 152.925 41.023 152.928 41.0559 152.923C41.0889 152.919 41.1205 152.907 41.149 152.889C41.1775 152.872 41.2022 152.848 41.2216 152.82C41.2409 152.793 41.2545 152.761 41.2616 152.727L41.3604 152.28C41.3713 152.236 41.3713 152.19 41.3604 152.146C41.4039 151.798 41.4777 151.453 41.5808 151.118H41.862C41.922 151.107 41.9763 151.075 42.0155 151.027C42.0547 150.979 42.0762 150.918 42.0762 150.855C42.0762 150.792 42.0547 150.731 42.0155 150.683C41.9763 150.635 41.922 150.603 41.862 150.592H41.8772ZM38.7992 151.88L38.6396 151.095H39.5896V151.88H38.7992ZM40.9044 151.88H40.0912V151.095H41.0792L40.9044 151.88Z" fill="black"/>
<path d="M128.487 138.629H128.19L128.32 137.985C128.327 137.951 128.328 137.917 128.322 137.883C128.317 137.849 128.304 137.816 128.285 137.787C128.267 137.759 128.243 137.734 128.215 137.716C128.187 137.697 128.155 137.684 128.122 137.679C128.09 137.671 128.057 137.67 128.024 137.675C127.992 137.681 127.961 137.693 127.933 137.711C127.905 137.73 127.882 137.754 127.863 137.782C127.845 137.81 127.832 137.842 127.826 137.875L127.674 138.66H126.23V137.961C126.219 137.9 126.188 137.843 126.141 137.803C126.095 137.762 126.036 137.74 125.975 137.74C125.914 137.74 125.855 137.762 125.809 137.803C125.762 137.843 125.731 137.9 125.72 137.961V138.66H124.109L123.95 137.875C123.942 137.841 123.929 137.81 123.91 137.781C123.89 137.753 123.866 137.729 123.838 137.711C123.809 137.693 123.778 137.68 123.745 137.675C123.712 137.669 123.678 137.671 123.646 137.679C123.613 137.685 123.583 137.699 123.555 137.718C123.528 137.737 123.505 137.761 123.487 137.79C123.469 137.819 123.457 137.851 123.452 137.884C123.447 137.918 123.448 137.952 123.456 137.985L123.592 138.629H123.273C123.236 138.622 123.198 138.624 123.162 138.634C123.125 138.644 123.092 138.662 123.063 138.687C123.034 138.713 123.011 138.744 122.995 138.779C122.979 138.814 122.971 138.853 122.971 138.892C122.971 138.931 122.979 138.969 122.995 139.004C123.011 139.04 123.034 139.071 123.063 139.096C123.092 139.121 123.125 139.139 123.162 139.149C123.198 139.16 123.236 139.161 123.273 139.155H123.699L123.995 140.544C123.929 140.544 123.865 140.571 123.818 140.62C123.771 140.669 123.744 140.734 123.744 140.803C123.744 140.872 123.771 140.938 123.818 140.986C123.865 141.035 123.929 141.062 123.995 141.062H124.109L124.193 141.439C124.205 141.497 124.236 141.548 124.28 141.585C124.324 141.622 124.379 141.643 124.436 141.643C124.474 141.643 124.512 141.634 124.547 141.616C124.581 141.599 124.611 141.574 124.635 141.544C124.659 141.513 124.676 141.477 124.685 141.438C124.694 141.4 124.695 141.36 124.687 141.321L124.634 141.062H125.728V141.384C125.738 141.446 125.77 141.502 125.816 141.543C125.863 141.583 125.922 141.605 125.983 141.605C126.044 141.605 126.102 141.583 126.149 141.543C126.196 141.502 126.227 141.446 126.237 141.384V141.062H127.195L127.142 141.329C127.139 141.393 127.158 141.456 127.196 141.506C127.235 141.557 127.289 141.591 127.35 141.604C127.411 141.616 127.474 141.605 127.528 141.574C127.581 141.542 127.623 141.491 127.643 141.431L127.712 141.062H127.955C128.022 141.062 128.087 141.035 128.135 140.987C128.183 140.938 128.211 140.873 128.213 140.803C128.213 140.768 128.207 140.734 128.193 140.702C128.18 140.67 128.161 140.641 128.137 140.617C128.113 140.593 128.084 140.574 128.053 140.562C128.022 140.549 127.988 140.543 127.955 140.544H127.81L128.084 139.155H128.487C128.524 139.161 128.562 139.16 128.598 139.149C128.635 139.139 128.669 139.121 128.697 139.096C128.726 139.071 128.749 139.04 128.765 139.004C128.781 138.969 128.789 138.931 128.789 138.892C128.789 138.853 128.781 138.814 128.765 138.779C128.749 138.744 128.726 138.713 128.697 138.687C128.669 138.662 128.635 138.644 128.598 138.634C128.562 138.624 128.524 138.622 128.487 138.629ZM124.512 140.544L124.216 139.155H125.736V140.544H124.512ZM127.294 140.544H126.23V139.155H127.575L127.294 140.544Z" fill="black"/>
<path d="M52.6542 117.23C50.967 112.457 45.8142 108.916 40.3194 108.83C37.7855 108.785 35.2887 109.463 33.1042 110.79C30.9197 112.117 29.1323 114.041 27.939 116.35C24.3594 123.729 29.5578 131.666 29.611 131.744L33.1602 137.051C32.9484 137.154 32.7768 137.328 32.6735 137.546C32.5702 137.763 32.5414 138.01 32.5917 138.246C32.6421 138.482 32.7686 138.694 32.9506 138.846C33.1326 138.998 33.3592 139.082 33.5934 139.084H33.829L36.755 147.774C36.0938 147.915 35.995 149.344 36.6106 149.744L37.6746 153.52C37.6896 153.575 37.7215 153.623 37.7654 153.657C37.8094 153.691 37.8629 153.709 37.9178 153.709H41.8318C41.889 153.71 41.9451 153.692 41.9907 153.656C42.0364 153.62 42.0688 153.57 42.0826 153.512L43.0174 149.744C43.2508 149.507 43.389 149.188 43.4045 148.851C43.42 148.513 43.3116 148.182 43.101 147.923L45.8902 139.068C45.9711 139.076 46.0525 139.076 46.1334 139.068C46.3518 139.049 46.5584 138.958 46.7231 138.809C46.8877 138.659 47.0018 138.46 47.0485 138.238C47.0952 138.017 47.0722 137.786 46.9827 137.58C46.8933 137.373 46.7421 137.202 46.5514 137.09C49.0873 134.393 50.9837 131.126 52.0918 127.545C52.8974 124.781 53.9994 121.037 52.6542 117.23ZM38.731 109.38C39.453 109.301 40.1801 109.285 40.9046 109.333C43.1697 113.55 44.3873 118.281 44.4483 123.103C44.5093 127.925 43.4119 132.688 41.2542 136.965H38.7842C34.969 127.929 33.7606 117.787 38.731 109.419V109.38ZM29.535 130.575C27.9491 124.944 28.2845 118.922 30.485 113.517C32.2527 111.637 34.5008 110.314 36.9678 109.701C28.3494 116.123 29.5806 127.937 35.9266 136.925H33.715C29.9758 131.344 30.0366 131.524 29.535 130.606V130.575ZM34.361 139.029H34.9462L36.1774 141.384C36.1139 141.486 36.077 141.603 36.0704 141.724C36.0638 141.845 36.0878 141.965 36.1399 142.073C36.192 142.182 36.2705 142.275 36.3677 142.342C36.4648 142.41 36.5774 142.45 36.6942 142.46H37.3022L38.2902 147.758H37.3174L34.361 139.029ZM36.755 141.949C36.5574 141.949 36.565 141.627 36.755 141.612H43.025C43.0623 141.62 43.0958 141.641 43.1197 141.672C43.1437 141.703 43.1568 141.741 43.1568 141.78C43.1568 141.82 43.1437 141.858 43.1197 141.889C43.0958 141.92 43.0623 141.941 43.025 141.949H36.755ZM42.3942 142.475L40.9578 147.766H38.807L37.8114 142.46L42.3942 142.475ZM41.7026 153.19H38.1382L37.1882 149.823H42.5082L41.7026 153.19ZM42.8198 149.265H36.9146C36.8046 149.114 36.7482 148.929 36.755 148.74C36.7643 148.583 36.7976 148.43 36.8538 148.284H42.7894C42.8413 148.342 42.8809 148.41 42.9057 148.484C42.9306 148.559 42.9402 148.638 42.9338 148.716C42.96 148.919 42.9081 149.125 42.7894 149.289L42.8198 149.265ZM42.6754 147.743H41.4518L42.8882 142.46H43.0174C43.1471 142.442 43.269 142.386 43.3684 142.298C43.4678 142.21 43.5404 142.094 43.5774 141.965C43.6144 141.835 43.6142 141.697 43.5769 141.568C43.5395 141.438 43.4666 141.322 43.367 141.235L44.887 139.021H45.381L42.6754 147.743ZM46.6198 138.024C46.6152 138.152 46.5668 138.273 46.4831 138.366C46.3995 138.46 46.2863 138.52 46.1638 138.535C40.3878 138.283 40.4714 138.535 33.6314 138.535C33.4942 138.535 33.3622 138.48 33.2631 138.382C33.1639 138.284 33.1053 138.15 33.0994 138.009C33.0974 137.938 33.109 137.867 33.1336 137.801C33.1582 137.735 33.1953 137.675 33.2427 137.624C33.29 137.573 33.3468 137.532 33.4096 137.503C33.4725 137.475 33.5401 137.46 33.6086 137.459C50.6022 137.31 44.925 137.459 46.141 137.459C46.2756 137.477 46.3981 137.548 46.482 137.659C46.5659 137.769 46.6045 137.909 46.5894 138.048L46.6198 138.024ZM50.6174 130.08C49.4978 132.623 47.9544 134.942 46.0574 136.933H44.0206C45.2442 134.908 51.7726 123.251 46.6426 113.956C45.7334 112.331 44.5493 110.887 43.1466 109.694C45.1689 110.181 47.0595 111.131 48.6794 112.473C51.486 117.878 52.1691 124.192 50.587 130.104L50.6174 130.08Z" fill="black"/>
<path d="M143.505 95.7049C141.331 88.8283 134.385 83.4511 126.222 83.4511C122.753 83.4724 119.361 84.5185 116.449 86.4658C113.536 88.4131 111.223 91.1804 109.783 94.4411C108.139 98.6587 108.009 103.345 109.419 107.653C110.179 110.078 111.547 112.237 113.393 115.212C114.579 117.135 115.871 119.012 117.193 120.801C116.977 120.898 116.791 121.055 116.657 121.254C116.523 121.454 116.445 121.689 116.433 121.932C116.421 122.288 116.543 122.634 116.775 122.898C117.006 123.162 117.328 123.322 117.672 123.345H117.931L122.073 135.01C121.358 135.253 121.313 137.004 121.981 137.42L123.091 142.295C123.105 142.352 123.137 142.403 123.183 142.438C123.228 142.474 123.285 142.493 123.342 142.491H128.472C128.529 142.493 128.585 142.474 128.631 142.438C128.676 142.403 128.709 142.352 128.723 142.295L129.939 137.428C130.232 137.126 130.403 136.721 130.419 136.295C130.434 135.868 130.293 135.451 130.022 135.128L133.693 123.353H134.278C134.568 123.339 134.846 123.224 135.064 123.026C135.282 122.829 135.429 122.56 135.479 122.264C135.53 121.969 135.481 121.664 135.342 121.401C135.202 121.138 134.98 120.932 134.711 120.817C136.646 118.347 138.448 115.768 140.107 113.093C141.344 111.308 142.379 109.382 143.193 107.354C144.474 103.6 144.583 99.5261 143.505 95.7049ZM127.195 84.0006C133.617 95.5008 133.488 109.081 127.56 120.896H124.725C118.911 109.121 117.779 95.595 124.603 84.0869C125.464 83.9908 126.33 83.9619 127.195 84.0006ZM112.953 113.54C111.494 109.595 110.84 105.381 111.032 101.162C111.224 96.9431 112.259 92.811 114.07 89.0246C116.35 86.8091 119.151 85.2453 122.194 84.4873C110.498 92.8632 112.314 108.822 120.674 120.801C119.717 120.801 118.767 120.746 117.824 120.699C116.069 118.415 114.448 116.024 112.968 113.54H112.953ZM118.463 123.337H119.511L121.556 126.665C121.503 126.792 121.479 126.929 121.484 127.066C121.49 127.203 121.524 127.338 121.586 127.46C121.648 127.581 121.735 127.687 121.842 127.77C121.948 127.853 122.071 127.91 122.202 127.937H122.559L123.912 135.002H122.635L118.463 123.337ZM122.225 127.411C122.05 127.411 121.951 127.034 122.035 126.838C122.27 126.587 121.199 126.665 129.635 126.665C129.699 126.68 129.758 126.716 129.802 126.767C129.813 126.791 129.828 126.813 129.847 126.83C129.946 127.034 129.847 127.372 129.673 127.411H122.225ZM129.391 127.937L127.522 135.002H124.429L123.076 127.937H129.391ZM128.282 141.965H123.539L122.521 137.49H129.361L128.282 141.965ZM129.68 136.972H122.232C122.144 136.865 122.078 136.739 122.039 136.604C122 136.469 121.988 136.327 122.004 136.187C121.995 135.946 122.064 135.708 122.202 135.512H129.68C129.741 135.512 129.893 135.756 129.908 136.156C129.926 136.299 129.917 136.444 129.88 136.582C129.844 136.721 129.781 136.851 129.695 136.965L129.68 136.972ZM129.536 134.978H128.016L129.901 127.913C130.103 127.8 130.259 127.613 130.337 127.389C130.416 127.164 130.412 126.918 130.326 126.697L132.234 123.368H133.131L129.536 134.978ZM135.008 122.05C135.008 122.258 134.928 122.457 134.785 122.605C134.643 122.752 134.449 122.835 134.248 122.835H133.488H117.71C117.5 122.822 117.304 122.726 117.162 122.566C117.02 122.406 116.944 122.196 116.95 121.979C116.961 121.786 117.041 121.603 117.174 121.467C117.308 121.331 117.485 121.25 117.672 121.241C126.572 121.633 133.67 121.241 134.271 121.241C134.37 121.244 134.469 121.267 134.56 121.31C134.651 121.352 134.733 121.412 134.801 121.487C134.87 121.563 134.923 121.651 134.959 121.747C134.994 121.844 135.011 121.946 135.008 122.05ZM140.153 112.064C138.325 115.065 136.323 117.949 134.157 120.699C133.108 120.746 132.051 120.778 131.01 120.809C132.378 118.925 140.943 106.499 136.269 93.5069C135.01 90.0821 133.02 86.994 130.448 84.4716C132.924 85.0813 135.253 86.2116 137.288 87.7921C141.211 95.2072 142.237 103.893 140.153 112.064Z" fill="black"/>
</svg>
