<svg width="802" height="342" viewBox="0 0 802 342" fill="none" xmlns="http://www.w3.org/2000/svg">
<rect x="1" y="1" width="800" height="340" rx="24" fill="#DBC0FF" fill-opacity="0.1"/>
<rect x="1" y="1" width="800" height="340" rx="24" stroke="#9747FF" stroke-width="2" stroke-linecap="round" stroke-dasharray="10 10"/>
<g filter="url(#filter0_dd_10_12139)">
<rect x="65" y="111" width="192" height="36" fill="#FFA00F"/>
<rect x="65.25" y="111.25" width="191.5" height="35.5" stroke="url(#paint0_linear_10_12139)" stroke-width="0.5" stroke-linecap="round" style="mix-blend-mode:darken"/>
</g>
<rect x="65" y="111" width="192" height="36" fill="url(#paint1_linear_10_12139)" fill-opacity="0.3" style="mix-blend-mode:overlay"/>
<rect x="65" y="111" width="192" height="36" fill="url(#paint2_radial_10_12139)" fill-opacity="0.6" style="mix-blend-mode:overlay"/>
<g filter="url(#filter1_i_10_12139)">
<path fill-rule="evenodd" clip-rule="evenodd" d="M209 135L207.686 135.691C205.842 136.66 204.92 137.145 204.238 137.019C203.645 136.909 203.133 136.537 202.845 136.007C202.514 135.397 202.691 134.371 203.043 132.318L203.294 130.854L202.23 129.818C200.739 128.364 199.993 127.636 199.902 126.949C199.824 126.351 200.019 125.749 200.434 125.312C200.912 124.809 201.942 124.659 204.004 124.359L205.473 124.146L206.13 122.814C207.052 120.946 207.513 120.012 208.139 119.714C208.684 119.454 209.316 119.454 209.861 119.714C210.487 120.012 210.948 120.946 211.87 122.814L212.527 124.146L213.996 124.359C216.058 124.659 217.089 124.809 217.566 125.312C217.981 125.749 218.176 126.351 218.098 126.949C218.007 127.636 217.261 128.364 215.77 129.818L214.706 130.854L214.957 132.318C215.31 134.371 215.486 135.397 215.155 136.007C214.867 136.537 214.355 136.909 213.762 137.019C213.08 137.145 212.158 136.66 210.314 135.691L209 135Z" fill="black" fill-opacity="0.24" style="mix-blend-mode:color-burn"/>
<path fill-rule="evenodd" clip-rule="evenodd" d="M209 135L207.686 135.691C205.842 136.66 204.92 137.145 204.238 137.019C203.645 136.909 203.133 136.537 202.845 136.007C202.514 135.397 202.691 134.371 203.043 132.318L203.294 130.854L202.23 129.818C200.739 128.364 199.993 127.636 199.902 126.949C199.824 126.351 200.019 125.749 200.434 125.312C200.912 124.809 201.942 124.659 204.004 124.359L205.473 124.146L206.13 122.814C207.052 120.946 207.513 120.012 208.139 119.714C208.684 119.454 209.316 119.454 209.861 119.714C210.487 120.012 210.948 120.946 211.87 122.814L212.527 124.146L213.996 124.359C216.058 124.659 217.089 124.809 217.566 125.312C217.981 125.749 218.176 126.351 218.098 126.949C218.007 127.636 217.261 128.364 215.77 129.818L214.706 130.854L214.957 132.318C215.31 134.371 215.486 135.397 215.155 136.007C214.867 136.537 214.355 136.909 213.762 137.019C213.08 137.145 212.158 136.66 210.314 135.691L209 135Z" fill="black" fill-opacity="0.32" style="mix-blend-mode:darken"/>
</g>
<g filter="url(#filter2_i_10_12139)">
<path fill-rule="evenodd" clip-rule="evenodd" d="M185 135L183.686 135.691C181.842 136.66 180.92 137.145 180.238 137.019C179.645 136.909 179.133 136.537 178.845 136.007C178.514 135.397 178.691 134.371 179.043 132.318L179.294 130.854L178.23 129.818C176.739 128.364 175.993 127.636 175.902 126.949C175.824 126.351 176.019 125.749 176.434 125.312C176.912 124.809 177.942 124.659 180.004 124.359L181.473 124.146L182.13 122.814C183.052 120.946 183.513 120.012 184.139 119.714C184.684 119.454 185.316 119.454 185.861 119.714C186.487 120.012 186.948 120.946 187.87 122.814L188.527 124.146L189.996 124.359C192.058 124.659 193.089 124.809 193.566 125.312C193.981 125.749 194.176 126.351 194.098 126.949C194.007 127.636 193.261 128.364 191.77 129.818L190.706 130.854L190.957 132.318C191.31 134.371 191.486 135.397 191.155 136.007C190.867 136.537 190.355 136.909 189.762 137.019C189.08 137.145 188.158 136.66 186.314 135.691L185 135Z" fill="black" fill-opacity="0.24" style="mix-blend-mode:color-burn"/>
<path fill-rule="evenodd" clip-rule="evenodd" d="M185 135L183.686 135.691C181.842 136.66 180.92 137.145 180.238 137.019C179.645 136.909 179.133 136.537 178.845 136.007C178.514 135.397 178.691 134.371 179.043 132.318L179.294 130.854L178.23 129.818C176.739 128.364 175.993 127.636 175.902 126.949C175.824 126.351 176.019 125.749 176.434 125.312C176.912 124.809 177.942 124.659 180.004 124.359L181.473 124.146L182.13 122.814C183.052 120.946 183.513 120.012 184.139 119.714C184.684 119.454 185.316 119.454 185.861 119.714C186.487 120.012 186.948 120.946 187.87 122.814L188.527 124.146L189.996 124.359C192.058 124.659 193.089 124.809 193.566 125.312C193.981 125.749 194.176 126.351 194.098 126.949C194.007 127.636 193.261 128.364 191.77 129.818L190.706 130.854L190.957 132.318C191.31 134.371 191.486 135.397 191.155 136.007C190.867 136.537 190.355 136.909 189.762 137.019C189.08 137.145 188.158 136.66 186.314 135.691L185 135Z" fill="black" fill-opacity="0.32" style="mix-blend-mode:darken"/>
</g>
<g filter="url(#filter3_i_10_12139)">
<path fill-rule="evenodd" clip-rule="evenodd" d="M161 135L159.686 135.691C157.842 136.66 156.92 137.145 156.238 137.019C155.645 136.909 155.133 136.537 154.845 136.007C154.514 135.397 154.691 134.371 155.043 132.318L155.294 130.854L154.23 129.818C152.739 128.364 151.993 127.636 151.902 126.949C151.824 126.351 152.019 125.749 152.434 125.312C152.912 124.809 153.942 124.659 156.004 124.359L157.473 124.146L158.13 122.814C159.052 120.946 159.513 120.012 160.139 119.714C160.684 119.454 161.316 119.454 161.861 119.714C162.487 120.012 162.948 120.946 163.87 122.814L164.527 124.146L165.996 124.359C168.058 124.659 169.089 124.809 169.566 125.312C169.981 125.749 170.176 126.351 170.098 126.949C170.007 127.636 169.261 128.364 167.77 129.818L166.706 130.854L166.957 132.318C167.31 134.371 167.486 135.397 167.155 136.007C166.867 136.537 166.355 136.909 165.762 137.019C165.08 137.145 164.158 136.66 162.314 135.691L161 135Z" fill="black" fill-opacity="0.24" style="mix-blend-mode:color-burn"/>
<path fill-rule="evenodd" clip-rule="evenodd" d="M161 135L159.686 135.691C157.842 136.66 156.92 137.145 156.238 137.019C155.645 136.909 155.133 136.537 154.845 136.007C154.514 135.397 154.691 134.371 155.043 132.318L155.294 130.854L154.23 129.818C152.739 128.364 151.993 127.636 151.902 126.949C151.824 126.351 152.019 125.749 152.434 125.312C152.912 124.809 153.942 124.659 156.004 124.359L157.473 124.146L158.13 122.814C159.052 120.946 159.513 120.012 160.139 119.714C160.684 119.454 161.316 119.454 161.861 119.714C162.487 120.012 162.948 120.946 163.87 122.814L164.527 124.146L165.996 124.359C168.058 124.659 169.089 124.809 169.566 125.312C169.981 125.749 170.176 126.351 170.098 126.949C170.007 127.636 169.261 128.364 167.77 129.818L166.706 130.854L166.957 132.318C167.31 134.371 167.486 135.397 167.155 136.007C166.867 136.537 166.355 136.909 165.762 137.019C165.08 137.145 164.158 136.66 162.314 135.691L161 135Z" fill="black" fill-opacity="0.32" style="mix-blend-mode:darken"/>
</g>
<g filter="url(#filter4_i_10_12139)">
<path fill-rule="evenodd" clip-rule="evenodd" d="M137 135L135.686 135.691C133.842 136.66 132.92 137.145 132.238 137.019C131.645 136.909 131.133 136.537 130.845 136.007C130.514 135.397 130.691 134.371 131.043 132.318L131.294 130.854L130.23 129.818C128.739 128.364 127.993 127.636 127.902 126.949C127.824 126.351 128.019 125.749 128.434 125.312C128.912 124.809 129.942 124.659 132.004 124.359L133.473 124.146L134.13 122.814C135.052 120.946 135.513 120.012 136.139 119.714C136.684 119.454 137.316 119.454 137.861 119.714C138.487 120.012 138.948 120.946 139.87 122.814L140.527 124.146L141.996 124.359C144.058 124.659 145.089 124.809 145.566 125.312C145.981 125.749 146.176 126.351 146.098 126.949C146.007 127.636 145.261 128.364 143.77 129.818L142.706 130.854L142.957 132.318C143.31 134.371 143.486 135.397 143.155 136.007C142.867 136.537 142.355 136.909 141.762 137.019C141.08 137.145 140.158 136.66 138.314 135.691L137 135Z" fill="black" fill-opacity="0.24" style="mix-blend-mode:color-burn"/>
<path fill-rule="evenodd" clip-rule="evenodd" d="M137 135L135.686 135.691C133.842 136.66 132.92 137.145 132.238 137.019C131.645 136.909 131.133 136.537 130.845 136.007C130.514 135.397 130.691 134.371 131.043 132.318L131.294 130.854L130.23 129.818C128.739 128.364 127.993 127.636 127.902 126.949C127.824 126.351 128.019 125.749 128.434 125.312C128.912 124.809 129.942 124.659 132.004 124.359L133.473 124.146L134.13 122.814C135.052 120.946 135.513 120.012 136.139 119.714C136.684 119.454 137.316 119.454 137.861 119.714C138.487 120.012 138.948 120.946 139.87 122.814L140.527 124.146L141.996 124.359C144.058 124.659 145.089 124.809 145.566 125.312C145.981 125.749 146.176 126.351 146.098 126.949C146.007 127.636 145.261 128.364 143.77 129.818L142.706 130.854L142.957 132.318C143.31 134.371 143.486 135.397 143.155 136.007C142.867 136.537 142.355 136.909 141.762 137.019C141.08 137.145 140.158 136.66 138.314 135.691L137 135Z" fill="black" fill-opacity="0.32" style="mix-blend-mode:darken"/>
</g>
<g filter="url(#filter5_d_10_12139)">
<path fill-rule="evenodd" clip-rule="evenodd" d="M113 135L111.686 135.691C109.842 136.66 108.92 137.145 108.238 137.019C107.645 136.909 107.133 136.537 106.845 136.007C106.514 135.397 106.691 134.371 107.043 132.318L107.294 130.854L106.23 129.818C104.739 128.364 103.993 127.636 103.902 126.949C103.824 126.351 104.019 125.749 104.434 125.312C104.912 124.809 105.942 124.659 108.004 124.359L109.473 124.146L110.13 122.814C111.052 120.946 111.513 120.012 112.139 119.714C112.684 119.454 113.316 119.454 113.861 119.714C114.487 120.012 114.948 120.946 115.87 122.814L116.527 124.146L117.996 124.359C120.058 124.659 121.089 124.809 121.566 125.312C121.981 125.749 122.176 126.351 122.098 126.949C122.007 127.636 121.261 128.364 119.77 129.818L118.706 130.854L118.957 132.318C119.31 134.371 119.486 135.397 119.155 136.007C118.867 136.537 118.355 136.909 117.762 137.019C117.08 137.145 116.158 136.66 114.314 135.691L113 135Z" fill="white"/>
<path d="M112.032 119.488C112.644 119.196 113.356 119.196 113.968 119.488C114.35 119.67 114.653 120.032 114.967 120.544C115.283 121.061 115.635 121.774 116.094 122.704L116.692 123.917L118.032 124.112C119.057 124.261 119.844 124.375 120.433 124.516C121.018 124.656 121.456 124.833 121.747 125.139C122.214 125.632 122.434 126.309 122.345 126.982C122.29 127.401 122.04 127.801 121.649 128.258C121.256 128.719 120.686 129.273 119.944 129.997L118.974 130.941L119.204 132.275C119.379 133.297 119.513 134.081 119.561 134.684C119.608 135.283 119.576 135.754 119.375 136.126C119.051 136.722 118.474 137.14 117.807 137.264C117.392 137.341 116.934 137.227 116.378 136.997C115.819 136.765 115.115 136.395 114.198 135.913L113 135.282L111.802 135.913C110.885 136.395 110.181 136.765 109.622 136.997C109.066 137.227 108.608 137.341 108.193 137.264C107.526 137.14 106.949 136.722 106.625 136.126C106.424 135.754 106.392 135.283 106.439 134.684C106.487 134.081 106.621 133.297 106.796 132.275L107.025 130.94L106.056 129.997C105.314 129.273 104.744 128.719 104.351 128.258C103.96 127.801 103.71 127.401 103.655 126.982C103.566 126.309 103.786 125.632 104.253 125.139C104.544 124.833 104.982 124.656 105.567 124.516C106.156 124.375 106.943 124.261 107.968 124.112L109.308 123.917L109.907 122.704C110.365 121.774 110.717 121.061 111.033 120.544C111.347 120.032 111.65 119.67 112.032 119.488Z" stroke="url(#paint3_linear_10_12139)" stroke-width="0.5" stroke-linecap="round" style="mix-blend-mode:color-burn"/>
</g>
<g filter="url(#filter6_dd_10_12139)">
<rect x="305" y="111" width="192" height="36" fill="#FFA00F"/>
<rect x="305.25" y="111.25" width="191.5" height="35.5" stroke="url(#paint4_linear_10_12139)" stroke-width="0.5" stroke-linecap="round" style="mix-blend-mode:darken"/>
</g>
<rect x="305" y="111" width="192" height="36" fill="url(#paint5_linear_10_12139)" fill-opacity="0.3" style="mix-blend-mode:overlay"/>
<rect x="305" y="111" width="192" height="36" fill="url(#paint6_radial_10_12139)" fill-opacity="0.6" style="mix-blend-mode:overlay"/>
<g filter="url(#filter7_i_10_12139)">
<path fill-rule="evenodd" clip-rule="evenodd" d="M449 135L447.686 135.691C445.842 136.66 444.92 137.145 444.238 137.019C443.645 136.909 443.133 136.537 442.845 136.007C442.514 135.397 442.691 134.371 443.043 132.318L443.294 130.854L442.23 129.818C440.739 128.364 439.993 127.636 439.902 126.949C439.824 126.351 440.019 125.749 440.434 125.312C440.912 124.809 441.942 124.659 444.004 124.359L445.473 124.146L446.13 122.814C447.052 120.946 447.513 120.012 448.139 119.714C448.684 119.454 449.316 119.454 449.861 119.714C450.487 120.012 450.948 120.946 451.87 122.814L452.527 124.146L453.996 124.359C456.058 124.659 457.089 124.809 457.566 125.312C457.981 125.749 458.176 126.351 458.098 126.949C458.007 127.636 457.261 128.364 455.77 129.818L454.706 130.854L454.957 132.318C455.31 134.371 455.486 135.397 455.155 136.007C454.867 136.537 454.355 136.909 453.762 137.019C453.08 137.145 452.158 136.66 450.314 135.691L449 135Z" fill="black" fill-opacity="0.24" style="mix-blend-mode:color-burn"/>
<path fill-rule="evenodd" clip-rule="evenodd" d="M449 135L447.686 135.691C445.842 136.66 444.92 137.145 444.238 137.019C443.645 136.909 443.133 136.537 442.845 136.007C442.514 135.397 442.691 134.371 443.043 132.318L443.294 130.854L442.23 129.818C440.739 128.364 439.993 127.636 439.902 126.949C439.824 126.351 440.019 125.749 440.434 125.312C440.912 124.809 441.942 124.659 444.004 124.359L445.473 124.146L446.13 122.814C447.052 120.946 447.513 120.012 448.139 119.714C448.684 119.454 449.316 119.454 449.861 119.714C450.487 120.012 450.948 120.946 451.87 122.814L452.527 124.146L453.996 124.359C456.058 124.659 457.089 124.809 457.566 125.312C457.981 125.749 458.176 126.351 458.098 126.949C458.007 127.636 457.261 128.364 455.77 129.818L454.706 130.854L454.957 132.318C455.31 134.371 455.486 135.397 455.155 136.007C454.867 136.537 454.355 136.909 453.762 137.019C453.08 137.145 452.158 136.66 450.314 135.691L449 135Z" fill="black" fill-opacity="0.32" style="mix-blend-mode:darken"/>
</g>
<g filter="url(#filter8_i_10_12139)">
<path fill-rule="evenodd" clip-rule="evenodd" d="M425 135L423.686 135.691C421.842 136.66 420.92 137.145 420.238 137.019C419.645 136.909 419.133 136.537 418.845 136.007C418.514 135.397 418.691 134.371 419.043 132.318L419.294 130.854L418.23 129.818C416.739 128.364 415.993 127.636 415.902 126.949C415.824 126.351 416.019 125.749 416.434 125.312C416.912 124.809 417.942 124.659 420.004 124.359L421.473 124.146L422.13 122.814C423.052 120.946 423.513 120.012 424.139 119.714C424.684 119.454 425.316 119.454 425.861 119.714C426.487 120.012 426.948 120.946 427.87 122.814L428.527 124.146L429.996 124.359C432.058 124.659 433.089 124.809 433.566 125.312C433.981 125.749 434.176 126.351 434.098 126.949C434.007 127.636 433.261 128.364 431.77 129.818L430.706 130.854L430.957 132.318C431.31 134.371 431.486 135.397 431.155 136.007C430.867 136.537 430.355 136.909 429.762 137.019C429.08 137.145 428.158 136.66 426.314 135.691L425 135Z" fill="black" fill-opacity="0.24" style="mix-blend-mode:color-burn"/>
<path fill-rule="evenodd" clip-rule="evenodd" d="M425 135L423.686 135.691C421.842 136.66 420.92 137.145 420.238 137.019C419.645 136.909 419.133 136.537 418.845 136.007C418.514 135.397 418.691 134.371 419.043 132.318L419.294 130.854L418.23 129.818C416.739 128.364 415.993 127.636 415.902 126.949C415.824 126.351 416.019 125.749 416.434 125.312C416.912 124.809 417.942 124.659 420.004 124.359L421.473 124.146L422.13 122.814C423.052 120.946 423.513 120.012 424.139 119.714C424.684 119.454 425.316 119.454 425.861 119.714C426.487 120.012 426.948 120.946 427.87 122.814L428.527 124.146L429.996 124.359C432.058 124.659 433.089 124.809 433.566 125.312C433.981 125.749 434.176 126.351 434.098 126.949C434.007 127.636 433.261 128.364 431.77 129.818L430.706 130.854L430.957 132.318C431.31 134.371 431.486 135.397 431.155 136.007C430.867 136.537 430.355 136.909 429.762 137.019C429.08 137.145 428.158 136.66 426.314 135.691L425 135Z" fill="black" fill-opacity="0.32" style="mix-blend-mode:darken"/>
</g>
<g filter="url(#filter9_i_10_12139)">
<path fill-rule="evenodd" clip-rule="evenodd" d="M401 135L399.686 135.691C397.842 136.66 396.92 137.145 396.238 137.019C395.645 136.909 395.133 136.537 394.845 136.007C394.514 135.397 394.691 134.371 395.043 132.318L395.294 130.854L394.23 129.818C392.739 128.364 391.993 127.636 391.902 126.949C391.824 126.351 392.019 125.749 392.434 125.312C392.912 124.809 393.942 124.659 396.004 124.359L397.473 124.146L398.13 122.814C399.052 120.946 399.513 120.012 400.139 119.714C400.684 119.454 401.316 119.454 401.861 119.714C402.487 120.012 402.948 120.946 403.87 122.814L404.527 124.146L405.996 124.359C408.058 124.659 409.089 124.809 409.566 125.312C409.981 125.749 410.176 126.351 410.098 126.949C410.007 127.636 409.261 128.364 407.77 129.818L406.706 130.854L406.957 132.318C407.31 134.371 407.486 135.397 407.155 136.007C406.867 136.537 406.355 136.909 405.762 137.019C405.08 137.145 404.158 136.66 402.314 135.691L401 135Z" fill="black" fill-opacity="0.24" style="mix-blend-mode:color-burn"/>
<path fill-rule="evenodd" clip-rule="evenodd" d="M401 135L399.686 135.691C397.842 136.66 396.92 137.145 396.238 137.019C395.645 136.909 395.133 136.537 394.845 136.007C394.514 135.397 394.691 134.371 395.043 132.318L395.294 130.854L394.23 129.818C392.739 128.364 391.993 127.636 391.902 126.949C391.824 126.351 392.019 125.749 392.434 125.312C392.912 124.809 393.942 124.659 396.004 124.359L397.473 124.146L398.13 122.814C399.052 120.946 399.513 120.012 400.139 119.714C400.684 119.454 401.316 119.454 401.861 119.714C402.487 120.012 402.948 120.946 403.87 122.814L404.527 124.146L405.996 124.359C408.058 124.659 409.089 124.809 409.566 125.312C409.981 125.749 410.176 126.351 410.098 126.949C410.007 127.636 409.261 128.364 407.77 129.818L406.706 130.854L406.957 132.318C407.31 134.371 407.486 135.397 407.155 136.007C406.867 136.537 406.355 136.909 405.762 137.019C405.08 137.145 404.158 136.66 402.314 135.691L401 135Z" fill="black" fill-opacity="0.32" style="mix-blend-mode:darken"/>
</g>
<g filter="url(#filter10_d_10_12139)">
<path fill-rule="evenodd" clip-rule="evenodd" d="M377 135L375.686 135.691C373.842 136.66 372.92 137.145 372.238 137.019C371.645 136.909 371.133 136.537 370.845 136.007C370.514 135.397 370.691 134.371 371.043 132.318L371.294 130.854L370.23 129.818C368.739 128.364 367.993 127.636 367.902 126.949C367.824 126.351 368.019 125.749 368.434 125.312C368.912 124.809 369.942 124.659 372.004 124.359L373.473 124.146L374.13 122.814C375.052 120.946 375.513 120.012 376.139 119.714C376.684 119.454 377.316 119.454 377.861 119.714C378.487 120.012 378.948 120.946 379.87 122.814L380.527 124.146L381.996 124.359C384.058 124.659 385.089 124.809 385.566 125.312C385.981 125.749 386.176 126.351 386.098 126.949C386.007 127.636 385.261 128.364 383.77 129.818L382.706 130.854L382.957 132.318C383.31 134.371 383.486 135.397 383.155 136.007C382.867 136.537 382.355 136.909 381.762 137.019C381.08 137.145 380.158 136.66 378.314 135.691L377 135Z" fill="white"/>
<path d="M376.032 119.488C376.644 119.196 377.356 119.196 377.968 119.488C378.35 119.67 378.653 120.032 378.967 120.544C379.283 121.061 379.635 121.774 380.094 122.704L380.692 123.917L382.032 124.112C383.057 124.261 383.844 124.375 384.433 124.516C385.018 124.656 385.456 124.833 385.747 125.139C386.214 125.632 386.434 126.309 386.345 126.982C386.29 127.401 386.04 127.801 385.649 128.258C385.256 128.719 384.686 129.273 383.944 129.997L382.974 130.941L383.204 132.275C383.379 133.297 383.513 134.081 383.561 134.684C383.608 135.283 383.576 135.754 383.375 136.126C383.051 136.722 382.474 137.14 381.807 137.264C381.392 137.341 380.934 137.227 380.378 136.997C379.819 136.765 379.115 136.395 378.198 135.913L377 135.282L375.802 135.913C374.885 136.395 374.181 136.765 373.622 136.997C373.066 137.227 372.608 137.341 372.193 137.264C371.526 137.14 370.949 136.722 370.625 136.126C370.424 135.754 370.392 135.283 370.439 134.684C370.487 134.081 370.621 133.297 370.796 132.275L371.025 130.94L370.056 129.997C369.314 129.273 368.744 128.719 368.351 128.258C367.96 127.801 367.71 127.401 367.655 126.982C367.566 126.309 367.786 125.632 368.253 125.139C368.544 124.833 368.982 124.656 369.567 124.516C370.156 124.375 370.943 124.261 371.968 124.112L373.308 123.917L373.907 122.704C374.365 121.774 374.717 121.061 375.033 120.544C375.347 120.032 375.65 119.67 376.032 119.488Z" stroke="url(#paint7_linear_10_12139)" stroke-width="0.5" stroke-linecap="round" style="mix-blend-mode:color-burn"/>
</g>
<g filter="url(#filter11_d_10_12139)">
<path fill-rule="evenodd" clip-rule="evenodd" d="M353 135L351.686 135.691C349.842 136.66 348.92 137.145 348.238 137.019C347.645 136.909 347.133 136.537 346.845 136.007C346.514 135.397 346.691 134.371 347.043 132.318L347.294 130.854L346.23 129.818C344.739 128.364 343.993 127.636 343.902 126.949C343.824 126.351 344.019 125.749 344.434 125.312C344.912 124.809 345.942 124.659 348.004 124.359L349.473 124.146L350.13 122.814C351.052 120.946 351.513 120.012 352.139 119.714C352.684 119.454 353.316 119.454 353.861 119.714C354.487 120.012 354.948 120.946 355.87 122.814L356.527 124.146L357.996 124.359C360.058 124.659 361.089 124.809 361.566 125.312C361.981 125.749 362.176 126.351 362.098 126.949C362.007 127.636 361.261 128.364 359.77 129.818L358.706 130.854L358.957 132.318C359.31 134.371 359.486 135.397 359.155 136.007C358.867 136.537 358.355 136.909 357.762 137.019C357.08 137.145 356.158 136.66 354.314 135.691L353 135Z" fill="white"/>
<path d="M352.032 119.488C352.644 119.196 353.356 119.196 353.968 119.488C354.35 119.67 354.653 120.032 354.967 120.544C355.283 121.061 355.635 121.774 356.094 122.704L356.692 123.917L358.032 124.112C359.057 124.261 359.844 124.375 360.433 124.516C361.018 124.656 361.456 124.833 361.747 125.139C362.214 125.632 362.434 126.309 362.345 126.982C362.29 127.401 362.04 127.801 361.649 128.258C361.256 128.719 360.686 129.273 359.944 129.997L358.974 130.941L359.204 132.275C359.379 133.297 359.513 134.081 359.561 134.684C359.608 135.283 359.576 135.754 359.375 136.126C359.051 136.722 358.474 137.14 357.807 137.264C357.392 137.341 356.934 137.227 356.378 136.997C355.819 136.765 355.115 136.395 354.198 135.913L353 135.282L351.802 135.913C350.885 136.395 350.181 136.765 349.622 136.997C349.066 137.227 348.608 137.341 348.193 137.264C347.526 137.14 346.949 136.722 346.625 136.126C346.424 135.754 346.392 135.283 346.439 134.684C346.487 134.081 346.621 133.297 346.796 132.275L347.025 130.94L346.056 129.997C345.314 129.273 344.744 128.719 344.351 128.258C343.96 127.801 343.71 127.401 343.655 126.982C343.566 126.309 343.786 125.632 344.253 125.139C344.544 124.833 344.982 124.656 345.567 124.516C346.156 124.375 346.943 124.261 347.968 124.112L349.308 123.917L349.907 122.704C350.365 121.774 350.717 121.061 351.033 120.544C351.347 120.032 351.65 119.67 352.032 119.488Z" stroke="url(#paint8_linear_10_12139)" stroke-width="0.5" stroke-linecap="round" style="mix-blend-mode:color-burn"/>
</g>
<g filter="url(#filter12_dd_10_12139)">
<rect x="545" y="111" width="192" height="36" fill="#FFA00F"/>
<rect x="545.25" y="111.25" width="191.5" height="35.5" stroke="url(#paint9_linear_10_12139)" stroke-width="0.5" stroke-linecap="round" style="mix-blend-mode:darken"/>
</g>
<rect x="545" y="111" width="192" height="36" fill="url(#paint10_linear_10_12139)" fill-opacity="0.3" style="mix-blend-mode:overlay"/>
<rect x="545" y="111" width="192" height="36" fill="url(#paint11_radial_10_12139)" fill-opacity="0.6" style="mix-blend-mode:overlay"/>
<g filter="url(#filter13_i_10_12139)">
<path fill-rule="evenodd" clip-rule="evenodd" d="M689 135L687.686 135.691C685.842 136.66 684.92 137.145 684.238 137.019C683.645 136.909 683.133 136.537 682.845 136.007C682.514 135.397 682.691 134.371 683.043 132.318L683.294 130.854L682.23 129.818C680.739 128.364 679.993 127.636 679.902 126.949C679.824 126.351 680.019 125.749 680.434 125.312C680.912 124.809 681.942 124.659 684.004 124.359L685.473 124.146L686.13 122.814C687.052 120.946 687.513 120.012 688.139 119.714C688.684 119.454 689.316 119.454 689.861 119.714C690.487 120.012 690.948 120.946 691.87 122.814L692.527 124.146L693.996 124.359C696.058 124.659 697.089 124.809 697.566 125.312C697.981 125.749 698.176 126.351 698.098 126.949C698.007 127.636 697.261 128.364 695.77 129.818L694.706 130.854L694.957 132.318C695.31 134.371 695.486 135.397 695.155 136.007C694.867 136.537 694.355 136.909 693.762 137.019C693.08 137.145 692.158 136.66 690.314 135.691L689 135Z" fill="black" fill-opacity="0.24" style="mix-blend-mode:color-burn"/>
<path fill-rule="evenodd" clip-rule="evenodd" d="M689 135L687.686 135.691C685.842 136.66 684.92 137.145 684.238 137.019C683.645 136.909 683.133 136.537 682.845 136.007C682.514 135.397 682.691 134.371 683.043 132.318L683.294 130.854L682.23 129.818C680.739 128.364 679.993 127.636 679.902 126.949C679.824 126.351 680.019 125.749 680.434 125.312C680.912 124.809 681.942 124.659 684.004 124.359L685.473 124.146L686.13 122.814C687.052 120.946 687.513 120.012 688.139 119.714C688.684 119.454 689.316 119.454 689.861 119.714C690.487 120.012 690.948 120.946 691.87 122.814L692.527 124.146L693.996 124.359C696.058 124.659 697.089 124.809 697.566 125.312C697.981 125.749 698.176 126.351 698.098 126.949C698.007 127.636 697.261 128.364 695.77 129.818L694.706 130.854L694.957 132.318C695.31 134.371 695.486 135.397 695.155 136.007C694.867 136.537 694.355 136.909 693.762 137.019C693.08 137.145 692.158 136.66 690.314 135.691L689 135Z" fill="black" fill-opacity="0.32" style="mix-blend-mode:darken"/>
</g>
<g filter="url(#filter14_i_10_12139)">
<path fill-rule="evenodd" clip-rule="evenodd" d="M665 135L663.686 135.691C661.842 136.66 660.92 137.145 660.238 137.019C659.645 136.909 659.133 136.537 658.845 136.007C658.514 135.397 658.691 134.371 659.043 132.318L659.294 130.854L658.23 129.818C656.739 128.364 655.993 127.636 655.902 126.949C655.824 126.351 656.019 125.749 656.434 125.312C656.912 124.809 657.942 124.659 660.004 124.359L661.473 124.146L662.13 122.814C663.052 120.946 663.513 120.012 664.139 119.714C664.684 119.454 665.316 119.454 665.861 119.714C666.487 120.012 666.948 120.946 667.87 122.814L668.527 124.146L669.996 124.359C672.058 124.659 673.089 124.809 673.566 125.312C673.981 125.749 674.176 126.351 674.098 126.949C674.007 127.636 673.261 128.364 671.77 129.818L670.706 130.854L670.957 132.318C671.31 134.371 671.486 135.397 671.155 136.007C670.867 136.537 670.355 136.909 669.762 137.019C669.08 137.145 668.158 136.66 666.314 135.691L665 135Z" fill="black" fill-opacity="0.24" style="mix-blend-mode:color-burn"/>
<path fill-rule="evenodd" clip-rule="evenodd" d="M665 135L663.686 135.691C661.842 136.66 660.92 137.145 660.238 137.019C659.645 136.909 659.133 136.537 658.845 136.007C658.514 135.397 658.691 134.371 659.043 132.318L659.294 130.854L658.23 129.818C656.739 128.364 655.993 127.636 655.902 126.949C655.824 126.351 656.019 125.749 656.434 125.312C656.912 124.809 657.942 124.659 660.004 124.359L661.473 124.146L662.13 122.814C663.052 120.946 663.513 120.012 664.139 119.714C664.684 119.454 665.316 119.454 665.861 119.714C666.487 120.012 666.948 120.946 667.87 122.814L668.527 124.146L669.996 124.359C672.058 124.659 673.089 124.809 673.566 125.312C673.981 125.749 674.176 126.351 674.098 126.949C674.007 127.636 673.261 128.364 671.77 129.818L670.706 130.854L670.957 132.318C671.31 134.371 671.486 135.397 671.155 136.007C670.867 136.537 670.355 136.909 669.762 137.019C669.08 137.145 668.158 136.66 666.314 135.691L665 135Z" fill="black" fill-opacity="0.32" style="mix-blend-mode:darken"/>
</g>
<g filter="url(#filter15_d_10_12139)">
<path fill-rule="evenodd" clip-rule="evenodd" d="M641 135L639.686 135.691C637.842 136.66 636.92 137.145 636.238 137.019C635.645 136.909 635.133 136.537 634.845 136.007C634.514 135.397 634.691 134.371 635.043 132.318L635.294 130.854L634.23 129.818C632.739 128.364 631.993 127.636 631.902 126.949C631.824 126.351 632.019 125.749 632.434 125.312C632.912 124.809 633.942 124.659 636.004 124.359L637.473 124.146L638.13 122.814C639.052 120.946 639.513 120.012 640.139 119.714C640.684 119.454 641.316 119.454 641.861 119.714C642.487 120.012 642.948 120.946 643.87 122.814L644.527 124.146L645.996 124.359C648.058 124.659 649.089 124.809 649.566 125.312C649.981 125.749 650.176 126.351 650.098 126.949C650.007 127.636 649.261 128.364 647.77 129.818L646.706 130.854L646.957 132.318C647.31 134.371 647.486 135.397 647.155 136.007C646.867 136.537 646.355 136.909 645.762 137.019C645.08 137.145 644.158 136.66 642.314 135.691L641 135Z" fill="white"/>
<path d="M640.032 119.488C640.644 119.196 641.356 119.196 641.968 119.488C642.35 119.67 642.653 120.032 642.967 120.544C643.283 121.061 643.635 121.774 644.094 122.704L644.692 123.917L646.032 124.112C647.057 124.261 647.844 124.375 648.433 124.516C649.018 124.656 649.456 124.833 649.747 125.139C650.214 125.632 650.434 126.309 650.345 126.982C650.29 127.401 650.04 127.801 649.649 128.258C649.256 128.719 648.686 129.273 647.944 129.997L646.974 130.941L647.204 132.275C647.379 133.297 647.513 134.081 647.561 134.684C647.608 135.283 647.576 135.754 647.375 136.126C647.051 136.722 646.474 137.14 645.807 137.264C645.392 137.341 644.934 137.227 644.378 136.997C643.819 136.765 643.115 136.395 642.198 135.913L641 135.282L639.802 135.913C638.885 136.395 638.181 136.765 637.622 136.997C637.066 137.227 636.608 137.341 636.193 137.264C635.526 137.14 634.949 136.722 634.625 136.126C634.424 135.754 634.392 135.283 634.439 134.684C634.487 134.081 634.621 133.297 634.796 132.275L635.025 130.94L634.056 129.997C633.314 129.273 632.744 128.719 632.351 128.258C631.96 127.801 631.71 127.401 631.655 126.982C631.566 126.309 631.786 125.632 632.253 125.139C632.544 124.833 632.982 124.656 633.567 124.516C634.156 124.375 634.943 124.261 635.968 124.112L637.308 123.917L637.907 122.704C638.365 121.774 638.717 121.061 639.033 120.544C639.347 120.032 639.65 119.67 640.032 119.488Z" stroke="url(#paint12_linear_10_12139)" stroke-width="0.5" stroke-linecap="round" style="mix-blend-mode:color-burn"/>
</g>
<g filter="url(#filter16_d_10_12139)">
<path fill-rule="evenodd" clip-rule="evenodd" d="M617 135L615.686 135.691C613.842 136.66 612.92 137.145 612.238 137.019C611.645 136.909 611.133 136.537 610.845 136.007C610.514 135.397 610.691 134.371 611.043 132.318L611.294 130.854L610.23 129.818C608.739 128.364 607.993 127.636 607.902 126.949C607.824 126.351 608.019 125.749 608.434 125.312C608.912 124.809 609.942 124.659 612.004 124.359L613.473 124.146L614.13 122.814C615.052 120.946 615.513 120.012 616.139 119.714C616.684 119.454 617.316 119.454 617.861 119.714C618.487 120.012 618.948 120.946 619.87 122.814L620.527 124.146L621.996 124.359C624.058 124.659 625.089 124.809 625.566 125.312C625.981 125.749 626.176 126.351 626.098 126.949C626.007 127.636 625.261 128.364 623.77 129.818L622.706 130.854L622.957 132.318C623.31 134.371 623.486 135.397 623.155 136.007C622.867 136.537 622.355 136.909 621.762 137.019C621.08 137.145 620.158 136.66 618.314 135.691L617 135Z" fill="white"/>
<path d="M616.032 119.488C616.644 119.196 617.356 119.196 617.968 119.488C618.35 119.67 618.653 120.032 618.967 120.544C619.283 121.061 619.635 121.774 620.094 122.704L620.692 123.917L622.032 124.112C623.057 124.261 623.844 124.375 624.433 124.516C625.018 124.656 625.456 124.833 625.747 125.139C626.214 125.632 626.434 126.309 626.345 126.982C626.29 127.401 626.04 127.801 625.649 128.258C625.256 128.719 624.686 129.273 623.944 129.997L622.974 130.941L623.204 132.275C623.379 133.297 623.513 134.081 623.561 134.684C623.608 135.283 623.576 135.754 623.375 136.126C623.051 136.722 622.474 137.14 621.807 137.264C621.392 137.341 620.934 137.227 620.378 136.997C619.819 136.765 619.115 136.395 618.198 135.913L617 135.282L615.802 135.913C614.885 136.395 614.181 136.765 613.622 136.997C613.066 137.227 612.608 137.341 612.193 137.264C611.526 137.14 610.949 136.722 610.625 136.126C610.424 135.754 610.392 135.283 610.439 134.684C610.487 134.081 610.621 133.297 610.796 132.275L611.025 130.94L610.056 129.997C609.314 129.273 608.744 128.719 608.351 128.258C607.96 127.801 607.71 127.401 607.655 126.982C607.566 126.309 607.786 125.632 608.253 125.139C608.544 124.833 608.982 124.656 609.567 124.516C610.156 124.375 610.943 124.261 611.968 124.112L613.308 123.917L613.907 122.704C614.365 121.774 614.717 121.061 615.033 120.544C615.347 120.032 615.65 119.67 616.032 119.488Z" stroke="url(#paint13_linear_10_12139)" stroke-width="0.5" stroke-linecap="round" style="mix-blend-mode:color-burn"/>
</g>
<g filter="url(#filter17_d_10_12139)">
<path fill-rule="evenodd" clip-rule="evenodd" d="M593 135L591.686 135.691C589.842 136.66 588.92 137.145 588.238 137.019C587.645 136.909 587.133 136.537 586.845 136.007C586.514 135.397 586.691 134.371 587.043 132.318L587.294 130.854L586.23 129.818C584.739 128.364 583.993 127.636 583.902 126.949C583.824 126.351 584.019 125.749 584.434 125.312C584.912 124.809 585.942 124.659 588.004 124.359L589.473 124.146L590.13 122.814C591.052 120.946 591.513 120.012 592.139 119.714C592.684 119.454 593.316 119.454 593.861 119.714C594.487 120.012 594.948 120.946 595.87 122.814L596.527 124.146L597.996 124.359C600.058 124.659 601.089 124.809 601.566 125.312C601.981 125.749 602.176 126.351 602.098 126.949C602.007 127.636 601.261 128.364 599.77 129.818L598.706 130.854L598.957 132.318C599.31 134.371 599.486 135.397 599.155 136.007C598.867 136.537 598.355 136.909 597.762 137.019C597.08 137.145 596.158 136.66 594.314 135.691L593 135Z" fill="white"/>
<path d="M592.032 119.488C592.644 119.196 593.356 119.196 593.968 119.488C594.35 119.67 594.653 120.032 594.967 120.544C595.283 121.061 595.635 121.774 596.094 122.704L596.692 123.917L598.032 124.112C599.057 124.261 599.844 124.375 600.433 124.516C601.018 124.656 601.456 124.833 601.747 125.139C602.214 125.632 602.434 126.309 602.345 126.982C602.29 127.401 602.04 127.801 601.649 128.258C601.256 128.719 600.686 129.273 599.944 129.997L598.974 130.941L599.204 132.275C599.379 133.297 599.513 134.081 599.561 134.684C599.608 135.283 599.576 135.754 599.375 136.126C599.051 136.722 598.474 137.14 597.807 137.264C597.392 137.341 596.934 137.227 596.378 136.997C595.819 136.765 595.115 136.395 594.198 135.913L593 135.282L591.802 135.913C590.885 136.395 590.181 136.765 589.622 136.997C589.066 137.227 588.608 137.341 588.193 137.264C587.526 137.14 586.949 136.722 586.625 136.126C586.424 135.754 586.392 135.283 586.439 134.684C586.487 134.081 586.621 133.297 586.796 132.275L587.025 130.94L586.056 129.997C585.314 129.273 584.744 128.719 584.351 128.258C583.96 127.801 583.71 127.401 583.655 126.982C583.566 126.309 583.786 125.632 584.253 125.139C584.544 124.833 584.982 124.656 585.567 124.516C586.156 124.375 586.943 124.261 587.968 124.112L589.308 123.917L589.907 122.704C590.365 121.774 590.717 121.061 591.033 120.544C591.347 120.032 591.65 119.67 592.032 119.488Z" stroke="url(#paint14_linear_10_12139)" stroke-width="0.5" stroke-linecap="round" style="mix-blend-mode:color-burn"/>
</g>
<g filter="url(#filter18_dd_10_12139)">
<rect x="185" y="195" width="192" height="36" fill="#FFA00F"/>
<rect x="185.25" y="195.25" width="191.5" height="35.5" stroke="url(#paint15_linear_10_12139)" stroke-width="0.5" stroke-linecap="round" style="mix-blend-mode:darken"/>
</g>
<rect x="185" y="195" width="192" height="36" fill="url(#paint16_linear_10_12139)" fill-opacity="0.3" style="mix-blend-mode:overlay"/>
<rect x="185" y="195" width="192" height="36" fill="url(#paint17_radial_10_12139)" fill-opacity="0.6" style="mix-blend-mode:overlay"/>
<g filter="url(#filter19_i_10_12139)">
<path fill-rule="evenodd" clip-rule="evenodd" d="M329 219L327.686 219.691C325.842 220.66 324.92 221.145 324.238 221.019C323.645 220.909 323.133 220.537 322.845 220.007C322.514 219.397 322.691 218.371 323.043 216.318L323.294 214.854L322.23 213.818C320.739 212.364 319.993 211.636 319.902 210.949C319.824 210.351 320.019 209.749 320.434 209.312C320.912 208.809 321.942 208.659 324.004 208.359L325.473 208.146L326.13 206.814C327.052 204.946 327.513 204.012 328.139 203.714C328.684 203.454 329.316 203.454 329.861 203.714C330.487 204.012 330.948 204.946 331.87 206.814L332.527 208.146L333.996 208.359C336.058 208.659 337.089 208.809 337.566 209.312C337.981 209.749 338.176 210.351 338.098 210.949C338.007 211.636 337.261 212.364 335.77 213.818L334.706 214.854L334.957 216.318C335.31 218.371 335.486 219.397 335.155 220.007C334.867 220.537 334.355 220.909 333.762 221.019C333.08 221.145 332.158 220.66 330.314 219.691L329 219Z" fill="black" fill-opacity="0.24" style="mix-blend-mode:color-burn"/>
<path fill-rule="evenodd" clip-rule="evenodd" d="M329 219L327.686 219.691C325.842 220.66 324.92 221.145 324.238 221.019C323.645 220.909 323.133 220.537 322.845 220.007C322.514 219.397 322.691 218.371 323.043 216.318L323.294 214.854L322.23 213.818C320.739 212.364 319.993 211.636 319.902 210.949C319.824 210.351 320.019 209.749 320.434 209.312C320.912 208.809 321.942 208.659 324.004 208.359L325.473 208.146L326.13 206.814C327.052 204.946 327.513 204.012 328.139 203.714C328.684 203.454 329.316 203.454 329.861 203.714C330.487 204.012 330.948 204.946 331.87 206.814L332.527 208.146L333.996 208.359C336.058 208.659 337.089 208.809 337.566 209.312C337.981 209.749 338.176 210.351 338.098 210.949C338.007 211.636 337.261 212.364 335.77 213.818L334.706 214.854L334.957 216.318C335.31 218.371 335.486 219.397 335.155 220.007C334.867 220.537 334.355 220.909 333.762 221.019C333.08 221.145 332.158 220.66 330.314 219.691L329 219Z" fill="black" fill-opacity="0.32" style="mix-blend-mode:darken"/>
</g>
<g filter="url(#filter20_d_10_12139)">
<path fill-rule="evenodd" clip-rule="evenodd" d="M305 219L303.686 219.691C301.842 220.66 300.92 221.145 300.238 221.019C299.645 220.909 299.133 220.537 298.845 220.007C298.514 219.397 298.691 218.371 299.043 216.318L299.294 214.854L298.23 213.818C296.739 212.364 295.993 211.636 295.902 210.949C295.824 210.351 296.019 209.749 296.434 209.312C296.912 208.809 297.942 208.659 300.004 208.359L301.473 208.146L302.13 206.814C303.052 204.946 303.513 204.012 304.139 203.714C304.684 203.454 305.316 203.454 305.861 203.714C306.487 204.012 306.948 204.946 307.87 206.814L308.527 208.146L309.996 208.359C312.058 208.659 313.089 208.809 313.566 209.312C313.981 209.749 314.176 210.351 314.098 210.949C314.007 211.636 313.261 212.364 311.77 213.818L310.706 214.854L310.957 216.318C311.31 218.371 311.486 219.397 311.155 220.007C310.867 220.537 310.355 220.909 309.762 221.019C309.08 221.145 308.158 220.66 306.314 219.691L305 219Z" fill="white"/>
<path d="M304.032 203.488C304.644 203.196 305.356 203.196 305.968 203.488C306.35 203.67 306.653 204.032 306.967 204.544C307.283 205.061 307.635 205.774 308.094 206.704L308.692 207.917L310.032 208.112C311.057 208.261 311.844 208.375 312.433 208.516C313.018 208.656 313.456 208.833 313.747 209.139C314.214 209.632 314.434 210.309 314.345 210.982C314.29 211.401 314.04 211.801 313.649 212.258C313.256 212.719 312.686 213.273 311.944 213.997L310.974 214.941L311.204 216.275C311.379 217.297 311.513 218.081 311.561 218.684C311.608 219.283 311.576 219.754 311.375 220.126C311.051 220.722 310.474 221.14 309.807 221.264C309.392 221.341 308.934 221.227 308.378 220.997C307.819 220.765 307.115 220.395 306.198 219.913L305 219.282L303.802 219.913C302.885 220.395 302.181 220.765 301.622 220.997C301.066 221.227 300.608 221.341 300.193 221.264C299.526 221.14 298.949 220.722 298.625 220.126C298.424 219.754 298.392 219.283 298.439 218.684C298.487 218.081 298.621 217.297 298.796 216.275L299.025 214.94L298.056 213.997C297.314 213.273 296.744 212.719 296.351 212.258C295.96 211.801 295.71 211.401 295.655 210.982C295.566 210.309 295.786 209.632 296.253 209.139C296.544 208.833 296.982 208.656 297.567 208.516C298.156 208.375 298.943 208.261 299.968 208.112L301.308 207.917L301.907 206.704C302.365 205.774 302.717 205.061 303.033 204.544C303.347 204.032 303.65 203.67 304.032 203.488Z" stroke="url(#paint18_linear_10_12139)" stroke-width="0.5" stroke-linecap="round" style="mix-blend-mode:color-burn"/>
</g>
<g filter="url(#filter21_d_10_12139)">
<path fill-rule="evenodd" clip-rule="evenodd" d="M281 219L279.686 219.691C277.842 220.66 276.92 221.145 276.238 221.019C275.645 220.909 275.133 220.537 274.845 220.007C274.514 219.397 274.691 218.371 275.043 216.318L275.294 214.854L274.23 213.818C272.739 212.364 271.993 211.636 271.902 210.949C271.824 210.351 272.019 209.749 272.434 209.312C272.912 208.809 273.942 208.659 276.004 208.359L277.473 208.146L278.13 206.814C279.052 204.946 279.513 204.012 280.139 203.714C280.684 203.454 281.316 203.454 281.861 203.714C282.487 204.012 282.948 204.946 283.87 206.814L284.527 208.146L285.996 208.359C288.058 208.659 289.089 208.809 289.566 209.312C289.981 209.749 290.176 210.351 290.098 210.949C290.007 211.636 289.261 212.364 287.77 213.818L286.706 214.854L286.957 216.318C287.31 218.371 287.486 219.397 287.155 220.007C286.867 220.537 286.355 220.909 285.762 221.019C285.08 221.145 284.158 220.66 282.314 219.691L281 219Z" fill="white"/>
<path d="M280.032 203.488C280.644 203.196 281.356 203.196 281.968 203.488C282.35 203.67 282.653 204.032 282.967 204.544C283.283 205.061 283.635 205.774 284.094 206.704L284.692 207.917L286.032 208.112C287.057 208.261 287.844 208.375 288.433 208.516C289.018 208.656 289.456 208.833 289.747 209.139C290.214 209.632 290.434 210.309 290.345 210.982C290.29 211.401 290.04 211.801 289.649 212.258C289.256 212.719 288.686 213.273 287.944 213.997L286.974 214.941L287.204 216.275C287.379 217.297 287.513 218.081 287.561 218.684C287.608 219.283 287.576 219.754 287.375 220.126C287.051 220.722 286.474 221.14 285.807 221.264C285.392 221.341 284.934 221.227 284.378 220.997C283.819 220.765 283.115 220.395 282.198 219.913L281 219.282L279.802 219.913C278.885 220.395 278.181 220.765 277.622 220.997C277.066 221.227 276.608 221.341 276.193 221.264C275.526 221.14 274.949 220.722 274.625 220.126C274.424 219.754 274.392 219.283 274.439 218.684C274.487 218.081 274.621 217.297 274.796 216.275L275.025 214.94L274.056 213.997C273.314 213.273 272.744 212.719 272.351 212.258C271.96 211.801 271.71 211.401 271.655 210.982C271.566 210.309 271.786 209.632 272.253 209.139C272.544 208.833 272.982 208.656 273.567 208.516C274.156 208.375 274.943 208.261 275.968 208.112L277.308 207.917L277.907 206.704C278.365 205.774 278.717 205.061 279.033 204.544C279.347 204.032 279.65 203.67 280.032 203.488Z" stroke="url(#paint19_linear_10_12139)" stroke-width="0.5" stroke-linecap="round" style="mix-blend-mode:color-burn"/>
</g>
<g filter="url(#filter22_d_10_12139)">
<path fill-rule="evenodd" clip-rule="evenodd" d="M257 219L255.686 219.691C253.842 220.66 252.92 221.145 252.238 221.019C251.645 220.909 251.133 220.537 250.845 220.007C250.514 219.397 250.691 218.371 251.043 216.318L251.294 214.854L250.23 213.818C248.739 212.364 247.993 211.636 247.902 210.949C247.824 210.351 248.019 209.749 248.434 209.312C248.912 208.809 249.942 208.659 252.004 208.359L253.473 208.146L254.13 206.814C255.052 204.946 255.513 204.012 256.139 203.714C256.684 203.454 257.316 203.454 257.861 203.714C258.487 204.012 258.948 204.946 259.87 206.814L260.527 208.146L261.996 208.359C264.058 208.659 265.089 208.809 265.566 209.312C265.981 209.749 266.176 210.351 266.098 210.949C266.007 211.636 265.261 212.364 263.77 213.818L262.706 214.854L262.957 216.318C263.31 218.371 263.486 219.397 263.155 220.007C262.867 220.537 262.355 220.909 261.762 221.019C261.08 221.145 260.158 220.66 258.314 219.691L257 219Z" fill="white"/>
<path d="M256.032 203.488C256.644 203.196 257.356 203.196 257.968 203.488C258.35 203.67 258.653 204.032 258.967 204.544C259.283 205.061 259.635 205.774 260.094 206.704L260.692 207.917L262.032 208.112C263.057 208.261 263.844 208.375 264.433 208.516C265.018 208.656 265.456 208.833 265.747 209.139C266.214 209.632 266.434 210.309 266.345 210.982C266.29 211.401 266.04 211.801 265.649 212.258C265.256 212.719 264.686 213.273 263.944 213.997L262.974 214.941L263.204 216.275C263.379 217.297 263.513 218.081 263.561 218.684C263.608 219.283 263.576 219.754 263.375 220.126C263.051 220.722 262.474 221.14 261.807 221.264C261.392 221.341 260.934 221.227 260.378 220.997C259.819 220.765 259.115 220.395 258.198 219.913L257 219.282L255.802 219.913C254.885 220.395 254.181 220.765 253.622 220.997C253.066 221.227 252.608 221.341 252.193 221.264C251.526 221.14 250.949 220.722 250.625 220.126C250.424 219.754 250.392 219.283 250.439 218.684C250.487 218.081 250.621 217.297 250.796 216.275L251.025 214.94L250.056 213.997C249.314 213.273 248.744 212.719 248.351 212.258C247.96 211.801 247.71 211.401 247.655 210.982C247.566 210.309 247.786 209.632 248.253 209.139C248.544 208.833 248.982 208.656 249.567 208.516C250.156 208.375 250.943 208.261 251.968 208.112L253.308 207.917L253.907 206.704C254.365 205.774 254.717 205.061 255.033 204.544C255.347 204.032 255.65 203.67 256.032 203.488Z" stroke="url(#paint20_linear_10_12139)" stroke-width="0.5" stroke-linecap="round" style="mix-blend-mode:color-burn"/>
</g>
<g filter="url(#filter23_d_10_12139)">
<path fill-rule="evenodd" clip-rule="evenodd" d="M233 219L231.686 219.691C229.842 220.66 228.92 221.145 228.238 221.019C227.645 220.909 227.133 220.537 226.845 220.007C226.514 219.397 226.691 218.371 227.043 216.318L227.294 214.854L226.23 213.818C224.739 212.364 223.993 211.636 223.902 210.949C223.824 210.351 224.019 209.749 224.434 209.312C224.912 208.809 225.942 208.659 228.004 208.359L229.473 208.146L230.13 206.814C231.052 204.946 231.513 204.012 232.139 203.714C232.684 203.454 233.316 203.454 233.861 203.714C234.487 204.012 234.948 204.946 235.87 206.814L236.527 208.146L237.996 208.359C240.058 208.659 241.089 208.809 241.566 209.312C241.981 209.749 242.176 210.351 242.098 210.949C242.007 211.636 241.261 212.364 239.77 213.818L238.706 214.854L238.957 216.318C239.31 218.371 239.486 219.397 239.155 220.007C238.867 220.537 238.355 220.909 237.762 221.019C237.08 221.145 236.158 220.66 234.314 219.691L233 219Z" fill="white"/>
<path d="M232.032 203.488C232.644 203.196 233.356 203.196 233.968 203.488C234.35 203.67 234.653 204.032 234.967 204.544C235.283 205.061 235.635 205.774 236.094 206.704L236.692 207.917L238.032 208.112C239.057 208.261 239.844 208.375 240.433 208.516C241.018 208.656 241.456 208.833 241.747 209.139C242.214 209.632 242.434 210.309 242.345 210.982C242.29 211.401 242.04 211.801 241.649 212.258C241.256 212.719 240.686 213.273 239.944 213.997L238.974 214.941L239.204 216.275C239.379 217.297 239.513 218.081 239.561 218.684C239.608 219.283 239.576 219.754 239.375 220.126C239.051 220.722 238.474 221.14 237.807 221.264C237.392 221.341 236.934 221.227 236.378 220.997C235.819 220.765 235.115 220.395 234.198 219.913L233 219.282L231.802 219.913C230.885 220.395 230.181 220.765 229.622 220.997C229.066 221.227 228.608 221.341 228.193 221.264C227.526 221.14 226.949 220.722 226.625 220.126C226.424 219.754 226.392 219.283 226.439 218.684C226.487 218.081 226.621 217.297 226.796 216.275L227.025 214.94L226.056 213.997C225.314 213.273 224.744 212.719 224.351 212.258C223.96 211.801 223.71 211.401 223.655 210.982C223.566 210.309 223.786 209.632 224.253 209.139C224.544 208.833 224.982 208.656 225.567 208.516C226.156 208.375 226.943 208.261 227.968 208.112L229.308 207.917L229.907 206.704C230.365 205.774 230.717 205.061 231.033 204.544C231.347 204.032 231.65 203.67 232.032 203.488Z" stroke="url(#paint21_linear_10_12139)" stroke-width="0.5" stroke-linecap="round" style="mix-blend-mode:color-burn"/>
</g>
<g filter="url(#filter24_dd_10_12139)">
<rect x="425" y="195" width="192" height="36" fill="#FFA00F"/>
<rect x="425.25" y="195.25" width="191.5" height="35.5" stroke="url(#paint22_linear_10_12139)" stroke-width="0.5" stroke-linecap="round" style="mix-blend-mode:darken"/>
</g>
<rect x="425" y="195" width="192" height="36" fill="url(#paint23_linear_10_12139)" fill-opacity="0.3" style="mix-blend-mode:overlay"/>
<rect x="425" y="195" width="192" height="36" fill="url(#paint24_radial_10_12139)" fill-opacity="0.6" style="mix-blend-mode:overlay"/>
<g filter="url(#filter25_d_10_12139)">
<path fill-rule="evenodd" clip-rule="evenodd" d="M569 219L567.686 219.691C565.842 220.66 564.92 221.145 564.238 221.019C563.645 220.909 563.133 220.537 562.845 220.007C562.514 219.397 562.691 218.371 563.043 216.318L563.294 214.854L562.23 213.818C560.739 212.364 559.993 211.636 559.902 210.949C559.824 210.351 560.019 209.749 560.434 209.312C560.912 208.809 561.942 208.659 564.004 208.359L565.473 208.146L566.13 206.814C567.052 204.946 567.513 204.012 568.139 203.714C568.684 203.454 569.316 203.454 569.861 203.714C570.487 204.012 570.948 204.946 571.87 206.814L572.527 208.146L573.996 208.359C576.058 208.659 577.089 208.809 577.566 209.312C577.981 209.749 578.176 210.351 578.098 210.949C578.007 211.636 577.261 212.364 575.77 213.818L574.706 214.854L574.957 216.318C575.31 218.371 575.486 219.397 575.155 220.007C574.867 220.537 574.355 220.909 573.762 221.019C573.08 221.145 572.158 220.66 570.314 219.691L569 219Z" fill="white"/>
<path d="M568.032 203.488C568.644 203.196 569.356 203.196 569.968 203.488C570.35 203.67 570.653 204.032 570.967 204.544C571.283 205.061 571.635 205.774 572.094 206.704L572.692 207.917L574.032 208.112C575.057 208.261 575.844 208.375 576.433 208.516C577.018 208.656 577.456 208.833 577.747 209.139C578.214 209.632 578.434 210.309 578.345 210.982C578.29 211.401 578.04 211.801 577.649 212.258C577.256 212.719 576.686 213.273 575.944 213.997L574.974 214.941L575.204 216.275C575.379 217.297 575.513 218.081 575.561 218.684C575.608 219.283 575.576 219.754 575.375 220.126C575.051 220.722 574.474 221.14 573.807 221.264C573.392 221.341 572.934 221.227 572.378 220.997C571.819 220.765 571.115 220.395 570.198 219.913L569 219.282L567.802 219.913C566.885 220.395 566.181 220.765 565.622 220.997C565.066 221.227 564.608 221.341 564.193 221.264C563.526 221.14 562.949 220.722 562.625 220.126C562.424 219.754 562.392 219.283 562.439 218.684C562.487 218.081 562.621 217.297 562.796 216.275L563.025 214.94L562.056 213.997C561.314 213.273 560.744 212.719 560.351 212.258C559.96 211.801 559.71 211.401 559.655 210.982C559.566 210.309 559.786 209.632 560.253 209.139C560.544 208.833 560.982 208.656 561.567 208.516C562.156 208.375 562.943 208.261 563.968 208.112L565.308 207.917L565.907 206.704C566.365 205.774 566.717 205.061 567.033 204.544C567.347 204.032 567.65 203.67 568.032 203.488Z" stroke="url(#paint25_linear_10_12139)" stroke-width="0.5" stroke-linecap="round" style="mix-blend-mode:color-burn"/>
</g>
<g filter="url(#filter26_d_10_12139)">
<path fill-rule="evenodd" clip-rule="evenodd" d="M545 219L543.686 219.691C541.842 220.66 540.92 221.145 540.238 221.019C539.645 220.909 539.133 220.537 538.845 220.007C538.514 219.397 538.691 218.371 539.043 216.318L539.294 214.854L538.23 213.818C536.739 212.364 535.993 211.636 535.902 210.949C535.824 210.351 536.019 209.749 536.434 209.312C536.912 208.809 537.942 208.659 540.004 208.359L541.473 208.146L542.13 206.814C543.052 204.946 543.513 204.012 544.139 203.714C544.684 203.454 545.316 203.454 545.861 203.714C546.487 204.012 546.948 204.946 547.87 206.814L548.527 208.146L549.996 208.359C552.058 208.659 553.089 208.809 553.566 209.312C553.981 209.749 554.176 210.351 554.098 210.949C554.007 211.636 553.261 212.364 551.77 213.818L550.706 214.854L550.957 216.318C551.31 218.371 551.486 219.397 551.155 220.007C550.867 220.537 550.355 220.909 549.762 221.019C549.08 221.145 548.158 220.66 546.314 219.691L545 219Z" fill="white"/>
<path d="M544.032 203.488C544.644 203.196 545.356 203.196 545.968 203.488C546.35 203.67 546.653 204.032 546.967 204.544C547.283 205.061 547.635 205.774 548.094 206.704L548.692 207.917L550.032 208.112C551.057 208.261 551.844 208.375 552.433 208.516C553.018 208.656 553.456 208.833 553.747 209.139C554.214 209.632 554.434 210.309 554.345 210.982C554.29 211.401 554.04 211.801 553.649 212.258C553.256 212.719 552.686 213.273 551.944 213.997L550.974 214.941L551.204 216.275C551.379 217.297 551.513 218.081 551.561 218.684C551.608 219.283 551.576 219.754 551.375 220.126C551.051 220.722 550.474 221.14 549.807 221.264C549.392 221.341 548.934 221.227 548.378 220.997C547.819 220.765 547.115 220.395 546.198 219.913L545 219.282L543.802 219.913C542.885 220.395 542.181 220.765 541.622 220.997C541.066 221.227 540.608 221.341 540.193 221.264C539.526 221.14 538.949 220.722 538.625 220.126C538.424 219.754 538.392 219.283 538.439 218.684C538.487 218.081 538.621 217.297 538.796 216.275L539.025 214.94L538.056 213.997C537.314 213.273 536.744 212.719 536.351 212.258C535.96 211.801 535.71 211.401 535.655 210.982C535.566 210.309 535.786 209.632 536.253 209.139C536.544 208.833 536.982 208.656 537.567 208.516C538.156 208.375 538.943 208.261 539.968 208.112L541.308 207.917L541.907 206.704C542.365 205.774 542.717 205.061 543.033 204.544C543.347 204.032 543.65 203.67 544.032 203.488Z" stroke="url(#paint26_linear_10_12139)" stroke-width="0.5" stroke-linecap="round" style="mix-blend-mode:color-burn"/>
</g>
<g filter="url(#filter27_d_10_12139)">
<path fill-rule="evenodd" clip-rule="evenodd" d="M521 219L519.686 219.691C517.842 220.66 516.92 221.145 516.238 221.019C515.645 220.909 515.133 220.537 514.845 220.007C514.514 219.397 514.691 218.371 515.043 216.318L515.294 214.854L514.23 213.818C512.739 212.364 511.993 211.636 511.902 210.949C511.824 210.351 512.019 209.749 512.434 209.312C512.912 208.809 513.942 208.659 516.004 208.359L517.473 208.146L518.13 206.814C519.052 204.946 519.513 204.012 520.139 203.714C520.684 203.454 521.316 203.454 521.861 203.714C522.487 204.012 522.948 204.946 523.87 206.814L524.527 208.146L525.996 208.359C528.058 208.659 529.089 208.809 529.566 209.312C529.981 209.749 530.176 210.351 530.098 210.949C530.007 211.636 529.261 212.364 527.77 213.818L526.706 214.854L526.957 216.318C527.31 218.371 527.486 219.397 527.155 220.007C526.867 220.537 526.355 220.909 525.762 221.019C525.08 221.145 524.158 220.66 522.314 219.691L521 219Z" fill="white"/>
<path d="M520.032 203.488C520.644 203.196 521.356 203.196 521.968 203.488C522.35 203.67 522.653 204.032 522.967 204.544C523.283 205.061 523.635 205.774 524.094 206.704L524.692 207.917L526.032 208.112C527.057 208.261 527.844 208.375 528.433 208.516C529.018 208.656 529.456 208.833 529.747 209.139C530.214 209.632 530.434 210.309 530.345 210.982C530.29 211.401 530.04 211.801 529.649 212.258C529.256 212.719 528.686 213.273 527.944 213.997L526.974 214.941L527.204 216.275C527.379 217.297 527.513 218.081 527.561 218.684C527.608 219.283 527.576 219.754 527.375 220.126C527.051 220.722 526.474 221.14 525.807 221.264C525.392 221.341 524.934 221.227 524.378 220.997C523.819 220.765 523.115 220.395 522.198 219.913L521 219.282L519.802 219.913C518.885 220.395 518.181 220.765 517.622 220.997C517.066 221.227 516.608 221.341 516.193 221.264C515.526 221.14 514.949 220.722 514.625 220.126C514.424 219.754 514.392 219.283 514.439 218.684C514.487 218.081 514.621 217.297 514.796 216.275L515.025 214.94L514.056 213.997C513.314 213.273 512.744 212.719 512.351 212.258C511.96 211.801 511.71 211.401 511.655 210.982C511.566 210.309 511.786 209.632 512.253 209.139C512.544 208.833 512.982 208.656 513.567 208.516C514.156 208.375 514.943 208.261 515.968 208.112L517.308 207.917L517.907 206.704C518.365 205.774 518.717 205.061 519.033 204.544C519.347 204.032 519.65 203.67 520.032 203.488Z" stroke="url(#paint27_linear_10_12139)" stroke-width="0.5" stroke-linecap="round" style="mix-blend-mode:color-burn"/>
</g>
<g filter="url(#filter28_d_10_12139)">
<path fill-rule="evenodd" clip-rule="evenodd" d="M497 219L495.686 219.691C493.842 220.66 492.92 221.145 492.238 221.019C491.645 220.909 491.133 220.537 490.845 220.007C490.514 219.397 490.691 218.371 491.043 216.318L491.294 214.854L490.23 213.818C488.739 212.364 487.993 211.636 487.902 210.949C487.824 210.351 488.019 209.749 488.434 209.312C488.912 208.809 489.942 208.659 492.004 208.359L493.473 208.146L494.13 206.814C495.052 204.946 495.513 204.012 496.139 203.714C496.684 203.454 497.316 203.454 497.861 203.714C498.487 204.012 498.948 204.946 499.87 206.814L500.527 208.146L501.996 208.359C504.058 208.659 505.089 208.809 505.566 209.312C505.981 209.749 506.176 210.351 506.098 210.949C506.007 211.636 505.261 212.364 503.77 213.818L502.706 214.854L502.957 216.318C503.31 218.371 503.486 219.397 503.155 220.007C502.867 220.537 502.355 220.909 501.762 221.019C501.08 221.145 500.158 220.66 498.314 219.691L497 219Z" fill="white"/>
<path d="M496.032 203.488C496.644 203.196 497.356 203.196 497.968 203.488C498.35 203.67 498.653 204.032 498.967 204.544C499.283 205.061 499.635 205.774 500.094 206.704L500.692 207.917L502.032 208.112C503.057 208.261 503.844 208.375 504.433 208.516C505.018 208.656 505.456 208.833 505.747 209.139C506.214 209.632 506.434 210.309 506.345 210.982C506.29 211.401 506.04 211.801 505.649 212.258C505.256 212.719 504.686 213.273 503.944 213.997L502.974 214.941L503.204 216.275C503.379 217.297 503.513 218.081 503.561 218.684C503.608 219.283 503.576 219.754 503.375 220.126C503.051 220.722 502.474 221.14 501.807 221.264C501.392 221.341 500.934 221.227 500.378 220.997C499.819 220.765 499.115 220.395 498.198 219.913L497 219.282L495.802 219.913C494.885 220.395 494.181 220.765 493.622 220.997C493.066 221.227 492.608 221.341 492.193 221.264C491.526 221.14 490.949 220.722 490.625 220.126C490.424 219.754 490.392 219.283 490.439 218.684C490.487 218.081 490.621 217.297 490.796 216.275L491.025 214.94L490.056 213.997C489.314 213.273 488.744 212.719 488.351 212.258C487.96 211.801 487.71 211.401 487.655 210.982C487.566 210.309 487.786 209.632 488.253 209.139C488.544 208.833 488.982 208.656 489.567 208.516C490.156 208.375 490.943 208.261 491.968 208.112L493.308 207.917L493.907 206.704C494.365 205.774 494.717 205.061 495.033 204.544C495.347 204.032 495.65 203.67 496.032 203.488Z" stroke="url(#paint28_linear_10_12139)" stroke-width="0.5" stroke-linecap="round" style="mix-blend-mode:color-burn"/>
</g>
<g filter="url(#filter29_d_10_12139)">
<path fill-rule="evenodd" clip-rule="evenodd" d="M473 219L471.686 219.691C469.842 220.66 468.92 221.145 468.238 221.019C467.645 220.909 467.133 220.537 466.845 220.007C466.514 219.397 466.691 218.371 467.043 216.318L467.294 214.854L466.23 213.818C464.739 212.364 463.993 211.636 463.902 210.949C463.824 210.351 464.019 209.749 464.434 209.312C464.912 208.809 465.942 208.659 468.004 208.359L469.473 208.146L470.13 206.814C471.052 204.946 471.513 204.012 472.139 203.714C472.684 203.454 473.316 203.454 473.861 203.714C474.487 204.012 474.948 204.946 475.87 206.814L476.527 208.146L477.996 208.359C480.058 208.659 481.089 208.809 481.566 209.312C481.981 209.749 482.176 210.351 482.098 210.949C482.007 211.636 481.261 212.364 479.77 213.818L478.706 214.854L478.957 216.318C479.31 218.371 479.486 219.397 479.155 220.007C478.867 220.537 478.355 220.909 477.762 221.019C477.08 221.145 476.158 220.66 474.314 219.691L473 219Z" fill="white"/>
<path d="M472.032 203.488C472.644 203.196 473.356 203.196 473.968 203.488C474.35 203.67 474.653 204.032 474.967 204.544C475.283 205.061 475.635 205.774 476.094 206.704L476.692 207.917L478.032 208.112C479.057 208.261 479.844 208.375 480.433 208.516C481.018 208.656 481.456 208.833 481.747 209.139C482.214 209.632 482.434 210.309 482.345 210.982C482.29 211.401 482.04 211.801 481.649 212.258C481.256 212.719 480.686 213.273 479.944 213.997L478.974 214.941L479.204 216.275C479.379 217.297 479.513 218.081 479.561 218.684C479.608 219.283 479.576 219.754 479.375 220.126C479.051 220.722 478.474 221.14 477.807 221.264C477.392 221.341 476.934 221.227 476.378 220.997C475.819 220.765 475.115 220.395 474.198 219.913L473 219.282L471.802 219.913C470.885 220.395 470.181 220.765 469.622 220.997C469.066 221.227 468.608 221.341 468.193 221.264C467.526 221.14 466.949 220.722 466.625 220.126C466.424 219.754 466.392 219.283 466.439 218.684C466.487 218.081 466.621 217.297 466.796 216.275L467.025 214.94L466.056 213.997C465.314 213.273 464.744 212.719 464.351 212.258C463.96 211.801 463.71 211.401 463.655 210.982C463.566 210.309 463.786 209.632 464.253 209.139C464.544 208.833 464.982 208.656 465.567 208.516C466.156 208.375 466.943 208.261 467.968 208.112L469.308 207.917L469.907 206.704C470.365 205.774 470.717 205.061 471.033 204.544C471.347 204.032 471.65 203.67 472.032 203.488Z" stroke="url(#paint29_linear_10_12139)" stroke-width="0.5" stroke-linecap="round" style="mix-blend-mode:color-burn"/>
</g>
<defs>
<filter id="filter0_dd_10_12139" x="53" y="103" width="216" height="60" filterUnits="userSpaceOnUse" color-interpolation-filters="sRGB">
<feFlood flood-opacity="0" result="BackgroundImageFix"/>
<feColorMatrix in="SourceAlpha" type="matrix" values="0 0 0 0 0 0 0 0 0 0 0 0 0 0 0 0 0 0 127 0" result="hardAlpha"/>
<feOffset dy="4"/>
<feGaussianBlur stdDeviation="6"/>
<feColorMatrix type="matrix" values="0 0 0 0 0 0 0 0 0 0 0 0 0 0 0 0 0 0 0.16 0"/>
<feBlend mode="normal" in2="BackgroundImageFix" result="effect1_dropShadow_10_12139"/>
<feColorMatrix in="SourceAlpha" type="matrix" values="0 0 0 0 0 0 0 0 0 0 0 0 0 0 0 0 0 0 127 0" result="hardAlpha"/>
<feOffset dy="2"/>
<feGaussianBlur stdDeviation="2"/>
<feColorMatrix type="matrix" values="0 0 0 0 0 0 0 0 0 0 0 0 0 0 0 0 0 0 0.24 0"/>
<feBlend mode="normal" in2="effect1_dropShadow_10_12139" result="effect2_dropShadow_10_12139"/>
<feBlend mode="normal" in="SourceGraphic" in2="effect2_dropShadow_10_12139" result="shape"/>
</filter>
<filter id="filter1_i_10_12139" x="199.885" y="119.519" width="18.2296" height="18.5193" filterUnits="userSpaceOnUse" color-interpolation-filters="sRGB">
<feFlood flood-opacity="0" result="BackgroundImageFix"/>
<feBlend mode="normal" in="SourceGraphic" in2="BackgroundImageFix" result="shape"/>
<feColorMatrix in="SourceAlpha" type="matrix" values="0 0 0 0 0 0 0 0 0 0 0 0 0 0 0 0 0 0 127 0" result="hardAlpha"/>
<feOffset dy="1"/>
<feGaussianBlur stdDeviation="1"/>
<feComposite in2="hardAlpha" operator="arithmetic" k2="-1" k3="1"/>
<feColorMatrix type="matrix" values="0 0 0 0 0 0 0 0 0 0 0 0 0 0 0 0 0 0 0.24 0"/>
<feBlend mode="darken" in2="shape" result="effect1_innerShadow_10_12139"/>
</filter>
<filter id="filter2_i_10_12139" x="175.885" y="119.519" width="18.2296" height="18.5193" filterUnits="userSpaceOnUse" color-interpolation-filters="sRGB">
<feFlood flood-opacity="0" result="BackgroundImageFix"/>
<feBlend mode="normal" in="SourceGraphic" in2="BackgroundImageFix" result="shape"/>
<feColorMatrix in="SourceAlpha" type="matrix" values="0 0 0 0 0 0 0 0 0 0 0 0 0 0 0 0 0 0 127 0" result="hardAlpha"/>
<feOffset dy="1"/>
<feGaussianBlur stdDeviation="1"/>
<feComposite in2="hardAlpha" operator="arithmetic" k2="-1" k3="1"/>
<feColorMatrix type="matrix" values="0 0 0 0 0 0 0 0 0 0 0 0 0 0 0 0 0 0 0.24 0"/>
<feBlend mode="darken" in2="shape" result="effect1_innerShadow_10_12139"/>
</filter>
<filter id="filter3_i_10_12139" x="151.885" y="119.519" width="18.2296" height="18.5193" filterUnits="userSpaceOnUse" color-interpolation-filters="sRGB">
<feFlood flood-opacity="0" result="BackgroundImageFix"/>
<feBlend mode="normal" in="SourceGraphic" in2="BackgroundImageFix" result="shape"/>
<feColorMatrix in="SourceAlpha" type="matrix" values="0 0 0 0 0 0 0 0 0 0 0 0 0 0 0 0 0 0 127 0" result="hardAlpha"/>
<feOffset dy="1"/>
<feGaussianBlur stdDeviation="1"/>
<feComposite in2="hardAlpha" operator="arithmetic" k2="-1" k3="1"/>
<feColorMatrix type="matrix" values="0 0 0 0 0 0 0 0 0 0 0 0 0 0 0 0 0 0 0.24 0"/>
<feBlend mode="darken" in2="shape" result="effect1_innerShadow_10_12139"/>
</filter>
<filter id="filter4_i_10_12139" x="127.885" y="119.519" width="18.2296" height="18.5193" filterUnits="userSpaceOnUse" color-interpolation-filters="sRGB">
<feFlood flood-opacity="0" result="BackgroundImageFix"/>
<feBlend mode="normal" in="SourceGraphic" in2="BackgroundImageFix" result="shape"/>
<feColorMatrix in="SourceAlpha" type="matrix" values="0 0 0 0 0 0 0 0 0 0 0 0 0 0 0 0 0 0 127 0" result="hardAlpha"/>
<feOffset dy="1"/>
<feGaussianBlur stdDeviation="1"/>
<feComposite in2="hardAlpha" operator="arithmetic" k2="-1" k3="1"/>
<feColorMatrix type="matrix" values="0 0 0 0 0 0 0 0 0 0 0 0 0 0 0 0 0 0 0.24 0"/>
<feBlend mode="darken" in2="shape" result="effect1_innerShadow_10_12139"/>
</filter>
<filter id="filter5_d_10_12139" x="91.3853" y="109.019" width="43.2296" height="42.5192" filterUnits="userSpaceOnUse" color-interpolation-filters="sRGB">
<feFlood flood-opacity="0" result="BackgroundImageFix"/>
<feColorMatrix in="SourceAlpha" type="matrix" values="0 0 0 0 0 0 0 0 0 0 0 0 0 0 0 0 0 0 127 0" result="hardAlpha"/>
<feOffset dy="2"/>
<feGaussianBlur stdDeviation="6"/>
<feColorMatrix type="matrix" values="0 0 0 0 0 0 0 0 0 0 0 0 0 0 0 0 0 0 0.12 0"/>
<feBlend mode="plus-darker" in2="BackgroundImageFix" result="effect1_dropShadow_10_12139"/>
<feBlend mode="normal" in="SourceGraphic" in2="effect1_dropShadow_10_12139" result="shape"/>
</filter>
<filter id="filter6_dd_10_12139" x="293" y="103" width="216" height="60" filterUnits="userSpaceOnUse" color-interpolation-filters="sRGB">
<feFlood flood-opacity="0" result="BackgroundImageFix"/>
<feColorMatrix in="SourceAlpha" type="matrix" values="0 0 0 0 0 0 0 0 0 0 0 0 0 0 0 0 0 0 127 0" result="hardAlpha"/>
<feOffset dy="4"/>
<feGaussianBlur stdDeviation="6"/>
<feColorMatrix type="matrix" values="0 0 0 0 0 0 0 0 0 0 0 0 0 0 0 0 0 0 0.16 0"/>
<feBlend mode="normal" in2="BackgroundImageFix" result="effect1_dropShadow_10_12139"/>
<feColorMatrix in="SourceAlpha" type="matrix" values="0 0 0 0 0 0 0 0 0 0 0 0 0 0 0 0 0 0 127 0" result="hardAlpha"/>
<feOffset dy="2"/>
<feGaussianBlur stdDeviation="2"/>
<feColorMatrix type="matrix" values="0 0 0 0 0 0 0 0 0 0 0 0 0 0 0 0 0 0 0.24 0"/>
<feBlend mode="normal" in2="effect1_dropShadow_10_12139" result="effect2_dropShadow_10_12139"/>
<feBlend mode="normal" in="SourceGraphic" in2="effect2_dropShadow_10_12139" result="shape"/>
</filter>
<filter id="filter7_i_10_12139" x="439.885" y="119.519" width="18.2295" height="18.5193" filterUnits="userSpaceOnUse" color-interpolation-filters="sRGB">
<feFlood flood-opacity="0" result="BackgroundImageFix"/>
<feBlend mode="normal" in="SourceGraphic" in2="BackgroundImageFix" result="shape"/>
<feColorMatrix in="SourceAlpha" type="matrix" values="0 0 0 0 0 0 0 0 0 0 0 0 0 0 0 0 0 0 127 0" result="hardAlpha"/>
<feOffset dy="1"/>
<feGaussianBlur stdDeviation="1"/>
<feComposite in2="hardAlpha" operator="arithmetic" k2="-1" k3="1"/>
<feColorMatrix type="matrix" values="0 0 0 0 0 0 0 0 0 0 0 0 0 0 0 0 0 0 0.24 0"/>
<feBlend mode="darken" in2="shape" result="effect1_innerShadow_10_12139"/>
</filter>
<filter id="filter8_i_10_12139" x="415.885" y="119.519" width="18.2295" height="18.5193" filterUnits="userSpaceOnUse" color-interpolation-filters="sRGB">
<feFlood flood-opacity="0" result="BackgroundImageFix"/>
<feBlend mode="normal" in="SourceGraphic" in2="BackgroundImageFix" result="shape"/>
<feColorMatrix in="SourceAlpha" type="matrix" values="0 0 0 0 0 0 0 0 0 0 0 0 0 0 0 0 0 0 127 0" result="hardAlpha"/>
<feOffset dy="1"/>
<feGaussianBlur stdDeviation="1"/>
<feComposite in2="hardAlpha" operator="arithmetic" k2="-1" k3="1"/>
<feColorMatrix type="matrix" values="0 0 0 0 0 0 0 0 0 0 0 0 0 0 0 0 0 0 0.24 0"/>
<feBlend mode="darken" in2="shape" result="effect1_innerShadow_10_12139"/>
</filter>
<filter id="filter9_i_10_12139" x="391.885" y="119.519" width="18.2296" height="18.5193" filterUnits="userSpaceOnUse" color-interpolation-filters="sRGB">
<feFlood flood-opacity="0" result="BackgroundImageFix"/>
<feBlend mode="normal" in="SourceGraphic" in2="BackgroundImageFix" result="shape"/>
<feColorMatrix in="SourceAlpha" type="matrix" values="0 0 0 0 0 0 0 0 0 0 0 0 0 0 0 0 0 0 127 0" result="hardAlpha"/>
<feOffset dy="1"/>
<feGaussianBlur stdDeviation="1"/>
<feComposite in2="hardAlpha" operator="arithmetic" k2="-1" k3="1"/>
<feColorMatrix type="matrix" values="0 0 0 0 0 0 0 0 0 0 0 0 0 0 0 0 0 0 0.24 0"/>
<feBlend mode="darken" in2="shape" result="effect1_innerShadow_10_12139"/>
</filter>
<filter id="filter10_d_10_12139" x="355.385" y="109.019" width="43.2296" height="42.5192" filterUnits="userSpaceOnUse" color-interpolation-filters="sRGB">
<feFlood flood-opacity="0" result="BackgroundImageFix"/>
<feColorMatrix in="SourceAlpha" type="matrix" values="0 0 0 0 0 0 0 0 0 0 0 0 0 0 0 0 0 0 127 0" result="hardAlpha"/>
<feOffset dy="2"/>
<feGaussianBlur stdDeviation="6"/>
<feColorMatrix type="matrix" values="0 0 0 0 0 0 0 0 0 0 0 0 0 0 0 0 0 0 0.12 0"/>
<feBlend mode="plus-darker" in2="BackgroundImageFix" result="effect1_dropShadow_10_12139"/>
<feBlend mode="normal" in="SourceGraphic" in2="effect1_dropShadow_10_12139" result="shape"/>
</filter>
<filter id="filter11_d_10_12139" x="331.385" y="109.019" width="43.2296" height="42.5192" filterUnits="userSpaceOnUse" color-interpolation-filters="sRGB">
<feFlood flood-opacity="0" result="BackgroundImageFix"/>
<feColorMatrix in="SourceAlpha" type="matrix" values="0 0 0 0 0 0 0 0 0 0 0 0 0 0 0 0 0 0 127 0" result="hardAlpha"/>
<feOffset dy="2"/>
<feGaussianBlur stdDeviation="6"/>
<feColorMatrix type="matrix" values="0 0 0 0 0 0 0 0 0 0 0 0 0 0 0 0 0 0 0.12 0"/>
<feBlend mode="plus-darker" in2="BackgroundImageFix" result="effect1_dropShadow_10_12139"/>
<feBlend mode="normal" in="SourceGraphic" in2="effect1_dropShadow_10_12139" result="shape"/>
</filter>
<filter id="filter12_dd_10_12139" x="533" y="103" width="216" height="60" filterUnits="userSpaceOnUse" color-interpolation-filters="sRGB">
<feFlood flood-opacity="0" result="BackgroundImageFix"/>
<feColorMatrix in="SourceAlpha" type="matrix" values="0 0 0 0 0 0 0 0 0 0 0 0 0 0 0 0 0 0 127 0" result="hardAlpha"/>
<feOffset dy="4"/>
<feGaussianBlur stdDeviation="6"/>
<feColorMatrix type="matrix" values="0 0 0 0 0 0 0 0 0 0 0 0 0 0 0 0 0 0 0.16 0"/>
<feBlend mode="normal" in2="BackgroundImageFix" result="effect1_dropShadow_10_12139"/>
<feColorMatrix in="SourceAlpha" type="matrix" values="0 0 0 0 0 0 0 0 0 0 0 0 0 0 0 0 0 0 127 0" result="hardAlpha"/>
<feOffset dy="2"/>
<feGaussianBlur stdDeviation="2"/>
<feColorMatrix type="matrix" values="0 0 0 0 0 0 0 0 0 0 0 0 0 0 0 0 0 0 0.24 0"/>
<feBlend mode="normal" in2="effect1_dropShadow_10_12139" result="effect2_dropShadow_10_12139"/>
<feBlend mode="normal" in="SourceGraphic" in2="effect2_dropShadow_10_12139" result="shape"/>
</filter>
<filter id="filter13_i_10_12139" x="679.885" y="119.519" width="18.2295" height="18.5193" filterUnits="userSpaceOnUse" color-interpolation-filters="sRGB">
<feFlood flood-opacity="0" result="BackgroundImageFix"/>
<feBlend mode="normal" in="SourceGraphic" in2="BackgroundImageFix" result="shape"/>
<feColorMatrix in="SourceAlpha" type="matrix" values="0 0 0 0 0 0 0 0 0 0 0 0 0 0 0 0 0 0 127 0" result="hardAlpha"/>
<feOffset dy="1"/>
<feGaussianBlur stdDeviation="1"/>
<feComposite in2="hardAlpha" operator="arithmetic" k2="-1" k3="1"/>
<feColorMatrix type="matrix" values="0 0 0 0 0 0 0 0 0 0 0 0 0 0 0 0 0 0 0.24 0"/>
<feBlend mode="darken" in2="shape" result="effect1_innerShadow_10_12139"/>
</filter>
<filter id="filter14_i_10_12139" x="655.885" y="119.519" width="18.2295" height="18.5193" filterUnits="userSpaceOnUse" color-interpolation-filters="sRGB">
<feFlood flood-opacity="0" result="BackgroundImageFix"/>
<feBlend mode="normal" in="SourceGraphic" in2="BackgroundImageFix" result="shape"/>
<feColorMatrix in="SourceAlpha" type="matrix" values="0 0 0 0 0 0 0 0 0 0 0 0 0 0 0 0 0 0 127 0" result="hardAlpha"/>
<feOffset dy="1"/>
<feGaussianBlur stdDeviation="1"/>
<feComposite in2="hardAlpha" operator="arithmetic" k2="-1" k3="1"/>
<feColorMatrix type="matrix" values="0 0 0 0 0 0 0 0 0 0 0 0 0 0 0 0 0 0 0.24 0"/>
<feBlend mode="darken" in2="shape" result="effect1_innerShadow_10_12139"/>
</filter>
<filter id="filter15_d_10_12139" x="619.385" y="109.019" width="43.2295" height="42.5192" filterUnits="userSpaceOnUse" color-interpolation-filters="sRGB">
<feFlood flood-opacity="0" result="BackgroundImageFix"/>
<feColorMatrix in="SourceAlpha" type="matrix" values="0 0 0 0 0 0 0 0 0 0 0 0 0 0 0 0 0 0 127 0" result="hardAlpha"/>
<feOffset dy="2"/>
<feGaussianBlur stdDeviation="6"/>
<feColorMatrix type="matrix" values="0 0 0 0 0 0 0 0 0 0 0 0 0 0 0 0 0 0 0.12 0"/>
<feBlend mode="plus-darker" in2="BackgroundImageFix" result="effect1_dropShadow_10_12139"/>
<feBlend mode="normal" in="SourceGraphic" in2="effect1_dropShadow_10_12139" result="shape"/>
</filter>
<filter id="filter16_d_10_12139" x="595.385" y="109.019" width="43.2295" height="42.5192" filterUnits="userSpaceOnUse" color-interpolation-filters="sRGB">
<feFlood flood-opacity="0" result="BackgroundImageFix"/>
<feColorMatrix in="SourceAlpha" type="matrix" values="0 0 0 0 0 0 0 0 0 0 0 0 0 0 0 0 0 0 127 0" result="hardAlpha"/>
<feOffset dy="2"/>
<feGaussianBlur stdDeviation="6"/>
<feColorMatrix type="matrix" values="0 0 0 0 0 0 0 0 0 0 0 0 0 0 0 0 0 0 0.12 0"/>
<feBlend mode="plus-darker" in2="BackgroundImageFix" result="effect1_dropShadow_10_12139"/>
<feBlend mode="normal" in="SourceGraphic" in2="effect1_dropShadow_10_12139" result="shape"/>
</filter>
<filter id="filter17_d_10_12139" x="571.385" y="109.019" width="43.2295" height="42.5192" filterUnits="userSpaceOnUse" color-interpolation-filters="sRGB">
<feFlood flood-opacity="0" result="BackgroundImageFix"/>
<feColorMatrix in="SourceAlpha" type="matrix" values="0 0 0 0 0 0 0 0 0 0 0 0 0 0 0 0 0 0 127 0" result="hardAlpha"/>
<feOffset dy="2"/>
<feGaussianBlur stdDeviation="6"/>
<feColorMatrix type="matrix" values="0 0 0 0 0 0 0 0 0 0 0 0 0 0 0 0 0 0 0.12 0"/>
<feBlend mode="plus-darker" in2="BackgroundImageFix" result="effect1_dropShadow_10_12139"/>
<feBlend mode="normal" in="SourceGraphic" in2="effect1_dropShadow_10_12139" result="shape"/>
</filter>
<filter id="filter18_dd_10_12139" x="173" y="187" width="216" height="60" filterUnits="userSpaceOnUse" color-interpolation-filters="sRGB">
<feFlood flood-opacity="0" result="BackgroundImageFix"/>
<feColorMatrix in="SourceAlpha" type="matrix" values="0 0 0 0 0 0 0 0 0 0 0 0 0 0 0 0 0 0 127 0" result="hardAlpha"/>
<feOffset dy="4"/>
<feGaussianBlur stdDeviation="6"/>
<feColorMatrix type="matrix" values="0 0 0 0 0 0 0 0 0 0 0 0 0 0 0 0 0 0 0.16 0"/>
<feBlend mode="normal" in2="BackgroundImageFix" result="effect1_dropShadow_10_12139"/>
<feColorMatrix in="SourceAlpha" type="matrix" values="0 0 0 0 0 0 0 0 0 0 0 0 0 0 0 0 0 0 127 0" result="hardAlpha"/>
<feOffset dy="2"/>
<feGaussianBlur stdDeviation="2"/>
<feColorMatrix type="matrix" values="0 0 0 0 0 0 0 0 0 0 0 0 0 0 0 0 0 0 0.24 0"/>
<feBlend mode="normal" in2="effect1_dropShadow_10_12139" result="effect2_dropShadow_10_12139"/>
<feBlend mode="normal" in="SourceGraphic" in2="effect2_dropShadow_10_12139" result="shape"/>
</filter>
<filter id="filter19_i_10_12139" x="319.885" y="203.519" width="18.2296" height="18.5193" filterUnits="userSpaceOnUse" color-interpolation-filters="sRGB">
<feFlood flood-opacity="0" result="BackgroundImageFix"/>
<feBlend mode="normal" in="SourceGraphic" in2="BackgroundImageFix" result="shape"/>
<feColorMatrix in="SourceAlpha" type="matrix" values="0 0 0 0 0 0 0 0 0 0 0 0 0 0 0 0 0 0 127 0" result="hardAlpha"/>
<feOffset dy="1"/>
<feGaussianBlur stdDeviation="1"/>
<feComposite in2="hardAlpha" operator="arithmetic" k2="-1" k3="1"/>
<feColorMatrix type="matrix" values="0 0 0 0 0 0 0 0 0 0 0 0 0 0 0 0 0 0 0.24 0"/>
<feBlend mode="darken" in2="shape" result="effect1_innerShadow_10_12139"/>
</filter>
<filter id="filter20_d_10_12139" x="283.385" y="193.019" width="43.2296" height="42.5192" filterUnits="userSpaceOnUse" color-interpolation-filters="sRGB">
<feFlood flood-opacity="0" result="BackgroundImageFix"/>
<feColorMatrix in="SourceAlpha" type="matrix" values="0 0 0 0 0 0 0 0 0 0 0 0 0 0 0 0 0 0 127 0" result="hardAlpha"/>
<feOffset dy="2"/>
<feGaussianBlur stdDeviation="6"/>
<feColorMatrix type="matrix" values="0 0 0 0 0 0 0 0 0 0 0 0 0 0 0 0 0 0 0.12 0"/>
<feBlend mode="plus-darker" in2="BackgroundImageFix" result="effect1_dropShadow_10_12139"/>
<feBlend mode="normal" in="SourceGraphic" in2="effect1_dropShadow_10_12139" result="shape"/>
</filter>
<filter id="filter21_d_10_12139" x="259.385" y="193.019" width="43.2296" height="42.5192" filterUnits="userSpaceOnUse" color-interpolation-filters="sRGB">
<feFlood flood-opacity="0" result="BackgroundImageFix"/>
<feColorMatrix in="SourceAlpha" type="matrix" values="0 0 0 0 0 0 0 0 0 0 0 0 0 0 0 0 0 0 127 0" result="hardAlpha"/>
<feOffset dy="2"/>
<feGaussianBlur stdDeviation="6"/>
<feColorMatrix type="matrix" values="0 0 0 0 0 0 0 0 0 0 0 0 0 0 0 0 0 0 0.12 0"/>
<feBlend mode="plus-darker" in2="BackgroundImageFix" result="effect1_dropShadow_10_12139"/>
<feBlend mode="normal" in="SourceGraphic" in2="effect1_dropShadow_10_12139" result="shape"/>
</filter>
<filter id="filter22_d_10_12139" x="235.385" y="193.019" width="43.2296" height="42.5192" filterUnits="userSpaceOnUse" color-interpolation-filters="sRGB">
<feFlood flood-opacity="0" result="BackgroundImageFix"/>
<feColorMatrix in="SourceAlpha" type="matrix" values="0 0 0 0 0 0 0 0 0 0 0 0 0 0 0 0 0 0 127 0" result="hardAlpha"/>
<feOffset dy="2"/>
<feGaussianBlur stdDeviation="6"/>
<feColorMatrix type="matrix" values="0 0 0 0 0 0 0 0 0 0 0 0 0 0 0 0 0 0 0.12 0"/>
<feBlend mode="plus-darker" in2="BackgroundImageFix" result="effect1_dropShadow_10_12139"/>
<feBlend mode="normal" in="SourceGraphic" in2="effect1_dropShadow_10_12139" result="shape"/>
</filter>
<filter id="filter23_d_10_12139" x="211.385" y="193.019" width="43.2296" height="42.5192" filterUnits="userSpaceOnUse" color-interpolation-filters="sRGB">
<feFlood flood-opacity="0" result="BackgroundImageFix"/>
<feColorMatrix in="SourceAlpha" type="matrix" values="0 0 0 0 0 0 0 0 0 0 0 0 0 0 0 0 0 0 127 0" result="hardAlpha"/>
<feOffset dy="2"/>
<feGaussianBlur stdDeviation="6"/>
<feColorMatrix type="matrix" values="0 0 0 0 0 0 0 0 0 0 0 0 0 0 0 0 0 0 0.12 0"/>
<feBlend mode="plus-darker" in2="BackgroundImageFix" result="effect1_dropShadow_10_12139"/>
<feBlend mode="normal" in="SourceGraphic" in2="effect1_dropShadow_10_12139" result="shape"/>
</filter>
<filter id="filter24_dd_10_12139" x="413" y="187" width="216" height="60" filterUnits="userSpaceOnUse" color-interpolation-filters="sRGB">
<feFlood flood-opacity="0" result="BackgroundImageFix"/>
<feColorMatrix in="SourceAlpha" type="matrix" values="0 0 0 0 0 0 0 0 0 0 0 0 0 0 0 0 0 0 127 0" result="hardAlpha"/>
<feOffset dy="4"/>
<feGaussianBlur stdDeviation="6"/>
<feColorMatrix type="matrix" values="0 0 0 0 0 0 0 0 0 0 0 0 0 0 0 0 0 0 0.16 0"/>
<feBlend mode="normal" in2="BackgroundImageFix" result="effect1_dropShadow_10_12139"/>
<feColorMatrix in="SourceAlpha" type="matrix" values="0 0 0 0 0 0 0 0 0 0 0 0 0 0 0 0 0 0 127 0" result="hardAlpha"/>
<feOffset dy="2"/>
<feGaussianBlur stdDeviation="2"/>
<feColorMatrix type="matrix" values="0 0 0 0 0 0 0 0 0 0 0 0 0 0 0 0 0 0 0.24 0"/>
<feBlend mode="normal" in2="effect1_dropShadow_10_12139" result="effect2_dropShadow_10_12139"/>
<feBlend mode="normal" in="SourceGraphic" in2="effect2_dropShadow_10_12139" result="shape"/>
</filter>
<filter id="filter25_d_10_12139" x="547.385" y="193.019" width="43.2295" height="42.5192" filterUnits="userSpaceOnUse" color-interpolation-filters="sRGB">
<feFlood flood-opacity="0" result="BackgroundImageFix"/>
<feColorMatrix in="SourceAlpha" type="matrix" values="0 0 0 0 0 0 0 0 0 0 0 0 0 0 0 0 0 0 127 0" result="hardAlpha"/>
<feOffset dy="2"/>
<feGaussianBlur stdDeviation="6"/>
<feColorMatrix type="matrix" values="0 0 0 0 0 0 0 0 0 0 0 0 0 0 0 0 0 0 0.12 0"/>
<feBlend mode="plus-darker" in2="BackgroundImageFix" result="effect1_dropShadow_10_12139"/>
<feBlend mode="normal" in="SourceGraphic" in2="effect1_dropShadow_10_12139" result="shape"/>
</filter>
<filter id="filter26_d_10_12139" x="523.385" y="193.019" width="43.2295" height="42.5192" filterUnits="userSpaceOnUse" color-interpolation-filters="sRGB">
<feFlood flood-opacity="0" result="BackgroundImageFix"/>
<feColorMatrix in="SourceAlpha" type="matrix" values="0 0 0 0 0 0 0 0 0 0 0 0 0 0 0 0 0 0 127 0" result="hardAlpha"/>
<feOffset dy="2"/>
<feGaussianBlur stdDeviation="6"/>
<feColorMatrix type="matrix" values="0 0 0 0 0 0 0 0 0 0 0 0 0 0 0 0 0 0 0.12 0"/>
<feBlend mode="plus-darker" in2="BackgroundImageFix" result="effect1_dropShadow_10_12139"/>
<feBlend mode="normal" in="SourceGraphic" in2="effect1_dropShadow_10_12139" result="shape"/>
</filter>
<filter id="filter27_d_10_12139" x="499.385" y="193.019" width="43.2295" height="42.5192" filterUnits="userSpaceOnUse" color-interpolation-filters="sRGB">
<feFlood flood-opacity="0" result="BackgroundImageFix"/>
<feColorMatrix in="SourceAlpha" type="matrix" values="0 0 0 0 0 0 0 0 0 0 0 0 0 0 0 0 0 0 127 0" result="hardAlpha"/>
<feOffset dy="2"/>
<feGaussianBlur stdDeviation="6"/>
<feColorMatrix type="matrix" values="0 0 0 0 0 0 0 0 0 0 0 0 0 0 0 0 0 0 0.12 0"/>
<feBlend mode="plus-darker" in2="BackgroundImageFix" result="effect1_dropShadow_10_12139"/>
<feBlend mode="normal" in="SourceGraphic" in2="effect1_dropShadow_10_12139" result="shape"/>
</filter>
<filter id="filter28_d_10_12139" x="475.385" y="193.019" width="43.2295" height="42.5192" filterUnits="userSpaceOnUse" color-interpolation-filters="sRGB">
<feFlood flood-opacity="0" result="BackgroundImageFix"/>
<feColorMatrix in="SourceAlpha" type="matrix" values="0 0 0 0 0 0 0 0 0 0 0 0 0 0 0 0 0 0 127 0" result="hardAlpha"/>
<feOffset dy="2"/>
<feGaussianBlur stdDeviation="6"/>
<feColorMatrix type="matrix" values="0 0 0 0 0 0 0 0 0 0 0 0 0 0 0 0 0 0 0.12 0"/>
<feBlend mode="plus-darker" in2="BackgroundImageFix" result="effect1_dropShadow_10_12139"/>
<feBlend mode="normal" in="SourceGraphic" in2="effect1_dropShadow_10_12139" result="shape"/>
</filter>
<filter id="filter29_d_10_12139" x="451.385" y="193.019" width="43.2295" height="42.5192" filterUnits="userSpaceOnUse" color-interpolation-filters="sRGB">
<feFlood flood-opacity="0" result="BackgroundImageFix"/>
<feColorMatrix in="SourceAlpha" type="matrix" values="0 0 0 0 0 0 0 0 0 0 0 0 0 0 0 0 0 0 127 0" result="hardAlpha"/>
<feOffset dy="2"/>
<feGaussianBlur stdDeviation="6"/>
<feColorMatrix type="matrix" values="0 0 0 0 0 0 0 0 0 0 0 0 0 0 0 0 0 0 0.12 0"/>
<feBlend mode="plus-darker" in2="BackgroundImageFix" result="effect1_dropShadow_10_12139"/>
<feBlend mode="normal" in="SourceGraphic" in2="effect1_dropShadow_10_12139" result="shape"/>
</filter>
<linearGradient id="paint0_linear_10_12139" x1="161" y1="111" x2="161" y2="147" gradientUnits="userSpaceOnUse">
<stop stop-opacity="0"/>
<stop offset="1" stop-opacity="0.16"/>
</linearGradient>
<linearGradient id="paint1_linear_10_12139" x1="161" y1="111" x2="161" y2="147" gradientUnits="userSpaceOnUse">
<stop stop-color="white"/>
<stop offset="1" stop-color="white" stop-opacity="0"/>
</linearGradient>
<radialGradient id="paint2_radial_10_12139" cx="0" cy="0" r="1" gradientUnits="userSpaceOnUse" gradientTransform="translate(161 117.282) rotate(90) scale(29.7179 96)">
<stop stop-color="white"/>
<stop offset="1" stop-color="white" stop-opacity="0"/>
</radialGradient>
<linearGradient id="paint3_linear_10_12139" x1="113" y1="119.519" x2="113" y2="137.038" gradientUnits="userSpaceOnUse">
<stop stop-color="#DFDFDF"/>
<stop offset="1" stop-color="#A9A9A9"/>
</linearGradient>
<linearGradient id="paint4_linear_10_12139" x1="401" y1="111" x2="401" y2="147" gradientUnits="userSpaceOnUse">
<stop stop-opacity="0"/>
<stop offset="1" stop-opacity="0.16"/>
</linearGradient>
<linearGradient id="paint5_linear_10_12139" x1="401" y1="111" x2="401" y2="147" gradientUnits="userSpaceOnUse">
<stop stop-color="white"/>
<stop offset="1" stop-color="white" stop-opacity="0"/>
</linearGradient>
<radialGradient id="paint6_radial_10_12139" cx="0" cy="0" r="1" gradientUnits="userSpaceOnUse" gradientTransform="translate(401 117.282) rotate(90) scale(29.7179 96)">
<stop stop-color="white"/>
<stop offset="1" stop-color="white" stop-opacity="0"/>
</radialGradient>
<linearGradient id="paint7_linear_10_12139" x1="377" y1="119.519" x2="377" y2="137.038" gradientUnits="userSpaceOnUse">
<stop stop-color="#DFDFDF"/>
<stop offset="1" stop-color="#A9A9A9"/>
</linearGradient>
<linearGradient id="paint8_linear_10_12139" x1="353" y1="119.519" x2="353" y2="137.038" gradientUnits="userSpaceOnUse">
<stop stop-color="#DFDFDF"/>
<stop offset="1" stop-color="#A9A9A9"/>
</linearGradient>
<linearGradient id="paint9_linear_10_12139" x1="641" y1="111" x2="641" y2="147" gradientUnits="userSpaceOnUse">
<stop stop-opacity="0"/>
<stop offset="1" stop-opacity="0.16"/>
</linearGradient>
<linearGradient id="paint10_linear_10_12139" x1="641" y1="111" x2="641" y2="147" gradientUnits="userSpaceOnUse">
<stop stop-color="white"/>
<stop offset="1" stop-color="white" stop-opacity="0"/>
</linearGradient>
<radialGradient id="paint11_radial_10_12139" cx="0" cy="0" r="1" gradientUnits="userSpaceOnUse" gradientTransform="translate(641 117.282) rotate(90) scale(29.7179 96)">
<stop stop-color="white"/>
<stop offset="1" stop-color="white" stop-opacity="0"/>
</radialGradient>
<linearGradient id="paint12_linear_10_12139" x1="641" y1="119.519" x2="641" y2="137.038" gradientUnits="userSpaceOnUse">
<stop stop-color="#DFDFDF"/>
<stop offset="1" stop-color="#A9A9A9"/>
</linearGradient>
<linearGradient id="paint13_linear_10_12139" x1="617" y1="119.519" x2="617" y2="137.038" gradientUnits="userSpaceOnUse">
<stop stop-color="#DFDFDF"/>
<stop offset="1" stop-color="#A9A9A9"/>
</linearGradient>
<linearGradient id="paint14_linear_10_12139" x1="593" y1="119.519" x2="593" y2="137.038" gradientUnits="userSpaceOnUse">
<stop stop-color="#DFDFDF"/>
<stop offset="1" stop-color="#A9A9A9"/>
</linearGradient>
<linearGradient id="paint15_linear_10_12139" x1="281" y1="195" x2="281" y2="231" gradientUnits="userSpaceOnUse">
<stop stop-opacity="0"/>
<stop offset="1" stop-opacity="0.16"/>
</linearGradient>
<linearGradient id="paint16_linear_10_12139" x1="281" y1="195" x2="281" y2="231" gradientUnits="userSpaceOnUse">
<stop stop-color="white"/>
<stop offset="1" stop-color="white" stop-opacity="0"/>
</linearGradient>
<radialGradient id="paint17_radial_10_12139" cx="0" cy="0" r="1" gradientUnits="userSpaceOnUse" gradientTransform="translate(281 201.282) rotate(90) scale(29.7179 96)">
<stop stop-color="white"/>
<stop offset="1" stop-color="white" stop-opacity="0"/>
</radialGradient>
<linearGradient id="paint18_linear_10_12139" x1="305" y1="203.519" x2="305" y2="221.038" gradientUnits="userSpaceOnUse">
<stop stop-color="#DFDFDF"/>
<stop offset="1" stop-color="#A9A9A9"/>
</linearGradient>
<linearGradient id="paint19_linear_10_12139" x1="281" y1="203.519" x2="281" y2="221.038" gradientUnits="userSpaceOnUse">
<stop stop-color="#DFDFDF"/>
<stop offset="1" stop-color="#A9A9A9"/>
</linearGradient>
<linearGradient id="paint20_linear_10_12139" x1="257" y1="203.519" x2="257" y2="221.038" gradientUnits="userSpaceOnUse">
<stop stop-color="#DFDFDF"/>
<stop offset="1" stop-color="#A9A9A9"/>
</linearGradient>
<linearGradient id="paint21_linear_10_12139" x1="233" y1="203.519" x2="233" y2="221.038" gradientUnits="userSpaceOnUse">
<stop stop-color="#DFDFDF"/>
<stop offset="1" stop-color="#A9A9A9"/>
</linearGradient>
<linearGradient id="paint22_linear_10_12139" x1="521" y1="195" x2="521" y2="231" gradientUnits="userSpaceOnUse">
<stop stop-opacity="0"/>
<stop offset="1" stop-opacity="0.16"/>
</linearGradient>
<linearGradient id="paint23_linear_10_12139" x1="521" y1="195" x2="521" y2="231" gradientUnits="userSpaceOnUse">
<stop stop-color="white"/>
<stop offset="1" stop-color="white" stop-opacity="0"/>
</linearGradient>
<radialGradient id="paint24_radial_10_12139" cx="0" cy="0" r="1" gradientUnits="userSpaceOnUse" gradientTransform="translate(521 201.282) rotate(90) scale(29.7179 96)">
<stop stop-color="white"/>
<stop offset="1" stop-color="white" stop-opacity="0"/>
</radialGradient>
<linearGradient id="paint25_linear_10_12139" x1="569" y1="203.519" x2="569" y2="221.038" gradientUnits="userSpaceOnUse">
<stop stop-color="#DFDFDF"/>
<stop offset="1" stop-color="#A9A9A9"/>
</linearGradient>
<linearGradient id="paint26_linear_10_12139" x1="545" y1="203.519" x2="545" y2="221.038" gradientUnits="userSpaceOnUse">
<stop stop-color="#DFDFDF"/>
<stop offset="1" stop-color="#A9A9A9"/>
</linearGradient>
<linearGradient id="paint27_linear_10_12139" x1="521" y1="203.519" x2="521" y2="221.038" gradientUnits="userSpaceOnUse">
<stop stop-color="#DFDFDF"/>
<stop offset="1" stop-color="#A9A9A9"/>
</linearGradient>
<linearGradient id="paint28_linear_10_12139" x1="497" y1="203.519" x2="497" y2="221.038" gradientUnits="userSpaceOnUse">
<stop stop-color="#DFDFDF"/>
<stop offset="1" stop-color="#A9A9A9"/>
</linearGradient>
<linearGradient id="paint29_linear_10_12139" x1="473" y1="203.519" x2="473" y2="221.038" gradientUnits="userSpaceOnUse">
<stop stop-color="#DFDFDF"/>
<stop offset="1" stop-color="#A9A9A9"/>
</linearGradient>
</defs>
</svg>
