<svg width="152" height="158" viewBox="0 0 152 158" fill="none" xmlns="http://www.w3.org/2000/svg">
<path d="M137.502 121.971C135.828 121.808 134.173 121.476 132.561 120.98C131.615 110.287 131.482 99.533 132.164 88.8181C134.648 88.8848 137.12 89.2003 139.546 89.7601L140.34 120.774L137.502 121.971Z" fill="white"/>
<path d="M110.698 120.77L117.248 122.288L117.475 129.57L112.059 132.294L105.399 123.615L110.698 120.77Z" fill="#81F8F8"/>
<path d="M74.978 127.055L100.974 114.221L107.876 113.802L110.698 120.77L83.1894 135.541L74.978 127.055Z" fill="#81F8F8"/>
<path d="M49.5586 126.611L71.2672 123.685L71.0686 119.105L78.3392 118.048L77.0059 76.6789L70.5303 74.9417V68.0023C69.6739 67.6906 68.9485 67.0786 68.4789 66.2714C68.0092 65.4642 67.8245 64.5122 67.9565 63.5788C68.9798 62.9607 70.1074 62.5517 71.2785 62.3738C72.0267 62.176 75.2271 60.7717 76.186 60.3328V44.5331L70.0705 42.1781V39.2925L48.8127 32.7636L33.564 66.6285L52.9169 100.564L46.664 115.366L49.5586 126.611Z" fill="#81F8F8"/>
<path d="M16.1475 116.117L30.6178 113.616L31.0647 119.224L39.711 120.219L40.0002 123.36L22.2531 126.586L16.1475 116.117Z" fill="#81F8F8"/>
<path d="M82.8882 118.046L89.9286 119.674L93.8198 117.696L89.6386 116.807L82.8882 118.046Z" fill="#81F8F8"/>
<path d="M132.043 90.9102C130.276 88.7092 128.683 86.363 127.28 83.8946C126.856 83.1473 125.711 81.0843 120.847 71.2506C120.165 69.9818 119.409 68.758 118.582 67.5862C117.098 65.4032 116.417 64.7759 115.542 64.4604C115.129 64.3112 114.996 64.3505 113.024 64.2539C108.336 64.0247 108.16 63.9878 103.863 62.6839C100.692 61.7231 100.692 61.4554 98.249 60.8274C96.7221 60.3897 95.1566 60.113 93.5764 60.0016C91.8619 59.9412 90.1459 60.0651 88.4559 60.3713C82.2287 61.2238 82.8199 61.2968 80.9309 61.4703C76.6719 61.8581 75.7712 61.2992 72.6062 61.99C71.0058 62.3397 69.4472 62.8712 67.9585 63.5749C67.853 64.2171 67.8993 64.8764 68.0936 65.4958C68.7051 67.4206 70.6938 68.2048 71.9577 68.708C73.4779 69.2752 75.0932 69.515 76.7053 69.4129C78.3175 69.3107 79.8928 68.8687 81.3355 68.1138C84.7018 69.0081 88.2157 69.1246 91.63 68.4552L94.1101 70.0252C93.5816 70.2607 92.7768 70.6053 91.7696 70.9602C89.8942 71.6227 89.7055 71.483 88.7791 71.9383C88.1298 72.257 86.1992 73.2068 85.7591 74.9754C85.6774 75.566 85.666 76.1647 85.7251 76.7582C85.7395 78.0495 85.7251 79.0936 85.7251 79.7624C82.9082 79.1344 79.1226 80.4147 78.1585 83.1481C77.3944 85.3147 78.5972 87.3588 78.8448 87.7796C79.6677 89.1777 80.795 89.8072 82.576 90.7963C84.0097 91.5915 85.5308 92.2031 87.106 92.6175C87.1384 93.7522 87.4962 94.8508 88.1336 95.7725C91.0856 100.282 90.9557 100.788 91.9138 101.519C92.3128 101.889 92.8159 102.115 93.3483 102.163C94.6318 102.192 95.4714 100.768 95.559 100.614C96.1222 101.863 96.6696 102.903 97.1264 103.708C97.5717 104.634 98.2178 105.441 99.0139 106.063C99.9508 106.854 101.188 106.832 102.411 105.394C102.945 104.761 103.266 103.964 103.324 103.125C105.56 105.481 108.089 107.513 110.845 109.169C112.667 110.24 113.172 110.274 115.084 111.464C116.689 112.463 116.771 112.704 117.699 113.261C119.347 114.249 120.805 114.483 124.214 114.86C127.191 115.189 129.872 115.423 132.174 115.594C131.685 107.375 131.641 99.1343 132.043 90.9102Z" fill="#FFD997"/>
<path d="M87.4723 88.6133C87.3769 88.6135 87.2849 88.5762 87.2148 88.5087C87.1448 88.4413 87.1019 88.3488 87.0948 88.2498C87.025 87.3026 87.1627 86.3513 87.4976 85.4675C87.8325 84.5837 88.3559 83.7904 89.0284 83.1473C89.0648 83.1123 89.1075 83.0851 89.1541 83.0673C89.2006 83.0494 89.2501 83.0413 89.2997 83.0434C89.3492 83.0454 89.3979 83.0576 89.443 83.0792C89.488 83.1008 89.5285 83.1314 89.5622 83.1693C89.5958 83.2072 89.622 83.2516 89.6391 83.3C89.6563 83.3484 89.6641 83.3998 89.6622 83.4513C89.6602 83.5029 89.6485 83.5535 89.6277 83.6003C89.6069 83.6472 89.5775 83.6893 89.541 83.7243C88.9524 84.2873 88.4942 84.9817 88.2009 85.7554C87.9076 86.529 87.7868 87.3617 87.8476 88.1909C87.8515 88.2447 87.8448 88.2988 87.8277 88.3498C87.8106 88.4007 87.7837 88.4475 87.7485 88.4871C87.7132 88.5267 87.6705 88.5584 87.623 88.5801C87.5755 88.6018 87.5242 88.6131 87.4723 88.6133Z" fill="black"/>
<path d="M91.1669 89.9674C91.0986 89.9673 91.0316 89.948 90.973 89.9116C90.9144 89.8751 90.8665 89.8227 90.8342 89.7601C90.802 89.6975 90.7867 89.627 90.79 89.5561C90.7932 89.4852 90.8149 89.4165 90.8528 89.3574C91.3167 88.6348 91.622 87.815 91.7471 86.956C91.8722 86.097 91.8141 85.2198 91.5768 84.3868C91.5502 84.2875 91.5622 84.1813 91.6103 84.0912C91.6583 84.001 91.7385 83.9342 91.8336 83.905C91.9287 83.8758 92.031 83.8867 92.1184 83.9353C92.2058 83.9839 92.2714 84.0663 92.3009 84.1647C92.5694 85.1078 92.6352 86.1009 92.4935 87.0734C92.3518 88.0459 92.0061 88.9742 91.4809 89.7923C91.4465 89.8461 91.3998 89.8903 91.345 89.9208C91.2902 89.9514 91.229 89.9673 91.1669 89.9674Z" fill="black"/>
<path d="M147.5 128.66C146.155 115.427 145.592 102.121 145.815 88.8158C144.396 88.6745 138.813 88.2255 136.813 88.0873C136.766 88.0839 136.718 88.0906 136.674 88.1071C136.629 88.1236 136.588 88.1495 136.553 88.1833C136.518 88.217 136.49 88.2578 136.472 88.3031C136.453 88.3485 136.443 88.3974 136.443 88.4468V88.7875C135.034 88.547 133.609 88.4244 132.181 88.4209C132.085 88.4207 131.992 88.4585 131.922 88.5266C131.852 88.5947 131.81 88.688 131.803 88.7875C131.784 89.0795 131.756 89.5223 131.728 90.0545C130.369 88.2914 129.118 86.4421 127.981 84.5171C125.653 80.461 123.53 76.2812 121.621 71.9948C120.887 70.3969 119.995 68.8824 118.96 67.4756C118.184 66.2787 117.182 65.258 116.016 64.4753C114.438 63.6189 113.118 63.8473 111.33 63.7978C109.74 63.7531 108.043 63.3221 104.663 62.4633C99.0899 61.0503 98.0752 59.8383 94.0458 59.664C92.904 59.6356 91.7616 59.6749 90.6241 59.7818C88.8236 59.8909 87.0325 60.1293 85.2636 60.4953C78.4792 61.8212 77.6789 60.741 73.811 61.3981C71.7492 61.7482 69.7353 62.3543 67.8125 63.2036C67.7532 63.2296 67.7012 63.2709 67.6616 63.3237C67.6219 63.3764 67.5959 63.4389 67.586 63.505C67.4833 64.2018 67.5397 64.9138 67.7506 65.5837C68.4452 67.6946 70.6083 68.551 71.7718 69.011C75.2855 70.4028 78.9012 69.5605 81.3527 68.5855C84.7024 69.4462 88.1914 69.5437 91.5807 68.8713C92.1446 69.3013 92.7353 69.692 93.3489 70.0409C91.1194 70.8982 90.0865 71.096 89.2372 71.3856C86.2927 72.3912 85.4516 74.1975 85.3806 76.1482C85.3489 76.8547 85.3232 77.9537 85.3663 79.3503C83.5834 79.1126 81.7729 79.4355 80.1681 80.2773C77.4501 81.9706 76.9171 84.5163 78.2104 87.4295C79.2878 89.7586 81.3814 90.8599 86.7147 92.8993C86.7054 93.3945 86.793 93.8865 86.9722 94.3453C87.8394 96.0712 88.8016 97.7437 89.854 99.3544C90.425 100.449 91.1956 101.418 92.1228 102.206C93.2704 103.133 94.5471 102.498 95.509 101.31C96.0484 102.53 96.6767 103.705 97.3881 104.826C98.1628 106.032 98.84 106.858 100.252 106.858C101.054 106.827 101.821 106.51 102.425 105.96C103.029 105.409 103.432 104.66 103.567 103.838C104.119 104.393 104.74 104.997 105.455 105.66C110.394 110.238 110.613 109.161 114.381 111.469C115.912 112.406 116.142 112.758 117.165 113.353C118.837 114.333 120.376 114.668 123.415 115.094C126.179 115.478 129.007 115.766 131.827 115.957C131.902 117.135 132.018 118.88 132.204 121.003C132.211 121.081 132.24 121.155 132.287 121.215C132.335 121.276 132.398 121.32 132.47 121.343C133.994 121.813 135.556 122.136 137.137 122.308C137.205 123.697 137.277 125.078 137.355 126.449C140.604 127.734 144.028 128.48 147.5 128.66ZM75.2463 61.997C75.1048 62.29 74.9428 62.5718 74.7616 62.8401C73.9809 63.6189 72.9035 63.5773 71.1157 63.7821C70.0828 63.9015 69.0243 64.0176 68.5562 63.739C70.6966 62.8347 72.9487 62.2484 75.2463 61.997ZM78.6574 86.5385C78.2328 85.5104 78.1792 84.3576 78.5064 83.2917C78.9091 82.2899 79.6325 81.4635 80.5539 80.9524C81.1518 80.5999 81.8044 80.359 82.4822 80.2404C82.9649 80.3829 83.409 80.6404 83.7793 80.9925C84.032 81.2 84.2311 81.4698 84.3584 81.7775C84.5849 82.5193 83.4803 83.1763 82.8854 84.8782C82.2391 86.7159 82.8363 87.9939 82.3644 88.315C81.9665 88.5819 81.1919 88.2671 80.6279 88.0371C79.8626 87.7154 79.1864 87.2007 78.6604 86.5393L78.6574 86.5385ZM92.5712 101.581C91.7095 100.861 91.0012 99.9627 90.4912 98.9431C90.3206 98.6558 89.2945 96.9971 88.9261 96.3848C89.1591 96.3004 89.4073 96.2714 89.6524 96.3C90.2413 96.3965 90.6581 96.9782 91.5444 98.286C91.9954 98.8336 92.3345 99.4709 92.541 100.159C92.6386 100.627 92.6498 101.109 92.5743 101.581L92.5712 101.581ZM95.7317 99.4125C95.2998 100.634 94.193 101.877 93.284 101.859C93.406 101.242 93.4042 100.605 93.2787 99.9895C93.0534 99.1984 92.6729 98.4645 92.1613 97.8339C91.2492 96.4884 90.6996 95.6767 89.7566 95.5228C89.3373 95.4702 88.912 95.5314 88.5222 95.7002C88.2023 95.1762 87.918 94.6295 87.6713 94.0643C87.562 93.7874 87.4979 93.4934 87.4818 93.1945C91.5852 94.7457 93.3232 95.3391 95.5097 96.0943C95.9953 97.1286 96.076 98.3184 95.7347 99.4133L95.7317 99.4125ZM99.6403 105.992H99.6214C98.9955 105.793 98.6037 105.319 98.0118 104.396C97.2419 103.187 96.5728 101.911 96.0118 100.583C96.1361 100.37 96.2463 100.149 96.3417 99.9204C97.0644 100.125 97.6801 100.618 98.0548 101.293C99.6101 103.354 99.7498 103.597 99.7732 103.918C99.7906 104.146 99.6864 105.525 99.6433 105.992L99.6403 105.992ZM100.395 106.07C100.43 105.696 100.551 104.192 100.53 103.86C100.49 103.29 100.314 103.005 98.652 100.804C98.1879 100.008 97.4508 99.4241 96.5894 99.1707C96.7822 98.2839 96.7399 97.3593 96.467 96.4954C98.9585 98.0278 99.6464 99.765 102.919 103.175C102.728 104.685 101.812 105.981 100.395 106.072L100.395 106.07ZM123.511 114.32C120.265 113.865 118.616 113.563 116.456 111.946C115.037 110.889 113.509 109.998 111.902 109.289C109.979 108.402 109.011 107.909 105.954 105.075C104.03 103.308 102.235 101.395 100.583 99.3528C99.6085 98.0328 98.428 96.8919 97.0907 95.9773C96.1288 95.3274 96.5531 95.7638 88.498 92.7424C83.7506 90.9628 81.2885 89.9423 79.9099 88.552C80.0549 88.6305 80.1983 88.709 80.3501 88.771C81.1383 89.0937 82.0616 89.4595 82.7766 88.9775C83.3429 88.5913 83.33 87.9656 83.3172 87.3031C83.2709 86.574 83.3653 85.8427 83.5951 85.1522C84.1855 83.4597 85.4637 82.8207 85.0681 81.5176C84.8981 81.079 84.6228 80.6931 84.2685 80.3967C84.1488 80.2831 84.0227 80.1769 83.891 80.0787C85.4714 80.0683 87.0459 80.2796 88.572 80.7067C95.1571 82.411 97.2545 85.7135 102.983 85.3068L102.996 85.3115C103.011 85.3115 103.024 85.3029 103.039 85.3021C103.627 85.2529 104.212 85.1714 104.792 85.058C104.891 85.0372 104.977 84.9766 105.032 84.8897C105.087 84.8028 105.107 84.6966 105.087 84.5944C105.067 84.4923 105.009 84.4027 104.925 84.3452C104.842 84.2877 104.74 84.2671 104.641 84.2879C104.37 84.3452 104.096 84.3899 103.821 84.4292C105.959 81.5451 107.771 78.4146 109.221 75.0995C109.26 75.005 109.262 74.8983 109.226 74.8024C109.191 74.7065 109.12 74.6291 109.03 74.5867C108.94 74.5443 108.837 74.5404 108.745 74.5758C108.652 74.6112 108.576 74.6831 108.533 74.7761C107.998 76.0054 107.394 77.1986 106.758 78.3737C106.681 77.2757 106.348 76.2137 105.789 75.2787C105.23 74.3437 104.461 73.5635 103.548 73.0051C103.462 72.9539 103.359 72.9404 103.263 72.9675C103.166 72.9947 103.085 73.0603 103.035 73.15C102.985 73.2398 102.971 73.3464 102.997 73.4466C103.022 73.5468 103.085 73.6325 103.171 73.6849C104.175 74.2967 104.979 75.2084 105.478 76.3015C105.977 77.3947 106.148 78.6186 105.969 79.8142C105.006 81.4559 103.947 83.0341 102.798 84.5399C99.6901 84.7212 97.8864 83.8208 95.0967 82.44C95.0824 81.9847 95.0537 81.5294 95.0023 81.0757C96.0931 81.4482 97.2618 81.4996 98.3789 81.224C99.496 80.9484 100.518 80.3567 101.332 79.5143C102.064 80.1729 102.938 80.6406 103.879 80.8786C103.976 80.9006 104.077 80.8828 104.161 80.829C104.246 80.7752 104.307 80.6894 104.332 80.5898C104.344 80.5396 104.346 80.4875 104.338 80.4365C104.331 80.3855 104.314 80.3365 104.288 80.2924C104.262 80.2482 104.228 80.2098 104.188 80.1794C104.148 80.1489 104.102 80.127 104.054 80.1148C103.119 79.8784 102.262 79.384 101.574 78.6838C101.537 78.6465 101.494 78.6173 101.446 78.598C101.399 78.5787 101.348 78.5696 101.297 78.5714C101.246 78.5731 101.195 78.5857 101.149 78.6082C101.103 78.6308 101.061 78.6629 101.027 78.7026C100.274 79.5815 99.2783 80.1973 98.1759 80.4659C97.0736 80.7346 95.9184 80.6429 94.868 80.2035C94.8415 80.0465 94.8264 79.8801 94.7925 79.72C94.6071 78.7815 94.3418 77.8621 93.9997 76.9725C93.9626 76.8758 93.89 76.7984 93.798 76.7573C93.7059 76.7162 93.602 76.7148 93.509 76.7535C93.4159 76.7921 93.3415 76.8675 93.302 76.9632C93.2625 77.0589 93.2612 77.167 93.2983 77.2637C93.8933 78.7915 94.2359 80.4129 94.3115 82.0593C91.7295 80.7442 88.9659 79.8561 86.1205 79.4272C86.0745 78.0142 86.0979 76.8916 86.1296 76.1851C86.1199 75.8183 86.1534 75.4516 86.2292 75.0932C86.2542 75.0006 86.2927 74.9181 86.3251 74.831C86.5763 75.114 86.8808 75.3403 87.2197 75.4957C87.5586 75.6511 87.9246 75.7324 88.2949 75.7345C88.3946 75.7348 88.4904 75.6944 88.5619 75.6221C88.6333 75.5497 88.6746 75.4512 88.677 75.3475C88.6784 75.244 88.6404 75.144 88.5712 75.0695C88.5021 74.9949 88.4074 74.9518 88.3078 74.9495C87.9089 74.9441 87.5204 74.8163 87.1911 74.5822C87.01 74.4454 86.8523 74.278 86.7245 74.0868C87.1794 73.4946 87.7443 73.0036 88.3855 72.6432C88.7899 72.8657 89.112 73.2213 89.3013 73.6543C89.3212 73.7026 89.3501 73.7464 89.3865 73.7829C89.4229 73.8194 89.4659 73.8479 89.5131 73.8668C89.5603 73.8856 89.6106 73.8945 89.6612 73.8927C89.7117 73.891 89.7614 73.8787 89.8073 73.8566C89.8531 73.8345 89.8943 73.8031 89.9282 73.7641C89.9622 73.7252 89.9883 73.6796 90.005 73.63C90.0217 73.5803 90.0286 73.5277 90.0254 73.4753C90.0221 73.4228 90.0088 73.3716 89.9861 73.3246C89.8075 72.8983 89.5245 72.528 89.1654 72.2507C90.0156 71.9116 91.4886 71.6518 94.2496 70.5308C94.9724 70.8914 95.7205 71.1945 96.4874 71.4375C98.1484 71.9501 100.036 72.5325 102.338 71.9085C103.911 71.4658 105.336 70.5828 106.459 69.3556C106.496 69.3187 106.524 69.2746 106.544 69.226C106.563 69.1774 106.573 69.1252 106.572 69.0726C106.572 69.0199 106.561 68.9679 106.541 68.9196C106.521 68.8713 106.492 68.8277 106.455 68.7914C106.418 68.7551 106.375 68.7269 106.328 68.7084C106.28 68.6898 106.23 68.6814 106.179 68.6836C106.129 68.6858 106.079 68.6985 106.033 68.721C105.987 68.7436 105.947 68.7754 105.913 68.8148C104.886 69.9368 103.582 70.7443 102.144 71.1494C100.047 71.7169 98.27 71.1674 96.7034 70.6784C95.0695 70.1681 93.5314 69.3717 92.1552 68.3234C92.5682 67.4708 92.6753 66.493 92.4572 65.5657C92.4298 65.4683 92.3671 65.3858 92.2824 65.3354C92.1976 65.2851 92.0975 65.2708 92.0028 65.2956C91.9082 65.3203 91.8265 65.3823 91.7748 65.4683C91.7231 65.5544 91.7055 65.6579 91.7256 65.7572C91.9135 66.5504 91.8056 67.3881 91.4236 68.102C88.2193 68.7327 84.9231 68.6543 81.7498 67.872C81.8616 67.1759 81.924 66.4722 81.9363 65.7666C81.9363 65.6625 81.8965 65.5627 81.8258 65.4891C81.755 65.4155 81.6589 65.3741 81.5588 65.3741C81.4587 65.3741 81.3627 65.4155 81.2919 65.4891C81.2211 65.5627 81.1813 65.6625 81.1813 65.7666C81.1663 66.4789 81.1012 67.1892 80.9865 67.8916C78.6611 68.8022 75.2893 69.5644 72.042 68.2794C70.9216 67.8359 69.047 67.094 68.4686 65.3372C68.3857 65.0566 68.335 64.7667 68.3176 64.4737C69.2183 64.9 70.5343 64.6174 72.0428 64.4737C73.3867 64.3505 74.4482 64.2523 75.2968 63.4053C75.6256 62.9499 75.9087 62.4606 76.1417 61.9452C79.2458 62.1282 82.3596 61.9005 85.4086 61.2678C87.2472 60.8862 89.1102 60.6446 90.9827 60.5448C91.056 61.0938 91.2993 61.6031 91.6758 61.9955C91.7484 62.0604 91.842 62.0943 91.9376 62.0901C92.0333 62.086 92.1239 62.0443 92.1911 61.9733C92.2582 61.9024 92.297 61.8076 92.2994 61.7081C92.3019 61.6085 92.2679 61.5118 92.2043 61.4373C91.9565 61.1817 91.7907 60.8527 91.7294 60.4953C92.643 60.4177 93.561 60.4122 94.4754 60.4789C94.5008 60.6399 94.517 60.8025 94.5237 60.9656C94.5248 61.2311 94.4995 61.496 94.4482 61.756C94.4345 61.8551 94.4578 61.9558 94.5132 62.0377C94.5686 62.1195 94.6519 62.1762 94.7462 62.1963C94.8405 62.2163 94.9386 62.1982 95.0205 62.1455C95.1023 62.0929 95.1617 62.0097 95.1866 61.913C95.278 61.464 95.3022 61.003 95.2583 60.5464C98.1983 60.8918 99.5255 61.9594 104.484 63.2209C109.06 64.3842 109.92 64.5954 112.404 64.5844C113.521 64.4729 114.647 64.6737 115.664 65.1661C116.722 65.9098 117.636 66.8526 118.361 67.9458C119.363 69.3087 120.228 70.7762 120.94 72.3245C122.859 76.6351 124.994 80.8384 127.336 84.9175C128.635 87.1221 130.082 89.229 131.665 91.2226C131.266 99.2008 131.305 107.196 131.783 115.17C129.002 114.985 126.226 114.7 123.51 114.321L123.511 114.32ZM132.928 120.676C132.035 110.212 131.902 99.694 132.53 89.2099C133.84 89.2296 135.147 89.354 136.438 89.5819C136.37 101.059 136.623 111.616 137.095 121.52C135.686 121.362 134.292 121.079 132.928 120.676Z" fill="black"/>
<path d="M117.626 122.276C117.623 122.189 117.593 122.105 117.539 122.038C117.486 121.971 117.413 121.924 117.331 121.905L110.97 120.431L108.224 113.65C108.194 113.575 108.142 113.511 108.076 113.468C108.01 113.425 107.932 113.405 107.854 113.411C100.472 113.929 100.908 113.818 100.813 113.866L93.899 117.279L89.7118 116.421C89.6152 116.398 90.0432 116.343 82.8217 117.66C82.6563 117.69 82.5197 117.829 82.5091 118.131C82.5 118.391 82.4804 119.3 82.3951 122.961L74.8157 126.7C74.7391 126.738 74.6771 126.801 74.6396 126.88C74.6021 126.959 74.5912 127.049 74.6088 127.136L76.2698 135.309C76.2865 135.395 76.3303 135.472 76.3942 135.529C76.458 135.586 76.5384 135.619 76.6224 135.623C81.2082 135.835 82.6269 135.915 83.092 135.926C83.1831 135.937 83.2755 135.928 83.3632 135.9C83.451 135.872 83.5324 135.826 83.6023 135.764L95.8417 129.192L111.981 132.682C112.073 132.701 112.199 132.685 112.689 132.446C113.28 132.158 114.467 131.521 117.638 129.927C117.703 129.894 117.758 129.841 117.796 129.776C117.834 129.711 117.852 129.636 117.85 129.56L117.626 122.276ZM89.6348 117.205L92.7545 117.844L90.0183 119.195L84.8843 118.078L89.6348 117.205ZM76.6488 126.662L101.065 114.609L105.991 114.309L81.3373 126.662H76.6488ZM83.4506 134.956L81.8553 127.274L107.676 114.335L110.209 120.588L83.4506 134.956ZM111.804 123.958C111.653 123.884 112.432 124.065 107.411 122.974L110.745 121.184L116.084 122.422L111.804 123.958ZM112.403 131.683L112.051 124.697L116.888 122.96L117.086 129.324L112.403 131.683Z" fill="black"/>
<path d="M77.3693 76.7197C77.3667 76.6354 77.3381 76.5543 77.2876 76.4882C77.2372 76.4222 77.1676 76.3748 77.0892 76.3531L70.9081 74.6355V68.0415C70.9081 67.9374 70.8683 67.8376 70.7975 67.764C70.7267 67.6904 70.6307 67.649 70.5306 67.649C70.4304 67.649 70.3344 67.6904 70.2636 67.764C70.1928 67.8376 70.1531 67.9374 70.1531 68.0415V68.3979L48.1154 64.5962L48.3373 56.5986C73.0258 62.9092 71.7959 62.6023 71.8722 62.6023C71.9802 62.6023 71.6457 62.7318 76.3335 60.6806C76.6763 60.5307 76.5638 61.1767 76.5638 44.5331C76.5638 44.453 76.5402 44.3747 76.4962 44.3089C76.4522 44.2431 76.3899 44.1929 76.3176 44.165L70.4467 41.9081V39.298C70.4483 39.2135 70.4231 39.1308 70.3751 39.0626C70.3271 38.9944 70.2589 38.9444 70.181 38.9204C47.2237 31.8428 48.9564 32.3915 48.8454 32.3813C48.6824 32.368 49.4192 32.2377 37.5204 34.7897C37.4353 34.8078 37.3588 34.8559 37.3038 34.9258C37.2487 34.9957 37.2186 35.0832 37.2184 35.1736V41.6106L28.7322 43.9099C28.6459 43.9294 28.5676 43.9763 28.508 44.0441C28.4483 44.1118 28.4104 44.1971 28.3993 44.2882C28.348 94.1396 28.3653 90.8128 28.4612 90.9109C28.4953 90.9501 28.5377 90.9807 28.5849 91.0003C28.6321 91.0199 28.683 91.028 28.7338 91.024L37.2094 90.8552L37.7719 99.2155C37.7786 99.3147 37.8213 99.4076 37.8914 99.4754C37.9614 99.5432 38.0537 99.5807 38.1494 99.5805H46.8266V104.751L30.1524 105.264C30.1019 105.265 30.0522 105.277 30.0062 105.299C29.9603 105.321 29.919 105.352 29.8848 105.391C29.8507 105.43 29.8244 105.475 29.8074 105.525C29.7905 105.574 29.7833 105.627 29.7862 105.679L30.2196 113.287C14.7904 115.956 15.9403 115.721 15.8104 115.844C15.7649 115.882 15.7306 115.933 15.7115 115.99C15.664 116.113 15.6783 115.699 15.6783 124.306C15.6782 124.387 15.7019 124.465 15.7462 124.531C15.7905 124.597 15.8533 124.648 15.9259 124.675C21.7221 126.879 22.0233 127.004 22.126 127.004C22.2015 127.004 21.5122 127.121 39.6639 123.819L39.8647 125.992C39.8731 126.085 39.913 126.171 39.9771 126.236C40.0413 126.301 40.1256 126.34 40.215 126.347L49.5597 127.004C49.6352 127.004 48.819 127.097 71.3135 124.075C71.4073 124.062 71.4931 124.013 71.5539 123.938C71.6147 123.863 71.6461 123.766 71.6419 123.668L71.4554 119.446L78.3916 118.437C78.4838 118.423 78.5679 118.375 78.6278 118.301C78.6877 118.227 78.7192 118.133 78.7163 118.036L77.3693 76.7197ZM63.7144 55.717L58.0655 53.8197L58.2852 46.6322L64.1402 48.3035L63.7144 55.717ZM62.5449 56.1488L55.8005 57.6976L49.716 56.1433L57.6548 54.5074L62.5449 56.1488ZM71.8412 61.8008L65.8012 60.2567L69.8964 58.6215L75.1059 60.3705L71.8412 61.8008ZM75.8088 59.7841L70.2859 57.9245L70.8711 50.2252L75.8088 51.6382V59.7841ZM75.8088 44.811V50.8249L58.3101 45.826L58.5442 38.1778L75.8088 44.811ZM49.1769 33.2857L69.6917 39.5892V41.6192C57.7628 37.038 58.3079 37.2122 58.1402 37.2334C58.0647 37.2279 58.3328 37.1965 49.0327 38.7626L49.1769 33.2857ZM22.157 117.8L17.6345 116.259L30.2641 114.075L30.3955 116.383L22.157 117.8ZM22.5035 126.144V118.536L30.4408 117.17L30.5661 119.377C30.5715 119.471 30.6089 119.559 30.6714 119.627C30.734 119.694 30.8177 119.736 30.9074 119.745L39.3634 120.579L39.5899 123.035L22.5035 126.144ZM77.7416 111.295L73.8654 111.662L73.6578 105.977L77.5724 106.116L77.7416 111.295ZM77.3754 100.083L77.5468 105.329L59.0002 104.674L58.9066 98.9745L77.3754 100.083ZM65.577 112.448L59.1391 113.059L59.0138 105.461L65.5023 105.689L65.577 112.448ZM77.3497 99.2947L58.8937 98.1855L58.7337 88.5049L77.1187 92.2054L77.3497 99.2947ZM70.9081 75.4496L76.6242 77.0368L76.8627 84.3546L70.9081 82.8317V75.4496ZM76.8892 85.1702L77.0923 91.4023L58.7208 87.7042L58.6016 80.4916L76.8892 85.1702ZM58.5887 79.6799L58.4604 71.9084L63.7582 73.4039L63.5317 80.9399L58.5887 79.6799ZM47.8934 72.5749L48.0935 65.3875L70.1531 69.19V74.568L64.4672 74.9189C64.5223 73.1134 64.5426 73.0742 64.486 72.9494C64.4436 72.8556 64.3678 72.7827 64.2746 72.746C64.1561 72.7021 64.2905 72.746 58.178 71.019C58.0564 70.9845 58.6959 70.9052 47.8934 72.5749ZM49.9847 126.157L50.5034 121.066C58.9806 121.27 58.8152 121.256 58.8915 121.27C58.967 121.27 58.5004 121.33 70.705 119.556L70.8718 123.342L49.9847 126.157ZM59.2607 120.427L59.1519 113.845L77.7672 112.08L77.9507 117.708L59.2607 120.427Z" fill="black"/>
<path d="M80.2506 104.269C80.2015 104.269 80.1527 104.26 80.1071 104.241C80.0614 104.222 80.0199 104.194 79.9848 104.158C79.9497 104.123 79.9217 104.08 79.9025 104.033C79.8834 103.986 79.8733 103.936 79.8731 103.885C79.8726 103.78 79.912 103.679 79.9827 103.604C80.0533 103.529 80.1495 103.485 80.2506 103.484H94.4234C94.4725 103.483 94.5212 103.492 94.5668 103.511C94.6124 103.529 94.654 103.557 94.6891 103.593C94.7242 103.629 94.7522 103.671 94.7714 103.718C94.7906 103.765 94.8006 103.816 94.8009 103.867C94.8015 103.972 94.7622 104.073 94.6916 104.148C94.6209 104.223 94.5245 104.267 94.4234 104.269H80.2506Z" fill="black"/>
<path d="M44.5125 104.276H41.0259C40.9258 104.276 40.8298 104.235 40.759 104.161C40.6882 104.088 40.6484 103.988 40.6484 103.884C40.6484 103.78 40.6882 103.68 40.759 103.606C40.8298 103.533 40.9258 103.491 41.0259 103.491H44.5125C44.6126 103.491 44.7087 103.533 44.7795 103.606C44.8503 103.68 44.89 103.78 44.89 103.884C44.89 103.988 44.8503 104.088 44.7795 104.161C44.7087 104.235 44.6126 104.276 44.5125 104.276Z" fill="black"/>
<path d="M39.1923 104.276H15.5782C15.4781 104.276 15.382 104.235 15.3113 104.161C15.2405 104.088 15.2007 103.988 15.2007 103.884C15.2007 103.78 15.2405 103.68 15.3113 103.606C15.382 103.533 15.4781 103.491 15.5782 103.491H39.1923C39.2924 103.491 39.3885 103.533 39.4593 103.606C39.53 103.68 39.5698 103.78 39.5698 103.884C39.5698 103.988 39.53 104.088 39.4593 104.161C39.3885 104.235 39.2924 104.276 39.1923 104.276Z" fill="black"/>
<path d="M22.3887 45.5819C22.3132 45.5819 22.6431 45.6227 4.01271 43.7081C3.96332 43.7031 3.91537 43.688 3.87159 43.6637C3.82781 43.6394 3.78907 43.6064 3.75759 43.5665C3.7261 43.5266 3.70249 43.4807 3.6881 43.4313C3.67371 43.3819 3.66882 43.3301 3.67372 43.2787C3.68496 43.1757 3.73437 43.0812 3.81147 43.0154C3.88857 42.9496 3.9873 42.9176 4.0867 42.9262L22.4249 44.7985C22.525 44.8035 22.6191 44.8496 22.6865 44.9268C22.7539 45.0039 22.7891 45.1057 22.7843 45.2098C22.7795 45.3139 22.7351 45.4118 22.6609 45.4818C22.5867 45.5519 22.4888 45.5885 22.3887 45.5835V45.5819Z" fill="black"/>
<path d="M24.4118 39.3812C24.3156 39.3814 24.223 39.3435 24.1528 39.2752L7.08677 22.5492C7.01711 22.4771 6.97724 22.3796 6.97564 22.2775C6.97403 22.1753 7.01081 22.0765 7.07816 22.0021C7.14551 21.9277 7.23811 21.8835 7.3363 21.8789C7.43448 21.8744 7.5305 21.9098 7.60394 21.9777L24.6707 38.7029C24.7258 38.7569 24.764 38.8267 24.7804 38.9035C24.7968 38.9803 24.7907 39.0604 24.7628 39.1335C24.7349 39.2066 24.6865 39.2693 24.6239 39.3135C24.5613 39.3576 24.4874 39.3812 24.4118 39.3812Z" fill="black"/>
<path d="M29.9246 35.9892C29.8378 35.9889 29.7538 35.9574 29.6867 35.9003C29.6196 35.8431 29.5735 35.7636 29.5561 35.6752L26.8079 22.2862C26.7952 22.235 26.7925 22.1816 26.8001 22.1292C26.8078 22.0769 26.8255 22.0267 26.8523 21.9816C26.879 21.9366 26.9143 21.8977 26.9559 21.8672C26.9975 21.8367 27.0446 21.8152 27.0944 21.8042C27.1442 21.7931 27.1957 21.7926 27.2456 21.8027C27.2956 21.8129 27.3431 21.8334 27.3852 21.8631C27.4274 21.8928 27.4633 21.9311 27.4909 21.9756C27.5184 22.0201 27.537 22.07 27.5456 22.1222L30.2945 35.5111C30.3069 35.5687 30.3066 35.6283 30.2937 35.6858C30.2809 35.7432 30.2557 35.7968 30.2202 35.8428C30.1847 35.8887 30.1396 35.9257 30.0885 35.951C30.0373 35.9764 29.9813 35.9894 29.9246 35.9892Z" fill="black"/>
<path d="M28.8092 52.906C28.8847 52.906 27.4072 53.2003 58.0013 46.5059C58.0498 46.4952 58.0958 46.4747 58.1367 46.4455C58.1777 46.4163 58.2126 46.3791 58.2397 46.3359C58.2668 46.2926 58.2854 46.2443 58.2945 46.1936C58.3036 46.1429 58.303 46.0908 58.2927 46.0403C58.2824 45.9899 58.2627 45.942 58.2347 45.8995C58.2066 45.8569 58.1708 45.8206 58.1292 45.7924C58.0876 45.7643 58.0411 45.7449 57.9924 45.7355C57.9436 45.726 57.8935 45.7267 57.845 45.7373L48.7457 47.7352L49.1066 39.232C49.1093 39.1715 49.0985 39.1111 49.0749 39.0556C49.0514 39.0001 49.0158 38.951 48.971 38.9122C48.9261 38.8734 48.8732 38.846 48.8165 38.832C48.7597 38.818 48.7006 38.8179 48.6438 38.8317L37.5091 41.5321C37.4269 41.5521 37.3535 41.6002 37.3007 41.6686C37.2479 41.737 37.2186 41.8219 37.2176 41.9097L37.1187 50.288L28.7314 52.1296C28.6405 52.1497 28.5599 52.2041 28.5051 52.2822C28.4503 52.3603 28.4252 52.4568 28.4345 52.553C28.4439 52.6492 28.4871 52.7384 28.5558 52.8035C28.6245 52.8687 28.7139 52.9051 28.8069 52.906H28.8092ZM37.9689 42.23L48.3305 39.718L47.9824 47.9102L37.8737 50.1216L37.9689 42.23Z" fill="#81F8F8"/>
<path d="M28.7494 67.7103C28.6563 67.7266 28.5725 67.7786 28.5145 67.856C28.4565 67.9334 28.4284 68.0306 28.4359 68.1284C28.4434 68.2262 28.4859 68.3176 28.5549 68.3845C28.624 68.4514 28.7146 68.4889 28.809 68.4898C28.8845 68.4898 28.6391 68.5235 36.7984 67.1553L36.5191 74.5201L28.7479 75.8546C28.6547 75.871 28.5708 75.9231 28.5128 76.0007C28.4548 76.0783 28.4268 76.1756 28.4345 76.2735C28.4422 76.3715 28.4849 76.4629 28.5543 76.5296C28.6236 76.5964 28.7145 76.6337 28.809 76.6341C28.8845 76.6341 28.1522 76.7487 47.5647 73.4156C47.6635 73.3987 47.7518 73.3416 47.8102 73.2569C47.8685 73.1723 47.8921 73.067 47.8758 72.9643C47.8595 72.8615 47.8046 72.7697 47.7231 72.7091C47.6417 72.6484 47.5405 72.6239 47.4417 72.6408L37.2794 74.3875L37.5587 67.0257L47.7874 65.3113C47.8862 65.2947 47.9747 65.238 48.0333 65.1537C48.0919 65.0693 48.1159 64.9642 48.1 64.8615C48.0927 64.8104 48.0756 64.7612 48.0498 64.7171C48.0239 64.6729 47.9898 64.6345 47.9495 64.6043C47.9092 64.574 47.8635 64.5524 47.815 64.5408C47.7666 64.5291 47.7164 64.5277 47.6674 64.5365L37.5889 66.229L37.8728 58.7259L48.0517 56.4855C48.1496 56.464 48.2353 56.403 48.2899 56.3159C48.3445 56.2288 48.3637 56.1226 48.3431 56.0208C48.3214 55.9195 48.2623 55.8311 48.1787 55.7744C48.095 55.7178 47.9933 55.6975 47.8954 55.7178L28.7312 59.9348C28.6332 59.9564 28.5475 60.0175 28.4928 60.1048C28.4382 60.1921 28.4191 60.2984 28.4398 60.4003C28.4605 60.5023 28.5194 60.5914 28.6033 60.6483C28.6873 60.7051 28.7895 60.7249 28.8875 60.7033L37.111 58.8931L36.8286 66.3561L28.7494 67.7103Z" fill="#81F8F8"/>
<path d="M58.5916 79.9539C58.5812 79.8509 58.5327 79.7561 58.4564 79.6895C58.38 79.623 58.2817 79.59 58.1823 79.5975L28.6928 82.3128C28.5927 82.3174 28.4984 82.3632 28.4307 82.44C28.3631 82.5168 28.3275 82.6185 28.3319 82.7226C28.3363 82.8267 28.3803 82.9247 28.4542 82.9951C28.5281 83.0654 28.6259 83.1024 28.726 83.0978C28.8015 83.0978 31.7694 82.8207 58.2465 80.3809C58.2962 80.3767 58.3446 80.3623 58.3889 80.3384C58.4333 80.3146 58.4726 80.2819 58.5047 80.2422C58.5368 80.2025 58.561 80.1566 58.5759 80.1071C58.5908 80.0576 58.5961 80.0055 58.5916 79.9539Z" fill="#81F8F8"/>
<path d="M58.3905 88.4193C58.49 88.4078 58.581 88.3556 58.6435 88.2743C58.706 88.1929 58.7349 88.0891 58.7238 87.9856C58.7127 87.8822 58.6625 87.7875 58.5843 87.7225C58.5061 87.6575 58.4062 87.6275 58.3067 87.6391L37.5193 90.0655C37.4197 90.077 37.3287 90.1292 37.2662 90.2106C37.2037 90.2919 37.1748 90.3957 37.1859 90.4992C37.197 90.6027 37.2472 90.6973 37.3255 90.7623C37.4037 90.8273 37.5035 90.8573 37.6031 90.8458L47.4271 89.6989L46.8412 99.1629C46.8379 99.2165 46.8453 99.2702 46.8627 99.3208C46.8802 99.3713 46.9075 99.4176 46.9429 99.4568C46.9783 99.4959 47.021 99.5271 47.0685 99.5484C47.1159 99.5697 47.1671 99.5806 47.2187 99.5805L58.5437 98.9525C58.6436 98.947 58.7374 98.9005 58.8043 98.8232C58.8713 98.746 58.906 98.6442 58.9009 98.5403C58.8994 98.4885 58.8878 98.4374 58.8668 98.3903C58.8458 98.3432 58.8158 98.3011 58.7787 98.2664C58.7416 98.2317 58.6981 98.2051 58.6508 98.1884C58.6035 98.1717 58.5535 98.1651 58.5037 98.169L47.6242 98.7751L48.1919 89.6125L58.3905 88.4193Z" fill="#81F8F8"/>
<path d="M58.6276 104.701H47.1886C47.0844 104.71 46.9874 104.76 46.9173 104.84C46.8472 104.921 46.8092 105.026 46.8111 105.135C46.8122 105.185 46.8229 105.233 46.8428 105.278C46.8627 105.323 46.8912 105.363 46.9266 105.396C46.962 105.429 47.0035 105.454 47.0486 105.469C47.0937 105.485 47.1413 105.49 47.1886 105.486H58.6269C58.7309 105.477 58.8278 105.427 58.8979 105.347C58.968 105.266 59.0061 105.161 59.0044 105.053C59.0033 105.003 58.9925 104.955 58.9727 104.91C58.9529 104.865 58.9245 104.825 58.8892 104.792C58.8539 104.759 58.8124 104.734 58.7675 104.718C58.7225 104.703 58.6749 104.697 58.6276 104.701Z" fill="#81F8F8"/>
<path d="M58.7709 113.096L30.6177 112.799C30.5176 112.799 30.4213 112.839 30.3502 112.913C30.279 112.986 30.2388 113.086 30.2383 113.19C30.2378 113.294 30.2771 113.394 30.3475 113.468C30.418 113.542 30.5138 113.584 30.6139 113.584L39.3326 113.676V120.219C39.3326 120.32 39.3703 120.418 39.4378 120.491C39.5054 120.564 39.5976 120.607 39.695 120.611L50.1646 121.057C50.2163 121.057 50.2674 121.046 50.3149 121.025C50.3623 121.004 50.4051 120.973 50.4405 120.934C50.4759 120.894 50.5031 120.848 50.5206 120.798C50.5381 120.747 50.5454 120.693 50.5421 120.64L50.1178 113.79L58.7678 113.881C58.868 113.881 58.964 113.839 59.0348 113.766C59.1056 113.692 59.1453 113.592 59.1453 113.488C59.1453 113.384 59.1056 113.284 59.0348 113.211C58.964 113.137 58.868 113.096 58.7678 113.096H58.7709ZM49.7607 120.255L40.0876 119.842V113.684L49.3598 113.782L49.7607 120.255Z" fill="#81F8F8"/>
</svg>
