<svg width="700" height="550" viewBox="0 0 700 550" fill="none" xmlns="http://www.w3.org/2000/svg">
<path d="M270.232 408.511L267.388 353.81C266.504 348.969 265.713 344.129 264.876 339.288L262.511 324.748C260.937 315.048 259.483 305.339 258.02 295.621C256.593 285.903 255.176 276.185 253.86 266.458L251.891 251.853C251.32 247.206 250.704 242.568 250.17 237.92C249.7 237.782 249.24 237.644 248.78 237.488L248.762 237.635L248.642 238.997C248.559 239.899 248.532 240.81 248.495 241.721C248.394 243.534 248.366 245.356 248.311 247.178C248.246 250.813 248.219 254.458 248.21 258.102C248.164 265.381 248.173 272.667 248.237 279.958C248.32 294.526 248.394 309.094 248.559 323.662L248.863 367.384L248.973 389.24V411.097C266.348 409.542 270.232 408.511 270.232 408.511ZM300.37 255.203C299.204 253.597 298.272 251.834 297.6 249.967C296.883 248.126 296.266 246.249 295.705 244.353C294.582 240.571 293.689 236.733 292.879 232.887C292.088 229.021 291.379 225.156 290.809 221.263C290.211 217.371 289.747 213.463 289.419 209.539C289.419 209.539 282.591 205.518 280.695 203.622C279.361 202.288 276.922 202.14 275.588 202.177C275.19 202.199 274.793 202.134 274.423 201.988C274.053 201.842 273.719 201.618 273.443 201.33C273.281 201.194 273.155 201.019 273.078 200.821C273 200.624 272.973 200.41 273 200.199C273.027 199.989 273.105 199.788 273.23 199.616C273.354 199.444 273.519 199.306 273.71 199.214C274.222 198.853 274.843 198.68 275.468 198.726C277.097 198.818 280.704 199.131 282.407 200.244C281.828 199.777 281.216 199.353 280.575 198.974C260.974 194.125 228.755 197.741 228.755 197.741C228.755 197.741 228.175 201.984 227.301 209.742C228.185 208.111 229.165 206.535 230.237 205.021C230.761 204.275 231.286 203.53 231.829 202.794C232.379 202.03 232.969 201.296 233.596 200.594C233.47 201.549 233.203 202.479 232.804 203.355C232.428 204.227 231.966 205.059 231.424 205.84C230.885 206.621 230.271 207.348 229.593 208.012C228.917 208.697 228.145 209.28 227.301 209.742C223.997 238.785 216.396 317.101 218.65 405.916C228.136 410.249 238.587 412.035 248.973 411.097C248.688 403.818 248.504 396.529 248.274 389.25L247.768 367.393C247.455 352.826 247.299 338.248 247.124 323.68C247.059 309.103 246.986 294.526 247.124 279.949C247.206 272.661 247.317 265.381 247.51 258.093C247.62 254.448 247.762 250.804 247.933 247.16C248.044 245.347 248.117 243.525 248.274 241.703C248.348 240.792 248.412 239.89 248.541 238.979L248.706 237.626L248.734 237.469C248.32 237.332 247.906 237.193 247.492 237.046C246.259 236.577 245.035 236.089 243.838 235.518C242.625 234.966 241.453 234.326 240.332 233.604C241.65 233.806 242.954 234.095 244.234 234.469C245.504 234.828 246.746 235.261 247.989 235.693C249.213 236.163 250.437 236.641 251.642 237.184C252.848 237.718 254.026 238.307 255.204 238.96C253.869 238.857 252.549 238.617 251.265 238.242C250.906 238.15 250.556 238.04 250.207 237.939C251.035 242.531 251.789 247.142 252.59 251.743L254.955 266.283C256.529 275.983 257.983 285.692 259.446 295.41C260.863 305.128 262.29 314.846 263.606 324.582L265.566 339.187C266.173 344.055 266.827 348.923 267.388 353.81L276.462 407.986C276.462 407.986 305.754 414.474 325.199 408.244C325.199 408.244 308.506 315.518 300.37 255.203ZM247.878 214.453C247.768 216.561 247.639 218.659 247.418 220.757C247.216 222.855 246.958 224.954 246.562 227.034C246.36 224.917 246.305 222.809 246.295 220.702C246.286 218.595 246.36 216.487 246.443 214.389C246.562 212.282 246.691 210.184 246.903 208.085C247.114 205.987 247.372 203.898 247.768 201.809C247.961 203.925 248.016 206.033 248.025 208.14C248.035 210.248 247.97 212.355 247.878 214.453ZM247.768 200.64C247.488 200.63 247.223 200.511 247.029 200.31C246.834 200.108 246.726 199.839 246.726 199.559C246.726 199.279 246.834 199.01 247.029 198.808C247.223 198.606 247.488 198.488 247.768 198.478C248.048 198.488 248.313 198.606 248.507 198.808C248.701 199.01 248.81 199.279 248.81 199.559C248.81 199.839 248.701 200.108 248.507 200.31C248.313 200.511 248.048 200.63 247.768 200.64ZM285.858 217.803C284.85 217.61 283.854 217.358 282.876 217.049C280.896 216.39 279.046 215.39 277.41 214.095C275.798 212.742 274.49 211.064 273.572 209.171C272.64 207.32 272.206 205.259 272.311 203.189C272.756 205.119 273.514 206.963 274.557 208.647C275.578 210.284 276.851 211.75 278.33 212.99C279.079 213.597 279.873 214.148 280.704 214.638C281.531 215.149 282.392 215.604 283.281 216C283.723 216.216 284.178 216.407 284.643 216.57L286.033 217.113C286.98 217.417 287.938 217.693 288.904 218.052C287.892 218.006 286.879 217.923 285.858 217.803ZM296.027 211.711C296.008 210.303 296.036 209.088 296.119 208.076L294.683 209.005C293.037 209.764 291.184 209.952 289.419 209.539C290.294 213.377 291.122 217.217 291.904 221.061L294.287 232.592C295.07 236.429 295.904 240.255 296.791 244.068C297.251 245.964 297.72 247.868 298.263 249.746C298.749 251.641 299.456 253.473 300.37 255.203C297.803 236.163 296.091 220.352 296.027 211.711H296.027Z" fill="black"/>
<path d="M293.367 196.131C293.259 193.211 292.03 190.446 289.935 188.41C286.493 186.477 288.849 191.98 288.978 192.293C288.932 192.247 288.738 192.045 288.416 191.76C288.214 190.756 288.03 189.698 287.855 188.612L287.827 188.447C287.33 185.318 286.907 181.894 286.566 178.314C286.568 178.28 286.565 178.246 286.557 178.213C286.249 171.419 287.042 164.619 288.904 158.078C290.266 152.814 293.312 152.639 293.312 152.639L311.718 173.115L294.085 193.858C293.619 194.524 293.369 195.318 293.367 196.131Z" fill="black"/>
<path d="M508.738 304.539C508.738 304.539 494.225 342.656 467.262 337.475C464.52 336.96 461.726 336.784 458.942 336.951C453.467 333.914 448.055 330.794 442.635 327.693C437.224 324.564 431.859 321.389 426.576 318.067C421.266 314.791 416.067 311.349 411.042 307.686C409.781 306.766 408.502 305.873 407.306 304.879C406.1 303.904 404.84 302.984 403.671 301.962L400.155 298.87C399.088 297.747 397.996 296.631 396.879 295.52C400.524 300.655 405.281 304.898 410.168 308.827C411.392 309.812 412.616 310.806 413.904 311.708L417.723 314.469C420.328 316.226 422.932 317.975 425.601 319.631C430.938 322.935 436.377 326.064 441.945 328.944C447.503 331.853 453.154 334.549 458.942 336.951C434.077 338.34 407.84 364.034 405.042 369.621C401.932 375.841 340.227 309.481 326.092 267.645C321.905 255.259 310.944 233.706 296.211 212.024C296.141 211.925 296.079 211.82 296.027 211.711C295.714 211.159 295.226 210.156 294.683 209.005L296.119 208.076C297 207.359 297.713 206.458 298.208 205.435C298.686 205.978 299.008 206.3 299.008 206.3C299.008 206.3 324.417 187.637 330.123 180.891C335.828 174.155 330.123 167.409 330.123 167.409C330.123 167.409 313.273 141.228 304.714 132.678C301.963 130.095 298.574 128.291 294.895 127.451C314.478 131.261 360.565 147.246 409.192 214.426C473.483 303.26 508.738 304.539 508.738 304.539Z" fill="black"/>
<path d="M211.896 463.515C212.558 463.488 213.221 463.47 213.874 463.414C205.389 464.279 195.009 463.129 191.898 453.402C192.619 452.15 193.571 451.048 194.705 450.153C194.925 449.948 195.186 449.792 195.47 449.695C195.755 449.597 196.057 449.561 196.356 449.588C196.656 449.615 196.946 449.704 197.209 449.851C197.471 449.997 197.7 450.198 197.88 450.438C198.746 451.532 199.464 452.736 200.015 454.018C200.668 455.325 201.331 456.659 202.095 457.985C202.887 459.367 203.933 460.588 205.178 461.583C206.481 462.53 208.005 463.128 209.604 463.322C210.363 463.436 211.128 463.501 211.896 463.515Z" fill="black"/>
<path d="M259.418 437.49C258.59 436.404 257.845 434.453 257.67 430.938C257.228 422.168 250.841 427.082 250.841 427.082C239.973 432.834 236.991 423.925 236.182 422.518C235.372 421.119 228.589 420.327 225.893 424.524C224.913 425.869 223.701 427.029 222.313 427.947C223.536 428.096 224.73 428.424 225.856 428.923C226.99 429.396 228.068 429.994 229.068 430.708C230.1 431.423 231.008 432.303 231.755 433.312C232.594 434.303 233.022 435.577 232.951 436.873C232.366 435.874 231.602 434.991 230.697 434.269C229.841 433.542 228.93 432.861 227.991 432.199L225.157 430.174C224.2 429.484 223.252 428.775 222.313 427.956C220.225 429.411 218.032 430.71 215.752 431.84C216.956 431.834 218.15 432.075 219.258 432.548C220.376 433.004 221.416 433.631 222.341 434.407C223.282 435.181 224.072 436.124 224.669 437.187C225.285 438.232 225.648 439.408 225.727 440.619C224.917 439.708 224.292 438.816 223.5 438.033C222.766 437.245 221.982 436.504 221.153 435.815C219.506 434.407 217.702 433.211 215.752 431.84C214.021 432.714 212.779 433.257 212.779 433.257C211.371 433.699 210.055 434.159 208.831 434.619C210.042 434.905 211.201 435.38 212.264 436.027C213.343 436.653 214.339 437.414 215.227 438.291C216.146 439.175 216.906 440.212 217.472 441.355C218.073 442.499 218.301 443.803 218.126 445.083C217.614 444.027 216.984 443.033 216.249 442.119C215.529 441.231 214.755 440.389 213.929 439.598C212.319 437.951 210.534 436.45 208.822 434.619C189.119 442.027 191.337 451.202 191.337 451.202C191.475 451.946 191.659 452.681 191.889 453.402C192.304 451.927 193.072 450.576 194.125 449.463C194.733 448.827 195.557 448.443 196.435 448.386C197.343 448.408 198.21 448.77 198.864 449.399C199.467 449.938 199.985 450.565 200.401 451.258C200.825 451.92 201.174 452.555 201.552 453.208C202.27 454.516 202.932 455.822 203.677 457.037C204.332 458.241 205.202 459.314 206.245 460.203C206.512 460.387 206.76 460.607 207.046 460.783L207.929 461.261C208.565 461.528 209.22 461.747 209.889 461.915C212.741 462.469 215.646 462.7 218.549 462.605C222.844 461.471 226.895 459.563 230.503 456.973C239.863 450.411 250.317 450.761 257.329 447.015C257.477 446.932 257.624 446.85 257.771 446.776C258.544 446.322 259.209 445.705 259.72 444.969C260.232 444.234 260.578 443.395 260.735 442.513C260.891 441.63 260.855 440.724 260.627 439.857C260.4 438.99 259.988 438.183 259.418 437.49ZM246.277 438.641C245.145 439.506 243.976 440.325 242.771 441.079C241.565 441.834 240.323 442.534 239.053 443.168C237.771 443.833 236.435 444.387 235.059 444.825C236.055 443.781 237.135 442.821 238.289 441.954C239.421 441.088 240.59 440.27 241.795 439.515C242.992 438.76 244.234 438.07 245.513 437.426C246.794 436.76 248.131 436.206 249.507 435.769C248.513 436.816 247.433 437.776 246.277 438.641Z" fill="black"/>
<path d="M213.874 463.414C214.095 463.396 214.316 463.368 214.537 463.35C214.408 463.359 214.288 463.378 214.16 463.396C214.067 463.405 213.966 463.414 213.874 463.414Z" fill="white"/>
<path d="M216.736 463.009C216.626 463.037 216.506 463.055 216.387 463.083C216.147 463.129 215.908 463.165 215.669 463.193C216.028 463.138 216.387 463.083 216.736 463.009Z" fill="white"/>
<path d="M236.183 422.522C236.261 420.624 236.403 418.768 236.45 416.908C236.527 415.045 236.438 413.18 236.183 411.333C236.945 413.095 237.283 415.011 237.169 416.927C237.126 418.831 236.793 420.718 236.183 422.522Z" fill="black"/>
<path d="M255.609 425.994C255.272 424.689 255.031 423.369 254.812 422.045C254.586 420.722 254.426 419.391 254.285 418.056C254.163 416.72 254.051 415.382 254.028 414.038C253.981 412.694 254.017 411.348 254.138 410.008L254.58 414.001L255.001 417.985C255.123 419.315 255.265 420.644 255.359 421.979C255.464 423.313 255.566 424.648 255.609 425.994Z" fill="black"/>
<path d="M246.029 93.6299C245.976 95.7627 245.721 97.8857 245.267 99.9705C245.008 100.978 244.842 102.006 244.772 103.044C244.707 104.095 244.713 105.15 244.789 106.201C244.435 105.182 244.239 104.114 244.21 103.035C244.178 101.952 244.297 100.869 244.564 99.8175C245.017 97.7585 245.434 95.6843 246.029 93.6299Z" fill="black"/>
<path d="M244.1 100.332C244.1 100.332 249.42 98.7599 251.509 102.092C251.509 102.092 253.85 101.624 254.948 102.754C256.098 101.941 257.477 101.517 258.885 101.543C260.292 101.569 261.655 102.044 262.774 102.898C262.774 102.898 263.109 108.477 258.691 108.673C258.691 108.673 254.191 107.781 254.86 103.639C254.86 103.639 254.058 102.091 251.421 102.975C251.421 102.975 249.516 108.011 246.303 106.352C243.091 104.693 244.1 100.332 244.1 100.332Z" fill="black"/>
<path d="M251.044 130.01C252.745 130.177 254.435 130.443 256.106 130.805C257.836 131.137 259.542 131.585 261.212 132.145L262.126 132.471L261.467 133.055C260.321 134.071 259.117 135.032 258.04 136.115C256.961 137.2 255.939 138.339 254.975 139.528L254.793 139.747L254.476 139.597C253.587 139.176 252.694 138.761 251.824 138.307L249.225 136.923C248.358 136.463 247.496 135.996 246.649 135.501C245.8 135.011 244.966 134.493 244.134 133.974L242.996 133.264L244.17 132.737C246.413 131.71 248.707 130.8 251.044 130.01ZM251.059 130.153C248.919 131.607 246.87 132.84 244.798 133.993L244.835 132.757C245.702 133.216 246.568 133.678 247.418 134.167C248.271 134.651 249.107 135.164 249.94 135.683L252.44 137.238C253.269 137.763 254.076 138.327 254.886 138.885L254.387 138.955C255.549 137.96 256.661 136.907 257.717 135.8C258.771 134.694 259.699 133.465 260.684 132.293L260.939 133.203C259.273 132.9 257.63 132.481 256.021 131.95C254.39 131.437 252.755 130.875 251.059 130.153Z" fill="black"/>
<path d="M261.076 132.674L254.681 139.241L259.473 144.599L269.86 136.756L261.076 132.674Z" fill="black"/>
<path d="M248.18 114.668C248.861 115.833 249.427 117.061 249.871 118.335C250.331 119.605 250.694 120.909 250.955 122.235C251.226 123.56 251.384 124.906 251.426 126.258C251.482 127.607 251.398 128.958 251.176 130.29C251.11 129.615 251.14 128.95 251.054 128.285C251.018 127.62 250.963 126.958 250.873 126.299C250.712 124.983 250.523 123.672 250.249 122.375C249.999 121.074 249.685 119.786 249.345 118.501C248.999 117.216 248.605 115.944 248.18 114.668Z" fill="black"/>
<path d="M265.9 114.92C265.972 116.033 266.103 117.129 266.252 118.212C266.396 119.29 266.623 120.354 266.931 121.397C267.213 122.432 267.644 123.421 268.21 124.333C268.801 125.246 269.582 126.019 270.5 126.601C269.41 126.243 268.453 125.567 267.753 124.66C267.059 123.746 266.545 122.708 266.241 121.601C265.923 120.516 265.74 119.396 265.694 118.266C265.631 117.147 265.7 116.024 265.9 114.92Z" fill="black"/>
<path d="M244.505 133.434C242.81 134.078 241.128 134.735 239.5 135.511C237.859 136.247 236.258 137.068 234.701 137.969C231.576 139.714 228.658 141.808 226.003 144.209C220.62 149.019 215.869 154.491 211.863 160.497C210.874 162.003 209.977 163.567 209.177 165.181C208.987 165.571 208.831 165.976 208.71 166.391C208.606 166.817 208.53 167.249 208.484 167.684C208.389 168.551 208.413 169.427 208.555 170.288C208.626 170.715 208.725 171.137 208.85 171.551C208.914 171.762 208.981 171.954 209.055 172.15L209.34 172.768L210.449 175.251C211.196 176.903 211.893 178.574 212.615 180.236C215.515 186.876 218.111 193.631 220.506 200.48L220.225 200.292C220.916 200.343 221.602 200.442 222.279 200.589L224.268 201.009L226.25 201.428C226.905 201.575 227.57 201.676 228.239 201.733V201.877C227.557 201.865 226.877 201.807 226.203 201.702L224.196 201.391L222.196 201.08C221.544 200.975 220.886 200.914 220.225 200.898L220.035 200.899L219.945 200.71C216.823 194.157 213.902 187.51 211.286 180.749C210.629 179.059 209.947 177.38 209.315 175.682L208.355 173.139L208.123 172.5C208.051 172.268 207.982 172.027 207.929 171.801C207.596 170.421 207.54 168.989 207.766 167.587C207.839 167.125 207.943 166.668 208.078 166.219C208.231 165.771 208.423 165.337 208.652 164.923C209.518 163.304 210.477 161.763 211.483 160.249C213.502 157.229 215.578 154.25 217.795 151.36C219.99 148.438 222.449 145.723 225.139 143.248C226.506 142.017 227.955 140.88 229.474 139.843C231.001 138.828 232.586 137.907 234.223 137.083C235.856 136.262 237.529 135.526 239.237 134.877C240.947 134.25 242.692 133.722 244.463 133.296L244.505 133.434Z" fill="black"/>
<path d="M238.679 141.762C238.013 146.464 237.222 151.14 236.389 155.806C235.541 160.47 234.679 165.13 233.61 169.751C232.58 174.379 231.535 179.008 230.824 183.695C230.434 186.032 230.109 188.38 229.831 190.73C229.692 191.905 229.566 193.082 229.466 194.255C229.344 195.396 229.299 196.543 229.33 197.689L228.741 197.168C233.075 196.969 237.407 196.866 241.741 196.762C246.075 196.65 250.412 196.629 254.748 196.676C259.085 196.723 263.422 196.857 267.759 197.077C269.926 197.21 272.093 197.363 274.256 197.583C275.338 197.698 276.418 197.839 277.493 198.02C278.588 198.142 279.655 198.451 280.645 198.934L280.565 199.053C280.081 198.836 279.566 198.695 279.039 198.636C278.509 198.553 277.975 198.488 277.438 198.443C276.365 198.344 275.286 198.3 274.207 198.254C272.05 198.159 269.888 198.131 267.725 198.122C263.401 198.067 259.073 198.119 254.746 198.15L228.772 198.319L228.196 198.323L228.183 197.798C228.181 196.573 228.287 195.35 228.5 194.143C228.673 192.962 228.88 191.791 229.082 190.62L230.352 183.614C231.236 178.954 231.907 174.257 232.628 169.566C233.313 164.869 234.254 160.219 235.237 155.58C236.238 150.943 237.306 146.321 238.537 141.733L238.679 141.762Z" fill="black"/>
<path d="M224.922 233.568C223.765 232.679 222.811 231.553 222.124 230.266C221.771 229.627 221.453 228.97 221.17 228.298L220.756 227.283L220.424 226.244C219.589 223.462 219.109 220.586 218.995 217.683C218.934 216.241 218.964 214.799 218.986 213.36C219.115 211.928 219.155 210.489 219.364 209.069C219.571 207.65 219.769 206.23 220.057 204.829C220.382 203.432 220.7 202.038 221.1 200.664C221.104 202.103 221.026 203.522 220.955 204.939L220.796 209.179L220.729 213.398C220.76 214.799 220.743 216.203 220.832 217.596L220.946 219.686C220.984 220.384 221.104 221.068 221.159 221.763C221.207 222.46 221.318 223.145 221.434 223.829C221.538 224.517 221.649 225.203 221.807 225.877C222.265 228.639 223.329 231.266 224.922 233.568Z" fill="black"/>
<path d="M225.534 224.495C224.644 224.472 223.796 224.114 223.158 223.493C222.562 222.902 222.144 222.155 221.951 221.338C221.655 219.801 221.607 218.226 221.809 216.674L222.379 207.515L222.298 216.687C222.184 218.179 222.297 219.679 222.634 221.137C222.821 221.811 223.194 222.42 223.711 222.892C224.201 223.327 224.832 223.57 225.487 223.575L225.534 224.495Z" fill="black"/>
<path d="M278.542 466.837C277.777 466.908 277.008 466.924 276.241 466.884C274.629 466.855 273.052 466.414 271.658 465.604C270.321 464.741 269.16 463.633 268.235 462.338C267.333 461.095 266.541 459.834 265.75 458.601C265.077 457.377 264.241 456.251 263.265 455.251C262.848 454.84 262.295 454.594 261.71 454.561C261.095 454.592 260.514 454.851 260.081 455.288C259.047 456.3 258.211 457.495 257.615 458.813C261.701 468.135 272.072 468.255 280.401 466.562C279.793 466.663 279.167 466.746 278.542 466.837ZM323.175 436.137C322.245 435.134 321.307 433.266 320.773 429.797C319.438 421.119 313.586 426.64 313.586 426.64C303.361 433.469 299.487 424.91 298.539 423.594C297.6 422.278 290.763 422.186 288.508 426.631C287.67 428.064 286.586 429.338 285.306 430.395C286.532 430.421 287.748 430.629 288.913 431.012C290.088 431.368 291.221 431.853 292.29 432.456C293.391 433.065 294.385 433.849 295.235 434.775C296.167 435.68 296.722 436.902 296.791 438.199C296.102 437.269 295.25 436.471 294.278 435.843C293.349 435.208 292.383 434.619 291.379 434.058L288.352 432.327C287.33 431.739 286.318 431.131 285.296 430.404C283.37 432.061 281.324 433.574 279.177 434.932C280.369 434.808 281.574 434.927 282.72 435.282C283.879 435.626 284.977 436.148 285.977 436.827C286.99 437.505 287.872 438.359 288.582 439.349C289.298 440.33 289.774 441.464 289.971 442.662C289.079 441.834 288.361 441.006 287.496 440.315C286.686 439.605 285.831 438.947 284.937 438.346C283.152 437.113 281.247 436.1 279.167 434.941C277.529 435.99 276.351 436.653 276.351 436.653C274.998 437.242 273.729 437.821 272.551 438.411C273.788 438.571 274.993 438.925 276.121 439.459C277.257 439.974 278.324 440.63 279.296 441.41C280.303 442.195 281.163 443.151 281.836 444.236C282.552 445.309 282.913 446.581 282.867 447.871C282.251 446.871 281.522 445.944 280.695 445.11C279.89 444.303 279.036 443.547 278.137 442.846C276.361 441.374 274.437 440.058 272.551 438.411C253.704 447.77 256.842 456.678 256.842 456.678C257.05 457.406 257.309 458.12 257.615 458.813C257.879 457.303 258.504 455.879 259.437 454.662C259.974 453.968 260.753 453.502 261.618 453.356C262.527 453.289 263.428 453.561 264.149 454.119C264.798 454.598 265.375 455.168 265.86 455.813C266.348 456.429 266.753 457.028 267.195 457.635C268.05 458.859 268.842 460.101 269.707 461.233C270.478 462.365 271.452 463.344 272.578 464.123C272.863 464.279 273.14 464.472 273.434 464.62L274.364 465.006C275.025 465.201 275.698 465.351 276.379 465.457C279.279 465.715 282.199 465.647 285.085 465.255C289.234 463.69 293.063 461.382 296.386 458.445C305.036 450.972 315.472 450.254 322.061 445.819C322.208 445.726 322.346 445.625 322.475 445.533C323.199 445.005 323.8 444.326 324.235 443.542C324.67 442.759 324.93 441.891 324.997 440.997C325.063 440.103 324.935 439.206 324.62 438.367C324.306 437.528 323.812 436.767 323.175 436.137ZM310.217 438.613C309.177 439.588 308.098 440.515 306.978 441.392C305.855 442.266 304.696 443.076 303.49 443.849C302.283 444.638 301.011 445.324 299.689 445.901C300.574 444.763 301.55 443.698 302.607 442.717C303.647 441.742 304.726 440.815 305.846 439.938C306.969 439.064 308.131 438.245 309.334 437.481C310.541 436.684 311.816 435.994 313.144 435.42C312.258 436.563 311.279 437.631 310.217 438.613Z" fill="black"/>
<path d="M281.201 466.396C281.063 466.424 280.916 466.461 280.778 466.498C280.677 466.516 280.585 466.534 280.483 466.543C280.723 466.498 280.962 466.451 281.201 466.396Z" fill="white"/>
<path d="M279.177 434.932L279.167 434.941C279.167 434.94 279.167 434.939 279.167 434.937C279.166 434.936 279.166 434.935 279.165 434.934C279.164 434.934 279.163 434.933 279.162 434.932C279.161 434.932 279.159 434.932 279.158 434.932H279.177Z" fill="white"/>
<path d="M285.306 430.395L285.296 430.404C285.296 430.403 285.296 430.402 285.296 430.401C285.295 430.4 285.295 430.399 285.294 430.398C285.293 430.397 285.292 430.396 285.291 430.396C285.29 430.395 285.288 430.395 285.287 430.395H285.306Z" fill="white"/>
<path d="M296.787 425.994L297.22 422.248C297.355 421.003 297.501 419.763 297.604 418.521C297.729 417.281 297.782 416.039 297.805 414.799C297.852 413.553 297.719 412.307 297.409 411.1C297.988 412.243 298.312 413.497 298.358 414.777C298.456 416.045 298.443 417.318 298.321 418.584C298.208 419.844 298.022 421.096 297.765 422.335C297.52 423.575 297.194 424.797 296.787 425.994Z" fill="black"/>
<path d="M318.221 427.944C317.784 426.513 317.436 425.064 317.105 423.611C316.766 422.159 316.49 420.695 316.226 419.229C315.979 417.759 315.741 416.288 315.58 414.804C315.394 413.322 315.285 411.832 315.254 410.338C315.565 411.801 315.846 413.26 316.128 414.72C316.417 416.179 316.673 417.642 316.935 419.105C317.181 420.571 317.438 422.036 317.647 423.51C317.864 424.982 318.076 426.456 318.221 427.944Z" fill="black"/>
<path d="M244.042 93.8885C244.042 93.8885 245.885 95.8572 247.424 90.6569C247.424 90.6569 248.323 88.3566 251.1 90.2273C251.1 90.2273 253.082 91.445 254.041 89.5012C254.261 89.2513 254.53 89.0495 254.832 88.9085C255.134 88.7674 255.461 88.6902 255.794 88.6816C256.127 88.6729 256.458 88.7331 256.767 88.8583C257.075 88.9835 257.355 89.171 257.588 89.4092C257.588 89.4092 258.225 90.0465 259.695 89.3647C261.166 88.683 263.56 87.0419 264.555 88.2566C265.549 89.4712 264.173 90.1624 265.341 91.5538C266.508 92.9451 267.884 92.5726 267.502 94.1598C267.121 95.7469 268.358 96.7629 268.172 98.3059C267.986 99.8489 267.413 108.779 266.182 109.612C264.936 110.676 263.829 111.893 262.889 113.235C262.378 113.885 258.762 114.352 257.745 113.04C257.012 112.169 256.106 111.461 255.085 110.957C255.085 110.957 253.015 109.348 251.482 110.343C251.482 110.343 248.339 108.627 246.402 111.11C246.402 111.11 244.903 111.12 244.739 109.892C244.659 108.662 244.676 107.428 244.789 106.201C244.789 106.201 244.025 105.869 244 110.583C243.976 115.298 246.407 123.189 246.845 123.583C247.284 123.978 250.998 126.356 258.763 123.913C266.528 121.47 267.749 116.907 268.121 115.733C268.52 113.332 268.762 110.908 268.845 108.475C268.871 107.586 268.58 103.477 271.167 101.186C271.167 101.186 272.864 99.5074 273.729 100.422C273.729 100.422 275.54 97.1565 275.029 91.3245C274.98 90.7671 274.814 90.2264 274.541 89.7375C274.269 89.2486 273.897 88.8226 273.449 88.4873C273.367 88.4261 273.284 88.3651 273.202 88.305C272.44 87.7305 271.928 86.8843 271.773 85.9424C271.731 85.6301 271.627 85.3292 271.468 85.0571C271.309 84.785 271.098 84.547 270.847 84.3568C270.596 84.1665 270.309 84.0278 270.004 83.9486C269.699 83.8694 269.381 83.8512 269.069 83.8952C265.624 83.9335 263.502 82.8376 262.446 83.206C261.389 83.5744 256.668 81.0633 252.403 84.2067C250.474 85.7703 248.282 86.976 245.928 87.7668C245.121 88.1961 241.297 90.7461 244.042 93.8885Z" fill="black"/>
<path d="M273.729 100.423C274.191 100.748 274.506 101.242 274.608 101.797C274.696 102.369 274.617 102.954 274.379 103.482C273.999 104.465 273.673 105.468 273.403 106.487C273.066 107.543 272.525 108.522 271.81 109.368C271.428 109.803 270.929 110.118 270.372 110.275C269.819 110.393 269.243 110.293 268.762 109.997C269.255 110.151 269.785 110.13 270.264 109.939C270.709 109.728 271.094 109.406 271.381 109.005C271.962 108.158 272.414 107.23 272.723 106.25C272.909 105.756 273.033 105.274 273.206 104.74C273.383 104.221 273.606 103.72 273.873 103.242C274.147 102.816 274.281 102.315 274.255 101.809C274.229 101.303 274.045 100.818 273.729 100.423Z" fill="black"/>
<path d="M248.638 102.917C248.843 102.909 249.038 102.823 249.181 102.675C249.324 102.527 249.403 102.329 249.403 102.124C249.403 101.918 249.324 101.721 249.181 101.573C249.038 101.425 248.843 101.338 248.638 101.331C248.432 101.338 248.237 101.425 248.095 101.573C247.952 101.721 247.872 101.918 247.872 102.124C247.872 102.329 247.952 102.527 248.095 102.675C248.237 102.823 248.432 102.909 248.638 102.917Z" fill="black"/>
<path d="M258.451 104.215C258.656 104.208 258.851 104.121 258.994 103.973C259.137 103.825 259.217 103.628 259.217 103.422C259.217 103.217 259.137 103.019 258.994 102.871C258.851 102.723 258.656 102.637 258.451 102.629C258.245 102.637 258.051 102.723 257.908 102.871C257.765 103.019 257.685 103.217 257.685 103.422C257.685 103.628 257.765 103.825 257.908 103.973C258.051 104.121 258.245 104.208 258.451 104.215Z" fill="black"/>
<path d="M245.252 98.2351C246.386 97.957 247.568 97.9454 248.707 98.2012C249.28 98.3276 249.836 98.524 250.362 98.786C250.889 99.0529 251.355 99.4266 251.73 99.8831C250.706 99.453 249.642 99.1251 248.554 98.9044C247.477 98.6669 246.387 98.4971 245.252 98.2351Z" fill="black"/>
<path d="M255.201 100.23C256.424 99.8201 257.718 99.6643 259.004 99.7718C260.306 99.8285 261.567 100.244 262.647 100.973C261.426 100.737 260.191 100.576 258.95 100.489C257.718 100.393 256.483 100.354 255.201 100.23Z" fill="black"/>
<path d="M250.035 107.277C250.206 107.518 250.406 107.738 250.63 107.93C250.832 108.102 251.05 108.254 251.281 108.386C251.74 108.666 252.26 108.87 252.837 109.214C252.524 109.32 252.191 109.356 251.862 109.319C251.528 109.281 251.205 109.174 250.913 109.005C250.612 108.828 250.362 108.576 250.188 108.273C250.007 107.974 249.952 107.616 250.035 107.277Z" fill="black"/>
<path d="M272.171 100.436C270.682 101.09 269.14 101.618 267.563 102.015C265.995 102.444 264.392 102.739 262.774 102.898C264.262 102.243 265.804 101.715 267.381 101.319C268.95 100.892 270.552 100.597 272.171 100.436Z" fill="black"/>
<path d="M259.473 144.599C259.473 144.599 245.407 173.116 245.248 180.115L249.99 186.807L259.028 181.152C259.028 181.152 261.413 150.562 259.473 144.599Z" fill="black"/>
<path d="M288.944 192.307C288.346 191.449 287.949 190.467 287.782 189.435C287.741 189.154 287.751 188.868 287.81 188.591C287.838 188.423 287.91 188.267 288.019 188.136C288.129 188.006 288.27 187.908 288.43 187.851C288.721 187.795 289.022 187.838 289.286 187.972C289.534 188.071 289.759 188.195 289.989 188.313L289.997 188.318L290.005 188.324C290.57 188.801 291.092 189.326 291.565 189.894C292.019 190.482 292.405 191.12 292.716 191.795C293.302 193.16 293.542 194.648 293.414 196.127L293.409 196.11L293.412 196.186H293.34L293.325 196.152L293.32 196.134C293.212 195.783 293.13 195.433 293.038 195.089C292.925 194.748 292.85 194.403 292.735 194.069C292.532 193.393 292.262 192.748 292.013 192.097C291.754 191.446 291.449 190.815 291.1 190.208C290.784 189.574 290.366 188.996 289.864 188.496L289.88 188.507C289.475 188.271 288.907 188.061 288.577 188.24C288.306 188.389 288.381 188.906 288.423 189.355C288.543 190.3 288.829 191.268 289.011 192.28L288.944 192.307Z" fill="black"/>
<path d="M283.853 196.809C282.698 195.77 281.566 194.705 280.379 193.749C280.092 193.513 279.788 193.3 279.468 193.112C279.329 193.028 279.176 192.968 279.017 192.935L278.458 192.828C277.712 192.69 276.959 192.597 276.202 192.552C275.441 192.506 274.658 192.533 273.87 192.453C273.656 192.455 273.444 192.406 273.252 192.31C273.061 192.215 272.894 192.075 272.767 191.902C272.646 191.725 272.574 191.519 272.557 191.305C272.541 191.091 272.581 190.877 272.674 190.683C273.046 189.951 273.691 189.395 274.469 189.135C275.212 188.849 275.989 188.66 276.78 188.571L276.542 188.922C276.433 188.57 276.41 188.197 276.473 187.835C276.506 187.639 276.577 187.451 276.682 187.282C276.788 187.114 276.927 186.968 277.089 186.854C277.719 186.496 278.453 186.369 279.167 186.493C280.464 186.682 281.724 187.07 282.903 187.644C284.069 188.202 285.175 188.876 286.207 189.654C287.231 190.428 288.171 191.307 289.012 192.277L288.961 192.328C287.992 191.516 286.97 190.769 285.901 190.094C284.849 189.414 283.744 188.822 282.596 188.322C281.469 187.819 280.289 187.445 279.077 187.209C278.534 187.09 277.967 187.154 277.464 187.391C277.264 187.551 277.119 187.768 277.047 188.014C276.975 188.259 276.981 188.521 277.063 188.763L277.14 189.099L276.825 189.114C276.067 189.13 275.315 189.245 274.587 189.456C274.226 189.542 273.887 189.704 273.594 189.931C273.3 190.158 273.058 190.445 272.884 190.773C272.809 190.931 272.777 191.106 272.793 191.28C272.809 191.454 272.871 191.621 272.974 191.763C273.077 191.904 273.216 192.016 273.376 192.085C273.537 192.154 273.713 192.179 273.887 192.156C274.649 192.159 275.416 192.055 276.206 192.028C276.999 191.99 277.794 192.046 278.574 192.193C278.771 192.222 278.962 192.273 279.155 192.317C279.374 192.371 279.583 192.461 279.773 192.581C280.115 192.798 280.438 193.042 280.741 193.311C281.903 194.357 282.963 195.512 283.906 196.76L283.853 196.809Z" fill="black"/>
<path d="M283.863 196.819L283.853 196.811L283.859 196.816C281.965 195.968 280 195.289 277.987 194.787C276.991 194.491 275.966 194.308 274.929 194.241C274.412 194.21 273.892 194.236 273.38 194.319C273.143 194.332 272.91 194.392 272.696 194.495C272.482 194.599 272.29 194.744 272.132 194.921C271.947 195.249 272.247 195.721 272.563 196.019C272.907 196.32 273.339 196.502 273.795 196.537C274.866 196.554 275.93 196.711 276.961 197.004C279.018 197.614 280.895 198.717 282.429 200.217L282.384 200.273C280.646 199.149 278.747 198.296 276.752 197.744C275.761 197.467 274.746 197.288 273.721 197.21C273.124 197.139 272.57 196.86 272.158 196.422C271.951 196.203 271.794 195.942 271.699 195.657C271.64 195.502 271.618 195.336 271.635 195.171C271.653 195.006 271.709 194.848 271.8 194.709C272.213 194.304 272.766 194.074 273.345 194.068C273.873 194.015 274.403 193.995 274.934 194.008C275.997 193.98 277.061 194.045 278.113 194.201C280.213 194.593 282.194 195.466 283.899 196.752L283.905 196.757L283.906 196.758L283.914 196.768L283.863 196.819Z" fill="black"/>
<path d="M298.241 205.449C297.563 207.13 296.294 208.506 294.673 209.317C293.85 209.709 292.963 209.951 292.054 210.032C291.152 210.103 290.244 210.032 289.363 209.82L289.305 209.807L289.274 209.786L283.039 205.631C282.523 205.279 282.001 204.933 281.494 204.561C280.983 204.203 280.508 203.72 280.043 203.415C278.993 202.837 277.814 202.534 276.616 202.534C276.313 202.52 276.011 202.52 275.707 202.53C275.366 202.55 275.023 202.524 274.688 202.451C273.977 202.309 273.348 201.897 272.934 201.301C272.69 200.971 272.578 200.563 272.617 200.155C272.691 199.759 272.9 199.401 273.208 199.143C273.737 198.66 274.425 198.388 275.141 198.38C276.409 198.442 277.67 198.605 278.913 198.866C280.162 199.076 281.357 199.534 282.427 200.213L282.444 200.244C282.446 200.233 282.426 200.213 282.416 200.217V200.29C282.396 200.294 282.367 200.266 282.37 200.245L282.386 200.275C281.263 199.763 280.062 199.443 278.833 199.327C277.619 199.169 276.397 199.082 275.172 199.069C274.125 199.113 272.88 200.081 273.569 200.869C273.878 201.306 274.336 201.614 274.858 201.734C275.131 201.801 275.413 201.83 275.695 201.82C276.014 201.819 276.335 201.828 276.655 201.852C277.962 201.889 279.234 202.285 280.332 202.995C280.876 203.422 281.236 203.881 281.724 204.271C282.201 204.664 282.681 205.059 283.188 205.418C285.221 206.857 287.351 208.151 289.565 209.292L289.475 209.258C291.139 209.592 292.864 209.436 294.44 208.81C295.216 208.466 295.929 207.997 296.552 207.422C297.19 206.839 297.737 206.165 298.175 205.421L298.241 205.449Z" fill="black"/>
<path d="M276.857 188.487C277.744 188.673 278.618 188.918 279.472 189.221C280.324 189.515 281.152 189.873 281.949 190.292C283.579 191.069 284.945 192.308 285.877 193.855C284.863 192.398 283.442 191.271 281.792 190.616C280.988 190.261 280.158 189.967 279.31 189.736C278.469 189.5 277.614 189.321 276.749 189.199L276.857 188.487Z" fill="black"/>
<path d="M287.831 188.86L287.779 188.631L287.777 188.625C287.405 186.919 287.073 185.196 286.822 183.461C286.693 182.594 286.58 181.724 286.483 180.852L286.351 179.542L286.249 178.29L286.24 178.229C285.935 173.576 286.178 168.903 286.964 164.307C287.356 162.001 287.881 159.754 288.489 157.483C288.807 156.297 289.33 155.176 290.035 154.171C290.409 153.619 290.887 153.147 291.444 152.781C292 152.414 292.623 152.161 293.277 152.036L293.542 151.995L293.761 152.235C296.851 155.628 299.939 159.023 302.978 162.461L307.556 167.601L312.086 172.784L312.375 173.115L312.095 173.436L303.13 183.681L294.25 193.998L294.262 193.983C293.956 194.461 293.749 194.995 293.651 195.555C293.554 196.114 293.57 196.687 293.697 197.24C293.935 198.383 294.354 199.48 294.938 200.491C296.108 202.541 297.546 204.425 299.215 206.093L298.835 206.064C306.114 200.532 313.34 194.913 320.328 189.036C322.067 187.559 323.794 186.068 325.477 184.541C326.327 183.783 327.146 183.003 327.945 182.206C328.361 181.819 328.721 181.398 329.099 180.989C329.282 180.782 329.485 180.584 329.652 180.37L330.132 179.717C330.763 178.855 331.25 177.897 331.575 176.88C331.859 175.862 331.97 174.804 331.904 173.749C331.681 171.617 330.862 169.59 329.54 167.902L329.497 167.847L329.481 167.822C327.027 164.031 324.528 160.264 321.982 156.521C319.445 152.777 316.829 149.09 314.199 145.416C311.549 141.762 308.849 138.13 305.891 134.752C305.124 133.946 304.393 133.073 303.581 132.353C302.764 131.615 301.877 130.959 300.933 130.392C299.016 129.258 296.951 128.394 294.799 127.822L294.895 127.834L294.876 127.834L294.822 127.834L294.78 127.822C292.25 127.154 289.662 126.734 287.051 126.567C284.428 126.384 281.794 126.424 279.178 126.685L279.157 126.543C281.778 126.167 284.426 126.015 287.073 126.086C289.734 126.132 292.383 126.465 294.972 127.08L294.876 127.068L294.895 127.068L294.939 127.067L294.991 127.08C297.238 127.607 299.402 128.441 301.422 129.559C302.438 130.129 303.396 130.796 304.284 131.551C305.188 132.313 305.923 133.176 306.732 133.993C309.803 137.376 312.578 140.975 315.309 144.601C318.043 148.226 320.628 151.954 323.203 155.686C325.767 159.427 328.287 163.198 330.764 166.996L330.706 166.916C332.216 168.858 333.136 171.192 333.357 173.642C333.425 174.875 333.282 176.11 332.936 177.295C332.555 178.457 331.989 179.549 331.258 180.529L330.713 181.252C330.525 181.485 330.316 181.687 330.118 181.906C329.716 182.333 329.325 182.778 328.899 183.166C328.07 183.977 327.223 184.762 326.36 185.521C324.647 187.06 322.868 188.51 321.09 189.958C313.944 195.704 306.602 201.17 299.182 206.536L298.972 206.687L298.802 206.507C297.977 205.63 297.199 204.71 296.473 203.751C295.741 202.794 295.082 201.784 294.504 200.727C293.903 199.666 293.477 198.516 293.24 197.32C293.107 196.707 293.098 196.075 293.213 195.459C293.328 194.843 293.564 194.256 293.908 193.733L293.914 193.724L293.92 193.717L302.672 183.291L311.34 172.794L311.349 173.446L306.676 168.391L302.052 163.293C298.956 159.906 295.908 156.476 292.863 153.043L293.347 153.242C292.887 153.328 292.452 153.516 292.074 153.793C291.655 154.097 291.284 154.461 290.971 154.874C290.339 155.761 289.867 156.752 289.575 157.802C288.953 159.989 288.433 162.252 287.973 164.492C287.085 169.003 286.716 173.602 286.874 178.198L286.865 178.136C286.88 178.266 286.888 178.397 286.889 178.528L286.9 178.85L286.929 179.501L287.006 180.805C287.065 181.674 287.141 182.542 287.233 183.409C287.418 185.143 287.66 186.869 287.932 188.599L287.931 188.593L287.971 188.825L287.831 188.86Z" fill="black"/>
<path d="M270.52 126.67C269.028 127.938 267.537 129.08 266.023 130.152C264.533 131.237 262.986 132.24 261.388 133.158L261.319 132.151C262.739 132.926 264.13 133.763 265.568 134.499C267.012 135.224 268.494 135.872 270.006 136.442L269.604 136.522L271.761 133.83C272.487 132.94 273.247 132.08 274.006 131.219C275.512 129.488 277.054 127.789 278.633 126.124L279.163 127.331L270.52 126.67ZM270.479 126.532L279.164 125.89L280.879 125.764L279.694 127.097C278.17 128.812 276.611 130.496 275.018 132.147C274.226 132.977 273.435 133.809 272.61 134.609L270.115 136.99L269.914 137.182L269.714 137.07C268.303 136.282 266.853 135.568 265.367 134.931C263.878 134.306 262.341 133.782 260.833 133.197L259.895 132.833L260.763 132.189C262.305 131.084 263.903 130.06 265.552 129.123C267.18 128.17 268.829 127.288 270.479 126.532L270.479 126.532Z" fill="black"/>
<path d="M233.621 167.174C232.834 167.862 232.01 168.507 231.154 169.105C230.328 169.661 229.582 170.326 228.935 171.082C228.237 171.816 227.704 172.691 227.371 173.647C227.062 174.623 227.006 175.661 227.209 176.664C227.706 178.611 228.347 180.646 228.79 182.661C229.24 184.697 229.571 186.758 229.779 188.832L229.69 188.853C228.955 186.902 228.335 184.909 227.834 182.885C227.585 181.876 227.386 180.856 227.18 179.837C226.943 178.81 226.785 177.767 226.708 176.717C226.683 175.654 226.809 174.592 227.084 173.565C227.317 172.513 227.74 171.512 228.331 170.611C228.968 169.727 229.805 169.004 230.772 168.502C231.679 167.983 232.614 167.514 233.571 167.097L233.621 167.174Z" fill="black"/>
</svg>
