<svg width="153" height="158" viewBox="0 0 153 158" fill="none" xmlns="http://www.w3.org/2000/svg">
<path d="M95.8278 74.0325L93.5478 71.8699C93.5478 71.8699 89.5099 76.4613 89.5122 77.3649C89.5145 78.2684 90.7875 80.0998 90.7875 80.0998C90.7875 80.0998 94.9416 84.6324 95.2441 86.7778L95.8293 83.2068L92.6708 77.7307L92.9535 76.4904L95.8278 74.0325Z" fill="black"/>
<path d="M83.9042 65.5359C84.9039 65.7316 85.9132 65.871 86.9275 65.9535C87.4952 65.9645 85.2373 66.6514 84.7577 66.6412C84.2782 66.631 83.8252 66.6412 83.8252 66.6412L83.9042 65.5359Z" fill="black"/>
<path d="M98.5537 62.9216C99.1549 62.3017 99.61 61.5472 99.8837 60.7166L104.187 64.2349C104.187 64.2349 104.06 66.3544 102.799 67.3702L98.5537 62.9216Z" fill="black"/>
<path d="M83.4131 52.4929C83.4131 52.4929 86.2433 55.9053 87.5049 56.5215C88.7665 57.1378 93.2353 57.1378 93.2353 57.1378L83.4131 52.4929Z" fill="black"/>
<path d="M15.9302 120.052L16.5108 117.638L17.4608 120.258L15.9302 120.052Z" fill="black"/>
<path d="M20.3901 120.052L22.1336 117.638L22.5523 120.052H20.3901Z" fill="black"/>
<path d="M24.0731 119.338L25.5407 118.624L25.2108 120.258L23.9287 120.052L24.0731 119.338Z" fill="black"/>
<path d="M27.397 117.411L31.77 113.743V112.052L29.6641 113.63L27.397 114.307V117.411Z" fill="black"/>
<path d="M93.4047 117.994C93.4047 117.994 90.7971 116.521 90.4293 116.569C90.0615 116.618 88.1812 116.237 90.4293 119.324C90.4293 119.324 86.13 122.597 86.092 123.258C86.054 123.92 86.5252 124.254 87.2677 123.904C88.0102 123.555 90.3077 121.49 91.1551 121.33C91.8541 121.235 92.5607 121.212 93.2641 121.263C93.2641 121.263 88.4168 124.304 87.8369 125.973C87.2571 127.642 88.3226 127.504 88.8705 127.352C89.4185 127.2 90.7113 126.986 90.7113 126.986C90.9804 127.226 91.3282 127.35 91.6833 127.333C92.2761 127.303 95.7113 125.292 96.5975 125.068C97.4836 124.845 99.5181 127.847 100.921 128.038C102.324 128.229 111.74 124.526 111.74 124.526L109.292 118.382C109.292 118.382 104.256 121.932 103.127 121.751C101.997 121.57 93.4047 117.994 93.4047 117.994Z" fill="#FFD997"/>
<path d="M72.4785 110.208L76.8219 116.19L66.6083 117.536C66.0353 118.139 65.3754 118.647 64.6521 119.042C63.7957 119.268 62.9091 119.348 62.0278 119.277C61.5009 119.844 60.8489 120.27 60.1278 120.519C59.329 120.62 58.4786 120.421 59.383 118.837C60.2874 117.253 61.3742 117.23 61.3742 117.23L58.699 114.003C58.699 114.003 56.2571 115.852 55.7897 116.287C55.3223 116.723 54.8367 117.229 54.8367 117.229C54.8367 117.229 54.8929 118.271 54.0941 118.485C53.2954 118.7 52.926 117.758 52.9671 116.955C52.9671 116.955 52.5916 113.618 53.1905 112.438L53.5295 111.472L52.8508 111.179C52.1776 111.404 51.5247 111.689 50.8999 112.032C50.2159 112.46 49.1253 111.767 50.2744 111.05C51.3111 110.468 52.3888 109.968 53.4983 109.554L54.693 110.168L55.3504 110.338L57.692 110.551L62.86 110.144L64.8588 112.8L72.4785 110.208Z" fill="#FFD997"/>
<path d="M82.8932 52.4929L82.6842 56.5459L83.8242 59.2973L81.3816 63.5277C81.3816 63.5277 81.2379 64.1258 81.5336 64.3558C81.8292 64.5858 83.4054 64.7758 83.6547 65.1558C83.8257 65.4792 83.9324 65.8347 83.9686 66.2014C84.7071 66.3336 85.4622 66.3336 86.2007 66.2014C86.9265 65.9533 87.023 65.4564 87.023 65.4564C86.7896 66.5091 86.2439 67.4603 85.462 68.1772L85.421 68.6176L85.9932 68.9646C85.9268 69.3427 85.9433 69.7314 86.0417 70.1021C86.1401 70.4727 86.3178 70.8158 86.5617 71.1061C86.8242 71.3366 87.1379 71.4963 87.4748 71.571C87.8117 71.6456 88.1612 71.6329 88.4921 71.5339L92.2845 70.3634L95.985 74.0325L102.864 67.4385L98.5538 63.0174C97.7553 63.684 96.7435 64.0163 95.719 63.9484C94.0173 63.8252 92.4054 62.5629 92.1926 59.6655C92.1926 59.6655 92.9138 57.546 93.4367 57.1354C93.9596 56.7249 82.8932 52.4929 82.8932 52.4929Z" fill="#FFD997"/>
<path d="M84.9258 58.9197L85.6721 60.4732L87.8199 58.9197H84.9258Z" fill="white"/>
<path d="M90.2461 67.5852C90.2461 67.5852 87.3809 68.2014 87.1423 68.7439C86.9036 69.2863 87.118 70.2487 88.2169 69.6568C89.0274 69.1221 89.719 68.416 90.2461 67.5852Z" fill="white"/>
<path d="M72.479 110.208L76.8224 116.19L94.4278 111.18L95.9478 106.741L97.3644 107.934C97.3644 107.934 97.6373 111.669 97.885 112.929C98.1328 114.189 98.6397 118.726 98.2005 119.639L103.126 121.753C103.126 121.753 108.107 119.376 109.291 118.384L111.739 124.528L115.915 122.923L135.146 123.02C135.146 123.02 134.5 115.43 133.976 114.248C133.976 114.248 137.356 112.37 137.951 110.716C138.546 109.061 137.675 104.948 137.174 103.388C136.673 101.827 131.131 87.8196 129.65 85.6773C128.169 83.5351 124.558 73.9306 121.459 72.4359C119.941 71.6737 118.379 71.0083 116.782 70.4436C116.782 70.4436 111.507 69.281 110.506 68.726C108.656 67.8384 107.176 66.2925 106.338 64.3708L92.9564 76.7197L90.6764 80.1023L85.3184 99.4611C85.281 100.381 85.4296 101.299 85.7547 102.157C86.251 103.099 84.8016 102.534 84.8016 102.534C84.8016 102.534 83.5317 102.136 83.4336 102.885C83.3778 103.375 83.3986 103.871 83.4952 104.354C83.2424 104.848 82.9165 105.298 82.5292 105.689C81.9554 106.222 72.479 110.208 72.479 110.208Z" fill="#81F8F8"/>
<path d="M24.9569 114.953L21.9868 115.743" stroke="black" stroke-width="0.980065" stroke-linecap="round" stroke-linejoin="round"/>
<path d="M19.294 107.705L4.18213 59.6458L11.0221 57.1267L29.5258 113.742L26.3566 114.582" stroke="black" stroke-width="0.980065" stroke-linecap="round" stroke-linejoin="round"/>
<path d="M11.0215 57.1267H25.1529L40.5779 104.74L29.526 113.742" stroke="black" stroke-width="0.980065" stroke-linecap="round" stroke-linejoin="round"/>
<path d="M13.7676 59.623H23.7031L38.3285 103.827L30.2831 109.466L13.7676 59.623Z" stroke="black" stroke-width="0.980065" stroke-linecap="round" stroke-linejoin="round"/>
<path d="M27.397 120.258V114.307" stroke="black" stroke-width="0.980065" stroke-linecap="round" stroke-linejoin="round"/>
<path d="M31.7703 112.052V125.467L33.9811 126.268C34.0975 126.31 34.1983 126.388 34.2697 126.492C34.341 126.596 34.3794 126.72 34.3794 126.847C34.3792 127.01 34.3164 127.167 34.2049 127.282C34.0933 127.397 33.9421 127.462 33.7843 127.462H28.728" stroke="black" stroke-width="0.980065" stroke-linecap="round" stroke-linejoin="round"/>
<path d="M65.7043 114.293C65.7043 114.293 63.2723 110.454 62.8596 110.144C62.447 109.834 58.4076 110.556 57.5244 110.518C56.6413 110.479 54.9245 109.95 54.0611 110.925C53.4498 111.552 53.0844 112.391 53.0351 113.28C52.9226 114.211 52.4545 116.341 53.0701 116.959" stroke="black" stroke-width="0.980065" stroke-linecap="round" stroke-linejoin="round"/>
<path d="M58.0974 111.252C58.0974 111.252 56.0082 110.925 55.312 111.664C54.4826 112.824 53.8662 114.131 53.4934 115.521C53.2038 116.487 52.706 117.845 53.4934 118.398C54.0155 118.764 54.7899 118.178 55.0217 117.039" stroke="black" stroke-width="0.980065" stroke-linecap="round" stroke-linejoin="round"/>
<path d="M59.4129 111.472C58.4462 111.67 57.5447 112.12 56.7947 112.78C55.7949 113.791 54.8536 114.863 53.9759 115.989C53.6673 116.576 54.2351 117.891 55.7019 116.375C56.8292 115.06 58.2513 114.05 59.8439 113.433C61.11 113.077 60.9945 113.077 60.9945 113.077L62.0281 114.843" stroke="black" stroke-width="0.980065" stroke-linecap="round" stroke-linejoin="round"/>
<path d="M54.9871 110.408C54.5915 109.965 54.0684 109.666 53.4952 109.554C52.7914 109.554 50.1816 110.826 49.8776 111.472C49.5736 112.118 50.0106 112.571 51.0936 111.923C51.6646 111.558 52.2962 111.306 52.9563 111.179L53.5263 111.472" stroke="black" stroke-width="0.980065" stroke-linecap="round" stroke-linejoin="round"/>
<path d="M58.5571 114.004C59.076 114.382 59.5489 114.823 59.9654 115.318C60.3556 116.013 60.8276 116.656 61.3706 117.231" stroke="black" stroke-width="0.980065" stroke-linecap="round" stroke-linejoin="round"/>
<path d="M62.4917 118.606C62.048 119.101 61.5636 119.556 61.0439 119.965C60.4617 120.411 58.9539 121.131 59.134 119.535C59.362 117.521 63.5017 116.452 63.5017 116.452" stroke="black" stroke-width="0.980065" stroke-linecap="round" stroke-linejoin="round"/>
<path d="M61.9004 119.223C62.762 119.327 63.6342 119.289 64.4844 119.111C65.2802 118.726 66.0013 118.194 66.6124 117.541C66.6124 117.541 74.619 116.786 76.826 116.195" stroke="black" stroke-width="0.980065" stroke-linecap="round" stroke-linejoin="round"/>
<path d="M64.7759 112.85L72.369 110.056" stroke="black" stroke-width="0.980065" stroke-linecap="round" stroke-linejoin="round"/>
<path d="M76.8228 116.19C76.8228 116.19 93.8924 111.965 94.5467 111.081C95.2011 110.198 95.9489 106.741 95.9489 106.741" stroke="black" stroke-width="0.980065" stroke-linecap="round" stroke-linejoin="round"/>
<path d="M85.5947 106.159C83.5594 105.838 83.5875 103.531 83.3048 104.378C83.2427 104.559 83.1648 104.734 83.0722 104.9C82.7231 105.519 82.1927 106.008 81.5575 106.295L72.3691 110.056" stroke="black" stroke-width="0.980065" stroke-linecap="round" stroke-linejoin="round"/>
<path d="M83.4716 104.279C83.4716 104.279 82.9791 102.425 84.053 102.425C85.1269 102.425 85.5373 103.053 85.7919 102.68C86.0465 102.308 85.0319 101.284 85.2834 99.9706C85.535 98.6573 90.6749 80.1023 90.6749 80.1023" stroke="black" stroke-width="0.980065" stroke-linecap="round" stroke-linejoin="round"/>
<path d="M85.9697 104.596C85.9697 104.596 88.673 106.999 89.3859 107.155C90.0988 107.31 86.6081 101.3 86.6081 101.3" stroke="black" stroke-width="0.980065" stroke-linecap="round" stroke-linejoin="round"/>
<path d="M76.8227 116.19L72.3691 110.056" stroke="black" stroke-width="0.980065" stroke-linecap="round" stroke-linejoin="round"/>
<path d="M109.292 118.281L111.74 124.529C111.74 124.529 102.955 128.328 101.176 128.092C99.3968 127.857 97.9148 125.16 97.1388 125.055C95.5565 124.843 92.2345 127.344 91.5475 127.362C91.3789 127.375 91.2101 127.337 91.0621 127.252C90.9142 127.168 90.7936 127.04 90.7153 126.885C90.7153 126.885 89.7053 127.46 89.2622 127.127C89.2622 127.127 88.3373 127.84 87.7984 127.284C87.2596 126.727 87.7316 126.028 88.6648 124.8C90.2502 122.71 93.4384 121.179 93.4384 121.179C92.2592 121.026 91.0627 121.245 90.0062 121.807C89.1702 122.293 88.2043 123.353 87.2702 123.905C86.644 124.277 85.238 123.81 86.8211 122.178C87.9937 120.972 91.4404 118.656 92.7369 118.415C94.8186 118.028 102.073 121.588 102.989 121.766C103.906 121.944 109.292 118.281 109.292 118.281Z" stroke="black" stroke-width="0.980065" stroke-linecap="round" stroke-linejoin="round"/>
<path d="M94.7601 118.654C94.7601 118.654 91.7368 117.218 91.0467 116.714C90.3567 116.21 89.0555 116.285 89.3398 117.528C89.5179 118.276 89.9742 118.921 90.6097 119.324" stroke="black" stroke-width="0.980065" stroke-linecap="round" stroke-linejoin="round"/>
<path d="M113.004 88.9294C113.004 88.9294 115.007 88.7072 116.223 91.4414C117.439 94.1755 119.351 101.734 121.004 102.94C122.657 104.147 128.234 105.872 128.234 105.872" stroke="black" stroke-width="0.980065" stroke-linecap="round" stroke-linejoin="round"/>
<path d="M121.75 103.391C121.705 104.323 121.861 105.254 122.206 106.117C122.314 106.558 122.514 106.97 122.791 107.325C123.069 107.679 123.417 107.967 123.812 108.169C123.812 108.169 121.783 106.728 121.403 107.601C121.163 108.2 121.029 108.838 121.006 109.485L109.292 118.281" stroke="black" stroke-width="0.980065" stroke-linecap="round" stroke-linejoin="round"/>
<path d="M111.74 124.528C111.74 124.528 134.503 116.207 137.777 111.059C141.051 105.911 125.881 78.2583 124.052 75.1057C121.231 70.2473 113.553 70.1115 110.505 68.7237C108.62 67.799 107.121 66.2049 106.28 64.2327C106.28 64.2327 94.1344 75.6246 92.9564 76.7197C91.7784 77.8147 96.1895 81.7178 95.827 83.7226C95.827 83.7226 93.6306 95.7551 93.3372 98.5537C93.0438 101.352 91.9456 103.319 97.3652 107.934C97.3879 109.715 97.5842 111.489 97.9512 113.229C98.4185 115.331 98.5032 117.505 98.2012 119.639" stroke="black" stroke-width="0.980065" stroke-linecap="round" stroke-linejoin="round"/>
<path d="M89.2581 127.126C89.0438 126.812 88.8409 126.395 89.7901 125.139C91.0007 123.48 92.7706 122.35 94.7491 121.975" stroke="black" stroke-width="0.980065" stroke-linecap="round" stroke-linejoin="round"/>
<path d="M90.7144 126.884C90.7144 126.335 91.0792 125.654 92.6683 124.772C93.7887 124.058 95.0416 123.596 96.346 123.415" stroke="black" stroke-width="0.980065" stroke-linecap="round" stroke-linejoin="round"/>
<path d="M122.787 109.621C124.521 110.365 126.361 110.811 128.234 110.942C130.64 110.942 125.982 107.452 125.982 107.452" stroke="black" stroke-width="0.980065" stroke-linecap="round" stroke-linejoin="round"/>
<path d="M95.8278 74.0327L92.2855 70.3637C92.2855 70.3637 88.7826 71.7869 87.4427 71.5938C86.1029 71.4006 86.0162 69.7184 86.0474 69.1712C86.0595 68.9585 85.8954 68.8274 85.6902 68.7473C85.6263 68.7214 85.5695 68.6796 85.5251 68.6255C85.4807 68.5715 85.4499 68.5069 85.4355 68.4375C85.4211 68.3682 85.4236 68.2962 85.4427 68.2281C85.4618 68.16 85.497 68.0978 85.545 68.0471C87.065 66.4567 87.024 65.4566 87.024 65.4566C86.245 66.8084 84.5471 66.6428 84.2773 66.6341C83.4991 66.598 83.9908 66.0548 83.9042 65.5398C83.8175 65.0249 83.1495 64.9903 83.1495 64.9903C81.4289 64.6583 81.0124 64.2367 81.6918 63.0592C82.1699 62.2295 82.6753 61.3385 83.3995 60.2411C84.1238 59.1437 83.1579 58.5447 82.7718 57.0477C82.3857 55.5507 82.9648 52.0088 82.9648 52.0088C82.9648 52.0088 85.5488 55.9636 87.9269 56.6835C89.7302 57.1254 91.5884 57.2792 93.4369 57.1395" stroke="black" stroke-width="0.980065" stroke-linecap="round" stroke-linejoin="round"/>
<path d="M83.4131 63.9595C83.6934 64.0324 83.9684 64.1256 84.2362 64.2382" stroke="black" stroke-width="0.980065" stroke-linecap="round" stroke-linejoin="round"/>
<path d="M92.7559 69.4246C92.7559 69.4246 96.1325 65.8348 96.4419 65.0168" stroke="black" stroke-width="0.980065" stroke-linecap="round" stroke-linejoin="round"/>
<path d="M84.7573 58.8644C84.7573 58.8644 87.1399 58.7894 87.6453 58.8644" stroke="black" stroke-width="0.980065" stroke-linecap="round" stroke-linejoin="round"/>
<path d="M85.0809 59.8338C85.1191 59.9415 85.1684 60.0439 85.2258 60.1351C85.2832 60.2262 85.3477 60.3044 85.4156 60.3651C85.4834 60.4258 85.5533 60.4679 85.6213 60.4889C85.6893 60.5099 85.754 60.5095 85.8117 60.4876C85.8694 60.4658 85.919 60.4229 85.9577 60.3615C85.9964 60.3001 86.0234 60.2213 86.0372 60.1296C86.0509 60.038 86.0512 59.9353 86.038 59.8274C86.0247 59.7195 85.9982 59.6086 85.96 59.5009C85.9217 59.3931 85.8725 59.2908 85.8151 59.1996C85.7576 59.1085 85.6932 59.0303 85.6253 58.9696C85.5574 58.9089 85.4875 58.8668 85.4196 58.8458C85.3516 58.8247 85.2869 58.8252 85.2292 58.847C85.1715 58.8689 85.1219 58.9118 85.0832 58.9732C85.0445 59.0346 85.0175 59.1134 85.0037 59.205C84.9899 59.2967 84.9897 59.3994 85.0029 59.5072C85.0161 59.6151 85.0426 59.7261 85.0809 59.8338Z" fill="black"/>
<path d="M83.8252 57.2712C84.7659 57.0253 85.7416 56.9545 86.7064 57.0624" stroke="black" stroke-width="0.980065" stroke-linecap="round" stroke-linejoin="round"/>
<path d="M92.1924 60.0383C92.1924 61.0774 92.592 62.0739 93.3034 62.8087C94.0147 63.5435 94.9795 63.9562 95.9855 63.9562C96.9915 63.9562 97.9564 63.5435 98.6677 62.8087C99.3791 62.0739 99.7787 61.0774 99.7787 60.0383C99.7787 58.9992 99.3791 58.0027 98.6677 57.2679C97.9564 56.5331 96.9915 56.1204 95.9855 56.1204C94.9795 56.1204 94.0147 56.5331 93.3034 57.2679C92.592 58.0027 92.1924 58.9992 92.1924 60.0383Z" stroke="black" stroke-width="0.980065" stroke-linecap="round" stroke-linejoin="round"/>
<path d="M94.2051 60.0382C94.2051 60.526 94.3927 60.9938 94.7266 61.3388C95.0606 61.6837 95.5135 61.8775 95.9858 61.8775C96.458 61.8775 96.9109 61.6837 97.2449 61.3388C97.5788 60.9938 97.7664 60.526 97.7664 60.0382C97.7664 59.5504 97.5788 59.0826 97.2449 58.7377C96.9109 58.3928 96.458 58.199 95.9858 58.199C95.5135 58.199 95.0606 58.3928 94.7266 58.7377C94.3927 59.0826 94.2051 59.5504 94.2051 60.0382Z" stroke="black" stroke-width="0.980065" stroke-linecap="round" stroke-linejoin="round"/>
<path d="M95.3458 56.1203C95.3458 56.1203 95.2972 50.9731 94.864 47.7428C94.4308 44.5125 94.2051 42.5249 94.2051 42.5249H95.3451C95.9205 45.6559 96.2866 48.824 96.441 52.0069C96.5018 54.6516 96.441 56.1203 96.441 56.1203" stroke="black" stroke-width="0.980065" stroke-linecap="round" stroke-linejoin="round"/>
<path d="M93.4367 57.1379L82.9624 52.0071C82.9624 52.0071 83.2048 49.0712 84.7552 47.7257C86.3056 46.3802 91.5192 42.4929 94.2028 42.5251" stroke="black" stroke-width="0.980065" stroke-linecap="round" stroke-linejoin="round"/>
<path d="M95.3457 42.5291C95.3457 42.5291 97.3293 42.7559 99.7788 42.7559C102.228 42.7559 113.263 42.5031 113.214 48.1763C113.165 53.8495 109.388 54.0521 104.485 53.2922L102.032 53.1399L103.406 54.8119" stroke="black" stroke-width="0.980065" stroke-linecap="round" stroke-linejoin="round"/>
<path d="M107.721 53.6045C108.099 54.2842 108.332 55.0399 108.405 55.8206C108.355 56.6841 106.394 57.0035 106.394 57.0035C106.394 57.0035 107.669 59.0901 107.078 60.0384C106.486 60.9866 105.606 60.1773 105.017 62.1021C104.836 62.8361 104.587 63.5503 104.273 64.235L99.7725 60.6326" stroke="black" stroke-width="0.980065" stroke-linecap="round" stroke-linejoin="round"/>
<path d="M101.406 56.1206C101.406 56.1206 104.545 58.9717 105.142 58.8312C105.739 58.6907 104.619 54.8081 104.619 54.8081" stroke="black" stroke-width="0.980065" stroke-linecap="round" stroke-linejoin="round"/>
<path d="M82.9624 52.0071C82.9624 52.0071 88.8904 52.7709 90.6544 53.6046" stroke="black" stroke-width="0.980065" stroke-linecap="round" stroke-linejoin="round"/>
<path d="M104.28 64.2349C104.032 65.3935 103.55 66.4848 102.864 67.4369L98.5537 63.0173" stroke="black" stroke-width="0.980065" stroke-linecap="round" stroke-linejoin="round"/>
<path d="M95.9857 60.0383C94.3764 62.6283 92.5958 65.1004 90.6566 67.437M90.6566 67.437C88.86 69.4246 87.6234 70.2111 87.1431 69.5996C86.6111 68.9253 87.6865 68.4433 88.1197 68.2173C88.9284 67.8428 89.7814 67.5804 90.6566 67.437Z" stroke="black" stroke-width="0.980065" stroke-linecap="round" stroke-linejoin="round"/>
<path d="M57.1118 43.5149C57.1118 44.0835 57.3305 44.6288 57.7197 45.0308C58.109 45.4329 58.6369 45.6588 59.1874 45.6588C59.7378 45.6588 60.2658 45.4329 60.655 45.0308C61.0443 44.6288 61.2629 44.0835 61.2629 43.5149C61.2629 42.9464 61.0443 42.4011 60.655 41.999C60.2658 41.597 59.7378 41.3711 59.1874 41.3711C58.6369 41.3711 58.109 41.597 57.7197 41.999C57.3305 42.4011 57.1118 42.9464 57.1118 43.5149Z" stroke="black" stroke-width="0.980065" stroke-linecap="round" stroke-linejoin="round"/>
<path d="M59.1052 41.3421C58.7968 40.0121 58.5789 38.6615 58.4531 37.3001C58.3346 35.5197 58.2403 33.0383 58.2403 33.0383L57.6323 33.1702C57.6525 35.2098 57.8002 37.2459 58.0746 39.2657C58.3292 40.6889 58.5208 41.4692 58.5208 41.4692L59.1052 41.3421Z" fill="black"/>
<path d="M59.187 43.5149C60.3304 44.7156 61.5526 45.8335 62.8449 46.8606C64.0229 47.717 64.7707 47.9949 64.9615 47.6118C65.1713 47.1895 64.545 47.0552 64.2881 46.9838C63.8142 46.8767 63.3287 46.835 62.8441 46.8598" stroke="black" stroke-width="0.980065" stroke-linecap="round" stroke-linejoin="round"/>
<path d="M93.633 71.7583C93.633 71.7583 90.3278 75.9973 89.9196 76.5884C88.9202 78.043 89.4796 78.6341 91.4928 80.9059C93.5061 83.1777 95.1294 85.2729 95.2548 86.9049" stroke="black" stroke-width="0.980065" stroke-linecap="round" stroke-linejoin="round"/>
<path d="M134.104 114.248C134.104 114.248 135.396 120.906 135.147 123.02H115.74" stroke="black" stroke-width="0.980065" stroke-linecap="round" stroke-linejoin="round"/>
<path d="M121.981 72.8081C123.134 71.6599 124.513 70.7823 126.025 70.2351C127.536 69.6879 129.144 69.484 130.738 69.6374C134.81 69.9514 139.89 74.3474 142.129 88.9249C144.367 103.502 143.907 123.02 143.907 123.02" stroke="black" stroke-width="0.980065" stroke-linecap="round" stroke-linejoin="round"/>
<path d="M135.147 123.02H148.582" stroke="black" stroke-width="0.980065" stroke-linecap="round" stroke-linejoin="round"/>
<path d="M128.924 72.2224C128.924 72.2224 132.444 72.9611 135.179 78.0793C140.561 88.1493 139.663 111.792 139.765 121.435" stroke="black" stroke-width="0.980065" stroke-linecap="round" stroke-linejoin="round"/>
<path d="M90.1903 123.258C90.1903 123.258 85.7906 125.692 85.061 130.21H101.143C101.018 129.341 100.719 128.508 100.263 127.765" stroke="black" stroke-width="0.980065" stroke-linecap="round" stroke-linejoin="round"/>
<path d="M88.2663 127.493C87.7916 128.334 87.4625 129.253 87.2935 130.21" stroke="black" stroke-width="0.980065" stroke-linecap="round" stroke-linejoin="round"/>
<path d="M20.2419 134.662H27.5037C28.3731 132.133 29.2076 123.093 29.409 120.793C29.4149 120.725 29.407 120.657 29.3858 120.592C29.3646 120.527 29.3306 120.468 29.2859 120.417C29.2412 120.367 29.1868 120.327 29.1262 120.299C29.0656 120.272 29.0001 120.258 28.934 120.258H13.4839C13.4178 120.258 13.3523 120.272 13.2916 120.299C13.231 120.327 13.1766 120.367 13.1318 120.417C13.0871 120.468 13.0529 120.527 13.0317 120.592C13.0104 120.657 13.0024 120.725 13.0082 120.793C13.2103 123.093 14.0448 132.133 14.9143 134.662H22.1761" stroke="black" stroke-width="0.980065" stroke-linecap="round" stroke-linejoin="round"/>
<path d="M16.0365 127.466C16.0365 127.466 15.0766 124.036 16.8588 123.754C18.641 123.471 15.7059 130.621 17.8247 130.55C19.9436 130.479 17.8871 123.949 19.4641 123.745C21.0411 123.541 19.8068 130.196 21.3831 130.267C22.9593 130.337 20.9719 124.011 22.8225 123.74C24.6731 123.469 23.3021 129.417 24.6731 129.628C26.0441 129.838 25.0979 126.229 26.7707 125.521" stroke="black" stroke-width="0.980065" stroke-linecap="round" stroke-linejoin="round"/>
<path d="M23.8877 120.258L25.8021 110.769L27.0706 111.042L25.2109 120.258" stroke="black" stroke-width="0.980065" stroke-linecap="round" stroke-linejoin="round"/>
<path d="M20.5818 120.035L19.1157 107.956L20.9542 107.722L22.421 120.052" stroke="black" stroke-width="0.980065" stroke-linecap="round" stroke-linejoin="round"/>
<path d="M15.9943 120.267L12.7263 109.26C12.6772 109.09 12.6953 108.907 12.7768 108.75C12.8583 108.594 12.9965 108.478 13.1611 108.426C13.2426 108.401 13.3281 108.393 13.4127 108.402C13.4973 108.411 13.5794 108.437 13.6543 108.478C13.7292 108.52 13.7954 108.577 13.8491 108.645C13.9028 108.713 13.943 108.791 13.9674 108.875L17.2354 120.133" stroke="black" stroke-width="0.980065" stroke-linecap="round" stroke-linejoin="round"/>
<path d="M26.0391 110.82L26.4943 108.563L27.2885 108.734L26.8325 110.991" stroke="black" stroke-width="0.980065" stroke-linecap="round" stroke-linejoin="round"/>
<path d="M19.293 109.451L21.1314 109.217" stroke="black" stroke-width="0.980065" stroke-linecap="round" stroke-linejoin="round"/>
<path d="M19.3813 110.197L21.2205 109.964" stroke="black" stroke-width="0.980065" stroke-linecap="round" stroke-linejoin="round"/>
<path d="M19.4702 110.943L21.3094 110.71" stroke="black" stroke-width="0.980065" stroke-linecap="round" stroke-linejoin="round"/>
<path d="M8.88672 134.662H13.7674" stroke="black" stroke-width="0.980065" stroke-linecap="round" stroke-linejoin="round"/>
<path d="M27.5039 134.662H29.8173" stroke="black" stroke-width="0.980065" stroke-linecap="round" stroke-linejoin="round"/>
<path d="M85.061 130.213C81.2245 130.012 77.3925 130.694 73.8427 132.21C63.6974 136.657 58.1008 131.739 51.9121 131.19C45.7234 130.64 39.9702 135.914 35.0842 133.725C30.1981 131.537 31.2082 124.776 28.9897 125.149" stroke="black" stroke-width="0.980065" stroke-linecap="round" stroke-linejoin="round"/>
<path d="M40.578 122.483C40.3875 123.877 40.348 125.289 40.4602 126.692C40.483 126.912 40.5837 127.115 40.7429 127.263C40.9021 127.411 41.1086 127.493 41.3228 127.493H59.2314C59.3448 127.184 59.3734 126.848 59.314 126.523C59.2546 126.198 59.1095 125.896 58.8947 125.65C58.1454 124.958 41.5819 122.086 40.578 122.483Z" stroke="black" stroke-width="0.980065" stroke-linecap="round" stroke-linejoin="round"/>
<path d="M51.3403 111.893C51.9552 111.972 52.3777 112.069 53.0701 112.172" stroke="black" stroke-width="0.980065" stroke-linecap="round" stroke-linejoin="round"/>
<path d="M40.5781 122.483L47.1901 111.959C47.2859 111.806 47.4208 111.684 47.5799 111.607C47.7389 111.529 47.9158 111.498 48.0907 111.518C48.492 111.564 49.0787 111.633 49.7977 111.724" stroke="black" stroke-width="0.980065" stroke-linecap="round" stroke-linejoin="round"/>
<path d="M59.2314 127.494L63.0573 119.279" stroke="black" stroke-width="0.980065" stroke-linecap="round" stroke-linejoin="round"/>
<path d="M58.8945 125.65L61.9003 119.219" stroke="black" stroke-width="0.980065" stroke-linecap="round" stroke-linejoin="round"/>
<path d="M43.7266 121.09L48.5564 113.123" stroke="black" stroke-width="0.980065" stroke-linecap="round" stroke-linejoin="round"/>
<path d="M55.1309 123.345L58.3046 115.991" stroke="black" stroke-width="0.980065" stroke-linecap="round" stroke-linejoin="round"/>
<path d="M46.6382 121.341L50.271 115.348" stroke="black" stroke-width="0.980065" stroke-linecap="round" stroke-linejoin="round"/>
<path d="M49.5493 122.093L51.9585 118.119" stroke="black" stroke-width="0.980065" stroke-linecap="round" stroke-linejoin="round"/>
<path d="M52.4619 122.845L54.0906 119.756" stroke="black" stroke-width="0.980065" stroke-linecap="round" stroke-linejoin="round"/>
<path d="M57.4902 124.027L59.1197 120.939" stroke="black" stroke-width="0.980065" stroke-linecap="round" stroke-linejoin="round"/>
<path d="M34.3794 113.743H43.7266" stroke="black" stroke-width="0.980065" stroke-linecap="round" stroke-linejoin="round"/>
<path d="M90.4297 113.743H96.3797" stroke="black" stroke-width="0.980065" stroke-linecap="round" stroke-linejoin="round"/>
<path d="M48.5566 97.3979H74.5958" stroke="black" stroke-width="0.980065" stroke-linecap="round" stroke-linejoin="round"/>
<path d="M38.587 31.411C38.587 37.0166 34.1881 42.0626 28.7609 42.0626C23.3338 42.0626 18.9341 37.0166 18.9341 31.411C18.9252 28.6929 19.95 26.0799 21.788 24.1347C23.6259 22.1894 26.13 21.0675 28.7609 21.0105C31.3918 21.0675 33.8958 22.1894 35.7336 24.1347C37.5715 26.08 38.5961 28.693 38.587 31.411Z" stroke="black" stroke-width="0.980065" stroke-linecap="round" stroke-linejoin="round"/>
<path d="M29.8558 31.5224C29.8626 31.6753 29.8392 31.8281 29.7872 31.9715C29.7352 32.1148 29.6556 32.2458 29.5532 32.3565C29.4508 32.4672 29.3277 32.5553 29.1915 32.6155C29.0552 32.6757 28.9085 32.7068 28.7603 32.7068C28.612 32.7068 28.4653 32.6757 28.3291 32.6155C28.1928 32.5553 28.0697 32.4672 27.9673 32.3565C27.8649 32.2458 27.7853 32.1148 27.7333 31.9715C27.6813 31.8281 27.658 31.6753 27.6647 31.5224C27.6609 31.3713 27.6863 31.2209 27.7397 31.0801C27.793 30.9394 27.8731 30.811 27.9752 30.7028C28.0773 30.5945 28.1994 30.5084 28.3342 30.4496C28.469 30.3909 28.6139 30.3606 28.7603 30.3606C28.9066 30.3606 29.0515 30.3909 29.1863 30.4496C29.3211 30.5084 29.4432 30.5945 29.5453 30.7028C29.6474 30.811 29.7275 30.9394 29.7808 31.0801C29.8342 31.2209 29.8596 31.3713 29.8558 31.5224Z" fill="black"/>
<path d="M30.2572 25.9812L28.7607 31.5366L31.4679 33.3751" stroke="black" stroke-width="0.980065" stroke-linecap="round" stroke-linejoin="round"/>
<path d="M115.807 41.5642L128.859 42.525" stroke="black" stroke-width="0.980065" stroke-linecap="round" stroke-linejoin="round"/>
<path d="M125.578 40.9331L118.749 66.1787" stroke="black" stroke-width="0.980065" stroke-linecap="round" stroke-linejoin="round"/>
<path d="M130.431 40.9331L122.874 67.9332" stroke="black" stroke-width="0.980065" stroke-linecap="round" stroke-linejoin="round"/>
<path d="M63.6606 74.7617H87.6455" stroke="black" stroke-width="0.980065" stroke-linecap="round" stroke-linejoin="round"/>
<path d="M30.9048 74.7617H36.4482" stroke="black" stroke-width="0.980065" stroke-linecap="round" stroke-linejoin="round"/>
<path d="M53.6758 74.7618H39.397C39.397 74.7618 41.7469 65.6401 43.273 61.4561" stroke="black" stroke-width="0.980065" stroke-linecap="round" stroke-linejoin="round"/>
<path d="M53.1647 65.8035L48.1138 81.6353C48.1138 81.6353 61.6228 82.301 63.4871 82.3458C65.2123 82.3874 67.1297 80.3958 69.2433 78.5377C69.3988 78.4004 69.5859 78.3066 69.7866 78.2654C69.9872 78.2241 70.1948 78.2368 70.3894 78.3022C71.5294 78.683 73.8208 79.5582 74.8734 80.7781" stroke="black" stroke-width="0.980065" stroke-linecap="round" stroke-linejoin="round"/>
<path d="M39.0525 76.8513C39.0525 76.8513 38.1564 83.2098 38.7074 85.7854C39.5434 89.6916 52.205 88.8131 62.5312 86.9009C63.5377 87.1472 64.5859 87.1472 65.5924 86.9009C66.9984 86.4652 66.949 84.9965 68.4044 84.9965C68.8706 85.0327 69.323 85.1768 69.7279 85.4182C70.1329 85.6595 70.48 85.9919 70.7437 86.3906" stroke="black" stroke-width="0.980065" stroke-linecap="round" stroke-linejoin="round"/>
<path d="M69.2974 83.1392C69.2974 83.1392 70.8478 83.2436 72.6649 85.1205" stroke="black" stroke-width="0.980065" stroke-linecap="round" stroke-linejoin="round"/>
<path d="M70.4224 81.3079C70.4224 81.3079 73.8424 82.0882 75.7142 84.5413" stroke="black" stroke-width="0.980065" stroke-linecap="round" stroke-linejoin="round"/>
<path d="M71.3818 80.1023C71.3818 80.1023 75.1233 81.5082 76.6205 82.9283" stroke="black" stroke-width="0.980065" stroke-linecap="round" stroke-linejoin="round"/>
<path d="M60.9551 80.6706C62.6401 70.3196 60.8791 56.4534 60.0257 55.4769C59.1722 54.5003 51.3282 49.3232 51.3282 49.3232C51.3282 49.3232 46.107 51.7198 43.8407 55.6496C41.5744 59.5793 39.397 72.9196 39.397 74.762" stroke="black" stroke-width="0.980065" stroke-linecap="round" stroke-linejoin="round"/>
<path d="M66.1664 49.418C65.8753 50.3372 61.4134 50.075 61.4134 50.075L59.4541 53.0729" stroke="black" stroke-width="0.980065" stroke-linecap="round" stroke-linejoin="round"/>
<path d="M66.7746 48.0427C67.0185 47.2186 67.1999 46.3761 67.3173 45.5229C67.4525 44.3454 68.4573 44.2629 68.4573 43.4819C68.4573 42.7008 66.7488 41.8859 66.6675 40.9337C66.5861 39.9815 67.6372 38.4217 66.4015 36.6359C66.4015 36.6359 67.9336 34.8492 65.9569 35.0533C65.9569 35.0533 66.6986 30.6628 62.7937 33.6749C62.7937 33.6749 57.9997 31.9392 55.3305 34.0328C54.6259 34.5816 54.0342 35.2699 53.5898 36.0574C53.1454 36.8449 52.8573 37.7159 52.7423 38.6197C52.6272 39.5234 52.6876 40.4418 52.9198 41.3212C53.152 42.2006 53.5514 43.0234 54.0948 43.7417" stroke="black" stroke-width="0.980065" stroke-linecap="round" stroke-linejoin="round"/>
<path d="M54.9114 45.4956L52.6694 49.1168" stroke="black" stroke-width="0.980065" stroke-linecap="round" stroke-linejoin="round"/>
<path d="M68.6343 87.3767H81.0626C81.0626 87.3767 80.9569 81.8433 77.9146 81.311" stroke="black" stroke-width="0.980065" stroke-linecap="round" stroke-linejoin="round"/>
</svg>
