<svg width="600" height="600" viewBox="0 0 600 600" fill="none" xmlns="http://www.w3.org/2000/svg">
<path d="M203.246 377.958C242.133 385.108 269.644 376.009 288.695 361.176C290.865 364.76 294.239 372.419 290.588 381.303C285.522 393.629 276.026 413.025 217.394 414.501C159.829 415.95 148.407 390.149 143.979 380.146C143.897 379.961 143.818 379.781 143.74 379.607C140.728 372.835 145.367 360.981 148.344 354.617C161.197 365.003 178.912 373.484 203.246 377.958ZM203.246 377.958C301.605 396.043 327.183 310.171 327.183 290.506C327.183 270.842 326.052 227.042 326.052 227.042C326.052 227.042 322.241 263.955 224.063 244.927M203.246 377.958C104.887 359.873 114.662 276.318 116.577 266.145C118.493 255.971 140.652 190.176 140.652 190.176M140.652 190.176C140.652 190.176 125.885 225.899 224.063 244.927M140.652 190.176C140.652 190.176 140.585 190.376 140.457 190.756M140.652 190.176C140.652 190.176 140.569 190.377 140.457 190.756M224.063 244.927C171.222 234.686 151.099 219.609 143.782 207.868C141.506 203.737 140.305 199.795 139.89 196.283C139.749 193.613 140.188 191.669 140.457 190.756M224.063 244.927C290.387 257.781 314.161 244.884 322.607 235.162C323.959 233.26 324.857 231.344 325.351 229.492C329.121 215.37 292.263 185.075 246.97 172.984C199.177 160.227 144.104 174.357 140.334 188.478C139.978 189.812 139.762 191.31 139.725 192.939C140.051 191.964 140.3 191.224 140.457 190.756M189.767 236.936C189.767 236.936 167.706 296.884 164.985 323.441C162.275 349.88 177.014 367.944 177.014 367.944M222.364 247.356C222.364 247.356 202.174 310.577 199.452 337.134C196.742 363.573 206.514 375.944 206.514 375.944M161.014 225.944C161.014 225.944 141.521 271.634 138.799 298.191C136.089 324.63 148.014 350.944 148.014 350.944M255.539 249.18C255.539 249.18 254.859 299.416 252.137 325.973C249.427 352.412 238.014 377.444 238.014 377.444M299.014 249.444C299.014 249.444 298.075 267.944 293.514 312.444C290.804 338.883 260.514 372.444 260.514 372.444M427.014 245.944C427.014 245.944 458.005 325.409 463.014 345.444C468.514 367.444 463.014 386.944 463.014 386.944M372.601 250.944C372.601 250.944 366.798 335.044 370.014 355.444C372.93 373.944 387.014 404.444 387.014 404.444M407.601 248.944C407.601 248.944 419.298 328.544 422.514 348.944C425.43 367.444 420.359 405.444 420.359 405.444M297.804 215.45C294.656 230.382 262.942 236.336 226.969 228.75C190.997 221.164 164.388 202.911 167.536 187.98C170.685 173.048 202.399 167.094 238.372 174.68C274.344 182.265 300.953 200.519 297.804 215.45ZM263.449 210.641C262.467 215.3 250.778 216.781 237.342 213.947C223.906 211.114 213.811 205.04 214.793 200.381C215.776 195.721 227.464 194.241 240.9 197.075C254.336 199.908 264.432 205.982 263.449 210.641ZM437.491 215.687C438.601 225.594 420.152 235.792 396.285 238.465C372.419 241.139 352.171 235.275 351.062 225.369C349.952 215.462 368.4 205.264 392.267 202.591C416.134 199.917 436.381 205.781 437.491 215.687ZM403.967 219.703C404.323 222.884 398.723 226.122 391.458 226.935C384.193 227.749 378.015 225.831 377.659 222.65C377.303 219.47 382.903 216.232 390.168 215.418C397.433 214.604 403.611 216.523 403.967 219.703ZM322.567 393.735C316.312 383.847 330.809 362.943 333.245 359.56C339.181 378.538 357.516 411.395 412.972 406.735C463.475 402.491 480.411 371.821 486.082 351.039C498.517 352.232 503.149 371.963 500.114 381.735C499.828 382.656 499.571 383.707 499.288 384.868C496.341 396.943 490.528 420.761 419.074 430.421C348.083 440.018 332.1 410.93 324.652 397.376C323.883 395.977 323.205 394.743 322.567 393.735ZM444.513 228.695C444.699 227.88 444.796 227.09 444.811 226.334L445.126 226.304L488.93 338.759C488.93 338.759 490.328 400.882 412.972 406.777C335.615 412.672 330.489 352.363 330.489 352.363L346.8 235.826L348.481 235.664C349.355 237.491 350.652 239.417 352.452 241.287C358.25 246.748 370.905 252.084 398.524 249.587C433.189 246.452 442.27 235.483 444.513 228.695Z" stroke="#1E1E1E" stroke-width="5"/>
</svg>
