<svg width="600" height="600" viewBox="0 0 600 600" fill="none" xmlns="http://www.w3.org/2000/svg">
<path d="M160.939 354.617C157.962 360.981 153.323 372.835 156.335 379.607C156.413 379.781 156.492 379.961 156.574 380.146C161.003 390.149 172.424 415.95 229.989 414.501C288.621 413.025 298.117 393.629 303.183 381.303C306.834 372.419 303.46 364.76 301.291 361.176C282.239 376.009 254.728 385.108 215.841 377.958C191.508 373.484 173.792 365.003 160.939 354.617Z" fill="#FFE790"/>
<path fill-rule="evenodd" clip-rule="evenodd" d="M335.202 235.162C336.554 233.26 337.452 231.344 337.947 229.492C341.716 215.37 304.859 185.075 259.565 172.984C211.772 160.227 156.699 174.357 152.929 188.478C152.573 189.812 152.357 191.31 152.32 192.939C152.647 191.964 152.895 191.224 153.052 190.756C152.783 191.669 152.345 193.613 152.485 196.283C152.901 199.795 154.102 203.737 156.377 207.868C163.694 219.609 183.818 234.686 236.659 244.927C302.982 257.781 326.757 244.884 335.202 235.162ZM153.052 190.756C153.18 190.376 153.248 190.176 153.248 190.176C153.248 190.176 153.165 190.377 153.052 190.756Z" fill="#FFE790"/>
<path fill-rule="evenodd" clip-rule="evenodd" d="M239.564 228.75C275.537 236.336 307.251 230.382 310.4 215.45C313.548 200.519 286.939 182.265 250.967 174.68C214.994 167.094 183.28 173.048 180.132 187.98C176.983 202.911 203.592 221.164 239.564 228.75ZM249.937 213.947C263.373 216.781 275.062 215.3 276.044 210.641C277.027 205.982 266.931 199.908 253.495 197.075C240.059 194.241 228.371 195.721 227.388 200.381C226.406 205.04 236.501 211.114 249.937 213.947Z" fill="#FFE790"/>
<path d="M153.248 190.176C153.248 190.176 153.165 190.377 153.052 190.756L153.248 190.176Z" fill="#FFE790"/>
<path fill-rule="evenodd" clip-rule="evenodd" d="M153.052 190.756C150.864 197.267 130.982 256.533 129.173 266.145C127.257 276.318 117.482 359.873 215.841 377.958C314.2 396.043 339.779 310.171 339.779 290.506C339.779 270.842 338.647 227.042 338.647 227.042C338.647 227.042 335.771 254.906 270.627 249.737L270.626 249.788C270.62 250.164 270.611 250.718 270.599 251.432C270.575 252.861 270.538 254.93 270.485 257.496C270.378 262.628 270.208 269.747 269.953 277.698C269.442 293.577 268.59 312.853 267.219 326.228C265.838 339.698 262.249 352.757 259.026 362.415C257.411 367.252 255.882 371.255 254.754 374.054C254.189 375.454 253.725 376.554 253.401 377.307C253.238 377.683 253.111 377.973 253.023 378.171C252.979 378.27 252.945 378.346 252.922 378.398L252.895 378.458L252.885 378.479L252.884 378.48C252.884 378.481 252.884 378.481 250.609 377.444L248.88 376.656C248.334 376.407 248.334 376.407 248.334 376.407L248.335 376.405L248.34 376.394L248.362 376.346C248.382 376.301 248.413 376.233 248.453 376.142C248.534 375.96 248.654 375.687 248.809 375.327C249.119 374.608 249.568 373.545 250.116 372.185C251.213 369.464 252.706 365.557 254.283 360.832C257.443 351.363 260.916 338.687 262.245 325.718C263.596 312.535 264.445 293.415 264.955 277.537C265.21 269.61 265.38 262.51 265.486 257.392C265.539 254.834 265.576 252.771 265.6 251.348C265.612 250.637 265.621 250.086 265.626 249.713L265.633 249.289L265.633 249.287C257.027 248.423 247.408 247.011 236.659 244.927C145.843 227.326 151.668 195.44 153.052 190.756ZM175.093 323.186C173.684 336.93 176.812 348.487 180.28 356.591C182.014 360.645 183.839 363.849 185.239 366.05C185.939 367.152 186.535 368.004 186.961 368.589C187.174 368.882 187.345 369.108 187.467 369.264C187.509 369.319 187.545 369.366 187.575 369.403L187.61 369.447L187.651 369.499L187.664 369.516L187.671 369.523C187.671 369.524 187.672 369.525 189.609 367.945C191.546 366.364 191.547 366.365 191.547 366.365L191.546 366.363L191.524 366.336C191.503 366.31 191.469 366.266 191.422 366.206C191.329 366.085 191.186 365.897 191.001 365.644C190.632 365.138 190.097 364.373 189.458 363.368C188.179 361.356 186.488 358.391 184.877 354.624C181.652 347.087 178.765 336.392 180.067 323.696C181.397 310.717 187.506 289.333 193.373 270.992C196.292 261.865 199.127 253.564 201.233 247.544C202.285 244.534 203.155 242.096 203.761 240.411C204.064 239.568 204.302 238.914 204.463 238.472L204.708 237.802L204.708 237.8C204.708 237.8 204.708 237.8 202.362 236.937C200.016 236.073 200.016 236.074 200.016 236.074L200.015 236.076L199.951 236.25C199.909 236.365 199.846 236.537 199.765 236.761C199.601 237.209 199.362 237.869 199.057 238.718C198.446 240.415 197.571 242.868 196.513 245.893C194.397 251.943 191.547 260.288 188.61 269.469C182.766 287.74 176.484 309.609 175.093 323.186ZM232.578 246.596C232.578 246.596 232.578 246.595 234.96 247.356C237.341 248.117 237.341 248.117 237.341 248.117L237.34 248.119L237.284 248.296C237.246 248.415 237.19 248.593 237.116 248.827C236.968 249.294 236.75 249.983 236.473 250.871C235.917 252.647 235.119 255.214 234.153 258.379C232.222 264.709 229.618 273.424 226.931 282.964C221.533 302.123 215.87 324.361 214.534 337.389C213.216 350.254 214.941 359.604 216.937 365.673C217.937 368.712 219.008 370.94 219.81 372.384C220.211 373.107 220.546 373.633 220.77 373.967C220.882 374.134 220.967 374.253 221.019 374.324L221.051 374.368L221.072 374.395L221.073 374.397C221.072 374.396 221.071 374.395 219.109 375.944C217.147 377.494 217.146 377.493 217.145 377.492L217.138 377.483L217.126 377.467C217.117 377.455 217.105 377.439 217.091 377.421L217.067 377.389C217.043 377.357 217.014 377.319 216.981 377.274C216.892 377.151 216.769 376.978 216.619 376.755C216.32 376.309 215.912 375.663 215.439 374.812C214.494 373.111 213.292 370.594 212.187 367.235C209.975 360.508 208.169 350.453 209.56 336.879C210.947 323.35 216.74 300.699 222.118 281.608C224.818 272.024 227.432 263.273 229.371 256.92C230.341 253.742 231.142 251.163 231.701 249.377C231.98 248.485 232.199 247.79 232.349 247.318C232.423 247.082 232.48 246.902 232.519 246.781L232.577 246.599L232.578 246.596ZM148.907 297.936C147.509 311.575 149.887 325.093 152.57 335.128C153.916 340.161 155.348 344.353 156.446 347.294C156.996 348.765 157.462 349.925 157.794 350.722C157.96 351.121 158.092 351.429 158.184 351.64C158.229 351.745 158.265 351.827 158.29 351.883L158.32 351.949L158.328 351.967L158.331 351.975C158.332 351.975 158.332 351.976 160.609 350.944C162.886 349.912 162.886 349.913 162.887 349.913L162.886 349.912L162.881 349.901L162.86 349.853C162.84 349.808 162.809 349.738 162.768 349.645C162.687 349.457 162.565 349.174 162.41 348.802C162.1 348.056 161.656 346.954 161.13 345.545C160.077 342.725 158.698 338.687 157.401 333.836C154.799 324.105 152.569 311.246 153.881 298.446C155.209 285.493 160.668 267.68 165.879 252.942C168.473 245.609 170.982 239.099 172.844 234.423C173.774 232.085 174.542 230.207 175.076 228.915C175.344 228.269 175.553 227.77 175.694 227.433C175.765 227.264 175.819 227.136 175.855 227.051L175.896 226.955L175.908 226.927L175.909 226.925C175.909 226.925 175.905 226.924 173.941 226.086L173.609 225.944C171.31 224.963 171.31 224.963 171.309 224.964L171.294 224.999L171.251 225.101C171.213 225.19 171.158 225.322 171.085 225.495C170.94 225.84 170.727 226.348 170.456 227.003C169.914 228.314 169.138 230.213 168.198 232.574C166.319 237.294 163.786 243.866 161.165 251.275C155.95 266.022 150.301 284.332 148.907 297.936ZM303.622 312.189C302.335 324.746 294.407 339.302 286.522 350.958C282.616 356.732 278.791 361.695 275.941 365.214C274.518 366.973 273.34 368.368 272.52 369.321C272.111 369.797 271.791 370.162 271.575 370.407C271.467 370.53 271.385 370.622 271.331 370.682L271.271 370.75L271.254 370.769C271.254 370.769 271.253 370.769 273.109 372.444C274.965 374.119 274.965 374.119 274.966 374.118L274.968 374.116L274.992 374.09L275.061 374.012C275.122 373.944 275.21 373.845 275.325 373.715C275.554 373.455 275.888 373.074 276.312 372.581C277.159 371.595 278.369 370.161 279.827 368.36C282.742 364.761 286.658 359.681 290.664 353.76C298.601 342.026 307.173 326.582 308.596 312.699C310.878 290.432 312.255 274.662 313.062 264.454C313.465 259.349 313.726 255.635 313.886 253.194C313.966 251.973 314.021 251.071 314.056 250.472C314.073 250.172 314.086 249.949 314.094 249.799L314.103 249.63L314.105 249.587L314.106 249.576L314.106 249.572C314.106 249.572 314.106 249.571 311.609 249.444L309.112 249.317L309.112 249.32L309.11 249.367L309.101 249.527C309.093 249.67 309.081 249.887 309.064 250.18C309.03 250.767 308.976 251.658 308.897 252.867C308.738 255.285 308.479 258.977 308.077 264.06C307.274 274.226 305.901 289.957 303.622 312.189Z" fill="#FFE790"/>
<path fill-rule="evenodd" clip-rule="evenodd" d="M408.881 238.465C432.747 235.792 451.196 225.594 450.086 215.687C448.976 205.781 428.729 199.917 404.862 202.591C380.995 205.264 362.547 215.462 363.657 225.369C364.766 235.275 385.014 241.139 408.881 238.465ZM404.053 226.935C411.318 226.122 416.918 222.884 416.562 219.703C416.206 216.523 410.028 214.604 402.763 215.418C395.498 216.232 389.898 219.47 390.254 222.65C390.611 225.831 396.789 227.749 404.053 226.935Z" fill="#FFE790"/>
<path d="M345.84 359.56C343.404 362.943 328.907 383.847 335.163 393.735C335.801 394.743 336.478 395.977 337.247 397.376C344.695 410.93 360.678 440.018 431.669 430.421C503.123 420.761 508.936 396.943 511.883 384.868C512.166 383.707 512.423 382.656 512.709 381.735C515.745 371.963 511.112 352.232 498.678 351.039C493.006 371.821 476.07 402.491 425.567 406.735C370.111 411.395 351.776 378.538 345.84 359.56Z" fill="#FFE790"/>
<path fill-rule="evenodd" clip-rule="evenodd" d="M457.108 228.695C457.295 227.88 457.391 227.09 457.407 226.335L457.721 226.304L501.525 338.76C501.525 338.76 502.801 395.469 435.447 405.664L435.447 405.66L435.458 405.579C435.466 405.513 435.477 405.431 435.49 405.332C435.527 405.046 435.58 404.624 435.647 404.082C435.781 402.998 435.969 401.432 436.185 399.495C436.618 395.623 437.163 390.265 437.618 384.322C438.52 372.522 439.088 358.128 437.579 348.555C435.973 338.369 432.247 313.383 428.92 290.928C427.257 279.704 425.694 269.117 424.547 261.336C423.974 257.446 423.504 254.257 423.178 252.041L422.67 248.584L422.67 248.582C422.669 248.581 422.669 248.581 420.196 248.944C417.723 249.308 417.723 249.308 417.723 249.309L418.232 252.768C418.558 254.985 419.027 258.174 419.601 262.065C420.748 269.847 422.31 280.435 423.974 291.661C427.299 314.106 431.03 339.119 432.64 349.334C434.047 358.261 433.537 372.116 432.632 383.941C432.184 389.811 431.644 395.109 431.216 398.94C431.003 400.855 430.817 402.402 430.685 403.468C430.619 404.002 430.567 404.415 430.531 404.694C430.513 404.833 430.499 404.939 430.49 405.009L430.476 405.112C430.476 405.113 430.476 405.114 432.954 405.444C434.103 405.598 434.719 405.68 435.05 405.724C432.028 406.171 428.869 406.525 425.567 406.777C348.211 412.672 343.085 352.363 343.085 352.363L359.395 235.827L361.076 235.664C361.95 237.491 363.247 239.417 365.048 241.287C370.845 246.748 383.5 252.084 411.12 249.587C445.784 246.452 454.865 235.484 457.108 228.695ZM473.184 346.051C475.847 356.703 475.852 366.782 475.182 374.22C474.847 377.933 474.345 380.97 473.93 383.069C473.723 384.117 473.537 384.93 473.405 385.475C473.339 385.747 473.287 385.951 473.252 386.085C473.234 386.151 473.221 386.2 473.213 386.23L473.203 386.267C473.203 386.266 473.203 386.266 475.609 386.944C478.015 387.623 478.016 387.622 478.016 387.621L478.016 387.619L478.022 387.598L478.037 387.545C478.045 387.514 478.056 387.475 478.069 387.427L478.087 387.355C478.13 387.192 478.191 386.956 478.264 386.652C478.412 386.044 478.613 385.162 478.835 384.039C479.279 381.794 479.809 378.581 480.162 374.669C480.866 366.856 480.872 356.186 478.035 344.838C475.487 334.649 466.423 309.613 458.072 287.305C453.882 276.111 449.849 265.544 446.863 257.777C445.371 253.893 444.14 250.709 443.282 248.495C442.853 247.388 442.517 246.523 442.289 245.936L441.94 245.04L441.939 245.037C441.938 245.036 441.938 245.036 439.609 245.944C437.28 246.853 437.28 246.853 437.28 246.854L437.281 246.856L437.628 247.748C437.856 248.334 438.191 249.196 438.62 250.301C439.476 252.511 440.705 255.692 442.196 259.571C445.178 267.329 449.206 277.881 453.39 289.058C461.787 311.491 470.722 336.205 473.184 346.051ZM389.874 387.792C385.985 377.845 381.644 365.375 380.14 355.834C379.299 350.5 379.065 341.219 379.157 330.489C379.249 319.693 379.674 307.234 380.199 295.433C380.724 283.629 381.35 272.465 381.844 264.254C382.091 260.147 382.306 256.778 382.458 254.435C382.535 253.264 382.595 252.349 382.637 251.726C382.658 251.415 382.674 251.177 382.685 251.016L382.702 250.773C382.702 250.773 382.702 250.772 385.196 250.944C387.69 251.116 387.69 251.117 387.69 251.117L387.674 251.356C387.663 251.515 387.647 251.752 387.626 252.061C387.584 252.681 387.524 253.592 387.448 254.76C387.296 257.096 387.082 260.457 386.835 264.554C386.342 272.749 385.718 283.885 385.194 295.656C384.67 307.429 384.248 319.821 384.157 330.531C384.065 341.307 384.312 350.189 385.079 355.055C386.491 364.014 390.65 376.044 394.531 385.972C396.46 390.905 398.3 395.267 399.657 398.395C400.335 399.958 400.892 401.212 401.279 402.073C401.472 402.504 401.623 402.837 401.725 403.061C401.776 403.173 401.815 403.257 401.841 403.314L401.879 403.396L399.609 404.444C397.339 405.492 397.339 405.492 397.339 405.492L397.339 405.49L397.336 405.485L397.328 405.467L397.296 405.399C397.269 405.339 397.228 405.25 397.175 405.134C397.07 404.902 396.915 404.561 396.718 404.122C396.323 403.243 395.757 401.97 395.07 400.385C393.695 397.216 391.831 392.796 389.874 387.792Z" fill="#FFE790"/>
<path d="M203.246 377.958C242.133 385.108 269.644 376.009 288.695 361.176C290.865 364.76 294.239 372.419 290.588 381.303C285.522 393.629 276.026 413.025 217.394 414.501C159.829 415.95 148.407 390.149 143.979 380.146C143.897 379.961 143.818 379.781 143.74 379.607C140.728 372.835 145.367 360.981 148.344 354.617C161.197 365.003 178.912 373.484 203.246 377.958ZM203.246 377.958C301.605 396.043 327.183 310.171 327.183 290.506C327.183 270.842 326.052 227.042 326.052 227.042C326.052 227.042 322.241 263.955 224.063 244.927M203.246 377.958C104.887 359.873 114.662 276.318 116.577 266.145C118.493 255.971 140.652 190.176 140.652 190.176M140.652 190.176C140.652 190.176 125.885 225.899 224.063 244.927M140.652 190.176C140.652 190.176 140.585 190.376 140.457 190.756M140.652 190.176C140.652 190.176 140.569 190.377 140.457 190.756M224.063 244.927C171.222 234.686 151.099 219.609 143.782 207.868C141.506 203.737 140.305 199.795 139.89 196.283C139.749 193.613 140.188 191.669 140.457 190.756M224.063 244.927C290.387 257.781 314.161 244.884 322.607 235.162C323.959 233.26 324.857 231.344 325.351 229.492C329.121 215.37 292.263 185.075 246.97 172.984C199.177 160.227 144.104 174.357 140.334 188.478C139.978 189.812 139.762 191.31 139.725 192.939C140.051 191.964 140.3 191.224 140.457 190.756M189.767 236.936C189.767 236.936 167.706 296.884 164.985 323.441C162.275 349.88 177.014 367.944 177.014 367.944M222.364 247.356C222.364 247.356 202.174 310.577 199.452 337.134C196.742 363.573 206.514 375.944 206.514 375.944M161.014 225.944C161.014 225.944 141.521 271.634 138.799 298.191C136.089 324.63 148.014 350.944 148.014 350.944M255.539 249.18C255.539 249.18 254.859 299.416 252.137 325.973C249.427 352.412 238.014 377.444 238.014 377.444M299.014 249.444C299.014 249.444 298.075 267.944 293.514 312.444C290.804 338.883 260.514 372.444 260.514 372.444M427.014 245.944C427.014 245.944 458.005 325.409 463.014 345.444C468.514 367.444 463.014 386.944 463.014 386.944M372.601 250.944C372.601 250.944 366.798 335.044 370.014 355.444C372.93 373.944 387.014 404.444 387.014 404.444M407.601 248.944C407.601 248.944 419.298 328.544 422.514 348.944C425.43 367.444 420.359 405.444 420.359 405.444M297.804 215.45C294.656 230.382 262.942 236.336 226.969 228.75C190.997 221.164 164.388 202.911 167.536 187.98C170.685 173.048 202.399 167.094 238.372 174.68C274.344 182.265 300.953 200.519 297.804 215.45ZM263.449 210.641C262.467 215.3 250.778 216.781 237.342 213.947C223.906 211.114 213.811 205.04 214.793 200.381C215.776 195.721 227.464 194.241 240.9 197.075C254.336 199.908 264.432 205.982 263.449 210.641ZM437.491 215.687C438.601 225.594 420.152 235.792 396.285 238.465C372.419 241.139 352.171 235.275 351.062 225.369C349.952 215.462 368.4 205.264 392.267 202.591C416.134 199.917 436.381 205.781 437.491 215.687ZM403.967 219.703C404.323 222.884 398.723 226.122 391.458 226.935C384.193 227.749 378.015 225.831 377.659 222.65C377.303 219.47 382.903 216.232 390.168 215.418C397.433 214.604 403.611 216.523 403.967 219.703ZM322.567 393.735C316.312 383.847 330.809 362.943 333.245 359.56C339.181 378.538 357.516 411.395 412.972 406.735C463.475 402.491 480.411 371.821 486.082 351.039C498.517 352.232 503.149 371.963 500.114 381.735C499.828 382.656 499.571 383.707 499.288 384.868C496.341 396.943 490.528 420.761 419.074 430.421C348.083 440.018 332.1 410.93 324.652 397.376C323.883 395.977 323.205 394.743 322.567 393.735ZM444.513 228.695C444.699 227.88 444.796 227.09 444.811 226.334L445.126 226.304L488.93 338.759C488.93 338.759 490.328 400.882 412.972 406.777C335.615 412.672 330.489 352.363 330.489 352.363L346.8 235.826L348.481 235.664C349.355 237.491 350.652 239.417 352.452 241.287C358.25 246.748 370.905 252.084 398.524 249.587C433.189 246.452 442.27 235.483 444.513 228.695Z" stroke="#1E1E1E" stroke-width="5"/>
</svg>
