<svg width="529" height="368" viewBox="0 0 529 368" fill="none" xmlns="http://www.w3.org/2000/svg">
<rect width="529" height="368" fill="white"/>
<path d="M28.6866 30.1261V27.9173H40.2917V30.1261H35.796V42.4628H33.1824V30.1261H28.6866ZM43.6702 42.6829C42.9789 42.6829 42.3562 42.5598 41.8023 42.3136C41.253 42.0627 40.8174 41.6934 40.4954 41.2057C40.1782 40.718 40.0196 40.1167 40.0196 39.4017C40.0196 38.7862 40.1332 38.2772 40.3605 37.8747C40.5878 37.4722 40.8979 37.1503 41.2909 36.9088C41.6839 36.6673 42.1266 36.485 42.619 36.3619C43.1162 36.2341 43.6299 36.1417 44.1602 36.0849C44.7994 36.0186 45.3179 35.9595 45.7156 35.9074C46.1133 35.8506 46.4022 35.7653 46.5821 35.6517C46.7667 35.5333 46.8591 35.351 46.8591 35.1048V35.0622C46.8591 34.5272 46.7005 34.1129 46.3832 33.8193C46.066 33.5257 45.6091 33.379 45.0125 33.379C44.3827 33.379 43.8832 33.5163 43.5139 33.7909C43.1493 34.0655 42.9031 34.3899 42.7753 34.7639L40.3747 34.423C40.5641 33.7601 40.8766 33.2061 41.3122 32.7611C41.7478 32.3113 42.2805 31.9751 42.9102 31.7525C43.5399 31.5253 44.236 31.4116 44.9983 31.4116C45.5238 31.4116 46.047 31.4732 46.5679 31.5963C47.0887 31.7194 47.5646 31.923 47.9954 32.2071C48.4263 32.4864 48.772 32.8676 49.0324 33.3506C49.2975 33.8335 49.4301 34.4372 49.4301 35.1616V42.4628H46.9585V40.9642H46.8733C46.717 41.2672 46.4969 41.5513 46.2128 41.8165C45.9334 42.0769 45.5807 42.2876 45.1545 42.4486C44.7331 42.6048 44.2383 42.6829 43.6702 42.6829ZM44.3378 40.7937C44.8539 40.7937 45.3013 40.6919 45.6801 40.4883C46.0589 40.28 46.3501 40.0054 46.5537 39.6645C46.762 39.3236 46.8662 38.9519 46.8662 38.5494V37.2639C46.7857 37.3302 46.6484 37.3917 46.4542 37.4486C46.2648 37.5054 46.0518 37.5551 45.815 37.5977C45.5783 37.6403 45.3439 37.6782 45.1119 37.7113C44.8799 37.7445 44.6787 37.7729 44.5082 37.7966C44.1247 37.8487 43.7814 37.9339 43.4784 38.0523C43.1754 38.1706 42.9363 38.3363 42.7611 38.5494C42.5859 38.7577 42.4983 39.0276 42.4983 39.3591C42.4983 39.8326 42.6711 40.19 43.0167 40.4315C43.3624 40.673 43.8027 40.7937 44.3378 40.7937ZM51.729 42.4628V27.9173H54.3V33.3577H54.4065C54.5391 33.0925 54.7261 32.8108 54.9676 32.5125C55.2091 32.2095 55.5358 31.9514 55.9477 31.7383C56.3596 31.5205 56.8852 31.4116 57.5244 31.4116C58.3672 31.4116 59.1272 31.6271 59.8042 32.0579C60.4861 32.4841 61.0258 33.1162 61.4236 33.9542C61.826 34.7876 62.0273 35.8103 62.0273 37.0224C62.0273 38.2203 61.8308 39.2383 61.4378 40.0764C61.0448 40.9145 60.5097 41.5537 59.8327 41.994C59.1556 42.4344 58.3885 42.6545 57.5315 42.6545C56.9065 42.6545 56.3881 42.5504 55.9761 42.342C55.5642 42.1337 55.2327 41.8827 54.9818 41.5892C54.7356 41.2909 54.5438 41.0092 54.4065 40.744H54.2574V42.4628H51.729ZM54.2503 37.0082C54.2503 37.7137 54.3497 38.3316 54.5486 38.8619C54.7522 39.3922 55.0434 39.8065 55.4221 40.1048C55.8057 40.3984 56.2697 40.5452 56.8142 40.5452C57.3824 40.5452 57.8582 40.3936 58.2417 40.0906C58.6253 39.7828 58.9141 39.3638 59.1082 38.8335C59.3071 38.2985 59.4065 37.69 59.4065 37.0082C59.4065 36.3311 59.3095 35.7298 59.1153 35.2042C58.9212 34.6787 58.6324 34.2667 58.2488 33.9684C57.8653 33.6702 57.3871 33.521 56.8142 33.521C56.2649 33.521 55.7986 33.6654 55.415 33.9542C55.0315 34.2431 54.7403 34.6479 54.5415 35.1687C54.3473 35.6896 54.2503 36.3027 54.2503 37.0082ZM72.4351 34.4372L70.0914 34.6929C70.0251 34.4561 69.9091 34.2336 69.7434 34.0253C69.5824 33.8169 69.3646 33.6488 69.09 33.521C68.8153 33.3932 68.4792 33.3292 68.0814 33.3292C67.5464 33.3292 67.0966 33.4452 66.732 33.6773C66.3722 33.9093 66.1946 34.2099 66.1993 34.5792C66.1946 34.8965 66.3106 35.1545 66.5474 35.3534C66.7888 35.5523 67.1866 35.7156 67.7405 35.8435L69.6013 36.2412C70.6335 36.4637 71.4006 36.8165 71.9025 37.2994C72.4091 37.7824 72.6648 38.4145 72.6695 39.1957C72.6648 39.8823 72.4635 40.4883 72.0658 41.0139C71.6728 41.5347 71.126 41.9419 70.4252 42.2355C69.7244 42.5291 68.9195 42.6758 68.0104 42.6758C66.6752 42.6758 65.6004 42.3965 64.786 41.8378C63.9716 41.2743 63.4863 40.4907 63.33 39.4869L65.8371 39.2454C65.9508 39.7379 66.1922 40.1095 66.5616 40.3605C66.9309 40.6114 67.4115 40.7369 68.0033 40.7369C68.6141 40.7369 69.1042 40.6114 69.4735 40.3605C69.8475 40.1095 70.0346 39.7994 70.0346 39.4301C70.0346 39.1176 69.9138 38.8595 69.6724 38.656C69.4356 38.4524 69.0663 38.2961 68.5644 38.1872L66.7036 37.7966C65.6572 37.5788 64.8831 37.2118 64.3812 36.6957C63.8793 36.1749 63.6307 35.5167 63.6354 34.7213C63.6307 34.0489 63.813 33.4666 64.1823 32.9741C64.5563 32.477 65.0748 32.0935 65.7377 31.8236C66.4053 31.5489 67.1747 31.4116 68.0459 31.4116C69.3243 31.4116 70.3305 31.6839 71.0644 32.2284C71.803 32.7729 72.2599 33.5092 72.4351 34.4372Z" fill="black" fill-opacity="0.8"/>
<rect x="36.5" y="72.5" width="234" height="146" rx="4.5" stroke="#9747FF" stroke-dasharray="10 5"/>
<path d="M82.0771 116H80.6689V107.216H77.6338V106.006H85.1055V107.216H82.0771V116ZM89.3438 108.337C90.2734 108.337 90.9684 108.544 91.4287 108.959C91.889 109.369 92.1191 110.019 92.1191 110.907V116H91.1348L90.8682 114.906H90.8135C90.6038 115.18 90.3851 115.408 90.1572 115.59C89.9294 115.772 89.665 115.909 89.3643 116C89.068 116.091 88.7057 116.137 88.2773 116.137C87.8216 116.137 87.416 116.055 87.0605 115.891C86.7051 115.727 86.4248 115.48 86.2197 115.152C86.0192 114.82 85.9189 114.398 85.9189 113.888C85.9189 113.122 86.2129 112.541 86.8008 112.145C87.3887 111.748 88.2796 111.532 89.4736 111.495L90.7725 111.44V111.017C90.7725 110.429 90.6403 110.014 90.376 109.772C90.1162 109.531 89.7516 109.41 89.2822 109.41C88.8949 109.41 88.5234 109.467 88.168 109.581C87.8125 109.69 87.4707 109.823 87.1426 109.978L86.7051 108.979C87.0605 108.797 87.4639 108.645 87.915 108.521C88.3708 108.398 88.847 108.337 89.3438 108.337ZM90.7588 112.343L89.7061 112.391C88.8356 112.423 88.2227 112.568 87.8672 112.828C87.5163 113.083 87.3408 113.441 87.3408 113.901C87.3408 114.302 87.4616 114.596 87.7031 114.783C87.9447 114.97 88.2637 115.063 88.6602 115.063C89.2708 115.063 89.7721 114.893 90.1641 114.551C90.5605 114.204 90.7588 113.694 90.7588 113.02V112.343ZM95.79 105.363V107.975C95.79 108.275 95.7809 108.569 95.7627 108.856C95.749 109.144 95.7354 109.365 95.7217 109.52H95.79C95.9951 109.191 96.2845 108.913 96.6582 108.686C97.0365 108.453 97.5218 108.337 98.1143 108.337C99.0303 108.337 99.764 108.665 100.315 109.321C100.867 109.973 101.143 110.941 101.143 112.227C101.143 113.074 101.015 113.79 100.76 114.373C100.509 114.956 100.154 115.396 99.6934 115.692C99.2376 115.989 98.6999 116.137 98.0801 116.137C97.4922 116.137 97.016 116.03 96.6514 115.815C96.2868 115.597 96.002 115.337 95.7969 115.036H95.6943L95.4346 116H94.416V105.363H95.79ZM97.8066 109.465C97.3099 109.465 96.9134 109.563 96.6172 109.759C96.3255 109.955 96.1159 110.251 95.9883 110.647C95.8607 111.044 95.7946 111.543 95.79 112.145V112.247C95.79 113.14 95.9359 113.824 96.2275 114.298C96.5192 114.772 97.0479 115.009 97.8135 115.009C98.4424 115.009 98.9186 114.767 99.2422 114.284C99.5703 113.801 99.7344 113.111 99.7344 112.213C99.7344 111.301 99.5726 110.616 99.249 110.155C98.9255 109.695 98.4447 109.465 97.8066 109.465ZM108.074 116H106.693V105.363H108.074V116ZM113.297 108.337C114.227 108.337 114.922 108.544 115.382 108.959C115.842 109.369 116.072 110.019 116.072 110.907V116H115.088L114.821 114.906H114.767C114.557 115.18 114.338 115.408 114.11 115.59C113.882 115.772 113.618 115.909 113.317 116C113.021 116.091 112.659 116.137 112.23 116.137C111.775 116.137 111.369 116.055 111.014 115.891C110.658 115.727 110.378 115.48 110.173 115.152C109.972 114.82 109.872 114.398 109.872 113.888C109.872 113.122 110.166 112.541 110.754 112.145C111.342 111.748 112.233 111.532 113.427 111.495L114.726 111.44V111.017C114.726 110.429 114.593 110.014 114.329 109.772C114.069 109.531 113.705 109.41 113.235 109.41C112.848 109.41 112.477 109.467 112.121 109.581C111.766 109.69 111.424 109.823 111.096 109.978L110.658 108.979C111.014 108.797 111.417 108.645 111.868 108.521C112.324 108.398 112.8 108.337 113.297 108.337ZM114.712 112.343L113.659 112.391C112.789 112.423 112.176 112.568 111.82 112.828C111.469 113.083 111.294 113.441 111.294 113.901C111.294 114.302 111.415 114.596 111.656 114.783C111.898 114.97 112.217 115.063 112.613 115.063C113.224 115.063 113.725 114.893 114.117 114.551C114.514 114.204 114.712 113.694 114.712 113.02V112.343ZM119.743 105.363V107.975C119.743 108.275 119.734 108.569 119.716 108.856C119.702 109.144 119.688 109.365 119.675 109.52H119.743C119.948 109.191 120.238 108.913 120.611 108.686C120.99 108.453 121.475 108.337 122.067 108.337C122.983 108.337 123.717 108.665 124.269 109.321C124.82 109.973 125.096 110.941 125.096 112.227C125.096 113.074 124.968 113.79 124.713 114.373C124.462 114.956 124.107 115.396 123.646 115.692C123.191 115.989 122.653 116.137 122.033 116.137C121.445 116.137 120.969 116.03 120.604 115.815C120.24 115.597 119.955 115.337 119.75 115.036H119.647L119.388 116H118.369V105.363H119.743ZM121.76 109.465C121.263 109.465 120.867 109.563 120.57 109.759C120.279 109.955 120.069 110.251 119.941 110.647C119.814 111.044 119.748 111.543 119.743 112.145V112.247C119.743 113.14 119.889 113.824 120.181 114.298C120.472 114.772 121.001 115.009 121.767 115.009C122.396 115.009 122.872 114.767 123.195 114.284C123.523 113.801 123.688 113.111 123.688 112.213C123.688 111.301 123.526 110.616 123.202 110.155C122.879 109.695 122.398 109.465 121.76 109.465ZM129.963 108.33C130.619 108.33 131.182 108.471 131.651 108.754C132.121 109.032 132.481 109.426 132.731 109.937C132.982 110.447 133.107 111.049 133.107 111.741V112.521H127.994C128.008 113.327 128.215 113.947 128.616 114.38C129.017 114.808 129.58 115.022 130.305 115.022C130.783 115.022 131.209 114.977 131.583 114.886C131.957 114.795 132.344 114.66 132.745 114.482V115.638C132.367 115.811 131.986 115.936 131.604 116.014C131.225 116.096 130.772 116.137 130.243 116.137C129.514 116.137 128.874 115.991 128.322 115.699C127.775 115.408 127.349 114.977 127.044 114.407C126.739 113.833 126.586 113.127 126.586 112.288C126.586 111.459 126.725 110.75 127.003 110.162C127.281 109.57 127.673 109.116 128.179 108.802C128.685 108.487 129.279 108.33 129.963 108.33ZM129.956 109.396C129.4 109.396 128.953 109.579 128.616 109.943C128.279 110.303 128.081 110.821 128.021 111.495H131.727C131.722 111.08 131.656 110.716 131.528 110.401C131.401 110.087 131.207 109.841 130.947 109.663C130.692 109.485 130.362 109.396 129.956 109.396ZM136.361 116H134.98V105.363H136.361V116Z" fill="#666666"/>
<mask id="path-4-inside-1_19_922" fill="white">
<path d="M53 151H162V199H53V151Z"/>
</mask>
<path d="M162 197H53V201H162V197Z" fill="#024DC0" mask="url(#path-4-inside-1_19_922)"/>
<path d="M82.0771 180H80.6689V171.216H77.6338V170.006H85.1055V171.216H82.0771V180ZM89.3438 172.337C90.2734 172.337 90.9684 172.544 91.4287 172.959C91.889 173.369 92.1191 174.019 92.1191 174.907V180H91.1348L90.8682 178.906H90.8135C90.6038 179.18 90.3851 179.408 90.1572 179.59C89.9294 179.772 89.665 179.909 89.3643 180C89.068 180.091 88.7057 180.137 88.2773 180.137C87.8216 180.137 87.416 180.055 87.0605 179.891C86.7051 179.727 86.4248 179.48 86.2197 179.152C86.0192 178.82 85.9189 178.398 85.9189 177.888C85.9189 177.122 86.2129 176.541 86.8008 176.145C87.3887 175.748 88.2796 175.532 89.4736 175.495L90.7725 175.44V175.017C90.7725 174.429 90.6403 174.014 90.376 173.772C90.1162 173.531 89.7516 173.41 89.2822 173.41C88.8949 173.41 88.5234 173.467 88.168 173.581C87.8125 173.69 87.4707 173.823 87.1426 173.978L86.7051 172.979C87.0605 172.797 87.4639 172.645 87.915 172.521C88.3708 172.398 88.847 172.337 89.3438 172.337ZM90.7588 176.343L89.7061 176.391C88.8356 176.423 88.2227 176.568 87.8672 176.828C87.5163 177.083 87.3408 177.441 87.3408 177.901C87.3408 178.302 87.4616 178.596 87.7031 178.783C87.9447 178.97 88.2637 179.063 88.6602 179.063C89.2708 179.063 89.7721 178.893 90.1641 178.551C90.5605 178.204 90.7588 177.694 90.7588 177.02V176.343ZM95.79 169.363V171.975C95.79 172.275 95.7809 172.569 95.7627 172.856C95.749 173.144 95.7354 173.365 95.7217 173.52H95.79C95.9951 173.191 96.2845 172.913 96.6582 172.686C97.0365 172.453 97.5218 172.337 98.1143 172.337C99.0303 172.337 99.764 172.665 100.315 173.321C100.867 173.973 101.143 174.941 101.143 176.227C101.143 177.074 101.015 177.79 100.76 178.373C100.509 178.956 100.154 179.396 99.6934 179.692C99.2376 179.989 98.6999 180.137 98.0801 180.137C97.4922 180.137 97.016 180.03 96.6514 179.815C96.2868 179.597 96.002 179.337 95.7969 179.036H95.6943L95.4346 180H94.416V169.363H95.79ZM97.8066 173.465C97.3099 173.465 96.9134 173.563 96.6172 173.759C96.3255 173.955 96.1159 174.251 95.9883 174.647C95.8607 175.044 95.7946 175.543 95.79 176.145V176.247C95.79 177.14 95.9359 177.824 96.2275 178.298C96.5192 178.772 97.0479 179.009 97.8135 179.009C98.4424 179.009 98.9186 178.767 99.2422 178.284C99.5703 177.801 99.7344 177.111 99.7344 176.213C99.7344 175.301 99.5726 174.616 99.249 174.155C98.9255 173.695 98.4447 173.465 97.8066 173.465ZM108.074 180H106.693V169.363H108.074V180ZM113.297 172.337C114.227 172.337 114.922 172.544 115.382 172.959C115.842 173.369 116.072 174.019 116.072 174.907V180H115.088L114.821 178.906H114.767C114.557 179.18 114.338 179.408 114.11 179.59C113.882 179.772 113.618 179.909 113.317 180C113.021 180.091 112.659 180.137 112.23 180.137C111.775 180.137 111.369 180.055 111.014 179.891C110.658 179.727 110.378 179.48 110.173 179.152C109.972 178.82 109.872 178.398 109.872 177.888C109.872 177.122 110.166 176.541 110.754 176.145C111.342 175.748 112.233 175.532 113.427 175.495L114.726 175.44V175.017C114.726 174.429 114.593 174.014 114.329 173.772C114.069 173.531 113.705 173.41 113.235 173.41C112.848 173.41 112.477 173.467 112.121 173.581C111.766 173.69 111.424 173.823 111.096 173.978L110.658 172.979C111.014 172.797 111.417 172.645 111.868 172.521C112.324 172.398 112.8 172.337 113.297 172.337ZM114.712 176.343L113.659 176.391C112.789 176.423 112.176 176.568 111.82 176.828C111.469 177.083 111.294 177.441 111.294 177.901C111.294 178.302 111.415 178.596 111.656 178.783C111.898 178.97 112.217 179.063 112.613 179.063C113.224 179.063 113.725 178.893 114.117 178.551C114.514 178.204 114.712 177.694 114.712 177.02V176.343ZM119.743 169.363V171.975C119.743 172.275 119.734 172.569 119.716 172.856C119.702 173.144 119.688 173.365 119.675 173.52H119.743C119.948 173.191 120.238 172.913 120.611 172.686C120.99 172.453 121.475 172.337 122.067 172.337C122.983 172.337 123.717 172.665 124.269 173.321C124.82 173.973 125.096 174.941 125.096 176.227C125.096 177.074 124.968 177.79 124.713 178.373C124.462 178.956 124.107 179.396 123.646 179.692C123.191 179.989 122.653 180.137 122.033 180.137C121.445 180.137 120.969 180.03 120.604 179.815C120.24 179.597 119.955 179.337 119.75 179.036H119.647L119.388 180H118.369V169.363H119.743ZM121.76 173.465C121.263 173.465 120.867 173.563 120.57 173.759C120.279 173.955 120.069 174.251 119.941 174.647C119.814 175.044 119.748 175.543 119.743 176.145V176.247C119.743 177.14 119.889 177.824 120.181 178.298C120.472 178.772 121.001 179.009 121.767 179.009C122.396 179.009 122.872 178.767 123.195 178.284C123.523 177.801 123.688 177.111 123.688 176.213C123.688 175.301 123.526 174.616 123.202 174.155C122.879 173.695 122.398 173.465 121.76 173.465ZM129.963 172.33C130.619 172.33 131.182 172.471 131.651 172.754C132.121 173.032 132.481 173.426 132.731 173.937C132.982 174.447 133.107 175.049 133.107 175.741V176.521H127.994C128.008 177.327 128.215 177.947 128.616 178.38C129.017 178.808 129.58 179.022 130.305 179.022C130.783 179.022 131.209 178.977 131.583 178.886C131.957 178.795 132.344 178.66 132.745 178.482V179.638C132.367 179.811 131.986 179.936 131.604 180.014C131.225 180.096 130.772 180.137 130.243 180.137C129.514 180.137 128.874 179.991 128.322 179.699C127.775 179.408 127.349 178.977 127.044 178.407C126.739 177.833 126.586 177.127 126.586 176.288C126.586 175.459 126.725 174.75 127.003 174.162C127.281 173.57 127.673 173.116 128.179 172.802C128.685 172.487 129.279 172.33 129.963 172.33ZM129.956 173.396C129.4 173.396 128.953 173.579 128.616 173.943C128.279 174.303 128.081 174.821 128.021 175.495H131.727C131.722 175.08 131.656 174.716 131.528 174.401C131.401 174.087 131.207 173.841 130.947 173.663C130.692 173.485 130.362 173.396 129.956 173.396ZM136.361 180H134.98V169.363H136.361V180Z" fill="#024DC0"/>
<path d="M207 120C206.45 120 205.979 119.804 205.588 119.413C205.196 119.021 205 118.55 205 118V104C205 103.45 205.196 102.979 205.588 102.588C205.979 102.196 206.45 102 207 102H221C221.55 102 222.021 102.196 222.413 102.588C222.804 102.979 223 103.45 223 104V118C223 118.55 222.804 119.021 222.413 119.413C222.021 119.804 221.55 120 221 120H207ZM207 118H221V104H207V118ZM208 116H220L216.25 111L213.25 115L211 112L208 116Z" fill="#666666"/>
<mask id="path-8-inside-2_19_922" fill="white">
<path d="M178 151H250V199H178V151Z"/>
</mask>
<path d="M250 197H178V201H250V197Z" fill="#024DC0" mask="url(#path-8-inside-2_19_922)"/>
<path d="M207 184C206.45 184 205.979 183.804 205.588 183.413C205.196 183.021 205 182.55 205 182V168C205 167.45 205.196 166.979 205.588 166.588C205.979 166.196 206.45 166 207 166H221C221.55 166 222.021 166.196 222.413 166.588C222.804 166.979 223 167.45 223 168V182C223 182.55 222.804 183.021 222.413 183.413C222.021 183.804 221.55 184 221 184H207ZM207 182H221V168H207V182ZM208 180H220L216.25 175L213.25 179L211 176L208 180Z" fill="#024DC0"/>
<path d="M37.1655 328.909V330.498C37.1655 330.589 37.1632 330.682 37.1587 330.775C37.1541 330.866 37.1462 330.951 37.1348 331.028H37.1724C37.2498 330.896 37.3478 330.785 37.4663 330.697C37.5871 330.605 37.7238 330.537 37.8765 330.491C38.0291 330.444 38.1909 330.42 38.3618 330.42C38.6626 330.42 38.9132 330.468 39.1138 330.563C39.3166 330.659 39.4681 330.807 39.5684 331.008C39.6709 331.208 39.7222 331.468 39.7222 331.787V334.227H39.1616V331.824C39.1616 331.512 39.0898 331.279 38.9463 331.124C38.805 330.969 38.5874 330.891 38.2935 330.891C38.0155 330.891 37.7933 330.945 37.627 331.052C37.4629 331.157 37.3444 331.312 37.2715 331.517C37.2008 331.722 37.1655 331.973 37.1655 332.269V334.227H36.5981V328.909H37.1655ZM42.1011 333.831C42.1945 333.831 42.2902 333.823 42.3882 333.807C42.4862 333.791 42.5659 333.772 42.6274 333.749V334.19C42.5614 334.219 42.4691 334.244 42.3506 334.265C42.2344 334.285 42.1204 334.296 42.0088 334.296C41.8105 334.296 41.6305 334.261 41.4688 334.193C41.307 334.122 41.1771 334.004 41.0791 333.838C40.9834 333.671 40.9355 333.441 40.9355 333.147V330.926H40.4023V330.649L40.939 330.427L41.1646 329.613H41.5063V330.481H42.6035V330.926H41.5063V333.13C41.5063 333.365 41.5599 333.54 41.667 333.656C41.7764 333.773 41.9211 333.831 42.1011 333.831ZM44.5962 333.831C44.6896 333.831 44.7853 333.823 44.8833 333.807C44.9813 333.791 45.061 333.772 45.1226 333.749V334.19C45.0565 334.219 44.9642 334.244 44.8457 334.265C44.7295 334.285 44.6156 334.296 44.5039 334.296C44.3057 334.296 44.1257 334.261 43.9639 334.193C43.8021 334.122 43.6722 334.004 43.5742 333.838C43.4785 333.671 43.4307 333.441 43.4307 333.147V330.926H42.8975V330.649L43.4341 330.427L43.6597 329.613H44.0015V330.481H45.0986V330.926H44.0015V333.13C44.0015 333.365 44.055 333.54 44.1621 333.656C44.2715 333.773 44.4162 333.831 44.5962 333.831ZM47.6416 330.413C48.1087 330.413 48.4813 330.573 48.7593 330.895C49.0373 331.216 49.1763 331.699 49.1763 332.344C49.1763 332.77 49.1125 333.128 48.9849 333.417C48.8573 333.707 48.6772 333.925 48.4448 334.073C48.2147 334.222 47.9424 334.296 47.6279 334.296C47.4297 334.296 47.2554 334.269 47.105 334.217C46.9546 334.165 46.8258 334.094 46.7188 334.005C46.6117 333.916 46.5228 333.819 46.4521 333.715H46.4111C46.418 333.803 46.4259 333.911 46.4351 334.036C46.4465 334.161 46.4521 334.271 46.4521 334.364V335.902H45.8813V330.481H46.3496L46.4248 331.035H46.4521C46.5251 330.921 46.6139 330.817 46.7188 330.724C46.8236 330.628 46.9512 330.553 47.1016 330.498C47.2542 330.441 47.4342 330.413 47.6416 330.413ZM47.5425 330.891C47.2827 330.891 47.0731 330.941 46.9136 331.042C46.7563 331.142 46.6413 331.292 46.5684 331.493C46.4954 331.691 46.4567 331.941 46.4521 332.241V332.351C46.4521 332.668 46.4863 332.935 46.5547 333.154C46.6253 333.373 46.7404 333.539 46.8999 333.653C47.0617 333.767 47.2782 333.824 47.5493 333.824C47.7817 333.824 47.9754 333.761 48.1304 333.636C48.2853 333.511 48.4004 333.336 48.4756 333.113C48.5531 332.887 48.5918 332.629 48.5918 332.337C48.5918 331.895 48.5052 331.544 48.332 331.284C48.1611 331.022 47.8979 330.891 47.5425 330.891ZM52.5908 333.202C52.5908 333.441 52.5304 333.643 52.4097 333.807C52.2912 333.969 52.1203 334.091 51.897 334.173C51.6759 334.255 51.4116 334.296 51.104 334.296C50.842 334.296 50.6152 334.275 50.4238 334.234C50.2324 334.193 50.0649 334.135 49.9214 334.06V333.537C50.0741 333.612 50.2563 333.68 50.4683 333.742C50.6802 333.803 50.8966 333.834 51.1177 333.834C51.4412 333.834 51.6759 333.782 51.8218 333.677C51.9676 333.572 52.0405 333.43 52.0405 333.25C52.0405 333.147 52.0109 333.057 51.9517 332.98C51.8947 332.9 51.7979 332.824 51.6611 332.751C51.5244 332.676 51.3353 332.594 51.0938 332.505C50.8545 332.413 50.6471 332.323 50.4717 332.235C50.2985 332.143 50.1641 332.033 50.0684 331.903C49.9749 331.773 49.9282 331.605 49.9282 331.397C49.9282 331.08 50.0558 330.838 50.311 330.669C50.5685 330.498 50.9058 330.413 51.3228 330.413C51.5483 330.413 51.7591 330.436 51.9551 330.481C52.1533 330.524 52.3379 330.584 52.5088 330.659L52.3174 331.114C52.1624 331.047 51.9972 330.992 51.8218 330.946C51.6463 330.9 51.4674 330.878 51.2852 330.878C51.0231 330.878 50.8215 330.921 50.6802 331.008C50.5412 331.094 50.4717 331.213 50.4717 331.363C50.4717 331.479 50.5036 331.575 50.5674 331.65C50.6335 331.725 50.7383 331.796 50.8818 331.862C51.0254 331.928 51.2145 332.006 51.4492 332.094C51.6839 332.181 51.8867 332.271 52.0576 332.365C52.2285 332.456 52.3595 332.567 52.4507 332.699C52.5441 332.829 52.5908 332.997 52.5908 333.202ZM53.418 333.872C53.418 333.712 53.4567 333.6 53.5342 333.533C53.6117 333.465 53.7062 333.431 53.8179 333.431C53.9341 333.431 54.0321 333.465 54.1118 333.533C54.1916 333.6 54.2314 333.712 54.2314 333.872C54.2314 334.029 54.1916 334.144 54.1118 334.217C54.0321 334.288 53.9341 334.323 53.8179 334.323C53.7062 334.323 53.6117 334.288 53.5342 334.217C53.4567 334.144 53.418 334.029 53.418 333.872ZM53.418 330.84C53.418 330.676 53.4567 330.561 53.5342 330.495C53.6117 330.427 53.7062 330.392 53.8179 330.392C53.9341 330.392 54.0321 330.427 54.1118 330.495C54.1916 330.561 54.2314 330.676 54.2314 330.84C54.2314 330.995 54.1916 331.108 54.1118 331.178C54.0321 331.249 53.9341 331.284 53.8179 331.284C53.7062 331.284 53.6117 331.249 53.5342 331.178C53.4567 331.108 53.418 330.995 53.418 330.84ZM57.2358 329.23L55.3765 334.227H54.8159L56.6787 329.23H57.2358ZM59.8062 329.23L57.9468 334.227H57.3862L59.249 329.23H59.8062ZM64.5503 330.413C64.9627 330.413 65.2738 330.521 65.4834 330.738C65.693 330.952 65.7979 331.297 65.7979 331.773V334.227H65.2373V331.801C65.2373 331.497 65.1712 331.271 65.0391 331.12C64.9092 330.968 64.7155 330.891 64.458 330.891C64.0957 330.891 63.8325 330.996 63.6685 331.206C63.5044 331.415 63.4224 331.724 63.4224 332.132V334.227H62.8584V331.801C62.8584 331.598 62.8288 331.429 62.7695 331.295C62.7126 331.16 62.626 331.06 62.5098 330.994C62.3958 330.926 62.2511 330.891 62.0757 330.891C61.8273 330.891 61.6279 330.943 61.4775 331.045C61.3271 331.148 61.2178 331.3 61.1494 331.503C61.0833 331.704 61.0503 331.951 61.0503 332.245V334.227H60.4829V330.481H60.9409L61.0264 331.011H61.0571C61.1323 330.881 61.2269 330.772 61.3408 330.683C61.4548 330.594 61.5824 330.527 61.7236 330.481C61.8649 330.436 62.0153 330.413 62.1748 330.413C62.4596 330.413 62.6978 330.466 62.8892 330.573C63.0828 330.678 63.223 330.839 63.3096 331.055H63.3403C63.4634 330.839 63.632 330.678 63.8462 330.573C64.0604 330.466 64.2951 330.413 64.5503 330.413ZM69.9849 334.227H66.7104V333.752L68.0469 332.395C68.2952 332.145 68.5037 331.921 68.6724 331.725C68.8433 331.529 68.9731 331.337 69.062 331.148C69.1509 330.956 69.1953 330.747 69.1953 330.519C69.1953 330.236 69.111 330.021 68.9424 329.873C68.776 329.722 68.5562 329.647 68.2827 329.647C68.0435 329.647 67.8315 329.688 67.647 329.77C67.4624 329.852 67.2733 329.969 67.0796 330.119L66.7754 329.736C66.9076 329.624 67.0511 329.525 67.2061 329.439C67.3633 329.352 67.5308 329.284 67.7085 329.234C67.8885 329.184 68.0799 329.158 68.2827 329.158C68.5903 329.158 68.8558 329.212 69.0791 329.319C69.3024 329.426 69.4744 329.579 69.5952 329.777C69.7183 329.975 69.7798 330.211 69.7798 330.485C69.7798 330.749 69.7274 330.995 69.6226 331.223C69.5177 331.448 69.3708 331.673 69.1816 331.896C68.9925 332.117 68.7715 332.352 68.5186 332.6L67.4316 333.684V333.708H69.9849V334.227ZM70.8838 333.872C70.8838 333.712 70.9225 333.6 71 333.533C71.0775 333.465 71.172 333.431 71.2837 333.431C71.3999 333.431 71.4979 333.465 71.5776 333.533C71.6574 333.6 71.6973 333.712 71.6973 333.872C71.6973 334.029 71.6574 334.144 71.5776 334.217C71.4979 334.288 71.3999 334.323 71.2837 334.323C71.172 334.323 71.0775 334.288 71 334.217C70.9225 334.144 70.8838 334.029 70.8838 333.872ZM76.8755 330.413C77.2879 330.413 77.599 330.521 77.8086 330.738C78.0182 330.952 78.123 331.297 78.123 331.773V334.227H77.5625V331.801C77.5625 331.497 77.4964 331.271 77.3643 331.12C77.2344 330.968 77.0407 330.891 76.7832 330.891C76.4209 330.891 76.1577 330.996 75.9937 331.206C75.8296 331.415 75.7476 331.724 75.7476 332.132V334.227H75.1836V331.801C75.1836 331.598 75.154 331.429 75.0947 331.295C75.0378 331.16 74.9512 331.06 74.835 330.994C74.721 330.926 74.5763 330.891 74.4009 330.891C74.1525 330.891 73.9531 330.943 73.8027 331.045C73.6523 331.148 73.543 331.3 73.4746 331.503C73.4085 331.704 73.3755 331.951 73.3755 332.245V334.227H72.8081V330.481H73.2661L73.3516 331.011H73.3823C73.4575 330.881 73.5521 330.772 73.666 330.683C73.7799 330.594 73.9076 330.527 74.0488 330.481C74.1901 330.436 74.3405 330.413 74.5 330.413C74.7848 330.413 75.0229 330.466 75.2144 330.573C75.408 330.678 75.5482 330.839 75.6348 331.055H75.6655C75.7886 330.839 75.9572 330.678 76.1714 330.573C76.3856 330.466 76.6203 330.413 76.8755 330.413ZM80.6899 330.42C81.1366 330.42 81.4681 330.52 81.6846 330.72C81.901 330.921 82.0093 331.241 82.0093 331.681V334.227H81.5957L81.4863 333.674H81.459C81.3542 333.81 81.2448 333.925 81.1309 334.019C81.0169 334.11 80.8848 334.179 80.7344 334.227C80.5863 334.273 80.404 334.296 80.1875 334.296C79.9596 334.296 79.7568 334.256 79.5791 334.176C79.4036 334.096 79.2646 333.976 79.1621 333.814C79.0618 333.652 79.0117 333.447 79.0117 333.198C79.0117 332.825 79.1598 332.538 79.4561 332.337C79.7523 332.137 80.2035 332.027 80.8096 332.009L81.4556 331.982V331.753C81.4556 331.429 81.3861 331.202 81.2471 331.073C81.1081 330.943 80.9121 330.878 80.6592 330.878C80.4632 330.878 80.2764 330.906 80.0986 330.963C79.9209 331.02 79.7523 331.087 79.5928 331.165L79.4185 330.734C79.5871 330.648 79.7808 330.573 79.9995 330.512C80.2183 330.45 80.4484 330.42 80.6899 330.42ZM81.4487 332.382L80.8779 332.406C80.4108 332.424 80.0815 332.5 79.8901 332.635C79.6987 332.769 79.603 332.959 79.603 333.205C79.603 333.42 79.668 333.578 79.7979 333.68C79.9277 333.783 80.0998 333.834 80.314 333.834C80.6466 333.834 80.9189 333.742 81.1309 333.557C81.3428 333.373 81.4487 333.096 81.4487 332.727V332.382ZM84.3882 333.831C84.4816 333.831 84.5773 333.823 84.6753 333.807C84.7733 333.791 84.853 333.772 84.9146 333.749V334.19C84.8485 334.219 84.7562 334.244 84.6377 334.265C84.5215 334.285 84.4076 334.296 84.2959 334.296C84.0977 334.296 83.9176 334.261 83.7559 334.193C83.5941 334.122 83.4642 334.004 83.3662 333.838C83.2705 333.671 83.2227 333.441 83.2227 333.147V330.926H82.6895V330.649L83.2261 330.427L83.4517 329.613H83.7935V330.481H84.8906V330.926H83.7935V333.13C83.7935 333.365 83.847 333.54 83.9541 333.656C84.0635 333.773 84.2082 333.831 84.3882 333.831ZM87.1157 330.413C87.4347 330.413 87.7082 330.483 87.936 330.625C88.1639 330.766 88.3382 330.964 88.459 331.219C88.5798 331.472 88.6401 331.769 88.6401 332.108V332.46H86.0527C86.0596 332.9 86.1689 333.235 86.3809 333.465C86.5928 333.695 86.8913 333.81 87.2764 333.81C87.5133 333.81 87.723 333.789 87.9053 333.745C88.0876 333.702 88.2767 333.638 88.4727 333.554V334.053C88.2835 334.137 88.0955 334.199 87.9087 334.238C87.7241 334.276 87.5054 334.296 87.2524 334.296C86.8924 334.296 86.578 334.223 86.3091 334.077C86.0425 333.929 85.8351 333.712 85.687 333.427C85.5389 333.143 85.4648 332.794 85.4648 332.382C85.4648 331.978 85.5321 331.63 85.6665 331.336C85.8032 331.039 85.9946 330.812 86.2407 330.652C86.4891 330.493 86.7808 330.413 87.1157 330.413ZM87.1089 330.878C86.8058 330.878 86.5643 330.977 86.3843 331.175C86.2043 331.373 86.0972 331.65 86.063 332.006H88.0454C88.0431 331.782 88.0078 331.586 87.9395 331.418C87.8734 331.247 87.772 331.115 87.6353 331.021C87.4985 330.926 87.3231 330.878 87.1089 330.878ZM91.3062 330.413C91.3813 330.413 91.46 330.417 91.542 330.427C91.624 330.433 91.6969 330.444 91.7607 330.457L91.689 330.984C91.6274 330.968 91.5591 330.955 91.4839 330.946C91.4087 330.937 91.3381 330.932 91.272 330.932C91.1216 330.932 90.9792 330.963 90.8447 331.025C90.7126 331.084 90.5964 331.17 90.4961 331.284C90.3958 331.396 90.3172 331.532 90.2603 331.691C90.2033 331.848 90.1748 332.024 90.1748 332.218V334.227H89.604V330.481H90.0757L90.1372 331.172H90.1611C90.2386 331.033 90.332 330.906 90.4414 330.792C90.5508 330.676 90.6772 330.584 90.8208 330.515C90.9666 330.447 91.1284 330.413 91.3062 330.413ZM93.0356 330.481V334.227H92.4683V330.481H93.0356ZM92.7588 329.08C92.8522 329.08 92.932 329.111 92.998 329.172C93.0664 329.231 93.1006 329.325 93.1006 329.452C93.1006 329.578 93.0664 329.671 92.998 329.733C92.932 329.794 92.8522 329.825 92.7588 329.825C92.6608 329.825 92.5788 329.794 92.5127 329.733C92.4489 329.671 92.417 329.578 92.417 329.452C92.417 329.325 92.4489 329.231 92.5127 329.172C92.5788 329.111 92.6608 329.08 92.7588 329.08ZM95.6401 330.42C96.0868 330.42 96.4183 330.52 96.6348 330.72C96.8512 330.921 96.9595 331.241 96.9595 331.681V334.227H96.5459L96.4365 333.674H96.4092C96.3044 333.81 96.195 333.925 96.0811 334.019C95.9671 334.11 95.835 334.179 95.6846 334.227C95.5365 334.273 95.3542 334.296 95.1377 334.296C94.9098 334.296 94.707 334.256 94.5293 334.176C94.3538 334.096 94.2148 333.976 94.1123 333.814C94.012 333.652 93.9619 333.447 93.9619 333.198C93.9619 332.825 94.11 332.538 94.4062 332.337C94.7025 332.137 95.1536 332.027 95.7598 332.009L96.4058 331.982V331.753C96.4058 331.429 96.3363 331.202 96.1973 331.073C96.0583 330.943 95.8623 330.878 95.6094 330.878C95.4134 330.878 95.2266 330.906 95.0488 330.963C94.8711 331.02 94.7025 331.087 94.543 331.165L94.3687 330.734C94.5373 330.648 94.731 330.573 94.9497 330.512C95.1685 330.45 95.3986 330.42 95.6401 330.42ZM96.3989 332.382L95.8281 332.406C95.361 332.424 95.0317 332.5 94.8403 332.635C94.6489 332.769 94.5532 332.959 94.5532 333.205C94.5532 333.42 94.6182 333.578 94.748 333.68C94.8779 333.783 95.05 333.834 95.2642 333.834C95.5968 333.834 95.8691 333.742 96.0811 333.557C96.293 333.373 96.3989 333.096 96.3989 332.727V332.382ZM98.6992 334.227H98.1284V328.909H98.6992V334.227ZM99.8135 333.872C99.8135 333.712 99.8522 333.6 99.9297 333.533C100.007 333.465 100.102 333.431 100.213 333.431C100.33 333.431 100.428 333.465 100.507 333.533C100.587 333.6 100.627 333.712 100.627 333.872C100.627 334.029 100.587 334.144 100.507 334.217C100.428 334.288 100.33 334.323 100.213 334.323C100.102 334.323 100.007 334.288 99.9297 334.217C99.8522 334.144 99.8135 334.029 99.8135 333.872ZM102.305 330.481V334.227H101.738V330.481H102.305ZM102.028 329.08C102.122 329.08 102.201 329.111 102.268 329.172C102.336 329.231 102.37 329.325 102.37 329.452C102.37 329.578 102.336 329.671 102.268 329.733C102.201 329.794 102.122 329.825 102.028 329.825C101.93 329.825 101.848 329.794 101.782 329.733C101.718 329.671 101.687 329.578 101.687 329.452C101.687 329.325 101.718 329.231 101.782 329.172C101.848 329.111 101.93 329.08 102.028 329.08ZM106.738 332.347C106.738 332.655 106.698 332.93 106.619 333.171C106.539 333.413 106.424 333.617 106.273 333.783C106.123 333.949 105.941 334.077 105.727 334.166C105.515 334.252 105.274 334.296 105.005 334.296C104.755 334.296 104.525 334.252 104.315 334.166C104.108 334.077 103.928 333.949 103.775 333.783C103.625 333.617 103.507 333.413 103.423 333.171C103.341 332.93 103.3 332.655 103.3 332.347C103.3 331.937 103.369 331.589 103.508 331.302C103.647 331.012 103.846 330.792 104.103 330.642C104.363 330.489 104.672 330.413 105.029 330.413C105.371 330.413 105.67 330.489 105.925 330.642C106.182 330.795 106.382 331.016 106.523 331.305C106.667 331.592 106.738 331.94 106.738 332.347ZM103.888 332.347C103.888 332.648 103.928 332.909 104.007 333.13C104.087 333.351 104.21 333.522 104.376 333.643C104.543 333.764 104.757 333.824 105.019 333.824C105.279 333.824 105.492 333.764 105.658 333.643C105.827 333.522 105.951 333.351 106.031 333.13C106.111 332.909 106.15 332.648 106.15 332.347C106.15 332.049 106.111 331.791 106.031 331.575C105.951 331.356 105.828 331.188 105.662 331.069C105.495 330.951 105.28 330.891 105.016 330.891C104.626 330.891 104.34 331.02 104.158 331.278C103.978 331.535 103.888 331.892 103.888 332.347ZM109.613 329.23L107.753 334.227H107.193L109.056 329.23H109.613ZM111.335 335.909C110.843 335.909 110.464 335.817 110.197 335.632C109.931 335.45 109.797 335.193 109.797 334.863C109.797 334.628 109.871 334.428 110.02 334.261C110.17 334.095 110.377 333.985 110.642 333.93C110.544 333.884 110.459 333.816 110.389 333.725C110.32 333.634 110.286 333.529 110.286 333.41C110.286 333.274 110.324 333.154 110.399 333.052C110.476 332.947 110.594 332.846 110.751 332.751C110.555 332.671 110.396 332.537 110.272 332.347C110.152 332.156 110.091 331.934 110.091 331.681C110.091 331.412 110.147 331.183 110.259 330.994C110.37 330.802 110.532 330.657 110.744 330.556C110.956 330.456 111.212 330.406 111.513 330.406C111.579 330.406 111.645 330.409 111.711 330.416C111.78 330.421 111.845 330.429 111.906 330.44C111.968 330.449 112.021 330.461 112.067 330.474H113.352V330.84L112.662 330.926C112.73 331.014 112.787 331.122 112.833 331.247C112.878 331.372 112.901 331.511 112.901 331.664C112.901 332.038 112.774 332.335 112.521 332.556C112.269 332.775 111.921 332.884 111.479 332.884C111.374 332.884 111.267 332.875 111.158 332.857C111.046 332.918 110.961 332.987 110.901 333.062C110.844 333.137 110.816 333.224 110.816 333.322C110.816 333.394 110.838 333.453 110.881 333.496C110.926 333.539 110.991 333.571 111.076 333.592C111.16 333.61 111.261 333.619 111.38 333.619H112.04C112.447 333.619 112.76 333.704 112.976 333.875C113.195 334.046 113.304 334.296 113.304 334.624C113.304 335.038 113.136 335.356 112.798 335.577C112.461 335.798 111.973 335.909 111.335 335.909ZM111.353 335.465C111.662 335.465 111.919 335.433 112.122 335.369C112.327 335.307 112.479 335.217 112.58 335.099C112.682 334.983 112.733 334.844 112.733 334.682C112.733 334.531 112.699 334.418 112.631 334.34C112.562 334.265 112.462 334.215 112.33 334.19C112.198 334.162 112.036 334.149 111.845 334.149H111.195C111.027 334.149 110.88 334.175 110.754 334.227C110.629 334.28 110.532 334.357 110.464 334.46C110.398 334.562 110.365 334.69 110.365 334.843C110.365 335.045 110.45 335.199 110.621 335.304C110.792 335.411 111.036 335.465 111.353 335.465ZM111.5 332.47C111.771 332.47 111.975 332.402 112.111 332.265C112.248 332.129 112.316 331.929 112.316 331.667C112.316 331.387 112.247 331.177 112.108 331.038C111.969 330.897 111.764 330.826 111.493 330.826C111.233 330.826 111.032 330.899 110.891 331.045C110.752 331.189 110.683 331.399 110.683 331.677C110.683 331.933 110.753 332.129 110.895 332.265C111.036 332.402 111.237 332.47 111.5 332.47ZM117.32 332.347C117.32 332.655 117.28 332.93 117.201 333.171C117.121 333.413 117.006 333.617 116.855 333.783C116.705 333.949 116.523 334.077 116.309 334.166C116.097 334.252 115.856 334.296 115.587 334.296C115.337 334.296 115.107 334.252 114.897 334.166C114.69 334.077 114.51 333.949 114.357 333.783C114.207 333.617 114.089 333.413 114.005 333.171C113.923 332.93 113.882 332.655 113.882 332.347C113.882 331.937 113.951 331.589 114.09 331.302C114.229 331.012 114.428 330.792 114.685 330.642C114.945 330.489 115.254 330.413 115.611 330.413C115.953 330.413 116.252 330.489 116.507 330.642C116.764 330.795 116.964 331.016 117.105 331.305C117.249 331.592 117.32 331.94 117.32 332.347ZM114.47 332.347C114.47 332.648 114.51 332.909 114.589 333.13C114.669 333.351 114.792 333.522 114.958 333.643C115.125 333.764 115.339 333.824 115.601 333.824C115.861 333.824 116.074 333.764 116.24 333.643C116.409 333.522 116.533 333.351 116.613 333.13C116.693 332.909 116.732 332.648 116.732 332.347C116.732 332.049 116.693 331.791 116.613 331.575C116.533 331.356 116.41 331.188 116.244 331.069C116.077 330.951 115.862 330.891 115.598 330.891C115.208 330.891 114.922 331.02 114.74 331.278C114.56 331.535 114.47 331.892 114.47 332.347ZM120.195 329.23L118.335 334.227H117.775L119.638 329.23H120.195ZM122.205 334.296C121.731 334.296 121.355 334.134 121.077 333.81C120.801 333.487 120.663 333.006 120.663 332.368C120.663 331.723 120.804 331.237 121.087 330.908C121.369 330.578 121.745 330.413 122.215 330.413C122.413 330.413 122.586 330.439 122.734 330.491C122.882 330.544 123.01 330.615 123.117 330.703C123.224 330.79 123.314 330.889 123.387 331.001H123.428C123.419 330.93 123.41 330.833 123.401 330.71C123.392 330.587 123.387 330.487 123.387 330.409V328.909H123.955V334.227H123.497L123.411 333.694H123.387C123.317 333.806 123.227 333.907 123.117 333.998C123.01 334.089 122.881 334.162 122.731 334.217C122.583 334.269 122.407 334.296 122.205 334.296ZM122.293 333.824C122.694 333.824 122.978 333.71 123.145 333.482C123.311 333.254 123.394 332.916 123.394 332.467V332.365C123.394 331.888 123.314 331.523 123.155 331.267C122.998 331.012 122.71 330.885 122.293 330.885C121.945 330.885 121.684 331.019 121.511 331.288C121.338 331.554 121.251 331.919 121.251 332.382C121.251 332.842 121.336 333.197 121.507 333.448C121.681 333.699 121.943 333.824 122.293 333.824ZM126.6 330.413C126.919 330.413 127.193 330.483 127.42 330.625C127.648 330.766 127.823 330.964 127.943 331.219C128.064 331.472 128.125 331.769 128.125 332.108V332.46H125.537C125.544 332.9 125.653 333.235 125.865 333.465C126.077 333.695 126.376 333.81 126.761 333.81C126.998 333.81 127.207 333.789 127.39 333.745C127.572 333.702 127.761 333.638 127.957 333.554V334.053C127.768 334.137 127.58 334.199 127.393 334.238C127.208 334.276 126.99 334.296 126.737 334.296C126.377 334.296 126.062 334.223 125.793 334.077C125.527 333.929 125.319 333.712 125.171 333.427C125.023 333.143 124.949 332.794 124.949 332.382C124.949 331.978 125.016 331.63 125.151 331.336C125.288 331.039 125.479 330.812 125.725 330.652C125.973 330.493 126.265 330.413 126.6 330.413ZM126.593 330.878C126.29 330.878 126.049 330.977 125.869 331.175C125.689 331.373 125.582 331.65 125.547 332.006H127.53C127.528 331.782 127.492 331.586 127.424 331.418C127.358 331.247 127.256 331.115 127.12 331.021C126.983 330.926 126.807 330.878 126.593 330.878ZM131.512 333.202C131.512 333.441 131.451 333.643 131.331 333.807C131.212 333.969 131.041 334.091 130.818 334.173C130.597 334.255 130.333 334.296 130.025 334.296C129.763 334.296 129.536 334.275 129.345 334.234C129.153 334.193 128.986 334.135 128.842 334.06V333.537C128.995 333.612 129.177 333.68 129.389 333.742C129.601 333.803 129.818 333.834 130.039 333.834C130.362 333.834 130.597 333.782 130.743 333.677C130.889 333.572 130.961 333.43 130.961 333.25C130.961 333.147 130.932 333.057 130.873 332.98C130.816 332.9 130.719 332.824 130.582 332.751C130.445 332.676 130.256 332.594 130.015 332.505C129.775 332.413 129.568 332.323 129.393 332.235C129.219 332.143 129.085 332.033 128.989 331.903C128.896 331.773 128.849 331.605 128.849 331.397C128.849 331.08 128.977 330.838 129.232 330.669C129.489 330.498 129.827 330.413 130.244 330.413C130.469 330.413 130.68 330.436 130.876 330.481C131.074 330.524 131.259 330.584 131.43 330.659L131.238 331.114C131.083 331.047 130.918 330.992 130.743 330.946C130.567 330.9 130.388 330.878 130.206 330.878C129.944 330.878 129.742 330.921 129.601 331.008C129.462 331.094 129.393 331.213 129.393 331.363C129.393 331.479 129.424 331.575 129.488 331.65C129.554 331.725 129.659 331.796 129.803 331.862C129.946 331.928 130.135 332.006 130.37 332.094C130.605 332.181 130.808 332.271 130.979 332.365C131.149 332.456 131.28 332.567 131.372 332.699C131.465 332.829 131.512 332.997 131.512 333.202ZM132.992 330.481V334.227H132.424V330.481H132.992ZM132.715 329.08C132.808 329.08 132.888 329.111 132.954 329.172C133.022 329.231 133.057 329.325 133.057 329.452C133.057 329.578 133.022 329.671 132.954 329.733C132.888 329.794 132.808 329.825 132.715 329.825C132.617 329.825 132.535 329.794 132.469 329.733C132.405 329.671 132.373 329.578 132.373 329.452C132.373 329.325 132.405 329.231 132.469 329.172C132.535 329.111 132.617 329.08 132.715 329.08ZM135.241 335.909C134.749 335.909 134.369 335.817 134.103 335.632C133.836 335.45 133.703 335.193 133.703 334.863C133.703 334.628 133.777 334.428 133.925 334.261C134.075 334.095 134.283 333.985 134.547 333.93C134.449 333.884 134.365 333.816 134.294 333.725C134.226 333.634 134.191 333.529 134.191 333.41C134.191 333.274 134.229 333.154 134.304 333.052C134.382 332.947 134.499 332.846 134.656 332.751C134.46 332.671 134.301 332.537 134.178 332.347C134.057 332.156 133.997 331.934 133.997 331.681C133.997 331.412 134.052 331.183 134.164 330.994C134.276 330.802 134.438 330.657 134.649 330.556C134.861 330.456 135.118 330.406 135.418 330.406C135.485 330.406 135.551 330.409 135.617 330.416C135.685 330.421 135.75 330.429 135.812 330.44C135.873 330.449 135.927 330.461 135.972 330.474H137.257V330.84L136.567 330.926C136.635 331.014 136.692 331.122 136.738 331.247C136.783 331.372 136.806 331.511 136.806 331.664C136.806 332.038 136.68 332.335 136.427 332.556C136.174 332.775 135.826 332.884 135.384 332.884C135.279 332.884 135.172 332.875 135.063 332.857C134.951 332.918 134.866 332.987 134.807 333.062C134.75 333.137 134.721 333.224 134.721 333.322C134.721 333.394 134.743 333.453 134.786 333.496C134.832 333.539 134.897 333.571 134.981 333.592C135.065 333.61 135.167 333.619 135.285 333.619H135.945C136.353 333.619 136.665 333.704 136.881 333.875C137.1 334.046 137.209 334.296 137.209 334.624C137.209 335.038 137.041 335.356 136.704 335.577C136.366 335.798 135.879 335.909 135.241 335.909ZM135.258 335.465C135.568 335.465 135.824 335.433 136.027 335.369C136.232 335.307 136.385 335.217 136.485 335.099C136.587 334.983 136.639 334.844 136.639 334.682C136.639 334.531 136.604 334.418 136.536 334.34C136.468 334.265 136.368 334.215 136.235 334.19C136.103 334.162 135.941 334.149 135.75 334.149H135.101C134.932 334.149 134.785 334.175 134.66 334.227C134.534 334.28 134.438 334.357 134.369 334.46C134.303 334.562 134.27 334.69 134.27 334.843C134.27 335.045 134.355 335.199 134.526 335.304C134.697 335.411 134.941 335.465 135.258 335.465ZM135.405 332.47C135.676 332.47 135.88 332.402 136.017 332.265C136.153 332.129 136.222 331.929 136.222 331.667C136.222 331.387 136.152 331.177 136.013 331.038C135.874 330.897 135.669 330.826 135.398 330.826C135.138 330.826 134.938 330.899 134.796 331.045C134.657 331.189 134.588 331.399 134.588 331.677C134.588 331.933 134.659 332.129 134.8 332.265C134.941 332.402 135.143 332.47 135.405 332.47ZM139.77 330.413C140.214 330.413 140.55 330.522 140.778 330.741C141.006 330.957 141.12 331.306 141.12 331.787V334.227H140.559V331.824C140.559 331.512 140.487 331.279 140.344 331.124C140.202 330.969 139.985 330.891 139.691 330.891C139.276 330.891 138.985 331.009 138.816 331.243C138.647 331.478 138.563 331.819 138.563 332.265V334.227H137.996V330.481H138.454L138.539 331.021H138.57C138.65 330.889 138.751 330.779 138.874 330.69C138.997 330.599 139.135 330.53 139.288 330.485C139.44 330.437 139.601 330.413 139.77 330.413ZM141.971 332.6V332.094H143.666V332.6H141.971ZM145.754 333.831C145.848 333.831 145.944 333.823 146.042 333.807C146.139 333.791 146.219 333.772 146.281 333.749V334.19C146.215 334.219 146.122 334.244 146.004 334.265C145.888 334.285 145.774 334.296 145.662 334.296C145.464 334.296 145.284 334.261 145.122 334.193C144.96 334.122 144.83 334.004 144.732 333.838C144.637 333.671 144.589 333.441 144.589 333.147V330.926H144.056V330.649L144.592 330.427L144.818 329.613H145.16V330.481H146.257V330.926H145.16V333.13C145.16 333.365 145.213 333.54 145.32 333.656C145.43 333.773 145.574 333.831 145.754 333.831ZM148.441 330.42C148.888 330.42 149.219 330.52 149.436 330.72C149.652 330.921 149.76 331.241 149.76 331.681V334.227H149.347L149.237 333.674H149.21C149.105 333.81 148.996 333.925 148.882 334.019C148.768 334.11 148.636 334.179 148.485 334.227C148.337 334.273 148.155 334.296 147.938 334.296C147.711 334.296 147.508 334.256 147.33 334.176C147.155 334.096 147.016 333.976 146.913 333.814C146.813 333.652 146.763 333.447 146.763 333.198C146.763 332.825 146.911 332.538 147.207 332.337C147.503 332.137 147.954 332.027 148.561 332.009L149.207 331.982V331.753C149.207 331.429 149.137 331.202 148.998 331.073C148.859 330.943 148.663 330.878 148.41 330.878C148.214 330.878 148.027 330.906 147.85 330.963C147.672 331.02 147.503 331.087 147.344 331.165L147.169 330.734C147.338 330.648 147.532 330.573 147.75 330.512C147.969 330.45 148.199 330.42 148.441 330.42ZM149.2 332.382L148.629 332.406C148.162 332.424 147.833 332.5 147.641 332.635C147.45 332.769 147.354 332.959 147.354 333.205C147.354 333.42 147.419 333.578 147.549 333.68C147.679 333.783 147.851 333.834 148.065 333.834C148.398 333.834 148.67 333.742 148.882 333.557C149.094 333.373 149.2 333.096 149.2 332.727V332.382ZM151.497 328.909V330.239C151.497 330.391 151.492 330.539 151.483 330.683C151.476 330.826 151.47 330.938 151.466 331.018H151.497C151.599 330.849 151.747 330.707 151.941 330.591C152.135 330.474 152.382 330.416 152.683 330.416C153.152 330.416 153.526 330.579 153.804 330.905C154.084 331.229 154.224 331.711 154.224 332.351C154.224 332.772 154.16 333.128 154.033 333.417C153.905 333.707 153.725 333.925 153.493 334.073C153.26 334.222 152.986 334.296 152.669 334.296C152.373 334.296 152.129 334.241 151.938 334.132C151.748 334.02 151.603 333.884 151.5 333.725H151.456L151.339 334.227H150.929V328.909H151.497ZM152.59 330.891C152.319 330.891 152.104 330.945 151.944 331.052C151.785 331.157 151.67 331.316 151.599 331.531C151.531 331.742 151.497 332.011 151.497 332.337V332.368C151.497 332.84 151.575 333.201 151.732 333.451C151.89 333.7 152.176 333.824 152.59 333.824C152.939 333.824 153.2 333.696 153.373 333.441C153.549 333.186 153.636 332.821 153.636 332.347C153.636 331.864 153.55 331.501 153.376 331.257C153.206 331.013 152.944 330.891 152.59 330.891ZM157.639 333.202C157.639 333.441 157.578 333.643 157.458 333.807C157.339 333.969 157.168 334.091 156.945 334.173C156.724 334.255 156.459 334.296 156.152 334.296C155.89 334.296 155.663 334.275 155.472 334.234C155.28 334.193 155.113 334.135 154.969 334.06V333.537C155.122 333.612 155.304 333.68 155.516 333.742C155.728 333.803 155.944 333.834 156.166 333.834C156.489 333.834 156.724 333.782 156.87 333.677C157.015 333.572 157.088 333.43 157.088 333.25C157.088 333.147 157.059 333.057 157 332.98C156.943 332.9 156.846 332.824 156.709 332.751C156.572 332.676 156.383 332.594 156.142 332.505C155.902 332.413 155.695 332.323 155.52 332.235C155.346 332.143 155.212 332.033 155.116 331.903C155.023 331.773 154.976 331.605 154.976 331.397C154.976 331.08 155.104 330.838 155.359 330.669C155.616 330.498 155.954 330.413 156.371 330.413C156.596 330.413 156.807 330.436 157.003 330.481C157.201 330.524 157.386 330.584 157.557 330.659L157.365 331.114C157.21 331.047 157.045 330.992 156.87 330.946C156.694 330.9 156.515 330.878 156.333 330.878C156.071 330.878 155.869 330.921 155.728 331.008C155.589 331.094 155.52 331.213 155.52 331.363C155.52 331.479 155.551 331.575 155.615 331.65C155.681 331.725 155.786 331.796 155.93 331.862C156.073 331.928 156.262 332.006 156.497 332.094C156.732 332.181 156.935 332.271 157.105 332.365C157.276 332.456 157.407 332.567 157.499 332.699C157.592 332.829 157.639 332.997 157.639 333.202Z" fill="#666666"/>
<path d="M36 334.655H157.953V334.825H36V334.655Z" fill="#666666"/>
<a href="https://m2.material.io/go/design-tabs">
<rect fill="black" fill-opacity="0" y="0.233643" width="121.953" height="9.53271"/>
</a>
</svg>
