<svg width="700" height="550" viewBox="0 0 700 550" fill="none" xmlns="http://www.w3.org/2000/svg">
<path d="M299.88 249.949C299.095 241.037 299.42 232.061 300.85 223.229C300.75 224.709 299.58 242.579 299.88 249.949Z" fill="black"/>
<path d="M300.86 223.129C301.474 219.016 302.393 214.955 303.61 210.979C303.61 210.979 307.11 211.559 312.01 212.139C308.56 216.063 304.834 219.736 300.86 223.129Z" fill="black"/>
<path d="M359.2 223.13L344.94 219.81C344.76 220.95 344.57 222.05 344.37 223.13V223.14C347.9 231.07 351.15 239.11 354.29 247.2C357.43 255.3 360.37 263.46 363.21 271.67C365.95 279.91 368.61 288.18 370.96 296.54C373.27 304.91 375.37 313.34 376.94 321.88L375.41 315.56C374.93 313.44 374.3 311.36 373.76 309.27C373.21 307.17 372.66 305.07 372.04 302.99L370.22 296.75C367.72 288.45 365.07 280.197 362.27 271.99C359.51 263.77 356.56 255.62 353.58 247.47C352.09 243.4 350.573 239.337 349.03 235.28C347.52 231.22 345.94 227.19 344.37 223.14C343.684 226.994 342.796 230.809 341.71 234.57C345.16 246.27 348.31 258.05 351.31 269.86C354.32 281.68 357.08 293.56 359.68 305.47C362.18 317.41 364.51 329.39 366.29 341.46C367.16 347.5 367.89 353.56 368.37 359.64C368.92 365.722 368.9 371.842 368.31 377.92C368.712 371.843 368.568 365.742 367.88 359.69C367.31 353.63 366.49 347.59 365.53 341.58C364.54 335.57 363.51 329.57 362.36 323.59C361.21 317.61 359.98 311.64 358.7 305.68C356.19 293.76 353.41 281.9 350.57 270.05C349.16 264.12 347.707 258.2 346.21 252.29C344.75 246.38 343.23 240.47 341.71 234.57C340.937 237.25 340.005 239.881 338.92 242.45V242.46C339.57 250.13 339.98 257.81 340.31 265.5C340.65 273.21 340.78 280.91 340.86 288.62C340.86 296.33 340.75 304.05 340.33 311.75C340.038 319.46 339.172 327.138 337.74 334.72L338.48 328.99L338.98 323.24C339.23 319.4 339.47 315.56 339.57 311.71C339.82 304.02 339.94 296.33 339.86 288.63C339.87 280.93 339.72 273.23 339.55 265.53L339.25 253.98L338.92 242.46C325.08 274.75 299.88 249.95 299.88 249.95C300.511 257.256 300.168 264.614 298.86 271.83C295.98 287.95 290.42 314.81 283.1 329.75C272.17 352.08 248.02 390.35 244.83 404.02C244.83 404.02 280.37 443.21 345.53 420.88C410.68 398.56 412.51 408.12 412.51 408.12C412.51 408.12 399.75 288.75 359.2 223.13ZM249.29 404C248.902 403.986 248.534 403.822 248.264 403.542C247.995 403.262 247.844 402.889 247.844 402.5C247.844 402.111 247.995 401.738 248.264 401.458C248.534 401.178 248.902 401.014 249.29 401C249.678 401.014 250.046 401.178 250.316 401.458C250.586 401.738 250.736 402.111 250.736 402.5C250.736 402.889 250.586 403.262 250.316 403.542C250.046 403.822 249.678 403.986 249.29 404ZM257.21 409.04C256.822 409.026 256.454 408.862 256.184 408.582C255.915 408.302 255.764 407.929 255.764 407.54C255.764 407.151 255.915 406.778 256.184 406.498C256.454 406.218 256.822 406.054 257.21 406.04C257.598 406.054 257.966 406.218 258.236 406.498C258.506 406.778 258.656 407.151 258.656 407.54C258.656 407.929 258.506 408.302 258.236 408.582C257.966 408.862 257.598 409.026 257.21 409.04ZM266.57 414.8C266.182 414.786 265.814 414.622 265.544 414.342C265.275 414.062 265.124 413.689 265.124 413.3C265.124 412.911 265.275 412.538 265.544 412.258C265.814 411.978 266.182 411.814 266.57 411.8C266.958 411.814 267.326 411.978 267.596 412.258C267.866 412.538 268.016 412.911 268.016 413.3C268.016 413.689 267.866 414.062 267.596 414.342C267.326 414.622 266.958 414.786 266.57 414.8ZM277.01 419.12C276.622 419.106 276.254 418.942 275.984 418.662C275.715 418.382 275.564 418.009 275.564 417.62C275.564 417.231 275.715 416.858 275.984 416.578C276.254 416.298 276.622 416.134 277.01 416.12C277.398 416.134 277.766 416.298 278.036 416.578C278.306 416.858 278.456 417.231 278.456 417.62C278.456 418.009 278.306 418.382 278.036 418.662C277.766 418.942 277.398 419.106 277.01 419.12ZM288.17 422C287.782 421.986 287.414 421.822 287.144 421.542C286.875 421.262 286.724 420.889 286.724 420.5C286.724 420.111 286.875 419.738 287.144 419.458C287.414 419.178 287.782 419.014 288.17 419C288.558 419.014 288.926 419.178 289.196 419.458C289.466 419.738 289.616 420.111 289.616 420.5C289.616 420.889 289.466 421.262 289.196 421.542C288.926 421.822 288.558 421.986 288.17 422ZM299.69 424.52C299.302 424.506 298.934 424.342 298.664 424.062C298.395 423.782 298.244 423.409 298.244 423.02C298.244 422.631 298.395 422.258 298.664 421.978C298.934 421.698 299.302 421.534 299.69 421.52C300.078 421.534 300.446 421.698 300.716 421.978C300.986 422.258 301.136 422.631 301.136 423.02C301.136 423.409 300.986 423.782 300.716 424.062C300.446 424.342 300.078 424.506 299.69 424.52ZM311.93 424.88C311.542 424.866 311.174 424.702 310.904 424.422C310.635 424.142 310.484 423.769 310.484 423.38C310.484 422.991 310.635 422.618 310.904 422.338C311.174 422.059 311.542 421.894 311.93 421.88C312.318 421.894 312.686 422.059 312.956 422.338C313.226 422.618 313.376 422.991 313.376 423.38C313.376 423.769 313.226 424.142 312.956 424.422C312.686 424.702 312.318 424.866 311.93 424.88ZM323.45 423.8C323.062 423.786 322.694 423.622 322.424 423.342C322.155 423.062 322.004 422.689 322.004 422.3C322.004 421.911 322.155 421.538 322.424 421.258C322.694 420.978 323.062 420.814 323.45 420.8C323.838 420.814 324.206 420.978 324.476 421.258C324.746 421.538 324.896 421.911 324.896 422.3C324.896 422.689 324.746 423.062 324.476 423.342C324.206 423.622 323.838 423.786 323.45 423.8ZM334.97 420.2C334.582 420.186 334.214 420.022 333.944 419.742C333.675 419.462 333.524 419.089 333.524 418.7C333.524 418.311 333.675 417.938 333.944 417.658C334.214 417.378 334.582 417.214 334.97 417.2C335.358 417.214 335.726 417.378 335.996 417.658C336.266 417.938 336.416 418.311 336.416 418.7C336.416 419.089 336.266 419.462 335.996 419.742C335.726 420.022 335.358 420.186 334.97 420.2ZM346.85 416.96C346.462 416.946 346.094 416.782 345.824 416.502C345.555 416.222 345.404 415.849 345.404 415.46C345.404 415.071 345.555 414.698 345.824 414.418C346.094 414.138 346.462 413.974 346.85 413.96C347.238 413.974 347.606 414.138 347.876 414.418C348.146 414.698 348.296 415.071 348.296 415.46C348.296 415.849 348.146 416.222 347.876 416.502C347.606 416.782 347.238 416.946 346.85 416.96ZM358.73 413C358.342 412.986 357.974 412.822 357.704 412.542C357.435 412.262 357.284 411.889 357.284 411.5C357.284 411.111 357.435 410.738 357.704 410.458C357.974 410.178 358.342 410.014 358.73 410C359.118 410.014 359.486 410.178 359.756 410.458C360.026 410.738 360.176 411.111 360.176 411.5C360.176 411.889 360.026 412.262 359.756 412.542C359.486 412.822 359.118 412.986 358.73 413ZM372.05 408.68C371.662 408.666 371.294 408.502 371.024 408.222C370.755 407.942 370.604 407.569 370.604 407.18C370.604 406.791 370.755 406.418 371.024 406.138C371.294 405.858 371.662 405.694 372.05 405.68C372.438 405.694 372.806 405.858 373.076 406.138C373.346 406.418 373.496 406.791 373.496 407.18C373.496 407.569 373.346 407.942 373.076 408.222C372.806 408.502 372.438 408.666 372.05 408.68ZM385.73 405.08C385.342 405.066 384.974 404.902 384.704 404.622C384.435 404.342 384.284 403.969 384.284 403.58C384.284 403.191 384.435 402.818 384.704 402.538C384.974 402.258 385.342 402.094 385.73 402.08C386.118 402.094 386.486 402.258 386.756 402.538C387.026 402.818 387.176 403.191 387.176 403.58C387.176 403.969 387.026 404.342 386.756 404.622C386.486 404.902 386.118 405.066 385.73 405.08ZM396.89 403.28C396.502 403.266 396.134 403.102 395.864 402.822C395.595 402.542 395.444 402.169 395.444 401.78C395.444 401.391 395.595 401.018 395.864 400.738C396.134 400.458 396.502 400.294 396.89 400.28C397.278 400.294 397.646 400.458 397.916 400.738C398.186 401.018 398.336 401.391 398.336 401.78C398.336 402.169 398.186 402.542 397.916 402.822C397.646 403.102 397.278 403.266 396.89 403.28ZM406.97 402.56C406.582 402.546 406.214 402.382 405.944 402.102C405.675 401.822 405.524 401.449 405.524 401.06C405.524 400.671 405.675 400.298 405.944 400.018C406.214 399.738 406.582 399.574 406.97 399.56C407.358 399.574 407.726 399.738 407.996 400.018C408.266 400.298 408.416 400.671 408.416 401.06C408.416 401.449 408.266 401.822 407.996 402.102C407.726 402.382 407.358 402.546 406.97 402.56Z" fill="black"/>
<path d="M343.249 92.821C343.249 92.821 337.325 92.5932 336.414 100.567C335.503 108.541 326.618 106.49 326.618 106.49C326.618 106.49 322.289 106.718 324.112 112.186C325.934 117.654 328.44 116.059 328.44 116.059C328.44 116.059 329.037 127.408 335.958 128.589C335.958 128.589 319.74 136.999 316.398 128.101C315.974 126.906 315.859 125.624 316.062 124.373C316.35 122.357 316.971 120.403 317.901 118.591C319.185 116.281 319.828 113.67 319.763 111.028C319.689 109.554 319.389 108.101 318.872 106.718C316.821 101.25 318.872 88.7203 335.731 89.4037C335.731 89.4037 341.882 88.4924 343.249 92.821Z" fill="black"/>
<path d="M317.489 129.9C316.778 131.572 316.04 133.231 315.3 134.888L315.212 134.482C317.535 136.206 319.896 137.884 322.294 139.515C324.688 141.142 327.155 142.652 329.631 144.127C332.098 145.593 334.651 146.908 337.277 148.065C339.803 149.267 342.523 150.009 345.309 150.257L344.731 151.831C342.446 149.891 340.477 147.607 338.895 145.063C338.083 143.766 337.493 142.344 337.149 140.854C336.81 139.315 336.971 137.708 337.609 136.268C338.209 134.895 339 133.615 339.958 132.464C340.877 131.313 341.883 130.235 342.968 129.238C344.087 128.264 345.337 127.453 346.682 126.828C347.329 126.552 347.939 126.197 348.499 125.771C349.028 125.324 349.486 124.8 349.86 124.217C350.598 123.006 351.134 121.685 351.449 120.303C351.798 118.912 352.033 117.495 352.15 116.067C352.399 113.192 352.484 110.306 352.403 107.422L352.36 105.25C352.303 104.547 352.296 103.854 352.176 103.171C351.991 101.811 351.594 100.488 351 99.2509C349.818 96.8152 347.846 94.8518 345.405 93.6809L345.339 93.6512C345.229 93.6025 345.13 93.5326 345.047 93.4456C344.964 93.3586 344.9 93.2561 344.856 93.144C344.813 93.032 344.793 92.9125 344.796 92.7925C344.799 92.6724 344.825 92.5541 344.874 92.4444C344.936 92.3064 345.031 92.1859 345.151 92.0933C345.271 92.0007 345.411 91.9389 345.56 91.9134C346.569 91.7459 347.602 91.7958 348.589 92.0599C349.072 92.1835 349.543 92.3505 349.995 92.5588C350.438 92.7828 350.864 93.0396 351.268 93.3271C352.792 94.5188 353.97 96.0966 354.679 97.8969C355.919 101.314 356.503 104.934 356.4 108.568C356.342 111.965 356.736 115.354 357.573 118.647C357.991 120.235 358.653 121.749 359.536 123.133C359.966 123.794 360.487 124.39 361.083 124.905C361.377 125.146 361.689 125.362 362.018 125.55C362.31 125.712 362.621 125.838 362.943 125.925L363.007 125.936C363.175 125.966 363.331 126.046 363.452 126.166C363.574 126.286 363.656 126.44 363.687 126.608C363.719 126.776 363.698 126.949 363.629 127.105C363.559 127.261 363.443 127.392 363.297 127.481C359.529 129.783 355.608 131.825 351.561 133.594C349.537 134.497 347.444 135.235 345.301 135.8C344.219 136.084 343.109 136.249 341.991 136.292C341.422 136.352 340.847 136.289 340.304 136.108C339.762 135.926 339.265 135.631 338.846 135.241C338.829 135.222 338.82 135.197 338.82 135.171C338.821 135.145 338.831 135.121 338.85 135.103C338.868 135.085 338.892 135.074 338.918 135.074C338.943 135.073 338.968 135.082 338.987 135.099L338.994 135.105C339.412 135.424 339.893 135.652 340.405 135.774C340.917 135.896 341.449 135.91 341.966 135.814C343.035 135.693 344.087 135.457 345.104 135.109C347.154 134.4 349.154 133.554 351.091 132.578C353.037 131.609 354.945 130.557 356.823 129.455C358.701 128.36 360.578 127.234 362.385 126.052L362.739 127.608C362.207 127.516 361.692 127.341 361.214 127.091C360.777 126.862 360.36 126.595 359.969 126.294C359.221 125.693 358.561 124.991 358.009 124.206C356.949 122.685 356.148 120.999 355.638 119.216C355.372 118.345 355.187 117.46 354.985 116.578C354.85 115.691 354.672 114.805 354.575 113.915C354.496 113.026 354.393 112.135 354.336 111.246L354.261 108.578C354.351 105.218 353.852 101.869 352.787 98.6807C352.245 97.2034 351.319 95.8969 350.106 94.895C349.803 94.6731 349.485 94.4722 349.155 94.2939C348.817 94.1326 348.466 94.0013 348.105 93.9016C347.405 93.702 346.672 93.6432 345.949 93.7286L346.104 91.9612C347.53 92.6404 348.817 93.5789 349.9 94.7289C350.973 95.8489 351.842 97.1475 352.468 98.5663C353.092 99.9687 353.487 101.462 353.64 102.989C353.733 103.741 353.708 104.507 353.729 105.251L353.667 107.433C353.604 110.355 353.388 113.271 353.019 116.17C352.824 117.628 352.534 119.071 352.152 120.49C351.797 121.938 351.209 123.319 350.412 124.579C349.992 125.212 349.479 125.779 348.891 126.259C348.287 126.699 347.636 127.072 346.951 127.371C345.665 127.983 344.473 128.774 343.408 129.719C341.308 131.644 339.651 134.001 338.548 136.627C337.476 139.242 338.574 141.984 340.123 144.286C341.747 146.589 343.674 148.664 345.85 150.455L345.867 150.47C346.008 150.588 346.109 150.747 346.155 150.925C346.201 151.103 346.19 151.29 346.125 151.462C346.059 151.634 345.942 151.78 345.789 151.882C345.636 151.984 345.455 152.036 345.271 152.03C342.247 151.816 339.294 151.013 336.578 149.666C333.894 148.457 331.301 147.054 328.82 145.468C326.33 143.923 323.94 142.236 321.601 140.49C319.262 138.742 316.974 136.939 314.786 134.998L314.768 134.983C314.714 134.935 314.678 134.87 314.665 134.799C314.652 134.729 314.664 134.656 314.698 134.592C315.558 132.993 316.42 131.396 317.31 129.812C317.322 129.79 317.343 129.773 317.367 129.766C317.392 129.758 317.418 129.76 317.441 129.771C317.464 129.783 317.482 129.802 317.491 129.826C317.5 129.85 317.499 129.877 317.489 129.9Z" fill="black"/>
<path d="M342.879 129.77C344.254 128.495 345.84 127.471 347.566 126.741C352.858 124.299 353.045 113.589 353.045 105.124C353.045 95.7829 345.755 92.8212 345.755 92.8212C345.755 92.8212 355.323 90.7708 355.323 108.313C355.323 125.855 362.841 126.767 362.841 126.767C362.841 126.767 342.89 139.502 338.92 135.173L342.879 129.77Z" fill="black"/>
<path d="M335.42 103.689C335.939 103.207 336.564 102.855 337.245 102.66C337.92 102.448 338.626 102.344 339.334 102.353C340.039 102.365 340.739 102.484 341.409 102.707C342.077 102.92 342.7 103.252 343.249 103.689C342.543 103.639 341.894 103.528 341.243 103.47C340.597 103.394 339.957 103.367 339.32 103.352C338.68 103.34 338.039 103.363 337.402 103.421C336.756 103.481 336.108 103.563 335.42 103.689Z" fill="black"/>
<path d="M347.349 103.689C347.761 103.402 348.219 103.191 348.704 103.065C349.177 102.931 349.665 102.855 350.156 102.836C350.654 102.821 351.152 102.874 351.636 102.994C352.135 103.11 352.597 103.349 352.981 103.689C351.965 103.752 351.112 103.8 350.187 103.835C349.239 103.886 348.288 103.837 347.349 103.689Z" fill="black"/>
<path d="M338.92 109.438C339.212 109.428 339.488 109.305 339.691 109.095C339.894 108.885 340.007 108.605 340.007 108.313C340.007 108.021 339.894 107.741 339.691 107.531C339.488 107.321 339.212 107.198 338.92 107.188C338.628 107.198 338.352 107.321 338.149 107.531C337.947 107.741 337.833 108.021 337.833 108.313C337.833 108.605 337.947 108.885 338.149 109.095C338.352 109.305 338.628 109.428 338.92 109.438Z" fill="black"/>
<path d="M345.527 101.926C345.818 101.916 346.095 101.793 346.298 101.583C346.5 101.374 346.614 101.093 346.614 100.801C346.614 100.509 346.5 100.229 346.298 100.019C346.095 99.8093 345.818 99.6863 345.527 99.6763C345.235 99.6863 344.959 99.8093 344.756 100.019C344.553 100.229 344.44 100.509 344.44 100.801C344.44 101.093 344.553 101.374 344.756 101.583C344.959 101.793 345.235 101.916 345.527 101.926Z" fill="#B21919"/>
<path d="M326.65 115.417C326.942 115.406 327.218 115.283 327.421 115.074C327.624 114.864 327.737 114.583 327.737 114.292C327.737 114 327.624 113.719 327.421 113.509C327.218 113.3 326.942 113.177 326.65 113.167C326.358 113.177 326.082 113.3 325.879 113.509C325.677 113.719 325.563 114 325.563 114.292C325.563 114.583 325.677 114.864 325.879 115.074C326.082 115.283 326.358 115.406 326.65 115.417Z" fill="black"/>
<path d="M349.172 108.982C349.464 108.972 349.74 108.849 349.943 108.64C350.146 108.43 350.259 108.149 350.259 107.857C350.259 107.566 350.146 107.285 349.943 107.075C349.74 106.865 349.464 106.742 349.172 106.732C348.88 106.742 348.604 106.865 348.401 107.075C348.199 107.285 348.085 107.566 348.085 107.857C348.085 108.149 348.199 108.43 348.401 108.64C348.604 108.849 348.88 108.972 349.172 108.982Z" fill="black"/>
<path d="M341.882 117.426C343.047 117.93 344.29 118.229 345.556 118.31C346.159 118.337 346.762 118.266 347.342 118.1C347.967 117.918 348.579 117.693 349.172 117.426C348.791 118.021 348.258 118.504 347.629 118.826C347.308 118.995 346.968 119.125 346.616 119.212C346.258 119.28 345.894 119.313 345.529 119.309C344.809 119.285 344.103 119.1 343.464 118.768C342.835 118.456 342.292 117.996 341.882 117.426Z" fill="black"/>
<path d="M343.249 112.186C343.853 112.666 344.5 113.089 345.182 113.45C345.502 113.615 345.834 113.754 346.176 113.865C346.532 113.995 346.912 114.077 347.349 114.236C346.973 114.493 346.53 114.632 346.074 114.638C345.609 114.655 345.147 114.553 344.731 114.341C344.318 114.133 343.961 113.826 343.692 113.449C343.418 113.084 343.263 112.643 343.249 112.186Z" fill="black"/>
<path d="M352.816 161.895C352.699 161.895 352.586 161.854 352.496 161.779C352.407 161.704 352.346 161.6 352.325 161.485C351.973 159.546 346.861 153.605 344.921 151.48C344.833 151.382 344.786 151.253 344.793 151.121C344.799 150.989 344.857 150.865 344.955 150.776C345.052 150.687 345.182 150.64 345.314 150.645C345.446 150.651 345.57 150.709 345.66 150.806C346.393 151.61 352.841 158.733 353.308 161.305C353.32 161.37 353.319 161.436 353.306 161.501C353.292 161.565 353.265 161.626 353.228 161.68C353.191 161.734 353.143 161.78 353.088 161.816C353.033 161.851 352.971 161.876 352.906 161.887C352.876 161.892 352.846 161.895 352.816 161.895Z" fill="black"/>
<path d="M315 134.741C311.167 138.974 308.064 143.815 305.818 149.065C303.585 154.248 302.311 159.793 302.058 165.431C302.026 166.839 302.079 168.237 302.089 169.661C302.14 171.071 302.245 172.492 302.349 173.907C302.559 176.734 302.921 179.547 303.433 182.335C303.673 183.738 304.004 185.068 304.37 186.462C304.747 187.874 305.064 189.3 305.306 190.737C305.806 193.611 306.054 196.524 306.047 199.441L305.664 198.87C307.83 199.791 310.093 200.606 312.355 201.368C314.627 202.117 316.935 202.762 319.26 203.371C318.072 203.2 316.876 203.042 315.697 202.801C314.514 202.577 313.338 202.318 312.164 202.044C309.804 201.503 307.478 200.825 305.196 200.013C305.09 199.974 304.997 199.906 304.93 199.815C304.862 199.725 304.823 199.616 304.816 199.503L304.813 199.441C304.65 196.618 304.27 193.813 303.676 191.048C303.382 189.666 303.054 188.292 302.649 186.943C302.248 185.571 301.846 184.124 301.564 182.703C300.444 176.988 299.961 171.167 300.126 165.345C300.462 159.485 301.967 153.751 304.552 148.481C307.106 143.264 310.655 138.597 315 134.741Z" fill="black"/>
<path d="M319.089 149.904C323.33 149.339 327.644 149.826 331.652 151.321C335.719 152.764 339.379 155.166 342.32 158.324C343.738 159.913 345.02 161.62 346.152 163.425C347.243 165.229 348.239 167.089 349.136 168.997C350.946 172.804 352.401 176.77 353.482 180.844C353.517 180.977 353.508 181.118 353.456 181.246C353.405 181.374 353.313 181.481 353.196 181.553L353.144 181.584C351.003 182.881 348.824 184.089 346.628 185.279C344.424 186.45 342.2 187.589 339.956 188.696C337.7 189.779 335.418 190.822 333.048 191.698C331.861 192.133 330.666 192.56 329.415 192.888C328.779 193.061 328.133 193.197 327.48 193.293C326.724 193.44 325.944 193.414 325.199 193.217C325.087 193.183 324.983 193.125 324.894 193.048C324.806 192.97 324.734 192.875 324.685 192.768C323.691 190.57 322.721 188.36 321.775 186.138C320.811 183.925 319.889 181.692 319.01 179.437C319.001 179.413 319.001 179.387 319.01 179.364C319.019 179.34 319.036 179.321 319.059 179.31C319.082 179.299 319.108 179.297 319.132 179.304C319.156 179.311 319.176 179.327 319.189 179.349C320.432 181.425 321.637 183.52 322.803 185.633C323.985 187.739 325.142 189.857 326.272 191.989L325.758 191.54C326.233 191.597 326.714 191.567 327.178 191.451C327.751 191.335 328.317 191.184 328.873 191C330.011 190.634 331.158 190.214 332.292 189.754C334.556 188.818 336.818 187.828 339.069 186.805C343.58 184.775 348.029 182.56 352.49 180.392L352.152 181.131C351.533 177.025 350.334 173.027 348.591 169.257C347.702 167.386 346.627 165.609 345.381 163.953C344.123 162.331 342.735 160.813 341.231 159.415C338.237 156.66 334.804 154.424 331.074 152.8C327.28 151.191 323.227 150.278 319.11 150.103L319.101 150.103C319.076 150.102 319.052 150.092 319.034 150.075C319.016 150.057 319.006 150.034 319.004 150.009C319.003 149.984 319.011 149.959 319.027 149.94C319.042 149.921 319.065 149.908 319.089 149.904L319.089 149.904Z" fill="black"/>
<path d="M337.736 140.675C339.599 140.523 341.467 140.918 343.11 141.811C344.779 142.71 346.193 144.017 347.221 145.61C348.217 147.196 348.917 148.949 349.288 150.784C349.445 151.695 349.556 152.613 349.649 153.524C349.643 154.445 349.67 155.36 349.632 156.269C349.444 155.369 349.32 154.474 349.163 153.586L348.531 150.972L348.1 149.71L347.892 149.079C347.809 148.874 347.706 148.678 347.615 148.478L347.07 147.275L346.384 146.156C345.432 144.665 344.164 143.401 342.669 142.454C341.175 141.507 339.491 140.9 337.736 140.675Z" fill="black"/>
<path d="M323.438 132.181C324.535 132.853 325.666 133.469 326.827 134.025C327.968 134.582 329.139 135.078 330.333 135.511C331.524 135.953 332.737 136.333 333.967 136.65C335.2 136.983 336.455 137.234 337.736 137.517C336.429 137.643 335.111 137.608 333.813 137.415C331.194 137.041 328.684 136.117 326.448 134.704C325.325 134.017 324.31 133.167 323.438 132.181Z" fill="black"/>
<path d="M351.65 181.62C353.8 184.113 355.806 186.727 357.657 189.45C359.546 192.146 361.277 194.95 362.841 197.847C360.689 195.355 358.684 192.741 356.834 190.017C354.947 187.319 353.217 184.515 351.65 181.62Z" fill="black"/>
<path d="M347.615 166.734C349.469 164.55 351.39 162.43 353.353 160.349C355.321 158.273 357.333 156.239 359.39 154.248C361.459 152.269 363.546 150.306 365.748 148.456C366.862 147.546 367.977 146.632 369.174 145.806C369.772 145.391 370.376 144.983 371.018 144.605C371.344 144.409 371.68 144.23 372.025 144.069C372.429 143.865 372.869 143.742 373.321 143.708C373.396 143.704 373.471 143.718 373.54 143.749L373.552 143.755C375.518 144.663 377.452 145.629 379.42 146.523C381.379 147.435 383.351 148.316 385.327 149.19L391.262 151.816C392.25 152.262 393.232 152.723 394.211 153.212C394.701 153.454 395.188 153.711 395.674 153.99C395.918 154.137 396.158 154.274 396.407 154.455C396.543 154.546 396.671 154.648 396.79 154.759C396.859 154.827 396.919 154.876 396.993 154.962C397.086 155.092 397.164 155.233 397.224 155.382C397.254 155.456 397.269 155.535 397.268 155.615C397.267 155.694 397.251 155.773 397.219 155.847C397.188 155.92 397.143 155.986 397.086 156.042C397.029 156.098 396.962 156.142 396.888 156.172L396.828 156.193L396.699 156.23C392.545 157.468 388.525 159.119 384.699 161.156C382.766 162.146 380.907 163.274 379.064 164.417L376.33 166.187L373.671 168.067C370.154 170.634 366.827 173.45 363.716 176.495C362.087 177.956 360.659 179.611 359.149 181.201C357.66 182.809 356.32 184.546 354.849 186.197L354.844 186.202C354.828 186.221 354.805 186.233 354.78 186.235C354.755 186.238 354.73 186.231 354.71 186.215C354.69 186.2 354.676 186.178 354.672 186.154C354.667 186.129 354.672 186.103 354.685 186.082C355.277 185.152 355.886 184.231 356.5 183.31C357.132 182.404 357.679 181.426 358.397 180.583C359.783 178.859 361.085 177.048 362.621 175.441C363.378 174.628 364.112 173.79 364.89 172.994L367.307 170.691C368.099 169.906 368.957 169.196 369.816 168.485C370.688 167.791 371.508 167.03 372.423 166.391C375.973 163.681 379.79 161.34 383.816 159.406C387.813 157.382 392.046 155.863 396.418 154.883L395.893 155.731C395.889 155.744 395.89 155.758 395.895 155.771C395.9 155.783 395.91 155.794 395.922 155.8L395.843 155.714C395.771 155.634 395.692 155.562 395.607 155.497C395.432 155.345 395.213 155.195 395.005 155.048C394.576 154.756 394.127 154.473 393.669 154.201C392.753 153.655 391.809 153.139 390.861 152.632C388.964 151.615 387.033 150.657 385.069 149.76C383.112 148.852 381.134 147.993 379.133 147.182C377.14 146.357 375.106 145.624 373.09 144.862L373.321 144.909C373.068 144.981 372.826 145.086 372.6 145.22C372.31 145.385 372.029 145.566 371.757 145.76C371.197 146.153 370.65 146.589 370.108 147.033C369.033 147.937 367.957 148.856 366.902 149.801C364.77 151.669 362.649 153.56 360.538 155.476L354.189 161.208C352.064 163.112 349.92 165.001 347.757 166.874C347.738 166.891 347.713 166.9 347.688 166.899C347.662 166.898 347.638 166.888 347.62 166.87C347.602 166.852 347.592 166.828 347.591 166.803C347.59 166.778 347.598 166.753 347.614 166.734L347.615 166.734Z" fill="black"/>
<path d="M361.019 159.8L366.486 165.224L375.599 157.75L369.676 152.966L361.019 159.8Z" fill="black"/>
<path d="M389.73 157.744C390.957 158.681 392.094 159.73 393.127 160.877C393.653 161.465 394.14 162.086 394.586 162.737C395.117 163.47 395.453 164.325 395.564 165.224C395.58 165.39 395.538 165.557 395.445 165.697C395.353 165.836 395.216 165.94 395.056 165.99L394.946 166.025C394.347 166.215 393.738 166.371 393.135 166.546C392.529 166.712 391.929 166.899 391.318 167.046L391.75 165.571C392.235 166.124 392.668 166.72 393.044 167.352C393.419 167.964 393.746 168.605 394.021 169.269C394.572 170.586 394.954 171.968 395.158 173.381L395.164 173.425C395.172 173.479 395.169 173.534 395.156 173.586C395.143 173.639 395.119 173.689 395.087 173.732C395.054 173.776 395.013 173.813 394.967 173.84C394.92 173.868 394.868 173.887 394.815 173.895L394.785 173.898C391.395 174.22 388.082 175.104 384.982 176.514C381.872 177.847 378.833 179.34 375.877 180.985C372.962 182.673 370.078 184.404 367.325 186.356C364.514 188.239 361.922 190.411 359.214 192.55C359.194 192.567 359.168 192.576 359.141 192.574C359.115 192.572 359.09 192.56 359.072 192.54C359.058 192.522 359.05 192.5 359.049 192.477C359.048 192.454 359.055 192.432 359.068 192.413C361.139 189.63 363.54 187.108 366.217 184.902C367.55 183.784 368.944 182.741 370.393 181.778C371.108 181.281 371.882 180.879 372.624 180.426C373.367 179.973 374.135 179.563 374.924 179.196C378.004 177.59 381.252 176.331 384.61 175.442C387.962 174.546 391.276 173.773 394.688 173.041L394.315 173.558C393.933 172.287 393.387 171.07 392.692 169.939C392.357 169.372 391.989 168.827 391.613 168.293C391.23 167.775 390.825 167.223 390.433 166.787C390.33 166.674 390.258 166.536 390.224 166.386C390.189 166.237 390.193 166.082 390.236 165.934C390.278 165.787 390.357 165.653 390.465 165.545C390.573 165.436 390.707 165.357 390.854 165.315L390.864 165.312C391.468 165.142 392.083 165.01 392.692 164.857C393.304 164.713 393.911 164.552 394.526 164.423L393.908 165.224C393.84 164.608 393.641 164.013 393.324 163.48C392.998 162.842 392.6 162.221 392.199 161.594C391.374 160.351 390.485 159.123 389.589 157.886C389.573 157.864 389.566 157.837 389.569 157.811C389.573 157.784 389.587 157.76 389.609 157.744C389.626 157.731 389.648 157.725 389.669 157.725C389.691 157.725 389.713 157.732 389.73 157.744Z" fill="black"/>
<path d="M357.246 189.733C359.363 186.937 361.68 184.297 364.179 181.835C366.657 179.342 369.306 177.024 372.106 174.898C374.91 172.763 377.909 170.896 381.063 169.321C384.221 167.757 387.605 166.697 391.091 166.18C390.25 166.433 389.41 166.676 388.573 166.909L387.946 167.085L387.339 167.327L386.127 167.812L384.913 168.276C384.516 168.453 384.13 168.653 383.738 168.84C382.964 169.232 382.164 169.569 381.414 170.006C378.381 171.693 375.471 173.595 372.708 175.695C369.918 177.767 367.297 180.06 364.708 182.389C363.41 183.551 362.153 184.76 360.919 185.994C359.658 187.202 358.45 188.462 357.246 189.733Z" fill="black"/>
<path d="M307.095 200.066C307.537 201.883 307.705 203.756 307.594 205.623C307.545 206.561 307.418 207.493 307.212 208.409C307.04 209.352 306.636 210.236 306.038 210.984C306.267 210.103 306.402 209.199 306.441 208.289L306.596 205.57C306.663 203.728 306.83 201.89 307.095 200.066Z" fill="black"/>
<path d="M245.437 432.578C245.437 432.578 246.602 417.087 250.5 415.872C250.5 415.872 273.839 445.64 284.471 441.388C284.471 441.388 287.66 439.261 285.686 434.401C285.686 434.401 304.063 451.564 304.063 455.361C304.063 459.158 287.812 464.17 273.383 455.361C258.955 446.552 257.74 440.173 257.74 440.173L256.373 443.818L244.83 442.603L245.437 432.578Z" fill="black"/>
<path d="M254.168 411.817C253.844 412.695 253.346 413.499 252.704 414.18C252.093 414.888 251.343 415.464 250.5 415.871C250.825 414.994 251.323 414.19 251.964 413.509C252.579 412.804 253.328 412.229 254.168 411.817Z" fill="black"/>
<path d="M280.106 424.086C281.055 425.855 281.864 427.619 282.75 429.347C283.188 430.212 283.651 431.059 284.123 431.906C284.615 432.742 285.129 433.559 285.686 434.401C284.039 433.219 282.722 431.635 281.86 429.801C281.411 428.905 281.033 427.976 280.728 427.021C280.412 426.069 280.204 425.084 280.106 424.086Z" fill="black"/>
<path d="M393.217 436.223C393.217 436.223 424.279 439.637 433.323 429.427C433.868 428.814 434.231 428.061 434.373 427.253C434.514 426.446 434.427 425.614 434.123 424.853C433.818 424.092 433.307 423.43 432.648 422.943C431.988 422.455 431.206 422.162 430.389 422.094C427.351 421.91 424.301 422.116 421.315 422.706C421.315 422.706 450.628 412.834 453.97 415.264C457.311 417.694 456.552 440.932 412.506 445.64L417.67 455.208L401.571 460.676C401.571 460.676 400.963 452.171 397.926 449.741C394.888 447.311 391.091 441.691 393.217 436.223Z" fill="black"/>
<path d="M412.506 408.125C412.81 409.643 413.177 411.129 413.574 412.594C413.967 414.049 414.47 415.472 415.078 416.851C415.654 418.215 416.461 419.47 417.463 420.56C418.498 421.652 419.842 422.401 421.315 422.706C419.705 422.77 418.132 422.205 416.93 421.13C415.738 420.058 414.795 418.738 414.167 417.263C413.537 415.824 413.083 414.314 412.816 412.767C412.534 411.237 412.43 409.679 412.506 408.125Z" fill="black"/>
<path d="M381.094 410.058C385.736 412.479 389.486 416.318 391.798 421.016C392.364 422.196 392.836 423.418 393.211 424.671C393.547 425.934 393.768 427.224 393.87 428.527C393.945 429.173 393.978 429.823 393.968 430.473L393.882 432.417C393.837 433.062 393.741 433.703 393.596 434.333C393.48 434.968 393.353 435.598 393.217 436.224C393.488 433.693 393.451 431.139 393.106 428.617C392.924 427.374 392.655 426.144 392.303 424.938C391.92 423.743 391.451 422.578 390.898 421.452C389.797 419.185 388.397 417.076 386.736 415.181C385.901 414.226 385.009 413.322 384.065 412.475C383.131 411.602 382.139 410.794 381.094 410.058Z" fill="black"/>
<path d="M326.888 192.528C323.849 198.582 320.161 204.287 315.888 209.544C314.838 210.874 313.73 212.159 312.61 213.428C311.493 214.701 310.351 215.958 309.155 217.161C306.781 219.606 304.229 221.873 301.52 223.941L301.906 223.129C301.901 223.212 301.892 223.294 301.88 223.376L301.888 223.299C301.364 227.72 300.856 232.157 300.596 236.602C300.463 238.825 300.388 241.05 300.36 243.275C300.343 245.497 300.369 247.727 300.534 249.922L300.339 249.483C302.667 251.467 305.226 253.162 307.96 254.531C310.609 255.92 313.46 256.885 316.409 257.391C319.247 257.882 322.166 257.574 324.839 256.503C327.486 255.363 329.827 253.614 331.67 251.398C333.623 249.135 335.27 246.625 336.571 243.934C337.949 241.203 339.145 238.384 340.15 235.495C342.202 229.677 343.655 223.614 345.142 217.528C345.146 217.508 345.154 217.49 345.165 217.474C345.176 217.458 345.19 217.444 345.207 217.433C345.223 217.422 345.242 217.415 345.261 217.411C345.281 217.407 345.301 217.408 345.32 217.412C345.355 217.42 345.386 217.441 345.408 217.47C345.43 217.499 345.441 217.534 345.439 217.57C345.051 223.867 344.058 230.112 342.473 236.219C341.642 239.305 340.566 242.321 339.255 245.237C338.909 245.965 338.58 246.701 338.203 247.416L336.982 249.528C336.567 250.234 336.112 250.917 335.62 251.572L334.904 252.576C334.65 252.9 334.356 253.2 334.084 253.512C332.993 254.785 331.765 255.933 330.423 256.937C329.052 257.953 327.544 258.768 325.943 259.358C322.742 260.53 319.276 260.778 315.941 260.074C312.732 259.409 309.672 258.163 306.912 256.396C304.192 254.7 301.678 252.693 299.422 250.416L299.398 250.392C299.288 250.281 299.226 250.132 299.227 249.976C299.234 247.716 299.319 245.486 299.406 243.253L299.633 236.56C299.77 232.099 299.754 227.635 299.812 223.159L299.82 223.082C299.815 223.097 299.813 223.113 299.815 223.129L300.201 222.318C302.6 220.09 304.914 217.659 307.233 215.292C309.541 212.901 311.811 210.462 314.014 207.966C316.219 205.471 318.367 202.92 320.459 200.314C322.551 197.708 324.593 195.054 326.633 192.371C326.655 192.341 326.688 192.32 326.725 192.313C326.762 192.306 326.8 192.313 326.832 192.333C326.864 192.353 326.887 192.383 326.898 192.419C326.908 192.455 326.905 192.494 326.888 192.528L326.888 192.528Z" fill="black"/>
<path d="M340.931 158.562C340.895 158.562 340.859 158.558 340.823 158.55C340.759 158.536 340.699 158.509 340.645 158.472C340.591 158.434 340.545 158.387 340.509 158.332C340.474 158.276 340.45 158.215 340.438 158.15C340.427 158.085 340.428 158.019 340.442 157.955C341.126 154.805 341.644 151.621 341.993 148.417C342 148.352 342.02 148.288 342.052 148.231C342.083 148.173 342.126 148.122 342.177 148.081C342.229 148.04 342.287 148.009 342.351 147.991C342.414 147.972 342.48 147.967 342.545 147.974C342.611 147.981 342.674 148.001 342.731 148.033C342.789 148.064 342.84 148.107 342.881 148.158C342.922 148.21 342.953 148.269 342.971 148.332C342.989 148.395 342.995 148.461 342.987 148.526C342.634 151.766 342.11 154.984 341.419 158.168C341.394 158.279 341.333 158.379 341.244 158.451C341.155 158.522 341.045 158.562 340.931 158.562Z" fill="black"/>
<path d="M328.582 192.089C332.163 199.58 336.622 206.618 341.864 213.056C343.164 214.652 344.589 216.14 346.127 217.508C347.655 218.895 349.363 220.07 351.204 221.001C353.05 221.926 355.054 222.495 357.11 222.679C359.15 222.846 361.203 222.641 363.169 222.074C365.093 221.499 366.884 220.553 368.443 219.287C369.981 218.011 371.304 216.497 372.364 214.803C374.428 211.298 375.879 207.467 376.654 203.475C378.264 195.329 378.795 187.007 378.234 178.723C378.232 178.696 378.241 178.67 378.259 178.65C378.276 178.63 378.301 178.618 378.328 178.616C378.352 178.615 378.376 178.622 378.395 178.637C378.414 178.652 378.427 178.673 378.432 178.696C380.193 187.003 380.298 195.575 378.74 203.921C377.924 208.169 376.292 212.217 373.932 215.841C372.713 217.668 371.179 219.263 369.402 220.552C367.619 221.828 365.585 222.71 363.434 223.137C359.207 223.96 354.828 223.418 350.93 221.588C347.055 219.79 343.558 217.272 340.625 214.167C337.753 211.035 335.289 207.551 333.293 203.8C331.256 200.102 329.614 196.2 328.395 192.159C328.391 192.146 328.39 192.133 328.391 192.12C328.393 192.107 328.397 192.094 328.403 192.083C328.409 192.071 328.418 192.061 328.428 192.053C328.438 192.044 328.45 192.038 328.462 192.034C328.486 192.029 328.51 192.031 328.532 192.041C328.554 192.051 328.572 192.068 328.582 192.089Z" fill="black"/>
<path d="M300.86 223.131C300.325 227.032 299.593 230.903 298.801 234.762C298.015 238.622 297.122 242.461 296.123 246.277C294.157 253.927 291.725 261.45 288.839 268.803C285.994 276.217 282.363 283.306 278.01 289.948C275.787 293.277 273.226 296.369 270.368 299.173C267.491 302.031 264.112 304.336 260.401 305.973L260.928 305.058C261.349 308.041 262.095 310.969 263.155 313.789C264.207 316.62 265.655 319.287 267.456 321.712C269.276 324.129 271.606 326.117 274.279 327.535C275.627 328.243 277.061 328.773 278.546 329.114C280.04 329.472 281.565 329.686 283.1 329.751C279.98 329.928 276.863 329.371 273.997 328.126C271.107 326.834 268.557 324.889 266.547 322.444C264.544 320.005 262.923 317.277 261.74 314.351C260.521 311.437 259.659 308.386 259.172 305.265C259.144 305.081 259.178 304.893 259.267 304.731C259.356 304.568 259.497 304.439 259.667 304.364L259.699 304.35C263.173 302.732 266.33 300.51 269.026 297.787C271.772 295.061 274.23 292.059 276.36 288.829C280.635 282.3 284.254 275.364 287.162 268.122C290.128 260.866 292.728 253.465 294.953 245.949C297.189 238.426 299.208 230.826 300.86 223.131Z" fill="black"/>
<path d="M266.21 311.479C266.599 311.466 266.967 311.302 267.238 311.022C267.508 310.742 267.659 310.368 267.659 309.979C267.659 309.59 267.508 309.216 267.238 308.936C266.967 308.656 266.599 308.492 266.21 308.479C265.821 308.492 265.453 308.656 265.183 308.936C264.912 309.216 264.761 309.59 264.761 309.979C264.761 310.368 264.912 310.742 265.183 311.022C265.453 311.302 265.821 311.466 266.21 311.479Z" fill="black"/>
<path d="M270.17 319.399C270.559 319.385 270.928 319.222 271.198 318.942C271.468 318.662 271.619 318.288 271.619 317.899C271.619 317.51 271.468 317.136 271.198 316.856C270.928 316.576 270.559 316.412 270.17 316.399C269.782 316.412 269.413 316.576 269.143 316.856C268.873 317.136 268.721 317.51 268.721 317.899C268.721 318.288 268.873 318.662 269.143 318.942C269.413 319.222 269.782 319.385 270.17 319.399Z" fill="black"/>
<path d="M277.01 325.159C277.399 325.146 277.767 324.982 278.038 324.702C278.308 324.422 278.459 324.048 278.459 323.659C278.459 323.27 278.308 322.896 278.038 322.616C277.767 322.337 277.399 322.173 277.01 322.159C276.621 322.173 276.253 322.337 275.983 322.616C275.712 322.896 275.561 323.27 275.561 323.659C275.561 324.048 275.712 324.422 275.983 324.702C276.253 324.982 276.621 325.146 277.01 325.159Z" fill="black"/>
<path d="M304.73 248.479C305.119 248.466 305.487 248.302 305.758 248.022C306.028 247.742 306.179 247.368 306.179 246.979C306.179 246.59 306.028 246.216 305.758 245.936C305.487 245.656 305.119 245.492 304.73 245.479C304.341 245.492 303.973 245.656 303.703 245.936C303.432 246.216 303.281 246.59 303.281 246.979C303.281 247.368 303.432 247.742 303.703 248.022C303.973 248.302 304.341 248.466 304.73 248.479Z" fill="black"/>
<path d="M312.29 252.799C312.679 252.785 313.047 252.621 313.318 252.342C313.588 252.062 313.739 251.688 313.739 251.299C313.739 250.91 313.588 250.536 313.318 250.256C313.047 249.976 312.679 249.812 312.29 249.799C311.901 249.812 311.533 249.976 311.263 250.256C310.992 250.536 310.841 250.91 310.841 251.299C310.841 251.688 310.992 252.062 311.263 252.342C311.533 252.621 311.901 252.785 312.29 252.799Z" fill="black"/>
<path d="M321.29 254.239C321.679 254.225 322.047 254.061 322.318 253.782C322.588 253.502 322.739 253.128 322.739 252.739C322.739 252.35 322.588 251.976 322.318 251.696C322.047 251.416 321.679 251.252 321.29 251.239C320.901 251.252 320.533 251.416 320.263 251.696C319.992 251.976 319.841 252.35 319.841 252.739C319.841 253.128 319.992 253.502 320.263 253.782C320.533 254.061 320.901 254.225 321.29 254.239Z" fill="black"/>
<path d="M330.29 248.119C330.679 248.106 331.047 247.942 331.318 247.662C331.588 247.382 331.739 247.008 331.739 246.619C331.739 246.23 331.588 245.856 331.318 245.576C331.047 245.297 330.679 245.133 330.29 245.119C329.901 245.133 329.533 245.297 329.263 245.576C328.992 245.856 328.841 246.23 328.841 246.619C328.841 247.008 328.992 247.382 329.263 247.662C329.533 247.942 329.901 248.106 330.29 248.119Z" fill="black"/>
<path d="M335.33 238.759C335.719 238.745 336.088 238.581 336.358 238.302C336.628 238.022 336.779 237.648 336.779 237.259C336.779 236.87 336.628 236.496 336.358 236.216C336.088 235.936 335.719 235.772 335.33 235.759C334.941 235.772 334.573 235.936 334.303 236.216C334.032 236.496 333.881 236.87 333.881 237.259C333.881 237.648 334.032 238.022 334.303 238.302C334.573 238.581 334.941 238.745 335.33 238.759Z" fill="black"/>
<path d="M338.21 230.839C338.599 230.825 338.967 230.661 339.238 230.382C339.508 230.102 339.659 229.728 339.659 229.339C339.659 228.95 339.508 228.576 339.238 228.296C338.967 228.016 338.599 227.852 338.21 227.839C337.821 227.852 337.453 228.016 337.183 228.296C336.912 228.576 336.761 228.95 336.761 229.339C336.761 229.728 336.912 230.102 337.183 230.382C337.453 230.661 337.821 230.825 338.21 230.839Z" fill="black"/>
<path d="M341.09 221.479C341.479 221.466 341.848 221.302 342.118 221.022C342.388 220.742 342.539 220.368 342.539 219.979C342.539 219.59 342.388 219.216 342.118 218.936C341.848 218.656 341.479 218.492 341.09 218.479C340.701 218.492 340.333 218.656 340.063 218.936C339.792 219.216 339.641 219.59 339.641 219.979C339.641 220.368 339.792 220.742 340.063 221.022C340.333 221.302 340.701 221.466 341.09 221.479Z" fill="black"/>
<path d="M344.33 94.4795C344.224 94.4795 344.121 94.4458 344.035 94.3831C343.949 94.3204 343.886 94.232 343.854 94.1308L343.208 92.0908C343.167 91.9644 343.179 91.8273 343.24 91.7095C343.301 91.5918 343.406 91.5031 343.533 91.4629C343.659 91.4228 343.796 91.4345 343.914 91.4955C344.032 91.5564 344.121 91.6617 344.161 91.7881L344.807 93.8281C344.827 93.8907 344.834 93.9566 344.828 94.0221C344.823 94.0875 344.804 94.1512 344.774 94.2096C344.744 94.2679 344.702 94.3197 344.652 94.3619C344.602 94.4042 344.544 94.4362 344.481 94.456C344.432 94.4714 344.381 94.4793 344.33 94.4795Z" fill="#B21919"/>
<path d="M226.272 292.007C225.292 294.68 224.489 297.414 223.867 300.192C223.218 302.955 222.744 305.757 222.449 308.579C222.148 311.394 222.039 314.225 222.121 317.054C222.226 319.875 222.586 322.68 223.197 325.436C224.949 333.792 229.466 341.313 236.018 346.786C237.087 347.72 238.205 348.597 239.367 349.413C239.926 349.856 240.545 350.207 241.142 350.595L242.939 351.755C237.787 349.194 233.23 345.58 229.563 341.147L228.233 339.443L227.054 337.629C226.641 337.036 226.326 336.386 225.974 335.756C225.614 335.131 225.287 334.487 224.996 333.828C223.761 331.217 222.83 328.473 222.221 325.65C221.058 320.002 220.878 314.197 221.689 308.489C222.427 302.805 223.97 297.255 226.272 292.007Z" fill="black"/>
<path d="M209.231 316.324C209.167 319.17 209.289 322.018 209.597 324.848C209.874 327.672 210.33 330.477 210.962 333.244C211.585 336.004 212.396 338.72 213.387 341.37C214.396 344.007 215.642 346.546 217.11 348.957C221.464 356.3 228.167 361.961 236.135 365.026C237.449 365.566 238.79 366.035 240.153 366.432C240.825 366.672 241.524 366.803 242.214 366.978L244.289 367.496C238.587 366.735 233.107 364.785 228.206 361.772L226.397 360.589L224.696 359.253C224.114 358.825 223.605 358.311 223.069 357.829C222.527 357.353 222.01 356.849 221.521 356.319C219.509 354.247 217.742 351.95 216.255 349.474C213.332 344.504 211.288 339.068 210.213 333.403C209.077 327.786 208.747 322.035 209.231 316.324Z" fill="black"/>
<path d="M426.44 273.986C427.08 271.212 427.537 268.399 427.809 265.565C428.11 262.743 428.232 259.905 428.174 257.067C428.123 254.237 427.88 251.414 427.446 248.618C426.992 245.832 426.286 243.093 425.338 240.434C422.561 232.361 417.144 225.459 409.962 220.843C408.785 220.049 407.567 219.318 406.313 218.653C405.704 218.282 405.045 218.011 404.405 217.7L402.478 216.772C407.908 218.674 412.879 221.693 417.068 225.636L418.6 227.162L419.995 228.815C420.478 229.352 420.872 229.958 421.299 230.539C421.734 231.114 422.138 231.713 422.51 232.331C424.06 234.768 425.324 237.375 426.279 240.101C428.135 245.56 429.035 251.298 428.94 257.063C428.914 262.794 428.072 268.492 426.44 273.986Z" fill="black"/>
<path d="M440.327 247.74C440.037 244.908 439.562 242.098 438.905 239.328C438.279 236.56 437.478 233.834 436.508 231.167C435.546 228.505 434.404 225.912 433.092 223.405C431.762 220.914 430.21 218.55 428.455 216.339C423.221 209.594 415.867 204.81 407.579 202.759C406.209 202.387 404.82 202.088 403.418 201.864C402.722 201.709 402.011 201.666 401.305 201.578L399.182 201.322C404.935 201.369 410.614 202.623 415.852 205.003L417.794 205.952L419.648 207.066C420.279 207.418 420.847 207.865 421.439 208.277C422.036 208.681 422.612 209.117 423.163 209.583C425.416 211.389 427.455 213.448 429.238 215.72C432.756 220.288 435.46 225.429 437.231 230.916C439.056 236.349 440.098 242.014 440.327 247.74Z" fill="black"/>
</svg>
