<svg width="150" height="26" viewBox="0 0 150 26" fill="none" xmlns="http://www.w3.org/2000/svg">
<g filter="url(#filter0_dd_1_45)">
<path d="M15.34 2.96V5.7H11.62V17H8.2V5.7H4.48V2.96H15.34ZM23.9164 5.72C25.1964 5.72 26.2231 6.14667 26.9964 7C27.7697 7.84 28.1564 9 28.1564 10.48V17H24.7564V10.94C24.7564 10.1933 24.5631 9.61333 24.1764 9.2C23.7897 8.78667 23.2697 8.58 22.6164 8.58C21.9631 8.58 21.4431 8.78667 21.0564 9.2C20.6697 9.61333 20.4764 10.1933 20.4764 10.94V17H17.0564V2.2H20.4764V7.34C20.8231 6.84667 21.2964 6.45333 21.8964 6.16C22.4964 5.86667 23.1697 5.72 23.9164 5.72ZM41.053 11.24C41.053 11.56 41.033 11.8933 40.993 12.24H33.253C33.3063 12.9333 33.5263 13.4667 33.913 13.84C34.313 14.2 34.7996 14.38 35.373 14.38C36.2263 14.38 36.8196 14.02 37.153 13.3H40.793C40.6063 14.0333 40.2663 14.6933 39.773 15.28C39.293 15.8667 38.6863 16.3267 37.953 16.66C37.2196 16.9933 36.3996 17.16 35.493 17.16C34.3996 17.16 33.4263 16.9267 32.573 16.46C31.7196 15.9933 31.053 15.3267 30.573 14.46C30.093 13.5933 29.853 12.58 29.853 11.42C29.853 10.26 30.0863 9.24667 30.553 8.38C31.033 7.51333 31.6996 6.84667 32.553 6.38C33.4063 5.91333 34.3863 5.68 35.493 5.68C36.573 5.68 37.533 5.90667 38.373 6.36C39.213 6.81333 39.8663 7.46 40.333 8.3C40.813 9.14 41.053 10.12 41.053 11.24ZM37.553 10.34C37.553 9.75333 37.353 9.28667 36.953 8.94C36.553 8.59333 36.053 8.42 35.453 8.42C34.8796 8.42 34.393 8.58667 33.993 8.92C33.6063 9.25333 33.3663 9.72667 33.273 10.34H37.553ZM62.9955 2.96V17H59.5755V8.58L56.4355 17H53.6755L50.5155 8.56V17H47.0955V2.96H51.1355L55.0755 12.68L58.9755 2.96H62.9955ZM76.4748 5.84V17H73.0548V15.48C72.7082 15.9733 72.2348 16.3733 71.6348 16.68C71.0482 16.9733 70.3948 17.12 69.6748 17.12C68.8215 17.12 68.0682 16.9333 67.4148 16.56C66.7615 16.1733 66.2548 15.62 65.8948 14.9C65.5348 14.18 65.3548 13.3333 65.3548 12.36V5.84H68.7548V11.9C68.7548 12.6467 68.9482 13.2267 69.3348 13.64C69.7215 14.0533 70.2415 14.26 70.8948 14.26C71.5615 14.26 72.0882 14.0533 72.4748 13.64C72.8615 13.2267 73.0548 12.6467 73.0548 11.9V5.84H76.4748ZM85.7314 5.72C87.0381 5.72 88.0781 6.14667 88.8514 7C89.6381 7.84 90.0314 9 90.0314 10.48V17H86.6314V10.94C86.6314 10.1933 86.4381 9.61333 86.0514 9.2C85.6647 8.78667 85.1447 8.58 84.4914 8.58C83.8381 8.58 83.3181 8.78667 82.9314 9.2C82.5447 9.61333 82.3514 10.1933 82.3514 10.94V17H78.9314V5.84H82.3514V7.32C82.6981 6.82667 83.1647 6.44 83.7514 6.16C84.3381 5.86667 84.9981 5.72 85.7314 5.72ZM91.728 11.42C91.728 10.26 91.9613 9.24667 92.428 8.38C92.908 7.51333 93.568 6.84667 94.408 6.38C95.2613 5.91333 96.2346 5.68 97.328 5.68C98.728 5.68 99.8946 6.04667 100.828 6.78C101.775 7.51333 102.395 8.54667 102.688 9.88H99.048C98.7413 9.02667 98.148 8.6 97.268 8.6C96.6413 8.6 96.1413 8.84667 95.768 9.34C95.3946 9.82 95.208 10.5133 95.208 11.42C95.208 12.3267 95.3946 13.0267 95.768 13.52C96.1413 14 96.6413 14.24 97.268 14.24C98.148 14.24 98.7413 13.8133 99.048 12.96H102.688C102.395 14.2667 101.775 15.2933 100.828 16.04C99.8813 16.7867 98.7146 17.16 97.328 17.16C96.2346 17.16 95.2613 16.9267 94.408 16.46C93.568 15.9933 92.908 15.3267 92.428 14.46C91.9613 13.5933 91.728 12.58 91.728 11.42ZM111.377 5.72C112.657 5.72 113.684 6.14667 114.457 7C115.231 7.84 115.617 9 115.617 10.48V17H112.217V10.94C112.217 10.1933 112.024 9.61333 111.637 9.2C111.251 8.78667 110.731 8.58 110.077 8.58C109.424 8.58 108.904 8.78667 108.517 9.2C108.131 9.61333 107.937 10.1933 107.937 10.94V17H104.517V2.2H107.937V7.34C108.284 6.84667 108.757 6.45333 109.357 6.16C109.957 5.86667 110.631 5.72 111.377 5.72ZM119.714 4.68C119.114 4.68 118.621 4.50667 118.234 4.16C117.861 3.8 117.674 3.36 117.674 2.84C117.674 2.30667 117.861 1.86667 118.234 1.52C118.621 1.16 119.114 0.979999 119.714 0.979999C120.301 0.979999 120.781 1.16 121.154 1.52C121.541 1.86667 121.734 2.30667 121.734 2.84C121.734 3.36 121.541 3.8 121.154 4.16C120.781 4.50667 120.301 4.68 119.714 4.68ZM121.414 5.84V17H117.994V5.84H121.414ZM134.412 11.24C134.412 11.56 134.392 11.8933 134.352 12.24H126.612C126.666 12.9333 126.886 13.4667 127.272 13.84C127.672 14.2 128.159 14.38 128.732 14.38C129.586 14.38 130.179 14.02 130.512 13.3H134.152C133.966 14.0333 133.626 14.6933 133.132 15.28C132.652 15.8667 132.046 16.3267 131.312 16.66C130.579 16.9933 129.759 17.16 128.852 17.16C127.759 17.16 126.786 16.9267 125.932 16.46C125.079 15.9933 124.412 15.3267 123.932 14.46C123.452 13.5933 123.212 12.58 123.212 11.42C123.212 10.26 123.446 9.24667 123.912 8.38C124.392 7.51333 125.059 6.84667 125.912 6.38C126.766 5.91333 127.746 5.68 128.852 5.68C129.932 5.68 130.892 5.90667 131.732 6.36C132.572 6.81333 133.226 7.46 133.692 8.3C134.172 9.14 134.412 10.12 134.412 11.24ZM130.912 10.34C130.912 9.75333 130.712 9.28667 130.312 8.94C129.912 8.59333 129.412 8.42 128.812 8.42C128.239 8.42 127.752 8.58667 127.352 8.92C126.966 9.25333 126.726 9.72667 126.632 10.34H130.912ZM140.757 17.16C139.783 17.16 138.917 16.9933 138.157 16.66C137.397 16.3267 136.797 15.8733 136.357 15.3C135.917 14.7133 135.67 14.06 135.617 13.34H138.997C139.037 13.7267 139.217 14.04 139.537 14.28C139.857 14.52 140.25 14.64 140.717 14.64C141.143 14.64 141.47 14.56 141.697 14.4C141.937 14.2267 142.057 14.0067 142.057 13.74C142.057 13.42 141.89 13.1867 141.557 13.04C141.223 12.88 140.683 12.7067 139.937 12.52C139.137 12.3333 138.47 12.14 137.937 11.94C137.403 11.7267 136.943 11.4 136.557 10.96C136.17 10.5067 135.977 9.9 135.977 9.14C135.977 8.5 136.15 7.92 136.497 7.4C136.857 6.86667 137.377 6.44667 138.057 6.14C138.75 5.83333 139.57 5.68 140.517 5.68C141.917 5.68 143.017 6.02667 143.817 6.72C144.63 7.41333 145.097 8.33333 145.217 9.48H142.057C142.003 9.09333 141.83 8.78667 141.537 8.56C141.257 8.33333 140.883 8.22 140.417 8.22C140.017 8.22 139.71 8.3 139.497 8.46C139.283 8.60667 139.177 8.81333 139.177 9.08C139.177 9.4 139.343 9.64 139.677 9.8C140.023 9.96 140.557 10.12 141.277 10.28C142.103 10.4933 142.777 10.7067 143.297 10.92C143.817 11.12 144.27 11.4533 144.657 11.92C145.057 12.3733 145.263 12.9867 145.277 13.76C145.277 14.4133 145.09 15 144.717 15.52C144.357 16.0267 143.83 16.4267 143.137 16.72C142.457 17.0133 141.663 17.16 140.757 17.16Z" fill="black"/>
</g>
<defs>
<filter id="filter0_dd_1_45" x="0.479996" y="0.979996" width="148.797" height="24.18" filterUnits="userSpaceOnUse" color-interpolation-filters="sRGB">
<feFlood flood-opacity="0" result="BackgroundImageFix"/>
<feColorMatrix in="SourceAlpha" type="matrix" values="0 0 0 0 0 0 0 0 0 0 0 0 0 0 0 0 0 0 127 0" result="hardAlpha"/>
<feOffset dy="4"/>
<feGaussianBlur stdDeviation="2"/>
<feComposite in2="hardAlpha" operator="out"/>
<feColorMatrix type="matrix" values="0 0 0 0 0 0 0 0 0 0 0 0 0 0 0 0 0 0 0.25 0"/>
<feBlend mode="normal" in2="BackgroundImageFix" result="effect1_dropShadow_1_45"/>
<feColorMatrix in="SourceAlpha" type="matrix" values="0 0 0 0 0 0 0 0 0 0 0 0 0 0 0 0 0 0 127 0" result="hardAlpha"/>
<feOffset dy="4"/>
<feGaussianBlur stdDeviation="2"/>
<feComposite in2="hardAlpha" operator="out"/>
<feColorMatrix type="matrix" values="0 0 0 0 0 0 0 0 0 0 0 0 0 0 0 0 0 0 0.25 0"/>
<feBlend mode="normal" in2="effect1_dropShadow_1_45" result="effect2_dropShadow_1_45"/>
<feBlend mode="normal" in="SourceGraphic" in2="effect2_dropShadow_1_45" result="shape"/>
</filter>
</defs>
</svg>
