<svg width="600" height="600" viewBox="0 0 600 600" fill="none" xmlns="http://www.w3.org/2000/svg">
<path d="M585.652 300C585.652 397.202 457.907 476 300.326 476C142.745 476 15 397.202 15 300C15 202.798 142.745 124 300.326 124C457.907 124 585.652 202.798 585.652 300ZM54.8965 300C54.8965 383.611 164.779 451.39 300.326 451.39C435.873 451.39 545.755 383.611 545.755 300C545.755 216.389 435.873 148.61 300.326 148.61C164.779 148.61 54.8965 216.389 54.8965 300Z" fill="#FFB46E"/>
<path d="M337.062 392.963C385.169 382.634 421.231 339.863 421.231 288.67C421.231 237.477 385.169 194.707 337.062 184.377C344.316 182.82 351.844 182 359.563 182C418.475 182 466.233 229.758 466.233 288.67C466.233 347.583 418.475 395.341 359.563 395.341C351.844 395.341 344.316 394.521 337.062 392.963Z" fill="#FFB46E"/>
<path d="M287.616 391.908C333.483 379.97 367.341 338.274 367.341 288.67C367.341 239.066 333.483 197.37 287.616 185.432C296.223 183.192 305.253 182 314.561 182C373.474 182 421.231 229.758 421.231 288.67C421.231 347.583 373.474 395.341 314.561 395.341C305.253 395.341 296.223 394.148 287.616 391.908Z" fill="#FFB46E"/>
<path d="M367.341 288.67C367.341 347.583 319.583 395.341 260.67 395.341C201.758 395.341 154 347.583 154 288.67C154 229.758 201.758 182 260.67 182C319.583 182 367.341 229.758 367.341 288.67Z" fill="#FFB46E"/>
<path d="M300.326 126.5C378.729 126.5 449.59 146.107 500.77 177.677C551.988 209.271 583.151 252.588 583.151 300C583.151 347.412 551.988 390.729 500.77 422.323C449.59 453.893 378.729 473.5 300.326 473.5C221.923 473.5 151.062 453.892 99.8828 422.323C48.6639 390.729 17.5 347.412 17.5 300C17.5 252.588 48.6639 209.271 99.8828 177.677C151.062 146.108 221.923 126.5 300.326 126.5Z" stroke="#1E1E1E" stroke-width="5"/>
<path d="M411.231 299.67C411.231 350.863 375.169 393.634 327.062 403.963C334.316 405.521 341.844 406.341 349.563 406.341C408.475 406.341 456.233 358.583 456.233 299.67C456.233 240.758 408.475 193 349.563 193C341.844 193 334.316 193.82 327.062 195.377C375.169 205.707 411.231 248.477 411.231 299.67ZM411.231 299.67C411.231 240.758 363.474 193 304.561 193C295.253 193 286.223 194.192 277.616 196.432C323.483 208.37 357.341 250.066 357.341 299.67M411.231 299.67C411.231 358.583 363.474 406.341 304.561 406.341C295.253 406.341 286.223 405.148 277.616 402.908C323.483 390.97 357.341 349.274 357.341 299.67M357.341 299.67C357.341 358.583 309.583 406.341 250.67 406.341C191.758 406.341 144 358.583 144 299.67C144 240.758 191.758 193 250.67 193C309.583 193 357.341 240.758 357.341 299.67Z" stroke="#1E1E1E" stroke-width="5"/>
<path d="M211 257.5C211 262.747 210.328 267 209.5 267C208.672 267 208 262.747 208 257.5C208 252.253 208.672 248 209.5 248C210.328 248 211 252.253 211 257.5Z" fill="#2B2828"/>
<path d="M386 313.5C386 318.747 385.328 323 384.5 323C383.672 323 383 318.747 383 313.5C383 308.253 383.672 304 384.5 304C385.328 304 386 308.253 386 313.5Z" fill="#2B2828"/>
<path d="M247 309.5C247 314.747 246.328 319 245.5 319C244.672 319 244 314.747 244 309.5C244 304.253 244.672 300 245.5 300C246.328 300 247 304.253 247 309.5Z" fill="#2B2828"/>
<path d="M303 244.5C303 249.747 302.328 254 301.5 254C300.672 254 300 249.747 300 244.5C300 239.253 300.672 235 301.5 235C302.328 235 303 239.253 303 244.5Z" fill="#2B2828"/>
<path d="M424 276.5C424 281.747 423.328 286 422.5 286C421.672 286 421 281.747 421 276.5C421 271.253 421.672 267 422.5 267C423.328 267 424 271.253 424 276.5Z" fill="#2B2828"/>
<path d="M288 346.5C288 351.747 287.328 356 286.5 356C285.672 356 285 351.747 285 346.5C285 341.253 285.672 337 286.5 337C287.328 337 288 341.253 288 346.5Z" fill="#2B2828"/>
<path d="M402 370.5C402 375.747 401.328 380 400.5 380C399.672 380 399 375.747 399 370.5C399 365.253 399.672 361 400.5 361C401.328 361 402 365.253 402 370.5Z" fill="#2B2828"/>
<path d="M367 244.5C367 249.747 366.328 254 365.5 254C364.672 254 364 249.747 364 244.5C364 239.253 364.672 235 365.5 235C366.328 235 367 239.253 367 244.5Z" fill="#2B2828"/>
</svg>
