<svg width="600" height="600" viewBox="0 0 600 600" fill="none" xmlns="http://www.w3.org/2000/svg">
<path d="M225.867 99V179.222H230.089V103.222H394.756V179.222H398.978V99H225.867Z" fill="#FF6E6E"/>
<path fill-rule="evenodd" clip-rule="evenodd" d="M426 179.222V474.778L198 474.778V179.223L426 179.222ZM202.222 246.778H421.778V255.222H202.222V246.778ZM202.222 322.778H421.778V331.222H202.222V322.778ZM202.222 398.778H421.778V407.222H202.222V398.778Z" fill="#FF6E6E"/>
<mask id="path-2-inside-1_6_2624" fill="white">
<path d="M213.867 112V192.222H218.089V116.222H382.756V192.222H386.978V112H213.867Z"/>
<path fill-rule="evenodd" clip-rule="evenodd" d="M414 192.223H186V487.778H414V192.223ZM191 197.223H409V254.778H191V197.223ZM191 330.778V273.222H409V330.778H191ZM191 406.778V349.222H409V406.778H191ZM191 482.778V425.222H409V482.778H191ZM409.778 268.222V259.778H190.222V268.222H409.778ZM409.778 344.222V335.778H190.222V344.222H409.778ZM409.778 420.222V411.778H190.222V420.222H409.778Z"/>
</mask>
<path d="M213.867 112V192.222H218.089V116.222H382.756V192.222H386.978V112H213.867Z" fill="#1E1E1E"/>
<path fill-rule="evenodd" clip-rule="evenodd" d="M414 192.223H186V487.778H414V192.223ZM191 197.223H409V254.778H191V197.223ZM191 330.778V273.222H409V330.778H191ZM191 406.778V349.222H409V406.778H191ZM191 482.778V425.222H409V482.778H191ZM409.778 268.222V259.778H190.222V268.222H409.778ZM409.778 344.222V335.778H190.222V344.222H409.778ZM409.778 420.222V411.778H190.222V420.222H409.778Z" fill="#1E1E1E"/>
<path d="M213.867 112V107H208.867V112H213.867ZM213.867 192.222H208.867V197.222H213.867V192.222ZM218.089 192.222V197.222H223.089V192.222H218.089ZM218.089 116.222V111.222H213.089V116.222H218.089ZM382.756 116.222H387.756V111.222H382.756V116.222ZM382.756 192.222H377.756V197.222H382.756V192.222ZM386.978 192.222V197.222H391.978V192.222H386.978ZM386.978 112H391.978V107H386.978V112ZM409 197.223H414V192.223H409V197.223ZM191 197.223V192.223H186V197.223H191ZM409 254.778V259.778H414V254.778H409ZM191 254.778H186V259.778H191V254.778ZM414 192.223H419V187.223H414V192.223ZM186 192.223V187.223H181V192.223H186ZM186 487.778H181V492.778H186V487.778ZM414 487.778V492.778H419V487.778H414ZM191 273.222V268.222H186V273.222H191ZM191 330.778H186V335.778H191V330.778ZM409 273.222H414V268.222H409V273.222ZM409 330.778V335.778H414V330.778H409ZM191 349.222V344.222H186V349.222H191ZM191 406.778H186V411.778H191V406.778ZM409 349.222H414V344.222H409V349.222ZM409 406.778V411.778H414V406.778H409ZM191 425.222V420.222H186V425.222H191ZM191 482.778H186V487.778H191V482.778ZM409 425.222H414V420.222H409V425.222ZM409 482.778V487.778H414V482.778H409ZM409.778 268.222V273.222H414.778V268.222H409.778ZM409.778 259.778H414.778V254.778H409.778V259.778ZM190.222 259.778V254.778H185.222V259.778H190.222ZM190.222 268.222H185.222V273.222H190.222V268.222ZM409.778 344.222V349.222H414.778V344.222H409.778ZM409.778 335.778H414.778V330.778H409.778V335.778ZM190.222 335.778V330.778H185.222V335.778H190.222ZM190.222 344.222H185.222V349.222H190.222V344.222ZM409.778 420.222V425.222H414.778V420.222H409.778ZM409.778 411.778H414.778V406.778H409.778V411.778ZM190.222 411.778V406.778H185.222V411.778H190.222ZM190.222 420.222H185.222V425.222H190.222V420.222ZM218.089 187.222H213.867V197.222H218.089V187.222ZM213.089 116.222V192.222H223.089V116.222H213.089ZM382.756 111.222H218.089V121.222H382.756V111.222ZM387.756 192.222V116.222H377.756V192.222H387.756ZM386.978 187.222H382.756V197.222H386.978V187.222ZM409 192.223H191V202.223H409V192.223ZM414 254.778V197.223H404V254.778H414ZM191 259.778H409V249.778H191V259.778ZM186 197.223V254.778H196V197.223H186ZM186 273.222V330.778H196V273.222H186ZM409 268.222H191V278.222H409V268.222ZM414 330.778V273.222H404V330.778H414ZM191 335.778H409V325.778H191V335.778ZM186 349.222V406.778H196V349.222H186ZM409 344.222H191V354.222H409V344.222ZM414 406.778V349.222H404V406.778H414ZM191 411.778H409V401.778H191V411.778ZM186 425.222V482.778H196V425.222H186ZM409 420.222H191V430.222H409V420.222ZM414 482.778V425.222H404V482.778H414ZM191 487.778H409V477.778H191V487.778ZM213.867 117H386.978V107H213.867V117ZM218.867 192.222V112H208.867V192.222H218.867ZM381.978 112V192.222H391.978V112H381.978ZM409 192.223V487.778H419V192.223H409ZM186 197.223H414V187.223H186V197.223ZM191 487.778V192.223H181V487.778H191ZM414 482.778H186V492.778H414V482.778ZM409.778 263.222H190.222V273.222H409.778V263.222ZM404.778 259.778V268.222H414.778V259.778H404.778ZM190.222 264.778H409.778V254.778H190.222V264.778ZM195.222 268.222V259.778H185.222V268.222H195.222ZM409.778 339.222H190.222V349.222H409.778V339.222ZM404.778 335.778V344.222H414.778V335.778H404.778ZM190.222 340.778H409.778V330.778H190.222V340.778ZM195.222 344.222V335.778H185.222V344.222H195.222ZM409.778 415.222H190.222V425.222H409.778V415.222ZM404.778 411.778V420.222H414.778V411.778H404.778ZM190.222 416.778H409.778V406.778H190.222V416.778ZM195.222 420.222V411.778H185.222V420.222H195.222Z" fill="#1E1E1E" mask="url(#path-2-inside-1_6_2624)"/>
</svg>
