<svg width="153" height="158" viewBox="0 0 153 158" fill="none" xmlns="http://www.w3.org/2000/svg">
<path fill-rule="evenodd" clip-rule="evenodd" d="M53.4112 146.867H64.8172L66.1092 150.178H51.9839C52.361 149.032 52.8387 147.923 53.4112 146.867Z" fill="white"/>
<path d="M51.9803 150.57C51.9203 150.561 51.8627 150.54 51.8113 150.507C51.7599 150.474 51.7157 150.43 51.6817 150.378C51.6476 150.326 51.6245 150.268 51.6138 150.206C51.6031 150.145 51.6049 150.081 51.6193 150.021C52.0002 148.856 52.49 147.733 53.0816 146.667C53.115 146.608 53.163 146.558 53.2208 146.524C53.2786 146.49 53.344 146.472 53.4107 146.472H64.8167C64.8929 146.472 64.9672 146.495 65.0302 146.539C65.0932 146.583 65.142 146.646 65.1701 146.719L66.4621 150.069C66.4851 150.129 66.4936 150.194 66.4867 150.258C66.4798 150.322 66.4578 150.383 66.4226 150.436C66.2965 150.631 67.1765 150.619 51.9803 150.57ZM52.5123 149.785H65.5471L64.5591 147.26H53.6333C53.2047 148.075 52.8297 148.918 52.5108 149.785H52.5123Z" fill="black"/>
<path fill-rule="evenodd" clip-rule="evenodd" d="M128.494 14.0013C128.494 12.7272 128.251 11.4656 127.779 10.2886C127.307 9.11148 126.615 8.04196 125.743 7.14106C124.871 6.24017 123.835 5.52554 122.696 5.03798C121.556 4.55041 120.335 4.29947 119.101 4.29947H16.4314C13.9403 4.29947 11.5512 5.32162 9.78967 7.14106C8.02817 8.96051 7.03857 11.4282 7.03857 14.0013V120.049C7.03857 121.323 7.28153 122.585 7.75358 123.762C8.22562 124.939 8.9175 126.008 9.78972 126.909C10.6619 127.81 11.6974 128.525 12.837 129.012C13.9766 129.5 15.198 129.75 16.4314 129.75H119.101C120.335 129.75 121.556 129.5 122.696 129.012C123.835 128.525 124.871 127.81 125.743 126.909C126.615 126.008 127.307 124.939 127.779 123.762C128.251 122.585 128.494 121.323 128.494 120.049V14.0013Z" fill="white"/>
<path d="M119.101 130.143H16.4315C13.8406 130.14 11.3566 129.076 9.52447 127.183C7.69234 125.291 6.66171 122.725 6.65869 120.049V14.0013C6.66171 11.3251 7.69231 8.75936 9.52442 6.86698C11.3565 4.9746 13.8405 3.9101 16.4315 3.90698H119.101C121.692 3.9101 124.176 4.9746 126.009 6.86698C127.841 8.75936 128.871 11.3251 128.874 14.0013V120.049C128.871 122.725 127.841 125.291 126.009 127.183C124.176 129.076 121.692 130.14 119.101 130.143ZM16.4315 4.69198C14.042 4.69489 11.7512 5.67663 10.0616 7.42183C8.37198 9.16704 7.42151 11.5332 7.41869 14.0013V120.049C7.42151 122.517 8.372 124.883 10.0616 126.628C11.7513 128.374 14.0421 129.355 16.4315 129.358H119.101C121.491 129.355 123.782 128.374 125.471 126.628C127.161 124.883 128.111 122.517 128.114 120.049V14.0013C128.111 11.5332 127.161 9.16704 125.471 7.42183C123.782 5.67663 121.491 4.69489 119.101 4.69198H16.4315Z" fill="black"/>
<path d="M26.5654 23.6105C25.9466 23.6105 25.3417 23.8 24.8271 24.1551C24.3126 24.5103 23.9115 25.015 23.6747 25.6055C23.4379 26.1961 23.3759 26.8459 23.4966 27.4728C23.6174 28.0997 23.9154 28.6756 24.353 29.1276C24.7906 29.5796 25.3481 29.8874 25.955 30.0121C26.562 30.1368 27.1911 30.0728 27.7628 29.8282C28.3346 29.5835 28.8232 29.1693 29.167 28.6378C29.5109 28.1064 29.6944 27.4815 29.6944 26.8423C29.6936 25.9854 29.3636 25.1639 28.777 24.558C28.1904 23.9521 27.395 23.6113 26.5654 23.6105Z" fill="black"/>
<path d="M26.5655 50.3994C25.9465 50.3992 25.3413 50.5887 24.8265 50.9438C24.3118 51.2989 23.9105 51.8037 23.6735 52.3944C23.4365 52.9851 23.3744 53.6351 23.4951 54.2622C23.6158 54.8893 23.9138 55.4654 24.3515 55.9175C24.7891 56.3697 25.3468 56.6777 25.9539 56.8025C26.561 56.9273 27.1903 56.8633 27.7622 56.6186C28.3342 56.374 28.823 55.9597 29.1669 55.428C29.5108 54.8964 29.6944 54.2714 29.6944 53.632C29.6938 52.775 29.364 51.9532 28.7774 51.3472C28.1907 50.7411 27.3952 50.4002 26.5655 50.3994Z" fill="black"/>
<path d="M23.4365 80.4178C23.4365 80.8422 23.5175 81.2625 23.6747 81.6546C23.8319 82.0467 24.0624 82.4029 24.353 82.703C24.6435 83.0032 24.9884 83.2412 25.3681 83.4036C25.7477 83.566 26.1545 83.6496 26.5654 83.6496C26.9763 83.6496 27.3832 83.566 27.7628 83.4036C28.1424 83.2412 28.4874 83.0032 28.7779 82.703C29.0685 82.4029 29.2989 82.0467 29.4562 81.6546C29.6134 81.2625 29.6944 80.8422 29.6944 80.4178C29.6944 79.9934 29.6134 79.5731 29.4562 79.181C29.2989 78.7889 29.0685 78.4326 28.7779 78.1325C28.4874 77.8324 28.1424 77.5944 27.7628 77.432C27.3832 77.2695 26.9763 77.1859 26.5654 77.1859C26.1545 77.1859 25.7477 77.2695 25.3681 77.432C24.9884 77.5944 24.6435 77.8324 24.353 78.1325C24.0624 78.4326 23.8319 78.7889 23.6747 79.181C23.5175 79.5731 23.4365 79.9934 23.4365 80.4178Z" fill="black"/>
<path d="M26.5655 103.972C25.9464 103.972 25.3412 104.162 24.8265 104.517C24.3117 104.872 23.9104 105.377 23.6734 105.968C23.4365 106.558 23.3744 107.208 23.4952 107.836C23.6159 108.463 23.914 109.039 24.3517 109.491C24.7895 109.943 25.3472 110.251 25.9544 110.376C26.5615 110.5 27.1909 110.436 27.7628 110.192C28.3347 109.947 28.8235 109.532 29.1673 109.001C29.5111 108.469 29.6946 107.844 29.6944 107.204C29.6936 106.347 29.3637 105.526 28.7771 104.92C28.1905 104.314 27.3951 103.973 26.5655 103.972Z" fill="black"/>
<path d="M79.0726 27.238H34.8893C34.7885 27.238 34.6918 27.1966 34.6206 27.123C34.5493 27.0494 34.5093 26.9496 34.5093 26.8455C34.5093 26.7414 34.5493 26.6415 34.6206 26.5679C34.6918 26.4943 34.7885 26.453 34.8893 26.453H79.0726C79.1734 26.453 79.2701 26.4943 79.3413 26.5679C79.4126 26.6415 79.4526 26.7414 79.4526 26.8455C79.4526 26.9496 79.4126 27.0494 79.3413 27.123C79.2701 27.1966 79.1734 27.238 79.0726 27.238Z" fill="black"/>
<path d="M79.0726 54.0245H34.8893C34.7885 54.0245 34.6918 53.9831 34.6206 53.9095C34.5493 53.8359 34.5093 53.7361 34.5093 53.632C34.5093 53.5279 34.5493 53.4281 34.6206 53.3545C34.6918 53.2809 34.7885 53.2395 34.8893 53.2395H79.0726C79.1734 53.2395 79.2701 53.2809 79.3413 53.3545C79.4126 53.4281 79.4526 53.5279 79.4526 53.632C79.4526 53.7361 79.4126 53.8359 79.3413 53.9095C79.2701 53.9831 79.1734 54.0245 79.0726 54.0245Z" fill="black"/>
<path d="M79.0726 80.8103H34.8893C34.7885 80.8103 34.6918 80.7689 34.6206 80.6953C34.5493 80.6217 34.5093 80.5219 34.5093 80.4178C34.5093 80.3137 34.5493 80.2139 34.6206 80.1403C34.6918 80.0667 34.7885 80.0253 34.8893 80.0253H79.0726C79.1734 80.0253 79.2701 80.0667 79.3413 80.1403C79.4126 80.2139 79.4526 80.3137 79.4526 80.4178C79.4526 80.5219 79.4126 80.6217 79.3413 80.6953C79.2701 80.7689 79.1734 80.8103 79.0726 80.8103Z" fill="black"/>
<path d="M79.0726 107.597H34.8893C34.7885 107.597 34.6918 107.555 34.6206 107.482C34.5493 107.408 34.5093 107.308 34.5093 107.204C34.5093 107.1 34.5493 107 34.6206 106.927C34.6918 106.853 34.7885 106.812 34.8893 106.812H79.0726C79.1734 106.812 79.2701 106.853 79.3413 106.927C79.4126 107 79.4526 107.1 79.4526 107.204C79.4526 107.308 79.4126 107.408 79.3413 107.482C79.2701 107.555 79.1734 107.597 79.0726 107.597Z" fill="black"/>
<path d="M103.651 34.6594H91.5416C91.4408 34.6594 91.3442 34.618 91.2729 34.5444C91.2017 34.4708 91.1616 34.371 91.1616 34.2669V21.7587C91.1616 21.6546 91.2017 21.5548 91.2729 21.4811C91.3442 21.4075 91.4408 21.3662 91.5416 21.3662H103.651C103.751 21.3662 103.848 21.4075 103.919 21.4811C103.991 21.5548 104.031 21.6546 104.031 21.7587V34.2669C104.031 34.371 103.991 34.4708 103.919 34.5444C103.848 34.618 103.751 34.6594 103.651 34.6594ZM91.9216 33.8744H103.271V22.1512H91.9216V33.8744Z" fill="black"/>
<path d="M103.651 61.4475H91.5416C91.4408 61.4475 91.3442 61.4061 91.2729 61.3325C91.2017 61.2589 91.1616 61.1591 91.1616 61.055V48.5452C91.1616 48.4411 91.2017 48.3413 91.2729 48.2677C91.3442 48.1941 91.4408 48.1527 91.5416 48.1527H103.651C103.751 48.1527 103.848 48.1941 103.919 48.2677C103.991 48.3413 104.031 48.4411 104.031 48.5452V61.055C104.031 61.1591 103.991 61.2589 103.919 61.3325C103.848 61.4061 103.751 61.4475 103.651 61.4475ZM91.9216 60.6625H103.271V48.9377H91.9216V60.6625Z" fill="black"/>
<path d="M103.651 88.2317H91.5416C91.4408 88.2317 91.3442 88.1903 91.2729 88.1167C91.2017 88.0431 91.1616 87.9433 91.1616 87.8392V75.3318C91.1616 75.2277 91.2017 75.1278 91.2729 75.0542C91.3442 74.9806 91.4408 74.9393 91.5416 74.9393H103.651C103.751 74.9393 103.848 74.9806 103.919 75.0542C103.991 75.1278 104.031 75.2277 104.031 75.3318V87.8392C104.031 87.9433 103.991 88.0431 103.919 88.1167C103.848 88.1903 103.751 88.2317 103.651 88.2317ZM91.9216 87.4467H103.271V75.7243H91.9216V87.4467Z" fill="black"/>
<path d="M103.651 115.018H91.5416C91.4408 115.018 91.3442 114.977 91.2729 114.903C91.2017 114.83 91.1616 114.73 91.1616 114.626V102.118C91.1616 102.013 91.2017 101.914 91.2729 101.84C91.3442 101.766 91.4408 101.725 91.5416 101.725H103.651C103.751 101.725 103.848 101.766 103.919 101.84C103.991 101.914 104.031 102.013 104.031 102.118V114.626C104.031 114.73 103.991 114.83 103.919 114.903C103.848 114.977 103.751 115.018 103.651 115.018ZM91.9216 114.233H103.271V102.51H91.9216V114.233Z" fill="black"/>
<path d="M97.5988 31.6277C97.3214 31.6277 97.5699 31.8593 93.7745 26.5503C93.7146 26.4665 93.6894 26.3616 93.7044 26.2586C93.7195 26.1556 93.7735 26.063 93.8546 26.0012C93.9358 25.9394 94.0374 25.9133 94.1371 25.9289C94.2368 25.9444 94.3264 26.0002 94.3863 26.084L97.5881 30.564L108.727 14.1638C108.755 14.1216 108.792 14.0856 108.834 14.058C108.876 14.0303 108.923 14.0115 108.972 14.0026C109.022 13.9937 109.072 13.9949 109.121 14.0061C109.169 14.0173 109.216 14.0384 109.256 14.068C109.297 14.0977 109.332 14.1353 109.359 14.1789C109.386 14.2224 109.404 14.2709 109.412 14.3218C109.421 14.3726 109.42 14.4246 109.409 14.475C109.398 14.5253 109.378 14.5729 109.349 14.6152C97.1367 32.5595 97.8899 31.6261 97.5988 31.6277Z" fill="black"/>
<path d="M97.5988 58.415C97.3221 58.415 97.5623 58.6348 93.7745 53.3361C93.7438 53.2947 93.7214 53.2473 93.7086 53.1969C93.6959 53.1464 93.693 53.0939 93.7001 53.0423C93.7072 52.9906 93.7242 52.941 93.7501 52.8963C93.776 52.8515 93.8103 52.8125 93.8509 52.7816C93.8916 52.7507 93.9378 52.7284 93.9868 52.7161C94.0359 52.7039 94.0868 52.7018 94.1367 52.7101C94.1865 52.7184 94.2342 52.7368 94.2771 52.7644C94.3199 52.7919 94.3571 52.828 94.3863 52.8706L97.5881 57.3506L108.727 40.9503C108.785 40.8651 108.873 40.8071 108.972 40.789C109.071 40.771 109.173 40.7944 109.256 40.8542C109.339 40.9139 109.395 41.0051 109.412 41.1076C109.43 41.2102 109.407 41.3157 109.349 41.4009C97.1367 59.3476 97.8906 58.4127 97.5988 58.415Z" fill="black"/>
<path d="M97.5988 85.2008C97.3221 85.2008 97.5623 85.4214 93.7745 80.1226C93.7146 80.0388 93.6894 79.9339 93.7044 79.8309C93.7195 79.7279 93.7735 79.6354 93.8546 79.5735C93.9358 79.5117 94.0374 79.4857 94.1371 79.5012C94.2368 79.5167 94.3264 79.5725 94.3863 79.6563L97.5881 84.1363L108.727 67.7369C108.785 67.6516 108.873 67.5936 108.972 67.5756C109.071 67.5575 109.174 67.581 109.256 67.6407C109.339 67.7005 109.395 67.7917 109.412 67.8942C109.43 67.9967 109.407 68.1022 109.349 68.1875C97.1367 86.1342 97.8906 85.1992 97.5988 85.2008Z" fill="black"/>
<path d="M97.5988 111.987C97.3214 111.987 97.5699 112.218 93.7745 106.909C93.7146 106.825 93.6894 106.72 93.7044 106.617C93.7195 106.514 93.7735 106.422 93.8546 106.36C93.9358 106.298 94.0374 106.272 94.1371 106.288C94.2368 106.303 94.3264 106.359 94.3863 106.443L97.5881 110.923L108.727 94.5235C108.785 94.4382 108.873 94.3802 108.972 94.3621C109.071 94.3441 109.174 94.3675 109.256 94.4273C109.339 94.487 109.395 94.5782 109.412 94.6807C109.43 94.7833 109.407 94.8888 109.349 94.974C97.1367 112.921 97.8899 111.985 97.5988 111.987Z" fill="black"/>
<path fill-rule="evenodd" clip-rule="evenodd" d="M120.98 42.5462C119.275 43.8935 117.685 45.3906 116.229 47.0207C115.395 48.1703 114.658 49.3912 114.025 50.6702C114.025 50.6702 109.5 50.4143 107.793 54.2718C106.086 58.1293 108.127 59.569 109.5 59.8555C110.872 60.142 111.233 61.511 112.867 61.4412C114.501 61.3713 117.643 58.4888 118.228 57.2807C118.489 56.634 118.965 56.105 119.571 55.7892C119.571 55.7892 119.52 59.565 119.716 61.2638C119.716 61.2638 117.05 65.9691 116.531 68.8641C116.531 68.8641 118.533 72.2969 125.153 72.6635C131.772 73.0301 136.933 71.7027 138.409 70.9271L137.117 66.4785C137.117 66.4785 139.215 64.202 141.972 57.0844C144.73 49.9668 144.931 47.3504 144.3 45.4342C143.457 42.8767 139.768 41.3365 139.768 41.3365L120.98 42.5462Z" fill="white"/>
<path fill-rule="evenodd" clip-rule="evenodd" d="M128.508 35.0024L128.923 39.1252L128.175 43.511C128.907 44.1167 129.821 44.4403 130.759 44.4263C130.759 44.4263 136.271 38.1816 135.536 33.5195C135.536 33.5195 137.331 34.091 138.378 32.7628C139.539 31.2901 138.693 30.3497 137.661 30.5373C136.629 30.7249 139.585 27.9468 138 25.2903C136.416 22.6339 132.535 22.0718 132.535 22.0718C132.535 22.0718 131.185 20.9815 129.461 22.451C128.941 22.8212 128.526 23.3291 128.261 23.9216C127.996 24.5141 127.89 25.1694 127.955 25.8186C127.936 26.4207 127.777 26.6201 127.29 27.1704C127.033 27.4934 126.851 27.8731 126.757 28.2802C126.664 28.6874 126.662 29.1112 126.752 29.5191C126.898 30.6754 125.942 34.5887 128.508 35.0024Z" fill="#FFD997"/>
<path fill-rule="evenodd" clip-rule="evenodd" d="M136.239 22.5115C137.289 22.6907 138.266 23.1837 139.049 23.9298C139.831 24.6758 140.385 25.6422 140.642 26.7097C141.463 30.4062 141.826 36.8683 140.03 40.6183C138.235 44.3682 137.532 46.9564 135.362 47.2013C133.193 47.4462 128.851 46.8473 129.8 45.596C130.749 44.3447 135.999 38.8536 135.537 33.5195C135.537 33.5195 137.893 34.0769 138.501 32.6042C139.109 31.1316 139.003 30.7006 137.665 30.5373L137.459 30.3167L136.649 31.2524C136.095 31.375 135.52 31.3552 134.975 31.195C134.429 31.0347 133.931 30.7388 133.522 30.3332C133.522 30.3332 132.995 30.1762 133.623 29.0725C134.251 27.9688 135.441 25.854 135.235 24.7103C135.028 23.5665 134.803 22.1056 132.54 22.0742C131.841 21.7172 131.034 21.6593 130.295 21.9133C129.336 22.4016 127.977 24.1113 127.964 25.1067C128.011 25.5515 127.953 26.0015 127.794 26.4178C127.635 26.8341 127.38 27.2042 127.052 27.4962C126.747 26.6831 126.721 25.787 126.976 24.956C127.408 23.583 129.408 21.0765 130.96 21.02C132.44 20.9666 132.815 21.8238 132.815 21.8238C133.388 21.5779 134.018 21.512 134.627 21.6343C135.236 21.7566 135.797 22.0617 136.239 22.5115Z" fill="#81F8F8"/>
<path fill-rule="evenodd" clip-rule="evenodd" d="M126.784 33.0203C125.762 35.0721 124.523 37.0006 123.089 38.7704C121.273 40.7517 120.274 42.4685 121.414 43.3917C122.554 44.3148 126.785 45.8629 127.578 44.953C128.371 44.0432 129.065 39.053 128.897 37.9508C128.729 36.8487 128.569 35.1288 128.569 35.1288C127.252 35.0409 126.946 34.0926 126.784 33.0203Z" fill="#81F8F8"/>
<path d="M141.014 26.6225C140.744 25.496 140.164 24.474 139.346 23.6792C138.527 22.8843 137.504 22.3505 136.398 22.1417C135.953 21.6944 135.393 21.3891 134.784 21.2626C134.175 21.136 133.544 21.1935 132.965 21.4281C131.052 18.8808 125.495 22.732 126.537 27.7325C126.334 28.3208 126.278 28.9528 126.375 29.5694C126.317 30.6952 126.322 31.8236 126.391 32.9488C125.401 34.9304 124.201 36.7923 122.813 38.5003C121.391 40.0515 119.561 42.3892 121.179 43.7002C122.299 44.6061 126.825 46.4014 127.861 45.216C128.378 44.621 128.807 42.7629 129.058 41.0414C129.116 41.1006 129.19 41.1392 129.271 41.1515C129.351 41.1639 129.433 41.1493 129.505 41.11C129.576 41.0707 129.634 41.0086 129.669 40.933C129.704 40.8574 129.715 40.7721 129.7 40.6897C129.428 39.374 129.098 36.4735 128.986 35.4537C130.81 35.6429 133.698 35.4074 135.185 34.4073C135.074 38.6463 131.579 42.8461 130.03 44.705C129.574 45.2545 129.059 45.72 129.39 46.3386C130.055 47.5741 134.02 47.7516 135.406 47.5946C137.822 47.3222 138.607 44.4828 140.372 40.7949C142.271 36.8283 141.796 30.1464 141.014 26.6225ZM137.719 25.6083C137.852 26.5235 137.808 27.4566 137.591 28.3544C137.374 29.2522 136.987 30.0969 136.454 30.8403C135.966 30.952 135.459 30.9382 134.977 30.7999C134.496 30.6616 134.055 30.4032 133.693 30.0474C133.84 29.4594 134.071 28.8971 134.377 28.3785C134.963 27.2073 135.626 25.8799 135.603 24.733C135.638 24.1644 135.507 23.5983 135.227 23.1072C134.948 22.6161 134.532 22.2225 134.035 21.9769C135.759 21.8834 137.113 23.9025 137.719 25.6083ZM127.296 44.6908C126.771 45.2843 122.848 44.0542 121.648 43.0824C120.568 42.2071 122.414 40.0782 123.365 39.0404C124.645 37.5044 125.757 35.8278 126.683 34.0407C126.813 34.37 127.021 34.6608 127.287 34.8872C127.553 35.1136 127.869 35.2685 128.207 35.3383C128.251 35.7921 128.383 37.0944 128.522 38.0121C128.688 39.1001 127.965 43.9208 127.296 44.6908ZM128.444 34.5934C126.454 34.2236 127.266 30.5718 127.129 29.4689C126.809 26.9137 128.353 27.7513 128.335 25.5894C128.305 25.0352 128.416 24.4825 128.655 23.9857C128.895 23.489 129.256 23.0653 129.703 22.7564C131.147 21.5208 132.249 22.3427 132.303 22.3851C132.378 22.4433 132.47 22.4713 132.563 22.4636C133.158 22.4361 133.742 22.6337 134.206 23.0193C134.422 23.2459 134.59 23.5165 134.7 23.8138C134.809 24.1111 134.858 24.4287 134.842 24.7463C134.883 26.8164 132.214 29.6408 133.131 30.5797C133.596 31.0541 134.173 31.3953 134.804 31.5696C135.436 31.7438 136.101 31.7452 136.733 31.5735C136.949 31.5146 137.256 31.0774 137.379 30.8874C137.567 30.8509 137.762 30.8701 137.94 30.9427C138.119 31.0153 138.274 31.1385 138.387 31.298C138.781 31.9888 137.637 33.7205 135.646 33.1411C135.562 33.1146 135.471 33.1191 135.39 33.1539C135.308 33.1887 135.241 33.2516 135.2 33.3319C134.673 34.3649 130.945 35.0581 128.444 34.5934ZM139.692 40.444C137.912 44.161 137.26 46.5929 135.324 46.8111C133.377 47.0333 130.372 46.5434 130.056 45.957C129.913 45.6894 136.075 39.9502 135.935 33.9999C138.395 34.3367 139.735 32.1159 139.051 30.9039C138.915 30.6824 138.733 30.4956 138.517 30.3577C138.301 30.2198 138.058 30.1343 137.806 30.1079C138.468 28.6366 138.693 26.9957 138.453 25.3924C138.193 24.6409 137.839 23.9281 137.398 23.2729C138.119 23.5738 138.758 24.0519 139.26 24.6657C139.762 25.2795 140.111 26.0104 140.277 26.7952C141.031 30.2123 141.502 36.6642 139.691 40.444H139.692Z" fill="black"/>
<path d="M128.467 29.4556C128.226 29.295 128.018 29.0867 127.855 28.8427C127.692 28.5987 127.577 28.3239 127.518 28.034C127.405 27.092 128.801 26.3415 129.557 25.8203C129.605 25.7873 129.728 25.7017 129.589 25.4811C129.533 25.3948 129.513 25.2894 129.533 25.1878C129.552 25.0862 129.61 24.9966 129.693 24.9387C130.143 24.6247 130.488 25.35 130.396 25.8517C130.32 26.2826 130.008 26.4585 129.685 26.6673C128.721 27.2953 128.246 27.7184 128.272 27.9374C128.361 28.2917 128.577 28.598 128.876 28.7946C128.956 28.8526 129.012 28.9405 129.031 29.0399C129.05 29.1393 129.032 29.2426 128.979 29.328C128.926 29.4134 128.843 29.4744 128.748 29.4982C128.652 29.522 128.552 29.5067 128.467 29.4556Z" fill="black"/>
<path d="M133.785 26.4742C133.716 26.4741 133.648 26.4544 133.588 26.4171C133.529 26.3799 133.48 26.3266 133.448 26.263C133.26 25.8991 132.946 25.6214 132.569 25.4848C132.192 25.3482 131.78 25.3626 131.412 25.5251C131.318 25.5627 131.214 25.5601 131.121 25.518C131.029 25.4759 130.957 25.3977 130.921 25.3006C130.884 25.2035 130.887 25.0954 130.927 25.0001C130.968 24.9049 131.044 24.8303 131.138 24.7927C131.679 24.5559 132.287 24.5386 132.84 24.744C133.393 24.9494 133.851 25.3626 134.122 25.9011C134.152 25.9609 134.166 26.0276 134.164 26.0949C134.162 26.1622 134.143 26.2277 134.109 26.2853C134.075 26.3428 134.028 26.3904 133.971 26.4235C133.914 26.4566 133.85 26.474 133.785 26.4742Z" fill="black"/>
<path fill-rule="evenodd" clip-rule="evenodd" d="M133.055 27.6509C132.781 27.7806 132.484 27.8493 132.183 27.8526C131.882 27.8558 131.583 27.7935 131.307 27.6697L131.104 26.4514C131.104 26.4514 131.858 26.4153 133.055 27.6509Z" fill="white"/>
<path d="M133.219 27.1673C131.395 25.2833 130.287 26.219 130.843 26.7458C130.663 27.7663 131.817 28.0865 132.076 27.1869C132.67 27.621 132.675 27.8369 132.95 27.8369C133.025 27.8369 133.099 27.8139 133.161 27.7708C133.224 27.7277 133.272 27.6665 133.301 27.5949C133.33 27.5232 133.337 27.4444 133.323 27.3683C133.308 27.2922 133.272 27.2222 133.219 27.1673Z" fill="black"/>
<path d="M130.736 30.8607C129.064 30.67 129.216 30.5295 128.635 30.6778C128.248 30.0121 127.875 30.2853 127.723 30.1158C127.669 30.0462 127.593 29.9978 127.509 29.9786C127.424 29.9594 127.336 29.9705 127.258 30.0101C127.181 30.0497 127.119 30.1155 127.082 30.1965C127.046 30.2775 127.037 30.3689 127.058 30.4557C127.072 30.5138 127.409 31.8781 128.484 32.0359C129.306 32.1539 130.144 32.0003 130.876 31.5971C130.948 31.5574 131.005 31.4951 131.04 31.4192C131.075 31.3433 131.085 31.2579 131.07 31.1755C131.054 31.0931 131.013 31.0181 130.953 30.9614C130.893 30.9048 130.817 30.8695 130.736 30.8607Z" fill="black"/>
<path fill-rule="evenodd" clip-rule="evenodd" d="M129.612 127.423C128.216 127.529 126.812 127.411 125.451 127.073L125.764 130.113C125.541 130.765 125.194 131.364 124.742 131.874C124.291 132.385 123.744 132.796 123.135 133.083C121.012 134.139 114.078 138.167 116.851 139.151C119.625 140.134 122.218 138.878 123.713 137.973C125.207 137.069 124.729 136.617 126.916 136.043C129.103 135.468 131.642 135.989 131.28 134.026C130.918 132.063 129.612 127.423 129.612 127.423Z" fill="white"/>
<path fill-rule="evenodd" clip-rule="evenodd" d="M141.35 137.592C139.336 137.091 136.527 136.321 136.527 136.321C136.698 137.375 136.733 138.448 136.633 139.512C136.432 140.838 136.876 140.84 137.004 141.815C137.132 142.79 136.336 143.578 136.973 145.313C137.61 147.048 137.429 148.666 138.756 150.163C140.083 151.66 140.135 153.681 142.454 153.159C144.773 152.637 145.845 152.022 145.418 150.532C144.391 148.025 143.178 145.603 141.791 143.288C141.25 142.477 141.656 141.752 141.765 140.972C141.873 140.192 141.145 138.377 141.35 137.592Z" fill="white"/>
<path d="M127.96 43.8485C127.879 43.7861 127.826 43.6931 127.812 43.59C127.798 43.487 127.824 43.3823 127.884 43.299C127.945 43.2158 128.035 43.1607 128.134 43.146C128.234 43.1313 128.335 43.1581 128.416 43.2205C129.028 43.7389 129.768 44.0699 130.553 44.1759C130.654 44.168 130.754 44.2017 130.83 44.2697C130.907 44.3378 130.954 44.4344 130.962 44.5385C130.97 44.6426 130.937 44.7456 130.871 44.8248C130.805 44.904 130.712 44.953 130.611 44.9609C129.637 44.8829 128.711 44.4942 127.96 43.8485Z" fill="black"/>
<path d="M120.266 49.8781C121.1 48.2864 122.087 46.7857 123.213 45.3989C123.244 45.3577 123.283 45.3234 123.328 45.298C123.372 45.2725 123.42 45.2565 123.471 45.2507C123.521 45.245 123.572 45.2497 123.621 45.2646C123.669 45.2795 123.714 45.3042 123.753 45.3374C123.793 45.3706 123.825 45.4115 123.849 45.4577C123.872 45.504 123.887 45.5546 123.891 45.6067C123.895 45.6588 123.89 45.7113 123.874 45.7611C123.859 45.8109 123.834 45.8569 123.801 45.8966C122.726 47.2258 121.777 48.6594 120.97 50.1772C120.931 50.2736 120.857 50.3503 120.764 50.3904C120.671 50.4305 120.566 50.4308 120.473 50.3911C120.38 50.3515 120.305 50.2751 120.267 50.1789C120.228 50.0827 120.228 49.9745 120.266 49.8781Z" fill="black"/>
<path d="M129.175 62.8714C129.116 62.8713 129.058 62.857 129.005 62.8297C128.952 62.8024 128.906 62.7628 128.871 62.7141C128.836 62.6654 128.812 62.6088 128.801 62.5489C128.791 62.4891 128.794 62.4275 128.811 62.369C129.491 59.9638 128.577 56.6079 128.569 56.5742C128.544 56.4752 128.558 56.3703 128.608 56.2818C128.657 56.1932 128.738 56.128 128.833 56.0999C128.928 56.0718 129.03 56.0831 129.117 56.1313C129.204 56.1796 129.269 56.261 129.299 56.3583C129.34 56.5043 130.282 59.9646 129.539 62.5888C129.516 62.6704 129.468 62.742 129.403 62.7929C129.337 62.8439 129.257 62.8714 129.175 62.8714Z" fill="black"/>
<path fill-rule="evenodd" clip-rule="evenodd" d="M120.618 50.1756C119.44 50.9633 118.568 52.1537 118.154 53.5386C117.453 52.538 117.109 51.3175 117.181 50.0846C117.297 48.4412 117.13 46.7895 116.687 45.2066C116.285 43.8368 115.433 42.4167 115.748 42.1153C116.063 41.8138 117.152 42.4583 117.152 42.4583C117.152 42.4583 115.885 40.5249 116.45 40.1535C117.016 39.7822 117.533 40.7494 117.533 40.7494C117.533 40.7494 117.675 39.4047 119.251 41.4983C119.251 41.4983 120.15 41.196 120.807 43.0251C121.647 45.355 121.039 47.1039 120.618 50.1756Z" fill="#FFD997"/>
<path fill-rule="evenodd" clip-rule="evenodd" d="M112.694 55.0568C113.435 55.0999 113.598 54.6988 113.682 53.5386C113.767 52.3784 114.084 50.4371 113.564 49.9456C113.098 49.4358 112.724 48.8447 112.458 48.1998C112.184 47.6456 111.557 46.9948 111.23 47.5624C110.902 48.1299 112.024 49.9668 112.024 49.9668C111.289 49.964 110.575 50.217 109.996 50.6851C108.973 51.4803 107.64 52.5142 108.307 53.9382C108.307 53.9382 107.529 54.866 108.396 55.0568C108.219 55.3345 108.107 55.6507 108.067 55.9807C108.028 56.3107 108.062 56.6457 108.168 56.9596C108.591 57.838 109.491 57.7831 109.384 57.0679C109.384 57.0679 110.22 58.5822 111.089 57.911C111.958 57.2399 110.546 57.254 110.917 56.5326C111.287 55.8112 111.207 54.9704 112.694 55.0568Z" fill="#FFD997"/>
<path d="M145.784 150.417C144.747 147.869 143.517 145.41 142.106 143.062C141.984 142.846 141.912 142.603 141.897 142.353C141.883 142.103 141.925 141.853 142.022 141.623C142.19 140.908 142.25 140.781 141.924 139.337C141.764 138.804 141.694 138.246 141.718 137.688C141.782 137.431 143.21 131.312 142.738 128.444L139.891 111.149C140.043 109.818 142.611 86.4128 138.775 70.8353L137.537 66.5782C138.069 65.9212 139.95 63.3511 142.32 57.2367C145.151 49.9315 145.32 47.334 144.656 45.3142C143.767 42.6177 140.064 41.0445 139.907 40.9786C139.86 40.9589 139.811 40.9488 139.76 40.949C139.71 40.9491 139.661 40.9595 139.615 40.9796C139.568 40.9996 139.526 41.0289 139.491 41.0658C139.456 41.1026 139.428 41.1463 139.409 41.1943C139.391 41.2423 139.381 41.2936 139.382 41.3454C139.382 41.3971 139.393 41.4483 139.412 41.4959C139.432 41.5435 139.461 41.5866 139.497 41.6227C139.533 41.6588 139.575 41.6872 139.622 41.7063C139.657 41.7212 143.158 43.2072 143.935 45.5669C144.527 47.3654 144.345 49.897 141.616 56.9447C139.068 63.5144 137.079 65.9338 136.86 66.1881C134.732 67.7393 133.844 67.733 131.016 66.1763C129.087 65.1158 126.779 64.2185 126.181 63.3056C125.403 62.1202 124.149 62.0849 123.352 60.7747C122.525 59.4135 122.617 58.5932 121.693 58.0516C121.502 57.8969 121.343 57.7042 121.226 57.4848C121.108 57.2653 121.034 57.0238 121.009 56.7744C121.332 55.8967 122.338 53.8141 123.593 53.5056H123.602H123.612C124.955 53.1006 125.625 53.0857 126.37 54.3691C126.897 55.2758 127.329 55.3441 128.68 55.3896C129.689 55.4242 130.584 55.5105 131.287 56.3842C131.577 56.743 131.814 56.94 132.259 56.838C132.392 56.9824 132.867 57.6159 133.135 59.5384C133.149 59.6415 133.203 59.7346 133.283 59.7971C133.364 59.8596 133.466 59.8864 133.566 59.8716C133.665 59.8568 133.756 59.8017 133.816 59.7183C133.877 59.6349 133.902 59.5301 133.888 59.4269C133.822 58.3387 133.476 57.2884 132.886 56.3842C133.643 55.4422 133.673 55.7884 134.178 55.4061C134.185 55.4585 134.202 55.5089 134.228 55.5542C134.254 55.5996 134.289 55.639 134.33 55.6699C135.333 56.4081 136.52 56.8325 137.75 56.8921C138.357 56.8963 138.956 56.7524 139.498 56.4722C139.588 56.4249 139.655 56.343 139.686 56.2445C139.717 56.146 139.71 56.0388 139.664 55.9463C139.619 55.8538 139.541 55.7834 139.445 55.7506C139.35 55.7178 139.246 55.7252 139.156 55.7711C137.148 56.8183 134.803 55.0568 134.779 55.0395C134.732 55.0049 134.678 54.9821 134.621 54.9728C136.103 53.2843 138.041 48.7713 138.523 47.5286C138.542 47.4807 138.551 47.4293 138.551 47.3775C138.55 47.3257 138.54 47.2745 138.52 47.2269C138.501 47.1792 138.472 47.136 138.436 47.0998C138.4 47.0636 138.358 47.0351 138.311 47.016C138.265 46.9968 138.215 46.9874 138.165 46.9882C138.115 46.989 138.065 47 138.019 47.0207C137.973 47.0413 137.932 47.0712 137.897 47.1085C137.862 47.1459 137.835 47.1899 137.817 47.2382C136.588 50.4222 134.408 54.5591 133.615 54.8472C132.551 55.235 132.291 56.0671 132.088 56.0836C131.943 56.0977 131.708 55.4061 130.733 54.9846C129.601 54.49 128.761 54.6839 127.769 54.5411C127 54.4296 127.168 53.8675 126.373 53.1021C126.041 52.8015 125.638 52.598 125.204 52.5125C124.77 52.4271 124.322 52.4629 123.906 52.6162C122.234 51.9882 121.425 49.919 121.417 49.8978C121.389 49.8271 121.342 49.7661 121.282 49.7224C121.222 49.6786 121.151 49.6539 121.077 49.6513C121.436 47.1518 122.011 45.2639 121.162 42.9003C120.609 41.3593 119.836 41.1113 119.421 41.1019C118.925 40.4676 118.14 39.6009 117.496 40.0727C117.351 39.884 117.144 39.7562 116.914 39.7129C116.684 39.6696 116.446 39.7138 116.246 39.8372C115.777 40.1457 115.853 40.8632 116.086 41.5721C115.829 41.5731 115.583 41.679 115.402 41.8664C114.566 42.7299 115.97 43.9074 116.376 45.2906C116.452 45.5395 116.509 45.7922 116.563 46.0497C115.558 47.2184 114.695 48.5103 113.994 49.8962C113.488 49.3563 113.082 48.7252 112.796 48.0342C112.344 47.1142 111.394 46.5239 110.902 47.3748C110.593 47.9117 111.01 48.9244 111.39 49.6427C110.798 49.757 110.241 50.0124 109.762 50.3884C108.861 51.0894 107.564 52.1036 107.771 53.4837C106.958 54.877 106.35 56.9824 107.107 58.5179C107.343 58.9671 107.673 59.3561 108.073 59.6566C108.473 59.957 108.934 60.1612 109.42 60.2543C110.665 60.5133 111.087 61.9279 112.879 61.847C114.691 61.7685 117.921 58.7997 118.564 57.473C118.706 57.1525 118.917 56.8694 119.181 56.6449C119.175 57.7007 119.181 59.8814 119.32 61.1979C118.906 61.9413 116.711 65.9707 116.18 68.6836C115.872 69.0023 113.347 80.231 115.204 88.9076C117.131 97.906 118.076 109.832 119.609 113.792C121.238 118.008 122.247 125.894 125.093 127.345L125.375 130.093C124.943 131.271 124.078 132.225 122.968 132.747C122.896 132.784 115.705 136.424 115.824 138.534C115.841 138.854 116.013 139.289 116.724 139.541C117.434 139.792 118.179 139.919 118.928 139.917C121.185 139.83 123.347 138.954 125.058 137.431C125.59 136.899 126.272 136.554 127.006 136.446C128.992 135.923 132.098 136.405 131.649 133.975C131.335 132.265 130.334 128.624 130.049 127.599C130.7 127.108 131.145 126.378 131.29 125.558C131.67 123.815 131.224 118.829 130.784 114.977C131.742 118.142 132.536 121.358 133.162 124.61C133.466 127.768 133.566 134.834 136.172 136.566C136.622 139.73 135.841 139.735 136.422 141.173C136.544 141.423 136.616 141.696 136.632 141.975C136.647 142.255 136.607 142.535 136.514 142.798C136.058 144.737 136.568 144.816 137.057 147.148C137.702 150.204 138.145 149.651 139.365 151.774C140.149 153.141 140.822 153.943 142.532 153.559C144.511 153.094 146.365 152.445 145.784 150.417ZM140.936 137.889C140.946 138.308 141.002 138.724 141.101 139.13C140.873 139.078 140.89 139.188 140.35 139.366L140.237 137.717L140.936 137.889ZM138.635 137.317L139.461 137.522L139.598 139.514C139.276 139.538 138.953 139.521 138.635 139.463V137.317ZM115.942 42.405C116.007 42.3374 116.049 42.3374 116.073 42.3406C116.246 42.3547 116.499 42.6083 116.619 42.7763C117.161 43.7261 117.574 44.7483 117.846 45.8142C117.859 45.8641 117.881 45.9108 117.911 45.9518C117.942 45.9928 117.979 46.0272 118.022 46.0532C118.066 46.0791 118.113 46.096 118.163 46.1028C118.212 46.1097 118.263 46.1065 118.311 46.0933C118.359 46.0801 118.404 46.0572 118.444 46.0259C118.484 45.9947 118.517 45.9556 118.542 45.9111C118.567 45.8665 118.584 45.8172 118.59 45.7661C118.597 45.715 118.594 45.6631 118.581 45.6133C118.291 44.4696 117.847 43.3738 117.262 42.3579C117.065 41.9756 116.383 40.3679 116.746 40.4636C116.945 40.5726 117.107 40.7433 117.208 40.9519C117.224 40.9786 118.78 43.639 118.948 45.6109C118.952 45.6624 118.967 45.7126 118.99 45.7585C119.013 45.8044 119.044 45.8452 119.083 45.8784C119.121 45.9117 119.165 45.9369 119.213 45.9524C119.261 45.968 119.311 45.9737 119.361 45.9692C119.411 45.9648 119.46 45.9502 119.504 45.9263C119.548 45.9024 119.588 45.8698 119.62 45.8301C119.652 45.7905 119.677 45.7447 119.692 45.6954C119.707 45.6461 119.712 45.5941 119.708 45.5426C119.424 43.8441 118.835 42.2153 117.972 40.74C118.842 41.1458 120.128 43.3627 119.9 45.3479C119.889 45.451 119.918 45.5545 119.98 45.6359C120.042 45.7172 120.133 45.7697 120.233 45.782C120.333 45.7942 120.433 45.7652 120.512 45.7012C120.591 45.6372 120.643 45.5435 120.655 45.4405C120.741 44.5707 120.632 43.692 120.336 42.8728C121.328 45.1446 120.644 47.2531 120.265 49.9661C119.269 50.5714 118.494 51.4997 118.061 52.6068C116.987 50.3845 118.152 48.6033 117.108 45.0465C116.761 43.8635 115.707 42.6483 115.942 42.405ZM116.724 47.0239C117.005 49.4707 116.528 50.5093 117.098 52.2606C116.383 51.4833 115.518 50.8698 114.558 50.4598C115.174 49.2468 115.899 48.0964 116.724 47.0239ZM110.226 50.9983C110.55 50.7467 110.919 50.5629 111.311 50.4575C111.111 51.2368 111.149 52.0607 111.419 52.8172C111.456 52.914 111.529 52.9916 111.621 53.0329C111.667 53.0533 111.717 53.0643 111.766 53.065C111.816 53.0658 111.866 53.0564 111.912 53.0374C111.959 53.0184 112.001 52.9901 112.037 52.9542C112.073 52.9183 112.101 52.8754 112.121 52.8281C112.141 52.7807 112.152 52.7298 112.152 52.6782C112.153 52.6267 112.144 52.5755 112.126 52.5275C111.884 51.8156 111.887 51.0398 112.132 50.3295C112.189 50.3154 112.242 50.2873 112.286 50.2476C112.33 50.208 112.364 50.158 112.385 50.1018C112.407 50.0457 112.415 49.985 112.408 49.9251C112.402 49.8651 112.382 49.8075 112.35 49.7573C111.927 49.1617 111.654 48.4672 111.556 47.7359C111.81 47.8767 112.011 48.1033 112.124 48.378C112.407 49.0663 112.809 49.6954 113.311 50.2345C113.597 50.5046 113.449 52.0039 113.371 52.8086C113.219 54.3872 113.282 54.6926 112.719 54.6651C112.413 54.6004 112.095 54.6256 111.802 54.7378C111.509 54.8501 111.253 55.0449 111.062 55.3002C110.916 54.9659 110.686 54.679 110.394 54.4704C110.468 54.4017 110.525 54.3163 110.561 54.221C110.597 54.1257 110.612 54.0229 110.603 53.9209C110.559 53.6014 110.28 53.457 110.075 53.351C109.999 53.3125 109.874 53.2458 109.859 53.2725C109.859 53.2725 109.876 53.1846 110.061 52.9899C110.132 52.9155 110.171 52.8151 110.17 52.711C110.169 52.6068 110.128 52.5074 110.056 52.4345C110.02 52.3984 109.978 52.37 109.931 52.3507C109.885 52.3315 109.836 52.3219 109.786 52.3224C109.685 52.3235 109.589 52.366 109.518 52.4404C108.945 53.0456 108.91 53.6281 109.706 54.041C109.336 54.2223 108.812 53.8463 108.633 53.7035C108.208 52.6869 109.058 51.9074 110.226 50.9983ZM110.945 57.5343C110.523 57.9126 110.1 57.4613 109.79 56.9793L109.817 56.4879C110.074 56.5523 110.345 56.5156 110.577 56.385C110.349 56.8623 110.551 57.2085 110.945 57.5343ZM108.392 54.4916C108.742 54.7516 109.166 54.8844 109.596 54.8692C110.018 55.1259 110.366 55.4799 110.352 55.5992C110.334 55.6268 110.311 55.6506 110.284 55.6691C109.937 55.9344 108.938 55.2954 108.355 54.7271C108.345 54.7177 108.332 54.7145 108.322 54.7059C108.328 54.6295 108.352 54.5558 108.392 54.4916ZM109.019 57.1669V57.2155C108.791 57.2862 108.281 56.772 108.354 55.75C108.58 55.9279 108.821 56.0855 109.073 56.221C109.031 56.973 109.014 56.9942 109.019 57.1669ZM117.886 57.108C117.351 58.2125 114.337 60.9859 112.85 61.0495C111.436 61.128 111.04 59.777 109.572 59.4709C108.104 59.1647 107.267 57.9692 107.592 56.1393C107.682 57.7093 108.839 58.3373 109.479 57.8435C109.62 58.024 109.794 58.1728 109.993 58.2808C110.191 58.3888 110.409 58.4537 110.632 58.4716C110.896 58.4694 111.151 58.3751 111.356 58.2041C111.562 58.033 111.705 57.7953 111.763 57.5295C111.774 57.0358 111.242 56.8764 111.259 56.7116C111.674 55.9062 111.483 55.3771 112.674 55.4438C114.089 55.5286 113.992 54.2349 114.124 52.8831C114.187 52.2324 114.234 51.6585 114.233 51.1679C114.961 51.4528 115.625 51.8881 116.185 52.447C116.744 53.0059 117.188 53.6767 117.488 54.4186C117.43 54.6887 117.387 54.9617 117.357 55.2366C117.351 55.292 117.358 55.3479 117.375 55.4006C117.392 55.4534 117.42 55.5017 117.457 55.5424C117.494 55.5831 117.539 55.6152 117.589 55.6366C117.638 55.6581 117.692 55.6683 117.746 55.6667C118.093 55.7037 118.429 55.8174 118.73 56.0004C118.369 56.2969 118.081 56.6762 117.886 57.108ZM118.166 54.9453C118.33 53.9806 118.94 51.4081 120.867 50.5258C121.327 51.5016 122.027 52.3362 122.896 52.9467C122.626 53.0892 122.377 53.2691 122.155 53.4813C121.395 52.9137 120.692 52.2716 120.686 52.2653C120.649 52.2311 120.605 52.2047 120.558 52.1878C120.511 52.1709 120.461 52.1637 120.411 52.1668C120.361 52.1698 120.313 52.1829 120.268 52.2054C120.223 52.2279 120.182 52.2594 120.149 52.2979C120.116 52.3365 120.091 52.3814 120.074 52.4301C120.058 52.4789 120.051 52.5305 120.054 52.582C120.057 52.6335 120.069 52.6839 120.091 52.7303C120.113 52.7767 120.143 52.8182 120.181 52.8525C120.21 52.8784 120.874 53.4844 121.632 54.0591C121.472 54.2631 121.323 54.4756 121.186 54.6957C120.549 54.2845 119.889 53.9131 119.21 53.5834C119.12 53.5478 119.021 53.5484 118.932 53.585C118.843 53.6216 118.771 53.6915 118.73 53.7808C118.689 53.87 118.682 53.972 118.71 54.0664C118.739 54.1607 118.801 54.2406 118.883 54.2899C119.545 54.6045 120.185 54.9643 120.8 55.3669C120.648 55.655 120.535 55.9164 120.447 56.1236C119.746 55.6186 118.978 55.2216 118.166 54.9453ZM130.829 134.766C130.558 135.146 129.689 135.245 128.771 135.348C124.599 135.819 125.132 136.669 123.521 137.64C121.089 139.107 118.948 139.479 116.975 138.781C116.803 138.72 116.595 138.616 116.587 138.467C116.529 137.463 120.524 134.816 123.3 133.434C124.502 132.855 125.46 131.846 125.996 130.593C127.256 130.958 128.946 131.122 130.005 130.326C130.961 133.966 131.044 134.463 130.829 134.766ZM125.896 127.689C126.139 127.784 126.379 127.865 126.616 127.932L126.926 130.011C126.652 129.96 126.382 129.895 126.115 129.815L125.896 127.689ZM127.411 128.108C127.617 128.139 127.824 128.157 128.032 128.162L128.354 130.101C128.139 130.119 127.924 130.121 127.709 130.108L127.411 128.108ZM128.794 128.108C128.988 128.075 129.179 128.025 129.365 127.957C129.462 128.308 129.61 128.848 129.78 129.483C129.592 129.692 129.357 129.85 129.096 129.945L128.794 128.108ZM116.935 68.7802C117.502 65.973 120.018 61.5103 120.044 61.4648C120.207 61.1759 119.929 61.4216 119.945 56.7273C120.059 56.8058 120.169 56.8788 120.268 56.9494C120.314 57.3056 120.432 57.6479 120.613 57.9547C120.794 58.2614 121.035 58.5259 121.32 58.7314C121.932 59.0893 121.901 59.8602 122.711 61.19C123.569 62.603 124.967 62.8495 125.554 63.7428C126.305 64.8874 128.594 65.7289 130.661 66.8663C133.77 68.5776 134.91 68.4489 136.898 67.1018L137.934 70.665C128.107 73.6307 119.282 72.0199 116.935 68.7802ZM136.99 136.906L137.878 137.128V139.262C137.6 139.164 137.33 139.042 137.071 138.898C137.094 138.233 137.066 137.566 136.987 136.906H136.99ZM136.99 139.74C137.908 140.223 138.946 140.406 139.967 140.263C140.42 140.2 140.856 140.046 141.252 139.811C141.349 140.168 141.397 140.538 141.393 140.91C141.334 141.338 141.182 141.732 141.148 142.227C139.524 141.297 137.541 142.266 137.45 142.311C137.422 142.327 137.397 142.346 137.374 142.368C137.434 141.848 137.348 141.321 137.127 140.849C136.968 140.504 136.919 140.116 136.987 139.74H136.99ZM145.019 151.576C144.669 152.187 143.423 152.536 142.377 152.772C141.009 153.076 140.642 152.429 140.026 151.354C138.734 149.102 138.417 149.862 137.807 146.961C137.279 144.465 136.857 144.726 137.285 142.851C137.331 142.94 137.408 143.006 137.501 143.038C137.593 143.069 137.694 143.062 137.782 143.019C137.802 143.01 139.823 142.023 141.126 143.156C141.184 143.205 141.255 143.234 141.33 143.241C141.375 143.333 141.425 143.422 141.482 143.507C142.847 145.787 144.041 148.171 145.054 150.639C145.115 150.789 145.143 150.95 145.137 151.112C145.13 151.274 145.089 151.433 145.016 151.576H145.019Z" fill="black"/>
<path d="M112.192 41.1097C112.041 40.8602 111.986 40.5611 112.04 40.2721C110.651 40.1441 109.108 38.5608 109.942 37.0881C110.66 35.8156 112.222 35.8211 113.078 35.935C113.027 35.5596 113.081 35.1771 113.233 34.8324C113.386 34.4877 113.63 34.195 113.938 33.9889C115.523 32.9135 118.081 34.1106 118.118 35.9632C118.062 36.7951 117.71 37.5761 117.13 38.1565C117.057 38.2242 116.961 38.2599 116.862 38.2561C116.764 38.2523 116.671 38.2093 116.603 38.1361C116.535 38.0629 116.497 37.9652 116.497 37.8636C116.497 37.762 116.535 37.6644 116.603 37.5913C117.029 37.1606 117.296 36.5892 117.356 35.9766C117.33 34.759 115.447 33.9034 114.354 34.6421C114.105 34.8219 113.925 35.0873 113.847 35.3911C113.769 35.6949 113.797 36.0174 113.927 36.3016C113.948 36.3684 113.952 36.4399 113.937 36.5086C113.922 36.5772 113.89 36.6405 113.843 36.6917C113.796 36.743 113.737 36.7804 113.672 36.8C113.607 36.8196 113.537 36.8207 113.471 36.8032C113.449 36.7969 111.304 36.2333 110.598 37.4806C110.482 37.7094 110.448 37.9734 110.503 38.2255C110.558 38.4775 110.698 38.7013 110.897 38.8567C111.081 39.0788 111.317 39.2491 111.582 39.3515C111.847 39.4539 112.133 39.4852 112.413 39.4423C112.486 39.3973 112.571 39.3787 112.655 39.3896C112.74 39.4005 112.818 39.4403 112.878 39.5025C112.938 39.5648 112.975 39.646 112.985 39.7331C112.995 39.8202 112.977 39.9083 112.933 39.9832C112.849 40.1284 112.711 40.4903 112.831 40.6771C112.895 40.7753 113.211 41.0799 114.612 40.8742C114.662 40.8667 114.712 40.8693 114.761 40.882C114.809 40.8947 114.855 40.9172 114.895 40.9481C114.935 40.979 114.969 41.0179 114.994 41.0623C115.02 41.1068 115.037 41.156 115.044 41.2072C115.051 41.2583 115.048 41.3105 115.035 41.3605C115.023 41.4106 115.001 41.4576 114.971 41.4988C114.941 41.5401 114.903 41.5748 114.86 41.601C114.817 41.6272 114.769 41.6443 114.719 41.6513C113.867 41.7785 112.66 41.846 112.192 41.1097Z" fill="black"/>
<path fill-rule="evenodd" clip-rule="evenodd" d="M48.7149 149.579C48.6044 149.724 48.4594 149.836 48.2941 149.905C48.1289 149.974 47.9491 149.997 47.7725 149.972C46.7039 149.98 45.2698 150.861 43.4451 148.57C42.3013 147.109 41.326 145.515 40.5388 143.821C40.5388 143.821 41.2327 146.937 39.9939 147.248C39.9939 147.248 40.3952 148.133 39.7834 148.46C39.1716 148.787 34.9103 148.678 33.4138 148.417C33.4138 148.417 33.5529 149.211 32.8347 149.287C32.1165 149.362 28.1767 149.422 27.3034 148.842C26.4302 148.262 24.7156 148.404 23.3347 146.888C22.6986 146.206 22.1528 145.441 21.7113 144.611C21.098 146.809 16.1139 148.097 14.1645 148.415C12.4865 148.689 12.7532 149.996 13.8887 150.527C15.0241 151.058 16.3488 151.142 17.2076 151.825C18.0664 152.507 17.317 153.303 16.424 153.407C15.531 153.511 14.524 153.497 12.0487 152.469C9.57338 151.441 9.42442 149.427 10.7932 147.862C12.1619 146.297 15.6192 145.787 18.0208 144.755C20.4224 143.723 20.9749 142.557 20.9749 142.557C20.7249 141.306 20.77 140.012 21.1064 138.783C22.124 134.853 26.8824 128.378 33.8067 127.979C37.2229 127.783 41.2266 130.252 41.2266 130.252C42.2133 130.602 43.2589 130.741 44.2993 130.659C46.1073 130.539 48.4329 132.034 49.8534 132.864C52.6874 134.522 57.4861 133.955 59.2675 134.461C59.2675 134.461 61.7079 132.704 62.9619 132.582C63.3973 132.539 61.815 135.91 61.815 135.91C61.815 135.91 63.7751 140.283 63.259 141.587C62.9304 142.401 62.5146 143.175 62.0195 143.894C62.0195 143.894 62.0871 145.399 61.8173 145.69C61.5475 145.98 60.0305 146.432 59.6551 145.943C59.2576 145.481 59.0133 144.9 58.9574 144.284C58.9574 144.284 58.354 144.427 58.2734 144.932C58.1929 145.437 58.5166 145.811 58.1214 145.885C57.9215 145.947 57.7078 145.943 57.5106 145.872C57.3133 145.802 57.1426 145.669 57.0225 145.493C56.5701 144.668 56.0106 143.912 55.3596 143.244C55.0297 142.985 54.6315 142.834 54.2172 142.812C53.803 142.79 53.3919 142.897 53.0378 143.12C52.2481 143.621 51.1021 144.847 50.32 145.089C49.5565 145.308 48.7748 145.452 47.9853 145.521L48.5302 147.147L49.9423 148.239C49.837 148.537 49.6738 148.81 49.4627 149.04C49.2516 149.271 48.9971 149.454 48.7149 149.579Z" fill="#FFD997"/>
<path fill-rule="evenodd" clip-rule="evenodd" d="M61.4349 145.11C60.8158 144.478 59.9959 144.098 59.1268 144.041C57.657 143.938 56.4584 145.169 57.2131 145.721C57.9678 146.273 58.309 145.744 58.309 145.744C58.309 145.744 57.9663 144.433 58.9558 144.285C59.1182 144.926 59.4004 145.528 59.7865 146.058C60.225 146.428 61.4212 145.979 61.5618 145.858L61.4349 145.11Z" fill="white"/>
<path fill-rule="evenodd" clip-rule="evenodd" d="M33.3812 148.519C33.4182 148.588 33.44 148.665 33.4448 148.744C33.4497 148.824 33.4376 148.903 33.4094 148.977C33.1342 149.7 31.6614 149.427 29.9962 149.259C28.331 149.091 27.8454 149.32 27.4 148.891C26.98 148.596 26.4903 148.425 25.9834 148.396C26.3448 147.999 26.7787 147.68 27.2601 147.458C27.7414 147.235 28.2606 147.114 28.7878 147.1C30.0392 147.002 31.2946 147.224 32.4426 147.748C32.9845 147.485 33.9452 147.761 36.7252 147.673C38.5143 147.617 40.4546 146.506 40.1346 148.14C39.7364 148.949 35.3664 148.683 33.3812 148.519Z" fill="white"/>
<path fill-rule="evenodd" clip-rule="evenodd" d="M45.0889 142.543C46.0541 143.032 47.1597 143.135 48.1942 142.835C49.7902 142.295 51.8665 140.872 54.2377 141.793L55.0935 143.087C54.8013 142.896 54.4632 142.792 54.117 142.788C53.7709 142.784 53.4305 142.88 53.1342 143.065C52.2982 143.752 50.9044 144.736 50.5115 145.017C49.7689 145.548 45.9043 145.508 45.9043 145.508L45.0889 142.543Z" fill="white"/>
<path fill-rule="evenodd" clip-rule="evenodd" d="M43.9614 149.105C43.9614 149.105 45.2656 147.332 46.3113 147.249C46.7917 147.151 47.29 147.229 47.7211 147.469C47.8269 147.338 47.963 147.237 48.1166 147.176C48.2702 147.114 48.4364 147.094 48.5997 147.117C48.8865 147.229 49.1481 147.4 49.3687 147.62C49.5893 147.84 49.7641 148.104 49.8826 148.396C49.9251 148.731 49.2814 149.396 48.871 149.523C48.7708 149.699 48.6256 149.843 48.4514 149.94C48.2772 150.037 48.0806 150.083 47.883 150.072C47.1147 150.099 44.9517 150.443 43.9614 149.105Z" fill="white"/>
<path d="M61.3072 142.971C61.3125 142.71 61.3163 142.363 61.3072 142.041C61.3052 141.947 61.3359 141.855 61.3939 141.783C61.4519 141.71 61.5332 141.661 61.623 141.645C61.7128 141.629 61.8052 141.647 61.8832 141.696C61.9613 141.745 62.0198 141.821 62.0482 141.91C62.1667 142.284 62.2569 142.666 62.318 143.055C62.4031 143.763 61.2958 143.512 61.3072 142.971Z" fill="black"/>
<path d="M62.235 135.916C63.6539 132.866 63.4434 132.553 63.3294 132.383C62.8255 131.63 59.9261 133.529 59.1927 134.038C57.311 133.604 52.6453 134.054 50.0393 132.524C48.4395 131.582 46.1329 130.143 44.2747 130.268C43.3093 130.337 42.34 130.217 41.4178 129.914C41.2385 129.805 37.2774 127.451 33.7806 127.588C26.7126 128.088 21.8212 134.503 20.739 138.682C20.4059 139.915 20.3515 141.21 20.5802 142.468C18.7691 145.209 12.5743 145.237 10.5109 147.599C8.91493 149.426 9.25769 151.732 11.907 152.832C13.3215 153.553 14.892 153.886 16.467 153.797C17.8122 153.64 18.519 152.373 17.4391 151.514C16.5058 150.772 15.1439 150.685 14.0442 150.17C13.5502 149.934 13.3229 149.573 13.3541 149.332C13.3852 149.091 13.712 148.887 14.2235 148.803C15.3514 148.619 20.4935 147.664 21.7908 145.486C23.2554 147.808 24.27 148.288 26.018 148.774C26.3942 148.855 26.7577 148.989 27.0979 149.174C28.1817 149.893 32.5236 149.714 32.8739 149.678C33.0466 149.678 33.216 149.629 33.3647 149.538C33.5133 149.448 33.6359 149.318 33.7198 149.162C35.366 149.365 39.2541 149.521 39.9723 149.138C40.6191 148.794 40.5507 147.952 40.4473 147.465C40.6744 147.252 40.8518 146.988 40.9663 146.694C41.0808 146.4 41.1294 146.082 41.1085 145.766C41.7117 146.838 42.3955 147.859 43.1537 148.82C45.1092 151.277 46.7363 150.371 47.7768 150.365C47.9903 150.381 48.2046 150.349 48.4052 150.272C48.6058 150.195 48.788 150.074 48.9396 149.918C50.4922 149.604 50.6792 148.703 50.6944 148.6C50.7666 148.114 49.4024 147.03 49.0102 146.745L48.5269 145.855C49.1708 145.777 49.8077 145.646 50.4314 145.463C51.3153 145.187 52.4576 143.948 53.2381 143.453C53.5307 143.267 53.8717 143.179 54.2146 143.2C54.5576 143.221 54.8859 143.351 55.1548 143.572C55.777 144.189 56.2976 144.908 56.6961 145.698C56.8546 145.943 57.084 146.13 57.3515 146.233C57.619 146.335 57.911 146.348 58.1857 146.268C58.2782 146.251 58.3659 146.213 58.4425 146.156C58.5191 146.1 58.5827 146.027 58.6289 145.942C58.675 145.858 58.7025 145.764 58.7095 145.667C58.7164 145.57 58.7026 145.473 58.6691 145.382C58.6245 145.225 58.6285 145.058 58.6805 144.903C58.8176 145.374 59.0479 145.81 59.3569 146.184C59.917 146.912 61.703 146.377 62.0929 145.957C62.4258 145.598 62.422 144.508 62.4052 144.01C62.8837 143.297 63.288 142.534 63.6114 141.733C64.1282 140.429 62.691 136.957 62.235 135.916ZM14.1065 148.027C12.0993 148.356 12.2065 150.171 13.7326 150.885C14.8916 151.427 16.201 151.518 16.977 152.135C17.1001 152.234 17.2384 152.381 17.2004 152.528C17.1162 152.675 16.9967 152.798 16.8534 152.885C16.7101 152.971 16.5478 153.018 16.3819 153.021C15.5634 153.117 14.6256 153.119 12.192 152.109C10.0785 151.23 9.80185 149.586 11.0764 148.129C12.8517 146.097 18.2606 146.074 20.8112 143.403C20.9469 143.83 21.1162 144.244 21.3174 144.643C21.0149 146.433 16.4906 147.64 14.1065 148.027ZM39.6242 148.44C39.1576 148.676 35.2778 148.613 33.599 148.353C33.526 148.242 33.4468 148.135 33.3618 148.033C35.4852 148.199 37.6203 148.088 39.717 147.704C39.7702 148.013 39.7747 148.36 39.6227 148.44H39.6242ZM47.7714 149.58C46.8275 149.586 45.7871 150.189 44.4518 149.056C45.0184 148.543 45.6341 148.091 46.2894 147.706C46.686 147.618 47.0988 147.648 47.4788 147.795C47.8803 148.242 48.1982 148.762 48.4167 149.328C48.3703 149.452 48.1849 149.577 47.7699 149.58H47.7714ZM46.2514 145.951C46.7326 145.976 47.2148 145.971 47.6954 145.936L48.1674 146.8C47.9761 146.852 47.7891 146.919 47.608 147.001C47.2363 146.884 46.8455 146.846 46.4589 146.888L46.2514 145.951ZM48.6918 147.479C49.1291 147.799 49.5283 148.171 49.8812 148.587C49.6865 148.823 49.4235 148.988 49.1311 149.058C48.2913 147.101 48.0222 147.714 48.6918 147.479ZM62.9038 141.44C62.5866 142.223 62.1867 142.968 61.7114 143.661C61.5768 143.84 61.6772 143.913 61.6354 144.766C61.5801 144.731 61.5171 144.712 61.4524 144.709C61.3878 144.706 61.3235 144.721 61.2658 144.751C61.2081 144.781 61.1589 144.826 61.1227 144.882C61.0866 144.937 61.0648 145.001 61.0593 145.068L61.0152 145.647C60.7514 145.732 60.4759 145.772 60.1997 145.765C60.1123 145.77 60.0257 145.747 59.9512 145.699C59.6012 145.297 59.3855 144.79 59.3356 144.252C59.3311 144.196 59.315 144.141 59.2883 144.092C59.2617 144.043 59.2252 144 59.1812 143.967C59.1372 143.934 59.0869 143.911 59.0335 143.9C58.9802 143.888 58.9251 143.889 58.872 143.902C58.6372 143.95 58.4207 144.067 58.2479 144.238C58.0751 144.409 57.9531 144.628 57.8962 144.868C57.8668 145.084 57.8748 145.304 57.9197 145.518C57.8002 145.548 57.6745 145.535 57.5626 145.483C57.4508 145.43 57.3595 145.34 57.3034 145.227C56.8477 144.365 56.2611 143.585 55.566 142.916C55.49 142.865 55.414 142.824 55.338 142.781C54.6296 141.999 54.1169 141.05 53.8446 140.017C53.6006 138.892 55.3836 137.719 56.0904 137.362C56.1811 137.316 56.2506 137.235 56.2836 137.137C56.3166 137.039 56.3104 136.931 56.2663 136.837C56.2223 136.743 56.144 136.671 56.0488 136.637C55.9535 136.603 55.849 136.61 55.7583 136.655C55.6321 136.719 52.6788 138.225 53.1028 140.188C53.294 140.989 53.6291 141.745 54.0908 142.419C53.6494 142.416 53.2164 142.544 52.8429 142.787C52.0533 143.288 50.889 144.504 50.2148 144.715C48.862 145.093 47.4578 145.238 46.0592 145.143C45.7833 144.138 45.5188 142.593 45.4603 142.479C44.573 140.995 43.2491 139.843 41.6823 139.192C41.6358 139.174 41.5861 139.165 41.5362 139.166C41.4863 139.167 41.437 139.178 41.3913 139.199C41.3456 139.22 41.3044 139.25 41.2699 139.287C41.2354 139.324 41.2083 139.368 41.1902 139.416C41.1722 139.465 41.1634 139.516 41.1646 139.567C41.1657 139.619 41.1767 139.67 41.1968 139.717C41.2169 139.764 41.2459 139.807 41.282 139.842C41.3181 139.878 41.3606 139.906 41.4072 139.925C42.7836 140.505 43.9547 141.507 44.7626 142.796C45.2095 145.059 45.1426 144.451 45.7362 147.114C45.0919 147.525 44.4804 147.988 43.9076 148.5C42.7294 147.05 41.7299 145.455 40.9322 143.751L39.4525 139.736C41.7712 136.095 44.5551 135.191 44.5832 135.183C44.6779 135.151 44.7568 135.083 44.8031 134.992C44.8495 134.901 44.8595 134.795 44.831 134.697C44.8026 134.598 44.738 134.515 44.651 134.465C44.5641 134.416 44.4617 134.403 44.3659 134.43C44.2382 134.47 41.2096 135.438 38.7084 139.478C38.6764 139.53 38.6565 139.588 38.6503 139.649C38.6441 139.71 38.6518 139.772 38.6727 139.829C40.2269 144.077 40.1654 143.832 40.1676 143.911C40.4124 145.015 40.4982 146.719 39.9039 146.868C37.3016 147.378 34.6371 147.455 32.0113 147.096C31.2933 146.811 30.5323 146.659 29.7632 146.647C31.6269 145.28 32.9412 143.255 33.4576 140.955C33.8308 138.679 33.4576 133.91 30.9055 133.171C29.4866 132.759 27.272 133.315 25.6661 133.854C25.6181 133.869 25.5736 133.894 25.5352 133.928C25.4967 133.961 25.465 134.002 25.4419 134.048C25.4189 134.094 25.4049 134.145 25.4008 134.196C25.3968 134.248 25.4027 134.3 25.4182 134.349C25.4337 134.399 25.4586 134.444 25.4913 134.484C25.524 134.523 25.564 134.555 25.6089 134.579C25.6538 134.602 25.7027 134.616 25.7529 134.62C25.803 134.623 25.8533 134.617 25.9009 134.6C28.0289 133.887 29.7344 133.648 30.7003 133.927C32.5312 134.456 33.1126 138.366 32.7082 140.824C32.3472 143.022 30.5802 145.357 28.2075 146.775C28.131 146.821 28.0725 146.894 28.042 146.98C28.0116 147.066 28.0111 147.16 28.0408 147.246C28.0704 147.332 28.1283 147.405 28.2044 147.452C28.2805 147.499 28.3701 147.516 28.4576 147.502C28.4902 147.498 31.781 146.986 33.0084 148.843C32.6847 149.031 28.2554 149.01 27.5091 148.513C26.5424 147.874 24.9137 148.052 23.611 146.62C21.4412 144.239 20.742 141.709 21.4739 138.885C22.5379 134.769 27.4278 128.825 33.8232 128.373C37.1064 128.239 40.9945 130.571 41.0842 130.618C42.1238 130.99 43.2262 131.138 44.3233 131.052C45.9695 130.949 48.2328 132.366 49.6654 133.207C52.2136 134.705 56.4962 134.468 58.4631 134.712C58.1926 134.996 57.9934 135.237 57.9767 135.257C57.9115 135.337 57.8796 135.44 57.8879 135.544C57.8962 135.647 57.9442 135.744 58.0212 135.811C58.0982 135.878 58.1979 135.911 58.2985 135.903C58.399 135.894 58.4922 135.845 58.5574 135.765C58.9256 135.316 59.3431 134.913 59.8015 134.564C60.2681 134.263 60.9415 133.821 61.608 133.483C60.4893 134.411 58.7648 136.187 58.6782 136.277C58.609 136.351 58.5707 136.45 58.5715 136.553C58.5724 136.656 58.6124 136.754 58.6828 136.827C58.7533 136.9 58.8486 136.941 58.9482 136.942C59.0479 136.943 59.1439 136.903 59.2155 136.832C59.2376 136.809 61.2113 134.776 62.251 133.958C61.5214 135.781 61.339 135.788 61.4704 136.077C62.2008 137.706 63.2367 140.605 62.9053 141.439L62.9038 141.44Z" fill="black"/>
<path d="M128.92 25.4356C128.838 25.4358 128.758 25.4085 128.692 25.358C128.626 25.3075 128.578 25.2364 128.555 25.1554C128.508 24.9642 128.412 24.7899 128.276 24.6514C128.228 24.6621 128.178 24.6628 128.13 24.6536C128.082 24.6444 128.036 24.6254 127.995 24.5977C127.954 24.5701 127.919 24.5343 127.891 24.4924C127.864 24.4505 127.845 24.4035 127.835 24.3539C127.711 23.7761 128.859 23.4417 129.284 24.9332C129.3 24.9916 129.303 25.0532 129.293 25.1131C129.282 25.173 129.258 25.2296 129.223 25.2783C129.188 25.327 129.142 25.3666 129.089 25.3939C129.037 25.4212 128.978 25.4355 128.92 25.4356Z" fill="black"/>
<path d="M128.639 126.053C125.635 124.849 123.081 120.644 122.974 120.465C122.921 120.377 122.904 120.27 122.927 120.169C122.95 120.067 123.011 119.98 123.097 119.925C123.182 119.87 123.286 119.853 123.384 119.876C123.482 119.9 123.567 119.963 123.62 120.052C123.645 120.092 126.148 124.212 128.914 125.321C129.008 125.358 129.084 125.433 129.125 125.528C129.165 125.624 129.168 125.732 129.131 125.829C129.095 125.926 129.022 126.004 128.93 126.046C128.838 126.088 128.733 126.091 128.639 126.053Z" fill="white"/>
<path d="M139.386 136.289C138.013 135.825 136.81 134.938 135.939 133.748C135.885 133.663 135.864 133.56 135.882 133.46C135.9 133.36 135.955 133.271 136.035 133.212C136.115 133.153 136.214 133.129 136.311 133.143C136.408 133.158 136.496 133.211 136.556 133.291C137.332 134.334 138.39 135.114 139.596 135.534C139.693 135.563 139.775 135.63 139.824 135.722C139.873 135.813 139.884 135.92 139.856 136.02C139.828 136.12 139.763 136.205 139.675 136.255C139.587 136.305 139.483 136.317 139.386 136.289Z" fill="white"/>
<path d="M138.247 132.376C137.483 132.383 136.73 132.184 136.062 131.8C135.974 131.749 135.91 131.664 135.882 131.564C135.855 131.463 135.868 131.356 135.917 131.265C135.966 131.175 136.049 131.108 136.146 131.08C136.243 131.052 136.347 131.064 136.434 131.115C138.398 132.256 140.644 130.958 140.667 130.946C140.71 130.92 140.758 130.903 140.807 130.897C140.857 130.89 140.907 130.893 140.956 130.907C141.004 130.92 141.049 130.943 141.089 130.975C141.128 131.006 141.161 131.045 141.186 131.09C141.211 131.135 141.227 131.184 141.234 131.235C141.24 131.286 141.237 131.338 141.224 131.388C141.211 131.438 141.189 131.485 141.159 131.525C141.128 131.566 141.09 131.601 141.047 131.626C140.185 132.103 139.225 132.36 138.247 132.376Z" fill="white"/>
<path d="M129.789 110.501C129.707 110.501 129.628 110.474 129.562 110.423C129.496 110.372 129.448 110.301 129.425 110.22C127.805 104.522 122.246 79.6673 122.191 79.4161C122.168 79.3146 122.186 79.208 122.239 79.1198C122.293 79.0315 122.378 78.9688 122.476 78.9455C122.574 78.9222 122.678 78.9402 122.763 78.9954C122.849 79.0507 122.909 79.1388 122.932 79.2403C122.987 79.4899 128.541 104.323 130.152 109.997C130.169 110.056 130.172 110.117 130.162 110.177C130.151 110.237 130.128 110.294 130.092 110.343C130.057 110.392 130.012 110.432 129.959 110.459C129.906 110.487 129.848 110.501 129.789 110.501Z" fill="white"/>
<path d="M117.738 83.3325C117.835 83.3327 117.928 83.2947 117.999 83.2263C118.069 83.1578 118.112 83.0642 118.118 82.9643C118.123 82.878 118.614 74.7768 119.205 71.5818C118.954 71.4523 118.723 71.3212 118.508 71.1893C117.955 73.907 117.496 80.7459 117.385 82.5075C116.652 82.3725 115.943 82.1243 115.282 81.7711C115.282 82.0616 115.282 82.3536 115.29 82.6464C116.057 83.0335 116.887 83.2663 117.738 83.3325Z" fill="white"/>
<path d="M130.989 85.375C131.026 85.4119 131.069 85.441 131.116 85.4604C131.163 85.4798 131.214 85.4892 131.264 85.4881C131.542 85.4881 137.556 85.3177 139.835 83.6512C139.814 83.3278 139.792 83.0036 139.768 82.6809L139.759 82.688C138.605 84.1151 133.831 84.5987 131.639 84.6905C131.639 81.9509 131.499 74.6786 131.464 72.921C131.217 72.9461 130.961 72.9681 130.704 72.9885C130.97 86.0847 130.792 85.1717 130.989 85.375Z" fill="white"/>
</svg>
