<svg width="600" height="600" viewBox="0 0 600 600" fill="none" xmlns="http://www.w3.org/2000/svg">
<path d="M261.347 114.225C261.347 114.225 273.39 205.062 279.694 234.632C281.045 240.965 282.18 248.217 283.133 256.038M283.133 256.038C289.464 307.973 287.78 385.034 287.78 385.034M283.133 256.038L347.745 155.125M393.997 523.993H181.468L210.901 523.993L181.468 384.855H393.997V386.662L364.946 523.993L393.997 523.993ZM243.474 325.258C246.704 321.377 265.982 327.113 273.564 333.424C281.146 339.735 285.302 353.506 282.072 357.386C278.842 361.267 257.464 354.173 252.504 350.045C247.545 345.917 240.243 329.139 243.474 325.258ZM294.887 328.547C292.995 323.865 307.166 309.592 316.312 305.896C325.459 302.201 339.558 305.051 341.449 309.733C343.341 314.414 326.98 329.895 320.997 332.313C315.014 334.73 296.778 333.228 294.887 328.547ZM292.593 369.829C290.701 365.148 304.872 350.874 314.019 347.179C323.165 343.483 337.264 346.334 339.156 351.015C341.048 355.697 324.686 371.178 318.703 373.595C312.72 376.013 294.485 374.511 292.593 369.829ZM292.593 286.5C290.701 281.818 304.872 267.545 314.019 263.849C323.165 260.154 337.264 263.004 339.156 267.686C341.048 272.367 324.686 287.848 318.703 290.266C312.72 292.683 294.485 291.181 292.593 286.5ZM313.979 229.524C314.658 224.52 334.041 219.15 343.816 220.475C353.591 221.801 364.423 231.266 363.744 236.27C363.066 241.274 341.182 246.606 334.788 245.739C328.393 244.873 313.301 234.527 313.979 229.524ZM274.705 161.914C271.444 158.058 280.441 140.07 287.973 133.699C295.505 127.329 309.788 125.627 313.049 129.483C316.31 133.338 305.61 153.159 300.683 157.326C295.756 161.493 277.966 165.769 274.705 161.914ZM268.589 118.337C265.328 114.482 274.325 96.4932 281.857 90.1228C289.389 83.7523 303.672 82.0508 306.933 85.9061C310.194 89.7615 299.494 109.582 294.567 113.75C289.641 117.917 271.85 122.193 268.589 118.337ZM336.349 195.641C335.28 190.707 351.669 179.047 361.31 176.958C370.951 174.869 384.361 180.072 385.431 185.007C386.5 189.941 367.748 202.42 361.441 203.786C355.135 205.153 337.419 200.576 336.349 195.641ZM215.291 139.328C217.107 134.616 237.206 133.868 246.411 137.415C255.616 140.962 263.968 152.673 262.153 157.385C260.337 162.097 237.813 162.231 231.792 159.911C225.771 157.591 213.476 144.04 215.291 139.328ZM357.225 154.144C355.767 149.309 371.178 136.384 380.622 133.536C390.067 130.688 403.848 134.809 405.306 139.643C406.764 144.478 389.063 158.406 382.885 160.269C376.707 162.132 358.683 158.978 357.225 154.144ZM341.395 146.087C336.356 146.415 327.25 128.481 326.61 118.637C325.971 108.793 333.101 96.3001 338.14 95.9728C343.179 95.6454 352.745 116.038 353.163 122.477C353.581 128.916 346.434 145.76 341.395 146.087ZM221.29 184.17C223.352 179.561 243.463 179.875 252.467 183.904C261.472 187.932 269.194 200.068 267.132 204.677C265.07 209.286 242.57 208.231 236.68 205.596C230.79 202.961 219.228 188.779 221.29 184.17ZM216.703 91.6659C218.765 87.0567 238.876 87.3714 247.88 91.3996C256.885 95.4279 264.607 107.564 262.545 112.173C260.483 116.782 237.983 115.727 232.093 113.092C226.203 110.457 214.641 96.2752 216.703 91.6659ZM284.22 210.777C280.231 207.681 285.308 188.219 291.357 180.427C297.407 172.635 311.028 168.012 315.017 171.108C319.005 174.205 312.642 195.812 308.685 200.909C304.728 206.006 288.209 213.874 284.22 210.777ZM233.55 229.233C236.205 224.938 256.096 227.914 264.488 233.099C272.88 238.285 278.926 251.337 276.272 255.633C273.617 259.928 251.456 255.901 245.966 252.509C240.477 249.117 230.896 233.529 233.55 229.233ZM276.934 308.886C273.776 312.826 254.395 307.45 246.697 301.282C238.999 295.113 234.586 281.422 237.744 277.482C240.901 273.541 262.408 280.236 267.443 284.271C272.479 288.306 280.091 304.945 276.934 308.886Z" stroke="#1E1E1E" stroke-width="5"/>
</svg>
