<svg width="600" height="600" viewBox="0 0 600 600" fill="none" xmlns="http://www.w3.org/2000/svg">
<path d="M203.468 500.993H415.996L386.946 500.993L415.996 363.662V361.855H203.468L232.9 500.993L203.468 500.993Z" fill="#FFE790"/>
<path d="M276.104 325.123C275.189 324.362 273.975 322.826 272.689 320.688C271.434 318.601 270.218 316.121 269.245 313.644C268.266 311.153 267.571 308.762 267.3 306.839C267.164 305.877 267.147 305.117 267.213 304.564C267.264 304.137 267.351 303.941 267.384 303.879C267.432 303.848 267.591 303.756 267.961 303.668C268.515 303.536 269.317 303.467 270.377 303.507C272.49 303.588 275.232 304.087 278.209 304.925C284.216 306.617 290.555 309.506 293.965 312.345C297.301 315.122 300.02 319.695 301.502 324.112C302.238 326.302 302.627 328.335 302.672 329.962C302.717 331.588 302.41 332.417 302.189 332.732C302.124 332.763 301.956 332.833 301.617 332.897C301.006 333.011 300.123 333.047 298.967 332.963C296.668 332.796 293.72 332.192 290.618 331.313C287.535 330.439 284.399 329.323 281.751 328.183C279.035 327.013 277.051 325.912 276.104 325.123Z" fill="#FFE790" stroke="#FFE790" stroke-width="5"/>
<path d="M342.06 306.995C340.957 307.441 339.029 307.784 336.538 307.905C334.105 308.024 331.345 307.923 328.703 307.609C326.044 307.293 323.609 306.775 321.786 306.104C320.874 305.768 320.197 305.424 319.741 305.104C319.388 304.858 319.258 304.689 319.218 304.63C319.214 304.574 319.208 304.389 319.305 304.022C319.451 303.472 319.769 302.732 320.306 301.817C321.376 299.993 323.113 297.814 325.26 295.587C329.591 291.094 335.135 286.876 339.249 285.214C343.273 283.588 348.589 283.355 353.181 284.137C355.459 284.526 357.434 285.144 358.889 285.874C360.343 286.603 360.928 287.266 361.101 287.609C361.098 287.681 361.08 287.862 360.976 288.191C360.788 288.784 360.401 289.579 359.781 290.557C358.547 292.504 356.62 294.816 354.378 297.133C352.15 299.437 349.684 301.671 347.427 303.465C345.112 305.305 343.203 306.533 342.06 306.995Z" fill="#FFE790" stroke="#FFE790" stroke-width="5"/>
<path d="M339.767 348.277C338.663 348.723 336.736 349.066 334.244 349.188C331.812 349.307 329.052 349.206 326.409 348.892C323.751 348.576 321.315 348.057 319.493 347.387C318.581 347.051 317.903 346.707 317.447 346.387C317.095 346.14 316.964 345.971 316.925 345.913C316.92 345.856 316.914 345.672 317.012 345.304C317.158 344.755 317.476 344.015 318.013 343.1C319.083 341.276 320.819 339.096 322.966 336.87C327.297 332.377 332.841 328.159 336.955 326.496C340.98 324.87 346.295 324.637 350.888 325.42C353.166 325.808 355.141 326.427 356.596 327.156C358.049 327.885 358.634 328.549 358.807 328.892C358.805 328.964 358.787 329.145 358.682 329.474C358.494 330.066 358.108 330.862 357.488 331.84C356.253 333.787 354.326 336.099 352.085 338.416C349.857 340.72 347.391 342.954 345.134 344.748C342.819 346.588 340.909 347.816 339.767 348.277Z" fill="#FFE790" stroke="#FFE790" stroke-width="5"/>
<path d="M339.767 264.948C338.663 265.394 336.736 265.737 334.244 265.859C331.812 265.977 329.052 265.876 326.409 265.562C323.751 265.246 321.315 264.728 319.493 264.057C318.581 263.722 317.903 263.377 317.447 263.058C317.095 262.811 316.964 262.642 316.925 262.583C316.92 262.527 316.914 262.342 317.012 261.975C317.158 261.425 317.476 260.685 318.013 259.77C319.083 257.947 320.819 255.767 322.966 253.54C327.297 249.047 332.841 244.829 336.955 243.167C340.98 241.541 346.295 241.308 350.888 242.091C353.166 242.479 355.141 243.097 356.596 243.827C358.049 244.556 358.634 245.219 358.807 245.562C358.805 245.634 358.787 245.816 358.682 246.145C358.494 246.737 358.108 247.532 357.488 248.511C356.253 250.457 354.326 252.769 352.085 255.087C349.857 257.39 347.391 259.624 345.134 261.419C342.819 263.259 340.909 264.486 339.767 264.948Z" fill="#FFE790" stroke="#FFE790" stroke-width="5"/>
<path d="M357.123 220.262C355.944 220.102 354.1 219.445 351.876 218.315C349.704 217.212 347.358 215.756 345.218 214.173C343.066 212.581 341.208 210.923 339.958 209.437C339.332 208.694 338.915 208.059 338.677 207.555C338.494 207.166 338.464 206.954 338.459 206.884C338.483 206.833 338.569 206.669 338.836 206.399C339.235 205.993 339.878 205.509 340.798 204.98C342.631 203.927 345.22 202.895 348.189 202.026C354.178 200.271 361.083 199.357 365.48 199.953C369.782 200.536 374.513 202.969 378.114 205.926C379.899 207.392 381.308 208.908 382.21 210.263C383.111 211.617 383.29 212.483 383.27 212.867C383.232 212.928 383.126 213.077 382.873 213.311C382.416 213.732 381.686 214.231 380.662 214.773C378.625 215.852 375.805 216.904 372.71 217.805C369.633 218.701 366.383 219.419 363.534 219.858C360.611 220.308 358.344 220.428 357.123 220.262Z" fill="#FFE790" stroke="#FFE790" stroke-width="5"/>
<path d="M321.069 132.417C320.16 133.186 318.437 134.114 316.108 135.009C313.835 135.883 311.181 136.65 308.573 137.178C305.949 137.709 303.474 137.978 301.533 137.911C300.562 137.877 299.811 137.762 299.277 137.601C298.866 137.477 298.689 137.357 298.633 137.314C298.611 137.262 298.548 137.088 298.525 136.709C298.492 136.141 298.563 135.339 298.787 134.302C299.233 132.235 300.201 129.622 301.543 126.835C304.252 121.213 308.199 115.473 311.587 112.608C314.901 109.805 319.877 107.921 324.484 107.228C326.769 106.885 328.839 106.855 330.449 107.093C332.058 107.331 332.821 107.777 333.092 108.049C333.112 108.119 333.152 108.297 333.156 108.642C333.162 109.263 333.044 110.139 332.761 111.263C332.197 113.498 331.09 116.296 329.685 119.198C328.29 122.083 326.646 124.977 325.063 127.387C323.439 129.858 322.01 131.621 321.069 132.417Z" fill="#FFE790" stroke="#FFE790" stroke-width="5"/>
<path d="M314.953 88.8405C314.044 89.6093 312.321 90.5379 309.992 91.4327C307.719 92.3061 305.065 93.0731 302.457 93.6013C299.833 94.1327 297.358 94.4016 295.417 94.3346C294.446 94.301 293.695 94.1858 293.161 94.0249C292.75 93.9007 292.573 93.7809 292.517 93.7375C292.495 93.6855 292.432 93.5121 292.409 93.1326C292.376 92.5647 292.447 91.7625 292.671 90.7257C293.117 88.6588 294.085 86.0452 295.427 83.2588C298.136 77.6368 302.083 71.8967 305.471 69.0313C308.785 66.2282 313.761 64.3447 318.368 63.652C320.653 63.3085 322.723 63.2783 324.333 63.5163C325.942 63.7541 326.705 64.2011 326.976 64.473C326.996 64.5422 327.036 64.7201 327.04 65.0652C327.046 65.6866 326.928 66.5627 326.645 67.6862C326.081 69.9214 324.974 72.72 323.569 75.6219C322.174 78.5066 320.53 81.4001 318.947 83.8101C317.323 86.2818 315.894 88.0448 314.953 88.8405Z" fill="#FFE790" stroke="#FFE790" stroke-width="5"/>
<path d="M382.912 178.343C381.748 178.595 379.791 178.606 377.314 178.303C374.897 178.007 372.194 177.438 369.644 176.68C367.078 175.918 364.765 174.993 363.083 174.023C362.242 173.537 361.632 173.083 361.237 172.69C360.932 172.387 360.832 172.198 360.803 172.134C360.808 172.078 360.833 171.895 360.992 171.549C361.229 171.032 361.668 170.357 362.352 169.547C363.717 167.931 365.798 166.078 368.292 164.248C373.323 160.556 379.503 157.34 383.839 156.401C388.081 155.482 393.359 156.155 397.752 157.706C399.931 158.475 401.772 159.42 403.082 160.386C404.391 161.351 404.855 162.104 404.967 162.471C404.952 162.542 404.904 162.718 404.745 163.024C404.459 163.576 403.943 164.294 403.166 165.153C401.619 166.862 399.328 168.813 396.725 170.716C394.139 172.608 391.329 174.391 388.8 175.776C386.206 177.196 384.116 178.082 382.912 178.343Z" fill="#FFE790" stroke="#FFE790" stroke-width="5"/>
<path d="M254.691 134.578C253.58 134.15 251.938 133.085 250.034 131.472C248.177 129.897 246.23 127.938 244.514 125.904C242.788 123.858 241.363 121.816 240.489 120.082C240.052 119.214 239.793 118.499 239.678 117.954C239.589 117.534 239.609 117.321 239.62 117.251C239.655 117.207 239.777 117.068 240.099 116.866C240.581 116.564 241.319 116.241 242.336 115.939C244.363 115.338 247.12 114.932 250.209 114.771C256.441 114.447 263.372 115.152 267.512 116.748C271.562 118.308 275.604 121.769 278.424 125.477C279.823 127.316 280.844 129.117 281.408 130.643C281.972 132.169 281.947 133.052 281.838 133.421C281.787 133.472 281.65 133.592 281.349 133.761C280.808 134.065 279.982 134.382 278.861 134.674C276.63 135.253 273.643 135.626 270.423 135.788C267.223 135.949 263.895 135.896 261.021 135.665C258.073 135.428 255.841 135.021 254.691 134.578Z" fill="#FFE790" stroke="#FFE790" stroke-width="5"/>
<path d="M404.163 134.875C403.023 135.219 401.073 135.386 398.58 135.28C396.147 135.177 393.408 134.825 390.805 134.272C388.186 133.716 385.808 132.978 384.054 132.144C383.176 131.727 382.533 131.323 382.107 130.963C381.779 130.685 381.664 130.505 381.63 130.443C381.631 130.386 381.642 130.202 381.772 129.845C381.968 129.311 382.352 128.603 382.97 127.741C384.201 126.022 386.129 124.009 388.469 121.987C393.191 117.907 399.096 114.21 403.344 112.929C407.5 111.676 412.815 111.927 417.317 113.125C419.55 113.718 421.461 114.514 422.843 115.373C424.225 116.231 424.747 116.945 424.888 117.302C424.878 117.374 424.844 117.553 424.71 117.871C424.469 118.444 424.012 119.2 423.305 120.118C421.899 121.945 419.77 124.072 417.327 126.176C414.899 128.267 412.239 130.268 409.828 131.849C407.355 133.471 405.343 134.52 404.163 134.875Z" fill="#FFE790" stroke="#FFE790" stroke-width="5"/>
<path d="M372.668 99.6386C372.745 100.827 372.466 102.764 371.8 105.168C371.15 107.515 370.188 110.104 369.061 112.515C367.927 114.94 366.67 117.09 365.462 118.609C364.857 119.37 364.317 119.906 363.871 120.238C363.526 120.495 363.324 120.567 363.256 120.586C363.202 120.572 363.024 120.52 362.706 120.312C362.23 120.001 361.627 119.467 360.927 118.67C359.531 117.082 358.006 114.749 356.565 112.012C353.658 106.49 351.392 99.9026 351.105 95.4749C350.823 91.1433 352.27 86.0231 354.454 81.9079C355.537 79.8671 356.744 78.1857 357.893 77.0331C359.042 75.8814 359.855 75.5341 360.235 75.4777C360.302 75.5027 360.469 75.5767 360.749 75.779C361.252 76.1433 361.886 76.7597 362.62 77.6558C364.082 79.4385 365.672 81.9935 367.169 84.8487C368.658 87.6869 370.005 90.7297 371.001 93.4357C372.022 96.2111 372.588 98.409 372.668 99.6386Z" fill="#FFE790" stroke="#FFE790" stroke-width="5"/>
<path d="M259.701 180.314C258.614 179.828 257.031 178.677 255.215 176.965C253.443 175.295 251.603 173.236 249.996 171.114C248.381 168.98 247.066 166.865 246.285 165.087C245.895 164.197 245.673 163.47 245.587 162.92C245.521 162.495 245.552 162.283 245.567 162.214C245.604 162.172 245.733 162.04 246.066 161.855C246.563 161.579 247.317 161.296 248.348 161.048C250.404 160.555 253.179 160.295 256.272 160.297C262.513 160.303 269.396 161.374 273.446 163.185C277.409 164.958 281.262 168.627 283.883 172.479C285.182 174.389 286.106 176.241 286.589 177.795C287.072 179.349 286.999 180.23 286.872 180.592C286.818 180.64 286.675 180.753 286.366 180.906C285.809 181.181 284.968 181.454 283.832 181.686C281.574 182.146 278.572 182.361 275.348 182.352C272.143 182.344 268.823 182.116 265.965 181.734C263.034 181.341 260.826 180.817 259.701 180.314Z" fill="#FFE790" stroke="#FFE790" stroke-width="5"/>
<path d="M255.114 87.8098C254.027 87.3237 252.444 86.1728 250.628 84.4616C248.856 82.7913 247.015 80.7322 245.409 78.6104C243.794 76.4759 242.479 74.3613 241.698 72.5833C241.308 71.6933 241.086 70.9663 241 70.4159C240.934 69.9912 240.965 69.7795 240.98 69.7103C241.017 69.6684 241.146 69.5359 241.478 69.3514C241.976 69.0753 242.73 68.7916 243.761 68.5441C245.817 68.0508 248.592 67.7907 251.685 67.7936C257.926 67.7995 264.809 68.8696 268.859 70.6815C272.822 72.454 276.675 76.1228 279.295 79.9749C280.595 81.8852 281.519 83.7374 282.002 85.2916C282.485 86.8447 282.412 87.726 282.285 88.0884C282.231 88.1365 282.088 88.2494 281.779 88.4022C281.221 88.6774 280.381 88.9503 279.245 89.1818C276.987 89.6424 273.984 89.8569 270.761 89.8485C267.556 89.8402 264.236 89.6123 261.378 89.2298C258.447 88.8375 256.239 88.3129 255.114 87.8098Z" fill="#FFE790" stroke="#FFE790" stroke-width="5"/>
<path d="M328.711 176.376C327.981 177.316 326.487 178.581 324.394 179.939C322.351 181.264 319.914 182.564 317.472 183.621C315.015 184.684 312.648 185.46 310.736 185.796C309.779 185.965 309.02 186.007 308.465 185.96C308.037 185.924 307.838 185.844 307.775 185.813C307.743 185.766 307.645 185.61 307.544 185.243C307.394 184.695 307.297 183.895 307.302 182.834C307.31 180.72 307.716 177.962 308.452 174.958C309.938 168.897 312.611 162.464 315.332 158.959C317.994 155.531 322.472 152.658 326.836 151.026C329 150.217 331.018 149.759 332.643 149.658C334.266 149.557 335.105 149.837 335.427 150.047C335.461 150.11 335.537 150.276 335.612 150.613C335.747 151.219 335.812 152.101 335.768 153.259C335.68 155.562 335.176 158.529 334.403 161.659C333.635 164.77 332.626 167.942 331.576 170.627C330.5 173.382 329.466 175.402 328.711 176.376Z" fill="#FFE790" stroke="#FFE790" stroke-width="5"/>
<path d="M269.281 227.382C268.268 226.757 266.851 225.406 265.278 223.469C263.743 221.579 262.191 219.294 260.88 216.978C259.562 214.649 258.538 212.379 258 210.513C257.731 209.579 257.608 208.829 257.595 208.272C257.586 207.842 257.645 207.637 257.669 207.57C257.712 207.533 257.857 207.419 258.211 207.28C258.74 207.072 259.525 206.891 260.58 206.783C262.683 206.566 265.468 206.676 268.534 207.088C274.718 207.921 281.399 209.893 285.174 212.226C288.867 214.508 292.2 218.655 294.287 222.82C295.322 224.886 295.992 226.844 296.265 228.448C296.538 230.052 296.35 230.916 296.175 231.258C296.116 231.299 295.959 231.391 295.632 231.502C295.043 231.701 294.174 231.86 293.018 231.939C290.718 232.096 287.714 231.911 284.519 231.476C281.344 231.043 278.083 230.377 275.301 229.62C272.448 228.843 270.329 228.03 269.281 227.382Z" fill="#FFE790" stroke="#FFE790" stroke-width="5"/>
<path d="M287.88 263.222C288.809 263.967 290.051 265.48 291.376 267.593C292.67 269.656 293.932 272.113 294.951 274.571C295.976 277.044 296.715 279.422 297.022 281.339C297.176 282.299 297.207 283.059 297.151 283.613C297.109 284.041 297.025 284.238 296.993 284.301C296.946 284.332 296.788 284.428 296.42 284.522C295.869 284.664 295.068 284.749 294.008 284.728C291.894 284.687 289.143 284.239 286.151 283.456C280.113 281.877 273.722 279.106 270.259 276.331C266.872 273.617 264.068 269.095 262.504 264.706C261.728 262.53 261.301 260.505 261.226 258.879C261.15 257.254 261.442 256.42 261.657 256.101C261.721 256.068 261.888 255.995 262.226 255.925C262.835 255.799 263.717 255.747 264.874 255.81C267.176 255.933 270.135 256.483 273.253 257.304C276.352 258.12 279.507 259.178 282.176 260.268C284.913 261.387 286.918 262.452 287.88 263.222Z" fill="#FFE790" stroke="#FFE790" stroke-width="5"/>
<path d="M283.346 91.2247C283.346 91.2247 295.39 182.062 301.694 211.632C303.044 217.965 304.18 225.217 305.133 233.038M309.78 362.034C309.78 362.034 311.464 284.973 305.133 233.038M305.133 233.038L369.745 132.125" stroke="#FFE790" stroke-width="5"/>
<path d="M274.346 101.225C274.346 101.225 286.39 192.062 292.694 221.632C294.044 227.965 295.18 235.217 296.133 243.038M296.133 243.038C302.464 294.973 300.78 372.034 300.78 372.034M296.133 243.038L360.744 142.125M406.996 510.993H194.468L223.9 510.993L194.468 371.855H406.996V373.662L377.946 510.993L406.996 510.993ZM256.474 312.258C259.704 308.377 278.982 314.113 286.564 320.424C294.146 326.735 298.302 340.506 295.072 344.386C291.841 348.267 270.463 341.173 265.504 337.045C260.544 332.917 253.243 316.139 256.474 312.258ZM307.886 315.547C305.995 310.865 320.166 296.592 329.312 292.896C338.458 289.201 352.558 292.051 354.449 296.733C356.341 301.414 339.98 316.895 333.997 319.313C328.014 321.73 309.778 320.228 307.886 315.547ZM305.593 356.829C303.701 352.148 317.872 337.874 327.018 334.179C336.165 330.483 350.264 333.334 352.156 338.015C354.047 342.697 337.686 358.178 331.703 360.595C325.72 363.013 307.485 361.511 305.593 356.829ZM305.593 273.5C303.701 268.818 317.872 254.545 327.018 250.849C336.165 247.154 350.264 250.004 352.156 254.686C354.047 259.367 337.686 274.848 331.703 277.266C325.72 279.683 307.485 278.181 305.593 273.5ZM326.979 216.524C327.658 211.52 347.041 206.15 356.816 207.475C366.591 208.801 377.422 218.266 376.744 223.27C376.066 228.274 354.182 233.606 347.787 232.739C341.393 231.873 326.301 221.527 326.979 216.524ZM287.705 148.914C284.444 145.058 293.441 127.07 300.973 120.699C308.504 114.329 322.788 112.627 326.049 116.483C329.31 120.338 318.61 140.159 313.683 144.326C308.756 148.493 290.965 152.769 287.705 148.914ZM281.589 105.337C278.328 101.482 287.325 83.4932 294.857 77.1228C302.389 70.7523 316.672 69.0508 319.933 72.9061C323.194 76.7615 312.494 96.5824 307.567 100.75C302.64 104.917 284.85 109.193 281.589 105.337ZM349.349 182.641C348.28 177.707 364.669 166.047 374.309 163.958C383.95 161.869 397.361 167.072 398.43 172.007C399.5 176.941 380.747 189.42 374.441 190.786C368.134 192.153 350.418 187.576 349.349 182.641ZM228.291 126.328C230.107 121.616 250.206 120.868 259.411 124.415C268.616 127.962 276.968 139.673 275.153 144.385C273.337 149.097 250.813 149.231 244.792 146.911C238.77 144.591 226.475 131.04 228.291 126.328ZM370.225 141.144C368.767 136.309 384.178 123.384 393.622 120.536C403.067 117.688 416.848 121.809 418.306 126.643C419.764 131.478 402.062 145.406 395.884 147.269C389.706 149.132 371.683 145.978 370.225 141.144ZM354.395 133.087C349.356 133.415 340.25 115.481 339.61 105.637C338.971 95.7931 346.101 83.3001 351.14 82.9728C356.178 82.6454 365.744 103.038 366.163 109.477C366.581 115.916 359.434 132.76 354.395 133.087ZM234.29 171.17C236.352 166.561 256.462 166.875 265.467 170.904C274.472 174.932 282.194 187.068 280.132 191.677C278.07 196.286 255.57 195.231 249.68 192.596C243.79 189.961 232.228 175.779 234.29 171.17ZM229.703 78.6659C231.765 74.0567 251.875 74.3714 260.88 78.3996C269.885 82.4279 277.607 94.564 275.545 99.1732C273.483 103.782 250.983 102.727 245.093 100.092C239.203 97.4568 227.641 83.2752 229.703 78.6659ZM297.22 197.777C293.231 194.681 298.308 175.219 304.357 167.427C310.407 159.635 324.028 155.012 328.017 158.108C332.005 161.205 325.642 182.812 321.685 187.909C317.728 193.006 301.208 200.874 297.22 197.777ZM246.55 216.233C249.204 211.938 269.096 214.914 277.488 220.099C285.88 225.285 291.926 238.337 289.271 242.633C286.617 246.928 264.456 242.901 258.966 239.509C253.477 236.117 243.896 220.529 246.55 216.233ZM289.934 295.886C286.776 299.826 267.394 294.45 259.696 288.282C251.998 282.113 247.586 268.422 250.744 264.482C253.901 260.541 275.408 267.236 280.443 271.271C285.479 275.306 293.091 291.945 289.934 295.886Z" stroke="#1E1E1E" stroke-width="5"/>
</svg>
