<svg width="600" height="600" viewBox="0 0 600 600" fill="none" xmlns="http://www.w3.org/2000/svg">
<path d="M112.376 257.304H487.359V412H112.376V257.304Z" stroke="#1E1E1E" stroke-width="5"/>
<path d="M154.631 192.268C154.631 189.911 156.542 188 158.9 188C161.257 188 163.168 189.911 163.168 192.268V217.877C163.168 220.234 161.257 222.145 158.9 222.145C156.542 222.145 154.631 220.234 154.631 217.877V192.268Z" stroke="#1E1E1E" stroke-width="5"/>
<path d="M211.824 192.268C211.824 189.911 213.735 188 216.092 188C218.449 188 220.36 189.911 220.36 192.268V217.877C220.36 220.234 218.449 222.145 216.092 222.145C213.735 222.145 211.824 220.234 211.824 217.877V192.268Z" stroke="#1E1E1E" stroke-width="5"/>
<path d="M269.017 192.268C269.017 189.911 270.928 188 273.286 188C275.643 188 277.554 189.911 277.554 192.268V217.877C277.554 220.234 275.643 222.145 273.286 222.145C270.928 222.145 269.017 220.234 269.017 217.877V192.268Z" stroke="#1E1E1E" stroke-width="5"/>
<path d="M326.21 192.268C326.21 189.911 328.121 188 330.478 188C332.836 188 334.746 189.911 334.746 192.268V217.877C334.746 220.234 332.836 222.145 330.478 222.145C328.121 222.145 326.21 220.234 326.21 217.877V192.268Z" stroke="#1E1E1E" stroke-width="5"/>
<path d="M383.402 192.268C383.402 189.911 385.313 188 387.671 188C390.028 188 391.939 189.911 391.939 192.268V217.877C391.939 220.234 390.028 222.145 387.671 222.145C385.313 222.145 383.402 220.234 383.402 217.877V192.268Z" stroke="#1E1E1E" stroke-width="5"/>
<path d="M432.175 226.413H400.885V228.06C400.885 228.219 400.891 228.386 400.898 228.555C400.928 229.384 400.96 230.268 400.282 230.664C399.086 231.364 395.919 232.135 387.814 232.194C379.719 232.253 376.62 231.475 375.484 230.743C374.845 230.331 374.9 229.485 374.953 228.673C374.968 228.451 374.982 228.231 374.982 228.023V226.413H343.692V228.06C343.692 228.219 343.699 228.386 343.705 228.554C343.735 229.384 343.767 230.268 343.089 230.664C341.893 231.364 338.726 232.135 330.621 232.194C322.526 232.253 319.427 231.475 318.291 230.743C317.652 230.331 317.707 229.485 317.761 228.673C317.775 228.451 317.789 228.231 317.789 228.023V226.413H286.5V228.06C286.5 228.219 286.506 228.385 286.513 228.554V228.555C286.543 229.385 286.575 230.268 285.897 230.664C284.7 231.364 281.534 232.135 273.429 232.194C265.334 232.253 262.234 231.475 261.099 230.743C260.46 230.331 260.515 229.485 260.568 228.673C260.583 228.451 260.597 228.231 260.597 228.023V226.413H229.306V228.06C229.306 228.22 229.312 228.386 229.318 228.555C229.349 229.385 229.381 230.268 228.703 230.664C227.506 231.364 224.34 232.135 216.235 232.194C208.14 232.253 205.04 231.475 203.904 230.743C203.266 230.331 203.321 229.485 203.374 228.673C203.389 228.45 203.403 228.231 203.403 228.023V226.413H172.114V228.06C172.114 228.219 172.12 228.386 172.126 228.555C172.157 229.384 172.189 230.268 171.511 230.664C170.314 231.364 167.147 232.135 159.043 232.194C150.948 232.253 147.848 231.475 146.712 230.743C146.074 230.331 146.129 229.485 146.182 228.673C146.197 228.45 146.211 228.231 146.211 228.023V226.413H100V241.778H499.495V226.413H458.078V228.06C458.078 228.22 458.084 228.386 458.09 228.555C458.12 229.385 458.152 230.268 457.474 230.664C456.278 231.364 453.111 232.135 445.007 232.194C436.911 232.253 433.812 231.475 432.676 230.743C432.037 230.331 432.092 229.485 432.146 228.673C432.16 228.45 432.175 228.231 432.175 228.023V226.413Z" stroke="#1E1E1E" stroke-width="5"/>
<path d="M440.595 192.268C440.595 189.911 442.506 188 444.863 188C447.22 188 449.131 189.911 449.131 192.268V217.877C449.131 220.234 447.22 222.145 444.863 222.145C442.506 222.145 440.595 220.234 440.595 217.877V192.268Z" stroke="#1E1E1E" stroke-width="5"/>
</svg>
