<svg width="600" height="600" viewBox="0 0 600 600" fill="none" xmlns="http://www.w3.org/2000/svg">
<path d="M124.432 247.927H499.416V402.623H124.432V247.927Z" fill="#FFE790"/>
<path d="M166.688 182.891C166.688 180.534 168.599 178.623 170.956 178.623C173.313 178.623 175.224 180.534 175.224 182.891V208.5C175.224 210.857 173.313 212.768 170.956 212.768C168.599 212.768 166.688 210.857 166.688 208.5V182.891Z" fill="#FFE790"/>
<path d="M223.88 182.891C223.88 180.534 225.791 178.623 228.148 178.623C230.505 178.623 232.416 180.534 232.416 182.891V208.5C232.416 210.857 230.505 212.768 228.148 212.768C225.791 212.768 223.88 210.857 223.88 208.5V182.891Z" fill="#FFE790"/>
<path d="M281.074 182.891C281.074 180.534 282.985 178.623 285.342 178.623C287.699 178.623 289.61 180.534 289.61 182.891V208.5C289.61 210.857 287.699 212.768 285.342 212.768C282.985 212.768 281.074 210.857 281.074 208.5V182.891Z" fill="#FFE790"/>
<path d="M338.267 182.891C338.267 180.534 340.178 178.623 342.535 178.623C344.892 178.623 346.803 180.534 346.803 182.891V208.5C346.803 210.857 344.892 212.768 342.535 212.768C340.178 212.768 338.267 210.857 338.267 208.5V182.891Z" fill="#FFE790"/>
<path d="M395.459 182.891C395.459 180.534 397.37 178.623 399.727 178.623C402.084 178.623 403.995 180.534 403.995 182.891V208.5C403.995 210.857 402.084 212.768 399.727 212.768C397.37 212.768 395.459 210.857 395.459 208.5V182.891Z" fill="#FFE790"/>
<path d="M444.231 217.036H412.942V218.682C412.942 218.842 412.948 219.009 412.954 219.177C412.984 220.007 413.017 220.891 412.339 221.287C411.142 221.986 407.975 222.757 399.871 222.817C391.776 222.876 388.676 222.098 387.54 221.366C386.901 220.954 386.957 220.108 387.01 219.295C387.024 219.073 387.039 218.854 387.039 218.646V217.036H355.749V218.682C355.749 218.842 355.755 219.008 355.761 219.177C355.791 220.007 355.824 220.891 355.146 221.287C353.949 221.986 350.782 222.757 342.678 222.817C334.583 222.876 331.483 222.098 330.347 221.366C329.708 220.954 329.764 220.108 329.817 219.295C329.831 219.073 329.846 218.854 329.846 218.646V217.036H298.557V218.682C298.557 218.842 298.563 219.008 298.569 219.176V219.178C298.599 220.008 298.631 220.891 297.953 221.287C296.757 221.986 293.59 222.757 285.486 222.817C277.391 222.876 274.291 222.098 273.155 221.366C272.516 220.954 272.572 220.108 272.625 219.295C272.639 219.073 272.654 218.854 272.654 218.646V217.036H241.363V218.682C241.363 218.842 241.369 219.009 241.375 219.178C241.405 220.008 241.437 220.891 240.759 221.287C239.563 221.986 236.396 222.757 228.292 222.817C220.196 222.876 217.097 222.098 215.961 221.366C215.322 220.954 215.377 220.108 215.431 219.295C215.445 219.073 215.46 218.854 215.46 218.646V217.036H184.17V218.682C184.17 218.842 184.176 219.009 184.183 219.177C184.213 220.007 184.245 220.891 183.567 221.287C182.371 221.986 179.204 222.757 171.099 222.817C163.004 222.876 159.904 222.098 158.769 221.366C158.13 220.954 158.185 220.108 158.238 219.295C158.253 219.073 158.267 218.854 158.267 218.646V217.036H112.056V232.401H511.551V217.036H470.134V218.682C470.134 218.842 470.14 219.009 470.146 219.178C470.177 220.008 470.209 220.891 469.531 221.287C468.334 221.986 465.167 222.757 457.063 222.817C448.968 222.876 445.868 222.098 444.732 221.366C444.094 220.954 444.149 220.108 444.202 219.295C444.217 219.073 444.231 218.854 444.231 218.646V217.036Z" fill="#FFE790"/>
<path d="M452.651 182.891C452.651 180.534 454.562 178.623 456.919 178.623C459.276 178.623 461.187 180.534 461.187 182.891V208.5C461.187 210.857 459.276 212.768 456.919 212.768C454.562 212.768 452.651 210.857 452.651 208.5V182.891Z" fill="#FFE790"/>
<path d="M112.376 257.304H487.359V412H112.376V257.304Z" stroke="#1E1E1E" stroke-width="5"/>
<path d="M154.631 192.268C154.631 189.911 156.542 188 158.9 188C161.257 188 163.168 189.911 163.168 192.268V217.877C163.168 220.234 161.257 222.145 158.9 222.145C156.542 222.145 154.631 220.234 154.631 217.877V192.268Z" stroke="#1E1E1E" stroke-width="5"/>
<path d="M211.824 192.268C211.824 189.911 213.735 188 216.092 188C218.449 188 220.36 189.911 220.36 192.268V217.877C220.36 220.234 218.449 222.145 216.092 222.145C213.735 222.145 211.824 220.234 211.824 217.877V192.268Z" stroke="#1E1E1E" stroke-width="5"/>
<path d="M269.017 192.268C269.017 189.911 270.928 188 273.286 188C275.643 188 277.554 189.911 277.554 192.268V217.877C277.554 220.234 275.643 222.145 273.286 222.145C270.928 222.145 269.017 220.234 269.017 217.877V192.268Z" stroke="#1E1E1E" stroke-width="5"/>
<path d="M326.21 192.268C326.21 189.911 328.121 188 330.478 188C332.836 188 334.746 189.911 334.746 192.268V217.877C334.746 220.234 332.836 222.145 330.478 222.145C328.121 222.145 326.21 220.234 326.21 217.877V192.268Z" stroke="#1E1E1E" stroke-width="5"/>
<path d="M383.402 192.268C383.402 189.911 385.313 188 387.671 188C390.028 188 391.939 189.911 391.939 192.268V217.877C391.939 220.234 390.028 222.145 387.671 222.145C385.313 222.145 383.402 220.234 383.402 217.877V192.268Z" stroke="#1E1E1E" stroke-width="5"/>
<path d="M432.175 226.413H400.885V228.06C400.885 228.219 400.891 228.386 400.898 228.555C400.928 229.384 400.96 230.268 400.282 230.664C399.086 231.364 395.919 232.135 387.814 232.194C379.719 232.253 376.62 231.475 375.484 230.743C374.845 230.331 374.9 229.485 374.953 228.673C374.968 228.451 374.982 228.231 374.982 228.023V226.413H343.692V228.06C343.692 228.219 343.699 228.386 343.705 228.554C343.735 229.384 343.767 230.268 343.089 230.664C341.893 231.364 338.726 232.135 330.621 232.194C322.526 232.253 319.427 231.475 318.291 230.743C317.652 230.331 317.707 229.485 317.761 228.673C317.775 228.451 317.789 228.231 317.789 228.023V226.413H286.5V228.06C286.5 228.219 286.506 228.385 286.513 228.554V228.555C286.543 229.385 286.575 230.268 285.897 230.664C284.7 231.364 281.534 232.135 273.429 232.194C265.334 232.253 262.234 231.475 261.099 230.743C260.46 230.331 260.515 229.485 260.568 228.673C260.583 228.451 260.597 228.231 260.597 228.023V226.413H229.306V228.06C229.306 228.22 229.312 228.386 229.318 228.555C229.349 229.385 229.381 230.268 228.703 230.664C227.506 231.364 224.34 232.135 216.235 232.194C208.14 232.253 205.04 231.475 203.904 230.743C203.266 230.331 203.321 229.485 203.374 228.673C203.389 228.45 203.403 228.231 203.403 228.023V226.413H172.114V228.06C172.114 228.219 172.12 228.386 172.126 228.555C172.157 229.384 172.189 230.268 171.511 230.664C170.314 231.364 167.147 232.135 159.043 232.194C150.948 232.253 147.848 231.475 146.712 230.743C146.074 230.331 146.129 229.485 146.182 228.673C146.197 228.45 146.211 228.231 146.211 228.023V226.413H100V241.778H499.495V226.413H458.078V228.06C458.078 228.22 458.084 228.386 458.09 228.555C458.12 229.385 458.152 230.268 457.474 230.664C456.278 231.364 453.111 232.135 445.007 232.194C436.911 232.253 433.812 231.475 432.676 230.743C432.037 230.331 432.092 229.485 432.146 228.673C432.16 228.45 432.175 228.231 432.175 228.023V226.413Z" stroke="#1E1E1E" stroke-width="5"/>
<path d="M440.595 192.268C440.595 189.911 442.506 188 444.863 188C447.22 188 449.131 189.911 449.131 192.268V217.877C449.131 220.234 447.22 222.145 444.863 222.145C442.506 222.145 440.595 220.234 440.595 217.877V192.268Z" stroke="#1E1E1E" stroke-width="5"/>
</svg>
