<svg width="153" height="158" viewBox="0 0 153 158" fill="none" xmlns="http://www.w3.org/2000/svg">
<path d="M134.191 4.55078H18.3566C15.5188 4.55078 13.2183 6.92698 13.2183 9.85819V94.2919C13.2183 97.2231 15.5188 99.5993 18.3566 99.5993H134.191C137.029 99.5993 139.33 97.2231 139.33 94.2919V9.85819C139.33 6.92698 137.029 4.55078 134.191 4.55078Z" fill="#FFD997"/>
<path d="M133.55 10.7317H19.002V84.945H133.55V10.7317Z" fill="white"/>
<path d="M133.548 10.4412H19.0019C18.8469 10.4412 18.7207 10.5715 18.7207 10.7316V84.9447C18.7207 85.1049 18.8469 85.2352 19.0019 85.2352H133.548C133.703 85.2352 133.829 85.1049 133.829 84.9447V10.7316C133.829 10.5715 133.703 10.4412 133.548 10.4412ZM19.2831 84.6535V11.0221H133.266V84.6535H19.2831Z" fill="black"/>
<path d="M94.3752 122.07H58.1719L61.6527 99.5999H90.8944L94.3752 122.07Z" fill="white"/>
<path d="M76.2746 95.8986C78.1715 95.8986 79.7097 94.3098 79.7097 92.3504C79.7097 90.3911 78.1715 88.8022 76.2746 88.8022C74.3773 88.8022 72.8394 90.3911 72.8394 92.3504C72.8394 94.3098 74.3773 95.8986 76.2746 95.8986Z" fill="white"/>
<path d="M76.2748 88.511C74.2251 88.511 72.5576 90.2325 72.5576 92.3504C72.5576 94.4684 74.2243 96.1899 76.2748 96.1899C78.3253 96.1899 79.9912 94.4684 79.9912 92.3504C79.9912 90.2325 78.3245 88.511 76.2748 88.511ZM79.428 92.3504C79.428 94.1465 78.0137 95.6082 76.2748 95.6082C74.5359 95.6082 73.1208 94.1465 73.1208 92.3504C73.1208 90.5543 74.5359 89.0927 76.2748 89.0927C78.0137 89.0927 79.428 90.5543 79.428 92.3504Z" fill="black"/>
<path d="M134.192 4.26001H18.3556C15.3673 4.26001 12.936 6.77122 12.936 9.85867V94.2933C12.936 97.3799 15.3673 99.8911 18.3556 99.8911H61.3207L57.9303 121.781H42.6908C42.3184 121.781 42.3184 122.362 42.6908 122.362H109.859C110.23 122.358 110.227 121.781 109.857 121.781H94.6132L91.2229 99.8911H134.193C137.182 99.8911 139.613 97.3799 139.613 94.2933V9.85867C139.613 6.77122 137.182 4.26001 134.193 4.26001H134.192ZM94.0447 121.78H58.5033L61.8937 99.8903H90.6544L94.0447 121.78ZM139.05 94.2925C139.05 97.058 136.871 99.3094 134.192 99.3094H18.3556C15.6781 99.3094 13.4984 97.0588 13.4984 94.2925V9.85867C13.4984 7.09307 15.6774 4.84169 18.3556 4.84169H134.192C136.87 4.84169 139.05 7.09229 139.05 9.85867V94.2925Z" fill="black"/>
<path d="M91.992 106.688L61.5273 100.408L61.6527 99.5999H90.8946L91.992 106.688Z" fill="black"/>
<path d="M128.145 77.1128H24.4038C24.0314 77.1128 24.0314 77.6937 24.4038 77.6937H128.145C128.517 77.6937 128.517 77.1128 128.145 77.1128Z" fill="black"/>
<path d="M92.7399 40.707L86.5809 39.1653L91.0717 27.3204C91.1743 27.0456 90.8665 26.8046 90.6393 26.9813L80.9896 34.5071L78.6419 23.2996C78.5834 23.0147 78.2019 22.9943 78.1046 23.2588L74.0591 34.2119L67.5984 25.2174C67.4289 24.9827 67.055 25.1295 67.0922 25.4278L68.4366 36.3981L62.0496 31.4377C61.8201 31.2611 61.5115 31.5107 61.6202 31.7808L64.5082 39.0726L59.0719 37.826C58.8052 37.7695 58.6296 38.0827 58.7907 38.2892L62.3962 43.0023C62.6242 43.3022 63.0711 42.945 62.8385 42.6405L59.7225 38.5694L64.911 39.7603C65.1398 39.8074 65.3191 39.5774 65.2333 39.3678L62.5284 32.5399L68.6297 37.2773C68.8311 37.4351 69.1085 37.2554 69.0781 37.0081L67.7846 26.4561L73.9102 34.9843C74.0379 35.1594 74.3183 35.1382 74.4011 34.9129L78.2916 24.379L80.5313 35.0738C80.5731 35.2842 80.8148 35.3729 80.9759 35.2458L90.1825 28.0669C85.8619 39.4643 85.8574 39.3254 85.9493 39.5036C86.0352 39.6779 85.6339 39.5264 91.9799 41.116C85.542 45.5489 85.9417 45.2168 85.9174 45.4154C85.8977 45.6258 85.8444 45.4853 91.552 51.6648L84.098 51.8053C83.8897 51.8085 83.7575 52.0345 83.8533 52.2292L89.6543 63.7907L77.771 56.4816C77.5795 56.3646 77.3241 56.5185 77.3469 56.7587L78.2718 67.4637L71.6856 56.4274C71.5792 56.2414 71.3125 56.2429 71.2069 56.4274L66.7342 63.994C67.2852 56.1896 67.302 56.7186 67.1302 56.5789C66.9607 56.4431 67.3027 56.3819 61.7631 58.32C64.8973 53.4648 64.7727 53.7286 64.7377 53.5582C64.7089 53.4114 64.5713 53.2968 64.4064 53.3298C64.2415 53.3643 64.5675 53.0127 60.8366 58.7094C60.6846 58.9418 60.9111 59.2369 61.1597 59.1459L66.6438 57.2265L66.0852 65.1488C66.0624 65.4463 66.4477 65.5821 66.6066 65.3215L71.444 57.1363L78.4147 68.8186C78.5629 69.0714 78.9703 68.9623 78.9421 68.642L77.961 57.276L90.2198 64.8151C90.4637 64.9659 90.7434 64.6895 90.6134 64.4328L84.5677 52.3831L92.2095 52.2379C92.4572 52.2347 92.5742 51.9246 92.4086 51.7465L86.6379 45.5002L92.8319 41.2353C93.0379 41.0909 92.9733 40.7682 92.7407 40.7101L92.7399 40.707Z" fill="black"/>
<path d="M73.3364 13.4282H23.3604V18.4232H73.3364V13.4282Z" fill="#81F8F8"/>
<path d="M73.3349 13.137H23.3603C23.2053 13.137 23.0791 13.2673 23.0791 13.4282V18.4224C23.0791 18.5825 23.2053 18.7128 23.3603 18.7128H73.3349C73.4899 18.7128 73.6161 18.5825 73.6161 18.4224V13.4282C73.6161 13.2673 73.4899 13.137 73.3349 13.137ZM73.0537 13.7186V18.1319H23.6423V13.7186H73.0544H73.0537Z" fill="black"/>
<path d="M61.1333 13.3894L23.3233 13.4286C23.3233 18.6143 23.2845 18.4621 23.3613 18.4621L61.1713 18.4228C61.1713 13.2371 61.21 13.3894 61.1333 13.3894Z" fill="black"/>
<path d="M129.19 13.4282H79.2144V18.4232H129.19V13.4282Z" fill="#81F8F8"/>
<path d="M129.188 13.137H79.2119C79.0568 13.137 78.9307 13.2673 78.9307 13.4282V18.4224C78.9307 18.5825 79.0568 18.7128 79.2119 18.7128H129.188C129.343 18.7128 129.469 18.5825 129.469 18.4224V13.4282C129.469 13.2673 129.343 13.137 129.188 13.137ZM128.907 13.7186V18.1319H79.4931V13.7186H128.907Z" fill="black"/>
<path d="M88.9134 13.3897C79.1763 13.3897 79.1763 13.3504 79.1763 13.4289C79.1763 18.6147 79.1375 18.4624 79.2143 18.4624C88.9514 18.4624 88.9514 18.5016 88.9514 18.4231C88.9514 13.2374 88.9902 13.3897 88.9134 13.3897Z" fill="black"/>
<path d="M61.269 123.188C67.783 128.025 69.0264 138.792 67.4608 152.272L70.82 153.289C70.82 153.289 77.4426 141.136 77.0786 129.429C76.8566 122.287 75.9066 117.874 69.6701 115.648C67.0815 114.724 64.2346 114.339 64.2346 114.339L61.2698 123.187L61.269 123.188Z" fill="white"/>
<path d="M25.813 118.397C19.8934 127.301 18.5839 139.029 18.4312 140.607C18.4137 140.782 18.4904 140.955 18.6295 141.056C19.2193 141.489 20.8198 141.976 20.8198 141.976C25.845 129.131 34.9406 118.331 41.6689 119.222L43.7012 110.097C35.1101 107.989 32.4174 108.462 25.8138 118.396L25.813 118.397Z" fill="white"/>
<path d="M42.3403 119.352C46.1289 120.254 46.8844 123.01 45.4183 127.126L50.2854 128.314C51.6754 123.788 55.3135 122.437 60.4686 123.646L42.3403 119.352Z" fill="#81F8F8"/>
<path d="M35.382 110.396C34.7193 112.512 34.7102 112.413 34.8151 112.575L35.667 113.899C35.7347 114.005 35.8601 114.056 35.9801 114.023C37.8756 113.519 37.8421 113.578 37.9159 113.391L38.6462 111.215C38.6987 111.084 38.6531 110.934 38.5398 110.854C38.1781 110.595 37.3641 110.186 35.6526 110.189C35.5295 110.189 35.4193 110.274 35.3813 110.395L35.382 110.396Z" fill="#81F8F8"/>
<path d="M38.7015 110.617C38.2417 110.288 37.3525 109.901 35.72 109.901C35.4228 109.901 35.2024 110.029 35.1135 110.309L34.5138 112.229C34.4386 112.468 34.5724 112.88 34.6567 113.012L35.5094 114.337C35.6128 114.499 35.7869 114.597 35.9761 114.6C36.0627 114.613 36.084 114.6 37.8655 114.129C38.0433 114.082 38.1869 113.949 38.2591 113.765L38.9834 111.603C39.0852 111.349 38.9713 110.809 38.7015 110.617ZM35.6485 110.487C35.6485 110.487 35.6554 110.482 35.6827 110.482L35.6934 110.48C37.2043 110.482 37.9886 110.814 38.3792 111.091C38.3792 111.091 38.3883 111.099 38.3792 111.119L37.6481 113.286L35.9016 113.739L35.0504 112.417L35.0481 112.406L35.6478 110.486L35.6485 110.487Z" fill="black"/>
<path d="M36.2863 119.3C36.7575 117.007 36.7568 117.163 36.6618 117.022L35.7817 115.717C35.7118 115.613 35.5849 115.567 35.4671 115.6C33.5283 116.357 33.5785 116.297 33.5154 116.468L32.9294 118.419C32.8808 118.552 32.9294 118.7 33.0427 118.779C33.4082 119.031 34.3073 119.56 36.0188 119.514C36.1427 119.511 36.2499 119.424 36.2863 119.3Z" fill="#81F8F8"/>
<path d="M36.8913 116.856L36.0112 115.551C35.8722 115.345 35.6221 115.253 35.3896 115.32C33.4295 116.084 33.3756 116.035 33.2464 116.382C32.6064 118.514 32.6087 118.429 32.6346 118.613C32.6498 118.876 32.801 119.185 32.9652 119.295C33.732 119.816 34.7185 120.09 35.8972 120.08C35.9763 120.08 36.4923 120.15 36.6344 119.657L37.0547 117.618C37.0973 117.422 36.9977 117.014 36.8913 116.856ZM36.4323 117.197L36.0128 119.219C35.0346 119.243 34.0155 119.087 33.1985 118.532C33.1985 118.532 33.1901 118.527 33.1985 118.503L33.7829 116.566L35.5492 115.881L36.4285 117.183L36.4323 117.197Z" fill="black"/>
<path d="M40.8539 114.361C38.8064 113.99 38.8307 113.942 38.6886 114.074L37.1405 115.002C37.0485 115.087 37.0174 115.221 37.0637 115.338C37.807 117.212 37.7424 117.185 37.9301 117.234L40.1167 117.669C40.2489 117.705 40.3865 117.638 40.4488 117.513C40.6487 117.108 40.999 116.171 41.0887 114.611C41.0963 114.484 40.9755 114.384 40.8539 114.362V114.361Z" fill="#81F8F8"/>
<path d="M41.2301 114.25C41.053 114.059 41.0036 114.096 38.9797 113.717C38.7228 113.669 38.7814 113.715 37.0007 114.751C36.895 114.812 36.7666 114.998 36.762 115.228C36.7575 115.464 36.7924 115.491 37.5517 117.441C37.6201 117.616 37.766 117.745 37.9552 117.795L40.1235 118.225C40.3781 118.3 40.6494 118.181 40.7779 117.919C40.9458 117.578 41.3464 116.601 41.4482 114.903C41.4566 114.764 41.411 114.424 41.2308 114.25L41.2301 114.25ZM40.8052 114.646C40.7049 116.199 40.3492 117.076 40.1995 117.382C40.1235 117.391 40.0521 117.36 37.997 116.948L37.326 115.23L38.833 114.323C38.9121 114.275 38.6499 114.246 40.8052 114.646Z" fill="black"/>
<path d="M31.9863 112.183C33.9136 112.849 33.8817 112.79 33.9342 112.997L34.7253 114.403C34.7565 114.525 34.7094 114.656 34.609 114.726C32.766 115.633 32.8223 115.644 32.6695 115.59L30.7771 114.968C30.6464 114.921 30.5681 114.789 30.5841 114.647C30.635 114.195 30.9405 113.236 31.6557 112.257C31.7302 112.155 31.8715 112.132 31.9863 112.183Z" fill="#81F8F8"/>
<path d="M35.0166 114.444C35.0128 114.377 35.0014 114.312 34.9694 114.253C34.0248 112.543 34.0833 112.623 33.8773 112.53L32.0883 111.911C31.8527 111.809 31.5791 111.883 31.4332 112.081C30.6534 113.151 30.3585 114.176 30.3076 114.612C30.2734 114.9 30.468 115.418 30.7697 115.52C32.6986 116.179 32.8483 116.276 33.1394 116.086C33.1644 116.074 34.8228 115.258 34.8456 115.243C35.0948 115.067 35.05 114.63 35.0166 114.445V114.444ZM31.8702 112.448C31.9462 112.471 32.2122 112.566 33.6622 113.07C33.6805 113.148 33.7747 113.29 34.4466 114.486C34.4146 114.501 32.7974 115.296 32.7677 115.316L30.87 114.694C30.8244 114.553 31.1436 113.453 31.8702 112.449V112.448Z" fill="black"/>
<path d="M68.2784 120.084C68.3528 119.289 67.4526 118.549 66.2677 118.43C65.0828 118.312 64.0621 118.861 63.9877 119.656C63.9134 120.45 64.8136 121.19 65.9984 121.309C67.1833 121.428 68.204 120.879 68.2784 120.084Z" fill="#81F8F8"/>
<path d="M67.9231 118.777C66.5019 117.604 63.7963 118.087 63.7051 119.679C63.4398 121.265 64.76 122.176 66.2154 122.176L66.226 122.175C67.2094 122.172 68.0386 121.766 68.3388 121.138C68.4718 120.859 68.544 120.45 68.5508 120.186C68.6215 119.733 68.4536 119.212 67.9231 118.777ZM64.8436 118.962C65.6188 118.542 66.8644 118.655 67.5712 119.236C68.1921 119.747 68.1382 120.405 67.426 120.788C66.628 121.214 65.3953 121.089 64.6984 120.514C64.0798 120.006 64.1261 119.349 64.8436 118.962Z" fill="black"/>
<path d="M74.9499 122.337C75.2167 121.588 74.5274 120.636 73.4102 120.212C72.293 119.788 71.1709 120.051 70.9041 120.801C70.6372 121.551 71.3266 122.502 72.4438 122.926C73.5611 123.351 74.6831 123.087 74.9499 122.337Z" fill="#81F8F8"/>
<path d="M74.9604 121.03C73.8934 119.475 71.1163 119.245 70.6368 120.723C70.5418 120.923 70.4422 121.286 70.4323 121.651C70.3951 122.911 71.8642 123.944 73.2998 123.944L73.3104 123.943C74.306 123.939 74.9049 123.48 75.1846 122.52C75.3997 122.018 75.2697 121.479 74.9604 121.03ZM71.9022 120.358C73.3029 120.011 75.0136 121.325 74.6861 122.246C74.4755 122.834 73.4928 123.025 72.5413 122.662C71.1194 122.122 70.541 120.678 71.9022 120.357V120.358Z" fill="black"/>
<path d="M70.798 124.705C71.0108 123.882 70.2317 122.953 69.0577 122.629C67.8837 122.305 66.7595 122.71 66.5467 123.532C66.3339 124.355 67.1132 125.284 68.2871 125.608C69.461 125.932 70.5852 125.528 70.798 124.705Z" fill="#81F8F8"/>
<path d="M68.9972 122.329C67.8337 122.06 66.4474 122.448 66.2544 123.584C66.1959 123.938 66.1465 124.182 66.2004 124.61C66.4649 126.691 69.9237 127.273 70.7878 125.739C70.9824 125.393 71.0424 124.998 71.0964 124.683C71.2696 123.677 70.3478 122.642 68.9972 122.329ZM68.2502 122.825C70.0856 122.825 71.1769 124.456 70.1464 125.159C69.736 125.441 69.1128 125.52 68.4744 125.371C67.0988 125.05 66.2415 123.765 67.2014 123.111C67.4704 122.927 67.8436 122.825 68.2502 122.825Z" fill="black"/>
<path d="M63.6639 113.759C56.9728 111.876 50.3114 110.465 44.4708 109.522C44.1159 109.465 43.78 109.702 43.7002 110.063L41.8268 118.504C41.7417 118.885 41.9719 119.264 42.3405 119.352L60.4688 123.646C60.8101 123.727 61.1543 123.529 61.2691 123.187L64.1297 114.675C64.2605 114.289 64.0461 113.866 63.6639 113.759Z" fill="#81F8F8"/>
<path d="M77.3558 129.419C77.1347 122.356 76.2257 117.681 69.7589 115.375C67.4568 114.555 64.9215 114.149 64.3758 114.067C64.258 113.77 64.0186 113.56 63.7359 113.48C57.4674 111.719 50.8197 110.252 44.5132 109.236C44.1598 109.181 43.8186 109.331 43.6096 109.603C35.0786 107.521 32.2726 108.163 25.5808 118.23C19.5776 127.259 18.2788 139.24 18.1503 140.576C18.123 140.854 18.2438 141.128 18.465 141.291C19.0532 141.723 20.5215 142.185 20.7161 142.245C21.4107 142.524 24.2592 141.905 25.6895 139.994C27.5485 137.507 32.0834 131.942 33.1618 131.104C34.2692 130.245 34.4166 129.989 37.0986 130.401C39.8658 130.824 58.0458 134.343 59.4077 134.814C61.0166 135.37 61.3996 135.503 61.8534 137.561C62.1361 138.838 62.7106 142.658 63.5907 148.91C63.9244 151.28 67.846 153.037 70.1161 153.469C70.6542 153.561 71.1421 153.29 71.3762 152.83C72.8589 149.896 77.672 139.537 77.3574 129.42L77.3558 129.419ZM44.957 120.27L56.3654 122.972C53.2342 123.222 51.1275 124.901 50.1 127.969L45.79 126.918C46.5903 124.524 46.8525 121.89 44.9563 120.269L44.957 120.27ZM44.3642 109.804C45.2185 109.804 55.192 111.681 63.5877 114.041C63.7883 114.096 63.9137 114.303 63.8757 114.516L61.0006 123.092C60.9376 123.279 60.7559 123.411 60.5332 123.359L42.5045 119.089C42.1496 119.005 42.0478 118.792 42.0979 118.568L43.9713 110.127C44.0139 109.94 44.178 109.803 44.3642 109.803V109.804ZM18.7082 140.633C18.8358 139.311 20.1256 127.462 26.0422 118.56C32.5622 108.755 35.1941 108.156 43.3907 110.149C41.4968 118.678 41.5226 118.481 41.5272 118.689C37.4817 118.416 33.2409 122.082 30.4996 125.146C26.7087 129.386 23.12 135.388 20.6507 141.618C19.9979 141.4 19.1573 141.087 18.7872 140.816C18.7317 140.776 18.7013 140.706 18.7082 140.633ZM70.8784 152.561C70.7507 152.812 70.4854 152.947 70.2141 152.897C69.3006 152.722 68.4988 152.462 67.7639 152.101C69.48 137.079 67.4637 127.585 61.6026 123.081L64.4229 114.664C65.1312 114.773 67.4462 115.164 69.5772 115.925C75.4239 118.01 76.5639 121.945 76.7965 129.44C77.105 139.428 72.3452 149.662 70.8784 152.561Z" fill="black"/>
<path d="M44.737 114.827L45.1907 112.308C45.2553 111.95 45.5836 111.709 45.9317 111.768C50.972 112.633 56.1803 113.788 61.1955 115.128C61.5657 115.227 61.7716 115.638 61.6371 116.008L60.6803 118.661C60.5671 118.976 60.2455 119.154 59.9286 119.08L45.2287 115.598C44.8913 115.517 44.6739 115.177 44.7362 114.825L44.737 114.827Z" fill="#FFD997"/>
<path d="M61.2675 114.849C56.2964 113.517 51.0098 112.353 45.9794 111.483C45.4869 111.402 45.0081 111.744 44.9154 112.255L44.4632 114.776C44.372 115.283 44.682 115.771 45.1684 115.885L59.8684 119.368C60.3092 119.474 60.7826 119.223 60.9476 118.768L61.9044 116.114C62.0952 115.577 61.7972 114.992 61.2675 114.849ZM61.3739 115.91L60.4171 118.565C60.354 118.743 60.1716 118.845 59.9922 118.801L45.2931 115.319C45.1008 115.272 44.9792 115.081 45.0149 114.882L45.4641 112.361C45.499 112.17 45.6746 112.025 45.8836 112.056C50.8768 112.919 56.1474 114.078 61.1231 115.411C61.3329 115.47 61.4476 115.697 61.3739 115.91Z" fill="black"/>
<path d="M43.6842 122.194C43.7876 120.99 42.4357 119.882 40.6647 119.72C38.8936 119.557 37.3741 120.402 37.2707 121.606C37.1673 122.811 38.5191 123.917 40.2902 124.08C42.0612 124.242 43.5808 123.398 43.6842 122.194Z" fill="white"/>
<path d="M40.9696 116.121C39.0475 115.945 37.3945 116.902 37.2775 118.259C37.1893 119.288 38.0086 120.251 39.2482 120.734C39.2664 121.296 39.1334 121.87 38.8628 122.455C39.9496 122.987 40.9916 123.088 41.9887 122.741C41.7759 122.193 41.7341 121.605 41.893 120.971C43.1872 120.719 44.1517 119.922 44.2398 118.897C44.3561 117.54 42.8924 116.298 40.9703 116.122L40.9696 116.121Z" fill="white"/>
<path d="M40.9927 115.826C39.2417 115.662 37.1479 116.478 36.9944 118.229C36.888 119.456 37.8502 120.44 38.9689 120.929C38.9544 121.377 38.8351 121.841 38.6094 122.329C38.5418 122.47 38.5988 122.648 38.7416 122.717C39.8155 123.243 40.9601 123.41 42.0803 123.018C42.2338 122.965 42.3106 122.789 42.2521 122.633C42.0757 122.177 42.0347 121.708 42.1297 121.213C43.3009 120.933 44.412 120.15 44.5199 118.918C44.6499 117.403 43.0683 116.017 40.9935 115.827L40.9927 115.826ZM41.6258 122.547C40.8681 122.742 40.0618 122.661 39.2326 122.305C39.3899 121.908 39.4849 121.514 39.5168 121.127C40.1757 121.323 40.8742 121.384 41.5437 121.312C41.4898 121.734 41.5171 122.147 41.6266 122.546L41.6258 122.547ZM43.9575 118.867C43.7941 120.785 40.2259 121.474 38.3251 119.863C37.7817 119.401 37.5089 118.839 37.5553 118.282C37.7187 116.364 41.2618 115.699 43.1565 117.254C43.7219 117.719 44.0069 118.291 43.9575 118.867Z" fill="black"/>
<path d="M61.3493 126.217C61.4527 125.013 60.1008 123.906 58.3297 123.744C56.5587 123.581 55.0392 124.426 54.9357 125.629C54.8323 126.834 56.1842 127.941 57.9553 128.104C59.7263 128.265 61.2459 127.422 61.3493 126.217Z" fill="white"/>
<path d="M58.6351 120.143C56.7123 119.967 55.06 120.924 54.943 122.281C54.8548 123.31 55.6741 124.273 56.9137 124.756C56.9319 125.319 56.7988 125.893 56.5283 126.478C57.6151 127.01 58.6578 127.111 59.6542 126.764C59.4414 126.215 59.3996 125.627 59.5584 124.994C60.8527 124.741 61.8164 123.944 61.9046 122.92C62.0209 121.562 60.5571 120.319 58.6351 120.143Z" fill="white"/>
<path d="M61.2441 120.891C59.8518 119.674 57.4966 119.492 55.972 120.378C53.9755 121.533 54.2871 123.911 56.634 124.947C56.6203 125.396 56.501 125.861 56.2745 126.349C56.2099 126.487 56.2608 126.668 56.4075 126.738C57.4692 127.258 58.6153 127.433 59.7462 127.039C59.8997 126.985 59.9757 126.81 59.9179 126.655C59.7409 126.198 59.6998 125.728 59.7948 125.232C62.1987 124.651 63.0043 122.428 61.2441 120.892V120.891ZM59.294 126.568C58.5332 126.762 57.7284 126.681 56.9007 126.326C57.0581 125.929 57.1531 125.535 57.185 125.148C57.8089 125.335 58.5135 125.411 59.2111 125.333C59.1564 125.756 59.1838 126.169 59.294 126.568ZM61.6234 122.889C61.4592 124.812 57.9169 125.472 56.0229 123.914C54.1693 122.389 55.6939 120.189 58.6085 120.427C60.3739 120.589 61.7267 121.694 61.6234 122.889Z" fill="black"/>
<path d="M72.4422 117.566C72.5591 116.776 71.7001 115.986 70.5234 115.8C69.3467 115.614 68.298 116.103 68.1811 116.892C68.0642 117.682 68.9232 118.473 70.0999 118.659C71.2765 118.845 72.3253 118.356 72.4422 117.566Z" fill="#81F8F8"/>
<path d="M70.5665 115.515C69.447 115.335 68.0692 115.746 67.9042 116.85C67.8662 117.105 67.8092 117.381 67.883 117.819C68.1968 119.7 71.607 120.144 72.4422 118.618C72.5912 118.351 72.6786 117.973 72.7052 117.695C72.9408 116.59 71.7863 115.708 70.5665 115.515ZM69.0731 116.246C70.3659 115.638 72.3107 116.539 72.164 117.525C72.0174 118.517 69.8992 118.763 68.8444 117.787C68.2485 117.237 68.345 116.586 69.0731 116.246Z" fill="black"/>
<path d="M41.255 53.8929C41.255 53.8929 43.3861 56.9583 47.8374 57.8579C50.5141 57.0242 51.8867 55.8169 53.6103 54.36C53.6103 54.36 53.7722 49.5361 53.624 47.3389L41.5453 47.9355C41.5453 47.9355 41.1593 53.126 41.255 53.8929Z" fill="#81F8F8"/>
<path d="M55.195 48.4791C55.195 48.4791 55.0787 50.3796 55.9641 51.4386C56.8495 52.4975 58.6431 52.4488 60.8539 52.3531C63.0648 52.2573 63.672 51.415 64.9519 50.2854C66.2317 49.1558 68.3057 47.231 69.9124 47.0857C69.9124 47.0857 70.1921 45.9561 65.9535 45.6664C63.482 45.4977 62.1581 45.6178 60.9003 45.018C59.6425 44.4183 58.2091 43.8107 57.2439 44.2958C56.3357 44.7519 56.0925 45.4796 56.0925 45.4796L55.195 48.4791Z" fill="white"/>
<path d="M59.2821 44.4156C57.5356 45.2438 56.939 47.3153 57.0918 49.2087C57.2035 50.5903 58.0122 50.6586 58.5753 50.7159C59.2365 50.7834 60.052 50.7677 60.7862 50.7355C62.3989 50.6649 63.0791 49.7582 63.9797 48.9136C64.8803 48.0689 65.9747 46.6261 67.8154 45.9039C65.6129 45.4636 63.5343 45.6213 62.2332 45.3991C60.9131 45.1738 60.3773 44.5694 59.2814 44.4148L59.2821 44.4156Z" fill="#81F8F8"/>
<path d="M65.1074 50.2761C65.1074 50.2761 67.8677 47.421 69.8232 47.0693C69.8232 47.0693 71.2513 47.6785 71.5925 48.0302C71.9337 48.3819 72.0272 49.8577 71.9649 50.4338C71.9026 51.01 70.7231 51.7165 70.7231 51.7165C70.7231 51.7165 70.4745 52.8077 70.0413 52.967C69.6081 53.1264 68.4894 52.6475 68.4894 52.6475L66.689 52.4874C66.689 52.4874 66.6267 51.2691 66.1935 51.0446C65.7603 50.8201 65.5725 50.7879 65.1082 50.2753L65.1074 50.2761Z" fill="#FFD997"/>
<path d="M40.3952 50.8618C40.3952 50.8618 39.3479 50.9717 38.8509 50.7559C38.3538 50.54 38.2748 50.2692 37.2526 49.9975C36.2304 49.7259 36.2578 49.0508 36.0472 47.5609C35.8367 46.071 35.9948 45.5843 36.4402 44.7459C36.8855 43.9067 36.9896 43.8526 36.938 42.3093C36.8863 40.7659 37.514 39.7918 38.6411 38.9801C39.7682 38.1684 42.3096 37.8159 42.3096 37.8159L52.005 38.0294C52.005 38.0294 54.3967 38.0294 54.9165 39.8569C55.4364 41.6844 56.0086 42.6507 56.4768 42.9184C56.945 43.1861 57.3082 43.8314 57.4648 44.1548C57.6214 44.4782 56.2678 44.3165 56.1135 45.1753C55.9585 46.0341 56.8416 45.8198 56.4768 46.6794C56.112 47.5389 55.2798 48.3451 55.2798 48.3451C55.2798 48.3451 55.1757 49.9026 55.4364 50.3861C55.4364 50.3861 54.8116 51.1389 53.772 50.602L53.6678 49.3122C53.6678 49.3122 52.7323 49.6875 52.2641 49.3122C51.796 48.937 51.9525 47.9699 51.9525 47.9699H50.808C50.808 47.9699 51.6394 45.6596 51.796 45.3378C51.9525 45.0159 53.4087 43.7803 53.4087 43.7803C53.4087 43.7803 43.9444 43.5645 42.5392 43.5645C41.1339 43.5645 40.1991 43.7262 39.471 45.1219C38.7977 46.4132 38.7232 49.4575 40.3967 50.8626L40.3952 50.8618Z" fill="#FFD997"/>
<path d="M40.0945 55.9351C40.0945 55.9351 42.6861 58.5405 46.5621 59.674C46.5621 59.674 44.7966 65.7342 44.3026 69.2714C44.3026 69.2714 37.7012 69.0163 33.2051 66.7579C34.8436 62.1821 36.923 58.2563 40.0945 55.9351Z" fill="#81F8F8"/>
<path d="M54.5769 55.8459C54.5769 55.8459 52.6633 58.1743 48.9985 59.588C49.8315 61.1314 51.7292 64.1983 52.968 68.2458C52.9224 68.2623 57.5881 67.2646 61.3014 64.6238C59.2015 60.7122 57.0051 57.4811 54.5769 55.8459Z" fill="#81F8F8"/>
<path d="M57.8692 44.0636C57.1632 42.1026 56.217 43.4465 55.6698 41.0287C55.2548 39.1856 53.8207 37.5457 51.8911 37.8385C51.5308 37.8919 51.5878 38.4587 51.9709 38.4147C52.8213 38.2891 54.5648 38.7012 55.1218 41.1622C55.4707 42.6953 56.0065 42.9889 56.48 43.2479C57.5136 43.8155 57.1282 44.3948 57.604 44.4561C57.7993 44.4561 57.9361 44.2551 57.8677 44.0636H57.8692Z" fill="black"/>
<path d="M53.9103 49.2751C53.889 48.9006 53.3243 48.9226 53.3502 49.3135C53.4779 51.2438 53.3654 53.6962 53.338 54.2151C51.5178 55.7278 50.3467 56.7593 47.8219 57.5568C43.9725 56.7538 41.9183 54.2904 41.5284 53.7794C41.4744 53.1773 41.6469 51.7266 41.6963 51.4385C41.7617 51.0586 41.1963 50.9691 41.1385 51.3561C41.0845 51.7305 40.8193 53.7551 41.0283 54.0628C41.2571 54.387 43.3873 57.253 47.7786 58.1409C47.8151 58.1526 47.8843 58.1495 47.9215 58.1369C50.564 57.3143 51.9852 56.1187 53.6283 54.7238C53.7826 54.5927 53.886 54.5338 53.8943 54.3729C53.9111 54.0706 54.0509 51.3647 53.9111 49.2759L53.9103 49.2751Z" fill="black"/>
<path d="M53.493 51.0377C53.1921 51.2819 50.5761 53.3629 48.1472 54.1118L48.1677 51.4805C49.6467 51.0809 51.2024 50.1742 52.2573 49.4764C52.5711 49.273 52.2687 48.7761 51.954 48.9881C50.9812 49.6357 49.5524 50.4741 48.173 50.8791L48.1829 49.5965C48.1867 49.2087 47.6197 49.2087 47.6197 49.5917L47.6099 50.8407C46.9859 50.6758 46.2966 50.4074 45.5541 50.0376C45.2288 49.8712 44.9673 50.3893 45.3093 50.5612C46.1408 50.9749 46.9114 51.2693 47.6053 51.4381L47.5848 54.1314C45.0145 53.4956 42.1341 51.2457 42.0087 51.1468C41.7183 50.9137 41.3642 51.3674 41.6735 51.6123C42.0087 51.8745 44.943 54.122 47.5802 54.7264C47.5536 58.1263 47.5225 57.9387 47.6365 58.0595C47.8143 58.2456 48.1191 58.1129 48.1191 57.857L48.1434 54.717C50.7813 53.9666 53.5386 51.7434 53.8517 51.4867C54.1436 51.2442 53.7925 50.7897 53.4938 51.0369L53.493 51.0377Z" fill="black"/>
<path d="M43.9557 60.9491C40.3868 59.9325 37.9008 58.0312 37.8765 58.0124C37.5793 57.7808 37.2396 58.2487 37.5391 58.4779C39.8107 60.2033 43.4412 61.5198 43.8813 61.5198C44.2081 61.5198 44.2704 61.0401 43.9565 60.9491H43.9557Z" fill="black"/>
<path d="M43.1571 63.359C39.0561 62.5952 36.0602 60.7913 36.0313 60.7724C35.7167 60.5754 35.4203 61.0794 35.7433 61.2733C35.7721 61.2913 38.8235 63.1455 43.0552 63.932C43.1981 63.9619 43.3562 63.8622 43.3843 63.6973C43.4124 63.5403 43.3106 63.388 43.1571 63.359Z" fill="black"/>
<path d="M42.5523 66.0837C38.2127 65.6684 34.5069 63.7287 34.4704 63.7091C34.1375 63.5372 33.8845 64.0545 34.2173 64.228C34.3747 64.3096 38.1344 66.2454 42.5067 66.6638C42.8965 66.6638 42.9026 66.1182 42.5523 66.0837Z" fill="black"/>
<path d="M56.6297 57.2703C56.524 57.1549 56.3469 57.147 56.2322 57.2538C55.2959 58.1471 53.7493 59.4369 51.7041 60.5139C51.4487 60.6489 51.5308 61.0516 51.8211 61.0626L51.8325 61.0642C51.8774 61.0642 51.9199 61.054 51.961 61.0336C54.0609 59.9267 55.65 58.5993 56.6145 57.6808C56.7262 57.5725 56.733 57.3888 56.6297 57.2703Z" fill="black"/>
<path d="M58.2845 59.6394C57.1468 60.5053 55.2985 61.7409 52.9577 62.7088C52.814 62.7684 52.7441 62.938 52.8011 63.0863C52.8627 63.2441 53.0344 63.3054 53.1667 63.2481C55.5515 62.2645 57.447 60.9975 58.6174 60.1081C58.9199 59.882 58.5839 59.4094 58.2845 59.6394Z" fill="black"/>
<path d="M60.0549 62.3207C58.7005 63.2273 56.5627 64.4723 54.0759 65.2518C53.7203 65.3665 53.8837 65.9238 54.2424 65.8061C56.7846 65.0101 58.9741 63.7368 60.3634 62.8089C60.6712 62.5993 60.3725 62.1126 60.0549 62.3207Z" fill="black"/>
<path d="M55.7048 50.5149C55.6136 50.3932 55.4389 50.3603 55.3104 50.4631C54.8187 50.8579 54.3475 50.6499 53.9462 50.4254C53.8991 50.3987 53.8565 50.3744 53.8223 50.3579C53.4803 50.193 53.247 50.7214 53.5807 50.8839C53.7023 50.9396 54.1583 51.2661 54.7214 51.2661C55.204 51.2661 55.9997 50.9074 55.7048 50.5149Z" fill="black"/>
<path d="M49.3705 32.8955C53.2875 31.3553 51.6535 28.078 53.2647 25.8274C53.6022 25.3564 54.1448 25.0008 54.7969 25.0102C54.4526 25.4843 54.0346 26.1508 53.9275 26.8071C53.5954 28.83 54.0878 30.7493 53.6037 32.2832C53.1887 33.5989 52.2729 34.6469 50.1525 35.1846C48.4737 35.6108 47.9607 33.4497 49.3705 32.8955Z" fill="white"/>
<path d="M54.7784 24.719C54.0982 24.719 53.4652 25.0589 53.0388 25.6547C51.3585 28.0042 53.0153 31.1584 49.2707 32.6248C47.5281 33.3069 48.2113 35.983 50.2215 35.4665C52.2051 34.9593 53.3656 33.9765 53.8725 32.372C54.3544 30.8491 53.893 28.7476 54.2054 26.855C54.2829 26.3832 54.5497 25.8376 55.0232 25.1845C55.1676 24.9828 55.0201 24.7049 54.7784 24.719ZM50.087 34.9036C48.7212 35.2404 48.4112 33.5832 49.4706 33.1695C51.7035 32.2927 52.2894 30.9621 52.6527 28.6009C52.8245 27.483 53.1065 25.9044 54.1796 25.4287C52.3092 28.5647 55.692 33.4765 50.087 34.9036Z" fill="black"/>
<path d="M45.866 40.2846C46.1046 39.4619 46.5842 37.9798 47.1268 37.3C47.1268 37.3 46.9042 39.3245 47.0866 40.5625C48.697 40.798 50.4701 40.575 52.3207 40.1315C51.5934 38.7318 51.8708 37.0017 51.9969 35.5016C52.3199 31.6692 50.2261 29.8095 46.8502 30.5066C45.008 30.8873 44.3779 32.2697 44.0618 33.7353C43.7099 35.3689 43.7175 36.8565 42.0303 37.1995C43.0859 38.8559 44.3908 39.8136 45.866 40.2846Z" fill="#81F8F8"/>
<path d="M52.5721 39.995C51.8934 38.6856 52.1511 37.041 52.2803 35.5268C52.623 31.5233 50.3856 29.4854 46.7976 30.2225C44.6674 30.6621 44.0487 32.2172 43.6467 34.4019C43.4035 35.7128 43.2264 36.6603 41.9785 36.9131C41.7778 36.9531 41.6904 37.1918 41.7976 37.3574C42.8388 38.9894 44.143 40.0374 45.7861 40.561C45.9168 40.6049 46.0863 40.5374 46.138 40.3679C46.2801 39.8788 46.4959 39.1919 46.7528 38.5789C46.7163 39.418 46.7361 40.1002 46.8098 40.6065C46.8303 40.7345 46.9261 40.8326 47.0492 40.8514C48.7964 41.1097 50.6774 40.8263 52.3874 40.4158C52.5744 40.3694 52.658 40.1544 52.5721 39.995ZM47.4087 37.3315C47.4391 37.0387 47.0864 36.8927 46.9116 37.1133C46.4085 37.7452 45.9677 38.9769 45.6835 39.9141C44.4006 39.4431 43.3556 38.6118 42.49 37.3723C45.2282 36.3918 43.1352 31.5688 46.9071 30.7917C50.0824 30.137 52.0318 31.8184 51.7179 35.4742C51.591 36.9531 51.3584 38.5443 51.917 39.9275C50.09 40.3396 48.6315 40.4581 47.341 40.3035C47.2172 39.1103 47.4064 37.3495 47.4087 37.3323V37.3315Z" fill="black"/>
<path d="M48.9929 32.915C45.9187 30.0647 48.489 27.6241 47.7716 24.9394C47.6203 24.3735 47.2882 23.7737 46.6756 23.5398C47.6515 27.121 42.4538 31.1402 47.4653 34.7598C48.869 35.774 50.1253 33.9654 48.9929 32.915Z" fill="white"/>
<path d="M49.18 32.7008C46.2274 29.9604 48.7985 27.6846 48.0438 24.8626C47.9192 24.4002 47.5886 23.5783 46.7731 23.2682C46.5596 23.185 46.343 23.393 46.4053 23.6207C47.3196 26.9758 42.1219 31.258 47.3044 34.9993C49.0007 36.2207 50.5708 33.9882 49.18 32.7008ZM47.6281 34.5228C43.138 31.2784 47.3028 27.8668 47.0596 24.1498C47.3203 24.4394 47.448 24.8115 47.5027 25.018C48.1875 27.5849 45.6035 30.1652 48.8061 33.1318C49.6558 33.9168 48.7795 35.3407 47.6281 34.5228Z" fill="black"/>
<path d="M49.8861 35.4513C49.5426 35.5605 49.4499 35.887 49.6809 36.1704C50.0457 36.6147 50.8764 36.6265 51.0018 36.1822C51.1325 35.723 50.4044 35.2849 49.8861 35.4513Z" fill="black"/>
<path d="M51.3534 31.553C51.8018 32.0381 52.1643 32.7532 52.4805 34.0053L52.0595 34.3303C52.0595 34.3303 51.7547 32.4691 51.228 31.783L51.3534 31.553Z" fill="black"/>
<path d="M52.0596 34.3697L52.0452 34.3674C52.0323 34.3619 52.0239 34.3509 52.0224 34.3375C52.0186 34.3187 51.7138 32.4779 51.1985 31.8075C51.1887 31.7949 51.1871 31.7776 51.1947 31.7635L51.3201 31.5335C51.3331 31.51 51.3658 31.5068 51.381 31.5257C51.8689 32.0524 52.2192 32.8139 52.5171 33.9953C52.5209 34.011 52.5149 34.0275 52.5027 34.0369L52.0817 34.3619C52.0748 34.3674 52.0672 34.3697 52.0596 34.3697ZM51.2738 31.7792C51.7427 32.4159 52.0277 33.9278 52.0862 34.2606L52.4374 33.9898C52.1508 32.8649 51.818 32.1301 51.3612 31.6183L51.2738 31.7792Z" fill="black"/>
<path d="M42.2723 37.5293C41.2486 37.7279 39.4999 38.0089 38.4815 38.7437C37.1674 39.6888 36.6043 40.7917 36.6582 42.3209C36.7031 43.6625 36.6385 43.7771 36.2942 44.42C35.7493 45.4366 35.5357 45.9186 35.7698 47.604C35.9697 49.0429 35.959 49.9551 37.1841 50.2793C38.7528 50.6953 38.2899 51.3563 40.4263 51.149C40.7805 51.1169 40.7615 50.5509 40.3701 50.5721C38.4526 50.7777 39.0583 50.1725 37.324 49.7141C36.469 49.488 36.5374 48.9542 36.3269 47.5184C36.1179 46.0316 36.2782 45.6438 36.7867 44.7026C37.1887 43.9584 37.2708 43.7496 37.2206 42.2989C37.1743 40.9731 37.6477 40.0523 38.8029 39.2194C39.8099 38.4933 42.0861 38.1432 42.3468 38.1047C42.7109 38.0552 42.6455 37.4806 42.2723 37.5293Z" fill="black"/>
<path d="M42.8084 41.2614C42.6792 40.905 42.1495 41.1036 42.2825 41.4725C42.3258 41.595 42.6891 42.6979 42.3623 43.53C42.2194 43.8848 42.7461 44.1039 42.8852 43.7475C43.3244 42.6281 42.8137 41.2747 42.8084 41.2614Z" fill="black"/>
<path d="M48.5532 41.9589C48.5023 41.5829 47.9482 41.6559 47.9961 42.0366C48.044 42.4158 48.0797 43.0508 48.0083 43.2761C47.952 43.4551 48.0706 43.6482 48.2629 43.6584C48.7447 43.7251 48.6155 42.4574 48.5539 41.9589H48.5532Z" fill="black"/>
<path d="M53.4156 41.543C53.332 41.1639 52.7833 41.295 52.8646 41.6679C52.933 41.9873 53.0782 42.9976 52.8593 43.4286C52.7635 43.617 52.892 43.8541 53.1086 43.8541C53.6923 43.8541 53.5479 42.1663 53.4156 41.543Z" fill="black"/>
<path d="M33.6517 73.9439C33.8744 74.3646 36.4287 75.0523 36.6506 74.4416C36.8726 73.8308 39.1693 71.4193 39.1693 71.4193L33.7634 70.0432C33.7634 70.0432 33.429 73.5231 33.6517 73.9439Z" fill="#FFD997"/>
<path d="M31.2427 78.8015C31.2427 78.8015 28.8753 80.2537 30.6514 81.4391C32.8866 82.9306 34.5388 80.713 34.5388 80.713C34.2796 78.6092 33.0971 78.1185 31.2427 78.8015Z" fill="#FFD997"/>
<path d="M59.7504 68.9146C57.8595 69.9672 56.0591 70.6682 54.3096 71.162L56.1951 73.9346C56.7393 74.3836 58.7693 73.8969 59.9313 73.2611C60.0757 72.2869 59.7504 68.9153 59.7504 68.9153V68.9146Z" fill="#FFD997"/>
<path d="M61.8206 79.7789C61.3858 78.9923 60.0779 79.143 59.425 79.3675C58.7722 79.592 57.8648 80.0034 57.7568 80.3033C57.6489 80.6031 57.9742 81.2013 58.3375 81.5773C58.7008 81.9533 60.1516 81.7265 61.3121 81.5773C62.4726 81.4282 62.256 80.5654 61.8206 79.7789Z" fill="#FFD997"/>
<path d="M62.7535 67.0624C60.8482 62.6727 58.404 58.1127 53.4587 54.5017C53.1608 54.2819 52.8287 54.7505 53.1334 54.9774C53.5096 55.2521 53.8714 55.5324 54.2187 55.8181C53.7179 56.3582 51.8901 58.1637 48.8987 59.3184C48.7467 59.3742 48.6639 59.5712 48.7513 59.7329C50.0304 62.0871 51.6606 64.6227 52.6934 68.3224C52.7299 68.4543 52.8424 68.5382 52.951 68.5382C53.2824 68.5382 55.2295 67.9165 55.8428 67.6991C57.2724 67.1896 59.3366 66.3214 61.2077 65.0419C61.5375 65.7209 61.8468 66.3991 62.1417 67.0742C58.873 69.2699 55.2964 70.7151 51.5093 71.3713C49.8449 66.1393 48.1881 63.8243 48.1182 63.7278C47.9882 63.548 47.7131 63.581 47.6295 63.7945C46.754 66.0733 46.5465 69.7652 46.5024 71.7905C42.2685 71.7905 37.6264 70.9215 32.7107 69.2071C32.865 68.4935 33.0474 67.7925 33.2572 67.1048C37.7389 69.2785 44.23 69.5603 44.2946 69.5611C44.8456 69.5674 43.9967 69.4732 46.8323 59.7564C46.8764 59.6049 46.7943 59.4354 46.6392 59.393C43.2892 58.4157 40.902 56.3009 40.3753 55.8055C40.8184 55.3887 41.2797 54.9813 41.7578 54.5833C42.0473 54.3392 41.6954 53.8933 41.4036 54.1304C36.4689 58.2359 33.3408 63.3533 32.1058 69.3389C32.0776 69.4842 32.1567 69.6278 32.2904 69.6741C37.0336 71.3525 41.7722 72.3965 46.7859 72.3722C46.9394 72.3722 47.0626 72.2442 47.0648 72.0857C47.0945 70.2511 47.2526 66.8521 47.9715 64.5465C48.5111 65.4383 49.8016 67.7988 51.0503 71.7905C51.0928 71.9263 51.2274 72.0072 51.3619 71.9875C55.3929 71.325 59.1922 69.7903 62.6532 67.4251C62.768 67.3458 62.8105 67.1943 62.7543 67.0632L62.7535 67.0624ZM60.9478 64.5206C57.8842 66.637 54.2636 67.6363 53.1547 67.9063C52.0451 64.3872 50.592 61.9183 49.4026 59.7392C52.3962 58.5114 54.1739 56.7177 54.6565 56.1871C57.587 58.714 59.481 61.6059 60.9478 64.5206ZM39.9588 56.2035C40.4255 56.6541 42.7572 58.7838 46.2121 59.8695C45.8093 61.288 44.5226 65.9328 44.0613 68.9669C42.8886 68.897 37.3482 68.4723 33.4327 66.5483C34.7171 62.6578 36.9029 59.1928 39.9588 56.2035Z" fill="black"/>
<path d="M39.1374 71.1164C38.2596 71.658 36.751 73.9699 36.4265 74.477C34.9681 74.4362 33.8683 74.1276 33.8562 73.8772C33.8197 73.0648 34.0386 70.0386 34.0409 70.008C34.0697 69.6249 33.5089 69.5841 33.48 69.964C33.4777 69.9923 33.2565 73.0341 33.2938 73.9031C33.3394 74.9417 35.8139 75.0579 36.5717 75.0626C36.6659 75.0626 36.7609 75.0123 36.8118 74.9299C37.299 74.1567 38.7179 72.0529 39.4255 71.6141C39.7492 71.4123 39.4483 70.9162 39.1367 71.1156L39.1374 71.1164Z" fill="black"/>
<path d="M59.7203 68.877C59.7203 68.877 54.8533 70.9446 54.2954 71.0655L54.8076 71.9078C54.9247 71.8482 59.1191 69.8347 59.7188 69.3048C59.8822 69.1611 59.7203 68.877 59.7203 68.877Z" fill="black"/>
<path d="M33.8169 70.1776C34.3542 70.5097 37.1928 71.7406 38.3746 72.1464L39.1954 71.2405L33.9947 69.9131C33.8663 70.012 33.8177 70.0983 33.8177 70.1768L33.8169 70.1776Z" fill="black"/>
<path d="M59.9715 68.8209C59.9244 68.5666 59.5968 68.5022 59.4608 68.7157C59.3042 68.9583 59.609 68.744 59.6356 73.2946C57.6284 73.9297 56.436 73.9203 56.3592 73.7374C56.0035 72.8825 54.4417 70.9671 54.4258 70.9475C54.1879 70.6515 53.7524 71.0291 53.9971 71.3227C54.0123 71.3392 55.5278 73.2051 55.8432 73.9658C56.2513 74.9415 59.02 74.1094 60.0026 73.7852C60.1197 73.7476 60.1987 73.6369 60.1987 73.5081C60.1987 73.3645 60.1964 69.9819 59.9715 68.8209Z" fill="black"/>
<path d="M56.1003 73.8522C56.1003 73.8522 55.5144 74.2902 55.921 75.171C56.3276 76.0517 57.2061 76.3461 57.2426 77.2638C57.2791 78.1822 56.855 79.6156 57.3558 79.9853C58.1842 80.5976 58.8067 78.7529 61.5115 79.3636C61.5115 79.3636 61.6301 78.8189 61.2364 78.1422C60.9719 77.6877 60.4688 77.5849 60.5896 76.3524C60.848 73.7109 61.1756 73.1253 60.028 73.4314C58.3583 73.6826 57.4174 74.3797 56.1003 73.8522Z" fill="white"/>
<path d="M61.8093 79.2434C61.8351 78.7378 61.6542 78.1349 61.2134 77.6427C60.7422 77.1175 60.8023 76.8608 61.0067 75.177C61.177 73.7734 61.351 72.7859 59.9769 73.1438C58.3095 73.3966 57.4112 74.0623 56.2058 73.5795C56.1161 73.545 56.0158 73.5583 55.9398 73.6148C55.6708 73.8158 55.2672 74.4242 55.6692 75.2932C55.8592 75.7037 56.1351 75.9965 56.3821 76.2564C57.0213 76.9323 57.0312 77.0406 56.8989 78.2636C56.8032 79.1382 56.6694 80.1446 57.4925 80.373C57.4036 80.7105 57.421 81.1533 57.8094 81.4987L57.9424 81.6172C58.4128 82.0396 58.688 82.2586 59.3796 82.2193C60.0575 82.1793 61.5402 81.9077 61.981 81.7428C62.6711 81.4846 62.5168 79.931 61.81 79.2442L61.8093 79.2434ZM57.5236 77.2494C57.4826 76.1951 56.5546 75.86 56.1762 75.0436C55.9702 74.6024 56.0804 74.3245 56.1762 74.1879C57.4142 74.6032 58.1879 74.0678 60.0993 73.7138C60.455 73.618 60.5279 73.6541 60.5279 73.6541C60.645 73.7609 60.4375 75.0388 60.3106 76.3231C60.1335 78.1404 61.1146 77.7644 61.2408 79.0134C58.827 78.6129 58.0389 80.1406 57.5183 79.7466C57.209 79.5189 57.5578 78.0485 57.5236 77.2494ZM61.7804 81.1972C61.4065 81.3354 60.024 81.5976 59.3492 81.6368C58.8787 81.658 58.783 81.5921 58.1772 81.0552C57.9006 80.8095 58.0366 80.4758 58.1263 80.311C58.8004 80.0417 59.5642 79.2457 61.3882 79.6343C61.8876 80.07 61.9446 80.9924 61.7804 81.1972Z" fill="black"/>
<path d="M33.5749 73.888C33.5749 73.888 32.7594 73.6996 32.7594 74.5796C32.7594 75.4596 32.6986 77.0115 32.2411 77.3357C31.5373 77.8342 31.0927 78.1781 31.3891 78.7896C33.2952 78.2165 34.3668 78.8649 34.6487 80.6649L35.8351 79.7072C35.8351 79.7072 35.2423 78.3672 35.5759 77.7934C35.9096 77.2196 36.6506 76.3003 37.0215 75.688C37.3923 75.0757 36.6232 74.5906 36.6232 74.5906C35.3989 74.5616 34.2832 74.5278 33.5749 73.888Z" fill="white"/>
<path d="M37.3794 75.1455C37.2753 74.687 36.8018 74.3016 36.6285 74.3016C35.4824 74.2749 34.4002 74.2498 33.761 73.6712C33.511 73.4507 32.4781 73.5135 32.4781 74.5795C32.4781 76.7571 32.1225 77.0664 32.0761 77.0986C31.478 77.5232 30.8616 77.9613 31.044 78.6693C30.623 78.9576 29.7368 79.6492 29.7368 80.3572C29.7368 81.2851 30.8707 82.1251 31.9302 82.3276C33.4236 82.6204 34.2588 81.3291 36.0076 79.9341C36.1102 79.8525 36.1451 79.7096 36.0904 79.5848C35.8769 79.0997 35.642 78.2415 35.8176 77.9409C36.1421 77.3827 36.8869 76.4603 37.2585 75.841C37.3938 75.6228 37.4349 75.3818 37.3801 75.1447L37.3794 75.1455ZM32.2859 81.7804C31.5281 81.7804 30.2992 81.0473 30.2992 80.358C30.2992 79.9836 31.0037 79.3721 31.5 79.0596C33.0603 78.5995 34.0483 78.9647 34.3493 80.577C34.0757 80.8871 33.2055 81.7804 32.2859 81.7804ZM36.782 75.534C36.4256 76.1236 35.6572 77.0852 35.3342 77.6441C35.012 78.1983 35.3281 79.1868 35.4915 79.6154L34.8311 80.15C34.3933 78.4888 33.1842 78.0319 31.5783 78.4346C31.5753 78.1952 31.8283 77.9762 32.4014 77.5719C32.5595 77.4589 33.0413 77.1174 33.0413 74.5779C33.0413 74.2726 33.1583 74.1352 33.4563 74.165C34.2444 74.8213 35.4072 74.8519 36.5343 74.8794C36.7577 75.0536 36.9302 75.2891 36.782 75.534Z" fill="black"/>
<path d="M72.1872 50.1286C72.169 49.5579 72.0953 48.9982 72.0223 48.4401C71.9721 48.0562 71.8665 47.8937 71.5519 47.7155C71.1156 47.4698 70.6611 47.2586 70.1968 47.0828C70.2044 46.9831 70.1907 46.7971 70.041 46.5843C69.2232 45.4202 65.7348 45.3479 64.3273 45.2836C62.8742 45.2176 61.9135 45.1768 61.0175 44.7482C59.6966 44.1163 58.1941 43.4899 57.1202 44.0299C56.1018 44.5418 55.8259 45.3801 55.8259 45.3801C55.7066 45.7389 56.2303 45.9312 56.3564 45.5717C56.3807 45.5073 56.6141 44.9303 57.3665 44.5512C57.7183 44.3745 58.1546 44.3683 58.6288 44.4617C57.1058 45.5285 56.6794 47.5664 56.8132 49.2321C56.9424 50.8335 57.9311 50.9411 58.5315 51.0054C58.8485 51.0054 58.9404 51.1012 60.7994 51.0251C62.5094 50.9497 63.2603 49.9873 64.17 49.1285C65.0554 48.3011 66.1179 46.8952 67.8757 46.1926C68.9367 46.4069 69.3555 46.6832 69.5181 46.8504C67.8286 47.2351 65.674 49.2282 64.2969 50.4881C63.3157 51.3862 62.6667 51.9788 60.8366 52.0589C58.8598 52.146 56.9941 52.2261 56.1755 51.2464C55.4216 50.3453 55.4664 48.6881 55.474 48.4966C55.4991 48.1253 54.9383 48.064 54.9124 48.4707C54.8972 48.8137 54.8676 50.5737 55.7507 51.6279C56.5335 52.5645 57.9471 52.6908 59.2254 52.6908L59.2391 52.6877C62.9844 52.6877 63.2724 52.1649 65.0356 50.5894C65.2271 50.8618 65.4475 50.9615 65.6337 51.0463C66.8102 51.5754 65.6824 53.0402 67.8241 53.0441C68.0293 53.0441 68.2763 53.0229 68.5005 52.9248C69.2605 53.6815 70.6817 53.4272 70.9279 51.9993C71.2919 51.4929 72.2366 51.5078 72.188 50.1302L72.1872 50.1286ZM63.4259 49.0516C62.6933 49.7683 62.0617 50.3869 60.7758 50.4434C60.0728 50.4732 59.2665 50.4936 58.6015 50.4238C57.5428 50.4238 57.4151 49.6788 57.3756 49.1842C57.2426 47.535 57.7047 45.4869 59.4002 44.6799C59.86 44.8432 60.332 45.0599 60.7834 45.2749C62.3612 46.0301 64.3258 45.7381 66.8687 46.0356C65.636 46.7319 64.9133 47.5805 63.4275 49.0516H63.4259ZM70.9667 51.208C70.9636 50.9144 70.9598 50.5808 71.0427 50.2142C71.1255 49.8342 70.5737 49.7141 70.4932 50.0831C70.288 50.9952 70.5471 51.701 70.2363 52.2999C69.9483 52.8518 69.3083 52.8722 68.9299 52.5417C69.2582 51.9404 68.8151 51.0329 68.3203 50.6859C68.2687 50.6475 68.239 50.6184 68.2231 50.602C68.258 50.5603 68.3773 50.4638 68.6122 50.3876C68.9694 50.266 68.7931 49.718 68.4412 49.8327C67.4973 50.1412 67.4669 50.788 68.0027 51.1656C68.2489 51.3391 68.5613 51.8791 68.4663 52.1947C68.3963 52.4271 68.0361 52.4616 67.8271 52.4616C66.9972 52.46 66.9561 52.296 66.8307 51.8085C66.4599 50.3586 65.7713 50.6977 65.465 50.2087C66.5944 49.207 68.2063 47.7956 69.5303 47.4447C69.6405 47.5342 70.2591 47.648 71.2821 48.2265C71.4477 48.3192 71.4356 48.2948 71.4728 48.5821C71.7426 50.6624 71.7221 50.7134 70.9659 51.2088L70.9667 51.208Z" fill="black"/>
<path d="M53.5493 43.6916C53.5493 43.6916 51.9769 44.504 51.4008 46.1816C50.8247 47.8591 49.5677 49.3208 46.9464 49.7533C45.1065 50.0571 43.3075 51.1765 41.8377 51.3775C39.6307 51.6797 37.7557 46.9061 40.133 44.4098C40.4788 44.0464 41.0412 43.8619 41.6188 43.763C42.3127 43.6445 49.9302 43.4153 53.5493 43.6916Z" fill="white"/>
<path d="M51.3696 43.5981C50.4219 44.121 49.9803 45.4829 49.9256 45.6407C49.4347 47.0749 48.4071 47.874 46.6987 48.1582C44.8078 48.4722 42.7641 49.6183 41.6371 49.7753C41.4965 49.7502 41.0625 49.3726 40.7881 48.5515C40.5009 47.6927 40.2075 45.4343 42.7033 43.7057L51.3696 43.5981Z" fill="#81F8F8"/>
<path d="M56.337 45.3339C56.1045 44.9092 55.7032 44.6376 55.4007 44.2208C54.7973 43.3895 53.734 43.3957 53.5585 43.402C49.9561 43.1288 42.2816 43.3557 41.5748 43.4766C40.814 43.6053 40.2775 43.8448 39.9339 44.2066C37.3917 46.8788 39.3693 52.0072 41.8803 51.6649C43.4041 51.453 45.184 50.3422 46.9943 50.0408C48.5508 49.7825 49.7615 49.1521 50.615 48.1591C50.6735 48.1646 51.2397 48.1089 51.6349 48.0194C51.3339 48.5948 51.7481 49.3774 52.268 49.591C52.6305 49.7425 53.0812 49.6757 53.4695 49.6106C53.8032 49.5549 53.8085 49.6027 54.2789 49.2723C54.4667 49.1404 54.6802 48.9912 54.8581 48.959C55.4296 48.8546 56.3674 47.9338 56.676 46.9487C57.0134 45.8708 56.5065 45.6479 56.3385 45.3339H56.337ZM50.5952 43.866C50.083 44.4367 49.7858 45.1808 49.6627 45.5427C49.2067 46.867 48.2521 47.6057 46.6569 47.8687C44.7204 48.189 42.7794 49.2825 41.6774 49.4724C41.6113 49.4238 41.2905 49.16 41.0557 48.4551C40.909 48.0155 40.3048 45.7429 42.8242 43.9704C44.7691 43.8817 47.955 43.8236 50.5952 43.866ZM46.9039 49.4661C45.9311 49.6263 44.9948 49.9976 44.0835 50.3595C43.262 50.6868 42.486 50.9961 41.8005 51.0887C39.918 51.3627 38.1153 46.9432 40.3329 44.6141C40.6704 44.2608 41.3574 44.074 41.8362 44.03C39.7766 45.9391 40.3687 48.1787 40.5229 48.645C40.8239 49.5462 41.3285 50.0149 41.5869 50.0588C42.0612 50.1766 44.9416 48.7392 46.7428 48.4441C48.5645 48.1411 49.6619 47.276 50.1955 45.7209C50.3368 45.3064 50.7358 44.315 51.4464 43.8832C51.8956 43.895 52.3105 43.9107 52.6898 43.9295C52.157 44.3621 51.4844 45.0701 51.1363 46.0836C50.4873 47.9707 49.0638 49.109 46.9039 49.4661ZM56.1387 46.7689C55.8719 47.6183 55.0845 48.3248 54.76 48.3852C54.4598 48.4386 54.1832 48.634 53.9605 48.7918C53.5942 49.0493 53.6861 48.9857 53.3464 49.0399C53.0926 49.0831 52.708 49.1482 52.4755 49.0493C52.3326 48.992 52.1433 48.7675 52.1015 48.5391C52.0651 48.3397 52.1464 48.2682 52.2186 48.1827C52.4527 48.386 53.0037 48.7173 53.2089 48.7173C53.5334 48.7173 53.5919 48.247 53.2925 48.1505C53.2507 48.1364 52.2725 47.7949 52.1487 47.0256C52.0848 46.6386 51.5315 46.75 51.5939 47.1206C51.6106 47.2226 51.6364 47.3184 51.6691 47.4094C51.5543 47.4424 51.3651 47.4872 51.0771 47.5272C51.3134 47.1504 51.5103 46.7336 51.6668 46.2767C52.138 44.9069 53.3495 44.1391 53.6215 43.9806C53.8343 43.9814 54.5548 44.0253 54.9493 44.5693C55.1028 44.7813 55.2723 44.9548 55.4265 45.1133C55.9882 45.6903 55.7161 45.5058 56.0467 45.8999C56.2109 46.0993 56.3097 46.2194 56.1379 46.7681L56.1387 46.7689Z" fill="black"/>
<path d="M105.982 69.2347C105.665 70.8699 105.357 71.4359 103.463 74.4432C101.835 77.0282 101.814 77.2606 101.995 78.7717C102.176 80.2827 102.162 81.1706 100.777 81.6141C99.7788 81.9344 99.2452 81.3197 98.8835 80.7537C97.7822 79.0315 100.038 78.628 100.233 76.5823C100.432 74.5052 99.7157 69.1798 101.277 67.1788C102.478 65.6386 106.299 67.6011 105.982 69.2363V69.2347Z" fill="white"/>
<path d="M114.02 69.529C114.238 73.1008 116.403 74.3889 116.467 78.4623C116.48 79.2387 116.237 79.5707 116.344 80.5755C116.42 81.2922 117.784 81.0921 118.836 81.2184C119.522 81.3009 120.95 81.848 121.741 81.9909C122.693 82.1628 123.472 81.9893 123.434 81.6384C123.364 80.9971 122.493 80.3769 121.486 80.0935C120.479 79.8101 119.07 79.3462 118.795 78.6381C118.291 77.3413 119.626 72.4665 118.849 69.1106L114.02 69.529H114.02Z" fill="white"/>
<path d="M104.163 44.9745C104.163 44.9745 106.152 40.7646 106.484 39.9819C106.817 39.1993 108.356 39.1247 109.54 39.5164C110.724 39.9081 112.525 38.7816 114.683 39.4191L116.364 39.8108C116.364 39.8108 117.574 39.4434 118.332 40.0549C119.091 40.6664 119.019 42.3314 118.475 43.3841C117.931 44.4368 116.059 47.9371 116.059 47.9371C115.82 49.3477 115.952 50.8228 116.38 52.3496C114.518 53.122 112.107 53.5153 107.607 52.4626C108.012 49.9169 107.904 47.6655 107.078 45.8309C107.078 45.8309 105.325 49.2575 104.542 48.4254C103.759 47.5933 104.163 44.9745 104.163 44.9745Z" fill="#81F8F8"/>
<path d="M108.472 37.092C108.472 37.092 108.658 40.2595 109.364 40.5664C110.07 40.8734 110.721 40.4134 110.721 40.4134C111.639 41.6317 112.691 40.9864 113.825 39.2422C113.825 39.2422 113.23 37.4759 113.211 37.2067C111.741 37.41 110.181 37.4131 108.471 37.092H108.472Z" fill="#FFD997"/>
<path d="M101.058 66.9951C99.8685 68.5227 99.9248 71.6926 99.9749 74.2399C100.037 77.4317 99.978 77.1106 98.7589 78.7324C98.3387 79.2969 98.0347 79.9516 98.6518 80.9163C99.202 81.7735 99.8723 82.2021 100.858 81.8905C102.462 81.3787 102.456 80.2593 102.272 78.734C102.105 77.3399 102.084 77.1609 103.696 74.5994C105.603 71.5717 105.932 70.9633 106.256 69.2905C106.632 67.3539 102.443 65.2163 101.056 66.9943L101.058 66.9951ZM99.1245 80.5913C98.651 79.8558 98.8828 79.4829 99.4156 78.8243C99.9673 78.1429 100.43 77.5306 100.518 76.6082C100.713 74.5303 100.03 69.2434 101.5 67.3602C102.499 66.0814 105.977 67.8139 105.712 69.1766C105.406 70.7576 105.115 71.2906 103.232 74.2815C101.572 76.9199 101.532 77.2237 101.721 78.8047C101.901 80.3111 101.86 80.9619 100.698 81.3339C99.8936 81.593 99.4665 81.1283 99.1245 80.5921V80.5913Z" fill="black"/>
<path d="M123.714 81.6089C123.621 80.765 122.565 80.1001 121.558 79.8175C121.002 79.6605 119.307 79.184 119.055 78.5339C118.6 77.358 119.905 72.4204 119.123 69.0456C119.104 68.9664 119.022 68.8133 118.825 68.8235L113.996 69.2419C113.844 69.2544 113.727 69.3918 113.738 69.5496C113.844 71.2805 114.401 72.5098 114.942 73.7054C115.536 75.0156 116.151 76.3713 116.186 78.4688C116.2 79.2908 115.946 79.4894 116.066 80.6088C116.149 81.4055 117.161 81.4369 118.021 81.4613C118.864 81.4848 118.969 81.488 120.277 81.8946C120.633 82.0053 121.31 82.2102 121.694 82.2792C122.483 82.4198 123.795 82.3899 123.714 81.6089ZM116.749 78.4578C116.685 74.4198 114.635 73.0876 114.325 69.7977L118.626 69.4256C119.275 72.7265 118.002 77.3768 118.532 78.7498C118.847 79.5616 120.235 80.0459 121.409 80.3772C122.323 80.6355 123.064 81.1748 123.148 81.6387C123.047 81.7148 122.587 81.8499 121.789 81.7078C121.001 81.5625 119.591 81.0201 118.869 80.933C118.014 80.8317 116.669 80.9432 116.624 80.546C116.521 79.5529 116.762 79.3088 116.749 78.4578Z" fill="black"/>
<path d="M102.349 63.3323C101.775 64.3136 100.663 64.8591 100.635 66.3797C100.599 68.3634 101.991 69.2174 104.246 69.3352C108.6 69.5628 107.511 66.0547 108.066 65.1865C108.41 64.6472 109.199 64.5789 109.56 64.0514C109.992 63.4202 109.588 62.5371 109.741 61.7804C109.996 60.5228 111.256 60.2276 111.745 60.6217C113.129 61.738 112.664 62.8079 112.82 64.2688C113.106 66.9425 112.092 66.028 113.164 68.6381C113.55 69.5778 113.843 69.997 115.394 70.1814C116.749 70.3424 118.21 70.3486 119.026 69.2182C119.461 68.6161 119.925 66.8091 119.744 66.0076C119.601 65.3749 119.139 64.8615 118.984 64.2327C118.849 63.6848 118.958 63.0992 118.853 62.5442C118.726 61.8722 118.381 61.2709 118.099 60.6507C117.499 59.3382 117.763 57.0955 116.773 55.1118C116.001 53.563 114.155 53.4021 112.59 53.3691C110.477 53.3251 109.228 52.9986 107.659 53.6046C104.95 54.6502 106.567 56.3937 103.289 60.0275C101.81 61.6681 102.922 62.3526 102.349 63.3331V63.3323Z" fill="#81F8F8"/>
<path d="M120.019 65.941C119.925 65.5281 119.689 65.1144 119.596 64.9409C118.674 63.2068 119.787 63.5036 118.547 60.9296C118.165 60.1351 118.109 59.9483 117.917 58.4788C117.38 54.3882 116.532 53.1588 112.6 53.078C110.545 53.038 109.21 52.6949 107.564 53.3315C104.683 54.4447 106.33 56.2313 103.086 59.8274C101.54 61.5434 102.59 62.3653 102.111 63.1802C101.567 64.108 100.386 64.7345 100.355 66.3728C100.31 68.8243 102.277 69.6336 104.634 69.6336C107.793 69.6336 108.002 67.5283 108.129 66.2503L108.091 66.2456L108.13 66.2393C108.169 65.8586 108.205 65.499 108.303 65.3428C108.58 64.9119 109.395 64.8004 109.794 64.2156C110.307 63.4643 109.877 62.5467 110.019 61.8355C110.219 60.8566 111.202 60.5528 111.574 60.8479C112.837 61.8676 112.385 62.79 112.543 64.2988C112.826 66.9395 111.788 66.0195 112.909 68.7489C113.335 69.7922 113.696 70.2703 115.364 70.4681C116.842 70.6424 118.361 70.6204 119.251 69.3895C119.738 68.7175 120.217 66.8202 120.018 65.9387L120.019 65.941ZM115.431 69.8903C113.976 69.7169 113.766 69.3463 113.427 68.5221C112.844 67.102 112.91 66.8147 113.019 66.339C113.306 65.0979 113.065 64.6858 113.065 63.2343C113.065 62.2476 113.065 61.3158 111.922 60.3918C111.255 59.8588 109.768 60.2702 109.473 61.7224C109.404 62.0678 109.434 62.4179 109.463 62.7555C109.555 63.8066 109.426 63.9856 108.709 64.3451C108.236 64.5822 107.983 64.8012 107.838 65.0265C107.202 66.0203 108.305 69.0543 104.646 69.0543C102.638 69.0543 100.885 68.4585 100.923 66.3853C100.949 64.9841 101.999 64.5052 102.596 63.4847C103.261 62.3465 102.096 61.786 103.502 60.2262C106.826 56.5398 105.225 54.8552 107.765 53.8763C108.939 53.421 109.924 53.5176 111.178 53.593C113.141 53.7107 115.637 53.4493 116.53 55.2422C117.482 57.1529 117.23 59.4122 117.849 60.771C118.367 61.9312 118.625 62.1832 118.628 63.334C118.629 63.6268 118.636 63.9864 118.714 64.3027C118.877 64.9605 119.341 65.5022 119.472 66.0737C119.633 66.7778 119.199 68.4962 118.804 69.0425C118.071 70.0575 116.685 70.0403 115.43 69.8911L115.431 69.8903Z" fill="black"/>
<path d="M102.975 35.5961L110.692 30.2173L118.41 35.3378C114.269 37.6716 108.786 38.1003 102.975 35.5961Z" fill="#FFD997"/>
<path d="M118.564 35.0919L110.845 29.9713C110.751 29.9078 110.63 29.9093 110.536 29.9761L102.818 35.3557C102.635 35.4828 102.66 35.7717 102.866 35.8636C104.643 36.6297 106.422 37.1423 108.181 37.3982C108.288 38.6503 108.653 41.0972 109.87 41.0972C110.122 41.0972 110.389 41.0061 110.652 40.864C111.827 42.2134 113.281 40.9197 114.075 39.3435C114.122 39.2524 114.118 39.1417 114.065 39.0554C113.817 38.6464 113.651 38.0898 113.558 37.3598C115.319 37.0599 116.989 36.4696 118.546 35.5927C118.73 35.4875 118.746 35.2128 118.564 35.0919ZM113.502 39.2132C113.372 39.4439 112.595 40.7682 111.811 40.8436C111.578 40.8664 111.355 40.7698 111.137 40.5469C111.75 40.0821 112.268 39.4644 112.414 39.2822C112.65 38.9973 112.225 38.6095 111.982 38.9101C111.484 39.5295 110.209 40.7792 109.689 40.4676C109.174 40.1614 108.86 38.5891 108.752 37.472C110.174 37.6345 111.582 37.6337 113 37.4438C113.094 38.173 113.258 38.7539 113.502 39.2124V39.2132ZM103.572 35.5307L110.696 30.5656L117.851 35.3117C113.421 37.6196 108.256 37.421 103.572 35.5307Z" fill="black"/>
<path d="M119.065 40.7354C118.677 39.2447 116.56 39.5485 116.167 39.4707C115.732 39.3875 114.164 39.0013 113.892 38.9315C113.529 38.838 113.398 39.4079 113.759 39.4974C116.343 40.1341 116.048 40.0768 116.667 40.0705C117.38 40.0634 118.335 40.1741 118.522 40.8845C118.78 41.8744 118.286 43.1061 117.22 45.1753C116.093 47.3639 115.599 47.9715 115.599 47.9715C115.358 48.2541 115.773 48.6474 116.026 48.3538C116.026 48.3538 116.54 47.7368 117.717 45.4501C118.876 43.1971 119.374 41.9168 119.064 40.7346L119.065 40.7354Z" fill="black"/>
<path d="M115.075 41.4537C115.063 41.4733 113.88 43.4877 113.537 44.3763C113.397 44.735 113.92 44.9478 114.06 44.5922C114.381 43.7624 115.544 41.7748 115.557 41.7559C115.75 41.4262 115.269 41.1279 115.075 41.4537H115.075Z" fill="black"/>
<path d="M108.866 39.2392C108.856 39.2345 107.832 38.8051 106.936 39.2156C106.475 39.4276 106.138 39.8169 105.938 40.3735C105.347 42.0252 104.042 44.5144 103.894 44.7962C103.724 45.1165 104.189 45.4477 104.408 45.0333C106.834 40.4238 106.343 40.1262 107.163 39.7487C107.811 39.4496 108.648 39.7761 108.657 39.7801C108.986 39.9253 109.219 39.3978 108.867 39.24L108.866 39.2392Z" fill="black"/>
<path d="M116.64 52.2404C116.568 52.0457 115.949 50.2708 116.275 47.7894C116.322 47.4056 115.762 47.3341 115.716 47.7101C115.429 49.9058 115.827 51.5464 116.024 52.1831C113.563 53.1376 110.273 52.742 107.928 52.2372C108.699 47.163 106.868 45.6275 106.98 43.1014C106.998 42.7223 106.438 42.6846 106.419 43.0747C106.378 43.9947 106.565 44.7758 106.795 45.5742C106.443 46.4149 105.406 48.397 104.353 48.5367C104.019 48.5807 104.009 49.1137 104.425 49.1137C105.595 48.9567 106.56 47.353 107.036 46.3992C108.308 50.8423 106.805 52.5803 107.546 52.7459C110.315 53.3692 113.88 53.757 116.492 52.6203C116.633 52.5575 116.7 52.388 116.641 52.2396L116.64 52.2404Z" fill="black"/>
<path d="M100.801 35.2467C98.2591 32.1036 95.6926 34.8864 97.968 37.3686C93.9461 36.6425 93.4726 40.5698 96.5894 41.9475C94.3557 42.8345 95.115 46.0891 97.661 45.801C96.5156 47.6591 98.9644 49.7692 100.607 48.3452C100.892 48.1011 100.532 47.6513 100.246 47.9009C98.9302 49.0376 96.7102 46.904 98.7698 45.4737C99.0502 45.2782 98.8124 44.8253 98.5015 44.965C95.5261 46.2626 94.6141 42.3094 97.8867 42.3094C98.2355 42.3094 98.269 41.785 97.9308 41.7316C93.9712 41.1013 94.0365 36.4399 99.0898 38.2776C99.4059 38.393 99.6157 37.9401 99.333 37.7587C96.1478 35.7075 98.0455 32.7457 100.367 35.618C100.607 35.9195 101.04 35.5364 100.799 35.2467H100.801Z" fill="black"/>
<path d="M122.915 44.6178C125.049 43.2589 124.565 39.2295 121.048 40.3772C120.697 40.4942 120.859 41.0382 121.219 40.9314C124.482 39.8693 124.128 43.9576 121.97 44.3862C121.667 44.4419 121.664 44.9004 121.973 44.9569C126.377 45.7866 123.832 51.0995 120.235 48.8269C119.947 48.6511 119.654 49.0412 119.893 49.2846C121.509 50.8938 119.815 52.193 118.351 50.8954C118.067 50.6442 117.701 51.0885 117.986 51.3366C118.6 51.8798 119.173 52.0015 119.551 52.0054L119.567 52.0093C120.7 52.0093 121.464 50.988 120.957 49.8137C124.519 50.9716 126.621 46.0237 122.916 44.6193L122.915 44.6178Z" fill="black"/>
<path d="M107.6 52.4596C106.851 52.8497 106.372 53.0264 106.075 53.8373C105.334 55.8586 104.167 58.1139 102.672 59.5992C102.444 59.8252 102.409 60.1903 102.601 60.4524L102.714 60.6087C102.949 60.9321 103.406 60.9517 103.672 60.6558C105.041 59.1305 106.31 57.073 107.276 54.7337C107.491 54.2148 107.99 53.9385 108.8 54.1717C109.141 54.2698 109.321 54.6584 109.193 54.9983C108.581 56.6193 108.149 58.1226 107.899 59.4987C107.683 60.6848 108.452 61.8552 109.6 62.075C110.612 62.2689 111.631 62.3121 112.659 62.2101C113.726 62.1041 114.543 61.1825 114.581 60.0772C114.648 58.1367 114.577 56.3775 114.298 54.8899C114.103 53.853 115.997 53.8129 116.124 55.098C116.361 57.504 116.997 60.111 117.867 62.1245C118.008 62.4511 118.381 62.5955 118.698 62.4518L119.152 62.247C119.483 62.0978 119.627 61.6951 119.47 61.3591C118.425 59.1132 117.745 56.6774 117.64 54.2839C117.595 53.232 116.927 52.8175 116.373 52.345C113.758 53.378 111.05 53.1355 107.599 52.458L107.6 52.4596Z" fill="white"/>
<path d="M119.334 71.3536C119.494 71.0984 119.22 70.8001 118.971 70.9336C117.633 71.6322 116.17 71.7798 114.499 71.385C114.125 71.308 114.02 71.8693 114.374 71.9525C115.801 72.2901 117.082 72.2595 118.282 71.8552C116.493 74.1576 115.376 73.7266 115.402 74.2824C115.408 74.4096 115.492 74.5171 115.61 74.5485C116.617 74.8209 117.464 74.8814 118.193 74.7322C117.621 75.4387 117.007 75.9568 116.321 76.3116C116.12 76.4137 116.11 76.7159 116.323 76.8313C116.951 77.1531 117.523 77.3306 118.024 77.358C117.438 78.041 116.928 78.4688 116.423 78.7004C116.211 78.7938 116.196 79.1036 116.402 79.2214C116.402 79.2214 116.807 79.4545 117.399 79.4545C117.633 79.409 118.185 79.4922 118.967 78.8684C119.259 78.6337 118.92 78.1744 118.623 78.4084C118.108 78.8189 117.62 78.8862 117.271 78.8676C117.779 78.501 118.3 77.9617 118.902 77.1798C118.979 77.0801 118.984 76.9428 118.917 76.8376C118.688 76.4804 118.441 77.0817 117.074 76.5385C117.866 76.0188 118.561 75.2911 119.2 74.3154C119.271 74.2063 119.264 74.0587 119.178 73.959C118.848 73.579 118.59 74.4802 116.565 74.1615C117.597 73.5681 118.504 72.648 119.333 71.3544L119.334 71.3536Z" fill="black"/>
<path d="M105.501 70.2751C103.085 71.0601 100.77 69.0614 100.673 68.9767C100.393 68.7286 100.025 69.162 100.306 69.4179C101.376 70.3544 103.033 71.1182 104.572 71.0342C103.543 71.6646 101.994 72.1332 100.58 71.6324C100.29 71.5343 100.079 71.9087 100.297 72.1207C100.422 72.2423 101.527 73.2927 102.769 73.7597C102.183 73.9646 101.193 74.2668 100.442 74.2668C100.198 74.2668 100.077 74.5243 100.191 74.7111C100.508 75.2378 101.119 75.7615 101.761 76.0622C100.165 76.9947 99.9101 76.7937 99.8478 77.1132C99.8273 77.2121 99.86 77.3166 99.9337 77.388C101.053 78.4164 102.436 77.9947 102.19 77.4711C102.123 77.3275 101.954 77.264 101.815 77.3362C101.432 77.5301 101.02 77.4021 100.723 77.2427C101.661 76.8337 102.43 76.3314 102.578 76.2309C102.793 76.0865 102.721 75.7528 102.481 75.7033C101.997 75.5989 101.404 75.2441 100.984 74.81C102.23 74.6491 103.693 74.0306 103.864 73.9576C104.133 73.8328 104.066 73.4191 103.769 73.3986C102.991 73.3523 102.145 72.8539 101.539 72.4103C103.286 72.521 105.254 71.5319 105.811 70.721C105.971 70.4949 105.749 70.1887 105.499 70.2766L105.501 70.2751Z" fill="black"/>
<path d="M107.27 40.2402C106.703 39.8901 106.089 39.8399 105.943 40.2905C105.655 41.1783 105.246 41.9453 105.376 42.4461C105.495 42.91 106.084 43.213 106.478 42.9296C106.962 43.2154 107.63 43.5137 107.63 43.5137C108.413 43.217 108.802 42.0905 108.802 42.0905C108.802 42.0905 107.837 40.5903 107.27 40.2402Z" fill="#FFD997"/>
<path d="M108.858 41.9492C108.858 41.9492 108.195 43.4007 107.479 43.7155C107.479 43.7155 113.281 48.186 114.212 48.6186C116.419 49.6446 116.226 46.3947 114.767 45.3059C113.502 44.3615 111.016 43.7948 108.858 41.95V41.9492Z" fill="white"/>
<path d="M114.933 45.0702C114.411 44.6785 113.714 44.3622 112.909 43.9948L112.893 44.0309L112.897 43.9901C109.15 42.2835 109.214 41.6523 108.856 41.6578C108.526 41.1735 107.878 40.2778 107.415 39.9905C106.751 39.5776 105.901 39.4991 105.677 40.1969C105.374 41.1311 104.948 41.913 105.107 42.5213C105.275 43.1799 106.073 43.5591 106.624 43.1823C106.82 43.3597 107.044 43.4916 107.23 43.5826C107.165 43.7153 107.207 43.8668 107.311 43.9477C114.57 49.5227 114.206 48.9756 114.969 49.1067C116.696 49.1067 116.38 46.1496 114.933 45.0702ZM106.708 42.2686C106.648 41.8549 105.866 41.9224 106.267 42.7246C106.055 42.822 105.719 42.6399 105.649 42.3722C105.575 42.0825 105.791 41.5456 105.975 41.0455C106.247 40.3108 106.204 40.317 106.31 40.277C106.453 40.2213 106.768 40.2668 107.126 40.4897C107.499 40.7213 108.147 41.6217 108.468 42.0998C108.297 42.4208 108.025 42.8691 107.737 43.1697C107.431 43.0645 106.775 42.7443 106.709 42.2693L106.708 42.2686ZM114.327 48.3523C113.652 48.0391 110.034 45.3144 107.971 43.7302C108.402 43.3581 108.761 42.7545 108.95 42.3957C111.056 44.0796 113.44 44.6738 114.603 45.5397C115.767 46.4102 116.183 49.2174 114.328 48.3523H114.327Z" fill="black"/>
<path d="M103.095 43.1162C103.095 43.1162 103.681 44.5912 104.293 45.2757C105.991 47.1731 104.227 50.6553 102.599 48.17C101.749 46.8709 101.918 45.2341 101.286 42.9851L103.095 43.1162Z" fill="white"/>
<path d="M104.229 41.0807C103.975 40.3059 103.689 40.0893 103.418 39.7478C103.294 39.5916 103.182 39.5327 102.865 39.6669C102.133 39.977 100.926 40.8256 100.833 41.379C100.7 42.1766 101.251 43.4302 102.267 43.4255C102.793 43.4231 103.002 43.0463 103.084 42.7622C103.133 42.5934 103.327 42.1271 103.508 42.0164C103.789 41.8469 103.896 41.9222 104.088 41.8312C104.36 41.7009 104.352 41.4575 104.228 41.0799L104.229 41.0807Z" fill="#FFD997"/>
<path d="M104.499 45.0828C103.839 44.3433 103.419 43.0858 103.321 42.95C103.377 42.793 103.405 42.636 103.412 42.5041C103.616 42.2725 103.67 42.2121 103.907 42.1791C104.47 42.11 104.733 41.723 104.493 40.9914C104.219 40.1562 103.894 39.8924 103.634 39.5658C103.411 39.2848 103.149 39.2338 102.758 39.3994C102.031 39.7063 100.674 40.6138 100.555 41.3313C100.392 42.2953 100.998 42.99 101.015 43.0685C101.629 45.2673 101.476 46.9794 102.365 48.3351C102.894 49.146 103.413 49.3226 103.758 49.3265C104.139 49.383 105.008 48.9387 105.182 47.8539C105.371 46.6803 105.161 45.8246 104.499 45.0828ZM102.986 42.1241C102.918 42.2066 102.859 42.278 102.801 42.3063C102.452 42.4743 102.058 41.9098 101.961 41.5464C101.868 41.1759 101.315 41.3274 101.419 41.6995C101.576 42.2992 102.121 42.9594 102.702 42.9201C102.424 43.3056 101.816 43.1344 101.487 42.7349C101.195 42.3793 101.04 41.8415 101.109 41.4286C101.188 40.9576 102.662 39.9756 103.149 39.8814C103.168 39.8869 103.343 40.1028 103.362 40.124C103.572 40.3697 103.771 40.6028 103.961 41.1743C104.212 41.946 103.724 41.2135 102.986 42.1241ZM104.624 47.7589C104.553 48.2071 104.207 48.7456 103.771 48.7456C103.394 48.7456 103.057 48.3563 102.83 48.0101C102.114 46.9142 102.17 45.5334 101.735 43.6196C102.127 43.7719 102.609 43.7609 102.945 43.4955C103.152 43.9697 103.606 44.9407 104.085 45.4777C104.626 46.0805 104.787 46.7627 104.624 47.7589Z" fill="black"/>
<path d="M119.728 61.2372C118.647 58.9128 118.024 56.506 117.927 54.2758C117.898 53.6282 117.612 53.0261 117.142 52.625C116.538 52.1092 116.474 51.9985 116.277 52.0778C112.291 53.651 107.925 51.9805 107.48 52.2011L106.882 52.5064C106.39 52.7569 106.009 53.1933 105.811 53.7334C105.306 55.1095 104.202 57.6741 102.477 59.3893C102.147 59.7182 102.104 60.2497 102.376 60.6265C102.542 60.8565 102.719 61.1297 103.162 61.154C103.431 61.1713 103.694 61.0606 103.879 60.8541C105.305 59.2661 106.57 57.189 107.535 54.8497C107.747 54.3426 108.222 54.3127 108.725 54.4548C108.904 54.5051 108.998 54.7139 108.931 54.8952C108.314 56.5359 107.874 58.0674 107.623 59.449C107.382 60.7764 108.229 62.1117 109.549 62.3653C110.568 62.5631 111.623 62.6102 112.687 62.5042C113.886 62.3857 114.822 61.3487 114.865 60.0935C115.043 54.8222 114.054 54.4948 115.028 54.4195C115.448 54.3873 115.804 54.7037 115.847 55.1315C116.092 57.6058 116.752 60.2662 117.613 62.2475C117.76 62.5835 118.087 62.8002 118.448 62.8002C118.696 62.8002 118.811 62.7232 119.268 62.5176C119.739 62.3056 119.957 61.7271 119.728 61.2372ZM110.854 54.7759C111.44 54.8261 112.043 54.852 112.682 54.8536C112.724 55.1778 112.772 55.323 112.848 55.8529C112.204 55.8513 111.364 55.8301 110.629 55.7697C110.726 55.44 110.802 55.1731 110.854 54.7759ZM110.458 56.3396C111.018 56.3898 111.819 56.4338 112.918 56.4338C112.95 56.7502 112.975 57.0846 112.991 57.4378C112.199 57.4378 110.989 57.4143 110.141 57.3436C110.242 57.0249 110.342 56.7148 110.458 56.3396ZM109.96 57.912C110.429 57.9559 111.601 58.0179 113.012 58.0179C113.02 58.368 113.022 58.7362 113.016 59.1248C112.107 59.113 110.554 59.0345 109.656 58.956C109.745 58.6192 109.849 58.2715 109.96 57.912ZM109.463 59.8077C109.48 59.7151 109.499 59.6209 109.519 59.5267C110.397 59.6068 112.041 59.6916 113.004 59.7049C113.001 59.8101 112.998 59.9168 112.994 60.0252C112.984 60.3156 112.776 60.5543 112.509 60.581C111.617 60.6665 110.737 60.6281 109.892 60.4663C109.605 60.409 109.411 60.1005 109.463 59.8077ZM112.777 53.3338C112.707 53.5685 112.646 53.8755 112.644 54.2688C112.035 54.2648 111.457 54.2413 110.895 54.1934C110.898 53.8315 110.857 53.5128 110.789 53.2483C111.477 53.3158 112.137 53.348 112.777 53.3338ZM119.233 61.7742C119.17 61.95 119.089 61.9641 118.59 62.1863C118.411 62.2656 118.204 62.1863 118.127 62.0065C117.289 60.0817 116.646 57.4881 116.405 55.0695C116.276 53.753 114.649 53.4798 114.155 54.257C113.709 54.9564 114.472 55.1943 114.303 60.0644C114.269 61.03 113.551 61.8275 112.634 61.9186C111.636 62.0183 110.631 61.9743 109.653 61.7875C108.659 61.5975 107.991 60.5794 108.178 59.5495C108.421 58.2095 108.853 56.7125 109.458 55.1001C109.549 54.8591 109.536 54.5883 109.423 54.3559C109.206 53.9085 108.736 53.797 108.242 53.7876C107.715 53.7766 107.227 54.1094 107.019 54.615C106.077 56.8946 104.849 58.9136 103.467 60.4514C103.38 60.5448 103.279 60.5707 103.192 60.5668C103.021 60.5598 102.965 60.4632 102.826 60.2717C102.724 60.1296 102.741 59.9278 102.867 59.8022C104.675 58.0069 105.818 55.3552 106.338 53.9336C106.486 53.5301 106.768 53.2074 107.132 53.023C108.022 52.5708 107.074 52.7938 110.211 53.1823C110.834 54.8324 109.409 57.1168 108.941 59.7049C108.835 60.2866 109.21 60.8902 109.796 61.0041C110.711 61.1799 111.65 61.2144 112.56 61.1257C113.092 61.0731 113.507 60.6069 113.526 60.0424C113.704 54.8944 112.797 54.7735 113.35 53.3064C114.375 53.2373 115.354 53.0395 116.325 52.6744L116.784 53.0677C117.132 53.366 117.343 53.8135 117.364 54.2962C117.465 56.6057 118.108 59.0918 119.222 61.4837C119.264 61.5748 119.269 61.6768 119.234 61.771L119.233 61.7742Z" fill="black"/>
</svg>
