<svg width="152" height="158" viewBox="0 0 152 158" fill="none" xmlns="http://www.w3.org/2000/svg">
<path d="M140.957 121.273C140.54 120.786 140.189 120.241 139.913 119.655C139.838 119.222 140.957 118.949 140.957 118.949L141.552 119.516C141.732 119.686 141.846 119.918 141.872 120.169C141.898 120.42 141.834 120.672 141.694 120.877C141.538 121.109 141.349 121.315 141.133 121.487L140.957 121.273Z" fill="#FFD997"/>
<path d="M136.576 115.131C136.549 115.107 136.518 115.089 136.484 115.077C136.423 115.054 136.357 115.054 136.296 115.077C136.216 115.107 136.145 115.156 136.087 115.22C136.029 115.284 135.987 115.361 135.963 115.445C135.928 115.498 135.905 115.558 135.897 115.621C135.888 115.684 135.894 115.748 135.913 115.809C135.933 115.869 135.965 115.924 136.008 115.969C136.052 116.014 136.105 116.048 136.163 116.069C136.221 116.089 136.283 116.095 136.343 116.086C136.404 116.077 136.462 116.054 136.512 116.018C136.563 115.982 136.605 115.934 136.634 115.878C136.664 115.822 136.681 115.76 136.684 115.697C136.721 115.602 136.731 115.498 136.712 115.397C136.692 115.296 136.645 115.204 136.576 115.131ZM138.244 123.247C137.528 123.217 136.82 123.067 136.149 122.804C134.696 122.338 133.039 121.674 132.676 121.622L132.484 121.604C132.475 122.013 132.352 122.409 132.131 122.747C131.909 123.084 131.599 123.348 131.237 123.507C129.542 124.121 128.752 123.585 128.752 123.585C128.727 123.647 128.699 123.706 128.668 123.764C128.528 124.035 128.324 124.264 128.076 124.431C127.828 124.599 127.543 124.698 127.248 124.72C126.915 124.737 126.582 124.687 126.267 124.571C126.043 124.493 125.828 124.387 125.627 124.257C125.258 124.002 124.951 123.66 124.734 123.259C124.516 122.857 124.393 122.407 124.375 121.947C124.375 121.947 123.625 121.904 123.113 120.429C122.923 119.546 123.063 118.621 123.506 117.842C123.665 117.5 123.85 117.172 124.059 116.861C124.059 116.861 124.351 113.057 127.167 111.396L126.659 110.948C129.843 108.902 131.985 108.133 136.074 110.968C136.074 110.968 137.922 112.389 137.713 115.87L140.96 118.945C140.96 118.945 139.84 119.221 139.917 119.651C140.192 120.238 140.543 120.782 140.96 121.269L141.14 121.478C141.008 121.579 140.862 121.656 140.706 121.707C140.599 121.742 140.457 121.802 140.293 121.871C139.761 122.537 139.046 123.017 138.244 123.247Z" fill="#81F8F8"/>
<path d="M136.575 115.131C136.645 115.204 136.693 115.297 136.712 115.398C136.731 115.499 136.721 115.604 136.683 115.699C136.681 115.762 136.664 115.825 136.634 115.88C136.605 115.936 136.563 115.984 136.512 116.02C136.462 116.056 136.404 116.079 136.343 116.088C136.282 116.097 136.221 116.091 136.163 116.071C136.104 116.051 136.052 116.017 136.008 115.972C135.965 115.926 135.932 115.872 135.913 115.811C135.894 115.751 135.888 115.686 135.896 115.623C135.905 115.56 135.928 115.5 135.962 115.448C135.987 115.363 136.029 115.286 136.087 115.223C136.145 115.159 136.216 115.11 136.295 115.079C136.401 115.097 136.498 115.114 136.575 115.131Z" fill="black"/>
<path d="M136.484 115.077C136.517 115.088 136.548 115.107 136.575 115.131C136.5 115.114 136.403 115.097 136.295 115.079C136.356 115.056 136.422 115.055 136.484 115.077Z" fill="black"/>
<path d="M128.753 123.583C128.753 123.583 129.543 124.121 131.238 123.505C131.6 123.346 131.911 123.083 132.132 122.745C132.353 122.408 132.476 122.011 132.485 121.603L132.677 121.62C133.039 121.673 134.695 122.337 136.15 122.802L136.107 122.947C136.025 123.214 135.885 123.458 135.697 123.66C135.509 123.862 135.279 124.017 135.025 124.112C133.33 124.727 133.021 124.19 133.021 124.19C132.944 124.446 132.816 124.683 132.647 124.886C132.477 125.088 132.269 125.252 132.036 125.368C131.803 125.484 131.55 125.548 131.292 125.558C131.034 125.567 130.776 125.521 130.536 125.423C130.155 125.301 129.805 125.091 129.513 124.808C129.221 124.526 128.995 124.179 128.85 123.792L128.67 123.759C128.701 123.702 128.729 123.644 128.753 123.583Z" fill="black"/>
<path d="M126.662 110.946L127.17 111.395C124.354 113.055 124.061 116.859 124.061 116.859C123.853 117.17 123.668 117.498 123.509 117.84L121.409 114.293C121.572 114.202 121.732 114.108 121.895 114.013C123.812 112.881 125.327 111.803 126.662 110.946Z" fill="#81F8F8"/>
<path d="M121.407 114.293L123.507 117.84C123.064 118.619 122.924 119.544 123.114 120.427L119.697 115.176C120.138 114.969 120.581 114.745 121.026 114.504C121.15 114.435 121.281 114.365 121.407 114.293Z" fill="#FFD997"/>
<path d="M83.7199 125.047C83.6292 124.054 83.7636 123.052 84.1125 122.122C84.1134 122.118 84.1152 122.115 84.1178 122.112C84.5282 121.016 85.2484 120.075 86.1835 119.413C86.8596 118.95 87.5894 118.577 88.3556 118.303H88.3601C91.9947 116.937 97.8965 116.354 103.078 117.026C108.765 117.763 114.035 117.843 119.688 115.182C119.693 115.181 119.697 115.179 119.7 115.176L123.117 120.427C123.629 121.903 124.379 121.945 124.379 121.945C124.397 122.406 124.52 122.855 124.738 123.257C124.956 123.659 125.262 124.001 125.631 124.255L126.4 125.383L125.018 126.461C125.018 126.461 124.894 126.907 124.661 127.512C124.669 127.621 124.918 131.136 125.102 131.801C126.1 135.401 131.885 141.839 131.885 141.839C132.649 141.597 133.03 140.247 135.075 141.353C137.12 142.458 132.537 145.851 130.901 145.573C130.566 145.451 130.259 145.256 130.001 145.002C129.743 144.748 129.54 144.44 129.405 144.099C129.405 144.099 128.765 143.197 128.167 142.468C128.018 142.263 127.809 142.114 127.571 142.044C127.334 141.973 127.081 141.984 126.85 142.076C126.85 142.076 125.317 142.534 125.018 142.076C124.824 141.446 124.756 140.782 124.818 140.124C124.818 140.124 122.282 136.629 121.873 135.274C121.54 134.175 119.069 132.684 118.916 132.568L118.923 132.563C118.906 132.556 118.906 132.558 118.916 132.568C116.737 133.464 114.18 134.288 114.18 134.288L113.991 134.266C113.733 134.554 113.504 134.869 113.306 135.205C111.971 137.284 110.535 139.29 109.003 141.217C108.207 142.329 107.524 143.524 106.964 144.782C107.692 145.123 108.832 144.369 109.669 146.601C110.081 147.7 108.937 148.118 107.541 148.093C106.1 148.073 104.393 147.587 103.857 146.915C103.681 146.594 103.574 146.237 103.541 145.87C103.508 145.502 103.55 145.131 103.665 144.782C103.319 144.201 103.119 143.539 103.083 142.857C103.095 141.897 104.785 141.689 104.785 141.689C104.642 141.578 104.525 141.434 104.445 141.268C104.366 141.101 104.324 140.918 104.325 140.732C104.39 140.182 105.911 140.114 105.911 140.114C105.911 140.114 107.757 136.001 108.306 134.697C108.404 134.446 108.458 134.178 108.464 133.906L108.306 133.896C106.726 133.697 102.617 131.396 100.655 131.396C98.8495 131.472 97.0493 131.653 95.2631 131.939C94.3178 134.745 93.4413 137.826 93.513 138.9C93.6474 140.916 96.1902 144.332 96.9181 144.673C97.6459 145.015 99.2586 144.369 100.095 146.603C100.141 146.707 100.166 146.82 100.17 146.934C100.173 147.049 100.155 147.163 100.115 147.27C100.076 147.377 100.016 147.475 99.94 147.558C99.8639 147.641 99.7726 147.707 99.6715 147.753C98.2589 148.616 94.2748 148.131 93.5085 146.906C92.5126 145.315 88.1789 141.19 88.2167 140.13C88.2544 139.069 89.6323 136.502 89.4549 134.499V134.489C89.2729 132.482 87.1967 131.989 86.031 130.286C86.031 130.286 84.2831 130.433 84.2831 129.373C84.3016 128.686 84.4762 128.013 84.7928 127.41C84.5693 127.413 84.3486 127.36 84.1487 127.256C83.9489 127.152 83.7757 127 83.6436 126.813C83.5277 126.615 83.4596 126.391 83.4451 126.161C83.3981 125.767 83.4963 125.369 83.7199 125.047Z" fill="#81F8F8"/>
<path d="M78.8568 146.599C77.6405 148.431 74.542 143.118 75.1981 141.496C75.8542 139.875 76.6447 134.259 77.4465 133.737C78.2483 133.214 80.8727 132.975 82.2596 131.785C83.6465 130.595 82.93 128.678 83.5808 126.858L83.636 126.821C83.7679 127.008 83.941 127.16 84.1409 127.264C84.3407 127.369 84.5616 127.421 84.7851 127.419C84.4685 128.022 84.2939 128.695 84.2755 129.381C84.2755 130.442 86.0233 130.295 86.0233 130.295C87.189 131.998 89.2652 132.493 89.4472 134.497V134.507C86.4899 135.213 82.1063 136.516 81.1173 137.325C79.6949 138.483 78.4974 142.297 78.6258 143.055C78.7541 143.814 80.0709 144.764 78.8568 146.599Z" fill="#81F8F8"/>
<path d="M88.356 118.303C87.5899 118.577 86.86 118.95 86.1839 119.413C85.2488 120.075 84.5286 121.016 84.1182 122.112C84.1156 122.115 84.1138 122.118 84.1129 122.122C84.0013 122.396 83.8028 122.623 83.5503 122.764C83.2978 122.906 83.0064 122.953 82.7245 122.899C81.7717 122.67 82.4851 120.85 82.4851 120.85C82.4851 120.85 81.4938 122.535 80.5002 121.779C79.5663 121.072 80.7826 119.775 80.7826 119.775C80.7826 119.775 79.4727 120.504 78.8045 119.775C78.4625 119.396 79.182 118.489 79.182 118.489C77.3481 117.014 75.9355 114.835 76.9246 114.693C77.9136 114.551 80.4995 116.789 82.2783 117.868C83.9982 118.909 88.0812 118.343 88.356 118.303Z" fill="black"/>
<path d="M73.5659 85.5986L120.947 114.342L121.023 114.504C120.578 114.746 120.136 114.97 119.694 115.176C119.691 115.179 119.687 115.181 119.682 115.181L73.6602 87.3413C73.7138 86.9904 73.7202 86.6335 73.6791 86.2808L73.519 86.258C73.5994 86.1709 73.648 86.0574 73.6565 85.9371C73.6651 85.8167 73.633 85.6971 73.5659 85.5986Z" fill="#FFD997"/>
<path d="M66.7684 75.3523L71.004 79.7813L70.6499 80.1047L66.8454 83.5673L66.8047 83.6819C65.6404 83.2415 63.7945 82.5468 61.9727 81.8945C63.3377 79.7263 66.7684 75.3523 66.7684 75.3523Z" fill="#FFD997"/>
<path d="M73.6607 87.3414C73.3708 88.9648 71.7407 88.5087 70.572 88.088C69.2885 87.6248 67.1934 86.7637 67.1934 85.0712C67.1934 84.5217 67.5384 84.2744 68.0239 84.185C69.0439 83.9926 70.686 84.5233 71.0544 84.5531L71.2198 84.5005C71.3741 85.0323 71.6078 85.5355 71.9121 85.992C71.9964 86.1252 72.1065 86.2385 72.2354 86.3249C72.3643 86.4112 72.5091 86.4686 72.6605 86.4934C72.812 86.5183 72.9667 86.51 73.1149 86.469C73.2631 86.4281 73.4014 86.3555 73.521 86.2558L73.6811 86.2785C73.7219 86.6321 73.715 86.9899 73.6607 87.3414Z" fill="#81F8F8"/>
<path d="M68.0107 84.1428C68.0107 84.1428 67.5464 83.963 66.8027 83.682L66.8435 83.5674L70.648 80.1047L70.7627 80.2413C71.4613 81.1685 72.0944 82.1471 72.657 83.1694C72.8849 84.007 73.1882 84.8205 73.563 85.599C73.6297 85.6978 73.6611 85.8178 73.6519 85.9381C73.6426 86.0585 73.5933 86.1717 73.5124 86.2583C73.3928 86.358 73.2545 86.4307 73.1063 86.4716C72.9581 86.5125 72.8034 86.5208 72.6519 86.496C72.5005 86.4712 72.3557 86.4138 72.2268 86.3274C72.098 86.2411 71.9878 86.1277 71.9035 85.9946C71.5992 85.5381 71.3656 85.0348 71.2112 84.5031L71.0458 84.5557C70.6774 84.5259 69.0353 83.9952 68.0153 84.1875L68.0107 84.1428Z" fill="#81F8F8"/>
<path d="M61.9722 81.8942C63.7941 82.5466 65.64 83.2413 66.8042 83.6817C67.5464 83.9627 68.0122 84.1425 68.0122 84.1425L68.0198 84.1849C67.5358 84.2744 67.1893 84.5256 67.1893 85.0711C67.1893 85.0711 62.7793 83.4179 59.2663 82.3974C58.577 82.1957 57.9209 82.0191 57.3418 81.884C55.9957 81.57 53.7503 81.2144 51.6265 80.9083C48.8677 80.5103 46.3181 80.2018 46.2154 80.1869C46.139 79.8617 46.0837 79.5315 46.05 79.1986C46.0317 79.064 45.9903 78.934 45.9277 78.8147C45.9277 78.8147 48.2237 78.9843 51.2671 79.4199C53.9601 79.7801 56.6293 80.312 59.2595 81.0127C59.9179 81.1972 60.5574 81.3966 61.1629 81.6077C61.4294 81.7004 61.702 81.7969 61.9722 81.8942Z" fill="#FFD997"/>
<path d="M51.8251 147.47C51.8516 148.165 44.3091 148.132 43.3691 148.13C43.4725 148.003 43.5367 147.847 43.5534 147.681L43.6591 146.665C43.6779 146.639 43.6968 146.603 43.7164 146.569L43.8576 146.589C43.8576 146.589 48.7651 146.644 49.6447 146.589C50.8014 146.514 51.419 146.225 51.5601 145.817L51.5911 145.832C51.708 146.371 51.7862 146.919 51.8251 147.47Z" fill="#FFD997"/>
<path d="M51.5982 36.3022L51.6436 36.4514C51.6436 36.4514 51.4926 36.4836 51.3008 36.5299L51.3536 36.5126C51.5394 36.4585 51.5952 36.3894 51.5982 36.3022Z" fill="black"/>
<path d="M50.5108 144.265C51.3368 144.84 51.7082 145.395 51.5618 145.821C51.4206 146.229 50.803 146.518 49.6463 146.593C48.7652 146.648 43.8593 146.593 43.8593 146.593L43.7181 146.573C43.9023 146.229 43.9982 145.597 43.4161 144.546C42.4127 142.741 37.1118 136.926 37.1118 136.926C37.1118 136.926 39.5346 131.862 40.9306 129.424H42.988C42.988 129.424 41.0748 137.776 41.7135 139.937C42.3523 142.097 47.8192 142.391 50.5108 144.265Z" fill="#FFD997"/>
<path d="M51.4326 35.7593L51.5314 36.0803C51.4793 35.9806 51.4458 35.8717 51.4326 35.7593Z" fill="black"/>
<path d="M51.0525 36.5961C50.7505 36.6746 49.2178 36.5835 49.5772 36.4885C50.2083 36.2812 50.8278 36.0378 51.433 35.7593C51.4461 35.8717 51.4794 35.9806 51.5311 36.0803L51.5983 36.297V36.3025C51.5983 36.3896 51.5357 36.4595 51.3537 36.5137L51.3009 36.5309C51.2957 36.5315 51.2908 36.5333 51.2865 36.5364C51.2125 36.5537 51.1332 36.5733 51.0525 36.5961Z" fill="black"/>
<path d="M47.7495 30.6454C49.0881 29.7246 50.0938 26.9834 50.0938 26.9834C50.519 27.9975 50.8022 29.0697 50.9349 30.1674C50.9308 30.3178 50.9157 30.4676 50.8896 30.6156L50.3007 30.4735C49.6693 30.4605 49.0407 30.5652 48.4449 30.7828L47.7495 30.6454Z" fill="#FFD997"/>
<path d="M50.0942 26.9858C50.0942 26.9858 49.0886 29.7271 47.7499 30.6479C47.7046 30.6777 47.6616 30.7052 47.6186 30.7303C46.983 31.0796 46.3106 31.3509 45.6148 31.5388C45.1465 31.6727 44.6717 31.7806 44.1924 31.8623L50.0942 26.9858Z" fill="#81F8F8"/>
<path d="M49.841 31.696L49.8076 31.839C49.7858 31.7938 49.7534 31.7549 49.7134 31.7261L49.841 31.696Z" fill="white"/>
<path d="M51.2861 36.5361C50.6997 36.7716 50.0598 36.8235 49.4454 36.6853C49.8546 37.0332 50.2918 37.3439 50.7523 37.6139C50.7906 37.6386 50.8223 37.6728 50.8446 37.7134C50.8669 37.7541 50.8791 37.7999 50.8801 37.8466C50.881 37.8934 50.8708 37.9397 50.8502 37.9813C50.8296 38.0229 50.7993 38.0585 50.7621 38.0849C50.6421 38.1673 50.556 38.2764 50.5945 38.4107C50.6927 38.7545 50.8791 39.8402 50.0585 40.1714C49.2378 40.5027 46.812 40.129 46.812 40.129L46.137 41.8341L42.7153 39.6007C45.0521 40.9557 46.2231 37.6382 46.2231 37.6382C44.3839 38.3353 42.9645 35.9897 43.8003 35.1207C44.6868 34.1375 45.3192 32.9368 45.6387 31.6306L45.6153 31.5388C46.3112 31.3499 46.9836 31.0775 47.6191 30.7271C47.6621 30.702 47.7051 30.6745 47.7504 30.6447L48.4473 30.7821C49.0431 30.5645 49.6717 30.4597 50.3031 30.4728L50.892 30.6148C50.7674 31.352 50.4775 31.8049 50.9977 32.3002C51.613 32.8906 52.0607 33.3812 52.482 33.8365C53.0807 34.4833 52.8769 34.8169 51.8357 35.2927C51.8357 35.2927 51.4167 35.4151 51.4333 35.7582C50.8281 36.0367 50.2086 36.2801 49.5775 36.4874C49.2181 36.5824 50.7485 36.6743 51.0528 36.595C51.1328 36.573 51.2121 36.5534 51.2861 36.5361ZM49.8403 31.6958L49.7134 31.7256C49.6928 31.7109 49.6689 31.7017 49.644 31.6989H49.6387C49.5986 31.6952 49.5584 31.7049 49.5239 31.7264C49.4929 31.7454 49.4647 31.7689 49.4401 31.7963L48.0056 32.1448L49.3367 32.6998C49.3519 32.7346 49.3748 32.7652 49.4036 32.789C49.4323 32.8129 49.466 32.8294 49.502 32.8372C49.6696 32.8592 49.835 32.6205 49.8727 32.3065C49.8964 32.1479 49.8732 31.9856 49.8063 31.841L49.8403 31.6958Z" fill="#FFD997"/>
<path d="M49.8071 31.8357L49.5889 32.7989L49.3375 32.6945C49.2654 32.5496 49.241 32.3842 49.268 32.2235C49.2805 32.0643 49.3398 31.913 49.4379 31.7902L49.7135 31.7227C49.7534 31.7515 49.7856 31.7904 49.8071 31.8357Z" fill="black"/>
<path d="M49.6441 31.696C49.669 31.6988 49.6929 31.7081 49.7136 31.7229L49.438 31.7908C49.4624 31.7631 49.4906 31.7394 49.5218 31.7205L49.6418 31.696H49.6441Z" fill="black"/>
<path d="M49.522 31.7213C49.5567 31.6996 49.5971 31.6899 49.6375 31.6936H49.6428L49.522 31.7213Z" fill="black"/>
<path d="M49.5888 32.7989L49.807 31.8357C49.8739 31.9803 49.8971 32.1426 49.8735 32.3012C49.8357 32.6152 49.6704 32.8507 49.5027 32.8319C49.4667 32.8241 49.433 32.8076 49.4043 32.7837C49.3756 32.7598 49.3526 32.7293 49.3374 32.6945L49.5888 32.7989Z" fill="black"/>
<path d="M48.0068 32.1396L49.4413 31.791C49.3432 31.9139 49.2839 32.0652 49.2715 32.2243C49.2445 32.385 49.2688 32.5505 49.3409 32.6953L48.0068 32.1396Z" fill="white"/>
<path d="M46.2157 80.187C46.3812 80.7622 46.4202 81.3688 46.3297 81.9619C46.2126 82.5443 43.3965 84.0751 41.8472 83.3984C41.2373 83.0652 40.6723 82.6501 40.1666 82.1636C40.1268 82.0444 40.1177 81.9163 40.1402 81.7923C40.2285 81.618 40.2866 81.5058 40.298 81.4783V81.4728C40.5175 81.2671 40.7973 81.1444 41.0922 81.1243L42.4067 81.3857C41.488 81.082 40.6233 80.6238 39.8472 80.0292C39.5074 79.7621 39.1997 79.4534 38.9307 79.11L42.9752 75.3506C42.9752 75.3506 45.3595 77.5988 45.9272 78.8132C45.9898 78.9325 46.0312 79.0625 46.0496 79.1971C46.0834 79.5306 46.1389 79.8613 46.2157 80.187Z" fill="#81F8F8"/>
<path d="M41.0867 126.792C40.3317 127.611 39.8704 128.092 39.8704 128.092C39.6439 127.997 39.3887 127.883 39.1063 127.749C37.2637 126.93 35.4661 126.007 33.7217 124.982L34.6647 123.531L34.8542 123.24C36.7334 120.344 40.3536 114.773 40.9599 113.83C41.7893 112.77 42.7055 111.787 43.6983 110.892C44.7213 109.919 45.6167 109.115 45.6167 109.115C45.3411 108.441 45.135 107.865 45.135 107.865L45.1426 107.861L44.1845 106.742L37.1501 98.5513C38.4095 98.2373 39.7315 97.9594 41.098 97.7451C43.8328 97.3104 46.608 97.2192 49.3638 97.4735C49.3638 97.4735 54.9591 105.736 54.9591 108.221C54.9591 111.544 44.673 122.926 41.0867 126.792Z" fill="#81F8F8"/>
<path d="M41.0977 40.8201C40.6663 41.2349 40.1148 41.4892 39.5296 41.5434C38.9443 41.5975 38.3583 41.4483 37.8633 41.1191C38.4232 40.5929 38.859 39.9396 39.137 39.21C39.5825 38.1823 39.7758 37.0556 39.6994 35.9311L39.3861 35.8612C41.3876 34.4223 44.1917 31.8632 44.1917 31.8632C44.671 31.7816 45.1458 31.6736 45.6141 31.5398L45.6375 31.6316C45.3181 32.9378 44.6856 34.1385 43.7991 35.1217C42.9633 35.9852 44.3835 38.3355 46.2219 37.6392C46.2219 37.6392 45.0509 40.9527 42.7142 39.6017L42.4439 39.4251C42.3955 39.3929 42.3457 39.3553 42.2974 39.3184L42.1132 39.4973C41.846 39.9926 41.503 40.4394 41.0977 40.8201Z" fill="#81F8F8"/>
<path d="M34.7784 30.5881C33.8203 29.4106 34.1125 26.6749 35.3386 24.4196C35.4007 24.3584 35.4592 24.2934 35.5137 24.2249C35.6823 24.4528 35.8932 24.6432 36.134 24.7846C36.3748 24.9259 36.6405 25.0155 36.9153 25.0478C37.1901 25.0801 37.4683 25.0545 37.7334 24.9726C37.9985 24.8907 38.245 24.7541 38.4582 24.5711C40.077 23.2146 38.7119 22.2161 38.7119 22.2161C39.0282 22.1377 39.321 21.9792 39.5642 21.7547C39.8074 21.5303 39.9934 21.2468 40.1056 20.9294L40.1811 20.9569C40.8844 20.9532 41.5815 21.0927 42.2332 21.3675C43.6776 21.7435 47.1755 23.9038 48.3487 24.5263C48.3487 24.5263 41.3121 30.2395 39.9924 31.8559C38.6727 33.4722 35.9607 33.7697 35.9607 33.7697C35.5809 33.4238 35.2727 33.0013 35.0547 32.5278C34.9037 31.9846 34.7097 30.6438 34.7097 30.6438L34.7784 30.5881Z" fill="black"/>
<path d="M30.7427 42.5901C29.9024 43.1106 26.7949 43.4395 25.1067 46.6211C25.0538 46.1752 24.748 43.5541 24.748 42.5705C24.748 41.4927 31.3845 36.9342 32.9073 36.6257C34.4302 36.3172 36.5495 37.9052 36.5495 37.9052C36.3496 37.9526 36.1428 37.958 35.9409 37.9212C35.7391 37.8844 35.5463 37.8061 35.3739 37.6909C35.3739 37.6909 34.6604 40.9526 39.09 39.1895L39.1376 39.2099C38.8592 39.9384 38.4234 40.5905 37.8639 41.1159C38.3589 41.445 38.9449 41.5942 39.5302 41.5401C40.1155 41.486 40.6669 41.2316 41.0983 40.8168C41.8865 42.0069 42.93 48.1534 44.1659 51.2754C44.2089 51.3751 44.2497 51.4771 44.2905 51.5792C45.167 53.6257 46.2995 58.2587 47.0439 61.8187C46.1697 58.6198 44.7789 57.1032 42.4445 55.1666C39.315 52.5769 38.8144 48.7744 36.7412 45.7348C35.4192 43.8006 32.7473 42.8664 30.7427 42.5901Z" fill="#FFD997"/>
<path d="M37.1502 98.5513L44.1845 106.742C44.1138 108.134 43.9514 109.52 43.6983 110.889C42.7055 111.784 41.7893 112.767 40.9599 113.827C40.3559 114.769 36.7319 120.342 34.8542 123.236L34.5477 123.137C34.4468 120.946 34.4579 118.752 34.5809 116.562C34.9584 114.025 36.1664 113.366 36.0871 111.372C36.0116 109.4 34.8686 99.4101 34.8421 99.191C35.582 98.9665 36.3514 98.7533 37.1502 98.5513Z" fill="#81F8F8"/>
<path d="M39.1758 148.119C36.6209 147.57 34.7915 146.454 33.2996 145.843C33.0127 145.723 32.673 145.566 32.2947 145.382C30.6066 144.562 28.1906 143.204 26.7493 142.375C26.4076 142.179 26.1441 141.864 26.0057 141.485C25.8674 141.106 25.8633 140.688 25.9943 140.306L26.3129 139.377C26.3129 139.377 31.1328 142.021 33.7187 143.562C36.5794 145.265 40.7651 146.868 43.4106 146.915C43.5083 146.851 43.5923 146.767 43.6575 146.669L43.5518 147.684C43.5351 147.85 43.4709 148.006 43.3676 148.133C43.2948 148.225 43.204 148.3 43.1011 148.353C42.9983 148.405 42.8858 148.435 42.7711 148.439C41.5647 148.481 40.3578 148.374 39.1758 148.119Z" fill="#FFD997"/>
<path d="M42.9761 75.352L38.9308 79.1098L37.5159 80.4239L32.8281 77.1599C32.8281 77.1599 34.092 72.4577 38.2392 70.5776C39.1573 71.2841 42.9761 75.352 42.9761 75.352Z" fill="#FFD997"/>
<path d="M42.444 39.4212C42.531 39.4851 42.6212 39.5441 42.7143 39.5978L46.136 41.8312L45.5743 43.2599C45.6208 45.4621 46.3424 47.5913 47.6339 49.3373C48.8955 50.7959 53.1001 55.1173 50.4425 61.0472C50.4425 61.0472 49.9631 69.8054 49.3553 73.2712C48.657 70.8041 48.1289 68.2883 47.7751 65.7431C47.7706 65.703 47.763 65.6606 47.7585 65.6182C47.6109 64.3364 47.3732 63.0676 47.0473 61.822C46.2991 58.262 45.1666 53.6289 44.2908 51.5824C44.25 51.4804 44.2092 51.3783 44.1662 51.2786C42.9303 48.1567 41.8869 42.0101 41.0986 40.8201C41.5043 40.4382 41.8473 39.9901 42.1141 39.4934L42.2983 39.3145C42.3459 39.3513 42.3957 39.389 42.444 39.4212Z" fill="black"/>
<path d="M39.8528 80.0322C40.6289 80.6268 41.4935 81.0851 42.4123 81.3887L41.0978 81.1273C40.8029 81.1474 40.5231 81.2702 40.3035 81.4758V81.4813C40.2219 81.5672 40.1669 81.6766 40.1458 81.7953C39.624 82.8158 37.9766 85.9825 37.4398 86.2863C36.8011 86.6521 35.048 85.5571 35.5365 84.3238C36.025 83.0906 39.698 80.0966 39.698 80.0966L39.8528 80.0322Z" fill="#FFD997"/>
<path d="M41.5146 128.478C41.3569 128.701 41.1583 129.027 40.9303 129.424C39.535 131.857 37.1092 136.922 37.1092 136.922C37.1092 136.922 42.4101 142.74 43.4135 144.542C43.9978 145.593 43.902 146.225 43.7155 146.569C43.6958 146.603 43.677 146.639 43.6581 146.665C43.5929 146.764 43.5089 146.848 43.4112 146.912C40.7687 146.865 36.58 145.263 33.7193 143.559C31.1334 142.018 26.3135 139.374 26.3135 139.374C26.54 137.052 29.141 133.638 29.141 133.638L32.4426 123.692C32.7311 124.248 33.1767 124.698 33.7193 124.982C35.4637 126.007 37.2613 126.93 39.1039 127.748C39.3863 127.883 39.64 127.997 39.868 128.092C40.3703 128.367 40.9367 128.491 41.5033 128.45L41.5146 128.478Z" fill="#FFD997"/>
<path d="M35.3351 24.4198C35.2307 24.5581 35.1003 24.673 34.9518 24.7573C34.8034 24.8417 34.6401 24.8938 34.4717 24.9106C34.3033 24.9273 34.1334 24.9083 33.9723 24.8547C33.8112 24.8011 33.6622 24.714 33.5344 24.5988C32.5454 23.6654 33.5805 22.2634 33.5805 22.2634C33.5805 22.2634 31.8727 21.9274 32.2774 20.3472C32.682 18.767 34.0305 19.7396 34.0305 19.7396C34.3846 17.0031 37.6937 17.1679 38.0433 19.0849C38.0433 19.0849 40.3468 19.3204 40.1671 20.6259C40.1531 20.7289 40.1306 20.8306 40.0999 20.9297C39.9874 21.2473 39.8011 21.531 39.5575 21.7555C39.3139 21.98 39.0207 22.1383 38.7039 22.2163C38.7039 22.2163 40.069 23.2148 38.4502 24.5713C38.237 24.7544 37.9905 24.8909 37.7254 24.9728C37.4603 25.0547 37.1821 25.0803 36.9073 25.048C36.6325 25.0157 36.3668 24.9262 36.126 24.7848C35.8852 24.6434 35.6743 24.4531 35.5057 24.2251C35.4526 24.2935 35.3957 24.3585 35.3351 24.4198Z" fill="#81F8F8"/>
<path d="M39.7001 35.9349C39.7764 37.0594 39.5831 38.1861 39.1376 39.2138L39.09 39.1934C34.6604 40.9565 35.3739 37.6948 35.3739 37.6948C35.5463 37.81 35.7391 37.8883 35.9409 37.9251C36.1428 37.9619 36.3496 37.9565 36.5494 37.9091C37.1665 37.6694 37.7059 37.2534 38.1055 36.7089L38.0911 36.6791C38.5433 36.4445 38.9756 36.1709 39.3837 35.8611L39.7001 35.9349Z" fill="#81F8F8"/>
<path d="M39.1757 148.119L33.2867 147.604C33.0522 147.584 32.8322 147.478 32.665 147.306C32.4979 147.134 32.3943 146.906 32.3724 146.662L32.2622 145.457L32.2977 145.379C32.6752 145.563 33.0165 145.72 33.3034 145.839C34.7915 146.454 36.6208 147.57 39.1757 148.119Z" fill="#FFD997"/>
<path d="M44.1924 31.863C44.6717 31.7812 45.1465 31.6733 45.6148 31.5395C46.3107 31.3506 46.9832 31.0782 47.6186 30.7278C47.6616 30.7027 47.7046 30.6753 47.7499 30.6454C49.0886 29.7246 50.0942 26.9834 50.0942 26.9834C50.5194 27.9975 50.8027 29.0697 50.9353 30.1674C50.9312 30.3178 50.9161 30.4676 50.89 30.6156C50.7654 31.3527 50.4755 31.8057 50.9957 32.301C51.611 32.8913 52.0587 33.3819 52.48 33.8372C53.0787 34.4841 52.8749 34.8177 51.8337 35.2934C51.8337 35.2934 51.4147 35.4159 51.4313 35.7589C51.4445 35.8714 51.4778 35.9803 51.5295 36.08C51.5656 36.1468 51.5885 36.2205 51.5967 36.2966V36.3021C51.5967 36.3893 51.534 36.4591 51.352 36.5133L51.2992 36.5306C51.294 36.5311 51.2891 36.533 51.2849 36.5361C50.6985 36.7716 50.0586 36.8234 49.4442 36.6852C49.8534 37.0332 50.2906 37.3439 50.7511 37.6139C50.7893 37.6385 50.821 37.6727 50.8433 37.7134C50.8657 37.754 50.8779 37.7998 50.8788 37.8466C50.8798 37.8934 50.8695 37.9397 50.8489 37.9813C50.8283 38.0229 50.7981 38.0585 50.7609 38.0849C50.6408 38.1673 50.5548 38.2764 50.5933 38.4106C50.6914 38.7545 50.8779 39.8401 50.0572 40.1714C49.2365 40.5027 46.8107 40.129 46.8107 40.129L46.1358 41.834L45.5748 43.2596C45.6213 45.4618 46.3429 47.591 47.6344 49.3371C48.896 50.7956 53.1006 55.117 50.443 61.0469C50.443 61.0469 49.9636 69.8051 49.3558 73.2709C49.3513 73.2976 49.346 73.3227 49.3415 73.3494" stroke="black" stroke-width="0.980065" stroke-linecap="round" stroke-linejoin="round"/>
<path d="M51.5185 34.679C51.3516 34.7684 51.1909 34.8699 51.0376 34.9828" stroke="black" stroke-width="0.980065" stroke-linecap="round" stroke-linejoin="round"/>
<path d="M49.522 31.7212C49.0478 31.8256 48.314 31.9928 48.1094 32.0776" stroke="black" stroke-width="0.980065" stroke-linecap="round" stroke-linejoin="round"/>
<path d="M49.9385 31.6316L49.644 31.6963" stroke="black" stroke-width="0.980065" stroke-linecap="round" stroke-linejoin="round"/>
<path d="M50.3026 30.4735C49.6712 30.4605 49.0426 30.5652 48.4468 30.7828" stroke="black" stroke-width="0.980065" stroke-linecap="round" stroke-linejoin="round"/>
<path d="M35.462 24.1953C35.419 24.2738 35.3759 24.3452 35.3352 24.4198C34.109 26.6751 33.8169 29.4109 34.775 30.5884C35.0046 30.8518 35.3026 31.0406 35.633 31.1321C35.9635 31.2236 36.3123 31.2139 36.6375 31.1041L38.1702 30.6331L37.5383 31.9103" stroke="black" stroke-width="0.980065" stroke-linecap="round" stroke-linejoin="round"/>
<path d="M44.1923 31.8632L50.0941 26.986C50.0941 26.986 49.5218 25.1491 48.3463 24.5289C47.1708 23.9088 43.6729 21.7461 42.2308 21.3701C41.5791 21.0953 40.882 20.9558 40.1787 20.9595" stroke="black" stroke-width="0.980065" stroke-linecap="round" stroke-linejoin="round"/>
<path d="M34.7026 30.6433C34.7026 30.6433 34.8944 31.9849 35.0477 32.5273C35.2656 33.0008 35.5739 33.4233 35.9537 33.7692C35.9537 33.7692 35.7355 35.2434 36.1907 35.8102C36.9759 36.7883 37.1436 36.7239 37.5497 36.8111C37.7365 36.8174 37.9212 36.7698 38.0835 36.6737C38.5381 36.4413 38.973 36.1695 39.3836 35.8612C41.3851 34.4223 44.1892 31.8632 44.1892 31.8632" stroke="black" stroke-width="0.980065" stroke-linecap="round" stroke-linejoin="round"/>
<path d="M45.6378 31.6316C45.3183 32.9377 44.6858 34.1385 43.7993 35.1217C42.9635 35.9852 44.383 38.3355 46.2221 37.6392C46.2221 37.6392 45.0511 40.9527 42.7144 39.6017C42.6213 39.548 42.5311 39.489 42.4441 39.4251C42.3958 39.3929 42.346 39.3552 42.2976 39.3183C41.7562 38.874 41.2776 38.3526 40.876 37.7695" stroke="black" stroke-width="0.980065" stroke-linecap="round" stroke-linejoin="round"/>
<path d="M38.1055 36.7051C37.7059 37.2496 37.1665 37.6656 36.5494 37.9053C36.3496 37.9527 36.1428 37.9581 35.9409 37.9213C35.7391 37.8845 35.5463 37.8062 35.3739 37.691C35.3739 37.691 34.6604 40.9527 39.09 39.1896" stroke="black" stroke-width="0.980065" stroke-linecap="round" stroke-linejoin="round"/>
<path d="M39.6994 35.9351C39.7758 37.0596 39.5825 38.1863 39.137 39.214C38.8581 39.9411 38.4223 40.5918 37.8633 41.1161C38.3583 41.4452 38.9443 41.5944 39.5296 41.5403C40.1148 41.4861 40.6663 41.2318 41.0977 40.817C41.5033 40.4351 41.8463 39.987 42.1132 39.4903" stroke="black" stroke-width="0.980065" stroke-linecap="round" stroke-linejoin="round"/>
<path d="M46.1363 41.8311L42.7146 39.5978L42.4443 39.4211" stroke="black" stroke-width="0.980065" stroke-linecap="round" stroke-linejoin="round"/>
<path d="M36.5495 37.9052C36.5495 37.9052 34.4302 36.3172 32.9073 36.6257C31.3845 36.9342 24.748 41.4927 24.748 42.5705C24.748 43.5541 25.0538 46.1752 25.1067 46.6211L25.1142 46.6894" stroke="black" stroke-width="0.980065" stroke-linecap="round" stroke-linejoin="round"/>
<path d="M47.7715 65.7429C48.1245 68.2881 48.6518 70.8039 49.3494 73.2711C50.2924 76.7361 51.2649 79.4176 51.2649 79.4176" stroke="black" stroke-width="0.980065" stroke-linecap="round" stroke-linejoin="round"/>
<path d="M28.3418 42.6976C29.1202 42.4494 29.9467 42.4123 30.7427 42.5901C32.7472 42.8664 35.4192 43.8005 36.7412 45.7348C38.8144 48.7743 39.315 52.5729 42.4444 55.1697C44.7812 57.1063 46.1696 58.6237 47.0439 61.8218C47.3699 63.0674 47.6076 64.3363 47.7551 65.618" stroke="black" stroke-width="0.980065" stroke-linecap="round" stroke-linejoin="round"/>
<path d="M44.291 51.5825C45.1676 53.629 46.3001 58.2621 47.0445 61.8221C47.3775 63.4078 47.6334 64.7815 47.7557 65.6183C47.7602 65.6607 47.7678 65.7031 47.7723 65.7431" stroke="black" stroke-width="0.980065" stroke-linecap="round" stroke-linejoin="round"/>
<path d="M41.0981 40.8176C41.8864 42.0077 42.9298 48.1542 44.1657 51.2762" stroke="black" stroke-width="0.980065" stroke-linecap="round" stroke-linejoin="round"/>
<path d="M32.9292 40.8176C34.0474 40.8325 41.4917 44.9326 44.1659 51.2785C44.2089 51.3782 44.2497 51.4803 44.2904 51.5823" stroke="black" stroke-width="0.980065" stroke-linecap="round" stroke-linejoin="round"/>
<path d="M32.4377 65.7398C32.1069 65.5733 31.7476 65.4769 31.3807 65.4564C29.4486 65.4062 26.791 65.4564 26.791 65.4564" stroke="black" stroke-width="0.980065" stroke-linecap="round" stroke-linejoin="round"/>
<path d="M26.4043 73.873C28.4494 75.1618 30.599 76.2622 32.8286 77.1614L37.5164 80.4254L38.9305 79.1097L42.975 75.3504C42.975 75.3504 39.1585 71.2825 38.2389 70.5776C38.2389 70.5776 38.0955 68.8702 36.7901 68.721C35.7202 68.5962 34.0653 66.5128 32.4398 65.738" stroke="black" stroke-width="0.980065" stroke-linecap="round" stroke-linejoin="round"/>
<path d="M30.7426 42.5901C29.9023 43.1105 26.7947 43.4395 25.1066 46.6211C24.5443 47.7211 24.1969 48.9259 24.0843 50.1661C23.3587 56.7154 21.0409 58.1221 21.3308 59.4786C21.3917 60.0803 21.6085 60.6536 21.9582 61.1373C21.9582 61.1373 20.4112 65.556 20.7502 67.6669C21.0892 69.7778 22.9239 69.726 23.3097 71.0824C23.4984 71.745 24.7004 72.778 26.4052 73.8708" stroke="black" stroke-width="0.980065" stroke-linecap="round" stroke-linejoin="round"/>
<path d="M26.6821 61.7771C28.1544 61.8195 30.6882 64.0599 31.8395 65.1526C32.1891 65.4862 32.4118 65.7123 32.4382 65.7398" stroke="black" stroke-width="0.980065" stroke-linecap="round" stroke-linejoin="round"/>
<path d="M36.9537 54.8213H34.8465C34.8465 54.8213 32.7801 64.1471 31.8394 65.1527" stroke="black" stroke-width="0.980065" stroke-linecap="round" stroke-linejoin="round"/>
<path d="M32.8286 77.1616C32.8286 77.1616 34.0925 72.4594 38.2397 70.5793" stroke="black" stroke-width="0.980065" stroke-linecap="round" stroke-linejoin="round"/>
<path d="M26.4042 73.8708C26.3876 74.0702 25.4415 85.6859 25.1735 93.4707C24.9032 101.226 24.4525 102.978 25.6265 102.98C28.5712 101.409 31.6561 100.14 34.8375 99.1918C35.5774 98.9652 36.3468 98.7509 37.1456 98.5489C38.4049 98.2349 39.7269 97.957 41.0934 97.7427C43.8283 97.308 46.6034 97.2168 49.3592 97.4711C51.4435 97.6281 53.4993 98.0667 55.4747 98.7758L54.9741 96.438C54.0258 92.0295 52.0296 82.7563 51.6197 80.906" stroke="black" stroke-width="0.980065" stroke-linecap="round" stroke-linejoin="round"/>
<path d="M45.5742 43.2598C45.5742 43.2598 54.2741 54.8087 55.4813 57.5271C56.4482 60.1922 57.181 62.9428 57.6708 65.7453C58.7065 70.7637 59.2394 75.8802 59.2609 81.0128" stroke="black" stroke-width="0.980065" stroke-linecap="round" stroke-linejoin="round"/>
<path d="M59.264 82.4023C59.264 82.4023 60.6313 95.6563 61.1628 97.0928C61.1628 97.0928 56.7574 96.4554 54.9809 96.4405H54.959" stroke="black" stroke-width="0.980065" stroke-linecap="round" stroke-linejoin="round"/>
<path d="M48.3464 24.5266C48.3464 24.5266 41.3098 30.2398 39.9878 31.853C38.6657 33.4662 35.9561 33.7668 35.9561 33.7668" stroke="black" stroke-width="0.980065" stroke-linecap="round" stroke-linejoin="round"/>
<path d="M35.3351 24.4198C35.2307 24.5581 35.1003 24.673 34.9518 24.7573C34.8034 24.8417 34.6401 24.8938 34.4717 24.9106C34.3033 24.9273 34.1334 24.9083 33.9723 24.8547C33.8112 24.8011 33.6622 24.714 33.5344 24.5988C32.5454 23.6654 33.5805 22.2634 33.5805 22.2634C33.5805 22.2634 31.8727 21.9274 32.2774 20.3472C32.682 18.767 34.0305 19.7396 34.0305 19.7396C34.3846 17.0031 37.6937 17.1679 38.0433 19.0849C38.0433 19.0849 40.3468 19.3204 40.1671 20.6259C40.1531 20.7289 40.1306 20.8306 40.0999 20.9297C39.9874 21.2473 39.8011 21.531 39.5575 21.7555C39.3139 21.98 39.0207 22.1383 38.7039 22.2163C38.7039 22.2163 40.069 23.2148 38.4502 24.5713C38.237 24.7544 37.9905 24.8909 37.7254 24.9728C37.4603 25.0547 37.1821 25.0803 36.9073 25.048C36.6325 25.0157 36.3668 24.9262 36.126 24.7848C35.8852 24.6434 35.6743 24.4531 35.5057 24.2251C35.4526 24.2935 35.3957 24.3585 35.3351 24.4198Z" stroke="black" stroke-width="0.980065" stroke-linecap="round" stroke-linejoin="round"/>
<path d="M42.4203 81.3913H42.4127C41.494 81.0877 40.6294 80.6294 39.8533 80.0348C39.5109 79.7666 39.2011 79.4561 38.9307 79.1101" stroke="black" stroke-width="0.980065" stroke-linecap="round" stroke-linejoin="round"/>
<path d="M40.3037 81.476C40.5233 81.2703 40.8031 81.1475 41.098 81.1274L42.4124 81.3888" stroke="black" stroke-width="0.980065" stroke-linecap="round" stroke-linejoin="round"/>
<path d="M42.9758 75.3523C42.9758 75.3523 45.3601 77.6005 45.9278 78.8149C45.9904 78.9342 46.0318 79.0643 46.0501 79.1988C46.0838 79.5317 46.1391 79.8619 46.2155 80.1871C46.381 80.7624 46.42 81.369 46.3295 81.962C46.2125 82.5445 43.3963 84.0752 41.8471 83.3985C41.2372 83.0654 40.6721 82.6502 40.1664 82.1637C40.1266 82.0445 40.1175 81.9165 40.14 81.7924C40.1612 81.6737 40.2161 81.5643 40.2978 81.4784" stroke="black" stroke-width="0.980065" stroke-linecap="round" stroke-linejoin="round"/>
<path d="M71.0486 84.5531C70.6801 84.5233 69.038 83.9926 68.018 84.185C67.534 84.2744 67.1875 84.5256 67.1875 85.0712C67.1875 86.7637 69.2826 87.6248 70.5661 88.088C71.7349 88.5087 73.3649 88.9648 73.6548 87.3414C73.7084 86.9906 73.7148 86.6336 73.6737 86.2809" stroke="black" stroke-width="0.980065" stroke-linecap="round" stroke-linejoin="round"/>
<path d="M70.7644 80.2412C71.4629 81.1684 72.096 82.147 72.6586 83.1693C72.8865 84.0069 73.1899 84.8204 73.5646 85.5988C73.6313 85.6977 73.6627 85.8176 73.6535 85.938C73.6443 86.0584 73.595 86.1716 73.5141 86.2582C73.3944 86.3579 73.2561 86.4306 73.1079 86.4715C72.9598 86.5124 72.805 86.5207 72.6536 86.4959C72.5021 86.4711 72.3573 86.4137 72.2285 86.3273C72.0996 86.241 71.9895 86.1276 71.9052 85.9945C71.6008 85.538 71.3672 85.0347 71.2128 84.503C71.0998 84.1416 71.0291 83.7673 71.0022 83.3883C70.633 83.733 70.1602 83.9337 69.6645 83.9564C69.1689 83.979 68.681 83.822 68.2842 83.5123" stroke="black" stroke-width="0.980065" stroke-linecap="round" stroke-linejoin="round"/>
<path d="M57.6792 65.7429C57.6792 65.7429 64.5338 70.0942 65.042 71.6775C65.5111 72.9533 66.0887 74.183 66.7679 75.3521L71.0034 79.7811L70.6493 80.1045L66.8449 83.5671" stroke="black" stroke-width="0.980065" stroke-linecap="round" stroke-linejoin="round"/>
<path d="M66.7684 75.3523C66.7684 75.3523 63.3377 79.7263 61.9727 81.8945" stroke="black" stroke-width="0.980065" stroke-linecap="round" stroke-linejoin="round"/>
<path d="M49.364 97.4734C49.364 97.4734 54.9593 105.736 54.9593 108.221C54.9593 111.544 44.6732 122.926 41.0869 126.792C40.3319 127.611 39.8706 128.092 39.8706 128.092" stroke="black" stroke-width="0.980065" stroke-linecap="round" stroke-linejoin="round"/>
<path d="M37.1499 98.5513L44.1842 106.742L45.1423 107.857L47.0865 110.12" stroke="black" stroke-width="0.980065" stroke-linecap="round" stroke-linejoin="round"/>
<path d="M45.1353 107.862C45.1353 107.862 45.3414 108.437 45.6169 109.112C45.8494 109.727 46.1271 110.322 46.4474 110.892" stroke="black" stroke-width="0.980065" stroke-linecap="round" stroke-linejoin="round"/>
<path d="M43.6985 110.892C42.7058 111.787 41.7895 112.77 40.9601 113.83C40.3561 114.772 36.7321 120.345 34.8544 123.239L34.6649 123.531L33.7212 124.982" stroke="black" stroke-width="0.980065" stroke-linecap="round" stroke-linejoin="round"/>
<path d="M45.6172 109.112C45.6172 109.112 44.7218 109.916 43.6987 110.889" stroke="black" stroke-width="0.980065" stroke-linecap="round" stroke-linejoin="round"/>
<path d="M34.8421 99.1912C34.8686 99.4102 36.0101 109.396 36.0871 111.372C36.1626 113.366 34.9546 114.025 34.5809 116.562C34.4579 118.752 34.4468 120.946 34.5477 123.137" stroke="black" stroke-width="0.980065" stroke-linecap="round" stroke-linejoin="round"/>
<path d="M44.185 106.742C44.1143 108.134 43.9518 109.52 43.6987 110.889" stroke="black" stroke-width="0.980065" stroke-linecap="round" stroke-linejoin="round"/>
<path d="M41.0768 126.782L41.0867 126.792C41.4309 127.193 42.1255 128.261 41.5057 128.45C40.9391 128.491 40.3727 128.367 39.8704 128.091C39.6439 127.997 39.3887 127.883 39.1063 127.748C37.2637 126.93 35.4661 126.007 33.7216 124.982C33.1791 124.698 32.7335 124.248 32.4449 123.692C32.0546 122.597 34.186 123.13 34.6624 123.528" stroke="black" stroke-width="0.980065" stroke-linecap="round" stroke-linejoin="round"/>
<path d="M32.445 123.692L29.1434 133.638C29.1434 133.638 26.5432 137.052 26.3159 139.374C26.3159 139.374 31.1358 142.018 33.7217 143.559C36.5824 145.262 40.7681 146.865 43.4136 146.912C43.5113 146.848 43.5954 146.764 43.6605 146.665C43.6794 146.638 43.6983 146.603 43.7179 146.569C43.9021 146.225 43.998 145.593 43.4159 144.542C42.4125 142.736 37.1117 136.922 37.1117 136.922C37.1117 136.922 39.5345 131.862 40.9305 129.424C41.157 129.031 41.357 128.701 41.5148 128.478" stroke="black" stroke-width="0.980065" stroke-linecap="round" stroke-linejoin="round"/>
<path d="M26.3158 139.374L25.9972 140.303C25.8662 140.685 25.8703 141.103 26.0086 141.482C26.147 141.861 26.4106 142.176 26.7522 142.371C28.1935 143.2 30.6095 144.559 32.2977 145.379C32.6752 145.563 33.0157 145.719 33.3026 145.84C34.7944 146.454 36.6246 147.567 39.1787 148.116C40.3619 148.369 41.5699 148.474 42.7771 148.43C42.8917 148.426 43.0042 148.397 43.1071 148.344C43.2099 148.291 43.3008 148.216 43.3735 148.124C43.4769 147.997 43.5411 147.841 43.5577 147.676L43.6634 146.66" stroke="black" stroke-width="0.980065" stroke-linecap="round" stroke-linejoin="round"/>
<path d="M40.9302 129.424H42.9876C42.9876 129.424 41.0744 137.776 41.7131 139.937C42.3518 142.097 47.8188 142.391 50.5104 144.261C51.3363 144.836 51.7078 145.392 51.5613 145.817C51.4201 146.225 50.8026 146.514 49.6459 146.589C48.7648 146.644 43.8588 146.589 43.8588 146.589" stroke="black" stroke-width="0.980065" stroke-linecap="round" stroke-linejoin="round"/>
<path d="M51.5926 145.835C51.709 146.374 51.7867 146.922 51.8251 147.473C51.8516 148.168 44.3091 148.135 43.3691 148.133" stroke="black" stroke-width="0.980065" stroke-linecap="round" stroke-linejoin="round"/>
<path d="M39.2981 148.13L39.1757 148.119L33.2867 147.604C33.0522 147.584 32.8322 147.478 32.665 147.306C32.4979 147.134 32.3943 146.906 32.3724 146.662L32.2622 145.458" stroke="black" stroke-width="0.980065" stroke-linecap="round" stroke-linejoin="round"/>
<path d="M45.9277 78.8147C45.9277 78.8147 48.2237 78.9843 51.2671 79.4199C53.9601 79.7801 56.6293 80.312 59.2595 81.0127C59.9179 81.1972 60.5574 81.3966 61.1629 81.6077C61.4309 81.7027 61.702 81.7969 61.9722 81.8942C63.7941 82.5466 65.64 83.2413 66.8042 83.6817C67.5464 83.9627 68.0122 84.1425 68.0122 84.1425" stroke="black" stroke-width="0.980065" stroke-linecap="round" stroke-linejoin="round"/>
<path d="M46.2124 80.1868C46.3181 80.1985 48.8677 80.5102 51.6265 80.9082C53.7503 81.2143 55.9957 81.5707 57.3419 81.8839C57.9209 82.019 58.577 82.1979 59.2664 82.3973C62.7794 83.4178 67.1893 85.071 67.1893 85.071" stroke="black" stroke-width="0.980065" stroke-linecap="round" stroke-linejoin="round"/>
<path d="M119.693 115.186L119.685 115.182L73.6566 87.3415L73.6543 87.3391" stroke="black" stroke-width="0.980065" stroke-linecap="round" stroke-linejoin="round"/>
<path d="M73.5664 85.5986L120.948 114.342" stroke="black" stroke-width="0.980065" stroke-linecap="round" stroke-linejoin="round"/>
<path d="M97.318 126.735C96.495 128.41 95.8054 130.153 95.2561 131.945C94.3109 134.751 93.4343 137.832 93.506 138.906C93.6404 140.922 96.1833 144.338 96.9111 144.679C97.6389 145.021 99.2516 144.375 100.088 146.608C100.134 146.712 100.159 146.825 100.163 146.94C100.166 147.054 100.148 147.169 100.109 147.276C100.069 147.383 100.01 147.481 99.9333 147.564C99.8571 147.647 99.7657 147.713 99.6646 147.759C98.252 148.622 94.2678 148.137 93.5015 146.912C92.5057 145.321 88.172 141.196 88.2097 140.136C88.2475 139.075 89.6253 136.508 89.4479 134.505V134.495C89.266 132.488 87.1897 131.995 86.024 130.293C86.024 130.293 84.2762 130.439 84.2762 129.379C84.2946 128.692 84.4693 128.019 84.7858 127.416C84.5623 127.419 84.3415 127.366 84.1416 127.262C83.9418 127.158 83.7687 127.006 83.6367 126.818C83.5207 126.621 83.4525 126.397 83.4381 126.167C83.3921 125.77 83.4931 125.37 83.7205 125.049C83.9009 124.802 84.1437 124.611 84.4219 124.499" stroke="black" stroke-width="0.980065" stroke-linecap="round" stroke-linejoin="round"/>
<path d="M89.4498 134.505C86.4925 135.212 82.1089 136.514 81.1199 137.322C79.6975 138.48 78.5 142.295 78.6284 143.053C78.7567 143.811 80.0742 144.764 78.8602 146.598C77.6461 148.433 74.5454 143.117 75.2014 141.496C75.8575 139.874 76.648 134.259 77.4498 133.736C78.2517 133.213 80.876 132.974 82.263 131.784C83.6499 130.594 82.9334 128.677 83.5842 126.858" stroke="black" stroke-width="0.980065" stroke-linecap="round" stroke-linejoin="round"/>
<path d="M95.2534 131.945C97.0396 131.659 98.8399 131.478 100.646 131.403C102.609 131.403 106.716 133.703 108.296 133.902" stroke="black" stroke-width="0.980065" stroke-linecap="round" stroke-linejoin="round"/>
<path d="M114.176 134.295C114.176 134.295 116.733 133.471 118.912 132.575L118.919 132.57C119.747 132.247 120.549 131.856 121.318 131.403" stroke="black" stroke-width="0.980065" stroke-linecap="round" stroke-linejoin="round"/>
<path d="M116.954 130.939C116.954 130.939 115.053 132.98 113.987 134.273C113.729 134.561 113.5 134.876 113.302 135.211C111.967 137.29 110.531 139.297 108.999 141.224C108.204 142.336 107.521 143.531 106.96 144.788" stroke="black" stroke-width="0.980065" stroke-linecap="round" stroke-linejoin="round"/>
<path d="M107.814 130.939C108.204 131.88 108.422 132.888 108.456 133.912C108.45 134.184 108.397 134.452 108.298 134.704C107.749 136.008 105.903 140.12 105.903 140.12C105.903 140.12 104.386 140.19 104.318 140.737C104.317 140.923 104.358 141.107 104.438 141.273C104.518 141.44 104.634 141.584 104.778 141.696C104.778 141.696 103.087 141.903 103.075 142.864C103.111 143.545 103.312 144.207 103.657 144.788C103.542 145.137 103.5 145.508 103.533 145.876C103.566 146.244 103.674 146.6 103.849 146.921C104.385 147.596 106.092 148.082 107.533 148.099C108.929 148.122 110.074 147.706 109.662 146.607C108.825 144.375 107.684 145.129 106.957 144.788" stroke="black" stroke-width="0.980065" stroke-linecap="round" stroke-linejoin="round"/>
<path d="M106.414 146.021C107.16 146.215 107.35 146.86 107.536 148.102" stroke="black" stroke-width="0.980065" stroke-linecap="round" stroke-linejoin="round"/>
<path d="M108.008 145.66C108.392 145.848 108.717 146.144 108.946 146.516C109.175 146.887 109.298 147.318 109.301 147.759" stroke="black" stroke-width="0.980065" stroke-linecap="round" stroke-linejoin="round"/>
<path d="M124.661 127.517C124.668 127.626 124.917 131.141 125.102 131.806C126.1 135.406 131.884 141.844 131.884 141.844" stroke="black" stroke-width="0.980065" stroke-linecap="round" stroke-linejoin="round"/>
<path d="M119.182 132.71C119.031 132.631 118.95 132.585 118.919 132.57C118.902 132.563 118.902 132.565 118.912 132.575C119.063 132.69 121.536 134.181 121.869 135.281C122.281 136.636 124.814 140.131 124.814 140.131C124.752 140.789 124.821 141.453 125.015 142.083C125.317 142.541 126.846 142.083 126.846 142.083C127.077 141.991 127.33 141.98 127.568 142.051C127.805 142.121 128.014 142.27 128.163 142.475C128.762 143.204 129.401 144.106 129.401 144.106C129.536 144.447 129.739 144.755 129.997 145.01C130.255 145.264 130.562 145.458 130.898 145.58C132.533 145.858 137.118 142.465 135.071 141.36C133.024 140.254 132.645 141.604 131.881 141.846" stroke="black" stroke-width="0.980065" stroke-linecap="round" stroke-linejoin="round"/>
<path d="M132.017 143.143C132.702 142.777 133.252 143.133 134.182 143.94" stroke="black" stroke-width="0.980065" stroke-linecap="round" stroke-linejoin="round"/>
<path d="M132.988 141.781C133.396 141.659 133.829 141.659 134.236 141.782C134.644 141.904 135.01 142.144 135.292 142.474" stroke="black" stroke-width="0.980065" stroke-linecap="round" stroke-linejoin="round"/>
<path d="M140.287 121.878C139.082 122.393 136.502 123.536 134.428 120.095" stroke="black" stroke-width="0.980065" stroke-linecap="round" stroke-linejoin="round"/>
<path d="M88.3604 118.303C91.9949 116.937 97.8968 116.353 103.078 117.026C108.765 117.762 114.035 117.843 119.688 115.181C119.693 115.181 119.697 115.179 119.7 115.176C120.141 114.969 120.584 114.745 121.029 114.504C121.156 114.434 121.284 114.365 121.407 114.293C121.569 114.203 121.73 114.108 121.892 114.013C123.811 112.881 125.326 111.803 126.659 110.946C129.844 108.901 131.985 108.131 136.074 110.967C136.074 110.967 137.922 112.388 137.714 115.868L140.96 118.943L141.556 119.511C141.736 119.68 141.849 119.913 141.875 120.163C141.902 120.414 141.838 120.666 141.697 120.872C141.541 121.103 141.352 121.309 141.137 121.482C141.006 121.582 140.859 121.66 140.704 121.711C140.597 121.746 140.455 121.806 140.29 121.875" stroke="black" stroke-width="0.980065" stroke-linecap="round" stroke-linejoin="round"/>
<path d="M84.1182 122.112C84.5286 121.016 85.2488 120.075 86.1838 119.413C86.86 118.95 87.5898 118.577 88.356 118.303" stroke="black" stroke-width="0.980065" stroke-linecap="round" stroke-linejoin="round"/>
<path d="M83.7199 125.047C83.6292 124.054 83.7636 123.052 84.1125 122.122" stroke="black" stroke-width="0.980065" stroke-linecap="round" stroke-linejoin="round"/>
<path d="M140.289 121.875C139.759 122.537 139.048 123.014 138.251 123.244C137.534 123.214 136.827 123.064 136.156 122.801C134.702 122.335 133.046 121.671 132.683 121.619" stroke="black" stroke-width="0.980065" stroke-linecap="round" stroke-linejoin="round"/>
<path d="M125.629 124.255C125.259 124.001 124.953 123.659 124.735 123.257C124.517 122.855 124.394 122.406 124.376 121.945C124.376 121.945 123.627 121.903 123.115 120.427C122.924 119.544 123.065 118.619 123.507 117.84C123.666 117.499 123.851 117.17 124.06 116.859C124.06 116.859 124.352 113.055 127.168 111.395C127.472 111.215 127.792 111.068 128.123 110.954" stroke="black" stroke-width="0.980065" stroke-linecap="round" stroke-linejoin="round"/>
<path d="M130.805 112.759C130.492 113.818 130.577 114.961 131.042 115.958C131.592 117.146 133.369 118.336 132.462 120.18C132.532 120.652 132.54 121.131 132.485 121.604C132.476 122.013 132.353 122.409 132.132 122.747C131.91 123.084 131.6 123.348 131.238 123.506C129.543 124.121 128.753 123.585 128.753 123.585C128.728 123.646 128.701 123.706 128.669 123.764C128.529 124.035 128.325 124.264 128.077 124.431C127.829 124.599 127.544 124.698 127.249 124.72C126.916 124.737 126.583 124.687 126.268 124.571C126.044 124.493 125.829 124.387 125.628 124.257" stroke="black" stroke-width="0.980065" stroke-linecap="round" stroke-linejoin="round"/>
<path d="M136.106 122.948C136.023 123.216 135.883 123.46 135.695 123.662C135.508 123.864 135.278 124.018 135.024 124.113C133.329 124.729 133.02 124.192 133.02 124.192C132.942 124.448 132.815 124.684 132.645 124.887C132.476 125.09 132.268 125.254 132.035 125.37C131.802 125.485 131.548 125.55 131.29 125.559C131.032 125.568 130.775 125.522 130.535 125.424C130.153 125.302 129.804 125.092 129.512 124.81C129.22 124.527 128.993 124.18 128.849 123.794" stroke="black" stroke-width="0.980065" stroke-linecap="round" stroke-linejoin="round"/>
<path d="M136.296 115.079C135.992 115.02 135.683 115.007 135.376 115.042" stroke="black" stroke-width="0.980065" stroke-linecap="round" stroke-linejoin="round"/>
<path d="M136.77 115.176C136.77 115.176 136.694 115.156 136.576 115.131" stroke="black" stroke-width="0.980065" stroke-linecap="round" stroke-linejoin="round"/>
<path d="M88.3703 118.3H88.3605H88.356C88.0804 118.339 83.9981 118.902 82.279 117.865C80.5002 116.786 77.9113 114.546 76.9253 114.69C75.9393 114.834 77.3488 117.01 79.1827 118.486C79.1827 118.486 78.4625 119.393 78.8052 119.771C79.4734 120.501 80.7833 119.771 80.7833 119.771C80.7833 119.771 79.567 121.066 80.501 121.775C81.4945 122.532 82.4859 120.847 82.4859 120.847C82.4859 120.847 81.7724 122.666 82.7252 122.896C83.0072 122.95 83.2985 122.902 83.551 122.761C83.8035 122.62 84.002 122.393 84.1136 122.118C84.1145 122.115 84.1163 122.112 84.1189 122.109" stroke="black" stroke-width="0.980065" stroke-linecap="round" stroke-linejoin="round"/>
<path d="M14.7632 148.057H17.0501L18.3592 143.079L19.528 148.057L20.7322 145.319L21.7235 148.057H22.4083L22.9278 145.568L23.6125 148.057H30.8364" stroke="black" stroke-width="0.980065" stroke-linecap="round" stroke-linejoin="round"/>
<path d="M125.791 148.072H123.651L122.425 143.417L121.333 148.072L120.208 145.513L119.281 148.072H118.642L118.156 145.745L117.514 148.072H110.76" stroke="black" stroke-width="0.980065" stroke-linecap="round" stroke-linejoin="round"/>
<path d="M53.312 148.057H59.808" stroke="black" stroke-width="0.980065" stroke-linecap="round" stroke-linejoin="round"/>
<path d="M129.932 148.057H136.427" stroke="black" stroke-width="0.980065" stroke-linecap="round" stroke-linejoin="round"/>
<path d="M65.2837 148.057H88.54" stroke="black" stroke-width="0.980065" stroke-linecap="round" stroke-linejoin="round"/>
<path d="M4.37891 135.067C9.62012 135.04 23.0886 113.361 32.8288 109.112" stroke="black" stroke-width="0.980065" stroke-linecap="round" stroke-linejoin="round"/>
<path d="M56.3433 102.983C64.3402 99.9705 84.4557 107.118 91.7966 113.929" stroke="black" stroke-width="0.980065" stroke-linecap="round" stroke-linejoin="round"/>
<path d="M75.1079 78.9529C79.0591 75.8806 83.6291 73.78 88.4739 72.8093C93.3186 71.8387 98.3121 72.0231 103.078 73.3488C119.697 77.7228 138.62 97.0934 147.829 111.453" stroke="black" stroke-width="0.980065" stroke-linecap="round" stroke-linejoin="round"/>
<path d="M97.8203 24.5344C97.9888 24.7105 98.1826 24.8583 98.3949 24.9724C100.131 25.8885 100.308 24.3523 98.7724 24.218C98.4348 24.2405 98.1078 24.3492 97.8203 24.5344Z" stroke="black" stroke-width="0.980065" stroke-linecap="round" stroke-linejoin="round"/>
<path d="M108.593 22.2163C108.585 22.1943 108.576 22.1739 108.567 22.1519C107.906 20.556 105.875 18.3674 101.721 19.3259C96.738 20.4712 96.6044 23.2572 97.8229 24.5367" stroke="black" stroke-width="0.980065" stroke-linecap="round" stroke-linejoin="round"/>
<path d="M108.593 22.2163C108.227 22.4007 107.896 22.6529 107.616 22.9605C105.427 25.2558 108.099 25.3783 108.782 23.4864C108.853 23.053 108.786 22.6073 108.593 22.2163Z" stroke="black" stroke-width="0.980065" stroke-linecap="round" stroke-linejoin="round"/>
<path d="M97.8206 24.5345C96.3288 25.3462 94.2601 27.4618 97.0951 27.7734C99.7766 27.9255 102.464 27.9179 105.145 27.7507C107.915 27.6361 110.354 27.494 110.883 27.5364C113.437 27.7507 111.582 20.7948 108.591 22.2164" stroke="black" stroke-width="0.980065" stroke-linecap="round" stroke-linejoin="round"/>
<path d="M25.2718 13.7594C25.1176 14.0064 24.9039 14.2072 24.6519 14.3419C23.4016 14.9997 23.2929 14.0114 24.3809 13.7994C24.6743 13.7401 24.9746 13.7266 25.2718 13.7594Z" stroke="black" stroke-width="0.980065" stroke-linecap="round" stroke-linejoin="round"/>
<path d="M17.3105 12.3755C17.7583 11.22 19.2192 9.58013 22.2626 10.2772C25.5333 11.0285 25.8994 12.7617 25.272 13.7595" stroke="black" stroke-width="0.980065" stroke-linecap="round" stroke-linejoin="round"/>
<path d="M17.3102 12.3757C17.5777 12.4982 17.8194 12.6742 18.0214 12.8938C19.5926 14.5463 17.6719 14.6334 17.1811 13.2722C17.1308 12.9667 17.1761 12.6525 17.3102 12.3757Z" stroke="black" stroke-width="0.980065" stroke-linecap="round" stroke-linejoin="round"/>
<path d="M25.2717 13.7594C27.1539 13.969 27.8289 16.1073 25.585 16.3562C23.1116 16.6278 16.4495 16.4347 15.6703 16.4347C12.22 16.4221 14.8897 11.2992 17.3102 12.377" stroke="black" stroke-width="0.980065" stroke-linecap="round" stroke-linejoin="round"/>
<path d="M123.737 25.5471C122.702 22.9213 119.376 19.2067 112.467 20.7924C111.119 21.0818 109.81 21.5382 108.566 22.152" stroke="black" stroke-width="0.980065" stroke-linecap="round" stroke-linejoin="round"/>
<path d="M123.737 25.5471C123.134 25.8441 122.588 26.2536 122.128 26.7552C118.546 30.5232 122.923 30.7179 124.039 27.6187C124.156 26.9124 124.05 26.1857 123.737 25.5471Z" stroke="black" stroke-width="0.980065" stroke-linecap="round" stroke-linejoin="round"/>
<path d="M105.727 29.0473C101.813 30.1628 99.8465 34.8563 104.891 34.6412C110.554 34.4002 125.701 34.5243 127.487 34.5046C133.348 34.4324 128.926 23.1151 123.737 25.547" stroke="black" stroke-width="0.980065" stroke-linecap="round" stroke-linejoin="round"/>
<path d="M105.727 29.0473C106.09 29.4687 106.53 29.8108 107.022 30.0537C109.871 31.5522 110.163 28.9131 107.635 28.8157C106.991 28.7896 106.348 28.8677 105.727 29.0473Z" stroke="black" stroke-width="0.980065" stroke-linecap="round" stroke-linejoin="round"/>
<path d="M105.152 27.9177C105.26 28.3344 105.456 28.7205 105.727 29.0473" stroke="black" stroke-width="0.980065" stroke-linecap="round" stroke-linejoin="round"/>
<path d="M39.6953 80.092C39.6953 80.092 36.0244 83.0845 35.5337 84.3193C35.0429 85.5541 36.7983 86.6491 37.437 86.2818C37.9739 85.978 39.6213 82.8136 40.143 81.7908C40.2313 81.6165 40.2894 81.5043 40.3008 81.4768V81.4713" stroke="black" stroke-width="0.980065" stroke-linecap="round" stroke-linejoin="round"/>
<path d="M40.3038 80.4255C39.2133 81.5683 38.2025 82.7905 37.2793 84.0829" stroke="black" stroke-width="0.980065" stroke-linecap="round" stroke-linejoin="round"/>
<path d="M96.5273 146.021C97.1094 146.248 98.2352 146.773 97.9067 148.057" stroke="black" stroke-width="0.980065" stroke-linecap="round" stroke-linejoin="round"/>
<path d="M98.2734 145.66C98.7104 145.776 99.0922 146.052 99.3484 146.438C99.6046 146.824 99.7178 147.293 99.6672 147.759" stroke="black" stroke-width="0.980065" stroke-linecap="round" stroke-linejoin="round"/>
<path d="M77.6221 144.204C77.6221 144.204 78.8074 145.605 77.6221 146.71" stroke="black" stroke-width="0.980065" stroke-linecap="round" stroke-linejoin="round"/>
<path d="M127.25 124.723L126.4 125.386L125.018 126.463C125.018 126.463 124.893 126.909 124.661 127.514C124.311 128.558 123.746 129.509 123.004 130.301" stroke="black" stroke-width="0.980065" stroke-linecap="round" stroke-linejoin="round"/>
<path d="M140.956 118.946C140.956 118.946 139.836 119.222 139.913 119.652C140.188 120.238 140.539 120.783 140.956 121.27" stroke="black" stroke-width="0.980065" stroke-linecap="round" stroke-linejoin="round"/>
<path d="M119.697 115.176L123.114 120.427" stroke="black" stroke-width="0.980065" stroke-linecap="round" stroke-linejoin="round"/>
<path d="M121.408 114.293L123.507 117.84" stroke="black" stroke-width="0.980065" stroke-linecap="round" stroke-linejoin="round"/>
<path d="M125.628 124.255L125.631 124.258L126.399 125.386" stroke="black" stroke-width="0.980065" stroke-linecap="round" stroke-linejoin="round"/>
</svg>
