<svg width="1720" height="280" viewBox="0 0 1720 280" fill="none" xmlns="http://www.w3.org/2000/svg">
<path d="M96.6357 52.0079C98.2429 53.5876 99.9356 55.0739 101.817 56.3148C111.412 62.6447 139.95 77.8544 185.093 71.422C241.498 63.385 233.435 120.159 225.372 135.312C217.309 150.466 187.548 178.302 185.093 192.202C182.637 206.101 193.516 243.998 168.322 232.71C143.128 221.421 128.497 194.813 95.4975 198.038C62.4975 201.264 39.1146 186.723 53.6281 160.532C68.1416 134.341 85.5481 117.408 63.1379 88.3811C41.3497 60.1598 77.7676 33.4632 96.6357 52.0079Z" fill="#DEE9FF"/>
<path d="M68.8355 123.847L184.746 101.271L180.286 78.3746C180.135 77.6003 179.834 76.8632 179.398 76.2055C178.962 75.5478 178.401 74.9823 177.747 74.5414C177.093 74.1005 176.358 73.7928 175.585 73.6358C174.812 73.4788 174.015 73.4757 173.241 73.6265L66.6079 112.41L68.8355 123.847Z" fill="#0E84E5"/>
<path d="M66.678 112.773L193.436 88.0854C195.259 87.7305 197.147 88.1141 198.687 89.1516C200.226 90.1892 201.29 91.7959 201.645 93.6182L216.224 168.47C216.578 170.292 216.195 172.181 215.157 173.72C214.12 175.26 212.513 176.324 210.691 176.679L90.8034 200.028C88.9811 200.383 87.0925 199.999 85.553 198.962C84.0135 197.924 82.9492 196.318 82.5943 194.495L66.678 112.773Z" fill="#A2BDFF"/>
<path d="M160.907 124.498L205.217 115.868C207.039 115.513 208.928 115.897 210.467 116.934C212.007 117.972 213.071 119.579 213.426 121.401L216.717 138.298C217.072 140.12 216.688 142.009 215.651 143.548C214.613 145.088 213.007 146.152 211.184 146.507L166.875 155.137C166.526 155.205 166.165 155.131 165.87 154.933C165.575 154.734 165.372 154.427 165.304 154.078L159.849 126.069C159.781 125.72 159.854 125.359 160.053 125.064C160.251 124.77 160.559 124.566 160.907 124.498Z" fill="#418DF9"/>
<path d="M178.436 144.128C182.382 144.128 185.581 140.929 185.581 136.983C185.581 133.036 182.382 129.837 178.436 129.837C174.49 129.837 171.29 133.036 171.29 136.983C171.29 140.929 174.49 144.128 178.436 144.128Z" fill="white"/>
<path d="M489.016 54.2007C489.016 54.2007 480.31 99.0515 430.248 100.823C380.187 102.595 366.488 174.804 417.308 188.216C468.129 201.628 443.093 236.34 476.543 243.37C514.562 251.36 515.034 195.114 541.471 194.209C599.82 192.214 630.014 165.491 608.913 143.817C571.872 105.77 552.789 111.903 554.084 81.4977C555.38 51.0927 500.567 17.5607 489.016 54.2007Z" fill="#DEE9FF"/>
<path d="M546.425 86.5009L427.588 111.027C423.801 111.808 421.366 115.511 422.147 119.297L437.453 193.463C438.235 197.249 441.938 199.685 445.724 198.904L564.561 174.378C568.347 173.597 570.783 169.894 570.002 166.108L554.695 91.9415C553.914 88.1553 550.211 85.7195 546.425 86.5009Z" fill="#699CFF"/>
<path d="M542.937 95.4055L529.25 98.2302C526.979 98.699 525.517 100.921 525.986 103.192L528.811 116.879C529.279 119.151 531.501 120.612 533.773 120.143L547.459 117.319C549.731 116.85 551.193 114.628 550.724 112.357L547.899 98.6699C547.43 96.3982 545.209 94.9367 542.937 95.4055Z" fill="white"/>
<path d="M488.156 153.178L441.975 162.709C441.824 162.74 441.726 162.889 441.758 163.04L443.155 169.81C443.186 169.961 443.334 170.059 443.486 170.027L489.666 160.497C489.818 160.465 489.915 160.317 489.884 160.166L488.487 153.396C488.455 153.245 488.307 153.147 488.156 153.178Z" fill="white"/>
<path d="M510.828 163.232L444.892 176.84C444.74 176.871 444.643 177.019 444.674 177.171L446.071 183.94C446.102 184.092 446.25 184.189 446.402 184.158L512.339 170.55C512.49 170.519 512.587 170.371 512.556 170.219L511.159 163.449C511.128 163.298 510.98 163.201 510.828 163.232Z" fill="white"/>
<path d="M568.291 193.613C579.303 193.613 588.231 184.685 588.231 173.673C588.231 162.66 579.303 153.733 568.291 153.733C557.278 153.733 548.351 162.66 548.351 173.673C548.351 184.685 557.278 193.613 568.291 193.613Z" fill="#418DF9" stroke="white" stroke-width="15" stroke-miterlimit="10"/>
<path d="M575.973 172.003H570.294C570.25 172.003 570.207 171.994 570.166 171.977C570.126 171.961 570.089 171.936 570.058 171.905C570.027 171.874 570.002 171.837 569.986 171.797C569.969 171.756 569.96 171.713 569.96 171.669V165.991C569.96 165.548 569.784 165.123 569.471 164.81C569.158 164.497 568.733 164.321 568.29 164.321C567.847 164.321 567.423 164.497 567.109 164.81C566.796 165.123 566.62 165.548 566.62 165.991V171.669C566.62 171.713 566.612 171.756 566.595 171.797C566.578 171.837 566.553 171.874 566.522 171.905C566.491 171.936 566.455 171.961 566.414 171.977C566.374 171.994 566.33 172.003 566.286 172.003H560.609C560.169 172.007 559.748 172.185 559.438 172.497C559.128 172.81 558.954 173.233 558.954 173.673C558.954 174.113 559.128 174.536 559.438 174.848C559.748 175.161 560.169 175.339 560.609 175.343H566.287C566.375 175.343 566.46 175.378 566.523 175.441C566.586 175.503 566.621 175.588 566.621 175.677V181.355C566.621 181.798 566.797 182.222 567.11 182.535C567.423 182.849 567.848 183.025 568.291 183.025C568.734 183.025 569.158 182.849 569.472 182.535C569.785 182.222 569.961 181.798 569.961 181.355V175.677C569.961 175.588 569.996 175.503 570.059 175.441C570.121 175.378 570.206 175.343 570.295 175.343H575.973C576.413 175.339 576.834 175.161 577.144 174.848C577.453 174.536 577.627 174.113 577.627 173.673C577.627 173.233 577.453 172.81 577.144 172.497C576.834 172.185 576.413 172.007 575.973 172.003Z" fill="white"/>
<path d="M757.739 182.26C761.779 201.419 773.006 207.309 782.058 205.132C799.563 200.923 843.089 200.61 882.835 227.361C935.477 262.791 954.543 227.372 943.259 185.946C931.974 144.52 932.837 104.875 957.772 87.5119C982.706 70.1491 961.24 31.9126 905.996 57.5054C870.296 74.0445 848.007 64.8242 836.705 56.2314C826.053 48.1317 814.134 39.5217 801.011 42.1368C785.088 45.3107 776.9 57.0152 794.258 89.6909C818.857 135.996 748.683 139.316 757.739 182.26Z" fill="#DEE9FF"/>
<path d="M862.567 177.812L864.051 179.572L863.605 193.316L803.345 205.389C802.9 205.478 802.443 205.479 801.998 205.392C801.553 205.304 801.129 205.13 800.752 204.879C800.374 204.628 800.05 204.305 799.797 203.928C799.544 203.551 799.368 203.129 799.279 202.684L781.652 114.703C781.562 114.259 781.561 113.801 781.648 113.357C781.736 112.912 781.91 112.489 782.162 112.112C782.413 111.735 782.737 111.411 783.114 111.159C783.491 110.908 783.914 110.733 784.358 110.646L848.543 97.7774L845.734 107.565C845.734 107.565 850.871 117.252 851.865 118.824L847.142 139.252L861.092 153.066L856.668 170.783L862.567 177.812Z" fill="#699CFF"/>
<path d="M853.35 155.602L803.517 165.588C803.366 165.619 803.267 165.766 803.298 165.918L804.769 173.259C804.799 173.411 804.947 173.509 805.099 173.479L854.931 163.492C855.083 163.462 855.181 163.314 855.151 163.163L853.68 155.821C853.649 155.67 853.502 155.571 853.35 155.602Z" fill="white"/>
<path d="M856.668 170.783L862.566 177.812L809.569 188.429C809.121 188.518 808.655 188.426 808.274 188.172C807.893 187.919 807.628 187.525 807.536 187.077L806.637 182.573C806.591 182.351 806.59 182.121 806.634 181.899C806.677 181.676 806.764 181.464 806.89 181.275C807.016 181.086 807.177 180.924 807.366 180.798C807.555 180.671 807.767 180.584 807.989 180.54L856.668 170.783Z" fill="white"/>
<path d="M964.395 99.07L941.206 185.742C940.967 186.626 940.389 187.379 939.597 187.837C938.805 188.295 937.864 188.421 936.979 188.188L868.521 169.871L875.864 158.564L875.038 155.67L872.457 146.65L872.459 146.641L884.597 133.177L877.856 113.404L891.194 97.8681L890.592 83.6966L898.02 77.7313L961.96 94.8369C962.843 95.0764 963.596 95.6566 964.052 96.4501C964.509 97.2436 964.632 98.1857 964.395 99.07Z" fill="#699CFF"/>
<path d="M949.312 100.391L936.854 97.0577C933.866 96.2582 930.796 98.0321 929.997 101.02L926.663 113.477C925.864 116.465 927.637 119.535 930.625 120.335L943.083 123.668C946.07 124.468 949.141 122.694 949.94 119.706L953.274 107.249C954.073 104.261 952.299 101.191 949.312 100.391Z" fill="white"/>
<path d="M886.532 152.198L885.35 156.636C885.231 157.078 884.941 157.455 884.545 157.684C884.149 157.913 883.678 157.976 883.236 157.859L875.037 155.67L872.456 146.649L885.316 150.087C885.536 150.145 885.741 150.246 885.921 150.383C886.101 150.521 886.252 150.693 886.365 150.889C886.478 151.086 886.551 151.302 886.579 151.527C886.608 151.752 886.592 151.98 886.532 152.198Z" fill="white"/>
<path d="M859.851 92.4036C859.524 92.0477 859.349 91.5791 859.361 91.0963C859.373 90.6135 859.571 90.1542 859.915 89.815L872.611 76.7861C873.37 76.0078 874.602 75.9893 875.322 76.7456L876.326 77.7997C877.047 78.5557 876.965 79.7823 876.146 80.4976L862.446 92.4725C862.088 92.7975 861.618 92.9718 861.135 92.959C860.651 92.9461 860.191 92.7472 859.851 92.4036Z" fill="#418DF9"/>
<path d="M852.352 87.9352C852.211 87.8701 852.084 87.7777 851.978 87.6635C851.873 87.5492 851.791 87.4152 851.737 87.2692C851.683 87.1232 851.658 86.9681 851.664 86.8126C851.671 86.6571 851.707 86.5043 851.772 86.363L856.529 75.5158C856.663 75.2057 856.914 74.9612 857.227 74.8361C857.541 74.7109 857.891 74.7153 858.201 74.8483L859.077 75.2442C859.226 75.3133 859.359 75.4126 859.468 75.5357C859.577 75.6589 859.659 75.8032 859.709 75.9597C859.759 76.1162 859.776 76.2814 859.76 76.4449C859.743 76.6083 859.692 76.7665 859.611 76.9095L853.979 87.3613C853.83 87.6439 853.579 87.8599 853.278 87.9662C852.977 88.0725 852.646 88.0615 852.352 87.9352Z" fill="#418DF9"/>
<path d="M844.456 89.6919C843.458 89.8673 842.501 89.0185 842.285 87.7677L838.456 65.5598C838.228 64.2332 838.919 62.9725 839.978 62.7864L841.453 62.5273C842.512 62.3414 843.511 63.305 843.651 64.647L846.004 87.1142C846.137 88.3795 845.454 89.5166 844.456 89.6919Z" fill="#418DF9"/>
<path d="M1177.46 43.5697C1177.46 43.5697 1204.26 74.2857 1261.94 39.1901C1313.17 8.02204 1335.12 78.4985 1329.09 108.821C1321.28 148.1 1271.54 170.514 1287.18 200.618C1302.83 230.723 1231.41 260.28 1205.3 216.48C1172.82 161.993 1153.74 196.84 1129.81 191.881C1112.64 188.323 1086.23 138.353 1116.62 111.545C1142.18 88.9871 1133.1 77.8584 1129.72 67.5019C1124.86 52.5656 1150.5 20.073 1177.46 43.5697Z" fill="#DEE9FF"/>
<path d="M1145.61 194.418L1284.03 194.194C1285.25 194.192 1286.46 193.949 1287.59 193.48C1288.72 193.011 1289.74 192.324 1290.6 191.459C1291.46 190.594 1292.15 189.568 1292.61 188.439C1293.08 187.31 1293.32 186.1 1293.32 184.879L1293.18 99.3745C1293.18 98.1532 1292.93 96.9442 1292.46 95.8167C1291.99 94.6891 1291.31 93.665 1290.44 92.8028C1289.58 91.9406 1288.55 91.2572 1287.42 90.7917C1286.29 90.3261 1285.08 90.0875 1283.86 90.0895L1144.51 90.1077C1139.77 90.1077 1135.97 85.5643 1136.14 81.6699V90.328L1136.29 185.132C1136.29 186.353 1136.54 187.562 1137.01 188.69C1137.47 189.818 1138.16 190.842 1139.03 191.704C1139.89 192.566 1140.92 193.25 1142.05 193.715C1143.18 194.181 1144.39 194.42 1145.61 194.418Z" fill="#A2BDFF"/>
<path d="M1240.08 124.21L1293.43 124.124C1295.29 124.121 1297.07 124.855 1298.38 126.166C1299.7 127.476 1300.44 129.256 1300.44 131.112L1300.48 153.115C1300.48 154.971 1299.74 156.753 1298.43 158.068C1297.12 159.383 1295.34 160.123 1293.49 160.126L1240.14 160.213C1239.79 160.213 1239.45 160.073 1239.19 159.822C1238.94 159.571 1238.8 159.231 1238.8 158.876L1238.75 125.552C1238.75 125.197 1238.89 124.856 1239.14 124.604C1239.39 124.352 1239.73 124.211 1240.08 124.21Z" fill="#418DF9"/>
<path d="M1257.41 150.427C1261.96 150.427 1265.65 146.737 1265.65 142.185C1265.65 137.633 1261.96 133.944 1257.41 133.944C1252.86 133.944 1249.17 137.633 1249.17 142.185C1249.17 146.737 1252.86 150.427 1257.41 150.427Z" fill="white"/>
<path d="M1143.14 72.1937H1262.71C1264.57 72.1937 1266.35 72.9312 1267.66 74.244C1268.97 75.5567 1269.71 77.3372 1269.71 79.1937V90.1088H1145.14C1142.75 90.1088 1140.46 89.161 1138.77 87.4739C1137.09 85.7869 1136.14 83.4987 1136.14 81.1128V79.1937C1136.14 77.3372 1136.88 75.5567 1138.19 74.244C1139.5 72.9312 1141.28 72.1937 1143.14 72.1937Z" fill="#0E84E5"/>
<path d="M1236.22 80.0597C1236.05 80.0598 1235.9 80.0034 1235.77 79.9C1235.64 79.7966 1235.56 79.6528 1235.53 79.4932C1235.5 79.3336 1235.52 79.1681 1235.6 79.0253C1235.68 78.8825 1235.8 78.7711 1235.95 78.7104C1235.98 78.6988 1236.67 78.4216 1237.94 77.9562C1238.11 77.8921 1238.3 77.8998 1238.47 77.9777C1238.64 78.0556 1238.77 78.1972 1238.83 78.3714C1238.9 78.5457 1238.89 78.7382 1238.81 78.9068C1238.74 79.0753 1238.59 79.206 1238.42 79.2701C1237.17 79.728 1236.48 80.0061 1236.48 80.0087C1236.39 80.0424 1236.31 80.0597 1236.22 80.0597Z" fill="#418DF9"/>
<path d="M1265.51 241.255C1265.02 241.255 1264.53 241.245 1264.03 241.225C1263.94 241.222 1263.85 241.201 1263.77 241.163C1263.68 241.124 1263.61 241.07 1263.54 241.002C1263.48 240.935 1263.43 240.855 1263.4 240.769C1263.37 240.682 1263.35 240.59 1263.36 240.498C1263.36 240.406 1263.38 240.315 1263.42 240.231C1263.46 240.147 1263.51 240.072 1263.58 240.01C1263.65 239.947 1263.73 239.899 1263.82 239.868C1263.9 239.836 1264 239.822 1264.09 239.826C1265.47 239.882 1266.86 239.855 1268.24 239.746C1268.33 239.739 1268.42 239.75 1268.51 239.778C1268.59 239.806 1268.67 239.852 1268.74 239.911C1268.81 239.971 1268.87 240.043 1268.91 240.125C1268.96 240.207 1268.98 240.296 1268.99 240.388C1269 240.48 1268.99 240.572 1268.96 240.659C1268.93 240.747 1268.88 240.828 1268.82 240.898C1268.76 240.968 1268.69 241.025 1268.61 241.067C1268.53 241.109 1268.44 241.134 1268.35 241.142C1267.42 241.217 1266.46 241.254 1265.51 241.255ZM1259.85 240.832C1259.82 240.832 1259.78 240.83 1259.75 240.825C1258.38 240.627 1256.96 240.355 1255.53 240.018C1255.35 239.975 1255.19 239.863 1255.1 239.705C1255 239.547 1254.97 239.357 1255.01 239.176C1255.05 238.995 1255.17 238.839 1255.32 238.741C1255.48 238.644 1255.67 238.613 1255.85 238.655C1257.25 238.983 1258.62 239.247 1259.95 239.439C1260.12 239.465 1260.28 239.555 1260.39 239.693C1260.51 239.831 1260.56 240.006 1260.55 240.182C1260.54 240.359 1260.46 240.524 1260.33 240.644C1260.2 240.765 1260.03 240.832 1259.85 240.832V240.832ZM1272.48 240.535C1272.3 240.535 1272.14 240.471 1272.01 240.355C1271.88 240.239 1271.8 240.08 1271.78 239.908C1271.76 239.736 1271.81 239.563 1271.91 239.423C1272.01 239.283 1272.16 239.186 1272.33 239.15C1273.68 238.861 1275.01 238.485 1276.31 238.022C1276.49 237.96 1276.68 237.97 1276.85 238.049C1277.01 238.129 1277.14 238.272 1277.2 238.447C1277.27 238.622 1277.26 238.814 1277.18 238.982C1277.1 239.15 1276.95 239.279 1276.78 239.341C1275.42 239.824 1274.03 240.218 1272.62 240.519C1272.57 240.529 1272.53 240.534 1272.48 240.534V240.535ZM1251.61 238.914C1251.54 238.914 1251.47 238.903 1251.4 238.882C1250.1 238.476 1248.74 238.008 1247.36 237.489C1247.18 237.424 1247.04 237.292 1246.97 237.123C1246.89 236.954 1246.88 236.761 1246.95 236.588C1247.01 236.414 1247.15 236.273 1247.31 236.196C1247.48 236.119 1247.68 236.113 1247.85 236.178C1249.21 236.688 1250.54 237.148 1251.82 237.546C1251.98 237.596 1252.11 237.701 1252.2 237.843C1252.29 237.985 1252.33 238.154 1252.3 238.319C1252.28 238.485 1252.19 238.636 1252.07 238.745C1251.94 238.854 1251.78 238.914 1251.61 238.914ZM1280.43 237.714C1280.27 237.714 1280.12 237.661 1280 237.564C1279.87 237.466 1279.79 237.33 1279.75 237.176C1279.71 237.023 1279.73 236.862 1279.8 236.719C1279.86 236.576 1279.98 236.46 1280.12 236.389C1281.35 235.764 1282.55 235.069 1283.71 234.309C1283.78 234.257 1283.87 234.222 1283.96 234.204C1284.05 234.186 1284.15 234.186 1284.24 234.205C1284.33 234.223 1284.41 234.26 1284.49 234.311C1284.57 234.363 1284.63 234.43 1284.68 234.507C1284.73 234.584 1284.77 234.671 1284.78 234.762C1284.8 234.853 1284.8 234.946 1284.78 235.036C1284.76 235.127 1284.72 235.213 1284.67 235.289C1284.62 235.365 1284.55 235.43 1284.47 235.48C1283.27 236.269 1282.03 236.99 1280.75 237.639C1280.65 237.688 1280.54 237.714 1280.43 237.714ZM1243.67 235.955C1243.58 235.955 1243.48 235.936 1243.4 235.899C1242.16 235.372 1240.85 234.787 1239.51 234.16C1239.42 234.122 1239.35 234.068 1239.28 234C1239.22 233.932 1239.17 233.853 1239.14 233.766C1239.11 233.679 1239.09 233.587 1239.1 233.494C1239.1 233.402 1239.12 233.311 1239.16 233.227C1239.2 233.143 1239.25 233.068 1239.32 233.006C1239.39 232.943 1239.47 232.895 1239.56 232.864C1239.65 232.833 1239.74 232.819 1239.83 232.824C1239.92 232.828 1240.01 232.851 1240.1 232.891C1241.43 233.512 1242.72 234.09 1243.95 234.611C1244.09 234.674 1244.22 234.787 1244.29 234.93C1244.37 235.073 1244.39 235.237 1244.36 235.395C1244.32 235.553 1244.24 235.695 1244.11 235.797C1243.99 235.899 1243.83 235.955 1243.67 235.955V235.955ZM1287.51 233.099C1287.36 233.099 1287.22 233.054 1287.1 232.97C1286.98 232.887 1286.9 232.769 1286.85 232.632C1286.8 232.495 1286.79 232.347 1286.83 232.208C1286.87 232.069 1286.96 231.945 1287.07 231.854C1288.12 231.008 1289.17 230.081 1290.2 229.097C1290.33 228.969 1290.51 228.9 1290.7 228.904C1290.88 228.908 1291.06 228.986 1291.19 229.12C1291.32 229.255 1291.39 229.434 1291.38 229.62C1291.38 229.806 1291.3 229.982 1291.17 230.11C1290.11 231.12 1289.02 232.074 1287.95 232.944C1287.82 233.044 1287.67 233.099 1287.51 233.099L1287.51 233.099ZM1235.98 232.387C1235.87 232.386 1235.77 232.362 1235.67 232.314C1234.49 231.729 1233.25 231.101 1231.88 230.394C1231.8 230.352 1231.72 230.294 1231.66 230.224C1231.61 230.154 1231.56 230.073 1231.53 229.985C1231.5 229.897 1231.49 229.805 1231.5 229.714C1231.51 229.622 1231.53 229.533 1231.58 229.451C1231.62 229.369 1231.68 229.297 1231.75 229.237C1231.82 229.178 1231.9 229.133 1231.99 229.105C1232.07 229.077 1232.17 229.067 1232.26 229.074C1232.35 229.082 1232.44 229.107 1232.52 229.15C1233.88 229.853 1235.12 230.478 1236.29 231.059C1236.43 231.129 1236.55 231.245 1236.61 231.388C1236.68 231.531 1236.7 231.692 1236.66 231.846C1236.63 232 1236.54 232.137 1236.42 232.235C1236.29 232.333 1236.14 232.387 1235.98 232.387ZM1228.44 228.51C1228.33 228.51 1228.21 228.482 1228.11 228.429C1226.95 227.815 1225.78 227.196 1224.6 226.571L1224.37 226.445C1224.28 226.403 1224.21 226.344 1224.15 226.273C1224.09 226.203 1224.05 226.121 1224.02 226.032C1223.99 225.944 1223.98 225.851 1223.99 225.759C1224 225.667 1224.03 225.577 1224.07 225.495C1224.11 225.414 1224.17 225.341 1224.24 225.283C1224.31 225.224 1224.4 225.18 1224.49 225.153C1224.57 225.126 1224.67 225.118 1224.76 225.127C1224.85 225.137 1224.94 225.164 1225.02 225.208L1225.26 225.334C1226.43 225.957 1227.6 226.576 1228.77 227.191C1228.91 227.264 1229.02 227.381 1229.08 227.524C1229.14 227.667 1229.16 227.827 1229.12 227.979C1229.08 228.13 1229 228.265 1228.87 228.362C1228.75 228.458 1228.6 228.51 1228.44 228.51L1228.44 228.51ZM1293.63 227.272C1293.5 227.272 1293.37 227.233 1293.25 227.159C1293.14 227.085 1293.05 226.979 1292.99 226.855C1292.94 226.731 1292.92 226.594 1292.94 226.46C1292.97 226.326 1293.03 226.202 1293.12 226.101C1294.03 225.101 1294.94 224.029 1295.84 222.915C1295.96 222.773 1296.12 222.683 1296.31 222.664C1296.49 222.645 1296.67 222.699 1296.82 222.815C1296.96 222.931 1297.05 223.098 1297.07 223.281C1297.1 223.465 1297.04 223.649 1296.93 223.793C1296.01 224.929 1295.08 226.022 1294.15 227.043C1294.09 227.115 1294.01 227.173 1293.92 227.213C1293.83 227.252 1293.73 227.273 1293.63 227.273V227.272ZM1220.95 224.548C1220.84 224.548 1220.73 224.52 1220.62 224.467C1219.24 223.738 1218.01 223.099 1216.87 222.514C1216.71 222.43 1216.58 222.282 1216.53 222.106C1216.47 221.929 1216.49 221.737 1216.57 221.571C1216.65 221.406 1216.8 221.281 1216.98 221.225C1217.16 221.168 1217.35 221.184 1217.51 221.268C1218.66 221.856 1219.89 222.496 1221.28 223.228C1221.41 223.3 1221.53 223.418 1221.59 223.56C1221.65 223.703 1221.67 223.863 1221.63 224.015C1221.59 224.167 1221.51 224.302 1221.38 224.399C1221.26 224.495 1221.11 224.547 1220.95 224.547L1220.95 224.548ZM1298.95 220.69C1298.82 220.69 1298.7 220.654 1298.59 220.587C1298.48 220.519 1298.39 220.423 1298.33 220.308C1298.27 220.193 1298.25 220.064 1298.26 219.935C1298.27 219.807 1298.31 219.683 1298.39 219.579C1299.18 218.478 1299.99 217.316 1300.78 216.122C1300.88 215.968 1301.04 215.86 1301.22 215.823C1301.4 215.786 1301.59 215.822 1301.75 215.925C1301.9 216.027 1302.01 216.187 1302.05 216.369C1302.09 216.551 1302.05 216.74 1301.95 216.895C1301.15 218.105 1300.33 219.284 1299.52 220.401C1299.46 220.491 1299.37 220.564 1299.27 220.614C1299.17 220.664 1299.06 220.69 1298.95 220.69V220.69ZM1213.41 220.681C1213.3 220.681 1213.2 220.656 1213.1 220.608C1211.77 219.948 1210.52 219.347 1209.29 218.771C1209.13 218.691 1209 218.548 1208.94 218.375C1208.88 218.201 1208.89 218.01 1208.97 217.844C1209.04 217.677 1209.18 217.548 1209.36 217.484C1209.53 217.421 1209.72 217.428 1209.89 217.504C1211.12 218.084 1212.38 218.688 1213.72 219.353C1213.86 219.424 1213.98 219.539 1214.04 219.682C1214.11 219.825 1214.13 219.987 1214.09 220.141C1214.06 220.294 1213.97 220.431 1213.84 220.53C1213.72 220.628 1213.57 220.681 1213.41 220.681ZM1205.73 217.086C1205.63 217.086 1205.54 217.066 1205.45 217.027C1204.12 216.449 1202.81 215.902 1201.55 215.403C1201.47 215.369 1201.39 215.318 1201.32 215.254C1201.26 215.19 1201.21 215.114 1201.17 215.029C1201.13 214.945 1201.11 214.854 1201.11 214.762C1201.11 214.67 1201.13 214.579 1201.16 214.494C1201.2 214.408 1201.25 214.33 1201.31 214.264C1201.37 214.198 1201.45 214.146 1201.53 214.109C1201.62 214.073 1201.71 214.053 1201.8 214.052C1201.89 214.051 1201.99 214.067 1202.07 214.101C1203.34 214.606 1204.67 215.159 1206.01 215.744C1206.16 215.809 1206.28 215.922 1206.35 216.065C1206.42 216.208 1206.45 216.371 1206.41 216.529C1206.38 216.686 1206.29 216.828 1206.17 216.929C1206.04 217.031 1205.89 217.086 1205.73 217.086ZM1197.84 213.964C1197.76 213.964 1197.68 213.951 1197.61 213.924C1196.26 213.45 1194.91 213.012 1193.61 212.622C1193.52 212.596 1193.44 212.553 1193.37 212.495C1193.29 212.437 1193.23 212.365 1193.19 212.284C1193.15 212.203 1193.12 212.115 1193.11 212.023C1193.1 211.932 1193.11 211.839 1193.14 211.751C1193.16 211.663 1193.21 211.581 1193.26 211.51C1193.32 211.439 1193.39 211.379 1193.47 211.336C1193.55 211.292 1193.64 211.265 1193.74 211.255C1193.83 211.246 1193.92 211.255 1194.01 211.281C1195.33 211.677 1196.7 212.122 1198.07 212.603C1198.23 212.658 1198.36 212.766 1198.44 212.909C1198.53 213.051 1198.56 213.219 1198.53 213.382C1198.5 213.544 1198.42 213.692 1198.29 213.799C1198.17 213.905 1198.01 213.964 1197.84 213.964ZM1303.63 213.634C1303.51 213.634 1303.38 213.601 1303.28 213.538C1303.17 213.475 1303.08 213.385 1303.02 213.276C1302.96 213.168 1302.93 213.046 1302.93 212.921C1302.93 212.797 1302.97 212.676 1303.03 212.57C1303.74 211.404 1304.46 210.182 1305.17 208.938C1305.21 208.856 1305.27 208.783 1305.34 208.725C1305.41 208.666 1305.5 208.623 1305.59 208.597C1305.68 208.571 1305.77 208.564 1305.86 208.574C1305.96 208.585 1306.05 208.615 1306.13 208.66C1306.21 208.706 1306.28 208.768 1306.34 208.842C1306.39 208.915 1306.43 209 1306.46 209.09C1306.48 209.18 1306.49 209.274 1306.47 209.366C1306.46 209.458 1306.43 209.547 1306.38 209.627C1305.67 210.885 1304.95 212.119 1304.23 213.298C1304.17 213.401 1304.08 213.486 1303.97 213.545C1303.87 213.604 1303.75 213.634 1303.63 213.634V213.634ZM1160.43 212.041C1160.27 212.041 1160.1 211.981 1159.98 211.872C1159.85 211.762 1159.77 211.61 1159.74 211.444C1159.72 211.279 1159.75 211.109 1159.84 210.967C1159.93 210.826 1160.07 210.721 1160.23 210.672C1161.6 210.253 1163 209.888 1164.38 209.585C1164.56 209.545 1164.75 209.579 1164.91 209.68C1165.07 209.78 1165.18 209.938 1165.21 210.12C1165.25 210.301 1165.22 210.491 1165.12 210.647C1165.02 210.803 1164.86 210.913 1164.68 210.953C1163.33 211.247 1161.97 211.603 1160.64 212.011C1160.57 212.031 1160.5 212.041 1160.43 212.041ZM1189.71 211.548C1189.66 211.548 1189.6 211.542 1189.55 211.529C1188.17 211.198 1186.79 210.91 1185.45 210.675C1185.27 210.64 1185.11 210.536 1185 210.385C1184.9 210.234 1184.86 210.047 1184.89 209.866C1184.92 209.685 1185.02 209.524 1185.17 209.417C1185.32 209.31 1185.51 209.267 1185.69 209.296C1187.06 209.536 1188.47 209.829 1189.88 210.167C1190.04 210.207 1190.19 210.307 1190.29 210.447C1190.39 210.588 1190.43 210.76 1190.41 210.93C1190.39 211.1 1190.31 211.258 1190.18 211.371C1190.05 211.485 1189.89 211.548 1189.71 211.548V211.548ZM1168.7 210.237C1168.52 210.237 1168.35 210.169 1168.22 210.048C1168.09 209.926 1168.02 209.76 1168 209.583C1167.99 209.405 1168.05 209.23 1168.16 209.093C1168.27 208.955 1168.43 208.866 1168.61 208.843C1170.02 208.656 1171.46 208.524 1172.89 208.453C1172.98 208.448 1173.07 208.462 1173.16 208.493C1173.24 208.524 1173.32 208.571 1173.39 208.633C1173.46 208.695 1173.51 208.769 1173.55 208.852C1173.59 208.935 1173.62 209.025 1173.62 209.117C1173.62 209.209 1173.61 209.301 1173.58 209.387C1173.55 209.474 1173.5 209.554 1173.44 209.622C1173.38 209.69 1173.3 209.745 1173.22 209.785C1173.14 209.824 1173.05 209.847 1172.96 209.851C1171.57 209.921 1170.17 210.048 1168.8 210.231C1168.76 210.235 1168.73 210.237 1168.7 210.237ZM1181.38 210.097C1181.35 210.097 1181.33 210.096 1181.31 210.093C1179.91 209.946 1178.51 209.851 1177.13 209.811C1176.95 209.805 1176.77 209.726 1176.65 209.591C1176.52 209.455 1176.45 209.275 1176.46 209.09C1176.46 208.904 1176.54 208.728 1176.68 208.601C1176.81 208.473 1176.99 208.405 1177.18 208.411C1178.58 208.453 1180.02 208.551 1181.45 208.7C1181.63 208.719 1181.79 208.806 1181.91 208.942C1182.03 209.078 1182.09 209.254 1182.08 209.433C1182.07 209.611 1181.99 209.78 1181.86 209.903C1181.73 210.027 1181.56 210.096 1181.38 210.096L1181.38 210.097ZM1307.81 206.268C1307.69 206.268 1307.57 206.237 1307.46 206.177C1307.36 206.118 1307.27 206.032 1307.21 205.929C1307.15 205.825 1307.11 205.708 1307.11 205.587C1307.1 205.466 1307.13 205.347 1307.19 205.24C1307.83 204.028 1308.48 202.765 1309.12 201.488C1309.16 201.406 1309.21 201.333 1309.28 201.272C1309.35 201.212 1309.43 201.166 1309.52 201.137C1309.61 201.108 1309.7 201.096 1309.79 201.102C1309.88 201.109 1309.97 201.133 1310.05 201.174C1310.14 201.215 1310.21 201.272 1310.27 201.341C1310.33 201.41 1310.38 201.491 1310.41 201.578C1310.43 201.665 1310.45 201.757 1310.44 201.849C1310.43 201.941 1310.41 202.03 1310.37 202.113C1309.73 203.4 1309.07 204.673 1308.43 205.896C1308.37 206.008 1308.28 206.102 1308.17 206.168C1308.06 206.234 1307.93 206.268 1307.81 206.268V206.268ZM1311.59 198.689C1311.47 198.689 1311.35 198.659 1311.25 198.602C1311.15 198.545 1311.06 198.463 1311 198.364C1310.93 198.264 1310.9 198.15 1310.89 198.032C1310.88 197.915 1310.9 197.797 1310.95 197.69C1311.54 196.445 1312.13 195.154 1312.71 193.853C1312.75 193.77 1312.81 193.694 1312.87 193.631C1312.94 193.568 1313.02 193.518 1313.1 193.485C1313.19 193.453 1313.28 193.437 1313.37 193.44C1313.47 193.442 1313.56 193.463 1313.64 193.5C1313.72 193.538 1313.8 193.592 1313.86 193.658C1313.93 193.725 1313.97 193.804 1314.01 193.89C1314.04 193.976 1314.06 194.067 1314.05 194.159C1314.05 194.251 1314.03 194.341 1313.99 194.425C1313.41 195.735 1312.81 197.034 1312.22 198.287C1312.16 198.407 1312.07 198.508 1311.96 198.579C1311.85 198.651 1311.72 198.688 1311.59 198.688L1311.59 198.689ZM1315.05 190.958C1314.93 190.958 1314.82 190.929 1314.72 190.874C1314.61 190.819 1314.53 190.74 1314.46 190.644C1314.4 190.547 1314.36 190.436 1314.35 190.321C1314.34 190.206 1314.36 190.09 1314.4 189.983C1314.94 188.716 1315.49 187.404 1316.03 186.084C1316.06 185.997 1316.11 185.919 1316.18 185.852C1316.24 185.785 1316.32 185.732 1316.41 185.696C1316.49 185.659 1316.58 185.64 1316.68 185.639C1316.77 185.638 1316.86 185.656 1316.95 185.691C1317.03 185.726 1317.11 185.777 1317.18 185.843C1317.24 185.908 1317.29 185.986 1317.33 186.072C1317.36 186.158 1317.38 186.25 1317.38 186.342C1317.38 186.435 1317.36 186.527 1317.33 186.612C1316.79 187.939 1316.24 189.258 1315.69 190.532C1315.64 190.658 1315.55 190.766 1315.43 190.842C1315.32 190.917 1315.19 190.957 1315.05 190.958L1315.05 190.958ZM1318.25 183.114C1318.13 183.114 1318.02 183.086 1317.92 183.033C1317.82 182.98 1317.73 182.903 1317.67 182.809C1317.61 182.715 1317.57 182.606 1317.55 182.493C1317.54 182.38 1317.55 182.265 1317.6 182.159C1318.1 180.874 1318.61 179.546 1319.11 178.212C1319.17 178.039 1319.31 177.898 1319.47 177.821C1319.64 177.744 1319.84 177.738 1320.01 177.803C1320.18 177.869 1320.32 178 1320.4 178.169C1320.48 178.339 1320.48 178.531 1320.42 178.705C1319.91 180.044 1319.4 181.378 1318.9 182.669C1318.85 182.8 1318.76 182.913 1318.64 182.992C1318.53 183.071 1318.39 183.114 1318.25 183.114L1318.25 183.114ZM1321.23 175.185C1321.12 175.185 1321.01 175.157 1320.91 175.106C1320.81 175.054 1320.72 174.979 1320.66 174.887C1320.59 174.795 1320.55 174.688 1320.54 174.577C1320.52 174.466 1320.53 174.352 1320.57 174.247C1321.04 172.946 1321.52 171.606 1321.99 170.263C1322.02 170.175 1322.07 170.094 1322.13 170.024C1322.19 169.954 1322.26 169.898 1322.35 169.857C1322.43 169.816 1322.52 169.792 1322.61 169.787C1322.7 169.781 1322.8 169.794 1322.88 169.825C1322.97 169.855 1323.05 169.903 1323.12 169.965C1323.19 170.027 1323.25 170.102 1323.29 170.186C1323.33 170.269 1323.35 170.36 1323.35 170.453C1323.36 170.545 1323.34 170.638 1323.31 170.725C1322.84 172.072 1322.36 173.418 1321.89 174.723C1321.84 174.858 1321.75 174.975 1321.63 175.058C1321.51 175.14 1321.37 175.184 1321.23 175.184L1321.23 175.185ZM1324.02 167.185C1323.91 167.185 1323.8 167.159 1323.7 167.108C1323.6 167.057 1323.52 166.984 1323.45 166.894C1323.39 166.804 1323.35 166.7 1323.33 166.59C1323.31 166.48 1323.32 166.368 1323.36 166.263C1323.81 164.913 1324.25 163.561 1324.67 162.245C1324.73 162.068 1324.85 161.921 1325.02 161.835C1325.18 161.75 1325.37 161.734 1325.55 161.79C1325.73 161.846 1325.87 161.971 1325.96 162.136C1326.04 162.301 1326.06 162.493 1326 162.67C1325.58 163.992 1325.14 165.35 1324.69 166.707C1324.64 166.846 1324.55 166.967 1324.43 167.053C1324.31 167.138 1324.17 167.185 1324.02 167.185L1324.02 167.185ZM1326.59 159.11C1326.48 159.11 1326.38 159.085 1326.28 159.036C1326.18 158.987 1326.1 158.915 1326.03 158.828C1325.97 158.74 1325.92 158.638 1325.9 158.531C1325.88 158.423 1325.89 158.313 1325.92 158.208C1326.33 156.85 1326.73 155.486 1327.11 154.153C1327.16 153.974 1327.28 153.823 1327.44 153.732C1327.6 153.641 1327.79 153.619 1327.97 153.669C1328.15 153.72 1328.3 153.839 1328.39 154.001C1328.48 154.163 1328.5 154.355 1328.45 154.533C1328.07 155.874 1327.67 157.247 1327.26 158.612C1327.22 158.756 1327.13 158.882 1327.01 158.972C1326.89 159.062 1326.74 159.11 1326.59 159.11L1326.59 159.11ZM1328.9 150.956C1328.79 150.956 1328.68 150.931 1328.59 150.884C1328.49 150.837 1328.41 150.768 1328.34 150.683C1328.28 150.598 1328.23 150.5 1328.21 150.395C1328.19 150.29 1328.19 150.181 1328.22 150.078C1328.58 148.702 1328.93 147.325 1329.25 145.983C1329.3 145.804 1329.41 145.65 1329.57 145.554C1329.72 145.459 1329.91 145.429 1330.09 145.473C1330.27 145.516 1330.43 145.628 1330.52 145.785C1330.62 145.942 1330.65 146.131 1330.61 146.311C1330.29 147.662 1329.94 149.049 1329.57 150.433C1329.53 150.583 1329.45 150.715 1329.32 150.809C1329.2 150.904 1329.05 150.955 1328.9 150.955L1328.9 150.956ZM1330.88 142.717C1330.78 142.718 1330.67 142.694 1330.58 142.649C1330.48 142.604 1330.4 142.538 1330.33 142.457C1330.27 142.376 1330.22 142.28 1330.2 142.179C1330.17 142.077 1330.17 141.971 1330.2 141.869C1330.5 140.478 1330.78 139.088 1331.04 137.735C1331.06 137.644 1331.09 137.557 1331.14 137.48C1331.19 137.402 1331.26 137.336 1331.34 137.284C1331.41 137.231 1331.5 137.195 1331.59 137.176C1331.68 137.157 1331.77 137.157 1331.86 137.174C1331.95 137.191 1332.04 137.227 1332.12 137.278C1332.19 137.329 1332.26 137.394 1332.31 137.471C1332.36 137.548 1332.4 137.634 1332.42 137.725C1332.44 137.815 1332.44 137.909 1332.42 137.999C1332.16 139.363 1331.87 140.765 1331.56 142.166C1331.53 142.322 1331.44 142.462 1331.32 142.563C1331.19 142.663 1331.04 142.717 1330.88 142.717ZM1332.47 134.396C1332.37 134.396 1332.27 134.374 1332.18 134.331C1332.09 134.289 1332.01 134.227 1331.94 134.149C1331.88 134.072 1331.83 133.981 1331.8 133.883C1331.77 133.785 1331.77 133.683 1331.78 133.583C1332.01 132.175 1332.22 130.772 1332.4 129.413C1332.41 129.321 1332.44 129.232 1332.49 129.152C1332.54 129.071 1332.6 129.001 1332.67 128.944C1332.74 128.887 1332.83 128.846 1332.92 128.822C1333.01 128.798 1333.1 128.791 1333.19 128.804C1333.28 128.816 1333.37 128.846 1333.45 128.893C1333.53 128.939 1333.6 129.001 1333.66 129.075C1333.71 129.149 1333.75 129.233 1333.78 129.323C1333.8 129.413 1333.8 129.506 1333.79 129.598C1333.61 130.971 1333.4 132.388 1333.16 133.809C1333.14 133.973 1333.05 134.121 1332.93 134.229C1332.8 134.336 1332.64 134.396 1332.48 134.396H1332.47ZM1333.59 125.997C1333.56 125.997 1333.54 125.996 1333.52 125.994C1333.43 125.985 1333.34 125.958 1333.26 125.914C1333.17 125.871 1333.1 125.812 1333.04 125.741C1332.99 125.67 1332.94 125.588 1332.92 125.5C1332.89 125.412 1332.88 125.32 1332.89 125.228C1333.03 123.811 1333.14 122.399 1333.22 121.032C1333.23 120.847 1333.32 120.673 1333.46 120.55C1333.6 120.427 1333.78 120.364 1333.96 120.375C1334.15 120.386 1334.32 120.471 1334.45 120.61C1334.57 120.748 1334.63 120.931 1334.62 121.116C1334.54 122.501 1334.42 123.93 1334.28 125.366C1334.27 125.538 1334.18 125.699 1334.06 125.815C1333.93 125.932 1333.76 125.997 1333.59 125.997H1333.59ZM1334.09 117.541H1334.08C1333.98 117.54 1333.89 117.52 1333.81 117.484C1333.72 117.447 1333.65 117.394 1333.58 117.328C1333.52 117.262 1333.47 117.184 1333.44 117.099C1333.4 117.013 1333.39 116.922 1333.39 116.83C1333.4 116.336 1333.4 115.844 1333.4 115.365C1333.4 114.446 1333.38 113.526 1333.35 112.628C1333.35 112.536 1333.37 112.443 1333.4 112.356C1333.43 112.27 1333.48 112.19 1333.54 112.122C1333.6 112.054 1333.68 111.999 1333.76 111.961C1333.85 111.922 1333.94 111.901 1334.03 111.898C1334.12 111.895 1334.22 111.91 1334.3 111.943C1334.39 111.976 1334.47 112.026 1334.54 112.089C1334.6 112.153 1334.66 112.229 1334.69 112.314C1334.73 112.398 1334.75 112.489 1334.75 112.582C1334.78 113.495 1334.8 114.431 1334.8 115.365C1334.8 115.851 1334.8 116.352 1334.79 116.852C1334.78 117.036 1334.71 117.211 1334.58 117.339C1334.45 117.468 1334.27 117.54 1334.09 117.541L1334.09 117.541ZM1333.8 109.081C1333.62 109.08 1333.45 109.015 1333.32 108.897C1333.2 108.779 1333.12 108.617 1333.1 108.443C1332.97 107.026 1332.8 105.628 1332.59 104.288C1332.58 104.197 1332.58 104.103 1332.6 104.013C1332.62 103.923 1332.66 103.837 1332.71 103.762C1332.77 103.687 1332.84 103.623 1332.92 103.574C1332.99 103.526 1333.08 103.494 1333.17 103.479C1333.27 103.465 1333.36 103.469 1333.45 103.491C1333.54 103.513 1333.62 103.553 1333.7 103.608C1333.77 103.663 1333.84 103.733 1333.88 103.812C1333.93 103.892 1333.96 103.98 1333.97 104.072C1334.19 105.442 1334.36 106.87 1334.49 108.318C1334.5 108.409 1334.49 108.502 1334.47 108.589C1334.44 108.677 1334.39 108.758 1334.33 108.829C1334.28 108.9 1334.2 108.958 1334.12 109.001C1334.04 109.043 1333.95 109.069 1333.86 109.078C1333.84 109.079 1333.82 109.08 1333.8 109.08L1333.8 109.081ZM1332.48 100.727C1332.32 100.727 1332.17 100.674 1332.04 100.575C1331.92 100.477 1331.83 100.34 1331.8 100.187C1331.47 98.8086 1331.1 97.4567 1330.67 96.1711C1330.64 96.0832 1330.63 95.99 1330.63 95.897C1330.64 95.8039 1330.66 95.713 1330.71 95.6293C1330.75 95.5457 1330.8 95.4712 1330.87 95.4101C1330.94 95.349 1331.03 95.3026 1331.12 95.2735C1331.2 95.2445 1331.3 95.2334 1331.39 95.241C1331.48 95.2486 1331.57 95.2746 1331.66 95.3176C1331.74 95.3606 1331.81 95.4196 1331.87 95.4913C1331.93 95.563 1331.98 95.6459 1332 95.735C1332.44 97.0597 1332.83 98.4499 1333.16 99.8673C1333.18 99.97 1333.18 100.077 1333.16 100.18C1333.14 100.283 1333.09 100.379 1333.02 100.462C1332.96 100.545 1332.88 100.612 1332.78 100.658C1332.69 100.703 1332.58 100.727 1332.48 100.727H1332.48ZM1329.83 92.7022C1329.69 92.7023 1329.56 92.6628 1329.45 92.5886C1329.33 92.5143 1329.24 92.4086 1329.19 92.2842C1328.63 91.0161 1328.01 89.7794 1327.31 88.5795C1327.23 88.419 1327.2 88.2302 1327.25 88.0537C1327.3 87.8771 1327.42 87.7269 1327.58 87.6353C1327.74 87.5436 1327.92 87.5179 1328.1 87.5635C1328.28 87.6092 1328.43 87.7226 1328.53 87.8795C1329.24 89.1236 1329.89 90.4058 1330.47 91.7205C1330.52 91.8271 1330.54 91.9436 1330.53 92.0597C1330.52 92.1757 1330.48 92.2876 1330.42 92.3851C1330.35 92.4826 1330.27 92.5628 1330.16 92.6183C1330.06 92.6738 1329.95 92.7029 1329.83 92.7029V92.7022ZM1325.59 85.399C1325.48 85.3991 1325.38 85.3739 1325.28 85.3253C1325.18 85.2766 1325.1 85.206 1325.03 85.119C1324.2 84.0129 1323.31 82.9592 1322.35 81.9638C1322.22 81.8301 1322.15 81.6507 1322.15 81.4651C1322.16 81.2795 1322.23 81.1028 1322.37 80.974C1322.5 80.8451 1322.68 80.7747 1322.87 80.7781C1323.05 80.7815 1323.23 80.8585 1323.36 80.9922C1324.36 82.0293 1325.29 83.1273 1326.15 84.2797C1326.23 84.3837 1326.28 84.5073 1326.29 84.6368C1326.3 84.7663 1326.28 84.8964 1326.22 85.0127C1326.16 85.129 1326.07 85.2268 1325.96 85.2951C1325.85 85.3635 1325.72 85.3997 1325.59 85.3997L1325.59 85.399ZM1319.73 79.3213C1319.57 79.3214 1319.42 79.2665 1319.29 79.1657C1318.22 78.2969 1317.09 77.4929 1315.92 76.7577C1315.76 76.6591 1315.65 76.5019 1315.61 76.321C1315.56 76.14 1315.6 75.95 1315.7 75.7927C1315.79 75.6355 1315.95 75.5239 1316.13 75.4825C1316.31 75.4411 1316.5 75.4732 1316.66 75.5719C1317.88 76.3366 1319.05 77.1729 1320.17 78.0765C1320.29 78.1675 1320.37 78.2912 1320.41 78.4306C1320.45 78.5699 1320.44 78.718 1320.39 78.8545C1320.35 78.991 1320.26 79.1091 1320.14 79.1927C1320.02 79.2762 1319.88 79.3211 1319.73 79.321V79.3213ZM1242.18 77.9122C1242.01 77.9123 1241.85 77.8532 1241.72 77.7456C1241.6 77.638 1241.51 77.4888 1241.48 77.3248C1241.46 77.1608 1241.49 76.9926 1241.58 76.8503C1241.66 76.708 1241.8 76.601 1241.95 76.5483C1243.27 76.1055 1244.64 75.6673 1246.01 75.2463C1246.09 75.2177 1246.19 75.2069 1246.28 75.2146C1246.37 75.2223 1246.46 75.2483 1246.55 75.2911C1246.63 75.3339 1246.7 75.3926 1246.76 75.4639C1246.82 75.5351 1246.86 75.6175 1246.89 75.7062C1246.92 75.7948 1246.93 75.8881 1246.92 75.9804C1246.91 76.0728 1246.88 76.1624 1246.84 76.2441C1246.79 76.3258 1246.73 76.3979 1246.66 76.4563C1246.59 76.5147 1246.51 76.5581 1246.42 76.5841C1245.06 77.0025 1243.71 77.4372 1242.4 77.8762C1242.33 77.9002 1242.25 77.9123 1242.18 77.9122ZM1250.28 75.4146C1250.11 75.4146 1249.95 75.3535 1249.82 75.2424C1249.69 75.1313 1249.61 74.9779 1249.58 74.8104C1249.56 74.6429 1249.6 74.4727 1249.69 74.3312C1249.78 74.1897 1249.93 74.0866 1250.09 74.0408C1251.45 73.6556 1252.83 73.2828 1254.2 72.9327C1254.38 72.8886 1254.57 72.917 1254.72 73.0117C1254.88 73.1064 1255 73.2596 1255.04 73.4382C1255.09 73.6168 1255.06 73.8063 1254.97 73.9655C1254.88 74.1248 1254.72 74.2408 1254.55 74.2886C1253.19 74.6359 1251.82 75.0059 1250.47 75.3881C1250.41 75.4057 1250.34 75.4146 1250.28 75.4146H1250.28ZM1312.58 74.8187C1312.48 74.8187 1312.37 74.7947 1312.28 74.7487C1311.06 74.1584 1309.77 73.6128 1308.44 73.1268C1308.27 73.062 1308.13 72.9314 1308.05 72.7634C1307.98 72.5954 1307.97 72.4037 1308.03 72.2302C1308.1 72.0566 1308.22 71.9153 1308.39 71.8371C1308.56 71.7588 1308.75 71.75 1308.93 71.8125C1310.29 72.3141 1311.63 72.8781 1312.89 73.4883C1313.03 73.5574 1313.15 73.6728 1313.21 73.8157C1313.28 73.9586 1313.3 74.1205 1313.27 74.275C1313.23 74.4294 1313.14 74.5672 1313.02 74.6659C1312.9 74.7647 1312.74 74.8184 1312.58 74.8183L1312.58 74.8187ZM1258.49 73.3067C1258.32 73.3068 1258.15 73.2434 1258.02 73.1289C1257.89 73.0143 1257.81 72.8565 1257.79 72.6856C1257.77 72.5147 1257.82 72.3427 1257.92 72.2023C1258.02 72.0619 1258.16 71.963 1258.33 71.9245C1259.72 71.6039 1261.12 71.2998 1262.49 71.0208C1262.67 70.9838 1262.86 71.0206 1263.02 71.123C1263.17 71.2255 1263.28 71.3853 1263.32 71.5672C1263.36 71.7492 1263.32 71.9384 1263.22 72.0932C1263.11 72.248 1262.95 72.3558 1262.77 72.3928C1261.41 72.6696 1260.02 72.9712 1258.65 73.2888C1258.6 73.3006 1258.54 73.3064 1258.49 73.3062L1258.49 73.3067ZM1304.65 71.8906C1304.59 71.8906 1304.52 71.8823 1304.46 71.8661C1303.15 71.5117 1301.78 71.1972 1300.39 70.9316C1300.3 70.9155 1300.21 70.8813 1300.13 70.8312C1300.05 70.7811 1299.99 70.716 1299.93 70.6397C1299.88 70.5634 1299.84 70.4775 1299.82 70.3868C1299.81 70.2961 1299.8 70.2026 1299.82 70.1116C1299.84 70.0205 1299.87 69.9339 1299.93 69.8565C1299.98 69.7792 1300.04 69.7128 1300.12 69.6612C1300.2 69.6096 1300.28 69.5737 1300.37 69.5557C1300.46 69.5377 1300.56 69.538 1300.65 69.5564C1302.08 69.8286 1303.49 70.151 1304.83 70.5147C1304.99 70.5589 1305.14 70.6611 1305.23 70.8023C1305.32 70.9435 1305.36 71.1142 1305.34 71.2824C1305.32 71.4507 1305.24 71.6052 1305.11 71.7171C1304.98 71.8289 1304.82 71.8906 1304.65 71.8906H1304.65ZM1266.8 71.6185C1266.62 71.6184 1266.45 71.5526 1266.32 71.4342C1266.19 71.3157 1266.11 71.1531 1266.1 70.9786C1266.08 70.804 1266.13 70.6301 1266.24 70.4913C1266.35 70.3525 1266.5 70.2589 1266.68 70.2288C1268.09 69.9823 1269.5 69.7566 1270.88 69.558C1271.07 69.5315 1271.25 69.5792 1271.4 69.6904C1271.55 69.8017 1271.65 69.9675 1271.67 70.1513C1271.7 70.3351 1271.65 70.5218 1271.54 70.6705C1271.43 70.8192 1271.27 70.9175 1271.08 70.944C1269.72 71.1407 1268.31 71.364 1266.92 71.6083C1266.88 71.6149 1266.84 71.6181 1266.8 71.6179L1266.8 71.6185ZM1275.18 70.4157C1275 70.4156 1274.83 70.3469 1274.7 70.2238C1274.57 70.1007 1274.49 69.9325 1274.48 69.7538C1274.47 69.5751 1274.53 69.3995 1274.65 69.263C1274.76 69.1265 1274.93 69.0395 1275.11 69.0199C1276.54 68.8617 1277.97 68.7297 1279.35 68.6279C1279.54 68.6143 1279.72 68.6747 1279.86 68.7959C1280 68.9172 1280.09 69.0893 1280.1 69.2745C1280.11 69.4596 1280.05 69.6426 1279.93 69.7832C1279.81 69.9238 1279.64 70.0105 1279.45 70.0242C1278.09 70.1252 1276.67 70.2556 1275.26 70.4118C1275.23 70.4144 1275.21 70.4155 1275.18 70.4152L1275.18 70.4157ZM1296.33 70.2944C1296.3 70.2943 1296.27 70.2926 1296.25 70.2892C1294.89 70.1241 1293.49 69.9952 1292.07 69.905C1291.97 69.8996 1291.88 69.876 1291.8 69.8357C1291.72 69.7953 1291.64 69.739 1291.58 69.67C1291.52 69.601 1291.48 69.5206 1291.45 69.4334C1291.42 69.3463 1291.4 69.254 1291.41 69.1621C1291.41 69.0701 1291.44 68.9802 1291.48 68.8975C1291.52 68.8148 1291.58 68.7409 1291.65 68.6802C1291.71 68.6194 1291.8 68.5729 1291.88 68.5433C1291.97 68.5137 1292.06 68.5017 1292.15 68.5078C1293.6 68.5994 1295.04 68.7318 1296.42 68.8998C1296.59 68.9212 1296.75 69.0094 1296.87 69.1464C1296.98 69.2833 1297.04 69.4588 1297.03 69.6369C1297.02 69.8149 1296.94 69.9822 1296.81 70.1045C1296.68 70.2267 1296.51 70.2948 1296.33 70.2948V70.2944ZM1283.63 69.7971C1283.45 69.8001 1283.27 69.7293 1283.14 69.6002C1283 69.4711 1282.93 69.2942 1282.92 69.1086C1282.92 68.9229 1282.99 68.7437 1283.12 68.6102C1283.25 68.4768 1283.42 68.4001 1283.61 68.3971C1284.68 68.3612 1285.76 68.3429 1286.8 68.3429C1287.17 68.34 1287.52 68.345 1287.88 68.3493C1288.07 68.3504 1288.24 68.4252 1288.38 68.5573C1288.51 68.6893 1288.58 68.8678 1288.58 69.0535C1288.58 69.2391 1288.5 69.4167 1288.37 69.5472C1288.24 69.6777 1288.06 69.7504 1287.87 69.7493H1287.87C1287.51 69.7451 1287.16 69.743 1286.81 69.743H1286.8C1285.77 69.743 1284.72 69.761 1283.66 69.7964C1283.65 69.7964 1283.64 69.7965 1283.63 69.7965L1283.63 69.7971Z" fill="#418DF9"/>
<path d="M1154.38 214.291C1154.22 214.291 1154.06 214.236 1153.93 214.135C1153.81 214.034 1153.72 213.892 1153.69 213.735C1153.66 213.578 1153.68 213.414 1153.75 213.271C1153.83 213.128 1153.95 213.014 1154.09 212.95C1154.74 212.666 1155.4 212.39 1156.06 212.132C1156.14 212.098 1156.23 212.082 1156.33 212.083C1156.42 212.085 1156.51 212.104 1156.59 212.141C1156.68 212.177 1156.75 212.23 1156.82 212.296C1156.88 212.362 1156.93 212.44 1156.97 212.526C1157 212.611 1157.02 212.703 1157.01 212.794C1157.01 212.886 1156.99 212.977 1156.96 213.061C1156.92 213.146 1156.87 213.222 1156.8 213.286C1156.74 213.35 1156.66 213.4 1156.57 213.434C1155.93 213.686 1155.29 213.955 1154.66 214.232C1154.57 214.271 1154.47 214.291 1154.38 214.291Z" fill="#418DF9"/>
<path d="M1146.27 215C1147.33 214.731 1147.81 212.966 1147.32 211.057C1146.84 209.149 1145.59 207.82 1144.52 208.089C1143.46 208.358 1142.98 210.123 1143.46 212.031C1143.95 213.94 1145.2 215.269 1146.27 215Z" fill="#A2BDFF"/>
<path d="M1150.31 225.153C1151.33 224.761 1151.6 222.953 1150.9 221.114C1150.2 219.275 1148.79 218.101 1147.77 218.493C1146.74 218.884 1146.48 220.693 1147.18 222.532C1147.88 224.371 1149.28 225.544 1150.31 225.153Z" fill="#A2BDFF"/>
<path d="M1146.74 218.35C1147.55 218.35 1148.21 217.691 1148.21 216.878C1148.21 216.065 1147.55 215.406 1146.74 215.406C1145.93 215.406 1145.27 216.065 1145.27 216.878C1145.27 217.691 1145.93 218.35 1146.74 218.35Z" fill="#0E84E5"/>
<path d="M1587.39 45.2862C1587.39 45.2862 1569.56 92.2182 1515.02 84.7481C1460.48 77.278 1432.1 152.897 1484.62 176.95C1537.13 201.003 1503.51 233.894 1538.41 247.779C1578.08 263.561 1589.14 202.746 1617.94 206.725C1681.49 215.506 1719.2 192.234 1700.41 164.807C1667.44 116.664 1645.63 119.725 1652.73 87.0458C1659.84 54.3663 1606.77 7.77876 1587.39 45.2862Z" fill="#DEE9FF"/>
<path d="M1570.14 91.9163C1569.7 91.8885 1569.29 91.6924 1569 91.3691C1568.7 91.0458 1568.55 90.6206 1568.56 90.183L1568.68 73.6898C1568.68 73.4605 1568.72 73.2329 1568.81 73.0207C1568.89 72.8085 1569.02 72.616 1569.19 72.4546C1569.35 72.2933 1569.54 72.1665 1569.76 72.0816C1569.97 71.9968 1570.2 71.9558 1570.43 71.961L1571.74 72.0199C1571.97 72.035 1572.2 72.0961 1572.4 72.1996C1572.61 72.3032 1572.79 72.4469 1572.93 72.6223C1573.08 72.7977 1573.19 73.0011 1573.26 73.2202C1573.32 73.4393 1573.35 73.6696 1573.32 73.8973L1571.88 90.3315C1571.85 90.769 1571.65 91.178 1571.33 91.4733C1571 91.7685 1570.58 91.9272 1570.14 91.9163Z" fill="#418DF9"/>
<path d="M1562.43 93.7031C1562.16 93.7963 1561.87 93.7787 1561.61 93.6541C1561.35 93.5296 1561.16 93.3084 1561.06 93.0391L1557.36 82.958C1557.26 82.6714 1557.27 82.3539 1557.39 82.0752C1557.52 81.7965 1557.75 81.5794 1558.04 81.4715L1558.86 81.1807C1559 81.1322 1559.15 81.1135 1559.3 81.1257C1559.45 81.1379 1559.59 81.1808 1559.72 81.2516C1559.85 81.3224 1559.97 81.4197 1560.06 81.5372C1560.15 81.6547 1560.22 81.7899 1560.25 81.9343L1563.13 92.3061C1563.21 92.5847 1563.19 92.8832 1563.05 93.142C1562.92 93.4009 1562.7 93.6012 1562.43 93.7031Z" fill="#418DF9"/>
<path d="M1558.37 99.8098C1557.83 100.551 1556.67 100.598 1555.74 99.9149L1539.29 87.7957C1538.31 87.0717 1537.97 85.813 1538.55 85.0268L1539.35 83.9308C1539.92 83.1444 1541.18 83.1468 1542.12 83.9366L1557.76 97.1517C1558.65 97.896 1558.91 99.0685 1558.37 99.8098Z" fill="#418DF9"/>
<path d="M1673.91 125.996L1572.42 101.837C1568.66 100.942 1564.89 103.265 1563.99 107.025L1549.07 169.72C1548.17 173.48 1550.5 177.255 1554.26 178.15L1655.74 202.309C1659.5 203.204 1663.28 200.881 1664.17 197.121L1679.1 134.426C1679.99 130.666 1677.67 126.891 1673.91 125.996Z" fill="#A2BDFF"/>
<path d="M1677.69 140.344L1562.58 112.944L1559.46 126.063L1674.57 153.464L1677.69 140.344Z" fill="#418DF9"/>
<path d="M1659.24 189.348L1636.35 183.9C1636.28 183.882 1636.21 183.927 1636.19 184L1634.74 190.092C1634.72 190.164 1634.77 190.238 1634.84 190.255L1657.73 195.703C1657.8 195.721 1657.87 195.676 1657.89 195.603L1659.34 189.512C1659.36 189.439 1659.31 189.365 1659.24 189.348Z" fill="white"/>
<path d="M1615.11 93.0894L1496.91 133.808C1493.25 135.067 1491.31 139.051 1492.57 142.706L1518.03 216.611C1519.29 220.267 1523.27 222.209 1526.93 220.95L1645.13 180.231C1648.79 178.972 1650.73 174.988 1649.47 171.333L1624.01 97.4279C1622.75 93.7727 1618.77 91.8303 1615.11 93.0894Z" fill="#699CFF"/>
<path d="M1612.66 102.643L1598.87 107.393C1596.67 108.149 1595.51 110.539 1596.26 112.732L1601.01 126.52C1601.77 128.713 1604.16 129.878 1606.35 129.123L1620.14 124.373C1622.33 123.618 1623.5 121.227 1622.74 119.034L1617.99 105.247C1617.24 103.053 1614.85 101.888 1612.66 102.643Z" fill="white"/>
<path d="M1564.36 168.72L1518.5 184.519C1518.37 184.564 1518.3 184.707 1518.35 184.839L1520.68 191.62C1520.73 191.751 1520.87 191.821 1521 191.776L1566.86 175.977C1566.99 175.932 1567.06 175.789 1567.02 175.657L1564.68 168.876C1564.64 168.745 1564.49 168.675 1564.36 168.72Z" fill="white"/>
<path d="M1588.78 175.984L1523.33 198.532C1523.2 198.577 1523.13 198.72 1523.17 198.851L1525.51 205.633C1525.55 205.764 1525.7 205.834 1525.83 205.788L1591.28 183.241C1591.41 183.196 1591.48 183.053 1591.44 182.921L1589.1 176.14C1589.06 176.009 1588.91 175.939 1588.78 175.984Z" fill="white"/>
</svg>
