<svg width="600" height="600" viewBox="0 0 600 600" fill="none" xmlns="http://www.w3.org/2000/svg">
<mask id="path-1-inside-1_6_2640" fill="white">
<path d="M314.361 393.32C307.8 399.077 290.264 399.865 286.401 395.463C282.539 391.061 288.136 376.668 294.698 370.911C301.259 365.153 320.157 365.133 322.683 368.012C325.21 370.891 320.923 387.562 314.361 393.32Z"/>
<path d="M336.459 448.043C329.46 449.056 317.201 441.847 316.521 437.151C315.842 432.456 326 425.152 332.999 424.139C339.999 423.126 352.843 431.457 353.288 434.529C353.732 437.6 343.458 447.03 336.459 448.043Z"/>
<path d="M322.993 359.753C316.431 365.51 298.895 366.298 295.033 361.896C291.17 357.494 296.768 343.101 303.329 337.344C309.891 331.586 328.788 331.566 331.315 334.445C333.841 337.324 329.554 353.995 322.993 359.753Z"/>
<path d="M357.145 429.056C350.146 430.069 337.887 422.859 337.207 418.164C336.528 413.468 346.686 406.164 353.685 405.151C360.685 404.138 373.529 412.469 373.974 415.541C374.419 418.612 364.145 428.042 357.145 429.056Z"/>
<path d="M327.309 324.748C320.747 330.505 303.211 331.293 299.349 326.891C295.486 322.489 301.084 308.096 307.645 302.338C314.207 296.581 333.104 296.56 335.631 299.44C338.157 302.319 333.87 318.99 327.309 324.748Z"/>
<path d="M375.536 407.185C368.536 408.198 356.278 400.988 355.598 396.293C354.918 391.597 365.077 384.293 372.076 383.28C379.075 382.267 391.92 390.598 392.365 393.67C392.809 396.741 382.535 406.171 375.536 407.185Z"/>
<path d="M334.981 289.742C328.42 295.5 310.883 296.287 307.021 291.885C303.158 287.483 308.756 273.091 315.318 267.333C321.879 261.575 340.776 261.555 343.303 264.434C345.83 267.314 341.543 283.984 334.981 289.742Z"/>
<path d="M396.206 386.796C389.207 387.809 376.948 380.599 376.268 375.904C375.589 371.208 385.747 363.904 392.746 362.891C399.746 361.878 412.59 370.21 413.035 373.281C413.479 376.353 403.205 385.783 396.206 386.796Z"/>
<path d="M341.215 254.737C334.653 260.494 317.117 261.282 313.255 256.88C309.392 252.478 314.99 238.085 321.551 232.327C328.113 226.57 347.01 226.549 349.537 229.429C352.063 232.308 347.776 248.979 341.215 254.737Z"/>
<path d="M415.899 365.772C408.9 366.785 396.641 359.576 395.962 354.88C395.282 350.185 405.44 342.881 412.44 341.867C419.439 340.854 432.284 349.186 432.728 352.257C433.173 355.329 422.899 364.759 415.899 365.772Z"/>
<path d="M339.297 219.731C332.735 225.489 315.199 226.276 311.337 221.874C307.474 217.472 313.072 203.079 319.633 197.322C326.195 191.564 345.092 191.544 347.619 194.423C350.145 197.303 345.858 213.973 339.297 219.731Z"/>
<path d="M430.055 341.148C423.056 342.161 410.797 334.952 410.117 330.256C409.438 325.561 419.596 318.257 426.595 317.244C433.595 316.231 446.44 324.562 446.884 327.633C447.329 330.705 437.055 340.135 430.055 341.148Z"/>
<path d="M335.461 184.726C328.899 190.483 311.363 191.271 307.5 186.869C303.638 182.467 309.236 168.074 315.797 162.316C322.359 156.559 341.256 156.538 343.782 159.418C346.309 162.297 342.022 178.968 335.461 184.726Z"/>
<path d="M442.908 315.677C435.909 316.69 423.65 309.481 422.971 304.785C422.291 300.09 432.449 292.786 439.449 291.772C446.448 290.759 459.293 299.091 459.737 302.162C460.182 305.234 449.908 314.664 442.908 315.677Z"/>
<path d="M328.747 149.72C322.186 155.478 304.65 156.265 300.787 151.863C296.925 147.461 302.522 133.068 309.084 127.311C315.645 121.553 334.543 121.533 337.069 124.412C339.596 127.292 335.309 143.962 328.747 149.72Z"/>
<path d="M453.808 288.936C446.809 289.949 434.55 282.739 433.87 278.044C433.19 273.348 443.349 266.044 450.348 265.031C457.347 264.018 470.192 272.349 470.637 275.421C471.081 278.492 460.807 287.923 453.808 288.936Z"/>
<path d="M274.484 368.412C281.352 373.8 285.358 390.891 281.743 395.499C278.129 400.106 262.951 397.257 256.083 391.869C249.215 386.481 245.712 367.911 248.076 364.897C250.441 361.883 267.616 363.024 274.484 368.412Z"/>
<path d="M320.373 413.515C322.658 420.208 317.832 433.586 313.342 435.119C308.852 436.652 299.801 428.014 297.515 421.321C295.229 414.628 301.051 400.468 303.988 399.465C306.925 398.462 318.087 406.822 320.373 413.515Z"/>
<path d="M283.116 334.845C289.984 340.233 293.99 357.324 290.375 361.931C286.76 366.539 271.582 363.69 264.714 358.302C257.846 352.914 254.343 334.344 256.708 331.33C259.072 328.316 276.248 329.457 283.116 334.845Z"/>
<path d="M341.059 394.527C343.345 401.22 338.518 414.597 334.028 416.131C329.538 417.664 320.487 409.026 318.201 402.333C315.916 395.64 321.737 381.48 324.674 380.477C327.611 379.474 338.773 387.834 341.059 394.527Z"/>
<path d="M287.431 299.84C294.3 305.228 298.305 322.318 294.691 326.926C291.076 331.534 275.898 328.684 269.03 323.296C262.162 317.908 258.659 299.338 261.023 296.324C263.388 293.31 280.563 294.452 287.431 299.84Z"/>
<path d="M359.45 372.656C361.735 379.349 356.908 392.726 352.419 394.26C347.929 395.793 338.878 387.155 336.592 380.462C334.306 373.769 340.128 359.609 343.065 358.606C346.002 357.603 357.164 365.963 359.45 372.656Z"/>
<path d="M295.104 264.834C301.972 270.222 305.978 287.313 302.363 291.92C298.749 296.528 283.571 293.679 276.702 288.291C269.834 282.903 266.332 264.333 268.696 261.319C271.06 258.305 288.236 259.446 295.104 264.834Z"/>
<path d="M380.12 352.267C382.405 358.96 377.579 372.338 373.089 373.871C368.599 375.404 359.548 366.766 357.262 360.073C354.977 353.38 360.798 339.22 363.735 338.217C366.672 337.214 377.834 345.574 380.12 352.267Z"/>
<path d="M301.338 229.829C308.206 235.217 312.212 252.307 308.597 256.915C304.982 261.522 289.804 258.673 282.936 253.285C276.068 247.897 272.565 229.327 274.93 226.313C277.294 223.299 294.47 224.441 301.338 229.829Z"/>
<path d="M399.813 331.244C402.098 337.936 397.272 351.314 392.782 352.847C388.292 354.381 379.241 345.742 376.955 339.05C374.669 332.357 380.491 318.197 383.428 317.194C386.365 316.191 397.527 324.551 399.813 331.244Z"/>
<path d="M299.42 194.823C306.288 200.211 310.293 217.302 306.679 221.909C303.064 226.517 287.886 223.668 281.018 218.28C274.15 212.892 270.647 194.322 273.012 191.308C275.376 188.294 292.551 189.435 299.42 194.823Z"/>
<path d="M413.969 306.62C416.255 313.313 411.428 326.69 406.938 328.223C402.448 329.757 393.397 321.119 391.111 314.426C388.826 307.733 394.647 293.573 397.584 292.57C400.521 291.567 411.683 299.927 413.969 306.62Z"/>
<path d="M295.583 159.818C302.452 165.206 306.457 182.296 302.843 186.904C299.228 191.511 284.05 188.662 277.182 183.274C270.314 177.886 266.811 159.316 269.175 156.302C271.54 153.288 288.715 154.43 295.583 159.818Z"/>
<path d="M426.822 281.149C429.108 287.841 424.281 301.219 419.791 302.752C415.301 304.286 406.25 295.647 403.965 288.955C401.679 282.262 407.5 268.102 410.437 267.099C413.374 266.096 424.536 274.456 426.822 281.149Z"/>
<path d="M288.87 124.812C295.738 130.2 299.744 147.291 296.129 151.898C292.515 156.506 277.337 153.657 270.469 148.269C263.6 142.881 260.098 124.311 262.462 121.297C264.826 118.283 282.002 119.424 288.87 124.812Z"/>
<path d="M437.721 254.407C440.007 261.1 435.18 274.477 430.69 276.011C426.2 277.544 417.149 268.906 414.864 262.213C412.578 255.52 418.399 241.36 421.336 240.357C424.273 239.354 435.435 247.714 437.721 254.407Z"/>
<path d="M309.031 101.033C311.47 109.415 304.761 125.636 299.139 127.272C293.516 128.909 282.845 117.746 280.405 109.364C277.966 100.982 285.945 83.8525 289.623 82.782C293.302 81.7115 306.591 92.6514 309.031 101.033Z"/>
<path d="M461.917 247.159C459.872 253.929 448.152 261.984 443.61 260.613C439.068 259.241 436.75 246.946 438.794 240.176C440.839 233.406 453.824 225.294 456.795 226.191C459.766 227.089 463.961 240.388 461.917 247.159Z"/>
<path d="M176.313 250.671C176.313 250.671 225.906 295.953 236.106 350.561C246.52 406.311 242.308 482.974 242.308 482.974C242.308 482.974 235.604 401.355 223.829 355.098C212.055 308.842 176.313 250.671 176.313 250.671Z"/>
<path d="M480.19 346.816C480.19 346.816 390.96 452.226 347.701 464.652C303.539 477.338 241.385 479.836 241.385 479.836C241.385 479.836 306.697 468.153 343.098 455.1C379.499 442.046 480.19 346.816 480.19 346.816Z"/>
</mask>
<path d="M314.361 393.32C307.8 399.077 290.264 399.865 286.401 395.463C282.539 391.061 288.136 376.668 294.698 370.911C301.259 365.153 320.157 365.133 322.683 368.012C325.21 370.891 320.923 387.562 314.361 393.32Z" fill="#FFB46E"/>
<path d="M336.459 448.043C329.46 449.056 317.201 441.847 316.521 437.151C315.842 432.456 326 425.152 332.999 424.139C339.999 423.126 352.843 431.457 353.288 434.529C353.732 437.6 343.458 447.03 336.459 448.043Z" fill="#FFB46E"/>
<path d="M322.993 359.753C316.431 365.51 298.895 366.298 295.033 361.896C291.17 357.494 296.768 343.101 303.329 337.344C309.891 331.586 328.788 331.566 331.315 334.445C333.841 337.324 329.554 353.995 322.993 359.753Z" fill="#FFB46E"/>
<path d="M357.145 429.056C350.146 430.069 337.887 422.859 337.207 418.164C336.528 413.468 346.686 406.164 353.685 405.151C360.685 404.138 373.529 412.469 373.974 415.541C374.419 418.612 364.145 428.042 357.145 429.056Z" fill="#FFB46E"/>
<path d="M327.309 324.748C320.747 330.505 303.211 331.293 299.349 326.891C295.486 322.489 301.084 308.096 307.645 302.338C314.207 296.581 333.104 296.56 335.631 299.44C338.157 302.319 333.87 318.99 327.309 324.748Z" fill="#FFB46E"/>
<path d="M375.536 407.185C368.536 408.198 356.278 400.988 355.598 396.293C354.918 391.597 365.077 384.293 372.076 383.28C379.075 382.267 391.92 390.598 392.365 393.67C392.809 396.741 382.535 406.171 375.536 407.185Z" fill="#FFB46E"/>
<path d="M334.981 289.742C328.42 295.5 310.883 296.287 307.021 291.885C303.158 287.483 308.756 273.091 315.318 267.333C321.879 261.575 340.776 261.555 343.303 264.434C345.83 267.314 341.543 283.984 334.981 289.742Z" fill="#FFB46E"/>
<path d="M396.206 386.796C389.207 387.809 376.948 380.599 376.268 375.904C375.589 371.208 385.747 363.904 392.746 362.891C399.746 361.878 412.59 370.21 413.035 373.281C413.479 376.353 403.205 385.783 396.206 386.796Z" fill="#FFB46E"/>
<path d="M341.215 254.737C334.653 260.494 317.117 261.282 313.255 256.88C309.392 252.478 314.99 238.085 321.551 232.327C328.113 226.57 347.01 226.549 349.537 229.429C352.063 232.308 347.776 248.979 341.215 254.737Z" fill="#FFB46E"/>
<path d="M415.899 365.772C408.9 366.785 396.641 359.576 395.962 354.88C395.282 350.185 405.44 342.881 412.44 341.867C419.439 340.854 432.284 349.186 432.728 352.257C433.173 355.329 422.899 364.759 415.899 365.772Z" fill="#FFB46E"/>
<path d="M339.297 219.731C332.735 225.489 315.199 226.276 311.337 221.874C307.474 217.472 313.072 203.079 319.633 197.322C326.195 191.564 345.092 191.544 347.619 194.423C350.145 197.303 345.858 213.973 339.297 219.731Z" fill="#FFB46E"/>
<path d="M430.055 341.148C423.056 342.161 410.797 334.952 410.117 330.256C409.438 325.561 419.596 318.257 426.595 317.244C433.595 316.231 446.44 324.562 446.884 327.633C447.329 330.705 437.055 340.135 430.055 341.148Z" fill="#FFB46E"/>
<path d="M335.461 184.726C328.899 190.483 311.363 191.271 307.5 186.869C303.638 182.467 309.236 168.074 315.797 162.316C322.359 156.559 341.256 156.538 343.782 159.418C346.309 162.297 342.022 178.968 335.461 184.726Z" fill="#FFB46E"/>
<path d="M442.908 315.677C435.909 316.69 423.65 309.481 422.971 304.785C422.291 300.09 432.449 292.786 439.449 291.772C446.448 290.759 459.293 299.091 459.737 302.162C460.182 305.234 449.908 314.664 442.908 315.677Z" fill="#FFB46E"/>
<path d="M328.747 149.72C322.186 155.478 304.65 156.265 300.787 151.863C296.925 147.461 302.522 133.068 309.084 127.311C315.645 121.553 334.543 121.533 337.069 124.412C339.596 127.292 335.309 143.962 328.747 149.72Z" fill="#FFB46E"/>
<path d="M453.808 288.936C446.809 289.949 434.55 282.739 433.87 278.044C433.19 273.348 443.349 266.044 450.348 265.031C457.347 264.018 470.192 272.349 470.637 275.421C471.081 278.492 460.807 287.923 453.808 288.936Z" fill="#FFB46E"/>
<path d="M274.484 368.412C281.352 373.8 285.358 390.891 281.743 395.499C278.129 400.106 262.951 397.257 256.083 391.869C249.215 386.481 245.712 367.911 248.076 364.897C250.441 361.883 267.616 363.024 274.484 368.412Z" fill="#FFB46E"/>
<path d="M320.373 413.515C322.658 420.208 317.832 433.586 313.342 435.119C308.852 436.652 299.801 428.014 297.515 421.321C295.229 414.628 301.051 400.468 303.988 399.465C306.925 398.462 318.087 406.822 320.373 413.515Z" fill="#FFB46E"/>
<path d="M283.116 334.845C289.984 340.233 293.99 357.324 290.375 361.931C286.76 366.539 271.582 363.69 264.714 358.302C257.846 352.914 254.343 334.344 256.708 331.33C259.072 328.316 276.248 329.457 283.116 334.845Z" fill="#FFB46E"/>
<path d="M341.059 394.527C343.345 401.22 338.518 414.597 334.028 416.131C329.538 417.664 320.487 409.026 318.201 402.333C315.916 395.64 321.737 381.48 324.674 380.477C327.611 379.474 338.773 387.834 341.059 394.527Z" fill="#FFB46E"/>
<path d="M287.431 299.84C294.3 305.228 298.305 322.318 294.691 326.926C291.076 331.534 275.898 328.684 269.03 323.296C262.162 317.908 258.659 299.338 261.023 296.324C263.388 293.31 280.563 294.452 287.431 299.84Z" fill="#FFB46E"/>
<path d="M359.45 372.656C361.735 379.349 356.908 392.726 352.419 394.26C347.929 395.793 338.878 387.155 336.592 380.462C334.306 373.769 340.128 359.609 343.065 358.606C346.002 357.603 357.164 365.963 359.45 372.656Z" fill="#FFB46E"/>
<path d="M295.104 264.834C301.972 270.222 305.978 287.313 302.363 291.92C298.749 296.528 283.571 293.679 276.702 288.291C269.834 282.903 266.332 264.333 268.696 261.319C271.06 258.305 288.236 259.446 295.104 264.834Z" fill="#FFB46E"/>
<path d="M380.12 352.267C382.405 358.96 377.579 372.338 373.089 373.871C368.599 375.404 359.548 366.766 357.262 360.073C354.977 353.38 360.798 339.22 363.735 338.217C366.672 337.214 377.834 345.574 380.12 352.267Z" fill="#FFB46E"/>
<path d="M301.338 229.829C308.206 235.217 312.212 252.307 308.597 256.915C304.982 261.522 289.804 258.673 282.936 253.285C276.068 247.897 272.565 229.327 274.93 226.313C277.294 223.299 294.47 224.441 301.338 229.829Z" fill="#FFB46E"/>
<path d="M399.813 331.244C402.098 337.936 397.272 351.314 392.782 352.847C388.292 354.381 379.241 345.742 376.955 339.05C374.669 332.357 380.491 318.197 383.428 317.194C386.365 316.191 397.527 324.551 399.813 331.244Z" fill="#FFB46E"/>
<path d="M299.42 194.823C306.288 200.211 310.293 217.302 306.679 221.909C303.064 226.517 287.886 223.668 281.018 218.28C274.15 212.892 270.647 194.322 273.012 191.308C275.376 188.294 292.551 189.435 299.42 194.823Z" fill="#FFB46E"/>
<path d="M413.969 306.62C416.255 313.313 411.428 326.69 406.938 328.223C402.448 329.757 393.397 321.119 391.111 314.426C388.826 307.733 394.647 293.573 397.584 292.57C400.521 291.567 411.683 299.927 413.969 306.62Z" fill="#FFB46E"/>
<path d="M295.583 159.818C302.452 165.206 306.457 182.296 302.843 186.904C299.228 191.511 284.05 188.662 277.182 183.274C270.314 177.886 266.811 159.316 269.175 156.302C271.54 153.288 288.715 154.43 295.583 159.818Z" fill="#FFB46E"/>
<path d="M426.822 281.149C429.108 287.841 424.281 301.219 419.791 302.752C415.301 304.286 406.25 295.647 403.965 288.955C401.679 282.262 407.5 268.102 410.437 267.099C413.374 266.096 424.536 274.456 426.822 281.149Z" fill="#FFB46E"/>
<path d="M288.87 124.812C295.738 130.2 299.744 147.291 296.129 151.898C292.515 156.506 277.337 153.657 270.469 148.269C263.6 142.881 260.098 124.311 262.462 121.297C264.826 118.283 282.002 119.424 288.87 124.812Z" fill="#FFB46E"/>
<path d="M437.721 254.407C440.007 261.1 435.18 274.477 430.69 276.011C426.2 277.544 417.149 268.906 414.864 262.213C412.578 255.52 418.399 241.36 421.336 240.357C424.273 239.354 435.435 247.714 437.721 254.407Z" fill="#FFB46E"/>
<path d="M309.031 101.033C311.47 109.415 304.761 125.636 299.139 127.272C293.516 128.909 282.845 117.746 280.405 109.364C277.966 100.982 285.945 83.8525 289.623 82.782C293.302 81.7115 306.591 92.6514 309.031 101.033Z" fill="#FFB46E"/>
<path d="M461.917 247.159C459.872 253.929 448.152 261.984 443.61 260.613C439.068 259.241 436.75 246.946 438.794 240.176C440.839 233.406 453.824 225.294 456.795 226.191C459.766 227.089 463.961 240.388 461.917 247.159Z" fill="#FFB46E"/>
<path d="M176.313 250.671C176.313 250.671 225.906 295.953 236.106 350.561C246.52 406.311 242.308 482.974 242.308 482.974C242.308 482.974 235.604 401.355 223.829 355.098C212.055 308.842 176.313 250.671 176.313 250.671Z" fill="#FFB46E"/>
<path d="M480.19 346.816C480.19 346.816 390.96 452.226 347.701 464.652C303.539 477.338 241.385 479.836 241.385 479.836C241.385 479.836 306.697 468.153 343.098 455.1C379.499 442.046 480.19 346.816 480.19 346.816Z" fill="#FFB46E"/>
<path d="M274.713 443.76L272.498 442.601L274.713 443.76ZM287.253 464.794L288.479 466.973L287.253 464.794ZM283.818 394.418C281.318 394.394 281.318 394.393 281.318 394.393C281.318 394.393 281.318 394.393 281.318 394.394C281.318 394.394 281.318 394.395 281.318 394.397C281.318 394.4 281.318 394.405 281.318 394.412C281.318 394.426 281.318 394.448 281.317 394.477C281.316 394.535 281.315 394.624 281.313 394.741C281.309 394.976 281.301 395.326 281.288 395.779C281.263 396.685 281.217 398.003 281.135 399.639C280.97 402.913 280.66 407.45 280.079 412.502C278.905 422.705 276.664 434.639 272.498 442.601L276.928 444.919C281.554 436.077 283.865 423.34 285.046 413.073C285.642 407.89 285.96 403.242 286.129 399.89C286.213 398.213 286.26 396.857 286.286 395.918C286.3 395.449 286.307 395.083 286.312 394.833C286.314 394.708 286.316 394.612 286.317 394.546C286.317 394.513 286.317 394.488 286.318 394.47C286.318 394.462 286.318 394.455 286.318 394.45C286.318 394.448 286.318 394.446 286.318 394.444C286.318 394.444 286.318 394.443 286.318 394.443C286.318 394.442 286.318 394.442 283.818 394.418ZM272.498 442.601C265.455 456.06 257.865 464.361 252.11 469.272C249.23 471.729 246.802 473.344 245.121 474.334C244.281 474.829 243.627 475.167 243.197 475.377C242.982 475.482 242.823 475.554 242.724 475.598C242.675 475.62 242.641 475.634 242.622 475.642C242.613 475.646 242.608 475.648 242.606 475.649C242.606 475.649 242.606 475.649 242.607 475.648C242.608 475.648 242.609 475.648 242.61 475.647C242.611 475.647 242.612 475.646 242.612 475.646C242.613 475.646 242.614 475.645 243.543 477.967C244.471 480.288 244.473 480.287 244.474 480.287C244.475 480.286 244.476 480.286 244.477 480.285C244.479 480.285 244.482 480.284 244.485 480.283C244.49 480.28 244.496 480.278 244.504 480.275C244.519 480.268 244.538 480.261 244.561 480.251C244.607 480.232 244.668 480.205 244.745 480.171C244.9 480.103 245.115 480.004 245.387 479.872C245.931 479.607 246.701 479.206 247.659 478.642C249.575 477.514 252.242 475.732 255.356 473.075C261.589 467.756 269.584 458.953 276.928 444.919L272.498 442.601ZM315.228 435.3C313.146 433.918 313.146 433.917 313.146 433.917C313.146 433.917 313.146 433.917 313.146 433.918C313.145 433.918 313.145 433.918 313.144 433.919C313.143 433.921 313.141 433.925 313.138 433.929C313.132 433.938 313.122 433.953 313.109 433.972C313.083 434.011 313.044 434.07 312.991 434.148C312.885 434.305 312.726 434.538 312.518 434.838C312.103 435.44 311.492 436.312 310.716 437.384C309.162 439.529 306.954 442.465 304.337 445.63C299.037 452.038 292.292 459.093 286.028 462.615L288.479 466.973C295.608 462.965 302.85 455.273 308.19 448.817C310.892 445.55 313.166 442.525 314.765 440.316C315.566 439.211 316.198 438.308 316.633 437.679C316.85 437.365 317.018 437.119 317.132 436.95C317.189 436.865 317.233 436.8 317.263 436.755C317.278 436.733 317.29 436.716 317.298 436.704C317.302 436.698 317.305 436.693 317.307 436.689C317.308 436.688 317.309 436.686 317.31 436.685C317.31 436.685 317.31 436.684 317.311 436.684C317.311 436.684 317.311 436.683 315.228 435.3ZM286.028 462.615C275.354 468.617 266.592 470.884 260.573 471.67C257.56 472.064 255.226 472.088 253.673 472.019C252.897 471.985 252.316 471.927 251.943 471.881C251.756 471.858 251.622 471.838 251.541 471.825C251.501 471.818 251.474 471.813 251.461 471.811C251.454 471.81 251.451 471.809 251.451 471.809C251.452 471.809 251.452 471.809 251.454 471.81C251.455 471.81 251.456 471.81 251.458 471.81C251.458 471.81 251.46 471.811 251.46 471.811C251.461 471.811 251.462 471.811 250.976 474.263C250.489 476.716 250.49 476.716 250.492 476.716C250.492 476.716 250.494 476.717 250.495 476.717C250.497 476.717 250.499 476.718 250.502 476.718C250.507 476.719 250.514 476.72 250.521 476.722C250.535 476.724 250.553 476.728 250.574 476.732C250.616 476.739 250.673 476.749 250.743 476.76C250.884 476.783 251.079 476.812 251.328 476.843C251.827 476.905 252.539 476.974 253.452 477.014C255.277 477.095 257.904 477.062 261.221 476.628C267.863 475.76 277.239 473.293 288.479 466.973L286.028 462.615ZM176.313 250.671L179.685 246.978L172.053 253.288L176.313 250.671ZM242.308 482.974L237.324 483.384L247.3 483.249L242.308 482.974ZM236.106 350.561L241.021 349.643L236.106 350.561ZM480.19 346.816L484.006 350.047L476.754 343.183L480.19 346.816ZM241.385 479.836L240.505 474.915L241.586 484.832L241.385 479.836ZM347.701 464.652L349.082 469.458L347.701 464.652ZM311.064 389.561C309.031 391.345 304.363 392.869 299.048 393.211C296.53 393.374 294.22 393.242 292.452 392.891C290.451 392.493 290.004 391.988 290.16 392.165L282.643 398.761C284.729 401.139 287.924 402.186 290.502 402.699C293.313 403.258 296.521 403.395 299.691 403.191C305.749 402.801 313.131 401.052 317.659 397.078L311.064 389.561ZM290.16 392.165C290.447 392.493 290.077 392.345 290.141 390.784C290.199 389.381 290.591 387.503 291.35 385.375C292.9 381.031 295.545 376.82 297.996 374.669L291.4 367.152C287.29 370.759 283.855 376.623 281.931 382.015C280.954 384.756 280.261 387.662 280.15 390.375C280.045 392.93 280.425 396.233 282.643 398.761L290.16 392.165ZM297.996 374.669C298.832 373.935 300.427 373.113 302.833 372.438C305.157 371.787 307.854 371.379 310.514 371.213C313.181 371.047 315.641 371.135 317.472 371.392C318.396 371.522 319.033 371.677 319.407 371.805C319.937 371.986 319.489 371.952 318.925 371.31L326.442 364.714C325.246 363.352 323.655 362.689 322.642 362.343C321.473 361.943 320.169 361.672 318.863 361.489C316.235 361.12 313.087 361.033 309.893 361.232C306.693 361.431 303.278 361.928 300.134 362.81C297.073 363.668 293.845 365.007 291.4 367.152L297.996 374.669ZM318.925 371.31C318.308 370.606 318.319 370.053 318.376 370.434C318.414 370.689 318.443 371.202 318.385 372.01C318.269 373.61 317.855 375.773 317.142 378.148C315.647 383.125 313.272 387.624 311.064 389.561L317.659 397.078C322.013 393.258 325.062 386.543 326.719 381.025C327.582 378.153 328.176 375.249 328.359 372.733C328.449 371.483 328.45 370.177 328.265 368.946C328.098 367.841 327.69 366.138 326.442 364.714L318.925 371.31ZM335.743 443.095C333.886 443.364 330.27 442.46 326.571 440.38C324.843 439.408 323.403 438.346 322.429 437.397C321.286 436.282 321.396 435.927 321.47 436.435L311.573 437.868C311.986 440.723 313.884 443.031 315.448 444.557C317.183 446.248 319.373 447.805 321.67 449.097C326.019 451.542 332.032 453.736 337.175 452.992L335.743 443.095ZM321.47 436.435C321.572 437.141 321.223 437.13 321.902 436.174C322.488 435.348 323.507 434.312 324.913 433.24C327.8 431.038 331.308 429.436 333.715 429.087L332.283 419.19C327.691 419.855 322.62 422.411 318.848 425.289C316.924 426.756 315.094 428.49 313.748 430.385C312.494 432.151 311.131 434.814 311.573 437.868L321.47 436.435ZM333.715 429.087C334.406 428.987 335.696 429.09 337.567 429.675C339.356 430.234 341.306 431.118 343.142 432.155C344.983 433.195 346.56 434.306 347.633 435.239C348.175 435.711 348.492 436.054 348.64 436.243C348.89 436.562 348.475 436.18 348.339 435.245L358.236 433.812C357.99 432.109 357.076 430.795 356.511 430.074C355.844 429.223 355.03 428.42 354.196 427.695C352.517 426.234 350.362 424.749 348.061 423.449C345.755 422.146 343.154 420.945 340.552 420.131C338.032 419.343 335.092 418.784 332.283 419.19L333.715 429.087ZM348.339 435.245C348.192 434.229 348.529 433.658 348.429 433.878C348.381 433.983 348.217 434.283 347.846 434.772C347.114 435.738 345.93 436.975 344.434 438.242C341.262 440.927 337.83 442.793 335.743 443.095L337.175 452.992C342.087 452.281 347.292 448.925 350.896 445.874C352.788 444.272 354.527 442.513 355.814 440.815C356.453 439.972 357.074 439.024 357.53 438.021C357.934 437.134 358.494 435.596 358.236 433.812L348.339 435.245ZM319.695 355.994C317.662 357.778 312.995 359.302 307.679 359.644C305.162 359.807 302.852 359.675 301.083 359.324C299.082 358.926 298.636 358.421 298.791 358.598L291.274 365.194C293.361 367.572 296.555 368.619 299.133 369.132C301.944 369.691 305.153 369.828 308.322 369.624C314.381 369.233 321.762 367.485 326.291 363.511L319.695 355.994ZM298.791 358.598C299.078 358.925 298.709 358.778 298.773 357.216C298.83 355.813 299.222 353.936 299.981 351.808C301.531 347.464 304.176 343.253 306.627 341.102L300.032 333.585C295.921 337.192 292.487 343.056 290.563 348.448C289.585 351.189 288.892 354.094 288.781 356.808C288.677 359.363 289.056 362.665 291.274 365.194L298.791 358.598ZM306.627 341.102C307.463 340.368 309.058 339.546 311.465 338.871C313.788 338.22 316.485 337.811 319.146 337.646C321.813 337.48 324.272 337.568 326.104 337.825C327.027 337.955 327.665 338.11 328.038 338.238C328.568 338.419 328.12 338.385 327.556 337.743L335.073 331.147C333.878 329.785 332.287 329.122 331.274 328.776C330.105 328.376 328.8 328.105 327.494 327.922C324.867 327.553 321.718 327.466 318.524 327.665C315.325 327.864 311.909 328.361 308.765 329.243C305.704 330.101 302.476 331.44 300.032 333.585L306.627 341.102ZM327.556 337.743C326.939 337.039 326.95 336.486 327.007 336.867C327.046 337.122 327.075 337.635 327.016 338.443C326.9 340.043 326.487 342.206 325.773 344.581C324.278 349.558 321.903 354.057 319.695 355.994L326.291 363.511C330.644 359.691 333.693 352.976 335.35 347.458C336.213 344.586 336.808 341.681 336.99 339.166C337.081 337.916 337.081 336.609 336.896 335.379C336.73 334.274 336.322 332.57 335.073 331.147L327.556 337.743ZM356.429 424.107C354.572 424.376 350.957 423.472 347.257 421.392C345.529 420.421 344.089 419.358 343.116 418.409C341.972 417.294 342.082 416.939 342.156 417.447L332.259 418.88C332.672 421.736 334.57 424.043 336.135 425.569C337.869 427.26 340.059 428.817 342.356 430.109C346.705 432.554 352.719 434.748 357.861 434.004L356.429 424.107ZM342.156 417.447C342.258 418.154 341.91 418.142 342.588 417.186C343.175 416.36 344.193 415.324 345.599 414.252C348.486 412.05 351.994 410.448 354.402 410.099L352.969 400.202C348.377 400.867 343.306 403.424 339.534 406.301C337.611 407.768 335.78 409.502 334.434 411.398C333.18 413.164 331.817 415.826 332.259 418.88L342.156 417.447ZM354.402 410.099C355.092 409.999 356.382 410.102 358.253 410.687C360.042 411.246 361.992 412.13 363.828 413.167C365.669 414.207 367.246 415.318 368.319 416.251C368.861 416.723 369.178 417.067 369.327 417.255C369.577 417.574 369.161 417.193 369.026 416.257L378.922 414.825C378.676 413.121 377.762 411.807 377.197 411.086C376.53 410.236 375.716 409.432 374.882 408.707C373.203 407.246 371.048 405.761 368.747 404.461C366.442 403.158 363.84 401.957 361.238 401.143C358.719 400.355 355.778 399.796 352.969 400.202L354.402 410.099ZM369.026 416.257C368.878 415.241 369.215 414.67 369.115 414.891C369.067 414.995 368.904 415.295 368.532 415.784C367.8 416.75 366.616 417.988 365.12 419.254C361.948 421.939 358.516 423.805 356.429 424.107L357.861 434.004C362.774 433.293 367.978 429.937 371.582 426.886C373.474 425.284 375.213 423.525 376.5 421.827C377.139 420.985 377.76 420.036 378.216 419.033C378.62 418.146 379.181 416.609 378.922 414.825L369.026 416.257ZM324.011 320.989C321.978 322.773 317.31 324.297 311.995 324.639C309.477 324.801 307.168 324.67 305.399 324.319C303.398 323.921 302.952 323.416 303.107 323.593L295.59 330.189C297.677 332.566 300.871 333.614 303.449 334.127C306.26 334.685 309.469 334.823 312.638 334.619C318.697 334.228 326.078 332.48 330.606 328.506L324.011 320.989ZM303.107 323.593C303.394 323.92 303.025 323.773 303.089 322.211C303.146 320.808 303.538 318.931 304.297 316.803C305.847 312.459 308.492 308.248 310.943 306.097L304.347 298.58C300.237 302.187 296.802 308.05 294.879 313.443C293.901 316.184 293.208 319.089 293.097 321.803C292.992 324.358 293.372 327.66 295.59 330.189L303.107 323.593ZM310.943 306.097C311.779 305.363 313.374 304.541 315.781 303.866C318.104 303.214 320.801 302.806 323.462 302.641C326.128 302.475 328.588 302.563 330.419 302.82C331.343 302.949 331.98 303.105 332.354 303.233C332.884 303.414 332.436 303.38 331.872 302.738L339.389 296.142C338.194 294.78 336.602 294.117 335.59 293.77C334.42 293.371 333.116 293.1 331.81 292.917C329.182 292.548 326.034 292.461 322.84 292.66C319.641 292.859 316.225 293.356 313.081 294.237C310.02 295.096 306.792 296.435 304.347 298.58L310.943 306.097ZM331.872 302.738C331.255 302.034 331.266 301.481 331.323 301.862C331.361 302.117 331.39 302.63 331.332 303.438C331.216 305.038 330.802 307.201 330.089 309.576C328.594 314.552 326.219 319.052 324.011 320.989L330.606 328.506C334.96 324.686 338.009 317.971 339.666 312.453C340.529 309.58 341.123 306.676 341.306 304.161C341.396 302.911 341.397 301.604 341.212 300.374C341.046 299.269 340.638 297.565 339.389 296.142L331.872 302.738ZM374.82 402.236C372.963 402.505 369.347 401.601 365.647 399.521C363.92 398.55 362.48 397.487 361.506 396.538C360.363 395.423 360.473 395.068 360.546 395.576L350.649 397.009C351.063 399.865 352.96 402.172 354.525 403.698C356.26 405.389 358.45 406.946 360.747 408.238C365.096 410.683 371.109 412.877 376.252 412.133L374.82 402.236ZM360.546 395.576C360.649 396.283 360.3 396.271 360.979 395.315C361.565 394.489 362.584 393.453 363.99 392.381C366.877 390.179 370.385 388.577 372.792 388.228L371.36 378.331C366.768 378.996 361.697 381.553 357.925 384.43C356.001 385.897 354.17 387.631 352.825 389.527C351.571 391.293 350.207 393.955 350.649 397.009L360.546 395.576ZM372.792 388.228C373.483 388.128 374.773 388.231 376.644 388.816C378.433 389.375 380.383 390.259 382.219 391.296C384.06 392.336 385.637 393.447 386.709 394.38C387.252 394.852 387.569 395.196 387.717 395.384C387.967 395.703 387.552 395.322 387.416 394.386L397.313 392.954C397.066 391.25 396.152 389.936 395.587 389.215C394.921 388.365 394.107 387.561 393.273 386.836C391.594 385.375 389.439 383.89 387.138 382.59C384.832 381.287 382.231 380.086 379.629 379.272C377.109 378.484 374.169 377.925 371.36 378.331L372.792 388.228ZM387.416 394.386C387.269 393.37 387.606 392.799 387.505 393.02C387.458 393.124 387.294 393.424 386.923 393.913C386.19 394.879 385.007 396.117 383.511 397.383C380.339 400.068 376.907 401.934 374.82 402.236L376.252 412.133C381.164 411.422 386.369 408.066 389.972 405.015C391.864 403.413 393.603 401.654 394.891 399.956C395.53 399.114 396.151 398.165 396.607 397.162C397.011 396.275 397.571 394.738 397.313 392.954L387.416 394.386ZM331.683 285.984C329.651 287.767 324.983 289.291 319.668 289.634C317.15 289.796 314.84 289.665 313.071 289.313C311.07 288.915 310.624 288.411 310.779 288.587L303.263 295.183C305.349 297.561 308.543 298.608 311.122 299.121C313.932 299.68 317.141 299.817 320.31 299.613C326.369 299.223 333.75 297.474 338.279 293.5L331.683 285.984ZM310.779 288.587C311.066 288.915 310.697 288.768 310.761 287.206C310.818 285.803 311.211 283.925 311.97 281.798C313.519 277.454 316.164 273.242 318.615 271.091L312.02 263.575C307.91 267.181 304.475 273.045 302.551 278.437C301.573 281.178 300.88 284.084 300.769 286.797C300.665 289.352 301.044 292.655 303.263 295.183L310.779 288.587ZM318.615 271.091C319.451 270.358 321.046 269.535 323.453 268.86C325.777 268.209 328.473 267.801 331.134 267.635C333.801 267.469 336.26 267.557 338.092 267.814C339.015 267.944 339.653 268.099 340.026 268.227C340.556 268.408 340.108 268.374 339.545 267.732L347.061 261.136C345.866 259.774 344.275 259.111 343.262 258.765C342.093 258.365 340.788 258.095 339.482 257.911C336.855 257.542 333.706 257.456 330.513 257.654C327.313 257.854 323.897 258.35 320.753 259.232C317.692 260.09 314.465 261.43 312.02 263.575L318.615 271.091ZM339.545 267.732C338.927 267.029 338.938 266.476 338.996 266.856C339.034 267.111 339.063 267.624 339.004 268.432C338.888 270.032 338.475 272.195 337.761 274.57C336.267 279.547 333.891 284.046 331.683 285.984L338.279 293.5C342.632 289.68 345.681 282.965 347.339 277.447C348.201 274.575 348.796 271.671 348.978 269.155C349.069 267.905 349.069 266.599 348.884 265.368C348.718 264.263 348.31 262.56 347.061 261.136L339.545 267.732ZM395.49 381.847C393.633 382.116 390.018 381.212 386.318 379.132C384.59 378.161 383.15 377.099 382.176 376.149C381.033 375.034 381.143 374.68 381.217 375.188L371.32 376.62C371.733 379.476 373.631 381.783 375.195 383.309C376.93 385.001 379.12 386.558 381.417 387.849C385.766 390.294 391.779 392.489 396.922 391.744L395.49 381.847ZM381.217 375.188C381.319 375.894 380.97 375.882 381.649 374.927C382.235 374.1 383.254 373.064 384.66 371.992C387.547 369.79 391.055 368.188 393.462 367.84L392.03 357.943C387.438 358.607 382.367 361.164 378.595 364.041C376.672 365.508 374.841 367.242 373.495 369.138C372.241 370.904 370.878 373.566 371.32 376.62L381.217 375.188ZM393.462 367.84C394.153 367.74 395.443 367.842 397.314 368.427C399.103 368.987 401.053 369.87 402.889 370.908C404.73 371.948 406.307 373.058 407.38 373.992C407.922 374.463 408.239 374.807 408.387 374.996C408.637 375.315 408.222 374.933 408.086 373.997L417.983 372.565C417.737 370.861 416.823 369.547 416.258 368.827C415.591 367.976 414.777 367.172 413.943 366.447C412.264 364.986 410.109 363.501 407.808 362.201C405.502 360.898 402.901 359.697 400.299 358.883C397.779 358.095 394.839 357.536 392.03 357.943L393.462 367.84ZM408.086 373.997C407.939 372.981 408.276 372.41 408.176 372.631C408.128 372.735 407.964 373.035 407.593 373.525C406.861 374.491 405.677 375.728 404.181 376.994C401.009 379.68 397.577 381.545 395.49 381.847L396.922 391.744C401.834 391.033 407.039 387.677 410.643 384.626C412.535 383.025 414.274 381.265 415.561 379.567C416.2 378.725 416.821 377.776 417.277 376.773C417.681 375.886 418.242 374.349 417.983 372.565L408.086 373.997ZM337.917 250.978C335.884 252.762 331.217 254.286 325.901 254.628C323.384 254.79 321.074 254.659 319.305 254.307C317.304 253.91 316.858 253.405 317.013 253.582L309.497 260.178C311.583 262.555 314.777 263.603 317.355 264.116C320.166 264.674 323.375 264.812 326.544 264.608C332.603 264.217 339.984 262.469 344.513 258.495L337.917 250.978ZM317.013 253.582C317.3 253.909 316.931 253.762 316.995 252.2C317.052 250.797 317.444 248.92 318.203 246.792C319.753 242.448 322.398 238.237 324.849 236.086L318.254 228.569C314.143 232.176 310.709 238.039 308.785 243.432C307.807 246.173 307.114 249.078 307.003 251.792C306.899 254.347 307.278 257.649 309.497 260.178L317.013 253.582ZM324.849 236.086C325.685 235.352 327.28 234.53 329.687 233.855C332.01 233.203 334.707 232.795 337.368 232.63C340.035 232.464 342.494 232.552 344.326 232.809C345.249 232.938 345.887 233.094 346.26 233.222C346.79 233.403 346.342 233.369 345.779 232.727L353.295 226.131C352.1 224.769 350.509 224.106 349.496 223.759C348.327 223.36 347.022 223.089 345.716 222.906C343.089 222.537 339.94 222.45 336.747 222.649C333.547 222.848 330.131 223.345 326.987 224.226C323.926 225.085 320.698 226.424 318.254 228.569L324.849 236.086ZM345.779 232.727C345.161 232.023 345.172 231.47 345.229 231.851C345.268 232.105 345.297 232.619 345.238 233.427C345.122 235.027 344.709 237.19 343.995 239.565C342.501 244.541 340.125 249.041 337.917 250.978L344.513 258.495C348.866 254.675 351.915 247.96 353.573 242.442C354.435 239.569 355.03 236.665 355.212 234.15C355.303 232.9 355.303 231.593 355.118 230.363C354.952 229.258 354.544 227.554 353.295 226.131L345.779 232.727ZM415.183 360.824C413.327 361.092 409.711 360.189 406.011 358.108C404.283 357.137 402.844 356.075 401.87 355.125C400.726 354.01 400.836 353.656 400.91 354.164L391.013 355.596C391.426 358.452 393.324 360.76 394.889 362.285C396.624 363.977 398.813 365.534 401.11 366.825C405.46 369.271 411.473 371.465 416.616 370.721L415.183 360.824ZM400.91 354.164C401.012 354.87 400.664 354.859 401.342 353.903C401.929 353.077 402.947 352.041 404.353 350.968C407.24 348.766 410.748 347.164 413.156 346.816L411.723 336.919C407.132 337.584 402.061 340.14 398.289 343.017C396.365 344.485 394.534 346.218 393.188 348.114C391.934 349.88 390.571 352.543 391.013 355.596L400.91 354.164ZM413.156 346.816C413.847 346.716 415.136 346.818 417.008 347.404C418.796 347.963 420.746 348.847 422.582 349.884C424.423 350.924 426 352.034 427.073 352.968C427.615 353.44 427.933 353.783 428.081 353.972C428.331 354.291 427.915 353.909 427.78 352.974L437.677 351.541C437.43 349.838 436.516 348.524 435.951 347.803C435.284 346.952 434.47 346.149 433.637 345.423C431.957 343.962 429.802 342.477 427.502 341.178C425.196 339.875 422.595 338.673 419.992 337.859C417.473 337.071 414.532 336.512 411.723 336.919L413.156 346.816ZM427.78 352.974C427.633 351.957 427.969 351.387 427.869 351.607C427.821 351.712 427.658 352.012 427.287 352.501C426.554 353.467 425.371 354.704 423.875 355.971C420.703 358.656 417.271 360.522 415.183 360.824L416.616 370.721C421.528 370.01 426.732 366.654 430.336 363.603C432.228 362.001 433.967 360.241 435.255 358.544C435.893 357.701 436.514 356.753 436.971 355.75C437.374 354.863 437.935 353.325 437.677 351.541L427.78 352.974ZM335.999 215.973C333.966 217.756 329.299 219.28 323.983 219.623C321.466 219.785 319.156 219.654 317.387 219.302C315.386 218.904 314.94 218.4 315.095 218.576L307.578 225.172C309.665 227.55 312.859 228.597 315.437 229.11C318.248 229.669 321.457 229.806 324.626 229.602C330.685 229.212 338.066 227.463 342.595 223.489L335.999 215.973ZM315.095 218.576C315.382 218.904 315.013 218.757 315.077 217.195C315.134 215.792 315.526 213.914 316.285 211.787C317.835 207.443 320.48 203.231 322.931 201.08L316.336 193.564C312.225 197.17 308.791 203.034 306.867 208.426C305.889 211.167 305.196 214.073 305.085 216.786C304.981 219.341 305.36 222.644 307.578 225.172L315.095 218.576ZM322.931 201.08C323.767 200.347 325.362 199.524 327.769 198.849C330.092 198.198 332.789 197.79 335.45 197.624C338.117 197.458 340.576 197.546 342.408 197.803C343.331 197.933 343.969 198.088 344.342 198.216C344.872 198.397 344.424 198.363 343.86 197.721L351.377 191.125C350.182 189.763 348.591 189.1 347.578 188.754C346.409 188.354 345.104 188.084 343.798 187.9C341.171 187.531 338.022 187.445 334.828 187.643C331.629 187.843 328.213 188.339 325.069 189.221C322.008 190.079 318.78 191.419 316.336 193.564L322.931 201.08ZM343.86 197.721C343.243 197.018 343.254 196.465 343.311 196.845C343.35 197.1 343.379 197.613 343.32 198.421C343.204 200.021 342.791 202.184 342.077 204.559C340.582 209.536 338.207 214.035 335.999 215.973L342.595 223.489C346.948 219.669 349.997 212.954 351.654 207.436C352.517 204.564 353.112 201.66 353.294 199.144C353.385 197.894 353.385 196.588 353.2 195.357C353.034 194.252 352.626 192.549 351.377 191.125L343.86 197.721ZM429.339 336.2C427.483 336.469 423.867 335.565 420.167 333.485C418.439 332.513 416.999 331.451 416.026 330.502C414.882 329.387 414.992 329.032 415.066 329.54L405.169 330.973C405.582 333.828 407.48 336.136 409.045 337.662C410.779 339.353 412.969 340.91 415.266 342.201C419.615 344.647 425.629 346.841 430.772 346.097L429.339 336.2ZM415.066 329.54C415.168 330.246 414.82 330.235 415.498 329.279C416.085 328.453 417.103 327.417 418.509 326.345C421.396 324.143 424.904 322.54 427.312 322.192L425.879 312.295C421.287 312.96 416.217 315.516 412.444 318.393C410.521 319.861 408.69 321.595 407.344 323.49C406.09 325.256 404.727 327.919 405.169 330.973L415.066 329.54ZM427.312 322.192C428.002 322.092 429.292 322.195 431.163 322.78C432.952 323.339 434.902 324.223 436.738 325.26C438.579 326.3 440.156 327.411 441.229 328.344C441.771 328.816 442.089 329.159 442.237 329.348C442.487 329.667 442.071 329.285 441.936 328.35L451.833 326.917C451.586 325.214 450.672 323.9 450.107 323.179C449.44 322.328 448.626 321.525 447.793 320.8C446.113 319.339 443.958 317.854 441.658 316.554C439.352 315.251 436.751 314.049 434.148 313.236C431.629 312.448 428.688 311.889 425.879 312.295L427.312 322.192ZM441.936 328.35C441.789 327.333 442.125 326.763 442.025 326.983C441.977 327.088 441.814 327.388 441.443 327.877C440.71 328.843 439.526 330.08 438.031 331.347C434.859 334.032 431.426 335.898 429.339 336.2L430.772 346.097C435.684 345.386 440.888 342.03 444.492 338.979C446.384 337.377 448.123 335.618 449.41 333.92C450.049 333.077 450.67 332.129 451.127 331.126C451.53 330.239 452.091 328.701 451.833 326.917L441.936 328.35ZM332.163 180.967C330.13 182.751 325.462 184.275 320.147 184.617C317.629 184.779 315.319 184.648 313.551 184.296C311.55 183.899 311.104 183.394 311.259 183.571L303.742 190.167C305.829 192.544 309.023 193.592 311.601 194.105C314.412 194.663 317.621 194.801 320.79 194.597C326.849 194.206 334.23 192.458 338.758 188.484L332.163 180.967ZM311.259 183.571C311.546 183.898 311.177 183.751 311.24 182.189C311.298 180.786 311.69 178.908 312.449 176.781C313.999 172.437 316.644 168.226 319.095 166.075L312.499 158.558C308.389 162.165 304.954 168.028 303.031 173.421C302.053 176.162 301.36 179.067 301.249 181.781C301.144 184.336 301.524 187.638 303.742 190.167L311.259 183.571ZM319.095 166.075C319.931 165.341 321.526 164.519 323.933 163.844C326.256 163.192 328.953 162.784 331.614 162.619C334.28 162.453 336.74 162.541 338.571 162.798C339.495 162.927 340.132 163.083 340.506 163.21C341.036 163.392 340.588 163.358 340.024 162.716L347.541 156.12C346.345 154.758 344.754 154.095 343.741 153.748C342.572 153.349 341.268 153.078 339.962 152.895C337.334 152.526 334.186 152.439 330.992 152.638C327.793 152.837 324.377 153.334 321.233 154.215C318.172 155.074 314.944 156.413 312.499 158.558L319.095 166.075ZM340.024 162.716C339.407 162.012 339.418 161.459 339.475 161.84C339.513 162.094 339.542 162.608 339.484 163.416C339.368 165.016 338.954 167.179 338.241 169.554C336.746 174.53 334.371 179.03 332.163 180.967L338.758 188.484C343.112 184.664 346.161 177.949 347.818 172.431C348.681 169.558 349.275 166.654 349.458 164.139C349.548 162.889 349.549 161.582 349.364 160.352C349.197 159.247 348.79 157.543 347.541 156.12L340.024 162.716ZM442.192 310.729C440.336 310.997 436.72 310.094 433.02 308.013C431.292 307.042 429.853 305.98 428.879 305.03C427.735 303.915 427.845 303.561 427.919 304.069L418.022 305.501C418.435 308.357 420.333 310.665 421.898 312.19C423.633 313.882 425.822 315.439 428.119 316.73C432.469 319.176 438.482 321.37 443.625 320.626L442.192 310.729ZM427.919 304.069C428.021 304.775 427.673 304.764 428.351 303.808C428.938 302.982 429.956 301.946 431.362 300.873C434.249 298.671 437.757 297.069 440.165 296.721L438.732 286.824C434.141 287.489 429.07 290.045 425.298 292.922C423.374 294.39 421.543 296.123 420.197 298.019C418.943 299.785 417.58 302.448 418.022 305.501L427.919 304.069ZM440.165 296.721C440.856 296.621 442.145 296.723 444.017 297.309C445.805 297.868 447.755 298.752 449.591 299.789C451.432 300.829 453.009 301.939 454.082 302.873C454.624 303.345 454.942 303.688 455.09 303.877C455.34 304.196 454.924 303.814 454.789 302.879L464.686 301.446C464.439 299.743 463.525 298.429 462.96 297.708C462.293 296.857 461.479 296.054 460.646 295.328C458.966 293.867 456.811 292.382 454.511 291.082C452.205 289.78 449.604 288.578 447.002 287.764C444.482 286.976 441.541 286.417 438.732 286.824L440.165 296.721ZM454.789 302.879C454.642 301.862 454.978 301.292 454.878 301.512C454.83 301.617 454.667 301.917 454.296 302.406C453.563 303.372 452.38 304.609 450.884 305.876C447.712 308.561 444.28 310.427 442.192 310.729L443.625 320.626C448.537 319.915 453.741 316.559 457.345 313.508C459.237 311.906 460.976 310.146 462.264 308.449C462.902 307.606 463.523 306.658 463.98 305.655C464.383 304.768 464.944 303.23 464.686 301.446L454.789 302.879ZM325.449 145.962C323.417 147.745 318.749 149.269 313.434 149.612C310.916 149.774 308.606 149.643 306.838 149.291C304.836 148.893 304.39 148.388 304.545 148.565L297.029 155.161C299.115 157.539 302.31 158.586 304.888 159.099C307.699 159.658 310.907 159.795 314.076 159.591C320.135 159.201 327.516 157.452 332.045 153.478L325.449 145.962ZM304.545 148.565C304.833 148.893 304.463 148.746 304.527 147.184C304.584 145.781 304.977 143.903 305.736 141.776C307.285 137.432 309.93 133.22 312.382 131.069L305.786 123.553C301.676 127.159 298.241 133.023 296.317 138.415C295.339 141.156 294.646 144.062 294.535 146.775C294.431 149.33 294.81 152.633 297.029 155.161L304.545 148.565ZM312.382 131.069C313.218 130.336 314.813 129.513 317.219 128.838C319.543 128.187 322.239 127.779 324.9 127.613C327.567 127.447 330.027 127.535 331.858 127.792C332.781 127.922 333.419 128.077 333.793 128.205C334.322 128.386 333.874 128.352 333.311 127.71L340.827 121.114C339.632 119.752 338.041 119.089 337.028 118.743C335.859 118.343 334.554 118.073 333.248 117.889C330.621 117.52 327.472 117.434 324.279 117.632C321.079 117.832 317.663 118.328 314.519 119.21C311.458 120.068 308.231 121.407 305.786 123.553L312.382 131.069ZM333.311 127.71C332.694 127.007 332.704 126.454 332.762 126.834C332.8 127.089 332.829 127.602 332.77 128.41C332.655 130.01 332.241 132.173 331.528 134.548C330.033 139.525 327.658 144.024 325.449 145.962L332.045 153.478C336.398 149.658 339.447 142.943 341.105 137.425C341.968 134.553 342.562 131.649 342.744 129.133C342.835 127.883 342.836 126.577 342.65 125.346C342.484 124.241 342.076 122.538 340.827 121.114L333.311 127.71ZM453.092 283.987C451.235 284.256 447.619 283.352 443.919 281.272C442.192 280.301 440.752 279.238 439.778 278.289C438.635 277.174 438.745 276.82 438.818 277.328L428.922 278.76C429.335 281.616 431.232 283.923 432.797 285.449C434.532 287.14 436.722 288.698 439.019 289.989C443.368 292.434 449.381 294.629 454.524 293.884L453.092 283.987ZM438.818 277.328C438.921 278.034 438.572 278.022 439.251 277.066C439.837 276.24 440.856 275.204 442.262 274.132C445.149 271.93 448.657 270.328 451.064 269.98L449.632 260.083C445.04 260.747 439.969 263.304 436.197 266.181C434.273 267.648 432.442 269.382 431.097 271.278C429.843 273.044 428.48 275.706 428.922 278.76L438.818 277.328ZM451.064 269.98C451.755 269.88 453.045 269.982 454.916 270.567C456.705 271.127 458.655 272.01 460.491 273.047C462.332 274.088 463.909 275.198 464.982 276.131C465.524 276.603 465.841 276.947 465.989 277.136C466.239 277.455 465.824 277.073 465.688 276.137L475.585 274.705C475.339 273.001 474.424 271.687 473.859 270.966C473.193 270.116 472.379 269.312 471.545 268.587C469.866 267.126 467.711 265.641 465.41 264.341C463.104 263.038 460.503 261.837 457.901 261.023C455.381 260.235 452.441 259.676 449.632 260.083L451.064 269.98ZM465.688 276.137C465.541 275.121 465.878 274.55 465.777 274.771C465.73 274.875 465.566 275.175 465.195 275.665C464.463 276.631 463.279 277.868 461.783 279.134C458.611 281.819 455.179 283.685 453.092 283.987L454.524 293.884C459.436 293.173 464.641 289.817 468.244 286.766C470.136 285.165 471.875 283.405 473.163 281.707C473.802 280.865 474.423 279.916 474.879 278.913C475.283 278.026 475.843 276.489 475.585 274.705L465.688 276.137ZM271.398 372.346C273.526 374.015 275.884 378.322 277.2 383.484C277.823 385.928 278.12 388.223 278.1 390.026C278.078 392.066 277.664 392.598 277.81 392.412L285.677 398.585C287.63 396.096 288.071 392.763 288.1 390.135C288.131 387.269 287.675 384.09 286.89 381.013C285.39 375.13 282.311 368.197 277.57 364.478L271.398 372.346ZM277.81 392.412C278.078 392.07 278.002 392.46 276.455 392.685C275.065 392.887 273.147 392.848 270.917 392.494C266.362 391.771 261.735 389.948 259.169 387.935L252.997 395.803C257.299 399.178 263.695 401.473 269.35 402.37C272.224 402.826 275.207 402.972 277.895 402.581C280.425 402.213 283.601 401.231 285.677 398.585L277.81 392.412ZM259.169 387.935C258.294 387.248 257.192 385.832 256.085 383.591C255.016 381.428 254.118 378.852 253.465 376.268C252.81 373.677 252.443 371.243 252.359 369.396C252.316 368.464 252.351 367.809 252.408 367.418C252.488 366.864 252.538 367.311 252.01 367.983L244.142 361.811C243.024 363.237 242.665 364.923 242.512 365.982C242.334 367.205 242.309 368.537 242.369 369.854C242.491 372.505 242.986 375.615 243.77 378.718C244.555 381.826 245.673 385.091 247.119 388.019C248.526 390.87 250.438 393.795 252.997 395.803L259.169 387.935ZM252.01 367.983C251.433 368.719 250.887 368.811 251.251 368.684C251.494 368.6 251.993 368.477 252.798 368.385C254.392 368.204 256.594 368.212 259.06 368.476C264.227 369.028 269.087 370.533 271.398 372.346L277.57 364.478C273.013 360.904 265.852 359.144 260.122 358.532C257.14 358.214 254.177 358.165 251.67 358.449C250.425 358.59 249.141 358.83 247.966 359.239C246.91 359.606 245.311 360.321 244.142 361.811L252.01 367.983ZM315.641 415.131C316.247 416.906 316.025 420.627 314.663 424.647C314.026 426.524 313.248 428.135 312.494 429.267C311.609 430.596 311.24 430.553 311.726 430.387L314.958 439.851C317.688 438.918 319.607 436.628 320.818 434.809C322.161 432.792 323.287 430.352 324.133 427.857C325.735 423.132 326.784 416.817 325.104 411.899L315.641 415.131ZM311.726 430.387C312.401 430.157 312.454 430.501 311.389 430.01C310.469 429.586 309.263 428.776 307.95 427.592C305.254 425.16 303.033 422.007 302.247 419.705L292.783 422.937C294.283 427.328 297.73 431.841 301.253 435.018C303.05 436.638 305.091 438.118 307.203 439.092C309.169 439.998 312.038 440.848 314.958 439.851L311.726 430.387ZM302.247 419.705C302.021 419.045 301.884 417.758 302.115 415.811C302.335 413.95 302.844 411.87 303.525 409.875C304.208 407.874 305.009 406.119 305.729 404.893C306.092 404.273 306.371 403.898 306.53 403.717C306.797 403.413 306.499 403.891 305.604 404.197L302.372 394.734C300.743 395.29 299.62 396.431 299.016 397.119C298.303 397.931 297.663 398.879 297.104 399.832C295.977 401.752 294.915 404.143 294.061 406.644C293.206 409.151 292.504 411.929 292.184 414.636C291.874 417.258 291.866 420.251 292.783 422.937L302.247 419.705ZM305.604 404.197C304.632 404.529 304.009 404.303 304.244 404.361C304.356 404.389 304.681 404.494 305.23 404.769C306.315 405.311 307.749 406.246 309.269 407.483C312.493 410.106 314.959 413.135 315.641 415.131L325.104 411.899C323.5 407.202 319.243 402.706 315.58 399.726C313.657 398.161 311.607 396.776 309.701 395.824C308.755 395.351 307.709 394.916 306.639 394.652C305.692 394.419 304.078 394.151 302.372 394.734L305.604 404.197ZM280.03 338.779C282.157 340.448 284.515 344.755 285.831 349.917C286.455 352.361 286.751 354.656 286.732 356.459C286.709 358.499 286.296 359.031 286.441 358.845L294.309 365.018C296.261 362.529 296.702 359.196 296.731 356.568C296.762 353.702 296.306 350.523 295.521 347.446C294.021 341.563 290.942 334.63 286.202 330.911L280.03 338.779ZM286.441 358.845C286.71 358.503 286.633 358.893 285.086 359.118C283.697 359.32 281.779 359.281 279.548 358.927C274.993 358.204 270.366 356.381 267.8 354.368L261.628 362.236C265.93 365.611 272.327 367.906 277.981 368.803C280.855 369.259 283.839 369.405 286.526 369.014C289.057 368.646 292.233 367.664 294.309 365.018L286.441 358.845ZM267.8 354.368C266.925 353.681 265.823 352.265 264.716 350.024C263.648 347.86 262.75 345.285 262.096 342.7C261.442 340.11 261.075 337.676 260.99 335.829C260.947 334.897 260.983 334.242 261.039 333.851C261.12 333.297 261.169 333.744 260.642 334.416L252.774 328.244C251.655 329.67 251.297 331.356 251.143 332.415C250.966 333.638 250.94 334.97 251.001 336.287C251.122 338.938 251.617 342.048 252.401 345.151C253.187 348.259 254.304 351.524 255.75 354.452C257.158 357.302 259.069 360.228 261.628 362.236L267.8 354.368ZM260.642 334.416C260.064 335.152 259.519 335.244 259.882 335.117C260.125 335.033 260.625 334.909 261.429 334.818C263.023 334.637 265.226 334.645 267.692 334.909C272.858 335.461 277.718 336.966 280.03 338.779L286.202 330.911C281.645 327.336 274.483 325.577 268.754 324.965C265.772 324.646 262.808 324.597 260.302 324.882C259.057 325.023 257.772 325.263 256.597 325.672C255.542 326.039 253.943 326.754 252.774 328.244L260.642 334.416ZM336.327 396.143C336.933 397.918 336.712 401.639 335.349 405.659C334.713 407.536 333.934 409.146 333.18 410.278C332.295 411.608 331.926 411.565 332.412 411.399L335.644 420.862C338.375 419.93 340.293 417.64 341.504 415.82C342.847 413.804 343.974 411.364 344.82 408.869C346.421 404.143 347.47 397.829 345.791 392.911L336.327 396.143ZM332.412 411.399C333.087 411.168 333.14 411.513 332.076 411.022C331.156 410.598 329.95 409.788 328.637 408.604C325.94 406.172 323.719 403.019 322.933 400.717L313.47 403.949C314.969 408.34 318.416 412.852 321.939 416.03C323.736 417.65 325.778 419.13 327.889 420.103C329.856 421.01 332.724 421.86 335.644 420.862L332.412 411.399ZM322.933 400.717C322.707 400.057 322.57 398.77 322.801 396.823C323.021 394.962 323.53 392.882 324.211 390.887C324.894 388.885 325.695 387.131 326.415 385.905C326.779 385.284 327.058 384.909 327.216 384.729C327.483 384.425 327.185 384.903 326.29 385.209L323.058 375.745C321.429 376.302 320.306 377.442 319.702 378.13C318.989 378.943 318.349 379.891 317.79 380.844C316.663 382.763 315.601 385.155 314.747 387.656C313.892 390.163 313.19 392.941 312.87 395.648C312.56 398.27 312.552 401.263 313.47 403.949L322.933 400.717ZM326.29 385.209C325.318 385.541 324.695 385.315 324.931 385.373C325.042 385.4 325.367 385.506 325.917 385.781C327.001 386.323 328.435 387.258 329.955 388.495C333.179 391.117 335.646 394.147 336.327 396.143L345.791 392.911C344.187 388.214 339.929 383.717 336.266 380.738C334.343 379.173 332.293 377.788 330.387 376.836C329.441 376.363 328.395 375.928 327.325 375.664C326.379 375.43 324.764 375.163 323.058 375.745L326.29 385.209ZM284.345 303.774C286.473 305.443 288.831 309.75 290.147 314.911C290.771 317.356 291.067 319.65 291.047 321.453C291.025 323.493 290.611 324.025 290.757 323.84L298.625 330.012C300.577 327.523 301.018 324.191 301.047 321.562C301.078 318.696 300.622 315.517 299.837 312.44C298.337 306.557 295.258 299.625 290.518 295.906L284.345 303.774ZM290.757 323.84C291.026 323.497 290.949 323.887 289.402 324.112C288.013 324.315 286.095 324.275 283.864 323.921C279.309 323.199 274.682 321.375 272.116 319.362L265.944 327.23C270.246 330.605 276.642 332.901 282.297 333.798C285.171 334.254 288.155 334.399 290.842 334.008C293.372 333.64 296.549 332.659 298.625 330.012L290.757 323.84ZM272.116 319.362C271.241 318.676 270.139 317.26 269.032 315.018C267.963 312.855 267.065 310.28 266.412 307.695C265.757 305.104 265.391 302.671 265.306 300.823C265.263 299.892 265.298 299.236 265.355 298.846C265.436 298.292 265.485 298.738 264.957 299.411L257.09 293.238C255.971 294.664 255.613 296.35 255.459 297.409C255.281 298.632 255.256 299.964 255.316 301.282C255.438 303.932 255.933 307.043 256.717 310.145C257.502 313.253 258.62 316.519 260.066 319.447C261.474 322.297 263.385 325.223 265.944 327.23L272.116 319.362ZM264.957 299.411C264.38 300.147 263.834 300.238 264.198 300.112C264.441 300.027 264.94 299.904 265.745 299.813C267.339 299.632 269.541 299.64 272.007 299.903C277.174 300.455 282.034 301.96 284.345 303.774L290.518 295.906C285.961 292.331 278.799 290.572 273.07 289.96C270.088 289.641 267.124 289.592 264.618 289.876C263.372 290.018 262.088 290.258 260.913 290.667C259.858 291.034 258.258 291.748 257.09 293.238L264.957 299.411ZM354.718 374.272C355.324 376.047 355.102 379.768 353.739 383.788C353.103 385.665 352.324 387.275 351.571 388.407C350.686 389.737 350.317 389.694 350.803 389.528L354.034 398.991C356.765 398.059 358.683 395.769 359.895 393.949C361.237 391.933 362.364 389.493 363.21 386.998C364.812 382.272 365.861 375.958 364.181 371.04L354.718 374.272ZM350.803 389.528C351.478 389.297 351.531 389.642 350.466 389.151C349.546 388.727 348.34 387.917 347.027 386.733C344.331 384.301 342.11 381.148 341.324 378.846L331.86 382.078C333.36 386.469 336.807 390.981 340.33 394.159C342.127 395.779 344.168 397.259 346.279 398.232C348.246 399.139 351.114 399.989 354.034 398.991L350.803 389.528ZM341.324 378.846C341.098 378.186 340.961 376.899 341.191 374.952C341.412 373.091 341.921 371.011 342.602 369.016C343.285 367.014 344.086 365.26 344.805 364.034C345.169 363.413 345.448 363.038 345.607 362.858C345.874 362.554 345.575 363.032 344.681 363.338L341.449 353.874C339.82 354.431 338.697 355.571 338.093 356.259C337.38 357.072 336.74 358.02 336.181 358.973C335.054 360.892 333.992 363.284 333.138 365.785C332.282 368.292 331.581 371.07 331.261 373.777C330.951 376.399 330.943 379.392 331.86 382.078L341.324 378.846ZM344.681 363.338C343.709 363.67 343.086 363.444 343.321 363.502C343.433 363.529 343.758 363.635 344.307 363.91C345.392 364.452 346.826 365.387 348.346 366.624C351.57 369.246 354.036 372.276 354.718 374.272L364.181 371.04C362.577 366.343 358.32 361.846 354.657 358.867C352.734 357.302 350.684 355.917 348.778 354.965C347.832 354.492 346.785 354.057 345.715 353.793C344.769 353.559 343.155 353.292 341.449 353.874L344.681 363.338ZM292.018 268.768C294.146 270.437 296.503 274.744 297.82 279.905C298.443 282.35 298.74 284.645 298.72 286.448C298.698 288.488 298.284 289.02 298.429 288.834L306.297 295.007C308.25 292.518 308.691 289.185 308.719 286.557C308.751 283.691 308.294 280.512 307.509 277.435C306.009 271.552 302.93 264.619 298.19 260.9L292.018 268.768ZM298.429 288.834C298.698 288.492 298.622 288.882 297.075 289.107C295.685 289.309 293.767 289.27 291.536 288.916C286.981 288.193 282.354 286.37 279.789 284.357L273.616 292.225C277.919 295.6 284.315 297.895 289.969 298.792C292.843 299.248 295.827 299.394 298.515 299.003C301.045 298.635 304.221 297.653 306.297 295.007L298.429 288.834ZM279.789 284.357C278.913 283.67 277.811 282.254 276.704 280.013C275.636 277.849 274.738 275.274 274.085 272.689C273.43 270.099 273.063 267.665 272.978 265.818C272.936 264.886 272.971 264.231 273.028 263.84C273.108 263.286 273.157 263.733 272.63 264.405L264.762 258.233C263.643 259.659 263.285 261.345 263.131 262.404C262.954 263.627 262.928 264.959 262.989 266.276C263.11 268.927 263.605 272.037 264.389 275.14C265.175 278.248 266.292 281.513 267.738 284.441C269.146 287.291 271.057 290.217 273.616 292.225L279.789 284.357ZM272.63 264.405C272.052 265.141 271.507 265.233 271.87 265.106C272.114 265.021 272.613 264.898 273.418 264.807C275.011 264.626 277.214 264.634 279.68 264.898C284.846 265.45 289.706 266.955 292.018 268.768L298.19 260.9C293.633 257.325 286.471 255.566 280.742 254.954C277.76 254.635 274.796 254.586 272.29 254.871C271.045 255.012 269.761 255.252 268.585 255.661C267.53 256.028 265.931 256.743 264.762 258.233L272.63 264.405ZM375.388 353.883C375.994 355.658 375.772 359.379 374.41 363.399C373.773 365.276 372.995 366.887 372.241 368.019C371.356 369.348 370.987 369.305 371.473 369.139L374.705 378.603C377.435 377.67 379.354 375.38 380.565 373.561C381.908 371.544 383.035 369.105 383.88 366.609C385.482 361.884 386.531 355.569 384.851 350.651L375.388 353.883ZM371.473 369.139C372.148 368.909 372.201 369.253 371.137 368.762C370.216 368.338 369.011 367.528 367.697 366.344C365.001 363.912 362.78 360.759 361.994 358.457L352.53 361.689C354.03 366.08 357.477 370.593 361 373.77C362.797 375.39 364.838 376.87 366.95 377.844C368.916 378.751 371.785 379.6 374.705 378.603L371.473 369.139ZM361.994 358.457C361.768 357.797 361.631 356.51 361.862 354.563C362.082 352.702 362.591 350.622 363.272 348.627C363.955 346.626 364.756 344.871 365.476 343.645C365.839 343.025 366.119 342.65 366.277 342.469C366.544 342.165 366.246 342.643 365.351 342.949L362.119 333.486C360.49 334.042 359.367 335.183 358.763 335.871C358.05 336.683 357.41 337.631 356.851 338.584C355.724 340.504 354.662 342.896 353.808 345.396C352.953 347.903 352.251 350.681 351.931 353.388C351.621 356.01 351.613 359.003 352.53 361.689L361.994 358.457ZM365.351 342.949C364.379 343.281 363.756 343.055 363.991 343.113C364.103 343.141 364.428 343.246 364.977 343.521C366.062 344.063 367.496 344.998 369.016 346.235C372.24 348.858 374.706 351.887 375.388 353.883L384.851 350.651C383.247 345.954 378.99 341.458 375.327 338.478C373.404 336.913 371.354 335.528 369.448 334.576C368.502 334.103 367.456 333.668 366.386 333.404C365.439 333.171 363.825 332.903 362.119 333.486L365.351 342.949ZM298.252 233.763C300.379 235.432 302.737 239.739 304.053 244.9C304.677 247.345 304.973 249.639 304.954 251.442C304.932 253.482 304.518 254.014 304.663 253.829L312.531 260.001C314.483 257.512 314.925 254.18 314.953 251.551C314.984 248.685 314.528 245.506 313.743 242.429C312.243 236.546 309.164 229.614 304.424 225.895L298.252 233.763ZM304.663 253.829C304.932 253.486 304.855 253.876 303.308 254.101C301.919 254.304 300.001 254.264 297.77 253.91C293.215 253.187 288.588 251.364 286.022 249.351L279.85 257.219C284.152 260.594 290.549 262.89 296.203 263.787C299.077 264.243 302.061 264.388 304.748 263.997C307.279 263.629 310.455 262.648 312.531 260.001L304.663 253.829ZM286.022 249.351C285.147 248.665 284.045 247.249 282.938 245.007C281.87 242.844 280.972 240.269 280.318 237.684C279.664 235.093 279.297 232.66 279.212 230.812C279.169 229.881 279.205 229.225 279.261 228.835C279.342 228.281 279.391 228.727 278.864 229.399L270.996 223.227C269.877 224.653 269.519 226.339 269.365 227.398C269.188 228.621 269.162 229.953 269.223 231.271C269.344 233.921 269.839 237.032 270.623 240.134C271.409 243.242 272.526 246.508 273.972 249.436C275.38 252.286 277.291 255.212 279.85 257.219L286.022 249.351ZM278.864 229.399C278.286 230.136 277.741 230.227 278.104 230.101C278.347 230.016 278.847 229.893 279.652 229.802C281.245 229.621 283.448 229.629 285.914 229.892C291.08 230.444 295.94 231.949 298.252 233.763L304.424 225.895C299.867 222.32 292.705 220.561 286.976 219.949C283.994 219.63 281.03 219.581 278.524 219.865C277.279 220.007 275.995 220.247 274.819 220.656C273.764 221.023 272.165 221.737 270.996 223.227L278.864 229.399ZM395.081 332.859C395.687 334.635 395.465 338.355 394.103 342.375C393.466 344.252 392.688 345.863 391.934 346.995C391.049 348.325 390.68 348.281 391.166 348.116L394.398 357.579C397.128 356.646 399.047 354.356 400.258 352.537C401.601 350.52 402.727 348.081 403.573 345.585C405.175 340.86 406.224 334.545 404.544 329.628L395.081 332.859ZM391.166 348.116C391.841 347.885 391.894 348.23 390.829 347.739C389.909 347.315 388.703 346.504 387.39 345.32C384.694 342.888 382.473 339.736 381.687 337.434L372.223 340.665C373.723 345.056 377.17 349.569 380.693 352.746C382.49 354.367 384.531 355.847 386.643 356.82C388.609 357.727 391.478 358.576 394.398 357.579L391.166 348.116ZM381.687 337.434C381.461 336.773 381.324 335.487 381.555 333.54C381.775 331.678 382.284 329.599 382.965 327.603C383.648 325.602 384.449 323.848 385.169 322.621C385.532 322.001 385.811 321.626 385.97 321.446C386.237 321.141 385.939 321.62 385.044 321.925L381.812 312.462C380.183 313.018 379.06 314.159 378.456 314.847C377.743 315.659 377.103 316.607 376.544 317.56C375.417 319.48 374.355 321.872 373.501 324.373C372.646 326.879 371.944 329.657 371.624 332.365C371.314 334.986 371.306 337.98 372.223 340.665L381.687 337.434ZM385.044 321.925C384.072 322.257 383.449 322.031 383.684 322.089C383.796 322.117 384.121 322.223 384.67 322.497C385.755 323.039 387.189 323.975 388.709 325.211C391.933 327.834 394.399 330.864 395.081 332.859L404.544 329.628C402.94 324.931 398.683 320.434 395.02 317.454C393.097 315.89 391.047 314.505 389.141 313.552C388.195 313.079 387.149 312.644 386.079 312.38C385.132 312.147 383.518 311.879 381.812 312.462L385.044 321.925ZM296.333 198.757C298.461 200.426 300.819 204.733 302.135 209.894C302.759 212.339 303.055 214.634 303.036 216.437C303.013 218.477 302.6 219.009 302.745 218.823L310.613 224.996C312.565 222.507 313.006 219.174 313.035 216.546C313.066 213.68 312.61 210.501 311.825 207.424C310.325 201.541 307.246 194.608 302.506 190.889L296.333 198.757ZM302.745 218.823C303.014 218.481 302.937 218.871 301.39 219.096C300.001 219.298 298.083 219.259 295.852 218.905C291.297 218.182 286.67 216.359 284.104 214.346L277.932 222.214C282.234 225.589 288.631 227.884 294.285 228.781C297.159 229.237 300.143 229.383 302.83 228.992C305.36 228.624 308.537 227.642 310.613 224.996L302.745 218.823ZM284.104 214.346C283.229 213.659 282.127 212.243 281.02 210.002C279.952 207.838 279.053 205.263 278.4 202.678C277.746 200.088 277.379 197.654 277.294 195.807C277.251 194.875 277.287 194.22 277.343 193.829C277.424 193.275 277.473 193.722 276.946 194.394L269.078 188.222C267.959 189.648 267.601 191.334 267.447 192.393C267.27 193.616 267.244 194.948 267.305 196.265C267.426 198.916 267.921 202.026 268.705 205.129C269.491 208.237 270.608 211.502 272.054 214.43C273.462 217.28 275.373 220.206 277.932 222.214L284.104 214.346ZM276.946 194.394C276.368 195.13 275.823 195.222 276.186 195.095C276.429 195.01 276.929 194.887 277.733 194.796C279.327 194.615 281.53 194.623 283.996 194.886C289.162 195.439 294.022 196.944 296.333 198.757L302.506 190.889C297.949 187.314 290.787 185.555 285.058 184.943C282.076 184.624 279.112 184.575 276.606 184.86C275.361 185.001 274.076 185.241 272.901 185.65C271.846 186.017 270.247 186.732 269.078 188.222L276.946 194.394ZM409.237 308.236C409.844 310.011 409.622 313.731 408.259 317.751C407.623 319.628 406.844 321.239 406.09 322.371C405.205 323.701 404.836 323.658 405.322 323.492L408.554 332.955C411.285 332.023 413.203 329.732 414.414 327.913C415.757 325.896 416.884 323.457 417.73 320.962C419.331 316.236 420.38 309.921 418.701 305.004L409.237 308.236ZM405.322 323.492C405.997 323.261 406.05 323.606 404.986 323.115C404.066 322.691 402.86 321.88 401.547 320.696C398.85 318.265 396.629 315.112 395.843 312.81L386.38 316.042C387.879 320.432 391.326 324.945 394.85 328.122C396.646 329.743 398.688 331.223 400.799 332.196C402.766 333.103 405.634 333.952 408.554 332.955L405.322 323.492ZM395.843 312.81C395.618 312.149 395.481 310.863 395.711 308.916C395.931 307.055 396.44 304.975 397.121 302.979C397.804 300.978 398.605 299.224 399.325 297.997C399.689 297.377 399.968 297.002 400.126 296.822C400.394 296.517 400.095 296.996 399.2 297.302L395.968 287.838C394.339 288.394 393.216 289.535 392.612 290.223C391.899 291.035 391.259 291.983 390.7 292.936C389.574 294.856 388.511 297.248 387.658 299.749C386.802 302.255 386.1 305.033 385.78 307.741C385.47 310.363 385.462 313.356 386.38 316.042L395.843 312.81ZM399.2 297.302C398.229 297.633 397.605 297.408 397.841 297.466C397.952 297.493 398.277 297.599 398.827 297.873C399.911 298.415 401.345 299.351 402.866 300.588C406.089 303.21 408.556 306.24 409.237 308.236L418.701 305.004C417.097 300.307 412.839 295.81 409.176 292.83C407.253 291.266 405.203 289.881 403.297 288.928C402.352 288.456 401.305 288.02 400.235 287.757C399.289 287.523 397.674 287.256 395.968 287.838L399.2 297.302ZM292.497 163.752C294.625 165.421 296.983 169.728 298.299 174.889C298.922 177.334 299.219 179.628 299.199 181.431C299.177 183.471 298.763 184.003 298.909 183.818L306.777 189.99C308.729 187.501 309.17 184.169 309.199 181.54C309.23 178.674 308.774 175.495 307.989 172.418C306.489 166.535 303.41 159.603 298.67 155.884L292.497 163.752ZM298.909 183.818C299.178 183.475 299.101 183.865 297.554 184.09C296.165 184.293 294.247 184.253 292.016 183.899C287.461 183.176 282.834 181.353 280.268 179.34L274.096 187.208C278.398 190.583 284.794 192.879 290.449 193.776C293.323 194.232 296.307 194.377 298.994 193.986C301.524 193.618 304.7 192.637 306.777 189.99L298.909 183.818ZM280.268 179.34C279.393 178.654 278.291 177.238 277.184 174.996C276.115 172.833 275.217 170.258 274.564 167.673C273.909 165.082 273.543 162.649 273.458 160.801C273.415 159.87 273.45 159.214 273.507 158.824C273.588 158.27 273.637 158.716 273.109 159.388L265.242 153.216C264.123 154.642 263.765 156.328 263.611 157.387C263.433 158.61 263.408 159.942 263.468 161.26C263.59 163.91 264.085 167.021 264.869 170.123C265.654 173.231 266.772 176.497 268.218 179.425C269.626 182.275 271.537 185.201 274.096 187.208L280.268 179.34ZM273.109 159.388C272.532 160.125 271.986 160.216 272.35 160.09C272.593 160.005 273.092 159.882 273.897 159.791C275.491 159.61 277.693 159.618 280.159 159.881C285.326 160.433 290.186 161.938 292.497 163.752L298.67 155.884C294.113 152.309 286.951 150.55 281.222 149.938C278.24 149.619 275.276 149.57 272.77 149.854C271.524 149.996 270.24 150.236 269.065 150.645C268.01 151.012 266.41 151.726 265.242 153.216L273.109 159.388ZM422.09 282.764C422.697 284.54 422.475 288.26 421.112 292.28C420.476 294.157 419.697 295.768 418.943 296.9C418.058 298.23 417.689 298.186 418.175 298.021L421.407 307.484C424.138 306.551 426.056 304.261 427.267 302.442C428.61 300.425 429.737 297.986 430.583 295.49C432.185 290.765 433.233 284.45 431.554 279.533L422.09 282.764ZM418.175 298.021C418.85 297.79 418.903 298.135 417.839 297.644C416.919 297.22 415.713 296.409 414.4 295.225C411.704 292.793 409.482 289.641 408.696 287.339L399.233 290.57C400.732 294.961 404.18 299.474 407.703 302.651C409.499 304.272 411.541 305.752 413.652 306.725C415.619 307.632 418.487 308.481 421.407 307.484L418.175 298.021ZM408.696 287.339C408.471 286.678 408.334 285.392 408.564 283.445C408.784 281.583 409.293 279.504 409.974 277.508C410.658 275.507 411.458 273.753 412.178 272.526C412.542 271.906 412.821 271.531 412.979 271.351C413.247 271.046 412.948 271.525 412.053 271.83L408.822 262.367C407.193 262.923 406.07 264.064 405.465 264.752C404.752 265.564 404.112 266.512 403.553 267.465C402.427 269.385 401.364 271.777 400.511 274.278C399.655 276.784 398.954 279.562 398.633 282.27C398.323 284.891 398.316 287.885 399.233 290.57L408.696 287.339ZM412.053 271.83C411.082 272.162 410.459 271.936 410.694 271.995C410.805 272.022 411.13 272.128 411.68 272.402C412.764 272.944 414.198 273.88 415.719 275.116C418.943 277.739 421.409 280.769 422.09 282.764L431.554 279.533C429.95 274.836 425.692 270.339 422.029 267.359C420.106 265.795 418.056 264.41 416.151 263.457C415.205 262.984 414.158 262.549 413.088 262.285C412.142 262.052 410.527 261.784 408.822 262.367L412.053 271.83ZM285.784 128.746C287.912 130.415 290.27 134.722 291.586 139.883C292.209 142.328 292.506 144.623 292.486 146.426C292.464 148.466 292.05 148.998 292.195 148.812L300.063 154.985C302.016 152.496 302.457 149.163 302.485 146.535C302.517 143.669 302.06 140.49 301.276 137.413C299.775 131.53 296.696 124.597 291.956 120.878L285.784 128.746ZM292.195 148.812C292.464 148.47 292.388 148.86 290.841 149.085C289.451 149.287 287.533 149.248 285.302 148.894C280.747 148.171 276.12 146.348 273.555 144.335L267.382 152.203C271.685 155.578 278.081 157.873 283.736 158.77C286.61 159.226 289.593 159.372 292.281 158.981C294.811 158.613 297.987 157.631 300.063 154.985L292.195 148.812ZM273.555 144.335C272.68 143.648 271.577 142.232 270.471 139.991C269.402 137.827 268.504 135.252 267.851 132.667C267.196 130.077 266.829 127.643 266.744 125.796C266.702 124.864 266.737 124.209 266.794 123.818C266.874 123.264 266.923 123.711 266.396 124.383L258.528 118.211C257.41 119.637 257.051 121.323 256.897 122.382C256.72 123.605 256.695 124.937 256.755 126.254C256.877 128.905 257.371 132.015 258.155 135.118C258.941 138.226 260.058 141.491 261.504 144.419C262.912 147.269 264.823 150.195 267.382 152.203L273.555 144.335ZM266.396 124.383C265.818 125.119 265.273 125.21 265.636 125.084C265.88 124.999 266.379 124.876 267.184 124.785C268.778 124.604 270.98 124.612 273.446 124.875C278.613 125.427 283.473 126.933 285.784 128.746L291.956 120.878C287.399 117.303 280.238 115.544 274.508 114.932C271.526 114.613 268.562 114.564 266.056 114.849C264.811 114.99 263.527 115.23 262.351 115.639C261.296 116.006 259.697 116.721 258.528 118.211L266.396 124.383ZM432.989 256.023C433.596 257.798 433.374 261.518 432.011 265.538C431.375 267.415 430.596 269.026 429.842 270.158C428.957 271.488 428.588 271.445 429.074 271.279L432.306 280.742C435.037 279.81 436.955 277.519 438.166 275.7C439.509 273.684 440.636 271.244 441.482 268.749C443.084 264.023 444.132 257.709 442.453 252.791L432.989 256.023ZM429.074 271.279C429.749 271.048 429.802 271.393 428.738 270.902C427.818 270.478 426.612 269.668 425.299 268.483C422.602 266.052 420.381 262.899 419.595 260.597L410.132 263.829C411.631 268.219 415.079 272.732 418.602 275.91C420.398 277.53 422.44 279.01 424.551 279.983C426.518 280.89 429.386 281.739 432.306 280.742L429.074 271.279ZM419.595 260.597C419.37 259.936 419.233 258.65 419.463 256.703C419.683 254.842 420.192 252.762 420.873 250.766C421.557 248.765 422.357 247.011 423.077 245.784C423.441 245.164 423.72 244.789 423.878 244.609C424.146 244.304 423.847 244.783 422.952 245.089L419.721 235.625C418.092 236.182 416.969 237.322 416.364 238.01C415.651 238.822 415.011 239.77 414.452 240.723C413.326 242.643 412.263 245.035 411.41 247.536C410.554 250.042 409.853 252.82 409.532 255.528C409.222 258.15 409.215 261.143 410.132 263.829L419.595 260.597ZM422.952 245.089C421.981 245.42 421.358 245.195 421.593 245.253C421.704 245.28 422.029 245.386 422.579 245.66C423.663 246.202 425.097 247.138 426.618 248.375C429.842 250.997 432.308 254.027 432.989 256.023L442.453 252.791C440.849 248.094 436.591 243.597 432.928 240.617C431.005 239.053 428.955 237.668 427.05 236.715C426.104 236.243 425.057 235.807 423.987 235.544C423.041 235.31 421.426 235.043 419.721 235.625L422.952 245.089ZM304.23 102.43C304.986 105.027 304.391 109.901 302.451 114.862C301.533 117.211 300.436 119.248 299.369 120.702C298.161 122.347 297.515 122.537 297.741 122.472L300.536 132.073C303.573 131.189 305.874 128.739 307.43 126.62C309.126 124.31 310.608 121.461 311.765 118.503C313.975 112.848 315.515 105.421 313.831 99.6358L304.23 102.43ZM297.741 122.472C298.16 122.35 297.87 122.622 296.482 121.903C295.235 121.258 293.7 120.108 292.093 118.519C288.814 115.277 286.117 111.098 285.206 107.967L275.604 110.761C277.133 116.012 280.991 121.605 285.063 125.631C287.132 127.677 289.471 129.534 291.883 130.783C294.153 131.959 297.306 133.013 300.536 132.073L297.741 122.472ZM285.206 107.967C284.895 106.899 284.825 105.106 285.232 102.64C285.626 100.259 286.397 97.6428 287.373 95.1619C288.351 92.6755 289.472 90.4844 290.48 88.9339C290.989 88.1521 291.399 87.6402 291.673 87.3559C292.061 86.9525 291.841 87.344 291.021 87.5828L288.226 77.9812C286.486 78.4876 285.212 79.6486 284.47 80.4197C283.613 81.3097 282.815 82.3773 282.097 83.4829C280.65 85.7072 279.239 88.5231 278.067 91.5008C276.894 94.4839 275.898 97.7888 275.366 101.011C274.848 104.147 274.696 107.638 275.604 110.761L285.206 107.967ZM291.021 87.5828C290.122 87.8443 289.626 87.6005 289.995 87.7097C290.242 87.7827 290.719 87.9738 291.426 88.3687C292.827 89.1509 294.612 90.4412 296.462 92.0928C300.338 95.5532 303.409 99.6097 304.23 102.43L313.831 99.6358C312.213 94.0747 307.42 88.4704 303.121 84.6331C300.884 82.6358 298.505 80.8681 296.303 79.6382C295.209 79.0271 294.025 78.4736 292.832 78.1205C291.761 77.8036 290.044 77.4521 288.226 77.9812L291.021 87.5828ZM457.13 245.713C456.588 247.509 454.239 250.402 450.788 252.874C449.177 254.029 447.605 254.883 446.333 255.364C444.838 255.928 444.564 255.678 445.055 255.826L442.164 265.399C444.927 266.234 447.821 265.491 449.865 264.719C452.132 263.863 454.469 262.538 456.612 261.004C460.668 258.098 465.201 253.579 466.703 248.604L457.13 245.713ZM445.055 255.826C445.738 256.033 445.581 256.343 445.002 255.324C444.501 254.443 443.994 253.082 443.617 251.354C442.844 247.807 442.878 243.95 443.581 241.621L434.008 238.73C432.666 243.172 432.837 248.848 433.847 253.484C434.362 255.848 435.158 258.24 436.306 260.262C437.375 262.145 439.211 264.507 442.164 265.399L445.055 255.826ZM443.581 241.621C443.783 240.953 444.421 239.828 445.743 238.38C447.007 236.997 448.633 235.604 450.35 234.379C452.072 233.152 453.745 232.193 455.045 231.616C455.702 231.324 456.147 231.182 456.381 231.128C456.776 231.036 456.254 231.251 455.349 230.978L458.24 221.405C456.592 220.907 455.015 221.179 454.123 221.386C453.07 221.63 451.997 222.028 450.987 222.476C448.953 223.379 446.695 224.703 444.544 226.237C442.388 227.775 440.198 229.623 438.36 231.637C436.579 233.586 434.828 236.013 434.008 238.73L443.581 241.621ZM455.349 230.978C454.366 230.681 453.992 230.135 454.149 230.319C454.224 230.406 454.426 230.681 454.712 231.225C455.277 232.297 455.897 233.893 456.412 235.785C457.502 239.795 457.74 243.694 457.13 245.713L466.703 248.604C468.138 243.853 467.3 237.717 466.061 233.161C465.411 230.769 464.553 228.448 463.559 226.563C463.066 225.628 462.47 224.664 461.754 223.826C461.121 223.085 459.966 221.926 458.24 221.405L455.349 230.978ZM242.308 482.974C247.291 482.565 247.291 482.565 247.291 482.564C247.291 482.563 247.29 482.562 247.29 482.56C247.29 482.558 247.29 482.554 247.289 482.548C247.288 482.538 247.287 482.522 247.286 482.502C247.282 482.461 247.277 482.401 247.271 482.322C247.257 482.163 247.237 481.929 247.211 481.621C247.159 481.007 247.081 480.102 246.977 478.935C246.77 476.6 246.46 473.218 246.053 469.016C245.238 460.613 244.028 448.926 242.448 435.786C239.298 409.577 234.648 377.331 228.675 353.865L218.984 356.332C224.785 379.122 229.375 410.814 232.52 436.979C234.088 450.026 235.29 461.635 236.1 469.981C236.504 474.154 236.811 477.509 237.016 479.819C237.119 480.974 237.196 481.868 237.247 482.472C237.273 482.773 237.293 483.003 237.305 483.156C237.312 483.232 237.317 483.29 237.32 483.328C237.321 483.347 237.322 483.361 237.323 483.371C237.324 483.375 237.324 483.379 237.324 483.381C237.324 483.382 237.324 483.383 237.324 483.383C237.324 483.384 237.324 483.384 242.308 482.974ZM228.675 353.865C222.646 330.181 210.559 303.674 200.106 283.26C194.86 273.014 189.986 264.227 186.422 257.999C184.639 254.884 183.182 252.407 182.169 250.704C181.662 249.852 181.266 249.194 180.996 248.747C180.86 248.523 180.756 248.352 180.685 248.236C180.65 248.178 180.623 248.133 180.604 248.103C180.595 248.087 180.587 248.076 180.582 248.067C180.58 248.063 180.578 248.06 180.576 248.058C180.576 248.057 180.575 248.055 180.575 248.055C180.574 248.054 180.574 248.053 176.313 250.671C172.053 253.288 172.053 253.288 172.053 253.288C172.053 253.288 172.054 253.289 172.054 253.289C172.055 253.29 172.056 253.292 172.058 253.295C172.061 253.301 172.067 253.311 172.075 253.324C172.091 253.349 172.115 253.389 172.148 253.442C172.213 253.549 172.311 253.71 172.44 253.924C172.699 254.351 173.082 254.988 173.575 255.818C174.563 257.477 175.99 259.905 177.742 262.966C181.248 269.091 186.045 277.738 191.205 287.817C201.567 308.053 213.238 333.759 218.984 356.332L228.675 353.865ZM176.313 250.671C172.942 254.363 172.941 254.363 172.941 254.362C172.941 254.362 172.941 254.362 172.941 254.362C172.941 254.362 172.942 254.363 172.944 254.365C172.947 254.368 172.954 254.374 172.964 254.383C172.983 254.4 173.013 254.429 173.055 254.468C173.14 254.546 173.269 254.667 173.442 254.83C173.787 255.155 174.304 255.648 174.969 256.299C176.302 257.601 178.231 259.535 180.584 262.03C185.295 267.024 191.688 274.25 198.392 283.147C211.861 301.023 226.296 325.269 231.191 351.479L241.021 349.643C235.717 321.246 220.255 295.545 206.378 277.129C199.409 267.879 192.766 260.371 187.859 255.169C185.404 252.566 183.379 250.535 181.959 249.147C181.249 248.453 180.69 247.92 180.304 247.556C180.111 247.373 179.961 247.233 179.857 247.137C179.805 247.089 179.764 247.051 179.735 247.025C179.721 247.012 179.71 247.001 179.701 246.993C179.697 246.989 179.693 246.986 179.691 246.984C179.689 246.983 179.688 246.981 179.687 246.981C179.686 246.979 179.685 246.978 176.313 250.671ZM231.191 351.479C236.317 378.921 237.864 411.679 238.112 437.722C238.236 450.712 238.036 461.972 237.805 469.981C237.69 473.984 237.567 477.173 237.473 479.357C237.426 480.448 237.386 481.289 237.358 481.854C237.344 482.137 237.333 482.35 237.326 482.492C237.322 482.563 237.32 482.617 237.318 482.651C237.317 482.669 237.316 482.681 237.316 482.69C237.315 482.694 237.315 482.697 237.315 482.698C237.315 482.699 237.315 482.7 237.315 482.7C237.315 482.7 237.315 482.7 242.308 482.974C247.3 483.249 247.3 483.248 247.3 483.247C247.3 483.246 247.3 483.245 247.3 483.244C247.3 483.241 247.301 483.237 247.301 483.231C247.302 483.221 247.302 483.206 247.303 483.186C247.305 483.147 247.309 483.089 247.313 483.013C247.32 482.862 247.332 482.638 247.346 482.346C247.375 481.761 247.416 480.9 247.464 479.786C247.559 477.56 247.684 474.324 247.801 470.269C248.035 462.161 248.237 450.77 248.112 437.627C247.862 411.4 246.309 377.951 241.021 349.643L231.191 351.479ZM241.385 479.836C242.265 484.758 242.266 484.758 242.267 484.758C242.267 484.758 242.268 484.758 242.269 484.758C242.272 484.757 242.275 484.757 242.279 484.756C242.288 484.754 242.3 484.752 242.317 484.749C242.35 484.743 242.398 484.735 242.462 484.723C242.589 484.7 242.777 484.666 243.023 484.621C243.516 484.531 244.241 484.398 245.176 484.225C247.045 483.878 249.751 483.368 253.112 482.715C259.831 481.411 269.171 479.535 279.656 477.248C300.556 472.691 326.257 466.451 344.786 459.806L341.41 450.393C323.538 456.802 298.383 462.93 277.526 467.478C267.133 469.744 257.87 471.605 251.206 472.899C247.875 473.545 245.194 474.05 243.349 474.393C242.427 474.564 241.713 474.695 241.231 474.783C240.99 474.827 240.808 474.86 240.685 474.882C240.624 474.893 240.579 474.901 240.548 474.907C240.533 474.909 240.522 474.911 240.515 474.913C240.511 474.913 240.508 474.914 240.507 474.914C240.506 474.914 240.505 474.914 240.505 474.915C240.505 474.915 240.505 474.915 241.385 479.836ZM344.786 459.806C354.659 456.265 368.31 447.442 382.848 436.694C397.542 425.83 413.642 412.617 428.545 399.861C443.459 387.097 457.224 374.748 467.258 365.593C472.276 361.015 476.364 357.232 479.199 354.593C480.617 353.273 481.721 352.239 482.472 351.534C482.848 351.181 483.135 350.911 483.329 350.728C483.426 350.637 483.499 350.568 483.549 350.521C483.574 350.497 483.593 350.48 483.605 350.468C483.612 350.462 483.617 350.457 483.62 350.454C483.622 350.452 483.623 350.451 483.624 350.45C483.625 350.449 483.625 350.449 480.19 346.816C476.754 343.183 476.754 343.184 476.753 343.184C476.753 343.185 476.752 343.186 476.75 343.187C476.747 343.19 476.743 343.194 476.737 343.199C476.726 343.21 476.708 343.227 476.684 343.249C476.637 343.294 476.565 343.362 476.471 343.451C476.281 343.629 475.999 343.895 475.628 344.243C474.886 344.94 473.792 345.964 472.385 347.274C469.571 349.893 465.508 353.653 460.518 358.206C450.535 367.315 436.852 379.589 422.043 392.264C407.224 404.947 391.326 417.989 376.903 428.653C362.323 439.432 349.737 447.407 341.41 450.393L344.786 459.806ZM480.19 346.816C476.373 343.586 476.373 343.586 476.373 343.586C476.372 343.587 476.372 343.588 476.37 343.589C476.368 343.592 476.364 343.596 476.359 343.602C476.349 343.614 476.334 343.632 476.313 343.656C476.272 343.705 476.209 343.779 476.125 343.877C475.959 344.073 475.709 344.366 475.38 344.75C474.723 345.517 473.75 346.647 472.496 348.091C469.987 350.98 466.35 355.126 461.85 360.141C452.846 370.176 440.4 383.676 426.62 397.551C412.826 411.439 397.763 425.637 383.517 437.103C369.113 448.697 356.095 457.039 346.321 459.847L349.082 469.458C360.936 466.053 375.294 456.559 389.787 444.893C404.438 433.1 419.793 418.615 433.715 404.598C447.649 390.567 460.215 376.937 469.293 366.82C473.834 361.759 477.506 357.572 480.046 354.648C481.316 353.186 482.303 352.039 482.974 351.256C483.309 350.865 483.566 350.564 483.739 350.36C483.826 350.259 483.892 350.181 483.936 350.128C483.959 350.102 483.976 350.082 483.987 350.068C483.993 350.062 483.998 350.056 484.001 350.053C484.002 350.051 484.004 350.049 484.004 350.048C484.005 350.047 484.006 350.047 480.19 346.816ZM346.321 459.847C324.663 466.068 298.428 469.828 277.46 472.029C267.007 473.126 257.923 473.83 251.456 474.259C248.223 474.473 245.646 474.619 243.882 474.711C243 474.757 242.321 474.79 241.865 474.811C241.636 474.821 241.464 474.829 241.35 474.834C241.293 474.836 241.25 474.838 241.223 474.839C241.209 474.839 241.199 474.84 241.192 474.84C241.189 474.84 241.187 474.84 241.185 474.84C241.185 474.84 241.184 474.84 241.184 474.84C241.184 474.84 241.184 474.84 241.385 479.836C241.586 484.832 241.587 484.832 241.587 484.832C241.588 484.832 241.589 484.832 241.59 484.832C241.593 484.832 241.596 484.832 241.601 484.832C241.609 484.831 241.622 484.831 241.638 484.83C241.67 484.829 241.718 484.827 241.779 484.824C241.903 484.819 242.085 484.811 242.323 484.8C242.799 484.778 243.499 484.745 244.402 484.698C246.209 484.603 248.834 484.455 252.118 484.237C258.684 483.801 267.899 483.087 278.504 481.974C299.654 479.754 326.577 475.922 349.082 469.458L346.321 459.847Z" fill="#FFB46E" mask="url(#path-1-inside-1_6_2640)"/>
<path d="M275.818 408.417C275.818 408.417 275.505 440.956 266.713 457.76C252.326 485.253 235.543 491.966 235.543 491.966M307.228 449.3C307.228 449.3 292.646 471.264 279.253 478.794C257.34 491.115 242.976 488.263 242.976 488.263M306.361 407.32C299.8 413.077 282.264 413.865 278.401 409.463C274.539 405.061 280.136 390.668 286.698 384.911C293.259 379.153 312.157 379.133 314.683 382.012C317.21 384.891 312.923 401.562 306.361 407.32ZM328.459 462.043C321.46 463.056 309.201 455.847 308.521 451.151C307.842 446.456 318 439.152 324.999 438.139C331.999 437.126 344.843 445.457 345.288 448.528C345.732 451.6 335.458 461.03 328.459 462.043ZM314.993 373.753C308.431 379.51 290.895 380.298 287.033 375.896C283.17 371.494 288.768 357.101 295.329 351.343C301.891 345.586 320.788 345.565 323.315 348.445C325.841 351.324 321.554 367.995 314.993 373.753ZM349.145 443.055C342.146 444.068 329.887 436.859 329.207 432.164C328.528 427.468 338.686 420.164 345.685 419.151C352.685 418.138 365.529 426.469 365.974 429.541C366.419 432.612 356.145 442.042 349.145 443.055ZM319.309 338.747C312.747 344.505 295.211 345.292 291.349 340.891C287.486 336.489 293.084 322.096 299.645 316.338C306.207 310.581 325.104 310.56 327.631 313.44C330.157 316.319 325.87 332.99 319.309 338.747ZM367.536 421.184C360.536 422.197 348.278 414.988 347.598 410.293C346.918 405.597 357.077 398.293 364.076 397.28C371.075 396.267 383.92 404.598 384.365 407.67C384.809 410.741 374.535 420.171 367.536 421.184ZM326.981 303.742C320.42 309.499 302.883 310.287 299.021 305.885C295.158 301.483 300.756 287.09 307.318 281.333C313.879 275.575 332.776 275.555 335.303 278.434C337.83 281.313 333.543 297.984 326.981 303.742ZM388.206 400.796C381.207 401.809 368.948 394.599 368.268 389.904C367.589 385.208 377.747 377.904 384.746 376.891C391.746 375.878 404.59 384.209 405.035 387.281C405.479 390.352 395.205 399.783 388.206 400.796ZM333.215 268.736C326.653 274.494 309.117 275.281 305.255 270.88C301.392 266.478 306.99 252.085 313.551 246.327C320.113 240.57 339.01 240.549 341.537 243.429C344.063 246.308 339.776 262.979 333.215 268.736ZM407.899 379.772C400.9 380.785 388.641 373.576 387.962 368.88C387.282 364.185 397.44 356.88 404.44 355.867C411.439 354.854 424.284 363.186 424.728 366.257C425.173 369.329 414.899 378.759 407.899 379.772ZM331.297 233.731C324.735 239.488 307.199 240.276 303.337 235.874C299.474 231.472 305.072 217.079 311.633 211.322C318.195 205.564 337.092 205.544 339.619 208.423C342.145 211.302 337.858 227.973 331.297 233.731ZM422.055 355.148C415.056 356.161 402.797 348.952 402.117 344.256C401.438 339.561 411.596 332.257 418.595 331.243C425.595 330.23 438.44 338.562 438.884 341.633C439.329 344.705 429.055 354.135 422.055 355.148ZM327.461 198.725C320.899 204.483 303.363 205.27 299.5 200.869C295.638 196.467 301.236 182.074 307.797 176.316C314.359 170.559 333.256 170.538 335.782 173.418C338.309 176.297 334.022 192.968 327.461 198.725ZM434.908 329.677C427.909 330.69 415.65 323.481 414.971 318.785C414.291 314.09 424.449 306.785 431.449 305.772C438.448 304.759 451.293 313.091 451.737 316.162C452.182 319.234 441.908 328.664 434.908 329.677ZM320.747 163.72C314.186 169.477 296.65 170.265 292.787 165.863C288.925 161.461 294.522 147.068 301.084 141.311C307.645 135.553 326.543 135.533 329.069 138.412C331.596 141.291 327.309 157.962 320.747 163.72ZM445.808 302.936C438.809 303.949 426.55 296.739 425.87 292.044C425.19 287.348 435.349 280.044 442.348 279.031C449.347 278.018 462.192 286.349 462.637 289.421C463.081 292.492 452.807 301.923 445.808 302.936ZM266.484 382.412C273.352 387.8 277.358 404.891 273.743 409.498C270.129 414.106 254.951 411.257 248.083 405.869C241.215 400.481 237.712 381.911 240.076 378.897C242.441 375.883 259.616 377.024 266.484 382.412ZM312.373 427.515C314.658 434.208 309.832 447.585 305.342 449.119C300.852 450.652 291.801 442.014 289.515 435.321C287.229 428.628 293.051 414.468 295.988 413.465C298.925 412.462 310.087 420.822 312.373 427.515ZM275.116 348.845C281.984 354.233 285.99 371.324 282.375 375.931C278.76 380.539 263.582 377.69 256.714 372.302C249.846 366.914 246.343 348.344 248.708 345.33C251.072 342.316 268.248 343.457 275.116 348.845ZM333.059 408.527C335.345 415.22 330.518 428.597 326.028 430.131C321.538 431.664 312.487 423.026 310.201 416.333C307.916 409.64 313.737 395.48 316.674 394.477C319.611 393.474 330.773 401.834 333.059 408.527ZM279.431 313.84C286.3 319.228 290.305 336.318 286.691 340.926C283.076 345.533 267.898 342.684 261.03 337.296C254.162 331.908 250.659 313.338 253.023 310.324C255.388 307.31 272.563 308.452 279.431 313.84ZM351.45 386.656C353.735 393.349 348.908 406.726 344.419 408.26C339.929 409.793 330.878 401.155 328.592 394.462C326.306 387.769 332.128 373.609 335.065 372.606C338.002 371.603 349.164 379.963 351.45 386.656ZM287.104 278.834C293.972 284.222 297.978 301.313 294.363 305.92C290.749 310.528 275.571 307.679 268.702 302.291C261.834 296.902 258.332 278.333 260.696 275.319C263.06 272.305 280.236 273.446 287.104 278.834ZM372.12 366.267C374.405 372.96 369.579 386.337 365.089 387.871C360.599 389.404 351.548 380.766 349.262 374.073C346.977 367.38 352.798 353.22 355.735 352.217C358.672 351.214 369.834 359.574 372.12 366.267ZM293.338 243.829C300.206 249.217 304.212 266.307 300.597 270.915C296.982 275.522 281.804 272.673 274.936 267.285C268.068 261.897 264.565 243.327 266.93 240.313C269.294 237.299 286.47 238.441 293.338 243.829ZM391.813 345.243C394.098 351.936 389.272 365.314 384.782 366.847C380.292 368.38 371.241 359.742 368.955 353.049C366.669 346.357 372.491 332.197 375.428 331.194C378.365 330.191 389.527 338.551 391.813 345.243ZM291.42 208.823C298.288 214.211 302.293 231.302 298.679 235.909C295.064 240.517 279.886 237.668 273.018 232.28C266.15 226.891 262.647 208.322 265.012 205.308C267.376 202.294 284.551 203.435 291.42 208.823ZM405.969 320.62C408.255 327.312 403.428 340.69 398.938 342.223C394.448 343.757 385.397 335.118 383.111 328.426C380.826 321.733 386.647 307.573 389.584 306.57C392.521 305.567 403.683 313.927 405.969 320.62ZM287.583 173.818C294.452 179.206 298.457 196.296 294.843 200.904C291.228 205.511 276.05 202.662 269.182 197.274C262.314 191.886 258.811 173.316 261.175 170.302C263.54 167.288 280.715 168.43 287.583 173.818ZM418.822 295.148C421.108 301.841 416.281 315.219 411.791 316.752C407.301 318.285 398.25 309.647 395.965 302.954C393.679 296.262 399.5 282.102 402.437 281.099C405.374 280.096 416.536 288.456 418.822 295.148ZM280.87 138.812C287.738 144.2 291.744 161.291 288.129 165.898C284.515 170.506 269.337 167.657 262.469 162.268C255.6 156.88 252.098 138.311 254.462 135.297C256.826 132.283 274.002 133.424 280.87 138.812ZM429.721 268.407C432.007 275.1 427.18 288.477 422.69 290.01C418.2 291.544 409.149 282.906 406.864 276.213C404.578 269.52 410.399 255.36 413.336 254.357C416.273 253.354 427.435 261.714 429.721 268.407ZM301.031 115.033C303.47 123.415 296.761 139.636 291.139 141.272C285.516 142.909 274.845 131.746 272.405 123.364C269.966 114.982 277.945 97.8523 281.623 96.7819C285.302 95.7114 298.591 106.651 301.031 115.033ZM453.917 261.159C451.872 267.929 440.152 275.984 435.61 274.613C431.068 273.241 428.75 260.946 430.794 254.176C432.839 247.405 445.824 239.294 448.795 240.191C451.766 241.089 455.961 254.388 453.917 261.159ZM168.313 264.671C168.313 264.671 204.055 322.842 215.829 369.098C227.604 415.355 234.308 496.974 234.308 496.974C234.308 496.974 238.52 420.311 228.106 364.561C217.906 309.953 168.313 264.671 168.313 264.671ZM472.19 360.816C472.19 360.816 371.499 456.046 335.098 469.099C298.697 482.153 233.385 493.836 233.385 493.836C233.385 493.836 295.539 491.338 339.701 478.652C382.96 466.226 472.19 360.816 472.19 360.816Z" stroke="#1E1E1E" stroke-width="5"/>
</svg>
