<svg width="152" height="158" viewBox="0 0 152 158" fill="none" xmlns="http://www.w3.org/2000/svg">
<path d="M22.1567 103.286H36.0721V109.82H22.1567V103.286Z" fill="black"/>
<path d="M22.1567 112.717H36.0721V119.251H22.1567V112.717Z" fill="black"/>
<path d="M22.1567 122.148H36.0721V140.196H22.1567V122.148Z" fill="black"/>
<path d="M123.305 31.1614C124.108 31.1614 124.893 31.409 125.56 31.8729C126.228 32.3368 126.749 32.9961 127.056 33.7675C127.363 34.5389 127.444 35.3878 127.287 36.2067C127.13 37.0257 126.744 37.7779 126.176 38.3683C125.608 38.9587 124.884 39.3608 124.097 39.5237C123.309 39.6866 122.493 39.603 121.751 39.2835C121.009 38.9639 120.375 38.4228 119.928 37.7286C119.482 37.0343 119.244 36.2181 119.244 35.3831C119.245 34.2636 119.672 33.19 120.434 32.3984C121.195 31.6067 122.228 31.1618 123.305 31.1614Z" fill="black"/>
<path d="M123.305 50.9662C124.108 50.9659 124.893 51.2133 125.561 51.6771C126.23 52.1409 126.75 52.8003 127.058 53.5719C127.366 54.3434 127.447 55.1926 127.29 56.0119C127.134 56.8312 126.747 57.5838 126.179 58.1747C125.611 58.7656 124.888 59.1681 124.1 59.3313C123.312 59.4946 122.495 59.4113 121.753 59.0919C121.011 58.7725 120.376 58.2315 119.93 57.5371C119.483 56.8428 119.244 56.0263 119.244 55.1911C119.244 54.071 119.672 52.9968 120.433 52.2045C121.194 51.4122 122.227 50.9668 123.305 50.9662Z" fill="black"/>
<path d="M9.75146 40.1323C9.75146 41.1866 9.95118 42.2306 10.3392 43.2046C10.7273 44.1786 11.296 45.0636 12.013 45.8091C12.73 46.5546 13.5812 47.146 14.518 47.5494C15.4548 47.9529 16.4589 48.1605 17.4728 48.1605C18.4868 48.1605 19.4909 47.9529 20.4277 47.5494C21.3645 47.146 22.2157 46.5546 22.9327 45.8091C23.6497 45.0636 24.2184 44.1786 24.6065 43.2046C24.9945 42.2306 25.1942 41.1866 25.1942 40.1323C25.1942 39.078 24.9945 38.0341 24.6065 37.0601C24.2184 36.086 23.6497 35.201 22.9327 34.4555C22.2157 33.71 21.3645 33.1187 20.4277 32.7152C19.4909 32.3118 18.4868 32.1041 17.4728 32.1041C16.4589 32.1041 15.4548 32.3118 14.518 32.7152C13.5812 33.1187 12.73 33.71 12.013 34.4555C11.296 35.201 10.7273 36.086 10.3392 37.0601C9.95118 38.0341 9.75146 39.078 9.75146 40.1323Z" fill="black"/>
<path d="M87.0156 23.5696C87.0156 23.9531 87.1621 24.3209 87.423 24.5921C87.6838 24.8633 88.0375 25.0156 88.4063 25.0156C88.7752 25.0156 89.1289 24.8633 89.3897 24.5921C89.6505 24.3209 89.797 23.9531 89.797 23.5696C89.797 23.1861 89.6505 22.8183 89.3897 22.5472C89.1289 22.276 88.7752 22.1237 88.4063 22.1237C88.0375 22.1237 87.6838 22.276 87.423 22.5472C87.1621 22.8183 87.0156 23.1861 87.0156 23.5696Z" fill="black"/>
<path d="M33.6665 31.1614C33.6665 31.3513 33.7025 31.5393 33.7724 31.7148C33.8423 31.8902 33.9447 32.0496 34.0738 32.1839C34.203 32.3182 34.3563 32.4247 34.525 32.4973C34.6937 32.57 34.8746 32.6074 35.0572 32.6074C35.2398 32.6074 35.4207 32.57 35.5894 32.4973C35.7581 32.4247 35.9115 32.3182 36.0406 32.1839C36.1697 32.0496 36.2722 31.8902 36.3421 31.7148C36.412 31.5393 36.4479 31.3513 36.4479 31.1614C36.4479 30.9715 36.412 30.7835 36.3421 30.6081C36.2722 30.4326 36.1697 30.2732 36.0406 30.139C35.9115 30.0047 35.7581 29.8982 35.5894 29.8255C35.4207 29.7529 35.2398 29.7155 35.0572 29.7155C34.8746 29.7155 34.6937 29.7529 34.525 29.8255C34.3563 29.8982 34.203 30.0047 34.0738 30.139C33.9447 30.2732 33.8423 30.4326 33.7724 30.6081C33.7025 30.7835 33.6665 30.9715 33.6665 31.1614Z" fill="black"/>
<path d="M24.2836 86.7057C24.8288 86.7058 25.3618 86.8741 25.815 87.1892C26.2682 87.5043 26.6214 87.952 26.8299 88.4759C27.0384 88.9997 27.0928 89.576 26.9862 90.1319C26.8796 90.6879 26.6169 91.1985 26.2312 91.5992C25.8455 91.9998 25.3542 92.2726 24.8194 92.3829C24.2846 92.4933 23.7304 92.4363 23.2268 92.2191C22.7232 92.0019 22.2928 91.6343 21.9901 91.1628C21.6875 90.6913 21.5261 90.137 21.5264 89.5702C21.5263 89.1938 21.5975 88.821 21.7361 88.4733C21.8747 88.1256 22.0778 87.8097 22.3339 87.5436C22.59 87.2776 22.894 87.0666 23.2285 86.9228C23.5631 86.7791 23.9216 86.7053 24.2836 86.7057Z" fill="#FFD997"/>
<path d="M115.261 17.2606C115.261 18.0209 115.551 18.7501 116.068 19.2878C116.585 19.8254 117.287 20.1274 118.018 20.1274C118.749 20.1274 119.451 19.8254 119.968 19.2878C120.485 18.7501 120.775 18.0209 120.775 17.2606C120.775 16.5003 120.485 15.7711 119.968 15.2335C119.451 14.6958 118.749 14.3938 118.018 14.3938C117.287 14.3938 116.585 14.6958 116.068 15.2335C115.551 15.7711 115.261 16.5003 115.261 17.2606Z" fill="#FFD997"/>
<path d="M65.4034 4.96192C65.9487 4.96145 66.4819 5.12911 66.9356 5.4437C67.3893 5.75829 67.743 6.20568 67.9521 6.72929C68.1613 7.25291 68.2164 7.82925 68.1105 8.38543C68.0046 8.9416 67.7425 9.45265 67.3572 9.85394C66.972 10.2552 66.481 10.5288 65.9463 10.6399C65.4116 10.7511 64.8572 10.6949 64.3532 10.4785C63.8492 10.262 63.4182 9.89507 63.1148 9.42398C62.8113 8.9529 62.649 8.39884 62.6484 7.83187C62.6477 7.45525 62.7185 7.08217 62.8566 6.734C62.9948 6.38584 63.1976 6.06941 63.4535 5.80284C63.7094 5.53627 64.0133 5.32478 64.3479 5.18048C64.6825 5.03619 65.0412 4.96191 65.4034 4.96192Z" fill="#FFD997"/>
<path d="M9.42822 17.2606C9.42822 18.0209 9.71872 18.7501 10.2358 19.2878C10.7529 19.8254 11.4542 20.1274 12.1855 20.1274C12.9168 20.1274 13.6181 19.8254 14.1352 19.2878C14.6522 18.7501 14.9427 18.0209 14.9427 17.2606C14.9427 16.5003 14.6522 15.7711 14.1352 15.2335C13.6181 14.6958 12.9168 14.3938 12.1855 14.3938C11.4542 14.3938 10.7529 14.6958 10.2358 15.2335C9.71872 15.7711 9.42822 16.5003 9.42822 17.2606Z" fill="#FFD997"/>
<path d="M109.763 92.7972L106.344 93.3247C105.592 93.326 104.866 93.0327 104.312 92.5031C103.758 91.9735 103.416 91.2465 103.354 90.4666V90.4305C103.225 89.6719 103.363 88.8905 103.744 88.2297C104.125 87.569 104.722 87.0732 105.426 86.8336L108.824 86.3092C108.617 86.3759 106.781 87.0157 107.224 90.0772C107.28 90.7656 107.564 91.4126 108.026 91.9083C108.489 92.4041 109.103 92.7182 109.763 92.7972Z" fill="#81F8F8"/>
<path d="M133.469 28.0974V71.4294C133.468 71.6962 133.366 71.9519 133.185 72.1406C133.003 72.3292 132.757 72.4354 132.501 72.4358H114.111C113.855 72.4354 113.609 72.3292 113.427 72.1405C113.246 71.9519 113.144 71.6961 113.144 71.4294V28.0974C113.144 27.8308 113.246 27.5752 113.428 27.3866C113.609 27.1979 113.855 27.0917 114.111 27.0911H132.501C132.757 27.0917 133.003 27.1979 133.184 27.3865C133.366 27.5751 133.468 27.8307 133.469 28.0974ZM127.367 35.3854C127.368 34.55 127.13 33.7334 126.684 33.0387C126.238 32.344 125.603 31.8024 124.861 31.4825C124.119 31.1626 123.302 31.0787 122.514 31.2414C121.726 31.4041 121.002 31.8062 120.434 32.3966C119.866 32.9871 119.479 33.7396 119.322 34.5588C119.165 35.3781 119.245 36.2273 119.553 36.9991C119.86 37.7709 120.38 38.4306 121.048 38.8949C121.716 39.3591 122.501 39.6069 123.305 39.6071C124.382 39.6073 125.415 39.1627 126.177 38.371C126.939 37.5793 127.367 36.5053 127.367 35.3854ZM127.367 55.1933C127.368 54.358 127.13 53.5413 126.684 52.8466C126.238 52.1519 125.603 51.6103 124.861 51.2904C124.119 50.9705 123.302 50.8866 122.514 51.0493C121.726 51.212 121.002 51.6141 120.434 52.2046C119.866 52.7951 119.479 53.5475 119.322 54.3667C119.165 55.186 119.245 56.0352 119.553 56.807C119.86 57.5788 120.38 58.2385 121.048 58.7028C121.716 59.167 122.501 59.4149 123.305 59.415C124.382 59.415 125.416 58.97 126.178 58.1778C126.939 57.3856 127.367 56.3112 127.367 55.1909V55.1933Z" fill="#81F8F8"/>
<path d="M39.7294 100.41V143.738C39.7292 144.005 39.6273 144.261 39.4459 144.449C39.2646 144.638 39.0187 144.744 38.7622 144.744H20.3727C20.1161 144.744 19.8702 144.638 19.6887 144.449C19.5073 144.261 19.4052 144.005 19.4048 143.738V100.41C19.4048 100.143 19.5068 99.8872 19.6883 99.6984C19.8698 99.5097 20.116 99.4037 20.3727 99.4037H38.7622C38.8893 99.4037 39.0151 99.4297 39.1325 99.4803C39.2499 99.5309 39.3566 99.605 39.4464 99.6985C39.5362 99.792 39.6074 99.9029 39.656 100.025C39.7045 100.147 39.7295 100.278 39.7294 100.41ZM36.0714 140.195V122.148H22.1568V140.195H36.0714ZM36.0714 119.252V112.717H22.1568V119.252H36.0714ZM36.0714 109.82V103.288H22.1568V109.821L36.0714 109.82Z" fill="#81F8F8"/>
<path d="M80.8544 18.6649V61.9969C80.8546 62.2642 80.7528 62.5206 80.5713 62.7099C80.3898 62.8992 80.1435 63.0058 79.8865 63.0065H61.4969C61.24 63.0056 60.9939 62.8989 60.8126 62.7096C60.6313 62.5204 60.5296 62.2641 60.5298 61.9969V18.6649C60.53 18.3982 60.6319 18.1425 60.8132 17.9538C60.9945 17.7652 61.2404 17.659 61.4969 17.6586H79.8865C80.1431 17.6588 80.3892 17.7649 80.5707 17.9536C80.7521 18.1422 80.8542 18.3981 80.8544 18.6649Z" fill="#81F8F8"/>
<path d="M27.6362 28.0974V71.4294C27.6362 71.5619 27.611 71.6931 27.5622 71.8155C27.5134 71.9379 27.4419 72.0491 27.3517 72.1427C27.2615 72.2363 27.1545 72.3105 27.0367 72.3611C26.9189 72.4117 26.7927 72.4376 26.6652 72.4374H8.27722C8.15014 72.4374 8.02432 72.4113 7.90693 72.3608C7.78954 72.3102 7.68289 72.236 7.59307 72.1426C7.50325 72.0491 7.43202 71.9382 7.38346 71.8161C7.33491 71.694 7.30996 71.5631 7.31006 71.431V28.099C7.30976 27.9668 7.33456 27.8357 7.38303 27.7135C7.4315 27.5912 7.50269 27.4801 7.59253 27.3864C7.68237 27.2928 7.78909 27.2185 7.90658 27.1678C8.02407 27.1172 8.15002 27.0911 8.27722 27.0911H26.6652C26.9223 27.0909 27.1689 27.1967 27.3509 27.3854C27.533 27.5741 27.6356 27.8302 27.6362 28.0974ZM25.1937 40.1323C25.1939 38.5444 24.7412 36.9922 23.8928 35.6718C23.0445 34.3515 21.8386 33.3224 20.4277 32.7146C19.0168 32.1069 17.4643 31.9478 15.9665 32.2575C14.4686 32.5671 13.0927 33.3317 12.0128 34.4544C10.9329 35.5771 10.1974 37.0076 9.8994 38.565C9.6014 40.1223 9.75427 41.7366 10.3387 43.2036C10.9231 44.6706 11.9127 45.9244 13.1825 46.8066C14.4523 47.6888 15.9452 48.1597 17.4724 48.1597C19.5201 48.1597 21.4839 47.314 22.9319 45.8086C24.38 44.3031 25.1935 42.2613 25.1937 40.1323Z" fill="#81F8F8"/>
<path d="M106.548 29.0403C106.823 29.0398 107.093 29.1244 107.322 29.2833C107.551 29.4421 107.73 29.6682 107.836 29.9328C107.941 30.1974 107.969 30.4886 107.916 30.7696C107.862 31.0507 107.729 31.3088 107.534 31.5114C107.34 31.714 107.091 31.8519 106.821 31.9077C106.551 31.9634 106.271 31.9346 106.016 31.8247C105.762 31.7149 105.544 31.529 105.391 31.2906C105.239 31.0522 105.157 30.772 105.158 30.4855C105.158 30.1022 105.304 29.7348 105.565 29.4638C105.826 29.1928 106.179 29.0405 106.548 29.0403Z" fill="black"/>
<path d="M105.157 43.0628C105.157 43.4463 105.304 43.8141 105.565 44.0852C105.825 44.3564 106.179 44.5088 106.548 44.5088C106.917 44.5088 107.271 44.3564 107.531 44.0852C107.792 43.8141 107.939 43.4463 107.939 43.0628C107.939 42.6793 107.792 42.3115 107.531 42.0403C107.271 41.7692 106.917 41.6168 106.548 41.6168C106.179 41.6168 105.825 41.7692 105.565 42.0403C105.304 42.3115 105.157 42.6793 105.157 43.0628Z" fill="black"/>
<path d="M105.157 49.3514C105.157 49.7349 105.304 50.1026 105.565 50.3738C105.825 50.645 106.179 50.7973 106.548 50.7973C106.917 50.7973 107.271 50.645 107.531 50.3738C107.792 50.1026 107.939 49.7349 107.939 49.3514C107.939 48.9679 107.792 48.6001 107.531 48.3289C107.271 48.0577 106.917 47.9054 106.548 47.9054C106.179 47.9054 105.825 48.0577 105.565 48.3289C105.304 48.6001 105.157 48.9679 105.157 49.3514Z" fill="black"/>
<path d="M106.548 54.1908C106.823 54.1903 107.092 54.2748 107.322 54.4336C107.551 54.5923 107.73 54.8182 107.835 55.0826C107.941 55.347 107.969 55.6381 107.916 55.919C107.862 56.1999 107.73 56.4581 107.535 56.6608C107.341 56.8635 107.093 57.0017 106.823 57.0578C106.553 57.1139 106.273 57.0855 106.018 56.9761C105.764 56.8668 105.546 56.6814 105.393 56.4434C105.24 56.2054 105.158 55.9255 105.158 55.6391C105.157 55.4491 105.193 55.2609 105.263 55.0852C105.333 54.9096 105.435 54.7499 105.564 54.6154C105.693 54.4809 105.846 54.3742 106.015 54.3013C106.184 54.2285 106.365 54.1909 106.548 54.1908Z" fill="black"/>
<path d="M47.151 115.281C47.4263 115.281 47.6956 115.366 47.9247 115.524C48.1538 115.683 48.3325 115.909 48.4381 116.173C48.5438 116.438 48.5717 116.729 48.5182 117.01C48.4648 117.291 48.3325 117.549 48.138 117.751C47.9435 117.954 47.6956 118.092 47.4256 118.148C47.1556 118.204 46.8756 118.176 46.6211 118.067C46.3666 117.957 46.149 117.772 45.9957 117.534C45.8425 117.296 45.7606 117.017 45.7603 116.73C45.7601 116.347 45.9064 115.978 46.1672 115.707C46.4279 115.435 46.7818 115.282 47.151 115.281Z" fill="black"/>
<path d="M47.151 127.859C47.4261 127.859 47.695 127.943 47.9237 128.102C48.1524 128.261 48.3306 128.487 48.4359 128.751C48.5411 129.016 48.5686 129.306 48.5149 129.587C48.4612 129.867 48.3286 130.125 48.1341 130.327C47.9395 130.529 47.6916 130.667 47.4218 130.723C47.152 130.778 46.8723 130.75 46.6182 130.64C46.3641 130.531 46.147 130.345 45.9943 130.107C45.8415 129.869 45.7601 129.59 45.7603 129.304C45.7609 128.92 45.9076 128.553 46.1683 128.282C46.429 128.011 46.7824 127.859 47.151 127.859Z" fill="black"/>
<path d="M78.5954 89.5332C79.7042 89.6536 80.8248 89.5707 81.906 89.2883C84.3107 88.6242 85.672 85.9575 85.672 85.9575C86.5146 87.1802 87.4995 88.2898 88.6044 89.2608L77.8721 90.8065C78.1399 90.4166 78.3806 90.0074 78.5923 89.5819L78.5954 89.5332Z" fill="black"/>
<path d="M74.173 80.7475C76.9189 76.7565 83.9404 70.5684 88.6365 70.0715C89.9041 69.9357 95.96 72.6934 100.689 74.8937C100.689 74.8937 111.712 74.484 113.228 76.2636C119.518 83.6245 125.03 103.76 126.106 105.996C127.182 108.233 142.685 117.233 147.823 119.997V152.564L117.539 133.514C115.617 133.758 113.674 133.758 111.753 133.514C95.4859 130.229 73.6867 113.112 69.4655 111.078C66.3648 109.587 65.6271 106.466 65.2375 104.372C65.154 103.78 65.0252 103.197 64.8525 102.626C64.5865 102.066 64.2329 101.555 63.8061 101.114C63.2957 100.532 62.6841 99.9289 62.139 99.3685C61.7085 98.942 61.31 98.482 60.9469 97.9923C60.5199 97.3741 60.2779 96.6387 60.251 95.8781C60.2242 95.1175 60.4137 94.3656 60.7959 93.7165C61.0834 93.1744 61.4447 92.6784 61.8687 92.2438C63.3697 90.6801 66.9725 92.0161 67.1182 92.068C67.259 90.9273 67.6745 89.8422 68.3262 88.913C70.6086 85.2306 71.1243 83.2249 71.9117 82.1393C72.1665 81.7737 72.5135 81.4884 72.9144 81.315C73.2073 81.1839 73.6452 80.9869 74.173 80.7475ZM78.595 89.5332V89.585C78.3832 90.0105 78.1425 90.4197 77.8747 90.8096C76.8388 92.42 75.3583 93.6666 73.6279 94.3853C73.4097 94.4638 73.1794 94.5336 72.9484 94.5949C73.8752 95.5915 74.6736 96.709 75.3236 97.9193C75.4926 98.2358 75.6407 98.5639 75.7668 98.9014C75.7668 98.9014 84.1269 104.274 85.473 105.05C85.473 105.05 94.0597 100.314 96.6772 98.9917C96.6772 98.9917 93.8732 96.0039 93.2669 95.2127L106.349 93.3247L109.767 92.7972L111.295 92.5617C112.12 92.432 112.862 91.9676 113.359 91.2702C113.855 90.5729 114.066 89.6993 113.945 88.8408C113.823 87.9823 113.38 87.2088 112.711 86.6896C112.042 86.1704 111.203 85.9478 110.377 86.0706L108.846 86.3061C108.841 86.3054 108.835 86.3054 108.829 86.3061L105.431 86.8304L88.6131 89.2577C87.5082 88.2866 86.5233 87.1771 85.6807 85.9544C85.6807 85.9544 84.3217 88.6234 81.9147 89.2851C80.8307 89.5697 79.707 89.6536 78.595 89.5332Z" fill="#FFD997"/>
<path d="M147.823 120C142.685 117.236 127.181 108.232 126.106 105.999C125.031 103.765 119.518 83.6261 113.228 76.2659C111.712 74.4863 100.689 74.8961 100.689 74.8961" stroke="black" stroke-width="0.980065" stroke-linecap="round" stroke-linejoin="round"/>
<path d="M67.1173 92.0735C66.9715 92.0217 63.3687 90.6856 61.8678 92.2493C61.4437 92.6839 61.0824 93.1799 60.7949 93.722C60.4127 94.3711 60.2232 95.123 60.2501 95.8836C60.2769 96.6442 60.519 97.3796 60.9459 97.9979C61.309 98.4875 61.7075 98.9475 62.138 99.374C62.6832 99.9345 63.2947 100.537 63.8051 101.12C64.2319 101.56 64.5855 102.071 64.8515 102.632C65.0242 103.202 65.153 103.786 65.2366 104.378C65.6269 106.471 66.3645 109.59 69.4646 111.084C73.6858 113.118 95.4849 130.238 111.752 133.519C113.673 133.764 115.616 133.764 117.538 133.519L147.822 152.57" stroke="black" stroke-width="0.980065" stroke-linecap="round" stroke-linejoin="round"/>
<path d="M72.9375 94.5917H72.9435C73.8703 95.5883 74.6688 96.7058 75.3188 97.9161C75.4878 98.2326 75.6359 98.5607 75.762 98.8982C75.762 98.8982 84.1221 104.271 85.4682 105.047C85.4682 105.047 94.0549 100.31 96.6724 98.9885C96.6724 98.9885 93.8684 96.0007 93.2621 95.2095L93.2538 95.2032" stroke="black" stroke-width="0.980065" stroke-linecap="round" stroke-linejoin="round"/>
<path d="M63.8054 101.117C63.8054 101.117 64.6918 97.7945 65.4287 96.9247C66.1655 96.055 64.2773 94.0399 63.0708 93.1403" stroke="black" stroke-width="0.980065" stroke-linecap="round" stroke-linejoin="round"/>
<path d="M66.6507 101.718C66.1977 102.443 65.0652 103.531 65.2374 104.373" stroke="black" stroke-width="0.980065" stroke-linecap="round" stroke-linejoin="round"/>
<path d="M88.6368 89.2883C88.6368 89.2883 88.6247 89.2789 88.6043 89.2608C87.4994 88.2898 86.5145 87.1802 85.6719 85.9575C85.6719 85.9575 84.3129 88.6265 81.9059 89.2883C80.8247 89.5707 79.7041 89.6536 78.5953 89.5332C78.1185 89.4901 77.6457 89.4082 77.1812 89.2883" stroke="black" stroke-width="0.980065" stroke-linecap="round" stroke-linejoin="round"/>
<path d="M78.5925 89.5849C78.3807 90.0104 78.14 90.4196 77.8722 90.8095C76.8363 92.4199 75.3557 93.6665 73.6253 94.3852C73.4071 94.4637 73.1768 94.5335 72.9458 94.5948C72.8175 94.6246 72.6891 94.6521 72.5555 94.6733C69.5762 95.2094 66.9821 94.5068 67.1195 92.0671C67.2603 90.9265 67.6758 89.8413 68.3275 88.9122C70.6098 85.2297 71.1255 83.2233 71.913 82.1384C72.1677 81.7728 72.5147 81.4876 72.9156 81.3141C73.2176 81.1807 73.6525 80.9837 74.1802 80.7442C76.5034 79.6719 80.6483 77.6929 83.4086 76.1912C86.7925 74.3512 87.8684 74.7515 89.8706 75.6307C91.8729 76.5099 102.102 82.5097 102.102 82.5097" stroke="black" stroke-width="0.980065" stroke-linecap="round" stroke-linejoin="round"/>
<path d="M105.967 77.3233C105.003 76.9174 103.006 75.9715 100.688 74.896C95.9606 72.698 89.904 69.938 88.6364 70.0738C83.9403 70.5683 76.9188 76.7565 74.1729 80.7498" stroke="black" stroke-width="0.980065" stroke-linecap="round" stroke-linejoin="round"/>
<path d="M77.8721 90.8095L88.6044 89.2607L105.423 86.8335" stroke="black" stroke-width="0.980065" stroke-linecap="round" stroke-linejoin="round"/>
<path d="M106.344 93.3247L93.262 95.2126L75.5928 97.7647" stroke="black" stroke-width="0.980065" stroke-linecap="round" stroke-linejoin="round"/>
<path d="M58.1485 95.3854L54.7495 97.5284L57.4607 98.2553L58.0692 98.4194L62.0307 99.4831" stroke="black" stroke-width="0.980065" stroke-linecap="round" stroke-linejoin="round"/>
<path d="M60.7887 93.7189L58.1484 95.3854" stroke="black" stroke-width="0.980065" stroke-linecap="round" stroke-linejoin="round"/>
<path d="M109.763 92.7972L106.344 93.3247C105.592 93.326 104.866 93.0327 104.312 92.5031C103.758 91.9735 103.416 91.2465 103.354 90.4666V90.4305C103.225 89.6719 103.363 88.8905 103.744 88.2297C104.125 87.569 104.722 87.0732 105.426 86.8336L108.824 86.3092" stroke="black" stroke-width="0.980065" stroke-linecap="round" stroke-linejoin="round"/>
<path d="M109.762 92.7973L111.29 92.5618C112.115 92.432 112.857 91.9677 113.354 91.2703C113.85 90.5729 114.061 89.6994 113.94 88.8408C113.818 87.9823 113.375 87.2088 112.706 86.6896C112.037 86.1704 111.198 85.9478 110.372 86.0706L108.841 86.3061C108.835 86.3055 108.83 86.3055 108.824 86.3061C108.617 86.3728 106.781 87.0126 107.224 90.0741C107.28 90.763 107.563 91.4106 108.026 91.907C108.488 92.4034 109.102 92.7179 109.762 92.7973Z" stroke="black" stroke-width="0.980065" stroke-linecap="round" stroke-linejoin="round"/>
<path d="M54.7495 97.5284L53.0273 97.7011" stroke="black" stroke-width="0.980065" stroke-linecap="round" stroke-linejoin="round"/>
<path d="M26.68 74.7925H8.26481C7.23284 74.7923 6.24319 74.3659 5.51348 73.6072C4.78377 72.8485 4.37374 71.8196 4.37354 70.7466V28.1156C4.37394 27.0427 4.78404 26.0138 5.5137 25.2552C6.24337 24.4965 7.2329 24.0701 8.26481 24.0697H26.68C27.712 24.0699 28.7016 24.4962 29.4313 25.2549C30.161 26.0137 30.5711 27.0426 30.5713 28.1156V70.7466C30.5711 71.8196 30.161 72.8485 29.4313 73.6072C28.7016 74.3659 27.712 74.7923 26.68 74.7925Z" stroke="black" stroke-width="0.980065" stroke-linecap="round" stroke-linejoin="round"/>
<path d="M26.6652 72.4374H8.27722C8.15014 72.4374 8.02432 72.4113 7.90693 72.3608C7.78954 72.3102 7.68289 72.236 7.59307 72.1426C7.50325 72.0491 7.43202 71.9382 7.38346 71.8161C7.33491 71.694 7.30996 71.5631 7.31006 71.431V28.099C7.30976 27.9668 7.33456 27.8357 7.38303 27.7135C7.4315 27.5912 7.50269 27.4801 7.59253 27.3864C7.68237 27.2928 7.78909 27.2185 7.90658 27.1678C8.02407 27.1172 8.15002 27.0911 8.27722 27.0911H26.6652C26.9223 27.0909 27.1689 27.1967 27.3509 27.3854C27.533 27.5741 27.6356 27.8302 27.6362 28.0974V71.4294C27.6362 71.5619 27.611 71.6931 27.5622 71.8155C27.5134 71.9379 27.4419 72.0491 27.3517 72.1427C27.2615 72.2363 27.1545 72.3105 27.0367 72.3611C26.9189 72.4117 26.7927 72.4376 26.6652 72.4374Z" stroke="black" stroke-width="0.980065" stroke-linecap="round" stroke-linejoin="round"/>
<path d="M12.165 25.5518H21.8736" stroke="black" stroke-width="0.980065" stroke-linecap="round" stroke-linejoin="round"/>
<path d="M23.5908 17.5691H17.0186" stroke="black" stroke-width="0.980065" stroke-linecap="round" stroke-linejoin="round"/>
<path d="M9.42822 17.2606C9.42822 18.0209 9.71872 18.7501 10.2358 19.2878C10.7529 19.8254 11.4542 20.1274 12.1855 20.1274C12.9168 20.1274 13.6181 19.8254 14.1352 19.2878C14.6522 18.7501 14.9427 18.0209 14.9427 17.2606C14.9427 16.5003 14.6522 15.7711 14.1352 15.2335C13.6181 14.6958 12.9168 14.3938 12.1855 14.3938C11.4542 14.3938 10.7529 14.6958 10.2358 15.2335C9.71872 15.7711 9.42822 16.5003 9.42822 17.2606Z" stroke="black" stroke-width="0.980065" stroke-linecap="round" stroke-linejoin="round"/>
<path d="M38.7797 147.103H20.3615C19.8504 147.103 19.3444 146.998 18.8722 146.795C18.4001 146.592 17.9711 146.294 17.6097 145.918C17.2484 145.542 16.9617 145.096 16.7662 144.605C16.5707 144.114 16.4701 143.588 16.4702 143.057V100.425C16.4701 99.8937 16.5707 99.3676 16.7662 98.8767C16.9618 98.3858 17.2484 97.9398 17.6098 97.5642C17.9711 97.1885 18.4001 96.8906 18.8723 96.6874C19.3445 96.4842 19.8505 96.3797 20.3615 96.3799H38.7797C39.8115 96.3801 40.8011 96.8063 41.5308 97.5648C42.2605 98.3234 42.6706 99.3522 42.671 100.425V143.057C42.6706 144.13 42.2605 145.159 41.5308 145.917C40.8011 146.676 39.8116 147.102 38.7797 147.103Z" stroke="black" stroke-width="0.980065" stroke-linecap="round" stroke-linejoin="round"/>
<path d="M38.7622 144.744H20.3727C20.1161 144.744 19.8702 144.638 19.6887 144.449C19.5073 144.261 19.4052 144.005 19.4048 143.738V100.41C19.4048 100.143 19.5068 99.8872 19.6883 99.6984C19.8698 99.5097 20.116 99.4037 20.3727 99.4037H38.7622C38.8893 99.4037 39.0151 99.4297 39.1325 99.4803C39.2499 99.5309 39.3566 99.605 39.4464 99.6985C39.5362 99.792 39.6074 99.9029 39.656 100.025C39.7045 100.147 39.7295 100.278 39.7294 100.41V143.738C39.7292 144.005 39.6273 144.261 39.4459 144.449C39.2646 144.638 39.0187 144.744 38.7622 144.744Z" stroke="black" stroke-width="0.980065" stroke-linecap="round" stroke-linejoin="round"/>
<path d="M24.2578 97.8612H33.9671" stroke="black" stroke-width="0.980065" stroke-linecap="round" stroke-linejoin="round"/>
<path d="M35.6868 89.8817H29.1138" stroke="black" stroke-width="0.980065" stroke-linecap="round" stroke-linejoin="round"/>
<path d="M27.0354 89.5702C27.0356 90.1369 26.874 90.6911 26.5713 91.1624C26.2685 91.6337 25.8381 92.0011 25.3344 92.218C24.8308 92.4349 24.2766 92.4917 23.742 92.3811C23.2073 92.2705 22.7162 91.9975 22.3308 91.5967C21.9454 91.1959 21.683 90.6852 21.5767 90.1292C21.4705 89.5733 21.5253 88.9971 21.7341 88.4735C21.9428 87.95 22.2963 87.5025 22.7497 87.1879C23.2031 86.8732 23.7361 86.7054 24.2812 86.7057C25.0117 86.7059 25.7123 87.0078 26.2288 87.5449C26.7453 88.0821 27.0354 88.8106 27.0354 89.5702Z" stroke="black" stroke-width="0.980065" stroke-linecap="round" stroke-linejoin="round"/>
<path d="M79.8972 65.3583H61.482C60.9711 65.3584 60.4652 65.2538 59.9932 65.0505C59.5212 64.8471 59.0924 64.5491 58.7313 64.1733C58.3702 63.7975 58.0838 63.3515 57.8887 62.8606C57.6935 62.3697 57.5933 61.8436 57.5938 61.3124V18.6869C57.5934 18.1557 57.6936 17.6297 57.8889 17.1388C58.0841 16.648 58.3704 16.2019 58.7315 15.8262C59.0926 15.4505 59.5214 15.1524 59.9933 14.949C60.4653 14.7457 60.9711 14.641 61.482 14.641H79.8972C80.4083 14.6406 80.9145 14.7449 81.3868 14.9481C81.8591 15.1513 82.2882 15.4493 82.6496 15.8251C83.0111 16.2009 83.2977 16.647 83.4931 17.1381C83.6885 17.6292 83.7889 18.1555 83.7885 18.6869V61.3124C83.789 61.8438 83.6887 62.3702 83.4933 62.8613C83.2979 63.3524 83.0113 63.7986 82.6499 64.1744C82.2884 64.5502 81.8593 64.8482 81.3869 65.0514C80.9146 65.2545 80.4084 65.3588 79.8972 65.3583Z" stroke="black" stroke-width="0.980065" stroke-linecap="round" stroke-linejoin="round"/>
<path d="M79.8865 63.0041H61.4969C61.2404 63.0033 60.9947 62.8968 60.8134 62.7081C60.6322 62.5194 60.5302 62.2637 60.5298 61.9969V18.6649C60.53 18.3982 60.6319 18.1425 60.8132 17.9538C60.9945 17.7652 61.2404 17.659 61.4969 17.6586H79.8865C80.1431 17.6588 80.3892 17.7649 80.5707 17.9536C80.7521 18.1422 80.8542 18.3981 80.8544 18.6649V61.9969C80.854 62.2638 80.7519 62.5196 80.5705 62.7084C80.3891 62.8971 80.1431 63.0035 79.8865 63.0041Z" stroke="black" stroke-width="0.980065" stroke-linecap="round" stroke-linejoin="round"/>
<path d="M65.3828 16.1207H75.0914" stroke="black" stroke-width="0.980065" stroke-linecap="round" stroke-linejoin="round"/>
<path d="M76.8113 8.13806H70.2383" stroke="black" stroke-width="0.980065" stroke-linecap="round" stroke-linejoin="round"/>
<path d="M68.1605 7.83191C68.1603 8.39869 67.9985 8.9527 67.6956 9.4239C67.3927 9.89509 66.9621 10.2623 66.4585 10.4791C65.9548 10.696 65.4007 10.7527 64.866 10.642C64.3314 10.5314 63.8403 10.2585 63.4548 9.85771C63.0694 9.45694 62.8068 8.94633 62.7005 8.39045C62.5941 7.83457 62.6486 7.25837 62.8571 6.7347C63.0657 6.21103 63.4189 5.76341 63.8721 5.44843C64.3253 5.13345 64.8581 4.96524 65.4032 4.96509C65.7653 4.96498 66.1239 5.03907 66.4585 5.1831C66.7931 5.32714 67.0971 5.5383 67.3531 5.80453C67.6092 6.07076 67.8123 6.38684 67.9508 6.7347C68.0893 7.08257 68.1606 7.4554 68.1605 7.83191Z" stroke="black" stroke-width="0.980065" stroke-linecap="round" stroke-linejoin="round"/>
<path d="M132.512 74.7925H114.097C113.065 74.7923 112.075 74.3659 111.346 73.6072C110.616 72.8485 110.206 71.8196 110.206 70.7466V28.1156C110.206 27.0427 110.616 26.0138 111.346 25.2552C112.075 24.4965 113.065 24.0701 114.097 24.0697H132.512C133.023 24.0696 133.529 24.1742 134.001 24.3775C134.473 24.5808 134.902 24.8788 135.264 25.2545C135.625 25.6302 135.912 26.0763 136.107 26.5672C136.303 27.0581 136.403 27.5843 136.403 28.1156V70.7466C136.404 71.278 136.303 71.8042 136.108 72.2951C135.912 72.7861 135.625 73.2322 135.264 73.6079C134.903 73.9837 134.474 74.2817 134.001 74.4849C133.529 74.6882 133.023 74.7927 132.512 74.7925Z" stroke="black" stroke-width="0.980065" stroke-linecap="round" stroke-linejoin="round"/>
<path d="M132.501 72.4374H114.111C113.855 72.437 113.609 72.3308 113.427 72.1421C113.246 71.9535 113.144 71.6977 113.144 71.431V28.099C113.144 27.8324 113.246 27.5768 113.428 27.3881C113.609 27.1995 113.855 27.0933 114.111 27.0927H132.501C132.757 27.0933 133.003 27.1995 133.184 27.3881C133.366 27.5767 133.468 27.8323 133.469 28.099V71.431C133.468 71.6978 133.366 71.9535 133.185 72.1422C133.003 72.3308 132.757 72.437 132.501 72.4374Z" stroke="black" stroke-width="0.980065" stroke-linecap="round" stroke-linejoin="round"/>
<path d="M117.998 25.5518H127.706" stroke="black" stroke-width="0.980065" stroke-linecap="round" stroke-linejoin="round"/>
<path d="M129.423 17.5691H122.85" stroke="black" stroke-width="0.980065" stroke-linecap="round" stroke-linejoin="round"/>
<path d="M115.261 17.2606C115.261 18.0209 115.551 18.7501 116.068 19.2878C116.585 19.8254 117.287 20.1274 118.018 20.1274C118.749 20.1274 119.451 19.8254 119.968 19.2878C120.485 18.7501 120.775 18.0209 120.775 17.2606C120.775 16.5003 120.485 15.7711 119.968 15.2335C119.451 14.6958 118.749 14.3938 118.018 14.3938C117.287 14.3938 116.585 14.6958 116.068 15.2335C115.551 15.7711 115.261 16.5003 115.261 17.2606Z" stroke="black" stroke-width="0.980065" stroke-linecap="round" stroke-linejoin="round"/>
<path d="M48.5442 116.73C48.5439 117.017 48.462 117.296 48.3089 117.534C48.1558 117.772 47.9383 117.957 47.6839 118.067C47.4295 118.176 47.1497 118.204 46.8797 118.148C46.6098 118.092 46.3619 117.955 46.1673 117.752C45.9727 117.55 45.8402 117.292 45.7865 117.011C45.7328 116.73 45.7604 116.439 45.8657 116.175C45.971 115.911 46.1493 115.685 46.3781 115.525C46.6069 115.366 46.876 115.281 47.1512 115.281C47.3343 115.281 47.5155 115.319 47.6846 115.391C47.8537 115.464 48.0073 115.571 48.1367 115.705C48.2661 115.84 48.3687 116 48.4386 116.176C48.5085 116.352 48.5444 116.54 48.5442 116.73Z" stroke="black" stroke-width="0.980065" stroke-linecap="round" stroke-linejoin="round"/>
<path d="M48.5442 129.304C48.5447 129.59 48.4634 129.87 48.3107 130.108C48.1581 130.347 47.9408 130.533 47.6865 130.643C47.4322 130.753 47.1522 130.782 46.882 130.726C46.6119 130.671 46.3636 130.533 46.1686 130.331C45.9736 130.128 45.8408 129.871 45.7868 129.59C45.7328 129.309 45.7601 129.018 45.8653 128.753C45.9705 128.489 46.1488 128.262 46.3777 128.103C46.6066 127.944 46.8758 127.859 47.1512 127.859C47.334 127.858 47.515 127.895 47.684 127.968C47.8529 128.04 48.0064 128.147 48.1358 128.281C48.2652 128.415 48.3678 128.575 48.4379 128.75C48.508 128.926 48.5441 129.114 48.5442 129.304Z" stroke="black" stroke-width="0.980065" stroke-linecap="round" stroke-linejoin="round"/>
<path d="M48.6899 129.304H86.002V122.073" stroke="black" stroke-width="0.980065" stroke-linecap="round" stroke-linejoin="round"/>
<path d="M33.6665 31.1614C33.6665 31.3513 33.7025 31.5393 33.7724 31.7148C33.8423 31.8902 33.9447 32.0496 34.0738 32.1839C34.203 32.3182 34.3563 32.4247 34.525 32.4973C34.6937 32.57 34.8746 32.6074 35.0572 32.6074C35.2398 32.6074 35.4207 32.57 35.5894 32.4973C35.7581 32.4247 35.9115 32.3182 36.0406 32.1839C36.1697 32.0496 36.2722 31.8902 36.3421 31.7148C36.412 31.5393 36.4479 31.3513 36.4479 31.1614C36.4479 30.9715 36.412 30.7835 36.3421 30.6081C36.2722 30.4326 36.1697 30.2732 36.0406 30.139C35.9115 30.0047 35.7581 29.8982 35.5894 29.8255C35.4207 29.7529 35.2398 29.7155 35.0572 29.7155C34.8746 29.7155 34.6937 29.7529 34.525 29.8255C34.3563 29.8982 34.203 30.0047 34.0738 30.139C33.9447 30.2732 33.8423 30.4326 33.7724 30.6081C33.7025 30.7835 33.6665 30.9715 33.6665 31.1614Z" stroke="black" stroke-width="0.980065" stroke-linecap="round" stroke-linejoin="round"/>
<path d="M36.4473 31.1614H47.1509V77.226H77.0617" stroke="black" stroke-width="0.980065" stroke-linecap="round" stroke-linejoin="round"/>
<path d="M50.855 97.7011H48.5439V82.1416H71.9059H71.9089" stroke="black" stroke-width="0.980065" stroke-linecap="round" stroke-linejoin="round"/>
<path d="M107.938 30.4855C107.938 30.7715 107.856 31.0511 107.704 31.289C107.551 31.5269 107.334 31.7124 107.08 31.8219C106.826 31.9315 106.546 31.9602 106.276 31.9045C106.006 31.8488 105.758 31.7112 105.564 31.509C105.369 31.3068 105.237 31.0491 105.183 30.7686C105.129 30.4881 105.157 30.1973 105.262 29.9331C105.367 29.6688 105.546 29.4429 105.774 29.284C106.003 29.1251 106.272 29.0403 106.547 29.0403C106.916 29.0405 107.269 29.1928 107.53 29.4638C107.791 29.7347 107.937 30.1022 107.938 30.4855Z" stroke="black" stroke-width="0.980065" stroke-linecap="round" stroke-linejoin="round"/>
<path d="M87.0156 23.5696C87.0156 23.9531 87.1621 24.3209 87.423 24.5921C87.6838 24.8633 88.0375 25.0156 88.4063 25.0156C88.7752 25.0156 89.1289 24.8633 89.3897 24.5921C89.6505 24.3209 89.797 23.9531 89.797 23.5696C89.797 23.1861 89.6505 22.8183 89.3897 22.5472C89.1289 22.276 88.7752 22.1237 88.4063 22.1237C88.0375 22.1237 87.6838 22.276 87.423 22.5472C87.1621 22.8183 87.0156 23.1861 87.0156 23.5696Z" stroke="black" stroke-width="0.980065" stroke-linecap="round" stroke-linejoin="round"/>
<path d="M105.157 43.0628C105.157 43.4463 105.304 43.8141 105.565 44.0852C105.825 44.3564 106.179 44.5088 106.548 44.5088C106.917 44.5088 107.271 44.3564 107.531 44.0852C107.792 43.8141 107.939 43.4463 107.939 43.0628C107.939 42.6793 107.792 42.3115 107.531 42.0403C107.271 41.7692 106.917 41.6168 106.548 41.6168C106.179 41.6168 105.825 41.7692 105.565 42.0403C105.304 42.3115 105.157 42.6793 105.157 43.0628Z" stroke="black" stroke-width="0.980065" stroke-linecap="round" stroke-linejoin="round"/>
<path d="M105.157 49.3514C105.157 49.7349 105.304 50.1026 105.565 50.3738C105.825 50.645 106.179 50.7973 106.548 50.7973C106.917 50.7973 107.271 50.645 107.531 50.3738C107.792 50.1026 107.939 49.7349 107.939 49.3514C107.939 48.9679 107.792 48.6001 107.531 48.3289C107.271 48.0577 106.917 47.9054 106.548 47.9054C106.179 47.9054 105.825 48.0577 105.565 48.3289C105.304 48.6001 105.157 48.9679 105.157 49.3514Z" stroke="black" stroke-width="0.980065" stroke-linecap="round" stroke-linejoin="round"/>
<path d="M107.938 55.6385C107.937 55.9244 107.855 56.2037 107.702 56.4412C107.549 56.6787 107.332 56.8637 107.078 56.9727C106.823 57.0818 106.544 57.1101 106.274 57.0541C106.005 56.998 105.757 56.8601 105.563 56.6578C105.369 56.4555 105.236 56.1978 105.183 55.9174C105.129 55.637 105.157 55.3463 105.262 55.0823C105.368 54.8182 105.546 54.5925 105.775 54.4337C106.003 54.2749 106.272 54.1902 106.547 54.1902C106.73 54.1902 106.911 54.2277 107.08 54.3005C107.249 54.3733 107.402 54.48 107.531 54.6145C107.66 54.749 107.763 54.9087 107.832 55.0844C107.902 55.2601 107.938 55.4484 107.938 55.6385Z" stroke="black" stroke-width="0.980065" stroke-linecap="round" stroke-linejoin="round"/>
<path d="M88.4062 25.0156V43.0628H94.9642H105.157" stroke="black" stroke-width="0.980065" stroke-linecap="round" stroke-linejoin="round"/>
<path d="M105.158 49.3514H100.512V74.5806" stroke="black" stroke-width="0.980065" stroke-linecap="round" stroke-linejoin="round"/>
<path d="M105.158 55.6393H103.333V74.5805" stroke="black" stroke-width="0.980065" stroke-linecap="round" stroke-linejoin="round"/>
<path d="M105.158 30.4855H94.9648V43.0627V72.1195" stroke="black" stroke-width="0.980065" stroke-linecap="round" stroke-linejoin="round"/>
<path d="M9.75146 40.1323C9.75146 41.1866 9.95118 42.2306 10.3392 43.2046C10.7273 44.1786 11.296 45.0636 12.013 45.8091C12.73 46.5546 13.5812 47.146 14.518 47.5494C15.4548 47.9529 16.4589 48.1605 17.4728 48.1605C18.4868 48.1605 19.4909 47.9529 20.4277 47.5494C21.3645 47.146 22.2157 46.5546 22.9327 45.8091C23.6497 45.0636 24.2184 44.1786 24.6065 43.2046C24.9945 42.2306 25.1942 41.1866 25.1942 40.1323C25.1942 39.078 24.9945 38.0341 24.6065 37.0601C24.2184 36.086 23.6497 35.201 22.9327 34.4555C22.2157 33.71 21.3645 33.1187 20.4277 32.7152C19.4909 32.3118 18.4868 32.1041 17.4728 32.1041C16.4589 32.1041 15.4548 32.3118 14.518 32.7152C13.5812 33.1187 12.73 33.71 12.013 34.4555C11.296 35.201 10.7273 36.086 10.3392 37.0601C9.95118 38.0341 9.75146 39.078 9.75146 40.1323Z" stroke="black" stroke-width="0.980065" stroke-linecap="round" stroke-linejoin="round"/>
<path d="M9.95508 52.8752H24.0834" stroke="black" stroke-width="0.980065" stroke-linecap="round" stroke-linejoin="round"/>
<path d="M9.95508 57.5916H24.0834" stroke="black" stroke-width="0.980065" stroke-linecap="round" stroke-linejoin="round"/>
<path d="M9.95508 62.307H24.0834" stroke="black" stroke-width="0.980065" stroke-linecap="round" stroke-linejoin="round"/>
<path d="M22.1567 103.286H36.0721V109.82H22.1567V103.286Z" stroke="black" stroke-width="0.980065" stroke-linecap="round" stroke-linejoin="round"/>
<path d="M22.1567 112.717H36.0721V119.251H22.1567V112.717Z" stroke="black" stroke-width="0.980065" stroke-linecap="round" stroke-linejoin="round"/>
<path d="M22.1567 122.148H36.0721V140.196H22.1567V122.148Z" stroke="black" stroke-width="0.980065" stroke-linecap="round" stroke-linejoin="round"/>
<path d="M127.367 35.3854C127.368 36.2207 127.13 37.0374 126.684 37.7321C126.238 38.4268 125.603 38.9684 124.861 39.2883C124.119 39.6082 123.302 39.6921 122.514 39.5294C121.726 39.3667 121.002 38.9647 120.434 38.3742C119.866 37.7837 119.479 37.0312 119.322 36.212C119.165 35.3927 119.245 34.5435 119.552 33.7717C119.86 32.9999 120.38 32.3402 121.048 31.8759C121.716 31.4117 122.501 31.1639 123.305 31.1637C124.382 31.1635 125.415 31.6081 126.177 32.3998C126.939 33.1915 127.367 34.2655 127.367 35.3854Z" stroke="black" stroke-width="0.980065" stroke-linecap="round" stroke-linejoin="round"/>
<path d="M117.583 43.8806H129.029" stroke="black" stroke-width="0.980065" stroke-linecap="round" stroke-linejoin="round"/>
<path d="M117.583 47.0238H129.029" stroke="black" stroke-width="0.980065" stroke-linecap="round" stroke-linejoin="round"/>
<path d="M127.367 55.1911C127.367 56.0262 127.129 56.8426 126.682 57.5369C126.236 58.2312 125.601 58.7722 124.859 59.0917C124.117 59.4111 123.3 59.4946 122.512 59.3315C121.725 59.1684 121.001 58.7662 120.433 58.1755C119.865 57.5849 119.478 56.8325 119.322 56.0133C119.165 55.1942 119.245 54.3451 119.553 53.5735C119.86 52.8019 120.381 52.1423 121.048 51.6782C121.716 51.2141 122.502 50.9663 123.305 50.9662C123.838 50.9661 124.367 51.0753 124.86 51.2876C125.353 51.4999 125.801 51.8111 126.178 52.2034C126.555 52.5958 126.855 53.0616 127.059 53.5742C127.263 54.0868 127.368 54.6362 127.367 55.1911Z" stroke="black" stroke-width="0.980065" stroke-linecap="round" stroke-linejoin="round"/>
<path d="M117.583 63.6854H129.029" stroke="black" stroke-width="0.980065" stroke-linecap="round" stroke-linejoin="round"/>
<path d="M117.583 66.8318H129.029" stroke="black" stroke-width="0.980065" stroke-linecap="round" stroke-linejoin="round"/>
<path d="M48.5439 116.73H77.8719" stroke="black" stroke-width="0.980065" stroke-linecap="round" stroke-linejoin="round"/>
</svg>
