<svg width="600" height="600" viewBox="0 0 600 600" fill="none" xmlns="http://www.w3.org/2000/svg">
<path d="M180.215 304.106H210.551L355.381 482.208H302.537L180.215 304.106Z" fill="#FFE790"/>
<path d="M238.93 304.106H216.423L363.209 482.208H418.01L240.922 306.087C240.907 305.573 240.897 305.057 240.891 304.54H239.366L238.93 304.106Z" fill="#FFE790"/>
<path d="M188.044 479.174V481.224L188.445 481.226L188.044 479.174Z" fill="#FFE790"/>
<path d="M338.002 384.967L437.479 482.19C441.644 482.202 444.688 482.208 446.389 482.208C454.132 482.208 457.824 459.226 459.378 429.793C441.866 420.487 428.774 383.167 428.774 338.544C428.774 326.547 429.72 315.079 431.444 304.54H405.284C404.871 344.68 376.005 377.963 338.002 384.967Z" fill="#FFE790"/>
<path d="M177.279 305.085L173 304.54L210.551 482.208H294.709L177.279 305.085Z" fill="#FFE790"/>
<path d="M407.56 209.493C407.56 260.023 371.634 329.483 327.317 329.483C282.999 329.483 247.073 260.023 247.073 209.493C247.073 158.963 282.999 118 327.317 118C371.634 118 407.56 158.963 407.56 209.493Z" fill="#FFE790"/>
<path d="M334.167 362.338C334.167 366.662 330.662 370.167 326.338 370.167C322.015 370.167 318.51 366.662 318.51 362.338C318.51 358.014 322.015 354.509 326.338 354.509C330.662 354.509 334.167 358.014 334.167 362.338Z" fill="#FFE790"/>
<path d="M255.5 257.604C255.5 261.194 252.59 264.104 249 264.104C245.41 264.104 242.5 261.194 242.5 257.604C242.5 254.014 245.41 251.104 249 251.104C252.59 251.104 255.5 254.014 255.5 257.604Z" fill="#FFE790"/>
<path d="M412.5 257.604C412.5 261.194 409.59 264.104 406 264.104C402.41 264.104 399.5 261.194 399.5 257.604C399.5 254.014 402.41 251.104 406 251.104C409.59 251.104 412.5 254.014 412.5 257.604Z" fill="#FFE790"/>
<path d="M266.645 306.866C266.645 312.392 268.189 317.864 271.189 322.969C274.189 328.074 278.586 332.713 284.129 336.62C289.672 340.528 296.252 343.627 303.494 345.742C310.737 347.857 318.499 348.945 326.338 348.945C334.177 348.945 341.939 347.857 349.182 345.742C356.424 343.627 363.005 340.528 368.548 336.62C374.091 332.713 378.488 328.074 381.488 322.969C384.487 317.864 386.031 312.392 386.031 306.866H385.435C385.435 312.337 383.906 317.754 380.936 322.808C377.966 327.862 373.613 332.454 368.126 336.323C362.638 340.191 356.123 343.26 348.953 345.353C341.783 347.447 334.099 348.524 326.338 348.524C318.577 348.524 310.893 347.447 303.723 345.353C296.553 343.26 290.038 340.191 284.551 336.323C279.063 332.454 274.71 327.862 271.74 322.808C268.77 317.754 267.242 312.337 267.242 306.866H266.645Z" fill="#FFE790"/>
<path d="M347.867 282.831C332.176 288.094 322.695 288.036 306.767 282.831L347.867 282.831Z" fill="#FFE790"/>
<path d="M306.766 282.932C312.638 278.928 320.964 280.955 327.317 280.975C333.61 280.994 341.995 278.928 347.867 282.932L306.766 282.932Z" fill="#FFE790"/>
<path d="M209.5 305C209.5 305 229 156 321 156C413 156 420 305 420 305M315.5 156.026V117.974M200.051 304.002H169.715L292.037 482.104H344.881L200.051 304.002ZM205.923 304.002H228.43L228.866 304.436H230.391C230.397 304.953 230.407 305.469 230.422 305.983L407.51 482.104H352.709L205.923 304.002ZM177.544 481.12V479.07L177.945 481.121L177.544 481.12ZM426.979 482.086L327.502 384.863C365.505 377.859 394.371 344.576 394.784 304.436H420.944C419.22 314.975 418.274 326.443 418.274 338.44C418.274 383.063 431.366 420.383 448.878 429.689C447.324 459.122 443.632 482.104 435.889 482.104C434.188 482.104 431.144 482.098 426.979 482.086ZM162.5 304.436L166.779 304.981L284.209 482.104H200.051L162.5 304.436ZM397.06 209.389C397.06 259.919 361.134 329.379 316.817 329.379C272.499 329.379 236.573 259.919 236.573 209.389C236.573 158.859 272.499 117.896 316.817 117.896C361.134 117.896 397.06 158.859 397.06 209.389ZM323.667 362.234C323.667 366.558 320.162 370.063 315.838 370.063C311.515 370.063 308.01 366.558 308.01 362.234C308.01 357.91 311.515 354.405 315.838 354.405C320.162 354.405 323.667 357.91 323.667 362.234ZM245 257.5C245 261.09 242.09 264 238.5 264C234.91 264 232 261.09 232 257.5C232 253.91 234.91 251 238.5 251C242.09 251 245 253.91 245 257.5ZM402 257.5C402 261.09 399.09 264 395.5 264C391.91 264 389 261.09 389 257.5C389 253.91 391.91 251 395.5 251C399.09 251 402 253.91 402 257.5ZM256.145 306.762C256.145 312.288 257.689 317.76 260.689 322.865C263.689 327.97 268.086 332.609 273.629 336.516C279.172 340.424 285.752 343.523 292.994 345.638C300.237 347.752 307.999 348.841 315.838 348.841C323.677 348.841 331.439 347.752 338.682 345.638C345.924 343.523 352.505 340.424 358.048 336.516C363.591 332.609 367.988 327.97 370.988 322.865C373.987 317.76 375.531 312.288 375.531 306.762H374.935C374.935 312.233 373.406 317.65 370.436 322.704C367.466 327.758 363.113 332.35 357.626 336.219C352.138 340.087 345.623 343.156 338.453 345.249C331.283 347.343 323.599 348.42 315.838 348.42C308.077 348.42 300.393 347.343 293.223 345.249C286.053 343.156 279.538 340.087 274.051 336.219C268.563 332.35 264.21 327.758 261.24 322.704C258.27 317.65 256.742 312.233 256.742 306.762H256.145ZM337.367 282.727C321.676 287.99 312.195 287.932 296.267 282.727L337.367 282.727ZM296.266 282.827L337.367 282.828C331.495 278.824 323.11 280.89 316.817 280.871C310.464 280.851 302.138 278.824 296.266 282.827Z" stroke="#1E1E1E" stroke-width="5"/>
</svg>
