<svg width="700" height="550" viewBox="0 0 700 550" fill="none" xmlns="http://www.w3.org/2000/svg">
<path d="M288.285 368.787C288.285 368.787 288.711 368.825 289.523 368.883C288.836 369.329 288.459 369.241 288.285 368.787Z" fill="black"/>
<path d="M289.436 359.874L288.285 368.787C287.781 367.529 288.865 363.416 289.436 359.874Z" fill="black"/>
<path d="M440.273 282.965L434.583 303.124C433.906 305.508 433.846 308.026 434.409 310.44C435.562 315.898 436.286 321.437 436.576 327.008C437.622 342.222 436.576 346.751 432.976 345.938C429.376 345.125 430.305 335.37 430.305 335.37C429.312 339.258 427.385 342.846 424.692 345.822C424.198 346.369 423.582 346.793 422.895 347.06C422.208 347.327 421.468 347.43 420.734 347.361C417.143 346.954 418.909 343.566 418.977 343.208C418.084 344.786 416.723 346.047 415.083 346.819C414.363 347.251 413.542 347.489 412.703 347.51C411.863 347.53 411.032 347.332 410.292 346.935C408.075 345.667 409.517 343.218 409.624 343.044C408.754 343.587 407.749 343.874 406.724 343.872C405.699 343.871 404.695 343.58 403.827 343.035C400.653 340.112 403.488 338.138 405.472 337.218C407.012 336.545 408.408 335.582 409.585 334.383C414.008 329.737 412.876 325.431 412.711 323.592C412.685 323.111 412.491 322.654 412.161 322.302C411.832 321.949 411.39 321.724 410.911 321.666C410.568 321.624 410.22 321.662 409.894 321.777C409.568 321.891 409.273 322.08 409.031 322.327C408.79 322.574 408.609 322.873 408.502 323.202C408.395 323.53 408.365 323.879 408.414 324.221C408.445 325.174 408.227 326.118 407.782 326.961C407.338 327.804 406.682 328.518 405.879 329.031C404.755 329.771 403.416 330.112 402.075 329.999C398.078 329.679 400.566 325.179 400.566 325.179C400.566 325.179 403.769 319.905 402.898 316.44C402.017 312.937 407.117 307.633 410.369 304.237C412.689 301.813 414.107 298.667 414.385 295.323L416.543 269.861L377.794 272.349C345.877 301.74 323.395 273.239 323.395 273.239C318.305 280.807 311.734 282.955 311.734 282.955C301.94 290.281 277.233 275.571 277.233 275.571C277.233 275.571 259.019 282.017 259.087 300.211C259.16 304.352 260.15 308.426 261.986 312.139C263.821 315.852 266.457 319.113 269.703 321.685C276.691 327.347 287.869 335.021 297.101 335.021L321.276 331.257C325.292 330.589 329.328 329.97 333.325 329.215C337.384 328.688 341.13 326.981 344.967 325.75C345.712 325.518 346.467 325.286 347.212 325.053C344.019 322.402 340.854 319.721 337.573 317.195C334.186 314.505 330.702 311.94 327.16 309.462C323.637 306.956 320.008 304.614 316.321 302.34C314.492 301.198 312.624 300.114 310.727 299.059C308.85 297.985 306.94 296.965 304.998 296.001C309.03 297.618 312.94 299.523 316.699 301.701C320.483 303.849 324.131 306.221 327.721 308.669C329.473 309.956 331.254 311.195 332.957 312.54L335.531 314.534C336.383 315.221 337.215 315.918 338.048 316.614C339.732 317.989 341.319 319.469 342.954 320.892C344.416 322.257 345.848 323.65 347.261 325.034C350.396 324.066 353.542 323.147 356.697 322.247C360.626 321.124 364.545 320.002 368.494 318.985C376.391 316.924 384.297 314.853 392.33 313.421C388.352 314.321 384.404 315.347 380.475 316.431C376.536 317.485 372.607 318.576 368.687 319.702C360.858 321.947 353.009 324.173 345.257 326.67C341.312 327.918 337.598 329.578 333.48 330.076C329.454 330.792 325.428 331.441 321.383 331.992C313.302 333.125 305.211 334.16 297.101 335.021C297.101 335.021 309.179 343.151 297.101 359.874C293.104 365.409 290.791 368.061 289.524 368.884C298.63 369.561 356.609 373.21 418.498 361.442C425.492 360.181 432.024 357.077 437.418 352.451C448.432 342.793 458.806 322.702 440.273 282.965ZM296.491 368.051C296.115 368.038 295.759 367.879 295.498 367.608C295.236 367.338 295.09 366.976 295.09 366.6C295.09 366.223 295.236 365.862 295.498 365.591C295.759 365.32 296.115 365.161 296.491 365.148C296.867 365.161 297.224 365.32 297.485 365.591C297.746 365.862 297.892 366.223 297.892 366.6C297.892 366.976 297.746 367.338 297.485 367.608C297.224 367.879 296.867 368.038 296.491 368.051ZM301.601 362.477C301.225 362.464 300.869 362.305 300.608 362.034C300.346 361.763 300.2 361.402 300.2 361.025C300.2 360.649 300.346 360.288 300.608 360.017C300.869 359.746 301.225 359.587 301.601 359.574C301.977 359.587 302.333 359.746 302.595 360.017C302.856 360.288 303.002 360.649 303.002 361.025C303.002 361.402 302.856 361.763 302.595 362.034C302.333 362.305 301.977 362.464 301.601 362.477ZM303.692 335.883C304.068 335.895 304.425 336.054 304.687 336.324C304.95 336.595 305.096 336.957 305.096 337.334C305.096 337.711 304.95 338.073 304.687 338.344C304.425 338.615 304.068 338.774 303.692 338.786C303.315 338.774 302.958 338.615 302.696 338.344C302.434 338.073 302.287 337.711 302.287 337.334C302.287 336.957 302.434 336.595 302.696 336.324C302.958 336.054 303.315 335.895 303.692 335.883ZM305.782 354.115C305.406 354.102 305.05 353.943 304.789 353.672C304.527 353.402 304.381 353.04 304.381 352.664C304.381 352.288 304.527 351.926 304.789 351.655C305.05 351.384 305.406 351.226 305.782 351.212C306.158 351.226 306.514 351.384 306.775 351.655C307.037 351.926 307.183 352.288 307.183 352.664C307.183 353.04 307.037 353.402 306.775 353.672C306.514 353.943 306.158 354.102 305.782 354.115ZM306.711 345.754C306.335 345.741 305.979 345.582 305.717 345.311C305.456 345.04 305.31 344.679 305.31 344.302C305.31 343.926 305.456 343.564 305.717 343.294C305.979 343.023 306.335 342.864 306.711 342.851C307.087 342.864 307.443 343.023 307.705 343.294C307.966 343.564 308.112 343.926 308.112 344.302C308.112 344.679 307.966 345.04 307.705 345.311C307.443 345.582 307.087 345.741 306.711 345.754Z" fill="black"/>
<path d="M409.324 243.848C410.776 250.428 412.224 257.009 413.669 263.59C394.343 267.074 384.213 267.432 383.281 264.664C383.01 263.89 383.484 262.855 384.684 261.577C392.366 248.081 398.11 233.57 401.746 218.473C401.911 219.208 402.085 219.934 402.249 220.66L403.091 224.018C403.662 226.254 404.301 228.479 404.95 230.696C405.608 232.902 406.275 235.118 407.011 237.305C407.737 239.502 408.482 241.69 409.324 243.848Z" fill="black"/>
<path d="M422.757 192.875C413.427 182.878 411.134 182.491 404.737 181.658C405.975 194.297 404.475 206.849 401.824 218.143C402.124 218.937 402.404 219.73 402.704 220.524L403.808 223.805C404.543 225.992 405.211 228.208 405.879 230.424C406.517 232.64 407.156 234.857 407.727 237.102C408.308 239.337 408.869 241.573 409.324 243.847L412.305 250.244L442.267 239.25C442.267 239.25 435.531 206.578 422.757 192.875ZM414.018 245.88C413.641 245.866 413.285 245.707 413.024 245.437C412.763 245.166 412.617 244.804 412.617 244.428C412.617 244.052 412.763 243.69 413.024 243.419C413.285 243.148 413.641 242.99 414.018 242.976C414.394 242.99 414.75 243.148 415.011 243.419C415.272 243.69 415.418 244.052 415.418 244.428C415.418 244.804 415.272 245.166 415.011 245.437C414.75 245.707 414.394 245.866 414.018 245.88ZM416.137 188.326C415.537 188.258 414.937 188.239 414.347 188.171C413.182 188.099 412.012 188.164 410.863 188.365C409.732 188.551 408.657 188.987 407.717 189.642C406.752 190.326 405.974 191.241 405.453 192.304C405.651 191.044 406.285 189.893 407.243 189.052C408.215 188.199 409.404 187.633 410.679 187.416C411.301 187.304 411.933 187.249 412.566 187.252C413.191 187.273 413.815 187.328 414.434 187.416C415.034 187.552 415.643 187.678 416.234 187.862C416.805 188.084 417.385 188.287 417.947 188.539C417.327 188.491 416.737 188.394 416.137 188.326ZM420.289 243.789C419.913 243.776 419.556 243.617 419.295 243.346C419.034 243.075 418.888 242.714 418.888 242.337C418.888 241.961 419.034 241.6 419.295 241.329C419.556 241.058 419.913 240.899 420.289 240.886C420.665 240.899 421.021 241.058 421.282 241.329C421.543 241.6 421.689 241.961 421.689 242.337C421.689 242.714 421.543 243.075 421.282 243.346C421.021 243.617 420.665 243.776 420.289 243.789V243.789ZM426.386 241.873C426.01 241.86 425.653 241.701 425.392 241.43C425.131 241.159 424.985 240.798 424.985 240.421C424.985 240.045 425.131 239.683 425.392 239.413C425.653 239.142 426.01 238.983 426.386 238.97C426.762 238.983 427.118 239.142 427.379 239.413C427.64 239.683 427.786 240.045 427.786 240.421C427.786 240.798 427.64 241.159 427.379 241.43C427.118 241.701 426.762 241.86 426.386 241.873V241.873ZM432.657 239.434C432.281 239.421 431.925 239.262 431.663 238.991C431.402 238.72 431.256 238.359 431.256 237.983C431.256 237.606 431.402 237.245 431.663 236.974C431.925 236.703 432.281 236.544 432.657 236.531C433.033 236.544 433.389 236.703 433.65 236.974C433.911 237.245 434.057 237.606 434.057 237.983C434.057 238.359 433.911 238.72 433.65 238.991C433.389 239.262 433.033 239.421 432.657 239.434H432.657ZM438.58 237.518C438.204 237.505 437.847 237.346 437.586 237.075C437.325 236.804 437.179 236.443 437.179 236.066C437.179 235.69 437.325 235.328 437.586 235.058C437.847 234.787 438.204 234.628 438.58 234.615C438.956 234.628 439.312 234.787 439.573 235.058C439.834 235.329 439.98 235.69 439.98 236.066C439.98 236.443 439.834 236.804 439.573 237.075C439.312 237.346 438.956 237.505 438.58 237.518L438.58 237.518Z" fill="black"/>
<path d="M350.87 195.546V191.946C350.319 189.991 340.167 188.539 340.167 188.539C340.167 188.539 324.276 190.552 320.56 218.192L311.734 240.257L334.96 257.909L338.909 250.244C337.673 247.721 336.706 245.074 336.025 242.347C335.355 239.618 334.867 236.848 334.564 234.054C334.281 231.259 334.149 228.452 334.167 225.644C334.17 222.841 334.357 220.041 334.728 217.263C334.738 218.666 334.728 220.06 334.776 221.453C334.796 222.847 334.844 224.24 334.912 225.634C335.057 228.412 335.231 231.189 335.531 233.947C335.812 236.715 336.247 239.454 336.751 242.183C337.051 243.538 337.302 244.912 337.709 246.238C338.009 247.603 338.512 248.899 338.909 250.245L341.415 252.422C341.415 252.422 357.355 210.092 377.794 188.472C366.984 194.085 350.87 195.546 350.87 195.546ZM315.769 240.306C315.393 240.292 315.037 240.133 314.776 239.863C314.515 239.592 314.369 239.23 314.369 238.854C314.369 238.478 314.515 238.116 314.776 237.845C315.037 237.575 315.393 237.416 315.769 237.402C316.145 237.416 316.501 237.575 316.763 237.845C317.024 238.116 317.17 238.478 317.17 238.854C317.17 239.23 317.024 239.592 316.763 239.862C316.501 240.133 316.145 240.292 315.769 240.306L315.769 240.306ZM320.647 243.79C320.271 243.776 319.915 243.617 319.653 243.347C319.392 243.076 319.246 242.714 319.246 242.338C319.246 241.962 319.392 241.6 319.653 241.329C319.915 241.058 320.271 240.9 320.647 240.886C321.023 240.9 321.379 241.059 321.64 241.33C321.901 241.6 322.047 241.962 322.047 242.338C322.047 242.714 321.901 243.075 321.64 243.346C321.379 243.617 321.023 243.776 320.647 243.789V243.79ZM325.989 247.274C325.613 247.26 325.257 247.101 324.996 246.831C324.734 246.56 324.588 246.198 324.588 245.822C324.588 245.446 324.734 245.084 324.996 244.813C325.257 244.542 325.613 244.384 325.989 244.37C326.365 244.384 326.721 244.543 326.982 244.814C327.243 245.084 327.389 245.446 327.389 245.822C327.389 246.198 327.243 246.559 326.982 246.83C326.721 247.101 326.365 247.26 325.989 247.273L325.989 247.274ZM330.867 250.758C330.491 250.744 330.135 250.585 329.873 250.314C329.612 250.044 329.466 249.682 329.466 249.306C329.466 248.93 329.612 248.568 329.873 248.297C330.135 248.026 330.491 247.868 330.867 247.854C331.243 247.868 331.598 248.027 331.859 248.298C332.121 248.568 332.266 248.93 332.266 249.306C332.266 249.682 332.121 250.043 331.859 250.314C331.598 250.585 331.242 250.744 330.867 250.757L330.867 250.758ZM335.28 251.338C335.656 251.351 336.014 251.509 336.276 251.78C336.538 252.051 336.684 252.413 336.684 252.79C336.684 253.167 336.538 253.529 336.276 253.8C336.014 254.071 335.656 254.229 335.28 254.241C334.903 254.229 334.546 254.071 334.283 253.8C334.021 253.529 333.875 253.167 333.875 252.79C333.875 252.413 334.021 252.051 334.283 251.78C334.546 251.509 334.903 251.35 335.28 251.338L335.28 251.338Z" fill="black"/>
<path d="M329.057 196.12C329.479 190.335 329.943 184.553 330.448 178.775C330.973 172.999 331.447 167.217 332.015 161.445L332.074 161.822L331.288 159.794C331.112 159.082 330.889 158.383 330.768 157.653C330.509 156.162 330.562 154.633 330.923 153.163C331.35 151.677 332.163 150.33 333.278 149.259C333.549 148.991 333.852 148.76 334.139 148.511C334.451 148.298 334.75 148.063 335.077 147.874C335.731 147.467 336.431 147.137 337.161 146.89L336.832 147.074C339.308 144.924 342.044 143.091 344.975 141.618C347.895 140.083 351.052 139.048 354.314 138.555C355.965 138.34 357.635 138.322 359.29 138.502C360.925 138.695 362.537 139.046 364.104 139.55C367.285 140.556 370.082 142.51 372.122 145.15C374.041 147.765 375.638 150.601 376.878 153.598C378.181 156.536 379.285 159.556 380.447 162.53C381.593 165.506 382.952 168.396 384.513 171.177C385.283 172.565 386.143 173.901 387.089 175.176C387.968 176.451 389.056 177.568 390.307 178.482L390.339 178.503C390.424 178.558 390.484 178.645 390.506 178.745C390.527 178.845 390.508 178.948 390.452 179.034L390.425 179.072C388.055 181.913 385.302 184.412 382.245 186.496C379.154 188.519 375.871 190.233 372.444 191.614C369.003 192.945 365.468 194.016 361.867 194.817C358.261 195.644 354.596 196.189 350.905 196.448C350.79 196.456 350.675 196.44 350.565 196.403C350.456 196.365 350.355 196.307 350.268 196.231C350.181 196.154 350.111 196.062 350.06 195.958C350.009 195.854 349.979 195.741 349.971 195.626L349.97 195.578L349.969 195.548L349.949 191.983C349.962 192.128 349.956 192.052 349.952 192.058C349.943 192.042 349.935 192.019 349.919 191.993C349.877 191.93 349.831 191.87 349.781 191.813C349.632 191.668 349.463 191.544 349.279 191.445C348.831 191.204 348.35 191.029 347.851 190.926C346.75 190.694 345.627 190.582 344.502 190.592L343.627 190.59C343.277 190.591 342.928 190.567 342.583 190.516C341.892 190.42 341.221 190.215 340.594 189.908C338.312 188.617 336.49 186.647 335.38 184.272C334.236 182.064 333.372 179.723 332.807 177.302L333.5 178.054C332.764 177.839 332.089 177.457 331.526 176.937C331.212 176.63 330.965 176.26 330.803 175.852C330.642 175.443 330.568 175.005 330.588 174.566C330.633 173.817 330.844 173.087 331.206 172.429C331.522 171.819 331.907 171.248 332.356 170.728C332.378 170.701 332.403 170.677 332.429 170.655L332.496 170.598C332.807 170.356 333.085 170.075 333.324 169.761C333.57 169.441 333.773 169.09 333.93 168.717C334.094 168.334 334.22 167.935 334.304 167.527C334.387 167.129 334.432 166.724 334.438 166.318L334.876 167.104C334.77 167.031 334.675 166.944 334.594 166.845C334.538 166.781 334.503 166.731 334.459 166.671C334.392 166.573 334.331 166.47 334.276 166.364C334.181 166.182 334.1 165.993 334.034 165.798C333.915 165.453 333.822 165.099 333.757 164.74C333.636 164.073 333.563 163.399 333.538 162.721C333.476 161.409 333.518 160.093 333.663 158.787C333.812 157.493 334.045 156.21 334.362 154.947C334.671 153.68 335.055 152.432 335.511 151.21C335.579 151.029 335.704 150.874 335.867 150.77C336.03 150.665 336.223 150.616 336.416 150.629C336.61 150.643 336.794 150.718 336.941 150.844C337.088 150.971 337.19 151.141 337.233 151.33L337.238 151.352C337.607 153.004 338.143 154.615 338.838 156.159C339.507 157.702 340.399 159.138 341.486 160.421C342.528 161.678 343.889 162.632 345.426 163.183C346.988 163.67 348.654 163.715 350.24 163.314L350.273 163.307C350.356 163.288 350.443 163.285 350.527 163.3C350.611 163.314 350.692 163.345 350.765 163.39C350.837 163.436 350.9 163.495 350.95 163.565C350.999 163.635 351.034 163.714 351.054 163.797L351.065 163.865C351.624 168.551 352.007 173.234 352.156 177.942C352.221 180.294 352.194 182.652 352.059 185.003C351.982 187.364 351.614 189.706 350.962 191.977C350.955 192.001 350.937 192.022 350.915 192.034C350.892 192.045 350.865 192.047 350.841 192.04C350.817 192.031 350.797 192.014 350.786 191.992C350.774 191.97 350.771 191.944 350.778 191.92C351.313 189.647 351.565 187.318 351.529 184.983C351.551 182.649 351.467 180.313 351.29 177.983C350.983 173.323 350.451 168.662 349.746 164.056L350.57 164.607C348.741 165.136 346.798 165.133 344.97 164.597C343.162 163.996 341.548 162.92 340.298 161.482C339.076 160.102 338.065 158.549 337.296 156.873C336.512 155.222 335.899 153.494 335.469 151.717L337.196 151.858C336.795 153.012 336.46 154.188 336.194 155.38C335.927 156.573 335.726 157.78 335.593 158.995C335.464 160.201 335.431 161.414 335.492 162.624C335.516 163.209 335.581 163.791 335.687 164.367C335.735 164.629 335.802 164.887 335.89 165.138C335.924 165.243 335.968 165.345 336.019 165.442C336.036 165.477 336.055 165.51 336.076 165.542C336.08 165.546 336.084 165.55 336.086 165.555C336.066 165.54 336.124 165.576 335.972 165.462L336.41 166.248C336.414 166.811 336.358 167.372 336.244 167.923C336.134 168.464 335.971 168.992 335.755 169.5C335.537 170.021 335.254 170.513 334.913 170.964C334.567 171.423 334.161 171.834 333.707 172.188L333.847 172.058C333.516 172.453 333.229 172.884 332.993 173.342C332.769 173.74 332.636 174.181 332.601 174.636C332.589 174.797 332.615 174.959 332.675 175.109C332.736 175.259 332.83 175.393 332.95 175.501C333.283 175.786 333.675 175.995 334.097 176.113L334.131 176.126C334.293 176.187 334.437 176.286 334.551 176.415C334.666 176.543 334.748 176.698 334.79 176.865C335.334 179.103 336.139 181.268 337.188 183.318C338.082 185.324 339.569 187.007 341.449 188.141C341.895 188.368 342.375 188.521 342.87 188.595C343.115 188.634 343.363 188.655 343.612 188.658L344.53 188.669C345.798 188.674 347.061 188.818 348.298 189.098C348.969 189.25 349.615 189.498 350.215 189.836C350.554 190.028 350.864 190.268 351.134 190.549C351.284 190.715 351.416 190.896 351.529 191.089C351.589 191.199 351.642 191.312 351.685 191.429C351.748 191.593 351.783 191.765 351.79 191.939L351.77 195.548L350.834 194.649C358.04 194.199 365.147 192.739 371.946 190.312C375.331 189.064 378.585 187.488 381.661 185.605C384.693 183.652 387.439 181.288 389.821 178.579L389.938 179.169C388.614 178.171 387.461 176.962 386.528 175.592C385.578 174.285 384.715 172.917 383.944 171.497C382.416 168.667 381.059 165.748 379.882 162.755C378.676 159.782 377.542 156.797 376.211 153.897C374.963 150.986 373.333 148.253 371.364 145.772C369.385 143.366 366.718 141.624 363.72 140.78C362.223 140.351 360.688 140.067 359.137 139.932C357.601 139.815 356.057 139.881 354.538 140.128C348.412 141.071 342.741 144.416 337.965 148.329L337.961 148.333C337.864 148.412 337.754 148.473 337.636 148.514C336.437 148.922 335.338 149.58 334.412 150.444C333.491 151.305 332.814 152.393 332.45 153.599C332.136 154.844 332.08 156.141 332.285 157.408C332.384 158.054 332.583 158.693 332.728 159.337L333.432 161.221L333.451 161.271C333.489 161.375 333.503 161.488 333.492 161.599C332.86 167.362 332.133 173.116 331.458 178.876C330.763 184.634 330.027 190.388 329.249 196.138C329.248 196.151 329.244 196.163 329.238 196.174C329.231 196.185 329.223 196.195 329.213 196.203C329.203 196.211 329.192 196.217 329.18 196.22C329.167 196.224 329.154 196.225 329.142 196.223C329.117 196.22 329.095 196.207 329.079 196.188C329.063 196.169 329.055 196.145 329.057 196.12Z" fill="black"/>
<path d="M338.908 250.247C339.898 251.059 340.959 251.779 342.078 252.399C343.164 253.005 344.329 253.457 345.54 253.74C346.739 254.03 347.983 254.08 349.201 253.887C350.457 253.685 351.682 253.32 352.844 252.802C351.832 253.666 350.637 254.29 349.35 254.627C348.696 254.801 348.023 254.897 347.346 254.913C346.667 254.904 345.991 254.827 345.327 254.683C342.713 254.049 340.426 252.468 338.908 250.247Z" fill="black"/>
<path d="M370.9 252.218C372.036 252.597 373.223 252.805 374.421 252.835C375.595 252.866 376.77 252.765 377.922 252.535C378.502 252.428 379.075 252.286 379.638 252.11C380.218 251.981 380.759 251.731 381.331 251.556C381.891 251.35 382.438 251.103 383.005 250.889C383.555 250.64 384.103 250.378 384.682 250.154C384.22 250.558 383.731 250.934 383.235 251.305C382.709 251.623 382.192 251.972 381.635 252.247C380.521 252.817 379.334 253.233 378.107 253.484C376.869 253.727 375.599 253.761 374.349 253.584C373.102 253.428 371.916 252.958 370.9 252.218Z" fill="black"/>
<path d="M440.576 239.864C441.64 241.416 442.613 243.029 443.49 244.694C444.334 246.387 445.012 248.158 445.512 249.983C446.539 253.648 446.847 257.478 446.418 261.26C446.193 263.145 445.811 265.007 445.277 266.829L443.732 272.239C442.712 275.848 441.608 279.434 440.541 283.03L440.551 282.955L440.551 282.964L440.551 282.974C440.551 282.996 440.547 283.019 440.541 283.04C438.665 289.249 436.87 295.481 435.154 301.736C434.945 302.519 434.699 303.296 434.541 304.076C434.383 304.861 434.291 305.656 434.264 306.456C434.224 308.059 434.428 309.658 434.868 311.2C435.572 314.379 436.098 317.595 436.446 320.832C436.822 324.063 437.071 327.303 437.26 330.548C437.497 333.806 437.517 337.076 437.321 340.337C437.254 341.167 437.135 341.991 436.966 342.806C436.806 343.667 436.492 344.492 436.039 345.242C435.772 345.653 435.408 345.993 434.979 346.23C434.535 346.456 434.038 346.555 433.541 346.517C433.311 346.501 433.082 346.468 432.856 346.417C432.613 346.356 432.378 346.262 432.159 346.14C431.748 345.891 431.397 345.555 431.131 345.155C430.296 343.659 429.843 341.98 429.812 340.266C429.706 338.621 429.729 336.97 429.882 335.329L430.715 335.481C429.744 339.077 427.992 342.414 425.583 345.255C425 346.008 424.267 346.631 423.43 347.084C422.57 347.527 421.592 347.688 420.635 347.546C420.156 347.485 419.694 347.325 419.279 347.077C419.069 346.947 418.887 346.776 418.743 346.575C418.599 346.374 418.496 346.146 418.44 345.905C418.328 344.975 418.498 344.031 418.929 343.199L418.935 343.184C418.939 343.172 418.948 343.163 418.96 343.158C418.971 343.153 418.984 343.153 418.996 343.157C419.007 343.161 419.017 343.17 419.022 343.181C419.027 343.192 419.028 343.205 419.024 343.217C418.651 344.038 418.531 344.952 418.678 345.842C418.836 346.242 419.114 346.583 419.473 346.817C419.833 347.052 420.257 347.17 420.686 347.153C421.557 347.243 422.434 347.065 423.202 346.644C423.964 346.198 424.623 345.597 425.138 344.88C427.384 342.044 429.005 338.765 429.895 335.258C429.922 335.156 429.986 335.068 430.075 335.01C430.164 334.953 430.271 334.931 430.375 334.948C430.479 334.965 430.573 335.02 430.639 335.103C430.704 335.186 430.736 335.291 430.729 335.396L430.728 335.41C430.611 337.002 430.619 338.6 430.752 340.19C430.803 341.731 431.21 343.239 431.94 344.597C432.123 344.874 432.366 345.108 432.649 345.282C432.785 345.356 432.929 345.413 433.079 345.452C433.249 345.489 433.422 345.514 433.595 345.526C433.916 345.554 434.238 345.489 434.523 345.34C434.809 345.191 435.045 344.964 435.205 344.684C435.889 343.303 436.263 341.789 436.302 340.248C436.508 337.034 436.515 333.811 436.324 330.596C436.172 327.365 435.946 324.138 435.647 320.916C435.328 317.7 434.94 314.486 434.315 311.32C433.91 309.725 433.745 308.079 433.824 306.435C433.872 305.614 433.988 304.799 434.17 303.996C434.36 303.193 434.602 302.422 434.821 301.641C436.627 295.413 438.356 289.162 440.006 282.889L439.995 282.964L439.995 282.955C439.995 282.932 439.997 282.91 440.003 282.888L440.006 282.879C440.979 279.256 441.916 275.623 442.936 272.014L444.451 266.595C444.994 264.822 445.389 263.006 445.631 261.167C446.071 257.477 445.845 253.737 444.962 250.127C444.511 248.321 443.905 246.557 443.149 244.855C442.399 243.147 441.412 241.552 440.493 239.914C440.487 239.903 440.485 239.89 440.488 239.878C440.492 239.866 440.499 239.855 440.51 239.849C440.521 239.842 440.534 239.84 440.546 239.843C440.558 239.846 440.569 239.853 440.576 239.864L440.576 239.864Z" fill="black"/>
<path d="M409.702 343.103L409.693 343.113L409.68 343.124L409.672 343.129C409.234 343.412 408.766 343.645 408.276 343.823C407.776 344.002 407.252 344.106 406.721 344.133C406.183 344.163 405.643 344.116 405.118 343.991C404.575 343.87 404.055 343.662 403.578 343.376L403.561 343.363L403.541 343.345C402.971 342.88 402.5 342.306 402.154 341.656C401.971 341.285 401.874 340.878 401.87 340.464C401.865 340.05 401.953 339.641 402.128 339.266C402.473 338.576 402.986 337.984 403.62 337.545C404.192 337.131 404.802 336.771 405.441 336.469C406.572 335.905 407.617 335.182 408.543 334.321C409.437 333.441 410.208 332.444 410.834 331.357C411.437 330.283 411.832 329.106 412 327.886C412.139 326.632 412.107 325.364 411.905 324.118L411.85 323.62C411.841 323.516 411.82 323.413 411.788 323.313C411.726 323.117 411.619 322.938 411.477 322.789C411.331 322.646 411.15 322.542 410.952 322.49C410.755 322.437 410.546 322.438 410.349 322.49C410.135 322.512 409.93 322.587 409.753 322.709C409.575 322.83 409.431 322.994 409.334 323.185C409.128 323.737 409.03 324.323 409.044 324.911C408.887 326.4 408.179 327.776 407.061 328.77C405.976 329.737 404.596 330.308 403.145 330.39C402.423 330.45 401.697 330.361 401.012 330.127C400.642 330.002 400.311 329.781 400.054 329.486C399.797 329.191 399.622 328.834 399.547 328.45C399.442 327.735 399.518 327.004 399.766 326.325C399.872 325.994 400 325.671 400.149 325.358C400.297 325.034 400.491 324.748 400.634 324.462C401.262 323.304 401.777 322.088 402.172 320.832C402.59 319.614 402.737 318.32 402.601 317.04L402.509 316.59L402.414 316.047C402.364 315.681 402.358 315.309 402.396 314.941C402.492 314.234 402.685 313.543 402.969 312.889C403.525 311.626 404.218 310.428 405.036 309.317C406.648 307.169 408.381 305.115 410.229 303.167C411.842 301.225 412.904 298.886 413.306 296.394C413.478 295.194 413.528 293.797 413.639 292.481L413.933 288.485C414.164 285.824 414.355 283.16 414.62 280.502C415.095 275.181 415.695 269.87 416.25 264.557L417.188 256.6C417.33 255.31 417.273 254.007 417.02 252.735C416.723 251.448 416.281 250.198 415.702 249.01C415.692 248.988 415.691 248.963 415.699 248.94C415.707 248.917 415.724 248.898 415.745 248.887C415.766 248.875 415.791 248.872 415.815 248.878C415.838 248.884 415.859 248.899 415.872 248.919L415.875 248.924C417.42 251.206 418.211 253.914 418.139 256.669L417.726 264.681C417.378 270.013 417.076 275.348 416.648 280.673C416.463 283.338 416.202 285.996 415.983 288.658L415.6 292.647C415.453 293.989 415.39 295.265 415.154 296.707C414.653 299.513 413.377 302.124 411.472 304.245C409.56 306.225 407.701 308.028 406.032 310.073C405.198 311.063 404.48 312.145 403.891 313.298C403.611 313.856 403.408 314.449 403.288 315.062C403.242 315.356 403.231 315.654 403.255 315.951L403.306 316.399L403.386 316.936C403.468 318.326 403.262 319.718 402.782 321.025C402.348 322.31 401.802 323.553 401.149 324.741C400.805 325.292 400.533 325.885 400.341 326.506C400.134 327.088 400.073 327.713 400.165 328.324C400.397 329.513 401.857 329.749 403.075 329.598C404.31 329.448 405.458 328.884 406.331 327.996C407.179 327.138 407.675 325.994 407.721 324.789C407.669 324.041 407.767 323.29 408.007 322.58C408.188 322.162 408.468 321.794 408.823 321.507C409.177 321.22 409.596 321.023 410.043 320.932C410.482 320.833 410.938 320.83 411.379 320.922C411.85 321.029 412.283 321.262 412.632 321.595C412.969 321.916 413.227 322.309 413.387 322.746C413.467 322.961 413.522 323.185 413.552 323.412L413.61 323.91C413.848 325.302 413.883 326.722 413.713 328.125C413.494 329.555 413.007 330.931 412.278 332.182C411.552 333.403 410.646 334.509 409.591 335.46C408.53 336.392 407.331 337.154 406.036 337.718C405.452 337.953 404.89 338.243 404.36 338.583C403.873 338.881 403.463 339.29 403.164 339.776C403.037 339.999 402.963 340.248 402.949 340.505C402.934 340.761 402.979 341.017 403.08 341.253C403.336 341.799 403.686 342.297 404.113 342.723L404.076 342.693C404.452 342.965 404.867 343.176 405.308 343.321C405.762 343.477 406.237 343.567 406.717 343.586C407.205 343.606 407.693 343.559 408.167 343.447C408.654 343.338 409.126 343.174 409.576 342.959L409.555 342.975L409.565 342.966C409.584 342.95 409.608 342.941 409.632 342.942C409.657 342.943 409.68 342.953 409.698 342.97C409.715 342.988 409.725 343.011 409.726 343.036C409.727 343.06 409.718 343.084 409.702 343.103L409.702 343.103Z" fill="black"/>
<path d="M304.18 256.47C304.898 256.154 305.654 255.931 306.429 255.805C307.193 255.703 307.963 255.657 308.733 255.669C310.271 255.599 311.811 255.557 313.354 255.541C313.366 255.541 313.378 255.545 313.387 255.553C313.396 255.561 313.402 255.573 313.403 255.585C313.404 255.597 313.401 255.609 313.394 255.619C313.386 255.628 313.376 255.635 313.364 255.637C311.849 255.931 310.331 256.198 308.811 256.439C308.059 256.604 307.295 256.714 306.527 256.767C305.742 256.799 304.957 256.732 304.189 256.566C304.179 256.564 304.17 256.558 304.163 256.55C304.156 256.542 304.151 256.532 304.15 256.522C304.149 256.511 304.151 256.5 304.157 256.491C304.162 256.482 304.17 256.475 304.18 256.47Z" fill="black"/>
<path d="M407.231 344.443C410.019 342.504 412.494 340.15 414.571 337.464C415.597 336.103 416.477 334.638 417.196 333.094C417.888 331.527 418.352 329.87 418.575 328.172C418.431 329.89 418.042 331.579 417.419 333.187C416.763 334.789 415.94 336.317 414.964 337.746C412.966 340.597 410.543 343.125 407.779 345.242C407.728 345.28 407.67 345.308 407.608 345.324C407.547 345.339 407.483 345.343 407.42 345.334C407.357 345.325 407.296 345.304 407.241 345.272C407.187 345.239 407.139 345.197 407.101 345.146C407.062 345.095 407.035 345.037 407.019 344.976C407.003 344.914 406.999 344.85 407.008 344.787C407.017 344.724 407.038 344.663 407.07 344.609C407.103 344.554 407.146 344.506 407.196 344.468L407.213 344.456L407.231 344.443Z" fill="black"/>
<path d="M415.634 347.389C416.678 346.125 417.622 344.783 418.459 343.374C419.326 341.96 420.122 340.503 420.843 339.01C421.564 337.515 422.171 335.966 422.656 334.379C423.168 332.793 423.424 331.135 423.415 329.468C423.505 331.144 423.327 332.822 422.89 334.442C422.477 336.069 421.94 337.662 421.285 339.208C420.628 340.754 419.895 342.266 419.086 343.738C418.291 345.24 417.377 346.677 416.355 348.035C416.275 348.136 416.159 348.201 416.032 348.216C415.904 348.231 415.776 348.195 415.675 348.116C415.574 348.036 415.509 347.92 415.494 347.792C415.479 347.665 415.515 347.537 415.594 347.436L415.608 347.419L415.634 347.389Z" fill="black"/>
<path d="M427.357 342.423C427.873 341.056 428.328 339.656 428.81 338.241L429.56 336.131C429.817 335.427 430.104 334.741 430.292 334.047C431.054 331.196 431.539 328.278 431.74 325.334C431.776 328.313 431.524 331.288 430.986 334.217C430.644 335.703 430.336 337.113 430.064 338.573C429.793 340.02 429.539 341.497 429.214 342.969L429.213 342.975C429.156 343.225 429.003 343.444 428.786 343.582C428.57 343.719 428.307 343.766 428.056 343.71C427.806 343.655 427.587 343.502 427.448 343.286C427.31 343.07 427.263 342.807 427.317 342.556C427.328 342.511 427.341 342.466 427.357 342.423Z" fill="black"/>
<path d="M364.487 368.411C364.487 368.411 356.444 412.252 371.948 410.858C387.452 409.465 387.63 371.181 386.757 366.283" fill="black"/>
<path d="M355.243 369.019C356.326 370.527 357.14 372.211 357.649 373.997C358.194 375.775 358.573 377.599 358.781 379.447C359.027 381.278 359.035 383.185 359.127 384.948C359.21 386.741 359.358 388.535 359.576 390.32C359.957 393.892 360.611 397.429 361.53 400.901C361.982 402.622 362.609 404.293 363.4 405.888C364.2 407.423 365.298 408.989 367.134 409.396C366.182 409.389 365.261 409.06 364.521 408.462C363.775 407.871 363.124 407.171 362.589 406.384C361.547 404.824 360.708 403.137 360.093 401.365C358.871 397.861 358.053 394.23 357.654 390.541C357.467 388.701 357.322 386.857 357.3 385.003C357.311 383.12 357.344 381.376 357.281 379.57C357.218 377.777 357.034 375.989 356.731 374.22C356.46 372.43 355.96 370.682 355.243 369.019Z" fill="black"/>
<path d="M297.1 359.876C291.353 360.57 285.582 361.041 279.796 361.382C276.902 361.554 274 361.625 271.091 361.595C269.636 361.579 268.178 361.532 266.713 361.406C265.186 361.335 263.679 361.027 262.247 360.492L262.422 360.551C259.492 360.058 256.518 359.678 253.552 359.401C250.597 359.086 247.627 358.927 244.655 358.922C243.915 358.917 243.182 358.966 242.445 358.985C241.712 359.029 240.985 359.101 240.257 359.167C239.549 359.295 238.811 359.346 238.128 359.533L235.931 360.075C232.811 360.631 229.602 360.409 226.588 359.429C225.094 358.981 223.644 358.4 222.255 357.692C220.831 356.99 219.508 356.101 218.321 355.048C217.67 354.478 217.12 353.803 216.695 353.049C216.445 352.578 216.318 352.052 216.323 351.519L216.369 350.86L216.482 350.236C216.842 348.648 217.508 347.146 218.444 345.814C220.279 343.245 222.686 341.138 225.475 339.659C228.205 338.213 231.126 337.16 234.151 336.531L234.088 336.548C237.993 335.407 242.025 334.76 246.09 334.622C247.119 334.603 248.148 334.649 249.172 334.758L250.698 335.007C251.175 335.089 251.648 335.187 252.133 335.233C254.073 335.465 256.034 335.477 257.978 335.267C259.927 335.077 261.848 334.664 263.703 334.035C264.618 333.732 265.492 333.314 266.302 332.792L266.86 332.361C267.076 332.201 267.284 332.025 267.507 331.883C267.952 331.615 268.418 331.382 268.9 331.189C270.805 330.513 272.782 330.065 274.792 329.853C276.78 329.621 278.778 329.493 280.779 329.468C278.787 329.617 276.805 329.867 274.843 330.197C272.888 330.492 270.974 331.016 269.141 331.757C268.705 331.956 268.285 332.189 267.886 332.454C267.694 332.589 267.528 332.746 267.347 332.889L266.742 333.402C265.9 334.003 264.984 334.495 264.017 334.865C262.116 335.605 260.129 336.101 258.104 336.343C256.079 336.618 254.03 336.662 251.996 336.474C251.484 336.439 250.976 336.35 250.466 336.276L249.031 336.082C248.066 336.006 247.097 335.991 246.13 336.035C242.211 336.304 238.334 337.012 234.573 338.145L234.561 338.149L234.511 338.162C231.653 338.782 228.896 339.802 226.323 341.192C223.797 342.557 221.62 344.49 219.966 346.837C219.179 347.974 218.62 349.254 218.32 350.604L218.236 351.087L218.208 351.552C218.209 351.772 218.268 351.988 218.378 352.179C218.708 352.726 219.124 353.216 219.61 353.63C221.823 355.458 224.382 356.82 227.133 357.637C229.847 358.552 232.744 358.786 235.569 358.32L237.748 357.803C238.519 357.604 239.288 357.556 240.058 357.427C240.825 357.363 241.593 357.295 242.359 357.256C243.122 357.243 243.889 357.2 244.65 357.212C250.708 357.317 256.744 357.983 262.68 359.202C262.733 359.212 262.784 359.228 262.833 359.25L262.856 359.261C264.131 359.755 265.473 360.057 266.838 360.157C268.251 360.318 269.685 360.404 271.121 360.46C273.994 360.577 276.88 360.546 279.767 360.528C282.655 360.497 285.544 360.412 288.433 360.294C291.321 360.167 294.212 360.042 297.1 359.876Z" fill="black"/>
<path d="M219.979 355.168C220.237 353.541 220.929 352.013 221.981 350.746C222.999 349.446 224.173 348.276 225.476 347.263C228.133 345.314 231.053 343.753 234.149 342.625L236.455 341.763L238.809 341.067C240.372 340.564 241.973 340.242 243.563 339.864C245.15 339.454 246.77 339.257 248.376 338.968C249.201 338.842 249.939 338.676 250.836 338.584C251.683 338.519 252.533 338.516 253.381 338.575C256.539 338.737 259.706 338.545 262.822 338.001C264.342 337.743 265.822 337.291 267.226 336.655C267.565 336.496 267.894 336.318 268.212 336.122C268.535 335.936 268.922 335.674 269.289 335.482C270.034 335.077 270.808 334.728 271.605 334.437C273.175 333.883 274.8 333.498 276.452 333.289C278.07 333.045 279.699 332.883 281.333 332.802C284.6 332.564 287.882 332.992 290.979 334.06C287.836 333.365 284.592 333.26 281.41 333.748C279.821 333.936 278.244 334.2 276.677 334.538C275.13 334.822 273.616 335.259 272.156 335.844C271.445 336.141 270.758 336.491 270.099 336.889C269.758 337.09 269.48 337.289 269.11 337.52C268.747 337.759 268.371 337.977 267.983 338.173C266.459 338.919 264.846 339.466 263.182 339.798C259.929 340.416 256.614 340.655 253.306 340.508C252.54 340.445 251.771 340.438 251.004 340.488C250.291 340.552 249.443 340.722 248.669 340.834C247.089 341.097 245.494 341.298 243.935 341.653C242.37 341.98 240.788 342.251 239.256 342.698L236.938 343.307L234.662 344.04C231.625 344.999 228.722 346.34 226.023 348.031C224.687 348.892 223.461 349.913 222.373 351.071C222.094 351.355 221.838 351.66 221.609 351.985C221.357 352.295 221.131 352.624 220.934 352.971C220.488 353.641 220.164 354.384 219.979 355.168Z" fill="black"/>
<path d="M242.915 340.907C242.915 340.907 240.892 355.979 247.396 361.063C247.396 361.063 255.201 361.321 255.479 361.063C255.479 361.063 248.831 347.248 252.642 339.51" fill="black"/>
<path d="M267.08 332.643C267.08 332.643 267.461 324.909 274.616 325.437" stroke="black" stroke-width="0.96777" stroke-linecap="round" stroke-linejoin="round"/>
<path d="M244.491 255.046C242.459 252.818 240.49 250.537 238.526 248.252L232.715 241.331C230.794 239.01 228.956 236.621 227.101 234.247C225.256 231.864 223.372 229.513 221.45 227.194C221.426 227.166 221.413 227.129 221.414 227.092C221.415 227.055 221.43 227.02 221.455 226.992L221.47 226.976C221.702 226.638 221.861 226.256 221.937 225.853C222.043 225.43 222.126 225.001 222.185 224.569C222.318 223.703 222.408 222.828 222.485 221.953L222.926 216.694C223.056 214.938 223.17 213.181 223.332 211.427L223.819 206.163L223.822 206.132C223.826 206.087 223.839 206.043 223.86 206.003C223.881 205.964 223.91 205.928 223.944 205.899C223.979 205.871 224.019 205.849 224.062 205.836C224.105 205.822 224.15 205.818 224.195 205.822C224.227 205.825 224.258 205.832 224.287 205.844C225.836 206.444 227.385 207.042 228.913 207.705C228.925 207.71 228.933 207.718 228.938 207.729C228.943 207.741 228.944 207.753 228.94 207.765C228.936 207.776 228.928 207.786 228.918 207.792C228.907 207.798 228.895 207.799 228.883 207.797C227.262 207.413 225.663 206.965 224.063 206.52L224.531 206.201C224.483 207.969 224.451 209.736 224.335 211.5C224.241 213.265 224.073 215.025 223.876 216.782C223.685 218.54 223.463 220.297 223.151 222.043C222.99 222.915 222.818 223.786 222.616 224.653C222.516 225.086 222.396 225.515 222.275 225.947C222.176 226.411 221.968 226.845 221.67 227.214L221.69 226.996C223.594 229.331 225.536 231.633 227.519 233.903C229.49 236.182 231.478 238.447 233.384 240.78L239.052 247.819C240.915 250.187 242.772 252.56 244.566 254.985C244.574 254.995 244.577 255.007 244.575 255.019C244.574 255.032 244.568 255.043 244.558 255.051C244.548 255.059 244.536 255.063 244.524 255.062C244.511 255.061 244.5 255.055 244.491 255.046L244.491 255.046Z" fill="black"/>
<path d="M224.902 226.199C225.246 225.675 225.688 225.223 226.204 224.868C226.7 224.497 227.215 224.152 227.747 223.836C228.808 223.2 229.911 222.648 231.018 222.109C233.234 221.029 235.527 220.135 237.812 219.232C240.105 218.351 242.425 217.546 244.771 216.817L251.822 214.693C251.854 214.683 251.888 214.683 251.92 214.691C251.952 214.7 251.981 214.717 252.004 214.741C254.279 217.275 256.638 219.734 259.047 222.141L266.297 229.334C268.72 231.722 271.167 234.083 273.638 236.415C274.872 237.583 276.14 238.709 277.403 239.839C278.627 240.969 279.937 242.004 281.32 242.933L281.373 242.966C281.456 243.017 281.515 243.099 281.537 243.194C281.559 243.289 281.543 243.389 281.492 243.472L281.47 243.504L278.851 246.88L278.843 246.89C278.804 246.94 278.748 246.974 278.686 246.985C276.757 247.319 274.818 247.598 272.884 247.901C272.871 247.904 272.859 247.901 272.848 247.893C272.838 247.886 272.831 247.875 272.828 247.863C272.826 247.851 272.828 247.838 272.835 247.827C272.842 247.817 272.853 247.809 272.865 247.806C274.77 247.354 276.671 246.878 278.582 246.457L278.418 246.562L280.857 243.054L281.007 243.625C279.52 242.719 278.11 241.691 276.793 240.552C275.478 239.455 274.213 238.304 272.957 237.147C270.431 234.845 268.04 232.41 265.657 229.97C263.278 227.526 260.962 225.023 258.682 222.489L255.237 218.712C254.095 217.448 252.926 216.208 251.745 214.98L251.926 215.028C249.594 215.774 247.3 216.645 245 217.486L238.108 220.02C235.805 220.847 233.538 221.761 231.276 222.682C230.151 223.154 229.04 223.659 227.953 224.207C226.84 224.687 225.831 225.381 224.985 226.249L224.981 226.253C224.973 226.263 224.962 226.269 224.95 226.27C224.938 226.272 224.926 226.269 224.916 226.262C224.906 226.255 224.899 226.245 224.897 226.233C224.894 226.222 224.896 226.209 224.902 226.199L224.902 226.199Z" fill="black"/>
<path d="M237.43 214.723C234.492 212.514 231.582 210.271 228.699 207.994L229.212 207.733C229.405 210.442 229.377 213.162 229.131 215.866C229.011 217.234 228.777 218.589 228.431 219.918C228.249 220.6 227.997 221.262 227.679 221.893C227.349 222.586 226.833 223.173 226.19 223.591C226.087 223.653 225.964 223.673 225.846 223.649C225.728 223.624 225.624 223.556 225.555 223.457C225.485 223.359 225.455 223.238 225.471 223.119C225.486 223 225.547 222.891 225.639 222.814L225.646 222.808C227.224 221.501 228.874 220.333 230.556 219.194C232.242 218.066 233.972 217.003 235.749 216.02C239.295 214.014 243.15 212.61 247.155 211.866L247.163 211.865C247.188 211.861 247.213 211.863 247.237 211.871C247.26 211.88 247.281 211.893 247.298 211.912C248.323 213.02 249.348 214.128 250.356 215.253C249.249 214.225 248.16 213.18 247.069 212.136L247.212 212.182C245.263 212.642 243.357 213.263 241.51 214.037C239.678 214.844 237.889 215.747 236.151 216.742C232.674 218.733 229.367 221.007 226.263 223.54L225.72 222.757C226.672 221.972 227.322 220.881 227.559 219.67C227.907 218.395 228.148 217.093 228.28 215.777C228.548 213.116 228.65 210.442 228.584 207.768L228.584 207.753C228.582 207.693 228.598 207.634 228.63 207.582C228.661 207.531 228.707 207.49 228.761 207.464C228.815 207.438 228.876 207.428 228.935 207.436C228.995 207.444 229.051 207.468 229.097 207.507C231.904 209.877 234.682 212.282 237.43 214.723Z" fill="black"/>
<path d="M226.167 209.715C226.312 212.093 226.219 214.479 225.892 216.839C225.738 218.021 225.521 219.194 225.241 220.352C225.002 221.535 224.558 222.666 223.931 223.697C224.195 222.55 224.385 221.387 224.499 220.215L224.933 216.712C225.218 214.359 225.63 212.023 226.167 209.715Z" fill="black"/>
<path d="M233.602 219.58C235.653 218.257 237.823 217.129 240.084 216.211C241.213 215.755 242.352 215.32 243.525 214.969C244.692 214.579 245.908 214.348 247.138 214.285C245.984 214.696 244.898 215.207 243.785 215.678C242.681 216.167 241.568 216.637 240.454 217.104C238.218 218.057 235.931 218.884 233.602 219.58Z" fill="black"/>
<path d="M278.634 246.721C276.804 245.63 275.072 244.384 273.455 242.997C271.81 241.643 270.285 240.149 268.898 238.532C270.729 239.622 272.462 240.868 274.077 242.257C275.721 243.612 277.245 245.105 278.634 246.721Z" fill="black"/>
<path d="M337.863 165.703C337.863 165.703 339.034 163.471 344.72 163.716" stroke="black" stroke-width="0.96777" stroke-linecap="round" stroke-linejoin="round"/>
<path d="M337.863 182.658C339.061 182.458 340.162 181.874 341 180.994C341.837 180.115 342.367 178.987 342.508 177.78" stroke="black" stroke-width="0.96777" stroke-linecap="round" stroke-linejoin="round"/>
<path d="M337.282 174.064C337.282 174.064 338.211 176.735 335.889 176.154" stroke="black" stroke-width="0.96777" stroke-linecap="round" stroke-linejoin="round"/>
<path d="M341.695 169.128C342.072 169.115 342.428 168.957 342.69 168.686C342.951 168.415 343.098 168.053 343.098 167.677C343.098 167.3 342.951 166.938 342.69 166.668C342.428 166.397 342.072 166.238 341.695 166.225C341.319 166.238 340.963 166.397 340.701 166.668C340.439 166.938 340.293 167.3 340.293 167.677C340.293 168.053 340.439 168.415 340.701 168.686C340.963 168.957 341.319 169.115 341.695 169.128Z" fill="black"/>
<path d="M449.815 329.377C450.476 328.95 451.011 328.355 451.367 327.653C451.771 326.965 452.122 326.236 452.474 325.504C453.165 324.01 453.931 322.553 454.768 321.136C456.441 318.138 458.989 315.722 462.071 314.21C465.234 312.845 468.743 312.499 472.111 313.221C473.748 313.548 475.35 314.028 476.896 314.658C478.434 315.262 479.91 315.984 481.404 316.585L480.998 317.074C478.198 312.13 475.095 307.367 471.981 302.611C468.86 297.859 465.885 293.02 462.895 288.19C459.916 283.352 457.019 278.466 454.254 273.5C452.851 271.03 451.457 268.554 450.115 266.047C448.749 263.555 447.422 261.038 446.135 258.499C446.124 258.477 446.121 258.451 446.128 258.428C446.135 258.404 446.15 258.384 446.171 258.371C446.193 258.359 446.218 258.354 446.242 258.36C446.266 258.365 446.287 258.379 446.301 258.399C447.936 260.73 449.531 263.085 451.088 265.464C452.669 267.827 454.197 270.223 455.716 272.624C458.796 277.4 461.744 282.256 464.61 287.16C467.464 292.072 470.335 296.974 473.058 301.965C475.789 306.951 478.531 311.93 481.575 316.728C481.613 316.787 481.631 316.856 481.627 316.925C481.623 316.995 481.597 317.062 481.554 317.116C481.51 317.17 481.45 317.209 481.383 317.228C481.316 317.247 481.245 317.244 481.179 317.22L481.17 317.217C478.197 315.974 475.081 315.105 471.894 314.627C468.804 314.244 465.667 314.635 462.765 315.765C461.359 316.392 460.063 317.241 458.926 318.279C457.775 319.354 456.74 320.547 455.839 321.84C454.921 323.146 454.079 324.525 453.213 325.914C452.771 326.604 452.325 327.298 451.818 327.961C451.346 328.673 450.672 329.23 449.882 329.559C449.859 329.566 449.834 329.565 449.812 329.555C449.79 329.545 449.773 329.527 449.764 329.504C449.754 329.482 449.754 329.457 449.762 329.434C449.77 329.411 449.787 329.392 449.808 329.381L449.815 329.377Z" fill="black"/>
<path d="M363.092 378.569C363.092 378.569 354.495 378.579 355.243 379.74C355.243 379.74 356.058 385.745 357.152 385.779H363.092" fill="black"/>
<path d="M389.245 179.769C390.976 179.129 392.777 178.694 394.61 178.474C396.448 178.222 398.317 178.296 400.13 178.693C401.981 179.096 403.656 180.078 404.911 181.496C405.206 181.898 405.408 182.361 405.502 182.85C405.611 183.306 405.691 183.768 405.744 184.234C405.854 185.158 405.898 186.082 405.919 187.005C405.821 194.363 405.054 201.697 403.625 208.917C402.32 216.149 400.605 223.302 398.49 230.341C396.399 237.388 393.829 244.285 390.8 250.984C387.81 257.703 384.132 264.094 379.824 270.055C377.597 272.989 374.998 275.623 372.093 277.89C369.161 280.126 365.935 281.949 362.505 283.305L359.907 284.251L357.235 284.961C356.341 285.188 355.436 285.366 354.523 285.494L353.159 285.727C352.702 285.791 352.24 285.808 351.781 285.85C348.101 286.221 344.386 286.036 340.76 285.303C338.945 284.949 337.155 284.476 335.402 283.888C333.665 283.25 331.973 282.497 330.335 281.635L329.107 280.988C328.67 280.782 328.264 280.517 327.9 280.2C327.197 279.573 326.551 278.883 325.973 278.14C325.391 277.413 324.846 276.662 324.331 275.888C324.073 275.502 323.827 275.106 323.587 274.702C323.473 274.493 323.352 274.296 323.246 274.073C323.187 273.962 323.134 273.847 323.088 273.729C323.063 273.664 323.039 273.614 323.014 273.536C322.99 273.439 322.971 273.341 322.959 273.241C322.951 273.172 322.967 273.102 323.004 273.043L323.029 273.004C324.172 271.217 325.305 269.418 326.404 267.607C326.949 266.701 327.503 265.788 327.985 264.873L328.074 264.702C327.861 264.893 328.376 264.416 328.332 264.463L328.354 264.453L328.399 264.434L328.489 264.395L328.847 264.241C329.086 264.137 329.328 264.04 329.559 263.92C330.029 263.697 330.492 263.46 330.942 263.199C334.584 261.135 337.549 258.06 339.481 254.346C340.405 252.512 341.158 250.47 342.033 248.543L344.618 242.704C346.385 238.832 348.176 234.969 350.066 231.154C353.79 223.497 357.887 216.034 362.357 208.765C366.727 201.439 371.849 194.587 377.638 188.321C377.656 188.303 377.677 188.288 377.701 188.276C379.864 187.231 381.931 185.997 383.878 184.589C384.856 183.889 385.796 183.137 386.695 182.338C387.598 181.536 388.449 180.678 389.245 179.769ZM389.301 179.848C388.529 180.774 387.699 181.65 386.816 182.471C385.929 183.295 385.001 184.072 384.033 184.8C382.1 186.265 380.042 187.558 377.882 188.662L377.945 188.617C372.264 194.927 367.253 201.809 362.99 209.152C358.619 216.429 354.683 223.961 350.947 231.586C349.071 235.395 347.292 239.252 345.537 243.119L342.97 248.949C342.097 250.896 341.378 252.855 340.377 254.814C338.338 258.685 335.222 261.882 331.405 264.02C330.933 264.289 330.449 264.534 329.957 264.764C329.715 264.888 329.463 264.988 329.214 265.095L328.839 265.254L328.745 265.293L328.699 265.313L328.675 265.323C328.613 265.373 329.121 264.912 328.901 265.119L328.805 265.3C328.291 266.264 327.735 267.166 327.18 268.079C326.063 269.896 324.92 271.689 323.763 273.478L323.833 273.241C323.838 273.247 323.843 273.253 323.845 273.26C323.848 273.268 323.85 273.275 323.849 273.283L323.899 273.41C323.936 273.506 323.979 273.6 324.026 273.691C324.114 273.884 324.23 274.079 324.334 274.274C324.558 274.661 324.791 275.047 325.038 275.425C325.529 276.184 326.053 276.924 326.609 277.635C327.148 278.345 327.75 279.005 328.408 279.607C328.732 279.897 329.097 280.14 329.489 280.327L330.687 280.975C332.284 281.839 333.936 282.597 335.633 283.244C337.349 283.841 339.103 284.326 340.882 284.695C344.446 285.464 348.106 285.684 351.737 285.349C352.19 285.311 352.647 285.299 353.098 285.239L354.446 285.02C355.35 284.901 356.246 284.732 357.13 284.515L359.778 283.835L362.356 282.92C365.764 281.604 368.974 279.825 371.897 277.633C374.8 275.41 377.378 272.792 379.557 269.856C383.818 263.899 387.407 257.489 390.26 250.743C395.962 237.249 400.184 223.177 402.853 208.774C403.529 205.178 404.107 201.563 404.555 197.934C405.046 194.313 405.314 190.665 405.358 187.012C405.351 186.102 405.319 185.192 405.226 184.294C405.195 183.424 404.962 182.574 404.545 181.81C403.368 180.441 401.793 179.474 400.04 179.045C398.272 178.614 396.443 178.499 394.635 178.703C392.819 178.879 391.029 179.263 389.301 179.848Z" fill="black"/>
<path d="M401.824 218.143C401.804 218.254 401.778 218.364 401.746 218.472C401.659 218.076 401.572 217.669 401.495 217.263C401.611 217.553 401.717 217.853 401.824 218.143Z" fill="#FCFCFC"/>
<path d="M411.701 263.454V269.861" stroke="black" stroke-width="0.96777" stroke-miterlimit="10"/>
<path d="M328.139 274.797C328.515 274.784 328.872 274.625 329.134 274.354C329.395 274.084 329.541 273.722 329.541 273.345C329.541 272.969 329.395 272.607 329.134 272.336C328.872 272.065 328.515 271.907 328.139 271.894C327.763 271.907 327.406 272.065 327.145 272.336C326.883 272.607 326.737 272.969 326.737 273.345C326.737 273.722 326.883 274.084 327.145 274.354C327.406 274.625 327.763 274.784 328.139 274.797Z" fill="black"/>
<path d="M333.888 279.152C334.264 279.139 334.621 278.98 334.882 278.709C335.144 278.439 335.29 278.077 335.29 277.7C335.29 277.324 335.144 276.962 334.882 276.691C334.621 276.42 334.264 276.262 333.888 276.249C333.511 276.262 333.155 276.42 332.893 276.691C332.632 276.962 332.485 277.324 332.485 277.7C332.485 278.077 332.632 278.439 332.893 278.709C333.155 278.98 333.511 279.139 333.888 279.152Z" fill="black"/>
<path d="M341.727 282.636C342.103 282.623 342.46 282.464 342.721 282.193C342.983 281.922 343.129 281.561 343.129 281.184C343.129 280.808 342.983 280.446 342.721 280.175C342.46 279.904 342.103 279.745 341.727 279.732C341.35 279.745 340.994 279.904 340.732 280.175C340.471 280.446 340.324 280.808 340.324 281.184C340.324 281.561 340.471 281.922 340.732 282.193C340.994 282.464 341.35 282.623 341.727 282.636Z" fill="black"/>
<path d="M351.308 283.332C351.684 283.319 352.041 283.161 352.302 282.89C352.564 282.619 352.71 282.257 352.71 281.881C352.71 281.504 352.564 281.142 352.302 280.872C352.041 280.601 351.684 280.442 351.308 280.429C350.931 280.442 350.575 280.601 350.313 280.872C350.051 281.142 349.905 281.504 349.905 281.881C349.905 282.257 350.051 282.619 350.313 282.89C350.575 283.161 350.931 283.319 351.308 283.332Z" fill="black"/>
<path d="M360.889 280.72C361.265 280.707 361.621 280.548 361.883 280.277C362.145 280.006 362.291 279.645 362.291 279.268C362.291 278.891 362.145 278.53 361.883 278.259C361.621 277.988 361.265 277.829 360.889 277.816C360.512 277.829 360.156 277.988 359.894 278.259C359.632 278.53 359.486 278.891 359.486 279.268C359.486 279.645 359.632 280.006 359.894 280.277C360.156 280.548 360.512 280.707 360.889 280.72Z" fill="black"/>
<path d="M369.25 276.016C369.626 276.003 369.983 275.844 370.245 275.574C370.506 275.303 370.652 274.941 370.652 274.564C370.652 274.188 370.506 273.826 370.245 273.555C369.983 273.284 369.626 273.126 369.25 273.113C368.874 273.126 368.517 273.284 368.256 273.555C367.994 273.826 367.848 274.188 367.848 274.564C367.848 274.941 367.994 275.303 368.256 275.574C368.517 275.844 368.874 276.003 369.25 276.016Z" fill="black"/>
<path d="M377.089 268.874C377.465 268.861 377.822 268.702 378.083 268.432C378.345 268.161 378.491 267.799 378.491 267.422C378.491 267.046 378.345 266.684 378.083 266.413C377.822 266.142 377.465 265.984 377.089 265.971C376.713 265.984 376.356 266.142 376.095 266.413C375.833 266.684 375.687 267.046 375.687 267.422C375.687 267.799 375.833 268.161 376.095 268.432C376.356 268.702 376.713 268.861 377.089 268.874Z" fill="black"/>
<path d="M383.883 258.596C384.259 258.583 384.616 258.425 384.877 258.154C385.139 257.883 385.285 257.521 385.285 257.145C385.285 256.768 385.139 256.406 384.877 256.135C384.616 255.865 384.259 255.706 383.883 255.693C383.506 255.706 383.15 255.865 382.888 256.135C382.627 256.406 382.48 256.768 382.48 257.145C382.48 257.521 382.627 257.883 382.888 258.154C383.15 258.425 383.506 258.583 383.883 258.596Z" fill="black"/>
<path d="M388.76 249.189C389.137 249.176 389.493 249.018 389.755 248.747C390.017 248.476 390.163 248.114 390.163 247.738C390.163 247.361 390.017 246.999 389.755 246.729C389.493 246.458 389.137 246.299 388.76 246.286C388.384 246.299 388.027 246.458 387.766 246.729C387.504 246.999 387.358 247.361 387.358 247.738C387.358 248.114 387.504 248.476 387.766 248.747C388.027 249.018 388.384 249.176 388.76 249.189Z" fill="black"/>
<path d="M392.593 238.738C392.969 238.725 393.326 238.566 393.587 238.295C393.849 238.024 393.995 237.663 393.995 237.286C393.995 236.91 393.849 236.548 393.587 236.277C393.326 236.006 392.969 235.848 392.593 235.834C392.216 235.848 391.86 236.006 391.598 236.277C391.337 236.548 391.19 236.91 391.19 237.286C391.19 237.663 391.337 238.024 391.598 238.295C391.86 238.566 392.216 238.725 392.593 238.738Z" fill="black"/>
<path d="M395.554 229.157C395.93 229.144 396.287 228.985 396.549 228.714C396.81 228.443 396.956 228.082 396.956 227.705C396.956 227.329 396.81 226.967 396.549 226.696C396.287 226.425 395.93 226.266 395.554 226.253C395.178 226.266 394.821 226.425 394.56 226.696C394.298 226.967 394.152 227.329 394.152 227.705C394.152 228.082 394.298 228.443 394.56 228.714C394.821 228.985 395.178 229.144 395.554 229.157Z" fill="black"/>
<path d="M398.516 219.228C398.892 219.215 399.248 219.056 399.51 218.785C399.772 218.514 399.918 218.152 399.918 217.776C399.918 217.399 399.772 217.037 399.51 216.767C399.248 216.496 398.892 216.337 398.516 216.324C398.139 216.337 397.783 216.496 397.521 216.767C397.259 217.037 397.113 217.399 397.113 217.776C397.113 218.152 397.259 218.514 397.521 218.785C397.783 219.056 398.139 219.215 398.516 219.228Z" fill="black"/>
<path d="M400.78 208.253C401.156 208.24 401.513 208.081 401.775 207.81C402.036 207.54 402.182 207.178 402.182 206.801C402.182 206.425 402.036 206.063 401.775 205.792C401.513 205.521 401.156 205.363 400.78 205.35C400.404 205.363 400.047 205.521 399.786 205.792C399.524 206.063 399.378 206.425 399.378 206.801C399.378 207.178 399.524 207.54 399.786 207.81C400.047 208.081 400.404 208.24 400.78 208.253Z" fill="black"/>
<path d="M401.825 199.02C402.202 199.007 402.558 198.849 402.82 198.578C403.081 198.307 403.228 197.945 403.228 197.569C403.228 197.192 403.081 196.83 402.82 196.56C402.558 196.289 402.202 196.13 401.825 196.117C401.449 196.13 401.092 196.289 400.831 196.56C400.569 196.83 400.423 197.192 400.423 197.569C400.423 197.945 400.569 198.307 400.831 198.578C401.092 198.849 401.449 199.007 401.825 199.02Z" fill="black"/>
<path d="M402.522 188.568C402.898 188.555 403.255 188.397 403.517 188.126C403.778 187.855 403.924 187.493 403.924 187.117C403.924 186.74 403.778 186.378 403.517 186.108C403.255 185.837 402.898 185.678 402.522 185.665C402.146 185.678 401.789 185.837 401.528 186.108C401.266 186.378 401.12 186.74 401.12 187.117C401.12 187.493 401.266 187.855 401.528 188.126C401.789 188.397 402.146 188.555 402.522 188.568Z" fill="black"/>
<path d="M452.807 319.275C453.184 319.262 453.54 319.104 453.802 318.833C454.064 318.562 454.21 318.2 454.21 317.824C454.21 317.447 454.064 317.085 453.802 316.815C453.54 316.544 453.184 316.385 452.807 316.372C452.431 316.385 452.075 316.544 451.813 316.815C451.551 317.085 451.405 317.447 451.405 317.824C451.405 318.2 451.551 318.562 451.813 318.833C452.075 319.104 452.431 319.262 452.807 319.275Z" fill="black"/>
<path d="M456.988 314.63C457.365 314.617 457.721 314.459 457.983 314.188C458.244 313.917 458.391 313.555 458.391 313.179C458.391 312.802 458.244 312.44 457.983 312.17C457.721 311.899 457.365 311.74 456.988 311.727C456.612 311.74 456.255 311.899 455.994 312.17C455.732 312.44 455.586 312.802 455.586 313.179C455.586 313.555 455.732 313.917 455.994 314.188C456.255 314.459 456.612 314.617 456.988 314.63Z" fill="black"/>
<path d="M463.027 311.843C463.403 311.83 463.76 311.672 464.022 311.401C464.283 311.13 464.429 310.768 464.429 310.392C464.429 310.015 464.283 309.653 464.022 309.382C463.76 309.112 463.403 308.953 463.027 308.94C462.651 308.953 462.294 309.112 462.033 309.382C461.771 309.653 461.625 310.015 461.625 310.392C461.625 310.768 461.771 311.13 462.033 311.401C462.294 311.672 462.651 311.83 463.027 311.843Z" fill="black"/>
<path d="M469.531 311.378C469.907 311.365 470.263 311.207 470.525 310.936C470.787 310.665 470.933 310.303 470.933 309.927C470.933 309.55 470.787 309.188 470.525 308.918C470.263 308.647 469.907 308.488 469.531 308.475C469.154 308.488 468.798 308.647 468.536 308.918C468.275 309.188 468.128 309.55 468.128 309.927C468.128 310.303 468.275 310.665 468.536 310.936C468.798 311.207 469.154 311.365 469.531 311.378Z" fill="black"/>
<path d="M474.873 312.772C475.249 312.759 475.606 312.6 475.867 312.329C476.129 312.059 476.275 311.697 476.275 311.32C476.275 310.944 476.129 310.582 475.867 310.311C475.606 310.04 475.249 309.882 474.873 309.869C474.496 309.882 474.14 310.04 473.878 310.311C473.617 310.582 473.47 310.944 473.47 311.32C473.47 311.697 473.617 312.059 473.878 312.329C474.14 312.6 474.496 312.759 474.873 312.772Z" fill="black"/>
<path d="M482.741 321.54C486.477 321.54 486.483 315.733 482.741 315.733C479.004 315.733 478.998 321.54 482.741 321.54Z" fill="black"/>
<path d="M313.526 241.623L304.274 256.575L304.252 256.61L304.213 256.62C300.183 257.699 296.075 258.461 291.927 258.901C289.849 259.108 287.761 259.21 285.673 259.207C283.577 259.182 281.487 258.98 279.425 258.603L279.249 258.57L279.229 258.387C279.161 257.236 278.985 256.094 278.701 254.977C278.385 253.88 277.889 252.843 277.236 251.907C275.916 250.029 274.019 248.633 271.834 247.932L271.701 247.889L271.657 247.756L268.897 239.455L268.208 237.38L267.863 236.342L267.69 235.823C267.641 235.674 267.574 235.531 267.49 235.398C267.322 235.134 267.089 234.917 266.813 234.769C266.537 234.622 266.227 234.548 265.914 234.555C265.601 234.563 265.295 234.651 265.026 234.811C264.757 234.972 264.535 235.199 264.38 235.471C264.225 235.742 264.143 236.049 264.143 236.362C264.17 236.703 264.227 237.04 264.314 237.371L264.764 239.511L265.664 243.791L266.565 248.071C266.628 248.289 266.645 248.518 266.614 248.743C266.579 248.932 266.499 249.11 266.38 249.261C266.262 249.413 266.108 249.533 265.933 249.613C265.758 249.693 265.567 249.729 265.375 249.719C265.182 249.709 264.996 249.652 264.83 249.555C264.607 249.424 264.433 249.225 264.333 248.987L264.151 248.441L263.813 247.402L261.108 239.084L260.432 237.004C260.32 236.674 260.203 236.275 260.097 236.001C259.947 235.654 259.689 235.366 259.361 235.178C259.033 234.991 258.654 234.915 258.279 234.962C257.905 235.008 257.555 235.175 257.283 235.437C257.012 235.699 256.832 236.042 256.772 236.415C256.732 236.73 256.76 237.05 256.853 237.353L257.085 238.422L257.549 240.558L258.477 244.832L259.405 249.106L259.638 250.187C259.687 250.456 259.648 250.733 259.527 250.978C259.406 251.223 259.209 251.422 258.966 251.546C258.58 251.686 258.184 251.799 257.782 251.882C257.51 251.918 257.234 251.866 256.995 251.733C256.755 251.6 256.565 251.393 256.452 251.143L253.748 242.777L252.407 238.614L252.071 237.573C251.992 237.29 251.84 237.033 251.631 236.827C251.427 236.624 251.173 236.477 250.895 236.402C250.618 236.326 250.325 236.324 250.046 236.396C249.768 236.465 249.514 236.607 249.309 236.808C249.105 237.009 248.959 237.262 248.886 237.539C248.805 237.821 248.79 238.119 248.844 238.408L249.072 239.461L250.012 243.732L251.875 252.303C251.92 252.585 251.873 252.875 251.741 253.128C251.608 253.381 251.398 253.584 251.14 253.707C250.882 253.831 250.592 253.867 250.312 253.812C250.031 253.757 249.777 253.612 249.585 253.4C249.425 253.21 249.311 252.985 249.251 252.743L249.083 252.223L248.746 251.183L247.398 247.022L246.05 242.862L245.381 240.818C245.27 240.549 245.091 240.314 244.862 240.135C244.633 239.956 244.361 239.84 244.074 239.797C243.786 239.754 243.493 239.786 243.221 239.891C242.95 239.995 242.71 240.168 242.525 240.392C242.34 240.617 242.214 240.886 242.162 241.173C242.118 241.48 242.141 241.793 242.23 242.091L243.127 246.371L244.922 254.932L245.258 256.537L244.218 255.271L240.721 251.009L241.415 250.676C241.919 252.982 242.615 255.243 243.495 257.433C243.927 258.516 244.469 259.551 245.111 260.524C245.423 260.99 245.794 261.413 246.216 261.781C246.666 262.136 247.146 262.451 247.651 262.722C248.663 263.276 249.76 263.658 250.897 263.852C251.464 263.95 252.038 263.999 252.612 263.997C253.208 263.996 253.82 264 254.421 264.034C256.827 264.189 259.21 264.599 261.53 265.256L261.613 265.279L261.673 265.334C264.512 267.799 267.622 269.932 270.944 271.693C274.216 273.576 277.52 275.405 280.867 277.149C284.218 278.884 287.602 280.561 291.079 282.014C294.487 283.6 298.132 284.615 301.869 285.018C305.618 285.306 309.373 284.535 312.704 282.791C316.012 280.986 318.941 278.56 321.331 275.647C323.752 272.75 325.874 269.617 327.667 266.294C329.481 262.978 331.101 259.561 332.522 256.059C331.143 259.581 329.562 263.02 327.787 266.36C326.028 269.716 323.936 272.887 321.541 275.824C319.157 278.801 316.221 281.29 312.896 283.156C309.511 284.989 305.672 285.811 301.833 285.523C298.038 285.132 294.333 284.119 290.866 282.525C287.361 281.077 283.959 279.409 280.59 277.683C277.227 275.947 273.908 274.129 270.621 272.255C267.251 270.484 264.092 268.336 261.208 265.851L261.351 265.928C259.076 265.293 256.741 264.901 254.384 264.758C253.795 264.728 253.214 264.726 252.618 264.729C252 264.734 251.383 264.685 250.774 264.582C249.555 264.379 248.379 263.974 247.292 263.386C246.745 263.096 246.225 262.757 245.738 262.375C245.257 261.962 244.835 261.487 244.481 260.962C243.805 259.946 243.235 258.864 242.779 257.732C241.874 255.498 241.158 253.193 240.639 250.839L240.269 249.213L241.334 250.506L244.839 254.761L244.136 255.099L242.306 246.547L241.391 242.271C241.279 241.865 241.252 241.441 241.312 241.024C241.407 240.478 241.677 239.978 242.081 239.599C242.484 239.219 243 238.981 243.551 238.92C244.101 238.858 244.657 238.977 245.134 239.258C245.612 239.539 245.985 239.967 246.198 240.478C246.466 241.233 246.665 241.88 246.901 242.586L248.266 246.741L249.631 250.895L249.972 251.933C250.045 252.222 250.149 252.503 250.283 252.769C250.338 252.83 250.411 252.872 250.491 252.887C250.571 252.903 250.654 252.893 250.728 252.857C250.802 252.822 250.862 252.763 250.9 252.691C250.938 252.618 250.951 252.535 250.938 252.455L249.083 243.934L248.161 239.659L247.931 238.573C247.853 238.143 247.877 237.7 248 237.28C248.121 236.85 248.353 236.46 248.673 236.149C248.993 235.838 249.39 235.617 249.823 235.51C250.471 235.348 251.157 235.445 251.736 235.778C252.316 236.112 252.743 236.657 252.929 237.299L253.26 238.341L254.584 242.509L257.22 250.8C257.258 250.885 257.323 250.955 257.404 251.001C257.485 251.046 257.578 251.065 257.67 251.053C257.883 251.002 258.432 250.863 258.591 250.803C258.674 250.761 258.743 250.692 258.785 250.608C258.827 250.524 258.84 250.429 258.824 250.336L258.6 249.279L257.69 245.002L256.78 240.725L256.325 238.586L256.097 237.517C255.985 237.118 255.957 236.701 256.013 236.291C256.101 235.757 256.359 235.266 256.749 234.891C257.14 234.516 257.641 234.278 258.178 234.212C258.716 234.146 259.26 234.256 259.729 234.526C260.199 234.795 260.568 235.209 260.782 235.706C260.936 236.113 261.017 236.417 261.138 236.777L261.805 238.859L264.476 247.188L264.809 248.229L264.97 248.721C265.011 248.822 265.085 248.907 265.179 248.962C265.274 249.018 265.384 249.042 265.494 249.031C265.603 249.019 265.706 248.974 265.788 248.9C265.868 248.825 265.923 248.726 265.945 248.618C265.959 248.48 265.944 248.341 265.9 248.21L265.018 243.927L264.135 239.644L263.694 237.503C263.598 237.128 263.538 236.745 263.514 236.359C263.517 235.833 263.69 235.322 264.008 234.903C264.325 234.483 264.771 234.179 265.276 234.034C265.782 233.889 266.321 233.912 266.813 234.1C267.304 234.288 267.722 234.63 268.002 235.075C268.112 235.25 268.2 235.439 268.264 235.637L268.434 236.156L268.775 237.195L269.456 239.272L272.18 247.583L272.003 247.407C274.298 248.153 276.286 249.629 277.665 251.609C278.346 252.594 278.861 253.684 279.189 254.836C279.476 255.983 279.654 257.155 279.719 258.336L279.523 258.119C281.555 258.497 283.614 258.715 285.68 258.77C287.753 258.798 289.827 258.721 291.892 258.541C296.029 258.152 300.129 257.442 304.156 256.417L304.095 256.462L313.526 241.623Z" fill="#020202"/>
</svg>
