<svg width="700" height="550" viewBox="0 0 700 550" fill="none" xmlns="http://www.w3.org/2000/svg">
<path d="M408.404 162.313C404.253 162.148 387.123 166.842 387.123 166.842C387.123 166.842 391.914 164.403 392.088 136.531C392.262 108.659 402.627 114.059 402.627 114.059C402.379 114.479 402.214 114.942 402.143 115.424C399.753 116.508 392.107 121.589 394.44 141.757C394.44 141.757 394.788 155.519 404.021 157.783C405.356 157.974 406.634 158.453 407.766 159.187C408.162 161.151 408.404 162.313 408.404 162.313Z" fill="#020202"/>
<path d="M448.954 163.832C447.766 163.919 446.585 164.09 445.422 164.345L424.663 173.423C400.469 187.969 374.29 213.847 374.29 213.847C374.29 213.847 378.326 228.634 373.216 234.315C373.216 234.315 397.391 242.164 400.227 244.341C442.209 247.477 462.096 167.887 462.096 167.887C456.938 162.652 448.954 163.832 448.954 163.832ZM384.384 223.253C383.929 223.312 383.465 223.35 383 223.389C382.071 223.421 381.141 223.337 380.233 223.137C379.305 222.94 378.421 222.58 377.62 222.073C376.8 221.589 376.156 220.857 375.781 219.982C376.424 220.585 377.167 221.069 377.978 221.415C378.771 221.76 379.598 222.019 380.446 222.189C381.287 222.402 382.159 222.499 383.029 222.634C383.475 222.663 383.92 222.731 384.365 222.779C384.81 222.818 385.265 222.857 385.73 222.934C385.284 223.07 384.83 223.157 384.384 223.253ZM417.395 228.944C416.94 229.012 416.485 229.05 416.021 229.079C415.088 229.111 414.155 229.027 413.243 228.828C412.319 228.636 411.437 228.279 410.64 227.773C409.818 227.288 409.173 226.552 408.801 225.673C409.441 226.279 410.185 226.764 410.998 227.105C411.787 227.453 412.611 227.716 413.456 227.889C414.313 228.08 415.178 228.225 416.05 228.325C416.495 228.363 416.93 228.421 417.385 228.47C417.84 228.501 418.292 228.556 418.74 228.634C418.305 228.76 417.85 228.857 417.395 228.944H417.395Z" fill="#020202"/>
<path d="M326.988 399.477C327.618 403.244 328.05 407.041 328.43 410.841C328.777 414.645 329.111 418.448 329.102 422.314C329.115 423.278 329.09 424.232 329.05 425.197C329.022 425.687 329.022 426.145 328.969 426.662C328.919 427.183 328.828 427.699 328.698 428.206C328.142 430.249 326.907 432.041 325.196 433.287C324.343 433.902 323.394 434.37 322.387 434.673C321.394 434.954 320.364 435.078 319.332 435.042C317.426 435.057 315.519 435.01 313.613 434.997C309.8 434.97 305.986 434.872 302.174 434.894C298.362 434.913 294.551 434.991 290.741 435.127C283.122 435.427 275.506 435.868 267.886 436.109C267.746 436.114 267.606 436.084 267.48 436.022C267.354 435.96 267.245 435.868 267.162 435.755L267.152 435.741C266.335 434.661 265.767 433.414 265.489 432.089C265.235 430.689 265.436 429.245 266.062 427.967C266.691 426.754 267.592 425.703 268.696 424.898C269.8 424.093 271.076 423.555 272.423 423.326C277.079 422.12 281.67 420.671 286.175 418.986C288.453 418.175 290.721 417.33 292.979 416.453L296.362 415.125C297.457 414.742 298.493 414.209 299.442 413.541C301.318 412.129 302.776 410.236 303.661 408.061C304.561 405.833 305.068 403.466 305.159 401.064C305.16 401.039 305.171 401.015 305.19 400.997C305.209 400.98 305.234 400.971 305.26 400.972C305.284 400.974 305.307 400.984 305.324 401.001C305.341 401.018 305.351 401.041 305.352 401.065C305.488 403.53 305.167 405.998 304.405 408.346C303.6 410.754 302.141 412.89 300.192 414.516C299.193 415.305 298.094 415.956 296.923 416.453L293.582 417.923C291.348 418.89 289.101 419.83 286.84 420.741C282.305 422.606 277.641 424.141 272.885 425.333C271.824 425.481 270.811 425.872 269.926 426.477C269.041 427.081 268.309 427.883 267.785 428.818C267.311 429.726 267.142 430.763 267.303 431.775C267.51 432.838 267.948 433.843 268.585 434.718L267.852 434.349C275.475 434.293 283.103 434.436 290.728 434.438C294.54 434.43 298.351 434.358 302.161 434.224C305.97 434.096 309.778 433.849 313.587 433.674C315.491 433.586 317.395 433.464 319.3 433.405C321.048 433.436 322.758 432.901 324.176 431.88C325.582 430.872 326.609 429.423 327.096 427.763C327.209 427.349 327.289 426.926 327.338 426.499C327.398 426.07 327.418 425.573 327.461 425.113C327.531 424.177 327.588 423.225 327.607 422.284C327.763 418.524 327.551 414.712 327.421 410.91C327.267 407.106 327.069 403.303 326.796 399.5C326.794 399.476 326.801 399.451 326.817 399.432C326.833 399.412 326.856 399.4 326.88 399.397C326.905 399.394 326.93 399.4 326.95 399.415C326.97 399.43 326.984 399.452 326.988 399.477L326.988 399.477Z" fill="#020202"/>
<path d="M326.042 431.286L292.501 432.149C292.542 430.514 292.531 421.847 287.769 419.38C282.504 416.652 279.806 422.259 279.806 422.259C279.806 422.259 286.92 426.57 282.996 432.393L266.749 432.811C266.19 432.827 265.66 433.064 265.276 433.471C264.892 433.877 264.686 434.419 264.701 434.978C264.717 435.537 264.955 436.067 265.361 436.451C265.767 436.835 266.31 437.042 266.869 437.026L326.152 435.29C326.682 435.275 327.185 435.05 327.549 434.664C327.913 434.278 328.11 433.764 328.095 433.233C328.081 432.703 327.856 432.2 327.471 431.835C327.086 431.47 326.572 431.273 326.042 431.286V431.286Z" fill="#020202"/>
<path d="M264.836 358.236C264.475 359.877 264.084 361.506 263.586 363.128C263.083 364.773 262.35 366.281 261.777 367.837C261.163 369.412 260.527 370.969 259.795 372.498C259.445 373.318 258.995 374.092 258.456 374.803C257.602 375.887 256.515 376.766 255.276 377.375C254.037 377.984 252.677 378.307 251.297 378.32C250.374 378.323 249.455 378.197 248.567 377.947C247.649 377.66 246.944 377.329 246.149 377.019C243.037 375.779 239.965 374.44 236.896 373.093L227.681 369.072C224.602 367.75 221.489 366.51 218.373 365.281C212.133 362.841 205.805 360.62 199.541 358.241C199.426 358.197 199.323 358.126 199.242 358.034C199.16 357.942 199.103 357.831 199.074 357.711L199.068 357.684C198.708 356.32 198.677 354.889 198.977 353.511C199.34 352.077 200.177 350.808 201.351 349.909C202.489 349.018 203.846 348.449 205.279 348.264C205.98 348.167 206.689 348.149 207.394 348.208C207.741 348.233 208.104 348.289 208.426 348.341L209.35 348.485C214.309 349.183 219.382 349.465 224.443 349.704C226.977 349.799 229.513 349.915 232.053 349.977C233.317 349.999 234.622 350.075 235.784 349.99C236.983 349.889 238.162 349.623 239.287 349.199C241.585 348.339 243.582 346.83 245.038 344.855C245.77 343.843 246.388 342.754 246.881 341.606L248.545 338.164C248.556 338.141 248.575 338.124 248.598 338.115C248.621 338.106 248.647 338.107 248.67 338.117C248.693 338.126 248.711 338.144 248.721 338.167C248.731 338.19 248.732 338.216 248.723 338.239L247.406 341.829C247.003 343.067 246.457 344.253 245.78 345.365C244.332 347.615 242.261 349.396 239.819 350.49C238.588 351.038 237.281 351.395 235.942 351.551C234.569 351.702 233.321 351.667 232.041 351.698C229.488 351.725 226.933 351.754 224.378 351.679C219.241 351.629 214.114 351.215 209.035 350.442L208.076 350.27C207.771 350.214 207.506 350.167 207.217 350.139C206.654 350.078 206.085 350.08 205.522 350.145C204.412 350.26 203.353 350.674 202.46 351.342C201.578 351.984 200.936 352.902 200.635 353.951C200.356 355.063 200.343 356.225 200.597 357.343L200.124 356.787C206.296 359.395 212.405 362.162 218.602 364.709C221.704 365.973 224.811 367.228 227.95 368.399L237.391 371.859C240.54 373.006 243.686 374.16 246.793 375.414C247.558 375.715 248.388 376.06 249.064 376.288C249.787 376.502 250.536 376.617 251.29 376.629C252.814 376.63 254.305 376.19 255.584 375.362C256.226 374.95 256.802 374.444 257.293 373.861C257.783 373.248 258.203 372.583 258.547 371.878C259.348 370.426 260.031 368.902 260.751 367.404C261.439 365.857 262.282 364.395 262.915 362.884C263.547 361.353 264.074 359.757 264.65 358.182C264.658 358.159 264.675 358.14 264.697 358.129C264.719 358.118 264.744 358.115 264.767 358.122C264.791 358.129 264.811 358.144 264.824 358.166C264.837 358.187 264.841 358.212 264.836 358.236L264.836 358.236Z" fill="#020202"/>
<path d="M254.931 376.587L223.713 364.29C224.389 362.801 227.761 354.818 224.34 350.688C220.557 346.122 215.884 350.231 215.884 350.231C215.884 350.231 220.752 356.976 214.866 360.806L199.745 354.85C199.487 354.749 199.212 354.7 198.935 354.705C198.658 354.711 198.384 354.771 198.131 354.882C197.877 354.993 197.647 355.153 197.456 355.352C197.264 355.552 197.113 355.788 197.012 356.046C196.911 356.304 196.862 356.579 196.868 356.856C196.874 357.133 196.934 357.406 197.045 357.66C197.156 357.913 197.316 358.143 197.516 358.335C197.716 358.526 197.952 358.677 198.21 358.777L253.469 380.316C253.964 380.509 254.514 380.498 255.001 380.285C255.487 380.072 255.869 379.675 256.062 379.181C256.256 378.687 256.246 378.136 256.033 377.65C255.821 377.163 255.424 376.781 254.931 376.586V376.587Z" fill="#020202"/>
<path d="M408.027 163.009C408.407 162.439 408.616 161.772 408.627 161.087C408.607 160.769 408.513 160.46 408.352 160.185C408.191 159.911 407.967 159.678 407.699 159.506C406.563 158.813 405.277 158.4 403.95 158.301L403.905 158.293L403.896 158.291C402.162 157.9 400.548 157.099 399.189 155.955C397.887 154.764 396.813 153.345 396.02 151.769C395.234 150.224 394.637 148.591 394.241 146.903C393.831 145.223 393.576 143.508 393.477 141.781L393.483 141.867C393.36 140.614 393.261 139.358 393.164 138.102C393.143 136.838 393.058 135.578 393.091 134.312C393.138 131.771 393.431 129.24 393.966 126.755C394.521 124.25 395.521 121.864 396.92 119.713C397.657 118.666 398.526 117.72 399.507 116.897C400.471 116.072 401.611 115.479 402.84 115.163C400.632 116.245 398.842 118.023 397.745 120.223C396.625 122.367 395.856 124.676 395.468 127.063C395.09 129.465 394.915 131.895 394.944 134.326C394.927 135.544 395.026 136.767 395.06 137.987L395.396 141.646L395.397 141.662L395.402 141.733C395.477 143.331 395.696 144.919 396.055 146.478C396.384 148.043 396.884 149.566 397.546 151.021C398.199 152.45 399.083 153.761 400.162 154.903C401.298 155.978 402.659 156.788 404.145 157.276L404.091 157.265C404.811 157.404 405.514 157.62 406.189 157.909C406.878 158.183 407.514 158.574 408.071 159.065C408.365 159.312 408.598 159.624 408.751 159.976C408.904 160.328 408.974 160.711 408.954 161.095C408.843 161.811 408.52 162.478 408.027 163.009Z" fill="#020202"/>
<path d="M407.032 158.752C408.249 158.147 409.402 157.645 410.513 157.042C411.077 156.761 411.607 156.428 412.148 156.097C412.693 155.765 413.193 155.377 413.771 154.998C413.509 155.634 413.117 156.208 412.621 156.685C412.132 157.168 411.575 157.576 410.967 157.896C410.364 158.214 409.722 158.453 409.059 158.609C408.397 158.776 407.711 158.824 407.032 158.752Z" fill="#020202"/>
<path d="M375.067 225.469C372.014 224.707 368.975 223.899 365.952 223.043C362.928 222.19 359.914 221.307 356.91 220.392C356.798 220.358 356.695 220.3 356.609 220.222C356.522 220.144 356.454 220.047 356.409 219.94C356.364 219.832 356.343 219.716 356.349 219.6C356.354 219.483 356.384 219.369 356.438 219.266L356.453 219.24L361.342 210.07L366.395 200.983C368.071 197.949 369.725 194.899 371.17 191.751C372.676 188.633 373.93 185.399 374.919 182.08C376.031 178.727 377.604 175.546 379.593 172.627C381.622 169.595 384.425 167.161 387.711 165.577C391.032 164.375 394.451 163.465 397.931 162.857C401.367 162.203 404.827 161.744 408.288 161.35C408.463 161.33 408.64 161.357 408.801 161.429C408.961 161.501 409.099 161.615 409.2 161.759C409.302 161.903 409.362 162.072 409.376 162.247C409.389 162.423 409.355 162.598 409.277 162.756C408.335 164.685 407.528 166.677 406.862 168.717C406.183 170.776 405.618 172.872 405.171 174.993C404.696 177.117 404.366 179.27 404.184 181.438C403.971 183.616 403.892 185.805 403.945 187.993C403.947 188.018 403.938 188.044 403.92 188.063C403.903 188.082 403.879 188.093 403.853 188.094C403.829 188.094 403.806 188.086 403.788 188.071C403.769 188.055 403.757 188.034 403.753 188.01C403.441 185.819 403.292 183.607 403.309 181.393C403.337 179.17 403.516 176.952 403.845 174.753C404.165 172.547 404.637 170.365 405.259 168.224C405.857 166.054 406.618 163.933 407.537 161.878L408.526 163.284C405.103 163.75 401.697 164.283 398.307 164.884C394.941 165.429 391.623 166.235 388.383 167.295C388.196 167.37 387.999 167.441 387.824 167.52C387.649 167.592 387.48 167.679 387.32 167.781L386.249 168.408C385.898 168.627 385.56 168.864 385.235 169.12C384.892 169.353 384.564 169.608 384.252 169.881C382.969 170.964 381.804 172.18 380.777 173.508C378.68 176.209 376.976 179.193 375.714 182.372C375.095 183.943 374.542 185.655 373.821 187.23C373.165 188.844 372.419 190.414 371.715 192.002L367.387 201.485C365.919 204.635 364.452 207.788 362.857 210.873C361.253 213.956 359.575 216.993 357.856 220.017L357.399 218.865C360.374 219.871 363.341 220.903 366.299 221.962C369.255 223.026 372.197 224.134 375.126 225.285C375.149 225.294 375.168 225.311 375.178 225.333C375.189 225.356 375.19 225.381 375.183 225.404C375.175 225.428 375.159 225.448 375.138 225.46C375.116 225.472 375.091 225.475 375.067 225.469V225.469Z" fill="#020202"/>
<path d="M462.135 167.801C464.412 168.534 466.613 169.487 468.706 170.644L468.554 170.584C470.036 171.007 471.396 171.777 472.521 172.832C473.636 173.828 474.626 174.957 475.467 176.194C475.894 176.801 476.285 177.432 476.637 178.085C477.019 178.718 477.358 179.376 477.65 180.055C477.946 180.729 478.311 181.381 478.548 182.076L479.291 184.152C481.076 189.718 482.034 195.515 482.134 201.359C482.323 204.256 482.218 207.154 482.225 210.045C482.21 212.934 482.151 215.814 482.18 218.699C482.2 224.467 482.393 230.235 482.556 236.003C482.561 236.177 482.497 236.346 482.377 236.473C482.257 236.6 482.091 236.674 481.917 236.679L481.849 236.677L481.806 236.674C479.562 236.503 477.325 236.276 475.084 236.079L468.367 235.434C463.892 234.975 459.41 234.577 454.941 234.068L454.935 234.067C454.695 234.04 454.472 233.929 454.305 233.753C454.138 233.578 454.039 233.349 454.023 233.108L452.795 213.477L452.164 203.662C451.917 200.393 451.72 197.12 451.339 193.864C451.338 193.851 451.338 193.838 451.342 193.826C451.345 193.814 451.351 193.802 451.358 193.792C451.366 193.782 451.376 193.773 451.387 193.767C451.398 193.761 451.41 193.757 451.423 193.755C451.446 193.752 451.47 193.758 451.49 193.772C451.51 193.786 451.524 193.806 451.53 193.829C451.899 195.433 452.194 197.054 452.465 198.677C452.742 200.299 452.98 201.926 453.197 203.555C453.63 206.814 454.051 210.074 454.376 213.343C455.064 219.878 455.671 226.416 456.085 232.974L455.167 232.015C459.64 232.493 464.101 233.081 468.568 233.61L475.264 234.445C477.494 234.742 479.728 235.009 481.955 235.331L481.205 236.002C481.368 230.235 481.561 224.467 481.581 218.699C481.689 212.942 481.455 207.183 480.88 201.453C480.352 195.772 479.286 190.154 477.697 184.675C476.88 181.979 475.733 179.394 474.282 176.98C473.56 175.791 472.695 174.694 471.707 173.715C470.781 172.726 469.645 171.958 468.381 171.469L468.28 171.435C468.262 171.428 468.244 171.42 468.228 171.408C466.267 170.104 464.206 168.958 462.063 167.981C462.041 167.97 462.024 167.951 462.015 167.928C462.007 167.906 462.007 167.88 462.016 167.857C462.025 167.835 462.042 167.816 462.064 167.806C462.087 167.795 462.112 167.794 462.135 167.801L462.135 167.801Z" fill="#020202"/>
<path d="M385.725 180.779C385.322 183.094 384.781 185.383 384.105 187.634C383.757 188.773 383.342 189.89 382.863 190.981C382.338 192.09 381.773 193.091 381.246 194.137C380.184 196.217 379.062 198.261 377.968 200.321L376.286 203.388C375.704 204.301 375.264 205.297 374.98 206.341C374.576 208.511 374.592 210.737 375.029 212.9C375.218 214.016 375.477 215.118 375.804 216.201C376.166 217.364 376.407 218.562 376.523 219.774C376.639 220.979 376.634 222.191 376.508 223.394C376.403 224.566 376.283 225.737 376.12 226.905C375.949 228.074 375.72 229.235 375.433 230.381C375.29 230.959 375.105 231.524 374.879 232.075C374.626 232.589 374.33 233.219 373.738 233.387C373.972 233.225 374.17 233.016 374.319 232.773C374.468 232.53 374.565 232.259 374.604 231.976C374.751 231.42 374.86 230.854 374.93 230.283C375.069 229.133 375.151 227.977 375.175 226.819C375.221 225.661 375.243 224.501 375.241 223.339C375.271 222.211 375.199 221.082 375.025 219.967C374.837 218.864 374.557 217.778 374.189 216.72C373.796 215.581 373.475 214.418 373.228 213.239C372.692 210.82 372.649 208.317 373.101 205.881C373.441 204.671 373.959 203.519 374.639 202.462L376.38 199.416C377.569 197.402 378.728 195.371 379.948 193.376L381.737 190.411C382.286 189.405 382.781 188.369 383.22 187.309C384.164 185.189 384.924 182.981 385.725 180.779Z" fill="#020202"/>
<path d="M454.204 218.393C453.847 219.942 453.414 221.416 452.965 222.878L451.616 227.229L450.276 231.562C449.839 233.018 449.45 234.48 448.959 236.001C448.661 234.441 448.606 232.845 448.794 231.268C448.967 229.7 449.293 228.153 449.77 226.649C450.244 225.152 450.847 223.699 451.573 222.307C452.281 220.896 453.165 219.581 454.204 218.393Z" fill="#020202"/>
<path d="M480.928 235.875C481.348 239.435 481.146 243.041 480.329 246.531C479.909 248.324 479.11 250.007 477.985 251.465C477.387 252.202 476.66 252.824 475.84 253.3C475.027 253.718 474.187 254.081 473.325 254.386C470.002 255.651 466.673 256.864 463.335 258.06L453.293 261.557C446.597 263.883 439.895 266.187 433.154 268.376C426.434 270.628 419.656 272.703 412.9 274.849L413.276 274.383C412.862 277.78 412.275 281.154 411.517 284.491C411.328 285.334 411.097 286.167 410.824 286.986C410.687 287.408 410.518 287.819 410.319 288.216C410.088 288.654 409.841 288.958 409.686 289.303C409.524 289.642 409.438 290.013 409.434 290.389L409.452 291.661L409.504 294.21C409.585 297.606 409.728 301.012 410.132 304.37C410.22 305.199 410.367 306.02 410.571 306.829C410.933 307.681 411.004 308.63 410.772 309.527C410.624 309.992 410.355 310.41 409.994 310.739C409.622 311.061 409.169 311.275 408.684 311.359C407.779 311.47 406.86 311.379 405.995 311.093L406.472 310.827C406.298 311.451 406.015 312.041 405.638 312.568C405.251 313.124 404.712 313.558 404.086 313.819C403.445 314.064 402.745 314.109 402.077 313.948C401.759 313.873 401.447 313.775 401.143 313.657L400.289 313.227L400.984 312.959C400.71 313.819 400.217 314.593 399.552 315.203C398.849 315.831 397.935 316.171 396.992 316.156C396.1 316.12 395.226 315.885 394.436 315.468C394.069 315.253 393.681 315.059 393.332 314.823L392.307 314.086L392.755 314.22C391.963 314.251 391.174 314.108 390.442 313.802C389.711 313.496 389.055 313.033 388.521 312.447C387.534 311.323 386.822 309.985 386.439 308.539L383.733 300.714C383.668 300.525 383.674 300.317 383.752 300.132C383.829 299.947 383.973 299.797 384.154 299.711C384.336 299.625 384.542 299.61 384.735 299.667C384.927 299.724 385.092 299.85 385.197 300.022C385.507 300.479 385.719 300.996 385.819 301.539C385.885 301.932 385.821 302.336 385.636 302.69C385.435 303.032 385.132 303.302 384.769 303.462C384.235 303.691 383.651 303.782 383.073 303.727C382.526 303.692 381.991 303.549 381.499 303.306C380.948 303.043 380.493 302.614 380.197 302.08C379.934 301.587 379.775 301.045 379.732 300.487C379.676 299.529 379.76 298.567 379.981 297.632C380.38 295.887 380.904 294.173 381.548 292.503C382.22 290.83 383.061 289.229 384.058 287.726L383.896 288.258C384.056 284.198 384.824 280.185 386.173 276.353C387.539 272.525 389.525 268.947 392.05 265.763C393.327 264.179 394.748 262.716 396.293 261.393C397.835 260.046 399.537 258.895 401.361 257.965C404.952 256.174 408.494 254.554 412.071 252.855C419.209 249.498 426.331 246.106 433.498 242.809C440.645 239.47 447.83 236.212 455.015 232.952C455.038 232.942 455.064 232.941 455.088 232.949C455.111 232.958 455.131 232.976 455.142 232.998C455.153 233.021 455.154 233.047 455.146 233.071C455.138 233.095 455.121 233.115 455.098 233.126C448.083 236.739 441.069 240.353 434.016 243.886C426.984 247.462 419.906 250.942 412.845 254.457L402.274 259.693C400.583 260.562 399.007 261.638 397.582 262.897C396.136 264.145 394.808 265.525 393.616 267.017C391.247 270.038 389.387 273.423 388.106 277.042C386.792 280.648 386.02 284.43 385.813 288.263L385.811 288.308C385.803 288.482 385.747 288.65 385.65 288.794C384.709 290.179 383.911 291.656 383.269 293.202C382.646 294.769 382.134 296.378 381.737 298.016C381.369 299.589 381.28 301.359 382.287 301.761C382.836 302.046 383.473 302.108 384.067 301.933C384.16 301.893 384.188 301.854 384.177 301.879C384.163 301.903 384.194 301.877 384.177 301.763C384.114 301.45 383.991 301.153 383.815 300.887L385.278 300.194L387.841 308.117C388.132 309.366 388.702 310.532 389.507 311.529C389.906 311.986 390.394 312.357 390.941 312.618C391.469 312.87 392.046 313.003 392.631 313.005L392.662 313.005C392.812 313 392.96 313.048 393.079 313.14L393.998 313.843C394.308 314.069 394.642 314.243 394.962 314.449C395.591 314.808 396.292 315.025 397.014 315.082C397.698 315.117 398.369 314.888 398.89 314.443C399.429 313.967 399.838 313.363 400.08 312.686L400.083 312.678C400.106 312.617 400.14 312.562 400.184 312.515C400.228 312.468 400.281 312.43 400.339 312.403C400.398 312.377 400.461 312.362 400.526 312.36C400.59 312.357 400.655 312.368 400.715 312.39L400.775 312.418L401.51 312.813C401.759 312.916 402.015 313.003 402.274 313.073C402.77 313.211 403.295 313.195 403.78 313.026C404.262 312.796 404.687 312.462 405.026 312.049C405.365 311.637 405.609 311.155 405.741 310.637L405.749 310.613C405.763 310.567 405.787 310.523 405.819 310.486C405.851 310.448 405.89 310.417 405.933 310.395C405.977 310.372 406.025 310.359 406.073 310.355C406.122 310.351 406.172 310.356 406.218 310.371C406.965 310.647 407.766 310.745 408.558 310.659C408.919 310.604 409.258 310.449 409.535 310.209C409.812 309.97 410.015 309.658 410.122 309.308C410.315 308.542 410.249 307.735 409.935 307.011C409.729 306.167 409.584 305.31 409.5 304.446C409.138 301.038 409.021 297.635 408.865 294.23L408.78 291.676L408.745 290.397C408.742 289.919 408.844 289.446 409.044 289.011C409.238 288.577 409.522 288.206 409.678 287.885C409.854 287.518 410.003 287.139 410.124 286.75C410.378 285.952 410.592 285.141 410.764 284.32C411.407 280.995 411.879 277.64 412.176 274.266C412.187 274.163 412.226 274.064 412.291 273.982C412.355 273.9 412.442 273.838 412.54 273.804L412.552 273.8C419.245 271.473 425.91 269.059 432.628 266.808C439.325 264.493 446.057 262.279 452.783 260.054L472.93 253.317C473.746 253.055 474.545 252.742 475.321 252.377C476.049 251.983 476.7 251.46 477.24 250.833C478.322 249.503 479.125 247.97 479.603 246.324C480.546 242.932 480.928 239.409 480.735 235.894L480.735 235.889C480.734 235.864 480.743 235.839 480.76 235.821C480.776 235.802 480.8 235.791 480.825 235.789C480.85 235.787 480.874 235.795 480.894 235.811C480.913 235.827 480.925 235.85 480.928 235.875L480.928 235.875Z" fill="#020202"/>
<path d="M358.256 219.978C356.588 222.708 354.982 225.466 353.602 228.329C352.157 231.126 351.016 234.068 350.197 237.107C349.486 240.054 349.313 243.42 351.779 244.979C354.362 246.734 357.109 248.233 359.983 249.454C362.856 250.792 365.792 252.022 368.737 253.232C371.674 254.464 374.646 255.617 377.607 256.806L395.44 263.834C389.254 262.189 383.135 260.319 377.083 258.223C371.029 256.14 365.038 253.867 359.174 251.211C356.172 249.91 353.314 248.302 350.645 246.412C350.3 246.135 349.972 245.837 349.662 245.521C349.348 245.165 349.076 244.774 348.852 244.354C348.424 243.545 348.171 242.654 348.111 241.739C348.005 240.042 348.219 238.34 348.742 236.722C349.719 233.622 351.073 230.652 352.772 227.88C354.419 225.125 356.251 222.485 358.256 219.978Z" fill="#020202"/>
<path d="M359.769 238.091C360.365 236.897 361.296 235.902 362.447 235.228C363.589 234.516 364.848 234.013 366.166 233.741C368.802 233.25 371.506 233.244 374.145 233.722C375.456 233.939 376.752 234.233 378.027 234.603C378.663 234.788 379.305 234.957 379.936 235.155L381.803 235.818C384.3 236.711 386.667 237.701 389.105 238.637C393.931 240.579 398.747 242.543 403.523 244.612C408.309 246.656 413.051 248.817 417.748 251.095C412.779 249.519 407.852 247.827 402.968 246.017C398.075 244.232 393.222 242.342 388.379 240.43C385.973 239.466 383.539 238.443 381.156 237.527L379.368 236.82C378.765 236.607 378.154 236.425 377.547 236.225C376.337 235.799 375.098 235.522 373.863 235.2C371.397 234.615 368.852 234.436 366.328 234.67C365.055 234.744 363.813 235.087 362.682 235.677C361.551 236.267 360.559 237.089 359.769 238.091Z" fill="#020202"/>
<path d="M436.734 241.906C435.048 241.95 433.361 241.866 431.688 241.654C430.028 241.463 428.38 241.207 426.748 240.876C425.115 240.551 423.498 240.145 421.894 239.678C420.269 239.224 418.682 238.645 417.146 237.948C418.832 237.902 420.519 237.986 422.193 238.198C423.853 238.39 425.5 238.644 427.132 238.979C428.764 239.307 430.382 239.711 431.986 240.18C433.61 240.634 435.197 241.212 436.734 241.906Z" fill="#020202"/>
<path d="M384.024 300.413L385.29 291.222L384.988 300.495C384.986 300.559 384.971 300.621 384.945 300.679C384.919 300.737 384.881 300.789 384.835 300.833C384.789 300.876 384.734 300.91 384.674 300.933C384.615 300.955 384.552 300.966 384.488 300.964C384.424 300.962 384.362 300.947 384.304 300.921C384.246 300.894 384.194 300.857 384.15 300.811C384.107 300.764 384.073 300.71 384.05 300.65C384.028 300.591 384.017 300.527 384.019 300.464C384.02 300.447 384.021 300.43 384.024 300.413Z" fill="#020202"/>
<path d="M400.094 313.028L397.702 307.565L397.694 307.547L397.69 307.535C397.357 306.461 396.943 305.418 396.685 304.288C396.432 303.171 396.329 302.026 396.378 300.882C396.426 299.737 396.658 298.634 396.808 297.52L397.309 294.183L396.974 297.541C396.879 298.662 396.703 299.781 396.713 300.888C396.721 301.996 396.875 303.098 397.173 304.165C397.467 305.218 397.935 306.254 398.322 307.309L398.31 307.28L400.97 312.617C400.999 312.674 401.016 312.736 401.02 312.8C401.024 312.863 401.016 312.927 400.996 312.987C400.976 313.047 400.944 313.103 400.902 313.151C400.861 313.199 400.81 313.238 400.753 313.267C400.696 313.295 400.634 313.312 400.571 313.316C400.507 313.321 400.444 313.312 400.383 313.292C400.323 313.272 400.267 313.24 400.219 313.199C400.171 313.157 400.132 313.106 400.104 313.049L400.094 313.028Z" fill="#020202"/>
<path d="M405.521 311.149L403.13 305.686L403.122 305.669L403.118 305.657C402.784 304.583 402.37 303.54 402.112 302.41C401.859 301.293 401.756 300.147 401.805 299.003C401.853 297.858 402.085 296.755 402.235 295.642L402.737 292.305L402.402 295.663C402.307 296.783 402.131 297.902 402.141 299.009C402.148 300.117 402.303 301.219 402.6 302.287C402.895 303.34 403.363 304.375 403.75 305.431L403.738 305.402L406.398 310.739C406.426 310.796 406.443 310.858 406.448 310.921C406.452 310.985 406.444 311.048 406.424 311.109C406.404 311.169 406.372 311.225 406.33 311.273C406.288 311.321 406.238 311.36 406.181 311.388C406.124 311.417 406.062 311.434 405.998 311.438C405.935 311.442 405.871 311.434 405.811 311.414C405.751 311.394 405.695 311.362 405.647 311.32C405.599 311.278 405.56 311.228 405.531 311.171L405.521 311.149Z" fill="#020202"/>
<path d="M392.91 314.042L390.795 308.466L390.788 308.448L390.784 308.436C390.505 307.347 390.143 306.284 389.943 305.143C389.746 304.015 389.7 302.865 389.806 301.725C389.911 300.584 390.198 299.494 390.404 298.39L391.071 295.082L390.569 298.419C390.418 299.533 390.186 300.642 390.141 301.748C390.093 302.855 390.192 303.963 390.436 305.044C390.677 306.111 391.093 307.169 391.427 308.242L391.416 308.212L393.806 313.676C393.832 313.734 393.846 313.797 393.847 313.86C393.848 313.924 393.837 313.987 393.814 314.046C393.79 314.105 393.756 314.159 393.712 314.205C393.668 314.251 393.615 314.288 393.557 314.313C393.499 314.339 393.436 314.352 393.372 314.354C393.309 314.355 393.246 314.344 393.186 314.32C393.127 314.297 393.073 314.263 393.027 314.219C392.981 314.175 392.945 314.122 392.919 314.064L392.91 314.042Z" fill="#020202"/>
<path d="M386.509 288.783C387.355 288.944 388.028 289.173 388.708 289.322C389.041 289.396 389.379 289.451 389.718 289.485C390.1 289.506 390.482 289.504 390.864 289.479C390.615 289.849 390.242 290.117 389.812 290.234C389.382 290.35 388.931 290.361 388.496 290.266C388.079 290.165 387.686 289.984 387.338 289.734C386.985 289.492 386.7 289.165 386.509 288.783Z" fill="#020202"/>
<path d="M393.738 289.886C394.63 290.073 395.356 290.31 396.089 290.44C396.448 290.506 396.813 290.542 397.179 290.548C397.587 290.539 397.994 290.502 398.398 290.438C398.15 290.839 397.768 291.141 397.32 291.29C396.868 291.44 396.385 291.475 395.916 291.392C395.465 291.303 395.037 291.125 394.655 290.869C394.271 290.624 393.956 290.286 393.738 289.886Z" fill="#020202"/>
<path d="M401.229 289.886C402.083 289.958 402.768 290.09 403.448 290.118C403.784 290.139 404.12 290.131 404.455 290.093C404.806 290.069 405.145 289.964 405.584 289.886C405.403 290.289 405.087 290.616 404.691 290.811C404.292 291.014 403.846 291.108 403.4 291.084C402.967 291.057 402.546 290.937 402.164 290.734C401.781 290.541 401.458 290.248 401.229 289.886Z" fill="#020202"/>
<path d="M349.508 236.685C343.77 233.609 337.573 231.48 331.156 230.38C324.764 229.365 318.222 229.875 312.064 231.868C305.948 233.933 300.258 237.089 295.268 241.184C292.744 243.206 290.327 245.36 288.027 247.635C285.803 249.999 283.484 252.268 281.386 254.756C280.318 255.982 279.231 257.188 278.18 258.428L275.075 262.192C274.023 263.433 273 264.697 272.006 265.987L268.986 269.823C265.044 275.007 261.182 280.255 257.401 285.566C253.61 290.869 249.954 296.271 246.348 301.705C242.75 307.144 239.221 312.636 235.872 318.229L235.875 317.873C238.96 323.236 242.28 328.485 245.788 333.593C249.318 338.688 252.983 343.692 256.89 348.502C260.793 353.307 264.955 357.896 269.357 362.25C273.755 366.574 278.547 370.481 283.668 373.918C283.765 373.983 283.844 374.07 283.897 374.173C283.951 374.276 283.979 374.39 283.977 374.506L283.73 388.096L283.692 387.836C284.706 390.137 286.254 392.164 288.208 393.749C290.17 395.393 292.386 396.708 294.77 397.644L296.561 398.356C297.166 398.571 297.804 398.698 298.425 398.874L300.297 399.368C300.928 399.514 301.567 399.622 302.21 399.694L304.135 399.974C304.774 400.09 305.42 400.159 306.069 400.179L309.972 400.335C310.623 400.368 311.276 400.356 311.926 400.299L313.883 400.192L315.839 400.085C316.493 400.069 317.145 400.008 317.791 399.904L321.682 399.358L323.627 399.085C324.276 398.995 324.912 398.819 325.555 398.691L329.404 397.852C330.685 397.568 331.976 397.327 333.231 396.925L340.822 394.77L340.112 395.703C340.517 384.564 340.813 373.419 340.999 362.268C341.074 356.696 341.184 351.122 341.149 345.555C341.14 342.772 341.112 339.988 341.011 337.215C340.966 335.827 340.919 334.439 340.807 333.067C340.747 331.675 340.557 330.339 340.376 329L340.369 328.948C340.347 328.786 340.378 328.622 340.455 328.48C340.533 328.337 340.655 328.222 340.802 328.153C345.199 326.093 349.587 324.006 353.965 321.891C356.149 320.829 358.324 319.748 360.488 318.647C362.648 317.542 364.804 316.424 366.895 315.217C366.977 315.17 367.071 315.147 367.165 315.151C367.26 315.155 367.351 315.186 367.428 315.24C369.152 316.486 371.272 317.056 373.388 316.841C375.53 316.631 377.521 315.643 378.982 314.063C379.709 313.264 380.294 312.347 380.713 311.351L382.078 308.322L384.809 302.264C384.819 302.24 384.838 302.222 384.862 302.213C384.886 302.204 384.912 302.204 384.936 302.214C384.959 302.225 384.977 302.243 384.987 302.267C384.996 302.291 384.996 302.317 384.986 302.34L382.444 308.48L381.173 311.55C380.762 312.614 380.173 313.6 379.433 314.466C377.896 316.228 375.764 317.361 373.445 317.65C371.125 317.938 368.78 317.361 366.86 316.028L367.392 316.052C365.296 317.321 363.157 318.489 361.011 319.645C358.864 320.799 356.707 321.93 354.538 323.038C350.207 325.266 345.847 327.435 341.459 329.544L341.884 328.698C342.101 330.12 342.316 331.545 342.395 332.942C342.528 334.348 342.593 335.748 342.657 337.147C342.795 339.947 342.86 342.742 342.906 345.537C342.999 351.126 343.012 356.712 342.943 362.294C342.803 373.461 342.538 384.623 342.148 395.779L342.147 395.805C342.14 396.011 342.068 396.211 341.94 396.374C341.813 396.537 341.637 396.655 341.438 396.712L333.745 398.906C332.472 399.303 331.154 399.54 329.848 399.82L325.927 400.644C325.271 400.77 324.625 400.943 323.962 401.031L321.971 401.296L317.991 401.824C317.328 401.925 316.659 401.982 315.989 401.995L313.978 402.091L311.967 402.186C311.297 402.238 310.624 402.245 309.953 402.207L305.918 402.016C305.244 401.989 304.572 401.914 303.909 401.789L301.904 401.483C301.233 401.402 300.567 401.283 299.909 401.126L297.944 400.593C297.292 400.404 296.626 400.263 295.987 400.032L294.092 399.265C291.547 398.238 289.19 396.799 287.113 395.006C284.956 393.21 283.271 390.914 282.203 388.317C282.175 388.247 282.162 388.172 282.164 388.097L282.165 388.056L282.615 374.472L282.924 375.059C277.803 371.476 273.023 367.428 268.645 362.967C264.3 358.511 260.191 353.832 256.333 348.949C252.444 344.098 248.801 339.059 245.294 333.932C241.803 328.791 238.389 323.604 235.256 318.224C235.225 318.169 235.209 318.108 235.21 318.045C235.21 317.983 235.227 317.922 235.259 317.868C241.939 306.636 248.86 295.552 256.228 284.75C258.051 282.038 259.934 279.364 261.832 276.702C263.737 274.045 265.708 271.434 267.662 268.811C271.668 263.638 275.689 258.465 280.133 253.637C282.266 251.149 284.635 248.865 286.902 246.495C289.261 244.198 291.739 242.025 294.325 239.987L296.27 238.457C296.921 237.951 297.644 237.54 298.327 237.077C299.683 236.132 301.096 235.271 302.557 234.498L304.763 233.362C305.133 233.177 305.494 232.975 305.87 232.804L307.025 232.347C308.543 231.687 310.102 231.127 311.693 230.67L314.083 229.998C314.877 229.765 315.708 229.687 316.518 229.524C317.335 229.394 318.144 229.214 318.965 229.125L321.439 228.941L322.675 228.85L323.914 228.872L326.391 228.922C327.213 228.986 328.032 229.093 328.852 229.177L330.08 229.317C330.487 229.38 330.89 229.471 331.295 229.547C337.742 230.831 343.929 233.186 349.598 236.513C349.609 236.519 349.619 236.528 349.627 236.538C349.635 236.547 349.641 236.559 349.645 236.571C349.648 236.583 349.649 236.596 349.648 236.609C349.647 236.621 349.643 236.633 349.637 236.645C349.624 236.666 349.604 236.683 349.58 236.69C349.556 236.697 349.531 236.696 349.508 236.685Z" fill="#020202"/>
<path d="M336.949 310.732C337.901 312.011 338.697 313.4 339.319 314.868C339.96 316.319 340.482 317.82 340.878 319.356C341.27 320.903 341.515 322.483 341.608 324.076C341.712 325.682 341.551 327.295 341.13 328.849L340.112 324.287L339.002 319.832C338.62 318.348 338.251 316.854 337.893 315.349C337.532 313.842 337.194 312.322 336.949 310.732Z" fill="black"/>
<path d="M283.296 374.489C282.749 366.681 282.497 358.854 282.492 351.026C282.467 343.198 282.693 335.371 283.168 327.544C283.612 319.706 284.522 311.902 285.891 304.172C286.574 300.287 287.584 296.467 288.91 292.752C289.584 290.882 290.493 289.105 291.615 287.464C292.184 286.639 292.89 285.918 293.704 285.332C294.531 284.76 295.535 284.501 296.535 284.602C295.562 284.597 294.619 284.94 293.876 285.568C293.145 286.187 292.525 286.924 292.041 287.75C291.074 289.419 290.324 291.203 289.807 293.061C288.726 296.786 287.915 300.584 287.381 304.426C286.816 308.271 286.349 312.135 286.002 316.014C285.631 319.89 285.329 323.775 285.099 327.668C284.583 335.448 284.28 343.247 283.996 351.051L283.296 374.489Z" fill="black"/>
<path d="M399.137 137.728C398.808 138.814 398.374 139.769 398.177 140.708C398.054 141.131 398.056 141.58 398.183 142.002C398.401 142.448 398.729 142.831 399.137 143.114C398.828 143.131 398.52 143.072 398.239 142.943C397.958 142.813 397.713 142.618 397.526 142.372C397.349 142.1 397.232 141.793 397.181 141.473C397.13 141.152 397.147 140.825 397.23 140.511C397.362 139.941 397.603 139.402 397.939 138.924C398.255 138.45 398.662 138.044 399.137 137.728Z" fill="#020202"/>
<path d="M403.842 112.958C403.842 112.958 398.151 116.094 405.468 125.036C412.784 133.978 415.687 134.443 415.687 134.443C415.687 134.443 420.565 142.456 411.623 160.921C411.623 160.921 423.12 183.102 445.533 172.766C445.533 172.766 446.114 148.843 440.772 136.649C440.772 136.649 438.217 128.636 438.682 124.687C439.146 120.739 436.243 109.59 427.533 111.681C427.533 111.681 423.352 105.061 403.842 112.958Z" fill="#020202"/>
<path d="M339.049 232.705C340.603 228.163 342.204 223.659 343.851 219.193L348.735 205.775C350.337 201.299 351.987 196.847 353.518 192.356C355.149 187.898 356.567 183.378 358.093 178.889L358.026 179.254C358.073 178.857 358.153 178.465 358.264 178.081C358.357 177.734 358.468 177.393 358.598 177.059C358.845 176.402 359.152 175.77 359.517 175.17C360.228 173.988 361.122 172.926 362.167 172.026C364.195 170.323 366.615 169.151 369.208 168.615L370.137 168.383L371.078 168.254L372.95 168.002C374.203 167.991 375.447 167.915 376.68 167.975C377.912 168.074 379.142 168.146 380.352 168.327C381.562 168.531 382.763 168.761 383.953 168.999C382.73 169.04 381.518 169.074 380.314 169.083C379.109 169.11 377.913 169.29 376.725 169.352C375.54 169.47 374.377 169.72 373.218 169.9L371.525 170.339L370.683 170.554L369.878 170.861C367.764 171.552 365.834 172.712 364.233 174.255C363.892 174.661 363.521 175.041 363.22 175.468C362.92 175.891 362.648 176.333 362.407 176.791C362.163 177.238 361.962 177.708 361.809 178.194C361.73 178.428 361.666 178.667 361.615 178.909C361.567 179.109 361.533 179.312 361.513 179.517C361.506 179.617 361.49 179.716 361.465 179.814L361.446 179.882C360.202 184.525 358.723 189.098 357.166 193.635C355.524 198.143 353.869 202.644 351.962 207.042C351.045 209.255 350.08 211.447 349.068 213.619C348.071 215.797 347.052 217.964 345.972 220.103C343.844 224.393 341.571 228.618 339.049 232.705Z" fill="#020202"/>
<path d="M471.671 172.579C474.387 172.236 477.113 172.024 479.849 171.943C482.598 171.847 485.35 171.894 488.095 172.083C490.888 172.253 493.661 172.669 496.382 173.326C499.329 173.936 502.09 175.234 504.439 177.115C504.644 177.292 504.805 177.514 504.911 177.763C505.017 178.013 505.064 178.283 505.048 178.553L505.039 178.699C504.194 192.43 503.043 206.131 501.799 219.823C500.545 233.514 498.647 247.146 496.77 260.783C494.881 274.419 493.392 288.091 492.303 301.799C491.208 315.505 490.456 329.239 489.595 342.962C489.574 343.293 489.476 343.614 489.308 343.9C489.14 344.186 488.906 344.428 488.627 344.606L488.53 344.667L469.575 356.651L450.657 368.677L441.252 374.753C438.105 376.757 434.985 378.795 431.869 380.836C428.784 382.913 425.644 384.916 422.593 387.006C419.518 389.073 416.527 391.223 413.742 393.432L414.672 390.47C414.705 390.596 414.729 390.724 414.746 390.853L414.766 391.068C414.802 391.73 414.641 392.387 414.303 392.957C414.168 393.176 414.014 393.382 413.843 393.574C413.709 393.711 413.568 393.84 413.42 393.96C413.298 394.061 413.168 394.152 413.031 394.231L412.671 394.436C412.478 394.527 412.281 394.609 412.08 394.68C411.508 394.869 410.915 394.991 410.314 395.044C409.408 395.119 408.498 395.128 407.591 395.069C405.975 394.957 404.367 394.76 402.772 394.479C399.66 393.95 396.643 393.274 393.652 392.523C387.684 390.984 381.818 389.256 376.009 387.354C370.195 385.48 364.439 383.457 358.709 381.372C353.003 379.218 347.296 377.087 341.657 374.764C341.589 374.736 341.533 374.684 341.502 374.616C341.472 374.549 341.467 374.473 341.491 374.403C341.514 374.333 341.563 374.274 341.628 374.239C341.693 374.204 341.769 374.195 341.841 374.213L359.493 378.889C365.367 380.458 371.243 381.987 377.122 383.476C383.009 384.912 388.883 386.395 394.78 387.543C397.72 388.135 400.665 388.687 403.57 389.057C404.979 389.249 406.398 389.368 407.821 389.412C408.433 389.428 409.045 389.4 409.654 389.329C409.811 389.312 409.965 389.278 410.114 389.226C410.088 389.23 410.099 389.229 410.05 389.253C410.01 389.269 409.972 389.29 409.936 389.314L409.782 389.425C409.705 389.483 409.636 389.55 409.573 389.623C409.459 389.739 409.362 389.87 409.284 390.012C409.161 390.216 409.071 390.438 409.017 390.67C408.98 390.819 408.958 390.971 408.951 391.124C408.945 391.225 408.945 391.326 408.951 391.426L408.969 391.606C408.985 391.724 409.007 391.84 409.038 391.955L409.968 388.992C412.99 386.481 416.038 384.204 419.125 382.027C422.204 379.826 425.315 377.699 428.459 375.647C434.744 371.52 441.092 367.516 447.504 363.635C453.9 359.723 460.348 355.905 466.798 352.093C473.252 348.286 479.751 344.556 486.295 340.902L485.23 342.607C486.989 328.952 488.857 315.307 490.384 301.636C491.896 287.962 493.027 274.256 493.778 260.517C494.521 246.776 495.243 233.029 496.61 219.342C497.986 205.656 499.456 191.978 501.231 178.332L501.831 179.915C499.985 178.316 497.817 177.131 495.475 176.441C492.965 175.636 490.397 175.023 487.794 174.606C485.165 174.146 482.49 173.865 479.805 173.614C477.119 173.395 474.411 173.216 471.708 173.159L471.702 173.159C471.628 173.157 471.558 173.128 471.505 173.077C471.453 173.026 471.421 172.956 471.417 172.883C471.413 172.81 471.438 172.738 471.485 172.681C471.532 172.625 471.598 172.588 471.671 172.579L471.671 172.579Z" fill="#020202"/>
<path d="M421.088 271.539C419.6 273.569 418.375 275.78 417.442 278.119C416.493 280.424 415.787 282.822 415.337 285.275C414.896 287.716 414.681 290.192 414.695 292.673L414.729 300.238L414.837 315.403L414.812 330.574L414.608 345.748C414.478 350.805 414.393 355.864 414.177 360.921C413.997 365.979 413.748 371.036 413.429 376.092C413.172 381.156 412.646 386.203 411.855 391.212C412.118 386.157 412.032 381.105 412.004 376.049L411.911 360.885L411.859 345.72L411.911 330.553C412.016 320.441 412.124 310.328 412.472 300.209C412.572 297.677 412.637 295.15 412.802 292.606C412.945 290.028 413.33 287.47 413.954 284.964C414.606 282.475 415.533 280.066 416.716 277.781C417.869 275.503 419.342 273.401 421.088 271.539Z" fill="#020202"/>
<path d="M357.157 321C361.96 321.521 366.714 322.009 371.467 322.407C373.846 322.583 376.216 322.791 378.591 322.905C380.964 323.033 383.336 323.174 385.707 323.191C388.095 323.302 390.406 323.231 392.872 323.287C395.312 323.333 397.747 323.519 400.165 323.844C402.596 324.16 404.993 324.69 407.33 325.429C408.498 325.807 409.638 326.268 410.741 326.808C411.852 327.324 412.875 328.013 413.771 328.849C412.722 328.282 411.606 327.849 410.45 327.558C409.311 327.242 408.155 326.993 406.988 326.812C404.659 326.436 402.31 326.198 399.954 326.1C395.235 325.845 390.545 326.182 385.636 326.092C380.789 325.963 375.957 325.48 371.181 324.646C366.404 323.865 361.709 322.645 357.157 321Z" fill="#020202"/>
<path d="M341.749 349.404C347.758 348.999 353.792 349.147 359.775 349.846C362.784 350.174 365.774 350.656 368.734 351.289C371.719 351.948 374.656 352.804 377.527 353.853C378.938 354.464 380.407 355.098 381.673 355.689C382.996 356.268 384.358 356.758 385.731 357.22C388.496 358.128 391.336 358.794 394.217 359.21C397.108 359.643 400.035 359.778 402.954 359.613C404.409 359.544 405.852 359.313 407.256 358.923C407.953 358.734 408.618 358.447 409.233 358.07C409.552 357.897 409.827 357.654 410.04 357.36C410.252 357.067 410.396 356.729 410.461 356.372C410.462 356.762 410.377 357.147 410.212 357.5C410.046 357.853 409.805 358.165 409.505 358.414C408.917 358.927 408.257 359.352 407.546 359.674C406.137 360.303 404.656 360.757 403.137 361.027C400.114 361.557 397.036 361.704 393.976 361.463C390.909 361.243 387.873 360.701 384.919 359.847C383.438 359.409 381.982 358.892 380.557 358.297C379.104 357.645 377.815 357.125 376.478 356.558C370.943 354.565 365.242 353.066 359.443 352.079C353.608 350.997 347.704 350.174 341.749 349.404Z" fill="#020202"/>
<path d="M480.505 192.661C480.241 191.172 480.158 189.657 480.257 188.148C480.339 186.687 480.526 185.233 480.817 183.799C481.103 182.363 481.494 180.951 481.987 179.573C482.481 178.143 483.148 176.779 483.973 175.512C484.241 177 484.325 178.516 484.225 180.025C484.144 181.487 483.955 182.94 483.662 184.374C483.372 185.809 482.98 187.221 482.487 188.599C481.992 190.028 481.327 191.392 480.505 192.661Z" fill="#020202"/>
<path d="M266.993 360.589L271.683 406.077L276.917 369.796" fill="#020202"/>
<path d="M403.319 391.212L410.461 440.917L416.472 387.623" fill="#020202"/>
<path d="M476.375 349.404L483.509 378.669L487.412 342.784" fill="#020202"/>
<path d="M333.465 295.838C339.142 299.169 344.578 302.759 350.103 306.198C352.843 307.952 355.628 309.622 358.429 311.257C361.218 312.936 364.132 314.399 367.144 315.634C363.869 315.116 360.694 314.092 357.734 312.598C354.752 311.192 351.86 309.602 349.075 307.836C346.302 306.067 343.582 304.22 340.98 302.216C338.35 300.242 335.841 298.112 333.465 295.838Z" fill="black"/>
<path d="M397.211 134.065C397.62 134.051 398.007 133.879 398.29 133.585C398.574 133.291 398.733 132.899 398.733 132.49C398.733 132.082 398.574 131.689 398.29 131.396C398.007 131.102 397.62 130.93 397.211 130.916C396.803 130.93 396.416 131.102 396.133 131.396C395.849 131.689 395.69 132.082 395.69 132.49C395.69 132.899 395.849 133.291 396.133 133.585C396.416 133.879 396.803 134.051 397.211 134.065Z" fill="#020202"/>
<path d="M405.81 134.254C406.218 134.24 406.605 134.068 406.889 133.774C407.173 133.48 407.331 133.088 407.331 132.679C407.331 132.271 407.173 131.878 406.889 131.585C406.605 131.291 406.218 131.119 405.81 131.104C405.402 131.119 405.015 131.291 404.731 131.585C404.447 131.878 404.289 132.271 404.289 132.679C404.289 133.088 404.447 133.48 404.731 133.774C405.015 134.068 405.402 134.24 405.81 134.254Z" fill="#020202"/>
<path d="M393.715 129.089C393.997 128.621 394.421 128.255 394.926 128.046C395.405 127.823 395.928 127.71 396.456 127.717C396.99 127.703 397.52 127.82 397.998 128.06C398.476 128.299 398.887 128.652 399.196 129.089C398.711 129.186 398.218 129.243 397.724 129.259C397.281 129.283 396.866 129.297 396.451 129.291C396.035 129.282 395.62 129.281 395.177 129.244C394.687 129.219 394.199 129.167 393.715 129.089Z" fill="#020202"/>
<path d="M404.582 129.089C404.808 128.671 405.165 128.339 405.599 128.144C406.001 127.943 406.445 127.839 406.894 127.843C407.346 127.835 407.793 127.937 408.197 128.141C408.629 128.339 408.985 128.672 409.212 129.089C408.803 129.215 408.383 129.301 407.957 129.347C407.607 129.393 407.253 129.416 406.9 129.417C406.543 129.417 406.187 129.393 405.834 129.346C405.41 129.297 404.991 129.211 404.582 129.089Z" fill="#020202"/>
<path d="M401.577 129.672C401.954 129.659 402.31 129.5 402.572 129.229C402.833 128.959 402.98 128.597 402.98 128.22C402.98 127.844 402.833 127.482 402.572 127.211C402.31 126.94 401.954 126.782 401.577 126.769C401.201 126.782 400.844 126.94 400.583 127.211C400.321 127.482 400.175 127.844 400.175 128.22C400.175 128.597 400.321 128.959 400.583 129.229C400.844 129.5 401.201 129.659 401.577 129.672Z" fill="#B21919"/>
<path d="M406.119 143.965C404.959 144.825 403.929 145.847 403.059 147C402.67 147.553 402.327 148.136 402.031 148.744C401.849 149.054 401.728 149.403 401.544 149.748C401.386 150.128 401.205 150.5 401.003 150.859C400.82 150.469 400.684 150.059 400.6 149.636C400.537 149.21 400.524 148.777 400.562 148.348C400.646 147.455 400.965 146.601 401.488 145.872C402.01 145.134 402.727 144.556 403.559 144.202C404.361 143.837 405.263 143.753 406.119 143.965Z" fill="#020202"/>
<path d="M363.234 218.329C363.611 218.316 363.967 218.157 364.229 217.886C364.491 217.615 364.637 217.254 364.637 216.877C364.637 216.5 364.491 216.139 364.229 215.868C363.967 215.597 363.611 215.438 363.234 215.425C362.858 215.438 362.502 215.597 362.24 215.868C361.978 216.139 361.832 216.5 361.832 216.877C361.832 217.254 361.978 217.615 362.24 217.886C362.502 218.157 362.858 218.316 363.234 218.329Z" fill="#020202"/>
<path d="M368.344 220.187C368.721 220.174 369.077 220.015 369.339 219.744C369.6 219.473 369.747 219.111 369.747 218.735C369.747 218.358 369.6 217.996 369.339 217.726C369.077 217.455 368.721 217.296 368.344 217.283C367.968 217.296 367.611 217.455 367.35 217.726C367.088 217.996 366.942 218.358 366.942 218.735C366.942 219.111 367.088 219.473 367.35 219.744C367.611 220.015 367.968 220.174 368.344 220.187Z" fill="#020202"/>
<path d="M373.396 222.103C373.772 222.09 374.129 221.931 374.391 221.66C374.652 221.389 374.798 221.027 374.798 220.651C374.798 220.274 374.652 219.912 374.391 219.642C374.129 219.371 373.772 219.212 373.396 219.199C373.02 219.212 372.663 219.371 372.402 219.642C372.14 219.912 371.994 220.274 371.994 220.651C371.994 221.027 372.14 221.389 372.402 221.66C372.663 221.931 373.02 222.09 373.396 222.103Z" fill="#020202"/>
<path d="M458.928 230.639C459.304 230.626 459.661 230.467 459.922 230.196C460.184 229.925 460.33 229.564 460.33 229.187C460.33 228.81 460.184 228.449 459.922 228.178C459.661 227.907 459.304 227.748 458.928 227.735C458.551 227.748 458.195 227.907 457.933 228.178C457.672 228.449 457.526 228.81 457.526 229.187C457.526 229.564 457.672 229.925 457.933 230.196C458.195 230.467 458.551 230.626 458.928 230.639Z" fill="#020202"/>
<path d="M464.763 230.987C465.14 230.974 465.496 230.815 465.758 230.544C466.019 230.274 466.166 229.912 466.166 229.535C466.166 229.159 466.019 228.797 465.758 228.526C465.496 228.255 465.14 228.097 464.763 228.083C464.387 228.097 464.031 228.255 463.769 228.526C463.507 228.797 463.361 229.159 463.361 229.535C463.361 229.912 463.507 230.274 463.769 230.544C464.031 230.815 464.387 230.974 464.763 230.987Z" fill="#020202"/>
<path d="M471.818 231.771C472.195 231.758 472.551 231.599 472.813 231.329C473.075 231.058 473.221 230.696 473.221 230.319C473.221 229.943 473.075 229.581 472.813 229.31C472.551 229.039 472.195 228.881 471.818 228.868C471.442 228.881 471.086 229.039 470.824 229.31C470.562 229.581 470.416 229.943 470.416 230.319C470.416 230.696 470.562 231.058 470.824 231.329C471.086 231.599 471.442 231.758 471.818 231.771Z" fill="#020202"/>
<path d="M478.612 232.555C478.989 232.542 479.345 232.383 479.607 232.112C479.868 231.841 480.014 231.48 480.014 231.103C480.014 230.726 479.868 230.365 479.607 230.094C479.345 229.823 478.989 229.664 478.612 229.651C478.236 229.664 477.879 229.823 477.618 230.094C477.356 230.365 477.21 230.726 477.21 231.103C477.21 231.48 477.356 231.841 477.618 232.112C477.879 232.383 478.236 232.542 478.612 232.555Z" fill="#020202"/>
<path d="M239.263 319.48C239.639 319.467 239.996 319.308 240.257 319.038C240.519 318.767 240.665 318.405 240.665 318.028C240.665 317.652 240.519 317.29 240.257 317.019C239.996 316.748 239.639 316.59 239.263 316.577C238.887 316.59 238.53 316.748 238.268 317.019C238.007 317.29 237.861 317.652 237.861 318.028C237.861 318.405 238.007 318.767 238.268 319.038C238.53 319.308 238.887 319.467 239.263 319.48Z" fill="#020202"/>
<path d="M243.444 325.403C243.82 325.39 244.177 325.231 244.438 324.96C244.7 324.69 244.846 324.328 244.846 323.951C244.846 323.575 244.7 323.213 244.438 322.942C244.177 322.671 243.82 322.513 243.444 322.5C243.067 322.513 242.711 322.671 242.449 322.942C242.188 323.213 242.041 323.575 242.041 323.951C242.041 324.328 242.188 324.69 242.449 324.96C242.711 325.231 243.067 325.39 243.444 325.403Z" fill="#020202"/>
<path d="M247.973 332.022C248.349 332.009 248.706 331.851 248.967 331.58C249.229 331.309 249.375 330.947 249.375 330.571C249.375 330.194 249.229 329.832 248.967 329.562C248.706 329.291 248.349 329.132 247.973 329.119C247.597 329.132 247.24 329.291 246.978 329.562C246.717 329.832 246.57 330.194 246.57 330.571C246.57 330.947 246.717 331.309 246.978 331.58C247.24 331.851 247.597 332.009 247.973 332.022Z" fill="#020202"/>
<path d="M252.676 338.293C253.053 338.28 253.409 338.122 253.671 337.851C253.932 337.58 254.079 337.218 254.079 336.842C254.079 336.465 253.932 336.103 253.671 335.833C253.409 335.562 253.053 335.403 252.676 335.39C252.3 335.403 251.943 335.562 251.682 335.833C251.42 336.103 251.274 336.465 251.274 336.842C251.274 337.218 251.42 337.58 251.682 337.851C251.943 338.122 252.3 338.28 252.676 338.293Z" fill="#020202"/>
<path d="M257.728 345.087C258.104 345.074 258.461 344.915 258.722 344.644C258.984 344.374 259.13 344.012 259.13 343.635C259.13 343.259 258.984 342.897 258.722 342.626C258.461 342.355 258.104 342.197 257.728 342.184C257.352 342.197 256.995 342.355 256.734 342.626C256.472 342.897 256.326 343.259 256.326 343.635C256.326 344.012 256.472 344.374 256.734 344.644C256.995 344.915 257.352 345.074 257.728 345.087Z" fill="#020202"/>
<path d="M263.477 352.055C263.853 352.042 264.21 351.884 264.471 351.613C264.733 351.342 264.879 350.98 264.879 350.603C264.879 350.227 264.733 349.865 264.471 349.594C264.21 349.323 263.853 349.165 263.477 349.152C263.1 349.165 262.744 349.323 262.482 349.594C262.22 349.865 262.074 350.227 262.074 350.603C262.074 350.98 262.22 351.342 262.482 351.613C262.744 351.884 263.1 352.042 263.477 352.055Z" fill="#020202"/>
<path d="M269.399 358.849C269.776 358.836 270.132 358.677 270.394 358.406C270.656 358.135 270.802 357.774 270.802 357.397C270.802 357.02 270.656 356.659 270.394 356.388C270.132 356.117 269.776 355.958 269.399 355.945C269.023 355.958 268.666 356.117 268.405 356.388C268.143 356.659 267.997 357.02 267.997 357.397C267.997 357.774 268.143 358.135 268.405 358.406C268.666 358.677 269.023 358.836 269.399 358.849Z" fill="#020202"/>
<path d="M275.845 363.901C276.221 363.888 276.578 363.729 276.839 363.458C277.101 363.188 277.247 362.826 277.247 362.449C277.247 362.073 277.101 361.711 276.839 361.44C276.578 361.169 276.221 361.011 275.845 360.998C275.468 361.011 275.112 361.169 274.85 361.44C274.589 361.711 274.442 362.073 274.442 362.449C274.442 362.826 274.589 363.188 274.85 363.458C275.112 363.729 275.468 363.888 275.845 363.901Z" fill="#020202"/>
<path d="M282.116 369.475C282.492 369.462 282.849 369.303 283.11 369.033C283.372 368.762 283.518 368.4 283.518 368.023C283.518 367.647 283.372 367.285 283.11 367.014C282.849 366.743 282.492 366.585 282.116 366.572C281.74 366.585 281.383 366.743 281.121 367.014C280.86 367.285 280.714 367.647 280.714 368.023C280.714 368.4 280.86 368.762 281.121 369.033C281.383 369.303 281.74 369.462 282.116 369.475Z" fill="#020202"/>
<path d="M286.819 387.94C287.196 387.927 287.552 387.768 287.814 387.497C288.075 387.227 288.222 386.865 288.222 386.488C288.222 386.112 288.075 385.75 287.814 385.479C287.552 385.208 287.196 385.05 286.819 385.037C286.443 385.05 286.086 385.208 285.825 385.479C285.563 385.75 285.417 386.112 285.417 386.488C285.417 386.865 285.563 387.227 285.825 387.497C286.086 387.768 286.443 387.927 286.819 387.94Z" fill="#020202"/>
<path d="M292.045 393.34C292.422 393.327 292.778 393.169 293.04 392.898C293.301 392.627 293.448 392.265 293.448 391.889C293.448 391.512 293.301 391.15 293.04 390.879C292.778 390.609 292.422 390.45 292.045 390.437C291.669 390.45 291.312 390.609 291.051 390.879C290.789 391.15 290.643 391.512 290.643 391.889C290.643 392.265 290.789 392.627 291.051 392.898C291.312 393.169 291.669 393.327 292.045 393.34Z" fill="#020202"/>
<path d="M299.187 396.824C299.564 396.811 299.92 396.653 300.182 396.382C300.443 396.111 300.59 395.749 300.59 395.373C300.59 394.996 300.443 394.634 300.182 394.363C299.92 394.093 299.564 393.934 299.187 393.921C298.811 393.934 298.455 394.093 298.193 394.363C297.931 394.634 297.785 394.996 297.785 395.373C297.785 395.749 297.931 396.111 298.193 396.382C298.455 396.653 298.811 396.811 299.187 396.824Z" fill="#020202"/>
<path d="M306.504 398.392C306.88 398.379 307.237 398.22 307.498 397.95C307.76 397.679 307.906 397.317 307.906 396.94C307.906 396.564 307.76 396.202 307.498 395.931C307.237 395.66 306.88 395.502 306.504 395.489C306.127 395.502 305.771 395.66 305.509 395.931C305.248 396.202 305.101 396.564 305.101 396.94C305.101 397.317 305.248 397.679 305.509 397.95C305.771 398.22 306.127 398.379 306.504 398.392Z" fill="#020202"/>
<path d="M314.691 398.218C315.067 398.205 315.424 398.046 315.686 397.775C315.947 397.505 316.093 397.143 316.093 396.766C316.093 396.39 315.947 396.028 315.686 395.757C315.424 395.486 315.067 395.327 314.691 395.314C314.315 395.327 313.958 395.486 313.697 395.757C313.435 396.028 313.289 396.39 313.289 396.766C313.289 397.143 313.435 397.505 313.697 397.775C313.958 398.046 314.315 398.205 314.691 398.218Z" fill="#020202"/>
<path d="M322.53 397.347C322.906 397.334 323.263 397.175 323.524 396.904C323.786 396.633 323.932 396.272 323.932 395.895C323.932 395.518 323.786 395.157 323.524 394.886C323.263 394.615 322.906 394.456 322.53 394.443C322.154 394.456 321.797 394.615 321.536 394.886C321.274 395.157 321.128 395.518 321.128 395.895C321.128 396.272 321.274 396.633 321.536 396.904C321.797 397.175 322.154 397.334 322.53 397.347Z" fill="#020202"/>
<path d="M330.195 396.127C330.571 396.114 330.928 395.956 331.189 395.685C331.451 395.414 331.597 395.052 331.597 394.676C331.597 394.299 331.451 393.937 331.189 393.667C330.928 393.396 330.571 393.237 330.195 393.224C329.818 393.237 329.462 393.396 329.2 393.667C328.939 393.937 328.792 394.299 328.792 394.676C328.792 395.052 328.939 395.414 329.2 395.685C329.462 395.956 329.818 396.114 330.195 396.127Z" fill="#020202"/>
<path d="M337.511 394.037C337.887 394.024 338.244 393.865 338.506 393.595C338.767 393.324 338.913 392.962 338.913 392.585C338.913 392.209 338.767 391.847 338.506 391.576C338.244 391.305 337.887 391.147 337.511 391.134C337.135 391.147 336.778 391.305 336.517 391.576C336.255 391.847 336.109 392.209 336.109 392.585C336.109 392.962 336.255 393.324 336.517 393.595C336.778 393.865 337.135 394.024 337.511 394.037Z" fill="#020202"/>
<path d="M416.435 372.664L418.908 371.139C418.925 371.129 418.945 371.121 418.965 371.118C418.985 371.115 419.006 371.116 419.026 371.12C419.046 371.125 419.065 371.134 419.081 371.146C419.098 371.158 419.112 371.173 419.123 371.19C419.133 371.208 419.141 371.227 419.144 371.248C419.147 371.268 419.146 371.289 419.142 371.309C419.137 371.328 419.128 371.347 419.116 371.364C419.104 371.381 419.089 371.395 419.072 371.405L419.064 371.41L416.508 372.789C416.491 372.798 416.472 372.801 416.454 372.796C416.435 372.79 416.42 372.778 416.411 372.762C416.401 372.746 416.398 372.726 416.403 372.708C416.408 372.69 416.419 372.674 416.435 372.664Z" fill="#020202"/>
<path d="M421.39 369.632L423.872 368.126C423.904 368.106 423.94 368.093 423.976 368.088C424.013 368.082 424.051 368.084 424.087 368.093C424.123 368.101 424.157 368.117 424.187 368.139C424.217 368.161 424.243 368.189 424.262 368.221C424.281 368.253 424.294 368.288 424.3 368.325C424.305 368.361 424.304 368.399 424.295 368.435C424.286 368.471 424.27 368.505 424.248 368.535C424.226 368.565 424.198 368.591 424.167 368.61L424.156 368.616L421.61 370.013C421.56 370.041 421.5 370.048 421.445 370.033C421.389 370.017 421.342 369.981 421.313 369.931C421.285 369.881 421.277 369.822 421.291 369.766C421.305 369.71 421.341 369.662 421.39 369.632H421.39Z" fill="#020202"/>
<path d="M426.355 366.619L428.849 365.132C428.937 365.08 429.043 365.064 429.142 365.089C429.242 365.115 429.327 365.178 429.38 365.266C429.432 365.355 429.448 365.46 429.422 365.559C429.397 365.659 429.334 365.744 429.245 365.797L429.236 365.802L426.702 367.219C426.622 367.263 426.528 367.275 426.441 367.251C426.353 367.226 426.278 367.169 426.233 367.09C426.187 367.011 426.175 366.918 426.198 366.83C426.221 366.741 426.277 366.666 426.355 366.619Z" fill="#020202"/>
<path d="M431.343 363.645L433.837 362.158C433.944 362.095 434.071 362.077 434.191 362.107C434.311 362.138 434.414 362.215 434.478 362.321C434.541 362.428 434.56 362.555 434.53 362.675C434.499 362.795 434.423 362.898 434.317 362.962L434.305 362.969L431.771 364.385C431.673 364.44 431.557 364.454 431.449 364.424C431.34 364.395 431.248 364.323 431.192 364.226C431.136 364.129 431.12 364.013 431.148 363.905C431.177 363.796 431.247 363.703 431.343 363.645Z" fill="#020202"/>
<path d="M436.331 360.671L438.827 359.187C438.951 359.114 439.1 359.093 439.239 359.128C439.379 359.164 439.499 359.254 439.573 359.378C439.647 359.502 439.668 359.65 439.633 359.79C439.598 359.93 439.508 360.051 439.384 360.125L439.372 360.132L436.839 361.552C436.723 361.617 436.585 361.634 436.456 361.599C436.327 361.564 436.217 361.479 436.15 361.363C436.083 361.247 436.064 361.109 436.098 360.98C436.132 360.85 436.216 360.739 436.331 360.671H436.331Z" fill="#020202"/>
<path d="M441.333 357.721L443.839 356.255C443.904 356.216 443.977 356.191 444.052 356.18C444.127 356.17 444.204 356.174 444.278 356.193C444.352 356.213 444.421 356.246 444.481 356.292C444.542 356.338 444.593 356.395 444.632 356.461C444.67 356.527 444.695 356.6 444.705 356.675C444.716 356.75 444.711 356.827 444.692 356.901C444.672 356.974 444.639 357.043 444.592 357.104C444.546 357.165 444.489 357.215 444.423 357.254L444.417 357.257L441.895 358.694C441.766 358.768 441.613 358.787 441.47 358.748C441.327 358.709 441.205 358.615 441.131 358.487C441.056 358.358 441.036 358.206 441.074 358.062C441.112 357.919 441.205 357.796 441.333 357.721Z" fill="#020202"/>
<path d="M446.344 354.789L448.851 353.322C448.991 353.241 449.157 353.218 449.314 353.259C449.471 353.3 449.605 353.402 449.687 353.542C449.769 353.682 449.792 353.848 449.751 354.005C449.71 354.162 449.608 354.296 449.468 354.378L449.462 354.382L446.94 355.819C446.872 355.858 446.797 355.884 446.72 355.894C446.642 355.904 446.564 355.899 446.488 355.879C446.413 355.859 446.342 355.824 446.28 355.776C446.218 355.729 446.166 355.669 446.127 355.602C446.088 355.534 446.062 355.459 446.052 355.382C446.042 355.304 446.047 355.226 446.067 355.15C446.087 355.075 446.122 355.004 446.17 354.942C446.217 354.88 446.277 354.828 446.344 354.789Z" fill="#020202"/>
<path d="M451.356 351.856L453.862 350.39C454.01 350.305 454.185 350.282 454.349 350.325C454.514 350.369 454.655 350.476 454.74 350.623C454.826 350.77 454.851 350.945 454.808 351.11C454.766 351.274 454.66 351.416 454.514 351.503L454.507 351.506L451.985 352.944C451.84 353.026 451.669 353.048 451.509 353.005C451.349 352.961 451.212 352.856 451.129 352.713C451.046 352.569 451.023 352.398 451.066 352.237C451.109 352.077 451.213 351.94 451.356 351.856V351.856Z" fill="#020202"/>
<path d="M456.375 348.936L458.896 347.496C459.042 347.413 459.214 347.391 459.376 347.435C459.537 347.479 459.675 347.585 459.758 347.73C459.842 347.875 459.865 348.047 459.822 348.209C459.779 348.37 459.674 348.509 459.53 348.593L457.022 350.057C456.949 350.099 456.868 350.128 456.784 350.139C456.7 350.151 456.614 350.145 456.532 350.124C456.449 350.102 456.372 350.065 456.305 350.013C456.237 349.962 456.18 349.898 456.137 349.824C456.094 349.751 456.066 349.67 456.055 349.586C456.044 349.501 456.049 349.416 456.07 349.334C456.092 349.251 456.13 349.174 456.181 349.107C456.233 349.039 456.297 348.982 456.37 348.939L456.375 348.936Z" fill="#020202"/>
<path d="M461.417 346.056L463.938 344.615C464.077 344.536 464.243 344.514 464.398 344.556C464.552 344.598 464.684 344.699 464.765 344.838C464.845 344.977 464.867 345.142 464.826 345.298C464.784 345.453 464.684 345.585 464.545 345.666L462.037 347.129C461.895 347.211 461.727 347.233 461.569 347.191C461.411 347.148 461.276 347.045 461.193 346.904C461.111 346.763 461.088 346.595 461.129 346.436C461.17 346.278 461.272 346.142 461.412 346.058L461.417 346.056Z" fill="#020202"/>
<path d="M466.464 343.183L468.999 341.767C469.123 341.697 469.27 341.679 469.408 341.716C469.546 341.754 469.664 341.845 469.735 341.968C469.806 342.092 469.826 342.239 469.79 342.377C469.753 342.515 469.664 342.634 469.541 342.706L467.048 344.194C466.982 344.234 466.909 344.261 466.833 344.273C466.756 344.284 466.679 344.281 466.604 344.262C466.529 344.244 466.459 344.21 466.397 344.165C466.335 344.119 466.282 344.061 466.243 343.995C466.203 343.929 466.177 343.855 466.166 343.779C466.155 343.703 466.159 343.625 466.179 343.55C466.198 343.476 466.232 343.405 466.278 343.344C466.324 343.282 466.382 343.23 466.449 343.191L466.464 343.183Z" fill="#020202"/>
<path d="M471.534 340.352L474.07 338.936C474.175 338.878 474.298 338.863 474.414 338.895C474.53 338.927 474.629 339.003 474.689 339.107C474.749 339.211 474.766 339.335 474.736 339.451C474.705 339.568 474.631 339.667 474.527 339.729L472.034 341.218C471.978 341.252 471.915 341.274 471.85 341.284C471.785 341.294 471.719 341.29 471.655 341.274C471.591 341.258 471.531 341.23 471.478 341.191C471.425 341.151 471.381 341.102 471.347 341.046C471.313 340.989 471.291 340.926 471.281 340.861C471.272 340.796 471.275 340.73 471.292 340.666C471.308 340.602 471.337 340.542 471.376 340.49C471.415 340.437 471.465 340.393 471.522 340.359L471.534 340.352Z" fill="#020202"/>
<path d="M476.605 337.522L478.421 336.51L478.231 336.806L478.321 335.986C478.332 335.889 478.38 335.801 478.456 335.74C478.531 335.679 478.628 335.65 478.724 335.659C478.821 335.668 478.91 335.715 478.973 335.789C479.035 335.863 479.066 335.959 479.059 336.056L478.994 336.878C478.989 336.937 478.971 336.994 478.94 337.044C478.909 337.094 478.866 337.136 478.816 337.167L478.804 337.174L477.02 338.24C476.925 338.296 476.813 338.312 476.706 338.285C476.6 338.258 476.509 338.19 476.453 338.096C476.397 338.002 476.38 337.889 476.406 337.783C476.433 337.677 476.501 337.585 476.594 337.529L476.605 337.522Z" fill="#020202"/>
<path d="M478.638 333.099L478.951 330.213C478.959 330.137 478.997 330.069 479.055 330.021C479.114 329.973 479.189 329.95 479.264 329.957C479.339 329.964 479.409 330.001 479.457 330.059C479.506 330.117 479.529 330.191 479.523 330.267L479.289 333.161C479.282 333.248 479.241 333.328 479.175 333.384C479.109 333.44 479.023 333.468 478.937 333.461C478.85 333.454 478.77 333.413 478.714 333.347C478.658 333.281 478.63 333.195 478.637 333.108L478.638 333.099Z" fill="#020202"/>
<path d="M479.242 327.324L479.533 324.435C479.539 324.369 479.572 324.308 479.624 324.265C479.675 324.223 479.742 324.203 479.808 324.209C479.874 324.215 479.936 324.248 479.978 324.299C480.021 324.35 480.042 324.416 480.036 324.483L479.78 327.375C479.777 327.41 479.767 327.445 479.75 327.476C479.734 327.508 479.712 327.536 479.685 327.559C479.657 327.582 479.626 327.599 479.592 327.61C479.558 327.621 479.522 327.625 479.487 327.622C479.451 327.618 479.417 327.608 479.385 327.592C479.354 327.575 479.326 327.553 479.303 327.525C479.28 327.498 479.263 327.466 479.253 327.432C479.242 327.398 479.238 327.363 479.242 327.327L479.242 327.324Z" fill="#020202"/>
<path d="M479.823 321.546L480.114 318.657C480.12 318.6 480.148 318.547 480.193 318.511C480.237 318.474 480.295 318.456 480.352 318.462C480.409 318.467 480.462 318.495 480.499 318.54C480.536 318.584 480.554 318.641 480.549 318.699L480.292 321.591C480.287 321.653 480.256 321.71 480.209 321.749C480.161 321.789 480.099 321.809 480.037 321.803C479.975 321.798 479.918 321.768 479.878 321.72C479.838 321.673 479.818 321.611 479.823 321.549L479.823 321.546Z" fill="#020202"/>
<path d="M480.376 315.766L480.636 312.874C480.642 312.81 480.674 312.751 480.723 312.71C480.773 312.669 480.836 312.649 480.9 312.655C480.964 312.661 481.024 312.691 481.065 312.741C481.106 312.79 481.127 312.854 481.121 312.918L481.121 312.92L480.834 315.809C480.832 315.839 480.823 315.869 480.809 315.895C480.794 315.922 480.775 315.946 480.752 315.965C480.729 315.984 480.702 315.999 480.673 316.008C480.644 316.017 480.613 316.02 480.583 316.017C480.553 316.014 480.524 316.005 480.497 315.991C480.47 315.977 480.447 315.958 480.428 315.934C480.408 315.911 480.394 315.884 480.385 315.855C480.376 315.826 480.373 315.796 480.376 315.766Z" fill="#020202"/>
<path d="M480.897 309.983L481.158 307.091C481.164 307.02 481.199 306.954 481.253 306.909C481.308 306.863 481.379 306.841 481.45 306.847C481.521 306.854 481.587 306.888 481.632 306.943C481.678 306.998 481.7 307.068 481.694 307.139L481.694 307.142L481.407 310.031C481.4 310.098 481.367 310.16 481.315 310.203C481.262 310.245 481.195 310.266 481.128 310.259C481.061 310.253 480.999 310.22 480.956 310.169C480.913 310.117 480.891 310.05 480.897 309.983Z" fill="#020202"/>
<path d="M481.401 304.198L481.64 301.304C481.647 301.215 481.689 301.133 481.757 301.076C481.825 301.019 481.912 300.99 482.001 300.998C482.089 301.005 482.171 301.047 482.229 301.115C482.286 301.183 482.314 301.27 482.307 301.359L482.306 301.367L481.998 304.254C481.989 304.333 481.95 304.404 481.889 304.454C481.828 304.504 481.75 304.528 481.672 304.521C481.593 304.513 481.521 304.475 481.47 304.415C481.419 304.354 481.395 304.276 481.401 304.198V304.198Z" fill="#020202"/>
<path d="M481.878 298.411L482.116 295.517C482.125 295.41 482.176 295.31 482.258 295.241C482.34 295.171 482.446 295.137 482.554 295.146C482.661 295.155 482.76 295.206 482.83 295.288C482.9 295.37 482.934 295.476 482.925 295.583L482.924 295.593L482.615 298.48C482.604 298.577 482.556 298.665 482.48 298.726C482.405 298.787 482.309 298.816 482.212 298.807C482.116 298.798 482.027 298.751 481.964 298.677C481.902 298.603 481.871 298.507 481.878 298.411L481.878 298.411Z" fill="#020202"/>
<path d="M482.349 292.622L482.582 289.728C482.593 289.599 482.654 289.48 482.752 289.396C482.851 289.313 482.978 289.271 483.107 289.282C483.236 289.292 483.355 289.353 483.439 289.452C483.523 289.55 483.564 289.678 483.553 289.807L483.552 289.82L483.238 292.707C483.225 292.823 483.167 292.93 483.076 293.004C482.985 293.078 482.869 293.114 482.752 293.103C482.635 293.092 482.527 293.035 482.452 292.945C482.377 292.855 482.34 292.739 482.349 292.622H482.349Z" fill="#020202"/>
<path d="M482.816 286.834L483.058 283.94C483.064 283.867 483.084 283.796 483.118 283.731C483.152 283.665 483.198 283.607 483.254 283.56C483.31 283.513 483.375 283.477 483.445 283.454C483.515 283.432 483.589 283.424 483.662 283.43C483.735 283.436 483.806 283.456 483.871 283.49C483.937 283.524 483.995 283.57 484.042 283.626C484.089 283.682 484.125 283.747 484.148 283.817C484.17 283.887 484.178 283.96 484.172 284.034L484.171 284.046L483.866 286.933C483.851 287.071 483.782 287.197 483.675 287.285C483.567 287.372 483.43 287.414 483.292 287.401C483.154 287.388 483.027 287.321 482.938 287.215C482.849 287.109 482.805 286.972 482.816 286.834H482.816Z" fill="#020202"/>
<path d="M483.305 281.048L483.552 278.155C483.559 278.075 483.581 277.997 483.618 277.925C483.655 277.854 483.706 277.791 483.767 277.739C483.829 277.687 483.9 277.648 483.977 277.623C484.053 277.599 484.134 277.59 484.214 277.597C484.294 277.604 484.372 277.626 484.444 277.663C484.515 277.7 484.578 277.751 484.63 277.812C484.682 277.874 484.721 277.945 484.746 278.022C484.77 278.098 484.779 278.179 484.772 278.259L484.771 278.27L484.471 281.158C484.455 281.312 484.379 281.453 484.26 281.551C484.14 281.649 483.987 281.695 483.833 281.681C483.68 281.666 483.538 281.592 483.439 281.473C483.34 281.355 483.292 281.202 483.305 281.048H483.305Z" fill="#020202"/>
<path d="M483.799 275.262L484.052 272.369C484.067 272.195 484.151 272.034 484.285 271.921C484.419 271.809 484.592 271.754 484.767 271.769C484.941 271.784 485.102 271.868 485.215 272.002C485.327 272.136 485.382 272.31 485.367 272.484L485.366 272.494L485.071 275.382C485.053 275.549 484.97 275.703 484.84 275.809C484.71 275.916 484.543 275.967 484.376 275.951C484.208 275.935 484.054 275.854 483.946 275.725C483.838 275.596 483.785 275.429 483.799 275.262Z" fill="#020202"/>
<path d="M484.31 269.478L484.568 266.586C484.584 266.403 484.673 266.235 484.813 266.117C484.954 266 485.135 265.943 485.318 265.959C485.5 265.976 485.669 266.064 485.786 266.204C485.904 266.345 485.961 266.526 485.944 266.709L485.943 266.716L485.655 269.605C485.638 269.783 485.551 269.948 485.413 270.062C485.275 270.176 485.097 270.231 484.918 270.214C484.74 270.197 484.576 270.11 484.462 269.972C484.347 269.834 484.293 269.656 484.31 269.478V269.478Z" fill="#020202"/>
<path d="M484.827 263.694L485.085 260.802C485.093 260.708 485.12 260.616 485.164 260.532C485.208 260.448 485.268 260.374 485.341 260.313C485.413 260.252 485.497 260.206 485.588 260.178C485.678 260.15 485.773 260.139 485.868 260.148C485.962 260.156 486.054 260.183 486.137 260.227C486.221 260.271 486.296 260.331 486.357 260.404C486.417 260.476 486.463 260.56 486.491 260.651C486.52 260.741 486.53 260.836 486.522 260.93L486.521 260.938L486.232 263.827C486.213 264.012 486.122 264.183 485.978 264.301C485.834 264.42 485.649 264.476 485.463 264.459C485.278 264.441 485.106 264.351 484.987 264.208C484.868 264.064 484.81 263.88 484.827 263.694Z" fill="#020202"/>
<path d="M485.344 257.91L485.602 255.019C485.611 254.92 485.638 254.824 485.684 254.737C485.73 254.649 485.792 254.571 485.868 254.508C485.944 254.444 486.031 254.396 486.126 254.367C486.22 254.337 486.319 254.326 486.418 254.335C486.516 254.344 486.612 254.372 486.699 254.418C486.787 254.464 486.865 254.526 486.928 254.602C486.991 254.678 487.039 254.766 487.068 254.86C487.098 254.955 487.108 255.054 487.099 255.152L487.098 255.16L486.81 258.049C486.79 258.243 486.695 258.421 486.545 258.544C486.394 258.668 486.201 258.727 486.008 258.708C485.814 258.69 485.636 258.596 485.511 258.446C485.387 258.297 485.327 258.104 485.344 257.91Z" fill="#020202"/>
<path d="M485.86 252.127L486.134 249.236C486.153 249.034 486.252 248.847 486.408 248.718C486.565 248.588 486.767 248.526 486.97 248.545C487.172 248.564 487.359 248.663 487.488 248.82C487.618 248.976 487.68 249.178 487.661 249.381V249.381L487.387 252.271C487.368 252.474 487.269 252.66 487.112 252.79C486.956 252.919 486.754 252.982 486.552 252.962C486.349 252.943 486.163 252.844 486.033 252.688C485.903 252.531 485.841 252.329 485.86 252.127Z" fill="#020202"/>
<path d="M486.413 246.346L486.693 243.456C486.712 243.258 486.81 243.074 486.964 242.947C487.118 242.82 487.316 242.759 487.515 242.778C487.714 242.797 487.898 242.894 488.025 243.048C488.153 243.202 488.215 243.4 488.196 243.599L487.929 246.49C487.91 246.691 487.813 246.876 487.657 247.005C487.502 247.134 487.302 247.196 487.101 247.178C486.9 247.159 486.714 247.061 486.585 246.906C486.456 246.751 486.394 246.55 486.413 246.349L486.413 246.346Z" fill="#020202"/>
<path d="M486.972 240.567L487.251 237.677C487.27 237.481 487.366 237.3 487.518 237.174C487.67 237.048 487.865 236.988 488.062 237.007C488.258 237.025 488.439 237.121 488.565 237.273C488.69 237.425 488.751 237.621 488.732 237.817L488.464 240.708C488.445 240.906 488.349 241.088 488.196 241.214C488.043 241.341 487.846 241.402 487.649 241.383C487.451 241.365 487.269 241.269 487.142 241.117C487.015 240.964 486.954 240.767 486.972 240.57L486.972 240.567Z" fill="#020202"/>
<path d="M487.531 234.787L487.81 231.897C487.829 231.704 487.923 231.526 488.072 231.402C488.222 231.279 488.415 231.219 488.608 231.238C488.801 231.256 488.979 231.35 489.103 231.5C489.227 231.649 489.286 231.842 489.268 232.035L489 234.926C488.982 235.121 488.887 235.301 488.737 235.426C488.586 235.551 488.392 235.611 488.197 235.593C488.002 235.575 487.823 235.48 487.698 235.329C487.573 235.179 487.512 234.985 487.53 234.79L487.531 234.787Z" fill="#020202"/>
<path d="M488.09 229.007L488.389 226.119C488.398 226.028 488.424 225.939 488.467 225.858C488.51 225.776 488.569 225.705 488.64 225.646C488.711 225.587 488.792 225.543 488.88 225.516C488.968 225.489 489.06 225.48 489.152 225.488C489.243 225.497 489.332 225.524 489.414 225.567C489.495 225.61 489.567 225.668 489.625 225.739C489.684 225.81 489.728 225.892 489.755 225.98C489.782 226.067 489.792 226.16 489.783 226.251L489.535 229.144C489.518 229.335 489.426 229.512 489.279 229.635C489.132 229.759 488.942 229.819 488.75 229.802C488.559 229.786 488.382 229.695 488.258 229.548C488.134 229.402 488.073 229.212 488.088 229.02L488.09 229.007Z" fill="#020202"/>
<path d="M488.69 223.232L488.99 220.344C489.008 220.174 489.092 220.019 489.223 219.911C489.355 219.803 489.524 219.751 489.693 219.768C489.863 219.784 490.019 219.866 490.128 219.997C490.237 220.127 490.29 220.296 490.276 220.465L490.029 223.358C490.014 223.536 489.929 223.7 489.793 223.815C489.656 223.93 489.48 223.986 489.302 223.971C489.124 223.956 488.96 223.871 488.845 223.735C488.73 223.598 488.674 223.422 488.689 223.244L488.69 223.232Z" fill="#020202"/>
<path d="M489.291 217.456L489.592 214.568C489.608 214.413 489.685 214.271 489.805 214.172C489.926 214.073 490.08 214.026 490.235 214.041C490.391 214.055 490.534 214.131 490.633 214.25C490.733 214.37 490.782 214.524 490.769 214.679L490.522 217.572C490.508 217.735 490.429 217.886 490.304 217.991C490.179 218.096 490.017 218.148 489.854 218.134C489.691 218.12 489.54 218.042 489.434 217.917C489.328 217.792 489.277 217.63 489.29 217.467L489.291 217.456Z" fill="#020202"/>
<path d="M489.892 211.68L490.198 208.793C490.212 208.654 490.282 208.526 490.39 208.437C490.498 208.348 490.638 208.306 490.777 208.319C490.916 208.332 491.045 208.4 491.135 208.508C491.225 208.615 491.269 208.754 491.257 208.893L491.015 211.787C491.01 211.861 490.99 211.934 490.956 212C490.923 212.067 490.876 212.126 490.819 212.175C490.763 212.223 490.697 212.26 490.626 212.283C490.555 212.306 490.48 212.314 490.406 212.308C490.331 212.302 490.259 212.281 490.193 212.247C490.127 212.212 490.068 212.165 490.02 212.108C489.972 212.05 489.936 211.984 489.914 211.913C489.892 211.842 489.884 211.767 489.891 211.693L489.892 211.68Z" fill="#020202"/>
<path d="M490.516 205.906L490.833 203.02C490.846 202.905 490.904 202.798 490.994 202.725C491.084 202.652 491.2 202.616 491.316 202.627C491.432 202.638 491.539 202.695 491.613 202.784C491.688 202.873 491.725 202.988 491.716 203.104L491.487 205.998C491.477 206.127 491.415 206.247 491.317 206.331C491.219 206.415 491.091 206.456 490.962 206.446C490.833 206.436 490.713 206.375 490.629 206.276C490.545 206.178 490.504 206.05 490.514 205.921L490.516 205.906Z" fill="#020202"/>
<path d="M491.151 200.134L491.469 197.248C491.479 197.155 491.525 197.071 491.597 197.012C491.669 196.953 491.762 196.925 491.855 196.934C491.947 196.942 492.033 196.987 492.093 197.059C492.153 197.13 492.182 197.222 492.175 197.315L491.945 200.209C491.937 200.315 491.887 200.413 491.807 200.482C491.726 200.55 491.622 200.584 491.516 200.576C491.411 200.567 491.313 200.518 491.244 200.437C491.175 200.357 491.141 200.252 491.15 200.147L491.151 200.134Z" fill="#020202"/>
<path d="M491.795 194.363L492.132 191.478C492.139 191.417 492.171 191.36 492.219 191.321C492.267 191.282 492.329 191.263 492.391 191.269C492.453 191.275 492.51 191.305 492.55 191.352C492.59 191.4 492.61 191.461 492.606 191.523L492.396 194.42C492.39 194.499 492.353 194.573 492.292 194.625C492.231 194.677 492.153 194.703 492.073 194.698C491.993 194.692 491.919 194.655 491.867 194.595C491.814 194.534 491.788 194.456 491.793 194.376L491.795 194.363Z" fill="#020202"/>
<path d="M492.47 188.594L492.808 185.71C492.811 185.681 492.825 185.655 492.847 185.637C492.869 185.619 492.898 185.611 492.926 185.613C492.955 185.616 492.981 185.63 492.999 185.652C493.018 185.673 493.027 185.702 493.025 185.73L492.815 188.627C492.812 188.673 492.79 188.715 492.756 188.745C492.721 188.775 492.675 188.79 492.63 188.787C492.584 188.784 492.541 188.762 492.511 188.728C492.481 188.693 492.466 188.648 492.469 188.602L492.47 188.594Z" fill="#020202"/>
</svg>
