<svg width="600" height="600" viewBox="0 0 600 600" fill="none" xmlns="http://www.w3.org/2000/svg">
<path d="M209.5 305C209.5 305 229 156 321 156C413 156 420 305 420 305M315.5 156.026V117.974M200.051 304.002H169.715L292.037 482.104H344.881L200.051 304.002ZM205.923 304.002H228.43L228.866 304.436H230.391C230.397 304.953 230.407 305.469 230.422 305.983L407.51 482.104H352.709L205.923 304.002ZM177.544 481.12V479.07L177.945 481.121L177.544 481.12ZM426.979 482.086L327.502 384.863C365.505 377.859 394.371 344.576 394.784 304.436H420.944C419.22 314.975 418.274 326.443 418.274 338.44C418.274 383.063 431.366 420.383 448.878 429.689C447.324 459.122 443.632 482.104 435.889 482.104C434.188 482.104 431.144 482.098 426.979 482.086ZM162.5 304.436L166.779 304.981L284.209 482.104H200.051L162.5 304.436ZM397.06 209.389C397.06 259.919 361.134 329.379 316.817 329.379C272.499 329.379 236.573 259.919 236.573 209.389C236.573 158.859 272.499 117.896 316.817 117.896C361.134 117.896 397.06 158.859 397.06 209.389ZM323.667 362.234C323.667 366.558 320.162 370.063 315.838 370.063C311.515 370.063 308.01 366.558 308.01 362.234C308.01 357.91 311.515 354.405 315.838 354.405C320.162 354.405 323.667 357.91 323.667 362.234ZM245 257.5C245 261.09 242.09 264 238.5 264C234.91 264 232 261.09 232 257.5C232 253.91 234.91 251 238.5 251C242.09 251 245 253.91 245 257.5ZM402 257.5C402 261.09 399.09 264 395.5 264C391.91 264 389 261.09 389 257.5C389 253.91 391.91 251 395.5 251C399.09 251 402 253.91 402 257.5ZM256.145 306.762C256.145 312.288 257.689 317.76 260.689 322.865C263.689 327.97 268.086 332.609 273.629 336.516C279.172 340.424 285.752 343.523 292.994 345.638C300.237 347.752 307.999 348.841 315.838 348.841C323.677 348.841 331.439 347.752 338.682 345.638C345.924 343.523 352.505 340.424 358.048 336.516C363.591 332.609 367.988 327.97 370.988 322.865C373.987 317.76 375.531 312.288 375.531 306.762H374.935C374.935 312.233 373.406 317.65 370.436 322.704C367.466 327.758 363.113 332.35 357.626 336.219C352.138 340.087 345.623 343.156 338.453 345.249C331.283 347.343 323.599 348.42 315.838 348.42C308.077 348.42 300.393 347.343 293.223 345.249C286.053 343.156 279.538 340.087 274.051 336.219C268.563 332.35 264.21 327.758 261.24 322.704C258.27 317.65 256.742 312.233 256.742 306.762H256.145ZM337.367 282.727C321.676 287.99 312.195 287.932 296.267 282.727L337.367 282.727ZM296.266 282.827L337.367 282.828C331.495 278.824 323.11 280.89 316.817 280.871C310.464 280.851 302.138 278.824 296.266 282.827Z" stroke="#1E1E1E" stroke-width="5"/>
</svg>
