<svg width="700" height="550" viewBox="0 0 700 550" fill="none" xmlns="http://www.w3.org/2000/svg">
<path d="M334.137 105.794L316.9 104.942C316.391 104.915 315.892 105.092 315.513 105.433C315.133 105.774 314.905 106.252 314.878 106.761L314.036 121.83V121.878C314.451 123.582 314.652 125.331 314.636 127.085C315.981 130.433 321.12 120.726 322.872 117.242C323.35 116.252 324.098 115.417 325.03 114.833C326.868 113.72 327.033 115.171 326.897 116.439C326.793 117.279 326.527 118.091 326.114 118.83C323.259 124.172 323.578 127.201 323.578 127.201C326.133 133.472 333.798 119.072 333.798 119.072C334.591 118.201 335.133 117.91 335.511 117.988C335.519 117.949 335.522 117.91 335.52 117.871L335.975 107.816C335.999 107.304 335.819 106.804 335.474 106.425C335.129 106.046 334.648 105.819 334.137 105.794ZM319.339 111.523C318.963 111.511 318.605 111.352 318.343 111.081C318.081 110.81 317.935 110.448 317.935 110.071C317.935 109.694 318.081 109.332 318.343 109.061C318.605 108.79 318.963 108.632 319.339 108.62C319.716 108.632 320.073 108.79 320.335 109.061C320.597 109.332 320.744 109.694 320.744 110.071C320.744 110.448 320.597 110.81 320.335 111.081C320.073 111.352 319.716 111.511 319.339 111.523Z" fill="#020202"/>
<path d="M389.89 209.191C386.878 208.44 383.829 207.852 380.754 207.429C373.293 246.682 355.65 286.67 314.036 259.921C312.317 269.172 311.237 278.53 310.803 287.928C310.803 287.928 312.216 313.39 311.848 321.375C311.326 332.61 308.81 338.736 305.229 354.124C303.661 360.86 295.822 396.629 298.609 418.578C298.609 418.578 306.545 422.062 326.472 420.078C340.226 418.663 354.046 417.969 367.873 417.997C377.744 418.089 387.516 416.029 396.509 411.958C396.509 411.958 391.951 344.379 399.025 314.049C400.56 307.38 401.381 300.568 401.474 293.725C401.813 274.612 400.661 239.356 389.89 209.191ZM303.632 415.452C303.256 415.438 302.9 415.28 302.639 415.009C302.377 414.738 302.231 414.376 302.231 414C302.231 413.624 302.377 413.262 302.639 412.991C302.9 412.721 303.256 412.562 303.632 412.548C304.008 412.562 304.365 412.721 304.626 412.991C304.887 413.262 305.033 413.624 305.033 414C305.033 414.376 304.887 414.738 304.626 415.009C304.365 415.28 304.008 415.438 303.632 415.452ZM311.994 417.194C311.618 417.18 311.262 417.021 311 416.751C310.739 416.48 310.593 416.118 310.593 415.742C310.593 415.366 310.739 415.004 311 414.733C311.262 414.463 311.618 414.304 311.994 414.29C312.37 414.304 312.726 414.463 312.987 414.734C313.248 415.004 313.394 415.366 313.394 415.742C313.394 416.118 313.248 416.48 312.987 416.751C312.726 417.021 312.37 417.18 311.994 417.194V417.194ZM321.052 416.845C320.676 416.832 320.32 416.673 320.059 416.402C319.797 416.132 319.651 415.77 319.651 415.394C319.651 415.017 319.797 414.656 320.059 414.385C320.32 414.114 320.676 413.955 321.052 413.942C321.428 413.956 321.784 414.114 322.046 414.385C322.307 414.656 322.453 415.017 322.453 415.394C322.453 415.77 322.307 416.131 322.046 416.402C321.784 416.673 321.428 416.832 321.052 416.845V416.845ZM331.852 415.452C331.476 415.438 331.12 415.28 330.859 415.009C330.598 414.738 330.452 414.376 330.452 414C330.452 413.624 330.598 413.262 330.859 412.991C331.12 412.721 331.476 412.562 331.852 412.548C332.228 412.562 332.585 412.721 332.846 412.992C333.107 413.262 333.253 413.624 333.253 414C333.253 414.376 333.107 414.738 332.846 415.009C332.585 415.279 332.228 415.438 331.852 415.452V415.452ZM342.304 414.407C341.928 414.393 341.572 414.234 341.311 413.964C341.05 413.693 340.904 413.331 340.904 412.955C340.904 412.579 341.05 412.217 341.311 411.946C341.572 411.675 341.928 411.517 342.304 411.503C342.68 411.517 343.037 411.676 343.298 411.946C343.559 412.217 343.705 412.579 343.705 412.955C343.705 413.331 343.559 413.693 343.298 413.963C343.037 414.234 342.68 414.393 342.304 414.407L342.304 414.407ZM352.756 414.407C352.38 414.393 352.024 414.234 351.763 413.964C351.501 413.693 351.355 413.331 351.355 412.955C351.355 412.579 351.501 412.217 351.763 411.946C352.024 411.675 352.38 411.517 352.756 411.503C353.132 411.517 353.488 411.676 353.749 411.946C354.011 412.217 354.157 412.579 354.157 412.955C354.157 413.331 354.011 413.693 353.749 413.963C353.488 414.234 353.132 414.393 352.756 414.407L352.756 414.407ZM363.557 414.755C363.181 414.742 362.824 414.583 362.563 414.312C362.302 414.041 362.156 413.68 362.156 413.303C362.156 412.927 362.302 412.565 362.563 412.295C362.824 412.024 363.181 411.865 363.557 411.852C363.933 411.865 364.289 412.024 364.55 412.295C364.811 412.566 364.957 412.927 364.957 413.303C364.957 413.68 364.811 414.041 364.55 414.312C364.289 414.583 363.933 414.741 363.557 414.755L363.557 414.755ZM373.66 414.407C373.284 414.393 372.928 414.234 372.667 413.964C372.405 413.693 372.259 413.331 372.259 412.955C372.259 412.579 372.405 412.217 372.667 411.946C372.928 411.675 373.284 411.517 373.66 411.503C374.036 411.517 374.392 411.676 374.653 411.946C374.915 412.217 375.061 412.579 375.061 412.955C375.061 413.331 374.915 413.693 374.653 413.963C374.392 414.234 374.036 414.393 373.66 414.407L373.66 414.407ZM383.067 412.665C382.691 412.651 382.335 412.492 382.073 412.222C381.812 411.951 381.666 411.589 381.666 411.213C381.666 410.837 381.812 410.475 382.073 410.204C382.335 409.933 382.691 409.775 383.067 409.761C383.443 409.775 383.799 409.933 384.06 410.204C384.322 410.475 384.468 410.837 384.468 411.213C384.468 411.589 384.322 411.951 384.06 412.222C383.799 412.492 383.443 412.651 383.067 412.665H383.067ZM391.429 409.877C391.052 409.864 390.696 409.705 390.435 409.434C390.174 409.164 390.028 408.802 390.028 408.426C390.028 408.049 390.174 407.688 390.435 407.417C390.696 407.146 391.052 406.987 391.429 406.974C391.805 406.987 392.161 407.146 392.422 407.417C392.683 407.688 392.829 408.049 392.829 408.426C392.829 408.802 392.683 409.164 392.422 409.434C392.161 409.705 391.805 409.864 391.429 409.877H391.429Z" fill="#020202"/>
<path d="M409.229 289.396C409.278 289.451 409.313 289.516 409.334 289.586L409.358 289.737L409.394 289.99L409.469 290.495L409.619 291.505L409.898 293.527L410.469 297.568L411.548 305.655C412.273 311.043 412.929 316.438 413.715 321.814C414.464 327.194 415.092 332.589 415.885 337.959C416.287 340.643 416.724 343.322 417.284 345.974C417.752 348.623 418.582 351.195 419.749 353.618L419.76 353.637C419.791 353.693 419.802 353.759 419.791 353.822C419.78 353.886 419.748 353.944 419.7 353.987C417.962 355.537 416.072 356.908 414.058 358.077C412.048 359.29 409.878 360.215 407.612 360.826C405.279 361.468 402.815 361.463 400.484 360.811C398.146 360.054 396.08 358.629 394.542 356.712C394.423 356.571 394.361 356.391 394.367 356.207L394.368 356.174C394.504 351.94 394.692 347.709 394.871 343.478C395.053 339.247 395.215 335.014 395.445 330.785C395.447 330.749 395.452 330.708 395.457 330.672C396.066 326.826 396.759 322.994 397.409 319.155L399.495 307.66L400.229 307.015C400.35 306.987 400.469 306.949 400.583 306.901C400.749 306.833 400.908 306.75 401.059 306.653C401.389 306.445 401.696 306.203 401.974 305.93C402.273 305.652 402.555 305.356 402.819 305.044C403.074 304.714 403.329 304.381 403.575 304.039C404.518 302.6 405.317 301.072 405.96 299.476C406.61 297.866 407.205 296.222 407.717 294.547L409.229 289.396ZM409.219 289.59C409.044 290.498 408.981 291.376 408.859 292.167C408.753 292.945 408.505 293.868 408.334 294.713C407.956 296.447 407.475 298.157 406.894 299.835C406.315 301.54 405.569 303.184 404.666 304.742C404.421 305.128 404.162 305.51 403.9 305.891C403.616 306.267 403.311 306.626 402.985 306.966C402.647 307.321 402.271 307.638 401.864 307.911C401.65 308.059 401.422 308.187 401.185 308.294C400.9 308.433 400.594 308.52 400.28 308.553L401.014 307.909L399.323 319.468C398.714 323.314 398.148 327.167 397.497 331.006L397.509 330.893C397.3 335.123 397.022 339.349 396.764 343.576C396.503 347.804 396.251 352.031 395.947 356.256L395.773 355.719C397.085 357.457 398.858 358.794 400.89 359.579C402.989 360.282 405.243 360.391 407.4 359.893C409.618 359.419 411.748 358.602 413.713 357.472C415.704 356.359 417.577 355.048 419.304 353.558L419.255 353.927C418.586 352.712 418.054 351.427 417.669 350.094C417.266 348.785 416.884 347.471 416.556 346.146C415.876 343.5 415.264 340.84 414.72 338.166C413.621 332.822 412.679 327.448 411.989 322.044C411.34 316.635 410.702 311.226 410.224 305.802L409.568 297.661L409.324 293.583L409.21 291.544L409.168 290.523L409.148 290.012L409.138 289.757C409.138 289.724 409.129 289.65 409.138 289.655C409.156 289.65 409.172 289.642 409.186 289.631C409.2 289.62 409.211 289.606 409.219 289.59Z" fill="#020202"/>
<path d="M349.663 137.879C350.522 139.004 351.037 140.353 351.147 141.764C351.235 142.449 351.229 143.143 351.129 143.826C350.996 144.509 350.82 145.182 350.602 145.842L350.54 145.551C351.059 146.77 351.822 147.871 352.783 148.783C353.756 149.701 354.592 150.7 355.453 151.669C356.316 152.625 357.13 153.623 357.893 154.66L360.273 157.799C360.289 157.821 360.297 157.848 360.293 157.874C360.29 157.901 360.276 157.925 360.255 157.942C360.242 157.952 360.227 157.958 360.211 157.961C360.195 157.964 360.178 157.963 360.163 157.959C358.853 157.513 357.645 156.809 356.612 155.888C355.569 155.022 354.656 154.01 353.904 152.882C353.119 151.79 352.449 150.619 351.903 149.389C351.395 148.156 350.686 147.015 349.805 146.013C349.773 145.978 349.754 145.933 349.751 145.886L349.743 145.721C349.71 145.078 349.586 144.411 349.522 143.771C349.467 143.134 349.45 142.494 349.472 141.855L349.482 137.949C349.482 137.935 349.484 137.922 349.489 137.909C349.493 137.897 349.5 137.885 349.51 137.875C349.519 137.865 349.53 137.857 349.542 137.852C349.554 137.846 349.568 137.843 349.581 137.843C349.596 137.843 349.612 137.846 349.626 137.852C349.64 137.859 349.652 137.868 349.663 137.879Z" fill="#020202"/>
<path d="M370.554 147.563L370.557 146.644L370.674 146.815C369.038 146.3 367.635 145.225 366.712 143.779C365.786 142.374 365.074 140.84 364.597 139.226C364.106 137.638 363.74 136.015 363.503 134.37C363.257 132.726 363.114 131.069 363.075 129.407C363.07 129.231 363.122 129.057 363.223 128.912C363.325 128.767 363.47 128.658 363.637 128.601L363.677 128.588C364.195 128.372 364.668 128.061 365.072 127.671C365.524 127.259 365.92 126.791 366.252 126.277C366.935 125.227 367.382 124.041 367.562 122.801C367.774 121.552 367.717 120.214 366.97 119.499C366.219 118.772 364.74 118.814 363.557 119.162L363.506 119.177C361.642 119.526 359.716 119.242 358.032 118.37C356.401 117.515 354.921 116.4 353.65 115.069C352.37 113.765 351.198 112.359 350.146 110.865C349.082 109.371 348.12 107.806 347.266 106.181L348.491 106.286C347.42 107.994 346.512 109.799 345.78 111.677C345.388 112.615 345.016 113.561 344.675 114.514C344.332 115.43 344.044 116.366 343.813 117.317C343.44 119.288 343.231 121.286 343.188 123.291C343.141 125.289 343.245 127.286 343.5 129.268C343.614 130.19 343.867 131.09 344.251 131.936C344.347 132.133 344.446 132.304 344.591 132.544C344.786 132.881 344.848 133.015 344.968 133.237C345.196 133.64 345.459 134.023 345.755 134.38C346.966 135.852 348.609 136.906 350.453 137.393C352.348 137.883 354.347 137.785 356.185 137.112C358.093 136.444 359.782 135.266 361.068 133.706C361.084 133.687 361.106 133.675 361.13 133.672C361.154 133.668 361.179 133.675 361.199 133.689C361.219 133.703 361.233 133.724 361.238 133.748C361.243 133.772 361.238 133.797 361.226 133.818C360.088 135.664 358.423 137.126 356.446 138.016C354.469 138.906 352.271 139.183 350.135 138.812C349.857 138.765 349.607 138.688 349.336 138.623C349.044 138.536 348.78 138.46 348.523 138.355C348.006 138.151 347.506 137.909 347.025 137.631C346.052 137.075 345.172 136.372 344.414 135.547C344.03 135.128 343.684 134.677 343.378 134.198C343.241 133.973 343.057 133.654 342.983 133.552C342.851 133.357 342.673 133.092 342.533 132.831C342.03 131.813 341.687 130.723 341.517 129.6C340.857 125.395 340.998 121.103 341.93 116.95C342.207 115.903 342.552 114.874 342.963 113.872C343.346 112.895 343.755 111.931 344.189 110.982C345.051 109.054 346.101 107.216 347.325 105.495L347.348 105.463C347.401 105.39 347.469 105.327 347.547 105.279C347.625 105.232 347.711 105.2 347.802 105.186C347.892 105.172 347.984 105.175 348.073 105.197C348.161 105.218 348.245 105.257 348.319 105.31C348.42 105.384 348.5 105.484 348.549 105.6C349.248 107.227 350.06 108.803 350.981 110.316C351.891 111.844 352.948 113.28 354.137 114.603C355.305 115.933 356.715 117.029 358.291 117.833C359.843 118.625 361.63 118.821 363.316 118.385L363.266 118.401C363.957 118.124 364.69 117.969 365.434 117.94C366.249 117.889 367.056 118.126 367.714 118.611C368.352 119.149 368.782 119.894 368.93 120.716C368.998 121.093 369.046 121.474 369.073 121.857L369.045 122.965C368.945 124.465 368.483 125.918 367.698 127.2C367.29 127.844 366.801 128.433 366.242 128.951C365.661 129.523 364.961 129.959 364.191 130.227L364.793 129.407C364.792 130.968 364.922 132.584 365.081 134.164C365.25 135.746 365.518 137.316 365.885 138.864C366.233 140.401 366.781 141.885 367.514 143.279C368.206 144.69 369.359 145.823 370.782 146.491L370.81 146.503C370.84 146.516 370.866 146.538 370.882 146.567C370.898 146.596 370.904 146.63 370.898 146.663L370.747 147.582C370.743 147.607 370.728 147.63 370.708 147.645C370.687 147.66 370.661 147.666 370.635 147.662C370.612 147.658 370.592 147.645 370.577 147.627C370.562 147.609 370.554 147.586 370.554 147.563Z" fill="#020202"/>
<path d="M335.529 117.893C336.042 118.019 336.206 118.543 336.312 118.933C336.409 119.348 336.463 119.772 336.474 120.198C336.495 121.04 336.454 121.883 336.351 122.719L336.079 122.38C336.493 122.385 336.9 122.491 337.263 122.691C337.642 122.92 337.928 123.277 338.069 123.697C338.282 124.462 338.295 125.269 338.105 126.04C337.953 126.771 337.736 127.486 337.455 128.178C337.185 128.867 336.876 129.542 336.532 130.198L336.603 129.93L336.654 132.297C336.706 133.13 336.654 133.967 336.501 134.788C336.171 136.483 335.332 138.038 334.098 139.246C333.789 139.546 333.459 139.824 333.111 140.078L332.153 140.771L330.235 142.158L326.399 144.93L325.441 145.623C325.162 145.81 324.909 146.03 324.685 146.28C324.259 146.757 323.972 147.342 323.855 147.971C323.825 148.126 323.807 148.283 323.8 148.441C323.793 148.59 323.798 148.75 323.801 148.966L323.812 150.165C323.819 150.964 323.788 151.759 323.777 152.556C323.676 155.738 323.41 158.9 323.046 162.046C322.34 168.34 321.334 174.581 320.343 180.818C320.074 182.374 319.89 183.94 319.537 185.504C319.179 187.06 318.698 188.584 318.098 190.064C316.869 193.018 315.151 195.744 313.016 198.127L313.007 198.137C312.983 198.164 312.955 198.187 312.923 198.205L310.697 199.443C309.905 199.762 309.123 200.121 308.301 200.377C306.616 200.903 304.829 201.014 303.091 200.701C301.325 200.306 299.722 199.379 298.5 198.045C297.287 196.735 296.359 195.187 295.773 193.501L295.763 193.464L295.758 193.442C295.075 189.92 294.925 186.315 295.314 182.748C295.758 179.227 296.49 175.748 297.502 172.347C299.6 165.617 302.359 159.111 305.738 152.925C306.532 151.388 307.435 149.795 308.141 148.366C308.724 146.779 309.185 145.15 309.522 143.494C309.906 141.805 310.252 140.101 310.581 138.393C310.93 136.803 310.855 135.15 310.365 133.598C309.726 131.845 309.591 129.949 309.977 128.124C310.149 127.32 310.209 126.497 310.154 125.677C310.123 125.295 310.032 124.92 309.883 124.567C309.81 124.401 309.717 124.244 309.606 124.099C309.458 123.905 309.325 123.7 309.209 123.485C308.774 122.626 308.604 121.656 308.721 120.7C308.776 120.201 308.971 119.727 309.285 119.335C309.599 118.943 310.018 118.648 310.494 118.485C310.966 118.358 311.465 118.378 311.926 118.541C312.386 118.705 312.786 119.005 313.072 119.401C313.594 120.134 313.954 120.97 314.129 121.852C314.135 121.877 314.131 121.903 314.118 121.925C314.104 121.947 314.083 121.963 314.058 121.969C314.034 121.975 314.009 121.971 313.988 121.959C313.966 121.947 313.95 121.927 313.943 121.904C313.711 121.083 313.31 120.319 312.766 119.662C312.524 119.356 312.194 119.132 311.82 119.018C311.446 118.905 311.047 118.909 310.675 119.028C310.329 119.175 310.032 119.416 309.817 119.724C309.602 120.032 309.479 120.394 309.461 120.769C309.42 121.563 309.606 122.352 309.997 123.044C310.097 123.209 310.209 123.366 310.333 123.513C310.497 123.708 310.638 123.921 310.753 124.148C310.968 124.591 311.11 125.065 311.174 125.552C311.284 126.472 311.263 127.404 311.112 128.318C310.841 129.946 311.041 131.617 311.688 133.134C312.329 134.906 312.482 136.818 312.13 138.669C311.848 140.397 311.55 142.125 311.21 143.852C310.903 145.627 310.458 147.375 309.878 149.08C309.101 150.812 308.28 152.26 307.495 153.836C305.91 156.929 304.437 160.066 303.045 163.234C301.662 166.408 300.466 169.649 299.392 172.924C298.359 176.201 297.595 179.557 297.108 182.958C296.689 186.336 296.746 189.756 297.28 193.118L297.265 193.06C297.752 194.541 298.521 195.915 299.53 197.103C300.526 198.295 301.866 199.151 303.367 199.553C304.91 199.896 306.513 199.856 308.037 199.437C308.81 199.228 309.565 198.913 310.328 198.642L312.516 197.53L312.423 197.608C314.576 195.339 316.305 192.704 317.529 189.826C318.147 188.392 318.623 186.901 318.95 185.374C319.271 183.854 319.467 182.283 319.677 180.721C320.505 174.468 321.118 168.186 321.57 161.911C321.777 158.772 321.969 155.636 322.053 152.509C322.059 151.728 322.086 150.946 322.075 150.168L322.063 148.999C322.063 148.821 322.059 148.586 322.075 148.342C322.089 148.106 322.121 147.871 322.169 147.639C322.36 146.71 322.8 145.852 323.442 145.155C323.752 144.822 324.1 144.527 324.479 144.276L325.45 143.6L329.336 140.895L331.279 139.542L332.25 138.866C332.544 138.66 332.822 138.433 333.083 138.188C334.144 137.197 334.895 135.92 335.243 134.511C335.411 133.785 335.488 133.041 335.47 132.297L335.521 129.93L335.522 129.915C335.524 129.826 335.548 129.739 335.592 129.662C336.303 128.464 336.859 127.181 337.249 125.844C337.45 125.225 337.493 124.565 337.373 123.924C337.287 123.641 337.11 123.394 336.871 123.221C336.631 123.047 336.341 122.957 336.045 122.964L336.03 122.962C335.955 122.956 335.884 122.919 335.836 122.86C335.787 122.802 335.763 122.726 335.77 122.651L335.774 122.624C335.927 121.824 336.022 121.013 336.057 120.199C336.084 119.797 336.069 119.393 336.014 118.994C335.953 118.616 335.829 118.192 335.493 118.083L335.476 118.077C335.452 118.069 335.433 118.053 335.421 118.031C335.409 118.009 335.407 117.983 335.413 117.959C335.42 117.935 335.436 117.915 335.458 117.903C335.479 117.89 335.505 117.886 335.529 117.892L335.529 117.893Z" fill="#020202"/>
<path d="M328.802 132.606C330.18 130.727 331.635 128.973 332.981 127.145C333.664 126.247 334.3 125.315 334.889 124.352C335.513 123.405 335.965 122.355 336.225 121.251C336.337 122.44 336.106 123.636 335.56 124.698C335.072 125.769 334.468 126.783 333.758 127.721C333.059 128.654 332.293 129.535 331.468 130.358C330.65 131.188 329.758 131.94 328.802 132.606Z" fill="#020202"/>
<path d="M329.615 137.185C330.809 135.466 332.14 133.913 333.439 132.338C334.103 131.563 334.742 130.772 335.385 129.985C336.041 129.199 336.645 128.371 337.192 127.505C336.985 128.542 336.582 129.53 336.006 130.415C335.465 131.309 334.855 132.159 334.181 132.958C332.856 134.565 331.32 135.987 329.615 137.185Z" fill="#020202"/>
<path d="M322.375 161.274C322.664 158.109 323.603 155.038 325.133 152.253C326.654 149.354 328.917 146.911 331.691 145.174C334.544 143.511 337.839 142.767 341.13 143.041C344.304 143.301 347.386 144.234 350.171 145.779C347.21 144.981 344.158 144.569 341.091 144.551C339.61 144.565 338.136 144.767 336.706 145.152C335.292 145.518 333.937 146.085 332.683 146.834C330.164 148.413 328.026 150.529 326.421 153.031C324.739 155.602 323.38 158.371 322.375 161.274Z" fill="#020202"/>
<path d="M382.241 198.739C383.671 198.435 385.116 198.207 386.569 198.055C388.014 197.888 389.46 197.784 390.909 197.712L390.115 198.799C389.605 197.183 389.209 195.533 388.928 193.862L388.906 193.735C388.894 193.662 388.898 193.586 388.917 193.514C388.937 193.442 388.973 193.375 389.021 193.318C390.818 191.215 392.063 188.696 392.643 185.99C392.908 184.65 393.051 183.289 393.07 181.923C393.096 181.253 393.085 180.583 393.039 179.915C393.024 179.252 392.954 178.592 392.828 177.941C392.338 175.347 391.349 172.873 389.915 170.657C388.398 168.294 387.009 165.85 385.756 163.336C385.744 163.312 385.742 163.285 385.751 163.261C385.759 163.236 385.777 163.216 385.8 163.204C385.819 163.195 385.84 163.192 385.86 163.196C385.88 163.199 385.899 163.209 385.914 163.224C387.859 165.25 389.694 167.38 391.409 169.605C391.852 170.184 392.264 170.788 392.641 171.413C393.049 172.033 393.387 172.697 393.649 173.393C393.957 174.07 394.187 174.779 394.336 175.508C394.413 175.871 394.532 176.225 394.573 176.593L394.697 177.695C394.786 178.425 394.816 179.16 394.785 179.894C394.777 180.624 394.708 181.351 394.58 182.069C394.319 183.483 393.938 184.872 393.44 186.22C392.913 187.544 392.417 188.86 391.848 190.153C391.28 191.452 390.773 192.758 390.062 194.056L390.155 193.512C390.799 195.079 391.334 196.689 391.755 198.33L391.766 198.372C391.82 198.588 391.787 198.817 391.673 199.008C391.559 199.199 391.374 199.337 391.158 199.392C391.094 199.408 391.027 199.416 390.961 199.417C389.512 199.431 388.062 199.42 386.609 199.342C385.149 199.282 383.693 199.145 382.247 198.932C382.225 198.929 382.204 198.917 382.189 198.9C382.174 198.883 382.165 198.861 382.164 198.838C382.164 198.815 382.171 198.793 382.185 198.775C382.199 198.757 382.219 198.744 382.241 198.739L382.241 198.739Z" fill="#020202"/>
<path d="M312.72 197.868C314.043 197.7 315.289 197.15 316.305 196.286C316.832 195.89 317.338 195.467 317.82 195.017C318.277 194.533 318.764 194.091 319.203 193.595C320.949 191.591 322.535 189.453 323.945 187.2C324.644 186.063 325.362 184.944 326.013 183.774C326.675 182.613 327.363 181.469 327.961 180.268C328.565 179.072 329.26 177.927 329.827 176.709C330.416 175.504 331.011 174.301 331.628 173.108L331.657 173.052C331.748 172.876 331.896 172.736 332.077 172.654C332.257 172.573 332.46 172.554 332.652 172.602C332.844 172.65 333.015 172.762 333.136 172.919C333.257 173.075 333.322 173.268 333.32 173.467C333.304 174.908 333.314 176.35 333.273 177.792C333.237 179.234 333.225 180.676 333.164 182.118C333.074 185.002 332.931 187.887 332.694 190.774C332.371 187.896 332.141 185.016 331.963 182.136C331.859 180.696 331.803 179.256 331.723 177.815C331.639 176.375 331.606 174.934 331.546 173.493L333.238 173.852C332.119 176.329 330.958 178.788 329.656 181.183C328.366 183.592 326.936 185.922 325.372 188.162C323.818 190.433 322.019 192.526 320.008 194.403C319.499 194.868 318.947 195.293 318.415 195.729C317.852 196.134 317.267 196.508 316.664 196.85C315.491 197.6 314.109 197.957 312.72 197.868Z" fill="#020202"/>
<path d="M386.261 148.84C390.368 149.815 394.008 152.188 396.557 155.553C398.643 159.172 400.195 163.073 401.164 167.136C402.184 171.13 402.96 175.182 403.488 179.27C404.031 183.349 404.401 187.434 404.539 191.557L404.54 191.59C404.545 191.764 404.485 191.933 404.372 192.065C404.259 192.197 404.101 192.282 403.929 192.303C402.734 192.447 401.538 192.581 400.34 192.704C399.142 192.825 397.948 192.972 396.746 193.072C394.345 193.279 391.951 193.535 389.541 193.687C391.893 193.142 394.26 192.701 396.62 192.211C397.8 191.963 398.986 191.761 400.169 191.534C401.352 191.308 402.536 191.093 403.722 190.89L403.112 191.635C402.727 187.6 402.218 183.551 401.628 179.534C401.017 175.519 400.324 171.516 399.368 167.586C398.9 165.621 398.388 163.665 397.744 161.76C397.425 160.807 397.123 159.846 396.724 158.929C396.389 158.002 395.97 157.107 395.473 156.255C394.435 154.566 393.094 153.083 391.517 151.881C389.889 150.667 388.125 149.647 386.261 148.84Z" fill="#020202"/>
<path d="M382.244 198.845L388.419 198.642L389.009 198.622L389.89 209.191" stroke="#020202" stroke-width="0.96777" stroke-linecap="round" stroke-linejoin="round"/>
<path d="M401.823 191.886C402.359 194.998 402.848 198.116 403.337 201.234L404.784 210.595L406.156 219.966L406.829 224.655C407.02 226.221 407.109 227.797 407.254 229.368C407.797 235.655 408.286 241.948 408.771 248.241L410.124 267.128L410.124 267.139L410.126 267.196L410.018 277.917L409.936 283.278C409.94 285.085 409.847 286.891 409.657 288.688C409.284 292.292 408.419 295.828 407.086 299.197C406.438 300.883 405.629 302.502 404.672 304.034C403.752 305.595 402.439 306.889 400.863 307.784C402.332 306.777 403.527 305.418 404.336 303.831C405.186 302.276 405.884 300.643 406.422 298.955C407.519 295.593 408.193 292.107 408.427 288.578C408.55 286.811 408.55 285.074 408.513 283.278L408.431 277.917L408.323 267.196L408.325 267.263L406.859 248.406C406.404 242.118 405.954 235.83 405.556 229.535C405.444 227.963 405.371 226.387 405.227 224.818L404.698 220.12L403.668 210.721L402.712 201.31C402.4 198.171 402.089 195.032 401.823 191.886Z" fill="#020202"/>
<path d="M404.347 282.525C404.544 286.17 404.45 289.825 404.067 293.455C403.886 295.275 403.61 297.084 403.241 298.875C403.054 299.776 402.815 300.665 402.527 301.538C402.278 302.432 401.828 303.258 401.211 303.951C401.661 303.17 401.953 302.308 402.069 301.414C402.246 300.533 402.374 299.64 402.497 298.746C402.726 296.955 402.929 295.158 403.105 293.355C403.487 289.752 403.813 286.14 404.347 282.525Z" fill="#020202"/>
<path d="M398.435 453.34C398.38 453.562 398.374 453.793 398.416 454.017C396.17 452.935 393.791 452.155 391.341 451.695C388.063 451.07 384.708 450.946 381.393 451.327C379.743 451.503 378.108 451.788 376.496 452.179C374.782 452.644 372.998 452.791 371.231 452.614C369.432 452.432 367.696 451.85 366.15 450.911C365.064 450.278 364.108 449.443 363.334 448.453C362.965 447.99 362.65 447.487 362.395 446.953C361.621 445.296 361.259 443.476 361.34 441.649C361.418 439.895 361.721 438.158 362.24 436.481C362.738 434.829 363.386 433.225 364.176 431.691C364.577 430.918 365.036 430.177 365.55 429.475C366.974 427.494 367.562 425.033 367.186 422.623C366.913 420.985 366.328 419.414 365.463 417.997C365.452 417.974 365.45 417.947 365.457 417.922C365.464 417.897 365.48 417.876 365.502 417.861C365.523 417.849 365.547 417.846 365.571 417.851C365.594 417.856 365.614 417.871 365.628 417.891C366.679 419.254 367.431 420.824 367.834 422.497C368.249 424.221 368.182 426.025 367.641 427.713C367.365 428.559 366.982 429.366 366.499 430.113C366.055 430.792 365.663 431.504 365.328 432.243C364.662 433.75 364.112 435.306 363.682 436.898C363.246 438.455 363.012 440.061 362.986 441.678C362.932 443.235 363.254 444.782 363.924 446.188C364.645 447.535 365.723 448.657 367.041 449.43C368.377 450.263 369.874 450.804 371.434 451.017C373.022 451.241 374.636 451.189 376.205 450.862C377.89 450.544 379.594 450.341 381.305 450.253C384.668 450.085 388.038 450.352 391.332 451.046C391.38 451.056 391.419 451.066 391.467 451.075C393.866 451.572 396.203 452.331 398.435 453.34Z" fill="#020202"/>
<path d="M403.913 439.559C402.693 438.968 401.455 438.368 400.255 437.691C398.406 436.697 396.703 435.453 395.193 433.994C392.798 431.456 391.069 428.363 390.161 424.994C389.694 423.352 389.377 421.67 389.212 419.971L388.583 414.948C388.581 414.923 388.588 414.899 388.604 414.879C388.619 414.859 388.642 414.846 388.666 414.842C388.691 414.839 388.716 414.845 388.737 414.859C388.758 414.873 388.772 414.895 388.777 414.919L389.832 419.865C390.134 421.503 390.555 423.116 391.09 424.694C392.132 427.804 393.9 430.62 396.248 432.91C398.071 434.516 400.131 435.832 402.355 436.81H402.364C403.129 437.178 403.903 437.517 404.677 437.856C405.539 438.223 406.41 438.591 407.29 438.949C407.013 439.188 406.829 439.516 406.769 439.877C406.708 440.237 406.777 440.608 406.961 440.923C405.936 440.488 404.919 440.033 403.913 439.559Z" fill="#020202"/>
<path d="M429.868 453.708C429.81 453.853 429.743 453.998 429.675 454.134V454.143C429.231 454.866 428.649 455.494 427.962 455.992C427.588 456.262 427.197 456.507 426.791 456.727C426.4 456.952 425.992 457.146 425.572 457.308C423.951 457.965 422.259 458.43 420.529 458.692C417.124 459.222 413.656 459.216 410.252 458.672C408.56 458.398 406.896 457.977 405.277 457.414C403.674 456.822 402.131 456.077 400.671 455.188C400.584 455.14 400.497 455.092 400.41 455.043C400.632 454.945 400.818 454.779 400.942 454.569L401 454.598C403.334 455.98 405.908 456.91 408.587 457.337V457.346C409.187 457.453 409.797 457.55 410.397 457.617C413.688 457.958 417.01 457.811 420.258 457.182C421.85 456.883 423.402 456.402 424.884 455.75C426.297 455.092 427.72 454.172 428.175 453.03C428.274 452.755 428.313 452.462 428.292 452.17C428.27 451.878 428.187 451.594 428.049 451.337C427.887 451.033 427.689 450.751 427.459 450.495C427.333 450.359 427.226 450.224 427.091 450.088L426.655 449.72C425.407 448.726 424.034 447.9 422.571 447.262C421.091 446.595 419.542 445.995 417.955 445.375L415.429 444.378L413.252 443.527C411.655 442.869 410.049 442.23 408.442 441.552C408.625 441.513 408.799 441.438 408.953 441.332C409.107 441.226 409.238 441.09 409.34 440.932C409.441 440.775 409.511 440.599 409.545 440.415C409.578 440.231 409.575 440.042 409.536 439.859C411.026 440.449 412.52 441.03 414.016 441.601L417.007 442.782L418.72 443.459C420.268 444.069 421.865 444.678 423.433 445.443C425.05 446.182 426.561 447.136 427.923 448.279L428.436 448.743C428.601 448.908 428.746 449.101 428.91 449.285C429.234 449.663 429.51 450.079 429.733 450.524C429.975 451.016 430.112 451.553 430.135 452.102C430.159 452.65 430.068 453.197 429.868 453.708Z" fill="#020202"/>
<path d="M293.151 440.817C293.389 440.542 293.525 440.195 293.537 439.832C293.55 439.469 293.437 439.113 293.219 438.823C294.767 438.204 296.306 437.556 297.797 436.83C298.58 436.462 299.364 436.065 300.119 435.639C305.752 432.804 309.071 426.794 310.31 420.552C310.315 420.526 310.331 420.504 310.352 420.49C310.374 420.475 310.401 420.47 310.426 420.474C310.451 420.482 310.472 420.497 310.486 420.518C310.5 420.54 310.506 420.565 310.503 420.59C310.205 423.841 309.253 426.997 307.707 429.871C306.915 431.326 305.936 432.67 304.794 433.868C303.633 435.059 302.322 436.094 300.894 436.946C300.497 437.188 300.1 437.41 299.703 437.633C299.694 437.643 299.694 437.643 299.694 437.633C297.569 438.807 295.386 439.869 293.151 440.817Z" fill="#020202"/>
<path d="M338.685 442.404C338.669 444.15 338.231 445.867 337.407 447.407C337.195 447.777 336.959 448.132 336.701 448.472C335.885 449.534 334.857 450.414 333.681 451.056C332.182 451.901 330.525 452.431 328.814 452.614C327.127 452.787 325.422 452.656 323.781 452.227C322.248 451.848 320.694 451.56 319.126 451.366C315.971 450.964 312.774 451.013 309.632 451.511C306.489 452.04 303.447 453.052 300.613 454.511L298.532 455.672L297.458 456.282C297.1 456.466 296.722 456.63 296.355 456.804C294.858 457.47 293.298 457.986 291.7 458.343C288.498 459.065 285.206 459.296 281.935 459.03C280.285 458.903 278.65 458.631 277.047 458.217C275.386 457.818 273.803 457.144 272.364 456.224C271.572 455.717 270.904 455.039 270.409 454.24C270.389 454.213 270.373 454.184 270.36 454.153C270.1 453.71 269.936 453.217 269.879 452.707C269.823 452.197 269.874 451.68 270.031 451.191C270.327 450.272 270.842 449.438 271.531 448.762L272.518 447.882L273.554 447.127C276.377 445.447 279.368 444.065 282.477 443.004L283.038 442.791L290.732 439.801C290.724 439.988 290.754 440.176 290.821 440.352C290.889 440.527 290.991 440.687 291.123 440.821C291.254 440.956 291.412 441.061 291.586 441.132C291.76 441.203 291.947 441.237 292.135 441.233C292.161 441.235 292.188 441.232 292.213 441.223L292.155 441.252C289.648 442.346 287.113 443.352 284.596 444.369L283.232 444.92C280.266 445.954 277.4 447.253 274.667 448.801C273.442 449.45 272.46 450.479 271.87 451.733C271.444 452.778 272.218 453.901 273.409 454.733C274.672 455.558 276.056 456.179 277.512 456.572C279.006 457.012 280.534 457.326 282.08 457.511C285.197 457.884 288.35 457.815 291.448 457.308C291.459 457.3 291.473 457.297 291.487 457.298C293.038 457.031 294.559 456.61 296.026 456.04C296.394 455.885 296.761 455.75 297.119 455.585L298.164 455.043L300.313 453.901C302.983 452.613 305.801 451.657 308.703 451.056C308.975 450.998 309.255 450.94 309.526 450.891C312.723 450.304 315.978 450.103 319.223 450.291C320.854 450.397 322.476 450.604 324.081 450.911C325.575 451.197 327.105 451.233 328.61 451.017C330.08 450.856 331.496 450.374 332.759 449.604C334.022 448.835 335.1 447.798 335.917 446.565C337.369 444.03 337.262 440.778 336.595 437.778C336.24 436.254 335.771 434.76 335.191 433.307C334.901 432.571 334.582 431.846 334.233 431.149C334.034 430.784 333.853 430.409 333.691 430.026C333.527 429.639 333.401 429.233 333.275 428.836C332.443 425.64 332.575 422.27 333.653 419.148C333.657 419.136 333.664 419.125 333.672 419.116C333.681 419.106 333.692 419.098 333.703 419.093C333.715 419.087 333.728 419.084 333.741 419.084C333.754 419.084 333.766 419.086 333.778 419.09C333.799 419.101 333.816 419.118 333.826 419.139C333.837 419.16 333.84 419.184 333.837 419.207C333.512 420.762 333.369 422.35 333.411 423.939C333.466 425.5 333.746 427.045 334.243 428.526C334.379 428.894 334.514 429.252 334.678 429.591C334.833 429.929 335.037 430.229 335.249 430.607C335.646 431.323 336.014 432.049 336.362 432.794C337.064 434.286 337.631 435.837 338.056 437.43C338.495 439.051 338.707 440.725 338.685 442.404Z" fill="#020202"/>
<path d="M301.047 98.397C301.845 98.6393 302.605 98.9945 303.304 99.4516C303.973 99.8811 304.604 100.369 305.188 100.909C305.773 101.448 306.309 102.038 306.789 102.672C307.3 103.333 307.713 104.064 308.015 104.842C307.215 104.602 306.454 104.248 305.756 103.79C305.086 103.36 304.456 102.872 303.874 102.33C303.29 101.79 302.754 101.199 302.274 100.565C301.764 99.9044 301.351 99.1744 301.047 98.397Z" fill="#020202"/>
<path d="M314.808 89.3384C315.389 89.942 315.881 90.6251 316.27 91.3674C316.647 92.0716 316.961 92.8077 317.209 93.567C317.459 94.3254 317.641 95.1048 317.753 95.8957C317.879 96.7242 317.884 97.5666 317.77 98.3967C317.187 97.7945 316.694 97.1114 316.306 96.3686C315.929 95.6646 315.615 94.9282 315.37 94.1682C315.121 93.409 314.94 92.6295 314.828 91.8386C314.703 91.0104 314.696 90.1685 314.808 89.3384Z" fill="#020202"/>
<path d="M326.131 99.4421C326.138 98.3965 326.266 97.3553 326.512 96.3391C326.743 95.351 327.041 94.3801 327.406 93.4333C327.768 92.4855 328.196 91.5643 328.687 90.6767C329.185 89.7568 329.789 88.8984 330.486 88.1191C330.482 89.165 330.355 90.2068 330.108 91.2231C329.878 92.2112 329.579 93.1819 329.212 94.1279C328.848 95.0751 328.419 95.9958 327.928 96.8836C327.43 97.803 326.827 98.6615 326.131 99.4421Z" fill="#020202"/>
<path d="M363.933 129.404C362.8 136.198 376.475 124.091 373.165 114.075C369.855 104.058 368.897 102.839 357.574 101.62C346.251 100.4 347.906 105.888 347.906 105.888C347.906 105.888 354.318 120.043 363.41 118.778C363.41 118.778 369.412 115.997 368.112 124.014C368.112 124.014 366.907 127.635 365.42 128.52L363.933 129.404Z" fill="#020202"/>
<path d="M367.796 129.693C374.621 136.514 365.444 139.733 365.444 139.733C365.444 139.733 363.995 131.493 364.213 130.753L367.796 129.693Z" fill="#020202"/>
<path d="M350.334 143.34C350.334 143.34 350.683 143.425 351.279 143.539" stroke="#020202" stroke-width="0.96777" stroke-linecap="round" stroke-linejoin="round"/>
<path d="M353.34 143.868C356.569 144.287 361.618 144.482 364.463 142.268" stroke="#020202" stroke-width="0.96777" stroke-linecap="round" stroke-linejoin="round" stroke-dasharray="2.09 2.09"/>
<path d="M365.224 141.555C365.438 141.312 365.629 141.05 365.794 140.771" stroke="#020202" stroke-width="0.96777" stroke-linecap="round" stroke-linejoin="round"/>
<path d="M319.338 131.315C319.904 131.835 320.535 132.279 321.215 132.637C321.533 132.813 321.872 132.958 322.222 133.125C322.606 133.285 322.98 133.466 323.344 133.667C322.926 133.825 322.478 133.891 322.032 133.86C321.586 133.829 321.152 133.703 320.759 133.49C320.355 133.272 320.007 132.965 319.739 132.593C319.46 132.227 319.318 131.775 319.338 131.315Z" fill="#020202"/>
<path d="M325.783 135.322C326.25 135.7 326.642 136.163 326.936 136.687C327.069 136.928 327.203 137.152 327.319 137.39C327.436 137.653 327.594 137.896 327.786 138.109C327.614 138.165 327.43 138.175 327.252 138.14C327.075 138.106 326.909 138.026 326.77 137.909C326.501 137.716 326.274 137.468 326.105 137.182C325.762 136.627 325.647 135.961 325.783 135.322Z" fill="#020202"/>
<path d="M346.224 121.399C346.601 121.386 346.957 121.228 347.219 120.957C347.48 120.686 347.627 120.324 347.627 119.948C347.627 119.571 347.48 119.209 347.219 118.939C346.957 118.668 346.601 118.509 346.224 118.496C345.848 118.509 345.491 118.668 345.23 118.939C344.968 119.209 344.822 119.571 344.822 119.948C344.822 120.324 344.968 120.686 345.23 120.957C345.491 121.228 345.848 121.386 346.224 121.399Z" fill="#020202"/>
<path d="M354.15 121.574C354.527 121.561 354.883 121.402 355.145 121.131C355.406 120.86 355.553 120.499 355.553 120.122C355.553 119.746 355.406 119.384 355.145 119.113C354.883 118.842 354.527 118.683 354.15 118.67C353.774 118.683 353.417 118.842 353.156 119.113C352.894 119.384 352.748 119.746 352.748 120.122C352.748 120.499 352.894 120.86 353.156 121.131C353.417 121.402 353.774 121.561 354.15 121.574Z" fill="#020202"/>
<path d="M343.002 116.812C343.261 116.381 343.652 116.044 344.118 115.851C344.56 115.647 345.041 115.544 345.528 115.547C346.021 115.534 346.509 115.643 346.949 115.864C347.39 116.084 347.769 116.41 348.053 116.812C347.606 116.901 347.152 116.954 346.697 116.969C346.29 116.981 345.905 117.008 345.523 116.999C344.679 116.997 343.837 116.934 343.002 116.812Z" fill="#020202"/>
<path d="M353.018 116.812C353.227 116.427 353.556 116.121 353.956 115.942C354.327 115.758 354.736 115.663 355.15 115.663C355.576 115.647 355.999 115.745 356.374 115.947C356.75 116.149 357.065 116.447 357.286 116.812C356.909 116.928 356.522 117.008 356.13 117.05C355.806 117.09 355.481 117.112 355.155 117.115C354.432 117.114 353.713 117.012 353.018 116.812Z" fill="#020202"/>
<path d="M346.921 123.258C347.486 123.734 348.164 124.059 348.89 124.201C349.225 124.296 349.59 124.314 349.967 124.382C350.378 124.416 350.786 124.477 351.189 124.564C350.847 124.842 350.445 125.037 350.015 125.135C349.575 125.235 349.119 125.238 348.678 125.145C348.218 125.045 347.795 124.817 347.458 124.489C347.289 124.332 347.153 124.141 347.061 123.929C346.969 123.718 346.921 123.489 346.921 123.258Z" fill="#020202"/>
<path d="M351.189 132.606C351.561 132.612 351.929 132.532 352.265 132.371C352.6 132.21 352.893 131.973 353.121 131.679C353.318 131.394 353.455 131.071 353.522 130.731C353.589 130.391 353.586 130.041 353.512 129.702C353.402 129.11 353.081 128.578 352.609 128.204C352.191 127.919 351.697 127.766 351.191 127.767C350.685 127.768 350.191 127.922 349.774 128.208C349.272 128.619 348.941 129.202 348.846 129.844C348.751 130.485 348.897 131.14 349.257 131.679C349.485 131.973 349.778 132.21 350.114 132.371C350.449 132.532 350.817 132.613 351.189 132.606ZM351.189 132.606C350.414 132.619 349.66 132.355 349.062 131.861C348.43 131.303 348.018 130.538 347.898 129.704C347.822 129.243 347.84 128.772 347.952 128.319C348.063 127.865 348.266 127.44 348.547 127.067C348.87 126.68 349.274 126.369 349.73 126.156C350.186 125.943 350.684 125.832 351.188 125.833C351.691 125.833 352.189 125.944 352.645 126.157C353.101 126.371 353.505 126.682 353.828 127.069C354.108 127.441 354.31 127.867 354.422 128.319C354.533 128.772 354.551 129.243 354.475 129.703C354.356 130.536 353.944 131.3 353.314 131.858C352.718 132.354 351.964 132.619 351.189 132.606Z" fill="#020202"/>
<path d="M336.701 448.472C336.614 448.146 336.477 447.836 336.295 447.553C331.794 455.633 318.739 448.54 310.261 451.085C309.042 451.453 308.81 451.337 308.81 451.337C308.81 451.337 308.771 451.24 308.703 451.056C308.064 449.372 304.561 440.594 299.703 437.633C299.693 437.643 299.693 437.643 299.693 437.633C299.104 437.273 298.465 437.003 297.797 436.83C297.278 436.699 296.743 436.65 296.209 436.684C296.209 436.684 284.364 439.017 282.738 442.501C282.738 442.501 282.845 442.598 283.038 442.791C283.357 443.091 283.919 443.643 284.596 444.369C287.2 447.165 291.612 452.614 291.448 457.308C291.448 457.492 291.438 457.676 291.419 457.859C273.302 459.746 270.786 453.069 270.786 453.069C270.604 453.413 270.461 453.777 270.36 454.153C268.667 460.414 281.644 463.627 290.635 460.908C298.619 458.488 314.152 453.069 314.152 453.069V457.598L319.9 460.037H333.439L333.836 454.579C337.059 451.985 337.049 449.691 336.701 448.472ZM295.967 444.252C296.344 444.265 296.701 444.423 296.963 444.694C297.225 444.965 297.372 445.327 297.372 445.704C297.372 446.081 297.225 446.443 296.963 446.714C296.701 446.985 296.344 447.143 295.967 447.156C295.591 447.143 295.234 446.985 294.972 446.714C294.71 446.443 294.563 446.081 294.563 445.704C294.563 445.327 294.71 444.965 294.972 444.694C295.234 444.424 295.591 444.265 295.967 444.252L295.967 444.252ZM299.8 450.872C300.176 450.884 300.534 451.043 300.796 451.314C301.058 451.585 301.204 451.947 301.204 452.324C301.204 452.701 301.058 453.063 300.796 453.334C300.534 453.604 300.176 453.763 299.8 453.775C299.423 453.763 299.066 453.604 298.804 453.333C298.542 453.063 298.396 452.7 298.396 452.324C298.396 451.947 298.542 451.585 298.804 451.314C299.066 451.043 299.423 450.885 299.8 450.872L299.8 450.872ZM292.135 438.33C292.342 438.32 292.548 438.36 292.737 438.446C292.925 438.532 293.09 438.661 293.219 438.823C293.437 439.113 293.549 439.469 293.537 439.832C293.525 440.195 293.389 440.542 293.151 440.817C293.031 440.945 292.885 441.047 292.724 441.117C292.563 441.187 292.388 441.223 292.213 441.223C292.188 441.232 292.161 441.235 292.135 441.233C291.759 441.22 291.402 441.062 291.14 440.791C290.878 440.52 290.732 440.158 290.732 439.781C290.732 439.405 290.878 439.043 291.14 438.772C291.402 438.501 291.759 438.342 292.135 438.33Z" fill="#020202"/>
<path d="M350.229 116.165C350.605 116.152 350.962 115.993 351.224 115.723C351.485 115.452 351.631 115.09 351.631 114.713C351.631 114.337 351.485 113.975 351.224 113.704C350.962 113.433 350.605 113.275 350.229 113.262C349.853 113.275 349.496 113.433 349.235 113.704C348.973 113.975 348.827 114.337 348.827 114.713C348.827 115.09 348.973 115.452 349.235 115.723C349.496 115.993 349.853 116.152 350.229 116.165Z" fill="#D13F3F"/>
<path d="M309.435 147.488C308.632 147.588 307.838 147.755 307.062 147.986C306.984 148.014 306.911 148.053 306.843 148.101C306.798 148.125 306.838 148.125 306.825 148.112C306.835 148.103 306.841 148.091 306.843 148.077C306.845 148.064 306.843 148.05 306.836 148.038C306.83 148.023 306.846 148.026 306.846 148.026C306.984 148.103 307.13 148.163 307.283 148.205C307.665 148.314 308.053 148.401 308.446 148.466C310.035 148.754 311.656 148.957 313.272 149.17C316.508 149.587 319.749 150.007 322.985 150.498L322.931 150.497C323.326 150.493 323.72 150.458 324.109 150.393C324.469 150.341 324.929 150.16 324.842 150.043C324.75 149.784 324.342 149.52 324.017 149.318C323.666 149.112 323.303 148.915 322.934 148.727C323.335 148.836 323.73 148.969 324.114 149.127C324.311 149.209 324.501 149.303 324.685 149.41C324.903 149.518 325.083 149.689 325.204 149.9C325.242 149.977 325.259 150.063 325.253 150.148C325.247 150.234 325.218 150.317 325.17 150.388C325.09 150.501 324.987 150.596 324.866 150.664C324.667 150.776 324.455 150.862 324.235 150.921C323.82 151.036 323.396 151.117 322.967 151.163L322.943 151.163L322.913 151.161C319.643 150.937 316.382 150.601 313.139 150.091C311.509 149.847 309.892 149.519 308.296 149.11C307.889 149 307.488 148.865 307.097 148.709C306.858 148.627 306.643 148.49 306.468 148.308C306.436 148.267 306.411 148.221 306.395 148.171C306.382 148.095 306.387 148.017 306.409 147.943C306.454 147.859 306.523 147.79 306.606 147.744C306.714 147.686 306.829 147.644 306.949 147.619C307.77 147.478 308.604 147.435 309.435 147.488Z" fill="black"/>
<path d="M429.675 454.143V454.134C429.572 453.764 429.429 453.407 429.249 453.069C429.249 453.069 426.733 459.747 408.616 457.86C408.597 457.689 408.587 457.518 408.587 457.347V457.337C408.403 452.643 412.816 447.185 415.429 444.379C416.126 443.643 416.687 443.082 417.007 442.782C417.191 442.598 417.297 442.501 417.297 442.501C415.671 439.017 403.826 436.685 403.826 436.685C403.335 436.654 402.842 436.696 402.364 436.811H402.354C401.609 436.982 400.899 437.28 400.254 437.691C395.445 440.682 391.98 449.343 391.332 451.046C391.264 451.23 391.225 451.337 391.225 451.337C391.225 451.337 390.993 451.453 389.773 451.085C381.296 448.54 368.241 455.634 363.74 447.553C363.557 447.829 363.42 448.133 363.334 448.453C362.986 449.663 362.966 451.976 366.199 454.579V460.037H380.134L385.883 457.598V453.069C385.883 453.069 401.416 458.489 409.4 460.908C418.391 463.628 431.378 460.415 429.675 454.143ZM403.622 447.853C403.246 447.839 402.89 447.681 402.629 447.41C402.368 447.139 402.222 446.777 402.222 446.401C402.222 446.025 402.368 445.663 402.629 445.392C402.89 445.122 403.246 444.963 403.622 444.949C403.998 444.963 404.355 445.122 404.616 445.392C404.877 445.663 405.023 446.025 405.023 446.401C405.023 446.777 404.877 447.139 404.616 447.41C404.355 447.681 403.998 447.839 403.622 447.853ZM408.152 438.678C408.488 438.666 408.817 438.78 409.074 438.999C409.33 439.218 409.495 439.525 409.535 439.859C409.575 440.042 409.578 440.231 409.545 440.415C409.511 440.6 409.441 440.775 409.34 440.933C409.238 441.09 409.107 441.226 408.953 441.332C408.798 441.438 408.625 441.513 408.442 441.553H408.432C408.34 441.573 408.246 441.583 408.152 441.582C407.913 441.592 407.676 441.536 407.467 441.422C407.257 441.308 407.082 441.139 406.961 440.933V440.924C406.777 440.608 406.708 440.238 406.768 439.877C406.829 439.516 407.013 439.188 407.29 438.949C407.54 438.768 407.843 438.673 408.152 438.678ZM399.79 455.169C399.459 455.183 399.134 455.072 398.88 454.859C398.626 454.646 398.461 454.346 398.416 454.018C398.374 453.793 398.38 453.562 398.435 453.34C398.494 453.028 398.663 452.747 398.912 452.55C399.161 452.353 399.473 452.252 399.79 452.266C400.055 452.272 400.313 452.35 400.537 452.491C400.761 452.633 400.942 452.833 401.06 453.07C401.179 453.307 401.23 453.572 401.209 453.836C401.188 454.1 401.096 454.354 400.942 454.569C400.818 454.779 400.632 454.945 400.409 455.043C400.214 455.127 400.003 455.17 399.79 455.169Z" fill="#020202"/>
<path d="M314.036 260.008L314.026 260.008C314.001 260.009 313.977 260.001 313.959 259.984C313.941 259.967 313.93 259.944 313.929 259.919L313.929 259.908L313.929 259.9C314.398 253.887 315.215 247.907 316.218 241.958C317.181 236.001 318.484 230.103 319.893 224.231C321.322 218.357 323.073 212.565 325.138 206.883C327.251 201.218 329.712 195.689 332.507 190.327L332.513 190.315C332.522 190.297 332.533 190.281 332.545 190.265L341.747 178.813C344.836 175.014 347.91 171.201 351.034 167.426C354.165 163.658 357.325 159.905 360.643 156.286C363.926 152.607 367.441 149.142 371.166 145.911C371.33 145.773 371.536 145.696 371.75 145.694L371.764 145.694L371.773 145.694L371.296 145.826C373.812 144.481 376.696 143.988 379.516 144.421C380.91 144.637 382.26 145.076 383.513 145.723C384.139 146.034 384.74 146.39 385.314 146.789C385.883 147.186 386.402 147.644 386.947 148.071C387.057 148.157 387.146 148.268 387.206 148.395C387.266 148.522 387.295 148.661 387.292 148.801L387.291 148.837C387.179 153.034 387.045 157.231 386.891 161.428C386.752 165.624 386.384 169.802 386.003 173.978C385.607 178.153 385.168 182.323 384.599 186.477C384.017 190.629 383.388 194.774 382.622 198.894L382.627 198.835L382.627 198.845L382.626 198.872L382.622 198.904L380.849 207.447C380.846 207.46 380.841 207.471 380.834 207.482C380.827 207.492 380.818 207.501 380.807 207.508C380.797 207.515 380.785 207.52 380.772 207.523C380.76 207.525 380.747 207.525 380.735 207.522C380.71 207.516 380.689 207.502 380.675 207.481C380.661 207.461 380.655 207.435 380.659 207.411L381.867 198.786L381.862 198.845L381.862 198.835L381.863 198.8L381.867 198.776C382.386 194.629 382.871 190.481 383.252 186.322C383.632 182.164 384.009 178.006 384.272 173.841C384.411 171.758 384.53 169.675 384.632 167.591C384.727 165.507 384.869 163.424 384.891 161.34C384.976 157.173 385.089 153.008 385.23 148.844L385.574 149.609C385.092 149.235 384.632 148.825 384.135 148.476C383.638 148.131 383.12 147.818 382.584 147.538C381.527 146.969 380.384 146.576 379.201 146.375C378.017 146.166 376.807 146.157 375.621 146.347C374.446 146.52 373.308 146.883 372.25 147.422L372.194 147.451C372.064 147.519 371.919 147.554 371.773 147.553L371.763 147.553L372.36 147.337C368.653 150.479 365.119 153.822 361.775 157.35C358.409 160.881 355.058 164.44 351.806 168.091C348.545 171.734 345.358 175.443 342.244 179.219C339.116 182.979 336.08 186.813 333.134 190.72L333.172 190.659C330.62 196.089 328.412 201.673 326.561 207.379C324.735 213.091 323.048 218.844 321.5 224.64C319.974 230.445 318.692 236.311 317.425 242.185C316.215 248.071 315.094 253.981 314.123 259.922L314.026 259.814L314.036 259.814C314.061 259.815 314.084 259.826 314.102 259.844C314.119 259.862 314.129 259.886 314.129 259.911C314.129 259.936 314.119 259.96 314.102 259.978C314.084 259.996 314.061 260.007 314.036 260.008L314.036 260.008Z" fill="#020202"/>
<path d="M341.112 187.238C341.943 187.773 342.737 188.363 343.489 189.004L345.609 190.821C346.296 191.427 346.985 191.986 347.697 192.501C348.425 193.072 349.27 193.476 350.171 193.684C349.695 193.948 349.167 194.103 348.624 194.135C348.08 194.167 347.537 194.077 347.034 193.87C346.042 193.525 345.128 192.986 344.345 192.285C343.583 191.619 342.913 190.853 342.354 190.01C341.782 189.165 341.362 188.227 341.112 187.238Z" fill="#020202"/>
<path d="M348.107 106.309C346.024 106.862 342.366 120.263 342.366 120.263C342.366 120.263 339.25 105.51 348.107 106.309Z" fill="#020202"/>
<path d="M318.268 258.324C318.645 258.311 319.001 258.153 319.263 257.882C319.524 257.611 319.671 257.249 319.671 256.873C319.671 256.496 319.524 256.134 319.263 255.863C319.001 255.593 318.645 255.434 318.268 255.421C317.892 255.434 317.535 255.593 317.274 255.863C317.012 256.134 316.866 256.496 316.866 256.873C316.866 257.249 317.012 257.611 317.274 257.882C317.535 258.153 317.892 258.311 318.268 258.324Z" fill="#020202"/>
<path d="M325.585 262.157C325.961 262.144 326.318 261.985 326.579 261.714C326.841 261.443 326.987 261.082 326.987 260.705C326.987 260.329 326.841 259.967 326.579 259.696C326.318 259.425 325.961 259.266 325.585 259.253C325.208 259.266 324.852 259.425 324.59 259.696C324.329 259.967 324.182 260.329 324.182 260.705C324.182 261.082 324.329 261.443 324.59 261.714C324.852 261.985 325.208 262.144 325.585 262.157Z" fill="#020202"/>
<path d="M333.946 265.292C334.322 265.279 334.679 265.12 334.941 264.85C335.202 264.579 335.348 264.217 335.348 263.84C335.348 263.464 335.202 263.102 334.941 262.831C334.679 262.56 334.322 262.402 333.946 262.389C333.57 262.402 333.213 262.56 332.952 262.831C332.69 263.102 332.544 263.464 332.544 263.84C332.544 264.217 332.69 264.579 332.952 264.85C333.213 265.12 333.57 265.279 333.946 265.292Z" fill="#020202"/>
<path d="M343.353 265.292C343.729 265.279 344.086 265.12 344.347 264.85C344.609 264.579 344.755 264.217 344.755 263.84C344.755 263.464 344.609 263.102 344.347 262.831C344.086 262.56 343.729 262.402 343.353 262.389C342.977 262.402 342.62 262.56 342.358 262.831C342.097 263.102 341.951 263.464 341.951 263.84C341.951 264.217 342.097 264.579 342.358 264.85C342.62 265.12 342.977 265.279 343.353 265.292Z" fill="#020202"/>
<path d="M352.063 261.111C352.439 261.098 352.796 260.94 353.057 260.669C353.319 260.398 353.465 260.036 353.465 259.66C353.465 259.283 353.319 258.921 353.057 258.65C352.796 258.38 352.439 258.221 352.063 258.208C351.686 258.221 351.33 258.38 351.068 258.65C350.807 258.921 350.66 259.283 350.66 259.66C350.66 260.036 350.807 260.398 351.068 260.669C351.33 260.94 351.686 261.098 352.063 261.111Z" fill="#020202"/>
<path d="M359.379 253.098C359.756 253.085 360.112 252.927 360.374 252.656C360.635 252.385 360.782 252.023 360.782 251.646C360.782 251.27 360.635 250.908 360.374 250.637C360.112 250.366 359.756 250.208 359.379 250.195C359.003 250.208 358.646 250.366 358.385 250.637C358.123 250.908 357.977 251.27 357.977 251.646C357.977 252.023 358.123 252.385 358.385 252.656C358.646 252.927 359.003 253.085 359.379 253.098Z" fill="#020202"/>
<path d="M365.302 243.343C365.678 243.33 366.035 243.172 366.296 242.901C366.558 242.63 366.704 242.268 366.704 241.892C366.704 241.515 366.558 241.153 366.296 240.882C366.035 240.612 365.678 240.453 365.302 240.44C364.926 240.453 364.569 240.612 364.307 240.882C364.046 241.153 363.9 241.515 363.9 241.892C363.9 242.268 364.046 242.63 364.307 242.901C364.569 243.172 364.926 243.33 365.302 243.343Z" fill="#020202"/>
<path d="M370.18 233.24C370.556 233.227 370.912 233.068 371.174 232.797C371.436 232.526 371.582 232.165 371.582 231.788C371.582 231.412 371.436 231.05 371.174 230.779C370.912 230.508 370.556 230.349 370.18 230.336C369.803 230.349 369.447 230.508 369.185 230.779C368.923 231.05 368.777 231.412 368.777 231.788C368.777 232.165 368.923 232.526 369.185 232.797C369.447 233.068 369.803 233.227 370.18 233.24Z" fill="#020202"/>
<path d="M374.36 221.743C374.737 221.73 375.093 221.571 375.355 221.3C375.616 221.029 375.763 220.668 375.763 220.291C375.763 219.914 375.616 219.553 375.355 219.282C375.093 219.011 374.737 218.852 374.36 218.839C373.984 218.852 373.627 219.011 373.366 219.282C373.104 219.553 372.958 219.914 372.958 220.291C372.958 220.668 373.104 221.029 373.366 221.3C373.627 221.571 373.984 221.73 374.36 221.743Z" fill="#020202"/>
<path d="M376.799 211.639C377.175 211.626 377.532 211.467 377.793 211.196C378.055 210.925 378.201 210.564 378.201 210.187C378.201 209.81 378.055 209.449 377.793 209.178C377.532 208.907 377.175 208.748 376.799 208.735C376.423 208.748 376.066 208.907 375.805 209.178C375.543 209.449 375.397 209.81 375.397 210.187C375.397 210.564 375.543 210.925 375.805 211.196C376.066 211.467 376.423 211.626 376.799 211.639Z" fill="#020202"/>
<path d="M378.889 201.535C379.266 201.522 379.622 201.364 379.884 201.093C380.146 200.822 380.292 200.46 380.292 200.083C380.292 199.707 380.146 199.345 379.884 199.074C379.622 198.803 379.266 198.645 378.889 198.632C378.513 198.645 378.157 198.803 377.895 199.074C377.633 199.345 377.487 199.707 377.487 200.083C377.487 200.46 377.633 200.822 377.895 201.093C378.157 201.364 378.513 201.522 378.889 201.535Z" fill="#020202"/>
<path d="M380.631 190.735C381.008 190.722 381.364 190.563 381.626 190.292C381.888 190.022 382.034 189.66 382.034 189.283C382.034 188.907 381.888 188.545 381.626 188.274C381.364 188.003 381.008 187.845 380.631 187.832C380.255 187.845 379.899 188.003 379.637 188.274C379.375 188.545 379.229 188.907 379.229 189.283C379.229 189.66 379.375 190.022 379.637 190.292C379.899 190.563 380.255 190.722 380.631 190.735Z" fill="#020202"/>
<path d="M381.677 180.283C382.053 180.27 382.41 180.112 382.671 179.841C382.933 179.57 383.079 179.208 383.079 178.832C383.079 178.455 382.933 178.093 382.671 177.822C382.41 177.552 382.053 177.393 381.677 177.38C381.3 177.393 380.944 177.552 380.682 177.822C380.421 178.093 380.274 178.455 380.274 178.832C380.274 179.208 380.421 179.57 380.682 179.841C380.944 180.112 381.3 180.27 381.677 180.283Z" fill="#020202"/>
<path d="M382.373 170.528C382.75 170.515 383.106 170.356 383.368 170.085C383.629 169.815 383.776 169.453 383.776 169.076C383.776 168.7 383.629 168.338 383.368 168.067C383.106 167.796 382.75 167.638 382.373 167.625C381.997 167.638 381.641 167.796 381.379 168.067C381.117 168.338 380.971 168.7 380.971 169.076C380.971 169.453 381.117 169.815 381.379 170.085C381.641 170.356 381.997 170.515 382.373 170.528Z" fill="#020202"/>
<path d="M382.373 161.121C382.75 161.108 383.106 160.949 383.368 160.679C383.629 160.408 383.776 160.046 383.776 159.669C383.776 159.293 383.629 158.931 383.368 158.66C383.106 158.389 382.75 158.231 382.373 158.218C381.997 158.231 381.641 158.389 381.379 158.66C381.117 158.931 380.971 159.293 380.971 159.669C380.971 160.046 381.117 160.408 381.379 160.679C381.641 160.949 381.997 161.108 382.373 161.121Z" fill="#020202"/>
<path d="M383.07 152.063C383.447 152.05 383.803 151.891 384.065 151.62C384.326 151.35 384.472 150.988 384.472 150.611C384.472 150.235 384.326 149.873 384.065 149.602C383.803 149.331 383.447 149.173 383.07 149.16C382.694 149.173 382.337 149.331 382.076 149.602C381.814 149.873 381.668 150.235 381.668 150.611C381.668 150.988 381.814 151.35 382.076 151.62C382.337 151.891 382.694 152.05 383.07 152.063Z" fill="#020202"/>
<path d="M395.264 191.083C395.64 191.07 395.997 190.912 396.259 190.641C396.52 190.37 396.666 190.008 396.666 189.632C396.666 189.255 396.52 188.893 396.259 188.623C395.997 188.352 395.64 188.193 395.264 188.18C394.888 188.193 394.531 188.352 394.27 188.623C394.008 188.893 393.862 189.255 393.862 189.632C393.862 190.008 394.008 190.37 394.27 190.641C394.531 190.912 394.888 191.07 395.264 191.083Z" fill="#020202"/>
<path d="M400.49 190.038C400.866 190.025 401.223 189.866 401.485 189.596C401.746 189.325 401.892 188.963 401.892 188.586C401.892 188.21 401.746 187.848 401.485 187.577C401.223 187.306 400.866 187.148 400.49 187.135C400.114 187.148 399.757 187.306 399.496 187.577C399.234 187.848 399.088 188.21 399.088 188.586C399.088 188.963 399.234 189.325 399.496 189.596C399.757 189.866 400.114 190.025 400.49 190.038Z" fill="#020202"/>
<path d="M324.109 188.479C324.486 188.465 324.842 188.307 325.104 188.036C325.365 187.765 325.512 187.403 325.512 187.027C325.512 186.65 325.365 186.289 325.104 186.018C324.842 185.747 324.486 185.588 324.109 185.575C323.733 185.588 323.376 185.747 323.115 186.018C322.853 186.289 322.707 186.65 322.707 187.027C322.707 187.403 322.853 187.765 323.115 188.036C323.376 188.307 323.733 188.465 324.109 188.479Z" fill="#020202"/>
<path d="M399.445 355.527C399.821 355.514 400.178 355.356 400.439 355.085C400.701 354.814 400.847 354.452 400.847 354.076C400.847 353.699 400.701 353.337 400.439 353.066C400.178 352.796 399.821 352.637 399.445 352.624C399.069 352.637 398.712 352.796 398.45 353.066C398.189 353.337 398.042 353.699 398.042 354.076C398.042 354.452 398.189 354.814 398.45 355.085C398.712 355.356 399.069 355.514 399.445 355.527Z" fill="black"/>
<path d="M405.019 357.618C405.396 357.605 405.752 357.446 406.014 357.175C406.275 356.904 406.421 356.543 406.421 356.166C406.421 355.789 406.275 355.428 406.014 355.157C405.752 354.886 405.396 354.727 405.019 354.714C404.643 354.727 404.286 354.886 404.025 355.157C403.763 355.428 403.617 355.789 403.617 356.166C403.617 356.543 403.763 356.904 404.025 357.175C404.286 357.446 404.643 357.605 405.019 357.618Z" fill="black"/>
<path d="M410.594 355.875C410.97 355.862 411.327 355.704 411.588 355.433C411.85 355.162 411.996 354.8 411.996 354.424C411.996 354.047 411.85 353.685 411.588 353.415C411.327 353.144 410.97 352.985 410.594 352.972C410.217 352.985 409.861 353.144 409.599 353.415C409.338 353.685 409.191 354.047 409.191 354.424C409.191 354.8 409.338 355.162 409.599 355.433C409.861 355.704 410.217 355.862 410.594 355.875Z" fill="black"/>
<path d="M415.471 352.74C415.848 352.727 416.204 352.569 416.466 352.298C416.727 352.027 416.874 351.665 416.874 351.289C416.874 350.912 416.727 350.55 416.466 350.279C416.204 350.009 415.848 349.85 415.471 349.837C415.095 349.85 414.738 350.009 414.477 350.279C414.215 350.55 414.069 350.912 414.069 351.289C414.069 351.665 414.215 352.027 414.477 352.298C414.738 352.569 415.095 352.727 415.471 352.74Z" fill="black"/>
<path d="M320.039 182.905C319.923 182.905 319.808 182.918 319.695 182.943L319.324 185.624C319.542 185.748 319.789 185.811 320.039 185.809C320.415 185.796 320.772 185.637 321.033 185.366C321.295 185.095 321.441 184.733 321.441 184.357C321.441 183.98 321.295 183.619 321.033 183.348C320.772 183.077 320.415 182.918 320.039 182.905Z" fill="#020202"/>
</svg>
